{
  "jsonPath": "Rock/Album Rock/Joe Walsh/rocky-mountain-way.json",
  "path": "Rock\\Album Rock\\Joe Walsh\\Rocky Mountain Way.mid",
  "name": "Rocky Mountain Way",
  "difficulty": "Advanced",
  "bpm": 89.00004005001803,
  "notes": [
    {
      "midi": 74,
      "hit": false,
      "t": 8103.928937499999,
      "d": 294.9436874999992,
      "v": 127
    },
    {
      "midi": 69,
      "hit": false,
      "t": 8106.7379249999985,
      "d": 255.6178624999984,
      "v": 127
    },
    {
      "midi": 78,
      "hit": false,
      "t": 8106.7379249999985,
      "d": 269.66279999999915,
      "v": 127
    },
    {
      "midi": 62,
      "hit": false,
      "t": 8112.355899999999,
      "d": 154.49431249999907,
      "v": 127
    },
    {
      "midi": 62,
      "hit": false,
      "t": 8752.805049999999,
      "d": 252.8088749999988,
      "v": 127
    },
    {
      "midi": 69,
      "hit": false,
      "t": 8758.423024999998,
      "d": 275.28077499999927,
      "v": 127
    },
    {
      "midi": 74,
      "hit": false,
      "t": 8758.423024999998,
      "d": 292.1346999999987,
      "v": 127
    },
    {
      "midi": 78,
      "hit": false,
      "t": 8761.232012499999,
      "d": 266.85381249999955,
      "v": 127
    },
    {
      "midi": 69,
      "hit": false,
      "t": 9424.153062499998,
      "d": 466.29192500000136,
      "v": 127
    },
    {
      "midi": 74,
      "hit": false,
      "t": 9424.153062499998,
      "d": 477.5278750000016,
      "v": 127
    },
    {
      "midi": 78,
      "hit": false,
      "t": 9426.962049999998,
      "d": 452.2469875000006,
      "v": 127
    },
    {
      "midi": 62,
      "hit": false,
      "t": 9887.635999999999,
      "d": 101.12355000000025,
      "v": 127
    },
    {
      "midi": 69,
      "hit": false,
      "t": 10075.838162499998,
      "d": 73.03367500000058,
      "v": 127
    },
    {
      "midi": 74,
      "hit": false,
      "t": 10075.838162499998,
      "d": 101.12355000000025,
      "v": 127
    },
    {
      "midi": 78,
      "hit": false,
      "t": 10075.838162499998,
      "d": 123.59545000000071,
      "v": 127
    },
    {
      "midi": 71,
      "hit": false,
      "t": 10508.422237499999,
      "d": 323.0335624999989,
      "v": 123
    },
    {
      "midi": 76,
      "hit": false,
      "t": 10511.231225,
      "d": 334.2695124999991,
      "v": 127
    },
    {
      "midi": 80,
      "hit": false,
      "t": 10514.0402125,
      "d": 353.93242499999906,
      "v": 127
    },
    {
      "midi": 64,
      "hit": false,
      "t": 10519.6581875,
      "d": 323.0335624999989,
      "v": 127
    },
    {
      "midi": 83,
      "hit": false,
      "t": 11219.096075,
      "d": 39.325824999999895,
      "v": 79
    },
    {
      "midi": 80,
      "hit": false,
      "t": 11314.601649999999,
      "d": 67.41569999999956,
      "v": 123
    },
    {
      "midi": 83,
      "hit": false,
      "t": 11384.826337499999,
      "d": 42.13481250000041,
      "v": 95
    },
    {
      "midi": 80,
      "hit": false,
      "t": 11491.5678625,
      "d": 47.75278749999961,
      "v": 106
    },
    {
      "midi": 83,
      "hit": false,
      "t": 11528.0847,
      "d": 42.13481250000041,
      "v": 95
    },
    {
      "midi": 80,
      "hit": false,
      "t": 11634.826225,
      "d": 47.75278749999961,
      "v": 113
    },
    {
      "midi": 83,
      "hit": false,
      "t": 11654.4891375,
      "d": 56.17974999999933,
      "v": 118
    },
    {
      "midi": 80,
      "hit": false,
      "t": 11775.2756,
      "d": 39.325824999999895,
      "v": 101
    },
    {
      "midi": 83,
      "hit": false,
      "t": 11789.320537500002,
      "d": 56.17974999999933,
      "v": 118
    },
    {
      "midi": 80,
      "hit": false,
      "t": 11893.253075,
      "d": 70.22468750000007,
      "v": 127
    },
    {
      "midi": 83,
      "hit": false,
      "t": 12014.0395375,
      "d": 73.03367500000058,
      "v": 127
    },
    {
      "midi": 74,
      "hit": false,
      "t": 13502.802912500001,
      "d": 151.68532500000038,
      "v": 127
    },
    {
      "midi": 69,
      "hit": false,
      "t": 13502.802912500001,
      "d": 162.9212750000006,
      "v": 127
    },
    {
      "midi": 78,
      "hit": false,
      "t": 13505.611900000002,
      "d": 148.87633749999986,
      "v": 127
    },
    {
      "midi": 62,
      "hit": false,
      "t": 13508.420887500002,
      "d": 134.83139999999912,
      "v": 127
    },
    {
      "midi": 69,
      "hit": false,
      "t": 14157.297000000002,
      "d": 143.25836249999884,
      "v": 127
    },
    {
      "midi": 74,
      "hit": false,
      "t": 14157.297000000002,
      "d": 146.06734999999935,
      "v": 127
    },
    {
      "midi": 78,
      "hit": false,
      "t": 14157.297000000002,
      "d": 148.87633749999986,
      "v": 127
    },
    {
      "midi": 62,
      "hit": false,
      "t": 14162.914975000002,
      "d": 134.83139999999912,
      "v": 127
    },
    {
      "midi": 74,
      "hit": false,
      "t": 14842.689950000002,
      "d": 463.48293750000084,
      "v": 127
    },
    {
      "midi": 69,
      "hit": false,
      "t": 14845.498937500002,
      "d": 210.67406250000022,
      "v": 127
    },
    {
      "midi": 62,
      "hit": false,
      "t": 14845.498937500002,
      "d": 353.9324250000009,
      "v": 127
    },
    {
      "midi": 78,
      "hit": false,
      "t": 14845.498937500002,
      "d": 488.763825,
      "v": 127
    },
    {
      "midi": 69,
      "hit": false,
      "t": 15261.229087500004,
      "d": 129.2134249999981,
      "v": 127
    },
    {
      "midi": 69,
      "hit": false,
      "t": 15502.802012500002,
      "d": 70.22468750000007,
      "v": 127
    },
    {
      "midi": 74,
      "hit": false,
      "t": 15505.611000000003,
      "d": 95.50557499999923,
      "v": 127
    },
    {
      "midi": 78,
      "hit": false,
      "t": 15505.611000000003,
      "d": 123.59544999999889,
      "v": 127
    },
    {
      "midi": 64,
      "hit": false,
      "t": 15943.81305,
      "d": 210.67406250000022,
      "v": 127
    },
    {
      "midi": 80,
      "hit": false,
      "t": 15943.81305,
      "d": 219.10102499999994,
      "v": 127
    },
    {
      "midi": 76,
      "hit": false,
      "t": 15946.622037500001,
      "d": 216.29203749999942,
      "v": 127
    },
    {
      "midi": 83,
      "hit": false,
      "t": 15946.622037500001,
      "d": 241.57292499999858,
      "v": 127
    },
    {
      "midi": 71,
      "hit": false,
      "t": 15952.2400125,
      "d": 235.95494999999937,
      "v": 113
    },
    {
      "midi": 83,
      "hit": false,
      "t": 16514.0375125,
      "d": 28.089875000001484,
      "v": 66
    },
    {
      "midi": 80,
      "hit": false,
      "t": 16615.1610625,
      "d": 36.51683749999938,
      "v": 73
    },
    {
      "midi": 83,
      "hit": false,
      "t": 16671.3408125,
      "d": 47.75278750000143,
      "v": 123
    },
    {
      "midi": 80,
      "hit": false,
      "t": 16764.0374,
      "d": 47.75278750000143,
      "v": 123
    },
    {
      "midi": 83,
      "hit": false,
      "t": 16831.453100000002,
      "d": 53.37076249999882,
      "v": 118
    },
    {
      "midi": 80,
      "hit": false,
      "t": 16915.722725,
      "d": 61.797725000000355,
      "v": 127
    },
    {
      "midi": 83,
      "hit": false,
      "t": 16983.138425,
      "d": 56.17974999999933,
      "v": 118
    },
    {
      "midi": 80,
      "hit": false,
      "t": 17064.5990625,
      "d": 53.37076249999882,
      "v": 123
    },
    {
      "midi": 83,
      "hit": false,
      "t": 17123.5878,
      "d": 67.41570000000138,
      "v": 118
    },
    {
      "midi": 80,
      "hit": false,
      "t": 17219.093375000004,
      "d": 58.98873749999984,
      "v": 127
    },
    {
      "midi": 83,
      "hit": false,
      "t": 17283.700087500005,
      "d": 53.37076249999882,
      "v": 113
    },
    {
      "midi": 80,
      "hit": false,
      "t": 17370.778700000003,
      "d": 67.41570000000138,
      "v": 127
    },
    {
      "midi": 83,
      "hit": false,
      "t": 17480.329212500004,
      "d": 81.4606375000003,
      "v": 127
    },
    {
      "midi": 74,
      "hit": false,
      "t": 18876.396000000008,
      "d": 165.73026250000112,
      "v": 127
    },
    {
      "midi": 78,
      "hit": false,
      "t": 18876.396000000008,
      "d": 176.96621249999953,
      "v": 127
    },
    {
      "midi": 69,
      "hit": false,
      "t": 18882.01397500001,
      "d": 174.15722499999902,
      "v": 127
    },
    {
      "midi": 81,
      "hit": false,
      "t": 18882.01397500001,
      "d": 179.77520000000004,
      "v": 127
    },
    {
      "midi": 62,
      "hit": false,
      "t": 18884.82296250001,
      "d": 146.06735000000117,
      "v": 127
    },
    {
      "midi": 81,
      "hit": false,
      "t": 19556.17097500001,
      "d": 160.11228749999646,
      "v": 127
    },
    {
      "midi": 78,
      "hit": false,
      "t": 19558.97996250001,
      "d": 123.59545000000071,
      "v": 127
    },
    {
      "midi": 74,
      "hit": false,
      "t": 19561.78895000001,
      "d": 132.0224124999986,
      "v": 127
    },
    {
      "midi": 62,
      "hit": false,
      "t": 19575.833887500008,
      "d": 129.2134249999981,
      "v": 127
    },
    {
      "midi": 69,
      "hit": false,
      "t": 19575.833887500008,
      "d": 162.92127499999697,
      "v": 127
    },
    {
      "midi": 74,
      "hit": false,
      "t": 20221.901012500006,
      "d": 199.4381125,
      "v": 127
    },
    {
      "midi": 81,
      "hit": false,
      "t": 20221.901012500006,
      "d": 471.9099000000024,
      "v": 127
    },
    {
      "midi": 62,
      "hit": false,
      "t": 20224.710000000006,
      "d": 404.494200000001,
      "v": 127
    },
    {
      "midi": 78,
      "hit": false,
      "t": 20224.710000000006,
      "d": 418.5391374999999,
      "v": 127
    },
    {
      "midi": 69,
      "hit": false,
      "t": 20224.710000000006,
      "d": 446.6290125000014,
      "v": 127
    },
    {
      "midi": 74,
      "hit": false,
      "t": 20674.14800000001,
      "d": 120.7864625000002,
      "v": 127
    },
    {
      "midi": 74,
      "hit": false,
      "t": 20893.24902500001,
      "d": 84.26962500000081,
      "v": 127
    },
    {
      "midi": 81,
      "hit": false,
      "t": 20893.24902500001,
      "d": 134.83139999999912,
      "v": 127
    },
    {
      "midi": 78,
      "hit": false,
      "t": 20896.05801250001,
      "d": 101.12355000000025,
      "v": 127
    },
    {
      "midi": 64,
      "hit": false,
      "t": 21320.215125000006,
      "d": 249.99988750000193,
      "v": 127
    },
    {
      "midi": 80,
      "hit": false,
      "t": 21328.642087500008,
      "d": 227.52798750000147,
      "v": 127
    },
    {
      "midi": 76,
      "hit": false,
      "t": 21328.642087500008,
      "d": 238.76393749999988,
      "v": 127
    },
    {
      "midi": 71,
      "hit": false,
      "t": 21328.642087500008,
      "d": 278.0897624999998,
      "v": 123
    },
    {
      "midi": 83,
      "hit": false,
      "t": 21331.451075000008,
      "d": 261.23583750000034,
      "v": 127
    },
    {
      "midi": 83,
      "hit": false,
      "t": 21876.394650000006,
      "d": 42.13481250000041,
      "v": 95
    },
    {
      "midi": 80,
      "hit": false,
      "t": 21983.136175000007,
      "d": 39.325824999999895,
      "v": 90
    },
    {
      "midi": 83,
      "hit": false,
      "t": 22053.360862500005,
      "d": 53.37076249999882,
      "v": 123
    },
    {
      "midi": 80,
      "hit": false,
      "t": 22146.057450000004,
      "d": 42.13481250000041,
      "v": 85
    },
    {
      "midi": 83,
      "hit": false,
      "t": 22219.091125000003,
      "d": 53.37076249999882,
      "v": 106
    },
    {
      "midi": 80,
      "hit": false,
      "t": 22303.36075,
      "d": 56.17974999999933,
      "v": 113
    },
    {
      "midi": 83,
      "hit": false,
      "t": 22370.776449999998,
      "d": 61.797725000000355,
      "v": 118
    },
    {
      "midi": 80,
      "hit": false,
      "t": 22469.091012499997,
      "d": 61.797725000000355,
      "v": 127
    },
    {
      "midi": 83,
      "hit": false,
      "t": 22533.697724999998,
      "d": 47.75278750000143,
      "v": 106
    },
    {
      "midi": 80,
      "hit": false,
      "t": 22617.96735,
      "d": 56.17974999999933,
      "v": 123
    },
    {
      "midi": 83,
      "hit": false,
      "t": 22662.91115,
      "d": 50.561774999998306,
      "v": 95
    },
    {
      "midi": 80,
      "hit": false,
      "t": 22755.6077375,
      "d": 75.84266249999928,
      "v": 127
    },
    {
      "midi": 83,
      "hit": false,
      "t": 22870.776224999998,
      "d": 78.65164999999979,
      "v": 127
    },
    {
      "midi": 93,
      "hit": false,
      "t": 23609.539937499998,
      "d": 67.41570000000138,
      "v": 127
    },
    {
      "midi": 91,
      "hit": false,
      "t": 23632.0118375,
      "d": 84.26962500000081,
      "v": 82
    },
    {
      "midi": 90,
      "hit": false,
      "t": 23674.14665,
      "d": 92.69658750000235,
      "v": 127
    },
    {
      "midi": 88,
      "hit": false,
      "t": 23713.472475,
      "d": 101.12355000000025,
      "v": 127
    },
    {
      "midi": 86,
      "hit": false,
      "t": 23761.2252625,
      "d": 92.69658749999871,
      "v": 118
    },
    {
      "midi": 85,
      "hit": false,
      "t": 23800.5510875,
      "d": 84.26962499999718,
      "v": 101
    },
    {
      "midi": 83,
      "hit": false,
      "t": 23837.067925,
      "d": 78.65164999999615,
      "v": 101
    },
    {
      "midi": 81,
      "hit": false,
      "t": 23867.966787499998,
      "d": 75.84266249999564,
      "v": 118
    },
    {
      "midi": 79,
      "hit": false,
      "t": 23901.674637499997,
      "d": 67.41569999999774,
      "v": 118
    },
    {
      "midi": 78,
      "hit": false,
      "t": 23929.764512499994,
      "d": 56.17974999999933,
      "v": 118
    },
    {
      "midi": 76,
      "hit": false,
      "t": 23960.663374999993,
      "d": 58.98873750000348,
      "v": 123
    },
    {
      "midi": 74,
      "hit": false,
      "t": 23985.944262499994,
      "d": 39.32582500000353,
      "v": 106
    },
    {
      "midi": 73,
      "hit": false,
      "t": 24014.034137499995,
      "d": 30.898862500001997,
      "v": 101
    },
    {
      "midi": 71,
      "hit": false,
      "t": 24033.69705,
      "d": 19.662912499999948,
      "v": 123
    },
    {
      "midi": 69,
      "hit": false,
      "t": 24053.3599625,
      "d": 33.70784999999887,
      "v": 101
    },
    {
      "midi": 40,
      "hit": false,
      "t": 28764.032,
      "d": 241.5729250000004,
      "v": 127
    },
    {
      "midi": 45,
      "hit": false,
      "t": 28988.751,
      "d": 539.3255999999928,
      "v": 127
    },
    {
      "midi": 43,
      "hit": false,
      "t": 29438.188999999995,
      "d": 210.6740624999984,
      "v": 127
    },
    {
      "midi": 40,
      "hit": false,
      "t": 29662.907999999992,
      "d": 283.7077375000008,
      "v": 127
    },
    {
      "midi": 40,
      "hit": false,
      "t": 34157.288,
      "d": 249.9998875000092,
      "v": 127
    },
    {
      "midi": 45,
      "hit": false,
      "t": 34382.00700000001,
      "d": 452.24698749999516,
      "v": 127
    },
    {
      "midi": 43,
      "hit": false,
      "t": 34831.44500000001,
      "d": 238.76393749999988,
      "v": 127
    },
    {
      "midi": 40,
      "hit": false,
      "t": 35056.164000000004,
      "d": 356.74141249999957,
      "v": 127
    },
    {
      "midi": 40,
      "hit": false,
      "t": 39550.54400000003,
      "d": 221.9100124999968,
      "v": 127
    },
    {
      "midi": 45,
      "hit": false,
      "t": 39775.26300000003,
      "d": 474.71888749999925,
      "v": 127
    },
    {
      "midi": 43,
      "hit": false,
      "t": 40224.70100000003,
      "d": 219.1010249999963,
      "v": 127
    },
    {
      "midi": 40,
      "hit": false,
      "t": 40449.42000000003,
      "d": 255.61786250000296,
      "v": 127
    },
    {
      "midi": 40,
      "hit": false,
      "t": 43820.20500000003,
      "d": 404.494200000001,
      "v": 127
    },
    {
      "midi": 52,
      "hit": false,
      "t": 44269.64300000003,
      "d": 227.5279875000051,
      "v": 127
    },
    {
      "midi": 42,
      "hit": false,
      "t": 44494.36200000004,
      "d": 415.73015000000305,
      "v": 127
    },
    {
      "midi": 54,
      "hit": false,
      "t": 44943.80000000004,
      "d": 241.5729250000004,
      "v": 127
    },
    {
      "midi": 44,
      "hit": false,
      "t": 45168.51900000004,
      "d": 424.1571125000046,
      "v": 127
    },
    {
      "midi": 56,
      "hit": false,
      "t": 45617.95700000004,
      "d": 185.39317499999743,
      "v": 127
    },
    {
      "midi": 57,
      "hit": false,
      "t": 45842.676000000036,
      "d": 483.1458500000008,
      "v": 106
    },
    {
      "midi": 64,
      "hit": false,
      "t": 45842.676000000036,
      "d": 511.23572499999864,
      "v": 127
    },
    {
      "midi": 45,
      "hit": false,
      "t": 45842.676000000036,
      "d": 514.0447124999992,
      "v": 123
    },
    {
      "midi": 61,
      "hit": false,
      "t": 45842.676000000036,
      "d": 536.516612499996,
      "v": 123
    },
    {
      "midi": 52,
      "hit": false,
      "t": 46292.11400000004,
      "d": 95.50557499999559,
      "v": 127
    },
    {
      "midi": 59,
      "hit": false,
      "t": 46516.833000000035,
      "d": 466.291925000005,
      "v": 113
    },
    {
      "midi": 64,
      "hit": false,
      "t": 46516.833000000035,
      "d": 469.1009125000055,
      "v": 118
    },
    {
      "midi": 62,
      "hit": false,
      "t": 46516.833000000035,
      "d": 494.38180000000284,
      "v": 127
    },
    {
      "midi": 52,
      "hit": false,
      "t": 46966.27100000004,
      "d": 106.74152499999764,
      "v": 123
    },
    {
      "midi": 57,
      "hit": false,
      "t": 47190.990000000034,
      "d": 488.76382499999454,
      "v": 106
    },
    {
      "midi": 64,
      "hit": false,
      "t": 47190.990000000034,
      "d": 511.23572499999136,
      "v": 123
    },
    {
      "midi": 61,
      "hit": false,
      "t": 47190.990000000034,
      "d": 570.2244624999948,
      "v": 123
    },
    {
      "midi": 52,
      "hit": false,
      "t": 47640.42800000003,
      "d": 137.64038750000327,
      "v": 123
    },
    {
      "midi": 59,
      "hit": false,
      "t": 47865.147000000026,
      "d": 438.2020499999999,
      "v": 106
    },
    {
      "midi": 64,
      "hit": false,
      "t": 47865.147000000026,
      "d": 449.4380000000019,
      "v": 123
    },
    {
      "midi": 62,
      "hit": false,
      "t": 47865.147000000026,
      "d": 460.67395000000397,
      "v": 118
    },
    {
      "midi": 52,
      "hit": false,
      "t": 48314.58500000003,
      "d": 103.9325375000044,
      "v": 127
    },
    {
      "midi": 57,
      "hit": false,
      "t": 48539.30400000003,
      "d": 455.05597500000295,
      "v": 90
    },
    {
      "midi": 64,
      "hit": false,
      "t": 48539.30400000003,
      "d": 469.1009125000055,
      "v": 106
    },
    {
      "midi": 45,
      "hit": false,
      "t": 48539.30400000003,
      "d": 516.8537000000069,
      "v": 118
    },
    {
      "midi": 61,
      "hit": false,
      "t": 48539.30400000003,
      "d": 516.8537000000069,
      "v": 101
    },
    {
      "midi": 52,
      "hit": false,
      "t": 48988.742000000035,
      "d": 89.88760000000184,
      "v": 127
    },
    {
      "midi": 64,
      "hit": false,
      "t": 49213.46100000003,
      "d": 432.58407499999885,
      "v": 127
    },
    {
      "midi": 59,
      "hit": false,
      "t": 49213.46100000003,
      "d": 443.8200250000009,
      "v": 118
    },
    {
      "midi": 62,
      "hit": false,
      "t": 49213.46100000003,
      "d": 474.71888749999925,
      "v": 127
    },
    {
      "midi": 52,
      "hit": false,
      "t": 49662.899000000034,
      "d": 95.50557499999559,
      "v": 123
    },
    {
      "midi": 57,
      "hit": false,
      "t": 49887.61800000003,
      "d": 174.15722500000265,
      "v": 118
    },
    {
      "midi": 64,
      "hit": false,
      "t": 49887.61800000003,
      "d": 174.15722500000265,
      "v": 123
    },
    {
      "midi": 61,
      "hit": false,
      "t": 49887.61800000003,
      "d": 176.96621250000317,
      "v": 123
    },
    {
      "midi": 45,
      "hit": false,
      "t": 50112.337000000036,
      "d": 146.06734999999753,
      "v": 118
    },
    {
      "midi": 57,
      "hit": false,
      "t": 50337.05600000003,
      "d": 176.96621250000317,
      "v": 123
    },
    {
      "midi": 64,
      "hit": false,
      "t": 50337.05600000003,
      "d": 255.61786250000296,
      "v": 127
    },
    {
      "midi": 61,
      "hit": false,
      "t": 50337.05600000003,
      "d": 258.42685000000347,
      "v": 127
    },
    {
      "midi": 45,
      "hit": false,
      "t": 50561.77500000004,
      "d": 216.29203749999579,
      "v": 118
    },
    {
      "midi": 59,
      "hit": false,
      "t": 50786.494000000035,
      "d": 176.9662124999959,
      "v": 123
    },
    {
      "midi": 64,
      "hit": false,
      "t": 50786.494000000035,
      "d": 179.7751999999964,
      "v": 113
    },
    {
      "midi": 62,
      "hit": false,
      "t": 50786.494000000035,
      "d": 224.71899999999732,
      "v": 127
    },
    {
      "midi": 52,
      "hit": false,
      "t": 51011.21300000003,
      "d": 106.74152499999764,
      "v": 123
    },
    {
      "midi": 52,
      "hit": false,
      "t": 51235.93200000003,
      "d": 241.5729250000004,
      "v": 127
    },
    {
      "midi": 56,
      "hit": false,
      "t": 51235.93200000003,
      "d": 266.85381249999773,
      "v": 73
    },
    {
      "midi": 64,
      "hit": false,
      "t": 51235.93200000003,
      "d": 283.7077375000008,
      "v": 101
    },
    {
      "midi": 59,
      "hit": false,
      "t": 51235.93200000003,
      "d": 300.5616625000039,
      "v": 85
    },
    {
      "midi": 56,
      "hit": false,
      "t": 51685.37000000003,
      "d": 233.14596249999886,
      "v": 90
    },
    {
      "midi": 59,
      "hit": false,
      "t": 51685.37000000003,
      "d": 376.4043249999959,
      "v": 118
    },
    {
      "midi": 64,
      "hit": false,
      "t": 51685.37000000003,
      "d": 421.3481249999968,
      "v": 123
    },
    {
      "midi": 52,
      "hit": false,
      "t": 51910.08900000003,
      "d": 84.26962500000081,
      "v": 118
    },
    {
      "midi": 52,
      "hit": false,
      "t": 52359.52700000003,
      "d": 117.97747499999969,
      "v": 106
    },
    {
      "midi": 56,
      "hit": false,
      "t": 52584.246000000036,
      "d": 193.82013749999896,
      "v": 82
    },
    {
      "midi": 64,
      "hit": false,
      "t": 52584.246000000036,
      "d": 196.62912499999948,
      "v": 118
    },
    {
      "midi": 59,
      "hit": false,
      "t": 52584.246000000036,
      "d": 210.67406250000204,
      "v": 118
    },
    {
      "midi": 56,
      "hit": false,
      "t": 53033.68400000004,
      "d": 157.30329999999958,
      "v": 95
    },
    {
      "midi": 64,
      "hit": false,
      "t": 53033.68400000004,
      "d": 176.96621250000317,
      "v": 123
    },
    {
      "midi": 59,
      "hit": false,
      "t": 53033.68400000004,
      "d": 182.5841875000042,
      "v": 118
    },
    {
      "midi": 57,
      "hit": false,
      "t": 53258.40300000004,
      "d": 199.4381125,
      "v": 123
    },
    {
      "midi": 64,
      "hit": false,
      "t": 53258.40300000004,
      "d": 199.4381125,
      "v": 123
    },
    {
      "midi": 59,
      "hit": false,
      "t": 53258.40300000004,
      "d": 210.67406250000204,
      "v": 123
    },
    {
      "midi": 52,
      "hit": false,
      "t": 53707.841000000044,
      "d": 117.97747499999969,
      "v": 123
    },
    {
      "midi": 56,
      "hit": false,
      "t": 53932.56000000004,
      "d": 171.34823750000214,
      "v": 74
    },
    {
      "midi": 64,
      "hit": false,
      "t": 53932.56000000004,
      "d": 174.15722500000265,
      "v": 118
    },
    {
      "midi": 59,
      "hit": false,
      "t": 53932.56000000004,
      "d": 191.01115000000573,
      "v": 106
    },
    {
      "midi": 56,
      "hit": false,
      "t": 54381.99800000005,
      "d": 132.02241250000225,
      "v": 101
    },
    {
      "midi": 59,
      "hit": false,
      "t": 54381.99800000005,
      "d": 137.64038750000327,
      "v": 118
    },
    {
      "midi": 64,
      "hit": false,
      "t": 54381.99800000005,
      "d": 160.11228750000737,
      "v": 118
    },
    {
      "midi": 57,
      "hit": false,
      "t": 54606.717000000055,
      "d": 193.82013749999896,
      "v": 118
    },
    {
      "midi": 64,
      "hit": false,
      "t": 54606.717000000055,
      "d": 205.056087500001,
      "v": 123
    },
    {
      "midi": 59,
      "hit": false,
      "t": 54606.717000000055,
      "d": 219.10102500000357,
      "v": 123
    },
    {
      "midi": 52,
      "hit": false,
      "t": 54831.43600000006,
      "d": 84.26962500000081,
      "v": 127
    },
    {
      "midi": 59,
      "hit": false,
      "t": 55056.15500000006,
      "d": 70.22468749999825,
      "v": 95
    },
    {
      "midi": 64,
      "hit": false,
      "t": 55056.15500000006,
      "d": 75.84266249999928,
      "v": 118
    },
    {
      "midi": 56,
      "hit": false,
      "t": 55056.15500000006,
      "d": 81.4606375000003,
      "v": 79
    },
    {
      "midi": 56,
      "hit": false,
      "t": 55280.874000000054,
      "d": 210.67406250000204,
      "v": 101
    },
    {
      "midi": 59,
      "hit": false,
      "t": 55280.874000000054,
      "d": 235.95495000000665,
      "v": 123
    },
    {
      "midi": 64,
      "hit": false,
      "t": 55280.874000000054,
      "d": 258.42685000000347,
      "v": 127
    },
    {
      "midi": 52,
      "hit": false,
      "t": 55505.59300000006,
      "d": 89.88760000000184,
      "v": 123
    },
    {
      "midi": 56,
      "hit": false,
      "t": 55730.31200000006,
      "d": 174.15722500000265,
      "v": 95
    },
    {
      "midi": 59,
      "hit": false,
      "t": 55730.31200000006,
      "d": 227.5279875000051,
      "v": 113
    },
    {
      "midi": 64,
      "hit": false,
      "t": 55730.31200000006,
      "d": 261.235837500004,
      "v": 123
    },
    {
      "midi": 52,
      "hit": false,
      "t": 55955.03100000007,
      "d": 148.87633749999804,
      "v": 127
    },
    {
      "midi": 57,
      "hit": false,
      "t": 56179.750000000065,
      "d": 171.34823750000214,
      "v": 106
    },
    {
      "midi": 59,
      "hit": false,
      "t": 56179.750000000065,
      "d": 191.01115000000573,
      "v": 123
    },
    {
      "midi": 64,
      "hit": false,
      "t": 56179.750000000065,
      "d": 199.43811250000726,
      "v": 123
    },
    {
      "midi": 45,
      "hit": false,
      "t": 56404.46900000007,
      "d": 92.69658750000235,
      "v": 123
    },
    {
      "midi": 57,
      "hit": false,
      "t": 56629.188000000075,
      "d": 308.98862499999814,
      "v": 106
    },
    {
      "midi": 64,
      "hit": false,
      "t": 56629.188000000075,
      "d": 345.5054624999975,
      "v": 123
    },
    {
      "midi": 61,
      "hit": false,
      "t": 56629.188000000075,
      "d": 348.31444999999803,
      "v": 118
    },
    {
      "midi": 45,
      "hit": false,
      "t": 56629.188000000075,
      "d": 1061.7972750000117,
      "v": 118
    },
    {
      "midi": 57,
      "hit": false,
      "t": 57078.62600000007,
      "d": 126.40443750000122,
      "v": 106
    },
    {
      "midi": 64,
      "hit": false,
      "t": 57078.62600000007,
      "d": 134.83140000000276,
      "v": 127
    },
    {
      "midi": 61,
      "hit": false,
      "t": 57078.62600000007,
      "d": 140.44937500000378,
      "v": 118
    },
    {
      "midi": 67,
      "hit": false,
      "t": 57303.345000000074,
      "d": 30.898862500005635,
      "v": 85
    },
    {
      "midi": 66,
      "hit": false,
      "t": 57303.345000000074,
      "d": 320.22457500000746,
      "v": 95
    },
    {
      "midi": 57,
      "hit": false,
      "t": 57303.345000000074,
      "d": 334.26951250001,
      "v": 106
    },
    {
      "midi": 62,
      "hit": false,
      "t": 57303.345000000074,
      "d": 348.3144500000126,
      "v": 123
    },
    {
      "midi": 52,
      "hit": false,
      "t": 57752.78300000008,
      "d": 126.40443750000122,
      "v": 118
    },
    {
      "midi": 57,
      "hit": false,
      "t": 57977.50200000009,
      "d": 441.0110375000004,
      "v": 113
    },
    {
      "midi": 64,
      "hit": false,
      "t": 57977.50200000009,
      "d": 502.8087625000044,
      "v": 127
    },
    {
      "midi": 61,
      "hit": false,
      "t": 57977.50200000009,
      "d": 514.0447125000064,
      "v": 123
    },
    {
      "midi": 45,
      "hit": false,
      "t": 58426.94000000009,
      "d": 766.8535875000161,
      "v": 113
    },
    {
      "midi": 66,
      "hit": false,
      "t": 58651.659000000094,
      "d": 207.86507500000153,
      "v": 127
    },
    {
      "midi": 62,
      "hit": false,
      "t": 58651.659000000094,
      "d": 219.10102500000357,
      "v": 127
    },
    {
      "midi": 57,
      "hit": false,
      "t": 58651.659000000094,
      "d": 233.14596250000614,
      "v": 123
    },
    {
      "midi": 52,
      "hit": false,
      "t": 59101.0970000001,
      "d": 98.31456250000338,
      "v": 118
    },
    {
      "midi": 57,
      "hit": false,
      "t": 59325.81600000011,
      "d": 418.53913750000356,
      "v": 95
    },
    {
      "midi": 61,
      "hit": false,
      "t": 59325.81600000011,
      "d": 474.71888749999925,
      "v": 106
    },
    {
      "midi": 64,
      "hit": false,
      "t": 59325.81600000011,
      "d": 485.9548375000013,
      "v": 118
    },
    {
      "midi": 45,
      "hit": false,
      "t": 59325.81600000011,
      "d": 2140.4484749999974,
      "v": 118
    },
    {
      "midi": 52,
      "hit": false,
      "t": 59775.25400000011,
      "d": 137.640387499996,
      "v": 123
    },
    {
      "midi": 57,
      "hit": false,
      "t": 59999.97300000011,
      "d": 224.71899999999732,
      "v": 118
    },
    {
      "midi": 66,
      "hit": false,
      "t": 59999.97300000011,
      "d": 227.52798749999783,
      "v": 127
    },
    {
      "midi": 62,
      "hit": false,
      "t": 59999.97300000011,
      "d": 235.95494999999937,
      "v": 123
    },
    {
      "midi": 67,
      "hit": false,
      "t": 60449.41100000011,
      "d": 668.5390249999982,
      "v": 127
    },
    {
      "midi": 64,
      "hit": false,
      "t": 60449.41100000011,
      "d": 671.3480124999987,
      "v": 127
    },
    {
      "midi": 57,
      "hit": false,
      "t": 60449.41100000011,
      "d": 702.2468749999971,
      "v": 113
    },
    {
      "midi": 52,
      "hit": false,
      "t": 61123.56800000011,
      "d": 247.19089999999414,
      "v": 127
    },
    {
      "midi": 57,
      "hit": false,
      "t": 61348.287000000106,
      "d": 216.29203749999579,
      "v": 123
    },
    {
      "midi": 66,
      "hit": false,
      "t": 61348.287000000106,
      "d": 283.7077374999935,
      "v": 127
    },
    {
      "midi": 62,
      "hit": false,
      "t": 61348.287000000106,
      "d": 289.32571249999455,
      "v": 127
    },
    {
      "midi": 54,
      "hit": false,
      "t": 62022.4440000001,
      "d": 348.31444999999803,
      "v": 113
    },
    {
      "midi": 47,
      "hit": false,
      "t": 62022.4440000001,
      "d": 794.9434624999922,
      "v": 123
    },
    {
      "midi": 54,
      "hit": false,
      "t": 62471.88200000009,
      "d": 179.7751999999964,
      "v": 118
    },
    {
      "midi": 59,
      "hit": false,
      "t": 62696.60100000009,
      "d": 205.056087500001,
      "v": 123
    },
    {
      "midi": 66,
      "hit": false,
      "t": 62696.60100000009,
      "d": 213.48305000000255,
      "v": 127
    },
    {
      "midi": 63,
      "hit": false,
      "t": 62696.60100000009,
      "d": 216.29203750000306,
      "v": 127
    },
    {
      "midi": 54,
      "hit": false,
      "t": 63370.758000000096,
      "d": 252.80887499999517,
      "v": 95
    },
    {
      "midi": 47,
      "hit": false,
      "t": 63370.758000000096,
      "d": 292.13469999999506,
      "v": 118
    },
    {
      "midi": 59,
      "hit": false,
      "t": 63595.47700000009,
      "d": 98.3145624999961,
      "v": 85
    },
    {
      "midi": 66,
      "hit": false,
      "t": 63820.19600000009,
      "d": 61.79772499999672,
      "v": 118
    },
    {
      "midi": 59,
      "hit": false,
      "t": 63820.19600000009,
      "d": 70.22468749999825,
      "v": 101
    },
    {
      "midi": 63,
      "hit": false,
      "t": 63820.19600000009,
      "d": 84.26962500000081,
      "v": 123
    },
    {
      "midi": 63,
      "hit": false,
      "t": 64044.91500000009,
      "d": 70.22468749999825,
      "v": 123
    },
    {
      "midi": 59,
      "hit": false,
      "t": 64044.91500000009,
      "d": 73.03367499999877,
      "v": 123
    },
    {
      "midi": 66,
      "hit": false,
      "t": 64044.91500000009,
      "d": 101.12354999999661,
      "v": 127
    },
    {
      "midi": 54,
      "hit": false,
      "t": 64494.35300000008,
      "d": 134.83140000000276,
      "v": 106
    },
    {
      "midi": 47,
      "hit": false,
      "t": 64719.07200000009,
      "d": 865.1681500000122,
      "v": 127
    },
    {
      "midi": 71,
      "hit": false,
      "t": 64943.791000000085,
      "d": 61.79772499999672,
      "v": 46
    },
    {
      "midi": 83,
      "hit": false,
      "t": 64943.791000000085,
      "d": 70.22468749999825,
      "v": 61
    },
    {
      "midi": 78,
      "hit": false,
      "t": 64943.791000000085,
      "d": 73.03367499999877,
      "v": 74
    },
    {
      "midi": 78,
      "hit": false,
      "t": 65168.51000000008,
      "d": 56.17975000000297,
      "v": 82
    },
    {
      "midi": 83,
      "hit": false,
      "t": 65168.51000000008,
      "d": 70.22468750000553,
      "v": 101
    },
    {
      "midi": 71,
      "hit": false,
      "t": 65168.51000000008,
      "d": 75.84266250000655,
      "v": 82
    },
    {
      "midi": 71,
      "hit": false,
      "t": 65393.22900000009,
      "d": 95.50557500000286,
      "v": 127
    },
    {
      "midi": 78,
      "hit": false,
      "t": 65393.22900000009,
      "d": 98.31456250000338,
      "v": 127
    },
    {
      "midi": 83,
      "hit": false,
      "t": 65393.22900000009,
      "d": 117.97747500000696,
      "v": 127
    },
    {
      "midi": 78,
      "hit": false,
      "t": 65617.9480000001,
      "d": 67.41569999999774,
      "v": 106
    },
    {
      "midi": 83,
      "hit": false,
      "t": 65617.9480000001,
      "d": 78.65164999999979,
      "v": 113
    },
    {
      "midi": 71,
      "hit": false,
      "t": 65617.9480000001,
      "d": 81.4606375000003,
      "v": 101
    },
    {
      "midi": 71,
      "hit": false,
      "t": 65842.6670000001,
      "d": 103.9325375000044,
      "v": 118
    },
    {
      "midi": 78,
      "hit": false,
      "t": 65842.6670000001,
      "d": 126.4044375000085,
      "v": 127
    },
    {
      "midi": 83,
      "hit": false,
      "t": 65842.6670000001,
      "d": 151.6853250000131,
      "v": 123
    },
    {
      "midi": 47,
      "hit": false,
      "t": 66067.38600000012,
      "d": 84.26962500000081,
      "v": 127
    },
    {
      "midi": 54,
      "hit": false,
      "t": 66067.38600000012,
      "d": 103.9325375000044,
      "v": 113
    },
    {
      "midi": 78,
      "hit": false,
      "t": 66292.10500000011,
      "d": 98.31456250000338,
      "v": 123
    },
    {
      "midi": 71,
      "hit": false,
      "t": 66292.10500000011,
      "d": 106.74152500000491,
      "v": 101
    },
    {
      "midi": 83,
      "hit": false,
      "t": 66292.10500000011,
      "d": 143.25836250001157,
      "v": 127
    },
    {
      "midi": 54,
      "hit": false,
      "t": 66516.82400000012,
      "d": 123.59544999999343,
      "v": 113
    },
    {
      "midi": 78,
      "hit": false,
      "t": 66741.54300000012,
      "d": 117.97747500000696,
      "v": 127
    },
    {
      "midi": 71,
      "hit": false,
      "t": 66741.54300000012,
      "d": 129.213425000009,
      "v": 118
    },
    {
      "midi": 50,
      "hit": false,
      "t": 67415.70000000013,
      "d": 174.15722500000265,
      "v": 123
    },
    {
      "midi": 69,
      "hit": false,
      "t": 67415.70000000013,
      "d": 176.96621250000317,
      "v": 123
    },
    {
      "midi": 78,
      "hit": false,
      "t": 67415.70000000013,
      "d": 202.24710000000778,
      "v": 127
    },
    {
      "midi": 74,
      "hit": false,
      "t": 67415.70000000013,
      "d": 219.10102500001085,
      "v": 127
    },
    {
      "midi": 62,
      "hit": false,
      "t": 68089.85700000013,
      "d": 134.83139999999548,
      "v": 127
    },
    {
      "midi": 69,
      "hit": false,
      "t": 68089.85700000013,
      "d": 134.83139999999548,
      "v": 123
    },
    {
      "midi": 74,
      "hit": false,
      "t": 68089.85700000013,
      "d": 137.640387499996,
      "v": 127
    },
    {
      "midi": 78,
      "hit": false,
      "t": 68089.85700000013,
      "d": 143.25836249999702,
      "v": 127
    },
    {
      "midi": 62,
      "hit": false,
      "t": 68764.01400000013,
      "d": 179.77520000000368,
      "v": 127
    },
    {
      "midi": 69,
      "hit": false,
      "t": 68764.01400000013,
      "d": 269.6628000000055,
      "v": 123
    },
    {
      "midi": 78,
      "hit": false,
      "t": 68764.01400000013,
      "d": 367.9773625000089,
      "v": 127
    },
    {
      "midi": 74,
      "hit": false,
      "t": 68764.01400000013,
      "d": 432.5840750000061,
      "v": 127
    },
    {
      "midi": 62,
      "hit": false,
      "t": 69213.45200000014,
      "d": 227.52798749999783,
      "v": 127
    },
    {
      "midi": 69,
      "hit": false,
      "t": 69438.17100000013,
      "d": 92.69658750000235,
      "v": 123
    },
    {
      "midi": 74,
      "hit": false,
      "t": 69438.17100000013,
      "d": 109.55051250000542,
      "v": 127
    },
    {
      "midi": 78,
      "hit": false,
      "t": 69438.17100000013,
      "d": 123.59545000000799,
      "v": 127
    },
    {
      "midi": 71,
      "hit": false,
      "t": 69887.60900000014,
      "d": 792.1344749999989,
      "v": 127
    },
    {
      "midi": 76,
      "hit": false,
      "t": 69887.60900000014,
      "d": 870.7861249999987,
      "v": 127
    },
    {
      "midi": 80,
      "hit": false,
      "t": 69887.60900000014,
      "d": 904.4939750000049,
      "v": 127
    },
    {
      "midi": 64,
      "hit": false,
      "t": 69887.60900000014,
      "d": 926.965875000009,
      "v": 127
    },
    {
      "midi": 71,
      "hit": false,
      "t": 70786.48500000015,
      "d": 151.68532499999856,
      "v": 49
    },
    {
      "midi": 64,
      "hit": false,
      "t": 71235.92300000014,
      "d": 81.4606375000003,
      "v": 79
    },
    {
      "midi": 76,
      "hit": false,
      "t": 71460.64200000014,
      "d": 84.26962500000081,
      "v": 118
    },
    {
      "midi": 71,
      "hit": false,
      "t": 71460.64200000014,
      "d": 87.07861250000133,
      "v": 82
    },
    {
      "midi": 80,
      "hit": false,
      "t": 71460.64200000014,
      "d": 95.50557500000286,
      "v": 90
    },
    {
      "midi": 71,
      "hit": false,
      "t": 71910.08000000015,
      "d": 89.88760000000184,
      "v": 127
    },
    {
      "midi": 76,
      "hit": false,
      "t": 71910.08000000015,
      "d": 89.88760000000184,
      "v": 127
    },
    {
      "midi": 80,
      "hit": false,
      "t": 71910.08000000015,
      "d": 137.640387499996,
      "v": 127
    },
    {
      "midi": 64,
      "hit": false,
      "t": 72134.79900000014,
      "d": 75.84266249999928,
      "v": 127
    },
    {
      "midi": 126,
      "hit": false,
      "t": 72808.95600000015,
      "d": 14.044937500002561,
      "v": 1
    },
    {
      "midi": 69,
      "hit": false,
      "t": 72808.95600000015,
      "d": 123.59545000000799,
      "v": 127
    },
    {
      "midi": 62,
      "hit": false,
      "t": 72808.95600000015,
      "d": 132.02241250000952,
      "v": 127
    },
    {
      "midi": 74,
      "hit": false,
      "t": 72808.95600000015,
      "d": 137.64038750001055,
      "v": 127
    },
    {
      "midi": 78,
      "hit": false,
      "t": 72808.95600000015,
      "d": 148.8763375000126,
      "v": 127
    },
    {
      "midi": 69,
      "hit": false,
      "t": 73483.11300000016,
      "d": 117.97747500000696,
      "v": 123
    },
    {
      "midi": 78,
      "hit": false,
      "t": 73483.11300000016,
      "d": 129.213425000009,
      "v": 127
    },
    {
      "midi": 62,
      "hit": false,
      "t": 73483.11300000016,
      "d": 132.02241250000952,
      "v": 127
    },
    {
      "midi": 74,
      "hit": false,
      "t": 73483.11300000016,
      "d": 132.02241250000952,
      "v": 127
    },
    {
      "midi": 62,
      "hit": false,
      "t": 74157.27000000016,
      "d": 140.4493749999965,
      "v": 127
    },
    {
      "midi": 74,
      "hit": false,
      "t": 74157.27000000016,
      "d": 151.68532499999856,
      "v": 127
    },
    {
      "midi": 69,
      "hit": false,
      "t": 74157.27000000016,
      "d": 157.30329999999958,
      "v": 123
    },
    {
      "midi": 78,
      "hit": false,
      "t": 74157.27000000016,
      "d": 162.9212750000006,
      "v": 127
    },
    {
      "midi": 62,
      "hit": false,
      "t": 74606.70800000016,
      "d": 137.640387499996,
      "v": 127
    },
    {
      "midi": 69,
      "hit": false,
      "t": 74831.42700000016,
      "d": 81.4606375000003,
      "v": 123
    },
    {
      "midi": 74,
      "hit": false,
      "t": 74831.42700000016,
      "d": 106.74152500000491,
      "v": 127
    },
    {
      "midi": 78,
      "hit": false,
      "t": 74831.42700000016,
      "d": 120.78646250000747,
      "v": 127
    },
    {
      "midi": 71,
      "hit": false,
      "t": 75280.86500000017,
      "d": 547.752562499998,
      "v": 127
    },
    {
      "midi": 76,
      "hit": false,
      "t": 75280.86500000017,
      "d": 595.5053499999922,
      "v": 127
    },
    {
      "midi": 64,
      "hit": false,
      "t": 75280.86500000017,
      "d": 598.3143374999927,
      "v": 127
    },
    {
      "midi": 80,
      "hit": false,
      "t": 75280.86500000017,
      "d": 617.9772499999963,
      "v": 127
    },
    {
      "midi": 71,
      "hit": false,
      "t": 75955.02200000016,
      "d": 95.50557500000286,
      "v": 50
    },
    {
      "midi": 64,
      "hit": false,
      "t": 76179.74100000015,
      "d": 101.12355000000389,
      "v": 123
    },
    {
      "midi": 80,
      "hit": false,
      "t": 76404.46000000015,
      "d": 179.77520000000368,
      "v": 127
    },
    {
      "midi": 76,
      "hit": false,
      "t": 76629.17900000015,
      "d": 207.86507499999425,
      "v": 127
    },
    {
      "midi": 71,
      "hit": false,
      "t": 76853.89800000015,
      "d": 98.31456250000338,
      "v": 101
    },
    {
      "midi": 64,
      "hit": false,
      "t": 76853.89800000015,
      "d": 148.87633749999804,
      "v": 127
    },
    {
      "midi": 71,
      "hit": false,
      "t": 77078.61700000014,
      "d": 115.16848750000645,
      "v": 127
    },
    {
      "midi": 83,
      "hit": false,
      "t": 77528.05500000015,
      "d": 78.65164999999979,
      "v": 127
    },
    {
      "midi": 40,
      "hit": false,
      "t": 82696.59200000015,
      "d": 241.5729250000004,
      "v": 127
    },
    {
      "midi": 45,
      "hit": false,
      "t": 82921.31100000015,
      "d": 539.3256000000256,
      "v": 127
    },
    {
      "midi": 43,
      "hit": false,
      "t": 83370.74900000017,
      "d": 210.67406249999476,
      "v": 127
    },
    {
      "midi": 40,
      "hit": false,
      "t": 83595.46800000017,
      "d": 283.7077374999935,
      "v": 127
    },
    {
      "midi": 40,
      "hit": false,
      "t": 88089.84800000017,
      "d": 249.99988750001648,
      "v": 127
    },
    {
      "midi": 45,
      "hit": false,
      "t": 88314.56700000018,
      "d": 452.2469875000097,
      "v": 127
    },
    {
      "midi": 43,
      "hit": false,
      "t": 88764.0050000002,
      "d": 238.76393749999988,
      "v": 127
    },
    {
      "midi": 40,
      "hit": false,
      "t": 88988.72400000019,
      "d": 356.74141250000685,
      "v": 127
    },
    {
      "midi": 40,
      "hit": false,
      "t": 93483.10400000024,
      "d": 221.9100124999968,
      "v": 127
    },
    {
      "midi": 45,
      "hit": false,
      "t": 93707.82300000024,
      "d": 474.71888749999925,
      "v": 127
    },
    {
      "midi": 43,
      "hit": false,
      "t": 94157.26100000023,
      "d": 219.10102500001085,
      "v": 127
    },
    {
      "midi": 40,
      "hit": false,
      "t": 94381.98000000024,
      "d": 255.61786250000296,
      "v": 127
    },
    {
      "midi": 40,
      "hit": false,
      "t": 97752.76500000025,
      "d": 404.494200000001,
      "v": 127
    },
    {
      "midi": 52,
      "hit": false,
      "t": 98202.20300000024,
      "d": 227.52798749999783,
      "v": 127
    },
    {
      "midi": 42,
      "hit": false,
      "t": 98426.92200000024,
      "d": 415.73015000000305,
      "v": 127
    },
    {
      "midi": 54,
      "hit": false,
      "t": 98876.36000000025,
      "d": 241.5729250000004,
      "v": 127
    },
    {
      "midi": 44,
      "hit": false,
      "t": 99101.07900000025,
      "d": 424.1571125000046,
      "v": 127
    },
    {
      "midi": 56,
      "hit": false,
      "t": 99550.51700000025,
      "d": 185.3931750000047,
      "v": 127
    },
    {
      "midi": 57,
      "hit": false,
      "t": 99775.23600000027,
      "d": 483.1458500000008,
      "v": 106
    },
    {
      "midi": 64,
      "hit": false,
      "t": 99775.23600000027,
      "d": 511.2357250000059,
      "v": 127
    },
    {
      "midi": 45,
      "hit": false,
      "t": 99775.23600000027,
      "d": 514.0447125000064,
      "v": 123
    },
    {
      "midi": 61,
      "hit": false,
      "t": 99775.23600000027,
      "d": 536.5166125000105,
      "v": 123
    },
    {
      "midi": 52,
      "hit": false,
      "t": 100224.67400000026,
      "d": 95.50557500001742,
      "v": 127
    },
    {
      "midi": 59,
      "hit": false,
      "t": 100449.39300000027,
      "d": 466.2919249999977,
      "v": 113
    },
    {
      "midi": 64,
      "hit": false,
      "t": 100449.39300000027,
      "d": 469.10091249999823,
      "v": 118
    },
    {
      "midi": 62,
      "hit": false,
      "t": 100449.39300000027,
      "d": 494.38180000000284,
      "v": 127
    },
    {
      "midi": 52,
      "hit": false,
      "t": 100898.83100000027,
      "d": 106.74152500000491,
      "v": 123
    },
    {
      "midi": 57,
      "hit": false,
      "t": 101123.55000000028,
      "d": 488.7638250000018,
      "v": 106
    },
    {
      "midi": 64,
      "hit": false,
      "t": 101123.55000000028,
      "d": 511.2357250000059,
      "v": 123
    },
    {
      "midi": 61,
      "hit": false,
      "t": 101123.55000000028,
      "d": 570.2244625000021,
      "v": 123
    },
    {
      "midi": 52,
      "hit": false,
      "t": 101572.98800000027,
      "d": 137.64038750001055,
      "v": 123
    },
    {
      "midi": 59,
      "hit": false,
      "t": 101797.70700000029,
      "d": 438.2020499999926,
      "v": 106
    },
    {
      "midi": 64,
      "hit": false,
      "t": 101797.70700000029,
      "d": 449.43799999999464,
      "v": 123
    },
    {
      "midi": 62,
      "hit": false,
      "t": 101797.70700000029,
      "d": 460.6739499999967,
      "v": 118
    },
    {
      "midi": 52,
      "hit": false,
      "t": 102247.14500000028,
      "d": 103.9325375000044,
      "v": 127
    },
    {
      "midi": 57,
      "hit": false,
      "t": 102471.86400000028,
      "d": 455.0559750000102,
      "v": 90
    },
    {
      "midi": 64,
      "hit": false,
      "t": 102471.86400000028,
      "d": 469.1009125000128,
      "v": 106
    },
    {
      "midi": 45,
      "hit": false,
      "t": 102471.86400000028,
      "d": 516.8537000000069,
      "v": 118
    },
    {
      "midi": 61,
      "hit": false,
      "t": 102471.86400000028,
      "d": 516.8537000000069,
      "v": 101
    },
    {
      "midi": 52,
      "hit": false,
      "t": 102921.30200000029,
      "d": 89.88760000000184,
      "v": 127
    },
    {
      "midi": 64,
      "hit": false,
      "t": 103146.0210000003,
      "d": 432.58407499999157,
      "v": 127
    },
    {
      "midi": 59,
      "hit": false,
      "t": 103146.0210000003,
      "d": 443.8200249999936,
      "v": 118
    },
    {
      "midi": 62,
      "hit": false,
      "t": 103146.0210000003,
      "d": 474.71888749999925,
      "v": 127
    },
    {
      "midi": 52,
      "hit": false,
      "t": 103595.4590000003,
      "d": 95.50557500000286,
      "v": 123
    },
    {
      "midi": 57,
      "hit": false,
      "t": 103820.1780000003,
      "d": 174.15722500000265,
      "v": 118
    },
    {
      "midi": 64,
      "hit": false,
      "t": 103820.1780000003,
      "d": 174.15722500000265,
      "v": 123
    },
    {
      "midi": 61,
      "hit": false,
      "t": 103820.1780000003,
      "d": 176.96621250000317,
      "v": 123
    },
    {
      "midi": 45,
      "hit": false,
      "t": 104044.8970000003,
      "d": 146.06734999999753,
      "v": 118
    },
    {
      "midi": 57,
      "hit": false,
      "t": 104269.6160000003,
      "d": 176.96621249998861,
      "v": 123
    },
    {
      "midi": 64,
      "hit": false,
      "t": 104269.6160000003,
      "d": 255.61786250000296,
      "v": 127
    },
    {
      "midi": 61,
      "hit": false,
      "t": 104269.6160000003,
      "d": 258.42685000000347,
      "v": 127
    },
    {
      "midi": 45,
      "hit": false,
      "t": 104494.3350000003,
      "d": 216.29203750001034,
      "v": 118
    },
    {
      "midi": 59,
      "hit": false,
      "t": 104719.05400000031,
      "d": 176.96621250000317,
      "v": 123
    },
    {
      "midi": 64,
      "hit": false,
      "t": 104719.05400000031,
      "d": 179.77520000000368,
      "v": 113
    },
    {
      "midi": 62,
      "hit": false,
      "t": 104719.05400000031,
      "d": 224.71899999999732,
      "v": 127
    },
    {
      "midi": 52,
      "hit": false,
      "t": 104943.7730000003,
      "d": 106.74152500000491,
      "v": 123
    },
    {
      "midi": 52,
      "hit": false,
      "t": 105168.49200000032,
      "d": 241.5729250000004,
      "v": 127
    },
    {
      "midi": 56,
      "hit": false,
      "t": 105168.49200000032,
      "d": 266.853812500005,
      "v": 73
    },
    {
      "midi": 64,
      "hit": false,
      "t": 105168.49200000032,
      "d": 283.7077375000081,
      "v": 101
    },
    {
      "midi": 59,
      "hit": false,
      "t": 105168.49200000032,
      "d": 300.56166250001115,
      "v": 85
    },
    {
      "midi": 56,
      "hit": false,
      "t": 105617.93000000033,
      "d": 233.14596249999886,
      "v": 90
    },
    {
      "midi": 59,
      "hit": false,
      "t": 105617.93000000033,
      "d": 376.4043249999959,
      "v": 118
    },
    {
      "midi": 64,
      "hit": false,
      "t": 105617.93000000033,
      "d": 421.3481250000041,
      "v": 123
    },
    {
      "midi": 52,
      "hit": false,
      "t": 105842.64900000033,
      "d": 84.26962500000081,
      "v": 118
    },
    {
      "midi": 52,
      "hit": false,
      "t": 106292.08700000033,
      "d": 117.97747500000696,
      "v": 106
    },
    {
      "midi": 56,
      "hit": false,
      "t": 106516.80600000035,
      "d": 193.82013750000624,
      "v": 82
    },
    {
      "midi": 64,
      "hit": false,
      "t": 106516.80600000035,
      "d": 196.62912500000675,
      "v": 118
    },
    {
      "midi": 59,
      "hit": false,
      "t": 106516.80600000035,
      "d": 210.6740625000093,
      "v": 118
    },
    {
      "midi": 56,
      "hit": false,
      "t": 106966.24400000036,
      "d": 157.30329999999958,
      "v": 95
    },
    {
      "midi": 64,
      "hit": false,
      "t": 106966.24400000036,
      "d": 176.96621250000317,
      "v": 123
    },
    {
      "midi": 59,
      "hit": false,
      "t": 106966.24400000036,
      "d": 182.5841875000042,
      "v": 118
    },
    {
      "midi": 57,
      "hit": false,
      "t": 107190.96300000035,
      "d": 199.4381124999927,
      "v": 123
    },
    {
      "midi": 64,
      "hit": false,
      "t": 107190.96300000035,
      "d": 199.4381124999927,
      "v": 123
    },
    {
      "midi": 59,
      "hit": false,
      "t": 107190.96300000035,
      "d": 210.67406249999476,
      "v": 123
    },
    {
      "midi": 52,
      "hit": false,
      "t": 107640.40100000035,
      "d": 117.97747500000696,
      "v": 123
    },
    {
      "midi": 56,
      "hit": false,
      "t": 107865.12000000036,
      "d": 171.34823750000214,
      "v": 74
    },
    {
      "midi": 64,
      "hit": false,
      "t": 107865.12000000036,
      "d": 174.15722500000265,
      "v": 118
    },
    {
      "midi": 59,
      "hit": false,
      "t": 107865.12000000036,
      "d": 191.01115000000573,
      "v": 106
    },
    {
      "midi": 56,
      "hit": false,
      "t": 108314.55800000037,
      "d": 132.02241249999497,
      "v": 101
    },
    {
      "midi": 59,
      "hit": false,
      "t": 108314.55800000037,
      "d": 137.640387499996,
      "v": 118
    },
    {
      "midi": 64,
      "hit": false,
      "t": 108314.55800000037,
      "d": 160.1122875000001,
      "v": 118
    },
    {
      "midi": 57,
      "hit": false,
      "t": 108539.27700000037,
      "d": 193.82013750000624,
      "v": 118
    },
    {
      "midi": 64,
      "hit": false,
      "t": 108539.27700000037,
      "d": 205.0560875000083,
      "v": 123
    },
    {
      "midi": 59,
      "hit": false,
      "t": 108539.27700000037,
      "d": 219.10102500001085,
      "v": 123
    },
    {
      "midi": 52,
      "hit": false,
      "t": 108763.99600000038,
      "d": 84.26962500000081,
      "v": 127
    },
    {
      "midi": 59,
      "hit": false,
      "t": 108988.71500000037,
      "d": 70.22468749999825,
      "v": 95
    },
    {
      "midi": 64,
      "hit": false,
      "t": 108988.71500000037,
      "d": 75.84266249999928,
      "v": 118
    },
    {
      "midi": 56,
      "hit": false,
      "t": 108988.71500000037,
      "d": 81.4606375000003,
      "v": 79
    },
    {
      "midi": 56,
      "hit": false,
      "t": 109213.43400000037,
      "d": 210.6740625000093,
      "v": 101
    },
    {
      "midi": 59,
      "hit": false,
      "t": 109213.43400000037,
      "d": 235.95495000001392,
      "v": 123
    },
    {
      "midi": 64,
      "hit": false,
      "t": 109213.43400000037,
      "d": 258.426850000018,
      "v": 127
    },
    {
      "midi": 52,
      "hit": false,
      "t": 109438.15300000038,
      "d": 89.88760000000184,
      "v": 123
    },
    {
      "midi": 56,
      "hit": false,
      "t": 109662.87200000038,
      "d": 174.15722500000265,
      "v": 95
    },
    {
      "midi": 59,
      "hit": false,
      "t": 109662.87200000038,
      "d": 227.52798749999783,
      "v": 113
    },
    {
      "midi": 64,
      "hit": false,
      "t": 109662.87200000038,
      "d": 261.235837500004,
      "v": 123
    },
    {
      "midi": 52,
      "hit": false,
      "t": 109887.59100000038,
      "d": 148.8763375000126,
      "v": 127
    },
    {
      "midi": 57,
      "hit": false,
      "t": 110112.31000000039,
      "d": 171.3482374999876,
      "v": 106
    },
    {
      "midi": 59,
      "hit": false,
      "t": 110112.31000000039,
      "d": 191.01114999999118,
      "v": 123
    },
    {
      "midi": 64,
      "hit": false,
      "t": 110112.31000000039,
      "d": 199.4381124999927,
      "v": 123
    },
    {
      "midi": 45,
      "hit": false,
      "t": 110337.02900000039,
      "d": 92.69658750000235,
      "v": 123
    },
    {
      "midi": 57,
      "hit": false,
      "t": 110561.74800000039,
      "d": 308.98862499999814,
      "v": 106
    },
    {
      "midi": 64,
      "hit": false,
      "t": 110561.74800000039,
      "d": 345.5054625000048,
      "v": 123
    },
    {
      "midi": 61,
      "hit": false,
      "t": 110561.74800000039,
      "d": 348.3144500000053,
      "v": 118
    },
    {
      "midi": 45,
      "hit": false,
      "t": 110561.74800000039,
      "d": 1061.797275000019,
      "v": 118
    },
    {
      "midi": 57,
      "hit": false,
      "t": 111011.1860000004,
      "d": 126.40443749999395,
      "v": 106
    },
    {
      "midi": 64,
      "hit": false,
      "t": 111011.1860000004,
      "d": 134.83139999999548,
      "v": 127
    },
    {
      "midi": 61,
      "hit": false,
      "t": 111011.1860000004,
      "d": 140.4493749999965,
      "v": 118
    },
    {
      "midi": 67,
      "hit": false,
      "t": 111235.90500000039,
      "d": 30.898862500005635,
      "v": 85
    },
    {
      "midi": 66,
      "hit": false,
      "t": 111235.90500000039,
      "d": 320.2245750000002,
      "v": 95
    },
    {
      "midi": 57,
      "hit": false,
      "t": 111235.90500000039,
      "d": 334.26951250000275,
      "v": 106
    },
    {
      "midi": 62,
      "hit": false,
      "t": 111235.90500000039,
      "d": 348.3144500000053,
      "v": 123
    },
    {
      "midi": 52,
      "hit": false,
      "t": 111685.3430000004,
      "d": 126.40443749999395,
      "v": 118
    },
    {
      "midi": 57,
      "hit": false,
      "t": 111910.0620000004,
      "d": 441.0110374999931,
      "v": 113
    },
    {
      "midi": 64,
      "hit": false,
      "t": 111910.0620000004,
      "d": 502.8087624999898,
      "v": 127
    },
    {
      "midi": 61,
      "hit": false,
      "t": 111910.0620000004,
      "d": 514.0447124999919,
      "v": 123
    },
    {
      "midi": 45,
      "hit": false,
      "t": 112359.5000000004,
      "d": 766.8535874999943,
      "v": 113
    },
    {
      "midi": 66,
      "hit": false,
      "t": 112584.21900000039,
      "d": 207.86507499999425,
      "v": 127
    },
    {
      "midi": 62,
      "hit": false,
      "t": 112584.21900000039,
      "d": 219.1010249999963,
      "v": 127
    },
    {
      "midi": 57,
      "hit": false,
      "t": 112584.21900000039,
      "d": 233.14596249999886,
      "v": 123
    },
    {
      "midi": 52,
      "hit": false,
      "t": 113033.65700000038,
      "d": 98.31456250000338,
      "v": 118
    },
    {
      "midi": 57,
      "hit": false,
      "t": 113258.37600000038,
      "d": 418.53913750000356,
      "v": 95
    },
    {
      "midi": 61,
      "hit": false,
      "t": 113258.37600000038,
      "d": 474.7188875000138,
      "v": 106
    },
    {
      "midi": 64,
      "hit": false,
      "t": 113258.37600000038,
      "d": 485.95483750001586,
      "v": 118
    },
    {
      "midi": 45,
      "hit": false,
      "t": 113258.37600000038,
      "d": 2140.448475000041,
      "v": 118
    },
    {
      "midi": 52,
      "hit": false,
      "t": 113707.81400000039,
      "d": 137.64038750001055,
      "v": 123
    },
    {
      "midi": 57,
      "hit": false,
      "t": 113932.5330000004,
      "d": 224.71900000001187,
      "v": 118
    },
    {
      "midi": 66,
      "hit": false,
      "t": 113932.5330000004,
      "d": 227.5279875000124,
      "v": 127
    },
    {
      "midi": 62,
      "hit": false,
      "t": 113932.5330000004,
      "d": 235.95495000001392,
      "v": 123
    },
    {
      "midi": 67,
      "hit": false,
      "t": 114381.97100000041,
      "d": 668.5390250000055,
      "v": 127
    },
    {
      "midi": 64,
      "hit": false,
      "t": 114381.97100000041,
      "d": 671.348012500006,
      "v": 127
    },
    {
      "midi": 57,
      "hit": false,
      "t": 114381.97100000041,
      "d": 702.2468750000116,
      "v": 113
    },
    {
      "midi": 52,
      "hit": false,
      "t": 115056.12800000042,
      "d": 247.19090000000142,
      "v": 127
    },
    {
      "midi": 57,
      "hit": false,
      "t": 115280.84700000042,
      "d": 216.29203750001034,
      "v": 123
    },
    {
      "midi": 66,
      "hit": false,
      "t": 115280.84700000042,
      "d": 283.7077375000081,
      "v": 127
    },
    {
      "midi": 62,
      "hit": false,
      "t": 115280.84700000042,
      "d": 289.3257125000091,
      "v": 127
    },
    {
      "midi": 54,
      "hit": false,
      "t": 115955.00400000042,
      "d": 348.3144500000053,
      "v": 113
    },
    {
      "midi": 47,
      "hit": false,
      "t": 115955.00400000042,
      "d": 794.9434624999994,
      "v": 123
    },
    {
      "midi": 54,
      "hit": false,
      "t": 116404.44200000043,
      "d": 179.77520000000368,
      "v": 118
    },
    {
      "midi": 59,
      "hit": false,
      "t": 116629.16100000043,
      "d": 205.05608749999374,
      "v": 123
    },
    {
      "midi": 66,
      "hit": false,
      "t": 116629.16100000043,
      "d": 213.48304999999527,
      "v": 127
    },
    {
      "midi": 63,
      "hit": false,
      "t": 116629.16100000043,
      "d": 216.29203749999579,
      "v": 127
    },
    {
      "midi": 54,
      "hit": false,
      "t": 117303.31800000042,
      "d": 252.80887500000244,
      "v": 95
    },
    {
      "midi": 47,
      "hit": false,
      "t": 117303.31800000042,
      "d": 292.1347000000096,
      "v": 118
    },
    {
      "midi": 59,
      "hit": false,
      "t": 117528.03700000042,
      "d": 98.31456250001793,
      "v": 85
    },
    {
      "midi": 66,
      "hit": false,
      "t": 117752.75600000043,
      "d": 61.79772499999672,
      "v": 118
    },
    {
      "midi": 59,
      "hit": false,
      "t": 117752.75600000043,
      "d": 70.22468749999825,
      "v": 101
    },
    {
      "midi": 63,
      "hit": false,
      "t": 117752.75600000043,
      "d": 84.26962500000081,
      "v": 123
    },
    {
      "midi": 63,
      "hit": false,
      "t": 117977.47500000043,
      "d": 70.22468749999825,
      "v": 123
    },
    {
      "midi": 59,
      "hit": false,
      "t": 117977.47500000043,
      "d": 73.03367499999877,
      "v": 123
    },
    {
      "midi": 66,
      "hit": false,
      "t": 117977.47500000043,
      "d": 101.12355000000389,
      "v": 127
    },
    {
      "midi": 54,
      "hit": false,
      "t": 118426.91300000044,
      "d": 134.83139999999548,
      "v": 106
    },
    {
      "midi": 47,
      "hit": false,
      "t": 118651.63200000043,
      "d": 865.1681499999977,
      "v": 127
    },
    {
      "midi": 71,
      "hit": false,
      "t": 118876.35100000043,
      "d": 61.79772499999672,
      "v": 46
    },
    {
      "midi": 83,
      "hit": false,
      "t": 118876.35100000043,
      "d": 70.22468749999825,
      "v": 61
    },
    {
      "midi": 78,
      "hit": false,
      "t": 118876.35100000043,
      "d": 73.03367499999877,
      "v": 74
    },
    {
      "midi": 78,
      "hit": false,
      "t": 119101.07000000043,
      "d": 56.17974999999569,
      "v": 82
    },
    {
      "midi": 83,
      "hit": false,
      "t": 119101.07000000043,
      "d": 70.22468749999825,
      "v": 101
    },
    {
      "midi": 71,
      "hit": false,
      "t": 119101.07000000043,
      "d": 75.84266249999928,
      "v": 82
    },
    {
      "midi": 71,
      "hit": false,
      "t": 119325.78900000043,
      "d": 95.50557500000286,
      "v": 127
    },
    {
      "midi": 78,
      "hit": false,
      "t": 119325.78900000043,
      "d": 98.31456250000338,
      "v": 127
    },
    {
      "midi": 83,
      "hit": false,
      "t": 119325.78900000043,
      "d": 117.97747500000696,
      "v": 127
    },
    {
      "midi": 78,
      "hit": false,
      "t": 119550.50800000044,
      "d": 67.41569999999774,
      "v": 106
    },
    {
      "midi": 83,
      "hit": false,
      "t": 119550.50800000044,
      "d": 78.65164999999979,
      "v": 113
    },
    {
      "midi": 71,
      "hit": false,
      "t": 119550.50800000044,
      "d": 81.4606375000003,
      "v": 101
    },
    {
      "midi": 71,
      "hit": false,
      "t": 119775.22700000044,
      "d": 103.9325375000044,
      "v": 118
    },
    {
      "midi": 78,
      "hit": false,
      "t": 119775.22700000044,
      "d": 126.4044375000085,
      "v": 127
    },
    {
      "midi": 83,
      "hit": false,
      "t": 119775.22700000044,
      "d": 151.6853250000131,
      "v": 123
    },
    {
      "midi": 47,
      "hit": false,
      "t": 119999.94600000045,
      "d": 84.26962500000081,
      "v": 127
    },
    {
      "midi": 54,
      "hit": false,
      "t": 119999.94600000045,
      "d": 103.9325375000044,
      "v": 113
    },
    {
      "midi": 78,
      "hit": false,
      "t": 120224.66500000044,
      "d": 98.31456250000338,
      "v": 123
    },
    {
      "midi": 71,
      "hit": false,
      "t": 120224.66500000044,
      "d": 106.74152500000491,
      "v": 101
    },
    {
      "midi": 83,
      "hit": false,
      "t": 120224.66500000044,
      "d": 143.25836250001157,
      "v": 127
    },
    {
      "midi": 54,
      "hit": false,
      "t": 120449.38400000046,
      "d": 123.59544999999343,
      "v": 113
    },
    {
      "midi": 78,
      "hit": false,
      "t": 120674.10300000045,
      "d": 117.97747500000696,
      "v": 127
    },
    {
      "midi": 71,
      "hit": false,
      "t": 120674.10300000045,
      "d": 129.213425000009,
      "v": 118
    },
    {
      "midi": 50,
      "hit": false,
      "t": 121348.26000000046,
      "d": 174.15722500000265,
      "v": 123
    },
    {
      "midi": 69,
      "hit": false,
      "t": 121348.26000000046,
      "d": 176.96621250000317,
      "v": 123
    },
    {
      "midi": 78,
      "hit": false,
      "t": 121348.26000000046,
      "d": 202.24710000000778,
      "v": 127
    },
    {
      "midi": 74,
      "hit": false,
      "t": 121348.26000000046,
      "d": 219.10102500001085,
      "v": 127
    },
    {
      "midi": 62,
      "hit": false,
      "t": 122022.41700000047,
      "d": 134.83139999999548,
      "v": 127
    },
    {
      "midi": 69,
      "hit": false,
      "t": 122022.41700000047,
      "d": 134.83139999999548,
      "v": 123
    },
    {
      "midi": 74,
      "hit": false,
      "t": 122022.41700000047,
      "d": 137.640387499996,
      "v": 127
    },
    {
      "midi": 78,
      "hit": false,
      "t": 122022.41700000047,
      "d": 143.25836249999702,
      "v": 127
    },
    {
      "midi": 62,
      "hit": false,
      "t": 122696.57400000046,
      "d": 179.77520000000368,
      "v": 127
    },
    {
      "midi": 69,
      "hit": false,
      "t": 122696.57400000046,
      "d": 269.6628000000055,
      "v": 123
    },
    {
      "midi": 78,
      "hit": false,
      "t": 122696.57400000046,
      "d": 367.9773625000089,
      "v": 127
    },
    {
      "midi": 74,
      "hit": false,
      "t": 122696.57400000046,
      "d": 432.5840750000061,
      "v": 127
    },
    {
      "midi": 62,
      "hit": false,
      "t": 123146.01200000047,
      "d": 227.52798749999783,
      "v": 127
    },
    {
      "midi": 69,
      "hit": false,
      "t": 123370.73100000047,
      "d": 92.69658750000235,
      "v": 123
    },
    {
      "midi": 74,
      "hit": false,
      "t": 123370.73100000047,
      "d": 109.55051250000542,
      "v": 127
    },
    {
      "midi": 78,
      "hit": false,
      "t": 123370.73100000047,
      "d": 123.59545000000799,
      "v": 127
    },
    {
      "midi": 71,
      "hit": false,
      "t": 123820.16900000047,
      "d": 792.1344749999989,
      "v": 127
    },
    {
      "midi": 76,
      "hit": false,
      "t": 123820.16900000047,
      "d": 870.7861249999987,
      "v": 127
    },
    {
      "midi": 80,
      "hit": false,
      "t": 123820.16900000047,
      "d": 904.4939750000049,
      "v": 127
    },
    {
      "midi": 64,
      "hit": false,
      "t": 123820.16900000047,
      "d": 926.965875000009,
      "v": 127
    },
    {
      "midi": 71,
      "hit": false,
      "t": 124719.04500000048,
      "d": 151.68532499999856,
      "v": 49
    },
    {
      "midi": 64,
      "hit": false,
      "t": 125168.48300000047,
      "d": 81.4606375000003,
      "v": 79
    },
    {
      "midi": 76,
      "hit": false,
      "t": 125393.20200000047,
      "d": 84.26962500000081,
      "v": 118
    },
    {
      "midi": 71,
      "hit": false,
      "t": 125393.20200000047,
      "d": 87.07861250000133,
      "v": 82
    },
    {
      "midi": 80,
      "hit": false,
      "t": 125393.20200000047,
      "d": 95.50557500000286,
      "v": 90
    },
    {
      "midi": 71,
      "hit": false,
      "t": 125842.64000000048,
      "d": 89.88760000000184,
      "v": 127
    },
    {
      "midi": 76,
      "hit": false,
      "t": 125842.64000000048,
      "d": 89.88760000000184,
      "v": 127
    },
    {
      "midi": 80,
      "hit": false,
      "t": 125842.64000000048,
      "d": 137.640387499996,
      "v": 127
    },
    {
      "midi": 64,
      "hit": false,
      "t": 126067.35900000048,
      "d": 75.84266249999928,
      "v": 127
    },
    {
      "midi": 69,
      "hit": false,
      "t": 126741.51600000048,
      "d": 123.59544999999343,
      "v": 127
    },
    {
      "midi": 62,
      "hit": false,
      "t": 126741.51600000048,
      "d": 132.02241249999497,
      "v": 127
    },
    {
      "midi": 74,
      "hit": false,
      "t": 126741.51600000048,
      "d": 137.640387499996,
      "v": 127
    },
    {
      "midi": 78,
      "hit": false,
      "t": 126741.51600000048,
      "d": 148.87633749999804,
      "v": 127
    },
    {
      "midi": 69,
      "hit": false,
      "t": 127415.67300000048,
      "d": 117.97747500000696,
      "v": 123
    },
    {
      "midi": 78,
      "hit": false,
      "t": 127415.67300000048,
      "d": 129.213425000009,
      "v": 127
    },
    {
      "midi": 62,
      "hit": false,
      "t": 127415.67300000048,
      "d": 132.02241250000952,
      "v": 127
    },
    {
      "midi": 74,
      "hit": false,
      "t": 127415.67300000048,
      "d": 132.02241250000952,
      "v": 127
    },
    {
      "midi": 62,
      "hit": false,
      "t": 128089.83000000048,
      "d": 140.4493749999965,
      "v": 127
    },
    {
      "midi": 74,
      "hit": false,
      "t": 128089.83000000048,
      "d": 151.68532499999856,
      "v": 127
    },
    {
      "midi": 69,
      "hit": false,
      "t": 128089.83000000048,
      "d": 157.30329999999958,
      "v": 123
    },
    {
      "midi": 78,
      "hit": false,
      "t": 128089.83000000048,
      "d": 162.9212750000006,
      "v": 127
    },
    {
      "midi": 62,
      "hit": false,
      "t": 128539.26800000048,
      "d": 137.640387499996,
      "v": 127
    },
    {
      "midi": 69,
      "hit": false,
      "t": 128763.98700000047,
      "d": 81.4606375000003,
      "v": 123
    },
    {
      "midi": 74,
      "hit": false,
      "t": 128763.98700000047,
      "d": 106.74152500000491,
      "v": 127
    },
    {
      "midi": 78,
      "hit": false,
      "t": 128763.98700000047,
      "d": 120.78646250000747,
      "v": 127
    },
    {
      "midi": 71,
      "hit": false,
      "t": 129213.42500000048,
      "d": 547.752562499998,
      "v": 127
    },
    {
      "midi": 76,
      "hit": false,
      "t": 129213.42500000048,
      "d": 595.5053499999922,
      "v": 127
    },
    {
      "midi": 64,
      "hit": false,
      "t": 129213.42500000048,
      "d": 598.3143374999927,
      "v": 127
    },
    {
      "midi": 80,
      "hit": false,
      "t": 129213.42500000048,
      "d": 617.9772499999963,
      "v": 127
    },
    {
      "midi": 71,
      "hit": false,
      "t": 129887.58200000048,
      "d": 95.50557500000286,
      "v": 50
    },
    {
      "midi": 64,
      "hit": false,
      "t": 130112.30100000047,
      "d": 101.12355000000389,
      "v": 123
    },
    {
      "midi": 80,
      "hit": false,
      "t": 130337.02000000047,
      "d": 179.77520000000368,
      "v": 127
    },
    {
      "midi": 76,
      "hit": false,
      "t": 130561.73900000047,
      "d": 207.86507499999425,
      "v": 127
    },
    {
      "midi": 71,
      "hit": false,
      "t": 130786.45800000046,
      "d": 98.31456250000338,
      "v": 101
    },
    {
      "midi": 64,
      "hit": false,
      "t": 130786.45800000046,
      "d": 148.87633749999804,
      "v": 127
    },
    {
      "midi": 71,
      "hit": false,
      "t": 131011.17700000046,
      "d": 115.1684874999919,
      "v": 127
    },
    {
      "midi": 83,
      "hit": false,
      "t": 131460.61500000046,
      "d": 78.65165000001434,
      "v": 127
    },
    {
      "midi": 61,
      "hit": false,
      "t": 174157.22500000047,
      "d": 70.2246875000128,
      "v": 101
    },
    {
      "midi": 85,
      "hit": false,
      "t": 174157.22500000047,
      "d": 73.03367500001332,
      "v": 70
    },
    {
      "midi": 73,
      "hit": false,
      "t": 174157.22500000047,
      "d": 98.31456250001793,
      "v": 66
    },
    {
      "midi": 61,
      "hit": false,
      "t": 174381.94400000048,
      "d": 87.07861249998678,
      "v": 118
    },
    {
      "midi": 73,
      "hit": false,
      "t": 174381.94400000048,
      "d": 89.88759999998729,
      "v": 113
    },
    {
      "midi": 85,
      "hit": false,
      "t": 174381.94400000048,
      "d": 98.31456249998882,
      "v": 127
    },
    {
      "midi": 73,
      "hit": false,
      "t": 174606.66300000047,
      "d": 75.84266250001383,
      "v": 127
    },
    {
      "midi": 61,
      "hit": false,
      "t": 174606.66300000047,
      "d": 87.07861250001588,
      "v": 127
    },
    {
      "midi": 85,
      "hit": false,
      "t": 174606.66300000047,
      "d": 98.31456250001793,
      "v": 127
    },
    {
      "midi": 73,
      "hit": false,
      "t": 174831.38200000048,
      "d": 73.03367500001332,
      "v": 118
    },
    {
      "midi": 61,
      "hit": false,
      "t": 174831.38200000048,
      "d": 75.84266250001383,
      "v": 127
    },
    {
      "midi": 85,
      "hit": false,
      "t": 174831.38200000048,
      "d": 89.88760000001639,
      "v": 127
    },
    {
      "midi": 73,
      "hit": false,
      "t": 175056.1010000005,
      "d": 78.65165000001434,
      "v": 127
    },
    {
      "midi": 85,
      "hit": false,
      "t": 175056.1010000005,
      "d": 109.55051250001998,
      "v": 127
    },
    {
      "midi": 61,
      "hit": false,
      "t": 175056.1010000005,
      "d": 129.21342500002356,
      "v": 127
    },
    {
      "midi": 57,
      "hit": false,
      "t": 175280.8200000005,
      "d": 483.1458500000008,
      "v": 106
    },
    {
      "midi": 64,
      "hit": false,
      "t": 175280.8200000005,
      "d": 511.2357250000059,
      "v": 127
    },
    {
      "midi": 45,
      "hit": false,
      "t": 175280.8200000005,
      "d": 514.0447125000064,
      "v": 123
    },
    {
      "midi": 61,
      "hit": false,
      "t": 175280.8200000005,
      "d": 536.5166125000105,
      "v": 123
    },
    {
      "midi": 52,
      "hit": false,
      "t": 175730.2580000005,
      "d": 95.50557500001742,
      "v": 127
    },
    {
      "midi": 59,
      "hit": false,
      "t": 175954.9770000005,
      "d": 466.2919249999977,
      "v": 113
    },
    {
      "midi": 64,
      "hit": false,
      "t": 175954.9770000005,
      "d": 469.10091249999823,
      "v": 118
    },
    {
      "midi": 62,
      "hit": false,
      "t": 175954.9770000005,
      "d": 494.38180000000284,
      "v": 127
    },
    {
      "midi": 52,
      "hit": false,
      "t": 176404.4150000005,
      "d": 106.74152500001946,
      "v": 123
    },
    {
      "midi": 57,
      "hit": false,
      "t": 176629.13400000051,
      "d": 488.7638250000309,
      "v": 106
    },
    {
      "midi": 64,
      "hit": false,
      "t": 176629.13400000051,
      "d": 511.235725000035,
      "v": 123
    },
    {
      "midi": 61,
      "hit": false,
      "t": 176629.13400000051,
      "d": 570.2244625000458,
      "v": 123
    },
    {
      "midi": 52,
      "hit": false,
      "t": 177078.57200000054,
      "d": 137.6403875000251,
      "v": 123
    },
    {
      "midi": 59,
      "hit": false,
      "t": 177303.29100000058,
      "d": 438.2020499999926,
      "v": 106
    },
    {
      "midi": 64,
      "hit": false,
      "t": 177303.29100000058,
      "d": 449.43799999999464,
      "v": 123
    },
    {
      "midi": 62,
      "hit": false,
      "t": 177303.29100000058,
      "d": 460.6739499999967,
      "v": 118
    },
    {
      "midi": 52,
      "hit": false,
      "t": 177752.72900000057,
      "d": 103.93253749998985,
      "v": 127
    },
    {
      "midi": 57,
      "hit": false,
      "t": 177977.4480000006,
      "d": 455.05597499999567,
      "v": 90
    },
    {
      "midi": 64,
      "hit": false,
      "t": 177977.4480000006,
      "d": 469.10091249999823,
      "v": 106
    },
    {
      "midi": 45,
      "hit": false,
      "t": 177977.4480000006,
      "d": 516.8537000000069,
      "v": 118
    },
    {
      "midi": 61,
      "hit": false,
      "t": 177977.4480000006,
      "d": 516.8537000000069,
      "v": 101
    },
    {
      "midi": 52,
      "hit": false,
      "t": 178426.88600000058,
      "d": 89.88760000001639,
      "v": 127
    },
    {
      "midi": 64,
      "hit": false,
      "t": 178651.6050000006,
      "d": 432.58407499999157,
      "v": 127
    },
    {
      "midi": 59,
      "hit": false,
      "t": 178651.6050000006,
      "d": 443.8200249999936,
      "v": 118
    },
    {
      "midi": 62,
      "hit": false,
      "t": 178651.6050000006,
      "d": 474.71888749999925,
      "v": 127
    },
    {
      "midi": 52,
      "hit": false,
      "t": 179101.0430000006,
      "d": 95.50557500001742,
      "v": 123
    },
    {
      "midi": 57,
      "hit": false,
      "t": 179325.7620000006,
      "d": 174.15722500000265,
      "v": 118
    },
    {
      "midi": 64,
      "hit": false,
      "t": 179325.7620000006,
      "d": 174.15722500000265,
      "v": 123
    },
    {
      "midi": 61,
      "hit": false,
      "t": 179325.7620000006,
      "d": 176.96621250000317,
      "v": 123
    },
    {
      "midi": 45,
      "hit": false,
      "t": 179550.4810000006,
      "d": 146.06734999999753,
      "v": 118
    },
    {
      "midi": 57,
      "hit": false,
      "t": 179775.20000000062,
      "d": 176.96621250000317,
      "v": 123
    },
    {
      "midi": 64,
      "hit": false,
      "t": 179775.20000000062,
      "d": 255.6178625000175,
      "v": 127
    },
    {
      "midi": 61,
      "hit": false,
      "t": 179775.20000000062,
      "d": 258.426850000018,
      "v": 127
    },
    {
      "midi": 45,
      "hit": false,
      "t": 179999.91900000063,
      "d": 216.29203750001034,
      "v": 118
    },
    {
      "midi": 59,
      "hit": false,
      "t": 180224.63800000065,
      "d": 176.96621250000317,
      "v": 123
    },
    {
      "midi": 64,
      "hit": false,
      "t": 180224.63800000065,
      "d": 179.77520000000368,
      "v": 113
    },
    {
      "midi": 62,
      "hit": false,
      "t": 180224.63800000065,
      "d": 224.71900000001187,
      "v": 127
    },
    {
      "midi": 52,
      "hit": false,
      "t": 180449.35700000066,
      "d": 106.74152499999036,
      "v": 123
    },
    {
      "midi": 52,
      "hit": false,
      "t": 180674.07600000064,
      "d": 241.57292499998584,
      "v": 127
    },
    {
      "midi": 56,
      "hit": false,
      "t": 180674.07600000064,
      "d": 266.85381249999045,
      "v": 73
    },
    {
      "midi": 64,
      "hit": false,
      "t": 180674.07600000064,
      "d": 283.7077374999935,
      "v": 101
    },
    {
      "midi": 59,
      "hit": false,
      "t": 180674.07600000064,
      "d": 300.5616624999966,
      "v": 85
    },
    {
      "midi": 56,
      "hit": false,
      "t": 181123.51400000064,
      "d": 233.1459625000134,
      "v": 90
    },
    {
      "midi": 59,
      "hit": false,
      "t": 181123.51400000064,
      "d": 376.40432500003953,
      "v": 118
    },
    {
      "midi": 64,
      "hit": false,
      "t": 181123.51400000064,
      "d": 421.34812500004773,
      "v": 123
    },
    {
      "midi": 52,
      "hit": false,
      "t": 181348.23300000065,
      "d": 84.26962500001537,
      "v": 118
    },
    {
      "midi": 52,
      "hit": false,
      "t": 181797.67100000067,
      "d": 117.97747499999241,
      "v": 106
    },
    {
      "midi": 56,
      "hit": false,
      "t": 182022.39000000065,
      "d": 193.82013750000624,
      "v": 82
    },
    {
      "midi": 64,
      "hit": false,
      "t": 182022.39000000065,
      "d": 196.62912500000675,
      "v": 118
    },
    {
      "midi": 59,
      "hit": false,
      "t": 182022.39000000065,
      "d": 210.6740625000093,
      "v": 118
    },
    {
      "midi": 56,
      "hit": false,
      "t": 182471.82800000068,
      "d": 157.30329999999958,
      "v": 95
    },
    {
      "midi": 64,
      "hit": false,
      "t": 182471.82800000068,
      "d": 176.96621250000317,
      "v": 123
    },
    {
      "midi": 59,
      "hit": false,
      "t": 182471.82800000068,
      "d": 182.5841875000042,
      "v": 118
    },
    {
      "midi": 57,
      "hit": false,
      "t": 182696.5470000007,
      "d": 199.43811250000726,
      "v": 123
    },
    {
      "midi": 64,
      "hit": false,
      "t": 182696.5470000007,
      "d": 199.43811250000726,
      "v": 123
    },
    {
      "midi": 59,
      "hit": false,
      "t": 182696.5470000007,
      "d": 210.6740625000093,
      "v": 123
    },
    {
      "midi": 52,
      "hit": false,
      "t": 183145.9850000007,
      "d": 117.97747499999241,
      "v": 123
    },
    {
      "midi": 56,
      "hit": false,
      "t": 183370.70400000073,
      "d": 171.34823750000214,
      "v": 74
    },
    {
      "midi": 64,
      "hit": false,
      "t": 183370.70400000073,
      "d": 174.15722500000265,
      "v": 118
    },
    {
      "midi": 59,
      "hit": false,
      "t": 183370.70400000073,
      "d": 191.01115000000573,
      "v": 106
    },
    {
      "midi": 56,
      "hit": false,
      "t": 183820.14200000072,
      "d": 132.02241249999497,
      "v": 101
    },
    {
      "midi": 59,
      "hit": false,
      "t": 183820.14200000072,
      "d": 137.640387499996,
      "v": 118
    },
    {
      "midi": 64,
      "hit": false,
      "t": 183820.14200000072,
      "d": 160.1122875000001,
      "v": 118
    },
    {
      "midi": 57,
      "hit": false,
      "t": 184044.86100000073,
      "d": 193.82013750000624,
      "v": 118
    },
    {
      "midi": 64,
      "hit": false,
      "t": 184044.86100000073,
      "d": 205.0560875000083,
      "v": 123
    },
    {
      "midi": 59,
      "hit": false,
      "t": 184044.86100000073,
      "d": 219.10102500001085,
      "v": 123
    },
    {
      "midi": 52,
      "hit": false,
      "t": 184269.58000000074,
      "d": 84.26962499998626,
      "v": 127
    },
    {
      "midi": 59,
      "hit": false,
      "t": 184494.29900000073,
      "d": 70.2246875000128,
      "v": 95
    },
    {
      "midi": 64,
      "hit": false,
      "t": 184494.29900000073,
      "d": 75.84266250001383,
      "v": 118
    },
    {
      "midi": 56,
      "hit": false,
      "t": 184494.29900000073,
      "d": 81.46063750001485,
      "v": 79
    },
    {
      "midi": 56,
      "hit": false,
      "t": 184719.01800000074,
      "d": 210.6740625000093,
      "v": 101
    },
    {
      "midi": 59,
      "hit": false,
      "t": 184719.01800000074,
      "d": 235.95495000001392,
      "v": 123
    },
    {
      "midi": 64,
      "hit": false,
      "t": 184719.01800000074,
      "d": 258.426850000018,
      "v": 127
    },
    {
      "midi": 52,
      "hit": false,
      "t": 184943.73700000075,
      "d": 89.88760000001639,
      "v": 123
    },
    {
      "midi": 56,
      "hit": false,
      "t": 185168.45600000076,
      "d": 174.15722500000265,
      "v": 95
    },
    {
      "midi": 59,
      "hit": false,
      "t": 185168.45600000076,
      "d": 227.5279875000124,
      "v": 113
    },
    {
      "midi": 64,
      "hit": false,
      "t": 185168.45600000076,
      "d": 261.23583750001853,
      "v": 123
    },
    {
      "midi": 52,
      "hit": false,
      "t": 185393.17500000077,
      "d": 148.87633749999804,
      "v": 127
    },
    {
      "midi": 57,
      "hit": false,
      "t": 185617.8940000008,
      "d": 171.34823750000214,
      "v": 106
    },
    {
      "midi": 59,
      "hit": false,
      "t": 185617.8940000008,
      "d": 191.01115000000573,
      "v": 123
    },
    {
      "midi": 64,
      "hit": false,
      "t": 185617.8940000008,
      "d": 199.43811250000726,
      "v": 123
    },
    {
      "midi": 45,
      "hit": false,
      "t": 185842.6130000008,
      "d": 92.6965874999878,
      "v": 123
    },
    {
      "midi": 57,
      "hit": false,
      "t": 186067.33200000078,
      "d": 308.98862499999814,
      "v": 106
    },
    {
      "midi": 64,
      "hit": false,
      "t": 186067.33200000078,
      "d": 345.5054625000048,
      "v": 123
    },
    {
      "midi": 61,
      "hit": false,
      "t": 186067.33200000078,
      "d": 348.3144500000053,
      "v": 118
    },
    {
      "midi": 45,
      "hit": false,
      "t": 186067.33200000078,
      "d": 1061.79727499999,
      "v": 118
    },
    {
      "midi": 57,
      "hit": false,
      "t": 186516.77000000078,
      "d": 126.40443749999395,
      "v": 106
    },
    {
      "midi": 64,
      "hit": false,
      "t": 186516.77000000078,
      "d": 134.83139999999548,
      "v": 127
    },
    {
      "midi": 61,
      "hit": false,
      "t": 186516.77000000078,
      "d": 140.4493749999965,
      "v": 118
    },
    {
      "midi": 67,
      "hit": false,
      "t": 186741.48900000076,
      "d": 30.898862500005635,
      "v": 85
    },
    {
      "midi": 66,
      "hit": false,
      "t": 186741.48900000076,
      "d": 320.2245750000002,
      "v": 95
    },
    {
      "midi": 57,
      "hit": false,
      "t": 186741.48900000076,
      "d": 334.26951250000275,
      "v": 106
    },
    {
      "midi": 62,
      "hit": false,
      "t": 186741.48900000076,
      "d": 348.3144500000053,
      "v": 123
    },
    {
      "midi": 52,
      "hit": false,
      "t": 187190.92700000078,
      "d": 126.40443749999395,
      "v": 118
    },
    {
      "midi": 57,
      "hit": false,
      "t": 187415.64600000076,
      "d": 441.0110374999931,
      "v": 113
    },
    {
      "midi": 64,
      "hit": false,
      "t": 187415.64600000076,
      "d": 502.8087625000044,
      "v": 127
    },
    {
      "midi": 61,
      "hit": false,
      "t": 187415.64600000076,
      "d": 514.0447125000064,
      "v": 123
    },
    {
      "midi": 45,
      "hit": false,
      "t": 187865.08400000076,
      "d": 766.8535875000234,
      "v": 113
    },
    {
      "midi": 66,
      "hit": false,
      "t": 188089.80300000077,
      "d": 207.8650750000088,
      "v": 127
    },
    {
      "midi": 62,
      "hit": false,
      "t": 188089.80300000077,
      "d": 219.10102500001085,
      "v": 127
    },
    {
      "midi": 57,
      "hit": false,
      "t": 188089.80300000077,
      "d": 233.1459625000134,
      "v": 123
    },
    {
      "midi": 52,
      "hit": false,
      "t": 188539.2410000008,
      "d": 98.31456249998882,
      "v": 118
    },
    {
      "midi": 57,
      "hit": false,
      "t": 188763.96000000078,
      "d": 418.539137499989,
      "v": 95
    },
    {
      "midi": 61,
      "hit": false,
      "t": 188763.96000000078,
      "d": 474.71888749999925,
      "v": 106
    },
    {
      "midi": 64,
      "hit": false,
      "t": 188763.96000000078,
      "d": 485.9548375000013,
      "v": 118
    },
    {
      "midi": 45,
      "hit": false,
      "t": 188763.96000000078,
      "d": 2140.448475000012,
      "v": 118
    },
    {
      "midi": 52,
      "hit": false,
      "t": 189213.39800000077,
      "d": 137.640387499996,
      "v": 123
    },
    {
      "midi": 57,
      "hit": false,
      "t": 189438.11700000078,
      "d": 224.71900000001187,
      "v": 118
    },
    {
      "midi": 66,
      "hit": false,
      "t": 189438.11700000078,
      "d": 227.5279875000124,
      "v": 127
    },
    {
      "midi": 62,
      "hit": false,
      "t": 189438.11700000078,
      "d": 235.95495000001392,
      "v": 123
    },
    {
      "midi": 67,
      "hit": false,
      "t": 189887.5550000008,
      "d": 668.5390249999764,
      "v": 127
    },
    {
      "midi": 64,
      "hit": false,
      "t": 189887.5550000008,
      "d": 671.3480124999769,
      "v": 127
    },
    {
      "midi": 57,
      "hit": false,
      "t": 189887.5550000008,
      "d": 702.2468749999825,
      "v": 113
    },
    {
      "midi": 52,
      "hit": false,
      "t": 190561.71200000079,
      "d": 247.19090000001597,
      "v": 127
    },
    {
      "midi": 57,
      "hit": false,
      "t": 190786.4310000008,
      "d": 216.29203750001034,
      "v": 123
    },
    {
      "midi": 66,
      "hit": false,
      "t": 190786.4310000008,
      "d": 283.70773750002263,
      "v": 127
    },
    {
      "midi": 62,
      "hit": false,
      "t": 190786.4310000008,
      "d": 289.32571250002366,
      "v": 127
    },
    {
      "midi": 54,
      "hit": false,
      "t": 191460.58800000083,
      "d": 348.3144500000053,
      "v": 113
    },
    {
      "midi": 47,
      "hit": false,
      "t": 191460.58800000083,
      "d": 794.9434624999994,
      "v": 123
    },
    {
      "midi": 54,
      "hit": false,
      "t": 191910.02600000083,
      "d": 179.77520000000368,
      "v": 118
    },
    {
      "midi": 59,
      "hit": false,
      "t": 192134.74500000084,
      "d": 205.05608749997918,
      "v": 123
    },
    {
      "midi": 66,
      "hit": false,
      "t": 192134.74500000084,
      "d": 213.48304999998072,
      "v": 127
    },
    {
      "midi": 63,
      "hit": false,
      "t": 192134.74500000084,
      "d": 216.29203749998123,
      "v": 127
    },
    {
      "midi": 54,
      "hit": false,
      "t": 192808.90200000082,
      "d": 252.808875000017,
      "v": 95
    },
    {
      "midi": 47,
      "hit": false,
      "t": 192808.90200000082,
      "d": 292.13470000002417,
      "v": 118
    },
    {
      "midi": 59,
      "hit": false,
      "t": 193033.62100000083,
      "d": 98.31456250001793,
      "v": 85
    },
    {
      "midi": 66,
      "hit": false,
      "t": 193258.34000000084,
      "d": 61.79772500001127,
      "v": 118
    },
    {
      "midi": 59,
      "hit": false,
      "t": 193258.34000000084,
      "d": 70.2246875000128,
      "v": 101
    },
    {
      "midi": 63,
      "hit": false,
      "t": 193258.34000000084,
      "d": 84.26962500001537,
      "v": 123
    },
    {
      "midi": 63,
      "hit": false,
      "t": 193483.05900000085,
      "d": 70.2246875000128,
      "v": 123
    },
    {
      "midi": 59,
      "hit": false,
      "t": 193483.05900000085,
      "d": 73.03367500001332,
      "v": 123
    },
    {
      "midi": 66,
      "hit": false,
      "t": 193483.05900000085,
      "d": 101.12355000001844,
      "v": 127
    },
    {
      "midi": 54,
      "hit": false,
      "t": 193932.49700000088,
      "d": 134.83139999999548,
      "v": 106
    },
    {
      "midi": 47,
      "hit": false,
      "t": 194157.21600000086,
      "d": 865.1681500000414,
      "v": 127
    },
    {
      "midi": 71,
      "hit": false,
      "t": 194381.93500000087,
      "d": 61.79772500001127,
      "v": 46
    },
    {
      "midi": 83,
      "hit": false,
      "t": 194381.93500000087,
      "d": 70.2246875000128,
      "v": 61
    },
    {
      "midi": 78,
      "hit": false,
      "t": 194381.93500000087,
      "d": 73.03367500001332,
      "v": 74
    },
    {
      "midi": 78,
      "hit": false,
      "t": 194606.65400000088,
      "d": 56.179750000010245,
      "v": 82
    },
    {
      "midi": 83,
      "hit": false,
      "t": 194606.65400000088,
      "d": 70.2246875000128,
      "v": 101
    },
    {
      "midi": 71,
      "hit": false,
      "t": 194606.65400000088,
      "d": 75.84266250001383,
      "v": 82
    },
    {
      "midi": 71,
      "hit": false,
      "t": 194831.3730000009,
      "d": 95.50557499998831,
      "v": 127
    },
    {
      "midi": 78,
      "hit": false,
      "t": 194831.3730000009,
      "d": 98.31456249998882,
      "v": 127
    },
    {
      "midi": 83,
      "hit": false,
      "t": 194831.3730000009,
      "d": 117.97747499999241,
      "v": 127
    },
    {
      "midi": 78,
      "hit": false,
      "t": 195056.0920000009,
      "d": 67.4157000000123,
      "v": 106
    },
    {
      "midi": 83,
      "hit": false,
      "t": 195056.0920000009,
      "d": 78.65165000001434,
      "v": 113
    },
    {
      "midi": 71,
      "hit": false,
      "t": 195056.0920000009,
      "d": 81.46063750001485,
      "v": 101
    },
    {
      "midi": 71,
      "hit": false,
      "t": 195280.81100000092,
      "d": 103.93253749998985,
      "v": 118
    },
    {
      "midi": 78,
      "hit": false,
      "t": 195280.81100000092,
      "d": 126.40443749999395,
      "v": 127
    },
    {
      "midi": 83,
      "hit": false,
      "t": 195280.81100000092,
      "d": 151.68532499999856,
      "v": 123
    },
    {
      "midi": 47,
      "hit": false,
      "t": 195505.53000000093,
      "d": 84.26962499998626,
      "v": 127
    },
    {
      "midi": 54,
      "hit": false,
      "t": 195505.53000000093,
      "d": 103.93253749998985,
      "v": 113
    },
    {
      "midi": 78,
      "hit": false,
      "t": 195730.2490000009,
      "d": 98.31456249998882,
      "v": 123
    },
    {
      "midi": 71,
      "hit": false,
      "t": 195730.2490000009,
      "d": 106.74152499999036,
      "v": 101
    },
    {
      "midi": 83,
      "hit": false,
      "t": 195730.2490000009,
      "d": 143.25836249999702,
      "v": 127
    },
    {
      "midi": 54,
      "hit": false,
      "t": 195954.9680000009,
      "d": 123.59544999999343,
      "v": 113
    },
    {
      "midi": 78,
      "hit": false,
      "t": 196179.68700000088,
      "d": 117.97747499999241,
      "v": 127
    },
    {
      "midi": 71,
      "hit": false,
      "t": 196179.68700000088,
      "d": 129.21342499999446,
      "v": 118
    },
    {
      "midi": 50,
      "hit": false,
      "t": 196853.84400000088,
      "d": 174.15722500000265,
      "v": 123
    },
    {
      "midi": 69,
      "hit": false,
      "t": 196853.84400000088,
      "d": 176.96621250000317,
      "v": 123
    },
    {
      "midi": 78,
      "hit": false,
      "t": 196853.84400000088,
      "d": 202.24710000000778,
      "v": 127
    },
    {
      "midi": 74,
      "hit": false,
      "t": 196853.84400000088,
      "d": 219.10102500001085,
      "v": 127
    },
    {
      "midi": 62,
      "hit": false,
      "t": 197528.0010000009,
      "d": 134.83139999999548,
      "v": 127
    },
    {
      "midi": 69,
      "hit": false,
      "t": 197528.0010000009,
      "d": 134.83139999999548,
      "v": 123
    },
    {
      "midi": 74,
      "hit": false,
      "t": 197528.0010000009,
      "d": 137.640387499996,
      "v": 127
    },
    {
      "midi": 78,
      "hit": false,
      "t": 197528.0010000009,
      "d": 143.25836249999702,
      "v": 127
    },
    {
      "midi": 62,
      "hit": false,
      "t": 198202.1580000009,
      "d": 179.77520000000368,
      "v": 127
    },
    {
      "midi": 69,
      "hit": false,
      "t": 198202.1580000009,
      "d": 269.66279999999097,
      "v": 123
    },
    {
      "midi": 78,
      "hit": false,
      "t": 198202.1580000009,
      "d": 367.9773624999798,
      "v": 127
    },
    {
      "midi": 74,
      "hit": false,
      "t": 198202.1580000009,
      "d": 432.58407499999157,
      "v": 127
    },
    {
      "midi": 62,
      "hit": false,
      "t": 198651.5960000009,
      "d": 227.5279875000124,
      "v": 127
    },
    {
      "midi": 69,
      "hit": false,
      "t": 198876.3150000009,
      "d": 92.6965874999878,
      "v": 123
    },
    {
      "midi": 74,
      "hit": false,
      "t": 198876.3150000009,
      "d": 109.55051249999087,
      "v": 127
    },
    {
      "midi": 78,
      "hit": false,
      "t": 198876.3150000009,
      "d": 123.59544999999343,
      "v": 127
    },
    {
      "midi": 71,
      "hit": false,
      "t": 199325.7530000009,
      "d": 792.1344749999989,
      "v": 127
    },
    {
      "midi": 76,
      "hit": false,
      "t": 199325.7530000009,
      "d": 870.7861250000133,
      "v": 127
    },
    {
      "midi": 80,
      "hit": false,
      "t": 199325.7530000009,
      "d": 904.4939750000194,
      "v": 127
    },
    {
      "midi": 64,
      "hit": false,
      "t": 199325.7530000009,
      "d": 926.9658750000235,
      "v": 127
    },
    {
      "midi": 71,
      "hit": false,
      "t": 200224.62900000092,
      "d": 151.68532499999856,
      "v": 49
    },
    {
      "midi": 64,
      "hit": false,
      "t": 200674.0670000009,
      "d": 81.46063749998575,
      "v": 79
    },
    {
      "midi": 76,
      "hit": false,
      "t": 200898.7860000009,
      "d": 84.26962499998626,
      "v": 118
    },
    {
      "midi": 71,
      "hit": false,
      "t": 200898.7860000009,
      "d": 87.07861249998678,
      "v": 82
    },
    {
      "midi": 80,
      "hit": false,
      "t": 200898.7860000009,
      "d": 95.50557499998831,
      "v": 90
    },
    {
      "midi": 71,
      "hit": false,
      "t": 201348.2240000009,
      "d": 89.88759999998729,
      "v": 127
    },
    {
      "midi": 76,
      "hit": false,
      "t": 201348.2240000009,
      "d": 89.88759999998729,
      "v": 127
    },
    {
      "midi": 80,
      "hit": false,
      "t": 201348.2240000009,
      "d": 137.640387499996,
      "v": 127
    },
    {
      "midi": 64,
      "hit": false,
      "t": 201572.94300000087,
      "d": 75.84266250001383,
      "v": 127
    },
    {
      "midi": 69,
      "hit": false,
      "t": 202247.10000000088,
      "d": 123.59544999999343,
      "v": 127
    },
    {
      "midi": 62,
      "hit": false,
      "t": 202247.10000000088,
      "d": 132.02241249999497,
      "v": 127
    },
    {
      "midi": 74,
      "hit": false,
      "t": 202247.10000000088,
      "d": 137.640387499996,
      "v": 127
    },
    {
      "midi": 78,
      "hit": false,
      "t": 202247.10000000088,
      "d": 148.87633749999804,
      "v": 127
    },
    {
      "midi": 69,
      "hit": false,
      "t": 202921.2570000009,
      "d": 117.97747499999241,
      "v": 123
    },
    {
      "midi": 78,
      "hit": false,
      "t": 202921.2570000009,
      "d": 129.21342499999446,
      "v": 127
    },
    {
      "midi": 62,
      "hit": false,
      "t": 202921.2570000009,
      "d": 132.02241249999497,
      "v": 127
    },
    {
      "midi": 74,
      "hit": false,
      "t": 202921.2570000009,
      "d": 132.02241249999497,
      "v": 127
    },
    {
      "midi": 62,
      "hit": false,
      "t": 203595.4140000009,
      "d": 140.4493749999965,
      "v": 127
    },
    {
      "midi": 74,
      "hit": false,
      "t": 203595.4140000009,
      "d": 151.68532499999856,
      "v": 127
    },
    {
      "midi": 69,
      "hit": false,
      "t": 203595.4140000009,
      "d": 157.30329999999958,
      "v": 123
    },
    {
      "midi": 78,
      "hit": false,
      "t": 203595.4140000009,
      "d": 162.9212750000006,
      "v": 127
    },
    {
      "midi": 62,
      "hit": false,
      "t": 204044.8520000009,
      "d": 137.640387499996,
      "v": 127
    },
    {
      "midi": 69,
      "hit": false,
      "t": 204269.57100000087,
      "d": 81.46063749998575,
      "v": 123
    },
    {
      "midi": 74,
      "hit": false,
      "t": 204269.57100000087,
      "d": 106.74152499999036,
      "v": 127
    },
    {
      "midi": 78,
      "hit": false,
      "t": 204269.57100000087,
      "d": 120.78646249999292,
      "v": 127
    },
    {
      "midi": 71,
      "hit": false,
      "t": 204719.00900000086,
      "d": 547.7525624999835,
      "v": 127
    },
    {
      "midi": 76,
      "hit": false,
      "t": 204719.00900000086,
      "d": 595.5053499999922,
      "v": 127
    },
    {
      "midi": 64,
      "hit": false,
      "t": 204719.00900000086,
      "d": 598.3143374999927,
      "v": 127
    },
    {
      "midi": 80,
      "hit": false,
      "t": 204719.00900000086,
      "d": 617.9772499999963,
      "v": 127
    },
    {
      "midi": 71,
      "hit": false,
      "t": 205393.16600000087,
      "d": 95.50557499998831,
      "v": 50
    },
    {
      "midi": 64,
      "hit": false,
      "t": 205617.88500000085,
      "d": 101.12354999998934,
      "v": 123
    },
    {
      "midi": 80,
      "hit": false,
      "t": 205842.60400000084,
      "d": 179.77520000000368,
      "v": 127
    },
    {
      "midi": 76,
      "hit": false,
      "t": 206067.32300000085,
      "d": 207.8650750000088,
      "v": 127
    },
    {
      "midi": 71,
      "hit": false,
      "t": 206292.04200000086,
      "d": 98.31456249998882,
      "v": 101
    },
    {
      "midi": 64,
      "hit": false,
      "t": 206292.04200000086,
      "d": 148.87633749999804,
      "v": 127
    },
    {
      "midi": 71,
      "hit": false,
      "t": 206516.76100000087,
      "d": 115.1684874999919,
      "v": 127
    },
    {
      "midi": 83,
      "hit": false,
      "t": 206966.19900000087,
      "d": 78.65165000001434,
      "v": 127
    },
    {
      "midi": 50,
      "hit": false,
      "t": 207640.35600000087,
      "d": 174.15722500000265,
      "v": 123
    },
    {
      "midi": 69,
      "hit": false,
      "t": 207640.35600000087,
      "d": 176.96621250000317,
      "v": 123
    },
    {
      "midi": 78,
      "hit": false,
      "t": 207640.35600000087,
      "d": 202.24710000000778,
      "v": 127
    },
    {
      "midi": 74,
      "hit": false,
      "t": 207640.35600000087,
      "d": 219.10102500001085,
      "v": 127
    },
    {
      "midi": 62,
      "hit": false,
      "t": 208314.51300000088,
      "d": 134.83139999999548,
      "v": 127
    },
    {
      "midi": 69,
      "hit": false,
      "t": 208314.51300000088,
      "d": 134.83139999999548,
      "v": 123
    },
    {
      "midi": 74,
      "hit": false,
      "t": 208314.51300000088,
      "d": 137.640387499996,
      "v": 127
    },
    {
      "midi": 78,
      "hit": false,
      "t": 208314.51300000088,
      "d": 143.25836249999702,
      "v": 127
    },
    {
      "midi": 62,
      "hit": false,
      "t": 208988.6700000009,
      "d": 179.77520000000368,
      "v": 127
    },
    {
      "midi": 69,
      "hit": false,
      "t": 208988.6700000009,
      "d": 269.66279999999097,
      "v": 123
    },
    {
      "midi": 78,
      "hit": false,
      "t": 208988.6700000009,
      "d": 367.9773624999798,
      "v": 127
    },
    {
      "midi": 74,
      "hit": false,
      "t": 208988.6700000009,
      "d": 432.58407499999157,
      "v": 127
    },
    {
      "midi": 62,
      "hit": false,
      "t": 209438.10800000088,
      "d": 227.5279875000124,
      "v": 127
    },
    {
      "midi": 69,
      "hit": false,
      "t": 209662.8270000009,
      "d": 92.6965874999878,
      "v": 123
    },
    {
      "midi": 74,
      "hit": false,
      "t": 209662.8270000009,
      "d": 109.55051249999087,
      "v": 127
    },
    {
      "midi": 78,
      "hit": false,
      "t": 209662.8270000009,
      "d": 123.59544999999343,
      "v": 127
    },
    {
      "midi": 71,
      "hit": false,
      "t": 210112.2650000009,
      "d": 792.1344749999989,
      "v": 127
    },
    {
      "midi": 76,
      "hit": false,
      "t": 210112.2650000009,
      "d": 870.7861250000133,
      "v": 127
    },
    {
      "midi": 80,
      "hit": false,
      "t": 210112.2650000009,
      "d": 904.4939750000194,
      "v": 127
    },
    {
      "midi": 64,
      "hit": false,
      "t": 210112.2650000009,
      "d": 926.9658750000235,
      "v": 127
    },
    {
      "midi": 71,
      "hit": false,
      "t": 211011.1410000009,
      "d": 151.68532499999856,
      "v": 49
    },
    {
      "midi": 64,
      "hit": false,
      "t": 211460.5790000009,
      "d": 81.46063749998575,
      "v": 79
    },
    {
      "midi": 76,
      "hit": false,
      "t": 211685.29800000088,
      "d": 84.26962499998626,
      "v": 118
    },
    {
      "midi": 71,
      "hit": false,
      "t": 211685.29800000088,
      "d": 87.07861249998678,
      "v": 82
    },
    {
      "midi": 80,
      "hit": false,
      "t": 211685.29800000088,
      "d": 95.50557499998831,
      "v": 90
    },
    {
      "midi": 71,
      "hit": false,
      "t": 212134.73600000088,
      "d": 89.88759999998729,
      "v": 127
    },
    {
      "midi": 76,
      "hit": false,
      "t": 212134.73600000088,
      "d": 89.88759999998729,
      "v": 127
    },
    {
      "midi": 80,
      "hit": false,
      "t": 212134.73600000088,
      "d": 137.640387499996,
      "v": 127
    },
    {
      "midi": 64,
      "hit": false,
      "t": 212359.45500000086,
      "d": 75.84266250001383,
      "v": 127
    },
    {
      "midi": 69,
      "hit": false,
      "t": 213033.61200000087,
      "d": 123.59544999999343,
      "v": 127
    },
    {
      "midi": 62,
      "hit": false,
      "t": 213033.61200000087,
      "d": 132.02241249999497,
      "v": 127
    },
    {
      "midi": 74,
      "hit": false,
      "t": 213033.61200000087,
      "d": 137.640387499996,
      "v": 127
    },
    {
      "midi": 78,
      "hit": false,
      "t": 213033.61200000087,
      "d": 148.87633749999804,
      "v": 127
    },
    {
      "midi": 69,
      "hit": false,
      "t": 213707.76900000087,
      "d": 117.97747499999241,
      "v": 123
    },
    {
      "midi": 78,
      "hit": false,
      "t": 213707.76900000087,
      "d": 129.21342499999446,
      "v": 127
    },
    {
      "midi": 62,
      "hit": false,
      "t": 213707.76900000087,
      "d": 132.02241249999497,
      "v": 127
    },
    {
      "midi": 74,
      "hit": false,
      "t": 213707.76900000087,
      "d": 132.02241249999497,
      "v": 127
    },
    {
      "midi": 62,
      "hit": false,
      "t": 214381.92600000088,
      "d": 140.4493749999965,
      "v": 127
    },
    {
      "midi": 74,
      "hit": false,
      "t": 214381.92600000088,
      "d": 151.68532499999856,
      "v": 127
    },
    {
      "midi": 69,
      "hit": false,
      "t": 214381.92600000088,
      "d": 157.30329999999958,
      "v": 123
    },
    {
      "midi": 78,
      "hit": false,
      "t": 214381.92600000088,
      "d": 162.9212750000006,
      "v": 127
    },
    {
      "midi": 62,
      "hit": false,
      "t": 214831.36400000087,
      "d": 137.640387499996,
      "v": 127
    },
    {
      "midi": 69,
      "hit": false,
      "t": 215056.08300000086,
      "d": 81.46063749998575,
      "v": 123
    },
    {
      "midi": 74,
      "hit": false,
      "t": 215056.08300000086,
      "d": 106.74152499999036,
      "v": 127
    },
    {
      "midi": 78,
      "hit": false,
      "t": 215056.08300000086,
      "d": 120.78646249999292,
      "v": 127
    },
    {
      "midi": 71,
      "hit": false,
      "t": 215505.52100000085,
      "d": 547.7525624999835,
      "v": 127
    },
    {
      "midi": 76,
      "hit": false,
      "t": 215505.52100000085,
      "d": 595.5053499999922,
      "v": 127
    },
    {
      "midi": 64,
      "hit": false,
      "t": 215505.52100000085,
      "d": 598.3143374999927,
      "v": 127
    },
    {
      "midi": 80,
      "hit": false,
      "t": 215505.52100000085,
      "d": 617.9772499999963,
      "v": 127
    },
    {
      "midi": 71,
      "hit": false,
      "t": 216179.67800000086,
      "d": 95.50557499998831,
      "v": 50
    },
    {
      "midi": 64,
      "hit": false,
      "t": 216404.39700000084,
      "d": 101.12354999998934,
      "v": 123
    },
    {
      "midi": 80,
      "hit": false,
      "t": 216629.11600000082,
      "d": 179.77520000000368,
      "v": 127
    },
    {
      "midi": 76,
      "hit": false,
      "t": 216853.83500000084,
      "d": 207.8650750000088,
      "v": 127
    },
    {
      "midi": 71,
      "hit": false,
      "t": 217078.55400000085,
      "d": 98.31456249998882,
      "v": 101
    },
    {
      "midi": 64,
      "hit": false,
      "t": 217078.55400000085,
      "d": 148.87633749999804,
      "v": 127
    },
    {
      "midi": 71,
      "hit": false,
      "t": 217303.27300000086,
      "d": 115.1684874999919,
      "v": 127
    },
    {
      "midi": 83,
      "hit": false,
      "t": 217752.71100000085,
      "d": 78.65165000001434,
      "v": 127
    },
    {
      "midi": 64,
      "hit": false,
      "t": 218429.67698750086,
      "d": 129.21342499999446,
      "v": 127
    },
    {
      "midi": 47,
      "hit": false,
      "t": 218429.67698750086,
      "d": 146.06734999999753,
      "v": 127
    },
    {
      "midi": 52,
      "hit": false,
      "t": 218432.48597500086,
      "d": 199.43811250000726,
      "v": 118
    },
    {
      "midi": 59,
      "hit": false,
      "t": 218438.10395000086,
      "d": 112.35949999999139,
      "v": 123
    },
    {
      "midi": 71,
      "hit": false,
      "t": 218438.10395000086,
      "d": 134.83139999999548,
      "v": 123
    },
    {
      "midi": 40,
      "hit": false,
      "t": 218440.91293750086,
      "d": 154.49431249999907,
      "v": 118
    },
    {
      "midi": 59,
      "hit": false,
      "t": 218735.85662500086,
      "d": 44.943800000008196,
      "v": 38
    },
    {
      "midi": 64,
      "hit": false,
      "t": 219103.83398750087,
      "d": 44.943800000008196,
      "v": 90
    },
    {
      "midi": 47,
      "hit": false,
      "t": 219230.23842500086,
      "d": 36.51683750000666,
      "v": 66
    },
    {
      "midi": 52,
      "hit": false,
      "t": 219230.23842500086,
      "d": 50.56177500000922,
      "v": 66
    },
    {
      "midi": 64,
      "hit": false,
      "t": 219261.13728750087,
      "d": 47.75278750000871,
      "v": 101
    },
    {
      "midi": 47,
      "hit": false,
      "t": 219387.5417250009,
      "d": 39.32582500000717,
      "v": 73
    },
    {
      "midi": 64,
      "hit": false,
      "t": 219415.6316000009,
      "d": 53.37076250000973,
      "v": 118
    },
    {
      "midi": 59,
      "hit": false,
      "t": 219426.8675500009,
      "d": 53.37076250000973,
      "v": 73
    },
    {
      "midi": 64,
      "hit": false,
      "t": 219575.7438875009,
      "d": 33.70785000000615,
      "v": 113
    },
    {
      "midi": 47,
      "hit": false,
      "t": 219693.7213625009,
      "d": 33.70785000000615,
      "v": 79
    },
    {
      "midi": 64,
      "hit": false,
      "t": 219699.3393375009,
      "d": 56.179750000010245,
      "v": 127
    },
    {
      "midi": 64,
      "hit": false,
      "t": 219839.7887125009,
      "d": 61.79772500001127,
      "v": 118
    },
    {
      "midi": 59,
      "hit": false,
      "t": 219859.4516250009,
      "d": 50.56177500000922,
      "v": 90
    },
    {
      "midi": 47,
      "hit": false,
      "t": 219924.0583375009,
      "d": 70.2246875000128,
      "v": 101
    },
    {
      "midi": 52,
      "hit": false,
      "t": 219940.9122625009,
      "d": 193.82013750003534,
      "v": 79
    },
    {
      "midi": 40,
      "hit": false,
      "t": 219949.3392250009,
      "d": 30.898862500005635,
      "v": 62
    },
    {
      "midi": 64,
      "hit": false,
      "t": 219977.4291000009,
      "d": 70.2246875000128,
      "v": 127
    },
    {
      "midi": 59,
      "hit": false,
      "t": 219988.6650500009,
      "d": 61.79772500001127,
      "v": 90
    },
    {
      "midi": 64,
      "hit": false,
      "t": 220112.26050000094,
      "d": 84.26962500001537,
      "v": 123
    },
    {
      "midi": 59,
      "hit": false,
      "t": 220120.68746250094,
      "d": 92.6965875000169,
      "v": 95
    },
    {
      "midi": 47,
      "hit": false,
      "t": 220190.91215000095,
      "d": 84.26962500001537,
      "v": 95
    },
    {
      "midi": 52,
      "hit": false,
      "t": 220196.53012500095,
      "d": 75.84266250001383,
      "v": 63
    },
    {
      "midi": 40,
      "hit": false,
      "t": 220207.76607500095,
      "d": 50.56177500000922,
      "v": 66
    },
    {
      "midi": 64,
      "hit": false,
      "t": 220297.65367500097,
      "d": 78.65165000001434,
      "v": 118
    },
    {
      "midi": 59,
      "hit": false,
      "t": 220311.69861250097,
      "d": 101.12355000001844,
      "v": 82
    },
    {
      "midi": 40,
      "hit": false,
      "t": 220407.204187501,
      "d": 418.5391375000472,
      "v": 74
    },
    {
      "midi": 47,
      "hit": false,
      "t": 220440.912037501,
      "d": 95.50557500001742,
      "v": 85
    },
    {
      "midi": 52,
      "hit": false,
      "t": 220494.282800001,
      "d": 272.4717875000206,
      "v": 113
    },
    {
      "midi": 59,
      "hit": false,
      "t": 220561.69850000102,
      "d": 117.97747499999241,
      "v": 123
    },
    {
      "midi": 62,
      "hit": false,
      "t": 220744.28268750102,
      "d": 143.25836250002612,
      "v": 127
    },
    {
      "midi": 59,
      "hit": false,
      "t": 221008.32751250104,
      "d": 160.1122875000001,
      "v": 127
    },
    {
      "midi": 62,
      "hit": false,
      "t": 221286.41727500103,
      "d": 112.35949999999139,
      "v": 127
    },
    {
      "midi": 52,
      "hit": false,
      "t": 221572.93400000103,
      "d": 134.83139999999548,
      "v": 118
    },
    {
      "midi": 74,
      "hit": false,
      "t": 221865.06870000102,
      "d": 89.88759999998729,
      "v": 127
    },
    {
      "midi": 52,
      "hit": false,
      "t": 222176.86631250102,
      "d": 123.59544999999343,
      "v": 101
    },
    {
      "midi": 69,
      "hit": false,
      "t": 222533.60772500103,
      "d": 92.6965874999878,
      "v": 82
    }
  ]
}