{
  "jsonPath": "Animes/Tenchi Muyo! Ryo-Ohki MIDI Collection/reminisce.json",
  "path": "Animes\\Tenchi Muyo! Ryo-Ohki MIDI Collection\\Reminisce.mid",
  "name": "Reminisce",
  "difficulty": "Advanced",
  "bpm": 56.00107522064424,
  "notes": [
    {
      "midi": 79,
      "hit": false,
      "t": 13713.408,
      "d": 42854.39999999944,
      "v": 63
    },
    {
      "midi": 79,
      "hit": false,
      "t": 17141.760000000002,
      "d": 6856.703999999998,
      "v": 87
    },
    {
      "midi": 67,
      "hit": false,
      "t": 23141.375999999997,
      "d": 1357.0560000000005,
      "v": 79
    },
    {
      "midi": 67,
      "hit": false,
      "t": 24498.431999999997,
      "d": 357.119999999999,
      "v": 71
    },
    {
      "midi": 67,
      "hit": false,
      "t": 24855.551999999996,
      "d": 357.119999999999,
      "v": 71
    },
    {
      "midi": 67,
      "hit": false,
      "t": 25212.671999999995,
      "d": 357.119999999999,
      "v": 67
    },
    {
      "midi": 67,
      "hit": false,
      "t": 25569.791999999994,
      "d": 357.119999999999,
      "v": 67
    },
    {
      "midi": 67,
      "hit": false,
      "t": 25926.911999999993,
      "d": 357.119999999999,
      "v": 67
    },
    {
      "midi": 67,
      "hit": false,
      "t": 26284.031999999992,
      "d": 357.119999999999,
      "v": 67
    },
    {
      "midi": 67,
      "hit": false,
      "t": 26641.15199999999,
      "d": 357.119999999999,
      "v": 67
    },
    {
      "midi": 67,
      "hit": false,
      "t": 26998.27199999999,
      "d": 357.119999999999,
      "v": 67
    },
    {
      "midi": 67,
      "hit": false,
      "t": 27355.39199999999,
      "d": 357.119999999999,
      "v": 67
    },
    {
      "midi": 67,
      "hit": false,
      "t": 27712.511999999988,
      "d": 357.119999999999,
      "v": 67
    },
    {
      "midi": 67,
      "hit": false,
      "t": 28069.631999999987,
      "d": 357.119999999999,
      "v": 67
    },
    {
      "midi": 67,
      "hit": false,
      "t": 28426.751999999986,
      "d": 357.119999999999,
      "v": 67
    },
    {
      "midi": 67,
      "hit": false,
      "t": 28783.871999999985,
      "d": 357.119999999999,
      "v": 67
    },
    {
      "midi": 67,
      "hit": false,
      "t": 29140.991999999984,
      "d": 357.11999999999534,
      "v": 67
    },
    {
      "midi": 79,
      "hit": false,
      "t": 29140.992,
      "d": 2499.8399999999674,
      "v": 103
    },
    {
      "midi": 79,
      "hit": false,
      "t": 29283.84,
      "d": 2499.8399999999674,
      "v": 95
    },
    {
      "midi": 67,
      "hit": false,
      "t": 29498.11199999998,
      "d": 357.11999999999534,
      "v": 67
    },
    {
      "midi": 67,
      "hit": false,
      "t": 29855.231999999975,
      "d": 357.11999999999534,
      "v": 67
    },
    {
      "midi": 67,
      "hit": false,
      "t": 30212.35199999997,
      "d": 357.11999999999534,
      "v": 67
    },
    {
      "midi": 67,
      "hit": false,
      "t": 30569.471999999965,
      "d": 285.6959999999963,
      "v": 67
    },
    {
      "midi": 76,
      "hit": false,
      "t": 31712.255999999965,
      "d": 428.5440000000017,
      "v": 95
    },
    {
      "midi": 76,
      "hit": false,
      "t": 31855.103999999967,
      "d": 428.5440000000017,
      "v": 87
    },
    {
      "midi": 77,
      "hit": false,
      "t": 32140.799999999967,
      "d": 428.5440000000017,
      "v": 99
    },
    {
      "midi": 77,
      "hit": false,
      "t": 32283.64799999997,
      "d": 428.5440000000017,
      "v": 91
    },
    {
      "midi": 72,
      "hit": false,
      "t": 32569.34399999996,
      "d": 3428.351999999999,
      "v": 79
    },
    {
      "midi": 79,
      "hit": false,
      "t": 32569.34399999997,
      "d": 2571.2639999999665,
      "v": 103
    },
    {
      "midi": 79,
      "hit": false,
      "t": 32712.19199999997,
      "d": 2571.26399999997,
      "v": 95
    },
    {
      "midi": 76,
      "hit": false,
      "t": 35140.607999999935,
      "d": 785.663999999997,
      "v": 95
    },
    {
      "midi": 76,
      "hit": false,
      "t": 35283.45599999994,
      "d": 785.663999999997,
      "v": 87
    },
    {
      "midi": 86,
      "hit": false,
      "t": 35997.69599999993,
      "d": 1714.1759999999995,
      "v": 107
    },
    {
      "midi": 86,
      "hit": false,
      "t": 36140.543999999936,
      "d": 1714.1759999999995,
      "v": 99
    },
    {
      "midi": 84,
      "hit": false,
      "t": 37711.87199999993,
      "d": 4214.015999999945,
      "v": 103
    },
    {
      "midi": 67,
      "hit": false,
      "t": 37711.87199999996,
      "d": 2571.264000000003,
      "v": 79
    },
    {
      "midi": 72,
      "hit": false,
      "t": 37711.871999999996,
      "d": 499.96800000000076,
      "v": 39
    },
    {
      "midi": 84,
      "hit": false,
      "t": 37854.719999999936,
      "d": 4214.015999999945,
      "v": 95
    },
    {
      "midi": 79,
      "hit": false,
      "t": 38140.416,
      "d": 428.5440000000017,
      "v": 63
    },
    {
      "midi": 72,
      "hit": false,
      "t": 41997.311999999874,
      "d": 785.663999999997,
      "v": 95
    },
    {
      "midi": 67,
      "hit": false,
      "t": 41997.31199999996,
      "d": 857.0880000000034,
      "v": 79
    },
    {
      "midi": 72,
      "hit": false,
      "t": 42140.15999999988,
      "d": 785.663999999997,
      "v": 87
    },
    {
      "midi": 83,
      "hit": false,
      "t": 42854.39999999987,
      "d": 1714.1759999999995,
      "v": 103
    },
    {
      "midi": 67,
      "hit": false,
      "t": 42854.399999999965,
      "d": 357.1200000000026,
      "v": 71
    },
    {
      "midi": 83,
      "hit": false,
      "t": 42997.247999999876,
      "d": 1714.1759999999995,
      "v": 95
    },
    {
      "midi": 67,
      "hit": false,
      "t": 43211.51999999997,
      "d": 357.1200000000026,
      "v": 71
    },
    {
      "midi": 67,
      "hit": false,
      "t": 43568.63999999997,
      "d": 357.1200000000026,
      "v": 67
    },
    {
      "midi": 67,
      "hit": false,
      "t": 43925.75999999997,
      "d": 357.1200000000026,
      "v": 67
    },
    {
      "midi": 67,
      "hit": false,
      "t": 44282.879999999976,
      "d": 357.1200000000026,
      "v": 67
    },
    {
      "midi": 81,
      "hit": false,
      "t": 44568.57599999987,
      "d": 5071.103999999934,
      "v": 99
    },
    {
      "midi": 67,
      "hit": false,
      "t": 44639.99999999998,
      "d": 357.1200000000026,
      "v": 67
    },
    {
      "midi": 81,
      "hit": false,
      "t": 44711.423999999875,
      "d": 5071.103999999934,
      "v": 91
    },
    {
      "midi": 67,
      "hit": false,
      "t": 44997.11999999998,
      "d": 357.1200000000026,
      "v": 67
    },
    {
      "midi": 67,
      "hit": false,
      "t": 45354.23999999998,
      "d": 357.1200000000026,
      "v": 67
    },
    {
      "midi": 65,
      "hit": false,
      "t": 45425.664,
      "d": 499.96800000000076,
      "v": 39
    },
    {
      "midi": 67,
      "hit": false,
      "t": 45711.359999999986,
      "d": 357.1200000000026,
      "v": 67
    },
    {
      "midi": 77,
      "hit": false,
      "t": 45854.208,
      "d": 499.96800000000076,
      "v": 63
    },
    {
      "midi": 67,
      "hit": false,
      "t": 46068.47999999999,
      "d": 357.11999999999534,
      "v": 67
    },
    {
      "midi": 67,
      "hit": false,
      "t": 46425.599999999984,
      "d": 357.11999999999534,
      "v": 67
    },
    {
      "midi": 72,
      "hit": false,
      "t": 46425.6,
      "d": 928.5120000000024,
      "v": 39
    },
    {
      "midi": 67,
      "hit": false,
      "t": 46782.71999999998,
      "d": 357.11999999999534,
      "v": 67
    },
    {
      "midi": 67,
      "hit": false,
      "t": 47139.839999999975,
      "d": 357.11999999999534,
      "v": 67
    },
    {
      "midi": 67,
      "hit": false,
      "t": 47496.95999999997,
      "d": 357.11999999999534,
      "v": 67
    },
    {
      "midi": 72,
      "hit": false,
      "t": 47996.92799999996,
      "d": 8570.879999999976,
      "v": 127
    },
    {
      "midi": 79,
      "hit": false,
      "t": 49711.1039999998,
      "d": 1714.1759999999922,
      "v": 95
    },
    {
      "midi": 79,
      "hit": false,
      "t": 49853.95199999981,
      "d": 1714.1759999999922,
      "v": 87
    },
    {
      "midi": 77,
      "hit": false,
      "t": 51425.279999999795,
      "d": 1714.1759999999995,
      "v": 91
    },
    {
      "midi": 77,
      "hit": false,
      "t": 51568.1279999998,
      "d": 1714.1759999999995,
      "v": 83
    },
    {
      "midi": 72,
      "hit": false,
      "t": 53139.455999999795,
      "d": 1714.1759999999922,
      "v": 87
    },
    {
      "midi": 72,
      "hit": false,
      "t": 53282.3039999998,
      "d": 1714.1759999999922,
      "v": 79
    },
    {
      "midi": 74,
      "hit": false,
      "t": 54853.63199999979,
      "d": 1714.1759999999995,
      "v": 91
    },
    {
      "midi": 53,
      "hit": false,
      "t": 54853.632,
      "d": 214.2719999999972,
      "v": 39
    },
    {
      "midi": 53,
      "hit": false,
      "t": 54853.632,
      "d": 857.0880000000034,
      "v": 71
    },
    {
      "midi": 74,
      "hit": false,
      "t": 54996.47999999979,
      "d": 1714.1759999999995,
      "v": 83
    },
    {
      "midi": 53,
      "hit": false,
      "t": 55282.17599999999,
      "d": 214.2719999999972,
      "v": 23
    },
    {
      "midi": 55,
      "hit": false,
      "t": 55460.73599999999,
      "d": 214.2719999999972,
      "v": 39
    },
    {
      "midi": 57,
      "hit": false,
      "t": 55639.29599999999,
      "d": 214.2719999999972,
      "v": 55
    },
    {
      "midi": 59,
      "hit": false,
      "t": 55817.855999999985,
      "d": 214.2719999999972,
      "v": 71
    },
    {
      "midi": 60,
      "hit": false,
      "t": 55996.41599999998,
      "d": 249.98399999999674,
      "v": 87
    },
    {
      "midi": 62,
      "hit": false,
      "t": 56139.26399999998,
      "d": 285.6959999999963,
      "v": 103
    },
    {
      "midi": 64,
      "hit": false,
      "t": 56282.11199999998,
      "d": 321.4079999999958,
      "v": 111
    },
    {
      "midi": 65,
      "hit": false,
      "t": 56424.95999999998,
      "d": 357.11999999999534,
      "v": 119
    },
    {
      "midi": 67,
      "hit": false,
      "t": 56567.80799999999,
      "d": 2499.8399999999892,
      "v": 111
    },
    {
      "midi": 36,
      "hit": false,
      "t": 56567.808,
      "d": 3428.3519999999917,
      "v": 91
    },
    {
      "midi": 62,
      "hit": false,
      "t": 56567.808,
      "d": 1714.1759999999995,
      "v": 111
    },
    {
      "midi": 48,
      "hit": false,
      "t": 56567.808,
      "d": 3428.3519999999917,
      "v": 91
    },
    {
      "midi": 36,
      "hit": false,
      "t": 56567.808,
      "d": 3428.3519999999917,
      "v": 91
    },
    {
      "midi": 71,
      "hit": false,
      "t": 56710.65599999997,
      "d": 214.2719999999972,
      "v": 23
    },
    {
      "midi": 76,
      "hit": false,
      "t": 56853.50399999997,
      "d": 214.2719999999972,
      "v": 39
    },
    {
      "midi": 83,
      "hit": false,
      "t": 56996.35199999997,
      "d": 214.2719999999972,
      "v": 55
    },
    {
      "midi": 64,
      "hit": false,
      "t": 58281.984,
      "d": 1714.1759999999995,
      "v": 115
    },
    {
      "midi": 64,
      "hit": false,
      "t": 59139.07199999998,
      "d": 428.5439999999944,
      "v": 103
    },
    {
      "midi": 65,
      "hit": false,
      "t": 59567.61599999997,
      "d": 428.5439999999944,
      "v": 107
    },
    {
      "midi": 67,
      "hit": false,
      "t": 59996.15999999997,
      "d": 2571.264000000003,
      "v": 111
    },
    {
      "midi": 40,
      "hit": false,
      "t": 59996.15999999999,
      "d": 3428.3519999999917,
      "v": 91
    },
    {
      "midi": 52,
      "hit": false,
      "t": 59996.15999999999,
      "d": 3428.3519999999917,
      "v": 83
    },
    {
      "midi": 40,
      "hit": false,
      "t": 59996.15999999999,
      "d": 3428.3519999999917,
      "v": 91
    },
    {
      "midi": 60,
      "hit": false,
      "t": 59996.159999999996,
      "d": 3285.503999999957,
      "v": 111
    },
    {
      "midi": 64,
      "hit": false,
      "t": 62567.42399999997,
      "d": 785.663999999997,
      "v": 99
    },
    {
      "midi": 67,
      "hit": false,
      "t": 63424.51199999995,
      "d": 6713.85599999992,
      "v": 115
    },
    {
      "midi": 74,
      "hit": false,
      "t": 63424.511999999966,
      "d": 1714.1759999999995,
      "v": 115
    },
    {
      "midi": 33,
      "hit": false,
      "t": 63424.51199999998,
      "d": 3428.3519999999917,
      "v": 87
    },
    {
      "midi": 57,
      "hit": false,
      "t": 63424.51199999998,
      "d": 3428.3519999999917,
      "v": 91
    },
    {
      "midi": 33,
      "hit": false,
      "t": 63424.51199999998,
      "d": 3428.3519999999917,
      "v": 87
    },
    {
      "midi": 72,
      "hit": false,
      "t": 65138.687999999966,
      "d": 4214.015999999945,
      "v": 111
    },
    {
      "midi": 43,
      "hit": false,
      "t": 66852.86399999997,
      "d": 3428.3519999999844,
      "v": 95
    },
    {
      "midi": 55,
      "hit": false,
      "t": 66852.86399999997,
      "d": 3428.3519999999844,
      "v": 95
    },
    {
      "midi": 31,
      "hit": false,
      "t": 66852.86399999997,
      "d": 3428.3519999999844,
      "v": 63
    },
    {
      "midi": 43,
      "hit": false,
      "t": 66852.86399999997,
      "d": 3428.3519999999844,
      "v": 95
    },
    {
      "midi": 60,
      "hit": false,
      "t": 69424.12799999991,
      "d": 785.6639999999898,
      "v": 103
    },
    {
      "midi": 67,
      "hit": false,
      "t": 70281.21599999987,
      "d": 1714.1759999999922,
      "v": 115
    },
    {
      "midi": 60,
      "hit": false,
      "t": 70281.21599999987,
      "d": 1714.1759999999922,
      "v": 111
    },
    {
      "midi": 71,
      "hit": false,
      "t": 70281.2159999999,
      "d": 1714.1759999999922,
      "v": 111
    },
    {
      "midi": 41,
      "hit": false,
      "t": 70281.21599999996,
      "d": 5713.9199999999255,
      "v": 91
    },
    {
      "midi": 53,
      "hit": false,
      "t": 70281.21599999996,
      "d": 5713.9199999999255,
      "v": 95
    },
    {
      "midi": 41,
      "hit": false,
      "t": 70281.21599999996,
      "d": 5713.9199999999255,
      "v": 91
    },
    {
      "midi": 65,
      "hit": false,
      "t": 71995.39199999986,
      "d": 4999.679999999935,
      "v": 111
    },
    {
      "midi": 60,
      "hit": false,
      "t": 71995.39199999986,
      "d": 4999.679999999935,
      "v": 111
    },
    {
      "midi": 69,
      "hit": false,
      "t": 71995.39199999989,
      "d": 5071.103999999934,
      "v": 107
    },
    {
      "midi": 40,
      "hit": false,
      "t": 76280.83199999988,
      "d": 857.0879999999888,
      "v": 95
    },
    {
      "midi": 52,
      "hit": false,
      "t": 76280.83199999988,
      "d": 857.0879999999888,
      "v": 95
    },
    {
      "midi": 40,
      "hit": false,
      "t": 76280.83199999988,
      "d": 857.0879999999888,
      "v": 95
    },
    {
      "midi": 57,
      "hit": false,
      "t": 77137.9199999998,
      "d": 3285.503999999957,
      "v": 107
    },
    {
      "midi": 67,
      "hit": false,
      "t": 77137.91999999982,
      "d": 1714.1759999999922,
      "v": 107
    },
    {
      "midi": 38,
      "hit": false,
      "t": 77137.91999999987,
      "d": 3428.3519999999844,
      "v": 91
    },
    {
      "midi": 50,
      "hit": false,
      "t": 77137.91999999987,
      "d": 3428.3519999999844,
      "v": 91
    },
    {
      "midi": 38,
      "hit": false,
      "t": 77137.91999999987,
      "d": 3428.3519999999844,
      "v": 91
    },
    {
      "midi": 65,
      "hit": false,
      "t": 78852.09599999982,
      "d": 3428.351999999999,
      "v": 103
    },
    {
      "midi": 57,
      "hit": false,
      "t": 80566.27199999975,
      "d": 3285.503999999957,
      "v": 103
    },
    {
      "midi": 60,
      "hit": false,
      "t": 80566.27199999975,
      "d": 3285.503999999957,
      "v": 111
    },
    {
      "midi": 43,
      "hit": false,
      "t": 80566.27199999985,
      "d": 3285.503999999957,
      "v": 95
    },
    {
      "midi": 55,
      "hit": false,
      "t": 80566.27199999985,
      "d": 3285.503999999957,
      "v": 95
    },
    {
      "midi": 43,
      "hit": false,
      "t": 80566.27199999985,
      "d": 3285.503999999957,
      "v": 95
    },
    {
      "midi": 31,
      "hit": false,
      "t": 80566.27199999985,
      "d": 3428.3519999999553,
      "v": 63
    },
    {
      "midi": 60,
      "hit": false,
      "t": 82280.44799999981,
      "d": 857.0880000000034,
      "v": 99
    },
    {
      "midi": 62,
      "hit": false,
      "t": 83137.53599999982,
      "d": 857.0879999999888,
      "v": 103
    },
    {
      "midi": 59,
      "hit": false,
      "t": 83994.6239999997,
      "d": 1714.1759999999922,
      "v": 111
    },
    {
      "midi": 64,
      "hit": false,
      "t": 83994.6239999998,
      "d": 2499.8399999999965,
      "v": 111
    },
    {
      "midi": 45,
      "hit": false,
      "t": 83994.6239999998,
      "d": 3428.3519999999844,
      "v": 99
    },
    {
      "midi": 57,
      "hit": false,
      "t": 83994.6239999998,
      "d": 3428.3519999999844,
      "v": 99
    },
    {
      "midi": 33,
      "hit": false,
      "t": 83994.6239999998,
      "d": 3428.3519999999844,
      "v": 63
    },
    {
      "midi": 45,
      "hit": false,
      "t": 83994.6239999998,
      "d": 3428.3519999999844,
      "v": 99
    },
    {
      "midi": 76,
      "hit": false,
      "t": 83994.624,
      "d": 2571.2639999999665,
      "v": 95
    },
    {
      "midi": 76,
      "hit": false,
      "t": 83994.624,
      "d": 2571.2639999999665,
      "v": 111
    },
    {
      "midi": 61,
      "hit": false,
      "t": 85708.7999999997,
      "d": 1714.1760000000068,
      "v": 115
    },
    {
      "midi": 61,
      "hit": false,
      "t": 86565.8879999998,
      "d": 428.5439999999944,
      "v": 103
    },
    {
      "midi": 73,
      "hit": false,
      "t": 86565.88799999996,
      "d": 428.5439999999944,
      "v": 87
    },
    {
      "midi": 73,
      "hit": false,
      "t": 86565.88799999996,
      "d": 428.5439999999944,
      "v": 103
    },
    {
      "midi": 62,
      "hit": false,
      "t": 86994.4319999998,
      "d": 428.5439999999944,
      "v": 107
    },
    {
      "midi": 74,
      "hit": false,
      "t": 86994.43199999996,
      "d": 428.5439999999944,
      "v": 91
    },
    {
      "midi": 74,
      "hit": false,
      "t": 86994.43199999996,
      "d": 428.5439999999944,
      "v": 107
    },
    {
      "midi": 57,
      "hit": false,
      "t": 87422.9759999997,
      "d": 1714.1760000000068,
      "v": 111
    },
    {
      "midi": 64,
      "hit": false,
      "t": 87422.97599999979,
      "d": 2571.2639999999956,
      "v": 111
    },
    {
      "midi": 37,
      "hit": false,
      "t": 87422.97599999979,
      "d": 3428.3519999999844,
      "v": 95
    },
    {
      "midi": 49,
      "hit": false,
      "t": 87422.97599999979,
      "d": 3428.3519999999844,
      "v": 95
    },
    {
      "midi": 37,
      "hit": false,
      "t": 87422.97599999979,
      "d": 3428.3519999999844,
      "v": 95
    },
    {
      "midi": 76,
      "hit": false,
      "t": 87422.97599999995,
      "d": 1714.1760000000068,
      "v": 95
    },
    {
      "midi": 76,
      "hit": false,
      "t": 87422.97599999995,
      "d": 1714.1760000000068,
      "v": 111
    },
    {
      "midi": 52,
      "hit": false,
      "t": 89137.15199999971,
      "d": 1571.327999999994,
      "v": 107
    },
    {
      "midi": 83,
      "hit": false,
      "t": 89137.15199999996,
      "d": 2571.263999999981,
      "v": 95
    },
    {
      "midi": 83,
      "hit": false,
      "t": 89137.15199999996,
      "d": 2571.263999999981,
      "v": 111
    },
    {
      "midi": 71,
      "hit": false,
      "t": 89994.23999999979,
      "d": 857.0879999999888,
      "v": 115
    },
    {
      "midi": 59,
      "hit": false,
      "t": 90851.3279999997,
      "d": 857.0880000000034,
      "v": 111
    },
    {
      "midi": 71,
      "hit": false,
      "t": 90851.32799999978,
      "d": 857.0879999999888,
      "v": 115
    },
    {
      "midi": 42,
      "hit": false,
      "t": 90851.32799999978,
      "d": 3428.3519999999844,
      "v": 99
    },
    {
      "midi": 54,
      "hit": false,
      "t": 90851.32799999978,
      "d": 3428.3519999999844,
      "v": 99
    },
    {
      "midi": 42,
      "hit": false,
      "t": 90851.32799999978,
      "d": 3428.3519999999844,
      "v": 99
    },
    {
      "midi": 69,
      "hit": false,
      "t": 90851.32800000001,
      "d": 3428.351999999999,
      "v": 95
    },
    {
      "midi": 61,
      "hit": false,
      "t": 91708.4159999997,
      "d": 857.0880000000034,
      "v": 115
    },
    {
      "midi": 73,
      "hit": false,
      "t": 91708.41599999976,
      "d": 857.0880000000034,
      "v": 119
    },
    {
      "midi": 85,
      "hit": false,
      "t": 91708.41599999994,
      "d": 857.0880000000034,
      "v": 99
    },
    {
      "midi": 85,
      "hit": false,
      "t": 91708.41599999994,
      "d": 857.0880000000034,
      "v": 115
    },
    {
      "midi": 57,
      "hit": false,
      "t": 92565.50399999971,
      "d": 1714.1760000000068,
      "v": 111
    },
    {
      "midi": 69,
      "hit": false,
      "t": 92565.50399999977,
      "d": 5071.103999999934,
      "v": 115
    },
    {
      "midi": 81,
      "hit": false,
      "t": 92565.50399999994,
      "d": 4999.679999999935,
      "v": 91
    },
    {
      "midi": 81,
      "hit": false,
      "t": 92565.50399999994,
      "d": 4999.679999999935,
      "v": 107
    },
    {
      "midi": 52,
      "hit": false,
      "t": 94279.67999999972,
      "d": 3428.3519999999553,
      "v": 107
    },
    {
      "midi": 40,
      "hit": false,
      "t": 94279.67999999976,
      "d": 3285.5039999999863,
      "v": 95
    },
    {
      "midi": 52,
      "hit": false,
      "t": 94279.67999999976,
      "d": 3285.5039999999863,
      "v": 95
    },
    {
      "midi": 40,
      "hit": false,
      "t": 94279.67999999976,
      "d": 3285.5039999999863,
      "v": 95
    },
    {
      "midi": 76,
      "hit": false,
      "t": 94279.68000000001,
      "d": 3428.351999999999,
      "v": 111
    },
    {
      "midi": 64,
      "hit": false,
      "t": 97708.03199999967,
      "d": 1714.1759999999922,
      "v": 115
    },
    {
      "midi": 68,
      "hit": false,
      "t": 97708.0319999997,
      "d": 1714.1759999999922,
      "v": 111
    },
    {
      "midi": 38,
      "hit": false,
      "t": 97708.03199999974,
      "d": 4999.679999999935,
      "v": 91
    },
    {
      "midi": 50,
      "hit": false,
      "t": 97708.03199999974,
      "d": 4999.679999999935,
      "v": 91
    },
    {
      "midi": 38,
      "hit": false,
      "t": 97708.03199999974,
      "d": 4999.679999999935,
      "v": 91
    },
    {
      "midi": 80,
      "hit": false,
      "t": 97708.03199999988,
      "d": 1714.1759999999776,
      "v": 91
    },
    {
      "midi": 80,
      "hit": false,
      "t": 97708.03199999988,
      "d": 1714.1759999999776,
      "v": 107
    },
    {
      "midi": 88,
      "hit": false,
      "t": 97708.03199999993,
      "d": 3428.351999999999,
      "v": 127
    },
    {
      "midi": 88,
      "hit": false,
      "t": 97708.032,
      "d": 3428.351999999999,
      "v": 127
    },
    {
      "midi": 62,
      "hit": false,
      "t": 99422.20799999966,
      "d": 4142.591999999946,
      "v": 111
    },
    {
      "midi": 66,
      "hit": false,
      "t": 99422.2079999997,
      "d": 5071.103999999934,
      "v": 107
    },
    {
      "midi": 78,
      "hit": false,
      "t": 99422.20799999985,
      "d": 5142.527999999933,
      "v": 87
    },
    {
      "midi": 78,
      "hit": false,
      "t": 99422.20799999985,
      "d": 5071.103999999934,
      "v": 103
    },
    {
      "midi": 81,
      "hit": false,
      "t": 101136.38399999993,
      "d": 3428.351999999999,
      "v": 127
    },
    {
      "midi": 81,
      "hit": false,
      "t": 101136.384,
      "d": 3428.351999999999,
      "v": 127
    },
    {
      "midi": 37,
      "hit": false,
      "t": 102850.55999999968,
      "d": 1714.1759999999922,
      "v": 95
    },
    {
      "midi": 49,
      "hit": false,
      "t": 102850.55999999968,
      "d": 1714.1759999999922,
      "v": 87
    },
    {
      "midi": 37,
      "hit": false,
      "t": 102850.55999999968,
      "d": 1714.1759999999922,
      "v": 87
    },
    {
      "midi": 61,
      "hit": false,
      "t": 103707.64799999961,
      "d": 857.0879999999888,
      "v": 107
    },
    {
      "midi": 57,
      "hit": false,
      "t": 104564.7359999996,
      "d": 6856.703999999911,
      "v": 103
    },
    {
      "midi": 64,
      "hit": false,
      "t": 104564.73599999963,
      "d": 1714.1759999999922,
      "v": 103
    },
    {
      "midi": 35,
      "hit": false,
      "t": 104564.73599999967,
      "d": 3428.3519999999844,
      "v": 91
    },
    {
      "midi": 47,
      "hit": false,
      "t": 104564.73599999967,
      "d": 3428.3519999999844,
      "v": 83
    },
    {
      "midi": 35,
      "hit": false,
      "t": 104564.73599999967,
      "d": 3428.3519999999844,
      "v": 83
    },
    {
      "midi": 76,
      "hit": false,
      "t": 104564.73599999979,
      "d": 1714.1759999999776,
      "v": 83
    },
    {
      "midi": 76,
      "hit": false,
      "t": 104564.73599999979,
      "d": 1714.1759999999776,
      "v": 99
    },
    {
      "midi": 62,
      "hit": false,
      "t": 106278.91199999962,
      "d": 1714.1760000000068,
      "v": 99
    },
    {
      "midi": 74,
      "hit": false,
      "t": 106278.91199999976,
      "d": 1714.1760000000068,
      "v": 79
    },
    {
      "midi": 74,
      "hit": false,
      "t": 106278.91199999976,
      "d": 1714.1760000000068,
      "v": 95
    },
    {
      "midi": 57,
      "hit": false,
      "t": 107993.08799999963,
      "d": 1714.1760000000068,
      "v": 95
    },
    {
      "midi": 40,
      "hit": false,
      "t": 107993.08799999965,
      "d": 3428.3519999999553,
      "v": 95
    },
    {
      "midi": 40,
      "hit": false,
      "t": 107993.08799999965,
      "d": 3428.3519999999553,
      "v": 79
    },
    {
      "midi": 40,
      "hit": false,
      "t": 107993.08799999965,
      "d": 3428.3519999999553,
      "v": 91
    },
    {
      "midi": 69,
      "hit": false,
      "t": 107993.08799999977,
      "d": 1714.1760000000068,
      "v": 75
    },
    {
      "midi": 69,
      "hit": false,
      "t": 107993.08799999977,
      "d": 1714.1760000000068,
      "v": 91
    },
    {
      "midi": 59,
      "hit": false,
      "t": 109707.26399999963,
      "d": 1714.1759999999922,
      "v": 99
    },
    {
      "midi": 71,
      "hit": false,
      "t": 109707.26399999978,
      "d": 1714.1759999999776,
      "v": 79
    },
    {
      "midi": 71,
      "hit": false,
      "t": 109707.26399999978,
      "d": 1714.1759999999776,
      "v": 95
    },
    {
      "midi": 59,
      "hit": false,
      "t": 111421.43999999951,
      "d": 1714.1759999999922,
      "v": 111
    },
    {
      "midi": 45,
      "hit": false,
      "t": 111421.43999999961,
      "d": 3428.3519999999553,
      "v": 99
    },
    {
      "midi": 57,
      "hit": false,
      "t": 111421.43999999961,
      "d": 3428.3519999999553,
      "v": 99
    },
    {
      "midi": 33,
      "hit": false,
      "t": 111421.43999999961,
      "d": 3428.3519999999553,
      "v": 63
    },
    {
      "midi": 45,
      "hit": false,
      "t": 111421.43999999961,
      "d": 3428.3519999999553,
      "v": 99
    },
    {
      "midi": 61,
      "hit": false,
      "t": 111421.43999999962,
      "d": 4214.015999999945,
      "v": 103
    },
    {
      "midi": 73,
      "hit": false,
      "t": 111421.43999999975,
      "d": 4285.439999999944,
      "v": 83
    },
    {
      "midi": 73,
      "hit": false,
      "t": 111421.43999999975,
      "d": 4285.439999999944,
      "v": 99
    },
    {
      "midi": 61,
      "hit": false,
      "t": 113135.6159999995,
      "d": 1714.1760000000068,
      "v": 115
    },
    {
      "midi": 57,
      "hit": false,
      "t": 114849.7919999995,
      "d": 1714.1760000000068,
      "v": 111
    },
    {
      "midi": 37,
      "hit": false,
      "t": 114849.79199999956,
      "d": 3428.3519999999844,
      "v": 95
    },
    {
      "midi": 49,
      "hit": false,
      "t": 114849.79199999956,
      "d": 3428.3519999999844,
      "v": 95
    },
    {
      "midi": 37,
      "hit": false,
      "t": 114849.79199999956,
      "d": 3428.3519999999844,
      "v": 95
    },
    {
      "midi": 62,
      "hit": false,
      "t": 115706.87999999957,
      "d": 857.0879999999888,
      "v": 107
    },
    {
      "midi": 74,
      "hit": false,
      "t": 115706.8799999997,
      "d": 857.0880000000034,
      "v": 87
    },
    {
      "midi": 74,
      "hit": false,
      "t": 115706.8799999997,
      "d": 857.0880000000034,
      "v": 103
    },
    {
      "midi": 52,
      "hit": false,
      "t": 116563.96799999951,
      "d": 1571.327999999994,
      "v": 107
    },
    {
      "midi": 64,
      "hit": false,
      "t": 116563.96799999956,
      "d": 857.0880000000034,
      "v": 111
    },
    {
      "midi": 76,
      "hit": false,
      "t": 116563.9679999997,
      "d": 857.0880000000034,
      "v": 91
    },
    {
      "midi": 76,
      "hit": false,
      "t": 116563.9679999997,
      "d": 857.0880000000034,
      "v": 107
    },
    {
      "midi": 71,
      "hit": false,
      "t": 117421.05599999956,
      "d": 857.0879999999888,
      "v": 115
    },
    {
      "midi": 83,
      "hit": false,
      "t": 117421.0559999997,
      "d": 1714.1759999999922,
      "v": 95
    },
    {
      "midi": 83,
      "hit": false,
      "t": 117421.0559999997,
      "d": 1714.1759999999922,
      "v": 111
    },
    {
      "midi": 59,
      "hit": false,
      "t": 118278.1439999995,
      "d": 857.0880000000034,
      "v": 111
    },
    {
      "midi": 71,
      "hit": false,
      "t": 118278.14399999955,
      "d": 857.0879999999888,
      "v": 115
    },
    {
      "midi": 42,
      "hit": false,
      "t": 118278.14399999955,
      "d": 3428.3519999999844,
      "v": 99
    },
    {
      "midi": 54,
      "hit": false,
      "t": 118278.14399999955,
      "d": 3428.3519999999844,
      "v": 99
    },
    {
      "midi": 42,
      "hit": false,
      "t": 118278.14399999955,
      "d": 3428.3519999999844,
      "v": 99
    },
    {
      "midi": 61,
      "hit": false,
      "t": 119135.23199999951,
      "d": 857.0880000000034,
      "v": 115
    },
    {
      "midi": 73,
      "hit": false,
      "t": 119135.23199999954,
      "d": 857.0880000000034,
      "v": 119
    },
    {
      "midi": 85,
      "hit": false,
      "t": 119135.2319999997,
      "d": 857.0880000000034,
      "v": 99
    },
    {
      "midi": 85,
      "hit": false,
      "t": 119135.2319999997,
      "d": 857.0880000000034,
      "v": 115
    },
    {
      "midi": 57,
      "hit": false,
      "t": 119992.31999999951,
      "d": 1714.1760000000068,
      "v": 111
    },
    {
      "midi": 69,
      "hit": false,
      "t": 119992.31999999954,
      "d": 4214.015999999945,
      "v": 115
    },
    {
      "midi": 81,
      "hit": false,
      "t": 119992.3199999997,
      "d": 4142.591999999946,
      "v": 91
    },
    {
      "midi": 81,
      "hit": false,
      "t": 119992.3199999997,
      "d": 4142.591999999946,
      "v": 107
    },
    {
      "midi": 52,
      "hit": false,
      "t": 121706.49599999952,
      "d": 3285.503999999957,
      "v": 107
    },
    {
      "midi": 40,
      "hit": false,
      "t": 121706.49599999953,
      "d": 3285.5039999999863,
      "v": 95
    },
    {
      "midi": 52,
      "hit": false,
      "t": 121706.49599999953,
      "d": 3285.5039999999863,
      "v": 95
    },
    {
      "midi": 40,
      "hit": false,
      "t": 121706.49599999953,
      "d": 3285.5039999999863,
      "v": 95
    },
    {
      "midi": 76,
      "hit": false,
      "t": 124277.75999999949,
      "d": 857.0879999999888,
      "v": 111
    },
    {
      "midi": 88,
      "hit": false,
      "t": 124277.75999999965,
      "d": 857.0879999999888,
      "v": 99
    },
    {
      "midi": 88,
      "hit": false,
      "t": 124277.75999999965,
      "d": 857.0879999999888,
      "v": 115
    },
    {
      "midi": 76,
      "hit": false,
      "t": 125134.84799999947,
      "d": 1714.1759999999922,
      "v": 123
    },
    {
      "midi": 64,
      "hit": false,
      "t": 125134.84799999947,
      "d": 1714.1759999999922,
      "v": 111
    },
    {
      "midi": 38,
      "hit": false,
      "t": 125134.84799999952,
      "d": 6856.703999999983,
      "v": 91
    },
    {
      "midi": 50,
      "hit": false,
      "t": 125134.84799999952,
      "d": 6856.703999999983,
      "v": 91
    },
    {
      "midi": 38,
      "hit": false,
      "t": 125134.84799999952,
      "d": 6856.703999999983,
      "v": 91
    },
    {
      "midi": 88,
      "hit": false,
      "t": 125134.84799999963,
      "d": 1714.1760000000068,
      "v": 99
    },
    {
      "midi": 88,
      "hit": false,
      "t": 125134.84799999963,
      "d": 1714.1760000000068,
      "v": 115
    },
    {
      "midi": 74,
      "hit": false,
      "t": 126849.02399999947,
      "d": 5071.103999999948,
      "v": 119
    },
    {
      "midi": 62,
      "hit": false,
      "t": 126849.02399999947,
      "d": 5142.5279999999475,
      "v": 107
    },
    {
      "midi": 86,
      "hit": false,
      "t": 126849.02399999964,
      "d": 4999.679999999949,
      "v": 95
    },
    {
      "midi": 86,
      "hit": false,
      "t": 126849.02399999964,
      "d": 4999.679999999949,
      "v": 111
    },
    {
      "midi": 73,
      "hit": false,
      "t": 131991.5519999994,
      "d": 1714.1760000000068,
      "v": 115
    },
    {
      "midi": 57,
      "hit": false,
      "t": 131991.5519999994,
      "d": 6856.703999999911,
      "v": 103
    },
    {
      "midi": 35,
      "hit": false,
      "t": 131991.5519999995,
      "d": 6856.703999999998,
      "v": 87
    },
    {
      "midi": 47,
      "hit": false,
      "t": 131991.5519999995,
      "d": 6856.703999999998,
      "v": 87
    },
    {
      "midi": 35,
      "hit": false,
      "t": 131991.5519999995,
      "d": 6856.703999999998,
      "v": 87
    },
    {
      "midi": 85,
      "hit": false,
      "t": 131991.5519999996,
      "d": 1714.1759999999776,
      "v": 95
    },
    {
      "midi": 85,
      "hit": false,
      "t": 131991.5519999996,
      "d": 1714.1759999999776,
      "v": 111
    },
    {
      "midi": 71,
      "hit": false,
      "t": 133705.72799999942,
      "d": 5071.103999999934,
      "v": 111
    },
    {
      "midi": 83,
      "hit": false,
      "t": 133705.72799999957,
      "d": 4999.679999999935,
      "v": 91
    },
    {
      "midi": 83,
      "hit": false,
      "t": 133705.72799999957,
      "d": 4999.679999999935,
      "v": 107
    },
    {
      "midi": 59,
      "hit": false,
      "t": 138848.25599999932,
      "d": 13713.407999999821,
      "v": 111
    },
    {
      "midi": 69,
      "hit": false,
      "t": 138848.25599999935,
      "d": 1714.1760000000068,
      "v": 107
    },
    {
      "midi": 81,
      "hit": false,
      "t": 138848.2559999995,
      "d": 1714.1759999999776,
      "v": 91
    },
    {
      "midi": 40,
      "hit": false,
      "t": 138848.2559999995,
      "d": 13713.407999999908,
      "v": 83
    },
    {
      "midi": 81,
      "hit": false,
      "t": 138848.2559999995,
      "d": 1714.1759999999776,
      "v": 107
    },
    {
      "midi": 40,
      "hit": false,
      "t": 138848.2559999995,
      "d": 13713.407999999908,
      "v": 83
    },
    {
      "midi": 28,
      "hit": false,
      "t": 138848.2559999995,
      "d": 13713.407999999908,
      "v": 83
    },
    {
      "midi": 85,
      "hit": false,
      "t": 138848.256,
      "d": 1571.3280000000086,
      "v": 95
    },
    {
      "midi": 83,
      "hit": false,
      "t": 140419.584,
      "d": 5285.375999999989,
      "v": 95
    },
    {
      "midi": 68,
      "hit": false,
      "t": 140562.43199999936,
      "d": 11999.231999999844,
      "v": 103
    },
    {
      "midi": 80,
      "hit": false,
      "t": 140562.43199999948,
      "d": 11999.231999999844,
      "v": 87
    },
    {
      "midi": 80,
      "hit": false,
      "t": 140562.43199999948,
      "d": 11999.231999999844,
      "v": 103
    },
    {
      "midi": 79,
      "hit": false,
      "t": 152561.6639999998,
      "d": 2499.8399999999674,
      "v": 79
    },
    {
      "midi": 79,
      "hit": false,
      "t": 152704.51199999978,
      "d": 2499.8399999999674,
      "v": 63
    },
    {
      "midi": 76,
      "hit": false,
      "t": 155132.92799999975,
      "d": 428.5439999999944,
      "v": 71
    },
    {
      "midi": 76,
      "hit": false,
      "t": 155275.77599999975,
      "d": 428.5439999999944,
      "v": 55
    },
    {
      "midi": 77,
      "hit": false,
      "t": 155561.47199999975,
      "d": 428.5439999999944,
      "v": 75
    },
    {
      "midi": 77,
      "hit": false,
      "t": 155704.31999999975,
      "d": 428.5439999999944,
      "v": 59
    },
    {
      "midi": 79,
      "hit": false,
      "t": 155990.01599999974,
      "d": 2571.2639999999665,
      "v": 79
    },
    {
      "midi": 79,
      "hit": false,
      "t": 156132.86399999974,
      "d": 2571.2639999999665,
      "v": 63
    },
    {
      "midi": 76,
      "hit": false,
      "t": 158561.2799999997,
      "d": 785.6639999999898,
      "v": 71
    },
    {
      "midi": 76,
      "hit": false,
      "t": 158704.1279999997,
      "d": 785.6639999999898,
      "v": 55
    },
    {
      "midi": 86,
      "hit": false,
      "t": 159418.3679999997,
      "d": 1714.1760000000068,
      "v": 83
    },
    {
      "midi": 86,
      "hit": false,
      "t": 159561.2159999997,
      "d": 1714.1760000000068,
      "v": 67
    },
    {
      "midi": 84,
      "hit": false,
      "t": 161132.5439999997,
      "d": 4214.015999999945,
      "v": 79
    },
    {
      "midi": 84,
      "hit": false,
      "t": 161275.3919999997,
      "d": 4214.015999999945,
      "v": 63
    },
    {
      "midi": 72,
      "hit": false,
      "t": 165417.98399999965,
      "d": 785.6639999999898,
      "v": 71
    },
    {
      "midi": 72,
      "hit": false,
      "t": 165560.83199999965,
      "d": 785.6639999999898,
      "v": 55
    },
    {
      "midi": 83,
      "hit": false,
      "t": 166275.07199999964,
      "d": 1714.1760000000068,
      "v": 79
    },
    {
      "midi": 83,
      "hit": false,
      "t": 166417.91999999963,
      "d": 1714.1760000000068,
      "v": 63
    },
    {
      "midi": 81,
      "hit": false,
      "t": 167989.24799999964,
      "d": 5071.103999999934,
      "v": 75
    },
    {
      "midi": 81,
      "hit": false,
      "t": 168132.09599999964,
      "d": 5071.103999999934,
      "v": 59
    },
    {
      "midi": 79,
      "hit": false,
      "t": 173131.77599999943,
      "d": 34283.51999999955,
      "v": 63
    },
    {
      "midi": 79,
      "hit": false,
      "t": 173131.77599999958,
      "d": 1714.1759999999776,
      "v": 71
    },
    {
      "midi": 79,
      "hit": false,
      "t": 173274.62399999957,
      "d": 1714.1759999999776,
      "v": 55
    },
    {
      "midi": 77,
      "hit": false,
      "t": 174845.95199999955,
      "d": 1714.1760000000068,
      "v": 67
    },
    {
      "midi": 77,
      "hit": false,
      "t": 174988.79999999955,
      "d": 1714.1760000000068,
      "v": 51
    },
    {
      "midi": 72,
      "hit": false,
      "t": 176560.12799999956,
      "d": 1714.1759999999776,
      "v": 63
    },
    {
      "midi": 72,
      "hit": false,
      "t": 176702.97599999956,
      "d": 1714.1759999999776,
      "v": 47
    },
    {
      "midi": 74,
      "hit": false,
      "t": 178274.30399999954,
      "d": 1714.1760000000068,
      "v": 67
    },
    {
      "midi": 74,
      "hit": false,
      "t": 178417.15199999954,
      "d": 1714.1760000000068,
      "v": 51
    },
    {
      "midi": 79,
      "hit": false,
      "t": 179988.47999999954,
      "d": 2499.8399999999674,
      "v": 79
    },
    {
      "midi": 79,
      "hit": false,
      "t": 180131.32799999954,
      "d": 2499.8399999999674,
      "v": 63
    },
    {
      "midi": 67,
      "hit": false,
      "t": 181702.65599999993,
      "d": 2571.2639999999956,
      "v": 63
    },
    {
      "midi": 76,
      "hit": false,
      "t": 182559.7439999995,
      "d": 428.5439999999944,
      "v": 71
    },
    {
      "midi": 76,
      "hit": false,
      "t": 182702.5919999995,
      "d": 428.5439999999944,
      "v": 55
    },
    {
      "midi": 77,
      "hit": false,
      "t": 182988.2879999995,
      "d": 428.5439999999944,
      "v": 75
    },
    {
      "midi": 77,
      "hit": false,
      "t": 183131.1359999995,
      "d": 428.5439999999944,
      "v": 59
    },
    {
      "midi": 79,
      "hit": false,
      "t": 183416.8319999995,
      "d": 2571.2639999999665,
      "v": 79
    },
    {
      "midi": 79,
      "hit": false,
      "t": 183559.6799999995,
      "d": 2571.2639999999665,
      "v": 63
    },
    {
      "midi": 76,
      "hit": false,
      "t": 185988.09599999947,
      "d": 785.6639999999898,
      "v": 71
    },
    {
      "midi": 65,
      "hit": false,
      "t": 185988.09599999993,
      "d": 857.0879999999888,
      "v": 47
    },
    {
      "midi": 76,
      "hit": false,
      "t": 186130.94399999946,
      "d": 785.6639999999898,
      "v": 55
    },
    {
      "midi": 86,
      "hit": false,
      "t": 186845.18399999946,
      "d": 1714.1760000000068,
      "v": 83
    },
    {
      "midi": 65,
      "hit": false,
      "t": 186845.18399999992,
      "d": 1714.1760000000068,
      "v": 39
    },
    {
      "midi": 86,
      "hit": false,
      "t": 186988.03199999945,
      "d": 1714.1760000000068,
      "v": 67
    },
    {
      "midi": 84,
      "hit": false,
      "t": 188559.35999999946,
      "d": 4214.015999999945,
      "v": 79
    },
    {
      "midi": 64,
      "hit": false,
      "t": 188559.35999999993,
      "d": 5142.527999999991,
      "v": 39
    },
    {
      "midi": 84,
      "hit": false,
      "t": 188702.20799999946,
      "d": 4214.015999999945,
      "v": 63
    },
    {
      "midi": 72,
      "hit": false,
      "t": 192844.7999999994,
      "d": 785.6639999999898,
      "v": 71
    },
    {
      "midi": 72,
      "hit": false,
      "t": 192987.6479999994,
      "d": 785.6639999999898,
      "v": 55
    },
    {
      "midi": 83,
      "hit": false,
      "t": 193701.8879999994,
      "d": 1714.1760000000068,
      "v": 79
    },
    {
      "midi": 67,
      "hit": false,
      "t": 193701.88799999992,
      "d": 1714.1760000000068,
      "v": 55
    },
    {
      "midi": 83,
      "hit": false,
      "t": 193844.7359999994,
      "d": 1714.1760000000068,
      "v": 63
    },
    {
      "midi": 81,
      "hit": false,
      "t": 195416.0639999994,
      "d": 5071.103999999934,
      "v": 75
    },
    {
      "midi": 67,
      "hit": false,
      "t": 195416.06399999993,
      "d": 357.11999999999534,
      "v": 47
    },
    {
      "midi": 81,
      "hit": false,
      "t": 195558.9119999994,
      "d": 5071.103999999934,
      "v": 59
    },
    {
      "midi": 67,
      "hit": false,
      "t": 195773.18399999992,
      "d": 357.11999999999534,
      "v": 47
    },
    {
      "midi": 67,
      "hit": false,
      "t": 196130.30399999992,
      "d": 357.11999999999534,
      "v": 39
    },
    {
      "midi": 67,
      "hit": false,
      "t": 196487.4239999999,
      "d": 357.11999999999534,
      "v": 39
    },
    {
      "midi": 67,
      "hit": false,
      "t": 196844.5439999999,
      "d": 357.11999999999534,
      "v": 39
    },
    {
      "midi": 67,
      "hit": false,
      "t": 197201.6639999999,
      "d": 357.11999999999534,
      "v": 39
    },
    {
      "midi": 67,
      "hit": false,
      "t": 197558.7839999999,
      "d": 357.11999999999534,
      "v": 39
    },
    {
      "midi": 67,
      "hit": false,
      "t": 197915.9039999999,
      "d": 357.11999999999534,
      "v": 39
    },
    {
      "midi": 67,
      "hit": false,
      "t": 198273.0239999999,
      "d": 357.11999999999534,
      "v": 39
    },
    {
      "midi": 67,
      "hit": false,
      "t": 198630.14399999988,
      "d": 357.11999999999534,
      "v": 39
    },
    {
      "midi": 67,
      "hit": false,
      "t": 198987.26399999988,
      "d": 357.11999999999534,
      "v": 39
    },
    {
      "midi": 67,
      "hit": false,
      "t": 199344.38399999987,
      "d": 357.11999999999534,
      "v": 39
    },
    {
      "midi": 67,
      "hit": false,
      "t": 199701.50399999987,
      "d": 357.11999999999534,
      "v": 39
    },
    {
      "midi": 67,
      "hit": false,
      "t": 200058.62399999987,
      "d": 357.11999999999534,
      "v": 39
    },
    {
      "midi": 67,
      "hit": false,
      "t": 200415.74399999986,
      "d": 357.11999999999534,
      "v": 39
    },
    {
      "midi": 79,
      "hit": false,
      "t": 200558.59199999933,
      "d": 1714.1759999999776,
      "v": 71
    },
    {
      "midi": 79,
      "hit": false,
      "t": 200701.43999999933,
      "d": 1714.1759999999776,
      "v": 55
    },
    {
      "midi": 67,
      "hit": false,
      "t": 200772.86399999986,
      "d": 357.11999999999534,
      "v": 39
    },
    {
      "midi": 67,
      "hit": false,
      "t": 201129.98399999985,
      "d": 357.11999999999534,
      "v": 39
    },
    {
      "midi": 67,
      "hit": false,
      "t": 201487.10399999985,
      "d": 357.11999999999534,
      "v": 39
    },
    {
      "midi": 67,
      "hit": false,
      "t": 201844.22399999984,
      "d": 357.11999999999534,
      "v": 39
    },
    {
      "midi": 67,
      "hit": false,
      "t": 202201.34399999984,
      "d": 357.11999999999534,
      "v": 39
    },
    {
      "midi": 77,
      "hit": false,
      "t": 202272.7679999993,
      "d": 1714.1760000000068,
      "v": 67
    },
    {
      "midi": 77,
      "hit": false,
      "t": 202415.6159999993,
      "d": 1714.1760000000068,
      "v": 51
    },
    {
      "midi": 72,
      "hit": false,
      "t": 203986.94399999932,
      "d": 1714.1759999999776,
      "v": 63
    },
    {
      "midi": 72,
      "hit": false,
      "t": 204129.79199999932,
      "d": 1714.1759999999776,
      "v": 47
    },
    {
      "midi": 74,
      "hit": false,
      "t": 205701.1199999993,
      "d": 1714.1760000000068,
      "v": 67
    },
    {
      "midi": 74,
      "hit": false,
      "t": 205843.9679999993,
      "d": 1714.1760000000068,
      "v": 51
    },
    {
      "midi": 76,
      "hit": false,
      "t": 207415.2959999993,
      "d": 17141.759999999776,
      "v": 79
    },
    {
      "midi": 69,
      "hit": false,
      "t": 207415.296,
      "d": 214.2719999999972,
      "v": 39
    },
    {
      "midi": 76,
      "hit": false,
      "t": 207558.1439999993,
      "d": 17141.759999999776,
      "v": 63
    },
    {
      "midi": 69,
      "hit": false,
      "t": 207558.14399999997,
      "d": 214.2719999999972,
      "v": 23
    },
    {
      "midi": 73,
      "hit": false,
      "t": 207700.99199999997,
      "d": 214.2719999999972,
      "v": 43
    },
    {
      "midi": 81,
      "hit": false,
      "t": 207843.83999999997,
      "d": 214.2719999999972,
      "v": 55
    },
    {
      "midi": 81,
      "hit": false,
      "t": 208129.53599999996,
      "d": 214.2719999999972,
      "v": 47
    },
    {
      "midi": 81,
      "hit": false,
      "t": 208415.23199999996,
      "d": 214.2719999999972,
      "v": 39
    },
    {
      "midi": 81,
      "hit": false,
      "t": 208700.92799999996,
      "d": 214.2719999999972,
      "v": 31
    },
    {
      "midi": 81,
      "hit": false,
      "t": 208986.62399999995,
      "d": 214.2719999999972,
      "v": 23
    },
    {
      "midi": 81,
      "hit": false,
      "t": 209272.31999999995,
      "d": 214.2719999999972,
      "v": 15
    },
    {
      "midi": 81,
      "hit": false,
      "t": 209558.01599999995,
      "d": 214.2719999999972,
      "v": 7
    },
    {
      "midi": 76,
      "hit": false,
      "t": 214271.99999999898,
      "d": 10285.055999999866,
      "v": 63
    },
    {
      "midi": 61,
      "hit": false,
      "t": 214271.99999999913,
      "d": 8570.879999999917,
      "v": 111
    },
    {
      "midi": 71,
      "hit": false,
      "t": 214271.9999999993,
      "d": 10285.055999999866,
      "v": 111
    },
    {
      "midi": 45,
      "hit": false,
      "t": 214271.99999999942,
      "d": 8570.879999999917,
      "v": 95
    },
    {
      "midi": 57,
      "hit": false,
      "t": 214271.99999999942,
      "d": 8570.879999999917,
      "v": 95
    },
    {
      "midi": 33,
      "hit": false,
      "t": 214271.99999999942,
      "d": 8570.879999999917,
      "v": 63
    },
    {
      "midi": 45,
      "hit": false,
      "t": 214271.99999999942,
      "d": 8570.879999999917,
      "v": 95
    }
  ]
}