{
  "jsonPath": "Rock/Rock-And-Roll/THE CHIFFONS/hes-so-fine.json",
  "path": "Rock\\Rock-And-Roll\\THE CHIFFONS\\Hes So Fine.mid",
  "name": "Hes So Fine",
  "difficulty": "Advanced",
  "bpm": 145.9999659333413,
  "notes": [
    {
      "midi": 60,
      "hit": false,
      "t": 3698.631,
      "d": 308.2192500000001,
      "v": 127
    },
    {
      "midi": 64,
      "hit": false,
      "t": 3698.631,
      "d": 308.2192500000001,
      "v": 127
    },
    {
      "midi": 67,
      "hit": false,
      "t": 3698.631,
      "d": 308.2192500000001,
      "v": 127
    },
    {
      "midi": 60,
      "hit": false,
      "t": 4109.59,
      "d": 273.97266666666656,
      "v": 127
    },
    {
      "midi": 64,
      "hit": false,
      "t": 4109.59,
      "d": 291.09595833333333,
      "v": 127
    },
    {
      "midi": 67,
      "hit": false,
      "t": 4109.59,
      "d": 291.09595833333333,
      "v": 127
    },
    {
      "midi": 60,
      "hit": false,
      "t": 4520.549,
      "d": 205.47950000000037,
      "v": 127
    },
    {
      "midi": 64,
      "hit": false,
      "t": 4520.549,
      "d": 256.8493750000007,
      "v": 127
    },
    {
      "midi": 67,
      "hit": false,
      "t": 4520.549,
      "d": 256.8493750000007,
      "v": 127
    },
    {
      "midi": 62,
      "hit": false,
      "t": 4931.508000000001,
      "d": 239.726083333333,
      "v": 127
    },
    {
      "midi": 66,
      "hit": false,
      "t": 4931.508000000001,
      "d": 256.8493749999998,
      "v": 127
    },
    {
      "midi": 69,
      "hit": false,
      "t": 4931.508000000001,
      "d": 256.8493749999998,
      "v": 127
    },
    {
      "midi": 62,
      "hit": false,
      "t": 5342.467000000001,
      "d": 85.61645833333296,
      "v": 127
    },
    {
      "midi": 66,
      "hit": false,
      "t": 5342.467000000001,
      "d": 85.61645833333296,
      "v": 127
    },
    {
      "midi": 69,
      "hit": false,
      "t": 5342.467000000001,
      "d": 85.61645833333296,
      "v": 127
    },
    {
      "midi": 62,
      "hit": false,
      "t": 5547.9465,
      "d": 804.7947083333329,
      "v": 127
    },
    {
      "midi": 66,
      "hit": false,
      "t": 5547.9465,
      "d": 804.7947083333329,
      "v": 127
    },
    {
      "midi": 69,
      "hit": false,
      "t": 5547.9465,
      "d": 804.7947083333329,
      "v": 127
    },
    {
      "midi": 60,
      "hit": false,
      "t": 6986.303,
      "d": 239.726083333333,
      "v": 127
    },
    {
      "midi": 64,
      "hit": false,
      "t": 6986.303,
      "d": 239.726083333333,
      "v": 127
    },
    {
      "midi": 67,
      "hit": false,
      "t": 6986.303,
      "d": 239.726083333333,
      "v": 127
    },
    {
      "midi": 60,
      "hit": false,
      "t": 7397.262,
      "d": 239.726083333333,
      "v": 127
    },
    {
      "midi": 67,
      "hit": false,
      "t": 7397.262,
      "d": 239.726083333333,
      "v": 127
    },
    {
      "midi": 64,
      "hit": false,
      "t": 7397.262,
      "d": 256.8493749999998,
      "v": 127
    },
    {
      "midi": 60,
      "hit": false,
      "t": 7808.221,
      "d": 222.60279166666623,
      "v": 127
    },
    {
      "midi": 64,
      "hit": false,
      "t": 7808.221,
      "d": 239.726083333333,
      "v": 127
    },
    {
      "midi": 67,
      "hit": false,
      "t": 7808.221,
      "d": 239.726083333333,
      "v": 127
    },
    {
      "midi": 62,
      "hit": false,
      "t": 8219.179999999998,
      "d": 154.10962499999914,
      "v": 127
    },
    {
      "midi": 66,
      "hit": false,
      "t": 8219.179999999998,
      "d": 154.10962499999914,
      "v": 127
    },
    {
      "midi": 69,
      "hit": false,
      "t": 8219.179999999998,
      "d": 171.23291666666591,
      "v": 127
    },
    {
      "midi": 81,
      "hit": false,
      "t": 9863.015999999998,
      "d": 85.61645833333387,
      "v": 127
    },
    {
      "midi": 45,
      "hit": false,
      "t": 9863.015999999998,
      "d": 102.73975000000064,
      "v": 127
    },
    {
      "midi": 60,
      "hit": false,
      "t": 9863.015999999998,
      "d": 136.9863333333342,
      "v": 127
    },
    {
      "midi": 57,
      "hit": false,
      "t": 9863.015999999998,
      "d": 154.10962500000096,
      "v": 127
    },
    {
      "midi": 64,
      "hit": false,
      "t": 9863.015999999998,
      "d": 154.10962500000096,
      "v": 127
    },
    {
      "midi": 88,
      "hit": false,
      "t": 10068.495499999999,
      "d": 119.86304166666741,
      "v": 127
    },
    {
      "midi": 84,
      "hit": false,
      "t": 10171.23525,
      "d": 85.61645833333387,
      "v": 127
    },
    {
      "midi": 81,
      "hit": false,
      "t": 10273.975,
      "d": 102.73975000000064,
      "v": 127
    },
    {
      "midi": 84,
      "hit": false,
      "t": 10479.454500000002,
      "d": 85.61645833333387,
      "v": 127
    },
    {
      "midi": 57,
      "hit": false,
      "t": 10479.454500000002,
      "d": 496.5754583333364,
      "v": 127
    },
    {
      "midi": 60,
      "hit": false,
      "t": 10479.454500000002,
      "d": 496.5754583333364,
      "v": 127
    },
    {
      "midi": 64,
      "hit": false,
      "t": 10479.454500000002,
      "d": 496.5754583333364,
      "v": 127
    },
    {
      "midi": 45,
      "hit": false,
      "t": 10479.454500000002,
      "d": 547.9453333333367,
      "v": 127
    },
    {
      "midi": 88,
      "hit": false,
      "t": 10684.934000000003,
      "d": 119.86304166666741,
      "v": 127
    },
    {
      "midi": 84,
      "hit": false,
      "t": 10890.413500000004,
      "d": 68.4931666666671,
      "v": 127
    },
    {
      "midi": 57,
      "hit": false,
      "t": 11095.893000000005,
      "d": 119.86304166666741,
      "v": 127
    },
    {
      "midi": 81,
      "hit": false,
      "t": 11095.893000000005,
      "d": 119.86304166666741,
      "v": 127
    },
    {
      "midi": 60,
      "hit": false,
      "t": 11095.893000000005,
      "d": 154.10962500000096,
      "v": 127
    },
    {
      "midi": 64,
      "hit": false,
      "t": 11095.893000000005,
      "d": 171.23291666666773,
      "v": 127
    },
    {
      "midi": 84,
      "hit": false,
      "t": 11301.372500000007,
      "d": 68.4931666666671,
      "v": 127
    },
    {
      "midi": 50,
      "hit": false,
      "t": 11506.852000000008,
      "d": 68.4931666666671,
      "v": 127
    },
    {
      "midi": 57,
      "hit": false,
      "t": 11506.852000000008,
      "d": 85.61645833333387,
      "v": 127
    },
    {
      "midi": 62,
      "hit": false,
      "t": 11506.852000000008,
      "d": 85.61645833333387,
      "v": 127
    },
    {
      "midi": 66,
      "hit": false,
      "t": 11506.852000000008,
      "d": 85.61645833333387,
      "v": 127
    },
    {
      "midi": 93,
      "hit": false,
      "t": 11506.852000000008,
      "d": 85.61645833333387,
      "v": 127
    },
    {
      "midi": 69,
      "hit": false,
      "t": 11506.852000000008,
      "d": 102.73975000000064,
      "v": 127
    },
    {
      "midi": 93,
      "hit": false,
      "t": 11712.33150000001,
      "d": 85.61645833333387,
      "v": 127
    },
    {
      "midi": 90,
      "hit": false,
      "t": 11815.07125000001,
      "d": 102.73975000000064,
      "v": 127
    },
    {
      "midi": 86,
      "hit": false,
      "t": 11917.81100000001,
      "d": 102.73975000000064,
      "v": 127
    },
    {
      "midi": 90,
      "hit": false,
      "t": 12123.290500000012,
      "d": 68.4931666666671,
      "v": 127
    },
    {
      "midi": 66,
      "hit": false,
      "t": 12123.290500000012,
      "d": 513.6987500000032,
      "v": 127
    },
    {
      "midi": 62,
      "hit": false,
      "t": 12123.290500000012,
      "d": 530.82204166667,
      "v": 127
    },
    {
      "midi": 69,
      "hit": false,
      "t": 12123.290500000012,
      "d": 530.82204166667,
      "v": 127
    },
    {
      "midi": 57,
      "hit": false,
      "t": 12123.290500000012,
      "d": 547.9453333333367,
      "v": 127
    },
    {
      "midi": 50,
      "hit": false,
      "t": 12123.290500000012,
      "d": 599.3152083333371,
      "v": 127
    },
    {
      "midi": 93,
      "hit": false,
      "t": 12328.770000000013,
      "d": 102.73975000000064,
      "v": 127
    },
    {
      "midi": 90,
      "hit": false,
      "t": 12534.249500000014,
      "d": 85.61645833333387,
      "v": 127
    },
    {
      "midi": 62,
      "hit": false,
      "t": 12739.729000000016,
      "d": 34.24658333333355,
      "v": 127
    },
    {
      "midi": 86,
      "hit": false,
      "t": 12739.729000000016,
      "d": 119.86304166666741,
      "v": 127
    },
    {
      "midi": 64,
      "hit": false,
      "t": 12739.729000000016,
      "d": 136.9863333333342,
      "v": 127
    },
    {
      "midi": 69,
      "hit": false,
      "t": 12739.729000000016,
      "d": 188.3562083333345,
      "v": 127
    },
    {
      "midi": 90,
      "hit": false,
      "t": 12945.208500000017,
      "d": 68.4931666666671,
      "v": 127
    },
    {
      "midi": 45,
      "hit": false,
      "t": 13150.688000000018,
      "d": 85.61645833333387,
      "v": 127
    },
    {
      "midi": 57,
      "hit": false,
      "t": 13150.688000000018,
      "d": 85.61645833333387,
      "v": 127
    },
    {
      "midi": 81,
      "hit": false,
      "t": 13150.688000000018,
      "d": 85.61645833333387,
      "v": 127
    },
    {
      "midi": 60,
      "hit": false,
      "t": 13150.688000000018,
      "d": 102.73975000000064,
      "v": 127
    },
    {
      "midi": 64,
      "hit": false,
      "t": 13150.688000000018,
      "d": 102.73975000000064,
      "v": 127
    },
    {
      "midi": 88,
      "hit": false,
      "t": 13356.16750000002,
      "d": 136.9863333333342,
      "v": 127
    },
    {
      "midi": 84,
      "hit": false,
      "t": 13458.90725000002,
      "d": 85.61645833333387,
      "v": 127
    },
    {
      "midi": 81,
      "hit": false,
      "t": 13561.64700000002,
      "d": 102.73975000000064,
      "v": 127
    },
    {
      "midi": 84,
      "hit": false,
      "t": 13767.126500000022,
      "d": 85.61645833333387,
      "v": 127
    },
    {
      "midi": 45,
      "hit": false,
      "t": 13767.126500000022,
      "d": 530.82204166667,
      "v": 127
    },
    {
      "midi": 57,
      "hit": false,
      "t": 13767.126500000022,
      "d": 633.5617916666706,
      "v": 127
    },
    {
      "midi": 60,
      "hit": false,
      "t": 13767.126500000022,
      "d": 667.8083750000042,
      "v": 127
    },
    {
      "midi": 64,
      "hit": false,
      "t": 13767.126500000022,
      "d": 684.9316666666709,
      "v": 127
    },
    {
      "midi": 88,
      "hit": false,
      "t": 13972.606000000023,
      "d": 119.86304166666741,
      "v": 127
    },
    {
      "midi": 84,
      "hit": false,
      "t": 14178.085500000025,
      "d": 85.61645833333387,
      "v": 127
    },
    {
      "midi": 81,
      "hit": false,
      "t": 14383.565000000026,
      "d": 119.86304166666741,
      "v": 127
    },
    {
      "midi": 84,
      "hit": false,
      "t": 14589.044500000027,
      "d": 68.4931666666671,
      "v": 127
    },
    {
      "midi": 56,
      "hit": false,
      "t": 14794.524000000029,
      "d": 17.123291666666773,
      "v": 127
    },
    {
      "midi": 50,
      "hit": false,
      "t": 14794.524000000029,
      "d": 68.4931666666671,
      "v": 127
    },
    {
      "midi": 93,
      "hit": false,
      "t": 14794.524000000029,
      "d": 85.61645833333387,
      "v": 127
    },
    {
      "midi": 57,
      "hit": false,
      "t": 14794.524000000029,
      "d": 102.73975000000064,
      "v": 127
    },
    {
      "midi": 62,
      "hit": false,
      "t": 14794.524000000029,
      "d": 102.73975000000064,
      "v": 127
    },
    {
      "midi": 66,
      "hit": false,
      "t": 14794.524000000029,
      "d": 102.73975000000064,
      "v": 127
    },
    {
      "midi": 69,
      "hit": false,
      "t": 14794.524000000029,
      "d": 102.73975000000064,
      "v": 127
    },
    {
      "midi": 93,
      "hit": false,
      "t": 15000.00350000003,
      "d": 102.73975000000064,
      "v": 127
    },
    {
      "midi": 90,
      "hit": false,
      "t": 15102.74325000003,
      "d": 85.61645833333387,
      "v": 127
    },
    {
      "midi": 86,
      "hit": false,
      "t": 15205.483000000031,
      "d": 85.61645833333387,
      "v": 127
    },
    {
      "midi": 90,
      "hit": false,
      "t": 15410.962500000032,
      "d": 68.4931666666671,
      "v": 127
    },
    {
      "midi": 57,
      "hit": false,
      "t": 15410.962500000032,
      "d": 582.1919166666703,
      "v": 127
    },
    {
      "midi": 50,
      "hit": false,
      "t": 15410.962500000032,
      "d": 616.4385000000038,
      "v": 127
    },
    {
      "midi": 66,
      "hit": false,
      "t": 15410.962500000032,
      "d": 650.6850833333374,
      "v": 127
    },
    {
      "midi": 69,
      "hit": false,
      "t": 15410.962500000032,
      "d": 650.6850833333374,
      "v": 127
    },
    {
      "midi": 62,
      "hit": false,
      "t": 15410.962500000032,
      "d": 667.8083750000042,
      "v": 127
    },
    {
      "midi": 93,
      "hit": false,
      "t": 15616.442000000034,
      "d": 85.61645833333387,
      "v": 127
    },
    {
      "midi": 90,
      "hit": false,
      "t": 15821.921500000035,
      "d": 85.61645833333387,
      "v": 127
    },
    {
      "midi": 86,
      "hit": false,
      "t": 16027.401000000036,
      "d": 119.86304166666741,
      "v": 127
    },
    {
      "midi": 90,
      "hit": false,
      "t": 16232.880500000038,
      "d": 68.4931666666671,
      "v": 127
    },
    {
      "midi": 60,
      "hit": false,
      "t": 16438.360000000037,
      "d": 85.61645833333387,
      "v": 127
    },
    {
      "midi": 81,
      "hit": false,
      "t": 16438.360000000037,
      "d": 85.61645833333387,
      "v": 127
    },
    {
      "midi": 45,
      "hit": false,
      "t": 16438.360000000037,
      "d": 102.73975000000064,
      "v": 127
    },
    {
      "midi": 57,
      "hit": false,
      "t": 16438.360000000037,
      "d": 119.86304166666741,
      "v": 127
    },
    {
      "midi": 64,
      "hit": false,
      "t": 16438.360000000037,
      "d": 119.86304166666741,
      "v": 127
    },
    {
      "midi": 88,
      "hit": false,
      "t": 16643.83950000004,
      "d": 119.86304166666741,
      "v": 127
    },
    {
      "midi": 84,
      "hit": false,
      "t": 16746.57925000004,
      "d": 85.61645833333387,
      "v": 127
    },
    {
      "midi": 81,
      "hit": false,
      "t": 16849.31900000004,
      "d": 85.61645833333387,
      "v": 127
    },
    {
      "midi": 84,
      "hit": false,
      "t": 17054.79850000004,
      "d": 85.61645833333387,
      "v": 127
    },
    {
      "midi": 45,
      "hit": false,
      "t": 17054.79850000004,
      "d": 616.4385000000038,
      "v": 127
    },
    {
      "midi": 57,
      "hit": false,
      "t": 17054.79850000004,
      "d": 633.5617916666706,
      "v": 127
    },
    {
      "midi": 60,
      "hit": false,
      "t": 17054.79850000004,
      "d": 650.6850833333374,
      "v": 127
    },
    {
      "midi": 64,
      "hit": false,
      "t": 17054.79850000004,
      "d": 667.8083750000042,
      "v": 127
    },
    {
      "midi": 88,
      "hit": false,
      "t": 17260.278000000042,
      "d": 119.86304166666741,
      "v": 127
    },
    {
      "midi": 84,
      "hit": false,
      "t": 17465.757500000043,
      "d": 85.61645833333387,
      "v": 127
    },
    {
      "midi": 81,
      "hit": false,
      "t": 17671.237000000045,
      "d": 119.86304166666741,
      "v": 127
    },
    {
      "midi": 84,
      "hit": false,
      "t": 17876.716500000046,
      "d": 68.4931666666671,
      "v": 127
    },
    {
      "midi": 57,
      "hit": false,
      "t": 18082.196000000047,
      "d": 85.61645833333387,
      "v": 127
    },
    {
      "midi": 93,
      "hit": false,
      "t": 18082.196000000047,
      "d": 85.61645833333387,
      "v": 127
    },
    {
      "midi": 50,
      "hit": false,
      "t": 18082.196000000047,
      "d": 102.73975000000064,
      "v": 127
    },
    {
      "midi": 62,
      "hit": false,
      "t": 18082.196000000047,
      "d": 102.73975000000064,
      "v": 127
    },
    {
      "midi": 66,
      "hit": false,
      "t": 18082.196000000047,
      "d": 102.73975000000064,
      "v": 127
    },
    {
      "midi": 69,
      "hit": false,
      "t": 18082.196000000047,
      "d": 119.86304166666741,
      "v": 127
    },
    {
      "midi": 93,
      "hit": false,
      "t": 18287.67550000005,
      "d": 102.73975000000064,
      "v": 127
    },
    {
      "midi": 90,
      "hit": false,
      "t": 18390.41525000005,
      "d": 85.61645833333387,
      "v": 127
    },
    {
      "midi": 86,
      "hit": false,
      "t": 18493.15500000005,
      "d": 102.73975000000064,
      "v": 127
    },
    {
      "midi": 90,
      "hit": false,
      "t": 18698.63450000005,
      "d": 85.61645833333387,
      "v": 127
    },
    {
      "midi": 57,
      "hit": false,
      "t": 18698.63450000005,
      "d": 428.08229166666933,
      "v": 127
    },
    {
      "midi": 50,
      "hit": false,
      "t": 18698.63450000005,
      "d": 513.6987500000032,
      "v": 127
    },
    {
      "midi": 62,
      "hit": false,
      "t": 18698.63450000005,
      "d": 547.9453333333367,
      "v": 127
    },
    {
      "midi": 66,
      "hit": false,
      "t": 18698.63450000005,
      "d": 547.9453333333367,
      "v": 127
    },
    {
      "midi": 69,
      "hit": false,
      "t": 18698.63450000005,
      "d": 547.9453333333367,
      "v": 127
    },
    {
      "midi": 93,
      "hit": false,
      "t": 18904.114000000052,
      "d": 85.61645833333387,
      "v": 127
    },
    {
      "midi": 90,
      "hit": false,
      "t": 19109.593500000054,
      "d": 85.61645833333387,
      "v": 127
    },
    {
      "midi": 86,
      "hit": false,
      "t": 19315.073000000055,
      "d": 102.73975000000064,
      "v": 127
    },
    {
      "midi": 90,
      "hit": false,
      "t": 19520.552500000056,
      "d": 68.4931666666671,
      "v": 127
    },
    {
      "midi": 60,
      "hit": false,
      "t": 19726.032000000057,
      "d": 68.4931666666671,
      "v": 127
    },
    {
      "midi": 45,
      "hit": false,
      "t": 19726.032000000057,
      "d": 85.61645833333387,
      "v": 127
    },
    {
      "midi": 57,
      "hit": false,
      "t": 19726.032000000057,
      "d": 85.61645833333387,
      "v": 127
    },
    {
      "midi": 64,
      "hit": false,
      "t": 19726.032000000057,
      "d": 102.73975000000064,
      "v": 127
    },
    {
      "midi": 81,
      "hit": false,
      "t": 19726.032000000057,
      "d": 102.73975000000064,
      "v": 127
    },
    {
      "midi": 88,
      "hit": false,
      "t": 19931.51150000006,
      "d": 119.86304166666741,
      "v": 127
    },
    {
      "midi": 84,
      "hit": false,
      "t": 20034.25125000006,
      "d": 85.61645833333387,
      "v": 127
    },
    {
      "midi": 81,
      "hit": false,
      "t": 20136.99100000006,
      "d": 102.73975000000064,
      "v": 127
    },
    {
      "midi": 84,
      "hit": false,
      "t": 20342.47050000006,
      "d": 68.4931666666671,
      "v": 127
    },
    {
      "midi": 45,
      "hit": false,
      "t": 20342.47050000006,
      "d": 496.5754583333364,
      "v": 127
    },
    {
      "midi": 57,
      "hit": false,
      "t": 20342.47050000006,
      "d": 599.3152083333371,
      "v": 127
    },
    {
      "midi": 60,
      "hit": false,
      "t": 20342.47050000006,
      "d": 650.6850833333374,
      "v": 127
    },
    {
      "midi": 64,
      "hit": false,
      "t": 20342.47050000006,
      "d": 650.6850833333374,
      "v": 127
    },
    {
      "midi": 88,
      "hit": false,
      "t": 20547.950000000063,
      "d": 119.86304166666741,
      "v": 127
    },
    {
      "midi": 84,
      "hit": false,
      "t": 20753.429500000064,
      "d": 102.73975000000064,
      "v": 127
    },
    {
      "midi": 81,
      "hit": false,
      "t": 20958.909000000065,
      "d": 102.73975000000064,
      "v": 127
    },
    {
      "midi": 84,
      "hit": false,
      "t": 21164.388500000066,
      "d": 68.4931666666671,
      "v": 127
    },
    {
      "midi": 57,
      "hit": false,
      "t": 21369.868000000068,
      "d": 68.4931666666671,
      "v": 127
    },
    {
      "midi": 93,
      "hit": false,
      "t": 21369.868000000068,
      "d": 68.4931666666671,
      "v": 127
    },
    {
      "midi": 50,
      "hit": false,
      "t": 21369.868000000068,
      "d": 85.61645833333387,
      "v": 127
    },
    {
      "midi": 62,
      "hit": false,
      "t": 21369.868000000068,
      "d": 102.73975000000064,
      "v": 127
    },
    {
      "midi": 66,
      "hit": false,
      "t": 21369.868000000068,
      "d": 102.73975000000064,
      "v": 127
    },
    {
      "midi": 69,
      "hit": false,
      "t": 21369.868000000068,
      "d": 102.73975000000064,
      "v": 127
    },
    {
      "midi": 93,
      "hit": false,
      "t": 21575.34750000007,
      "d": 102.73975000000064,
      "v": 127
    },
    {
      "midi": 90,
      "hit": false,
      "t": 21678.08725000007,
      "d": 154.10962500000096,
      "v": 127
    },
    {
      "midi": 86,
      "hit": false,
      "t": 21986.30650000007,
      "d": 102.73975000000064,
      "v": 127
    },
    {
      "midi": 57,
      "hit": false,
      "t": 21986.30650000007,
      "d": 410.95900000000256,
      "v": 127
    },
    {
      "midi": 50,
      "hit": false,
      "t": 21986.30650000007,
      "d": 462.3288750000029,
      "v": 127
    },
    {
      "midi": 66,
      "hit": false,
      "t": 21986.30650000007,
      "d": 496.5754583333364,
      "v": 127
    },
    {
      "midi": 69,
      "hit": false,
      "t": 21986.30650000007,
      "d": 496.5754583333364,
      "v": 127
    },
    {
      "midi": 62,
      "hit": false,
      "t": 21986.30650000007,
      "d": 530.82204166667,
      "v": 127
    },
    {
      "midi": 93,
      "hit": false,
      "t": 22191.786000000073,
      "d": 119.86304166666741,
      "v": 127
    },
    {
      "midi": 90,
      "hit": false,
      "t": 22397.265500000074,
      "d": 85.61645833333387,
      "v": 127
    },
    {
      "midi": 86,
      "hit": false,
      "t": 22602.745000000075,
      "d": 102.73975000000064,
      "v": 127
    },
    {
      "midi": 59,
      "hit": false,
      "t": 22808.224500000077,
      "d": 68.4931666666671,
      "v": 127
    },
    {
      "midi": 90,
      "hit": false,
      "t": 22808.224500000077,
      "d": 68.4931666666671,
      "v": 127
    },
    {
      "midi": 55,
      "hit": false,
      "t": 23013.704000000078,
      "d": 222.60279166666805,
      "v": 127
    },
    {
      "midi": 59,
      "hit": false,
      "t": 23013.704000000078,
      "d": 256.8493750000016,
      "v": 127
    },
    {
      "midi": 62,
      "hit": false,
      "t": 23013.704000000078,
      "d": 256.8493750000016,
      "v": 127
    },
    {
      "midi": 43,
      "hit": false,
      "t": 23013.704000000078,
      "d": 393.8357083333358,
      "v": 127
    },
    {
      "midi": 60,
      "hit": false,
      "t": 23424.66300000008,
      "d": 154.10962500000096,
      "v": 127
    },
    {
      "midi": 62,
      "hit": false,
      "t": 23424.66300000008,
      "d": 154.10962500000096,
      "v": 127
    },
    {
      "midi": 55,
      "hit": false,
      "t": 23424.66300000008,
      "d": 171.23291666666773,
      "v": 127
    },
    {
      "midi": 43,
      "hit": false,
      "t": 23630.14250000008,
      "d": 119.86304166666741,
      "v": 127
    },
    {
      "midi": 55,
      "hit": false,
      "t": 23835.622000000083,
      "d": 85.61645833333387,
      "v": 127
    },
    {
      "midi": 59,
      "hit": false,
      "t": 23835.622000000083,
      "d": 85.61645833333387,
      "v": 127
    },
    {
      "midi": 62,
      "hit": false,
      "t": 23835.622000000083,
      "d": 85.61645833333387,
      "v": 127
    },
    {
      "midi": 59,
      "hit": false,
      "t": 24041.101500000084,
      "d": 136.9863333333342,
      "v": 127
    },
    {
      "midi": 55,
      "hit": false,
      "t": 24041.101500000084,
      "d": 154.10962500000096,
      "v": 127
    },
    {
      "midi": 62,
      "hit": false,
      "t": 24041.101500000084,
      "d": 154.10962500000096,
      "v": 127
    },
    {
      "midi": 43,
      "hit": false,
      "t": 24246.581000000086,
      "d": 68.4931666666671,
      "v": 127
    },
    {
      "midi": 55,
      "hit": false,
      "t": 24452.060500000087,
      "d": 428.08229166666933,
      "v": 127
    },
    {
      "midi": 59,
      "hit": false,
      "t": 24452.060500000087,
      "d": 462.3288750000029,
      "v": 127
    },
    {
      "midi": 62,
      "hit": false,
      "t": 24452.060500000087,
      "d": 462.3288750000029,
      "v": 127
    },
    {
      "midi": 43,
      "hit": false,
      "t": 24863.01950000009,
      "d": 102.73975000000064,
      "v": 127
    },
    {
      "midi": 62,
      "hit": false,
      "t": 25068.49900000009,
      "d": 68.4931666666671,
      "v": 127
    },
    {
      "midi": 55,
      "hit": false,
      "t": 25068.49900000009,
      "d": 85.61645833333387,
      "v": 127
    },
    {
      "midi": 57,
      "hit": false,
      "t": 25273.978500000092,
      "d": 239.72608333333483,
      "v": 127
    },
    {
      "midi": 62,
      "hit": false,
      "t": 25273.978500000092,
      "d": 273.9726666666684,
      "v": 127
    },
    {
      "midi": 43,
      "hit": false,
      "t": 25479.458000000093,
      "d": 85.61645833333387,
      "v": 127
    },
    {
      "midi": 55,
      "hit": false,
      "t": 25684.937500000095,
      "d": 102.73975000000064,
      "v": 127
    },
    {
      "midi": 55,
      "hit": false,
      "t": 25890.417000000096,
      "d": 171.23291666666773,
      "v": 127
    },
    {
      "midi": 59,
      "hit": false,
      "t": 25890.417000000096,
      "d": 239.72608333333483,
      "v": 127
    },
    {
      "midi": 62,
      "hit": false,
      "t": 25890.417000000096,
      "d": 239.72608333333483,
      "v": 127
    },
    {
      "midi": 43,
      "hit": false,
      "t": 26095.896500000097,
      "d": 68.4931666666671,
      "v": 127
    },
    {
      "midi": 55,
      "hit": false,
      "t": 26301.3760000001,
      "d": 273.9726666666684,
      "v": 127
    },
    {
      "midi": 62,
      "hit": false,
      "t": 26301.3760000001,
      "d": 291.09595833333515,
      "v": 127
    },
    {
      "midi": 59,
      "hit": false,
      "t": 26301.3760000001,
      "d": 308.2192500000019,
      "v": 127
    },
    {
      "midi": 60,
      "hit": false,
      "t": 26712.3350000001,
      "d": 136.9863333333342,
      "v": 127
    },
    {
      "midi": 55,
      "hit": false,
      "t": 26712.3350000001,
      "d": 154.10962500000096,
      "v": 127
    },
    {
      "midi": 62,
      "hit": false,
      "t": 26712.3350000001,
      "d": 154.10962500000096,
      "v": 127
    },
    {
      "midi": 43,
      "hit": false,
      "t": 26917.814500000102,
      "d": 51.36987500000032,
      "v": 127
    },
    {
      "midi": 59,
      "hit": false,
      "t": 27123.294000000104,
      "d": 68.4931666666671,
      "v": 127
    },
    {
      "midi": 55,
      "hit": false,
      "t": 27123.294000000104,
      "d": 85.61645833333387,
      "v": 127
    },
    {
      "midi": 62,
      "hit": false,
      "t": 27123.294000000104,
      "d": 102.73975000000064,
      "v": 127
    },
    {
      "midi": 55,
      "hit": false,
      "t": 27328.773500000105,
      "d": 222.60279166666805,
      "v": 127
    },
    {
      "midi": 59,
      "hit": false,
      "t": 27328.773500000105,
      "d": 222.60279166666805,
      "v": 127
    },
    {
      "midi": 62,
      "hit": false,
      "t": 27328.773500000105,
      "d": 256.8493750000016,
      "v": 127
    },
    {
      "midi": 43,
      "hit": false,
      "t": 27534.253000000106,
      "d": 68.4931666666671,
      "v": 127
    },
    {
      "midi": 55,
      "hit": false,
      "t": 27739.732500000107,
      "d": 428.0822916666657,
      "v": 127
    },
    {
      "midi": 59,
      "hit": false,
      "t": 27739.732500000107,
      "d": 445.20558333333247,
      "v": 127
    },
    {
      "midi": 62,
      "hit": false,
      "t": 27739.732500000107,
      "d": 445.20558333333247,
      "v": 127
    },
    {
      "midi": 43,
      "hit": false,
      "t": 28150.691500000106,
      "d": 85.61645833333387,
      "v": 127
    },
    {
      "midi": 55,
      "hit": false,
      "t": 28356.171000000108,
      "d": 102.73975000000064,
      "v": 127
    },
    {
      "midi": 59,
      "hit": false,
      "t": 28356.171000000108,
      "d": 102.73975000000064,
      "v": 127
    },
    {
      "midi": 62,
      "hit": false,
      "t": 28356.171000000108,
      "d": 119.86304166666741,
      "v": 127
    },
    {
      "midi": 55,
      "hit": false,
      "t": 28561.65050000011,
      "d": 205.47950000000128,
      "v": 127
    },
    {
      "midi": 60,
      "hit": false,
      "t": 28561.65050000011,
      "d": 205.47950000000128,
      "v": 127
    },
    {
      "midi": 62,
      "hit": false,
      "t": 28561.65050000011,
      "d": 222.60279166666805,
      "v": 127
    },
    {
      "midi": 43,
      "hit": false,
      "t": 28767.13000000011,
      "d": 51.36987500000032,
      "v": 127
    },
    {
      "midi": 55,
      "hit": false,
      "t": 28972.60950000011,
      "d": 239.72608333333483,
      "v": 127
    },
    {
      "midi": 60,
      "hit": false,
      "t": 28972.60950000011,
      "d": 239.72608333333483,
      "v": 127
    },
    {
      "midi": 62,
      "hit": false,
      "t": 28972.60950000011,
      "d": 239.72608333333483,
      "v": 127
    },
    {
      "midi": 43,
      "hit": false,
      "t": 29178.089000000113,
      "d": 85.61645833333387,
      "v": 127
    },
    {
      "midi": 60,
      "hit": false,
      "t": 29383.568500000114,
      "d": 68.4931666666671,
      "v": 127
    },
    {
      "midi": 55,
      "hit": false,
      "t": 29383.568500000114,
      "d": 102.73975000000064,
      "v": 127
    },
    {
      "midi": 62,
      "hit": false,
      "t": 29383.568500000114,
      "d": 119.86304166666741,
      "v": 127
    },
    {
      "midi": 55,
      "hit": false,
      "t": 29589.048000000115,
      "d": 256.8493750000016,
      "v": 127
    },
    {
      "midi": 43,
      "hit": false,
      "t": 29589.048000000115,
      "d": 273.9726666666684,
      "v": 127
    },
    {
      "midi": 59,
      "hit": false,
      "t": 29589.048000000115,
      "d": 291.09595833333515,
      "v": 127
    },
    {
      "midi": 62,
      "hit": false,
      "t": 29589.048000000115,
      "d": 291.09595833333515,
      "v": 127
    },
    {
      "midi": 55,
      "hit": false,
      "t": 30000.007000000118,
      "d": 205.47950000000128,
      "v": 127
    },
    {
      "midi": 60,
      "hit": false,
      "t": 30000.007000000118,
      "d": 222.60279166666805,
      "v": 127
    },
    {
      "midi": 62,
      "hit": false,
      "t": 30000.007000000118,
      "d": 239.72608333333483,
      "v": 127
    },
    {
      "midi": 43,
      "hit": false,
      "t": 30205.48650000012,
      "d": 85.61645833333387,
      "v": 127
    },
    {
      "midi": 55,
      "hit": false,
      "t": 30410.96600000012,
      "d": 85.61645833333387,
      "v": 127
    },
    {
      "midi": 59,
      "hit": false,
      "t": 30410.96600000012,
      "d": 85.61645833333387,
      "v": 127
    },
    {
      "midi": 62,
      "hit": false,
      "t": 30410.96600000012,
      "d": 102.73975000000064,
      "v": 127
    },
    {
      "midi": 55,
      "hit": false,
      "t": 30616.44550000012,
      "d": 222.60279166666805,
      "v": 127
    },
    {
      "midi": 59,
      "hit": false,
      "t": 30616.44550000012,
      "d": 222.60279166666805,
      "v": 127
    },
    {
      "midi": 62,
      "hit": false,
      "t": 30616.44550000012,
      "d": 239.72608333333483,
      "v": 127
    },
    {
      "midi": 43,
      "hit": false,
      "t": 30821.925000000123,
      "d": 68.4931666666671,
      "v": 127
    },
    {
      "midi": 55,
      "hit": false,
      "t": 31027.404500000124,
      "d": 256.8493750000016,
      "v": 127
    },
    {
      "midi": 59,
      "hit": false,
      "t": 31027.404500000124,
      "d": 273.9726666666684,
      "v": 127
    },
    {
      "midi": 62,
      "hit": false,
      "t": 31027.404500000124,
      "d": 273.9726666666684,
      "v": 127
    },
    {
      "midi": 55,
      "hit": false,
      "t": 31438.363500000127,
      "d": 256.8493750000016,
      "v": 127
    },
    {
      "midi": 59,
      "hit": false,
      "t": 31438.363500000127,
      "d": 273.9726666666684,
      "v": 127
    },
    {
      "midi": 62,
      "hit": false,
      "t": 31438.363500000127,
      "d": 291.09595833333515,
      "v": 127
    },
    {
      "midi": 43,
      "hit": false,
      "t": 31643.843000000128,
      "d": 102.73975000000064,
      "v": 127
    },
    {
      "midi": 60,
      "hit": false,
      "t": 31849.32250000013,
      "d": 273.9726666666684,
      "v": 127
    },
    {
      "midi": 55,
      "hit": false,
      "t": 31849.32250000013,
      "d": 291.09595833333515,
      "v": 127
    },
    {
      "midi": 62,
      "hit": false,
      "t": 31849.32250000013,
      "d": 291.09595833333515,
      "v": 127
    },
    {
      "midi": 43,
      "hit": false,
      "t": 32054.80200000013,
      "d": 85.61645833333387,
      "v": 127
    },
    {
      "midi": 55,
      "hit": false,
      "t": 32260.281500000132,
      "d": 256.8493750000016,
      "v": 127
    },
    {
      "midi": 57,
      "hit": false,
      "t": 32260.281500000132,
      "d": 256.8493750000016,
      "v": 127
    },
    {
      "midi": 62,
      "hit": false,
      "t": 32260.281500000132,
      "d": 273.9726666666684,
      "v": 127
    },
    {
      "midi": 43,
      "hit": false,
      "t": 32465.761000000133,
      "d": 68.4931666666671,
      "v": 127
    },
    {
      "midi": 55,
      "hit": false,
      "t": 32671.240500000134,
      "d": 68.4931666666671,
      "v": 127
    },
    {
      "midi": 57,
      "hit": false,
      "t": 32671.240500000134,
      "d": 68.4931666666671,
      "v": 127
    },
    {
      "midi": 62,
      "hit": false,
      "t": 32671.240500000134,
      "d": 102.739749999997,
      "v": 127
    },
    {
      "midi": 43,
      "hit": false,
      "t": 32876.72000000013,
      "d": 188.35620833333087,
      "v": 127
    },
    {
      "midi": 55,
      "hit": false,
      "t": 32876.72000000013,
      "d": 308.21924999999464,
      "v": 127
    },
    {
      "midi": 59,
      "hit": false,
      "t": 32876.72000000013,
      "d": 308.21924999999464,
      "v": 127
    },
    {
      "midi": 62,
      "hit": false,
      "t": 32876.72000000013,
      "d": 325.3425416666578,
      "v": 127
    },
    {
      "midi": 55,
      "hit": false,
      "t": 33287.67900000012,
      "d": 239.72608333332755,
      "v": 127
    },
    {
      "midi": 60,
      "hit": false,
      "t": 33287.67900000012,
      "d": 239.72608333332755,
      "v": 127
    },
    {
      "midi": 62,
      "hit": false,
      "t": 33287.67900000012,
      "d": 256.8493749999907,
      "v": 127
    },
    {
      "midi": 43,
      "hit": false,
      "t": 33493.158500000114,
      "d": 85.61645833333023,
      "v": 127
    },
    {
      "midi": 55,
      "hit": false,
      "t": 33698.63800000011,
      "d": 85.61645833333023,
      "v": 127
    },
    {
      "midi": 59,
      "hit": false,
      "t": 33698.63800000011,
      "d": 85.61645833333023,
      "v": 127
    },
    {
      "midi": 62,
      "hit": false,
      "t": 33698.63800000011,
      "d": 102.73974999999336,
      "v": 127
    },
    {
      "midi": 55,
      "hit": false,
      "t": 33904.117500000095,
      "d": 102.73975000000064,
      "v": 127
    },
    {
      "midi": 59,
      "hit": false,
      "t": 33904.117500000095,
      "d": 102.73975000000064,
      "v": 127
    },
    {
      "midi": 62,
      "hit": false,
      "t": 33904.117500000095,
      "d": 119.86304166666378,
      "v": 127
    },
    {
      "midi": 55,
      "hit": false,
      "t": 34109.59700000009,
      "d": 256.84937499999796,
      "v": 127
    },
    {
      "midi": 60,
      "hit": false,
      "t": 34109.59700000009,
      "d": 256.84937499999796,
      "v": 127
    },
    {
      "midi": 62,
      "hit": false,
      "t": 34109.59700000009,
      "d": 256.84937499999796,
      "v": 127
    },
    {
      "midi": 43,
      "hit": false,
      "t": 34520.556000000084,
      "d": 136.9863333333342,
      "v": 127
    },
    {
      "midi": 55,
      "hit": false,
      "t": 34520.556000000084,
      "d": 136.9863333333342,
      "v": 127
    },
    {
      "midi": 59,
      "hit": false,
      "t": 34520.556000000084,
      "d": 136.9863333333342,
      "v": 127
    },
    {
      "midi": 62,
      "hit": false,
      "t": 34520.556000000084,
      "d": 154.10962499999732,
      "v": 127
    },
    {
      "midi": 81,
      "hit": false,
      "t": 36164.39200000008,
      "d": 85.61645833333023,
      "v": 127
    },
    {
      "midi": 45,
      "hit": false,
      "t": 36164.39200000008,
      "d": 102.73974999999336,
      "v": 127
    },
    {
      "midi": 60,
      "hit": false,
      "t": 36164.39200000008,
      "d": 136.9863333333269,
      "v": 127
    },
    {
      "midi": 57,
      "hit": false,
      "t": 36164.39200000008,
      "d": 154.10962499999005,
      "v": 127
    },
    {
      "midi": 64,
      "hit": false,
      "t": 36164.39200000008,
      "d": 154.10962499999005,
      "v": 127
    },
    {
      "midi": 88,
      "hit": false,
      "t": 36369.87150000007,
      "d": 119.86304166666378,
      "v": 127
    },
    {
      "midi": 84,
      "hit": false,
      "t": 36472.61125000007,
      "d": 85.61645833333023,
      "v": 127
    },
    {
      "midi": 81,
      "hit": false,
      "t": 36575.35100000006,
      "d": 102.73975000000064,
      "v": 127
    },
    {
      "midi": 84,
      "hit": false,
      "t": 36780.83050000006,
      "d": 85.61645833333023,
      "v": 127
    },
    {
      "midi": 57,
      "hit": false,
      "t": 36780.83050000006,
      "d": 496.57545833331824,
      "v": 127
    },
    {
      "midi": 60,
      "hit": false,
      "t": 36780.83050000006,
      "d": 496.57545833331824,
      "v": 127
    },
    {
      "midi": 64,
      "hit": false,
      "t": 36780.83050000006,
      "d": 496.57545833331824,
      "v": 127
    },
    {
      "midi": 45,
      "hit": false,
      "t": 36780.83050000006,
      "d": 547.9453333333149,
      "v": 127
    },
    {
      "midi": 88,
      "hit": false,
      "t": 36986.310000000056,
      "d": 119.86304166666378,
      "v": 127
    },
    {
      "midi": 84,
      "hit": false,
      "t": 37191.78950000005,
      "d": 68.4931666666671,
      "v": 127
    },
    {
      "midi": 57,
      "hit": false,
      "t": 37397.269000000044,
      "d": 119.86304166666378,
      "v": 127
    },
    {
      "midi": 81,
      "hit": false,
      "t": 37397.269000000044,
      "d": 119.86304166666378,
      "v": 127
    },
    {
      "midi": 60,
      "hit": false,
      "t": 37397.269000000044,
      "d": 154.10962499999732,
      "v": 127
    },
    {
      "midi": 64,
      "hit": false,
      "t": 37397.269000000044,
      "d": 171.23291666666046,
      "v": 127
    },
    {
      "midi": 84,
      "hit": false,
      "t": 37602.74850000004,
      "d": 68.4931666666671,
      "v": 127
    },
    {
      "midi": 50,
      "hit": false,
      "t": 37808.22800000004,
      "d": 68.4931666666671,
      "v": 127
    },
    {
      "midi": 57,
      "hit": false,
      "t": 37808.22800000004,
      "d": 85.61645833333023,
      "v": 127
    },
    {
      "midi": 62,
      "hit": false,
      "t": 37808.22800000004,
      "d": 85.61645833333023,
      "v": 127
    },
    {
      "midi": 66,
      "hit": false,
      "t": 37808.22800000004,
      "d": 85.61645833333023,
      "v": 127
    },
    {
      "midi": 93,
      "hit": false,
      "t": 37808.22800000004,
      "d": 85.61645833333023,
      "v": 127
    },
    {
      "midi": 69,
      "hit": false,
      "t": 37808.22800000004,
      "d": 102.73974999999336,
      "v": 127
    },
    {
      "midi": 93,
      "hit": false,
      "t": 38013.70750000003,
      "d": 85.61645833333023,
      "v": 127
    },
    {
      "midi": 90,
      "hit": false,
      "t": 38116.44725000003,
      "d": 102.73975000000064,
      "v": 127
    },
    {
      "midi": 86,
      "hit": false,
      "t": 38219.18700000003,
      "d": 102.73975000000064,
      "v": 127
    },
    {
      "midi": 90,
      "hit": false,
      "t": 38424.66650000003,
      "d": 68.4931666666671,
      "v": 127
    },
    {
      "midi": 66,
      "hit": false,
      "t": 38424.66650000003,
      "d": 513.6987499999959,
      "v": 127
    },
    {
      "midi": 62,
      "hit": false,
      "t": 38424.66650000003,
      "d": 530.8220416666591,
      "v": 127
    },
    {
      "midi": 69,
      "hit": false,
      "t": 38424.66650000003,
      "d": 530.8220416666591,
      "v": 127
    },
    {
      "midi": 57,
      "hit": false,
      "t": 38424.66650000003,
      "d": 547.9453333333222,
      "v": 127
    },
    {
      "midi": 50,
      "hit": false,
      "t": 38424.66650000003,
      "d": 599.3152083333189,
      "v": 127
    },
    {
      "midi": 93,
      "hit": false,
      "t": 38630.14600000003,
      "d": 102.73975000000064,
      "v": 127
    },
    {
      "midi": 90,
      "hit": false,
      "t": 38835.62550000003,
      "d": 85.61645833333023,
      "v": 127
    },
    {
      "midi": 62,
      "hit": false,
      "t": 39041.10500000001,
      "d": 34.24658333333355,
      "v": 127
    },
    {
      "midi": 86,
      "hit": false,
      "t": 39041.10500000001,
      "d": 119.86304166666378,
      "v": 127
    },
    {
      "midi": 64,
      "hit": false,
      "t": 39041.10500000001,
      "d": 136.9863333333269,
      "v": 127
    },
    {
      "midi": 69,
      "hit": false,
      "t": 39041.10500000001,
      "d": 188.3562083333236,
      "v": 127
    },
    {
      "midi": 90,
      "hit": false,
      "t": 39246.5845,
      "d": 68.4931666666671,
      "v": 127
    },
    {
      "midi": 45,
      "hit": false,
      "t": 39452.064,
      "d": 85.61645833333023,
      "v": 127
    },
    {
      "midi": 57,
      "hit": false,
      "t": 39452.064,
      "d": 85.61645833333023,
      "v": 127
    },
    {
      "midi": 81,
      "hit": false,
      "t": 39452.064,
      "d": 85.61645833333023,
      "v": 127
    },
    {
      "midi": 60,
      "hit": false,
      "t": 39452.064,
      "d": 102.73974999999336,
      "v": 127
    },
    {
      "midi": 64,
      "hit": false,
      "t": 39452.064,
      "d": 102.73974999999336,
      "v": 127
    },
    {
      "midi": 88,
      "hit": false,
      "t": 39657.54349999999,
      "d": 136.9863333333342,
      "v": 127
    },
    {
      "midi": 84,
      "hit": false,
      "t": 39760.28324999999,
      "d": 85.61645833333023,
      "v": 127
    },
    {
      "midi": 81,
      "hit": false,
      "t": 39863.02299999999,
      "d": 102.73975000000064,
      "v": 127
    },
    {
      "midi": 84,
      "hit": false,
      "t": 40068.50249999999,
      "d": 85.61645833333023,
      "v": 127
    },
    {
      "midi": 45,
      "hit": false,
      "t": 40068.50249999999,
      "d": 530.8220416666518,
      "v": 127
    },
    {
      "midi": 57,
      "hit": false,
      "t": 40068.50249999999,
      "d": 633.5617916666451,
      "v": 127
    },
    {
      "midi": 60,
      "hit": false,
      "t": 40068.50249999999,
      "d": 667.8083749999787,
      "v": 127
    },
    {
      "midi": 64,
      "hit": false,
      "t": 40068.50249999999,
      "d": 684.9316666666418,
      "v": 127
    },
    {
      "midi": 88,
      "hit": false,
      "t": 40273.98199999998,
      "d": 119.86304166666378,
      "v": 127
    },
    {
      "midi": 84,
      "hit": false,
      "t": 40479.461499999976,
      "d": 85.61645833333023,
      "v": 127
    },
    {
      "midi": 81,
      "hit": false,
      "t": 40684.94099999997,
      "d": 119.8630416666565,
      "v": 127
    },
    {
      "midi": 84,
      "hit": false,
      "t": 40890.42049999996,
      "d": 68.4931666666671,
      "v": 127
    },
    {
      "midi": 56,
      "hit": false,
      "t": 41095.89999999996,
      "d": 17.123291666663135,
      "v": 127
    },
    {
      "midi": 50,
      "hit": false,
      "t": 41095.89999999996,
      "d": 68.49316666665982,
      "v": 127
    },
    {
      "midi": 93,
      "hit": false,
      "t": 41095.89999999996,
      "d": 85.61645833332295,
      "v": 127
    },
    {
      "midi": 57,
      "hit": false,
      "t": 41095.89999999996,
      "d": 102.73974999998609,
      "v": 127
    },
    {
      "midi": 62,
      "hit": false,
      "t": 41095.89999999996,
      "d": 102.73974999998609,
      "v": 127
    },
    {
      "midi": 66,
      "hit": false,
      "t": 41095.89999999996,
      "d": 102.73974999998609,
      "v": 127
    },
    {
      "midi": 69,
      "hit": false,
      "t": 41095.89999999996,
      "d": 102.73974999998609,
      "v": 127
    },
    {
      "midi": 93,
      "hit": false,
      "t": 41301.379499999945,
      "d": 102.73975000000064,
      "v": 127
    },
    {
      "midi": 90,
      "hit": false,
      "t": 41404.119249999945,
      "d": 85.61645833333023,
      "v": 127
    },
    {
      "midi": 86,
      "hit": false,
      "t": 41506.85899999994,
      "d": 85.61645833333023,
      "v": 127
    },
    {
      "midi": 90,
      "hit": false,
      "t": 41712.33849999993,
      "d": 68.4931666666671,
      "v": 127
    },
    {
      "midi": 57,
      "hit": false,
      "t": 41712.33849999993,
      "d": 582.1919166666557,
      "v": 127
    },
    {
      "midi": 50,
      "hit": false,
      "t": 41712.33849999993,
      "d": 616.4384999999893,
      "v": 127
    },
    {
      "midi": 66,
      "hit": false,
      "t": 41712.33849999993,
      "d": 650.6850833333228,
      "v": 127
    },
    {
      "midi": 69,
      "hit": false,
      "t": 41712.33849999993,
      "d": 650.6850833333228,
      "v": 127
    },
    {
      "midi": 62,
      "hit": false,
      "t": 41712.33849999993,
      "d": 667.808374999986,
      "v": 127
    },
    {
      "midi": 93,
      "hit": false,
      "t": 41917.817999999934,
      "d": 85.61645833333023,
      "v": 127
    },
    {
      "midi": 90,
      "hit": false,
      "t": 42123.29749999993,
      "d": 85.61645833333023,
      "v": 127
    },
    {
      "midi": 86,
      "hit": false,
      "t": 42328.77699999992,
      "d": 119.86304166666378,
      "v": 127
    },
    {
      "midi": 90,
      "hit": false,
      "t": 42534.256499999916,
      "d": 68.4931666666671,
      "v": 127
    },
    {
      "midi": 60,
      "hit": false,
      "t": 42739.73599999992,
      "d": 85.61645833333023,
      "v": 127
    },
    {
      "midi": 81,
      "hit": false,
      "t": 42739.73599999992,
      "d": 85.61645833333023,
      "v": 127
    },
    {
      "midi": 45,
      "hit": false,
      "t": 42739.73599999992,
      "d": 102.73974999999336,
      "v": 127
    },
    {
      "midi": 57,
      "hit": false,
      "t": 42739.73599999992,
      "d": 119.8630416666565,
      "v": 127
    },
    {
      "midi": 64,
      "hit": false,
      "t": 42739.73599999992,
      "d": 119.8630416666565,
      "v": 127
    },
    {
      "midi": 88,
      "hit": false,
      "t": 42945.215499999904,
      "d": 119.86304166666378,
      "v": 127
    },
    {
      "midi": 84,
      "hit": false,
      "t": 43047.955249999904,
      "d": 85.61645833333023,
      "v": 127
    },
    {
      "midi": 81,
      "hit": false,
      "t": 43150.6949999999,
      "d": 85.61645833333023,
      "v": 127
    },
    {
      "midi": 84,
      "hit": false,
      "t": 43356.17449999989,
      "d": 85.61645833333023,
      "v": 127
    },
    {
      "midi": 45,
      "hit": false,
      "t": 43356.17449999989,
      "d": 616.438499999982,
      "v": 127
    },
    {
      "midi": 57,
      "hit": false,
      "t": 43356.17449999989,
      "d": 633.5617916666451,
      "v": 127
    },
    {
      "midi": 60,
      "hit": false,
      "t": 43356.17449999989,
      "d": 650.6850833333083,
      "v": 127
    },
    {
      "midi": 64,
      "hit": false,
      "t": 43356.17449999989,
      "d": 667.8083749999714,
      "v": 127
    },
    {
      "midi": 88,
      "hit": false,
      "t": 43561.653999999886,
      "d": 119.86304166666378,
      "v": 127
    },
    {
      "midi": 84,
      "hit": false,
      "t": 43767.13349999988,
      "d": 85.61645833333023,
      "v": 127
    },
    {
      "midi": 81,
      "hit": false,
      "t": 43972.612999999874,
      "d": 119.8630416666565,
      "v": 127
    },
    {
      "midi": 84,
      "hit": false,
      "t": 44178.09249999986,
      "d": 68.4931666666671,
      "v": 127
    },
    {
      "midi": 57,
      "hit": false,
      "t": 44383.57199999986,
      "d": 85.61645833333023,
      "v": 127
    },
    {
      "midi": 93,
      "hit": false,
      "t": 44383.57199999986,
      "d": 85.61645833333023,
      "v": 127
    },
    {
      "midi": 50,
      "hit": false,
      "t": 44383.57199999986,
      "d": 102.73974999999336,
      "v": 127
    },
    {
      "midi": 62,
      "hit": false,
      "t": 44383.57199999986,
      "d": 102.73974999999336,
      "v": 127
    },
    {
      "midi": 66,
      "hit": false,
      "t": 44383.57199999986,
      "d": 102.73974999999336,
      "v": 127
    },
    {
      "midi": 69,
      "hit": false,
      "t": 44383.57199999986,
      "d": 119.8630416666565,
      "v": 127
    },
    {
      "midi": 93,
      "hit": false,
      "t": 44589.05149999985,
      "d": 102.73975000000064,
      "v": 127
    },
    {
      "midi": 90,
      "hit": false,
      "t": 44691.79124999985,
      "d": 85.61645833333023,
      "v": 127
    },
    {
      "midi": 86,
      "hit": false,
      "t": 44794.53099999984,
      "d": 102.73975000000064,
      "v": 127
    },
    {
      "midi": 90,
      "hit": false,
      "t": 45000.010499999844,
      "d": 85.61645833333023,
      "v": 127
    },
    {
      "midi": 57,
      "hit": false,
      "t": 45000.010499999844,
      "d": 428.08229166665114,
      "v": 127
    },
    {
      "midi": 50,
      "hit": false,
      "t": 45000.010499999844,
      "d": 513.6987499999814,
      "v": 127
    },
    {
      "midi": 62,
      "hit": false,
      "t": 45000.010499999844,
      "d": 547.9453333333149,
      "v": 127
    },
    {
      "midi": 66,
      "hit": false,
      "t": 45000.010499999844,
      "d": 547.9453333333149,
      "v": 127
    },
    {
      "midi": 69,
      "hit": false,
      "t": 45000.010499999844,
      "d": 547.9453333333149,
      "v": 127
    },
    {
      "midi": 93,
      "hit": false,
      "t": 45205.48999999984,
      "d": 85.61645833333023,
      "v": 127
    },
    {
      "midi": 90,
      "hit": false,
      "t": 45410.96949999983,
      "d": 85.61645833333023,
      "v": 127
    },
    {
      "midi": 86,
      "hit": false,
      "t": 45616.448999999826,
      "d": 102.73975000000064,
      "v": 127
    },
    {
      "midi": 90,
      "hit": false,
      "t": 45821.92849999983,
      "d": 68.4931666666671,
      "v": 127
    },
    {
      "midi": 60,
      "hit": false,
      "t": 46027.40799999983,
      "d": 68.4931666666671,
      "v": 127
    },
    {
      "midi": 45,
      "hit": false,
      "t": 46027.40799999983,
      "d": 85.61645833333023,
      "v": 127
    },
    {
      "midi": 57,
      "hit": false,
      "t": 46027.40799999983,
      "d": 85.61645833333023,
      "v": 127
    },
    {
      "midi": 64,
      "hit": false,
      "t": 46027.40799999983,
      "d": 102.73974999999336,
      "v": 127
    },
    {
      "midi": 81,
      "hit": false,
      "t": 46027.40799999983,
      "d": 102.73974999999336,
      "v": 127
    },
    {
      "midi": 88,
      "hit": false,
      "t": 46232.88749999982,
      "d": 119.86304166666378,
      "v": 127
    },
    {
      "midi": 84,
      "hit": false,
      "t": 46335.62724999982,
      "d": 85.61645833333023,
      "v": 127
    },
    {
      "midi": 81,
      "hit": false,
      "t": 46438.36699999982,
      "d": 102.73975000000064,
      "v": 127
    },
    {
      "midi": 84,
      "hit": false,
      "t": 46643.84649999982,
      "d": 68.4931666666671,
      "v": 127
    },
    {
      "midi": 45,
      "hit": false,
      "t": 46643.84649999982,
      "d": 496.5754583333255,
      "v": 127
    },
    {
      "midi": 57,
      "hit": false,
      "t": 46643.84649999982,
      "d": 599.3152083333189,
      "v": 127
    },
    {
      "midi": 60,
      "hit": false,
      "t": 46643.84649999982,
      "d": 650.6850833333156,
      "v": 127
    },
    {
      "midi": 64,
      "hit": false,
      "t": 46643.84649999982,
      "d": 650.6850833333156,
      "v": 127
    },
    {
      "midi": 88,
      "hit": false,
      "t": 46849.32599999982,
      "d": 119.86304166666378,
      "v": 127
    },
    {
      "midi": 84,
      "hit": false,
      "t": 47054.80549999981,
      "d": 102.73974999999336,
      "v": 127
    },
    {
      "midi": 81,
      "hit": false,
      "t": 47260.2849999998,
      "d": 102.73975000000064,
      "v": 127
    },
    {
      "midi": 84,
      "hit": false,
      "t": 47465.7644999998,
      "d": 68.4931666666671,
      "v": 127
    },
    {
      "midi": 57,
      "hit": false,
      "t": 47671.2439999998,
      "d": 68.4931666666671,
      "v": 127
    },
    {
      "midi": 93,
      "hit": false,
      "t": 47671.2439999998,
      "d": 68.4931666666671,
      "v": 127
    },
    {
      "midi": 50,
      "hit": false,
      "t": 47671.2439999998,
      "d": 85.61645833333023,
      "v": 127
    },
    {
      "midi": 62,
      "hit": false,
      "t": 47671.2439999998,
      "d": 102.73974999999336,
      "v": 127
    },
    {
      "midi": 66,
      "hit": false,
      "t": 47671.2439999998,
      "d": 102.73974999999336,
      "v": 127
    },
    {
      "midi": 69,
      "hit": false,
      "t": 47671.2439999998,
      "d": 102.73974999999336,
      "v": 127
    },
    {
      "midi": 93,
      "hit": false,
      "t": 47876.723499999796,
      "d": 102.73975000000064,
      "v": 127
    },
    {
      "midi": 90,
      "hit": false,
      "t": 47979.4632499998,
      "d": 154.10962499999732,
      "v": 127
    },
    {
      "midi": 86,
      "hit": false,
      "t": 48287.68249999979,
      "d": 102.73975000000064,
      "v": 127
    },
    {
      "midi": 57,
      "hit": false,
      "t": 48287.68249999979,
      "d": 410.9589999999953,
      "v": 127
    },
    {
      "midi": 50,
      "hit": false,
      "t": 48287.68249999979,
      "d": 462.32887499999197,
      "v": 127
    },
    {
      "midi": 66,
      "hit": false,
      "t": 48287.68249999979,
      "d": 496.5754583333255,
      "v": 127
    },
    {
      "midi": 69,
      "hit": false,
      "t": 48287.68249999979,
      "d": 496.5754583333255,
      "v": 127
    },
    {
      "midi": 62,
      "hit": false,
      "t": 48287.68249999979,
      "d": 530.8220416666591,
      "v": 127
    },
    {
      "midi": 93,
      "hit": false,
      "t": 48493.16199999979,
      "d": 119.86304166666378,
      "v": 127
    },
    {
      "midi": 90,
      "hit": false,
      "t": 48698.64149999979,
      "d": 85.61645833333023,
      "v": 127
    },
    {
      "midi": 86,
      "hit": false,
      "t": 48904.12099999978,
      "d": 102.73975000000064,
      "v": 127
    },
    {
      "midi": 59,
      "hit": false,
      "t": 49109.60049999978,
      "d": 68.4931666666671,
      "v": 127
    },
    {
      "midi": 90,
      "hit": false,
      "t": 49109.60049999978,
      "d": 68.4931666666671,
      "v": 127
    },
    {
      "midi": 55,
      "hit": false,
      "t": 49315.07999999978,
      "d": 222.60279166666442,
      "v": 127
    },
    {
      "midi": 59,
      "hit": false,
      "t": 49315.07999999978,
      "d": 256.84937499999796,
      "v": 127
    },
    {
      "midi": 62,
      "hit": false,
      "t": 49315.07999999978,
      "d": 256.84937499999796,
      "v": 127
    },
    {
      "midi": 43,
      "hit": false,
      "t": 49315.07999999978,
      "d": 393.83570833333215,
      "v": 127
    },
    {
      "midi": 60,
      "hit": false,
      "t": 49726.03899999978,
      "d": 154.10962499999732,
      "v": 127
    },
    {
      "midi": 62,
      "hit": false,
      "t": 49726.03899999978,
      "d": 154.10962499999732,
      "v": 127
    },
    {
      "midi": 55,
      "hit": false,
      "t": 49726.03899999978,
      "d": 171.23291666666046,
      "v": 127
    },
    {
      "midi": 43,
      "hit": false,
      "t": 49931.51849999977,
      "d": 119.86304166666378,
      "v": 127
    },
    {
      "midi": 55,
      "hit": false,
      "t": 50136.99799999977,
      "d": 85.61645833333023,
      "v": 127
    },
    {
      "midi": 59,
      "hit": false,
      "t": 50136.99799999977,
      "d": 85.61645833333023,
      "v": 127
    },
    {
      "midi": 62,
      "hit": false,
      "t": 50136.99799999977,
      "d": 85.61645833333023,
      "v": 127
    },
    {
      "midi": 59,
      "hit": false,
      "t": 50342.47749999976,
      "d": 136.9863333333342,
      "v": 127
    },
    {
      "midi": 55,
      "hit": false,
      "t": 50342.47749999976,
      "d": 154.10962499999732,
      "v": 127
    },
    {
      "midi": 62,
      "hit": false,
      "t": 50342.47749999976,
      "d": 154.10962499999732,
      "v": 127
    },
    {
      "midi": 43,
      "hit": false,
      "t": 50547.956999999755,
      "d": 68.4931666666671,
      "v": 127
    },
    {
      "midi": 55,
      "hit": false,
      "t": 50753.436499999756,
      "d": 428.0822916666657,
      "v": 127
    },
    {
      "midi": 59,
      "hit": false,
      "t": 50753.436499999756,
      "d": 462.32887499999924,
      "v": 127
    },
    {
      "midi": 62,
      "hit": false,
      "t": 50753.436499999756,
      "d": 462.32887499999924,
      "v": 127
    },
    {
      "midi": 43,
      "hit": false,
      "t": 51164.39549999976,
      "d": 102.73974999999336,
      "v": 127
    },
    {
      "midi": 62,
      "hit": false,
      "t": 51369.87499999975,
      "d": 68.4931666666671,
      "v": 127
    },
    {
      "midi": 55,
      "hit": false,
      "t": 51369.87499999975,
      "d": 85.61645833333023,
      "v": 127
    },
    {
      "midi": 57,
      "hit": false,
      "t": 51575.35449999975,
      "d": 239.72608333333483,
      "v": 127
    },
    {
      "midi": 62,
      "hit": false,
      "t": 51575.35449999975,
      "d": 273.9726666666684,
      "v": 127
    },
    {
      "midi": 43,
      "hit": false,
      "t": 51780.83399999975,
      "d": 85.61645833333023,
      "v": 127
    },
    {
      "midi": 55,
      "hit": false,
      "t": 51986.31349999974,
      "d": 102.73975000000064,
      "v": 127
    },
    {
      "midi": 55,
      "hit": false,
      "t": 52191.79299999974,
      "d": 171.23291666666773,
      "v": 127
    },
    {
      "midi": 59,
      "hit": false,
      "t": 52191.79299999974,
      "d": 239.72608333332755,
      "v": 127
    },
    {
      "midi": 62,
      "hit": false,
      "t": 52191.79299999974,
      "d": 239.72608333332755,
      "v": 127
    },
    {
      "midi": 43,
      "hit": false,
      "t": 52397.27249999974,
      "d": 68.4931666666671,
      "v": 127
    },
    {
      "midi": 55,
      "hit": false,
      "t": 52602.75199999974,
      "d": 273.9726666666684,
      "v": 127
    },
    {
      "midi": 62,
      "hit": false,
      "t": 52602.75199999974,
      "d": 291.0959583333315,
      "v": 127
    },
    {
      "midi": 59,
      "hit": false,
      "t": 52602.75199999974,
      "d": 308.21924999999464,
      "v": 127
    },
    {
      "midi": 60,
      "hit": false,
      "t": 53013.710999999734,
      "d": 136.9863333333342,
      "v": 127
    },
    {
      "midi": 55,
      "hit": false,
      "t": 53013.710999999734,
      "d": 154.10962499999732,
      "v": 127
    },
    {
      "midi": 62,
      "hit": false,
      "t": 53013.710999999734,
      "d": 154.10962499999732,
      "v": 127
    },
    {
      "midi": 43,
      "hit": false,
      "t": 53219.19049999973,
      "d": 51.36987499999668,
      "v": 127
    },
    {
      "midi": 59,
      "hit": false,
      "t": 53424.66999999972,
      "d": 68.4931666666671,
      "v": 127
    },
    {
      "midi": 55,
      "hit": false,
      "t": 53424.66999999972,
      "d": 85.61645833333023,
      "v": 127
    },
    {
      "midi": 62,
      "hit": false,
      "t": 53424.66999999972,
      "d": 102.73974999999336,
      "v": 127
    },
    {
      "midi": 55,
      "hit": false,
      "t": 53630.149499999716,
      "d": 222.60279166666442,
      "v": 127
    },
    {
      "midi": 59,
      "hit": false,
      "t": 53630.149499999716,
      "d": 222.60279166666442,
      "v": 127
    },
    {
      "midi": 62,
      "hit": false,
      "t": 53630.149499999716,
      "d": 256.84937499999796,
      "v": 127
    },
    {
      "midi": 43,
      "hit": false,
      "t": 53835.62899999972,
      "d": 68.49316666665982,
      "v": 127
    },
    {
      "midi": 55,
      "hit": false,
      "t": 54041.10849999971,
      "d": 428.0822916666657,
      "v": 127
    },
    {
      "midi": 59,
      "hit": false,
      "t": 54041.10849999971,
      "d": 445.20558333332883,
      "v": 127
    },
    {
      "midi": 62,
      "hit": false,
      "t": 54041.10849999971,
      "d": 445.20558333332883,
      "v": 127
    },
    {
      "midi": 43,
      "hit": false,
      "t": 54452.06749999971,
      "d": 85.61645833332295,
      "v": 127
    },
    {
      "midi": 55,
      "hit": false,
      "t": 54657.5469999997,
      "d": 102.73975000000064,
      "v": 127
    },
    {
      "midi": 59,
      "hit": false,
      "t": 54657.5469999997,
      "d": 102.73975000000064,
      "v": 127
    },
    {
      "midi": 62,
      "hit": false,
      "t": 54657.5469999997,
      "d": 119.86304166666378,
      "v": 127
    },
    {
      "midi": 55,
      "hit": false,
      "t": 54863.026499999694,
      "d": 205.47950000000128,
      "v": 127
    },
    {
      "midi": 60,
      "hit": false,
      "t": 54863.026499999694,
      "d": 205.47950000000128,
      "v": 127
    },
    {
      "midi": 62,
      "hit": false,
      "t": 54863.026499999694,
      "d": 222.60279166666442,
      "v": 127
    },
    {
      "midi": 43,
      "hit": false,
      "t": 55068.505999999696,
      "d": 51.36987499999668,
      "v": 127
    },
    {
      "midi": 55,
      "hit": false,
      "t": 55273.98549999969,
      "d": 222.60279166666442,
      "v": 127
    },
    {
      "midi": 60,
      "hit": false,
      "t": 55273.98549999969,
      "d": 239.72608333332755,
      "v": 127
    },
    {
      "midi": 62,
      "hit": false,
      "t": 55273.98549999969,
      "d": 239.72608333332755,
      "v": 127
    },
    {
      "midi": 43,
      "hit": false,
      "t": 55479.46499999969,
      "d": 85.61645833332295,
      "v": 127
    },
    {
      "midi": 60,
      "hit": false,
      "t": 55684.94449999968,
      "d": 68.4931666666671,
      "v": 127
    },
    {
      "midi": 55,
      "hit": false,
      "t": 55684.94449999968,
      "d": 102.73975000000064,
      "v": 127
    },
    {
      "midi": 62,
      "hit": false,
      "t": 55684.94449999968,
      "d": 119.86304166666378,
      "v": 127
    },
    {
      "midi": 55,
      "hit": false,
      "t": 55890.42399999967,
      "d": 256.84937499999796,
      "v": 127
    },
    {
      "midi": 43,
      "hit": false,
      "t": 55890.42399999967,
      "d": 273.9726666666611,
      "v": 127
    },
    {
      "midi": 59,
      "hit": false,
      "t": 55890.42399999967,
      "d": 291.09595833332423,
      "v": 127
    },
    {
      "midi": 62,
      "hit": false,
      "t": 55890.42399999967,
      "d": 291.09595833332423,
      "v": 127
    },
    {
      "midi": 55,
      "hit": false,
      "t": 56301.38299999966,
      "d": 205.47950000000128,
      "v": 127
    },
    {
      "midi": 60,
      "hit": false,
      "t": 56301.38299999966,
      "d": 222.60279166666442,
      "v": 127
    },
    {
      "midi": 62,
      "hit": false,
      "t": 56301.38299999966,
      "d": 239.72608333332755,
      "v": 127
    },
    {
      "midi": 43,
      "hit": false,
      "t": 56506.86249999966,
      "d": 85.61645833332295,
      "v": 127
    },
    {
      "midi": 55,
      "hit": false,
      "t": 56712.34199999965,
      "d": 85.61645833333023,
      "v": 127
    },
    {
      "midi": 59,
      "hit": false,
      "t": 56712.34199999965,
      "d": 85.61645833333023,
      "v": 127
    },
    {
      "midi": 62,
      "hit": false,
      "t": 56712.34199999965,
      "d": 102.73974999999336,
      "v": 127
    },
    {
      "midi": 55,
      "hit": false,
      "t": 56917.82149999964,
      "d": 222.60279166666442,
      "v": 127
    },
    {
      "midi": 59,
      "hit": false,
      "t": 56917.82149999964,
      "d": 222.60279166666442,
      "v": 127
    },
    {
      "midi": 62,
      "hit": false,
      "t": 56917.82149999964,
      "d": 239.72608333332755,
      "v": 127
    },
    {
      "midi": 43,
      "hit": false,
      "t": 57123.30099999964,
      "d": 68.49316666665982,
      "v": 127
    },
    {
      "midi": 55,
      "hit": false,
      "t": 57328.78049999964,
      "d": 256.84937499999796,
      "v": 127
    },
    {
      "midi": 59,
      "hit": false,
      "t": 57328.78049999964,
      "d": 273.9726666666611,
      "v": 127
    },
    {
      "midi": 62,
      "hit": false,
      "t": 57328.78049999964,
      "d": 273.9726666666611,
      "v": 127
    },
    {
      "midi": 55,
      "hit": false,
      "t": 57739.73949999963,
      "d": 256.84937499999796,
      "v": 127
    },
    {
      "midi": 59,
      "hit": false,
      "t": 57739.73949999963,
      "d": 273.9726666666611,
      "v": 127
    },
    {
      "midi": 62,
      "hit": false,
      "t": 57739.73949999963,
      "d": 291.09595833332423,
      "v": 127
    },
    {
      "midi": 43,
      "hit": false,
      "t": 57945.21899999963,
      "d": 102.73974999998609,
      "v": 127
    },
    {
      "midi": 60,
      "hit": false,
      "t": 58150.69849999962,
      "d": 273.9726666666611,
      "v": 127
    },
    {
      "midi": 55,
      "hit": false,
      "t": 58150.69849999962,
      "d": 291.09595833332423,
      "v": 127
    },
    {
      "midi": 62,
      "hit": false,
      "t": 58150.69849999962,
      "d": 291.09595833332423,
      "v": 127
    },
    {
      "midi": 43,
      "hit": false,
      "t": 58356.177999999614,
      "d": 85.61645833333023,
      "v": 127
    },
    {
      "midi": 55,
      "hit": false,
      "t": 58561.65749999961,
      "d": 256.84937499999796,
      "v": 127
    },
    {
      "midi": 57,
      "hit": false,
      "t": 58561.65749999961,
      "d": 256.84937499999796,
      "v": 127
    },
    {
      "midi": 62,
      "hit": false,
      "t": 58561.65749999961,
      "d": 273.9726666666611,
      "v": 127
    },
    {
      "midi": 43,
      "hit": false,
      "t": 58767.13699999961,
      "d": 68.49316666665982,
      "v": 127
    },
    {
      "midi": 55,
      "hit": false,
      "t": 58972.6164999996,
      "d": 68.4931666666671,
      "v": 127
    },
    {
      "midi": 57,
      "hit": false,
      "t": 58972.6164999996,
      "d": 68.4931666666671,
      "v": 127
    },
    {
      "midi": 62,
      "hit": false,
      "t": 58972.6164999996,
      "d": 102.73975000000064,
      "v": 127
    },
    {
      "midi": 43,
      "hit": false,
      "t": 59178.095999999605,
      "d": 188.35620833333087,
      "v": 127
    },
    {
      "midi": 55,
      "hit": false,
      "t": 59178.095999999605,
      "d": 308.21924999999464,
      "v": 127
    },
    {
      "midi": 59,
      "hit": false,
      "t": 59178.095999999605,
      "d": 308.21924999999464,
      "v": 127
    },
    {
      "midi": 62,
      "hit": false,
      "t": 59178.095999999605,
      "d": 325.3425416666578,
      "v": 127
    },
    {
      "midi": 55,
      "hit": false,
      "t": 59589.05499999959,
      "d": 239.72608333332755,
      "v": 127
    },
    {
      "midi": 60,
      "hit": false,
      "t": 59589.05499999959,
      "d": 239.72608333332755,
      "v": 127
    },
    {
      "midi": 62,
      "hit": false,
      "t": 59589.05499999959,
      "d": 256.8493749999907,
      "v": 127
    },
    {
      "midi": 43,
      "hit": false,
      "t": 59794.53449999959,
      "d": 85.61645833333023,
      "v": 127
    },
    {
      "midi": 55,
      "hit": false,
      "t": 60000.01399999958,
      "d": 85.61645833333023,
      "v": 127
    },
    {
      "midi": 59,
      "hit": false,
      "t": 60000.01399999958,
      "d": 85.61645833333023,
      "v": 127
    },
    {
      "midi": 62,
      "hit": false,
      "t": 60000.01399999958,
      "d": 102.73974999999336,
      "v": 127
    },
    {
      "midi": 55,
      "hit": false,
      "t": 60205.49349999957,
      "d": 102.73975000000064,
      "v": 127
    },
    {
      "midi": 59,
      "hit": false,
      "t": 60205.49349999957,
      "d": 102.73975000000064,
      "v": 127
    },
    {
      "midi": 62,
      "hit": false,
      "t": 60205.49349999957,
      "d": 119.86304166666378,
      "v": 127
    },
    {
      "midi": 55,
      "hit": false,
      "t": 60410.97299999956,
      "d": 256.84937499999796,
      "v": 127
    },
    {
      "midi": 60,
      "hit": false,
      "t": 60410.97299999956,
      "d": 256.84937499999796,
      "v": 127
    },
    {
      "midi": 62,
      "hit": false,
      "t": 60410.97299999956,
      "d": 256.84937499999796,
      "v": 127
    },
    {
      "midi": 43,
      "hit": false,
      "t": 60821.93199999956,
      "d": 136.9863333333342,
      "v": 127
    },
    {
      "midi": 55,
      "hit": false,
      "t": 60821.93199999956,
      "d": 136.9863333333342,
      "v": 127
    },
    {
      "midi": 59,
      "hit": false,
      "t": 60821.93199999956,
      "d": 136.9863333333342,
      "v": 127
    },
    {
      "midi": 62,
      "hit": false,
      "t": 60821.93199999956,
      "d": 154.10962499999732,
      "v": 127
    },
    {
      "midi": 48,
      "hit": false,
      "t": 62465.76799999955,
      "d": 34.24658333333355,
      "v": 106
    },
    {
      "midi": 55,
      "hit": false,
      "t": 62465.76799999955,
      "d": 68.4931666666671,
      "v": 127
    },
    {
      "midi": 60,
      "hit": false,
      "t": 62465.76799999955,
      "d": 68.4931666666671,
      "v": 127
    },
    {
      "midi": 64,
      "hit": false,
      "t": 62465.76799999955,
      "d": 85.61645833333023,
      "v": 120
    },
    {
      "midi": 88,
      "hit": false,
      "t": 62465.76799999955,
      "d": 119.86304166666378,
      "v": 127
    },
    {
      "midi": 55,
      "hit": false,
      "t": 62671.24749999955,
      "d": 51.36987499999668,
      "v": 102
    },
    {
      "midi": 60,
      "hit": false,
      "t": 62671.24749999955,
      "d": 51.36987499999668,
      "v": 113
    },
    {
      "midi": 64,
      "hit": false,
      "t": 62671.24749999955,
      "d": 68.49316666665982,
      "v": 106
    },
    {
      "midi": 96,
      "hit": false,
      "t": 62671.24749999955,
      "d": 119.8630416666565,
      "v": 127
    },
    {
      "midi": 48,
      "hit": false,
      "t": 62773.98724999954,
      "d": 34.24658333332627,
      "v": 127
    },
    {
      "midi": 91,
      "hit": false,
      "t": 62773.98724999954,
      "d": 85.61645833332295,
      "v": 127
    },
    {
      "midi": 60,
      "hit": false,
      "t": 62876.726999999526,
      "d": 34.24658333333355,
      "v": 108
    },
    {
      "midi": 64,
      "hit": false,
      "t": 62876.726999999526,
      "d": 51.36987499999668,
      "v": 105
    },
    {
      "midi": 88,
      "hit": false,
      "t": 62876.726999999526,
      "d": 102.73974999999336,
      "v": 127
    },
    {
      "midi": 91,
      "hit": false,
      "t": 63082.20649999952,
      "d": 102.73975000000064,
      "v": 127
    },
    {
      "midi": 55,
      "hit": false,
      "t": 63082.20649999952,
      "d": 410.95900000000256,
      "v": 127
    },
    {
      "midi": 60,
      "hit": false,
      "t": 63082.20649999952,
      "d": 410.95900000000256,
      "v": 127
    },
    {
      "midi": 64,
      "hit": false,
      "t": 63082.20649999952,
      "d": 410.95900000000256,
      "v": 123
    },
    {
      "midi": 96,
      "hit": false,
      "t": 63287.68599999952,
      "d": 102.73975000000064,
      "v": 127
    },
    {
      "midi": 48,
      "hit": false,
      "t": 63493.16549999952,
      "d": 85.61645833333023,
      "v": 126
    },
    {
      "midi": 91,
      "hit": false,
      "t": 63493.16549999952,
      "d": 102.73974999999336,
      "v": 127
    },
    {
      "midi": 88,
      "hit": false,
      "t": 63698.64499999952,
      "d": 119.86304166666378,
      "v": 127
    },
    {
      "midi": 55,
      "hit": false,
      "t": 63698.64499999952,
      "d": 256.8493749999907,
      "v": 115
    },
    {
      "midi": 60,
      "hit": false,
      "t": 63698.64499999952,
      "d": 256.8493749999907,
      "v": 123
    },
    {
      "midi": 64,
      "hit": false,
      "t": 63698.64499999952,
      "d": 256.8493749999907,
      "v": 116
    },
    {
      "midi": 48,
      "hit": false,
      "t": 63904.12449999951,
      "d": 85.61645833333023,
      "v": 120
    },
    {
      "midi": 91,
      "hit": false,
      "t": 63904.12449999951,
      "d": 85.61645833333023,
      "v": 127
    },
    {
      "midi": 55,
      "hit": false,
      "t": 64109.603999999505,
      "d": 85.61645833333023,
      "v": 118
    },
    {
      "midi": 60,
      "hit": false,
      "t": 64109.603999999505,
      "d": 85.61645833333023,
      "v": 126
    },
    {
      "midi": 64,
      "hit": false,
      "t": 64109.603999999505,
      "d": 102.73974999999336,
      "v": 120
    },
    {
      "midi": 88,
      "hit": false,
      "t": 64109.603999999505,
      "d": 102.73974999999336,
      "v": 127
    },
    {
      "midi": 55,
      "hit": false,
      "t": 64315.0834999995,
      "d": 51.36987499999668,
      "v": 99
    },
    {
      "midi": 60,
      "hit": false,
      "t": 64315.0834999995,
      "d": 51.36987499999668,
      "v": 114
    },
    {
      "midi": 64,
      "hit": false,
      "t": 64315.0834999995,
      "d": 68.49316666665982,
      "v": 107
    },
    {
      "midi": 96,
      "hit": false,
      "t": 64315.0834999995,
      "d": 136.9863333333269,
      "v": 127
    },
    {
      "midi": 48,
      "hit": false,
      "t": 64417.82324999949,
      "d": 68.4931666666671,
      "v": 123
    },
    {
      "midi": 91,
      "hit": false,
      "t": 64417.82324999949,
      "d": 85.61645833333023,
      "v": 127
    },
    {
      "midi": 55,
      "hit": false,
      "t": 64520.562999999485,
      "d": 51.36987499999668,
      "v": 113
    },
    {
      "midi": 60,
      "hit": false,
      "t": 64520.562999999485,
      "d": 51.36987499999668,
      "v": 126
    },
    {
      "midi": 64,
      "hit": false,
      "t": 64520.562999999485,
      "d": 68.49316666665982,
      "v": 116
    },
    {
      "midi": 88,
      "hit": false,
      "t": 64520.562999999485,
      "d": 102.73974999999336,
      "v": 127
    },
    {
      "midi": 91,
      "hit": false,
      "t": 64726.04249999948,
      "d": 102.73975000000064,
      "v": 127
    },
    {
      "midi": 55,
      "hit": false,
      "t": 64726.04249999948,
      "d": 410.95900000000256,
      "v": 126
    },
    {
      "midi": 60,
      "hit": false,
      "t": 64726.04249999948,
      "d": 410.95900000000256,
      "v": 127
    },
    {
      "midi": 64,
      "hit": false,
      "t": 64726.04249999948,
      "d": 410.95900000000256,
      "v": 126
    },
    {
      "midi": 96,
      "hit": false,
      "t": 64931.52199999948,
      "d": 102.73975000000064,
      "v": 127
    },
    {
      "midi": 91,
      "hit": false,
      "t": 65137.00149999948,
      "d": 85.61645833333023,
      "v": 127
    },
    {
      "midi": 48,
      "hit": false,
      "t": 65137.00149999948,
      "d": 102.73974999999336,
      "v": 127
    },
    {
      "midi": 60,
      "hit": false,
      "t": 65342.480999999476,
      "d": 68.4931666666671,
      "v": 126
    },
    {
      "midi": 55,
      "hit": false,
      "t": 65342.480999999476,
      "d": 85.61645833333023,
      "v": 114
    },
    {
      "midi": 64,
      "hit": false,
      "t": 65342.480999999476,
      "d": 85.61645833333023,
      "v": 116
    },
    {
      "midi": 88,
      "hit": false,
      "t": 65342.480999999476,
      "d": 102.73974999999336,
      "v": 127
    },
    {
      "midi": 55,
      "hit": false,
      "t": 65547.96049999946,
      "d": 68.4931666666671,
      "v": 119
    },
    {
      "midi": 60,
      "hit": false,
      "t": 65547.96049999946,
      "d": 68.4931666666671,
      "v": 127
    },
    {
      "midi": 64,
      "hit": false,
      "t": 65547.96049999946,
      "d": 85.61645833333023,
      "v": 120
    },
    {
      "midi": 91,
      "hit": false,
      "t": 65547.96049999946,
      "d": 85.61645833333023,
      "v": 127
    },
    {
      "midi": 88,
      "hit": false,
      "t": 65753.43999999946,
      "d": 85.61645833333023,
      "v": 127
    },
    {
      "midi": 55,
      "hit": false,
      "t": 65753.43999999946,
      "d": 102.73974999999336,
      "v": 123
    },
    {
      "midi": 60,
      "hit": false,
      "t": 65753.43999999946,
      "d": 119.8630416666565,
      "v": 127
    },
    {
      "midi": 64,
      "hit": false,
      "t": 65753.43999999946,
      "d": 119.8630416666565,
      "v": 123
    },
    {
      "midi": 55,
      "hit": false,
      "t": 65958.91949999945,
      "d": 34.24658333332627,
      "v": 93
    },
    {
      "midi": 60,
      "hit": false,
      "t": 65958.91949999945,
      "d": 51.369874999989406,
      "v": 106
    },
    {
      "midi": 64,
      "hit": false,
      "t": 65958.91949999945,
      "d": 51.369874999989406,
      "v": 97
    },
    {
      "midi": 88,
      "hit": false,
      "t": 65958.91949999945,
      "d": 102.73974999999336,
      "v": 127
    },
    {
      "midi": 48,
      "hit": false,
      "t": 66061.65924999944,
      "d": 51.36987500000396,
      "v": 127
    },
    {
      "midi": 91,
      "hit": false,
      "t": 66061.65924999944,
      "d": 119.86304166667105,
      "v": 127
    },
    {
      "midi": 96,
      "hit": false,
      "t": 66061.65924999944,
      "d": 154.10962499999732,
      "v": 127
    },
    {
      "midi": 55,
      "hit": false,
      "t": 66164.39899999945,
      "d": 51.369874999989406,
      "v": 111
    },
    {
      "midi": 60,
      "hit": false,
      "t": 66164.39899999945,
      "d": 51.369874999989406,
      "v": 125
    },
    {
      "midi": 64,
      "hit": false,
      "t": 66164.39899999945,
      "d": 51.369874999989406,
      "v": 111
    },
    {
      "midi": 91,
      "hit": false,
      "t": 66369.87849999944,
      "d": 119.86304166667105,
      "v": 127
    },
    {
      "midi": 55,
      "hit": false,
      "t": 66369.87849999944,
      "d": 410.95900000000256,
      "v": 127
    },
    {
      "midi": 60,
      "hit": false,
      "t": 66369.87849999944,
      "d": 410.95900000000256,
      "v": 127
    },
    {
      "midi": 64,
      "hit": false,
      "t": 66369.87849999944,
      "d": 410.95900000000256,
      "v": 126
    },
    {
      "midi": 88,
      "hit": false,
      "t": 66575.35799999944,
      "d": 119.86304166667105,
      "v": 127
    },
    {
      "midi": 48,
      "hit": false,
      "t": 66780.83749999944,
      "d": 85.61645833333023,
      "v": 127
    },
    {
      "midi": 96,
      "hit": false,
      "t": 66780.83749999944,
      "d": 102.73974999999336,
      "v": 127
    },
    {
      "midi": 91,
      "hit": false,
      "t": 66986.31699999943,
      "d": 119.86304166667105,
      "v": 127
    },
    {
      "midi": 55,
      "hit": false,
      "t": 66986.31699999943,
      "d": 205.47950000000128,
      "v": 119
    },
    {
      "midi": 60,
      "hit": false,
      "t": 66986.31699999943,
      "d": 222.60279166666442,
      "v": 126
    },
    {
      "midi": 64,
      "hit": false,
      "t": 66986.31699999943,
      "d": 222.60279166666442,
      "v": 120
    },
    {
      "midi": 48,
      "hit": false,
      "t": 67191.79649999943,
      "d": 51.369874999989406,
      "v": 109
    },
    {
      "midi": 88,
      "hit": false,
      "t": 67191.79649999943,
      "d": 85.61645833331568,
      "v": 127
    },
    {
      "midi": 55,
      "hit": false,
      "t": 67397.27599999942,
      "d": 68.4931666666671,
      "v": 123
    },
    {
      "midi": 60,
      "hit": false,
      "t": 67397.27599999942,
      "d": 68.4931666666671,
      "v": 127
    },
    {
      "midi": 88,
      "hit": false,
      "t": 67397.27599999942,
      "d": 85.61645833333023,
      "v": 127
    },
    {
      "midi": 64,
      "hit": false,
      "t": 67397.27599999942,
      "d": 102.73974999999336,
      "v": 122
    },
    {
      "midi": 60,
      "hit": false,
      "t": 67602.7554999994,
      "d": 34.24658333332627,
      "v": 106
    },
    {
      "midi": 64,
      "hit": false,
      "t": 67602.7554999994,
      "d": 51.369874999989406,
      "v": 100
    },
    {
      "midi": 88,
      "hit": false,
      "t": 67602.7554999994,
      "d": 102.73974999999336,
      "v": 127
    },
    {
      "midi": 48,
      "hit": false,
      "t": 67705.4952499994,
      "d": 68.4931666666671,
      "v": 127
    },
    {
      "midi": 91,
      "hit": false,
      "t": 67705.4952499994,
      "d": 119.8630416666565,
      "v": 127
    },
    {
      "midi": 55,
      "hit": false,
      "t": 67808.23499999939,
      "d": 51.369874999989406,
      "v": 114
    },
    {
      "midi": 60,
      "hit": false,
      "t": 67808.23499999939,
      "d": 51.369874999989406,
      "v": 125
    },
    {
      "midi": 64,
      "hit": false,
      "t": 67808.23499999939,
      "d": 51.369874999989406,
      "v": 113
    },
    {
      "midi": 96,
      "hit": false,
      "t": 67808.23499999939,
      "d": 154.10962499998277,
      "v": 127
    },
    {
      "midi": 91,
      "hit": false,
      "t": 68013.71449999938,
      "d": 102.73974999999336,
      "v": 127
    },
    {
      "midi": 55,
      "hit": false,
      "t": 68013.71449999938,
      "d": 462.32887499999197,
      "v": 126
    },
    {
      "midi": 60,
      "hit": false,
      "t": 68013.71449999938,
      "d": 462.32887499999197,
      "v": 127
    },
    {
      "midi": 64,
      "hit": false,
      "t": 68013.71449999938,
      "d": 462.32887499999197,
      "v": 127
    },
    {
      "midi": 88,
      "hit": false,
      "t": 68219.19399999936,
      "d": 119.86304166667105,
      "v": 127
    },
    {
      "midi": 48,
      "hit": false,
      "t": 68424.67349999936,
      "d": 85.61645833333023,
      "v": 127
    },
    {
      "midi": 91,
      "hit": false,
      "t": 68424.67349999936,
      "d": 119.8630416666565,
      "v": 127
    },
    {
      "midi": 96,
      "hit": false,
      "t": 68630.15299999935,
      "d": 136.9863333333342,
      "v": 127
    },
    {
      "midi": 55,
      "hit": false,
      "t": 68630.15299999935,
      "d": 188.35620833333815,
      "v": 119
    },
    {
      "midi": 60,
      "hit": false,
      "t": 68630.15299999935,
      "d": 188.35620833333815,
      "v": 127
    },
    {
      "midi": 64,
      "hit": false,
      "t": 68630.15299999935,
      "d": 188.35620833333815,
      "v": 125
    },
    {
      "midi": 43,
      "hit": false,
      "t": 68835.63249999935,
      "d": 68.4931666666671,
      "v": 127
    },
    {
      "midi": 91,
      "hit": false,
      "t": 68835.63249999935,
      "d": 102.73974999999336,
      "v": 127
    },
    {
      "midi": 59,
      "hit": false,
      "t": 69041.11199999934,
      "d": 102.73974999999336,
      "v": 127
    },
    {
      "midi": 55,
      "hit": false,
      "t": 69041.11199999934,
      "d": 119.8630416666565,
      "v": 123
    },
    {
      "midi": 95,
      "hit": false,
      "t": 69041.11199999934,
      "d": 119.8630416666565,
      "v": 127
    },
    {
      "midi": 62,
      "hit": false,
      "t": 69041.11199999934,
      "d": 136.98633333331964,
      "v": 122
    },
    {
      "midi": 59,
      "hit": false,
      "t": 69246.59149999933,
      "d": 34.24658333332627,
      "v": 102
    },
    {
      "midi": 91,
      "hit": false,
      "t": 69246.59149999933,
      "d": 68.49316666665254,
      "v": 127
    },
    {
      "midi": 43,
      "hit": false,
      "t": 69349.3312499993,
      "d": 68.4931666666671,
      "v": 127
    },
    {
      "midi": 86,
      "hit": false,
      "t": 69349.3312499993,
      "d": 136.9863333333342,
      "v": 127
    },
    {
      "midi": 91,
      "hit": false,
      "t": 69657.5504999993,
      "d": 85.61645833333023,
      "v": 127
    },
    {
      "midi": 55,
      "hit": false,
      "t": 69657.5504999993,
      "d": 445.20558333332883,
      "v": 122
    },
    {
      "midi": 62,
      "hit": false,
      "t": 69657.5504999993,
      "d": 445.20558333332883,
      "v": 115
    },
    {
      "midi": 59,
      "hit": false,
      "t": 69657.5504999993,
      "d": 462.32887499999197,
      "v": 127
    },
    {
      "midi": 95,
      "hit": false,
      "t": 69863.0299999993,
      "d": 119.86304166667105,
      "v": 127
    },
    {
      "midi": 43,
      "hit": false,
      "t": 70068.5094999993,
      "d": 68.49316666665254,
      "v": 127
    },
    {
      "midi": 91,
      "hit": false,
      "t": 70068.5094999993,
      "d": 85.61645833331568,
      "v": 127
    },
    {
      "midi": 55,
      "hit": false,
      "t": 70273.98899999929,
      "d": 102.73974999999336,
      "v": 111
    },
    {
      "midi": 59,
      "hit": false,
      "t": 70273.98899999929,
      "d": 102.73974999999336,
      "v": 125
    },
    {
      "midi": 86,
      "hit": false,
      "t": 70273.98899999929,
      "d": 102.73974999999336,
      "v": 127
    },
    {
      "midi": 62,
      "hit": false,
      "t": 70273.98899999929,
      "d": 119.8630416666565,
      "v": 115
    },
    {
      "midi": 59,
      "hit": false,
      "t": 70479.46849999928,
      "d": 68.4931666666671,
      "v": 120
    },
    {
      "midi": 55,
      "hit": false,
      "t": 70479.46849999928,
      "d": 85.61645833333023,
      "v": 106
    },
    {
      "midi": 62,
      "hit": false,
      "t": 70479.46849999928,
      "d": 85.61645833333023,
      "v": 113
    },
    {
      "midi": 91,
      "hit": false,
      "t": 70479.46849999928,
      "d": 85.61645833333023,
      "v": 127
    },
    {
      "midi": 43,
      "hit": false,
      "t": 70684.94799999928,
      "d": 68.4931666666671,
      "v": 127
    },
    {
      "midi": 86,
      "hit": false,
      "t": 70684.94799999928,
      "d": 68.4931666666671,
      "v": 127
    },
    {
      "midi": 55,
      "hit": false,
      "t": 70684.94799999928,
      "d": 85.61645833333023,
      "v": 119
    },
    {
      "midi": 59,
      "hit": false,
      "t": 70684.94799999928,
      "d": 85.61645833333023,
      "v": 127
    },
    {
      "midi": 62,
      "hit": false,
      "t": 70684.94799999928,
      "d": 102.73974999999336,
      "v": 122
    },
    {
      "midi": 55,
      "hit": false,
      "t": 70890.42749999926,
      "d": 34.24658333332627,
      "v": 95
    },
    {
      "midi": 59,
      "hit": false,
      "t": 70890.42749999926,
      "d": 34.24658333332627,
      "v": 109
    },
    {
      "midi": 62,
      "hit": false,
      "t": 70890.42749999926,
      "d": 51.369874999989406,
      "v": 103
    },
    {
      "midi": 86,
      "hit": false,
      "t": 70890.42749999926,
      "d": 119.8630416666565,
      "v": 127
    },
    {
      "midi": 43,
      "hit": false,
      "t": 70993.16724999926,
      "d": 51.369874999989406,
      "v": 127
    },
    {
      "midi": 91,
      "hit": false,
      "t": 70993.16724999926,
      "d": 102.73974999999336,
      "v": 127
    },
    {
      "midi": 95,
      "hit": false,
      "t": 70993.16724999926,
      "d": 136.98633333331964,
      "v": 127
    },
    {
      "midi": 55,
      "hit": false,
      "t": 71095.90699999925,
      "d": 51.369874999989406,
      "v": 114
    },
    {
      "midi": 59,
      "hit": false,
      "t": 71095.90699999925,
      "d": 51.369874999989406,
      "v": 122
    },
    {
      "midi": 62,
      "hit": false,
      "t": 71095.90699999925,
      "d": 51.369874999989406,
      "v": 112
    },
    {
      "midi": 91,
      "hit": false,
      "t": 71301.38649999924,
      "d": 102.73974999999336,
      "v": 127
    },
    {
      "midi": 59,
      "hit": false,
      "t": 71301.38649999924,
      "d": 410.95899999997346,
      "v": 127
    },
    {
      "midi": 55,
      "hit": false,
      "t": 71301.38649999924,
      "d": 428.0822916666366,
      "v": 125
    },
    {
      "midi": 62,
      "hit": false,
      "t": 71301.38649999924,
      "d": 428.0822916666366,
      "v": 123
    },
    {
      "midi": 86,
      "hit": false,
      "t": 71506.86599999922,
      "d": 102.73974999999336,
      "v": 127
    },
    {
      "midi": 43,
      "hit": false,
      "t": 71712.34549999921,
      "d": 68.4931666666671,
      "v": 127
    },
    {
      "midi": 91,
      "hit": false,
      "t": 71712.34549999921,
      "d": 68.4931666666671,
      "v": 127
    },
    {
      "midi": 95,
      "hit": false,
      "t": 71917.82499999921,
      "d": 119.86304166667105,
      "v": 127
    },
    {
      "midi": 55,
      "hit": false,
      "t": 71917.82499999921,
      "d": 239.72608333332755,
      "v": 111
    },
    {
      "midi": 59,
      "hit": false,
      "t": 71917.82499999921,
      "d": 256.8493749999907,
      "v": 123
    },
    {
      "midi": 62,
      "hit": false,
      "t": 71917.82499999921,
      "d": 256.8493749999907,
      "v": 114
    },
    {
      "midi": 43,
      "hit": false,
      "t": 72123.30449999921,
      "d": 68.49316666665254,
      "v": 127
    },
    {
      "midi": 91,
      "hit": false,
      "t": 72123.30449999921,
      "d": 68.49316666665254,
      "v": 127
    },
    {
      "midi": 43,
      "hit": false,
      "t": 72328.7839999992,
      "d": 68.4931666666671,
      "v": 127
    },
    {
      "midi": 86,
      "hit": false,
      "t": 72328.7839999992,
      "d": 68.4931666666671,
      "v": 127
    },
    {
      "midi": 55,
      "hit": false,
      "t": 72328.7839999992,
      "d": 102.73974999999336,
      "v": 119
    },
    {
      "midi": 59,
      "hit": false,
      "t": 72328.7839999992,
      "d": 102.73974999999336,
      "v": 127
    },
    {
      "midi": 62,
      "hit": false,
      "t": 72328.7839999992,
      "d": 119.8630416666565,
      "v": 122
    },
    {
      "midi": 55,
      "hit": false,
      "t": 72534.26349999919,
      "d": 51.36987500000396,
      "v": 103
    },
    {
      "midi": 59,
      "hit": false,
      "t": 72534.26349999919,
      "d": 51.36987500000396,
      "v": 118
    },
    {
      "midi": 62,
      "hit": false,
      "t": 72534.26349999919,
      "d": 51.36987500000396,
      "v": 112
    },
    {
      "midi": 86,
      "hit": false,
      "t": 72534.26349999919,
      "d": 136.9863333333342,
      "v": 127
    },
    {
      "midi": 43,
      "hit": false,
      "t": 72637.0032499992,
      "d": 51.369874999989406,
      "v": 127
    },
    {
      "midi": 91,
      "hit": false,
      "t": 72637.0032499992,
      "d": 102.73974999999336,
      "v": 127
    },
    {
      "midi": 55,
      "hit": false,
      "t": 72739.74299999919,
      "d": 51.36987500000396,
      "v": 110
    },
    {
      "midi": 59,
      "hit": false,
      "t": 72739.74299999919,
      "d": 51.36987500000396,
      "v": 118
    },
    {
      "midi": 62,
      "hit": false,
      "t": 72739.74299999919,
      "d": 51.36987500000396,
      "v": 106
    },
    {
      "midi": 95,
      "hit": false,
      "t": 72739.74299999919,
      "d": 136.9863333333342,
      "v": 127
    },
    {
      "midi": 91,
      "hit": false,
      "t": 72945.22249999919,
      "d": 85.61645833333023,
      "v": 127
    },
    {
      "midi": 55,
      "hit": false,
      "t": 72945.22249999919,
      "d": 462.32887499999197,
      "v": 126
    },
    {
      "midi": 59,
      "hit": false,
      "t": 72945.22249999919,
      "d": 462.32887499999197,
      "v": 127
    },
    {
      "midi": 62,
      "hit": false,
      "t": 72945.22249999919,
      "d": 462.32887499999197,
      "v": 125
    },
    {
      "midi": 86,
      "hit": false,
      "t": 73150.70199999919,
      "d": 102.73974999999336,
      "v": 127
    },
    {
      "midi": 43,
      "hit": false,
      "t": 73356.18149999918,
      "d": 85.61645833333023,
      "v": 127
    },
    {
      "midi": 91,
      "hit": false,
      "t": 73356.18149999918,
      "d": 85.61645833333023,
      "v": 127
    },
    {
      "midi": 95,
      "hit": false,
      "t": 73561.66099999918,
      "d": 119.86304166667105,
      "v": 127
    },
    {
      "midi": 55,
      "hit": false,
      "t": 73561.66099999918,
      "d": 239.72608333332755,
      "v": 119
    },
    {
      "midi": 59,
      "hit": false,
      "t": 73561.66099999918,
      "d": 256.8493749999907,
      "v": 127
    },
    {
      "midi": 62,
      "hit": false,
      "t": 73561.66099999918,
      "d": 256.8493749999907,
      "v": 116
    },
    {
      "midi": 43,
      "hit": false,
      "t": 73767.14049999918,
      "d": 85.61645833331568,
      "v": 125
    },
    {
      "midi": 91,
      "hit": false,
      "t": 73767.14049999918,
      "d": 85.61645833331568,
      "v": 127
    },
    {
      "midi": 86,
      "hit": false,
      "t": 73972.61999999917,
      "d": 85.61645833333023,
      "v": 127
    },
    {
      "midi": 43,
      "hit": false,
      "t": 73972.61999999917,
      "d": 136.9863333333342,
      "v": 127
    },
    {
      "midi": 55,
      "hit": false,
      "t": 73972.61999999917,
      "d": 171.23291666666046,
      "v": 123
    },
    {
      "midi": 59,
      "hit": false,
      "t": 73972.61999999917,
      "d": 325.3425416666432,
      "v": 127
    },
    {
      "midi": 62,
      "hit": false,
      "t": 73972.61999999917,
      "d": 325.3425416666432,
      "v": 120
    },
    {
      "midi": 55,
      "hit": false,
      "t": 74178.09949999915,
      "d": 85.61645833333023,
      "v": 100
    },
    {
      "midi": 86,
      "hit": false,
      "t": 74178.09949999915,
      "d": 119.8630416666565,
      "v": 127
    },
    {
      "midi": 43,
      "hit": false,
      "t": 74280.83924999915,
      "d": 85.61645833333023,
      "v": 127
    },
    {
      "midi": 91,
      "hit": false,
      "t": 74280.83924999915,
      "d": 102.73974999999336,
      "v": 127
    },
    {
      "midi": 55,
      "hit": false,
      "t": 74383.57899999914,
      "d": 85.61645833333023,
      "v": 118
    },
    {
      "midi": 59,
      "hit": false,
      "t": 74383.57899999914,
      "d": 85.61645833333023,
      "v": 126
    },
    {
      "midi": 62,
      "hit": false,
      "t": 74383.57899999914,
      "d": 102.73974999999336,
      "v": 123
    },
    {
      "midi": 95,
      "hit": false,
      "t": 74383.57899999914,
      "d": 136.98633333331964,
      "v": 127
    },
    {
      "midi": 91,
      "hit": false,
      "t": 74589.05849999913,
      "d": 102.73974999999336,
      "v": 127
    },
    {
      "midi": 55,
      "hit": false,
      "t": 74589.05849999913,
      "d": 256.8493749999907,
      "v": 116
    },
    {
      "midi": 59,
      "hit": false,
      "t": 74589.05849999913,
      "d": 256.8493749999907,
      "v": 127
    },
    {
      "midi": 62,
      "hit": false,
      "t": 74589.05849999913,
      "d": 273.9726666666538,
      "v": 123
    },
    {
      "midi": 86,
      "hit": false,
      "t": 74794.53799999911,
      "d": 119.86304166667105,
      "v": 127
    },
    {
      "midi": 43,
      "hit": false,
      "t": 74794.53799999911,
      "d": 188.35620833333815,
      "v": 127
    },
    {
      "midi": 91,
      "hit": false,
      "t": 75000.01749999911,
      "d": 85.61645833333023,
      "v": 127
    },
    {
      "midi": 55,
      "hit": false,
      "t": 75000.01749999911,
      "d": 239.72608333332755,
      "v": 123
    },
    {
      "midi": 59,
      "hit": false,
      "t": 75000.01749999911,
      "d": 273.9726666666538,
      "v": 127
    },
    {
      "midi": 62,
      "hit": false,
      "t": 75000.01749999911,
      "d": 291.09595833331696,
      "v": 125
    },
    {
      "midi": 43,
      "hit": false,
      "t": 75205.49699999912,
      "d": 136.98633333331964,
      "v": 127
    },
    {
      "midi": 95,
      "hit": false,
      "t": 75205.49699999912,
      "d": 136.98633333331964,
      "v": 127
    },
    {
      "midi": 55,
      "hit": false,
      "t": 75410.9764999991,
      "d": 85.61645833333023,
      "v": 115
    },
    {
      "midi": 59,
      "hit": false,
      "t": 75410.9764999991,
      "d": 85.61645833333023,
      "v": 127
    },
    {
      "midi": 62,
      "hit": false,
      "t": 75410.9764999991,
      "d": 102.73974999999336,
      "v": 122
    },
    {
      "midi": 91,
      "hit": false,
      "t": 75410.9764999991,
      "d": 102.73974999999336,
      "v": 127
    },
    {
      "midi": 55,
      "hit": false,
      "t": 75616.45599999909,
      "d": 102.73974999999336,
      "v": 119
    },
    {
      "midi": 60,
      "hit": false,
      "t": 75616.45599999909,
      "d": 102.73974999999336,
      "v": 127
    },
    {
      "midi": 64,
      "hit": false,
      "t": 75616.45599999909,
      "d": 102.73974999999336,
      "v": 127
    },
    {
      "midi": 96,
      "hit": false,
      "t": 75616.45599999909,
      "d": 102.73974999999336,
      "v": 127
    },
    {
      "midi": 96,
      "hit": false,
      "t": 75821.93549999908,
      "d": 17.123291666663135,
      "v": 127
    },
    {
      "midi": 48,
      "hit": false,
      "t": 75821.93549999908,
      "d": 68.4931666666671,
      "v": 126
    },
    {
      "midi": 91,
      "hit": false,
      "t": 75821.93549999908,
      "d": 102.73974999999336,
      "v": 127
    },
    {
      "midi": 60,
      "hit": false,
      "t": 75924.67524999907,
      "d": 68.4931666666671,
      "v": 109
    },
    {
      "midi": 55,
      "hit": false,
      "t": 75924.67524999907,
      "d": 85.61645833333023,
      "v": 98
    },
    {
      "midi": 64,
      "hit": false,
      "t": 75924.67524999907,
      "d": 85.61645833333023,
      "v": 97
    },
    {
      "midi": 88,
      "hit": false,
      "t": 75924.67524999907,
      "d": 119.8630416666565,
      "v": 127
    },
    {
      "midi": 91,
      "hit": false,
      "t": 76232.89449999906,
      "d": 102.73974999999336,
      "v": 127
    },
    {
      "midi": 55,
      "hit": false,
      "t": 76232.89449999906,
      "d": 479.4521666666551,
      "v": 122
    },
    {
      "midi": 60,
      "hit": false,
      "t": 76232.89449999906,
      "d": 479.4521666666551,
      "v": 127
    },
    {
      "midi": 64,
      "hit": false,
      "t": 76232.89449999906,
      "d": 479.4521666666551,
      "v": 123
    },
    {
      "midi": 96,
      "hit": false,
      "t": 76438.37399999905,
      "d": 119.86304166667105,
      "v": 127
    },
    {
      "midi": 91,
      "hit": false,
      "t": 76643.85349999905,
      "d": 102.73974999999336,
      "v": 127
    },
    {
      "midi": 48,
      "hit": false,
      "t": 76643.85349999905,
      "d": 136.98633333331964,
      "v": 127
    },
    {
      "midi": 88,
      "hit": false,
      "t": 76849.33299999904,
      "d": 102.73974999999336,
      "v": 127
    },
    {
      "midi": 55,
      "hit": false,
      "t": 76849.33299999904,
      "d": 222.60279166664986,
      "v": 116
    },
    {
      "midi": 60,
      "hit": false,
      "t": 76849.33299999904,
      "d": 239.726083333313,
      "v": 127
    },
    {
      "midi": 64,
      "hit": false,
      "t": 76849.33299999904,
      "d": 239.726083333313,
      "v": 122
    },
    {
      "midi": 48,
      "hit": false,
      "t": 77054.81249999903,
      "d": 102.73974999999336,
      "v": 127
    },
    {
      "midi": 91,
      "hit": false,
      "t": 77054.81249999903,
      "d": 102.73974999999336,
      "v": 127
    },
    {
      "midi": 60,
      "hit": false,
      "t": 77260.29199999901,
      "d": 68.4931666666671,
      "v": 127
    },
    {
      "midi": 55,
      "hit": false,
      "t": 77260.29199999901,
      "d": 85.61645833333023,
      "v": 125
    },
    {
      "midi": 64,
      "hit": false,
      "t": 77260.29199999901,
      "d": 85.61645833333023,
      "v": 123
    },
    {
      "midi": 88,
      "hit": false,
      "t": 77260.29199999901,
      "d": 85.61645833333023,
      "v": 127
    },
    {
      "midi": 55,
      "hit": false,
      "t": 77465.77149999901,
      "d": 34.24658333332627,
      "v": 101
    },
    {
      "midi": 60,
      "hit": false,
      "t": 77465.77149999901,
      "d": 34.24658333332627,
      "v": 120
    },
    {
      "midi": 64,
      "hit": false,
      "t": 77465.77149999901,
      "d": 51.369874999989406,
      "v": 114
    },
    {
      "midi": 88,
      "hit": false,
      "t": 77465.77149999901,
      "d": 102.73974999999336,
      "v": 127
    },
    {
      "midi": 48,
      "hit": false,
      "t": 77568.511249999,
      "d": 68.4931666666671,
      "v": 127
    },
    {
      "midi": 91,
      "hit": false,
      "t": 77568.511249999,
      "d": 85.61645833333023,
      "v": 127
    },
    {
      "midi": 60,
      "hit": false,
      "t": 77671.250999999,
      "d": 34.24658333332627,
      "v": 113
    },
    {
      "midi": 55,
      "hit": false,
      "t": 77671.250999999,
      "d": 51.369874999989406,
      "v": 116
    },
    {
      "midi": 64,
      "hit": false,
      "t": 77671.250999999,
      "d": 51.369874999989406,
      "v": 112
    },
    {
      "midi": 96,
      "hit": false,
      "t": 77671.250999999,
      "d": 136.98633333331964,
      "v": 127
    },
    {
      "midi": 91,
      "hit": false,
      "t": 77876.73049999899,
      "d": 102.73974999999336,
      "v": 127
    },
    {
      "midi": 55,
      "hit": false,
      "t": 77876.73049999899,
      "d": 410.95899999997346,
      "v": 125
    },
    {
      "midi": 60,
      "hit": false,
      "t": 77876.73049999899,
      "d": 410.95899999997346,
      "v": 127
    },
    {
      "midi": 64,
      "hit": false,
      "t": 77876.73049999899,
      "d": 428.0822916666366,
      "v": 126
    },
    {
      "midi": 88,
      "hit": false,
      "t": 78082.20999999897,
      "d": 102.73974999999336,
      "v": 127
    },
    {
      "midi": 91,
      "hit": false,
      "t": 78287.68949999896,
      "d": 85.61645833333023,
      "v": 127
    },
    {
      "midi": 48,
      "hit": false,
      "t": 78287.68949999896,
      "d": 102.73974999999336,
      "v": 127
    },
    {
      "midi": 96,
      "hit": false,
      "t": 78493.16899999895,
      "d": 119.86304166667105,
      "v": 127
    },
    {
      "midi": 55,
      "hit": false,
      "t": 78493.16899999895,
      "d": 222.60279166666442,
      "v": 113
    },
    {
      "midi": 60,
      "hit": false,
      "t": 78493.16899999895,
      "d": 222.60279166666442,
      "v": 127
    },
    {
      "midi": 64,
      "hit": false,
      "t": 78493.16899999895,
      "d": 239.72608333332755,
      "v": 120
    },
    {
      "midi": 48,
      "hit": false,
      "t": 78698.64849999895,
      "d": 85.61645833333023,
      "v": 127
    },
    {
      "midi": 91,
      "hit": false,
      "t": 78698.64849999895,
      "d": 85.61645833333023,
      "v": 127
    },
    {
      "midi": 55,
      "hit": false,
      "t": 78904.12799999895,
      "d": 85.61645833333023,
      "v": 122
    },
    {
      "midi": 60,
      "hit": false,
      "t": 78904.12799999895,
      "d": 85.61645833333023,
      "v": 127
    },
    {
      "midi": 64,
      "hit": false,
      "t": 78904.12799999895,
      "d": 85.61645833333023,
      "v": 123
    },
    {
      "midi": 88,
      "hit": false,
      "t": 78904.12799999895,
      "d": 85.61645833333023,
      "v": 127
    },
    {
      "midi": 55,
      "hit": false,
      "t": 79109.60749999895,
      "d": 34.24658333332627,
      "v": 100
    },
    {
      "midi": 60,
      "hit": false,
      "t": 79109.60749999895,
      "d": 51.369874999989406,
      "v": 122
    },
    {
      "midi": 64,
      "hit": false,
      "t": 79109.60749999895,
      "d": 68.49316666665254,
      "v": 112
    },
    {
      "midi": 88,
      "hit": false,
      "t": 79109.60749999895,
      "d": 119.86304166664195,
      "v": 127
    },
    {
      "midi": 48,
      "hit": false,
      "t": 79212.34724999893,
      "d": 68.4931666666671,
      "v": 127
    },
    {
      "midi": 91,
      "hit": false,
      "t": 79212.34724999893,
      "d": 119.8630416666565,
      "v": 127
    },
    {
      "midi": 60,
      "hit": false,
      "t": 79315.08699999892,
      "d": 51.369874999989406,
      "v": 126
    },
    {
      "midi": 55,
      "hit": false,
      "t": 79315.08699999892,
      "d": 68.49316666665254,
      "v": 120
    },
    {
      "midi": 64,
      "hit": false,
      "t": 79315.08699999892,
      "d": 85.61645833331568,
      "v": 120
    },
    {
      "midi": 96,
      "hit": false,
      "t": 79315.08699999892,
      "d": 102.73974999997881,
      "v": 127
    },
    {
      "midi": 91,
      "hit": false,
      "t": 79520.5664999989,
      "d": 119.86304166667105,
      "v": 127
    },
    {
      "midi": 55,
      "hit": false,
      "t": 79520.5664999989,
      "d": 428.08229166665114,
      "v": 126
    },
    {
      "midi": 60,
      "hit": false,
      "t": 79520.5664999989,
      "d": 428.08229166665114,
      "v": 127
    },
    {
      "midi": 64,
      "hit": false,
      "t": 79520.5664999989,
      "d": 445.2055833333143,
      "v": 125
    },
    {
      "midi": 88,
      "hit": false,
      "t": 79726.0459999989,
      "d": 102.73974999999336,
      "v": 127
    },
    {
      "midi": 91,
      "hit": false,
      "t": 79931.52549999888,
      "d": 85.61645833333023,
      "v": 127
    },
    {
      "midi": 48,
      "hit": false,
      "t": 79931.52549999888,
      "d": 102.73974999999336,
      "v": 127
    },
    {
      "midi": 96,
      "hit": false,
      "t": 80137.00499999887,
      "d": 119.86304166667105,
      "v": 127
    },
    {
      "midi": 55,
      "hit": false,
      "t": 80137.00499999887,
      "d": 239.72608333332755,
      "v": 118
    },
    {
      "midi": 60,
      "hit": false,
      "t": 80137.00499999887,
      "d": 256.8493749999907,
      "v": 127
    },
    {
      "midi": 64,
      "hit": false,
      "t": 80137.00499999887,
      "d": 256.8493749999907,
      "v": 123
    },
    {
      "midi": 48,
      "hit": false,
      "t": 80342.48449999887,
      "d": 85.61645833331568,
      "v": 127
    },
    {
      "midi": 91,
      "hit": false,
      "t": 80342.48449999887,
      "d": 119.86304166664195,
      "v": 127
    },
    {
      "midi": 55,
      "hit": false,
      "t": 80547.96399999884,
      "d": 85.61645833333023,
      "v": 125
    },
    {
      "midi": 60,
      "hit": false,
      "t": 80547.96399999884,
      "d": 85.61645833333023,
      "v": 127
    },
    {
      "midi": 88,
      "hit": false,
      "t": 80547.96399999884,
      "d": 102.73974999999336,
      "v": 127
    },
    {
      "midi": 64,
      "hit": false,
      "t": 80547.96399999884,
      "d": 119.8630416666565,
      "v": 125
    },
    {
      "midi": 55,
      "hit": false,
      "t": 80753.44349999883,
      "d": 51.36987500000396,
      "v": 110
    },
    {
      "midi": 60,
      "hit": false,
      "t": 80753.44349999883,
      "d": 51.36987500000396,
      "v": 119
    },
    {
      "midi": 64,
      "hit": false,
      "t": 80753.44349999883,
      "d": 68.4931666666671,
      "v": 109
    },
    {
      "midi": 91,
      "hit": false,
      "t": 80753.44349999883,
      "d": 85.61645833333023,
      "v": 127
    },
    {
      "midi": 48,
      "hit": false,
      "t": 80856.18324999882,
      "d": 85.61645833333023,
      "v": 127
    },
    {
      "midi": 96,
      "hit": false,
      "t": 80958.92299999882,
      "d": 136.9863333333342,
      "v": 127
    },
    {
      "midi": 91,
      "hit": false,
      "t": 81164.40249999882,
      "d": 119.86304166667105,
      "v": 127
    },
    {
      "midi": 55,
      "hit": false,
      "t": 81164.40249999882,
      "d": 256.84937500000524,
      "v": 127
    },
    {
      "midi": 60,
      "hit": false,
      "t": 81164.40249999882,
      "d": 256.84937500000524,
      "v": 127
    },
    {
      "midi": 64,
      "hit": false,
      "t": 81164.40249999882,
      "d": 273.9726666666684,
      "v": 127
    },
    {
      "midi": 48,
      "hit": false,
      "t": 81369.88199999882,
      "d": 85.61645833333023,
      "v": 127
    },
    {
      "midi": 88,
      "hit": false,
      "t": 81369.88199999882,
      "d": 119.8630416666565,
      "v": 127
    },
    {
      "midi": 91,
      "hit": false,
      "t": 81575.3614999988,
      "d": 119.86304166667105,
      "v": 127
    },
    {
      "midi": 55,
      "hit": false,
      "t": 81575.3614999988,
      "d": 154.10962499999732,
      "v": 127
    },
    {
      "midi": 60,
      "hit": false,
      "t": 81575.3614999988,
      "d": 171.23291666666046,
      "v": 127
    },
    {
      "midi": 64,
      "hit": false,
      "t": 81575.3614999988,
      "d": 205.47949999998673,
      "v": 126
    },
    {
      "midi": 96,
      "hit": false,
      "t": 81780.84099999879,
      "d": 85.61645833333023,
      "v": 127
    },
    {
      "midi": 48,
      "hit": false,
      "t": 81780.84099999879,
      "d": 119.8630416666565,
      "v": 127
    },
    {
      "midi": 60,
      "hit": false,
      "t": 81883.58074999879,
      "d": 51.369874999989406,
      "v": 120
    },
    {
      "midi": 55,
      "hit": false,
      "t": 81883.58074999879,
      "d": 68.49316666665254,
      "v": 108
    },
    {
      "midi": 64,
      "hit": false,
      "t": 81883.58074999879,
      "d": 85.61645833331568,
      "v": 112
    },
    {
      "midi": 86,
      "hit": false,
      "t": 82191.79999999877,
      "d": 102.73974999999336,
      "v": 127
    },
    {
      "midi": 54,
      "hit": false,
      "t": 82191.79999999877,
      "d": 119.8630416666565,
      "v": 127
    },
    {
      "midi": 90,
      "hit": false,
      "t": 82191.79999999877,
      "d": 119.8630416666565,
      "v": 127
    },
    {
      "midi": 93,
      "hit": false,
      "t": 82191.79999999877,
      "d": 119.8630416666565,
      "v": 127
    },
    {
      "midi": 57,
      "hit": false,
      "t": 82191.79999999877,
      "d": 136.98633333331964,
      "v": 127
    },
    {
      "midi": 62,
      "hit": false,
      "t": 82191.79999999877,
      "d": 154.10962499998277,
      "v": 127
    },
    {
      "midi": 50,
      "hit": false,
      "t": 83835.63599999875,
      "d": 136.9863333333342,
      "v": 127
    },
    {
      "midi": 86,
      "hit": false,
      "t": 83835.63599999875,
      "d": 136.9863333333342,
      "v": 127
    },
    {
      "midi": 90,
      "hit": false,
      "t": 83835.63599999875,
      "d": 136.9863333333342,
      "v": 127
    },
    {
      "midi": 93,
      "hit": false,
      "t": 83835.63599999875,
      "d": 136.9863333333342,
      "v": 127
    },
    {
      "midi": 57,
      "hit": false,
      "t": 83835.63599999875,
      "d": 154.10962499999732,
      "v": 127
    },
    {
      "midi": 54,
      "hit": false,
      "t": 83835.63599999875,
      "d": 171.23291666666046,
      "v": 127
    },
    {
      "midi": 62,
      "hit": false,
      "t": 83835.63599999875,
      "d": 205.47949999998673,
      "v": 127
    },
    {
      "midi": 86,
      "hit": false,
      "t": 85479.47199999873,
      "d": 136.9863333333342,
      "v": 127
    },
    {
      "midi": 90,
      "hit": false,
      "t": 85479.47199999873,
      "d": 136.9863333333342,
      "v": 127
    },
    {
      "midi": 50,
      "hit": false,
      "t": 85479.47199999873,
      "d": 154.10962499999732,
      "v": 127
    },
    {
      "midi": 62,
      "hit": false,
      "t": 85479.47199999873,
      "d": 154.10962499999732,
      "v": 127
    },
    {
      "midi": 66,
      "hit": false,
      "t": 85479.47199999873,
      "d": 154.10962499999732,
      "v": 127
    },
    {
      "midi": 69,
      "hit": false,
      "t": 85479.47199999873,
      "d": 154.10962499999732,
      "v": 127
    },
    {
      "midi": 93,
      "hit": false,
      "t": 85479.47199999873,
      "d": 154.10962499999732,
      "v": 127
    },
    {
      "midi": 50,
      "hit": false,
      "t": 86301.38999999872,
      "d": 119.86304166667105,
      "v": 127
    },
    {
      "midi": 54,
      "hit": false,
      "t": 86301.38999999872,
      "d": 136.9863333333342,
      "v": 127
    },
    {
      "midi": 57,
      "hit": false,
      "t": 86301.38999999872,
      "d": 136.9863333333342,
      "v": 127
    },
    {
      "midi": 90,
      "hit": false,
      "t": 86301.38999999872,
      "d": 136.9863333333342,
      "v": 127
    },
    {
      "midi": 62,
      "hit": false,
      "t": 86301.38999999872,
      "d": 154.10962499999732,
      "v": 127
    },
    {
      "midi": 86,
      "hit": false,
      "t": 86301.38999999872,
      "d": 154.10962499999732,
      "v": 127
    },
    {
      "midi": 93,
      "hit": false,
      "t": 86301.38999999872,
      "d": 154.10962499999732,
      "v": 127
    },
    {
      "midi": 50,
      "hit": false,
      "t": 87123.30799999872,
      "d": 119.86304166667105,
      "v": 127
    },
    {
      "midi": 54,
      "hit": false,
      "t": 87123.30799999872,
      "d": 119.86304166667105,
      "v": 127
    },
    {
      "midi": 57,
      "hit": false,
      "t": 87123.30799999872,
      "d": 119.86304166667105,
      "v": 127
    },
    {
      "midi": 62,
      "hit": false,
      "t": 87123.30799999872,
      "d": 119.86304166667105,
      "v": 127
    },
    {
      "midi": 86,
      "hit": false,
      "t": 87123.30799999872,
      "d": 136.9863333333342,
      "v": 127
    },
    {
      "midi": 90,
      "hit": false,
      "t": 87123.30799999872,
      "d": 136.9863333333342,
      "v": 127
    },
    {
      "midi": 93,
      "hit": false,
      "t": 87123.30799999872,
      "d": 154.10962499999732,
      "v": 127
    },
    {
      "midi": 81,
      "hit": false,
      "t": 88767.14399999872,
      "d": 85.61645833333023,
      "v": 127
    },
    {
      "midi": 45,
      "hit": false,
      "t": 88767.14399999872,
      "d": 102.73974999999336,
      "v": 127
    },
    {
      "midi": 60,
      "hit": false,
      "t": 88767.14399999872,
      "d": 136.98633333331964,
      "v": 127
    },
    {
      "midi": 57,
      "hit": false,
      "t": 88767.14399999872,
      "d": 154.10962499998277,
      "v": 127
    },
    {
      "midi": 64,
      "hit": false,
      "t": 88767.14399999872,
      "d": 154.10962499998277,
      "v": 127
    },
    {
      "midi": 88,
      "hit": false,
      "t": 88972.6234999987,
      "d": 119.8630416666565,
      "v": 127
    },
    {
      "midi": 84,
      "hit": false,
      "t": 89075.3632499987,
      "d": 85.61645833333023,
      "v": 127
    },
    {
      "midi": 81,
      "hit": false,
      "t": 89178.1029999987,
      "d": 102.73974999999336,
      "v": 127
    },
    {
      "midi": 84,
      "hit": false,
      "t": 89383.58249999868,
      "d": 85.61645833333023,
      "v": 127
    },
    {
      "midi": 57,
      "hit": false,
      "t": 89383.58249999868,
      "d": 496.5754583333328,
      "v": 127
    },
    {
      "midi": 60,
      "hit": false,
      "t": 89383.58249999868,
      "d": 496.5754583333328,
      "v": 127
    },
    {
      "midi": 64,
      "hit": false,
      "t": 89383.58249999868,
      "d": 496.5754583333328,
      "v": 127
    },
    {
      "midi": 45,
      "hit": false,
      "t": 89383.58249999868,
      "d": 547.9453333333367,
      "v": 127
    },
    {
      "midi": 88,
      "hit": false,
      "t": 89589.06199999868,
      "d": 119.86304166667105,
      "v": 127
    },
    {
      "midi": 84,
      "hit": false,
      "t": 89794.54149999868,
      "d": 68.4931666666671,
      "v": 127
    },
    {
      "midi": 57,
      "hit": false,
      "t": 90000.02099999868,
      "d": 119.86304166667105,
      "v": 127
    },
    {
      "midi": 81,
      "hit": false,
      "t": 90000.02099999868,
      "d": 119.86304166667105,
      "v": 127
    },
    {
      "midi": 60,
      "hit": false,
      "t": 90000.02099999868,
      "d": 154.10962499999732,
      "v": 127
    },
    {
      "midi": 64,
      "hit": false,
      "t": 90000.02099999868,
      "d": 171.23291666666046,
      "v": 127
    },
    {
      "midi": 84,
      "hit": false,
      "t": 90205.50049999867,
      "d": 68.4931666666671,
      "v": 127
    },
    {
      "midi": 50,
      "hit": false,
      "t": 90410.97999999867,
      "d": 68.4931666666671,
      "v": 127
    },
    {
      "midi": 57,
      "hit": false,
      "t": 90410.97999999867,
      "d": 85.61645833333023,
      "v": 127
    },
    {
      "midi": 62,
      "hit": false,
      "t": 90410.97999999867,
      "d": 85.61645833333023,
      "v": 127
    },
    {
      "midi": 66,
      "hit": false,
      "t": 90410.97999999867,
      "d": 85.61645833333023,
      "v": 127
    },
    {
      "midi": 93,
      "hit": false,
      "t": 90410.97999999867,
      "d": 85.61645833333023,
      "v": 127
    },
    {
      "midi": 69,
      "hit": false,
      "t": 90410.97999999867,
      "d": 102.73974999999336,
      "v": 127
    },
    {
      "midi": 93,
      "hit": false,
      "t": 90616.45949999866,
      "d": 85.61645833333023,
      "v": 127
    },
    {
      "midi": 90,
      "hit": false,
      "t": 90719.19924999865,
      "d": 102.73974999999336,
      "v": 127
    },
    {
      "midi": 86,
      "hit": false,
      "t": 90821.93899999865,
      "d": 102.73974999999336,
      "v": 127
    },
    {
      "midi": 90,
      "hit": false,
      "t": 91027.41849999863,
      "d": 68.4931666666671,
      "v": 127
    },
    {
      "midi": 66,
      "hit": false,
      "t": 91027.41849999863,
      "d": 513.6987499999814,
      "v": 127
    },
    {
      "midi": 62,
      "hit": false,
      "t": 91027.41849999863,
      "d": 530.8220416666445,
      "v": 127
    },
    {
      "midi": 69,
      "hit": false,
      "t": 91027.41849999863,
      "d": 530.8220416666445,
      "v": 127
    },
    {
      "midi": 57,
      "hit": false,
      "t": 91027.41849999863,
      "d": 547.9453333333076,
      "v": 127
    },
    {
      "midi": 50,
      "hit": false,
      "t": 91027.41849999863,
      "d": 599.3152083333116,
      "v": 127
    },
    {
      "midi": 93,
      "hit": false,
      "t": 91232.89799999863,
      "d": 102.73974999999336,
      "v": 127
    },
    {
      "midi": 90,
      "hit": false,
      "t": 91438.37749999862,
      "d": 85.61645833333023,
      "v": 127
    },
    {
      "midi": 62,
      "hit": false,
      "t": 91643.8569999986,
      "d": 34.24658333332627,
      "v": 127
    },
    {
      "midi": 86,
      "hit": false,
      "t": 91643.8569999986,
      "d": 119.8630416666565,
      "v": 127
    },
    {
      "midi": 64,
      "hit": false,
      "t": 91643.8569999986,
      "d": 136.98633333331964,
      "v": 127
    },
    {
      "midi": 69,
      "hit": false,
      "t": 91643.8569999986,
      "d": 188.3562083333236,
      "v": 127
    },
    {
      "midi": 90,
      "hit": false,
      "t": 91849.3364999986,
      "d": 68.4931666666671,
      "v": 127
    },
    {
      "midi": 45,
      "hit": false,
      "t": 92054.8159999986,
      "d": 85.61645833333023,
      "v": 127
    },
    {
      "midi": 57,
      "hit": false,
      "t": 92054.8159999986,
      "d": 85.61645833333023,
      "v": 127
    },
    {
      "midi": 81,
      "hit": false,
      "t": 92054.8159999986,
      "d": 85.61645833333023,
      "v": 127
    },
    {
      "midi": 60,
      "hit": false,
      "t": 92054.8159999986,
      "d": 102.73974999999336,
      "v": 127
    },
    {
      "midi": 64,
      "hit": false,
      "t": 92054.8159999986,
      "d": 102.73974999999336,
      "v": 127
    },
    {
      "midi": 88,
      "hit": false,
      "t": 92260.29549999858,
      "d": 136.98633333331964,
      "v": 127
    },
    {
      "midi": 84,
      "hit": false,
      "t": 92363.03524999857,
      "d": 85.61645833333023,
      "v": 127
    },
    {
      "midi": 81,
      "hit": false,
      "t": 92465.77499999857,
      "d": 102.73974999999336,
      "v": 127
    },
    {
      "midi": 84,
      "hit": false,
      "t": 92671.25449999855,
      "d": 85.61645833333023,
      "v": 127
    },
    {
      "midi": 45,
      "hit": false,
      "t": 92671.25449999855,
      "d": 530.8220416666591,
      "v": 127
    },
    {
      "midi": 57,
      "hit": false,
      "t": 92671.25449999855,
      "d": 633.5617916666524,
      "v": 127
    },
    {
      "midi": 60,
      "hit": false,
      "t": 92671.25449999855,
      "d": 667.8083749999787,
      "v": 127
    },
    {
      "midi": 64,
      "hit": false,
      "t": 92671.25449999855,
      "d": 684.9316666666418,
      "v": 127
    },
    {
      "midi": 88,
      "hit": false,
      "t": 92876.73399999856,
      "d": 119.86304166667105,
      "v": 127
    },
    {
      "midi": 84,
      "hit": false,
      "t": 93082.21349999856,
      "d": 85.61645833333023,
      "v": 127
    },
    {
      "midi": 81,
      "hit": false,
      "t": 93287.69299999854,
      "d": 119.8630416666565,
      "v": 127
    },
    {
      "midi": 84,
      "hit": false,
      "t": 93493.17249999853,
      "d": 68.4931666666671,
      "v": 127
    },
    {
      "midi": 56,
      "hit": false,
      "t": 93698.65199999853,
      "d": 17.123291666663135,
      "v": 127
    },
    {
      "midi": 50,
      "hit": false,
      "t": 93698.65199999853,
      "d": 68.4931666666671,
      "v": 127
    },
    {
      "midi": 93,
      "hit": false,
      "t": 93698.65199999853,
      "d": 85.61645833333023,
      "v": 127
    },
    {
      "midi": 57,
      "hit": false,
      "t": 93698.65199999853,
      "d": 102.73974999999336,
      "v": 127
    },
    {
      "midi": 62,
      "hit": false,
      "t": 93698.65199999853,
      "d": 102.73974999999336,
      "v": 127
    },
    {
      "midi": 66,
      "hit": false,
      "t": 93698.65199999853,
      "d": 102.73974999999336,
      "v": 127
    },
    {
      "midi": 69,
      "hit": false,
      "t": 93698.65199999853,
      "d": 102.73974999999336,
      "v": 127
    },
    {
      "midi": 93,
      "hit": false,
      "t": 93904.13149999852,
      "d": 102.73974999999336,
      "v": 127
    },
    {
      "midi": 90,
      "hit": false,
      "t": 94006.87124999851,
      "d": 85.61645833333023,
      "v": 127
    },
    {
      "midi": 86,
      "hit": false,
      "t": 94109.6109999985,
      "d": 85.61645833333023,
      "v": 127
    },
    {
      "midi": 90,
      "hit": false,
      "t": 94315.0904999985,
      "d": 68.4931666666671,
      "v": 127
    },
    {
      "midi": 57,
      "hit": false,
      "t": 94315.0904999985,
      "d": 582.191916666663,
      "v": 127
    },
    {
      "midi": 50,
      "hit": false,
      "t": 94315.0904999985,
      "d": 616.4384999999893,
      "v": 127
    },
    {
      "midi": 66,
      "hit": false,
      "t": 94315.0904999985,
      "d": 650.6850833333156,
      "v": 127
    },
    {
      "midi": 69,
      "hit": false,
      "t": 94315.0904999985,
      "d": 650.6850833333156,
      "v": 127
    },
    {
      "midi": 62,
      "hit": false,
      "t": 94315.0904999985,
      "d": 667.8083749999787,
      "v": 127
    },
    {
      "midi": 93,
      "hit": false,
      "t": 94520.56999999851,
      "d": 85.61645833333023,
      "v": 127
    },
    {
      "midi": 90,
      "hit": false,
      "t": 94726.04949999851,
      "d": 85.61645833333023,
      "v": 127
    },
    {
      "midi": 86,
      "hit": false,
      "t": 94931.5289999985,
      "d": 119.8630416666565,
      "v": 127
    },
    {
      "midi": 90,
      "hit": false,
      "t": 95137.00849999848,
      "d": 68.4931666666671,
      "v": 127
    },
    {
      "midi": 60,
      "hit": false,
      "t": 95342.48799999848,
      "d": 85.61645833333023,
      "v": 127
    },
    {
      "midi": 81,
      "hit": false,
      "t": 95342.48799999848,
      "d": 85.61645833333023,
      "v": 127
    },
    {
      "midi": 45,
      "hit": false,
      "t": 95342.48799999848,
      "d": 102.73974999999336,
      "v": 127
    },
    {
      "midi": 57,
      "hit": false,
      "t": 95342.48799999848,
      "d": 119.8630416666565,
      "v": 127
    },
    {
      "midi": 64,
      "hit": false,
      "t": 95342.48799999848,
      "d": 119.8630416666565,
      "v": 127
    },
    {
      "midi": 88,
      "hit": false,
      "t": 95547.96749999847,
      "d": 119.8630416666565,
      "v": 127
    },
    {
      "midi": 84,
      "hit": false,
      "t": 95650.70724999846,
      "d": 85.61645833333023,
      "v": 127
    },
    {
      "midi": 81,
      "hit": false,
      "t": 95736.3237083318,
      "d": 102.73974999999336,
      "v": 127
    },
    {
      "midi": 84,
      "hit": false,
      "t": 95958.92649999846,
      "d": 85.61645833333023,
      "v": 127
    },
    {
      "midi": 45,
      "hit": false,
      "t": 95958.92649999846,
      "d": 616.4385000000038,
      "v": 127
    },
    {
      "midi": 57,
      "hit": false,
      "t": 95958.92649999846,
      "d": 633.561791666667,
      "v": 127
    },
    {
      "midi": 60,
      "hit": false,
      "t": 95958.92649999846,
      "d": 650.6850833333301,
      "v": 127
    },
    {
      "midi": 64,
      "hit": false,
      "t": 95958.92649999846,
      "d": 667.8083749999932,
      "v": 127
    },
    {
      "midi": 88,
      "hit": false,
      "t": 96164.40599999846,
      "d": 119.86304166667105,
      "v": 127
    },
    {
      "midi": 84,
      "hit": false,
      "t": 96369.88549999846,
      "d": 85.61645833333023,
      "v": 127
    },
    {
      "midi": 81,
      "hit": false,
      "t": 96575.36499999846,
      "d": 119.8630416666565,
      "v": 127
    },
    {
      "midi": 84,
      "hit": false,
      "t": 96780.84449999845,
      "d": 68.4931666666671,
      "v": 127
    },
    {
      "midi": 57,
      "hit": false,
      "t": 96986.32399999845,
      "d": 85.61645833333023,
      "v": 127
    },
    {
      "midi": 93,
      "hit": false,
      "t": 96986.32399999845,
      "d": 85.61645833333023,
      "v": 127
    },
    {
      "midi": 50,
      "hit": false,
      "t": 96986.32399999845,
      "d": 102.73974999999336,
      "v": 127
    },
    {
      "midi": 62,
      "hit": false,
      "t": 96986.32399999845,
      "d": 102.73974999999336,
      "v": 127
    },
    {
      "midi": 66,
      "hit": false,
      "t": 96986.32399999845,
      "d": 102.73974999999336,
      "v": 127
    },
    {
      "midi": 69,
      "hit": false,
      "t": 96986.32399999845,
      "d": 119.8630416666565,
      "v": 127
    },
    {
      "midi": 93,
      "hit": false,
      "t": 97191.80349999844,
      "d": 102.73974999999336,
      "v": 127
    },
    {
      "midi": 90,
      "hit": false,
      "t": 97294.54324999843,
      "d": 85.61645833333023,
      "v": 127
    },
    {
      "midi": 86,
      "hit": false,
      "t": 97397.28299999842,
      "d": 102.73974999999336,
      "v": 127
    },
    {
      "midi": 90,
      "hit": false,
      "t": 97602.76249999841,
      "d": 85.61645833333023,
      "v": 127
    },
    {
      "midi": 57,
      "hit": false,
      "t": 97602.76249999841,
      "d": 428.0822916666657,
      "v": 127
    },
    {
      "midi": 50,
      "hit": false,
      "t": 97602.76249999841,
      "d": 513.6987499999959,
      "v": 127
    },
    {
      "midi": 62,
      "hit": false,
      "t": 97602.76249999841,
      "d": 547.9453333333222,
      "v": 127
    },
    {
      "midi": 66,
      "hit": false,
      "t": 97602.76249999841,
      "d": 547.9453333333222,
      "v": 127
    },
    {
      "midi": 69,
      "hit": false,
      "t": 97602.76249999841,
      "d": 547.9453333333222,
      "v": 127
    },
    {
      "midi": 93,
      "hit": false,
      "t": 97808.24199999841,
      "d": 85.61645833333023,
      "v": 127
    },
    {
      "midi": 90,
      "hit": false,
      "t": 98013.72149999841,
      "d": 85.61645833333023,
      "v": 127
    },
    {
      "midi": 86,
      "hit": false,
      "t": 98219.2009999984,
      "d": 102.73974999999336,
      "v": 127
    },
    {
      "midi": 90,
      "hit": false,
      "t": 98424.68049999839,
      "d": 68.4931666666671,
      "v": 127
    },
    {
      "midi": 60,
      "hit": false,
      "t": 98630.15999999839,
      "d": 68.4931666666671,
      "v": 127
    },
    {
      "midi": 45,
      "hit": false,
      "t": 98630.15999999839,
      "d": 85.61645833333023,
      "v": 127
    },
    {
      "midi": 57,
      "hit": false,
      "t": 98630.15999999839,
      "d": 85.61645833333023,
      "v": 127
    },
    {
      "midi": 64,
      "hit": false,
      "t": 98630.15999999839,
      "d": 102.73974999999336,
      "v": 127
    },
    {
      "midi": 81,
      "hit": false,
      "t": 98630.15999999839,
      "d": 102.73974999999336,
      "v": 127
    },
    {
      "midi": 88,
      "hit": false,
      "t": 98835.63949999837,
      "d": 119.8630416666565,
      "v": 127
    },
    {
      "midi": 84,
      "hit": false,
      "t": 98938.37924999837,
      "d": 85.61645833333023,
      "v": 127
    },
    {
      "midi": 81,
      "hit": false,
      "t": 99041.11899999836,
      "d": 102.73974999999336,
      "v": 127
    },
    {
      "midi": 84,
      "hit": false,
      "t": 99246.59849999835,
      "d": 68.4931666666671,
      "v": 127
    },
    {
      "midi": 45,
      "hit": false,
      "t": 99246.59849999835,
      "d": 496.5754583333328,
      "v": 127
    },
    {
      "midi": 57,
      "hit": false,
      "t": 99246.59849999835,
      "d": 599.3152083333262,
      "v": 127
    },
    {
      "midi": 60,
      "hit": false,
      "t": 99246.59849999835,
      "d": 650.6850833333156,
      "v": 127
    },
    {
      "midi": 64,
      "hit": false,
      "t": 99246.59849999835,
      "d": 650.6850833333156,
      "v": 127
    },
    {
      "midi": 88,
      "hit": false,
      "t": 99452.07799999835,
      "d": 119.86304166667105,
      "v": 127
    },
    {
      "midi": 84,
      "hit": false,
      "t": 99657.55749999835,
      "d": 102.73974999999336,
      "v": 127
    },
    {
      "midi": 81,
      "hit": false,
      "t": 99863.03699999834,
      "d": 102.73974999999336,
      "v": 127
    },
    {
      "midi": 84,
      "hit": false,
      "t": 100068.51649999832,
      "d": 68.4931666666671,
      "v": 127
    },
    {
      "midi": 57,
      "hit": false,
      "t": 100273.99599999833,
      "d": 68.4931666666671,
      "v": 127
    },
    {
      "midi": 93,
      "hit": false,
      "t": 100273.99599999833,
      "d": 68.4931666666671,
      "v": 127
    },
    {
      "midi": 50,
      "hit": false,
      "t": 100273.99599999833,
      "d": 85.61645833333023,
      "v": 127
    },
    {
      "midi": 62,
      "hit": false,
      "t": 100273.99599999833,
      "d": 102.73974999999336,
      "v": 127
    },
    {
      "midi": 66,
      "hit": false,
      "t": 100273.99599999833,
      "d": 102.73974999999336,
      "v": 127
    },
    {
      "midi": 69,
      "hit": false,
      "t": 100273.99599999833,
      "d": 102.73974999999336,
      "v": 127
    },
    {
      "midi": 93,
      "hit": false,
      "t": 100479.47549999831,
      "d": 102.73974999999336,
      "v": 127
    },
    {
      "midi": 90,
      "hit": false,
      "t": 100582.2152499983,
      "d": 154.10962499999732,
      "v": 127
    },
    {
      "midi": 86,
      "hit": false,
      "t": 100890.4344999983,
      "d": 102.73974999999336,
      "v": 127
    },
    {
      "midi": 57,
      "hit": false,
      "t": 100890.4344999983,
      "d": 410.958999999988,
      "v": 127
    },
    {
      "midi": 50,
      "hit": false,
      "t": 100890.4344999983,
      "d": 462.32887499999197,
      "v": 127
    },
    {
      "midi": 66,
      "hit": false,
      "t": 100890.4344999983,
      "d": 496.57545833331824,
      "v": 127
    },
    {
      "midi": 69,
      "hit": false,
      "t": 100890.4344999983,
      "d": 496.57545833331824,
      "v": 127
    },
    {
      "midi": 62,
      "hit": false,
      "t": 100890.4344999983,
      "d": 530.8220416666445,
      "v": 127
    },
    {
      "midi": 93,
      "hit": false,
      "t": 101095.91399999829,
      "d": 119.86304166667105,
      "v": 127
    },
    {
      "midi": 90,
      "hit": false,
      "t": 101301.39349999829,
      "d": 85.61645833333023,
      "v": 127
    },
    {
      "midi": 86,
      "hit": false,
      "t": 101506.87299999828,
      "d": 102.73974999999336,
      "v": 127
    },
    {
      "midi": 59,
      "hit": false,
      "t": 101712.35249999826,
      "d": 68.4931666666671,
      "v": 127
    },
    {
      "midi": 90,
      "hit": false,
      "t": 101712.35249999826,
      "d": 68.4931666666671,
      "v": 127
    },
    {
      "midi": 50,
      "hit": false,
      "t": 101917.83199999826,
      "d": 85.61645833333023,
      "v": 127
    },
    {
      "midi": 43,
      "hit": false,
      "t": 101917.83199999826,
      "d": 102.73974999999336,
      "v": 127
    },
    {
      "midi": 59,
      "hit": false,
      "t": 101917.83199999826,
      "d": 102.73974999999336,
      "v": 127
    },
    {
      "midi": 62,
      "hit": false,
      "t": 101917.83199999826,
      "d": 102.73974999999336,
      "v": 127
    },
    {
      "midi": 86,
      "hit": false,
      "t": 101917.83199999826,
      "d": 102.73974999999336,
      "v": 127
    },
    {
      "midi": 67,
      "hit": false,
      "t": 101917.83199999826,
      "d": 119.8630416666565,
      "v": 127
    },
    {
      "midi": 62,
      "hit": false,
      "t": 102123.31149999825,
      "d": 51.36987500000396,
      "v": 127
    },
    {
      "midi": 67,
      "hit": false,
      "t": 102123.31149999825,
      "d": 51.36987500000396,
      "v": 127
    },
    {
      "midi": 86,
      "hit": false,
      "t": 102123.31149999825,
      "d": 102.73975000000792,
      "v": 120
    },
    {
      "midi": 91,
      "hit": false,
      "t": 102226.05124999826,
      "d": 119.8630416666565,
      "v": 125
    },
    {
      "midi": 67,
      "hit": false,
      "t": 102328.79099999825,
      "d": 51.369874999989406,
      "v": 127
    },
    {
      "midi": 59,
      "hit": false,
      "t": 102328.79099999825,
      "d": 68.49316666665254,
      "v": 127
    },
    {
      "midi": 62,
      "hit": false,
      "t": 102328.79099999825,
      "d": 68.49316666665254,
      "v": 127
    },
    {
      "midi": 95,
      "hit": false,
      "t": 102328.79099999825,
      "d": 136.98633333331964,
      "v": 126
    },
    {
      "midi": 91,
      "hit": false,
      "t": 102534.27049999824,
      "d": 154.10962499999732,
      "v": 127
    },
    {
      "midi": 59,
      "hit": false,
      "t": 102534.27049999824,
      "d": 496.5754583333328,
      "v": 127
    },
    {
      "midi": 67,
      "hit": false,
      "t": 102534.27049999824,
      "d": 496.5754583333328,
      "v": 127
    },
    {
      "midi": 62,
      "hit": false,
      "t": 102534.27049999824,
      "d": 513.6987499999959,
      "v": 127
    },
    {
      "midi": 86,
      "hit": false,
      "t": 102739.74999999824,
      "d": 119.86304166667105,
      "v": 122
    },
    {
      "midi": 91,
      "hit": false,
      "t": 102945.22949999824,
      "d": 102.73974999999336,
      "v": 127
    },
    {
      "midi": 50,
      "hit": false,
      "t": 102945.22949999824,
      "d": 222.60279166664986,
      "v": 127
    },
    {
      "midi": 43,
      "hit": false,
      "t": 102945.22949999824,
      "d": 239.726083333313,
      "v": 127
    },
    {
      "midi": 95,
      "hit": false,
      "t": 103150.70899999823,
      "d": 136.98633333331964,
      "v": 123
    },
    {
      "midi": 62,
      "hit": false,
      "t": 103150.70899999823,
      "d": 273.9726666666538,
      "v": 127
    },
    {
      "midi": 59,
      "hit": false,
      "t": 103150.70899999823,
      "d": 291.09595833331696,
      "v": 127
    },
    {
      "midi": 67,
      "hit": false,
      "t": 103150.70899999823,
      "d": 308.2192499999801,
      "v": 127
    },
    {
      "midi": 91,
      "hit": false,
      "t": 103356.18849999821,
      "d": 102.73974999999336,
      "v": 127
    },
    {
      "midi": 62,
      "hit": false,
      "t": 103561.6679999982,
      "d": 51.36987500000396,
      "v": 127
    },
    {
      "midi": 59,
      "hit": false,
      "t": 103561.6679999982,
      "d": 68.4931666666671,
      "v": 127
    },
    {
      "midi": 88,
      "hit": false,
      "t": 103561.6679999982,
      "d": 85.61645833333023,
      "v": 127
    },
    {
      "midi": 40,
      "hit": false,
      "t": 103561.6679999982,
      "d": 102.73974999999336,
      "v": 127
    },
    {
      "midi": 67,
      "hit": false,
      "t": 103561.6679999982,
      "d": 102.73974999999336,
      "v": 127
    },
    {
      "midi": 88,
      "hit": false,
      "t": 103767.14749999819,
      "d": 119.8630416666565,
      "v": 123
    },
    {
      "midi": 91,
      "hit": false,
      "t": 103869.88724999818,
      "d": 136.98633333331964,
      "v": 107
    },
    {
      "midi": 64,
      "hit": false,
      "t": 103972.62699999817,
      "d": 34.24658333332627,
      "v": 127
    },
    {
      "midi": 67,
      "hit": false,
      "t": 103972.62699999817,
      "d": 34.24658333332627,
      "v": 127
    },
    {
      "midi": 59,
      "hit": false,
      "t": 103972.62699999817,
      "d": 51.369874999989406,
      "v": 127
    },
    {
      "midi": 95,
      "hit": false,
      "t": 103972.62699999817,
      "d": 171.23291666666046,
      "v": 116
    },
    {
      "midi": 91,
      "hit": false,
      "t": 104178.10649999816,
      "d": 119.86304166667105,
      "v": 127
    },
    {
      "midi": 59,
      "hit": false,
      "t": 104178.10649999816,
      "d": 479.45216666666965,
      "v": 127
    },
    {
      "midi": 67,
      "hit": false,
      "t": 104178.10649999816,
      "d": 479.45216666666965,
      "v": 127
    },
    {
      "midi": 64,
      "hit": false,
      "t": 104178.10649999816,
      "d": 496.5754583333328,
      "v": 127
    },
    {
      "midi": 88,
      "hit": false,
      "t": 104383.58599999816,
      "d": 119.86304166667105,
      "v": 127
    },
    {
      "midi": 91,
      "hit": false,
      "t": 104589.06549999816,
      "d": 119.8630416666565,
      "v": 127
    },
    {
      "midi": 40,
      "hit": false,
      "t": 104589.06549999816,
      "d": 136.98633333331964,
      "v": 127
    },
    {
      "midi": 95,
      "hit": false,
      "t": 104794.54499999815,
      "d": 136.9863333333342,
      "v": 127
    },
    {
      "midi": 59,
      "hit": false,
      "t": 104794.54499999815,
      "d": 154.10962499999732,
      "v": 127
    },
    {
      "midi": 64,
      "hit": false,
      "t": 104794.54499999815,
      "d": 256.84937500000524,
      "v": 127
    },
    {
      "midi": 67,
      "hit": false,
      "t": 104794.54499999815,
      "d": 273.9726666666684,
      "v": 127
    },
    {
      "midi": 50,
      "hit": false,
      "t": 105000.02449999815,
      "d": 85.61645833333023,
      "v": 127
    },
    {
      "midi": 91,
      "hit": false,
      "t": 105000.02449999815,
      "d": 102.73974999999336,
      "v": 127
    },
    {
      "midi": 86,
      "hit": false,
      "t": 105205.50399999814,
      "d": 85.61645833333023,
      "v": 127
    },
    {
      "midi": 43,
      "hit": false,
      "t": 105205.50399999814,
      "d": 102.73974999999336,
      "v": 127
    },
    {
      "midi": 59,
      "hit": false,
      "t": 105205.50399999814,
      "d": 119.8630416666565,
      "v": 127
    },
    {
      "midi": 62,
      "hit": false,
      "t": 105205.50399999814,
      "d": 119.8630416666565,
      "v": 127
    },
    {
      "midi": 67,
      "hit": false,
      "t": 105205.50399999814,
      "d": 136.98633333331964,
      "v": 127
    },
    {
      "midi": 50,
      "hit": false,
      "t": 105410.98349999812,
      "d": 68.4931666666671,
      "v": 127
    },
    {
      "midi": 86,
      "hit": false,
      "t": 105410.98349999812,
      "d": 102.73974999999336,
      "v": 122
    },
    {
      "midi": 91,
      "hit": false,
      "t": 105513.72324999812,
      "d": 136.98633333331964,
      "v": 126
    },
    {
      "midi": 59,
      "hit": false,
      "t": 105616.46299999811,
      "d": 68.49316666665254,
      "v": 127
    },
    {
      "midi": 62,
      "hit": false,
      "t": 105616.46299999811,
      "d": 68.49316666665254,
      "v": 127
    },
    {
      "midi": 67,
      "hit": false,
      "t": 105616.46299999811,
      "d": 68.49316666665254,
      "v": 127
    },
    {
      "midi": 95,
      "hit": false,
      "t": 105616.46299999811,
      "d": 171.2329166666459,
      "v": 127
    },
    {
      "midi": 91,
      "hit": false,
      "t": 105821.94249999808,
      "d": 136.9863333333342,
      "v": 127
    },
    {
      "midi": 59,
      "hit": false,
      "t": 105821.94249999808,
      "d": 496.5754583333328,
      "v": 127
    },
    {
      "midi": 62,
      "hit": false,
      "t": 105821.94249999808,
      "d": 496.5754583333328,
      "v": 127
    },
    {
      "midi": 67,
      "hit": false,
      "t": 105821.94249999808,
      "d": 496.5754583333328,
      "v": 127
    },
    {
      "midi": 86,
      "hit": false,
      "t": 106027.42199999809,
      "d": 136.9863333333342,
      "v": 125
    },
    {
      "midi": 50,
      "hit": false,
      "t": 106232.90149999809,
      "d": 119.8630416666565,
      "v": 127
    },
    {
      "midi": 91,
      "hit": false,
      "t": 106232.90149999809,
      "d": 119.8630416666565,
      "v": 127
    },
    {
      "midi": 43,
      "hit": false,
      "t": 106232.90149999809,
      "d": 188.3562083333236,
      "v": 127
    },
    {
      "midi": 59,
      "hit": false,
      "t": 106438.38099999807,
      "d": 85.61645833333023,
      "v": 127
    },
    {
      "midi": 95,
      "hit": false,
      "t": 106438.38099999807,
      "d": 154.10962499999732,
      "v": 123
    },
    {
      "midi": 62,
      "hit": false,
      "t": 106438.38099999807,
      "d": 222.60279166666442,
      "v": 127
    },
    {
      "midi": 67,
      "hit": false,
      "t": 106438.38099999807,
      "d": 291.0959583333315,
      "v": 127
    },
    {
      "midi": 91,
      "hit": false,
      "t": 106643.86049999807,
      "d": 102.73974999999336,
      "v": 127
    },
    {
      "midi": 59,
      "hit": false,
      "t": 106643.86049999807,
      "d": 119.8630416666565,
      "v": 127
    },
    {
      "midi": 59,
      "hit": false,
      "t": 106849.33999999806,
      "d": 102.73974999999336,
      "v": 127
    },
    {
      "midi": 64,
      "hit": false,
      "t": 106849.33999999806,
      "d": 102.73974999999336,
      "v": 127
    },
    {
      "midi": 88,
      "hit": false,
      "t": 106849.33999999806,
      "d": 102.73974999999336,
      "v": 127
    },
    {
      "midi": 40,
      "hit": false,
      "t": 106849.33999999806,
      "d": 119.8630416666565,
      "v": 127
    },
    {
      "midi": 67,
      "hit": false,
      "t": 106849.33999999806,
      "d": 136.98633333331964,
      "v": 127
    },
    {
      "midi": 88,
      "hit": false,
      "t": 107054.81949999805,
      "d": 119.8630416666565,
      "v": 122
    },
    {
      "midi": 91,
      "hit": false,
      "t": 107157.55924999804,
      "d": 136.98633333331964,
      "v": 119
    },
    {
      "midi": 64,
      "hit": false,
      "t": 107260.29899999803,
      "d": 51.369874999989406,
      "v": 127
    },
    {
      "midi": 67,
      "hit": false,
      "t": 107260.29899999803,
      "d": 51.369874999989406,
      "v": 127
    },
    {
      "midi": 59,
      "hit": false,
      "t": 107260.29899999803,
      "d": 68.49316666665254,
      "v": 127
    },
    {
      "midi": 95,
      "hit": false,
      "t": 107260.29899999803,
      "d": 136.98633333331964,
      "v": 118
    },
    {
      "midi": 91,
      "hit": false,
      "t": 107465.77849999802,
      "d": 119.86304166667105,
      "v": 127
    },
    {
      "midi": 59,
      "hit": false,
      "t": 107465.77849999802,
      "d": 445.20558333332883,
      "v": 127
    },
    {
      "midi": 64,
      "hit": false,
      "t": 107465.77849999802,
      "d": 445.20558333332883,
      "v": 127
    },
    {
      "midi": 67,
      "hit": false,
      "t": 107465.77849999802,
      "d": 445.20558333332883,
      "v": 127
    },
    {
      "midi": 88,
      "hit": false,
      "t": 107671.25799999802,
      "d": 119.86304166667105,
      "v": 127
    },
    {
      "midi": 91,
      "hit": false,
      "t": 107876.73749999802,
      "d": 102.73974999999336,
      "v": 127
    },
    {
      "midi": 40,
      "hit": false,
      "t": 107876.73749999802,
      "d": 119.8630416666565,
      "v": 127
    },
    {
      "midi": 95,
      "hit": false,
      "t": 108082.21699999801,
      "d": 102.73974999999336,
      "v": 127
    },
    {
      "midi": 59,
      "hit": false,
      "t": 108082.21699999801,
      "d": 256.8493749999907,
      "v": 127
    },
    {
      "midi": 64,
      "hit": false,
      "t": 108082.21699999801,
      "d": 256.8493749999907,
      "v": 127
    },
    {
      "midi": 67,
      "hit": false,
      "t": 108082.21699999801,
      "d": 273.9726666666538,
      "v": 127
    },
    {
      "midi": 91,
      "hit": false,
      "t": 108184.956749998,
      "d": 102.73974999999336,
      "v": 127
    },
    {
      "midi": 88,
      "hit": false,
      "t": 108287.696499998,
      "d": 85.61645833333023,
      "v": 126
    },
    {
      "midi": 50,
      "hit": false,
      "t": 108493.175999998,
      "d": 68.4931666666671,
      "v": 127
    },
    {
      "midi": 43,
      "hit": false,
      "t": 108493.175999998,
      "d": 85.61645833333023,
      "v": 127
    },
    {
      "midi": 59,
      "hit": false,
      "t": 108493.175999998,
      "d": 85.61645833333023,
      "v": 127
    },
    {
      "midi": 62,
      "hit": false,
      "t": 108493.175999998,
      "d": 102.73974999999336,
      "v": 127
    },
    {
      "midi": 86,
      "hit": false,
      "t": 108493.175999998,
      "d": 102.73974999999336,
      "v": 126
    },
    {
      "midi": 67,
      "hit": false,
      "t": 108493.175999998,
      "d": 119.8630416666565,
      "v": 127
    },
    {
      "midi": 86,
      "hit": false,
      "t": 108698.65549999799,
      "d": 85.61645833333023,
      "v": 125
    },
    {
      "midi": 91,
      "hit": false,
      "t": 108801.39524999798,
      "d": 119.8630416666565,
      "v": 122
    },
    {
      "midi": 50,
      "hit": false,
      "t": 108904.13499999797,
      "d": 68.4931666666671,
      "v": 127
    },
    {
      "midi": 43,
      "hit": false,
      "t": 108904.13499999797,
      "d": 85.61645833333023,
      "v": 127
    },
    {
      "midi": 95,
      "hit": false,
      "t": 108904.13499999797,
      "d": 119.8630416666565,
      "v": 127
    },
    {
      "midi": 91,
      "hit": false,
      "t": 109109.61449999796,
      "d": 119.86304166667105,
      "v": 127
    },
    {
      "midi": 59,
      "hit": false,
      "t": 109109.61449999796,
      "d": 479.45216666666965,
      "v": 127
    },
    {
      "midi": 62,
      "hit": false,
      "t": 109109.61449999796,
      "d": 496.5754583333328,
      "v": 127
    },
    {
      "midi": 67,
      "hit": false,
      "t": 109109.61449999796,
      "d": 496.5754583333328,
      "v": 127
    },
    {
      "midi": 86,
      "hit": false,
      "t": 109315.09399999796,
      "d": 119.86304166667105,
      "v": 125
    },
    {
      "midi": 43,
      "hit": false,
      "t": 109520.57349999796,
      "d": 85.61645833333023,
      "v": 127
    },
    {
      "midi": 50,
      "hit": false,
      "t": 109520.57349999796,
      "d": 85.61645833333023,
      "v": 127
    },
    {
      "midi": 91,
      "hit": false,
      "t": 109520.57349999796,
      "d": 102.73974999999336,
      "v": 127
    },
    {
      "midi": 59,
      "hit": false,
      "t": 109726.05299999795,
      "d": 85.61645833333023,
      "v": 127
    },
    {
      "midi": 95,
      "hit": false,
      "t": 109726.05299999795,
      "d": 154.10962499999732,
      "v": 126
    },
    {
      "midi": 62,
      "hit": false,
      "t": 109726.05299999795,
      "d": 222.60279166666442,
      "v": 127
    },
    {
      "midi": 67,
      "hit": false,
      "t": 109726.05299999795,
      "d": 308.21924999999464,
      "v": 127
    },
    {
      "midi": 59,
      "hit": false,
      "t": 109931.53249999795,
      "d": 102.73974999999336,
      "v": 127
    },
    {
      "midi": 91,
      "hit": false,
      "t": 109931.53249999795,
      "d": 119.8630416666565,
      "v": 127
    },
    {
      "midi": 88,
      "hit": false,
      "t": 110137.01199999794,
      "d": 85.61645833333023,
      "v": 127
    },
    {
      "midi": 40,
      "hit": false,
      "t": 110137.01199999794,
      "d": 102.73974999999336,
      "v": 127
    },
    {
      "midi": 59,
      "hit": false,
      "t": 110137.01199999794,
      "d": 119.8630416666565,
      "v": 127
    },
    {
      "midi": 64,
      "hit": false,
      "t": 110137.01199999794,
      "d": 119.8630416666565,
      "v": 127
    },
    {
      "midi": 67,
      "hit": false,
      "t": 110137.01199999794,
      "d": 136.98633333331964,
      "v": 127
    },
    {
      "midi": 88,
      "hit": false,
      "t": 110342.49149999792,
      "d": 119.8630416666565,
      "v": 123
    },
    {
      "midi": 91,
      "hit": false,
      "t": 110445.23124999792,
      "d": 119.8630416666565,
      "v": 118
    },
    {
      "midi": 67,
      "hit": false,
      "t": 110547.97099999791,
      "d": 34.24658333332627,
      "v": 127
    },
    {
      "midi": 59,
      "hit": false,
      "t": 110547.97099999791,
      "d": 51.369874999989406,
      "v": 127
    },
    {
      "midi": 64,
      "hit": false,
      "t": 110547.97099999791,
      "d": 51.369874999989406,
      "v": 127
    },
    {
      "midi": 95,
      "hit": false,
      "t": 110547.97099999791,
      "d": 188.3562083333236,
      "v": 125
    },
    {
      "midi": 91,
      "hit": false,
      "t": 110753.4504999979,
      "d": 136.9863333333342,
      "v": 127
    },
    {
      "midi": 59,
      "hit": false,
      "t": 110753.4504999979,
      "d": 479.45216666666965,
      "v": 127
    },
    {
      "midi": 67,
      "hit": false,
      "t": 110753.4504999979,
      "d": 479.45216666666965,
      "v": 127
    },
    {
      "midi": 64,
      "hit": false,
      "t": 110753.4504999979,
      "d": 496.5754583333328,
      "v": 127
    },
    {
      "midi": 88,
      "hit": false,
      "t": 110958.9299999979,
      "d": 119.86304166667105,
      "v": 127
    },
    {
      "midi": 91,
      "hit": false,
      "t": 111164.4094999979,
      "d": 102.73974999999336,
      "v": 127
    },
    {
      "midi": 40,
      "hit": false,
      "t": 111164.4094999979,
      "d": 119.8630416666565,
      "v": 127
    },
    {
      "midi": 95,
      "hit": false,
      "t": 111369.88899999789,
      "d": 136.9863333333342,
      "v": 116
    },
    {
      "midi": 59,
      "hit": false,
      "t": 111369.88899999789,
      "d": 273.9726666666684,
      "v": 127
    },
    {
      "midi": 64,
      "hit": false,
      "t": 111369.88899999789,
      "d": 273.9726666666684,
      "v": 127
    },
    {
      "midi": 67,
      "hit": false,
      "t": 111369.88899999789,
      "d": 273.9726666666684,
      "v": 127
    },
    {
      "midi": 50,
      "hit": false,
      "t": 111575.36849999789,
      "d": 68.4931666666671,
      "v": 127
    },
    {
      "midi": 91,
      "hit": false,
      "t": 111575.36849999789,
      "d": 85.61645833333023,
      "v": 127
    },
    {
      "midi": 86,
      "hit": false,
      "t": 111780.84799999789,
      "d": 85.61645833333023,
      "v": 127
    },
    {
      "midi": 43,
      "hit": false,
      "t": 111780.84799999789,
      "d": 102.73974999999336,
      "v": 127
    },
    {
      "midi": 59,
      "hit": false,
      "t": 111780.84799999789,
      "d": 171.23291666666046,
      "v": 127
    },
    {
      "midi": 67,
      "hit": false,
      "t": 111780.84799999789,
      "d": 171.23291666666046,
      "v": 127
    },
    {
      "midi": 62,
      "hit": false,
      "t": 111780.84799999789,
      "d": 188.3562083333236,
      "v": 127
    },
    {
      "midi": 86,
      "hit": false,
      "t": 111986.32749999787,
      "d": 119.8630416666565,
      "v": 126
    },
    {
      "midi": 91,
      "hit": false,
      "t": 112089.06724999787,
      "d": 119.8630416666565,
      "v": 120
    },
    {
      "midi": 95,
      "hit": false,
      "t": 112191.80699999786,
      "d": 85.61645833333023,
      "v": 116
    },
    {
      "midi": 91,
      "hit": false,
      "t": 112397.28649999786,
      "d": 119.86304166667105,
      "v": 127
    },
    {
      "midi": 59,
      "hit": false,
      "t": 112397.28649999786,
      "d": 479.45216666666965,
      "v": 127
    },
    {
      "midi": 62,
      "hit": false,
      "t": 112397.28649999786,
      "d": 479.45216666666965,
      "v": 127
    },
    {
      "midi": 67,
      "hit": false,
      "t": 112397.28649999786,
      "d": 479.45216666666965,
      "v": 127
    },
    {
      "midi": 86,
      "hit": false,
      "t": 112602.76599999786,
      "d": 119.86304166667105,
      "v": 112
    },
    {
      "midi": 43,
      "hit": false,
      "t": 112808.24549999787,
      "d": 85.61645833333023,
      "v": 127
    },
    {
      "midi": 50,
      "hit": false,
      "t": 112808.24549999787,
      "d": 102.73974999999336,
      "v": 127
    },
    {
      "midi": 91,
      "hit": false,
      "t": 112808.24549999787,
      "d": 102.73974999999336,
      "v": 127
    },
    {
      "midi": 59,
      "hit": false,
      "t": 113013.72499999785,
      "d": 68.4931666666671,
      "v": 127
    },
    {
      "midi": 95,
      "hit": false,
      "t": 113013.72499999785,
      "d": 119.86304166667105,
      "v": 126
    },
    {
      "midi": 62,
      "hit": false,
      "t": 113013.72499999785,
      "d": 205.47950000000128,
      "v": 127
    },
    {
      "midi": 67,
      "hit": false,
      "t": 113013.72499999785,
      "d": 273.9726666666684,
      "v": 127
    },
    {
      "midi": 91,
      "hit": false,
      "t": 113219.20449999785,
      "d": 102.73974999999336,
      "v": 127
    },
    {
      "midi": 59,
      "hit": false,
      "t": 113219.20449999785,
      "d": 119.8630416666565,
      "v": 127
    },
    {
      "midi": 88,
      "hit": false,
      "t": 113424.68399999784,
      "d": 102.73974999999336,
      "v": 127
    },
    {
      "midi": 59,
      "hit": false,
      "t": 113424.68399999784,
      "d": 222.60279166664986,
      "v": 127
    },
    {
      "midi": 64,
      "hit": false,
      "t": 113424.68399999784,
      "d": 222.60279166664986,
      "v": 127
    },
    {
      "midi": 40,
      "hit": false,
      "t": 113424.68399999784,
      "d": 239.726083333313,
      "v": 127
    },
    {
      "midi": 67,
      "hit": false,
      "t": 113424.68399999784,
      "d": 239.726083333313,
      "v": 127
    },
    {
      "midi": 88,
      "hit": false,
      "t": 113630.16349999783,
      "d": 102.73974999999336,
      "v": 118
    },
    {
      "midi": 91,
      "hit": false,
      "t": 113732.90324999782,
      "d": 136.98633333331964,
      "v": 123
    },
    {
      "midi": 95,
      "hit": false,
      "t": 113835.64299999781,
      "d": 102.73974999999336,
      "v": 118
    },
    {
      "midi": 91,
      "hit": false,
      "t": 114041.1224999978,
      "d": 119.86304166667105,
      "v": 127
    },
    {
      "midi": 59,
      "hit": false,
      "t": 114041.1224999978,
      "d": 428.08229166665114,
      "v": 127
    },
    {
      "midi": 64,
      "hit": false,
      "t": 114041.1224999978,
      "d": 445.2055833333143,
      "v": 127
    },
    {
      "midi": 67,
      "hit": false,
      "t": 114041.1224999978,
      "d": 445.2055833333143,
      "v": 127
    },
    {
      "midi": 88,
      "hit": false,
      "t": 114246.6019999978,
      "d": 119.8630416666565,
      "v": 122
    },
    {
      "midi": 91,
      "hit": false,
      "t": 114452.08149999779,
      "d": 102.73974999999336,
      "v": 127
    },
    {
      "midi": 40,
      "hit": false,
      "t": 114452.08149999779,
      "d": 119.8630416666565,
      "v": 127
    },
    {
      "midi": 95,
      "hit": false,
      "t": 114657.56099999778,
      "d": 136.9863333333342,
      "v": 127
    },
    {
      "midi": 59,
      "hit": false,
      "t": 114657.56099999778,
      "d": 205.47950000000128,
      "v": 127
    },
    {
      "midi": 64,
      "hit": false,
      "t": 114657.56099999778,
      "d": 222.60279166666442,
      "v": 127
    },
    {
      "midi": 67,
      "hit": false,
      "t": 114657.56099999778,
      "d": 222.60279166666442,
      "v": 127
    },
    {
      "midi": 50,
      "hit": false,
      "t": 114863.04049999778,
      "d": 68.4931666666671,
      "v": 127
    },
    {
      "midi": 91,
      "hit": false,
      "t": 114863.04049999778,
      "d": 85.61645833333023,
      "v": 127
    },
    {
      "midi": 59,
      "hit": false,
      "t": 115068.51999999776,
      "d": 85.61645833333023,
      "v": 127
    },
    {
      "midi": 62,
      "hit": false,
      "t": 115068.51999999776,
      "d": 85.61645833333023,
      "v": 127
    },
    {
      "midi": 86,
      "hit": false,
      "t": 115068.51999999776,
      "d": 85.61645833333023,
      "v": 127
    },
    {
      "midi": 67,
      "hit": false,
      "t": 115068.51999999776,
      "d": 102.73974999999336,
      "v": 127
    },
    {
      "midi": 62,
      "hit": false,
      "t": 115273.99949999775,
      "d": 51.36987500000396,
      "v": 127
    },
    {
      "midi": 67,
      "hit": false,
      "t": 115273.99949999775,
      "d": 51.36987500000396,
      "v": 127
    },
    {
      "midi": 59,
      "hit": false,
      "t": 115273.99949999775,
      "d": 68.4931666666671,
      "v": 127
    },
    {
      "midi": 86,
      "hit": false,
      "t": 115273.99949999775,
      "d": 102.73974999999336,
      "v": 127
    },
    {
      "midi": 91,
      "hit": false,
      "t": 115376.73924999774,
      "d": 119.8630416666565,
      "v": 123
    },
    {
      "midi": 59,
      "hit": false,
      "t": 115479.47899999774,
      "d": 68.4931666666671,
      "v": 127
    },
    {
      "midi": 62,
      "hit": false,
      "t": 115479.47899999774,
      "d": 68.4931666666671,
      "v": 127
    },
    {
      "midi": 67,
      "hit": false,
      "t": 115479.47899999774,
      "d": 85.61645833333023,
      "v": 127
    },
    {
      "midi": 95,
      "hit": false,
      "t": 115479.47899999774,
      "d": 119.8630416666565,
      "v": 126
    },
    {
      "midi": 91,
      "hit": false,
      "t": 115684.95849999772,
      "d": 136.9863333333342,
      "v": 127
    },
    {
      "midi": 59,
      "hit": false,
      "t": 115684.95849999772,
      "d": 445.2055833333143,
      "v": 127
    },
    {
      "midi": 67,
      "hit": false,
      "t": 115684.95849999772,
      "d": 445.2055833333143,
      "v": 127
    },
    {
      "midi": 62,
      "hit": false,
      "t": 115684.95849999772,
      "d": 479.45216666664055,
      "v": 127
    },
    {
      "midi": 86,
      "hit": false,
      "t": 115890.43799999772,
      "d": 119.86304166667105,
      "v": 123
    },
    {
      "midi": 50,
      "hit": false,
      "t": 116095.91749999771,
      "d": 102.73974999997881,
      "v": 127
    },
    {
      "midi": 91,
      "hit": false,
      "t": 116095.91749999771,
      "d": 102.73974999997881,
      "v": 127
    },
    {
      "midi": 43,
      "hit": false,
      "t": 116095.91749999771,
      "d": 119.86304166664195,
      "v": 127
    },
    {
      "midi": 59,
      "hit": false,
      "t": 116301.39699999768,
      "d": 68.4931666666671,
      "v": 127
    },
    {
      "midi": 95,
      "hit": false,
      "t": 116301.39699999768,
      "d": 136.9863333333342,
      "v": 127
    },
    {
      "midi": 62,
      "hit": false,
      "t": 116301.39699999768,
      "d": 154.10962499999732,
      "v": 127
    },
    {
      "midi": 67,
      "hit": false,
      "t": 116301.39699999768,
      "d": 291.0959583333315,
      "v": 127
    },
    {
      "midi": 59,
      "hit": false,
      "t": 116506.87649999768,
      "d": 102.73974999999336,
      "v": 127
    },
    {
      "midi": 91,
      "hit": false,
      "t": 116506.87649999768,
      "d": 102.73974999999336,
      "v": 127
    },
    {
      "midi": 59,
      "hit": false,
      "t": 116712.35599999767,
      "d": 68.4931666666671,
      "v": 127
    },
    {
      "midi": 64,
      "hit": false,
      "t": 116712.35599999767,
      "d": 85.61645833333023,
      "v": 127
    },
    {
      "midi": 40,
      "hit": false,
      "t": 116712.35599999767,
      "d": 102.73974999999336,
      "v": 127
    },
    {
      "midi": 67,
      "hit": false,
      "t": 116712.35599999767,
      "d": 102.73974999999336,
      "v": 127
    },
    {
      "midi": 88,
      "hit": false,
      "t": 116712.35599999767,
      "d": 102.73974999999336,
      "v": 127
    },
    {
      "midi": 64,
      "hit": false,
      "t": 116917.83549999766,
      "d": 68.4931666666671,
      "v": 127
    },
    {
      "midi": 59,
      "hit": false,
      "t": 116917.83549999766,
      "d": 85.61645833333023,
      "v": 127
    },
    {
      "midi": 67,
      "hit": false,
      "t": 116917.83549999766,
      "d": 85.61645833333023,
      "v": 127
    },
    {
      "midi": 88,
      "hit": false,
      "t": 116917.83549999766,
      "d": 102.73974999999336,
      "v": 122
    },
    {
      "midi": 91,
      "hit": false,
      "t": 117020.57524999765,
      "d": 154.10962499999732,
      "v": 119
    },
    {
      "midi": 59,
      "hit": false,
      "t": 117123.31499999764,
      "d": 68.4931666666671,
      "v": 127
    },
    {
      "midi": 64,
      "hit": false,
      "t": 117123.31499999764,
      "d": 68.4931666666671,
      "v": 127
    },
    {
      "midi": 67,
      "hit": false,
      "t": 117123.31499999764,
      "d": 68.4931666666671,
      "v": 127
    },
    {
      "midi": 95,
      "hit": false,
      "t": 117123.31499999764,
      "d": 136.9863333333342,
      "v": 122
    },
    {
      "midi": 91,
      "hit": false,
      "t": 117328.79449999765,
      "d": 119.86304166667105,
      "v": 127
    },
    {
      "midi": 59,
      "hit": false,
      "t": 117328.79449999765,
      "d": 479.45216666666965,
      "v": 127
    },
    {
      "midi": 64,
      "hit": false,
      "t": 117328.79449999765,
      "d": 496.5754583333328,
      "v": 127
    },
    {
      "midi": 67,
      "hit": false,
      "t": 117328.79449999765,
      "d": 496.5754583333328,
      "v": 127
    },
    {
      "midi": 88,
      "hit": false,
      "t": 117534.27399999765,
      "d": 119.86304166667105,
      "v": 127
    },
    {
      "midi": 91,
      "hit": false,
      "t": 117739.75349999765,
      "d": 102.73974999999336,
      "v": 127
    },
    {
      "midi": 40,
      "hit": false,
      "t": 117739.75349999765,
      "d": 136.98633333331964,
      "v": 127
    },
    {
      "midi": 95,
      "hit": false,
      "t": 117945.23299999764,
      "d": 136.9863333333342,
      "v": 125
    },
    {
      "midi": 59,
      "hit": false,
      "t": 117945.23299999764,
      "d": 239.72608333332755,
      "v": 127
    },
    {
      "midi": 64,
      "hit": false,
      "t": 117945.23299999764,
      "d": 256.8493749999907,
      "v": 127
    },
    {
      "midi": 67,
      "hit": false,
      "t": 117945.23299999764,
      "d": 256.8493749999907,
      "v": 127
    },
    {
      "midi": 50,
      "hit": false,
      "t": 118150.71249999764,
      "d": 85.61645833331568,
      "v": 127
    },
    {
      "midi": 91,
      "hit": false,
      "t": 118150.71249999764,
      "d": 102.73974999997881,
      "v": 127
    },
    {
      "midi": 59,
      "hit": false,
      "t": 118356.19199999761,
      "d": 68.4931666666671,
      "v": 127
    },
    {
      "midi": 62,
      "hit": false,
      "t": 118356.19199999761,
      "d": 68.4931666666671,
      "v": 127
    },
    {
      "midi": 67,
      "hit": false,
      "t": 118356.19199999761,
      "d": 85.61645833333023,
      "v": 127
    },
    {
      "midi": 86,
      "hit": false,
      "t": 118356.19199999761,
      "d": 85.61645833333023,
      "v": 127
    },
    {
      "midi": 59,
      "hit": false,
      "t": 118561.67149999761,
      "d": 85.61645833333023,
      "v": 127
    },
    {
      "midi": 62,
      "hit": false,
      "t": 118561.67149999761,
      "d": 85.61645833333023,
      "v": 127
    },
    {
      "midi": 67,
      "hit": false,
      "t": 118561.67149999761,
      "d": 85.61645833333023,
      "v": 127
    },
    {
      "midi": 86,
      "hit": false,
      "t": 118561.67149999761,
      "d": 119.8630416666565,
      "v": 126
    },
    {
      "midi": 91,
      "hit": false,
      "t": 118664.4112499976,
      "d": 119.8630416666565,
      "v": 127
    },
    {
      "midi": 95,
      "hit": false,
      "t": 118767.1509999976,
      "d": 51.369874999989406,
      "v": 111
    },
    {
      "midi": 43,
      "hit": false,
      "t": 118767.1509999976,
      "d": 85.61645833331568,
      "v": 127
    },
    {
      "midi": 95,
      "hit": false,
      "t": 118972.63049999758,
      "d": 136.9863333333342,
      "v": 127
    },
    {
      "midi": 59,
      "hit": false,
      "t": 118972.63049999758,
      "d": 479.45216666666965,
      "v": 127
    },
    {
      "midi": 62,
      "hit": false,
      "t": 118972.63049999758,
      "d": 479.45216666666965,
      "v": 127
    },
    {
      "midi": 67,
      "hit": false,
      "t": 118972.63049999758,
      "d": 479.45216666666965,
      "v": 127
    },
    {
      "midi": 91,
      "hit": false,
      "t": 119178.10999999758,
      "d": 136.9863333333342,
      "v": 127
    },
    {
      "midi": 50,
      "hit": false,
      "t": 119383.58949999759,
      "d": 102.73974999999336,
      "v": 127
    },
    {
      "midi": 88,
      "hit": false,
      "t": 119383.58949999759,
      "d": 102.73974999999336,
      "v": 114
    },
    {
      "midi": 43,
      "hit": false,
      "t": 119383.58949999759,
      "d": 119.8630416666565,
      "v": 127
    },
    {
      "midi": 91,
      "hit": false,
      "t": 119589.06899999757,
      "d": 154.10962499999732,
      "v": 127
    },
    {
      "midi": 59,
      "hit": false,
      "t": 119589.06899999757,
      "d": 291.0959583333315,
      "v": 127
    },
    {
      "midi": 62,
      "hit": false,
      "t": 119589.06899999757,
      "d": 308.21924999999464,
      "v": 127
    },
    {
      "midi": 67,
      "hit": false,
      "t": 119589.06899999757,
      "d": 325.3425416666578,
      "v": 127
    },
    {
      "midi": 47,
      "hit": false,
      "t": 119794.54849999757,
      "d": 85.61645833333023,
      "v": 127
    },
    {
      "midi": 88,
      "hit": false,
      "t": 119794.54849999757,
      "d": 102.73974999999336,
      "v": 127
    },
    {
      "midi": 88,
      "hit": false,
      "t": 120000.02799999756,
      "d": 119.86304166667105,
      "v": 127
    },
    {
      "midi": 59,
      "hit": false,
      "t": 120000.02799999756,
      "d": 136.9863333333342,
      "v": 127
    },
    {
      "midi": 64,
      "hit": false,
      "t": 120000.02799999756,
      "d": 136.9863333333342,
      "v": 127
    },
    {
      "midi": 67,
      "hit": false,
      "t": 120000.02799999756,
      "d": 154.10962499999732,
      "v": 127
    },
    {
      "midi": 40,
      "hit": false,
      "t": 120000.02799999756,
      "d": 239.72608333332755,
      "v": 127
    },
    {
      "midi": 59,
      "hit": false,
      "t": 120205.50749999756,
      "d": 68.49316666665254,
      "v": 127
    },
    {
      "midi": 64,
      "hit": false,
      "t": 120205.50749999756,
      "d": 68.49316666665254,
      "v": 127
    },
    {
      "midi": 67,
      "hit": false,
      "t": 120205.50749999756,
      "d": 68.49316666665254,
      "v": 127
    },
    {
      "midi": 88,
      "hit": false,
      "t": 120205.50749999756,
      "d": 102.73974999997881,
      "v": 111
    },
    {
      "midi": 91,
      "hit": false,
      "t": 120308.24724999754,
      "d": 119.8630416666565,
      "v": 127
    },
    {
      "midi": 59,
      "hit": false,
      "t": 120410.98699999753,
      "d": 68.4931666666671,
      "v": 127
    },
    {
      "midi": 64,
      "hit": false,
      "t": 120410.98699999753,
      "d": 68.4931666666671,
      "v": 127
    },
    {
      "midi": 67,
      "hit": false,
      "t": 120410.98699999753,
      "d": 85.61645833333023,
      "v": 127
    },
    {
      "midi": 95,
      "hit": false,
      "t": 120410.98699999753,
      "d": 154.10962499999732,
      "v": 127
    },
    {
      "midi": 40,
      "hit": false,
      "t": 120616.46649999754,
      "d": 68.4931666666671,
      "v": 127
    },
    {
      "midi": 59,
      "hit": false,
      "t": 120616.46649999754,
      "d": 136.9863333333342,
      "v": 127
    },
    {
      "midi": 64,
      "hit": false,
      "t": 120616.46649999754,
      "d": 136.9863333333342,
      "v": 127
    },
    {
      "midi": 67,
      "hit": false,
      "t": 120616.46649999754,
      "d": 136.9863333333342,
      "v": 127
    },
    {
      "midi": 91,
      "hit": false,
      "t": 120616.46649999754,
      "d": 136.9863333333342,
      "v": 127
    },
    {
      "midi": 59,
      "hit": false,
      "t": 120821.94599999754,
      "d": 68.4931666666671,
      "v": 127
    },
    {
      "midi": 64,
      "hit": false,
      "t": 120821.94599999754,
      "d": 68.4931666666671,
      "v": 127
    },
    {
      "midi": 67,
      "hit": false,
      "t": 120821.94599999754,
      "d": 68.4931666666671,
      "v": 127
    },
    {
      "midi": 88,
      "hit": false,
      "t": 120821.94599999754,
      "d": 136.9863333333342,
      "v": 127
    },
    {
      "midi": 59,
      "hit": false,
      "t": 121027.42549999754,
      "d": 85.61645833333023,
      "v": 127
    },
    {
      "midi": 64,
      "hit": false,
      "t": 121027.42549999754,
      "d": 85.61645833333023,
      "v": 127
    },
    {
      "midi": 67,
      "hit": false,
      "t": 121027.42549999754,
      "d": 85.61645833333023,
      "v": 127
    },
    {
      "midi": 91,
      "hit": false,
      "t": 121027.42549999754,
      "d": 119.8630416666565,
      "v": 127
    },
    {
      "midi": 59,
      "hit": false,
      "t": 121232.90499999753,
      "d": 68.4931666666671,
      "v": 127
    },
    {
      "midi": 64,
      "hit": false,
      "t": 121232.90499999753,
      "d": 85.61645833333023,
      "v": 127
    },
    {
      "midi": 67,
      "hit": false,
      "t": 121232.90499999753,
      "d": 85.61645833333023,
      "v": 127
    },
    {
      "midi": 95,
      "hit": false,
      "t": 121232.90499999753,
      "d": 154.10962499999732,
      "v": 127
    },
    {
      "midi": 59,
      "hit": false,
      "t": 121438.38449999753,
      "d": 68.4931666666671,
      "v": 127
    },
    {
      "midi": 64,
      "hit": false,
      "t": 121438.38449999753,
      "d": 68.4931666666671,
      "v": 127
    },
    {
      "midi": 67,
      "hit": false,
      "t": 121438.38449999753,
      "d": 102.73974999999336,
      "v": 127
    },
    {
      "midi": 91,
      "hit": false,
      "t": 121438.38449999753,
      "d": 102.73974999999336,
      "v": 127
    },
    {
      "midi": 86,
      "hit": false,
      "t": 121643.86399999751,
      "d": 1523.9729583333392,
      "v": 127
    },
    {
      "midi": 91,
      "hit": false,
      "t": 121643.86399999751,
      "d": 1558.2195416666655,
      "v": 127
    },
    {
      "midi": 50,
      "hit": false,
      "t": 121643.86399999751,
      "d": 3458.9049166666664,
      "v": 127
    },
    {
      "midi": 43,
      "hit": false,
      "t": 121643.86399999751,
      "d": 3476.0282083333295,
      "v": 127
    },
    {
      "midi": 59,
      "hit": false,
      "t": 121643.86399999751,
      "d": 3476.0282083333295,
      "v": 127
    },
    {
      "midi": 62,
      "hit": false,
      "t": 121643.86399999751,
      "d": 3476.0282083333295,
      "v": 127
    },
    {
      "midi": 67,
      "hit": false,
      "t": 121643.86399999751,
      "d": 3510.274791666656,
      "v": 127
    }
  ]
}