{
  "jsonPath": "Unknown/Unknown/Nicolay Rimsky-Korsakov/sheherazade.json",
  "path": "Unknown\\Unknown\\Nicolay Rimsky-Korsakov\\Sheherazade.mid",
  "name": "Sheherazade",
  "difficulty": "Advanced",
  "bpm": 120,
  "notes": [
    {
      "midi": 71,
      "hit": false,
      "t": 1000,
      "d": 250,
      "v": 100
    },
    {
      "midi": 72,
      "hit": false,
      "t": 1250,
      "d": 250,
      "v": 100
    },
    {
      "midi": 74,
      "hit": false,
      "t": 1500,
      "d": 375,
      "v": 100
    },
    {
      "midi": 55,
      "hit": false,
      "t": 1500,
      "d": 2250,
      "v": 100
    },
    {
      "midi": 59,
      "hit": false,
      "t": 1500,
      "d": 2250,
      "v": 100
    },
    {
      "midi": 62,
      "hit": false,
      "t": 1500,
      "d": 2250,
      "v": 100
    },
    {
      "midi": 76,
      "hit": false,
      "t": 1875,
      "d": 125,
      "v": 100
    },
    {
      "midi": 74,
      "hit": false,
      "t": 2000,
      "d": 250,
      "v": 100
    },
    {
      "midi": 71,
      "hit": false,
      "t": 2250,
      "d": 375,
      "v": 100
    },
    {
      "midi": 69,
      "hit": false,
      "t": 2625,
      "d": 125,
      "v": 100
    },
    {
      "midi": 67,
      "hit": false,
      "t": 2750,
      "d": 250,
      "v": 100
    },
    {
      "midi": 71,
      "hit": false,
      "t": 3000,
      "d": 1000,
      "v": 100
    },
    {
      "midi": 43,
      "hit": false,
      "t": 3750,
      "d": 250,
      "v": 100
    },
    {
      "midi": 50,
      "hit": false,
      "t": 3750,
      "d": 250,
      "v": 100
    },
    {
      "midi": 71,
      "hit": false,
      "t": 4000,
      "d": 250,
      "v": 100
    },
    {
      "midi": 72,
      "hit": false,
      "t": 4250,
      "d": 250,
      "v": 100
    },
    {
      "midi": 74,
      "hit": false,
      "t": 4500,
      "d": 250,
      "v": 100
    },
    {
      "midi": 55,
      "hit": false,
      "t": 4500,
      "d": 750,
      "v": 100
    },
    {
      "midi": 59,
      "hit": false,
      "t": 4500,
      "d": 750,
      "v": 100
    },
    {
      "midi": 62,
      "hit": false,
      "t": 4500,
      "d": 750,
      "v": 100
    },
    {
      "midi": 76,
      "hit": false,
      "t": 4750,
      "d": 125,
      "v": 100
    },
    {
      "midi": 74,
      "hit": false,
      "t": 4875,
      "d": 125,
      "v": 100
    },
    {
      "midi": 76,
      "hit": false,
      "t": 5000,
      "d": 125,
      "v": 100
    },
    {
      "midi": 74,
      "hit": false,
      "t": 5125,
      "d": 125,
      "v": 100
    },
    {
      "midi": 72,
      "hit": false,
      "t": 5250,
      "d": 125,
      "v": 100
    },
    {
      "midi": 63,
      "hit": false,
      "t": 5250,
      "d": 750,
      "v": 100
    },
    {
      "midi": 71,
      "hit": false,
      "t": 5375,
      "d": 125,
      "v": 100
    },
    {
      "midi": 72,
      "hit": false,
      "t": 5500,
      "d": 125,
      "v": 100
    },
    {
      "midi": 71,
      "hit": false,
      "t": 5625,
      "d": 125,
      "v": 100
    },
    {
      "midi": 69,
      "hit": false,
      "t": 5750,
      "d": 125,
      "v": 100
    },
    {
      "midi": 67,
      "hit": false,
      "t": 5875,
      "d": 125,
      "v": 100
    },
    {
      "midi": 71,
      "hit": false,
      "t": 6000,
      "d": 750,
      "v": 100
    },
    {
      "midi": 55,
      "hit": false,
      "t": 6000,
      "d": 1500,
      "v": 100
    },
    {
      "midi": 59,
      "hit": false,
      "t": 6000,
      "d": 1500,
      "v": 100
    },
    {
      "midi": 64,
      "hit": false,
      "t": 6000,
      "d": 1500,
      "v": 100
    },
    {
      "midi": 64,
      "hit": false,
      "t": 6750,
      "d": 250,
      "v": 100
    },
    {
      "midi": 64,
      "hit": false,
      "t": 7000,
      "d": 250,
      "v": 100
    },
    {
      "midi": 67,
      "hit": false,
      "t": 7250,
      "d": 250,
      "v": 100
    },
    {
      "midi": 69,
      "hit": false,
      "t": 7500,
      "d": 375,
      "v": 100
    },
    {
      "midi": 52,
      "hit": false,
      "t": 7500,
      "d": 750,
      "v": 100
    },
    {
      "midi": 57,
      "hit": false,
      "t": 7500,
      "d": 750,
      "v": 100
    },
    {
      "midi": 61,
      "hit": false,
      "t": 7500,
      "d": 750,
      "v": 100
    },
    {
      "midi": 71,
      "hit": false,
      "t": 7875,
      "d": 125,
      "v": 100
    },
    {
      "midi": 69,
      "hit": false,
      "t": 8000,
      "d": 250,
      "v": 100
    },
    {
      "midi": 67,
      "hit": false,
      "t": 8250,
      "d": 250,
      "v": 100
    },
    {
      "midi": 51,
      "hit": false,
      "t": 8250,
      "d": 750,
      "v": 100
    },
    {
      "midi": 57,
      "hit": false,
      "t": 8250,
      "d": 750,
      "v": 100
    },
    {
      "midi": 60,
      "hit": false,
      "t": 8250,
      "d": 750,
      "v": 100
    },
    {
      "midi": 65,
      "hit": false,
      "t": 8500,
      "d": 250,
      "v": 100
    },
    {
      "midi": 67,
      "hit": false,
      "t": 8750,
      "d": 250,
      "v": 100
    },
    {
      "midi": 64,
      "hit": false,
      "t": 9000,
      "d": 750,
      "v": 100
    },
    {
      "midi": 52,
      "hit": false,
      "t": 9000,
      "d": 1500,
      "v": 100
    },
    {
      "midi": 55,
      "hit": false,
      "t": 9000,
      "d": 1500,
      "v": 100
    },
    {
      "midi": 59,
      "hit": false,
      "t": 9000,
      "d": 1500,
      "v": 100
    },
    {
      "midi": 67,
      "hit": false,
      "t": 9750,
      "d": 500,
      "v": 100
    },
    {
      "midi": 65,
      "hit": false,
      "t": 10250,
      "d": 250,
      "v": 100
    },
    {
      "midi": 64,
      "hit": false,
      "t": 10500,
      "d": 250,
      "v": 100
    },
    {
      "midi": 52,
      "hit": false,
      "t": 10500,
      "d": 750,
      "v": 100
    },
    {
      "midi": 55,
      "hit": false,
      "t": 10500,
      "d": 750,
      "v": 100
    },
    {
      "midi": 60,
      "hit": false,
      "t": 10500,
      "d": 750,
      "v": 100
    },
    {
      "midi": 65,
      "hit": false,
      "t": 10750,
      "d": 250,
      "v": 100
    },
    {
      "midi": 67,
      "hit": false,
      "t": 11000,
      "d": 250,
      "v": 100
    },
    {
      "midi": 69,
      "hit": false,
      "t": 11250,
      "d": 250,
      "v": 100
    },
    {
      "midi": 51,
      "hit": false,
      "t": 11250,
      "d": 750,
      "v": 100
    },
    {
      "midi": 55,
      "hit": false,
      "t": 11250,
      "d": 750,
      "v": 100
    },
    {
      "midi": 60,
      "hit": false,
      "t": 11250,
      "d": 750,
      "v": 100
    },
    {
      "midi": 67,
      "hit": false,
      "t": 11500,
      "d": 375,
      "v": 100
    },
    {
      "midi": 65,
      "hit": false,
      "t": 11875,
      "d": 125,
      "v": 100
    },
    {
      "midi": 67,
      "hit": false,
      "t": 12000,
      "d": 1000,
      "v": 100
    },
    {
      "midi": 50,
      "hit": false,
      "t": 12000,
      "d": 750,
      "v": 100
    },
    {
      "midi": 55,
      "hit": false,
      "t": 12000,
      "d": 750,
      "v": 100
    },
    {
      "midi": 59,
      "hit": false,
      "t": 12000,
      "d": 750,
      "v": 100
    },
    {
      "midi": 43,
      "hit": false,
      "t": 12750,
      "d": 250,
      "v": 100
    },
    {
      "midi": 67,
      "hit": false,
      "t": 13000,
      "d": 250,
      "v": 100
    },
    {
      "midi": 67,
      "hit": false,
      "t": 13250,
      "d": 250,
      "v": 100
    },
    {
      "midi": 68,
      "hit": false,
      "t": 13500,
      "d": 125,
      "v": 100
    },
    {
      "midi": 53,
      "hit": false,
      "t": 13500,
      "d": 1500,
      "v": 100
    },
    {
      "midi": 60,
      "hit": false,
      "t": 13500,
      "d": 1500,
      "v": 100
    },
    {
      "midi": 63,
      "hit": false,
      "t": 13500,
      "d": 1500,
      "v": 100
    },
    {
      "midi": 70,
      "hit": false,
      "t": 13625,
      "d": 125,
      "v": 100
    },
    {
      "midi": 72,
      "hit": false,
      "t": 13750,
      "d": 125,
      "v": 100
    },
    {
      "midi": 74,
      "hit": false,
      "t": 13875,
      "d": 125,
      "v": 100
    },
    {
      "midi": 75,
      "hit": false,
      "t": 14000,
      "d": 125,
      "v": 100
    },
    {
      "midi": 74,
      "hit": false,
      "t": 14125,
      "d": 125,
      "v": 100
    },
    {
      "midi": 77,
      "hit": false,
      "t": 14250,
      "d": 125,
      "v": 100
    },
    {
      "midi": 75,
      "hit": false,
      "t": 14375,
      "d": 125,
      "v": 100
    },
    {
      "midi": 74,
      "hit": false,
      "t": 14500,
      "d": 125,
      "v": 100
    },
    {
      "midi": 72,
      "hit": false,
      "t": 14625,
      "d": 125,
      "v": 100
    },
    {
      "midi": 70,
      "hit": false,
      "t": 14750,
      "d": 125,
      "v": 100
    },
    {
      "midi": 68,
      "hit": false,
      "t": 14875,
      "d": 125,
      "v": 100
    },
    {
      "midi": 67,
      "hit": false,
      "t": 15000,
      "d": 500,
      "v": 100
    },
    {
      "midi": 55,
      "hit": false,
      "t": 15000,
      "d": 750,
      "v": 100
    },
    {
      "midi": 59,
      "hit": false,
      "t": 15000,
      "d": 750,
      "v": 100
    },
    {
      "midi": 62,
      "hit": false,
      "t": 15000,
      "d": 750,
      "v": 100
    },
    {
      "midi": 71,
      "hit": false,
      "t": 15500,
      "d": 125,
      "v": 100
    },
    {
      "midi": 74,
      "hit": false,
      "t": 15625,
      "d": 125,
      "v": 100
    },
    {
      "midi": 79,
      "hit": false,
      "t": 15750,
      "d": 250,
      "v": 100
    },
    {
      "midi": 43,
      "hit": false,
      "t": 15750,
      "d": 250,
      "v": 100
    },
    {
      "midi": 79,
      "hit": false,
      "t": 16250,
      "d": 250,
      "v": 100
    },
    {
      "midi": 80,
      "hit": false,
      "t": 16500,
      "d": 125,
      "v": 100
    },
    {
      "midi": 65,
      "hit": false,
      "t": 16500,
      "d": 1500,
      "v": 100
    },
    {
      "midi": 72,
      "hit": false,
      "t": 16500,
      "d": 1500,
      "v": 100
    },
    {
      "midi": 75,
      "hit": false,
      "t": 16500,
      "d": 1500,
      "v": 100
    },
    {
      "midi": 82,
      "hit": false,
      "t": 16625,
      "d": 125,
      "v": 100
    },
    {
      "midi": 84,
      "hit": false,
      "t": 16750,
      "d": 125,
      "v": 100
    },
    {
      "midi": 86,
      "hit": false,
      "t": 16875,
      "d": 125,
      "v": 100
    },
    {
      "midi": 87,
      "hit": false,
      "t": 17000,
      "d": 125,
      "v": 100
    },
    {
      "midi": 86,
      "hit": false,
      "t": 17125,
      "d": 125,
      "v": 100
    },
    {
      "midi": 89,
      "hit": false,
      "t": 17250,
      "d": 125,
      "v": 100
    },
    {
      "midi": 87,
      "hit": false,
      "t": 17375,
      "d": 125,
      "v": 100
    },
    {
      "midi": 86,
      "hit": false,
      "t": 17500,
      "d": 125,
      "v": 100
    },
    {
      "midi": 84,
      "hit": false,
      "t": 17625,
      "d": 125,
      "v": 100
    },
    {
      "midi": 82,
      "hit": false,
      "t": 17750,
      "d": 125,
      "v": 100
    },
    {
      "midi": 81,
      "hit": false,
      "t": 17875,
      "d": 125,
      "v": 100
    },
    {
      "midi": 79,
      "hit": false,
      "t": 18000,
      "d": 500,
      "v": 100
    },
    {
      "midi": 67,
      "hit": false,
      "t": 18000,
      "d": 1000,
      "v": 100
    },
    {
      "midi": 71,
      "hit": false,
      "t": 18000,
      "d": 1000,
      "v": 100
    },
    {
      "midi": 74,
      "hit": false,
      "t": 18000,
      "d": 1000,
      "v": 100
    },
    {
      "midi": 83,
      "hit": false,
      "t": 18500,
      "d": 125,
      "v": 100
    },
    {
      "midi": 86,
      "hit": false,
      "t": 18625,
      "d": 125,
      "v": 100
    },
    {
      "midi": 91,
      "hit": false,
      "t": 18750,
      "d": 250,
      "v": 100
    },
    {
      "midi": 71,
      "hit": false,
      "t": 19000,
      "d": 250,
      "v": 100
    },
    {
      "midi": 72,
      "hit": false,
      "t": 19250,
      "d": 250,
      "v": 100
    },
    {
      "midi": 74,
      "hit": false,
      "t": 19500,
      "d": 375,
      "v": 100
    },
    {
      "midi": 55,
      "hit": false,
      "t": 19500,
      "d": 750,
      "v": 100
    },
    {
      "midi": 59,
      "hit": false,
      "t": 19500,
      "d": 750,
      "v": 100
    },
    {
      "midi": 66,
      "hit": false,
      "t": 19500,
      "d": 750,
      "v": 100
    },
    {
      "midi": 76,
      "hit": false,
      "t": 19875,
      "d": 125,
      "v": 100
    },
    {
      "midi": 74,
      "hit": false,
      "t": 20000,
      "d": 500,
      "v": 100
    },
    {
      "midi": 43,
      "hit": false,
      "t": 20250,
      "d": 250,
      "v": 100
    },
    {
      "midi": 71,
      "hit": false,
      "t": 20500,
      "d": 250,
      "v": 100
    },
    {
      "midi": 72,
      "hit": false,
      "t": 20750,
      "d": 250,
      "v": 100
    },
    {
      "midi": 74,
      "hit": false,
      "t": 21000,
      "d": 375,
      "v": 100
    },
    {
      "midi": 55,
      "hit": false,
      "t": 21000,
      "d": 750,
      "v": 100
    },
    {
      "midi": 59,
      "hit": false,
      "t": 21000,
      "d": 750,
      "v": 100
    },
    {
      "midi": 66,
      "hit": false,
      "t": 21000,
      "d": 750,
      "v": 100
    },
    {
      "midi": 76,
      "hit": false,
      "t": 21375,
      "d": 125,
      "v": 100
    },
    {
      "midi": 74,
      "hit": false,
      "t": 21500,
      "d": 500,
      "v": 100
    },
    {
      "midi": 43,
      "hit": false,
      "t": 21750,
      "d": 250,
      "v": 100
    },
    {
      "midi": 71,
      "hit": false,
      "t": 22000,
      "d": 250,
      "v": 100
    },
    {
      "midi": 72,
      "hit": false,
      "t": 22250,
      "d": 250,
      "v": 100
    },
    {
      "midi": 74,
      "hit": false,
      "t": 22500,
      "d": 1750,
      "v": 100
    },
    {
      "midi": 55,
      "hit": false,
      "t": 22500,
      "d": 500,
      "v": 100
    },
    {
      "midi": 59,
      "hit": false,
      "t": 22500,
      "d": 500,
      "v": 100
    },
    {
      "midi": 66,
      "hit": false,
      "t": 22500,
      "d": 500,
      "v": 100
    },
    {
      "midi": 55,
      "hit": false,
      "t": 23000,
      "d": 250,
      "v": 100
    },
    {
      "midi": 55,
      "hit": false,
      "t": 23250,
      "d": 250,
      "v": 100
    },
    {
      "midi": 55,
      "hit": false,
      "t": 23500,
      "d": 250,
      "v": 100
    },
    {
      "midi": 55,
      "hit": false,
      "t": 23750,
      "d": 250,
      "v": 100
    },
    {
      "midi": 55,
      "hit": false,
      "t": 24000,
      "d": 500,
      "v": 100
    },
    {
      "midi": 59,
      "hit": false,
      "t": 24000,
      "d": 500,
      "v": 100
    },
    {
      "midi": 66,
      "hit": false,
      "t": 24000,
      "d": 500,
      "v": 100
    },
    {
      "midi": 55,
      "hit": false,
      "t": 24500,
      "d": 250,
      "v": 100
    },
    {
      "midi": 55,
      "hit": false,
      "t": 24750,
      "d": 250,
      "v": 100
    },
    {
      "midi": 72,
      "hit": false,
      "t": 25000,
      "d": 250,
      "v": 100
    },
    {
      "midi": 55,
      "hit": false,
      "t": 25000,
      "d": 250,
      "v": 100
    },
    {
      "midi": 74,
      "hit": false,
      "t": 25250,
      "d": 250,
      "v": 100
    },
    {
      "midi": 55,
      "hit": false,
      "t": 25250,
      "d": 250,
      "v": 100
    },
    {
      "midi": 76,
      "hit": false,
      "t": 25500,
      "d": 375,
      "v": 100
    },
    {
      "midi": 48,
      "hit": false,
      "t": 25500,
      "d": 250,
      "v": 100
    },
    {
      "midi": 55,
      "hit": false,
      "t": 25750,
      "d": 250,
      "v": 100
    },
    {
      "midi": 75,
      "hit": false,
      "t": 25875,
      "d": 125,
      "v": 100
    },
    {
      "midi": 76,
      "hit": false,
      "t": 26000,
      "d": 500,
      "v": 100
    },
    {
      "midi": 60,
      "hit": false,
      "t": 26000,
      "d": 250,
      "v": 100
    },
    {
      "midi": 48,
      "hit": false,
      "t": 26250,
      "d": 250,
      "v": 100
    },
    {
      "midi": 79,
      "hit": false,
      "t": 26500,
      "d": 250,
      "v": 100
    },
    {
      "midi": 55,
      "hit": false,
      "t": 26500,
      "d": 250,
      "v": 100
    },
    {
      "midi": 77,
      "hit": false,
      "t": 26750,
      "d": 250,
      "v": 100
    },
    {
      "midi": 60,
      "hit": false,
      "t": 26750,
      "d": 250,
      "v": 100
    },
    {
      "midi": 76,
      "hit": false,
      "t": 27000,
      "d": 375,
      "v": 100
    },
    {
      "midi": 48,
      "hit": false,
      "t": 27000,
      "d": 250,
      "v": 100
    },
    {
      "midi": 55,
      "hit": false,
      "t": 27250,
      "d": 250,
      "v": 100
    },
    {
      "midi": 75,
      "hit": false,
      "t": 27375,
      "d": 125,
      "v": 100
    },
    {
      "midi": 76,
      "hit": false,
      "t": 27500,
      "d": 500,
      "v": 100
    },
    {
      "midi": 60,
      "hit": false,
      "t": 27500,
      "d": 250,
      "v": 100
    },
    {
      "midi": 48,
      "hit": false,
      "t": 27750,
      "d": 250,
      "v": 100
    },
    {
      "midi": 72,
      "hit": false,
      "t": 28000,
      "d": 250,
      "v": 100
    },
    {
      "midi": 55,
      "hit": false,
      "t": 28000,
      "d": 250,
      "v": 100
    },
    {
      "midi": 74,
      "hit": false,
      "t": 28250,
      "d": 250,
      "v": 100
    },
    {
      "midi": 60,
      "hit": false,
      "t": 28250,
      "d": 250,
      "v": 100
    },
    {
      "midi": 76,
      "hit": false,
      "t": 28500,
      "d": 375,
      "v": 100
    },
    {
      "midi": 48,
      "hit": false,
      "t": 28500,
      "d": 250,
      "v": 100
    },
    {
      "midi": 55,
      "hit": false,
      "t": 28750,
      "d": 250,
      "v": 100
    },
    {
      "midi": 75,
      "hit": false,
      "t": 28875,
      "d": 125,
      "v": 100
    },
    {
      "midi": 76,
      "hit": false,
      "t": 29000,
      "d": 500,
      "v": 100
    },
    {
      "midi": 60,
      "hit": false,
      "t": 29000,
      "d": 250,
      "v": 100
    },
    {
      "midi": 48,
      "hit": false,
      "t": 29250,
      "d": 250,
      "v": 100
    },
    {
      "midi": 79,
      "hit": false,
      "t": 29500,
      "d": 250,
      "v": 100
    },
    {
      "midi": 55,
      "hit": false,
      "t": 29500,
      "d": 250,
      "v": 100
    },
    {
      "midi": 77,
      "hit": false,
      "t": 29750,
      "d": 250,
      "v": 100
    },
    {
      "midi": 60,
      "hit": false,
      "t": 29750,
      "d": 250,
      "v": 100
    },
    {
      "midi": 76,
      "hit": false,
      "t": 30000,
      "d": 375,
      "v": 100
    },
    {
      "midi": 48,
      "hit": false,
      "t": 30000,
      "d": 250,
      "v": 100
    },
    {
      "midi": 55,
      "hit": false,
      "t": 30250,
      "d": 250,
      "v": 100
    },
    {
      "midi": 75,
      "hit": false,
      "t": 30375,
      "d": 125,
      "v": 100
    },
    {
      "midi": 76,
      "hit": false,
      "t": 30500,
      "d": 500,
      "v": 100
    },
    {
      "midi": 60,
      "hit": false,
      "t": 30500,
      "d": 250,
      "v": 100
    },
    {
      "midi": 48,
      "hit": false,
      "t": 30750,
      "d": 250,
      "v": 100
    },
    {
      "midi": 74,
      "hit": false,
      "t": 31000,
      "d": 250,
      "v": 100
    },
    {
      "midi": 73,
      "hit": false,
      "t": 31250,
      "d": 250,
      "v": 100
    },
    {
      "midi": 74,
      "hit": false,
      "t": 31500,
      "d": 375,
      "v": 100
    },
    {
      "midi": 53,
      "hit": false,
      "t": 31500,
      "d": 250,
      "v": 100
    },
    {
      "midi": 57,
      "hit": false,
      "t": 31750,
      "d": 250,
      "v": 100
    },
    {
      "midi": 76,
      "hit": false,
      "t": 31875,
      "d": 125,
      "v": 100
    },
    {
      "midi": 74,
      "hit": false,
      "t": 32000,
      "d": 500,
      "v": 100
    },
    {
      "midi": 62,
      "hit": false,
      "t": 32000,
      "d": 250,
      "v": 100
    },
    {
      "midi": 52,
      "hit": false,
      "t": 32250,
      "d": 250,
      "v": 100
    },
    {
      "midi": 72,
      "hit": false,
      "t": 32500,
      "d": 250,
      "v": 100
    },
    {
      "midi": 56,
      "hit": false,
      "t": 32500,
      "d": 250,
      "v": 100
    },
    {
      "midi": 71,
      "hit": false,
      "t": 32750,
      "d": 250,
      "v": 100
    },
    {
      "midi": 62,
      "hit": false,
      "t": 32750,
      "d": 250,
      "v": 100
    },
    {
      "midi": 72,
      "hit": false,
      "t": 33000,
      "d": 375,
      "v": 100
    },
    {
      "midi": 52,
      "hit": false,
      "t": 33000,
      "d": 250,
      "v": 100
    },
    {
      "midi": 57,
      "hit": false,
      "t": 33250,
      "d": 250,
      "v": 100
    },
    {
      "midi": 74,
      "hit": false,
      "t": 33375,
      "d": 125,
      "v": 100
    },
    {
      "midi": 72,
      "hit": false,
      "t": 33500,
      "d": 500,
      "v": 100
    },
    {
      "midi": 60,
      "hit": false,
      "t": 33500,
      "d": 250,
      "v": 100
    },
    {
      "midi": 52,
      "hit": false,
      "t": 33750,
      "d": 250,
      "v": 100
    },
    {
      "midi": 71,
      "hit": false,
      "t": 34000,
      "d": 250,
      "v": 100
    },
    {
      "midi": 57,
      "hit": false,
      "t": 34000,
      "d": 250,
      "v": 100
    },
    {
      "midi": 69,
      "hit": false,
      "t": 34250,
      "d": 250,
      "v": 100
    },
    {
      "midi": 60,
      "hit": false,
      "t": 34250,
      "d": 250,
      "v": 100
    },
    {
      "midi": 71,
      "hit": false,
      "t": 34500,
      "d": 250,
      "v": 100
    },
    {
      "midi": 50,
      "hit": false,
      "t": 34500,
      "d": 250,
      "v": 100
    },
    {
      "midi": 74,
      "hit": false,
      "t": 34750,
      "d": 250,
      "v": 100
    },
    {
      "midi": 54,
      "hit": false,
      "t": 34750,
      "d": 250,
      "v": 100
    },
    {
      "midi": 72,
      "hit": false,
      "t": 35000,
      "d": 500,
      "v": 100
    },
    {
      "midi": 59,
      "hit": false,
      "t": 35000,
      "d": 250,
      "v": 100
    },
    {
      "midi": 52,
      "hit": false,
      "t": 35250,
      "d": 250,
      "v": 100
    },
    {
      "midi": 71,
      "hit": false,
      "t": 35500,
      "d": 250,
      "v": 100
    },
    {
      "midi": 56,
      "hit": false,
      "t": 35500,
      "d": 250,
      "v": 100
    },
    {
      "midi": 72,
      "hit": false,
      "t": 35750,
      "d": 250,
      "v": 100
    },
    {
      "midi": 62,
      "hit": false,
      "t": 35750,
      "d": 250,
      "v": 100
    },
    {
      "midi": 69,
      "hit": false,
      "t": 36000,
      "d": 750,
      "v": 100
    },
    {
      "midi": 57,
      "hit": false,
      "t": 36000,
      "d": 750,
      "v": 100
    },
    {
      "midi": 60,
      "hit": false,
      "t": 36000,
      "d": 750,
      "v": 100
    },
    {
      "midi": 64,
      "hit": false,
      "t": 36750,
      "d": 250,
      "v": 100
    },
    {
      "midi": 66,
      "hit": false,
      "t": 36750,
      "d": 250,
      "v": 100
    },
    {
      "midi": 72,
      "hit": false,
      "t": 36750,
      "d": 250,
      "v": 100
    },
    {
      "midi": 50,
      "hit": false,
      "t": 36750,
      "d": 250,
      "v": 100
    },
    {
      "midi": 54,
      "hit": false,
      "t": 36750,
      "d": 250,
      "v": 100
    },
    {
      "midi": 60,
      "hit": false,
      "t": 36750,
      "d": 250,
      "v": 100
    },
    {
      "midi": 71,
      "hit": false,
      "t": 37000,
      "d": 250,
      "v": 100
    },
    {
      "midi": 72,
      "hit": false,
      "t": 37250,
      "d": 250,
      "v": 100
    },
    {
      "midi": 74,
      "hit": false,
      "t": 37500,
      "d": 375,
      "v": 100
    },
    {
      "midi": 43,
      "hit": false,
      "t": 37500,
      "d": 500,
      "v": 100
    },
    {
      "midi": 76,
      "hit": false,
      "t": 37875,
      "d": 125,
      "v": 100
    },
    {
      "midi": 74,
      "hit": false,
      "t": 38000,
      "d": 250,
      "v": 100
    },
    {
      "midi": 50,
      "hit": false,
      "t": 38000,
      "d": 250,
      "v": 100
    },
    {
      "midi": 71,
      "hit": false,
      "t": 38250,
      "d": 375,
      "v": 100
    },
    {
      "midi": 55,
      "hit": false,
      "t": 38250,
      "d": 500,
      "v": 100
    },
    {
      "midi": 69,
      "hit": false,
      "t": 38625,
      "d": 125,
      "v": 100
    },
    {
      "midi": 67,
      "hit": false,
      "t": 38750,
      "d": 250,
      "v": 100
    },
    {
      "midi": 50,
      "hit": false,
      "t": 38750,
      "d": 250,
      "v": 100
    },
    {
      "midi": 71,
      "hit": false,
      "t": 39000,
      "d": 1000,
      "v": 100
    },
    {
      "midi": 43,
      "hit": false,
      "t": 39000,
      "d": 500,
      "v": 100
    },
    {
      "midi": 50,
      "hit": false,
      "t": 39500,
      "d": 250,
      "v": 100
    },
    {
      "midi": 55,
      "hit": false,
      "t": 39750,
      "d": 500,
      "v": 100
    },
    {
      "midi": 71,
      "hit": false,
      "t": 40000,
      "d": 250,
      "v": 100
    },
    {
      "midi": 72,
      "hit": false,
      "t": 40250,
      "d": 250,
      "v": 100
    },
    {
      "midi": 50,
      "hit": false,
      "t": 40250,
      "d": 250,
      "v": 100
    },
    {
      "midi": 74,
      "hit": false,
      "t": 40500,
      "d": 250,
      "v": 100
    },
    {
      "midi": 43,
      "hit": false,
      "t": 40500,
      "d": 500,
      "v": 100
    },
    {
      "midi": 76,
      "hit": false,
      "t": 40750,
      "d": 125,
      "v": 100
    },
    {
      "midi": 74,
      "hit": false,
      "t": 40875,
      "d": 125,
      "v": 100
    },
    {
      "midi": 76,
      "hit": false,
      "t": 41000,
      "d": 83.33333333333576,
      "v": 100
    },
    {
      "midi": 50,
      "hit": false,
      "t": 41000,
      "d": 250,
      "v": 100
    },
    {
      "midi": 74,
      "hit": false,
      "t": 41083.333333333336,
      "d": 83.33333333333576,
      "v": 100
    },
    {
      "midi": 72,
      "hit": false,
      "t": 41166.66666666667,
      "d": 83.33333333333576,
      "v": 100
    },
    {
      "midi": 55,
      "hit": false,
      "t": 41250,
      "d": 500,
      "v": 100
    },
    {
      "midi": 74,
      "hit": false,
      "t": 41250.00000000001,
      "d": 83.33333333333576,
      "v": 100
    },
    {
      "midi": 72,
      "hit": false,
      "t": 41333.33333333334,
      "d": 83.33333333333576,
      "v": 100
    },
    {
      "midi": 71,
      "hit": false,
      "t": 41416.66666666668,
      "d": 83.33333333333576,
      "v": 100
    },
    {
      "midi": 72,
      "hit": false,
      "t": 41500.000000000015,
      "d": 83.33333333333576,
      "v": 100
    },
    {
      "midi": 71,
      "hit": false,
      "t": 41583.33333333335,
      "d": 83.33333333333576,
      "v": 100
    },
    {
      "midi": 69,
      "hit": false,
      "t": 41666.666666666686,
      "d": 83.33333333333576,
      "v": 100
    },
    {
      "midi": 51,
      "hit": false,
      "t": 41750,
      "d": 250,
      "v": 100
    },
    {
      "midi": 71,
      "hit": false,
      "t": 41750.00000000002,
      "d": 83.33333333333576,
      "v": 100
    },
    {
      "midi": 69,
      "hit": false,
      "t": 41833.33333333336,
      "d": 83.33333333333576,
      "v": 100
    },
    {
      "midi": 67,
      "hit": false,
      "t": 41916.66666666669,
      "d": 83.33333333333576,
      "v": 100
    },
    {
      "midi": 43,
      "hit": false,
      "t": 42000,
      "d": 500,
      "v": 100
    },
    {
      "midi": 71,
      "hit": false,
      "t": 42000.00000000003,
      "d": 750,
      "v": 100
    },
    {
      "midi": 52,
      "hit": false,
      "t": 42500,
      "d": 250,
      "v": 100
    },
    {
      "midi": 55,
      "hit": false,
      "t": 42750,
      "d": 500,
      "v": 100
    },
    {
      "midi": 64,
      "hit": false,
      "t": 42750.00000000003,
      "d": 250,
      "v": 100
    },
    {
      "midi": 64,
      "hit": false,
      "t": 43000.00000000003,
      "d": 250,
      "v": 100
    },
    {
      "midi": 52,
      "hit": false,
      "t": 43250,
      "d": 250,
      "v": 100
    },
    {
      "midi": 67,
      "hit": false,
      "t": 43250.00000000003,
      "d": 250,
      "v": 100
    },
    {
      "midi": 52,
      "hit": false,
      "t": 43500,
      "d": 750,
      "v": 100
    },
    {
      "midi": 55,
      "hit": false,
      "t": 43500,
      "d": 750,
      "v": 100
    },
    {
      "midi": 61,
      "hit": false,
      "t": 43500,
      "d": 750,
      "v": 100
    },
    {
      "midi": 69,
      "hit": false,
      "t": 43500.00000000003,
      "d": 375,
      "v": 100
    },
    {
      "midi": 71,
      "hit": false,
      "t": 43875.00000000003,
      "d": 125,
      "v": 100
    },
    {
      "midi": 69,
      "hit": false,
      "t": 44000.00000000003,
      "d": 250,
      "v": 100
    },
    {
      "midi": 51,
      "hit": false,
      "t": 44250,
      "d": 750,
      "v": 100
    },
    {
      "midi": 57,
      "hit": false,
      "t": 44250,
      "d": 750,
      "v": 100
    },
    {
      "midi": 60,
      "hit": false,
      "t": 44250,
      "d": 750,
      "v": 100
    },
    {
      "midi": 67,
      "hit": false,
      "t": 44250.00000000003,
      "d": 250,
      "v": 100
    },
    {
      "midi": 66,
      "hit": false,
      "t": 44500.00000000003,
      "d": 250,
      "v": 100
    },
    {
      "midi": 67,
      "hit": false,
      "t": 44750.00000000003,
      "d": 250,
      "v": 100
    },
    {
      "midi": 52,
      "hit": false,
      "t": 45000,
      "d": 750,
      "v": 100
    },
    {
      "midi": 55,
      "hit": false,
      "t": 45000,
      "d": 750,
      "v": 100
    },
    {
      "midi": 59,
      "hit": false,
      "t": 45000,
      "d": 750,
      "v": 100
    },
    {
      "midi": 64,
      "hit": false,
      "t": 45000.00000000003,
      "d": 750,
      "v": 100
    },
    {
      "midi": 43,
      "hit": false,
      "t": 45750,
      "d": 750,
      "v": 100
    },
    {
      "midi": 67,
      "hit": false,
      "t": 45750.00000000003,
      "d": 500,
      "v": 100
    },
    {
      "midi": 66,
      "hit": false,
      "t": 46250.00000000003,
      "d": 250,
      "v": 100
    },
    {
      "midi": 52,
      "hit": false,
      "t": 46500,
      "d": 750,
      "v": 100
    },
    {
      "midi": 55,
      "hit": false,
      "t": 46500,
      "d": 750,
      "v": 100
    },
    {
      "midi": 60,
      "hit": false,
      "t": 46500,
      "d": 750,
      "v": 100
    },
    {
      "midi": 64,
      "hit": false,
      "t": 46500.00000000003,
      "d": 250,
      "v": 100
    },
    {
      "midi": 66,
      "hit": false,
      "t": 46750.00000000003,
      "d": 250,
      "v": 100
    },
    {
      "midi": 67,
      "hit": false,
      "t": 47000.00000000003,
      "d": 250,
      "v": 100
    },
    {
      "midi": 51,
      "hit": false,
      "t": 47250,
      "d": 750,
      "v": 100
    },
    {
      "midi": 55,
      "hit": false,
      "t": 47250,
      "d": 750,
      "v": 100
    },
    {
      "midi": 60,
      "hit": false,
      "t": 47250,
      "d": 750,
      "v": 100
    },
    {
      "midi": 69,
      "hit": false,
      "t": 47250.00000000003,
      "d": 250,
      "v": 100
    },
    {
      "midi": 71,
      "hit": false,
      "t": 47500.00000000003,
      "d": 125,
      "v": 100
    },
    {
      "midi": 69,
      "hit": false,
      "t": 47625.00000000003,
      "d": 125,
      "v": 100
    },
    {
      "midi": 70,
      "hit": false,
      "t": 47750.00000000003,
      "d": 83.33333333333576,
      "v": 100
    },
    {
      "midi": 69,
      "hit": false,
      "t": 47833.333333333365,
      "d": 83.33333333333576,
      "v": 100
    },
    {
      "midi": 67,
      "hit": false,
      "t": 47916.6666666667,
      "d": 83.33333333333576,
      "v": 100
    },
    {
      "midi": 50,
      "hit": false,
      "t": 48000,
      "d": 750,
      "v": 100
    },
    {
      "midi": 55,
      "hit": false,
      "t": 48000,
      "d": 750,
      "v": 100
    },
    {
      "midi": 59,
      "hit": false,
      "t": 48000,
      "d": 750,
      "v": 100
    },
    {
      "midi": 67,
      "hit": false,
      "t": 48000.00000000004,
      "d": 1000,
      "v": 100
    },
    {
      "midi": 43,
      "hit": false,
      "t": 48750,
      "d": 250,
      "v": 100
    },
    {
      "midi": 83,
      "hit": false,
      "t": 49000.00000000004,
      "d": 250,
      "v": 100
    },
    {
      "midi": 84,
      "hit": false,
      "t": 49250.00000000004,
      "d": 250,
      "v": 100
    },
    {
      "midi": 43,
      "hit": false,
      "t": 49500,
      "d": 1500,
      "v": 100
    },
    {
      "midi": 50,
      "hit": false,
      "t": 49500,
      "d": 1500,
      "v": 100
    },
    {
      "midi": 86,
      "hit": false,
      "t": 49500.00000000004,
      "d": 250,
      "v": 100
    },
    {
      "midi": 88,
      "hit": false,
      "t": 49750.00000000004,
      "d": 125,
      "v": 100
    },
    {
      "midi": 86,
      "hit": false,
      "t": 49875.00000000004,
      "d": 125,
      "v": 100
    },
    {
      "midi": 88,
      "hit": false,
      "t": 50000.00000000004,
      "d": 83.33333333333576,
      "v": 100
    },
    {
      "midi": 86,
      "hit": false,
      "t": 50083.33333333337,
      "d": 83.33333333333576,
      "v": 100
    },
    {
      "midi": 84,
      "hit": false,
      "t": 50166.66666666671,
      "d": 83.33333333333576,
      "v": 100
    },
    {
      "midi": 86,
      "hit": false,
      "t": 50250.000000000044,
      "d": 83.33333333333576,
      "v": 100
    },
    {
      "midi": 84,
      "hit": false,
      "t": 50333.33333333338,
      "d": 83.33333333333576,
      "v": 100
    },
    {
      "midi": 83,
      "hit": false,
      "t": 50416.666666666715,
      "d": 83.33333333333576,
      "v": 100
    },
    {
      "midi": 84,
      "hit": false,
      "t": 50500.00000000005,
      "d": 83.33333333333576,
      "v": 100
    },
    {
      "midi": 83,
      "hit": false,
      "t": 50583.33333333339,
      "d": 83.33333333333576,
      "v": 100
    },
    {
      "midi": 81,
      "hit": false,
      "t": 50666.66666666672,
      "d": 83.33333333333576,
      "v": 100
    },
    {
      "midi": 83,
      "hit": false,
      "t": 50750.00000000006,
      "d": 83.33333333333576,
      "v": 100
    },
    {
      "midi": 81,
      "hit": false,
      "t": 50833.333333333394,
      "d": 83.33333333333576,
      "v": 100
    },
    {
      "midi": 79,
      "hit": false,
      "t": 50916.66666666673,
      "d": 83.33333333333576,
      "v": 100
    },
    {
      "midi": 43,
      "hit": false,
      "t": 51000,
      "d": 1500,
      "v": 100
    },
    {
      "midi": 50,
      "hit": false,
      "t": 51000,
      "d": 1500,
      "v": 100
    },
    {
      "midi": 71,
      "hit": false,
      "t": 51000.000000000065,
      "d": 250,
      "v": 100
    },
    {
      "midi": 74,
      "hit": false,
      "t": 51000.000000000065,
      "d": 250,
      "v": 100
    },
    {
      "midi": 79,
      "hit": false,
      "t": 51000.000000000065,
      "d": 250,
      "v": 100
    },
    {
      "midi": 76,
      "hit": false,
      "t": 51250.000000000065,
      "d": 125,
      "v": 100
    },
    {
      "midi": 74,
      "hit": false,
      "t": 51375.000000000065,
      "d": 125,
      "v": 100
    },
    {
      "midi": 76,
      "hit": false,
      "t": 51500.000000000065,
      "d": 83.33333333333576,
      "v": 100
    },
    {
      "midi": 74,
      "hit": false,
      "t": 51583.3333333334,
      "d": 83.33333333333576,
      "v": 100
    },
    {
      "midi": 72,
      "hit": false,
      "t": 51666.66666666674,
      "d": 83.33333333333576,
      "v": 100
    },
    {
      "midi": 74,
      "hit": false,
      "t": 51750.00000000007,
      "d": 83.33333333333576,
      "v": 100
    },
    {
      "midi": 72,
      "hit": false,
      "t": 51833.33333333341,
      "d": 83.33333333333576,
      "v": 100
    },
    {
      "midi": 71,
      "hit": false,
      "t": 51916.666666666744,
      "d": 83.33333333333576,
      "v": 100
    },
    {
      "midi": 72,
      "hit": false,
      "t": 52000.00000000008,
      "d": 83.33333333333576,
      "v": 100
    },
    {
      "midi": 71,
      "hit": false,
      "t": 52083.333333333416,
      "d": 83.33333333333576,
      "v": 100
    },
    {
      "midi": 69,
      "hit": false,
      "t": 52166.66666666675,
      "d": 83.33333333333576,
      "v": 100
    },
    {
      "midi": 71,
      "hit": false,
      "t": 52250.00000000009,
      "d": 83.33333333333576,
      "v": 100
    },
    {
      "midi": 69,
      "hit": false,
      "t": 52333.33333333342,
      "d": 83.33333333333576,
      "v": 100
    },
    {
      "midi": 67,
      "hit": false,
      "t": 52416.66666666676,
      "d": 83.33333333333576,
      "v": 100
    },
    {
      "midi": 43,
      "hit": false,
      "t": 52500,
      "d": 1750,
      "v": 100
    },
    {
      "midi": 50,
      "hit": false,
      "t": 52500,
      "d": 1750,
      "v": 100
    },
    {
      "midi": 59,
      "hit": false,
      "t": 52500.000000000095,
      "d": 250,
      "v": 100
    },
    {
      "midi": 62,
      "hit": false,
      "t": 52500.000000000095,
      "d": 250,
      "v": 100
    },
    {
      "midi": 67,
      "hit": false,
      "t": 52500.000000000095,
      "d": 250,
      "v": 100
    },
    {
      "midi": 64,
      "hit": false,
      "t": 52750.000000000095,
      "d": 125,
      "v": 100
    },
    {
      "midi": 62,
      "hit": false,
      "t": 52875.000000000095,
      "d": 125,
      "v": 100
    },
    {
      "midi": 64,
      "hit": false,
      "t": 53000.000000000095,
      "d": 83.33333333333576,
      "v": 100
    },
    {
      "midi": 62,
      "hit": false,
      "t": 53083.33333333343,
      "d": 83.33333333333576,
      "v": 100
    },
    {
      "midi": 60,
      "hit": false,
      "t": 53166.666666666766,
      "d": 83.33333333333576,
      "v": 100
    },
    {
      "midi": 62,
      "hit": false,
      "t": 53250.0000000001,
      "d": 83.33333333333576,
      "v": 100
    },
    {
      "midi": 60,
      "hit": false,
      "t": 53333.33333333344,
      "d": 83.33333333333576,
      "v": 100
    },
    {
      "midi": 59,
      "hit": false,
      "t": 53416.66666666677,
      "d": 83.33333333333576,
      "v": 100
    },
    {
      "midi": 60,
      "hit": false,
      "t": 53500.00000000011,
      "d": 83.33333333333576,
      "v": 100
    },
    {
      "midi": 59,
      "hit": false,
      "t": 53583.333333333445,
      "d": 83.33333333333576,
      "v": 100
    },
    {
      "midi": 57,
      "hit": false,
      "t": 53666.66666666678,
      "d": 83.33333333333576,
      "v": 100
    },
    {
      "midi": 59,
      "hit": false,
      "t": 53750.00000000012,
      "d": 83.33333333333576,
      "v": 100
    },
    {
      "midi": 57,
      "hit": false,
      "t": 53833.33333333345,
      "d": 83.33333333333576,
      "v": 100
    },
    {
      "midi": 55,
      "hit": false,
      "t": 53916.66666666679,
      "d": 83.33333333333576,
      "v": 100
    },
    {
      "midi": 55,
      "hit": false,
      "t": 54000.000000000124,
      "d": 250,
      "v": 100
    },
    {
      "midi": 43,
      "hit": false,
      "t": 54750,
      "d": 250,
      "v": 100
    },
    {
      "midi": 50,
      "hit": false,
      "t": 54750,
      "d": 250,
      "v": 100
    },
    {
      "midi": 59,
      "hit": false,
      "t": 54750.000000000124,
      "d": 250,
      "v": 100
    },
    {
      "midi": 67,
      "hit": false,
      "t": 54750.000000000124,
      "d": 250,
      "v": 100
    },
    {
      "midi": 79,
      "hit": false,
      "t": 54750.000000000124,
      "d": 250,
      "v": 100
    }
  ]
}