{
  "jsonPath": "Latin/Cumbia/Banda Maguey/tu-eterno-enamorado.json",
  "path": "Latin\\Cumbia\\Banda Maguey\\Tu Eterno Enamorado.mid",
  "name": "Tu Eterno Enamorado",
  "difficulty": "Advanced",
  "bpm": 120,
  "notes": [
    {
      "midi": 67,
      "hit": false,
      "t": 7404.207135416667,
      "d": 9392.04291666666,
      "v": 79
    },
    {
      "midi": 59,
      "hit": false,
      "t": 8454.48828125,
      "d": 1020.0374479166676,
      "v": 101
    },
    {
      "midi": 60,
      "hit": false,
      "t": 9510.26828125,
      "d": 1042.0328645833342,
      "v": 96
    },
    {
      "midi": 45,
      "hit": false,
      "t": 9510.26828125,
      "d": 1014.5385937499996,
      "v": 79
    },
    {
      "midi": 53,
      "hit": false,
      "t": 9510.26828125,
      "d": 1033.7845833333322,
      "v": 79
    },
    {
      "midi": 62,
      "hit": false,
      "t": 10555.050572916669,
      "d": 5982.75333333333,
      "v": 95
    },
    {
      "midi": 47,
      "hit": false,
      "t": 10566.04828125,
      "d": 2056.57145833333,
      "v": 83
    },
    {
      "midi": 55,
      "hit": false,
      "t": 10566.04828125,
      "d": 2064.8197395833304,
      "v": 83
    },
    {
      "midi": 60,
      "hit": false,
      "t": 16867.73515625,
      "d": 241.94958333333125,
      "v": 102
    },
    {
      "midi": 48,
      "hit": false,
      "t": 16878.732864583333,
      "d": 241.94958333333125,
      "v": 103
    },
    {
      "midi": 24,
      "hit": false,
      "t": 16900.72828125,
      "d": 4223.119999999999,
      "v": 95
    },
    {
      "midi": 36,
      "hit": false,
      "t": 16900.72828125,
      "d": 4223.119999999999,
      "v": 103
    },
    {
      "midi": 67,
      "hit": false,
      "t": 16900.72828125,
      "d": 3629.2437500000015,
      "v": 95
    },
    {
      "midi": 72,
      "hit": false,
      "t": 16900.72828125,
      "d": 3882.1910416666688,
      "v": 96
    },
    {
      "midi": 64,
      "hit": false,
      "t": 16900.72828125,
      "d": 4173.630312500001,
      "v": 100
    },
    {
      "midi": 76,
      "hit": false,
      "t": 17700.8115625,
      "d": 197.9587500000016,
      "v": 95
    },
    {
      "midi": 76,
      "hit": false,
      "t": 17940.01171875,
      "d": 208.956458333334,
      "v": 103
    },
    {
      "midi": 74,
      "hit": false,
      "t": 18198.457864583335,
      "d": 241.94958333333489,
      "v": 104
    },
    {
      "midi": 72,
      "hit": false,
      "t": 18467.901718750003,
      "d": 351.9266666666663,
      "v": 101
    },
    {
      "midi": 55,
      "hit": false,
      "t": 18731.84671875,
      "d": 332.68067708333183,
      "v": 92
    },
    {
      "midi": 70,
      "hit": false,
      "t": 18828.076666666668,
      "d": 123.72421875000146,
      "v": 104
    },
    {
      "midi": 69,
      "hit": false,
      "t": 18905.060625000002,
      "d": 123.72421875000146,
      "v": 102
    },
    {
      "midi": 60,
      "hit": false,
      "t": 18995.79171875,
      "d": 1484.6906249999993,
      "v": 95
    },
    {
      "midi": 67,
      "hit": false,
      "t": 18998.541145833336,
      "d": 813.8304166666676,
      "v": 103
    },
    {
      "midi": 72,
      "hit": false,
      "t": 20046.07286458334,
      "d": 307.935833333333,
      "v": 97
    },
    {
      "midi": 74,
      "hit": false,
      "t": 20392.50067708334,
      "d": 280.44156250000015,
      "v": 101
    },
    {
      "midi": 67,
      "hit": false,
      "t": 20576.71229166667,
      "d": 486.64859375000015,
      "v": 98
    },
    {
      "midi": 67,
      "hit": false,
      "t": 20579.461718749997,
      "d": 346.42781249999825,
      "v": 99
    },
    {
      "midi": 76,
      "hit": false,
      "t": 20769.172187500004,
      "d": 274.9427083333321,
      "v": 103
    },
    {
      "midi": 72,
      "hit": false,
      "t": 20837.907864583336,
      "d": 263.9449999999997,
      "v": 99
    },
    {
      "midi": 72,
      "hit": false,
      "t": 20843.406718749997,
      "d": 296.93812499999694,
      "v": 92
    },
    {
      "midi": 71,
      "hit": false,
      "t": 21115.599999999995,
      "d": 4066.4026562499967,
      "v": 95
    },
    {
      "midi": 71,
      "hit": false,
      "t": 21115.600000000002,
      "d": 263.9449999999997,
      "v": 103
    },
    {
      "midi": 67,
      "hit": false,
      "t": 21115.600000000002,
      "d": 4168.131458333333,
      "v": 101
    },
    {
      "midi": 62,
      "hit": false,
      "t": 21115.600000000002,
      "d": 4173.630312500001,
      "v": 100
    },
    {
      "midi": 76,
      "hit": false,
      "t": 21115.600000000002,
      "d": 791.8349999999955,
      "v": 99
    },
    {
      "midi": 43,
      "hit": false,
      "t": 21123.84828125,
      "d": 4091.147499999999,
      "v": 104
    },
    {
      "midi": 69,
      "hit": false,
      "t": 21371.296718750003,
      "d": 288.68984374999854,
      "v": 95
    },
    {
      "midi": 71,
      "hit": false,
      "t": 21651.738281250004,
      "d": 3629.243749999998,
      "v": 98
    },
    {
      "midi": 74,
      "hit": false,
      "t": 21899.18671875,
      "d": 230.95187499999884,
      "v": 103
    },
    {
      "midi": 74,
      "hit": false,
      "t": 22163.13171875,
      "d": 1517.6837500000074,
      "v": 96
    },
    {
      "midi": 67,
      "hit": false,
      "t": 22174.129427083328,
      "d": 2892.3972916666644,
      "v": 101
    },
    {
      "midi": 59,
      "hit": false,
      "t": 23218.911718749994,
      "d": 1930.0978124999965,
      "v": 101
    },
    {
      "midi": 72,
      "hit": false,
      "t": 24274.691718749993,
      "d": 874.3178124999977,
      "v": 99
    },
    {
      "midi": 72,
      "hit": false,
      "t": 24274.691718750004,
      "d": 252.9472916666673,
      "v": 99
    },
    {
      "midi": 74,
      "hit": false,
      "t": 24538.636718750004,
      "d": 505.8945833333346,
      "v": 98
    },
    {
      "midi": 67,
      "hit": false,
      "t": 25066.526718749992,
      "d": 241.94958333333125,
      "v": 90
    },
    {
      "midi": 76,
      "hit": false,
      "t": 25074.775000000005,
      "d": 747.8441666666658,
      "v": 102
    },
    {
      "midi": 69,
      "hit": false,
      "t": 25338.71999999999,
      "d": 3695.2299999999996,
      "v": 101
    },
    {
      "midi": 41,
      "hit": false,
      "t": 25338.72,
      "d": 4223.119999999999,
      "v": 97
    },
    {
      "midi": 60,
      "hit": false,
      "t": 25338.720000000005,
      "d": 2056.571458333332,
      "v": 104
    },
    {
      "midi": 69,
      "hit": false,
      "t": 25338.720000000005,
      "d": 2067.5691666666644,
      "v": 96
    },
    {
      "midi": 65,
      "hit": false,
      "t": 25338.720000000005,
      "d": 2078.566874999997,
      "v": 102
    },
    {
      "midi": 69,
      "hit": false,
      "t": 25858.361718750006,
      "d": 186.96104166666555,
      "v": 102
    },
    {
      "midi": 69,
      "hit": false,
      "t": 26122.306718750006,
      "d": 1844.8655729166676,
      "v": 101
    },
    {
      "midi": 57,
      "hit": false,
      "t": 27175.337291666656,
      "d": 236.45072916666686,
      "v": 92
    },
    {
      "midi": 65,
      "hit": false,
      "t": 27431.034010416668,
      "d": 2100.562291666669,
      "v": 97
    },
    {
      "midi": 57,
      "hit": false,
      "t": 27436.532864583336,
      "d": 2078.5668750000004,
      "v": 104
    },
    {
      "midi": 60,
      "hit": false,
      "t": 27436.532864583336,
      "d": 2078.5668750000004,
      "v": 102
    },
    {
      "midi": 60,
      "hit": false,
      "t": 27442.03171874999,
      "d": 1517.6837500000001,
      "v": 103
    },
    {
      "midi": 57,
      "hit": false,
      "t": 27442.03171874999,
      "d": 1520.4331770833342,
      "v": 102
    },
    {
      "midi": 69,
      "hit": false,
      "t": 28233.866718750007,
      "d": 307.935833333333,
      "v": 96
    },
    {
      "midi": 72,
      "hit": false,
      "t": 28497.811718750007,
      "d": 296.9381250000006,
      "v": 104
    },
    {
      "midi": 74,
      "hit": false,
      "t": 28761.756718750006,
      "d": 296.9381250000006,
      "v": 99
    },
    {
      "midi": 67,
      "hit": false,
      "t": 29025.70171874999,
      "d": 296.9381250000006,
      "v": 102
    },
    {
      "midi": 76,
      "hit": false,
      "t": 29025.701718750006,
      "d": 263.9449999999997,
      "v": 103
    },
    {
      "midi": 69,
      "hit": false,
      "t": 29289.64671874999,
      "d": 296.9381250000006,
      "v": 92
    },
    {
      "midi": 76,
      "hit": false,
      "t": 29308.89270833334,
      "d": 725.8487500000047,
      "v": 99
    },
    {
      "midi": 43,
      "hit": false,
      "t": 29553.59171875,
      "d": 4223.119999999995,
      "v": 95
    },
    {
      "midi": 60,
      "hit": false,
      "t": 29561.839999999993,
      "d": 2177.5462499999994,
      "v": 98
    },
    {
      "midi": 67,
      "hit": false,
      "t": 29561.839999999993,
      "d": 4124.140624999996,
      "v": 104
    },
    {
      "midi": 60,
      "hit": false,
      "t": 29561.840000000004,
      "d": 2161.049687499999,
      "v": 96
    },
    {
      "midi": 62,
      "hit": false,
      "t": 29561.840000000004,
      "d": 4173.630312499998,
      "v": 95
    },
    {
      "midi": 67,
      "hit": false,
      "t": 29561.840000000004,
      "d": 4179.129166666666,
      "v": 99
    },
    {
      "midi": 74,
      "hit": false,
      "t": 30081.48171875001,
      "d": 145.71963541666628,
      "v": 103
    },
    {
      "midi": 74,
      "hit": false,
      "t": 30345.426718750008,
      "d": 1679.8999479166669,
      "v": 103
    },
    {
      "midi": 59,
      "hit": false,
      "t": 31665.151718749992,
      "d": 2026.3277604166651,
      "v": 101
    },
    {
      "midi": 59,
      "hit": false,
      "t": 31681.648281250003,
      "d": 2070.318593750002,
      "v": 97
    },
    {
      "midi": 72,
      "hit": false,
      "t": 32456.986718750006,
      "d": 239.20015625000087,
      "v": 95
    },
    {
      "midi": 69,
      "hit": false,
      "t": 32720.931718750006,
      "d": 783.5867187500116,
      "v": 102
    },
    {
      "midi": 48,
      "hit": false,
      "t": 33771.21286458333,
      "d": 241.94958333333489,
      "v": 104
    },
    {
      "midi": 60,
      "hit": false,
      "t": 33771.21286458333,
      "d": 241.94958333333489,
      "v": 95
    },
    {
      "midi": 60,
      "hit": false,
      "t": 33784.96,
      "d": 4203.8740104166645,
      "v": 73
    },
    {
      "midi": 55,
      "hit": false,
      "t": 33784.96,
      "d": 4214.871718750001,
      "v": 82
    },
    {
      "midi": 48,
      "hit": false,
      "t": 33784.96,
      "d": 4220.370572916669,
      "v": 75
    },
    {
      "midi": 64,
      "hit": false,
      "t": 33784.96,
      "d": 4190.126875000002,
      "v": 83
    },
    {
      "midi": 55,
      "hit": false,
      "t": 33784.96000000001,
      "d": 4124.140625,
      "v": 100
    },
    {
      "midi": 64,
      "hit": false,
      "t": 33784.96000000001,
      "d": 4135.138333333336,
      "v": 96
    },
    {
      "midi": 48,
      "hit": false,
      "t": 33784.96000000001,
      "d": 4157.133750000001,
      "v": 99
    },
    {
      "midi": 60,
      "hit": false,
      "t": 33784.96000000001,
      "d": 4157.133750000001,
      "v": 96
    },
    {
      "midi": 24,
      "hit": false,
      "t": 33793.208281249994,
      "d": 4223.120000000003,
      "v": 102
    },
    {
      "midi": 36,
      "hit": false,
      "t": 33793.208281249994,
      "d": 4223.120000000003,
      "v": 98
    },
    {
      "midi": 60,
      "hit": false,
      "t": 33793.20828125,
      "d": 4132.388906250002,
      "v": 95
    },
    {
      "midi": 64,
      "hit": false,
      "t": 33793.20828125,
      "d": 4154.384322916667,
      "v": 99
    },
    {
      "midi": 60,
      "hit": false,
      "t": 34040.65671874999,
      "d": 258.4461458333317,
      "v": 90
    },
    {
      "midi": 62,
      "hit": false,
      "t": 34304.60171874999,
      "d": 277.69213541666977,
      "v": 95
    },
    {
      "midi": 64,
      "hit": false,
      "t": 34568.54671874999,
      "d": 2584.4614583333387,
      "v": 92
    },
    {
      "midi": 79,
      "hit": false,
      "t": 34568.54671875002,
      "d": 217.20473958334333,
      "v": 99
    },
    {
      "midi": 79,
      "hit": false,
      "t": 34832.491718750025,
      "d": 261.1955729166657,
      "v": 99
    },
    {
      "midi": 76,
      "hit": false,
      "t": 35096.436718750025,
      "d": 241.94958333333489,
      "v": 97
    },
    {
      "midi": 74,
      "hit": false,
      "t": 35382.3771354167,
      "d": 1072.276562500003,
      "v": 100
    },
    {
      "midi": 72,
      "hit": false,
      "t": 36944.051718750045,
      "d": 318.9335416666654,
      "v": 102
    },
    {
      "midi": 64,
      "hit": false,
      "t": 37207.99671874999,
      "d": 269.44385416666773,
      "v": 93
    },
    {
      "midi": 74,
      "hit": false,
      "t": 37295.97838541671,
      "d": 302.4369791666686,
      "v": 99
    },
    {
      "midi": 67,
      "hit": false,
      "t": 37471.94171874999,
      "d": 274.94270833333576,
      "v": 102
    },
    {
      "midi": 76,
      "hit": false,
      "t": 37647.90505208338,
      "d": 340.92895833333023,
      "v": 99
    },
    {
      "midi": 72,
      "hit": false,
      "t": 37735.88671874999,
      "d": 239.20015625000087,
      "v": 85
    },
    {
      "midi": 59,
      "hit": false,
      "t": 37999.83171875,
      "d": 3082.107760416664,
      "v": 101
    },
    {
      "midi": 62,
      "hit": false,
      "t": 37999.83171875,
      "d": 3095.854895833334,
      "v": 95
    },
    {
      "midi": 71,
      "hit": false,
      "t": 38008.079999999994,
      "d": 3304.8113541666607,
      "v": 101
    },
    {
      "midi": 50,
      "hit": false,
      "t": 38008.08,
      "d": 3035.3675000000003,
      "v": 81
    },
    {
      "midi": 55,
      "hit": false,
      "t": 38008.08,
      "d": 3057.362916666665,
      "v": 78
    },
    {
      "midi": 62,
      "hit": false,
      "t": 38008.08,
      "d": 3090.356041666666,
      "v": 77
    },
    {
      "midi": 62,
      "hit": false,
      "t": 38008.08,
      "d": 3145.3445833333317,
      "v": 84
    },
    {
      "midi": 67,
      "hit": false,
      "t": 38008.08000000001,
      "d": 4091.147499999999,
      "v": 101
    },
    {
      "midi": 59,
      "hit": false,
      "t": 38008.08000000001,
      "d": 4107.644062499996,
      "v": 98
    },
    {
      "midi": 62,
      "hit": false,
      "t": 38008.08000000001,
      "d": 4107.644062499996,
      "v": 99
    },
    {
      "midi": 43,
      "hit": false,
      "t": 38016.32828125,
      "d": 3167.3399999999965,
      "v": 103
    },
    {
      "midi": 76,
      "hit": false,
      "t": 38016.32828125004,
      "d": 758.8418750000055,
      "v": 97
    },
    {
      "midi": 71,
      "hit": false,
      "t": 38049.32140625001,
      "d": 4025.1612499999974,
      "v": 98
    },
    {
      "midi": 74,
      "hit": false,
      "t": 38791.66671875004,
      "d": 362.9243750000023,
      "v": 102
    },
    {
      "midi": 67,
      "hit": false,
      "t": 39055.61171874999,
      "d": 2870.401874999996,
      "v": 104
    },
    {
      "midi": 74,
      "hit": false,
      "t": 39308.55901041671,
      "d": 1671.6516666667085,
      "v": 96
    },
    {
      "midi": 64,
      "hit": false,
      "t": 41153.42458333333,
      "d": 1011.7891666666619,
      "v": 78
    },
    {
      "midi": 72,
      "hit": false,
      "t": 41167.17171874999,
      "d": 901.8120833333305,
      "v": 103
    },
    {
      "midi": 60,
      "hit": false,
      "t": 41167.17171875,
      "d": 929.3063541666634,
      "v": 104
    },
    {
      "midi": 64,
      "hit": false,
      "t": 41167.17171875,
      "d": 932.0557812499974,
      "v": 101
    },
    {
      "midi": 60,
      "hit": false,
      "t": 41167.17171875,
      "d": 868.8189583333369,
      "v": 79
    },
    {
      "midi": 55,
      "hit": false,
      "t": 41175.42,
      "d": 1011.7891666666619,
      "v": 78
    },
    {
      "midi": 60,
      "hit": false,
      "t": 41175.42,
      "d": 1011.7891666666619,
      "v": 78
    },
    {
      "midi": 72,
      "hit": false,
      "t": 41175.42000000009,
      "d": 285.94041666666453,
      "v": 103
    },
    {
      "midi": 40,
      "hit": false,
      "t": 41183.66828124999,
      "d": 1055.7799999999988,
      "v": 103
    },
    {
      "midi": 74,
      "hit": false,
      "t": 41439.36500000009,
      "d": 263.9449999999997,
      "v": 97
    },
    {
      "midi": 76,
      "hit": false,
      "t": 41714.30770833343,
      "d": 175.96333333333314,
      "v": 99
    },
    {
      "midi": 67,
      "hit": false,
      "t": 41959.00671874999,
      "d": 241.94958333333489,
      "v": 90
    },
    {
      "midi": 76,
      "hit": false,
      "t": 41978.25270833343,
      "d": 318.9335416666654,
      "v": 101
    },
    {
      "midi": 41,
      "hit": false,
      "t": 42231.19999999999,
      "d": 4223.120000000003,
      "v": 103
    },
    {
      "midi": 69,
      "hit": false,
      "t": 42231.19999999999,
      "d": 3629.2437500000015,
      "v": 103
    },
    {
      "midi": 65,
      "hit": false,
      "t": 42231.2,
      "d": 3981.1704166666677,
      "v": 79
    },
    {
      "midi": 60,
      "hit": false,
      "t": 42231.2,
      "d": 4025.1612500000047,
      "v": 78
    },
    {
      "midi": 57,
      "hit": false,
      "t": 42231.2,
      "d": 4047.1566666666695,
      "v": 76
    },
    {
      "midi": 72,
      "hit": false,
      "t": 42231.200000000004,
      "d": 439.90833333333285,
      "v": 102
    },
    {
      "midi": 65,
      "hit": false,
      "t": 42231.200000000004,
      "d": 450.9060416666689,
      "v": 101
    },
    {
      "midi": 69,
      "hit": false,
      "t": 42231.200000000004,
      "d": 450.9060416666689,
      "v": 98
    },
    {
      "midi": 62,
      "hit": false,
      "t": 42231.200000000004,
      "d": 4140.637187499997,
      "v": 102
    },
    {
      "midi": 65,
      "hit": false,
      "t": 42231.200000000004,
      "d": 4195.6257291666625,
      "v": 103
    },
    {
      "midi": 60,
      "hit": false,
      "t": 42231.200000000004,
      "d": 4157.133750000001,
      "v": 79
    },
    {
      "midi": 67,
      "hit": false,
      "t": 42503.39328125009,
      "d": 2413.9969791667245,
      "v": 97
    },
    {
      "midi": 72,
      "hit": false,
      "t": 42737.09458333334,
      "d": 3662.2368750000023,
      "v": 101
    },
    {
      "midi": 69,
      "hit": false,
      "t": 42739.84401041667,
      "d": 3629.2437500000015,
      "v": 100
    },
    {
      "midi": 65,
      "hit": false,
      "t": 42739.84401041667,
      "d": 3637.4920312500035,
      "v": 100
    },
    {
      "midi": 57,
      "hit": false,
      "t": 43806.62171874999,
      "d": 296.9381250000006,
      "v": 104
    },
    {
      "midi": 60,
      "hit": false,
      "t": 44070.56671874999,
      "d": 263.9449999999997,
      "v": 85
    },
    {
      "midi": 65,
      "hit": false,
      "t": 44334.51171874999,
      "d": 1998.8334895833323,
      "v": 98
    },
    {
      "midi": 74,
      "hit": false,
      "t": 45390.29171875015,
      "d": 659.8624999999956,
      "v": 96
    },
    {
      "midi": 67,
      "hit": false,
      "t": 45918.18171874999,
      "d": 285.94041666666453,
      "v": 99
    },
    {
      "midi": 76,
      "hit": false,
      "t": 46146.384166666816,
      "d": 725.8487500000047,
      "v": 99
    },
    {
      "midi": 69,
      "hit": false,
      "t": 46182.12671874999,
      "d": 285.9404166666718,
      "v": 85
    },
    {
      "midi": 43,
      "hit": false,
      "t": 46446.07171874999,
      "d": 3167.340000000004,
      "v": 99
    },
    {
      "midi": 62,
      "hit": false,
      "t": 46446.07171875,
      "d": 3109.602031249997,
      "v": 100
    },
    {
      "midi": 67,
      "hit": false,
      "t": 46446.07171875,
      "d": 3109.602031249997,
      "v": 101
    },
    {
      "midi": 60,
      "hit": false,
      "t": 46454.31999999999,
      "d": 2144.553125000006,
      "v": 102
    },
    {
      "midi": 67,
      "hit": false,
      "t": 46454.31999999999,
      "d": 3150.843437500007,
      "v": 104
    },
    {
      "midi": 62,
      "hit": false,
      "t": 46454.32,
      "d": 2161.0496875000026,
      "v": 74
    },
    {
      "midi": 55,
      "hit": false,
      "t": 46454.32,
      "d": 3090.356041666666,
      "v": 74
    },
    {
      "midi": 67,
      "hit": false,
      "t": 46454.32,
      "d": 3112.351458333331,
      "v": 75
    },
    {
      "midi": 60,
      "hit": false,
      "t": 46454.32000000001,
      "d": 3090.356041666666,
      "v": 99
    },
    {
      "midi": 64,
      "hit": false,
      "t": 46454.32000000001,
      "d": 3090.356041666666,
      "v": 97
    },
    {
      "midi": 67,
      "hit": false,
      "t": 46457.06942708334,
      "d": 3090.356041666666,
      "v": 101
    },
    {
      "midi": 67,
      "hit": false,
      "t": 46457.06942708334,
      "d": 3145.3445833333317,
      "v": 79
    },
    {
      "midi": 74,
      "hit": false,
      "t": 46973.96171875015,
      "d": 96.2299479166686,
      "v": 103
    },
    {
      "midi": 74,
      "hit": false,
      "t": 47237.90671875015,
      "d": 912.8097916666666,
      "v": 97
    },
    {
      "midi": 72,
      "hit": false,
      "t": 48293.68671875015,
      "d": 164.9656249999971,
      "v": 103
    },
    {
      "midi": 59,
      "hit": false,
      "t": 48557.631718749995,
      "d": 1039.283437500002,
      "v": 102
    },
    {
      "midi": 59,
      "hit": false,
      "t": 48557.63171875,
      "d": 1957.592083333322,
      "v": 75
    },
    {
      "midi": 71,
      "hit": false,
      "t": 48557.63171875015,
      "d": 1806.3735937500314,
      "v": 104
    },
    {
      "midi": 71,
      "hit": false,
      "t": 49605.16343750001,
      "d": 1022.7868750000052,
      "v": 99
    },
    {
      "midi": 68,
      "hit": false,
      "t": 49607.91286458334,
      "d": 1011.7891666666692,
      "v": 96
    },
    {
      "midi": 64,
      "hit": false,
      "t": 49607.91286458334,
      "d": 1044.78229166667,
      "v": 103
    },
    {
      "midi": 68,
      "hit": false,
      "t": 49613.411718749994,
      "d": 1022.786874999998,
      "v": 99
    },
    {
      "midi": 71,
      "hit": false,
      "t": 49613.411718749994,
      "d": 1033.784583333334,
      "v": 96
    },
    {
      "midi": 56,
      "hit": false,
      "t": 49613.411718749994,
      "d": 945.8029166666674,
      "v": 80
    },
    {
      "midi": 71,
      "hit": false,
      "t": 49613.41171875001,
      "d": 940.3040624999994,
      "v": 84
    },
    {
      "midi": 44,
      "hit": false,
      "t": 49629.90828124999,
      "d": 1033.784583333334,
      "v": 98
    },
    {
      "midi": 68,
      "hit": false,
      "t": 49629.90828124999,
      "d": 923.8075000000026,
      "v": 81
    },
    {
      "midi": 69,
      "hit": false,
      "t": 50405.24671875,
      "d": 230.95187499999884,
      "v": 117
    },
    {
      "midi": 45,
      "hit": false,
      "t": 50677.439999999995,
      "d": 2111.560000000005,
      "v": 95
    },
    {
      "midi": 57,
      "hit": false,
      "t": 50677.439999999995,
      "d": 2042.8243229166692,
      "v": 100
    },
    {
      "midi": 69,
      "hit": false,
      "t": 50677.439999999995,
      "d": 2042.8243229166692,
      "v": 95
    },
    {
      "midi": 64,
      "hit": false,
      "t": 50677.439999999995,
      "d": 4170.880885416671,
      "v": 103
    },
    {
      "midi": 57,
      "hit": false,
      "t": 50677.439999999995,
      "d": 2089.564583333333,
      "v": 75
    },
    {
      "midi": 69,
      "hit": false,
      "t": 50677.439999999995,
      "d": 2100.562291666669,
      "v": 75
    },
    {
      "midi": 64,
      "hit": false,
      "t": 50677.439999999995,
      "d": 4192.8763020833285,
      "v": 82
    },
    {
      "midi": 69,
      "hit": false,
      "t": 50677.44,
      "d": 285.94041666666453,
      "v": 112
    },
    {
      "midi": 69,
      "hit": false,
      "t": 50677.44000000001,
      "d": 2029.0771874999991,
      "v": 98
    },
    {
      "midi": 64,
      "hit": false,
      "t": 50677.44000000001,
      "d": 2034.5760416666672,
      "v": 104
    },
    {
      "midi": 72,
      "hit": false,
      "t": 50677.44000000001,
      "d": 2045.5737500000032,
      "v": 96
    },
    {
      "midi": 69,
      "hit": false,
      "t": 50677.44000000001,
      "d": 2122.5577083333337,
      "v": 83
    },
    {
      "midi": 71,
      "hit": false,
      "t": 50933.13671875,
      "d": 192.45989583332994,
      "v": 113
    },
    {
      "midi": 60,
      "hit": false,
      "t": 51191.58286458333,
      "d": 1611.164270833331,
      "v": 97
    },
    {
      "midi": 72,
      "hit": false,
      "t": 51197.08171875,
      "d": 192.45989583332994,
      "v": 111
    },
    {
      "midi": 64,
      "hit": false,
      "t": 51455.52786458333,
      "d": 1360.9664062500015,
      "v": 90
    },
    {
      "midi": 72,
      "hit": false,
      "t": 51461.02671875,
      "d": 761.5913020833323,
      "v": 114
    },
    {
      "midi": 72,
      "hit": false,
      "t": 52250.112291666665,
      "d": 255.69671874999767,
      "v": 104
    },
    {
      "midi": 71,
      "hit": false,
      "t": 52511.30786458333,
      "d": 2095.0634374999936,
      "v": 92
    },
    {
      "midi": 72,
      "hit": false,
      "t": 52516.80671874999,
      "d": 252.94729166666366,
      "v": 113
    },
    {
      "midi": 56,
      "hit": false,
      "t": 52778.002291666664,
      "d": 2001.5829166666663,
      "v": 81
    },
    {
      "midi": 71,
      "hit": false,
      "t": 52780.75171874999,
      "d": 250.19786458333692,
      "v": 118
    },
    {
      "midi": 44,
      "hit": false,
      "t": 52780.75171875,
      "d": 2111.560000000005,
      "v": 101
    },
    {
      "midi": 68,
      "hit": false,
      "t": 52780.75171875,
      "d": 2031.8266145833331,
      "v": 99
    },
    {
      "midi": 56,
      "hit": false,
      "t": 52780.75171875,
      "d": 2059.320885416666,
      "v": 96
    },
    {
      "midi": 68,
      "hit": false,
      "t": 52780.75171875,
      "d": 2015.330052083329,
      "v": 81
    },
    {
      "midi": 68,
      "hit": false,
      "t": 52780.75171875001,
      "d": 2089.564583333333,
      "v": 78
    },
    {
      "midi": 68,
      "hit": false,
      "t": 52808.245989583345,
      "d": 1982.3369270833355,
      "v": 98
    },
    {
      "midi": 64,
      "hit": false,
      "t": 52808.245989583345,
      "d": 1993.3346354166715,
      "v": 100
    },
    {
      "midi": 74,
      "hit": false,
      "t": 52808.245989583345,
      "d": 1993.3346354166715,
      "v": 99
    },
    {
      "midi": 71,
      "hit": false,
      "t": 52813.74484375001,
      "d": 1979.5875000000015,
      "v": 98
    },
    {
      "midi": 72,
      "hit": false,
      "t": 53044.69671875,
      "d": 206.20703125,
      "v": 113
    },
    {
      "midi": 56,
      "hit": false,
      "t": 53303.14286458333,
      "d": 280.4415624999965,
      "v": 97
    },
    {
      "midi": 74,
      "hit": false,
      "t": 53308.64171875,
      "d": 222.7035937499968,
      "v": 115
    },
    {
      "midi": 59,
      "hit": false,
      "t": 53567.08786458333,
      "d": 1212.497343749994,
      "v": 86
    },
    {
      "midi": 74,
      "hit": false,
      "t": 53572.58671875,
      "d": 753.343020833323,
      "v": 110
    },
    {
      "midi": 72,
      "hit": false,
      "t": 54625.617291666655,
      "d": 244.6990104166689,
      "v": 89
    },
    {
      "midi": 71,
      "hit": false,
      "t": 54628.366718749996,
      "d": 263.9449999999997,
      "v": 112
    },
    {
      "midi": 43,
      "hit": false,
      "t": 54892.31171875,
      "d": 2111.5599999999977,
      "v": 104
    },
    {
      "midi": 72,
      "hit": false,
      "t": 54892.31171875,
      "d": 2031.8266145833331,
      "v": 104
    },
    {
      "midi": 55,
      "hit": false,
      "t": 54892.31171875,
      "d": 2037.3254687500012,
      "v": 103
    },
    {
      "midi": 64,
      "hit": false,
      "t": 54892.31171875,
      "d": 4135.138333333336,
      "v": 97
    },
    {
      "midi": 72,
      "hit": false,
      "t": 54900.55999999999,
      "d": 775.338437499995,
      "v": 101
    },
    {
      "midi": 55,
      "hit": false,
      "t": 54900.55999999999,
      "d": 2056.571458333332,
      "v": 78
    },
    {
      "midi": 60,
      "hit": false,
      "t": 54900.55999999999,
      "d": 2078.566874999997,
      "v": 76
    },
    {
      "midi": 67,
      "hit": false,
      "t": 54900.55999999999,
      "d": 2078.566874999997,
      "v": 81
    },
    {
      "midi": 72,
      "hit": false,
      "t": 54900.56,
      "d": 263.9449999999997,
      "v": 111
    },
    {
      "midi": 67,
      "hit": false,
      "t": 54900.56000000001,
      "d": 2111.560000000005,
      "v": 80
    },
    {
      "midi": 67,
      "hit": false,
      "t": 54900.56000000002,
      "d": 2029.0771874999991,
      "v": 101
    },
    {
      "midi": 72,
      "hit": false,
      "t": 54900.56000000002,
      "d": 2029.0771874999991,
      "v": 98
    },
    {
      "midi": 64,
      "hit": false,
      "t": 54900.56000000002,
      "d": 2045.573749999996,
      "v": 97
    },
    {
      "midi": 74,
      "hit": false,
      "t": 55156.256718749995,
      "d": 211.70588541666802,
      "v": 110
    },
    {
      "midi": 55,
      "hit": false,
      "t": 55420.20171874999,
      "d": 340.92895833333023,
      "v": 97
    },
    {
      "midi": 76,
      "hit": false,
      "t": 55420.201718749995,
      "d": 189.7104687500032,
      "v": 117
    },
    {
      "midi": 72,
      "hit": false,
      "t": 55684.14671874999,
      "d": 742.3453124999942,
      "v": 89
    },
    {
      "midi": 60,
      "hit": false,
      "t": 55684.14671874999,
      "d": 1319.7249999999913,
      "v": 84
    },
    {
      "midi": 81,
      "hit": false,
      "t": 55684.14671875,
      "d": 522.391145833346,
      "v": 116
    },
    {
      "midi": 71,
      "hit": false,
      "t": 56475.98171874998,
      "d": 244.6990104166689,
      "v": 100
    },
    {
      "midi": 76,
      "hit": false,
      "t": 56475.981718750016,
      "d": 239.20015625000087,
      "v": 113
    },
    {
      "midi": 72,
      "hit": false,
      "t": 56739.92671874998,
      "d": 252.94729166666366,
      "v": 84
    },
    {
      "midi": 79,
      "hit": false,
      "t": 56739.926718750015,
      "d": 214.45531250000204,
      "v": 110
    },
    {
      "midi": 76,
      "hit": false,
      "t": 57003.87171874998,
      "d": 1974.0886458333334,
      "v": 101
    },
    {
      "midi": 64,
      "hit": false,
      "t": 57003.871718749986,
      "d": 1033.784583333334,
      "v": 79
    },
    {
      "midi": 54,
      "hit": false,
      "t": 57003.871718749986,
      "d": 2045.5737500000032,
      "v": 76
    },
    {
      "midi": 66,
      "hit": false,
      "t": 57003.871718749986,
      "d": 2067.569166666668,
      "v": 74
    },
    {
      "midi": 42,
      "hit": false,
      "t": 57003.87171875,
      "d": 2111.5599999999977,
      "v": 99
    },
    {
      "midi": 76,
      "hit": false,
      "t": 57003.87171875,
      "d": 2012.5806250000023,
      "v": 100
    },
    {
      "midi": 54,
      "hit": false,
      "t": 57003.87171875,
      "d": 2045.5737500000032,
      "v": 98
    },
    {
      "midi": 69,
      "hit": false,
      "t": 57003.871718750015,
      "d": 1998.8334895833323,
      "v": 79
    },
    {
      "midi": 79,
      "hit": false,
      "t": 57003.87171875002,
      "d": 274.94270833333576,
      "v": 111
    },
    {
      "midi": 72,
      "hit": false,
      "t": 57009.37057291668,
      "d": 2064.819739583334,
      "v": 99
    },
    {
      "midi": 76,
      "hit": false,
      "t": 57009.37057291668,
      "d": 2078.566875000004,
      "v": 103
    },
    {
      "midi": 69,
      "hit": false,
      "t": 57009.37057291668,
      "d": 2086.815156250006,
      "v": 97
    },
    {
      "midi": 74,
      "hit": false,
      "t": 57355.79838541669,
      "d": 307.93583333333663,
      "v": 118
    },
    {
      "midi": 57,
      "hit": false,
      "t": 57531.76171874998,
      "d": 1432.451510416664,
      "v": 96
    },
    {
      "midi": 72,
      "hit": false,
      "t": 57707.72505208336,
      "d": 318.9335416666654,
      "v": 113
    },
    {
      "midi": 60,
      "hit": false,
      "t": 57795.70671874998,
      "d": 1182.2536458333343,
      "v": 88
    },
    {
      "midi": 60,
      "hit": false,
      "t": 58059.651718749985,
      "d": 978.7960416666683,
      "v": 80
    },
    {
      "midi": 69,
      "hit": false,
      "t": 58059.65171875003,
      "d": 846.8235416666648,
      "v": 109
    },
    {
      "midi": 69,
      "hit": false,
      "t": 59123.679999999986,
      "d": 2056.571458333332,
      "v": 82
    },
    {
      "midi": 57,
      "hit": false,
      "t": 59123.679999999986,
      "d": 2078.566874999997,
      "v": 77
    },
    {
      "midi": 60,
      "hit": false,
      "t": 59123.679999999986,
      "d": 3926.1818749999948,
      "v": 73
    },
    {
      "midi": 38,
      "hit": false,
      "t": 59123.68,
      "d": 2111.560000000005,
      "v": 100
    },
    {
      "midi": 69,
      "hit": false,
      "t": 59123.68,
      "d": 2062.0703125,
      "v": 103
    },
    {
      "midi": 65,
      "hit": false,
      "t": 59123.68,
      "d": 2075.81744791667,
      "v": 99
    },
    {
      "midi": 67,
      "hit": false,
      "t": 59123.680000000015,
      "d": 4223.120000000003,
      "v": 80
    },
    {
      "midi": 72,
      "hit": false,
      "t": 59123.68000000002,
      "d": 1671.6516666666648,
      "v": 103
    },
    {
      "midi": 65,
      "hit": false,
      "t": 59123.68000000002,
      "d": 2029.0771874999991,
      "v": 103
    },
    {
      "midi": 69,
      "hit": false,
      "t": 59123.68000000002,
      "d": 2045.573749999996,
      "v": 97
    },
    {
      "midi": 77,
      "hit": false,
      "t": 59123.68000000003,
      "d": 263.945000000007,
      "v": 117
    },
    {
      "midi": 76,
      "hit": false,
      "t": 59379.376718750034,
      "d": 225.4530208333381,
      "v": 116
    },
    {
      "midi": 74,
      "hit": false,
      "t": 59643.32171875004,
      "d": 142.97020833333227,
      "v": 113
    },
    {
      "midi": 67,
      "hit": false,
      "t": 59907.266718749976,
      "d": 2034.5760416666672,
      "v": 88
    },
    {
      "midi": 72,
      "hit": false,
      "t": 59907.26671875004,
      "d": 1058.5294270833328,
      "v": 110
    },
    {
      "midi": 67,
      "hit": false,
      "t": 60688.10401041669,
      "d": 277.6921354166625,
      "v": 98
    },
    {
      "midi": 72,
      "hit": false,
      "t": 60957.54786458335,
      "d": 230.95187499999884,
      "v": 100
    },
    {
      "midi": 67,
      "hit": false,
      "t": 61215.99401041668,
      "d": 2062.0703125,
      "v": 95
    },
    {
      "midi": 72,
      "hit": false,
      "t": 61215.99401041668,
      "d": 2070.318593750002,
      "v": 102
    },
    {
      "midi": 64,
      "hit": false,
      "t": 61218.743437500016,
      "d": 2064.819739583334,
      "v": 103
    },
    {
      "midi": 67,
      "hit": false,
      "t": 61221.492864583335,
      "d": 2031.8266145833331,
      "v": 103
    },
    {
      "midi": 64,
      "hit": false,
      "t": 61224.24229166667,
      "d": 2004.3323437500003,
      "v": 95
    },
    {
      "midi": 40,
      "hit": false,
      "t": 61226.99171875,
      "d": 2111.560000000005,
      "v": 101
    },
    {
      "midi": 77,
      "hit": false,
      "t": 61237.98942708338,
      "d": 362.9243750000096,
      "v": 114
    },
    {
      "midi": 76,
      "hit": false,
      "t": 61622.90921875006,
      "d": 307.93583333333663,
      "v": 116
    },
    {
      "midi": 67,
      "hit": false,
      "t": 62018.82671874997,
      "d": 1237.2421875,
      "v": 92
    },
    {
      "midi": 74,
      "hit": false,
      "t": 62018.82671875006,
      "d": 285.94041666666453,
      "v": 112
    },
    {
      "midi": 76,
      "hit": false,
      "t": 62255.27744791673,
      "d": 162.21619791666308,
      "v": 117
    },
    {
      "midi": 74,
      "hit": false,
      "t": 62398.24765625006,
      "d": 137.47135416666424,
      "v": 116
    },
    {
      "midi": 72,
      "hit": false,
      "t": 62532.96958333339,
      "d": 274.9427083333285,
      "v": 112
    },
    {
      "midi": 69,
      "hit": false,
      "t": 63060.859583333346,
      "d": 148.4690625000003,
      "v": 100
    },
    {
      "midi": 71,
      "hit": false,
      "t": 63192.83208333335,
      "d": 164.96562500000437,
      "v": 101
    },
    {
      "midi": 45,
      "hit": false,
      "t": 63338.55171875001,
      "d": 1055.7799999999988,
      "v": 98
    },
    {
      "midi": 72,
      "hit": false,
      "t": 63346.799999999974,
      "d": 472.9014583333337,
      "v": 100
    },
    {
      "midi": 65,
      "hit": false,
      "t": 63346.799999999974,
      "d": 478.40031250000175,
      "v": 95
    },
    {
      "midi": 69,
      "hit": false,
      "t": 63346.799999999974,
      "d": 478.40031250000175,
      "v": 102
    },
    {
      "midi": 65,
      "hit": false,
      "t": 63346.79999999998,
      "d": 2056.571458333332,
      "v": 82
    },
    {
      "midi": 69,
      "hit": false,
      "t": 63346.79999999998,
      "d": 2067.569166666668,
      "v": 74
    },
    {
      "midi": 65,
      "hit": false,
      "t": 63346.8,
      "d": 2020.828906249997,
      "v": 98
    },
    {
      "midi": 69,
      "hit": false,
      "t": 63346.8,
      "d": 2031.8266145833331,
      "v": 98
    },
    {
      "midi": 77,
      "hit": false,
      "t": 63346.8,
      "d": 2031.8266145833331,
      "v": 101
    },
    {
      "midi": 45,
      "hit": false,
      "t": 63346.8,
      "d": 2042.8243229166692,
      "v": 95
    },
    {
      "midi": 69,
      "hit": false,
      "t": 63346.80000000002,
      "d": 2029.0771875000064,
      "v": 96
    },
    {
      "midi": 72,
      "hit": false,
      "t": 63346.80000000002,
      "d": 2034.5760416666744,
      "v": 99
    },
    {
      "midi": 65,
      "hit": false,
      "t": 63346.80000000002,
      "d": 2045.5737500000105,
      "v": 101
    },
    {
      "midi": 69,
      "hit": false,
      "t": 63346.80000000002,
      "d": 2089.564583333333,
      "v": 86
    },
    {
      "midi": 77,
      "hit": false,
      "t": 63346.800000000054,
      "d": 483.89916666666977,
      "v": 118
    },
    {
      "midi": 72,
      "hit": false,
      "t": 63847.19572916664,
      "d": 516.8922916666706,
      "v": 100
    },
    {
      "midi": 65,
      "hit": false,
      "t": 63855.44401041664,
      "d": 494.89687499999854,
      "v": 103
    },
    {
      "midi": 69,
      "hit": false,
      "t": 63855.44401041664,
      "d": 516.8922916666706,
      "v": 95
    },
    {
      "midi": 77,
      "hit": false,
      "t": 63866.44171875006,
      "d": 459.15432291666366,
      "v": 115
    },
    {
      "midi": 69,
      "hit": false,
      "t": 64394.33171874998,
      "d": 285.94041666666453,
      "v": 95
    },
    {
      "midi": 65,
      "hit": false,
      "t": 64394.33171874998,
      "d": 296.9381250000006,
      "v": 96
    },
    {
      "midi": 72,
      "hit": false,
      "t": 64394.33171874998,
      "d": 329.93125000000146,
      "v": 95
    },
    {
      "midi": 77,
      "hit": false,
      "t": 64394.33171875006,
      "d": 351.9266666666663,
      "v": 111
    },
    {
      "midi": 33,
      "hit": false,
      "t": 64410.828281250004,
      "d": 527.8899999999994,
      "v": 100
    },
    {
      "midi": 76,
      "hit": false,
      "t": 64746.258385416724,
      "d": 294.18869791666657,
      "v": 117
    },
    {
      "midi": 65,
      "hit": false,
      "t": 64751.75723958331,
      "d": 296.9381250000006,
      "v": 86
    },
    {
      "midi": 72,
      "hit": false,
      "t": 64757.25609374998,
      "d": 307.93583333332936,
      "v": 87
    },
    {
      "midi": 69,
      "hit": false,
      "t": 64762.75494791665,
      "d": 318.93354166665813,
      "v": 88
    },
    {
      "midi": 45,
      "hit": false,
      "t": 64938.71828125,
      "d": 527.8899999999994,
      "v": 100
    },
    {
      "midi": 77,
      "hit": false,
      "t": 65098.18505208339,
      "d": 302.4369791666686,
      "v": 117
    },
    {
      "midi": 65,
      "hit": false,
      "t": 65103.68390624997,
      "d": 307.93583333332936,
      "v": 95
    },
    {
      "midi": 69,
      "hit": false,
      "t": 65114.68161458331,
      "d": 280.4415624999965,
      "v": 90
    },
    {
      "midi": 74,
      "hit": false,
      "t": 65114.68161458331,
      "d": 307.93583333332936,
      "v": 93
    },
    {
      "midi": 62,
      "hit": false,
      "t": 65450.11171874997,
      "d": 973.2971875000003,
      "v": 99
    },
    {
      "midi": 71,
      "hit": false,
      "t": 65450.11171874997,
      "d": 989.7937500000044,
      "v": 97
    },
    {
      "midi": 74,
      "hit": false,
      "t": 65450.11171874997,
      "d": 1022.786874999998,
      "v": 97
    },
    {
      "midi": 67,
      "hit": false,
      "t": 65450.111718749984,
      "d": 1869.61041666667,
      "v": 73
    },
    {
      "midi": 71,
      "hit": false,
      "t": 65450.111718749984,
      "d": 1957.592083333344,
      "v": 75
    },
    {
      "midi": 23,
      "hit": false,
      "t": 65450.111718750006,
      "d": 1055.7799999999988,
      "v": 102
    },
    {
      "midi": 35,
      "hit": false,
      "t": 65450.111718750006,
      "d": 1055.7799999999988,
      "v": 95
    },
    {
      "midi": 67,
      "hit": false,
      "t": 65450.111718750006,
      "d": 1943.8449479166593,
      "v": 103
    },
    {
      "midi": 62,
      "hit": false,
      "t": 65450.111718750006,
      "d": 1946.594374999986,
      "v": 102
    },
    {
      "midi": 79,
      "hit": false,
      "t": 65450.111718750006,
      "d": 1993.3346354166424,
      "v": 101
    },
    {
      "midi": 67,
      "hit": false,
      "t": 65450.11171875002,
      "d": 1022.7868750000052,
      "v": 84
    },
    {
      "midi": 74,
      "hit": false,
      "t": 65450.11171875003,
      "d": 1968.5897916666654,
      "v": 102
    },
    {
      "midi": 71,
      "hit": false,
      "t": 65450.11171875003,
      "d": 1990.5852083333375,
      "v": 102
    },
    {
      "midi": 67,
      "hit": false,
      "t": 65450.11171875003,
      "d": 2034.5760416666672,
      "v": 101
    },
    {
      "midi": 79,
      "hit": false,
      "t": 65458.36000000006,
      "d": 307.93583333333663,
      "v": 115
    },
    {
      "midi": 47,
      "hit": false,
      "t": 65466.60828125,
      "d": 1938.346093749984,
      "v": 103
    },
    {
      "midi": 79,
      "hit": false,
      "t": 65983.50057291685,
      "d": 354.676093749993,
      "v": 104
    },
    {
      "midi": 76,
      "hit": false,
      "t": 65994.49828125007,
      "d": 368.42322916667035,
      "v": 111
    },
    {
      "midi": 60,
      "hit": false,
      "t": 66505.89171874996,
      "d": 494.8968750000058,
      "v": 101
    },
    {
      "midi": 67,
      "hit": false,
      "t": 66505.89171875002,
      "d": 483.89916666666977,
      "v": 79
    },
    {
      "midi": 76,
      "hit": false,
      "t": 66505.89171875008,
      "d": 415.16348958332674,
      "v": 115
    },
    {
      "midi": 79,
      "hit": false,
      "t": 66505.89171875018,
      "d": 390.418645833357,
      "v": 103
    },
    {
      "midi": 23,
      "hit": false,
      "t": 66522.38828125001,
      "d": 1055.7799999999988,
      "v": 95
    },
    {
      "midi": 35,
      "hit": false,
      "t": 66522.38828125001,
      "d": 1055.7799999999988,
      "v": 98
    },
    {
      "midi": 62,
      "hit": false,
      "t": 67033.78171874996,
      "d": 494.8968750000058,
      "v": 100
    },
    {
      "midi": 67,
      "hit": false,
      "t": 67033.78171874996,
      "d": 527.8899999999994,
      "v": 97
    },
    {
      "midi": 67,
      "hit": false,
      "t": 67033.78171875002,
      "d": 481.1497395833285,
      "v": 78
    },
    {
      "midi": 76,
      "hit": false,
      "t": 67033.78171875008,
      "d": 269.443854166675,
      "v": 110
    },
    {
      "midi": 79,
      "hit": false,
      "t": 67033.7817187502,
      "d": 261.1955729166657,
      "v": 100
    },
    {
      "midi": 74,
      "hit": false,
      "t": 67297.72671875008,
      "d": 230.95187499999884,
      "v": 114
    },
    {
      "midi": 77,
      "hit": false,
      "t": 67297.72671875019,
      "d": 214.45531249999476,
      "v": 102
    },
    {
      "midi": 48,
      "hit": false,
      "t": 67569.91999999998,
      "d": 2053.8220312500052,
      "v": 99
    },
    {
      "midi": 76,
      "hit": false,
      "t": 67569.91999999998,
      "d": 4077.400364583329,
      "v": 103
    },
    {
      "midi": 64,
      "hit": false,
      "t": 67569.91999999998,
      "d": 4088.398072916665,
      "v": 102
    },
    {
      "midi": 67,
      "hit": false,
      "t": 67569.91999999998,
      "d": 4088.398072916665,
      "v": 104
    },
    {
      "midi": 55,
      "hit": false,
      "t": 67569.92,
      "d": 1979.5874999999942,
      "v": 73
    },
    {
      "midi": 60,
      "hit": false,
      "t": 67569.92,
      "d": 2001.5829166666663,
      "v": 80
    },
    {
      "midi": 64,
      "hit": false,
      "t": 67569.92,
      "d": 4168.131458333344,
      "v": 77
    },
    {
      "midi": 36,
      "hit": false,
      "t": 67569.92000000001,
      "d": 1567.1734374999942,
      "v": 55
    },
    {
      "midi": 48,
      "hit": false,
      "t": 67569.92000000001,
      "d": 1583.6699999999837,
      "v": 95
    },
    {
      "midi": 64,
      "hit": false,
      "t": 67569.92000000001,
      "d": 2122.5577083333337,
      "v": 77
    },
    {
      "midi": 64,
      "hit": false,
      "t": 67569.92000000003,
      "d": 1996.0840624999983,
      "v": 104
    },
    {
      "midi": 55,
      "hit": false,
      "t": 67569.92000000003,
      "d": 2045.573749999996,
      "v": 100
    },
    {
      "midi": 60,
      "hit": false,
      "t": 67569.92000000003,
      "d": 2045.573749999996,
      "v": 96
    },
    {
      "midi": 76,
      "hit": false,
      "t": 67578.16828125008,
      "d": 494.8968750000058,
      "v": 117
    },
    {
      "midi": 79,
      "hit": false,
      "t": 67578.16828125018,
      "d": 483.89916666666977,
      "v": 97
    },
    {
      "midi": 55,
      "hit": false,
      "t": 68097.80999999995,
      "d": 1011.7891666666692,
      "v": 103
    },
    {
      "midi": 72,
      "hit": false,
      "t": 68106.05828125008,
      "d": 115.47593749999942,
      "v": 115
    },
    {
      "midi": 76,
      "hit": false,
      "t": 68106.05828125018,
      "d": 131.9725000000035,
      "v": 102
    },
    {
      "midi": 76,
      "hit": false,
      "t": 68367.25385416685,
      "d": 668.1107812499977,
      "v": 99
    },
    {
      "midi": 72,
      "hit": false,
      "t": 68370.00328125007,
      "d": 665.3613541666709,
      "v": 110
    },
    {
      "midi": 55,
      "hit": false,
      "t": 69145.34171874996,
      "d": 552.6348437500128,
      "v": 95
    },
    {
      "midi": 28,
      "hit": false,
      "t": 69145.34171875,
      "d": 263.94499999999243,
      "v": 61
    },
    {
      "midi": 40,
      "hit": false,
      "t": 69145.34171875,
      "d": 263.94499999999243,
      "v": 100
    },
    {
      "midi": 71,
      "hit": false,
      "t": 69145.34171875007,
      "d": 263.945000000007,
      "v": 113
    },
    {
      "midi": 74,
      "hit": false,
      "t": 69145.34171875018,
      "d": 263.945000000007,
      "v": 99
    },
    {
      "midi": 59,
      "hit": false,
      "t": 69409.28671874997,
      "d": 296.9381250000006,
      "v": 89
    },
    {
      "midi": 43,
      "hit": false,
      "t": 69409.28671875,
      "d": 263.945000000007,
      "v": 99
    },
    {
      "midi": 31,
      "hit": false,
      "t": 69409.28671875,
      "d": 277.69213541666977,
      "v": 63
    },
    {
      "midi": 72,
      "hit": false,
      "t": 69409.28671875008,
      "d": 258.44614583333896,
      "v": 117
    },
    {
      "midi": 76,
      "hit": false,
      "t": 69409.28671875018,
      "d": 266.6944270833337,
      "v": 100
    },
    {
      "midi": 60,
      "hit": false,
      "t": 69670.48229166669,
      "d": 951.3017708333209,
      "v": 98
    },
    {
      "midi": 55,
      "hit": false,
      "t": 69670.48229166669,
      "d": 954.0511979166477,
      "v": 95
    },
    {
      "midi": 60,
      "hit": false,
      "t": 69673.23171874997,
      "d": 2029.0771874999919,
      "v": 104
    },
    {
      "midi": 45,
      "hit": false,
      "t": 69673.23171874999,
      "d": 2009.831197916661,
      "v": 95
    },
    {
      "midi": 33,
      "hit": false,
      "t": 69673.23171875,
      "d": 1022.7868749999907,
      "v": 57
    },
    {
      "midi": 45,
      "hit": false,
      "t": 69673.23171875,
      "d": 1055.7799999999843,
      "v": 100
    },
    {
      "midi": 57,
      "hit": false,
      "t": 69673.23171875,
      "d": 1963.0909375000047,
      "v": 73
    },
    {
      "midi": 60,
      "hit": false,
      "t": 69673.23171875,
      "d": 1963.0909375000047,
      "v": 75
    },
    {
      "midi": 52,
      "hit": false,
      "t": 69673.23171875002,
      "d": 951.3017708333209,
      "v": 98
    },
    {
      "midi": 67,
      "hit": false,
      "t": 69673.23171875002,
      "d": 2067.569166666668,
      "v": 77
    },
    {
      "midi": 57,
      "hit": false,
      "t": 70201.12171874997,
      "d": 527.8899999999994,
      "v": 95
    },
    {
      "midi": 76,
      "hit": false,
      "t": 70478.81385416686,
      "d": 156.71734375000233,
      "v": 100
    },
    {
      "midi": 72,
      "hit": false,
      "t": 70481.56328125008,
      "d": 153.96791666666104,
      "v": 115
    },
    {
      "midi": 57,
      "hit": false,
      "t": 70729.01171874997,
      "d": 483.89916666666977,
      "v": 100
    },
    {
      "midi": 33,
      "hit": false,
      "t": 70729.01171874999,
      "d": 500.39572916667385,
      "v": 63
    },
    {
      "midi": 45,
      "hit": false,
      "t": 70729.01171874999,
      "d": 527.890000000014,
      "v": 103
    },
    {
      "midi": 72,
      "hit": false,
      "t": 70729.01171875007,
      "d": 272.19328125000175,
      "v": 112
    },
    {
      "midi": 76,
      "hit": false,
      "t": 70729.01171875019,
      "d": 285.9404166666791,
      "v": 104
    },
    {
      "midi": 60,
      "hit": false,
      "t": 70737.26000000001,
      "d": 989.7937499999971,
      "v": 96
    },
    {
      "midi": 67,
      "hit": false,
      "t": 70737.26000000001,
      "d": 1000.7914583333186,
      "v": 104
    },
    {
      "midi": 64,
      "hit": false,
      "t": 70740.00942708334,
      "d": 989.7937499999971,
      "v": 95
    },
    {
      "midi": 74,
      "hit": false,
      "t": 70992.95671875008,
      "d": 285.94041666666453,
      "v": 115
    },
    {
      "midi": 77,
      "hit": false,
      "t": 70992.9567187502,
      "d": 307.93583333333663,
      "v": 104
    },
    {
      "midi": 57,
      "hit": false,
      "t": 71256.90171874997,
      "d": 569.1314062499878,
      "v": 98
    },
    {
      "midi": 21,
      "hit": false,
      "t": 71256.90171875,
      "d": 456.40489583332965,
      "v": 56
    },
    {
      "midi": 33,
      "hit": false,
      "t": 71256.90171875,
      "d": 527.8899999999994,
      "v": 103
    },
    {
      "midi": 76,
      "hit": false,
      "t": 71256.90171875007,
      "d": 472.9014583333337,
      "v": 118
    },
    {
      "midi": 79,
      "hit": false,
      "t": 71256.9017187502,
      "d": 467.4026041666657,
      "v": 98
    },
    {
      "midi": 43,
      "hit": false,
      "t": 71793.03999999998,
      "d": 2029.0771875000064,
      "v": 104
    },
    {
      "midi": 60,
      "hit": false,
      "t": 71793.03999999998,
      "d": 2086.8151562500134,
      "v": 99
    },
    {
      "midi": 67,
      "hit": false,
      "t": 71793.03999999998,
      "d": 4066.4026562500076,
      "v": 101
    },
    {
      "midi": 62,
      "hit": false,
      "t": 71793.03999999998,
      "d": 4077.4003645833436,
      "v": 99
    },
    {
      "midi": 31,
      "hit": false,
      "t": 71793.04,
      "d": 1506.6860416666605,
      "v": 57
    },
    {
      "midi": 43,
      "hit": false,
      "t": 71793.04,
      "d": 1553.4263020833314,
      "v": 95
    },
    {
      "midi": 60,
      "hit": false,
      "t": 71793.04,
      "d": 3101.3537499999948,
      "v": 102
    },
    {
      "midi": 62,
      "hit": false,
      "t": 71793.04,
      "d": 3101.3537499999948,
      "v": 95
    },
    {
      "midi": 67,
      "hit": false,
      "t": 71793.04,
      "d": 3101.3537499999948,
      "v": 104
    },
    {
      "midi": 60,
      "hit": false,
      "t": 71793.04000000001,
      "d": 2111.5599999999977,
      "v": 82
    },
    {
      "midi": 62,
      "hit": false,
      "t": 71793.04000000001,
      "d": 3123.349166666667,
      "v": 77
    },
    {
      "midi": 55,
      "hit": false,
      "t": 71793.04000000001,
      "d": 3189.3354166666686,
      "v": 82
    },
    {
      "midi": 60,
      "hit": false,
      "t": 71793.04000000002,
      "d": 2133.5554166666698,
      "v": 78
    },
    {
      "midi": 76,
      "hit": false,
      "t": 71793.04000000007,
      "d": 527.8899999999994,
      "v": 118
    },
    {
      "midi": 81,
      "hit": false,
      "t": 71793.0400000002,
      "d": 516.8922916666779,
      "v": 103
    },
    {
      "midi": 74,
      "hit": false,
      "t": 72312.68171875007,
      "d": 131.97249999998894,
      "v": 114
    },
    {
      "midi": 79,
      "hit": false,
      "t": 72312.6817187502,
      "d": 120.97479166666744,
      "v": 102
    },
    {
      "midi": 74,
      "hit": false,
      "t": 72576.62671875006,
      "d": 739.595885416682,
      "v": 112
    },
    {
      "midi": 79,
      "hit": false,
      "t": 72576.62671875021,
      "d": 742.3453125000233,
      "v": 97
    },
    {
      "midi": 60,
      "hit": false,
      "t": 73368.46171874995,
      "d": 494.8968750000058,
      "v": 96
    },
    {
      "midi": 31,
      "hit": false,
      "t": 73368.46171875,
      "d": 459.15432291667094,
      "v": 63
    },
    {
      "midi": 43,
      "hit": false,
      "t": 73368.46171875,
      "d": 527.8899999999994,
      "v": 97
    },
    {
      "midi": 74,
      "hit": false,
      "t": 73384.95828125009,
      "d": 241.94958333333489,
      "v": 115
    },
    {
      "midi": 79,
      "hit": false,
      "t": 73384.95828125023,
      "d": 241.94958333333489,
      "v": 103
    },
    {
      "midi": 76,
      "hit": false,
      "t": 73632.40671875009,
      "d": 167.71505208333838,
      "v": 110
    },
    {
      "midi": 81,
      "hit": false,
      "t": 73640.65500000023,
      "d": 170.46447916666511,
      "v": 98
    },
    {
      "midi": 43,
      "hit": false,
      "t": 73885.35401041666,
      "d": 1020.037447916664,
      "v": 97
    },
    {
      "midi": 59,
      "hit": false,
      "t": 73893.60229166666,
      "d": 2020.828906249997,
      "v": 97
    },
    {
      "midi": 59,
      "hit": false,
      "t": 73896.35171874995,
      "d": 1152.009947916682,
      "v": 95
    },
    {
      "midi": 31,
      "hit": false,
      "t": 73896.35171875,
      "d": 989.7937499999971,
      "v": 59
    },
    {
      "midi": 43,
      "hit": false,
      "t": 73896.35171875,
      "d": 1055.7799999999988,
      "v": 103
    },
    {
      "midi": 59,
      "hit": false,
      "t": 73896.35171875001,
      "d": 1055.7799999999988,
      "v": 79
    },
    {
      "midi": 59,
      "hit": false,
      "t": 73912.84828125003,
      "d": 472.9014583333337,
      "v": 77
    },
    {
      "midi": 59,
      "hit": false,
      "t": 74424.24171875003,
      "d": 547.1359895833302,
      "v": 81
    },
    {
      "midi": 76,
      "hit": false,
      "t": 74424.2417187501,
      "d": 472.9014583333337,
      "v": 117
    },
    {
      "midi": 79,
      "hit": false,
      "t": 74424.24171875023,
      "d": 450.9060416666616,
      "v": 100
    },
    {
      "midi": 67,
      "hit": false,
      "t": 74688.18671874996,
      "d": 263.945000000007,
      "v": 93
    },
    {
      "midi": 72,
      "hit": false,
      "t": 74949.38229166665,
      "d": 959.5500520833302,
      "v": 100
    },
    {
      "midi": 67,
      "hit": false,
      "t": 74949.38229166665,
      "d": 970.5477604166663,
      "v": 104
    },
    {
      "midi": 64,
      "hit": false,
      "t": 74949.38229166665,
      "d": 984.2948958333291,
      "v": 100
    },
    {
      "midi": 72,
      "hit": false,
      "t": 74952.13171874997,
      "d": 571.8808333333291,
      "v": 99
    },
    {
      "midi": 28,
      "hit": false,
      "t": 74952.13171875,
      "d": 956.8006250000035,
      "v": 62
    },
    {
      "midi": 40,
      "hit": false,
      "t": 74952.13171875,
      "d": 1055.7799999999988,
      "v": 98
    },
    {
      "midi": 64,
      "hit": false,
      "t": 74952.13171875002,
      "d": 475.65088541666046,
      "v": 83
    },
    {
      "midi": 79,
      "hit": false,
      "t": 74952.1317187501,
      "d": 428.9106250000041,
      "v": 115
    },
    {
      "midi": 84,
      "hit": false,
      "t": 74952.13171875023,
      "d": 409.6646354166587,
      "v": 100
    },
    {
      "midi": 60,
      "hit": false,
      "t": 74974.12713541668,
      "d": 901.8120833333232,
      "v": 79
    },
    {
      "midi": 67,
      "hit": false,
      "t": 75480.02171874997,
      "d": 494.89687499999127,
      "v": 97
    },
    {
      "midi": 59,
      "hit": false,
      "t": 75480.02171875002,
      "d": 483.89916666666977,
      "v": 86
    },
    {
      "midi": 76,
      "hit": false,
      "t": 75480.0217187501,
      "d": 450.9060416666616,
      "v": 111
    },
    {
      "midi": 79,
      "hit": false,
      "t": 75480.02171875021,
      "d": 428.9106250000041,
      "v": 97
    },
    {
      "midi": 48,
      "hit": false,
      "t": 76016.15999999996,
      "d": 739.5958854166674,
      "v": 98
    },
    {
      "midi": 65,
      "hit": false,
      "t": 76016.15999999996,
      "d": 1550.6768750000047,
      "v": 101
    },
    {
      "midi": 57,
      "hit": false,
      "t": 76016.15999999996,
      "d": 1644.157395833332,
      "v": 104
    },
    {
      "midi": 41,
      "hit": false,
      "t": 76016.15999999999,
      "d": 1553.4263020833314,
      "v": 96
    },
    {
      "midi": 29,
      "hit": false,
      "t": 76016.15999999999,
      "d": 1564.4240104166674,
      "v": 55
    },
    {
      "midi": 69,
      "hit": false,
      "t": 76016.15999999999,
      "d": 1996.0840624999983,
      "v": 99
    },
    {
      "midi": 62,
      "hit": false,
      "t": 76016.15999999999,
      "d": 2029.0771874999919,
      "v": 101
    },
    {
      "midi": 65,
      "hit": false,
      "t": 76016.15999999999,
      "d": 2029.0771874999919,
      "v": 95
    },
    {
      "midi": 41,
      "hit": false,
      "t": 76016.15999999999,
      "d": 2097.812864583335,
      "v": 96
    },
    {
      "midi": 60,
      "hit": false,
      "t": 76016.15999999999,
      "d": 4011.414114583342,
      "v": 103
    },
    {
      "midi": 65,
      "hit": false,
      "t": 76016.15999999999,
      "d": 4055.4049479166715,
      "v": 100
    },
    {
      "midi": 69,
      "hit": false,
      "t": 76016.15999999999,
      "d": 4077.4003645833436,
      "v": 102
    },
    {
      "midi": 53,
      "hit": false,
      "t": 76016.16,
      "d": 4190.126875000002,
      "v": 80
    },
    {
      "midi": 60,
      "hit": false,
      "t": 76016.16,
      "d": 4209.372864583333,
      "v": 82
    },
    {
      "midi": 57,
      "hit": false,
      "t": 76016.16,
      "d": 4217.621145833327,
      "v": 77
    },
    {
      "midi": 65,
      "hit": false,
      "t": 76016.16000000003,
      "d": 4201.124583333338,
      "v": 85
    },
    {
      "midi": 72,
      "hit": false,
      "t": 76016.16000000009,
      "d": 351.9266666666517,
      "v": 115
    },
    {
      "midi": 77,
      "hit": false,
      "t": 76016.16000000022,
      "d": 420.6623437500093,
      "v": 97
    },
    {
      "midi": 72,
      "hit": false,
      "t": 76535.80171875008,
      "d": 329.9312499999942,
      "v": 116
    },
    {
      "midi": 76,
      "hit": false,
      "t": 76535.80171875024,
      "d": 453.6554687500029,
      "v": 101
    },
    {
      "midi": 48,
      "hit": false,
      "t": 76799.74671874996,
      "d": 679.1084895833337,
      "v": 88
    },
    {
      "midi": 72,
      "hit": false,
      "t": 77063.69171875008,
      "d": 274.9427083333285,
      "v": 113
    },
    {
      "midi": 76,
      "hit": false,
      "t": 77063.69171875024,
      "d": 274.9427083333285,
      "v": 98
    },
    {
      "midi": 65,
      "hit": false,
      "t": 77575.08515624996,
      "d": 459.15432291667094,
      "v": 100
    },
    {
      "midi": 48,
      "hit": false,
      "t": 77591.58171874996,
      "d": 453.6554687500029,
      "v": 97
    },
    {
      "midi": 29,
      "hit": false,
      "t": 77591.58171874999,
      "d": 481.1497395833285,
      "v": 62
    },
    {
      "midi": 41,
      "hit": false,
      "t": 77591.58171874999,
      "d": 527.8899999999994,
      "v": 97
    },
    {
      "midi": 72,
      "hit": false,
      "t": 77591.58171875008,
      "d": 134.72192708333023,
      "v": 114
    },
    {
      "midi": 76,
      "hit": false,
      "t": 77591.58171875024,
      "d": 164.9656249999971,
      "v": 100
    },
    {
      "midi": 72,
      "hit": false,
      "t": 77855.52671875007,
      "d": 384.9197916666599,
      "v": 118
    },
    {
      "midi": 76,
      "hit": false,
      "t": 77855.52671875023,
      "d": 406.915208333332,
      "v": 102
    },
    {
      "midi": 60,
      "hit": false,
      "t": 78108.47401041663,
      "d": 1330.7227083333419,
      "v": 96
    },
    {
      "midi": 65,
      "hit": false,
      "t": 78108.47401041663,
      "d": 1798.1253125000221,
      "v": 100
    },
    {
      "midi": 69,
      "hit": false,
      "t": 78108.47401041663,
      "d": 1817.371302083353,
      "v": 100
    },
    {
      "midi": 57,
      "hit": false,
      "t": 78108.47401041664,
      "d": 940.3040624999849,
      "v": 98
    },
    {
      "midi": 65,
      "hit": false,
      "t": 78108.47401041664,
      "d": 940.3040624999849,
      "v": 95
    },
    {
      "midi": 69,
      "hit": false,
      "t": 78111.22343749997,
      "d": 923.8074999999953,
      "v": 98
    },
    {
      "midi": 45,
      "hit": false,
      "t": 78119.47171874996,
      "d": 1006.2903125000012,
      "v": 97
    },
    {
      "midi": 33,
      "hit": false,
      "t": 78119.47171874999,
      "d": 1047.531718750004,
      "v": 59
    },
    {
      "midi": 45,
      "hit": false,
      "t": 78119.47171874999,
      "d": 1055.7799999999988,
      "v": 99
    },
    {
      "midi": 45,
      "hit": false,
      "t": 78119.47171874999,
      "d": 1976.8380729166674,
      "v": 98
    },
    {
      "midi": 71,
      "hit": false,
      "t": 78267.94078125007,
      "d": 197.95875000000524,
      "v": 118
    },
    {
      "midi": 74,
      "hit": false,
      "t": 78267.94078125023,
      "d": 181.46218750000116,
      "v": 96
    },
    {
      "midi": 69,
      "hit": false,
      "t": 78383.41671875007,
      "d": 197.95875000000524,
      "v": 118
    },
    {
      "midi": 72,
      "hit": false,
      "t": 78383.41671875023,
      "d": 241.94958333333489,
      "v": 100
    },
    {
      "midi": 57,
      "hit": false,
      "t": 79164.25401041663,
      "d": 280.44156250001106,
      "v": 95
    },
    {
      "midi": 65,
      "hit": false,
      "t": 79167.00343749995,
      "d": 230.95187499998428,
      "v": 103
    },
    {
      "midi": 72,
      "hit": false,
      "t": 79169.75286458328,
      "d": 219.9541666666628,
      "v": 101
    },
    {
      "midi": 69,
      "hit": false,
      "t": 79169.75286458328,
      "d": 230.95187499998428,
      "v": 102
    },
    {
      "midi": 45,
      "hit": false,
      "t": 79175.25171874996,
      "d": 907.3109375000204,
      "v": 95
    },
    {
      "midi": 33,
      "hit": false,
      "t": 79175.25171874999,
      "d": 910.0603645833326,
      "v": 58
    },
    {
      "midi": 45,
      "hit": false,
      "t": 79175.25171874999,
      "d": 1055.7799999999988,
      "v": 102
    },
    {
      "midi": 72,
      "hit": false,
      "t": 79178.00114583356,
      "d": 252.94729166667094,
      "v": 98
    },
    {
      "midi": 69,
      "hit": false,
      "t": 79180.75057291675,
      "d": 285.9404166666791,
      "v": 114
    },
    {
      "midi": 59,
      "hit": false,
      "t": 79428.19901041663,
      "d": 208.9564583333413,
      "v": 85
    },
    {
      "midi": 67,
      "hit": false,
      "t": 79430.94843749993,
      "d": 241.94958333332033,
      "v": 98
    },
    {
      "midi": 71,
      "hit": false,
      "t": 79430.94843749993,
      "d": 263.9449999999779,
      "v": 101
    },
    {
      "midi": 74,
      "hit": false,
      "t": 79433.69786458326,
      "d": 241.94958333332033,
      "v": 96
    },
    {
      "midi": 71,
      "hit": false,
      "t": 79439.19671875008,
      "d": 239.20015625000815,
      "v": 114
    },
    {
      "midi": 74,
      "hit": false,
      "t": 79439.19671875023,
      "d": 263.945000000007,
      "v": 103
    },
    {
      "midi": 60,
      "hit": false,
      "t": 79689.39458333331,
      "d": 371.1726562499971,
      "v": 97
    },
    {
      "midi": 72,
      "hit": false,
      "t": 79697.64286458323,
      "d": 497.646302083318,
      "v": 101
    },
    {
      "midi": 76,
      "hit": false,
      "t": 79700.39229166656,
      "d": 445.4071874999936,
      "v": 103
    },
    {
      "midi": 69,
      "hit": false,
      "t": 79703.14171874989,
      "d": 428.9106250000041,
      "v": 103
    },
    {
      "midi": 72,
      "hit": false,
      "t": 79703.14171875009,
      "d": 266.6944270833337,
      "v": 113
    },
    {
      "midi": 76,
      "hit": false,
      "t": 79703.14171875024,
      "d": 277.69213541666977,
      "v": 103
    },
    {
      "midi": 67,
      "hit": false,
      "t": 80239.27999999988,
      "d": 1022.7868750000052,
      "v": 97
    },
    {
      "midi": 72,
      "hit": false,
      "t": 80239.27999999988,
      "d": 1022.7868750000052,
      "v": 102
    },
    {
      "midi": 64,
      "hit": false,
      "t": 80239.27999999988,
      "d": 1039.2834375000093,
      "v": 103
    },
    {
      "midi": 43,
      "hit": false,
      "t": 80239.27999999998,
      "d": 1553.4263020833314,
      "v": 101
    },
    {
      "midi": 31,
      "hit": false,
      "t": 80239.27999999998,
      "d": 1564.4240104166674,
      "v": 63
    },
    {
      "midi": 64,
      "hit": false,
      "t": 80239.27999999998,
      "d": 989.7937499999971,
      "v": 102
    },
    {
      "midi": 72,
      "hit": false,
      "t": 80239.27999999998,
      "d": 1006.2903125000012,
      "v": 97
    },
    {
      "midi": 55,
      "hit": false,
      "t": 80239.27999999998,
      "d": 1022.7868750000052,
      "v": 103
    },
    {
      "midi": 60,
      "hit": false,
      "t": 80239.28,
      "d": 998.0420312500064,
      "v": 104
    },
    {
      "midi": 43,
      "hit": false,
      "t": 80239.28,
      "d": 2042.8243229166692,
      "v": 96
    },
    {
      "midi": 67,
      "hit": false,
      "t": 80239.28,
      "d": 2084.065729166672,
      "v": 101
    },
    {
      "midi": 60,
      "hit": false,
      "t": 80239.28,
      "d": 1000.7914583333331,
      "v": 73
    },
    {
      "midi": 55,
      "hit": false,
      "t": 80239.28,
      "d": 1011.7891666666692,
      "v": 73
    },
    {
      "midi": 60,
      "hit": false,
      "t": 80239.28000000004,
      "d": 1011.7891666666692,
      "v": 79
    },
    {
      "midi": 76,
      "hit": false,
      "t": 80239.28000000009,
      "d": 470.152031250007,
      "v": 111
    },
    {
      "midi": 81,
      "hit": false,
      "t": 80239.28000000025,
      "d": 456.40489583332965,
      "v": 96
    },
    {
      "midi": 62,
      "hit": false,
      "t": 80244.77885416667,
      "d": 978.796041666661,
      "v": 74
    },
    {
      "midi": 74,
      "hit": false,
      "t": 80758.92171875009,
      "d": 1371.9641145833302,
      "v": 112
    },
    {
      "midi": 79,
      "hit": false,
      "t": 80758.92171875024,
      "d": 1341.7204166666634,
      "v": 104
    },
    {
      "midi": 71,
      "hit": false,
      "t": 81286.81171874999,
      "d": 978.7960416666756,
      "v": 95
    },
    {
      "midi": 62,
      "hit": false,
      "t": 81286.81171874999,
      "d": 1006.2903125000157,
      "v": 101
    },
    {
      "midi": 59,
      "hit": false,
      "t": 81286.81171875,
      "d": 970.5477604166663,
      "v": 98
    },
    {
      "midi": 55,
      "hit": false,
      "t": 81286.81171875,
      "d": 965.0489062499983,
      "v": 80
    },
    {
      "midi": 67,
      "hit": false,
      "t": 81286.81171875,
      "d": 965.0489062499983,
      "v": 76
    },
    {
      "midi": 59,
      "hit": false,
      "t": 81286.81171875,
      "d": 995.2926041666651,
      "v": 73
    },
    {
      "midi": 59,
      "hit": false,
      "t": 81286.81171875005,
      "d": 1033.7845833333267,
      "v": 86
    },
    {
      "midi": 67,
      "hit": false,
      "t": 81297.80942708322,
      "d": 929.3063541666488,
      "v": 95
    },
    {
      "midi": 62,
      "hit": false,
      "t": 81300.55885416655,
      "d": 959.5500520833302,
      "v": 96
    },
    {
      "midi": 71,
      "hit": false,
      "t": 81303.30828124988,
      "d": 940.3040624999994,
      "v": 104
    },
    {
      "midi": 55,
      "hit": false,
      "t": 81303.30828124999,
      "d": 951.3017708333355,
      "v": 103
    },
    {
      "midi": 31,
      "hit": false,
      "t": 81814.70171874999,
      "d": 417.912916666668,
      "v": 59
    },
    {
      "midi": 43,
      "hit": false,
      "t": 81814.70171874999,
      "d": 527.8899999999994,
      "v": 101
    },
    {
      "midi": 60,
      "hit": false,
      "t": 82337.09286458322,
      "d": 998.0420312500064,
      "v": 102
    },
    {
      "midi": 65,
      "hit": false,
      "t": 82337.09286458322,
      "d": 1003.5408854166744,
      "v": 97
    },
    {
      "midi": 33,
      "hit": false,
      "t": 82342.59171874999,
      "d": 1031.03515625,
      "v": 55
    },
    {
      "midi": 45,
      "hit": false,
      "t": 82342.59171874999,
      "d": 1055.7799999999988,
      "v": 104
    },
    {
      "midi": 45,
      "hit": false,
      "t": 82342.59171875,
      "d": 987.0443229166558,
      "v": 100
    },
    {
      "midi": 65,
      "hit": false,
      "t": 82342.59171875,
      "d": 998.0420312499773,
      "v": 102
    },
    {
      "midi": 69,
      "hit": false,
      "t": 82342.59171875,
      "d": 1014.5385937499814,
      "v": 97
    },
    {
      "midi": 57,
      "hit": false,
      "t": 82342.59171875,
      "d": 962.2994791666715,
      "v": 98
    },
    {
      "midi": 65,
      "hit": false,
      "t": 82342.59171875,
      "d": 984.2948958333436,
      "v": 97
    },
    {
      "midi": 69,
      "hit": false,
      "t": 82342.59171875,
      "d": 1036.5340104166826,
      "v": 99
    },
    {
      "midi": 60,
      "hit": false,
      "t": 82342.59171875,
      "d": 945.8029166666674,
      "v": 82
    },
    {
      "midi": 53,
      "hit": false,
      "t": 82342.59171875,
      "d": 956.8006250000035,
      "v": 73
    },
    {
      "midi": 65,
      "hit": false,
      "t": 82342.59171875,
      "d": 973.2971875000076,
      "v": 81
    },
    {
      "midi": 65,
      "hit": false,
      "t": 82342.59171875005,
      "d": 1036.534010416668,
      "v": 80
    },
    {
      "midi": 60,
      "hit": false,
      "t": 82350.84,
      "d": 987.0443229166558,
      "v": 99
    },
    {
      "midi": 69,
      "hit": false,
      "t": 82353.58942708322,
      "d": 1022.7868750000052,
      "v": 98
    },
    {
      "midi": 79,
      "hit": false,
      "t": 82875.9805729169,
      "d": 362.9243750000023,
      "v": 98
    },
    {
      "midi": 76,
      "hit": false,
      "t": 82881.47942708342,
      "d": 349.17723958333954,
      "v": 111
    },
    {
      "midi": 62,
      "hit": false,
      "t": 83392.87286458323,
      "d": 923.8075000000099,
      "v": 103
    },
    {
      "midi": 59,
      "hit": false,
      "t": 83392.87286458323,
      "d": 967.7983333333395,
      "v": 97
    },
    {
      "midi": 55,
      "hit": false,
      "t": 83395.62229166664,
      "d": 943.0534895833262,
      "v": 103
    },
    {
      "midi": 55,
      "hit": false,
      "t": 83395.62229166667,
      "d": 901.8120833333232,
      "v": 82
    },
    {
      "midi": 59,
      "hit": false,
      "t": 83395.62229166669,
      "d": 951.3017708333209,
      "v": 96
    },
    {
      "midi": 71,
      "hit": false,
      "t": 83398.37171874997,
      "d": 954.0511979166622,
      "v": 99
    },
    {
      "midi": 47,
      "hit": false,
      "t": 83398.37171874997,
      "d": 976.0466145833198,
      "v": 104
    },
    {
      "midi": 35,
      "hit": false,
      "t": 83398.37171874999,
      "d": 893.5638020833285,
      "v": 59
    },
    {
      "midi": 47,
      "hit": false,
      "t": 83398.37171874999,
      "d": 1055.7799999999988,
      "v": 104
    },
    {
      "midi": 67,
      "hit": false,
      "t": 83398.37171875,
      "d": 910.0603645833326,
      "v": 80
    },
    {
      "midi": 67,
      "hit": false,
      "t": 83398.37171875002,
      "d": 874.3178124999977,
      "v": 98
    },
    {
      "midi": 62,
      "hit": false,
      "t": 83398.37171875002,
      "d": 918.3086458333273,
      "v": 104
    },
    {
      "midi": 62,
      "hit": false,
      "t": 83398.37171875004,
      "d": 995.2926041666651,
      "v": 82
    },
    {
      "midi": 84,
      "hit": false,
      "t": 83401.12114583357,
      "d": 409.66463541667326,
      "v": 99
    },
    {
      "midi": 62,
      "hit": false,
      "t": 83403.87057291667,
      "d": 934.8052083333314,
      "v": 73
    },
    {
      "midi": 67,
      "hit": false,
      "t": 83409.36942708323,
      "d": 959.5500520833302,
      "v": 98
    },
    {
      "midi": 79,
      "hit": false,
      "t": 83409.36942708342,
      "d": 395.91750000002503,
      "v": 112
    },
    {
      "midi": 67,
      "hit": false,
      "t": 83412.11885416663,
      "d": 954.0511979166622,
      "v": 97
    },
    {
      "midi": 84,
      "hit": false,
      "t": 83926.26171875026,
      "d": 373.9220833333384,
      "v": 99
    },
    {
      "midi": 77,
      "hit": false,
      "t": 83940.0088541668,
      "d": 156.71734375000233,
      "v": 111
    },
    {
      "midi": 79,
      "hit": false,
      "t": 84074.73078125012,
      "d": 329.93125000000873,
      "v": 110
    },
    {
      "midi": 67,
      "hit": false,
      "t": 84462.39999999997,
      "d": 2064.8197395833267,
      "v": 98
    },
    {
      "midi": 64,
      "hit": false,
      "t": 84462.39999999997,
      "d": 4088.3980729166506,
      "v": 98
    },
    {
      "midi": 60,
      "hit": false,
      "t": 84462.39999999997,
      "d": 4099.395781249987,
      "v": 102
    },
    {
      "midi": 36,
      "hit": false,
      "t": 84462.39999999998,
      "d": 1567.1734374999942,
      "v": 64
    },
    {
      "midi": 48,
      "hit": false,
      "t": 84462.39999999998,
      "d": 1583.6699999999837,
      "v": 97
    },
    {
      "midi": 52,
      "hit": false,
      "t": 84462.4,
      "d": 2056.571458333332,
      "v": 80
    },
    {
      "midi": 55,
      "hit": false,
      "t": 84462.4,
      "d": 2056.571458333332,
      "v": 78
    },
    {
      "midi": 60,
      "hit": false,
      "t": 84462.4,
      "d": 2056.571458333332,
      "v": 80
    },
    {
      "midi": 64,
      "hit": false,
      "t": 84462.40000000004,
      "d": 4157.133749999994,
      "v": 83
    },
    {
      "midi": 77,
      "hit": false,
      "t": 84462.40000000027,
      "d": 263.94499999999243,
      "v": 101
    },
    {
      "midi": 74,
      "hit": false,
      "t": 84467.8988541668,
      "d": 269.44385416666046,
      "v": 115
    },
    {
      "midi": 76,
      "hit": false,
      "t": 84718.09671875027,
      "d": 208.95645833332674,
      "v": 103
    },
    {
      "midi": 72,
      "hit": false,
      "t": 84729.09442708346,
      "d": 164.9656249999971,
      "v": 112
    },
    {
      "midi": 55,
      "hit": false,
      "t": 84982.04171875001,
      "d": 1660.6539583333506,
      "v": 103
    },
    {
      "midi": 76,
      "hit": false,
      "t": 84995.78885416692,
      "d": 112.72651041667268,
      "v": 100
    },
    {
      "midi": 72,
      "hit": false,
      "t": 84998.53828125012,
      "d": 131.9725000000035,
      "v": 114
    },
    {
      "midi": 60,
      "hit": false,
      "t": 85245.98671875002,
      "d": 1366.4652604166768,
      "v": 88
    },
    {
      "midi": 76,
      "hit": false,
      "t": 85259.73385416693,
      "d": 739.5958854166674,
      "v": 98
    },
    {
      "midi": 72,
      "hit": false,
      "t": 85262.48328125013,
      "d": 712.1016145833273,
      "v": 116
    },
    {
      "midi": 71,
      "hit": false,
      "t": 86037.8217187499,
      "d": 296.9381250000006,
      "v": 95
    },
    {
      "midi": 28,
      "hit": false,
      "t": 86037.82171874997,
      "d": 263.94499999999243,
      "v": 64
    },
    {
      "midi": 40,
      "hit": false,
      "t": 86037.82171874997,
      "d": 263.94499999999243,
      "v": 100
    },
    {
      "midi": 71,
      "hit": false,
      "t": 86037.82171875011,
      "d": 142.97020833333954,
      "v": 117
    },
    {
      "midi": 74,
      "hit": false,
      "t": 86037.82171875026,
      "d": 131.9725000000035,
      "v": 99
    },
    {
      "midi": 71,
      "hit": false,
      "t": 86043.32057291668,
      "d": 241.94958333333489,
      "v": 101
    },
    {
      "midi": 72,
      "hit": false,
      "t": 86296.26786458323,
      "d": 318.93354166665813,
      "v": 99
    },
    {
      "midi": 43,
      "hit": false,
      "t": 86301.76671874996,
      "d": 263.945000000007,
      "v": 103
    },
    {
      "midi": 31,
      "hit": false,
      "t": 86301.76671874996,
      "d": 277.69213541666977,
      "v": 59
    },
    {
      "midi": 72,
      "hit": false,
      "t": 86301.76671875002,
      "d": 258.44614583333896,
      "v": 91
    },
    {
      "midi": 76,
      "hit": false,
      "t": 86307.26557291693,
      "d": 415.16348958335584,
      "v": 102
    },
    {
      "midi": 72,
      "hit": false,
      "t": 86310.01500000012,
      "d": 417.912916666668,
      "v": 112
    },
    {
      "midi": 64,
      "hit": false,
      "t": 86560.21286458323,
      "d": 739.5958854166674,
      "v": 99
    },
    {
      "midi": 60,
      "hit": false,
      "t": 86562.96229166666,
      "d": 1960.3415104166634,
      "v": 75
    },
    {
      "midi": 60,
      "hit": false,
      "t": 86565.7117187499,
      "d": 739.5958854166674,
      "v": 102
    },
    {
      "midi": 69,
      "hit": false,
      "t": 86565.71171874995,
      "d": 2015.330052083329,
      "v": 96
    },
    {
      "midi": 33,
      "hit": false,
      "t": 86565.71171874997,
      "d": 1022.7868749999907,
      "v": 58
    },
    {
      "midi": 45,
      "hit": false,
      "t": 86565.71171874997,
      "d": 1055.7799999999843,
      "v": 96
    },
    {
      "midi": 52,
      "hit": false,
      "t": 86568.46114583332,
      "d": 1963.09093749999,
      "v": 81
    },
    {
      "midi": 57,
      "hit": false,
      "t": 86576.70942708332,
      "d": 1943.8449479166738,
      "v": 82
    },
    {
      "midi": 69,
      "hit": false,
      "t": 86576.70942708336,
      "d": 1492.9389062499977,
      "v": 99
    },
    {
      "midi": 71,
      "hit": false,
      "t": 86697.68421875012,
      "d": 131.9725000000035,
      "v": 115
    },
    {
      "midi": 74,
      "hit": false,
      "t": 86708.68192708363,
      "d": 142.97020833333954,
      "v": 100
    },
    {
      "midi": 69,
      "hit": false,
      "t": 86832.40614583345,
      "d": 241.94958333333489,
      "v": 114
    },
    {
      "midi": 72,
      "hit": false,
      "t": 86846.1532812503,
      "d": 252.94729166667094,
      "v": 104
    },
    {
      "midi": 57,
      "hit": false,
      "t": 87093.60171875003,
      "d": 1349.9686979166727,
      "v": 102
    },
    {
      "midi": 64,
      "hit": false,
      "t": 87346.54901041657,
      "d": 263.945000000007,
      "v": 102
    },
    {
      "midi": 64,
      "hit": false,
      "t": 87357.54671875003,
      "d": 1072.276562500003,
      "v": 87
    },
    {
      "midi": 72,
      "hit": false,
      "t": 87357.54671875031,
      "d": 153.96791666666104,
      "v": 101
    },
    {
      "midi": 69,
      "hit": false,
      "t": 87374.04328125011,
      "d": 118.22536458332615,
      "v": 111
    },
    {
      "midi": 64,
      "hit": false,
      "t": 87615.99286458324,
      "d": 505.89458333334187,
      "v": 95
    },
    {
      "midi": 33,
      "hit": false,
      "t": 87621.49171874995,
      "d": 500.39572916667385,
      "v": 60
    },
    {
      "midi": 45,
      "hit": false,
      "t": 87621.49171874995,
      "d": 527.890000000014,
      "v": 104
    },
    {
      "midi": 69,
      "hit": false,
      "t": 87621.4917187501,
      "d": 230.95187499999884,
      "v": 114
    },
    {
      "midi": 60,
      "hit": false,
      "t": 87637.98828124991,
      "d": 478.40031250000175,
      "v": 102
    },
    {
      "midi": 72,
      "hit": false,
      "t": 87637.9882812503,
      "d": 219.9541666666628,
      "v": 95
    },
    {
      "midi": 71,
      "hit": false,
      "t": 87885.43671875009,
      "d": 219.9541666666628,
      "v": 111
    },
    {
      "midi": 74,
      "hit": false,
      "t": 87885.43671875031,
      "d": 208.95645833332674,
      "v": 97
    },
    {
      "midi": 71,
      "hit": false,
      "t": 88146.63229166658,
      "d": 255.69671875001222,
      "v": 96
    },
    {
      "midi": 21,
      "hit": false,
      "t": 88149.38171874997,
      "d": 456.40489583332965,
      "v": 62
    },
    {
      "midi": 33,
      "hit": false,
      "t": 88149.38171874997,
      "d": 527.8899999999994,
      "v": 102
    },
    {
      "midi": 71,
      "hit": false,
      "t": 88149.38171875002,
      "d": 247.4484375000029,
      "v": 95
    },
    {
      "midi": 72,
      "hit": false,
      "t": 88149.38171875008,
      "d": 373.9220833333384,
      "v": 114
    },
    {
      "midi": 76,
      "hit": false,
      "t": 88149.3817187503,
      "d": 373.9220833333384,
      "v": 100
    },
    {
      "midi": 60,
      "hit": false,
      "t": 88168.62770833325,
      "d": 824.8281250000146,
      "v": 102
    },
    {
      "midi": 72,
      "hit": false,
      "t": 88407.82786458326,
      "d": 549.8854166666715,
      "v": 96
    },
    {
      "midi": 72,
      "hit": false,
      "t": 88413.32671875003,
      "d": 263.945000000007,
      "v": 93
    },
    {
      "midi": 72,
      "hit": false,
      "t": 88685.51999999995,
      "d": 745.0947395833355,
      "v": 104
    },
    {
      "midi": 62,
      "hit": false,
      "t": 88685.51999999995,
      "d": 3098.604322916668,
      "v": 102
    },
    {
      "midi": 55,
      "hit": false,
      "t": 88685.51999999995,
      "d": 4132.388906249995,
      "v": 95
    },
    {
      "midi": 31,
      "hit": false,
      "t": 88685.51999999996,
      "d": 1506.6860416666605,
      "v": 60
    },
    {
      "midi": 43,
      "hit": false,
      "t": 88685.51999999996,
      "d": 1553.4263020833314,
      "v": 100
    },
    {
      "midi": 55,
      "hit": false,
      "t": 88685.51999999997,
      "d": 978.796041666661,
      "v": 74
    },
    {
      "midi": 60,
      "hit": false,
      "t": 88685.51999999997,
      "d": 1011.7891666666546,
      "v": 76
    },
    {
      "midi": 62,
      "hit": false,
      "t": 88685.51999999997,
      "d": 1011.7891666666546,
      "v": 79
    },
    {
      "midi": 60,
      "hit": false,
      "t": 88685.52000000003,
      "d": 1094.2719791666605,
      "v": 104
    },
    {
      "midi": 60,
      "hit": false,
      "t": 88685.52000000003,
      "d": 1033.7845833333267,
      "v": 82
    },
    {
      "midi": 74,
      "hit": false,
      "t": 88691.01885416676,
      "d": 516.8922916666634,
      "v": 110
    },
    {
      "midi": 81,
      "hit": false,
      "t": 88693.7682812503,
      "d": 505.8945833333273,
      "v": 95
    },
    {
      "midi": 72,
      "hit": false,
      "t": 89202.4122916666,
      "d": 285.94041666666453,
      "v": 98
    },
    {
      "midi": 72,
      "hit": false,
      "t": 89213.41000000003,
      "d": 296.9381250000006,
      "v": 103
    },
    {
      "midi": 74,
      "hit": false,
      "t": 89216.15942708342,
      "d": 120.97479166666744,
      "v": 111
    },
    {
      "midi": 79,
      "hit": false,
      "t": 89221.6582812503,
      "d": 118.22536458332615,
      "v": 102
    },
    {
      "midi": 71,
      "hit": false,
      "t": 89469.10671874994,
      "d": 965.0489062499983,
      "v": 95
    },
    {
      "midi": 74,
      "hit": false,
      "t": 89469.10671875009,
      "d": 670.8602083333244,
      "v": 111
    },
    {
      "midi": 79,
      "hit": false,
      "t": 89469.10671875029,
      "d": 668.1107812499977,
      "v": 96
    },
    {
      "midi": 71,
      "hit": false,
      "t": 89474.6055729166,
      "d": 701.1039062499913,
      "v": 98
    },
    {
      "midi": 71,
      "hit": false,
      "t": 89477.35500000004,
      "d": 676.3590624999924,
      "v": 89
    },
    {
      "midi": 55,
      "hit": false,
      "t": 89727.5528645833,
      "d": 1003.5408854166599,
      "v": 73
    },
    {
      "midi": 59,
      "hit": false,
      "t": 89730.3022916667,
      "d": 904.5615104166791,
      "v": 95
    },
    {
      "midi": 59,
      "hit": false,
      "t": 89733.05171874996,
      "d": 965.0489062499983,
      "v": 82
    },
    {
      "midi": 62,
      "hit": false,
      "t": 89733.05171874996,
      "d": 967.798333333325,
      "v": 75
    },
    {
      "midi": 59,
      "hit": false,
      "t": 89733.05171875002,
      "d": 2111.5599999999977,
      "v": 82
    },
    {
      "midi": 71,
      "hit": false,
      "t": 90260.94171874992,
      "d": 175.96333333333314,
      "v": 97
    },
    {
      "midi": 31,
      "hit": false,
      "t": 90260.94171874996,
      "d": 459.15432291667094,
      "v": 59
    },
    {
      "midi": 43,
      "hit": false,
      "t": 90260.94171874996,
      "d": 527.8899999999994,
      "v": 101
    },
    {
      "midi": 71,
      "hit": false,
      "t": 90260.94171875004,
      "d": 252.94729166667094,
      "v": 95
    },
    {
      "midi": 74,
      "hit": false,
      "t": 90277.4382812501,
      "d": 162.21619791667035,
      "v": 115
    },
    {
      "midi": 79,
      "hit": false,
      "t": 90277.43828125029,
      "d": 156.71734375000233,
      "v": 102
    },
    {
      "midi": 71,
      "hit": false,
      "t": 90522.13729166659,
      "d": 703.8533333333326,
      "v": 102
    },
    {
      "midi": 71,
      "hit": false,
      "t": 90522.1372916667,
      "d": 756.0924479166715,
      "v": 92
    },
    {
      "midi": 71,
      "hit": false,
      "t": 90524.88671874994,
      "d": 1292.2307291666657,
      "v": 97
    },
    {
      "midi": 74,
      "hit": false,
      "t": 90535.88442708344,
      "d": 250.19786458332965,
      "v": 115
    },
    {
      "midi": 81,
      "hit": false,
      "t": 90541.3832812503,
      "d": 255.69671875001222,
      "v": 97
    },
    {
      "midi": 59,
      "hit": false,
      "t": 90783.33286458337,
      "d": 992.5431770833384,
      "v": 95
    },
    {
      "midi": 31,
      "hit": false,
      "t": 90788.83171874996,
      "d": 989.7937499999971,
      "v": 58
    },
    {
      "midi": 43,
      "hit": false,
      "t": 90788.83171874996,
      "d": 1055.7799999999988,
      "v": 98
    },
    {
      "midi": 59,
      "hit": false,
      "t": 90788.83171874996,
      "d": 989.7937499999971,
      "v": 80
    },
    {
      "midi": 62,
      "hit": false,
      "t": 90788.83171874996,
      "d": 989.7937499999971,
      "v": 78
    },
    {
      "midi": 55,
      "hit": false,
      "t": 90788.83171874996,
      "d": 1099.7708333333285,
      "v": 74
    },
    {
      "midi": 62,
      "hit": false,
      "t": 91311.22286458325,
      "d": 494.8968750000058,
      "v": 100
    },
    {
      "midi": 62,
      "hit": false,
      "t": 91316.72171875004,
      "d": 549.8854166666715,
      "v": 104
    },
    {
      "midi": 74,
      "hit": false,
      "t": 91316.7217187501,
      "d": 343.6783854166715,
      "v": 111
    },
    {
      "midi": 79,
      "hit": false,
      "t": 91316.72171875031,
      "d": 360.17494791666104,
      "v": 104
    },
    {
      "midi": 72,
      "hit": false,
      "t": 91839.11286458325,
      "d": 489.39802083332324,
      "v": 100
    },
    {
      "midi": 67,
      "hit": false,
      "t": 91841.86229166658,
      "d": 489.39802083332324,
      "v": 97
    },
    {
      "midi": 72,
      "hit": false,
      "t": 91844.61171874995,
      "d": 478.40031250000175,
      "v": 101
    },
    {
      "midi": 28,
      "hit": false,
      "t": 91844.61171874996,
      "d": 956.8006250000035,
      "v": 56
    },
    {
      "midi": 40,
      "hit": false,
      "t": 91844.61171874996,
      "d": 1055.7799999999988,
      "v": 100
    },
    {
      "midi": 60,
      "hit": false,
      "t": 91844.61171874996,
      "d": 923.8074999999953,
      "v": 78
    },
    {
      "midi": 72,
      "hit": false,
      "t": 91844.61171875003,
      "d": 478.40031250000175,
      "v": 103
    },
    {
      "midi": 60,
      "hit": false,
      "t": 91844.61171875003,
      "d": 989.7937499999971,
      "v": 99
    },
    {
      "midi": 64,
      "hit": false,
      "t": 91850.11057291663,
      "d": 945.8029166666674,
      "v": 82
    },
    {
      "midi": 79,
      "hit": false,
      "t": 91855.60942708343,
      "d": 321.68296875001397,
      "v": 114
    },
    {
      "midi": 60,
      "hit": false,
      "t": 91861.10828125002,
      "d": 871.5683854166709,
      "v": 78
    },
    {
      "midi": 84,
      "hit": false,
      "t": 91861.10828125032,
      "d": 299.6875520833273,
      "v": 101
    },
    {
      "midi": 67,
      "hit": false,
      "t": 92367.00286458324,
      "d": 527.8899999999994,
      "v": 100
    },
    {
      "midi": 64,
      "hit": false,
      "t": 92372.5017187499,
      "d": 511.39343749999534,
      "v": 103
    },
    {
      "midi": 60,
      "hit": false,
      "t": 92372.5017187499,
      "d": 516.8922916666634,
      "v": 100
    },
    {
      "midi": 67,
      "hit": false,
      "t": 92372.50171874995,
      "d": 470.15203124999243,
      "v": 99
    },
    {
      "midi": 67,
      "hit": false,
      "t": 92372.50171875003,
      "d": 560.883124999993,
      "v": 103
    },
    {
      "midi": 74,
      "hit": false,
      "t": 92378.00057291678,
      "d": 305.18640624999534,
      "v": 116
    },
    {
      "midi": 79,
      "hit": false,
      "t": 92383.49942708363,
      "d": 313.43468750000466,
      "v": 96
    },
    {
      "midi": 65,
      "hit": false,
      "t": 92908.6399999999,
      "d": 1996.0840624999983,
      "v": 104
    },
    {
      "midi": 69,
      "hit": false,
      "t": 92908.6399999999,
      "d": 2045.573749999996,
      "v": 100
    },
    {
      "midi": 60,
      "hit": false,
      "t": 92908.6399999999,
      "d": 2067.569166666668,
      "v": 97
    },
    {
      "midi": 65,
      "hit": false,
      "t": 92908.63999999994,
      "d": 4132.388906249995,
      "v": 96
    },
    {
      "midi": 60,
      "hit": false,
      "t": 92908.63999999994,
      "d": 4143.386614583331,
      "v": 101
    },
    {
      "midi": 69,
      "hit": false,
      "t": 92908.63999999994,
      "d": 4154.384322916667,
      "v": 104
    },
    {
      "midi": 41,
      "hit": false,
      "t": 92908.63999999996,
      "d": 1319.7250000000058,
      "v": 101
    },
    {
      "midi": 29,
      "hit": false,
      "t": 92908.63999999996,
      "d": 1564.4240104166674,
      "v": 62
    },
    {
      "midi": 65,
      "hit": false,
      "t": 92908.63999999997,
      "d": 4124.140625,
      "v": 80
    },
    {
      "midi": 57,
      "hit": false,
      "t": 92908.63999999997,
      "d": 4135.138333333336,
      "v": 73
    },
    {
      "midi": 60,
      "hit": false,
      "t": 92908.63999999997,
      "d": 4179.129166666666,
      "v": 81
    },
    {
      "midi": 69,
      "hit": false,
      "t": 92908.64000000003,
      "d": 2444.2406770833186,
      "v": 97
    },
    {
      "midi": 76,
      "hit": false,
      "t": 92908.6400000001,
      "d": 241.94958333333489,
      "v": 118
    },
    {
      "midi": 79,
      "hit": false,
      "t": 92908.6400000003,
      "d": 230.95187499999884,
      "v": 95
    },
    {
      "midi": 69,
      "hit": false,
      "t": 92911.38942708336,
      "d": 2042.8243229166692,
      "v": 83
    },
    {
      "midi": 74,
      "hit": false,
      "t": 93164.3367187501,
      "d": 247.4484375000029,
      "v": 111
    },
    {
      "midi": 77,
      "hit": false,
      "t": 93164.3367187503,
      "d": 261.1955729166657,
      "v": 101
    },
    {
      "midi": 72,
      "hit": false,
      "t": 93428.2817187501,
      "d": 274.9427083333285,
      "v": 109
    },
    {
      "midi": 76,
      "hit": false,
      "t": 93428.2817187503,
      "d": 230.95187499999884,
      "v": 101
    },
    {
      "midi": 72,
      "hit": false,
      "t": 93956.1717187501,
      "d": 313.43468750000466,
      "v": 117
    },
    {
      "midi": 76,
      "hit": false,
      "t": 93956.1717187503,
      "d": 305.18640624999534,
      "v": 101
    },
    {
      "midi": 41,
      "hit": false,
      "t": 94236.61328124996,
      "d": 497.64630208333256,
      "v": 104
    },
    {
      "midi": 57,
      "hit": false,
      "t": 94431.8226041667,
      "d": 2576.213177083322,
      "v": 103
    },
    {
      "midi": 29,
      "hit": false,
      "t": 94484.06171874996,
      "d": 263.94499999999243,
      "v": 62
    },
    {
      "midi": 72,
      "hit": false,
      "t": 94484.0617187501,
      "d": 93.48052083332732,
      "v": 113
    },
    {
      "midi": 76,
      "hit": false,
      "t": 94484.0617187503,
      "d": 76.9839583333378,
      "v": 100
    },
    {
      "midi": 60,
      "hit": false,
      "t": 94671.02276041669,
      "d": 2353.5095833333326,
      "v": 86
    },
    {
      "midi": 72,
      "hit": false,
      "t": 94748.0067187501,
      "d": 395.9174999999814,
      "v": 109
    },
    {
      "midi": 76,
      "hit": false,
      "t": 94748.0067187503,
      "d": 395.9174999999959,
      "v": 102
    },
    {
      "midi": 41,
      "hit": false,
      "t": 94750.75614583328,
      "d": 164.96562500001164,
      "v": 102
    },
    {
      "midi": 29,
      "hit": false,
      "t": 94805.74468749994,
      "d": 181.46218750001572,
      "v": 58
    },
    {
      "midi": 43,
      "hit": false,
      "t": 94893.72635416662,
      "d": 153.9679166666756,
      "v": 96
    },
    {
      "midi": 31,
      "hit": false,
      "t": 94904.72406249995,
      "d": 197.95875000000524,
      "v": 55
    },
    {
      "midi": 65,
      "hit": false,
      "t": 94970.71031250001,
      "d": 2122.5577083333337,
      "v": 102
    },
    {
      "midi": 69,
      "hit": false,
      "t": 95009.20229166656,
      "d": 2092.314010416667,
      "v": 95
    },
    {
      "midi": 60,
      "hit": false,
      "t": 95009.20229166656,
      "d": 2097.812864583335,
      "v": 95
    },
    {
      "midi": 65,
      "hit": false,
      "t": 95011.95171874989,
      "d": 2078.566875000004,
      "v": 95
    },
    {
      "midi": 33,
      "hit": false,
      "t": 95011.95171874996,
      "d": 1047.531718750004,
      "v": 64
    },
    {
      "midi": 45,
      "hit": false,
      "t": 95011.95171874996,
      "d": 1055.7799999999988,
      "v": 100
    },
    {
      "midi": 65,
      "hit": false,
      "t": 95011.95171875003,
      "d": 2073.068020833336,
      "v": 83
    },
    {
      "midi": 71,
      "hit": false,
      "t": 95143.92421875008,
      "d": 175.96333333333314,
      "v": 112
    },
    {
      "midi": 74,
      "hit": false,
      "t": 95160.4207812503,
      "d": 197.95875000000524,
      "v": 104
    },
    {
      "midi": 72,
      "hit": false,
      "t": 95286.89442708364,
      "d": 291.43927083333256,
      "v": 104
    },
    {
      "midi": 69,
      "hit": false,
      "t": 95292.39328125007,
      "d": 274.94270833334303,
      "v": 117
    },
    {
      "midi": 33,
      "hit": false,
      "t": 96067.73171874996,
      "d": 910.0603645833326,
      "v": 62
    },
    {
      "midi": 45,
      "hit": false,
      "t": 96067.73171874996,
      "d": 1033.7845833333267,
      "v": 103
    },
    {
      "midi": 72,
      "hit": false,
      "t": 96070.48114583342,
      "d": 296.9381250000006,
      "v": 109
    },
    {
      "midi": 76,
      "hit": false,
      "t": 96078.72942708364,
      "d": 252.94729166667094,
      "v": 98
    },
    {
      "midi": 74,
      "hit": false,
      "t": 96331.67671875008,
      "d": 274.94270833334303,
      "v": 116
    },
    {
      "midi": 77,
      "hit": false,
      "t": 96331.67671875031,
      "d": 263.945000000007,
      "v": 103
    },
    {
      "midi": 76,
      "hit": false,
      "t": 96595.62171875009,
      "d": 461.9037499999977,
      "v": 112
    },
    {
      "midi": 79,
      "hit": false,
      "t": 96595.62171875032,
      "d": 431.6600520833308,
      "v": 98
    },
    {
      "midi": 60,
      "hit": false,
      "t": 97131.7599999999,
      "d": 1550.6768750000047,
      "v": 101
    },
    {
      "midi": 62,
      "hit": false,
      "t": 97131.7599999999,
      "d": 4173.630312499998,
      "v": 101
    },
    {
      "midi": 67,
      "hit": false,
      "t": 97131.7599999999,
      "d": 4173.630312499998,
      "v": 103
    },
    {
      "midi": 60,
      "hit": false,
      "t": 97131.75999999994,
      "d": 2075.817447916663,
      "v": 101
    },
    {
      "midi": 62,
      "hit": false,
      "t": 97131.75999999994,
      "d": 4099.395781250001,
      "v": 95
    },
    {
      "midi": 67,
      "hit": false,
      "t": 97131.75999999994,
      "d": 4110.393489583337,
      "v": 98
    },
    {
      "midi": 43,
      "hit": false,
      "t": 97131.75999999995,
      "d": 1553.4263020833314,
      "v": 103
    },
    {
      "midi": 31,
      "hit": false,
      "t": 97131.75999999995,
      "d": 1564.4240104166674,
      "v": 58
    },
    {
      "midi": 60,
      "hit": false,
      "t": 97131.75999999997,
      "d": 2089.56458333334,
      "v": 76
    },
    {
      "midi": 62,
      "hit": false,
      "t": 97131.75999999997,
      "d": 4047.1566666666768,
      "v": 73
    },
    {
      "midi": 67,
      "hit": false,
      "t": 97131.75999999997,
      "d": 4047.1566666666768,
      "v": 80
    },
    {
      "midi": 60,
      "hit": false,
      "t": 97131.76000000001,
      "d": 1539.6791666666686,
      "v": 99
    },
    {
      "midi": 67,
      "hit": false,
      "t": 97131.76000000004,
      "d": 4036.1589583333407,
      "v": 83
    },
    {
      "midi": 74,
      "hit": false,
      "t": 97140.00828125009,
      "d": 321.6829687499994,
      "v": 110
    },
    {
      "midi": 81,
      "hit": false,
      "t": 97140.00828125032,
      "d": 332.68067708333547,
      "v": 96
    },
    {
      "midi": 74,
      "hit": false,
      "t": 97667.89828125009,
      "d": 1935.5966666666645,
      "v": 111
    },
    {
      "midi": 79,
      "hit": false,
      "t": 97667.89828125032,
      "d": 1919.1001041666605,
      "v": 104
    },
    {
      "midi": 84,
      "hit": false,
      "t": 98173.79286458335,
      "d": 981.5454687500023,
      "v": 100
    },
    {
      "midi": 60,
      "hit": false,
      "t": 98676.93802083335,
      "d": 525.1405729166581,
      "v": 103
    },
    {
      "midi": 60,
      "hit": false,
      "t": 98707.1817187499,
      "d": 503.1451562500006,
      "v": 99
    },
    {
      "midi": 31,
      "hit": false,
      "t": 98707.18171874995,
      "d": 417.912916666668,
      "v": 64
    },
    {
      "midi": 43,
      "hit": false,
      "t": 98707.18171874995,
      "d": 527.8899999999994,
      "v": 101
    },
    {
      "midi": 83,
      "hit": false,
      "t": 99160.83718750002,
      "d": 1072.276562500003,
      "v": 103
    },
    {
      "midi": 59,
      "hit": false,
      "t": 99193.83031250001,
      "d": 2111.5599999999977,
      "v": 103
    },
    {
      "midi": 59,
      "hit": false,
      "t": 99224.07401041656,
      "d": 2084.0657291666575,
      "v": 99
    },
    {
      "midi": 59,
      "hit": false,
      "t": 99235.07171874994,
      "d": 1996.0840624999983,
      "v": 99
    },
    {
      "midi": 31,
      "hit": false,
      "t": 99235.07171874995,
      "d": 2111.5599999999977,
      "v": 60
    },
    {
      "midi": 43,
      "hit": false,
      "t": 99235.07171874995,
      "d": 2111.5599999999977,
      "v": 99
    },
    {
      "midi": 59,
      "hit": false,
      "t": 99235.07171874997,
      "d": 1949.3438020833419,
      "v": 73
    },
    {
      "midi": 79,
      "hit": false,
      "t": 100227.61489583335,
      "d": 1044.7822916666628,
      "v": 103
    },
    {
      "midi": 72,
      "hit": false,
      "t": 100290.8517187503,
      "d": 472.9014583333337,
      "v": 104
    },
    {
      "midi": 74,
      "hit": false,
      "t": 100818.7417187503,
      "d": 461.9037499999831,
      "v": 97
    },
    {
      "midi": 57,
      "hit": false,
      "t": 101354.87999999989,
      "d": 2056.571458333332,
      "v": 100
    },
    {
      "midi": 60,
      "hit": false,
      "t": 101354.87999999989,
      "d": 2078.566875000004,
      "v": 101
    },
    {
      "midi": 65,
      "hit": false,
      "t": 101354.87999999989,
      "d": 3167.3399999999965,
      "v": 103
    },
    {
      "midi": 41,
      "hit": false,
      "t": 101354.87999999995,
      "d": 2081.316302083331,
      "v": 100
    },
    {
      "midi": 29,
      "hit": false,
      "t": 101354.87999999995,
      "d": 2097.812864583335,
      "v": 57
    },
    {
      "midi": 57,
      "hit": false,
      "t": 101354.87999999995,
      "d": 4190.126875000002,
      "v": 103
    },
    {
      "midi": 60,
      "hit": false,
      "t": 101354.87999999995,
      "d": 4201.124583333338,
      "v": 98
    },
    {
      "midi": 41,
      "hit": false,
      "t": 101354.87999999995,
      "d": 4212.122291666674,
      "v": 104
    },
    {
      "midi": 57,
      "hit": false,
      "t": 101354.87999999998,
      "d": 4113.142916666649,
      "v": 80
    },
    {
      "midi": 53,
      "hit": false,
      "t": 101354.87999999998,
      "d": 4146.136041666643,
      "v": 74
    },
    {
      "midi": 81,
      "hit": false,
      "t": 101354.88000000002,
      "d": 1803.624166666661,
      "v": 96
    },
    {
      "midi": 65,
      "hit": false,
      "t": 101354.88000000005,
      "d": 725.8487500000047,
      "v": 85
    },
    {
      "midi": 74,
      "hit": false,
      "t": 101354.88000000028,
      "d": 415.16348958332674,
      "v": 97
    },
    {
      "midi": 65,
      "hit": false,
      "t": 101357.62942708335,
      "d": 822.0786979166587,
      "v": 97
    },
    {
      "midi": 60,
      "hit": false,
      "t": 101363.12828124997,
      "d": 4041.657812499994,
      "v": 80
    },
    {
      "midi": 72,
      "hit": false,
      "t": 101874.52171875027,
      "d": 1550.67687499999,
      "v": 96
    },
    {
      "midi": 64,
      "hit": false,
      "t": 102154.96328125,
      "d": 739.5958854166674,
      "v": 88
    },
    {
      "midi": 64,
      "hit": false,
      "t": 102154.96328125005,
      "d": 723.0993229166634,
      "v": 77
    },
    {
      "midi": 62,
      "hit": false,
      "t": 102930.30171875001,
      "d": 538.8877083333355,
      "v": 99
    },
    {
      "midi": 62,
      "hit": false,
      "t": 102930.30171875005,
      "d": 461.9037499999977,
      "v": 79
    },
    {
      "midi": 81,
      "hit": false,
      "t": 103202.49500000001,
      "d": 98.97937499999534,
      "v": 98
    },
    {
      "midi": 84,
      "hit": false,
      "t": 103287.72723958334,
      "d": 112.72651041665813,
      "v": 67
    },
    {
      "midi": 81,
      "hit": false,
      "t": 103386.70661458334,
      "d": 82.48281249999127,
      "v": 98
    },
    {
      "midi": 29,
      "hit": false,
      "t": 103458.19171874995,
      "d": 692.8556249999965,
      "v": 62
    },
    {
      "midi": 41,
      "hit": false,
      "t": 103458.19171874995,
      "d": 791.8349999999919,
      "v": 98
    },
    {
      "midi": 60,
      "hit": false,
      "t": 103458.19171875005,
      "d": 1017.2880208333372,
      "v": 83
    },
    {
      "midi": 72,
      "hit": false,
      "t": 103458.19171875025,
      "d": 153.9679166666756,
      "v": 100
    },
    {
      "midi": 79,
      "hit": false,
      "t": 103471.93885416666,
      "d": 5696.812916666589,
      "v": 96
    },
    {
      "midi": 60,
      "hit": false,
      "t": 103474.6882812499,
      "d": 1011.7891666666692,
      "v": 101
    },
    {
      "midi": 57,
      "hit": false,
      "t": 103474.6882812499,
      "d": 1017.2880208333372,
      "v": 101
    },
    {
      "midi": 60,
      "hit": false,
      "t": 103474.68828125001,
      "d": 1061.2788541666669,
      "v": 101
    },
    {
      "midi": 74,
      "hit": false,
      "t": 103590.16421875026,
      "d": 175.96333333333314,
      "v": 96
    },
    {
      "midi": 76,
      "hit": false,
      "t": 103722.13671875026,
      "d": 170.46447916666511,
      "v": 97
    },
    {
      "midi": 77,
      "hit": false,
      "t": 103854.10921875027,
      "d": 164.96562499998254,
      "v": 97
    },
    {
      "midi": 76,
      "hit": false,
      "t": 103986.08171875025,
      "d": 153.96791666666104,
      "v": 98
    },
    {
      "midi": 74,
      "hit": false,
      "t": 104118.05421875024,
      "d": 164.9656249999971,
      "v": 100
    },
    {
      "midi": 29,
      "hit": false,
      "t": 104250.02671874994,
      "d": 181.46218750000116,
      "v": 57
    },
    {
      "midi": 41,
      "hit": false,
      "t": 104250.02671874994,
      "d": 263.945000000007,
      "v": 98
    },
    {
      "midi": 72,
      "hit": false,
      "t": 104250.02671875025,
      "d": 175.9633333333186,
      "v": 97
    },
    {
      "midi": 74,
      "hit": false,
      "t": 104381.99921875024,
      "d": 156.71734374998778,
      "v": 99
    },
    {
      "midi": 29,
      "hit": false,
      "t": 104513.97171874995,
      "d": 1033.7845833333267,
      "v": 55
    },
    {
      "midi": 41,
      "hit": false,
      "t": 104513.97171874995,
      "d": 1055.7799999999988,
      "v": 101
    },
    {
      "midi": 57,
      "hit": false,
      "t": 104513.97171875005,
      "d": 965.0489062499983,
      "v": 78
    },
    {
      "midi": 48,
      "hit": false,
      "t": 104516.72114583323,
      "d": 1011.7891666666546,
      "v": 99
    },
    {
      "midi": 57,
      "hit": false,
      "t": 104516.72114583323,
      "d": 1011.7891666666546,
      "v": 99
    },
    {
      "midi": 53,
      "hit": false,
      "t": 104519.47057291656,
      "d": 940.3040624999994,
      "v": 101
    },
    {
      "midi": 57,
      "hit": false,
      "t": 104530.46828125001,
      "d": 1000.7914583333331,
      "v": 103
    },
    {
      "midi": 76,
      "hit": false,
      "t": 104530.46828125023,
      "d": 170.46447916665056,
      "v": 103
    },
    {
      "midi": 77,
      "hit": false,
      "t": 104662.44078125022,
      "d": 153.96791666666104,
      "v": 97
    },
    {
      "midi": 76,
      "hit": false,
      "t": 104777.91671875022,
      "d": 162.2161979166558,
      "v": 100
    },
    {
      "midi": 74,
      "hit": false,
      "t": 104909.8892187502,
      "d": 156.71734375000233,
      "v": 95
    },
    {
      "midi": 72,
      "hit": false,
      "t": 105041.86171875021,
      "d": 175.96333333333314,
      "v": 95
    },
    {
      "midi": 74,
      "hit": false,
      "t": 105173.83421875021,
      "d": 164.9656249999971,
      "v": 103
    },
    {
      "midi": 72,
      "hit": false,
      "t": 105305.80671875022,
      "d": 4011.4141145832255,
      "v": 101
    },
    {
      "midi": 24,
      "hit": false,
      "t": 105569.75171874995,
      "d": 4143.386614583331,
      "v": 58
    },
    {
      "midi": 36,
      "hit": false,
      "t": 105569.75171874995,
      "d": 4223.119999999995,
      "v": 100
    },
    {
      "midi": 52,
      "hit": false,
      "t": 105577.99999999988,
      "d": 3662.2368750000023,
      "v": 96
    },
    {
      "midi": 48,
      "hit": false,
      "t": 105577.99999999988,
      "d": 3673.2345833333384,
      "v": 101
    },
    {
      "midi": 55,
      "hit": false,
      "t": 105577.99999999988,
      "d": 3673.2345833333384,
      "v": 95
    },
    {
      "midi": 52,
      "hit": false,
      "t": 105577.99999999996,
      "d": 3956.4255729165016,
      "v": 97
    },
    {
      "midi": 36,
      "hit": false,
      "t": 105577.99999999996,
      "d": 4011.4141145831527,
      "v": 104
    },
    {
      "midi": 60,
      "hit": false,
      "t": 105577.99999999996,
      "d": 4022.4118229164887,
      "v": 98
    },
    {
      "midi": 55,
      "hit": false,
      "t": 105577.99999999996,
      "d": 4055.4049479164823,
      "v": 97
    },
    {
      "midi": 60,
      "hit": false,
      "t": 105577.99999999996,
      "d": 4033.409531249854,
      "v": 74
    },
    {
      "midi": 55,
      "hit": false,
      "t": 105577.99999999996,
      "d": 4044.40723958319,
      "v": 77
    },
    {
      "midi": 52,
      "hit": false,
      "t": 105577.99999999996,
      "d": 4047.1566666665167,
      "v": 77
    },
    {
      "midi": 55,
      "hit": false,
      "t": 105578.00000000001,
      "d": 824.828125,
      "v": 98
    },
    {
      "midi": 48,
      "hit": false,
      "t": 105578.00000000004,
      "d": 3992.168124999793,
      "v": 86
    },
    {
      "midi": 52,
      "hit": false,
      "t": 106361.58671875001,
      "d": 695.6050520833378,
      "v": 88
    },
    {
      "midi": 72,
      "hit": false,
      "t": 106889.47671875,
      "d": 2556.967187499875,
      "v": 23
    },
    {
      "midi": 50,
      "hit": false,
      "t": 107142.42401041668,
      "d": 497.64630208333256,
      "v": 95
    },
    {
      "midi": 48,
      "hit": false,
      "t": 107678.56229166668,
      "d": 1578.1711458333157,
      "v": 97
    },
    {
      "midi": 52,
      "hit": false,
      "t": 109251.23458333334,
      "d": 263.94499999999243,
      "v": 104
    },
    {
      "midi": 55,
      "hit": false,
      "t": 109253.98401041667,
      "d": 269.44385416666046,
      "v": 96
    },
    {
      "midi": 60,
      "hit": false,
      "t": 109270.48057291655,
      "d": 516.8922916666634,
      "v": 103
    },
    {
      "midi": 55,
      "hit": false,
      "t": 109273.22999999988,
      "d": 527.8899999999994,
      "v": 96
    },
    {
      "midi": 60,
      "hit": false,
      "t": 109523.42786458333,
      "d": 214.45531249999476,
      "v": 88
    },
    {
      "midi": 55,
      "hit": false,
      "t": 109523.42786458333,
      "d": 230.95187499999884,
      "v": 89
    },
    {
      "midi": 48,
      "hit": false,
      "t": 109787.37286458333,
      "d": 241.94958333333489,
      "v": 104
    },
    {
      "midi": 60,
      "hit": false,
      "t": 109787.37286458333,
      "d": 241.94958333333489,
      "v": 95
    },
    {
      "midi": 64,
      "hit": false,
      "t": 109801.11999999976,
      "d": 4143.386614583302,
      "v": 102
    },
    {
      "midi": 55,
      "hit": false,
      "t": 109801.11999999976,
      "d": 4154.384322916638,
      "v": 103
    },
    {
      "midi": 60,
      "hit": false,
      "t": 109801.11999999976,
      "d": 4154.384322916638,
      "v": 98
    },
    {
      "midi": 64,
      "hit": false,
      "t": 109801.1199999998,
      "d": 4198.3751562499965,
      "v": 79
    },
    {
      "midi": 60,
      "hit": false,
      "t": 109801.1199999998,
      "d": 4203.8740104166645,
      "v": 73
    },
    {
      "midi": 55,
      "hit": false,
      "t": 109801.1199999998,
      "d": 4212.122291666659,
      "v": 74
    },
    {
      "midi": 67,
      "hit": false,
      "t": 109801.11999999984,
      "d": 4184.628020833334,
      "v": 81
    },
    {
      "midi": 64,
      "hit": false,
      "t": 109801.11999999988,
      "d": 4074.650937499988,
      "v": 95
    },
    {
      "midi": 60,
      "hit": false,
      "t": 109801.11999999988,
      "d": 4140.6371874999895,
      "v": 101
    },
    {
      "midi": 67,
      "hit": false,
      "t": 109801.11999999988,
      "d": 4179.129166666651,
      "v": 99
    },
    {
      "midi": 36,
      "hit": false,
      "t": 109809.36828124976,
      "d": 4132.38890624998,
      "v": 101
    },
    {
      "midi": 24,
      "hit": false,
      "t": 109809.36828124995,
      "d": 4223.119999999995,
      "v": 104
    },
    {
      "midi": 36,
      "hit": false,
      "t": 109809.36828124995,
      "d": 4223.119999999995,
      "v": 103
    },
    {
      "midi": 55,
      "hit": false,
      "t": 109809.36828124999,
      "d": 1701.895364583339,
      "v": 95
    },
    {
      "midi": 48,
      "hit": false,
      "t": 109825.86484375,
      "d": 1701.895364583339,
      "v": 104
    },
    {
      "midi": 76,
      "hit": false,
      "t": 110320.76171875009,
      "d": 277.69213541666977,
      "v": 113
    },
    {
      "midi": 76,
      "hit": false,
      "t": 110848.65171875009,
      "d": 277.69213541664067,
      "v": 116
    },
    {
      "midi": 74,
      "hit": false,
      "t": 111112.59671875006,
      "d": 280.4415624999965,
      "v": 110
    },
    {
      "midi": 72,
      "hit": false,
      "t": 111376.54171875006,
      "d": 134.72192708333023,
      "v": 111
    },
    {
      "midi": 55,
      "hit": false,
      "t": 111640.48671875,
      "d": 1701.8953645833244,
      "v": 92
    },
    {
      "midi": 55,
      "hit": false,
      "t": 111640.48671875,
      "d": 76.9839583333378,
      "v": 101
    },
    {
      "midi": 72,
      "hit": false,
      "t": 111640.48671875005,
      "d": 448.1566145833349,
      "v": 114
    },
    {
      "midi": 60,
      "hit": false,
      "t": 111904.43171875001,
      "d": 60.48739583333372,
      "v": 101
    },
    {
      "midi": 55,
      "hit": false,
      "t": 111904.43171875001,
      "d": 82.48281250000582,
      "v": 99
    },
    {
      "midi": 60,
      "hit": false,
      "t": 111912.68000000001,
      "d": 1415.9549479166599,
      "v": 101
    },
    {
      "midi": 55,
      "hit": false,
      "t": 112165.62729166668,
      "d": 96.22994791665406,
      "v": 98
    },
    {
      "midi": 60,
      "hit": false,
      "t": 112168.37671875,
      "d": 85.23223958333256,
      "v": 98
    },
    {
      "midi": 67,
      "hit": false,
      "t": 112168.37671875005,
      "d": 294.18869791667385,
      "v": 115
    },
    {
      "midi": 60,
      "hit": false,
      "t": 112432.32171875,
      "d": 79.73338541666453,
      "v": 98
    },
    {
      "midi": 55,
      "hit": false,
      "t": 112432.32171875,
      "d": 90.73109375000058,
      "v": 97
    },
    {
      "midi": 67,
      "hit": false,
      "t": 112957.46229166667,
      "d": 467.4026041666657,
      "v": 103
    },
    {
      "midi": 64,
      "hit": false,
      "t": 112960.21171875,
      "d": 483.89916666666977,
      "v": 101
    },
    {
      "midi": 72,
      "hit": false,
      "t": 112960.21171875007,
      "d": 258.44614583333896,
      "v": 118
    },
    {
      "midi": 74,
      "hit": false,
      "t": 113224.15671875008,
      "d": 318.9335416666727,
      "v": 110
    },
    {
      "midi": 72,
      "hit": false,
      "t": 113485.35229166654,
      "d": 230.95187499999884,
      "v": 97
    },
    {
      "midi": 67,
      "hit": false,
      "t": 113488.10171875,
      "d": 494.8968750000058,
      "v": 102
    },
    {
      "midi": 72,
      "hit": false,
      "t": 113488.10171875,
      "d": 494.8968750000058,
      "v": 97
    },
    {
      "midi": 76,
      "hit": false,
      "t": 113488.10171875008,
      "d": 214.45531249999476,
      "v": 110
    },
    {
      "midi": 72,
      "hit": false,
      "t": 113746.5478645832,
      "d": 274.9427083333285,
      "v": 99
    },
    {
      "midi": 76,
      "hit": false,
      "t": 113752.04671875008,
      "d": 769.8395833333343,
      "v": 116
    },
    {
      "midi": 59,
      "hit": false,
      "t": 114013.2422916664,
      "d": 4118.641770833332,
      "v": 104
    },
    {
      "midi": 62,
      "hit": false,
      "t": 114013.2422916664,
      "d": 4132.388906249995,
      "v": 100
    },
    {
      "midi": 55,
      "hit": false,
      "t": 114015.99171874973,
      "d": 4129.639479166668,
      "v": 100
    },
    {
      "midi": 43,
      "hit": false,
      "t": 114015.99171874973,
      "d": 4154.384322916667,
      "v": 104
    },
    {
      "midi": 67,
      "hit": false,
      "t": 114015.99171874984,
      "d": 4154.384322916667,
      "v": 79
    },
    {
      "midi": 59,
      "hit": false,
      "t": 114024.2399999998,
      "d": 4025.1612500000047,
      "v": 74
    },
    {
      "midi": 62,
      "hit": false,
      "t": 114024.2399999998,
      "d": 4036.1589583333407,
      "v": 82
    },
    {
      "midi": 55,
      "hit": false,
      "t": 114024.2399999998,
      "d": 4058.154375000013,
      "v": 75
    },
    {
      "midi": 67,
      "hit": false,
      "t": 114024.23999999986,
      "d": 1000.7914583333331,
      "v": 98
    },
    {
      "midi": 62,
      "hit": false,
      "t": 114024.23999999986,
      "d": 2306.769322916676,
      "v": 102
    },
    {
      "midi": 71,
      "hit": false,
      "t": 114024.23999999986,
      "d": 3271.81822916666,
      "v": 103
    },
    {
      "midi": 71,
      "hit": false,
      "t": 114024.24,
      "d": 4074.6509375000023,
      "v": 104
    },
    {
      "midi": 55,
      "hit": false,
      "t": 114024.24,
      "d": 4107.644062499996,
      "v": 97
    },
    {
      "midi": 62,
      "hit": false,
      "t": 114024.24,
      "d": 4107.644062499996,
      "v": 99
    },
    {
      "midi": 43,
      "hit": false,
      "t": 114032.48828124994,
      "d": 4179.129166666666,
      "v": 103
    },
    {
      "midi": 74,
      "hit": false,
      "t": 114543.88171875008,
      "d": 104.47822916666337,
      "v": 115
    },
    {
      "midi": 74,
      "hit": false,
      "t": 114807.82671875008,
      "d": 1366.4652604166622,
      "v": 109
    },
    {
      "midi": 67,
      "hit": false,
      "t": 115071.77171874986,
      "d": 2040.074895833328,
      "v": 104
    },
    {
      "midi": 59,
      "hit": false,
      "t": 116124.80229166654,
      "d": 984.2948958333291,
      "v": 101
    },
    {
      "midi": 67,
      "hit": false,
      "t": 116124.80229166667,
      "d": 76.98395833332324,
      "v": 95
    },
    {
      "midi": 62,
      "hit": false,
      "t": 116127.55171875,
      "d": 76.98395833332324,
      "v": 98
    },
    {
      "midi": 67,
      "hit": false,
      "t": 116388.74729166664,
      "d": 71.48510416665522,
      "v": 98
    },
    {
      "midi": 62,
      "hit": false,
      "t": 116391.49671874997,
      "d": 71.48510416665522,
      "v": 98
    },
    {
      "midi": 67,
      "hit": false,
      "t": 116652.69229166662,
      "d": 71.48510416665522,
      "v": 99
    },
    {
      "midi": 62,
      "hit": false,
      "t": 116655.44171874995,
      "d": 74.23453124999651,
      "v": 104
    },
    {
      "midi": 67,
      "hit": false,
      "t": 116911.13843749995,
      "d": 82.48281249999127,
      "v": 102
    },
    {
      "midi": 62,
      "hit": false,
      "t": 116913.88786458327,
      "d": 71.48510416666977,
      "v": 101
    },
    {
      "midi": 67,
      "hit": false,
      "t": 117177.8328645832,
      "d": 725.8487499999901,
      "v": 100
    },
    {
      "midi": 72,
      "hit": false,
      "t": 117180.58229166652,
      "d": 714.8510416666686,
      "v": 103
    },
    {
      "midi": 72,
      "hit": false,
      "t": 117183.33171875007,
      "d": 258.44614583333896,
      "v": 117
    },
    {
      "midi": 74,
      "hit": false,
      "t": 117447.27671875007,
      "d": 258.44614583333896,
      "v": 116
    },
    {
      "midi": 76,
      "hit": false,
      "t": 117711.22171875008,
      "d": 208.95645833332674,
      "v": 117
    },
    {
      "midi": 67,
      "hit": false,
      "t": 117975.16671874985,
      "d": 241.94958333333489,
      "v": 99
    },
    {
      "midi": 64,
      "hit": false,
      "t": 117975.16671874985,
      "d": 263.945000000007,
      "v": 103
    },
    {
      "midi": 76,
      "hit": false,
      "t": 117975.16671875007,
      "d": 670.8602083333244,
      "v": 111
    },
    {
      "midi": 57,
      "hit": false,
      "t": 118247.35999999974,
      "d": 4132.388906249995,
      "v": 100
    },
    {
      "midi": 60,
      "hit": false,
      "t": 118247.35999999974,
      "d": 4132.388906249995,
      "v": 95
    },
    {
      "midi": 41,
      "hit": false,
      "t": 118247.35999999974,
      "d": 4154.384322916667,
      "v": 103
    },
    {
      "midi": 69,
      "hit": false,
      "t": 118247.35999999981,
      "d": 4135.138333333336,
      "v": 80
    },
    {
      "midi": 53,
      "hit": false,
      "t": 118247.35999999981,
      "d": 4157.133750000008,
      "v": 74
    },
    {
      "midi": 60,
      "hit": false,
      "t": 118247.35999999981,
      "d": 4179.12916666668,
      "v": 77
    },
    {
      "midi": 69,
      "hit": false,
      "t": 118247.35999999984,
      "d": 2045.573749999996,
      "v": 85
    },
    {
      "midi": 64,
      "hit": false,
      "t": 118247.35999999986,
      "d": 1996.0840624999983,
      "v": 104
    },
    {
      "midi": 60,
      "hit": false,
      "t": 118247.35999999986,
      "d": 2034.5760416666599,
      "v": 101
    },
    {
      "midi": 57,
      "hit": false,
      "t": 118247.35999999986,
      "d": 2045.573749999996,
      "v": 104
    },
    {
      "midi": 41,
      "hit": false,
      "t": 118247.35999999994,
      "d": 4190.126875000002,
      "v": 98
    },
    {
      "midi": 69,
      "hit": false,
      "t": 118247.36,
      "d": 4135.138333333336,
      "v": 97
    },
    {
      "midi": 60,
      "hit": false,
      "t": 118247.36,
      "d": 4157.133750000008,
      "v": 103
    },
    {
      "midi": 53,
      "hit": false,
      "t": 118247.36,
      "d": 4223.12000000001,
      "v": 102
    },
    {
      "midi": 69,
      "hit": false,
      "t": 118767.00171875006,
      "d": 178.71276041665988,
      "v": 109
    },
    {
      "midi": 69,
      "hit": false,
      "t": 119030.94671875006,
      "d": 1451.6974999999657,
      "v": 115
    },
    {
      "midi": 65,
      "hit": false,
      "t": 120317.67859374973,
      "d": 1987.8357812500035,
      "v": 99
    },
    {
      "midi": 57,
      "hit": false,
      "t": 120342.42343749985,
      "d": 2012.5806250000169,
      "v": 102
    },
    {
      "midi": 53,
      "hit": false,
      "t": 120347.92229166652,
      "d": 1996.0840625000128,
      "v": 100
    },
    {
      "midi": 60,
      "hit": false,
      "t": 120347.92229166652,
      "d": 2012.5806250000169,
      "v": 95
    },
    {
      "midi": 60,
      "hit": false,
      "t": 120350.67171874984,
      "d": 1990.5852083333302,
      "v": 77
    },
    {
      "midi": 72,
      "hit": false,
      "t": 121406.45171875003,
      "d": 230.95187499999884,
      "v": 110
    },
    {
      "midi": 74,
      "hit": false,
      "t": 121670.39671875002,
      "d": 214.45531249999476,
      "v": 117
    },
    {
      "midi": 67,
      "hit": false,
      "t": 121928.84286458319,
      "d": 318.9335416666727,
      "v": 101
    },
    {
      "midi": 76,
      "hit": false,
      "t": 121934.34171875002,
      "d": 197.95875000000524,
      "v": 109
    },
    {
      "midi": 69,
      "hit": false,
      "t": 122187.28901041653,
      "d": 318.9335416666727,
      "v": 103
    },
    {
      "midi": 76,
      "hit": false,
      "t": 122209.28442708336,
      "d": 747.8441666666622,
      "v": 117
    },
    {
      "midi": 67,
      "hit": false,
      "t": 122456.7328645832,
      "d": 2133.5554166666698,
      "v": 99
    },
    {
      "midi": 43,
      "hit": false,
      "t": 122462.23171874994,
      "d": 4223.119999999995,
      "v": 96
    },
    {
      "midi": 60,
      "hit": false,
      "t": 122470.47999999973,
      "d": 2042.8243229166692,
      "v": 103
    },
    {
      "midi": 43,
      "hit": false,
      "t": 122470.47999999973,
      "d": 2053.8220312500052,
      "v": 103
    },
    {
      "midi": 62,
      "hit": false,
      "t": 122470.47999999973,
      "d": 4132.388906250009,
      "v": 100
    },
    {
      "midi": 55,
      "hit": false,
      "t": 122470.47999999973,
      "d": 4143.386614583345,
      "v": 98
    },
    {
      "midi": 62,
      "hit": false,
      "t": 122470.47999999982,
      "d": 4091.147499999992,
      "v": 80
    },
    {
      "midi": 60,
      "hit": false,
      "t": 122470.47999999986,
      "d": 2095.063437500008,
      "v": 97
    },
    {
      "midi": 62,
      "hit": false,
      "t": 122470.47999999986,
      "d": 4124.140625,
      "v": 101
    },
    {
      "midi": 55,
      "hit": false,
      "t": 122470.47999999986,
      "d": 4168.13145833333,
      "v": 97
    },
    {
      "midi": 60,
      "hit": false,
      "t": 122470.48000000001,
      "d": 2095.0634374999936,
      "v": 95
    },
    {
      "midi": 55,
      "hit": false,
      "t": 122470.48000000001,
      "d": 4091.147499999992,
      "v": 102
    },
    {
      "midi": 62,
      "hit": false,
      "t": 122470.48000000001,
      "d": 4157.133749999994,
      "v": 102
    },
    {
      "midi": 60,
      "hit": false,
      "t": 122478.72828124982,
      "d": 2111.5599999999977,
      "v": 77
    },
    {
      "midi": 55,
      "hit": false,
      "t": 122478.72828124982,
      "d": 4071.901510416661,
      "v": 79
    },
    {
      "midi": 67,
      "hit": false,
      "t": 122478.72828124985,
      "d": 4000.416406250006,
      "v": 77
    },
    {
      "midi": 74,
      "hit": false,
      "t": 122990.12171875002,
      "d": 164.9656249999971,
      "v": 117
    },
    {
      "midi": 74,
      "hit": false,
      "t": 123254.06671875001,
      "d": 2895.1467187499366,
      "v": 111
    },
    {
      "midi": 59,
      "hit": false,
      "t": 124571.04229166654,
      "d": 2075.8174479166482,
      "v": 97
    },
    {
      "midi": 43,
      "hit": false,
      "t": 124573.79171874974,
      "d": 2042.8243229166692,
      "v": 99
    },
    {
      "midi": 59,
      "hit": false,
      "t": 124573.79171874974,
      "d": 2053.8220312500052,
      "v": 97
    },
    {
      "midi": 59,
      "hit": false,
      "t": 124573.79171874981,
      "d": 2040.0748958333425,
      "v": 74
    },
    {
      "midi": 59,
      "hit": false,
      "t": 124573.79171875,
      "d": 2037.3254687500012,
      "v": 97
    },
    {
      "midi": 72,
      "hit": false,
      "t": 125101.6817187501,
      "d": 269.44385416666046,
      "v": 103
    },
    {
      "midi": 74,
      "hit": false,
      "t": 125365.62671875009,
      "d": 307.93583333333663,
      "v": 98
    },
    {
      "midi": 67,
      "hit": false,
      "t": 125629.57171875,
      "d": 981.5454687500023,
      "v": 96
    },
    {
      "midi": 76,
      "hit": false,
      "t": 125629.5717187501,
      "d": 288.68984374999127,
      "v": 103
    },
    {
      "midi": 79,
      "hit": false,
      "t": 125893.51671875009,
      "d": 274.94270833334303,
      "v": 99
    },
    {
      "midi": 76,
      "hit": false,
      "t": 126157.4617187501,
      "d": 288.6898437500058,
      "v": 104
    },
    {
      "midi": 74,
      "hit": false,
      "t": 126421.4067187501,
      "d": 318.93354166665813,
      "v": 97
    },
    {
      "midi": 48,
      "hit": false,
      "t": 126679.85286458334,
      "d": 241.94958333333489,
      "v": 103
    },
    {
      "midi": 60,
      "hit": false,
      "t": 126679.85286458334,
      "d": 241.94958333333489,
      "v": 102
    },
    {
      "midi": 60,
      "hit": false,
      "t": 126693.59999999974,
      "d": 4132.388906249995,
      "v": 103
    },
    {
      "midi": 64,
      "hit": false,
      "t": 126693.59999999974,
      "d": 4143.386614583316,
      "v": 101
    },
    {
      "midi": 55,
      "hit": false,
      "t": 126693.59999999974,
      "d": 4154.384322916652,
      "v": 98
    },
    {
      "midi": 60,
      "hit": false,
      "t": 126693.59999999982,
      "d": 4203.8740104166645,
      "v": 81
    },
    {
      "midi": 55,
      "hit": false,
      "t": 126693.59999999982,
      "d": 4214.871718750001,
      "v": 74
    },
    {
      "midi": 48,
      "hit": false,
      "t": 126693.59999999982,
      "d": 4220.370572916669,
      "v": 75
    },
    {
      "midi": 64,
      "hit": false,
      "t": 126693.59999999985,
      "d": 4179.129166666666,
      "v": 81
    },
    {
      "midi": 55,
      "hit": false,
      "t": 126693.6,
      "d": 241.94958333333489,
      "v": 104
    },
    {
      "midi": 67,
      "hit": false,
      "t": 126696.34942708319,
      "d": 4124.140624999985,
      "v": 99
    },
    {
      "midi": 76,
      "hit": false,
      "t": 126696.34942708343,
      "d": 1404.9572395832656,
      "v": 95
    },
    {
      "midi": 60,
      "hit": false,
      "t": 126699.09885416651,
      "d": 4126.890052083327,
      "v": 97
    },
    {
      "midi": 36,
      "hit": false,
      "t": 126701.84828124974,
      "d": 4132.388906249995,
      "v": 98
    },
    {
      "midi": 64,
      "hit": false,
      "t": 126701.84828124984,
      "d": 4118.641770833332,
      "v": 95
    },
    {
      "midi": 24,
      "hit": false,
      "t": 126701.84828124994,
      "d": 4223.119999999995,
      "v": 103
    },
    {
      "midi": 36,
      "hit": false,
      "t": 126701.84828124994,
      "d": 4223.119999999995,
      "v": 95
    },
    {
      "midi": 60,
      "hit": false,
      "t": 126965.79328125001,
      "d": 230.95187499999884,
      "v": 84
    },
    {
      "midi": 62,
      "hit": false,
      "t": 127215.99114583334,
      "d": 230.95187499999884,
      "v": 95
    },
    {
      "midi": 64,
      "hit": false,
      "t": 127477.18671875,
      "d": 2556.967187500006,
      "v": 84
    },
    {
      "midi": 76,
      "hit": false,
      "t": 128005.07671874994,
      "d": 118.22536458332615,
      "v": 113
    },
    {
      "midi": 79,
      "hit": false,
      "t": 128269.02171874994,
      "d": 153.96791666666104,
      "v": 117
    },
    {
      "midi": 79,
      "hit": false,
      "t": 128532.96671874993,
      "d": 769.8395833333198,
      "v": 112
    },
    {
      "midi": 79,
      "hit": false,
      "t": 129324.80171874992,
      "d": 82.48281250000582,
      "v": 118
    },
    {
      "midi": 79,
      "hit": false,
      "t": 129588.74671874993,
      "d": 241.94958333333489,
      "v": 109
    },
    {
      "midi": 76,
      "hit": false,
      "t": 129830.69630208326,
      "d": 197.95875000000524,
      "v": 113
    },
    {
      "midi": 74,
      "hit": false,
      "t": 130028.65505208327,
      "d": 142.970208333325,
      "v": 111
    },
    {
      "midi": 64,
      "hit": false,
      "t": 130116.63671875001,
      "d": 247.4484375000029,
      "v": 93
    },
    {
      "midi": 72,
      "hit": false,
      "t": 130133.13328124993,
      "d": 439.9083333333401,
      "v": 109
    },
    {
      "midi": 71,
      "hit": false,
      "t": 130377.8322916665,
      "d": 252.94729166667094,
      "v": 100
    },
    {
      "midi": 67,
      "hit": false,
      "t": 130380.58171875002,
      "d": 247.4484375000029,
      "v": 99
    },
    {
      "midi": 72,
      "hit": false,
      "t": 130639.02786458317,
      "d": 285.94041666666453,
      "v": 101
    },
    {
      "midi": 72,
      "hit": false,
      "t": 130644.52671874994,
      "d": 65.98625000000175,
      "v": 111
    },
    {
      "midi": 72,
      "hit": false,
      "t": 130644.52671875003,
      "d": 252.94729166667094,
      "v": 88
    },
    {
      "midi": 74,
      "hit": false,
      "t": 130795.74520833328,
      "d": 76.9839583333378,
      "v": 110
    },
    {
      "midi": 62,
      "hit": false,
      "t": 130905.7222916664,
      "d": 3835.450781249907,
      "v": 97
    },
    {
      "midi": 59,
      "hit": false,
      "t": 130905.7222916664,
      "d": 3846.448489583243,
      "v": 100
    },
    {
      "midi": 43,
      "hit": false,
      "t": 130908.47171874973,
      "d": 3087.6066145832883,
      "v": 96
    },
    {
      "midi": 55,
      "hit": false,
      "t": 130908.47171874973,
      "d": 3835.450781249907,
      "v": 103
    },
    {
      "midi": 62,
      "hit": false,
      "t": 130916.71999999981,
      "d": 3090.3560416666587,
      "v": 73
    },
    {
      "midi": 50,
      "hit": false,
      "t": 130916.71999999981,
      "d": 3101.3537499999948,
      "v": 75
    },
    {
      "midi": 55,
      "hit": false,
      "t": 130916.71999999981,
      "d": 3123.349166666667,
      "v": 82
    },
    {
      "midi": 62,
      "hit": false,
      "t": 130916.71999999984,
      "d": 725.848749999961,
      "v": 100
    },
    {
      "midi": 67,
      "hit": false,
      "t": 130916.71999999984,
      "d": 3359.799895833319,
      "v": 86
    },
    {
      "midi": 74,
      "hit": false,
      "t": 130916.71999999994,
      "d": 736.8464583333407,
      "v": 112
    },
    {
      "midi": 71,
      "hit": false,
      "t": 130916.72000000003,
      "d": 497.64630208333256,
      "v": 95
    },
    {
      "midi": 71,
      "hit": false,
      "t": 130924.96828124984,
      "d": 684.6073437499872,
      "v": 96
    },
    {
      "midi": 67,
      "hit": false,
      "t": 130924.96828124984,
      "d": 690.1061979166407,
      "v": 98
    },
    {
      "midi": 43,
      "hit": false,
      "t": 130924.96828124994,
      "d": 3167.340000000011,
      "v": 103
    },
    {
      "midi": 71,
      "hit": false,
      "t": 131436.36171875003,
      "d": 247.44843749998836,
      "v": 103
    },
    {
      "midi": 71,
      "hit": false,
      "t": 131700.3067187498,
      "d": 668.1107812499977,
      "v": 100
    },
    {
      "midi": 67,
      "hit": false,
      "t": 131700.3067187498,
      "d": 676.359062500007,
      "v": 98
    },
    {
      "midi": 62,
      "hit": false,
      "t": 131700.3067187498,
      "d": 681.8579166666605,
      "v": 99
    },
    {
      "midi": 71,
      "hit": false,
      "t": 131700.30671875,
      "d": 3409.2895833333605,
      "v": 92
    },
    {
      "midi": 74,
      "hit": false,
      "t": 131711.3044270833,
      "d": 648.8647916666523,
      "v": 113
    },
    {
      "midi": 67,
      "hit": false,
      "t": 131964.25171875002,
      "d": 459.15432291667094,
      "v": 102
    },
    {
      "midi": 62,
      "hit": false,
      "t": 132486.64286458315,
      "d": 2359.008437500015,
      "v": 104
    },
    {
      "midi": 67,
      "hit": false,
      "t": 132489.39229166647,
      "d": 2056.5714583333465,
      "v": 100
    },
    {
      "midi": 71,
      "hit": false,
      "t": 132489.39229166647,
      "d": 2523.974062500027,
      "v": 103
    },
    {
      "midi": 74,
      "hit": false,
      "t": 132492.14171874995,
      "d": 269.44385416666046,
      "v": 115
    },
    {
      "midi": 67,
      "hit": false,
      "t": 132492.14171875003,
      "d": 247.44843749998836,
      "v": 103
    },
    {
      "midi": 67,
      "hit": false,
      "t": 132756.08671875,
      "d": 2339.762447916699,
      "v": 86
    },
    {
      "midi": 62,
      "hit": false,
      "t": 133020.03171875002,
      "d": 483.89916666666977,
      "v": 100
    },
    {
      "midi": 62,
      "hit": false,
      "t": 133558.91942708337,
      "d": 252.94729166667094,
      "v": 96
    },
    {
      "midi": 72,
      "hit": false,
      "t": 133811.86671874995,
      "d": 164.96562500001164,
      "v": 109
    },
    {
      "midi": 62,
      "hit": false,
      "t": 133811.86671875004,
      "d": 1237.2421875,
      "v": 87
    },
    {
      "midi": 72,
      "hit": false,
      "t": 134073.0622916665,
      "d": 536.1382812500233,
      "v": 99
    },
    {
      "midi": 72,
      "hit": false,
      "t": 134075.81171874996,
      "d": 170.46447916666511,
      "v": 115
    },
    {
      "midi": 60,
      "hit": false,
      "t": 134084.05999999982,
      "d": 1011.7891666666546,
      "v": 75
    },
    {
      "midi": 55,
      "hit": false,
      "t": 134086.80942708338,
      "d": 445.40718750000815,
      "v": 102
    },
    {
      "midi": 40,
      "hit": false,
      "t": 134092.30828124995,
      "d": 1055.7799999999988,
      "v": 104
    },
    {
      "midi": 74,
      "hit": false,
      "t": 134339.75671874997,
      "d": 164.96562500001164,
      "v": 109
    },
    {
      "midi": 67,
      "hit": false,
      "t": 134600.9522916665,
      "d": 483.89916666666977,
      "v": 96
    },
    {
      "midi": 76,
      "hit": false,
      "t": 134603.70171874997,
      "d": 285.9404166666791,
      "v": 109
    },
    {
      "midi": 55,
      "hit": false,
      "t": 134603.70171875006,
      "d": 247.44843749998836,
      "v": 95
    },
    {
      "midi": 55,
      "hit": false,
      "t": 134867.64671875004,
      "d": 230.95187499999884,
      "v": 92
    },
    {
      "midi": 41,
      "hit": false,
      "t": 135139.83999999968,
      "d": 4143.386614583433,
      "v": 96
    },
    {
      "midi": 60,
      "hit": false,
      "t": 135139.83999999968,
      "d": 4143.386614583433,
      "v": 97
    },
    {
      "midi": 57,
      "hit": false,
      "t": 135139.83999999968,
      "d": 4154.384322916769,
      "v": 103
    },
    {
      "midi": 65,
      "hit": false,
      "t": 135139.83999999982,
      "d": 4206.623437500006,
      "v": 74
    },
    {
      "midi": 57,
      "hit": false,
      "t": 135139.83999999982,
      "d": 4209.372864583333,
      "v": 75
    },
    {
      "midi": 60,
      "hit": false,
      "t": 135139.83999999982,
      "d": 4209.372864583333,
      "v": 76
    },
    {
      "midi": 69,
      "hit": false,
      "t": 135139.83999999982,
      "d": 2089.5645833333256,
      "v": 86
    },
    {
      "midi": 65,
      "hit": false,
      "t": 135139.83999999985,
      "d": 4203.874010416621,
      "v": 99
    },
    {
      "midi": 60,
      "hit": false,
      "t": 135139.83999999985,
      "d": 4214.871718749957,
      "v": 104
    },
    {
      "midi": 41,
      "hit": false,
      "t": 135139.83999999994,
      "d": 4223.120000000024,
      "v": 98
    },
    {
      "midi": 76,
      "hit": false,
      "t": 135139.84,
      "d": 494.8968750000058,
      "v": 109
    },
    {
      "midi": 60,
      "hit": false,
      "t": 135139.84000000003,
      "d": 1528.6814583333326,
      "v": 97
    },
    {
      "midi": 69,
      "hit": false,
      "t": 135139.84000000003,
      "d": 1572.6722916666768,
      "v": 96
    },
    {
      "midi": 69,
      "hit": false,
      "t": 135153.5871354165,
      "d": 3684.2322916666453,
      "v": 101
    },
    {
      "midi": 69,
      "hit": false,
      "t": 135659.48171875,
      "d": 90.73109374998603,
      "v": 115
    },
    {
      "midi": 69,
      "hit": false,
      "t": 135923.42671874998,
      "d": 1462.6952083333163,
      "v": 114
    },
    {
      "midi": 57,
      "hit": false,
      "t": 136715.26171875003,
      "d": 2062.0703125,
      "v": 104
    },
    {
      "midi": 60,
      "hit": false,
      "t": 136979.20671875004,
      "d": 1798.125312499993,
      "v": 93
    },
    {
      "midi": 65,
      "hit": false,
      "t": 137210.15859374977,
      "d": 2053.8220312499907,
      "v": 101
    },
    {
      "midi": 65,
      "hit": false,
      "t": 137243.1517187498,
      "d": 2048.323177083337,
      "v": 85
    },
    {
      "midi": 65,
      "hit": false,
      "t": 137243.15171875004,
      "d": 1536.9297395833128,
      "v": 98
    },
    {
      "midi": 72,
      "hit": false,
      "t": 138562.87671874996,
      "d": 159.46677083332906,
      "v": 109
    },
    {
      "midi": 67,
      "hit": false,
      "t": 138791.0791666667,
      "d": 285.94041666665,
      "v": 100
    },
    {
      "midi": 67,
      "hit": false,
      "t": 138821.32286458317,
      "d": 263.9449999999779,
      "v": 103
    },
    {
      "midi": 74,
      "hit": false,
      "t": 138826.82171874997,
      "d": 159.46677083332906,
      "v": 112
    },
    {
      "midi": 69,
      "hit": false,
      "t": 139074.27015625002,
      "d": 274.94270833331393,
      "v": 91
    },
    {
      "midi": 69,
      "hit": false,
      "t": 139085.26786458315,
      "d": 219.9541666666628,
      "v": 97
    },
    {
      "midi": 76,
      "hit": false,
      "t": 139090.76671874998,
      "d": 1033.7845833333267,
      "v": 118
    },
    {
      "midi": 43,
      "hit": false,
      "t": 139354.71171874995,
      "d": 3167.3399999999965,
      "v": 102
    },
    {
      "midi": 60,
      "hit": false,
      "t": 139362.95999999982,
      "d": 2312.268177083344,
      "v": 101
    },
    {
      "midi": 74,
      "hit": false,
      "t": 139362.95999999982,
      "d": 2853.905312500021,
      "v": 97
    },
    {
      "midi": 62,
      "hit": false,
      "t": 139362.95999999982,
      "d": 3101.3537500000384,
      "v": 104
    },
    {
      "midi": 62,
      "hit": false,
      "t": 139362.95999999982,
      "d": 2161.0496874999953,
      "v": 79
    },
    {
      "midi": 55,
      "hit": false,
      "t": 139362.95999999982,
      "d": 2859.4041666666744,
      "v": 78
    },
    {
      "midi": 67,
      "hit": false,
      "t": 139362.95999999982,
      "d": 3112.3514583333454,
      "v": 81
    },
    {
      "midi": 55,
      "hit": false,
      "t": 139371.20828124977,
      "d": 1976.8380729166674,
      "v": 102
    },
    {
      "midi": 60,
      "hit": false,
      "t": 139371.20828124977,
      "d": 1987.8357812500035,
      "v": 103
    },
    {
      "midi": 67,
      "hit": false,
      "t": 139371.20828124983,
      "d": 2092.3140104166523,
      "v": 97
    },
    {
      "midi": 55,
      "hit": false,
      "t": 139371.20828124983,
      "d": 3060.112343750021,
      "v": 104
    },
    {
      "midi": 67,
      "hit": false,
      "t": 139371.20828124983,
      "d": 2051.072604166664,
      "v": 79
    },
    {
      "midi": 67,
      "hit": false,
      "t": 139371.20828125,
      "d": 3161.841145833343,
      "v": 104
    },
    {
      "midi": 74,
      "hit": false,
      "t": 140149.2961458333,
      "d": 200.70817708334653,
      "v": 112
    },
    {
      "midi": 72,
      "hit": false,
      "t": 140938.38171875,
      "d": 197.9587499999907,
      "v": 114
    },
    {
      "midi": 71,
      "hit": false,
      "t": 141202.32671874997,
      "d": 709.3521875000151,
      "v": 115
    },
    {
      "midi": 59,
      "hit": false,
      "t": 141466.27171874978,
      "d": 489.39802083332324,
      "v": 95
    },
    {
      "midi": 59,
      "hit": false,
      "t": 141466.2717187498,
      "d": 2053.82203125002,
      "v": 77
    },
    {
      "midi": 71,
      "hit": false,
      "t": 141466.27171874995,
      "d": 549.8854166666861,
      "v": 68
    },
    {
      "midi": 59,
      "hit": false,
      "t": 141471.7705729165,
      "d": 951.30177083335,
      "v": 99
    },
    {
      "midi": 59,
      "hit": false,
      "t": 141471.7705729165,
      "d": 503.14515624998603,
      "v": 83
    },
    {
      "midi": 55,
      "hit": false,
      "t": 141482.76828124977,
      "d": 998.0420312499919,
      "v": 102
    },
    {
      "midi": 57,
      "hit": false,
      "t": 141994.16171874976,
      "d": 481.14973958334303,
      "v": 97
    },
    {
      "midi": 57,
      "hit": false,
      "t": 141994.16171874982,
      "d": 470.152031250007,
      "v": 82
    },
    {
      "midi": 69,
      "hit": false,
      "t": 141994.16171874997,
      "d": 464.6531770833244,
      "v": 62
    },
    {
      "midi": 69,
      "hit": false,
      "t": 141994.16171875,
      "d": 145.71963541666628,
      "v": 118
    },
    {
      "midi": 71,
      "hit": false,
      "t": 142258.10671875,
      "d": 494.8968749999767,
      "v": 112
    },
    {
      "midi": 59,
      "hit": false,
      "t": 142522.05171874975,
      "d": 978.7960416666756,
      "v": 102
    },
    {
      "midi": 56,
      "hit": false,
      "t": 142522.05171874975,
      "d": 987.0443229166849,
      "v": 99
    },
    {
      "midi": 56,
      "hit": false,
      "t": 142522.05171874983,
      "d": 945.8029166666674,
      "v": 76
    },
    {
      "midi": 64,
      "hit": false,
      "t": 142522.05171874983,
      "d": 987.0443229166558,
      "v": 83
    },
    {
      "midi": 71,
      "hit": false,
      "t": 142522.05171874995,
      "d": 992.5431770833384,
      "v": 61
    },
    {
      "midi": 68,
      "hit": false,
      "t": 142538.54828124982,
      "d": 987.0443229166558,
      "v": 76
    },
    {
      "midi": 62,
      "hit": false,
      "t": 142538.54828124985,
      "d": 973.297187499993,
      "v": 99
    },
    {
      "midi": 68,
      "hit": false,
      "t": 142538.54828124985,
      "d": 973.297187499993,
      "v": 101
    },
    {
      "midi": 71,
      "hit": false,
      "t": 142538.54828124985,
      "d": 973.297187499993,
      "v": 95
    },
    {
      "midi": 44,
      "hit": false,
      "t": 142538.54828124994,
      "d": 1044.7822916666628,
      "v": 97
    },
    {
      "midi": 59,
      "hit": false,
      "t": 142549.5459895832,
      "d": 951.3017708333209,
      "v": 95
    },
    {
      "midi": 69,
      "hit": false,
      "t": 142785.99671874996,
      "d": 310.6852604166779,
      "v": 116
    },
    {
      "midi": 67,
      "hit": false,
      "t": 143049.94171874996,
      "d": 137.47135416665697,
      "v": 109
    },
    {
      "midi": 64,
      "hit": false,
      "t": 143173.66593749996,
      "d": 250.1978645833151,
      "v": 110
    },
    {
      "midi": 72,
      "hit": false,
      "t": 143313.88671874985,
      "d": 181.46218750000116,
      "v": 96
    },
    {
      "midi": 74,
      "hit": false,
      "t": 143462.35578124985,
      "d": 197.9587499999907,
      "v": 101
    },
    {
      "midi": 64,
      "hit": false,
      "t": 143586.07999999975,
      "d": 2009.8311979166756,
      "v": 97
    },
    {
      "midi": 69,
      "hit": false,
      "t": 143586.07999999975,
      "d": 2042.8243229166546,
      "v": 102
    },
    {
      "midi": 57,
      "hit": false,
      "t": 143586.0799999998,
      "d": 2089.5645833333256,
      "v": 74
    },
    {
      "midi": 69,
      "hit": false,
      "t": 143586.0799999998,
      "d": 2100.5622916666616,
      "v": 82
    },
    {
      "midi": 64,
      "hit": false,
      "t": 143586.0799999998,
      "d": 4192.876302083314,
      "v": 82
    },
    {
      "midi": 69,
      "hit": false,
      "t": 143586.0799999998,
      "d": 2100.5622916666616,
      "v": 77
    },
    {
      "midi": 45,
      "hit": false,
      "t": 143586.07999999993,
      "d": 2111.5599999999977,
      "v": 103
    },
    {
      "midi": 81,
      "hit": false,
      "t": 143586.07999999996,
      "d": 2111.5599999999977,
      "v": 67
    },
    {
      "midi": 69,
      "hit": false,
      "t": 143586.07999999996,
      "d": 1047.5317187500768,
      "v": 117
    },
    {
      "midi": 69,
      "hit": false,
      "t": 143586.08000000002,
      "d": 2111.5599999999977,
      "v": 63
    },
    {
      "midi": 72,
      "hit": false,
      "t": 143586.08000000005,
      "d": 285.94041666665,
      "v": 97
    },
    {
      "midi": 72,
      "hit": false,
      "t": 143594.32828124976,
      "d": 2031.8266145833186,
      "v": 97
    },
    {
      "midi": 64,
      "hit": false,
      "t": 143597.07770833318,
      "d": 1954.8426562499953,
      "v": 103
    },
    {
      "midi": 57,
      "hit": false,
      "t": 143597.07770833318,
      "d": 2023.5783333333384,
      "v": 102
    },
    {
      "midi": 60,
      "hit": false,
      "t": 143597.07770833318,
      "d": 2067.5691666666826,
      "v": 99
    },
    {
      "midi": 74,
      "hit": false,
      "t": 143841.77671875004,
      "d": 170.46447916666511,
      "v": 102
    },
    {
      "midi": 76,
      "hit": false,
      "t": 144105.72171875005,
      "d": 148.46906249999302,
      "v": 104
    },
    {
      "midi": 76,
      "hit": false,
      "t": 144383.41385416672,
      "d": 120.97479166666744,
      "v": 104
    },
    {
      "midi": 74,
      "hit": false,
      "t": 144493.39093750005,
      "d": 140.2207812500128,
      "v": 101
    },
    {
      "midi": 72,
      "hit": false,
      "t": 144633.61171875006,
      "d": 379.42093750002095,
      "v": 99
    },
    {
      "midi": 64,
      "hit": false,
      "t": 144897.55671875,
      "d": 250.1978645833442,
      "v": 88
    },
    {
      "midi": 69,
      "hit": false,
      "t": 145161.50171875002,
      "d": 219.9541666666628,
      "v": 104
    },
    {
      "midi": 71,
      "hit": false,
      "t": 145425.44671875003,
      "d": 142.97020833333954,
      "v": 84
    },
    {
      "midi": 72,
      "hit": false,
      "t": 145557.41921875003,
      "d": 164.96562500001164,
      "v": 104
    },
    {
      "midi": 56,
      "hit": false,
      "t": 145686.64229166647,
      "d": 2001.5829166666663,
      "v": 78
    },
    {
      "midi": 74,
      "hit": false,
      "t": 145689.39171874974,
      "d": 2020.8289062499534,
      "v": 99
    },
    {
      "midi": 68,
      "hit": false,
      "t": 145689.3917187498,
      "d": 2015.330052083329,
      "v": 81
    },
    {
      "midi": 44,
      "hit": false,
      "t": 145689.39171874992,
      "d": 2111.5599999999977,
      "v": 100
    },
    {
      "midi": 83,
      "hit": false,
      "t": 145689.39171874995,
      "d": 2150.0519791666593,
      "v": 68
    },
    {
      "midi": 71,
      "hit": false,
      "t": 145689.39171875,
      "d": 2001.5829166666663,
      "v": 63
    },
    {
      "midi": 71,
      "hit": false,
      "t": 145689.39171875003,
      "d": 1297.7295833333337,
      "v": 104
    },
    {
      "midi": 72,
      "hit": false,
      "t": 145689.3917187501,
      "d": 274.94270833334303,
      "v": 99
    },
    {
      "midi": 68,
      "hit": false,
      "t": 145692.14114583307,
      "d": 1998.8334895833104,
      "v": 99
    },
    {
      "midi": 71,
      "hit": false,
      "t": 145697.63999999972,
      "d": 2009.8311979166465,
      "v": 104
    },
    {
      "midi": 71,
      "hit": false,
      "t": 145700.38942708314,
      "d": 2026.3277604166651,
      "v": 85
    },
    {
      "midi": 56,
      "hit": false,
      "t": 145705.88828124985,
      "d": 2018.0794791666558,
      "v": 100
    },
    {
      "midi": 64,
      "hit": false,
      "t": 145705.88828124985,
      "d": 2026.3277604166651,
      "v": 101
    },
    {
      "midi": 59,
      "hit": false,
      "t": 145705.88828124985,
      "d": 2037.3254687500012,
      "v": 97
    },
    {
      "midi": 74,
      "hit": false,
      "t": 145953.3367187501,
      "d": 269.44385416666046,
      "v": 95
    },
    {
      "midi": 79,
      "hit": false,
      "t": 146217.2817187501,
      "d": 131.9724999999744,
      "v": 98
    },
    {
      "midi": 76,
      "hit": false,
      "t": 146481.22671875008,
      "d": 714.8510416666977,
      "v": 95
    },
    {
      "midi": 64,
      "hit": false,
      "t": 147025.61328125003,
      "d": 244.69901041666162,
      "v": 87
    },
    {
      "midi": 68,
      "hit": false,
      "t": 147289.55828125004,
      "d": 263.945000000007,
      "v": 104
    },
    {
      "midi": 72,
      "hit": false,
      "t": 147545.25500000012,
      "d": 208.95645833332674,
      "v": 104
    },
    {
      "midi": 71,
      "hit": false,
      "t": 147553.50328125004,
      "d": 255.69671874999767,
      "v": 92
    },
    {
      "midi": 43,
      "hit": false,
      "t": 147800.95171874992,
      "d": 2111.5599999999977,
      "v": 101
    },
    {
      "midi": 84,
      "hit": false,
      "t": 147809.1999999997,
      "d": 1514.9343229166698,
      "v": 101
    },
    {
      "midi": 60,
      "hit": false,
      "t": 147809.1999999997,
      "d": 2213.288802083378,
      "v": 97
    },
    {
      "midi": 64,
      "hit": false,
      "t": 147809.1999999997,
      "d": 2227.0359375000407,
      "v": 104
    },
    {
      "midi": 55,
      "hit": false,
      "t": 147809.19999999978,
      "d": 2056.5714583333465,
      "v": 81
    },
    {
      "midi": 60,
      "hit": false,
      "t": 147809.19999999978,
      "d": 2078.5668750000186,
      "v": 77
    },
    {
      "midi": 67,
      "hit": false,
      "t": 147809.19999999978,
      "d": 2078.5668750000186,
      "v": 78
    },
    {
      "midi": 64,
      "hit": false,
      "t": 147809.1999999998,
      "d": 2089.5645833333256,
      "v": 82
    },
    {
      "midi": 72,
      "hit": false,
      "t": 147809.19999999984,
      "d": 1583.6699999999837,
      "v": 101
    },
    {
      "midi": 60,
      "hit": false,
      "t": 147809.19999999984,
      "d": 2056.5714583333174,
      "v": 103
    },
    {
      "midi": 67,
      "hit": false,
      "t": 147809.19999999984,
      "d": 2078.5668749999895,
      "v": 99
    },
    {
      "midi": 84,
      "hit": false,
      "t": 147809.19999999995,
      "d": 2092.3140104166523,
      "v": 61
    },
    {
      "midi": 60,
      "hit": false,
      "t": 147809.20000000004,
      "d": 736.8464583333407,
      "v": 100
    },
    {
      "midi": 72,
      "hit": false,
      "t": 147809.20000000013,
      "d": 274.94270833334303,
      "v": 97
    },
    {
      "midi": 64,
      "hit": false,
      "t": 147814.6988541665,
      "d": 1465.444635416672,
      "v": 100
    },
    {
      "midi": 72,
      "hit": false,
      "t": 147817.44828125,
      "d": 1473.6929166666523,
      "v": 63
    },
    {
      "midi": 72,
      "hit": false,
      "t": 147817.44828125005,
      "d": 1806.3735937500023,
      "v": 100
    },
    {
      "midi": 74,
      "hit": false,
      "t": 148064.89671875013,
      "d": 208.95645833335584,
      "v": 103
    },
    {
      "midi": 76,
      "hit": false,
      "t": 148328.84171875016,
      "d": 200.70817708334653,
      "v": 97
    },
    {
      "midi": 60,
      "hit": false,
      "t": 148592.78671875005,
      "d": 186.96104166665464,
      "v": 90
    },
    {
      "midi": 81,
      "hit": false,
      "t": 148592.78671875017,
      "d": 574.630260416714,
      "v": 95
    },
    {
      "midi": 64,
      "hit": false,
      "t": 148856.73171875003,
      "d": 967.7983333333686,
      "v": 100
    },
    {
      "midi": 71,
      "hit": false,
      "t": 149373.6240104165,
      "d": 280.4415624999965,
      "v": 103
    },
    {
      "midi": 64,
      "hit": false,
      "t": 149376.37343749983,
      "d": 483.89916666666977,
      "v": 102
    },
    {
      "midi": 83,
      "hit": false,
      "t": 149384.6217187497,
      "d": 230.95187499999884,
      "v": 95
    },
    {
      "midi": 64,
      "hit": false,
      "t": 149384.62171875,
      "d": 483.89916666666977,
      "v": 63
    },
    {
      "midi": 71,
      "hit": false,
      "t": 149384.62171875004,
      "d": 252.94729166667094,
      "v": 102
    },
    {
      "midi": 76,
      "hit": false,
      "t": 149384.62171875022,
      "d": 214.4553125000093,
      "v": 98
    },
    {
      "midi": 72,
      "hit": false,
      "t": 149645.8172916665,
      "d": 291.43927083333256,
      "v": 101
    },
    {
      "midi": 84,
      "hit": false,
      "t": 149648.5667187497,
      "d": 272.1932812500163,
      "v": 96
    },
    {
      "midi": 72,
      "hit": false,
      "t": 149648.56671875005,
      "d": 241.94958333333489,
      "v": 87
    },
    {
      "midi": 76,
      "hit": false,
      "t": 149651.31614583355,
      "d": 186.96104166665464,
      "v": 99
    },
    {
      "midi": 66,
      "hit": false,
      "t": 149907.01286458317,
      "d": 2034.5760416666453,
      "v": 103
    },
    {
      "midi": 62,
      "hit": false,
      "t": 149912.5117187497,
      "d": 1976.8380729166965,
      "v": 103
    },
    {
      "midi": 57,
      "hit": false,
      "t": 149912.5117187497,
      "d": 1979.5875000000233,
      "v": 103
    },
    {
      "midi": 64,
      "hit": false,
      "t": 149912.5117187498,
      "d": 1033.7845833333267,
      "v": 77
    },
    {
      "midi": 54,
      "hit": false,
      "t": 149912.5117187498,
      "d": 2045.5737500000105,
      "v": 76
    },
    {
      "midi": 66,
      "hit": false,
      "t": 149912.5117187498,
      "d": 2067.5691666666826,
      "v": 81
    },
    {
      "midi": 69,
      "hit": false,
      "t": 149912.5117187498,
      "d": 2078.5668749999895,
      "v": 84
    },
    {
      "midi": 69,
      "hit": false,
      "t": 149912.51171874983,
      "d": 1044.7822916666628,
      "v": 104
    },
    {
      "midi": 42,
      "hit": false,
      "t": 149912.5117187499,
      "d": 2111.5599999999977,
      "v": 101
    },
    {
      "midi": 69,
      "hit": false,
      "t": 149912.51171875,
      "d": 1033.7845833333267,
      "v": 63
    },
    {
      "midi": 74,
      "hit": false,
      "t": 149912.51171875006,
      "d": 673.6096354166802,
      "v": 100
    },
    {
      "midi": 62,
      "hit": false,
      "t": 149912.51171875006,
      "d": 720.3498958333512,
      "v": 102
    },
    {
      "midi": 74,
      "hit": false,
      "t": 149912.5117187502,
      "d": 247.44843749998836,
      "v": 98
    },
    {
      "midi": 86,
      "hit": false,
      "t": 149929.00828124973,
      "d": 1998.8334895833395,
      "v": 103
    },
    {
      "midi": 86,
      "hit": false,
      "t": 149929.00828124993,
      "d": 2007.0817708333198,
      "v": 69
    },
    {
      "midi": 60,
      "hit": false,
      "t": 149931.75770833317,
      "d": 1946.594374999986,
      "v": 101
    },
    {
      "midi": 74,
      "hit": false,
      "t": 150192.9532812502,
      "d": 340.92895833333023,
      "v": 100
    },
    {
      "midi": 76,
      "hit": false,
      "t": 150561.37651041686,
      "d": 178.71276041667443,
      "v": 95
    },
    {
      "midi": 62,
      "hit": false,
      "t": 150704.34671875008,
      "d": 170.46447916666511,
      "v": 87
    },
    {
      "midi": 74,
      "hit": false,
      "t": 150704.34671875008,
      "d": 208.95645833332674,
      "v": 86
    },
    {
      "midi": 74,
      "hit": false,
      "t": 150891.30776041685,
      "d": 307.9358333333512,
      "v": 103
    },
    {
      "midi": 60,
      "hit": false,
      "t": 150968.2917187498,
      "d": 978.7960416666756,
      "v": 77
    },
    {
      "midi": 69,
      "hit": false,
      "t": 150968.29171874982,
      "d": 970.5477604166663,
      "v": 99
    },
    {
      "midi": 74,
      "hit": false,
      "t": 150968.29171875,
      "d": 1033.7845833333267,
      "v": 71
    },
    {
      "midi": 74,
      "hit": false,
      "t": 150968.2917187501,
      "d": 728.5981770833314,
      "v": 95
    },
    {
      "midi": 62,
      "hit": false,
      "t": 150968.2917187501,
      "d": 863.3201041666616,
      "v": 100
    },
    {
      "midi": 72,
      "hit": false,
      "t": 151141.5056250002,
      "d": 131.9725000000035,
      "v": 101
    },
    {
      "midi": 69,
      "hit": false,
      "t": 151270.72869791687,
      "d": 450.9060416666616,
      "v": 98
    },
    {
      "midi": 69,
      "hit": false,
      "t": 151787.62098958352,
      "d": 164.96562500001164,
      "v": 104
    },
    {
      "midi": 57,
      "hit": false,
      "t": 152032.31999999975,
      "d": 2009.8311979166756,
      "v": 102
    },
    {
      "midi": 65,
      "hit": false,
      "t": 152032.31999999975,
      "d": 2009.8311979166756,
      "v": 98
    },
    {
      "midi": 69,
      "hit": false,
      "t": 152032.31999999977,
      "d": 2100.5622916666616,
      "v": 85
    },
    {
      "midi": 65,
      "hit": false,
      "t": 152032.3199999998,
      "d": 2045.5737500000105,
      "v": 95
    },
    {
      "midi": 69,
      "hit": false,
      "t": 152032.3199999998,
      "d": 2045.5737500000105,
      "v": 100
    },
    {
      "midi": 72,
      "hit": false,
      "t": 152032.3199999998,
      "d": 2045.5737500000105,
      "v": 102
    },
    {
      "midi": 69,
      "hit": false,
      "t": 152032.3199999998,
      "d": 2056.5714583333465,
      "v": 80
    },
    {
      "midi": 57,
      "hit": false,
      "t": 152032.3199999998,
      "d": 2078.5668750000186,
      "v": 73
    },
    {
      "midi": 60,
      "hit": false,
      "t": 152032.3199999998,
      "d": 3926.1818750000093,
      "v": 82
    },
    {
      "midi": 38,
      "hit": false,
      "t": 152032.31999999992,
      "d": 2111.5599999999977,
      "v": 104
    },
    {
      "midi": 72,
      "hit": false,
      "t": 152032.31999999998,
      "d": 4179.129166666913,
      "v": 75
    },
    {
      "midi": 60,
      "hit": false,
      "t": 152032.3200000001,
      "d": 1011.7891666666546,
      "v": 97
    },
    {
      "midi": 72,
      "hit": false,
      "t": 152037.81885416675,
      "d": 3898.6876041666837,
      "v": 99
    },
    {
      "midi": 53,
      "hit": false,
      "t": 152040.56828124975,
      "d": 1990.5852083333302,
      "v": 101
    },
    {
      "midi": 84,
      "hit": false,
      "t": 152040.56828124993,
      "d": 6293.438593750005,
      "v": 67
    },
    {
      "midi": 77,
      "hit": false,
      "t": 152040.5682812502,
      "d": 241.94958333333489,
      "v": 99
    },
    {
      "midi": 76,
      "hit": false,
      "t": 152389.74552083353,
      "d": 230.95187499999884,
      "v": 100
    },
    {
      "midi": 74,
      "hit": false,
      "t": 152738.92276041687,
      "d": 269.44385416666046,
      "v": 96
    },
    {
      "midi": 67,
      "hit": false,
      "t": 152815.90671875008,
      "d": 2007.0817708333489,
      "v": 89
    },
    {
      "midi": 55,
      "hit": false,
      "t": 152818.6561458334,
      "d": 263.945000000007,
      "v": 91
    },
    {
      "midi": 65,
      "hit": false,
      "t": 153079.85171875,
      "d": 299.68755208331277,
      "v": 86
    },
    {
      "midi": 60,
      "hit": false,
      "t": 153079.85171875,
      "d": 307.9358333333221,
      "v": 80
    },
    {
      "midi": 60,
      "hit": false,
      "t": 153079.85171875008,
      "d": 310.6852604166488,
      "v": 98
    },
    {
      "midi": 72,
      "hit": false,
      "t": 153090.84942708354,
      "d": 585.6279687499919,
      "v": 98
    },
    {
      "midi": 57,
      "hit": false,
      "t": 153096.34828125,
      "d": 307.9358333333221,
      "v": 84
    },
    {
      "midi": 55,
      "hit": false,
      "t": 153360.29328125008,
      "d": 706.6027604166593,
      "v": 84
    },
    {
      "midi": 64,
      "hit": false,
      "t": 153431.77838541663,
      "d": 269.44385416666046,
      "v": 88
    },
    {
      "midi": 55,
      "hit": false,
      "t": 153431.77838541663,
      "d": 274.94270833331393,
      "v": 81
    },
    {
      "midi": 59,
      "hit": false,
      "t": 153431.77838541663,
      "d": 274.94270833331393,
      "v": 82
    },
    {
      "midi": 62,
      "hit": false,
      "t": 153783.70505208327,
      "d": 261.19557291668025,
      "v": 85
    },
    {
      "midi": 53,
      "hit": false,
      "t": 153783.70505208327,
      "d": 285.9404166666791,
      "v": 85
    },
    {
      "midi": 57,
      "hit": false,
      "t": 153791.95333333328,
      "d": 261.19557291668025,
      "v": 87
    },
    {
      "midi": 74,
      "hit": false,
      "t": 153800.20161458352,
      "d": 195.20932291666395,
      "v": 96
    },
    {
      "midi": 52,
      "hit": false,
      "t": 154135.63171874976,
      "d": 2020.8289062500116,
      "v": 103
    },
    {
      "midi": 60,
      "hit": false,
      "t": 154135.63171874976,
      "d": 2031.8266145833477,
      "v": 98
    },
    {
      "midi": 55,
      "hit": false,
      "t": 154135.63171874976,
      "d": 2048.323177083337,
      "v": 91
    },
    {
      "midi": 67,
      "hit": false,
      "t": 154135.63171874976,
      "d": 2007.0817708333198,
      "v": 86
    },
    {
      "midi": 67,
      "hit": false,
      "t": 154135.63171874982,
      "d": 2051.072604166664,
      "v": 104
    },
    {
      "midi": 40,
      "hit": false,
      "t": 154135.6317187499,
      "d": 2111.5599999999977,
      "v": 95
    },
    {
      "midi": 60,
      "hit": false,
      "t": 154135.63171875008,
      "d": 1044.782291666692,
      "v": 102
    },
    {
      "midi": 77,
      "hit": false,
      "t": 154138.38114583353,
      "d": 291.43927083333256,
      "v": 103
    },
    {
      "midi": 72,
      "hit": false,
      "t": 154149.37885416648,
      "d": 2034.5760416666744,
      "v": 97
    },
    {
      "midi": 64,
      "hit": false,
      "t": 154152.1282812498,
      "d": 2031.8266145833477,
      "v": 104
    },
    {
      "midi": 64,
      "hit": false,
      "t": 154157.6271354166,
      "d": 2089.5645833333256,
      "v": 82
    },
    {
      "midi": 55,
      "hit": false,
      "t": 154157.6271354166,
      "d": 2092.3140104166523,
      "v": 87
    },
    {
      "midi": 60,
      "hit": false,
      "t": 154163.12598958326,
      "d": 2092.3140104166523,
      "v": 84
    },
    {
      "midi": 76,
      "hit": false,
      "t": 154498.5560937502,
      "d": 280.4415624999965,
      "v": 101
    },
    {
      "midi": 74,
      "hit": false,
      "t": 154853.2321875002,
      "d": 280.4415624999965,
      "v": 103
    },
    {
      "midi": 55,
      "hit": false,
      "t": 154927.4667187501,
      "d": 277.69213541666977,
      "v": 84
    },
    {
      "midi": 67,
      "hit": false,
      "t": 154927.4667187501,
      "d": 1036.5340104166535,
      "v": 93
    },
    {
      "midi": 76,
      "hit": false,
      "t": 155172.16572916685,
      "d": 186.96104166665464,
      "v": 99
    },
    {
      "midi": 60,
      "hit": false,
      "t": 155191.4117187501,
      "d": 307.9358333333221,
      "v": 101
    },
    {
      "midi": 74,
      "hit": false,
      "t": 155356.37734375018,
      "d": 112.72651041665813,
      "v": 95
    },
    {
      "midi": 72,
      "hit": false,
      "t": 155455.35671875018,
      "d": 401.41635416666395,
      "v": 102
    },
    {
      "midi": 55,
      "hit": false,
      "t": 155471.8532812501,
      "d": 767.090156249993,
      "v": 86
    },
    {
      "midi": 69,
      "hit": false,
      "t": 155991.49500000008,
      "d": 153.9679166666756,
      "v": 93
    },
    {
      "midi": 71,
      "hit": false,
      "t": 156134.46520833342,
      "d": 153.9679166666756,
      "v": 97
    },
    {
      "midi": 45,
      "hit": false,
      "t": 156247.1917187499,
      "d": 1055.7799999999988,
      "v": 99
    },
    {
      "midi": 65,
      "hit": false,
      "t": 156255.43999999977,
      "d": 2053.8220312499907,
      "v": 95
    },
    {
      "midi": 72,
      "hit": false,
      "t": 156255.43999999977,
      "d": 2053.8220312499907,
      "v": 104
    },
    {
      "midi": 77,
      "hit": false,
      "t": 156255.43999999977,
      "d": 2053.8220312499907,
      "v": 101
    },
    {
      "midi": 65,
      "hit": false,
      "t": 156255.4399999998,
      "d": 2056.5714583333465,
      "v": 73
    },
    {
      "midi": 69,
      "hit": false,
      "t": 156255.4399999998,
      "d": 2067.5691666666826,
      "v": 78
    },
    {
      "midi": 72,
      "hit": false,
      "t": 156258.18942708345,
      "d": 258.4461458332953,
      "v": 97
    },
    {
      "midi": 65,
      "hit": false,
      "t": 156260.93885416648,
      "d": 1006.2903124999721,
      "v": 97
    },
    {
      "midi": 65,
      "hit": false,
      "t": 156263.68828124975,
      "d": 2081.3163020833454,
      "v": 83
    },
    {
      "midi": 60,
      "hit": false,
      "t": 156263.6882812498,
      "d": 973.297187499993,
      "v": 103
    },
    {
      "midi": 57,
      "hit": false,
      "t": 156263.6882812498,
      "d": 989.7937499999825,
      "v": 99
    },
    {
      "midi": 57,
      "hit": false,
      "t": 156263.68828124992,
      "d": 252.94729166667094,
      "v": 84
    },
    {
      "midi": 65,
      "hit": false,
      "t": 156263.68828124992,
      "d": 274.94270833334303,
      "v": 80
    },
    {
      "midi": 60,
      "hit": false,
      "t": 156263.68828124992,
      "d": 307.9358333333512,
      "v": 83
    },
    {
      "midi": 67,
      "hit": false,
      "t": 156511.1367187501,
      "d": 263.9449999999779,
      "v": 86
    },
    {
      "midi": 65,
      "hit": false,
      "t": 156775.08171875007,
      "d": 219.9541666666628,
      "v": 104
    },
    {
      "midi": 81,
      "hit": false,
      "t": 156791.57828125017,
      "d": 368.4232291666558,
      "v": 101
    },
    {
      "midi": 65,
      "hit": false,
      "t": 157039.02671875007,
      "d": 404.1657812499907,
      "v": 91
    },
    {
      "midi": 65,
      "hit": false,
      "t": 157297.4728645831,
      "d": 888.0649479166605,
      "v": 97
    },
    {
      "midi": 60,
      "hit": false,
      "t": 157300.22229166643,
      "d": 879.8166666666802,
      "v": 98
    },
    {
      "midi": 57,
      "hit": false,
      "t": 157300.22229166643,
      "d": 882.566093750007,
      "v": 104
    },
    {
      "midi": 81,
      "hit": false,
      "t": 157300.22229166684,
      "d": 153.9679166666756,
      "v": 97
    },
    {
      "midi": 33,
      "hit": false,
      "t": 157319.4682812499,
      "d": 527.890000000014,
      "v": 95
    },
    {
      "midi": 81,
      "hit": false,
      "t": 157547.67072916686,
      "d": 159.46677083332906,
      "v": 104
    },
    {
      "midi": 81,
      "hit": false,
      "t": 157825.36286458353,
      "d": 175.9633333333477,
      "v": 101
    },
    {
      "midi": 45,
      "hit": false,
      "t": 157847.3582812499,
      "d": 527.8899999999849,
      "v": 100
    },
    {
      "midi": 72,
      "hit": false,
      "t": 157847.35828125005,
      "d": 228.2024479166721,
      "v": 96
    },
    {
      "midi": 79,
      "hit": false,
      "t": 158053.5653125002,
      "d": 206.20703125,
      "v": 99
    },
    {
      "midi": 74,
      "hit": false,
      "t": 158094.80671875007,
      "d": 269.44385416666046,
      "v": 87
    },
    {
      "midi": 79,
      "hit": false,
      "t": 158339.50572916688,
      "d": 346.4278125000128,
      "v": 98
    },
    {
      "midi": 67,
      "hit": false,
      "t": 158356.00229166643,
      "d": 998.0420312499919,
      "v": 103
    },
    {
      "midi": 62,
      "hit": false,
      "t": 158356.00229166643,
      "d": 1011.7891666666546,
      "v": 97
    },
    {
      "midi": 59,
      "hit": false,
      "t": 158358.75171874976,
      "d": 1017.2880208333372,
      "v": 95
    },
    {
      "midi": 62,
      "hit": false,
      "t": 158358.75171874976,
      "d": 2020.8289062500116,
      "v": 99
    },
    {
      "midi": 74,
      "hit": false,
      "t": 158358.75171874976,
      "d": 2042.8243229166837,
      "v": 97
    },
    {
      "midi": 79,
      "hit": false,
      "t": 158358.75171874976,
      "d": 2042.8243229166837,
      "v": 98
    },
    {
      "midi": 62,
      "hit": false,
      "t": 158358.75171874976,
      "d": 2073.068020833336,
      "v": 79
    },
    {
      "midi": 71,
      "hit": false,
      "t": 158358.75171874982,
      "d": 1858.6127083333267,
      "v": 81
    },
    {
      "midi": 67,
      "hit": false,
      "t": 158358.75171874982,
      "d": 2045.5737499999814,
      "v": 78
    },
    {
      "midi": 23,
      "hit": false,
      "t": 158358.7517187499,
      "d": 1055.7799999999988,
      "v": 96
    },
    {
      "midi": 35,
      "hit": false,
      "t": 158358.7517187499,
      "d": 1055.7799999999988,
      "v": 102
    },
    {
      "midi": 79,
      "hit": false,
      "t": 158358.75171874993,
      "d": 2103.3117187499884,
      "v": 61
    },
    {
      "midi": 74,
      "hit": false,
      "t": 158364.25057291673,
      "d": 970.5477604166663,
      "v": 100
    },
    {
      "midi": 79,
      "hit": false,
      "t": 158892.14057291692,
      "d": 354.676093749993,
      "v": 97
    },
    {
      "midi": 76,
      "hit": false,
      "t": 158903.13828125005,
      "d": 368.4232291666558,
      "v": 112
    },
    {
      "midi": 76,
      "hit": false,
      "t": 159414.53171875005,
      "d": 415.16348958332674,
      "v": 109
    },
    {
      "midi": 79,
      "hit": false,
      "t": 159414.53171875025,
      "d": 390.4186458333279,
      "v": 97
    },
    {
      "midi": 62,
      "hit": false,
      "t": 159431.02828124978,
      "d": 945.8029166666674,
      "v": 97
    },
    {
      "midi": 23,
      "hit": false,
      "t": 159431.0282812499,
      "d": 1055.7799999999988,
      "v": 99
    },
    {
      "midi": 35,
      "hit": false,
      "t": 159431.0282812499,
      "d": 1055.7799999999988,
      "v": 101
    },
    {
      "midi": 74,
      "hit": false,
      "t": 159431.02828125007,
      "d": 841.3246874999895,
      "v": 98
    },
    {
      "midi": 59,
      "hit": false,
      "t": 159433.7777083331,
      "d": 956.8006250000035,
      "v": 102
    },
    {
      "midi": 67,
      "hit": false,
      "t": 159436.52713541643,
      "d": 967.7983333333395,
      "v": 100
    },
    {
      "midi": 76,
      "hit": false,
      "t": 159942.42171875003,
      "d": 269.44385416666046,
      "v": 115
    },
    {
      "midi": 79,
      "hit": false,
      "t": 159942.42171875027,
      "d": 261.19557291668025,
      "v": 99
    },
    {
      "midi": 74,
      "hit": false,
      "t": 160206.36671875004,
      "d": 230.95187499999884,
      "v": 111
    },
    {
      "midi": 77,
      "hit": false,
      "t": 160206.36671875027,
      "d": 214.4553125000093,
      "v": 96
    },
    {
      "midi": 48,
      "hit": false,
      "t": 160478.55999999976,
      "d": 2053.8220312499907,
      "v": 99
    },
    {
      "midi": 76,
      "hit": false,
      "t": 160478.55999999976,
      "d": 4077.400364583329,
      "v": 96
    },
    {
      "midi": 64,
      "hit": false,
      "t": 160478.55999999976,
      "d": 4088.398072916665,
      "v": 100
    },
    {
      "midi": 67,
      "hit": false,
      "t": 160478.55999999976,
      "d": 4132.388906250009,
      "v": 99
    },
    {
      "midi": 64,
      "hit": false,
      "t": 160478.55999999976,
      "d": 2111.5599999999977,
      "v": 79
    },
    {
      "midi": 55,
      "hit": false,
      "t": 160478.5599999998,
      "d": 1979.5874999999942,
      "v": 77
    },
    {
      "midi": 60,
      "hit": false,
      "t": 160478.5599999998,
      "d": 2001.5829166666663,
      "v": 73
    },
    {
      "midi": 64,
      "hit": false,
      "t": 160478.5599999998,
      "d": 4168.131458333315,
      "v": 82
    },
    {
      "midi": 36,
      "hit": false,
      "t": 160478.55999999988,
      "d": 1567.1734375000233,
      "v": 63
    },
    {
      "midi": 48,
      "hit": false,
      "t": 160478.55999999988,
      "d": 1583.670000000042,
      "v": 95
    },
    {
      "midi": 76,
      "hit": false,
      "t": 160478.5599999999,
      "d": 2067.5691666666535,
      "v": 67
    },
    {
      "midi": 60,
      "hit": false,
      "t": 160484.05885416645,
      "d": 1979.5874999999942,
      "v": 100
    },
    {
      "midi": 55,
      "hit": false,
      "t": 160486.80828124977,
      "d": 2023.5783333333384,
      "v": 96
    },
    {
      "midi": 64,
      "hit": false,
      "t": 160486.80828124977,
      "d": 2045.5737500000105,
      "v": 97
    },
    {
      "midi": 76,
      "hit": false,
      "t": 160486.80828125004,
      "d": 494.8968750000058,
      "v": 113
    },
    {
      "midi": 60,
      "hit": false,
      "t": 160486.80828125007,
      "d": 676.359062500007,
      "v": 95
    },
    {
      "midi": 64,
      "hit": false,
      "t": 160486.80828125007,
      "d": 676.359062500007,
      "v": 102
    },
    {
      "midi": 79,
      "hit": false,
      "t": 160486.80828125027,
      "d": 483.89916666666977,
      "v": 99
    },
    {
      "midi": 55,
      "hit": false,
      "t": 160508.80369791674,
      "d": 615.8716666666733,
      "v": 97
    },
    {
      "midi": 72,
      "hit": false,
      "t": 161014.69828125005,
      "d": 115.47593750001397,
      "v": 113
    },
    {
      "midi": 76,
      "hit": false,
      "t": 161014.69828125028,
      "d": 131.9725000000035,
      "v": 103
    },
    {
      "midi": 55,
      "hit": false,
      "t": 161267.64557291675,
      "d": 676.359062500007,
      "v": 89
    },
    {
      "midi": 60,
      "hit": false,
      "t": 161267.64557291675,
      "d": 676.359062500007,
      "v": 91
    },
    {
      "midi": 76,
      "hit": false,
      "t": 161275.89385416696,
      "d": 668.1107812499686,
      "v": 98
    },
    {
      "midi": 72,
      "hit": false,
      "t": 161278.64328125006,
      "d": 665.3613541666418,
      "v": 114
    },
    {
      "midi": 64,
      "hit": false,
      "t": 161278.6432812501,
      "d": 764.3407291666663,
      "v": 86
    },
    {
      "midi": 28,
      "hit": false,
      "t": 162053.9817187499,
      "d": 263.945000000007,
      "v": 60
    },
    {
      "midi": 40,
      "hit": false,
      "t": 162053.9817187499,
      "d": 263.945000000007,
      "v": 96
    },
    {
      "midi": 71,
      "hit": false,
      "t": 162053.98171875003,
      "d": 263.945000000007,
      "v": 116
    },
    {
      "midi": 74,
      "hit": false,
      "t": 162053.98171875026,
      "d": 263.945000000007,
      "v": 103
    },
    {
      "midi": 62,
      "hit": false,
      "t": 162056.73114583342,
      "d": 250.1978645833151,
      "v": 100
    },
    {
      "midi": 59,
      "hit": false,
      "t": 162059.48057291674,
      "d": 241.94958333333489,
      "v": 100
    },
    {
      "midi": 43,
      "hit": false,
      "t": 162317.92671874992,
      "d": 263.945000000007,
      "v": 99
    },
    {
      "midi": 31,
      "hit": false,
      "t": 162317.92671874992,
      "d": 277.69213541666977,
      "v": 62
    },
    {
      "midi": 72,
      "hit": false,
      "t": 162317.92671875004,
      "d": 258.4461458333244,
      "v": 118
    },
    {
      "midi": 67,
      "hit": false,
      "t": 162317.92671875007,
      "d": 285.9404166666791,
      "v": 93
    },
    {
      "midi": 76,
      "hit": false,
      "t": 162317.92671875027,
      "d": 266.6944270833337,
      "v": 98
    },
    {
      "midi": 45,
      "hit": false,
      "t": 162581.87171874975,
      "d": 2009.8311979166756,
      "v": 100
    },
    {
      "midi": 57,
      "hit": false,
      "t": 162581.87171874978,
      "d": 1963.0909375000047,
      "v": 79
    },
    {
      "midi": 60,
      "hit": false,
      "t": 162581.87171874978,
      "d": 1963.0909375000047,
      "v": 75
    },
    {
      "midi": 72,
      "hit": false,
      "t": 162581.8717187499,
      "d": 2070.3185937500093,
      "v": 60
    },
    {
      "midi": 33,
      "hit": false,
      "t": 162581.87171874993,
      "d": 1022.7868749999907,
      "v": 57
    },
    {
      "midi": 45,
      "hit": false,
      "t": 162581.87171874993,
      "d": 1055.7799999999988,
      "v": 97
    },
    {
      "midi": 64,
      "hit": false,
      "t": 162581.87171875007,
      "d": 756.0924479166861,
      "v": 104
    },
    {
      "midi": 60,
      "hit": false,
      "t": 162595.61885416645,
      "d": 2045.5737500000105,
      "v": 99
    },
    {
      "midi": 57,
      "hit": false,
      "t": 162598.36828124977,
      "d": 2023.5783333333384,
      "v": 97
    },
    {
      "midi": 64,
      "hit": false,
      "t": 162598.36828124977,
      "d": 2048.323177083337,
      "v": 95
    },
    {
      "midi": 57,
      "hit": false,
      "t": 162598.36828124977,
      "d": 1957.592083333322,
      "v": 77
    },
    {
      "midi": 57,
      "hit": false,
      "t": 163373.7067187501,
      "d": 208.95645833332674,
      "v": 89
    },
    {
      "midi": 76,
      "hit": false,
      "t": 163387.45385416693,
      "d": 156.71734375000233,
      "v": 95
    },
    {
      "midi": 72,
      "hit": false,
      "t": 163390.20328125003,
      "d": 153.9679166666756,
      "v": 118
    },
    {
      "midi": 33,
      "hit": false,
      "t": 163637.65171874993,
      "d": 500.3957291666593,
      "v": 60
    },
    {
      "midi": 45,
      "hit": false,
      "t": 163637.65171874993,
      "d": 527.8899999999849,
      "v": 104
    },
    {
      "midi": 72,
      "hit": false,
      "t": 163637.65171875004,
      "d": 272.1932812500163,
      "v": 110
    },
    {
      "midi": 76,
      "hit": false,
      "t": 163637.65171875028,
      "d": 285.9404166666791,
      "v": 96
    },
    {
      "midi": 57,
      "hit": false,
      "t": 163640.40114583343,
      "d": 415.16348958332674,
      "v": 98
    },
    {
      "midi": 74,
      "hit": false,
      "t": 163901.59671875005,
      "d": 285.9404166666791,
      "v": 117
    },
    {
      "midi": 77,
      "hit": false,
      "t": 163901.59671875028,
      "d": 307.9358333333512,
      "v": 102
    },
    {
      "midi": 21,
      "hit": false,
      "t": 164165.5417187499,
      "d": 456.4048958333442,
      "v": 58
    },
    {
      "midi": 33,
      "hit": false,
      "t": 164165.5417187499,
      "d": 527.890000000014,
      "v": 101
    },
    {
      "midi": 76,
      "hit": false,
      "t": 164165.54171875006,
      "d": 472.9014583333337,
      "v": 109
    },
    {
      "midi": 57,
      "hit": false,
      "t": 164165.5417187501,
      "d": 494.8968750000058,
      "v": 103
    },
    {
      "midi": 64,
      "hit": false,
      "t": 164165.5417187501,
      "d": 503.14515625001513,
      "v": 100
    },
    {
      "midi": 79,
      "hit": false,
      "t": 164165.5417187503,
      "d": 467.40260416668025,
      "v": 97
    },
    {
      "midi": 60,
      "hit": false,
      "t": 164701.67999999976,
      "d": 2020.8289062500116,
      "v": 97
    },
    {
      "midi": 43,
      "hit": false,
      "t": 164701.67999999976,
      "d": 2031.8266145833477,
      "v": 98
    },
    {
      "midi": 62,
      "hit": false,
      "t": 164701.67999999976,
      "d": 3065.6111979167035,
      "v": 98
    },
    {
      "midi": 67,
      "hit": false,
      "t": 164701.67999999976,
      "d": 3087.6066145833756,
      "v": 97
    },
    {
      "midi": 60,
      "hit": false,
      "t": 164701.67999999976,
      "d": 2122.5577083333337,
      "v": 84
    },
    {
      "midi": 60,
      "hit": false,
      "t": 164701.6799999998,
      "d": 2095.063437500008,
      "v": 95
    },
    {
      "midi": 67,
      "hit": false,
      "t": 164701.6799999998,
      "d": 3084.8571874999907,
      "v": 104
    },
    {
      "midi": 62,
      "hit": false,
      "t": 164701.6799999998,
      "d": 3112.3514583333163,
      "v": 96
    },
    {
      "midi": 60,
      "hit": false,
      "t": 164701.6799999998,
      "d": 2111.5599999999977,
      "v": 73
    },
    {
      "midi": 62,
      "hit": false,
      "t": 164701.6799999998,
      "d": 3079.358333333337,
      "v": 74
    },
    {
      "midi": 55,
      "hit": false,
      "t": 164701.6799999998,
      "d": 4146.136041666672,
      "v": 73
    },
    {
      "midi": 31,
      "hit": false,
      "t": 164701.67999999993,
      "d": 1506.6860416666605,
      "v": 59
    },
    {
      "midi": 43,
      "hit": false,
      "t": 164701.67999999993,
      "d": 1553.4263020833314,
      "v": 104
    },
    {
      "midi": 76,
      "hit": false,
      "t": 164701.68000000005,
      "d": 527.890000000014,
      "v": 112
    },
    {
      "midi": 60,
      "hit": false,
      "t": 164701.6800000001,
      "d": 516.8922916666779,
      "v": 95
    },
    {
      "midi": 55,
      "hit": false,
      "t": 164701.6800000001,
      "d": 2598.208593749994,
      "v": 101
    },
    {
      "midi": 81,
      "hit": false,
      "t": 164701.6800000003,
      "d": 516.8922916666488,
      "v": 95
    },
    {
      "midi": 72,
      "hit": false,
      "t": 164709.92828124992,
      "d": 2056.5714583333465,
      "v": 68
    },
    {
      "midi": 74,
      "hit": false,
      "t": 165221.32171875006,
      "d": 131.9725000000035,
      "v": 117
    },
    {
      "midi": 60,
      "hit": false,
      "t": 165221.3217187501,
      "d": 230.95187499999884,
      "v": 99
    },
    {
      "midi": 79,
      "hit": false,
      "t": 165221.3217187503,
      "d": 120.97479166666744,
      "v": 96
    },
    {
      "midi": 74,
      "hit": false,
      "t": 165485.26671875006,
      "d": 739.5958854166674,
      "v": 114
    },
    {
      "midi": 60,
      "hit": false,
      "t": 165485.26671875012,
      "d": 789.0855729166651,
      "v": 88
    },
    {
      "midi": 79,
      "hit": false,
      "t": 165485.2667187503,
      "d": 742.3453124999942,
      "v": 102
    },
    {
      "midi": 31,
      "hit": false,
      "t": 166277.10171874994,
      "d": 459.15432291667094,
      "v": 64
    },
    {
      "midi": 43,
      "hit": false,
      "t": 166277.10171874994,
      "d": 527.890000000014,
      "v": 96
    },
    {
      "midi": 59,
      "hit": false,
      "t": 166277.1017187501,
      "d": 294.1886979166593,
      "v": 103
    },
    {
      "midi": 74,
      "hit": false,
      "t": 166293.59828125007,
      "d": 241.94958333333489,
      "v": 115
    },
    {
      "midi": 79,
      "hit": false,
      "t": 166293.59828125028,
      "d": 241.94958333333489,
      "v": 99
    },
    {
      "midi": 76,
      "hit": false,
      "t": 166541.04671875006,
      "d": 167.71505208330927,
      "v": 116
    },
    {
      "midi": 60,
      "hit": false,
      "t": 166541.04671875012,
      "d": 285.94041666665,
      "v": 91
    },
    {
      "midi": 81,
      "hit": false,
      "t": 166549.29500000027,
      "d": 170.46447916666511,
      "v": 96
    },
    {
      "midi": 43,
      "hit": false,
      "t": 166793.99401041644,
      "d": 998.042031250021,
      "v": 102
    },
    {
      "midi": 59,
      "hit": false,
      "t": 166799.49286458312,
      "d": 973.297187499993,
      "v": 98
    },
    {
      "midi": 59,
      "hit": false,
      "t": 166802.24229166645,
      "d": 998.042031250021,
      "v": 99
    },
    {
      "midi": 59,
      "hit": false,
      "t": 166804.99171874975,
      "d": 442.6577604166814,
      "v": 81
    },
    {
      "midi": 59,
      "hit": false,
      "t": 166804.99171874978,
      "d": 1033.7845833333558,
      "v": 75
    },
    {
      "midi": 71,
      "hit": false,
      "t": 166804.99171874992,
      "d": 1055.7799999999988,
      "v": 68
    },
    {
      "midi": 31,
      "hit": false,
      "t": 166804.99171874995,
      "d": 989.7937500000116,
      "v": 62
    },
    {
      "midi": 43,
      "hit": false,
      "t": 166804.99171874995,
      "d": 1055.7799999999988,
      "v": 100
    },
    {
      "midi": 59,
      "hit": false,
      "t": 166804.9917187501,
      "d": 753.3430208333593,
      "v": 104
    },
    {
      "midi": 59,
      "hit": false,
      "t": 167332.88171874976,
      "d": 527.890000000014,
      "v": 77
    },
    {
      "midi": 76,
      "hit": false,
      "t": 167332.88171875005,
      "d": 472.9014583333337,
      "v": 111
    },
    {
      "midi": 55,
      "hit": false,
      "t": 167332.8817187501,
      "d": 563.6325520833489,
      "v": 103
    },
    {
      "midi": 79,
      "hit": false,
      "t": 167332.8817187503,
      "d": 450.9060416666616,
      "v": 102
    },
    {
      "midi": 62,
      "hit": false,
      "t": 167599.57614583345,
      "d": 261.19557291668025,
      "v": 91
    },
    {
      "midi": 72,
      "hit": false,
      "t": 167855.2728645831,
      "d": 973.297187499993,
      "v": 101
    },
    {
      "midi": 67,
      "hit": false,
      "t": 167855.2728645831,
      "d": 989.7937499999825,
      "v": 97
    },
    {
      "midi": 64,
      "hit": false,
      "t": 167855.2728645831,
      "d": 1022.7868749999907,
      "v": 97
    },
    {
      "midi": 60,
      "hit": false,
      "t": 167858.02229166648,
      "d": 998.0420312499919,
      "v": 99
    },
    {
      "midi": 64,
      "hit": false,
      "t": 167860.77171874978,
      "d": 508.6440104166686,
      "v": 83
    },
    {
      "midi": 52,
      "hit": false,
      "t": 167860.7717187498,
      "d": 998.0420312499919,
      "v": 102
    },
    {
      "midi": 55,
      "hit": false,
      "t": 167860.7717187498,
      "d": 998.0420312499919,
      "v": 102
    },
    {
      "midi": 60,
      "hit": false,
      "t": 167860.7717187498,
      "d": 1033.7845833333267,
      "v": 75
    },
    {
      "midi": 64,
      "hit": false,
      "t": 167860.7717187498,
      "d": 1033.7845833333267,
      "v": 75
    },
    {
      "midi": 28,
      "hit": false,
      "t": 167860.77171874995,
      "d": 956.8006250000035,
      "v": 56
    },
    {
      "midi": 40,
      "hit": false,
      "t": 167860.77171874995,
      "d": 1055.7799999999988,
      "v": 95
    },
    {
      "midi": 79,
      "hit": false,
      "t": 167860.77171875007,
      "d": 428.9106250000186,
      "v": 112
    },
    {
      "midi": 64,
      "hit": false,
      "t": 167860.77171875013,
      "d": 516.8922916666488,
      "v": 104
    },
    {
      "midi": 84,
      "hit": false,
      "t": 167860.77171875027,
      "d": 409.66463541664416,
      "v": 101
    },
    {
      "midi": 72,
      "hit": false,
      "t": 167871.76942708326,
      "d": 1055.7799999999988,
      "v": 68
    },
    {
      "midi": 67,
      "hit": false,
      "t": 167874.5188541668,
      "d": 472.9014583333337,
      "v": 101
    },
    {
      "midi": 60,
      "hit": false,
      "t": 168388.6617187498,
      "d": 494.8968750000058,
      "v": 80
    },
    {
      "midi": 76,
      "hit": false,
      "t": 168388.66171875008,
      "d": 450.9060416666616,
      "v": 109
    },
    {
      "midi": 60,
      "hit": false,
      "t": 168388.6617187501,
      "d": 450.9060416666616,
      "v": 97
    },
    {
      "midi": 55,
      "hit": false,
      "t": 168388.6617187501,
      "d": 459.15432291667094,
      "v": 100
    },
    {
      "midi": 79,
      "hit": false,
      "t": 168388.66171875023,
      "d": 428.9106249999895,
      "v": 101
    },
    {
      "midi": 57,
      "hit": false,
      "t": 168924.79999999976,
      "d": 1539.6791666666686,
      "v": 100
    },
    {
      "midi": 65,
      "hit": false,
      "t": 168924.79999999976,
      "d": 2012.5806250000023,
      "v": 99
    },
    {
      "midi": 60,
      "hit": false,
      "t": 168924.79999999976,
      "d": 2045.5737500000105,
      "v": 98
    },
    {
      "midi": 41,
      "hit": false,
      "t": 168924.79999999978,
      "d": 2097.812864583335,
      "v": 103
    },
    {
      "midi": 65,
      "hit": false,
      "t": 168924.79999999978,
      "d": 4055.404947916657,
      "v": 99
    },
    {
      "midi": 69,
      "hit": false,
      "t": 168924.79999999978,
      "d": 4077.400364583329,
      "v": 103
    },
    {
      "midi": 60,
      "hit": false,
      "t": 168924.79999999978,
      "d": 4088.398072916665,
      "v": 96
    },
    {
      "midi": 53,
      "hit": false,
      "t": 168924.79999999978,
      "d": 4190.126874999987,
      "v": 76
    },
    {
      "midi": 60,
      "hit": false,
      "t": 168924.79999999978,
      "d": 4209.372864583333,
      "v": 73
    },
    {
      "midi": 57,
      "hit": false,
      "t": 168924.79999999978,
      "d": 4217.621145833342,
      "v": 74
    },
    {
      "midi": 65,
      "hit": false,
      "t": 168924.79999999978,
      "d": 2045.5737500000105,
      "v": 77
    },
    {
      "midi": 41,
      "hit": false,
      "t": 168924.79999999996,
      "d": 1553.4263020833314,
      "v": 99
    },
    {
      "midi": 29,
      "hit": false,
      "t": 168924.79999999996,
      "d": 1564.4240104166674,
      "v": 64
    },
    {
      "midi": 72,
      "hit": false,
      "t": 168924.80000000008,
      "d": 351.9266666666663,
      "v": 116
    },
    {
      "midi": 60,
      "hit": false,
      "t": 168924.8000000001,
      "d": 1561.6745833333407,
      "v": 104
    },
    {
      "midi": 77,
      "hit": false,
      "t": 168924.80000000022,
      "d": 351.9266666666663,
      "v": 102
    },
    {
      "midi": 72,
      "hit": false,
      "t": 169444.44171875008,
      "d": 329.9312499999942,
      "v": 113
    },
    {
      "midi": 76,
      "hit": false,
      "t": 169444.44171875023,
      "d": 373.9220833333384,
      "v": 98
    },
    {
      "midi": 72,
      "hit": false,
      "t": 169972.33171875007,
      "d": 274.94270833334303,
      "v": 112
    },
    {
      "midi": 76,
      "hit": false,
      "t": 169972.33171875024,
      "d": 274.94270833334303,
      "v": 97
    },
    {
      "midi": 57,
      "hit": false,
      "t": 170497.47229166643,
      "d": 450.9060416666616,
      "v": 99
    },
    {
      "midi": 29,
      "hit": false,
      "t": 170500.22171874996,
      "d": 481.14973958334303,
      "v": 61
    },
    {
      "midi": 41,
      "hit": false,
      "t": 170500.22171874996,
      "d": 527.890000000014,
      "v": 98
    },
    {
      "midi": 72,
      "hit": false,
      "t": 170500.22171875008,
      "d": 134.72192708333023,
      "v": 113
    },
    {
      "midi": 57,
      "hit": false,
      "t": 170500.2217187501,
      "d": 222.70359374998952,
      "v": 98
    },
    {
      "midi": 76,
      "hit": false,
      "t": 170500.22171875025,
      "d": 164.96562500001164,
      "v": 101
    },
    {
      "midi": 59,
      "hit": false,
      "t": 170764.1667187501,
      "d": 263.945000000007,
      "v": 90
    },
    {
      "midi": 72,
      "hit": false,
      "t": 170764.1667187501,
      "d": 384.9197916666453,
      "v": 116
    },
    {
      "midi": 76,
      "hit": false,
      "t": 170764.16671875026,
      "d": 406.9152083333465,
      "v": 103
    },
    {
      "midi": 65,
      "hit": false,
      "t": 171022.6128645831,
      "d": 1091.5225520833046,
      "v": 102
    },
    {
      "midi": 60,
      "hit": false,
      "t": 171022.6128645831,
      "d": 1094.2719791666314,
      "v": 104
    },
    {
      "midi": 57,
      "hit": false,
      "t": 171028.11171874974,
      "d": 1930.0978124999674,
      "v": 102
    },
    {
      "midi": 45,
      "hit": false,
      "t": 171028.11171874977,
      "d": 1976.8380729166674,
      "v": 96
    },
    {
      "midi": 60,
      "hit": false,
      "t": 171028.1117187498,
      "d": 2026.3277604166651,
      "v": 82
    },
    {
      "midi": 33,
      "hit": false,
      "t": 171028.11171874998,
      "d": 1047.5317187499895,
      "v": 57
    },
    {
      "midi": 45,
      "hit": false,
      "t": 171028.11171874998,
      "d": 1055.7799999999988,
      "v": 102
    },
    {
      "midi": 60,
      "hit": false,
      "t": 171028.1117187501,
      "d": 1685.3988020833349,
      "v": 103
    },
    {
      "midi": 71,
      "hit": false,
      "t": 171176.58078125006,
      "d": 197.9587500000198,
      "v": 109
    },
    {
      "midi": 74,
      "hit": false,
      "t": 171176.58078125026,
      "d": 181.46218749997206,
      "v": 101
    },
    {
      "midi": 69,
      "hit": false,
      "t": 171292.05671875007,
      "d": 197.9587500000198,
      "v": 116
    },
    {
      "midi": 72,
      "hit": false,
      "t": 171292.05671875025,
      "d": 241.94958333333489,
      "v": 95
    },
    {
      "midi": 33,
      "hit": false,
      "t": 172083.89171874998,
      "d": 910.0603645833326,
      "v": 64
    },
    {
      "midi": 45,
      "hit": false,
      "t": 172083.89171874998,
      "d": 1044.7822916666628,
      "v": 95
    },
    {
      "midi": 72,
      "hit": false,
      "t": 172086.6411458336,
      "d": 252.94729166667094,
      "v": 100
    },
    {
      "midi": 69,
      "hit": false,
      "t": 172089.3905729164,
      "d": 247.44843749998836,
      "v": 96
    },
    {
      "midi": 69,
      "hit": false,
      "t": 172089.39057291675,
      "d": 285.94041666665,
      "v": 113
    },
    {
      "midi": 69,
      "hit": false,
      "t": 172100.38828125008,
      "d": 228.2024479166721,
      "v": 95
    },
    {
      "midi": 71,
      "hit": false,
      "t": 172347.83671875007,
      "d": 239.20015624997905,
      "v": 115
    },
    {
      "midi": 71,
      "hit": false,
      "t": 172347.8367187501,
      "d": 241.94958333333489,
      "v": 93
    },
    {
      "midi": 74,
      "hit": false,
      "t": 172347.83671875027,
      "d": 263.945000000007,
      "v": 100
    },
    {
      "midi": 71,
      "hit": false,
      "t": 172361.58385416638,
      "d": 233.70130208332557,
      "v": 100
    },
    {
      "midi": 72,
      "hit": false,
      "t": 172611.78171875005,
      "d": 266.6944270833337,
      "v": 118
    },
    {
      "midi": 76,
      "hit": false,
      "t": 172611.78171875028,
      "d": 277.69213541666977,
      "v": 103
    },
    {
      "midi": 72,
      "hit": false,
      "t": 172622.77942708303,
      "d": 472.9014583333337,
      "v": 99
    },
    {
      "midi": 72,
      "hit": false,
      "t": 172622.77942708344,
      "d": 472.9014583333337,
      "v": 97
    },
    {
      "midi": 72,
      "hit": false,
      "t": 173147.9199999997,
      "d": 1055.7799999999988,
      "v": 104
    },
    {
      "midi": 62,
      "hit": false,
      "t": 173147.9199999997,
      "d": 1996.0840625000128,
      "v": 102
    },
    {
      "midi": 67,
      "hit": false,
      "t": 173147.9199999997,
      "d": 2029.0771874999919,
      "v": 100
    },
    {
      "midi": 60,
      "hit": false,
      "t": 173147.91999999978,
      "d": 998.0420312499919,
      "v": 98
    },
    {
      "midi": 43,
      "hit": false,
      "t": 173147.91999999978,
      "d": 2042.8243229166546,
      "v": 99
    },
    {
      "midi": 67,
      "hit": false,
      "t": 173147.91999999978,
      "d": 2084.065729166643,
      "v": 99
    },
    {
      "midi": 69,
      "hit": false,
      "t": 173147.91999999978,
      "d": 1000.7914583333186,
      "v": 79
    },
    {
      "midi": 55,
      "hit": false,
      "t": 173147.91999999978,
      "d": 1011.7891666666546,
      "v": 75
    },
    {
      "midi": 62,
      "hit": false,
      "t": 173147.9199999998,
      "d": 2067.5691666666535,
      "v": 77
    },
    {
      "midi": 43,
      "hit": false,
      "t": 173147.91999999998,
      "d": 1553.4263020833314,
      "v": 101
    },
    {
      "midi": 31,
      "hit": false,
      "t": 173147.91999999998,
      "d": 1564.4240104166674,
      "v": 63
    },
    {
      "midi": 76,
      "hit": false,
      "t": 173147.92000000004,
      "d": 470.152031250007,
      "v": 113
    },
    {
      "midi": 81,
      "hit": false,
      "t": 173147.92000000027,
      "d": 456.4048958333442,
      "v": 101
    },
    {
      "midi": 62,
      "hit": false,
      "t": 173153.41885416643,
      "d": 978.7960416666756,
      "v": 75
    },
    {
      "midi": 67,
      "hit": false,
      "t": 173156.1682812501,
      "d": 981.5454687500023,
      "v": 99
    },
    {
      "midi": 72,
      "hit": false,
      "t": 173156.1682812501,
      "d": 1014.5385937500105,
      "v": 96
    },
    {
      "midi": 62,
      "hit": false,
      "t": 173156.1682812501,
      "d": 2067.5691666666826,
      "v": 96
    },
    {
      "midi": 74,
      "hit": false,
      "t": 173667.56171875005,
      "d": 1371.9641145833011,
      "v": 116
    },
    {
      "midi": 79,
      "hit": false,
      "t": 173667.56171875028,
      "d": 1341.7204166666488,
      "v": 96
    },
    {
      "midi": 59,
      "hit": false,
      "t": 174195.45171874977,
      "d": 970.5477604166663,
      "v": 100
    },
    {
      "midi": 55,
      "hit": false,
      "t": 174195.45171874977,
      "d": 965.0489062500128,
      "v": 73
    },
    {
      "midi": 67,
      "hit": false,
      "t": 174195.45171874977,
      "d": 965.0489062500128,
      "v": 80
    },
    {
      "midi": 59,
      "hit": false,
      "t": 174195.45171874977,
      "d": 995.2926041666651,
      "v": 76
    },
    {
      "midi": 71,
      "hit": false,
      "t": 174211.9482812497,
      "d": 934.8052083333314,
      "v": 99
    },
    {
      "midi": 67,
      "hit": false,
      "t": 174211.9482812501,
      "d": 967.7983333333395,
      "v": 96
    },
    {
      "midi": 71,
      "hit": false,
      "t": 174211.9482812501,
      "d": 967.7983333333395,
      "v": 98
    },
    {
      "midi": 59,
      "hit": false,
      "t": 174217.4471354166,
      "d": 153.9679166666756,
      "v": 64
    },
    {
      "midi": 60,
      "hit": false,
      "t": 174349.4196354166,
      "d": 131.9725000000035,
      "v": 68
    },
    {
      "midi": 62,
      "hit": false,
      "t": 174470.39442708326,
      "d": 153.9679166666756,
      "v": 60
    },
    {
      "midi": 64,
      "hit": false,
      "t": 174602.36692708326,
      "d": 131.9725000000035,
      "v": 60
    },
    {
      "midi": 31,
      "hit": false,
      "t": 174723.34171875,
      "d": 417.9129166666535,
      "v": 58
    },
    {
      "midi": 43,
      "hit": false,
      "t": 174723.34171875,
      "d": 527.8899999999849,
      "v": 97
    },
    {
      "midi": 65,
      "hit": false,
      "t": 174734.33942708327,
      "d": 153.9679166666756,
      "v": 64
    },
    {
      "midi": 67,
      "hit": false,
      "t": 174866.31192708327,
      "d": 131.9725000000035,
      "v": 69
    },
    {
      "midi": 69,
      "hit": false,
      "t": 174987.28671874994,
      "d": 153.9679166666756,
      "v": 61
    },
    {
      "midi": 71,
      "hit": false,
      "t": 175119.25921874994,
      "d": 131.9725000000035,
      "v": 65
    },
    {
      "midi": 65,
      "hit": false,
      "t": 175251.23171874968,
      "d": 970.5477604166663,
      "v": 96
    },
    {
      "midi": 60,
      "hit": false,
      "t": 175251.23171874968,
      "d": 987.0443229166558,
      "v": 96
    },
    {
      "midi": 45,
      "hit": false,
      "t": 175251.23171874977,
      "d": 987.0443229166849,
      "v": 98
    },
    {
      "midi": 65,
      "hit": false,
      "t": 175251.23171874977,
      "d": 998.042031250021,
      "v": 98
    },
    {
      "midi": 69,
      "hit": false,
      "t": 175251.23171874977,
      "d": 1014.5385937500105,
      "v": 96
    },
    {
      "midi": 60,
      "hit": false,
      "t": 175251.23171874977,
      "d": 945.8029166666674,
      "v": 77
    },
    {
      "midi": 53,
      "hit": false,
      "t": 175251.23171874977,
      "d": 956.8006250000035,
      "v": 78
    },
    {
      "midi": 65,
      "hit": false,
      "t": 175251.23171874977,
      "d": 973.297187499993,
      "v": 79
    },
    {
      "midi": 65,
      "hit": false,
      "t": 175251.2317187498,
      "d": 1033.7845833333267,
      "v": 77
    },
    {
      "midi": 33,
      "hit": false,
      "t": 175251.23171874997,
      "d": 1031.03515625,
      "v": 55
    },
    {
      "midi": 45,
      "hit": false,
      "t": 175251.23171874997,
      "d": 1055.7799999999988,
      "v": 103
    },
    {
      "midi": 57,
      "hit": false,
      "t": 175256.73057291633,
      "d": 970.5477604166663,
      "v": 103
    },
    {
      "midi": 60,
      "hit": false,
      "t": 175259.47999999978,
      "d": 987.0443229166849,
      "v": 103
    },
    {
      "midi": 72,
      "hit": false,
      "t": 175262.22942708328,
      "d": 1066.7777083333349,
      "v": 61
    },
    {
      "midi": 72,
      "hit": false,
      "t": 175262.22942708345,
      "d": 989.7937499999825,
      "v": 101
    },
    {
      "midi": 65,
      "hit": false,
      "t": 175267.7282812501,
      "d": 1000.7914583333186,
      "v": 104
    },
    {
      "midi": 69,
      "hit": false,
      "t": 175267.7282812501,
      "d": 1000.7914583333186,
      "v": 97
    },
    {
      "midi": 79,
      "hit": false,
      "t": 175784.6205729169,
      "d": 362.9243750000023,
      "v": 98
    },
    {
      "midi": 76,
      "hit": false,
      "t": 175790.11942708332,
      "d": 349.17723958333954,
      "v": 113
    },
    {
      "midi": 74,
      "hit": false,
      "t": 176301.5128645833,
      "d": 1055.7799999999988,
      "v": 61
    },
    {
      "midi": 55,
      "hit": false,
      "t": 176304.26229166644,
      "d": 943.0534895833116,
      "v": 95
    },
    {
      "midi": 55,
      "hit": false,
      "t": 176304.26229166644,
      "d": 901.8120833333232,
      "v": 74
    },
    {
      "midi": 71,
      "hit": false,
      "t": 176307.01171874977,
      "d": 954.0511979166477,
      "v": 97
    },
    {
      "midi": 47,
      "hit": false,
      "t": 176307.01171874977,
      "d": 976.0466145833198,
      "v": 104
    },
    {
      "midi": 67,
      "hit": false,
      "t": 176307.01171874977,
      "d": 910.0603645833326,
      "v": 79
    },
    {
      "midi": 35,
      "hit": false,
      "t": 176307.01171874997,
      "d": 893.563802083343,
      "v": 63
    },
    {
      "midi": 47,
      "hit": false,
      "t": 176307.01171874997,
      "d": 1044.7822916666628,
      "v": 97
    },
    {
      "midi": 84,
      "hit": false,
      "t": 176309.76114583356,
      "d": 409.66463541667326,
      "v": 96
    },
    {
      "midi": 62,
      "hit": false,
      "t": 176312.51057291642,
      "d": 934.8052083333314,
      "v": 80
    },
    {
      "midi": 79,
      "hit": false,
      "t": 176318.00942708334,
      "d": 395.9175000000105,
      "v": 117
    },
    {
      "midi": 67,
      "hit": false,
      "t": 176320.75885416643,
      "d": 954.0511979166477,
      "v": 101
    },
    {
      "midi": 67,
      "hit": false,
      "t": 176323.50828124967,
      "d": 918.3086458333419,
      "v": 99
    },
    {
      "midi": 62,
      "hit": false,
      "t": 176323.50828124967,
      "d": 929.3063541666779,
      "v": 103
    },
    {
      "midi": 59,
      "hit": false,
      "t": 176323.50828124967,
      "d": 937.5546354166872,
      "v": 103
    },
    {
      "midi": 62,
      "hit": false,
      "t": 176323.5082812498,
      "d": 1000.7914583333477,
      "v": 79
    },
    {
      "midi": 62,
      "hit": false,
      "t": 176323.5082812501,
      "d": 923.8074999999953,
      "v": 96
    },
    {
      "midi": 74,
      "hit": false,
      "t": 176323.5082812501,
      "d": 967.7983333333395,
      "v": 97
    },
    {
      "midi": 84,
      "hit": false,
      "t": 176834.90171875022,
      "d": 373.9220833333384,
      "v": 102
    },
    {
      "midi": 77,
      "hit": false,
      "t": 176848.6488541667,
      "d": 156.71734375000233,
      "v": 109
    },
    {
      "midi": 79,
      "hit": false,
      "t": 176983.37078125004,
      "d": 329.9312499999942,
      "v": 112
    },
    {
      "midi": 67,
      "hit": false,
      "t": 177371.03999999975,
      "d": 2064.8197395833267,
      "v": 100
    },
    {
      "midi": 64,
      "hit": false,
      "t": 177371.03999999975,
      "d": 4088.398072916665,
      "v": 100
    },
    {
      "midi": 60,
      "hit": false,
      "t": 177371.03999999975,
      "d": 4099.395781250001,
      "v": 96
    },
    {
      "midi": 52,
      "hit": false,
      "t": 177371.03999999975,
      "d": 2056.5714583333465,
      "v": 78
    },
    {
      "midi": 55,
      "hit": false,
      "t": 177371.03999999975,
      "d": 2056.5714583333465,
      "v": 80
    },
    {
      "midi": 60,
      "hit": false,
      "t": 177371.03999999975,
      "d": 2056.5714583333465,
      "v": 76
    },
    {
      "midi": 76,
      "hit": false,
      "t": 177371.03999999995,
      "d": 1055.7799999999988,
      "v": 65
    },
    {
      "midi": 36,
      "hit": false,
      "t": 177371.03999999998,
      "d": 1567.1734374999942,
      "v": 63
    },
    {
      "midi": 48,
      "hit": false,
      "t": 177371.03999999998,
      "d": 1583.6700000000128,
      "v": 100
    },
    {
      "midi": 77,
      "hit": false,
      "t": 177371.0400000002,
      "d": 263.945000000007,
      "v": 97
    },
    {
      "midi": 74,
      "hit": false,
      "t": 177376.5388541667,
      "d": 269.44385416668956,
      "v": 114
    },
    {
      "midi": 64,
      "hit": false,
      "t": 177379.2882812498,
      "d": 2009.8311979166756,
      "v": 77
    },
    {
      "midi": 64,
      "hit": false,
      "t": 177384.78713541635,
      "d": 1517.6837499999965,
      "v": 98
    },
    {
      "midi": 60,
      "hit": false,
      "t": 177384.78713541635,
      "d": 1528.6814583333326,
      "v": 95
    },
    {
      "midi": 67,
      "hit": false,
      "t": 177384.78713541635,
      "d": 1528.6814583333326,
      "v": 95
    },
    {
      "midi": 76,
      "hit": false,
      "t": 177626.7367187502,
      "d": 208.95645833335584,
      "v": 103
    },
    {
      "midi": 72,
      "hit": false,
      "t": 177637.73442708337,
      "d": 164.96562500001164,
      "v": 110
    },
    {
      "midi": 76,
      "hit": false,
      "t": 177904.4288541669,
      "d": 112.72651041665813,
      "v": 100
    },
    {
      "midi": 72,
      "hit": false,
      "t": 177907.17828125006,
      "d": 131.9725000000035,
      "v": 111
    },
    {
      "midi": 76,
      "hit": false,
      "t": 178168.3738541669,
      "d": 739.5958854166383,
      "v": 100
    },
    {
      "midi": 72,
      "hit": false,
      "t": 178171.12328125007,
      "d": 712.1016145833128,
      "v": 115
    },
    {
      "midi": 79,
      "hit": false,
      "t": 178418.57171874994,
      "d": 2823.661614583718,
      "v": 67
    },
    {
      "midi": 62,
      "hit": false,
      "t": 178940.962864583,
      "d": 211.70588541665347,
      "v": 97
    },
    {
      "midi": 67,
      "hit": false,
      "t": 178943.71229166634,
      "d": 206.20703125,
      "v": 103
    },
    {
      "midi": 71,
      "hit": false,
      "t": 178946.46171874966,
      "d": 206.20703125,
      "v": 103
    },
    {
      "midi": 28,
      "hit": false,
      "t": 178946.46171874998,
      "d": 263.945000000007,
      "v": 64
    },
    {
      "midi": 40,
      "hit": false,
      "t": 178946.46171874998,
      "d": 263.945000000007,
      "v": 97
    },
    {
      "midi": 71,
      "hit": false,
      "t": 178946.46171875004,
      "d": 142.97020833333954,
      "v": 110
    },
    {
      "midi": 71,
      "hit": false,
      "t": 178946.4617187501,
      "d": 272.1932812500163,
      "v": 99
    },
    {
      "midi": 74,
      "hit": false,
      "t": 178946.4617187502,
      "d": 131.9725000000035,
      "v": 97
    },
    {
      "midi": 43,
      "hit": false,
      "t": 179210.40671875,
      "d": 263.945000000007,
      "v": 103
    },
    {
      "midi": 31,
      "hit": false,
      "t": 179210.40671875,
      "d": 277.69213541666977,
      "v": 58
    },
    {
      "midi": 72,
      "hit": false,
      "t": 179210.4067187501,
      "d": 305.18640625002445,
      "v": 91
    },
    {
      "midi": 76,
      "hit": false,
      "t": 179215.90557291685,
      "d": 415.16348958335584,
      "v": 95
    },
    {
      "midi": 72,
      "hit": false,
      "t": 179218.65500000006,
      "d": 417.91291666662437,
      "v": 117
    },
    {
      "midi": 64,
      "hit": false,
      "t": 179224.15385416633,
      "d": 929.3063541666488,
      "v": 96
    },
    {
      "midi": 72,
      "hit": false,
      "t": 179226.90328124966,
      "d": 926.5569270833221,
      "v": 97
    },
    {
      "midi": 69,
      "hit": false,
      "t": 179226.90328124966,
      "d": 934.8052083333314,
      "v": 98
    },
    {
      "midi": 60,
      "hit": false,
      "t": 179471.60229166644,
      "d": 1960.3415104166488,
      "v": 80
    },
    {
      "midi": 69,
      "hit": false,
      "t": 179474.35171874973,
      "d": 2015.3300520833582,
      "v": 97
    },
    {
      "midi": 33,
      "hit": false,
      "t": 179474.35171875,
      "d": 1022.7868749999907,
      "v": 59
    },
    {
      "midi": 45,
      "hit": false,
      "t": 179474.35171875,
      "d": 1055.7799999999988,
      "v": 101
    },
    {
      "midi": 52,
      "hit": false,
      "t": 179477.1011458331,
      "d": 1963.0909375000047,
      "v": 82
    },
    {
      "midi": 69,
      "hit": false,
      "t": 179482.60000000012,
      "d": 505.89458333334187,
      "v": 104
    },
    {
      "midi": 57,
      "hit": false,
      "t": 179485.3494270831,
      "d": 1943.8449479166593,
      "v": 76
    },
    {
      "midi": 64,
      "hit": false,
      "t": 179490.8482812498,
      "d": 1963.0909375000047,
      "v": 79
    },
    {
      "midi": 71,
      "hit": false,
      "t": 179606.32421875003,
      "d": 131.9724999999744,
      "v": 115
    },
    {
      "midi": 74,
      "hit": false,
      "t": 179617.32192708354,
      "d": 142.97020833331044,
      "v": 96
    },
    {
      "midi": 69,
      "hit": false,
      "t": 179741.04614583333,
      "d": 241.94958333333489,
      "v": 114
    },
    {
      "midi": 72,
      "hit": false,
      "t": 179754.7932812502,
      "d": 252.94729166664183,
      "v": 104
    },
    {
      "midi": 64,
      "hit": false,
      "t": 180002.24171875013,
      "d": 241.94958333333489,
      "v": 103
    },
    {
      "midi": 69,
      "hit": false,
      "t": 180266.18671875013,
      "d": 844.0741145833454,
      "v": 84
    },
    {
      "midi": 72,
      "hit": false,
      "t": 180266.18671875016,
      "d": 153.9679166666756,
      "v": 104
    },
    {
      "midi": 69,
      "hit": false,
      "t": 180282.68328125,
      "d": 118.2253645833407,
      "v": 113
    },
    {
      "midi": 69,
      "hit": false,
      "t": 180285.43270833298,
      "d": 1275.7341666666616,
      "v": 103
    },
    {
      "midi": 33,
      "hit": false,
      "t": 180530.13171875,
      "d": 500.3957291666593,
      "v": 55
    },
    {
      "midi": 45,
      "hit": false,
      "t": 180530.13171875,
      "d": 527.8899999999849,
      "v": 95
    },
    {
      "midi": 69,
      "hit": false,
      "t": 180530.13171875002,
      "d": 230.95187499999884,
      "v": 111
    },
    {
      "midi": 72,
      "hit": false,
      "t": 180546.62828125016,
      "d": 219.9541666666628,
      "v": 104
    },
    {
      "midi": 71,
      "hit": false,
      "t": 180794.07671875003,
      "d": 219.9541666666628,
      "v": 117
    },
    {
      "midi": 74,
      "hit": false,
      "t": 180794.07671875015,
      "d": 208.95645833332674,
      "v": 104
    },
    {
      "midi": 21,
      "hit": false,
      "t": 181058.02171874998,
      "d": 456.4048958333442,
      "v": 57
    },
    {
      "midi": 33,
      "hit": false,
      "t": 181058.02171874998,
      "d": 527.890000000014,
      "v": 96
    },
    {
      "midi": 72,
      "hit": false,
      "t": 181058.02171875004,
      "d": 373.9220833333384,
      "v": 109
    },
    {
      "midi": 76,
      "hit": false,
      "t": 181058.02171875015,
      "d": 373.9220833333384,
      "v": 100
    },
    {
      "midi": 72,
      "hit": false,
      "t": 181594.15999999977,
      "d": 745.0947395833209,
      "v": 104
    },
    {
      "midi": 55,
      "hit": false,
      "t": 181594.15999999977,
      "d": 4132.38890624998,
      "v": 101
    },
    {
      "midi": 62,
      "hit": false,
      "t": 181594.15999999977,
      "d": 4143.386614583316,
      "v": 99
    },
    {
      "midi": 55,
      "hit": false,
      "t": 181594.15999999977,
      "d": 978.7960416666756,
      "v": 76
    },
    {
      "midi": 60,
      "hit": false,
      "t": 181594.15999999977,
      "d": 1011.7891666666837,
      "v": 78
    },
    {
      "midi": 62,
      "hit": false,
      "t": 181594.15999999977,
      "d": 1011.7891666666837,
      "v": 78
    },
    {
      "midi": 60,
      "hit": false,
      "t": 181594.15999999983,
      "d": 1044.7822916666628,
      "v": 86
    },
    {
      "midi": 31,
      "hit": false,
      "t": 181594.16,
      "d": 1506.6860416666605,
      "v": 63
    },
    {
      "midi": 43,
      "hit": false,
      "t": 181594.16,
      "d": 1553.4263020833314,
      "v": 96
    },
    {
      "midi": 62,
      "hit": false,
      "t": 181594.16000000015,
      "d": 1781.6287500000035,
      "v": 99
    },
    {
      "midi": 67,
      "hit": false,
      "t": 181594.16000000015,
      "d": 1792.6264583333395,
      "v": 102
    },
    {
      "midi": 62,
      "hit": false,
      "t": 181599.6588541663,
      "d": 976.0466145833198,
      "v": 96
    },
    {
      "midi": 74,
      "hit": false,
      "t": 181599.65885416672,
      "d": 516.8922916666779,
      "v": 109
    },
    {
      "midi": 60,
      "hit": false,
      "t": 181602.40828125016,
      "d": 1740.387343749986,
      "v": 99
    },
    {
      "midi": 81,
      "hit": false,
      "t": 181602.40828125016,
      "d": 505.89458333331277,
      "v": 100
    },
    {
      "midi": 60,
      "hit": false,
      "t": 181605.15770833296,
      "d": 1020.037447916664,
      "v": 96
    },
    {
      "midi": 74,
      "hit": false,
      "t": 182124.7994270834,
      "d": 120.97479166666744,
      "v": 115
    },
    {
      "midi": 79,
      "hit": false,
      "t": 182130.29828125014,
      "d": 118.2253645833407,
      "v": 95
    },
    {
      "midi": 71,
      "hit": false,
      "t": 182377.74671874975,
      "d": 965.0489062500128,
      "v": 95
    },
    {
      "midi": 74,
      "hit": false,
      "t": 182377.74671875007,
      "d": 670.8602083333244,
      "v": 109
    },
    {
      "midi": 79,
      "hit": false,
      "t": 182377.74671875016,
      "d": 668.1107812500268,
      "v": 104
    },
    {
      "midi": 55,
      "hit": false,
      "t": 182636.1928645831,
      "d": 1003.5408854166453,
      "v": 76
    },
    {
      "midi": 59,
      "hit": false,
      "t": 182641.69171874976,
      "d": 965.0489062500128,
      "v": 81
    },
    {
      "midi": 62,
      "hit": false,
      "t": 182641.69171874976,
      "d": 967.7983333333395,
      "v": 77
    },
    {
      "midi": 59,
      "hit": false,
      "t": 182641.69171874982,
      "d": 538.8877083333209,
      "v": 81
    },
    {
      "midi": 62,
      "hit": false,
      "t": 182649.93999999962,
      "d": 775.3384374999732,
      "v": 101
    },
    {
      "midi": 59,
      "hit": false,
      "t": 182655.43885416628,
      "d": 775.3384374999732,
      "v": 100
    },
    {
      "midi": 31,
      "hit": false,
      "t": 183169.58171875,
      "d": 459.15432291667094,
      "v": 64
    },
    {
      "midi": 43,
      "hit": false,
      "t": 183169.58171875,
      "d": 527.890000000014,
      "v": 101
    },
    {
      "midi": 57,
      "hit": false,
      "t": 183186.0782812498,
      "d": 434.4094791666721,
      "v": 85
    },
    {
      "midi": 74,
      "hit": false,
      "t": 183186.07828125005,
      "d": 162.2161979166558,
      "v": 113
    },
    {
      "midi": 79,
      "hit": false,
      "t": 183186.07828125017,
      "d": 156.71734375000233,
      "v": 99
    },
    {
      "midi": 71,
      "hit": false,
      "t": 183433.52671874975,
      "d": 1292.2307291666802,
      "v": 96
    },
    {
      "midi": 60,
      "hit": false,
      "t": 183441.7749999996,
      "d": 230.95187499999884,
      "v": 96
    },
    {
      "midi": 74,
      "hit": false,
      "t": 183444.52442708338,
      "d": 250.1978645833442,
      "v": 118
    },
    {
      "midi": 55,
      "hit": false,
      "t": 183447.27385416624,
      "d": 230.95187499999884,
      "v": 95
    },
    {
      "midi": 60,
      "hit": false,
      "t": 183450.02328125015,
      "d": 219.9541666666628,
      "v": 90
    },
    {
      "midi": 62,
      "hit": false,
      "t": 183450.02328125015,
      "d": 230.95187499999884,
      "v": 88
    },
    {
      "midi": 67,
      "hit": false,
      "t": 183450.02328125015,
      "d": 252.94729166667094,
      "v": 89
    },
    {
      "midi": 81,
      "hit": false,
      "t": 183450.02328125018,
      "d": 255.69671874999767,
      "v": 103
    },
    {
      "midi": 62,
      "hit": false,
      "t": 183697.47171874958,
      "d": 948.5523437499942,
      "v": 98
    },
    {
      "midi": 59,
      "hit": false,
      "t": 183697.47171874976,
      "d": 989.7937500000116,
      "v": 75
    },
    {
      "midi": 62,
      "hit": false,
      "t": 183697.47171874976,
      "d": 989.7937500000116,
      "v": 81
    },
    {
      "midi": 55,
      "hit": false,
      "t": 183697.47171874976,
      "d": 1099.770833333314,
      "v": 80
    },
    {
      "midi": 31,
      "hit": false,
      "t": 183697.47171875002,
      "d": 989.7937500000116,
      "v": 62
    },
    {
      "midi": 43,
      "hit": false,
      "t": 183697.47171875002,
      "d": 1055.7799999999988,
      "v": 101
    },
    {
      "midi": 59,
      "hit": false,
      "t": 183708.46942708292,
      "d": 453.65546874998836,
      "v": 97
    },
    {
      "midi": 55,
      "hit": false,
      "t": 183711.21885416625,
      "d": 437.15890624999884,
      "v": 95
    },
    {
      "midi": 59,
      "hit": false,
      "t": 183713.9682812498,
      "d": 1935.596666666679,
      "v": 85
    },
    {
      "midi": 59,
      "hit": false,
      "t": 183713.96828125016,
      "d": 514.1428645833221,
      "v": 98
    },
    {
      "midi": 67,
      "hit": false,
      "t": 183713.96828125016,
      "d": 1913.601250000007,
      "v": 99
    },
    {
      "midi": 62,
      "hit": false,
      "t": 183713.96828125016,
      "d": 1932.8472395833523,
      "v": 98
    },
    {
      "midi": 74,
      "hit": false,
      "t": 184225.36171875006,
      "d": 343.67838541665697,
      "v": 110
    },
    {
      "midi": 79,
      "hit": false,
      "t": 184225.36171875018,
      "d": 360.1749479166756,
      "v": 99
    },
    {
      "midi": 59,
      "hit": false,
      "t": 184241.8582812496,
      "d": 472.9014583333337,
      "v": 96
    },
    {
      "midi": 55,
      "hit": false,
      "t": 184241.8582812496,
      "d": 505.89458333334187,
      "v": 96
    },
    {
      "midi": 55,
      "hit": false,
      "t": 184241.85828125014,
      "d": 445.40718750000815,
      "v": 95
    },
    {
      "midi": 64,
      "hit": false,
      "t": 184753.25171874958,
      "d": 547.1359895833302,
      "v": 99
    },
    {
      "midi": 72,
      "hit": false,
      "t": 184753.25171874976,
      "d": 478.4003124999872,
      "v": 99
    },
    {
      "midi": 60,
      "hit": false,
      "t": 184753.25171874976,
      "d": 923.8074999999953,
      "v": 80
    },
    {
      "midi": 28,
      "hit": false,
      "t": 184753.25171875002,
      "d": 956.8006250000035,
      "v": 57
    },
    {
      "midi": 40,
      "hit": false,
      "t": 184753.25171875002,
      "d": 1055.7799999999988,
      "v": 96
    },
    {
      "midi": 64,
      "hit": false,
      "t": 184758.7505729164,
      "d": 945.8029166666674,
      "v": 80
    },
    {
      "midi": 79,
      "hit": false,
      "t": 184764.24942708338,
      "d": 321.68296874998487,
      "v": 116
    },
    {
      "midi": 55,
      "hit": false,
      "t": 184769.74828124957,
      "d": 483.89916666666977,
      "v": 104
    },
    {
      "midi": 60,
      "hit": false,
      "t": 184769.74828124957,
      "d": 483.89916666666977,
      "v": 100
    },
    {
      "midi": 55,
      "hit": false,
      "t": 184769.74828125015,
      "d": 472.9014583333337,
      "v": 98
    },
    {
      "midi": 84,
      "hit": false,
      "t": 184769.74828125018,
      "d": 299.68755208334187,
      "v": 99
    },
    {
      "midi": 67,
      "hit": false,
      "t": 185281.14171874974,
      "d": 470.152031250007,
      "v": 98
    },
    {
      "midi": 74,
      "hit": false,
      "t": 185286.6405729167,
      "d": 305.18640624999534,
      "v": 118
    },
    {
      "midi": 79,
      "hit": false,
      "t": 185292.13942708352,
      "d": 313.43468750000466,
      "v": 100
    },
    {
      "midi": 55,
      "hit": false,
      "t": 185297.6382812496,
      "d": 461.9037499999977,
      "v": 104
    },
    {
      "midi": 60,
      "hit": false,
      "t": 185297.6382812496,
      "d": 483.89916666666977,
      "v": 98
    },
    {
      "midi": 55,
      "hit": false,
      "t": 185297.63828125017,
      "d": 461.9037499999977,
      "v": 97
    },
    {
      "midi": 60,
      "hit": false,
      "t": 185817.2799999996,
      "d": 1528.6814583333326,
      "v": 95
    },
    {
      "midi": 53,
      "hit": false,
      "t": 185817.2799999996,
      "d": 2078.5668749999895,
      "v": 95
    },
    {
      "midi": 48,
      "hit": false,
      "t": 185817.2799999996,
      "d": 2095.063437499979,
      "v": 104
    },
    {
      "midi": 65,
      "hit": false,
      "t": 185817.27999999974,
      "d": 4132.388906250009,
      "v": 103
    },
    {
      "midi": 60,
      "hit": false,
      "t": 185817.27999999974,
      "d": 4143.386614583345,
      "v": 101
    },
    {
      "midi": 69,
      "hit": false,
      "t": 185817.27999999974,
      "d": 4154.384322916681,
      "v": 99
    },
    {
      "midi": 65,
      "hit": false,
      "t": 185817.27999999974,
      "d": 4124.140625,
      "v": 75
    },
    {
      "midi": 57,
      "hit": false,
      "t": 185817.27999999974,
      "d": 4135.138333333336,
      "v": 77
    },
    {
      "midi": 60,
      "hit": false,
      "t": 185817.27999999974,
      "d": 4179.12916666668,
      "v": 78
    },
    {
      "midi": 41,
      "hit": false,
      "t": 185817.28000000003,
      "d": 1553.4263020833314,
      "v": 100
    },
    {
      "midi": 29,
      "hit": false,
      "t": 185817.28000000003,
      "d": 1564.4240104166674,
      "v": 56
    },
    {
      "midi": 76,
      "hit": false,
      "t": 185817.28000000003,
      "d": 241.94958333333489,
      "v": 113
    },
    {
      "midi": 79,
      "hit": false,
      "t": 185817.28000000017,
      "d": 230.95187499999884,
      "v": 101
    },
    {
      "midi": 57,
      "hit": false,
      "t": 185825.52828124983,
      "d": 2001.5829166666663,
      "v": 79
    },
    {
      "midi": 74,
      "hit": false,
      "t": 186072.97671875003,
      "d": 247.44843749998836,
      "v": 110
    },
    {
      "midi": 77,
      "hit": false,
      "t": 186072.97671875017,
      "d": 261.19557291668025,
      "v": 102
    },
    {
      "midi": 72,
      "hit": false,
      "t": 186336.92171875,
      "d": 274.94270833334303,
      "v": 113
    },
    {
      "midi": 76,
      "hit": false,
      "t": 186336.92171875018,
      "d": 230.95187499999884,
      "v": 96
    },
    {
      "midi": 72,
      "hit": false,
      "t": 186864.81171875002,
      "d": 313.43468750000466,
      "v": 110
    },
    {
      "midi": 76,
      "hit": false,
      "t": 186864.81171875016,
      "d": 305.18640624999534,
      "v": 101
    },
    {
      "midi": 29,
      "hit": false,
      "t": 187392.70171875003,
      "d": 263.945000000007,
      "v": 57
    },
    {
      "midi": 41,
      "hit": false,
      "t": 187392.70171875003,
      "d": 263.945000000007,
      "v": 104
    },
    {
      "midi": 72,
      "hit": false,
      "t": 187392.70171875003,
      "d": 93.48052083334187,
      "v": 118
    },
    {
      "midi": 76,
      "hit": false,
      "t": 187392.70171875015,
      "d": 76.98395833332324,
      "v": 101
    },
    {
      "midi": 60,
      "hit": false,
      "t": 187392.70171875018,
      "d": 2595.4591666666674,
      "v": 101
    },
    {
      "midi": 60,
      "hit": false,
      "t": 187409.19828124958,
      "d": 250.1978645833151,
      "v": 99
    },
    {
      "midi": 65,
      "hit": false,
      "t": 187656.64671874957,
      "d": 230.95187499999884,
      "v": 99
    },
    {
      "midi": 72,
      "hit": false,
      "t": 187656.64671875004,
      "d": 395.9175000000105,
      "v": 112
    },
    {
      "midi": 76,
      "hit": false,
      "t": 187656.64671875013,
      "d": 395.9174999999814,
      "v": 96
    },
    {
      "midi": 65,
      "hit": false,
      "t": 187656.64671875018,
      "d": 2331.5141666666605,
      "v": 85
    },
    {
      "midi": 41,
      "hit": false,
      "t": 187673.14328125003,
      "d": 164.96562499998254,
      "v": 103
    },
    {
      "midi": 29,
      "hit": false,
      "t": 187714.38468750002,
      "d": 181.46218750000116,
      "v": 58
    },
    {
      "midi": 43,
      "hit": false,
      "t": 187807.86520833336,
      "d": 131.9725000000035,
      "v": 95
    },
    {
      "midi": 31,
      "hit": false,
      "t": 187813.3640625,
      "d": 197.9587500000198,
      "v": 55
    },
    {
      "midi": 65,
      "hit": false,
      "t": 187920.59171874984,
      "d": 2048.323177083337,
      "v": 79
    },
    {
      "midi": 33,
      "hit": false,
      "t": 187920.59171875002,
      "d": 1047.5317187500186,
      "v": 61
    },
    {
      "midi": 45,
      "hit": false,
      "t": 187920.59171875002,
      "d": 1055.780000000028,
      "v": 95
    },
    {
      "midi": 84,
      "hit": false,
      "t": 187920.59171875037,
      "d": 2064.8197395835596,
      "v": 66
    },
    {
      "midi": 72,
      "hit": false,
      "t": 187926.09057291684,
      "d": 2059.3208854166733,
      "v": 95
    },
    {
      "midi": 65,
      "hit": false,
      "t": 187937.08828124957,
      "d": 989.7937500000116,
      "v": 97
    },
    {
      "midi": 72,
      "hit": false,
      "t": 187937.08828124957,
      "d": 995.2926041666651,
      "v": 103
    },
    {
      "midi": 72,
      "hit": false,
      "t": 187939.83770833307,
      "d": 4132.388906250038,
      "v": 95
    },
    {
      "midi": 71,
      "hit": false,
      "t": 188052.56421875005,
      "d": 175.9633333333186,
      "v": 115
    },
    {
      "midi": 74,
      "hit": false,
      "t": 188069.0607812501,
      "d": 197.9587499999907,
      "v": 100
    },
    {
      "midi": 72,
      "hit": false,
      "t": 188195.53442708342,
      "d": 291.43927083333256,
      "v": 104
    },
    {
      "midi": 69,
      "hit": false,
      "t": 188201.03328125004,
      "d": 274.94270833331393,
      "v": 113
    },
    {
      "midi": 33,
      "hit": false,
      "t": 188976.37171875004,
      "d": 910.0603645833326,
      "v": 64
    },
    {
      "midi": 45,
      "hit": false,
      "t": 188976.37171875004,
      "d": 1033.7845833333267,
      "v": 102
    },
    {
      "midi": 72,
      "hit": false,
      "t": 188979.12114583334,
      "d": 296.93812500001513,
      "v": 114
    },
    {
      "midi": 76,
      "hit": false,
      "t": 188987.3694270834,
      "d": 252.94729166667094,
      "v": 95
    },
    {
      "midi": 72,
      "hit": false,
      "t": 188992.86828124957,
      "d": 929.3063541666779,
      "v": 104
    },
    {
      "midi": 65,
      "hit": false,
      "t": 188992.86828124957,
      "d": 1011.7891666666837,
      "v": 95
    },
    {
      "midi": 74,
      "hit": false,
      "t": 189240.31671875002,
      "d": 274.94270833334303,
      "v": 113
    },
    {
      "midi": 77,
      "hit": false,
      "t": 189240.31671875008,
      "d": 263.945000000007,
      "v": 99
    },
    {
      "midi": 76,
      "hit": false,
      "t": 189504.26171875003,
      "d": 461.9037499999977,
      "v": 111
    },
    {
      "midi": 79,
      "hit": false,
      "t": 189504.2617187501,
      "d": 431.66005208334536,
      "v": 104
    },
    {
      "midi": 60,
      "hit": false,
      "t": 190040.39999999976,
      "d": 2075.817447916692,
      "v": 96
    },
    {
      "midi": 62,
      "hit": false,
      "t": 190040.39999999976,
      "d": 4099.39578125003,
      "v": 101
    },
    {
      "midi": 67,
      "hit": false,
      "t": 190040.39999999976,
      "d": 4110.393489583366,
      "v": 103
    },
    {
      "midi": 60,
      "hit": false,
      "t": 190040.39999999976,
      "d": 2089.5645833333256,
      "v": 78
    },
    {
      "midi": 67,
      "hit": false,
      "t": 190040.39999999976,
      "d": 4179.129166666651,
      "v": 73
    },
    {
      "midi": 62,
      "hit": false,
      "t": 190040.39999999976,
      "d": 4187.3774479166605,
      "v": 76
    },
    {
      "midi": 43,
      "hit": false,
      "t": 190040.40000000002,
      "d": 1583.6700000000128,
      "v": 96
    },
    {
      "midi": 31,
      "hit": false,
      "t": 190040.40000000002,
      "d": 1594.6677083333489,
      "v": 59
    },
    {
      "midi": 60,
      "hit": false,
      "t": 190040.40000000017,
      "d": 1580.920572916686,
      "v": 102
    },
    {
      "midi": 60,
      "hit": false,
      "t": 190048.6482812496,
      "d": 1451.6975000000093,
      "v": 102
    },
    {
      "midi": 55,
      "hit": false,
      "t": 190048.6482812496,
      "d": 1517.6837499999965,
      "v": 95
    },
    {
      "midi": 62,
      "hit": false,
      "t": 190048.6482812496,
      "d": 1528.6814583333326,
      "v": 98
    },
    {
      "midi": 60,
      "hit": false,
      "t": 190048.64828124986,
      "d": 1418.7043750000012,
      "v": 84
    },
    {
      "midi": 74,
      "hit": false,
      "t": 190048.64828125003,
      "d": 321.68296875001397,
      "v": 114
    },
    {
      "midi": 81,
      "hit": false,
      "t": 190048.6482812501,
      "d": 332.6806770833209,
      "v": 100
    },
    {
      "midi": 67,
      "hit": false,
      "t": 190048.64828125018,
      "d": 1487.4400520833442,
      "v": 96
    },
    {
      "midi": 62,
      "hit": false,
      "t": 190048.64828125018,
      "d": 1501.187187500007,
      "v": 96
    },
    {
      "midi": 86,
      "hit": false,
      "t": 190048.6482812506,
      "d": 2042.8243229166546,
      "v": 64
    },
    {
      "midi": 74,
      "hit": false,
      "t": 190576.53828125005,
      "d": 1935.5966666667955,
      "v": 113
    },
    {
      "midi": 79,
      "hit": false,
      "t": 190576.53828125008,
      "d": 1919.1001041666605,
      "v": 96
    },
    {
      "midi": 60,
      "hit": false,
      "t": 191615.82171874985,
      "d": 519.6417187500047,
      "v": 85
    },
    {
      "midi": 60,
      "hit": false,
      "t": 191615.82171874994,
      "d": 533.3888541666674,
      "v": 106
    },
    {
      "midi": 55,
      "hit": false,
      "t": 191615.82171874994,
      "d": 2559.7166145833326,
      "v": 107
    },
    {
      "midi": 26,
      "hit": false,
      "t": 191615.82171875003,
      "d": 417.9129166666826,
      "v": 60
    },
    {
      "midi": 38,
      "hit": false,
      "t": 191615.82171875003,
      "d": 527.890000000014,
      "v": 101
    },
    {
      "midi": 67,
      "hit": false,
      "t": 191618.57114583353,
      "d": 461.9037499999977,
      "v": 98
    },
    {
      "midi": 62,
      "hit": false,
      "t": 191621.32057291685,
      "d": 448.1566145833349,
      "v": 97
    },
    {
      "midi": 60,
      "hit": false,
      "t": 191626.81942708293,
      "d": 503.14515624998603,
      "v": 99
    },
    {
      "midi": 55,
      "hit": false,
      "t": 191626.81942708293,
      "d": 2411.2475520833104,
      "v": 102
    },
    {
      "midi": 62,
      "hit": false,
      "t": 191629.56885416625,
      "d": 2392.001562499994,
      "v": 99
    },
    {
      "midi": 60,
      "hit": false,
      "t": 191632.3182812502,
      "d": 428.9106249999895,
      "v": 103
    },
    {
      "midi": 59,
      "hit": false,
      "t": 192140.96229166625,
      "d": 1899.854114583315,
      "v": 97
    },
    {
      "midi": 59,
      "hit": false,
      "t": 192143.71171874975,
      "d": 1949.3438020833419,
      "v": 79
    },
    {
      "midi": 59,
      "hit": false,
      "t": 192143.71171874978,
      "d": 1996.0840625000128,
      "v": 98
    },
    {
      "midi": 59,
      "hit": false,
      "t": 192143.71171874995,
      "d": 1031.03515625,
      "v": 99
    },
    {
      "midi": 31,
      "hit": false,
      "t": 192143.71171875004,
      "d": 2111.5599999999977,
      "v": 60
    },
    {
      "midi": 43,
      "hit": false,
      "t": 192143.71171875004,
      "d": 2111.5599999999977,
      "v": 102
    },
    {
      "midi": 59,
      "hit": false,
      "t": 192143.7117187502,
      "d": 989.7937499999825,
      "v": 99
    },
    {
      "midi": 62,
      "hit": false,
      "t": 192143.7117187502,
      "d": 1055.7799999999697,
      "v": 98
    },
    {
      "midi": 59,
      "hit": false,
      "t": 192149.21057291652,
      "d": 1932.8472395833232,
      "v": 82
    },
    {
      "midi": 74,
      "hit": false,
      "t": 192149.21057291725,
      "d": 2100.5622916666616,
      "v": 61
    },
    {
      "midi": 74,
      "hit": false,
      "t": 192151.9599999998,
      "d": 2053.82203125002,
      "v": 100
    },
    {
      "midi": 67,
      "hit": false,
      "t": 192160.20828125018,
      "d": 1938.3460937499476,
      "v": 103
    },
    {
      "midi": 59,
      "hit": false,
      "t": 193202.24114583348,
      "d": 247.44843749998836,
      "v": 100
    },
    {
      "midi": 59,
      "hit": false,
      "t": 193204.9905729166,
      "d": 277.69213541666977,
      "v": 99
    },
    {
      "midi": 72,
      "hit": false,
      "t": 193207.74000000017,
      "d": 406.9152083333465,
      "v": 114
    },
    {
      "midi": 60,
      "hit": false,
      "t": 193463.43671874993,
      "d": 277.69213541666977,
      "v": 102
    },
    {
      "midi": 60,
      "hit": false,
      "t": 193479.93328125012,
      "d": 252.94729166667094,
      "v": 88
    },
    {
      "midi": 62,
      "hit": false,
      "t": 193727.38171874994,
      "d": 360.1749479166756,
      "v": 106
    },
    {
      "midi": 74,
      "hit": false,
      "t": 193730.13114583353,
      "d": 412.4140625000291,
      "v": 116
    },
    {
      "midi": 62,
      "hit": false,
      "t": 193741.1288541668,
      "d": 434.409479166643,
      "v": 104
    },
    {
      "midi": 53,
      "hit": false,
      "t": 194263.51999999955,
      "d": 4146.136041666672,
      "v": 97
    },
    {
      "midi": 57,
      "hit": false,
      "t": 194263.51999999976,
      "d": 4113.142916666664,
      "v": 82
    },
    {
      "midi": 53,
      "hit": false,
      "t": 194263.51999999976,
      "d": 4146.136041666672,
      "v": 74
    },
    {
      "midi": 57,
      "hit": false,
      "t": 194263.51999999981,
      "d": 4044.407239583321,
      "v": 102
    },
    {
      "midi": 41,
      "hit": false,
      "t": 194263.51999999981,
      "d": 4077.400364583329,
      "v": 101
    },
    {
      "midi": 60,
      "hit": false,
      "t": 194263.51999999981,
      "d": 4077.400364583329,
      "v": 102
    },
    {
      "midi": 72,
      "hit": false,
      "t": 194263.51999999981,
      "d": 4077.400364583329,
      "v": 101
    },
    {
      "midi": 60,
      "hit": false,
      "t": 194263.51999999993,
      "d": 3948.1772916669142,
      "v": 104
    },
    {
      "midi": 57,
      "hit": false,
      "t": 194263.51999999993,
      "d": 3959.1750000002503,
      "v": 106
    },
    {
      "midi": 65,
      "hit": false,
      "t": 194263.51999999993,
      "d": 3992.1681250002584,
      "v": 100
    },
    {
      "midi": 41,
      "hit": false,
      "t": 194263.52000000005,
      "d": 2081.3163020833454,
      "v": 99
    },
    {
      "midi": 29,
      "hit": false,
      "t": 194263.52000000005,
      "d": 2097.812864583335,
      "v": 59
    },
    {
      "midi": 76,
      "hit": false,
      "t": 194269.01885416688,
      "d": 382.1703645833477,
      "v": 113
    },
    {
      "midi": 60,
      "hit": false,
      "t": 194271.76828124956,
      "d": 4115.892343749991,
      "v": 97
    },
    {
      "midi": 57,
      "hit": false,
      "t": 194271.76828124956,
      "d": 4126.890052083327,
      "v": 98
    },
    {
      "midi": 60,
      "hit": false,
      "t": 194271.76828124977,
      "d": 4041.657812499994,
      "v": 80
    },
    {
      "midi": 84,
      "hit": false,
      "t": 194271.76828125058,
      "d": 4165.3820312505995,
      "v": 63
    },
    {
      "midi": 69,
      "hit": false,
      "t": 194282.7659895832,
      "d": 4093.8969270833477,
      "v": 80
    },
    {
      "midi": 74,
      "hit": false,
      "t": 194651.18921875022,
      "d": 145.71963541666628,
      "v": 118
    },
    {
      "midi": 72,
      "hit": false,
      "t": 194783.16171875023,
      "d": 173.21390624999185,
      "v": 111
    },
    {
      "midi": 72,
      "hit": false,
      "t": 195047.1067187502,
      "d": 2163.7991145834676,
      "v": 112
    },
    {
      "midi": 72,
      "hit": false,
      "t": 195574.99671874987,
      "d": 2556.967187500384,
      "v": 27
    },
    {
      "midi": 72,
      "hit": false,
      "t": 195855.4382812501,
      "d": 478.4003124999872,
      "v": 98
    },
    {
      "midi": 41,
      "hit": false,
      "t": 196366.83171875004,
      "d": 2111.5599999999977,
      "v": 95
    },
    {
      "midi": 29,
      "hit": false,
      "t": 196366.83171875004,
      "d": 2119.808281250007,
      "v": 58
    },
    {
      "midi": 67,
      "hit": false,
      "t": 196377.82942708343,
      "d": 472.9014583333337,
      "v": 96
    },
    {
      "midi": 58,
      "hit": false,
      "t": 196894.72171875002,
      "d": 571.8808333333291,
      "v": 95
    },
    {
      "midi": 72,
      "hit": false,
      "t": 196894.72171875008,
      "d": 214.4553125000093,
      "v": 101
    },
    {
      "midi": 65,
      "hit": false,
      "t": 196894.7217187501,
      "d": 233.70130208332557,
      "v": 97
    },
    {
      "midi": 64,
      "hit": false,
      "t": 197158.6667187501,
      "d": 492.1474479166791,
      "v": 93
    },
    {
      "midi": 76,
      "hit": false,
      "t": 197158.6667187501,
      "d": 206.20703125,
      "v": 95
    },
    {
      "midi": 74,
      "hit": false,
      "t": 197422.6117187501,
      "d": 483.8991666666989,
      "v": 98
    },
    {
      "midi": 62,
      "hit": false,
      "t": 197697.55442708344,
      "d": 258.4461458333244,
      "v": 86
    },
    {
      "midi": 72,
      "hit": false,
      "t": 197939.50401041677,
      "d": 263.945000000007,
      "v": 102
    },
    {
      "midi": 65,
      "hit": false,
      "t": 197958.7500000001,
      "d": 371.17265625001164,
      "v": 100
    },
    {
      "midi": 72,
      "hit": false,
      "t": 198236.4421354168,
      "d": 219.9541666666628,
      "v": 98
    },
    {
      "midi": 60,
      "hit": false,
      "t": 198486.63999999975,
      "d": 4033.409531250014,
      "v": 80
    },
    {
      "midi": 55,
      "hit": false,
      "t": 198486.63999999975,
      "d": 4044.40723958335,
      "v": 80
    },
    {
      "midi": 52,
      "hit": false,
      "t": 198486.63999999975,
      "d": 4047.1566666666768,
      "v": 80
    },
    {
      "midi": 36,
      "hit": false,
      "t": 198486.6399999998,
      "d": 4011.414114583342,
      "v": 103
    },
    {
      "midi": 60,
      "hit": false,
      "t": 198486.6399999998,
      "d": 4022.411822916678,
      "v": 102
    },
    {
      "midi": 52,
      "hit": false,
      "t": 198486.6399999998,
      "d": 4033.409531250014,
      "v": 104
    },
    {
      "midi": 55,
      "hit": false,
      "t": 198486.6399999998,
      "d": 4055.404947916686,
      "v": 103
    },
    {
      "midi": 36,
      "hit": false,
      "t": 198486.64000000004,
      "d": 1553.4263020833314,
      "v": 104
    },
    {
      "midi": 24,
      "hit": false,
      "t": 198486.64000000004,
      "d": 1567.1734374999942,
      "v": 55
    },
    {
      "midi": 64,
      "hit": false,
      "t": 198486.6400000001,
      "d": 263.945000000007,
      "v": 97
    },
    {
      "midi": 55,
      "hit": false,
      "t": 198494.88828124956,
      "d": 4162.632604166662,
      "v": 104
    },
    {
      "midi": 64,
      "hit": false,
      "t": 198494.88828124988,
      "d": 4044.407239583321,
      "v": 86
    },
    {
      "midi": 64,
      "hit": false,
      "t": 198497.63770833288,
      "d": 4140.6371874999895,
      "v": 100
    },
    {
      "midi": 60,
      "hit": false,
      "t": 198497.63770833288,
      "d": 4151.634895833326,
      "v": 95
    },
    {
      "midi": 67,
      "hit": false,
      "t": 198497.63770833344,
      "d": 318.93354166668723,
      "v": 104
    },
    {
      "midi": 88,
      "hit": false,
      "t": 198758.83328125,
      "d": 250.1978645833442,
      "v": 69
    },
    {
      "midi": 64,
      "hit": false,
      "t": 198758.83328125012,
      "d": 266.6944270833337,
      "v": 86
    },
    {
      "midi": 74,
      "hit": false,
      "t": 198758.83328125012,
      "d": 318.93354166665813,
      "v": 100
    },
    {
      "midi": 58,
      "hit": false,
      "t": 199006.28171875002,
      "d": 571.8808333333291,
      "v": 101
    },
    {
      "midi": 67,
      "hit": false,
      "t": 199006.2817187503,
      "d": 153.9679166666756,
      "v": 113
    },
    {
      "midi": 84,
      "hit": false,
      "t": 199022.77828125,
      "d": 263.945000000007,
      "v": 64
    },
    {
      "midi": 67,
      "hit": false,
      "t": 199022.77828125012,
      "d": 258.4461458333244,
      "v": 95
    },
    {
      "midi": 72,
      "hit": false,
      "t": 199025.52770833345,
      "d": 2089.564583333471,
      "v": 100
    },
    {
      "midi": 67,
      "hit": false,
      "t": 199270.22671875032,
      "d": 756.0924479166279,
      "v": 118
    },
    {
      "midi": 88,
      "hit": false,
      "t": 199286.72328125002,
      "d": 283.19098958332324,
      "v": 66
    },
    {
      "midi": 72,
      "hit": false,
      "t": 199286.7232812501,
      "d": 475.65088541666046,
      "v": 88
    },
    {
      "midi": 88,
      "hit": false,
      "t": 199814.61328125,
      "d": 239.20015625000815,
      "v": 62
    },
    {
      "midi": 64,
      "hit": false,
      "t": 199814.6132812501,
      "d": 244.69901041666162,
      "v": 87
    },
    {
      "midi": 24,
      "hit": false,
      "t": 200062.06171875005,
      "d": 349.17723958333954,
      "v": 59
    },
    {
      "midi": 36,
      "hit": false,
      "t": 200062.06171875005,
      "d": 505.89458333334187,
      "v": 101
    },
    {
      "midi": 67,
      "hit": false,
      "t": 200075.80885416674,
      "d": 247.44843749998836,
      "v": 102
    },
    {
      "midi": 84,
      "hit": false,
      "t": 200078.55828125,
      "d": 230.95187499999884,
      "v": 65
    },
    {
      "midi": 72,
      "hit": false,
      "t": 200078.55828125027,
      "d": 96.2299479166686,
      "v": 113
    },
    {
      "midi": 71,
      "hit": false,
      "t": 200326.00671875005,
      "d": 252.94729166667094,
      "v": 86
    },
    {
      "midi": 74,
      "hit": false,
      "t": 200326.00671875026,
      "d": 745.0947395833791,
      "v": 112
    },
    {
      "midi": 88,
      "hit": false,
      "t": 200331.50557291668,
      "d": 241.94958333333489,
      "v": 64
    },
    {
      "midi": 24,
      "hit": false,
      "t": 200589.95171875006,
      "d": 2007.0817708333198,
      "v": 59
    },
    {
      "midi": 36,
      "hit": false,
      "t": 200589.95171875006,
      "d": 2111.5599999999977,
      "v": 104
    },
    {
      "midi": 71,
      "hit": false,
      "t": 200600.9494270834,
      "d": 423.41177083333605,
      "v": 95
    },
    {
      "midi": 88,
      "hit": false,
      "t": 200853.89671875,
      "d": 252.94729166667094,
      "v": 61
    },
    {
      "midi": 58,
      "hit": false,
      "t": 201117.84171875002,
      "d": 571.8808333333291,
      "v": 96
    },
    {
      "midi": 84,
      "hit": false,
      "t": 201117.84171875002,
      "d": 280.4415624999965,
      "v": 66
    },
    {
      "midi": 71,
      "hit": false,
      "t": 201117.84171875007,
      "d": 228.2024479166721,
      "v": 104
    },
    {
      "midi": 72,
      "hit": false,
      "t": 201134.3382812503,
      "d": 104.47822916667792,
      "v": 110
    },
    {
      "midi": 72,
      "hit": false,
      "t": 201381.78671875008,
      "d": 547.1359895833302,
      "v": 93
    },
    {
      "midi": 74,
      "hit": false,
      "t": 201381.7867187503,
      "d": 654.3636458333349,
      "v": 110
    },
    {
      "midi": 88,
      "hit": false,
      "t": 201398.28328125,
      "d": 261.19557291668025,
      "v": 67
    },
    {
      "midi": 88,
      "hit": false,
      "t": 201917.92500000002,
      "d": 255.69671874999767,
      "v": 64
    },
    {
      "midi": 64,
      "hit": false,
      "t": 201926.17328125008,
      "d": 228.2024479166721,
      "v": 85
    },
    {
      "midi": 76,
      "hit": false,
      "t": 202173.6217187503,
      "d": 200.70817708334653,
      "v": 110
    },
    {
      "midi": 84,
      "hit": false,
      "t": 202187.36885416668,
      "d": 255.69671874999767,
      "v": 64
    },
    {
      "midi": 67,
      "hit": false,
      "t": 202190.1182812501,
      "d": 255.69671874999767,
      "v": 104
    },
    {
      "midi": 69,
      "hit": false,
      "t": 202437.56671875008,
      "d": 483.89916666666977,
      "v": 86
    },
    {
      "midi": 88,
      "hit": false,
      "t": 202448.56442708333,
      "d": 225.45302083334536,
      "v": 61
    },
    {
      "midi": 69,
      "hit": false,
      "t": 202467.810416667,
      "d": 373.9220833333384,
      "v": 117
    },
    {
      "midi": 29,
      "hit": false,
      "t": 202701.51171875006,
      "d": 1963.0909375000047,
      "v": 57
    },
    {
      "midi": 41,
      "hit": false,
      "t": 202701.51171875006,
      "d": 2078.5668750000186,
      "v": 104
    },
    {
      "midi": 60,
      "hit": false,
      "t": 202709.75999999954,
      "d": 2018.0794791666558,
      "v": 99
    },
    {
      "midi": 60,
      "hit": false,
      "t": 202709.75999999983,
      "d": 2042.824322916771,
      "v": 101
    },
    {
      "midi": 69,
      "hit": false,
      "t": 202709.75999999983,
      "d": 2042.824322916771,
      "v": 97
    },
    {
      "midi": 69,
      "hit": false,
      "t": 202709.75999999986,
      "d": 2078.5668749999895,
      "v": 85
    },
    {
      "midi": 69,
      "hit": false,
      "t": 202718.00828124955,
      "d": 2023.5783333333093,
      "v": 99
    },
    {
      "midi": 60,
      "hit": false,
      "t": 202718.00828124976,
      "d": 2034.5760416666744,
      "v": 82
    },
    {
      "midi": 65,
      "hit": false,
      "t": 202718.00828124976,
      "d": 2034.5760416666744,
      "v": 75
    },
    {
      "midi": 69,
      "hit": false,
      "t": 202718.00828124976,
      "d": 2056.5714583333465,
      "v": 80
    },
    {
      "midi": 65,
      "hit": false,
      "t": 202718.00828124984,
      "d": 2042.824322916771,
      "v": 101
    },
    {
      "midi": 65,
      "hit": false,
      "t": 202720.75770833288,
      "d": 1990.5852083333302,
      "v": 103
    },
    {
      "midi": 67,
      "hit": false,
      "t": 202833.48421875032,
      "d": 118.2253645833407,
      "v": 109
    },
    {
      "midi": 69,
      "hit": false,
      "t": 202965.45671875033,
      "d": 470.152031250007,
      "v": 111
    },
    {
      "midi": 81,
      "hit": false,
      "t": 202981.95328125,
      "d": 272.1932812500163,
      "v": 69
    },
    {
      "midi": 60,
      "hit": false,
      "t": 202981.95328125008,
      "d": 250.1978645833442,
      "v": 92
    },
    {
      "midi": 58,
      "hit": false,
      "t": 203229.40171875,
      "d": 571.8808333333291,
      "v": 97
    },
    {
      "midi": 65,
      "hit": false,
      "t": 203237.65000000008,
      "d": 266.6944270833337,
      "v": 104
    },
    {
      "midi": 77,
      "hit": false,
      "t": 203245.89828125,
      "d": 247.44843750001746,
      "v": 66
    },
    {
      "midi": 67,
      "hit": false,
      "t": 203361.37421875034,
      "d": 140.2207812500128,
      "v": 113
    },
    {
      "midi": 65,
      "hit": false,
      "t": 203493.34671875034,
      "d": 299.68755208334187,
      "v": 110
    },
    {
      "midi": 69,
      "hit": false,
      "t": 203496.0961458334,
      "d": 538.88770833335,
      "v": 91
    },
    {
      "midi": 72,
      "hit": false,
      "t": 203509.84328125,
      "d": 560.8831250000221,
      "v": 65
    },
    {
      "midi": 77,
      "hit": false,
      "t": 204037.73328125002,
      "d": 244.69901041666162,
      "v": 62
    },
    {
      "midi": 60,
      "hit": false,
      "t": 204037.73328125008,
      "d": 252.94729166667094,
      "v": 87
    },
    {
      "midi": 72,
      "hit": false,
      "t": 204293.43000000008,
      "d": 244.69901041666162,
      "v": 102
    },
    {
      "midi": 84,
      "hit": false,
      "t": 204298.92885416665,
      "d": 109.9770833333314,
      "v": 68
    },
    {
      "midi": 96,
      "hit": false,
      "t": 204298.92885416665,
      "d": 109.9770833333314,
      "v": 83
    },
    {
      "midi": 72,
      "hit": false,
      "t": 204298.92885416694,
      "d": 184.2116145833279,
      "v": 102
    },
    {
      "midi": 84,
      "hit": false,
      "t": 204301.67828125003,
      "d": 266.6944270833337,
      "v": 68
    },
    {
      "midi": 71,
      "hit": false,
      "t": 204549.12671875008,
      "d": 527.890000000014,
      "v": 91
    },
    {
      "midi": 83,
      "hit": false,
      "t": 204551.87614583338,
      "d": 527.8899999999849,
      "v": 60
    },
    {
      "midi": 71,
      "hit": false,
      "t": 204557.37500000026,
      "d": 767.0901562499639,
      "v": 99
    },
    {
      "midi": 83,
      "hit": false,
      "t": 204565.62328124998,
      "d": 802.8327083333279,
      "v": 72
    },
    {
      "midi": 95,
      "hit": false,
      "t": 204565.62328124998,
      "d": 802.8327083333279,
      "v": 87
    },
    {
      "midi": 67,
      "hit": false,
      "t": 204813.07171874953,
      "d": 973.297187499993,
      "v": 99
    },
    {
      "midi": 64,
      "hit": false,
      "t": 204813.07171874953,
      "d": 1003.5408854166453,
      "v": 103
    },
    {
      "midi": 59,
      "hit": false,
      "t": 204813.07171874976,
      "d": 1017.2880208333081,
      "v": 77
    },
    {
      "midi": 67,
      "hit": false,
      "t": 204813.07171874985,
      "d": 1020.037447916664,
      "v": 86
    },
    {
      "midi": 64,
      "hit": false,
      "t": 204813.07171874994,
      "d": 921.0580729166686,
      "v": 95
    },
    {
      "midi": 40,
      "hit": false,
      "t": 204813.07171875008,
      "d": 1055.7799999999988,
      "v": 103
    },
    {
      "midi": 28,
      "hit": false,
      "t": 204813.07171875008,
      "d": 1064.0282812500081,
      "v": 55
    },
    {
      "midi": 67,
      "hit": false,
      "t": 204818.57057291642,
      "d": 1011.7891666666546,
      "v": 74
    },
    {
      "midi": 67,
      "hit": false,
      "t": 204818.5705729166,
      "d": 962.2994791666861,
      "v": 98
    },
    {
      "midi": 62,
      "hit": false,
      "t": 204824.06942708287,
      "d": 962.299479166657,
      "v": 98
    },
    {
      "midi": 59,
      "hit": false,
      "t": 204829.56828124993,
      "d": 965.0489062500128,
      "v": 98
    },
    {
      "midi": 86,
      "hit": false,
      "t": 205077.01671875003,
      "d": 294.1886979166593,
      "v": 67
    },
    {
      "midi": 60,
      "hit": false,
      "t": 205104.51098958342,
      "d": 252.94729166667094,
      "v": 88
    },
    {
      "midi": 58,
      "hit": false,
      "t": 205340.96171875,
      "d": 571.8808333333291,
      "v": 95
    },
    {
      "midi": 83,
      "hit": false,
      "t": 205340.96171875004,
      "d": 280.4415624999965,
      "v": 68
    },
    {
      "midi": 71,
      "hit": false,
      "t": 205343.71114583343,
      "d": 200.70817708331742,
      "v": 101
    },
    {
      "midi": 72,
      "hit": false,
      "t": 205343.71114583357,
      "d": 159.46677083332906,
      "v": 99
    },
    {
      "midi": 69,
      "hit": false,
      "t": 205588.41015625023,
      "d": 508.6440104166686,
      "v": 102
    },
    {
      "midi": 69,
      "hit": false,
      "t": 205604.90671875008,
      "d": 505.89458333334187,
      "v": 90
    },
    {
      "midi": 79,
      "hit": false,
      "t": 205621.40328125004,
      "d": 214.4553125000093,
      "v": 66
    },
    {
      "midi": 81,
      "hit": false,
      "t": 205866.10229166664,
      "d": 142.97020833333954,
      "v": 66
    },
    {
      "midi": 93,
      "hit": false,
      "t": 205866.10229166664,
      "d": 142.97020833333954,
      "v": 81
    },
    {
      "midi": 65,
      "hit": false,
      "t": 205868.8517187495,
      "d": 959.5500520833593,
      "v": 99
    },
    {
      "midi": 65,
      "hit": false,
      "t": 205868.85171874994,
      "d": 943.0534895833407,
      "v": 103
    },
    {
      "midi": 26,
      "hit": false,
      "t": 205868.85171875008,
      "d": 929.3063541666779,
      "v": 59
    },
    {
      "midi": 38,
      "hit": false,
      "t": 205868.85171875008,
      "d": 1055.7799999999988,
      "v": 101
    },
    {
      "midi": 62,
      "hit": false,
      "t": 205877.0999999995,
      "d": 907.3109375000058,
      "v": 103
    },
    {
      "midi": 62,
      "hit": false,
      "t": 205877.09999999995,
      "d": 940.3040624999849,
      "v": 99
    },
    {
      "midi": 77,
      "hit": false,
      "t": 205877.10000000003,
      "d": 456.4048958333442,
      "v": 61
    },
    {
      "midi": 57,
      "hit": false,
      "t": 205879.84942708307,
      "d": 1017.2880208333372,
      "v": 74
    },
    {
      "midi": 65,
      "hit": false,
      "t": 205882.5988541664,
      "d": 978.7960416666756,
      "v": 78
    },
    {
      "midi": 57,
      "hit": false,
      "t": 205882.5988541666,
      "d": 954.0511979166768,
      "v": 104
    },
    {
      "midi": 60,
      "hit": false,
      "t": 205885.34828124952,
      "d": 943.0534895833407,
      "v": 101
    },
    {
      "midi": 65,
      "hit": false,
      "t": 205885.34828124984,
      "d": 976.0466145833198,
      "v": 85
    },
    {
      "midi": 71,
      "hit": false,
      "t": 206135.54614583356,
      "d": 175.9633333333186,
      "v": 95
    },
    {
      "midi": 60,
      "hit": false,
      "t": 206138.29557291674,
      "d": 252.94729166667094,
      "v": 84
    },
    {
      "midi": 69,
      "hit": false,
      "t": 206281.26578125023,
      "d": 159.46677083329996,
      "v": 103
    },
    {
      "midi": 69,
      "hit": false,
      "t": 206396.74171875007,
      "d": 296.93812500001513,
      "v": 97
    },
    {
      "midi": 81,
      "hit": false,
      "t": 206407.73942708338,
      "d": 255.69671874999767,
      "v": 61
    },
    {
      "midi": 67,
      "hit": false,
      "t": 206413.2382812502,
      "d": 164.96562500001164,
      "v": 97
    },
    {
      "midi": 65,
      "hit": false,
      "t": 206545.2107812502,
      "d": 153.9679166666756,
      "v": 97
    },
    {
      "midi": 67,
      "hit": false,
      "t": 206660.68671875008,
      "d": 483.89916666666977,
      "v": 90
    },
    {
      "midi": 84,
      "hit": false,
      "t": 206677.18328125004,
      "d": 145.71963541666628,
      "v": 68
    },
    {
      "midi": 67,
      "hit": false,
      "t": 206688.18098958355,
      "d": 164.96562500001164,
      "v": 104
    },
    {
      "midi": 60,
      "hit": false,
      "t": 206932.87999999974,
      "d": 4033.409531250014,
      "v": 77
    },
    {
      "midi": 55,
      "hit": false,
      "t": 206932.87999999974,
      "d": 4044.40723958335,
      "v": 73
    },
    {
      "midi": 52,
      "hit": false,
      "t": 206932.87999999974,
      "d": 4047.1566666666768,
      "v": 82
    },
    {
      "midi": 72,
      "hit": false,
      "t": 206932.87999999995,
      "d": 2183.0451041666674,
      "v": 104
    },
    {
      "midi": 36,
      "hit": false,
      "t": 206932.8800000001,
      "d": 1553.4263020833314,
      "v": 100
    },
    {
      "midi": 24,
      "hit": false,
      "t": 206932.8800000001,
      "d": 1567.1734374999942,
      "v": 56
    },
    {
      "midi": 72,
      "hit": false,
      "t": 206932.8800000003,
      "d": 2056.5714583333465,
      "v": 83
    },
    {
      "midi": 60,
      "hit": false,
      "t": 206941.12828124984,
      "d": 4115.892343749991,
      "v": 85
    },
    {
      "midi": 64,
      "hit": false,
      "t": 206941.12828124996,
      "d": 4036.1589583333407,
      "v": 102
    },
    {
      "midi": 36,
      "hit": false,
      "t": 206941.12828124996,
      "d": 4047.1566666666768,
      "v": 98
    },
    {
      "midi": 55,
      "hit": false,
      "t": 206941.12828124996,
      "d": 4052.6555208333302,
      "v": 104
    },
    {
      "midi": 72,
      "hit": false,
      "t": 206941.12828124998,
      "d": 1833.867864583328,
      "v": 94
    },
    {
      "midi": 67,
      "hit": false,
      "t": 206941.12828125022,
      "d": 725.8487500000338,
      "v": 101
    },
    {
      "midi": 64,
      "hit": false,
      "t": 206943.87770833288,
      "d": 1968.5897916666581,
      "v": 98
    },
    {
      "midi": 55,
      "hit": false,
      "t": 206943.87770833288,
      "d": 1987.8357812500035,
      "v": 100
    },
    {
      "midi": 60,
      "hit": false,
      "t": 206943.87770833288,
      "d": 2001.5829166666663,
      "v": 95
    },
    {
      "midi": 88,
      "hit": false,
      "t": 207205.07328125005,
      "d": 250.1978645833442,
      "v": 65
    },
    {
      "midi": 62,
      "hit": false,
      "t": 207210.57213541673,
      "d": 252.94729166667094,
      "v": 89
    },
    {
      "midi": 58,
      "hit": false,
      "t": 207452.52171875,
      "d": 571.8808333333291,
      "v": 98
    },
    {
      "midi": 84,
      "hit": false,
      "t": 207469.01828125006,
      "d": 263.945000000007,
      "v": 64
    },
    {
      "midi": 64,
      "hit": false,
      "t": 207471.7677083334,
      "d": 255.69671874999767,
      "v": 99
    },
    {
      "midi": 72,
      "hit": false,
      "t": 207732.96328125006,
      "d": 494.8968750000058,
      "v": 89
    },
    {
      "midi": 88,
      "hit": false,
      "t": 207732.96328125006,
      "d": 283.19098958332324,
      "v": 61
    },
    {
      "midi": 67,
      "hit": false,
      "t": 207732.96328125038,
      "d": 673.6096354167094,
      "v": 117
    },
    {
      "midi": 88,
      "hit": false,
      "t": 208260.85328125005,
      "d": 239.20015625000815,
      "v": 64
    },
    {
      "midi": 62,
      "hit": false,
      "t": 208260.85328125008,
      "d": 252.94729166664183,
      "v": 92
    },
    {
      "midi": 64,
      "hit": false,
      "t": 208508.30171875007,
      "d": 277.69213541664067,
      "v": 101
    },
    {
      "midi": 24,
      "hit": false,
      "t": 208508.3017187501,
      "d": 349.17723958333954,
      "v": 59
    },
    {
      "midi": 36,
      "hit": false,
      "t": 208508.3017187501,
      "d": 494.8968750000058,
      "v": 100
    },
    {
      "midi": 72,
      "hit": false,
      "t": 208513.80057291707,
      "d": 104.47822916667792,
      "v": 117
    },
    {
      "midi": 84,
      "hit": false,
      "t": 208524.79828125006,
      "d": 230.95187499999884,
      "v": 63
    },
    {
      "midi": 72,
      "hit": false,
      "t": 208772.24671875004,
      "d": 222.70359374998952,
      "v": 84
    },
    {
      "midi": 74,
      "hit": false,
      "t": 208772.24671875042,
      "d": 725.8487499999464,
      "v": 117
    },
    {
      "midi": 88,
      "hit": false,
      "t": 208777.74557291673,
      "d": 241.94958333333489,
      "v": 66
    },
    {
      "midi": 71,
      "hit": false,
      "t": 209036.19171875002,
      "d": 277.69213541666977,
      "v": 97
    },
    {
      "midi": 24,
      "hit": false,
      "t": 209036.1917187501,
      "d": 2007.0817708333198,
      "v": 62
    },
    {
      "midi": 36,
      "hit": false,
      "t": 209036.1917187501,
      "d": 2111.5599999999977,
      "v": 101
    },
    {
      "midi": 74,
      "hit": false,
      "t": 209052.68828124995,
      "d": 976.0466145833198,
      "v": 101
    },
    {
      "midi": 74,
      "hit": false,
      "t": 209052.6882812503,
      "d": 1039.2834375000093,
      "v": 84
    },
    {
      "midi": 59,
      "hit": false,
      "t": 209055.43770833287,
      "d": 1921.8495312499872,
      "v": 95
    },
    {
      "midi": 55,
      "hit": false,
      "t": 209055.43770833287,
      "d": 1924.598958333314,
      "v": 101
    },
    {
      "midi": 64,
      "hit": false,
      "t": 209058.1871354162,
      "d": 1891.6058333333349,
      "v": 100
    },
    {
      "midi": 88,
      "hit": false,
      "t": 209300.13671875006,
      "d": 252.94729166667094,
      "v": 60
    },
    {
      "midi": 62,
      "hit": false,
      "t": 209316.63328125002,
      "d": 247.44843749998836,
      "v": 91
    },
    {
      "midi": 58,
      "hit": false,
      "t": 209564.08171875,
      "d": 571.8808333333291,
      "v": 102
    },
    {
      "midi": 84,
      "hit": false,
      "t": 209564.08171875007,
      "d": 280.4415624999965,
      "v": 69
    },
    {
      "midi": 64,
      "hit": false,
      "t": 209569.58057291666,
      "d": 274.94270833331393,
      "v": 99
    },
    {
      "midi": 72,
      "hit": false,
      "t": 209580.57828125037,
      "d": 109.9770833333314,
      "v": 118
    },
    {
      "midi": 71,
      "hit": false,
      "t": 209828.02671874998,
      "d": 472.9014583333337,
      "v": 90
    },
    {
      "midi": 88,
      "hit": false,
      "t": 209844.52328125006,
      "d": 261.19557291668025,
      "v": 66
    },
    {
      "midi": 74,
      "hit": false,
      "t": 209844.52328125035,
      "d": 516.8922916666779,
      "v": 116
    },
    {
      "midi": 76,
      "hit": false,
      "t": 210097.47057291662,
      "d": 987.0443229166558,
      "v": 98
    },
    {
      "midi": 76,
      "hit": false,
      "t": 210105.71885416697,
      "d": 940.304062500014,
      "v": 89
    },
    {
      "midi": 88,
      "hit": false,
      "t": 210364.16500000007,
      "d": 255.69671874999767,
      "v": 69
    },
    {
      "midi": 67,
      "hit": false,
      "t": 210375.16270833332,
      "d": 247.44843749998836,
      "v": 84
    },
    {
      "midi": 84,
      "hit": false,
      "t": 210633.60885416673,
      "d": 255.69671874999767,
      "v": 69
    },
    {
      "midi": 71,
      "hit": false,
      "t": 210636.35828124997,
      "d": 247.44843749998836,
      "v": 100
    },
    {
      "midi": 76,
      "hit": false,
      "t": 210636.35828125037,
      "d": 467.40260416668025,
      "v": 109
    },
    {
      "midi": 88,
      "hit": false,
      "t": 210894.80442708338,
      "d": 225.45302083334536,
      "v": 61
    },
    {
      "midi": 69,
      "hit": false,
      "t": 210900.30328124994,
      "d": 417.9129166666535,
      "v": 86
    },
    {
      "midi": 29,
      "hit": false,
      "t": 211147.7517187501,
      "d": 1963.0909375000047,
      "v": 63
    },
    {
      "midi": 41,
      "hit": false,
      "t": 211147.7517187501,
      "d": 2100.5622916666616,
      "v": 99
    },
    {
      "midi": 65,
      "hit": false,
      "t": 211155.99999999983,
      "d": 2034.5760416666744,
      "v": 84
    },
    {
      "midi": 69,
      "hit": false,
      "t": 211158.74942708365,
      "d": 2037.3254687500012,
      "v": 84
    },
    {
      "midi": 57,
      "hit": false,
      "t": 211164.2482812495,
      "d": 1902.6035416666418,
      "v": 103
    },
    {
      "midi": 60,
      "hit": false,
      "t": 211164.24828124975,
      "d": 2034.5760416666744,
      "v": 74
    },
    {
      "midi": 65,
      "hit": false,
      "t": 211164.24828124975,
      "d": 2034.5760416666744,
      "v": 75
    },
    {
      "midi": 69,
      "hit": false,
      "t": 211164.24828124975,
      "d": 2056.5714583333465,
      "v": 80
    },
    {
      "midi": 65,
      "hit": false,
      "t": 211164.24828124995,
      "d": 2031.8266145833477,
      "v": 102
    },
    {
      "midi": 69,
      "hit": false,
      "t": 211164.24828124995,
      "d": 2042.8243229166837,
      "v": 101
    },
    {
      "midi": 72,
      "hit": false,
      "t": 211164.24828124995,
      "d": 2042.8243229166837,
      "v": 100
    },
    {
      "midi": 69,
      "hit": false,
      "t": 211164.2482812504,
      "d": 167.71505208330927,
      "v": 112
    },
    {
      "midi": 60,
      "hit": false,
      "t": 211175.24598958285,
      "d": 1902.6035416666418,
      "v": 95
    },
    {
      "midi": 65,
      "hit": false,
      "t": 211175.24598958285,
      "d": 1908.1023958332953,
      "v": 101
    },
    {
      "midi": 67,
      "hit": false,
      "t": 211296.22078125036,
      "d": 129.22307291667676,
      "v": 109
    },
    {
      "midi": 60,
      "hit": false,
      "t": 211428.19328124993,
      "d": 225.45302083334536,
      "v": 86
    },
    {
      "midi": 81,
      "hit": false,
      "t": 211428.19328125005,
      "d": 272.1932812500163,
      "v": 66
    },
    {
      "midi": 69,
      "hit": false,
      "t": 211428.19328125037,
      "d": 145.71963541666628,
      "v": 117
    },
    {
      "midi": 67,
      "hit": false,
      "t": 211560.16578125037,
      "d": 153.9679166666756,
      "v": 113
    },
    {
      "midi": 58,
      "hit": false,
      "t": 211675.64171875,
      "d": 571.8808333333291,
      "v": 96
    },
    {
      "midi": 65,
      "hit": false,
      "t": 211689.3888541666,
      "d": 274.94270833334303,
      "v": 96
    },
    {
      "midi": 77,
      "hit": false,
      "t": 211692.13828125005,
      "d": 247.44843750001746,
      "v": 64
    },
    {
      "midi": 69,
      "hit": false,
      "t": 211692.13828125037,
      "d": 706.6027604166593,
      "v": 113
    },
    {
      "midi": 69,
      "hit": false,
      "t": 211956.08328124994,
      "d": 527.890000000014,
      "v": 88
    },
    {
      "midi": 72,
      "hit": false,
      "t": 211956.08328125006,
      "d": 560.8831250000221,
      "v": 67
    },
    {
      "midi": 67,
      "hit": false,
      "t": 212352.00078125036,
      "d": 134.72192708333023,
      "v": 112
    },
    {
      "midi": 69,
      "hit": false,
      "t": 212483.97328124996,
      "d": 247.44843749998836,
      "v": 88
    },
    {
      "midi": 77,
      "hit": false,
      "t": 212483.97328125007,
      "d": 244.69901041666162,
      "v": 67
    },
    {
      "midi": 65,
      "hit": false,
      "t": 212483.97328125036,
      "d": 332.6806770832918,
      "v": 118
    },
    {
      "midi": 72,
      "hit": false,
      "t": 212739.67000000033,
      "d": 225.45302083334536,
      "v": 96
    },
    {
      "midi": 84,
      "hit": false,
      "t": 212745.16885416664,
      "d": 109.9770833333314,
      "v": 72
    },
    {
      "midi": 96,
      "hit": false,
      "t": 212745.16885416664,
      "d": 109.9770833333314,
      "v": 87
    },
    {
      "midi": 72,
      "hit": false,
      "t": 212747.91828124993,
      "d": 222.70359374998952,
      "v": 99
    },
    {
      "midi": 84,
      "hit": false,
      "t": 212747.91828125008,
      "d": 266.6944270833337,
      "v": 69
    },
    {
      "midi": 72,
      "hit": false,
      "t": 212753.41713541618,
      "d": 296.93812499998603,
      "v": 104
    },
    {
      "midi": 83,
      "hit": false,
      "t": 212998.11614583342,
      "d": 527.8899999999849,
      "v": 67
    },
    {
      "midi": 71,
      "hit": false,
      "t": 213011.8632812499,
      "d": 472.9014583333337,
      "v": 85
    },
    {
      "midi": 83,
      "hit": false,
      "t": 213011.86328124997,
      "d": 802.8327083333279,
      "v": 68
    },
    {
      "midi": 95,
      "hit": false,
      "t": 213011.86328124997,
      "d": 802.8327083333279,
      "v": 83
    },
    {
      "midi": 71,
      "hit": false,
      "t": 213011.86328125035,
      "d": 753.3430208333011,
      "v": 104
    },
    {
      "midi": 71,
      "hit": false,
      "t": 213025.61041666617,
      "d": 494.8968749999767,
      "v": 103
    },
    {
      "midi": 71,
      "hit": false,
      "t": 213242.81515625032,
      "d": 987.0443229166558,
      "v": 88
    },
    {
      "midi": 64,
      "hit": false,
      "t": 213256.56229166614,
      "d": 981.5454687500314,
      "v": 103
    },
    {
      "midi": 55,
      "hit": false,
      "t": 213259.31171874946,
      "d": 959.5500520833593,
      "v": 97
    },
    {
      "midi": 59,
      "hit": false,
      "t": 213259.31171874946,
      "d": 959.5500520833593,
      "v": 97
    },
    {
      "midi": 59,
      "hit": false,
      "t": 213259.31171874976,
      "d": 1017.2880208333081,
      "v": 78
    },
    {
      "midi": 64,
      "hit": false,
      "t": 213259.31171874984,
      "d": 1058.5294270833256,
      "v": 82
    },
    {
      "midi": 64,
      "hit": false,
      "t": 213259.31171874996,
      "d": 976.0466145833198,
      "v": 99
    },
    {
      "midi": 67,
      "hit": false,
      "t": 213259.31171874996,
      "d": 987.0443229166558,
      "v": 98
    },
    {
      "midi": 71,
      "hit": false,
      "t": 213259.31171874996,
      "d": 1000.7914583333186,
      "v": 95
    },
    {
      "midi": 40,
      "hit": false,
      "t": 213259.3117187501,
      "d": 1055.7799999999988,
      "v": 103
    },
    {
      "midi": 28,
      "hit": false,
      "t": 213259.3117187501,
      "d": 1064.0282812500081,
      "v": 60
    },
    {
      "midi": 67,
      "hit": false,
      "t": 213264.8105729164,
      "d": 1011.7891666666546,
      "v": 79
    },
    {
      "midi": 86,
      "hit": false,
      "t": 213523.25671875008,
      "d": 294.1886979166593,
      "v": 68
    },
    {
      "midi": 67,
      "hit": false,
      "t": 213528.7555729166,
      "d": 505.89458333334187,
      "v": 87
    },
    {
      "midi": 67,
      "hit": false,
      "t": 213537.00385416613,
      "d": 398.6669270833372,
      "v": 96
    },
    {
      "midi": 58,
      "hit": false,
      "t": 213787.20171875,
      "d": 571.8808333333291,
      "v": 102
    },
    {
      "midi": 83,
      "hit": false,
      "t": 213787.2017187501,
      "d": 280.4415624999965,
      "v": 63
    },
    {
      "midi": 72,
      "hit": false,
      "t": 213803.6982812503,
      "d": 142.97020833333954,
      "v": 100
    },
    {
      "midi": 69,
      "hit": false,
      "t": 214051.14671874949,
      "d": 841.3246874999895,
      "v": 103
    },
    {
      "midi": 74,
      "hit": false,
      "t": 214062.14442708367,
      "d": 552.6348437500128,
      "v": 104
    },
    {
      "midi": 69,
      "hit": false,
      "t": 214067.64328124994,
      "d": 687.356770833343,
      "v": 92
    },
    {
      "midi": 79,
      "hit": false,
      "t": 214067.6432812501,
      "d": 214.4553125000093,
      "v": 63
    },
    {
      "midi": 69,
      "hit": false,
      "t": 214309.59286458365,
      "d": 874.3178124999977,
      "v": 83
    },
    {
      "midi": 81,
      "hit": false,
      "t": 214312.34229166663,
      "d": 142.97020833333954,
      "v": 72
    },
    {
      "midi": 93,
      "hit": false,
      "t": 214312.34229166663,
      "d": 142.97020833333954,
      "v": 87
    },
    {
      "midi": 69,
      "hit": false,
      "t": 214315.09171874996,
      "d": 940.3040624999849,
      "v": 102
    },
    {
      "midi": 65,
      "hit": false,
      "t": 214315.09171874996,
      "d": 954.0511979166477,
      "v": 100
    },
    {
      "midi": 26,
      "hit": false,
      "t": 214315.0917187501,
      "d": 929.3063541666779,
      "v": 56
    },
    {
      "midi": 38,
      "hit": false,
      "t": 214315.0917187501,
      "d": 1055.7799999999988,
      "v": 98
    },
    {
      "midi": 77,
      "hit": false,
      "t": 214323.34000000008,
      "d": 456.4048958333442,
      "v": 66
    },
    {
      "midi": 60,
      "hit": false,
      "t": 214326.08942708283,
      "d": 882.5660937499779,
      "v": 100
    },
    {
      "midi": 62,
      "hit": false,
      "t": 214326.08942708283,
      "d": 882.5660937499779,
      "v": 101
    },
    {
      "midi": 57,
      "hit": false,
      "t": 214326.08942708306,
      "d": 1017.2880208333372,
      "v": 73
    },
    {
      "midi": 65,
      "hit": false,
      "t": 214328.8388541664,
      "d": 978.7960416666756,
      "v": 73
    },
    {
      "midi": 62,
      "hit": false,
      "t": 214328.83885416662,
      "d": 934.8052083333314,
      "v": 101
    },
    {
      "midi": 57,
      "hit": false,
      "t": 214331.58828124948,
      "d": 874.3178124999977,
      "v": 101
    },
    {
      "midi": 62,
      "hit": false,
      "t": 214331.58828124983,
      "d": 943.0534895833407,
      "v": 79
    },
    {
      "midi": 77,
      "hit": false,
      "t": 214331.58828125033,
      "d": 456.4048958333442,
      "v": 118
    },
    {
      "midi": 81,
      "hit": false,
      "t": 214853.97942708342,
      "d": 255.69671874999767,
      "v": 68
    },
    {
      "midi": 79,
      "hit": false,
      "t": 214856.728854167,
      "d": 252.94729166667094,
      "v": 116
    },
    {
      "midi": 71,
      "hit": false,
      "t": 214859.47828124996,
      "d": 692.8556249999965,
      "v": 95
    },
    {
      "midi": 71,
      "hit": false,
      "t": 214864.97713541615,
      "d": 258.4461458333244,
      "v": 99
    },
    {
      "midi": 76,
      "hit": false,
      "t": 214864.97713541702,
      "d": 241.94958333333489,
      "v": 102
    },
    {
      "midi": 76,
      "hit": false,
      "t": 215117.9244270837,
      "d": 549.8854166667152,
      "v": 104
    },
    {
      "midi": 84,
      "hit": false,
      "t": 215123.42328125008,
      "d": 145.71963541666628,
      "v": 60
    },
    {
      "midi": 79,
      "hit": false,
      "t": 215123.42328125035,
      "d": 538.8877083333209,
      "v": 117
    },
    {
      "midi": 72,
      "hit": false,
      "t": 215126.1727083328,
      "d": 225.45302083334536,
      "v": 95
    },
    {
      "midi": 64,
      "hit": false,
      "t": 215379.11999999973,
      "d": 2078.5668749999895,
      "v": 80
    },
    {
      "midi": 60,
      "hit": false,
      "t": 215379.11999999973,
      "d": 2089.5645833333256,
      "v": 80
    },
    {
      "midi": 57,
      "hit": false,
      "t": 215379.11999999973,
      "d": 2100.5622916666616,
      "v": 82
    },
    {
      "midi": 64,
      "hit": false,
      "t": 215379.11999999985,
      "d": 2064.819739583356,
      "v": 78
    },
    {
      "midi": 64,
      "hit": false,
      "t": 215379.11999999994,
      "d": 2053.8220312499907,
      "v": 101
    },
    {
      "midi": 72,
      "hit": false,
      "t": 215379.11999999994,
      "d": 2053.8220312499907,
      "v": 102
    },
    {
      "midi": 81,
      "hit": false,
      "t": 215379.11999999994,
      "d": 2053.8220312499907,
      "v": 97
    },
    {
      "midi": 45,
      "hit": false,
      "t": 215379.1200000001,
      "d": 2111.5599999999977,
      "v": 96
    },
    {
      "midi": 33,
      "hit": false,
      "t": 215379.1200000001,
      "d": 2152.801406249986,
      "v": 62
    },
    {
      "midi": 60,
      "hit": false,
      "t": 215387.36828124986,
      "d": 2122.557708333363,
      "v": 78
    },
    {
      "midi": 69,
      "hit": false,
      "t": 215387.36828124998,
      "d": 1833.867864583328,
      "v": 102
    },
    {
      "midi": 84,
      "hit": false,
      "t": 215387.3682812501,
      "d": 272.1932812500163,
      "v": 61
    },
    {
      "midi": 81,
      "hit": false,
      "t": 215387.36828125117,
      "d": 2040.074895833328,
      "v": 60
    },
    {
      "midi": 72,
      "hit": false,
      "t": 215392.86713541613,
      "d": 1910.8518229166802,
      "v": 102
    },
    {
      "midi": 64,
      "hit": false,
      "t": 215392.86713541613,
      "d": 1921.8495312500163,
      "v": 98
    },
    {
      "midi": 69,
      "hit": false,
      "t": 215392.86713541613,
      "d": 1930.0978125000256,
      "v": 97
    },
    {
      "midi": 60,
      "hit": false,
      "t": 215643.06499999994,
      "d": 272.1932812500163,
      "v": 93
    },
    {
      "midi": 81,
      "hit": false,
      "t": 215651.3132812501,
      "d": 250.1978645833442,
      "v": 66
    },
    {
      "midi": 58,
      "hit": false,
      "t": 215898.76171875,
      "d": 571.8808333333291,
      "v": 98
    },
    {
      "midi": 64,
      "hit": false,
      "t": 215907.00999999995,
      "d": 291.43927083333256,
      "v": 98
    },
    {
      "midi": 76,
      "hit": false,
      "t": 215915.2582812501,
      "d": 266.6944270833337,
      "v": 69
    },
    {
      "midi": 69,
      "hit": false,
      "t": 216173.70442708328,
      "d": 508.6440104166686,
      "v": 86
    },
    {
      "midi": 81,
      "hit": false,
      "t": 216179.2032812501,
      "d": 131.9725000000035,
      "v": 60
    },
    {
      "midi": 72,
      "hit": false,
      "t": 216440.39885416706,
      "d": 228.2024479166721,
      "v": 102
    },
    {
      "midi": 84,
      "hit": false,
      "t": 216443.14828125012,
      "d": 258.4461458333244,
      "v": 61
    },
    {
      "midi": 74,
      "hit": false,
      "t": 216696.09557291705,
      "d": 230.95187499999884,
      "v": 97
    },
    {
      "midi": 64,
      "hit": false,
      "t": 216707.09328124995,
      "d": 283.19098958335235,
      "v": 92
    },
    {
      "midi": 81,
      "hit": false,
      "t": 216707.0932812501,
      "d": 269.44385416666046,
      "v": 62
    },
    {
      "midi": 76,
      "hit": false,
      "t": 216954.54171875038,
      "d": 197.9587499999907,
      "v": 102
    },
    {
      "midi": 60,
      "hit": false,
      "t": 216971.03828124996,
      "d": 233.70130208335468,
      "v": 99
    },
    {
      "midi": 76,
      "hit": false,
      "t": 216971.0382812501,
      "d": 252.94729166664183,
      "v": 60
    },
    {
      "midi": 57,
      "hit": false,
      "t": 217218.48671874998,
      "d": 296.93812500001513,
      "v": 90
    },
    {
      "midi": 76,
      "hit": false,
      "t": 217221.2361458337,
      "d": 731.347604166629,
      "v": 100
    },
    {
      "midi": 81,
      "hit": false,
      "t": 217234.98328125008,
      "d": 156.71734375000233,
      "v": 67
    },
    {
      "midi": 64,
      "hit": false,
      "t": 217482.43171874993,
      "d": 1976.8380729166674,
      "v": 96
    },
    {
      "midi": 71,
      "hit": false,
      "t": 217482.43171874993,
      "d": 1998.8334895833395,
      "v": 104
    },
    {
      "midi": 83,
      "hit": false,
      "t": 217482.43171874993,
      "d": 1998.8334895833395,
      "v": 99
    },
    {
      "midi": 32,
      "hit": false,
      "t": 217482.4317187501,
      "d": 2020.8289062500116,
      "v": 64
    },
    {
      "midi": 44,
      "hit": false,
      "t": 217482.4317187501,
      "d": 2111.5599999999977,
      "v": 96
    },
    {
      "midi": 56,
      "hit": false,
      "t": 217487.9305729164,
      "d": 2023.5783333333384,
      "v": 77
    },
    {
      "midi": 56,
      "hit": false,
      "t": 217493.42942708332,
      "d": 1949.3438020833419,
      "v": 95
    },
    {
      "midi": 68,
      "hit": false,
      "t": 217498.9282812495,
      "d": 2012.5806250000023,
      "v": 100
    },
    {
      "midi": 59,
      "hit": false,
      "t": 217498.92828124974,
      "d": 2012.5806250000023,
      "v": 73
    },
    {
      "midi": 64,
      "hit": false,
      "t": 217498.92828124974,
      "d": 2020.8289062500116,
      "v": 73
    },
    {
      "midi": 64,
      "hit": false,
      "t": 217498.9282812499,
      "d": 2067.5691666666826,
      "v": 86
    },
    {
      "midi": 59,
      "hit": false,
      "t": 217498.9282812499,
      "d": 2078.5668750000186,
      "v": 86
    },
    {
      "midi": 83,
      "hit": false,
      "t": 217498.9282812501,
      "d": 272.1932812500163,
      "v": 65
    },
    {
      "midi": 83,
      "hit": false,
      "t": 217498.92828125117,
      "d": 2078.5668749999895,
      "v": 62
    },
    {
      "midi": 71,
      "hit": false,
      "t": 217501.67770833283,
      "d": 1924.598958333343,
      "v": 99
    },
    {
      "midi": 62,
      "hit": false,
      "t": 217501.67770833283,
      "d": 1935.596666666679,
      "v": 101
    },
    {
      "midi": 80,
      "hit": false,
      "t": 217762.8732812501,
      "d": 250.1978645833442,
      "v": 63
    },
    {
      "midi": 58,
      "hit": false,
      "t": 218010.32171875,
      "d": 571.8808333333291,
      "v": 96
    },
    {
      "midi": 76,
      "hit": false,
      "t": 218026.8182812501,
      "d": 263.945000000007,
      "v": 66
    },
    {
      "midi": 77,
      "hit": false,
      "t": 218026.81828125034,
      "d": 307.9358333333512,
      "v": 98
    },
    {
      "midi": 80,
      "hit": false,
      "t": 218290.7632812501,
      "d": 153.9679166666756,
      "v": 67
    },
    {
      "midi": 74,
      "hit": false,
      "t": 218290.76328125034,
      "d": 626.8693749999511,
      "v": 104
    },
    {
      "midi": 83,
      "hit": false,
      "t": 218554.70828125012,
      "d": 263.945000000007,
      "v": 66
    },
    {
      "midi": 80,
      "hit": false,
      "t": 218818.65328125012,
      "d": 261.19557291668025,
      "v": 62
    },
    {
      "midi": 76,
      "hit": false,
      "t": 219082.59828125013,
      "d": 222.70359374998952,
      "v": 64
    },
    {
      "midi": 72,
      "hit": false,
      "t": 219082.5982812503,
      "d": 277.69213541666977,
      "v": 101
    },
    {
      "midi": 80,
      "hit": false,
      "t": 219346.5432812501,
      "d": 140.2207812500128,
      "v": 61
    },
    {
      "midi": 76,
      "hit": false,
      "t": 219346.5432812503,
      "d": 211.70588541665347,
      "v": 99
    },
    {
      "midi": 31,
      "hit": false,
      "t": 219593.9917187501,
      "d": 2023.5783333333384,
      "v": 58
    },
    {
      "midi": 43,
      "hit": false,
      "t": 219593.9917187501,
      "d": 2111.5599999999977,
      "v": 103
    },
    {
      "midi": 84,
      "hit": false,
      "t": 219593.99171875115,
      "d": 2078.5668749999895,
      "v": 66
    },
    {
      "midi": 76,
      "hit": false,
      "t": 219593.99171875115,
      "d": 2111.5599999999977,
      "v": 61
    },
    {
      "midi": 67,
      "hit": false,
      "t": 219602.23999999976,
      "d": 2023.5783333333384,
      "v": 80
    },
    {
      "midi": 55,
      "hit": false,
      "t": 219602.2399999999,
      "d": 2196.7922395833302,
      "v": 79
    },
    {
      "midi": 60,
      "hit": false,
      "t": 219602.23999999993,
      "d": 2020.8289062500116,
      "v": 99
    },
    {
      "midi": 76,
      "hit": false,
      "t": 219602.2400000003,
      "d": 1916.3506770833337,
      "v": 86
    },
    {
      "midi": 55,
      "hit": false,
      "t": 219610.4882812495,
      "d": 1990.5852083333302,
      "v": 101
    },
    {
      "midi": 60,
      "hit": false,
      "t": 219610.4882812495,
      "d": 2009.8311979166756,
      "v": 104
    },
    {
      "midi": 64,
      "hit": false,
      "t": 219610.4882812495,
      "d": 2023.5783333333384,
      "v": 101
    },
    {
      "midi": 64,
      "hit": false,
      "t": 219610.48828124977,
      "d": 1979.5874999999942,
      "v": 78
    },
    {
      "midi": 60,
      "hit": false,
      "t": 219610.48828124977,
      "d": 2023.5783333333384,
      "v": 81
    },
    {
      "midi": 72,
      "hit": false,
      "t": 219610.48828124994,
      "d": 2020.8289062500116,
      "v": 99
    },
    {
      "midi": 76,
      "hit": false,
      "t": 219610.48828124994,
      "d": 2020.8289062500116,
      "v": 103
    },
    {
      "midi": 76,
      "hit": false,
      "t": 219610.4882812503,
      "d": 431.66005208331626,
      "v": 95
    },
    {
      "midi": 55,
      "hit": false,
      "t": 219874.43328125,
      "d": 956.8006250000035,
      "v": 88
    },
    {
      "midi": 69,
      "hit": false,
      "t": 219874.43328125012,
      "d": 159.46677083332906,
      "v": 68
    },
    {
      "midi": 58,
      "hit": false,
      "t": 220121.88171875,
      "d": 571.8808333333291,
      "v": 97
    },
    {
      "midi": 74,
      "hit": false,
      "t": 220127.38057291694,
      "d": 162.2161979166558,
      "v": 98
    },
    {
      "midi": 60,
      "hit": false,
      "t": 220138.3782812499,
      "d": 494.8968750000058,
      "v": 83
    },
    {
      "midi": 60,
      "hit": false,
      "t": 220138.37828125,
      "d": 706.6027604166593,
      "v": 99
    },
    {
      "midi": 72,
      "hit": false,
      "t": 220138.37828125013,
      "d": 96.2299479166686,
      "v": 61
    },
    {
      "midi": 64,
      "hit": false,
      "t": 220402.32328125002,
      "d": 442.6577604166523,
      "v": 90
    },
    {
      "midi": 76,
      "hit": false,
      "t": 220402.32328125014,
      "d": 426.1611979166628,
      "v": 61
    },
    {
      "midi": 74,
      "hit": false,
      "t": 220402.32328125025,
      "d": 753.3430208333011,
      "v": 102
    },
    {
      "midi": 60,
      "hit": false,
      "t": 220649.7717187499,
      "d": 527.890000000014,
      "v": 77
    },
    {
      "midi": 60,
      "hit": false,
      "t": 220913.71671875002,
      "d": 296.93812500001513,
      "v": 88
    },
    {
      "midi": 76,
      "hit": false,
      "t": 220930.21328125012,
      "d": 137.47135416665697,
      "v": 65
    },
    {
      "midi": 59,
      "hit": false,
      "t": 221177.66171875002,
      "d": 266.6944270833337,
      "v": 96
    },
    {
      "midi": 60,
      "hit": false,
      "t": 221194.1582812499,
      "d": 500.3957291666593,
      "v": 83
    },
    {
      "midi": 76,
      "hit": false,
      "t": 221194.1582812501,
      "d": 137.47135416665697,
      "v": 61
    },
    {
      "midi": 72,
      "hit": false,
      "t": 221194.15828125022,
      "d": 195.20932291666395,
      "v": 101
    },
    {
      "midi": 60,
      "hit": false,
      "t": 221441.60671875003,
      "d": 283.19098958335235,
      "v": 93
    },
    {
      "midi": 77,
      "hit": false,
      "t": 221452.60442708366,
      "d": 151.21848958331975,
      "v": 92
    },
    {
      "midi": 76,
      "hit": false,
      "t": 221458.10328125008,
      "d": 178.71276041667443,
      "v": 63
    },
    {
      "midi": 69,
      "hit": false,
      "t": 221458.10328125022,
      "d": 1498.4377604166511,
      "v": 97
    },
    {
      "midi": 76,
      "hit": false,
      "t": 221587.326354167,
      "d": 118.2253645833116,
      "v": 90
    },
    {
      "midi": 74,
      "hit": false,
      "t": 221700.05286458365,
      "d": 1704.6447916667676,
      "v": 90
    },
    {
      "midi": 50,
      "hit": false,
      "t": 221702.8022916662,
      "d": 2001.5829166666663,
      "v": 95
    },
    {
      "midi": 62,
      "hit": false,
      "t": 221705.55171874978,
      "d": 1963.0909375000047,
      "v": 77
    },
    {
      "midi": 57,
      "hit": false,
      "t": 221705.55171874978,
      "d": 1996.0840625000128,
      "v": 73
    },
    {
      "midi": 69,
      "hit": false,
      "t": 221705.55171874978,
      "d": 2062.0703125,
      "v": 81
    },
    {
      "midi": 57,
      "hit": false,
      "t": 221705.5517187499,
      "d": 2040.074895833328,
      "v": 82
    },
    {
      "midi": 57,
      "hit": false,
      "t": 221705.55171874995,
      "d": 2031.8266145833186,
      "v": 101
    },
    {
      "midi": 74,
      "hit": false,
      "t": 221705.55171874995,
      "d": 2031.8266145833186,
      "v": 102
    },
    {
      "midi": 57,
      "hit": false,
      "t": 221705.55171875004,
      "d": 489.39802083335235,
      "v": 103
    },
    {
      "midi": 30,
      "hit": false,
      "t": 221705.5517187501,
      "d": 2004.332343749993,
      "v": 61
    },
    {
      "midi": 42,
      "hit": false,
      "t": 221705.5517187501,
      "d": 2111.5599999999977,
      "v": 98
    },
    {
      "midi": 79,
      "hit": false,
      "t": 221705.55171875033,
      "d": 343.67838541668607,
      "v": 113
    },
    {
      "midi": 71,
      "hit": false,
      "t": 221708.30114583328,
      "d": 1998.8334895833395,
      "v": 99
    },
    {
      "midi": 86,
      "hit": false,
      "t": 221713.80000000115,
      "d": 2001.5829166666663,
      "v": 62
    },
    {
      "midi": 74,
      "hit": false,
      "t": 221722.04828125116,
      "d": 1987.8357812500035,
      "v": 64
    },
    {
      "midi": 57,
      "hit": false,
      "t": 221727.5471354162,
      "d": 1941.0955208333326,
      "v": 98
    },
    {
      "midi": 62,
      "hit": false,
      "t": 221727.5471354162,
      "d": 1957.592083333322,
      "v": 98
    },
    {
      "midi": 81,
      "hit": false,
      "t": 221985.9932812501,
      "d": 269.44385416666046,
      "v": 67
    },
    {
      "midi": 76,
      "hit": false,
      "t": 222117.96578125036,
      "d": 376.6715104166651,
      "v": 117
    },
    {
      "midi": 58,
      "hit": false,
      "t": 222233.44171875,
      "d": 571.8808333333291,
      "v": 97
    },
    {
      "midi": 69,
      "hit": false,
      "t": 222241.6899999999,
      "d": 505.89458333334187,
      "v": 83
    },
    {
      "midi": 57,
      "hit": false,
      "t": 222241.69000000006,
      "d": 197.9587499999907,
      "v": 102
    },
    {
      "midi": 78,
      "hit": false,
      "t": 222241.6900000001,
      "d": 261.19557291665114,
      "v": 61
    },
    {
      "midi": 57,
      "hit": false,
      "t": 222502.8855729167,
      "d": 739.5958854166674,
      "v": 87
    },
    {
      "midi": 74,
      "hit": false,
      "t": 222508.3844270834,
      "d": 360.1749479166756,
      "v": 65
    },
    {
      "midi": 74,
      "hit": false,
      "t": 222629.35921875035,
      "d": 368.4232291666558,
      "v": 111
    },
    {
      "midi": 69,
      "hit": false,
      "t": 222777.82828124988,
      "d": 970.5477604166663,
      "v": 79
    },
    {
      "midi": 72,
      "hit": false,
      "t": 223025.27671875033,
      "d": 580.1291145833675,
      "v": 112
    },
    {
      "midi": 74,
      "hit": false,
      "t": 223030.77557291673,
      "d": 239.20015625000815,
      "v": 64
    },
    {
      "midi": 57,
      "hit": false,
      "t": 223302.9688541667,
      "d": 412.4140625,
      "v": 103
    },
    {
      "midi": 76,
      "hit": false,
      "t": 223305.71828125007,
      "d": 239.20015625000815,
      "v": 68
    },
    {
      "midi": 69,
      "hit": false,
      "t": 223305.7182812502,
      "d": 175.9633333333477,
      "v": 100
    },
    {
      "midi": 72,
      "hit": false,
      "t": 223553.16671875023,
      "d": 181.46218750000116,
      "v": 101
    },
    {
      "midi": 74,
      "hit": false,
      "t": 223566.91385416675,
      "d": 189.71046875001048,
      "v": 64
    },
    {
      "midi": 60,
      "hit": false,
      "t": 223825.35999999952,
      "d": 4069.1520833332906,
      "v": 96
    },
    {
      "midi": 72,
      "hit": false,
      "t": 223825.35999999993,
      "d": 3076.6089062500105,
      "v": 103
    },
    {
      "midi": 65,
      "hit": false,
      "t": 223825.35999999993,
      "d": 4132.388906250009,
      "v": 100
    },
    {
      "midi": 57,
      "hit": false,
      "t": 223825.35999999993,
      "d": 4146.136041666672,
      "v": 96
    },
    {
      "midi": 60,
      "hit": false,
      "t": 223825.36000000004,
      "d": 2034.5760416666744,
      "v": 98
    },
    {
      "midi": 69,
      "hit": false,
      "t": 223825.36000000004,
      "d": 2034.5760416666744,
      "v": 100
    },
    {
      "midi": 29,
      "hit": false,
      "t": 223825.3600000001,
      "d": 1531.4308854166593,
      "v": 57
    },
    {
      "midi": 41,
      "hit": false,
      "t": 223825.3600000001,
      "d": 1553.4263020833314,
      "v": 104
    },
    {
      "midi": 77,
      "hit": false,
      "t": 223828.10942708357,
      "d": 448.1566145833349,
      "v": 101
    },
    {
      "midi": 65,
      "hit": false,
      "t": 223830.85885416617,
      "d": 4058.1543749999837,
      "v": 96
    },
    {
      "midi": 65,
      "hit": false,
      "t": 223833.60828124976,
      "d": 4129.6394791666535,
      "v": 76
    },
    {
      "midi": 53,
      "hit": false,
      "t": 223833.60828124976,
      "d": 4132.38890624998,
      "v": 81
    },
    {
      "midi": 60,
      "hit": false,
      "t": 223833.60828124976,
      "d": 4143.386614583316,
      "v": 77
    },
    {
      "midi": 77,
      "hit": false,
      "t": 223833.60828125116,
      "d": 4146.136041666672,
      "v": 64
    },
    {
      "midi": 57,
      "hit": false,
      "t": 223836.35770833283,
      "d": 3981.1704166666605,
      "v": 98
    },
    {
      "midi": 48,
      "hit": false,
      "t": 223836.35770833338,
      "d": 2070.3185937500093,
      "v": 99
    },
    {
      "midi": 53,
      "hit": false,
      "t": 223836.35770833338,
      "d": 2073.068020833336,
      "v": 101
    },
    {
      "midi": 69,
      "hit": false,
      "t": 223844.60598958284,
      "d": 3959.1749999999884,
      "v": 98
    },
    {
      "midi": 48,
      "hit": false,
      "t": 223844.60598958321,
      "d": 1985.0863541666768,
      "v": 86
    },
    {
      "midi": 67,
      "hit": false,
      "t": 223844.60598958321,
      "d": 2007.0817708333489,
      "v": 85
    },
    {
      "midi": 84,
      "hit": false,
      "t": 224097.5532812501,
      "d": 272.1932812500163,
      "v": 67
    },
    {
      "midi": 58,
      "hit": false,
      "t": 224345.00171875,
      "d": 571.8808333333291,
      "v": 100
    },
    {
      "midi": 81,
      "hit": false,
      "t": 224361.4982812501,
      "d": 269.44385416666046,
      "v": 69
    },
    {
      "midi": 77,
      "hit": false,
      "t": 224361.49828125024,
      "d": 129.22307291667676,
      "v": 97
    },
    {
      "midi": 76,
      "hit": false,
      "t": 224622.69385416692,
      "d": 503.14515625001513,
      "v": 103
    },
    {
      "midi": 77,
      "hit": false,
      "t": 224625.4432812501,
      "d": 316.1841145833314,
      "v": 62
    },
    {
      "midi": 72,
      "hit": false,
      "t": 225136.83671875027,
      "d": 148.46906250002212,
      "v": 104
    },
    {
      "midi": 84,
      "hit": false,
      "t": 225153.3332812501,
      "d": 247.44843749998836,
      "v": 61
    },
    {
      "midi": 29,
      "hit": false,
      "t": 225400.7817187501,
      "d": 406.9152083333465,
      "v": 58
    },
    {
      "midi": 41,
      "hit": false,
      "t": 225400.7817187501,
      "d": 527.890000000014,
      "v": 103
    },
    {
      "midi": 74,
      "hit": false,
      "t": 225400.7817187503,
      "d": 263.945000000007,
      "v": 104
    },
    {
      "midi": 81,
      "hit": false,
      "t": 225417.27828125007,
      "d": 247.44843749998836,
      "v": 64
    },
    {
      "midi": 72,
      "hit": false,
      "t": 225675.72442708365,
      "d": 148.46906249999302,
      "v": 100
    },
    {
      "midi": 77,
      "hit": false,
      "t": 225681.22328125004,
      "d": 211.70588541665347,
      "v": 68
    },
    {
      "midi": 69,
      "hit": false,
      "t": 225807.69692708366,
      "d": 148.46906249999302,
      "v": 102
    },
    {
      "midi": 65,
      "hit": false,
      "t": 225906.67630208324,
      "d": 2100.5622916666616,
      "v": 79
    },
    {
      "midi": 29,
      "hit": false,
      "t": 225928.67171875012,
      "d": 2001.5829166666663,
      "v": 56
    },
    {
      "midi": 41,
      "hit": false,
      "t": 225928.67171875012,
      "d": 2111.5599999999977,
      "v": 104
    },
    {
      "midi": 72,
      "hit": false,
      "t": 225928.67171875032,
      "d": 164.96562499998254,
      "v": 102
    },
    {
      "midi": 53,
      "hit": false,
      "t": 225936.9199999999,
      "d": 2026.3277604166651,
      "v": 86
    },
    {
      "midi": 65,
      "hit": false,
      "t": 225939.66942708337,
      "d": 2018.0794791666558,
      "v": 101
    },
    {
      "midi": 60,
      "hit": false,
      "t": 225942.4188541667,
      "d": 2023.5783333333384,
      "v": 103
    },
    {
      "midi": 53,
      "hit": false,
      "t": 225945.16828125002,
      "d": 2023.5783333333384,
      "v": 103
    },
    {
      "midi": 84,
      "hit": false,
      "t": 225945.16828125002,
      "d": 263.945000000007,
      "v": 62
    },
    {
      "midi": 74,
      "hit": false,
      "t": 226082.63963541697,
      "d": 164.96562500001164,
      "v": 95
    },
    {
      "midi": 81,
      "hit": false,
      "t": 226209.11328125003,
      "d": 261.19557291668025,
      "v": 61
    },
    {
      "midi": 72,
      "hit": false,
      "t": 226214.61213541697,
      "d": 912.8097916666593,
      "v": 96
    },
    {
      "midi": 72,
      "hit": false,
      "t": 226442.81458333373,
      "d": 175.9633333333186,
      "v": 116
    },
    {
      "midi": 58,
      "hit": false,
      "t": 226456.56171875,
      "d": 571.8808333333291,
      "v": 100
    },
    {
      "midi": 77,
      "hit": false,
      "t": 226473.05828125004,
      "d": 214.4553125000093,
      "v": 67
    },
    {
      "midi": 72,
      "hit": false,
      "t": 226720.50671875005,
      "d": 214.4553125000093,
      "v": 62
    },
    {
      "midi": 72,
      "hit": false,
      "t": 226750.75041666703,
      "d": 591.1268229166744,
      "v": 112
    },
    {
      "midi": 74,
      "hit": false,
      "t": 226984.45171874994,
      "d": 489.39802083332324,
      "v": 102
    },
    {
      "midi": 72,
      "hit": false,
      "t": 226995.4494270834,
      "d": 184.2116145833279,
      "v": 69
    },
    {
      "midi": 69,
      "hit": false,
      "t": 227259.39442708364,
      "d": 164.96562500001164,
      "v": 96
    },
    {
      "midi": 81,
      "hit": false,
      "t": 227264.89328125006,
      "d": 173.21390624999185,
      "v": 62
    },
    {
      "midi": 77,
      "hit": false,
      "t": 227515.09114583337,
      "d": 175.9633333333477,
      "v": 67
    },
    {
      "midi": 74,
      "hit": false,
      "t": 227528.83828124995,
      "d": 437.15890624999884,
      "v": 100
    },
    {
      "midi": 69,
      "hit": false,
      "t": 227534.33713541698,
      "d": 164.96562500001164,
      "v": 104
    },
    {
      "midi": 72,
      "hit": false,
      "t": 227779.03614583338,
      "d": 159.46677083332906,
      "v": 67
    },
    {
      "midi": 72,
      "hit": false,
      "t": 227798.282135417,
      "d": 164.96562500001164,
      "v": 103
    },
    {
      "midi": 31,
      "hit": false,
      "t": 228040.23171875012,
      "d": 1457.1963541666628,
      "v": 61
    },
    {
      "midi": 43,
      "hit": false,
      "t": 228040.23171875012,
      "d": 1583.6699999999837,
      "v": 95
    },
    {
      "midi": 79,
      "hit": false,
      "t": 228040.23171875117,
      "d": 2078.5668749999895,
      "v": 60
    },
    {
      "midi": 62,
      "hit": false,
      "t": 228048.4799999995,
      "d": 2067.5691666666535,
      "v": 103
    },
    {
      "midi": 60,
      "hit": false,
      "t": 228048.4799999995,
      "d": 2073.068020833307,
      "v": 100
    },
    {
      "midi": 55,
      "hit": false,
      "t": 228048.47999999975,
      "d": 1913.601250000007,
      "v": 79
    },
    {
      "midi": 62,
      "hit": false,
      "t": 228048.47999999975,
      "d": 1957.5920833333512,
      "v": 77
    },
    {
      "midi": 55,
      "hit": false,
      "t": 228048.4799999999,
      "d": 2100.5622916666616,
      "v": 81
    },
    {
      "midi": 79,
      "hit": false,
      "t": 228048.47999999992,
      "d": 1998.8334895833395,
      "v": 97
    },
    {
      "midi": 72,
      "hit": false,
      "t": 228048.47999999992,
      "d": 2031.8266145833477,
      "v": 99
    },
    {
      "midi": 62,
      "hit": false,
      "t": 228048.47999999992,
      "d": 2042.8243229166837,
      "v": 103
    },
    {
      "midi": 77,
      "hit": false,
      "t": 228048.48000000033,
      "d": 307.9358333333221,
      "v": 96
    },
    {
      "midi": 67,
      "hit": false,
      "t": 228051.2294270828,
      "d": 2048.323177083337,
      "v": 98
    },
    {
      "midi": 55,
      "hit": false,
      "t": 228053.9788541667,
      "d": 302.4369791666686,
      "v": 103
    },
    {
      "midi": 62,
      "hit": false,
      "t": 228056.7282812499,
      "d": 2078.5668749999895,
      "v": 78
    },
    {
      "midi": 60,
      "hit": false,
      "t": 228320.67328125003,
      "d": 214.4553125000093,
      "v": 91
    },
    {
      "midi": 84,
      "hit": false,
      "t": 228337.16984375005,
      "d": 272.1932812499872,
      "v": 63
    },
    {
      "midi": 58,
      "hit": false,
      "t": 228568.12171875,
      "d": 571.8808333333291,
      "v": 99
    },
    {
      "midi": 62,
      "hit": false,
      "t": 228576.37000000002,
      "d": 214.4553125000093,
      "v": 98
    },
    {
      "midi": 79,
      "hit": false,
      "t": 228579.11942708338,
      "d": 263.9449999999779,
      "v": 61
    },
    {
      "midi": 77,
      "hit": false,
      "t": 228579.11942708364,
      "d": 285.9404166666791,
      "v": 95
    },
    {
      "midi": 74,
      "hit": false,
      "t": 228832.06671875002,
      "d": 329.9312499999942,
      "v": 69
    },
    {
      "midi": 62,
      "hit": false,
      "t": 228840.31500000003,
      "d": 527.8899999999849,
      "v": 90
    },
    {
      "midi": 76,
      "hit": false,
      "t": 228843.06442708365,
      "d": 244.69901041666162,
      "v": 95
    },
    {
      "midi": 60,
      "hit": false,
      "t": 229362.70614583336,
      "d": 252.94729166664183,
      "v": 85
    },
    {
      "midi": 74,
      "hit": false,
      "t": 229376.45328125032,
      "d": 181.46218750000116,
      "v": 99
    },
    {
      "midi": 84,
      "hit": false,
      "t": 229395.69927083334,
      "d": 266.6944270833337,
      "v": 69
    },
    {
      "midi": 31,
      "hit": false,
      "t": 229623.9017187501,
      "d": 434.4094791666721,
      "v": 56
    },
    {
      "midi": 43,
      "hit": false,
      "t": 229623.9017187501,
      "d": 527.890000000014,
      "v": 95
    },
    {
      "midi": 62,
      "hit": false,
      "t": 229637.64885416668,
      "d": 428.9106249999895,
      "v": 102
    },
    {
      "midi": 79,
      "hit": false,
      "t": 229640.39828125032,
      "d": 2287.5233333334327,
      "v": 97
    },
    {
      "midi": 79,
      "hit": false,
      "t": 229645.8971354167,
      "d": 258.4461458333244,
      "v": 69
    },
    {
      "midi": 58,
      "hit": false,
      "t": 229656.89484375,
      "d": 571.8808333333291,
      "v": 101
    },
    {
      "midi": 74,
      "hit": false,
      "t": 229896.095,
      "d": 261.19557291668025,
      "v": 66
    },
    {
      "midi": 61,
      "hit": false,
      "t": 230151.79171874988,
      "d": 2012.5806250000314,
      "v": 80
    },
    {
      "midi": 61,
      "hit": false,
      "t": 230151.79171874994,
      "d": 1976.8380729166674,
      "v": 99
    },
    {
      "midi": 68,
      "hit": false,
      "t": 230151.79171874994,
      "d": 1985.0863541666768,
      "v": 95
    },
    {
      "midi": 63,
      "hit": false,
      "t": 230151.79171875,
      "d": 2103.3117187499884,
      "v": 101
    },
    {
      "midi": 32,
      "hit": false,
      "t": 230151.79171875012,
      "d": 2062.0703125,
      "v": 64
    },
    {
      "midi": 44,
      "hit": false,
      "t": 230151.79171875012,
      "d": 2111.5599999999977,
      "v": 99
    },
    {
      "midi": 51,
      "hit": false,
      "t": 230160.0399999999,
      "d": 1971.339218750014,
      "v": 78
    },
    {
      "midi": 63,
      "hit": false,
      "t": 230168.28828124976,
      "d": 2020.8289062500116,
      "v": 80
    },
    {
      "midi": 56,
      "hit": false,
      "t": 230168.28828124976,
      "d": 2026.3277604166651,
      "v": 80
    },
    {
      "midi": 80,
      "hit": false,
      "t": 230168.28828124993,
      "d": 2012.5806250000314,
      "v": 97
    },
    {
      "midi": 80,
      "hit": false,
      "t": 230168.28828125115,
      "d": 2029.0771874999919,
      "v": 61
    },
    {
      "midi": 68,
      "hit": false,
      "t": 230171.0377083328,
      "d": 2031.8266145833477,
      "v": 104
    },
    {
      "midi": 61,
      "hit": false,
      "t": 230171.0377083328,
      "d": 2037.3254687500012,
      "v": 98
    },
    {
      "midi": 63,
      "hit": false,
      "t": 230171.0377083328,
      "d": 2040.074895833328,
      "v": 95
    },
    {
      "midi": 85,
      "hit": false,
      "t": 230432.23328125002,
      "d": 272.1932812500163,
      "v": 68
    },
    {
      "midi": 80,
      "hit": false,
      "t": 230696.17828125003,
      "d": 283.19098958335235,
      "v": 65
    },
    {
      "midi": 75,
      "hit": false,
      "t": 230960.12328125004,
      "d": 239.20015625000815,
      "v": 68
    },
    {
      "midi": 85,
      "hit": false,
      "t": 231224.06828125005,
      "d": 291.43927083333256,
      "v": 61
    },
    {
      "midi": 80,
      "hit": false,
      "t": 231488.01328125005,
      "d": 266.6944270833046,
      "v": 65
    },
    {
      "midi": 75,
      "hit": false,
      "t": 231751.95828125003,
      "d": 269.44385416666046,
      "v": 62
    },
    {
      "midi": 85,
      "hit": false,
      "t": 232015.90328125004,
      "d": 208.95645833332674,
      "v": 63
    },
    {
      "midi": 80,
      "hit": false,
      "t": 232257.85286458448,
      "d": 494.8968750000058,
      "v": 61
    },
    {
      "midi": 63,
      "hit": false,
      "t": 232268.85057291642,
      "d": 417.9129166666535,
      "v": 80
    },
    {
      "midi": 56,
      "hit": false,
      "t": 232268.85057291642,
      "d": 439.9083333333256,
      "v": 81
    },
    {
      "midi": 32,
      "hit": false,
      "t": 232271.60000000012,
      "d": 791.835000000021,
      "v": 103
    },
    {
      "midi": 44,
      "hit": false,
      "t": 232271.60000000012,
      "d": 791.835000000021,
      "v": 104
    },
    {
      "midi": 61,
      "hit": false,
      "t": 232274.34942708325,
      "d": 439.9083333333547,
      "v": 81
    },
    {
      "midi": 63,
      "hit": false,
      "t": 232274.34942708333,
      "d": 395.9175000000105,
      "v": 96
    },
    {
      "midi": 80,
      "hit": false,
      "t": 232279.84828124996,
      "d": 420.6623437499802,
      "v": 96
    },
    {
      "midi": 51,
      "hit": false,
      "t": 232282.59770833325,
      "d": 450.9060416666907,
      "v": 78
    },
    {
      "midi": 61,
      "hit": false,
      "t": 232285.34713541612,
      "d": 428.9106249999895,
      "v": 100
    },
    {
      "midi": 68,
      "hit": false,
      "t": 232285.34713541612,
      "d": 428.9106249999895,
      "v": 100
    },
    {
      "midi": 63,
      "hit": false,
      "t": 232285.34713541612,
      "d": 445.40718749997905,
      "v": 97
    },
    {
      "midi": 68,
      "hit": false,
      "t": 232285.3471354166,
      "d": 305.18640624999534,
      "v": 104
    },
    {
      "midi": 61,
      "hit": false,
      "t": 232285.3471354166,
      "d": 316.1841145833314,
      "v": 104
    },
    {
      "midi": 80,
      "hit": false,
      "t": 232290.84598958335,
      "d": 283.19098958332324,
      "v": 67
    },
    {
      "midi": 78,
      "hit": false,
      "t": 233335.6282812504,
      "d": 934.8052083333314,
      "v": 113
    },
    {
      "midi": 81,
      "hit": false,
      "t": 233335.62828125042,
      "d": 901.8120833333523,
      "v": 103
    },
    {
      "midi": 45,
      "hit": false,
      "t": 234383.16,
      "d": 27.494270833325572,
      "v": 44
    },
    {
      "midi": 79,
      "hit": false,
      "t": 234385.90942708374,
      "d": 967.7983333333395,
      "v": 117
    },
    {
      "midi": 83,
      "hit": false,
      "t": 234385.90942708377,
      "d": 989.7937500000407,
      "v": 102
    },
    {
      "midi": 45,
      "hit": false,
      "t": 234457.39453125,
      "d": 27.494270833325572,
      "v": 45
    },
    {
      "midi": 45,
      "hit": false,
      "t": 234523.38078125,
      "d": 27.494270833325572,
      "v": 46
    },
    {
      "midi": 45,
      "hit": false,
      "t": 234572.87046874998,
      "d": 27.494270833325572,
      "v": 46
    },
    {
      "midi": 45,
      "hit": false,
      "t": 234638.85671874997,
      "d": 27.494270833325572,
      "v": 47
    },
    {
      "midi": 45,
      "hit": false,
      "t": 234721.33953124998,
      "d": 27.494270833325572,
      "v": 48
    },
    {
      "midi": 45,
      "hit": false,
      "t": 234781.8269270833,
      "d": 27.494270833325572,
      "v": 49
    },
    {
      "midi": 45,
      "hit": false,
      "t": 234836.81546874996,
      "d": 27.494270833325572,
      "v": 49
    },
    {
      "midi": 45,
      "hit": false,
      "t": 234902.80171874995,
      "d": 27.494270833325572,
      "v": 50
    },
    {
      "midi": 45,
      "hit": false,
      "t": 234985.28453124996,
      "d": 27.494270833325572,
      "v": 51
    },
    {
      "midi": 45,
      "hit": false,
      "t": 235045.7719270833,
      "d": 27.494270833325572,
      "v": 51
    },
    {
      "midi": 45,
      "hit": false,
      "t": 235100.76046874994,
      "d": 27.494270833325572,
      "v": 52
    },
    {
      "midi": 45,
      "hit": false,
      "t": 235183.24328124995,
      "d": 27.494270833325572,
      "v": 54
    },
    {
      "midi": 45,
      "hit": false,
      "t": 235249.22953124993,
      "d": 27.494270833325572,
      "v": 56
    },
    {
      "midi": 45,
      "hit": false,
      "t": 235309.71692708327,
      "d": 27.494270833325572,
      "v": 58
    },
    {
      "midi": 45,
      "hit": false,
      "t": 235364.70546874992,
      "d": 27.494270833325572,
      "v": 60
    },
    {
      "midi": 79,
      "hit": false,
      "t": 235441.68942708374,
      "d": 945.8029166666674,
      "v": 110
    },
    {
      "midi": 45,
      "hit": false,
      "t": 235447.18828124992,
      "d": 27.494270833325572,
      "v": 62
    },
    {
      "midi": 81,
      "hit": false,
      "t": 235452.68713541713,
      "d": 912.8097916666593,
      "v": 102
    },
    {
      "midi": 45,
      "hit": false,
      "t": 235513.1745312499,
      "d": 27.494270833325572,
      "v": 64
    },
    {
      "midi": 45,
      "hit": false,
      "t": 235573.66192708325,
      "d": 27.494270833325572,
      "v": 66
    },
    {
      "midi": 45,
      "hit": false,
      "t": 235628.6504687499,
      "d": 27.494270833325572,
      "v": 68
    },
    {
      "midi": 45,
      "hit": false,
      "t": 235697.3861458332,
      "d": 27.494270833325572,
      "v": 70
    },
    {
      "midi": 45,
      "hit": false,
      "t": 235777.11953124986,
      "d": 27.494270833325572,
      "v": 75
    },
    {
      "midi": 45,
      "hit": false,
      "t": 235843.10578124985,
      "d": 27.494270833325572,
      "v": 80
    },
    {
      "midi": 45,
      "hit": false,
      "t": 235892.59546874985,
      "d": 27.494270833325572,
      "v": 83
    },
    {
      "midi": 45,
      "hit": false,
      "t": 235975.07828124985,
      "d": 27.494270833325572,
      "v": 89
    },
    {
      "midi": 45,
      "hit": false,
      "t": 236041.06453124984,
      "d": 27.494270833325572,
      "v": 93
    },
    {
      "midi": 45,
      "hit": false,
      "t": 236107.05078124983,
      "d": 27.494270833325572,
      "v": 97
    },
    {
      "midi": 45,
      "hit": false,
      "t": 236173.0370312498,
      "d": 27.494270833325572,
      "v": 102
    },
    {
      "midi": 45,
      "hit": false,
      "t": 236239.0232812498,
      "d": 27.494270833325572,
      "v": 106
    },
    {
      "midi": 45,
      "hit": false,
      "t": 236305.0095312498,
      "d": 27.494270833325572,
      "v": 111
    },
    {
      "midi": 45,
      "hit": false,
      "t": 236370.99578124977,
      "d": 27.494270833325572,
      "v": 115
    },
    {
      "midi": 45,
      "hit": false,
      "t": 236436.98203124976,
      "d": 27.494270833325572,
      "v": 120
    },
    {
      "midi": 50,
      "hit": false,
      "t": 236486.47171874976,
      "d": 27.494270833325572,
      "v": 123
    },
    {
      "midi": 57,
      "hit": false,
      "t": 236494.71999999974,
      "d": 1979.5874999999942,
      "v": 74
    },
    {
      "midi": 62,
      "hit": false,
      "t": 236494.71999999974,
      "d": 2001.5829166666663,
      "v": 74
    },
    {
      "midi": 66,
      "hit": false,
      "t": 236494.71999999974,
      "d": 4168.131458333315,
      "v": 82
    },
    {
      "midi": 50,
      "hit": false,
      "t": 236494.71999999994,
      "d": 2053.8220312499907,
      "v": 102
    },
    {
      "midi": 78,
      "hit": false,
      "t": 236494.71999999994,
      "d": 4077.400364583329,
      "v": 104
    },
    {
      "midi": 66,
      "hit": false,
      "t": 236494.71999999994,
      "d": 4088.398072916665,
      "v": 96
    },
    {
      "midi": 69,
      "hit": false,
      "t": 236494.71999999994,
      "d": 4088.398072916665,
      "v": 97
    },
    {
      "midi": 64,
      "hit": false,
      "t": 236494.71999999994,
      "d": 1044.7822916666628,
      "v": 85
    },
    {
      "midi": 26,
      "hit": false,
      "t": 236494.72000000018,
      "d": 1534.180312499986,
      "v": 56
    },
    {
      "midi": 38,
      "hit": false,
      "t": 236494.72000000018,
      "d": 1583.6699999999837,
      "v": 97
    },
    {
      "midi": 74,
      "hit": false,
      "t": 236494.7200000002,
      "d": 736.8464583333407,
      "v": 107
    },
    {
      "midi": 81,
      "hit": false,
      "t": 236494.72000000114,
      "d": 516.8922916666779,
      "v": 65
    },
    {
      "midi": 62,
      "hit": false,
      "t": 236500.2188541661,
      "d": 2045.5737500000105,
      "v": 99
    },
    {
      "midi": 66,
      "hit": false,
      "t": 236502.96828124943,
      "d": 2023.5783333333384,
      "v": 99
    },
    {
      "midi": 57,
      "hit": false,
      "t": 236502.96828124943,
      "d": 2067.5691666666826,
      "v": 102
    },
    {
      "midi": 62,
      "hit": false,
      "t": 236502.96828125,
      "d": 676.359062500007,
      "v": 100
    },
    {
      "midi": 66,
      "hit": false,
      "t": 236502.96828125,
      "d": 676.359062500007,
      "v": 95
    },
    {
      "midi": 78,
      "hit": false,
      "t": 236502.96828125042,
      "d": 494.8968749999767,
      "v": 113
    },
    {
      "midi": 81,
      "hit": false,
      "t": 236502.96828125045,
      "d": 483.8991666666989,
      "v": 103
    },
    {
      "midi": 57,
      "hit": false,
      "t": 236524.96369791668,
      "d": 714.8510416666686,
      "v": 95
    },
    {
      "midi": 78,
      "hit": false,
      "t": 237017.11114583447,
      "d": 250.1978645833442,
      "v": 63
    },
    {
      "midi": 74,
      "hit": false,
      "t": 237030.8582812504,
      "d": 115.47593750001397,
      "v": 117
    },
    {
      "midi": 78,
      "hit": false,
      "t": 237030.8582812505,
      "d": 131.9725000000035,
      "v": 96
    },
    {
      "midi": 76,
      "hit": false,
      "t": 237278.30671875115,
      "d": 277.69213541666977,
      "v": 60
    },
    {
      "midi": 57,
      "hit": false,
      "t": 237283.8055729167,
      "d": 676.359062500007,
      "v": 86
    },
    {
      "midi": 62,
      "hit": false,
      "t": 237283.8055729167,
      "d": 676.359062500007,
      "v": 93
    },
    {
      "midi": 78,
      "hit": false,
      "t": 237292.05385416717,
      "d": 668.1107812499686,
      "v": 95
    },
    {
      "midi": 66,
      "hit": false,
      "t": 237294.80328125003,
      "d": 764.3407291666663,
      "v": 90
    },
    {
      "midi": 74,
      "hit": false,
      "t": 237294.8032812504,
      "d": 665.3613541666418,
      "v": 117
    },
    {
      "midi": 62,
      "hit": false,
      "t": 237542.25171874993,
      "d": 533.3888541666674,
      "v": 78
    },
    {
      "midi": 74,
      "hit": false,
      "t": 237542.25171875115,
      "d": 464.6531770833244,
      "v": 62
    },
    {
      "midi": 73,
      "hit": false,
      "t": 238050.89572916782,
      "d": 148.46906249999302,
      "v": 68
    },
    {
      "midi": 57,
      "hit": false,
      "t": 238070.14171874995,
      "d": 582.8785416666651,
      "v": 84
    },
    {
      "midi": 18,
      "hit": false,
      "t": 238070.14171875015,
      "d": 261.19557291668025,
      "v": 61
    },
    {
      "midi": 30,
      "hit": false,
      "t": 238070.14171875015,
      "d": 263.945000000007,
      "v": 101
    },
    {
      "midi": 73,
      "hit": false,
      "t": 238070.1417187504,
      "d": 263.945000000007,
      "v": 113
    },
    {
      "midi": 76,
      "hit": false,
      "t": 238070.14171875047,
      "d": 263.945000000007,
      "v": 100
    },
    {
      "midi": 64,
      "hit": false,
      "t": 238072.89114583336,
      "d": 250.1978645833151,
      "v": 95
    },
    {
      "midi": 61,
      "hit": false,
      "t": 238075.6405729167,
      "d": 241.94958333333489,
      "v": 99
    },
    {
      "midi": 71,
      "hit": false,
      "t": 238213.11192708448,
      "d": 197.9587499999907,
      "v": 68
    },
    {
      "midi": 69,
      "hit": false,
      "t": 238334.08671875,
      "d": 283.19098958335235,
      "v": 91
    },
    {
      "midi": 21,
      "hit": false,
      "t": 238334.08671875016,
      "d": 261.19557291668025,
      "v": 60
    },
    {
      "midi": 33,
      "hit": false,
      "t": 238334.08671875016,
      "d": 263.945000000007,
      "v": 97
    },
    {
      "midi": 74,
      "hit": false,
      "t": 238334.08671875042,
      "d": 258.4461458333535,
      "v": 110
    },
    {
      "midi": 78,
      "hit": false,
      "t": 238334.08671875048,
      "d": 266.6944270833337,
      "v": 104
    },
    {
      "midi": 69,
      "hit": false,
      "t": 238347.8338541678,
      "d": 228.2024479166721,
      "v": 62
    },
    {
      "midi": 59,
      "hit": false,
      "t": 238598.03171874973,
      "d": 1963.0909375000047,
      "v": 78
    },
    {
      "midi": 62,
      "hit": false,
      "t": 238598.03171874973,
      "d": 1963.0909375000047,
      "v": 74
    },
    {
      "midi": 47,
      "hit": false,
      "t": 238598.03171874993,
      "d": 2009.8311979166756,
      "v": 102
    },
    {
      "midi": 66,
      "hit": false,
      "t": 238598.03171875002,
      "d": 1476.4423437500081,
      "v": 102
    },
    {
      "midi": 23,
      "hit": false,
      "t": 238598.03171875016,
      "d": 692.8556249999965,
      "v": 62
    },
    {
      "midi": 35,
      "hit": false,
      "t": 238598.03171875016,
      "d": 791.8349999999919,
      "v": 103
    },
    {
      "midi": 62,
      "hit": false,
      "t": 238609.02942708327,
      "d": 943.0534895833407,
      "v": 81
    },
    {
      "midi": 62,
      "hit": false,
      "t": 238611.7788541661,
      "d": 2045.5737499999814,
      "v": 97
    },
    {
      "midi": 74,
      "hit": false,
      "t": 238611.77885416689,
      "d": 775.3384374999732,
      "v": 107
    },
    {
      "midi": 59,
      "hit": false,
      "t": 238614.52828124943,
      "d": 2045.5737499999814,
      "v": 98
    },
    {
      "midi": 66,
      "hit": false,
      "t": 238614.52828124943,
      "d": 2048.323177083308,
      "v": 99
    },
    {
      "midi": 74,
      "hit": false,
      "t": 238620.02713541783,
      "d": 712.1016145833419,
      "v": 67
    },
    {
      "midi": 73,
      "hit": false,
      "t": 239381.6184375002,
      "d": 145.71963541663717,
      "v": 107
    },
    {
      "midi": 59,
      "hit": false,
      "t": 239389.86671875004,
      "d": 208.95645833332674,
      "v": 84
    },
    {
      "midi": 23,
      "hit": false,
      "t": 239389.86671875016,
      "d": 156.71734375000233,
      "v": 56
    },
    {
      "midi": 35,
      "hit": false,
      "t": 239389.86671875016,
      "d": 263.945000000007,
      "v": 101
    },
    {
      "midi": 73,
      "hit": false,
      "t": 239389.86671875117,
      "d": 175.9633333333186,
      "v": 63
    },
    {
      "midi": 78,
      "hit": false,
      "t": 239403.61385416714,
      "d": 156.71734375000233,
      "v": 104
    },
    {
      "midi": 74,
      "hit": false,
      "t": 239406.36328125044,
      "d": 153.9679166666756,
      "v": 114
    },
    {
      "midi": 71,
      "hit": false,
      "t": 239499.84380208352,
      "d": 156.71734375000233,
      "v": 107
    },
    {
      "midi": 71,
      "hit": false,
      "t": 239524.5886458345,
      "d": 173.21390624999185,
      "v": 66
    },
    {
      "midi": 23,
      "hit": false,
      "t": 239653.81171875016,
      "d": 505.89458333334187,
      "v": 61
    },
    {
      "midi": 35,
      "hit": false,
      "t": 239653.81171875016,
      "d": 527.890000000014,
      "v": 96
    },
    {
      "midi": 74,
      "hit": false,
      "t": 239653.81171875045,
      "d": 272.1932812500163,
      "v": 117
    },
    {
      "midi": 78,
      "hit": false,
      "t": 239653.81171875048,
      "d": 285.9404166666791,
      "v": 97
    },
    {
      "midi": 69,
      "hit": false,
      "t": 239653.81171875115,
      "d": 940.304062500014,
      "v": 64
    },
    {
      "midi": 62,
      "hit": false,
      "t": 239656.5611458333,
      "d": 255.69671874999767,
      "v": 85
    },
    {
      "midi": 59,
      "hit": false,
      "t": 239656.56114583337,
      "d": 415.16348958332674,
      "v": 96
    },
    {
      "midi": 69,
      "hit": false,
      "t": 239659.31057291685,
      "d": 888.0649479166605,
      "v": 101
    },
    {
      "midi": 64,
      "hit": false,
      "t": 239917.75671874994,
      "d": 291.43927083333256,
      "v": 77
    },
    {
      "midi": 76,
      "hit": false,
      "t": 239917.75671875046,
      "d": 285.9404166666791,
      "v": 118
    },
    {
      "midi": 79,
      "hit": false,
      "t": 239917.7567187505,
      "d": 307.9358333333512,
      "v": 96
    },
    {
      "midi": 66,
      "hit": false,
      "t": 240181.70171874994,
      "d": 472.9014583333337,
      "v": 80
    },
    {
      "midi": 59,
      "hit": false,
      "t": 240181.70171875003,
      "d": 494.8968750000058,
      "v": 97
    },
    {
      "midi": 66,
      "hit": false,
      "t": 240181.70171875003,
      "d": 503.14515625001513,
      "v": 104
    },
    {
      "midi": 35,
      "hit": false,
      "t": 240181.70171875018,
      "d": 244.69901041666162,
      "v": 62
    },
    {
      "midi": 47,
      "hit": false,
      "t": 240181.70171875018,
      "d": 263.945000000007,
      "v": 103
    },
    {
      "midi": 78,
      "hit": false,
      "t": 240181.70171875047,
      "d": 472.9014583333337,
      "v": 117
    },
    {
      "midi": 81,
      "hit": false,
      "t": 240181.7017187505,
      "d": 467.40260416668025,
      "v": 99
    },
    {
      "midi": 23,
      "hit": false,
      "t": 240445.64671875018,
      "d": 236.4507291666523,
      "v": 56
    },
    {
      "midi": 35,
      "hit": false,
      "t": 240445.64671875018,
      "d": 263.9449999999779,
      "v": 104
    },
    {
      "midi": 62,
      "hit": false,
      "t": 240717.8399999994,
      "d": 2095.063437500008,
      "v": 100
    },
    {
      "midi": 69,
      "hit": false,
      "t": 240717.8399999994,
      "d": 3084.8571874999907,
      "v": 101
    },
    {
      "midi": 64,
      "hit": false,
      "t": 240717.8399999994,
      "d": 3150.843437499978,
      "v": 101
    },
    {
      "midi": 62,
      "hit": false,
      "t": 240717.83999999973,
      "d": 2111.5599999999977,
      "v": 79
    },
    {
      "midi": 64,
      "hit": false,
      "t": 240717.83999999973,
      "d": 3123.3491666666523,
      "v": 80
    },
    {
      "midi": 57,
      "hit": false,
      "t": 240717.83999999973,
      "d": 4025.1612499999756,
      "v": 73
    },
    {
      "midi": 45,
      "hit": false,
      "t": 240717.83999999994,
      "d": 2029.0771874999919,
      "v": 104
    },
    {
      "midi": 62,
      "hit": false,
      "t": 240717.83999999994,
      "d": 2086.815156249999,
      "v": 102
    },
    {
      "midi": 64,
      "hit": false,
      "t": 240717.83999999994,
      "d": 3120.5997395833256,
      "v": 103
    },
    {
      "midi": 69,
      "hit": false,
      "t": 240717.83999999994,
      "d": 3120.5997395833256,
      "v": 102
    },
    {
      "midi": 64,
      "hit": false,
      "t": 240717.83999999994,
      "d": 1712.8930729166605,
      "v": 85
    },
    {
      "midi": 62,
      "hit": false,
      "t": 240717.84000000005,
      "d": 516.8922916666779,
      "v": 100
    },
    {
      "midi": 57,
      "hit": false,
      "t": 240717.84000000005,
      "d": 2598.208593749994,
      "v": 100
    },
    {
      "midi": 33,
      "hit": false,
      "t": 240717.84000000017,
      "d": 1567.1734374999942,
      "v": 58
    },
    {
      "midi": 45,
      "hit": false,
      "t": 240717.84000000017,
      "d": 1583.6700000000128,
      "v": 102
    },
    {
      "midi": 64,
      "hit": false,
      "t": 240717.84000000017,
      "d": 494.8968750000058,
      "v": 79
    },
    {
      "midi": 62,
      "hit": false,
      "t": 240717.84000000017,
      "d": 500.3957291666593,
      "v": 81
    },
    {
      "midi": 69,
      "hit": false,
      "t": 240717.84000000017,
      "d": 514.1428645833221,
      "v": 78
    },
    {
      "midi": 78,
      "hit": false,
      "t": 240717.84000000046,
      "d": 527.890000000014,
      "v": 115
    },
    {
      "midi": 83,
      "hit": false,
      "t": 240717.84000000052,
      "d": 516.8922916666779,
      "v": 103
    },
    {
      "midi": 76,
      "hit": false,
      "t": 240726.08828125117,
      "d": 962.299479166657,
      "v": 60
    },
    {
      "midi": 62,
      "hit": false,
      "t": 241237.48171875006,
      "d": 252.94729166667094,
      "v": 99
    },
    {
      "midi": 62,
      "hit": false,
      "t": 241237.48171875015,
      "d": 137.47135416665697,
      "v": 76
    },
    {
      "midi": 64,
      "hit": false,
      "t": 241237.48171875015,
      "d": 137.47135416665697,
      "v": 74
    },
    {
      "midi": 76,
      "hit": false,
      "t": 241237.48171875047,
      "d": 131.9725000000035,
      "v": 112
    },
    {
      "midi": 81,
      "hit": false,
      "t": 241237.48171875053,
      "d": 120.97479166666744,
      "v": 104
    },
    {
      "midi": 69,
      "hit": false,
      "t": 241251.2288541668,
      "d": 109.9770833333314,
      "v": 77
    },
    {
      "midi": 62,
      "hit": false,
      "t": 241501.42671875007,
      "d": 789.0855729166651,
      "v": 89
    },
    {
      "midi": 76,
      "hit": false,
      "t": 241501.42671875047,
      "d": 739.5958854166674,
      "v": 110
    },
    {
      "midi": 81,
      "hit": false,
      "t": 241501.42671875053,
      "d": 742.3453125000233,
      "v": 95
    },
    {
      "midi": 69,
      "hit": false,
      "t": 241517.92328125014,
      "d": 646.1153645833256,
      "v": 79
    },
    {
      "midi": 64,
      "hit": false,
      "t": 241517.92328125014,
      "d": 662.6119270833151,
      "v": 74
    },
    {
      "midi": 62,
      "hit": false,
      "t": 241517.92328125014,
      "d": 668.1107812499686,
      "v": 83
    },
    {
      "midi": 73,
      "hit": false,
      "t": 241765.37171875115,
      "d": 486.6485937499965,
      "v": 65
    },
    {
      "midi": 61,
      "hit": false,
      "t": 242293.26171875006,
      "d": 294.1886979166593,
      "v": 102
    },
    {
      "midi": 16,
      "hit": false,
      "t": 242293.26171875017,
      "d": 527.890000000014,
      "v": 63
    },
    {
      "midi": 28,
      "hit": false,
      "t": 242293.26171875017,
      "d": 527.890000000014,
      "v": 95
    },
    {
      "midi": 71,
      "hit": false,
      "t": 242293.26171875114,
      "d": 508.6440104166686,
      "v": 66
    },
    {
      "midi": 62,
      "hit": false,
      "t": 242301.51000000013,
      "d": 153.9679166666756,
      "v": 79
    },
    {
      "midi": 64,
      "hit": false,
      "t": 242301.51000000013,
      "d": 156.71734375000233,
      "v": 78
    },
    {
      "midi": 69,
      "hit": false,
      "t": 242309.75828125014,
      "d": 134.72192708333023,
      "v": 77
    },
    {
      "midi": 76,
      "hit": false,
      "t": 242309.75828125048,
      "d": 241.94958333333489,
      "v": 117
    },
    {
      "midi": 81,
      "hit": false,
      "t": 242309.75828125057,
      "d": 241.94958333333489,
      "v": 95
    },
    {
      "midi": 62,
      "hit": false,
      "t": 242557.20671874992,
      "d": 272.1932812499872,
      "v": 78
    },
    {
      "midi": 62,
      "hit": false,
      "t": 242557.20671875007,
      "d": 285.94041666665,
      "v": 93
    },
    {
      "midi": 78,
      "hit": false,
      "t": 242557.20671875047,
      "d": 167.71505208333838,
      "v": 118
    },
    {
      "midi": 64,
      "hit": false,
      "t": 242562.7055729168,
      "d": 1198.7502083333675,
      "v": 74
    },
    {
      "midi": 83,
      "hit": false,
      "t": 242565.45500000057,
      "d": 170.46447916666511,
      "v": 102
    },
    {
      "midi": 61,
      "hit": false,
      "t": 242570.95385416682,
      "d": 1064.0282812500081,
      "v": 80
    },
    {
      "midi": 69,
      "hit": false,
      "t": 242570.95385416682,
      "d": 1121.7662500000151,
      "v": 81
    },
    {
      "midi": 45,
      "hit": false,
      "t": 242810.1540104166,
      "d": 1020.037447916664,
      "v": 99
    },
    {
      "midi": 61,
      "hit": false,
      "t": 242815.65286458275,
      "d": 973.297187499993,
      "v": 101
    },
    {
      "midi": 61,
      "hit": false,
      "t": 242818.4022916666,
      "d": 1009.0397395833279,
      "v": 98
    },
    {
      "midi": 61,
      "hit": false,
      "t": 242821.15171874972,
      "d": 1055.7799999999988,
      "v": 77
    },
    {
      "midi": 61,
      "hit": false,
      "t": 242821.15171875004,
      "d": 753.3430208333593,
      "v": 97
    },
    {
      "midi": 45,
      "hit": false,
      "t": 242821.1517187502,
      "d": 1055.7799999999988,
      "v": 98
    },
    {
      "midi": 33,
      "hit": false,
      "t": 242821.1517187502,
      "d": 1064.0282812500081,
      "v": 56
    },
    {
      "midi": 69,
      "hit": false,
      "t": 242821.15171875115,
      "d": 1080.5248437499977,
      "v": 69
    },
    {
      "midi": 61,
      "hit": false,
      "t": 242837.64828124992,
      "d": 494.8968750000058,
      "v": 86
    },
    {
      "midi": 57,
      "hit": false,
      "t": 243349.04171875006,
      "d": 563.6325520833489,
      "v": 102
    },
    {
      "midi": 78,
      "hit": false,
      "t": 243349.04171875052,
      "d": 472.9014583333337,
      "v": 115
    },
    {
      "midi": 81,
      "hit": false,
      "t": 243349.04171875058,
      "d": 450.9060416666616,
      "v": 102
    },
    {
      "midi": 57,
      "hit": false,
      "t": 243365.53828124993,
      "d": 439.9083333333256,
      "v": 77
    },
    {
      "midi": 64,
      "hit": false,
      "t": 243615.7361458334,
      "d": 261.19557291668025,
      "v": 88
    },
    {
      "midi": 74,
      "hit": false,
      "t": 243871.43286458272,
      "d": 973.297187499993,
      "v": 96
    },
    {
      "midi": 69,
      "hit": false,
      "t": 243871.43286458272,
      "d": 989.7937499999825,
      "v": 103
    },
    {
      "midi": 66,
      "hit": false,
      "t": 243871.43286458272,
      "d": 1033.7845833333267,
      "v": 100
    },
    {
      "midi": 54,
      "hit": false,
      "t": 243874.1822916666,
      "d": 1009.0397395833279,
      "v": 98
    },
    {
      "midi": 57,
      "hit": false,
      "t": 243874.1822916666,
      "d": 1009.0397395833279,
      "v": 98
    },
    {
      "midi": 62,
      "hit": false,
      "t": 243874.1822916666,
      "d": 1009.0397395833279,
      "v": 98
    },
    {
      "midi": 62,
      "hit": false,
      "t": 243876.93171874972,
      "d": 879.8166666666511,
      "v": 77
    },
    {
      "midi": 54,
      "hit": false,
      "t": 243876.93171874972,
      "d": 945.8029166666383,
      "v": 77
    },
    {
      "midi": 62,
      "hit": false,
      "t": 243876.93171874993,
      "d": 450.9060416666616,
      "v": 80
    },
    {
      "midi": 66,
      "hit": false,
      "t": 243876.93171875007,
      "d": 516.8922916666488,
      "v": 99
    },
    {
      "midi": 30,
      "hit": false,
      "t": 243876.9317187502,
      "d": 868.8189583333442,
      "v": 64
    },
    {
      "midi": 42,
      "hit": false,
      "t": 243876.9317187502,
      "d": 1011.7891666666837,
      "v": 95
    },
    {
      "midi": 81,
      "hit": false,
      "t": 243876.93171875054,
      "d": 428.9106249999895,
      "v": 116
    },
    {
      "midi": 86,
      "hit": false,
      "t": 243876.93171875057,
      "d": 409.66463541670237,
      "v": 96
    },
    {
      "midi": 74,
      "hit": false,
      "t": 243879.6811458335,
      "d": 516.8922916666488,
      "v": 80
    },
    {
      "midi": 62,
      "hit": false,
      "t": 243882.43057291684,
      "d": 483.89916666666977,
      "v": 78
    },
    {
      "midi": 69,
      "hit": false,
      "t": 243885.18000000017,
      "d": 472.9014583333337,
      "v": 78
    },
    {
      "midi": 66,
      "hit": false,
      "t": 243887.9294270835,
      "d": 461.9037499999977,
      "v": 78
    },
    {
      "midi": 69,
      "hit": false,
      "t": 243890.67885416673,
      "d": 472.9014583333337,
      "v": 97
    },
    {
      "midi": 74,
      "hit": false,
      "t": 243893.42828125114,
      "d": 1000.7914583333477,
      "v": 61
    },
    {
      "midi": 62,
      "hit": false,
      "t": 244404.8217187499,
      "d": 494.8968750000058,
      "v": 84
    },
    {
      "midi": 57,
      "hit": false,
      "t": 244404.82171875006,
      "d": 459.15432291667094,
      "v": 104
    },
    {
      "midi": 62,
      "hit": false,
      "t": 244404.82171875006,
      "d": 483.89916666666977,
      "v": 103
    },
    {
      "midi": 78,
      "hit": false,
      "t": 244404.82171875052,
      "d": 450.9060416666616,
      "v": 112
    },
    {
      "midi": 81,
      "hit": false,
      "t": 244404.82171875058,
      "d": 428.9106249999895,
      "v": 102
    },
    {
      "midi": 69,
      "hit": false,
      "t": 244421.31828125016,
      "d": 461.9037499999977,
      "v": 80
    },
    {
      "midi": 62,
      "hit": false,
      "t": 244421.31828125016,
      "d": 483.89916666666977,
      "v": 76
    },
    {
      "midi": 66,
      "hit": false,
      "t": 244421.31828125016,
      "d": 494.8968750000058,
      "v": 75
    },
    {
      "midi": 59,
      "hit": false,
      "t": 244940.95999999938,
      "d": 1539.6791666666686,
      "v": 97
    },
    {
      "midi": 67,
      "hit": false,
      "t": 244940.95999999938,
      "d": 2012.5806250000023,
      "v": 97
    },
    {
      "midi": 62,
      "hit": false,
      "t": 244940.95999999938,
      "d": 2023.5783333333384,
      "v": 97
    },
    {
      "midi": 55,
      "hit": false,
      "t": 244940.9599999997,
      "d": 4047.1566666666768,
      "v": 74
    },
    {
      "midi": 59,
      "hit": false,
      "t": 244940.9599999997,
      "d": 4091.147500000021,
      "v": 79
    },
    {
      "midi": 62,
      "hit": false,
      "t": 244940.9599999997,
      "d": 4091.147500000021,
      "v": 79
    },
    {
      "midi": 43,
      "hit": false,
      "t": 244940.95999999993,
      "d": 2097.812864583335,
      "v": 104
    },
    {
      "midi": 67,
      "hit": false,
      "t": 244940.95999999993,
      "d": 4055.404947916657,
      "v": 102
    },
    {
      "midi": 62,
      "hit": false,
      "t": 244940.95999999993,
      "d": 4077.400364583329,
      "v": 96
    },
    {
      "midi": 71,
      "hit": false,
      "t": 244940.95999999993,
      "d": 4077.400364583329,
      "v": 95
    },
    {
      "midi": 62,
      "hit": false,
      "t": 244940.96000000005,
      "d": 1561.6745833333407,
      "v": 97
    },
    {
      "midi": 43,
      "hit": false,
      "t": 244940.9600000002,
      "d": 761.5913020833395,
      "v": 97
    },
    {
      "midi": 31,
      "hit": false,
      "t": 244940.9600000002,
      "d": 767.090156249993,
      "v": 58
    },
    {
      "midi": 74,
      "hit": false,
      "t": 244940.96000000052,
      "d": 351.9266666666663,
      "v": 112
    },
    {
      "midi": 79,
      "hit": false,
      "t": 244940.96000000057,
      "d": 351.9266666666663,
      "v": 99
    },
    {
      "midi": 62,
      "hit": false,
      "t": 244949.2082812499,
      "d": 4157.133750000008,
      "v": 83
    },
    {
      "midi": 71,
      "hit": false,
      "t": 244949.20828125018,
      "d": 269.44385416666046,
      "v": 83
    },
    {
      "midi": 62,
      "hit": false,
      "t": 244949.20828125018,
      "d": 277.69213541666977,
      "v": 77
    },
    {
      "midi": 67,
      "hit": false,
      "t": 244949.20828125018,
      "d": 283.19098958332324,
      "v": 83
    },
    {
      "midi": 71,
      "hit": false,
      "t": 244949.20828125117,
      "d": 2100.5622916666616,
      "v": 63
    },
    {
      "midi": 71,
      "hit": false,
      "t": 245460.60171875017,
      "d": 255.69671874999767,
      "v": 82
    },
    {
      "midi": 62,
      "hit": false,
      "t": 245460.60171875017,
      "d": 263.9449999999779,
      "v": 74
    },
    {
      "midi": 74,
      "hit": false,
      "t": 245460.60171875052,
      "d": 329.9312499999942,
      "v": 116
    },
    {
      "midi": 78,
      "hit": false,
      "t": 245460.60171875058,
      "d": 373.9220833333384,
      "v": 96
    },
    {
      "midi": 67,
      "hit": false,
      "t": 245466.10057291682,
      "d": 255.69671874999767,
      "v": 79
    },
    {
      "midi": 31,
      "hit": false,
      "t": 245724.54671875018,
      "d": 129.22307291667676,
      "v": 57
    },
    {
      "midi": 43,
      "hit": false,
      "t": 245724.54671875018,
      "d": 263.945000000007,
      "v": 103
    },
    {
      "midi": 62,
      "hit": false,
      "t": 245988.49171875016,
      "d": 329.9312499999942,
      "v": 81
    },
    {
      "midi": 67,
      "hit": false,
      "t": 245988.49171875016,
      "d": 338.1795312500035,
      "v": 75
    },
    {
      "midi": 71,
      "hit": false,
      "t": 245988.49171875016,
      "d": 343.67838541665697,
      "v": 79
    },
    {
      "midi": 31,
      "hit": false,
      "t": 245988.49171875019,
      "d": 431.66005208334536,
      "v": 62
    },
    {
      "midi": 43,
      "hit": false,
      "t": 245988.49171875019,
      "d": 527.890000000014,
      "v": 104
    },
    {
      "midi": 74,
      "hit": false,
      "t": 245988.4917187505,
      "d": 274.94270833334303,
      "v": 114
    },
    {
      "midi": 78,
      "hit": false,
      "t": 245988.4917187506,
      "d": 274.94270833334303,
      "v": 98
    },
    {
      "midi": 59,
      "hit": false,
      "t": 246513.63229166606,
      "d": 472.9014583333337,
      "v": 103
    },
    {
      "midi": 59,
      "hit": false,
      "t": 246516.38171875005,
      "d": 222.70359374998952,
      "v": 104
    },
    {
      "midi": 66,
      "hit": false,
      "t": 246516.38171875014,
      "d": 131.9725000000035,
      "v": 81
    },
    {
      "midi": 69,
      "hit": false,
      "t": 246516.38171875014,
      "d": 137.47135416665697,
      "v": 81
    },
    {
      "midi": 62,
      "hit": false,
      "t": 246516.38171875014,
      "d": 162.2161979166558,
      "v": 79
    },
    {
      "midi": 31,
      "hit": false,
      "t": 246516.3817187502,
      "d": 222.70359374998952,
      "v": 62
    },
    {
      "midi": 43,
      "hit": false,
      "t": 246516.3817187502,
      "d": 263.9449999999779,
      "v": 101
    },
    {
      "midi": 74,
      "hit": false,
      "t": 246516.38171875052,
      "d": 134.72192708333023,
      "v": 113
    },
    {
      "midi": 78,
      "hit": false,
      "t": 246516.3817187506,
      "d": 164.96562500001164,
      "v": 99
    },
    {
      "midi": 61,
      "hit": false,
      "t": 246780.32671875003,
      "d": 274.94270833334303,
      "v": 89
    },
    {
      "midi": 71,
      "hit": false,
      "t": 246780.32671875012,
      "d": 384.9197916666744,
      "v": 76
    },
    {
      "midi": 62,
      "hit": false,
      "t": 246780.32671875012,
      "d": 395.9175000000105,
      "v": 83
    },
    {
      "midi": 67,
      "hit": false,
      "t": 246780.32671875012,
      "d": 395.9175000000105,
      "v": 74
    },
    {
      "midi": 74,
      "hit": false,
      "t": 246780.32671875053,
      "d": 384.9197916666162,
      "v": 110
    },
    {
      "midi": 78,
      "hit": false,
      "t": 246780.3267187506,
      "d": 406.9152083333174,
      "v": 97
    },
    {
      "midi": 43,
      "hit": false,
      "t": 246796.82328125017,
      "d": 142.97020833331044,
      "v": 97
    },
    {
      "midi": 31,
      "hit": false,
      "t": 246838.06468750015,
      "d": 156.71734374997322,
      "v": 59
    },
    {
      "midi": 45,
      "hit": false,
      "t": 246934.29463541682,
      "d": 131.97249999994528,
      "v": 101
    },
    {
      "midi": 33,
      "hit": false,
      "t": 246945.29234375013,
      "d": 115.47593749998487,
      "v": 57
    },
    {
      "midi": 67,
      "hit": false,
      "t": 247038.77286458272,
      "d": 1091.5225520833046,
      "v": 99
    },
    {
      "midi": 62,
      "hit": false,
      "t": 247038.77286458272,
      "d": 1094.2719791666314,
      "v": 96
    },
    {
      "midi": 59,
      "hit": false,
      "t": 247044.27171874937,
      "d": 1930.0978124999383,
      "v": 100
    },
    {
      "midi": 47,
      "hit": false,
      "t": 247044.27171874992,
      "d": 1976.8380729166674,
      "v": 96
    },
    {
      "midi": 62,
      "hit": false,
      "t": 247044.27171875004,
      "d": 1685.3988020833349,
      "v": 103
    },
    {
      "midi": 35,
      "hit": false,
      "t": 247044.27171875013,
      "d": 670.8602083332953,
      "v": 58
    },
    {
      "midi": 47,
      "hit": false,
      "t": 247044.27171875013,
      "d": 791.8349999999627,
      "v": 99
    },
    {
      "midi": 74,
      "hit": false,
      "t": 247060.76828125116,
      "d": 970.5477604166663,
      "v": 64
    },
    {
      "midi": 73,
      "hit": false,
      "t": 247192.7407812505,
      "d": 197.9587500000198,
      "v": 116
    },
    {
      "midi": 76,
      "hit": false,
      "t": 247192.74078125058,
      "d": 181.46218750000116,
      "v": 101
    },
    {
      "midi": 67,
      "hit": false,
      "t": 247308.21671875013,
      "d": 310.6852604166488,
      "v": 78
    },
    {
      "midi": 59,
      "hit": false,
      "t": 247308.21671875013,
      "d": 313.43468749997555,
      "v": 82
    },
    {
      "midi": 71,
      "hit": false,
      "t": 247308.2167187505,
      "d": 197.9587500000198,
      "v": 115
    },
    {
      "midi": 74,
      "hit": false,
      "t": 247308.2167187506,
      "d": 241.94958333333489,
      "v": 98
    },
    {
      "midi": 62,
      "hit": false,
      "t": 247310.96614583346,
      "d": 294.1886979166593,
      "v": 77
    },
    {
      "midi": 35,
      "hit": false,
      "t": 247836.1067187501,
      "d": 112.72651041665813,
      "v": 60
    },
    {
      "midi": 47,
      "hit": false,
      "t": 247836.1067187501,
      "d": 263.9449999999779,
      "v": 95
    },
    {
      "midi": 35,
      "hit": false,
      "t": 248100.05171875007,
      "d": 464.6531770833244,
      "v": 58
    },
    {
      "midi": 47,
      "hit": false,
      "t": 248100.05171875007,
      "d": 527.8899999999849,
      "v": 100
    },
    {
      "midi": 62,
      "hit": false,
      "t": 248100.0517187501,
      "d": 145.71963541666628,
      "v": 83
    },
    {
      "midi": 71,
      "hit": false,
      "t": 248100.0517187501,
      "d": 203.45760416667326,
      "v": 78
    },
    {
      "midi": 74,
      "hit": false,
      "t": 248100.05171875117,
      "d": 280.4415624999965,
      "v": 62
    },
    {
      "midi": 74,
      "hit": false,
      "t": 248102.80114583395,
      "d": 252.94729166667094,
      "v": 102
    },
    {
      "midi": 71,
      "hit": false,
      "t": 248105.55057291602,
      "d": 274.94270833331393,
      "v": 98
    },
    {
      "midi": 71,
      "hit": false,
      "t": 248105.5505729172,
      "d": 285.94041666665,
      "v": 112
    },
    {
      "midi": 71,
      "hit": false,
      "t": 248116.54828125003,
      "d": 228.2024479166721,
      "v": 103
    },
    {
      "midi": 66,
      "hit": false,
      "t": 248116.54828125008,
      "d": 153.9679166666756,
      "v": 78
    },
    {
      "midi": 73,
      "hit": false,
      "t": 248363.99671875004,
      "d": 241.94958333333489,
      "v": 92
    },
    {
      "midi": 62,
      "hit": false,
      "t": 248363.9967187501,
      "d": 145.71963541666628,
      "v": 81
    },
    {
      "midi": 67,
      "hit": false,
      "t": 248363.9967187501,
      "d": 178.71276041667443,
      "v": 81
    },
    {
      "midi": 73,
      "hit": false,
      "t": 248363.9967187501,
      "d": 214.4553125000093,
      "v": 77
    },
    {
      "midi": 73,
      "hit": false,
      "t": 248363.9967187505,
      "d": 239.20015624997905,
      "v": 114
    },
    {
      "midi": 76,
      "hit": false,
      "t": 248363.99671875063,
      "d": 263.945000000007,
      "v": 100
    },
    {
      "midi": 76,
      "hit": false,
      "t": 248363.99671875118,
      "d": 274.94270833331393,
      "v": 65
    },
    {
      "midi": 73,
      "hit": false,
      "t": 248377.743854166,
      "d": 351.9266666666372,
      "v": 98
    },
    {
      "midi": 35,
      "hit": false,
      "t": 248627.94171875005,
      "d": 470.152031250007,
      "v": 62
    },
    {
      "midi": 47,
      "hit": false,
      "t": 248627.94171875005,
      "d": 527.890000000014,
      "v": 102
    },
    {
      "midi": 74,
      "hit": false,
      "t": 248627.9417187501,
      "d": 406.9152083333174,
      "v": 75
    },
    {
      "midi": 62,
      "hit": false,
      "t": 248627.9417187501,
      "d": 448.1566145833058,
      "v": 77
    },
    {
      "midi": 74,
      "hit": false,
      "t": 248627.9417187505,
      "d": 266.6944270833337,
      "v": 115
    },
    {
      "midi": 78,
      "hit": false,
      "t": 248627.94171875063,
      "d": 277.69213541666977,
      "v": 95
    },
    {
      "midi": 69,
      "hit": false,
      "t": 248633.44057291676,
      "d": 415.16348958332674,
      "v": 74
    },
    {
      "midi": 78,
      "hit": false,
      "t": 248636.19000000117,
      "d": 494.8968750000058,
      "v": 66
    },
    {
      "midi": 74,
      "hit": false,
      "t": 248638.93942708266,
      "d": 505.89458333331277,
      "v": 104
    },
    {
      "midi": 74,
      "hit": false,
      "t": 248638.9394270834,
      "d": 472.9014583333337,
      "v": 95
    },
    {
      "midi": 74,
      "hit": false,
      "t": 249164.07999999932,
      "d": 1143.7616666666872,
      "v": 102
    },
    {
      "midi": 64,
      "hit": false,
      "t": 249164.07999999932,
      "d": 1996.0840625000128,
      "v": 97
    },
    {
      "midi": 69,
      "hit": false,
      "t": 249164.07999999932,
      "d": 2029.0771874999919,
      "v": 99
    },
    {
      "midi": 62,
      "hit": false,
      "t": 249164.07999999973,
      "d": 1000.7914583333186,
      "v": 78
    },
    {
      "midi": 57,
      "hit": false,
      "t": 249164.07999999973,
      "d": 1011.7891666666546,
      "v": 74
    },
    {
      "midi": 62,
      "hit": false,
      "t": 249164.07999999993,
      "d": 998.0420312499919,
      "v": 102
    },
    {
      "midi": 45,
      "hit": false,
      "t": 249164.07999999993,
      "d": 2042.8243229166546,
      "v": 100
    },
    {
      "midi": 69,
      "hit": false,
      "t": 249164.07999999993,
      "d": 2084.065729166643,
      "v": 95
    },
    {
      "midi": 33,
      "hit": false,
      "t": 249164.08000000007,
      "d": 489.39802083332324,
      "v": 55
    },
    {
      "midi": 45,
      "hit": false,
      "t": 249164.08000000007,
      "d": 497.64630208333256,
      "v": 96
    },
    {
      "midi": 78,
      "hit": false,
      "t": 249164.08000000048,
      "d": 470.152031250007,
      "v": 117
    },
    {
      "midi": 83,
      "hit": false,
      "t": 249164.08000000063,
      "d": 456.4048958333442,
      "v": 102
    },
    {
      "midi": 81,
      "hit": false,
      "t": 249164.08000000118,
      "d": 2163.799114583322,
      "v": 64
    },
    {
      "midi": 64,
      "hit": false,
      "t": 249169.57885416638,
      "d": 978.7960416666756,
      "v": 79
    },
    {
      "midi": 62,
      "hit": false,
      "t": 249172.3282812499,
      "d": 1003.5408854166744,
      "v": 78
    },
    {
      "midi": 69,
      "hit": false,
      "t": 249172.32828125005,
      "d": 981.5454687500023,
      "v": 101
    },
    {
      "midi": 74,
      "hit": false,
      "t": 249172.32828125005,
      "d": 1014.5385937500105,
      "v": 95
    },
    {
      "midi": 64,
      "hit": false,
      "t": 249172.32828125005,
      "d": 2067.5691666666826,
      "v": 100
    },
    {
      "midi": 64,
      "hit": false,
      "t": 249172.32828125008,
      "d": 272.1932812499872,
      "v": 75
    },
    {
      "midi": 69,
      "hit": false,
      "t": 249172.32828125008,
      "d": 272.1932812499872,
      "v": 83
    },
    {
      "midi": 74,
      "hit": false,
      "t": 249172.32828125008,
      "d": 272.1932812499872,
      "v": 81
    },
    {
      "midi": 33,
      "hit": false,
      "t": 249678.2228645834,
      "d": 934.8052083333314,
      "v": 58
    },
    {
      "midi": 45,
      "hit": false,
      "t": 249683.72171875005,
      "d": 1055.7799999999988,
      "v": 101
    },
    {
      "midi": 76,
      "hit": false,
      "t": 249683.7217187505,
      "d": 1371.9641145833302,
      "v": 118
    },
    {
      "midi": 81,
      "hit": false,
      "t": 249683.72171875063,
      "d": 1341.720416666678,
      "v": 103
    },
    {
      "midi": 69,
      "hit": false,
      "t": 249700.21828125007,
      "d": 1539.6791666666686,
      "v": 74
    },
    {
      "midi": 73,
      "hit": false,
      "t": 249700.21828125007,
      "d": 1583.6700000000128,
      "v": 79
    },
    {
      "midi": 64,
      "hit": false,
      "t": 249700.21828125007,
      "d": 1605.665416666685,
      "v": 81
    },
    {
      "midi": 57,
      "hit": false,
      "t": 250211.61171874971,
      "d": 965.0489062500128,
      "v": 75
    },
    {
      "midi": 69,
      "hit": false,
      "t": 250211.61171874971,
      "d": 965.0489062500128,
      "v": 79
    },
    {
      "midi": 61,
      "hit": false,
      "t": 250211.61171874971,
      "d": 995.2926041666651,
      "v": 80
    },
    {
      "midi": 61,
      "hit": false,
      "t": 250211.61171874992,
      "d": 970.5477604166663,
      "v": 98
    },
    {
      "midi": 73,
      "hit": false,
      "t": 250228.10828124933,
      "d": 934.8052083333314,
      "v": 97
    },
    {
      "midi": 61,
      "hit": false,
      "t": 250228.1082812499,
      "d": 954.0511979166768,
      "v": 84
    },
    {
      "midi": 69,
      "hit": false,
      "t": 250228.10828125005,
      "d": 967.7983333333395,
      "v": 104
    },
    {
      "midi": 73,
      "hit": false,
      "t": 250228.10828125005,
      "d": 967.7983333333395,
      "v": 100
    },
    {
      "midi": 33,
      "hit": false,
      "t": 250734.0028645834,
      "d": 437.15890624999884,
      "v": 59
    },
    {
      "midi": 45,
      "hit": false,
      "t": 250739.50171875005,
      "d": 527.8899999999849,
      "v": 98
    },
    {
      "midi": 35,
      "hit": false,
      "t": 251261.89286458338,
      "d": 992.5431770833384,
      "v": 62
    },
    {
      "midi": 67,
      "hit": false,
      "t": 251267.3917187493,
      "d": 970.5477604166663,
      "v": 97
    },
    {
      "midi": 62,
      "hit": false,
      "t": 251267.3917187493,
      "d": 987.0443229166558,
      "v": 98
    },
    {
      "midi": 62,
      "hit": false,
      "t": 251267.3917187497,
      "d": 945.8029166666674,
      "v": 76
    },
    {
      "midi": 55,
      "hit": false,
      "t": 251267.3917187497,
      "d": 956.8006250000035,
      "v": 78
    },
    {
      "midi": 67,
      "hit": false,
      "t": 251267.3917187497,
      "d": 973.297187499993,
      "v": 76
    },
    {
      "midi": 47,
      "hit": false,
      "t": 251267.39171874992,
      "d": 987.0443229166849,
      "v": 95
    },
    {
      "midi": 67,
      "hit": false,
      "t": 251267.39171874992,
      "d": 998.042031250021,
      "v": 102
    },
    {
      "midi": 71,
      "hit": false,
      "t": 251267.39171874992,
      "d": 1014.5385937500105,
      "v": 96
    },
    {
      "midi": 62,
      "hit": false,
      "t": 251267.39171874992,
      "d": 1028.2857291666733,
      "v": 78
    },
    {
      "midi": 47,
      "hit": false,
      "t": 251267.39171875003,
      "d": 527.890000000014,
      "v": 102
    },
    {
      "midi": 59,
      "hit": false,
      "t": 251272.89057291596,
      "d": 970.5477604166663,
      "v": 100
    },
    {
      "midi": 62,
      "hit": false,
      "t": 251275.63999999993,
      "d": 987.0443229166849,
      "v": 104
    },
    {
      "midi": 74,
      "hit": false,
      "t": 251278.3894270834,
      "d": 989.7937499999825,
      "v": 103
    },
    {
      "midi": 67,
      "hit": false,
      "t": 251283.88828125005,
      "d": 1000.7914583333186,
      "v": 104
    },
    {
      "midi": 71,
      "hit": false,
      "t": 251283.88828125005,
      "d": 1000.7914583333186,
      "v": 97
    },
    {
      "midi": 43,
      "hit": false,
      "t": 251795.28171875005,
      "d": 527.8899999999849,
      "v": 102
    },
    {
      "midi": 67,
      "hit": false,
      "t": 251800.78057291676,
      "d": 349.17723958333954,
      "v": 80
    },
    {
      "midi": 71,
      "hit": false,
      "t": 251800.78057291676,
      "d": 349.17723958333954,
      "v": 82
    },
    {
      "midi": 81,
      "hit": false,
      "t": 251800.7805729173,
      "d": 362.9243750000023,
      "v": 103
    },
    {
      "midi": 78,
      "hit": false,
      "t": 251806.27942708382,
      "d": 349.17723958333954,
      "v": 117
    },
    {
      "midi": 81,
      "hit": false,
      "t": 251811.77828125117,
      "d": 500.3957291666593,
      "v": 66
    },
    {
      "midi": 57,
      "hit": false,
      "t": 252320.4222916664,
      "d": 901.8120833333232,
      "v": 79
    },
    {
      "midi": 57,
      "hit": false,
      "t": 252320.4222916666,
      "d": 943.0534895833116,
      "v": 101
    },
    {
      "midi": 37,
      "hit": false,
      "t": 252320.4222916667,
      "d": 890.8143749999872,
      "v": 62
    },
    {
      "midi": 69,
      "hit": false,
      "t": 252323.1717187497,
      "d": 910.0603645833326,
      "v": 80
    },
    {
      "midi": 73,
      "hit": false,
      "t": 252323.17171874992,
      "d": 954.0511979166477,
      "v": 97
    },
    {
      "midi": 49,
      "hit": false,
      "t": 252323.17171874992,
      "d": 976.0466145833198,
      "v": 104
    },
    {
      "midi": 49,
      "hit": false,
      "t": 252323.17171875003,
      "d": 1022.7868749999907,
      "v": 101
    },
    {
      "midi": 86,
      "hit": false,
      "t": 252325.92114583397,
      "d": 409.66463541664416,
      "v": 100
    },
    {
      "midi": 64,
      "hit": false,
      "t": 252328.67057291637,
      "d": 934.8052083333314,
      "v": 81
    },
    {
      "midi": 74,
      "hit": false,
      "t": 252328.67057291677,
      "d": 497.64630208333256,
      "v": 80
    },
    {
      "midi": 64,
      "hit": false,
      "t": 252331.41999999993,
      "d": 1000.7914583333477,
      "v": 80
    },
    {
      "midi": 81,
      "hit": false,
      "t": 252334.16942708383,
      "d": 395.9175000000105,
      "v": 117
    },
    {
      "midi": 69,
      "hit": false,
      "t": 252336.91885416658,
      "d": 954.0511979166477,
      "v": 99
    },
    {
      "midi": 69,
      "hit": false,
      "t": 252339.6682812493,
      "d": 918.3086458333419,
      "v": 103
    },
    {
      "midi": 61,
      "hit": false,
      "t": 252339.6682812493,
      "d": 937.5546354166872,
      "v": 104
    },
    {
      "midi": 64,
      "hit": false,
      "t": 252339.6682812493,
      "d": 967.7983333333395,
      "v": 99
    },
    {
      "midi": 64,
      "hit": false,
      "t": 252339.66828125005,
      "d": 923.8074999999953,
      "v": 103
    },
    {
      "midi": 76,
      "hit": false,
      "t": 252339.66828125005,
      "d": 978.7960416666756,
      "v": 101
    },
    {
      "midi": 69,
      "hit": false,
      "t": 252339.6682812501,
      "d": 472.9014583333337,
      "v": 76
    },
    {
      "midi": 86,
      "hit": false,
      "t": 252339.66828125116,
      "d": 439.9083333333256,
      "v": 68
    },
    {
      "midi": 66,
      "hit": false,
      "t": 252845.56286458345,
      "d": 349.17723958333954,
      "v": 76
    },
    {
      "midi": 71,
      "hit": false,
      "t": 252845.56286458345,
      "d": 349.17723958333954,
      "v": 82
    },
    {
      "midi": 86,
      "hit": false,
      "t": 252851.0617187506,
      "d": 373.9220833333384,
      "v": 96
    },
    {
      "midi": 81,
      "hit": false,
      "t": 252851.06171875115,
      "d": 415.16348958332674,
      "v": 66
    },
    {
      "midi": 79,
      "hit": false,
      "t": 252864.80885416718,
      "d": 156.71734375000233,
      "v": 111
    },
    {
      "midi": 81,
      "hit": false,
      "t": 252999.5307812505,
      "d": 329.9312499999942,
      "v": 111
    },
    {
      "midi": 54,
      "hit": false,
      "t": 253387.1999999997,
      "d": 2056.5714583333465,
      "v": 74
    },
    {
      "midi": 57,
      "hit": false,
      "t": 253387.1999999997,
      "d": 2056.5714583333465,
      "v": 79
    },
    {
      "midi": 62,
      "hit": false,
      "t": 253387.1999999997,
      "d": 2056.5714583333465,
      "v": 81
    },
    {
      "midi": 69,
      "hit": false,
      "t": 253387.1999999999,
      "d": 2064.8197395833267,
      "v": 95
    },
    {
      "midi": 66,
      "hit": false,
      "t": 253387.1999999999,
      "d": 4088.398072916665,
      "v": 99
    },
    {
      "midi": 62,
      "hit": false,
      "t": 253387.1999999999,
      "d": 4099.395781250001,
      "v": 103
    },
    {
      "midi": 38,
      "hit": false,
      "t": 253387.2,
      "d": 2111.5599999999977,
      "v": 98
    },
    {
      "midi": 26,
      "hit": false,
      "t": 253387.2,
      "d": 2119.808281250007,
      "v": 61
    },
    {
      "midi": 79,
      "hit": false,
      "t": 253387.2000000006,
      "d": 263.945000000007,
      "v": 103
    },
    {
      "midi": 76,
      "hit": false,
      "t": 253392.69885416716,
      "d": 269.44385416668956,
      "v": 109
    },
    {
      "midi": 66,
      "hit": false,
      "t": 253395.44828124993,
      "d": 1506.6860416666605,
      "v": 80
    },
    {
      "midi": 62,
      "hit": false,
      "t": 253400.94713541598,
      "d": 1484.6906249999884,
      "v": 101
    },
    {
      "midi": 69,
      "hit": false,
      "t": 253400.94713541598,
      "d": 1495.6883333333244,
      "v": 97
    },
    {
      "midi": 66,
      "hit": false,
      "t": 253400.94713541598,
      "d": 1517.6837499999965,
      "v": 104
    },
    {
      "midi": 78,
      "hit": false,
      "t": 253642.8967187506,
      "d": 208.95645833335584,
      "v": 97
    },
    {
      "midi": 74,
      "hit": false,
      "t": 253653.89442708384,
      "d": 164.96562500001164,
      "v": 118
    },
    {
      "midi": 78,
      "hit": false,
      "t": 253920.5888541673,
      "d": 112.72651041665813,
      "v": 102
    },
    {
      "midi": 74,
      "hit": false,
      "t": 253923.33828125053,
      "d": 131.9725000000035,
      "v": 117
    },
    {
      "midi": 78,
      "hit": false,
      "t": 254184.53385416727,
      "d": 739.5958854166383,
      "v": 103
    },
    {
      "midi": 74,
      "hit": false,
      "t": 254187.28328125054,
      "d": 712.1016145833419,
      "v": 111
    },
    {
      "midi": 64,
      "hit": false,
      "t": 254957.12286458263,
      "d": 241.94958333330578,
      "v": 97
    },
    {
      "midi": 69,
      "hit": false,
      "t": 254959.87229166596,
      "d": 252.94729166664183,
      "v": 100
    },
    {
      "midi": 73,
      "hit": false,
      "t": 254962.6217187493,
      "d": 230.95187499999884,
      "v": 103
    },
    {
      "midi": 73,
      "hit": false,
      "t": 254962.62171875007,
      "d": 272.1932812500163,
      "v": 101
    },
    {
      "midi": 73,
      "hit": false,
      "t": 254962.62171875054,
      "d": 142.97020833333954,
      "v": 118
    },
    {
      "midi": 76,
      "hit": false,
      "t": 254962.62171875057,
      "d": 131.9725000000035,
      "v": 103
    },
    {
      "midi": 64,
      "hit": false,
      "t": 254973.61942708326,
      "d": 549.885416666657,
      "v": 80
    },
    {
      "midi": 74,
      "hit": false,
      "t": 255226.56671875008,
      "d": 305.18640625002445,
      "v": 86
    },
    {
      "midi": 78,
      "hit": false,
      "t": 255232.06557291723,
      "d": 415.16348958332674,
      "v": 97
    },
    {
      "midi": 74,
      "hit": false,
      "t": 255234.81500000056,
      "d": 417.9129166666826,
      "v": 114
    },
    {
      "midi": 66,
      "hit": false,
      "t": 255240.31385416593,
      "d": 929.3063541666488,
      "v": 97
    },
    {
      "midi": 74,
      "hit": false,
      "t": 255243.06328124925,
      "d": 926.5569270833221,
      "v": 101
    },
    {
      "midi": 71,
      "hit": false,
      "t": 255243.06328124925,
      "d": 934.8052083333314,
      "v": 95
    },
    {
      "midi": 62,
      "hit": false,
      "t": 255487.76229166638,
      "d": 1960.3415104166488,
      "v": 80
    },
    {
      "midi": 71,
      "hit": false,
      "t": 255490.51171874988,
      "d": 2015.3300520833582,
      "v": 99
    },
    {
      "midi": 23,
      "hit": false,
      "t": 255490.51171875,
      "d": 2084.065729166672,
      "v": 61
    },
    {
      "midi": 35,
      "hit": false,
      "t": 255490.51171875,
      "d": 2111.5599999999977,
      "v": 96
    },
    {
      "midi": 54,
      "hit": false,
      "t": 255493.26114583304,
      "d": 1963.0909375000047,
      "v": 82
    },
    {
      "midi": 62,
      "hit": false,
      "t": 255498.75999999992,
      "d": 967.7983333333395,
      "v": 81
    },
    {
      "midi": 71,
      "hit": false,
      "t": 255498.7600000001,
      "d": 505.89458333334187,
      "v": 104
    },
    {
      "midi": 59,
      "hit": false,
      "t": 255501.50942708305,
      "d": 1943.8449479166593,
      "v": 81
    },
    {
      "midi": 73,
      "hit": false,
      "t": 255622.4842187506,
      "d": 131.9724999999744,
      "v": 118
    },
    {
      "midi": 76,
      "hit": false,
      "t": 255633.4819270839,
      "d": 142.97020833331044,
      "v": 99
    },
    {
      "midi": 71,
      "hit": false,
      "t": 255757.2061458339,
      "d": 241.94958333333489,
      "v": 113
    },
    {
      "midi": 74,
      "hit": false,
      "t": 255770.95328125055,
      "d": 252.94729166664183,
      "v": 95
    },
    {
      "midi": 62,
      "hit": false,
      "t": 255781.95098958345,
      "d": 406.9152083333465,
      "v": 81
    },
    {
      "midi": 66,
      "hit": false,
      "t": 256018.4017187501,
      "d": 219.9541666666628,
      "v": 101
    },
    {
      "midi": 57,
      "hit": false,
      "t": 256205.36276041679,
      "d": 329.9312499999942,
      "v": 77
    },
    {
      "midi": 71,
      "hit": false,
      "t": 256282.3467187501,
      "d": 844.0741145833454,
      "v": 90
    },
    {
      "midi": 74,
      "hit": false,
      "t": 256282.34671875052,
      "d": 153.9679166666756,
      "v": 103
    },
    {
      "midi": 71,
      "hit": false,
      "t": 256298.84328125056,
      "d": 118.2253645833407,
      "v": 117
    },
    {
      "midi": 71,
      "hit": false,
      "t": 256301.59270833258,
      "d": 1187.7525000000023,
      "v": 97
    },
    {
      "midi": 71,
      "hit": false,
      "t": 256546.29171875058,
      "d": 230.95187499999884,
      "v": 117
    },
    {
      "midi": 66,
      "hit": false,
      "t": 256554.53999999992,
      "d": 461.9037499999977,
      "v": 84
    },
    {
      "midi": 62,
      "hit": false,
      "t": 256557.28942708345,
      "d": 299.68755208334187,
      "v": 75
    },
    {
      "midi": 74,
      "hit": false,
      "t": 256562.7882812505,
      "d": 219.9541666666628,
      "v": 100
    },
    {
      "midi": 76,
      "hit": false,
      "t": 256810.2367187505,
      "d": 208.95645833332674,
      "v": 104
    },
    {
      "midi": 73,
      "hit": false,
      "t": 256810.2367187506,
      "d": 219.9541666666628,
      "v": 112
    },
    {
      "midi": 57,
      "hit": false,
      "t": 256821.23442708346,
      "d": 175.9633333333477,
      "v": 82
    },
    {
      "midi": 78,
      "hit": false,
      "t": 257074.1817187505,
      "d": 373.9220833333384,
      "v": 99
    },
    {
      "midi": 74,
      "hit": false,
      "t": 257074.1817187506,
      "d": 373.9220833333384,
      "v": 116
    },
    {
      "midi": 57,
      "hit": false,
      "t": 257085.17942708347,
      "d": 409.66463541667326,
      "v": 82
    },
    {
      "midi": 66,
      "hit": false,
      "t": 257090.67828124992,
      "d": 384.9197916666744,
      "v": 77
    },
    {
      "midi": 57,
      "hit": false,
      "t": 257610.31999999972,
      "d": 978.7960416666756,
      "v": 76
    },
    {
      "midi": 62,
      "hit": false,
      "t": 257610.31999999972,
      "d": 1011.7891666666837,
      "v": 75
    },
    {
      "midi": 64,
      "hit": false,
      "t": 257610.31999999972,
      "d": 1011.7891666666837,
      "v": 82
    },
    {
      "midi": 74,
      "hit": false,
      "t": 257610.31999999992,
      "d": 745.0947395833209,
      "v": 103
    },
    {
      "midi": 57,
      "hit": false,
      "t": 257610.31999999992,
      "d": 4132.38890624998,
      "v": 99
    },
    {
      "midi": 64,
      "hit": false,
      "t": 257610.31999999992,
      "d": 4143.386614583316,
      "v": 95
    },
    {
      "midi": 64,
      "hit": false,
      "t": 257610.31999999992,
      "d": 2111.5599999999977,
      "v": 85
    },
    {
      "midi": 45,
      "hit": false,
      "t": 257610.32,
      "d": 1553.4263020833314,
      "v": 99
    },
    {
      "midi": 21,
      "hit": false,
      "t": 257610.32,
      "d": 2152.801406250015,
      "v": 57
    },
    {
      "midi": 64,
      "hit": false,
      "t": 257610.32000000012,
      "d": 1781.6287500000035,
      "v": 104
    },
    {
      "midi": 69,
      "hit": false,
      "t": 257610.32000000012,
      "d": 1792.6264583333395,
      "v": 95
    },
    {
      "midi": 64,
      "hit": false,
      "t": 257615.8188541659,
      "d": 976.0466145833198,
      "v": 99
    },
    {
      "midi": 76,
      "hit": false,
      "t": 257615.81885416727,
      "d": 516.8922916666197,
      "v": 116
    },
    {
      "midi": 62,
      "hit": false,
      "t": 257618.56828125013,
      "d": 1740.387343749986,
      "v": 103
    },
    {
      "midi": 57,
      "hit": false,
      "t": 257618.56828125013,
      "d": 1803.6241666666756,
      "v": 74
    },
    {
      "midi": 83,
      "hit": false,
      "t": 257618.5682812505,
      "d": 505.89458333334187,
      "v": 97
    },
    {
      "midi": 62,
      "hit": false,
      "t": 257621.31770833256,
      "d": 1020.037447916664,
      "v": 102
    },
    {
      "midi": 76,
      "hit": false,
      "t": 258140.9594270839,
      "d": 120.97479166663834,
      "v": 116
    },
    {
      "midi": 81,
      "hit": false,
      "t": 258146.45828125053,
      "d": 118.2253645833407,
      "v": 98
    },
    {
      "midi": 73,
      "hit": false,
      "t": 258393.9067187499,
      "d": 965.0489062500128,
      "v": 100
    },
    {
      "midi": 76,
      "hit": false,
      "t": 258393.90671875054,
      "d": 670.8602083333244,
      "v": 114
    },
    {
      "midi": 81,
      "hit": false,
      "t": 258393.90671875054,
      "d": 668.1107812500268,
      "v": 101
    },
    {
      "midi": 57,
      "hit": false,
      "t": 258652.35286458305,
      "d": 1003.5408854166453,
      "v": 75
    },
    {
      "midi": 61,
      "hit": false,
      "t": 258657.8517187497,
      "d": 965.0489062500128,
      "v": 74
    },
    {
      "midi": 64,
      "hit": false,
      "t": 258657.8517187497,
      "d": 967.7983333333395,
      "v": 74
    },
    {
      "midi": 64,
      "hit": false,
      "t": 258666.09999999922,
      "d": 736.8464583333116,
      "v": 103
    },
    {
      "midi": 61,
      "hit": false,
      "t": 258671.59885416587,
      "d": 758.8418749999837,
      "v": 96
    },
    {
      "midi": 45,
      "hit": false,
      "t": 259185.74171875,
      "d": 263.945000000007,
      "v": 97
    },
    {
      "midi": 76,
      "hit": false,
      "t": 259202.23828125052,
      "d": 162.2161979166558,
      "v": 114
    },
    {
      "midi": 81,
      "hit": false,
      "t": 259202.23828125058,
      "d": 156.71734375000233,
      "v": 100
    },
    {
      "midi": 73,
      "hit": false,
      "t": 259449.6867187499,
      "d": 1292.2307291666802,
      "v": 100
    },
    {
      "midi": 47,
      "hit": false,
      "t": 259449.68671875002,
      "d": 263.945000000007,
      "v": 102
    },
    {
      "midi": 59,
      "hit": false,
      "t": 259449.68671875013,
      "d": 252.94729166667094,
      "v": 76
    },
    {
      "midi": 62,
      "hit": false,
      "t": 259457.93499999918,
      "d": 181.46218750000116,
      "v": 100
    },
    {
      "midi": 76,
      "hit": false,
      "t": 259460.68442708385,
      "d": 250.1978645833151,
      "v": 118
    },
    {
      "midi": 57,
      "hit": false,
      "t": 259463.43385416584,
      "d": 189.71046875001048,
      "v": 102
    },
    {
      "midi": 62,
      "hit": false,
      "t": 259466.18328125012,
      "d": 219.9541666666628,
      "v": 85
    },
    {
      "midi": 64,
      "hit": false,
      "t": 259466.18328125012,
      "d": 230.95187499999884,
      "v": 87
    },
    {
      "midi": 69,
      "hit": false,
      "t": 259466.18328125012,
      "d": 252.94729166667094,
      "v": 90
    },
    {
      "midi": 83,
      "hit": false,
      "t": 259466.1832812506,
      "d": 255.69671874999767,
      "v": 104
    },
    {
      "midi": 64,
      "hit": false,
      "t": 259713.63171874918,
      "d": 948.5523437499942,
      "v": 98
    },
    {
      "midi": 61,
      "hit": false,
      "t": 259713.6317187497,
      "d": 989.7937500000116,
      "v": 76
    },
    {
      "midi": 64,
      "hit": false,
      "t": 259713.6317187497,
      "d": 989.7937500000116,
      "v": 82
    },
    {
      "midi": 57,
      "hit": false,
      "t": 259713.6317187497,
      "d": 1099.770833333314,
      "v": 81
    },
    {
      "midi": 45,
      "hit": false,
      "t": 259713.63171875002,
      "d": 1055.7799999999988,
      "v": 96
    },
    {
      "midi": 49,
      "hit": false,
      "t": 259713.63171875002,
      "d": 1055.7799999999988,
      "v": 97
    },
    {
      "midi": 61,
      "hit": false,
      "t": 259724.62942708252,
      "d": 472.9014583333337,
      "v": 97
    },
    {
      "midi": 57,
      "hit": false,
      "t": 259727.37885416584,
      "d": 472.9014583333337,
      "v": 95
    },
    {
      "midi": 69,
      "hit": false,
      "t": 259730.12828124993,
      "d": 354.676093749993,
      "v": 80
    },
    {
      "midi": 61,
      "hit": false,
      "t": 259730.12828125013,
      "d": 514.1428645833221,
      "v": 99
    },
    {
      "midi": 69,
      "hit": false,
      "t": 259730.12828125013,
      "d": 1913.601250000007,
      "v": 103
    },
    {
      "midi": 64,
      "hit": false,
      "t": 259730.12828125013,
      "d": 1932.8472395833523,
      "v": 104
    },
    {
      "midi": 61,
      "hit": false,
      "t": 259730.12828125013,
      "d": 904.5615104166791,
      "v": 80
    },
    {
      "midi": 76,
      "hit": false,
      "t": 260241.5217187505,
      "d": 343.67838541665697,
      "v": 109
    },
    {
      "midi": 81,
      "hit": false,
      "t": 260241.5217187506,
      "d": 360.1749479166756,
      "v": 100
    },
    {
      "midi": 61,
      "hit": false,
      "t": 260258.01828124918,
      "d": 439.9083333333256,
      "v": 104
    },
    {
      "midi": 57,
      "hit": false,
      "t": 260258.01828124918,
      "d": 472.9014583333337,
      "v": 104
    },
    {
      "midi": 69,
      "hit": false,
      "t": 260258.0182812499,
      "d": 382.1703645833477,
      "v": 79
    },
    {
      "midi": 57,
      "hit": false,
      "t": 260258.01828125012,
      "d": 445.40718750000815,
      "v": 98
    },
    {
      "midi": 59,
      "hit": false,
      "t": 260637.43921875014,
      "d": 131.9725000000035,
      "v": 78
    },
    {
      "midi": 64,
      "hit": false,
      "t": 260769.41171874918,
      "d": 547.1359895833302,
      "v": 98
    },
    {
      "midi": 62,
      "hit": false,
      "t": 260769.4117187497,
      "d": 923.8074999999953,
      "v": 79
    },
    {
      "midi": 74,
      "hit": false,
      "t": 260769.4117187499,
      "d": 478.4003124999872,
      "v": 104
    },
    {
      "midi": 57,
      "hit": false,
      "t": 260769.41171875002,
      "d": 527.890000000014,
      "v": 102
    },
    {
      "midi": 57,
      "hit": false,
      "t": 260769.41171875014,
      "d": 1011.7891666666546,
      "v": 80
    },
    {
      "midi": 66,
      "hit": false,
      "t": 260774.91057291636,
      "d": 945.8029166666674,
      "v": 79
    },
    {
      "midi": 81,
      "hit": false,
      "t": 260780.40942708382,
      "d": 321.68296874998487,
      "v": 114
    },
    {
      "midi": 61,
      "hit": false,
      "t": 260785.90828124917,
      "d": 472.9014583333337,
      "v": 95
    },
    {
      "midi": 57,
      "hit": false,
      "t": 260785.90828124917,
      "d": 494.8968750000058,
      "v": 98
    },
    {
      "midi": 69,
      "hit": false,
      "t": 260785.90828124993,
      "d": 338.1795312500035,
      "v": 86
    },
    {
      "midi": 57,
      "hit": false,
      "t": 260785.90828125013,
      "d": 483.89916666666977,
      "v": 99
    },
    {
      "midi": 86,
      "hit": false,
      "t": 260785.9082812506,
      "d": 299.68755208331277,
      "v": 101
    },
    {
      "midi": 69,
      "hit": false,
      "t": 261297.3017187499,
      "d": 470.152031250007,
      "v": 97
    },
    {
      "midi": 30,
      "hit": false,
      "t": 261297.30171875004,
      "d": 527.890000000014,
      "v": 55
    },
    {
      "midi": 42,
      "hit": false,
      "t": 261297.30171875004,
      "d": 527.890000000014,
      "v": 98
    },
    {
      "midi": 76,
      "hit": false,
      "t": 261302.80057291716,
      "d": 305.18640624999534,
      "v": 116
    },
    {
      "midi": 81,
      "hit": false,
      "t": 261308.29942708393,
      "d": 313.43468750000466,
      "v": 97
    },
    {
      "midi": 57,
      "hit": false,
      "t": 261313.79828124918,
      "d": 483.89916666666977,
      "v": 96
    },
    {
      "midi": 62,
      "hit": false,
      "t": 261313.79828124918,
      "d": 483.89916666666977,
      "v": 96
    },
    {
      "midi": 69,
      "hit": false,
      "t": 261313.79828124994,
      "d": 349.17723958333954,
      "v": 80
    },
    {
      "midi": 57,
      "hit": false,
      "t": 261313.79828125014,
      "d": 483.89916666666977,
      "v": 101
    },
    {
      "midi": 62,
      "hit": false,
      "t": 261833.4399999992,
      "d": 1528.6814583333326,
      "v": 103
    },
    {
      "midi": 55,
      "hit": false,
      "t": 261833.4399999992,
      "d": 2078.5668749999604,
      "v": 99
    },
    {
      "midi": 50,
      "hit": false,
      "t": 261833.4399999992,
      "d": 2095.063437499979,
      "v": 98
    },
    {
      "midi": 67,
      "hit": false,
      "t": 261833.43999999968,
      "d": 4124.140625000029,
      "v": 79
    },
    {
      "midi": 59,
      "hit": false,
      "t": 261833.43999999968,
      "d": 4135.138333333336,
      "v": 76
    },
    {
      "midi": 62,
      "hit": false,
      "t": 261833.43999999968,
      "d": 4179.12916666668,
      "v": 78
    },
    {
      "midi": 67,
      "hit": false,
      "t": 261833.4399999999,
      "d": 4132.388906249951,
      "v": 96
    },
    {
      "midi": 62,
      "hit": false,
      "t": 261833.4399999999,
      "d": 4143.386614583258,
      "v": 98
    },
    {
      "midi": 71,
      "hit": false,
      "t": 261833.4399999999,
      "d": 4154.384322916565,
      "v": 95
    },
    {
      "midi": 31,
      "hit": false,
      "t": 261833.44000000006,
      "d": 1547.9274479166488,
      "v": 59
    },
    {
      "midi": 43,
      "hit": false,
      "t": 261833.44000000006,
      "d": 1553.4263020833023,
      "v": 96
    },
    {
      "midi": 78,
      "hit": false,
      "t": 261833.4400000005,
      "d": 241.94958333333489,
      "v": 110
    },
    {
      "midi": 81,
      "hit": false,
      "t": 261833.44000000058,
      "d": 230.95187499999884,
      "v": 101
    },
    {
      "midi": 67,
      "hit": false,
      "t": 261841.68828125013,
      "d": 197.9587499999907,
      "v": 76
    },
    {
      "midi": 71,
      "hit": false,
      "t": 261841.68828125013,
      "d": 197.9587499999907,
      "v": 79
    },
    {
      "midi": 62,
      "hit": false,
      "t": 261841.68828125013,
      "d": 208.95645833332674,
      "v": 79
    },
    {
      "midi": 67,
      "hit": false,
      "t": 261847.1871354166,
      "d": 4124.140625,
      "v": 80
    },
    {
      "midi": 76,
      "hit": false,
      "t": 262089.1367187505,
      "d": 247.44843750001746,
      "v": 110
    },
    {
      "midi": 79,
      "hit": false,
      "t": 262089.13671875058,
      "d": 261.19557291665114,
      "v": 103
    },
    {
      "midi": 67,
      "hit": false,
      "t": 262105.63328125014,
      "d": 197.9587499999907,
      "v": 83
    },
    {
      "midi": 71,
      "hit": false,
      "t": 262105.63328125014,
      "d": 197.9587499999907,
      "v": 74
    },
    {
      "midi": 62,
      "hit": false,
      "t": 262105.63328125014,
      "d": 208.95645833329763,
      "v": 79
    },
    {
      "midi": 71,
      "hit": false,
      "t": 262353.0817187501,
      "d": 255.69671874999767,
      "v": 81
    },
    {
      "midi": 62,
      "hit": false,
      "t": 262353.0817187501,
      "d": 263.945000000007,
      "v": 76
    },
    {
      "midi": 74,
      "hit": false,
      "t": 262353.08171875053,
      "d": 274.94270833331393,
      "v": 117
    },
    {
      "midi": 78,
      "hit": false,
      "t": 262353.0817187506,
      "d": 230.95187500002794,
      "v": 98
    },
    {
      "midi": 67,
      "hit": false,
      "t": 262358.5805729168,
      "d": 255.69671874999767,
      "v": 81
    },
    {
      "midi": 62,
      "hit": false,
      "t": 262880.97171875014,
      "d": 329.9312500000233,
      "v": 82
    },
    {
      "midi": 67,
      "hit": false,
      "t": 262880.97171875014,
      "d": 338.1795312500326,
      "v": 78
    },
    {
      "midi": 71,
      "hit": false,
      "t": 262880.97171875014,
      "d": 343.67838541668607,
      "v": 81
    },
    {
      "midi": 74,
      "hit": false,
      "t": 262880.97171875054,
      "d": 313.43468750000466,
      "v": 117
    },
    {
      "midi": 78,
      "hit": false,
      "t": 262880.9717187506,
      "d": 305.18640624999534,
      "v": 95
    },
    {
      "midi": 43,
      "hit": false,
      "t": 263408.86171875003,
      "d": 263.945000000007,
      "v": 95
    },
    {
      "midi": 31,
      "hit": false,
      "t": 263408.86171875003,
      "d": 285.9404166666791,
      "v": 61
    },
    {
      "midi": 62,
      "hit": false,
      "t": 263408.86171875015,
      "d": 2595.4591666666674,
      "v": 99
    },
    {
      "midi": 66,
      "hit": false,
      "t": 263408.86171875015,
      "d": 131.9724999999744,
      "v": 74
    },
    {
      "midi": 69,
      "hit": false,
      "t": 263408.86171875015,
      "d": 137.47135416662786,
      "v": 76
    },
    {
      "midi": 62,
      "hit": false,
      "t": 263408.86171875015,
      "d": 162.2161979166558,
      "v": 81
    },
    {
      "midi": 74,
      "hit": false,
      "t": 263408.86171875056,
      "d": 93.48052083334187,
      "v": 116
    },
    {
      "midi": 78,
      "hit": false,
      "t": 263408.8617187506,
      "d": 76.98395833332324,
      "v": 97
    },
    {
      "midi": 62,
      "hit": false,
      "t": 263425.3582812492,
      "d": 250.1978645833442,
      "v": 103
    },
    {
      "midi": 67,
      "hit": false,
      "t": 263672.80671874917,
      "d": 228.2024479166721,
      "v": 95
    },
    {
      "midi": 45,
      "hit": false,
      "t": 263672.80671875004,
      "d": 263.945000000007,
      "v": 98
    },
    {
      "midi": 33,
      "hit": false,
      "t": 263672.80671875004,
      "d": 277.69213541666977,
      "v": 59
    },
    {
      "midi": 67,
      "hit": false,
      "t": 263672.80671875016,
      "d": 2331.5141666666605,
      "v": 87
    },
    {
      "midi": 67,
      "hit": false,
      "t": 263672.80671875016,
      "d": 527.890000000014,
      "v": 76
    },
    {
      "midi": 71,
      "hit": false,
      "t": 263672.80671875016,
      "d": 538.8877083333209,
      "v": 77
    },
    {
      "midi": 62,
      "hit": false,
      "t": 263672.80671875016,
      "d": 549.8854166666279,
      "v": 75
    },
    {
      "midi": 74,
      "hit": false,
      "t": 263672.80671875057,
      "d": 395.91749999992317,
      "v": 114
    },
    {
      "midi": 78,
      "hit": false,
      "t": 263672.8067187506,
      "d": 395.9174999999814,
      "v": 95
    },
    {
      "midi": 47,
      "hit": false,
      "t": 263936.75171875005,
      "d": 989.7937500000116,
      "v": 96
    },
    {
      "midi": 35,
      "hit": false,
      "t": 263936.75171875005,
      "d": 1028.2857291667024,
      "v": 56
    },
    {
      "midi": 74,
      "hit": false,
      "t": 263942.2505729168,
      "d": 2059.320885416644,
      "v": 104
    },
    {
      "midi": 67,
      "hit": false,
      "t": 263953.2482812492,
      "d": 989.7937500000116,
      "v": 98
    },
    {
      "midi": 74,
      "hit": false,
      "t": 263953.2482812492,
      "d": 995.2926041666651,
      "v": 99
    },
    {
      "midi": 74,
      "hit": false,
      "t": 263955.9977083332,
      "d": 4132.388906249893,
      "v": 97
    },
    {
      "midi": 73,
      "hit": false,
      "t": 264068.7242187505,
      "d": 175.9633333333186,
      "v": 109
    },
    {
      "midi": 76,
      "hit": false,
      "t": 264085.2207812506,
      "d": 197.9587499999907,
      "v": 95
    },
    {
      "midi": 74,
      "hit": false,
      "t": 264211.69442708394,
      "d": 291.43927083333256,
      "v": 99
    },
    {
      "midi": 71,
      "hit": false,
      "t": 264217.1932812505,
      "d": 274.94270833331393,
      "v": 117
    },
    {
      "midi": 47,
      "hit": false,
      "t": 264992.5317187501,
      "d": 492.1474479166791,
      "v": 58
    },
    {
      "midi": 62,
      "hit": false,
      "t": 264992.53171875014,
      "d": 145.71963541669538,
      "v": 77
    },
    {
      "midi": 71,
      "hit": false,
      "t": 264992.53171875014,
      "d": 203.45760416670237,
      "v": 83
    },
    {
      "midi": 74,
      "hit": false,
      "t": 264995.2811458338,
      "d": 296.93812499998603,
      "v": 117
    },
    {
      "midi": 78,
      "hit": false,
      "t": 265003.5294270839,
      "d": 252.94729166664183,
      "v": 98
    },
    {
      "midi": 67,
      "hit": false,
      "t": 265009.02828124916,
      "d": 923.8074999999953,
      "v": 97
    },
    {
      "midi": 74,
      "hit": false,
      "t": 265009.02828124916,
      "d": 929.3063541666488,
      "v": 104
    },
    {
      "midi": 66,
      "hit": false,
      "t": 265009.02828125015,
      "d": 153.9679166667047,
      "v": 75
    },
    {
      "midi": 62,
      "hit": false,
      "t": 265256.47671875014,
      "d": 145.71963541669538,
      "v": 83
    },
    {
      "midi": 67,
      "hit": false,
      "t": 265256.47671875014,
      "d": 178.71276041667443,
      "v": 81
    },
    {
      "midi": 73,
      "hit": false,
      "t": 265256.47671875014,
      "d": 214.4553125000093,
      "v": 81
    },
    {
      "midi": 76,
      "hit": false,
      "t": 265256.47671875043,
      "d": 274.94270833331393,
      "v": 113
    },
    {
      "midi": 79,
      "hit": false,
      "t": 265256.47671875055,
      "d": 263.945000000007,
      "v": 98
    },
    {
      "midi": 35,
      "hit": false,
      "t": 265520.4217187501,
      "d": 503.14515624998603,
      "v": 59
    },
    {
      "midi": 47,
      "hit": false,
      "t": 265520.4217187501,
      "d": 527.890000000014,
      "v": 97
    },
    {
      "midi": 74,
      "hit": false,
      "t": 265520.42171875015,
      "d": 406.9152083333465,
      "v": 81
    },
    {
      "midi": 62,
      "hit": false,
      "t": 265520.42171875015,
      "d": 448.1566145833349,
      "v": 74
    },
    {
      "midi": 78,
      "hit": false,
      "t": 265520.42171875044,
      "d": 461.9037499999977,
      "v": 113
    },
    {
      "midi": 81,
      "hit": false,
      "t": 265520.42171875056,
      "d": 431.66005208331626,
      "v": 104
    },
    {
      "midi": 69,
      "hit": false,
      "t": 265525.9205729168,
      "d": 415.16348958335584,
      "v": 75
    },
    {
      "midi": 62,
      "hit": false,
      "t": 266056.5599999997,
      "d": 2001.5829166666954,
      "v": 77
    },
    {
      "midi": 69,
      "hit": false,
      "t": 266056.5599999997,
      "d": 4179.129166666709,
      "v": 80
    },
    {
      "midi": 64,
      "hit": false,
      "t": 266056.5599999997,
      "d": 4187.377447916719,
      "v": 81
    },
    {
      "midi": 62,
      "hit": false,
      "t": 266056.55999999976,
      "d": 2075.817447916663,
      "v": 104
    },
    {
      "midi": 64,
      "hit": false,
      "t": 266056.55999999976,
      "d": 4099.395781249972,
      "v": 102
    },
    {
      "midi": 69,
      "hit": false,
      "t": 266056.55999999976,
      "d": 4173.630312499998,
      "v": 95
    },
    {
      "midi": 33,
      "hit": false,
      "t": 266056.5600000001,
      "d": 1558.925156250014,
      "v": 63
    },
    {
      "midi": 45,
      "hit": false,
      "t": 266056.5600000001,
      "d": 1583.670000000042,
      "v": 97
    },
    {
      "midi": 62,
      "hit": false,
      "t": 266056.5600000002,
      "d": 1506.6860416666605,
      "v": 100
    },
    {
      "midi": 62,
      "hit": false,
      "t": 266064.80828124913,
      "d": 1517.6837500000256,
      "v": 100
    },
    {
      "midi": 64,
      "hit": false,
      "t": 266064.80828124913,
      "d": 1517.6837500000256,
      "v": 98
    },
    {
      "midi": 57,
      "hit": false,
      "t": 266064.80828124913,
      "d": 1528.6814583333326,
      "v": 95
    },
    {
      "midi": 62,
      "hit": false,
      "t": 266064.80828124995,
      "d": 2012.5806250000023,
      "v": 78
    },
    {
      "midi": 64,
      "hit": false,
      "t": 266064.8082812501,
      "d": 272.1932812500163,
      "v": 78
    },
    {
      "midi": 69,
      "hit": false,
      "t": 266064.8082812501,
      "d": 272.1932812500163,
      "v": 83
    },
    {
      "midi": 74,
      "hit": false,
      "t": 266064.8082812501,
      "d": 272.1932812500163,
      "v": 74
    },
    {
      "midi": 69,
      "hit": false,
      "t": 266064.8082812502,
      "d": 1487.4400520833442,
      "v": 101
    },
    {
      "midi": 64,
      "hit": false,
      "t": 266064.8082812502,
      "d": 1501.187187500007,
      "v": 97
    },
    {
      "midi": 76,
      "hit": false,
      "t": 266064.8082812504,
      "d": 321.68296875001397,
      "v": 116
    },
    {
      "midi": 83,
      "hit": false,
      "t": 266064.80828125053,
      "d": 332.6806770833209,
      "v": 96
    },
    {
      "midi": 69,
      "hit": false,
      "t": 266592.69828125014,
      "d": 1539.6791666666395,
      "v": 78
    },
    {
      "midi": 73,
      "hit": false,
      "t": 266592.69828125014,
      "d": 1583.6699999999837,
      "v": 82
    },
    {
      "midi": 64,
      "hit": false,
      "t": 266592.69828125014,
      "d": 1605.6654166666558,
      "v": 82
    },
    {
      "midi": 76,
      "hit": false,
      "t": 266592.6982812504,
      "d": 1583.6699999999255,
      "v": 115
    },
    {
      "midi": 81,
      "hit": false,
      "t": 266592.69828125054,
      "d": 1919.1001041666023,
      "v": 96
    },
    {
      "midi": 50,
      "hit": false,
      "t": 267631.98171875015,
      "d": 263.945000000007,
      "v": 96
    },
    {
      "midi": 38,
      "hit": false,
      "t": 267631.98171875015,
      "d": 288.6898437500349,
      "v": 61
    },
    {
      "midi": 69,
      "hit": false,
      "t": 267634.7311458335,
      "d": 461.9037499999977,
      "v": 104
    },
    {
      "midi": 64,
      "hit": false,
      "t": 267637.48057291686,
      "d": 448.1566145833349,
      "v": 98
    },
    {
      "midi": 62,
      "hit": false,
      "t": 267642.97942708246,
      "d": 503.14515625004424,
      "v": 98
    },
    {
      "midi": 57,
      "hit": false,
      "t": 267642.97942708246,
      "d": 2411.2475520833395,
      "v": 95
    },
    {
      "midi": 64,
      "hit": false,
      "t": 267645.7288541658,
      "d": 2518.475208333344,
      "v": 96
    },
    {
      "midi": 62,
      "hit": false,
      "t": 267648.47828125017,
      "d": 428.9106250000186,
      "v": 95
    },
    {
      "midi": 33,
      "hit": false,
      "t": 267895.92671875015,
      "d": 151.21848958334886,
      "v": 58
    },
    {
      "midi": 45,
      "hit": false,
      "t": 267895.92671875015,
      "d": 263.945000000007,
      "v": 98
    },
    {
      "midi": 61,
      "hit": false,
      "t": 268157.1222916658,
      "d": 1899.8541145833442,
      "v": 98
    },
    {
      "midi": 61,
      "hit": false,
      "t": 268159.87171874975,
      "d": 1996.0840624999837,
      "v": 95
    },
    {
      "midi": 61,
      "hit": false,
      "t": 268159.87171874975,
      "d": 1949.3438020833419,
      "v": 82
    },
    {
      "midi": 33,
      "hit": false,
      "t": 268159.87171875016,
      "d": 989.7937500000116,
      "v": 56
    },
    {
      "midi": 45,
      "hit": false,
      "t": 268159.87171875016,
      "d": 1055.780000000028,
      "v": 103
    },
    {
      "midi": 61,
      "hit": false,
      "t": 268159.87171875016,
      "d": 989.7937500000116,
      "v": 98
    },
    {
      "midi": 64,
      "hit": false,
      "t": 268159.87171875016,
      "d": 1055.780000000028,
      "v": 98
    },
    {
      "midi": 76,
      "hit": false,
      "t": 268168.11999999976,
      "d": 2053.8220312499907,
      "v": 100
    },
    {
      "midi": 61,
      "hit": false,
      "t": 268176.36828124995,
      "d": 536.1382812500233,
      "v": 84
    },
    {
      "midi": 69,
      "hit": false,
      "t": 268176.3682812502,
      "d": 1938.346093750035,
      "v": 99
    },
    {
      "midi": 67,
      "hit": false,
      "t": 268693.26057291677,
      "d": 349.17723958333954,
      "v": 82
    },
    {
      "midi": 71,
      "hit": false,
      "t": 268693.26057291677,
      "d": 349.17723958333954,
      "v": 76
    },
    {
      "midi": 81,
      "hit": false,
      "t": 268693.2605729171,
      "d": 354.676093749993,
      "v": 98
    },
    {
      "midi": 57,
      "hit": false,
      "t": 268704.25828124996,
      "d": 420.6623437500093,
      "v": 80
    },
    {
      "midi": 78,
      "hit": false,
      "t": 268704.2582812503,
      "d": 368.4232291666558,
      "v": 117
    },
    {
      "midi": 33,
      "hit": false,
      "t": 269215.6517187502,
      "d": 918.3086458333419,
      "v": 56
    },
    {
      "midi": 45,
      "hit": false,
      "t": 269215.6517187502,
      "d": 1022.7868749999907,
      "v": 102
    },
    {
      "midi": 78,
      "hit": false,
      "t": 269215.6517187503,
      "d": 415.16348958335584,
      "v": 117
    },
    {
      "midi": 81,
      "hit": false,
      "t": 269215.6517187504,
      "d": 390.4186458333279,
      "v": 102
    },
    {
      "midi": 61,
      "hit": false,
      "t": 269218.40114583354,
      "d": 247.44843749998836,
      "v": 98
    },
    {
      "midi": 74,
      "hit": false,
      "t": 269221.1505729168,
      "d": 497.64630208327435,
      "v": 77
    },
    {
      "midi": 62,
      "hit": false,
      "t": 269232.14828125,
      "d": 560.883124999993,
      "v": 77
    },
    {
      "midi": 69,
      "hit": false,
      "t": 269232.1482812501,
      "d": 472.9014583333046,
      "v": 80
    },
    {
      "midi": 62,
      "hit": false,
      "t": 269496.0932812502,
      "d": 252.94729166664183,
      "v": 84
    },
    {
      "midi": 66,
      "hit": false,
      "t": 269738.0428645834,
      "d": 349.17723958333954,
      "v": 74
    },
    {
      "midi": 71,
      "hit": false,
      "t": 269738.0428645834,
      "d": 349.17723958333954,
      "v": 83
    },
    {
      "midi": 57,
      "hit": false,
      "t": 269743.54171874997,
      "d": 373.9220833333093,
      "v": 79
    },
    {
      "midi": 78,
      "hit": false,
      "t": 269743.5417187504,
      "d": 269.44385416666046,
      "v": 110
    },
    {
      "midi": 81,
      "hit": false,
      "t": 269743.54171875044,
      "d": 261.19557291665114,
      "v": 97
    },
    {
      "midi": 64,
      "hit": false,
      "t": 269757.28885416687,
      "d": 434.4094791666721,
      "v": 95
    },
    {
      "midi": 76,
      "hit": false,
      "t": 270007.4867187504,
      "d": 230.95187499996973,
      "v": 110
    },
    {
      "midi": 79,
      "hit": false,
      "t": 270007.48671875044,
      "d": 214.4553125000093,
      "v": 98
    },
    {
      "midi": 50,
      "hit": false,
      "t": 270279.67999999976,
      "d": 2053.8220312499907,
      "v": 100
    },
    {
      "midi": 78,
      "hit": false,
      "t": 270279.67999999976,
      "d": 4077.4003645833,
      "v": 100
    },
    {
      "midi": 66,
      "hit": false,
      "t": 270279.67999999976,
      "d": 4088.398072916607,
      "v": 103
    },
    {
      "midi": 69,
      "hit": false,
      "t": 270279.67999999976,
      "d": 4088.398072916607,
      "v": 96
    },
    {
      "midi": 57,
      "hit": false,
      "t": 270279.67999999976,
      "d": 1979.5875000000233,
      "v": 80
    },
    {
      "midi": 62,
      "hit": false,
      "t": 270279.67999999976,
      "d": 2001.5829166666954,
      "v": 73
    },
    {
      "midi": 66,
      "hit": false,
      "t": 270279.67999999976,
      "d": 4168.131458333402,
      "v": 82
    },
    {
      "midi": 64,
      "hit": false,
      "t": 270279.67999999993,
      "d": 1044.7822916666628,
      "v": 78
    },
    {
      "midi": 74,
      "hit": false,
      "t": 270279.68000000005,
      "d": 736.8464583333116,
      "v": 74
    },
    {
      "midi": 26,
      "hit": false,
      "t": 270279.68000000017,
      "d": 1534.180312499986,
      "v": 56
    },
    {
      "midi": 38,
      "hit": false,
      "t": 270279.68000000017,
      "d": 1583.6699999999837,
      "v": 98
    },
    {
      "midi": 62,
      "hit": false,
      "t": 270285.17885416583,
      "d": 1468.194062500028,
      "v": 100
    },
    {
      "midi": 57,
      "hit": false,
      "t": 270287.9282812492,
      "d": 1435.2009374999907,
      "v": 100
    },
    {
      "midi": 66,
      "hit": false,
      "t": 270287.9282812492,
      "d": 1435.2009374999907,
      "v": 97
    },
    {
      "midi": 62,
      "hit": false,
      "t": 270287.9282812502,
      "d": 676.359062500007,
      "v": 96
    },
    {
      "midi": 66,
      "hit": false,
      "t": 270287.9282812502,
      "d": 676.359062500007,
      "v": 98
    },
    {
      "midi": 78,
      "hit": false,
      "t": 270287.92828125035,
      "d": 494.8968749999767,
      "v": 114
    },
    {
      "midi": 81,
      "hit": false,
      "t": 270287.92828125047,
      "d": 483.89916666666977,
      "v": 99
    },
    {
      "midi": 81,
      "hit": false,
      "t": 270287.92828125117,
      "d": 4157.133749999979,
      "v": 66
    },
    {
      "midi": 57,
      "hit": false,
      "t": 270309.92369791685,
      "d": 670.8602083333535,
      "v": 97
    },
    {
      "midi": 74,
      "hit": false,
      "t": 270815.8182812503,
      "d": 115.47593750001397,
      "v": 115
    },
    {
      "midi": 78,
      "hit": false,
      "t": 270815.8182812505,
      "d": 131.9724999999744,
      "v": 98
    },
    {
      "midi": 57,
      "hit": false,
      "t": 271068.7655729169,
      "d": 676.3590624999488,
      "v": 89
    },
    {
      "midi": 62,
      "hit": false,
      "t": 271068.7655729169,
      "d": 676.3590624999488,
      "v": 91
    },
    {
      "midi": 78,
      "hit": false,
      "t": 271077.01385416713,
      "d": 668.1107812499977,
      "v": 102
    },
    {
      "midi": 66,
      "hit": false,
      "t": 271079.7632812502,
      "d": 764.3407291666372,
      "v": 89
    },
    {
      "midi": 74,
      "hit": false,
      "t": 271079.7632812503,
      "d": 665.3613541665836,
      "v": 117
    },
    {
      "midi": 62,
      "hit": false,
      "t": 271327.21171874995,
      "d": 533.3888541666674,
      "v": 86
    },
    {
      "midi": 57,
      "hit": false,
      "t": 271855.10171874997,
      "d": 582.8785416666651,
      "v": 86
    },
    {
      "midi": 18,
      "hit": false,
      "t": 271855.10171875014,
      "d": 261.19557291665114,
      "v": 55
    },
    {
      "midi": 30,
      "hit": false,
      "t": 271855.10171875014,
      "d": 263.945000000007,
      "v": 95
    },
    {
      "midi": 73,
      "hit": false,
      "t": 271855.10171875026,
      "d": 263.945000000007,
      "v": 117
    },
    {
      "midi": 76,
      "hit": false,
      "t": 271855.10171875043,
      "d": 263.945000000007,
      "v": 101
    },
    {
      "midi": 64,
      "hit": false,
      "t": 271857.8511458335,
      "d": 250.1978645833442,
      "v": 100
    },
    {
      "midi": 61,
      "hit": false,
      "t": 271860.60057291685,
      "d": 241.94958333333489,
      "v": 103
    },
    {
      "midi": 62,
      "hit": false,
      "t": 271868.8488541659,
      "d": 461.9037499999977,
      "v": 100
    },
    {
      "midi": 57,
      "hit": false,
      "t": 271871.59828124923,
      "d": 461.9037499999977,
      "v": 103
    },
    {
      "midi": 66,
      "hit": false,
      "t": 271871.59828124923,
      "d": 461.9037499999977,
      "v": 101
    },
    {
      "midi": 21,
      "hit": false,
      "t": 272119.04671875015,
      "d": 261.19557291665114,
      "v": 59
    },
    {
      "midi": 33,
      "hit": false,
      "t": 272119.04671875015,
      "d": 263.945000000007,
      "v": 97
    },
    {
      "midi": 69,
      "hit": false,
      "t": 272119.04671875015,
      "d": 283.19098958332324,
      "v": 86
    },
    {
      "midi": 74,
      "hit": false,
      "t": 272119.04671875027,
      "d": 258.4461458332953,
      "v": 110
    },
    {
      "midi": 78,
      "hit": false,
      "t": 272119.04671875044,
      "d": 266.6944270833046,
      "v": 103
    },
    {
      "midi": 47,
      "hit": false,
      "t": 272382.99171874975,
      "d": 2009.8311979166465,
      "v": 102
    },
    {
      "midi": 59,
      "hit": false,
      "t": 272382.9917187498,
      "d": 1963.0909375000047,
      "v": 75
    },
    {
      "midi": 62,
      "hit": false,
      "t": 272382.9917187498,
      "d": 1963.0909375000047,
      "v": 80
    },
    {
      "midi": 23,
      "hit": false,
      "t": 272382.99171875016,
      "d": 692.8556250000256,
      "v": 56
    },
    {
      "midi": 35,
      "hit": false,
      "t": 272382.99171875016,
      "d": 791.835000000021,
      "v": 97
    },
    {
      "midi": 66,
      "hit": false,
      "t": 272382.99171875016,
      "d": 1476.4423437500373,
      "v": 95
    },
    {
      "midi": 62,
      "hit": false,
      "t": 272393.9894270833,
      "d": 943.0534895833698,
      "v": 86
    },
    {
      "midi": 62,
      "hit": false,
      "t": 272396.7388541659,
      "d": 1484.6906250000466,
      "v": 100
    },
    {
      "midi": 74,
      "hit": false,
      "t": 272396.7388541667,
      "d": 775.3384375000023,
      "v": 107
    },
    {
      "midi": 66,
      "hit": false,
      "t": 272399.48828124924,
      "d": 1501.187187500007,
      "v": 103
    },
    {
      "midi": 59,
      "hit": false,
      "t": 272399.48828124924,
      "d": 1517.6837500000256,
      "v": 100
    },
    {
      "midi": 73,
      "hit": false,
      "t": 273166.57843750005,
      "d": 145.71963541663717,
      "v": 107
    },
    {
      "midi": 59,
      "hit": false,
      "t": 273174.8267187501,
      "d": 208.95645833335584,
      "v": 90
    },
    {
      "midi": 23,
      "hit": false,
      "t": 273174.8267187502,
      "d": 156.71734375000233,
      "v": 56
    },
    {
      "midi": 35,
      "hit": false,
      "t": 273174.8267187502,
      "d": 263.945000000007,
      "v": 101
    },
    {
      "midi": 78,
      "hit": false,
      "t": 273188.5738541671,
      "d": 156.71734375000233,
      "v": 98
    },
    {
      "midi": 74,
      "hit": false,
      "t": 273191.3232812502,
      "d": 153.9679166666465,
      "v": 109
    },
    {
      "midi": 71,
      "hit": false,
      "t": 273284.80380208336,
      "d": 156.71734375000233,
      "v": 105
    },
    {
      "midi": 23,
      "hit": false,
      "t": 273438.7717187502,
      "d": 505.89458333334187,
      "v": 58
    },
    {
      "midi": 35,
      "hit": false,
      "t": 273438.7717187502,
      "d": 527.890000000014,
      "v": 97
    },
    {
      "midi": 74,
      "hit": false,
      "t": 273438.7717187502,
      "d": 272.1932812500163,
      "v": 116
    },
    {
      "midi": 78,
      "hit": false,
      "t": 273438.7717187504,
      "d": 285.9404166666791,
      "v": 101
    },
    {
      "midi": 62,
      "hit": false,
      "t": 273441.5211458333,
      "d": 255.69671874999767,
      "v": 79
    },
    {
      "midi": 59,
      "hit": false,
      "t": 273441.5211458335,
      "d": 415.16348958335584,
      "v": 95
    },
    {
      "midi": 69,
      "hit": false,
      "t": 273444.2705729167,
      "d": 888.0649479166605,
      "v": 107
    },
    {
      "midi": 64,
      "hit": false,
      "t": 273702.71671874996,
      "d": 291.43927083333256,
      "v": 82
    },
    {
      "midi": 76,
      "hit": false,
      "t": 273702.7167187502,
      "d": 285.9404166666791,
      "v": 111
    },
    {
      "midi": 79,
      "hit": false,
      "t": 273702.7167187504,
      "d": 307.9358333333512,
      "v": 101
    },
    {
      "midi": 66,
      "hit": false,
      "t": 273966.66171874997,
      "d": 472.9014583333046,
      "v": 83
    },
    {
      "midi": 35,
      "hit": false,
      "t": 273966.6617187502,
      "d": 244.69901041669073,
      "v": 55
    },
    {
      "midi": 47,
      "hit": false,
      "t": 273966.6617187502,
      "d": 263.945000000007,
      "v": 98
    },
    {
      "midi": 59,
      "hit": false,
      "t": 273966.6617187502,
      "d": 494.8968749999767,
      "v": 95
    },
    {
      "midi": 66,
      "hit": false,
      "t": 273966.6617187502,
      "d": 503.14515624998603,
      "v": 101
    },
    {
      "midi": 78,
      "hit": false,
      "t": 273966.6617187502,
      "d": 472.9014583333046,
      "v": 115
    },
    {
      "midi": 81,
      "hit": false,
      "t": 273966.66171875043,
      "d": 467.40260416665114,
      "v": 97
    },
    {
      "midi": 62,
      "hit": false,
      "t": 273980.40885416593,
      "d": 461.9037499999977,
      "v": 100
    },
    {
      "midi": 66,
      "hit": false,
      "t": 273983.1582812493,
      "d": 445.40718749997905,
      "v": 101
    },
    {
      "midi": 59,
      "hit": false,
      "t": 273983.1582812493,
      "d": 478.4003124999581,
      "v": 99
    },
    {
      "midi": 23,
      "hit": false,
      "t": 274230.6067187502,
      "d": 236.4507291666814,
      "v": 62
    },
    {
      "midi": 35,
      "hit": false,
      "t": 274230.6067187502,
      "d": 263.945000000007,
      "v": 97
    },
    {
      "midi": 62,
      "hit": false,
      "t": 274502.79999999923,
      "d": 2095.063437499979,
      "v": 95
    },
    {
      "midi": 64,
      "hit": false,
      "t": 274502.79999999923,
      "d": 3068.3606250000303,
      "v": 99
    },
    {
      "midi": 69,
      "hit": false,
      "t": 274502.79999999923,
      "d": 3084.857187500049,
      "v": 97
    },
    {
      "midi": 45,
      "hit": false,
      "t": 274502.79999999976,
      "d": 2029.077187500021,
      "v": 95
    },
    {
      "midi": 62,
      "hit": false,
      "t": 274502.79999999976,
      "d": 2086.815156250028,
      "v": 98
    },
    {
      "midi": 64,
      "hit": false,
      "t": 274502.79999999976,
      "d": 3087.6066145833465,
      "v": 102
    },
    {
      "midi": 69,
      "hit": false,
      "t": 274502.79999999976,
      "d": 3098.6043229166535,
      "v": 96
    },
    {
      "midi": 62,
      "hit": false,
      "t": 274502.7999999998,
      "d": 2111.5599999999977,
      "v": 74
    },
    {
      "midi": 64,
      "hit": false,
      "t": 274502.7999999998,
      "d": 3079.358333333337,
      "v": 76
    },
    {
      "midi": 57,
      "hit": false,
      "t": 274502.7999999998,
      "d": 4146.136041666672,
      "v": 78
    },
    {
      "midi": 64,
      "hit": false,
      "t": 274502.79999999993,
      "d": 1712.8930729166605,
      "v": 78
    },
    {
      "midi": 64,
      "hit": false,
      "t": 274502.80000000005,
      "d": 494.8968749999767,
      "v": 75
    },
    {
      "midi": 62,
      "hit": false,
      "t": 274502.80000000005,
      "d": 500.3957291666302,
      "v": 74
    },
    {
      "midi": 69,
      "hit": false,
      "t": 274502.80000000005,
      "d": 514.142864583293,
      "v": 83
    },
    {
      "midi": 62,
      "hit": false,
      "t": 274502.80000000016,
      "d": 516.8922916666488,
      "v": 96
    },
    {
      "midi": 57,
      "hit": false,
      "t": 274502.80000000016,
      "d": 2598.208593749965,
      "v": 97
    },
    {
      "midi": 78,
      "hit": false,
      "t": 274502.80000000016,
      "d": 527.890000000014,
      "v": 116
    },
    {
      "midi": 33,
      "hit": false,
      "t": 274502.8000000002,
      "d": 1567.1734375000233,
      "v": 56
    },
    {
      "midi": 45,
      "hit": false,
      "t": 274502.8000000002,
      "d": 1583.670000000042,
      "v": 100
    },
    {
      "midi": 83,
      "hit": false,
      "t": 274502.8000000004,
      "d": 516.8922916666488,
      "v": 97
    },
    {
      "midi": 81,
      "hit": false,
      "t": 274502.80000000115,
      "d": 3145.3445833333535,
      "v": 64
    },
    {
      "midi": 62,
      "hit": false,
      "t": 275022.44171875,
      "d": 137.47135416668607,
      "v": 80
    },
    {
      "midi": 64,
      "hit": false,
      "t": 275022.44171875,
      "d": 137.47135416668607,
      "v": 79
    },
    {
      "midi": 62,
      "hit": false,
      "t": 275022.44171875017,
      "d": 252.94729166664183,
      "v": 96
    },
    {
      "midi": 76,
      "hit": false,
      "t": 275022.44171875017,
      "d": 131.9725000000326,
      "v": 111
    },
    {
      "midi": 81,
      "hit": false,
      "t": 275022.4417187504,
      "d": 120.97479166666744,
      "v": 104
    },
    {
      "midi": 69,
      "hit": false,
      "t": 275036.18885416666,
      "d": 109.9770833333605,
      "v": 79
    },
    {
      "midi": 62,
      "hit": false,
      "t": 275286.3867187501,
      "d": 789.0855729166651,
      "v": 87
    },
    {
      "midi": 76,
      "hit": false,
      "t": 275286.3867187502,
      "d": 739.5958854166674,
      "v": 113
    },
    {
      "midi": 81,
      "hit": false,
      "t": 275286.3867187504,
      "d": 742.3453125000233,
      "v": 97
    },
    {
      "midi": 69,
      "hit": false,
      "t": 275302.88328125,
      "d": 646.1153645833256,
      "v": 76
    },
    {
      "midi": 64,
      "hit": false,
      "t": 275302.88328125,
      "d": 662.6119270833442,
      "v": 80
    },
    {
      "midi": 62,
      "hit": false,
      "t": 275302.88328125,
      "d": 668.1107812499977,
      "v": 79
    },
    {
      "midi": 61,
      "hit": false,
      "t": 276078.22171875014,
      "d": 294.1886979166884,
      "v": 99
    },
    {
      "midi": 16,
      "hit": false,
      "t": 276078.22171875025,
      "d": 527.890000000014,
      "v": 60
    },
    {
      "midi": 28,
      "hit": false,
      "t": 276078.22171875025,
      "d": 527.890000000014,
      "v": 98
    },
    {
      "midi": 62,
      "hit": false,
      "t": 276086.47000000003,
      "d": 153.9679166666465,
      "v": 75
    },
    {
      "midi": 64,
      "hit": false,
      "t": 276086.47000000003,
      "d": 156.71734375000233,
      "v": 75
    },
    {
      "midi": 69,
      "hit": false,
      "t": 276094.71828125004,
      "d": 134.72192708333023,
      "v": 75
    },
    {
      "midi": 76,
      "hit": false,
      "t": 276094.71828125016,
      "d": 241.94958333333489,
      "v": 109
    },
    {
      "midi": 81,
      "hit": false,
      "t": 276094.71828125045,
      "d": 241.94958333333489,
      "v": 97
    },
    {
      "midi": 62,
      "hit": false,
      "t": 276342.1667187499,
      "d": 272.1932812500163,
      "v": 82
    },
    {
      "midi": 62,
      "hit": false,
      "t": 276342.16671875014,
      "d": 285.9404166666791,
      "v": 90
    },
    {
      "midi": 78,
      "hit": false,
      "t": 276342.16671875014,
      "d": 167.71505208330927,
      "v": 116
    },
    {
      "midi": 64,
      "hit": false,
      "t": 276347.6655729167,
      "d": 1198.7502083333093,
      "v": 78
    },
    {
      "midi": 83,
      "hit": false,
      "t": 276350.41500000044,
      "d": 170.46447916666511,
      "v": 99
    },
    {
      "midi": 61,
      "hit": false,
      "t": 276355.9138541667,
      "d": 1064.028281249979,
      "v": 77
    },
    {
      "midi": 69,
      "hit": false,
      "t": 276355.9138541667,
      "d": 1121.766249999986,
      "v": 76
    },
    {
      "midi": 45,
      "hit": false,
      "t": 276595.11401041644,
      "d": 1020.0374479166348,
      "v": 95
    },
    {
      "midi": 61,
      "hit": false,
      "t": 276600.61286458257,
      "d": 973.2971875000512,
      "v": 97
    },
    {
      "midi": 61,
      "hit": false,
      "t": 276603.36229166645,
      "d": 987.0443229166558,
      "v": 95
    },
    {
      "midi": 61,
      "hit": false,
      "t": 276606.1117187498,
      "d": 1033.7845833333558,
      "v": 74
    },
    {
      "midi": 61,
      "hit": false,
      "t": 276606.11171875015,
      "d": 626.8693749999511,
      "v": 96
    },
    {
      "midi": 45,
      "hit": false,
      "t": 276606.11171875027,
      "d": 1055.780000000028,
      "v": 96
    },
    {
      "midi": 33,
      "hit": false,
      "t": 276606.11171875027,
      "d": 1064.0282812500373,
      "v": 61
    },
    {
      "midi": 61,
      "hit": false,
      "t": 276622.60828124994,
      "d": 494.8968749999767,
      "v": 80
    },
    {
      "midi": 57,
      "hit": false,
      "t": 277134.0017187501,
      "d": 563.6325520832906,
      "v": 96
    },
    {
      "midi": 78,
      "hit": false,
      "t": 277134.0017187501,
      "d": 472.9014583333046,
      "v": 112
    },
    {
      "midi": 81,
      "hit": false,
      "t": 277134.00171875046,
      "d": 450.9060416666907,
      "v": 102
    },
    {
      "midi": 57,
      "hit": false,
      "t": 277150.4982812499,
      "d": 439.9083333333256,
      "v": 80
    },
    {
      "midi": 64,
      "hit": false,
      "t": 277400.6961458334,
      "d": 261.19557291665114,
      "v": 88
    },
    {
      "midi": 86,
      "hit": false,
      "t": 277653.64343750116,
      "d": 505.89458333334187,
      "v": 63
    },
    {
      "midi": 66,
      "hit": false,
      "t": 277656.3928645826,
      "d": 948.5523437500233,
      "v": 100
    },
    {
      "midi": 74,
      "hit": false,
      "t": 277656.3928645826,
      "d": 973.2971875000512,
      "v": 95
    },
    {
      "midi": 69,
      "hit": false,
      "t": 277656.3928645826,
      "d": 989.7937500000698,
      "v": 99
    },
    {
      "midi": 62,
      "hit": false,
      "t": 277661.8917187499,
      "d": 450.9060416666907,
      "v": 83
    },
    {
      "midi": 66,
      "hit": false,
      "t": 277661.89171875006,
      "d": 516.892291666707,
      "v": 104
    },
    {
      "midi": 81,
      "hit": false,
      "t": 277661.89171875006,
      "d": 428.9106250000186,
      "v": 116
    },
    {
      "midi": 30,
      "hit": false,
      "t": 277661.8917187503,
      "d": 868.8189583333442,
      "v": 62
    },
    {
      "midi": 42,
      "hit": false,
      "t": 277661.8917187503,
      "d": 1022.7868749999907,
      "v": 98
    },
    {
      "midi": 86,
      "hit": false,
      "t": 277661.89171875047,
      "d": 409.66463541664416,
      "v": 96
    },
    {
      "midi": 74,
      "hit": false,
      "t": 277664.6411458333,
      "d": 516.8922916667652,
      "v": 76
    },
    {
      "midi": 62,
      "hit": false,
      "t": 277667.39057291666,
      "d": 461.9037500000559,
      "v": 78
    },
    {
      "midi": 54,
      "hit": false,
      "t": 277670.1399999997,
      "d": 987.0443229166558,
      "v": 95
    },
    {
      "midi": 57,
      "hit": false,
      "t": 277670.1399999997,
      "d": 987.0443229166558,
      "v": 95
    },
    {
      "midi": 62,
      "hit": false,
      "t": 277670.1399999997,
      "d": 987.0443229166558,
      "v": 95
    },
    {
      "midi": 69,
      "hit": false,
      "t": 277670.14,
      "d": 472.9014583333628,
      "v": 81
    },
    {
      "midi": 66,
      "hit": false,
      "t": 277672.88942708337,
      "d": 461.9037499999977,
      "v": 82
    },
    {
      "midi": 69,
      "hit": false,
      "t": 277675.6388541667,
      "d": 472.9014583333628,
      "v": 100
    },
    {
      "midi": 54,
      "hit": false,
      "t": 277683.8871354165,
      "d": 1033.7845833332976,
      "v": 74
    },
    {
      "midi": 62,
      "hit": false,
      "t": 277683.8871354165,
      "d": 1033.7845833332976,
      "v": 74
    },
    {
      "midi": 88,
      "hit": false,
      "t": 278176.0345833345,
      "d": 516.8922916666488,
      "v": 65
    },
    {
      "midi": 62,
      "hit": false,
      "t": 278189.7817187499,
      "d": 494.8968749999767,
      "v": 79
    },
    {
      "midi": 62,
      "hit": false,
      "t": 278189.7817187501,
      "d": 417.9129166666535,
      "v": 102
    },
    {
      "midi": 57,
      "hit": false,
      "t": 278189.7817187501,
      "d": 459.15432291664183,
      "v": 102
    },
    {
      "midi": 78,
      "hit": false,
      "t": 278189.78171875014,
      "d": 450.9060416666907,
      "v": 118
    },
    {
      "midi": 81,
      "hit": false,
      "t": 278189.7817187505,
      "d": 428.9106250000186,
      "v": 103
    },
    {
      "midi": 69,
      "hit": false,
      "t": 278206.2782812501,
      "d": 461.9037499999977,
      "v": 80
    },
    {
      "midi": 62,
      "hit": false,
      "t": 278206.2782812501,
      "d": 483.89916666666977,
      "v": 77
    },
    {
      "midi": 66,
      "hit": false,
      "t": 278206.2782812501,
      "d": 494.8968749999767,
      "v": 80
    },
    {
      "midi": 59,
      "hit": false,
      "t": 278725.91999999934,
      "d": 1517.6837500000256,
      "v": 96
    },
    {
      "midi": 62,
      "hit": false,
      "t": 278725.91999999934,
      "d": 2034.5760416666744,
      "v": 102
    },
    {
      "midi": 67,
      "hit": false,
      "t": 278725.91999999934,
      "d": 2034.5760416666744,
      "v": 98
    },
    {
      "midi": 43,
      "hit": false,
      "t": 278725.9199999997,
      "d": 2097.812864583335,
      "v": 104
    },
    {
      "midi": 71,
      "hit": false,
      "t": 278725.9199999997,
      "d": 4077.4003645833,
      "v": 102
    },
    {
      "midi": 62,
      "hit": false,
      "t": 278725.9199999997,
      "d": 4143.386614583316,
      "v": 103
    },
    {
      "midi": 67,
      "hit": false,
      "t": 278725.9199999997,
      "d": 4143.386614583316,
      "v": 97
    },
    {
      "midi": 55,
      "hit": false,
      "t": 278725.9199999998,
      "d": 4091.147500000021,
      "v": 81
    },
    {
      "midi": 59,
      "hit": false,
      "t": 278725.9199999998,
      "d": 4091.147500000021,
      "v": 78
    },
    {
      "midi": 62,
      "hit": false,
      "t": 278725.9199999998,
      "d": 4091.147500000021,
      "v": 78
    },
    {
      "midi": 62,
      "hit": false,
      "t": 278725.92000000004,
      "d": 1561.6745833333116,
      "v": 103
    },
    {
      "midi": 74,
      "hit": false,
      "t": 278725.92000000016,
      "d": 351.9266666666954,
      "v": 111
    },
    {
      "midi": 43,
      "hit": false,
      "t": 278725.9200000003,
      "d": 761.5913020833395,
      "v": 104
    },
    {
      "midi": 31,
      "hit": false,
      "t": 278725.9200000003,
      "d": 767.090156249993,
      "v": 64
    },
    {
      "midi": 79,
      "hit": false,
      "t": 278725.9200000005,
      "d": 351.9266666666954,
      "v": 101
    },
    {
      "midi": 62,
      "hit": false,
      "t": 278734.1682812499,
      "d": 4157.133749999979,
      "v": 77
    },
    {
      "midi": 71,
      "hit": false,
      "t": 278734.16828125005,
      "d": 269.44385416666046,
      "v": 76
    },
    {
      "midi": 62,
      "hit": false,
      "t": 278734.16828125005,
      "d": 277.69213541666977,
      "v": 76
    },
    {
      "midi": 67,
      "hit": false,
      "t": 278734.16828125005,
      "d": 283.19098958332324,
      "v": 79
    },
    {
      "midi": 86,
      "hit": false,
      "t": 278734.16828125116,
      "d": 1707.394218750007,
      "v": 61
    },
    {
      "midi": 71,
      "hit": false,
      "t": 279245.56171875005,
      "d": 255.69671874999767,
      "v": 78
    },
    {
      "midi": 62,
      "hit": false,
      "t": 279245.56171875005,
      "d": 263.945000000007,
      "v": 74
    },
    {
      "midi": 74,
      "hit": false,
      "t": 279245.56171875016,
      "d": 329.9312500000233,
      "v": 114
    },
    {
      "midi": 78,
      "hit": false,
      "t": 279245.5617187505,
      "d": 373.9220833333093,
      "v": 104
    },
    {
      "midi": 67,
      "hit": false,
      "t": 279251.0605729167,
      "d": 255.69671874999767,
      "v": 77
    },
    {
      "midi": 31,
      "hit": false,
      "t": 279509.5067187503,
      "d": 129.22307291667676,
      "v": 55
    },
    {
      "midi": 43,
      "hit": false,
      "t": 279509.5067187503,
      "d": 263.945000000007,
      "v": 103
    },
    {
      "midi": 62,
      "hit": false,
      "t": 279773.45171875006,
      "d": 329.9312500000233,
      "v": 79
    },
    {
      "midi": 67,
      "hit": false,
      "t": 279773.45171875006,
      "d": 338.1795312500326,
      "v": 75
    },
    {
      "midi": 71,
      "hit": false,
      "t": 279773.45171875006,
      "d": 343.67838541668607,
      "v": 80
    },
    {
      "midi": 74,
      "hit": false,
      "t": 279773.4517187502,
      "d": 274.94270833331393,
      "v": 110
    },
    {
      "midi": 31,
      "hit": false,
      "t": 279773.4517187503,
      "d": 431.66005208331626,
      "v": 55
    },
    {
      "midi": 43,
      "hit": false,
      "t": 279773.4517187503,
      "d": 527.8899999999558,
      "v": 99
    },
    {
      "midi": 78,
      "hit": false,
      "t": 279773.45171875047,
      "d": 274.94270833331393,
      "v": 97
    },
    {
      "midi": 59,
      "hit": false,
      "t": 280298.592291666,
      "d": 412.4140625,
      "v": 97
    },
    {
      "midi": 59,
      "hit": false,
      "t": 280301.34171875,
      "d": 222.70359375001863,
      "v": 98
    },
    {
      "midi": 66,
      "hit": false,
      "t": 280301.3417187501,
      "d": 131.9724999999744,
      "v": 78
    },
    {
      "midi": 69,
      "hit": false,
      "t": 280301.3417187501,
      "d": 137.47135416662786,
      "v": 79
    },
    {
      "midi": 62,
      "hit": false,
      "t": 280301.3417187501,
      "d": 162.2161979166558,
      "v": 83
    },
    {
      "midi": 74,
      "hit": false,
      "t": 280301.34171875013,
      "d": 134.72192708333023,
      "v": 117
    },
    {
      "midi": 31,
      "hit": false,
      "t": 280301.34171875025,
      "d": 222.70359375001863,
      "v": 60
    },
    {
      "midi": 43,
      "hit": false,
      "t": 280301.34171875025,
      "d": 263.945000000007,
      "v": 97
    },
    {
      "midi": 78,
      "hit": false,
      "t": 280301.3417187504,
      "d": 164.96562500001164,
      "v": 100
    },
    {
      "midi": 61,
      "hit": false,
      "t": 280565.28671875,
      "d": 274.94270833331393,
      "v": 90
    },
    {
      "midi": 71,
      "hit": false,
      "t": 280565.2867187501,
      "d": 384.9197916666744,
      "v": 79
    },
    {
      "midi": 62,
      "hit": false,
      "t": 280565.2867187501,
      "d": 395.9174999999814,
      "v": 79
    },
    {
      "midi": 67,
      "hit": false,
      "t": 280565.2867187501,
      "d": 395.9174999999814,
      "v": 77
    },
    {
      "midi": 74,
      "hit": false,
      "t": 280565.28671875014,
      "d": 384.9197916666744,
      "v": 114
    },
    {
      "midi": 78,
      "hit": false,
      "t": 280565.28671875043,
      "d": 406.9152083333465,
      "v": 103
    },
    {
      "midi": 86,
      "hit": false,
      "t": 280565.2867187512,
      "d": 164.96562499995343,
      "v": 65
    },
    {
      "midi": 43,
      "hit": false,
      "t": 280581.7832812503,
      "d": 164.96562499995343,
      "v": 101
    },
    {
      "midi": 31,
      "hit": false,
      "t": 280623.02468750026,
      "d": 156.71734374994412,
      "v": 57
    },
    {
      "midi": 85,
      "hit": false,
      "t": 280697.25921875116,
      "d": 175.9633333333186,
      "v": 68
    },
    {
      "midi": 45,
      "hit": false,
      "t": 280719.2546354169,
      "d": 142.97020833333954,
      "v": 101
    },
    {
      "midi": 33,
      "hit": false,
      "t": 280730.2523437502,
      "d": 115.47593750001397,
      "v": 58
    },
    {
      "midi": 67,
      "hit": false,
      "t": 280823.7328645827,
      "d": 1091.5225520833628,
      "v": 95
    },
    {
      "midi": 62,
      "hit": false,
      "t": 280823.7328645827,
      "d": 1094.2719791667187,
      "v": 100
    },
    {
      "midi": 59,
      "hit": false,
      "t": 280829.23171874933,
      "d": 1930.0978125000838,
      "v": 95
    },
    {
      "midi": 47,
      "hit": false,
      "t": 280829.2317187497,
      "d": 1976.8380729166674,
      "v": 103
    },
    {
      "midi": 62,
      "hit": false,
      "t": 280829.23171875003,
      "d": 1685.3988020832767,
      "v": 98
    },
    {
      "midi": 35,
      "hit": false,
      "t": 280829.2317187502,
      "d": 670.8602083333535,
      "v": 57
    },
    {
      "midi": 47,
      "hit": false,
      "t": 280829.2317187502,
      "d": 791.835000000021,
      "v": 104
    },
    {
      "midi": 83,
      "hit": false,
      "t": 280829.23171875114,
      "d": 932.0557812500047,
      "v": 62
    },
    {
      "midi": 73,
      "hit": false,
      "t": 280977.70078125014,
      "d": 197.9587499999907,
      "v": 110
    },
    {
      "midi": 76,
      "hit": false,
      "t": 280977.70078125043,
      "d": 181.46218750003027,
      "v": 102
    },
    {
      "midi": 67,
      "hit": false,
      "t": 281093.17671875004,
      "d": 310.685260416707,
      "v": 76
    },
    {
      "midi": 59,
      "hit": false,
      "t": 281093.17671875004,
      "d": 313.43468750006286,
      "v": 77
    },
    {
      "midi": 71,
      "hit": false,
      "t": 281093.17671875015,
      "d": 197.9587499999907,
      "v": 109
    },
    {
      "midi": 74,
      "hit": false,
      "t": 281093.17671875044,
      "d": 241.9495833333931,
      "v": 102
    },
    {
      "midi": 62,
      "hit": false,
      "t": 281095.9261458334,
      "d": 294.1886979166884,
      "v": 82
    },
    {
      "midi": 35,
      "hit": false,
      "t": 281621.0667187502,
      "d": 153.9679166666465,
      "v": 58
    },
    {
      "midi": 47,
      "hit": false,
      "t": 281621.0667187502,
      "d": 263.945000000007,
      "v": 101
    },
    {
      "midi": 62,
      "hit": false,
      "t": 281885.0117187501,
      "d": 145.71963541669538,
      "v": 80
    },
    {
      "midi": 71,
      "hit": false,
      "t": 281885.0117187501,
      "d": 203.45760416670237,
      "v": 80
    },
    {
      "midi": 35,
      "hit": false,
      "t": 281885.01171875023,
      "d": 464.6531770833535,
      "v": 64
    },
    {
      "midi": 47,
      "hit": false,
      "t": 281885.01171875023,
      "d": 527.890000000014,
      "v": 101
    },
    {
      "midi": 83,
      "hit": false,
      "t": 281885.01171875116,
      "d": 164.96562500001164,
      "v": 63
    },
    {
      "midi": 74,
      "hit": false,
      "t": 281887.7611458338,
      "d": 252.94729166664183,
      "v": 100
    },
    {
      "midi": 71,
      "hit": false,
      "t": 281890.510572916,
      "d": 307.9358333334094,
      "v": 104
    },
    {
      "midi": 71,
      "hit": false,
      "t": 281890.51057291677,
      "d": 285.9404166666791,
      "v": 114
    },
    {
      "midi": 71,
      "hit": false,
      "t": 281901.50828125,
      "d": 228.2024479166721,
      "v": 100
    },
    {
      "midi": 66,
      "hit": false,
      "t": 281901.50828125014,
      "d": 153.9679166667047,
      "v": 74
    },
    {
      "midi": 73,
      "hit": false,
      "t": 282148.95671875,
      "d": 241.94958333333489,
      "v": 93
    },
    {
      "midi": 62,
      "hit": false,
      "t": 282148.9567187501,
      "d": 145.71963541669538,
      "v": 75
    },
    {
      "midi": 67,
      "hit": false,
      "t": 282148.9567187501,
      "d": 178.71276041667443,
      "v": 79
    },
    {
      "midi": 73,
      "hit": false,
      "t": 282148.9567187501,
      "d": 214.4553125000093,
      "v": 75
    },
    {
      "midi": 73,
      "hit": false,
      "t": 282148.9567187501,
      "d": 239.20015624997905,
      "v": 115
    },
    {
      "midi": 76,
      "hit": false,
      "t": 282148.9567187505,
      "d": 263.945000000007,
      "v": 104
    },
    {
      "midi": 85,
      "hit": false,
      "t": 282148.9567187512,
      "d": 164.96562500001164,
      "v": 60
    },
    {
      "midi": 73,
      "hit": false,
      "t": 282162.7038541661,
      "d": 340.92895833333023,
      "v": 100
    },
    {
      "midi": 74,
      "hit": false,
      "t": 282412.90171875013,
      "d": 406.9152083333465,
      "v": 75
    },
    {
      "midi": 62,
      "hit": false,
      "t": 282412.90171875013,
      "d": 448.1566145833349,
      "v": 79
    },
    {
      "midi": 74,
      "hit": false,
      "t": 282412.90171875013,
      "d": 266.6944270833046,
      "v": 116
    },
    {
      "midi": 35,
      "hit": false,
      "t": 282412.90171875025,
      "d": 470.152031250007,
      "v": 64
    },
    {
      "midi": 47,
      "hit": false,
      "t": 282412.90171875025,
      "d": 527.890000000014,
      "v": 101
    },
    {
      "midi": 78,
      "hit": false,
      "t": 282412.9017187505,
      "d": 277.69213541666977,
      "v": 101
    },
    {
      "midi": 86,
      "hit": false,
      "t": 282412.9017187512,
      "d": 362.9243750000023,
      "v": 61
    },
    {
      "midi": 69,
      "hit": false,
      "t": 282418.4005729168,
      "d": 415.16348958335584,
      "v": 78
    },
    {
      "midi": 74,
      "hit": false,
      "t": 282423.89942708274,
      "d": 371.17265625001164,
      "v": 95
    },
    {
      "midi": 74,
      "hit": false,
      "t": 282423.8994270833,
      "d": 505.89458333334187,
      "v": 100
    },
    {
      "midi": 74,
      "hit": false,
      "t": 282949.0399999994,
      "d": 1088.773125000007,
      "v": 98
    },
    {
      "midi": 64,
      "hit": false,
      "t": 282949.0399999994,
      "d": 1996.0840624999837,
      "v": 97
    },
    {
      "midi": 69,
      "hit": false,
      "t": 282949.0399999994,
      "d": 2029.077187500021,
      "v": 98
    },
    {
      "midi": 62,
      "hit": false,
      "t": 282949.0399999997,
      "d": 998.042031250021,
      "v": 103
    },
    {
      "midi": 45,
      "hit": false,
      "t": 282949.0399999997,
      "d": 2042.824322916742,
      "v": 103
    },
    {
      "midi": 69,
      "hit": false,
      "t": 282949.0399999997,
      "d": 2084.0657291667303,
      "v": 100
    },
    {
      "midi": 62,
      "hit": false,
      "t": 282949.0399999998,
      "d": 1000.7914583333186,
      "v": 78
    },
    {
      "midi": 57,
      "hit": false,
      "t": 282949.0399999998,
      "d": 1011.7891666666255,
      "v": 76
    },
    {
      "midi": 78,
      "hit": false,
      "t": 282949.0400000001,
      "d": 470.152031250007,
      "v": 109
    },
    {
      "midi": 33,
      "hit": false,
      "t": 282949.04000000027,
      "d": 459.15432291664183,
      "v": 62
    },
    {
      "midi": 45,
      "hit": false,
      "t": 282949.04000000027,
      "d": 497.64630208333256,
      "v": 98
    },
    {
      "midi": 83,
      "hit": false,
      "t": 282949.0400000005,
      "d": 456.4048958333442,
      "v": 104
    },
    {
      "midi": 64,
      "hit": false,
      "t": 282954.53885416646,
      "d": 978.7960416666465,
      "v": 77
    },
    {
      "midi": 62,
      "hit": false,
      "t": 282957.2882812499,
      "d": 1003.5408854166744,
      "v": 84
    },
    {
      "midi": 69,
      "hit": false,
      "t": 282957.28828125,
      "d": 981.5454687500023,
      "v": 95
    },
    {
      "midi": 74,
      "hit": false,
      "t": 282957.28828125,
      "d": 1014.5385937499814,
      "v": 101
    },
    {
      "midi": 64,
      "hit": false,
      "t": 282957.28828125,
      "d": 2067.5691666666535,
      "v": 102
    },
    {
      "midi": 64,
      "hit": false,
      "t": 282957.2882812501,
      "d": 272.1932812500163,
      "v": 83
    },
    {
      "midi": 69,
      "hit": false,
      "t": 282957.2882812501,
      "d": 272.1932812500163,
      "v": 79
    },
    {
      "midi": 74,
      "hit": false,
      "t": 282957.2882812501,
      "d": 272.1932812500163,
      "v": 83
    },
    {
      "midi": 86,
      "hit": false,
      "t": 282957.28828125115,
      "d": 236.4507291666814,
      "v": 64
    },
    {
      "midi": 85,
      "hit": false,
      "t": 283221.23328125116,
      "d": 258.4461458333535,
      "v": 61
    },
    {
      "midi": 76,
      "hit": false,
      "t": 283468.6817187501,
      "d": 1371.9641145833302,
      "v": 110
    },
    {
      "midi": 33,
      "hit": false,
      "t": 283468.6817187503,
      "d": 934.8052083333605,
      "v": 55
    },
    {
      "midi": 45,
      "hit": false,
      "t": 283468.6817187503,
      "d": 1055.780000000028,
      "v": 102
    },
    {
      "midi": 81,
      "hit": false,
      "t": 283468.6817187505,
      "d": 1341.7204166666488,
      "v": 95
    },
    {
      "midi": 69,
      "hit": false,
      "t": 283485.1782812501,
      "d": 1539.6791666666395,
      "v": 76
    },
    {
      "midi": 73,
      "hit": false,
      "t": 283485.1782812501,
      "d": 1583.6699999999837,
      "v": 81
    },
    {
      "midi": 64,
      "hit": false,
      "t": 283485.1782812501,
      "d": 1605.6654166666558,
      "v": 76
    },
    {
      "midi": 83,
      "hit": false,
      "t": 283485.17828125117,
      "d": 247.44843749998836,
      "v": 60
    },
    {
      "midi": 81,
      "hit": false,
      "t": 283749.1232812512,
      "d": 214.4553125000093,
      "v": 66
    },
    {
      "midi": 61,
      "hit": false,
      "t": 283996.5717187497,
      "d": 970.5477604166954,
      "v": 98
    },
    {
      "midi": 57,
      "hit": false,
      "t": 283996.57171874976,
      "d": 965.0489062499837,
      "v": 76
    },
    {
      "midi": 69,
      "hit": false,
      "t": 283996.57171874976,
      "d": 965.0489062499837,
      "v": 82
    },
    {
      "midi": 61,
      "hit": false,
      "t": 283996.57171874976,
      "d": 995.2926041666651,
      "v": 74
    },
    {
      "midi": 73,
      "hit": false,
      "t": 284013.0682812494,
      "d": 934.8052083333605,
      "v": 102
    },
    {
      "midi": 61,
      "hit": false,
      "t": 284013.0682812499,
      "d": 954.0511979166768,
      "v": 77
    },
    {
      "midi": 73,
      "hit": false,
      "t": 284013.06828124996,
      "d": 967.7983333333395,
      "v": 96
    },
    {
      "midi": 69,
      "hit": false,
      "t": 284013.06828124996,
      "d": 1022.7868749999907,
      "v": 102
    },
    {
      "midi": 85,
      "hit": false,
      "t": 284013.0682812512,
      "d": 934.8052083333605,
      "v": 62
    },
    {
      "midi": 33,
      "hit": false,
      "t": 284524.4617187503,
      "d": 437.15890625002794,
      "v": 63
    },
    {
      "midi": 45,
      "hit": false,
      "t": 284524.4617187503,
      "d": 527.890000000014,
      "v": 103
    },
    {
      "midi": 67,
      "hit": false,
      "t": 285052.35171874944,
      "d": 970.5477604166372,
      "v": 101
    },
    {
      "midi": 62,
      "hit": false,
      "t": 285052.35171874944,
      "d": 987.0443229165976,
      "v": 95
    },
    {
      "midi": 47,
      "hit": false,
      "t": 285052.35171874973,
      "d": 987.0443229166558,
      "v": 95
    },
    {
      "midi": 67,
      "hit": false,
      "t": 285052.35171874973,
      "d": 998.042031250021,
      "v": 99
    },
    {
      "midi": 71,
      "hit": false,
      "t": 285052.35171874973,
      "d": 1014.5385937500396,
      "v": 103
    },
    {
      "midi": 62,
      "hit": false,
      "t": 285052.35171874973,
      "d": 945.8029166666674,
      "v": 82
    },
    {
      "midi": 55,
      "hit": false,
      "t": 285052.35171874973,
      "d": 956.8006249999744,
      "v": 73
    },
    {
      "midi": 67,
      "hit": false,
      "t": 285052.35171874973,
      "d": 973.297187499993,
      "v": 74
    },
    {
      "midi": 62,
      "hit": false,
      "t": 285052.3517187499,
      "d": 1028.2857291666442,
      "v": 82
    },
    {
      "midi": 47,
      "hit": false,
      "t": 285052.3517187503,
      "d": 527.890000000014,
      "v": 100
    },
    {
      "midi": 35,
      "hit": false,
      "t": 285052.3517187503,
      "d": 992.5431770833675,
      "v": 64
    },
    {
      "midi": 86,
      "hit": false,
      "t": 285052.3517187512,
      "d": 976.0466145833489,
      "v": 69
    },
    {
      "midi": 59,
      "hit": false,
      "t": 285057.8505729161,
      "d": 970.5477604166372,
      "v": 99
    },
    {
      "midi": 62,
      "hit": false,
      "t": 285060.59999999974,
      "d": 987.0443229166558,
      "v": 103
    },
    {
      "midi": 74,
      "hit": false,
      "t": 285063.3494270833,
      "d": 989.7937500000116,
      "v": 98
    },
    {
      "midi": 67,
      "hit": false,
      "t": 285068.8482812499,
      "d": 1000.7914583333768,
      "v": 97
    },
    {
      "midi": 71,
      "hit": false,
      "t": 285068.8482812499,
      "d": 1000.7914583333768,
      "v": 104
    },
    {
      "midi": 43,
      "hit": false,
      "t": 285580.24171875033,
      "d": 527.890000000014,
      "v": 100
    },
    {
      "midi": 67,
      "hit": false,
      "t": 285585.74057291675,
      "d": 349.17723958333954,
      "v": 75
    },
    {
      "midi": 71,
      "hit": false,
      "t": 285585.74057291675,
      "d": 349.17723958333954,
      "v": 83
    },
    {
      "midi": 81,
      "hit": false,
      "t": 285585.74057291716,
      "d": 362.9243750000023,
      "v": 95
    },
    {
      "midi": 78,
      "hit": false,
      "t": 285591.2394270834,
      "d": 349.17723958333954,
      "v": 114
    },
    {
      "midi": 57,
      "hit": false,
      "t": 286105.3822916664,
      "d": 901.8120833333232,
      "v": 75
    },
    {
      "midi": 57,
      "hit": false,
      "t": 286105.38229166646,
      "d": 943.0534895833698,
      "v": 103
    },
    {
      "midi": 69,
      "hit": false,
      "t": 286108.13171874976,
      "d": 910.0603645832743,
      "v": 76
    },
    {
      "midi": 73,
      "hit": false,
      "t": 286108.1317187498,
      "d": 954.0511979166768,
      "v": 101
    },
    {
      "midi": 49,
      "hit": false,
      "t": 286108.1317187498,
      "d": 976.0466145833489,
      "v": 98
    },
    {
      "midi": 37,
      "hit": false,
      "t": 286108.13171875034,
      "d": 890.8143750000163,
      "v": 62
    },
    {
      "midi": 49,
      "hit": false,
      "t": 286108.13171875034,
      "d": 1044.7822916666628,
      "v": 99
    },
    {
      "midi": 88,
      "hit": false,
      "t": 286108.1317187512,
      "d": 824.828125,
      "v": 62
    },
    {
      "midi": 86,
      "hit": false,
      "t": 286110.8811458338,
      "d": 409.66463541664416,
      "v": 102
    },
    {
      "midi": 64,
      "hit": false,
      "t": 286113.6305729164,
      "d": 934.8052083333023,
      "v": 78
    },
    {
      "midi": 74,
      "hit": false,
      "t": 286113.63057291677,
      "d": 497.64630208327435,
      "v": 82
    },
    {
      "midi": 64,
      "hit": false,
      "t": 286116.3799999999,
      "d": 1000.7914583333186,
      "v": 84
    },
    {
      "midi": 81,
      "hit": false,
      "t": 286119.1294270834,
      "d": 395.9174999999814,
      "v": 115
    },
    {
      "midi": 69,
      "hit": false,
      "t": 286121.8788541665,
      "d": 954.0511979166768,
      "v": 98
    },
    {
      "midi": 69,
      "hit": false,
      "t": 286124.6282812494,
      "d": 918.3086458333419,
      "v": 104
    },
    {
      "midi": 64,
      "hit": false,
      "t": 286124.6282812494,
      "d": 929.3063541666488,
      "v": 104
    },
    {
      "midi": 61,
      "hit": false,
      "t": 286124.6282812494,
      "d": 937.5546354166581,
      "v": 95
    },
    {
      "midi": 76,
      "hit": false,
      "t": 286124.62828124996,
      "d": 813.830416666693,
      "v": 100
    },
    {
      "midi": 64,
      "hit": false,
      "t": 286124.62828124996,
      "d": 923.8075000000536,
      "v": 102
    },
    {
      "midi": 69,
      "hit": false,
      "t": 286124.6282812501,
      "d": 472.9014583333046,
      "v": 75
    },
    {
      "midi": 66,
      "hit": false,
      "t": 286630.52286458336,
      "d": 349.17723958333954,
      "v": 79
    },
    {
      "midi": 71,
      "hit": false,
      "t": 286630.52286458336,
      "d": 349.17723958333954,
      "v": 83
    },
    {
      "midi": 86,
      "hit": false,
      "t": 286636.0217187505,
      "d": 373.9220833333093,
      "v": 104
    },
    {
      "midi": 79,
      "hit": false,
      "t": 286649.76885416673,
      "d": 156.71734375000233,
      "v": 116
    },
    {
      "midi": 81,
      "hit": false,
      "t": 286784.49078125006,
      "d": 329.9312500000233,
      "v": 116
    },
    {
      "midi": 54,
      "hit": false,
      "t": 287172.15999999974,
      "d": 2056.5714583333465,
      "v": 74
    },
    {
      "midi": 57,
      "hit": false,
      "t": 287172.15999999974,
      "d": 2056.5714583333465,
      "v": 77
    },
    {
      "midi": 62,
      "hit": false,
      "t": 287172.15999999974,
      "d": 2056.5714583333465,
      "v": 81
    },
    {
      "midi": 69,
      "hit": false,
      "t": 287172.15999999986,
      "d": 2064.819739583356,
      "v": 104
    },
    {
      "midi": 66,
      "hit": false,
      "t": 287172.15999999986,
      "d": 4088.3980729167233,
      "v": 96
    },
    {
      "midi": 62,
      "hit": false,
      "t": 287172.15999999986,
      "d": 4099.39578125003,
      "v": 99
    },
    {
      "midi": 38,
      "hit": false,
      "t": 287172.1600000003,
      "d": 2111.5599999999977,
      "v": 95
    },
    {
      "midi": 26,
      "hit": false,
      "t": 287172.1600000003,
      "d": 2119.808281250007,
      "v": 59
    },
    {
      "midi": 79,
      "hit": false,
      "t": 287172.16000000044,
      "d": 263.945000000007,
      "v": 98
    },
    {
      "midi": 76,
      "hit": false,
      "t": 287177.65885416674,
      "d": 269.44385416666046,
      "v": 115
    },
    {
      "midi": 66,
      "hit": false,
      "t": 287180.40828124987,
      "d": 1506.6860416666605,
      "v": 77
    },
    {
      "midi": 81,
      "hit": false,
      "t": 287180.4082812512,
      "d": 4102.145208333328,
      "v": 66
    },
    {
      "midi": 62,
      "hit": false,
      "t": 287185.90713541606,
      "d": 1528.6814583333326,
      "v": 99
    },
    {
      "midi": 69,
      "hit": false,
      "t": 287185.90713541606,
      "d": 1528.6814583333326,
      "v": 98
    },
    {
      "midi": 66,
      "hit": false,
      "t": 287185.90713541606,
      "d": 1561.6745833333698,
      "v": 104
    },
    {
      "midi": 78,
      "hit": false,
      "t": 287427.85671875044,
      "d": 208.95645833335584,
      "v": 97
    },
    {
      "midi": 74,
      "hit": false,
      "t": 287438.8544270834,
      "d": 164.96562500001164,
      "v": 112
    },
    {
      "midi": 78,
      "hit": false,
      "t": 287705.5488541671,
      "d": 112.72651041665813,
      "v": 99
    },
    {
      "midi": 74,
      "hit": false,
      "t": 287708.29828125006,
      "d": 131.9724999999744,
      "v": 109
    },
    {
      "midi": 78,
      "hit": false,
      "t": 287969.4938541671,
      "d": 739.5958854166674,
      "v": 100
    },
    {
      "midi": 74,
      "hit": false,
      "t": 287972.24328125,
      "d": 712.1016145833419,
      "v": 118
    },
    {
      "midi": 64,
      "hit": false,
      "t": 288742.0828645827,
      "d": 211.70588541671168,
      "v": 96
    },
    {
      "midi": 69,
      "hit": false,
      "t": 288744.83229166607,
      "d": 206.20703125,
      "v": 99
    },
    {
      "midi": 73,
      "hit": false,
      "t": 288747.5817187494,
      "d": 206.20703125,
      "v": 100
    },
    {
      "midi": 73,
      "hit": false,
      "t": 288747.58171875,
      "d": 272.1932812500163,
      "v": 102
    },
    {
      "midi": 73,
      "hit": false,
      "t": 288747.58171875007,
      "d": 142.97020833333954,
      "v": 116
    },
    {
      "midi": 76,
      "hit": false,
      "t": 288747.5817187505,
      "d": 131.9724999999744,
      "v": 97
    },
    {
      "midi": 64,
      "hit": false,
      "t": 288758.5794270832,
      "d": 549.8854166666861,
      "v": 86
    },
    {
      "midi": 74,
      "hit": false,
      "t": 289011.52671875,
      "d": 305.18640624999534,
      "v": 87
    },
    {
      "midi": 78,
      "hit": false,
      "t": 289017.02557291713,
      "d": 415.16348958329763,
      "v": 97
    },
    {
      "midi": 74,
      "hit": false,
      "t": 289019.7750000001,
      "d": 417.9129166667699,
      "v": 114
    },
    {
      "midi": 66,
      "hit": false,
      "t": 289025.2738541661,
      "d": 929.306354166707,
      "v": 104
    },
    {
      "midi": 74,
      "hit": false,
      "t": 289028.02328124945,
      "d": 926.5569270833512,
      "v": 103
    },
    {
      "midi": 71,
      "hit": false,
      "t": 289028.02328124945,
      "d": 934.8052083333605,
      "v": 96
    },
    {
      "midi": 62,
      "hit": false,
      "t": 289272.72229166643,
      "d": 1960.341510416707,
      "v": 82
    },
    {
      "midi": 71,
      "hit": false,
      "t": 289275.4717187499,
      "d": 2015.3300520833,
      "v": 99
    },
    {
      "midi": 23,
      "hit": false,
      "t": 289275.4717187503,
      "d": 2084.065729166672,
      "v": 58
    },
    {
      "midi": 35,
      "hit": false,
      "t": 289275.4717187503,
      "d": 2111.5599999999977,
      "v": 99
    },
    {
      "midi": 54,
      "hit": false,
      "t": 289278.2211458331,
      "d": 1963.0909375000629,
      "v": 74
    },
    {
      "midi": 62,
      "hit": false,
      "t": 289283.71999999986,
      "d": 967.7983333333395,
      "v": 80
    },
    {
      "midi": 71,
      "hit": false,
      "t": 289283.72000000003,
      "d": 505.89458333328366,
      "v": 100
    },
    {
      "midi": 59,
      "hit": false,
      "t": 289286.4694270831,
      "d": 1943.8449479166884,
      "v": 78
    },
    {
      "midi": 73,
      "hit": false,
      "t": 289407.44421875017,
      "d": 131.9725000000326,
      "v": 113
    },
    {
      "midi": 76,
      "hit": false,
      "t": 289418.44192708377,
      "d": 142.97020833333954,
      "v": 104
    },
    {
      "midi": 71,
      "hit": false,
      "t": 289542.16614583356,
      "d": 241.94958333333489,
      "v": 111
    },
    {
      "midi": 74,
      "hit": false,
      "t": 289555.91328125045,
      "d": 252.94729166664183,
      "v": 95
    },
    {
      "midi": 62,
      "hit": false,
      "t": 289566.91098958335,
      "d": 406.9152083333465,
      "v": 82
    },
    {
      "midi": 66,
      "hit": false,
      "t": 289803.36171875,
      "d": 219.9541666666628,
      "v": 103
    },
    {
      "midi": 57,
      "hit": false,
      "t": 289990.3227604167,
      "d": 329.9312500000233,
      "v": 83
    },
    {
      "midi": 71,
      "hit": false,
      "t": 290067.30671875,
      "d": 844.0741145833163,
      "v": 88
    },
    {
      "midi": 74,
      "hit": false,
      "t": 290067.30671875045,
      "d": 153.9679166666465,
      "v": 104
    },
    {
      "midi": 71,
      "hit": false,
      "t": 290083.80328125024,
      "d": 118.2253645833116,
      "v": 114
    },
    {
      "midi": 71,
      "hit": false,
      "t": 290086.55270833283,
      "d": 1187.7525000000023,
      "v": 101
    },
    {
      "midi": 71,
      "hit": false,
      "t": 290331.2517187502,
      "d": 230.95187500002794,
      "v": 115
    },
    {
      "midi": 66,
      "hit": false,
      "t": 290339.4999999999,
      "d": 461.9037499999977,
      "v": 80
    },
    {
      "midi": 62,
      "hit": false,
      "t": 290342.2494270834,
      "d": 299.68755208334187,
      "v": 78
    },
    {
      "midi": 74,
      "hit": false,
      "t": 290347.7482812504,
      "d": 219.9541666666628,
      "v": 104
    },
    {
      "midi": 73,
      "hit": false,
      "t": 290595.19671875023,
      "d": 219.9541666666628,
      "v": 117
    },
    {
      "midi": 76,
      "hit": false,
      "t": 290595.1967187504,
      "d": 208.95645833335584,
      "v": 95
    },
    {
      "midi": 57,
      "hit": false,
      "t": 290606.1944270834,
      "d": 175.9633333333186,
      "v": 81
    },
    {
      "midi": 74,
      "hit": false,
      "t": 290859.14171875024,
      "d": 373.9220833333675,
      "v": 109
    },
    {
      "midi": 78,
      "hit": false,
      "t": 290859.1417187504,
      "d": 373.9220833333093,
      "v": 101
    },
    {
      "midi": 57,
      "hit": false,
      "t": 290870.1394270834,
      "d": 409.66463541664416,
      "v": 76
    },
    {
      "midi": 66,
      "hit": false,
      "t": 290875.6382812499,
      "d": 384.9197916666744,
      "v": 79
    },
    {
      "midi": 81,
      "hit": false,
      "t": 291387.0317187512,
      "d": 3101.3537500000093,
      "v": 61
    },
    {
      "midi": 57,
      "hit": false,
      "t": 291395.2799999998,
      "d": 978.7960416666465,
      "v": 82
    },
    {
      "midi": 62,
      "hit": false,
      "t": 291395.2799999998,
      "d": 1011.7891666666255,
      "v": 78
    },
    {
      "midi": 64,
      "hit": false,
      "t": 291395.2799999998,
      "d": 1011.7891666666255,
      "v": 77
    },
    {
      "midi": 74,
      "hit": false,
      "t": 291395.27999999985,
      "d": 745.0947395833209,
      "v": 99
    },
    {
      "midi": 57,
      "hit": false,
      "t": 291395.27999999985,
      "d": 4132.388906249951,
      "v": 101
    },
    {
      "midi": 64,
      "hit": false,
      "t": 291395.27999999985,
      "d": 4143.386614583258,
      "v": 101
    },
    {
      "midi": 64,
      "hit": false,
      "t": 291395.2799999999,
      "d": 2111.5599999999977,
      "v": 77
    },
    {
      "midi": 64,
      "hit": false,
      "t": 291395.27999999997,
      "d": 1781.6287500000326,
      "v": 95
    },
    {
      "midi": 69,
      "hit": false,
      "t": 291395.27999999997,
      "d": 1792.6264583333395,
      "v": 100
    },
    {
      "midi": 45,
      "hit": false,
      "t": 291395.2800000003,
      "d": 1553.4263020833605,
      "v": 101
    },
    {
      "midi": 21,
      "hit": false,
      "t": 291395.2800000003,
      "d": 2152.8014062500442,
      "v": 59
    },
    {
      "midi": 64,
      "hit": false,
      "t": 291400.77885416616,
      "d": 976.0466145833489,
      "v": 103
    },
    {
      "midi": 76,
      "hit": false,
      "t": 291400.7788541669,
      "d": 516.8922916666488,
      "v": 114
    },
    {
      "midi": 62,
      "hit": false,
      "t": 291403.52828125,
      "d": 1803.6241666666465,
      "v": 96
    },
    {
      "midi": 57,
      "hit": false,
      "t": 291403.5282812501,
      "d": 1803.6241666666465,
      "v": 75
    },
    {
      "midi": 83,
      "hit": false,
      "t": 291403.5282812504,
      "d": 505.89458333334187,
      "v": 101
    },
    {
      "midi": 62,
      "hit": false,
      "t": 291406.2777083328,
      "d": 1020.037447916693,
      "v": 95
    },
    {
      "midi": 76,
      "hit": false,
      "t": 291925.9194270836,
      "d": 120.97479166666744,
      "v": 114
    },
    {
      "midi": 81,
      "hit": false,
      "t": 291931.4182812504,
      "d": 118.2253645833116,
      "v": 98
    },
    {
      "midi": 73,
      "hit": false,
      "t": 292178.86671874986,
      "d": 965.0489062499837,
      "v": 101
    },
    {
      "midi": 76,
      "hit": false,
      "t": 292178.8667187502,
      "d": 670.8602083332953,
      "v": 114
    },
    {
      "midi": 81,
      "hit": false,
      "t": 292178.8667187504,
      "d": 668.1107812499977,
      "v": 97
    },
    {
      "midi": 57,
      "hit": false,
      "t": 292437.3128645831,
      "d": 1003.5408854166744,
      "v": 77
    },
    {
      "midi": 61,
      "hit": false,
      "t": 292442.81171874976,
      "d": 965.0489062499837,
      "v": 76
    },
    {
      "midi": 64,
      "hit": false,
      "t": 292442.81171874976,
      "d": 967.7983333333395,
      "v": 78
    },
    {
      "midi": 64,
      "hit": false,
      "t": 292451.05999999953,
      "d": 775.3384375000023,
      "v": 95
    },
    {
      "midi": 61,
      "hit": false,
      "t": 292456.5588541662,
      "d": 775.3384375000023,
      "v": 104
    },
    {
      "midi": 45,
      "hit": false,
      "t": 292970.70171875035,
      "d": 263.945000000007,
      "v": 100
    },
    {
      "midi": 76,
      "hit": false,
      "t": 292987.1982812502,
      "d": 162.2161979166558,
      "v": 115
    },
    {
      "midi": 81,
      "hit": false,
      "t": 292987.1982812504,
      "d": 156.71734375000233,
      "v": 99
    },
    {
      "midi": 73,
      "hit": false,
      "t": 293234.64671874983,
      "d": 1292.2307291666511,
      "v": 104
    },
    {
      "midi": 59,
      "hit": false,
      "t": 293234.64671875007,
      "d": 252.94729166664183,
      "v": 76
    },
    {
      "midi": 47,
      "hit": false,
      "t": 293234.64671875036,
      "d": 263.945000000007,
      "v": 101
    },
    {
      "midi": 62,
      "hit": false,
      "t": 293242.8949999995,
      "d": 181.46218749997206,
      "v": 98
    },
    {
      "midi": 76,
      "hit": false,
      "t": 293245.6444270835,
      "d": 250.1978645833442,
      "v": 111
    },
    {
      "midi": 57,
      "hit": false,
      "t": 293248.39385416615,
      "d": 189.71046874998137,
      "v": 97
    },
    {
      "midi": 62,
      "hit": false,
      "t": 293251.14328124997,
      "d": 219.9541666666628,
      "v": 88
    },
    {
      "midi": 64,
      "hit": false,
      "t": 293251.14328124997,
      "d": 230.95187499996973,
      "v": 90
    },
    {
      "midi": 69,
      "hit": false,
      "t": 293251.14328124997,
      "d": 252.94729166664183,
      "v": 92
    },
    {
      "midi": 83,
      "hit": false,
      "t": 293251.14328125044,
      "d": 255.69671874988126,
      "v": 101
    },
    {
      "midi": 64,
      "hit": false,
      "t": 293498.59171874943,
      "d": 948.5523437500815,
      "v": 98
    },
    {
      "midi": 57,
      "hit": false,
      "t": 293498.5917187498,
      "d": 967.7983333333395,
      "v": 78
    },
    {
      "midi": 61,
      "hit": false,
      "t": 293498.5917187498,
      "d": 989.7937500000116,
      "v": 82
    },
    {
      "midi": 64,
      "hit": false,
      "t": 293498.5917187498,
      "d": 989.7937500000116,
      "v": 81
    },
    {
      "midi": 45,
      "hit": false,
      "t": 293498.59171875037,
      "d": 1055.7799999999697,
      "v": 104
    },
    {
      "midi": 49,
      "hit": false,
      "t": 293498.59171875037,
      "d": 1055.7799999999697,
      "v": 98
    },
    {
      "midi": 61,
      "hit": false,
      "t": 293509.58942708274,
      "d": 453.65546875004657,
      "v": 96
    },
    {
      "midi": 57,
      "hit": false,
      "t": 293512.3388541661,
      "d": 494.8968750000349,
      "v": 101
    },
    {
      "midi": 61,
      "hit": false,
      "t": 293515.0882812499,
      "d": 514.1428645833512,
      "v": 103
    },
    {
      "midi": 69,
      "hit": false,
      "t": 293515.0882812499,
      "d": 1913.601250000007,
      "v": 101
    },
    {
      "midi": 64,
      "hit": false,
      "t": 293515.0882812499,
      "d": 1932.8472395833232,
      "v": 97
    },
    {
      "midi": 69,
      "hit": false,
      "t": 293515.0882812499,
      "d": 354.676093749993,
      "v": 78
    },
    {
      "midi": 61,
      "hit": false,
      "t": 293515.08828125003,
      "d": 904.5615104166791,
      "v": 82
    },
    {
      "midi": 76,
      "hit": false,
      "t": 294026.48171875015,
      "d": 343.67838541668607,
      "v": 116
    },
    {
      "midi": 81,
      "hit": false,
      "t": 294026.4817187503,
      "d": 360.1749479166465,
      "v": 98
    },
    {
      "midi": 57,
      "hit": false,
      "t": 294042.97828124947,
      "d": 393.16807291668374,
      "v": 97
    },
    {
      "midi": 61,
      "hit": false,
      "t": 294042.97828124947,
      "d": 401.41635416669305,
      "v": 95
    },
    {
      "midi": 57,
      "hit": false,
      "t": 294042.97828124993,
      "d": 483.89916666666977,
      "v": 104
    },
    {
      "midi": 69,
      "hit": false,
      "t": 294042.97828124993,
      "d": 382.1703645833186,
      "v": 83
    },
    {
      "midi": 59,
      "hit": false,
      "t": 294422.39921875007,
      "d": 131.9724999999744,
      "v": 81
    },
    {
      "midi": 64,
      "hit": false,
      "t": 294554.3717187495,
      "d": 547.1359895833302,
      "v": 104
    },
    {
      "midi": 74,
      "hit": false,
      "t": 294554.3717187498,
      "d": 478.4003125000163,
      "v": 103
    },
    {
      "midi": 62,
      "hit": false,
      "t": 294554.3717187498,
      "d": 923.8074999999953,
      "v": 74
    },
    {
      "midi": 57,
      "hit": false,
      "t": 294554.37171875004,
      "d": 1011.7891666666837,
      "v": 74
    },
    {
      "midi": 57,
      "hit": false,
      "t": 294554.37171875034,
      "d": 527.8899999999558,
      "v": 104
    },
    {
      "midi": 66,
      "hit": false,
      "t": 294559.87057291646,
      "d": 945.8029166666674,
      "v": 75
    },
    {
      "midi": 86,
      "hit": false,
      "t": 294562.6200000012,
      "d": 984.2948958333582,
      "v": 69
    },
    {
      "midi": 57,
      "hit": false,
      "t": 294565.3694270828,
      "d": 439.9083333333256,
      "v": 100
    },
    {
      "midi": 81,
      "hit": false,
      "t": 294565.3694270835,
      "d": 321.68296874995576,
      "v": 112
    },
    {
      "midi": 61,
      "hit": false,
      "t": 294570.8682812495,
      "d": 483.89916666666977,
      "v": 103
    },
    {
      "midi": 57,
      "hit": false,
      "t": 294570.86828124995,
      "d": 360.1749479166465,
      "v": 103
    },
    {
      "midi": 69,
      "hit": false,
      "t": 294570.86828124995,
      "d": 338.1795312499744,
      "v": 79
    },
    {
      "midi": 86,
      "hit": false,
      "t": 294570.8682812503,
      "d": 299.68755208334187,
      "v": 101
    },
    {
      "midi": 69,
      "hit": false,
      "t": 295082.2617187498,
      "d": 470.1520312499488,
      "v": 95
    },
    {
      "midi": 30,
      "hit": false,
      "t": 295082.2617187503,
      "d": 527.890000000014,
      "v": 59
    },
    {
      "midi": 42,
      "hit": false,
      "t": 295082.2617187503,
      "d": 527.890000000014,
      "v": 104
    },
    {
      "midi": 76,
      "hit": false,
      "t": 295087.76057291677,
      "d": 305.18640624999534,
      "v": 113
    },
    {
      "midi": 81,
      "hit": false,
      "t": 295093.25942708366,
      "d": 313.43468750000466,
      "v": 104
    },
    {
      "midi": 57,
      "hit": false,
      "t": 295098.7582812495,
      "d": 417.9129166667117,
      "v": 97
    },
    {
      "midi": 62,
      "hit": false,
      "t": 295098.7582812495,
      "d": 428.9106250000186,
      "v": 102
    },
    {
      "midi": 57,
      "hit": false,
      "t": 295098.7582812499,
      "d": 461.9037499999977,
      "v": 96
    },
    {
      "midi": 69,
      "hit": false,
      "t": 295098.7582812499,
      "d": 349.17723958333954,
      "v": 80
    },
    {
      "midi": 62,
      "hit": false,
      "t": 295618.3999999995,
      "d": 1517.6837500000256,
      "v": 99
    },
    {
      "midi": 55,
      "hit": false,
      "t": 295618.3999999995,
      "d": 2078.5668750000186,
      "v": 97
    },
    {
      "midi": 50,
      "hit": false,
      "t": 295618.3999999995,
      "d": 2095.0634375000373,
      "v": 101
    },
    {
      "midi": 67,
      "hit": false,
      "t": 295618.3999999998,
      "d": 4132.388906249951,
      "v": 102
    },
    {
      "midi": 62,
      "hit": false,
      "t": 295618.3999999998,
      "d": 4143.386614583258,
      "v": 102
    },
    {
      "midi": 71,
      "hit": false,
      "t": 295618.3999999998,
      "d": 4154.384322916565,
      "v": 103
    },
    {
      "midi": 67,
      "hit": false,
      "t": 295618.3999999998,
      "d": 4124.140625,
      "v": 76
    },
    {
      "midi": 59,
      "hit": false,
      "t": 295618.3999999998,
      "d": 4135.138333333307,
      "v": 79
    },
    {
      "midi": 62,
      "hit": false,
      "t": 295618.3999999998,
      "d": 4179.129166666651,
      "v": 73
    },
    {
      "midi": 78,
      "hit": false,
      "t": 295618.4000000001,
      "d": 241.94958333333489,
      "v": 116
    },
    {
      "midi": 31,
      "hit": false,
      "t": 295618.4000000003,
      "d": 1547.9274479166488,
      "v": 60
    },
    {
      "midi": 43,
      "hit": false,
      "t": 295618.4000000003,
      "d": 1553.4263020833023,
      "v": 101
    },
    {
      "midi": 81,
      "hit": false,
      "t": 295618.4000000003,
      "d": 230.95187500002794,
      "v": 97
    },
    {
      "midi": 86,
      "hit": false,
      "t": 295618.40000000125,
      "d": 4223.119999999995,
      "v": 60
    },
    {
      "midi": 67,
      "hit": false,
      "t": 295626.64828125003,
      "d": 197.9587499999907,
      "v": 80
    },
    {
      "midi": 71,
      "hit": false,
      "t": 295626.64828125003,
      "d": 197.9587499999907,
      "v": 76
    },
    {
      "midi": 62,
      "hit": false,
      "t": 295626.64828125003,
      "d": 208.95645833329763,
      "v": 79
    },
    {
      "midi": 67,
      "hit": false,
      "t": 295632.14713541657,
      "d": 4124.140625,
      "v": 85
    },
    {
      "midi": 76,
      "hit": false,
      "t": 295874.0967187501,
      "d": 247.44843749998836,
      "v": 112
    },
    {
      "midi": 79,
      "hit": false,
      "t": 295874.09671875037,
      "d": 261.19557291665114,
      "v": 99
    },
    {
      "midi": 67,
      "hit": false,
      "t": 295890.59328125,
      "d": 197.9587499999907,
      "v": 75
    },
    {
      "midi": 71,
      "hit": false,
      "t": 295890.59328125,
      "d": 197.9587499999907,
      "v": 75
    },
    {
      "midi": 62,
      "hit": false,
      "t": 295890.59328125,
      "d": 208.95645833329763,
      "v": 82
    },
    {
      "midi": 71,
      "hit": false,
      "t": 296138.04171874997,
      "d": 255.69671874999767,
      "v": 81
    },
    {
      "midi": 62,
      "hit": false,
      "t": 296138.04171874997,
      "d": 263.945000000007,
      "v": 76
    },
    {
      "midi": 74,
      "hit": false,
      "t": 296138.0417187501,
      "d": 274.94270833331393,
      "v": 110
    },
    {
      "midi": 78,
      "hit": false,
      "t": 296138.0417187504,
      "d": 230.95187500002794,
      "v": 95
    },
    {
      "midi": 67,
      "hit": false,
      "t": 296143.5405729166,
      "d": 255.69671874999767,
      "v": 74
    },
    {
      "midi": 62,
      "hit": false,
      "t": 296665.93171875,
      "d": 329.9312500000233,
      "v": 76
    },
    {
      "midi": 67,
      "hit": false,
      "t": 296665.93171875,
      "d": 338.1795312500326,
      "v": 77
    },
    {
      "midi": 71,
      "hit": false,
      "t": 296665.93171875,
      "d": 343.67838541668607,
      "v": 76
    },
    {
      "midi": 74,
      "hit": false,
      "t": 296665.93171875004,
      "d": 313.43468750000466,
      "v": 116
    },
    {
      "midi": 78,
      "hit": false,
      "t": 296665.9317187504,
      "d": 305.18640624999534,
      "v": 102
    },
    {
      "midi": 62,
      "hit": false,
      "t": 297193.8217187499,
      "d": 2595.4591666666674,
      "v": 103
    },
    {
      "midi": 66,
      "hit": false,
      "t": 297193.82171875,
      "d": 131.9724999999744,
      "v": 83
    },
    {
      "midi": 69,
      "hit": false,
      "t": 297193.82171875,
      "d": 137.47135416662786,
      "v": 83
    },
    {
      "midi": 62,
      "hit": false,
      "t": 297193.82171875,
      "d": 162.2161979166558,
      "v": 79
    },
    {
      "midi": 74,
      "hit": false,
      "t": 297193.82171875006,
      "d": 93.48052083334187,
      "v": 115
    },
    {
      "midi": 43,
      "hit": false,
      "t": 297193.8217187503,
      "d": 263.945000000007,
      "v": 100
    },
    {
      "midi": 31,
      "hit": false,
      "t": 297193.8217187503,
      "d": 285.9404166666791,
      "v": 61
    },
    {
      "midi": 78,
      "hit": false,
      "t": 297193.8217187504,
      "d": 76.98395833332324,
      "v": 104
    },
    {
      "midi": 62,
      "hit": false,
      "t": 297210.31828124955,
      "d": 250.1978645833442,
      "v": 100
    },
    {
      "midi": 67,
      "hit": false,
      "t": 297457.76671874954,
      "d": 228.2024479166721,
      "v": 104
    },
    {
      "midi": 67,
      "hit": false,
      "t": 297457.7667187499,
      "d": 2331.5141666666605,
      "v": 85
    },
    {
      "midi": 67,
      "hit": false,
      "t": 297457.76671875,
      "d": 527.890000000014,
      "v": 74
    },
    {
      "midi": 71,
      "hit": false,
      "t": 297457.76671875,
      "d": 538.8877083333209,
      "v": 79
    },
    {
      "midi": 62,
      "hit": false,
      "t": 297457.76671875,
      "d": 549.8854166666279,
      "v": 77
    },
    {
      "midi": 74,
      "hit": false,
      "t": 297457.76671875006,
      "d": 395.9174999999814,
      "v": 111
    },
    {
      "midi": 45,
      "hit": false,
      "t": 297457.7667187503,
      "d": 263.945000000007,
      "v": 101
    },
    {
      "midi": 33,
      "hit": false,
      "t": 297457.7667187503,
      "d": 277.69213541666977,
      "v": 64
    },
    {
      "midi": 78,
      "hit": false,
      "t": 297457.7667187504,
      "d": 395.9175000000396,
      "v": 99
    },
    {
      "midi": 35,
      "hit": false,
      "t": 297721.7117187503,
      "d": 1028.2857291666442,
      "v": 55
    },
    {
      "midi": 47,
      "hit": false,
      "t": 297721.7117187503,
      "d": 1055.7799999999697,
      "v": 103
    },
    {
      "midi": 74,
      "hit": false,
      "t": 297727.21057291655,
      "d": 2059.320885416644,
      "v": 101
    },
    {
      "midi": 67,
      "hit": false,
      "t": 297738.20828124956,
      "d": 989.7937500000116,
      "v": 97
    },
    {
      "midi": 74,
      "hit": false,
      "t": 297738.20828124956,
      "d": 995.2926041666651,
      "v": 97
    },
    {
      "midi": 74,
      "hit": false,
      "t": 297740.9577083331,
      "d": 4132.388906249893,
      "v": 101
    },
    {
      "midi": 73,
      "hit": false,
      "t": 297853.68421875004,
      "d": 175.9633333333186,
      "v": 116
    },
    {
      "midi": 76,
      "hit": false,
      "t": 297870.1807812504,
      "d": 197.9587499999907,
      "v": 98
    },
    {
      "midi": 74,
      "hit": false,
      "t": 297996.65442708373,
      "d": 291.43927083333256,
      "v": 99
    },
    {
      "midi": 71,
      "hit": false,
      "t": 298002.15328125004,
      "d": 274.94270833331393,
      "v": 111
    },
    {
      "midi": 62,
      "hit": false,
      "t": 298777.49171875,
      "d": 145.71963541669538,
      "v": 74
    },
    {
      "midi": 71,
      "hit": false,
      "t": 298777.49171875,
      "d": 203.45760416670237,
      "v": 78
    },
    {
      "midi": 47,
      "hit": false,
      "t": 298777.4917187503,
      "d": 492.1474479166791,
      "v": 58
    },
    {
      "midi": 74,
      "hit": false,
      "t": 298780.24114583334,
      "d": 296.93812499998603,
      "v": 118
    },
    {
      "midi": 78,
      "hit": false,
      "t": 298788.48942708375,
      "d": 252.94729166664183,
      "v": 99
    },
    {
      "midi": 67,
      "hit": false,
      "t": 298793.98828124953,
      "d": 923.8074999999953,
      "v": 99
    },
    {
      "midi": 74,
      "hit": false,
      "t": 298793.98828124953,
      "d": 929.3063541666488,
      "v": 103
    },
    {
      "midi": 66,
      "hit": false,
      "t": 298793.98828125,
      "d": 153.9679166667047,
      "v": 82
    },
    {
      "midi": 62,
      "hit": false,
      "t": 299041.43671875,
      "d": 145.71963541669538,
      "v": 77
    },
    {
      "midi": 67,
      "hit": false,
      "t": 299041.43671875,
      "d": 178.71276041667443,
      "v": 79
    },
    {
      "midi": 73,
      "hit": false,
      "t": 299041.43671875,
      "d": 214.4553125000093,
      "v": 76
    },
    {
      "midi": 76,
      "hit": false,
      "t": 299041.43671875,
      "d": 274.94270833331393,
      "v": 117
    },
    {
      "midi": 79,
      "hit": false,
      "t": 299041.4367187504,
      "d": 263.945000000007,
      "v": 97
    },
    {
      "midi": 74,
      "hit": false,
      "t": 299305.38171875,
      "d": 406.9152083333465,
      "v": 82
    },
    {
      "midi": 62,
      "hit": false,
      "t": 299305.38171875,
      "d": 448.1566145833349,
      "v": 81
    },
    {
      "midi": 78,
      "hit": false,
      "t": 299305.38171875,
      "d": 461.9037499999977,
      "v": 110
    },
    {
      "midi": 35,
      "hit": false,
      "t": 299305.3817187503,
      "d": 503.14515624998603,
      "v": 64
    },
    {
      "midi": 47,
      "hit": false,
      "t": 299305.3817187503,
      "d": 527.890000000014,
      "v": 98
    },
    {
      "midi": 81,
      "hit": false,
      "t": 299305.3817187504,
      "d": 431.66005208331626,
      "v": 101
    },
    {
      "midi": 69,
      "hit": false,
      "t": 299310.88057291665,
      "d": 415.16348958335584,
      "v": 79
    },
    {
      "midi": 62,
      "hit": false,
      "t": 299841.51999999967,
      "d": 2075.817447916663,
      "v": 99
    },
    {
      "midi": 64,
      "hit": false,
      "t": 299841.51999999967,
      "d": 4132.388906250009,
      "v": 101
    },
    {
      "midi": 69,
      "hit": false,
      "t": 299841.51999999967,
      "d": 4173.630312499998,
      "v": 100
    },
    {
      "midi": 62,
      "hit": false,
      "t": 299841.5199999998,
      "d": 2089.5645833333256,
      "v": 80
    },
    {
      "midi": 69,
      "hit": false,
      "t": 299841.5199999998,
      "d": 4179.129166666651,
      "v": 81
    },
    {
      "midi": 64,
      "hit": false,
      "t": 299841.5199999998,
      "d": 4187.3774479166605,
      "v": 78
    },
    {
      "midi": 62,
      "hit": false,
      "t": 299841.5199999999,
      "d": 1506.6860416666605,
      "v": 95
    },
    {
      "midi": 33,
      "hit": false,
      "t": 299841.5200000003,
      "d": 1558.925156250014,
      "v": 57
    },
    {
      "midi": 45,
      "hit": false,
      "t": 299841.5200000003,
      "d": 1583.670000000042,
      "v": 102
    },
    {
      "midi": 57,
      "hit": false,
      "t": 299849.7682812495,
      "d": 1443.44921875,
      "v": 100
    },
    {
      "midi": 64,
      "hit": false,
      "t": 299849.7682812495,
      "d": 1448.9480729166535,
      "v": 101
    },
    {
      "midi": 62,
      "hit": false,
      "t": 299849.7682812495,
      "d": 1451.6975000000093,
      "v": 95
    },
    {
      "midi": 69,
      "hit": false,
      "t": 299849.7682812499,
      "d": 1487.4400520833442,
      "v": 98
    },
    {
      "midi": 64,
      "hit": false,
      "t": 299849.7682812499,
      "d": 1501.187187500007,
      "v": 101
    },
    {
      "midi": 62,
      "hit": false,
      "t": 299849.7682812499,
      "d": 2012.5806250000023,
      "v": 79
    },
    {
      "midi": 64,
      "hit": false,
      "t": 299849.76828124997,
      "d": 272.1932812500163,
      "v": 83
    },
    {
      "midi": 69,
      "hit": false,
      "t": 299849.76828124997,
      "d": 272.1932812500163,
      "v": 77
    },
    {
      "midi": 74,
      "hit": false,
      "t": 299849.76828124997,
      "d": 272.1932812500163,
      "v": 78
    },
    {
      "midi": 76,
      "hit": false,
      "t": 299849.76828124997,
      "d": 321.68296875001397,
      "v": 115
    },
    {
      "midi": 83,
      "hit": false,
      "t": 299849.7682812504,
      "d": 332.6806770833209,
      "v": 103
    },
    {
      "midi": 86,
      "hit": false,
      "t": 299849.76828125125,
      "d": 2106.061145833344,
      "v": 65
    },
    {
      "midi": 69,
      "hit": false,
      "t": 300377.65828125,
      "d": 1539.6791666666395,
      "v": 80
    },
    {
      "midi": 74,
      "hit": false,
      "t": 300377.65828125,
      "d": 1583.6699999999837,
      "v": 83
    },
    {
      "midi": 64,
      "hit": false,
      "t": 300377.65828125,
      "d": 1605.6654166666558,
      "v": 76
    },
    {
      "midi": 76,
      "hit": false,
      "t": 300377.65828125,
      "d": 1935.596666666912,
      "v": 111
    },
    {
      "midi": 81,
      "hit": false,
      "t": 300377.6582812504,
      "d": 1919.1001041666605,
      "v": 104
    },
    {
      "midi": 50,
      "hit": false,
      "t": 301416.94171875034,
      "d": 263.945000000007,
      "v": 95
    },
    {
      "midi": 38,
      "hit": false,
      "t": 301416.94171875034,
      "d": 288.6898437500349,
      "v": 63
    },
    {
      "midi": 69,
      "hit": false,
      "t": 301419.69114583323,
      "d": 461.9037499999977,
      "v": 95
    },
    {
      "midi": 64,
      "hit": false,
      "t": 301422.4405729166,
      "d": 448.1566145833349,
      "v": 104
    },
    {
      "midi": 62,
      "hit": false,
      "t": 301427.93942708283,
      "d": 503.14515625004424,
      "v": 104
    },
    {
      "midi": 57,
      "hit": false,
      "t": 301427.93942708283,
      "d": 2411.2475520833977,
      "v": 98
    },
    {
      "midi": 64,
      "hit": false,
      "t": 301430.6888541662,
      "d": 2392.0015625000233,
      "v": 103
    },
    {
      "midi": 62,
      "hit": false,
      "t": 301433.4382812499,
      "d": 428.9106250000186,
      "v": 98
    },
    {
      "midi": 33,
      "hit": false,
      "t": 301680.88671875035,
      "d": 151.21848958334886,
      "v": 62
    },
    {
      "midi": 45,
      "hit": false,
      "t": 301680.88671875035,
      "d": 263.945000000007,
      "v": 102
    },
    {
      "midi": 61,
      "hit": false,
      "t": 301942.0822916662,
      "d": 1899.8541145834024,
      "v": 102
    },
    {
      "midi": 61,
      "hit": false,
      "t": 301944.83171874966,
      "d": 2042.8243229166837,
      "v": 95
    },
    {
      "midi": 61,
      "hit": false,
      "t": 301944.8317187498,
      "d": 1949.3438020833419,
      "v": 73
    },
    {
      "midi": 61,
      "hit": false,
      "t": 301944.8317187499,
      "d": 989.7937500000116,
      "v": 97
    },
    {
      "midi": 64,
      "hit": false,
      "t": 301944.8317187499,
      "d": 1055.780000000028,
      "v": 102
    },
    {
      "midi": 33,
      "hit": false,
      "t": 301944.83171875036,
      "d": 989.7937500000116,
      "v": 63
    },
    {
      "midi": 45,
      "hit": false,
      "t": 301944.83171875036,
      "d": 1055.780000000028,
      "v": 103
    },
    {
      "midi": 76,
      "hit": false,
      "t": 301953.07999999967,
      "d": 2053.8220312499907,
      "v": 96
    },
    {
      "midi": 85,
      "hit": false,
      "t": 301955.8294270846,
      "d": 2004.332343749993,
      "v": 65
    },
    {
      "midi": 69,
      "hit": false,
      "t": 301961.3282812499,
      "d": 1938.346093750035,
      "v": 98
    },
    {
      "midi": 61,
      "hit": false,
      "t": 301961.3282812499,
      "d": 536.1382812500233,
      "v": 78
    },
    {
      "midi": 57,
      "hit": false,
      "t": 302489.2182812499,
      "d": 420.6623437500093,
      "v": 79
    },
    {
      "midi": 33,
      "hit": false,
      "t": 303000.6117187504,
      "d": 918.3086458333419,
      "v": 58
    },
    {
      "midi": 45,
      "hit": false,
      "t": 303000.6117187504,
      "d": 1033.7845833333558,
      "v": 97
    },
    {
      "midi": 61,
      "hit": false,
      "t": 303003.3611458333,
      "d": 247.44843749998836,
      "v": 104
    },
    {
      "midi": 74,
      "hit": false,
      "t": 303008.8600000002,
      "d": 406.9152083333465,
      "v": 116
    },
    {
      "midi": 62,
      "hit": false,
      "t": 303017.10828124994,
      "d": 560.883124999993,
      "v": 80
    },
    {
      "midi": 62,
      "hit": false,
      "t": 303281.05328124994,
      "d": 189.71046874998137,
      "v": 87
    },
    {
      "midi": 57,
      "hit": false,
      "t": 303528.50171874993,
      "d": 373.9220833333093,
      "v": 77
    },
    {
      "midi": 76,
      "hit": false,
      "t": 303531.2511458336,
      "d": 412.4140625000582,
      "v": 114
    },
    {
      "midi": 64,
      "hit": false,
      "t": 303542.2488541666,
      "d": 434.4094791666721,
      "v": 96
    },
    {
      "midi": 59,
      "hit": false,
      "t": 304064.6399999996,
      "d": 2056.5714583333465,
      "v": 100
    },
    {
      "midi": 62,
      "hit": false,
      "t": 304064.6399999996,
      "d": 2078.5668750000186,
      "v": 101
    },
    {
      "midi": 67,
      "hit": false,
      "t": 304064.6399999996,
      "d": 3167.340000000084,
      "v": 103
    },
    {
      "midi": 59,
      "hit": false,
      "t": 304064.63999999966,
      "d": 4190.126875000016,
      "v": 103
    },
    {
      "midi": 62,
      "hit": false,
      "t": 304064.63999999966,
      "d": 4201.124583333323,
      "v": 98
    },
    {
      "midi": 43,
      "hit": false,
      "t": 304064.63999999966,
      "d": 4212.12229166663,
      "v": 104
    },
    {
      "midi": 59,
      "hit": false,
      "t": 304064.6399999998,
      "d": 4113.142916666693,
      "v": 80
    },
    {
      "midi": 55,
      "hit": false,
      "t": 304064.6399999998,
      "d": 4146.136041666672,
      "v": 74
    },
    {
      "midi": 67,
      "hit": false,
      "t": 304064.6399999999,
      "d": 725.8487500000047,
      "v": 85
    },
    {
      "midi": 76,
      "hit": false,
      "t": 304064.64000000036,
      "d": 415.16348958335584,
      "v": 97
    },
    {
      "midi": 43,
      "hit": false,
      "t": 304064.6400000004,
      "d": 2081.3163020833163,
      "v": 100
    },
    {
      "midi": 31,
      "hit": false,
      "t": 304064.6400000004,
      "d": 2097.812864583335,
      "v": 57
    },
    {
      "midi": 67,
      "hit": false,
      "t": 304067.38942708325,
      "d": 822.0786979167024,
      "v": 97
    },
    {
      "midi": 86,
      "hit": false,
      "t": 304067.3894270846,
      "d": 10931.722083334113,
      "v": 65
    },
    {
      "midi": 62,
      "hit": false,
      "t": 304072.8882812498,
      "d": 4041.6578125000233,
      "v": 80
    },
    {
      "midi": 74,
      "hit": false,
      "t": 304584.28171875037,
      "d": 1550.6768750000047,
      "v": 96
    },
    {
      "midi": 66,
      "hit": false,
      "t": 304864.7232812499,
      "d": 739.5958854166674,
      "v": 88
    },
    {
      "midi": 66,
      "hit": false,
      "t": 304864.7232812499,
      "d": 723.0993229166488,
      "v": 77
    },
    {
      "midi": 64,
      "hit": false,
      "t": 305640.06171874993,
      "d": 538.8877083333209,
      "v": 99
    },
    {
      "midi": 64,
      "hit": false,
      "t": 305640.06171874993,
      "d": 461.9037499999977,
      "v": 79
    },
    {
      "midi": 62,
      "hit": false,
      "t": 306167.95171874994,
      "d": 1017.2880208333372,
      "v": 83
    },
    {
      "midi": 74,
      "hit": false,
      "t": 306167.95171875035,
      "d": 153.9679166666465,
      "v": 100
    },
    {
      "midi": 31,
      "hit": false,
      "t": 306167.9517187504,
      "d": 692.8556250000256,
      "v": 62
    },
    {
      "midi": 43,
      "hit": false,
      "t": 306167.9517187504,
      "d": 791.835000000021,
      "v": 98
    },
    {
      "midi": 62,
      "hit": false,
      "t": 306184.4482812496,
      "d": 1011.7891666666837,
      "v": 101
    },
    {
      "midi": 59,
      "hit": false,
      "t": 306184.4482812496,
      "d": 1017.2880208333372,
      "v": 101
    },
    {
      "midi": 62,
      "hit": false,
      "t": 306184.4482812499,
      "d": 1061.2788541666814,
      "v": 101
    },
    {
      "midi": 76,
      "hit": false,
      "t": 306299.9242187503,
      "d": 175.9633333333768,
      "v": 96
    },
    {
      "midi": 78,
      "hit": false,
      "t": 306431.89671875036,
      "d": 170.46447916672332,
      "v": 97
    },
    {
      "midi": 79,
      "hit": false,
      "t": 306563.8692187504,
      "d": 164.96562500001164,
      "v": 97
    },
    {
      "midi": 78,
      "hit": false,
      "t": 306695.8417187504,
      "d": 153.9679166666465,
      "v": 98
    },
    {
      "midi": 76,
      "hit": false,
      "t": 306827.8142187504,
      "d": 164.96562500001164,
      "v": 100
    },
    {
      "midi": 31,
      "hit": false,
      "t": 306959.78671875043,
      "d": 181.46218749997206,
      "v": 57
    },
    {
      "midi": 43,
      "hit": false,
      "t": 306959.78671875043,
      "d": 263.9449999999488,
      "v": 98
    },
    {
      "midi": 74,
      "hit": false,
      "t": 306959.78671875043,
      "d": 175.9633333333186,
      "v": 97
    },
    {
      "midi": 76,
      "hit": false,
      "t": 307091.7592187504,
      "d": 156.71734375000233,
      "v": 99
    },
    {
      "midi": 59,
      "hit": false,
      "t": 307223.73171875,
      "d": 965.0489062499837,
      "v": 78
    },
    {
      "midi": 31,
      "hit": false,
      "t": 307223.7317187504,
      "d": 1033.7845833333558,
      "v": 55
    },
    {
      "midi": 43,
      "hit": false,
      "t": 307223.7317187504,
      "d": 1055.780000000028,
      "v": 101
    },
    {
      "midi": 50,
      "hit": false,
      "t": 307226.481145833,
      "d": 1011.7891666666837,
      "v": 99
    },
    {
      "midi": 59,
      "hit": false,
      "t": 307226.481145833,
      "d": 1011.7891666666837,
      "v": 99
    },
    {
      "midi": 55,
      "hit": false,
      "t": 307229.23057291633,
      "d": 940.304062500014,
      "v": 101
    },
    {
      "midi": 59,
      "hit": false,
      "t": 307240.22828124993,
      "d": 1000.7914583333186,
      "v": 103
    },
    {
      "midi": 78,
      "hit": false,
      "t": 307240.2282812504,
      "d": 170.46447916672332,
      "v": 103
    },
    {
      "midi": 79,
      "hit": false,
      "t": 307372.20078125043,
      "d": 153.9679166667047,
      "v": 97
    },
    {
      "midi": 78,
      "hit": false,
      "t": 307487.67671875044,
      "d": 162.216197916714,
      "v": 100
    },
    {
      "midi": 76,
      "hit": false,
      "t": 307619.6492187505,
      "d": 156.71734375006054,
      "v": 95
    },
    {
      "midi": 74,
      "hit": false,
      "t": 307751.6217187505,
      "d": 175.9633333333768,
      "v": 95
    },
    {
      "midi": 76,
      "hit": false,
      "t": 307883.59421875054,
      "d": 164.96562500001164,
      "v": 103
    },
    {
      "midi": 74,
      "hit": false,
      "t": 308015.5667187506,
      "d": 4011.414114583924,
      "v": 101
    },
    {
      "midi": 26,
      "hit": false,
      "t": 308279.5117187504,
      "d": 6474.900781250966,
      "v": 58
    },
    {
      "midi": 38,
      "hit": false,
      "t": 308279.5117187504,
      "d": 6518.89161458431,
      "v": 100
    },
    {
      "midi": 38,
      "hit": false,
      "t": 308287.7599999996,
      "d": 7082.52416666731,
      "v": 104
    },
    {
      "midi": 54,
      "hit": false,
      "t": 308287.7599999996,
      "d": 7170.505833333998,
      "v": 97
    },
    {
      "midi": 57,
      "hit": false,
      "t": 308287.7599999996,
      "d": 7170.505833333998,
      "v": 97
    },
    {
      "midi": 62,
      "hit": false,
      "t": 308287.7599999996,
      "d": 7214.496666667343,
      "v": 98
    },
    {
      "midi": 54,
      "hit": false,
      "t": 308287.75999999966,
      "d": 7522.432499999995,
      "v": 96
    },
    {
      "midi": 50,
      "hit": false,
      "t": 308287.75999999966,
      "d": 7566.4233333333395,
      "v": 101
    },
    {
      "midi": 57,
      "hit": false,
      "t": 308287.75999999966,
      "d": 7676.4004166667,
      "v": 95
    },
    {
      "midi": 54,
      "hit": false,
      "t": 308287.7599999998,
      "d": 6928.556250000489,
      "v": 77
    },
    {
      "midi": 62,
      "hit": false,
      "t": 308287.7599999998,
      "d": 6972.547083333833,
      "v": 74
    },
    {
      "midi": 57,
      "hit": false,
      "t": 308287.7599999998,
      "d": 7060.5287500005215,
      "v": 77
    },
    {
      "midi": 57,
      "hit": false,
      "t": 308287.7599999999,
      "d": 8094.3133333333535,
      "v": 98
    },
    {
      "midi": 50,
      "hit": false,
      "t": 308287.75999999995,
      "d": 3992.1681250006077,
      "v": 86
    },
    {
      "midi": 74,
      "hit": false,
      "t": 309599.23671875044,
      "d": 2556.967187500326,
      "v": 23
    }
  ]
}