{
  "jsonPath": "Animes/Princess Mononoke MIDI Collection/hime.json",
  "path": "Animes\\Princess Mononoke MIDI Collection\\Hime.mid",
  "name": "Hime",
  "difficulty": "Advanced",
  "bpm": 85.00004250002125,
  "notes": [
    {
      "midi": 62,
      "hit": false,
      "t": 2823.528,
      "d": 352.9409999999998,
      "v": 100
    },
    {
      "midi": 59,
      "hit": false,
      "t": 2823.528,
      "d": 352.9409999999998,
      "v": 100
    },
    {
      "midi": 55,
      "hit": false,
      "t": 2823.528,
      "d": 2823.528,
      "v": 100
    },
    {
      "midi": 65,
      "hit": false,
      "t": 3176.4689999999996,
      "d": 352.9409999999998,
      "v": 100
    },
    {
      "midi": 62,
      "hit": false,
      "t": 3176.4689999999996,
      "d": 352.9409999999998,
      "v": 100
    },
    {
      "midi": 69,
      "hit": false,
      "t": 3529.4099999999994,
      "d": 352.9409999999998,
      "v": 100
    },
    {
      "midi": 65,
      "hit": false,
      "t": 3529.4099999999994,
      "d": 352.9409999999998,
      "v": 100
    },
    {
      "midi": 67,
      "hit": false,
      "t": 3882.350999999999,
      "d": 352.94100000000026,
      "v": 100
    },
    {
      "midi": 64,
      "hit": false,
      "t": 3882.350999999999,
      "d": 352.94100000000026,
      "v": 100
    },
    {
      "midi": 64,
      "hit": false,
      "t": 4235.2919999999995,
      "d": 352.9409999999998,
      "v": 100
    },
    {
      "midi": 69,
      "hit": false,
      "t": 4235.2919999999995,
      "d": 999.9994999999999,
      "v": 100
    },
    {
      "midi": 60,
      "hit": false,
      "t": 4235.2919999999995,
      "d": 352.9409999999998,
      "v": 100
    },
    {
      "midi": 69,
      "hit": false,
      "t": 4235.2919999999995,
      "d": 176.47050000000036,
      "v": 100
    },
    {
      "midi": 69,
      "hit": false,
      "t": 4411.7625,
      "d": 176.47050000000036,
      "v": 100
    },
    {
      "midi": 64,
      "hit": false,
      "t": 4588.232999999999,
      "d": 705.8820000000005,
      "v": 100
    },
    {
      "midi": 60,
      "hit": false,
      "t": 4588.232999999999,
      "d": 352.9409999999998,
      "v": 100
    },
    {
      "midi": 60,
      "hit": false,
      "t": 4941.173999999999,
      "d": 352.9409999999998,
      "v": 100
    },
    {
      "midi": 69,
      "hit": false,
      "t": 4941.174,
      "d": 176.47050000000036,
      "v": 100
    },
    {
      "midi": 72,
      "hit": false,
      "t": 5294.115,
      "d": 352.9409999999998,
      "v": 100
    },
    {
      "midi": 65,
      "hit": false,
      "t": 5294.115,
      "d": 352.9409999999998,
      "v": 100
    },
    {
      "midi": 64,
      "hit": false,
      "t": 5647.056,
      "d": 1411.7640000000001,
      "v": 100
    },
    {
      "midi": 67,
      "hit": false,
      "t": 5647.056,
      "d": 2823.5279999999993,
      "v": 100
    },
    {
      "midi": 43,
      "hit": false,
      "t": 5647.056,
      "d": 2823.5279999999993,
      "v": 100
    },
    {
      "midi": 40,
      "hit": false,
      "t": 5647.056,
      "d": 2823.5279999999993,
      "v": 100
    },
    {
      "midi": 76,
      "hit": false,
      "t": 5647.056,
      "d": 176.47050000000036,
      "v": 100
    },
    {
      "midi": 76,
      "hit": false,
      "t": 5999.997,
      "d": 176.47050000000036,
      "v": 100
    },
    {
      "midi": 76,
      "hit": false,
      "t": 6352.938000000001,
      "d": 176.47050000000036,
      "v": 100
    },
    {
      "midi": 74,
      "hit": false,
      "t": 6705.879000000002,
      "d": 176.47050000000036,
      "v": 100
    },
    {
      "midi": 55,
      "hit": false,
      "t": 7058.819999999999,
      "d": 352.9409999999998,
      "v": 100
    },
    {
      "midi": 55,
      "hit": false,
      "t": 7058.82,
      "d": 1411.7639999999992,
      "v": 100
    },
    {
      "midi": 72,
      "hit": false,
      "t": 7058.820000000002,
      "d": 176.47050000000036,
      "v": 100
    },
    {
      "midi": 55,
      "hit": false,
      "t": 7411.760999999999,
      "d": 352.9409999999998,
      "v": 100
    },
    {
      "midi": 71,
      "hit": false,
      "t": 7411.761000000003,
      "d": 176.47050000000036,
      "v": 100
    },
    {
      "midi": 55,
      "hit": false,
      "t": 7764.701999999998,
      "d": 352.9409999999998,
      "v": 100
    },
    {
      "midi": 69,
      "hit": false,
      "t": 7764.702000000004,
      "d": 176.47050000000036,
      "v": 100
    },
    {
      "midi": 67,
      "hit": false,
      "t": 8117.643000000005,
      "d": 176.47050000000036,
      "v": 100
    },
    {
      "midi": 62,
      "hit": false,
      "t": 8470.583999999999,
      "d": 352.9410000000007,
      "v": 100
    },
    {
      "midi": 59,
      "hit": false,
      "t": 8470.583999999999,
      "d": 352.9410000000007,
      "v": 100
    },
    {
      "midi": 45,
      "hit": false,
      "t": 8470.583999999999,
      "d": 2823.5280000000002,
      "v": 100
    },
    {
      "midi": 38,
      "hit": false,
      "t": 8470.583999999999,
      "d": 2823.5280000000002,
      "v": 100
    },
    {
      "midi": 65,
      "hit": false,
      "t": 8823.525,
      "d": 352.9410000000007,
      "v": 100
    },
    {
      "midi": 62,
      "hit": false,
      "t": 8823.525,
      "d": 352.9410000000007,
      "v": 100
    },
    {
      "midi": 69,
      "hit": false,
      "t": 9176.466,
      "d": 352.9410000000007,
      "v": 100
    },
    {
      "midi": 65,
      "hit": false,
      "t": 9176.466,
      "d": 352.9410000000007,
      "v": 100
    },
    {
      "midi": 67,
      "hit": false,
      "t": 9529.407000000001,
      "d": 352.9410000000007,
      "v": 100
    },
    {
      "midi": 64,
      "hit": false,
      "t": 9529.407000000001,
      "d": 352.9410000000007,
      "v": 100
    },
    {
      "midi": 60,
      "hit": false,
      "t": 9882.347999999998,
      "d": 352.9410000000007,
      "v": 100
    },
    {
      "midi": 69,
      "hit": false,
      "t": 9882.348,
      "d": 176.47049999999945,
      "v": 100
    },
    {
      "midi": 64,
      "hit": false,
      "t": 9882.348000000002,
      "d": 352.9410000000007,
      "v": 100
    },
    {
      "midi": 69,
      "hit": false,
      "t": 9882.348000000002,
      "d": 999.9994999999999,
      "v": 100
    },
    {
      "midi": 69,
      "hit": false,
      "t": 10058.8185,
      "d": 176.47049999999945,
      "v": 100
    },
    {
      "midi": 60,
      "hit": false,
      "t": 10235.288999999999,
      "d": 352.9410000000007,
      "v": 100
    },
    {
      "midi": 64,
      "hit": false,
      "t": 10235.289000000002,
      "d": 705.8819999999996,
      "v": 100
    },
    {
      "midi": 60,
      "hit": false,
      "t": 10588.23,
      "d": 352.9410000000007,
      "v": 100
    },
    {
      "midi": 69,
      "hit": false,
      "t": 10588.23,
      "d": 176.47049999999945,
      "v": 100
    },
    {
      "midi": 69,
      "hit": false,
      "t": 10941.171000000002,
      "d": 352.9410000000007,
      "v": 100
    },
    {
      "midi": 64,
      "hit": false,
      "t": 10941.171000000002,
      "d": 352.9410000000007,
      "v": 100
    },
    {
      "midi": 41,
      "hit": false,
      "t": 11294.112,
      "d": 1411.7639999999992,
      "v": 100
    },
    {
      "midi": 48,
      "hit": false,
      "t": 11294.112,
      "d": 1411.7639999999992,
      "v": 100
    },
    {
      "midi": 65,
      "hit": false,
      "t": 11294.112000000003,
      "d": 1411.7639999999992,
      "v": 100
    },
    {
      "midi": 72,
      "hit": false,
      "t": 11294.112000000003,
      "d": 1705.8814999999995,
      "v": 100
    },
    {
      "midi": 72,
      "hit": false,
      "t": 11294.112000000005,
      "d": 176.47049999999945,
      "v": 100
    },
    {
      "midi": 72,
      "hit": false,
      "t": 11647.053000000004,
      "d": 176.47049999999945,
      "v": 100
    },
    {
      "midi": 72,
      "hit": false,
      "t": 11999.994000000002,
      "d": 176.47049999999945,
      "v": 100
    },
    {
      "midi": 71,
      "hit": false,
      "t": 12352.935000000001,
      "d": 176.47049999999945,
      "v": 100
    },
    {
      "midi": 45,
      "hit": false,
      "t": 12705.875999999998,
      "d": 1411.7639999999992,
      "v": 100
    },
    {
      "midi": 48,
      "hit": false,
      "t": 12705.875999999998,
      "d": 1411.7639999999992,
      "v": 100
    },
    {
      "midi": 52,
      "hit": false,
      "t": 12705.875999999998,
      "d": 1411.7639999999992,
      "v": 100
    },
    {
      "midi": 57,
      "hit": false,
      "t": 12705.876,
      "d": 352.9410000000007,
      "v": 100
    },
    {
      "midi": 69,
      "hit": false,
      "t": 12705.876,
      "d": 176.47049999999945,
      "v": 100
    },
    {
      "midi": 71,
      "hit": false,
      "t": 13058.817,
      "d": 176.47049999999945,
      "v": 100
    },
    {
      "midi": 57,
      "hit": false,
      "t": 13058.817000000001,
      "d": 352.9410000000007,
      "v": 100
    },
    {
      "midi": 72,
      "hit": false,
      "t": 13411.757999999998,
      "d": 176.47049999999945,
      "v": 100
    },
    {
      "midi": 69,
      "hit": false,
      "t": 13411.758000000002,
      "d": 352.9410000000007,
      "v": 100
    },
    {
      "midi": 60,
      "hit": false,
      "t": 13411.758000000002,
      "d": 352.9410000000007,
      "v": 100
    },
    {
      "midi": 57,
      "hit": false,
      "t": 13411.758000000002,
      "d": 352.9410000000007,
      "v": 100
    },
    {
      "midi": 72,
      "hit": false,
      "t": 13764.698999999997,
      "d": 176.47049999999945,
      "v": 100
    },
    {
      "midi": 72,
      "hit": false,
      "t": 13764.699000000002,
      "d": 352.9410000000007,
      "v": 100
    },
    {
      "midi": 60,
      "hit": false,
      "t": 13764.699000000002,
      "d": 352.9410000000007,
      "v": 100
    },
    {
      "midi": 50,
      "hit": false,
      "t": 14117.639999999998,
      "d": 2823.5280000000002,
      "v": 100
    },
    {
      "midi": 45,
      "hit": false,
      "t": 14117.639999999998,
      "d": 2823.5280000000002,
      "v": 100
    },
    {
      "midi": 65,
      "hit": false,
      "t": 14117.64,
      "d": 176.47049999999945,
      "v": 100
    },
    {
      "midi": 74,
      "hit": false,
      "t": 14117.640000000003,
      "d": 352.9410000000007,
      "v": 100
    },
    {
      "midi": 62,
      "hit": false,
      "t": 14117.640000000003,
      "d": 352.9410000000007,
      "v": 100
    },
    {
      "midi": 74,
      "hit": false,
      "t": 14470.581000000004,
      "d": 352.9410000000007,
      "v": 100
    },
    {
      "midi": 62,
      "hit": false,
      "t": 14470.581000000004,
      "d": 352.9410000000007,
      "v": 100
    },
    {
      "midi": 65,
      "hit": false,
      "t": 14823.521999999999,
      "d": 176.47049999999945,
      "v": 100
    },
    {
      "midi": 74,
      "hit": false,
      "t": 14823.522000000004,
      "d": 352.9410000000007,
      "v": 100
    },
    {
      "midi": 62,
      "hit": false,
      "t": 14823.522000000004,
      "d": 352.9410000000007,
      "v": 100
    },
    {
      "midi": 74,
      "hit": false,
      "t": 15176.463000000005,
      "d": 352.9410000000007,
      "v": 100
    },
    {
      "midi": 62,
      "hit": false,
      "t": 15176.463000000005,
      "d": 352.9410000000007,
      "v": 100
    },
    {
      "midi": 65,
      "hit": false,
      "t": 15529.403999999999,
      "d": 176.47049999999945,
      "v": 100
    },
    {
      "midi": 62,
      "hit": false,
      "t": 15529.404000000002,
      "d": 352.9410000000007,
      "v": 100
    },
    {
      "midi": 62,
      "hit": false,
      "t": 15529.404000000006,
      "d": 705.8819999999996,
      "v": 100
    },
    {
      "midi": 74,
      "hit": false,
      "t": 15529.404000000006,
      "d": 999.9994999999981,
      "v": 100
    },
    {
      "midi": 65,
      "hit": false,
      "t": 15705.874499999998,
      "d": 176.47049999999945,
      "v": 100
    },
    {
      "midi": 62,
      "hit": false,
      "t": 15882.345000000003,
      "d": 352.9410000000007,
      "v": 100
    },
    {
      "midi": 65,
      "hit": false,
      "t": 16235.285999999998,
      "d": 176.47050000000127,
      "v": 100
    },
    {
      "midi": 62,
      "hit": false,
      "t": 16235.286000000004,
      "d": 352.9409999999989,
      "v": 100
    },
    {
      "midi": 74,
      "hit": false,
      "t": 16588.227000000003,
      "d": 352.9409999999989,
      "v": 100
    },
    {
      "midi": 62,
      "hit": false,
      "t": 16588.227000000003,
      "d": 352.9409999999989,
      "v": 100
    },
    {
      "midi": 48,
      "hit": false,
      "t": 16941.167999999998,
      "d": 2823.5279999999984,
      "v": 100
    },
    {
      "midi": 43,
      "hit": false,
      "t": 16941.167999999998,
      "d": 2823.5279999999984,
      "v": 100
    },
    {
      "midi": 72,
      "hit": false,
      "t": 16941.168,
      "d": 705.8820000000014,
      "v": 100
    },
    {
      "midi": 60,
      "hit": false,
      "t": 16941.168,
      "d": 705.8820000000014,
      "v": 100
    },
    {
      "midi": 67,
      "hit": false,
      "t": 17647.050000000003,
      "d": 705.8820000000014,
      "v": 100
    },
    {
      "midi": 60,
      "hit": false,
      "t": 17647.050000000003,
      "d": 705.8820000000014,
      "v": 100
    },
    {
      "midi": 62,
      "hit": false,
      "t": 18352.932,
      "d": 352.9409999999989,
      "v": 100
    },
    {
      "midi": 69,
      "hit": false,
      "t": 18352.932000000004,
      "d": 1411.7639999999992,
      "v": 100
    },
    {
      "midi": 62,
      "hit": false,
      "t": 18352.932000000004,
      "d": 1411.7639999999992,
      "v": 100
    },
    {
      "midi": 62,
      "hit": false,
      "t": 18705.873,
      "d": 352.9409999999989,
      "v": 100
    },
    {
      "midi": 62,
      "hit": false,
      "t": 19058.814,
      "d": 352.9409999999989,
      "v": 100
    },
    {
      "midi": 47,
      "hit": false,
      "t": 19764.695999999996,
      "d": 2823.5279999999984,
      "v": 100
    },
    {
      "midi": 43,
      "hit": false,
      "t": 19764.695999999996,
      "d": 2823.5279999999984,
      "v": 100
    },
    {
      "midi": 62,
      "hit": false,
      "t": 19764.696,
      "d": 176.47049999999945,
      "v": 100
    },
    {
      "midi": 67,
      "hit": false,
      "t": 19764.696000000004,
      "d": 352.9409999999989,
      "v": 100
    },
    {
      "midi": 62,
      "hit": false,
      "t": 19764.696000000004,
      "d": 352.9409999999989,
      "v": 100
    },
    {
      "midi": 67,
      "hit": false,
      "t": 20117.637000000002,
      "d": 352.9409999999989,
      "v": 100
    },
    {
      "midi": 62,
      "hit": false,
      "t": 20117.637000000002,
      "d": 352.9409999999989,
      "v": 100
    },
    {
      "midi": 62,
      "hit": false,
      "t": 20470.577999999998,
      "d": 176.47049999999945,
      "v": 100
    },
    {
      "midi": 67,
      "hit": false,
      "t": 20470.578,
      "d": 352.9409999999989,
      "v": 100
    },
    {
      "midi": 62,
      "hit": false,
      "t": 20470.578,
      "d": 352.9409999999989,
      "v": 100
    },
    {
      "midi": 69,
      "hit": false,
      "t": 20823.519,
      "d": 352.9409999999989,
      "v": 100
    },
    {
      "midi": 65,
      "hit": false,
      "t": 20823.519,
      "d": 352.9409999999989,
      "v": 100
    },
    {
      "midi": 62,
      "hit": false,
      "t": 21176.459999999995,
      "d": 176.47049999999945,
      "v": 100
    },
    {
      "midi": 67,
      "hit": false,
      "t": 21176.46,
      "d": 705.8820000000014,
      "v": 100
    },
    {
      "midi": 62,
      "hit": false,
      "t": 21176.46,
      "d": 705.8820000000014,
      "v": 100
    },
    {
      "midi": 62,
      "hit": false,
      "t": 21176.46,
      "d": 352.9409999999989,
      "v": 100
    },
    {
      "midi": 62,
      "hit": false,
      "t": 21352.930499999995,
      "d": 176.47049999999945,
      "v": 100
    },
    {
      "midi": 62,
      "hit": false,
      "t": 21529.400999999998,
      "d": 352.9409999999989,
      "v": 100
    },
    {
      "midi": 62,
      "hit": false,
      "t": 21882.341999999993,
      "d": 176.47049999999945,
      "v": 100
    },
    {
      "midi": 62,
      "hit": false,
      "t": 21882.341999999997,
      "d": 352.9409999999989,
      "v": 100
    },
    {
      "midi": 62,
      "hit": false,
      "t": 21882.342,
      "d": 705.8820000000014,
      "v": 100
    },
    {
      "midi": 59,
      "hit": false,
      "t": 21882.342,
      "d": 705.8820000000014,
      "v": 100
    },
    {
      "midi": 47,
      "hit": false,
      "t": 22588.223999999995,
      "d": 1411.7639999999992,
      "v": 100
    },
    {
      "midi": 43,
      "hit": false,
      "t": 22588.223999999995,
      "d": 1411.7639999999992,
      "v": 100
    },
    {
      "midi": 40,
      "hit": false,
      "t": 22588.223999999995,
      "d": 1411.7639999999992,
      "v": 100
    },
    {
      "midi": 59,
      "hit": false,
      "t": 22588.223999999995,
      "d": 176.47049999999945,
      "v": 100
    },
    {
      "midi": 57,
      "hit": false,
      "t": 22588.224000000002,
      "d": 1411.7639999999992,
      "v": 100
    },
    {
      "midi": 69,
      "hit": false,
      "t": 22588.224000000002,
      "d": 2823.5279999999984,
      "v": 100
    },
    {
      "midi": 60,
      "hit": false,
      "t": 22764.694499999994,
      "d": 176.47049999999945,
      "v": 100
    },
    {
      "midi": 62,
      "hit": false,
      "t": 22941.164999999994,
      "d": 176.47049999999945,
      "v": 100
    },
    {
      "midi": 64,
      "hit": false,
      "t": 23117.635499999993,
      "d": 176.47049999999945,
      "v": 100
    },
    {
      "midi": 65,
      "hit": false,
      "t": 23294.105999999992,
      "d": 176.47049999999945,
      "v": 100
    },
    {
      "midi": 69,
      "hit": false,
      "t": 23470.576499999992,
      "d": 176.47049999999945,
      "v": 100
    },
    {
      "midi": 72,
      "hit": false,
      "t": 23647.04699999999,
      "d": 176.47049999999945,
      "v": 100
    },
    {
      "midi": 74,
      "hit": false,
      "t": 23823.51749999999,
      "d": 176.47049999999945,
      "v": 100
    },
    {
      "midi": 77,
      "hit": false,
      "t": 23999.98799999999,
      "d": 176.47049999999945,
      "v": 100
    },
    {
      "midi": 45,
      "hit": false,
      "t": 23999.987999999994,
      "d": 1411.7639999999992,
      "v": 100
    },
    {
      "midi": 48,
      "hit": false,
      "t": 23999.987999999994,
      "d": 1411.7639999999992,
      "v": 100
    },
    {
      "midi": 52,
      "hit": false,
      "t": 23999.987999999994,
      "d": 1411.7639999999992,
      "v": 100
    },
    {
      "midi": 57,
      "hit": false,
      "t": 23999.987999999998,
      "d": 352.9409999999989,
      "v": 100
    },
    {
      "midi": 57,
      "hit": false,
      "t": 23999.988,
      "d": 1411.7639999999992,
      "v": 100
    },
    {
      "midi": 79,
      "hit": false,
      "t": 24176.45849999999,
      "d": 176.47049999999945,
      "v": 100
    },
    {
      "midi": 81,
      "hit": false,
      "t": 24352.92899999999,
      "d": 176.47049999999945,
      "v": 100
    },
    {
      "midi": 57,
      "hit": false,
      "t": 24352.928999999996,
      "d": 352.9409999999989,
      "v": 100
    },
    {
      "midi": 76,
      "hit": false,
      "t": 24529.39949999999,
      "d": 176.47049999999945,
      "v": 100
    },
    {
      "midi": 77,
      "hit": false,
      "t": 24705.869999999988,
      "d": 176.47049999999945,
      "v": 100
    },
    {
      "midi": 57,
      "hit": false,
      "t": 24705.869999999995,
      "d": 352.9409999999989,
      "v": 100
    },
    {
      "midi": 79,
      "hit": false,
      "t": 24882.340499999988,
      "d": 176.47049999999945,
      "v": 100
    },
    {
      "midi": 76,
      "hit": false,
      "t": 25058.810999999987,
      "d": 176.47049999999945,
      "v": 100
    },
    {
      "midi": 72,
      "hit": false,
      "t": 25235.281499999986,
      "d": 176.47049999999945,
      "v": 100
    },
    {
      "midi": 45,
      "hit": false,
      "t": 25411.751999999993,
      "d": 2823.5279999999984,
      "v": 100
    },
    {
      "midi": 38,
      "hit": false,
      "t": 25411.751999999993,
      "d": 2823.5279999999984,
      "v": 100
    },
    {
      "midi": 62,
      "hit": false,
      "t": 25411.752,
      "d": 352.9409999999989,
      "v": 100
    },
    {
      "midi": 59,
      "hit": false,
      "t": 25411.752,
      "d": 352.9409999999989,
      "v": 100
    },
    {
      "midi": 65,
      "hit": false,
      "t": 25764.693,
      "d": 352.9409999999989,
      "v": 100
    },
    {
      "midi": 62,
      "hit": false,
      "t": 25764.693,
      "d": 352.9409999999989,
      "v": 100
    },
    {
      "midi": 69,
      "hit": false,
      "t": 26117.634,
      "d": 352.9409999999989,
      "v": 100
    },
    {
      "midi": 65,
      "hit": false,
      "t": 26117.634,
      "d": 352.9409999999989,
      "v": 100
    },
    {
      "midi": 67,
      "hit": false,
      "t": 26470.574999999997,
      "d": 352.9409999999989,
      "v": 100
    },
    {
      "midi": 64,
      "hit": false,
      "t": 26470.574999999997,
      "d": 352.9409999999989,
      "v": 100
    },
    {
      "midi": 69,
      "hit": false,
      "t": 26823.515999999992,
      "d": 176.47049999999945,
      "v": 100
    },
    {
      "midi": 64,
      "hit": false,
      "t": 26823.515999999996,
      "d": 352.9409999999989,
      "v": 100
    },
    {
      "midi": 69,
      "hit": false,
      "t": 26823.515999999996,
      "d": 999.9994999999981,
      "v": 100
    },
    {
      "midi": 60,
      "hit": false,
      "t": 26823.515999999996,
      "d": 352.9409999999989,
      "v": 100
    },
    {
      "midi": 69,
      "hit": false,
      "t": 26999.98649999999,
      "d": 176.47049999999945,
      "v": 100
    },
    {
      "midi": 64,
      "hit": false,
      "t": 27176.456999999995,
      "d": 705.8819999999978,
      "v": 100
    },
    {
      "midi": 60,
      "hit": false,
      "t": 27176.456999999995,
      "d": 352.9409999999989,
      "v": 100
    },
    {
      "midi": 69,
      "hit": false,
      "t": 27529.39799999999,
      "d": 176.47049999999945,
      "v": 100
    },
    {
      "midi": 60,
      "hit": false,
      "t": 27529.397999999994,
      "d": 352.9409999999989,
      "v": 100
    },
    {
      "midi": 72,
      "hit": false,
      "t": 27882.338999999993,
      "d": 352.9409999999989,
      "v": 100
    },
    {
      "midi": 65,
      "hit": false,
      "t": 27882.338999999993,
      "d": 352.9409999999989,
      "v": 100
    },
    {
      "midi": 76,
      "hit": false,
      "t": 28235.279999999984,
      "d": 176.47049999999945,
      "v": 100
    },
    {
      "midi": 64,
      "hit": false,
      "t": 28235.27999999999,
      "d": 1411.7639999999992,
      "v": 100
    },
    {
      "midi": 67,
      "hit": false,
      "t": 28235.27999999999,
      "d": 2823.5279999999984,
      "v": 100
    },
    {
      "midi": 43,
      "hit": false,
      "t": 28235.27999999999,
      "d": 2823.5279999999984,
      "v": 100
    },
    {
      "midi": 40,
      "hit": false,
      "t": 28235.27999999999,
      "d": 2823.5279999999984,
      "v": 100
    },
    {
      "midi": 76,
      "hit": false,
      "t": 28588.220999999983,
      "d": 176.47049999999945,
      "v": 100
    },
    {
      "midi": 76,
      "hit": false,
      "t": 28941.161999999982,
      "d": 176.47049999999945,
      "v": 100
    },
    {
      "midi": 74,
      "hit": false,
      "t": 29294.10299999998,
      "d": 176.47049999999945,
      "v": 100
    },
    {
      "midi": 72,
      "hit": false,
      "t": 29647.04399999998,
      "d": 176.47049999999945,
      "v": 100
    },
    {
      "midi": 55,
      "hit": false,
      "t": 29647.04399999999,
      "d": 1411.7639999999992,
      "v": 100
    },
    {
      "midi": 55,
      "hit": false,
      "t": 29647.043999999994,
      "d": 352.9409999999989,
      "v": 100
    },
    {
      "midi": 71,
      "hit": false,
      "t": 29999.98499999998,
      "d": 176.47049999999945,
      "v": 100
    },
    {
      "midi": 55,
      "hit": false,
      "t": 29999.984999999993,
      "d": 352.9409999999989,
      "v": 100
    },
    {
      "midi": 69,
      "hit": false,
      "t": 30352.925999999978,
      "d": 176.47049999999945,
      "v": 100
    },
    {
      "midi": 55,
      "hit": false,
      "t": 30352.925999999992,
      "d": 352.9409999999989,
      "v": 100
    },
    {
      "midi": 67,
      "hit": false,
      "t": 30705.866999999977,
      "d": 176.47049999999945,
      "v": 100
    },
    {
      "midi": 62,
      "hit": false,
      "t": 31058.80799999999,
      "d": 352.9409999999989,
      "v": 100
    },
    {
      "midi": 59,
      "hit": false,
      "t": 31058.80799999999,
      "d": 352.9409999999989,
      "v": 100
    },
    {
      "midi": 45,
      "hit": false,
      "t": 31058.80799999999,
      "d": 2823.5279999999984,
      "v": 100
    },
    {
      "midi": 38,
      "hit": false,
      "t": 31058.80799999999,
      "d": 2823.5279999999984,
      "v": 100
    },
    {
      "midi": 65,
      "hit": false,
      "t": 31411.74899999999,
      "d": 352.9409999999989,
      "v": 100
    },
    {
      "midi": 62,
      "hit": false,
      "t": 31411.74899999999,
      "d": 352.9409999999989,
      "v": 100
    },
    {
      "midi": 69,
      "hit": false,
      "t": 31764.689999999988,
      "d": 352.9409999999989,
      "v": 100
    },
    {
      "midi": 65,
      "hit": false,
      "t": 31764.689999999988,
      "d": 352.9409999999989,
      "v": 100
    },
    {
      "midi": 67,
      "hit": false,
      "t": 32117.630999999987,
      "d": 352.9409999999989,
      "v": 100
    },
    {
      "midi": 64,
      "hit": false,
      "t": 32117.630999999987,
      "d": 352.9409999999989,
      "v": 100
    },
    {
      "midi": 64,
      "hit": false,
      "t": 32470.571999999986,
      "d": 352.9409999999989,
      "v": 100
    },
    {
      "midi": 69,
      "hit": false,
      "t": 32470.571999999986,
      "d": 999.9994999999981,
      "v": 100
    },
    {
      "midi": 69,
      "hit": false,
      "t": 32470.57199999999,
      "d": 176.47049999999945,
      "v": 100
    },
    {
      "midi": 60,
      "hit": false,
      "t": 32470.571999999993,
      "d": 352.9409999999989,
      "v": 100
    },
    {
      "midi": 69,
      "hit": false,
      "t": 32647.04249999999,
      "d": 176.47050000000309,
      "v": 100
    },
    {
      "midi": 64,
      "hit": false,
      "t": 32823.512999999984,
      "d": 705.8819999999978,
      "v": 100
    },
    {
      "midi": 60,
      "hit": false,
      "t": 32823.51299999999,
      "d": 352.9409999999989,
      "v": 100
    },
    {
      "midi": 60,
      "hit": false,
      "t": 33176.45399999999,
      "d": 352.9409999999989,
      "v": 100
    },
    {
      "midi": 69,
      "hit": false,
      "t": 33176.45399999999,
      "d": 176.47050000000309,
      "v": 100
    },
    {
      "midi": 69,
      "hit": false,
      "t": 33529.39499999998,
      "d": 352.9409999999989,
      "v": 100
    },
    {
      "midi": 64,
      "hit": false,
      "t": 33529.39499999998,
      "d": 352.9409999999989,
      "v": 100
    },
    {
      "midi": 72,
      "hit": false,
      "t": 33882.335999999974,
      "d": 176.47050000000309,
      "v": 100
    },
    {
      "midi": 65,
      "hit": false,
      "t": 33882.33599999998,
      "d": 1411.7640000000029,
      "v": 100
    },
    {
      "midi": 72,
      "hit": false,
      "t": 33882.33599999998,
      "d": 1705.8815000000031,
      "v": 100
    },
    {
      "midi": 41,
      "hit": false,
      "t": 33882.33599999999,
      "d": 1411.7640000000029,
      "v": 100
    },
    {
      "midi": 48,
      "hit": false,
      "t": 33882.33599999999,
      "d": 1411.7640000000029,
      "v": 100
    },
    {
      "midi": 72,
      "hit": false,
      "t": 34235.27699999998,
      "d": 176.47050000000309,
      "v": 100
    },
    {
      "midi": 72,
      "hit": false,
      "t": 34588.217999999986,
      "d": 176.47050000000309,
      "v": 100
    },
    {
      "midi": 71,
      "hit": false,
      "t": 34941.15899999999,
      "d": 176.47050000000309,
      "v": 100
    },
    {
      "midi": 52,
      "hit": false,
      "t": 35294.09999999999,
      "d": 1411.7640000000029,
      "v": 100
    },
    {
      "midi": 48,
      "hit": false,
      "t": 35294.09999999999,
      "d": 1411.7640000000029,
      "v": 100
    },
    {
      "midi": 57,
      "hit": false,
      "t": 35294.09999999999,
      "d": 1411.7640000000029,
      "v": 100
    },
    {
      "midi": 57,
      "hit": false,
      "t": 35294.09999999999,
      "d": 352.9409999999989,
      "v": 100
    },
    {
      "midi": 69,
      "hit": false,
      "t": 35294.1,
      "d": 176.47050000000309,
      "v": 100
    },
    {
      "midi": 57,
      "hit": false,
      "t": 35647.04099999999,
      "d": 352.9409999999989,
      "v": 100
    },
    {
      "midi": 71,
      "hit": false,
      "t": 35647.041000000005,
      "d": 176.47050000000309,
      "v": 100
    },
    {
      "midi": 69,
      "hit": false,
      "t": 35999.98199999998,
      "d": 352.9409999999989,
      "v": 100
    },
    {
      "midi": 60,
      "hit": false,
      "t": 35999.98199999998,
      "d": 352.9409999999989,
      "v": 100
    },
    {
      "midi": 57,
      "hit": false,
      "t": 35999.98199999999,
      "d": 352.9409999999989,
      "v": 100
    },
    {
      "midi": 72,
      "hit": false,
      "t": 35999.98200000001,
      "d": 176.47050000000309,
      "v": 100
    },
    {
      "midi": 72,
      "hit": false,
      "t": 36352.92299999998,
      "d": 352.9409999999989,
      "v": 100
    },
    {
      "midi": 60,
      "hit": false,
      "t": 36352.92299999998,
      "d": 352.9409999999989,
      "v": 100
    },
    {
      "midi": 72,
      "hit": false,
      "t": 36352.92300000002,
      "d": 176.47050000000309,
      "v": 100
    },
    {
      "midi": 74,
      "hit": false,
      "t": 36705.86399999998,
      "d": 352.9409999999989,
      "v": 100
    },
    {
      "midi": 62,
      "hit": false,
      "t": 36705.86399999998,
      "d": 352.9409999999989,
      "v": 100
    },
    {
      "midi": 50,
      "hit": false,
      "t": 36705.863999999994,
      "d": 2823.5279999999984,
      "v": 100
    },
    {
      "midi": 45,
      "hit": false,
      "t": 36705.863999999994,
      "d": 2823.5279999999984,
      "v": 100
    },
    {
      "midi": 65,
      "hit": false,
      "t": 36705.863999999994,
      "d": 176.47050000000309,
      "v": 100
    },
    {
      "midi": 74,
      "hit": false,
      "t": 37058.80499999998,
      "d": 352.9409999999989,
      "v": 100
    },
    {
      "midi": 62,
      "hit": false,
      "t": 37058.80499999998,
      "d": 352.9409999999989,
      "v": 100
    },
    {
      "midi": 74,
      "hit": false,
      "t": 37411.74599999998,
      "d": 352.9409999999989,
      "v": 100
    },
    {
      "midi": 62,
      "hit": false,
      "t": 37411.74599999998,
      "d": 352.9409999999989,
      "v": 100
    },
    {
      "midi": 65,
      "hit": false,
      "t": 37411.746,
      "d": 176.47050000000309,
      "v": 100
    },
    {
      "midi": 74,
      "hit": false,
      "t": 37764.686999999976,
      "d": 352.9409999999989,
      "v": 100
    },
    {
      "midi": 62,
      "hit": false,
      "t": 37764.686999999976,
      "d": 352.9409999999989,
      "v": 100
    },
    {
      "midi": 62,
      "hit": false,
      "t": 38117.627999999975,
      "d": 705.8819999999978,
      "v": 100
    },
    {
      "midi": 74,
      "hit": false,
      "t": 38117.627999999975,
      "d": 999.9994999999981,
      "v": 100
    },
    {
      "midi": 62,
      "hit": false,
      "t": 38117.62799999999,
      "d": 352.9409999999989,
      "v": 100
    },
    {
      "midi": 65,
      "hit": false,
      "t": 38117.628000000004,
      "d": 176.47050000000309,
      "v": 100
    },
    {
      "midi": 65,
      "hit": false,
      "t": 38294.09850000001,
      "d": 176.47050000000309,
      "v": 100
    },
    {
      "midi": 62,
      "hit": false,
      "t": 38470.56899999999,
      "d": 352.9409999999989,
      "v": 100
    },
    {
      "midi": 62,
      "hit": false,
      "t": 38823.50999999999,
      "d": 352.9409999999989,
      "v": 100
    },
    {
      "midi": 65,
      "hit": false,
      "t": 38823.51000000001,
      "d": 176.47050000000309,
      "v": 100
    },
    {
      "midi": 74,
      "hit": false,
      "t": 39176.45099999997,
      "d": 352.9409999999989,
      "v": 100
    },
    {
      "midi": 62,
      "hit": false,
      "t": 39176.45099999997,
      "d": 352.9409999999989,
      "v": 100
    },
    {
      "midi": 72,
      "hit": false,
      "t": 39529.39199999997,
      "d": 705.8819999999978,
      "v": 100
    },
    {
      "midi": 60,
      "hit": false,
      "t": 39529.39199999997,
      "d": 705.8819999999978,
      "v": 100
    },
    {
      "midi": 48,
      "hit": false,
      "t": 39529.39199999999,
      "d": 2823.5279999999984,
      "v": 100
    },
    {
      "midi": 43,
      "hit": false,
      "t": 39529.39199999999,
      "d": 2823.5279999999984,
      "v": 100
    },
    {
      "midi": 67,
      "hit": false,
      "t": 40235.27399999997,
      "d": 705.8819999999978,
      "v": 100
    },
    {
      "midi": 60,
      "hit": false,
      "t": 40235.27399999997,
      "d": 705.8819999999978,
      "v": 100
    },
    {
      "midi": 69,
      "hit": false,
      "t": 40941.155999999966,
      "d": 1411.7640000000029,
      "v": 100
    },
    {
      "midi": 62,
      "hit": false,
      "t": 40941.155999999966,
      "d": 1411.7640000000029,
      "v": 100
    },
    {
      "midi": 62,
      "hit": false,
      "t": 40941.15599999999,
      "d": 352.9409999999989,
      "v": 100
    },
    {
      "midi": 62,
      "hit": false,
      "t": 41294.09699999999,
      "d": 352.9409999999989,
      "v": 100
    },
    {
      "midi": 62,
      "hit": false,
      "t": 41647.037999999986,
      "d": 352.9409999999989,
      "v": 100
    },
    {
      "midi": 67,
      "hit": false,
      "t": 42352.91999999997,
      "d": 352.9409999999989,
      "v": 100
    },
    {
      "midi": 62,
      "hit": false,
      "t": 42352.91999999997,
      "d": 352.9409999999989,
      "v": 100
    },
    {
      "midi": 47,
      "hit": false,
      "t": 42352.91999999999,
      "d": 2823.5279999999984,
      "v": 100
    },
    {
      "midi": 43,
      "hit": false,
      "t": 42352.91999999999,
      "d": 2823.5279999999984,
      "v": 100
    },
    {
      "midi": 62,
      "hit": false,
      "t": 42352.92000000001,
      "d": 176.47050000000309,
      "v": 100
    },
    {
      "midi": 67,
      "hit": false,
      "t": 42705.86099999997,
      "d": 352.9409999999989,
      "v": 100
    },
    {
      "midi": 62,
      "hit": false,
      "t": 42705.86099999997,
      "d": 352.9409999999989,
      "v": 100
    },
    {
      "midi": 67,
      "hit": false,
      "t": 43058.80199999997,
      "d": 352.9409999999989,
      "v": 100
    },
    {
      "midi": 62,
      "hit": false,
      "t": 43058.80199999997,
      "d": 352.9409999999989,
      "v": 100
    },
    {
      "midi": 62,
      "hit": false,
      "t": 43058.80200000002,
      "d": 176.47050000000309,
      "v": 100
    },
    {
      "midi": 69,
      "hit": false,
      "t": 43411.742999999966,
      "d": 352.9409999999989,
      "v": 100
    },
    {
      "midi": 65,
      "hit": false,
      "t": 43411.742999999966,
      "d": 352.9409999999989,
      "v": 100
    },
    {
      "midi": 67,
      "hit": false,
      "t": 43764.683999999965,
      "d": 352.9409999999989,
      "v": 100
    },
    {
      "midi": 62,
      "hit": false,
      "t": 43764.683999999965,
      "d": 352.9409999999989,
      "v": 100
    },
    {
      "midi": 62,
      "hit": false,
      "t": 43764.68400000002,
      "d": 176.47050000000309,
      "v": 100
    },
    {
      "midi": 62,
      "hit": false,
      "t": 43941.154500000026,
      "d": 176.47050000000309,
      "v": 100
    },
    {
      "midi": 62,
      "hit": false,
      "t": 44117.62499999996,
      "d": 705.8819999999978,
      "v": 100
    },
    {
      "midi": 55,
      "hit": false,
      "t": 44117.62499999996,
      "d": 705.8819999999978,
      "v": 100
    },
    {
      "midi": 62,
      "hit": false,
      "t": 44470.56600000003,
      "d": 176.47050000000309,
      "v": 100
    },
    {
      "midi": 65,
      "hit": false,
      "t": 44823.50699999996,
      "d": 352.9409999999989,
      "v": 100
    },
    {
      "midi": 57,
      "hit": false,
      "t": 44823.50699999996,
      "d": 352.9409999999989,
      "v": 100
    },
    {
      "midi": 65,
      "hit": false,
      "t": 45176.44799999996,
      "d": 2823.5279999999984,
      "v": 100
    },
    {
      "midi": 53,
      "hit": false,
      "t": 45176.44799999996,
      "d": 2823.5279999999984,
      "v": 100
    },
    {
      "midi": 41,
      "hit": false,
      "t": 45176.44799999999,
      "d": 2823.5279999999984,
      "v": 100
    },
    {
      "midi": 48,
      "hit": false,
      "t": 45176.44799999999,
      "d": 2823.5279999999984,
      "v": 100
    },
    {
      "midi": 69,
      "hit": false,
      "t": 45529.38900000002,
      "d": 176.47050000000309,
      "v": 100
    },
    {
      "midi": 71,
      "hit": false,
      "t": 45705.85950000002,
      "d": 176.47050000000309,
      "v": 100
    },
    {
      "midi": 72,
      "hit": false,
      "t": 45882.33000000002,
      "d": 176.47050000000309,
      "v": 100
    },
    {
      "midi": 71,
      "hit": false,
      "t": 46058.80050000003,
      "d": 176.47050000000309,
      "v": 100
    },
    {
      "midi": 65,
      "hit": false,
      "t": 46235.27100000003,
      "d": 176.47050000000309,
      "v": 100
    },
    {
      "midi": 67,
      "hit": false,
      "t": 46411.74150000003,
      "d": 176.47050000000309,
      "v": 100
    },
    {
      "midi": 53,
      "hit": false,
      "t": 46588.211999999985,
      "d": 1411.7640000000029,
      "v": 100
    },
    {
      "midi": 69,
      "hit": false,
      "t": 46588.212000000036,
      "d": 176.47050000000309,
      "v": 100
    },
    {
      "midi": 71,
      "hit": false,
      "t": 46764.68250000004,
      "d": 176.47050000000309,
      "v": 100
    },
    {
      "midi": 72,
      "hit": false,
      "t": 46941.15300000004,
      "d": 176.47050000000309,
      "v": 100
    },
    {
      "midi": 74,
      "hit": false,
      "t": 47117.623500000045,
      "d": 176.47050000000309,
      "v": 100
    },
    {
      "midi": 76,
      "hit": false,
      "t": 47294.09400000005,
      "d": 176.47050000000309,
      "v": 100
    },
    {
      "midi": 77,
      "hit": false,
      "t": 47470.56450000005,
      "d": 176.47050000000309,
      "v": 100
    },
    {
      "midi": 76,
      "hit": false,
      "t": 47647.035000000054,
      "d": 176.47050000000309,
      "v": 100
    },
    {
      "midi": 77,
      "hit": false,
      "t": 47823.50550000006,
      "d": 176.47050000000309,
      "v": 100
    },
    {
      "midi": 71,
      "hit": false,
      "t": 47999.97599999996,
      "d": 352.9409999999989,
      "v": 100
    },
    {
      "midi": 43,
      "hit": false,
      "t": 47999.97599999999,
      "d": 2823.5279999999984,
      "v": 100
    },
    {
      "midi": 50,
      "hit": false,
      "t": 47999.97599999999,
      "d": 2823.5279999999984,
      "v": 100
    },
    {
      "midi": 71,
      "hit": false,
      "t": 48352.91699999996,
      "d": 352.9409999999989,
      "v": 100
    },
    {
      "midi": 67,
      "hit": false,
      "t": 48352.91699999996,
      "d": 352.9409999999989,
      "v": 100
    },
    {
      "midi": 67,
      "hit": false,
      "t": 48705.85799999996,
      "d": 294.1175000000003,
      "v": 100
    },
    {
      "midi": 71,
      "hit": false,
      "t": 48705.85799999996,
      "d": 352.9409999999989,
      "v": 100
    },
    {
      "midi": 72,
      "hit": false,
      "t": 49058.798999999955,
      "d": 352.9409999999989,
      "v": 100
    },
    {
      "midi": 69,
      "hit": false,
      "t": 49058.798999999955,
      "d": 352.9409999999989,
      "v": 100
    },
    {
      "midi": 67,
      "hit": false,
      "t": 49411.739999999954,
      "d": 999.9994999999981,
      "v": 100
    },
    {
      "midi": 71,
      "hit": false,
      "t": 49411.739999999954,
      "d": 1411.7639999999956,
      "v": 100
    },
    {
      "midi": 69,
      "hit": false,
      "t": 49411.74000000006,
      "d": 705.8819999999978,
      "v": 100
    },
    {
      "midi": 69,
      "hit": false,
      "t": 50117.62200000006,
      "d": 705.8819999999978,
      "v": 100
    },
    {
      "midi": 69,
      "hit": false,
      "t": 50470.56299999995,
      "d": 352.9409999999989,
      "v": 100
    },
    {
      "midi": 65,
      "hit": false,
      "t": 50470.56299999995,
      "d": 352.9409999999989,
      "v": 100
    },
    {
      "midi": 72,
      "hit": false,
      "t": 50823.50399999995,
      "d": 705.8819999999978,
      "v": 100
    },
    {
      "midi": 69,
      "hit": false,
      "t": 50823.50399999995,
      "d": 705.8819999999978,
      "v": 100
    },
    {
      "midi": 48,
      "hit": false,
      "t": 50823.503999999986,
      "d": 2823.5279999999984,
      "v": 100
    },
    {
      "midi": 52,
      "hit": false,
      "t": 50823.503999999986,
      "d": 2823.5279999999984,
      "v": 100
    },
    {
      "midi": 71,
      "hit": false,
      "t": 51529.38599999995,
      "d": 705.8819999999978,
      "v": 100
    },
    {
      "midi": 64,
      "hit": false,
      "t": 51529.38599999995,
      "d": 705.8819999999978,
      "v": 100
    },
    {
      "midi": 60,
      "hit": false,
      "t": 52235.267999999945,
      "d": 1294.1169999999984,
      "v": 100
    },
    {
      "midi": 64,
      "hit": false,
      "t": 52235.267999999945,
      "d": 1411.7639999999956,
      "v": 100
    },
    {
      "midi": 69,
      "hit": false,
      "t": 52941.15000000006,
      "d": 176.47050000000309,
      "v": 100
    },
    {
      "midi": 71,
      "hit": false,
      "t": 53117.62050000006,
      "d": 176.47050000000309,
      "v": 100
    },
    {
      "midi": 69,
      "hit": false,
      "t": 53294.091000000066,
      "d": 176.47050000000309,
      "v": 100
    },
    {
      "midi": 71,
      "hit": false,
      "t": 53470.56150000007,
      "d": 176.47050000000309,
      "v": 100
    },
    {
      "midi": 62,
      "hit": false,
      "t": 53647.03199999994,
      "d": 705.8819999999978,
      "v": 100
    },
    {
      "midi": 59,
      "hit": false,
      "t": 53647.03199999994,
      "d": 705.8819999999978,
      "v": 100
    },
    {
      "midi": 43,
      "hit": false,
      "t": 53647.031999999985,
      "d": 2823.5279999999984,
      "v": 100
    },
    {
      "midi": 47,
      "hit": false,
      "t": 53647.031999999985,
      "d": 2823.5279999999984,
      "v": 100
    },
    {
      "midi": 67,
      "hit": false,
      "t": 54352.91399999994,
      "d": 705.8819999999978,
      "v": 100
    },
    {
      "midi": 60,
      "hit": false,
      "t": 54352.91399999994,
      "d": 705.8819999999978,
      "v": 100
    },
    {
      "midi": 64,
      "hit": false,
      "t": 55058.79599999994,
      "d": 705.8819999999978,
      "v": 100
    },
    {
      "midi": 59,
      "hit": false,
      "t": 55058.79599999994,
      "d": 705.8819999999978,
      "v": 100
    },
    {
      "midi": 67,
      "hit": false,
      "t": 55058.796000000075,
      "d": 705.8819999999978,
      "v": 100
    },
    {
      "midi": 62,
      "hit": false,
      "t": 55764.677999999934,
      "d": 352.9409999999989,
      "v": 100
    },
    {
      "midi": 57,
      "hit": false,
      "t": 55764.677999999934,
      "d": 352.9409999999989,
      "v": 100
    },
    {
      "midi": 67,
      "hit": false,
      "t": 55764.67800000007,
      "d": 705.8819999999978,
      "v": 100
    },
    {
      "midi": 64,
      "hit": false,
      "t": 56117.61899999993,
      "d": 352.9409999999989,
      "v": 100
    },
    {
      "midi": 59,
      "hit": false,
      "t": 56117.61899999993,
      "d": 352.9409999999989,
      "v": 100
    },
    {
      "midi": 71,
      "hit": false,
      "t": 56470.55999999993,
      "d": 352.9409999999989,
      "v": 100
    },
    {
      "midi": 64,
      "hit": false,
      "t": 56470.55999999993,
      "d": 352.9409999999989,
      "v": 100
    },
    {
      "midi": 47,
      "hit": false,
      "t": 56470.55999999998,
      "d": 2823.5279999999984,
      "v": 100
    },
    {
      "midi": 40,
      "hit": false,
      "t": 56470.55999999998,
      "d": 2823.5279999999984,
      "v": 100
    },
    {
      "midi": 71,
      "hit": false,
      "t": 56823.50099999993,
      "d": 352.9409999999989,
      "v": 100
    },
    {
      "midi": 64,
      "hit": false,
      "t": 56823.50099999993,
      "d": 352.9409999999989,
      "v": 100
    },
    {
      "midi": 71,
      "hit": false,
      "t": 57176.44199999993,
      "d": 352.9409999999989,
      "v": 100
    },
    {
      "midi": 64,
      "hit": false,
      "t": 57176.44199999993,
      "d": 352.9409999999989,
      "v": 100
    },
    {
      "midi": 72,
      "hit": false,
      "t": 57529.38299999993,
      "d": 352.9409999999989,
      "v": 100
    },
    {
      "midi": 65,
      "hit": false,
      "t": 57529.38299999993,
      "d": 352.9409999999989,
      "v": 100
    },
    {
      "midi": 69,
      "hit": false,
      "t": 57705.85350000007,
      "d": 176.47050000000309,
      "v": 100
    },
    {
      "midi": 64,
      "hit": false,
      "t": 57882.32399999993,
      "d": 705.8819999999978,
      "v": 100
    },
    {
      "midi": 71,
      "hit": false,
      "t": 57882.32399999993,
      "d": 999.9994999999981,
      "v": 100
    },
    {
      "midi": 69,
      "hit": false,
      "t": 57882.32400000007,
      "d": 176.47050000000309,
      "v": 100
    },
    {
      "midi": 69,
      "hit": false,
      "t": 58588.20600000008,
      "d": 176.47050000000309,
      "v": 100
    },
    {
      "midi": 67,
      "hit": false,
      "t": 58941.146999999924,
      "d": 352.9409999999989,
      "v": 100
    },
    {
      "midi": 60,
      "hit": false,
      "t": 58941.146999999924,
      "d": 352.9409999999989,
      "v": 100
    },
    {
      "midi": 72,
      "hit": false,
      "t": 59294.08799999992,
      "d": 705.8819999999978,
      "v": 100
    },
    {
      "midi": 69,
      "hit": false,
      "t": 59294.08799999992,
      "d": 705.8819999999978,
      "v": 100
    },
    {
      "midi": 48,
      "hit": false,
      "t": 59294.08799999998,
      "d": 2823.5280000000057,
      "v": 100
    },
    {
      "midi": 45,
      "hit": false,
      "t": 59294.08799999998,
      "d": 2823.5280000000057,
      "v": 100
    },
    {
      "midi": 71,
      "hit": false,
      "t": 59999.96999999992,
      "d": 705.8819999999978,
      "v": 100
    },
    {
      "midi": 67,
      "hit": false,
      "t": 59999.96999999992,
      "d": 705.8819999999978,
      "v": 100
    },
    {
      "midi": 64,
      "hit": false,
      "t": 60705.85199999992,
      "d": 705.8819999999978,
      "v": 100
    },
    {
      "midi": 59,
      "hit": false,
      "t": 60705.85199999992,
      "d": 705.8819999999978,
      "v": 100
    },
    {
      "midi": 40,
      "hit": false,
      "t": 60705.851999999984,
      "d": 2823.5280000000057,
      "v": 100
    },
    {
      "midi": 72,
      "hit": false,
      "t": 60705.85200000008,
      "d": 176.47050000000309,
      "v": 100
    },
    {
      "midi": 71,
      "hit": false,
      "t": 60882.32250000008,
      "d": 176.47050000000309,
      "v": 100
    },
    {
      "midi": 69,
      "hit": false,
      "t": 61058.793000000085,
      "d": 176.47050000000309,
      "v": 100
    },
    {
      "midi": 67,
      "hit": false,
      "t": 61235.26350000009,
      "d": 176.47050000000309,
      "v": 100
    },
    {
      "midi": 65,
      "hit": false,
      "t": 61411.73400000009,
      "d": 176.47050000000309,
      "v": 100
    },
    {
      "midi": 64,
      "hit": false,
      "t": 61588.204500000094,
      "d": 176.47050000000309,
      "v": 100
    },
    {
      "midi": 64,
      "hit": false,
      "t": 61764.674999999916,
      "d": 352.9409999999989,
      "v": 100
    },
    {
      "midi": 59,
      "hit": false,
      "t": 61764.674999999916,
      "d": 352.9409999999989,
      "v": 100
    },
    {
      "midi": 62,
      "hit": false,
      "t": 61764.6750000001,
      "d": 176.47050000000309,
      "v": 100
    },
    {
      "midi": 60,
      "hit": false,
      "t": 61941.1455000001,
      "d": 176.47050000000309,
      "v": 100
    },
    {
      "midi": 69,
      "hit": false,
      "t": 62117.615999999914,
      "d": 705.8819999999978,
      "v": 100
    },
    {
      "midi": 60,
      "hit": false,
      "t": 62117.615999999914,
      "d": 705.8819999999978,
      "v": 100
    },
    {
      "midi": 45,
      "hit": false,
      "t": 62117.61599999999,
      "d": 1411.7640000000029,
      "v": 100
    },
    {
      "midi": 67,
      "hit": false,
      "t": 62823.49799999991,
      "d": 352.9409999999989,
      "v": 100
    },
    {
      "midi": 62,
      "hit": false,
      "t": 62823.49799999991,
      "d": 352.9409999999989,
      "v": 100
    },
    {
      "midi": 65,
      "hit": false,
      "t": 63176.43899999991,
      "d": 352.9409999999989,
      "v": 100
    },
    {
      "midi": 60,
      "hit": false,
      "t": 63176.43899999991,
      "d": 352.9409999999989,
      "v": 100
    },
    {
      "midi": 62,
      "hit": false,
      "t": 63529.37999999991,
      "d": 1411.7640000000029,
      "v": 100
    },
    {
      "midi": 67,
      "hit": false,
      "t": 63529.37999999991,
      "d": 1999.9990000000034,
      "v": 100
    },
    {
      "midi": 60,
      "hit": false,
      "t": 63529.38000000011,
      "d": 176.47050000000309,
      "v": 100
    },
    {
      "midi": 62,
      "hit": false,
      "t": 63705.85050000011,
      "d": 176.47050000000309,
      "v": 100
    },
    {
      "midi": 41,
      "hit": false,
      "t": 63882.32099999999,
      "d": 176.47050000000309,
      "v": 100
    },
    {
      "midi": 64,
      "hit": false,
      "t": 63882.32100000011,
      "d": 176.47050000000309,
      "v": 100
    },
    {
      "midi": 62,
      "hit": false,
      "t": 64058.791500000116,
      "d": 176.47050000000309,
      "v": 100
    },
    {
      "midi": 41,
      "hit": false,
      "t": 64235.261999999995,
      "d": 176.47050000000309,
      "v": 100
    },
    {
      "midi": 60,
      "hit": false,
      "t": 64235.26200000012,
      "d": 176.47050000000309,
      "v": 100
    },
    {
      "midi": 62,
      "hit": false,
      "t": 64411.73250000012,
      "d": 176.47050000000309,
      "v": 100
    },
    {
      "midi": 41,
      "hit": false,
      "t": 64588.203,
      "d": 176.47050000000309,
      "v": 100
    },
    {
      "midi": 64,
      "hit": false,
      "t": 64588.203000000125,
      "d": 176.47050000000309,
      "v": 100
    },
    {
      "midi": 65,
      "hit": false,
      "t": 64764.67350000013,
      "d": 176.47050000000309,
      "v": 100
    },
    {
      "midi": 41,
      "hit": false,
      "t": 64941.14400000001,
      "d": 705.8820000000051,
      "v": 100
    },
    {
      "midi": 67,
      "hit": false,
      "t": 64941.14400000013,
      "d": 705.8819999999978,
      "v": 100
    },
    {
      "midi": 64,
      "hit": false,
      "t": 65647.02599999991,
      "d": 352.94100000000617,
      "v": 100
    },
    {
      "midi": 57,
      "hit": false,
      "t": 65647.02599999991,
      "d": 352.94100000000617,
      "v": 100
    },
    {
      "midi": 64,
      "hit": false,
      "t": 65647.02600000013,
      "d": 176.4704999999958,
      "v": 100
    },
    {
      "midi": 67,
      "hit": false,
      "t": 65999.96699999992,
      "d": 352.94100000000617,
      "v": 100
    },
    {
      "midi": 59,
      "hit": false,
      "t": 65999.96699999992,
      "d": 352.94100000000617,
      "v": 100
    },
    {
      "midi": 67,
      "hit": false,
      "t": 65999.96700000012,
      "d": 176.4704999999958,
      "v": 100
    },
    {
      "midi": 69,
      "hit": false,
      "t": 66352.90799999992,
      "d": 705.8819999999978,
      "v": 100
    },
    {
      "midi": 60,
      "hit": false,
      "t": 66352.90799999992,
      "d": 705.8819999999978,
      "v": 100
    },
    {
      "midi": 38,
      "hit": false,
      "t": 66352.90800000001,
      "d": 1411.7639999999956,
      "v": 100
    },
    {
      "midi": 69,
      "hit": false,
      "t": 66352.90800000011,
      "d": 176.4704999999958,
      "v": 100
    },
    {
      "midi": 72,
      "hit": false,
      "t": 67058.78999999992,
      "d": 705.8819999999978,
      "v": 100
    },
    {
      "midi": 65,
      "hit": false,
      "t": 67058.78999999992,
      "d": 705.8819999999978,
      "v": 100
    },
    {
      "midi": 72,
      "hit": false,
      "t": 67058.79000000011,
      "d": 176.4704999999958,
      "v": 100
    },
    {
      "midi": 71,
      "hit": false,
      "t": 67764.67199999992,
      "d": 352.94100000000617,
      "v": 100
    },
    {
      "midi": 64,
      "hit": false,
      "t": 67764.67199999992,
      "d": 352.94100000000617,
      "v": 100
    },
    {
      "midi": 40,
      "hit": false,
      "t": 67764.672,
      "d": 2823.5280000000203,
      "v": 100
    },
    {
      "midi": 71,
      "hit": false,
      "t": 67764.67200000011,
      "d": 176.4704999999958,
      "v": 100
    },
    {
      "midi": 64,
      "hit": false,
      "t": 68117.61299999992,
      "d": 705.8819999999978,
      "v": 100
    },
    {
      "midi": 60,
      "hit": false,
      "t": 68117.61299999992,
      "d": 705.8819999999978,
      "v": 100
    },
    {
      "midi": 64,
      "hit": false,
      "t": 68117.6130000001,
      "d": 705.8819999999978,
      "v": 100
    },
    {
      "midi": 67,
      "hit": false,
      "t": 68823.49499999992,
      "d": 352.94100000000617,
      "v": 100
    },
    {
      "midi": 67,
      "hit": false,
      "t": 68823.4950000001,
      "d": 176.4704999999958,
      "v": 100
    },
    {
      "midi": 62,
      "hit": false,
      "t": 69176.43599999993,
      "d": 1411.7639999999956,
      "v": 100
    },
    {
      "midi": 69,
      "hit": false,
      "t": 69176.43599999993,
      "d": 1705.8814999999886,
      "v": 100
    },
    {
      "midi": 69,
      "hit": false,
      "t": 69176.43600000009,
      "d": 1411.7639999999956,
      "v": 100
    },
    {
      "midi": 62,
      "hit": false,
      "t": 69529.37700000001,
      "d": 352.94100000000617,
      "v": 100
    },
    {
      "midi": 60,
      "hit": false,
      "t": 69882.31800000001,
      "d": 352.94100000000617,
      "v": 100
    },
    {
      "midi": 59,
      "hit": false,
      "t": 70235.25900000002,
      "d": 352.94100000000617,
      "v": 100
    },
    {
      "midi": 60,
      "hit": false,
      "t": 70588.20000000003,
      "d": 705.8819999999978,
      "v": 100
    },
    {
      "midi": 64,
      "hit": false,
      "t": 71294.08199999992,
      "d": 352.94100000000617,
      "v": 100
    },
    {
      "midi": 57,
      "hit": false,
      "t": 71294.08199999992,
      "d": 352.94100000000617,
      "v": 100
    },
    {
      "midi": 64,
      "hit": false,
      "t": 71294.08200000008,
      "d": 176.4704999999958,
      "v": 100
    },
    {
      "midi": 67,
      "hit": false,
      "t": 71647.02299999993,
      "d": 352.94100000000617,
      "v": 100
    },
    {
      "midi": 59,
      "hit": false,
      "t": 71647.02299999993,
      "d": 352.94100000000617,
      "v": 100
    },
    {
      "midi": 67,
      "hit": false,
      "t": 71647.02300000007,
      "d": 176.4704999999958,
      "v": 100
    },
    {
      "midi": 69,
      "hit": false,
      "t": 71999.96399999993,
      "d": 705.8819999999978,
      "v": 100
    },
    {
      "midi": 60,
      "hit": false,
      "t": 71999.96399999993,
      "d": 705.8819999999978,
      "v": 100
    },
    {
      "midi": 38,
      "hit": false,
      "t": 71999.96400000002,
      "d": 1411.7639999999956,
      "v": 100
    },
    {
      "midi": 69,
      "hit": false,
      "t": 71999.96400000007,
      "d": 176.4704999999958,
      "v": 100
    },
    {
      "midi": 72,
      "hit": false,
      "t": 72705.84599999993,
      "d": 705.8819999999978,
      "v": 100
    },
    {
      "midi": 65,
      "hit": false,
      "t": 72705.84599999993,
      "d": 705.8819999999978,
      "v": 100
    },
    {
      "midi": 72,
      "hit": false,
      "t": 72705.84600000006,
      "d": 176.4704999999958,
      "v": 100
    },
    {
      "midi": 71,
      "hit": false,
      "t": 73411.72799999993,
      "d": 352.94100000000617,
      "v": 100
    },
    {
      "midi": 64,
      "hit": false,
      "t": 73411.72799999993,
      "d": 352.94100000000617,
      "v": 100
    },
    {
      "midi": 40,
      "hit": false,
      "t": 73411.72800000002,
      "d": 2823.5280000000203,
      "v": 100
    },
    {
      "midi": 71,
      "hit": false,
      "t": 73411.72800000006,
      "d": 176.4704999999958,
      "v": 100
    },
    {
      "midi": 64,
      "hit": false,
      "t": 73764.66899999994,
      "d": 705.8819999999978,
      "v": 100
    },
    {
      "midi": 60,
      "hit": false,
      "t": 73764.66899999994,
      "d": 705.8819999999978,
      "v": 100
    },
    {
      "midi": 64,
      "hit": false,
      "t": 73764.66900000005,
      "d": 705.8819999999978,
      "v": 100
    },
    {
      "midi": 67,
      "hit": false,
      "t": 74470.55099999993,
      "d": 352.94100000000617,
      "v": 100
    },
    {
      "midi": 60,
      "hit": false,
      "t": 74470.55099999993,
      "d": 352.94100000000617,
      "v": 100
    },
    {
      "midi": 67,
      "hit": false,
      "t": 74470.55100000005,
      "d": 176.4704999999958,
      "v": 100
    },
    {
      "midi": 69,
      "hit": false,
      "t": 74823.49199999994,
      "d": 4235.292000000001,
      "v": 100
    },
    {
      "midi": 57,
      "hit": false,
      "t": 74823.49199999994,
      "d": 4235.292000000001,
      "v": 100
    },
    {
      "midi": 69,
      "hit": false,
      "t": 74823.49200000004,
      "d": 1411.7639999999956,
      "v": 100
    },
    {
      "midi": 62,
      "hit": false,
      "t": 75176.43300000002,
      "d": 352.94100000000617,
      "v": 100
    },
    {
      "midi": 57,
      "hit": false,
      "t": 75529.374,
      "d": 176.4704999999958,
      "v": 100
    },
    {
      "midi": 60,
      "hit": false,
      "t": 75529.37400000003,
      "d": 352.94100000000617,
      "v": 100
    },
    {
      "midi": 57,
      "hit": false,
      "t": 75882.31499999999,
      "d": 176.4704999999958,
      "v": 100
    },
    {
      "midi": 59,
      "hit": false,
      "t": 75882.31500000003,
      "d": 352.94100000000617,
      "v": 100
    },
    {
      "midi": 57,
      "hit": false,
      "t": 76235.25599999998,
      "d": 176.4704999999958,
      "v": 100
    },
    {
      "midi": 45,
      "hit": false,
      "t": 76235.256,
      "d": 2823.5280000000057,
      "v": 100
    },
    {
      "midi": 57,
      "hit": false,
      "t": 76235.25600000004,
      "d": 1411.7639999999956,
      "v": 100
    },
    {
      "midi": 60,
      "hit": false,
      "t": 76235.25600000004,
      "d": 176.4704999999958,
      "v": 100
    },
    {
      "midi": 62,
      "hit": false,
      "t": 76411.72650000003,
      "d": 176.4704999999958,
      "v": 100
    },
    {
      "midi": 57,
      "hit": false,
      "t": 76588.19699999997,
      "d": 176.4704999999958,
      "v": 100
    },
    {
      "midi": 64,
      "hit": false,
      "t": 76588.19700000003,
      "d": 176.4704999999958,
      "v": 100
    },
    {
      "midi": 62,
      "hit": false,
      "t": 76764.66750000003,
      "d": 176.4704999999958,
      "v": 100
    },
    {
      "midi": 53,
      "hit": false,
      "t": 76941.13799999996,
      "d": 176.4704999999958,
      "v": 100
    },
    {
      "midi": 57,
      "hit": false,
      "t": 76941.13799999996,
      "d": 176.4704999999958,
      "v": 100
    },
    {
      "midi": 60,
      "hit": false,
      "t": 76941.13800000002,
      "d": 176.4704999999958,
      "v": 100
    },
    {
      "midi": 62,
      "hit": false,
      "t": 77117.60850000002,
      "d": 176.4704999999958,
      "v": 100
    },
    {
      "midi": 53,
      "hit": false,
      "t": 77294.07899999995,
      "d": 176.4704999999958,
      "v": 100
    },
    {
      "midi": 57,
      "hit": false,
      "t": 77294.07899999995,
      "d": 176.4704999999958,
      "v": 100
    },
    {
      "midi": 64,
      "hit": false,
      "t": 77294.07900000001,
      "d": 176.4704999999958,
      "v": 100
    },
    {
      "midi": 65,
      "hit": false,
      "t": 77470.54950000001,
      "d": 176.4704999999958,
      "v": 100
    },
    {
      "midi": 53,
      "hit": false,
      "t": 77647.01999999995,
      "d": 176.4704999999958,
      "v": 100
    },
    {
      "midi": 64,
      "hit": false,
      "t": 77647.01999999995,
      "d": 176.4704999999958,
      "v": 100
    },
    {
      "midi": 57,
      "hit": false,
      "t": 77647.01999999995,
      "d": 176.4704999999958,
      "v": 100
    },
    {
      "midi": 67,
      "hit": false,
      "t": 77647.02,
      "d": 176.4704999999958,
      "v": 100
    },
    {
      "midi": 65,
      "hit": false,
      "t": 77647.02000000002,
      "d": 1411.7639999999956,
      "v": 100
    },
    {
      "midi": 65,
      "hit": false,
      "t": 77823.4905,
      "d": 176.4704999999958,
      "v": 100
    },
    {
      "midi": 53,
      "hit": false,
      "t": 77999.96099999994,
      "d": 176.4704999999958,
      "v": 100
    },
    {
      "midi": 64,
      "hit": false,
      "t": 77999.96099999994,
      "d": 176.4704999999958,
      "v": 100
    },
    {
      "midi": 57,
      "hit": false,
      "t": 77999.96099999994,
      "d": 176.4704999999958,
      "v": 100
    },
    {
      "midi": 60,
      "hit": false,
      "t": 77999.961,
      "d": 176.4704999999958,
      "v": 100
    },
    {
      "midi": 62,
      "hit": false,
      "t": 78176.43149999999,
      "d": 176.4704999999958,
      "v": 100
    },
    {
      "midi": 53,
      "hit": false,
      "t": 78352.90199999993,
      "d": 176.4704999999958,
      "v": 100
    },
    {
      "midi": 64,
      "hit": false,
      "t": 78352.90199999993,
      "d": 176.4704999999958,
      "v": 100
    },
    {
      "midi": 57,
      "hit": false,
      "t": 78352.90199999993,
      "d": 176.4704999999958,
      "v": 100
    },
    {
      "midi": 64,
      "hit": false,
      "t": 78352.90199999999,
      "d": 176.4704999999958,
      "v": 100
    },
    {
      "midi": 65,
      "hit": false,
      "t": 78529.37249999998,
      "d": 176.4704999999958,
      "v": 100
    },
    {
      "midi": 53,
      "hit": false,
      "t": 78705.84299999992,
      "d": 176.4704999999958,
      "v": 100
    },
    {
      "midi": 64,
      "hit": false,
      "t": 78705.84299999992,
      "d": 176.4704999999958,
      "v": 100
    },
    {
      "midi": 57,
      "hit": false,
      "t": 78705.84299999992,
      "d": 176.4704999999958,
      "v": 100
    },
    {
      "midi": 67,
      "hit": false,
      "t": 78705.84299999998,
      "d": 176.4704999999958,
      "v": 100
    },
    {
      "midi": 69,
      "hit": false,
      "t": 78882.31349999997,
      "d": 176.4704999999958,
      "v": 100
    },
    {
      "midi": 64,
      "hit": false,
      "t": 79058.78399999991,
      "d": 176.4704999999958,
      "v": 100
    },
    {
      "midi": 53,
      "hit": false,
      "t": 79058.78399999991,
      "d": 176.4704999999958,
      "v": 100
    },
    {
      "midi": 57,
      "hit": false,
      "t": 79058.78399999991,
      "d": 176.4704999999958,
      "v": 100
    },
    {
      "midi": 57,
      "hit": false,
      "t": 79058.78399999997,
      "d": 176.4704999999958,
      "v": 100
    },
    {
      "midi": 53,
      "hit": false,
      "t": 79058.78399999997,
      "d": 176.4704999999958,
      "v": 100
    },
    {
      "midi": 47,
      "hit": false,
      "t": 79058.784,
      "d": 2823.5280000000057,
      "v": 100
    },
    {
      "midi": 59,
      "hit": false,
      "t": 79235.25449999997,
      "d": 176.4704999999958,
      "v": 100
    },
    {
      "midi": 55,
      "hit": false,
      "t": 79235.25449999997,
      "d": 176.4704999999958,
      "v": 100
    },
    {
      "midi": 53,
      "hit": false,
      "t": 79411.7249999999,
      "d": 176.4704999999958,
      "v": 100
    },
    {
      "midi": 64,
      "hit": false,
      "t": 79411.7249999999,
      "d": 176.4704999999958,
      "v": 100
    },
    {
      "midi": 57,
      "hit": false,
      "t": 79411.7249999999,
      "d": 176.4704999999958,
      "v": 100
    },
    {
      "midi": 60,
      "hit": false,
      "t": 79411.72499999996,
      "d": 176.4704999999958,
      "v": 100
    },
    {
      "midi": 57,
      "hit": false,
      "t": 79411.72499999996,
      "d": 176.4704999999958,
      "v": 100
    },
    {
      "midi": 62,
      "hit": false,
      "t": 79588.19549999996,
      "d": 176.4704999999958,
      "v": 100
    },
    {
      "midi": 59,
      "hit": false,
      "t": 79588.19549999996,
      "d": 176.4704999999958,
      "v": 100
    },
    {
      "midi": 53,
      "hit": false,
      "t": 79764.6659999999,
      "d": 176.4704999999958,
      "v": 100
    },
    {
      "midi": 64,
      "hit": false,
      "t": 79764.6659999999,
      "d": 176.4704999999958,
      "v": 100
    },
    {
      "midi": 57,
      "hit": false,
      "t": 79764.6659999999,
      "d": 176.4704999999958,
      "v": 100
    },
    {
      "midi": 64,
      "hit": false,
      "t": 79764.66599999995,
      "d": 176.4704999999958,
      "v": 100
    },
    {
      "midi": 60,
      "hit": false,
      "t": 79764.66599999995,
      "d": 176.4704999999958,
      "v": 100
    },
    {
      "midi": 65,
      "hit": false,
      "t": 79941.13649999995,
      "d": 176.4704999999958,
      "v": 100
    },
    {
      "midi": 62,
      "hit": false,
      "t": 79941.13649999995,
      "d": 176.4704999999958,
      "v": 100
    },
    {
      "midi": 53,
      "hit": false,
      "t": 80117.60699999989,
      "d": 176.4704999999958,
      "v": 100
    },
    {
      "midi": 64,
      "hit": false,
      "t": 80117.60699999989,
      "d": 176.4704999999958,
      "v": 100
    },
    {
      "midi": 57,
      "hit": false,
      "t": 80117.60699999989,
      "d": 176.4704999999958,
      "v": 100
    },
    {
      "midi": 67,
      "hit": false,
      "t": 80117.60699999995,
      "d": 176.4704999999958,
      "v": 100
    },
    {
      "midi": 64,
      "hit": false,
      "t": 80117.60699999995,
      "d": 176.4704999999958,
      "v": 100
    },
    {
      "midi": 69,
      "hit": false,
      "t": 80294.07749999994,
      "d": 176.4704999999958,
      "v": 100
    },
    {
      "midi": 65,
      "hit": false,
      "t": 80294.07749999994,
      "d": 176.4704999999958,
      "v": 100
    },
    {
      "midi": 53,
      "hit": false,
      "t": 80470.54799999988,
      "d": 176.4704999999958,
      "v": 100
    },
    {
      "midi": 64,
      "hit": false,
      "t": 80470.54799999988,
      "d": 176.4704999999958,
      "v": 100
    },
    {
      "midi": 57,
      "hit": false,
      "t": 80470.54799999988,
      "d": 176.4704999999958,
      "v": 100
    },
    {
      "midi": 71,
      "hit": false,
      "t": 80470.54799999994,
      "d": 176.4704999999958,
      "v": 100
    },
    {
      "midi": 67,
      "hit": false,
      "t": 80470.54799999994,
      "d": 176.4704999999958,
      "v": 100
    },
    {
      "midi": 67,
      "hit": false,
      "t": 80470.54800000001,
      "d": 1411.7639999999956,
      "v": 100
    },
    {
      "midi": 65,
      "hit": false,
      "t": 80647.01849999993,
      "d": 176.4704999999958,
      "v": 100
    },
    {
      "midi": 62,
      "hit": false,
      "t": 80647.01849999993,
      "d": 176.4704999999958,
      "v": 100
    },
    {
      "midi": 59,
      "hit": false,
      "t": 80647.01849999993,
      "d": 176.4704999999958,
      "v": 100
    },
    {
      "midi": 53,
      "hit": false,
      "t": 80823.48899999987,
      "d": 176.4704999999958,
      "v": 100
    },
    {
      "midi": 64,
      "hit": false,
      "t": 80823.48899999987,
      "d": 176.4704999999958,
      "v": 100
    },
    {
      "midi": 57,
      "hit": false,
      "t": 80823.48899999987,
      "d": 176.4704999999958,
      "v": 100
    },
    {
      "midi": 67,
      "hit": false,
      "t": 80823.48899999993,
      "d": 176.4704999999958,
      "v": 100
    },
    {
      "midi": 64,
      "hit": false,
      "t": 80823.48899999993,
      "d": 176.4704999999958,
      "v": 100
    },
    {
      "midi": 60,
      "hit": false,
      "t": 80823.48899999993,
      "d": 176.4704999999958,
      "v": 100
    },
    {
      "midi": 69,
      "hit": false,
      "t": 80999.95949999992,
      "d": 176.4704999999958,
      "v": 100
    },
    {
      "midi": 65,
      "hit": false,
      "t": 80999.95949999992,
      "d": 176.4704999999958,
      "v": 100
    },
    {
      "midi": 62,
      "hit": false,
      "t": 80999.95949999992,
      "d": 176.4704999999958,
      "v": 100
    },
    {
      "midi": 53,
      "hit": false,
      "t": 81176.42999999986,
      "d": 176.4704999999958,
      "v": 100
    },
    {
      "midi": 64,
      "hit": false,
      "t": 81176.42999999986,
      "d": 176.4704999999958,
      "v": 100
    },
    {
      "midi": 57,
      "hit": false,
      "t": 81176.42999999986,
      "d": 176.4704999999958,
      "v": 100
    },
    {
      "midi": 71,
      "hit": false,
      "t": 81176.42999999992,
      "d": 176.4704999999958,
      "v": 100
    },
    {
      "midi": 67,
      "hit": false,
      "t": 81176.42999999992,
      "d": 176.4704999999958,
      "v": 100
    },
    {
      "midi": 64,
      "hit": false,
      "t": 81176.42999999992,
      "d": 176.4704999999958,
      "v": 100
    },
    {
      "midi": 41,
      "hit": false,
      "t": 81176.43000000004,
      "d": 352.94100000000617,
      "v": 100
    },
    {
      "midi": 38,
      "hit": false,
      "t": 81176.43000000004,
      "d": 352.94100000000617,
      "v": 100
    },
    {
      "midi": 72,
      "hit": false,
      "t": 81352.90049999992,
      "d": 176.4704999999958,
      "v": 100
    },
    {
      "midi": 69,
      "hit": false,
      "t": 81352.90049999992,
      "d": 176.4704999999958,
      "v": 100
    },
    {
      "midi": 65,
      "hit": false,
      "t": 81352.90049999992,
      "d": 176.4704999999958,
      "v": 100
    },
    {
      "midi": 53,
      "hit": false,
      "t": 81529.37099999985,
      "d": 176.4704999999958,
      "v": 100
    },
    {
      "midi": 64,
      "hit": false,
      "t": 81529.37099999985,
      "d": 176.4704999999958,
      "v": 100
    },
    {
      "midi": 57,
      "hit": false,
      "t": 81529.37099999985,
      "d": 176.4704999999958,
      "v": 100
    },
    {
      "midi": 74,
      "hit": false,
      "t": 81529.37099999991,
      "d": 176.4704999999958,
      "v": 100
    },
    {
      "midi": 71,
      "hit": false,
      "t": 81529.37099999991,
      "d": 176.4704999999958,
      "v": 100
    },
    {
      "midi": 67,
      "hit": false,
      "t": 81529.37099999991,
      "d": 176.4704999999958,
      "v": 100
    },
    {
      "midi": 45,
      "hit": false,
      "t": 81529.37100000004,
      "d": 352.94100000000617,
      "v": 100
    },
    {
      "midi": 41,
      "hit": false,
      "t": 81529.37100000004,
      "d": 352.94100000000617,
      "v": 100
    },
    {
      "midi": 76,
      "hit": false,
      "t": 81705.84149999991,
      "d": 176.4704999999958,
      "v": 100
    },
    {
      "midi": 72,
      "hit": false,
      "t": 81705.84149999991,
      "d": 176.4704999999958,
      "v": 100
    },
    {
      "midi": 69,
      "hit": false,
      "t": 81705.84149999991,
      "d": 176.4704999999958,
      "v": 100
    },
    {
      "midi": 64,
      "hit": false,
      "t": 81882.31199999985,
      "d": 176.4704999999958,
      "v": 100
    },
    {
      "midi": 53,
      "hit": false,
      "t": 81882.31199999985,
      "d": 176.4704999999958,
      "v": 100
    },
    {
      "midi": 57,
      "hit": false,
      "t": 81882.31199999985,
      "d": 176.4704999999958,
      "v": 100
    },
    {
      "midi": 69,
      "hit": false,
      "t": 81882.31199999995,
      "d": 352.94100000000617,
      "v": 100
    },
    {
      "midi": 57,
      "hit": false,
      "t": 81882.31199999995,
      "d": 352.94100000000617,
      "v": 100
    },
    {
      "midi": 48,
      "hit": false,
      "t": 81882.31200000005,
      "d": 2823.5280000000057,
      "v": 100
    },
    {
      "midi": 45,
      "hit": false,
      "t": 81882.31200000005,
      "d": 2823.5280000000057,
      "v": 100
    },
    {
      "midi": 53,
      "hit": false,
      "t": 82235.25299999984,
      "d": 176.4704999999958,
      "v": 100
    },
    {
      "midi": 64,
      "hit": false,
      "t": 82235.25299999984,
      "d": 176.4704999999958,
      "v": 100
    },
    {
      "midi": 57,
      "hit": false,
      "t": 82235.25299999984,
      "d": 176.4704999999958,
      "v": 100
    },
    {
      "midi": 69,
      "hit": false,
      "t": 82235.25299999995,
      "d": 352.94100000000617,
      "v": 100
    },
    {
      "midi": 57,
      "hit": false,
      "t": 82235.25299999995,
      "d": 352.94100000000617,
      "v": 100
    },
    {
      "midi": 53,
      "hit": false,
      "t": 82588.19399999983,
      "d": 176.4704999999958,
      "v": 100
    },
    {
      "midi": 64,
      "hit": false,
      "t": 82588.19399999983,
      "d": 176.4704999999958,
      "v": 100
    },
    {
      "midi": 57,
      "hit": false,
      "t": 82588.19399999983,
      "d": 176.4704999999958,
      "v": 100
    },
    {
      "midi": 69,
      "hit": false,
      "t": 82588.19399999996,
      "d": 352.94100000000617,
      "v": 100
    },
    {
      "midi": 57,
      "hit": false,
      "t": 82588.19399999996,
      "d": 352.94100000000617,
      "v": 100
    },
    {
      "midi": 53,
      "hit": false,
      "t": 82941.13499999982,
      "d": 176.4704999999958,
      "v": 100
    },
    {
      "midi": 64,
      "hit": false,
      "t": 82941.13499999982,
      "d": 176.4704999999958,
      "v": 100
    },
    {
      "midi": 57,
      "hit": false,
      "t": 82941.13499999982,
      "d": 176.4704999999958,
      "v": 100
    },
    {
      "midi": 71,
      "hit": false,
      "t": 82941.13499999997,
      "d": 352.94100000000617,
      "v": 100
    },
    {
      "midi": 59,
      "hit": false,
      "t": 82941.13499999997,
      "d": 352.94100000000617,
      "v": 100
    },
    {
      "midi": 53,
      "hit": false,
      "t": 83294.07599999981,
      "d": 176.4704999999958,
      "v": 100
    },
    {
      "midi": 64,
      "hit": false,
      "t": 83294.07599999981,
      "d": 176.4704999999958,
      "v": 100
    },
    {
      "midi": 57,
      "hit": false,
      "t": 83294.07599999981,
      "d": 176.4704999999958,
      "v": 100
    },
    {
      "midi": 69,
      "hit": false,
      "t": 83294.0759999999,
      "d": 705.8819999999978,
      "v": 100
    },
    {
      "midi": 57,
      "hit": false,
      "t": 83294.07599999997,
      "d": 352.94100000000617,
      "v": 100
    },
    {
      "midi": 53,
      "hit": false,
      "t": 83647.0169999998,
      "d": 176.4704999999958,
      "v": 100
    },
    {
      "midi": 64,
      "hit": false,
      "t": 83647.0169999998,
      "d": 176.4704999999958,
      "v": 100
    },
    {
      "midi": 57,
      "hit": false,
      "t": 83647.0169999998,
      "d": 176.4704999999958,
      "v": 100
    },
    {
      "midi": 53,
      "hit": false,
      "t": 83999.9579999998,
      "d": 176.4704999999958,
      "v": 100
    },
    {
      "midi": 64,
      "hit": false,
      "t": 83999.9579999998,
      "d": 176.4704999999958,
      "v": 100
    },
    {
      "midi": 57,
      "hit": false,
      "t": 83999.9579999998,
      "d": 176.4704999999958,
      "v": 100
    },
    {
      "midi": 69,
      "hit": false,
      "t": 83999.9579999999,
      "d": 705.8819999999978,
      "v": 100
    },
    {
      "midi": 53,
      "hit": false,
      "t": 84352.89899999979,
      "d": 176.4704999999958,
      "v": 100
    },
    {
      "midi": 64,
      "hit": false,
      "t": 84352.89899999979,
      "d": 176.4704999999958,
      "v": 100
    },
    {
      "midi": 57,
      "hit": false,
      "t": 84352.89899999979,
      "d": 176.4704999999958,
      "v": 100
    },
    {
      "midi": 69,
      "hit": false,
      "t": 84352.89899999998,
      "d": 352.94100000000617,
      "v": 100
    },
    {
      "midi": 62,
      "hit": false,
      "t": 84352.89899999998,
      "d": 352.94100000000617,
      "v": 100
    },
    {
      "midi": 64,
      "hit": false,
      "t": 84705.83999999978,
      "d": 176.4704999999958,
      "v": 100
    },
    {
      "midi": 53,
      "hit": false,
      "t": 84705.83999999978,
      "d": 176.4704999999958,
      "v": 100
    },
    {
      "midi": 57,
      "hit": false,
      "t": 84705.83999999978,
      "d": 176.4704999999958,
      "v": 100
    },
    {
      "midi": 72,
      "hit": false,
      "t": 84705.83999999998,
      "d": 705.8819999999978,
      "v": 100
    },
    {
      "midi": 69,
      "hit": false,
      "t": 84705.83999999998,
      "d": 705.8819999999978,
      "v": 100
    },
    {
      "midi": 48,
      "hit": false,
      "t": 84705.84000000005,
      "d": 2823.527999999991,
      "v": 100
    },
    {
      "midi": 53,
      "hit": false,
      "t": 85058.78099999977,
      "d": 176.4704999999958,
      "v": 100
    },
    {
      "midi": 64,
      "hit": false,
      "t": 85058.78099999977,
      "d": 176.4704999999958,
      "v": 100
    },
    {
      "midi": 57,
      "hit": false,
      "t": 85058.78099999977,
      "d": 176.4704999999958,
      "v": 100
    },
    {
      "midi": 53,
      "hit": false,
      "t": 85411.72199999976,
      "d": 176.4704999999958,
      "v": 100
    },
    {
      "midi": 64,
      "hit": false,
      "t": 85411.72199999976,
      "d": 176.4704999999958,
      "v": 100
    },
    {
      "midi": 57,
      "hit": false,
      "t": 85411.72199999976,
      "d": 176.4704999999958,
      "v": 100
    },
    {
      "midi": 71,
      "hit": false,
      "t": 85411.72199999998,
      "d": 705.8819999999978,
      "v": 100
    },
    {
      "midi": 62,
      "hit": false,
      "t": 85411.72199999998,
      "d": 705.8819999999978,
      "v": 100
    },
    {
      "midi": 53,
      "hit": false,
      "t": 85764.66299999975,
      "d": 176.4704999999958,
      "v": 100
    },
    {
      "midi": 64,
      "hit": false,
      "t": 85764.66299999975,
      "d": 176.4704999999958,
      "v": 100
    },
    {
      "midi": 57,
      "hit": false,
      "t": 85764.66299999975,
      "d": 176.4704999999958,
      "v": 100
    },
    {
      "midi": 53,
      "hit": false,
      "t": 86117.60399999974,
      "d": 176.4704999999958,
      "v": 100
    },
    {
      "midi": 64,
      "hit": false,
      "t": 86117.60399999974,
      "d": 176.4704999999958,
      "v": 100
    },
    {
      "midi": 57,
      "hit": false,
      "t": 86117.60399999974,
      "d": 176.4704999999958,
      "v": 100
    },
    {
      "midi": 60,
      "hit": false,
      "t": 86117.60399999998,
      "d": 1294.1169999999984,
      "v": 100
    },
    {
      "midi": 64,
      "hit": false,
      "t": 86117.60399999998,
      "d": 1411.7639999999956,
      "v": 100
    },
    {
      "midi": 36,
      "hit": false,
      "t": 86117.60400000005,
      "d": 2823.527999999991,
      "v": 100
    },
    {
      "midi": 53,
      "hit": false,
      "t": 86470.54499999974,
      "d": 176.4704999999958,
      "v": 100
    },
    {
      "midi": 64,
      "hit": false,
      "t": 86470.54499999974,
      "d": 176.4704999999958,
      "v": 100
    },
    {
      "midi": 57,
      "hit": false,
      "t": 86470.54499999974,
      "d": 176.4704999999958,
      "v": 100
    },
    {
      "midi": 53,
      "hit": false,
      "t": 86823.48599999973,
      "d": 176.4704999999958,
      "v": 100
    },
    {
      "midi": 64,
      "hit": false,
      "t": 86823.48599999973,
      "d": 176.4704999999958,
      "v": 100
    },
    {
      "midi": 57,
      "hit": false,
      "t": 86823.48599999973,
      "d": 176.4704999999958,
      "v": 100
    },
    {
      "midi": 69,
      "hit": false,
      "t": 86823.48599999989,
      "d": 176.4704999999958,
      "v": 100
    },
    {
      "midi": 71,
      "hit": false,
      "t": 86999.95649999988,
      "d": 176.4704999999958,
      "v": 100
    },
    {
      "midi": 53,
      "hit": false,
      "t": 87176.42699999972,
      "d": 176.4704999999958,
      "v": 100
    },
    {
      "midi": 64,
      "hit": false,
      "t": 87176.42699999972,
      "d": 176.4704999999958,
      "v": 100
    },
    {
      "midi": 57,
      "hit": false,
      "t": 87176.42699999972,
      "d": 176.4704999999958,
      "v": 100
    },
    {
      "midi": 69,
      "hit": false,
      "t": 87176.42699999988,
      "d": 176.4704999999958,
      "v": 100
    },
    {
      "midi": 71,
      "hit": false,
      "t": 87352.89749999988,
      "d": 176.4704999999958,
      "v": 100
    },
    {
      "midi": 64,
      "hit": false,
      "t": 87529.36799999971,
      "d": 176.4704999999958,
      "v": 100
    },
    {
      "midi": 57,
      "hit": false,
      "t": 87529.36799999971,
      "d": 176.4704999999958,
      "v": 100
    },
    {
      "midi": 60,
      "hit": false,
      "t": 87529.36799999971,
      "d": 176.4704999999958,
      "v": 100
    },
    {
      "midi": 62,
      "hit": false,
      "t": 87529.36799999997,
      "d": 705.8819999999978,
      "v": 100
    },
    {
      "midi": 59,
      "hit": false,
      "t": 87529.36799999997,
      "d": 705.8819999999978,
      "v": 100
    },
    {
      "midi": 40,
      "hit": false,
      "t": 87529.36800000005,
      "d": 2823.527999999991,
      "v": 100
    },
    {
      "midi": 64,
      "hit": false,
      "t": 87882.3089999997,
      "d": 176.4704999999958,
      "v": 100
    },
    {
      "midi": 57,
      "hit": false,
      "t": 87882.3089999997,
      "d": 176.4704999999958,
      "v": 100
    },
    {
      "midi": 60,
      "hit": false,
      "t": 87882.3089999997,
      "d": 176.4704999999958,
      "v": 100
    },
    {
      "midi": 64,
      "hit": false,
      "t": 88235.2499999997,
      "d": 176.4704999999958,
      "v": 100
    },
    {
      "midi": 57,
      "hit": false,
      "t": 88235.2499999997,
      "d": 176.4704999999958,
      "v": 100
    },
    {
      "midi": 60,
      "hit": false,
      "t": 88235.2499999997,
      "d": 176.4704999999958,
      "v": 100
    },
    {
      "midi": 67,
      "hit": false,
      "t": 88235.24999999997,
      "d": 705.8819999999978,
      "v": 100
    },
    {
      "midi": 60,
      "hit": false,
      "t": 88235.24999999997,
      "d": 705.8819999999978,
      "v": 100
    },
    {
      "midi": 64,
      "hit": false,
      "t": 88588.19099999969,
      "d": 176.4704999999958,
      "v": 100
    },
    {
      "midi": 57,
      "hit": false,
      "t": 88588.19099999969,
      "d": 176.4704999999958,
      "v": 100
    },
    {
      "midi": 60,
      "hit": false,
      "t": 88588.19099999969,
      "d": 176.4704999999958,
      "v": 100
    },
    {
      "midi": 64,
      "hit": false,
      "t": 88941.13199999968,
      "d": 176.4704999999958,
      "v": 100
    },
    {
      "midi": 57,
      "hit": false,
      "t": 88941.13199999968,
      "d": 176.4704999999958,
      "v": 100
    },
    {
      "midi": 60,
      "hit": false,
      "t": 88941.13199999968,
      "d": 176.4704999999958,
      "v": 100
    },
    {
      "midi": 67,
      "hit": false,
      "t": 88941.13199999987,
      "d": 705.8819999999978,
      "v": 100
    },
    {
      "midi": 64,
      "hit": false,
      "t": 88941.13199999997,
      "d": 705.8819999999978,
      "v": 100
    },
    {
      "midi": 59,
      "hit": false,
      "t": 88941.13199999997,
      "d": 705.8819999999978,
      "v": 100
    },
    {
      "midi": 64,
      "hit": false,
      "t": 89294.07299999967,
      "d": 176.4704999999958,
      "v": 100
    },
    {
      "midi": 57,
      "hit": false,
      "t": 89294.07299999967,
      "d": 176.4704999999958,
      "v": 100
    },
    {
      "midi": 60,
      "hit": false,
      "t": 89294.07299999967,
      "d": 176.4704999999958,
      "v": 100
    },
    {
      "midi": 64,
      "hit": false,
      "t": 89647.01399999966,
      "d": 176.4704999999958,
      "v": 100
    },
    {
      "midi": 57,
      "hit": false,
      "t": 89647.01399999966,
      "d": 176.4704999999958,
      "v": 100
    },
    {
      "midi": 60,
      "hit": false,
      "t": 89647.01399999966,
      "d": 176.4704999999958,
      "v": 100
    },
    {
      "midi": 67,
      "hit": false,
      "t": 89647.01399999986,
      "d": 705.8819999999978,
      "v": 100
    },
    {
      "midi": 62,
      "hit": false,
      "t": 89647.01399999997,
      "d": 352.94100000000617,
      "v": 100
    },
    {
      "midi": 57,
      "hit": false,
      "t": 89647.01399999997,
      "d": 352.94100000000617,
      "v": 100
    },
    {
      "midi": 64,
      "hit": false,
      "t": 89999.95499999965,
      "d": 176.4704999999958,
      "v": 100
    },
    {
      "midi": 57,
      "hit": false,
      "t": 89999.95499999965,
      "d": 176.4704999999958,
      "v": 100
    },
    {
      "midi": 60,
      "hit": false,
      "t": 89999.95499999965,
      "d": 176.4704999999958,
      "v": 100
    },
    {
      "midi": 64,
      "hit": false,
      "t": 89999.95499999997,
      "d": 352.94100000000617,
      "v": 100
    },
    {
      "midi": 59,
      "hit": false,
      "t": 89999.95499999997,
      "d": 352.94100000000617,
      "v": 100
    },
    {
      "midi": 64,
      "hit": false,
      "t": 90352.89599999964,
      "d": 176.4704999999958,
      "v": 100
    },
    {
      "midi": 53,
      "hit": false,
      "t": 90352.89599999964,
      "d": 176.4704999999958,
      "v": 100
    },
    {
      "midi": 57,
      "hit": false,
      "t": 90352.89599999964,
      "d": 176.4704999999958,
      "v": 100
    },
    {
      "midi": 71,
      "hit": false,
      "t": 90352.89599999998,
      "d": 352.94100000000617,
      "v": 100
    },
    {
      "midi": 64,
      "hit": false,
      "t": 90352.89599999998,
      "d": 352.94100000000617,
      "v": 100
    },
    {
      "midi": 40,
      "hit": false,
      "t": 90352.89600000004,
      "d": 2823.5280000000057,
      "v": 100
    },
    {
      "midi": 36,
      "hit": false,
      "t": 90352.89600000004,
      "d": 2823.5280000000057,
      "v": 100
    },
    {
      "midi": 53,
      "hit": false,
      "t": 90705.83699999964,
      "d": 176.4704999999958,
      "v": 100
    },
    {
      "midi": 64,
      "hit": false,
      "t": 90705.83699999964,
      "d": 176.4704999999958,
      "v": 100
    },
    {
      "midi": 57,
      "hit": false,
      "t": 90705.83699999964,
      "d": 176.4704999999958,
      "v": 100
    },
    {
      "midi": 71,
      "hit": false,
      "t": 90705.83699999998,
      "d": 352.94100000000617,
      "v": 100
    },
    {
      "midi": 64,
      "hit": false,
      "t": 90705.83699999998,
      "d": 352.94100000000617,
      "v": 100
    },
    {
      "midi": 53,
      "hit": false,
      "t": 91058.77799999963,
      "d": 176.4704999999958,
      "v": 100
    },
    {
      "midi": 64,
      "hit": false,
      "t": 91058.77799999963,
      "d": 176.4704999999958,
      "v": 100
    },
    {
      "midi": 57,
      "hit": false,
      "t": 91058.77799999963,
      "d": 176.4704999999958,
      "v": 100
    },
    {
      "midi": 71,
      "hit": false,
      "t": 91058.77799999999,
      "d": 352.94100000000617,
      "v": 100
    },
    {
      "midi": 64,
      "hit": false,
      "t": 91058.77799999999,
      "d": 352.94100000000617,
      "v": 100
    },
    {
      "midi": 53,
      "hit": false,
      "t": 91411.71899999962,
      "d": 176.4704999999958,
      "v": 100
    },
    {
      "midi": 64,
      "hit": false,
      "t": 91411.71899999962,
      "d": 176.4704999999958,
      "v": 100
    },
    {
      "midi": 57,
      "hit": false,
      "t": 91411.71899999962,
      "d": 176.4704999999958,
      "v": 100
    },
    {
      "midi": 72,
      "hit": false,
      "t": 91411.719,
      "d": 352.94100000000617,
      "v": 100
    },
    {
      "midi": 65,
      "hit": false,
      "t": 91411.719,
      "d": 352.94100000000617,
      "v": 100
    },
    {
      "midi": 69,
      "hit": false,
      "t": 91588.18949999986,
      "d": 176.4704999999958,
      "v": 100
    },
    {
      "midi": 53,
      "hit": false,
      "t": 91764.65999999961,
      "d": 176.4704999999958,
      "v": 100
    },
    {
      "midi": 64,
      "hit": false,
      "t": 91764.65999999961,
      "d": 176.4704999999958,
      "v": 100
    },
    {
      "midi": 57,
      "hit": false,
      "t": 91764.65999999961,
      "d": 176.4704999999958,
      "v": 100
    },
    {
      "midi": 69,
      "hit": false,
      "t": 91764.65999999986,
      "d": 176.4704999999958,
      "v": 100
    },
    {
      "midi": 64,
      "hit": false,
      "t": 91764.66,
      "d": 705.8819999999978,
      "v": 100
    },
    {
      "midi": 71,
      "hit": false,
      "t": 91764.66,
      "d": 999.9994999999908,
      "v": 100
    },
    {
      "midi": 53,
      "hit": false,
      "t": 92117.6009999996,
      "d": 176.4704999999958,
      "v": 100
    },
    {
      "midi": 64,
      "hit": false,
      "t": 92117.6009999996,
      "d": 176.4704999999958,
      "v": 100
    },
    {
      "midi": 57,
      "hit": false,
      "t": 92117.6009999996,
      "d": 176.4704999999958,
      "v": 100
    },
    {
      "midi": 53,
      "hit": false,
      "t": 92470.5419999996,
      "d": 176.4704999999958,
      "v": 100
    },
    {
      "midi": 64,
      "hit": false,
      "t": 92470.5419999996,
      "d": 176.4704999999958,
      "v": 100
    },
    {
      "midi": 57,
      "hit": false,
      "t": 92470.5419999996,
      "d": 176.4704999999958,
      "v": 100
    },
    {
      "midi": 69,
      "hit": false,
      "t": 92470.54199999986,
      "d": 176.4704999999958,
      "v": 100
    },
    {
      "midi": 53,
      "hit": false,
      "t": 92823.48299999959,
      "d": 176.4704999999958,
      "v": 100
    },
    {
      "midi": 64,
      "hit": false,
      "t": 92823.48299999959,
      "d": 176.4704999999958,
      "v": 100
    },
    {
      "midi": 57,
      "hit": false,
      "t": 92823.48299999959,
      "d": 176.4704999999958,
      "v": 100
    },
    {
      "midi": 67,
      "hit": false,
      "t": 92823.483,
      "d": 352.94100000000617,
      "v": 100
    },
    {
      "midi": 60,
      "hit": false,
      "t": 92823.483,
      "d": 352.94100000000617,
      "v": 100
    },
    {
      "midi": 53,
      "hit": false,
      "t": 93176.42399999958,
      "d": 176.4704999999958,
      "v": 100
    },
    {
      "midi": 57,
      "hit": false,
      "t": 93176.42399999958,
      "d": 176.4704999999958,
      "v": 100
    },
    {
      "midi": 60,
      "hit": false,
      "t": 93176.42399999958,
      "d": 176.4704999999958,
      "v": 100
    },
    {
      "midi": 72,
      "hit": false,
      "t": 93176.424,
      "d": 705.8819999999978,
      "v": 100
    },
    {
      "midi": 69,
      "hit": false,
      "t": 93176.424,
      "d": 705.8819999999978,
      "v": 100
    },
    {
      "midi": 45,
      "hit": false,
      "t": 93176.42400000004,
      "d": 2823.5280000000057,
      "v": 100
    },
    {
      "midi": 41,
      "hit": false,
      "t": 93176.42400000004,
      "d": 2823.5280000000057,
      "v": 100
    },
    {
      "midi": 53,
      "hit": false,
      "t": 93529.36499999957,
      "d": 176.4704999999958,
      "v": 100
    },
    {
      "midi": 57,
      "hit": false,
      "t": 93529.36499999957,
      "d": 176.4704999999958,
      "v": 100
    },
    {
      "midi": 60,
      "hit": false,
      "t": 93529.36499999957,
      "d": 176.4704999999958,
      "v": 100
    },
    {
      "midi": 53,
      "hit": false,
      "t": 93882.30599999956,
      "d": 176.4704999999958,
      "v": 100
    },
    {
      "midi": 57,
      "hit": false,
      "t": 93882.30599999956,
      "d": 176.4704999999958,
      "v": 100
    },
    {
      "midi": 60,
      "hit": false,
      "t": 93882.30599999956,
      "d": 176.4704999999958,
      "v": 100
    },
    {
      "midi": 71,
      "hit": false,
      "t": 93882.306,
      "d": 705.8819999999978,
      "v": 100
    },
    {
      "midi": 67,
      "hit": false,
      "t": 93882.306,
      "d": 705.8819999999978,
      "v": 100
    },
    {
      "midi": 53,
      "hit": false,
      "t": 94235.24699999955,
      "d": 176.4704999999958,
      "v": 100
    },
    {
      "midi": 57,
      "hit": false,
      "t": 94235.24699999955,
      "d": 176.4704999999958,
      "v": 100
    },
    {
      "midi": 60,
      "hit": false,
      "t": 94235.24699999955,
      "d": 176.4704999999958,
      "v": 100
    },
    {
      "midi": 53,
      "hit": false,
      "t": 94588.18799999954,
      "d": 176.4704999999958,
      "v": 100
    },
    {
      "midi": 57,
      "hit": false,
      "t": 94588.18799999954,
      "d": 176.4704999999958,
      "v": 100
    },
    {
      "midi": 60,
      "hit": false,
      "t": 94588.18799999954,
      "d": 176.4704999999958,
      "v": 100
    },
    {
      "midi": 72,
      "hit": false,
      "t": 94588.18799999985,
      "d": 176.4704999999958,
      "v": 100
    },
    {
      "midi": 64,
      "hit": false,
      "t": 94588.188,
      "d": 705.8819999999978,
      "v": 100
    },
    {
      "midi": 59,
      "hit": false,
      "t": 94588.188,
      "d": 705.8819999999978,
      "v": 100
    },
    {
      "midi": 71,
      "hit": false,
      "t": 94764.65849999984,
      "d": 176.4704999999958,
      "v": 100
    },
    {
      "midi": 53,
      "hit": false,
      "t": 94941.12899999954,
      "d": 176.4704999999958,
      "v": 100
    },
    {
      "midi": 57,
      "hit": false,
      "t": 94941.12899999954,
      "d": 176.4704999999958,
      "v": 100
    },
    {
      "midi": 60,
      "hit": false,
      "t": 94941.12899999954,
      "d": 176.4704999999958,
      "v": 100
    },
    {
      "midi": 69,
      "hit": false,
      "t": 94941.12899999984,
      "d": 176.4704999999958,
      "v": 100
    },
    {
      "midi": 67,
      "hit": false,
      "t": 95117.59949999984,
      "d": 176.4704999999958,
      "v": 100
    },
    {
      "midi": 53,
      "hit": false,
      "t": 95294.06999999953,
      "d": 176.4704999999958,
      "v": 100
    },
    {
      "midi": 57,
      "hit": false,
      "t": 95294.06999999953,
      "d": 176.4704999999958,
      "v": 100
    },
    {
      "midi": 60,
      "hit": false,
      "t": 95294.06999999953,
      "d": 176.4704999999958,
      "v": 100
    },
    {
      "midi": 65,
      "hit": false,
      "t": 95294.06999999983,
      "d": 176.4704999999958,
      "v": 100
    },
    {
      "midi": 64,
      "hit": false,
      "t": 95470.54049999983,
      "d": 176.4704999999958,
      "v": 100
    },
    {
      "midi": 53,
      "hit": false,
      "t": 95647.01099999952,
      "d": 176.4704999999958,
      "v": 100
    },
    {
      "midi": 57,
      "hit": false,
      "t": 95647.01099999952,
      "d": 176.4704999999958,
      "v": 100
    },
    {
      "midi": 60,
      "hit": false,
      "t": 95647.01099999952,
      "d": 176.4704999999958,
      "v": 100
    },
    {
      "midi": 62,
      "hit": false,
      "t": 95647.01099999982,
      "d": 176.4704999999958,
      "v": 100
    },
    {
      "midi": 64,
      "hit": false,
      "t": 95647.011,
      "d": 352.94100000000617,
      "v": 100
    },
    {
      "midi": 59,
      "hit": false,
      "t": 95647.011,
      "d": 352.94100000000617,
      "v": 100
    },
    {
      "midi": 60,
      "hit": false,
      "t": 95823.48149999982,
      "d": 176.4704999999958,
      "v": 100
    },
    {
      "midi": 64,
      "hit": false,
      "t": 95999.95199999951,
      "d": 176.4704999999958,
      "v": 100
    },
    {
      "midi": 53,
      "hit": false,
      "t": 95999.95199999951,
      "d": 176.4704999999958,
      "v": 100
    },
    {
      "midi": 57,
      "hit": false,
      "t": 95999.95199999951,
      "d": 176.4704999999958,
      "v": 100
    },
    {
      "midi": 69,
      "hit": false,
      "t": 95999.952,
      "d": 705.8819999999978,
      "v": 100
    },
    {
      "midi": 60,
      "hit": false,
      "t": 95999.952,
      "d": 705.8819999999978,
      "v": 100
    },
    {
      "midi": 45,
      "hit": false,
      "t": 95999.95200000005,
      "d": 1411.7639999999956,
      "v": 100
    },
    {
      "midi": 48,
      "hit": false,
      "t": 95999.95200000005,
      "d": 2823.5279999999766,
      "v": 100
    },
    {
      "midi": 53,
      "hit": false,
      "t": 96352.8929999995,
      "d": 176.4704999999958,
      "v": 100
    },
    {
      "midi": 64,
      "hit": false,
      "t": 96352.8929999995,
      "d": 176.4704999999958,
      "v": 100
    },
    {
      "midi": 57,
      "hit": false,
      "t": 96352.8929999995,
      "d": 176.4704999999958,
      "v": 100
    },
    {
      "midi": 53,
      "hit": false,
      "t": 96705.8339999995,
      "d": 176.4704999999958,
      "v": 100
    },
    {
      "midi": 64,
      "hit": false,
      "t": 96705.8339999995,
      "d": 176.4704999999958,
      "v": 100
    },
    {
      "midi": 57,
      "hit": false,
      "t": 96705.8339999995,
      "d": 176.4704999999958,
      "v": 100
    },
    {
      "midi": 67,
      "hit": false,
      "t": 96705.834,
      "d": 352.94100000000617,
      "v": 100
    },
    {
      "midi": 62,
      "hit": false,
      "t": 96705.834,
      "d": 352.94100000000617,
      "v": 100
    },
    {
      "midi": 53,
      "hit": false,
      "t": 97058.77499999948,
      "d": 176.4704999999958,
      "v": 100
    },
    {
      "midi": 64,
      "hit": false,
      "t": 97058.77499999948,
      "d": 176.4704999999958,
      "v": 100
    },
    {
      "midi": 57,
      "hit": false,
      "t": 97058.77499999948,
      "d": 176.4704999999958,
      "v": 100
    },
    {
      "midi": 65,
      "hit": false,
      "t": 97058.77500000001,
      "d": 352.94100000000617,
      "v": 100
    },
    {
      "midi": 60,
      "hit": false,
      "t": 97058.77500000001,
      "d": 352.94100000000617,
      "v": 100
    },
    {
      "midi": 53,
      "hit": false,
      "t": 97411.71599999948,
      "d": 176.4704999999958,
      "v": 100
    },
    {
      "midi": 64,
      "hit": false,
      "t": 97411.71599999948,
      "d": 176.4704999999958,
      "v": 100
    },
    {
      "midi": 57,
      "hit": false,
      "t": 97411.71599999948,
      "d": 176.4704999999958,
      "v": 100
    },
    {
      "midi": 60,
      "hit": false,
      "t": 97411.71599999981,
      "d": 176.4704999999958,
      "v": 100
    },
    {
      "midi": 62,
      "hit": false,
      "t": 97411.71600000001,
      "d": 1411.7639999999956,
      "v": 100
    },
    {
      "midi": 67,
      "hit": false,
      "t": 97411.71600000001,
      "d": 1999.9989999999962,
      "v": 100
    },
    {
      "midi": 62,
      "hit": false,
      "t": 97588.1864999998,
      "d": 176.4704999999958,
      "v": 100
    },
    {
      "midi": 53,
      "hit": false,
      "t": 97764.65699999947,
      "d": 176.4704999999958,
      "v": 100
    },
    {
      "midi": 64,
      "hit": false,
      "t": 97764.65699999947,
      "d": 176.4704999999958,
      "v": 100
    },
    {
      "midi": 57,
      "hit": false,
      "t": 97764.65699999947,
      "d": 176.4704999999958,
      "v": 100
    },
    {
      "midi": 64,
      "hit": false,
      "t": 97764.6569999998,
      "d": 176.4704999999958,
      "v": 100
    },
    {
      "midi": 40,
      "hit": false,
      "t": 97764.65700000005,
      "d": 176.4704999999958,
      "v": 100
    },
    {
      "midi": 62,
      "hit": false,
      "t": 97941.1274999998,
      "d": 176.4704999999958,
      "v": 100
    },
    {
      "midi": 53,
      "hit": false,
      "t": 98117.59799999946,
      "d": 176.4704999999958,
      "v": 100
    },
    {
      "midi": 64,
      "hit": false,
      "t": 98117.59799999946,
      "d": 176.4704999999958,
      "v": 100
    },
    {
      "midi": 57,
      "hit": false,
      "t": 98117.59799999946,
      "d": 176.4704999999958,
      "v": 100
    },
    {
      "midi": 60,
      "hit": false,
      "t": 98117.5979999998,
      "d": 176.4704999999958,
      "v": 100
    },
    {
      "midi": 40,
      "hit": false,
      "t": 98117.59800000004,
      "d": 176.4704999999958,
      "v": 100
    },
    {
      "midi": 62,
      "hit": false,
      "t": 98294.06849999979,
      "d": 176.4704999999958,
      "v": 100
    },
    {
      "midi": 53,
      "hit": false,
      "t": 98470.53899999945,
      "d": 176.4704999999958,
      "v": 100
    },
    {
      "midi": 64,
      "hit": false,
      "t": 98470.53899999945,
      "d": 176.4704999999958,
      "v": 100
    },
    {
      "midi": 57,
      "hit": false,
      "t": 98470.53899999945,
      "d": 176.4704999999958,
      "v": 100
    },
    {
      "midi": 64,
      "hit": false,
      "t": 98470.53899999979,
      "d": 176.4704999999958,
      "v": 100
    },
    {
      "midi": 40,
      "hit": false,
      "t": 98470.53900000003,
      "d": 176.4704999999958,
      "v": 100
    },
    {
      "midi": 65,
      "hit": false,
      "t": 98647.00949999978,
      "d": 176.4704999999958,
      "v": 100
    },
    {
      "midi": 64,
      "hit": false,
      "t": 98823.47999999944,
      "d": 176.4704999999958,
      "v": 100
    },
    {
      "midi": 53,
      "hit": false,
      "t": 98823.47999999944,
      "d": 176.4704999999958,
      "v": 100
    },
    {
      "midi": 60,
      "hit": false,
      "t": 98823.47999999944,
      "d": 176.4704999999958,
      "v": 100
    },
    {
      "midi": 67,
      "hit": false,
      "t": 98823.47999999978,
      "d": 705.8819999999978,
      "v": 100
    },
    {
      "midi": 40,
      "hit": false,
      "t": 98823.48000000003,
      "d": 1411.7639999999956,
      "v": 100
    },
    {
      "midi": 53,
      "hit": false,
      "t": 99176.42099999943,
      "d": 176.4704999999958,
      "v": 100
    },
    {
      "midi": 64,
      "hit": false,
      "t": 99176.42099999943,
      "d": 176.4704999999958,
      "v": 100
    },
    {
      "midi": 60,
      "hit": false,
      "t": 99176.42099999943,
      "d": 176.4704999999958,
      "v": 100
    },
    {
      "midi": 53,
      "hit": false,
      "t": 99529.36199999943,
      "d": 176.4704999999958,
      "v": 100
    },
    {
      "midi": 64,
      "hit": false,
      "t": 99529.36199999943,
      "d": 176.4704999999958,
      "v": 100
    },
    {
      "midi": 60,
      "hit": false,
      "t": 99529.36199999943,
      "d": 176.4704999999958,
      "v": 100
    },
    {
      "midi": 64,
      "hit": false,
      "t": 99529.36199999978,
      "d": 176.4704999999958,
      "v": 100
    },
    {
      "midi": 64,
      "hit": false,
      "t": 99529.36200000001,
      "d": 352.94100000000617,
      "v": 100
    },
    {
      "midi": 57,
      "hit": false,
      "t": 99529.36200000001,
      "d": 352.94100000000617,
      "v": 100
    },
    {
      "midi": 53,
      "hit": false,
      "t": 99882.30299999942,
      "d": 176.4704999999958,
      "v": 100
    },
    {
      "midi": 64,
      "hit": false,
      "t": 99882.30299999942,
      "d": 176.4704999999958,
      "v": 100
    },
    {
      "midi": 60,
      "hit": false,
      "t": 99882.30299999942,
      "d": 176.4704999999958,
      "v": 100
    },
    {
      "midi": 67,
      "hit": false,
      "t": 99882.30299999977,
      "d": 176.4704999999958,
      "v": 100
    },
    {
      "midi": 67,
      "hit": false,
      "t": 99882.30300000001,
      "d": 352.94100000000617,
      "v": 100
    },
    {
      "midi": 59,
      "hit": false,
      "t": 99882.30300000001,
      "d": 352.94100000000617,
      "v": 100
    },
    {
      "midi": 53,
      "hit": false,
      "t": 100235.24399999941,
      "d": 176.4704999999958,
      "v": 100
    },
    {
      "midi": 64,
      "hit": false,
      "t": 100235.24399999941,
      "d": 176.4704999999958,
      "v": 100
    },
    {
      "midi": 60,
      "hit": false,
      "t": 100235.24399999941,
      "d": 176.4704999999958,
      "v": 100
    },
    {
      "midi": 69,
      "hit": false,
      "t": 100235.24399999976,
      "d": 176.4704999999958,
      "v": 100
    },
    {
      "midi": 69,
      "hit": false,
      "t": 100235.24400000002,
      "d": 705.8819999999978,
      "v": 100
    },
    {
      "midi": 60,
      "hit": false,
      "t": 100235.24400000002,
      "d": 705.8819999999978,
      "v": 100
    },
    {
      "midi": 41,
      "hit": false,
      "t": 100235.24400000002,
      "d": 1411.7639999999956,
      "v": 100
    },
    {
      "midi": 53,
      "hit": false,
      "t": 100588.1849999994,
      "d": 176.4704999999958,
      "v": 100
    },
    {
      "midi": 64,
      "hit": false,
      "t": 100588.1849999994,
      "d": 176.4704999999958,
      "v": 100
    },
    {
      "midi": 60,
      "hit": false,
      "t": 100588.1849999994,
      "d": 176.4704999999958,
      "v": 100
    },
    {
      "midi": 53,
      "hit": false,
      "t": 100941.12599999939,
      "d": 176.4704999999958,
      "v": 100
    },
    {
      "midi": 64,
      "hit": false,
      "t": 100941.12599999939,
      "d": 176.4704999999958,
      "v": 100
    },
    {
      "midi": 60,
      "hit": false,
      "t": 100941.12599999939,
      "d": 176.4704999999958,
      "v": 100
    },
    {
      "midi": 72,
      "hit": false,
      "t": 100941.12599999976,
      "d": 176.4704999999958,
      "v": 100
    },
    {
      "midi": 72,
      "hit": false,
      "t": 100941.12600000002,
      "d": 705.8819999999978,
      "v": 100
    },
    {
      "midi": 65,
      "hit": false,
      "t": 100941.12600000002,
      "d": 705.8819999999978,
      "v": 100
    },
    {
      "midi": 53,
      "hit": false,
      "t": 101294.06699999938,
      "d": 176.4704999999958,
      "v": 100
    },
    {
      "midi": 64,
      "hit": false,
      "t": 101294.06699999938,
      "d": 176.4704999999958,
      "v": 100
    },
    {
      "midi": 60,
      "hit": false,
      "t": 101294.06699999938,
      "d": 176.4704999999958,
      "v": 100
    },
    {
      "midi": 64,
      "hit": false,
      "t": 101647.00799999938,
      "d": 176.4704999999958,
      "v": 100
    },
    {
      "midi": 53,
      "hit": false,
      "t": 101647.00799999938,
      "d": 176.4704999999958,
      "v": 100
    },
    {
      "midi": 60,
      "hit": false,
      "t": 101647.00799999938,
      "d": 176.4704999999958,
      "v": 100
    },
    {
      "midi": 71,
      "hit": false,
      "t": 101647.00799999975,
      "d": 176.4704999999958,
      "v": 100
    },
    {
      "midi": 71,
      "hit": false,
      "t": 101647.00800000002,
      "d": 352.94100000000617,
      "v": 100
    },
    {
      "midi": 64,
      "hit": false,
      "t": 101647.00800000002,
      "d": 352.94100000000617,
      "v": 100
    },
    {
      "midi": 43,
      "hit": false,
      "t": 101647.00800000002,
      "d": 2117.646000000008,
      "v": 100
    },
    {
      "midi": 53,
      "hit": false,
      "t": 101999.94899999937,
      "d": 176.4704999999958,
      "v": 100
    },
    {
      "midi": 64,
      "hit": false,
      "t": 101999.94899999937,
      "d": 176.4704999999958,
      "v": 100
    },
    {
      "midi": 60,
      "hit": false,
      "t": 101999.94899999937,
      "d": 176.4704999999958,
      "v": 100
    },
    {
      "midi": 64,
      "hit": false,
      "t": 101999.94899999975,
      "d": 705.8819999999978,
      "v": 100
    },
    {
      "midi": 64,
      "hit": false,
      "t": 101999.94900000002,
      "d": 705.8819999999978,
      "v": 100
    },
    {
      "midi": 60,
      "hit": false,
      "t": 101999.94900000002,
      "d": 705.8819999999978,
      "v": 100
    },
    {
      "midi": 53,
      "hit": false,
      "t": 102352.88999999936,
      "d": 176.4704999999958,
      "v": 100
    },
    {
      "midi": 64,
      "hit": false,
      "t": 102352.88999999936,
      "d": 176.4704999999958,
      "v": 100
    },
    {
      "midi": 60,
      "hit": false,
      "t": 102352.88999999936,
      "d": 176.4704999999958,
      "v": 100
    },
    {
      "midi": 53,
      "hit": false,
      "t": 102705.83099999935,
      "d": 176.4704999999958,
      "v": 100
    },
    {
      "midi": 64,
      "hit": false,
      "t": 102705.83099999935,
      "d": 176.4704999999958,
      "v": 100
    },
    {
      "midi": 60,
      "hit": false,
      "t": 102705.83099999935,
      "d": 176.4704999999958,
      "v": 100
    },
    {
      "midi": 67,
      "hit": false,
      "t": 102705.83099999974,
      "d": 176.4704999999958,
      "v": 100
    },
    {
      "midi": 67,
      "hit": false,
      "t": 102705.83100000002,
      "d": 352.94100000000617,
      "v": 100
    },
    {
      "midi": 53,
      "hit": false,
      "t": 103058.77199999934,
      "d": 176.4704999999958,
      "v": 100
    },
    {
      "midi": 64,
      "hit": false,
      "t": 103058.77199999934,
      "d": 176.4704999999958,
      "v": 100
    },
    {
      "midi": 60,
      "hit": false,
      "t": 103058.77199999934,
      "d": 176.4704999999958,
      "v": 100
    },
    {
      "midi": 69,
      "hit": false,
      "t": 103058.77199999974,
      "d": 1411.7639999999956,
      "v": 100
    },
    {
      "midi": 62,
      "hit": false,
      "t": 103058.77200000003,
      "d": 1411.7639999999956,
      "v": 100
    },
    {
      "midi": 69,
      "hit": false,
      "t": 103058.77200000003,
      "d": 1705.8814999999886,
      "v": 100
    },
    {
      "midi": 53,
      "hit": false,
      "t": 103411.71299999933,
      "d": 176.4704999999958,
      "v": 100
    },
    {
      "midi": 64,
      "hit": false,
      "t": 103411.71299999933,
      "d": 176.4704999999958,
      "v": 100
    },
    {
      "midi": 60,
      "hit": false,
      "t": 103411.71299999933,
      "d": 176.4704999999958,
      "v": 100
    },
    {
      "midi": 62,
      "hit": false,
      "t": 103411.71300000002,
      "d": 352.94100000000617,
      "v": 100
    },
    {
      "midi": 53,
      "hit": false,
      "t": 103764.65399999933,
      "d": 176.4704999999958,
      "v": 100
    },
    {
      "midi": 64,
      "hit": false,
      "t": 103764.65399999933,
      "d": 176.4704999999958,
      "v": 100
    },
    {
      "midi": 60,
      "hit": false,
      "t": 103764.65399999933,
      "d": 176.4704999999958,
      "v": 100
    },
    {
      "midi": 60,
      "hit": false,
      "t": 103764.65400000002,
      "d": 352.94100000000617,
      "v": 100
    },
    {
      "midi": 53,
      "hit": false,
      "t": 104117.59499999932,
      "d": 176.4704999999958,
      "v": 100
    },
    {
      "midi": 64,
      "hit": false,
      "t": 104117.59499999932,
      "d": 176.4704999999958,
      "v": 100
    },
    {
      "midi": 60,
      "hit": false,
      "t": 104117.59499999932,
      "d": 176.4704999999958,
      "v": 100
    },
    {
      "midi": 59,
      "hit": false,
      "t": 104117.59500000003,
      "d": 352.94100000000617,
      "v": 100
    },
    {
      "midi": 64,
      "hit": false,
      "t": 104470.53599999931,
      "d": 176.4704999999958,
      "v": 100
    },
    {
      "midi": 53,
      "hit": false,
      "t": 104470.53599999931,
      "d": 176.4704999999958,
      "v": 100
    },
    {
      "midi": 57,
      "hit": false,
      "t": 104470.53599999931,
      "d": 176.4704999999958,
      "v": 100
    },
    {
      "midi": 60,
      "hit": false,
      "t": 104470.53600000004,
      "d": 1411.7639999999956,
      "v": 100
    },
    {
      "midi": 53,
      "hit": false,
      "t": 104823.4769999993,
      "d": 176.4704999999958,
      "v": 100
    },
    {
      "midi": 64,
      "hit": false,
      "t": 104823.4769999993,
      "d": 176.4704999999958,
      "v": 100
    },
    {
      "midi": 57,
      "hit": false,
      "t": 104823.4769999993,
      "d": 176.4704999999958,
      "v": 100
    },
    {
      "midi": 53,
      "hit": false,
      "t": 105176.41799999929,
      "d": 176.4704999999958,
      "v": 100
    },
    {
      "midi": 64,
      "hit": false,
      "t": 105176.41799999929,
      "d": 176.4704999999958,
      "v": 100
    },
    {
      "midi": 57,
      "hit": false,
      "t": 105176.41799999929,
      "d": 176.4704999999958,
      "v": 100
    },
    {
      "midi": 64,
      "hit": false,
      "t": 105176.41799999973,
      "d": 176.4704999999958,
      "v": 100
    },
    {
      "midi": 64,
      "hit": false,
      "t": 105176.41800000002,
      "d": 352.94100000000617,
      "v": 100
    },
    {
      "midi": 57,
      "hit": false,
      "t": 105176.41800000002,
      "d": 352.94100000000617,
      "v": 100
    },
    {
      "midi": 53,
      "hit": false,
      "t": 105529.35899999928,
      "d": 176.4704999999958,
      "v": 100
    },
    {
      "midi": 64,
      "hit": false,
      "t": 105529.35899999928,
      "d": 176.4704999999958,
      "v": 100
    },
    {
      "midi": 57,
      "hit": false,
      "t": 105529.35899999928,
      "d": 176.4704999999958,
      "v": 100
    },
    {
      "midi": 67,
      "hit": false,
      "t": 105529.35899999972,
      "d": 176.4704999999958,
      "v": 100
    },
    {
      "midi": 67,
      "hit": false,
      "t": 105529.35900000003,
      "d": 352.94100000000617,
      "v": 100
    },
    {
      "midi": 59,
      "hit": false,
      "t": 105529.35900000003,
      "d": 352.94100000000617,
      "v": 100
    },
    {
      "midi": 53,
      "hit": false,
      "t": 105882.29999999928,
      "d": 176.4704999999958,
      "v": 100
    },
    {
      "midi": 64,
      "hit": false,
      "t": 105882.29999999928,
      "d": 176.4704999999958,
      "v": 100
    },
    {
      "midi": 57,
      "hit": false,
      "t": 105882.29999999928,
      "d": 176.4704999999958,
      "v": 100
    },
    {
      "midi": 69,
      "hit": false,
      "t": 105882.29999999971,
      "d": 176.4704999999958,
      "v": 100
    },
    {
      "midi": 69,
      "hit": false,
      "t": 105882.30000000003,
      "d": 705.8819999999978,
      "v": 100
    },
    {
      "midi": 60,
      "hit": false,
      "t": 105882.30000000003,
      "d": 705.8819999999978,
      "v": 100
    },
    {
      "midi": 40,
      "hit": false,
      "t": 105882.30000000003,
      "d": 1411.7639999999956,
      "v": 100
    },
    {
      "midi": 53,
      "hit": false,
      "t": 106235.24099999927,
      "d": 176.4704999999958,
      "v": 100
    },
    {
      "midi": 64,
      "hit": false,
      "t": 106235.24099999927,
      "d": 176.4704999999958,
      "v": 100
    },
    {
      "midi": 57,
      "hit": false,
      "t": 106235.24099999927,
      "d": 176.4704999999958,
      "v": 100
    },
    {
      "midi": 53,
      "hit": false,
      "t": 106588.18199999926,
      "d": 176.4704999999958,
      "v": 100
    },
    {
      "midi": 64,
      "hit": false,
      "t": 106588.18199999926,
      "d": 176.4704999999958,
      "v": 100
    },
    {
      "midi": 57,
      "hit": false,
      "t": 106588.18199999926,
      "d": 176.4704999999958,
      "v": 100
    },
    {
      "midi": 72,
      "hit": false,
      "t": 106588.18199999971,
      "d": 176.4704999999958,
      "v": 100
    },
    {
      "midi": 72,
      "hit": false,
      "t": 106588.18200000003,
      "d": 705.8819999999978,
      "v": 100
    },
    {
      "midi": 65,
      "hit": false,
      "t": 106588.18200000003,
      "d": 705.8819999999978,
      "v": 100
    },
    {
      "midi": 53,
      "hit": false,
      "t": 106941.12299999925,
      "d": 176.4704999999958,
      "v": 100
    },
    {
      "midi": 64,
      "hit": false,
      "t": 106941.12299999925,
      "d": 176.4704999999958,
      "v": 100
    },
    {
      "midi": 57,
      "hit": false,
      "t": 106941.12299999925,
      "d": 176.4704999999958,
      "v": 100
    },
    {
      "midi": 64,
      "hit": false,
      "t": 107294.06399999924,
      "d": 176.4704999999958,
      "v": 100
    },
    {
      "midi": 53,
      "hit": false,
      "t": 107294.06399999924,
      "d": 176.4704999999958,
      "v": 100
    },
    {
      "midi": 57,
      "hit": false,
      "t": 107294.06399999924,
      "d": 176.4704999999958,
      "v": 100
    },
    {
      "midi": 71,
      "hit": false,
      "t": 107294.06399999971,
      "d": 176.4704999999958,
      "v": 100
    },
    {
      "midi": 71,
      "hit": false,
      "t": 107294.06400000003,
      "d": 352.94100000000617,
      "v": 100
    },
    {
      "midi": 64,
      "hit": false,
      "t": 107294.06400000003,
      "d": 352.94100000000617,
      "v": 100
    },
    {
      "midi": 43,
      "hit": false,
      "t": 107294.06400000003,
      "d": 2117.646000000008,
      "v": 100
    },
    {
      "midi": 53,
      "hit": false,
      "t": 107647.00499999923,
      "d": 176.4704999999958,
      "v": 100
    },
    {
      "midi": 64,
      "hit": false,
      "t": 107647.00499999923,
      "d": 176.4704999999958,
      "v": 100
    },
    {
      "midi": 57,
      "hit": false,
      "t": 107647.00499999923,
      "d": 176.4704999999958,
      "v": 100
    },
    {
      "midi": 64,
      "hit": false,
      "t": 107647.0049999997,
      "d": 705.8819999999978,
      "v": 100
    },
    {
      "midi": 64,
      "hit": false,
      "t": 107647.00500000003,
      "d": 705.8819999999978,
      "v": 100
    },
    {
      "midi": 60,
      "hit": false,
      "t": 107647.00500000003,
      "d": 705.8819999999978,
      "v": 100
    },
    {
      "midi": 53,
      "hit": false,
      "t": 107999.94599999923,
      "d": 176.4704999999958,
      "v": 100
    },
    {
      "midi": 64,
      "hit": false,
      "t": 107999.94599999923,
      "d": 176.4704999999958,
      "v": 100
    },
    {
      "midi": 57,
      "hit": false,
      "t": 107999.94599999923,
      "d": 176.4704999999958,
      "v": 100
    },
    {
      "midi": 53,
      "hit": false,
      "t": 108352.88699999922,
      "d": 176.4704999999958,
      "v": 100
    },
    {
      "midi": 64,
      "hit": false,
      "t": 108352.88699999922,
      "d": 176.4704999999958,
      "v": 100
    },
    {
      "midi": 57,
      "hit": false,
      "t": 108352.88699999922,
      "d": 176.4704999999958,
      "v": 100
    },
    {
      "midi": 67,
      "hit": false,
      "t": 108352.8869999997,
      "d": 176.4704999999958,
      "v": 100
    },
    {
      "midi": 67,
      "hit": false,
      "t": 108352.88700000003,
      "d": 352.94100000000617,
      "v": 100
    },
    {
      "midi": 60,
      "hit": false,
      "t": 108352.88700000003,
      "d": 352.94100000000617,
      "v": 100
    },
    {
      "midi": 53,
      "hit": false,
      "t": 108705.82799999921,
      "d": 176.4704999999958,
      "v": 100
    },
    {
      "midi": 64,
      "hit": false,
      "t": 108705.82799999921,
      "d": 176.4704999999958,
      "v": 100
    },
    {
      "midi": 57,
      "hit": false,
      "t": 108705.82799999921,
      "d": 176.4704999999958,
      "v": 100
    },
    {
      "midi": 69,
      "hit": false,
      "t": 108705.82799999969,
      "d": 1411.7639999999956,
      "v": 100
    },
    {
      "midi": 69,
      "hit": false,
      "t": 108705.82800000004,
      "d": 4235.292000000001,
      "v": 100
    },
    {
      "midi": 57,
      "hit": false,
      "t": 108705.82800000004,
      "d": 4235.292000000001,
      "v": 100
    },
    {
      "midi": 53,
      "hit": false,
      "t": 109058.7689999992,
      "d": 176.4704999999958,
      "v": 100
    },
    {
      "midi": 64,
      "hit": false,
      "t": 109058.7689999992,
      "d": 176.4704999999958,
      "v": 100
    },
    {
      "midi": 57,
      "hit": false,
      "t": 109058.7689999992,
      "d": 176.4704999999958,
      "v": 100
    },
    {
      "midi": 62,
      "hit": false,
      "t": 109058.76900000003,
      "d": 352.94100000000617,
      "v": 100
    },
    {
      "midi": 53,
      "hit": false,
      "t": 109411.70999999919,
      "d": 176.4704999999958,
      "v": 100
    },
    {
      "midi": 64,
      "hit": false,
      "t": 109411.70999999919,
      "d": 176.4704999999958,
      "v": 100
    },
    {
      "midi": 57,
      "hit": false,
      "t": 109411.70999999919,
      "d": 176.4704999999958,
      "v": 100
    },
    {
      "midi": 60,
      "hit": false,
      "t": 109411.71000000004,
      "d": 352.94100000000617,
      "v": 100
    },
    {
      "midi": 53,
      "hit": false,
      "t": 109764.65099999918,
      "d": 176.4704999999958,
      "v": 100
    },
    {
      "midi": 64,
      "hit": false,
      "t": 109764.65099999918,
      "d": 176.4704999999958,
      "v": 100
    },
    {
      "midi": 57,
      "hit": false,
      "t": 109764.65099999918,
      "d": 176.4704999999958,
      "v": 100
    },
    {
      "midi": 59,
      "hit": false,
      "t": 109764.65100000004,
      "d": 352.94100000000617,
      "v": 100
    },
    {
      "midi": 64,
      "hit": false,
      "t": 110117.59199999917,
      "d": 176.4704999999958,
      "v": 100
    },
    {
      "midi": 53,
      "hit": false,
      "t": 110117.59199999917,
      "d": 176.4704999999958,
      "v": 100
    },
    {
      "midi": 57,
      "hit": false,
      "t": 110117.59199999917,
      "d": 176.4704999999958,
      "v": 100
    },
    {
      "midi": 57,
      "hit": false,
      "t": 110117.59200000005,
      "d": 1411.7639999999956,
      "v": 100
    },
    {
      "midi": 53,
      "hit": false,
      "t": 110470.53299999917,
      "d": 176.4704999999958,
      "v": 100
    },
    {
      "midi": 64,
      "hit": false,
      "t": 110470.53299999917,
      "d": 176.4704999999958,
      "v": 100
    },
    {
      "midi": 57,
      "hit": false,
      "t": 110470.53299999917,
      "d": 176.4704999999958,
      "v": 100
    },
    {
      "midi": 53,
      "hit": false,
      "t": 110823.47399999916,
      "d": 176.4704999999958,
      "v": 100
    },
    {
      "midi": 64,
      "hit": false,
      "t": 110823.47399999916,
      "d": 176.4704999999958,
      "v": 100
    },
    {
      "midi": 57,
      "hit": false,
      "t": 110823.47399999916,
      "d": 176.4704999999958,
      "v": 100
    },
    {
      "midi": 64,
      "hit": false,
      "t": 111176.41499999915,
      "d": 176.4704999999958,
      "v": 100
    },
    {
      "midi": 57,
      "hit": false,
      "t": 111176.41499999915,
      "d": 176.4704999999958,
      "v": 100
    },
    {
      "midi": 57,
      "hit": false,
      "t": 111529.35599999914,
      "d": 176.4704999999958,
      "v": 100
    }
  ]
}