{
  "jsonPath": "Soundtracks/Hollywood/Miranda/iman.json",
  "path": "Soundtracks\\Hollywood\\Miranda\\Imán.mid",
  "name": "Imán",
  "difficulty": "Advanced",
  "bpm": 82.00014760026568,
  "notes": [
    {
      "midi": 57,
      "hit": false,
      "t": 0,
      "d": 243.90200000000004,
      "v": 100
    },
    {
      "midi": 72,
      "hit": false,
      "t": 0,
      "d": 731.7060000000001,
      "v": 100
    },
    {
      "midi": 64,
      "hit": false,
      "t": 243.90200000000004,
      "d": 243.90200000000004,
      "v": 100
    },
    {
      "midi": 69,
      "hit": false,
      "t": 487.8040000000001,
      "d": 243.90200000000004,
      "v": 100
    },
    {
      "midi": 72,
      "hit": false,
      "t": 731.7060000000001,
      "d": 243.90200000000004,
      "v": 100
    },
    {
      "midi": 69,
      "hit": false,
      "t": 975.6080000000002,
      "d": 243.90200000000004,
      "v": 100
    },
    {
      "midi": 64,
      "hit": false,
      "t": 1219.5100000000002,
      "d": 243.90200000000004,
      "v": 100
    },
    {
      "midi": 57,
      "hit": false,
      "t": 1463.4120000000003,
      "d": 243.90200000000004,
      "v": 100
    },
    {
      "midi": 72,
      "hit": false,
      "t": 1463.4120000000003,
      "d": 731.7060000000001,
      "v": 100
    },
    {
      "midi": 64,
      "hit": false,
      "t": 1707.3140000000003,
      "d": 243.90200000000004,
      "v": 100
    },
    {
      "midi": 69,
      "hit": false,
      "t": 1951.2160000000003,
      "d": 243.90200000000004,
      "v": 100
    },
    {
      "midi": 72,
      "hit": false,
      "t": 2195.1180000000004,
      "d": 243.90200000000004,
      "v": 100
    },
    {
      "midi": 69,
      "hit": false,
      "t": 2439.0200000000004,
      "d": 243.90200000000004,
      "v": 100
    },
    {
      "midi": 64,
      "hit": false,
      "t": 2682.9220000000005,
      "d": 243.90200000000004,
      "v": 100
    },
    {
      "midi": 57,
      "hit": false,
      "t": 2926.8240000000005,
      "d": 243.90200000000004,
      "v": 100
    },
    {
      "midi": 72,
      "hit": false,
      "t": 2926.8240000000005,
      "d": 731.7060000000001,
      "v": 100
    },
    {
      "midi": 64,
      "hit": false,
      "t": 3170.7260000000006,
      "d": 243.90200000000004,
      "v": 100
    },
    {
      "midi": 69,
      "hit": false,
      "t": 3414.6280000000006,
      "d": 243.90200000000004,
      "v": 100
    },
    {
      "midi": 72,
      "hit": false,
      "t": 3658.5300000000007,
      "d": 243.90200000000004,
      "v": 100
    },
    {
      "midi": 69,
      "hit": false,
      "t": 3902.4320000000007,
      "d": 243.90200000000004,
      "v": 100
    },
    {
      "midi": 64,
      "hit": false,
      "t": 4146.334000000001,
      "d": 243.90200000000004,
      "v": 100
    },
    {
      "midi": 57,
      "hit": false,
      "t": 4390.236000000001,
      "d": 243.90200000000004,
      "v": 100
    },
    {
      "midi": 72,
      "hit": false,
      "t": 4390.236000000001,
      "d": 731.7060000000001,
      "v": 100
    },
    {
      "midi": 64,
      "hit": false,
      "t": 4634.138000000001,
      "d": 243.90200000000004,
      "v": 100
    },
    {
      "midi": 69,
      "hit": false,
      "t": 4878.040000000001,
      "d": 243.90200000000004,
      "v": 100
    },
    {
      "midi": 72,
      "hit": false,
      "t": 5121.942000000001,
      "d": 243.90200000000004,
      "v": 100
    },
    {
      "midi": 69,
      "hit": false,
      "t": 5365.844000000001,
      "d": 243.90200000000004,
      "v": 100
    },
    {
      "midi": 64,
      "hit": false,
      "t": 5609.746000000001,
      "d": 243.90200000000004,
      "v": 100
    },
    {
      "midi": 57,
      "hit": false,
      "t": 5853.648000000001,
      "d": 243.90200000000004,
      "v": 100
    },
    {
      "midi": 72,
      "hit": false,
      "t": 5853.648000000001,
      "d": 731.7060000000001,
      "v": 100
    },
    {
      "midi": 64,
      "hit": false,
      "t": 6097.550000000001,
      "d": 243.90200000000004,
      "v": 100
    },
    {
      "midi": 69,
      "hit": false,
      "t": 6341.452000000001,
      "d": 243.90200000000004,
      "v": 100
    },
    {
      "midi": 72,
      "hit": false,
      "t": 6585.354000000001,
      "d": 243.90200000000004,
      "v": 100
    },
    {
      "midi": 69,
      "hit": false,
      "t": 6829.256000000001,
      "d": 243.90200000000004,
      "v": 100
    },
    {
      "midi": 64,
      "hit": false,
      "t": 7073.158000000001,
      "d": 243.90200000000004,
      "v": 100
    },
    {
      "midi": 57,
      "hit": false,
      "t": 7317.060000000001,
      "d": 243.90200000000004,
      "v": 100
    },
    {
      "midi": 72,
      "hit": false,
      "t": 7317.060000000001,
      "d": 731.7060000000001,
      "v": 100
    },
    {
      "midi": 64,
      "hit": false,
      "t": 7560.962000000001,
      "d": 243.90200000000004,
      "v": 100
    },
    {
      "midi": 69,
      "hit": false,
      "t": 7804.864000000001,
      "d": 243.90200000000004,
      "v": 100
    },
    {
      "midi": 72,
      "hit": false,
      "t": 8048.766000000001,
      "d": 243.90200000000004,
      "v": 100
    },
    {
      "midi": 69,
      "hit": false,
      "t": 8292.668000000001,
      "d": 243.90200000000004,
      "v": 100
    },
    {
      "midi": 64,
      "hit": false,
      "t": 8536.570000000002,
      "d": 243.90200000000004,
      "v": 100
    },
    {
      "midi": 55,
      "hit": false,
      "t": 8780.472000000002,
      "d": 243.90200000000004,
      "v": 100
    },
    {
      "midi": 71,
      "hit": false,
      "t": 8780.472000000002,
      "d": 731.7060000000001,
      "v": 100
    },
    {
      "midi": 62,
      "hit": false,
      "t": 9024.374000000002,
      "d": 243.90200000000004,
      "v": 100
    },
    {
      "midi": 67,
      "hit": false,
      "t": 9268.276000000002,
      "d": 243.90200000000004,
      "v": 100
    },
    {
      "midi": 71,
      "hit": false,
      "t": 9512.178000000002,
      "d": 243.90200000000004,
      "v": 100
    },
    {
      "midi": 67,
      "hit": false,
      "t": 9756.080000000002,
      "d": 243.90200000000004,
      "v": 100
    },
    {
      "midi": 62,
      "hit": false,
      "t": 9999.982000000002,
      "d": 243.90200000000004,
      "v": 100
    },
    {
      "midi": 55,
      "hit": false,
      "t": 10243.884000000002,
      "d": 243.90200000000004,
      "v": 100
    },
    {
      "midi": 71,
      "hit": false,
      "t": 10243.884000000002,
      "d": 731.7060000000001,
      "v": 100
    },
    {
      "midi": 62,
      "hit": false,
      "t": 10487.786000000002,
      "d": 243.90200000000004,
      "v": 100
    },
    {
      "midi": 67,
      "hit": false,
      "t": 10731.688000000002,
      "d": 243.90200000000004,
      "v": 100
    },
    {
      "midi": 71,
      "hit": false,
      "t": 10975.590000000002,
      "d": 243.90200000000004,
      "v": 100
    },
    {
      "midi": 67,
      "hit": false,
      "t": 11219.492000000002,
      "d": 243.90200000000004,
      "v": 100
    },
    {
      "midi": 64,
      "hit": false,
      "t": 11463.394000000002,
      "d": 243.90200000000004,
      "v": 100
    },
    {
      "midi": 53,
      "hit": false,
      "t": 11707.296000000002,
      "d": 243.90200000000004,
      "v": 100
    },
    {
      "midi": 69,
      "hit": false,
      "t": 11707.296000000002,
      "d": 731.7060000000001,
      "v": 100
    },
    {
      "midi": 60,
      "hit": false,
      "t": 11951.198000000002,
      "d": 243.90200000000004,
      "v": 100
    },
    {
      "midi": 65,
      "hit": false,
      "t": 12195.100000000002,
      "d": 243.90200000000004,
      "v": 100
    },
    {
      "midi": 69,
      "hit": false,
      "t": 12439.002000000002,
      "d": 243.90200000000004,
      "v": 100
    },
    {
      "midi": 65,
      "hit": false,
      "t": 12682.904000000002,
      "d": 243.90200000000004,
      "v": 100
    },
    {
      "midi": 60,
      "hit": false,
      "t": 12926.806000000002,
      "d": 243.90200000000004,
      "v": 100
    },
    {
      "midi": 53,
      "hit": false,
      "t": 13170.708000000002,
      "d": 243.90200000000004,
      "v": 100
    },
    {
      "midi": 69,
      "hit": false,
      "t": 13170.708000000002,
      "d": 731.7060000000001,
      "v": 100
    },
    {
      "midi": 60,
      "hit": false,
      "t": 13414.610000000002,
      "d": 243.90200000000004,
      "v": 100
    },
    {
      "midi": 65,
      "hit": false,
      "t": 13658.512000000002,
      "d": 243.90200000000004,
      "v": 100
    },
    {
      "midi": 69,
      "hit": false,
      "t": 13902.414000000002,
      "d": 243.90200000000004,
      "v": 100
    },
    {
      "midi": 65,
      "hit": false,
      "t": 14146.316000000003,
      "d": 243.90200000000004,
      "v": 100
    },
    {
      "midi": 60,
      "hit": false,
      "t": 14390.218000000003,
      "d": 243.90200000000004,
      "v": 100
    },
    {
      "midi": 52,
      "hit": false,
      "t": 14634.120000000003,
      "d": 243.90200000000004,
      "v": 100
    },
    {
      "midi": 71,
      "hit": false,
      "t": 14634.120000000003,
      "d": 731.7060000000001,
      "v": 100
    },
    {
      "midi": 64,
      "hit": false,
      "t": 14878.022000000003,
      "d": 243.90200000000004,
      "v": 100
    },
    {
      "midi": 68,
      "hit": false,
      "t": 15121.924000000003,
      "d": 243.90200000000004,
      "v": 100
    },
    {
      "midi": 71,
      "hit": false,
      "t": 15365.826000000003,
      "d": 243.90200000000004,
      "v": 100
    },
    {
      "midi": 68,
      "hit": false,
      "t": 15609.728000000003,
      "d": 243.90200000000004,
      "v": 100
    },
    {
      "midi": 64,
      "hit": false,
      "t": 15853.630000000003,
      "d": 243.90200000000004,
      "v": 100
    },
    {
      "midi": 52,
      "hit": false,
      "t": 16097.532000000003,
      "d": 243.90200000000004,
      "v": 100
    },
    {
      "midi": 71,
      "hit": false,
      "t": 16097.532000000003,
      "d": 731.706000000002,
      "v": 100
    },
    {
      "midi": 64,
      "hit": false,
      "t": 16341.434000000003,
      "d": 243.90200000000004,
      "v": 100
    },
    {
      "midi": 68,
      "hit": false,
      "t": 16585.336000000003,
      "d": 243.90200000000186,
      "v": 100
    },
    {
      "midi": 71,
      "hit": false,
      "t": 16829.238000000005,
      "d": 243.90200000000186,
      "v": 100
    },
    {
      "midi": 68,
      "hit": false,
      "t": 17073.140000000007,
      "d": 243.90200000000186,
      "v": 100
    },
    {
      "midi": 64,
      "hit": false,
      "t": 17317.04200000001,
      "d": 243.90200000000186,
      "v": 100
    },
    {
      "midi": 52,
      "hit": false,
      "t": 17560.94400000001,
      "d": 243.90200000000186,
      "v": 100
    },
    {
      "midi": 71,
      "hit": false,
      "t": 17560.94400000001,
      "d": 731.7060000000056,
      "v": 100
    },
    {
      "midi": 64,
      "hit": false,
      "t": 17804.846000000012,
      "d": 243.90200000000186,
      "v": 100
    },
    {
      "midi": 68,
      "hit": false,
      "t": 18048.748000000014,
      "d": 243.90200000000186,
      "v": 100
    },
    {
      "midi": 71,
      "hit": false,
      "t": 18292.650000000016,
      "d": 243.90200000000186,
      "v": 100
    },
    {
      "midi": 68,
      "hit": false,
      "t": 18536.552000000018,
      "d": 243.90200000000186,
      "v": 100
    },
    {
      "midi": 64,
      "hit": false,
      "t": 18780.45400000002,
      "d": 243.90200000000186,
      "v": 100
    },
    {
      "midi": 52,
      "hit": false,
      "t": 19024.35600000002,
      "d": 243.90200000000186,
      "v": 100
    },
    {
      "midi": 71,
      "hit": false,
      "t": 19024.35600000002,
      "d": 731.7060000000056,
      "v": 100
    },
    {
      "midi": 64,
      "hit": false,
      "t": 19268.258000000023,
      "d": 243.90200000000186,
      "v": 100
    },
    {
      "midi": 68,
      "hit": false,
      "t": 19512.160000000025,
      "d": 243.90200000000186,
      "v": 100
    },
    {
      "midi": 71,
      "hit": false,
      "t": 19756.062000000027,
      "d": 243.90200000000186,
      "v": 100
    },
    {
      "midi": 68,
      "hit": false,
      "t": 19999.96400000003,
      "d": 243.90200000000186,
      "v": 100
    },
    {
      "midi": 64,
      "hit": false,
      "t": 20243.86600000003,
      "d": 243.90200000000186,
      "v": 100
    },
    {
      "midi": 57,
      "hit": false,
      "t": 20487.768000000033,
      "d": 243.90200000000186,
      "v": 100
    },
    {
      "midi": 64,
      "hit": false,
      "t": 20487.768000000033,
      "d": 731.706000000002,
      "v": 100
    },
    {
      "midi": 69,
      "hit": false,
      "t": 20487.768000000033,
      "d": 731.706000000002,
      "v": 100
    },
    {
      "midi": 72,
      "hit": false,
      "t": 20487.768000000033,
      "d": 731.706000000002,
      "v": 100
    },
    {
      "midi": 64,
      "hit": false,
      "t": 21219.474000000035,
      "d": 731.706000000002,
      "v": 100
    },
    {
      "midi": 69,
      "hit": false,
      "t": 21219.474000000035,
      "d": 731.706000000002,
      "v": 100
    },
    {
      "midi": 72,
      "hit": false,
      "t": 21219.474000000035,
      "d": 731.706000000002,
      "v": 100
    },
    {
      "midi": 64,
      "hit": false,
      "t": 21951.180000000037,
      "d": 731.7059999999983,
      "v": 100
    },
    {
      "midi": 69,
      "hit": false,
      "t": 21951.180000000037,
      "d": 731.7059999999983,
      "v": 100
    },
    {
      "midi": 72,
      "hit": false,
      "t": 21951.180000000037,
      "d": 731.7059999999983,
      "v": 100
    },
    {
      "midi": 64,
      "hit": false,
      "t": 22682.886000000035,
      "d": 731.7059999999983,
      "v": 100
    },
    {
      "midi": 69,
      "hit": false,
      "t": 22682.886000000035,
      "d": 731.7059999999983,
      "v": 100
    },
    {
      "midi": 72,
      "hit": false,
      "t": 22682.886000000035,
      "d": 731.7059999999983,
      "v": 100
    },
    {
      "midi": 64,
      "hit": false,
      "t": 23414.592000000033,
      "d": 731.7059999999983,
      "v": 100
    },
    {
      "midi": 69,
      "hit": false,
      "t": 23414.592000000033,
      "d": 731.7059999999983,
      "v": 100
    },
    {
      "midi": 72,
      "hit": false,
      "t": 23414.592000000033,
      "d": 731.7059999999983,
      "v": 100
    },
    {
      "midi": 64,
      "hit": false,
      "t": 24146.29800000003,
      "d": 731.7059999999983,
      "v": 100
    },
    {
      "midi": 69,
      "hit": false,
      "t": 24146.29800000003,
      "d": 731.7059999999983,
      "v": 100
    },
    {
      "midi": 72,
      "hit": false,
      "t": 24146.29800000003,
      "d": 731.7059999999983,
      "v": 100
    },
    {
      "midi": 64,
      "hit": false,
      "t": 24878.00400000003,
      "d": 731.7059999999983,
      "v": 100
    },
    {
      "midi": 69,
      "hit": false,
      "t": 24878.00400000003,
      "d": 731.7059999999983,
      "v": 100
    },
    {
      "midi": 72,
      "hit": false,
      "t": 24878.00400000003,
      "d": 731.7059999999983,
      "v": 100
    },
    {
      "midi": 64,
      "hit": false,
      "t": 25609.71000000003,
      "d": 731.7059999999983,
      "v": 100
    },
    {
      "midi": 69,
      "hit": false,
      "t": 25609.71000000003,
      "d": 731.7059999999983,
      "v": 100
    },
    {
      "midi": 72,
      "hit": false,
      "t": 25609.71000000003,
      "d": 731.7059999999983,
      "v": 100
    },
    {
      "midi": 55,
      "hit": false,
      "t": 26341.416000000027,
      "d": 243.90200000000186,
      "v": 100
    },
    {
      "midi": 62,
      "hit": false,
      "t": 26341.416000000027,
      "d": 731.706000000002,
      "v": 100
    },
    {
      "midi": 67,
      "hit": false,
      "t": 26341.416000000027,
      "d": 731.706000000002,
      "v": 100
    },
    {
      "midi": 71,
      "hit": false,
      "t": 26341.416000000027,
      "d": 731.706000000002,
      "v": 100
    },
    {
      "midi": 62,
      "hit": false,
      "t": 27073.12200000003,
      "d": 731.706000000002,
      "v": 100
    },
    {
      "midi": 67,
      "hit": false,
      "t": 27073.12200000003,
      "d": 731.706000000002,
      "v": 100
    },
    {
      "midi": 71,
      "hit": false,
      "t": 27073.12200000003,
      "d": 731.706000000002,
      "v": 100
    },
    {
      "midi": 62,
      "hit": false,
      "t": 27804.82800000003,
      "d": 731.7059999999983,
      "v": 100
    },
    {
      "midi": 67,
      "hit": false,
      "t": 27804.82800000003,
      "d": 731.7059999999983,
      "v": 100
    },
    {
      "midi": 71,
      "hit": false,
      "t": 27804.82800000003,
      "d": 731.7059999999983,
      "v": 100
    },
    {
      "midi": 62,
      "hit": false,
      "t": 28536.53400000003,
      "d": 731.7059999999983,
      "v": 100
    },
    {
      "midi": 67,
      "hit": false,
      "t": 28536.53400000003,
      "d": 731.7059999999983,
      "v": 100
    },
    {
      "midi": 71,
      "hit": false,
      "t": 28536.53400000003,
      "d": 731.7059999999983,
      "v": 100
    },
    {
      "midi": 62,
      "hit": false,
      "t": 29268.240000000027,
      "d": 731.7059999999983,
      "v": 100
    },
    {
      "midi": 67,
      "hit": false,
      "t": 29268.240000000027,
      "d": 731.7059999999983,
      "v": 100
    },
    {
      "midi": 71,
      "hit": false,
      "t": 29268.240000000027,
      "d": 731.7059999999983,
      "v": 100
    },
    {
      "midi": 62,
      "hit": false,
      "t": 29999.946000000025,
      "d": 731.7059999999983,
      "v": 100
    },
    {
      "midi": 67,
      "hit": false,
      "t": 29999.946000000025,
      "d": 731.7059999999983,
      "v": 100
    },
    {
      "midi": 71,
      "hit": false,
      "t": 29999.946000000025,
      "d": 731.7059999999983,
      "v": 100
    },
    {
      "midi": 62,
      "hit": false,
      "t": 30731.652000000024,
      "d": 731.7059999999983,
      "v": 100
    },
    {
      "midi": 67,
      "hit": false,
      "t": 30731.652000000024,
      "d": 731.7059999999983,
      "v": 100
    },
    {
      "midi": 71,
      "hit": false,
      "t": 30731.652000000024,
      "d": 731.7059999999983,
      "v": 100
    },
    {
      "midi": 62,
      "hit": false,
      "t": 31463.358000000022,
      "d": 731.7059999999983,
      "v": 100
    },
    {
      "midi": 67,
      "hit": false,
      "t": 31463.358000000022,
      "d": 731.7059999999983,
      "v": 100
    },
    {
      "midi": 71,
      "hit": false,
      "t": 31463.358000000022,
      "d": 731.7059999999983,
      "v": 100
    },
    {
      "midi": 53,
      "hit": false,
      "t": 32195.06400000002,
      "d": 243.90200000000186,
      "v": 100
    },
    {
      "midi": 60,
      "hit": false,
      "t": 32195.06400000002,
      "d": 731.7059999999983,
      "v": 100
    },
    {
      "midi": 65,
      "hit": false,
      "t": 32195.06400000002,
      "d": 731.7059999999983,
      "v": 100
    },
    {
      "midi": 69,
      "hit": false,
      "t": 32195.06400000002,
      "d": 731.7059999999983,
      "v": 100
    },
    {
      "midi": 60,
      "hit": false,
      "t": 32926.77000000002,
      "d": 731.7059999999983,
      "v": 100
    },
    {
      "midi": 65,
      "hit": false,
      "t": 32926.77000000002,
      "d": 731.7059999999983,
      "v": 100
    },
    {
      "midi": 69,
      "hit": false,
      "t": 32926.77000000002,
      "d": 731.7059999999983,
      "v": 100
    },
    {
      "midi": 60,
      "hit": false,
      "t": 33658.47600000002,
      "d": 731.7059999999983,
      "v": 100
    },
    {
      "midi": 65,
      "hit": false,
      "t": 33658.47600000002,
      "d": 731.7059999999983,
      "v": 100
    },
    {
      "midi": 69,
      "hit": false,
      "t": 33658.47600000002,
      "d": 731.7059999999983,
      "v": 100
    },
    {
      "midi": 60,
      "hit": false,
      "t": 34390.182000000015,
      "d": 731.7059999999983,
      "v": 100
    },
    {
      "midi": 65,
      "hit": false,
      "t": 34390.182000000015,
      "d": 731.7059999999983,
      "v": 100
    },
    {
      "midi": 69,
      "hit": false,
      "t": 34390.182000000015,
      "d": 731.7059999999983,
      "v": 100
    },
    {
      "midi": 60,
      "hit": false,
      "t": 35121.88800000001,
      "d": 731.7059999999983,
      "v": 100
    },
    {
      "midi": 65,
      "hit": false,
      "t": 35121.88800000001,
      "d": 731.7059999999983,
      "v": 100
    },
    {
      "midi": 69,
      "hit": false,
      "t": 35121.88800000001,
      "d": 731.7059999999983,
      "v": 100
    },
    {
      "midi": 60,
      "hit": false,
      "t": 35853.59400000001,
      "d": 731.7059999999983,
      "v": 100
    },
    {
      "midi": 65,
      "hit": false,
      "t": 35853.59400000001,
      "d": 731.7059999999983,
      "v": 100
    },
    {
      "midi": 69,
      "hit": false,
      "t": 35853.59400000001,
      "d": 731.7059999999983,
      "v": 100
    },
    {
      "midi": 60,
      "hit": false,
      "t": 36585.30000000001,
      "d": 731.7059999999983,
      "v": 100
    },
    {
      "midi": 65,
      "hit": false,
      "t": 36585.30000000001,
      "d": 731.7059999999983,
      "v": 100
    },
    {
      "midi": 69,
      "hit": false,
      "t": 36585.30000000001,
      "d": 731.7059999999983,
      "v": 100
    },
    {
      "midi": 60,
      "hit": false,
      "t": 37317.00600000001,
      "d": 731.7059999999983,
      "v": 100
    },
    {
      "midi": 65,
      "hit": false,
      "t": 37317.00600000001,
      "d": 731.7059999999983,
      "v": 100
    },
    {
      "midi": 69,
      "hit": false,
      "t": 37317.00600000001,
      "d": 731.7059999999983,
      "v": 100
    },
    {
      "midi": 52,
      "hit": false,
      "t": 38048.71200000001,
      "d": 243.90200000000186,
      "v": 100
    },
    {
      "midi": 64,
      "hit": false,
      "t": 38048.71200000001,
      "d": 731.7059999999983,
      "v": 100
    },
    {
      "midi": 68,
      "hit": false,
      "t": 38048.71200000001,
      "d": 731.7059999999983,
      "v": 100
    },
    {
      "midi": 71,
      "hit": false,
      "t": 38048.71200000001,
      "d": 731.7059999999983,
      "v": 100
    },
    {
      "midi": 64,
      "hit": false,
      "t": 38780.418000000005,
      "d": 731.7059999999983,
      "v": 100
    },
    {
      "midi": 68,
      "hit": false,
      "t": 38780.418000000005,
      "d": 731.7059999999983,
      "v": 100
    },
    {
      "midi": 71,
      "hit": false,
      "t": 38780.418000000005,
      "d": 731.7059999999983,
      "v": 100
    },
    {
      "midi": 64,
      "hit": false,
      "t": 39512.124,
      "d": 731.7059999999983,
      "v": 100
    },
    {
      "midi": 68,
      "hit": false,
      "t": 39512.124,
      "d": 731.7059999999983,
      "v": 100
    },
    {
      "midi": 71,
      "hit": false,
      "t": 39512.124,
      "d": 731.7059999999983,
      "v": 100
    },
    {
      "midi": 64,
      "hit": false,
      "t": 40243.83,
      "d": 731.7059999999983,
      "v": 100
    },
    {
      "midi": 68,
      "hit": false,
      "t": 40243.83,
      "d": 731.7059999999983,
      "v": 100
    },
    {
      "midi": 71,
      "hit": false,
      "t": 40243.83,
      "d": 731.7059999999983,
      "v": 100
    },
    {
      "midi": 64,
      "hit": false,
      "t": 40975.536,
      "d": 731.7059999999983,
      "v": 100
    },
    {
      "midi": 68,
      "hit": false,
      "t": 40975.536,
      "d": 731.7059999999983,
      "v": 100
    },
    {
      "midi": 71,
      "hit": false,
      "t": 40975.536,
      "d": 731.7059999999983,
      "v": 100
    },
    {
      "midi": 64,
      "hit": false,
      "t": 41707.242,
      "d": 731.7059999999983,
      "v": 100
    },
    {
      "midi": 68,
      "hit": false,
      "t": 41707.242,
      "d": 731.7059999999983,
      "v": 100
    },
    {
      "midi": 71,
      "hit": false,
      "t": 41707.242,
      "d": 731.7059999999983,
      "v": 100
    },
    {
      "midi": 64,
      "hit": false,
      "t": 42438.948,
      "d": 731.7059999999983,
      "v": 100
    },
    {
      "midi": 68,
      "hit": false,
      "t": 42438.948,
      "d": 731.7059999999983,
      "v": 100
    },
    {
      "midi": 71,
      "hit": false,
      "t": 42438.948,
      "d": 731.7059999999983,
      "v": 100
    },
    {
      "midi": 64,
      "hit": false,
      "t": 43170.653999999995,
      "d": 731.7059999999983,
      "v": 100
    },
    {
      "midi": 68,
      "hit": false,
      "t": 43170.653999999995,
      "d": 731.7059999999983,
      "v": 100
    },
    {
      "midi": 71,
      "hit": false,
      "t": 43170.653999999995,
      "d": 731.7059999999983,
      "v": 100
    },
    {
      "midi": 57,
      "hit": false,
      "t": 43902.35999999999,
      "d": 243.90200000000186,
      "v": 100
    },
    {
      "midi": 64,
      "hit": false,
      "t": 43902.35999999999,
      "d": 731.7059999999983,
      "v": 100
    },
    {
      "midi": 69,
      "hit": false,
      "t": 43902.35999999999,
      "d": 731.7059999999983,
      "v": 100
    },
    {
      "midi": 72,
      "hit": false,
      "t": 43902.35999999999,
      "d": 731.7059999999983,
      "v": 100
    },
    {
      "midi": 64,
      "hit": false,
      "t": 44634.06599999999,
      "d": 731.7059999999983,
      "v": 100
    },
    {
      "midi": 69,
      "hit": false,
      "t": 44634.06599999999,
      "d": 731.7059999999983,
      "v": 100
    },
    {
      "midi": 72,
      "hit": false,
      "t": 44634.06599999999,
      "d": 731.7059999999983,
      "v": 100
    },
    {
      "midi": 64,
      "hit": false,
      "t": 45365.77199999999,
      "d": 731.7059999999983,
      "v": 100
    },
    {
      "midi": 69,
      "hit": false,
      "t": 45365.77199999999,
      "d": 731.7059999999983,
      "v": 100
    },
    {
      "midi": 72,
      "hit": false,
      "t": 45365.77199999999,
      "d": 731.7059999999983,
      "v": 100
    },
    {
      "midi": 64,
      "hit": false,
      "t": 46097.47799999999,
      "d": 731.7059999999983,
      "v": 100
    },
    {
      "midi": 69,
      "hit": false,
      "t": 46097.47799999999,
      "d": 731.7059999999983,
      "v": 100
    },
    {
      "midi": 72,
      "hit": false,
      "t": 46097.47799999999,
      "d": 731.7059999999983,
      "v": 100
    },
    {
      "midi": 57,
      "hit": false,
      "t": 46829.18399999999,
      "d": 243.90200000000186,
      "v": 100
    },
    {
      "midi": 64,
      "hit": false,
      "t": 46829.18399999999,
      "d": 731.7059999999983,
      "v": 100
    },
    {
      "midi": 69,
      "hit": false,
      "t": 46829.18399999999,
      "d": 731.7059999999983,
      "v": 100
    },
    {
      "midi": 72,
      "hit": false,
      "t": 46829.18399999999,
      "d": 731.7059999999983,
      "v": 100
    },
    {
      "midi": 64,
      "hit": false,
      "t": 47560.889999999985,
      "d": 731.7059999999983,
      "v": 100
    },
    {
      "midi": 69,
      "hit": false,
      "t": 47560.889999999985,
      "d": 731.7059999999983,
      "v": 100
    },
    {
      "midi": 72,
      "hit": false,
      "t": 47560.889999999985,
      "d": 731.7059999999983,
      "v": 100
    },
    {
      "midi": 64,
      "hit": false,
      "t": 48292.59599999998,
      "d": 731.7059999999983,
      "v": 100
    },
    {
      "midi": 69,
      "hit": false,
      "t": 48292.59599999998,
      "d": 731.7059999999983,
      "v": 100
    },
    {
      "midi": 72,
      "hit": false,
      "t": 48292.59599999998,
      "d": 731.7059999999983,
      "v": 100
    },
    {
      "midi": 64,
      "hit": false,
      "t": 49024.30199999998,
      "d": 731.7059999999983,
      "v": 100
    },
    {
      "midi": 69,
      "hit": false,
      "t": 49024.30199999998,
      "d": 731.7059999999983,
      "v": 100
    },
    {
      "midi": 72,
      "hit": false,
      "t": 49024.30199999998,
      "d": 731.7059999999983,
      "v": 100
    },
    {
      "midi": 55,
      "hit": false,
      "t": 49756.00799999998,
      "d": 243.90200000000186,
      "v": 100
    },
    {
      "midi": 62,
      "hit": false,
      "t": 49756.00799999998,
      "d": 731.7059999999983,
      "v": 100
    },
    {
      "midi": 67,
      "hit": false,
      "t": 49756.00799999998,
      "d": 731.7059999999983,
      "v": 100
    },
    {
      "midi": 71,
      "hit": false,
      "t": 49756.00799999998,
      "d": 731.7059999999983,
      "v": 100
    },
    {
      "midi": 62,
      "hit": false,
      "t": 50487.71399999998,
      "d": 731.7059999999983,
      "v": 100
    },
    {
      "midi": 67,
      "hit": false,
      "t": 50487.71399999998,
      "d": 731.7059999999983,
      "v": 100
    },
    {
      "midi": 71,
      "hit": false,
      "t": 50487.71399999998,
      "d": 731.7059999999983,
      "v": 100
    },
    {
      "midi": 62,
      "hit": false,
      "t": 51219.41999999998,
      "d": 731.7059999999983,
      "v": 100
    },
    {
      "midi": 67,
      "hit": false,
      "t": 51219.41999999998,
      "d": 731.7059999999983,
      "v": 100
    },
    {
      "midi": 71,
      "hit": false,
      "t": 51219.41999999998,
      "d": 731.7059999999983,
      "v": 100
    },
    {
      "midi": 62,
      "hit": false,
      "t": 51951.125999999975,
      "d": 731.7059999999983,
      "v": 100
    },
    {
      "midi": 67,
      "hit": false,
      "t": 51951.125999999975,
      "d": 731.7059999999983,
      "v": 100
    },
    {
      "midi": 71,
      "hit": false,
      "t": 51951.125999999975,
      "d": 731.7059999999983,
      "v": 100
    },
    {
      "midi": 62,
      "hit": false,
      "t": 52682.83199999997,
      "d": 731.7059999999983,
      "v": 100
    },
    {
      "midi": 67,
      "hit": false,
      "t": 52682.83199999997,
      "d": 731.7059999999983,
      "v": 100
    },
    {
      "midi": 71,
      "hit": false,
      "t": 52682.83199999997,
      "d": 731.7059999999983,
      "v": 100
    },
    {
      "midi": 62,
      "hit": false,
      "t": 53414.53799999997,
      "d": 731.7059999999983,
      "v": 100
    },
    {
      "midi": 67,
      "hit": false,
      "t": 53414.53799999997,
      "d": 731.7059999999983,
      "v": 100
    },
    {
      "midi": 71,
      "hit": false,
      "t": 53414.53799999997,
      "d": 731.7059999999983,
      "v": 100
    },
    {
      "midi": 62,
      "hit": false,
      "t": 54146.24399999997,
      "d": 731.7059999999983,
      "v": 100
    },
    {
      "midi": 67,
      "hit": false,
      "t": 54146.24399999997,
      "d": 731.7059999999983,
      "v": 100
    },
    {
      "midi": 71,
      "hit": false,
      "t": 54146.24399999997,
      "d": 731.7059999999983,
      "v": 100
    },
    {
      "midi": 62,
      "hit": false,
      "t": 54877.94999999997,
      "d": 731.7059999999983,
      "v": 100
    },
    {
      "midi": 67,
      "hit": false,
      "t": 54877.94999999997,
      "d": 731.7059999999983,
      "v": 100
    },
    {
      "midi": 71,
      "hit": false,
      "t": 54877.94999999997,
      "d": 731.7059999999983,
      "v": 100
    },
    {
      "midi": 53,
      "hit": false,
      "t": 55609.655999999966,
      "d": 243.90200000000186,
      "v": 100
    },
    {
      "midi": 60,
      "hit": false,
      "t": 55609.655999999966,
      "d": 731.7059999999983,
      "v": 100
    },
    {
      "midi": 65,
      "hit": false,
      "t": 55609.655999999966,
      "d": 731.7059999999983,
      "v": 100
    },
    {
      "midi": 69,
      "hit": false,
      "t": 55609.655999999966,
      "d": 731.7059999999983,
      "v": 100
    },
    {
      "midi": 60,
      "hit": false,
      "t": 56341.361999999965,
      "d": 731.7059999999983,
      "v": 100
    },
    {
      "midi": 65,
      "hit": false,
      "t": 56341.361999999965,
      "d": 731.7059999999983,
      "v": 100
    },
    {
      "midi": 69,
      "hit": false,
      "t": 56341.361999999965,
      "d": 731.7059999999983,
      "v": 100
    },
    {
      "midi": 60,
      "hit": false,
      "t": 57073.06799999996,
      "d": 731.7059999999983,
      "v": 100
    },
    {
      "midi": 65,
      "hit": false,
      "t": 57073.06799999996,
      "d": 731.7059999999983,
      "v": 100
    },
    {
      "midi": 69,
      "hit": false,
      "t": 57073.06799999996,
      "d": 731.7059999999983,
      "v": 100
    },
    {
      "midi": 60,
      "hit": false,
      "t": 57804.77399999996,
      "d": 731.7059999999983,
      "v": 100
    },
    {
      "midi": 65,
      "hit": false,
      "t": 57804.77399999996,
      "d": 731.7059999999983,
      "v": 100
    },
    {
      "midi": 69,
      "hit": false,
      "t": 57804.77399999996,
      "d": 731.7059999999983,
      "v": 100
    },
    {
      "midi": 60,
      "hit": false,
      "t": 58536.47999999996,
      "d": 731.7059999999983,
      "v": 100
    },
    {
      "midi": 65,
      "hit": false,
      "t": 58536.47999999996,
      "d": 731.7059999999983,
      "v": 100
    },
    {
      "midi": 69,
      "hit": false,
      "t": 58536.47999999996,
      "d": 731.7059999999983,
      "v": 100
    },
    {
      "midi": 60,
      "hit": false,
      "t": 59268.18599999996,
      "d": 731.7059999999983,
      "v": 100
    },
    {
      "midi": 65,
      "hit": false,
      "t": 59268.18599999996,
      "d": 731.7059999999983,
      "v": 100
    },
    {
      "midi": 69,
      "hit": false,
      "t": 59268.18599999996,
      "d": 731.7059999999983,
      "v": 100
    },
    {
      "midi": 60,
      "hit": false,
      "t": 59999.891999999956,
      "d": 731.7059999999983,
      "v": 100
    },
    {
      "midi": 65,
      "hit": false,
      "t": 59999.891999999956,
      "d": 731.7059999999983,
      "v": 100
    },
    {
      "midi": 69,
      "hit": false,
      "t": 59999.891999999956,
      "d": 731.7059999999983,
      "v": 100
    },
    {
      "midi": 60,
      "hit": false,
      "t": 60731.597999999954,
      "d": 731.7059999999983,
      "v": 100
    },
    {
      "midi": 65,
      "hit": false,
      "t": 60731.597999999954,
      "d": 731.7059999999983,
      "v": 100
    },
    {
      "midi": 69,
      "hit": false,
      "t": 60731.597999999954,
      "d": 731.7059999999983,
      "v": 100
    },
    {
      "midi": 52,
      "hit": false,
      "t": 61463.30399999995,
      "d": 243.90200000000186,
      "v": 100
    },
    {
      "midi": 64,
      "hit": false,
      "t": 61463.30399999995,
      "d": 731.7059999999983,
      "v": 100
    },
    {
      "midi": 68,
      "hit": false,
      "t": 61463.30399999995,
      "d": 731.7059999999983,
      "v": 100
    },
    {
      "midi": 71,
      "hit": false,
      "t": 61463.30399999995,
      "d": 731.7059999999983,
      "v": 100
    },
    {
      "midi": 64,
      "hit": false,
      "t": 62195.00999999995,
      "d": 731.7059999999983,
      "v": 100
    },
    {
      "midi": 68,
      "hit": false,
      "t": 62195.00999999995,
      "d": 731.7059999999983,
      "v": 100
    },
    {
      "midi": 71,
      "hit": false,
      "t": 62195.00999999995,
      "d": 731.7059999999983,
      "v": 100
    },
    {
      "midi": 64,
      "hit": false,
      "t": 62926.71599999995,
      "d": 731.7059999999983,
      "v": 100
    },
    {
      "midi": 68,
      "hit": false,
      "t": 62926.71599999995,
      "d": 731.7059999999983,
      "v": 100
    },
    {
      "midi": 71,
      "hit": false,
      "t": 62926.71599999995,
      "d": 731.7059999999983,
      "v": 100
    },
    {
      "midi": 64,
      "hit": false,
      "t": 63658.42199999995,
      "d": 731.7059999999983,
      "v": 100
    },
    {
      "midi": 68,
      "hit": false,
      "t": 63658.42199999995,
      "d": 731.7059999999983,
      "v": 100
    },
    {
      "midi": 71,
      "hit": false,
      "t": 63658.42199999995,
      "d": 731.7059999999983,
      "v": 100
    },
    {
      "midi": 64,
      "hit": false,
      "t": 64390.127999999946,
      "d": 731.7059999999983,
      "v": 100
    },
    {
      "midi": 68,
      "hit": false,
      "t": 64390.127999999946,
      "d": 731.7059999999983,
      "v": 100
    },
    {
      "midi": 71,
      "hit": false,
      "t": 64390.127999999946,
      "d": 731.7059999999983,
      "v": 100
    },
    {
      "midi": 64,
      "hit": false,
      "t": 65121.833999999944,
      "d": 731.7060000000056,
      "v": 100
    },
    {
      "midi": 68,
      "hit": false,
      "t": 65121.833999999944,
      "d": 731.7060000000056,
      "v": 100
    },
    {
      "midi": 71,
      "hit": false,
      "t": 65121.833999999944,
      "d": 731.7060000000056,
      "v": 100
    },
    {
      "midi": 64,
      "hit": false,
      "t": 65853.53999999995,
      "d": 731.7060000000056,
      "v": 100
    },
    {
      "midi": 68,
      "hit": false,
      "t": 65853.53999999995,
      "d": 731.7060000000056,
      "v": 100
    },
    {
      "midi": 71,
      "hit": false,
      "t": 65853.53999999995,
      "d": 731.7060000000056,
      "v": 100
    },
    {
      "midi": 64,
      "hit": false,
      "t": 66585.24599999996,
      "d": 731.7060000000056,
      "v": 100
    },
    {
      "midi": 68,
      "hit": false,
      "t": 66585.24599999996,
      "d": 731.7060000000056,
      "v": 100
    },
    {
      "midi": 71,
      "hit": false,
      "t": 66585.24599999996,
      "d": 731.7060000000056,
      "v": 100
    },
    {
      "midi": 57,
      "hit": false,
      "t": 67316.95199999996,
      "d": 243.90200000000186,
      "v": 100
    },
    {
      "midi": 64,
      "hit": false,
      "t": 67316.95199999996,
      "d": 731.7060000000056,
      "v": 100
    },
    {
      "midi": 69,
      "hit": false,
      "t": 67316.95199999996,
      "d": 731.7060000000056,
      "v": 100
    },
    {
      "midi": 72,
      "hit": false,
      "t": 67316.95199999996,
      "d": 731.7060000000056,
      "v": 100
    },
    {
      "midi": 64,
      "hit": false,
      "t": 68048.65799999997,
      "d": 731.7060000000056,
      "v": 100
    },
    {
      "midi": 69,
      "hit": false,
      "t": 68048.65799999997,
      "d": 731.7060000000056,
      "v": 100
    },
    {
      "midi": 72,
      "hit": false,
      "t": 68048.65799999997,
      "d": 731.7060000000056,
      "v": 100
    },
    {
      "midi": 64,
      "hit": false,
      "t": 68780.36399999997,
      "d": 731.7060000000056,
      "v": 100
    },
    {
      "midi": 69,
      "hit": false,
      "t": 68780.36399999997,
      "d": 731.7060000000056,
      "v": 100
    },
    {
      "midi": 72,
      "hit": false,
      "t": 68780.36399999997,
      "d": 731.7060000000056,
      "v": 100
    },
    {
      "midi": 64,
      "hit": false,
      "t": 69512.06999999998,
      "d": 731.7060000000056,
      "v": 100
    },
    {
      "midi": 69,
      "hit": false,
      "t": 69512.06999999998,
      "d": 731.7060000000056,
      "v": 100
    },
    {
      "midi": 72,
      "hit": false,
      "t": 69512.06999999998,
      "d": 731.7060000000056,
      "v": 100
    },
    {
      "midi": 55,
      "hit": false,
      "t": 70243.77599999998,
      "d": 243.90200000000186,
      "v": 100
    },
    {
      "midi": 62,
      "hit": false,
      "t": 70243.77599999998,
      "d": 731.7060000000056,
      "v": 100
    },
    {
      "midi": 67,
      "hit": false,
      "t": 70243.77599999998,
      "d": 731.7060000000056,
      "v": 100
    },
    {
      "midi": 71,
      "hit": false,
      "t": 70243.77599999998,
      "d": 731.7060000000056,
      "v": 100
    },
    {
      "midi": 62,
      "hit": false,
      "t": 70975.48199999999,
      "d": 731.7060000000056,
      "v": 100
    },
    {
      "midi": 67,
      "hit": false,
      "t": 70975.48199999999,
      "d": 731.7060000000056,
      "v": 100
    },
    {
      "midi": 71,
      "hit": false,
      "t": 70975.48199999999,
      "d": 731.7060000000056,
      "v": 100
    },
    {
      "midi": 62,
      "hit": false,
      "t": 71707.188,
      "d": 731.7060000000056,
      "v": 100
    },
    {
      "midi": 67,
      "hit": false,
      "t": 71707.188,
      "d": 731.7060000000056,
      "v": 100
    },
    {
      "midi": 71,
      "hit": false,
      "t": 71707.188,
      "d": 731.7060000000056,
      "v": 100
    },
    {
      "midi": 62,
      "hit": false,
      "t": 72438.894,
      "d": 731.7060000000056,
      "v": 100
    },
    {
      "midi": 67,
      "hit": false,
      "t": 72438.894,
      "d": 731.7060000000056,
      "v": 100
    },
    {
      "midi": 71,
      "hit": false,
      "t": 72438.894,
      "d": 731.7060000000056,
      "v": 100
    },
    {
      "midi": 62,
      "hit": false,
      "t": 73170.6,
      "d": 731.7060000000056,
      "v": 100
    },
    {
      "midi": 67,
      "hit": false,
      "t": 73170.6,
      "d": 731.7060000000056,
      "v": 100
    },
    {
      "midi": 71,
      "hit": false,
      "t": 73170.6,
      "d": 731.7060000000056,
      "v": 100
    },
    {
      "midi": 62,
      "hit": false,
      "t": 73902.30600000001,
      "d": 731.7060000000056,
      "v": 100
    },
    {
      "midi": 67,
      "hit": false,
      "t": 73902.30600000001,
      "d": 731.7060000000056,
      "v": 100
    },
    {
      "midi": 71,
      "hit": false,
      "t": 73902.30600000001,
      "d": 731.7060000000056,
      "v": 100
    },
    {
      "midi": 62,
      "hit": false,
      "t": 74634.01200000002,
      "d": 731.7060000000056,
      "v": 100
    },
    {
      "midi": 67,
      "hit": false,
      "t": 74634.01200000002,
      "d": 731.7060000000056,
      "v": 100
    },
    {
      "midi": 71,
      "hit": false,
      "t": 74634.01200000002,
      "d": 731.7060000000056,
      "v": 100
    },
    {
      "midi": 62,
      "hit": false,
      "t": 75365.71800000002,
      "d": 731.7060000000056,
      "v": 100
    },
    {
      "midi": 67,
      "hit": false,
      "t": 75365.71800000002,
      "d": 731.7060000000056,
      "v": 100
    },
    {
      "midi": 71,
      "hit": false,
      "t": 75365.71800000002,
      "d": 731.7060000000056,
      "v": 100
    },
    {
      "midi": 60,
      "hit": false,
      "t": 76097.42400000003,
      "d": 243.90200000000186,
      "v": 100
    },
    {
      "midi": 64,
      "hit": false,
      "t": 76097.42400000003,
      "d": 731.7060000000056,
      "v": 100
    },
    {
      "midi": 67,
      "hit": false,
      "t": 76097.42400000003,
      "d": 731.7060000000056,
      "v": 100
    },
    {
      "midi": 72,
      "hit": false,
      "t": 76097.42400000003,
      "d": 731.7060000000056,
      "v": 100
    },
    {
      "midi": 64,
      "hit": false,
      "t": 76829.13000000003,
      "d": 731.7060000000056,
      "v": 100
    },
    {
      "midi": 67,
      "hit": false,
      "t": 76829.13000000003,
      "d": 731.7060000000056,
      "v": 100
    },
    {
      "midi": 72,
      "hit": false,
      "t": 76829.13000000003,
      "d": 731.7060000000056,
      "v": 100
    },
    {
      "midi": 64,
      "hit": false,
      "t": 77560.83600000004,
      "d": 731.7060000000056,
      "v": 100
    },
    {
      "midi": 67,
      "hit": false,
      "t": 77560.83600000004,
      "d": 731.7060000000056,
      "v": 100
    },
    {
      "midi": 72,
      "hit": false,
      "t": 77560.83600000004,
      "d": 731.7060000000056,
      "v": 100
    },
    {
      "midi": 64,
      "hit": false,
      "t": 78292.54200000004,
      "d": 731.7060000000056,
      "v": 100
    },
    {
      "midi": 67,
      "hit": false,
      "t": 78292.54200000004,
      "d": 731.7060000000056,
      "v": 100
    },
    {
      "midi": 72,
      "hit": false,
      "t": 78292.54200000004,
      "d": 731.7060000000056,
      "v": 100
    },
    {
      "midi": 64,
      "hit": false,
      "t": 79024.24800000005,
      "d": 731.7060000000056,
      "v": 100
    },
    {
      "midi": 67,
      "hit": false,
      "t": 79024.24800000005,
      "d": 731.7060000000056,
      "v": 100
    },
    {
      "midi": 72,
      "hit": false,
      "t": 79024.24800000005,
      "d": 731.7060000000056,
      "v": 100
    },
    {
      "midi": 64,
      "hit": false,
      "t": 79755.95400000006,
      "d": 731.7060000000056,
      "v": 100
    },
    {
      "midi": 67,
      "hit": false,
      "t": 79755.95400000006,
      "d": 731.7060000000056,
      "v": 100
    },
    {
      "midi": 72,
      "hit": false,
      "t": 79755.95400000006,
      "d": 731.7060000000056,
      "v": 100
    },
    {
      "midi": 64,
      "hit": false,
      "t": 80487.66000000006,
      "d": 731.7060000000056,
      "v": 100
    },
    {
      "midi": 67,
      "hit": false,
      "t": 80487.66000000006,
      "d": 731.7060000000056,
      "v": 100
    },
    {
      "midi": 72,
      "hit": false,
      "t": 80487.66000000006,
      "d": 731.7060000000056,
      "v": 100
    },
    {
      "midi": 64,
      "hit": false,
      "t": 81219.36600000007,
      "d": 731.7060000000056,
      "v": 100
    },
    {
      "midi": 67,
      "hit": false,
      "t": 81219.36600000007,
      "d": 731.7060000000056,
      "v": 100
    },
    {
      "midi": 72,
      "hit": false,
      "t": 81219.36600000007,
      "d": 731.7060000000056,
      "v": 100
    },
    {
      "midi": 50,
      "hit": false,
      "t": 81951.07200000007,
      "d": 243.90200000000186,
      "v": 100
    },
    {
      "midi": 62,
      "hit": false,
      "t": 81951.07200000007,
      "d": 731.7060000000056,
      "v": 100
    },
    {
      "midi": 65,
      "hit": false,
      "t": 81951.07200000007,
      "d": 731.7060000000056,
      "v": 100
    },
    {
      "midi": 69,
      "hit": false,
      "t": 81951.07200000007,
      "d": 731.7060000000056,
      "v": 100
    },
    {
      "midi": 62,
      "hit": false,
      "t": 82682.77800000008,
      "d": 731.7060000000056,
      "v": 100
    },
    {
      "midi": 65,
      "hit": false,
      "t": 82682.77800000008,
      "d": 731.7060000000056,
      "v": 100
    },
    {
      "midi": 69,
      "hit": false,
      "t": 82682.77800000008,
      "d": 731.7060000000056,
      "v": 100
    },
    {
      "midi": 62,
      "hit": false,
      "t": 83414.48400000008,
      "d": 731.7060000000056,
      "v": 100
    },
    {
      "midi": 65,
      "hit": false,
      "t": 83414.48400000008,
      "d": 731.7060000000056,
      "v": 100
    },
    {
      "midi": 69,
      "hit": false,
      "t": 83414.48400000008,
      "d": 731.7060000000056,
      "v": 100
    },
    {
      "midi": 62,
      "hit": false,
      "t": 84146.19000000009,
      "d": 731.7060000000056,
      "v": 100
    },
    {
      "midi": 65,
      "hit": false,
      "t": 84146.19000000009,
      "d": 731.7060000000056,
      "v": 100
    },
    {
      "midi": 69,
      "hit": false,
      "t": 84146.19000000009,
      "d": 731.7060000000056,
      "v": 100
    },
    {
      "midi": 62,
      "hit": false,
      "t": 84877.8960000001,
      "d": 731.7060000000056,
      "v": 100
    },
    {
      "midi": 65,
      "hit": false,
      "t": 84877.8960000001,
      "d": 731.7060000000056,
      "v": 100
    },
    {
      "midi": 69,
      "hit": false,
      "t": 84877.8960000001,
      "d": 731.7060000000056,
      "v": 100
    },
    {
      "midi": 62,
      "hit": false,
      "t": 85609.6020000001,
      "d": 731.7060000000056,
      "v": 100
    },
    {
      "midi": 65,
      "hit": false,
      "t": 85609.6020000001,
      "d": 731.7060000000056,
      "v": 100
    },
    {
      "midi": 69,
      "hit": false,
      "t": 85609.6020000001,
      "d": 731.7060000000056,
      "v": 100
    },
    {
      "midi": 62,
      "hit": false,
      "t": 86341.3080000001,
      "d": 731.7060000000056,
      "v": 100
    },
    {
      "midi": 65,
      "hit": false,
      "t": 86341.3080000001,
      "d": 731.7060000000056,
      "v": 100
    },
    {
      "midi": 69,
      "hit": false,
      "t": 86341.3080000001,
      "d": 731.7060000000056,
      "v": 100
    },
    {
      "midi": 62,
      "hit": false,
      "t": 87073.01400000011,
      "d": 731.7060000000056,
      "v": 100
    },
    {
      "midi": 65,
      "hit": false,
      "t": 87073.01400000011,
      "d": 731.7060000000056,
      "v": 100
    },
    {
      "midi": 69,
      "hit": false,
      "t": 87073.01400000011,
      "d": 731.7060000000056,
      "v": 100
    },
    {
      "midi": 52,
      "hit": false,
      "t": 87804.72000000012,
      "d": 243.90200000000186,
      "v": 100
    },
    {
      "midi": 64,
      "hit": false,
      "t": 87804.72000000012,
      "d": 731.7060000000056,
      "v": 100
    },
    {
      "midi": 68,
      "hit": false,
      "t": 87804.72000000012,
      "d": 731.7060000000056,
      "v": 100
    },
    {
      "midi": 71,
      "hit": false,
      "t": 87804.72000000012,
      "d": 731.7060000000056,
      "v": 100
    },
    {
      "midi": 64,
      "hit": false,
      "t": 88536.42600000012,
      "d": 731.7060000000056,
      "v": 100
    },
    {
      "midi": 68,
      "hit": false,
      "t": 88536.42600000012,
      "d": 731.7060000000056,
      "v": 100
    },
    {
      "midi": 71,
      "hit": false,
      "t": 88536.42600000012,
      "d": 731.7060000000056,
      "v": 100
    },
    {
      "midi": 64,
      "hit": false,
      "t": 89268.13200000013,
      "d": 731.7060000000056,
      "v": 100
    },
    {
      "midi": 68,
      "hit": false,
      "t": 89268.13200000013,
      "d": 731.7060000000056,
      "v": 100
    },
    {
      "midi": 71,
      "hit": false,
      "t": 89268.13200000013,
      "d": 731.7060000000056,
      "v": 100
    },
    {
      "midi": 64,
      "hit": false,
      "t": 89999.83800000013,
      "d": 731.7060000000056,
      "v": 100
    },
    {
      "midi": 68,
      "hit": false,
      "t": 89999.83800000013,
      "d": 731.7060000000056,
      "v": 100
    },
    {
      "midi": 71,
      "hit": false,
      "t": 89999.83800000013,
      "d": 731.7060000000056,
      "v": 100
    },
    {
      "midi": 64,
      "hit": false,
      "t": 90731.54400000014,
      "d": 731.7060000000056,
      "v": 100
    },
    {
      "midi": 68,
      "hit": false,
      "t": 90731.54400000014,
      "d": 731.7060000000056,
      "v": 100
    },
    {
      "midi": 71,
      "hit": false,
      "t": 90731.54400000014,
      "d": 731.7060000000056,
      "v": 100
    },
    {
      "midi": 64,
      "hit": false,
      "t": 91463.25000000015,
      "d": 731.7060000000056,
      "v": 100
    },
    {
      "midi": 68,
      "hit": false,
      "t": 91463.25000000015,
      "d": 731.7060000000056,
      "v": 100
    },
    {
      "midi": 71,
      "hit": false,
      "t": 91463.25000000015,
      "d": 731.7060000000056,
      "v": 100
    },
    {
      "midi": 64,
      "hit": false,
      "t": 92194.95600000015,
      "d": 731.7060000000056,
      "v": 100
    },
    {
      "midi": 68,
      "hit": false,
      "t": 92194.95600000015,
      "d": 731.7060000000056,
      "v": 100
    },
    {
      "midi": 71,
      "hit": false,
      "t": 92194.95600000015,
      "d": 731.7060000000056,
      "v": 100
    },
    {
      "midi": 64,
      "hit": false,
      "t": 92926.66200000016,
      "d": 731.7060000000056,
      "v": 100
    },
    {
      "midi": 68,
      "hit": false,
      "t": 92926.66200000016,
      "d": 731.7060000000056,
      "v": 100
    },
    {
      "midi": 71,
      "hit": false,
      "t": 92926.66200000016,
      "d": 731.7060000000056,
      "v": 100
    },
    {
      "midi": 57,
      "hit": false,
      "t": 93658.36800000016,
      "d": 243.90200000000186,
      "v": 100
    },
    {
      "midi": 64,
      "hit": false,
      "t": 93658.36800000016,
      "d": 731.7060000000056,
      "v": 100
    },
    {
      "midi": 69,
      "hit": false,
      "t": 93658.36800000016,
      "d": 731.7060000000056,
      "v": 100
    },
    {
      "midi": 72,
      "hit": false,
      "t": 93658.36800000016,
      "d": 731.7060000000056,
      "v": 100
    },
    {
      "midi": 64,
      "hit": false,
      "t": 94390.07400000017,
      "d": 731.7060000000056,
      "v": 100
    },
    {
      "midi": 69,
      "hit": false,
      "t": 94390.07400000017,
      "d": 731.7060000000056,
      "v": 100
    },
    {
      "midi": 72,
      "hit": false,
      "t": 94390.07400000017,
      "d": 731.7060000000056,
      "v": 100
    },
    {
      "midi": 64,
      "hit": false,
      "t": 95121.78000000017,
      "d": 731.7060000000056,
      "v": 100
    },
    {
      "midi": 69,
      "hit": false,
      "t": 95121.78000000017,
      "d": 731.7060000000056,
      "v": 100
    },
    {
      "midi": 72,
      "hit": false,
      "t": 95121.78000000017,
      "d": 731.7060000000056,
      "v": 100
    },
    {
      "midi": 64,
      "hit": false,
      "t": 95853.48600000018,
      "d": 731.7060000000056,
      "v": 100
    },
    {
      "midi": 69,
      "hit": false,
      "t": 95853.48600000018,
      "d": 731.7060000000056,
      "v": 100
    },
    {
      "midi": 72,
      "hit": false,
      "t": 95853.48600000018,
      "d": 731.7060000000056,
      "v": 100
    },
    {
      "midi": 57,
      "hit": false,
      "t": 96585.19200000018,
      "d": 243.90200000000186,
      "v": 100
    },
    {
      "midi": 64,
      "hit": false,
      "t": 96585.19200000018,
      "d": 731.7060000000056,
      "v": 100
    },
    {
      "midi": 69,
      "hit": false,
      "t": 96585.19200000018,
      "d": 731.7060000000056,
      "v": 100
    },
    {
      "midi": 72,
      "hit": false,
      "t": 96585.19200000018,
      "d": 731.7060000000056,
      "v": 100
    },
    {
      "midi": 64,
      "hit": false,
      "t": 97316.89800000019,
      "d": 731.7060000000056,
      "v": 100
    },
    {
      "midi": 69,
      "hit": false,
      "t": 97316.89800000019,
      "d": 731.7060000000056,
      "v": 100
    },
    {
      "midi": 72,
      "hit": false,
      "t": 97316.89800000019,
      "d": 731.7060000000056,
      "v": 100
    },
    {
      "midi": 64,
      "hit": false,
      "t": 98048.6040000002,
      "d": 731.7060000000056,
      "v": 100
    },
    {
      "midi": 69,
      "hit": false,
      "t": 98048.6040000002,
      "d": 731.7060000000056,
      "v": 100
    },
    {
      "midi": 72,
      "hit": false,
      "t": 98048.6040000002,
      "d": 731.7060000000056,
      "v": 100
    },
    {
      "midi": 64,
      "hit": false,
      "t": 98780.3100000002,
      "d": 731.7060000000056,
      "v": 100
    },
    {
      "midi": 69,
      "hit": false,
      "t": 98780.3100000002,
      "d": 731.7060000000056,
      "v": 100
    },
    {
      "midi": 72,
      "hit": false,
      "t": 98780.3100000002,
      "d": 731.7060000000056,
      "v": 100
    },
    {
      "midi": 55,
      "hit": false,
      "t": 99512.0160000002,
      "d": 243.90200000000186,
      "v": 100
    },
    {
      "midi": 62,
      "hit": false,
      "t": 99512.0160000002,
      "d": 731.7060000000056,
      "v": 100
    },
    {
      "midi": 67,
      "hit": false,
      "t": 99512.0160000002,
      "d": 731.7060000000056,
      "v": 100
    },
    {
      "midi": 71,
      "hit": false,
      "t": 99512.0160000002,
      "d": 731.7060000000056,
      "v": 100
    },
    {
      "midi": 62,
      "hit": false,
      "t": 100243.72200000021,
      "d": 731.7060000000056,
      "v": 100
    },
    {
      "midi": 67,
      "hit": false,
      "t": 100243.72200000021,
      "d": 731.7060000000056,
      "v": 100
    },
    {
      "midi": 71,
      "hit": false,
      "t": 100243.72200000021,
      "d": 731.7060000000056,
      "v": 100
    },
    {
      "midi": 62,
      "hit": false,
      "t": 100975.42800000022,
      "d": 731.7060000000056,
      "v": 100
    },
    {
      "midi": 67,
      "hit": false,
      "t": 100975.42800000022,
      "d": 731.7060000000056,
      "v": 100
    },
    {
      "midi": 71,
      "hit": false,
      "t": 100975.42800000022,
      "d": 731.7060000000056,
      "v": 100
    },
    {
      "midi": 62,
      "hit": false,
      "t": 101707.13400000022,
      "d": 731.7060000000056,
      "v": 100
    },
    {
      "midi": 67,
      "hit": false,
      "t": 101707.13400000022,
      "d": 731.7060000000056,
      "v": 100
    },
    {
      "midi": 71,
      "hit": false,
      "t": 101707.13400000022,
      "d": 731.7060000000056,
      "v": 100
    },
    {
      "midi": 62,
      "hit": false,
      "t": 102438.84000000023,
      "d": 731.7060000000056,
      "v": 100
    },
    {
      "midi": 67,
      "hit": false,
      "t": 102438.84000000023,
      "d": 731.7060000000056,
      "v": 100
    },
    {
      "midi": 71,
      "hit": false,
      "t": 102438.84000000023,
      "d": 731.7060000000056,
      "v": 100
    },
    {
      "midi": 62,
      "hit": false,
      "t": 103170.54600000023,
      "d": 731.7060000000056,
      "v": 100
    },
    {
      "midi": 67,
      "hit": false,
      "t": 103170.54600000023,
      "d": 731.7060000000056,
      "v": 100
    },
    {
      "midi": 71,
      "hit": false,
      "t": 103170.54600000023,
      "d": 731.7060000000056,
      "v": 100
    },
    {
      "midi": 62,
      "hit": false,
      "t": 103902.25200000024,
      "d": 731.7060000000056,
      "v": 100
    },
    {
      "midi": 67,
      "hit": false,
      "t": 103902.25200000024,
      "d": 731.7060000000056,
      "v": 100
    },
    {
      "midi": 71,
      "hit": false,
      "t": 103902.25200000024,
      "d": 731.7060000000056,
      "v": 100
    },
    {
      "midi": 62,
      "hit": false,
      "t": 104633.95800000025,
      "d": 731.7060000000056,
      "v": 100
    },
    {
      "midi": 67,
      "hit": false,
      "t": 104633.95800000025,
      "d": 731.7060000000056,
      "v": 100
    },
    {
      "midi": 71,
      "hit": false,
      "t": 104633.95800000025,
      "d": 731.7060000000056,
      "v": 100
    },
    {
      "midi": 53,
      "hit": false,
      "t": 105365.66400000025,
      "d": 243.90200000000186,
      "v": 100
    },
    {
      "midi": 60,
      "hit": false,
      "t": 105365.66400000025,
      "d": 731.7060000000056,
      "v": 100
    },
    {
      "midi": 65,
      "hit": false,
      "t": 105365.66400000025,
      "d": 731.7060000000056,
      "v": 100
    },
    {
      "midi": 69,
      "hit": false,
      "t": 105365.66400000025,
      "d": 731.7060000000056,
      "v": 100
    },
    {
      "midi": 60,
      "hit": false,
      "t": 106097.37000000026,
      "d": 731.7060000000056,
      "v": 100
    },
    {
      "midi": 65,
      "hit": false,
      "t": 106097.37000000026,
      "d": 731.7060000000056,
      "v": 100
    },
    {
      "midi": 69,
      "hit": false,
      "t": 106097.37000000026,
      "d": 731.7060000000056,
      "v": 100
    },
    {
      "midi": 60,
      "hit": false,
      "t": 106829.07600000026,
      "d": 731.7060000000056,
      "v": 100
    },
    {
      "midi": 65,
      "hit": false,
      "t": 106829.07600000026,
      "d": 731.7060000000056,
      "v": 100
    },
    {
      "midi": 69,
      "hit": false,
      "t": 106829.07600000026,
      "d": 731.7060000000056,
      "v": 100
    },
    {
      "midi": 60,
      "hit": false,
      "t": 107560.78200000027,
      "d": 731.7060000000056,
      "v": 100
    },
    {
      "midi": 65,
      "hit": false,
      "t": 107560.78200000027,
      "d": 731.7060000000056,
      "v": 100
    },
    {
      "midi": 69,
      "hit": false,
      "t": 107560.78200000027,
      "d": 731.7060000000056,
      "v": 100
    },
    {
      "midi": 60,
      "hit": false,
      "t": 108292.48800000027,
      "d": 731.7060000000056,
      "v": 100
    },
    {
      "midi": 65,
      "hit": false,
      "t": 108292.48800000027,
      "d": 731.7060000000056,
      "v": 100
    },
    {
      "midi": 69,
      "hit": false,
      "t": 108292.48800000027,
      "d": 731.7060000000056,
      "v": 100
    },
    {
      "midi": 60,
      "hit": false,
      "t": 109024.19400000028,
      "d": 731.7060000000056,
      "v": 100
    },
    {
      "midi": 65,
      "hit": false,
      "t": 109024.19400000028,
      "d": 731.7060000000056,
      "v": 100
    },
    {
      "midi": 69,
      "hit": false,
      "t": 109024.19400000028,
      "d": 731.7060000000056,
      "v": 100
    },
    {
      "midi": 60,
      "hit": false,
      "t": 109755.90000000029,
      "d": 731.7060000000056,
      "v": 100
    },
    {
      "midi": 65,
      "hit": false,
      "t": 109755.90000000029,
      "d": 731.7060000000056,
      "v": 100
    },
    {
      "midi": 69,
      "hit": false,
      "t": 109755.90000000029,
      "d": 731.7060000000056,
      "v": 100
    },
    {
      "midi": 60,
      "hit": false,
      "t": 110487.60600000029,
      "d": 731.7060000000056,
      "v": 100
    },
    {
      "midi": 65,
      "hit": false,
      "t": 110487.60600000029,
      "d": 731.7060000000056,
      "v": 100
    },
    {
      "midi": 69,
      "hit": false,
      "t": 110487.60600000029,
      "d": 731.7060000000056,
      "v": 100
    },
    {
      "midi": 52,
      "hit": false,
      "t": 111219.3120000003,
      "d": 243.90200000000186,
      "v": 100
    },
    {
      "midi": 64,
      "hit": false,
      "t": 111219.3120000003,
      "d": 731.7060000000056,
      "v": 100
    },
    {
      "midi": 68,
      "hit": false,
      "t": 111219.3120000003,
      "d": 731.7060000000056,
      "v": 100
    },
    {
      "midi": 71,
      "hit": false,
      "t": 111219.3120000003,
      "d": 731.7060000000056,
      "v": 100
    },
    {
      "midi": 64,
      "hit": false,
      "t": 111951.0180000003,
      "d": 731.7060000000056,
      "v": 100
    },
    {
      "midi": 68,
      "hit": false,
      "t": 111951.0180000003,
      "d": 731.7060000000056,
      "v": 100
    },
    {
      "midi": 71,
      "hit": false,
      "t": 111951.0180000003,
      "d": 731.7060000000056,
      "v": 100
    },
    {
      "midi": 64,
      "hit": false,
      "t": 112682.72400000031,
      "d": 731.7060000000056,
      "v": 100
    },
    {
      "midi": 68,
      "hit": false,
      "t": 112682.72400000031,
      "d": 731.7060000000056,
      "v": 100
    },
    {
      "midi": 71,
      "hit": false,
      "t": 112682.72400000031,
      "d": 731.7060000000056,
      "v": 100
    },
    {
      "midi": 64,
      "hit": false,
      "t": 113414.43000000031,
      "d": 731.7060000000056,
      "v": 100
    },
    {
      "midi": 68,
      "hit": false,
      "t": 113414.43000000031,
      "d": 731.7060000000056,
      "v": 100
    },
    {
      "midi": 71,
      "hit": false,
      "t": 113414.43000000031,
      "d": 731.7060000000056,
      "v": 100
    },
    {
      "midi": 64,
      "hit": false,
      "t": 114146.13600000032,
      "d": 731.7060000000056,
      "v": 100
    },
    {
      "midi": 68,
      "hit": false,
      "t": 114146.13600000032,
      "d": 731.7060000000056,
      "v": 100
    },
    {
      "midi": 71,
      "hit": false,
      "t": 114146.13600000032,
      "d": 731.7060000000056,
      "v": 100
    },
    {
      "midi": 64,
      "hit": false,
      "t": 114877.84200000032,
      "d": 731.7060000000056,
      "v": 100
    },
    {
      "midi": 68,
      "hit": false,
      "t": 114877.84200000032,
      "d": 731.7060000000056,
      "v": 100
    },
    {
      "midi": 71,
      "hit": false,
      "t": 114877.84200000032,
      "d": 731.7060000000056,
      "v": 100
    },
    {
      "midi": 64,
      "hit": false,
      "t": 115609.54800000033,
      "d": 731.7060000000056,
      "v": 100
    },
    {
      "midi": 68,
      "hit": false,
      "t": 115609.54800000033,
      "d": 731.7060000000056,
      "v": 100
    },
    {
      "midi": 71,
      "hit": false,
      "t": 115609.54800000033,
      "d": 731.7060000000056,
      "v": 100
    },
    {
      "midi": 64,
      "hit": false,
      "t": 116341.25400000034,
      "d": 731.7060000000056,
      "v": 100
    },
    {
      "midi": 68,
      "hit": false,
      "t": 116341.25400000034,
      "d": 731.7060000000056,
      "v": 100
    },
    {
      "midi": 71,
      "hit": false,
      "t": 116341.25400000034,
      "d": 731.7060000000056,
      "v": 100
    },
    {
      "midi": 64,
      "hit": false,
      "t": 117072.96000000034,
      "d": 731.7060000000056,
      "v": 100
    },
    {
      "midi": 69,
      "hit": false,
      "t": 117072.96000000034,
      "d": 731.7060000000056,
      "v": 100
    },
    {
      "midi": 72,
      "hit": false,
      "t": 117072.96000000034,
      "d": 731.7060000000056,
      "v": 100
    },
    {
      "midi": 64,
      "hit": false,
      "t": 117804.66600000035,
      "d": 731.7060000000056,
      "v": 100
    },
    {
      "midi": 69,
      "hit": false,
      "t": 117804.66600000035,
      "d": 731.7060000000056,
      "v": 100
    },
    {
      "midi": 72,
      "hit": false,
      "t": 117804.66600000035,
      "d": 731.7060000000056,
      "v": 100
    },
    {
      "midi": 64,
      "hit": false,
      "t": 118536.37200000035,
      "d": 731.7060000000056,
      "v": 100
    },
    {
      "midi": 69,
      "hit": false,
      "t": 118536.37200000035,
      "d": 731.7060000000056,
      "v": 100
    },
    {
      "midi": 72,
      "hit": false,
      "t": 118536.37200000035,
      "d": 731.7060000000056,
      "v": 100
    },
    {
      "midi": 64,
      "hit": false,
      "t": 119268.07800000036,
      "d": 731.7060000000056,
      "v": 100
    },
    {
      "midi": 69,
      "hit": false,
      "t": 119268.07800000036,
      "d": 731.7060000000056,
      "v": 100
    },
    {
      "midi": 72,
      "hit": false,
      "t": 119268.07800000036,
      "d": 731.7060000000056,
      "v": 100
    },
    {
      "midi": 64,
      "hit": false,
      "t": 119999.78400000036,
      "d": 731.7060000000056,
      "v": 100
    },
    {
      "midi": 69,
      "hit": false,
      "t": 119999.78400000036,
      "d": 731.7060000000056,
      "v": 100
    },
    {
      "midi": 72,
      "hit": false,
      "t": 119999.78400000036,
      "d": 731.7060000000056,
      "v": 100
    },
    {
      "midi": 64,
      "hit": false,
      "t": 120731.49000000037,
      "d": 731.7060000000056,
      "v": 100
    },
    {
      "midi": 69,
      "hit": false,
      "t": 120731.49000000037,
      "d": 731.7060000000056,
      "v": 100
    },
    {
      "midi": 72,
      "hit": false,
      "t": 120731.49000000037,
      "d": 731.7060000000056,
      "v": 100
    },
    {
      "midi": 64,
      "hit": false,
      "t": 121463.19600000037,
      "d": 731.7060000000056,
      "v": 100
    },
    {
      "midi": 69,
      "hit": false,
      "t": 121463.19600000037,
      "d": 731.7060000000056,
      "v": 100
    },
    {
      "midi": 72,
      "hit": false,
      "t": 121463.19600000037,
      "d": 731.7060000000056,
      "v": 100
    },
    {
      "midi": 64,
      "hit": false,
      "t": 122194.90200000038,
      "d": 731.7060000000056,
      "v": 100
    },
    {
      "midi": 69,
      "hit": false,
      "t": 122194.90200000038,
      "d": 731.7060000000056,
      "v": 100
    },
    {
      "midi": 72,
      "hit": false,
      "t": 122194.90200000038,
      "d": 731.7060000000056,
      "v": 100
    },
    {
      "midi": 57,
      "hit": false,
      "t": 122926.60800000039,
      "d": 243.90200000000186,
      "v": 100
    },
    {
      "midi": 72,
      "hit": false,
      "t": 122926.60800000039,
      "d": 731.7060000000056,
      "v": 100
    },
    {
      "midi": 64,
      "hit": false,
      "t": 123170.51000000039,
      "d": 243.90200000000186,
      "v": 100
    },
    {
      "midi": 69,
      "hit": false,
      "t": 123414.41200000039,
      "d": 243.90200000000186,
      "v": 100
    },
    {
      "midi": 72,
      "hit": false,
      "t": 123658.31400000039,
      "d": 243.90200000000186,
      "v": 100
    },
    {
      "midi": 69,
      "hit": false,
      "t": 123902.2160000004,
      "d": 243.90200000000186,
      "v": 100
    },
    {
      "midi": 64,
      "hit": false,
      "t": 124146.1180000004,
      "d": 243.90200000000186,
      "v": 100
    },
    {
      "midi": 57,
      "hit": false,
      "t": 124390.0200000004,
      "d": 243.90200000000186,
      "v": 100
    },
    {
      "midi": 72,
      "hit": false,
      "t": 124390.0200000004,
      "d": 731.7060000000056,
      "v": 100
    },
    {
      "midi": 64,
      "hit": false,
      "t": 124633.9220000004,
      "d": 243.90200000000186,
      "v": 100
    },
    {
      "midi": 69,
      "hit": false,
      "t": 124877.8240000004,
      "d": 243.90200000000186,
      "v": 100
    },
    {
      "midi": 72,
      "hit": false,
      "t": 125121.7260000004,
      "d": 243.90200000000186,
      "v": 100
    },
    {
      "midi": 69,
      "hit": false,
      "t": 125365.6280000004,
      "d": 243.90200000000186,
      "v": 100
    },
    {
      "midi": 64,
      "hit": false,
      "t": 125609.5300000004,
      "d": 243.90200000000186,
      "v": 100
    },
    {
      "midi": 55,
      "hit": false,
      "t": 125853.43200000041,
      "d": 243.90200000000186,
      "v": 100
    },
    {
      "midi": 71,
      "hit": false,
      "t": 125853.43200000041,
      "d": 731.7060000000056,
      "v": 100
    },
    {
      "midi": 62,
      "hit": false,
      "t": 126097.33400000041,
      "d": 243.90200000000186,
      "v": 100
    },
    {
      "midi": 67,
      "hit": false,
      "t": 126341.23600000041,
      "d": 243.90200000000186,
      "v": 100
    },
    {
      "midi": 71,
      "hit": false,
      "t": 126585.13800000041,
      "d": 243.90200000000186,
      "v": 100
    },
    {
      "midi": 67,
      "hit": false,
      "t": 126829.04000000042,
      "d": 243.90200000000186,
      "v": 100
    },
    {
      "midi": 62,
      "hit": false,
      "t": 127072.94200000042,
      "d": 243.90200000000186,
      "v": 100
    },
    {
      "midi": 55,
      "hit": false,
      "t": 127316.84400000042,
      "d": 243.90200000000186,
      "v": 100
    },
    {
      "midi": 71,
      "hit": false,
      "t": 127316.84400000042,
      "d": 731.7060000000056,
      "v": 100
    },
    {
      "midi": 62,
      "hit": false,
      "t": 127560.74600000042,
      "d": 243.90200000000186,
      "v": 100
    },
    {
      "midi": 67,
      "hit": false,
      "t": 127804.64800000042,
      "d": 243.90200000000186,
      "v": 100
    },
    {
      "midi": 71,
      "hit": false,
      "t": 128048.55000000042,
      "d": 243.90200000000186,
      "v": 100
    },
    {
      "midi": 67,
      "hit": false,
      "t": 128292.45200000043,
      "d": 243.90200000000186,
      "v": 100
    },
    {
      "midi": 64,
      "hit": false,
      "t": 128536.35400000043,
      "d": 243.90200000000186,
      "v": 100
    },
    {
      "midi": 53,
      "hit": false,
      "t": 128780.25600000043,
      "d": 243.90200000000186,
      "v": 100
    },
    {
      "midi": 69,
      "hit": false,
      "t": 128780.25600000043,
      "d": 731.7060000000056,
      "v": 100
    },
    {
      "midi": 60,
      "hit": false,
      "t": 129024.15800000043,
      "d": 243.90200000000186,
      "v": 100
    },
    {
      "midi": 65,
      "hit": false,
      "t": 129268.06000000043,
      "d": 243.90200000000186,
      "v": 100
    },
    {
      "midi": 69,
      "hit": false,
      "t": 129511.96200000044,
      "d": 243.90200000000186,
      "v": 100
    },
    {
      "midi": 65,
      "hit": false,
      "t": 129755.86400000044,
      "d": 243.90200000000186,
      "v": 100
    },
    {
      "midi": 60,
      "hit": false,
      "t": 129999.76600000044,
      "d": 243.90200000000186,
      "v": 100
    },
    {
      "midi": 53,
      "hit": false,
      "t": 130243.66800000044,
      "d": 243.90200000000186,
      "v": 100
    },
    {
      "midi": 69,
      "hit": false,
      "t": 130243.66800000044,
      "d": 731.7060000000056,
      "v": 100
    },
    {
      "midi": 60,
      "hit": false,
      "t": 130487.57000000044,
      "d": 243.90200000000186,
      "v": 100
    },
    {
      "midi": 65,
      "hit": false,
      "t": 130731.47200000045,
      "d": 243.90200000000186,
      "v": 100
    },
    {
      "midi": 69,
      "hit": false,
      "t": 130975.37400000045,
      "d": 243.90200000000186,
      "v": 100
    },
    {
      "midi": 65,
      "hit": false,
      "t": 131219.27600000045,
      "d": 243.90200000000186,
      "v": 100
    },
    {
      "midi": 60,
      "hit": false,
      "t": 131463.17800000045,
      "d": 243.90200000000186,
      "v": 100
    },
    {
      "midi": 52,
      "hit": false,
      "t": 131707.08000000045,
      "d": 243.90200000000186,
      "v": 100
    },
    {
      "midi": 71,
      "hit": false,
      "t": 131707.08000000045,
      "d": 731.7060000000056,
      "v": 100
    },
    {
      "midi": 64,
      "hit": false,
      "t": 131950.98200000045,
      "d": 243.90200000000186,
      "v": 100
    },
    {
      "midi": 68,
      "hit": false,
      "t": 132194.88400000046,
      "d": 243.90200000000186,
      "v": 100
    },
    {
      "midi": 71,
      "hit": false,
      "t": 132438.78600000046,
      "d": 243.90200000000186,
      "v": 100
    },
    {
      "midi": 68,
      "hit": false,
      "t": 132682.68800000046,
      "d": 243.90200000000186,
      "v": 100
    },
    {
      "midi": 64,
      "hit": false,
      "t": 132926.59000000046,
      "d": 243.90200000000186,
      "v": 100
    },
    {
      "midi": 52,
      "hit": false,
      "t": 133170.49200000046,
      "d": 243.90200000000186,
      "v": 100
    },
    {
      "midi": 71,
      "hit": false,
      "t": 133170.49200000046,
      "d": 731.7060000000056,
      "v": 100
    },
    {
      "midi": 64,
      "hit": false,
      "t": 133414.39400000047,
      "d": 243.90200000000186,
      "v": 100
    },
    {
      "midi": 68,
      "hit": false,
      "t": 133658.29600000047,
      "d": 243.90200000000186,
      "v": 100
    },
    {
      "midi": 71,
      "hit": false,
      "t": 133902.19800000047,
      "d": 243.90200000000186,
      "v": 100
    },
    {
      "midi": 68,
      "hit": false,
      "t": 134146.10000000047,
      "d": 243.90200000000186,
      "v": 100
    },
    {
      "midi": 64,
      "hit": false,
      "t": 134390.00200000047,
      "d": 243.90200000000186,
      "v": 100
    },
    {
      "midi": 52,
      "hit": false,
      "t": 134633.90400000048,
      "d": 243.90200000000186,
      "v": 100
    },
    {
      "midi": 71,
      "hit": false,
      "t": 134633.90400000048,
      "d": 731.7060000000056,
      "v": 100
    },
    {
      "midi": 64,
      "hit": false,
      "t": 134877.80600000048,
      "d": 243.90200000000186,
      "v": 100
    },
    {
      "midi": 68,
      "hit": false,
      "t": 135121.70800000048,
      "d": 243.90200000000186,
      "v": 100
    },
    {
      "midi": 71,
      "hit": false,
      "t": 135365.61000000048,
      "d": 243.90200000000186,
      "v": 100
    },
    {
      "midi": 68,
      "hit": false,
      "t": 135609.51200000048,
      "d": 243.90200000000186,
      "v": 100
    },
    {
      "midi": 64,
      "hit": false,
      "t": 135853.41400000048,
      "d": 243.90200000000186,
      "v": 100
    },
    {
      "midi": 52,
      "hit": false,
      "t": 136097.3160000005,
      "d": 243.90200000000186,
      "v": 100
    },
    {
      "midi": 71,
      "hit": false,
      "t": 136097.3160000005,
      "d": 731.7060000000056,
      "v": 100
    },
    {
      "midi": 64,
      "hit": false,
      "t": 136341.2180000005,
      "d": 243.90200000000186,
      "v": 100
    },
    {
      "midi": 68,
      "hit": false,
      "t": 136585.1200000005,
      "d": 243.90200000000186,
      "v": 100
    },
    {
      "midi": 71,
      "hit": false,
      "t": 136829.0220000005,
      "d": 243.90200000000186,
      "v": 100
    },
    {
      "midi": 68,
      "hit": false,
      "t": 137072.9240000005,
      "d": 243.90200000000186,
      "v": 100
    },
    {
      "midi": 64,
      "hit": false,
      "t": 137316.8260000005,
      "d": 243.90200000000186,
      "v": 100
    },
    {
      "midi": 57,
      "hit": false,
      "t": 137560.7280000005,
      "d": 243.90200000000186,
      "v": 100
    },
    {
      "midi": 64,
      "hit": false,
      "t": 137804.6300000005,
      "d": 243.90200000000186,
      "v": 100
    },
    {
      "midi": 69,
      "hit": false,
      "t": 138048.5320000005,
      "d": 243.90200000000186,
      "v": 100
    },
    {
      "midi": 73,
      "hit": false,
      "t": 138292.4340000005,
      "d": 243.90200000000186,
      "v": 100
    },
    {
      "midi": 69,
      "hit": false,
      "t": 138536.3360000005,
      "d": 243.90200000000186,
      "v": 100
    },
    {
      "midi": 64,
      "hit": false,
      "t": 138780.2380000005,
      "d": 243.90200000000186,
      "v": 100
    },
    {
      "midi": 57,
      "hit": false,
      "t": 139024.1400000005,
      "d": 243.90200000000186,
      "v": 100
    },
    {
      "midi": 73,
      "hit": false,
      "t": 139024.1400000005,
      "d": 731.7060000000056,
      "v": 100
    },
    {
      "midi": 64,
      "hit": false,
      "t": 139268.0420000005,
      "d": 243.90200000000186,
      "v": 100
    },
    {
      "midi": 69,
      "hit": false,
      "t": 139511.9440000005,
      "d": 243.90200000000186,
      "v": 100
    },
    {
      "midi": 73,
      "hit": false,
      "t": 139755.8460000005,
      "d": 243.90200000000186,
      "v": 100
    },
    {
      "midi": 69,
      "hit": false,
      "t": 139999.74800000052,
      "d": 243.90200000000186,
      "v": 100
    },
    {
      "midi": 64,
      "hit": false,
      "t": 140243.65000000052,
      "d": 243.90200000000186,
      "v": 100
    },
    {
      "midi": 57,
      "hit": false,
      "t": 140487.55200000052,
      "d": 243.90200000000186,
      "v": 100
    },
    {
      "midi": 64,
      "hit": false,
      "t": 140731.45400000052,
      "d": 243.90200000000186,
      "v": 100
    },
    {
      "midi": 69,
      "hit": false,
      "t": 140975.35600000052,
      "d": 243.90200000000186,
      "v": 100
    },
    {
      "midi": 73,
      "hit": false,
      "t": 141219.25800000053,
      "d": 243.90200000000186,
      "v": 100
    },
    {
      "midi": 69,
      "hit": false,
      "t": 141463.16000000053,
      "d": 243.90200000000186,
      "v": 100
    },
    {
      "midi": 64,
      "hit": false,
      "t": 141707.06200000053,
      "d": 243.90200000000186,
      "v": 100
    },
    {
      "midi": 57,
      "hit": false,
      "t": 141950.96400000053,
      "d": 243.90200000000186,
      "v": 100
    },
    {
      "midi": 73,
      "hit": false,
      "t": 141950.96400000053,
      "d": 731.7060000000056,
      "v": 100
    },
    {
      "midi": 64,
      "hit": false,
      "t": 142194.86600000053,
      "d": 243.90200000000186,
      "v": 100
    },
    {
      "midi": 69,
      "hit": false,
      "t": 142438.76800000053,
      "d": 243.90200000000186,
      "v": 100
    },
    {
      "midi": 73,
      "hit": false,
      "t": 142682.67000000054,
      "d": 243.90200000000186,
      "v": 100
    },
    {
      "midi": 69,
      "hit": false,
      "t": 142926.57200000054,
      "d": 243.90200000000186,
      "v": 100
    },
    {
      "midi": 64,
      "hit": false,
      "t": 143170.47400000054,
      "d": 243.90200000000186,
      "v": 100
    },
    {
      "midi": 55,
      "hit": false,
      "t": 143414.37600000054,
      "d": 243.90200000000186,
      "v": 100
    },
    {
      "midi": 62,
      "hit": false,
      "t": 143688.76575000054,
      "d": 213.41425000000163,
      "v": 100
    },
    {
      "midi": 67,
      "hit": false,
      "t": 143871.69225000055,
      "d": 243.90200000000186,
      "v": 100
    },
    {
      "midi": 71,
      "hit": false,
      "t": 144146.08200000055,
      "d": 243.90200000000186,
      "v": 100
    },
    {
      "midi": 67,
      "hit": false,
      "t": 144389.98400000055,
      "d": 243.90200000000186,
      "v": 100
    },
    {
      "midi": 62,
      "hit": false,
      "t": 144633.88600000055,
      "d": 243.90200000000186,
      "v": 100
    },
    {
      "midi": 55,
      "hit": false,
      "t": 144877.78800000055,
      "d": 243.90200000000186,
      "v": 100
    },
    {
      "midi": 71,
      "hit": false,
      "t": 144877.78800000055,
      "d": 731.7060000000056,
      "v": 100
    },
    {
      "midi": 62,
      "hit": false,
      "t": 145121.69000000056,
      "d": 243.90200000000186,
      "v": 100
    },
    {
      "midi": 67,
      "hit": false,
      "t": 145365.59200000056,
      "d": 243.90200000000186,
      "v": 100
    },
    {
      "midi": 71,
      "hit": false,
      "t": 145609.49400000056,
      "d": 243.90200000000186,
      "v": 100
    },
    {
      "midi": 67,
      "hit": false,
      "t": 145853.39600000056,
      "d": 243.90200000000186,
      "v": 100
    },
    {
      "midi": 62,
      "hit": false,
      "t": 146097.29800000056,
      "d": 243.90200000000186,
      "v": 100
    },
    {
      "midi": 55,
      "hit": false,
      "t": 146341.20000000056,
      "d": 243.90200000000186,
      "v": 100
    },
    {
      "midi": 62,
      "hit": false,
      "t": 146615.58975000057,
      "d": 213.41425000000163,
      "v": 100
    },
    {
      "midi": 67,
      "hit": false,
      "t": 146798.51625000057,
      "d": 243.90200000000186,
      "v": 100
    },
    {
      "midi": 71,
      "hit": false,
      "t": 147072.90600000057,
      "d": 243.90200000000186,
      "v": 100
    },
    {
      "midi": 67,
      "hit": false,
      "t": 147316.80800000057,
      "d": 243.90200000000186,
      "v": 100
    },
    {
      "midi": 62,
      "hit": false,
      "t": 147560.71000000057,
      "d": 243.90200000000186,
      "v": 100
    },
    {
      "midi": 55,
      "hit": false,
      "t": 147804.61200000058,
      "d": 243.90200000000186,
      "v": 100
    },
    {
      "midi": 71,
      "hit": false,
      "t": 147804.61200000058,
      "d": 731.7060000000056,
      "v": 100
    },
    {
      "midi": 62,
      "hit": false,
      "t": 148048.51400000058,
      "d": 243.90200000000186,
      "v": 100
    },
    {
      "midi": 67,
      "hit": false,
      "t": 148292.41600000058,
      "d": 243.90200000000186,
      "v": 100
    },
    {
      "midi": 71,
      "hit": false,
      "t": 148536.31800000058,
      "d": 243.90200000000186,
      "v": 100
    },
    {
      "midi": 67,
      "hit": false,
      "t": 148780.22000000058,
      "d": 243.90200000000186,
      "v": 100
    },
    {
      "midi": 62,
      "hit": false,
      "t": 149024.12200000059,
      "d": 243.90200000000186,
      "v": 100
    },
    {
      "midi": 60,
      "hit": false,
      "t": 149268.0240000006,
      "d": 243.90200000000186,
      "v": 100
    },
    {
      "midi": 64,
      "hit": false,
      "t": 149542.4137500006,
      "d": 213.41425000000163,
      "v": 100
    },
    {
      "midi": 67,
      "hit": false,
      "t": 149725.3402500006,
      "d": 243.90200000000186,
      "v": 100
    },
    {
      "midi": 72,
      "hit": false,
      "t": 149999.7300000006,
      "d": 243.90200000000186,
      "v": 100
    },
    {
      "midi": 67,
      "hit": false,
      "t": 150243.6320000006,
      "d": 243.90200000000186,
      "v": 100
    },
    {
      "midi": 64,
      "hit": false,
      "t": 150487.5340000006,
      "d": 243.90200000000186,
      "v": 100
    },
    {
      "midi": 60,
      "hit": false,
      "t": 150731.4360000006,
      "d": 243.90200000000186,
      "v": 100
    },
    {
      "midi": 72,
      "hit": false,
      "t": 150731.4360000006,
      "d": 731.7060000000056,
      "v": 100
    },
    {
      "midi": 64,
      "hit": false,
      "t": 150975.3380000006,
      "d": 243.90200000000186,
      "v": 100
    },
    {
      "midi": 67,
      "hit": false,
      "t": 151219.2400000006,
      "d": 243.90200000000186,
      "v": 100
    },
    {
      "midi": 72,
      "hit": false,
      "t": 151463.1420000006,
      "d": 243.90200000000186,
      "v": 100
    },
    {
      "midi": 67,
      "hit": false,
      "t": 151707.0440000006,
      "d": 243.90200000000186,
      "v": 100
    },
    {
      "midi": 64,
      "hit": false,
      "t": 151950.9460000006,
      "d": 243.90200000000186,
      "v": 100
    },
    {
      "midi": 60,
      "hit": false,
      "t": 152194.8480000006,
      "d": 243.90200000000186,
      "v": 100
    },
    {
      "midi": 64,
      "hit": false,
      "t": 152469.2377500006,
      "d": 213.41425000000163,
      "v": 100
    },
    {
      "midi": 67,
      "hit": false,
      "t": 152652.1642500006,
      "d": 243.90200000000186,
      "v": 100
    },
    {
      "midi": 72,
      "hit": false,
      "t": 152926.55400000061,
      "d": 243.90200000000186,
      "v": 100
    },
    {
      "midi": 67,
      "hit": false,
      "t": 153170.45600000062,
      "d": 243.90200000000186,
      "v": 100
    },
    {
      "midi": 64,
      "hit": false,
      "t": 153414.35800000062,
      "d": 243.90200000000186,
      "v": 100
    },
    {
      "midi": 60,
      "hit": false,
      "t": 153658.26000000062,
      "d": 243.90200000000186,
      "v": 100
    },
    {
      "midi": 72,
      "hit": false,
      "t": 153658.26000000062,
      "d": 731.7060000000056,
      "v": 100
    },
    {
      "midi": 64,
      "hit": false,
      "t": 153902.16200000062,
      "d": 243.90200000000186,
      "v": 100
    },
    {
      "midi": 67,
      "hit": false,
      "t": 154146.06400000062,
      "d": 243.90200000000186,
      "v": 100
    },
    {
      "midi": 72,
      "hit": false,
      "t": 154389.96600000063,
      "d": 243.90200000000186,
      "v": 100
    },
    {
      "midi": 67,
      "hit": false,
      "t": 154633.86800000063,
      "d": 243.90200000000186,
      "v": 100
    },
    {
      "midi": 64,
      "hit": false,
      "t": 154877.77000000063,
      "d": 243.90200000000186,
      "v": 100
    },
    {
      "midi": 50,
      "hit": false,
      "t": 155121.67200000063,
      "d": 243.90200000000186,
      "v": 100
    },
    {
      "midi": 62,
      "hit": false,
      "t": 155396.06175000063,
      "d": 213.41425000000163,
      "v": 100
    },
    {
      "midi": 65,
      "hit": false,
      "t": 155578.98825000064,
      "d": 243.90200000000186,
      "v": 100
    },
    {
      "midi": 69,
      "hit": false,
      "t": 155853.37800000064,
      "d": 243.90200000000186,
      "v": 100
    },
    {
      "midi": 65,
      "hit": false,
      "t": 156097.28000000064,
      "d": 243.90200000000186,
      "v": 100
    },
    {
      "midi": 62,
      "hit": false,
      "t": 156341.18200000064,
      "d": 243.90200000000186,
      "v": 100
    },
    {
      "midi": 50,
      "hit": false,
      "t": 156585.08400000064,
      "d": 243.90200000000186,
      "v": 100
    },
    {
      "midi": 69,
      "hit": false,
      "t": 156585.08400000064,
      "d": 731.7060000000056,
      "v": 100
    },
    {
      "midi": 62,
      "hit": false,
      "t": 156828.98600000064,
      "d": 243.90200000000186,
      "v": 100
    },
    {
      "midi": 65,
      "hit": false,
      "t": 157072.88800000065,
      "d": 243.90200000000186,
      "v": 100
    },
    {
      "midi": 69,
      "hit": false,
      "t": 157316.79000000065,
      "d": 243.90200000000186,
      "v": 100
    },
    {
      "midi": 65,
      "hit": false,
      "t": 157560.69200000065,
      "d": 243.90200000000186,
      "v": 100
    },
    {
      "midi": 62,
      "hit": false,
      "t": 157804.59400000065,
      "d": 243.90200000000186,
      "v": 100
    },
    {
      "midi": 50,
      "hit": false,
      "t": 158048.49600000065,
      "d": 243.90200000000186,
      "v": 100
    },
    {
      "midi": 62,
      "hit": false,
      "t": 158322.88575000066,
      "d": 213.41425000000163,
      "v": 100
    },
    {
      "midi": 65,
      "hit": false,
      "t": 158505.81225000066,
      "d": 243.90200000000186,
      "v": 100
    },
    {
      "midi": 69,
      "hit": false,
      "t": 158780.20200000066,
      "d": 243.90200000000186,
      "v": 100
    },
    {
      "midi": 65,
      "hit": false,
      "t": 159024.10400000066,
      "d": 243.90200000000186,
      "v": 100
    },
    {
      "midi": 62,
      "hit": false,
      "t": 159268.00600000066,
      "d": 243.90200000000186,
      "v": 100
    },
    {
      "midi": 50,
      "hit": false,
      "t": 159511.90800000067,
      "d": 243.90200000000186,
      "v": 100
    },
    {
      "midi": 69,
      "hit": false,
      "t": 159511.90800000067,
      "d": 731.7060000000056,
      "v": 100
    },
    {
      "midi": 62,
      "hit": false,
      "t": 159755.81000000067,
      "d": 243.90200000000186,
      "v": 100
    },
    {
      "midi": 65,
      "hit": false,
      "t": 159999.71200000067,
      "d": 243.90200000000186,
      "v": 100
    },
    {
      "midi": 69,
      "hit": false,
      "t": 160243.61400000067,
      "d": 243.90200000000186,
      "v": 100
    },
    {
      "midi": 65,
      "hit": false,
      "t": 160487.51600000067,
      "d": 243.90200000000186,
      "v": 100
    },
    {
      "midi": 62,
      "hit": false,
      "t": 160731.41800000067,
      "d": 243.90200000000186,
      "v": 100
    },
    {
      "midi": 52,
      "hit": false,
      "t": 160975.32000000068,
      "d": 243.90200000000186,
      "v": 100
    },
    {
      "midi": 64,
      "hit": false,
      "t": 161249.70975000068,
      "d": 213.41425000000163,
      "v": 100
    },
    {
      "midi": 68,
      "hit": false,
      "t": 161432.63625000068,
      "d": 243.90200000000186,
      "v": 100
    },
    {
      "midi": 71,
      "hit": false,
      "t": 161707.02600000068,
      "d": 243.90200000000186,
      "v": 100
    },
    {
      "midi": 68,
      "hit": false,
      "t": 161950.92800000068,
      "d": 243.90200000000186,
      "v": 100
    },
    {
      "midi": 64,
      "hit": false,
      "t": 162194.8300000007,
      "d": 243.90200000000186,
      "v": 100
    },
    {
      "midi": 52,
      "hit": false,
      "t": 162438.7320000007,
      "d": 243.90200000000186,
      "v": 100
    },
    {
      "midi": 71,
      "hit": false,
      "t": 162438.7320000007,
      "d": 731.7060000000056,
      "v": 100
    },
    {
      "midi": 64,
      "hit": false,
      "t": 162682.6340000007,
      "d": 243.90200000000186,
      "v": 100
    },
    {
      "midi": 68,
      "hit": false,
      "t": 162926.5360000007,
      "d": 243.90200000000186,
      "v": 100
    },
    {
      "midi": 71,
      "hit": false,
      "t": 163170.4380000007,
      "d": 243.90200000000186,
      "v": 100
    },
    {
      "midi": 68,
      "hit": false,
      "t": 163414.3400000007,
      "d": 243.90200000000186,
      "v": 100
    },
    {
      "midi": 64,
      "hit": false,
      "t": 163658.2420000007,
      "d": 243.90200000000186,
      "v": 100
    },
    {
      "midi": 52,
      "hit": false,
      "t": 163902.1440000007,
      "d": 243.90200000000186,
      "v": 100
    },
    {
      "midi": 64,
      "hit": false,
      "t": 164176.5337500007,
      "d": 213.41425000000163,
      "v": 100
    },
    {
      "midi": 68,
      "hit": false,
      "t": 164359.4602500007,
      "d": 243.90200000000186,
      "v": 100
    },
    {
      "midi": 71,
      "hit": false,
      "t": 164633.8500000007,
      "d": 243.90200000000186,
      "v": 100
    },
    {
      "midi": 68,
      "hit": false,
      "t": 164877.7520000007,
      "d": 243.90200000000186,
      "v": 100
    },
    {
      "midi": 64,
      "hit": false,
      "t": 165121.6540000007,
      "d": 243.90200000000186,
      "v": 100
    },
    {
      "midi": 52,
      "hit": false,
      "t": 165365.5560000007,
      "d": 243.90200000000186,
      "v": 100
    },
    {
      "midi": 71,
      "hit": false,
      "t": 165365.5560000007,
      "d": 731.7060000000056,
      "v": 100
    },
    {
      "midi": 64,
      "hit": false,
      "t": 165609.4580000007,
      "d": 243.90200000000186,
      "v": 100
    },
    {
      "midi": 68,
      "hit": false,
      "t": 165853.3600000007,
      "d": 243.90200000000186,
      "v": 100
    },
    {
      "midi": 71,
      "hit": false,
      "t": 166097.26200000072,
      "d": 243.90200000000186,
      "v": 100
    },
    {
      "midi": 68,
      "hit": false,
      "t": 166341.16400000072,
      "d": 243.90200000000186,
      "v": 100
    },
    {
      "midi": 64,
      "hit": false,
      "t": 166585.06600000072,
      "d": 243.90200000000186,
      "v": 100
    },
    {
      "midi": 57,
      "hit": false,
      "t": 166828.96800000072,
      "d": 243.90200000000186,
      "v": 100
    },
    {
      "midi": 64,
      "hit": false,
      "t": 166828.96800000072,
      "d": 731.7060000000056,
      "v": 100
    },
    {
      "midi": 69,
      "hit": false,
      "t": 166828.96800000072,
      "d": 731.7060000000056,
      "v": 100
    },
    {
      "midi": 72,
      "hit": false,
      "t": 166828.96800000072,
      "d": 731.7060000000056,
      "v": 100
    },
    {
      "midi": 64,
      "hit": false,
      "t": 167560.67400000073,
      "d": 731.7060000000056,
      "v": 100
    },
    {
      "midi": 69,
      "hit": false,
      "t": 167560.67400000073,
      "d": 731.7060000000056,
      "v": 100
    },
    {
      "midi": 72,
      "hit": false,
      "t": 167560.67400000073,
      "d": 731.7060000000056,
      "v": 100
    },
    {
      "midi": 64,
      "hit": false,
      "t": 168292.38000000073,
      "d": 731.7060000000056,
      "v": 100
    },
    {
      "midi": 69,
      "hit": false,
      "t": 168292.38000000073,
      "d": 731.7060000000056,
      "v": 100
    },
    {
      "midi": 72,
      "hit": false,
      "t": 168292.38000000073,
      "d": 731.7060000000056,
      "v": 100
    },
    {
      "midi": 64,
      "hit": false,
      "t": 169024.08600000074,
      "d": 731.7060000000056,
      "v": 100
    },
    {
      "midi": 69,
      "hit": false,
      "t": 169024.08600000074,
      "d": 731.7060000000056,
      "v": 100
    },
    {
      "midi": 72,
      "hit": false,
      "t": 169024.08600000074,
      "d": 731.7060000000056,
      "v": 100
    },
    {
      "midi": 57,
      "hit": false,
      "t": 169755.79200000074,
      "d": 243.90200000000186,
      "v": 100
    },
    {
      "midi": 64,
      "hit": false,
      "t": 169755.79200000074,
      "d": 731.7060000000056,
      "v": 100
    },
    {
      "midi": 69,
      "hit": false,
      "t": 169755.79200000074,
      "d": 731.7060000000056,
      "v": 100
    },
    {
      "midi": 72,
      "hit": false,
      "t": 169755.79200000074,
      "d": 731.7060000000056,
      "v": 100
    },
    {
      "midi": 64,
      "hit": false,
      "t": 170487.49800000075,
      "d": 731.7060000000056,
      "v": 100
    },
    {
      "midi": 69,
      "hit": false,
      "t": 170487.49800000075,
      "d": 731.7060000000056,
      "v": 100
    },
    {
      "midi": 72,
      "hit": false,
      "t": 170487.49800000075,
      "d": 731.7060000000056,
      "v": 100
    },
    {
      "midi": 64,
      "hit": false,
      "t": 171219.20400000075,
      "d": 731.7060000000056,
      "v": 100
    },
    {
      "midi": 69,
      "hit": false,
      "t": 171219.20400000075,
      "d": 731.7060000000056,
      "v": 100
    },
    {
      "midi": 72,
      "hit": false,
      "t": 171219.20400000075,
      "d": 731.7060000000056,
      "v": 100
    },
    {
      "midi": 64,
      "hit": false,
      "t": 171950.91000000076,
      "d": 731.7060000000056,
      "v": 100
    },
    {
      "midi": 69,
      "hit": false,
      "t": 171950.91000000076,
      "d": 731.7060000000056,
      "v": 100
    },
    {
      "midi": 72,
      "hit": false,
      "t": 171950.91000000076,
      "d": 731.7060000000056,
      "v": 100
    },
    {
      "midi": 55,
      "hit": false,
      "t": 172682.61600000077,
      "d": 243.90200000000186,
      "v": 100
    },
    {
      "midi": 62,
      "hit": false,
      "t": 172682.61600000077,
      "d": 731.7060000000056,
      "v": 100
    },
    {
      "midi": 67,
      "hit": false,
      "t": 172682.61600000077,
      "d": 731.7060000000056,
      "v": 100
    },
    {
      "midi": 71,
      "hit": false,
      "t": 172682.61600000077,
      "d": 731.7060000000056,
      "v": 100
    },
    {
      "midi": 62,
      "hit": false,
      "t": 173414.32200000077,
      "d": 731.7060000000056,
      "v": 100
    },
    {
      "midi": 67,
      "hit": false,
      "t": 173414.32200000077,
      "d": 731.7060000000056,
      "v": 100
    },
    {
      "midi": 71,
      "hit": false,
      "t": 173414.32200000077,
      "d": 731.7060000000056,
      "v": 100
    },
    {
      "midi": 62,
      "hit": false,
      "t": 174146.02800000078,
      "d": 731.7060000000056,
      "v": 100
    },
    {
      "midi": 67,
      "hit": false,
      "t": 174146.02800000078,
      "d": 731.7060000000056,
      "v": 100
    },
    {
      "midi": 71,
      "hit": false,
      "t": 174146.02800000078,
      "d": 731.7060000000056,
      "v": 100
    },
    {
      "midi": 62,
      "hit": false,
      "t": 174877.73400000078,
      "d": 731.7060000000056,
      "v": 100
    },
    {
      "midi": 67,
      "hit": false,
      "t": 174877.73400000078,
      "d": 731.7060000000056,
      "v": 100
    },
    {
      "midi": 71,
      "hit": false,
      "t": 174877.73400000078,
      "d": 731.7060000000056,
      "v": 100
    },
    {
      "midi": 62,
      "hit": false,
      "t": 175609.4400000008,
      "d": 731.7060000000056,
      "v": 100
    },
    {
      "midi": 67,
      "hit": false,
      "t": 175609.4400000008,
      "d": 731.7060000000056,
      "v": 100
    },
    {
      "midi": 71,
      "hit": false,
      "t": 175609.4400000008,
      "d": 731.7060000000056,
      "v": 100
    },
    {
      "midi": 62,
      "hit": false,
      "t": 176341.1460000008,
      "d": 731.7060000000056,
      "v": 100
    },
    {
      "midi": 67,
      "hit": false,
      "t": 176341.1460000008,
      "d": 731.7060000000056,
      "v": 100
    },
    {
      "midi": 71,
      "hit": false,
      "t": 176341.1460000008,
      "d": 731.7060000000056,
      "v": 100
    },
    {
      "midi": 62,
      "hit": false,
      "t": 177072.8520000008,
      "d": 731.7060000000056,
      "v": 100
    },
    {
      "midi": 67,
      "hit": false,
      "t": 177072.8520000008,
      "d": 731.7060000000056,
      "v": 100
    },
    {
      "midi": 71,
      "hit": false,
      "t": 177072.8520000008,
      "d": 731.7060000000056,
      "v": 100
    },
    {
      "midi": 62,
      "hit": false,
      "t": 177804.5580000008,
      "d": 731.7060000000056,
      "v": 100
    },
    {
      "midi": 67,
      "hit": false,
      "t": 177804.5580000008,
      "d": 731.7060000000056,
      "v": 100
    },
    {
      "midi": 71,
      "hit": false,
      "t": 177804.5580000008,
      "d": 731.7060000000056,
      "v": 100
    },
    {
      "midi": 53,
      "hit": false,
      "t": 178536.2640000008,
      "d": 243.90200000000186,
      "v": 100
    },
    {
      "midi": 60,
      "hit": false,
      "t": 178536.2640000008,
      "d": 731.7060000000056,
      "v": 100
    },
    {
      "midi": 65,
      "hit": false,
      "t": 178536.2640000008,
      "d": 731.7060000000056,
      "v": 100
    },
    {
      "midi": 69,
      "hit": false,
      "t": 178536.2640000008,
      "d": 731.7060000000056,
      "v": 100
    },
    {
      "midi": 60,
      "hit": false,
      "t": 179267.97000000082,
      "d": 731.7060000000056,
      "v": 100
    },
    {
      "midi": 65,
      "hit": false,
      "t": 179267.97000000082,
      "d": 731.7060000000056,
      "v": 100
    },
    {
      "midi": 69,
      "hit": false,
      "t": 179267.97000000082,
      "d": 731.7060000000056,
      "v": 100
    },
    {
      "midi": 60,
      "hit": false,
      "t": 179999.67600000082,
      "d": 731.7060000000056,
      "v": 100
    },
    {
      "midi": 65,
      "hit": false,
      "t": 179999.67600000082,
      "d": 731.7060000000056,
      "v": 100
    },
    {
      "midi": 69,
      "hit": false,
      "t": 179999.67600000082,
      "d": 731.7060000000056,
      "v": 100
    },
    {
      "midi": 60,
      "hit": false,
      "t": 180731.38200000083,
      "d": 731.7060000000056,
      "v": 100
    },
    {
      "midi": 65,
      "hit": false,
      "t": 180731.38200000083,
      "d": 731.7060000000056,
      "v": 100
    },
    {
      "midi": 69,
      "hit": false,
      "t": 180731.38200000083,
      "d": 731.7060000000056,
      "v": 100
    },
    {
      "midi": 60,
      "hit": false,
      "t": 181463.08800000083,
      "d": 731.7060000000056,
      "v": 100
    },
    {
      "midi": 65,
      "hit": false,
      "t": 181463.08800000083,
      "d": 731.7060000000056,
      "v": 100
    },
    {
      "midi": 69,
      "hit": false,
      "t": 181463.08800000083,
      "d": 731.7060000000056,
      "v": 100
    },
    {
      "midi": 60,
      "hit": false,
      "t": 182194.79400000084,
      "d": 731.7060000000056,
      "v": 100
    },
    {
      "midi": 65,
      "hit": false,
      "t": 182194.79400000084,
      "d": 731.7060000000056,
      "v": 100
    },
    {
      "midi": 69,
      "hit": false,
      "t": 182194.79400000084,
      "d": 731.7060000000056,
      "v": 100
    },
    {
      "midi": 60,
      "hit": false,
      "t": 182926.50000000084,
      "d": 731.7060000000056,
      "v": 100
    },
    {
      "midi": 65,
      "hit": false,
      "t": 182926.50000000084,
      "d": 731.7060000000056,
      "v": 100
    },
    {
      "midi": 69,
      "hit": false,
      "t": 182926.50000000084,
      "d": 731.7060000000056,
      "v": 100
    },
    {
      "midi": 60,
      "hit": false,
      "t": 183658.20600000085,
      "d": 731.7060000000056,
      "v": 100
    },
    {
      "midi": 65,
      "hit": false,
      "t": 183658.20600000085,
      "d": 731.7060000000056,
      "v": 100
    },
    {
      "midi": 69,
      "hit": false,
      "t": 183658.20600000085,
      "d": 731.7060000000056,
      "v": 100
    },
    {
      "midi": 52,
      "hit": false,
      "t": 184389.91200000086,
      "d": 243.90200000000186,
      "v": 100
    },
    {
      "midi": 64,
      "hit": false,
      "t": 184389.91200000086,
      "d": 731.7060000000056,
      "v": 100
    },
    {
      "midi": 68,
      "hit": false,
      "t": 184389.91200000086,
      "d": 731.7060000000056,
      "v": 100
    },
    {
      "midi": 71,
      "hit": false,
      "t": 184389.91200000086,
      "d": 731.7060000000056,
      "v": 100
    },
    {
      "midi": 64,
      "hit": false,
      "t": 185121.61800000086,
      "d": 731.7060000000056,
      "v": 100
    },
    {
      "midi": 68,
      "hit": false,
      "t": 185121.61800000086,
      "d": 731.7060000000056,
      "v": 100
    },
    {
      "midi": 71,
      "hit": false,
      "t": 185121.61800000086,
      "d": 731.7060000000056,
      "v": 100
    },
    {
      "midi": 64,
      "hit": false,
      "t": 185853.32400000087,
      "d": 731.7060000000056,
      "v": 100
    },
    {
      "midi": 68,
      "hit": false,
      "t": 185853.32400000087,
      "d": 731.7060000000056,
      "v": 100
    },
    {
      "midi": 71,
      "hit": false,
      "t": 185853.32400000087,
      "d": 731.7060000000056,
      "v": 100
    },
    {
      "midi": 64,
      "hit": false,
      "t": 186585.03000000087,
      "d": 731.7060000000056,
      "v": 100
    },
    {
      "midi": 68,
      "hit": false,
      "t": 186585.03000000087,
      "d": 731.7060000000056,
      "v": 100
    },
    {
      "midi": 71,
      "hit": false,
      "t": 186585.03000000087,
      "d": 731.7060000000056,
      "v": 100
    },
    {
      "midi": 64,
      "hit": false,
      "t": 187316.73600000088,
      "d": 731.7060000000056,
      "v": 100
    },
    {
      "midi": 68,
      "hit": false,
      "t": 187316.73600000088,
      "d": 731.7060000000056,
      "v": 100
    },
    {
      "midi": 71,
      "hit": false,
      "t": 187316.73600000088,
      "d": 731.7060000000056,
      "v": 100
    },
    {
      "midi": 64,
      "hit": false,
      "t": 188048.44200000088,
      "d": 731.7060000000056,
      "v": 100
    },
    {
      "midi": 68,
      "hit": false,
      "t": 188048.44200000088,
      "d": 731.7060000000056,
      "v": 100
    },
    {
      "midi": 71,
      "hit": false,
      "t": 188048.44200000088,
      "d": 731.7060000000056,
      "v": 100
    },
    {
      "midi": 64,
      "hit": false,
      "t": 188780.1480000009,
      "d": 731.7060000000056,
      "v": 100
    },
    {
      "midi": 68,
      "hit": false,
      "t": 188780.1480000009,
      "d": 731.7060000000056,
      "v": 100
    },
    {
      "midi": 71,
      "hit": false,
      "t": 188780.1480000009,
      "d": 731.7060000000056,
      "v": 100
    },
    {
      "midi": 64,
      "hit": false,
      "t": 189511.8540000009,
      "d": 731.7060000000056,
      "v": 100
    },
    {
      "midi": 68,
      "hit": false,
      "t": 189511.8540000009,
      "d": 731.7060000000056,
      "v": 100
    },
    {
      "midi": 71,
      "hit": false,
      "t": 189511.8540000009,
      "d": 731.7060000000056,
      "v": 100
    },
    {
      "midi": 57,
      "hit": false,
      "t": 190243.5600000009,
      "d": 243.90200000000186,
      "v": 100
    },
    {
      "midi": 72,
      "hit": false,
      "t": 190243.5600000009,
      "d": 731.7060000000056,
      "v": 100
    },
    {
      "midi": 64,
      "hit": false,
      "t": 190487.4620000009,
      "d": 243.90200000000186,
      "v": 100
    },
    {
      "midi": 69,
      "hit": false,
      "t": 190731.3640000009,
      "d": 243.90200000000186,
      "v": 100
    },
    {
      "midi": 72,
      "hit": false,
      "t": 190975.2660000009,
      "d": 243.90200000000186,
      "v": 100
    },
    {
      "midi": 69,
      "hit": false,
      "t": 191219.1680000009,
      "d": 243.90200000000186,
      "v": 100
    },
    {
      "midi": 64,
      "hit": false,
      "t": 191463.0700000009,
      "d": 243.90200000000186,
      "v": 100
    },
    {
      "midi": 57,
      "hit": false,
      "t": 191706.9720000009,
      "d": 243.90200000000186,
      "v": 100
    },
    {
      "midi": 72,
      "hit": false,
      "t": 191706.9720000009,
      "d": 731.7060000000056,
      "v": 100
    },
    {
      "midi": 64,
      "hit": false,
      "t": 191950.8740000009,
      "d": 243.90200000000186,
      "v": 100
    },
    {
      "midi": 69,
      "hit": false,
      "t": 192194.77600000091,
      "d": 243.90200000000186,
      "v": 100
    },
    {
      "midi": 72,
      "hit": false,
      "t": 192438.67800000092,
      "d": 243.90200000000186,
      "v": 100
    },
    {
      "midi": 69,
      "hit": false,
      "t": 192682.58000000092,
      "d": 243.90200000000186,
      "v": 100
    },
    {
      "midi": 64,
      "hit": false,
      "t": 192926.48200000092,
      "d": 243.90200000000186,
      "v": 100
    },
    {
      "midi": 55,
      "hit": false,
      "t": 193170.38400000092,
      "d": 243.90200000000186,
      "v": 100
    },
    {
      "midi": 62,
      "hit": false,
      "t": 193444.77375000092,
      "d": 213.41425000000163,
      "v": 100
    },
    {
      "midi": 67,
      "hit": false,
      "t": 193627.70025000093,
      "d": 243.90200000000186,
      "v": 100
    },
    {
      "midi": 71,
      "hit": false,
      "t": 193902.09000000093,
      "d": 243.90200000000186,
      "v": 100
    },
    {
      "midi": 67,
      "hit": false,
      "t": 194145.99200000093,
      "d": 243.90200000000186,
      "v": 100
    },
    {
      "midi": 62,
      "hit": false,
      "t": 194389.89400000093,
      "d": 243.90200000000186,
      "v": 100
    },
    {
      "midi": 55,
      "hit": false,
      "t": 194633.79600000093,
      "d": 243.90200000000186,
      "v": 100
    },
    {
      "midi": 71,
      "hit": false,
      "t": 194633.79600000093,
      "d": 731.7060000000056,
      "v": 100
    },
    {
      "midi": 62,
      "hit": false,
      "t": 194877.69800000094,
      "d": 243.90200000000186,
      "v": 100
    },
    {
      "midi": 67,
      "hit": false,
      "t": 195121.60000000094,
      "d": 243.90200000000186,
      "v": 100
    },
    {
      "midi": 71,
      "hit": false,
      "t": 195365.50200000094,
      "d": 243.90200000000186,
      "v": 100
    },
    {
      "midi": 67,
      "hit": false,
      "t": 195609.40400000094,
      "d": 243.90200000000186,
      "v": 100
    },
    {
      "midi": 62,
      "hit": false,
      "t": 195853.30600000094,
      "d": 243.90200000000186,
      "v": 100
    },
    {
      "midi": 53,
      "hit": false,
      "t": 196097.20800000094,
      "d": 243.90200000000186,
      "v": 100
    },
    {
      "midi": 60,
      "hit": false,
      "t": 196371.59775000095,
      "d": 213.41425000000163,
      "v": 100
    },
    {
      "midi": 65,
      "hit": false,
      "t": 196554.52425000095,
      "d": 243.90200000000186,
      "v": 100
    },
    {
      "midi": 69,
      "hit": false,
      "t": 196828.91400000095,
      "d": 243.90200000000186,
      "v": 100
    },
    {
      "midi": 65,
      "hit": false,
      "t": 197072.81600000095,
      "d": 243.90200000000186,
      "v": 100
    },
    {
      "midi": 60,
      "hit": false,
      "t": 197316.71800000095,
      "d": 243.90200000000186,
      "v": 100
    },
    {
      "midi": 52,
      "hit": false,
      "t": 197560.62000000096,
      "d": 243.90200000000186,
      "v": 100
    },
    {
      "midi": 71,
      "hit": false,
      "t": 197560.62000000096,
      "d": 731.7060000000056,
      "v": 100
    },
    {
      "midi": 64,
      "hit": false,
      "t": 197804.52200000096,
      "d": 243.90200000000186,
      "v": 100
    },
    {
      "midi": 68,
      "hit": false,
      "t": 198048.42400000096,
      "d": 243.90200000000186,
      "v": 100
    },
    {
      "midi": 71,
      "hit": false,
      "t": 198292.32600000096,
      "d": 243.90200000000186,
      "v": 100
    },
    {
      "midi": 68,
      "hit": false,
      "t": 198536.22800000096,
      "d": 243.90200000000186,
      "v": 100
    },
    {
      "midi": 64,
      "hit": false,
      "t": 198780.13000000097,
      "d": 243.90200000000186,
      "v": 100
    },
    {
      "midi": 57,
      "hit": false,
      "t": 199024.03200000097,
      "d": 243.90200000000186,
      "v": 100
    },
    {
      "midi": 64,
      "hit": false,
      "t": 199267.93400000097,
      "d": 243.90200000000186,
      "v": 100
    },
    {
      "midi": 69,
      "hit": false,
      "t": 199511.83600000097,
      "d": 243.90200000000186,
      "v": 100
    },
    {
      "midi": 73,
      "hit": false,
      "t": 199755.73800000097,
      "d": 243.90200000000186,
      "v": 100
    },
    {
      "midi": 69,
      "hit": false,
      "t": 199999.64000000097,
      "d": 243.90200000000186,
      "v": 100
    },
    {
      "midi": 64,
      "hit": false,
      "t": 200243.54200000098,
      "d": 243.90200000000186,
      "v": 100
    },
    {
      "midi": 57,
      "hit": false,
      "t": 200487.44400000098,
      "d": 243.90200000000186,
      "v": 100
    },
    {
      "midi": 73,
      "hit": false,
      "t": 200487.44400000098,
      "d": 731.7060000000056,
      "v": 100
    },
    {
      "midi": 64,
      "hit": false,
      "t": 200731.34600000098,
      "d": 243.90200000000186,
      "v": 100
    },
    {
      "midi": 69,
      "hit": false,
      "t": 200975.24800000098,
      "d": 243.90200000000186,
      "v": 100
    },
    {
      "midi": 73,
      "hit": false,
      "t": 201219.15000000098,
      "d": 243.90200000000186,
      "v": 100
    },
    {
      "midi": 69,
      "hit": false,
      "t": 201463.052000001,
      "d": 243.90200000000186,
      "v": 100
    },
    {
      "midi": 64,
      "hit": false,
      "t": 201706.954000001,
      "d": 243.90200000000186,
      "v": 100
    },
    {
      "midi": 57,
      "hit": false,
      "t": 201950.856000001,
      "d": 1463.4120000000112,
      "v": 100
    },
    {
      "midi": 64,
      "hit": false,
      "t": 201950.856000001,
      "d": 1463.4120000000112,
      "v": 100
    },
    {
      "midi": 69,
      "hit": false,
      "t": 201950.856000001,
      "d": 1463.4120000000112,
      "v": 100
    },
    {
      "midi": 73,
      "hit": false,
      "t": 201950.856000001,
      "d": 1463.4120000000112,
      "v": 100
    }
  ]
}