{
  "jsonPath": "Unknown/Unknown/Setrise/sunny-canon.json",
  "path": "Unknown\\Unknown\\Setrise\\Sunny Canon.mid",
  "name": "Sunny Canon",
  "difficulty": "Advanced",
  "bpm": 64.99999458333379,
  "notes": [
    {
      "midi": 62,
      "hit": false,
      "t": 77533.66030729163,
      "d": 110.57693229166034,
      "v": 86
    },
    {
      "midi": 57,
      "hit": false,
      "t": 77533.66030729163,
      "d": 125.00001041665382,
      "v": 80
    },
    {
      "midi": 66,
      "hit": false,
      "t": 77533.66030729163,
      "d": 127.4038567708194,
      "v": 82
    },
    {
      "midi": 62,
      "hit": false,
      "t": 78228.37190364578,
      "d": 110.57693229166034,
      "v": 77
    },
    {
      "midi": 66,
      "hit": false,
      "t": 78228.37190364578,
      "d": 129.80770312499953,
      "v": 82
    },
    {
      "midi": 57,
      "hit": false,
      "t": 78228.37190364578,
      "d": 144.23078124999302,
      "v": 88
    },
    {
      "midi": 62,
      "hit": false,
      "t": 78923.08349999994,
      "d": 127.40385677083395,
      "v": 83
    },
    {
      "midi": 66,
      "hit": false,
      "t": 78923.08349999994,
      "d": 134.6153958333307,
      "v": 81
    },
    {
      "midi": 57,
      "hit": false,
      "t": 78923.08349999994,
      "d": 144.23078124999302,
      "v": 77
    },
    {
      "midi": 62,
      "hit": false,
      "t": 79843.75665364576,
      "d": 112.98077864584047,
      "v": 87
    },
    {
      "midi": 66,
      "hit": false,
      "t": 79843.75665364576,
      "d": 127.40385677083395,
      "v": 87
    },
    {
      "midi": 57,
      "hit": false,
      "t": 79843.75665364576,
      "d": 141.82693489582743,
      "v": 87
    },
    {
      "midi": 57,
      "hit": false,
      "t": 80540.87209635408,
      "d": 117.78847135417163,
      "v": 87
    },
    {
      "midi": 62,
      "hit": false,
      "t": 80540.87209635408,
      "d": 137.01924218751083,
      "v": 80
    },
    {
      "midi": 66,
      "hit": false,
      "t": 80540.87209635408,
      "d": 153.84616666668444,
      "v": 77
    },
    {
      "midi": 62,
      "hit": false,
      "t": 81230.77599999993,
      "d": 105.76923958332918,
      "v": 77
    },
    {
      "midi": 59,
      "hit": false,
      "t": 81230.77599999993,
      "d": 117.78847135415708,
      "v": 87
    },
    {
      "midi": 67,
      "hit": false,
      "t": 81230.77599999993,
      "d": 127.4038567708194,
      "v": 83
    },
    {
      "midi": 62,
      "hit": false,
      "t": 81918.27605729157,
      "d": 105.76923958332918,
      "v": 87
    },
    {
      "midi": 67,
      "hit": false,
      "t": 81918.27605729157,
      "d": 115.3846249999915,
      "v": 88
    },
    {
      "midi": 59,
      "hit": false,
      "t": 81918.27605729157,
      "d": 129.80770312498498,
      "v": 86
    },
    {
      "midi": 62,
      "hit": false,
      "t": 82610.58380729155,
      "d": 110.57693229166034,
      "v": 87
    },
    {
      "midi": 59,
      "hit": false,
      "t": 82610.58380729155,
      "d": 122.59616406248824,
      "v": 85
    },
    {
      "midi": 67,
      "hit": false,
      "t": 82610.58380729155,
      "d": 127.4038567708194,
      "v": 77
    },
    {
      "midi": 62,
      "hit": false,
      "t": 83533.66080729153,
      "d": 96.15385416666686,
      "v": 87
    },
    {
      "midi": 67,
      "hit": false,
      "t": 83533.66080729153,
      "d": 100.96154687499802,
      "v": 88
    },
    {
      "midi": 59,
      "hit": false,
      "t": 83533.66080729153,
      "d": 112.98077864582592,
      "v": 87
    },
    {
      "midi": 59,
      "hit": false,
      "t": 84230.77624999985,
      "d": 120.19231770833721,
      "v": 86
    },
    {
      "midi": 62,
      "hit": false,
      "t": 84230.77624999985,
      "d": 127.40385677083395,
      "v": 77
    },
    {
      "midi": 67,
      "hit": false,
      "t": 84230.77624999985,
      "d": 146.63462760417315,
      "v": 82
    },
    {
      "midi": 62,
      "hit": false,
      "t": 84918.27630729153,
      "d": 93.75000781250128,
      "v": 77
    },
    {
      "midi": 66,
      "hit": false,
      "t": 84918.27630729153,
      "d": 96.15385416666686,
      "v": 87
    },
    {
      "midi": 59,
      "hit": false,
      "t": 84918.27630729153,
      "d": 103.3653932291636,
      "v": 77
    },
    {
      "midi": 62,
      "hit": false,
      "t": 85612.98790364568,
      "d": 88.94231510417012,
      "v": 86
    },
    {
      "midi": 59,
      "hit": false,
      "t": 85612.98790364568,
      "d": 96.15385416666686,
      "v": 85
    },
    {
      "midi": 66,
      "hit": false,
      "t": 85612.98790364568,
      "d": 100.96154687499802,
      "v": 87
    },
    {
      "midi": 62,
      "hit": false,
      "t": 86307.69949999984,
      "d": 93.75000781250128,
      "v": 77
    },
    {
      "midi": 59,
      "hit": false,
      "t": 86307.69949999984,
      "d": 96.15385416666686,
      "v": 87
    },
    {
      "midi": 66,
      "hit": false,
      "t": 86307.69949999984,
      "d": 110.57693229166034,
      "v": 87
    },
    {
      "midi": 62,
      "hit": false,
      "t": 87228.37265364567,
      "d": 93.75000781250128,
      "v": 87
    },
    {
      "midi": 66,
      "hit": false,
      "t": 87228.37265364567,
      "d": 93.75000781250128,
      "v": 87
    },
    {
      "midi": 59,
      "hit": false,
      "t": 87228.37265364567,
      "d": 103.3653932291636,
      "v": 87
    },
    {
      "midi": 62,
      "hit": false,
      "t": 87925.48809635399,
      "d": 93.75000781250128,
      "v": 86
    },
    {
      "midi": 59,
      "hit": false,
      "t": 87925.48809635399,
      "d": 100.96154687499802,
      "v": 85
    },
    {
      "midi": 66,
      "hit": false,
      "t": 87925.48809635399,
      "d": 132.21154947916511,
      "v": 87
    },
    {
      "midi": 62,
      "hit": false,
      "t": 88615.39199999982,
      "d": 100.96154687499802,
      "v": 83
    },
    {
      "midi": 66,
      "hit": false,
      "t": 88615.39199999982,
      "d": 103.3653932291636,
      "v": 81
    },
    {
      "midi": 57,
      "hit": false,
      "t": 88615.39199999982,
      "d": 112.98077864582592,
      "v": 80
    },
    {
      "midi": 62,
      "hit": false,
      "t": 89302.89205729148,
      "d": 96.15385416666686,
      "v": 88
    },
    {
      "midi": 66,
      "hit": false,
      "t": 89302.89205729148,
      "d": 105.76923958332918,
      "v": 87
    },
    {
      "midi": 57,
      "hit": false,
      "t": 89302.89205729148,
      "d": 108.17308593749476,
      "v": 86
    },
    {
      "midi": 62,
      "hit": false,
      "t": 89995.19980729147,
      "d": 98.55770052083244,
      "v": 87
    },
    {
      "midi": 66,
      "hit": false,
      "t": 89995.19980729147,
      "d": 112.98077864582592,
      "v": 80
    },
    {
      "midi": 57,
      "hit": false,
      "t": 89995.19980729147,
      "d": 120.19231770832266,
      "v": 87
    },
    {
      "midi": 62,
      "hit": false,
      "t": 90918.27680729146,
      "d": 98.55770052083244,
      "v": 88
    },
    {
      "midi": 66,
      "hit": false,
      "t": 90918.27680729146,
      "d": 112.98077864582592,
      "v": 80
    },
    {
      "midi": 57,
      "hit": false,
      "t": 90918.27680729146,
      "d": 115.3846249999915,
      "v": 88
    },
    {
      "midi": 57,
      "hit": false,
      "t": 91615.39224999979,
      "d": 96.15385416666686,
      "v": 86
    },
    {
      "midi": 62,
      "hit": false,
      "t": 91615.39224999979,
      "d": 96.15385416666686,
      "v": 86
    },
    {
      "midi": 66,
      "hit": false,
      "t": 91615.39224999979,
      "d": 122.5961640625028,
      "v": 77
    },
    {
      "midi": 62,
      "hit": false,
      "t": 92302.89230729146,
      "d": 96.15385416666686,
      "v": 80
    },
    {
      "midi": 66,
      "hit": false,
      "t": 92302.89230729146,
      "d": 98.55770052083244,
      "v": 87
    },
    {
      "midi": 59,
      "hit": false,
      "t": 92302.89230729146,
      "d": 105.76923958332918,
      "v": 87
    },
    {
      "midi": 62,
      "hit": false,
      "t": 92997.60390364562,
      "d": 88.94231510417012,
      "v": 87
    },
    {
      "midi": 59,
      "hit": false,
      "t": 92997.60390364562,
      "d": 91.3461614583357,
      "v": 86
    },
    {
      "midi": 66,
      "hit": false,
      "t": 92997.60390364562,
      "d": 103.3653932291636,
      "v": 77
    },
    {
      "midi": 66,
      "hit": false,
      "t": 93692.31549999978,
      "d": 96.15385416666686,
      "v": 87
    },
    {
      "midi": 62,
      "hit": false,
      "t": 93692.31549999978,
      "d": 100.96154687499802,
      "v": 87
    },
    {
      "midi": 59,
      "hit": false,
      "t": 93692.31549999978,
      "d": 105.76923958332918,
      "v": 86
    },
    {
      "midi": 66,
      "hit": false,
      "t": 94612.9886536456,
      "d": 79.32692968749325,
      "v": 88
    },
    {
      "midi": 62,
      "hit": false,
      "t": 94612.9886536456,
      "d": 84.13462239582441,
      "v": 81
    },
    {
      "midi": 59,
      "hit": false,
      "t": 94612.9886536456,
      "d": 88.94231510415557,
      "v": 87
    },
    {
      "midi": 59,
      "hit": false,
      "t": 95310.10409635391,
      "d": 96.15385416666686,
      "v": 87
    },
    {
      "midi": 62,
      "hit": false,
      "t": 95310.10409635391,
      "d": 96.15385416666686,
      "v": 88
    },
    {
      "midi": 66,
      "hit": false,
      "t": 95310.10409635391,
      "d": 117.78847135417163,
      "v": 87
    },
    {
      "midi": 62,
      "hit": false,
      "t": 96000.00799999975,
      "d": 98.55770052083244,
      "v": 86
    },
    {
      "midi": 57,
      "hit": false,
      "t": 96000.00799999975,
      "d": 110.57693229166034,
      "v": 82
    },
    {
      "midi": 66,
      "hit": false,
      "t": 96000.00799999975,
      "d": 112.98077864582592,
      "v": 81
    },
    {
      "midi": 66,
      "hit": false,
      "t": 96687.50805729142,
      "d": 81.73077604167338,
      "v": 86
    },
    {
      "midi": 62,
      "hit": false,
      "t": 96687.50805729142,
      "d": 98.55770052084699,
      "v": 87
    },
    {
      "midi": 57,
      "hit": false,
      "t": 96687.50805729142,
      "d": 110.5769322916749,
      "v": 86
    },
    {
      "midi": 66,
      "hit": false,
      "t": 97379.81580729142,
      "d": 93.75000781250128,
      "v": 77
    },
    {
      "midi": 62,
      "hit": false,
      "t": 97379.81580729142,
      "d": 105.76923958332918,
      "v": 87
    },
    {
      "midi": 57,
      "hit": false,
      "t": 97379.81580729142,
      "d": 110.57693229166034,
      "v": 86
    },
    {
      "midi": 62,
      "hit": false,
      "t": 98302.89280729141,
      "d": 91.3461614583357,
      "v": 80
    },
    {
      "midi": 66,
      "hit": false,
      "t": 98302.89280729141,
      "d": 93.75000781250128,
      "v": 80
    },
    {
      "midi": 57,
      "hit": false,
      "t": 98302.89280729141,
      "d": 105.76923958332918,
      "v": 88
    },
    {
      "midi": 62,
      "hit": false,
      "t": 99000.00824999974,
      "d": 103.3653932291636,
      "v": 86
    },
    {
      "midi": 57,
      "hit": false,
      "t": 99000.00824999974,
      "d": 105.76923958332918,
      "v": 88
    },
    {
      "midi": 66,
      "hit": false,
      "t": 99000.00824999974,
      "d": 134.6153958333307,
      "v": 88
    },
    {
      "midi": 67,
      "hit": false,
      "t": 99687.5083072914,
      "d": 91.3461614583357,
      "v": 80
    },
    {
      "midi": 62,
      "hit": false,
      "t": 99687.5083072914,
      "d": 93.75000781250128,
      "v": 87
    },
    {
      "midi": 59,
      "hit": false,
      "t": 99687.5083072914,
      "d": 98.55770052083244,
      "v": 86
    },
    {
      "midi": 67,
      "hit": false,
      "t": 100382.21990364556,
      "d": 74.51923697916209,
      "v": 86
    },
    {
      "midi": 62,
      "hit": false,
      "t": 100382.21990364556,
      "d": 98.55770052083244,
      "v": 87
    },
    {
      "midi": 59,
      "hit": false,
      "t": 100382.21990364556,
      "d": 125.00001041666837,
      "v": 87
    },
    {
      "midi": 62,
      "hit": false,
      "t": 101076.93149999972,
      "d": 100.96154687499802,
      "v": 87
    },
    {
      "midi": 59,
      "hit": false,
      "t": 101076.93149999972,
      "d": 103.3653932291636,
      "v": 86
    },
    {
      "midi": 67,
      "hit": false,
      "t": 101076.93149999972,
      "d": 105.76923958332918,
      "v": 86
    },
    {
      "midi": 67,
      "hit": false,
      "t": 101997.60465364554,
      "d": 67.30769791666535,
      "v": 77
    },
    {
      "midi": 62,
      "hit": false,
      "t": 101997.60465364554,
      "d": 86.53846875000454,
      "v": 77
    },
    {
      "midi": 59,
      "hit": false,
      "t": 101997.60465364554,
      "d": 108.17308593750931,
      "v": 87
    },
    {
      "midi": 62,
      "hit": false,
      "t": 102694.72009635388,
      "d": 88.94231510417012,
      "v": 87
    },
    {
      "midi": 67,
      "hit": false,
      "t": 102694.72009635388,
      "d": 110.5769322916749,
      "v": 82
    },
    {
      "midi": 59,
      "hit": false,
      "t": 102694.72009635388,
      "d": 134.61539583334525,
      "v": 88
    },
    {
      "midi": 61,
      "hit": false,
      "t": 103384.62399999972,
      "d": 81.73077604167338,
      "v": 86
    },
    {
      "midi": 64,
      "hit": false,
      "t": 103384.62399999972,
      "d": 100.96154687501257,
      "v": 82
    },
    {
      "midi": 69,
      "hit": false,
      "t": 103384.62399999972,
      "d": 120.19231770835177,
      "v": 82
    },
    {
      "midi": 69,
      "hit": false,
      "t": 104072.12405729141,
      "d": 74.51923697916209,
      "v": 87
    },
    {
      "midi": 64,
      "hit": false,
      "t": 104072.12405729141,
      "d": 91.3461614583357,
      "v": 77
    },
    {
      "midi": 61,
      "hit": false,
      "t": 104072.12405729141,
      "d": 105.76923958332918,
      "v": 83
    },
    {
      "midi": 61,
      "hit": false,
      "t": 104764.4318072914,
      "d": 96.15385416666686,
      "v": 87
    },
    {
      "midi": 64,
      "hit": false,
      "t": 104764.4318072914,
      "d": 105.76923958332918,
      "v": 87
    },
    {
      "midi": 69,
      "hit": false,
      "t": 104764.4318072914,
      "d": 110.57693229166034,
      "v": 81
    },
    {
      "midi": 61,
      "hit": false,
      "t": 105687.5088072914,
      "d": 81.73077604167338,
      "v": 88
    },
    {
      "midi": 69,
      "hit": false,
      "t": 105687.5088072914,
      "d": 86.53846875000454,
      "v": 77
    },
    {
      "midi": 64,
      "hit": false,
      "t": 105687.5088072914,
      "d": 91.3461614583357,
      "v": 80
    },
    {
      "midi": 61,
      "hit": false,
      "t": 106384.62424999972,
      "d": 96.15385416666686,
      "v": 77
    },
    {
      "midi": 64,
      "hit": false,
      "t": 106384.62424999972,
      "d": 98.55770052083244,
      "v": 87
    },
    {
      "midi": 69,
      "hit": false,
      "t": 106384.62424999972,
      "d": 112.98077864582592,
      "v": 82
    },
    {
      "midi": 62,
      "hit": false,
      "t": 107072.12430729138,
      "d": 110.57693229166034,
      "v": 86
    },
    {
      "midi": 57,
      "hit": false,
      "t": 107072.12430729138,
      "d": 125.00001041665382,
      "v": 80
    },
    {
      "midi": 66,
      "hit": false,
      "t": 107072.12430729138,
      "d": 127.4038567708194,
      "v": 82
    },
    {
      "midi": 62,
      "hit": false,
      "t": 107766.83590364552,
      "d": 110.57693229166034,
      "v": 77
    },
    {
      "midi": 66,
      "hit": false,
      "t": 107766.83590364552,
      "d": 129.80770312499953,
      "v": 82
    },
    {
      "midi": 57,
      "hit": false,
      "t": 107766.83590364552,
      "d": 144.23078124999302,
      "v": 88
    },
    {
      "midi": 62,
      "hit": false,
      "t": 108461.54749999968,
      "d": 127.40385677083395,
      "v": 83
    },
    {
      "midi": 66,
      "hit": false,
      "t": 108461.54749999968,
      "d": 134.6153958333307,
      "v": 81
    },
    {
      "midi": 57,
      "hit": false,
      "t": 108461.54749999968,
      "d": 144.23078124999302,
      "v": 77
    },
    {
      "midi": 62,
      "hit": false,
      "t": 109382.2206536455,
      "d": 112.98077864584047,
      "v": 87
    },
    {
      "midi": 66,
      "hit": false,
      "t": 109382.2206536455,
      "d": 127.40385677083395,
      "v": 87
    },
    {
      "midi": 57,
      "hit": false,
      "t": 109382.2206536455,
      "d": 141.82693489582743,
      "v": 87
    },
    {
      "midi": 57,
      "hit": false,
      "t": 110079.33609635383,
      "d": 117.78847135417163,
      "v": 87
    },
    {
      "midi": 62,
      "hit": false,
      "t": 110079.33609635383,
      "d": 137.01924218751083,
      "v": 80
    },
    {
      "midi": 66,
      "hit": false,
      "t": 110079.33609635383,
      "d": 153.84616666668444,
      "v": 77
    },
    {
      "midi": 62,
      "hit": false,
      "t": 110769.23999999967,
      "d": 105.76923958332918,
      "v": 77
    },
    {
      "midi": 59,
      "hit": false,
      "t": 110769.23999999967,
      "d": 117.78847135415708,
      "v": 87
    },
    {
      "midi": 67,
      "hit": false,
      "t": 110769.23999999967,
      "d": 127.4038567708194,
      "v": 83
    },
    {
      "midi": 62,
      "hit": false,
      "t": 111456.74005729132,
      "d": 105.76923958332918,
      "v": 87
    },
    {
      "midi": 67,
      "hit": false,
      "t": 111456.74005729132,
      "d": 115.3846249999915,
      "v": 88
    },
    {
      "midi": 59,
      "hit": false,
      "t": 111456.74005729132,
      "d": 129.80770312498498,
      "v": 86
    },
    {
      "midi": 62,
      "hit": false,
      "t": 112149.0478072913,
      "d": 110.57693229166034,
      "v": 87
    },
    {
      "midi": 59,
      "hit": false,
      "t": 112149.0478072913,
      "d": 122.59616406248824,
      "v": 85
    },
    {
      "midi": 67,
      "hit": false,
      "t": 112149.0478072913,
      "d": 127.4038567708194,
      "v": 77
    },
    {
      "midi": 62,
      "hit": false,
      "t": 113072.12480729127,
      "d": 96.15385416666686,
      "v": 87
    },
    {
      "midi": 67,
      "hit": false,
      "t": 113072.12480729127,
      "d": 100.96154687499802,
      "v": 88
    },
    {
      "midi": 59,
      "hit": false,
      "t": 113072.12480729127,
      "d": 112.98077864582592,
      "v": 87
    },
    {
      "midi": 59,
      "hit": false,
      "t": 113769.2402499996,
      "d": 120.19231770833721,
      "v": 86
    },
    {
      "midi": 62,
      "hit": false,
      "t": 113769.2402499996,
      "d": 127.40385677083395,
      "v": 77
    },
    {
      "midi": 67,
      "hit": false,
      "t": 113769.2402499996,
      "d": 146.63462760417315,
      "v": 82
    },
    {
      "midi": 62,
      "hit": false,
      "t": 114456.74030729127,
      "d": 93.75000781250128,
      "v": 77
    },
    {
      "midi": 66,
      "hit": false,
      "t": 114456.74030729127,
      "d": 96.15385416666686,
      "v": 87
    },
    {
      "midi": 59,
      "hit": false,
      "t": 114456.74030729127,
      "d": 103.3653932291636,
      "v": 77
    },
    {
      "midi": 62,
      "hit": false,
      "t": 115151.45190364543,
      "d": 88.94231510417012,
      "v": 86
    },
    {
      "midi": 59,
      "hit": false,
      "t": 115151.45190364543,
      "d": 96.15385416666686,
      "v": 85
    },
    {
      "midi": 66,
      "hit": false,
      "t": 115151.45190364543,
      "d": 100.96154687499802,
      "v": 87
    },
    {
      "midi": 62,
      "hit": false,
      "t": 115846.16349999959,
      "d": 93.75000781250128,
      "v": 77
    },
    {
      "midi": 59,
      "hit": false,
      "t": 115846.16349999959,
      "d": 96.15385416666686,
      "v": 87
    },
    {
      "midi": 66,
      "hit": false,
      "t": 115846.16349999959,
      "d": 110.57693229166034,
      "v": 87
    },
    {
      "midi": 62,
      "hit": false,
      "t": 116766.83665364541,
      "d": 93.75000781250128,
      "v": 87
    },
    {
      "midi": 66,
      "hit": false,
      "t": 116766.83665364541,
      "d": 93.75000781250128,
      "v": 87
    },
    {
      "midi": 59,
      "hit": false,
      "t": 116766.83665364541,
      "d": 103.3653932291636,
      "v": 87
    },
    {
      "midi": 62,
      "hit": false,
      "t": 117463.95209635374,
      "d": 93.75000781250128,
      "v": 86
    },
    {
      "midi": 59,
      "hit": false,
      "t": 117463.95209635374,
      "d": 100.96154687499802,
      "v": 85
    },
    {
      "midi": 66,
      "hit": false,
      "t": 117463.95209635374,
      "d": 132.21154947916511,
      "v": 87
    },
    {
      "midi": 62,
      "hit": false,
      "t": 118153.85599999956,
      "d": 100.96154687499802,
      "v": 83
    },
    {
      "midi": 66,
      "hit": false,
      "t": 118153.85599999956,
      "d": 103.3653932291636,
      "v": 81
    },
    {
      "midi": 57,
      "hit": false,
      "t": 118153.85599999956,
      "d": 112.98077864582592,
      "v": 80
    },
    {
      "midi": 62,
      "hit": false,
      "t": 118841.35605729122,
      "d": 96.15385416666686,
      "v": 88
    },
    {
      "midi": 66,
      "hit": false,
      "t": 118841.35605729122,
      "d": 105.76923958332918,
      "v": 87
    },
    {
      "midi": 57,
      "hit": false,
      "t": 118841.35605729122,
      "d": 108.17308593749476,
      "v": 86
    },
    {
      "midi": 62,
      "hit": false,
      "t": 119533.66380729122,
      "d": 98.55770052083244,
      "v": 87
    },
    {
      "midi": 66,
      "hit": false,
      "t": 119533.66380729122,
      "d": 112.98077864582592,
      "v": 80
    },
    {
      "midi": 57,
      "hit": false,
      "t": 119533.66380729122,
      "d": 120.19231770832266,
      "v": 87
    },
    {
      "midi": 62,
      "hit": false,
      "t": 120456.74080729121,
      "d": 98.55770052083244,
      "v": 88
    },
    {
      "midi": 66,
      "hit": false,
      "t": 120456.74080729121,
      "d": 112.98077864582592,
      "v": 80
    },
    {
      "midi": 57,
      "hit": false,
      "t": 120456.74080729121,
      "d": 115.3846249999915,
      "v": 88
    },
    {
      "midi": 57,
      "hit": false,
      "t": 121153.85624999953,
      "d": 96.15385416666686,
      "v": 86
    },
    {
      "midi": 62,
      "hit": false,
      "t": 121153.85624999953,
      "d": 96.15385416666686,
      "v": 86
    },
    {
      "midi": 66,
      "hit": false,
      "t": 121153.85624999953,
      "d": 122.5961640625028,
      "v": 77
    },
    {
      "midi": 62,
      "hit": false,
      "t": 121841.35630729121,
      "d": 96.15385416666686,
      "v": 80
    },
    {
      "midi": 66,
      "hit": false,
      "t": 121841.35630729121,
      "d": 98.55770052083244,
      "v": 87
    },
    {
      "midi": 59,
      "hit": false,
      "t": 121841.35630729121,
      "d": 105.76923958332918,
      "v": 87
    },
    {
      "midi": 62,
      "hit": false,
      "t": 122536.06790364537,
      "d": 88.94231510417012,
      "v": 87
    },
    {
      "midi": 59,
      "hit": false,
      "t": 122536.06790364537,
      "d": 91.3461614583357,
      "v": 86
    },
    {
      "midi": 66,
      "hit": false,
      "t": 122536.06790364537,
      "d": 103.3653932291636,
      "v": 77
    },
    {
      "midi": 66,
      "hit": false,
      "t": 123230.77949999952,
      "d": 96.15385416666686,
      "v": 87
    },
    {
      "midi": 62,
      "hit": false,
      "t": 123230.77949999952,
      "d": 100.96154687499802,
      "v": 87
    },
    {
      "midi": 59,
      "hit": false,
      "t": 123230.77949999952,
      "d": 105.76923958332918,
      "v": 86
    },
    {
      "midi": 66,
      "hit": false,
      "t": 124151.45265364535,
      "d": 79.32692968749325,
      "v": 88
    },
    {
      "midi": 62,
      "hit": false,
      "t": 124151.45265364535,
      "d": 84.13462239582441,
      "v": 81
    },
    {
      "midi": 59,
      "hit": false,
      "t": 124151.45265364535,
      "d": 88.94231510415557,
      "v": 87
    },
    {
      "midi": 59,
      "hit": false,
      "t": 124848.56809635366,
      "d": 96.15385416666686,
      "v": 87
    },
    {
      "midi": 62,
      "hit": false,
      "t": 124848.56809635366,
      "d": 96.15385416666686,
      "v": 88
    },
    {
      "midi": 66,
      "hit": false,
      "t": 124848.56809635366,
      "d": 117.78847135417163,
      "v": 87
    },
    {
      "midi": 62,
      "hit": false,
      "t": 125538.4719999995,
      "d": 98.55770052083244,
      "v": 86
    },
    {
      "midi": 57,
      "hit": false,
      "t": 125538.4719999995,
      "d": 110.57693229166034,
      "v": 82
    },
    {
      "midi": 66,
      "hit": false,
      "t": 125538.4719999995,
      "d": 112.98077864582592,
      "v": 81
    },
    {
      "midi": 66,
      "hit": false,
      "t": 126225.97205729116,
      "d": 81.73077604167338,
      "v": 86
    },
    {
      "midi": 62,
      "hit": false,
      "t": 126225.97205729116,
      "d": 98.55770052084699,
      "v": 87
    },
    {
      "midi": 57,
      "hit": false,
      "t": 126225.97205729116,
      "d": 110.5769322916749,
      "v": 86
    },
    {
      "midi": 66,
      "hit": false,
      "t": 126918.27980729117,
      "d": 93.75000781250128,
      "v": 77
    },
    {
      "midi": 62,
      "hit": false,
      "t": 126918.27980729117,
      "d": 105.76923958332918,
      "v": 87
    },
    {
      "midi": 57,
      "hit": false,
      "t": 126918.27980729117,
      "d": 110.57693229166034,
      "v": 86
    },
    {
      "midi": 62,
      "hit": false,
      "t": 127841.35680729116,
      "d": 91.3461614583357,
      "v": 80
    },
    {
      "midi": 66,
      "hit": false,
      "t": 127841.35680729116,
      "d": 93.75000781250128,
      "v": 80
    },
    {
      "midi": 57,
      "hit": false,
      "t": 127841.35680729116,
      "d": 105.76923958332918,
      "v": 88
    },
    {
      "midi": 62,
      "hit": false,
      "t": 128538.47224999948,
      "d": 103.3653932291636,
      "v": 86
    },
    {
      "midi": 57,
      "hit": false,
      "t": 128538.47224999948,
      "d": 105.76923958332918,
      "v": 88
    },
    {
      "midi": 66,
      "hit": false,
      "t": 128538.47224999948,
      "d": 134.6153958333307,
      "v": 88
    },
    {
      "midi": 67,
      "hit": false,
      "t": 129225.97230729114,
      "d": 91.3461614583357,
      "v": 80
    },
    {
      "midi": 62,
      "hit": false,
      "t": 129225.97230729114,
      "d": 93.75000781250128,
      "v": 87
    },
    {
      "midi": 59,
      "hit": false,
      "t": 129225.97230729114,
      "d": 98.55770052083244,
      "v": 86
    },
    {
      "midi": 67,
      "hit": false,
      "t": 129920.6839036453,
      "d": 74.51923697916209,
      "v": 86
    },
    {
      "midi": 62,
      "hit": false,
      "t": 129920.6839036453,
      "d": 98.55770052083244,
      "v": 87
    },
    {
      "midi": 59,
      "hit": false,
      "t": 129920.6839036453,
      "d": 125.00001041666837,
      "v": 87
    },
    {
      "midi": 62,
      "hit": false,
      "t": 130615.39549999946,
      "d": 100.96154687499802,
      "v": 87
    },
    {
      "midi": 59,
      "hit": false,
      "t": 130615.39549999946,
      "d": 103.3653932291636,
      "v": 86
    },
    {
      "midi": 67,
      "hit": false,
      "t": 130615.39549999946,
      "d": 105.76923958332918,
      "v": 86
    },
    {
      "midi": 67,
      "hit": false,
      "t": 131536.06865364528,
      "d": 67.30769791666535,
      "v": 77
    },
    {
      "midi": 62,
      "hit": false,
      "t": 131536.06865364528,
      "d": 86.53846874998999,
      "v": 77
    },
    {
      "midi": 59,
      "hit": false,
      "t": 131536.06865364528,
      "d": 108.17308593748021,
      "v": 87
    },
    {
      "midi": 62,
      "hit": false,
      "t": 132233.1840963536,
      "d": 88.94231510415557,
      "v": 87
    },
    {
      "midi": 67,
      "hit": false,
      "t": 132233.1840963536,
      "d": 110.57693229164579,
      "v": 82
    },
    {
      "midi": 59,
      "hit": false,
      "t": 132233.1840963536,
      "d": 134.6153958333016,
      "v": 88
    },
    {
      "midi": 61,
      "hit": false,
      "t": 132923.0879999994,
      "d": 81.73077604165883,
      "v": 86
    },
    {
      "midi": 64,
      "hit": false,
      "t": 132923.0879999994,
      "d": 100.96154687498347,
      "v": 82
    },
    {
      "midi": 69,
      "hit": false,
      "t": 132923.0879999994,
      "d": 120.19231770830811,
      "v": 82
    },
    {
      "midi": 69,
      "hit": false,
      "t": 133610.58805729105,
      "d": 74.51923697916209,
      "v": 87
    },
    {
      "midi": 64,
      "hit": false,
      "t": 133610.58805729105,
      "d": 91.34616145832115,
      "v": 77
    },
    {
      "midi": 61,
      "hit": false,
      "t": 133610.58805729105,
      "d": 105.76923958331463,
      "v": 83
    },
    {
      "midi": 61,
      "hit": false,
      "t": 134302.89580729103,
      "d": 96.15385416665231,
      "v": 87
    },
    {
      "midi": 64,
      "hit": false,
      "t": 134302.89580729103,
      "d": 105.76923958331463,
      "v": 87
    },
    {
      "midi": 69,
      "hit": false,
      "t": 134302.89580729103,
      "d": 110.57693229164579,
      "v": 81
    },
    {
      "midi": 61,
      "hit": false,
      "t": 135225.97280729102,
      "d": 81.73077604165883,
      "v": 88
    },
    {
      "midi": 69,
      "hit": false,
      "t": 135225.97280729102,
      "d": 86.53846874998999,
      "v": 77
    },
    {
      "midi": 64,
      "hit": false,
      "t": 135225.97280729102,
      "d": 91.34616145832115,
      "v": 80
    },
    {
      "midi": 61,
      "hit": false,
      "t": 135923.08824999933,
      "d": 96.15385416665231,
      "v": 77
    },
    {
      "midi": 64,
      "hit": false,
      "t": 135923.08824999933,
      "d": 98.55770052081789,
      "v": 87
    },
    {
      "midi": 69,
      "hit": false,
      "t": 135923.08824999933,
      "d": 112.98077864581137,
      "v": 82
    },
    {
      "midi": 57,
      "hit": false,
      "t": 136610.58830729098,
      "d": 86.53846874998999,
      "v": 80
    },
    {
      "midi": 62,
      "hit": false,
      "t": 136610.58830729098,
      "d": 86.53846874998999,
      "v": 86
    },
    {
      "midi": 66,
      "hit": false,
      "t": 136610.58830729098,
      "d": 86.53846874998999,
      "v": 82
    },
    {
      "midi": 57,
      "hit": false,
      "t": 137076.9344999993,
      "d": 86.53846874998999,
      "v": 85
    },
    {
      "midi": 62,
      "hit": false,
      "t": 137076.9344999993,
      "d": 86.53846874998999,
      "v": 85
    },
    {
      "midi": 66,
      "hit": false,
      "t": 137076.9344999993,
      "d": 86.53846874998999,
      "v": 85
    },
    {
      "midi": 57,
      "hit": false,
      "t": 137305.29990364512,
      "d": 86.53846874998999,
      "v": 88
    },
    {
      "midi": 62,
      "hit": false,
      "t": 137305.29990364512,
      "d": 86.53846874998999,
      "v": 77
    },
    {
      "midi": 66,
      "hit": false,
      "t": 137305.29990364512,
      "d": 86.53846874998999,
      "v": 82
    },
    {
      "midi": 57,
      "hit": false,
      "t": 137538.47299999927,
      "d": 86.53846874998999,
      "v": 83
    },
    {
      "midi": 62,
      "hit": false,
      "t": 137538.47299999927,
      "d": 86.53846874998999,
      "v": 83
    },
    {
      "midi": 66,
      "hit": false,
      "t": 137538.47299999927,
      "d": 86.53846874998999,
      "v": 83
    },
    {
      "midi": 57,
      "hit": false,
      "t": 138000.01149999927,
      "d": 86.53846874998999,
      "v": 77
    },
    {
      "midi": 62,
      "hit": false,
      "t": 138000.01149999927,
      "d": 86.53846874998999,
      "v": 83
    },
    {
      "midi": 66,
      "hit": false,
      "t": 138000.01149999927,
      "d": 86.53846874998999,
      "v": 81
    },
    {
      "midi": 57,
      "hit": false,
      "t": 138920.6846536451,
      "d": 86.53846874998999,
      "v": 87
    },
    {
      "midi": 62,
      "hit": false,
      "t": 138920.6846536451,
      "d": 86.53846874998999,
      "v": 87
    },
    {
      "midi": 66,
      "hit": false,
      "t": 138920.6846536451,
      "d": 86.53846874998999,
      "v": 87
    },
    {
      "midi": 57,
      "hit": false,
      "t": 139384.62699999925,
      "d": 86.53846874998999,
      "v": 83
    },
    {
      "midi": 62,
      "hit": false,
      "t": 139384.62699999925,
      "d": 86.53846874998999,
      "v": 83
    },
    {
      "midi": 66,
      "hit": false,
      "t": 139384.62699999925,
      "d": 86.53846874998999,
      "v": 83
    },
    {
      "midi": 57,
      "hit": false,
      "t": 139617.8000963534,
      "d": 86.53846874998999,
      "v": 87
    },
    {
      "midi": 62,
      "hit": false,
      "t": 139617.8000963534,
      "d": 86.53846874998999,
      "v": 80
    },
    {
      "midi": 66,
      "hit": false,
      "t": 139617.8000963534,
      "d": 86.53846874998999,
      "v": 77
    },
    {
      "midi": 57,
      "hit": false,
      "t": 139843.76165364505,
      "d": 86.53846874998999,
      "v": 80
    },
    {
      "midi": 62,
      "hit": false,
      "t": 139843.76165364505,
      "d": 86.53846874998999,
      "v": 80
    },
    {
      "midi": 66,
      "hit": false,
      "t": 139843.76165364505,
      "d": 86.53846874998999,
      "v": 80
    },
    {
      "midi": 57,
      "hit": false,
      "t": 140307.7039999992,
      "d": 86.53846874998999,
      "v": 87
    },
    {
      "midi": 61,
      "hit": false,
      "t": 140307.7039999992,
      "d": 86.53846874998999,
      "v": 77
    },
    {
      "midi": 66,
      "hit": false,
      "t": 140307.7039999992,
      "d": 86.53846874998999,
      "v": 83
    },
    {
      "midi": 57,
      "hit": false,
      "t": 140762.0309609367,
      "d": 86.53846874998999,
      "v": 85
    },
    {
      "midi": 61,
      "hit": false,
      "t": 140762.0309609367,
      "d": 86.53846874998999,
      "v": 85
    },
    {
      "midi": 66,
      "hit": false,
      "t": 140762.0309609367,
      "d": 86.53846874998999,
      "v": 85
    },
    {
      "midi": 57,
      "hit": false,
      "t": 140995.20405729086,
      "d": 86.53846874998999,
      "v": 86
    },
    {
      "midi": 61,
      "hit": false,
      "t": 140995.20405729086,
      "d": 86.53846874998999,
      "v": 87
    },
    {
      "midi": 67,
      "hit": false,
      "t": 140995.20405729086,
      "d": 86.53846874998999,
      "v": 88
    },
    {
      "midi": 57,
      "hit": false,
      "t": 141228.377153645,
      "d": 86.53846874998999,
      "v": 83
    },
    {
      "midi": 61,
      "hit": false,
      "t": 141228.377153645,
      "d": 86.53846874998999,
      "v": 83
    },
    {
      "midi": 67,
      "hit": false,
      "t": 141228.377153645,
      "d": 86.53846874998999,
      "v": 83
    },
    {
      "midi": 57,
      "hit": false,
      "t": 141687.51180729084,
      "d": 86.53846874998999,
      "v": 85
    },
    {
      "midi": 61,
      "hit": false,
      "t": 141687.51180729084,
      "d": 86.53846874998999,
      "v": 87
    },
    {
      "midi": 67,
      "hit": false,
      "t": 141687.51180729084,
      "d": 86.53846874998999,
      "v": 77
    },
    {
      "midi": 57,
      "hit": false,
      "t": 142610.58880729083,
      "d": 86.53846874998999,
      "v": 87
    },
    {
      "midi": 61,
      "hit": false,
      "t": 142610.58880729083,
      "d": 86.53846874998999,
      "v": 87
    },
    {
      "midi": 67,
      "hit": false,
      "t": 142610.58880729083,
      "d": 86.53846874998999,
      "v": 88
    },
    {
      "midi": 57,
      "hit": false,
      "t": 143076.93499999915,
      "d": 86.53846874998999,
      "v": 84
    },
    {
      "midi": 61,
      "hit": false,
      "t": 143076.93499999915,
      "d": 86.53846874998999,
      "v": 84
    },
    {
      "midi": 67,
      "hit": false,
      "t": 143076.93499999915,
      "d": 86.53846874998999,
      "v": 84
    },
    {
      "midi": 57,
      "hit": false,
      "t": 143307.70424999914,
      "d": 86.53846874998999,
      "v": 87
    },
    {
      "midi": 61,
      "hit": false,
      "t": 143307.70424999914,
      "d": 86.53846874998999,
      "v": 87
    },
    {
      "midi": 67,
      "hit": false,
      "t": 143307.70424999914,
      "d": 86.53846874998999,
      "v": 87
    },
    {
      "midi": 57,
      "hit": false,
      "t": 143538.47349999912,
      "d": 86.53846874998999,
      "v": 87
    },
    {
      "midi": 61,
      "hit": false,
      "t": 143538.47349999912,
      "d": 86.53846874998999,
      "v": 87
    },
    {
      "midi": 67,
      "hit": false,
      "t": 143538.47349999912,
      "d": 86.53846874998999,
      "v": 87
    },
    {
      "midi": 59,
      "hit": false,
      "t": 143995.20430729078,
      "d": 86.53846874998999,
      "v": 77
    },
    {
      "midi": 62,
      "hit": false,
      "t": 143995.20430729078,
      "d": 86.53846874998999,
      "v": 77
    },
    {
      "midi": 66,
      "hit": false,
      "t": 143995.20430729078,
      "d": 86.53846874998999,
      "v": 87
    },
    {
      "midi": 59,
      "hit": false,
      "t": 144461.5504999991,
      "d": 86.53846874998999,
      "v": 85
    },
    {
      "midi": 62,
      "hit": false,
      "t": 144461.5504999991,
      "d": 86.53846874998999,
      "v": 85
    },
    {
      "midi": 66,
      "hit": false,
      "t": 144461.5504999991,
      "d": 86.53846874998999,
      "v": 85
    },
    {
      "midi": 59,
      "hit": false,
      "t": 144689.91590364493,
      "d": 86.53846874998999,
      "v": 77
    },
    {
      "midi": 62,
      "hit": false,
      "t": 144689.91590364493,
      "d": 86.53846874998999,
      "v": 77
    },
    {
      "midi": 66,
      "hit": false,
      "t": 144689.91590364493,
      "d": 86.53846874998999,
      "v": 77
    },
    {
      "midi": 59,
      "hit": false,
      "t": 144923.08899999908,
      "d": 86.53846874998999,
      "v": 83
    },
    {
      "midi": 62,
      "hit": false,
      "t": 144923.08899999908,
      "d": 86.53846874998999,
      "v": 83
    },
    {
      "midi": 66,
      "hit": false,
      "t": 144923.08899999908,
      "d": 86.53846874998999,
      "v": 83
    },
    {
      "midi": 59,
      "hit": false,
      "t": 145384.62749999907,
      "d": 86.53846874998999,
      "v": 87
    },
    {
      "midi": 62,
      "hit": false,
      "t": 145384.62749999907,
      "d": 86.53846874998999,
      "v": 77
    },
    {
      "midi": 66,
      "hit": false,
      "t": 145384.62749999907,
      "d": 86.53846874998999,
      "v": 87
    },
    {
      "midi": 59,
      "hit": false,
      "t": 146305.3006536449,
      "d": 86.53846874998999,
      "v": 87
    },
    {
      "midi": 62,
      "hit": false,
      "t": 146305.3006536449,
      "d": 86.53846874998999,
      "v": 87
    },
    {
      "midi": 66,
      "hit": false,
      "t": 146305.3006536449,
      "d": 86.53846874998999,
      "v": 87
    },
    {
      "midi": 59,
      "hit": false,
      "t": 146769.24299999906,
      "d": 86.53846874998999,
      "v": 82
    },
    {
      "midi": 62,
      "hit": false,
      "t": 146769.24299999906,
      "d": 86.53846874998999,
      "v": 82
    },
    {
      "midi": 66,
      "hit": false,
      "t": 146769.24299999906,
      "d": 86.53846874998999,
      "v": 82
    },
    {
      "midi": 59,
      "hit": false,
      "t": 147002.4160963532,
      "d": 86.53846874998999,
      "v": 87
    },
    {
      "midi": 62,
      "hit": false,
      "t": 147002.4160963532,
      "d": 86.53846874998999,
      "v": 86
    },
    {
      "midi": 66,
      "hit": false,
      "t": 147002.4160963532,
      "d": 86.53846874998999,
      "v": 87
    },
    {
      "midi": 59,
      "hit": false,
      "t": 147228.37765364486,
      "d": 86.53846874998999,
      "v": 79
    },
    {
      "midi": 62,
      "hit": false,
      "t": 147228.37765364486,
      "d": 86.53846874998999,
      "v": 79
    },
    {
      "midi": 66,
      "hit": false,
      "t": 147228.37765364486,
      "d": 86.53846874998999,
      "v": 79
    },
    {
      "midi": 57,
      "hit": false,
      "t": 147692.31999999902,
      "d": 86.53846874998999,
      "v": 80
    },
    {
      "midi": 62,
      "hit": false,
      "t": 147692.31999999902,
      "d": 86.53846874998999,
      "v": 83
    },
    {
      "midi": 66,
      "hit": false,
      "t": 147692.31999999902,
      "d": 86.53846874998999,
      "v": 81
    },
    {
      "midi": 57,
      "hit": false,
      "t": 148146.64696093652,
      "d": 86.53846874998999,
      "v": 85
    },
    {
      "midi": 62,
      "hit": false,
      "t": 148146.64696093652,
      "d": 86.53846874998999,
      "v": 85
    },
    {
      "midi": 66,
      "hit": false,
      "t": 148146.64696093652,
      "d": 86.53846874998999,
      "v": 85
    },
    {
      "midi": 57,
      "hit": false,
      "t": 148379.82005729066,
      "d": 86.53846874998999,
      "v": 86
    },
    {
      "midi": 62,
      "hit": false,
      "t": 148379.82005729066,
      "d": 86.53846874998999,
      "v": 88
    },
    {
      "midi": 66,
      "hit": false,
      "t": 148379.82005729066,
      "d": 86.53846874998999,
      "v": 87
    },
    {
      "midi": 57,
      "hit": false,
      "t": 148612.9931536448,
      "d": 86.53846874998999,
      "v": 84
    },
    {
      "midi": 62,
      "hit": false,
      "t": 148612.9931536448,
      "d": 86.53846874998999,
      "v": 84
    },
    {
      "midi": 66,
      "hit": false,
      "t": 148612.9931536448,
      "d": 86.53846874998999,
      "v": 84
    },
    {
      "midi": 57,
      "hit": false,
      "t": 149072.12780729064,
      "d": 86.53846874998999,
      "v": 87
    },
    {
      "midi": 62,
      "hit": false,
      "t": 149072.12780729064,
      "d": 86.53846874998999,
      "v": 87
    },
    {
      "midi": 66,
      "hit": false,
      "t": 149072.12780729064,
      "d": 86.53846874998999,
      "v": 80
    },
    {
      "midi": 57,
      "hit": false,
      "t": 149995.20480729063,
      "d": 86.53846874998999,
      "v": 88
    },
    {
      "midi": 62,
      "hit": false,
      "t": 149995.20480729063,
      "d": 86.53846874998999,
      "v": 88
    },
    {
      "midi": 66,
      "hit": false,
      "t": 149995.20480729063,
      "d": 86.53846874998999,
      "v": 80
    },
    {
      "midi": 57,
      "hit": false,
      "t": 150461.55099999896,
      "d": 86.53846874998999,
      "v": 83
    },
    {
      "midi": 62,
      "hit": false,
      "t": 150461.55099999896,
      "d": 86.53846874998999,
      "v": 83
    },
    {
      "midi": 66,
      "hit": false,
      "t": 150461.55099999896,
      "d": 86.53846874998999,
      "v": 83
    },
    {
      "midi": 57,
      "hit": false,
      "t": 150692.32024999894,
      "d": 86.53846874998999,
      "v": 86
    },
    {
      "midi": 62,
      "hit": false,
      "t": 150692.32024999894,
      "d": 86.53846874998999,
      "v": 86
    },
    {
      "midi": 66,
      "hit": false,
      "t": 150692.32024999894,
      "d": 86.53846874998999,
      "v": 77
    },
    {
      "midi": 57,
      "hit": false,
      "t": 150923.08949999893,
      "d": 86.53846874998999,
      "v": 87
    },
    {
      "midi": 62,
      "hit": false,
      "t": 150923.08949999893,
      "d": 86.53846874998999,
      "v": 86
    },
    {
      "midi": 66,
      "hit": false,
      "t": 150923.08949999893,
      "d": 86.53846874998999,
      "v": 87
    },
    {
      "midi": 59,
      "hit": false,
      "t": 151379.8203072906,
      "d": 86.53846874998999,
      "v": 87
    },
    {
      "midi": 62,
      "hit": false,
      "t": 151379.8203072906,
      "d": 86.53846874998999,
      "v": 80
    },
    {
      "midi": 66,
      "hit": false,
      "t": 151379.8203072906,
      "d": 86.53846874998999,
      "v": 87
    },
    {
      "midi": 59,
      "hit": false,
      "t": 151846.16649999892,
      "d": 86.53846874998999,
      "v": 84
    },
    {
      "midi": 62,
      "hit": false,
      "t": 151846.16649999892,
      "d": 86.53846874998999,
      "v": 84
    },
    {
      "midi": 66,
      "hit": false,
      "t": 151846.16649999892,
      "d": 86.53846874998999,
      "v": 84
    },
    {
      "midi": 59,
      "hit": false,
      "t": 152074.53190364473,
      "d": 86.53846874998999,
      "v": 80
    },
    {
      "midi": 62,
      "hit": false,
      "t": 152074.53190364473,
      "d": 86.53846874998999,
      "v": 80
    },
    {
      "midi": 66,
      "hit": false,
      "t": 152074.53190364473,
      "d": 86.53846874998999,
      "v": 80
    },
    {
      "midi": 59,
      "hit": false,
      "t": 152307.70499999888,
      "d": 86.53846874998999,
      "v": 86
    },
    {
      "midi": 62,
      "hit": false,
      "t": 152307.70499999888,
      "d": 86.53846874998999,
      "v": 86
    },
    {
      "midi": 66,
      "hit": false,
      "t": 152307.70499999888,
      "d": 86.53846874998999,
      "v": 86
    },
    {
      "midi": 59,
      "hit": false,
      "t": 152769.24349999888,
      "d": 86.53846874998999,
      "v": 86
    },
    {
      "midi": 62,
      "hit": false,
      "t": 152769.24349999888,
      "d": 86.53846874998999,
      "v": 87
    },
    {
      "midi": 66,
      "hit": false,
      "t": 152769.24349999888,
      "d": 86.53846874998999,
      "v": 87
    },
    {
      "midi": 59,
      "hit": false,
      "t": 153689.9166536447,
      "d": 86.53846874998999,
      "v": 87
    },
    {
      "midi": 62,
      "hit": false,
      "t": 153689.9166536447,
      "d": 86.53846874998999,
      "v": 81
    },
    {
      "midi": 66,
      "hit": false,
      "t": 153689.9166536447,
      "d": 86.53846874998999,
      "v": 88
    },
    {
      "midi": 59,
      "hit": false,
      "t": 154153.85899999886,
      "d": 86.53846874998999,
      "v": 83
    },
    {
      "midi": 62,
      "hit": false,
      "t": 154153.85899999886,
      "d": 86.53846874998999,
      "v": 83
    },
    {
      "midi": 66,
      "hit": false,
      "t": 154153.85899999886,
      "d": 86.53846874998999,
      "v": 83
    },
    {
      "midi": 59,
      "hit": false,
      "t": 154387.032096353,
      "d": 86.53846874998999,
      "v": 87
    },
    {
      "midi": 62,
      "hit": false,
      "t": 154387.032096353,
      "d": 86.53846874998999,
      "v": 88
    },
    {
      "midi": 66,
      "hit": false,
      "t": 154387.032096353,
      "d": 86.53846874998999,
      "v": 87
    },
    {
      "midi": 59,
      "hit": false,
      "t": 154612.99365364466,
      "d": 86.53846874998999,
      "v": 77
    },
    {
      "midi": 62,
      "hit": false,
      "t": 154612.99365364466,
      "d": 86.53846874998999,
      "v": 77
    },
    {
      "midi": 66,
      "hit": false,
      "t": 154612.99365364466,
      "d": 86.53846874998999,
      "v": 77
    },
    {
      "midi": 57,
      "hit": false,
      "t": 155076.93599999882,
      "d": 86.53846874998999,
      "v": 82
    },
    {
      "midi": 62,
      "hit": false,
      "t": 155076.93599999882,
      "d": 86.53846874998999,
      "v": 86
    },
    {
      "midi": 66,
      "hit": false,
      "t": 155076.93599999882,
      "d": 86.53846874998999,
      "v": 81
    },
    {
      "midi": 57,
      "hit": false,
      "t": 155531.26296093632,
      "d": 86.53846874998999,
      "v": 85
    },
    {
      "midi": 62,
      "hit": false,
      "t": 155531.26296093632,
      "d": 86.53846874998999,
      "v": 85
    },
    {
      "midi": 66,
      "hit": false,
      "t": 155531.26296093632,
      "d": 86.53846874998999,
      "v": 85
    },
    {
      "midi": 57,
      "hit": false,
      "t": 155764.43605729047,
      "d": 86.53846874998999,
      "v": 86
    },
    {
      "midi": 62,
      "hit": false,
      "t": 155764.43605729047,
      "d": 86.53846874998999,
      "v": 87
    },
    {
      "midi": 66,
      "hit": false,
      "t": 155764.43605729047,
      "d": 86.53846874998999,
      "v": 86
    },
    {
      "midi": 57,
      "hit": false,
      "t": 155997.60915364462,
      "d": 86.53846874998999,
      "v": 83
    },
    {
      "midi": 62,
      "hit": false,
      "t": 155997.60915364462,
      "d": 86.53846874998999,
      "v": 83
    },
    {
      "midi": 66,
      "hit": false,
      "t": 155997.60915364462,
      "d": 86.53846874998999,
      "v": 83
    },
    {
      "midi": 57,
      "hit": false,
      "t": 156456.74380729045,
      "d": 86.53846874998999,
      "v": 86
    },
    {
      "midi": 62,
      "hit": false,
      "t": 156456.74380729045,
      "d": 86.53846874998999,
      "v": 87
    },
    {
      "midi": 66,
      "hit": false,
      "t": 156456.74380729045,
      "d": 86.53846874998999,
      "v": 77
    },
    {
      "midi": 57,
      "hit": false,
      "t": 157379.82080729044,
      "d": 86.53846874998999,
      "v": 88
    },
    {
      "midi": 62,
      "hit": false,
      "t": 157379.82080729044,
      "d": 86.53846874998999,
      "v": 80
    },
    {
      "midi": 66,
      "hit": false,
      "t": 157379.82080729044,
      "d": 86.53846874998999,
      "v": 80
    },
    {
      "midi": 57,
      "hit": false,
      "t": 157846.16699999876,
      "d": 86.53846874998999,
      "v": 83
    },
    {
      "midi": 62,
      "hit": false,
      "t": 157846.16699999876,
      "d": 86.53846874998999,
      "v": 83
    },
    {
      "midi": 66,
      "hit": false,
      "t": 157846.16699999876,
      "d": 86.53846874998999,
      "v": 83
    },
    {
      "midi": 57,
      "hit": false,
      "t": 158076.93624999875,
      "d": 86.53846874998999,
      "v": 88
    },
    {
      "midi": 62,
      "hit": false,
      "t": 158076.93624999875,
      "d": 86.53846874998999,
      "v": 86
    },
    {
      "midi": 66,
      "hit": false,
      "t": 158076.93624999875,
      "d": 86.53846874998999,
      "v": 88
    },
    {
      "midi": 57,
      "hit": false,
      "t": 158307.70549999873,
      "d": 86.53846874998999,
      "v": 88
    },
    {
      "midi": 62,
      "hit": false,
      "t": 158307.70549999873,
      "d": 86.53846874998999,
      "v": 86
    },
    {
      "midi": 66,
      "hit": false,
      "t": 158307.70549999873,
      "d": 86.53846874998999,
      "v": 88
    },
    {
      "midi": 59,
      "hit": false,
      "t": 158764.4363072904,
      "d": 86.53846874998999,
      "v": 86
    },
    {
      "midi": 62,
      "hit": false,
      "t": 158764.4363072904,
      "d": 86.53846874998999,
      "v": 87
    },
    {
      "midi": 67,
      "hit": false,
      "t": 158764.4363072904,
      "d": 86.53846874998999,
      "v": 80
    },
    {
      "midi": 59,
      "hit": false,
      "t": 159230.78249999872,
      "d": 86.53846874998999,
      "v": 85
    },
    {
      "midi": 62,
      "hit": false,
      "t": 159230.78249999872,
      "d": 86.53846874998999,
      "v": 85
    },
    {
      "midi": 67,
      "hit": false,
      "t": 159230.78249999872,
      "d": 86.53846874998999,
      "v": 85
    },
    {
      "midi": 59,
      "hit": false,
      "t": 159459.14790364454,
      "d": 86.53846874998999,
      "v": 87
    },
    {
      "midi": 62,
      "hit": false,
      "t": 159459.14790364454,
      "d": 86.53846874998999,
      "v": 87
    },
    {
      "midi": 67,
      "hit": false,
      "t": 159459.14790364454,
      "d": 86.53846874998999,
      "v": 86
    },
    {
      "midi": 59,
      "hit": false,
      "t": 159692.3209999987,
      "d": 86.53846874998999,
      "v": 83
    },
    {
      "midi": 62,
      "hit": false,
      "t": 159692.3209999987,
      "d": 86.53846874998999,
      "v": 83
    },
    {
      "midi": 67,
      "hit": false,
      "t": 159692.3209999987,
      "d": 86.53846874998999,
      "v": 83
    },
    {
      "midi": 59,
      "hit": false,
      "t": 160153.85949999868,
      "d": 86.53846874998999,
      "v": 86
    },
    {
      "midi": 62,
      "hit": false,
      "t": 160153.85949999868,
      "d": 86.53846874998999,
      "v": 87
    },
    {
      "midi": 67,
      "hit": false,
      "t": 160153.85949999868,
      "d": 86.53846874998999,
      "v": 86
    },
    {
      "midi": 59,
      "hit": false,
      "t": 161074.5326536445,
      "d": 86.53846874998999,
      "v": 87
    },
    {
      "midi": 62,
      "hit": false,
      "t": 161074.5326536445,
      "d": 86.53846874998999,
      "v": 77
    },
    {
      "midi": 67,
      "hit": false,
      "t": 161074.5326536445,
      "d": 86.53846874998999,
      "v": 77
    },
    {
      "midi": 59,
      "hit": false,
      "t": 161538.47499999867,
      "d": 86.53846874998999,
      "v": 85
    },
    {
      "midi": 62,
      "hit": false,
      "t": 161538.47499999867,
      "d": 86.53846874998999,
      "v": 85
    },
    {
      "midi": 67,
      "hit": false,
      "t": 161538.47499999867,
      "d": 86.53846874998999,
      "v": 85
    },
    {
      "midi": 59,
      "hit": false,
      "t": 161771.64809635282,
      "d": 86.53846874998999,
      "v": 88
    },
    {
      "midi": 62,
      "hit": false,
      "t": 161771.64809635282,
      "d": 86.53846874998999,
      "v": 87
    },
    {
      "midi": 67,
      "hit": false,
      "t": 161771.64809635282,
      "d": 86.53846874998999,
      "v": 82
    },
    {
      "midi": 59,
      "hit": false,
      "t": 161997.60965364447,
      "d": 86.53846874998999,
      "v": 87
    },
    {
      "midi": 62,
      "hit": false,
      "t": 161997.60965364447,
      "d": 86.53846874998999,
      "v": 87
    },
    {
      "midi": 67,
      "hit": false,
      "t": 161997.60965364447,
      "d": 86.53846874998999,
      "v": 86
    },
    {
      "midi": 61,
      "hit": false,
      "t": 162461.55199999863,
      "d": 86.53846874998999,
      "v": 86
    },
    {
      "midi": 64,
      "hit": false,
      "t": 162461.55199999863,
      "d": 86.53846874998999,
      "v": 82
    },
    {
      "midi": 69,
      "hit": false,
      "t": 162461.55199999863,
      "d": 86.53846874998999,
      "v": 82
    },
    {
      "midi": 61,
      "hit": false,
      "t": 162915.87896093613,
      "d": 86.53846874998999,
      "v": 85
    },
    {
      "midi": 64,
      "hit": false,
      "t": 162915.87896093613,
      "d": 86.53846874998999,
      "v": 85
    },
    {
      "midi": 69,
      "hit": false,
      "t": 162915.87896093613,
      "d": 86.53846874998999,
      "v": 85
    },
    {
      "midi": 61,
      "hit": false,
      "t": 163149.05205729028,
      "d": 86.53846874998999,
      "v": 83
    },
    {
      "midi": 64,
      "hit": false,
      "t": 163149.05205729028,
      "d": 86.53846874998999,
      "v": 77
    },
    {
      "midi": 69,
      "hit": false,
      "t": 163149.05205729028,
      "d": 86.53846874998999,
      "v": 87
    },
    {
      "midi": 61,
      "hit": false,
      "t": 163382.22515364442,
      "d": 86.53846874998999,
      "v": 84
    },
    {
      "midi": 64,
      "hit": false,
      "t": 163382.22515364442,
      "d": 86.53846874998999,
      "v": 84
    },
    {
      "midi": 69,
      "hit": false,
      "t": 163382.22515364442,
      "d": 86.53846874998999,
      "v": 84
    },
    {
      "midi": 61,
      "hit": false,
      "t": 163841.35980729025,
      "d": 86.53846874998999,
      "v": 87
    },
    {
      "midi": 64,
      "hit": false,
      "t": 163841.35980729025,
      "d": 86.53846874998999,
      "v": 87
    },
    {
      "midi": 69,
      "hit": false,
      "t": 163841.35980729025,
      "d": 86.53846874998999,
      "v": 81
    },
    {
      "midi": 61,
      "hit": false,
      "t": 164764.43680729024,
      "d": 86.53846874998999,
      "v": 88
    },
    {
      "midi": 64,
      "hit": false,
      "t": 164764.43680729024,
      "d": 86.53846874998999,
      "v": 80
    },
    {
      "midi": 69,
      "hit": false,
      "t": 164764.43680729024,
      "d": 86.53846874998999,
      "v": 77
    },
    {
      "midi": 61,
      "hit": false,
      "t": 165230.78299999857,
      "d": 86.53846874998999,
      "v": 85
    },
    {
      "midi": 64,
      "hit": false,
      "t": 165230.78299999857,
      "d": 86.53846874998999,
      "v": 85
    },
    {
      "midi": 69,
      "hit": false,
      "t": 165230.78299999857,
      "d": 86.53846874998999,
      "v": 85
    },
    {
      "midi": 61,
      "hit": false,
      "t": 165461.55224999855,
      "d": 86.53846874998999,
      "v": 77
    },
    {
      "midi": 64,
      "hit": false,
      "t": 165461.55224999855,
      "d": 86.53846874998999,
      "v": 87
    },
    {
      "midi": 69,
      "hit": false,
      "t": 165461.55224999855,
      "d": 86.53846874998999,
      "v": 82
    },
    {
      "midi": 61,
      "hit": false,
      "t": 165692.32149999854,
      "d": 86.53846874998999,
      "v": 83
    },
    {
      "midi": 64,
      "hit": false,
      "t": 165692.32149999854,
      "d": 86.53846874998999,
      "v": 77
    },
    {
      "midi": 69,
      "hit": false,
      "t": 165692.32149999854,
      "d": 86.53846874998999,
      "v": 87
    },
    {
      "midi": 62,
      "hit": false,
      "t": 166149.0523072902,
      "d": 110.5769322916749,
      "v": 86
    },
    {
      "midi": 57,
      "hit": false,
      "t": 166149.0523072902,
      "d": 125.00001041666837,
      "v": 80
    },
    {
      "midi": 66,
      "hit": false,
      "t": 166149.0523072902,
      "d": 127.40385677083395,
      "v": 82
    },
    {
      "midi": 62,
      "hit": false,
      "t": 166843.76390364437,
      "d": 110.5769322916749,
      "v": 77
    },
    {
      "midi": 66,
      "hit": false,
      "t": 166843.76390364437,
      "d": 129.80770312499953,
      "v": 82
    },
    {
      "midi": 57,
      "hit": false,
      "t": 166843.76390364437,
      "d": 144.23078124999302,
      "v": 88
    },
    {
      "midi": 62,
      "hit": false,
      "t": 167538.47549999852,
      "d": 127.40385677083395,
      "v": 83
    },
    {
      "midi": 66,
      "hit": false,
      "t": 167538.47549999852,
      "d": 134.6153958333307,
      "v": 81
    },
    {
      "midi": 57,
      "hit": false,
      "t": 167538.47549999852,
      "d": 144.23078124999302,
      "v": 77
    },
    {
      "midi": 62,
      "hit": false,
      "t": 168459.14865364434,
      "d": 112.98077864584047,
      "v": 87
    },
    {
      "midi": 66,
      "hit": false,
      "t": 168459.14865364434,
      "d": 127.40385677083395,
      "v": 87
    },
    {
      "midi": 57,
      "hit": false,
      "t": 168459.14865364434,
      "d": 141.82693489582743,
      "v": 87
    },
    {
      "midi": 57,
      "hit": false,
      "t": 169156.26409635265,
      "d": 117.78847135417163,
      "v": 87
    },
    {
      "midi": 62,
      "hit": false,
      "t": 169156.26409635265,
      "d": 137.01924218749627,
      "v": 80
    },
    {
      "midi": 66,
      "hit": false,
      "t": 169156.26409635265,
      "d": 153.84616666665534,
      "v": 77
    },
    {
      "midi": 62,
      "hit": false,
      "t": 169846.16799999846,
      "d": 105.76923958334373,
      "v": 77
    },
    {
      "midi": 59,
      "hit": false,
      "t": 169846.16799999846,
      "d": 117.78847135417163,
      "v": 87
    },
    {
      "midi": 67,
      "hit": false,
      "t": 169846.16799999846,
      "d": 127.40385677083395,
      "v": 83
    },
    {
      "midi": 62,
      "hit": false,
      "t": 170533.66805729014,
      "d": 105.76923958334373,
      "v": 87
    },
    {
      "midi": 67,
      "hit": false,
      "t": 170533.66805729014,
      "d": 115.38462500000605,
      "v": 88
    },
    {
      "midi": 59,
      "hit": false,
      "t": 170533.66805729014,
      "d": 129.80770312499953,
      "v": 86
    },
    {
      "midi": 62,
      "hit": false,
      "t": 171225.97580729015,
      "d": 110.5769322916749,
      "v": 87
    },
    {
      "midi": 59,
      "hit": false,
      "t": 171225.97580729015,
      "d": 122.5961640625028,
      "v": 85
    },
    {
      "midi": 67,
      "hit": false,
      "t": 171225.97580729015,
      "d": 127.40385677083395,
      "v": 77
    },
    {
      "midi": 62,
      "hit": false,
      "t": 172149.05280729014,
      "d": 96.15385416665231,
      "v": 87
    },
    {
      "midi": 67,
      "hit": false,
      "t": 172149.05280729014,
      "d": 100.96154687498347,
      "v": 88
    },
    {
      "midi": 59,
      "hit": false,
      "t": 172149.05280729014,
      "d": 112.98077864581137,
      "v": 87
    },
    {
      "midi": 59,
      "hit": false,
      "t": 172846.16824999845,
      "d": 120.19231770833721,
      "v": 86
    },
    {
      "midi": 62,
      "hit": false,
      "t": 172846.16824999845,
      "d": 127.40385677083395,
      "v": 77
    },
    {
      "midi": 67,
      "hit": false,
      "t": 172846.16824999845,
      "d": 146.6346276041586,
      "v": 82
    },
    {
      "midi": 62,
      "hit": false,
      "t": 173533.6683072901,
      "d": 93.75000781248673,
      "v": 77
    },
    {
      "midi": 66,
      "hit": false,
      "t": 173533.6683072901,
      "d": 96.15385416665231,
      "v": 87
    },
    {
      "midi": 59,
      "hit": false,
      "t": 173533.6683072901,
      "d": 103.36539322914905,
      "v": 77
    },
    {
      "midi": 62,
      "hit": false,
      "t": 174228.37990364424,
      "d": 88.94231510415557,
      "v": 86
    },
    {
      "midi": 59,
      "hit": false,
      "t": 174228.37990364424,
      "d": 96.15385416665231,
      "v": 85
    },
    {
      "midi": 66,
      "hit": false,
      "t": 174228.37990364424,
      "d": 100.96154687498347,
      "v": 87
    },
    {
      "midi": 62,
      "hit": false,
      "t": 174923.09149999838,
      "d": 93.75000781248673,
      "v": 77
    },
    {
      "midi": 59,
      "hit": false,
      "t": 174923.09149999838,
      "d": 96.15385416665231,
      "v": 87
    },
    {
      "midi": 66,
      "hit": false,
      "t": 174923.09149999838,
      "d": 110.57693229164579,
      "v": 87
    },
    {
      "midi": 62,
      "hit": false,
      "t": 175843.76465364418,
      "d": 93.75000781248673,
      "v": 87
    },
    {
      "midi": 66,
      "hit": false,
      "t": 175843.76465364418,
      "d": 93.75000781248673,
      "v": 87
    },
    {
      "midi": 59,
      "hit": false,
      "t": 175843.76465364418,
      "d": 103.36539322914905,
      "v": 87
    },
    {
      "midi": 62,
      "hit": false,
      "t": 176540.88009635248,
      "d": 93.75000781248673,
      "v": 86
    },
    {
      "midi": 59,
      "hit": false,
      "t": 176540.88009635248,
      "d": 100.96154687498347,
      "v": 85
    },
    {
      "midi": 66,
      "hit": false,
      "t": 176540.88009635248,
      "d": 132.211549479136,
      "v": 87
    },
    {
      "midi": 62,
      "hit": false,
      "t": 177230.7839999983,
      "d": 100.96154687501257,
      "v": 83
    },
    {
      "midi": 66,
      "hit": false,
      "t": 177230.7839999983,
      "d": 103.36539322917815,
      "v": 81
    },
    {
      "midi": 57,
      "hit": false,
      "t": 177230.7839999983,
      "d": 112.98077864584047,
      "v": 80
    },
    {
      "midi": 62,
      "hit": false,
      "t": 177918.28405728997,
      "d": 96.15385416665231,
      "v": 88
    },
    {
      "midi": 66,
      "hit": false,
      "t": 177918.28405728997,
      "d": 105.76923958331463,
      "v": 87
    },
    {
      "midi": 57,
      "hit": false,
      "t": 177918.28405728997,
      "d": 108.17308593748021,
      "v": 86
    },
    {
      "midi": 62,
      "hit": false,
      "t": 178610.59180728995,
      "d": 98.55770052084699,
      "v": 87
    },
    {
      "midi": 66,
      "hit": false,
      "t": 178610.59180728995,
      "d": 112.98077864584047,
      "v": 80
    },
    {
      "midi": 57,
      "hit": false,
      "t": 178610.59180728995,
      "d": 120.19231770833721,
      "v": 87
    },
    {
      "midi": 62,
      "hit": false,
      "t": 179533.66880728994,
      "d": 98.55770052084699,
      "v": 88
    },
    {
      "midi": 66,
      "hit": false,
      "t": 179533.66880728994,
      "d": 112.98077864584047,
      "v": 80
    },
    {
      "midi": 57,
      "hit": false,
      "t": 179533.66880728994,
      "d": 115.38462500000605,
      "v": 88
    },
    {
      "midi": 57,
      "hit": false,
      "t": 180230.78424999828,
      "d": 96.15385416665231,
      "v": 86
    },
    {
      "midi": 62,
      "hit": false,
      "t": 180230.78424999828,
      "d": 96.15385416665231,
      "v": 86
    },
    {
      "midi": 66,
      "hit": false,
      "t": 180230.78424999828,
      "d": 122.59616406247369,
      "v": 77
    },
    {
      "midi": 62,
      "hit": false,
      "t": 180918.28430728993,
      "d": 96.15385416665231,
      "v": 80
    },
    {
      "midi": 66,
      "hit": false,
      "t": 180918.28430728993,
      "d": 98.55770052081789,
      "v": 87
    },
    {
      "midi": 59,
      "hit": false,
      "t": 180918.28430728993,
      "d": 105.76923958331463,
      "v": 87
    },
    {
      "midi": 62,
      "hit": false,
      "t": 181612.99590364407,
      "d": 88.94231510415557,
      "v": 87
    },
    {
      "midi": 59,
      "hit": false,
      "t": 181612.99590364407,
      "d": 91.34616145832115,
      "v": 86
    },
    {
      "midi": 66,
      "hit": false,
      "t": 181612.99590364407,
      "d": 103.36539322914905,
      "v": 77
    },
    {
      "midi": 66,
      "hit": false,
      "t": 182307.7074999982,
      "d": 96.15385416665231,
      "v": 87
    },
    {
      "midi": 62,
      "hit": false,
      "t": 182307.7074999982,
      "d": 100.96154687498347,
      "v": 87
    },
    {
      "midi": 59,
      "hit": false,
      "t": 182307.7074999982,
      "d": 105.76923958331463,
      "v": 86
    },
    {
      "midi": 66,
      "hit": false,
      "t": 183228.38065364404,
      "d": 79.32692968749325,
      "v": 88
    },
    {
      "midi": 62,
      "hit": false,
      "t": 183228.38065364404,
      "d": 84.13462239582441,
      "v": 81
    },
    {
      "midi": 59,
      "hit": false,
      "t": 183228.38065364404,
      "d": 88.94231510415557,
      "v": 87
    },
    {
      "midi": 59,
      "hit": false,
      "t": 183925.49609635235,
      "d": 96.15385416665231,
      "v": 87
    },
    {
      "midi": 62,
      "hit": false,
      "t": 183925.49609635235,
      "d": 96.15385416665231,
      "v": 88
    },
    {
      "midi": 66,
      "hit": false,
      "t": 183925.49609635235,
      "d": 117.78847135414253,
      "v": 87
    },
    {
      "midi": 62,
      "hit": false,
      "t": 184615.39999999816,
      "d": 98.55770052084699,
      "v": 86
    },
    {
      "midi": 57,
      "hit": false,
      "t": 184615.39999999816,
      "d": 110.5769322916749,
      "v": 82
    },
    {
      "midi": 66,
      "hit": false,
      "t": 184615.39999999816,
      "d": 112.98077864584047,
      "v": 81
    },
    {
      "midi": 66,
      "hit": false,
      "t": 185302.90005728984,
      "d": 81.73077604165883,
      "v": 86
    },
    {
      "midi": 62,
      "hit": false,
      "t": 185302.90005728984,
      "d": 98.55770052081789,
      "v": 87
    },
    {
      "midi": 57,
      "hit": false,
      "t": 185302.90005728984,
      "d": 110.57693229164579,
      "v": 86
    },
    {
      "midi": 66,
      "hit": false,
      "t": 185995.20780728981,
      "d": 93.75000781248673,
      "v": 77
    },
    {
      "midi": 62,
      "hit": false,
      "t": 185995.20780728981,
      "d": 105.76923958331463,
      "v": 87
    },
    {
      "midi": 57,
      "hit": false,
      "t": 185995.20780728981,
      "d": 110.57693229164579,
      "v": 86
    },
    {
      "midi": 62,
      "hit": false,
      "t": 186918.2848072898,
      "d": 91.34616145832115,
      "v": 80
    },
    {
      "midi": 66,
      "hit": false,
      "t": 186918.2848072898,
      "d": 93.75000781248673,
      "v": 80
    },
    {
      "midi": 57,
      "hit": false,
      "t": 186918.2848072898,
      "d": 105.76923958331463,
      "v": 88
    },
    {
      "midi": 62,
      "hit": false,
      "t": 187615.4002499981,
      "d": 103.36539322917815,
      "v": 86
    },
    {
      "midi": 57,
      "hit": false,
      "t": 187615.4002499981,
      "d": 105.76923958334373,
      "v": 88
    },
    {
      "midi": 66,
      "hit": false,
      "t": 187615.4002499981,
      "d": 134.6153958333307,
      "v": 88
    },
    {
      "midi": 67,
      "hit": false,
      "t": 188302.9003072898,
      "d": 91.34616145832115,
      "v": 80
    },
    {
      "midi": 62,
      "hit": false,
      "t": 188302.9003072898,
      "d": 93.75000781248673,
      "v": 87
    },
    {
      "midi": 59,
      "hit": false,
      "t": 188302.9003072898,
      "d": 98.55770052081789,
      "v": 86
    },
    {
      "midi": 67,
      "hit": false,
      "t": 188997.61190364393,
      "d": 74.51923697916209,
      "v": 86
    },
    {
      "midi": 62,
      "hit": false,
      "t": 188997.61190364393,
      "d": 98.55770052081789,
      "v": 87
    },
    {
      "midi": 59,
      "hit": false,
      "t": 188997.61190364393,
      "d": 125.00001041663927,
      "v": 87
    },
    {
      "midi": 62,
      "hit": false,
      "t": 189692.32349999808,
      "d": 100.96154687501257,
      "v": 87
    },
    {
      "midi": 59,
      "hit": false,
      "t": 189692.32349999808,
      "d": 103.36539322917815,
      "v": 86
    },
    {
      "midi": 67,
      "hit": false,
      "t": 189692.32349999808,
      "d": 105.76923958334373,
      "v": 86
    },
    {
      "midi": 67,
      "hit": false,
      "t": 190612.99665364393,
      "d": 67.30769791666535,
      "v": 77
    },
    {
      "midi": 62,
      "hit": false,
      "t": 190612.99665364393,
      "d": 86.53846874998999,
      "v": 77
    },
    {
      "midi": 59,
      "hit": false,
      "t": 190612.99665364393,
      "d": 108.17308593748021,
      "v": 87
    },
    {
      "midi": 62,
      "hit": false,
      "t": 191310.11209635224,
      "d": 88.94231510415557,
      "v": 87
    },
    {
      "midi": 67,
      "hit": false,
      "t": 191310.11209635224,
      "d": 110.57693229164579,
      "v": 82
    },
    {
      "midi": 59,
      "hit": false,
      "t": 191310.11209635224,
      "d": 134.6153958333016,
      "v": 88
    },
    {
      "midi": 61,
      "hit": false,
      "t": 192000.01599999805,
      "d": 81.73077604165883,
      "v": 86
    },
    {
      "midi": 64,
      "hit": false,
      "t": 192000.01599999805,
      "d": 100.96154687498347,
      "v": 82
    },
    {
      "midi": 69,
      "hit": false,
      "t": 192000.01599999805,
      "d": 120.19231770830811,
      "v": 82
    },
    {
      "midi": 69,
      "hit": false,
      "t": 192687.5160572897,
      "d": 74.51923697916209,
      "v": 87
    },
    {
      "midi": 64,
      "hit": false,
      "t": 192687.5160572897,
      "d": 91.34616145832115,
      "v": 77
    },
    {
      "midi": 61,
      "hit": false,
      "t": 192687.5160572897,
      "d": 105.76923958331463,
      "v": 83
    },
    {
      "midi": 61,
      "hit": false,
      "t": 193379.82380728968,
      "d": 96.15385416665231,
      "v": 87
    },
    {
      "midi": 64,
      "hit": false,
      "t": 193379.82380728968,
      "d": 105.76923958331463,
      "v": 87
    },
    {
      "midi": 69,
      "hit": false,
      "t": 193379.82380728968,
      "d": 110.57693229164579,
      "v": 81
    },
    {
      "midi": 61,
      "hit": false,
      "t": 194302.90080728967,
      "d": 81.73077604165883,
      "v": 88
    },
    {
      "midi": 69,
      "hit": false,
      "t": 194302.90080728967,
      "d": 86.53846874998999,
      "v": 77
    },
    {
      "midi": 64,
      "hit": false,
      "t": 194302.90080728967,
      "d": 91.34616145832115,
      "v": 80
    },
    {
      "midi": 61,
      "hit": false,
      "t": 195000.01624999798,
      "d": 96.15385416665231,
      "v": 77
    },
    {
      "midi": 64,
      "hit": false,
      "t": 195000.01624999798,
      "d": 98.55770052081789,
      "v": 87
    },
    {
      "midi": 69,
      "hit": false,
      "t": 195000.01624999798,
      "d": 112.98077864581137,
      "v": 82
    },
    {
      "midi": 62,
      "hit": false,
      "t": 195687.51630728962,
      "d": 110.5769322916749,
      "v": 86
    },
    {
      "midi": 57,
      "hit": false,
      "t": 195687.51630728962,
      "d": 125.00001041666837,
      "v": 80
    },
    {
      "midi": 66,
      "hit": false,
      "t": 195687.51630728962,
      "d": 127.40385677083395,
      "v": 82
    },
    {
      "midi": 62,
      "hit": false,
      "t": 196382.2279036438,
      "d": 110.5769322916749,
      "v": 77
    },
    {
      "midi": 66,
      "hit": false,
      "t": 196382.2279036438,
      "d": 129.80770312499953,
      "v": 82
    },
    {
      "midi": 57,
      "hit": false,
      "t": 196382.2279036438,
      "d": 144.23078124999302,
      "v": 88
    },
    {
      "midi": 62,
      "hit": false,
      "t": 197076.93949999794,
      "d": 127.40385677083395,
      "v": 83
    },
    {
      "midi": 66,
      "hit": false,
      "t": 197076.93949999794,
      "d": 134.6153958333307,
      "v": 81
    },
    {
      "midi": 57,
      "hit": false,
      "t": 197076.93949999794,
      "d": 144.23078124999302,
      "v": 77
    },
    {
      "midi": 62,
      "hit": false,
      "t": 197997.61265364377,
      "d": 112.98077864584047,
      "v": 87
    },
    {
      "midi": 66,
      "hit": false,
      "t": 197997.61265364377,
      "d": 127.40385677083395,
      "v": 87
    },
    {
      "midi": 57,
      "hit": false,
      "t": 197997.61265364377,
      "d": 141.82693489582743,
      "v": 87
    },
    {
      "midi": 57,
      "hit": false,
      "t": 198694.72809635208,
      "d": 117.78847135417163,
      "v": 87
    },
    {
      "midi": 62,
      "hit": false,
      "t": 198694.72809635208,
      "d": 137.01924218749627,
      "v": 80
    },
    {
      "midi": 66,
      "hit": false,
      "t": 198694.72809635208,
      "d": 153.84616666665534,
      "v": 77
    },
    {
      "midi": 62,
      "hit": false,
      "t": 199384.6319999979,
      "d": 105.76923958334373,
      "v": 77
    },
    {
      "midi": 59,
      "hit": false,
      "t": 199384.6319999979,
      "d": 117.78847135417163,
      "v": 87
    },
    {
      "midi": 67,
      "hit": false,
      "t": 199384.6319999979,
      "d": 127.40385677083395,
      "v": 83
    },
    {
      "midi": 62,
      "hit": false,
      "t": 200072.13205728956,
      "d": 105.76923958334373,
      "v": 87
    },
    {
      "midi": 67,
      "hit": false,
      "t": 200072.13205728956,
      "d": 115.38462500000605,
      "v": 88
    },
    {
      "midi": 59,
      "hit": false,
      "t": 200072.13205728956,
      "d": 129.80770312499953,
      "v": 86
    },
    {
      "midi": 62,
      "hit": false,
      "t": 200764.43980728957,
      "d": 110.5769322916749,
      "v": 87
    },
    {
      "midi": 59,
      "hit": false,
      "t": 200764.43980728957,
      "d": 122.5961640625028,
      "v": 85
    },
    {
      "midi": 67,
      "hit": false,
      "t": 200764.43980728957,
      "d": 127.40385677083395,
      "v": 77
    },
    {
      "midi": 62,
      "hit": false,
      "t": 201687.51680728956,
      "d": 96.15385416665231,
      "v": 87
    },
    {
      "midi": 67,
      "hit": false,
      "t": 201687.51680728956,
      "d": 100.96154687498347,
      "v": 88
    },
    {
      "midi": 59,
      "hit": false,
      "t": 201687.51680728956,
      "d": 112.98077864581137,
      "v": 87
    },
    {
      "midi": 59,
      "hit": false,
      "t": 202384.63224999787,
      "d": 120.19231770833721,
      "v": 86
    },
    {
      "midi": 62,
      "hit": false,
      "t": 202384.63224999787,
      "d": 127.40385677083395,
      "v": 77
    },
    {
      "midi": 67,
      "hit": false,
      "t": 202384.63224999787,
      "d": 146.6346276041586,
      "v": 82
    },
    {
      "midi": 62,
      "hit": false,
      "t": 203072.13230728952,
      "d": 93.75000781248673,
      "v": 77
    },
    {
      "midi": 66,
      "hit": false,
      "t": 203072.13230728952,
      "d": 96.15385416665231,
      "v": 87
    },
    {
      "midi": 59,
      "hit": false,
      "t": 203072.13230728952,
      "d": 103.36539322914905,
      "v": 77
    },
    {
      "midi": 62,
      "hit": false,
      "t": 203766.84390364366,
      "d": 88.94231510415557,
      "v": 86
    },
    {
      "midi": 59,
      "hit": false,
      "t": 203766.84390364366,
      "d": 96.15385416665231,
      "v": 85
    },
    {
      "midi": 66,
      "hit": false,
      "t": 203766.84390364366,
      "d": 100.96154687498347,
      "v": 87
    },
    {
      "midi": 62,
      "hit": false,
      "t": 204461.5554999978,
      "d": 93.75000781248673,
      "v": 77
    },
    {
      "midi": 59,
      "hit": false,
      "t": 204461.5554999978,
      "d": 96.15385416665231,
      "v": 87
    },
    {
      "midi": 66,
      "hit": false,
      "t": 204461.5554999978,
      "d": 110.57693229164579,
      "v": 87
    },
    {
      "midi": 62,
      "hit": false,
      "t": 205382.2286536436,
      "d": 93.75000781248673,
      "v": 87
    },
    {
      "midi": 66,
      "hit": false,
      "t": 205382.2286536436,
      "d": 93.75000781248673,
      "v": 87
    },
    {
      "midi": 59,
      "hit": false,
      "t": 205382.2286536436,
      "d": 103.36539322914905,
      "v": 87
    },
    {
      "midi": 62,
      "hit": false,
      "t": 206079.3440963519,
      "d": 93.75000781248673,
      "v": 86
    },
    {
      "midi": 59,
      "hit": false,
      "t": 206079.3440963519,
      "d": 100.96154687498347,
      "v": 85
    },
    {
      "midi": 66,
      "hit": false,
      "t": 206079.3440963519,
      "d": 132.211549479136,
      "v": 87
    },
    {
      "midi": 62,
      "hit": false,
      "t": 206769.24799999772,
      "d": 100.96154687501257,
      "v": 83
    },
    {
      "midi": 66,
      "hit": false,
      "t": 206769.24799999772,
      "d": 103.36539322917815,
      "v": 81
    },
    {
      "midi": 57,
      "hit": false,
      "t": 206769.24799999772,
      "d": 112.98077864584047,
      "v": 80
    },
    {
      "midi": 62,
      "hit": false,
      "t": 207456.7480572894,
      "d": 96.15385416665231,
      "v": 88
    },
    {
      "midi": 66,
      "hit": false,
      "t": 207456.7480572894,
      "d": 105.76923958331463,
      "v": 87
    },
    {
      "midi": 57,
      "hit": false,
      "t": 207456.7480572894,
      "d": 108.17308593748021,
      "v": 86
    },
    {
      "midi": 62,
      "hit": false,
      "t": 208149.05580728938,
      "d": 98.55770052084699,
      "v": 87
    },
    {
      "midi": 66,
      "hit": false,
      "t": 208149.05580728938,
      "d": 112.98077864584047,
      "v": 80
    },
    {
      "midi": 57,
      "hit": false,
      "t": 208149.05580728938,
      "d": 120.19231770833721,
      "v": 87
    },
    {
      "midi": 62,
      "hit": false,
      "t": 209072.13280728937,
      "d": 98.55770052084699,
      "v": 88
    },
    {
      "midi": 66,
      "hit": false,
      "t": 209072.13280728937,
      "d": 112.98077864584047,
      "v": 80
    },
    {
      "midi": 57,
      "hit": false,
      "t": 209072.13280728937,
      "d": 115.38462500000605,
      "v": 88
    },
    {
      "midi": 57,
      "hit": false,
      "t": 209769.2482499977,
      "d": 96.15385416665231,
      "v": 86
    },
    {
      "midi": 62,
      "hit": false,
      "t": 209769.2482499977,
      "d": 96.15385416665231,
      "v": 86
    },
    {
      "midi": 66,
      "hit": false,
      "t": 209769.2482499977,
      "d": 122.59616406247369,
      "v": 77
    },
    {
      "midi": 62,
      "hit": false,
      "t": 210456.74830728935,
      "d": 96.15385416665231,
      "v": 80
    },
    {
      "midi": 66,
      "hit": false,
      "t": 210456.74830728935,
      "d": 98.55770052081789,
      "v": 87
    },
    {
      "midi": 59,
      "hit": false,
      "t": 210456.74830728935,
      "d": 105.76923958331463,
      "v": 87
    },
    {
      "midi": 62,
      "hit": false,
      "t": 211151.4599036435,
      "d": 88.94231510415557,
      "v": 87
    },
    {
      "midi": 59,
      "hit": false,
      "t": 211151.4599036435,
      "d": 91.34616145832115,
      "v": 86
    },
    {
      "midi": 66,
      "hit": false,
      "t": 211151.4599036435,
      "d": 103.36539322914905,
      "v": 77
    },
    {
      "midi": 66,
      "hit": false,
      "t": 211846.17149999764,
      "d": 96.15385416665231,
      "v": 87
    },
    {
      "midi": 62,
      "hit": false,
      "t": 211846.17149999764,
      "d": 100.96154687498347,
      "v": 87
    },
    {
      "midi": 59,
      "hit": false,
      "t": 211846.17149999764,
      "d": 105.76923958331463,
      "v": 86
    },
    {
      "midi": 66,
      "hit": false,
      "t": 212766.84465364346,
      "d": 79.32692968749325,
      "v": 88
    },
    {
      "midi": 62,
      "hit": false,
      "t": 212766.84465364346,
      "d": 84.13462239582441,
      "v": 81
    },
    {
      "midi": 59,
      "hit": false,
      "t": 212766.84465364346,
      "d": 88.94231510415557,
      "v": 87
    },
    {
      "midi": 59,
      "hit": false,
      "t": 213463.96009635177,
      "d": 96.15385416665231,
      "v": 87
    },
    {
      "midi": 62,
      "hit": false,
      "t": 213463.96009635177,
      "d": 96.15385416665231,
      "v": 88
    },
    {
      "midi": 66,
      "hit": false,
      "t": 213463.96009635177,
      "d": 117.78847135414253,
      "v": 87
    },
    {
      "midi": 62,
      "hit": false,
      "t": 214153.8639999976,
      "d": 98.55770052084699,
      "v": 86
    },
    {
      "midi": 57,
      "hit": false,
      "t": 214153.8639999976,
      "d": 110.5769322916749,
      "v": 82
    },
    {
      "midi": 66,
      "hit": false,
      "t": 214153.8639999976,
      "d": 112.98077864584047,
      "v": 81
    },
    {
      "midi": 66,
      "hit": false,
      "t": 214841.36405728926,
      "d": 81.73077604165883,
      "v": 86
    },
    {
      "midi": 62,
      "hit": false,
      "t": 214841.36405728926,
      "d": 98.55770052081789,
      "v": 87
    },
    {
      "midi": 57,
      "hit": false,
      "t": 214841.36405728926,
      "d": 110.57693229164579,
      "v": 86
    },
    {
      "midi": 66,
      "hit": false,
      "t": 215533.67180728924,
      "d": 93.75000781248673,
      "v": 77
    },
    {
      "midi": 62,
      "hit": false,
      "t": 215533.67180728924,
      "d": 105.76923958331463,
      "v": 87
    },
    {
      "midi": 57,
      "hit": false,
      "t": 215533.67180728924,
      "d": 110.57693229164579,
      "v": 86
    },
    {
      "midi": 62,
      "hit": false,
      "t": 216456.74880728923,
      "d": 91.34616145832115,
      "v": 80
    },
    {
      "midi": 66,
      "hit": false,
      "t": 216456.74880728923,
      "d": 93.75000781248673,
      "v": 80
    },
    {
      "midi": 57,
      "hit": false,
      "t": 216456.74880728923,
      "d": 105.76923958331463,
      "v": 88
    },
    {
      "midi": 62,
      "hit": false,
      "t": 217153.86424999754,
      "d": 103.36539322917815,
      "v": 86
    },
    {
      "midi": 57,
      "hit": false,
      "t": 217153.86424999754,
      "d": 105.76923958334373,
      "v": 88
    },
    {
      "midi": 66,
      "hit": false,
      "t": 217153.86424999754,
      "d": 134.6153958333307,
      "v": 88
    },
    {
      "midi": 67,
      "hit": false,
      "t": 217841.36430728922,
      "d": 91.34616145832115,
      "v": 80
    },
    {
      "midi": 62,
      "hit": false,
      "t": 217841.36430728922,
      "d": 93.75000781248673,
      "v": 87
    },
    {
      "midi": 59,
      "hit": false,
      "t": 217841.36430728922,
      "d": 98.55770052081789,
      "v": 86
    },
    {
      "midi": 67,
      "hit": false,
      "t": 218536.07590364336,
      "d": 74.51923697916209,
      "v": 86
    },
    {
      "midi": 62,
      "hit": false,
      "t": 218536.07590364336,
      "d": 98.55770052081789,
      "v": 87
    },
    {
      "midi": 59,
      "hit": false,
      "t": 218536.07590364336,
      "d": 125.00001041663927,
      "v": 87
    },
    {
      "midi": 62,
      "hit": false,
      "t": 219230.7874999975,
      "d": 100.96154687501257,
      "v": 87
    },
    {
      "midi": 59,
      "hit": false,
      "t": 219230.7874999975,
      "d": 103.36539322917815,
      "v": 86
    },
    {
      "midi": 67,
      "hit": false,
      "t": 219230.7874999975,
      "d": 105.76923958334373,
      "v": 86
    },
    {
      "midi": 67,
      "hit": false,
      "t": 220151.46065364336,
      "d": 67.30769791666535,
      "v": 77
    },
    {
      "midi": 62,
      "hit": false,
      "t": 220151.46065364336,
      "d": 86.53846874998999,
      "v": 77
    },
    {
      "midi": 59,
      "hit": false,
      "t": 220151.46065364336,
      "d": 108.17308593748021,
      "v": 87
    },
    {
      "midi": 62,
      "hit": false,
      "t": 220848.57609635167,
      "d": 88.94231510415557,
      "v": 87
    },
    {
      "midi": 67,
      "hit": false,
      "t": 220848.57609635167,
      "d": 110.57693229164579,
      "v": 82
    },
    {
      "midi": 59,
      "hit": false,
      "t": 220848.57609635167,
      "d": 134.6153958333016,
      "v": 88
    },
    {
      "midi": 61,
      "hit": false,
      "t": 221538.47999999748,
      "d": 81.73077604165883,
      "v": 86
    },
    {
      "midi": 64,
      "hit": false,
      "t": 221538.47999999748,
      "d": 100.96154687498347,
      "v": 82
    },
    {
      "midi": 69,
      "hit": false,
      "t": 221538.47999999748,
      "d": 120.19231770830811,
      "v": 82
    },
    {
      "midi": 69,
      "hit": false,
      "t": 222225.98005728913,
      "d": 74.51923697916209,
      "v": 87
    },
    {
      "midi": 64,
      "hit": false,
      "t": 222225.98005728913,
      "d": 91.34616145832115,
      "v": 77
    },
    {
      "midi": 61,
      "hit": false,
      "t": 222225.98005728913,
      "d": 105.76923958331463,
      "v": 83
    },
    {
      "midi": 61,
      "hit": false,
      "t": 222918.2878072891,
      "d": 96.15385416665231,
      "v": 87
    },
    {
      "midi": 64,
      "hit": false,
      "t": 222918.2878072891,
      "d": 105.76923958331463,
      "v": 87
    },
    {
      "midi": 69,
      "hit": false,
      "t": 222918.2878072891,
      "d": 110.57693229164579,
      "v": 81
    },
    {
      "midi": 61,
      "hit": false,
      "t": 223841.3648072891,
      "d": 81.73077604165883,
      "v": 88
    },
    {
      "midi": 69,
      "hit": false,
      "t": 223841.3648072891,
      "d": 86.53846874998999,
      "v": 77
    },
    {
      "midi": 64,
      "hit": false,
      "t": 223841.3648072891,
      "d": 91.34616145832115,
      "v": 80
    },
    {
      "midi": 61,
      "hit": false,
      "t": 224538.4802499974,
      "d": 96.15385416665231,
      "v": 77
    },
    {
      "midi": 64,
      "hit": false,
      "t": 224538.4802499974,
      "d": 98.55770052081789,
      "v": 87
    },
    {
      "midi": 69,
      "hit": false,
      "t": 224538.4802499974,
      "d": 112.98077864581137,
      "v": 82
    },
    {
      "midi": 57,
      "hit": false,
      "t": 225225.98030728905,
      "d": 86.53846874998999,
      "v": 80
    },
    {
      "midi": 62,
      "hit": false,
      "t": 225225.98030728905,
      "d": 86.53846874998999,
      "v": 86
    },
    {
      "midi": 66,
      "hit": false,
      "t": 225225.98030728905,
      "d": 86.53846874998999,
      "v": 82
    },
    {
      "midi": 57,
      "hit": false,
      "t": 225692.32649999738,
      "d": 86.53846874998999,
      "v": 85
    },
    {
      "midi": 62,
      "hit": false,
      "t": 225692.32649999738,
      "d": 86.53846874998999,
      "v": 85
    },
    {
      "midi": 66,
      "hit": false,
      "t": 225692.32649999738,
      "d": 86.53846874998999,
      "v": 85
    },
    {
      "midi": 57,
      "hit": false,
      "t": 225920.6919036432,
      "d": 86.53846874998999,
      "v": 88
    },
    {
      "midi": 62,
      "hit": false,
      "t": 225920.6919036432,
      "d": 86.53846874998999,
      "v": 77
    },
    {
      "midi": 66,
      "hit": false,
      "t": 225920.6919036432,
      "d": 86.53846874998999,
      "v": 82
    },
    {
      "midi": 57,
      "hit": false,
      "t": 226153.86499999734,
      "d": 86.53846874998999,
      "v": 83
    },
    {
      "midi": 62,
      "hit": false,
      "t": 226153.86499999734,
      "d": 86.53846874998999,
      "v": 83
    },
    {
      "midi": 66,
      "hit": false,
      "t": 226153.86499999734,
      "d": 86.53846874998999,
      "v": 83
    },
    {
      "midi": 57,
      "hit": false,
      "t": 226615.40349999734,
      "d": 86.53846874998999,
      "v": 77
    },
    {
      "midi": 62,
      "hit": false,
      "t": 226615.40349999734,
      "d": 86.53846874998999,
      "v": 83
    },
    {
      "midi": 66,
      "hit": false,
      "t": 226615.40349999734,
      "d": 86.53846874998999,
      "v": 81
    },
    {
      "midi": 57,
      "hit": false,
      "t": 227536.07665364316,
      "d": 86.53846874998999,
      "v": 87
    },
    {
      "midi": 62,
      "hit": false,
      "t": 227536.07665364316,
      "d": 86.53846874998999,
      "v": 87
    },
    {
      "midi": 66,
      "hit": false,
      "t": 227536.07665364316,
      "d": 86.53846874998999,
      "v": 87
    },
    {
      "midi": 57,
      "hit": false,
      "t": 228000.01899999732,
      "d": 86.53846874998999,
      "v": 83
    },
    {
      "midi": 62,
      "hit": false,
      "t": 228000.01899999732,
      "d": 86.53846874998999,
      "v": 83
    },
    {
      "midi": 66,
      "hit": false,
      "t": 228000.01899999732,
      "d": 86.53846874998999,
      "v": 83
    },
    {
      "midi": 57,
      "hit": false,
      "t": 228233.19209635147,
      "d": 86.53846874998999,
      "v": 87
    },
    {
      "midi": 62,
      "hit": false,
      "t": 228233.19209635147,
      "d": 86.53846874998999,
      "v": 80
    },
    {
      "midi": 66,
      "hit": false,
      "t": 228233.19209635147,
      "d": 86.53846874998999,
      "v": 77
    },
    {
      "midi": 57,
      "hit": false,
      "t": 228459.15365364312,
      "d": 86.53846874998999,
      "v": 80
    },
    {
      "midi": 62,
      "hit": false,
      "t": 228459.15365364312,
      "d": 86.53846874998999,
      "v": 80
    },
    {
      "midi": 66,
      "hit": false,
      "t": 228459.15365364312,
      "d": 86.53846874998999,
      "v": 80
    },
    {
      "midi": 57,
      "hit": false,
      "t": 228923.09599999728,
      "d": 86.53846874998999,
      "v": 87
    },
    {
      "midi": 61,
      "hit": false,
      "t": 228923.09599999728,
      "d": 86.53846874998999,
      "v": 77
    },
    {
      "midi": 66,
      "hit": false,
      "t": 228923.09599999728,
      "d": 86.53846874998999,
      "v": 83
    },
    {
      "midi": 57,
      "hit": false,
      "t": 229377.42296093478,
      "d": 86.53846874998999,
      "v": 85
    },
    {
      "midi": 61,
      "hit": false,
      "t": 229377.42296093478,
      "d": 86.53846874998999,
      "v": 85
    },
    {
      "midi": 66,
      "hit": false,
      "t": 229377.42296093478,
      "d": 86.53846874998999,
      "v": 85
    },
    {
      "midi": 57,
      "hit": false,
      "t": 229610.59605728893,
      "d": 86.53846874998999,
      "v": 86
    },
    {
      "midi": 61,
      "hit": false,
      "t": 229610.59605728893,
      "d": 86.53846874998999,
      "v": 87
    },
    {
      "midi": 67,
      "hit": false,
      "t": 229610.59605728893,
      "d": 86.53846874998999,
      "v": 88
    },
    {
      "midi": 57,
      "hit": false,
      "t": 229843.76915364308,
      "d": 86.53846874998999,
      "v": 83
    },
    {
      "midi": 61,
      "hit": false,
      "t": 229843.76915364308,
      "d": 86.53846874998999,
      "v": 83
    },
    {
      "midi": 67,
      "hit": false,
      "t": 229843.76915364308,
      "d": 86.53846874998999,
      "v": 83
    },
    {
      "midi": 57,
      "hit": false,
      "t": 230302.9038072889,
      "d": 86.53846874998999,
      "v": 85
    },
    {
      "midi": 61,
      "hit": false,
      "t": 230302.9038072889,
      "d": 86.53846874998999,
      "v": 87
    },
    {
      "midi": 67,
      "hit": false,
      "t": 230302.9038072889,
      "d": 86.53846874998999,
      "v": 77
    },
    {
      "midi": 57,
      "hit": false,
      "t": 231225.9808072889,
      "d": 86.53846874998999,
      "v": 87
    },
    {
      "midi": 61,
      "hit": false,
      "t": 231225.9808072889,
      "d": 86.53846874998999,
      "v": 87
    },
    {
      "midi": 67,
      "hit": false,
      "t": 231225.9808072889,
      "d": 86.53846874998999,
      "v": 88
    },
    {
      "midi": 57,
      "hit": false,
      "t": 231692.32699999723,
      "d": 86.53846874998999,
      "v": 84
    },
    {
      "midi": 61,
      "hit": false,
      "t": 231692.32699999723,
      "d": 86.53846874998999,
      "v": 84
    },
    {
      "midi": 67,
      "hit": false,
      "t": 231692.32699999723,
      "d": 86.53846874998999,
      "v": 84
    },
    {
      "midi": 57,
      "hit": false,
      "t": 231923.0962499972,
      "d": 86.53846874998999,
      "v": 87
    },
    {
      "midi": 61,
      "hit": false,
      "t": 231923.0962499972,
      "d": 86.53846874998999,
      "v": 87
    },
    {
      "midi": 67,
      "hit": false,
      "t": 231923.0962499972,
      "d": 86.53846874998999,
      "v": 87
    },
    {
      "midi": 57,
      "hit": false,
      "t": 232153.8654999972,
      "d": 86.53846874998999,
      "v": 87
    },
    {
      "midi": 61,
      "hit": false,
      "t": 232153.8654999972,
      "d": 86.53846874998999,
      "v": 87
    },
    {
      "midi": 67,
      "hit": false,
      "t": 232153.8654999972,
      "d": 86.53846874998999,
      "v": 87
    },
    {
      "midi": 59,
      "hit": false,
      "t": 232610.59630728886,
      "d": 86.53846874998999,
      "v": 77
    },
    {
      "midi": 62,
      "hit": false,
      "t": 232610.59630728886,
      "d": 86.53846874998999,
      "v": 77
    },
    {
      "midi": 66,
      "hit": false,
      "t": 232610.59630728886,
      "d": 86.53846874998999,
      "v": 87
    },
    {
      "midi": 59,
      "hit": false,
      "t": 233076.94249999718,
      "d": 86.53846874998999,
      "v": 85
    },
    {
      "midi": 62,
      "hit": false,
      "t": 233076.94249999718,
      "d": 86.53846874998999,
      "v": 85
    },
    {
      "midi": 66,
      "hit": false,
      "t": 233076.94249999718,
      "d": 86.53846874998999,
      "v": 85
    },
    {
      "midi": 59,
      "hit": false,
      "t": 233305.307903643,
      "d": 86.53846874998999,
      "v": 77
    },
    {
      "midi": 62,
      "hit": false,
      "t": 233305.307903643,
      "d": 86.53846874998999,
      "v": 77
    },
    {
      "midi": 66,
      "hit": false,
      "t": 233305.307903643,
      "d": 86.53846874998999,
      "v": 77
    },
    {
      "midi": 59,
      "hit": false,
      "t": 233538.48099999715,
      "d": 86.53846874998999,
      "v": 83
    },
    {
      "midi": 62,
      "hit": false,
      "t": 233538.48099999715,
      "d": 86.53846874998999,
      "v": 83
    },
    {
      "midi": 66,
      "hit": false,
      "t": 233538.48099999715,
      "d": 86.53846874998999,
      "v": 83
    },
    {
      "midi": 59,
      "hit": false,
      "t": 234000.01949999714,
      "d": 86.53846874998999,
      "v": 87
    },
    {
      "midi": 62,
      "hit": false,
      "t": 234000.01949999714,
      "d": 86.53846874998999,
      "v": 77
    },
    {
      "midi": 66,
      "hit": false,
      "t": 234000.01949999714,
      "d": 86.53846874998999,
      "v": 87
    },
    {
      "midi": 59,
      "hit": false,
      "t": 234920.69265364297,
      "d": 86.53846874998999,
      "v": 87
    },
    {
      "midi": 62,
      "hit": false,
      "t": 234920.69265364297,
      "d": 86.53846874998999,
      "v": 87
    },
    {
      "midi": 66,
      "hit": false,
      "t": 234920.69265364297,
      "d": 86.53846874998999,
      "v": 87
    },
    {
      "midi": 59,
      "hit": false,
      "t": 235384.63499999713,
      "d": 86.53846874998999,
      "v": 82
    },
    {
      "midi": 62,
      "hit": false,
      "t": 235384.63499999713,
      "d": 86.53846874998999,
      "v": 82
    },
    {
      "midi": 66,
      "hit": false,
      "t": 235384.63499999713,
      "d": 86.53846874998999,
      "v": 82
    },
    {
      "midi": 59,
      "hit": false,
      "t": 235617.80809635128,
      "d": 86.53846874998999,
      "v": 87
    },
    {
      "midi": 62,
      "hit": false,
      "t": 235617.80809635128,
      "d": 86.53846874998999,
      "v": 86
    },
    {
      "midi": 66,
      "hit": false,
      "t": 235617.80809635128,
      "d": 86.53846874998999,
      "v": 87
    },
    {
      "midi": 59,
      "hit": false,
      "t": 235843.76965364293,
      "d": 86.53846874998999,
      "v": 79
    },
    {
      "midi": 62,
      "hit": false,
      "t": 235843.76965364293,
      "d": 86.53846874998999,
      "v": 79
    },
    {
      "midi": 66,
      "hit": false,
      "t": 235843.76965364293,
      "d": 86.53846874998999,
      "v": 79
    },
    {
      "midi": 57,
      "hit": false,
      "t": 236307.7119999971,
      "d": 86.53846874998999,
      "v": 80
    },
    {
      "midi": 62,
      "hit": false,
      "t": 236307.7119999971,
      "d": 86.53846874998999,
      "v": 83
    },
    {
      "midi": 66,
      "hit": false,
      "t": 236307.7119999971,
      "d": 86.53846874998999,
      "v": 81
    },
    {
      "midi": 57,
      "hit": false,
      "t": 236762.0389609346,
      "d": 86.53846874998999,
      "v": 85
    },
    {
      "midi": 62,
      "hit": false,
      "t": 236762.0389609346,
      "d": 86.53846874998999,
      "v": 85
    },
    {
      "midi": 66,
      "hit": false,
      "t": 236762.0389609346,
      "d": 86.53846874998999,
      "v": 85
    },
    {
      "midi": 57,
      "hit": false,
      "t": 236995.21205728874,
      "d": 86.53846874998999,
      "v": 86
    },
    {
      "midi": 62,
      "hit": false,
      "t": 236995.21205728874,
      "d": 86.53846874998999,
      "v": 88
    },
    {
      "midi": 66,
      "hit": false,
      "t": 236995.21205728874,
      "d": 86.53846874998999,
      "v": 87
    },
    {
      "midi": 57,
      "hit": false,
      "t": 237228.38515364288,
      "d": 86.53846874998999,
      "v": 84
    },
    {
      "midi": 62,
      "hit": false,
      "t": 237228.38515364288,
      "d": 86.53846874998999,
      "v": 84
    },
    {
      "midi": 66,
      "hit": false,
      "t": 237228.38515364288,
      "d": 86.53846874998999,
      "v": 84
    },
    {
      "midi": 57,
      "hit": false,
      "t": 237687.5198072887,
      "d": 86.53846874998999,
      "v": 87
    },
    {
      "midi": 62,
      "hit": false,
      "t": 237687.5198072887,
      "d": 86.53846874998999,
      "v": 87
    },
    {
      "midi": 66,
      "hit": false,
      "t": 237687.5198072887,
      "d": 86.53846874998999,
      "v": 80
    },
    {
      "midi": 57,
      "hit": false,
      "t": 238610.5968072887,
      "d": 86.53846874998999,
      "v": 88
    },
    {
      "midi": 62,
      "hit": false,
      "t": 238610.5968072887,
      "d": 86.53846874998999,
      "v": 88
    },
    {
      "midi": 66,
      "hit": false,
      "t": 238610.5968072887,
      "d": 86.53846874998999,
      "v": 80
    },
    {
      "midi": 57,
      "hit": false,
      "t": 239076.94299999703,
      "d": 86.53846874998999,
      "v": 83
    },
    {
      "midi": 62,
      "hit": false,
      "t": 239076.94299999703,
      "d": 86.53846874998999,
      "v": 83
    },
    {
      "midi": 66,
      "hit": false,
      "t": 239076.94299999703,
      "d": 86.53846874998999,
      "v": 83
    },
    {
      "midi": 57,
      "hit": false,
      "t": 239307.712249997,
      "d": 86.53846874998999,
      "v": 86
    },
    {
      "midi": 62,
      "hit": false,
      "t": 239307.712249997,
      "d": 86.53846874998999,
      "v": 86
    },
    {
      "midi": 66,
      "hit": false,
      "t": 239307.712249997,
      "d": 86.53846874998999,
      "v": 77
    },
    {
      "midi": 57,
      "hit": false,
      "t": 239538.481499997,
      "d": 86.53846874998999,
      "v": 87
    },
    {
      "midi": 62,
      "hit": false,
      "t": 239538.481499997,
      "d": 86.53846874998999,
      "v": 86
    },
    {
      "midi": 66,
      "hit": false,
      "t": 239538.481499997,
      "d": 86.53846874998999,
      "v": 87
    },
    {
      "midi": 59,
      "hit": false,
      "t": 239995.21230728866,
      "d": 86.53846874998999,
      "v": 87
    },
    {
      "midi": 62,
      "hit": false,
      "t": 239995.21230728866,
      "d": 86.53846874998999,
      "v": 80
    },
    {
      "midi": 66,
      "hit": false,
      "t": 239995.21230728866,
      "d": 86.53846874998999,
      "v": 87
    },
    {
      "midi": 59,
      "hit": false,
      "t": 240461.558499997,
      "d": 86.53846874998999,
      "v": 84
    },
    {
      "midi": 62,
      "hit": false,
      "t": 240461.558499997,
      "d": 86.53846874998999,
      "v": 84
    },
    {
      "midi": 66,
      "hit": false,
      "t": 240461.558499997,
      "d": 86.53846874998999,
      "v": 84
    },
    {
      "midi": 59,
      "hit": false,
      "t": 240689.9239036428,
      "d": 86.53846874998999,
      "v": 80
    },
    {
      "midi": 62,
      "hit": false,
      "t": 240689.9239036428,
      "d": 86.53846874998999,
      "v": 80
    },
    {
      "midi": 66,
      "hit": false,
      "t": 240689.9239036428,
      "d": 86.53846874998999,
      "v": 80
    },
    {
      "midi": 59,
      "hit": false,
      "t": 240923.09699999695,
      "d": 86.53846874998999,
      "v": 86
    },
    {
      "midi": 62,
      "hit": false,
      "t": 240923.09699999695,
      "d": 86.53846874998999,
      "v": 86
    },
    {
      "midi": 66,
      "hit": false,
      "t": 240923.09699999695,
      "d": 86.53846874998999,
      "v": 86
    },
    {
      "midi": 59,
      "hit": false,
      "t": 241384.63549999695,
      "d": 86.53846874998999,
      "v": 86
    },
    {
      "midi": 62,
      "hit": false,
      "t": 241384.63549999695,
      "d": 86.53846874998999,
      "v": 87
    },
    {
      "midi": 66,
      "hit": false,
      "t": 241384.63549999695,
      "d": 86.53846874998999,
      "v": 87
    },
    {
      "midi": 59,
      "hit": false,
      "t": 242305.30865364277,
      "d": 86.53846874998999,
      "v": 87
    },
    {
      "midi": 62,
      "hit": false,
      "t": 242305.30865364277,
      "d": 86.53846874998999,
      "v": 81
    },
    {
      "midi": 66,
      "hit": false,
      "t": 242305.30865364277,
      "d": 86.53846874998999,
      "v": 88
    },
    {
      "midi": 59,
      "hit": false,
      "t": 242769.25099999693,
      "d": 86.53846874998999,
      "v": 83
    },
    {
      "midi": 62,
      "hit": false,
      "t": 242769.25099999693,
      "d": 86.53846874998999,
      "v": 83
    },
    {
      "midi": 66,
      "hit": false,
      "t": 242769.25099999693,
      "d": 86.53846874998999,
      "v": 83
    },
    {
      "midi": 59,
      "hit": false,
      "t": 243002.42409635108,
      "d": 86.53846874998999,
      "v": 87
    },
    {
      "midi": 62,
      "hit": false,
      "t": 243002.42409635108,
      "d": 86.53846874998999,
      "v": 88
    },
    {
      "midi": 66,
      "hit": false,
      "t": 243002.42409635108,
      "d": 86.53846874998999,
      "v": 87
    },
    {
      "midi": 59,
      "hit": false,
      "t": 243228.38565364273,
      "d": 86.53846874998999,
      "v": 77
    },
    {
      "midi": 62,
      "hit": false,
      "t": 243228.38565364273,
      "d": 86.53846874998999,
      "v": 77
    },
    {
      "midi": 66,
      "hit": false,
      "t": 243228.38565364273,
      "d": 86.53846874998999,
      "v": 77
    },
    {
      "midi": 57,
      "hit": false,
      "t": 243692.3279999969,
      "d": 86.53846874998999,
      "v": 82
    },
    {
      "midi": 62,
      "hit": false,
      "t": 243692.3279999969,
      "d": 86.53846874998999,
      "v": 86
    },
    {
      "midi": 66,
      "hit": false,
      "t": 243692.3279999969,
      "d": 86.53846874998999,
      "v": 81
    },
    {
      "midi": 57,
      "hit": false,
      "t": 244146.6549609344,
      "d": 86.53846874998999,
      "v": 85
    },
    {
      "midi": 62,
      "hit": false,
      "t": 244146.6549609344,
      "d": 86.53846874998999,
      "v": 85
    },
    {
      "midi": 66,
      "hit": false,
      "t": 244146.6549609344,
      "d": 86.53846874998999,
      "v": 85
    },
    {
      "midi": 57,
      "hit": false,
      "t": 244379.82805728854,
      "d": 86.53846874998999,
      "v": 86
    },
    {
      "midi": 62,
      "hit": false,
      "t": 244379.82805728854,
      "d": 86.53846874998999,
      "v": 87
    },
    {
      "midi": 66,
      "hit": false,
      "t": 244379.82805728854,
      "d": 86.53846874998999,
      "v": 86
    },
    {
      "midi": 57,
      "hit": false,
      "t": 244613.0011536427,
      "d": 86.53846874998999,
      "v": 83
    },
    {
      "midi": 62,
      "hit": false,
      "t": 244613.0011536427,
      "d": 86.53846874998999,
      "v": 83
    },
    {
      "midi": 66,
      "hit": false,
      "t": 244613.0011536427,
      "d": 86.53846874998999,
      "v": 83
    },
    {
      "midi": 57,
      "hit": false,
      "t": 245072.13580728852,
      "d": 86.53846874998999,
      "v": 86
    },
    {
      "midi": 62,
      "hit": false,
      "t": 245072.13580728852,
      "d": 86.53846874998999,
      "v": 87
    },
    {
      "midi": 66,
      "hit": false,
      "t": 245072.13580728852,
      "d": 86.53846874998999,
      "v": 77
    },
    {
      "midi": 57,
      "hit": false,
      "t": 245995.2128072885,
      "d": 86.53846874998999,
      "v": 88
    },
    {
      "midi": 62,
      "hit": false,
      "t": 245995.2128072885,
      "d": 86.53846874998999,
      "v": 80
    },
    {
      "midi": 66,
      "hit": false,
      "t": 245995.2128072885,
      "d": 86.53846874998999,
      "v": 80
    },
    {
      "midi": 57,
      "hit": false,
      "t": 246461.55899999684,
      "d": 86.53846874998999,
      "v": 83
    },
    {
      "midi": 62,
      "hit": false,
      "t": 246461.55899999684,
      "d": 86.53846874998999,
      "v": 83
    },
    {
      "midi": 66,
      "hit": false,
      "t": 246461.55899999684,
      "d": 86.53846874998999,
      "v": 83
    },
    {
      "midi": 57,
      "hit": false,
      "t": 246692.32824999682,
      "d": 86.53846874998999,
      "v": 88
    },
    {
      "midi": 62,
      "hit": false,
      "t": 246692.32824999682,
      "d": 86.53846874998999,
      "v": 86
    },
    {
      "midi": 66,
      "hit": false,
      "t": 246692.32824999682,
      "d": 86.53846874998999,
      "v": 88
    },
    {
      "midi": 57,
      "hit": false,
      "t": 246923.0974999968,
      "d": 86.53846874998999,
      "v": 88
    },
    {
      "midi": 62,
      "hit": false,
      "t": 246923.0974999968,
      "d": 86.53846874998999,
      "v": 86
    },
    {
      "midi": 66,
      "hit": false,
      "t": 246923.0974999968,
      "d": 86.53846874998999,
      "v": 88
    },
    {
      "midi": 59,
      "hit": false,
      "t": 247379.82830728847,
      "d": 86.53846874998999,
      "v": 86
    },
    {
      "midi": 62,
      "hit": false,
      "t": 247379.82830728847,
      "d": 86.53846874998999,
      "v": 87
    },
    {
      "midi": 67,
      "hit": false,
      "t": 247379.82830728847,
      "d": 86.53846874998999,
      "v": 80
    },
    {
      "midi": 59,
      "hit": false,
      "t": 247846.1744999968,
      "d": 86.53846874998999,
      "v": 85
    },
    {
      "midi": 62,
      "hit": false,
      "t": 247846.1744999968,
      "d": 86.53846874998999,
      "v": 85
    },
    {
      "midi": 67,
      "hit": false,
      "t": 247846.1744999968,
      "d": 86.53846874998999,
      "v": 85
    },
    {
      "midi": 59,
      "hit": false,
      "t": 248074.5399036426,
      "d": 86.53846874998999,
      "v": 87
    },
    {
      "midi": 62,
      "hit": false,
      "t": 248074.5399036426,
      "d": 86.53846874998999,
      "v": 87
    },
    {
      "midi": 67,
      "hit": false,
      "t": 248074.5399036426,
      "d": 86.53846874998999,
      "v": 86
    },
    {
      "midi": 59,
      "hit": false,
      "t": 248307.71299999676,
      "d": 86.53846874998999,
      "v": 83
    },
    {
      "midi": 62,
      "hit": false,
      "t": 248307.71299999676,
      "d": 86.53846874998999,
      "v": 83
    },
    {
      "midi": 67,
      "hit": false,
      "t": 248307.71299999676,
      "d": 86.53846874998999,
      "v": 83
    },
    {
      "midi": 59,
      "hit": false,
      "t": 248769.25149999675,
      "d": 86.53846874998999,
      "v": 86
    },
    {
      "midi": 62,
      "hit": false,
      "t": 248769.25149999675,
      "d": 86.53846874998999,
      "v": 87
    },
    {
      "midi": 67,
      "hit": false,
      "t": 248769.25149999675,
      "d": 86.53846874998999,
      "v": 86
    },
    {
      "midi": 59,
      "hit": false,
      "t": 249689.92465364258,
      "d": 86.53846874998999,
      "v": 87
    },
    {
      "midi": 62,
      "hit": false,
      "t": 249689.92465364258,
      "d": 86.53846874998999,
      "v": 77
    },
    {
      "midi": 67,
      "hit": false,
      "t": 249689.92465364258,
      "d": 86.53846874998999,
      "v": 77
    },
    {
      "midi": 59,
      "hit": false,
      "t": 250153.86699999674,
      "d": 86.53846874998999,
      "v": 85
    },
    {
      "midi": 62,
      "hit": false,
      "t": 250153.86699999674,
      "d": 86.53846874998999,
      "v": 85
    },
    {
      "midi": 67,
      "hit": false,
      "t": 250153.86699999674,
      "d": 86.53846874998999,
      "v": 85
    },
    {
      "midi": 59,
      "hit": false,
      "t": 250387.0400963509,
      "d": 86.53846874998999,
      "v": 88
    },
    {
      "midi": 62,
      "hit": false,
      "t": 250387.0400963509,
      "d": 86.53846874998999,
      "v": 87
    },
    {
      "midi": 67,
      "hit": false,
      "t": 250387.0400963509,
      "d": 86.53846874998999,
      "v": 82
    },
    {
      "midi": 59,
      "hit": false,
      "t": 250613.00165364254,
      "d": 86.53846874998999,
      "v": 87
    },
    {
      "midi": 62,
      "hit": false,
      "t": 250613.00165364254,
      "d": 86.53846874998999,
      "v": 87
    },
    {
      "midi": 67,
      "hit": false,
      "t": 250613.00165364254,
      "d": 86.53846874998999,
      "v": 86
    },
    {
      "midi": 61,
      "hit": false,
      "t": 251076.9439999967,
      "d": 86.53846874998999,
      "v": 86
    },
    {
      "midi": 64,
      "hit": false,
      "t": 251076.9439999967,
      "d": 86.53846874998999,
      "v": 82
    },
    {
      "midi": 69,
      "hit": false,
      "t": 251076.9439999967,
      "d": 86.53846874998999,
      "v": 82
    },
    {
      "midi": 61,
      "hit": false,
      "t": 251531.2709609342,
      "d": 86.53846874998999,
      "v": 85
    },
    {
      "midi": 64,
      "hit": false,
      "t": 251531.2709609342,
      "d": 86.53846874998999,
      "v": 85
    },
    {
      "midi": 69,
      "hit": false,
      "t": 251531.2709609342,
      "d": 86.53846874998999,
      "v": 85
    },
    {
      "midi": 61,
      "hit": false,
      "t": 251764.44405728835,
      "d": 86.53846874998999,
      "v": 83
    },
    {
      "midi": 64,
      "hit": false,
      "t": 251764.44405728835,
      "d": 86.53846874998999,
      "v": 77
    },
    {
      "midi": 69,
      "hit": false,
      "t": 251764.44405728835,
      "d": 86.53846874998999,
      "v": 87
    },
    {
      "midi": 61,
      "hit": false,
      "t": 251997.6171536425,
      "d": 86.53846874998999,
      "v": 84
    },
    {
      "midi": 64,
      "hit": false,
      "t": 251997.6171536425,
      "d": 86.53846874998999,
      "v": 84
    },
    {
      "midi": 69,
      "hit": false,
      "t": 251997.6171536425,
      "d": 86.53846874998999,
      "v": 84
    },
    {
      "midi": 61,
      "hit": false,
      "t": 252456.75180728832,
      "d": 86.53846874998999,
      "v": 87
    },
    {
      "midi": 64,
      "hit": false,
      "t": 252456.75180728832,
      "d": 86.53846874998999,
      "v": 87
    },
    {
      "midi": 69,
      "hit": false,
      "t": 252456.75180728832,
      "d": 86.53846874998999,
      "v": 81
    },
    {
      "midi": 61,
      "hit": false,
      "t": 253379.82880728832,
      "d": 86.53846874998999,
      "v": 88
    },
    {
      "midi": 64,
      "hit": false,
      "t": 253379.82880728832,
      "d": 86.53846874998999,
      "v": 80
    },
    {
      "midi": 69,
      "hit": false,
      "t": 253379.82880728832,
      "d": 86.53846874998999,
      "v": 77
    },
    {
      "midi": 61,
      "hit": false,
      "t": 253846.17499999664,
      "d": 86.53846874998999,
      "v": 85
    },
    {
      "midi": 64,
      "hit": false,
      "t": 253846.17499999664,
      "d": 86.53846874998999,
      "v": 85
    },
    {
      "midi": 69,
      "hit": false,
      "t": 253846.17499999664,
      "d": 86.53846874998999,
      "v": 85
    },
    {
      "midi": 61,
      "hit": false,
      "t": 254076.94424999662,
      "d": 86.53846874998999,
      "v": 77
    },
    {
      "midi": 64,
      "hit": false,
      "t": 254076.94424999662,
      "d": 86.53846874998999,
      "v": 87
    },
    {
      "midi": 69,
      "hit": false,
      "t": 254076.94424999662,
      "d": 86.53846874998999,
      "v": 82
    },
    {
      "midi": 61,
      "hit": false,
      "t": 254307.7134999966,
      "d": 86.53846874998999,
      "v": 83
    },
    {
      "midi": 64,
      "hit": false,
      "t": 254307.7134999966,
      "d": 86.53846874998999,
      "v": 77
    },
    {
      "midi": 69,
      "hit": false,
      "t": 254307.7134999966,
      "d": 86.53846874998999,
      "v": 87
    },
    {
      "midi": 57,
      "hit": false,
      "t": 254764.44430728827,
      "d": 86.53846874998999,
      "v": 80
    },
    {
      "midi": 62,
      "hit": false,
      "t": 254764.44430728827,
      "d": 86.53846874998999,
      "v": 86
    },
    {
      "midi": 66,
      "hit": false,
      "t": 254764.44430728827,
      "d": 86.53846874998999,
      "v": 82
    },
    {
      "midi": 81,
      "hit": false,
      "t": 254764.44430729165,
      "d": 180.28847656250582,
      "v": 118
    },
    {
      "midi": 81,
      "hit": false,
      "t": 255000.02125,
      "d": 180.28847656250582,
      "v": 100
    },
    {
      "midi": 57,
      "hit": false,
      "t": 255230.7904999966,
      "d": 86.53846874998999,
      "v": 77
    },
    {
      "midi": 62,
      "hit": false,
      "t": 255230.7904999966,
      "d": 86.53846874998999,
      "v": 77
    },
    {
      "midi": 66,
      "hit": false,
      "t": 255230.7904999966,
      "d": 86.53846874998999,
      "v": 77
    },
    {
      "midi": 69,
      "hit": false,
      "t": 255230.7905,
      "d": 180.28847656250582,
      "v": 106
    },
    {
      "midi": 57,
      "hit": false,
      "t": 255459.15590364242,
      "d": 86.53846874998999,
      "v": 79
    },
    {
      "midi": 62,
      "hit": false,
      "t": 255459.15590364242,
      "d": 86.53846874998999,
      "v": 69
    },
    {
      "midi": 66,
      "hit": false,
      "t": 255459.15590364242,
      "d": 86.53846874998999,
      "v": 74
    },
    {
      "midi": 69,
      "hit": false,
      "t": 255459.15590364585,
      "d": 180.28847656250582,
      "v": 106
    },
    {
      "midi": 57,
      "hit": false,
      "t": 255692.32899999656,
      "d": 86.53846874998999,
      "v": 75
    },
    {
      "midi": 62,
      "hit": false,
      "t": 255692.32899999656,
      "d": 86.53846874998999,
      "v": 75
    },
    {
      "midi": 66,
      "hit": false,
      "t": 255692.32899999656,
      "d": 86.53846874998999,
      "v": 75
    },
    {
      "midi": 69,
      "hit": false,
      "t": 255692.32900000003,
      "d": 180.28847656250582,
      "v": 116
    },
    {
      "midi": 93,
      "hit": false,
      "t": 255925.5020963542,
      "d": 180.28847656250582,
      "v": 100
    },
    {
      "midi": 57,
      "hit": false,
      "t": 256153.86749999656,
      "d": 86.53846874998999,
      "v": 69
    },
    {
      "midi": 62,
      "hit": false,
      "t": 256153.86749999656,
      "d": 86.53846874998999,
      "v": 75
    },
    {
      "midi": 66,
      "hit": false,
      "t": 256153.86749999656,
      "d": 86.53846874998999,
      "v": 73
    },
    {
      "midi": 93,
      "hit": false,
      "t": 256153.86750000005,
      "d": 180.28847656250582,
      "v": 108
    },
    {
      "midi": 81,
      "hit": false,
      "t": 256389.4444427084,
      "d": 180.28847656250582,
      "v": 112
    },
    {
      "midi": 81,
      "hit": false,
      "t": 256615.40600000008,
      "d": 180.28847656250582,
      "v": 113
    },
    {
      "midi": 69,
      "hit": false,
      "t": 256848.57909635425,
      "d": 180.28847656250582,
      "v": 101
    },
    {
      "midi": 57,
      "hit": false,
      "t": 257074.54065364238,
      "d": 86.53846874998999,
      "v": 78
    },
    {
      "midi": 62,
      "hit": false,
      "t": 257074.54065364238,
      "d": 86.53846874998999,
      "v": 78
    },
    {
      "midi": 66,
      "hit": false,
      "t": 257074.54065364238,
      "d": 86.53846874998999,
      "v": 78
    },
    {
      "midi": 69,
      "hit": false,
      "t": 257074.54065364593,
      "d": 180.28847656250582,
      "v": 108
    },
    {
      "midi": 93,
      "hit": false,
      "t": 257305.30990364595,
      "d": 180.28847656250582,
      "v": 107
    },
    {
      "midi": 57,
      "hit": false,
      "t": 257538.48299999654,
      "d": 86.53846874998999,
      "v": 75
    },
    {
      "midi": 62,
      "hit": false,
      "t": 257538.48299999654,
      "d": 86.53846874998999,
      "v": 75
    },
    {
      "midi": 66,
      "hit": false,
      "t": 257538.48299999654,
      "d": 86.53846874998999,
      "v": 75
    },
    {
      "midi": 93,
      "hit": false,
      "t": 257538.48300000012,
      "d": 180.28847656250582,
      "v": 118
    },
    {
      "midi": 57,
      "hit": false,
      "t": 257771.6560963507,
      "d": 86.53846874998999,
      "v": 78
    },
    {
      "midi": 62,
      "hit": false,
      "t": 257771.6560963507,
      "d": 86.53846874998999,
      "v": 72
    },
    {
      "midi": 66,
      "hit": false,
      "t": 257771.6560963507,
      "d": 86.53846874998999,
      "v": 69
    },
    {
      "midi": 81,
      "hit": false,
      "t": 257771.6560963543,
      "d": 180.28847656250582,
      "v": 101
    },
    {
      "midi": 57,
      "hit": false,
      "t": 257997.61765364234,
      "d": 86.53846874998999,
      "v": 72
    },
    {
      "midi": 62,
      "hit": false,
      "t": 257997.61765364234,
      "d": 86.53846874998999,
      "v": 72
    },
    {
      "midi": 66,
      "hit": false,
      "t": 257997.61765364234,
      "d": 86.53846874998999,
      "v": 72
    },
    {
      "midi": 81,
      "hit": false,
      "t": 257997.61765364598,
      "d": 180.28847656250582,
      "v": 106
    },
    {
      "midi": 69,
      "hit": false,
      "t": 258235.5984427085,
      "d": 180.28847656250582,
      "v": 105
    },
    {
      "midi": 57,
      "hit": false,
      "t": 258461.5599999965,
      "d": 86.53846874998999,
      "v": 78
    },
    {
      "midi": 61,
      "hit": false,
      "t": 258461.5599999965,
      "d": 86.53846874998999,
      "v": 69
    },
    {
      "midi": 66,
      "hit": false,
      "t": 258461.5599999965,
      "d": 86.53846874998999,
      "v": 75
    },
    {
      "midi": 69,
      "hit": false,
      "t": 258461.56000000017,
      "d": 180.28847656250582,
      "v": 118
    },
    {
      "midi": 62,
      "hit": false,
      "t": 258692.32925000018,
      "d": 180.28847656250582,
      "v": 103
    },
    {
      "midi": 91,
      "hit": false,
      "t": 258692.32925000018,
      "d": 180.28847656250582,
      "v": 103
    },
    {
      "midi": 57,
      "hit": false,
      "t": 258915.886960934,
      "d": 86.53846874998999,
      "v": 77
    },
    {
      "midi": 61,
      "hit": false,
      "t": 258915.886960934,
      "d": 86.53846874998999,
      "v": 77
    },
    {
      "midi": 66,
      "hit": false,
      "t": 258915.886960934,
      "d": 86.53846874998999,
      "v": 77
    },
    {
      "midi": 90,
      "hit": false,
      "t": 258915.8869609377,
      "d": 180.28847656250582,
      "v": 109
    },
    {
      "midi": 57,
      "hit": false,
      "t": 259149.06005728815,
      "d": 86.53846874998999,
      "v": 78
    },
    {
      "midi": 61,
      "hit": false,
      "t": 259149.06005728815,
      "d": 86.53846874998999,
      "v": 78
    },
    {
      "midi": 67,
      "hit": false,
      "t": 259149.06005728815,
      "d": 86.53846874998999,
      "v": 79
    },
    {
      "midi": 79,
      "hit": false,
      "t": 259149.06005729188,
      "d": 180.28847656250582,
      "v": 103
    },
    {
      "midi": 57,
      "hit": false,
      "t": 259382.2331536423,
      "d": 86.53846874998999,
      "v": 75
    },
    {
      "midi": 61,
      "hit": false,
      "t": 259382.2331536423,
      "d": 86.53846874998999,
      "v": 75
    },
    {
      "midi": 67,
      "hit": false,
      "t": 259382.2331536423,
      "d": 86.53846874998999,
      "v": 75
    },
    {
      "midi": 78,
      "hit": false,
      "t": 259382.23315364606,
      "d": 180.28847656250582,
      "v": 116
    },
    {
      "midi": 67,
      "hit": false,
      "t": 259615.40625000023,
      "d": 180.28847656250582,
      "v": 100
    },
    {
      "midi": 57,
      "hit": false,
      "t": 259841.36780728813,
      "d": 86.53846874998999,
      "v": 77
    },
    {
      "midi": 61,
      "hit": false,
      "t": 259841.36780728813,
      "d": 86.53846874998999,
      "v": 78
    },
    {
      "midi": 67,
      "hit": false,
      "t": 259841.36780728813,
      "d": 86.53846874998999,
      "v": 69
    },
    {
      "midi": 66,
      "hit": false,
      "t": 259841.3678072919,
      "d": 180.28847656250582,
      "v": 107
    },
    {
      "midi": 91,
      "hit": false,
      "t": 260074.5409036461,
      "d": 180.28847656250582,
      "v": 113
    },
    {
      "midi": 90,
      "hit": false,
      "t": 260305.3101536461,
      "d": 180.28847656250582,
      "v": 116
    },
    {
      "midi": 79,
      "hit": false,
      "t": 260538.48325000028,
      "d": 180.28847656250582,
      "v": 103
    },
    {
      "midi": 57,
      "hit": false,
      "t": 260764.44480728812,
      "d": 86.53846874998999,
      "v": 78
    },
    {
      "midi": 61,
      "hit": false,
      "t": 260764.44480728812,
      "d": 86.53846874998999,
      "v": 78
    },
    {
      "midi": 67,
      "hit": false,
      "t": 260764.44480728812,
      "d": 86.53846874998999,
      "v": 79
    },
    {
      "midi": 78,
      "hit": false,
      "t": 260764.44480729196,
      "d": 180.28847656250582,
      "v": 107
    },
    {
      "midi": 67,
      "hit": false,
      "t": 260997.61790364614,
      "d": 180.28847656250582,
      "v": 108
    },
    {
      "midi": 57,
      "hit": false,
      "t": 261230.79099999645,
      "d": 86.53846874998999,
      "v": 76
    },
    {
      "midi": 61,
      "hit": false,
      "t": 261230.79099999645,
      "d": 86.53846874998999,
      "v": 76
    },
    {
      "midi": 67,
      "hit": false,
      "t": 261230.79099999645,
      "d": 86.53846874998999,
      "v": 76
    },
    {
      "midi": 62,
      "hit": false,
      "t": 261230.79100000032,
      "d": 180.28847656250582,
      "v": 113
    },
    {
      "midi": 57,
      "hit": false,
      "t": 261461.56024999643,
      "d": 86.53846874998999,
      "v": 78
    },
    {
      "midi": 61,
      "hit": false,
      "t": 261461.56024999643,
      "d": 86.53846874998999,
      "v": 78
    },
    {
      "midi": 67,
      "hit": false,
      "t": 261461.56024999643,
      "d": 86.53846874998999,
      "v": 78
    },
    {
      "midi": 91,
      "hit": false,
      "t": 261461.56025000033,
      "d": 180.28847656250582,
      "v": 103
    },
    {
      "midi": 57,
      "hit": false,
      "t": 261692.3294999964,
      "d": 86.53846874998999,
      "v": 78
    },
    {
      "midi": 61,
      "hit": false,
      "t": 261692.3294999964,
      "d": 86.53846874998999,
      "v": 78
    },
    {
      "midi": 67,
      "hit": false,
      "t": 261692.3294999964,
      "d": 86.53846874998999,
      "v": 78
    },
    {
      "midi": 90,
      "hit": false,
      "t": 261692.32950000034,
      "d": 180.28847656250582,
      "v": 107
    },
    {
      "midi": 79,
      "hit": false,
      "t": 261923.09875000035,
      "d": 180.28847656250582,
      "v": 108
    },
    {
      "midi": 86,
      "hit": false,
      "t": 261923.09875000035,
      "d": 180.28847656250582,
      "v": 108
    },
    {
      "midi": 59,
      "hit": false,
      "t": 262149.0603072881,
      "d": 86.53846875001909,
      "v": 69
    },
    {
      "midi": 62,
      "hit": false,
      "t": 262149.0603072881,
      "d": 86.53846875001909,
      "v": 69
    },
    {
      "midi": 66,
      "hit": false,
      "t": 262149.0603072881,
      "d": 86.53846875001909,
      "v": 78
    },
    {
      "midi": 86,
      "hit": false,
      "t": 262149.06030729203,
      "d": 180.28847656247672,
      "v": 118
    },
    {
      "midi": 66,
      "hit": false,
      "t": 262384.6372500003,
      "d": 180.28847656247672,
      "v": 100
    },
    {
      "midi": 78,
      "hit": false,
      "t": 262384.6372500003,
      "d": 180.28847656247672,
      "v": 100
    },
    {
      "midi": 59,
      "hit": false,
      "t": 262615.40649999643,
      "d": 86.53846875001909,
      "v": 77
    },
    {
      "midi": 62,
      "hit": false,
      "t": 262615.40649999643,
      "d": 86.53846875001909,
      "v": 77
    },
    {
      "midi": 66,
      "hit": false,
      "t": 262615.40649999643,
      "d": 86.53846875001909,
      "v": 77
    },
    {
      "midi": 64,
      "hit": false,
      "t": 262615.4065000003,
      "d": 180.28847656247672,
      "v": 106
    },
    {
      "midi": 74,
      "hit": false,
      "t": 262615.4065000003,
      "d": 180.28847656247672,
      "v": 106
    },
    {
      "midi": 59,
      "hit": false,
      "t": 262843.7719036423,
      "d": 86.53846875001909,
      "v": 69
    },
    {
      "midi": 62,
      "hit": false,
      "t": 262843.7719036423,
      "d": 86.53846875001909,
      "v": 69
    },
    {
      "midi": 66,
      "hit": false,
      "t": 262843.7719036423,
      "d": 86.53846875001909,
      "v": 69
    },
    {
      "midi": 62,
      "hit": false,
      "t": 262843.77190364606,
      "d": 180.28847656247672,
      "v": 106
    },
    {
      "midi": 90,
      "hit": false,
      "t": 262843.77190364606,
      "d": 180.28847656247672,
      "v": 106
    },
    {
      "midi": 59,
      "hit": false,
      "t": 263076.94499999646,
      "d": 86.53846875001909,
      "v": 75
    },
    {
      "midi": 62,
      "hit": false,
      "t": 263076.94499999646,
      "d": 86.53846875001909,
      "v": 75
    },
    {
      "midi": 66,
      "hit": false,
      "t": 263076.94499999646,
      "d": 86.53846875001909,
      "v": 75
    },
    {
      "midi": 88,
      "hit": false,
      "t": 263076.9450000002,
      "d": 180.28847656247672,
      "v": 116
    },
    {
      "midi": 78,
      "hit": false,
      "t": 263310.1180963543,
      "d": 180.28847656247672,
      "v": 100
    },
    {
      "midi": 86,
      "hit": false,
      "t": 263310.1180963543,
      "d": 180.28847656247672,
      "v": 100
    },
    {
      "midi": 59,
      "hit": false,
      "t": 263538.4834999965,
      "d": 86.53846875001909,
      "v": 78
    },
    {
      "midi": 62,
      "hit": false,
      "t": 263538.4834999965,
      "d": 86.53846875001909,
      "v": 69
    },
    {
      "midi": 66,
      "hit": false,
      "t": 263538.4834999965,
      "d": 86.53846875001909,
      "v": 78
    },
    {
      "midi": 76,
      "hit": false,
      "t": 263538.4835000001,
      "d": 180.28847656247672,
      "v": 108
    },
    {
      "midi": 66,
      "hit": false,
      "t": 263774.0604427084,
      "d": 180.28847656247672,
      "v": 112
    },
    {
      "midi": 74,
      "hit": false,
      "t": 263774.0604427084,
      "d": 180.28847656247672,
      "v": 112
    },
    {
      "midi": 90,
      "hit": false,
      "t": 263774.0604427084,
      "d": 180.28847656247672,
      "v": 112
    },
    {
      "midi": 64,
      "hit": false,
      "t": 264000.022,
      "d": 180.28847656247672,
      "v": 113
    },
    {
      "midi": 88,
      "hit": false,
      "t": 264000.022,
      "d": 180.28847656247672,
      "v": 113
    },
    {
      "midi": 62,
      "hit": false,
      "t": 264233.1950963541,
      "d": 180.28847656247672,
      "v": 101
    },
    {
      "midi": 86,
      "hit": false,
      "t": 264233.1950963541,
      "d": 180.28847656247672,
      "v": 101
    },
    {
      "midi": 59,
      "hit": false,
      "t": 264459.1566536423,
      "d": 86.53846875001909,
      "v": 78
    },
    {
      "midi": 62,
      "hit": false,
      "t": 264459.1566536423,
      "d": 86.53846875001909,
      "v": 78
    },
    {
      "midi": 66,
      "hit": false,
      "t": 264459.1566536423,
      "d": 86.53846875001909,
      "v": 78
    },
    {
      "midi": 78,
      "hit": false,
      "t": 264689.92590364575,
      "d": 180.28847656247672,
      "v": 107
    },
    {
      "midi": 90,
      "hit": false,
      "t": 264689.92590364575,
      "d": 180.28847656247672,
      "v": 107
    },
    {
      "midi": 59,
      "hit": false,
      "t": 264923.0989999965,
      "d": 86.53846875001909,
      "v": 74
    },
    {
      "midi": 62,
      "hit": false,
      "t": 264923.0989999965,
      "d": 86.53846875001909,
      "v": 74
    },
    {
      "midi": 66,
      "hit": false,
      "t": 264923.0989999965,
      "d": 86.53846875001909,
      "v": 74
    },
    {
      "midi": 76,
      "hit": false,
      "t": 264923.0989999999,
      "d": 180.28847656247672,
      "v": 118
    },
    {
      "midi": 88,
      "hit": false,
      "t": 264923.0989999999,
      "d": 180.28847656247672,
      "v": 118
    },
    {
      "midi": 59,
      "hit": false,
      "t": 265156.2720963507,
      "d": 86.53846875001909,
      "v": 78
    },
    {
      "midi": 62,
      "hit": false,
      "t": 265156.2720963507,
      "d": 86.53846875001909,
      "v": 78
    },
    {
      "midi": 66,
      "hit": false,
      "t": 265156.2720963507,
      "d": 86.53846875001909,
      "v": 78
    },
    {
      "midi": 66,
      "hit": false,
      "t": 265156.272096354,
      "d": 180.28847656247672,
      "v": 101
    },
    {
      "midi": 74,
      "hit": false,
      "t": 265156.272096354,
      "d": 180.28847656247672,
      "v": 101
    },
    {
      "midi": 86,
      "hit": false,
      "t": 265156.272096354,
      "d": 180.28847656247672,
      "v": 101
    },
    {
      "midi": 59,
      "hit": false,
      "t": 265382.23365364235,
      "d": 86.53846875001909,
      "v": 71
    },
    {
      "midi": 62,
      "hit": false,
      "t": 265382.23365364235,
      "d": 86.53846875001909,
      "v": 71
    },
    {
      "midi": 66,
      "hit": false,
      "t": 265382.23365364235,
      "d": 86.53846875001909,
      "v": 71
    },
    {
      "midi": 64,
      "hit": false,
      "t": 265382.2336536456,
      "d": 180.28847656247672,
      "v": 106
    },
    {
      "midi": 62,
      "hit": false,
      "t": 265620.21444270806,
      "d": 180.28847656247672,
      "v": 105
    },
    {
      "midi": 79,
      "hit": false,
      "t": 265620.21444270806,
      "d": 180.28847656247672,
      "v": 105
    },
    {
      "midi": 90,
      "hit": false,
      "t": 265620.21444270806,
      "d": 180.28847656247672,
      "v": 105
    },
    {
      "midi": 57,
      "hit": false,
      "t": 265846.17599999654,
      "d": 86.53846875001909,
      "v": 72
    },
    {
      "midi": 62,
      "hit": false,
      "t": 265846.17599999654,
      "d": 86.53846875001909,
      "v": 75
    },
    {
      "midi": 66,
      "hit": false,
      "t": 265846.17599999654,
      "d": 86.53846875001909,
      "v": 73
    },
    {
      "midi": 74,
      "hit": false,
      "t": 265846.1759999997,
      "d": 180.28847656247672,
      "v": 118
    },
    {
      "midi": 88,
      "hit": false,
      "t": 265846.1759999997,
      "d": 180.28847656247672,
      "v": 118
    },
    {
      "midi": 74,
      "hit": false,
      "t": 266076.94524999964,
      "d": 180.28847656247672,
      "v": 103
    },
    {
      "midi": 78,
      "hit": false,
      "t": 266076.94524999964,
      "d": 180.28847656247672,
      "v": 103
    },
    {
      "midi": 57,
      "hit": false,
      "t": 266300.50296093407,
      "d": 86.53846875001909,
      "v": 77
    },
    {
      "midi": 62,
      "hit": false,
      "t": 266300.50296093407,
      "d": 86.53846875001909,
      "v": 77
    },
    {
      "midi": 66,
      "hit": false,
      "t": 266300.50296093407,
      "d": 86.53846875001909,
      "v": 77
    },
    {
      "midi": 74,
      "hit": false,
      "t": 266300.5029609371,
      "d": 180.28847656247672,
      "v": 109
    },
    {
      "midi": 57,
      "hit": false,
      "t": 266533.67605728825,
      "d": 86.53846875001909,
      "v": 78
    },
    {
      "midi": 62,
      "hit": false,
      "t": 266533.67605728825,
      "d": 86.53846875001909,
      "v": 79
    },
    {
      "midi": 66,
      "hit": false,
      "t": 266533.67605728825,
      "d": 86.53846875001909,
      "v": 78
    },
    {
      "midi": 67,
      "hit": false,
      "t": 266533.6760572912,
      "d": 180.28847656247672,
      "v": 103
    },
    {
      "midi": 91,
      "hit": false,
      "t": 266533.6760572912,
      "d": 180.28847656247672,
      "v": 103
    },
    {
      "midi": 57,
      "hit": false,
      "t": 266766.8491536424,
      "d": 86.53846875001909,
      "v": 76
    },
    {
      "midi": 62,
      "hit": false,
      "t": 266766.8491536424,
      "d": 86.53846875001909,
      "v": 76
    },
    {
      "midi": 66,
      "hit": false,
      "t": 266766.8491536424,
      "d": 86.53846875001909,
      "v": 76
    },
    {
      "midi": 62,
      "hit": false,
      "t": 266766.84915364534,
      "d": 180.28847656247672,
      "v": 116
    },
    {
      "midi": 86,
      "hit": false,
      "t": 266766.84915364534,
      "d": 180.28847656247672,
      "v": 116
    },
    {
      "midi": 67,
      "hit": false,
      "t": 267000.02224999946,
      "d": 180.28847656247672,
      "v": 100
    },
    {
      "midi": 79,
      "hit": false,
      "t": 267000.02224999946,
      "d": 180.28847656247672,
      "v": 100
    },
    {
      "midi": 91,
      "hit": false,
      "t": 267000.02224999946,
      "d": 180.28847656247672,
      "v": 100
    },
    {
      "midi": 57,
      "hit": false,
      "t": 267225.9838072883,
      "d": 86.53846875001909,
      "v": 78
    },
    {
      "midi": 62,
      "hit": false,
      "t": 267225.9838072883,
      "d": 86.53846875001909,
      "v": 78
    },
    {
      "midi": 66,
      "hit": false,
      "t": 267225.9838072883,
      "d": 86.53846875001909,
      "v": 72
    },
    {
      "midi": 62,
      "hit": false,
      "t": 267225.9838072911,
      "d": 180.28847656247672,
      "v": 107
    },
    {
      "midi": 78,
      "hit": false,
      "t": 267459.1569036452,
      "d": 180.28847656247672,
      "v": 113
    },
    {
      "midi": 91,
      "hit": false,
      "t": 267459.1569036452,
      "d": 180.28847656247672,
      "v": 113
    },
    {
      "midi": 74,
      "hit": false,
      "t": 267689.92615364515,
      "d": 180.28847656247672,
      "v": 116
    },
    {
      "midi": 86,
      "hit": false,
      "t": 267689.92615364515,
      "d": 180.28847656247672,
      "v": 116
    },
    {
      "midi": 67,
      "hit": false,
      "t": 267923.0992499993,
      "d": 180.28847656247672,
      "v": 103
    },
    {
      "midi": 74,
      "hit": false,
      "t": 267923.0992499993,
      "d": 180.28847656247672,
      "v": 103
    },
    {
      "midi": 91,
      "hit": false,
      "t": 267923.0992499993,
      "d": 180.28847656247672,
      "v": 103
    },
    {
      "midi": 57,
      "hit": false,
      "t": 268149.0608072883,
      "d": 86.53846875001909,
      "v": 79
    },
    {
      "midi": 62,
      "hit": false,
      "t": 268149.0608072883,
      "d": 86.53846875001909,
      "v": 79
    },
    {
      "midi": 66,
      "hit": false,
      "t": 268149.0608072883,
      "d": 86.53846875001909,
      "v": 72
    },
    {
      "midi": 62,
      "hit": false,
      "t": 268149.0608072909,
      "d": 180.28847656247672,
      "v": 107
    },
    {
      "midi": 67,
      "hit": false,
      "t": 268382.233903645,
      "d": 180.28847656247672,
      "v": 108
    },
    {
      "midi": 79,
      "hit": false,
      "t": 268382.233903645,
      "d": 180.28847656247672,
      "v": 108
    },
    {
      "midi": 91,
      "hit": false,
      "t": 268382.233903645,
      "d": 180.28847656247672,
      "v": 108
    },
    {
      "midi": 57,
      "hit": false,
      "t": 268615.40699999663,
      "d": 86.53846875001909,
      "v": 75
    },
    {
      "midi": 62,
      "hit": false,
      "t": 268615.40699999663,
      "d": 86.53846875001909,
      "v": 75
    },
    {
      "midi": 66,
      "hit": false,
      "t": 268615.40699999663,
      "d": 86.53846875001909,
      "v": 75
    },
    {
      "midi": 62,
      "hit": false,
      "t": 268615.40699999913,
      "d": 180.28847656247672,
      "v": 113
    },
    {
      "midi": 74,
      "hit": false,
      "t": 268615.40699999913,
      "d": 180.28847656247672,
      "v": 113
    },
    {
      "midi": 86,
      "hit": false,
      "t": 268615.40699999913,
      "d": 180.28847656247672,
      "v": 113
    },
    {
      "midi": 57,
      "hit": false,
      "t": 268846.17624999664,
      "d": 86.53846875001909,
      "v": 78
    },
    {
      "midi": 62,
      "hit": false,
      "t": 268846.17624999664,
      "d": 86.53846875001909,
      "v": 78
    },
    {
      "midi": 66,
      "hit": false,
      "t": 268846.17624999664,
      "d": 86.53846875001909,
      "v": 69
    },
    {
      "midi": 74,
      "hit": false,
      "t": 268846.1762499991,
      "d": 180.28847656247672,
      "v": 103
    },
    {
      "midi": 91,
      "hit": false,
      "t": 268846.1762499991,
      "d": 180.28847656247672,
      "v": 103
    },
    {
      "midi": 57,
      "hit": false,
      "t": 269076.94549999665,
      "d": 86.53846875001909,
      "v": 78
    },
    {
      "midi": 62,
      "hit": false,
      "t": 269076.94549999665,
      "d": 86.53846875001909,
      "v": 78
    },
    {
      "midi": 66,
      "hit": false,
      "t": 269076.94549999665,
      "d": 86.53846875001909,
      "v": 78
    },
    {
      "midi": 74,
      "hit": false,
      "t": 269076.94549999904,
      "d": 180.28847656247672,
      "v": 107
    },
    {
      "midi": 67,
      "hit": false,
      "t": 269307.714749999,
      "d": 180.28847656247672,
      "v": 108
    },
    {
      "midi": 86,
      "hit": false,
      "t": 269307.714749999,
      "d": 180.28847656247672,
      "v": 108
    },
    {
      "midi": 91,
      "hit": false,
      "t": 269307.714749999,
      "d": 180.28847656247672,
      "v": 108
    },
    {
      "midi": 59,
      "hit": false,
      "t": 269533.67630728835,
      "d": 86.53846875001909,
      "v": 78
    },
    {
      "midi": 62,
      "hit": false,
      "t": 269533.67630728835,
      "d": 86.53846875001909,
      "v": 72
    },
    {
      "midi": 66,
      "hit": false,
      "t": 269533.67630728835,
      "d": 86.53846875001909,
      "v": 78
    },
    {
      "midi": 62,
      "hit": false,
      "t": 269533.6763072906,
      "d": 180.28847656247672,
      "v": 118
    },
    {
      "midi": 74,
      "hit": false,
      "t": 269533.6763072906,
      "d": 180.28847656247672,
      "v": 118
    },
    {
      "midi": 67,
      "hit": false,
      "t": 269769.2532499989,
      "d": 180.28847656247672,
      "v": 100
    },
    {
      "midi": 79,
      "hit": false,
      "t": 269769.2532499989,
      "d": 180.28847656247672,
      "v": 100
    },
    {
      "midi": 88,
      "hit": false,
      "t": 269769.2532499989,
      "d": 180.28847656247672,
      "v": 100
    },
    {
      "midi": 59,
      "hit": false,
      "t": 270000.0224999967,
      "d": 86.53846875001909,
      "v": 76
    },
    {
      "midi": 62,
      "hit": false,
      "t": 270000.0224999967,
      "d": 86.53846875001909,
      "v": 76
    },
    {
      "midi": 66,
      "hit": false,
      "t": 270000.0224999967,
      "d": 86.53846875001909,
      "v": 76
    },
    {
      "midi": 62,
      "hit": false,
      "t": 270000.02249999886,
      "d": 180.28847656247672,
      "v": 106
    },
    {
      "midi": 86,
      "hit": false,
      "t": 270000.02249999886,
      "d": 180.28847656247672,
      "v": 106
    },
    {
      "midi": 59,
      "hit": false,
      "t": 270228.38790364255,
      "d": 86.53846875001909,
      "v": 72
    },
    {
      "midi": 62,
      "hit": false,
      "t": 270228.38790364255,
      "d": 86.53846875001909,
      "v": 72
    },
    {
      "midi": 66,
      "hit": false,
      "t": 270228.38790364255,
      "d": 86.53846875001909,
      "v": 72
    },
    {
      "midi": 76,
      "hit": false,
      "t": 270228.38790364465,
      "d": 180.28847656247672,
      "v": 106
    },
    {
      "midi": 91,
      "hit": false,
      "t": 270228.38790364465,
      "d": 180.28847656247672,
      "v": 106
    },
    {
      "midi": 59,
      "hit": false,
      "t": 270461.5609999967,
      "d": 86.53846875001909,
      "v": 78
    },
    {
      "midi": 62,
      "hit": false,
      "t": 270461.5609999967,
      "d": 86.53846875001909,
      "v": 78
    },
    {
      "midi": 66,
      "hit": false,
      "t": 270461.5609999967,
      "d": 86.53846875001909,
      "v": 78
    },
    {
      "midi": 74,
      "hit": false,
      "t": 270461.56099999876,
      "d": 180.28847656247672,
      "v": 116
    },
    {
      "midi": 79,
      "hit": false,
      "t": 270461.56099999876,
      "d": 180.28847656247672,
      "v": 116
    },
    {
      "midi": 64,
      "hit": false,
      "t": 270694.7340963529,
      "d": 180.28847656247672,
      "v": 100
    },
    {
      "midi": 59,
      "hit": false,
      "t": 270923.09949999675,
      "d": 86.53846875001909,
      "v": 78
    },
    {
      "midi": 62,
      "hit": false,
      "t": 270923.09949999675,
      "d": 86.53846875001909,
      "v": 78
    },
    {
      "midi": 66,
      "hit": false,
      "t": 270923.09949999675,
      "d": 86.53846875001909,
      "v": 78
    },
    {
      "midi": 74,
      "hit": false,
      "t": 270923.0994999987,
      "d": 180.28847656247672,
      "v": 108
    },
    {
      "midi": 79,
      "hit": false,
      "t": 271158.67644270696,
      "d": 180.28847656247672,
      "v": 112
    },
    {
      "midi": 88,
      "hit": false,
      "t": 271158.67644270696,
      "d": 180.28847656247672,
      "v": 112
    },
    {
      "midi": 91,
      "hit": false,
      "t": 271158.67644270696,
      "d": 180.28847656247672,
      "v": 112
    },
    {
      "midi": 62,
      "hit": false,
      "t": 271384.6379999986,
      "d": 180.28847656247672,
      "v": 113
    },
    {
      "midi": 86,
      "hit": false,
      "t": 271384.6379999986,
      "d": 180.28847656247672,
      "v": 113
    },
    {
      "midi": 76,
      "hit": false,
      "t": 271617.8110963527,
      "d": 180.28847656247672,
      "v": 101
    },
    {
      "midi": 88,
      "hit": false,
      "t": 271617.8110963527,
      "d": 180.28847656247672,
      "v": 101
    },
    {
      "midi": 91,
      "hit": false,
      "t": 271617.8110963527,
      "d": 180.28847656247672,
      "v": 101
    },
    {
      "midi": 59,
      "hit": false,
      "t": 271843.7726536426,
      "d": 86.53846875001909,
      "v": 78
    },
    {
      "midi": 62,
      "hit": false,
      "t": 271843.7726536426,
      "d": 86.53846875001909,
      "v": 73
    },
    {
      "midi": 66,
      "hit": false,
      "t": 271843.7726536426,
      "d": 86.53846875001909,
      "v": 79
    },
    {
      "midi": 74,
      "hit": false,
      "t": 271843.7726536443,
      "d": 180.28847656247672,
      "v": 108
    },
    {
      "midi": 79,
      "hit": false,
      "t": 271843.7726536443,
      "d": 180.28847656247672,
      "v": 108
    },
    {
      "midi": 86,
      "hit": false,
      "t": 271843.7726536443,
      "d": 180.28847656247672,
      "v": 108
    },
    {
      "midi": 64,
      "hit": false,
      "t": 272074.5419036443,
      "d": 180.28847656247672,
      "v": 107
    },
    {
      "midi": 88,
      "hit": false,
      "t": 272074.5419036443,
      "d": 180.28847656247672,
      "v": 107
    },
    {
      "midi": 59,
      "hit": false,
      "t": 272307.71499999677,
      "d": 86.53846875001909,
      "v": 75
    },
    {
      "midi": 62,
      "hit": false,
      "t": 272307.71499999677,
      "d": 86.53846875001909,
      "v": 75
    },
    {
      "midi": 66,
      "hit": false,
      "t": 272307.71499999677,
      "d": 86.53846875001909,
      "v": 75
    },
    {
      "midi": 74,
      "hit": false,
      "t": 272307.7149999984,
      "d": 180.28847656247672,
      "v": 118
    },
    {
      "midi": 59,
      "hit": false,
      "t": 272540.88809635094,
      "d": 86.53846875001909,
      "v": 78
    },
    {
      "midi": 62,
      "hit": false,
      "t": 272540.88809635094,
      "d": 86.53846875001909,
      "v": 79
    },
    {
      "midi": 66,
      "hit": false,
      "t": 272540.88809635094,
      "d": 86.53846875001909,
      "v": 78
    },
    {
      "midi": 67,
      "hit": false,
      "t": 272540.8880963525,
      "d": 180.28847656247672,
      "v": 101
    },
    {
      "midi": 79,
      "hit": false,
      "t": 272540.8880963525,
      "d": 180.28847656247672,
      "v": 101
    },
    {
      "midi": 88,
      "hit": false,
      "t": 272540.8880963525,
      "d": 180.28847656247672,
      "v": 101
    },
    {
      "midi": 59,
      "hit": false,
      "t": 272766.8496536426,
      "d": 86.53846875001909,
      "v": 69
    },
    {
      "midi": 62,
      "hit": false,
      "t": 272766.8496536426,
      "d": 86.53846875001909,
      "v": 69
    },
    {
      "midi": 66,
      "hit": false,
      "t": 272766.8496536426,
      "d": 86.53846875001909,
      "v": 69
    },
    {
      "midi": 62,
      "hit": false,
      "t": 272766.84965364414,
      "d": 180.28847656247672,
      "v": 106
    },
    {
      "midi": 86,
      "hit": false,
      "t": 272766.84965364414,
      "d": 180.28847656247672,
      "v": 106
    },
    {
      "midi": 76,
      "hit": false,
      "t": 273004.8304427066,
      "d": 180.28847656247672,
      "v": 105
    },
    {
      "midi": 79,
      "hit": false,
      "t": 273004.8304427066,
      "d": 180.28847656247672,
      "v": 105
    },
    {
      "midi": 91,
      "hit": false,
      "t": 273004.8304427066,
      "d": 180.28847656247672,
      "v": 105
    },
    {
      "midi": 57,
      "hit": false,
      "t": 273230.7919999968,
      "d": 86.53846875001909,
      "v": 74
    },
    {
      "midi": 62,
      "hit": false,
      "t": 273230.7919999968,
      "d": 86.53846875001909,
      "v": 78
    },
    {
      "midi": 66,
      "hit": false,
      "t": 273230.7919999968,
      "d": 86.53846875001909,
      "v": 73
    },
    {
      "midi": 62,
      "hit": false,
      "t": 273230.7919999982,
      "d": 180.28847656247672,
      "v": 118
    },
    {
      "midi": 74,
      "hit": false,
      "t": 273230.7919999982,
      "d": 180.28847656247672,
      "v": 118
    },
    {
      "midi": 78,
      "hit": false,
      "t": 273230.7919999982,
      "d": 180.28847656247672,
      "v": 118
    },
    {
      "midi": 86,
      "hit": false,
      "t": 273230.7919999982,
      "d": 180.28847656247672,
      "v": 118
    },
    {
      "midi": 90,
      "hit": false,
      "t": 273230.7919999982,
      "d": 180.28847656247672,
      "v": 118
    },
    {
      "midi": 66,
      "hit": false,
      "t": 273461.56124999817,
      "d": 180.28847656247672,
      "v": 103
    },
    {
      "midi": 57,
      "hit": false,
      "t": 273685.11896093434,
      "d": 86.53846875001909,
      "v": 77
    },
    {
      "midi": 62,
      "hit": false,
      "t": 273685.11896093434,
      "d": 86.53846875001909,
      "v": 77
    },
    {
      "midi": 66,
      "hit": false,
      "t": 273685.11896093434,
      "d": 86.53846875001909,
      "v": 77
    },
    {
      "midi": 81,
      "hit": false,
      "t": 273685.1189609356,
      "d": 180.28847656247672,
      "v": 109
    },
    {
      "midi": 57,
      "hit": false,
      "t": 273918.2920572885,
      "d": 86.53846875001909,
      "v": 78
    },
    {
      "midi": 62,
      "hit": false,
      "t": 273918.2920572885,
      "d": 86.53846875001909,
      "v": 78
    },
    {
      "midi": 66,
      "hit": false,
      "t": 273918.2920572885,
      "d": 86.53846875001909,
      "v": 78
    },
    {
      "midi": 74,
      "hit": false,
      "t": 273918.29205728974,
      "d": 180.28847656247672,
      "v": 103
    },
    {
      "midi": 78,
      "hit": false,
      "t": 273918.29205728974,
      "d": 180.28847656247672,
      "v": 103
    },
    {
      "midi": 86,
      "hit": false,
      "t": 273918.29205728974,
      "d": 180.28847656247672,
      "v": 103
    },
    {
      "midi": 90,
      "hit": false,
      "t": 273918.29205728974,
      "d": 180.28847656247672,
      "v": 103
    },
    {
      "midi": 57,
      "hit": false,
      "t": 274151.4651536427,
      "d": 86.53846875001909,
      "v": 75
    },
    {
      "midi": 62,
      "hit": false,
      "t": 274151.4651536427,
      "d": 86.53846875001909,
      "v": 75
    },
    {
      "midi": 66,
      "hit": false,
      "t": 274151.4651536427,
      "d": 86.53846875001909,
      "v": 75
    },
    {
      "midi": 66,
      "hit": false,
      "t": 274384.63824999804,
      "d": 180.28847656247672,
      "v": 100
    },
    {
      "midi": 78,
      "hit": false,
      "t": 274384.63824999804,
      "d": 180.28847656247672,
      "v": 100
    },
    {
      "midi": 81,
      "hit": false,
      "t": 274384.63824999804,
      "d": 180.28847656247672,
      "v": 100
    },
    {
      "midi": 57,
      "hit": false,
      "t": 274610.59980728856,
      "d": 86.53846875001909,
      "v": 78
    },
    {
      "midi": 62,
      "hit": false,
      "t": 274610.59980728856,
      "d": 86.53846875001909,
      "v": 78
    },
    {
      "midi": 66,
      "hit": false,
      "t": 274610.59980728856,
      "d": 86.53846875001909,
      "v": 69
    },
    {
      "midi": 62,
      "hit": false,
      "t": 274610.59980728966,
      "d": 180.28847656247672,
      "v": 107
    },
    {
      "midi": 74,
      "hit": false,
      "t": 274610.59980728966,
      "d": 180.28847656247672,
      "v": 107
    },
    {
      "midi": 90,
      "hit": false,
      "t": 274610.59980728966,
      "d": 180.28847656247672,
      "v": 107
    },
    {
      "midi": 66,
      "hit": false,
      "t": 274843.7729036438,
      "d": 180.28847656247672,
      "v": 113
    },
    {
      "midi": 78,
      "hit": false,
      "t": 274843.7729036438,
      "d": 180.28847656247672,
      "v": 113
    },
    {
      "midi": 86,
      "hit": false,
      "t": 274843.7729036438,
      "d": 180.28847656247672,
      "v": 113
    },
    {
      "midi": 74,
      "hit": false,
      "t": 275074.54215364374,
      "d": 180.28847656247672,
      "v": 116
    },
    {
      "midi": 81,
      "hit": false,
      "t": 275074.54215364374,
      "d": 180.28847656247672,
      "v": 116
    },
    {
      "midi": 90,
      "hit": false,
      "t": 275074.54215364374,
      "d": 180.28847656247672,
      "v": 116
    },
    {
      "midi": 74,
      "hit": false,
      "t": 275307.71524999785,
      "d": 180.28847656247672,
      "v": 103
    },
    {
      "midi": 86,
      "hit": false,
      "t": 275307.71524999785,
      "d": 180.28847656247672,
      "v": 103
    },
    {
      "midi": 90,
      "hit": false,
      "t": 275307.71524999785,
      "d": 180.28847656247672,
      "v": 103
    },
    {
      "midi": 57,
      "hit": false,
      "t": 275533.67680728855,
      "d": 86.53846875001909,
      "v": 79
    },
    {
      "midi": 62,
      "hit": false,
      "t": 275533.67680728855,
      "d": 86.53846875001909,
      "v": 72
    },
    {
      "midi": 66,
      "hit": false,
      "t": 275533.67680728855,
      "d": 86.53846875001909,
      "v": 72
    },
    {
      "midi": 66,
      "hit": false,
      "t": 275766.84990364366,
      "d": 180.28847656247672,
      "v": 108
    },
    {
      "midi": 78,
      "hit": false,
      "t": 275766.84990364366,
      "d": 180.28847656247672,
      "v": 108
    },
    {
      "midi": 86,
      "hit": false,
      "t": 275766.84990364366,
      "d": 180.28847656247672,
      "v": 108
    },
    {
      "midi": 57,
      "hit": false,
      "t": 276000.0229999969,
      "d": 86.53846875001909,
      "v": 75
    },
    {
      "midi": 62,
      "hit": false,
      "t": 276000.0229999969,
      "d": 86.53846875001909,
      "v": 75
    },
    {
      "midi": 66,
      "hit": false,
      "t": 276000.0229999969,
      "d": 86.53846875001909,
      "v": 75
    },
    {
      "midi": 62,
      "hit": false,
      "t": 276000.0229999978,
      "d": 180.28847656247672,
      "v": 113
    },
    {
      "midi": 57,
      "hit": false,
      "t": 276230.7922499969,
      "d": 86.53846875001909,
      "v": 79
    },
    {
      "midi": 62,
      "hit": false,
      "t": 276230.7922499969,
      "d": 86.53846875001909,
      "v": 78
    },
    {
      "midi": 66,
      "hit": false,
      "t": 276230.7922499969,
      "d": 86.53846875001909,
      "v": 79
    },
    {
      "midi": 78,
      "hit": false,
      "t": 276230.7922499977,
      "d": 180.28847656247672,
      "v": 103
    },
    {
      "midi": 86,
      "hit": false,
      "t": 276230.7922499977,
      "d": 180.28847656247672,
      "v": 103
    },
    {
      "midi": 57,
      "hit": false,
      "t": 276461.5614999969,
      "d": 86.53846875001909,
      "v": 79
    },
    {
      "midi": 62,
      "hit": false,
      "t": 276461.5614999969,
      "d": 86.53846875001909,
      "v": 78
    },
    {
      "midi": 66,
      "hit": false,
      "t": 276461.5614999969,
      "d": 86.53846875001909,
      "v": 79
    },
    {
      "midi": 66,
      "hit": false,
      "t": 276461.5614999977,
      "d": 180.28847656247672,
      "v": 107
    },
    {
      "midi": 81,
      "hit": false,
      "t": 276461.5614999977,
      "d": 180.28847656247672,
      "v": 107
    },
    {
      "midi": 90,
      "hit": false,
      "t": 276461.5614999977,
      "d": 180.28847656247672,
      "v": 107
    },
    {
      "midi": 62,
      "hit": false,
      "t": 276692.33074999764,
      "d": 180.28847656247672,
      "v": 108
    },
    {
      "midi": 86,
      "hit": false,
      "t": 276692.33074999764,
      "d": 180.28847656247672,
      "v": 108
    },
    {
      "midi": 91,
      "hit": false,
      "t": 276692.33074999764,
      "d": 180.28847656247672,
      "v": 108
    },
    {
      "midi": 59,
      "hit": false,
      "t": 276918.2923072886,
      "d": 86.53846875001909,
      "v": 78
    },
    {
      "midi": 62,
      "hit": false,
      "t": 276918.2923072886,
      "d": 86.53846875001909,
      "v": 78
    },
    {
      "midi": 67,
      "hit": false,
      "t": 276918.2923072886,
      "d": 86.53846875001909,
      "v": 72
    },
    {
      "midi": 67,
      "hit": false,
      "t": 276918.29230728926,
      "d": 180.28847656247672,
      "v": 118
    },
    {
      "midi": 74,
      "hit": false,
      "t": 276918.29230728926,
      "d": 180.28847656247672,
      "v": 118
    },
    {
      "midi": 78,
      "hit": false,
      "t": 276918.29230728926,
      "d": 180.28847656247672,
      "v": 118
    },
    {
      "midi": 86,
      "hit": false,
      "t": 276918.29230728926,
      "d": 180.28847656247672,
      "v": 118
    },
    {
      "midi": 62,
      "hit": false,
      "t": 277153.86924999754,
      "d": 180.28847656247672,
      "v": 100
    },
    {
      "midi": 59,
      "hit": false,
      "t": 277384.638499997,
      "d": 86.53846875001909,
      "v": 77
    },
    {
      "midi": 62,
      "hit": false,
      "t": 277384.638499997,
      "d": 86.53846875001909,
      "v": 77
    },
    {
      "midi": 67,
      "hit": false,
      "t": 277384.638499997,
      "d": 86.53846875001909,
      "v": 77
    },
    {
      "midi": 83,
      "hit": false,
      "t": 277384.6384999975,
      "d": 180.28847656247672,
      "v": 106
    },
    {
      "midi": 91,
      "hit": false,
      "t": 277384.6384999975,
      "d": 180.28847656247672,
      "v": 106
    },
    {
      "midi": 59,
      "hit": false,
      "t": 277613.0039036428,
      "d": 86.53846875001909,
      "v": 78
    },
    {
      "midi": 62,
      "hit": false,
      "t": 277613.0039036428,
      "d": 86.53846875001909,
      "v": 78
    },
    {
      "midi": 67,
      "hit": false,
      "t": 277613.0039036428,
      "d": 86.53846875001909,
      "v": 78
    },
    {
      "midi": 67,
      "hit": false,
      "t": 277613.0039036433,
      "d": 180.28847656247672,
      "v": 106
    },
    {
      "midi": 78,
      "hit": false,
      "t": 277613.0039036433,
      "d": 180.28847656247672,
      "v": 106
    },
    {
      "midi": 86,
      "hit": false,
      "t": 277613.0039036433,
      "d": 180.28847656247672,
      "v": 106
    },
    {
      "midi": 59,
      "hit": false,
      "t": 277846.176999997,
      "d": 86.53846875001909,
      "v": 75
    },
    {
      "midi": 62,
      "hit": false,
      "t": 277846.176999997,
      "d": 86.53846875001909,
      "v": 75
    },
    {
      "midi": 67,
      "hit": false,
      "t": 277846.176999997,
      "d": 86.53846875001909,
      "v": 75
    },
    {
      "midi": 78,
      "hit": false,
      "t": 278079.3500963516,
      "d": 180.28847656247672,
      "v": 100
    },
    {
      "midi": 91,
      "hit": false,
      "t": 278079.3500963516,
      "d": 180.28847656247672,
      "v": 100
    },
    {
      "midi": 59,
      "hit": false,
      "t": 278307.715499997,
      "d": 86.53846875001909,
      "v": 78
    },
    {
      "midi": 62,
      "hit": false,
      "t": 278307.715499997,
      "d": 86.53846875001909,
      "v": 78
    },
    {
      "midi": 67,
      "hit": false,
      "t": 278307.715499997,
      "d": 86.53846875001909,
      "v": 78
    },
    {
      "midi": 67,
      "hit": false,
      "t": 278543.2924427057,
      "d": 180.28847656247672,
      "v": 112
    },
    {
      "midi": 78,
      "hit": false,
      "t": 278543.2924427057,
      "d": 180.28847656247672,
      "v": 112
    },
    {
      "midi": 86,
      "hit": false,
      "t": 278543.2924427057,
      "d": 180.28847656247672,
      "v": 112
    },
    {
      "midi": 62,
      "hit": false,
      "t": 278769.25399999734,
      "d": 180.28847656247672,
      "v": 113
    },
    {
      "midi": 74,
      "hit": false,
      "t": 278769.25399999734,
      "d": 180.28847656247672,
      "v": 113
    },
    {
      "midi": 83,
      "hit": false,
      "t": 278769.25399999734,
      "d": 180.28847656247672,
      "v": 113
    },
    {
      "midi": 91,
      "hit": false,
      "t": 278769.25399999734,
      "d": 180.28847656247672,
      "v": 113
    },
    {
      "midi": 74,
      "hit": false,
      "t": 279002.42709635146,
      "d": 180.28847656247672,
      "v": 101
    },
    {
      "midi": 86,
      "hit": false,
      "t": 279002.42709635146,
      "d": 180.28847656247672,
      "v": 101
    },
    {
      "midi": 59,
      "hit": false,
      "t": 279228.38865364285,
      "d": 86.53846875001909,
      "v": 78
    },
    {
      "midi": 62,
      "hit": false,
      "t": 279228.38865364285,
      "d": 86.53846875001909,
      "v": 69
    },
    {
      "midi": 67,
      "hit": false,
      "t": 279228.38865364285,
      "d": 86.53846875001909,
      "v": 69
    },
    {
      "midi": 67,
      "hit": false,
      "t": 279228.3886536431,
      "d": 180.28847656247672,
      "v": 108
    },
    {
      "midi": 78,
      "hit": false,
      "t": 279459.15790364303,
      "d": 180.28847656247672,
      "v": 107
    },
    {
      "midi": 86,
      "hit": false,
      "t": 279459.15790364303,
      "d": 180.28847656247672,
      "v": 107
    },
    {
      "midi": 91,
      "hit": false,
      "t": 279459.15790364303,
      "d": 180.28847656247672,
      "v": 107
    },
    {
      "midi": 59,
      "hit": false,
      "t": 279692.33099999704,
      "d": 86.53846875001909,
      "v": 77
    },
    {
      "midi": 62,
      "hit": false,
      "t": 279692.33099999704,
      "d": 86.53846875001909,
      "v": 77
    },
    {
      "midi": 67,
      "hit": false,
      "t": 279692.33099999704,
      "d": 86.53846875001909,
      "v": 77
    },
    {
      "midi": 59,
      "hit": false,
      "t": 279925.5040963512,
      "d": 86.53846875001909,
      "v": 79
    },
    {
      "midi": 62,
      "hit": false,
      "t": 279925.5040963512,
      "d": 86.53846875001909,
      "v": 78
    },
    {
      "midi": 67,
      "hit": false,
      "t": 279925.5040963512,
      "d": 86.53846875001909,
      "v": 74
    },
    {
      "midi": 66,
      "hit": false,
      "t": 279925.50409635133,
      "d": 180.28847656247672,
      "v": 101
    },
    {
      "midi": 67,
      "hit": false,
      "t": 279925.50409635133,
      "d": 180.28847656247672,
      "v": 101
    },
    {
      "midi": 78,
      "hit": false,
      "t": 279925.50409635133,
      "d": 180.28847656247672,
      "v": 101
    },
    {
      "midi": 86,
      "hit": false,
      "t": 279925.50409635133,
      "d": 180.28847656247672,
      "v": 101
    },
    {
      "midi": 59,
      "hit": false,
      "t": 280151.4656536429,
      "d": 86.53846875001909,
      "v": 78
    },
    {
      "midi": 62,
      "hit": false,
      "t": 280151.4656536429,
      "d": 86.53846875001909,
      "v": 78
    },
    {
      "midi": 67,
      "hit": false,
      "t": 280151.4656536429,
      "d": 86.53846875001909,
      "v": 78
    },
    {
      "midi": 83,
      "hit": false,
      "t": 280151.46565364295,
      "d": 180.28847656247672,
      "v": 106
    },
    {
      "midi": 91,
      "hit": false,
      "t": 280151.46565364295,
      "d": 180.28847656247672,
      "v": 106
    },
    {
      "midi": 64,
      "hit": false,
      "t": 280389.4464427054,
      "d": 180.28847656247672,
      "v": 105
    },
    {
      "midi": 86,
      "hit": false,
      "t": 280389.4464427054,
      "d": 180.28847656247672,
      "v": 105
    },
    {
      "midi": 62,
      "hit": false,
      "t": 280615.407999997,
      "d": 180.28847656247672,
      "v": 118
    },
    {
      "midi": 76,
      "hit": false,
      "t": 280615.407999997,
      "d": 180.28847656247672,
      "v": 118
    },
    {
      "midi": 81,
      "hit": false,
      "t": 280615.407999997,
      "d": 180.28847656247672,
      "v": 118
    },
    {
      "midi": 86,
      "hit": false,
      "t": 280615.407999997,
      "d": 180.28847656247672,
      "v": 118
    },
    {
      "midi": 93,
      "hit": false,
      "t": 280615.407999997,
      "d": 180.28847656247672,
      "v": 118
    },
    {
      "midi": 61,
      "hit": false,
      "t": 280615.4079999971,
      "d": 86.53846875001909,
      "v": 78
    },
    {
      "midi": 64,
      "hit": false,
      "t": 280615.4079999971,
      "d": 86.53846875001909,
      "v": 74
    },
    {
      "midi": 69,
      "hit": false,
      "t": 280615.4079999971,
      "d": 86.53846875001909,
      "v": 74
    },
    {
      "midi": 64,
      "hit": false,
      "t": 280846.177249997,
      "d": 180.28847656247672,
      "v": 103
    },
    {
      "midi": 69,
      "hit": false,
      "t": 281069.73496093444,
      "d": 180.28847656247672,
      "v": 109
    },
    {
      "midi": 81,
      "hit": false,
      "t": 281069.73496093444,
      "d": 180.28847656247672,
      "v": 109
    },
    {
      "midi": 61,
      "hit": false,
      "t": 281069.7349609346,
      "d": 86.53846875001909,
      "v": 77
    },
    {
      "midi": 64,
      "hit": false,
      "t": 281069.7349609346,
      "d": 86.53846875001909,
      "v": 77
    },
    {
      "midi": 69,
      "hit": false,
      "t": 281069.7349609346,
      "d": 86.53846875001909,
      "v": 77
    },
    {
      "midi": 76,
      "hit": false,
      "t": 281302.90805728856,
      "d": 180.28847656247672,
      "v": 103
    },
    {
      "midi": 86,
      "hit": false,
      "t": 281302.90805728856,
      "d": 180.28847656247672,
      "v": 103
    },
    {
      "midi": 93,
      "hit": false,
      "t": 281302.90805728856,
      "d": 180.28847656247672,
      "v": 103
    },
    {
      "midi": 61,
      "hit": false,
      "t": 281302.9080572888,
      "d": 86.53846875001909,
      "v": 75
    },
    {
      "midi": 64,
      "hit": false,
      "t": 281302.9080572888,
      "d": 86.53846875001909,
      "v": 69
    },
    {
      "midi": 69,
      "hit": false,
      "t": 281302.9080572888,
      "d": 86.53846875001909,
      "v": 78
    },
    {
      "midi": 61,
      "hit": false,
      "t": 281536.08115364297,
      "d": 86.53846875001909,
      "v": 76
    },
    {
      "midi": 64,
      "hit": false,
      "t": 281536.08115364297,
      "d": 86.53846875001909,
      "v": 76
    },
    {
      "midi": 69,
      "hit": false,
      "t": 281536.08115364297,
      "d": 86.53846875001909,
      "v": 76
    },
    {
      "midi": 69,
      "hit": false,
      "t": 281769.25424999685,
      "d": 180.28847656247672,
      "v": 100
    },
    {
      "midi": 76,
      "hit": false,
      "t": 281769.25424999685,
      "d": 180.28847656247672,
      "v": 100
    },
    {
      "midi": 81,
      "hit": false,
      "t": 281769.25424999685,
      "d": 180.28847656247672,
      "v": 100
    },
    {
      "midi": 93,
      "hit": false,
      "t": 281995.2158072885,
      "d": 180.28847656247672,
      "v": 107
    },
    {
      "midi": 61,
      "hit": false,
      "t": 281995.2158072888,
      "d": 86.53846875001909,
      "v": 78
    },
    {
      "midi": 64,
      "hit": false,
      "t": 281995.2158072888,
      "d": 86.53846875001909,
      "v": 78
    },
    {
      "midi": 69,
      "hit": false,
      "t": 281995.2158072888,
      "d": 86.53846875001909,
      "v": 73
    },
    {
      "midi": 76,
      "hit": false,
      "t": 282228.3889036426,
      "d": 180.28847656247672,
      "v": 113
    },
    {
      "midi": 86,
      "hit": false,
      "t": 282228.3889036426,
      "d": 180.28847656247672,
      "v": 113
    },
    {
      "midi": 69,
      "hit": false,
      "t": 282459.15815364255,
      "d": 180.28847656247672,
      "v": 116
    },
    {
      "midi": 81,
      "hit": false,
      "t": 282459.15815364255,
      "d": 180.28847656247672,
      "v": 116
    },
    {
      "midi": 86,
      "hit": false,
      "t": 282692.33124999667,
      "d": 180.28847656247672,
      "v": 103
    },
    {
      "midi": 93,
      "hit": false,
      "t": 282692.33124999667,
      "d": 180.28847656247672,
      "v": 103
    },
    {
      "midi": 61,
      "hit": false,
      "t": 282918.2928072888,
      "d": 86.53846875001909,
      "v": 79
    },
    {
      "midi": 64,
      "hit": false,
      "t": 282918.2928072888,
      "d": 86.53846875001909,
      "v": 72
    },
    {
      "midi": 69,
      "hit": false,
      "t": 282918.2928072888,
      "d": 86.53846875001909,
      "v": 69
    },
    {
      "midi": 69,
      "hit": false,
      "t": 283151.4659036425,
      "d": 180.28847656247672,
      "v": 108
    },
    {
      "midi": 76,
      "hit": false,
      "t": 283151.4659036425,
      "d": 180.28847656247672,
      "v": 108
    },
    {
      "midi": 81,
      "hit": false,
      "t": 283151.4659036425,
      "d": 180.28847656247672,
      "v": 108
    },
    {
      "midi": 86,
      "hit": false,
      "t": 283151.4659036425,
      "d": 180.28847656247672,
      "v": 108
    },
    {
      "midi": 93,
      "hit": false,
      "t": 283384.6389999966,
      "d": 180.28847656247672,
      "v": 113
    },
    {
      "midi": 61,
      "hit": false,
      "t": 283384.6389999972,
      "d": 86.53846875001909,
      "v": 77
    },
    {
      "midi": 64,
      "hit": false,
      "t": 283384.6389999972,
      "d": 86.53846875001909,
      "v": 77
    },
    {
      "midi": 69,
      "hit": false,
      "t": 283384.6389999972,
      "d": 86.53846875001909,
      "v": 77
    },
    {
      "midi": 76,
      "hit": false,
      "t": 283615.40824999654,
      "d": 180.28847656247672,
      "v": 103
    },
    {
      "midi": 86,
      "hit": false,
      "t": 283615.40824999654,
      "d": 180.28847656247672,
      "v": 103
    },
    {
      "midi": 61,
      "hit": false,
      "t": 283615.4082499972,
      "d": 86.53846875001909,
      "v": 69
    },
    {
      "midi": 64,
      "hit": false,
      "t": 283615.4082499972,
      "d": 86.53846875001909,
      "v": 78
    },
    {
      "midi": 69,
      "hit": false,
      "t": 283615.4082499972,
      "d": 86.53846875001909,
      "v": 74
    },
    {
      "midi": 69,
      "hit": false,
      "t": 283846.1774999965,
      "d": 180.28847656247672,
      "v": 107
    },
    {
      "midi": 81,
      "hit": false,
      "t": 283846.1774999965,
      "d": 180.28847656247672,
      "v": 107
    },
    {
      "midi": 93,
      "hit": false,
      "t": 283846.1774999965,
      "d": 180.28847656247672,
      "v": 107
    },
    {
      "midi": 61,
      "hit": false,
      "t": 283846.1774999972,
      "d": 86.53846875001909,
      "v": 75
    },
    {
      "midi": 64,
      "hit": false,
      "t": 283846.1774999972,
      "d": 86.53846875001909,
      "v": 69
    },
    {
      "midi": 69,
      "hit": false,
      "t": 283846.1774999972,
      "d": 86.53846875001909,
      "v": 78
    },
    {
      "midi": 86,
      "hit": false,
      "t": 284076.94674999645,
      "d": 180.28847656247672,
      "v": 108
    },
    {
      "midi": 57,
      "hit": false,
      "t": 284302.9083072889,
      "d": 86.53846875001909,
      "v": 72
    },
    {
      "midi": 62,
      "hit": false,
      "t": 284302.9083072889,
      "d": 86.53846875001909,
      "v": 78
    },
    {
      "midi": 66,
      "hit": false,
      "t": 284302.9083072889,
      "d": 86.53846875001909,
      "v": 74
    },
    {
      "midi": 57,
      "hit": false,
      "t": 284538.48524999723,
      "d": 86.53846875001909,
      "v": 73
    },
    {
      "midi": 62,
      "hit": false,
      "t": 284538.48524999723,
      "d": 86.53846875001909,
      "v": 73
    },
    {
      "midi": 66,
      "hit": false,
      "t": 284538.48524999723,
      "d": 86.53846875001909,
      "v": 73
    },
    {
      "midi": 57,
      "hit": false,
      "t": 284769.25449999725,
      "d": 86.53846875001909,
      "v": 77
    },
    {
      "midi": 62,
      "hit": false,
      "t": 284769.25449999725,
      "d": 86.53846875001909,
      "v": 77
    },
    {
      "midi": 66,
      "hit": false,
      "t": 284769.25449999725,
      "d": 86.53846875001909,
      "v": 77
    },
    {
      "midi": 57,
      "hit": false,
      "t": 284997.6199036431,
      "d": 86.53846875001909,
      "v": 79
    },
    {
      "midi": 62,
      "hit": false,
      "t": 284997.6199036431,
      "d": 86.53846875001909,
      "v": 71
    },
    {
      "midi": 66,
      "hit": false,
      "t": 284997.6199036431,
      "d": 86.53846875001909,
      "v": 74
    },
    {
      "midi": 57,
      "hit": false,
      "t": 285230.79299999727,
      "d": 86.53846875001909,
      "v": 86
    },
    {
      "midi": 62,
      "hit": false,
      "t": 285230.79299999727,
      "d": 86.53846875001909,
      "v": 86
    },
    {
      "midi": 66,
      "hit": false,
      "t": 285230.79299999727,
      "d": 86.53846875001909,
      "v": 86
    },
    {
      "midi": 57,
      "hit": false,
      "t": 285463.96609635145,
      "d": 86.53846875001909,
      "v": 71
    },
    {
      "midi": 62,
      "hit": false,
      "t": 285463.96609635145,
      "d": 86.53846875001909,
      "v": 71
    },
    {
      "midi": 66,
      "hit": false,
      "t": 285463.96609635145,
      "d": 86.53846875001909,
      "v": 71
    },
    {
      "midi": 57,
      "hit": false,
      "t": 285692.3314999973,
      "d": 86.53846875001909,
      "v": 73
    },
    {
      "midi": 62,
      "hit": false,
      "t": 285692.3314999973,
      "d": 86.53846875001909,
      "v": 77
    },
    {
      "midi": 66,
      "hit": false,
      "t": 285692.3314999973,
      "d": 86.53846875001909,
      "v": 76
    },
    {
      "midi": 57,
      "hit": false,
      "t": 285927.90844270564,
      "d": 86.53846875001909,
      "v": 85
    },
    {
      "midi": 62,
      "hit": false,
      "t": 285927.90844270564,
      "d": 86.53846875001909,
      "v": 85
    },
    {
      "midi": 66,
      "hit": false,
      "t": 285927.90844270564,
      "d": 86.53846875001909,
      "v": 85
    },
    {
      "midi": 57,
      "hit": false,
      "t": 286153.8699999973,
      "d": 86.53846875001909,
      "v": 84
    },
    {
      "midi": 62,
      "hit": false,
      "t": 286153.8699999973,
      "d": 86.53846875001909,
      "v": 84
    },
    {
      "midi": 66,
      "hit": false,
      "t": 286153.8699999973,
      "d": 86.53846875001909,
      "v": 84
    },
    {
      "midi": 57,
      "hit": false,
      "t": 286387.0430963515,
      "d": 86.53846875001909,
      "v": 72
    },
    {
      "midi": 62,
      "hit": false,
      "t": 286387.0430963515,
      "d": 86.53846875001909,
      "v": 72
    },
    {
      "midi": 66,
      "hit": false,
      "t": 286387.0430963515,
      "d": 86.53846875001909,
      "v": 72
    },
    {
      "midi": 57,
      "hit": false,
      "t": 286613.0046536432,
      "d": 86.53846875001909,
      "v": 80
    },
    {
      "midi": 62,
      "hit": false,
      "t": 286613.0046536432,
      "d": 86.53846875001909,
      "v": 80
    },
    {
      "midi": 66,
      "hit": false,
      "t": 286613.0046536432,
      "d": 86.53846875001909,
      "v": 80
    },
    {
      "midi": 57,
      "hit": false,
      "t": 286843.7739036432,
      "d": 86.53846875001909,
      "v": 76
    },
    {
      "midi": 62,
      "hit": false,
      "t": 286843.7739036432,
      "d": 86.53846875001909,
      "v": 76
    },
    {
      "midi": 66,
      "hit": false,
      "t": 286843.7739036432,
      "d": 86.53846875001909,
      "v": 76
    },
    {
      "midi": 57,
      "hit": false,
      "t": 287076.94699999737,
      "d": 86.53846875001909,
      "v": 89
    },
    {
      "midi": 62,
      "hit": false,
      "t": 287076.94699999737,
      "d": 86.53846875001909,
      "v": 89
    },
    {
      "midi": 66,
      "hit": false,
      "t": 287076.94699999737,
      "d": 86.53846875001909,
      "v": 89
    },
    {
      "midi": 57,
      "hit": false,
      "t": 287310.12009635154,
      "d": 86.53846875001909,
      "v": 75
    },
    {
      "midi": 62,
      "hit": false,
      "t": 287310.12009635154,
      "d": 86.53846875001909,
      "v": 75
    },
    {
      "midi": 66,
      "hit": false,
      "t": 287310.12009635154,
      "d": 86.53846875001909,
      "v": 75
    },
    {
      "midi": 57,
      "hit": false,
      "t": 287536.0816536432,
      "d": 86.53846875001909,
      "v": 77
    },
    {
      "midi": 62,
      "hit": false,
      "t": 287536.0816536432,
      "d": 86.53846875001909,
      "v": 77
    },
    {
      "midi": 66,
      "hit": false,
      "t": 287536.0816536432,
      "d": 86.53846875001909,
      "v": 77
    },
    {
      "midi": 57,
      "hit": false,
      "t": 287774.06244270573,
      "d": 86.53846875001909,
      "v": 76
    },
    {
      "midi": 62,
      "hit": false,
      "t": 287774.06244270573,
      "d": 86.53846875001909,
      "v": 76
    },
    {
      "midi": 66,
      "hit": false,
      "t": 287774.06244270573,
      "d": 86.53846875001909,
      "v": 76
    },
    {
      "midi": 59,
      "hit": false,
      "t": 288000.0239999974,
      "d": 86.53846875001909,
      "v": 92
    },
    {
      "midi": 62,
      "hit": false,
      "t": 288000.0239999974,
      "d": 86.53846875001909,
      "v": 85
    },
    {
      "midi": 64,
      "hit": false,
      "t": 288000.0239999974,
      "d": 86.53846875001909,
      "v": 89
    },
    {
      "midi": 59,
      "hit": false,
      "t": 288230.7932499974,
      "d": 86.53846875001909,
      "v": 74
    },
    {
      "midi": 62,
      "hit": false,
      "t": 288230.7932499974,
      "d": 86.53846875001909,
      "v": 74
    },
    {
      "midi": 64,
      "hit": false,
      "t": 288230.7932499974,
      "d": 86.53846875001909,
      "v": 74
    },
    {
      "midi": 59,
      "hit": false,
      "t": 288454.35096093494,
      "d": 86.53846875001909,
      "v": 78
    },
    {
      "midi": 62,
      "hit": false,
      "t": 288454.35096093494,
      "d": 86.53846875001909,
      "v": 78
    },
    {
      "midi": 64,
      "hit": false,
      "t": 288454.35096093494,
      "d": 86.53846875001909,
      "v": 78
    },
    {
      "midi": 59,
      "hit": false,
      "t": 288687.5240572891,
      "d": 86.53846875001909,
      "v": 76
    },
    {
      "midi": 62,
      "hit": false,
      "t": 288687.5240572891,
      "d": 86.53846875001909,
      "v": 76
    },
    {
      "midi": 64,
      "hit": false,
      "t": 288687.5240572891,
      "d": 86.53846875001909,
      "v": 77
    },
    {
      "midi": 59,
      "hit": false,
      "t": 288920.6971536433,
      "d": 86.53846875001909,
      "v": 86
    },
    {
      "midi": 62,
      "hit": false,
      "t": 288920.6971536433,
      "d": 86.53846875001909,
      "v": 86
    },
    {
      "midi": 64,
      "hit": false,
      "t": 288920.6971536433,
      "d": 86.53846875001909,
      "v": 86
    },
    {
      "midi": 59,
      "hit": false,
      "t": 289153.8702499975,
      "d": 86.53846875001909,
      "v": 72
    },
    {
      "midi": 62,
      "hit": false,
      "t": 289153.8702499975,
      "d": 86.53846875001909,
      "v": 72
    },
    {
      "midi": 64,
      "hit": false,
      "t": 289153.8702499975,
      "d": 86.53846875001909,
      "v": 72
    },
    {
      "midi": 59,
      "hit": false,
      "t": 289379.83180728916,
      "d": 86.53846875001909,
      "v": 77
    },
    {
      "midi": 62,
      "hit": false,
      "t": 289379.83180728916,
      "d": 86.53846875001909,
      "v": 77
    },
    {
      "midi": 64,
      "hit": false,
      "t": 289379.83180728916,
      "d": 86.53846875001909,
      "v": 77
    },
    {
      "midi": 59,
      "hit": false,
      "t": 289613.00490364333,
      "d": 86.53846875001909,
      "v": 85
    },
    {
      "midi": 62,
      "hit": false,
      "t": 289613.00490364333,
      "d": 86.53846875001909,
      "v": 85
    },
    {
      "midi": 64,
      "hit": false,
      "t": 289613.00490364333,
      "d": 86.53846875001909,
      "v": 85
    },
    {
      "midi": 59,
      "hit": false,
      "t": 289843.77415364335,
      "d": 86.53846875001909,
      "v": 86
    },
    {
      "midi": 62,
      "hit": false,
      "t": 289843.77415364335,
      "d": 86.53846875001909,
      "v": 86
    },
    {
      "midi": 64,
      "hit": false,
      "t": 289843.77415364335,
      "d": 86.53846875001909,
      "v": 86
    },
    {
      "midi": 59,
      "hit": false,
      "t": 290076.9472499975,
      "d": 86.53846875001909,
      "v": 74
    },
    {
      "midi": 62,
      "hit": false,
      "t": 290076.9472499975,
      "d": 86.53846875001909,
      "v": 76
    },
    {
      "midi": 64,
      "hit": false,
      "t": 290076.9472499975,
      "d": 86.53846875001909,
      "v": 69
    },
    {
      "midi": 59,
      "hit": false,
      "t": 290302.9088072892,
      "d": 86.53846875001909,
      "v": 77
    },
    {
      "midi": 62,
      "hit": false,
      "t": 290302.9088072892,
      "d": 86.53846875001909,
      "v": 77
    },
    {
      "midi": 64,
      "hit": false,
      "t": 290302.9088072892,
      "d": 86.53846875001909,
      "v": 77
    },
    {
      "midi": 59,
      "hit": false,
      "t": 290536.0819036434,
      "d": 86.53846875001909,
      "v": 78
    },
    {
      "midi": 62,
      "hit": false,
      "t": 290536.0819036434,
      "d": 86.53846875001909,
      "v": 80
    },
    {
      "midi": 64,
      "hit": false,
      "t": 290536.0819036434,
      "d": 86.53846875001909,
      "v": 73
    },
    {
      "midi": 59,
      "hit": false,
      "t": 290769.25499999756,
      "d": 86.53846875001909,
      "v": 85
    },
    {
      "midi": 62,
      "hit": false,
      "t": 290769.25499999756,
      "d": 86.53846875001909,
      "v": 85
    },
    {
      "midi": 64,
      "hit": false,
      "t": 290769.25499999756,
      "d": 86.53846875001909,
      "v": 85
    },
    {
      "midi": 59,
      "hit": false,
      "t": 291000.0242499976,
      "d": 86.53846875001909,
      "v": 76
    },
    {
      "midi": 62,
      "hit": false,
      "t": 291000.0242499976,
      "d": 86.53846875001909,
      "v": 76
    },
    {
      "midi": 64,
      "hit": false,
      "t": 291000.0242499976,
      "d": 86.53846875001909,
      "v": 76
    },
    {
      "midi": 59,
      "hit": false,
      "t": 291230.7934999976,
      "d": 86.53846875001909,
      "v": 76
    },
    {
      "midi": 62,
      "hit": false,
      "t": 291230.7934999976,
      "d": 86.53846875001909,
      "v": 76
    },
    {
      "midi": 64,
      "hit": false,
      "t": 291230.7934999976,
      "d": 86.53846875001909,
      "v": 76
    },
    {
      "midi": 59,
      "hit": false,
      "t": 291461.5627499976,
      "d": 86.53846875001909,
      "v": 78
    },
    {
      "midi": 62,
      "hit": false,
      "t": 291461.5627499976,
      "d": 86.53846875001909,
      "v": 78
    },
    {
      "midi": 64,
      "hit": false,
      "t": 291461.5627499976,
      "d": 86.53846875001909,
      "v": 78
    },
    {
      "midi": 59,
      "hit": false,
      "t": 291687.5243072893,
      "d": 86.53846875001909,
      "v": 91
    },
    {
      "midi": 62,
      "hit": false,
      "t": 291687.5243072893,
      "d": 86.53846875001909,
      "v": 91
    },
    {
      "midi": 66,
      "hit": false,
      "t": 291687.5243072893,
      "d": 86.53846875001909,
      "v": 91
    },
    {
      "midi": 59,
      "hit": false,
      "t": 291923.1012499976,
      "d": 86.53846875001909,
      "v": 73
    },
    {
      "midi": 62,
      "hit": false,
      "t": 291923.1012499976,
      "d": 86.53846875001909,
      "v": 73
    },
    {
      "midi": 66,
      "hit": false,
      "t": 291923.1012499976,
      "d": 86.53846875001909,
      "v": 73
    },
    {
      "midi": 59,
      "hit": false,
      "t": 292153.87049999763,
      "d": 86.53846875001909,
      "v": 77
    },
    {
      "midi": 62,
      "hit": false,
      "t": 292153.87049999763,
      "d": 86.53846875001909,
      "v": 77
    },
    {
      "midi": 66,
      "hit": false,
      "t": 292153.87049999763,
      "d": 86.53846875001909,
      "v": 77
    },
    {
      "midi": 59,
      "hit": false,
      "t": 292382.2359036435,
      "d": 86.53846875001909,
      "v": 71
    },
    {
      "midi": 62,
      "hit": false,
      "t": 292382.2359036435,
      "d": 86.53846875001909,
      "v": 71
    },
    {
      "midi": 66,
      "hit": false,
      "t": 292382.2359036435,
      "d": 86.53846875001909,
      "v": 71
    },
    {
      "midi": 59,
      "hit": false,
      "t": 292615.40899999766,
      "d": 86.53846875001909,
      "v": 86
    },
    {
      "midi": 62,
      "hit": false,
      "t": 292615.40899999766,
      "d": 86.53846875001909,
      "v": 86
    },
    {
      "midi": 66,
      "hit": false,
      "t": 292615.40899999766,
      "d": 86.53846875001909,
      "v": 86
    },
    {
      "midi": 59,
      "hit": false,
      "t": 292848.58209635183,
      "d": 86.53846875001909,
      "v": 72
    },
    {
      "midi": 62,
      "hit": false,
      "t": 292848.58209635183,
      "d": 86.53846875001909,
      "v": 72
    },
    {
      "midi": 66,
      "hit": false,
      "t": 292848.58209635183,
      "d": 86.53846875001909,
      "v": 72
    },
    {
      "midi": 59,
      "hit": false,
      "t": 293076.9474999977,
      "d": 86.53846875001909,
      "v": 80
    },
    {
      "midi": 62,
      "hit": false,
      "t": 293076.9474999977,
      "d": 86.53846875001909,
      "v": 73
    },
    {
      "midi": 66,
      "hit": false,
      "t": 293076.9474999977,
      "d": 86.53846875001909,
      "v": 80
    },
    {
      "midi": 59,
      "hit": false,
      "t": 293312.524442706,
      "d": 86.53846875001909,
      "v": 84
    },
    {
      "midi": 62,
      "hit": false,
      "t": 293312.524442706,
      "d": 86.53846875001909,
      "v": 84
    },
    {
      "midi": 66,
      "hit": false,
      "t": 293312.524442706,
      "d": 86.53846875001909,
      "v": 84
    },
    {
      "midi": 59,
      "hit": false,
      "t": 293538.4859999977,
      "d": 86.53846875001909,
      "v": 86
    },
    {
      "midi": 62,
      "hit": false,
      "t": 293538.4859999977,
      "d": 86.53846875001909,
      "v": 86
    },
    {
      "midi": 66,
      "hit": false,
      "t": 293538.4859999977,
      "d": 86.53846875001909,
      "v": 86
    },
    {
      "midi": 59,
      "hit": false,
      "t": 293771.6590963519,
      "d": 86.53846875001909,
      "v": 72
    },
    {
      "midi": 62,
      "hit": false,
      "t": 293771.6590963519,
      "d": 86.53846875001909,
      "v": 72
    },
    {
      "midi": 66,
      "hit": false,
      "t": 293771.6590963519,
      "d": 86.53846875001909,
      "v": 72
    },
    {
      "midi": 59,
      "hit": false,
      "t": 293997.62065364356,
      "d": 86.53846875001909,
      "v": 78
    },
    {
      "midi": 62,
      "hit": false,
      "t": 293997.62065364356,
      "d": 86.53846875001909,
      "v": 78
    },
    {
      "midi": 66,
      "hit": false,
      "t": 293997.62065364356,
      "d": 86.53846875001909,
      "v": 78
    },
    {
      "midi": 59,
      "hit": false,
      "t": 294228.3899036436,
      "d": 86.53846875001909,
      "v": 80
    },
    {
      "midi": 62,
      "hit": false,
      "t": 294228.3899036436,
      "d": 86.53846875001909,
      "v": 72
    },
    {
      "midi": 66,
      "hit": false,
      "t": 294228.3899036436,
      "d": 86.53846875001909,
      "v": 80
    },
    {
      "midi": 59,
      "hit": false,
      "t": 294461.56299999775,
      "d": 86.53846875001909,
      "v": 88
    },
    {
      "midi": 62,
      "hit": false,
      "t": 294461.56299999775,
      "d": 86.53846875001909,
      "v": 88
    },
    {
      "midi": 66,
      "hit": false,
      "t": 294461.56299999775,
      "d": 86.53846875001909,
      "v": 88
    },
    {
      "midi": 59,
      "hit": false,
      "t": 294694.73609635193,
      "d": 86.53846875001909,
      "v": 73
    },
    {
      "midi": 62,
      "hit": false,
      "t": 294694.73609635193,
      "d": 86.53846875001909,
      "v": 73
    },
    {
      "midi": 66,
      "hit": false,
      "t": 294694.73609635193,
      "d": 86.53846875001909,
      "v": 73
    },
    {
      "midi": 59,
      "hit": false,
      "t": 294920.6976536436,
      "d": 86.53846875001909,
      "v": 77
    },
    {
      "midi": 62,
      "hit": false,
      "t": 294920.6976536436,
      "d": 86.53846875001909,
      "v": 77
    },
    {
      "midi": 66,
      "hit": false,
      "t": 294920.6976536436,
      "d": 86.53846875001909,
      "v": 77
    },
    {
      "midi": 59,
      "hit": false,
      "t": 295158.6784427061,
      "d": 86.53846875001909,
      "v": 75
    },
    {
      "midi": 62,
      "hit": false,
      "t": 295158.6784427061,
      "d": 86.53846875001909,
      "v": 75
    },
    {
      "midi": 66,
      "hit": false,
      "t": 295158.6784427061,
      "d": 86.53846875001909,
      "v": 75
    },
    {
      "midi": 61,
      "hit": false,
      "t": 295384.6399999978,
      "d": 86.53846875001909,
      "v": 91
    },
    {
      "midi": 64,
      "hit": false,
      "t": 295384.6399999978,
      "d": 86.53846875001909,
      "v": 91
    },
    {
      "midi": 66,
      "hit": false,
      "t": 295384.6399999978,
      "d": 86.53846875001909,
      "v": 91
    },
    {
      "midi": 69,
      "hit": false,
      "t": 295384.6399999978,
      "d": 86.53846875001909,
      "v": 91
    },
    {
      "midi": 61,
      "hit": false,
      "t": 295615.4092499978,
      "d": 86.53846875001909,
      "v": 74
    },
    {
      "midi": 64,
      "hit": false,
      "t": 295615.4092499978,
      "d": 86.53846875001909,
      "v": 74
    },
    {
      "midi": 66,
      "hit": false,
      "t": 295615.4092499978,
      "d": 86.53846875001909,
      "v": 74
    },
    {
      "midi": 69,
      "hit": false,
      "t": 295615.4092499978,
      "d": 86.53846875001909,
      "v": 74
    },
    {
      "midi": 61,
      "hit": false,
      "t": 295838.96696093533,
      "d": 86.53846875001909,
      "v": 79
    },
    {
      "midi": 64,
      "hit": false,
      "t": 295838.96696093533,
      "d": 86.53846875001909,
      "v": 79
    },
    {
      "midi": 66,
      "hit": false,
      "t": 295838.96696093533,
      "d": 86.53846875001909,
      "v": 79
    },
    {
      "midi": 69,
      "hit": false,
      "t": 295838.96696093533,
      "d": 86.53846875001909,
      "v": 79
    },
    {
      "midi": 61,
      "hit": false,
      "t": 296072.1400572895,
      "d": 86.53846875001909,
      "v": 76
    },
    {
      "midi": 64,
      "hit": false,
      "t": 296072.1400572895,
      "d": 86.53846875001909,
      "v": 76
    },
    {
      "midi": 66,
      "hit": false,
      "t": 296072.1400572895,
      "d": 86.53846875001909,
      "v": 76
    },
    {
      "midi": 69,
      "hit": false,
      "t": 296072.1400572895,
      "d": 86.53846875001909,
      "v": 76
    },
    {
      "midi": 61,
      "hit": false,
      "t": 296305.3131536437,
      "d": 86.53846875001909,
      "v": 87
    },
    {
      "midi": 64,
      "hit": false,
      "t": 296305.3131536437,
      "d": 86.53846875001909,
      "v": 87
    },
    {
      "midi": 66,
      "hit": false,
      "t": 296305.3131536437,
      "d": 86.53846875001909,
      "v": 87
    },
    {
      "midi": 69,
      "hit": false,
      "t": 296305.3131536437,
      "d": 86.53846875001909,
      "v": 87
    },
    {
      "midi": 61,
      "hit": false,
      "t": 296538.48624999786,
      "d": 86.53846875001909,
      "v": 72
    },
    {
      "midi": 64,
      "hit": false,
      "t": 296538.48624999786,
      "d": 86.53846875001909,
      "v": 72
    },
    {
      "midi": 66,
      "hit": false,
      "t": 296538.48624999786,
      "d": 86.53846875001909,
      "v": 72
    },
    {
      "midi": 69,
      "hit": false,
      "t": 296538.48624999786,
      "d": 86.53846875001909,
      "v": 72
    },
    {
      "midi": 61,
      "hit": false,
      "t": 296764.44780728954,
      "d": 86.53846875001909,
      "v": 75
    },
    {
      "midi": 64,
      "hit": false,
      "t": 296764.44780728954,
      "d": 86.53846875001909,
      "v": 75
    },
    {
      "midi": 66,
      "hit": false,
      "t": 296764.44780728954,
      "d": 86.53846875001909,
      "v": 75
    },
    {
      "midi": 69,
      "hit": false,
      "t": 296764.44780728954,
      "d": 86.53846875001909,
      "v": 75
    },
    {
      "midi": 61,
      "hit": false,
      "t": 296997.6209036437,
      "d": 86.53846875001909,
      "v": 84
    },
    {
      "midi": 64,
      "hit": false,
      "t": 296997.6209036437,
      "d": 86.53846875001909,
      "v": 84
    },
    {
      "midi": 66,
      "hit": false,
      "t": 296997.6209036437,
      "d": 86.53846875001909,
      "v": 84
    },
    {
      "midi": 69,
      "hit": false,
      "t": 296997.6209036437,
      "d": 86.53846875001909,
      "v": 84
    },
    {
      "midi": 61,
      "hit": false,
      "t": 297228.39015364373,
      "d": 86.53846875001909,
      "v": 87
    },
    {
      "midi": 64,
      "hit": false,
      "t": 297228.39015364373,
      "d": 86.53846875001909,
      "v": 87
    },
    {
      "midi": 66,
      "hit": false,
      "t": 297228.39015364373,
      "d": 86.53846875001909,
      "v": 87
    },
    {
      "midi": 69,
      "hit": false,
      "t": 297228.39015364373,
      "d": 86.53846875001909,
      "v": 87
    },
    {
      "midi": 61,
      "hit": false,
      "t": 297461.5632499979,
      "d": 86.53846875001909,
      "v": 73
    },
    {
      "midi": 64,
      "hit": false,
      "t": 297461.5632499979,
      "d": 86.53846875001909,
      "v": 73
    },
    {
      "midi": 66,
      "hit": false,
      "t": 297461.5632499979,
      "d": 86.53846875001909,
      "v": 73
    },
    {
      "midi": 69,
      "hit": false,
      "t": 297461.5632499979,
      "d": 86.53846875001909,
      "v": 73
    },
    {
      "midi": 61,
      "hit": false,
      "t": 297687.5248072896,
      "d": 86.53846875001909,
      "v": 81
    },
    {
      "midi": 64,
      "hit": false,
      "t": 297687.5248072896,
      "d": 86.53846875001909,
      "v": 81
    },
    {
      "midi": 66,
      "hit": false,
      "t": 297687.5248072896,
      "d": 86.53846875001909,
      "v": 81
    },
    {
      "midi": 69,
      "hit": false,
      "t": 297687.5248072896,
      "d": 86.53846875001909,
      "v": 74
    },
    {
      "midi": 61,
      "hit": false,
      "t": 297920.69790364377,
      "d": 86.53846875001909,
      "v": 76
    },
    {
      "midi": 64,
      "hit": false,
      "t": 297920.69790364377,
      "d": 86.53846875001909,
      "v": 76
    },
    {
      "midi": 66,
      "hit": false,
      "t": 297920.69790364377,
      "d": 86.53846875001909,
      "v": 76
    },
    {
      "midi": 69,
      "hit": false,
      "t": 297920.69790364377,
      "d": 86.53846875001909,
      "v": 76
    },
    {
      "midi": 61,
      "hit": false,
      "t": 298153.87099999795,
      "d": 86.53846875001909,
      "v": 84
    },
    {
      "midi": 64,
      "hit": false,
      "t": 298153.87099999795,
      "d": 86.53846875001909,
      "v": 84
    },
    {
      "midi": 66,
      "hit": false,
      "t": 298153.87099999795,
      "d": 86.53846875001909,
      "v": 84
    },
    {
      "midi": 69,
      "hit": false,
      "t": 298153.87099999795,
      "d": 86.53846875001909,
      "v": 84
    },
    {
      "midi": 61,
      "hit": false,
      "t": 298384.64024999796,
      "d": 86.53846875001909,
      "v": 75
    },
    {
      "midi": 64,
      "hit": false,
      "t": 298384.64024999796,
      "d": 86.53846875001909,
      "v": 75
    },
    {
      "midi": 66,
      "hit": false,
      "t": 298384.64024999796,
      "d": 86.53846875001909,
      "v": 75
    },
    {
      "midi": 69,
      "hit": false,
      "t": 298384.64024999796,
      "d": 86.53846875001909,
      "v": 75
    },
    {
      "midi": 61,
      "hit": false,
      "t": 298615.409499998,
      "d": 86.53846875001909,
      "v": 75
    },
    {
      "midi": 64,
      "hit": false,
      "t": 298615.409499998,
      "d": 86.53846875001909,
      "v": 75
    },
    {
      "midi": 66,
      "hit": false,
      "t": 298615.409499998,
      "d": 86.53846875001909,
      "v": 75
    },
    {
      "midi": 69,
      "hit": false,
      "t": 298615.409499998,
      "d": 86.53846875001909,
      "v": 75
    },
    {
      "midi": 61,
      "hit": false,
      "t": 298846.178749998,
      "d": 86.53846875001909,
      "v": 79
    },
    {
      "midi": 64,
      "hit": false,
      "t": 298846.178749998,
      "d": 86.53846875001909,
      "v": 79
    },
    {
      "midi": 66,
      "hit": false,
      "t": 298846.178749998,
      "d": 86.53846875001909,
      "v": 79
    },
    {
      "midi": 69,
      "hit": false,
      "t": 298846.178749998,
      "d": 86.53846875001909,
      "v": 79
    },
    {
      "midi": 59,
      "hit": false,
      "t": 299072.14030728966,
      "d": 86.53846875001909,
      "v": 91
    },
    {
      "midi": 62,
      "hit": false,
      "t": 299072.14030728966,
      "d": 86.53846875001909,
      "v": 91
    },
    {
      "midi": 69,
      "hit": false,
      "t": 299072.14030728966,
      "d": 86.53846875001909,
      "v": 91
    },
    {
      "midi": 59,
      "hit": false,
      "t": 299307.717249998,
      "d": 86.53846875001909,
      "v": 72
    },
    {
      "midi": 62,
      "hit": false,
      "t": 299307.717249998,
      "d": 86.53846875001909,
      "v": 72
    },
    {
      "midi": 69,
      "hit": false,
      "t": 299307.717249998,
      "d": 86.53846875001909,
      "v": 72
    },
    {
      "midi": 59,
      "hit": false,
      "t": 299538.486499998,
      "d": 86.53846875001909,
      "v": 76
    },
    {
      "midi": 62,
      "hit": false,
      "t": 299538.486499998,
      "d": 86.53846875001909,
      "v": 76
    },
    {
      "midi": 69,
      "hit": false,
      "t": 299538.486499998,
      "d": 86.53846875001909,
      "v": 76
    },
    {
      "midi": 59,
      "hit": false,
      "t": 299766.85190364387,
      "d": 86.53846875001909,
      "v": 74
    },
    {
      "midi": 62,
      "hit": false,
      "t": 299766.85190364387,
      "d": 86.53846875001909,
      "v": 74
    },
    {
      "midi": 69,
      "hit": false,
      "t": 299766.85190364387,
      "d": 86.53846875001909,
      "v": 74
    },
    {
      "midi": 59,
      "hit": false,
      "t": 300000.02499999804,
      "d": 86.53846875001909,
      "v": 89
    },
    {
      "midi": 62,
      "hit": false,
      "t": 300000.02499999804,
      "d": 86.53846875001909,
      "v": 89
    },
    {
      "midi": 69,
      "hit": false,
      "t": 300000.02499999804,
      "d": 86.53846875001909,
      "v": 89
    },
    {
      "midi": 59,
      "hit": false,
      "t": 300233.1980963522,
      "d": 86.53846875001909,
      "v": 71
    },
    {
      "midi": 62,
      "hit": false,
      "t": 300233.1980963522,
      "d": 86.53846875001909,
      "v": 71
    },
    {
      "midi": 69,
      "hit": false,
      "t": 300233.1980963522,
      "d": 86.53846875001909,
      "v": 71
    },
    {
      "midi": 59,
      "hit": false,
      "t": 300461.56349999807,
      "d": 86.53846875001909,
      "v": 79
    },
    {
      "midi": 62,
      "hit": false,
      "t": 300461.56349999807,
      "d": 86.53846875001909,
      "v": 79
    },
    {
      "midi": 69,
      "hit": false,
      "t": 300461.56349999807,
      "d": 86.53846875001909,
      "v": 79
    },
    {
      "midi": 59,
      "hit": false,
      "t": 300697.1404427064,
      "d": 86.53846875001909,
      "v": 85
    },
    {
      "midi": 62,
      "hit": false,
      "t": 300697.1404427064,
      "d": 86.53846875001909,
      "v": 85
    },
    {
      "midi": 69,
      "hit": false,
      "t": 300697.1404427064,
      "d": 86.53846875001909,
      "v": 85
    },
    {
      "midi": 59,
      "hit": false,
      "t": 300923.1019999981,
      "d": 86.53846875001909,
      "v": 83
    },
    {
      "midi": 62,
      "hit": false,
      "t": 300923.1019999981,
      "d": 86.53846875001909,
      "v": 83
    },
    {
      "midi": 67,
      "hit": false,
      "t": 300923.1019999981,
      "d": 86.53846875001909,
      "v": 83
    },
    {
      "midi": 59,
      "hit": false,
      "t": 301156.27509635227,
      "d": 86.53846875001909,
      "v": 74
    },
    {
      "midi": 62,
      "hit": false,
      "t": 301156.27509635227,
      "d": 86.53846875001909,
      "v": 74
    },
    {
      "midi": 67,
      "hit": false,
      "t": 301156.27509635227,
      "d": 86.53846875001909,
      "v": 74
    },
    {
      "midi": 59,
      "hit": false,
      "t": 301382.23665364395,
      "d": 86.53846875001909,
      "v": 77
    },
    {
      "midi": 62,
      "hit": false,
      "t": 301382.23665364395,
      "d": 86.53846875001909,
      "v": 77
    },
    {
      "midi": 67,
      "hit": false,
      "t": 301382.23665364395,
      "d": 86.53846875001909,
      "v": 77
    },
    {
      "midi": 59,
      "hit": false,
      "t": 301613.00590364396,
      "d": 86.53846875001909,
      "v": 76
    },
    {
      "midi": 62,
      "hit": false,
      "t": 301613.00590364396,
      "d": 86.53846875001909,
      "v": 76
    },
    {
      "midi": 67,
      "hit": false,
      "t": 301613.00590364396,
      "d": 86.53846875001909,
      "v": 76
    },
    {
      "midi": 59,
      "hit": false,
      "t": 301846.17899999814,
      "d": 86.53846875001909,
      "v": 89
    },
    {
      "midi": 62,
      "hit": false,
      "t": 301846.17899999814,
      "d": 86.53846875001909,
      "v": 89
    },
    {
      "midi": 67,
      "hit": false,
      "t": 301846.17899999814,
      "d": 86.53846875001909,
      "v": 89
    },
    {
      "midi": 59,
      "hit": false,
      "t": 302079.3520963523,
      "d": 86.53846875001909,
      "v": 74
    },
    {
      "midi": 62,
      "hit": false,
      "t": 302079.3520963523,
      "d": 86.53846875001909,
      "v": 74
    },
    {
      "midi": 67,
      "hit": false,
      "t": 302079.3520963523,
      "d": 86.53846875001909,
      "v": 74
    },
    {
      "midi": 59,
      "hit": false,
      "t": 302305.313653644,
      "d": 86.53846875001909,
      "v": 76
    },
    {
      "midi": 62,
      "hit": false,
      "t": 302305.313653644,
      "d": 86.53846875001909,
      "v": 76
    },
    {
      "midi": 67,
      "hit": false,
      "t": 302305.313653644,
      "d": 86.53846875001909,
      "v": 76
    },
    {
      "midi": 59,
      "hit": false,
      "t": 302543.2944427065,
      "d": 86.53846875001909,
      "v": 75
    },
    {
      "midi": 62,
      "hit": false,
      "t": 302543.2944427065,
      "d": 86.53846875001909,
      "v": 75
    },
    {
      "midi": 67,
      "hit": false,
      "t": 302543.2944427065,
      "d": 86.53846875001909,
      "v": 75
    },
    {
      "midi": 57,
      "hit": false,
      "t": 302769.2559999982,
      "d": 86.53846875001909,
      "v": 88
    },
    {
      "midi": 62,
      "hit": false,
      "t": 302769.2559999982,
      "d": 86.53846875001909,
      "v": 88
    },
    {
      "midi": 67,
      "hit": false,
      "t": 302769.2559999982,
      "d": 86.53846875001909,
      "v": 88
    },
    {
      "midi": 57,
      "hit": false,
      "t": 303000.0252499982,
      "d": 86.53846875001909,
      "v": 74
    },
    {
      "midi": 62,
      "hit": false,
      "t": 303000.0252499982,
      "d": 86.53846875001909,
      "v": 74
    },
    {
      "midi": 67,
      "hit": false,
      "t": 303000.0252499982,
      "d": 86.53846875001909,
      "v": 74
    },
    {
      "midi": 57,
      "hit": false,
      "t": 303223.5829609357,
      "d": 86.53846875001909,
      "v": 78
    },
    {
      "midi": 62,
      "hit": false,
      "t": 303223.5829609357,
      "d": 86.53846875001909,
      "v": 78
    },
    {
      "midi": 67,
      "hit": false,
      "t": 303223.5829609357,
      "d": 86.53846875001909,
      "v": 78
    },
    {
      "midi": 57,
      "hit": false,
      "t": 303456.7560572899,
      "d": 86.53846875001909,
      "v": 75
    },
    {
      "midi": 62,
      "hit": false,
      "t": 303456.7560572899,
      "d": 86.53846875001909,
      "v": 75
    },
    {
      "midi": 67,
      "hit": false,
      "t": 303456.7560572899,
      "d": 86.53846875001909,
      "v": 75
    },
    {
      "midi": 57,
      "hit": false,
      "t": 303689.9291536441,
      "d": 86.53846875001909,
      "v": 86
    },
    {
      "midi": 62,
      "hit": false,
      "t": 303689.9291536441,
      "d": 86.53846875001909,
      "v": 86
    },
    {
      "midi": 67,
      "hit": false,
      "t": 303689.9291536441,
      "d": 86.53846875001909,
      "v": 86
    },
    {
      "midi": 57,
      "hit": false,
      "t": 303923.10224999825,
      "d": 86.53846875001909,
      "v": 70
    },
    {
      "midi": 62,
      "hit": false,
      "t": 303923.10224999825,
      "d": 86.53846875001909,
      "v": 70
    },
    {
      "midi": 67,
      "hit": false,
      "t": 303923.10224999825,
      "d": 86.53846875001909,
      "v": 70
    },
    {
      "midi": 57,
      "hit": false,
      "t": 304149.06380728993,
      "d": 86.53846875001909,
      "v": 78
    },
    {
      "midi": 62,
      "hit": false,
      "t": 304149.06380728993,
      "d": 86.53846875001909,
      "v": 78
    },
    {
      "midi": 67,
      "hit": false,
      "t": 304149.06380728993,
      "d": 86.53846875001909,
      "v": 78
    },
    {
      "midi": 57,
      "hit": false,
      "t": 304382.2369036441,
      "d": 86.53846875001909,
      "v": 85
    },
    {
      "midi": 62,
      "hit": false,
      "t": 304382.2369036441,
      "d": 86.53846875001909,
      "v": 85
    },
    {
      "midi": 67,
      "hit": false,
      "t": 304382.2369036441,
      "d": 86.53846875001909,
      "v": 85
    },
    {
      "midi": 57,
      "hit": false,
      "t": 304613.0061536441,
      "d": 86.53846875001909,
      "v": 86
    },
    {
      "midi": 62,
      "hit": false,
      "t": 304613.0061536441,
      "d": 86.53846875001909,
      "v": 86
    },
    {
      "midi": 66,
      "hit": false,
      "t": 304613.0061536441,
      "d": 86.53846875001909,
      "v": 86
    },
    {
      "midi": 57,
      "hit": false,
      "t": 304846.1792499983,
      "d": 86.53846875001909,
      "v": 73
    },
    {
      "midi": 62,
      "hit": false,
      "t": 304846.1792499983,
      "d": 86.53846875001909,
      "v": 73
    },
    {
      "midi": 66,
      "hit": false,
      "t": 304846.1792499983,
      "d": 86.53846875001909,
      "v": 73
    },
    {
      "midi": 57,
      "hit": false,
      "t": 305072.14080729,
      "d": 86.53846875001909,
      "v": 79
    },
    {
      "midi": 62,
      "hit": false,
      "t": 305072.14080729,
      "d": 86.53846875001909,
      "v": 79
    },
    {
      "midi": 66,
      "hit": false,
      "t": 305072.14080729,
      "d": 86.53846875001909,
      "v": 79
    },
    {
      "midi": 57,
      "hit": false,
      "t": 305305.31390364416,
      "d": 86.53846875001909,
      "v": 76
    },
    {
      "midi": 62,
      "hit": false,
      "t": 305305.31390364416,
      "d": 86.53846875001909,
      "v": 76
    },
    {
      "midi": 66,
      "hit": false,
      "t": 305305.31390364416,
      "d": 86.53846875001909,
      "v": 76
    },
    {
      "midi": 57,
      "hit": false,
      "t": 305538.48699999833,
      "d": 86.53846875001909,
      "v": 84
    },
    {
      "midi": 62,
      "hit": false,
      "t": 305538.48699999833,
      "d": 86.53846875001909,
      "v": 84
    },
    {
      "midi": 66,
      "hit": false,
      "t": 305538.48699999833,
      "d": 86.53846875001909,
      "v": 84
    },
    {
      "midi": 57,
      "hit": false,
      "t": 305769.25624999835,
      "d": 86.53846875001909,
      "v": 75
    },
    {
      "midi": 62,
      "hit": false,
      "t": 305769.25624999835,
      "d": 86.53846875001909,
      "v": 75
    },
    {
      "midi": 66,
      "hit": false,
      "t": 305769.25624999835,
      "d": 86.53846875001909,
      "v": 75
    },
    {
      "midi": 57,
      "hit": false,
      "t": 306000.02549999836,
      "d": 86.53846875001909,
      "v": 76
    },
    {
      "midi": 62,
      "hit": false,
      "t": 306000.02549999836,
      "d": 86.53846875001909,
      "v": 76
    },
    {
      "midi": 66,
      "hit": false,
      "t": 306000.02549999836,
      "d": 86.53846875001909,
      "v": 76
    },
    {
      "midi": 57,
      "hit": false,
      "t": 306230.7947499984,
      "d": 86.53846875001909,
      "v": 79
    },
    {
      "midi": 62,
      "hit": false,
      "t": 306230.7947499984,
      "d": 86.53846875001909,
      "v": 79
    },
    {
      "midi": 66,
      "hit": false,
      "t": 306230.7947499984,
      "d": 86.53846875001909,
      "v": 79
    },
    {
      "midi": 59,
      "hit": false,
      "t": 306456.75630729005,
      "d": 86.53846875001909,
      "v": 88
    },
    {
      "midi": 62,
      "hit": false,
      "t": 306456.75630729005,
      "d": 86.53846875001909,
      "v": 88
    },
    {
      "midi": 64,
      "hit": false,
      "t": 306456.75630729005,
      "d": 86.53846875001909,
      "v": 88
    },
    {
      "midi": 67,
      "hit": false,
      "t": 306456.75630729005,
      "d": 86.53846875001909,
      "v": 88
    },
    {
      "midi": 59,
      "hit": false,
      "t": 306692.3332499984,
      "d": 86.53846875001909,
      "v": 73
    },
    {
      "midi": 62,
      "hit": false,
      "t": 306692.3332499984,
      "d": 86.53846875001909,
      "v": 73
    },
    {
      "midi": 64,
      "hit": false,
      "t": 306692.3332499984,
      "d": 86.53846875001909,
      "v": 73
    },
    {
      "midi": 67,
      "hit": false,
      "t": 306692.3332499984,
      "d": 86.53846875001909,
      "v": 73
    },
    {
      "midi": 59,
      "hit": false,
      "t": 306923.1024999984,
      "d": 86.53846875001909,
      "v": 75
    },
    {
      "midi": 62,
      "hit": false,
      "t": 306923.1024999984,
      "d": 86.53846875001909,
      "v": 75
    },
    {
      "midi": 64,
      "hit": false,
      "t": 306923.1024999984,
      "d": 86.53846875001909,
      "v": 75
    },
    {
      "midi": 67,
      "hit": false,
      "t": 306923.1024999984,
      "d": 86.53846875001909,
      "v": 75
    },
    {
      "midi": 59,
      "hit": false,
      "t": 307151.46790364425,
      "d": 86.53846875001909,
      "v": 76
    },
    {
      "midi": 62,
      "hit": false,
      "t": 307151.46790364425,
      "d": 86.53846875001909,
      "v": 76
    },
    {
      "midi": 64,
      "hit": false,
      "t": 307151.46790364425,
      "d": 86.53846875001909,
      "v": 76
    },
    {
      "midi": 67,
      "hit": false,
      "t": 307151.46790364425,
      "d": 86.53846875001909,
      "v": 76
    },
    {
      "midi": 59,
      "hit": false,
      "t": 307384.64099999843,
      "d": 86.53846875001909,
      "v": 86
    },
    {
      "midi": 62,
      "hit": false,
      "t": 307384.64099999843,
      "d": 86.53846875001909,
      "v": 86
    },
    {
      "midi": 64,
      "hit": false,
      "t": 307384.64099999843,
      "d": 86.53846875001909,
      "v": 86
    },
    {
      "midi": 67,
      "hit": false,
      "t": 307384.64099999843,
      "d": 86.53846875001909,
      "v": 86
    },
    {
      "midi": 59,
      "hit": false,
      "t": 307617.8140963526,
      "d": 86.53846875001909,
      "v": 72
    },
    {
      "midi": 62,
      "hit": false,
      "t": 307617.8140963526,
      "d": 86.53846875001909,
      "v": 72
    },
    {
      "midi": 64,
      "hit": false,
      "t": 307617.8140963526,
      "d": 86.53846875001909,
      "v": 72
    },
    {
      "midi": 67,
      "hit": false,
      "t": 307617.8140963526,
      "d": 86.53846875001909,
      "v": 72
    },
    {
      "midi": 59,
      "hit": false,
      "t": 307846.17949999846,
      "d": 86.53846875001909,
      "v": 76
    },
    {
      "midi": 62,
      "hit": false,
      "t": 307846.17949999846,
      "d": 86.53846875001909,
      "v": 76
    },
    {
      "midi": 64,
      "hit": false,
      "t": 307846.17949999846,
      "d": 86.53846875001909,
      "v": 76
    },
    {
      "midi": 67,
      "hit": false,
      "t": 307846.17949999846,
      "d": 86.53846875001909,
      "v": 76
    },
    {
      "midi": 59,
      "hit": false,
      "t": 308081.7564427068,
      "d": 86.53846875001909,
      "v": 84
    },
    {
      "midi": 62,
      "hit": false,
      "t": 308081.7564427068,
      "d": 86.53846875001909,
      "v": 84
    },
    {
      "midi": 64,
      "hit": false,
      "t": 308081.7564427068,
      "d": 86.53846875001909,
      "v": 84
    },
    {
      "midi": 67,
      "hit": false,
      "t": 308081.7564427068,
      "d": 86.53846875001909,
      "v": 84
    },
    {
      "midi": 59,
      "hit": false,
      "t": 308307.7179999985,
      "d": 86.53846875001909,
      "v": 84
    },
    {
      "midi": 62,
      "hit": false,
      "t": 308307.7179999985,
      "d": 86.53846875001909,
      "v": 84
    },
    {
      "midi": 64,
      "hit": false,
      "t": 308307.7179999985,
      "d": 86.53846875001909,
      "v": 84
    },
    {
      "midi": 67,
      "hit": false,
      "t": 308307.7179999985,
      "d": 86.53846875001909,
      "v": 84
    },
    {
      "midi": 59,
      "hit": false,
      "t": 308540.89109635266,
      "d": 86.53846875001909,
      "v": 72
    },
    {
      "midi": 62,
      "hit": false,
      "t": 308540.89109635266,
      "d": 86.53846875001909,
      "v": 72
    },
    {
      "midi": 64,
      "hit": false,
      "t": 308540.89109635266,
      "d": 86.53846875001909,
      "v": 72
    },
    {
      "midi": 67,
      "hit": false,
      "t": 308540.89109635266,
      "d": 86.53846875001909,
      "v": 72
    },
    {
      "midi": 59,
      "hit": false,
      "t": 308766.85265364434,
      "d": 86.53846875001909,
      "v": 78
    },
    {
      "midi": 62,
      "hit": false,
      "t": 308766.85265364434,
      "d": 86.53846875001909,
      "v": 78
    },
    {
      "midi": 64,
      "hit": false,
      "t": 308766.85265364434,
      "d": 86.53846875001909,
      "v": 78
    },
    {
      "midi": 67,
      "hit": false,
      "t": 308766.85265364434,
      "d": 86.53846875001909,
      "v": 78
    },
    {
      "midi": 59,
      "hit": false,
      "t": 308997.62190364435,
      "d": 86.53846875001909,
      "v": 75
    },
    {
      "midi": 62,
      "hit": false,
      "t": 308997.62190364435,
      "d": 86.53846875001909,
      "v": 75
    },
    {
      "midi": 64,
      "hit": false,
      "t": 308997.62190364435,
      "d": 86.53846875001909,
      "v": 75
    },
    {
      "midi": 67,
      "hit": false,
      "t": 308997.62190364435,
      "d": 86.53846875001909,
      "v": 75
    },
    {
      "midi": 59,
      "hit": false,
      "t": 309230.7949999985,
      "d": 86.53846875001909,
      "v": 90
    },
    {
      "midi": 62,
      "hit": false,
      "t": 309230.7949999985,
      "d": 86.53846875001909,
      "v": 90
    },
    {
      "midi": 64,
      "hit": false,
      "t": 309230.7949999985,
      "d": 86.53846875001909,
      "v": 90
    },
    {
      "midi": 67,
      "hit": false,
      "t": 309230.7949999985,
      "d": 86.53846875001909,
      "v": 90
    },
    {
      "midi": 59,
      "hit": false,
      "t": 309463.9680963527,
      "d": 86.53846875001909,
      "v": 71
    },
    {
      "midi": 62,
      "hit": false,
      "t": 309463.9680963527,
      "d": 86.53846875001909,
      "v": 71
    },
    {
      "midi": 64,
      "hit": false,
      "t": 309463.9680963527,
      "d": 86.53846875001909,
      "v": 71
    },
    {
      "midi": 67,
      "hit": false,
      "t": 309463.9680963527,
      "d": 86.53846875001909,
      "v": 71
    },
    {
      "midi": 59,
      "hit": false,
      "t": 309689.9296536444,
      "d": 86.53846875001909,
      "v": 78
    },
    {
      "midi": 62,
      "hit": false,
      "t": 309689.9296536444,
      "d": 86.53846875001909,
      "v": 78
    },
    {
      "midi": 64,
      "hit": false,
      "t": 309689.9296536444,
      "d": 86.53846875001909,
      "v": 78
    },
    {
      "midi": 67,
      "hit": false,
      "t": 309689.9296536444,
      "d": 86.53846875001909,
      "v": 78
    },
    {
      "midi": 59,
      "hit": false,
      "t": 309927.9104427069,
      "d": 86.53846875001909,
      "v": 77
    },
    {
      "midi": 62,
      "hit": false,
      "t": 309927.9104427069,
      "d": 86.53846875001909,
      "v": 77
    },
    {
      "midi": 64,
      "hit": false,
      "t": 309927.9104427069,
      "d": 86.53846875001909,
      "v": 77
    },
    {
      "midi": 67,
      "hit": false,
      "t": 309927.9104427069,
      "d": 86.53846875001909,
      "v": 77
    },
    {
      "midi": 61,
      "hit": false,
      "t": 310153.8719999986,
      "d": 86.53846875001909,
      "v": 91
    },
    {
      "midi": 64,
      "hit": false,
      "t": 310153.8719999986,
      "d": 86.53846875001909,
      "v": 88
    },
    {
      "midi": 69,
      "hit": false,
      "t": 310153.8719999986,
      "d": 86.53846875001909,
      "v": 88
    },
    {
      "midi": 61,
      "hit": false,
      "t": 310384.6412499986,
      "d": 86.53846875001909,
      "v": 75
    },
    {
      "midi": 64,
      "hit": false,
      "t": 310384.6412499986,
      "d": 86.53846875001909,
      "v": 75
    },
    {
      "midi": 69,
      "hit": false,
      "t": 310384.6412499986,
      "d": 86.53846875001909,
      "v": 75
    },
    {
      "midi": 61,
      "hit": false,
      "t": 310608.1989609361,
      "d": 86.53846875001909,
      "v": 79
    },
    {
      "midi": 64,
      "hit": false,
      "t": 310608.1989609361,
      "d": 86.53846875001909,
      "v": 79
    },
    {
      "midi": 69,
      "hit": false,
      "t": 310608.1989609361,
      "d": 86.53846875001909,
      "v": 79
    },
    {
      "midi": 61,
      "hit": false,
      "t": 310841.3720572903,
      "d": 86.53846875001909,
      "v": 73
    },
    {
      "midi": 64,
      "hit": false,
      "t": 310841.3720572903,
      "d": 86.53846875001909,
      "v": 70
    },
    {
      "midi": 69,
      "hit": false,
      "t": 310841.3720572903,
      "d": 86.53846875001909,
      "v": 76
    },
    {
      "midi": 61,
      "hit": false,
      "t": 311074.54515364446,
      "d": 86.53846875001909,
      "v": 88
    },
    {
      "midi": 64,
      "hit": false,
      "t": 311074.54515364446,
      "d": 86.53846875001909,
      "v": 88
    },
    {
      "midi": 69,
      "hit": false,
      "t": 311074.54515364446,
      "d": 86.53846875001909,
      "v": 88
    },
    {
      "midi": 61,
      "hit": false,
      "t": 311307.71824999864,
      "d": 86.53846875001909,
      "v": 74
    },
    {
      "midi": 64,
      "hit": false,
      "t": 311307.71824999864,
      "d": 86.53846875001909,
      "v": 74
    },
    {
      "midi": 69,
      "hit": false,
      "t": 311307.71824999864,
      "d": 86.53846875001909,
      "v": 70
    },
    {
      "midi": 61,
      "hit": false,
      "t": 311533.6798072903,
      "d": 86.53846875001909,
      "v": 77
    },
    {
      "midi": 64,
      "hit": false,
      "t": 311533.6798072903,
      "d": 86.53846875001909,
      "v": 77
    },
    {
      "midi": 69,
      "hit": false,
      "t": 311533.6798072903,
      "d": 86.53846875001909,
      "v": 77
    },
    {
      "midi": 61,
      "hit": false,
      "t": 311766.8529036445,
      "d": 86.53846875001909,
      "v": 86
    },
    {
      "midi": 64,
      "hit": false,
      "t": 311766.8529036445,
      "d": 86.53846875001909,
      "v": 86
    },
    {
      "midi": 69,
      "hit": false,
      "t": 311766.8529036445,
      "d": 86.53846875001909,
      "v": 86
    },
    {
      "midi": 61,
      "hit": false,
      "t": 311997.6221536445,
      "d": 86.53846875001909,
      "v": 86
    },
    {
      "midi": 64,
      "hit": false,
      "t": 311997.6221536445,
      "d": 86.53846875001909,
      "v": 82
    },
    {
      "midi": 69,
      "hit": false,
      "t": 311997.6221536445,
      "d": 86.53846875001909,
      "v": 89
    },
    {
      "midi": 61,
      "hit": false,
      "t": 312230.7952499987,
      "d": 86.53846875001909,
      "v": 75
    },
    {
      "midi": 64,
      "hit": false,
      "t": 312230.7952499987,
      "d": 86.53846875001909,
      "v": 75
    },
    {
      "midi": 69,
      "hit": false,
      "t": 312230.7952499987,
      "d": 86.53846875001909,
      "v": 75
    },
    {
      "midi": 61,
      "hit": false,
      "t": 312456.75680729037,
      "d": 86.53846875001909,
      "v": 81
    },
    {
      "midi": 64,
      "hit": false,
      "t": 312456.75680729037,
      "d": 86.53846875001909,
      "v": 74
    },
    {
      "midi": 69,
      "hit": false,
      "t": 312456.75680729037,
      "d": 86.53846875001909,
      "v": 72
    },
    {
      "midi": 61,
      "hit": false,
      "t": 312689.92990364454,
      "d": 86.53846875001909,
      "v": 79
    },
    {
      "midi": 64,
      "hit": false,
      "t": 312689.92990364454,
      "d": 86.53846875001909,
      "v": 79
    },
    {
      "midi": 69,
      "hit": false,
      "t": 312689.92990364454,
      "d": 86.53846875001909,
      "v": 79
    },
    {
      "midi": 61,
      "hit": false,
      "t": 312923.1029999987,
      "d": 86.53846875001909,
      "v": 82
    },
    {
      "midi": 64,
      "hit": false,
      "t": 312923.1029999987,
      "d": 86.53846875001909,
      "v": 82
    },
    {
      "midi": 69,
      "hit": false,
      "t": 312923.1029999987,
      "d": 86.53846875001909,
      "v": 82
    },
    {
      "midi": 61,
      "hit": false,
      "t": 313153.87224999873,
      "d": 86.53846875001909,
      "v": 69
    },
    {
      "midi": 64,
      "hit": false,
      "t": 313153.87224999873,
      "d": 86.53846875001909,
      "v": 76
    },
    {
      "midi": 69,
      "hit": false,
      "t": 313153.87224999873,
      "d": 86.53846875001909,
      "v": 72
    },
    {
      "midi": 61,
      "hit": false,
      "t": 313384.64149999875,
      "d": 86.53846875001909,
      "v": 79
    },
    {
      "midi": 64,
      "hit": false,
      "t": 313384.64149999875,
      "d": 86.53846875001909,
      "v": 79
    },
    {
      "midi": 69,
      "hit": false,
      "t": 313384.64149999875,
      "d": 86.53846875001909,
      "v": 79
    },
    {
      "midi": 61,
      "hit": false,
      "t": 313615.41074999876,
      "d": 86.53846875001909,
      "v": 76
    },
    {
      "midi": 64,
      "hit": false,
      "t": 313615.41074999876,
      "d": 86.53846875001909,
      "v": 76
    },
    {
      "midi": 69,
      "hit": false,
      "t": 313615.41074999876,
      "d": 86.53846875001909,
      "v": 76
    },
    {
      "midi": 57,
      "hit": false,
      "t": 313841.37230729044,
      "d": 86.53846875001909,
      "v": 87
    },
    {
      "midi": 62,
      "hit": false,
      "t": 313841.37230729044,
      "d": 86.53846875001909,
      "v": 91
    },
    {
      "midi": 66,
      "hit": false,
      "t": 313841.37230729044,
      "d": 86.53846875001909,
      "v": 88
    },
    {
      "midi": 57,
      "hit": false,
      "t": 314076.9492499988,
      "d": 86.53846875001909,
      "v": 73
    },
    {
      "midi": 62,
      "hit": false,
      "t": 314076.9492499988,
      "d": 86.53846875001909,
      "v": 73
    },
    {
      "midi": 66,
      "hit": false,
      "t": 314076.9492499988,
      "d": 86.53846875001909,
      "v": 73
    },
    {
      "midi": 57,
      "hit": false,
      "t": 314307.7184999988,
      "d": 86.53846875001909,
      "v": 77
    },
    {
      "midi": 62,
      "hit": false,
      "t": 314307.7184999988,
      "d": 86.53846875001909,
      "v": 77
    },
    {
      "midi": 66,
      "hit": false,
      "t": 314307.7184999988,
      "d": 86.53846875001909,
      "v": 77
    },
    {
      "midi": 57,
      "hit": false,
      "t": 314536.08390364464,
      "d": 86.53846875001909,
      "v": 79
    },
    {
      "midi": 62,
      "hit": false,
      "t": 314536.08390364464,
      "d": 86.53846875001909,
      "v": 71
    },
    {
      "midi": 66,
      "hit": false,
      "t": 314536.08390364464,
      "d": 86.53846875001909,
      "v": 74
    },
    {
      "midi": 57,
      "hit": false,
      "t": 314769.2569999988,
      "d": 86.53846875001909,
      "v": 86
    },
    {
      "midi": 62,
      "hit": false,
      "t": 314769.2569999988,
      "d": 86.53846875001909,
      "v": 86
    },
    {
      "midi": 66,
      "hit": false,
      "t": 314769.2569999988,
      "d": 86.53846875001909,
      "v": 86
    },
    {
      "midi": 57,
      "hit": false,
      "t": 315002.430096353,
      "d": 86.53846875001909,
      "v": 71
    },
    {
      "midi": 62,
      "hit": false,
      "t": 315002.430096353,
      "d": 86.53846875001909,
      "v": 71
    },
    {
      "midi": 66,
      "hit": false,
      "t": 315002.430096353,
      "d": 86.53846875001909,
      "v": 71
    },
    {
      "midi": 57,
      "hit": false,
      "t": 315230.79549999884,
      "d": 86.53846875001909,
      "v": 73
    },
    {
      "midi": 62,
      "hit": false,
      "t": 315230.79549999884,
      "d": 86.53846875001909,
      "v": 77
    },
    {
      "midi": 66,
      "hit": false,
      "t": 315230.79549999884,
      "d": 86.53846875001909,
      "v": 76
    },
    {
      "midi": 57,
      "hit": false,
      "t": 315466.3724427072,
      "d": 86.53846875001909,
      "v": 85
    },
    {
      "midi": 62,
      "hit": false,
      "t": 315466.3724427072,
      "d": 86.53846875001909,
      "v": 85
    },
    {
      "midi": 66,
      "hit": false,
      "t": 315466.3724427072,
      "d": 86.53846875001909,
      "v": 85
    },
    {
      "midi": 57,
      "hit": false,
      "t": 315692.33399999887,
      "d": 86.53846875001909,
      "v": 84
    },
    {
      "midi": 62,
      "hit": false,
      "t": 315692.33399999887,
      "d": 86.53846875001909,
      "v": 84
    },
    {
      "midi": 66,
      "hit": false,
      "t": 315692.33399999887,
      "d": 86.53846875001909,
      "v": 84
    },
    {
      "midi": 57,
      "hit": false,
      "t": 315925.50709635305,
      "d": 86.53846875001909,
      "v": 72
    },
    {
      "midi": 62,
      "hit": false,
      "t": 315925.50709635305,
      "d": 86.53846875001909,
      "v": 72
    },
    {
      "midi": 66,
      "hit": false,
      "t": 315925.50709635305,
      "d": 86.53846875001909,
      "v": 72
    },
    {
      "midi": 57,
      "hit": false,
      "t": 316151.4686536447,
      "d": 86.53846875001909,
      "v": 80
    },
    {
      "midi": 62,
      "hit": false,
      "t": 316151.4686536447,
      "d": 86.53846875001909,
      "v": 80
    },
    {
      "midi": 66,
      "hit": false,
      "t": 316151.4686536447,
      "d": 86.53846875001909,
      "v": 80
    },
    {
      "midi": 57,
      "hit": false,
      "t": 316382.23790364474,
      "d": 86.53846875001909,
      "v": 76
    },
    {
      "midi": 62,
      "hit": false,
      "t": 316382.23790364474,
      "d": 86.53846875001909,
      "v": 76
    },
    {
      "midi": 66,
      "hit": false,
      "t": 316382.23790364474,
      "d": 86.53846875001909,
      "v": 76
    },
    {
      "midi": 57,
      "hit": false,
      "t": 316615.4109999989,
      "d": 86.53846875001909,
      "v": 89
    },
    {
      "midi": 62,
      "hit": false,
      "t": 316615.4109999989,
      "d": 86.53846875001909,
      "v": 89
    },
    {
      "midi": 66,
      "hit": false,
      "t": 316615.4109999989,
      "d": 86.53846875001909,
      "v": 89
    },
    {
      "midi": 57,
      "hit": false,
      "t": 316848.5840963531,
      "d": 86.53846875001909,
      "v": 75
    },
    {
      "midi": 62,
      "hit": false,
      "t": 316848.5840963531,
      "d": 86.53846875001909,
      "v": 75
    },
    {
      "midi": 66,
      "hit": false,
      "t": 316848.5840963531,
      "d": 86.53846875001909,
      "v": 75
    },
    {
      "midi": 57,
      "hit": false,
      "t": 317074.5456536448,
      "d": 86.53846875001909,
      "v": 77
    },
    {
      "midi": 62,
      "hit": false,
      "t": 317074.5456536448,
      "d": 86.53846875001909,
      "v": 77
    },
    {
      "midi": 66,
      "hit": false,
      "t": 317074.5456536448,
      "d": 86.53846875001909,
      "v": 77
    },
    {
      "midi": 57,
      "hit": false,
      "t": 317312.5264427073,
      "d": 86.53846875001909,
      "v": 76
    },
    {
      "midi": 62,
      "hit": false,
      "t": 317312.5264427073,
      "d": 86.53846875001909,
      "v": 76
    },
    {
      "midi": 66,
      "hit": false,
      "t": 317312.5264427073,
      "d": 86.53846875001909,
      "v": 76
    },
    {
      "midi": 57,
      "hit": false,
      "t": 317538.48799999896,
      "d": 86.53846875001909,
      "v": 92
    },
    {
      "midi": 61,
      "hit": false,
      "t": 317538.48799999896,
      "d": 86.53846875001909,
      "v": 85
    },
    {
      "midi": 64,
      "hit": false,
      "t": 317538.48799999896,
      "d": 86.53846875001909,
      "v": 89
    },
    {
      "midi": 57,
      "hit": false,
      "t": 317769.257249999,
      "d": 86.53846875001909,
      "v": 74
    },
    {
      "midi": 61,
      "hit": false,
      "t": 317769.257249999,
      "d": 86.53846875001909,
      "v": 74
    },
    {
      "midi": 64,
      "hit": false,
      "t": 317769.257249999,
      "d": 86.53846875001909,
      "v": 74
    },
    {
      "midi": 57,
      "hit": false,
      "t": 317992.8149609365,
      "d": 86.53846875001909,
      "v": 78
    },
    {
      "midi": 61,
      "hit": false,
      "t": 317992.8149609365,
      "d": 86.53846875001909,
      "v": 78
    },
    {
      "midi": 64,
      "hit": false,
      "t": 317992.8149609365,
      "d": 86.53846875001909,
      "v": 78
    },
    {
      "midi": 57,
      "hit": false,
      "t": 318225.98805729067,
      "d": 86.53846875001909,
      "v": 76
    },
    {
      "midi": 61,
      "hit": false,
      "t": 318225.98805729067,
      "d": 86.53846875001909,
      "v": 76
    },
    {
      "midi": 64,
      "hit": false,
      "t": 318225.98805729067,
      "d": 86.53846875001909,
      "v": 77
    },
    {
      "midi": 57,
      "hit": false,
      "t": 318459.16115364485,
      "d": 86.53846875001909,
      "v": 86
    },
    {
      "midi": 61,
      "hit": false,
      "t": 318459.16115364485,
      "d": 86.53846875001909,
      "v": 86
    },
    {
      "midi": 64,
      "hit": false,
      "t": 318459.16115364485,
      "d": 86.53846875001909,
      "v": 86
    },
    {
      "midi": 57,
      "hit": false,
      "t": 318692.334249999,
      "d": 86.53846875001909,
      "v": 72
    },
    {
      "midi": 61,
      "hit": false,
      "t": 318692.334249999,
      "d": 86.53846875001909,
      "v": 72
    },
    {
      "midi": 64,
      "hit": false,
      "t": 318692.334249999,
      "d": 86.53846875001909,
      "v": 72
    },
    {
      "midi": 57,
      "hit": false,
      "t": 318918.2958072907,
      "d": 86.53846875001909,
      "v": 77
    },
    {
      "midi": 61,
      "hit": false,
      "t": 318918.2958072907,
      "d": 86.53846875001909,
      "v": 77
    },
    {
      "midi": 64,
      "hit": false,
      "t": 318918.2958072907,
      "d": 86.53846875001909,
      "v": 77
    },
    {
      "midi": 57,
      "hit": false,
      "t": 319151.4689036449,
      "d": 86.53846875001909,
      "v": 85
    },
    {
      "midi": 61,
      "hit": false,
      "t": 319151.4689036449,
      "d": 86.53846875001909,
      "v": 85
    },
    {
      "midi": 64,
      "hit": false,
      "t": 319151.4689036449,
      "d": 86.53846875001909,
      "v": 85
    },
    {
      "midi": 57,
      "hit": false,
      "t": 319382.2381536449,
      "d": 86.53846875001909,
      "v": 86
    },
    {
      "midi": 61,
      "hit": false,
      "t": 319382.2381536449,
      "d": 86.53846875001909,
      "v": 86
    },
    {
      "midi": 64,
      "hit": false,
      "t": 319382.2381536449,
      "d": 86.53846875001909,
      "v": 86
    },
    {
      "midi": 57,
      "hit": false,
      "t": 319615.4112499991,
      "d": 86.53846875001909,
      "v": 74
    },
    {
      "midi": 61,
      "hit": false,
      "t": 319615.4112499991,
      "d": 86.53846875001909,
      "v": 76
    },
    {
      "midi": 64,
      "hit": false,
      "t": 319615.4112499991,
      "d": 86.53846875001909,
      "v": 69
    },
    {
      "midi": 57,
      "hit": false,
      "t": 319841.37280729075,
      "d": 86.53846875001909,
      "v": 77
    },
    {
      "midi": 61,
      "hit": false,
      "t": 319841.37280729075,
      "d": 86.53846875001909,
      "v": 77
    },
    {
      "midi": 64,
      "hit": false,
      "t": 319841.37280729075,
      "d": 86.53846875001909,
      "v": 77
    },
    {
      "midi": 57,
      "hit": false,
      "t": 320074.54590364493,
      "d": 86.53846875001909,
      "v": 78
    },
    {
      "midi": 61,
      "hit": false,
      "t": 320074.54590364493,
      "d": 86.53846875001909,
      "v": 80
    },
    {
      "midi": 64,
      "hit": false,
      "t": 320074.54590364493,
      "d": 86.53846875001909,
      "v": 73
    },
    {
      "midi": 57,
      "hit": false,
      "t": 320307.7189999991,
      "d": 86.53846875001909,
      "v": 85
    },
    {
      "midi": 61,
      "hit": false,
      "t": 320307.7189999991,
      "d": 86.53846875001909,
      "v": 85
    },
    {
      "midi": 64,
      "hit": false,
      "t": 320307.7189999991,
      "d": 86.53846875001909,
      "v": 85
    },
    {
      "midi": 57,
      "hit": false,
      "t": 320538.4882499991,
      "d": 86.53846875001909,
      "v": 76
    },
    {
      "midi": 61,
      "hit": false,
      "t": 320538.4882499991,
      "d": 86.53846875001909,
      "v": 76
    },
    {
      "midi": 64,
      "hit": false,
      "t": 320538.4882499991,
      "d": 86.53846875001909,
      "v": 76
    },
    {
      "midi": 57,
      "hit": false,
      "t": 320769.25749999913,
      "d": 86.53846875001909,
      "v": 76
    },
    {
      "midi": 61,
      "hit": false,
      "t": 320769.25749999913,
      "d": 86.53846875001909,
      "v": 76
    },
    {
      "midi": 64,
      "hit": false,
      "t": 320769.25749999913,
      "d": 86.53846875001909,
      "v": 76
    },
    {
      "midi": 57,
      "hit": false,
      "t": 321000.02674999915,
      "d": 86.53846875001909,
      "v": 78
    },
    {
      "midi": 61,
      "hit": false,
      "t": 321000.02674999915,
      "d": 86.53846875001909,
      "v": 78
    },
    {
      "midi": 64,
      "hit": false,
      "t": 321000.02674999915,
      "d": 86.53846875001909,
      "v": 78
    },
    {
      "midi": 59,
      "hit": false,
      "t": 321225.9883072908,
      "d": 86.53846875001909,
      "v": 91
    },
    {
      "midi": 62,
      "hit": false,
      "t": 321225.9883072908,
      "d": 86.53846875001909,
      "v": 91
    },
    {
      "midi": 66,
      "hit": false,
      "t": 321225.9883072908,
      "d": 86.53846875001909,
      "v": 91
    },
    {
      "midi": 59,
      "hit": false,
      "t": 321461.56524999917,
      "d": 86.53846875001909,
      "v": 73
    },
    {
      "midi": 62,
      "hit": false,
      "t": 321461.56524999917,
      "d": 86.53846875001909,
      "v": 73
    },
    {
      "midi": 66,
      "hit": false,
      "t": 321461.56524999917,
      "d": 86.53846875001909,
      "v": 73
    },
    {
      "midi": 59,
      "hit": false,
      "t": 321692.3344999992,
      "d": 86.53846875001909,
      "v": 77
    },
    {
      "midi": 62,
      "hit": false,
      "t": 321692.3344999992,
      "d": 86.53846875001909,
      "v": 77
    },
    {
      "midi": 66,
      "hit": false,
      "t": 321692.3344999992,
      "d": 86.53846875001909,
      "v": 77
    },
    {
      "midi": 59,
      "hit": false,
      "t": 321920.699903645,
      "d": 86.53846875001909,
      "v": 71
    },
    {
      "midi": 62,
      "hit": false,
      "t": 321920.699903645,
      "d": 86.53846875001909,
      "v": 71
    },
    {
      "midi": 66,
      "hit": false,
      "t": 321920.699903645,
      "d": 86.53846875001909,
      "v": 71
    },
    {
      "midi": 59,
      "hit": false,
      "t": 322153.8729999992,
      "d": 86.53846875001909,
      "v": 86
    },
    {
      "midi": 62,
      "hit": false,
      "t": 322153.8729999992,
      "d": 86.53846875001909,
      "v": 86
    },
    {
      "midi": 66,
      "hit": false,
      "t": 322153.8729999992,
      "d": 86.53846875001909,
      "v": 86
    },
    {
      "midi": 59,
      "hit": false,
      "t": 322387.0460963534,
      "d": 86.53846875001909,
      "v": 72
    },
    {
      "midi": 62,
      "hit": false,
      "t": 322387.0460963534,
      "d": 86.53846875001909,
      "v": 72
    },
    {
      "midi": 66,
      "hit": false,
      "t": 322387.0460963534,
      "d": 86.53846875001909,
      "v": 72
    },
    {
      "midi": 59,
      "hit": false,
      "t": 322615.41149999923,
      "d": 86.53846875001909,
      "v": 80
    },
    {
      "midi": 62,
      "hit": false,
      "t": 322615.41149999923,
      "d": 86.53846875001909,
      "v": 73
    },
    {
      "midi": 66,
      "hit": false,
      "t": 322615.41149999923,
      "d": 86.53846875001909,
      "v": 80
    },
    {
      "midi": 59,
      "hit": false,
      "t": 322850.9884427076,
      "d": 86.53846875001909,
      "v": 84
    },
    {
      "midi": 62,
      "hit": false,
      "t": 322850.9884427076,
      "d": 86.53846875001909,
      "v": 84
    },
    {
      "midi": 66,
      "hit": false,
      "t": 322850.9884427076,
      "d": 86.53846875001909,
      "v": 84
    },
    {
      "midi": 59,
      "hit": false,
      "t": 323076.94999999925,
      "d": 86.53846875001909,
      "v": 86
    },
    {
      "midi": 62,
      "hit": false,
      "t": 323076.94999999925,
      "d": 86.53846875001909,
      "v": 86
    },
    {
      "midi": 66,
      "hit": false,
      "t": 323076.94999999925,
      "d": 86.53846875001909,
      "v": 86
    },
    {
      "midi": 59,
      "hit": false,
      "t": 323310.12309635343,
      "d": 86.53846875001909,
      "v": 72
    },
    {
      "midi": 62,
      "hit": false,
      "t": 323310.12309635343,
      "d": 86.53846875001909,
      "v": 72
    },
    {
      "midi": 66,
      "hit": false,
      "t": 323310.12309635343,
      "d": 86.53846875001909,
      "v": 72
    },
    {
      "midi": 59,
      "hit": false,
      "t": 323536.0846536451,
      "d": 86.53846875001909,
      "v": 78
    },
    {
      "midi": 62,
      "hit": false,
      "t": 323536.0846536451,
      "d": 86.53846875001909,
      "v": 78
    },
    {
      "midi": 66,
      "hit": false,
      "t": 323536.0846536451,
      "d": 86.53846875001909,
      "v": 78
    },
    {
      "midi": 59,
      "hit": false,
      "t": 323766.8539036451,
      "d": 86.53846875001909,
      "v": 80
    },
    {
      "midi": 62,
      "hit": false,
      "t": 323766.8539036451,
      "d": 86.53846875001909,
      "v": 72
    },
    {
      "midi": 66,
      "hit": false,
      "t": 323766.8539036451,
      "d": 86.53846875001909,
      "v": 80
    },
    {
      "midi": 59,
      "hit": false,
      "t": 324000.0269999993,
      "d": 86.53846875001909,
      "v": 88
    },
    {
      "midi": 62,
      "hit": false,
      "t": 324000.0269999993,
      "d": 86.53846875001909,
      "v": 88
    },
    {
      "midi": 66,
      "hit": false,
      "t": 324000.0269999993,
      "d": 86.53846875001909,
      "v": 88
    },
    {
      "midi": 59,
      "hit": false,
      "t": 324233.2000963535,
      "d": 86.53846875001909,
      "v": 73
    },
    {
      "midi": 62,
      "hit": false,
      "t": 324233.2000963535,
      "d": 86.53846875001909,
      "v": 73
    },
    {
      "midi": 66,
      "hit": false,
      "t": 324233.2000963535,
      "d": 86.53846875001909,
      "v": 73
    },
    {
      "midi": 59,
      "hit": false,
      "t": 324459.16165364516,
      "d": 86.53846875001909,
      "v": 77
    },
    {
      "midi": 62,
      "hit": false,
      "t": 324459.16165364516,
      "d": 86.53846875001909,
      "v": 77
    },
    {
      "midi": 66,
      "hit": false,
      "t": 324459.16165364516,
      "d": 86.53846875001909,
      "v": 77
    },
    {
      "midi": 59,
      "hit": false,
      "t": 324697.14244270767,
      "d": 86.53846875001909,
      "v": 75
    },
    {
      "midi": 62,
      "hit": false,
      "t": 324697.14244270767,
      "d": 86.53846875001909,
      "v": 75
    },
    {
      "midi": 66,
      "hit": false,
      "t": 324697.14244270767,
      "d": 86.53846875001909,
      "v": 75
    },
    {
      "midi": 61,
      "hit": false,
      "t": 324923.10399999935,
      "d": 86.53846875001909,
      "v": 91
    },
    {
      "midi": 64,
      "hit": false,
      "t": 324923.10399999935,
      "d": 86.53846875001909,
      "v": 91
    },
    {
      "midi": 66,
      "hit": false,
      "t": 324923.10399999935,
      "d": 86.53846875001909,
      "v": 91
    },
    {
      "midi": 69,
      "hit": false,
      "t": 324923.10399999935,
      "d": 86.53846875001909,
      "v": 91
    },
    {
      "midi": 61,
      "hit": false,
      "t": 325153.87324999936,
      "d": 86.53846875001909,
      "v": 74
    },
    {
      "midi": 64,
      "hit": false,
      "t": 325153.87324999936,
      "d": 86.53846875001909,
      "v": 74
    },
    {
      "midi": 66,
      "hit": false,
      "t": 325153.87324999936,
      "d": 86.53846875001909,
      "v": 74
    },
    {
      "midi": 69,
      "hit": false,
      "t": 325153.87324999936,
      "d": 86.53846875001909,
      "v": 74
    },
    {
      "midi": 61,
      "hit": false,
      "t": 325377.4309609369,
      "d": 86.53846875001909,
      "v": 79
    },
    {
      "midi": 64,
      "hit": false,
      "t": 325377.4309609369,
      "d": 86.53846875001909,
      "v": 79
    },
    {
      "midi": 66,
      "hit": false,
      "t": 325377.4309609369,
      "d": 86.53846875001909,
      "v": 79
    },
    {
      "midi": 69,
      "hit": false,
      "t": 325377.4309609369,
      "d": 86.53846875001909,
      "v": 79
    },
    {
      "midi": 61,
      "hit": false,
      "t": 325610.60405729106,
      "d": 86.53846875001909,
      "v": 76
    },
    {
      "midi": 64,
      "hit": false,
      "t": 325610.60405729106,
      "d": 86.53846875001909,
      "v": 76
    },
    {
      "midi": 66,
      "hit": false,
      "t": 325610.60405729106,
      "d": 86.53846875001909,
      "v": 76
    },
    {
      "midi": 69,
      "hit": false,
      "t": 325610.60405729106,
      "d": 86.53846875001909,
      "v": 76
    },
    {
      "midi": 61,
      "hit": false,
      "t": 325843.77715364523,
      "d": 86.53846875001909,
      "v": 87
    },
    {
      "midi": 64,
      "hit": false,
      "t": 325843.77715364523,
      "d": 86.53846875001909,
      "v": 87
    },
    {
      "midi": 66,
      "hit": false,
      "t": 325843.77715364523,
      "d": 86.53846875001909,
      "v": 87
    },
    {
      "midi": 69,
      "hit": false,
      "t": 325843.77715364523,
      "d": 86.53846875001909,
      "v": 87
    },
    {
      "midi": 61,
      "hit": false,
      "t": 326076.9502499994,
      "d": 86.53846875001909,
      "v": 72
    },
    {
      "midi": 64,
      "hit": false,
      "t": 326076.9502499994,
      "d": 86.53846875001909,
      "v": 72
    },
    {
      "midi": 66,
      "hit": false,
      "t": 326076.9502499994,
      "d": 86.53846875001909,
      "v": 72
    },
    {
      "midi": 69,
      "hit": false,
      "t": 326076.9502499994,
      "d": 86.53846875001909,
      "v": 72
    },
    {
      "midi": 61,
      "hit": false,
      "t": 326302.9118072911,
      "d": 86.53846875001909,
      "v": 75
    },
    {
      "midi": 64,
      "hit": false,
      "t": 326302.9118072911,
      "d": 86.53846875001909,
      "v": 75
    },
    {
      "midi": 66,
      "hit": false,
      "t": 326302.9118072911,
      "d": 86.53846875001909,
      "v": 75
    },
    {
      "midi": 69,
      "hit": false,
      "t": 326302.9118072911,
      "d": 86.53846875001909,
      "v": 75
    },
    {
      "midi": 61,
      "hit": false,
      "t": 326536.0849036453,
      "d": 86.53846875001909,
      "v": 84
    },
    {
      "midi": 64,
      "hit": false,
      "t": 326536.0849036453,
      "d": 86.53846875001909,
      "v": 84
    },
    {
      "midi": 66,
      "hit": false,
      "t": 326536.0849036453,
      "d": 86.53846875001909,
      "v": 84
    },
    {
      "midi": 69,
      "hit": false,
      "t": 326536.0849036453,
      "d": 86.53846875001909,
      "v": 84
    },
    {
      "midi": 61,
      "hit": false,
      "t": 326766.8541536453,
      "d": 86.53846875001909,
      "v": 87
    },
    {
      "midi": 64,
      "hit": false,
      "t": 326766.8541536453,
      "d": 86.53846875001909,
      "v": 87
    },
    {
      "midi": 66,
      "hit": false,
      "t": 326766.8541536453,
      "d": 86.53846875001909,
      "v": 87
    },
    {
      "midi": 69,
      "hit": false,
      "t": 326766.8541536453,
      "d": 86.53846875001909,
      "v": 87
    },
    {
      "midi": 61,
      "hit": false,
      "t": 327000.02724999946,
      "d": 86.53846875001909,
      "v": 73
    },
    {
      "midi": 64,
      "hit": false,
      "t": 327000.02724999946,
      "d": 86.53846875001909,
      "v": 73
    },
    {
      "midi": 66,
      "hit": false,
      "t": 327000.02724999946,
      "d": 86.53846875001909,
      "v": 73
    },
    {
      "midi": 69,
      "hit": false,
      "t": 327000.02724999946,
      "d": 86.53846875001909,
      "v": 73
    },
    {
      "midi": 61,
      "hit": false,
      "t": 327225.98880729114,
      "d": 86.53846875001909,
      "v": 81
    },
    {
      "midi": 64,
      "hit": false,
      "t": 327225.98880729114,
      "d": 86.53846875001909,
      "v": 81
    },
    {
      "midi": 66,
      "hit": false,
      "t": 327225.98880729114,
      "d": 86.53846875001909,
      "v": 81
    },
    {
      "midi": 69,
      "hit": false,
      "t": 327225.98880729114,
      "d": 86.53846875001909,
      "v": 74
    },
    {
      "midi": 61,
      "hit": false,
      "t": 327459.1619036453,
      "d": 86.53846875001909,
      "v": 76
    },
    {
      "midi": 64,
      "hit": false,
      "t": 327459.1619036453,
      "d": 86.53846875001909,
      "v": 76
    },
    {
      "midi": 66,
      "hit": false,
      "t": 327459.1619036453,
      "d": 86.53846875001909,
      "v": 76
    },
    {
      "midi": 69,
      "hit": false,
      "t": 327459.1619036453,
      "d": 86.53846875001909,
      "v": 76
    },
    {
      "midi": 61,
      "hit": false,
      "t": 327692.3349999995,
      "d": 86.53846875001909,
      "v": 84
    },
    {
      "midi": 64,
      "hit": false,
      "t": 327692.3349999995,
      "d": 86.53846875001909,
      "v": 84
    },
    {
      "midi": 66,
      "hit": false,
      "t": 327692.3349999995,
      "d": 86.53846875001909,
      "v": 84
    },
    {
      "midi": 69,
      "hit": false,
      "t": 327692.3349999995,
      "d": 86.53846875001909,
      "v": 84
    },
    {
      "midi": 61,
      "hit": false,
      "t": 327923.1042499995,
      "d": 86.53846875001909,
      "v": 75
    },
    {
      "midi": 64,
      "hit": false,
      "t": 327923.1042499995,
      "d": 86.53846875001909,
      "v": 75
    },
    {
      "midi": 66,
      "hit": false,
      "t": 327923.1042499995,
      "d": 86.53846875001909,
      "v": 75
    },
    {
      "midi": 69,
      "hit": false,
      "t": 327923.1042499995,
      "d": 86.53846875001909,
      "v": 75
    },
    {
      "midi": 61,
      "hit": false,
      "t": 328153.8734999995,
      "d": 86.53846875001909,
      "v": 75
    },
    {
      "midi": 64,
      "hit": false,
      "t": 328153.8734999995,
      "d": 86.53846875001909,
      "v": 75
    },
    {
      "midi": 66,
      "hit": false,
      "t": 328153.8734999995,
      "d": 86.53846875001909,
      "v": 75
    },
    {
      "midi": 69,
      "hit": false,
      "t": 328153.8734999995,
      "d": 86.53846875001909,
      "v": 75
    },
    {
      "midi": 61,
      "hit": false,
      "t": 328384.64274999953,
      "d": 86.53846875001909,
      "v": 79
    },
    {
      "midi": 64,
      "hit": false,
      "t": 328384.64274999953,
      "d": 86.53846875001909,
      "v": 79
    },
    {
      "midi": 66,
      "hit": false,
      "t": 328384.64274999953,
      "d": 86.53846875001909,
      "v": 79
    },
    {
      "midi": 69,
      "hit": false,
      "t": 328384.64274999953,
      "d": 86.53846875001909,
      "v": 79
    },
    {
      "midi": 59,
      "hit": false,
      "t": 328610.6043072912,
      "d": 86.53846875001909,
      "v": 91
    },
    {
      "midi": 62,
      "hit": false,
      "t": 328610.6043072912,
      "d": 86.53846875001909,
      "v": 91
    },
    {
      "midi": 69,
      "hit": false,
      "t": 328610.6043072912,
      "d": 86.53846875001909,
      "v": 91
    },
    {
      "midi": 59,
      "hit": false,
      "t": 328846.18124999956,
      "d": 86.53846875001909,
      "v": 72
    },
    {
      "midi": 62,
      "hit": false,
      "t": 328846.18124999956,
      "d": 86.53846875001909,
      "v": 72
    },
    {
      "midi": 69,
      "hit": false,
      "t": 328846.18124999956,
      "d": 86.53846875001909,
      "v": 72
    },
    {
      "midi": 59,
      "hit": false,
      "t": 329076.95049999957,
      "d": 86.53846875001909,
      "v": 76
    },
    {
      "midi": 62,
      "hit": false,
      "t": 329076.95049999957,
      "d": 86.53846875001909,
      "v": 76
    },
    {
      "midi": 69,
      "hit": false,
      "t": 329076.95049999957,
      "d": 86.53846875001909,
      "v": 76
    },
    {
      "midi": 59,
      "hit": false,
      "t": 329305.3159036454,
      "d": 86.53846875001909,
      "v": 74
    },
    {
      "midi": 62,
      "hit": false,
      "t": 329305.3159036454,
      "d": 86.53846875001909,
      "v": 74
    },
    {
      "midi": 69,
      "hit": false,
      "t": 329305.3159036454,
      "d": 86.53846875001909,
      "v": 74
    },
    {
      "midi": 59,
      "hit": false,
      "t": 329538.4889999996,
      "d": 86.53846875001909,
      "v": 89
    },
    {
      "midi": 62,
      "hit": false,
      "t": 329538.4889999996,
      "d": 86.53846875001909,
      "v": 89
    },
    {
      "midi": 69,
      "hit": false,
      "t": 329538.4889999996,
      "d": 86.53846875001909,
      "v": 89
    },
    {
      "midi": 59,
      "hit": false,
      "t": 329771.6620963538,
      "d": 86.53846875001909,
      "v": 71
    },
    {
      "midi": 62,
      "hit": false,
      "t": 329771.6620963538,
      "d": 86.53846875001909,
      "v": 71
    },
    {
      "midi": 69,
      "hit": false,
      "t": 329771.6620963538,
      "d": 86.53846875001909,
      "v": 71
    },
    {
      "midi": 59,
      "hit": false,
      "t": 330000.0274999996,
      "d": 86.53846875001909,
      "v": 79
    },
    {
      "midi": 62,
      "hit": false,
      "t": 330000.0274999996,
      "d": 86.53846875001909,
      "v": 79
    },
    {
      "midi": 69,
      "hit": false,
      "t": 330000.0274999996,
      "d": 86.53846875001909,
      "v": 79
    },
    {
      "midi": 59,
      "hit": false,
      "t": 330235.60444270796,
      "d": 86.53846875001909,
      "v": 85
    },
    {
      "midi": 62,
      "hit": false,
      "t": 330235.60444270796,
      "d": 86.53846875001909,
      "v": 85
    },
    {
      "midi": 69,
      "hit": false,
      "t": 330235.60444270796,
      "d": 86.53846875001909,
      "v": 85
    },
    {
      "midi": 59,
      "hit": false,
      "t": 330461.56599999964,
      "d": 86.53846875001909,
      "v": 83
    },
    {
      "midi": 62,
      "hit": false,
      "t": 330461.56599999964,
      "d": 86.53846875001909,
      "v": 83
    },
    {
      "midi": 67,
      "hit": false,
      "t": 330461.56599999964,
      "d": 86.53846875001909,
      "v": 83
    },
    {
      "midi": 59,
      "hit": false,
      "t": 330694.7390963538,
      "d": 86.53846875001909,
      "v": 74
    },
    {
      "midi": 62,
      "hit": false,
      "t": 330694.7390963538,
      "d": 86.53846875001909,
      "v": 74
    },
    {
      "midi": 67,
      "hit": false,
      "t": 330694.7390963538,
      "d": 86.53846875001909,
      "v": 74
    },
    {
      "midi": 59,
      "hit": false,
      "t": 330920.7006536455,
      "d": 86.53846875001909,
      "v": 77
    },
    {
      "midi": 62,
      "hit": false,
      "t": 330920.7006536455,
      "d": 86.53846875001909,
      "v": 77
    },
    {
      "midi": 67,
      "hit": false,
      "t": 330920.7006536455,
      "d": 86.53846875001909,
      "v": 77
    },
    {
      "midi": 59,
      "hit": false,
      "t": 331151.4699036455,
      "d": 86.53846875001909,
      "v": 76
    },
    {
      "midi": 62,
      "hit": false,
      "t": 331151.4699036455,
      "d": 86.53846875001909,
      "v": 76
    },
    {
      "midi": 67,
      "hit": false,
      "t": 331151.4699036455,
      "d": 86.53846875001909,
      "v": 76
    },
    {
      "midi": 59,
      "hit": false,
      "t": 331384.6429999997,
      "d": 86.53846875001909,
      "v": 89
    },
    {
      "midi": 62,
      "hit": false,
      "t": 331384.6429999997,
      "d": 86.53846875001909,
      "v": 89
    },
    {
      "midi": 67,
      "hit": false,
      "t": 331384.6429999997,
      "d": 86.53846875001909,
      "v": 89
    },
    {
      "midi": 59,
      "hit": false,
      "t": 331617.81609635387,
      "d": 86.53846875001909,
      "v": 74
    },
    {
      "midi": 62,
      "hit": false,
      "t": 331617.81609635387,
      "d": 86.53846875001909,
      "v": 74
    },
    {
      "midi": 67,
      "hit": false,
      "t": 331617.81609635387,
      "d": 86.53846875001909,
      "v": 74
    },
    {
      "midi": 59,
      "hit": false,
      "t": 331843.77765364555,
      "d": 86.53846875001909,
      "v": 76
    },
    {
      "midi": 62,
      "hit": false,
      "t": 331843.77765364555,
      "d": 86.53846875001909,
      "v": 76
    },
    {
      "midi": 67,
      "hit": false,
      "t": 331843.77765364555,
      "d": 86.53846875001909,
      "v": 76
    },
    {
      "midi": 59,
      "hit": false,
      "t": 332081.75844270806,
      "d": 86.53846875001909,
      "v": 75
    },
    {
      "midi": 62,
      "hit": false,
      "t": 332081.75844270806,
      "d": 86.53846875001909,
      "v": 75
    },
    {
      "midi": 67,
      "hit": false,
      "t": 332081.75844270806,
      "d": 86.53846875001909,
      "v": 75
    },
    {
      "midi": 57,
      "hit": false,
      "t": 332307.71999999974,
      "d": 86.53846875001909,
      "v": 88
    },
    {
      "midi": 62,
      "hit": false,
      "t": 332307.71999999974,
      "d": 86.53846875001909,
      "v": 88
    },
    {
      "midi": 67,
      "hit": false,
      "t": 332307.71999999974,
      "d": 86.53846875001909,
      "v": 88
    },
    {
      "midi": 57,
      "hit": false,
      "t": 332538.48924999975,
      "d": 86.53846875001909,
      "v": 74
    },
    {
      "midi": 62,
      "hit": false,
      "t": 332538.48924999975,
      "d": 86.53846875001909,
      "v": 74
    },
    {
      "midi": 67,
      "hit": false,
      "t": 332538.48924999975,
      "d": 86.53846875001909,
      "v": 74
    },
    {
      "midi": 57,
      "hit": false,
      "t": 332762.04696093727,
      "d": 86.53846875001909,
      "v": 78
    },
    {
      "midi": 62,
      "hit": false,
      "t": 332762.04696093727,
      "d": 86.53846875001909,
      "v": 78
    },
    {
      "midi": 67,
      "hit": false,
      "t": 332762.04696093727,
      "d": 86.53846875001909,
      "v": 78
    },
    {
      "midi": 57,
      "hit": false,
      "t": 332995.22005729144,
      "d": 86.53846875001909,
      "v": 75
    },
    {
      "midi": 62,
      "hit": false,
      "t": 332995.22005729144,
      "d": 86.53846875001909,
      "v": 75
    },
    {
      "midi": 67,
      "hit": false,
      "t": 332995.22005729144,
      "d": 86.53846875001909,
      "v": 75
    },
    {
      "midi": 57,
      "hit": false,
      "t": 333228.3931536456,
      "d": 86.53846875001909,
      "v": 86
    },
    {
      "midi": 62,
      "hit": false,
      "t": 333228.3931536456,
      "d": 86.53846875001909,
      "v": 86
    },
    {
      "midi": 67,
      "hit": false,
      "t": 333228.3931536456,
      "d": 86.53846875001909,
      "v": 86
    },
    {
      "midi": 57,
      "hit": false,
      "t": 333461.5662499998,
      "d": 86.53846875001909,
      "v": 70
    },
    {
      "midi": 62,
      "hit": false,
      "t": 333461.5662499998,
      "d": 86.53846875001909,
      "v": 70
    },
    {
      "midi": 67,
      "hit": false,
      "t": 333461.5662499998,
      "d": 86.53846875001909,
      "v": 70
    },
    {
      "midi": 57,
      "hit": false,
      "t": 333687.5278072915,
      "d": 86.53846875001909,
      "v": 78
    },
    {
      "midi": 62,
      "hit": false,
      "t": 333687.5278072915,
      "d": 86.53846875001909,
      "v": 78
    },
    {
      "midi": 67,
      "hit": false,
      "t": 333687.5278072915,
      "d": 86.53846875001909,
      "v": 78
    },
    {
      "midi": 57,
      "hit": false,
      "t": 333920.70090364566,
      "d": 86.53846875001909,
      "v": 85
    },
    {
      "midi": 62,
      "hit": false,
      "t": 333920.70090364566,
      "d": 86.53846875001909,
      "v": 85
    },
    {
      "midi": 67,
      "hit": false,
      "t": 333920.70090364566,
      "d": 86.53846875001909,
      "v": 85
    },
    {
      "midi": 57,
      "hit": false,
      "t": 334151.47015364567,
      "d": 86.53846875001909,
      "v": 86
    },
    {
      "midi": 62,
      "hit": false,
      "t": 334151.47015364567,
      "d": 86.53846875001909,
      "v": 86
    },
    {
      "midi": 66,
      "hit": false,
      "t": 334151.47015364567,
      "d": 86.53846875001909,
      "v": 86
    },
    {
      "midi": 57,
      "hit": false,
      "t": 334384.64324999985,
      "d": 86.53846875001909,
      "v": 73
    },
    {
      "midi": 62,
      "hit": false,
      "t": 334384.64324999985,
      "d": 86.53846875001909,
      "v": 73
    },
    {
      "midi": 66,
      "hit": false,
      "t": 334384.64324999985,
      "d": 86.53846875001909,
      "v": 73
    },
    {
      "midi": 57,
      "hit": false,
      "t": 334610.60480729153,
      "d": 86.53846875001909,
      "v": 79
    },
    {
      "midi": 62,
      "hit": false,
      "t": 334610.60480729153,
      "d": 86.53846875001909,
      "v": 79
    },
    {
      "midi": 66,
      "hit": false,
      "t": 334610.60480729153,
      "d": 86.53846875001909,
      "v": 79
    },
    {
      "midi": 57,
      "hit": false,
      "t": 334843.7779036457,
      "d": 86.53846875001909,
      "v": 76
    },
    {
      "midi": 62,
      "hit": false,
      "t": 334843.7779036457,
      "d": 86.53846875001909,
      "v": 76
    },
    {
      "midi": 66,
      "hit": false,
      "t": 334843.7779036457,
      "d": 86.53846875001909,
      "v": 76
    },
    {
      "midi": 57,
      "hit": false,
      "t": 335076.9509999999,
      "d": 86.53846875001909,
      "v": 84
    },
    {
      "midi": 62,
      "hit": false,
      "t": 335076.9509999999,
      "d": 86.53846875001909,
      "v": 84
    },
    {
      "midi": 66,
      "hit": false,
      "t": 335076.9509999999,
      "d": 86.53846875001909,
      "v": 84
    },
    {
      "midi": 57,
      "hit": false,
      "t": 335307.7202499999,
      "d": 86.53846875001909,
      "v": 75
    },
    {
      "midi": 62,
      "hit": false,
      "t": 335307.7202499999,
      "d": 86.53846875001909,
      "v": 75
    },
    {
      "midi": 66,
      "hit": false,
      "t": 335307.7202499999,
      "d": 86.53846875001909,
      "v": 75
    },
    {
      "midi": 57,
      "hit": false,
      "t": 335538.4894999999,
      "d": 86.53846875001909,
      "v": 76
    },
    {
      "midi": 62,
      "hit": false,
      "t": 335538.4894999999,
      "d": 86.53846875001909,
      "v": 76
    },
    {
      "midi": 66,
      "hit": false,
      "t": 335538.4894999999,
      "d": 86.53846875001909,
      "v": 76
    },
    {
      "midi": 57,
      "hit": false,
      "t": 335769.2587499999,
      "d": 86.53846875001909,
      "v": 79
    },
    {
      "midi": 62,
      "hit": false,
      "t": 335769.2587499999,
      "d": 86.53846875001909,
      "v": 79
    },
    {
      "midi": 66,
      "hit": false,
      "t": 335769.2587499999,
      "d": 86.53846875001909,
      "v": 79
    },
    {
      "midi": 59,
      "hit": false,
      "t": 335995.2203072916,
      "d": 86.53846875001909,
      "v": 88
    },
    {
      "midi": 62,
      "hit": false,
      "t": 335995.2203072916,
      "d": 86.53846875001909,
      "v": 88
    },
    {
      "midi": 64,
      "hit": false,
      "t": 335995.2203072916,
      "d": 86.53846875001909,
      "v": 88
    },
    {
      "midi": 67,
      "hit": false,
      "t": 335995.2203072916,
      "d": 86.53846875001909,
      "v": 88
    },
    {
      "midi": 59,
      "hit": false,
      "t": 336230.79724999995,
      "d": 86.53846875001909,
      "v": 73
    },
    {
      "midi": 62,
      "hit": false,
      "t": 336230.79724999995,
      "d": 86.53846875001909,
      "v": 73
    },
    {
      "midi": 64,
      "hit": false,
      "t": 336230.79724999995,
      "d": 86.53846875001909,
      "v": 73
    },
    {
      "midi": 67,
      "hit": false,
      "t": 336230.79724999995,
      "d": 86.53846875001909,
      "v": 73
    },
    {
      "midi": 59,
      "hit": false,
      "t": 336461.56649999996,
      "d": 86.53846875001909,
      "v": 75
    },
    {
      "midi": 62,
      "hit": false,
      "t": 336461.56649999996,
      "d": 86.53846875001909,
      "v": 75
    },
    {
      "midi": 64,
      "hit": false,
      "t": 336461.56649999996,
      "d": 86.53846875001909,
      "v": 75
    },
    {
      "midi": 67,
      "hit": false,
      "t": 336461.56649999996,
      "d": 86.53846875001909,
      "v": 75
    },
    {
      "midi": 59,
      "hit": false,
      "t": 336689.9319036458,
      "d": 86.53846875001909,
      "v": 76
    },
    {
      "midi": 62,
      "hit": false,
      "t": 336689.9319036458,
      "d": 86.53846875001909,
      "v": 76
    },
    {
      "midi": 64,
      "hit": false,
      "t": 336689.9319036458,
      "d": 86.53846875001909,
      "v": 76
    },
    {
      "midi": 67,
      "hit": false,
      "t": 336689.9319036458,
      "d": 86.53846875001909,
      "v": 76
    },
    {
      "midi": 59,
      "hit": false,
      "t": 336923.105,
      "d": 86.53846875001909,
      "v": 86
    },
    {
      "midi": 62,
      "hit": false,
      "t": 336923.105,
      "d": 86.53846875001909,
      "v": 86
    },
    {
      "midi": 64,
      "hit": false,
      "t": 336923.105,
      "d": 86.53846875001909,
      "v": 86
    },
    {
      "midi": 67,
      "hit": false,
      "t": 336923.105,
      "d": 86.53846875001909,
      "v": 86
    },
    {
      "midi": 59,
      "hit": false,
      "t": 337156.27809635416,
      "d": 86.53846875001909,
      "v": 72
    },
    {
      "midi": 62,
      "hit": false,
      "t": 337156.27809635416,
      "d": 86.53846875001909,
      "v": 72
    },
    {
      "midi": 64,
      "hit": false,
      "t": 337156.27809635416,
      "d": 86.53846875001909,
      "v": 72
    },
    {
      "midi": 67,
      "hit": false,
      "t": 337156.27809635416,
      "d": 86.53846875001909,
      "v": 72
    },
    {
      "midi": 59,
      "hit": false,
      "t": 337384.6435,
      "d": 86.53846875001909,
      "v": 76
    },
    {
      "midi": 62,
      "hit": false,
      "t": 337384.6435,
      "d": 86.53846875001909,
      "v": 76
    },
    {
      "midi": 64,
      "hit": false,
      "t": 337384.6435,
      "d": 86.53846875001909,
      "v": 76
    },
    {
      "midi": 67,
      "hit": false,
      "t": 337384.6435,
      "d": 86.53846875001909,
      "v": 76
    },
    {
      "midi": 59,
      "hit": false,
      "t": 337620.22044270835,
      "d": 86.53846875001909,
      "v": 84
    },
    {
      "midi": 62,
      "hit": false,
      "t": 337620.22044270835,
      "d": 86.53846875001909,
      "v": 84
    },
    {
      "midi": 64,
      "hit": false,
      "t": 337620.22044270835,
      "d": 86.53846875001909,
      "v": 84
    },
    {
      "midi": 67,
      "hit": false,
      "t": 337620.22044270835,
      "d": 86.53846875001909,
      "v": 84
    },
    {
      "midi": 59,
      "hit": false,
      "t": 337846.18200000003,
      "d": 86.53846875001909,
      "v": 84
    },
    {
      "midi": 62,
      "hit": false,
      "t": 337846.18200000003,
      "d": 86.53846875001909,
      "v": 84
    },
    {
      "midi": 64,
      "hit": false,
      "t": 337846.18200000003,
      "d": 86.53846875001909,
      "v": 84
    },
    {
      "midi": 67,
      "hit": false,
      "t": 337846.18200000003,
      "d": 86.53846875001909,
      "v": 84
    },
    {
      "midi": 59,
      "hit": false,
      "t": 338079.3550963542,
      "d": 86.53846875001909,
      "v": 72
    },
    {
      "midi": 62,
      "hit": false,
      "t": 338079.3550963542,
      "d": 86.53846875001909,
      "v": 72
    },
    {
      "midi": 64,
      "hit": false,
      "t": 338079.3550963542,
      "d": 86.53846875001909,
      "v": 72
    },
    {
      "midi": 67,
      "hit": false,
      "t": 338079.3550963542,
      "d": 86.53846875001909,
      "v": 72
    },
    {
      "midi": 59,
      "hit": false,
      "t": 338305.3166536459,
      "d": 86.53846875001909,
      "v": 78
    },
    {
      "midi": 62,
      "hit": false,
      "t": 338305.3166536459,
      "d": 86.53846875001909,
      "v": 78
    },
    {
      "midi": 64,
      "hit": false,
      "t": 338305.3166536459,
      "d": 86.53846875001909,
      "v": 78
    },
    {
      "midi": 67,
      "hit": false,
      "t": 338305.3166536459,
      "d": 86.53846875001909,
      "v": 78
    },
    {
      "midi": 59,
      "hit": false,
      "t": 338536.0859036459,
      "d": 86.53846875001909,
      "v": 75
    },
    {
      "midi": 62,
      "hit": false,
      "t": 338536.0859036459,
      "d": 86.53846875001909,
      "v": 75
    },
    {
      "midi": 64,
      "hit": false,
      "t": 338536.0859036459,
      "d": 86.53846875001909,
      "v": 75
    },
    {
      "midi": 67,
      "hit": false,
      "t": 338536.0859036459,
      "d": 86.53846875001909,
      "v": 75
    },
    {
      "midi": 59,
      "hit": false,
      "t": 338769.2590000001,
      "d": 86.53846875001909,
      "v": 90
    },
    {
      "midi": 62,
      "hit": false,
      "t": 338769.2590000001,
      "d": 86.53846875001909,
      "v": 90
    },
    {
      "midi": 64,
      "hit": false,
      "t": 338769.2590000001,
      "d": 86.53846875001909,
      "v": 90
    },
    {
      "midi": 67,
      "hit": false,
      "t": 338769.2590000001,
      "d": 86.53846875001909,
      "v": 90
    },
    {
      "midi": 59,
      "hit": false,
      "t": 339002.43209635426,
      "d": 86.53846875001909,
      "v": 71
    },
    {
      "midi": 62,
      "hit": false,
      "t": 339002.43209635426,
      "d": 86.53846875001909,
      "v": 71
    },
    {
      "midi": 64,
      "hit": false,
      "t": 339002.43209635426,
      "d": 86.53846875001909,
      "v": 71
    },
    {
      "midi": 67,
      "hit": false,
      "t": 339002.43209635426,
      "d": 86.53846875001909,
      "v": 71
    },
    {
      "midi": 59,
      "hit": false,
      "t": 339228.39365364594,
      "d": 86.53846875001909,
      "v": 78
    },
    {
      "midi": 62,
      "hit": false,
      "t": 339228.39365364594,
      "d": 86.53846875001909,
      "v": 78
    },
    {
      "midi": 64,
      "hit": false,
      "t": 339228.39365364594,
      "d": 86.53846875001909,
      "v": 78
    },
    {
      "midi": 67,
      "hit": false,
      "t": 339228.39365364594,
      "d": 86.53846875001909,
      "v": 78
    },
    {
      "midi": 59,
      "hit": false,
      "t": 339466.37444270845,
      "d": 86.53846875001909,
      "v": 77
    },
    {
      "midi": 62,
      "hit": false,
      "t": 339466.37444270845,
      "d": 86.53846875001909,
      "v": 77
    },
    {
      "midi": 64,
      "hit": false,
      "t": 339466.37444270845,
      "d": 86.53846875001909,
      "v": 77
    },
    {
      "midi": 67,
      "hit": false,
      "t": 339466.37444270845,
      "d": 86.53846875001909,
      "v": 77
    },
    {
      "midi": 61,
      "hit": false,
      "t": 339692.3360000001,
      "d": 86.53846875001909,
      "v": 86
    },
    {
      "midi": 64,
      "hit": false,
      "t": 339692.3360000001,
      "d": 86.53846875001909,
      "v": 82
    },
    {
      "midi": 69,
      "hit": false,
      "t": 339692.3360000001,
      "d": 86.53846875001909,
      "v": 82
    },
    {
      "midi": 61,
      "hit": false,
      "t": 339923.10525000014,
      "d": 86.53846875001909,
      "v": 86
    },
    {
      "midi": 64,
      "hit": false,
      "t": 339923.10525000014,
      "d": 86.53846875001909,
      "v": 86
    },
    {
      "midi": 69,
      "hit": false,
      "t": 339923.10525000014,
      "d": 86.53846875001909,
      "v": 86
    },
    {
      "midi": 61,
      "hit": false,
      "t": 340146.66296093765,
      "d": 86.53846875001909,
      "v": 85
    },
    {
      "midi": 64,
      "hit": false,
      "t": 340146.66296093765,
      "d": 86.53846875001909,
      "v": 85
    },
    {
      "midi": 69,
      "hit": false,
      "t": 340146.66296093765,
      "d": 86.53846875001909,
      "v": 85
    },
    {
      "midi": 61,
      "hit": false,
      "t": 340379.83605729183,
      "d": 86.53846875001909,
      "v": 83
    },
    {
      "midi": 64,
      "hit": false,
      "t": 340379.83605729183,
      "d": 86.53846875001909,
      "v": 77
    },
    {
      "midi": 69,
      "hit": false,
      "t": 340379.83605729183,
      "d": 86.53846875001909,
      "v": 87
    },
    {
      "midi": 61,
      "hit": false,
      "t": 340613.009153646,
      "d": 86.53846875001909,
      "v": 86
    },
    {
      "midi": 64,
      "hit": false,
      "t": 340613.009153646,
      "d": 86.53846875001909,
      "v": 86
    },
    {
      "midi": 69,
      "hit": false,
      "t": 340613.009153646,
      "d": 86.53846875001909,
      "v": 86
    },
    {
      "midi": 61,
      "hit": false,
      "t": 340846.1822500002,
      "d": 86.53846875001909,
      "v": 87
    },
    {
      "midi": 64,
      "hit": false,
      "t": 340846.1822500002,
      "d": 86.53846875001909,
      "v": 87
    },
    {
      "midi": 69,
      "hit": false,
      "t": 340846.1822500002,
      "d": 86.53846875001909,
      "v": 81
    },
    {
      "midi": 61,
      "hit": false,
      "t": 341072.14380729187,
      "d": 86.53846875001909,
      "v": 84
    },
    {
      "midi": 64,
      "hit": false,
      "t": 341072.14380729187,
      "d": 86.53846875001909,
      "v": 84
    },
    {
      "midi": 69,
      "hit": false,
      "t": 341072.14380729187,
      "d": 86.53846875001909,
      "v": 84
    },
    {
      "midi": 61,
      "hit": false,
      "t": 341305.31690364605,
      "d": 86.53846875001909,
      "v": 87
    },
    {
      "midi": 64,
      "hit": false,
      "t": 341305.31690364605,
      "d": 86.53846875001909,
      "v": 87
    },
    {
      "midi": 69,
      "hit": false,
      "t": 341305.31690364605,
      "d": 86.53846875001909,
      "v": 87
    },
    {
      "midi": 61,
      "hit": false,
      "t": 341536.08615364606,
      "d": 86.53846875001909,
      "v": 83
    },
    {
      "midi": 64,
      "hit": false,
      "t": 341536.08615364606,
      "d": 86.53846875001909,
      "v": 77
    },
    {
      "midi": 69,
      "hit": false,
      "t": 341536.08615364606,
      "d": 86.53846875001909,
      "v": 87
    },
    {
      "midi": 61,
      "hit": false,
      "t": 341769.25925000024,
      "d": 86.53846875001909,
      "v": 86
    },
    {
      "midi": 64,
      "hit": false,
      "t": 341769.25925000024,
      "d": 86.53846875001909,
      "v": 86
    },
    {
      "midi": 69,
      "hit": false,
      "t": 341769.25925000024,
      "d": 86.53846875001909,
      "v": 86
    },
    {
      "midi": 61,
      "hit": false,
      "t": 341995.2208072919,
      "d": 86.53846875001909,
      "v": 88
    },
    {
      "midi": 64,
      "hit": false,
      "t": 341995.2208072919,
      "d": 86.53846875001909,
      "v": 80
    },
    {
      "midi": 69,
      "hit": false,
      "t": 341995.2208072919,
      "d": 86.53846875001909,
      "v": 77
    },
    {
      "midi": 61,
      "hit": false,
      "t": 342228.3939036461,
      "d": 86.53846875001909,
      "v": 86
    },
    {
      "midi": 64,
      "hit": false,
      "t": 342228.3939036461,
      "d": 86.53846875001909,
      "v": 86
    },
    {
      "midi": 69,
      "hit": false,
      "t": 342228.3939036461,
      "d": 86.53846875001909,
      "v": 86
    },
    {
      "midi": 61,
      "hit": false,
      "t": 342461.5670000003,
      "d": 86.53846875001909,
      "v": 79
    },
    {
      "midi": 64,
      "hit": false,
      "t": 342461.5670000003,
      "d": 86.53846875001909,
      "v": 79
    },
    {
      "midi": 69,
      "hit": false,
      "t": 342461.5670000003,
      "d": 86.53846875001909,
      "v": 79
    },
    {
      "midi": 61,
      "hit": false,
      "t": 342692.3362500003,
      "d": 86.53846875001909,
      "v": 77
    },
    {
      "midi": 64,
      "hit": false,
      "t": 342692.3362500003,
      "d": 86.53846875001909,
      "v": 87
    },
    {
      "midi": 69,
      "hit": false,
      "t": 342692.3362500003,
      "d": 86.53846875001909,
      "v": 82
    },
    {
      "midi": 61,
      "hit": false,
      "t": 342923.1055000003,
      "d": 86.53846875001909,
      "v": 86
    },
    {
      "midi": 64,
      "hit": false,
      "t": 342923.1055000003,
      "d": 86.53846875001909,
      "v": 86
    },
    {
      "midi": 69,
      "hit": false,
      "t": 342923.1055000003,
      "d": 86.53846875001909,
      "v": 86
    },
    {
      "midi": 61,
      "hit": false,
      "t": 343153.8747500003,
      "d": 86.53846875001909,
      "v": 80
    },
    {
      "midi": 64,
      "hit": false,
      "t": 343153.8747500003,
      "d": 86.53846875001909,
      "v": 80
    },
    {
      "midi": 69,
      "hit": false,
      "t": 343153.8747500003,
      "d": 86.53846875001909,
      "v": 80
    },
    {
      "midi": 57,
      "hit": false,
      "t": 343379.836307292,
      "d": 86.53846875001909,
      "v": 80
    },
    {
      "midi": 62,
      "hit": false,
      "t": 343379.836307292,
      "d": 86.53846875001909,
      "v": 86
    },
    {
      "midi": 66,
      "hit": false,
      "t": 343379.836307292,
      "d": 86.53846875001909,
      "v": 82
    },
    {
      "midi": 57,
      "hit": false,
      "t": 343846.18250000034,
      "d": 86.53846875001909,
      "v": 85
    },
    {
      "midi": 62,
      "hit": false,
      "t": 343846.18250000034,
      "d": 86.53846875001909,
      "v": 85
    },
    {
      "midi": 66,
      "hit": false,
      "t": 343846.18250000034,
      "d": 86.53846875001909,
      "v": 85
    },
    {
      "midi": 57,
      "hit": false,
      "t": 344074.5479036462,
      "d": 86.53846875001909,
      "v": 88
    },
    {
      "midi": 62,
      "hit": false,
      "t": 344074.5479036462,
      "d": 86.53846875001909,
      "v": 77
    },
    {
      "midi": 66,
      "hit": false,
      "t": 344074.5479036462,
      "d": 86.53846875001909,
      "v": 82
    },
    {
      "midi": 57,
      "hit": false,
      "t": 344307.72100000037,
      "d": 86.53846875001909,
      "v": 83
    },
    {
      "midi": 62,
      "hit": false,
      "t": 344307.72100000037,
      "d": 86.53846875001909,
      "v": 83
    },
    {
      "midi": 66,
      "hit": false,
      "t": 344307.72100000037,
      "d": 86.53846875001909,
      "v": 83
    },
    {
      "midi": 57,
      "hit": false,
      "t": 344769.2595000004,
      "d": 86.53846875001909,
      "v": 77
    },
    {
      "midi": 62,
      "hit": false,
      "t": 344769.2595000004,
      "d": 86.53846875001909,
      "v": 83
    },
    {
      "midi": 66,
      "hit": false,
      "t": 344769.2595000004,
      "d": 86.53846875001909,
      "v": 81
    },
    {
      "midi": 57,
      "hit": false,
      "t": 345689.9326536462,
      "d": 86.53846875001909,
      "v": 87
    },
    {
      "midi": 62,
      "hit": false,
      "t": 345689.9326536462,
      "d": 86.53846875001909,
      "v": 87
    },
    {
      "midi": 66,
      "hit": false,
      "t": 345689.9326536462,
      "d": 86.53846875001909,
      "v": 87
    },
    {
      "midi": 57,
      "hit": false,
      "t": 346153.8750000004,
      "d": 86.53846875001909,
      "v": 83
    },
    {
      "midi": 62,
      "hit": false,
      "t": 346153.8750000004,
      "d": 86.53846875001909,
      "v": 83
    },
    {
      "midi": 66,
      "hit": false,
      "t": 346153.8750000004,
      "d": 86.53846875001909,
      "v": 83
    },
    {
      "midi": 57,
      "hit": false,
      "t": 346387.0480963546,
      "d": 86.53846875001909,
      "v": 87
    },
    {
      "midi": 62,
      "hit": false,
      "t": 346387.0480963546,
      "d": 86.53846875001909,
      "v": 80
    },
    {
      "midi": 66,
      "hit": false,
      "t": 346387.0480963546,
      "d": 86.53846875001909,
      "v": 77
    },
    {
      "midi": 57,
      "hit": false,
      "t": 346613.00965364627,
      "d": 86.53846875001909,
      "v": 80
    },
    {
      "midi": 62,
      "hit": false,
      "t": 346613.00965364627,
      "d": 86.53846875001909,
      "v": 80
    },
    {
      "midi": 66,
      "hit": false,
      "t": 346613.00965364627,
      "d": 86.53846875001909,
      "v": 80
    },
    {
      "midi": 57,
      "hit": false,
      "t": 347076.95200000046,
      "d": 86.53846875001909,
      "v": 87
    },
    {
      "midi": 61,
      "hit": false,
      "t": 347076.95200000046,
      "d": 86.53846875001909,
      "v": 77
    },
    {
      "midi": 66,
      "hit": false,
      "t": 347076.95200000046,
      "d": 86.53846875001909,
      "v": 83
    },
    {
      "midi": 57,
      "hit": false,
      "t": 347531.278960938,
      "d": 86.53846875001909,
      "v": 85
    },
    {
      "midi": 61,
      "hit": false,
      "t": 347531.278960938,
      "d": 86.53846875001909,
      "v": 85
    },
    {
      "midi": 66,
      "hit": false,
      "t": 347531.278960938,
      "d": 86.53846875001909,
      "v": 85
    },
    {
      "midi": 57,
      "hit": false,
      "t": 347764.45205729216,
      "d": 86.53846875001909,
      "v": 86
    },
    {
      "midi": 61,
      "hit": false,
      "t": 347764.45205729216,
      "d": 86.53846875001909,
      "v": 87
    },
    {
      "midi": 67,
      "hit": false,
      "t": 347764.45205729216,
      "d": 86.53846875001909,
      "v": 88
    },
    {
      "midi": 57,
      "hit": false,
      "t": 347997.62515364634,
      "d": 86.53846875001909,
      "v": 83
    },
    {
      "midi": 61,
      "hit": false,
      "t": 347997.62515364634,
      "d": 86.53846875001909,
      "v": 83
    },
    {
      "midi": 67,
      "hit": false,
      "t": 347997.62515364634,
      "d": 86.53846875001909,
      "v": 83
    },
    {
      "midi": 57,
      "hit": false,
      "t": 348456.7598072922,
      "d": 86.53846875001909,
      "v": 85
    },
    {
      "midi": 61,
      "hit": false,
      "t": 348456.7598072922,
      "d": 86.53846875001909,
      "v": 87
    },
    {
      "midi": 67,
      "hit": false,
      "t": 348456.7598072922,
      "d": 86.53846875001909,
      "v": 77
    },
    {
      "midi": 57,
      "hit": false,
      "t": 349379.8368072922,
      "d": 86.53846875001909,
      "v": 87
    },
    {
      "midi": 61,
      "hit": false,
      "t": 349379.8368072922,
      "d": 86.53846875001909,
      "v": 87
    },
    {
      "midi": 67,
      "hit": false,
      "t": 349379.8368072922,
      "d": 86.53846875001909,
      "v": 88
    },
    {
      "midi": 57,
      "hit": false,
      "t": 349846.18300000054,
      "d": 86.53846875001909,
      "v": 84
    },
    {
      "midi": 61,
      "hit": false,
      "t": 349846.18300000054,
      "d": 86.53846875001909,
      "v": 84
    },
    {
      "midi": 67,
      "hit": false,
      "t": 349846.18300000054,
      "d": 86.53846875001909,
      "v": 84
    },
    {
      "midi": 57,
      "hit": false,
      "t": 350076.95225000056,
      "d": 86.53846875001909,
      "v": 87
    },
    {
      "midi": 61,
      "hit": false,
      "t": 350076.95225000056,
      "d": 86.53846875001909,
      "v": 87
    },
    {
      "midi": 67,
      "hit": false,
      "t": 350076.95225000056,
      "d": 86.53846875001909,
      "v": 87
    },
    {
      "midi": 57,
      "hit": false,
      "t": 350307.72150000057,
      "d": 86.53846875001909,
      "v": 87
    },
    {
      "midi": 61,
      "hit": false,
      "t": 350307.72150000057,
      "d": 86.53846875001909,
      "v": 87
    },
    {
      "midi": 67,
      "hit": false,
      "t": 350307.72150000057,
      "d": 86.53846875001909,
      "v": 87
    },
    {
      "midi": 59,
      "hit": false,
      "t": 350764.45230729226,
      "d": 86.53846875001909,
      "v": 77
    },
    {
      "midi": 62,
      "hit": false,
      "t": 350764.45230729226,
      "d": 86.53846875001909,
      "v": 77
    },
    {
      "midi": 66,
      "hit": false,
      "t": 350764.45230729226,
      "d": 86.53846875001909,
      "v": 87
    },
    {
      "midi": 59,
      "hit": false,
      "t": 351230.7985000006,
      "d": 86.53846875001909,
      "v": 85
    },
    {
      "midi": 62,
      "hit": false,
      "t": 351230.7985000006,
      "d": 86.53846875001909,
      "v": 85
    },
    {
      "midi": 66,
      "hit": false,
      "t": 351230.7985000006,
      "d": 86.53846875001909,
      "v": 85
    },
    {
      "midi": 59,
      "hit": false,
      "t": 351459.16390364646,
      "d": 86.53846875001909,
      "v": 77
    },
    {
      "midi": 62,
      "hit": false,
      "t": 351459.16390364646,
      "d": 86.53846875001909,
      "v": 77
    },
    {
      "midi": 66,
      "hit": false,
      "t": 351459.16390364646,
      "d": 86.53846875001909,
      "v": 77
    },
    {
      "midi": 59,
      "hit": false,
      "t": 351692.33700000064,
      "d": 86.53846875001909,
      "v": 83
    },
    {
      "midi": 62,
      "hit": false,
      "t": 351692.33700000064,
      "d": 86.53846875001909,
      "v": 83
    },
    {
      "midi": 66,
      "hit": false,
      "t": 351692.33700000064,
      "d": 86.53846875001909,
      "v": 83
    },
    {
      "midi": 59,
      "hit": false,
      "t": 352153.87550000066,
      "d": 86.53846875001909,
      "v": 87
    },
    {
      "midi": 62,
      "hit": false,
      "t": 352153.87550000066,
      "d": 86.53846875001909,
      "v": 77
    },
    {
      "midi": 66,
      "hit": false,
      "t": 352153.87550000066,
      "d": 86.53846875001909,
      "v": 87
    },
    {
      "midi": 59,
      "hit": false,
      "t": 353074.5486536465,
      "d": 86.53846875001909,
      "v": 87
    },
    {
      "midi": 62,
      "hit": false,
      "t": 353074.5486536465,
      "d": 86.53846875001909,
      "v": 87
    },
    {
      "midi": 66,
      "hit": false,
      "t": 353074.5486536465,
      "d": 86.53846875001909,
      "v": 87
    },
    {
      "midi": 59,
      "hit": false,
      "t": 353538.4910000007,
      "d": 86.53846875001909,
      "v": 82
    },
    {
      "midi": 62,
      "hit": false,
      "t": 353538.4910000007,
      "d": 86.53846875001909,
      "v": 82
    },
    {
      "midi": 66,
      "hit": false,
      "t": 353538.4910000007,
      "d": 86.53846875001909,
      "v": 82
    },
    {
      "midi": 59,
      "hit": false,
      "t": 353771.66409635486,
      "d": 86.53846875001909,
      "v": 87
    },
    {
      "midi": 62,
      "hit": false,
      "t": 353771.66409635486,
      "d": 86.53846875001909,
      "v": 86
    },
    {
      "midi": 66,
      "hit": false,
      "t": 353771.66409635486,
      "d": 86.53846875001909,
      "v": 87
    },
    {
      "midi": 59,
      "hit": false,
      "t": 353997.62565364654,
      "d": 86.53846875001909,
      "v": 79
    },
    {
      "midi": 62,
      "hit": false,
      "t": 353997.62565364654,
      "d": 86.53846875001909,
      "v": 79
    },
    {
      "midi": 66,
      "hit": false,
      "t": 353997.62565364654,
      "d": 86.53846875001909,
      "v": 79
    },
    {
      "midi": 57,
      "hit": false,
      "t": 354461.5680000007,
      "d": 86.53846875001909,
      "v": 80
    },
    {
      "midi": 62,
      "hit": false,
      "t": 354461.5680000007,
      "d": 86.53846875001909,
      "v": 83
    },
    {
      "midi": 66,
      "hit": false,
      "t": 354461.5680000007,
      "d": 86.53846875001909,
      "v": 81
    },
    {
      "midi": 57,
      "hit": false,
      "t": 354915.89496093825,
      "d": 86.53846875001909,
      "v": 85
    },
    {
      "midi": 62,
      "hit": false,
      "t": 354915.89496093825,
      "d": 86.53846875001909,
      "v": 85
    },
    {
      "midi": 66,
      "hit": false,
      "t": 354915.89496093825,
      "d": 86.53846875001909,
      "v": 85
    },
    {
      "midi": 57,
      "hit": false,
      "t": 355149.06805729243,
      "d": 86.53846875001909,
      "v": 86
    },
    {
      "midi": 62,
      "hit": false,
      "t": 355149.06805729243,
      "d": 86.53846875001909,
      "v": 88
    },
    {
      "midi": 66,
      "hit": false,
      "t": 355149.06805729243,
      "d": 86.53846875001909,
      "v": 87
    },
    {
      "midi": 57,
      "hit": false,
      "t": 355382.2411536466,
      "d": 86.53846875001909,
      "v": 84
    },
    {
      "midi": 62,
      "hit": false,
      "t": 355382.2411536466,
      "d": 86.53846875001909,
      "v": 84
    },
    {
      "midi": 66,
      "hit": false,
      "t": 355382.2411536466,
      "d": 86.53846875001909,
      "v": 84
    },
    {
      "midi": 57,
      "hit": false,
      "t": 355841.37580729247,
      "d": 86.53846875001909,
      "v": 87
    },
    {
      "midi": 62,
      "hit": false,
      "t": 355841.37580729247,
      "d": 86.53846875001909,
      "v": 87
    },
    {
      "midi": 66,
      "hit": false,
      "t": 355841.37580729247,
      "d": 86.53846875001909,
      "v": 80
    },
    {
      "midi": 57,
      "hit": false,
      "t": 356764.45280729246,
      "d": 86.53846875001909,
      "v": 88
    },
    {
      "midi": 62,
      "hit": false,
      "t": 356764.45280729246,
      "d": 86.53846875001909,
      "v": 88
    },
    {
      "midi": 66,
      "hit": false,
      "t": 356764.45280729246,
      "d": 86.53846875001909,
      "v": 80
    },
    {
      "midi": 57,
      "hit": false,
      "t": 357230.7990000008,
      "d": 86.53846875001909,
      "v": 83
    },
    {
      "midi": 62,
      "hit": false,
      "t": 357230.7990000008,
      "d": 86.53846875001909,
      "v": 83
    },
    {
      "midi": 66,
      "hit": false,
      "t": 357230.7990000008,
      "d": 86.53846875001909,
      "v": 83
    },
    {
      "midi": 57,
      "hit": false,
      "t": 357461.5682500008,
      "d": 86.53846875001909,
      "v": 86
    },
    {
      "midi": 62,
      "hit": false,
      "t": 357461.5682500008,
      "d": 86.53846875001909,
      "v": 86
    },
    {
      "midi": 66,
      "hit": false,
      "t": 357461.5682500008,
      "d": 86.53846875001909,
      "v": 77
    },
    {
      "midi": 57,
      "hit": false,
      "t": 357692.33750000084,
      "d": 86.53846875001909,
      "v": 87
    },
    {
      "midi": 62,
      "hit": false,
      "t": 357692.33750000084,
      "d": 86.53846875001909,
      "v": 86
    },
    {
      "midi": 66,
      "hit": false,
      "t": 357692.33750000084,
      "d": 86.53846875001909,
      "v": 87
    },
    {
      "midi": 59,
      "hit": false,
      "t": 358149.06830729253,
      "d": 86.53846875001909,
      "v": 87
    },
    {
      "midi": 62,
      "hit": false,
      "t": 358149.06830729253,
      "d": 86.53846875001909,
      "v": 80
    },
    {
      "midi": 66,
      "hit": false,
      "t": 358149.06830729253,
      "d": 86.53846875001909,
      "v": 87
    },
    {
      "midi": 59,
      "hit": false,
      "t": 358615.4145000009,
      "d": 86.53846875001909,
      "v": 84
    },
    {
      "midi": 62,
      "hit": false,
      "t": 358615.4145000009,
      "d": 86.53846875001909,
      "v": 84
    },
    {
      "midi": 66,
      "hit": false,
      "t": 358615.4145000009,
      "d": 86.53846875001909,
      "v": 84
    },
    {
      "midi": 59,
      "hit": false,
      "t": 358843.77990364673,
      "d": 86.53846875001909,
      "v": 80
    },
    {
      "midi": 62,
      "hit": false,
      "t": 358843.77990364673,
      "d": 86.53846875001909,
      "v": 80
    },
    {
      "midi": 66,
      "hit": false,
      "t": 358843.77990364673,
      "d": 86.53846875001909,
      "v": 80
    },
    {
      "midi": 59,
      "hit": false,
      "t": 359076.9530000009,
      "d": 86.53846875001909,
      "v": 86
    },
    {
      "midi": 62,
      "hit": false,
      "t": 359076.9530000009,
      "d": 86.53846875001909,
      "v": 86
    },
    {
      "midi": 66,
      "hit": false,
      "t": 359076.9530000009,
      "d": 86.53846875001909,
      "v": 86
    },
    {
      "midi": 59,
      "hit": false,
      "t": 359538.49150000094,
      "d": 86.53846875001909,
      "v": 86
    },
    {
      "midi": 62,
      "hit": false,
      "t": 359538.49150000094,
      "d": 86.53846875001909,
      "v": 87
    },
    {
      "midi": 66,
      "hit": false,
      "t": 359538.49150000094,
      "d": 86.53846875001909,
      "v": 87
    },
    {
      "midi": 59,
      "hit": false,
      "t": 360459.16465364676,
      "d": 86.53846875001909,
      "v": 87
    },
    {
      "midi": 62,
      "hit": false,
      "t": 360459.16465364676,
      "d": 86.53846875001909,
      "v": 81
    },
    {
      "midi": 66,
      "hit": false,
      "t": 360459.16465364676,
      "d": 86.53846875001909,
      "v": 88
    },
    {
      "midi": 59,
      "hit": false,
      "t": 360923.10700000095,
      "d": 86.53846875001909,
      "v": 83
    },
    {
      "midi": 62,
      "hit": false,
      "t": 360923.10700000095,
      "d": 86.53846875001909,
      "v": 83
    },
    {
      "midi": 66,
      "hit": false,
      "t": 360923.10700000095,
      "d": 86.53846875001909,
      "v": 83
    },
    {
      "midi": 59,
      "hit": false,
      "t": 361156.2800963551,
      "d": 86.53846875001909,
      "v": 87
    },
    {
      "midi": 62,
      "hit": false,
      "t": 361156.2800963551,
      "d": 86.53846875001909,
      "v": 88
    },
    {
      "midi": 66,
      "hit": false,
      "t": 361156.2800963551,
      "d": 86.53846875001909,
      "v": 87
    },
    {
      "midi": 59,
      "hit": false,
      "t": 361382.2416536468,
      "d": 86.53846875001909,
      "v": 77
    },
    {
      "midi": 62,
      "hit": false,
      "t": 361382.2416536468,
      "d": 86.53846875001909,
      "v": 77
    },
    {
      "midi": 66,
      "hit": false,
      "t": 361382.2416536468,
      "d": 86.53846875001909,
      "v": 77
    },
    {
      "midi": 57,
      "hit": false,
      "t": 361846.184000001,
      "d": 86.53846875001909,
      "v": 82
    },
    {
      "midi": 62,
      "hit": false,
      "t": 361846.184000001,
      "d": 86.53846875001909,
      "v": 86
    },
    {
      "midi": 66,
      "hit": false,
      "t": 361846.184000001,
      "d": 86.53846875001909,
      "v": 81
    },
    {
      "midi": 57,
      "hit": false,
      "t": 362300.5109609385,
      "d": 86.53846875001909,
      "v": 85
    },
    {
      "midi": 62,
      "hit": false,
      "t": 362300.5109609385,
      "d": 86.53846875001909,
      "v": 85
    },
    {
      "midi": 66,
      "hit": false,
      "t": 362300.5109609385,
      "d": 86.53846875001909,
      "v": 85
    },
    {
      "midi": 57,
      "hit": false,
      "t": 362533.6840572927,
      "d": 86.53846875001909,
      "v": 86
    },
    {
      "midi": 62,
      "hit": false,
      "t": 362533.6840572927,
      "d": 86.53846875001909,
      "v": 87
    },
    {
      "midi": 66,
      "hit": false,
      "t": 362533.6840572927,
      "d": 86.53846875001909,
      "v": 86
    },
    {
      "midi": 57,
      "hit": false,
      "t": 362766.8571536469,
      "d": 86.53846875001909,
      "v": 83
    },
    {
      "midi": 62,
      "hit": false,
      "t": 362766.8571536469,
      "d": 86.53846875001909,
      "v": 83
    },
    {
      "midi": 66,
      "hit": false,
      "t": 362766.8571536469,
      "d": 86.53846875001909,
      "v": 83
    },
    {
      "midi": 57,
      "hit": false,
      "t": 363225.99180729274,
      "d": 86.53846875001909,
      "v": 86
    },
    {
      "midi": 62,
      "hit": false,
      "t": 363225.99180729274,
      "d": 86.53846875001909,
      "v": 87
    },
    {
      "midi": 66,
      "hit": false,
      "t": 363225.99180729274,
      "d": 86.53846875001909,
      "v": 77
    },
    {
      "midi": 57,
      "hit": false,
      "t": 364149.06880729273,
      "d": 86.53846875001909,
      "v": 88
    },
    {
      "midi": 62,
      "hit": false,
      "t": 364149.06880729273,
      "d": 86.53846875001909,
      "v": 80
    },
    {
      "midi": 66,
      "hit": false,
      "t": 364149.06880729273,
      "d": 86.53846875001909,
      "v": 80
    },
    {
      "midi": 57,
      "hit": false,
      "t": 364615.4150000011,
      "d": 86.53846875001909,
      "v": 83
    },
    {
      "midi": 62,
      "hit": false,
      "t": 364615.4150000011,
      "d": 86.53846875001909,
      "v": 83
    },
    {
      "midi": 66,
      "hit": false,
      "t": 364615.4150000011,
      "d": 86.53846875001909,
      "v": 83
    },
    {
      "midi": 57,
      "hit": false,
      "t": 364846.1842500011,
      "d": 86.53846875001909,
      "v": 88
    },
    {
      "midi": 62,
      "hit": false,
      "t": 364846.1842500011,
      "d": 86.53846875001909,
      "v": 86
    },
    {
      "midi": 66,
      "hit": false,
      "t": 364846.1842500011,
      "d": 86.53846875001909,
      "v": 88
    },
    {
      "midi": 57,
      "hit": false,
      "t": 365076.9535000011,
      "d": 86.53846875001909,
      "v": 88
    },
    {
      "midi": 62,
      "hit": false,
      "t": 365076.9535000011,
      "d": 86.53846875001909,
      "v": 86
    },
    {
      "midi": 66,
      "hit": false,
      "t": 365076.9535000011,
      "d": 86.53846875001909,
      "v": 88
    },
    {
      "midi": 59,
      "hit": false,
      "t": 365533.6843072928,
      "d": 86.53846875001909,
      "v": 86
    },
    {
      "midi": 62,
      "hit": false,
      "t": 365533.6843072928,
      "d": 86.53846875001909,
      "v": 87
    },
    {
      "midi": 67,
      "hit": false,
      "t": 365533.6843072928,
      "d": 86.53846875001909,
      "v": 80
    },
    {
      "midi": 59,
      "hit": false,
      "t": 366000.03050000116,
      "d": 86.53846875001909,
      "v": 85
    },
    {
      "midi": 62,
      "hit": false,
      "t": 366000.03050000116,
      "d": 86.53846875001909,
      "v": 85
    },
    {
      "midi": 67,
      "hit": false,
      "t": 366000.03050000116,
      "d": 86.53846875001909,
      "v": 85
    },
    {
      "midi": 59,
      "hit": false,
      "t": 366228.395903647,
      "d": 86.53846875001909,
      "v": 87
    },
    {
      "midi": 62,
      "hit": false,
      "t": 366228.395903647,
      "d": 86.53846875001909,
      "v": 87
    },
    {
      "midi": 67,
      "hit": false,
      "t": 366228.395903647,
      "d": 86.53846875001909,
      "v": 86
    },
    {
      "midi": 59,
      "hit": false,
      "t": 366461.5690000012,
      "d": 86.53846875001909,
      "v": 83
    },
    {
      "midi": 62,
      "hit": false,
      "t": 366461.5690000012,
      "d": 86.53846875001909,
      "v": 83
    },
    {
      "midi": 67,
      "hit": false,
      "t": 366461.5690000012,
      "d": 86.53846875001909,
      "v": 83
    },
    {
      "midi": 59,
      "hit": false,
      "t": 366923.1075000012,
      "d": 86.53846875001909,
      "v": 86
    },
    {
      "midi": 62,
      "hit": false,
      "t": 366923.1075000012,
      "d": 86.53846875001909,
      "v": 87
    },
    {
      "midi": 67,
      "hit": false,
      "t": 366923.1075000012,
      "d": 86.53846875001909,
      "v": 86
    },
    {
      "midi": 59,
      "hit": false,
      "t": 367843.78065364703,
      "d": 86.53846875001909,
      "v": 87
    },
    {
      "midi": 62,
      "hit": false,
      "t": 367843.78065364703,
      "d": 86.53846875001909,
      "v": 77
    },
    {
      "midi": 67,
      "hit": false,
      "t": 367843.78065364703,
      "d": 86.53846875001909,
      "v": 77
    },
    {
      "midi": 59,
      "hit": false,
      "t": 368307.7230000012,
      "d": 86.53846875001909,
      "v": 85
    },
    {
      "midi": 62,
      "hit": false,
      "t": 368307.7230000012,
      "d": 86.53846875001909,
      "v": 85
    },
    {
      "midi": 67,
      "hit": false,
      "t": 368307.7230000012,
      "d": 86.53846875001909,
      "v": 85
    },
    {
      "midi": 59,
      "hit": false,
      "t": 368540.8960963554,
      "d": 86.53846875001909,
      "v": 88
    },
    {
      "midi": 62,
      "hit": false,
      "t": 368540.8960963554,
      "d": 86.53846875001909,
      "v": 87
    },
    {
      "midi": 67,
      "hit": false,
      "t": 368540.8960963554,
      "d": 86.53846875001909,
      "v": 82
    },
    {
      "midi": 59,
      "hit": false,
      "t": 368766.8576536471,
      "d": 86.53846875001909,
      "v": 87
    },
    {
      "midi": 62,
      "hit": false,
      "t": 368766.8576536471,
      "d": 86.53846875001909,
      "v": 87
    },
    {
      "midi": 67,
      "hit": false,
      "t": 368766.8576536471,
      "d": 86.53846875001909,
      "v": 86
    },
    {
      "midi": 61,
      "hit": false,
      "t": 369230.80000000127,
      "d": 86.53846875001909,
      "v": 86
    },
    {
      "midi": 64,
      "hit": false,
      "t": 369230.80000000127,
      "d": 86.53846875001909,
      "v": 82
    },
    {
      "midi": 69,
      "hit": false,
      "t": 369230.80000000127,
      "d": 86.53846875001909,
      "v": 82
    },
    {
      "midi": 61,
      "hit": false,
      "t": 369685.1269609388,
      "d": 86.53846875001909,
      "v": 85
    },
    {
      "midi": 64,
      "hit": false,
      "t": 369685.1269609388,
      "d": 86.53846875001909,
      "v": 85
    },
    {
      "midi": 69,
      "hit": false,
      "t": 369685.1269609388,
      "d": 86.53846875001909,
      "v": 85
    },
    {
      "midi": 61,
      "hit": false,
      "t": 369918.300057293,
      "d": 86.53846875001909,
      "v": 83
    },
    {
      "midi": 64,
      "hit": false,
      "t": 369918.300057293,
      "d": 86.53846875001909,
      "v": 77
    },
    {
      "midi": 69,
      "hit": false,
      "t": 369918.300057293,
      "d": 86.53846875001909,
      "v": 87
    },
    {
      "midi": 61,
      "hit": false,
      "t": 370151.47315364715,
      "d": 86.53846875001909,
      "v": 84
    },
    {
      "midi": 64,
      "hit": false,
      "t": 370151.47315364715,
      "d": 86.53846875001909,
      "v": 84
    },
    {
      "midi": 69,
      "hit": false,
      "t": 370151.47315364715,
      "d": 86.53846875001909,
      "v": 84
    },
    {
      "midi": 61,
      "hit": false,
      "t": 370610.607807293,
      "d": 86.53846875001909,
      "v": 87
    },
    {
      "midi": 64,
      "hit": false,
      "t": 370610.607807293,
      "d": 86.53846875001909,
      "v": 87
    },
    {
      "midi": 69,
      "hit": false,
      "t": 370610.607807293,
      "d": 86.53846875001909,
      "v": 81
    },
    {
      "midi": 61,
      "hit": false,
      "t": 371533.684807293,
      "d": 86.53846875001909,
      "v": 88
    },
    {
      "midi": 64,
      "hit": false,
      "t": 371533.684807293,
      "d": 86.53846875001909,
      "v": 80
    },
    {
      "midi": 69,
      "hit": false,
      "t": 371533.684807293,
      "d": 86.53846875001909,
      "v": 77
    },
    {
      "midi": 61,
      "hit": false,
      "t": 372000.03100000136,
      "d": 86.53846875001909,
      "v": 85
    },
    {
      "midi": 64,
      "hit": false,
      "t": 372000.03100000136,
      "d": 86.53846875001909,
      "v": 85
    },
    {
      "midi": 69,
      "hit": false,
      "t": 372000.03100000136,
      "d": 86.53846875001909,
      "v": 85
    },
    {
      "midi": 61,
      "hit": false,
      "t": 372230.80025000137,
      "d": 86.53846875001909,
      "v": 77
    },
    {
      "midi": 64,
      "hit": false,
      "t": 372230.80025000137,
      "d": 86.53846875001909,
      "v": 87
    },
    {
      "midi": 69,
      "hit": false,
      "t": 372230.80025000137,
      "d": 86.53846875001909,
      "v": 82
    },
    {
      "midi": 61,
      "hit": false,
      "t": 372461.5695000014,
      "d": 86.53846875001909,
      "v": 83
    },
    {
      "midi": 64,
      "hit": false,
      "t": 372461.5695000014,
      "d": 86.53846875001909,
      "v": 77
    },
    {
      "midi": 69,
      "hit": false,
      "t": 372461.5695000014,
      "d": 86.53846875001909,
      "v": 87
    },
    {
      "midi": 57,
      "hit": false,
      "t": 372918.3003072931,
      "d": 86.53846875001909,
      "v": 80
    },
    {
      "midi": 62,
      "hit": false,
      "t": 372918.3003072931,
      "d": 86.53846875001909,
      "v": 86
    },
    {
      "midi": 66,
      "hit": false,
      "t": 372918.3003072931,
      "d": 86.53846875001909,
      "v": 82
    },
    {
      "midi": 57,
      "hit": false,
      "t": 373384.6465000014,
      "d": 86.53846875001909,
      "v": 85
    },
    {
      "midi": 62,
      "hit": false,
      "t": 373384.6465000014,
      "d": 86.53846875001909,
      "v": 85
    },
    {
      "midi": 66,
      "hit": false,
      "t": 373384.6465000014,
      "d": 86.53846875001909,
      "v": 85
    },
    {
      "midi": 57,
      "hit": false,
      "t": 373613.0119036473,
      "d": 86.53846875001909,
      "v": 88
    },
    {
      "midi": 62,
      "hit": false,
      "t": 373613.0119036473,
      "d": 86.53846875001909,
      "v": 77
    },
    {
      "midi": 66,
      "hit": false,
      "t": 373613.0119036473,
      "d": 86.53846875001909,
      "v": 82
    },
    {
      "midi": 57,
      "hit": false,
      "t": 373846.18500000145,
      "d": 86.53846875001909,
      "v": 83
    },
    {
      "midi": 62,
      "hit": false,
      "t": 373846.18500000145,
      "d": 86.53846875001909,
      "v": 83
    },
    {
      "midi": 66,
      "hit": false,
      "t": 373846.18500000145,
      "d": 86.53846875001909,
      "v": 83
    },
    {
      "midi": 57,
      "hit": false,
      "t": 374307.7235000015,
      "d": 86.53846875001909,
      "v": 77
    },
    {
      "midi": 62,
      "hit": false,
      "t": 374307.7235000015,
      "d": 86.53846875001909,
      "v": 83
    },
    {
      "midi": 66,
      "hit": false,
      "t": 374307.7235000015,
      "d": 86.53846875001909,
      "v": 81
    },
    {
      "midi": 57,
      "hit": false,
      "t": 375228.3966536473,
      "d": 86.53846875001909,
      "v": 87
    },
    {
      "midi": 62,
      "hit": false,
      "t": 375228.3966536473,
      "d": 86.53846875001909,
      "v": 87
    },
    {
      "midi": 66,
      "hit": false,
      "t": 375228.3966536473,
      "d": 86.53846875001909,
      "v": 87
    },
    {
      "midi": 57,
      "hit": false,
      "t": 375692.3390000015,
      "d": 86.53846875001909,
      "v": 83
    },
    {
      "midi": 62,
      "hit": false,
      "t": 375692.3390000015,
      "d": 86.53846875001909,
      "v": 83
    },
    {
      "midi": 66,
      "hit": false,
      "t": 375692.3390000015,
      "d": 86.53846875001909,
      "v": 83
    },
    {
      "midi": 57,
      "hit": false,
      "t": 375925.51209635567,
      "d": 86.53846875001909,
      "v": 87
    },
    {
      "midi": 62,
      "hit": false,
      "t": 375925.51209635567,
      "d": 86.53846875001909,
      "v": 80
    },
    {
      "midi": 66,
      "hit": false,
      "t": 375925.51209635567,
      "d": 86.53846875001909,
      "v": 77
    },
    {
      "midi": 57,
      "hit": false,
      "t": 376151.47365364735,
      "d": 86.53846875001909,
      "v": 80
    },
    {
      "midi": 62,
      "hit": false,
      "t": 376151.47365364735,
      "d": 86.53846875001909,
      "v": 80
    },
    {
      "midi": 66,
      "hit": false,
      "t": 376151.47365364735,
      "d": 86.53846875001909,
      "v": 80
    },
    {
      "midi": 57,
      "hit": false,
      "t": 376615.41600000154,
      "d": 86.53846875001909,
      "v": 87
    },
    {
      "midi": 61,
      "hit": false,
      "t": 376615.41600000154,
      "d": 86.53846875001909,
      "v": 77
    },
    {
      "midi": 66,
      "hit": false,
      "t": 376615.41600000154,
      "d": 86.53846875001909,
      "v": 83
    },
    {
      "midi": 57,
      "hit": false,
      "t": 377069.74296093907,
      "d": 86.53846875001909,
      "v": 85
    },
    {
      "midi": 61,
      "hit": false,
      "t": 377069.74296093907,
      "d": 86.53846875001909,
      "v": 85
    },
    {
      "midi": 66,
      "hit": false,
      "t": 377069.74296093907,
      "d": 86.53846875001909,
      "v": 85
    },
    {
      "midi": 57,
      "hit": false,
      "t": 377302.91605729325,
      "d": 86.53846875001909,
      "v": 86
    },
    {
      "midi": 61,
      "hit": false,
      "t": 377302.91605729325,
      "d": 86.53846875001909,
      "v": 87
    },
    {
      "midi": 67,
      "hit": false,
      "t": 377302.91605729325,
      "d": 86.53846875001909,
      "v": 88
    },
    {
      "midi": 57,
      "hit": false,
      "t": 377536.0891536474,
      "d": 86.53846875001909,
      "v": 83
    },
    {
      "midi": 61,
      "hit": false,
      "t": 377536.0891536474,
      "d": 86.53846875001909,
      "v": 83
    },
    {
      "midi": 67,
      "hit": false,
      "t": 377536.0891536474,
      "d": 86.53846875001909,
      "v": 83
    },
    {
      "midi": 57,
      "hit": false,
      "t": 377995.2238072933,
      "d": 86.53846875001909,
      "v": 85
    },
    {
      "midi": 61,
      "hit": false,
      "t": 377995.2238072933,
      "d": 86.53846875001909,
      "v": 87
    },
    {
      "midi": 67,
      "hit": false,
      "t": 377995.2238072933,
      "d": 86.53846875001909,
      "v": 77
    },
    {
      "midi": 57,
      "hit": false,
      "t": 378918.3008072933,
      "d": 86.53846875001909,
      "v": 87
    },
    {
      "midi": 61,
      "hit": false,
      "t": 378918.3008072933,
      "d": 86.53846875001909,
      "v": 87
    },
    {
      "midi": 67,
      "hit": false,
      "t": 378918.3008072933,
      "d": 86.53846875001909,
      "v": 88
    },
    {
      "midi": 57,
      "hit": false,
      "t": 379384.6470000016,
      "d": 86.53846875001909,
      "v": 84
    },
    {
      "midi": 61,
      "hit": false,
      "t": 379384.6470000016,
      "d": 86.53846875001909,
      "v": 84
    },
    {
      "midi": 67,
      "hit": false,
      "t": 379384.6470000016,
      "d": 86.53846875001909,
      "v": 84
    },
    {
      "midi": 57,
      "hit": false,
      "t": 379615.41625000164,
      "d": 86.53846875001909,
      "v": 87
    },
    {
      "midi": 61,
      "hit": false,
      "t": 379615.41625000164,
      "d": 86.53846875001909,
      "v": 87
    },
    {
      "midi": 67,
      "hit": false,
      "t": 379615.41625000164,
      "d": 86.53846875001909,
      "v": 87
    },
    {
      "midi": 57,
      "hit": false,
      "t": 379846.18550000165,
      "d": 86.53846875001909,
      "v": 87
    },
    {
      "midi": 61,
      "hit": false,
      "t": 379846.18550000165,
      "d": 86.53846875001909,
      "v": 87
    },
    {
      "midi": 67,
      "hit": false,
      "t": 379846.18550000165,
      "d": 86.53846875001909,
      "v": 87
    },
    {
      "midi": 59,
      "hit": false,
      "t": 380302.91630729334,
      "d": 86.53846875001909,
      "v": 77
    },
    {
      "midi": 62,
      "hit": false,
      "t": 380302.91630729334,
      "d": 86.53846875001909,
      "v": 77
    },
    {
      "midi": 66,
      "hit": false,
      "t": 380302.91630729334,
      "d": 86.53846875001909,
      "v": 87
    },
    {
      "midi": 59,
      "hit": false,
      "t": 380769.2625000017,
      "d": 86.53846875001909,
      "v": 85
    },
    {
      "midi": 62,
      "hit": false,
      "t": 380769.2625000017,
      "d": 86.53846875001909,
      "v": 85
    },
    {
      "midi": 66,
      "hit": false,
      "t": 380769.2625000017,
      "d": 86.53846875001909,
      "v": 85
    },
    {
      "midi": 59,
      "hit": false,
      "t": 380997.62790364755,
      "d": 86.53846875001909,
      "v": 77
    },
    {
      "midi": 62,
      "hit": false,
      "t": 380997.62790364755,
      "d": 86.53846875001909,
      "v": 77
    },
    {
      "midi": 66,
      "hit": false,
      "t": 380997.62790364755,
      "d": 86.53846875001909,
      "v": 77
    },
    {
      "midi": 59,
      "hit": false,
      "t": 381230.8010000017,
      "d": 86.53846875001909,
      "v": 83
    },
    {
      "midi": 62,
      "hit": false,
      "t": 381230.8010000017,
      "d": 86.53846875001909,
      "v": 83
    },
    {
      "midi": 66,
      "hit": false,
      "t": 381230.8010000017,
      "d": 86.53846875001909,
      "v": 83
    },
    {
      "midi": 59,
      "hit": false,
      "t": 381692.33950000175,
      "d": 86.53846875001909,
      "v": 87
    },
    {
      "midi": 62,
      "hit": false,
      "t": 381692.33950000175,
      "d": 86.53846875001909,
      "v": 77
    },
    {
      "midi": 66,
      "hit": false,
      "t": 381692.33950000175,
      "d": 86.53846875001909,
      "v": 87
    },
    {
      "midi": 59,
      "hit": false,
      "t": 382613.0126536476,
      "d": 86.53846875001909,
      "v": 87
    },
    {
      "midi": 62,
      "hit": false,
      "t": 382613.0126536476,
      "d": 86.53846875001909,
      "v": 87
    },
    {
      "midi": 66,
      "hit": false,
      "t": 382613.0126536476,
      "d": 86.53846875001909,
      "v": 87
    },
    {
      "midi": 59,
      "hit": false,
      "t": 383076.95500000176,
      "d": 86.53846875001909,
      "v": 82
    },
    {
      "midi": 62,
      "hit": false,
      "t": 383076.95500000176,
      "d": 86.53846875001909,
      "v": 82
    },
    {
      "midi": 66,
      "hit": false,
      "t": 383076.95500000176,
      "d": 86.53846875001909,
      "v": 82
    },
    {
      "midi": 59,
      "hit": false,
      "t": 383310.12809635594,
      "d": 86.53846875001909,
      "v": 87
    },
    {
      "midi": 62,
      "hit": false,
      "t": 383310.12809635594,
      "d": 86.53846875001909,
      "v": 86
    },
    {
      "midi": 66,
      "hit": false,
      "t": 383310.12809635594,
      "d": 86.53846875001909,
      "v": 87
    },
    {
      "midi": 59,
      "hit": false,
      "t": 383536.0896536476,
      "d": 86.53846875001909,
      "v": 79
    },
    {
      "midi": 62,
      "hit": false,
      "t": 383536.0896536476,
      "d": 86.53846875001909,
      "v": 79
    },
    {
      "midi": 66,
      "hit": false,
      "t": 383536.0896536476,
      "d": 86.53846875001909,
      "v": 79
    },
    {
      "midi": 57,
      "hit": false,
      "t": 384000.0320000018,
      "d": 86.53846875001909,
      "v": 80
    },
    {
      "midi": 62,
      "hit": false,
      "t": 384000.0320000018,
      "d": 86.53846875001909,
      "v": 83
    },
    {
      "midi": 66,
      "hit": false,
      "t": 384000.0320000018,
      "d": 86.53846875001909,
      "v": 81
    },
    {
      "midi": 57,
      "hit": false,
      "t": 384454.35896093934,
      "d": 86.53846875001909,
      "v": 85
    },
    {
      "midi": 62,
      "hit": false,
      "t": 384454.35896093934,
      "d": 86.53846875001909,
      "v": 85
    },
    {
      "midi": 66,
      "hit": false,
      "t": 384454.35896093934,
      "d": 86.53846875001909,
      "v": 85
    },
    {
      "midi": 57,
      "hit": false,
      "t": 384687.5320572935,
      "d": 86.53846875001909,
      "v": 86
    },
    {
      "midi": 62,
      "hit": false,
      "t": 384687.5320572935,
      "d": 86.53846875001909,
      "v": 88
    },
    {
      "midi": 66,
      "hit": false,
      "t": 384687.5320572935,
      "d": 86.53846875001909,
      "v": 87
    },
    {
      "midi": 57,
      "hit": false,
      "t": 384920.7051536477,
      "d": 86.53846875001909,
      "v": 84
    },
    {
      "midi": 62,
      "hit": false,
      "t": 384920.7051536477,
      "d": 86.53846875001909,
      "v": 84
    },
    {
      "midi": 66,
      "hit": false,
      "t": 384920.7051536477,
      "d": 86.53846875001909,
      "v": 84
    },
    {
      "midi": 57,
      "hit": false,
      "t": 385379.83980729355,
      "d": 86.53846875001909,
      "v": 87
    },
    {
      "midi": 62,
      "hit": false,
      "t": 385379.83980729355,
      "d": 86.53846875001909,
      "v": 87
    },
    {
      "midi": 66,
      "hit": false,
      "t": 385379.83980729355,
      "d": 86.53846875001909,
      "v": 80
    },
    {
      "midi": 57,
      "hit": false,
      "t": 386302.91680729354,
      "d": 86.53846875001909,
      "v": 88
    },
    {
      "midi": 62,
      "hit": false,
      "t": 386302.91680729354,
      "d": 86.53846875001909,
      "v": 88
    },
    {
      "midi": 66,
      "hit": false,
      "t": 386302.91680729354,
      "d": 86.53846875001909,
      "v": 80
    },
    {
      "midi": 57,
      "hit": false,
      "t": 386769.2630000019,
      "d": 86.53846875001909,
      "v": 83
    },
    {
      "midi": 62,
      "hit": false,
      "t": 386769.2630000019,
      "d": 86.53846875001909,
      "v": 83
    },
    {
      "midi": 66,
      "hit": false,
      "t": 386769.2630000019,
      "d": 86.53846875001909,
      "v": 83
    },
    {
      "midi": 57,
      "hit": false,
      "t": 387000.0322500019,
      "d": 86.53846875001909,
      "v": 86
    },
    {
      "midi": 62,
      "hit": false,
      "t": 387000.0322500019,
      "d": 86.53846875001909,
      "v": 86
    },
    {
      "midi": 66,
      "hit": false,
      "t": 387000.0322500019,
      "d": 86.53846875001909,
      "v": 77
    },
    {
      "midi": 57,
      "hit": false,
      "t": 387230.8015000019,
      "d": 86.53846875001909,
      "v": 87
    },
    {
      "midi": 62,
      "hit": false,
      "t": 387230.8015000019,
      "d": 86.53846875001909,
      "v": 86
    },
    {
      "midi": 66,
      "hit": false,
      "t": 387230.8015000019,
      "d": 86.53846875001909,
      "v": 87
    },
    {
      "midi": 59,
      "hit": false,
      "t": 387687.5323072936,
      "d": 86.53846875001909,
      "v": 87
    },
    {
      "midi": 62,
      "hit": false,
      "t": 387687.5323072936,
      "d": 86.53846875001909,
      "v": 80
    },
    {
      "midi": 66,
      "hit": false,
      "t": 387687.5323072936,
      "d": 86.53846875001909,
      "v": 87
    },
    {
      "midi": 59,
      "hit": false,
      "t": 388153.87850000197,
      "d": 86.53846875001909,
      "v": 84
    },
    {
      "midi": 62,
      "hit": false,
      "t": 388153.87850000197,
      "d": 86.53846875001909,
      "v": 84
    },
    {
      "midi": 66,
      "hit": false,
      "t": 388153.87850000197,
      "d": 86.53846875001909,
      "v": 84
    },
    {
      "midi": 59,
      "hit": false,
      "t": 388382.2439036478,
      "d": 86.53846875001909,
      "v": 80
    },
    {
      "midi": 62,
      "hit": false,
      "t": 388382.2439036478,
      "d": 86.53846875001909,
      "v": 80
    },
    {
      "midi": 66,
      "hit": false,
      "t": 388382.2439036478,
      "d": 86.53846875001909,
      "v": 80
    },
    {
      "midi": 59,
      "hit": false,
      "t": 388615.417000002,
      "d": 86.53846875001909,
      "v": 86
    },
    {
      "midi": 62,
      "hit": false,
      "t": 388615.417000002,
      "d": 86.53846875001909,
      "v": 86
    },
    {
      "midi": 66,
      "hit": false,
      "t": 388615.417000002,
      "d": 86.53846875001909,
      "v": 86
    },
    {
      "midi": 59,
      "hit": false,
      "t": 389076.955500002,
      "d": 86.53846875001909,
      "v": 86
    },
    {
      "midi": 62,
      "hit": false,
      "t": 389076.955500002,
      "d": 86.53846875001909,
      "v": 87
    },
    {
      "midi": 66,
      "hit": false,
      "t": 389076.955500002,
      "d": 86.53846875001909,
      "v": 87
    },
    {
      "midi": 59,
      "hit": false,
      "t": 389997.62865364784,
      "d": 86.53846875001909,
      "v": 87
    },
    {
      "midi": 62,
      "hit": false,
      "t": 389997.62865364784,
      "d": 86.53846875001909,
      "v": 81
    },
    {
      "midi": 66,
      "hit": false,
      "t": 389997.62865364784,
      "d": 86.53846875001909,
      "v": 88
    },
    {
      "midi": 59,
      "hit": false,
      "t": 390461.57100000203,
      "d": 86.53846875001909,
      "v": 83
    },
    {
      "midi": 62,
      "hit": false,
      "t": 390461.57100000203,
      "d": 86.53846875001909,
      "v": 83
    },
    {
      "midi": 66,
      "hit": false,
      "t": 390461.57100000203,
      "d": 86.53846875001909,
      "v": 83
    },
    {
      "midi": 59,
      "hit": false,
      "t": 390694.7440963562,
      "d": 86.53846875001909,
      "v": 87
    },
    {
      "midi": 62,
      "hit": false,
      "t": 390694.7440963562,
      "d": 86.53846875001909,
      "v": 88
    },
    {
      "midi": 66,
      "hit": false,
      "t": 390694.7440963562,
      "d": 86.53846875001909,
      "v": 87
    },
    {
      "midi": 59,
      "hit": false,
      "t": 390920.7056536479,
      "d": 86.53846875001909,
      "v": 77
    },
    {
      "midi": 62,
      "hit": false,
      "t": 390920.7056536479,
      "d": 86.53846875001909,
      "v": 77
    },
    {
      "midi": 66,
      "hit": false,
      "t": 390920.7056536479,
      "d": 86.53846875001909,
      "v": 77
    },
    {
      "midi": 57,
      "hit": false,
      "t": 391384.6480000021,
      "d": 86.53846875001909,
      "v": 82
    },
    {
      "midi": 62,
      "hit": false,
      "t": 391384.6480000021,
      "d": 86.53846875001909,
      "v": 86
    },
    {
      "midi": 66,
      "hit": false,
      "t": 391384.6480000021,
      "d": 86.53846875001909,
      "v": 81
    },
    {
      "midi": 57,
      "hit": false,
      "t": 391838.9749609396,
      "d": 86.53846875001909,
      "v": 85
    },
    {
      "midi": 62,
      "hit": false,
      "t": 391838.9749609396,
      "d": 86.53846875001909,
      "v": 85
    },
    {
      "midi": 66,
      "hit": false,
      "t": 391838.9749609396,
      "d": 86.53846875001909,
      "v": 85
    },
    {
      "midi": 57,
      "hit": false,
      "t": 392072.1480572938,
      "d": 86.53846875001909,
      "v": 86
    },
    {
      "midi": 62,
      "hit": false,
      "t": 392072.1480572938,
      "d": 86.53846875001909,
      "v": 87
    },
    {
      "midi": 66,
      "hit": false,
      "t": 392072.1480572938,
      "d": 86.53846875001909,
      "v": 86
    },
    {
      "midi": 57,
      "hit": false,
      "t": 392305.32115364796,
      "d": 86.53846875001909,
      "v": 83
    },
    {
      "midi": 62,
      "hit": false,
      "t": 392305.32115364796,
      "d": 86.53846875001909,
      "v": 83
    },
    {
      "midi": 66,
      "hit": false,
      "t": 392305.32115364796,
      "d": 86.53846875001909,
      "v": 83
    },
    {
      "midi": 57,
      "hit": false,
      "t": 392764.4558072938,
      "d": 86.53846875001909,
      "v": 86
    },
    {
      "midi": 62,
      "hit": false,
      "t": 392764.4558072938,
      "d": 86.53846875001909,
      "v": 87
    },
    {
      "midi": 66,
      "hit": false,
      "t": 392764.4558072938,
      "d": 86.53846875001909,
      "v": 77
    },
    {
      "midi": 57,
      "hit": false,
      "t": 393687.5328072938,
      "d": 86.53846875001909,
      "v": 88
    },
    {
      "midi": 62,
      "hit": false,
      "t": 393687.5328072938,
      "d": 86.53846875001909,
      "v": 80
    },
    {
      "midi": 66,
      "hit": false,
      "t": 393687.5328072938,
      "d": 86.53846875001909,
      "v": 80
    },
    {
      "midi": 57,
      "hit": false,
      "t": 394153.87900000217,
      "d": 86.53846875001909,
      "v": 83
    },
    {
      "midi": 62,
      "hit": false,
      "t": 394153.87900000217,
      "d": 86.53846875001909,
      "v": 83
    },
    {
      "midi": 66,
      "hit": false,
      "t": 394153.87900000217,
      "d": 86.53846875001909,
      "v": 83
    },
    {
      "midi": 57,
      "hit": false,
      "t": 394384.6482500022,
      "d": 86.53846875001909,
      "v": 88
    },
    {
      "midi": 62,
      "hit": false,
      "t": 394384.6482500022,
      "d": 86.53846875001909,
      "v": 86
    },
    {
      "midi": 66,
      "hit": false,
      "t": 394384.6482500022,
      "d": 86.53846875001909,
      "v": 88
    },
    {
      "midi": 57,
      "hit": false,
      "t": 394615.4175000022,
      "d": 86.53846875001909,
      "v": 88
    },
    {
      "midi": 62,
      "hit": false,
      "t": 394615.4175000022,
      "d": 86.53846875001909,
      "v": 86
    },
    {
      "midi": 66,
      "hit": false,
      "t": 394615.4175000022,
      "d": 86.53846875001909,
      "v": 88
    },
    {
      "midi": 59,
      "hit": false,
      "t": 395072.1483072939,
      "d": 86.53846875001909,
      "v": 86
    },
    {
      "midi": 62,
      "hit": false,
      "t": 395072.1483072939,
      "d": 86.53846875001909,
      "v": 87
    },
    {
      "midi": 67,
      "hit": false,
      "t": 395072.1483072939,
      "d": 86.53846875001909,
      "v": 80
    },
    {
      "midi": 59,
      "hit": false,
      "t": 395538.49450000224,
      "d": 86.53846875001909,
      "v": 85
    },
    {
      "midi": 62,
      "hit": false,
      "t": 395538.49450000224,
      "d": 86.53846875001909,
      "v": 85
    },
    {
      "midi": 67,
      "hit": false,
      "t": 395538.49450000224,
      "d": 86.53846875001909,
      "v": 85
    },
    {
      "midi": 59,
      "hit": false,
      "t": 395766.8599036481,
      "d": 86.53846875001909,
      "v": 87
    },
    {
      "midi": 62,
      "hit": false,
      "t": 395766.8599036481,
      "d": 86.53846875001909,
      "v": 87
    },
    {
      "midi": 67,
      "hit": false,
      "t": 395766.8599036481,
      "d": 86.53846875001909,
      "v": 86
    },
    {
      "midi": 59,
      "hit": false,
      "t": 396000.03300000227,
      "d": 86.53846875001909,
      "v": 83
    },
    {
      "midi": 62,
      "hit": false,
      "t": 396000.03300000227,
      "d": 86.53846875001909,
      "v": 83
    },
    {
      "midi": 67,
      "hit": false,
      "t": 396000.03300000227,
      "d": 86.53846875001909,
      "v": 83
    },
    {
      "midi": 59,
      "hit": false,
      "t": 396461.5715000023,
      "d": 86.53846875001909,
      "v": 86
    },
    {
      "midi": 62,
      "hit": false,
      "t": 396461.5715000023,
      "d": 86.53846875001909,
      "v": 87
    },
    {
      "midi": 67,
      "hit": false,
      "t": 396461.5715000023,
      "d": 86.53846875001909,
      "v": 86
    },
    {
      "midi": 59,
      "hit": false,
      "t": 397382.2446536481,
      "d": 86.53846875001909,
      "v": 87
    },
    {
      "midi": 62,
      "hit": false,
      "t": 397382.2446536481,
      "d": 86.53846875001909,
      "v": 77
    },
    {
      "midi": 67,
      "hit": false,
      "t": 397382.2446536481,
      "d": 86.53846875001909,
      "v": 77
    },
    {
      "midi": 59,
      "hit": false,
      "t": 397846.1870000023,
      "d": 86.53846875001909,
      "v": 85
    },
    {
      "midi": 62,
      "hit": false,
      "t": 397846.1870000023,
      "d": 86.53846875001909,
      "v": 85
    },
    {
      "midi": 67,
      "hit": false,
      "t": 397846.1870000023,
      "d": 86.53846875001909,
      "v": 85
    },
    {
      "midi": 59,
      "hit": false,
      "t": 398079.3600963565,
      "d": 86.53846875001909,
      "v": 88
    },
    {
      "midi": 62,
      "hit": false,
      "t": 398079.3600963565,
      "d": 86.53846875001909,
      "v": 87
    },
    {
      "midi": 67,
      "hit": false,
      "t": 398079.3600963565,
      "d": 86.53846875001909,
      "v": 82
    },
    {
      "midi": 59,
      "hit": false,
      "t": 398305.32165364816,
      "d": 86.53846875001909,
      "v": 87
    },
    {
      "midi": 62,
      "hit": false,
      "t": 398305.32165364816,
      "d": 86.53846875001909,
      "v": 87
    },
    {
      "midi": 67,
      "hit": false,
      "t": 398305.32165364816,
      "d": 86.53846875001909,
      "v": 86
    },
    {
      "midi": 61,
      "hit": false,
      "t": 398769.26400000235,
      "d": 86.53846875001909,
      "v": 86
    },
    {
      "midi": 64,
      "hit": false,
      "t": 398769.26400000235,
      "d": 86.53846875001909,
      "v": 82
    },
    {
      "midi": 69,
      "hit": false,
      "t": 398769.26400000235,
      "d": 86.53846875001909,
      "v": 82
    },
    {
      "midi": 61,
      "hit": false,
      "t": 399223.5909609399,
      "d": 86.53846875001909,
      "v": 85
    },
    {
      "midi": 64,
      "hit": false,
      "t": 399223.5909609399,
      "d": 86.53846875001909,
      "v": 85
    },
    {
      "midi": 69,
      "hit": false,
      "t": 399223.5909609399,
      "d": 86.53846875001909,
      "v": 85
    },
    {
      "midi": 61,
      "hit": false,
      "t": 399456.76405729406,
      "d": 86.53846875001909,
      "v": 83
    },
    {
      "midi": 64,
      "hit": false,
      "t": 399456.76405729406,
      "d": 86.53846875001909,
      "v": 77
    },
    {
      "midi": 69,
      "hit": false,
      "t": 399456.76405729406,
      "d": 86.53846875001909,
      "v": 87
    },
    {
      "midi": 61,
      "hit": false,
      "t": 399689.93715364824,
      "d": 86.53846875001909,
      "v": 84
    },
    {
      "midi": 64,
      "hit": false,
      "t": 399689.93715364824,
      "d": 86.53846875001909,
      "v": 84
    },
    {
      "midi": 69,
      "hit": false,
      "t": 399689.93715364824,
      "d": 86.53846875001909,
      "v": 84
    },
    {
      "midi": 61,
      "hit": false,
      "t": 400149.0718072941,
      "d": 86.53846875001909,
      "v": 87
    },
    {
      "midi": 64,
      "hit": false,
      "t": 400149.0718072941,
      "d": 86.53846875001909,
      "v": 87
    },
    {
      "midi": 69,
      "hit": false,
      "t": 400149.0718072941,
      "d": 86.53846875001909,
      "v": 81
    },
    {
      "midi": 61,
      "hit": false,
      "t": 401072.1488072941,
      "d": 86.53846875001909,
      "v": 88
    },
    {
      "midi": 64,
      "hit": false,
      "t": 401072.1488072941,
      "d": 86.53846875001909,
      "v": 80
    },
    {
      "midi": 69,
      "hit": false,
      "t": 401072.1488072941,
      "d": 86.53846875001909,
      "v": 77
    },
    {
      "midi": 61,
      "hit": false,
      "t": 401538.49500000244,
      "d": 86.53846875001909,
      "v": 85
    },
    {
      "midi": 64,
      "hit": false,
      "t": 401538.49500000244,
      "d": 86.53846875001909,
      "v": 85
    },
    {
      "midi": 69,
      "hit": false,
      "t": 401538.49500000244,
      "d": 86.53846875001909,
      "v": 85
    },
    {
      "midi": 61,
      "hit": false,
      "t": 401769.26425000245,
      "d": 86.53846875001909,
      "v": 77
    },
    {
      "midi": 64,
      "hit": false,
      "t": 401769.26425000245,
      "d": 86.53846875001909,
      "v": 87
    },
    {
      "midi": 69,
      "hit": false,
      "t": 401769.26425000245,
      "d": 86.53846875001909,
      "v": 82
    },
    {
      "midi": 61,
      "hit": false,
      "t": 402000.03350000246,
      "d": 86.53846875001909,
      "v": 83
    },
    {
      "midi": 64,
      "hit": false,
      "t": 402000.03350000246,
      "d": 86.53846875001909,
      "v": 77
    },
    {
      "midi": 69,
      "hit": false,
      "t": 402000.03350000246,
      "d": 86.53846875001909,
      "v": 87
    },
    {
      "midi": 57,
      "hit": false,
      "t": 402456.76430729416,
      "d": 86.53846875001909,
      "v": 80
    },
    {
      "midi": 62,
      "hit": false,
      "t": 402456.76430729416,
      "d": 86.53846875001909,
      "v": 86
    },
    {
      "midi": 66,
      "hit": false,
      "t": 402456.76430729416,
      "d": 86.53846875001909,
      "v": 82
    },
    {
      "midi": 57,
      "hit": false,
      "t": 402923.1105000025,
      "d": 86.53846875001909,
      "v": 85
    },
    {
      "midi": 62,
      "hit": false,
      "t": 402923.1105000025,
      "d": 86.53846875001909,
      "v": 85
    },
    {
      "midi": 66,
      "hit": false,
      "t": 402923.1105000025,
      "d": 86.53846875001909,
      "v": 85
    },
    {
      "midi": 57,
      "hit": false,
      "t": 403151.47590364836,
      "d": 86.53846875001909,
      "v": 88
    },
    {
      "midi": 62,
      "hit": false,
      "t": 403151.47590364836,
      "d": 86.53846875001909,
      "v": 77
    },
    {
      "midi": 66,
      "hit": false,
      "t": 403151.47590364836,
      "d": 86.53846875001909,
      "v": 82
    },
    {
      "midi": 57,
      "hit": false,
      "t": 403384.64900000254,
      "d": 86.53846875001909,
      "v": 83
    },
    {
      "midi": 62,
      "hit": false,
      "t": 403384.64900000254,
      "d": 86.53846875001909,
      "v": 83
    },
    {
      "midi": 66,
      "hit": false,
      "t": 403384.64900000254,
      "d": 86.53846875001909,
      "v": 83
    },
    {
      "midi": 57,
      "hit": false,
      "t": 403846.18750000256,
      "d": 86.53846875001909,
      "v": 77
    },
    {
      "midi": 62,
      "hit": false,
      "t": 403846.18750000256,
      "d": 86.53846875001909,
      "v": 83
    },
    {
      "midi": 66,
      "hit": false,
      "t": 403846.18750000256,
      "d": 86.53846875001909,
      "v": 81
    },
    {
      "midi": 57,
      "hit": false,
      "t": 404766.8606536484,
      "d": 86.53846875001909,
      "v": 87
    },
    {
      "midi": 62,
      "hit": false,
      "t": 404766.8606536484,
      "d": 86.53846875001909,
      "v": 87
    },
    {
      "midi": 66,
      "hit": false,
      "t": 404766.8606536484,
      "d": 86.53846875001909,
      "v": 87
    },
    {
      "midi": 57,
      "hit": false,
      "t": 405230.8030000026,
      "d": 86.53846875001909,
      "v": 83
    },
    {
      "midi": 62,
      "hit": false,
      "t": 405230.8030000026,
      "d": 86.53846875001909,
      "v": 83
    },
    {
      "midi": 66,
      "hit": false,
      "t": 405230.8030000026,
      "d": 86.53846875001909,
      "v": 83
    },
    {
      "midi": 57,
      "hit": false,
      "t": 405463.97609635675,
      "d": 86.53846875001909,
      "v": 87
    },
    {
      "midi": 62,
      "hit": false,
      "t": 405463.97609635675,
      "d": 86.53846875001909,
      "v": 80
    },
    {
      "midi": 66,
      "hit": false,
      "t": 405463.97609635675,
      "d": 86.53846875001909,
      "v": 77
    },
    {
      "midi": 57,
      "hit": false,
      "t": 405689.93765364843,
      "d": 86.53846875001909,
      "v": 80
    },
    {
      "midi": 62,
      "hit": false,
      "t": 405689.93765364843,
      "d": 86.53846875001909,
      "v": 80
    },
    {
      "midi": 66,
      "hit": false,
      "t": 405689.93765364843,
      "d": 86.53846875001909,
      "v": 80
    },
    {
      "midi": 57,
      "hit": false,
      "t": 406153.8800000026,
      "d": 86.53846875001909,
      "v": 87
    },
    {
      "midi": 61,
      "hit": false,
      "t": 406153.8800000026,
      "d": 86.53846875001909,
      "v": 77
    },
    {
      "midi": 66,
      "hit": false,
      "t": 406153.8800000026,
      "d": 86.53846875001909,
      "v": 83
    },
    {
      "midi": 57,
      "hit": false,
      "t": 406608.20696094015,
      "d": 86.53846875001909,
      "v": 85
    },
    {
      "midi": 61,
      "hit": false,
      "t": 406608.20696094015,
      "d": 86.53846875001909,
      "v": 85
    },
    {
      "midi": 66,
      "hit": false,
      "t": 406608.20696094015,
      "d": 86.53846875001909,
      "v": 85
    },
    {
      "midi": 57,
      "hit": false,
      "t": 406841.38005729433,
      "d": 86.53846875001909,
      "v": 86
    },
    {
      "midi": 61,
      "hit": false,
      "t": 406841.38005729433,
      "d": 86.53846875001909,
      "v": 87
    },
    {
      "midi": 67,
      "hit": false,
      "t": 406841.38005729433,
      "d": 86.53846875001909,
      "v": 88
    },
    {
      "midi": 57,
      "hit": false,
      "t": 407074.5531536485,
      "d": 86.53846875001909,
      "v": 83
    },
    {
      "midi": 61,
      "hit": false,
      "t": 407074.5531536485,
      "d": 86.53846875001909,
      "v": 83
    },
    {
      "midi": 67,
      "hit": false,
      "t": 407074.5531536485,
      "d": 86.53846875001909,
      "v": 83
    },
    {
      "midi": 57,
      "hit": false,
      "t": 407533.68780729437,
      "d": 86.53846875001909,
      "v": 85
    },
    {
      "midi": 61,
      "hit": false,
      "t": 407533.68780729437,
      "d": 86.53846875001909,
      "v": 87
    },
    {
      "midi": 67,
      "hit": false,
      "t": 407533.68780729437,
      "d": 86.53846875001909,
      "v": 77
    },
    {
      "midi": 57,
      "hit": false,
      "t": 408456.76480729436,
      "d": 86.53846875001909,
      "v": 87
    },
    {
      "midi": 61,
      "hit": false,
      "t": 408456.76480729436,
      "d": 86.53846875001909,
      "v": 87
    },
    {
      "midi": 67,
      "hit": false,
      "t": 408456.76480729436,
      "d": 86.53846875001909,
      "v": 88
    },
    {
      "midi": 57,
      "hit": false,
      "t": 408923.1110000027,
      "d": 86.53846875001909,
      "v": 84
    },
    {
      "midi": 61,
      "hit": false,
      "t": 408923.1110000027,
      "d": 86.53846875001909,
      "v": 84
    },
    {
      "midi": 67,
      "hit": false,
      "t": 408923.1110000027,
      "d": 86.53846875001909,
      "v": 84
    },
    {
      "midi": 57,
      "hit": false,
      "t": 409153.8802500027,
      "d": 86.53846875001909,
      "v": 87
    },
    {
      "midi": 61,
      "hit": false,
      "t": 409153.8802500027,
      "d": 86.53846875001909,
      "v": 87
    },
    {
      "midi": 67,
      "hit": false,
      "t": 409153.8802500027,
      "d": 86.53846875001909,
      "v": 87
    },
    {
      "midi": 57,
      "hit": false,
      "t": 409384.64950000274,
      "d": 86.53846875001909,
      "v": 87
    },
    {
      "midi": 61,
      "hit": false,
      "t": 409384.64950000274,
      "d": 86.53846875001909,
      "v": 87
    },
    {
      "midi": 67,
      "hit": false,
      "t": 409384.64950000274,
      "d": 86.53846875001909,
      "v": 87
    },
    {
      "midi": 59,
      "hit": false,
      "t": 409841.3803072944,
      "d": 86.53846875001909,
      "v": 77
    },
    {
      "midi": 62,
      "hit": false,
      "t": 409841.3803072944,
      "d": 86.53846875001909,
      "v": 77
    },
    {
      "midi": 66,
      "hit": false,
      "t": 409841.3803072944,
      "d": 86.53846875001909,
      "v": 87
    },
    {
      "midi": 59,
      "hit": false,
      "t": 410307.7265000028,
      "d": 86.53846875001909,
      "v": 85
    },
    {
      "midi": 62,
      "hit": false,
      "t": 410307.7265000028,
      "d": 86.53846875001909,
      "v": 85
    },
    {
      "midi": 66,
      "hit": false,
      "t": 410307.7265000028,
      "d": 86.53846875001909,
      "v": 85
    },
    {
      "midi": 59,
      "hit": false,
      "t": 410536.09190364863,
      "d": 86.53846875001909,
      "v": 77
    },
    {
      "midi": 62,
      "hit": false,
      "t": 410536.09190364863,
      "d": 86.53846875001909,
      "v": 77
    },
    {
      "midi": 66,
      "hit": false,
      "t": 410536.09190364863,
      "d": 86.53846875001909,
      "v": 77
    },
    {
      "midi": 59,
      "hit": false,
      "t": 410769.2650000028,
      "d": 86.53846875001909,
      "v": 83
    },
    {
      "midi": 62,
      "hit": false,
      "t": 410769.2650000028,
      "d": 86.53846875001909,
      "v": 83
    },
    {
      "midi": 66,
      "hit": false,
      "t": 410769.2650000028,
      "d": 86.53846875001909,
      "v": 83
    },
    {
      "midi": 59,
      "hit": false,
      "t": 411230.80350000283,
      "d": 86.53846875001909,
      "v": 87
    },
    {
      "midi": 62,
      "hit": false,
      "t": 411230.80350000283,
      "d": 86.53846875001909,
      "v": 77
    },
    {
      "midi": 66,
      "hit": false,
      "t": 411230.80350000283,
      "d": 86.53846875001909,
      "v": 87
    },
    {
      "midi": 59,
      "hit": false,
      "t": 412151.47665364866,
      "d": 86.53846875001909,
      "v": 87
    },
    {
      "midi": 62,
      "hit": false,
      "t": 412151.47665364866,
      "d": 86.53846875001909,
      "v": 87
    },
    {
      "midi": 66,
      "hit": false,
      "t": 412151.47665364866,
      "d": 86.53846875001909,
      "v": 87
    },
    {
      "midi": 59,
      "hit": false,
      "t": 412615.41900000285,
      "d": 86.53846875001909,
      "v": 82
    },
    {
      "midi": 62,
      "hit": false,
      "t": 412615.41900000285,
      "d": 86.53846875001909,
      "v": 82
    },
    {
      "midi": 66,
      "hit": false,
      "t": 412615.41900000285,
      "d": 86.53846875001909,
      "v": 82
    },
    {
      "midi": 59,
      "hit": false,
      "t": 412848.592096357,
      "d": 86.53846875001909,
      "v": 87
    },
    {
      "midi": 62,
      "hit": false,
      "t": 412848.592096357,
      "d": 86.53846875001909,
      "v": 86
    },
    {
      "midi": 66,
      "hit": false,
      "t": 412848.592096357,
      "d": 86.53846875001909,
      "v": 87
    },
    {
      "midi": 59,
      "hit": false,
      "t": 413074.5536536487,
      "d": 86.53846875001909,
      "v": 79
    },
    {
      "midi": 62,
      "hit": false,
      "t": 413074.5536536487,
      "d": 86.53846875001909,
      "v": 79
    },
    {
      "midi": 66,
      "hit": false,
      "t": 413074.5536536487,
      "d": 86.53846875001909,
      "v": 79
    },
    {
      "midi": 57,
      "hit": false,
      "t": 413538.4960000029,
      "d": 86.53846875001909,
      "v": 80
    },
    {
      "midi": 62,
      "hit": false,
      "t": 413538.4960000029,
      "d": 86.53846875001909,
      "v": 83
    },
    {
      "midi": 66,
      "hit": false,
      "t": 413538.4960000029,
      "d": 86.53846875001909,
      "v": 81
    },
    {
      "midi": 57,
      "hit": false,
      "t": 413992.8229609404,
      "d": 86.53846875001909,
      "v": 85
    },
    {
      "midi": 62,
      "hit": false,
      "t": 413992.8229609404,
      "d": 86.53846875001909,
      "v": 85
    },
    {
      "midi": 66,
      "hit": false,
      "t": 413992.8229609404,
      "d": 86.53846875001909,
      "v": 85
    },
    {
      "midi": 57,
      "hit": false,
      "t": 414225.9960572946,
      "d": 86.53846875001909,
      "v": 86
    },
    {
      "midi": 62,
      "hit": false,
      "t": 414225.9960572946,
      "d": 86.53846875001909,
      "v": 88
    },
    {
      "midi": 66,
      "hit": false,
      "t": 414225.9960572946,
      "d": 86.53846875001909,
      "v": 87
    },
    {
      "midi": 57,
      "hit": false,
      "t": 414459.1691536488,
      "d": 86.53846875001909,
      "v": 84
    },
    {
      "midi": 62,
      "hit": false,
      "t": 414459.1691536488,
      "d": 86.53846875001909,
      "v": 84
    },
    {
      "midi": 66,
      "hit": false,
      "t": 414459.1691536488,
      "d": 86.53846875001909,
      "v": 84
    },
    {
      "midi": 57,
      "hit": false,
      "t": 414918.30380729464,
      "d": 86.53846875001909,
      "v": 87
    },
    {
      "midi": 62,
      "hit": false,
      "t": 414918.30380729464,
      "d": 86.53846875001909,
      "v": 87
    },
    {
      "midi": 66,
      "hit": false,
      "t": 414918.30380729464,
      "d": 86.53846875001909,
      "v": 80
    },
    {
      "midi": 57,
      "hit": false,
      "t": 415841.3808072946,
      "d": 86.53846875001909,
      "v": 88
    },
    {
      "midi": 62,
      "hit": false,
      "t": 415841.3808072946,
      "d": 86.53846875001909,
      "v": 88
    },
    {
      "midi": 66,
      "hit": false,
      "t": 415841.3808072946,
      "d": 86.53846875001909,
      "v": 80
    },
    {
      "midi": 57,
      "hit": false,
      "t": 416307.727000003,
      "d": 86.53846875001909,
      "v": 83
    },
    {
      "midi": 62,
      "hit": false,
      "t": 416307.727000003,
      "d": 86.53846875001909,
      "v": 83
    },
    {
      "midi": 66,
      "hit": false,
      "t": 416307.727000003,
      "d": 86.53846875001909,
      "v": 83
    },
    {
      "midi": 57,
      "hit": false,
      "t": 416538.496250003,
      "d": 86.53846875001909,
      "v": 86
    },
    {
      "midi": 62,
      "hit": false,
      "t": 416538.496250003,
      "d": 86.53846875001909,
      "v": 86
    },
    {
      "midi": 66,
      "hit": false,
      "t": 416538.496250003,
      "d": 86.53846875001909,
      "v": 77
    },
    {
      "midi": 57,
      "hit": false,
      "t": 416769.265500003,
      "d": 86.53846875001909,
      "v": 87
    },
    {
      "midi": 62,
      "hit": false,
      "t": 416769.265500003,
      "d": 86.53846875001909,
      "v": 86
    },
    {
      "midi": 66,
      "hit": false,
      "t": 416769.265500003,
      "d": 86.53846875001909,
      "v": 87
    },
    {
      "midi": 59,
      "hit": false,
      "t": 417225.9963072947,
      "d": 86.53846875001909,
      "v": 87
    },
    {
      "midi": 62,
      "hit": false,
      "t": 417225.9963072947,
      "d": 86.53846875001909,
      "v": 80
    },
    {
      "midi": 66,
      "hit": false,
      "t": 417225.9963072947,
      "d": 86.53846875001909,
      "v": 87
    },
    {
      "midi": 59,
      "hit": false,
      "t": 417692.34250000305,
      "d": 86.53846875001909,
      "v": 84
    },
    {
      "midi": 62,
      "hit": false,
      "t": 417692.34250000305,
      "d": 86.53846875001909,
      "v": 84
    },
    {
      "midi": 66,
      "hit": false,
      "t": 417692.34250000305,
      "d": 86.53846875001909,
      "v": 84
    },
    {
      "midi": 59,
      "hit": false,
      "t": 417920.7079036489,
      "d": 86.53846875001909,
      "v": 80
    },
    {
      "midi": 62,
      "hit": false,
      "t": 417920.7079036489,
      "d": 86.53846875001909,
      "v": 80
    },
    {
      "midi": 66,
      "hit": false,
      "t": 417920.7079036489,
      "d": 86.53846875001909,
      "v": 80
    },
    {
      "midi": 59,
      "hit": false,
      "t": 418153.8810000031,
      "d": 86.53846875001909,
      "v": 86
    },
    {
      "midi": 62,
      "hit": false,
      "t": 418153.8810000031,
      "d": 86.53846875001909,
      "v": 86
    },
    {
      "midi": 66,
      "hit": false,
      "t": 418153.8810000031,
      "d": 86.53846875001909,
      "v": 86
    },
    {
      "midi": 59,
      "hit": false,
      "t": 418615.4195000031,
      "d": 86.53846875001909,
      "v": 86
    },
    {
      "midi": 62,
      "hit": false,
      "t": 418615.4195000031,
      "d": 86.53846875001909,
      "v": 87
    },
    {
      "midi": 66,
      "hit": false,
      "t": 418615.4195000031,
      "d": 86.53846875001909,
      "v": 87
    },
    {
      "midi": 59,
      "hit": false,
      "t": 419536.0926536489,
      "d": 86.53846875001909,
      "v": 87
    },
    {
      "midi": 62,
      "hit": false,
      "t": 419536.0926536489,
      "d": 86.53846875001909,
      "v": 81
    },
    {
      "midi": 66,
      "hit": false,
      "t": 419536.0926536489,
      "d": 86.53846875001909,
      "v": 88
    },
    {
      "midi": 59,
      "hit": false,
      "t": 420000.0350000031,
      "d": 86.53846875001909,
      "v": 83
    },
    {
      "midi": 62,
      "hit": false,
      "t": 420000.0350000031,
      "d": 86.53846875001909,
      "v": 83
    },
    {
      "midi": 66,
      "hit": false,
      "t": 420000.0350000031,
      "d": 86.53846875001909,
      "v": 83
    },
    {
      "midi": 59,
      "hit": false,
      "t": 420233.2080963573,
      "d": 86.53846875001909,
      "v": 87
    },
    {
      "midi": 62,
      "hit": false,
      "t": 420233.2080963573,
      "d": 86.53846875001909,
      "v": 88
    },
    {
      "midi": 66,
      "hit": false,
      "t": 420233.2080963573,
      "d": 86.53846875001909,
      "v": 87
    },
    {
      "midi": 59,
      "hit": false,
      "t": 420459.169653649,
      "d": 86.53846875001909,
      "v": 77
    },
    {
      "midi": 62,
      "hit": false,
      "t": 420459.169653649,
      "d": 86.53846875001909,
      "v": 77
    },
    {
      "midi": 66,
      "hit": false,
      "t": 420459.169653649,
      "d": 86.53846875001909,
      "v": 77
    },
    {
      "midi": 57,
      "hit": false,
      "t": 420923.11200000317,
      "d": 86.53846875001909,
      "v": 82
    },
    {
      "midi": 62,
      "hit": false,
      "t": 420923.11200000317,
      "d": 86.53846875001909,
      "v": 86
    },
    {
      "midi": 66,
      "hit": false,
      "t": 420923.11200000317,
      "d": 86.53846875001909,
      "v": 81
    },
    {
      "midi": 57,
      "hit": false,
      "t": 421377.4389609407,
      "d": 86.53846875001909,
      "v": 85
    },
    {
      "midi": 62,
      "hit": false,
      "t": 421377.4389609407,
      "d": 86.53846875001909,
      "v": 85
    },
    {
      "midi": 66,
      "hit": false,
      "t": 421377.4389609407,
      "d": 86.53846875001909,
      "v": 85
    },
    {
      "midi": 57,
      "hit": false,
      "t": 421610.6120572949,
      "d": 86.53846875001909,
      "v": 86
    },
    {
      "midi": 62,
      "hit": false,
      "t": 421610.6120572949,
      "d": 86.53846875001909,
      "v": 87
    },
    {
      "midi": 66,
      "hit": false,
      "t": 421610.6120572949,
      "d": 86.53846875001909,
      "v": 86
    },
    {
      "midi": 57,
      "hit": false,
      "t": 421843.78515364905,
      "d": 86.53846875001909,
      "v": 83
    },
    {
      "midi": 62,
      "hit": false,
      "t": 421843.78515364905,
      "d": 86.53846875001909,
      "v": 83
    },
    {
      "midi": 66,
      "hit": false,
      "t": 421843.78515364905,
      "d": 86.53846875001909,
      "v": 83
    },
    {
      "midi": 57,
      "hit": false,
      "t": 422302.9198072949,
      "d": 86.53846875001909,
      "v": 86
    },
    {
      "midi": 62,
      "hit": false,
      "t": 422302.9198072949,
      "d": 86.53846875001909,
      "v": 87
    },
    {
      "midi": 66,
      "hit": false,
      "t": 422302.9198072949,
      "d": 86.53846875001909,
      "v": 77
    },
    {
      "midi": 57,
      "hit": false,
      "t": 423225.9968072949,
      "d": 86.53846875001909,
      "v": 88
    },
    {
      "midi": 62,
      "hit": false,
      "t": 423225.9968072949,
      "d": 86.53846875001909,
      "v": 80
    },
    {
      "midi": 66,
      "hit": false,
      "t": 423225.9968072949,
      "d": 86.53846875001909,
      "v": 80
    },
    {
      "midi": 57,
      "hit": false,
      "t": 423692.34300000325,
      "d": 86.53846875001909,
      "v": 83
    },
    {
      "midi": 62,
      "hit": false,
      "t": 423692.34300000325,
      "d": 86.53846875001909,
      "v": 83
    },
    {
      "midi": 66,
      "hit": false,
      "t": 423692.34300000325,
      "d": 86.53846875001909,
      "v": 83
    },
    {
      "midi": 57,
      "hit": false,
      "t": 423923.11225000327,
      "d": 86.53846875001909,
      "v": 88
    },
    {
      "midi": 62,
      "hit": false,
      "t": 423923.11225000327,
      "d": 86.53846875001909,
      "v": 86
    },
    {
      "midi": 66,
      "hit": false,
      "t": 423923.11225000327,
      "d": 86.53846875001909,
      "v": 88
    },
    {
      "midi": 57,
      "hit": false,
      "t": 424153.8815000033,
      "d": 86.53846875001909,
      "v": 88
    },
    {
      "midi": 62,
      "hit": false,
      "t": 424153.8815000033,
      "d": 86.53846875001909,
      "v": 86
    },
    {
      "midi": 66,
      "hit": false,
      "t": 424153.8815000033,
      "d": 86.53846875001909,
      "v": 88
    },
    {
      "midi": 59,
      "hit": false,
      "t": 424610.61230729497,
      "d": 86.53846875001909,
      "v": 86
    },
    {
      "midi": 62,
      "hit": false,
      "t": 424610.61230729497,
      "d": 86.53846875001909,
      "v": 87
    },
    {
      "midi": 67,
      "hit": false,
      "t": 424610.61230729497,
      "d": 86.53846875001909,
      "v": 80
    },
    {
      "midi": 59,
      "hit": false,
      "t": 425076.9585000033,
      "d": 86.53846875001909,
      "v": 85
    },
    {
      "midi": 62,
      "hit": false,
      "t": 425076.9585000033,
      "d": 86.53846875001909,
      "v": 85
    },
    {
      "midi": 67,
      "hit": false,
      "t": 425076.9585000033,
      "d": 86.53846875001909,
      "v": 85
    },
    {
      "midi": 59,
      "hit": false,
      "t": 425305.3239036492,
      "d": 86.53846875001909,
      "v": 87
    },
    {
      "midi": 62,
      "hit": false,
      "t": 425305.3239036492,
      "d": 86.53846875001909,
      "v": 87
    },
    {
      "midi": 67,
      "hit": false,
      "t": 425305.3239036492,
      "d": 86.53846875001909,
      "v": 86
    },
    {
      "midi": 59,
      "hit": false,
      "t": 425538.49700000335,
      "d": 86.53846875001909,
      "v": 83
    },
    {
      "midi": 62,
      "hit": false,
      "t": 425538.49700000335,
      "d": 86.53846875001909,
      "v": 83
    },
    {
      "midi": 67,
      "hit": false,
      "t": 425538.49700000335,
      "d": 86.53846875001909,
      "v": 83
    },
    {
      "midi": 59,
      "hit": false,
      "t": 426000.0355000034,
      "d": 86.53846875001909,
      "v": 86
    },
    {
      "midi": 62,
      "hit": false,
      "t": 426000.0355000034,
      "d": 86.53846875001909,
      "v": 87
    },
    {
      "midi": 67,
      "hit": false,
      "t": 426000.0355000034,
      "d": 86.53846875001909,
      "v": 86
    },
    {
      "midi": 59,
      "hit": false,
      "t": 426920.7086536492,
      "d": 86.53846875001909,
      "v": 87
    },
    {
      "midi": 62,
      "hit": false,
      "t": 426920.7086536492,
      "d": 86.53846875001909,
      "v": 77
    },
    {
      "midi": 67,
      "hit": false,
      "t": 426920.7086536492,
      "d": 86.53846875001909,
      "v": 77
    },
    {
      "midi": 59,
      "hit": false,
      "t": 427384.6510000034,
      "d": 86.53846875001909,
      "v": 85
    },
    {
      "midi": 62,
      "hit": false,
      "t": 427384.6510000034,
      "d": 86.53846875001909,
      "v": 85
    },
    {
      "midi": 67,
      "hit": false,
      "t": 427384.6510000034,
      "d": 86.53846875001909,
      "v": 85
    },
    {
      "midi": 59,
      "hit": false,
      "t": 427617.82409635757,
      "d": 86.53846875001909,
      "v": 88
    },
    {
      "midi": 62,
      "hit": false,
      "t": 427617.82409635757,
      "d": 86.53846875001909,
      "v": 87
    },
    {
      "midi": 67,
      "hit": false,
      "t": 427617.82409635757,
      "d": 86.53846875001909,
      "v": 82
    },
    {
      "midi": 59,
      "hit": false,
      "t": 427843.78565364925,
      "d": 86.53846875001909,
      "v": 87
    },
    {
      "midi": 62,
      "hit": false,
      "t": 427843.78565364925,
      "d": 86.53846875001909,
      "v": 87
    },
    {
      "midi": 67,
      "hit": false,
      "t": 427843.78565364925,
      "d": 86.53846875001909,
      "v": 86
    },
    {
      "midi": 61,
      "hit": false,
      "t": 428307.72800000344,
      "d": 86.53846875001909,
      "v": 78
    },
    {
      "midi": 64,
      "hit": false,
      "t": 428307.72800000344,
      "d": 86.53846875001909,
      "v": 74
    },
    {
      "midi": 69,
      "hit": false,
      "t": 428307.72800000344,
      "d": 86.53846875001909,
      "v": 74
    },
    {
      "midi": 61,
      "hit": false,
      "t": 428762.05496094096,
      "d": 86.53846875001909,
      "v": 77
    },
    {
      "midi": 64,
      "hit": false,
      "t": 428762.05496094096,
      "d": 86.53846875001909,
      "v": 77
    },
    {
      "midi": 69,
      "hit": false,
      "t": 428762.05496094096,
      "d": 86.53846875001909,
      "v": 77
    },
    {
      "midi": 61,
      "hit": false,
      "t": 428995.22805729514,
      "d": 86.53846875001909,
      "v": 75
    },
    {
      "midi": 64,
      "hit": false,
      "t": 428995.22805729514,
      "d": 86.53846875001909,
      "v": 69
    },
    {
      "midi": 69,
      "hit": false,
      "t": 428995.22805729514,
      "d": 86.53846875001909,
      "v": 78
    },
    {
      "midi": 61,
      "hit": false,
      "t": 429228.4011536493,
      "d": 86.53846875001909,
      "v": 76
    },
    {
      "midi": 64,
      "hit": false,
      "t": 429228.4011536493,
      "d": 86.53846875001909,
      "v": 76
    },
    {
      "midi": 69,
      "hit": false,
      "t": 429228.4011536493,
      "d": 86.53846875001909,
      "v": 76
    },
    {
      "midi": 61,
      "hit": false,
      "t": 429687.5358072952,
      "d": 86.53846875001909,
      "v": 78
    },
    {
      "midi": 64,
      "hit": false,
      "t": 429687.5358072952,
      "d": 86.53846875001909,
      "v": 78
    },
    {
      "midi": 69,
      "hit": false,
      "t": 429687.5358072952,
      "d": 86.53846875001909,
      "v": 73
    },
    {
      "midi": 61,
      "hit": false,
      "t": 430610.61280729517,
      "d": 86.53846875001909,
      "v": 79
    },
    {
      "midi": 64,
      "hit": false,
      "t": 430610.61280729517,
      "d": 86.53846875001909,
      "v": 72
    },
    {
      "midi": 69,
      "hit": false,
      "t": 430610.61280729517,
      "d": 86.53846875001909,
      "v": 69
    },
    {
      "midi": 61,
      "hit": false,
      "t": 431076.9590000035,
      "d": 86.53846875001909,
      "v": 77
    },
    {
      "midi": 64,
      "hit": false,
      "t": 431076.9590000035,
      "d": 86.53846875001909,
      "v": 77
    },
    {
      "midi": 69,
      "hit": false,
      "t": 431076.9590000035,
      "d": 86.53846875001909,
      "v": 77
    },
    {
      "midi": 61,
      "hit": false,
      "t": 431307.72825000354,
      "d": 86.53846875001909,
      "v": 69
    },
    {
      "midi": 64,
      "hit": false,
      "t": 431307.72825000354,
      "d": 86.53846875001909,
      "v": 78
    },
    {
      "midi": 69,
      "hit": false,
      "t": 431307.72825000354,
      "d": 86.53846875001909,
      "v": 74
    },
    {
      "midi": 61,
      "hit": false,
      "t": 431538.49750000355,
      "d": 86.53846875001909,
      "v": 75
    },
    {
      "midi": 64,
      "hit": false,
      "t": 431538.49750000355,
      "d": 86.53846875001909,
      "v": 69
    },
    {
      "midi": 69,
      "hit": false,
      "t": 431538.49750000355,
      "d": 86.53846875001909,
      "v": 78
    },
    {
      "midi": 81,
      "hit": false,
      "t": 431995.2283072881,
      "d": 180.28847656247672,
      "v": 111
    },
    {
      "midi": 57,
      "hit": false,
      "t": 431995.22830729524,
      "d": 86.53846875001909,
      "v": 72
    },
    {
      "midi": 62,
      "hit": false,
      "t": 431995.22830729524,
      "d": 86.53846875001909,
      "v": 78
    },
    {
      "midi": 66,
      "hit": false,
      "t": 431995.22830729524,
      "d": 86.53846875001909,
      "v": 74
    },
    {
      "midi": 81,
      "hit": false,
      "t": 432230.80524999637,
      "d": 180.28847656247672,
      "v": 94
    },
    {
      "midi": 69,
      "hit": false,
      "t": 432461.5744999963,
      "d": 180.28847656247672,
      "v": 98
    },
    {
      "midi": 57,
      "hit": false,
      "t": 432461.5745000036,
      "d": 86.53846875001909,
      "v": 77
    },
    {
      "midi": 62,
      "hit": false,
      "t": 432461.5745000036,
      "d": 86.53846875001909,
      "v": 77
    },
    {
      "midi": 66,
      "hit": false,
      "t": 432461.5745000036,
      "d": 86.53846875001909,
      "v": 77
    },
    {
      "midi": 69,
      "hit": false,
      "t": 432689.9399036421,
      "d": 180.28847656247672,
      "v": 98
    },
    {
      "midi": 57,
      "hit": false,
      "t": 432689.93990364944,
      "d": 86.53846875001909,
      "v": 79
    },
    {
      "midi": 62,
      "hit": false,
      "t": 432689.93990364944,
      "d": 86.53846875001909,
      "v": 69
    },
    {
      "midi": 66,
      "hit": false,
      "t": 432689.93990364944,
      "d": 86.53846875001909,
      "v": 74
    },
    {
      "midi": 69,
      "hit": false,
      "t": 432923.1129999962,
      "d": 180.28847656247672,
      "v": 109
    },
    {
      "midi": 57,
      "hit": false,
      "t": 432923.1130000036,
      "d": 86.53846875001909,
      "v": 75
    },
    {
      "midi": 62,
      "hit": false,
      "t": 432923.1130000036,
      "d": 86.53846875001909,
      "v": 75
    },
    {
      "midi": 66,
      "hit": false,
      "t": 432923.1130000036,
      "d": 86.53846875001909,
      "v": 75
    },
    {
      "midi": 93,
      "hit": false,
      "t": 433156.28609635035,
      "d": 180.28847656247672,
      "v": 94
    },
    {
      "midi": 93,
      "hit": false,
      "t": 433384.65149999614,
      "d": 180.28847656247672,
      "v": 100
    },
    {
      "midi": 57,
      "hit": false,
      "t": 433384.65150000365,
      "d": 86.53846875001909,
      "v": 69
    },
    {
      "midi": 62,
      "hit": false,
      "t": 433384.65150000365,
      "d": 86.53846875001909,
      "v": 75
    },
    {
      "midi": 66,
      "hit": false,
      "t": 433384.65150000365,
      "d": 86.53846875001909,
      "v": 73
    },
    {
      "midi": 81,
      "hit": false,
      "t": 433620.2284427044,
      "d": 180.28847656247672,
      "v": 105
    },
    {
      "midi": 81,
      "hit": false,
      "t": 433846.18999999604,
      "d": 180.28847656247672,
      "v": 106
    },
    {
      "midi": 69,
      "hit": false,
      "t": 434079.36309635016,
      "d": 180.28847656247672,
      "v": 95
    },
    {
      "midi": 69,
      "hit": false,
      "t": 434305.3246536418,
      "d": 180.28847656247672,
      "v": 100
    },
    {
      "midi": 57,
      "hit": false,
      "t": 434305.32465364947,
      "d": 86.53846875001909,
      "v": 78
    },
    {
      "midi": 62,
      "hit": false,
      "t": 434305.32465364947,
      "d": 86.53846875001909,
      "v": 78
    },
    {
      "midi": 66,
      "hit": false,
      "t": 434305.32465364947,
      "d": 86.53846875001909,
      "v": 78
    },
    {
      "midi": 93,
      "hit": false,
      "t": 434536.09390364174,
      "d": 180.28847656247672,
      "v": 99
    },
    {
      "midi": 93,
      "hit": false,
      "t": 434769.26699999586,
      "d": 180.28847656247672,
      "v": 111
    },
    {
      "midi": 57,
      "hit": false,
      "t": 434769.26700000366,
      "d": 86.53846875001909,
      "v": 75
    },
    {
      "midi": 62,
      "hit": false,
      "t": 434769.26700000366,
      "d": 86.53846875001909,
      "v": 75
    },
    {
      "midi": 66,
      "hit": false,
      "t": 434769.26700000366,
      "d": 86.53846875001909,
      "v": 75
    },
    {
      "midi": 81,
      "hit": false,
      "t": 435002.44009635,
      "d": 180.28847656247672,
      "v": 95
    },
    {
      "midi": 57,
      "hit": false,
      "t": 435002.44009635784,
      "d": 86.53846875001909,
      "v": 78
    },
    {
      "midi": 62,
      "hit": false,
      "t": 435002.44009635784,
      "d": 86.53846875001909,
      "v": 72
    },
    {
      "midi": 66,
      "hit": false,
      "t": 435002.44009635784,
      "d": 86.53846875001909,
      "v": 69
    },
    {
      "midi": 81,
      "hit": false,
      "t": 435228.4016536416,
      "d": 180.28847656247672,
      "v": 98
    },
    {
      "midi": 57,
      "hit": false,
      "t": 435228.4016536495,
      "d": 86.53846875001909,
      "v": 72
    },
    {
      "midi": 62,
      "hit": false,
      "t": 435228.4016536495,
      "d": 86.53846875001909,
      "v": 72
    },
    {
      "midi": 66,
      "hit": false,
      "t": 435228.4016536495,
      "d": 86.53846875001909,
      "v": 72
    },
    {
      "midi": 69,
      "hit": false,
      "t": 435466.38244270405,
      "d": 180.28847656247672,
      "v": 98
    },
    {
      "midi": 69,
      "hit": false,
      "t": 435692.3439999957,
      "d": 180.28847656247672,
      "v": 111
    },
    {
      "midi": 57,
      "hit": false,
      "t": 435692.3440000037,
      "d": 86.53846875001909,
      "v": 78
    },
    {
      "midi": 61,
      "hit": false,
      "t": 435692.3440000037,
      "d": 86.53846875001909,
      "v": 69
    },
    {
      "midi": 66,
      "hit": false,
      "t": 435692.3440000037,
      "d": 86.53846875001909,
      "v": 75
    },
    {
      "midi": 62,
      "hit": false,
      "t": 435923.11324999563,
      "d": 180.28847656247672,
      "v": 97
    },
    {
      "midi": 91,
      "hit": false,
      "t": 435923.11324999563,
      "d": 180.28847656247672,
      "v": 97
    },
    {
      "midi": 90,
      "hit": false,
      "t": 436146.6709609331,
      "d": 180.28847656247672,
      "v": 101
    },
    {
      "midi": 57,
      "hit": false,
      "t": 436146.67096094124,
      "d": 86.53846875001909,
      "v": 77
    },
    {
      "midi": 61,
      "hit": false,
      "t": 436146.67096094124,
      "d": 86.53846875001909,
      "v": 77
    },
    {
      "midi": 66,
      "hit": false,
      "t": 436146.67096094124,
      "d": 86.53846875001909,
      "v": 77
    },
    {
      "midi": 79,
      "hit": false,
      "t": 436379.8440572872,
      "d": 180.28847656247672,
      "v": 97
    },
    {
      "midi": 57,
      "hit": false,
      "t": 436379.8440572954,
      "d": 86.53846875001909,
      "v": 78
    },
    {
      "midi": 61,
      "hit": false,
      "t": 436379.8440572954,
      "d": 86.53846875001909,
      "v": 78
    },
    {
      "midi": 67,
      "hit": false,
      "t": 436379.8440572954,
      "d": 86.53846875001909,
      "v": 79
    },
    {
      "midi": 78,
      "hit": false,
      "t": 436613.0171536413,
      "d": 180.28847656247672,
      "v": 109
    },
    {
      "midi": 57,
      "hit": false,
      "t": 436613.0171536496,
      "d": 86.53846875001909,
      "v": 75
    },
    {
      "midi": 61,
      "hit": false,
      "t": 436613.0171536496,
      "d": 86.53846875001909,
      "v": 75
    },
    {
      "midi": 67,
      "hit": false,
      "t": 436613.0171536496,
      "d": 86.53846875001909,
      "v": 75
    },
    {
      "midi": 67,
      "hit": false,
      "t": 436846.19024999544,
      "d": 180.28847656247672,
      "v": 94
    },
    {
      "midi": 66,
      "hit": false,
      "t": 437072.15180728707,
      "d": 180.28847656247672,
      "v": 99
    },
    {
      "midi": 57,
      "hit": false,
      "t": 437072.15180729545,
      "d": 86.53846875001909,
      "v": 77
    },
    {
      "midi": 61,
      "hit": false,
      "t": 437072.15180729545,
      "d": 86.53846875001909,
      "v": 78
    },
    {
      "midi": 67,
      "hit": false,
      "t": 437072.15180729545,
      "d": 86.53846875001909,
      "v": 69
    },
    {
      "midi": 91,
      "hit": false,
      "t": 437305.3249036412,
      "d": 180.28847656247672,
      "v": 106
    },
    {
      "midi": 90,
      "hit": false,
      "t": 437536.09415364114,
      "d": 180.28847656247672,
      "v": 109
    },
    {
      "midi": 79,
      "hit": false,
      "t": 437769.26724999526,
      "d": 180.28847656247672,
      "v": 97
    },
    {
      "midi": 78,
      "hit": false,
      "t": 437995.2288072869,
      "d": 180.28847656247672,
      "v": 99
    },
    {
      "midi": 57,
      "hit": false,
      "t": 437995.22880729544,
      "d": 86.53846875001909,
      "v": 78
    },
    {
      "midi": 61,
      "hit": false,
      "t": 437995.22880729544,
      "d": 86.53846875001909,
      "v": 78
    },
    {
      "midi": 67,
      "hit": false,
      "t": 437995.22880729544,
      "d": 86.53846875001909,
      "v": 79
    },
    {
      "midi": 67,
      "hit": false,
      "t": 438228.401903641,
      "d": 180.28847656247672,
      "v": 100
    },
    {
      "midi": 62,
      "hit": false,
      "t": 438461.5749999951,
      "d": 180.28847656247672,
      "v": 106
    },
    {
      "midi": 57,
      "hit": false,
      "t": 438461.5750000038,
      "d": 86.53846875001909,
      "v": 76
    },
    {
      "midi": 61,
      "hit": false,
      "t": 438461.5750000038,
      "d": 86.53846875001909,
      "v": 76
    },
    {
      "midi": 67,
      "hit": false,
      "t": 438461.5750000038,
      "d": 86.53846875001909,
      "v": 76
    },
    {
      "midi": 91,
      "hit": false,
      "t": 438692.3442499951,
      "d": 180.28847656247672,
      "v": 97
    },
    {
      "midi": 57,
      "hit": false,
      "t": 438692.3442500038,
      "d": 86.53846875001909,
      "v": 78
    },
    {
      "midi": 61,
      "hit": false,
      "t": 438692.3442500038,
      "d": 86.53846875001909,
      "v": 78
    },
    {
      "midi": 67,
      "hit": false,
      "t": 438692.3442500038,
      "d": 86.53846875001909,
      "v": 78
    },
    {
      "midi": 90,
      "hit": false,
      "t": 438923.11349999503,
      "d": 180.28847656247672,
      "v": 99
    },
    {
      "midi": 57,
      "hit": false,
      "t": 438923.1135000038,
      "d": 86.53846875001909,
      "v": 78
    },
    {
      "midi": 61,
      "hit": false,
      "t": 438923.1135000038,
      "d": 86.53846875001909,
      "v": 78
    },
    {
      "midi": 67,
      "hit": false,
      "t": 438923.1135000038,
      "d": 86.53846875001909,
      "v": 78
    },
    {
      "midi": 79,
      "hit": false,
      "t": 439153.882749995,
      "d": 180.28847656247672,
      "v": 100
    },
    {
      "midi": 86,
      "hit": false,
      "t": 439153.882749995,
      "d": 180.28847656247672,
      "v": 100
    },
    {
      "midi": 86,
      "hit": false,
      "t": 439379.8443072866,
      "d": 180.28847656247672,
      "v": 111
    },
    {
      "midi": 59,
      "hit": false,
      "t": 439379.8443072955,
      "d": 86.53846875001909,
      "v": 69
    },
    {
      "midi": 62,
      "hit": false,
      "t": 439379.8443072955,
      "d": 86.53846875001909,
      "v": 69
    },
    {
      "midi": 66,
      "hit": false,
      "t": 439379.8443072955,
      "d": 86.53846875001909,
      "v": 78
    },
    {
      "midi": 66,
      "hit": false,
      "t": 439615.4212499949,
      "d": 180.28847656247672,
      "v": 94
    },
    {
      "midi": 78,
      "hit": false,
      "t": 439615.4212499949,
      "d": 180.28847656247672,
      "v": 94
    },
    {
      "midi": 64,
      "hit": false,
      "t": 439846.19049999485,
      "d": 180.28847656247672,
      "v": 98
    },
    {
      "midi": 74,
      "hit": false,
      "t": 439846.19049999485,
      "d": 180.28847656247672,
      "v": 98
    },
    {
      "midi": 59,
      "hit": false,
      "t": 439846.19050000387,
      "d": 86.53846875001909,
      "v": 77
    },
    {
      "midi": 62,
      "hit": false,
      "t": 439846.19050000387,
      "d": 86.53846875001909,
      "v": 77
    },
    {
      "midi": 66,
      "hit": false,
      "t": 439846.19050000387,
      "d": 86.53846875001909,
      "v": 77
    },
    {
      "midi": 62,
      "hit": false,
      "t": 440074.55590364063,
      "d": 180.28847656247672,
      "v": 98
    },
    {
      "midi": 90,
      "hit": false,
      "t": 440074.55590364063,
      "d": 180.28847656247672,
      "v": 98
    },
    {
      "midi": 59,
      "hit": false,
      "t": 440074.5559036497,
      "d": 86.53846875001909,
      "v": 69
    },
    {
      "midi": 62,
      "hit": false,
      "t": 440074.5559036497,
      "d": 86.53846875001909,
      "v": 69
    },
    {
      "midi": 66,
      "hit": false,
      "t": 440074.5559036497,
      "d": 86.53846875001909,
      "v": 69
    },
    {
      "midi": 88,
      "hit": false,
      "t": 440307.72899999475,
      "d": 180.28847656247672,
      "v": 109
    },
    {
      "midi": 59,
      "hit": false,
      "t": 440307.7290000039,
      "d": 86.53846875001909,
      "v": 75
    },
    {
      "midi": 62,
      "hit": false,
      "t": 440307.7290000039,
      "d": 86.53846875001909,
      "v": 75
    },
    {
      "midi": 66,
      "hit": false,
      "t": 440307.7290000039,
      "d": 86.53846875001909,
      "v": 75
    },
    {
      "midi": 78,
      "hit": false,
      "t": 440540.9020963489,
      "d": 180.28847656247672,
      "v": 94
    },
    {
      "midi": 86,
      "hit": false,
      "t": 440540.9020963489,
      "d": 180.28847656247672,
      "v": 94
    },
    {
      "midi": 76,
      "hit": false,
      "t": 440769.26749999466,
      "d": 180.28847656247672,
      "v": 100
    },
    {
      "midi": 59,
      "hit": false,
      "t": 440769.2675000039,
      "d": 86.53846875001909,
      "v": 78
    },
    {
      "midi": 62,
      "hit": false,
      "t": 440769.2675000039,
      "d": 86.53846875001909,
      "v": 69
    },
    {
      "midi": 66,
      "hit": false,
      "t": 440769.2675000039,
      "d": 86.53846875001909,
      "v": 78
    },
    {
      "midi": 66,
      "hit": false,
      "t": 441004.84444270295,
      "d": 180.28847656247672,
      "v": 105
    },
    {
      "midi": 74,
      "hit": false,
      "t": 441004.84444270295,
      "d": 180.28847656247672,
      "v": 105
    },
    {
      "midi": 90,
      "hit": false,
      "t": 441004.84444270295,
      "d": 180.28847656247672,
      "v": 105
    },
    {
      "midi": 64,
      "hit": false,
      "t": 441230.80599999457,
      "d": 180.28847656247672,
      "v": 106
    },
    {
      "midi": 88,
      "hit": false,
      "t": 441230.80599999457,
      "d": 180.28847656247672,
      "v": 106
    },
    {
      "midi": 62,
      "hit": false,
      "t": 441463.9790963487,
      "d": 180.28847656247672,
      "v": 95
    },
    {
      "midi": 86,
      "hit": false,
      "t": 441463.9790963487,
      "d": 180.28847656247672,
      "v": 95
    },
    {
      "midi": 59,
      "hit": false,
      "t": 441689.94065364974,
      "d": 86.53846875001909,
      "v": 78
    },
    {
      "midi": 62,
      "hit": false,
      "t": 441689.94065364974,
      "d": 86.53846875001909,
      "v": 78
    },
    {
      "midi": 66,
      "hit": false,
      "t": 441689.94065364974,
      "d": 86.53846875001909,
      "v": 78
    },
    {
      "midi": 78,
      "hit": false,
      "t": 441920.7099036403,
      "d": 180.28847656247672,
      "v": 99
    },
    {
      "midi": 90,
      "hit": false,
      "t": 441920.7099036403,
      "d": 180.28847656247672,
      "v": 99
    },
    {
      "midi": 76,
      "hit": false,
      "t": 442153.88299999444,
      "d": 180.28847656247672,
      "v": 111
    },
    {
      "midi": 88,
      "hit": false,
      "t": 442153.88299999444,
      "d": 180.28847656247672,
      "v": 111
    },
    {
      "midi": 59,
      "hit": false,
      "t": 442153.88300000393,
      "d": 86.53846875001909,
      "v": 74
    },
    {
      "midi": 62,
      "hit": false,
      "t": 442153.88300000393,
      "d": 86.53846875001909,
      "v": 74
    },
    {
      "midi": 66,
      "hit": false,
      "t": 442153.88300000393,
      "d": 86.53846875001909,
      "v": 74
    },
    {
      "midi": 66,
      "hit": false,
      "t": 442387.05609634856,
      "d": 180.28847656247672,
      "v": 95
    },
    {
      "midi": 74,
      "hit": false,
      "t": 442387.05609634856,
      "d": 180.28847656247672,
      "v": 95
    },
    {
      "midi": 86,
      "hit": false,
      "t": 442387.05609634856,
      "d": 180.28847656247672,
      "v": 95
    },
    {
      "midi": 59,
      "hit": false,
      "t": 442387.0560963581,
      "d": 86.53846875001909,
      "v": 78
    },
    {
      "midi": 62,
      "hit": false,
      "t": 442387.0560963581,
      "d": 86.53846875001909,
      "v": 78
    },
    {
      "midi": 66,
      "hit": false,
      "t": 442387.0560963581,
      "d": 86.53846875001909,
      "v": 78
    },
    {
      "midi": 64,
      "hit": false,
      "t": 442613.0176536402,
      "d": 180.28847656247672,
      "v": 98
    },
    {
      "midi": 59,
      "hit": false,
      "t": 442613.0176536498,
      "d": 86.53846875001909,
      "v": 71
    },
    {
      "midi": 62,
      "hit": false,
      "t": 442613.0176536498,
      "d": 86.53846875001909,
      "v": 71
    },
    {
      "midi": 66,
      "hit": false,
      "t": 442613.0176536498,
      "d": 86.53846875001909,
      "v": 71
    },
    {
      "midi": 62,
      "hit": false,
      "t": 442850.99844270264,
      "d": 180.28847656247672,
      "v": 98
    },
    {
      "midi": 79,
      "hit": false,
      "t": 442850.99844270264,
      "d": 180.28847656247672,
      "v": 98
    },
    {
      "midi": 90,
      "hit": false,
      "t": 442850.99844270264,
      "d": 180.28847656247672,
      "v": 98
    },
    {
      "midi": 74,
      "hit": false,
      "t": 443076.95999999426,
      "d": 180.28847656247672,
      "v": 111
    },
    {
      "midi": 88,
      "hit": false,
      "t": 443076.95999999426,
      "d": 180.28847656247672,
      "v": 111
    },
    {
      "midi": 57,
      "hit": false,
      "t": 443076.960000004,
      "d": 86.53846875001909,
      "v": 72
    },
    {
      "midi": 62,
      "hit": false,
      "t": 443076.960000004,
      "d": 86.53846875001909,
      "v": 75
    },
    {
      "midi": 66,
      "hit": false,
      "t": 443076.960000004,
      "d": 86.53846875001909,
      "v": 73
    },
    {
      "midi": 74,
      "hit": false,
      "t": 443307.7292499942,
      "d": 180.28847656247672,
      "v": 97
    },
    {
      "midi": 78,
      "hit": false,
      "t": 443307.7292499942,
      "d": 180.28847656247672,
      "v": 97
    },
    {
      "midi": 74,
      "hit": false,
      "t": 443531.28696093167,
      "d": 180.28847656247672,
      "v": 101
    },
    {
      "midi": 57,
      "hit": false,
      "t": 443531.2869609415,
      "d": 86.53846875001909,
      "v": 77
    },
    {
      "midi": 62,
      "hit": false,
      "t": 443531.2869609415,
      "d": 86.53846875001909,
      "v": 77
    },
    {
      "midi": 66,
      "hit": false,
      "t": 443531.2869609415,
      "d": 86.53846875001909,
      "v": 77
    },
    {
      "midi": 67,
      "hit": false,
      "t": 443764.4600572858,
      "d": 180.28847656247672,
      "v": 97
    },
    {
      "midi": 91,
      "hit": false,
      "t": 443764.4600572858,
      "d": 180.28847656247672,
      "v": 97
    },
    {
      "midi": 57,
      "hit": false,
      "t": 443764.4600572957,
      "d": 86.53846875001909,
      "v": 78
    },
    {
      "midi": 62,
      "hit": false,
      "t": 443764.4600572957,
      "d": 86.53846875001909,
      "v": 79
    },
    {
      "midi": 66,
      "hit": false,
      "t": 443764.4600572957,
      "d": 86.53846875001909,
      "v": 78
    },
    {
      "midi": 62,
      "hit": false,
      "t": 443997.6331536399,
      "d": 180.28847656247672,
      "v": 109
    },
    {
      "midi": 86,
      "hit": false,
      "t": 443997.6331536399,
      "d": 180.28847656247672,
      "v": 109
    },
    {
      "midi": 57,
      "hit": false,
      "t": 443997.63315364986,
      "d": 86.53846875001909,
      "v": 76
    },
    {
      "midi": 62,
      "hit": false,
      "t": 443997.63315364986,
      "d": 86.53846875001909,
      "v": 76
    },
    {
      "midi": 66,
      "hit": false,
      "t": 443997.63315364986,
      "d": 86.53846875001909,
      "v": 76
    },
    {
      "midi": 67,
      "hit": false,
      "t": 444230.806249994,
      "d": 180.28847656247672,
      "v": 94
    },
    {
      "midi": 79,
      "hit": false,
      "t": 444230.806249994,
      "d": 180.28847656247672,
      "v": 94
    },
    {
      "midi": 91,
      "hit": false,
      "t": 444230.806249994,
      "d": 180.28847656247672,
      "v": 94
    },
    {
      "midi": 62,
      "hit": false,
      "t": 444456.76780728565,
      "d": 180.28847656247672,
      "v": 99
    },
    {
      "midi": 57,
      "hit": false,
      "t": 444456.7678072957,
      "d": 86.53846875001909,
      "v": 78
    },
    {
      "midi": 62,
      "hit": false,
      "t": 444456.7678072957,
      "d": 86.53846875001909,
      "v": 78
    },
    {
      "midi": 66,
      "hit": false,
      "t": 444456.7678072957,
      "d": 86.53846875001909,
      "v": 72
    },
    {
      "midi": 78,
      "hit": false,
      "t": 444689.94090363977,
      "d": 180.28847656247672,
      "v": 106
    },
    {
      "midi": 91,
      "hit": false,
      "t": 444689.94090363977,
      "d": 180.28847656247672,
      "v": 106
    },
    {
      "midi": 74,
      "hit": false,
      "t": 444920.7101536397,
      "d": 180.28847656247672,
      "v": 109
    },
    {
      "midi": 86,
      "hit": false,
      "t": 444920.7101536397,
      "d": 180.28847656247672,
      "v": 109
    },
    {
      "midi": 67,
      "hit": false,
      "t": 445153.88324999384,
      "d": 180.28847656247672,
      "v": 97
    },
    {
      "midi": 74,
      "hit": false,
      "t": 445153.88324999384,
      "d": 180.28847656247672,
      "v": 97
    },
    {
      "midi": 91,
      "hit": false,
      "t": 445153.88324999384,
      "d": 180.28847656247672,
      "v": 97
    },
    {
      "midi": 62,
      "hit": false,
      "t": 445379.84480728547,
      "d": 180.28847656247672,
      "v": 99
    },
    {
      "midi": 57,
      "hit": false,
      "t": 445379.8448072957,
      "d": 86.53846875001909,
      "v": 79
    },
    {
      "midi": 62,
      "hit": false,
      "t": 445379.8448072957,
      "d": 86.53846875001909,
      "v": 79
    },
    {
      "midi": 66,
      "hit": false,
      "t": 445379.8448072957,
      "d": 86.53846875001909,
      "v": 72
    },
    {
      "midi": 67,
      "hit": false,
      "t": 445613.0179036396,
      "d": 180.28847656247672,
      "v": 100
    },
    {
      "midi": 79,
      "hit": false,
      "t": 445613.0179036396,
      "d": 180.28847656247672,
      "v": 100
    },
    {
      "midi": 91,
      "hit": false,
      "t": 445613.0179036396,
      "d": 180.28847656247672,
      "v": 100
    },
    {
      "midi": 62,
      "hit": false,
      "t": 445846.1909999937,
      "d": 180.28847656247672,
      "v": 106
    },
    {
      "midi": 74,
      "hit": false,
      "t": 445846.1909999937,
      "d": 180.28847656247672,
      "v": 106
    },
    {
      "midi": 86,
      "hit": false,
      "t": 445846.1909999937,
      "d": 180.28847656247672,
      "v": 106
    },
    {
      "midi": 57,
      "hit": false,
      "t": 445846.19100000407,
      "d": 86.53846875001909,
      "v": 75
    },
    {
      "midi": 62,
      "hit": false,
      "t": 445846.19100000407,
      "d": 86.53846875001909,
      "v": 75
    },
    {
      "midi": 66,
      "hit": false,
      "t": 445846.19100000407,
      "d": 86.53846875001909,
      "v": 75
    },
    {
      "midi": 74,
      "hit": false,
      "t": 446076.96024999366,
      "d": 180.28847656247672,
      "v": 97
    },
    {
      "midi": 91,
      "hit": false,
      "t": 446076.96024999366,
      "d": 180.28847656247672,
      "v": 97
    },
    {
      "midi": 57,
      "hit": false,
      "t": 446076.9602500041,
      "d": 86.53846875001909,
      "v": 78
    },
    {
      "midi": 62,
      "hit": false,
      "t": 446076.9602500041,
      "d": 86.53846875001909,
      "v": 78
    },
    {
      "midi": 66,
      "hit": false,
      "t": 446076.9602500041,
      "d": 86.53846875001909,
      "v": 69
    },
    {
      "midi": 74,
      "hit": false,
      "t": 446307.7294999936,
      "d": 180.28847656247672,
      "v": 99
    },
    {
      "midi": 57,
      "hit": false,
      "t": 446307.7295000041,
      "d": 86.53846875001909,
      "v": 78
    },
    {
      "midi": 62,
      "hit": false,
      "t": 446307.7295000041,
      "d": 86.53846875001909,
      "v": 78
    },
    {
      "midi": 66,
      "hit": false,
      "t": 446307.7295000041,
      "d": 86.53846875001909,
      "v": 78
    },
    {
      "midi": 67,
      "hit": false,
      "t": 446538.49874999357,
      "d": 180.28847656247672,
      "v": 100
    },
    {
      "midi": 86,
      "hit": false,
      "t": 446538.49874999357,
      "d": 180.28847656247672,
      "v": 100
    },
    {
      "midi": 91,
      "hit": false,
      "t": 446538.49874999357,
      "d": 180.28847656247672,
      "v": 100
    },
    {
      "midi": 62,
      "hit": false,
      "t": 446764.4603072852,
      "d": 180.28847656247672,
      "v": 111
    },
    {
      "midi": 74,
      "hit": false,
      "t": 446764.4603072852,
      "d": 180.28847656247672,
      "v": 111
    },
    {
      "midi": 59,
      "hit": false,
      "t": 446764.4603072958,
      "d": 86.53846875001909,
      "v": 78
    },
    {
      "midi": 62,
      "hit": false,
      "t": 446764.4603072958,
      "d": 86.53846875001909,
      "v": 72
    },
    {
      "midi": 66,
      "hit": false,
      "t": 446764.4603072958,
      "d": 86.53846875001909,
      "v": 78
    },
    {
      "midi": 67,
      "hit": false,
      "t": 447000.0372499935,
      "d": 180.28847656247672,
      "v": 94
    },
    {
      "midi": 79,
      "hit": false,
      "t": 447000.0372499935,
      "d": 180.28847656247672,
      "v": 94
    },
    {
      "midi": 88,
      "hit": false,
      "t": 447000.0372499935,
      "d": 180.28847656247672,
      "v": 94
    },
    {
      "midi": 62,
      "hit": false,
      "t": 447230.8064999934,
      "d": 180.28847656247672,
      "v": 98
    },
    {
      "midi": 86,
      "hit": false,
      "t": 447230.8064999934,
      "d": 180.28847656247672,
      "v": 98
    },
    {
      "midi": 59,
      "hit": false,
      "t": 447230.80650000414,
      "d": 86.53846875001909,
      "v": 76
    },
    {
      "midi": 62,
      "hit": false,
      "t": 447230.80650000414,
      "d": 86.53846875001909,
      "v": 76
    },
    {
      "midi": 66,
      "hit": false,
      "t": 447230.80650000414,
      "d": 86.53846875001909,
      "v": 76
    },
    {
      "midi": 76,
      "hit": false,
      "t": 447459.1719036392,
      "d": 180.28847656247672,
      "v": 98
    },
    {
      "midi": 91,
      "hit": false,
      "t": 447459.1719036392,
      "d": 180.28847656247672,
      "v": 98
    },
    {
      "midi": 59,
      "hit": false,
      "t": 447459.17190365,
      "d": 86.53846875001909,
      "v": 72
    },
    {
      "midi": 62,
      "hit": false,
      "t": 447459.17190365,
      "d": 86.53846875001909,
      "v": 72
    },
    {
      "midi": 66,
      "hit": false,
      "t": 447459.17190365,
      "d": 86.53846875001909,
      "v": 72
    },
    {
      "midi": 74,
      "hit": false,
      "t": 447692.34499999334,
      "d": 180.28847656247672,
      "v": 109
    },
    {
      "midi": 79,
      "hit": false,
      "t": 447692.34499999334,
      "d": 180.28847656247672,
      "v": 109
    },
    {
      "midi": 59,
      "hit": false,
      "t": 447692.34500000416,
      "d": 86.53846875001909,
      "v": 78
    },
    {
      "midi": 62,
      "hit": false,
      "t": 447692.34500000416,
      "d": 86.53846875001909,
      "v": 78
    },
    {
      "midi": 66,
      "hit": false,
      "t": 447692.34500000416,
      "d": 86.53846875001909,
      "v": 78
    },
    {
      "midi": 64,
      "hit": false,
      "t": 447925.51809634746,
      "d": 180.28847656247672,
      "v": 94
    },
    {
      "midi": 74,
      "hit": false,
      "t": 448153.88349999324,
      "d": 180.28847656247672,
      "v": 100
    },
    {
      "midi": 59,
      "hit": false,
      "t": 448153.8835000042,
      "d": 86.53846875001909,
      "v": 78
    },
    {
      "midi": 62,
      "hit": false,
      "t": 448153.8835000042,
      "d": 86.53846875001909,
      "v": 78
    },
    {
      "midi": 66,
      "hit": false,
      "t": 448153.8835000042,
      "d": 86.53846875001909,
      "v": 78
    },
    {
      "midi": 79,
      "hit": false,
      "t": 448389.46044270153,
      "d": 180.28847656247672,
      "v": 105
    },
    {
      "midi": 88,
      "hit": false,
      "t": 448389.46044270153,
      "d": 180.28847656247672,
      "v": 105
    },
    {
      "midi": 91,
      "hit": false,
      "t": 448389.46044270153,
      "d": 180.28847656247672,
      "v": 105
    },
    {
      "midi": 62,
      "hit": false,
      "t": 448615.42199999315,
      "d": 180.28847656247672,
      "v": 106
    },
    {
      "midi": 86,
      "hit": false,
      "t": 448615.42199999315,
      "d": 180.28847656247672,
      "v": 106
    },
    {
      "midi": 76,
      "hit": false,
      "t": 448848.5950963473,
      "d": 180.28847656247672,
      "v": 95
    },
    {
      "midi": 88,
      "hit": false,
      "t": 448848.5950963473,
      "d": 180.28847656247672,
      "v": 95
    },
    {
      "midi": 91,
      "hit": false,
      "t": 448848.5950963473,
      "d": 180.28847656247672,
      "v": 95
    },
    {
      "midi": 74,
      "hit": false,
      "t": 449074.5566536389,
      "d": 180.28847656247672,
      "v": 100
    },
    {
      "midi": 79,
      "hit": false,
      "t": 449074.5566536389,
      "d": 180.28847656247672,
      "v": 100
    },
    {
      "midi": 86,
      "hit": false,
      "t": 449074.5566536389,
      "d": 180.28847656247672,
      "v": 100
    },
    {
      "midi": 59,
      "hit": false,
      "t": 449074.55665365,
      "d": 86.53846875001909,
      "v": 78
    },
    {
      "midi": 62,
      "hit": false,
      "t": 449074.55665365,
      "d": 86.53846875001909,
      "v": 73
    },
    {
      "midi": 66,
      "hit": false,
      "t": 449074.55665365,
      "d": 86.53846875001909,
      "v": 79
    },
    {
      "midi": 64,
      "hit": false,
      "t": 449305.32590363885,
      "d": 180.28847656247672,
      "v": 99
    },
    {
      "midi": 88,
      "hit": false,
      "t": 449305.32590363885,
      "d": 180.28847656247672,
      "v": 99
    },
    {
      "midi": 74,
      "hit": false,
      "t": 449538.49899999297,
      "d": 180.28847656247672,
      "v": 111
    },
    {
      "midi": 59,
      "hit": false,
      "t": 449538.4990000042,
      "d": 86.53846875001909,
      "v": 75
    },
    {
      "midi": 62,
      "hit": false,
      "t": 449538.4990000042,
      "d": 86.53846875001909,
      "v": 75
    },
    {
      "midi": 66,
      "hit": false,
      "t": 449538.4990000042,
      "d": 86.53846875001909,
      "v": 75
    },
    {
      "midi": 67,
      "hit": false,
      "t": 449771.6720963471,
      "d": 180.28847656247672,
      "v": 95
    },
    {
      "midi": 79,
      "hit": false,
      "t": 449771.6720963471,
      "d": 180.28847656247672,
      "v": 95
    },
    {
      "midi": 88,
      "hit": false,
      "t": 449771.6720963471,
      "d": 180.28847656247672,
      "v": 95
    },
    {
      "midi": 59,
      "hit": false,
      "t": 449771.6720963584,
      "d": 86.53846875001909,
      "v": 78
    },
    {
      "midi": 62,
      "hit": false,
      "t": 449771.6720963584,
      "d": 86.53846875001909,
      "v": 79
    },
    {
      "midi": 66,
      "hit": false,
      "t": 449771.6720963584,
      "d": 86.53846875001909,
      "v": 78
    },
    {
      "midi": 62,
      "hit": false,
      "t": 449997.6336536387,
      "d": 180.28847656247672,
      "v": 98
    },
    {
      "midi": 86,
      "hit": false,
      "t": 449997.6336536387,
      "d": 180.28847656247672,
      "v": 98
    },
    {
      "midi": 59,
      "hit": false,
      "t": 449997.63365365006,
      "d": 86.53846875001909,
      "v": 69
    },
    {
      "midi": 62,
      "hit": false,
      "t": 449997.63365365006,
      "d": 86.53846875001909,
      "v": 69
    },
    {
      "midi": 66,
      "hit": false,
      "t": 449997.63365365006,
      "d": 86.53846875001909,
      "v": 69
    },
    {
      "midi": 76,
      "hit": false,
      "t": 450235.61444270116,
      "d": 180.28847656247672,
      "v": 98
    },
    {
      "midi": 79,
      "hit": false,
      "t": 450235.61444270116,
      "d": 180.28847656247672,
      "v": 98
    },
    {
      "midi": 91,
      "hit": false,
      "t": 450235.61444270116,
      "d": 180.28847656247672,
      "v": 98
    },
    {
      "midi": 62,
      "hit": false,
      "t": 450461.5759999928,
      "d": 180.28847656247672,
      "v": 111
    },
    {
      "midi": 74,
      "hit": false,
      "t": 450461.5759999928,
      "d": 180.28847656247672,
      "v": 111
    },
    {
      "midi": 78,
      "hit": false,
      "t": 450461.5759999928,
      "d": 180.28847656247672,
      "v": 111
    },
    {
      "midi": 86,
      "hit": false,
      "t": 450461.5759999928,
      "d": 180.28847656247672,
      "v": 111
    },
    {
      "midi": 90,
      "hit": false,
      "t": 450461.5759999928,
      "d": 180.28847656247672,
      "v": 111
    },
    {
      "midi": 57,
      "hit": false,
      "t": 450461.57600000425,
      "d": 86.53846875001909,
      "v": 74
    },
    {
      "midi": 62,
      "hit": false,
      "t": 450461.57600000425,
      "d": 86.53846875001909,
      "v": 78
    },
    {
      "midi": 66,
      "hit": false,
      "t": 450461.57600000425,
      "d": 86.53846875001909,
      "v": 73
    },
    {
      "midi": 66,
      "hit": false,
      "t": 450692.34524999274,
      "d": 180.28847656247672,
      "v": 97
    },
    {
      "midi": 81,
      "hit": false,
      "t": 450915.9029609302,
      "d": 180.28847656247672,
      "v": 101
    },
    {
      "midi": 57,
      "hit": false,
      "t": 450915.9029609418,
      "d": 86.53846875001909,
      "v": 77
    },
    {
      "midi": 62,
      "hit": false,
      "t": 450915.9029609418,
      "d": 86.53846875001909,
      "v": 77
    },
    {
      "midi": 66,
      "hit": false,
      "t": 450915.9029609418,
      "d": 86.53846875001909,
      "v": 77
    },
    {
      "midi": 74,
      "hit": false,
      "t": 451149.0760572843,
      "d": 180.28847656247672,
      "v": 97
    },
    {
      "midi": 78,
      "hit": false,
      "t": 451149.0760572843,
      "d": 180.28847656247672,
      "v": 97
    },
    {
      "midi": 86,
      "hit": false,
      "t": 451149.0760572843,
      "d": 180.28847656247672,
      "v": 97
    },
    {
      "midi": 90,
      "hit": false,
      "t": 451149.0760572843,
      "d": 180.28847656247672,
      "v": 97
    },
    {
      "midi": 57,
      "hit": false,
      "t": 451149.07605729596,
      "d": 86.53846875001909,
      "v": 78
    },
    {
      "midi": 62,
      "hit": false,
      "t": 451149.07605729596,
      "d": 86.53846875001909,
      "v": 78
    },
    {
      "midi": 66,
      "hit": false,
      "t": 451149.07605729596,
      "d": 86.53846875001909,
      "v": 78
    },
    {
      "midi": 57,
      "hit": false,
      "t": 451382.24915365013,
      "d": 86.53846875001909,
      "v": 75
    },
    {
      "midi": 62,
      "hit": false,
      "t": 451382.24915365013,
      "d": 86.53846875001909,
      "v": 75
    },
    {
      "midi": 66,
      "hit": false,
      "t": 451382.24915365013,
      "d": 86.53846875001909,
      "v": 75
    },
    {
      "midi": 66,
      "hit": false,
      "t": 451615.4222499926,
      "d": 180.28847656247672,
      "v": 94
    },
    {
      "midi": 78,
      "hit": false,
      "t": 451615.4222499926,
      "d": 180.28847656247672,
      "v": 94
    },
    {
      "midi": 81,
      "hit": false,
      "t": 451615.4222499926,
      "d": 180.28847656247672,
      "v": 94
    },
    {
      "midi": 62,
      "hit": false,
      "t": 451841.38380728423,
      "d": 180.28847656247672,
      "v": 99
    },
    {
      "midi": 74,
      "hit": false,
      "t": 451841.38380728423,
      "d": 180.28847656247672,
      "v": 99
    },
    {
      "midi": 90,
      "hit": false,
      "t": 451841.38380728423,
      "d": 180.28847656247672,
      "v": 99
    },
    {
      "midi": 57,
      "hit": false,
      "t": 451841.383807296,
      "d": 86.53846875001909,
      "v": 78
    },
    {
      "midi": 62,
      "hit": false,
      "t": 451841.383807296,
      "d": 86.53846875001909,
      "v": 78
    },
    {
      "midi": 66,
      "hit": false,
      "t": 451841.383807296,
      "d": 86.53846875001909,
      "v": 69
    },
    {
      "midi": 66,
      "hit": false,
      "t": 452074.55690363835,
      "d": 180.28847656247672,
      "v": 106
    },
    {
      "midi": 78,
      "hit": false,
      "t": 452074.55690363835,
      "d": 180.28847656247672,
      "v": 106
    },
    {
      "midi": 86,
      "hit": false,
      "t": 452074.55690363835,
      "d": 180.28847656247672,
      "v": 106
    },
    {
      "midi": 74,
      "hit": false,
      "t": 452305.3261536383,
      "d": 180.28847656247672,
      "v": 109
    },
    {
      "midi": 81,
      "hit": false,
      "t": 452305.3261536383,
      "d": 180.28847656247672,
      "v": 109
    },
    {
      "midi": 90,
      "hit": false,
      "t": 452305.3261536383,
      "d": 180.28847656247672,
      "v": 109
    },
    {
      "midi": 74,
      "hit": false,
      "t": 452538.4992499924,
      "d": 180.28847656247672,
      "v": 97
    },
    {
      "midi": 86,
      "hit": false,
      "t": 452538.4992499924,
      "d": 180.28847656247672,
      "v": 97
    },
    {
      "midi": 90,
      "hit": false,
      "t": 452538.4992499924,
      "d": 180.28847656247672,
      "v": 97
    },
    {
      "midi": 57,
      "hit": false,
      "t": 452764.460807296,
      "d": 86.53846875001909,
      "v": 79
    },
    {
      "midi": 62,
      "hit": false,
      "t": 452764.460807296,
      "d": 86.53846875001909,
      "v": 72
    },
    {
      "midi": 66,
      "hit": false,
      "t": 452764.460807296,
      "d": 86.53846875001909,
      "v": 72
    },
    {
      "midi": 66,
      "hit": false,
      "t": 452997.6339036382,
      "d": 180.28847656247672,
      "v": 100
    },
    {
      "midi": 78,
      "hit": false,
      "t": 452997.6339036382,
      "d": 180.28847656247672,
      "v": 100
    },
    {
      "midi": 86,
      "hit": false,
      "t": 452997.6339036382,
      "d": 180.28847656247672,
      "v": 100
    },
    {
      "midi": 62,
      "hit": false,
      "t": 453230.80699999235,
      "d": 180.28847656247672,
      "v": 106
    },
    {
      "midi": 57,
      "hit": false,
      "t": 453230.80700000434,
      "d": 86.53846875001909,
      "v": 75
    },
    {
      "midi": 62,
      "hit": false,
      "t": 453230.80700000434,
      "d": 86.53846875001909,
      "v": 75
    },
    {
      "midi": 66,
      "hit": false,
      "t": 453230.80700000434,
      "d": 86.53846875001909,
      "v": 75
    },
    {
      "midi": 78,
      "hit": false,
      "t": 453461.5762499923,
      "d": 180.28847656247672,
      "v": 97
    },
    {
      "midi": 86,
      "hit": false,
      "t": 453461.5762499923,
      "d": 180.28847656247672,
      "v": 97
    },
    {
      "midi": 57,
      "hit": false,
      "t": 453461.57625000435,
      "d": 86.53846875001909,
      "v": 79
    },
    {
      "midi": 62,
      "hit": false,
      "t": 453461.57625000435,
      "d": 86.53846875001909,
      "v": 78
    },
    {
      "midi": 66,
      "hit": false,
      "t": 453461.57625000435,
      "d": 86.53846875001909,
      "v": 79
    },
    {
      "midi": 66,
      "hit": false,
      "t": 453692.34549999225,
      "d": 180.28847656247672,
      "v": 99
    },
    {
      "midi": 81,
      "hit": false,
      "t": 453692.34549999225,
      "d": 180.28847656247672,
      "v": 99
    },
    {
      "midi": 90,
      "hit": false,
      "t": 453692.34549999225,
      "d": 180.28847656247672,
      "v": 99
    },
    {
      "midi": 57,
      "hit": false,
      "t": 453692.34550000436,
      "d": 86.53846875001909,
      "v": 79
    },
    {
      "midi": 62,
      "hit": false,
      "t": 453692.34550000436,
      "d": 86.53846875001909,
      "v": 78
    },
    {
      "midi": 66,
      "hit": false,
      "t": 453692.34550000436,
      "d": 86.53846875001909,
      "v": 79
    },
    {
      "midi": 62,
      "hit": false,
      "t": 453923.1147499922,
      "d": 180.28847656247672,
      "v": 100
    },
    {
      "midi": 86,
      "hit": false,
      "t": 453923.1147499922,
      "d": 180.28847656247672,
      "v": 100
    },
    {
      "midi": 91,
      "hit": false,
      "t": 453923.1147499922,
      "d": 180.28847656247672,
      "v": 100
    },
    {
      "midi": 67,
      "hit": false,
      "t": 454149.07630728383,
      "d": 180.28847656247672,
      "v": 111
    },
    {
      "midi": 74,
      "hit": false,
      "t": 454149.07630728383,
      "d": 180.28847656247672,
      "v": 111
    },
    {
      "midi": 78,
      "hit": false,
      "t": 454149.07630728383,
      "d": 180.28847656247672,
      "v": 111
    },
    {
      "midi": 86,
      "hit": false,
      "t": 454149.07630728383,
      "d": 180.28847656247672,
      "v": 111
    },
    {
      "midi": 59,
      "hit": false,
      "t": 454149.07630729605,
      "d": 86.53846875001909,
      "v": 78
    },
    {
      "midi": 62,
      "hit": false,
      "t": 454149.07630729605,
      "d": 86.53846875001909,
      "v": 78
    },
    {
      "midi": 67,
      "hit": false,
      "t": 454149.07630729605,
      "d": 86.53846875001909,
      "v": 72
    },
    {
      "midi": 62,
      "hit": false,
      "t": 454384.6532499921,
      "d": 180.28847656247672,
      "v": 94
    },
    {
      "midi": 83,
      "hit": false,
      "t": 454615.42249999207,
      "d": 180.28847656247672,
      "v": 98
    },
    {
      "midi": 91,
      "hit": false,
      "t": 454615.42249999207,
      "d": 180.28847656247672,
      "v": 98
    },
    {
      "midi": 59,
      "hit": false,
      "t": 454615.4225000044,
      "d": 86.53846875001909,
      "v": 77
    },
    {
      "midi": 62,
      "hit": false,
      "t": 454615.4225000044,
      "d": 86.53846875001909,
      "v": 77
    },
    {
      "midi": 67,
      "hit": false,
      "t": 454615.4225000044,
      "d": 86.53846875001909,
      "v": 77
    },
    {
      "midi": 67,
      "hit": false,
      "t": 454843.78790363786,
      "d": 180.28847656247672,
      "v": 98
    },
    {
      "midi": 78,
      "hit": false,
      "t": 454843.78790363786,
      "d": 180.28847656247672,
      "v": 98
    },
    {
      "midi": 86,
      "hit": false,
      "t": 454843.78790363786,
      "d": 180.28847656247672,
      "v": 98
    },
    {
      "midi": 59,
      "hit": false,
      "t": 454843.78790365026,
      "d": 86.53846875001909,
      "v": 78
    },
    {
      "midi": 62,
      "hit": false,
      "t": 454843.78790365026,
      "d": 86.53846875001909,
      "v": 78
    },
    {
      "midi": 67,
      "hit": false,
      "t": 454843.78790365026,
      "d": 86.53846875001909,
      "v": 78
    },
    {
      "midi": 59,
      "hit": false,
      "t": 455076.96100000443,
      "d": 86.53846875001909,
      "v": 75
    },
    {
      "midi": 62,
      "hit": false,
      "t": 455076.96100000443,
      "d": 86.53846875001909,
      "v": 75
    },
    {
      "midi": 67,
      "hit": false,
      "t": 455076.96100000443,
      "d": 86.53846875001909,
      "v": 75
    },
    {
      "midi": 78,
      "hit": false,
      "t": 455310.13409634616,
      "d": 180.28847656247672,
      "v": 94
    },
    {
      "midi": 91,
      "hit": false,
      "t": 455310.13409634616,
      "d": 180.28847656247672,
      "v": 94
    },
    {
      "midi": 59,
      "hit": false,
      "t": 455538.49950000446,
      "d": 86.53846875001909,
      "v": 78
    },
    {
      "midi": 62,
      "hit": false,
      "t": 455538.49950000446,
      "d": 86.53846875001909,
      "v": 78
    },
    {
      "midi": 67,
      "hit": false,
      "t": 455538.49950000446,
      "d": 86.53846875001909,
      "v": 78
    },
    {
      "midi": 67,
      "hit": false,
      "t": 455774.0764427003,
      "d": 180.28847656247672,
      "v": 105
    },
    {
      "midi": 78,
      "hit": false,
      "t": 455774.0764427003,
      "d": 180.28847656247672,
      "v": 105
    },
    {
      "midi": 86,
      "hit": false,
      "t": 455774.0764427003,
      "d": 180.28847656247672,
      "v": 105
    },
    {
      "midi": 62,
      "hit": false,
      "t": 456000.0379999919,
      "d": 180.28847656247672,
      "v": 106
    },
    {
      "midi": 74,
      "hit": false,
      "t": 456000.0379999919,
      "d": 180.28847656247672,
      "v": 106
    },
    {
      "midi": 83,
      "hit": false,
      "t": 456000.0379999919,
      "d": 180.28847656247672,
      "v": 106
    },
    {
      "midi": 91,
      "hit": false,
      "t": 456000.0379999919,
      "d": 180.28847656247672,
      "v": 106
    },
    {
      "midi": 74,
      "hit": false,
      "t": 456233.211096346,
      "d": 180.28847656247672,
      "v": 95
    },
    {
      "midi": 86,
      "hit": false,
      "t": 456233.211096346,
      "d": 180.28847656247672,
      "v": 95
    },
    {
      "midi": 67,
      "hit": false,
      "t": 456459.17265363765,
      "d": 180.28847656247672,
      "v": 100
    },
    {
      "midi": 59,
      "hit": false,
      "t": 456459.1726536503,
      "d": 86.53846875001909,
      "v": 78
    },
    {
      "midi": 62,
      "hit": false,
      "t": 456459.1726536503,
      "d": 86.53846875001909,
      "v": 69
    },
    {
      "midi": 67,
      "hit": false,
      "t": 456459.1726536503,
      "d": 86.53846875001909,
      "v": 69
    },
    {
      "midi": 78,
      "hit": false,
      "t": 456689.9419036376,
      "d": 180.28847656247672,
      "v": 99
    },
    {
      "midi": 86,
      "hit": false,
      "t": 456689.9419036376,
      "d": 180.28847656247672,
      "v": 99
    },
    {
      "midi": 91,
      "hit": false,
      "t": 456689.9419036376,
      "d": 180.28847656247672,
      "v": 99
    },
    {
      "midi": 59,
      "hit": false,
      "t": 456923.1150000045,
      "d": 86.53846875001909,
      "v": 77
    },
    {
      "midi": 62,
      "hit": false,
      "t": 456923.1150000045,
      "d": 86.53846875001909,
      "v": 77
    },
    {
      "midi": 67,
      "hit": false,
      "t": 456923.1150000045,
      "d": 86.53846875001909,
      "v": 77
    },
    {
      "midi": 66,
      "hit": false,
      "t": 457156.2880963459,
      "d": 180.28847656247672,
      "v": 95
    },
    {
      "midi": 67,
      "hit": false,
      "t": 457156.2880963459,
      "d": 180.28847656247672,
      "v": 95
    },
    {
      "midi": 78,
      "hit": false,
      "t": 457156.2880963459,
      "d": 180.28847656247672,
      "v": 95
    },
    {
      "midi": 86,
      "hit": false,
      "t": 457156.2880963459,
      "d": 180.28847656247672,
      "v": 95
    },
    {
      "midi": 59,
      "hit": false,
      "t": 457156.28809635865,
      "d": 86.53846875001909,
      "v": 79
    },
    {
      "midi": 62,
      "hit": false,
      "t": 457156.28809635865,
      "d": 86.53846875001909,
      "v": 78
    },
    {
      "midi": 67,
      "hit": false,
      "t": 457156.28809635865,
      "d": 86.53846875001909,
      "v": 74
    },
    {
      "midi": 83,
      "hit": false,
      "t": 457382.2496536375,
      "d": 180.28847656247672,
      "v": 98
    },
    {
      "midi": 91,
      "hit": false,
      "t": 457382.2496536375,
      "d": 180.28847656247672,
      "v": 98
    },
    {
      "midi": 59,
      "hit": false,
      "t": 457382.24965365033,
      "d": 86.53846875001909,
      "v": 78
    },
    {
      "midi": 62,
      "hit": false,
      "t": 457382.24965365033,
      "d": 86.53846875001909,
      "v": 78
    },
    {
      "midi": 67,
      "hit": false,
      "t": 457382.24965365033,
      "d": 86.53846875001909,
      "v": 78
    },
    {
      "midi": 64,
      "hit": false,
      "t": 457620.2304427,
      "d": 180.28847656247672,
      "v": 98
    },
    {
      "midi": 86,
      "hit": false,
      "t": 457620.2304427,
      "d": 180.28847656247672,
      "v": 98
    },
    {
      "midi": 62,
      "hit": false,
      "t": 457846.1919999916,
      "d": 180.28847656247672,
      "v": 111
    },
    {
      "midi": 76,
      "hit": false,
      "t": 457846.1919999916,
      "d": 180.28847656247672,
      "v": 111
    },
    {
      "midi": 81,
      "hit": false,
      "t": 457846.1919999916,
      "d": 180.28847656247672,
      "v": 111
    },
    {
      "midi": 86,
      "hit": false,
      "t": 457846.1919999916,
      "d": 180.28847656247672,
      "v": 111
    },
    {
      "midi": 93,
      "hit": false,
      "t": 457846.1919999916,
      "d": 180.28847656247672,
      "v": 111
    },
    {
      "midi": 61,
      "hit": false,
      "t": 457846.1920000045,
      "d": 86.53846875001909,
      "v": 78
    },
    {
      "midi": 64,
      "hit": false,
      "t": 457846.1920000045,
      "d": 86.53846875001909,
      "v": 74
    },
    {
      "midi": 69,
      "hit": false,
      "t": 457846.1920000045,
      "d": 86.53846875001909,
      "v": 74
    },
    {
      "midi": 64,
      "hit": false,
      "t": 458076.96124999155,
      "d": 180.28847656247672,
      "v": 97
    },
    {
      "midi": 69,
      "hit": false,
      "t": 458300.518960929,
      "d": 180.28847656247672,
      "v": 101
    },
    {
      "midi": 81,
      "hit": false,
      "t": 458300.518960929,
      "d": 180.28847656247672,
      "v": 101
    },
    {
      "midi": 61,
      "hit": false,
      "t": 458300.51896094205,
      "d": 86.53846875001909,
      "v": 77
    },
    {
      "midi": 64,
      "hit": false,
      "t": 458300.51896094205,
      "d": 86.53846875001909,
      "v": 77
    },
    {
      "midi": 69,
      "hit": false,
      "t": 458300.51896094205,
      "d": 86.53846875001909,
      "v": 77
    },
    {
      "midi": 76,
      "hit": false,
      "t": 458533.69205728313,
      "d": 180.28847656247672,
      "v": 97
    },
    {
      "midi": 86,
      "hit": false,
      "t": 458533.69205728313,
      "d": 180.28847656247672,
      "v": 97
    },
    {
      "midi": 93,
      "hit": false,
      "t": 458533.69205728313,
      "d": 180.28847656247672,
      "v": 97
    },
    {
      "midi": 61,
      "hit": false,
      "t": 458533.6920572962,
      "d": 86.53846875001909,
      "v": 75
    },
    {
      "midi": 64,
      "hit": false,
      "t": 458533.6920572962,
      "d": 86.53846875001909,
      "v": 69
    },
    {
      "midi": 69,
      "hit": false,
      "t": 458533.6920572962,
      "d": 86.53846875001909,
      "v": 78
    },
    {
      "midi": 61,
      "hit": false,
      "t": 458766.8651536504,
      "d": 86.53846875001909,
      "v": 76
    },
    {
      "midi": 64,
      "hit": false,
      "t": 458766.8651536504,
      "d": 86.53846875001909,
      "v": 76
    },
    {
      "midi": 69,
      "hit": false,
      "t": 458766.8651536504,
      "d": 86.53846875001909,
      "v": 76
    },
    {
      "midi": 69,
      "hit": false,
      "t": 459000.0382499914,
      "d": 180.28847656247672,
      "v": 94
    },
    {
      "midi": 76,
      "hit": false,
      "t": 459000.0382499914,
      "d": 180.28847656247672,
      "v": 94
    },
    {
      "midi": 81,
      "hit": false,
      "t": 459000.0382499914,
      "d": 180.28847656247672,
      "v": 94
    },
    {
      "midi": 93,
      "hit": false,
      "t": 459225.99980728305,
      "d": 180.28847656247672,
      "v": 99
    },
    {
      "midi": 61,
      "hit": false,
      "t": 459225.99980729626,
      "d": 86.53846875001909,
      "v": 78
    },
    {
      "midi": 64,
      "hit": false,
      "t": 459225.99980729626,
      "d": 86.53846875001909,
      "v": 78
    },
    {
      "midi": 69,
      "hit": false,
      "t": 459225.99980729626,
      "d": 86.53846875001909,
      "v": 73
    },
    {
      "midi": 76,
      "hit": false,
      "t": 459459.17290363717,
      "d": 180.28847656247672,
      "v": 106
    },
    {
      "midi": 86,
      "hit": false,
      "t": 459459.17290363717,
      "d": 180.28847656247672,
      "v": 106
    },
    {
      "midi": 69,
      "hit": false,
      "t": 459689.9421536371,
      "d": 180.28847656247672,
      "v": 109
    },
    {
      "midi": 81,
      "hit": false,
      "t": 459689.9421536371,
      "d": 180.28847656247672,
      "v": 109
    },
    {
      "midi": 86,
      "hit": false,
      "t": 459923.11524999124,
      "d": 180.28847656247672,
      "v": 97
    },
    {
      "midi": 93,
      "hit": false,
      "t": 459923.11524999124,
      "d": 180.28847656247672,
      "v": 97
    },
    {
      "midi": 61,
      "hit": false,
      "t": 460149.07680729625,
      "d": 86.53846875001909,
      "v": 79
    },
    {
      "midi": 64,
      "hit": false,
      "t": 460149.07680729625,
      "d": 86.53846875001909,
      "v": 72
    },
    {
      "midi": 69,
      "hit": false,
      "t": 460149.07680729625,
      "d": 86.53846875001909,
      "v": 69
    },
    {
      "midi": 69,
      "hit": false,
      "t": 460382.24990363704,
      "d": 180.28847656247672,
      "v": 100
    },
    {
      "midi": 76,
      "hit": false,
      "t": 460382.24990363704,
      "d": 180.28847656247672,
      "v": 100
    },
    {
      "midi": 81,
      "hit": false,
      "t": 460382.24990363704,
      "d": 180.28847656247672,
      "v": 100
    },
    {
      "midi": 86,
      "hit": false,
      "t": 460382.24990363704,
      "d": 180.28847656247672,
      "v": 100
    },
    {
      "midi": 93,
      "hit": false,
      "t": 460615.42299999116,
      "d": 180.28847656247672,
      "v": 106
    },
    {
      "midi": 61,
      "hit": false,
      "t": 460615.4230000046,
      "d": 86.53846875001909,
      "v": 77
    },
    {
      "midi": 64,
      "hit": false,
      "t": 460615.4230000046,
      "d": 86.53846875001909,
      "v": 77
    },
    {
      "midi": 69,
      "hit": false,
      "t": 460615.4230000046,
      "d": 86.53846875001909,
      "v": 77
    },
    {
      "midi": 76,
      "hit": false,
      "t": 460846.1922499911,
      "d": 180.28847656247672,
      "v": 97
    },
    {
      "midi": 86,
      "hit": false,
      "t": 460846.1922499911,
      "d": 180.28847656247672,
      "v": 97
    },
    {
      "midi": 61,
      "hit": false,
      "t": 460846.1922500046,
      "d": 86.53846875001909,
      "v": 69
    },
    {
      "midi": 64,
      "hit": false,
      "t": 460846.1922500046,
      "d": 86.53846875001909,
      "v": 78
    },
    {
      "midi": 69,
      "hit": false,
      "t": 460846.1922500046,
      "d": 86.53846875001909,
      "v": 74
    },
    {
      "midi": 69,
      "hit": false,
      "t": 461076.96149999107,
      "d": 180.28847656247672,
      "v": 99
    },
    {
      "midi": 81,
      "hit": false,
      "t": 461076.96149999107,
      "d": 180.28847656247672,
      "v": 99
    },
    {
      "midi": 93,
      "hit": false,
      "t": 461076.96149999107,
      "d": 180.28847656247672,
      "v": 99
    },
    {
      "midi": 61,
      "hit": false,
      "t": 461076.96150000463,
      "d": 86.53846875001909,
      "v": 75
    },
    {
      "midi": 64,
      "hit": false,
      "t": 461076.96150000463,
      "d": 86.53846875001909,
      "v": 69
    },
    {
      "midi": 69,
      "hit": false,
      "t": 461076.96150000463,
      "d": 86.53846875001909,
      "v": 78
    },
    {
      "midi": 86,
      "hit": false,
      "t": 461307.730749991,
      "d": 180.28847656247672,
      "v": 100
    }
  ]
}