{
  "jsonPath": "Pop/Karaoke/Hot Fox Karaoke/big-girls-dont-cry-in-the-style-of-frankie-valli-the-four-seasons.json",
  "path": "Pop\\Karaoke\\Hot Fox Karaoke\\Big Girls Dont Cry (In The Style Of Frankie Valli  The Four Seasons).mid",
  "name": "Big Girls Dont Cry (In The Style Of Frankie Valli  The Four Seasons)",
  "difficulty": "Advanced",
  "bpm": 133.00260020083394,
  "notes": [
    {
      "midi": 67,
      "hit": false,
      "t": 11277.975,
      "d": 75.1864999999998,
      "v": 105
    },
    {
      "midi": 71,
      "hit": false,
      "t": 11277.975,
      "d": 82.23523437499898,
      "v": 105
    },
    {
      "midi": 74,
      "hit": false,
      "t": 11277.975,
      "d": 96.33270312499917,
      "v": 110
    },
    {
      "midi": 71,
      "hit": false,
      "t": 12180.213,
      "d": 112.7797499999997,
      "v": 110
    },
    {
      "midi": 68,
      "hit": false,
      "t": 12180.213,
      "d": 117.47890625000036,
      "v": 98
    },
    {
      "midi": 76,
      "hit": false,
      "t": 12180.213,
      "d": 140.97468750000007,
      "v": 107
    },
    {
      "midi": 69,
      "hit": false,
      "t": 13082.451,
      "d": 89.28396874999999,
      "v": 107
    },
    {
      "midi": 72,
      "hit": false,
      "t": 13082.451,
      "d": 105.73101562500051,
      "v": 110
    },
    {
      "midi": 76,
      "hit": false,
      "t": 13082.451,
      "d": 115.12932812500003,
      "v": 107
    },
    {
      "midi": 78,
      "hit": false,
      "t": 13759.1295,
      "d": 96.33270312499917,
      "v": 43
    },
    {
      "midi": 69,
      "hit": false,
      "t": 13759.1295,
      "d": 105.73101562499869,
      "v": 53
    },
    {
      "midi": 74,
      "hit": false,
      "t": 13759.1295,
      "d": 105.73101562499869,
      "v": 62
    },
    {
      "midi": 74,
      "hit": false,
      "t": 13984.688999999998,
      "d": 75.1864999999998,
      "v": 113
    },
    {
      "midi": 78,
      "hit": false,
      "t": 13984.688999999998,
      "d": 75.1864999999998,
      "v": 102
    },
    {
      "midi": 69,
      "hit": false,
      "t": 13984.688999999998,
      "d": 79.88565625000047,
      "v": 105
    },
    {
      "midi": 74,
      "hit": false,
      "t": 14210.2485,
      "d": 75.1864999999998,
      "v": 107
    },
    {
      "midi": 69,
      "hit": false,
      "t": 14210.2485,
      "d": 93.98312500000065,
      "v": 102
    },
    {
      "midi": 78,
      "hit": false,
      "t": 14210.2485,
      "d": 93.98312500000065,
      "v": 105
    },
    {
      "midi": 67,
      "hit": false,
      "t": 14886.927,
      "d": 79.88565625000047,
      "v": 105
    },
    {
      "midi": 71,
      "hit": false,
      "t": 14886.927,
      "d": 86.93439062499965,
      "v": 107
    },
    {
      "midi": 74,
      "hit": false,
      "t": 14886.927,
      "d": 93.98312499999884,
      "v": 110
    },
    {
      "midi": 71,
      "hit": false,
      "t": 15789.164999999999,
      "d": 68.13776562500061,
      "v": 102
    },
    {
      "midi": 68,
      "hit": false,
      "t": 15789.164999999999,
      "d": 98.68228125000132,
      "v": 100
    },
    {
      "midi": 76,
      "hit": false,
      "t": 15789.164999999999,
      "d": 124.52764062500137,
      "v": 100
    },
    {
      "midi": 69,
      "hit": false,
      "t": 16691.403000000002,
      "d": 77.53607812499831,
      "v": 102
    },
    {
      "midi": 64,
      "hit": false,
      "t": 16691.403000000002,
      "d": 86.93439062499965,
      "v": 98
    },
    {
      "midi": 72,
      "hit": false,
      "t": 16691.403000000002,
      "d": 86.93439062499965,
      "v": 105
    },
    {
      "midi": 57,
      "hit": false,
      "t": 16691.403000000002,
      "d": 96.33270312500099,
      "v": 105
    },
    {
      "midi": 76,
      "hit": false,
      "t": 16691.403000000002,
      "d": 108.08059375000084,
      "v": 102
    },
    {
      "midi": 78,
      "hit": false,
      "t": 17368.081500000004,
      "d": 77.53607812499831,
      "v": 63
    },
    {
      "midi": 69,
      "hit": false,
      "t": 17368.081500000004,
      "d": 89.28396874999817,
      "v": 53
    },
    {
      "midi": 74,
      "hit": false,
      "t": 17368.081500000004,
      "d": 89.28396874999817,
      "v": 82
    },
    {
      "midi": 69,
      "hit": false,
      "t": 17593.641000000003,
      "d": 72.83692187500128,
      "v": 102
    },
    {
      "midi": 74,
      "hit": false,
      "t": 17593.641000000003,
      "d": 72.83692187500128,
      "v": 105
    },
    {
      "midi": 78,
      "hit": false,
      "t": 17593.641000000003,
      "d": 86.93439062499965,
      "v": 102
    },
    {
      "midi": 74,
      "hit": false,
      "t": 17819.200500000003,
      "d": 68.13776562500061,
      "v": 105
    },
    {
      "midi": 69,
      "hit": false,
      "t": 17819.200500000003,
      "d": 75.1864999999998,
      "v": 105
    },
    {
      "midi": 78,
      "hit": false,
      "t": 17819.200500000003,
      "d": 79.88565625000047,
      "v": 107
    },
    {
      "midi": 67,
      "hit": false,
      "t": 18495.879000000004,
      "d": 79.88565625000047,
      "v": 105
    },
    {
      "midi": 71,
      "hit": false,
      "t": 18495.879000000004,
      "d": 86.93439062499965,
      "v": 107
    },
    {
      "midi": 74,
      "hit": false,
      "t": 18495.879000000004,
      "d": 93.98312499999884,
      "v": 110
    },
    {
      "midi": 71,
      "hit": false,
      "t": 19398.117000000002,
      "d": 68.13776562500061,
      "v": 102
    },
    {
      "midi": 68,
      "hit": false,
      "t": 19398.117000000002,
      "d": 98.6822812499995,
      "v": 100
    },
    {
      "midi": 76,
      "hit": false,
      "t": 19398.117000000002,
      "d": 124.52764062499773,
      "v": 100
    },
    {
      "midi": 69,
      "hit": false,
      "t": 20300.355,
      "d": 77.53607812499831,
      "v": 102
    },
    {
      "midi": 64,
      "hit": false,
      "t": 20300.355,
      "d": 86.93439062499965,
      "v": 98
    },
    {
      "midi": 72,
      "hit": false,
      "t": 20300.355,
      "d": 86.93439062499965,
      "v": 105
    },
    {
      "midi": 57,
      "hit": false,
      "t": 20300.355,
      "d": 96.33270312500099,
      "v": 105
    },
    {
      "midi": 76,
      "hit": false,
      "t": 20300.355,
      "d": 108.08059375000084,
      "v": 102
    },
    {
      "midi": 78,
      "hit": false,
      "t": 20977.0335,
      "d": 77.53607812499831,
      "v": 63
    },
    {
      "midi": 69,
      "hit": false,
      "t": 20977.0335,
      "d": 89.28396874999817,
      "v": 53
    },
    {
      "midi": 74,
      "hit": false,
      "t": 20977.0335,
      "d": 89.28396874999817,
      "v": 82
    },
    {
      "midi": 69,
      "hit": false,
      "t": 21202.593,
      "d": 72.83692187500128,
      "v": 102
    },
    {
      "midi": 74,
      "hit": false,
      "t": 21202.593,
      "d": 72.83692187500128,
      "v": 105
    },
    {
      "midi": 78,
      "hit": false,
      "t": 21202.593,
      "d": 86.93439062499965,
      "v": 102
    },
    {
      "midi": 74,
      "hit": false,
      "t": 21428.1525,
      "d": 68.13776562500061,
      "v": 105
    },
    {
      "midi": 69,
      "hit": false,
      "t": 21428.1525,
      "d": 75.1864999999998,
      "v": 105
    },
    {
      "midi": 78,
      "hit": false,
      "t": 21428.1525,
      "d": 79.88565625000047,
      "v": 107
    },
    {
      "midi": 67,
      "hit": false,
      "t": 22104.831000000002,
      "d": 79.88565625000047,
      "v": 105
    },
    {
      "midi": 71,
      "hit": false,
      "t": 22104.831000000002,
      "d": 86.93439062499965,
      "v": 107
    },
    {
      "midi": 74,
      "hit": false,
      "t": 22104.831000000002,
      "d": 93.98312499999884,
      "v": 110
    },
    {
      "midi": 71,
      "hit": false,
      "t": 23007.069,
      "d": 68.13776562500061,
      "v": 102
    },
    {
      "midi": 68,
      "hit": false,
      "t": 23007.069,
      "d": 98.6822812499995,
      "v": 100
    },
    {
      "midi": 76,
      "hit": false,
      "t": 23007.069,
      "d": 124.52764062499773,
      "v": 100
    },
    {
      "midi": 69,
      "hit": false,
      "t": 23909.306999999997,
      "d": 77.53607812499831,
      "v": 102
    },
    {
      "midi": 64,
      "hit": false,
      "t": 23909.306999999997,
      "d": 86.93439062499965,
      "v": 98
    },
    {
      "midi": 72,
      "hit": false,
      "t": 23909.306999999997,
      "d": 86.93439062499965,
      "v": 105
    },
    {
      "midi": 57,
      "hit": false,
      "t": 23909.306999999997,
      "d": 96.33270312500099,
      "v": 105
    },
    {
      "midi": 76,
      "hit": false,
      "t": 23909.306999999997,
      "d": 108.08059375000084,
      "v": 102
    },
    {
      "midi": 78,
      "hit": false,
      "t": 24585.9855,
      "d": 77.53607812499831,
      "v": 63
    },
    {
      "midi": 69,
      "hit": false,
      "t": 24585.9855,
      "d": 89.28396874999817,
      "v": 53
    },
    {
      "midi": 74,
      "hit": false,
      "t": 24585.9855,
      "d": 89.28396874999817,
      "v": 82
    },
    {
      "midi": 69,
      "hit": false,
      "t": 24811.545,
      "d": 72.83692187500128,
      "v": 102
    },
    {
      "midi": 74,
      "hit": false,
      "t": 24811.545,
      "d": 72.83692187500128,
      "v": 105
    },
    {
      "midi": 78,
      "hit": false,
      "t": 24811.545,
      "d": 86.93439062499965,
      "v": 102
    },
    {
      "midi": 74,
      "hit": false,
      "t": 25037.104499999998,
      "d": 68.13776562500061,
      "v": 105
    },
    {
      "midi": 69,
      "hit": false,
      "t": 25037.104499999998,
      "d": 75.1864999999998,
      "v": 105
    },
    {
      "midi": 78,
      "hit": false,
      "t": 25037.104499999998,
      "d": 79.88565625000047,
      "v": 107
    },
    {
      "midi": 67,
      "hit": false,
      "t": 25713.783,
      "d": 79.88565625000047,
      "v": 105
    },
    {
      "midi": 71,
      "hit": false,
      "t": 25713.783,
      "d": 86.93439062499965,
      "v": 107
    },
    {
      "midi": 74,
      "hit": false,
      "t": 25713.783,
      "d": 93.98312499999884,
      "v": 110
    },
    {
      "midi": 71,
      "hit": false,
      "t": 26616.020999999997,
      "d": 68.13776562500061,
      "v": 102
    },
    {
      "midi": 68,
      "hit": false,
      "t": 26616.020999999997,
      "d": 98.6822812499995,
      "v": 100
    },
    {
      "midi": 76,
      "hit": false,
      "t": 26616.020999999997,
      "d": 124.52764062499773,
      "v": 100
    },
    {
      "midi": 69,
      "hit": false,
      "t": 27518.258999999995,
      "d": 77.53607812499831,
      "v": 102
    },
    {
      "midi": 64,
      "hit": false,
      "t": 27518.258999999995,
      "d": 86.93439062499965,
      "v": 98
    },
    {
      "midi": 72,
      "hit": false,
      "t": 27518.258999999995,
      "d": 86.93439062499965,
      "v": 105
    },
    {
      "midi": 57,
      "hit": false,
      "t": 27518.258999999995,
      "d": 96.33270312500099,
      "v": 105
    },
    {
      "midi": 76,
      "hit": false,
      "t": 27518.258999999995,
      "d": 108.08059375000084,
      "v": 102
    },
    {
      "midi": 78,
      "hit": false,
      "t": 28194.937499999996,
      "d": 77.53607812499831,
      "v": 63
    },
    {
      "midi": 69,
      "hit": false,
      "t": 28194.937499999996,
      "d": 89.28396874999817,
      "v": 53
    },
    {
      "midi": 74,
      "hit": false,
      "t": 28194.937499999996,
      "d": 89.28396874999817,
      "v": 82
    },
    {
      "midi": 69,
      "hit": false,
      "t": 28420.496999999996,
      "d": 72.83692187500128,
      "v": 102
    },
    {
      "midi": 74,
      "hit": false,
      "t": 28420.496999999996,
      "d": 72.83692187500128,
      "v": 105
    },
    {
      "midi": 78,
      "hit": false,
      "t": 28420.496999999996,
      "d": 86.93439062499965,
      "v": 102
    },
    {
      "midi": 74,
      "hit": false,
      "t": 28646.056499999995,
      "d": 68.13776562500061,
      "v": 105
    },
    {
      "midi": 69,
      "hit": false,
      "t": 28646.056499999995,
      "d": 75.1864999999998,
      "v": 105
    },
    {
      "midi": 78,
      "hit": false,
      "t": 28646.056499999995,
      "d": 79.88565625000047,
      "v": 107
    },
    {
      "midi": 67,
      "hit": false,
      "t": 29322.734999999997,
      "d": 79.88565625000047,
      "v": 105
    },
    {
      "midi": 71,
      "hit": false,
      "t": 29322.734999999997,
      "d": 86.93439062499965,
      "v": 107
    },
    {
      "midi": 74,
      "hit": false,
      "t": 29322.734999999997,
      "d": 93.98312499999884,
      "v": 110
    },
    {
      "midi": 71,
      "hit": false,
      "t": 30224.972999999994,
      "d": 68.13776562500061,
      "v": 102
    },
    {
      "midi": 68,
      "hit": false,
      "t": 30224.972999999994,
      "d": 98.6822812499995,
      "v": 100
    },
    {
      "midi": 76,
      "hit": false,
      "t": 30224.972999999994,
      "d": 124.52764062499773,
      "v": 100
    },
    {
      "midi": 69,
      "hit": false,
      "t": 31127.210999999992,
      "d": 77.53607812499831,
      "v": 102
    },
    {
      "midi": 64,
      "hit": false,
      "t": 31127.210999999992,
      "d": 86.93439062499965,
      "v": 98
    },
    {
      "midi": 72,
      "hit": false,
      "t": 31127.210999999992,
      "d": 86.93439062499965,
      "v": 105
    },
    {
      "midi": 57,
      "hit": false,
      "t": 31127.210999999992,
      "d": 96.33270312500099,
      "v": 105
    },
    {
      "midi": 76,
      "hit": false,
      "t": 31127.210999999992,
      "d": 108.08059375000084,
      "v": 102
    },
    {
      "midi": 78,
      "hit": false,
      "t": 31803.889499999994,
      "d": 77.53607812499831,
      "v": 63
    },
    {
      "midi": 69,
      "hit": false,
      "t": 31803.889499999994,
      "d": 89.28396874999817,
      "v": 53
    },
    {
      "midi": 74,
      "hit": false,
      "t": 31803.889499999994,
      "d": 89.28396874999817,
      "v": 82
    },
    {
      "midi": 69,
      "hit": false,
      "t": 32029.448999999993,
      "d": 72.83692187500128,
      "v": 102
    },
    {
      "midi": 74,
      "hit": false,
      "t": 32029.448999999993,
      "d": 72.83692187500128,
      "v": 105
    },
    {
      "midi": 78,
      "hit": false,
      "t": 32029.448999999993,
      "d": 86.93439062499965,
      "v": 102
    },
    {
      "midi": 74,
      "hit": false,
      "t": 32255.008499999993,
      "d": 68.13776562500061,
      "v": 105
    },
    {
      "midi": 69,
      "hit": false,
      "t": 32255.008499999993,
      "d": 75.1864999999998,
      "v": 105
    },
    {
      "midi": 78,
      "hit": false,
      "t": 32255.008499999993,
      "d": 79.88565625000047,
      "v": 107
    },
    {
      "midi": 67,
      "hit": false,
      "t": 32931.68699999999,
      "d": 79.88565625000047,
      "v": 105
    },
    {
      "midi": 71,
      "hit": false,
      "t": 32931.68699999999,
      "d": 86.93439062499965,
      "v": 107
    },
    {
      "midi": 74,
      "hit": false,
      "t": 32931.68699999999,
      "d": 93.98312499999884,
      "v": 110
    },
    {
      "midi": 71,
      "hit": false,
      "t": 33833.92499999999,
      "d": 68.13776562499697,
      "v": 102
    },
    {
      "midi": 68,
      "hit": false,
      "t": 33833.92499999999,
      "d": 98.68228124999587,
      "v": 100
    },
    {
      "midi": 76,
      "hit": false,
      "t": 33833.92499999999,
      "d": 124.52764062499773,
      "v": 100
    },
    {
      "midi": 69,
      "hit": false,
      "t": 34736.162999999986,
      "d": 77.53607812499831,
      "v": 102
    },
    {
      "midi": 64,
      "hit": false,
      "t": 34736.162999999986,
      "d": 86.93439062499965,
      "v": 98
    },
    {
      "midi": 72,
      "hit": false,
      "t": 34736.162999999986,
      "d": 86.93439062499965,
      "v": 105
    },
    {
      "midi": 57,
      "hit": false,
      "t": 34736.162999999986,
      "d": 96.33270312500099,
      "v": 105
    },
    {
      "midi": 76,
      "hit": false,
      "t": 34736.162999999986,
      "d": 108.08059375000448,
      "v": 102
    },
    {
      "midi": 78,
      "hit": false,
      "t": 35412.84149999999,
      "d": 77.53607812499831,
      "v": 63
    },
    {
      "midi": 69,
      "hit": false,
      "t": 35412.84149999999,
      "d": 89.2839687500018,
      "v": 53
    },
    {
      "midi": 74,
      "hit": false,
      "t": 35412.84149999999,
      "d": 89.2839687500018,
      "v": 82
    },
    {
      "midi": 69,
      "hit": false,
      "t": 35638.40099999999,
      "d": 72.83692187500128,
      "v": 102
    },
    {
      "midi": 74,
      "hit": false,
      "t": 35638.40099999999,
      "d": 72.83692187500128,
      "v": 105
    },
    {
      "midi": 78,
      "hit": false,
      "t": 35638.40099999999,
      "d": 86.93439062499965,
      "v": 102
    },
    {
      "midi": 74,
      "hit": false,
      "t": 35863.960499999994,
      "d": 68.13776562499697,
      "v": 105
    },
    {
      "midi": 69,
      "hit": false,
      "t": 35863.960499999994,
      "d": 75.18649999999616,
      "v": 105
    },
    {
      "midi": 78,
      "hit": false,
      "t": 35863.960499999994,
      "d": 79.88565624999319,
      "v": 107
    },
    {
      "midi": 67,
      "hit": false,
      "t": 36540.63899999999,
      "d": 79.88565625000047,
      "v": 105
    },
    {
      "midi": 71,
      "hit": false,
      "t": 36540.63899999999,
      "d": 86.93439062499965,
      "v": 107
    },
    {
      "midi": 74,
      "hit": false,
      "t": 36540.63899999999,
      "d": 93.98312499999884,
      "v": 110
    },
    {
      "midi": 71,
      "hit": false,
      "t": 37442.876999999986,
      "d": 68.13776562499697,
      "v": 102
    },
    {
      "midi": 68,
      "hit": false,
      "t": 37442.876999999986,
      "d": 98.68228124999587,
      "v": 100
    },
    {
      "midi": 76,
      "hit": false,
      "t": 37442.876999999986,
      "d": 124.52764062499773,
      "v": 100
    },
    {
      "midi": 69,
      "hit": false,
      "t": 38345.11499999998,
      "d": 77.53607812499831,
      "v": 102
    },
    {
      "midi": 64,
      "hit": false,
      "t": 38345.11499999998,
      "d": 86.93439062499965,
      "v": 98
    },
    {
      "midi": 72,
      "hit": false,
      "t": 38345.11499999998,
      "d": 86.93439062499965,
      "v": 105
    },
    {
      "midi": 57,
      "hit": false,
      "t": 38345.11499999998,
      "d": 96.33270312500099,
      "v": 105
    },
    {
      "midi": 76,
      "hit": false,
      "t": 38345.11499999998,
      "d": 108.08059375000448,
      "v": 102
    },
    {
      "midi": 78,
      "hit": false,
      "t": 39021.793499999985,
      "d": 77.53607812499831,
      "v": 63
    },
    {
      "midi": 69,
      "hit": false,
      "t": 39021.793499999985,
      "d": 89.2839687500018,
      "v": 53
    },
    {
      "midi": 74,
      "hit": false,
      "t": 39021.793499999985,
      "d": 89.2839687500018,
      "v": 82
    },
    {
      "midi": 69,
      "hit": false,
      "t": 39247.35299999999,
      "d": 72.83692187500128,
      "v": 102
    },
    {
      "midi": 74,
      "hit": false,
      "t": 39247.35299999999,
      "d": 72.83692187500128,
      "v": 105
    },
    {
      "midi": 78,
      "hit": false,
      "t": 39247.35299999999,
      "d": 86.93439062499965,
      "v": 102
    },
    {
      "midi": 74,
      "hit": false,
      "t": 39472.91249999999,
      "d": 68.13776562499697,
      "v": 105
    },
    {
      "midi": 69,
      "hit": false,
      "t": 39472.91249999999,
      "d": 75.18649999999616,
      "v": 105
    },
    {
      "midi": 78,
      "hit": false,
      "t": 39472.91249999999,
      "d": 79.88565624999319,
      "v": 107
    },
    {
      "midi": 55,
      "hit": false,
      "t": 39698.47199999999,
      "d": 213.81160937499953,
      "v": 95
    },
    {
      "midi": 62,
      "hit": false,
      "t": 39698.47199999999,
      "d": 213.81160937499953,
      "v": 93
    },
    {
      "midi": 67,
      "hit": false,
      "t": 39698.47199999999,
      "d": 288.99810937500297,
      "v": 87
    },
    {
      "midi": 74,
      "hit": false,
      "t": 39698.47199999999,
      "d": 288.99810937500297,
      "v": 93
    },
    {
      "midi": 71,
      "hit": false,
      "t": 39698.47199999999,
      "d": 298.3964218750043,
      "v": 95
    },
    {
      "midi": 62,
      "hit": false,
      "t": 40149.59099999999,
      "d": 187.96624999999767,
      "v": 98
    },
    {
      "midi": 55,
      "hit": false,
      "t": 40149.59099999999,
      "d": 206.76287500000035,
      "v": 98
    },
    {
      "midi": 74,
      "hit": false,
      "t": 40149.59099999999,
      "d": 251.4048593749976,
      "v": 100
    },
    {
      "midi": 67,
      "hit": false,
      "t": 40149.59099999999,
      "d": 260.80317187499895,
      "v": 95
    },
    {
      "midi": 71,
      "hit": false,
      "t": 40149.59099999999,
      "d": 265.502328124996,
      "v": 102
    },
    {
      "midi": 60,
      "hit": false,
      "t": 40600.70999999999,
      "d": 237.30739062499924,
      "v": 102
    },
    {
      "midi": 76,
      "hit": false,
      "t": 40600.70999999999,
      "d": 286.6485312500008,
      "v": 95
    },
    {
      "midi": 67,
      "hit": false,
      "t": 40600.70999999999,
      "d": 298.3964218750043,
      "v": 87
    },
    {
      "midi": 72,
      "hit": false,
      "t": 40600.70999999999,
      "d": 298.3964218750043,
      "v": 98
    },
    {
      "midi": 60,
      "hit": false,
      "t": 41051.829,
      "d": 209.1124531250025,
      "v": 107
    },
    {
      "midi": 72,
      "hit": false,
      "t": 41051.829,
      "d": 237.30739062499924,
      "v": 100
    },
    {
      "midi": 76,
      "hit": false,
      "t": 41051.829,
      "d": 237.30739062499924,
      "v": 102
    },
    {
      "midi": 67,
      "hit": false,
      "t": 41051.829,
      "d": 253.75443749999977,
      "v": 89
    },
    {
      "midi": 55,
      "hit": false,
      "t": 41502.948,
      "d": 140.97468749999825,
      "v": 107
    },
    {
      "midi": 62,
      "hit": false,
      "t": 41502.948,
      "d": 150.3729999999996,
      "v": 105
    },
    {
      "midi": 71,
      "hit": false,
      "t": 41502.948,
      "d": 169.16962500000227,
      "v": 110
    },
    {
      "midi": 74,
      "hit": false,
      "t": 41502.948,
      "d": 171.51920312500442,
      "v": 107
    },
    {
      "midi": 67,
      "hit": false,
      "t": 41502.948,
      "d": 180.91751562500576,
      "v": 100
    },
    {
      "midi": 38,
      "hit": false,
      "t": 42405.186,
      "d": 385.3308124999967,
      "v": 91
    },
    {
      "midi": 50,
      "hit": false,
      "t": 42405.186,
      "d": 385.3308124999967,
      "v": 91
    },
    {
      "midi": 51,
      "hit": false,
      "t": 42856.305,
      "d": 312.4938906250027,
      "v": 82
    },
    {
      "midi": 39,
      "hit": false,
      "t": 42856.305,
      "d": 321.892203125004,
      "v": 78
    },
    {
      "midi": 64,
      "hit": false,
      "t": 43758.543000000005,
      "d": 96.33270312500099,
      "v": 95
    },
    {
      "midi": 62,
      "hit": false,
      "t": 43758.543000000005,
      "d": 103.38143750000017,
      "v": 102
    },
    {
      "midi": 71,
      "hit": false,
      "t": 43758.543000000005,
      "d": 124.52764062499773,
      "v": 102
    },
    {
      "midi": 62,
      "hit": false,
      "t": 43984.1025,
      "d": 82.23523437500262,
      "v": 102
    },
    {
      "midi": 64,
      "hit": false,
      "t": 43984.1025,
      "d": 86.93439062499965,
      "v": 66
    },
    {
      "midi": 70,
      "hit": false,
      "t": 43984.1025,
      "d": 108.0805937499972,
      "v": 82
    },
    {
      "midi": 62,
      "hit": false,
      "t": 44209.662,
      "d": 84.5848124999975,
      "v": 105
    },
    {
      "midi": 64,
      "hit": false,
      "t": 44209.662,
      "d": 84.5848124999975,
      "v": 74
    },
    {
      "midi": 69,
      "hit": false,
      "t": 44209.662,
      "d": 105.73101562499505,
      "v": 98
    },
    {
      "midi": 64,
      "hit": false,
      "t": 44435.22149999999,
      "d": 103.38143750000017,
      "v": 89
    },
    {
      "midi": 62,
      "hit": false,
      "t": 44435.22149999999,
      "d": 131.57637499999691,
      "v": 107
    },
    {
      "midi": 68,
      "hit": false,
      "t": 44435.22149999999,
      "d": 131.57637499999691,
      "v": 102
    },
    {
      "midi": 62,
      "hit": false,
      "t": 44886.34049999999,
      "d": 75.18650000000343,
      "v": 107
    },
    {
      "midi": 64,
      "hit": false,
      "t": 44886.34049999999,
      "d": 75.18650000000343,
      "v": 85
    },
    {
      "midi": 68,
      "hit": false,
      "t": 44886.34049999999,
      "d": 84.58481250000477,
      "v": 100
    },
    {
      "midi": 62,
      "hit": false,
      "t": 45563.01899999999,
      "d": 84.5848124999975,
      "v": 85
    },
    {
      "midi": 68,
      "hit": false,
      "t": 45563.01899999999,
      "d": 91.63354687499668,
      "v": 91
    },
    {
      "midi": 64,
      "hit": false,
      "t": 45563.01899999999,
      "d": 96.33270312499371,
      "v": 85
    },
    {
      "midi": 64,
      "hit": false,
      "t": 45788.57849999999,
      "d": 119.8284843750007,
      "v": 89
    },
    {
      "midi": 68,
      "hit": false,
      "t": 45788.57849999999,
      "d": 131.5763750000042,
      "v": 100
    },
    {
      "midi": 62,
      "hit": false,
      "t": 45788.57849999999,
      "d": 140.97468750000553,
      "v": 110
    },
    {
      "midi": 64,
      "hit": false,
      "t": 46465.257,
      "d": 77.53607812499831,
      "v": 98
    },
    {
      "midi": 68,
      "hit": false,
      "t": 46465.257,
      "d": 101.03185937499802,
      "v": 102
    },
    {
      "midi": 62,
      "hit": false,
      "t": 46465.257,
      "d": 105.73101562499505,
      "v": 107
    },
    {
      "midi": 69,
      "hit": false,
      "t": 47367.494999999995,
      "d": 84.5848124999975,
      "v": 102
    },
    {
      "midi": 76,
      "hit": false,
      "t": 47367.494999999995,
      "d": 89.28396874999453,
      "v": 95
    },
    {
      "midi": 81,
      "hit": false,
      "t": 47367.494999999995,
      "d": 108.0805937499972,
      "v": 102
    },
    {
      "midi": 69,
      "hit": false,
      "t": 47593.05449999999,
      "d": 75.18650000000343,
      "v": 102
    },
    {
      "midi": 75,
      "hit": false,
      "t": 47593.05449999999,
      "d": 75.18650000000343,
      "v": 102
    },
    {
      "midi": 81,
      "hit": false,
      "t": 47593.05449999999,
      "d": 75.18650000000343,
      "v": 91
    },
    {
      "midi": 74,
      "hit": false,
      "t": 47818.613999999994,
      "d": 79.88565625000047,
      "v": 100
    },
    {
      "midi": 69,
      "hit": false,
      "t": 47818.613999999994,
      "d": 91.63354687500396,
      "v": 105
    },
    {
      "midi": 81,
      "hit": false,
      "t": 47818.613999999994,
      "d": 101.0318593750053,
      "v": 91
    },
    {
      "midi": 69,
      "hit": false,
      "t": 48044.1735,
      "d": 108.08059375000448,
      "v": 107
    },
    {
      "midi": 73,
      "hit": false,
      "t": 48044.1735,
      "d": 133.92595312500634,
      "v": 100
    },
    {
      "midi": 81,
      "hit": false,
      "t": 48044.1735,
      "d": 145.67384375000984,
      "v": 100
    },
    {
      "midi": 73,
      "hit": false,
      "t": 48495.2925,
      "d": 58.73945312500291,
      "v": 95
    },
    {
      "midi": 69,
      "hit": false,
      "t": 48495.2925,
      "d": 68.13776562500425,
      "v": 102
    },
    {
      "midi": 81,
      "hit": false,
      "t": 48495.2925,
      "d": 72.83692187500128,
      "v": 100
    },
    {
      "midi": 73,
      "hit": false,
      "t": 48946.4115,
      "d": 39.94282812500023,
      "v": 78
    },
    {
      "midi": 69,
      "hit": false,
      "t": 48946.4115,
      "d": 54.0402968749986,
      "v": 98
    },
    {
      "midi": 81,
      "hit": false,
      "t": 48946.4115,
      "d": 70.48734374999913,
      "v": 98
    },
    {
      "midi": 69,
      "hit": false,
      "t": 49397.5305,
      "d": 307.79473437499837,
      "v": 102
    },
    {
      "midi": 73,
      "hit": false,
      "t": 49397.5305,
      "d": 441.72068749999744,
      "v": 100
    },
    {
      "midi": 81,
      "hit": false,
      "t": 49397.5305,
      "d": 474.6147812499985,
      "v": 105
    },
    {
      "midi": 69,
      "hit": false,
      "t": 49848.6495,
      "d": 138.6251093749961,
      "v": 105
    },
    {
      "midi": 73,
      "hit": false,
      "t": 50074.208999999995,
      "d": 89.2839687500018,
      "v": 105
    },
    {
      "midi": 81,
      "hit": false,
      "t": 50074.208999999995,
      "d": 115.12932812500367,
      "v": 105
    },
    {
      "midi": 62,
      "hit": false,
      "t": 50976.447,
      "d": 140.97468749999825,
      "v": 105
    },
    {
      "midi": 69,
      "hit": false,
      "t": 50976.447,
      "d": 152.72257812500175,
      "v": 98
    },
    {
      "midi": 74,
      "hit": false,
      "t": 50976.447,
      "d": 185.6166718750028,
      "v": 105
    },
    {
      "midi": 68,
      "hit": false,
      "t": 51202.0065,
      "d": 70.48734374999913,
      "v": 85
    },
    {
      "midi": 62,
      "hit": false,
      "t": 51202.0065,
      "d": 84.5848124999975,
      "v": 87
    },
    {
      "midi": 74,
      "hit": false,
      "t": 51202.0065,
      "d": 89.28396874999453,
      "v": 82
    },
    {
      "midi": 67,
      "hit": false,
      "t": 51427.566,
      "d": 63.43860937499994,
      "v": 87
    },
    {
      "midi": 62,
      "hit": false,
      "t": 51427.566,
      "d": 98.68228125000314,
      "v": 105
    },
    {
      "midi": 74,
      "hit": false,
      "t": 51427.566,
      "d": 105.73101562500233,
      "v": 87
    },
    {
      "midi": 66,
      "hit": false,
      "t": 51653.1255,
      "d": 93.98312499999884,
      "v": 98
    },
    {
      "midi": 62,
      "hit": false,
      "t": 51653.1255,
      "d": 103.38143750000017,
      "v": 107
    },
    {
      "midi": 74,
      "hit": false,
      "t": 51653.1255,
      "d": 112.77975000000151,
      "v": 105
    },
    {
      "midi": 66,
      "hit": false,
      "t": 52104.2445,
      "d": 86.93439062499965,
      "v": 89
    },
    {
      "midi": 62,
      "hit": false,
      "t": 52104.2445,
      "d": 91.63354687499668,
      "v": 107
    },
    {
      "midi": 74,
      "hit": false,
      "t": 52104.2445,
      "d": 96.33270312499371,
      "v": 107
    },
    {
      "midi": 62,
      "hit": false,
      "t": 52555.36349999999,
      "d": 65.7881875000021,
      "v": 98
    },
    {
      "midi": 66,
      "hit": false,
      "t": 52555.36349999999,
      "d": 75.18650000000343,
      "v": 89
    },
    {
      "midi": 74,
      "hit": false,
      "t": 52555.36349999999,
      "d": 75.18650000000343,
      "v": 102
    },
    {
      "midi": 66,
      "hit": false,
      "t": 52780.922999999995,
      "d": 56.38987500000076,
      "v": 95
    },
    {
      "midi": 74,
      "hit": false,
      "t": 52780.922999999995,
      "d": 56.38987500000076,
      "v": 102
    },
    {
      "midi": 62,
      "hit": false,
      "t": 52780.922999999995,
      "d": 70.48734374999913,
      "v": 105
    },
    {
      "midi": 62,
      "hit": false,
      "t": 53006.48249999999,
      "d": 296.04684375000215,
      "v": 107
    },
    {
      "midi": 66,
      "hit": false,
      "t": 53006.48249999999,
      "d": 312.4938906250027,
      "v": 89
    },
    {
      "midi": 74,
      "hit": false,
      "t": 53006.48249999999,
      "d": 312.4938906250027,
      "v": 105
    },
    {
      "midi": 62,
      "hit": false,
      "t": 53457.6015,
      "d": 101.03185937499802,
      "v": 110
    },
    {
      "midi": 66,
      "hit": false,
      "t": 53457.6015,
      "d": 108.0805937499972,
      "v": 80
    },
    {
      "midi": 74,
      "hit": false,
      "t": 53457.6015,
      "d": 133.92595312499907,
      "v": 102
    },
    {
      "midi": 62,
      "hit": false,
      "t": 54134.28,
      "d": 263.1527500000011,
      "v": 102
    },
    {
      "midi": 71,
      "hit": false,
      "t": 54134.28,
      "d": 293.697265625,
      "v": 105
    },
    {
      "midi": 74,
      "hit": false,
      "t": 54134.28,
      "d": 293.697265625,
      "v": 107
    },
    {
      "midi": 67,
      "hit": false,
      "t": 54134.28,
      "d": 312.4938906250027,
      "v": 102
    },
    {
      "midi": 55,
      "hit": false,
      "t": 54134.28,
      "d": 321.892203125004,
      "v": 98
    },
    {
      "midi": 57,
      "hit": false,
      "t": 55036.518000000004,
      "d": 145.67384375000256,
      "v": 91
    },
    {
      "midi": 66,
      "hit": false,
      "t": 55036.518000000004,
      "d": 230.25865625000006,
      "v": 102
    },
    {
      "midi": 50,
      "hit": false,
      "t": 55036.518000000004,
      "d": 239.6569687500014,
      "v": 102
    },
    {
      "midi": 69,
      "hit": false,
      "t": 55036.518000000004,
      "d": 239.6569687500014,
      "v": 113
    },
    {
      "midi": 62,
      "hit": false,
      "t": 55036.518000000004,
      "d": 244.35612499999843,
      "v": 100
    },
    {
      "midi": 55,
      "hit": false,
      "t": 55938.756,
      "d": 234.9578124999971,
      "v": 102
    },
    {
      "midi": 48,
      "hit": false,
      "t": 55938.756,
      "d": 242.00654687499627,
      "v": 105
    },
    {
      "midi": 60,
      "hit": false,
      "t": 55938.756,
      "d": 249.05528124999546,
      "v": 98
    },
    {
      "midi": 64,
      "hit": false,
      "t": 55938.756,
      "d": 253.7544374999925,
      "v": 105
    },
    {
      "midi": 67,
      "hit": false,
      "t": 55938.756,
      "d": 260.8031718749917,
      "v": 105
    },
    {
      "midi": 66,
      "hit": false,
      "t": 56840.99399999999,
      "d": 502.8097187500025,
      "v": 102
    },
    {
      "midi": 57,
      "hit": false,
      "t": 56840.99399999999,
      "d": 509.8584531250017,
      "v": 98
    },
    {
      "midi": 62,
      "hit": false,
      "t": 56840.99399999999,
      "d": 509.8584531250017,
      "v": 102
    },
    {
      "midi": 50,
      "hit": false,
      "t": 56840.99399999999,
      "d": 521.6063437500052,
      "v": 107
    },
    {
      "midi": 69,
      "hit": false,
      "t": 56840.99399999999,
      "d": 535.7038125000036,
      "v": 107
    },
    {
      "midi": 67,
      "hit": false,
      "t": 58194.350999999995,
      "d": 79.88565625000047,
      "v": 105
    },
    {
      "midi": 71,
      "hit": false,
      "t": 58194.350999999995,
      "d": 86.93439062499965,
      "v": 107
    },
    {
      "midi": 74,
      "hit": false,
      "t": 58194.350999999995,
      "d": 93.98312499999884,
      "v": 110
    },
    {
      "midi": 71,
      "hit": false,
      "t": 59096.58899999999,
      "d": 68.13776562499697,
      "v": 102
    },
    {
      "midi": 68,
      "hit": false,
      "t": 59096.58899999999,
      "d": 98.68228124999587,
      "v": 100
    },
    {
      "midi": 76,
      "hit": false,
      "t": 59096.58899999999,
      "d": 124.52764062499773,
      "v": 100
    },
    {
      "midi": 69,
      "hit": false,
      "t": 59998.82699999999,
      "d": 77.53607812499831,
      "v": 102
    },
    {
      "midi": 64,
      "hit": false,
      "t": 59998.82699999999,
      "d": 86.93439062499965,
      "v": 98
    },
    {
      "midi": 72,
      "hit": false,
      "t": 59998.82699999999,
      "d": 86.93439062499965,
      "v": 105
    },
    {
      "midi": 57,
      "hit": false,
      "t": 59998.82699999999,
      "d": 96.33270312500099,
      "v": 105
    },
    {
      "midi": 76,
      "hit": false,
      "t": 59998.82699999999,
      "d": 108.08059375000448,
      "v": 102
    },
    {
      "midi": 78,
      "hit": false,
      "t": 60675.50549999999,
      "d": 77.53607812499831,
      "v": 63
    },
    {
      "midi": 69,
      "hit": false,
      "t": 60675.50549999999,
      "d": 89.2839687500018,
      "v": 53
    },
    {
      "midi": 74,
      "hit": false,
      "t": 60675.50549999999,
      "d": 89.2839687500018,
      "v": 82
    },
    {
      "midi": 69,
      "hit": false,
      "t": 60901.064999999995,
      "d": 72.83692187500128,
      "v": 102
    },
    {
      "midi": 74,
      "hit": false,
      "t": 60901.064999999995,
      "d": 72.83692187500128,
      "v": 105
    },
    {
      "midi": 78,
      "hit": false,
      "t": 60901.064999999995,
      "d": 86.93439062499965,
      "v": 102
    },
    {
      "midi": 74,
      "hit": false,
      "t": 61126.6245,
      "d": 68.13776562499697,
      "v": 105
    },
    {
      "midi": 69,
      "hit": false,
      "t": 61126.6245,
      "d": 75.18649999999616,
      "v": 105
    },
    {
      "midi": 78,
      "hit": false,
      "t": 61126.6245,
      "d": 79.88565624999319,
      "v": 107
    },
    {
      "midi": 67,
      "hit": false,
      "t": 61803.30299999999,
      "d": 79.88565625000047,
      "v": 105
    },
    {
      "midi": 71,
      "hit": false,
      "t": 61803.30299999999,
      "d": 86.93439062499965,
      "v": 107
    },
    {
      "midi": 74,
      "hit": false,
      "t": 61803.30299999999,
      "d": 93.98312499999884,
      "v": 110
    },
    {
      "midi": 71,
      "hit": false,
      "t": 62705.54099999999,
      "d": 68.13776562499697,
      "v": 102
    },
    {
      "midi": 68,
      "hit": false,
      "t": 62705.54099999999,
      "d": 98.68228124999587,
      "v": 100
    },
    {
      "midi": 76,
      "hit": false,
      "t": 62705.54099999999,
      "d": 124.52764062499773,
      "v": 100
    },
    {
      "midi": 69,
      "hit": false,
      "t": 63607.77899999999,
      "d": 77.53607812499831,
      "v": 102
    },
    {
      "midi": 64,
      "hit": false,
      "t": 63607.77899999999,
      "d": 86.93439062499965,
      "v": 98
    },
    {
      "midi": 72,
      "hit": false,
      "t": 63607.77899999999,
      "d": 86.93439062499965,
      "v": 105
    },
    {
      "midi": 57,
      "hit": false,
      "t": 63607.77899999999,
      "d": 96.33270312500099,
      "v": 105
    },
    {
      "midi": 76,
      "hit": false,
      "t": 63607.77899999999,
      "d": 108.08059375000448,
      "v": 102
    },
    {
      "midi": 78,
      "hit": false,
      "t": 64284.45749999999,
      "d": 77.53607812499831,
      "v": 63
    },
    {
      "midi": 69,
      "hit": false,
      "t": 64284.45749999999,
      "d": 89.2839687500018,
      "v": 53
    },
    {
      "midi": 74,
      "hit": false,
      "t": 64284.45749999999,
      "d": 89.2839687500018,
      "v": 82
    },
    {
      "midi": 69,
      "hit": false,
      "t": 64510.01699999999,
      "d": 72.83692187500128,
      "v": 102
    },
    {
      "midi": 74,
      "hit": false,
      "t": 64510.01699999999,
      "d": 72.83692187500128,
      "v": 105
    },
    {
      "midi": 78,
      "hit": false,
      "t": 64510.01699999999,
      "d": 86.93439062499965,
      "v": 102
    },
    {
      "midi": 74,
      "hit": false,
      "t": 64735.576499999996,
      "d": 68.13776562499697,
      "v": 105
    },
    {
      "midi": 69,
      "hit": false,
      "t": 64735.576499999996,
      "d": 75.18649999999616,
      "v": 105
    },
    {
      "midi": 78,
      "hit": false,
      "t": 64735.576499999996,
      "d": 79.88565624999319,
      "v": 107
    },
    {
      "midi": 67,
      "hit": false,
      "t": 65412.25499999999,
      "d": 79.88565625000047,
      "v": 105
    },
    {
      "midi": 71,
      "hit": false,
      "t": 65412.25499999999,
      "d": 86.93439062499965,
      "v": 107
    },
    {
      "midi": 74,
      "hit": false,
      "t": 65412.25499999999,
      "d": 93.98312499999884,
      "v": 110
    },
    {
      "midi": 71,
      "hit": false,
      "t": 66314.49299999999,
      "d": 68.13776562499697,
      "v": 102
    },
    {
      "midi": 68,
      "hit": false,
      "t": 66314.49299999999,
      "d": 98.68228125000314,
      "v": 100
    },
    {
      "midi": 76,
      "hit": false,
      "t": 66314.49299999999,
      "d": 124.527640625005,
      "v": 100
    },
    {
      "midi": 69,
      "hit": false,
      "t": 67216.731,
      "d": 77.53607812500559,
      "v": 102
    },
    {
      "midi": 64,
      "hit": false,
      "t": 67216.731,
      "d": 86.93439062499965,
      "v": 98
    },
    {
      "midi": 72,
      "hit": false,
      "t": 67216.731,
      "d": 86.93439062499965,
      "v": 105
    },
    {
      "midi": 57,
      "hit": false,
      "t": 67216.731,
      "d": 96.33270312499371,
      "v": 105
    },
    {
      "midi": 76,
      "hit": false,
      "t": 67216.731,
      "d": 108.0805937499972,
      "v": 102
    },
    {
      "midi": 78,
      "hit": false,
      "t": 67893.4095,
      "d": 77.53607812500559,
      "v": 63
    },
    {
      "midi": 69,
      "hit": false,
      "t": 67893.4095,
      "d": 89.28396875000908,
      "v": 53
    },
    {
      "midi": 74,
      "hit": false,
      "t": 67893.4095,
      "d": 89.28396875000908,
      "v": 82
    },
    {
      "midi": 69,
      "hit": false,
      "t": 68118.969,
      "d": 72.83692187500128,
      "v": 102
    },
    {
      "midi": 74,
      "hit": false,
      "t": 68118.969,
      "d": 72.83692187500128,
      "v": 105
    },
    {
      "midi": 78,
      "hit": false,
      "t": 68118.969,
      "d": 86.93439062499965,
      "v": 102
    },
    {
      "midi": 74,
      "hit": false,
      "t": 68344.5285,
      "d": 68.13776562499697,
      "v": 105
    },
    {
      "midi": 69,
      "hit": false,
      "t": 68344.5285,
      "d": 75.18649999999616,
      "v": 105
    },
    {
      "midi": 78,
      "hit": false,
      "t": 68344.5285,
      "d": 79.88565625000047,
      "v": 107
    },
    {
      "midi": 67,
      "hit": false,
      "t": 69021.207,
      "d": 79.88565625000047,
      "v": 105
    },
    {
      "midi": 71,
      "hit": false,
      "t": 69021.207,
      "d": 86.93439062499965,
      "v": 107
    },
    {
      "midi": 74,
      "hit": false,
      "t": 69021.207,
      "d": 93.98312499999884,
      "v": 110
    },
    {
      "midi": 71,
      "hit": false,
      "t": 69923.44499999999,
      "d": 68.13776562499697,
      "v": 102
    },
    {
      "midi": 68,
      "hit": false,
      "t": 69923.44499999999,
      "d": 98.68228125000314,
      "v": 100
    },
    {
      "midi": 76,
      "hit": false,
      "t": 69923.44499999999,
      "d": 124.527640625005,
      "v": 100
    },
    {
      "midi": 69,
      "hit": false,
      "t": 70825.683,
      "d": 77.53607812500559,
      "v": 102
    },
    {
      "midi": 64,
      "hit": false,
      "t": 70825.683,
      "d": 86.93439062499965,
      "v": 98
    },
    {
      "midi": 72,
      "hit": false,
      "t": 70825.683,
      "d": 86.93439062499965,
      "v": 105
    },
    {
      "midi": 57,
      "hit": false,
      "t": 70825.683,
      "d": 96.33270312499371,
      "v": 105
    },
    {
      "midi": 76,
      "hit": false,
      "t": 70825.683,
      "d": 108.0805937499972,
      "v": 102
    },
    {
      "midi": 78,
      "hit": false,
      "t": 71502.3615,
      "d": 77.53607812500559,
      "v": 63
    },
    {
      "midi": 69,
      "hit": false,
      "t": 71502.3615,
      "d": 89.28396875000908,
      "v": 53
    },
    {
      "midi": 74,
      "hit": false,
      "t": 71502.3615,
      "d": 89.28396875000908,
      "v": 82
    },
    {
      "midi": 69,
      "hit": false,
      "t": 71727.921,
      "d": 72.83692187500128,
      "v": 102
    },
    {
      "midi": 74,
      "hit": false,
      "t": 71727.921,
      "d": 72.83692187500128,
      "v": 105
    },
    {
      "midi": 78,
      "hit": false,
      "t": 71727.921,
      "d": 86.93439062499965,
      "v": 102
    },
    {
      "midi": 74,
      "hit": false,
      "t": 71953.4805,
      "d": 68.13776562499697,
      "v": 105
    },
    {
      "midi": 69,
      "hit": false,
      "t": 71953.4805,
      "d": 75.18649999999616,
      "v": 105
    },
    {
      "midi": 78,
      "hit": false,
      "t": 71953.4805,
      "d": 79.88565625000047,
      "v": 107
    },
    {
      "midi": 67,
      "hit": false,
      "t": 72630.159,
      "d": 79.88565625000047,
      "v": 105
    },
    {
      "midi": 71,
      "hit": false,
      "t": 72630.159,
      "d": 86.93439062499965,
      "v": 107
    },
    {
      "midi": 74,
      "hit": false,
      "t": 72630.159,
      "d": 93.98312499999884,
      "v": 110
    },
    {
      "midi": 71,
      "hit": false,
      "t": 73532.397,
      "d": 68.13776562499697,
      "v": 102
    },
    {
      "midi": 68,
      "hit": false,
      "t": 73532.397,
      "d": 98.68228125000314,
      "v": 100
    },
    {
      "midi": 76,
      "hit": false,
      "t": 73532.397,
      "d": 124.527640625005,
      "v": 100
    },
    {
      "midi": 69,
      "hit": false,
      "t": 74434.63500000001,
      "d": 77.53607812500559,
      "v": 102
    },
    {
      "midi": 64,
      "hit": false,
      "t": 74434.63500000001,
      "d": 86.93439062499965,
      "v": 98
    },
    {
      "midi": 72,
      "hit": false,
      "t": 74434.63500000001,
      "d": 86.93439062499965,
      "v": 105
    },
    {
      "midi": 57,
      "hit": false,
      "t": 74434.63500000001,
      "d": 96.33270312499371,
      "v": 105
    },
    {
      "midi": 76,
      "hit": false,
      "t": 74434.63500000001,
      "d": 108.0805937499972,
      "v": 102
    },
    {
      "midi": 78,
      "hit": false,
      "t": 75111.3135,
      "d": 77.53607812500559,
      "v": 63
    },
    {
      "midi": 69,
      "hit": false,
      "t": 75111.3135,
      "d": 89.28396875000908,
      "v": 53
    },
    {
      "midi": 74,
      "hit": false,
      "t": 75111.3135,
      "d": 89.28396875000908,
      "v": 82
    },
    {
      "midi": 69,
      "hit": false,
      "t": 75336.873,
      "d": 72.83692187500128,
      "v": 102
    },
    {
      "midi": 74,
      "hit": false,
      "t": 75336.873,
      "d": 72.83692187500128,
      "v": 105
    },
    {
      "midi": 78,
      "hit": false,
      "t": 75336.873,
      "d": 86.93439062499965,
      "v": 102
    },
    {
      "midi": 74,
      "hit": false,
      "t": 75562.43250000001,
      "d": 68.13776562499697,
      "v": 105
    },
    {
      "midi": 69,
      "hit": false,
      "t": 75562.43250000001,
      "d": 75.18649999999616,
      "v": 105
    },
    {
      "midi": 78,
      "hit": false,
      "t": 75562.43250000001,
      "d": 79.88565625000047,
      "v": 107
    },
    {
      "midi": 67,
      "hit": false,
      "t": 76239.111,
      "d": 79.88565625000047,
      "v": 105
    },
    {
      "midi": 71,
      "hit": false,
      "t": 76239.111,
      "d": 86.93439062499965,
      "v": 107
    },
    {
      "midi": 74,
      "hit": false,
      "t": 76239.111,
      "d": 93.98312499999884,
      "v": 110
    },
    {
      "midi": 71,
      "hit": false,
      "t": 77141.349,
      "d": 68.13776562499697,
      "v": 102
    },
    {
      "midi": 68,
      "hit": false,
      "t": 77141.349,
      "d": 98.68228125000314,
      "v": 100
    },
    {
      "midi": 76,
      "hit": false,
      "t": 77141.349,
      "d": 124.527640625005,
      "v": 100
    },
    {
      "midi": 69,
      "hit": false,
      "t": 78043.58700000001,
      "d": 77.53607812500559,
      "v": 102
    },
    {
      "midi": 64,
      "hit": false,
      "t": 78043.58700000001,
      "d": 86.93439062499965,
      "v": 98
    },
    {
      "midi": 72,
      "hit": false,
      "t": 78043.58700000001,
      "d": 86.93439062499965,
      "v": 105
    },
    {
      "midi": 57,
      "hit": false,
      "t": 78043.58700000001,
      "d": 96.33270312499371,
      "v": 105
    },
    {
      "midi": 76,
      "hit": false,
      "t": 78043.58700000001,
      "d": 108.0805937499972,
      "v": 102
    },
    {
      "midi": 78,
      "hit": false,
      "t": 78720.26550000001,
      "d": 77.53607812500559,
      "v": 63
    },
    {
      "midi": 69,
      "hit": false,
      "t": 78720.26550000001,
      "d": 89.28396875000908,
      "v": 53
    },
    {
      "midi": 74,
      "hit": false,
      "t": 78720.26550000001,
      "d": 89.28396875000908,
      "v": 82
    },
    {
      "midi": 69,
      "hit": false,
      "t": 78945.82500000001,
      "d": 72.83692187500128,
      "v": 102
    },
    {
      "midi": 74,
      "hit": false,
      "t": 78945.82500000001,
      "d": 72.83692187500128,
      "v": 105
    },
    {
      "midi": 78,
      "hit": false,
      "t": 78945.82500000001,
      "d": 86.93439062499965,
      "v": 102
    },
    {
      "midi": 74,
      "hit": false,
      "t": 79171.38450000001,
      "d": 68.13776562499697,
      "v": 105
    },
    {
      "midi": 69,
      "hit": false,
      "t": 79171.38450000001,
      "d": 75.18649999999616,
      "v": 105
    },
    {
      "midi": 78,
      "hit": false,
      "t": 79171.38450000001,
      "d": 79.88565625000047,
      "v": 107
    },
    {
      "midi": 67,
      "hit": false,
      "t": 79848.06300000001,
      "d": 79.88565625000047,
      "v": 105
    },
    {
      "midi": 71,
      "hit": false,
      "t": 79848.06300000001,
      "d": 86.93439062499965,
      "v": 107
    },
    {
      "midi": 74,
      "hit": false,
      "t": 79848.06300000001,
      "d": 93.98312499999884,
      "v": 110
    },
    {
      "midi": 71,
      "hit": false,
      "t": 80750.301,
      "d": 68.13776562499697,
      "v": 102
    },
    {
      "midi": 68,
      "hit": false,
      "t": 80750.301,
      "d": 98.68228125000314,
      "v": 100
    },
    {
      "midi": 76,
      "hit": false,
      "t": 80750.301,
      "d": 124.527640625005,
      "v": 100
    },
    {
      "midi": 69,
      "hit": false,
      "t": 81652.53900000002,
      "d": 77.53607812500559,
      "v": 102
    },
    {
      "midi": 64,
      "hit": false,
      "t": 81652.53900000002,
      "d": 86.93439062499965,
      "v": 98
    },
    {
      "midi": 72,
      "hit": false,
      "t": 81652.53900000002,
      "d": 86.93439062499965,
      "v": 105
    },
    {
      "midi": 57,
      "hit": false,
      "t": 81652.53900000002,
      "d": 96.33270312499371,
      "v": 105
    },
    {
      "midi": 76,
      "hit": false,
      "t": 81652.53900000002,
      "d": 108.0805937499972,
      "v": 102
    },
    {
      "midi": 78,
      "hit": false,
      "t": 82329.21750000001,
      "d": 77.53607812500559,
      "v": 63
    },
    {
      "midi": 69,
      "hit": false,
      "t": 82329.21750000001,
      "d": 89.28396875000908,
      "v": 53
    },
    {
      "midi": 74,
      "hit": false,
      "t": 82329.21750000001,
      "d": 89.28396875000908,
      "v": 82
    },
    {
      "midi": 69,
      "hit": false,
      "t": 82554.77700000002,
      "d": 72.83692187500128,
      "v": 102
    },
    {
      "midi": 74,
      "hit": false,
      "t": 82554.77700000002,
      "d": 72.83692187500128,
      "v": 105
    },
    {
      "midi": 78,
      "hit": false,
      "t": 82554.77700000002,
      "d": 86.93439062499965,
      "v": 102
    },
    {
      "midi": 74,
      "hit": false,
      "t": 82780.33650000002,
      "d": 68.13776562499697,
      "v": 105
    },
    {
      "midi": 69,
      "hit": false,
      "t": 82780.33650000002,
      "d": 75.18649999999616,
      "v": 105
    },
    {
      "midi": 78,
      "hit": false,
      "t": 82780.33650000002,
      "d": 79.88565625000047,
      "v": 107
    },
    {
      "midi": 67,
      "hit": false,
      "t": 83457.01500000001,
      "d": 79.88565625000047,
      "v": 105
    },
    {
      "midi": 71,
      "hit": false,
      "t": 83457.01500000001,
      "d": 86.93439062499965,
      "v": 107
    },
    {
      "midi": 74,
      "hit": false,
      "t": 83457.01500000001,
      "d": 93.98312499999884,
      "v": 110
    },
    {
      "midi": 71,
      "hit": false,
      "t": 84359.25300000001,
      "d": 68.13776562499697,
      "v": 102
    },
    {
      "midi": 68,
      "hit": false,
      "t": 84359.25300000001,
      "d": 98.68228125000314,
      "v": 100
    },
    {
      "midi": 76,
      "hit": false,
      "t": 84359.25300000001,
      "d": 124.527640625005,
      "v": 100
    },
    {
      "midi": 69,
      "hit": false,
      "t": 85261.49100000002,
      "d": 77.53607812500559,
      "v": 102
    },
    {
      "midi": 64,
      "hit": false,
      "t": 85261.49100000002,
      "d": 86.93439062499965,
      "v": 98
    },
    {
      "midi": 72,
      "hit": false,
      "t": 85261.49100000002,
      "d": 86.93439062499965,
      "v": 105
    },
    {
      "midi": 57,
      "hit": false,
      "t": 85261.49100000002,
      "d": 96.33270312499371,
      "v": 105
    },
    {
      "midi": 76,
      "hit": false,
      "t": 85261.49100000002,
      "d": 108.0805937499972,
      "v": 102
    },
    {
      "midi": 78,
      "hit": false,
      "t": 85938.16950000002,
      "d": 77.53607812500559,
      "v": 63
    },
    {
      "midi": 69,
      "hit": false,
      "t": 85938.16950000002,
      "d": 89.28396875000908,
      "v": 53
    },
    {
      "midi": 74,
      "hit": false,
      "t": 85938.16950000002,
      "d": 89.28396875000908,
      "v": 82
    },
    {
      "midi": 69,
      "hit": false,
      "t": 86163.72900000002,
      "d": 72.83692187500128,
      "v": 102
    },
    {
      "midi": 74,
      "hit": false,
      "t": 86163.72900000002,
      "d": 72.83692187500128,
      "v": 105
    },
    {
      "midi": 78,
      "hit": false,
      "t": 86163.72900000002,
      "d": 86.93439062499965,
      "v": 102
    },
    {
      "midi": 74,
      "hit": false,
      "t": 86389.28850000002,
      "d": 68.13776562499697,
      "v": 105
    },
    {
      "midi": 69,
      "hit": false,
      "t": 86389.28850000002,
      "d": 75.18649999999616,
      "v": 105
    },
    {
      "midi": 78,
      "hit": false,
      "t": 86389.28850000002,
      "d": 79.88565625000047,
      "v": 107
    },
    {
      "midi": 67,
      "hit": false,
      "t": 87065.96700000002,
      "d": 79.88565625000047,
      "v": 105
    },
    {
      "midi": 71,
      "hit": false,
      "t": 87065.96700000002,
      "d": 86.93439062499965,
      "v": 107
    },
    {
      "midi": 74,
      "hit": false,
      "t": 87065.96700000002,
      "d": 93.98312499999884,
      "v": 110
    },
    {
      "midi": 71,
      "hit": false,
      "t": 87968.20500000002,
      "d": 68.13776562499697,
      "v": 102
    },
    {
      "midi": 68,
      "hit": false,
      "t": 87968.20500000002,
      "d": 98.68228125000314,
      "v": 100
    },
    {
      "midi": 76,
      "hit": false,
      "t": 87968.20500000002,
      "d": 124.527640625005,
      "v": 100
    },
    {
      "midi": 69,
      "hit": false,
      "t": 88870.44300000003,
      "d": 77.53607812500559,
      "v": 102
    },
    {
      "midi": 64,
      "hit": false,
      "t": 88870.44300000003,
      "d": 86.93439062499965,
      "v": 98
    },
    {
      "midi": 72,
      "hit": false,
      "t": 88870.44300000003,
      "d": 86.93439062499965,
      "v": 105
    },
    {
      "midi": 57,
      "hit": false,
      "t": 88870.44300000003,
      "d": 96.33270312499371,
      "v": 105
    },
    {
      "midi": 76,
      "hit": false,
      "t": 88870.44300000003,
      "d": 108.0805937499972,
      "v": 102
    },
    {
      "midi": 78,
      "hit": false,
      "t": 89547.12150000002,
      "d": 77.53607812500559,
      "v": 63
    },
    {
      "midi": 69,
      "hit": false,
      "t": 89547.12150000002,
      "d": 89.28396875000908,
      "v": 53
    },
    {
      "midi": 74,
      "hit": false,
      "t": 89547.12150000002,
      "d": 89.28396875000908,
      "v": 82
    },
    {
      "midi": 69,
      "hit": false,
      "t": 89772.68100000003,
      "d": 72.83692187500128,
      "v": 102
    },
    {
      "midi": 74,
      "hit": false,
      "t": 89772.68100000003,
      "d": 72.83692187500128,
      "v": 105
    },
    {
      "midi": 78,
      "hit": false,
      "t": 89772.68100000003,
      "d": 86.93439062499965,
      "v": 102
    },
    {
      "midi": 74,
      "hit": false,
      "t": 89998.24050000003,
      "d": 68.13776562499697,
      "v": 105
    },
    {
      "midi": 69,
      "hit": false,
      "t": 89998.24050000003,
      "d": 75.18649999999616,
      "v": 105
    },
    {
      "midi": 78,
      "hit": false,
      "t": 89998.24050000003,
      "d": 79.88565625000047,
      "v": 107
    },
    {
      "midi": 55,
      "hit": false,
      "t": 90223.80000000003,
      "d": 213.81160937499953,
      "v": 95
    },
    {
      "midi": 62,
      "hit": false,
      "t": 90223.80000000003,
      "d": 213.81160937499953,
      "v": 93
    },
    {
      "midi": 67,
      "hit": false,
      "t": 90223.80000000003,
      "d": 288.9981093749957,
      "v": 87
    },
    {
      "midi": 74,
      "hit": false,
      "t": 90223.80000000003,
      "d": 288.9981093749957,
      "v": 93
    },
    {
      "midi": 71,
      "hit": false,
      "t": 90223.80000000003,
      "d": 298.39642187498976,
      "v": 95
    },
    {
      "midi": 62,
      "hit": false,
      "t": 90674.91900000002,
      "d": 187.96625000001222,
      "v": 98
    },
    {
      "midi": 55,
      "hit": false,
      "t": 90674.91900000002,
      "d": 206.7628750000149,
      "v": 98
    },
    {
      "midi": 74,
      "hit": false,
      "t": 90674.91900000002,
      "d": 251.40485937501944,
      "v": 100
    },
    {
      "midi": 67,
      "hit": false,
      "t": 90674.91900000002,
      "d": 260.8031718750135,
      "v": 95
    },
    {
      "midi": 71,
      "hit": false,
      "t": 90674.91900000002,
      "d": 265.5023281250178,
      "v": 102
    },
    {
      "midi": 60,
      "hit": false,
      "t": 91126.03800000004,
      "d": 237.30739062500652,
      "v": 102
    },
    {
      "midi": 76,
      "hit": false,
      "t": 91126.03800000004,
      "d": 286.6485312500008,
      "v": 95
    },
    {
      "midi": 67,
      "hit": false,
      "t": 91126.03800000004,
      "d": 298.3964218750043,
      "v": 87
    },
    {
      "midi": 72,
      "hit": false,
      "t": 91126.03800000004,
      "d": 298.3964218750043,
      "v": 98
    },
    {
      "midi": 60,
      "hit": false,
      "t": 91577.15700000005,
      "d": 209.11245312499523,
      "v": 107
    },
    {
      "midi": 72,
      "hit": false,
      "t": 91577.15700000005,
      "d": 237.30739062499197,
      "v": 100
    },
    {
      "midi": 76,
      "hit": false,
      "t": 91577.15700000005,
      "d": 237.30739062499197,
      "v": 102
    },
    {
      "midi": 67,
      "hit": false,
      "t": 91577.15700000005,
      "d": 253.75443749998522,
      "v": 89
    },
    {
      "midi": 55,
      "hit": false,
      "t": 92028.27600000004,
      "d": 140.97468749999825,
      "v": 107
    },
    {
      "midi": 62,
      "hit": false,
      "t": 92028.27600000004,
      "d": 150.37299999999232,
      "v": 105
    },
    {
      "midi": 71,
      "hit": false,
      "t": 92028.27600000004,
      "d": 169.169624999995,
      "v": 110
    },
    {
      "midi": 74,
      "hit": false,
      "t": 92028.27600000004,
      "d": 171.51920312498987,
      "v": 107
    },
    {
      "midi": 67,
      "hit": false,
      "t": 92028.27600000004,
      "d": 180.91751562498393,
      "v": 100
    },
    {
      "midi": 38,
      "hit": false,
      "t": 92930.51400000002,
      "d": 385.33081250000396,
      "v": 91
    },
    {
      "midi": 50,
      "hit": false,
      "t": 92930.51400000002,
      "d": 385.33081250000396,
      "v": 91
    },
    {
      "midi": 51,
      "hit": false,
      "t": 93381.63300000003,
      "d": 312.4938906250027,
      "v": 82
    },
    {
      "midi": 39,
      "hit": false,
      "t": 93381.63300000003,
      "d": 321.89220312499674,
      "v": 78
    },
    {
      "midi": 64,
      "hit": false,
      "t": 94283.87100000003,
      "d": 96.33270312500827,
      "v": 95
    },
    {
      "midi": 62,
      "hit": false,
      "t": 94283.87100000003,
      "d": 103.38143750000745,
      "v": 102
    },
    {
      "midi": 71,
      "hit": false,
      "t": 94283.87100000003,
      "d": 124.527640625005,
      "v": 102
    },
    {
      "midi": 62,
      "hit": false,
      "t": 94509.43050000003,
      "d": 82.23523437499534,
      "v": 102
    },
    {
      "midi": 64,
      "hit": false,
      "t": 94509.43050000003,
      "d": 86.93439062499965,
      "v": 66
    },
    {
      "midi": 70,
      "hit": false,
      "t": 94509.43050000003,
      "d": 108.0805937499972,
      "v": 82
    },
    {
      "midi": 62,
      "hit": false,
      "t": 94734.99000000002,
      "d": 84.58481250000477,
      "v": 105
    },
    {
      "midi": 64,
      "hit": false,
      "t": 94734.99000000002,
      "d": 84.58481250000477,
      "v": 74
    },
    {
      "midi": 69,
      "hit": false,
      "t": 94734.99000000002,
      "d": 105.73101562500233,
      "v": 98
    },
    {
      "midi": 64,
      "hit": false,
      "t": 94960.54950000002,
      "d": 103.3814374999929,
      "v": 89
    },
    {
      "midi": 62,
      "hit": false,
      "t": 94960.54950000002,
      "d": 131.57637499998964,
      "v": 107
    },
    {
      "midi": 68,
      "hit": false,
      "t": 94960.54950000002,
      "d": 131.57637499998964,
      "v": 102
    },
    {
      "midi": 62,
      "hit": false,
      "t": 95411.66850000001,
      "d": 75.18649999999616,
      "v": 107
    },
    {
      "midi": 64,
      "hit": false,
      "t": 95411.66850000001,
      "d": 75.18649999999616,
      "v": 85
    },
    {
      "midi": 68,
      "hit": false,
      "t": 95411.66850000001,
      "d": 84.58481249999022,
      "v": 100
    },
    {
      "midi": 62,
      "hit": false,
      "t": 96088.34700000001,
      "d": 84.58481250000477,
      "v": 85
    },
    {
      "midi": 68,
      "hit": false,
      "t": 96088.34700000001,
      "d": 91.63354687500396,
      "v": 91
    },
    {
      "midi": 64,
      "hit": false,
      "t": 96088.34700000001,
      "d": 96.33270312500827,
      "v": 85
    },
    {
      "midi": 64,
      "hit": false,
      "t": 96313.90650000001,
      "d": 119.8284843750007,
      "v": 89
    },
    {
      "midi": 68,
      "hit": false,
      "t": 96313.90650000001,
      "d": 131.5763750000042,
      "v": 100
    },
    {
      "midi": 62,
      "hit": false,
      "t": 96313.90650000001,
      "d": 140.97468749999825,
      "v": 110
    },
    {
      "midi": 64,
      "hit": false,
      "t": 96990.585,
      "d": 77.53607812500559,
      "v": 98
    },
    {
      "midi": 68,
      "hit": false,
      "t": 96990.585,
      "d": 101.03185937501257,
      "v": 102
    },
    {
      "midi": 62,
      "hit": false,
      "t": 96990.585,
      "d": 105.73101562501688,
      "v": 107
    },
    {
      "midi": 69,
      "hit": false,
      "t": 97892.82300000002,
      "d": 84.58481250000477,
      "v": 102
    },
    {
      "midi": 76,
      "hit": false,
      "t": 97892.82300000002,
      "d": 89.28396875000908,
      "v": 95
    },
    {
      "midi": 81,
      "hit": false,
      "t": 97892.82300000002,
      "d": 108.08059375001176,
      "v": 102
    },
    {
      "midi": 69,
      "hit": false,
      "t": 98118.38250000004,
      "d": 75.18649999999616,
      "v": 102
    },
    {
      "midi": 75,
      "hit": false,
      "t": 98118.38250000004,
      "d": 75.18649999999616,
      "v": 102
    },
    {
      "midi": 81,
      "hit": false,
      "t": 98118.38250000004,
      "d": 75.18649999999616,
      "v": 91
    },
    {
      "midi": 74,
      "hit": false,
      "t": 98343.94200000002,
      "d": 79.88565625000047,
      "v": 100
    },
    {
      "midi": 69,
      "hit": false,
      "t": 98343.94200000002,
      "d": 91.63354687500396,
      "v": 105
    },
    {
      "midi": 81,
      "hit": false,
      "t": 98343.94200000002,
      "d": 101.03185937499802,
      "v": 91
    },
    {
      "midi": 69,
      "hit": false,
      "t": 98569.50150000003,
      "d": 108.0805937499972,
      "v": 107
    },
    {
      "midi": 73,
      "hit": false,
      "t": 98569.50150000003,
      "d": 133.92595312499907,
      "v": 100
    },
    {
      "midi": 81,
      "hit": false,
      "t": 98569.50150000003,
      "d": 145.67384375000256,
      "v": 100
    },
    {
      "midi": 73,
      "hit": false,
      "t": 99020.62050000003,
      "d": 58.73945312500291,
      "v": 95
    },
    {
      "midi": 69,
      "hit": false,
      "t": 99020.62050000003,
      "d": 68.13776562499697,
      "v": 102
    },
    {
      "midi": 81,
      "hit": false,
      "t": 99020.62050000003,
      "d": 72.83692187500128,
      "v": 100
    },
    {
      "midi": 73,
      "hit": false,
      "t": 99471.73950000004,
      "d": 39.94282812500023,
      "v": 78
    },
    {
      "midi": 69,
      "hit": false,
      "t": 99471.73950000004,
      "d": 54.0402968749986,
      "v": 98
    },
    {
      "midi": 81,
      "hit": false,
      "t": 99471.73950000004,
      "d": 70.48734374999185,
      "v": 98
    },
    {
      "midi": 69,
      "hit": false,
      "t": 99922.85850000003,
      "d": 307.7947343750129,
      "v": 102
    },
    {
      "midi": 73,
      "hit": false,
      "t": 99922.85850000003,
      "d": 441.720687500012,
      "v": 100
    },
    {
      "midi": 81,
      "hit": false,
      "t": 99922.85850000003,
      "d": 474.61478125001304,
      "v": 105
    },
    {
      "midi": 69,
      "hit": false,
      "t": 100373.97750000004,
      "d": 138.62510937500338,
      "v": 105
    },
    {
      "midi": 73,
      "hit": false,
      "t": 100599.53700000004,
      "d": 89.28396874999453,
      "v": 105
    },
    {
      "midi": 81,
      "hit": false,
      "t": 100599.53700000004,
      "d": 115.12932812499639,
      "v": 105
    },
    {
      "midi": 62,
      "hit": false,
      "t": 101501.77500000004,
      "d": 140.97468749999825,
      "v": 105
    },
    {
      "midi": 69,
      "hit": false,
      "t": 101501.77500000004,
      "d": 152.72257812500175,
      "v": 98
    },
    {
      "midi": 74,
      "hit": false,
      "t": 101501.77500000004,
      "d": 185.6166718750028,
      "v": 105
    },
    {
      "midi": 68,
      "hit": false,
      "t": 101727.33450000004,
      "d": 70.4873437500064,
      "v": 85
    },
    {
      "midi": 62,
      "hit": false,
      "t": 101727.33450000004,
      "d": 84.58481250000477,
      "v": 87
    },
    {
      "midi": 74,
      "hit": false,
      "t": 101727.33450000004,
      "d": 89.28396875000908,
      "v": 82
    },
    {
      "midi": 67,
      "hit": false,
      "t": 101952.89400000006,
      "d": 63.43860937500722,
      "v": 87
    },
    {
      "midi": 62,
      "hit": false,
      "t": 101952.89400000006,
      "d": 98.68228125000314,
      "v": 105
    },
    {
      "midi": 74,
      "hit": false,
      "t": 101952.89400000006,
      "d": 105.73101562500233,
      "v": 87
    },
    {
      "midi": 66,
      "hit": false,
      "t": 102178.45350000006,
      "d": 93.98312499999884,
      "v": 98
    },
    {
      "midi": 62,
      "hit": false,
      "t": 102178.45350000006,
      "d": 103.3814374999929,
      "v": 107
    },
    {
      "midi": 74,
      "hit": false,
      "t": 102178.45350000006,
      "d": 112.77974999998696,
      "v": 105
    },
    {
      "midi": 66,
      "hit": false,
      "t": 102629.57250000005,
      "d": 86.93439062499965,
      "v": 89
    },
    {
      "midi": 62,
      "hit": false,
      "t": 102629.57250000005,
      "d": 91.63354687500396,
      "v": 107
    },
    {
      "midi": 74,
      "hit": false,
      "t": 102629.57250000005,
      "d": 96.33270312500827,
      "v": 107
    },
    {
      "midi": 62,
      "hit": false,
      "t": 103080.69150000006,
      "d": 65.7881875000021,
      "v": 98
    },
    {
      "midi": 66,
      "hit": false,
      "t": 103080.69150000006,
      "d": 75.18649999999616,
      "v": 89
    },
    {
      "midi": 74,
      "hit": false,
      "t": 103080.69150000006,
      "d": 75.18649999999616,
      "v": 102
    },
    {
      "midi": 66,
      "hit": false,
      "t": 103306.25100000006,
      "d": 56.38987499999348,
      "v": 95
    },
    {
      "midi": 74,
      "hit": false,
      "t": 103306.25100000006,
      "d": 56.38987499999348,
      "v": 102
    },
    {
      "midi": 62,
      "hit": false,
      "t": 103306.25100000006,
      "d": 70.48734374999185,
      "v": 105
    },
    {
      "midi": 62,
      "hit": false,
      "t": 103531.81050000005,
      "d": 296.0468437499949,
      "v": 107
    },
    {
      "midi": 66,
      "hit": false,
      "t": 103531.81050000005,
      "d": 312.4938906249881,
      "v": 89
    },
    {
      "midi": 74,
      "hit": false,
      "t": 103531.81050000005,
      "d": 312.4938906249881,
      "v": 105
    },
    {
      "midi": 62,
      "hit": false,
      "t": 103982.92950000004,
      "d": 101.03185937499802,
      "v": 110
    },
    {
      "midi": 66,
      "hit": false,
      "t": 103982.92950000004,
      "d": 108.0805937499972,
      "v": 80
    },
    {
      "midi": 74,
      "hit": false,
      "t": 103982.92950000004,
      "d": 133.92595312499907,
      "v": 102
    },
    {
      "midi": 62,
      "hit": false,
      "t": 104659.60800000004,
      "d": 263.15274999999383,
      "v": 102
    },
    {
      "midi": 71,
      "hit": false,
      "t": 104659.60800000004,
      "d": 293.697265625,
      "v": 105
    },
    {
      "midi": 74,
      "hit": false,
      "t": 104659.60800000004,
      "d": 293.697265625,
      "v": 107
    },
    {
      "midi": 67,
      "hit": false,
      "t": 104659.60800000004,
      "d": 312.4938906250027,
      "v": 102
    },
    {
      "midi": 55,
      "hit": false,
      "t": 104659.60800000004,
      "d": 321.89220312499674,
      "v": 98
    },
    {
      "midi": 57,
      "hit": false,
      "t": 105561.84600000003,
      "d": 145.67384375000256,
      "v": 91
    },
    {
      "midi": 66,
      "hit": false,
      "t": 105561.84600000003,
      "d": 230.25865625000733,
      "v": 102
    },
    {
      "midi": 50,
      "hit": false,
      "t": 105561.84600000003,
      "d": 239.6569687500014,
      "v": 102
    },
    {
      "midi": 69,
      "hit": false,
      "t": 105561.84600000003,
      "d": 239.6569687500014,
      "v": 113
    },
    {
      "midi": 62,
      "hit": false,
      "t": 105561.84600000003,
      "d": 244.3561250000057,
      "v": 100
    },
    {
      "midi": 55,
      "hit": false,
      "t": 106464.08400000005,
      "d": 234.9578124999971,
      "v": 102
    },
    {
      "midi": 48,
      "hit": false,
      "t": 106464.08400000005,
      "d": 242.00654687499627,
      "v": 105
    },
    {
      "midi": 60,
      "hit": false,
      "t": 106464.08400000005,
      "d": 249.05528124999546,
      "v": 98
    },
    {
      "midi": 64,
      "hit": false,
      "t": 106464.08400000005,
      "d": 253.75443749999977,
      "v": 105
    },
    {
      "midi": 67,
      "hit": false,
      "t": 106464.08400000005,
      "d": 260.80317187499895,
      "v": 105
    },
    {
      "midi": 66,
      "hit": false,
      "t": 107366.32200000004,
      "d": 502.8097187499952,
      "v": 102
    },
    {
      "midi": 57,
      "hit": false,
      "t": 107366.32200000004,
      "d": 509.8584531249944,
      "v": 98
    },
    {
      "midi": 62,
      "hit": false,
      "t": 107366.32200000004,
      "d": 509.8584531249944,
      "v": 102
    },
    {
      "midi": 50,
      "hit": false,
      "t": 107366.32200000004,
      "d": 521.6063437499979,
      "v": 107
    },
    {
      "midi": 69,
      "hit": false,
      "t": 107366.32200000004,
      "d": 535.7038124999963,
      "v": 107
    },
    {
      "midi": 67,
      "hit": false,
      "t": 108719.67900000003,
      "d": 79.88565625000047,
      "v": 105
    },
    {
      "midi": 71,
      "hit": false,
      "t": 108719.67900000003,
      "d": 86.93439062499965,
      "v": 107
    },
    {
      "midi": 74,
      "hit": false,
      "t": 108719.67900000003,
      "d": 93.98312499999884,
      "v": 110
    },
    {
      "midi": 71,
      "hit": false,
      "t": 109621.91700000003,
      "d": 68.13776562499697,
      "v": 102
    },
    {
      "midi": 68,
      "hit": false,
      "t": 109621.91700000003,
      "d": 98.68228125000314,
      "v": 100
    },
    {
      "midi": 76,
      "hit": false,
      "t": 109621.91700000003,
      "d": 124.527640625005,
      "v": 100
    },
    {
      "midi": 69,
      "hit": false,
      "t": 110524.15500000004,
      "d": 77.53607812500559,
      "v": 102
    },
    {
      "midi": 64,
      "hit": false,
      "t": 110524.15500000004,
      "d": 86.93439062499965,
      "v": 98
    },
    {
      "midi": 72,
      "hit": false,
      "t": 110524.15500000004,
      "d": 86.93439062499965,
      "v": 105
    },
    {
      "midi": 57,
      "hit": false,
      "t": 110524.15500000004,
      "d": 96.33270312499371,
      "v": 105
    },
    {
      "midi": 76,
      "hit": false,
      "t": 110524.15500000004,
      "d": 108.0805937499972,
      "v": 102
    },
    {
      "midi": 78,
      "hit": false,
      "t": 111200.83350000004,
      "d": 77.53607812500559,
      "v": 63
    },
    {
      "midi": 69,
      "hit": false,
      "t": 111200.83350000004,
      "d": 89.28396875000908,
      "v": 53
    },
    {
      "midi": 74,
      "hit": false,
      "t": 111200.83350000004,
      "d": 89.28396875000908,
      "v": 82
    },
    {
      "midi": 69,
      "hit": false,
      "t": 111426.39300000004,
      "d": 72.83692187500128,
      "v": 102
    },
    {
      "midi": 74,
      "hit": false,
      "t": 111426.39300000004,
      "d": 72.83692187500128,
      "v": 105
    },
    {
      "midi": 78,
      "hit": false,
      "t": 111426.39300000004,
      "d": 86.93439062499965,
      "v": 102
    },
    {
      "midi": 74,
      "hit": false,
      "t": 111651.95250000004,
      "d": 68.13776562499697,
      "v": 105
    },
    {
      "midi": 69,
      "hit": false,
      "t": 111651.95250000004,
      "d": 75.18649999999616,
      "v": 105
    },
    {
      "midi": 78,
      "hit": false,
      "t": 111651.95250000004,
      "d": 79.88565625000047,
      "v": 107
    },
    {
      "midi": 67,
      "hit": false,
      "t": 112328.63100000004,
      "d": 79.88565625000047,
      "v": 105
    },
    {
      "midi": 71,
      "hit": false,
      "t": 112328.63100000004,
      "d": 86.93439062499965,
      "v": 107
    },
    {
      "midi": 74,
      "hit": false,
      "t": 112328.63100000004,
      "d": 93.98312499999884,
      "v": 110
    },
    {
      "midi": 71,
      "hit": false,
      "t": 113230.86900000004,
      "d": 68.13776562499697,
      "v": 102
    },
    {
      "midi": 68,
      "hit": false,
      "t": 113230.86900000004,
      "d": 98.68228125000314,
      "v": 100
    },
    {
      "midi": 76,
      "hit": false,
      "t": 113230.86900000004,
      "d": 124.527640625005,
      "v": 100
    },
    {
      "midi": 69,
      "hit": false,
      "t": 114133.10700000005,
      "d": 77.53607812500559,
      "v": 102
    },
    {
      "midi": 64,
      "hit": false,
      "t": 114133.10700000005,
      "d": 86.93439062499965,
      "v": 98
    },
    {
      "midi": 72,
      "hit": false,
      "t": 114133.10700000005,
      "d": 86.93439062499965,
      "v": 105
    },
    {
      "midi": 57,
      "hit": false,
      "t": 114133.10700000005,
      "d": 96.33270312499371,
      "v": 105
    },
    {
      "midi": 76,
      "hit": false,
      "t": 114133.10700000005,
      "d": 108.0805937499972,
      "v": 102
    },
    {
      "midi": 78,
      "hit": false,
      "t": 114809.78550000004,
      "d": 77.53607812500559,
      "v": 63
    },
    {
      "midi": 69,
      "hit": false,
      "t": 114809.78550000004,
      "d": 89.28396875000908,
      "v": 53
    },
    {
      "midi": 74,
      "hit": false,
      "t": 114809.78550000004,
      "d": 89.28396875000908,
      "v": 82
    },
    {
      "midi": 69,
      "hit": false,
      "t": 115035.34500000004,
      "d": 72.83692187500128,
      "v": 102
    },
    {
      "midi": 74,
      "hit": false,
      "t": 115035.34500000004,
      "d": 72.83692187500128,
      "v": 105
    },
    {
      "midi": 78,
      "hit": false,
      "t": 115035.34500000004,
      "d": 86.93439062499965,
      "v": 102
    },
    {
      "midi": 74,
      "hit": false,
      "t": 115260.90450000005,
      "d": 68.13776562499697,
      "v": 105
    },
    {
      "midi": 69,
      "hit": false,
      "t": 115260.90450000005,
      "d": 75.18649999999616,
      "v": 105
    },
    {
      "midi": 78,
      "hit": false,
      "t": 115260.90450000005,
      "d": 79.88565625000047,
      "v": 107
    },
    {
      "midi": 67,
      "hit": false,
      "t": 115937.58300000004,
      "d": 79.88565625000047,
      "v": 105
    },
    {
      "midi": 71,
      "hit": false,
      "t": 115937.58300000004,
      "d": 86.93439062499965,
      "v": 107
    },
    {
      "midi": 74,
      "hit": false,
      "t": 115937.58300000004,
      "d": 93.98312499999884,
      "v": 110
    },
    {
      "midi": 71,
      "hit": false,
      "t": 116839.82100000004,
      "d": 68.13776562499697,
      "v": 102
    },
    {
      "midi": 68,
      "hit": false,
      "t": 116839.82100000004,
      "d": 98.68228125000314,
      "v": 100
    },
    {
      "midi": 76,
      "hit": false,
      "t": 116839.82100000004,
      "d": 124.527640625005,
      "v": 100
    },
    {
      "midi": 69,
      "hit": false,
      "t": 117742.05900000005,
      "d": 77.53607812500559,
      "v": 102
    },
    {
      "midi": 64,
      "hit": false,
      "t": 117742.05900000005,
      "d": 86.93439062499965,
      "v": 98
    },
    {
      "midi": 72,
      "hit": false,
      "t": 117742.05900000005,
      "d": 86.93439062499965,
      "v": 105
    },
    {
      "midi": 57,
      "hit": false,
      "t": 117742.05900000005,
      "d": 96.33270312499371,
      "v": 105
    },
    {
      "midi": 76,
      "hit": false,
      "t": 117742.05900000005,
      "d": 108.0805937499972,
      "v": 102
    },
    {
      "midi": 78,
      "hit": false,
      "t": 118418.73750000005,
      "d": 77.53607812500559,
      "v": 63
    },
    {
      "midi": 69,
      "hit": false,
      "t": 118418.73750000005,
      "d": 89.28396875000908,
      "v": 53
    },
    {
      "midi": 74,
      "hit": false,
      "t": 118418.73750000005,
      "d": 89.28396875000908,
      "v": 82
    },
    {
      "midi": 69,
      "hit": false,
      "t": 118644.29700000005,
      "d": 72.83692187500128,
      "v": 102
    },
    {
      "midi": 74,
      "hit": false,
      "t": 118644.29700000005,
      "d": 72.83692187500128,
      "v": 105
    },
    {
      "midi": 78,
      "hit": false,
      "t": 118644.29700000005,
      "d": 86.93439062499965,
      "v": 102
    },
    {
      "midi": 74,
      "hit": false,
      "t": 118869.85650000005,
      "d": 68.13776562499697,
      "v": 105
    },
    {
      "midi": 69,
      "hit": false,
      "t": 118869.85650000005,
      "d": 75.18649999999616,
      "v": 105
    },
    {
      "midi": 78,
      "hit": false,
      "t": 118869.85650000005,
      "d": 79.88565625000047,
      "v": 107
    },
    {
      "midi": 67,
      "hit": false,
      "t": 119546.53500000005,
      "d": 79.88565625000047,
      "v": 105
    },
    {
      "midi": 71,
      "hit": false,
      "t": 119546.53500000005,
      "d": 86.93439062499965,
      "v": 107
    },
    {
      "midi": 74,
      "hit": false,
      "t": 119546.53500000005,
      "d": 93.98312499999884,
      "v": 110
    },
    {
      "midi": 71,
      "hit": false,
      "t": 120448.77300000004,
      "d": 68.13776562499697,
      "v": 102
    },
    {
      "midi": 68,
      "hit": false,
      "t": 120448.77300000004,
      "d": 98.68228125000314,
      "v": 100
    },
    {
      "midi": 76,
      "hit": false,
      "t": 120448.77300000004,
      "d": 124.527640625005,
      "v": 100
    },
    {
      "midi": 69,
      "hit": false,
      "t": 121351.01100000006,
      "d": 77.53607812500559,
      "v": 102
    },
    {
      "midi": 64,
      "hit": false,
      "t": 121351.01100000006,
      "d": 86.93439062499965,
      "v": 98
    },
    {
      "midi": 72,
      "hit": false,
      "t": 121351.01100000006,
      "d": 86.93439062499965,
      "v": 105
    },
    {
      "midi": 57,
      "hit": false,
      "t": 121351.01100000006,
      "d": 96.33270312499371,
      "v": 105
    },
    {
      "midi": 76,
      "hit": false,
      "t": 121351.01100000006,
      "d": 108.0805937499972,
      "v": 102
    },
    {
      "midi": 78,
      "hit": false,
      "t": 122027.68950000005,
      "d": 77.53607812500559,
      "v": 63
    },
    {
      "midi": 69,
      "hit": false,
      "t": 122027.68950000005,
      "d": 89.28396875000908,
      "v": 53
    },
    {
      "midi": 74,
      "hit": false,
      "t": 122027.68950000005,
      "d": 89.28396875000908,
      "v": 82
    },
    {
      "midi": 69,
      "hit": false,
      "t": 122253.24900000005,
      "d": 72.83692187500128,
      "v": 102
    },
    {
      "midi": 74,
      "hit": false,
      "t": 122253.24900000005,
      "d": 72.83692187500128,
      "v": 105
    },
    {
      "midi": 78,
      "hit": false,
      "t": 122253.24900000005,
      "d": 86.93439062499965,
      "v": 102
    },
    {
      "midi": 74,
      "hit": false,
      "t": 122478.80850000006,
      "d": 68.13776562499697,
      "v": 105
    },
    {
      "midi": 69,
      "hit": false,
      "t": 122478.80850000006,
      "d": 75.18649999999616,
      "v": 105
    },
    {
      "midi": 78,
      "hit": false,
      "t": 122478.80850000006,
      "d": 79.88565625000047,
      "v": 107
    },
    {
      "midi": 62,
      "hit": false,
      "t": 122704.36800000006,
      "d": 263.15274999999383,
      "v": 102
    },
    {
      "midi": 71,
      "hit": false,
      "t": 122704.36800000006,
      "d": 293.697265625,
      "v": 105
    },
    {
      "midi": 74,
      "hit": false,
      "t": 122704.36800000006,
      "d": 293.697265625,
      "v": 107
    },
    {
      "midi": 67,
      "hit": false,
      "t": 122704.36800000006,
      "d": 312.4938906250027,
      "v": 102
    },
    {
      "midi": 55,
      "hit": false,
      "t": 122704.36800000006,
      "d": 321.89220312499674,
      "v": 98
    },
    {
      "midi": 57,
      "hit": false,
      "t": 123606.60600000006,
      "d": 145.67384375000256,
      "v": 91
    },
    {
      "midi": 66,
      "hit": false,
      "t": 123606.60600000006,
      "d": 230.25865625000733,
      "v": 102
    },
    {
      "midi": 50,
      "hit": false,
      "t": 123606.60600000006,
      "d": 239.6569687500014,
      "v": 102
    },
    {
      "midi": 69,
      "hit": false,
      "t": 123606.60600000006,
      "d": 239.6569687500014,
      "v": 113
    },
    {
      "midi": 62,
      "hit": false,
      "t": 123606.60600000006,
      "d": 244.3561250000057,
      "v": 100
    },
    {
      "midi": 55,
      "hit": false,
      "t": 124508.84400000007,
      "d": 234.9578124999971,
      "v": 102
    },
    {
      "midi": 48,
      "hit": false,
      "t": 124508.84400000007,
      "d": 242.00654687499627,
      "v": 105
    },
    {
      "midi": 60,
      "hit": false,
      "t": 124508.84400000007,
      "d": 249.05528124999546,
      "v": 98
    },
    {
      "midi": 64,
      "hit": false,
      "t": 124508.84400000007,
      "d": 253.75443749999977,
      "v": 105
    },
    {
      "midi": 67,
      "hit": false,
      "t": 124508.84400000007,
      "d": 260.80317187499895,
      "v": 105
    },
    {
      "midi": 66,
      "hit": false,
      "t": 125411.08200000007,
      "d": 502.8097187499952,
      "v": 102
    },
    {
      "midi": 57,
      "hit": false,
      "t": 125411.08200000007,
      "d": 509.8584531249944,
      "v": 98
    },
    {
      "midi": 62,
      "hit": false,
      "t": 125411.08200000007,
      "d": 509.8584531249944,
      "v": 102
    },
    {
      "midi": 50,
      "hit": false,
      "t": 125411.08200000007,
      "d": 521.6063437499979,
      "v": 107
    },
    {
      "midi": 69,
      "hit": false,
      "t": 125411.08200000007,
      "d": 535.7038124999963,
      "v": 107
    },
    {
      "midi": 62,
      "hit": false,
      "t": 126313.32000000007,
      "d": 263.15274999999383,
      "v": 102
    },
    {
      "midi": 71,
      "hit": false,
      "t": 126313.32000000007,
      "d": 293.697265625,
      "v": 105
    },
    {
      "midi": 74,
      "hit": false,
      "t": 126313.32000000007,
      "d": 293.697265625,
      "v": 107
    },
    {
      "midi": 67,
      "hit": false,
      "t": 126313.32000000007,
      "d": 312.4938906250027,
      "v": 102
    },
    {
      "midi": 55,
      "hit": false,
      "t": 126313.32000000007,
      "d": 321.89220312499674,
      "v": 98
    },
    {
      "midi": 57,
      "hit": false,
      "t": 127215.55800000006,
      "d": 145.67384375000256,
      "v": 91
    },
    {
      "midi": 66,
      "hit": false,
      "t": 127215.55800000006,
      "d": 230.25865625000733,
      "v": 102
    },
    {
      "midi": 50,
      "hit": false,
      "t": 127215.55800000006,
      "d": 239.6569687500014,
      "v": 102
    },
    {
      "midi": 69,
      "hit": false,
      "t": 127215.55800000006,
      "d": 239.6569687500014,
      "v": 113
    },
    {
      "midi": 62,
      "hit": false,
      "t": 127215.55800000006,
      "d": 244.3561250000057,
      "v": 100
    },
    {
      "midi": 55,
      "hit": false,
      "t": 128117.79600000007,
      "d": 234.9578124999971,
      "v": 102
    },
    {
      "midi": 48,
      "hit": false,
      "t": 128117.79600000007,
      "d": 242.00654687499627,
      "v": 105
    },
    {
      "midi": 60,
      "hit": false,
      "t": 128117.79600000007,
      "d": 249.05528124999546,
      "v": 98
    },
    {
      "midi": 64,
      "hit": false,
      "t": 128117.79600000007,
      "d": 253.75443749999977,
      "v": 105
    },
    {
      "midi": 67,
      "hit": false,
      "t": 128117.79600000007,
      "d": 260.80317187499895,
      "v": 105
    },
    {
      "midi": 66,
      "hit": false,
      "t": 129020.03400000007,
      "d": 502.8097187499952,
      "v": 102
    },
    {
      "midi": 57,
      "hit": false,
      "t": 129020.03400000007,
      "d": 509.8584531249944,
      "v": 98
    },
    {
      "midi": 62,
      "hit": false,
      "t": 129020.03400000007,
      "d": 509.8584531249944,
      "v": 102
    },
    {
      "midi": 50,
      "hit": false,
      "t": 129020.03400000007,
      "d": 521.6063437499979,
      "v": 107
    },
    {
      "midi": 69,
      "hit": false,
      "t": 129020.03400000007,
      "d": 535.7038124999963,
      "v": 107
    },
    {
      "midi": 62,
      "hit": false,
      "t": 129922.27200000007,
      "d": 263.15274999999383,
      "v": 102
    },
    {
      "midi": 71,
      "hit": false,
      "t": 129922.27200000007,
      "d": 293.697265625,
      "v": 105
    },
    {
      "midi": 74,
      "hit": false,
      "t": 129922.27200000007,
      "d": 293.697265625,
      "v": 107
    },
    {
      "midi": 67,
      "hit": false,
      "t": 129922.27200000007,
      "d": 312.4938906250027,
      "v": 102
    },
    {
      "midi": 55,
      "hit": false,
      "t": 129922.27200000007,
      "d": 321.89220312499674,
      "v": 98
    },
    {
      "midi": 57,
      "hit": false,
      "t": 130824.51000000007,
      "d": 145.67384375000256,
      "v": 91
    },
    {
      "midi": 66,
      "hit": false,
      "t": 130824.51000000007,
      "d": 230.25865625000733,
      "v": 102
    },
    {
      "midi": 50,
      "hit": false,
      "t": 130824.51000000007,
      "d": 239.6569687500014,
      "v": 102
    },
    {
      "midi": 69,
      "hit": false,
      "t": 130824.51000000007,
      "d": 239.6569687500014,
      "v": 113
    },
    {
      "midi": 62,
      "hit": false,
      "t": 130824.51000000007,
      "d": 244.3561250000057,
      "v": 100
    },
    {
      "midi": 55,
      "hit": false,
      "t": 131726.74800000008,
      "d": 234.95781250001164,
      "v": 102
    },
    {
      "midi": 48,
      "hit": false,
      "t": 131726.74800000008,
      "d": 242.00654687502538,
      "v": 105
    },
    {
      "midi": 60,
      "hit": false,
      "t": 131726.74800000008,
      "d": 249.05528125003912,
      "v": 98
    },
    {
      "midi": 64,
      "hit": false,
      "t": 131726.74800000008,
      "d": 253.75443750002887,
      "v": 105
    },
    {
      "midi": 67,
      "hit": false,
      "t": 131726.74800000008,
      "d": 260.8031718750426,
      "v": 105
    },
    {
      "midi": 66,
      "hit": false,
      "t": 132628.98600000012,
      "d": 502.8097187500098,
      "v": 102
    },
    {
      "midi": 57,
      "hit": false,
      "t": 132628.98600000012,
      "d": 509.8584531250235,
      "v": 98
    },
    {
      "midi": 62,
      "hit": false,
      "t": 132628.98600000012,
      "d": 509.8584531250235,
      "v": 102
    },
    {
      "midi": 50,
      "hit": false,
      "t": 132628.98600000012,
      "d": 521.606343750027,
      "v": 107
    },
    {
      "midi": 69,
      "hit": false,
      "t": 132628.98600000012,
      "d": 535.7038125000254,
      "v": 107
    },
    {
      "midi": 62,
      "hit": false,
      "t": 133531.22400000013,
      "d": 263.1527500000084,
      "v": 102
    },
    {
      "midi": 71,
      "hit": false,
      "t": 133531.22400000013,
      "d": 293.697265625,
      "v": 105
    },
    {
      "midi": 74,
      "hit": false,
      "t": 133531.22400000013,
      "d": 293.697265625,
      "v": 107
    },
    {
      "midi": 67,
      "hit": false,
      "t": 133531.22400000013,
      "d": 312.4938906249881,
      "v": 102
    },
    {
      "midi": 55,
      "hit": false,
      "t": 133531.22400000013,
      "d": 321.89220312499674,
      "v": 98
    },
    {
      "midi": 57,
      "hit": false,
      "t": 134433.46200000012,
      "d": 145.67384375000256,
      "v": 91
    },
    {
      "midi": 66,
      "hit": false,
      "t": 134433.46200000012,
      "d": 230.25865624999278,
      "v": 102
    },
    {
      "midi": 50,
      "hit": false,
      "t": 134433.46200000012,
      "d": 239.6569687500014,
      "v": 102
    },
    {
      "midi": 69,
      "hit": false,
      "t": 134433.46200000012,
      "d": 239.6569687500014,
      "v": 113
    },
    {
      "midi": 62,
      "hit": false,
      "t": 134433.46200000012,
      "d": 244.35612499999115,
      "v": 100
    },
    {
      "midi": 55,
      "hit": false,
      "t": 135335.7000000001,
      "d": 234.95781250001164,
      "v": 102
    },
    {
      "midi": 48,
      "hit": false,
      "t": 135335.7000000001,
      "d": 242.00654687502538,
      "v": 105
    },
    {
      "midi": 60,
      "hit": false,
      "t": 135335.7000000001,
      "d": 249.05528125003912,
      "v": 98
    },
    {
      "midi": 64,
      "hit": false,
      "t": 135335.7000000001,
      "d": 253.75443750002887,
      "v": 105
    },
    {
      "midi": 67,
      "hit": false,
      "t": 135335.7000000001,
      "d": 260.8031718750426,
      "v": 105
    },
    {
      "midi": 66,
      "hit": false,
      "t": 136237.93800000014,
      "d": 502.8097187500098,
      "v": 102
    },
    {
      "midi": 57,
      "hit": false,
      "t": 136237.93800000014,
      "d": 509.8584531250235,
      "v": 98
    },
    {
      "midi": 62,
      "hit": false,
      "t": 136237.93800000014,
      "d": 509.8584531250235,
      "v": 102
    },
    {
      "midi": 50,
      "hit": false,
      "t": 136237.93800000014,
      "d": 521.606343750027,
      "v": 107
    },
    {
      "midi": 69,
      "hit": false,
      "t": 136237.93800000014,
      "d": 535.7038125000254,
      "v": 107
    },
    {
      "midi": 43,
      "hit": false,
      "t": 137140.17600000015,
      "d": 152.7225781249872,
      "v": 102
    },
    {
      "midi": 50,
      "hit": false,
      "t": 137140.17600000015,
      "d": 152.7225781249872,
      "v": 105
    },
    {
      "midi": 55,
      "hit": false,
      "t": 137140.17600000015,
      "d": 164.4704687499907,
      "v": 102
    },
    {
      "midi": 71,
      "hit": false,
      "t": 137140.17600000015,
      "d": 171.51920312500442,
      "v": 110
    },
    {
      "midi": 74,
      "hit": false,
      "t": 137140.17600000015,
      "d": 178.56793750001816,
      "v": 110
    },
    {
      "midi": 79,
      "hit": false,
      "t": 137140.17600000015,
      "d": 197.3645625000063,
      "v": 107
    }
  ]
}