{
  "jsonPath": "Pop/Karaoke/Hot Fox Karaoke/you-rock-my-world-in-the-style-of-michael-jackson.json",
  "path": "Pop\\Karaoke\\Hot Fox Karaoke\\You Rock My World (In The Style Of Michael Jackson).mid",
  "name": "You Rock My World (In The Style Of Michael Jackson)",
  "difficulty": "Advanced",
  "bpm": 95.00134585239958,
  "notes": [
    {
      "midi": 52,
      "hit": false,
      "t": 10105.119999999999,
      "d": 78.94625000000087,
      "v": 95
    },
    {
      "midi": 59,
      "hit": false,
      "t": 10105.119999999999,
      "d": 78.94625000000087,
      "v": 101
    },
    {
      "midi": 55,
      "hit": false,
      "t": 10110.054140625,
      "d": 78.94625000000087,
      "v": 96
    },
    {
      "midi": 64,
      "hit": false,
      "t": 10110.054140625,
      "d": 93.74867187500058,
      "v": 98
    },
    {
      "midi": 52,
      "hit": false,
      "t": 10636.362473958334,
      "d": 88.81453125000007,
      "v": 98
    },
    {
      "midi": 55,
      "hit": false,
      "t": 10636.362473958334,
      "d": 88.81453125000007,
      "v": 100
    },
    {
      "midi": 64,
      "hit": false,
      "t": 10636.362473958334,
      "d": 92.10395833333314,
      "v": 97
    },
    {
      "midi": 59,
      "hit": false,
      "t": 10636.362473958334,
      "d": 97.03809895833365,
      "v": 97
    },
    {
      "midi": 62,
      "hit": false,
      "t": 10741.624140625001,
      "d": 263.15416666666715,
      "v": 109
    },
    {
      "midi": 59,
      "hit": false,
      "t": 10741.624140625001,
      "d": 266.4435937500002,
      "v": 100
    },
    {
      "midi": 67,
      "hit": false,
      "t": 10741.624140625001,
      "d": 266.4435937500002,
      "v": 105
    },
    {
      "midi": 48,
      "hit": false,
      "t": 10741.624140625001,
      "d": 289.4695833333335,
      "v": 104
    },
    {
      "midi": 66,
      "hit": false,
      "t": 11052.475,
      "d": 254.93059895833358,
      "v": 106
    },
    {
      "midi": 47,
      "hit": false,
      "t": 11057.409140625,
      "d": 245.06231770833256,
      "v": 103
    },
    {
      "midi": 59,
      "hit": false,
      "t": 11057.409140625,
      "d": 246.70703125,
      "v": 106
    },
    {
      "midi": 62,
      "hit": false,
      "t": 11057.409140625,
      "d": 256.5753124999992,
      "v": 101
    },
    {
      "midi": 64,
      "hit": false,
      "t": 11373.194140625,
      "d": 88.81453125000007,
      "v": 104
    },
    {
      "midi": 57,
      "hit": false,
      "t": 11373.194140625,
      "d": 98.68281249999927,
      "v": 99
    },
    {
      "midi": 60,
      "hit": false,
      "t": 11373.194140625,
      "d": 98.68281249999927,
      "v": 102
    },
    {
      "midi": 55,
      "hit": false,
      "t": 11373.194140625,
      "d": 105.2616666666654,
      "v": 99
    },
    {
      "midi": 45,
      "hit": false,
      "t": 11373.194140625,
      "d": 128.2876562500005,
      "v": 104
    },
    {
      "midi": 57,
      "hit": false,
      "t": 11373.194140625,
      "d": 128.2876562500005,
      "v": 108
    },
    {
      "midi": 60,
      "hit": false,
      "t": 11373.194140625,
      "d": 128.2876562500005,
      "v": 106
    },
    {
      "midi": 64,
      "hit": false,
      "t": 11373.194140625,
      "d": 141.4453645833346,
      "v": 104
    },
    {
      "midi": 60,
      "hit": false,
      "t": 11889.634192708332,
      "d": 77.30153645833343,
      "v": 101
    },
    {
      "midi": 55,
      "hit": false,
      "t": 11889.634192708332,
      "d": 80.5909635416665,
      "v": 101
    },
    {
      "midi": 57,
      "hit": false,
      "t": 11889.634192708332,
      "d": 98.68281249999927,
      "v": 100
    },
    {
      "midi": 64,
      "hit": false,
      "t": 11896.213046874998,
      "d": 106.90638020833285,
      "v": 97
    },
    {
      "midi": 60,
      "hit": false,
      "t": 12521.204192708336,
      "d": 111.84052083333336,
      "v": 100
    },
    {
      "midi": 57,
      "hit": false,
      "t": 12521.204192708336,
      "d": 133.22179687500102,
      "v": 108
    },
    {
      "midi": 64,
      "hit": false,
      "t": 12521.204192708336,
      "d": 143.09007812500022,
      "v": 101
    },
    {
      "midi": 45,
      "hit": false,
      "t": 12522.848906250003,
      "d": 111.84052083333336,
      "v": 102
    },
    {
      "midi": 64,
      "hit": false,
      "t": 12636.334140624998,
      "d": 154.60307291666686,
      "v": 104
    },
    {
      "midi": 60,
      "hit": false,
      "t": 12636.334140624998,
      "d": 162.82664062500044,
      "v": 104
    },
    {
      "midi": 57,
      "hit": false,
      "t": 12636.334140624998,
      "d": 195.72091145833292,
      "v": 96
    },
    {
      "midi": 60,
      "hit": false,
      "t": 13162.64247395833,
      "d": 111.84052083333336,
      "v": 103
    },
    {
      "midi": 64,
      "hit": false,
      "t": 13162.64247395833,
      "d": 134.86651041666664,
      "v": 96
    },
    {
      "midi": 57,
      "hit": false,
      "t": 13162.64247395833,
      "d": 138.1559374999997,
      "v": 97
    },
    {
      "midi": 57,
      "hit": false,
      "t": 13267.904140625002,
      "d": 256.5753124999992,
      "v": 102
    },
    {
      "midi": 64,
      "hit": false,
      "t": 13267.904140625002,
      "d": 256.5753124999992,
      "v": 105
    },
    {
      "midi": 45,
      "hit": false,
      "t": 13267.904140625002,
      "d": 276.3118749999994,
      "v": 109
    },
    {
      "midi": 60,
      "hit": false,
      "t": 13267.904140625002,
      "d": 276.3118749999994,
      "v": 106
    },
    {
      "midi": 62,
      "hit": false,
      "t": 13480.072187499998,
      "d": 384.8629687500015,
      "v": 95
    },
    {
      "midi": 57,
      "hit": false,
      "t": 13480.072187499998,
      "d": 406.2442447916692,
      "v": 97
    },
    {
      "midi": 66,
      "hit": false,
      "t": 13481.716901041666,
      "d": 384.8629687500015,
      "v": 96
    },
    {
      "midi": 66,
      "hit": false,
      "t": 13583.689140625002,
      "d": 246.70703125,
      "v": 101
    },
    {
      "midi": 47,
      "hit": false,
      "t": 13583.689140625002,
      "d": 266.4435937500002,
      "v": 106
    },
    {
      "midi": 62,
      "hit": false,
      "t": 13583.689140625002,
      "d": 266.4435937500002,
      "v": 101
    },
    {
      "midi": 59,
      "hit": false,
      "t": 13583.689140625002,
      "d": 276.3118749999994,
      "v": 100
    },
    {
      "midi": 62,
      "hit": false,
      "t": 13892.895286458333,
      "d": 149.66893229166635,
      "v": 100
    },
    {
      "midi": 52,
      "hit": false,
      "t": 13894.54,
      "d": 78.94625000000087,
      "v": 99
    },
    {
      "midi": 59,
      "hit": false,
      "t": 13894.54,
      "d": 78.94625000000087,
      "v": 98
    },
    {
      "midi": 40,
      "hit": false,
      "t": 13899.474140625,
      "d": 167.76078125000095,
      "v": 104
    },
    {
      "midi": 59,
      "hit": false,
      "t": 13899.474140625,
      "d": 174.33963541666708,
      "v": 106
    },
    {
      "midi": 67,
      "hit": false,
      "t": 13899.474140625,
      "d": 177.62906250000015,
      "v": 104
    },
    {
      "midi": 55,
      "hit": false,
      "t": 13899.474140625001,
      "d": 78.94625000000087,
      "v": 98
    },
    {
      "midi": 64,
      "hit": false,
      "t": 13899.474140625001,
      "d": 93.74867187500058,
      "v": 104
    },
    {
      "midi": 52,
      "hit": false,
      "t": 14425.782473958336,
      "d": 88.81453125000007,
      "v": 102
    },
    {
      "midi": 55,
      "hit": false,
      "t": 14425.782473958336,
      "d": 88.81453125000007,
      "v": 96
    },
    {
      "midi": 64,
      "hit": false,
      "t": 14425.782473958336,
      "d": 92.10395833333314,
      "v": 101
    },
    {
      "midi": 59,
      "hit": false,
      "t": 14425.782473958336,
      "d": 97.03809895833365,
      "v": 97
    },
    {
      "midi": 59,
      "hit": false,
      "t": 15049.12890625,
      "d": 111.84052083333336,
      "v": 105
    },
    {
      "midi": 67,
      "hit": false,
      "t": 15049.12890625,
      "d": 128.2876562500005,
      "v": 100
    },
    {
      "midi": 62,
      "hit": false,
      "t": 15049.12890625,
      "d": 136.51122395833409,
      "v": 101
    },
    {
      "midi": 40,
      "hit": false,
      "t": 15049.12890625,
      "d": 141.4453645833346,
      "v": 104
    },
    {
      "midi": 52,
      "hit": false,
      "t": 15157.680000000002,
      "d": 78.94625000000087,
      "v": 99
    },
    {
      "midi": 59,
      "hit": false,
      "t": 15157.680000000002,
      "d": 78.94625000000087,
      "v": 95
    },
    {
      "midi": 55,
      "hit": false,
      "t": 15162.614140625003,
      "d": 78.94625000000087,
      "v": 97
    },
    {
      "midi": 64,
      "hit": false,
      "t": 15162.614140625003,
      "d": 93.74867187500058,
      "v": 101
    },
    {
      "midi": 52,
      "hit": false,
      "t": 15688.922473958337,
      "d": 88.81453125000007,
      "v": 96
    },
    {
      "midi": 55,
      "hit": false,
      "t": 15688.922473958337,
      "d": 88.81453125000007,
      "v": 100
    },
    {
      "midi": 64,
      "hit": false,
      "t": 15688.922473958337,
      "d": 92.10395833333314,
      "v": 95
    },
    {
      "midi": 59,
      "hit": false,
      "t": 15688.922473958337,
      "d": 97.03809895833365,
      "v": 97
    },
    {
      "midi": 62,
      "hit": false,
      "t": 15794.184140625,
      "d": 263.15416666666715,
      "v": 102
    },
    {
      "midi": 59,
      "hit": false,
      "t": 15794.184140625,
      "d": 266.4435937500002,
      "v": 107
    },
    {
      "midi": 67,
      "hit": false,
      "t": 15794.184140625,
      "d": 266.4435937500002,
      "v": 108
    },
    {
      "midi": 48,
      "hit": false,
      "t": 15794.184140625,
      "d": 289.4695833333335,
      "v": 108
    },
    {
      "midi": 66,
      "hit": false,
      "t": 16105.035,
      "d": 254.93059895833358,
      "v": 109
    },
    {
      "midi": 47,
      "hit": false,
      "t": 16109.969140625,
      "d": 245.06231770833256,
      "v": 103
    },
    {
      "midi": 59,
      "hit": false,
      "t": 16109.969140625,
      "d": 246.70703125,
      "v": 102
    },
    {
      "midi": 62,
      "hit": false,
      "t": 16109.969140625,
      "d": 256.5753124999992,
      "v": 107
    },
    {
      "midi": 45,
      "hit": false,
      "t": 16425.754140625,
      "d": 128.2876562499987,
      "v": 107
    },
    {
      "midi": 57,
      "hit": false,
      "t": 16425.754140625,
      "d": 128.2876562499987,
      "v": 100
    },
    {
      "midi": 60,
      "hit": false,
      "t": 16425.754140625,
      "d": 128.2876562499987,
      "v": 106
    },
    {
      "midi": 64,
      "hit": false,
      "t": 16425.754140625,
      "d": 141.44536458333096,
      "v": 103
    },
    {
      "midi": 64,
      "hit": false,
      "t": 16425.754140625002,
      "d": 88.81453124999825,
      "v": 103
    },
    {
      "midi": 57,
      "hit": false,
      "t": 16425.754140625002,
      "d": 98.68281249999927,
      "v": 101
    },
    {
      "midi": 60,
      "hit": false,
      "t": 16425.754140625002,
      "d": 98.68281249999927,
      "v": 100
    },
    {
      "midi": 55,
      "hit": false,
      "t": 16425.754140625002,
      "d": 105.2616666666654,
      "v": 103
    },
    {
      "midi": 60,
      "hit": false,
      "t": 16942.194192708335,
      "d": 77.30153645833343,
      "v": 99
    },
    {
      "midi": 55,
      "hit": false,
      "t": 16942.194192708335,
      "d": 80.59096354166832,
      "v": 102
    },
    {
      "midi": 57,
      "hit": false,
      "t": 16942.194192708335,
      "d": 98.68281250000291,
      "v": 101
    },
    {
      "midi": 64,
      "hit": false,
      "t": 16948.773046875,
      "d": 106.90638020833649,
      "v": 95
    },
    {
      "midi": 60,
      "hit": false,
      "t": 17573.764192708328,
      "d": 111.84052083333518,
      "v": 105
    },
    {
      "midi": 57,
      "hit": false,
      "t": 17573.764192708328,
      "d": 133.22179687500102,
      "v": 103
    },
    {
      "midi": 64,
      "hit": false,
      "t": 17573.764192708328,
      "d": 143.09007812500204,
      "v": 109
    },
    {
      "midi": 45,
      "hit": false,
      "t": 17575.408906249995,
      "d": 111.84052083333518,
      "v": 106
    },
    {
      "midi": 64,
      "hit": false,
      "t": 17688.894140625005,
      "d": 154.60307291666686,
      "v": 101
    },
    {
      "midi": 60,
      "hit": false,
      "t": 17688.894140625005,
      "d": 162.82664062500044,
      "v": 97
    },
    {
      "midi": 57,
      "hit": false,
      "t": 17688.894140625005,
      "d": 195.72091145833474,
      "v": 104
    },
    {
      "midi": 60,
      "hit": false,
      "t": 18215.20247395834,
      "d": 111.84052083333154,
      "v": 100
    },
    {
      "midi": 64,
      "hit": false,
      "t": 18215.20247395834,
      "d": 134.86651041666482,
      "v": 95
    },
    {
      "midi": 57,
      "hit": false,
      "t": 18215.20247395834,
      "d": 138.1559374999997,
      "v": 101
    },
    {
      "midi": 57,
      "hit": false,
      "t": 18320.464140624998,
      "d": 256.575312500001,
      "v": 102
    },
    {
      "midi": 64,
      "hit": false,
      "t": 18320.464140624998,
      "d": 256.575312500001,
      "v": 107
    },
    {
      "midi": 45,
      "hit": false,
      "t": 18320.464140624998,
      "d": 276.3118749999994,
      "v": 105
    },
    {
      "midi": 60,
      "hit": false,
      "t": 18320.464140624998,
      "d": 276.3118749999994,
      "v": 108
    },
    {
      "midi": 62,
      "hit": false,
      "t": 18532.632187500007,
      "d": 384.8629687499997,
      "v": 97
    },
    {
      "midi": 57,
      "hit": false,
      "t": 18532.632187500007,
      "d": 406.24424479166555,
      "v": 97
    },
    {
      "midi": 66,
      "hit": false,
      "t": 18534.276901041674,
      "d": 384.8629687499997,
      "v": 95
    },
    {
      "midi": 66,
      "hit": false,
      "t": 18636.249140624997,
      "d": 246.70703125,
      "v": 105
    },
    {
      "midi": 47,
      "hit": false,
      "t": 18636.249140624997,
      "d": 266.4435937499984,
      "v": 103
    },
    {
      "midi": 62,
      "hit": false,
      "t": 18636.249140624997,
      "d": 266.4435937499984,
      "v": 100
    },
    {
      "midi": 59,
      "hit": false,
      "t": 18636.249140624997,
      "d": 276.3118749999994,
      "v": 108
    },
    {
      "midi": 62,
      "hit": false,
      "t": 18945.45528645833,
      "d": 149.66893229166453,
      "v": 101
    },
    {
      "midi": 52,
      "hit": false,
      "t": 18947.100000000006,
      "d": 78.94624999999724,
      "v": 95
    },
    {
      "midi": 59,
      "hit": false,
      "t": 18947.100000000006,
      "d": 78.94624999999724,
      "v": 99
    },
    {
      "midi": 40,
      "hit": false,
      "t": 18952.034140624997,
      "d": 167.76078124999913,
      "v": 108
    },
    {
      "midi": 59,
      "hit": false,
      "t": 18952.034140624997,
      "d": 174.33963541666526,
      "v": 100
    },
    {
      "midi": 67,
      "hit": false,
      "t": 18952.034140624997,
      "d": 177.62906250000015,
      "v": 102
    },
    {
      "midi": 55,
      "hit": false,
      "t": 18952.034140625005,
      "d": 78.94624999999724,
      "v": 98
    },
    {
      "midi": 64,
      "hit": false,
      "t": 18952.034140625005,
      "d": 93.74867187499694,
      "v": 101
    },
    {
      "midi": 52,
      "hit": false,
      "t": 19478.342473958335,
      "d": 88.81453124999825,
      "v": 102
    },
    {
      "midi": 55,
      "hit": false,
      "t": 19478.342473958335,
      "d": 88.81453124999825,
      "v": 95
    },
    {
      "midi": 64,
      "hit": false,
      "t": 19478.342473958335,
      "d": 92.10395833333314,
      "v": 102
    },
    {
      "midi": 59,
      "hit": false,
      "t": 19478.342473958335,
      "d": 97.03809895833183,
      "v": 98
    },
    {
      "midi": 59,
      "hit": false,
      "t": 20101.688906249998,
      "d": 111.84052083333154,
      "v": 104
    },
    {
      "midi": 67,
      "hit": false,
      "t": 20101.688906249998,
      "d": 128.2876562499987,
      "v": 102
    },
    {
      "midi": 62,
      "hit": false,
      "t": 20101.688906249998,
      "d": 136.51122395833227,
      "v": 104
    },
    {
      "midi": 40,
      "hit": false,
      "t": 20101.688906249998,
      "d": 141.44536458333096,
      "v": 105
    },
    {
      "midi": 52,
      "hit": false,
      "t": 20210.24,
      "d": 78.94624999999724,
      "v": 104
    },
    {
      "midi": 59,
      "hit": false,
      "t": 20210.24,
      "d": 78.94624999999724,
      "v": 103
    },
    {
      "midi": 55,
      "hit": false,
      "t": 20215.174140625,
      "d": 78.94624999999724,
      "v": 99
    },
    {
      "midi": 64,
      "hit": false,
      "t": 20215.174140625,
      "d": 93.74867187499694,
      "v": 102
    },
    {
      "midi": 52,
      "hit": false,
      "t": 20741.48247395833,
      "d": 88.81453124999825,
      "v": 100
    },
    {
      "midi": 55,
      "hit": false,
      "t": 20741.48247395833,
      "d": 88.81453124999825,
      "v": 101
    },
    {
      "midi": 64,
      "hit": false,
      "t": 20741.48247395833,
      "d": 92.10395833333314,
      "v": 102
    },
    {
      "midi": 59,
      "hit": false,
      "t": 20741.48247395833,
      "d": 97.03809895833183,
      "v": 103
    },
    {
      "midi": 62,
      "hit": false,
      "t": 20846.744140624996,
      "d": 263.15416666666715,
      "v": 105
    },
    {
      "midi": 59,
      "hit": false,
      "t": 20846.744140624996,
      "d": 266.44359375000204,
      "v": 103
    },
    {
      "midi": 67,
      "hit": false,
      "t": 20846.744140624996,
      "d": 266.44359375000204,
      "v": 106
    },
    {
      "midi": 48,
      "hit": false,
      "t": 20846.744140624996,
      "d": 289.4695833333353,
      "v": 103
    },
    {
      "midi": 66,
      "hit": false,
      "t": 21157.594999999998,
      "d": 254.93059895833358,
      "v": 105
    },
    {
      "midi": 47,
      "hit": false,
      "t": 21162.529140624996,
      "d": 245.06231770833256,
      "v": 106
    },
    {
      "midi": 59,
      "hit": false,
      "t": 21162.529140624996,
      "d": 246.70703125,
      "v": 106
    },
    {
      "midi": 62,
      "hit": false,
      "t": 21162.529140624996,
      "d": 256.575312500001,
      "v": 104
    },
    {
      "midi": 64,
      "hit": false,
      "t": 21478.314140624996,
      "d": 88.81453124999825,
      "v": 97
    },
    {
      "midi": 57,
      "hit": false,
      "t": 21478.314140624996,
      "d": 98.68281249999927,
      "v": 99
    },
    {
      "midi": 60,
      "hit": false,
      "t": 21478.314140624996,
      "d": 98.68281249999927,
      "v": 101
    },
    {
      "midi": 55,
      "hit": false,
      "t": 21478.314140624996,
      "d": 105.2616666666654,
      "v": 101
    },
    {
      "midi": 45,
      "hit": false,
      "t": 21478.314140624996,
      "d": 128.2876562499987,
      "v": 103
    },
    {
      "midi": 57,
      "hit": false,
      "t": 21478.314140624996,
      "d": 128.2876562499987,
      "v": 102
    },
    {
      "midi": 60,
      "hit": false,
      "t": 21478.314140624996,
      "d": 128.2876562499987,
      "v": 107
    },
    {
      "midi": 64,
      "hit": false,
      "t": 21478.314140624996,
      "d": 141.44536458333096,
      "v": 109
    },
    {
      "midi": 60,
      "hit": false,
      "t": 21994.75419270833,
      "d": 77.30153645833343,
      "v": 99
    },
    {
      "midi": 55,
      "hit": false,
      "t": 21994.75419270833,
      "d": 80.59096354166832,
      "v": 100
    },
    {
      "midi": 57,
      "hit": false,
      "t": 21994.75419270833,
      "d": 98.68281250000291,
      "v": 102
    },
    {
      "midi": 64,
      "hit": false,
      "t": 22001.333046874995,
      "d": 106.90638020833649,
      "v": 98
    },
    {
      "midi": 60,
      "hit": false,
      "t": 22626.324192708325,
      "d": 111.84052083333518,
      "v": 108
    },
    {
      "midi": 57,
      "hit": false,
      "t": 22626.324192708325,
      "d": 133.22179687500102,
      "v": 105
    },
    {
      "midi": 64,
      "hit": false,
      "t": 22626.324192708325,
      "d": 143.09007812500204,
      "v": 104
    },
    {
      "midi": 45,
      "hit": false,
      "t": 22627.968906249993,
      "d": 111.84052083333518,
      "v": 104
    },
    {
      "midi": 64,
      "hit": false,
      "t": 22741.454140625,
      "d": 154.60307291666686,
      "v": 102
    },
    {
      "midi": 60,
      "hit": false,
      "t": 22741.454140625,
      "d": 162.82664062500044,
      "v": 102
    },
    {
      "midi": 57,
      "hit": false,
      "t": 22741.454140625,
      "d": 195.72091145833474,
      "v": 104
    },
    {
      "midi": 60,
      "hit": false,
      "t": 23267.762473958333,
      "d": 111.84052083333154,
      "v": 98
    },
    {
      "midi": 64,
      "hit": false,
      "t": 23267.762473958333,
      "d": 134.86651041666482,
      "v": 96
    },
    {
      "midi": 57,
      "hit": false,
      "t": 23267.762473958333,
      "d": 138.1559374999997,
      "v": 99
    },
    {
      "midi": 57,
      "hit": false,
      "t": 23373.024140624995,
      "d": 256.575312500001,
      "v": 101
    },
    {
      "midi": 64,
      "hit": false,
      "t": 23373.024140624995,
      "d": 256.575312500001,
      "v": 103
    },
    {
      "midi": 45,
      "hit": false,
      "t": 23373.024140624995,
      "d": 276.3118749999994,
      "v": 108
    },
    {
      "midi": 60,
      "hit": false,
      "t": 23373.024140624995,
      "d": 276.3118749999994,
      "v": 105
    },
    {
      "midi": 62,
      "hit": false,
      "t": 23585.1921875,
      "d": 384.8629687499997,
      "v": 99
    },
    {
      "midi": 57,
      "hit": false,
      "t": 23585.1921875,
      "d": 406.24424479166555,
      "v": 98
    },
    {
      "midi": 66,
      "hit": false,
      "t": 23586.836901041668,
      "d": 384.8629687499997,
      "v": 97
    },
    {
      "midi": 66,
      "hit": false,
      "t": 23688.809140624995,
      "d": 246.70703125,
      "v": 102
    },
    {
      "midi": 47,
      "hit": false,
      "t": 23688.809140624995,
      "d": 266.4435937499984,
      "v": 109
    },
    {
      "midi": 62,
      "hit": false,
      "t": 23688.809140624995,
      "d": 266.4435937499984,
      "v": 103
    },
    {
      "midi": 59,
      "hit": false,
      "t": 23688.809140624995,
      "d": 276.3118749999994,
      "v": 103
    },
    {
      "midi": 62,
      "hit": false,
      "t": 23998.01528645833,
      "d": 149.66893229166453,
      "v": 109
    },
    {
      "midi": 52,
      "hit": false,
      "t": 23999.66,
      "d": 78.94624999999724,
      "v": 100
    },
    {
      "midi": 59,
      "hit": false,
      "t": 23999.66,
      "d": 78.94624999999724,
      "v": 100
    },
    {
      "midi": 40,
      "hit": false,
      "t": 24004.594140624995,
      "d": 167.76078124999913,
      "v": 109
    },
    {
      "midi": 59,
      "hit": false,
      "t": 24004.594140624995,
      "d": 174.33963541666526,
      "v": 104
    },
    {
      "midi": 67,
      "hit": false,
      "t": 24004.594140624995,
      "d": 177.62906250000015,
      "v": 109
    },
    {
      "midi": 55,
      "hit": false,
      "t": 24004.594140625,
      "d": 78.94624999999724,
      "v": 97
    },
    {
      "midi": 64,
      "hit": false,
      "t": 24004.594140625,
      "d": 93.74867187499694,
      "v": 99
    },
    {
      "midi": 52,
      "hit": false,
      "t": 24530.90247395833,
      "d": 88.81453124999825,
      "v": 95
    },
    {
      "midi": 55,
      "hit": false,
      "t": 24530.90247395833,
      "d": 88.81453124999825,
      "v": 104
    },
    {
      "midi": 64,
      "hit": false,
      "t": 24530.90247395833,
      "d": 92.10395833333314,
      "v": 98
    },
    {
      "midi": 59,
      "hit": false,
      "t": 24530.90247395833,
      "d": 97.03809895833183,
      "v": 95
    },
    {
      "midi": 59,
      "hit": false,
      "t": 25154.248906249995,
      "d": 111.84052083333154,
      "v": 100
    },
    {
      "midi": 67,
      "hit": false,
      "t": 25154.248906249995,
      "d": 128.2876562499987,
      "v": 107
    },
    {
      "midi": 62,
      "hit": false,
      "t": 25154.248906249995,
      "d": 136.51122395833227,
      "v": 105
    },
    {
      "midi": 40,
      "hit": false,
      "t": 25154.248906249995,
      "d": 141.44536458333096,
      "v": 106
    },
    {
      "midi": 52,
      "hit": false,
      "t": 25262.799999999996,
      "d": 78.94624999999724,
      "v": 97
    },
    {
      "midi": 59,
      "hit": false,
      "t": 25262.799999999996,
      "d": 78.94624999999724,
      "v": 101
    },
    {
      "midi": 55,
      "hit": false,
      "t": 25267.734140624994,
      "d": 78.94624999999724,
      "v": 95
    },
    {
      "midi": 64,
      "hit": false,
      "t": 25267.734140624994,
      "d": 93.74867187499694,
      "v": 102
    },
    {
      "midi": 52,
      "hit": false,
      "t": 25794.042473958325,
      "d": 88.81453124999825,
      "v": 95
    },
    {
      "midi": 55,
      "hit": false,
      "t": 25794.042473958325,
      "d": 88.81453124999825,
      "v": 104
    },
    {
      "midi": 64,
      "hit": false,
      "t": 25794.042473958325,
      "d": 92.10395833333314,
      "v": 100
    },
    {
      "midi": 59,
      "hit": false,
      "t": 25794.042473958325,
      "d": 97.03809895833183,
      "v": 104
    },
    {
      "midi": 64,
      "hit": false,
      "t": 26530.87414062499,
      "d": 88.81453124999825,
      "v": 98
    },
    {
      "midi": 57,
      "hit": false,
      "t": 26530.87414062499,
      "d": 98.68281249999927,
      "v": 104
    },
    {
      "midi": 60,
      "hit": false,
      "t": 26530.87414062499,
      "d": 98.68281249999927,
      "v": 104
    },
    {
      "midi": 55,
      "hit": false,
      "t": 26530.87414062499,
      "d": 105.2616666666654,
      "v": 100
    },
    {
      "midi": 60,
      "hit": false,
      "t": 27047.314192708323,
      "d": 77.30153645833343,
      "v": 103
    },
    {
      "midi": 55,
      "hit": false,
      "t": 27047.314192708323,
      "d": 80.59096354166832,
      "v": 104
    },
    {
      "midi": 57,
      "hit": false,
      "t": 27047.314192708323,
      "d": 98.68281250000291,
      "v": 100
    },
    {
      "midi": 64,
      "hit": false,
      "t": 27053.89304687499,
      "d": 106.90638020833649,
      "v": 101
    },
    {
      "midi": 64,
      "hit": false,
      "t": 27794.014140624993,
      "d": 154.60307291666686,
      "v": 97
    },
    {
      "midi": 60,
      "hit": false,
      "t": 27794.014140624993,
      "d": 162.82664062500044,
      "v": 95
    },
    {
      "midi": 57,
      "hit": false,
      "t": 27794.014140624993,
      "d": 195.72091145833474,
      "v": 100
    },
    {
      "midi": 60,
      "hit": false,
      "t": 28320.322473958327,
      "d": 111.84052083333154,
      "v": 100
    },
    {
      "midi": 64,
      "hit": false,
      "t": 28320.322473958327,
      "d": 134.86651041666482,
      "v": 102
    },
    {
      "midi": 57,
      "hit": false,
      "t": 28320.322473958327,
      "d": 138.1559374999997,
      "v": 96
    },
    {
      "midi": 62,
      "hit": false,
      "t": 28637.752187499995,
      "d": 384.8629687499997,
      "v": 95
    },
    {
      "midi": 57,
      "hit": false,
      "t": 28637.752187499995,
      "d": 406.24424479166555,
      "v": 97
    },
    {
      "midi": 66,
      "hit": false,
      "t": 28639.396901041662,
      "d": 384.8629687499997,
      "v": 101
    },
    {
      "midi": 52,
      "hit": false,
      "t": 29052.219999999994,
      "d": 78.94624999999724,
      "v": 99
    },
    {
      "midi": 59,
      "hit": false,
      "t": 29052.219999999994,
      "d": 78.94624999999724,
      "v": 102
    },
    {
      "midi": 55,
      "hit": false,
      "t": 29057.154140624993,
      "d": 78.94624999999724,
      "v": 99
    },
    {
      "midi": 64,
      "hit": false,
      "t": 29057.154140624993,
      "d": 93.74867187499694,
      "v": 96
    },
    {
      "midi": 52,
      "hit": false,
      "t": 29583.462473958323,
      "d": 88.81453124999825,
      "v": 103
    },
    {
      "midi": 55,
      "hit": false,
      "t": 29583.462473958323,
      "d": 88.81453124999825,
      "v": 97
    },
    {
      "midi": 64,
      "hit": false,
      "t": 29583.462473958323,
      "d": 92.10395833333314,
      "v": 102
    },
    {
      "midi": 59,
      "hit": false,
      "t": 29583.462473958323,
      "d": 97.03809895833183,
      "v": 102
    },
    {
      "midi": 52,
      "hit": false,
      "t": 30315.35999999999,
      "d": 78.94624999999724,
      "v": 102
    },
    {
      "midi": 59,
      "hit": false,
      "t": 30315.35999999999,
      "d": 78.94624999999724,
      "v": 100
    },
    {
      "midi": 55,
      "hit": false,
      "t": 30320.29414062499,
      "d": 78.94624999999724,
      "v": 101
    },
    {
      "midi": 64,
      "hit": false,
      "t": 30320.29414062499,
      "d": 93.74867187499694,
      "v": 103
    },
    {
      "midi": 52,
      "hit": false,
      "t": 30846.60247395832,
      "d": 88.81453124999825,
      "v": 96
    },
    {
      "midi": 55,
      "hit": false,
      "t": 30846.60247395832,
      "d": 88.81453124999825,
      "v": 98
    },
    {
      "midi": 64,
      "hit": false,
      "t": 30846.60247395832,
      "d": 92.10395833333314,
      "v": 100
    },
    {
      "midi": 59,
      "hit": false,
      "t": 30846.60247395832,
      "d": 97.03809895833183,
      "v": 97
    },
    {
      "midi": 64,
      "hit": false,
      "t": 31583.434140624984,
      "d": 88.81453124999825,
      "v": 100
    },
    {
      "midi": 57,
      "hit": false,
      "t": 31583.434140624984,
      "d": 98.68281249999927,
      "v": 96
    },
    {
      "midi": 60,
      "hit": false,
      "t": 31583.434140624984,
      "d": 98.68281249999927,
      "v": 97
    },
    {
      "midi": 55,
      "hit": false,
      "t": 31583.434140624984,
      "d": 105.2616666666654,
      "v": 95
    },
    {
      "midi": 60,
      "hit": false,
      "t": 32099.874192708317,
      "d": 77.30153645833343,
      "v": 95
    },
    {
      "midi": 55,
      "hit": false,
      "t": 32099.874192708317,
      "d": 80.59096354166832,
      "v": 101
    },
    {
      "midi": 57,
      "hit": false,
      "t": 32099.874192708317,
      "d": 98.68281250000291,
      "v": 98
    },
    {
      "midi": 64,
      "hit": false,
      "t": 32106.453046874984,
      "d": 106.90638020833649,
      "v": 97
    },
    {
      "midi": 64,
      "hit": false,
      "t": 32846.57414062499,
      "d": 154.60307291666686,
      "v": 95
    },
    {
      "midi": 60,
      "hit": false,
      "t": 32846.57414062499,
      "d": 162.8266406249968,
      "v": 96
    },
    {
      "midi": 57,
      "hit": false,
      "t": 32846.57414062499,
      "d": 195.7209114583311,
      "v": 95
    },
    {
      "midi": 60,
      "hit": false,
      "t": 33372.88247395832,
      "d": 111.84052083333518,
      "v": 102
    },
    {
      "midi": 64,
      "hit": false,
      "t": 33372.88247395832,
      "d": 134.8665104166721,
      "v": 98
    },
    {
      "midi": 57,
      "hit": false,
      "t": 33372.88247395832,
      "d": 138.15593750000698,
      "v": 100
    },
    {
      "midi": 62,
      "hit": false,
      "t": 33690.31218749999,
      "d": 384.8629687499997,
      "v": 96
    },
    {
      "midi": 57,
      "hit": false,
      "t": 33690.31218749999,
      "d": 406.2442447916692,
      "v": 96
    },
    {
      "midi": 66,
      "hit": false,
      "t": 33691.95690104166,
      "d": 384.8629687499997,
      "v": 102
    },
    {
      "midi": 52,
      "hit": false,
      "t": 34104.77999999999,
      "d": 78.94625000000087,
      "v": 99
    },
    {
      "midi": 59,
      "hit": false,
      "t": 34104.77999999999,
      "d": 78.94625000000087,
      "v": 103
    },
    {
      "midi": 55,
      "hit": false,
      "t": 34109.714140624994,
      "d": 78.94625000000087,
      "v": 100
    },
    {
      "midi": 64,
      "hit": false,
      "t": 34109.714140624994,
      "d": 93.74867187500058,
      "v": 95
    },
    {
      "midi": 52,
      "hit": false,
      "t": 34636.02247395833,
      "d": 88.81453124999825,
      "v": 96
    },
    {
      "midi": 55,
      "hit": false,
      "t": 34636.02247395833,
      "d": 88.81453124999825,
      "v": 95
    },
    {
      "midi": 64,
      "hit": false,
      "t": 34636.02247395833,
      "d": 92.10395833333314,
      "v": 98
    },
    {
      "midi": 59,
      "hit": false,
      "t": 34636.02247395833,
      "d": 97.03809895833547,
      "v": 96
    },
    {
      "midi": 52,
      "hit": false,
      "t": 35367.92,
      "d": 78.94625000000087,
      "v": 99
    },
    {
      "midi": 59,
      "hit": false,
      "t": 35367.92,
      "d": 78.94625000000087,
      "v": 95
    },
    {
      "midi": 55,
      "hit": false,
      "t": 35372.854140625,
      "d": 78.94625000000087,
      "v": 99
    },
    {
      "midi": 64,
      "hit": false,
      "t": 35372.854140625,
      "d": 93.74867187500058,
      "v": 95
    },
    {
      "midi": 52,
      "hit": false,
      "t": 35899.162473958335,
      "d": 88.81453124999825,
      "v": 96
    },
    {
      "midi": 55,
      "hit": false,
      "t": 35899.162473958335,
      "d": 88.81453124999825,
      "v": 98
    },
    {
      "midi": 64,
      "hit": false,
      "t": 35899.162473958335,
      "d": 92.10395833333314,
      "v": 104
    },
    {
      "midi": 59,
      "hit": false,
      "t": 35899.162473958335,
      "d": 97.03809895833547,
      "v": 99
    },
    {
      "midi": 64,
      "hit": false,
      "t": 36635.994140625,
      "d": 88.81453124999825,
      "v": 96
    },
    {
      "midi": 57,
      "hit": false,
      "t": 36635.994140625,
      "d": 98.68281249999563,
      "v": 102
    },
    {
      "midi": 60,
      "hit": false,
      "t": 36635.994140625,
      "d": 98.68281249999563,
      "v": 95
    },
    {
      "midi": 55,
      "hit": false,
      "t": 36635.994140625,
      "d": 105.2616666666654,
      "v": 102
    },
    {
      "midi": 60,
      "hit": false,
      "t": 37152.43419270833,
      "d": 77.30153645833343,
      "v": 103
    },
    {
      "midi": 55,
      "hit": false,
      "t": 37152.43419270833,
      "d": 80.59096354166832,
      "v": 101
    },
    {
      "midi": 57,
      "hit": false,
      "t": 37152.43419270833,
      "d": 98.68281250000291,
      "v": 101
    },
    {
      "midi": 64,
      "hit": false,
      "t": 37159.013046875,
      "d": 106.90638020833285,
      "v": 104
    },
    {
      "midi": 64,
      "hit": false,
      "t": 37899.134140625,
      "d": 154.60307291666686,
      "v": 99
    },
    {
      "midi": 60,
      "hit": false,
      "t": 37899.134140625,
      "d": 162.8266406249968,
      "v": 102
    },
    {
      "midi": 57,
      "hit": false,
      "t": 37899.134140625,
      "d": 195.7209114583311,
      "v": 100
    },
    {
      "midi": 60,
      "hit": false,
      "t": 38425.442473958334,
      "d": 111.84052083333518,
      "v": 98
    },
    {
      "midi": 64,
      "hit": false,
      "t": 38425.442473958334,
      "d": 134.8665104166721,
      "v": 103
    },
    {
      "midi": 57,
      "hit": false,
      "t": 38425.442473958334,
      "d": 138.15593750000698,
      "v": 102
    },
    {
      "midi": 62,
      "hit": false,
      "t": 38742.872187500005,
      "d": 384.8629687499997,
      "v": 102
    },
    {
      "midi": 57,
      "hit": false,
      "t": 38742.872187500005,
      "d": 406.2442447916692,
      "v": 102
    },
    {
      "midi": 66,
      "hit": false,
      "t": 38744.51690104167,
      "d": 384.8629687499997,
      "v": 102
    },
    {
      "midi": 52,
      "hit": false,
      "t": 39157.340000000004,
      "d": 78.94625000000087,
      "v": 102
    },
    {
      "midi": 59,
      "hit": false,
      "t": 39157.340000000004,
      "d": 78.94625000000087,
      "v": 95
    },
    {
      "midi": 55,
      "hit": false,
      "t": 39162.274140625006,
      "d": 78.94625000000087,
      "v": 98
    },
    {
      "midi": 64,
      "hit": false,
      "t": 39162.274140625006,
      "d": 93.74867187500058,
      "v": 98
    },
    {
      "midi": 52,
      "hit": false,
      "t": 39688.58247395834,
      "d": 88.81453124999825,
      "v": 95
    },
    {
      "midi": 55,
      "hit": false,
      "t": 39688.58247395834,
      "d": 88.81453124999825,
      "v": 100
    },
    {
      "midi": 64,
      "hit": false,
      "t": 39688.58247395834,
      "d": 92.10395833333314,
      "v": 95
    },
    {
      "midi": 59,
      "hit": false,
      "t": 39688.58247395834,
      "d": 97.03809895833547,
      "v": 100
    },
    {
      "midi": 52,
      "hit": false,
      "t": 40420.48000000001,
      "d": 78.94625000000087,
      "v": 104
    },
    {
      "midi": 59,
      "hit": false,
      "t": 40420.48000000001,
      "d": 78.94625000000087,
      "v": 103
    },
    {
      "midi": 55,
      "hit": false,
      "t": 40425.41414062501,
      "d": 78.94625000000087,
      "v": 96
    },
    {
      "midi": 64,
      "hit": false,
      "t": 40425.41414062501,
      "d": 93.74867187500058,
      "v": 95
    },
    {
      "midi": 52,
      "hit": false,
      "t": 40951.72247395835,
      "d": 88.81453124999825,
      "v": 99
    },
    {
      "midi": 55,
      "hit": false,
      "t": 40951.72247395835,
      "d": 88.81453124999825,
      "v": 101
    },
    {
      "midi": 64,
      "hit": false,
      "t": 40951.72247395835,
      "d": 92.10395833333314,
      "v": 104
    },
    {
      "midi": 59,
      "hit": false,
      "t": 40951.72247395835,
      "d": 97.03809895833547,
      "v": 102
    },
    {
      "midi": 64,
      "hit": false,
      "t": 41688.55414062501,
      "d": 88.81453124999825,
      "v": 102
    },
    {
      "midi": 57,
      "hit": false,
      "t": 41688.55414062501,
      "d": 98.68281249999563,
      "v": 98
    },
    {
      "midi": 60,
      "hit": false,
      "t": 41688.55414062501,
      "d": 98.68281249999563,
      "v": 104
    },
    {
      "midi": 55,
      "hit": false,
      "t": 41688.55414062501,
      "d": 105.2616666666654,
      "v": 99
    },
    {
      "midi": 60,
      "hit": false,
      "t": 42204.99419270834,
      "d": 77.30153645833343,
      "v": 96
    },
    {
      "midi": 55,
      "hit": false,
      "t": 42204.99419270834,
      "d": 80.59096354166832,
      "v": 99
    },
    {
      "midi": 57,
      "hit": false,
      "t": 42204.99419270834,
      "d": 98.68281250000291,
      "v": 101
    },
    {
      "midi": 64,
      "hit": false,
      "t": 42211.57304687501,
      "d": 106.90638020833285,
      "v": 102
    },
    {
      "midi": 64,
      "hit": false,
      "t": 42951.69414062501,
      "d": 154.60307291666686,
      "v": 104
    },
    {
      "midi": 60,
      "hit": false,
      "t": 42951.69414062501,
      "d": 162.8266406249968,
      "v": 99
    },
    {
      "midi": 57,
      "hit": false,
      "t": 42951.69414062501,
      "d": 195.7209114583311,
      "v": 102
    },
    {
      "midi": 60,
      "hit": false,
      "t": 43478.002473958346,
      "d": 111.84052083333518,
      "v": 99
    },
    {
      "midi": 64,
      "hit": false,
      "t": 43478.002473958346,
      "d": 134.8665104166721,
      "v": 101
    },
    {
      "midi": 57,
      "hit": false,
      "t": 43478.002473958346,
      "d": 138.15593750000698,
      "v": 96
    },
    {
      "midi": 62,
      "hit": false,
      "t": 43795.43218750002,
      "d": 384.8629687499997,
      "v": 97
    },
    {
      "midi": 57,
      "hit": false,
      "t": 43795.43218750002,
      "d": 406.2442447916692,
      "v": 96
    },
    {
      "midi": 66,
      "hit": false,
      "t": 43797.076901041684,
      "d": 384.8629687499997,
      "v": 99
    }
  ]
}