{
  "jsonPath": "Pop/Cabaret/Jane Olivor/annies-song.json",
  "path": "Pop\\Cabaret\\Jane Olivor\\Annies Song.mid",
  "name": "Annies Song",
  "difficulty": "Advanced",
  "bpm": 120,
  "notes": [
    {
      "midi": 52,
      "hit": false,
      "t": 3734.4818250000003,
      "d": 1089.6549,
      "v": 66
    },
    {
      "midi": 56,
      "hit": false,
      "t": 3941.378325,
      "d": 337.9309500000004,
      "v": 50
    },
    {
      "midi": 59,
      "hit": false,
      "t": 4148.274825,
      "d": 296.5516499999994,
      "v": 73
    },
    {
      "midi": 56,
      "hit": false,
      "t": 4355.171325,
      "d": 282.75854999999956,
      "v": 49
    },
    {
      "midi": 59,
      "hit": false,
      "t": 4562.067825,
      "d": 306.89647500000046,
      "v": 74
    },
    {
      "midi": 56,
      "hit": false,
      "t": 4768.964325,
      "d": 182.75857500000075,
      "v": 51
    },
    {
      "midi": 52,
      "hit": false,
      "t": 4975.860825000001,
      "d": 1089.6548999999995,
      "v": 66
    },
    {
      "midi": 57,
      "hit": false,
      "t": 4975.860825000001,
      "d": 1331.0341499999995,
      "v": 89
    },
    {
      "midi": 56,
      "hit": false,
      "t": 5182.7573250000005,
      "d": 337.93094999999994,
      "v": 50
    },
    {
      "midi": 59,
      "hit": false,
      "t": 5389.653825,
      "d": 296.5516499999994,
      "v": 73
    },
    {
      "midi": 56,
      "hit": false,
      "t": 5596.550325,
      "d": 282.75854999999956,
      "v": 49
    },
    {
      "midi": 59,
      "hit": false,
      "t": 5803.446825,
      "d": 306.89647500000046,
      "v": 74
    },
    {
      "midi": 56,
      "hit": false,
      "t": 6010.343325,
      "d": 182.75857500000075,
      "v": 51
    },
    {
      "midi": 52,
      "hit": false,
      "t": 6217.239825000001,
      "d": 1089.6548999999995,
      "v": 66
    },
    {
      "midi": 56,
      "hit": false,
      "t": 6424.136325,
      "d": 337.93094999999994,
      "v": 50
    },
    {
      "midi": 59,
      "hit": false,
      "t": 6631.032825,
      "d": 296.5516499999994,
      "v": 73
    },
    {
      "midi": 56,
      "hit": false,
      "t": 6837.929325,
      "d": 282.75854999999956,
      "v": 49
    },
    {
      "midi": 59,
      "hit": false,
      "t": 7044.825825,
      "d": 306.89647500000046,
      "v": 74
    },
    {
      "midi": 56,
      "hit": false,
      "t": 7251.722325,
      "d": 182.75857500000075,
      "v": 51
    },
    {
      "midi": 54,
      "hit": false,
      "t": 7458.6188250000005,
      "d": 944.8273499999987,
      "v": 68
    },
    {
      "midi": 52,
      "hit": false,
      "t": 7458.6188250000005,
      "d": 1089.6548999999986,
      "v": 66
    },
    {
      "midi": 56,
      "hit": false,
      "t": 7665.515325,
      "d": 337.93094999999994,
      "v": 50
    },
    {
      "midi": 59,
      "hit": false,
      "t": 7872.411825,
      "d": 296.5516499999994,
      "v": 73
    },
    {
      "midi": 56,
      "hit": false,
      "t": 8079.308325,
      "d": 282.75854999999865,
      "v": 49
    },
    {
      "midi": 59,
      "hit": false,
      "t": 8286.204824999999,
      "d": 306.89647499999955,
      "v": 74
    },
    {
      "midi": 56,
      "hit": false,
      "t": 8493.101325,
      "d": 182.75857499999802,
      "v": 51
    },
    {
      "midi": 52,
      "hit": false,
      "t": 8699.997824999999,
      "d": 1089.6548999999995,
      "v": 72
    },
    {
      "midi": 56,
      "hit": false,
      "t": 8906.894325,
      "d": 337.93094999999994,
      "v": 50
    },
    {
      "midi": 59,
      "hit": false,
      "t": 9113.790825,
      "d": 296.5516499999994,
      "v": 73
    },
    {
      "midi": 56,
      "hit": false,
      "t": 9320.687324999999,
      "d": 282.75855000000047,
      "v": 49
    },
    {
      "midi": 59,
      "hit": false,
      "t": 9527.583825,
      "d": 306.89647499999774,
      "v": 74
    },
    {
      "midi": 56,
      "hit": false,
      "t": 9734.480324999999,
      "d": 182.75857499999802,
      "v": 51
    },
    {
      "midi": 52,
      "hit": false,
      "t": 9941.376824999998,
      "d": 20.689650000000256,
      "v": 66
    },
    {
      "midi": 51,
      "hit": false,
      "t": 9941.376824999998,
      "d": 1289.6548500000008,
      "v": 73
    },
    {
      "midi": 56,
      "hit": false,
      "t": 10148.273324999998,
      "d": 337.93094999999994,
      "v": 50
    },
    {
      "midi": 59,
      "hit": false,
      "t": 10355.169824999999,
      "d": 296.5516499999994,
      "v": 73
    },
    {
      "midi": 56,
      "hit": false,
      "t": 10562.066324999998,
      "d": 282.75855000000047,
      "v": 49
    },
    {
      "midi": 59,
      "hit": false,
      "t": 10768.962824999999,
      "d": 306.89647499999955,
      "v": 74
    },
    {
      "midi": 56,
      "hit": false,
      "t": 10975.859324999998,
      "d": 182.75857499999984,
      "v": 51
    },
    {
      "midi": 52,
      "hit": false,
      "t": 11182.755824999998,
      "d": 1089.6548999999995,
      "v": 66
    },
    {
      "midi": 49,
      "hit": false,
      "t": 11182.755824999998,
      "d": 1234.4824499999977,
      "v": 80
    },
    {
      "midi": 56,
      "hit": false,
      "t": 11389.652325,
      "d": 337.93094999999994,
      "v": 50
    },
    {
      "midi": 59,
      "hit": false,
      "t": 11596.548825,
      "d": 296.5516499999994,
      "v": 73
    },
    {
      "midi": 56,
      "hit": false,
      "t": 11803.445324999999,
      "d": 282.75855000000047,
      "v": 49
    },
    {
      "midi": 59,
      "hit": false,
      "t": 12010.341825,
      "d": 306.89647499999774,
      "v": 74
    },
    {
      "midi": 56,
      "hit": false,
      "t": 12217.238324999998,
      "d": 182.75857499999802,
      "v": 51
    },
    {
      "midi": 52,
      "hit": false,
      "t": 12424.134824999996,
      "d": 1089.6548999999995,
      "v": 66
    },
    {
      "midi": 47,
      "hit": false,
      "t": 12424.134824999996,
      "d": 1137.9307499999995,
      "v": 76
    },
    {
      "midi": 56,
      "hit": false,
      "t": 12631.031324999996,
      "d": 337.93094999999994,
      "v": 50
    },
    {
      "midi": 59,
      "hit": false,
      "t": 12837.927824999997,
      "d": 296.5516499999994,
      "v": 73
    },
    {
      "midi": 56,
      "hit": false,
      "t": 13044.824324999996,
      "d": 282.75855000000047,
      "v": 49
    },
    {
      "midi": 59,
      "hit": false,
      "t": 13251.720824999997,
      "d": 306.89647499999774,
      "v": 74
    },
    {
      "midi": 56,
      "hit": false,
      "t": 13458.617324999996,
      "d": 182.75857499999984,
      "v": 51
    },
    {
      "midi": 49,
      "hit": false,
      "t": 13665.513824999996,
      "d": 1031.0342250000012,
      "v": 68
    },
    {
      "midi": 52,
      "hit": false,
      "t": 13872.410324999997,
      "d": 206.89650000000074,
      "v": 59
    },
    {
      "midi": 57,
      "hit": false,
      "t": 14079.306824999998,
      "d": 217.24132500000087,
      "v": 71
    },
    {
      "midi": 52,
      "hit": false,
      "t": 14286.203324999999,
      "d": 199.99994999999944,
      "v": 61
    },
    {
      "midi": 57,
      "hit": false,
      "t": 14493.099824999998,
      "d": 437.93092500000057,
      "v": 67
    },
    {
      "midi": 52,
      "hit": false,
      "t": 14699.996324999998,
      "d": 199.99994999999944,
      "v": 55
    },
    {
      "midi": 51,
      "hit": false,
      "t": 14906.892824999997,
      "d": 1082.7583500000019,
      "v": 89
    },
    {
      "midi": 54,
      "hit": false,
      "t": 15113.789324999998,
      "d": 244.8275250000006,
      "v": 59
    },
    {
      "midi": 59,
      "hit": false,
      "t": 15320.685824999999,
      "d": 234.48270000000048,
      "v": 67
    },
    {
      "midi": 54,
      "hit": false,
      "t": 15527.582325,
      "d": 244.8275249999988,
      "v": 60
    },
    {
      "midi": 59,
      "hit": false,
      "t": 15734.478824999998,
      "d": 396.55162500000006,
      "v": 62
    },
    {
      "midi": 54,
      "hit": false,
      "t": 15941.375324999999,
      "d": 193.10339999999997,
      "v": 59
    },
    {
      "midi": 49,
      "hit": false,
      "t": 16148.271825,
      "d": 1041.3790500000032,
      "v": 82
    },
    {
      "midi": 52,
      "hit": false,
      "t": 16355.168325,
      "d": 224.13787500000217,
      "v": 59
    },
    {
      "midi": 56,
      "hit": false,
      "t": 16562.064825,
      "d": 186.2068500000023,
      "v": 56
    },
    {
      "midi": 52,
      "hit": false,
      "t": 16768.961325000004,
      "d": 203.4482250000001,
      "v": 59
    },
    {
      "midi": 56,
      "hit": false,
      "t": 16975.857825000003,
      "d": 213.79305000000022,
      "v": 62
    },
    {
      "midi": 52,
      "hit": false,
      "t": 17182.754325,
      "d": 186.2068500000023,
      "v": 62
    },
    {
      "midi": 49,
      "hit": false,
      "t": 17389.650825000004,
      "d": 1048.2755999999972,
      "v": 81
    },
    {
      "midi": 52,
      "hit": false,
      "t": 17596.547325000003,
      "d": 241.37924999999814,
      "v": 65
    },
    {
      "midi": 57,
      "hit": false,
      "t": 17803.443825000002,
      "d": 224.13787500000035,
      "v": 67
    },
    {
      "midi": 52,
      "hit": false,
      "t": 18010.340325,
      "d": 206.89650000000256,
      "v": 61
    },
    {
      "midi": 57,
      "hit": false,
      "t": 18217.236825000004,
      "d": 272.4137249999985,
      "v": 63
    },
    {
      "midi": 52,
      "hit": false,
      "t": 18424.133325000003,
      "d": 162.06892499999958,
      "v": 67
    },
    {
      "midi": 52,
      "hit": false,
      "t": 18631.029825,
      "d": 1079.3100750000012,
      "v": 60
    },
    {
      "midi": 56,
      "hit": false,
      "t": 18837.926325,
      "d": 224.13787500000035,
      "v": 56
    },
    {
      "midi": 59,
      "hit": false,
      "t": 19044.822825,
      "d": 213.79305000000386,
      "v": 67
    },
    {
      "midi": 56,
      "hit": false,
      "t": 19251.719325000002,
      "d": 227.58615000000282,
      "v": 59
    },
    {
      "midi": 59,
      "hit": false,
      "t": 19458.615825000004,
      "d": 382.75852499999746,
      "v": 62
    },
    {
      "midi": 56,
      "hit": false,
      "t": 19665.512325000003,
      "d": 210.34477499999775,
      "v": 62
    },
    {
      "midi": 52,
      "hit": false,
      "t": 19872.408825000002,
      "d": 1072.413525,
      "v": 69
    },
    {
      "midi": 51,
      "hit": false,
      "t": 19872.408825000002,
      "d": 1113.7928250000004,
      "v": 85
    },
    {
      "midi": 56,
      "hit": false,
      "t": 20079.305325,
      "d": 224.13787500000035,
      "v": 56
    },
    {
      "midi": 59,
      "hit": false,
      "t": 20286.201825,
      "d": 203.4482250000001,
      "v": 74
    },
    {
      "midi": 56,
      "hit": false,
      "t": 20493.098325,
      "d": 224.13787500000035,
      "v": 59
    },
    {
      "midi": 59,
      "hit": false,
      "t": 20699.994824999998,
      "d": 227.58615000000282,
      "v": 70
    },
    {
      "midi": 56,
      "hit": false,
      "t": 20906.891325,
      "d": 189.65512500000114,
      "v": 65
    },
    {
      "midi": 49,
      "hit": false,
      "t": 21113.787825000003,
      "d": 1058.620425000001,
      "v": 78
    },
    {
      "midi": 52,
      "hit": false,
      "t": 21113.787825000003,
      "d": 1082.75835,
      "v": 60
    },
    {
      "midi": 56,
      "hit": false,
      "t": 21320.684325000002,
      "d": 199.99995000000126,
      "v": 48
    },
    {
      "midi": 59,
      "hit": false,
      "t": 21527.580825000005,
      "d": 203.4482250000001,
      "v": 70
    },
    {
      "midi": 56,
      "hit": false,
      "t": 21734.477325000003,
      "d": 213.79305000000022,
      "v": 56
    },
    {
      "midi": 59,
      "hit": false,
      "t": 21941.373825000002,
      "d": 231.03442500000165,
      "v": 74
    },
    {
      "midi": 56,
      "hit": false,
      "t": 22148.270325000005,
      "d": 196.5516749999988,
      "v": 57
    },
    {
      "midi": 47,
      "hit": false,
      "t": 22355.166825000004,
      "d": 1034.4824999999946,
      "v": 78
    },
    {
      "midi": 52,
      "hit": false,
      "t": 22355.166825000004,
      "d": 1099.9997249999942,
      "v": 63
    },
    {
      "midi": 56,
      "hit": false,
      "t": 22562.063325000003,
      "d": 234.48270000000048,
      "v": 58
    },
    {
      "midi": 59,
      "hit": false,
      "t": 22768.959825,
      "d": 203.4482250000001,
      "v": 66
    },
    {
      "midi": 56,
      "hit": false,
      "t": 22975.856325,
      "d": 182.75857499999984,
      "v": 55
    },
    {
      "midi": 59,
      "hit": false,
      "t": 23182.752825,
      "d": 210.34477499999775,
      "v": 74
    },
    {
      "midi": 49,
      "hit": false,
      "t": 23596.545824999997,
      "d": 1031.0342249999994,
      "v": 68
    },
    {
      "midi": 52,
      "hit": false,
      "t": 23803.442324999996,
      "d": 206.89649999999892,
      "v": 59
    },
    {
      "midi": 57,
      "hit": false,
      "t": 24010.338824999995,
      "d": 217.24132499999905,
      "v": 71
    },
    {
      "midi": 52,
      "hit": false,
      "t": 24217.235324999994,
      "d": 199.99995000000126,
      "v": 61
    },
    {
      "midi": 57,
      "hit": false,
      "t": 24424.131824999997,
      "d": 437.93092500000057,
      "v": 67
    },
    {
      "midi": 52,
      "hit": false,
      "t": 24631.028324999996,
      "d": 199.99995000000126,
      "v": 55
    },
    {
      "midi": 51,
      "hit": false,
      "t": 24837.924825,
      "d": 1082.7583500000073,
      "v": 89
    },
    {
      "midi": 54,
      "hit": false,
      "t": 25044.821324999997,
      "d": 244.8275250000006,
      "v": 59
    },
    {
      "midi": 59,
      "hit": false,
      "t": 25251.717824999996,
      "d": 234.48270000000412,
      "v": 67
    },
    {
      "midi": 54,
      "hit": false,
      "t": 25458.614325,
      "d": 244.82752500000424,
      "v": 60
    },
    {
      "midi": 59,
      "hit": false,
      "t": 25665.510825,
      "d": 396.5516250000037,
      "v": 62
    },
    {
      "midi": 54,
      "hit": false,
      "t": 25872.407325000004,
      "d": 193.10339999999997,
      "v": 59
    },
    {
      "midi": 49,
      "hit": false,
      "t": 26079.303825000003,
      "d": 1041.3790499999996,
      "v": 82
    },
    {
      "midi": 52,
      "hit": false,
      "t": 26286.200325,
      "d": 224.13787500000035,
      "v": 59
    },
    {
      "midi": 56,
      "hit": false,
      "t": 26493.096825,
      "d": 186.2068500000023,
      "v": 56
    },
    {
      "midi": 52,
      "hit": false,
      "t": 26699.993325000003,
      "d": 203.4482250000001,
      "v": 59
    },
    {
      "midi": 56,
      "hit": false,
      "t": 26906.889825000002,
      "d": 213.79305000000022,
      "v": 62
    },
    {
      "midi": 52,
      "hit": false,
      "t": 27113.786325,
      "d": 186.2068500000023,
      "v": 62
    },
    {
      "midi": 49,
      "hit": false,
      "t": 27320.682825000004,
      "d": 1048.2755999999972,
      "v": 81
    },
    {
      "midi": 52,
      "hit": false,
      "t": 27527.579325000002,
      "d": 241.37924999999814,
      "v": 65
    },
    {
      "midi": 57,
      "hit": false,
      "t": 27734.475825,
      "d": 224.13787500000035,
      "v": 67
    },
    {
      "midi": 52,
      "hit": false,
      "t": 27941.372325,
      "d": 206.89650000000256,
      "v": 61
    },
    {
      "midi": 57,
      "hit": false,
      "t": 28148.268825000003,
      "d": 272.4137249999985,
      "v": 63
    },
    {
      "midi": 52,
      "hit": false,
      "t": 28355.165325,
      "d": 162.06892499999958,
      "v": 67
    },
    {
      "midi": 51,
      "hit": false,
      "t": 28562.061825,
      "d": 1065.5169749999986,
      "v": 81
    },
    {
      "midi": 54,
      "hit": false,
      "t": 28768.958325,
      "d": 193.10339999999997,
      "v": 58
    },
    {
      "midi": 59,
      "hit": false,
      "t": 28975.854825,
      "d": 217.24132499999905,
      "v": 91
    },
    {
      "midi": 54,
      "hit": false,
      "t": 29182.751324999997,
      "d": 213.79305000000022,
      "v": 60
    },
    {
      "midi": 42,
      "hit": false,
      "t": 29389.647824999996,
      "d": 231.03442500000165,
      "v": 82
    },
    {
      "midi": 59,
      "hit": false,
      "t": 29389.647824999996,
      "d": 255.17235000000437,
      "v": 77
    },
    {
      "midi": 44,
      "hit": false,
      "t": 29596.544325,
      "d": 168.96547500000088,
      "v": 82
    },
    {
      "midi": 54,
      "hit": false,
      "t": 29596.544325,
      "d": 203.4482250000001,
      "v": 60
    },
    {
      "midi": 47,
      "hit": false,
      "t": 29803.440824999998,
      "d": 427.5860999999968,
      "v": 77
    },
    {
      "midi": 51,
      "hit": false,
      "t": 29803.440824999998,
      "d": 1179.3100499999964,
      "v": 76
    },
    {
      "midi": 54,
      "hit": false,
      "t": 30010.337324999997,
      "d": 203.4482250000001,
      "v": 60
    },
    {
      "midi": 59,
      "hit": false,
      "t": 30217.233824999996,
      "d": 199.99994999999763,
      "v": 65
    },
    {
      "midi": 54,
      "hit": false,
      "t": 30424.130324999995,
      "d": 186.20684999999867,
      "v": 57
    },
    {
      "midi": 59,
      "hit": false,
      "t": 30631.026824999994,
      "d": 186.20684999999867,
      "v": 63
    },
    {
      "midi": 54,
      "hit": false,
      "t": 30837.923324999992,
      "d": 151.7241000000031,
      "v": 52
    },
    {
      "midi": 51,
      "hit": false,
      "t": 31044.819824999995,
      "d": 1065.5169749999986,
      "v": 81
    },
    {
      "midi": 54,
      "hit": false,
      "t": 31251.716324999994,
      "d": 193.10339999999997,
      "v": 58
    },
    {
      "midi": 59,
      "hit": false,
      "t": 31458.612824999993,
      "d": 217.24132499999905,
      "v": 91
    },
    {
      "midi": 52,
      "hit": false,
      "t": 31458.612824999993,
      "d": 372.41369999999733,
      "v": 65
    },
    {
      "midi": 54,
      "hit": false,
      "t": 31665.50932499999,
      "d": 213.79305000000022,
      "v": 60
    },
    {
      "midi": 59,
      "hit": false,
      "t": 31872.40582499999,
      "d": 255.17235000000437,
      "v": 77
    },
    {
      "midi": 52,
      "hit": false,
      "t": 31872.40582499999,
      "d": 299.9999250000037,
      "v": 74
    },
    {
      "midi": 54,
      "hit": false,
      "t": 32079.302324999993,
      "d": 203.4482250000001,
      "v": 60
    },
    {
      "midi": 51,
      "hit": false,
      "t": 32286.198824999992,
      "d": 1179.31005,
      "v": 76
    },
    {
      "midi": 54,
      "hit": false,
      "t": 32493.09532499999,
      "d": 203.4482250000001,
      "v": 60
    },
    {
      "midi": 59,
      "hit": false,
      "t": 32699.99182499999,
      "d": 199.99994999999763,
      "v": 65
    },
    {
      "midi": 54,
      "hit": false,
      "t": 32906.888324999985,
      "d": 186.2068500000023,
      "v": 57
    },
    {
      "midi": 59,
      "hit": false,
      "t": 33113.78482499999,
      "d": 186.2068500000023,
      "v": 63
    },
    {
      "midi": 54,
      "hit": false,
      "t": 33320.68132499999,
      "d": 151.72409999999945,
      "v": 52
    },
    {
      "midi": 49,
      "hit": false,
      "t": 33527.57782499999,
      "d": 1031.034225000003,
      "v": 68
    },
    {
      "midi": 52,
      "hit": false,
      "t": 33734.474324999996,
      "d": 206.89650000000256,
      "v": 59
    },
    {
      "midi": 57,
      "hit": false,
      "t": 33941.370825,
      "d": 217.2413250000027,
      "v": 71
    },
    {
      "midi": 52,
      "hit": false,
      "t": 34148.267325,
      "d": 199.99994999999763,
      "v": 61
    },
    {
      "midi": 57,
      "hit": false,
      "t": 34355.163824999996,
      "d": 437.93092500000057,
      "v": 67
    },
    {
      "midi": 52,
      "hit": false,
      "t": 34562.060325,
      "d": 199.99994999999763,
      "v": 55
    },
    {
      "midi": 51,
      "hit": false,
      "t": 34768.956824999994,
      "d": 1082.7583499999892,
      "v": 89
    },
    {
      "midi": 54,
      "hit": false,
      "t": 34975.853325,
      "d": 244.8275250000006,
      "v": 59
    },
    {
      "midi": 59,
      "hit": false,
      "t": 35182.749825,
      "d": 234.4826999999932,
      "v": 67
    },
    {
      "midi": 54,
      "hit": false,
      "t": 35389.646324999994,
      "d": 244.82752499999333,
      "v": 60
    },
    {
      "midi": 59,
      "hit": false,
      "t": 35596.54282499999,
      "d": 396.5516249999928,
      "v": 62
    },
    {
      "midi": 54,
      "hit": false,
      "t": 35803.439324999985,
      "d": 193.10339999999997,
      "v": 59
    },
    {
      "midi": 49,
      "hit": false,
      "t": 36010.33582499999,
      "d": 1041.3790500000032,
      "v": 82
    },
    {
      "midi": 52,
      "hit": false,
      "t": 36217.23232499999,
      "d": 224.13787500000035,
      "v": 59
    },
    {
      "midi": 56,
      "hit": false,
      "t": 36424.12882499999,
      "d": 186.20684999999503,
      "v": 56
    },
    {
      "midi": 52,
      "hit": false,
      "t": 36631.02532499999,
      "d": 203.4482250000001,
      "v": 59
    },
    {
      "midi": 56,
      "hit": false,
      "t": 36837.92182499999,
      "d": 213.79305000000022,
      "v": 62
    },
    {
      "midi": 52,
      "hit": false,
      "t": 37044.81832499999,
      "d": 186.20684999999503,
      "v": 62
    },
    {
      "midi": 49,
      "hit": false,
      "t": 37251.71482499999,
      "d": 1048.2756000000081,
      "v": 81
    },
    {
      "midi": 52,
      "hit": false,
      "t": 37458.61132499999,
      "d": 241.3792500000054,
      "v": 65
    },
    {
      "midi": 57,
      "hit": false,
      "t": 37665.50782499999,
      "d": 224.13787500000035,
      "v": 67
    },
    {
      "midi": 52,
      "hit": false,
      "t": 37872.404324999996,
      "d": 206.89649999999529,
      "v": 61
    },
    {
      "midi": 57,
      "hit": false,
      "t": 38079.30082499999,
      "d": 272.4137250000058,
      "v": 63
    },
    {
      "midi": 52,
      "hit": false,
      "t": 38286.197324999994,
      "d": 162.06892500000686,
      "v": 67
    },
    {
      "midi": 52,
      "hit": false,
      "t": 38493.093825,
      "d": 1079.3100750000012,
      "v": 60
    },
    {
      "midi": 56,
      "hit": false,
      "t": 38699.990325000006,
      "d": 224.13787500000035,
      "v": 56
    },
    {
      "midi": 59,
      "hit": false,
      "t": 38906.88682500001,
      "d": 213.79304999999295,
      "v": 67
    },
    {
      "midi": 56,
      "hit": false,
      "t": 39113.783325000004,
      "d": 227.58614999999554,
      "v": 59
    },
    {
      "midi": 59,
      "hit": false,
      "t": 39320.679825,
      "d": 382.75852500000474,
      "v": 62
    },
    {
      "midi": 56,
      "hit": false,
      "t": 39527.576325,
      "d": 210.34477500000503,
      "v": 62
    },
    {
      "midi": 52,
      "hit": false,
      "t": 39734.472825000004,
      "d": 1072.4135250000036,
      "v": 69
    },
    {
      "midi": 51,
      "hit": false,
      "t": 39734.472825000004,
      "d": 1113.792825000004,
      "v": 85
    },
    {
      "midi": 56,
      "hit": false,
      "t": 39941.36932500001,
      "d": 224.13787500000035,
      "v": 56
    },
    {
      "midi": 59,
      "hit": false,
      "t": 40148.26582500001,
      "d": 203.4482250000001,
      "v": 74
    },
    {
      "midi": 56,
      "hit": false,
      "t": 40355.16232500001,
      "d": 224.13787500000035,
      "v": 59
    },
    {
      "midi": 59,
      "hit": false,
      "t": 40562.058825000015,
      "d": 227.58614999999554,
      "v": 70
    },
    {
      "midi": 56,
      "hit": false,
      "t": 40768.95532500001,
      "d": 189.6551249999975,
      "v": 65
    },
    {
      "midi": 49,
      "hit": false,
      "t": 40975.851825000005,
      "d": 1058.620425000001,
      "v": 78
    },
    {
      "midi": 52,
      "hit": false,
      "t": 40975.851825000005,
      "d": 1082.7583500000037,
      "v": 60
    },
    {
      "midi": 56,
      "hit": false,
      "t": 41182.74832500001,
      "d": 199.99994999999763,
      "v": 48
    },
    {
      "midi": 59,
      "hit": false,
      "t": 41389.644825,
      "d": 203.4482250000001,
      "v": 70
    },
    {
      "midi": 56,
      "hit": false,
      "t": 41596.541325000006,
      "d": 213.79305000000022,
      "v": 56
    },
    {
      "midi": 59,
      "hit": false,
      "t": 41803.43782500001,
      "d": 231.034424999998,
      "v": 74
    },
    {
      "midi": 56,
      "hit": false,
      "t": 42010.334325,
      "d": 196.55167500000243,
      "v": 57
    },
    {
      "midi": 47,
      "hit": false,
      "t": 42217.230825000006,
      "d": 1034.4825000000128,
      "v": 78
    },
    {
      "midi": 52,
      "hit": false,
      "t": 42217.230825000006,
      "d": 1099.999725000016,
      "v": 63
    },
    {
      "midi": 56,
      "hit": false,
      "t": 42424.12732500001,
      "d": 234.48270000000048,
      "v": 58
    },
    {
      "midi": 59,
      "hit": false,
      "t": 42631.02382500001,
      "d": 203.4482250000001,
      "v": 66
    },
    {
      "midi": 56,
      "hit": false,
      "t": 42837.920325000014,
      "d": 182.75857499999984,
      "v": 55
    },
    {
      "midi": 59,
      "hit": false,
      "t": 43044.816825000016,
      "d": 210.34477500000503,
      "v": 74
    },
    {
      "midi": 49,
      "hit": false,
      "t": 43458.60982500002,
      "d": 1031.034225000003,
      "v": 68
    },
    {
      "midi": 52,
      "hit": false,
      "t": 43665.506325000024,
      "d": 206.89650000000256,
      "v": 59
    },
    {
      "midi": 57,
      "hit": false,
      "t": 43872.40282500003,
      "d": 217.2413250000027,
      "v": 71
    },
    {
      "midi": 52,
      "hit": false,
      "t": 44079.29932500003,
      "d": 199.99994999999763,
      "v": 61
    },
    {
      "midi": 57,
      "hit": false,
      "t": 44286.195825000024,
      "d": 437.93092500000057,
      "v": 67
    },
    {
      "midi": 52,
      "hit": false,
      "t": 44493.09232500003,
      "d": 199.99994999999763,
      "v": 55
    },
    {
      "midi": 51,
      "hit": false,
      "t": 44699.98882500002,
      "d": 1048.2756000000081,
      "v": 65
    },
    {
      "midi": 56,
      "hit": false,
      "t": 44906.885325000025,
      "d": 206.89650000000256,
      "v": 59
    },
    {
      "midi": 59,
      "hit": false,
      "t": 45113.78182500003,
      "d": 227.58615000000282,
      "v": 85
    },
    {
      "midi": 56,
      "hit": false,
      "t": 45320.67832500003,
      "d": 179.31029999999737,
      "v": 59
    },
    {
      "midi": 59,
      "hit": false,
      "t": 45527.574825000025,
      "d": 368.96542500000214,
      "v": 78
    },
    {
      "midi": 56,
      "hit": false,
      "t": 45734.47132500003,
      "d": 179.31029999999737,
      "v": 62
    },
    {
      "midi": 49,
      "hit": false,
      "t": 45941.36782500002,
      "d": 1072.4135250000108,
      "v": 91
    },
    {
      "midi": 54,
      "hit": false,
      "t": 46148.264325000026,
      "d": 189.6551249999975,
      "v": 60
    },
    {
      "midi": 57,
      "hit": false,
      "t": 46355.16082500002,
      "d": 206.89650000000256,
      "v": 67
    },
    {
      "midi": 54,
      "hit": false,
      "t": 46562.05732500002,
      "d": 196.55167500000243,
      "v": 63
    },
    {
      "midi": 57,
      "hit": false,
      "t": 46768.953825000026,
      "d": 241.3792500000054,
      "v": 70
    },
    {
      "midi": 54,
      "hit": false,
      "t": 46975.85032500003,
      "d": 196.55167500000243,
      "v": 70
    },
    {
      "midi": 51,
      "hit": false,
      "t": 47182.74682500003,
      "d": 1224.1376250000176,
      "v": 87
    },
    {
      "midi": 54,
      "hit": false,
      "t": 47389.643325000034,
      "d": 237.93097500000295,
      "v": 65
    },
    {
      "midi": 57,
      "hit": false,
      "t": 47596.539825000036,
      "d": 203.4482250000001,
      "v": 73
    },
    {
      "midi": 59,
      "hit": false,
      "t": 47803.43632500004,
      "d": 186.2068500000023,
      "v": 76
    },
    {
      "midi": 57,
      "hit": false,
      "t": 48010.33282500004,
      "d": 206.89650000000256,
      "v": 79
    },
    {
      "midi": 59,
      "hit": false,
      "t": 48217.229325000044,
      "d": 144.8275500000018,
      "v": 74
    },
    {
      "midi": 52,
      "hit": false,
      "t": 48424.12582500005,
      "d": 1103.448000000004,
      "v": 71
    },
    {
      "midi": 56,
      "hit": false,
      "t": 48631.02232500005,
      "d": 189.6551249999975,
      "v": 57
    },
    {
      "midi": 59,
      "hit": false,
      "t": 48837.918825000044,
      "d": 227.58615000000282,
      "v": 76
    },
    {
      "midi": 56,
      "hit": false,
      "t": 49044.81532500005,
      "d": 182.75857499999984,
      "v": 59
    },
    {
      "midi": 59,
      "hit": false,
      "t": 49251.71182500005,
      "d": 234.48270000000048,
      "v": 76
    },
    {
      "midi": 56,
      "hit": false,
      "t": 49458.60832500005,
      "d": 189.6551249999975,
      "v": 60
    },
    {
      "midi": 57,
      "hit": false,
      "t": 49665.50482500005,
      "d": 1106.8962750000064,
      "v": 82
    },
    {
      "midi": 52,
      "hit": false,
      "t": 49665.50482500005,
      "d": 1144.8273000000045,
      "v": 77
    },
    {
      "midi": 56,
      "hit": false,
      "t": 49872.40132500005,
      "d": 196.55167500000243,
      "v": 54
    },
    {
      "midi": 59,
      "hit": false,
      "t": 50079.29782500005,
      "d": 199.99994999999763,
      "v": 59
    },
    {
      "midi": 56,
      "hit": false,
      "t": 50286.19432500005,
      "d": 217.2413250000027,
      "v": 58
    },
    {
      "midi": 59,
      "hit": false,
      "t": 50493.09082500005,
      "d": 217.2413250000027,
      "v": 73
    },
    {
      "midi": 56,
      "hit": false,
      "t": 50699.98732500005,
      "d": 199.99994999999763,
      "v": 60
    },
    {
      "midi": 44,
      "hit": false,
      "t": 50906.88382500005,
      "d": 1082.7583500000183,
      "v": 68
    },
    {
      "midi": 52,
      "hit": false,
      "t": 50906.88382500005,
      "d": 1120.6893750000163,
      "v": 70
    },
    {
      "midi": 56,
      "hit": false,
      "t": 51113.78032500005,
      "d": 206.89650000000256,
      "v": 58
    },
    {
      "midi": 59,
      "hit": false,
      "t": 51320.67682500005,
      "d": 227.58615000000282,
      "v": 80
    },
    {
      "midi": 56,
      "hit": false,
      "t": 51527.573325000056,
      "d": 203.4482250000001,
      "v": 61
    },
    {
      "midi": 59,
      "hit": false,
      "t": 51734.46982500006,
      "d": 210.34477500000503,
      "v": 72
    },
    {
      "midi": 56,
      "hit": false,
      "t": 51941.36632500006,
      "d": 189.65512500000477,
      "v": 61
    },
    {
      "midi": 57,
      "hit": false,
      "t": 52148.26282500006,
      "d": 1055.172150000013,
      "v": 70
    },
    {
      "midi": 52,
      "hit": false,
      "t": 52148.26282500006,
      "d": 1231.0341750000152,
      "v": 76
    },
    {
      "midi": 56,
      "hit": false,
      "t": 52355.159325000066,
      "d": 210.34477500000503,
      "v": 59
    },
    {
      "midi": 59,
      "hit": false,
      "t": 52562.05582500007,
      "d": 206.89650000000256,
      "v": 77
    },
    {
      "midi": 56,
      "hit": false,
      "t": 52768.95232500007,
      "d": 231.03442500000529,
      "v": 60
    },
    {
      "midi": 59,
      "hit": false,
      "t": 52975.848825000074,
      "d": 213.79305000000022,
      "v": 81
    },
    {
      "midi": 56,
      "hit": false,
      "t": 53182.745325000076,
      "d": 141.37927499999932,
      "v": 58
    },
    {
      "midi": 49,
      "hit": false,
      "t": 53389.64182500008,
      "d": 1031.034225000003,
      "v": 68
    },
    {
      "midi": 52,
      "hit": false,
      "t": 53596.53832500008,
      "d": 206.89650000000256,
      "v": 59
    },
    {
      "midi": 57,
      "hit": false,
      "t": 53803.434825000084,
      "d": 217.2413250000027,
      "v": 71
    },
    {
      "midi": 52,
      "hit": false,
      "t": 54010.33132500009,
      "d": 199.99994999999763,
      "v": 61
    },
    {
      "midi": 57,
      "hit": false,
      "t": 54217.22782500008,
      "d": 437.93092500000057,
      "v": 67
    },
    {
      "midi": 52,
      "hit": false,
      "t": 54424.124325000084,
      "d": 199.99994999999763,
      "v": 55
    },
    {
      "midi": 51,
      "hit": false,
      "t": 54631.02082500008,
      "d": 1082.7583499999892,
      "v": 89
    },
    {
      "midi": 54,
      "hit": false,
      "t": 54837.91732500008,
      "d": 244.8275250000006,
      "v": 59
    },
    {
      "midi": 59,
      "hit": false,
      "t": 55044.813825000085,
      "d": 234.4826999999932,
      "v": 67
    },
    {
      "midi": 54,
      "hit": false,
      "t": 55251.71032500008,
      "d": 244.82752499999333,
      "v": 60
    },
    {
      "midi": 59,
      "hit": false,
      "t": 55458.606825000075,
      "d": 396.5516249999928,
      "v": 62
    },
    {
      "midi": 54,
      "hit": false,
      "t": 55665.50332500007,
      "d": 193.10339999999997,
      "v": 59
    },
    {
      "midi": 49,
      "hit": false,
      "t": 55872.39982500007,
      "d": 1041.3790500000032,
      "v": 82
    },
    {
      "midi": 52,
      "hit": false,
      "t": 56079.296325000076,
      "d": 224.13787500000035,
      "v": 59
    },
    {
      "midi": 56,
      "hit": false,
      "t": 56286.19282500008,
      "d": 186.20684999999503,
      "v": 56
    },
    {
      "midi": 52,
      "hit": false,
      "t": 56493.08932500007,
      "d": 203.4482250000001,
      "v": 59
    },
    {
      "midi": 56,
      "hit": false,
      "t": 56699.985825000076,
      "d": 213.79305000000022,
      "v": 62
    },
    {
      "midi": 52,
      "hit": false,
      "t": 56906.88232500008,
      "d": 186.20684999999503,
      "v": 62
    },
    {
      "midi": 49,
      "hit": false,
      "t": 57113.778825000074,
      "d": 1048.2756000000081,
      "v": 81
    },
    {
      "midi": 52,
      "hit": false,
      "t": 57320.67532500008,
      "d": 241.3792500000054,
      "v": 65
    },
    {
      "midi": 57,
      "hit": false,
      "t": 57527.57182500008,
      "d": 224.13787500000035,
      "v": 67
    },
    {
      "midi": 52,
      "hit": false,
      "t": 57734.46832500008,
      "d": 206.89649999999529,
      "v": 61
    },
    {
      "midi": 57,
      "hit": false,
      "t": 57941.36482500008,
      "d": 272.4137250000058,
      "v": 63
    },
    {
      "midi": 52,
      "hit": false,
      "t": 58148.26132500008,
      "d": 162.06892500000686,
      "v": 67
    },
    {
      "midi": 52,
      "hit": false,
      "t": 58355.15782500009,
      "d": 1079.3100750000012,
      "v": 60
    },
    {
      "midi": 56,
      "hit": false,
      "t": 58562.05432500009,
      "d": 224.13787500000035,
      "v": 56
    },
    {
      "midi": 59,
      "hit": false,
      "t": 58768.950825000094,
      "d": 213.79304999999295,
      "v": 67
    },
    {
      "midi": 56,
      "hit": false,
      "t": 58975.84732500009,
      "d": 227.58614999999554,
      "v": 59
    },
    {
      "midi": 59,
      "hit": false,
      "t": 59182.743825000085,
      "d": 382.75852500000474,
      "v": 62
    },
    {
      "midi": 56,
      "hit": false,
      "t": 59389.64032500009,
      "d": 210.34477500000503,
      "v": 62
    },
    {
      "midi": 52,
      "hit": false,
      "t": 59596.53682500009,
      "d": 1072.4135250000036,
      "v": 69
    },
    {
      "midi": 51,
      "hit": false,
      "t": 59596.53682500009,
      "d": 1113.792825000004,
      "v": 85
    },
    {
      "midi": 56,
      "hit": false,
      "t": 59803.43332500009,
      "d": 224.13787500000035,
      "v": 56
    },
    {
      "midi": 59,
      "hit": false,
      "t": 60010.329825000095,
      "d": 203.4482250000001,
      "v": 74
    },
    {
      "midi": 56,
      "hit": false,
      "t": 60217.2263250001,
      "d": 224.13787500000035,
      "v": 59
    },
    {
      "midi": 59,
      "hit": false,
      "t": 60424.1228250001,
      "d": 227.58614999999554,
      "v": 70
    },
    {
      "midi": 56,
      "hit": false,
      "t": 60631.019325000096,
      "d": 189.6551249999975,
      "v": 65
    },
    {
      "midi": 49,
      "hit": false,
      "t": 60837.91582500009,
      "d": 1058.620425000001,
      "v": 78
    },
    {
      "midi": 52,
      "hit": false,
      "t": 60837.91582500009,
      "d": 1082.7583500000037,
      "v": 60
    },
    {
      "midi": 56,
      "hit": false,
      "t": 61044.81232500009,
      "d": 199.99994999999763,
      "v": 48
    },
    {
      "midi": 59,
      "hit": false,
      "t": 61251.70882500009,
      "d": 203.4482250000001,
      "v": 70
    },
    {
      "midi": 56,
      "hit": false,
      "t": 61458.60532500009,
      "d": 213.79305000000022,
      "v": 56
    },
    {
      "midi": 59,
      "hit": false,
      "t": 61665.501825000094,
      "d": 231.034424999998,
      "v": 74
    },
    {
      "midi": 56,
      "hit": false,
      "t": 61872.39832500009,
      "d": 196.55167500000243,
      "v": 57
    },
    {
      "midi": 47,
      "hit": false,
      "t": 62079.29482500009,
      "d": 1034.4825000000128,
      "v": 78
    },
    {
      "midi": 52,
      "hit": false,
      "t": 62079.29482500009,
      "d": 1099.999725000016,
      "v": 63
    },
    {
      "midi": 56,
      "hit": false,
      "t": 62286.191325000094,
      "d": 234.48270000000048,
      "v": 58
    },
    {
      "midi": 59,
      "hit": false,
      "t": 62493.0878250001,
      "d": 203.4482250000001,
      "v": 66
    },
    {
      "midi": 56,
      "hit": false,
      "t": 62699.9843250001,
      "d": 182.75857499999984,
      "v": 55
    },
    {
      "midi": 59,
      "hit": false,
      "t": 62906.8808250001,
      "d": 210.34477500000503,
      "v": 74
    },
    {
      "midi": 49,
      "hit": false,
      "t": 63320.67382500011,
      "d": 1031.034225000003,
      "v": 68
    },
    {
      "midi": 52,
      "hit": false,
      "t": 63527.57032500011,
      "d": 206.89650000000256,
      "v": 59
    },
    {
      "midi": 57,
      "hit": false,
      "t": 63734.46682500011,
      "d": 217.2413250000027,
      "v": 71
    },
    {
      "midi": 52,
      "hit": false,
      "t": 63941.363325000115,
      "d": 199.99994999999763,
      "v": 61
    },
    {
      "midi": 57,
      "hit": false,
      "t": 64148.25982500011,
      "d": 437.93092500000057,
      "v": 67
    },
    {
      "midi": 52,
      "hit": false,
      "t": 64355.15632500011,
      "d": 199.99994999999763,
      "v": 55
    },
    {
      "midi": 51,
      "hit": false,
      "t": 64562.05282500011,
      "d": 1082.7583500000037,
      "v": 89
    },
    {
      "midi": 54,
      "hit": false,
      "t": 64768.94932500011,
      "d": 244.8275250000006,
      "v": 59
    },
    {
      "midi": 59,
      "hit": false,
      "t": 64975.84582500011,
      "d": 234.4826999999932,
      "v": 67
    },
    {
      "midi": 54,
      "hit": false,
      "t": 65182.74232500011,
      "d": 244.82752499999333,
      "v": 60
    },
    {
      "midi": 59,
      "hit": false,
      "t": 65389.638825000104,
      "d": 396.55162500000733,
      "v": 62
    },
    {
      "midi": 54,
      "hit": false,
      "t": 65596.5353250001,
      "d": 193.10340000000724,
      "v": 59
    },
    {
      "midi": 49,
      "hit": false,
      "t": 65803.43182500011,
      "d": 1041.3790500000177,
      "v": 82
    },
    {
      "midi": 52,
      "hit": false,
      "t": 66010.32832500011,
      "d": 224.13787500000035,
      "v": 59
    },
    {
      "midi": 56,
      "hit": false,
      "t": 66217.22482500011,
      "d": 186.2068500000023,
      "v": 56
    },
    {
      "midi": 52,
      "hit": false,
      "t": 66424.12132500012,
      "d": 203.4482250000001,
      "v": 59
    },
    {
      "midi": 56,
      "hit": false,
      "t": 66631.01782500012,
      "d": 213.7930500000075,
      "v": 62
    },
    {
      "midi": 52,
      "hit": false,
      "t": 66837.91432500012,
      "d": 186.2068500000023,
      "v": 62
    },
    {
      "midi": 49,
      "hit": false,
      "t": 67044.81082500012,
      "d": 1048.2756000000081,
      "v": 81
    },
    {
      "midi": 52,
      "hit": false,
      "t": 67251.70732500013,
      "d": 241.37924999999814,
      "v": 65
    },
    {
      "midi": 57,
      "hit": false,
      "t": 67458.60382500013,
      "d": 224.13787500000035,
      "v": 67
    },
    {
      "midi": 52,
      "hit": false,
      "t": 67665.50032500013,
      "d": 206.89650000000256,
      "v": 61
    },
    {
      "midi": 57,
      "hit": false,
      "t": 67872.39682500013,
      "d": 272.41372499999125,
      "v": 63
    },
    {
      "midi": 52,
      "hit": false,
      "t": 68079.29332500014,
      "d": 162.06892499998503,
      "v": 67
    },
    {
      "midi": 51,
      "hit": false,
      "t": 68286.18982500012,
      "d": 1065.516975000006,
      "v": 81
    },
    {
      "midi": 54,
      "hit": false,
      "t": 68493.08632500013,
      "d": 193.10340000000724,
      "v": 58
    },
    {
      "midi": 59,
      "hit": false,
      "t": 68699.98282500013,
      "d": 217.2413249999954,
      "v": 91
    },
    {
      "midi": 54,
      "hit": false,
      "t": 68906.87932500013,
      "d": 213.79304999999295,
      "v": 60
    },
    {
      "midi": 42,
      "hit": false,
      "t": 69113.77582500012,
      "d": 231.03442500000529,
      "v": 82
    },
    {
      "midi": 59,
      "hit": false,
      "t": 69113.77582500012,
      "d": 255.172350000008,
      "v": 77
    },
    {
      "midi": 44,
      "hit": false,
      "t": 69320.67232500012,
      "d": 168.96547500000452,
      "v": 82
    },
    {
      "midi": 54,
      "hit": false,
      "t": 69320.67232500012,
      "d": 203.4482250000001,
      "v": 60
    },
    {
      "midi": 47,
      "hit": false,
      "t": 69527.56882500013,
      "d": 427.58610000000044,
      "v": 77
    },
    {
      "midi": 51,
      "hit": false,
      "t": 69527.56882500013,
      "d": 1179.3100500000146,
      "v": 76
    },
    {
      "midi": 54,
      "hit": false,
      "t": 69734.46532500013,
      "d": 203.4482250000001,
      "v": 60
    },
    {
      "midi": 59,
      "hit": false,
      "t": 69941.36182500013,
      "d": 199.99994999999763,
      "v": 65
    },
    {
      "midi": 54,
      "hit": false,
      "t": 70148.25832500013,
      "d": 186.2068500000023,
      "v": 57
    },
    {
      "midi": 59,
      "hit": false,
      "t": 70355.15482500014,
      "d": 186.2068500000023,
      "v": 63
    },
    {
      "midi": 54,
      "hit": false,
      "t": 70562.05132500014,
      "d": 151.72410000000673,
      "v": 52
    },
    {
      "midi": 51,
      "hit": false,
      "t": 70768.94782500014,
      "d": 1065.5169749999914,
      "v": 81
    },
    {
      "midi": 54,
      "hit": false,
      "t": 70975.84432500014,
      "d": 193.10340000000724,
      "v": 58
    },
    {
      "midi": 59,
      "hit": false,
      "t": 71182.74082500015,
      "d": 217.2413249999954,
      "v": 91
    },
    {
      "midi": 52,
      "hit": false,
      "t": 71182.74082500015,
      "d": 372.41369999999006,
      "v": 65
    },
    {
      "midi": 54,
      "hit": false,
      "t": 71389.63732500015,
      "d": 213.79304999999295,
      "v": 60
    },
    {
      "midi": 59,
      "hit": false,
      "t": 71596.53382500014,
      "d": 255.17234999999346,
      "v": 77
    },
    {
      "midi": 52,
      "hit": false,
      "t": 71596.53382500014,
      "d": 299.99992499999644,
      "v": 74
    },
    {
      "midi": 54,
      "hit": false,
      "t": 71803.43032500014,
      "d": 203.4482250000001,
      "v": 60
    },
    {
      "midi": 51,
      "hit": false,
      "t": 72010.32682500014,
      "d": 1179.3100500000146,
      "v": 76
    },
    {
      "midi": 54,
      "hit": false,
      "t": 72217.22332500014,
      "d": 203.4482250000001,
      "v": 60
    },
    {
      "midi": 59,
      "hit": false,
      "t": 72424.11982500015,
      "d": 199.99994999999763,
      "v": 65
    },
    {
      "midi": 54,
      "hit": false,
      "t": 72631.01632500015,
      "d": 186.2068500000023,
      "v": 57
    },
    {
      "midi": 59,
      "hit": false,
      "t": 72837.91282500015,
      "d": 186.2068500000023,
      "v": 63
    },
    {
      "midi": 54,
      "hit": false,
      "t": 73044.80932500015,
      "d": 151.72410000000673,
      "v": 52
    },
    {
      "midi": 49,
      "hit": false,
      "t": 73251.70582500016,
      "d": 1031.0342250000103,
      "v": 68
    },
    {
      "midi": 52,
      "hit": false,
      "t": 73458.60232500016,
      "d": 206.89650000000256,
      "v": 59
    },
    {
      "midi": 57,
      "hit": false,
      "t": 73665.49882500016,
      "d": 217.2413249999954,
      "v": 71
    },
    {
      "midi": 52,
      "hit": false,
      "t": 73872.39532500017,
      "d": 199.99994999999763,
      "v": 61
    },
    {
      "midi": 57,
      "hit": false,
      "t": 74079.29182500017,
      "d": 437.93092500000785,
      "v": 67
    },
    {
      "midi": 52,
      "hit": false,
      "t": 74286.18832500017,
      "d": 199.99994999999763,
      "v": 55
    },
    {
      "midi": 51,
      "hit": false,
      "t": 74493.08482500017,
      "d": 1082.7583500000183,
      "v": 89
    },
    {
      "midi": 54,
      "hit": false,
      "t": 74699.98132500018,
      "d": 244.8275250000006,
      "v": 59
    },
    {
      "midi": 59,
      "hit": false,
      "t": 74906.87782500018,
      "d": 234.48270000000775,
      "v": 67
    },
    {
      "midi": 54,
      "hit": false,
      "t": 75113.77432500018,
      "d": 244.8275250000006,
      "v": 60
    },
    {
      "midi": 59,
      "hit": false,
      "t": 75320.67082500018,
      "d": 396.55162500000733,
      "v": 62
    },
    {
      "midi": 54,
      "hit": false,
      "t": 75527.56732500019,
      "d": 193.10340000000724,
      "v": 59
    },
    {
      "midi": 49,
      "hit": false,
      "t": 75734.46382500019,
      "d": 1041.3790500000177,
      "v": 82
    },
    {
      "midi": 52,
      "hit": false,
      "t": 75941.36032500019,
      "d": 224.13787500000035,
      "v": 59
    },
    {
      "midi": 56,
      "hit": false,
      "t": 76148.2568250002,
      "d": 186.2068500000023,
      "v": 56
    },
    {
      "midi": 52,
      "hit": false,
      "t": 76355.1533250002,
      "d": 203.4482250000001,
      "v": 59
    },
    {
      "midi": 56,
      "hit": false,
      "t": 76562.0498250002,
      "d": 213.7930500000075,
      "v": 62
    },
    {
      "midi": 52,
      "hit": false,
      "t": 76768.9463250002,
      "d": 186.2068500000023,
      "v": 62
    },
    {
      "midi": 49,
      "hit": false,
      "t": 76975.8428250002,
      "d": 1048.2756000000081,
      "v": 81
    },
    {
      "midi": 52,
      "hit": false,
      "t": 77182.7393250002,
      "d": 241.37924999999814,
      "v": 65
    },
    {
      "midi": 57,
      "hit": false,
      "t": 77389.63582500021,
      "d": 224.13787500000035,
      "v": 67
    },
    {
      "midi": 52,
      "hit": false,
      "t": 77596.53232500021,
      "d": 206.89650000000256,
      "v": 61
    },
    {
      "midi": 57,
      "hit": false,
      "t": 77803.42882500021,
      "d": 272.41372499999125,
      "v": 63
    },
    {
      "midi": 52,
      "hit": false,
      "t": 78010.32532500022,
      "d": 162.06892499998503,
      "v": 67
    },
    {
      "midi": 52,
      "hit": false,
      "t": 78217.2218250002,
      "d": 1079.3100750000158,
      "v": 60
    },
    {
      "midi": 56,
      "hit": false,
      "t": 78424.1183250002,
      "d": 224.13787500000035,
      "v": 56
    },
    {
      "midi": 59,
      "hit": false,
      "t": 78631.01482500021,
      "d": 213.7930500000075,
      "v": 67
    },
    {
      "midi": 56,
      "hit": false,
      "t": 78837.91132500021,
      "d": 227.58615000000282,
      "v": 59
    },
    {
      "midi": 59,
      "hit": false,
      "t": 79044.80782500021,
      "d": 382.758525000012,
      "v": 62
    },
    {
      "midi": 56,
      "hit": false,
      "t": 79251.70432500022,
      "d": 210.34477500000503,
      "v": 62
    },
    {
      "midi": 52,
      "hit": false,
      "t": 79458.60082500022,
      "d": 1072.4135250000108,
      "v": 69
    },
    {
      "midi": 51,
      "hit": false,
      "t": 79458.60082500022,
      "d": 1113.7928250000114,
      "v": 85
    },
    {
      "midi": 56,
      "hit": false,
      "t": 79665.49732500022,
      "d": 224.13787500000035,
      "v": 56
    },
    {
      "midi": 59,
      "hit": false,
      "t": 79872.39382500022,
      "d": 203.4482250000001,
      "v": 74
    },
    {
      "midi": 56,
      "hit": false,
      "t": 80079.29032500023,
      "d": 224.13787500000035,
      "v": 59
    },
    {
      "midi": 59,
      "hit": false,
      "t": 80286.18682500023,
      "d": 227.58615000000282,
      "v": 70
    },
    {
      "midi": 56,
      "hit": false,
      "t": 80493.08332500023,
      "d": 189.65512500000477,
      "v": 65
    },
    {
      "midi": 49,
      "hit": false,
      "t": 80699.97982500023,
      "d": 1058.6204250000155,
      "v": 78
    },
    {
      "midi": 52,
      "hit": false,
      "t": 80699.97982500023,
      "d": 1082.7583500000183,
      "v": 60
    },
    {
      "midi": 56,
      "hit": false,
      "t": 80906.87632500024,
      "d": 199.99994999999763,
      "v": 48
    },
    {
      "midi": 59,
      "hit": false,
      "t": 81113.77282500024,
      "d": 203.4482250000001,
      "v": 70
    },
    {
      "midi": 56,
      "hit": false,
      "t": 81320.66932500024,
      "d": 213.7930500000075,
      "v": 56
    },
    {
      "midi": 59,
      "hit": false,
      "t": 81527.56582500025,
      "d": 231.03442500000529,
      "v": 74
    },
    {
      "midi": 56,
      "hit": false,
      "t": 81734.46232500025,
      "d": 196.5516750000097,
      "v": 57
    },
    {
      "midi": 47,
      "hit": false,
      "t": 81941.35882500025,
      "d": 1034.4825000000128,
      "v": 78
    },
    {
      "midi": 52,
      "hit": false,
      "t": 81941.35882500025,
      "d": 1099.999725000016,
      "v": 63
    },
    {
      "midi": 56,
      "hit": false,
      "t": 82148.25532500025,
      "d": 234.48270000000775,
      "v": 58
    },
    {
      "midi": 59,
      "hit": false,
      "t": 82355.15182500026,
      "d": 203.4482250000001,
      "v": 66
    },
    {
      "midi": 56,
      "hit": false,
      "t": 82562.04832500026,
      "d": 182.75857499999984,
      "v": 55
    },
    {
      "midi": 59,
      "hit": false,
      "t": 82768.94482500026,
      "d": 210.34477500000503,
      "v": 74
    },
    {
      "midi": 49,
      "hit": false,
      "t": 83182.73782500027,
      "d": 1031.0342250000103,
      "v": 68
    },
    {
      "midi": 52,
      "hit": false,
      "t": 83389.63432500027,
      "d": 206.89650000000256,
      "v": 59
    },
    {
      "midi": 57,
      "hit": false,
      "t": 83596.53082500027,
      "d": 217.2413249999954,
      "v": 71
    },
    {
      "midi": 52,
      "hit": false,
      "t": 83803.42732500027,
      "d": 199.99994999999763,
      "v": 61
    },
    {
      "midi": 57,
      "hit": false,
      "t": 84010.32382500028,
      "d": 437.93092500000785,
      "v": 67
    },
    {
      "midi": 52,
      "hit": false,
      "t": 84217.22032500028,
      "d": 199.99994999999763,
      "v": 55
    },
    {
      "midi": 51,
      "hit": false,
      "t": 84424.11682500028,
      "d": 1048.2756000000081,
      "v": 65
    },
    {
      "midi": 56,
      "hit": false,
      "t": 84631.01332500028,
      "d": 206.89650000000256,
      "v": 59
    },
    {
      "midi": 59,
      "hit": false,
      "t": 84837.90982500029,
      "d": 227.58615000000282,
      "v": 85
    },
    {
      "midi": 56,
      "hit": false,
      "t": 85044.80632500029,
      "d": 179.31029999999737,
      "v": 59
    },
    {
      "midi": 59,
      "hit": false,
      "t": 85251.70282500029,
      "d": 368.96542500000214,
      "v": 78
    },
    {
      "midi": 56,
      "hit": false,
      "t": 85458.5993250003,
      "d": 179.31029999999737,
      "v": 62
    },
    {
      "midi": 49,
      "hit": false,
      "t": 85665.4958250003,
      "d": 1072.4135249999963,
      "v": 91
    },
    {
      "midi": 54,
      "hit": false,
      "t": 85872.3923250003,
      "d": 189.65512500000477,
      "v": 60
    },
    {
      "midi": 57,
      "hit": false,
      "t": 86079.2888250003,
      "d": 206.89650000000256,
      "v": 67
    },
    {
      "midi": 54,
      "hit": false,
      "t": 86286.1853250003,
      "d": 196.55167499999516,
      "v": 63
    },
    {
      "midi": 57,
      "hit": false,
      "t": 86493.08182500029,
      "d": 241.37924999999814,
      "v": 70
    },
    {
      "midi": 54,
      "hit": false,
      "t": 86699.9783250003,
      "d": 196.55167499999516,
      "v": 70
    },
    {
      "midi": 51,
      "hit": false,
      "t": 86906.87482500028,
      "d": 1224.1376250000176,
      "v": 87
    },
    {
      "midi": 54,
      "hit": false,
      "t": 87113.77132500029,
      "d": 237.93097499999567,
      "v": 65
    },
    {
      "midi": 57,
      "hit": false,
      "t": 87320.66782500029,
      "d": 203.4482250000001,
      "v": 73
    },
    {
      "midi": 59,
      "hit": false,
      "t": 87527.56432500029,
      "d": 186.2068500000023,
      "v": 76
    },
    {
      "midi": 57,
      "hit": false,
      "t": 87734.4608250003,
      "d": 206.89650000000256,
      "v": 79
    },
    {
      "midi": 59,
      "hit": false,
      "t": 87941.3573250003,
      "d": 144.8275500000018,
      "v": 74
    },
    {
      "midi": 52,
      "hit": false,
      "t": 88148.2538250003,
      "d": 1103.4480000000185,
      "v": 71
    },
    {
      "midi": 56,
      "hit": false,
      "t": 88355.1503250003,
      "d": 189.65512500000477,
      "v": 57
    },
    {
      "midi": 59,
      "hit": false,
      "t": 88562.0468250003,
      "d": 227.58615000000282,
      "v": 76
    },
    {
      "midi": 56,
      "hit": false,
      "t": 88768.9433250003,
      "d": 182.75857499999984,
      "v": 59
    },
    {
      "midi": 59,
      "hit": false,
      "t": 88975.83982500031,
      "d": 234.48270000000775,
      "v": 76
    },
    {
      "midi": 56,
      "hit": false,
      "t": 89182.73632500031,
      "d": 189.65512500000477,
      "v": 60
    },
    {
      "midi": 57,
      "hit": false,
      "t": 89389.63282500031,
      "d": 1106.8962749999773,
      "v": 82
    },
    {
      "midi": 52,
      "hit": false,
      "t": 89389.63282500031,
      "d": 1144.8272999999754,
      "v": 77
    },
    {
      "midi": 56,
      "hit": false,
      "t": 89596.52932500032,
      "d": 196.55167499999516,
      "v": 54
    },
    {
      "midi": 59,
      "hit": false,
      "t": 89803.4258250003,
      "d": 199.99994999999763,
      "v": 59
    },
    {
      "midi": 56,
      "hit": false,
      "t": 90010.3223250003,
      "d": 217.2413249999954,
      "v": 58
    },
    {
      "midi": 59,
      "hit": false,
      "t": 90217.21882500031,
      "d": 217.24132499998086,
      "v": 73
    },
    {
      "midi": 56,
      "hit": false,
      "t": 90424.1153250003,
      "d": 199.99994999999763,
      "v": 60
    },
    {
      "midi": 44,
      "hit": false,
      "t": 90631.0118250003,
      "d": 1082.7583500000183,
      "v": 68
    },
    {
      "midi": 52,
      "hit": false,
      "t": 90631.0118250003,
      "d": 1120.6893750000163,
      "v": 70
    },
    {
      "midi": 56,
      "hit": false,
      "t": 90837.9083250003,
      "d": 206.89650000000256,
      "v": 58
    },
    {
      "midi": 59,
      "hit": false,
      "t": 91044.8048250003,
      "d": 227.58615000000282,
      "v": 80
    },
    {
      "midi": 56,
      "hit": false,
      "t": 91251.70132500031,
      "d": 203.4482250000001,
      "v": 61
    },
    {
      "midi": 59,
      "hit": false,
      "t": 91458.59782500031,
      "d": 210.34477500000503,
      "v": 72
    },
    {
      "midi": 56,
      "hit": false,
      "t": 91665.49432500031,
      "d": 189.65512500000477,
      "v": 61
    },
    {
      "midi": 57,
      "hit": false,
      "t": 91872.39082500032,
      "d": 1055.172150000013,
      "v": 70
    },
    {
      "midi": 52,
      "hit": false,
      "t": 91872.39082500032,
      "d": 1231.034175000008,
      "v": 76
    },
    {
      "midi": 56,
      "hit": false,
      "t": 92079.28732500032,
      "d": 210.34477500000503,
      "v": 59
    },
    {
      "midi": 59,
      "hit": false,
      "t": 92286.18382500032,
      "d": 206.89650000000256,
      "v": 77
    },
    {
      "midi": 56,
      "hit": false,
      "t": 92493.08032500032,
      "d": 231.03442500000529,
      "v": 60
    },
    {
      "midi": 59,
      "hit": false,
      "t": 92699.97682500033,
      "d": 213.7930500000075,
      "v": 81
    },
    {
      "midi": 56,
      "hit": false,
      "t": 92906.87332500033,
      "d": 141.37927499999932,
      "v": 58
    },
    {
      "midi": 49,
      "hit": false,
      "t": 93113.76982500032,
      "d": 1031.0342250000103,
      "v": 68
    },
    {
      "midi": 52,
      "hit": false,
      "t": 93320.66632500032,
      "d": 206.89650000000256,
      "v": 59
    },
    {
      "midi": 57,
      "hit": false,
      "t": 93527.56282500032,
      "d": 217.2413249999954,
      "v": 71
    },
    {
      "midi": 52,
      "hit": false,
      "t": 93734.45932500032,
      "d": 199.99994999999763,
      "v": 61
    },
    {
      "midi": 57,
      "hit": false,
      "t": 93941.35582500033,
      "d": 437.93092500000785,
      "v": 67
    },
    {
      "midi": 52,
      "hit": false,
      "t": 94148.25232500033,
      "d": 199.99994999999763,
      "v": 55
    },
    {
      "midi": 51,
      "hit": false,
      "t": 94355.14882500033,
      "d": 1082.7583500000183,
      "v": 89
    },
    {
      "midi": 54,
      "hit": false,
      "t": 94562.04532500033,
      "d": 244.8275250000006,
      "v": 59
    },
    {
      "midi": 59,
      "hit": false,
      "t": 94768.94182500034,
      "d": 234.48270000000775,
      "v": 67
    },
    {
      "midi": 54,
      "hit": false,
      "t": 94975.83832500034,
      "d": 244.8275250000006,
      "v": 60
    },
    {
      "midi": 59,
      "hit": false,
      "t": 95182.73482500034,
      "d": 396.55162500000733,
      "v": 62
    },
    {
      "midi": 54,
      "hit": false,
      "t": 95389.63132500034,
      "d": 193.10340000000724,
      "v": 59
    },
    {
      "midi": 49,
      "hit": false,
      "t": 95596.52782500035,
      "d": 1041.3790500000177,
      "v": 82
    },
    {
      "midi": 52,
      "hit": false,
      "t": 95803.42432500035,
      "d": 224.13787500000035,
      "v": 59
    },
    {
      "midi": 56,
      "hit": false,
      "t": 96010.32082500035,
      "d": 186.2068500000023,
      "v": 56
    },
    {
      "midi": 52,
      "hit": false,
      "t": 96217.21732500035,
      "d": 203.4482250000001,
      "v": 59
    },
    {
      "midi": 56,
      "hit": false,
      "t": 96424.11382500036,
      "d": 213.7930500000075,
      "v": 62
    },
    {
      "midi": 52,
      "hit": false,
      "t": 96631.01032500036,
      "d": 186.2068500000023,
      "v": 62
    },
    {
      "midi": 49,
      "hit": false,
      "t": 96837.90682500036,
      "d": 1048.2756000000081,
      "v": 81
    },
    {
      "midi": 52,
      "hit": false,
      "t": 97044.80332500036,
      "d": 241.37924999999814,
      "v": 65
    },
    {
      "midi": 57,
      "hit": false,
      "t": 97251.69982500037,
      "d": 224.13787500000035,
      "v": 67
    },
    {
      "midi": 52,
      "hit": false,
      "t": 97458.59632500037,
      "d": 206.89650000000256,
      "v": 61
    },
    {
      "midi": 57,
      "hit": false,
      "t": 97665.49282500037,
      "d": 272.41372499999125,
      "v": 63
    },
    {
      "midi": 52,
      "hit": false,
      "t": 97872.38932500037,
      "d": 162.06892499998503,
      "v": 67
    },
    {
      "midi": 52,
      "hit": false,
      "t": 98079.28582500036,
      "d": 1079.3100750000158,
      "v": 60
    },
    {
      "midi": 56,
      "hit": false,
      "t": 98286.18232500037,
      "d": 224.13787500000035,
      "v": 56
    },
    {
      "midi": 59,
      "hit": false,
      "t": 98493.07882500037,
      "d": 213.7930500000075,
      "v": 67
    },
    {
      "midi": 56,
      "hit": false,
      "t": 98699.97532500037,
      "d": 227.58615000000282,
      "v": 59
    },
    {
      "midi": 59,
      "hit": false,
      "t": 98906.87182500037,
      "d": 382.758525000012,
      "v": 62
    },
    {
      "midi": 56,
      "hit": false,
      "t": 99113.76832500038,
      "d": 210.34477500000503,
      "v": 62
    },
    {
      "midi": 52,
      "hit": false,
      "t": 99320.66482500038,
      "d": 1072.4135250000108,
      "v": 69
    },
    {
      "midi": 51,
      "hit": false,
      "t": 99320.66482500038,
      "d": 1113.7928250000114,
      "v": 85
    },
    {
      "midi": 56,
      "hit": false,
      "t": 99527.56132500038,
      "d": 224.13787500000035,
      "v": 56
    },
    {
      "midi": 59,
      "hit": false,
      "t": 99734.45782500038,
      "d": 203.4482250000001,
      "v": 74
    },
    {
      "midi": 56,
      "hit": false,
      "t": 99941.35432500039,
      "d": 224.13787500000035,
      "v": 59
    },
    {
      "midi": 59,
      "hit": false,
      "t": 100148.25082500039,
      "d": 227.58615000000282,
      "v": 70
    },
    {
      "midi": 56,
      "hit": false,
      "t": 100355.14732500039,
      "d": 189.65512500000477,
      "v": 65
    },
    {
      "midi": 49,
      "hit": false,
      "t": 100562.0438250004,
      "d": 1058.6204250000155,
      "v": 78
    },
    {
      "midi": 52,
      "hit": false,
      "t": 100562.0438250004,
      "d": 1082.7583500000183,
      "v": 60
    },
    {
      "midi": 56,
      "hit": false,
      "t": 100768.9403250004,
      "d": 199.99994999999763,
      "v": 48
    },
    {
      "midi": 59,
      "hit": false,
      "t": 100975.8368250004,
      "d": 203.4482250000001,
      "v": 70
    },
    {
      "midi": 56,
      "hit": false,
      "t": 101182.7333250004,
      "d": 213.7930500000075,
      "v": 56
    },
    {
      "midi": 59,
      "hit": false,
      "t": 101389.6298250004,
      "d": 231.03442500000529,
      "v": 74
    },
    {
      "midi": 56,
      "hit": false,
      "t": 101596.5263250004,
      "d": 196.5516750000097,
      "v": 57
    },
    {
      "midi": 47,
      "hit": false,
      "t": 101803.42282500041,
      "d": 1034.4825000000128,
      "v": 78
    },
    {
      "midi": 52,
      "hit": false,
      "t": 101803.42282500041,
      "d": 1099.999725000016,
      "v": 63
    },
    {
      "midi": 56,
      "hit": false,
      "t": 102010.31932500041,
      "d": 234.48270000000775,
      "v": 58
    },
    {
      "midi": 59,
      "hit": false,
      "t": 102217.21582500041,
      "d": 203.4482250000001,
      "v": 66
    },
    {
      "midi": 56,
      "hit": false,
      "t": 102424.11232500042,
      "d": 182.75857499999984,
      "v": 55
    },
    {
      "midi": 59,
      "hit": false,
      "t": 102631.00882500042,
      "d": 210.34477500000503,
      "v": 74
    },
    {
      "midi": 49,
      "hit": false,
      "t": 103044.80182500042,
      "d": 1031.0342250000103,
      "v": 68
    },
    {
      "midi": 52,
      "hit": false,
      "t": 103251.69832500043,
      "d": 206.89650000000256,
      "v": 59
    },
    {
      "midi": 57,
      "hit": false,
      "t": 103458.59482500043,
      "d": 217.2413249999954,
      "v": 71
    },
    {
      "midi": 52,
      "hit": false,
      "t": 103665.49132500043,
      "d": 199.99994999999763,
      "v": 61
    },
    {
      "midi": 57,
      "hit": false,
      "t": 103872.38782500043,
      "d": 437.93092500000785,
      "v": 67
    },
    {
      "midi": 52,
      "hit": false,
      "t": 104079.28432500044,
      "d": 199.99994999999763,
      "v": 55
    },
    {
      "midi": 51,
      "hit": false,
      "t": 104286.18082500044,
      "d": 1082.7583500000183,
      "v": 89
    },
    {
      "midi": 54,
      "hit": false,
      "t": 104493.07732500044,
      "d": 244.8275250000006,
      "v": 59
    },
    {
      "midi": 59,
      "hit": false,
      "t": 104699.97382500044,
      "d": 234.48270000000775,
      "v": 67
    },
    {
      "midi": 54,
      "hit": false,
      "t": 104906.87032500045,
      "d": 244.8275250000006,
      "v": 60
    },
    {
      "midi": 59,
      "hit": false,
      "t": 105113.76682500045,
      "d": 396.55162500000733,
      "v": 62
    },
    {
      "midi": 54,
      "hit": false,
      "t": 105320.66332500045,
      "d": 193.10340000000724,
      "v": 59
    },
    {
      "midi": 49,
      "hit": false,
      "t": 105527.55982500046,
      "d": 1041.3790500000177,
      "v": 82
    },
    {
      "midi": 52,
      "hit": false,
      "t": 105734.45632500046,
      "d": 224.13787500000035,
      "v": 59
    },
    {
      "midi": 56,
      "hit": false,
      "t": 105941.35282500046,
      "d": 186.2068500000023,
      "v": 56
    },
    {
      "midi": 52,
      "hit": false,
      "t": 106148.24932500046,
      "d": 203.4482250000001,
      "v": 59
    },
    {
      "midi": 56,
      "hit": false,
      "t": 106355.14582500047,
      "d": 213.7930500000075,
      "v": 62
    },
    {
      "midi": 52,
      "hit": false,
      "t": 106562.04232500047,
      "d": 186.2068500000023,
      "v": 62
    },
    {
      "midi": 49,
      "hit": false,
      "t": 106768.93882500047,
      "d": 1048.2756000000081,
      "v": 81
    },
    {
      "midi": 52,
      "hit": false,
      "t": 106975.83532500047,
      "d": 241.37924999999814,
      "v": 65
    },
    {
      "midi": 57,
      "hit": false,
      "t": 107182.73182500048,
      "d": 224.13787500000035,
      "v": 67
    },
    {
      "midi": 52,
      "hit": false,
      "t": 107389.62832500048,
      "d": 206.89650000000256,
      "v": 61
    },
    {
      "midi": 57,
      "hit": false,
      "t": 107596.52482500048,
      "d": 272.41372499999125,
      "v": 63
    },
    {
      "midi": 52,
      "hit": false,
      "t": 107803.42132500048,
      "d": 162.06892499998503,
      "v": 67
    },
    {
      "midi": 51,
      "hit": false,
      "t": 108010.31782500047,
      "d": 1065.516975000006,
      "v": 81
    },
    {
      "midi": 54,
      "hit": false,
      "t": 108217.21432500047,
      "d": 193.10340000000724,
      "v": 58
    },
    {
      "midi": 59,
      "hit": false,
      "t": 108424.11082500048,
      "d": 217.2413249999954,
      "v": 91
    },
    {
      "midi": 54,
      "hit": false,
      "t": 108631.00732500048,
      "d": 213.79304999999295,
      "v": 60
    },
    {
      "midi": 42,
      "hit": false,
      "t": 108837.90382500047,
      "d": 231.03442500000529,
      "v": 82
    },
    {
      "midi": 59,
      "hit": false,
      "t": 108837.90382500047,
      "d": 255.172350000008,
      "v": 77
    },
    {
      "midi": 44,
      "hit": false,
      "t": 109044.80032500047,
      "d": 168.96547500000452,
      "v": 82
    },
    {
      "midi": 54,
      "hit": false,
      "t": 109044.80032500047,
      "d": 203.4482250000001,
      "v": 60
    },
    {
      "midi": 47,
      "hit": false,
      "t": 109251.69682500047,
      "d": 427.58610000000044,
      "v": 77
    },
    {
      "midi": 51,
      "hit": false,
      "t": 109251.69682500047,
      "d": 1179.3100500000146,
      "v": 76
    },
    {
      "midi": 54,
      "hit": false,
      "t": 109458.59332500047,
      "d": 203.4482250000001,
      "v": 60
    },
    {
      "midi": 59,
      "hit": false,
      "t": 109665.48982500048,
      "d": 199.99994999999763,
      "v": 65
    },
    {
      "midi": 54,
      "hit": false,
      "t": 109872.38632500048,
      "d": 186.2068500000023,
      "v": 57
    },
    {
      "midi": 59,
      "hit": false,
      "t": 110079.28282500048,
      "d": 186.2068500000023,
      "v": 63
    },
    {
      "midi": 54,
      "hit": false,
      "t": 110286.17932500048,
      "d": 151.72410000000673,
      "v": 52
    },
    {
      "midi": 51,
      "hit": false,
      "t": 110493.07582500049,
      "d": 1065.5169749999914,
      "v": 81
    },
    {
      "midi": 54,
      "hit": false,
      "t": 110699.97232500049,
      "d": 193.10340000000724,
      "v": 58
    },
    {
      "midi": 59,
      "hit": false,
      "t": 110906.86882500049,
      "d": 217.2413249999954,
      "v": 91
    },
    {
      "midi": 52,
      "hit": false,
      "t": 110906.86882500049,
      "d": 372.41369999999006,
      "v": 65
    },
    {
      "midi": 54,
      "hit": false,
      "t": 111113.7653250005,
      "d": 213.79304999999295,
      "v": 60
    },
    {
      "midi": 59,
      "hit": false,
      "t": 111320.66182500048,
      "d": 255.17234999999346,
      "v": 77
    },
    {
      "midi": 52,
      "hit": false,
      "t": 111320.66182500048,
      "d": 299.99992499999644,
      "v": 74
    },
    {
      "midi": 54,
      "hit": false,
      "t": 111527.55832500049,
      "d": 203.4482250000001,
      "v": 60
    },
    {
      "midi": 51,
      "hit": false,
      "t": 111734.45482500049,
      "d": 1179.3100500000146,
      "v": 76
    },
    {
      "midi": 54,
      "hit": false,
      "t": 111941.35132500049,
      "d": 203.4482250000001,
      "v": 60
    },
    {
      "midi": 59,
      "hit": false,
      "t": 112148.2478250005,
      "d": 199.99994999999763,
      "v": 65
    },
    {
      "midi": 54,
      "hit": false,
      "t": 112355.1443250005,
      "d": 186.2068500000023,
      "v": 57
    },
    {
      "midi": 59,
      "hit": false,
      "t": 112562.0408250005,
      "d": 186.2068500000023,
      "v": 63
    },
    {
      "midi": 54,
      "hit": false,
      "t": 112768.9373250005,
      "d": 151.72410000000673,
      "v": 52
    },
    {
      "midi": 49,
      "hit": false,
      "t": 112975.8338250005,
      "d": 1031.0342250000103,
      "v": 68
    },
    {
      "midi": 52,
      "hit": false,
      "t": 113182.7303250005,
      "d": 206.89650000000256,
      "v": 59
    },
    {
      "midi": 57,
      "hit": false,
      "t": 113389.62682500051,
      "d": 217.2413249999954,
      "v": 71
    },
    {
      "midi": 52,
      "hit": false,
      "t": 113596.52332500051,
      "d": 199.99994999999763,
      "v": 61
    },
    {
      "midi": 57,
      "hit": false,
      "t": 113803.41982500051,
      "d": 437.93092500000785,
      "v": 67
    },
    {
      "midi": 52,
      "hit": false,
      "t": 114010.31632500052,
      "d": 199.99994999999763,
      "v": 55
    },
    {
      "midi": 51,
      "hit": false,
      "t": 114217.21282500052,
      "d": 1082.7583500000183,
      "v": 89
    },
    {
      "midi": 54,
      "hit": false,
      "t": 114424.10932500052,
      "d": 244.8275250000006,
      "v": 59
    },
    {
      "midi": 59,
      "hit": false,
      "t": 114631.00582500052,
      "d": 234.48270000000775,
      "v": 67
    },
    {
      "midi": 54,
      "hit": false,
      "t": 114837.90232500053,
      "d": 244.8275250000006,
      "v": 60
    },
    {
      "midi": 59,
      "hit": false,
      "t": 115044.79882500053,
      "d": 396.55162500000733,
      "v": 62
    },
    {
      "midi": 54,
      "hit": false,
      "t": 115251.69532500053,
      "d": 193.10340000000724,
      "v": 59
    },
    {
      "midi": 49,
      "hit": false,
      "t": 115458.59182500053,
      "d": 1041.3790500000177,
      "v": 82
    },
    {
      "midi": 52,
      "hit": false,
      "t": 115665.48832500054,
      "d": 224.13787500000035,
      "v": 59
    },
    {
      "midi": 56,
      "hit": false,
      "t": 115872.38482500054,
      "d": 186.2068500000023,
      "v": 56
    },
    {
      "midi": 52,
      "hit": false,
      "t": 116079.28132500054,
      "d": 203.4482250000001,
      "v": 59
    },
    {
      "midi": 56,
      "hit": false,
      "t": 116286.17782500054,
      "d": 213.7930500000075,
      "v": 62
    },
    {
      "midi": 52,
      "hit": false,
      "t": 116493.07432500055,
      "d": 186.2068500000023,
      "v": 62
    },
    {
      "midi": 49,
      "hit": false,
      "t": 116699.97082500055,
      "d": 1048.2756000000081,
      "v": 81
    },
    {
      "midi": 52,
      "hit": false,
      "t": 116906.86732500055,
      "d": 241.37924999999814,
      "v": 65
    },
    {
      "midi": 57,
      "hit": false,
      "t": 117113.76382500055,
      "d": 224.13787500000035,
      "v": 67
    },
    {
      "midi": 52,
      "hit": false,
      "t": 117320.66032500056,
      "d": 206.89650000000256,
      "v": 61
    },
    {
      "midi": 57,
      "hit": false,
      "t": 117527.55682500056,
      "d": 272.41372499999125,
      "v": 63
    },
    {
      "midi": 52,
      "hit": false,
      "t": 117734.45332500056,
      "d": 162.06892499998503,
      "v": 67
    },
    {
      "midi": 52,
      "hit": false,
      "t": 117941.34982500055,
      "d": 1079.3100750000158,
      "v": 60
    },
    {
      "midi": 56,
      "hit": false,
      "t": 118148.24632500055,
      "d": 224.13787500000035,
      "v": 56
    },
    {
      "midi": 59,
      "hit": false,
      "t": 118355.14282500056,
      "d": 213.7930500000075,
      "v": 67
    },
    {
      "midi": 56,
      "hit": false,
      "t": 118562.03932500056,
      "d": 227.58615000000282,
      "v": 59
    },
    {
      "midi": 59,
      "hit": false,
      "t": 118768.93582500056,
      "d": 382.758525000012,
      "v": 62
    },
    {
      "midi": 56,
      "hit": false,
      "t": 118975.83232500056,
      "d": 210.34477500000503,
      "v": 62
    },
    {
      "midi": 52,
      "hit": false,
      "t": 119182.72882500057,
      "d": 1072.4135250000108,
      "v": 69
    },
    {
      "midi": 51,
      "hit": false,
      "t": 119182.72882500057,
      "d": 1113.7928250000114,
      "v": 85
    },
    {
      "midi": 56,
      "hit": false,
      "t": 119389.62532500057,
      "d": 224.13787500000035,
      "v": 56
    },
    {
      "midi": 59,
      "hit": false,
      "t": 119596.52182500057,
      "d": 203.4482250000001,
      "v": 74
    },
    {
      "midi": 56,
      "hit": false,
      "t": 119803.41832500057,
      "d": 224.13787500000035,
      "v": 59
    },
    {
      "midi": 59,
      "hit": false,
      "t": 120010.31482500058,
      "d": 227.58615000000282,
      "v": 70
    },
    {
      "midi": 56,
      "hit": false,
      "t": 120217.21132500058,
      "d": 189.65512500000477,
      "v": 65
    },
    {
      "midi": 49,
      "hit": false,
      "t": 120424.10782500058,
      "d": 1058.6204250000155,
      "v": 78
    },
    {
      "midi": 52,
      "hit": false,
      "t": 120424.10782500058,
      "d": 1082.7583500000183,
      "v": 60
    },
    {
      "midi": 56,
      "hit": false,
      "t": 120631.00432500058,
      "d": 199.99994999999763,
      "v": 48
    },
    {
      "midi": 59,
      "hit": false,
      "t": 120837.90082500059,
      "d": 203.4482250000001,
      "v": 70
    },
    {
      "midi": 56,
      "hit": false,
      "t": 121044.79732500059,
      "d": 213.7930500000075,
      "v": 56
    },
    {
      "midi": 59,
      "hit": false,
      "t": 121251.69382500059,
      "d": 231.03442500000529,
      "v": 74
    },
    {
      "midi": 56,
      "hit": false,
      "t": 121458.5903250006,
      "d": 196.5516750000097,
      "v": 57
    },
    {
      "midi": 47,
      "hit": false,
      "t": 121665.4868250006,
      "d": 1034.4825000000128,
      "v": 78
    },
    {
      "midi": 52,
      "hit": false,
      "t": 121665.4868250006,
      "d": 1099.999725000016,
      "v": 63
    },
    {
      "midi": 56,
      "hit": false,
      "t": 121872.3833250006,
      "d": 234.48270000000775,
      "v": 58
    },
    {
      "midi": 59,
      "hit": false,
      "t": 122079.2798250006,
      "d": 203.4482250000001,
      "v": 66
    },
    {
      "midi": 56,
      "hit": false,
      "t": 122286.1763250006,
      "d": 182.75857499999984,
      "v": 55
    },
    {
      "midi": 59,
      "hit": false,
      "t": 122493.0728250006,
      "d": 210.34477500000503,
      "v": 74
    },
    {
      "midi": 49,
      "hit": false,
      "t": 122906.86582500061,
      "d": 1031.0342250000103,
      "v": 68
    },
    {
      "midi": 52,
      "hit": false,
      "t": 123113.76232500061,
      "d": 206.89650000000256,
      "v": 59
    },
    {
      "midi": 57,
      "hit": false,
      "t": 123320.65882500062,
      "d": 217.2413249999954,
      "v": 71
    },
    {
      "midi": 52,
      "hit": false,
      "t": 123527.55532500062,
      "d": 199.99994999999763,
      "v": 61
    },
    {
      "midi": 57,
      "hit": false,
      "t": 123734.45182500062,
      "d": 437.93092500000785,
      "v": 67
    },
    {
      "midi": 52,
      "hit": false,
      "t": 123941.34832500062,
      "d": 199.99994999999763,
      "v": 55
    },
    {
      "midi": 51,
      "hit": false,
      "t": 124148.24482500063,
      "d": 1048.2756000000081,
      "v": 65
    },
    {
      "midi": 56,
      "hit": false,
      "t": 124355.14132500063,
      "d": 206.89650000000256,
      "v": 59
    },
    {
      "midi": 59,
      "hit": false,
      "t": 124562.03782500063,
      "d": 227.58615000000282,
      "v": 85
    },
    {
      "midi": 56,
      "hit": false,
      "t": 124768.93432500063,
      "d": 179.31029999999737,
      "v": 59
    },
    {
      "midi": 59,
      "hit": false,
      "t": 124975.83082500064,
      "d": 368.96542500000214,
      "v": 78
    },
    {
      "midi": 56,
      "hit": false,
      "t": 125182.72732500064,
      "d": 179.31029999999737,
      "v": 62
    },
    {
      "midi": 49,
      "hit": false,
      "t": 125389.62382500064,
      "d": 1072.4135249999963,
      "v": 91
    },
    {
      "midi": 54,
      "hit": false,
      "t": 125596.52032500065,
      "d": 189.65512500000477,
      "v": 60
    },
    {
      "midi": 57,
      "hit": false,
      "t": 125803.41682500065,
      "d": 206.89650000000256,
      "v": 67
    },
    {
      "midi": 54,
      "hit": false,
      "t": 126010.31332500065,
      "d": 196.55167499999516,
      "v": 63
    },
    {
      "midi": 57,
      "hit": false,
      "t": 126217.20982500064,
      "d": 241.37924999999814,
      "v": 70
    },
    {
      "midi": 54,
      "hit": false,
      "t": 126424.10632500064,
      "d": 196.55167499999516,
      "v": 70
    },
    {
      "midi": 51,
      "hit": false,
      "t": 126631.00282500063,
      "d": 1224.1376250000176,
      "v": 87
    },
    {
      "midi": 54,
      "hit": false,
      "t": 126837.89932500063,
      "d": 237.93097499999567,
      "v": 65
    },
    {
      "midi": 57,
      "hit": false,
      "t": 127044.79582500063,
      "d": 203.4482250000001,
      "v": 73
    },
    {
      "midi": 59,
      "hit": false,
      "t": 127251.69232500064,
      "d": 186.2068500000023,
      "v": 76
    },
    {
      "midi": 57,
      "hit": false,
      "t": 127458.58882500064,
      "d": 206.89650000000256,
      "v": 79
    },
    {
      "midi": 59,
      "hit": false,
      "t": 127665.48532500064,
      "d": 144.8275500000018,
      "v": 74
    },
    {
      "midi": 52,
      "hit": false,
      "t": 127872.38182500064,
      "d": 1103.4480000000185,
      "v": 71
    },
    {
      "midi": 56,
      "hit": false,
      "t": 128079.27832500065,
      "d": 189.65512500000477,
      "v": 57
    },
    {
      "midi": 59,
      "hit": false,
      "t": 128286.17482500065,
      "d": 227.58615000000282,
      "v": 76
    },
    {
      "midi": 56,
      "hit": false,
      "t": 128493.07132500065,
      "d": 182.75857499999984,
      "v": 59
    },
    {
      "midi": 59,
      "hit": false,
      "t": 128699.96782500065,
      "d": 234.48270000000775,
      "v": 76
    },
    {
      "midi": 56,
      "hit": false,
      "t": 128906.86432500066,
      "d": 189.65512500000477,
      "v": 60
    },
    {
      "midi": 57,
      "hit": false,
      "t": 129113.76082500066,
      "d": 1106.8962749999773,
      "v": 82
    },
    {
      "midi": 52,
      "hit": false,
      "t": 129113.76082500066,
      "d": 1144.8272999999754,
      "v": 77
    },
    {
      "midi": 56,
      "hit": false,
      "t": 129320.65732500066,
      "d": 196.55167499999516,
      "v": 54
    },
    {
      "midi": 59,
      "hit": false,
      "t": 129527.55382500065,
      "d": 199.99994999999763,
      "v": 59
    },
    {
      "midi": 56,
      "hit": false,
      "t": 129734.45032500065,
      "d": 217.2413249999954,
      "v": 58
    },
    {
      "midi": 59,
      "hit": false,
      "t": 129941.34682500066,
      "d": 217.24132499998086,
      "v": 73
    },
    {
      "midi": 56,
      "hit": false,
      "t": 130148.24332500064,
      "d": 199.99994999999763,
      "v": 60
    },
    {
      "midi": 44,
      "hit": false,
      "t": 130355.13982500065,
      "d": 1082.7583500000328,
      "v": 68
    },
    {
      "midi": 52,
      "hit": false,
      "t": 130355.13982500065,
      "d": 1120.6893750000309,
      "v": 70
    },
    {
      "midi": 56,
      "hit": false,
      "t": 130562.03632500065,
      "d": 206.89650000000256,
      "v": 58
    },
    {
      "midi": 59,
      "hit": false,
      "t": 130768.93282500065,
      "d": 227.58615000000282,
      "v": 80
    },
    {
      "midi": 56,
      "hit": false,
      "t": 130975.82932500065,
      "d": 203.44822500001465,
      "v": 61
    },
    {
      "midi": 59,
      "hit": false,
      "t": 131182.72582500067,
      "d": 210.34477500000503,
      "v": 72
    },
    {
      "midi": 56,
      "hit": false,
      "t": 131389.62232500067,
      "d": 189.65512499999022,
      "v": 61
    },
    {
      "midi": 57,
      "hit": false,
      "t": 131596.51882500068,
      "d": 1055.1721500000276,
      "v": 70
    },
    {
      "midi": 52,
      "hit": false,
      "t": 131596.51882500068,
      "d": 1231.034175000037,
      "v": 76
    },
    {
      "midi": 56,
      "hit": false,
      "t": 131803.41532500068,
      "d": 210.34477500000503,
      "v": 59
    },
    {
      "midi": 59,
      "hit": false,
      "t": 132010.31182500068,
      "d": 206.89650000000256,
      "v": 77
    },
    {
      "midi": 56,
      "hit": false,
      "t": 132217.20832500068,
      "d": 231.03442499999073,
      "v": 60
    },
    {
      "midi": 59,
      "hit": false,
      "t": 132424.1048250007,
      "d": 213.7930500000075,
      "v": 81
    },
    {
      "midi": 56,
      "hit": false,
      "t": 132631.0013250007,
      "d": 141.37927500001388,
      "v": 58
    },
    {
      "midi": 49,
      "hit": false,
      "t": 132837.89782500072,
      "d": 1031.0342250000103,
      "v": 68
    },
    {
      "midi": 52,
      "hit": false,
      "t": 133044.79432500072,
      "d": 206.89650000000256,
      "v": 59
    },
    {
      "midi": 57,
      "hit": false,
      "t": 133251.69082500073,
      "d": 217.24132500000997,
      "v": 71
    },
    {
      "midi": 52,
      "hit": false,
      "t": 133458.58732500073,
      "d": 199.99994999999763,
      "v": 61
    },
    {
      "midi": 57,
      "hit": false,
      "t": 133665.48382500073,
      "d": 437.9309249999933,
      "v": 67
    },
    {
      "midi": 52,
      "hit": false,
      "t": 133872.38032500073,
      "d": 199.99994999999763,
      "v": 55
    },
    {
      "midi": 51,
      "hit": false,
      "t": 134079.27682500074,
      "d": 1082.7583500000183,
      "v": 89
    },
    {
      "midi": 54,
      "hit": false,
      "t": 134286.17332500074,
      "d": 244.8275250000006,
      "v": 59
    },
    {
      "midi": 59,
      "hit": false,
      "t": 134493.06982500074,
      "d": 234.4826999999932,
      "v": 67
    },
    {
      "midi": 54,
      "hit": false,
      "t": 134699.96632500074,
      "d": 244.8275250000006,
      "v": 60
    },
    {
      "midi": 59,
      "hit": false,
      "t": 134906.86282500075,
      "d": 396.5516250000219,
      "v": 62
    },
    {
      "midi": 54,
      "hit": false,
      "t": 135113.75932500075,
      "d": 193.1034000000218,
      "v": 59
    },
    {
      "midi": 49,
      "hit": false,
      "t": 135320.65582500078,
      "d": 1041.3790500000177,
      "v": 82
    },
    {
      "midi": 52,
      "hit": false,
      "t": 135527.55232500078,
      "d": 224.1378750000149,
      "v": 59
    },
    {
      "midi": 56,
      "hit": false,
      "t": 135734.44882500079,
      "d": 186.20685000001686,
      "v": 56
    },
    {
      "midi": 52,
      "hit": false,
      "t": 135941.3453250008,
      "d": 203.4482250000001,
      "v": 59
    },
    {
      "midi": 56,
      "hit": false,
      "t": 136148.2418250008,
      "d": 213.7930500000075,
      "v": 62
    },
    {
      "midi": 52,
      "hit": false,
      "t": 136355.1383250008,
      "d": 186.20685000001686,
      "v": 62
    },
    {
      "midi": 49,
      "hit": false,
      "t": 136562.0348250008,
      "d": 1048.2756000000227,
      "v": 81
    },
    {
      "midi": 52,
      "hit": false,
      "t": 136768.9313250008,
      "d": 241.37924999999814,
      "v": 65
    },
    {
      "midi": 57,
      "hit": false,
      "t": 136975.8278250008,
      "d": 224.1378750000149,
      "v": 67
    },
    {
      "midi": 52,
      "hit": false,
      "t": 137182.7243250008,
      "d": 206.89650000000256,
      "v": 61
    },
    {
      "midi": 57,
      "hit": false,
      "t": 137389.6208250008,
      "d": 272.41372500002035,
      "v": 63
    },
    {
      "midi": 52,
      "hit": false,
      "t": 137596.5173250008,
      "d": 162.06892500002868,
      "v": 67
    },
    {
      "midi": 52,
      "hit": false,
      "t": 137803.41382500084,
      "d": 1079.3100749999867,
      "v": 60
    },
    {
      "midi": 56,
      "hit": false,
      "t": 138010.31032500084,
      "d": 224.1378750000149,
      "v": 56
    },
    {
      "midi": 59,
      "hit": false,
      "t": 138217.20682500085,
      "d": 213.7930500000075,
      "v": 67
    },
    {
      "midi": 56,
      "hit": false,
      "t": 138424.10332500085,
      "d": 227.58614999998827,
      "v": 59
    },
    {
      "midi": 59,
      "hit": false,
      "t": 138630.99982500085,
      "d": 382.7585249999829,
      "v": 62
    },
    {
      "midi": 56,
      "hit": false,
      "t": 138837.89632500082,
      "d": 210.34477500000503,
      "v": 62
    },
    {
      "midi": 52,
      "hit": false,
      "t": 139044.79282500083,
      "d": 1072.4135250000108,
      "v": 69
    },
    {
      "midi": 51,
      "hit": false,
      "t": 139044.79282500083,
      "d": 1113.7928250000114,
      "v": 85
    },
    {
      "midi": 56,
      "hit": false,
      "t": 139251.68932500083,
      "d": 224.1378750000149,
      "v": 56
    },
    {
      "midi": 59,
      "hit": false,
      "t": 139458.58582500083,
      "d": 203.4482250000001,
      "v": 74
    },
    {
      "midi": 56,
      "hit": false,
      "t": 139665.48232500083,
      "d": 224.1378750000149,
      "v": 59
    },
    {
      "midi": 59,
      "hit": false,
      "t": 139872.37882500084,
      "d": 227.58614999998827,
      "v": 70
    },
    {
      "midi": 56,
      "hit": false,
      "t": 140079.27532500084,
      "d": 189.65512499999022,
      "v": 65
    },
    {
      "midi": 49,
      "hit": false,
      "t": 140286.17182500084,
      "d": 1058.620425000001,
      "v": 78
    },
    {
      "midi": 52,
      "hit": false,
      "t": 140286.17182500084,
      "d": 1082.7583499999892,
      "v": 60
    },
    {
      "midi": 56,
      "hit": false,
      "t": 140493.06832500084,
      "d": 199.99994999999763,
      "v": 48
    },
    {
      "midi": 59,
      "hit": false,
      "t": 140699.96482500085,
      "d": 203.4482250000001,
      "v": 70
    },
    {
      "midi": 56,
      "hit": false,
      "t": 140906.86132500085,
      "d": 213.7930500000075,
      "v": 56
    },
    {
      "midi": 59,
      "hit": false,
      "t": 141113.75782500085,
      "d": 231.03442499999073,
      "v": 74
    },
    {
      "midi": 56,
      "hit": false,
      "t": 141320.65432500085,
      "d": 196.55167499996605,
      "v": 57
    },
    {
      "midi": 47,
      "hit": false,
      "t": 141527.55082500083,
      "d": 1034.4825000000128,
      "v": 78
    },
    {
      "midi": 52,
      "hit": false,
      "t": 141527.55082500083,
      "d": 1099.9997250000015,
      "v": 63
    },
    {
      "midi": 56,
      "hit": false,
      "t": 141734.44732500083,
      "d": 234.4826999999932,
      "v": 58
    },
    {
      "midi": 59,
      "hit": false,
      "t": 141941.34382500083,
      "d": 203.4482250000001,
      "v": 66
    },
    {
      "midi": 56,
      "hit": false,
      "t": 142148.24032500084,
      "d": 182.7585750000144,
      "v": 55
    },
    {
      "midi": 59,
      "hit": false,
      "t": 142355.13682500084,
      "d": 210.34477500000503,
      "v": 74
    },
    {
      "midi": 49,
      "hit": false,
      "t": 142768.92982500084,
      "d": 1031.0342250000103,
      "v": 68
    },
    {
      "midi": 52,
      "hit": false,
      "t": 142975.82632500085,
      "d": 206.89650000000256,
      "v": 59
    },
    {
      "midi": 57,
      "hit": false,
      "t": 143182.72282500085,
      "d": 217.24132500000997,
      "v": 71
    },
    {
      "midi": 52,
      "hit": false,
      "t": 143389.61932500085,
      "d": 199.99994999999763,
      "v": 61
    },
    {
      "midi": 57,
      "hit": false,
      "t": 143596.51582500085,
      "d": 437.9309249999933,
      "v": 67
    },
    {
      "midi": 52,
      "hit": false,
      "t": 143803.41232500086,
      "d": 199.99994999999763,
      "v": 55
    },
    {
      "midi": 51,
      "hit": false,
      "t": 144010.30882500086,
      "d": 1082.7583500000183,
      "v": 89
    },
    {
      "midi": 54,
      "hit": false,
      "t": 144217.20532500086,
      "d": 244.8275250000006,
      "v": 59
    },
    {
      "midi": 59,
      "hit": false,
      "t": 144424.10182500086,
      "d": 234.4826999999932,
      "v": 67
    },
    {
      "midi": 54,
      "hit": false,
      "t": 144630.99832500087,
      "d": 244.8275250000006,
      "v": 60
    },
    {
      "midi": 59,
      "hit": false,
      "t": 144837.89482500087,
      "d": 396.5516250000219,
      "v": 62
    },
    {
      "midi": 54,
      "hit": false,
      "t": 145044.79132500087,
      "d": 193.1034000000218,
      "v": 59
    },
    {
      "midi": 49,
      "hit": false,
      "t": 145251.6878250009,
      "d": 1041.3790500000177,
      "v": 82
    },
    {
      "midi": 52,
      "hit": false,
      "t": 145458.5843250009,
      "d": 224.1378750000149,
      "v": 59
    },
    {
      "midi": 56,
      "hit": false,
      "t": 145665.4808250009,
      "d": 186.20685000001686,
      "v": 56
    },
    {
      "midi": 52,
      "hit": false,
      "t": 145872.3773250009,
      "d": 203.4482250000001,
      "v": 59
    },
    {
      "midi": 56,
      "hit": false,
      "t": 146079.2738250009,
      "d": 213.7930500000075,
      "v": 62
    },
    {
      "midi": 52,
      "hit": false,
      "t": 146286.17032500092,
      "d": 186.20685000001686,
      "v": 62
    },
    {
      "midi": 49,
      "hit": false,
      "t": 146493.06682500092,
      "d": 1048.2756000000227,
      "v": 81
    },
    {
      "midi": 52,
      "hit": false,
      "t": 146699.96332500092,
      "d": 241.37924999999814,
      "v": 65
    },
    {
      "midi": 57,
      "hit": false,
      "t": 146906.85982500092,
      "d": 224.1378750000149,
      "v": 67
    },
    {
      "midi": 52,
      "hit": false,
      "t": 147113.75632500093,
      "d": 206.89650000000256,
      "v": 61
    },
    {
      "midi": 57,
      "hit": false,
      "t": 147320.65282500093,
      "d": 272.41372500002035,
      "v": 63
    },
    {
      "midi": 52,
      "hit": false,
      "t": 147527.54932500093,
      "d": 162.06892500002868,
      "v": 67
    },
    {
      "midi": 51,
      "hit": false,
      "t": 147734.44582500096,
      "d": 1065.516975000006,
      "v": 81
    },
    {
      "midi": 54,
      "hit": false,
      "t": 147941.34232500097,
      "d": 193.1033999999927,
      "v": 58
    },
    {
      "midi": 59,
      "hit": false,
      "t": 148148.23882500097,
      "d": 217.24132500000997,
      "v": 91
    },
    {
      "midi": 54,
      "hit": false,
      "t": 148355.13532500097,
      "d": 213.7930500000075,
      "v": 60
    },
    {
      "midi": 42,
      "hit": false,
      "t": 148562.03182500097,
      "d": 231.03442499999073,
      "v": 82
    },
    {
      "midi": 59,
      "hit": false,
      "t": 148562.03182500097,
      "d": 255.172350000008,
      "v": 77
    },
    {
      "midi": 44,
      "hit": false,
      "t": 148768.92832500098,
      "d": 168.96547500000452,
      "v": 82
    },
    {
      "midi": 54,
      "hit": false,
      "t": 148768.92832500098,
      "d": 203.4482250000001,
      "v": 60
    },
    {
      "midi": 47,
      "hit": false,
      "t": 148975.82482500098,
      "d": 427.586100000015,
      "v": 77
    },
    {
      "midi": 51,
      "hit": false,
      "t": 148975.82482500098,
      "d": 1179.3100499999418,
      "v": 76
    },
    {
      "midi": 54,
      "hit": false,
      "t": 149182.72132500098,
      "d": 203.4482250000001,
      "v": 60
    },
    {
      "midi": 59,
      "hit": false,
      "t": 149389.61782500098,
      "d": 199.99994999999763,
      "v": 65
    },
    {
      "midi": 54,
      "hit": false,
      "t": 149596.514325001,
      "d": 186.20684999998775,
      "v": 57
    },
    {
      "midi": 59,
      "hit": false,
      "t": 149803.41082500096,
      "d": 186.20684999998775,
      "v": 63
    },
    {
      "midi": 54,
      "hit": false,
      "t": 150010.30732500093,
      "d": 151.72409999999218,
      "v": 52
    },
    {
      "midi": 51,
      "hit": false,
      "t": 150217.20382500094,
      "d": 1065.516975000006,
      "v": 81
    },
    {
      "midi": 54,
      "hit": false,
      "t": 150424.10032500094,
      "d": 193.1033999999927,
      "v": 58
    },
    {
      "midi": 59,
      "hit": false,
      "t": 150630.99682500094,
      "d": 217.24132500000997,
      "v": 91
    },
    {
      "midi": 52,
      "hit": false,
      "t": 150630.99682500094,
      "d": 372.4137000000046,
      "v": 65
    },
    {
      "midi": 54,
      "hit": false,
      "t": 150837.89332500094,
      "d": 213.7930500000075,
      "v": 60
    },
    {
      "midi": 59,
      "hit": false,
      "t": 151044.78982500095,
      "d": 255.172350000008,
      "v": 77
    },
    {
      "midi": 52,
      "hit": false,
      "t": 151044.78982500095,
      "d": 299.999925000011,
      "v": 74
    },
    {
      "midi": 54,
      "hit": false,
      "t": 151251.68632500095,
      "d": 203.4482250000001,
      "v": 60
    },
    {
      "midi": 51,
      "hit": false,
      "t": 151458.58282500095,
      "d": 1179.3100499999418,
      "v": 76
    },
    {
      "midi": 54,
      "hit": false,
      "t": 151665.47932500095,
      "d": 203.4482250000001,
      "v": 60
    },
    {
      "midi": 59,
      "hit": false,
      "t": 151872.37582500096,
      "d": 199.99994999999763,
      "v": 65
    },
    {
      "midi": 54,
      "hit": false,
      "t": 152079.27232500096,
      "d": 186.20684999998775,
      "v": 57
    },
    {
      "midi": 59,
      "hit": false,
      "t": 152286.16882500093,
      "d": 186.20684999998775,
      "v": 63
    },
    {
      "midi": 54,
      "hit": false,
      "t": 152493.0653250009,
      "d": 151.72409999999218,
      "v": 52
    },
    {
      "midi": 49,
      "hit": false,
      "t": 152699.9618250009,
      "d": 1031.0342250000103,
      "v": 68
    },
    {
      "midi": 52,
      "hit": false,
      "t": 152906.8583250009,
      "d": 206.89650000000256,
      "v": 59
    },
    {
      "midi": 57,
      "hit": false,
      "t": 153113.7548250009,
      "d": 217.24132500000997,
      "v": 71
    },
    {
      "midi": 52,
      "hit": false,
      "t": 153320.65132500092,
      "d": 199.99994999999763,
      "v": 61
    },
    {
      "midi": 57,
      "hit": false,
      "t": 153527.54782500092,
      "d": 437.9309249999933,
      "v": 67
    },
    {
      "midi": 52,
      "hit": false,
      "t": 153734.44432500092,
      "d": 199.99994999999763,
      "v": 55
    },
    {
      "midi": 51,
      "hit": false,
      "t": 153941.34082500092,
      "d": 1082.7583500000183,
      "v": 89
    },
    {
      "midi": 54,
      "hit": false,
      "t": 154148.23732500093,
      "d": 244.8275250000006,
      "v": 59
    },
    {
      "midi": 59,
      "hit": false,
      "t": 154355.13382500093,
      "d": 234.4826999999932,
      "v": 67
    },
    {
      "midi": 54,
      "hit": false,
      "t": 154562.03032500093,
      "d": 244.8275250000006,
      "v": 60
    },
    {
      "midi": 59,
      "hit": false,
      "t": 154768.92682500093,
      "d": 396.5516250000219,
      "v": 62
    },
    {
      "midi": 54,
      "hit": false,
      "t": 154975.82332500094,
      "d": 193.1034000000218,
      "v": 59
    },
    {
      "midi": 49,
      "hit": false,
      "t": 155182.71982500097,
      "d": 1041.3790500000177,
      "v": 82
    },
    {
      "midi": 52,
      "hit": false,
      "t": 155389.61632500097,
      "d": 224.1378750000149,
      "v": 59
    },
    {
      "midi": 56,
      "hit": false,
      "t": 155596.51282500097,
      "d": 186.20685000001686,
      "v": 56
    },
    {
      "midi": 52,
      "hit": false,
      "t": 155803.40932500098,
      "d": 203.4482250000001,
      "v": 59
    },
    {
      "midi": 56,
      "hit": false,
      "t": 156010.30582500098,
      "d": 213.7930500000075,
      "v": 62
    },
    {
      "midi": 52,
      "hit": false,
      "t": 156217.20232500098,
      "d": 186.20685000001686,
      "v": 62
    },
    {
      "midi": 49,
      "hit": false,
      "t": 156424.09882500098,
      "d": 1048.2756000000227,
      "v": 81
    },
    {
      "midi": 52,
      "hit": false,
      "t": 156630.995325001,
      "d": 241.37924999999814,
      "v": 65
    },
    {
      "midi": 57,
      "hit": false,
      "t": 156837.891825001,
      "d": 224.1378750000149,
      "v": 67
    },
    {
      "midi": 52,
      "hit": false,
      "t": 157044.788325001,
      "d": 206.89650000000256,
      "v": 61
    },
    {
      "midi": 57,
      "hit": false,
      "t": 157251.684825001,
      "d": 272.41372500002035,
      "v": 63
    },
    {
      "midi": 52,
      "hit": false,
      "t": 157458.581325001,
      "d": 162.06892500002868,
      "v": 67
    },
    {
      "midi": 52,
      "hit": false,
      "t": 157665.47782500103,
      "d": 1079.3100749999867,
      "v": 60
    },
    {
      "midi": 56,
      "hit": false,
      "t": 157872.37432500103,
      "d": 224.1378750000149,
      "v": 56
    },
    {
      "midi": 59,
      "hit": false,
      "t": 158079.27082500103,
      "d": 213.7930500000075,
      "v": 67
    },
    {
      "midi": 56,
      "hit": false,
      "t": 158286.16732500104,
      "d": 227.58614999998827,
      "v": 59
    },
    {
      "midi": 59,
      "hit": false,
      "t": 158493.06382500104,
      "d": 382.7585249999829,
      "v": 62
    },
    {
      "midi": 56,
      "hit": false,
      "t": 158699.960325001,
      "d": 210.34477500000503,
      "v": 62
    },
    {
      "midi": 52,
      "hit": false,
      "t": 158906.856825001,
      "d": 1072.4135250000108,
      "v": 69
    },
    {
      "midi": 51,
      "hit": false,
      "t": 158906.856825001,
      "d": 1113.7928250000114,
      "v": 85
    },
    {
      "midi": 56,
      "hit": false,
      "t": 159113.75332500102,
      "d": 224.1378750000149,
      "v": 56
    },
    {
      "midi": 59,
      "hit": false,
      "t": 159320.64982500102,
      "d": 203.4482250000001,
      "v": 74
    },
    {
      "midi": 56,
      "hit": false,
      "t": 159527.54632500102,
      "d": 224.1378750000149,
      "v": 59
    },
    {
      "midi": 59,
      "hit": false,
      "t": 159734.44282500102,
      "d": 227.58614999998827,
      "v": 70
    },
    {
      "midi": 56,
      "hit": false,
      "t": 159941.33932500103,
      "d": 189.65512499999022,
      "v": 65
    },
    {
      "midi": 49,
      "hit": false,
      "t": 160148.23582500103,
      "d": 1058.620425000001,
      "v": 78
    },
    {
      "midi": 52,
      "hit": false,
      "t": 160148.23582500103,
      "d": 1082.7583499999892,
      "v": 60
    },
    {
      "midi": 56,
      "hit": false,
      "t": 160355.13232500103,
      "d": 199.99994999999763,
      "v": 48
    },
    {
      "midi": 59,
      "hit": false,
      "t": 160562.02882500103,
      "d": 203.4482250000001,
      "v": 70
    },
    {
      "midi": 56,
      "hit": false,
      "t": 160768.92532500104,
      "d": 213.7930500000075,
      "v": 56
    },
    {
      "midi": 59,
      "hit": false,
      "t": 160975.82182500104,
      "d": 231.03442499999073,
      "v": 74
    },
    {
      "midi": 56,
      "hit": false,
      "t": 161182.71832500104,
      "d": 196.55167499996605,
      "v": 57
    },
    {
      "midi": 47,
      "hit": false,
      "t": 161389.61482500102,
      "d": 1034.4825000000128,
      "v": 78
    },
    {
      "midi": 52,
      "hit": false,
      "t": 161389.61482500102,
      "d": 1099.9997250000015,
      "v": 63
    },
    {
      "midi": 56,
      "hit": false,
      "t": 161596.51132500102,
      "d": 234.4826999999932,
      "v": 58
    },
    {
      "midi": 59,
      "hit": false,
      "t": 161803.40782500102,
      "d": 203.4482250000001,
      "v": 66
    },
    {
      "midi": 56,
      "hit": false,
      "t": 162010.30432500102,
      "d": 182.7585750000144,
      "v": 55
    },
    {
      "midi": 59,
      "hit": false,
      "t": 162217.20082500103,
      "d": 210.34477500000503,
      "v": 74
    },
    {
      "midi": 49,
      "hit": false,
      "t": 162630.99382500103,
      "d": 1031.0342250000103,
      "v": 68
    },
    {
      "midi": 52,
      "hit": false,
      "t": 162837.89032500103,
      "d": 206.89650000000256,
      "v": 59
    },
    {
      "midi": 57,
      "hit": false,
      "t": 163044.78682500104,
      "d": 217.24132500000997,
      "v": 71
    },
    {
      "midi": 52,
      "hit": false,
      "t": 163251.68332500104,
      "d": 199.99994999999763,
      "v": 61
    },
    {
      "midi": 57,
      "hit": false,
      "t": 163458.57982500104,
      "d": 437.9309249999933,
      "v": 67
    },
    {
      "midi": 52,
      "hit": false,
      "t": 163665.47632500104,
      "d": 199.99994999999763,
      "v": 55
    },
    {
      "midi": 51,
      "hit": false,
      "t": 163872.37282500105,
      "d": 1048.2755999999936,
      "v": 65
    },
    {
      "midi": 56,
      "hit": false,
      "t": 164079.26932500105,
      "d": 206.89650000000256,
      "v": 59
    },
    {
      "midi": 59,
      "hit": false,
      "t": 164286.16582500105,
      "d": 227.58614999998827,
      "v": 85
    },
    {
      "midi": 56,
      "hit": false,
      "t": 164493.06232500105,
      "d": 179.31029999998282,
      "v": 59
    },
    {
      "midi": 59,
      "hit": false,
      "t": 164699.95882500103,
      "d": 368.96542500000214,
      "v": 78
    },
    {
      "midi": 56,
      "hit": false,
      "t": 164906.85532500103,
      "d": 179.31030000001192,
      "v": 62
    },
    {
      "midi": 49,
      "hit": false,
      "t": 165113.75182500103,
      "d": 1072.4135250000108,
      "v": 91
    },
    {
      "midi": 54,
      "hit": false,
      "t": 165320.64832500104,
      "d": 189.65512499999022,
      "v": 60
    },
    {
      "midi": 57,
      "hit": false,
      "t": 165527.54482500104,
      "d": 206.89650000000256,
      "v": 67
    },
    {
      "midi": 54,
      "hit": false,
      "t": 165734.44132500104,
      "d": 196.55167499999516,
      "v": 63
    },
    {
      "midi": 57,
      "hit": false,
      "t": 165941.33782500104,
      "d": 241.37924999999814,
      "v": 70
    },
    {
      "midi": 54,
      "hit": false,
      "t": 166148.23432500105,
      "d": 196.55167499999516,
      "v": 70
    },
    {
      "midi": 51,
      "hit": false,
      "t": 166355.13082500105,
      "d": 1224.137624999974,
      "v": 87
    },
    {
      "midi": 54,
      "hit": false,
      "t": 166562.02732500105,
      "d": 237.93097499999567,
      "v": 65
    },
    {
      "midi": 57,
      "hit": false,
      "t": 166768.92382500105,
      "d": 203.4482250000001,
      "v": 73
    },
    {
      "midi": 59,
      "hit": false,
      "t": 166975.82032500106,
      "d": 186.20684999998775,
      "v": 76
    },
    {
      "midi": 57,
      "hit": false,
      "t": 167182.71682500103,
      "d": 206.89650000000256,
      "v": 79
    },
    {
      "midi": 59,
      "hit": false,
      "t": 167389.61332500103,
      "d": 144.82754999998724,
      "v": 74
    },
    {
      "midi": 52,
      "hit": false,
      "t": 167596.50982500103,
      "d": 1103.4479999999749,
      "v": 71
    },
    {
      "midi": 56,
      "hit": false,
      "t": 167803.40632500104,
      "d": 189.65512499999022,
      "v": 57
    },
    {
      "midi": 59,
      "hit": false,
      "t": 168010.30282500104,
      "d": 227.58614999998827,
      "v": 76
    },
    {
      "midi": 56,
      "hit": false,
      "t": 168217.19932500104,
      "d": 182.75857499998529,
      "v": 59
    },
    {
      "midi": 59,
      "hit": false,
      "t": 168424.09582500102,
      "d": 234.4826999999932,
      "v": 76
    },
    {
      "midi": 56,
      "hit": false,
      "t": 168630.99232500102,
      "d": 189.65512499999022,
      "v": 60
    },
    {
      "midi": 57,
      "hit": false,
      "t": 168837.88882500102,
      "d": 1106.8962750000064,
      "v": 82
    },
    {
      "midi": 52,
      "hit": false,
      "t": 168837.88882500102,
      "d": 1144.8273000000045,
      "v": 77
    },
    {
      "midi": 56,
      "hit": false,
      "t": 169044.78532500102,
      "d": 196.55167499999516,
      "v": 54
    },
    {
      "midi": 59,
      "hit": false,
      "t": 169251.68182500103,
      "d": 199.99994999999763,
      "v": 59
    },
    {
      "midi": 56,
      "hit": false,
      "t": 169458.57832500103,
      "d": 217.24132500000997,
      "v": 58
    },
    {
      "midi": 59,
      "hit": false,
      "t": 169665.47482500103,
      "d": 217.24132500000997,
      "v": 73
    },
    {
      "midi": 56,
      "hit": false,
      "t": 169872.37132500103,
      "d": 199.99994999999763,
      "v": 60
    },
    {
      "midi": 44,
      "hit": false,
      "t": 170079.26782500104,
      "d": 1082.7583500000183,
      "v": 68
    },
    {
      "midi": 52,
      "hit": false,
      "t": 170079.26782500104,
      "d": 1120.6893750000163,
      "v": 70
    },
    {
      "midi": 56,
      "hit": false,
      "t": 170286.16432500104,
      "d": 206.89650000000256,
      "v": 58
    },
    {
      "midi": 59,
      "hit": false,
      "t": 170493.06082500104,
      "d": 227.58614999998827,
      "v": 80
    },
    {
      "midi": 56,
      "hit": false,
      "t": 170699.95732500104,
      "d": 203.4482250000001,
      "v": 61
    },
    {
      "midi": 59,
      "hit": false,
      "t": 170906.85382500105,
      "d": 210.34477500000503,
      "v": 72
    },
    {
      "midi": 56,
      "hit": false,
      "t": 171113.75032500105,
      "d": 189.65512499999022,
      "v": 61
    },
    {
      "midi": 57,
      "hit": false,
      "t": 171320.64682500105,
      "d": 1055.1721500000276,
      "v": 70
    },
    {
      "midi": 52,
      "hit": false,
      "t": 171320.64682500105,
      "d": 1231.034175000037,
      "v": 76
    },
    {
      "midi": 56,
      "hit": false,
      "t": 171527.54332500105,
      "d": 210.34477500000503,
      "v": 59
    },
    {
      "midi": 59,
      "hit": false,
      "t": 171734.43982500106,
      "d": 206.89650000000256,
      "v": 77
    },
    {
      "midi": 56,
      "hit": false,
      "t": 171941.33632500106,
      "d": 231.03442499999073,
      "v": 60
    },
    {
      "midi": 59,
      "hit": false,
      "t": 172148.23282500106,
      "d": 213.7930500000075,
      "v": 81
    },
    {
      "midi": 56,
      "hit": false,
      "t": 172355.12932500106,
      "d": 141.37927500001388,
      "v": 58
    },
    {
      "midi": 44,
      "hit": false,
      "t": 172541.33617500108,
      "d": 3941.378324999998,
      "v": 66
    },
    {
      "midi": 47,
      "hit": false,
      "t": 172565.4741000011,
      "d": 3948.2748749999737,
      "v": 66
    },
    {
      "midi": 52,
      "hit": false,
      "t": 172586.16375000108,
      "d": 3948.2748749999737,
      "v": 66
    }
  ]
}