{
  "jsonPath": "Animes/Weib Kruez MIDI Collection/house-of-love.json",
  "path": "Animes\\Weib Kruez MIDI Collection\\House of Love.mid",
  "name": "House of Love",
  "difficulty": "Beginner",
  "bpm": 120,
  "notes": [
    {
      "midi": 69,
      "hit": false,
      "t": 1500,
      "d": 437.5,
      "v": 127
    },
    {
      "midi": 72,
      "hit": false,
      "t": 2125,
      "d": 437.5,
      "v": 127
    },
    {
      "midi": 74,
      "hit": false,
      "t": 2625,
      "d": 437.5,
      "v": 127
    },
    {
      "midi": 76,
      "hit": false,
      "t": 3125,
      "d": 218.75,
      "v": 127
    },
    {
      "midi": 69,
      "hit": false,
      "t": 3625,
      "d": 437.5,
      "v": 127
    },
    {
      "midi": 69,
      "hit": false,
      "t": 4125,
      "d": 218.75,
      "v": 127
    },
    {
      "midi": 72,
      "hit": false,
      "t": 4375,
      "d": 218.75,
      "v": 127
    },
    {
      "midi": 74,
      "hit": false,
      "t": 4625,
      "d": 218.75,
      "v": 127
    },
    {
      "midi": 72,
      "hit": false,
      "t": 4875,
      "d": 218.75,
      "v": 127
    },
    {
      "midi": 76,
      "hit": false,
      "t": 5250,
      "d": 437.5,
      "v": 127
    },
    {
      "midi": 69,
      "hit": false,
      "t": 5875,
      "d": 437.5,
      "v": 127
    },
    {
      "midi": 69,
      "hit": false,
      "t": 6625,
      "d": 218.75,
      "v": 127
    },
    {
      "midi": 72,
      "hit": false,
      "t": 7000,
      "d": 218.75,
      "v": 127
    },
    {
      "midi": 71,
      "hit": false,
      "t": 7250,
      "d": 218.75,
      "v": 127
    },
    {
      "midi": 69,
      "hit": false,
      "t": 7500,
      "d": 218.75,
      "v": 127
    },
    {
      "midi": 67,
      "hit": false,
      "t": 7750,
      "d": 218.75,
      "v": 127
    },
    {
      "midi": 71,
      "hit": false,
      "t": 8250,
      "d": 437.5,
      "v": 127
    },
    {
      "midi": 69,
      "hit": false,
      "t": 8750,
      "d": 437.5,
      "v": 127
    },
    {
      "midi": 69,
      "hit": false,
      "t": 9500,
      "d": 218.75,
      "v": 127
    },
    {
      "midi": 72,
      "hit": false,
      "t": 9875,
      "d": 218.75,
      "v": 127
    },
    {
      "midi": 71,
      "hit": false,
      "t": 10125,
      "d": 218.75,
      "v": 127
    },
    {
      "midi": 69,
      "hit": false,
      "t": 10375,
      "d": 218.75,
      "v": 127
    },
    {
      "midi": 67,
      "hit": false,
      "t": 10625,
      "d": 218.75,
      "v": 127
    },
    {
      "midi": 71,
      "hit": false,
      "t": 11125,
      "d": 437.5,
      "v": 127
    },
    {
      "midi": 69,
      "hit": false,
      "t": 11625,
      "d": 937.5,
      "v": 127
    },
    {
      "midi": 69,
      "hit": false,
      "t": 13125,
      "d": 437.5,
      "v": 127
    },
    {
      "midi": 72,
      "hit": false,
      "t": 13750,
      "d": 437.5,
      "v": 127
    },
    {
      "midi": 74,
      "hit": false,
      "t": 14250,
      "d": 437.5,
      "v": 127
    },
    {
      "midi": 76,
      "hit": false,
      "t": 14750,
      "d": 218.75,
      "v": 127
    },
    {
      "midi": 69,
      "hit": false,
      "t": 15250,
      "d": 437.5,
      "v": 127
    },
    {
      "midi": 69,
      "hit": false,
      "t": 15750,
      "d": 218.75,
      "v": 127
    },
    {
      "midi": 72,
      "hit": false,
      "t": 16000,
      "d": 218.75,
      "v": 127
    },
    {
      "midi": 74,
      "hit": false,
      "t": 16250,
      "d": 218.75,
      "v": 127
    },
    {
      "midi": 72,
      "hit": false,
      "t": 16500,
      "d": 218.75,
      "v": 127
    },
    {
      "midi": 76,
      "hit": false,
      "t": 16875,
      "d": 437.5,
      "v": 127
    },
    {
      "midi": 69,
      "hit": false,
      "t": 17625,
      "d": 437.5,
      "v": 127
    },
    {
      "midi": 69,
      "hit": false,
      "t": 18375,
      "d": 218.75,
      "v": 127
    },
    {
      "midi": 72,
      "hit": false,
      "t": 18750,
      "d": 218.75,
      "v": 127
    },
    {
      "midi": 71,
      "hit": false,
      "t": 19000,
      "d": 218.75,
      "v": 127
    },
    {
      "midi": 69,
      "hit": false,
      "t": 19250,
      "d": 218.75,
      "v": 127
    },
    {
      "midi": 67,
      "hit": false,
      "t": 19500,
      "d": 218.75,
      "v": 127
    },
    {
      "midi": 71,
      "hit": false,
      "t": 20000,
      "d": 437.5,
      "v": 127
    },
    {
      "midi": 69,
      "hit": false,
      "t": 20500,
      "d": 437.5,
      "v": 127
    },
    {
      "midi": 69,
      "hit": false,
      "t": 21250,
      "d": 218.75,
      "v": 127
    },
    {
      "midi": 72,
      "hit": false,
      "t": 21625,
      "d": 218.75,
      "v": 127
    },
    {
      "midi": 71,
      "hit": false,
      "t": 21875,
      "d": 218.75,
      "v": 127
    },
    {
      "midi": 69,
      "hit": false,
      "t": 22125,
      "d": 218.75,
      "v": 127
    },
    {
      "midi": 67,
      "hit": false,
      "t": 22375,
      "d": 218.75,
      "v": 127
    },
    {
      "midi": 71,
      "hit": false,
      "t": 22875,
      "d": 437.5,
      "v": 127
    },
    {
      "midi": 69,
      "hit": false,
      "t": 23375,
      "d": 937.5,
      "v": 127
    },
    {
      "midi": 71,
      "hit": false,
      "t": 24875,
      "d": 437.5,
      "v": 127
    },
    {
      "midi": 76,
      "hit": false,
      "t": 25500,
      "d": 218.75,
      "v": 127
    },
    {
      "midi": 74,
      "hit": false,
      "t": 25750,
      "d": 218.75,
      "v": 127
    },
    {
      "midi": 72,
      "hit": false,
      "t": 26000,
      "d": 218.75,
      "v": 127
    },
    {
      "midi": 71,
      "hit": false,
      "t": 26250,
      "d": 218.75,
      "v": 127
    },
    {
      "midi": 72,
      "hit": false,
      "t": 26625,
      "d": 437.5,
      "v": 127
    },
    {
      "midi": 69,
      "hit": false,
      "t": 27125,
      "d": 437.5,
      "v": 127
    },
    {
      "midi": 71,
      "hit": false,
      "t": 27875,
      "d": 218.75,
      "v": 127
    },
    {
      "midi": 76,
      "hit": false,
      "t": 28125,
      "d": 218.75,
      "v": 127
    },
    {
      "midi": 74,
      "hit": false,
      "t": 28375,
      "d": 218.75,
      "v": 127
    },
    {
      "midi": 72,
      "hit": false,
      "t": 28625,
      "d": 218.75,
      "v": 127
    },
    {
      "midi": 71,
      "hit": false,
      "t": 28875,
      "d": 218.75,
      "v": 127
    },
    {
      "midi": 72,
      "hit": false,
      "t": 29250,
      "d": 437.5,
      "v": 127
    },
    {
      "midi": 69,
      "hit": false,
      "t": 29750,
      "d": 437.5,
      "v": 127
    },
    {
      "midi": 71,
      "hit": false,
      "t": 30750,
      "d": 218.75,
      "v": 127
    },
    {
      "midi": 76,
      "hit": false,
      "t": 31000,
      "d": 218.75,
      "v": 127
    },
    {
      "midi": 74,
      "hit": false,
      "t": 31250,
      "d": 218.75,
      "v": 127
    },
    {
      "midi": 72,
      "hit": false,
      "t": 31500,
      "d": 218.75,
      "v": 127
    },
    {
      "midi": 71,
      "hit": false,
      "t": 31750,
      "d": 218.75,
      "v": 127
    },
    {
      "midi": 72,
      "hit": false,
      "t": 32125,
      "d": 437.5,
      "v": 127
    },
    {
      "midi": 69,
      "hit": false,
      "t": 32625,
      "d": 937.5,
      "v": 127
    },
    {
      "midi": 71,
      "hit": false,
      "t": 34125,
      "d": 437.5,
      "v": 127
    },
    {
      "midi": 76,
      "hit": false,
      "t": 34750,
      "d": 218.75,
      "v": 127
    },
    {
      "midi": 74,
      "hit": false,
      "t": 35000,
      "d": 218.75,
      "v": 127
    },
    {
      "midi": 72,
      "hit": false,
      "t": 35250,
      "d": 218.75,
      "v": 127
    },
    {
      "midi": 71,
      "hit": false,
      "t": 35500,
      "d": 218.75,
      "v": 127
    },
    {
      "midi": 72,
      "hit": false,
      "t": 35875,
      "d": 437.5,
      "v": 127
    },
    {
      "midi": 69,
      "hit": false,
      "t": 36375,
      "d": 437.5,
      "v": 127
    },
    {
      "midi": 71,
      "hit": false,
      "t": 37125,
      "d": 218.75,
      "v": 127
    },
    {
      "midi": 76,
      "hit": false,
      "t": 37375,
      "d": 218.75,
      "v": 127
    },
    {
      "midi": 74,
      "hit": false,
      "t": 37625,
      "d": 218.75,
      "v": 127
    },
    {
      "midi": 72,
      "hit": false,
      "t": 37875,
      "d": 218.75,
      "v": 127
    },
    {
      "midi": 71,
      "hit": false,
      "t": 38125,
      "d": 218.75,
      "v": 127
    },
    {
      "midi": 72,
      "hit": false,
      "t": 38500,
      "d": 437.5,
      "v": 127
    },
    {
      "midi": 69,
      "hit": false,
      "t": 39000,
      "d": 437.5,
      "v": 127
    },
    {
      "midi": 71,
      "hit": false,
      "t": 40000,
      "d": 218.75,
      "v": 127
    },
    {
      "midi": 76,
      "hit": false,
      "t": 40250,
      "d": 218.75,
      "v": 127
    },
    {
      "midi": 74,
      "hit": false,
      "t": 40500,
      "d": 218.75,
      "v": 127
    },
    {
      "midi": 72,
      "hit": false,
      "t": 40750,
      "d": 218.75,
      "v": 127
    },
    {
      "midi": 71,
      "hit": false,
      "t": 41000,
      "d": 218.75,
      "v": 127
    },
    {
      "midi": 72,
      "hit": false,
      "t": 41375,
      "d": 437.5,
      "v": 127
    },
    {
      "midi": 69,
      "hit": false,
      "t": 41875,
      "d": 937.5,
      "v": 127
    }
  ]
}