{
  "jsonPath": "Animes/Weib Kruez MIDI Collection/piece-of-heaven.json",
  "path": "Animes\\Weib Kruez MIDI Collection\\Piece of Heaven.mid",
  "name": "Piece of Heaven",
  "difficulty": "Beginner",
  "bpm": 144.00023040036865,
  "notes": [
    {
      "midi": 67,
      "hit": false,
      "t": 1249.9979999999998,
      "d": 182.29137500000002,
      "v": 127
    },
    {
      "midi": 69,
      "hit": false,
      "t": 1458.331,
      "d": 182.29137500000002,
      "v": 127
    },
    {
      "midi": 71,
      "hit": false,
      "t": 1770.8305,
      "d": 364.58275000000003,
      "v": 127
    },
    {
      "midi": 69,
      "hit": false,
      "t": 2187.4965,
      "d": 364.58275000000003,
      "v": 127
    },
    {
      "midi": 67,
      "hit": false,
      "t": 2604.1625000000004,
      "d": 182.2913749999998,
      "v": 127
    },
    {
      "midi": 69,
      "hit": false,
      "t": 2812.4955,
      "d": 364.58275000000003,
      "v": 127
    },
    {
      "midi": 71,
      "hit": false,
      "t": 3229.1615,
      "d": 364.58275000000003,
      "v": 127
    },
    {
      "midi": 69,
      "hit": false,
      "t": 3645.8275000000003,
      "d": 364.58275000000003,
      "v": 127
    },
    {
      "midi": 67,
      "hit": false,
      "t": 4062.4935000000005,
      "d": 182.2913749999998,
      "v": 127
    },
    {
      "midi": 69,
      "hit": false,
      "t": 4270.8265,
      "d": 364.5827499999996,
      "v": 127
    },
    {
      "midi": 71,
      "hit": false,
      "t": 4791.659,
      "d": 364.5827499999996,
      "v": 127
    },
    {
      "midi": 69,
      "hit": false,
      "t": 5208.324999999999,
      "d": 364.5827499999996,
      "v": 127
    },
    {
      "midi": 74,
      "hit": false,
      "t": 5624.990999999998,
      "d": 182.2913749999998,
      "v": 127
    },
    {
      "midi": 72,
      "hit": false,
      "t": 5833.323999999998,
      "d": 364.5827499999996,
      "v": 127
    },
    {
      "midi": 71,
      "hit": false,
      "t": 6249.989999999997,
      "d": 364.5827499999996,
      "v": 127
    },
    {
      "midi": 64,
      "hit": false,
      "t": 7083.3219999999965,
      "d": 182.2913749999998,
      "v": 127
    },
    {
      "midi": 66,
      "hit": false,
      "t": 7291.654999999996,
      "d": 182.2913749999998,
      "v": 127
    },
    {
      "midi": 67,
      "hit": false,
      "t": 7499.987999999996,
      "d": 182.2913749999998,
      "v": 127
    },
    {
      "midi": 69,
      "hit": false,
      "t": 7708.320999999995,
      "d": 364.5827499999996,
      "v": 127
    },
    {
      "midi": 67,
      "hit": false,
      "t": 8124.986999999995,
      "d": 364.5827500000005,
      "v": 127
    },
    {
      "midi": 69,
      "hit": false,
      "t": 8541.652999999995,
      "d": 364.5827499999996,
      "v": 127
    },
    {
      "midi": 71,
      "hit": false,
      "t": 8958.318999999994,
      "d": 182.2913750000007,
      "v": 127
    },
    {
      "midi": 71,
      "hit": false,
      "t": 9166.651999999995,
      "d": 364.5827499999996,
      "v": 127
    },
    {
      "midi": 64,
      "hit": false,
      "t": 9999.983999999995,
      "d": 182.2913750000007,
      "v": 127
    },
    {
      "midi": 66,
      "hit": false,
      "t": 10208.316999999995,
      "d": 182.2913750000007,
      "v": 127
    },
    {
      "midi": 67,
      "hit": false,
      "t": 10416.649999999996,
      "d": 182.2913750000007,
      "v": 127
    },
    {
      "midi": 69,
      "hit": false,
      "t": 10624.982999999997,
      "d": 364.5827499999996,
      "v": 127
    },
    {
      "midi": 67,
      "hit": false,
      "t": 11041.648999999996,
      "d": 364.5827499999996,
      "v": 127
    },
    {
      "midi": 69,
      "hit": false,
      "t": 11458.314999999995,
      "d": 364.5827499999996,
      "v": 127
    },
    {
      "midi": 74,
      "hit": false,
      "t": 11874.980999999994,
      "d": 182.2913750000007,
      "v": 127
    },
    {
      "midi": 71,
      "hit": false,
      "t": 12083.313999999995,
      "d": 364.5827499999996,
      "v": 127
    },
    {
      "midi": 67,
      "hit": false,
      "t": 12916.645999999995,
      "d": 182.2913750000007,
      "v": 127
    },
    {
      "midi": 69,
      "hit": false,
      "t": 13124.978999999996,
      "d": 182.2913750000007,
      "v": 127
    },
    {
      "midi": 71,
      "hit": false,
      "t": 13437.478499999996,
      "d": 364.5827499999996,
      "v": 127
    },
    {
      "midi": 69,
      "hit": false,
      "t": 13854.144499999995,
      "d": 364.5827499999996,
      "v": 127
    },
    {
      "midi": 67,
      "hit": false,
      "t": 14270.810499999994,
      "d": 182.2913750000007,
      "v": 127
    },
    {
      "midi": 69,
      "hit": false,
      "t": 14479.143499999995,
      "d": 364.5827499999996,
      "v": 127
    },
    {
      "midi": 71,
      "hit": false,
      "t": 14895.809499999994,
      "d": 364.5827499999996,
      "v": 127
    },
    {
      "midi": 69,
      "hit": false,
      "t": 15312.475499999993,
      "d": 364.5827499999996,
      "v": 127
    },
    {
      "midi": 67,
      "hit": false,
      "t": 15729.141499999992,
      "d": 182.2913750000007,
      "v": 127
    },
    {
      "midi": 69,
      "hit": false,
      "t": 15937.474499999993,
      "d": 364.5827499999996,
      "v": 127
    },
    {
      "midi": 71,
      "hit": false,
      "t": 16458.306999999993,
      "d": 364.5827500000014,
      "v": 127
    },
    {
      "midi": 69,
      "hit": false,
      "t": 16874.972999999994,
      "d": 364.5827500000014,
      "v": 127
    },
    {
      "midi": 74,
      "hit": false,
      "t": 17291.638999999996,
      "d": 182.2913750000007,
      "v": 127
    },
    {
      "midi": 72,
      "hit": false,
      "t": 17499.971999999998,
      "d": 364.5827500000014,
      "v": 127
    },
    {
      "midi": 71,
      "hit": false,
      "t": 17916.638,
      "d": 364.5827500000014,
      "v": 127
    },
    {
      "midi": 64,
      "hit": false,
      "t": 18749.97,
      "d": 182.2913750000007,
      "v": 127
    },
    {
      "midi": 66,
      "hit": false,
      "t": 18958.303000000004,
      "d": 182.2913750000007,
      "v": 127
    },
    {
      "midi": 67,
      "hit": false,
      "t": 19166.636000000006,
      "d": 182.2913750000007,
      "v": 127
    },
    {
      "midi": 69,
      "hit": false,
      "t": 19374.96900000001,
      "d": 364.5827500000014,
      "v": 127
    },
    {
      "midi": 67,
      "hit": false,
      "t": 19791.63500000001,
      "d": 364.5827500000014,
      "v": 127
    },
    {
      "midi": 69,
      "hit": false,
      "t": 20208.30100000001,
      "d": 364.5827500000014,
      "v": 127
    },
    {
      "midi": 71,
      "hit": false,
      "t": 20624.96700000001,
      "d": 182.2913750000007,
      "v": 127
    },
    {
      "midi": 71,
      "hit": false,
      "t": 20833.300000000014,
      "d": 364.5827500000014,
      "v": 127
    },
    {
      "midi": 64,
      "hit": false,
      "t": 21666.632000000016,
      "d": 182.2913750000007,
      "v": 127
    },
    {
      "midi": 66,
      "hit": false,
      "t": 21874.96500000002,
      "d": 182.2913750000007,
      "v": 127
    },
    {
      "midi": 67,
      "hit": false,
      "t": 22083.29800000002,
      "d": 182.2913750000007,
      "v": 127
    },
    {
      "midi": 69,
      "hit": false,
      "t": 22291.631000000023,
      "d": 364.5827500000014,
      "v": 127
    },
    {
      "midi": 67,
      "hit": false,
      "t": 22708.297000000024,
      "d": 364.5827500000014,
      "v": 127
    },
    {
      "midi": 69,
      "hit": false,
      "t": 23124.963000000025,
      "d": 364.5827500000014,
      "v": 127
    },
    {
      "midi": 74,
      "hit": false,
      "t": 23541.629000000026,
      "d": 182.2913750000007,
      "v": 127
    },
    {
      "midi": 71,
      "hit": false,
      "t": 23749.96200000003,
      "d": 364.5827500000014,
      "v": 127
    },
    {
      "midi": 71,
      "hit": false,
      "t": 24583.29400000003,
      "d": 182.2913750000007,
      "v": 127
    },
    {
      "midi": 72,
      "hit": false,
      "t": 24791.627000000033,
      "d": 364.5827500000014,
      "v": 127
    },
    {
      "midi": 74,
      "hit": false,
      "t": 25208.293000000034,
      "d": 781.2487499999988,
      "v": 127
    },
    {
      "midi": 74,
      "hit": false,
      "t": 26145.791500000032,
      "d": 182.2913750000007,
      "v": 127
    },
    {
      "midi": 74,
      "hit": false,
      "t": 26354.124500000034,
      "d": 182.2913750000007,
      "v": 127
    },
    {
      "midi": 74,
      "hit": false,
      "t": 26562.457500000037,
      "d": 182.2913750000007,
      "v": 127
    },
    {
      "midi": 74,
      "hit": false,
      "t": 26770.79050000004,
      "d": 364.5827500000014,
      "v": 127
    },
    {
      "midi": 72,
      "hit": false,
      "t": 27187.45650000004,
      "d": 182.2913750000007,
      "v": 127
    },
    {
      "midi": 71,
      "hit": false,
      "t": 27395.789500000043,
      "d": 364.5827500000014,
      "v": 127
    },
    {
      "midi": 69,
      "hit": false,
      "t": 27812.455500000044,
      "d": 364.5827500000014,
      "v": 127
    },
    {
      "midi": 67,
      "hit": false,
      "t": 28229.121500000045,
      "d": 364.5827500000014,
      "v": 127
    },
    {
      "midi": 64,
      "hit": false,
      "t": 28645.787500000046,
      "d": 182.2913750000007,
      "v": 127
    },
    {
      "midi": 67,
      "hit": false,
      "t": 28854.12050000005,
      "d": 364.5827500000014,
      "v": 127
    },
    {
      "midi": 69,
      "hit": false,
      "t": 29270.78650000005,
      "d": 364.5827500000014,
      "v": 127
    },
    {
      "midi": 71,
      "hit": false,
      "t": 29687.45250000005,
      "d": 781.2487499999988,
      "v": 127
    },
    {
      "midi": 64,
      "hit": false,
      "t": 30624.95100000005,
      "d": 182.2913750000007,
      "v": 127
    },
    {
      "midi": 66,
      "hit": false,
      "t": 30833.28400000005,
      "d": 364.5827500000014,
      "v": 127
    },
    {
      "midi": 67,
      "hit": false,
      "t": 31249.95000000005,
      "d": 781.2487499999988,
      "v": 127
    },
    {
      "midi": 67,
      "hit": false,
      "t": 32187.44850000005,
      "d": 182.2913750000007,
      "v": 127
    },
    {
      "midi": 67,
      "hit": false,
      "t": 32395.781500000052,
      "d": 182.2913750000007,
      "v": 127
    },
    {
      "midi": 67,
      "hit": false,
      "t": 32604.114500000054,
      "d": 182.2913750000007,
      "v": 127
    },
    {
      "midi": 67,
      "hit": false,
      "t": 32812.44750000005,
      "d": 364.5827500000014,
      "v": 127
    },
    {
      "midi": 66,
      "hit": false,
      "t": 33229.11350000006,
      "d": 182.2913750000007,
      "v": 127
    },
    {
      "midi": 67,
      "hit": false,
      "t": 33437.44650000006,
      "d": 364.5827500000014,
      "v": 127
    },
    {
      "midi": 69,
      "hit": false,
      "t": 33854.11250000006,
      "d": 364.5827500000014,
      "v": 127
    },
    {
      "midi": 71,
      "hit": false,
      "t": 34270.778500000066,
      "d": 364.5827500000014,
      "v": 127
    },
    {
      "midi": 69,
      "hit": false,
      "t": 34687.44450000007,
      "d": 182.2913750000007,
      "v": 127
    },
    {
      "midi": 71,
      "hit": false,
      "t": 34895.77750000007,
      "d": 364.5827500000014,
      "v": 127
    },
    {
      "midi": 72,
      "hit": false,
      "t": 35312.443500000074,
      "d": 364.5827500000014,
      "v": 127
    },
    {
      "midi": 71,
      "hit": false,
      "t": 35729.10950000008,
      "d": 781.2487499999988,
      "v": 127
    },
    {
      "midi": 71,
      "hit": false,
      "t": 36770.77450000008,
      "d": 182.2913750000007,
      "v": 127
    },
    {
      "midi": 72,
      "hit": false,
      "t": 36979.10750000008,
      "d": 364.5827500000014,
      "v": 127
    },
    {
      "midi": 74,
      "hit": false,
      "t": 37395.77350000008,
      "d": 781.2487499999988,
      "v": 127
    },
    {
      "midi": 71,
      "hit": false,
      "t": 38437.438500000084,
      "d": 182.2913750000007,
      "v": 127
    },
    {
      "midi": 72,
      "hit": false,
      "t": 38645.77150000008,
      "d": 182.2913750000007,
      "v": 127
    },
    {
      "midi": 74,
      "hit": false,
      "t": 38854.10450000008,
      "d": 781.2487499999988,
      "v": 127
    },
    {
      "midi": 71,
      "hit": false,
      "t": 40104.10250000008,
      "d": 182.2913750000007,
      "v": 127
    },
    {
      "midi": 72,
      "hit": false,
      "t": 40312.43550000008,
      "d": 182.2913750000007,
      "v": 127
    },
    {
      "midi": 74,
      "hit": false,
      "t": 40520.76850000008,
      "d": 364.5827500000014,
      "v": 127
    },
    {
      "midi": 72,
      "hit": false,
      "t": 40937.43450000008,
      "d": 364.5827500000014,
      "v": 127
    },
    {
      "midi": 71,
      "hit": false,
      "t": 41354.10050000009,
      "d": 182.2913750000007,
      "v": 127
    },
    {
      "midi": 69,
      "hit": false,
      "t": 41562.43350000009,
      "d": 364.5827500000014,
      "v": 127
    },
    {
      "midi": 71,
      "hit": false,
      "t": 41979.09950000009,
      "d": 364.5827500000014,
      "v": 127
    },
    {
      "midi": 69,
      "hit": false,
      "t": 42395.765500000096,
      "d": 182.2913750000007,
      "v": 127
    },
    {
      "midi": 69,
      "hit": false,
      "t": 42604.098500000095,
      "d": 364.5827500000014,
      "v": 127
    },
    {
      "midi": 71,
      "hit": false,
      "t": 43229.0975000001,
      "d": 182.2913750000007,
      "v": 127
    },
    {
      "midi": 72,
      "hit": false,
      "t": 43437.4305000001,
      "d": 182.2913750000007,
      "v": 127
    },
    {
      "midi": 74,
      "hit": false,
      "t": 43645.763500000096,
      "d": 781.2487499999988,
      "v": 127
    },
    {
      "midi": 71,
      "hit": false,
      "t": 44687.4285000001,
      "d": 182.2913750000007,
      "v": 127
    },
    {
      "midi": 72,
      "hit": false,
      "t": 44895.761500000095,
      "d": 182.2913750000007,
      "v": 127
    },
    {
      "midi": 74,
      "hit": false,
      "t": 45104.094500000094,
      "d": 781.2487499999988,
      "v": 127
    },
    {
      "midi": 71,
      "hit": false,
      "t": 46354.09250000009,
      "d": 182.2913750000007,
      "v": 127
    },
    {
      "midi": 72,
      "hit": false,
      "t": 46562.42550000009,
      "d": 182.2913750000007,
      "v": 127
    },
    {
      "midi": 74,
      "hit": false,
      "t": 46770.75850000009,
      "d": 364.5827500000014,
      "v": 127
    },
    {
      "midi": 72,
      "hit": false,
      "t": 47187.424500000096,
      "d": 364.5827500000014,
      "v": 127
    },
    {
      "midi": 71,
      "hit": false,
      "t": 47604.0905000001,
      "d": 182.2913750000007,
      "v": 127
    },
    {
      "midi": 69,
      "hit": false,
      "t": 47812.4235000001,
      "d": 364.5827500000014,
      "v": 127
    },
    {
      "midi": 71,
      "hit": false,
      "t": 48229.089500000104,
      "d": 364.5827500000014,
      "v": 127
    },
    {
      "midi": 69,
      "hit": false,
      "t": 48645.75550000011,
      "d": 182.2913750000007,
      "v": 127
    },
    {
      "midi": 69,
      "hit": false,
      "t": 48854.08850000011,
      "d": 364.5827500000014,
      "v": 127
    },
    {
      "midi": 71,
      "hit": false,
      "t": 49479.08750000011,
      "d": 182.2913750000007,
      "v": 127
    },
    {
      "midi": 72,
      "hit": false,
      "t": 49687.42050000011,
      "d": 182.2913750000007,
      "v": 127
    },
    {
      "midi": 74,
      "hit": false,
      "t": 49895.75350000011,
      "d": 781.2487499999988,
      "v": 127
    },
    {
      "midi": 71,
      "hit": false,
      "t": 50937.41850000011,
      "d": 182.2913750000007,
      "v": 127
    },
    {
      "midi": 72,
      "hit": false,
      "t": 51145.75150000011,
      "d": 182.2913750000007,
      "v": 127
    },
    {
      "midi": 74,
      "hit": false,
      "t": 51354.084500000106,
      "d": 781.2487499999988,
      "v": 127
    },
    {
      "midi": 71,
      "hit": false,
      "t": 52604.082500000106,
      "d": 182.2913750000007,
      "v": 127
    },
    {
      "midi": 72,
      "hit": false,
      "t": 52812.415500000105,
      "d": 182.2913750000007,
      "v": 127
    },
    {
      "midi": 74,
      "hit": false,
      "t": 53020.7485000001,
      "d": 364.5827500000014,
      "v": 127
    },
    {
      "midi": 72,
      "hit": false,
      "t": 53437.41450000011,
      "d": 364.5827500000014,
      "v": 127
    },
    {
      "midi": 71,
      "hit": false,
      "t": 53854.08050000011,
      "d": 182.2913750000007,
      "v": 127
    },
    {
      "midi": 69,
      "hit": false,
      "t": 54062.41350000011,
      "d": 364.5827500000014,
      "v": 127
    },
    {
      "midi": 71,
      "hit": false,
      "t": 54479.079500000116,
      "d": 364.5827500000014,
      "v": 127
    },
    {
      "midi": 69,
      "hit": false,
      "t": 54895.74550000012,
      "d": 182.2913750000007,
      "v": 127
    },
    {
      "midi": 69,
      "hit": false,
      "t": 55104.07850000012,
      "d": 364.5827500000014,
      "v": 127
    },
    {
      "midi": 71,
      "hit": false,
      "t": 55729.07750000012,
      "d": 182.2913750000007,
      "v": 127
    },
    {
      "midi": 72,
      "hit": false,
      "t": 55937.41050000012,
      "d": 182.2913750000007,
      "v": 127
    },
    {
      "midi": 74,
      "hit": false,
      "t": 56145.74350000012,
      "d": 781.2487499999988,
      "v": 127
    },
    {
      "midi": 71,
      "hit": false,
      "t": 57187.40850000012,
      "d": 182.2913750000007,
      "v": 127
    },
    {
      "midi": 72,
      "hit": false,
      "t": 57395.74150000012,
      "d": 182.2913750000007,
      "v": 127
    },
    {
      "midi": 74,
      "hit": false,
      "t": 57604.07450000012,
      "d": 781.2487499999988,
      "v": 127
    },
    {
      "midi": 71,
      "hit": false,
      "t": 58854.07250000012,
      "d": 182.2913750000007,
      "v": 127
    },
    {
      "midi": 72,
      "hit": false,
      "t": 59062.40550000012,
      "d": 182.2913750000007,
      "v": 127
    },
    {
      "midi": 74,
      "hit": false,
      "t": 59270.738500000116,
      "d": 364.5827500000014,
      "v": 127
    },
    {
      "midi": 72,
      "hit": false,
      "t": 59687.40450000012,
      "d": 364.5827500000014,
      "v": 127
    },
    {
      "midi": 71,
      "hit": false,
      "t": 60104.070500000125,
      "d": 182.2913750000007,
      "v": 127
    },
    {
      "midi": 69,
      "hit": false,
      "t": 60312.403500000124,
      "d": 364.5827500000014,
      "v": 127
    },
    {
      "midi": 71,
      "hit": false,
      "t": 60729.06950000013,
      "d": 364.5827500000014,
      "v": 127
    },
    {
      "midi": 69,
      "hit": false,
      "t": 61145.73550000013,
      "d": 182.2913750000007,
      "v": 127
    },
    {
      "midi": 69,
      "hit": false,
      "t": 61354.06850000013,
      "d": 364.5827500000014,
      "v": 127
    },
    {
      "midi": 67,
      "hit": false,
      "t": 61874.901000000136,
      "d": 182.2913750000007,
      "v": 127
    },
    {
      "midi": 66,
      "hit": false,
      "t": 62083.234000000135,
      "d": 182.2913750000007,
      "v": 127
    },
    {
      "midi": 67,
      "hit": false,
      "t": 62291.567000000134,
      "d": 781.2487499999988,
      "v": 127
    },
    {
      "midi": 74,
      "hit": false,
      "t": 63958.23100000013,
      "d": 182.2913750000007,
      "v": 127
    },
    {
      "midi": 74,
      "hit": false,
      "t": 64166.56400000013,
      "d": 182.2913750000007,
      "v": 127
    },
    {
      "midi": 74,
      "hit": false,
      "t": 64374.89700000013,
      "d": 182.2913750000007,
      "v": 127
    },
    {
      "midi": 74,
      "hit": false,
      "t": 64583.23000000013,
      "d": 364.5827500000014,
      "v": 127
    },
    {
      "midi": 76,
      "hit": false,
      "t": 64999.89600000013,
      "d": 781.2487500000061,
      "v": 127
    }
  ]
}