{
  "jsonPath": "Animes/Weib Kruez MIDI Collection/truth.json",
  "path": "Animes\\Weib Kruez MIDI Collection\\Truth.mid",
  "name": "Truth",
  "difficulty": "Beginner",
  "bpm": 144.00023040036865,
  "notes": [
    {
      "midi": 76,
      "hit": false,
      "t": 1249.9979999999998,
      "d": 182.29137500000002,
      "v": 127
    },
    {
      "midi": 76,
      "hit": false,
      "t": 1458.331,
      "d": 182.29137500000002,
      "v": 127
    },
    {
      "midi": 74,
      "hit": false,
      "t": 1666.664,
      "d": 182.29137500000002,
      "v": 127
    },
    {
      "midi": 72,
      "hit": false,
      "t": 1874.997,
      "d": 364.5827499999998,
      "v": 127
    },
    {
      "midi": 71,
      "hit": false,
      "t": 2291.663,
      "d": 364.58275000000003,
      "v": 127
    },
    {
      "midi": 69,
      "hit": false,
      "t": 2708.329,
      "d": 182.2913749999998,
      "v": 127
    },
    {
      "midi": 69,
      "hit": false,
      "t": 2916.662,
      "d": 781.2487500000002,
      "v": 127
    },
    {
      "midi": 69,
      "hit": false,
      "t": 4166.66,
      "d": 182.2913749999998,
      "v": 127
    },
    {
      "midi": 69,
      "hit": false,
      "t": 4374.9929999999995,
      "d": 182.2913749999998,
      "v": 127
    },
    {
      "midi": 71,
      "hit": false,
      "t": 4583.325999999999,
      "d": 182.2913749999998,
      "v": 127
    },
    {
      "midi": 72,
      "hit": false,
      "t": 4791.658999999999,
      "d": 364.5827499999996,
      "v": 127
    },
    {
      "midi": 74,
      "hit": false,
      "t": 5208.324999999998,
      "d": 364.5827499999996,
      "v": 127
    },
    {
      "midi": 67,
      "hit": false,
      "t": 5624.990999999997,
      "d": 182.2913749999998,
      "v": 127
    },
    {
      "midi": 67,
      "hit": false,
      "t": 5833.323999999997,
      "d": 781.2487499999997,
      "v": 127
    },
    {
      "midi": 76,
      "hit": false,
      "t": 7499.987999999997,
      "d": 182.2913749999998,
      "v": 127
    },
    {
      "midi": 76,
      "hit": false,
      "t": 7708.320999999996,
      "d": 182.2913749999998,
      "v": 127
    },
    {
      "midi": 74,
      "hit": false,
      "t": 7916.653999999996,
      "d": 182.2913749999998,
      "v": 127
    },
    {
      "midi": 72,
      "hit": false,
      "t": 8124.9869999999955,
      "d": 364.5827499999996,
      "v": 127
    },
    {
      "midi": 71,
      "hit": false,
      "t": 8541.652999999995,
      "d": 364.5827499999996,
      "v": 127
    },
    {
      "midi": 69,
      "hit": false,
      "t": 8958.318999999994,
      "d": 182.2913750000007,
      "v": 127
    },
    {
      "midi": 69,
      "hit": false,
      "t": 9166.651999999995,
      "d": 781.2487500000007,
      "v": 127
    },
    {
      "midi": 69,
      "hit": false,
      "t": 10416.649999999996,
      "d": 182.2913750000007,
      "v": 127
    },
    {
      "midi": 69,
      "hit": false,
      "t": 10624.982999999997,
      "d": 182.2913750000007,
      "v": 127
    },
    {
      "midi": 71,
      "hit": false,
      "t": 10833.315999999997,
      "d": 182.2913750000007,
      "v": 127
    },
    {
      "midi": 72,
      "hit": false,
      "t": 11041.648999999998,
      "d": 364.5827499999996,
      "v": 127
    },
    {
      "midi": 74,
      "hit": false,
      "t": 11458.314999999997,
      "d": 364.5827499999996,
      "v": 127
    },
    {
      "midi": 76,
      "hit": false,
      "t": 11874.980999999996,
      "d": 182.2913750000007,
      "v": 127
    },
    {
      "midi": 74,
      "hit": false,
      "t": 12083.313999999997,
      "d": 781.2487500000007,
      "v": 127
    },
    {
      "midi": 76,
      "hit": false,
      "t": 13749.977999999997,
      "d": 182.2913750000007,
      "v": 127
    },
    {
      "midi": 76,
      "hit": false,
      "t": 13958.310999999998,
      "d": 182.2913750000007,
      "v": 127
    },
    {
      "midi": 74,
      "hit": false,
      "t": 14166.643999999998,
      "d": 182.2913750000007,
      "v": 127
    },
    {
      "midi": 72,
      "hit": false,
      "t": 14374.976999999999,
      "d": 364.5827499999996,
      "v": 127
    },
    {
      "midi": 71,
      "hit": false,
      "t": 14791.642999999998,
      "d": 364.5827499999996,
      "v": 127
    },
    {
      "midi": 69,
      "hit": false,
      "t": 15208.308999999997,
      "d": 182.2913750000007,
      "v": 127
    },
    {
      "midi": 69,
      "hit": false,
      "t": 15416.641999999998,
      "d": 781.2487500000007,
      "v": 127
    },
    {
      "midi": 69,
      "hit": false,
      "t": 16666.64,
      "d": 182.2913750000007,
      "v": 127
    },
    {
      "midi": 69,
      "hit": false,
      "t": 16874.973,
      "d": 182.2913750000007,
      "v": 127
    },
    {
      "midi": 71,
      "hit": false,
      "t": 17083.306000000004,
      "d": 182.2913750000007,
      "v": 127
    },
    {
      "midi": 72,
      "hit": false,
      "t": 17291.639000000006,
      "d": 364.5827500000014,
      "v": 127
    },
    {
      "midi": 74,
      "hit": false,
      "t": 17708.305000000008,
      "d": 364.5827500000014,
      "v": 127
    },
    {
      "midi": 67,
      "hit": false,
      "t": 18124.97100000001,
      "d": 182.2913750000007,
      "v": 127
    },
    {
      "midi": 67,
      "hit": false,
      "t": 18333.30400000001,
      "d": 781.2487499999988,
      "v": 127
    },
    {
      "midi": 76,
      "hit": false,
      "t": 19999.968000000008,
      "d": 182.2913750000007,
      "v": 127
    },
    {
      "midi": 76,
      "hit": false,
      "t": 20208.30100000001,
      "d": 182.2913750000007,
      "v": 127
    },
    {
      "midi": 74,
      "hit": false,
      "t": 20416.634000000013,
      "d": 182.2913750000007,
      "v": 127
    },
    {
      "midi": 72,
      "hit": false,
      "t": 20624.967000000015,
      "d": 364.5827500000014,
      "v": 127
    },
    {
      "midi": 71,
      "hit": false,
      "t": 21041.633000000016,
      "d": 364.5827500000014,
      "v": 127
    },
    {
      "midi": 69,
      "hit": false,
      "t": 21458.299000000017,
      "d": 182.2913750000007,
      "v": 127
    },
    {
      "midi": 69,
      "hit": false,
      "t": 21666.63200000002,
      "d": 781.2487499999988,
      "v": 127
    },
    {
      "midi": 69,
      "hit": false,
      "t": 22916.63000000002,
      "d": 182.2913750000007,
      "v": 127
    },
    {
      "midi": 69,
      "hit": false,
      "t": 23124.96300000002,
      "d": 182.2913750000007,
      "v": 127
    },
    {
      "midi": 71,
      "hit": false,
      "t": 23333.296000000024,
      "d": 182.2913750000007,
      "v": 127
    },
    {
      "midi": 72,
      "hit": false,
      "t": 23541.629000000026,
      "d": 364.5827500000014,
      "v": 127
    },
    {
      "midi": 74,
      "hit": false,
      "t": 23958.295000000027,
      "d": 364.5827500000014,
      "v": 127
    },
    {
      "midi": 76,
      "hit": false,
      "t": 24374.96100000003,
      "d": 182.2913750000007,
      "v": 127
    },
    {
      "midi": 74,
      "hit": false,
      "t": 24583.29400000003,
      "d": 364.5827500000014,
      "v": 127
    },
    {
      "midi": 72,
      "hit": false,
      "t": 25416.626000000033,
      "d": 182.2913750000007,
      "v": 127
    },
    {
      "midi": 72,
      "hit": false,
      "t": 25624.959000000035,
      "d": 182.2913750000007,
      "v": 127
    },
    {
      "midi": 74,
      "hit": false,
      "t": 25833.292000000038,
      "d": 182.2913750000007,
      "v": 127
    },
    {
      "midi": 76,
      "hit": false,
      "t": 26041.62500000004,
      "d": 364.5827500000014,
      "v": 127
    },
    {
      "midi": 69,
      "hit": false,
      "t": 26458.29100000004,
      "d": 182.2913750000007,
      "v": 127
    },
    {
      "midi": 76,
      "hit": false,
      "t": 26666.624000000043,
      "d": 364.5827500000014,
      "v": 127
    },
    {
      "midi": 69,
      "hit": false,
      "t": 27083.290000000045,
      "d": 182.2913750000007,
      "v": 127
    },
    {
      "midi": 67,
      "hit": false,
      "t": 27708.289000000044,
      "d": 364.5827500000014,
      "v": 127
    },
    {
      "midi": 69,
      "hit": false,
      "t": 28124.955000000045,
      "d": 182.2913750000007,
      "v": 127
    },
    {
      "midi": 69,
      "hit": false,
      "t": 28333.288000000048,
      "d": 182.2913750000007,
      "v": 127
    },
    {
      "midi": 71,
      "hit": false,
      "t": 28749.95400000005,
      "d": 182.2913750000007,
      "v": 127
    },
    {
      "midi": 72,
      "hit": false,
      "t": 28958.28700000005,
      "d": 182.2913750000007,
      "v": 127
    },
    {
      "midi": 74,
      "hit": false,
      "t": 29166.620000000054,
      "d": 182.2913750000007,
      "v": 127
    },
    {
      "midi": 76,
      "hit": false,
      "t": 29374.953000000056,
      "d": 364.5827500000014,
      "v": 127
    },
    {
      "midi": 69,
      "hit": false,
      "t": 29791.619000000057,
      "d": 182.2913750000007,
      "v": 127
    },
    {
      "midi": 76,
      "hit": false,
      "t": 29999.95200000006,
      "d": 364.5827500000014,
      "v": 127
    },
    {
      "midi": 69,
      "hit": false,
      "t": 30416.61800000006,
      "d": 182.2913750000007,
      "v": 127
    },
    {
      "midi": 67,
      "hit": false,
      "t": 31041.61700000006,
      "d": 364.5827500000014,
      "v": 127
    },
    {
      "midi": 69,
      "hit": false,
      "t": 31458.28300000006,
      "d": 182.2913750000007,
      "v": 127
    },
    {
      "midi": 69,
      "hit": false,
      "t": 31666.616000000064,
      "d": 781.2487499999988,
      "v": 127
    },
    {
      "midi": 76,
      "hit": false,
      "t": 32916.61400000006,
      "d": 364.5827500000014,
      "v": 127
    },
    {
      "midi": 69,
      "hit": false,
      "t": 33333.280000000064,
      "d": 182.2913750000007,
      "v": 127
    },
    {
      "midi": 76,
      "hit": false,
      "t": 33541.61300000006,
      "d": 364.5827500000014,
      "v": 127
    },
    {
      "midi": 69,
      "hit": false,
      "t": 33958.27900000007,
      "d": 182.2913750000007,
      "v": 127
    },
    {
      "midi": 67,
      "hit": false,
      "t": 34583.27800000007,
      "d": 364.5827500000014,
      "v": 127
    },
    {
      "midi": 69,
      "hit": false,
      "t": 34999.944000000076,
      "d": 182.2913750000007,
      "v": 127
    },
    {
      "midi": 69,
      "hit": false,
      "t": 35208.277000000075,
      "d": 182.2913750000007,
      "v": 127
    },
    {
      "midi": 71,
      "hit": false,
      "t": 35624.94300000007,
      "d": 182.2913750000007,
      "v": 127
    },
    {
      "midi": 72,
      "hit": false,
      "t": 35833.27600000007,
      "d": 182.2913750000007,
      "v": 127
    },
    {
      "midi": 74,
      "hit": false,
      "t": 36041.60900000007,
      "d": 182.2913750000007,
      "v": 127
    },
    {
      "midi": 76,
      "hit": false,
      "t": 36249.94200000007,
      "d": 364.5827500000014,
      "v": 127
    },
    {
      "midi": 69,
      "hit": false,
      "t": 36666.60800000007,
      "d": 182.2913750000007,
      "v": 127
    },
    {
      "midi": 76,
      "hit": false,
      "t": 36874.94100000007,
      "d": 364.5827500000014,
      "v": 127
    },
    {
      "midi": 69,
      "hit": false,
      "t": 37291.60700000008,
      "d": 182.2913750000007,
      "v": 127
    },
    {
      "midi": 79,
      "hit": false,
      "t": 37916.60600000008,
      "d": 182.2913750000007,
      "v": 127
    },
    {
      "midi": 77,
      "hit": false,
      "t": 38229.10550000008,
      "d": 364.5827500000014,
      "v": 127
    },
    {
      "midi": 76,
      "hit": false,
      "t": 38645.77150000008,
      "d": 182.2913750000007,
      "v": 127
    },
    {
      "midi": 74,
      "hit": false,
      "t": 38854.10450000008,
      "d": 364.5827500000014,
      "v": 127
    },
    {
      "midi": 72,
      "hit": false,
      "t": 39479.103500000085,
      "d": 182.2913750000007,
      "v": 127
    },
    {
      "midi": 71,
      "hit": false,
      "t": 39687.43650000008,
      "d": 182.2913750000007,
      "v": 127
    },
    {
      "midi": 69,
      "hit": false,
      "t": 39895.76950000008,
      "d": 781.2487499999988,
      "v": 127
    }
  ]
}