{
  "jsonPath": "Unknown/Unknown/Party Pimpz/give-it-up.json",
  "path": "Unknown\\Unknown\\Party Pimpz\\Give It Up.mid",
  "name": "Give It Up",
  "difficulty": "Advanced",
  "bpm": 125,
  "notes": [
    {
      "midi": 51,
      "hit": false,
      "t": 1920,
      "d": 268,
      "v": 127
    },
    {
      "midi": 58,
      "hit": false,
      "t": 2160,
      "d": 67,
      "v": 127
    },
    {
      "midi": 55,
      "hit": false,
      "t": 2160,
      "d": 70,
      "v": 127
    },
    {
      "midi": 63,
      "hit": false,
      "t": 2160,
      "d": 77,
      "v": 127
    },
    {
      "midi": 51,
      "hit": false,
      "t": 2400,
      "d": 112,
      "v": 127
    },
    {
      "midi": 55,
      "hit": false,
      "t": 2520,
      "d": 82,
      "v": 127
    },
    {
      "midi": 58,
      "hit": false,
      "t": 2520,
      "d": 87,
      "v": 127
    },
    {
      "midi": 63,
      "hit": false,
      "t": 2520,
      "d": 90,
      "v": 127
    },
    {
      "midi": 53,
      "hit": false,
      "t": 2880,
      "d": 72,
      "v": 127
    },
    {
      "midi": 62,
      "hit": false,
      "t": 2880,
      "d": 77,
      "v": 127
    },
    {
      "midi": 58,
      "hit": false,
      "t": 2880,
      "d": 80,
      "v": 127
    },
    {
      "midi": 46,
      "hit": false,
      "t": 2880,
      "d": 92,
      "v": 127
    },
    {
      "midi": 53,
      "hit": false,
      "t": 3240,
      "d": 77,
      "v": 127
    },
    {
      "midi": 58,
      "hit": false,
      "t": 3240,
      "d": 82,
      "v": 127
    },
    {
      "midi": 62,
      "hit": false,
      "t": 3240,
      "d": 95,
      "v": 127
    },
    {
      "midi": 46,
      "hit": false,
      "t": 3240,
      "d": 117,
      "v": 127
    },
    {
      "midi": 53,
      "hit": false,
      "t": 3600,
      "d": 843,
      "v": 127
    },
    {
      "midi": 44,
      "hit": false,
      "t": 3600,
      "d": 845,
      "v": 127
    },
    {
      "midi": 60,
      "hit": false,
      "t": 3600,
      "d": 848,
      "v": 127
    },
    {
      "midi": 56,
      "hit": false,
      "t": 3600,
      "d": 853,
      "v": 127
    },
    {
      "midi": 53,
      "hit": false,
      "t": 4800,
      "d": 268,
      "v": 127
    },
    {
      "midi": 56,
      "hit": false,
      "t": 4800,
      "d": 275,
      "v": 127
    },
    {
      "midi": 60,
      "hit": false,
      "t": 4800,
      "d": 275,
      "v": 127
    },
    {
      "midi": 44,
      "hit": false,
      "t": 4800,
      "d": 365,
      "v": 127
    },
    {
      "midi": 68,
      "hit": false,
      "t": 4800,
      "d": 237,
      "v": 127
    },
    {
      "midi": 67,
      "hit": false,
      "t": 5040,
      "d": 237,
      "v": 127
    },
    {
      "midi": 53,
      "hit": false,
      "t": 5280,
      "d": 330,
      "v": 127
    },
    {
      "midi": 62,
      "hit": false,
      "t": 5280,
      "d": 335,
      "v": 127
    },
    {
      "midi": 58,
      "hit": false,
      "t": 5280,
      "d": 337,
      "v": 127
    },
    {
      "midi": 46,
      "hit": false,
      "t": 5280,
      "d": 357,
      "v": 127
    },
    {
      "midi": 72,
      "hit": false,
      "t": 5280,
      "d": 237,
      "v": 127
    },
    {
      "midi": 70,
      "hit": false,
      "t": 5520,
      "d": 237,
      "v": 127
    },
    {
      "midi": 51,
      "hit": false,
      "t": 5760,
      "d": 253,
      "v": 127
    },
    {
      "midi": 63,
      "hit": false,
      "t": 5760,
      "d": 460,
      "v": 127
    },
    {
      "midi": 55,
      "hit": false,
      "t": 6000,
      "d": 67,
      "v": 127
    },
    {
      "midi": 58,
      "hit": false,
      "t": 6000,
      "d": 70,
      "v": 127
    },
    {
      "midi": 63,
      "hit": false,
      "t": 6000,
      "d": 75,
      "v": 127
    },
    {
      "midi": 51,
      "hit": false,
      "t": 6240,
      "d": 95,
      "v": 127
    },
    {
      "midi": 55,
      "hit": false,
      "t": 6360,
      "d": 80,
      "v": 127
    },
    {
      "midi": 58,
      "hit": false,
      "t": 6360,
      "d": 82,
      "v": 127
    },
    {
      "midi": 63,
      "hit": false,
      "t": 6360,
      "d": 95,
      "v": 127
    },
    {
      "midi": 51,
      "hit": false,
      "t": 6600,
      "d": 72,
      "v": 127
    },
    {
      "midi": 53,
      "hit": false,
      "t": 6720,
      "d": 77,
      "v": 127
    },
    {
      "midi": 58,
      "hit": false,
      "t": 6720,
      "d": 87,
      "v": 127
    },
    {
      "midi": 46,
      "hit": false,
      "t": 6720,
      "d": 97,
      "v": 127
    },
    {
      "midi": 62,
      "hit": false,
      "t": 6720,
      "d": 102,
      "v": 127
    },
    {
      "midi": 53,
      "hit": false,
      "t": 7080,
      "d": 80,
      "v": 127
    },
    {
      "midi": 46,
      "hit": false,
      "t": 7080,
      "d": 90,
      "v": 127
    },
    {
      "midi": 58,
      "hit": false,
      "t": 7080,
      "d": 90,
      "v": 127
    },
    {
      "midi": 62,
      "hit": false,
      "t": 7080,
      "d": 92,
      "v": 127
    },
    {
      "midi": 53,
      "hit": false,
      "t": 7440,
      "d": 965,
      "v": 127
    },
    {
      "midi": 56,
      "hit": false,
      "t": 7440,
      "d": 965,
      "v": 127
    },
    {
      "midi": 60,
      "hit": false,
      "t": 7440,
      "d": 968,
      "v": 127
    },
    {
      "midi": 44,
      "hit": false,
      "t": 7440,
      "d": 983,
      "v": 127
    },
    {
      "midi": 53,
      "hit": false,
      "t": 8640,
      "d": 335,
      "v": 127
    },
    {
      "midi": 56,
      "hit": false,
      "t": 8640,
      "d": 373,
      "v": 127
    },
    {
      "midi": 60,
      "hit": false,
      "t": 8640,
      "d": 385,
      "v": 127
    },
    {
      "midi": 44,
      "hit": false,
      "t": 8640,
      "d": 413,
      "v": 127
    },
    {
      "midi": 68,
      "hit": false,
      "t": 8640,
      "d": 237,
      "v": 127
    },
    {
      "midi": 67,
      "hit": false,
      "t": 8880,
      "d": 237,
      "v": 127
    },
    {
      "midi": 62,
      "hit": false,
      "t": 9120,
      "d": 352,
      "v": 127
    },
    {
      "midi": 53,
      "hit": false,
      "t": 9120,
      "d": 357,
      "v": 127
    },
    {
      "midi": 58,
      "hit": false,
      "t": 9120,
      "d": 357,
      "v": 127
    },
    {
      "midi": 46,
      "hit": false,
      "t": 9120,
      "d": 378,
      "v": 127
    },
    {
      "midi": 72,
      "hit": false,
      "t": 9120,
      "d": 237,
      "v": 127
    },
    {
      "midi": 70,
      "hit": false,
      "t": 9360,
      "d": 200,
      "v": 127
    },
    {
      "midi": 51,
      "hit": false,
      "t": 9600,
      "d": 268,
      "v": 127
    },
    {
      "midi": 63,
      "hit": false,
      "t": 9600,
      "d": 480,
      "v": 127
    },
    {
      "midi": 58,
      "hit": false,
      "t": 9840,
      "d": 67,
      "v": 127
    },
    {
      "midi": 55,
      "hit": false,
      "t": 9840,
      "d": 70,
      "v": 127
    },
    {
      "midi": 63,
      "hit": false,
      "t": 9840,
      "d": 77,
      "v": 127
    },
    {
      "midi": 51,
      "hit": false,
      "t": 10080,
      "d": 112,
      "v": 127
    },
    {
      "midi": 55,
      "hit": false,
      "t": 10200,
      "d": 82,
      "v": 127
    },
    {
      "midi": 58,
      "hit": false,
      "t": 10200,
      "d": 87,
      "v": 127
    },
    {
      "midi": 63,
      "hit": false,
      "t": 10200,
      "d": 90,
      "v": 127
    },
    {
      "midi": 53,
      "hit": false,
      "t": 10560,
      "d": 72,
      "v": 127
    },
    {
      "midi": 62,
      "hit": false,
      "t": 10560,
      "d": 77,
      "v": 127
    },
    {
      "midi": 58,
      "hit": false,
      "t": 10560,
      "d": 80,
      "v": 127
    },
    {
      "midi": 46,
      "hit": false,
      "t": 10560,
      "d": 92,
      "v": 127
    },
    {
      "midi": 53,
      "hit": false,
      "t": 10920,
      "d": 77,
      "v": 127
    },
    {
      "midi": 58,
      "hit": false,
      "t": 10920,
      "d": 82,
      "v": 127
    },
    {
      "midi": 62,
      "hit": false,
      "t": 10920,
      "d": 95,
      "v": 127
    },
    {
      "midi": 46,
      "hit": false,
      "t": 10920,
      "d": 117,
      "v": 127
    },
    {
      "midi": 53,
      "hit": false,
      "t": 11280,
      "d": 843,
      "v": 127
    },
    {
      "midi": 44,
      "hit": false,
      "t": 11280,
      "d": 845,
      "v": 127
    },
    {
      "midi": 60,
      "hit": false,
      "t": 11280,
      "d": 848,
      "v": 127
    },
    {
      "midi": 56,
      "hit": false,
      "t": 11280,
      "d": 853,
      "v": 127
    },
    {
      "midi": 53,
      "hit": false,
      "t": 12480,
      "d": 268,
      "v": 127
    },
    {
      "midi": 56,
      "hit": false,
      "t": 12480,
      "d": 275,
      "v": 127
    },
    {
      "midi": 60,
      "hit": false,
      "t": 12480,
      "d": 275,
      "v": 127
    },
    {
      "midi": 44,
      "hit": false,
      "t": 12480,
      "d": 365,
      "v": 127
    },
    {
      "midi": 53,
      "hit": false,
      "t": 12960,
      "d": 330,
      "v": 127
    },
    {
      "midi": 62,
      "hit": false,
      "t": 12960,
      "d": 335,
      "v": 127
    },
    {
      "midi": 58,
      "hit": false,
      "t": 12960,
      "d": 337,
      "v": 127
    },
    {
      "midi": 46,
      "hit": false,
      "t": 12960,
      "d": 357,
      "v": 127
    },
    {
      "midi": 51,
      "hit": false,
      "t": 13440,
      "d": 253,
      "v": 127
    },
    {
      "midi": 55,
      "hit": false,
      "t": 13680,
      "d": 67,
      "v": 127
    },
    {
      "midi": 58,
      "hit": false,
      "t": 13680,
      "d": 70,
      "v": 127
    },
    {
      "midi": 63,
      "hit": false,
      "t": 13680,
      "d": 75,
      "v": 127
    },
    {
      "midi": 51,
      "hit": false,
      "t": 13920,
      "d": 95,
      "v": 127
    },
    {
      "midi": 55,
      "hit": false,
      "t": 14040,
      "d": 80,
      "v": 127
    },
    {
      "midi": 58,
      "hit": false,
      "t": 14040,
      "d": 82,
      "v": 127
    },
    {
      "midi": 63,
      "hit": false,
      "t": 14040,
      "d": 95,
      "v": 127
    },
    {
      "midi": 51,
      "hit": false,
      "t": 14280,
      "d": 72,
      "v": 127
    },
    {
      "midi": 53,
      "hit": false,
      "t": 14400,
      "d": 77,
      "v": 127
    },
    {
      "midi": 58,
      "hit": false,
      "t": 14400,
      "d": 87,
      "v": 127
    },
    {
      "midi": 46,
      "hit": false,
      "t": 14400,
      "d": 97,
      "v": 127
    },
    {
      "midi": 62,
      "hit": false,
      "t": 14400,
      "d": 102,
      "v": 127
    },
    {
      "midi": 53,
      "hit": false,
      "t": 14760,
      "d": 80,
      "v": 127
    },
    {
      "midi": 46,
      "hit": false,
      "t": 14760,
      "d": 90,
      "v": 127
    },
    {
      "midi": 58,
      "hit": false,
      "t": 14760,
      "d": 90,
      "v": 127
    },
    {
      "midi": 62,
      "hit": false,
      "t": 14760,
      "d": 92,
      "v": 127
    },
    {
      "midi": 53,
      "hit": false,
      "t": 15120,
      "d": 965,
      "v": 127
    },
    {
      "midi": 56,
      "hit": false,
      "t": 15120,
      "d": 965,
      "v": 127
    },
    {
      "midi": 60,
      "hit": false,
      "t": 15120,
      "d": 968,
      "v": 127
    },
    {
      "midi": 44,
      "hit": false,
      "t": 15120,
      "d": 983,
      "v": 127
    },
    {
      "midi": 51,
      "hit": false,
      "t": 17280,
      "d": 268,
      "v": 127
    },
    {
      "midi": 58,
      "hit": false,
      "t": 17520,
      "d": 67,
      "v": 127
    },
    {
      "midi": 55,
      "hit": false,
      "t": 17520,
      "d": 70,
      "v": 127
    },
    {
      "midi": 63,
      "hit": false,
      "t": 17520,
      "d": 77,
      "v": 127
    },
    {
      "midi": 51,
      "hit": false,
      "t": 17760,
      "d": 112,
      "v": 127
    },
    {
      "midi": 55,
      "hit": false,
      "t": 17880,
      "d": 82,
      "v": 127
    },
    {
      "midi": 58,
      "hit": false,
      "t": 17880,
      "d": 87,
      "v": 127
    },
    {
      "midi": 63,
      "hit": false,
      "t": 17880,
      "d": 90,
      "v": 127
    },
    {
      "midi": 53,
      "hit": false,
      "t": 18240,
      "d": 72,
      "v": 127
    },
    {
      "midi": 62,
      "hit": false,
      "t": 18240,
      "d": 77,
      "v": 127
    },
    {
      "midi": 58,
      "hit": false,
      "t": 18240,
      "d": 80,
      "v": 127
    },
    {
      "midi": 46,
      "hit": false,
      "t": 18240,
      "d": 92,
      "v": 127
    },
    {
      "midi": 53,
      "hit": false,
      "t": 18600,
      "d": 77,
      "v": 127
    },
    {
      "midi": 58,
      "hit": false,
      "t": 18600,
      "d": 82,
      "v": 127
    },
    {
      "midi": 62,
      "hit": false,
      "t": 18600,
      "d": 95,
      "v": 127
    },
    {
      "midi": 46,
      "hit": false,
      "t": 18600,
      "d": 117,
      "v": 127
    },
    {
      "midi": 53,
      "hit": false,
      "t": 18960,
      "d": 843,
      "v": 127
    },
    {
      "midi": 44,
      "hit": false,
      "t": 18960,
      "d": 845,
      "v": 127
    },
    {
      "midi": 60,
      "hit": false,
      "t": 18960,
      "d": 848,
      "v": 127
    },
    {
      "midi": 56,
      "hit": false,
      "t": 18960,
      "d": 853,
      "v": 127
    },
    {
      "midi": 53,
      "hit": false,
      "t": 20160,
      "d": 268,
      "v": 127
    },
    {
      "midi": 56,
      "hit": false,
      "t": 20160,
      "d": 275,
      "v": 127
    },
    {
      "midi": 60,
      "hit": false,
      "t": 20160,
      "d": 275,
      "v": 127
    },
    {
      "midi": 44,
      "hit": false,
      "t": 20160,
      "d": 365,
      "v": 127
    },
    {
      "midi": 53,
      "hit": false,
      "t": 20640,
      "d": 330,
      "v": 127
    },
    {
      "midi": 62,
      "hit": false,
      "t": 20640,
      "d": 335,
      "v": 127
    },
    {
      "midi": 58,
      "hit": false,
      "t": 20640,
      "d": 337,
      "v": 127
    },
    {
      "midi": 46,
      "hit": false,
      "t": 20640,
      "d": 357,
      "v": 127
    },
    {
      "midi": 51,
      "hit": false,
      "t": 21120,
      "d": 253,
      "v": 127
    },
    {
      "midi": 55,
      "hit": false,
      "t": 21360,
      "d": 67,
      "v": 127
    },
    {
      "midi": 58,
      "hit": false,
      "t": 21360,
      "d": 70,
      "v": 127
    },
    {
      "midi": 63,
      "hit": false,
      "t": 21360,
      "d": 75,
      "v": 127
    },
    {
      "midi": 51,
      "hit": false,
      "t": 21600,
      "d": 95,
      "v": 127
    },
    {
      "midi": 55,
      "hit": false,
      "t": 21720,
      "d": 80,
      "v": 127
    },
    {
      "midi": 58,
      "hit": false,
      "t": 21720,
      "d": 82,
      "v": 127
    },
    {
      "midi": 63,
      "hit": false,
      "t": 21720,
      "d": 95,
      "v": 127
    },
    {
      "midi": 51,
      "hit": false,
      "t": 21960,
      "d": 72,
      "v": 127
    },
    {
      "midi": 53,
      "hit": false,
      "t": 22080,
      "d": 77,
      "v": 127
    },
    {
      "midi": 58,
      "hit": false,
      "t": 22080,
      "d": 87,
      "v": 127
    },
    {
      "midi": 46,
      "hit": false,
      "t": 22080,
      "d": 97,
      "v": 127
    },
    {
      "midi": 62,
      "hit": false,
      "t": 22080,
      "d": 102,
      "v": 127
    },
    {
      "midi": 53,
      "hit": false,
      "t": 22440,
      "d": 80,
      "v": 127
    },
    {
      "midi": 46,
      "hit": false,
      "t": 22440,
      "d": 90,
      "v": 127
    },
    {
      "midi": 58,
      "hit": false,
      "t": 22440,
      "d": 90,
      "v": 127
    },
    {
      "midi": 62,
      "hit": false,
      "t": 22440,
      "d": 92,
      "v": 127
    },
    {
      "midi": 53,
      "hit": false,
      "t": 22800,
      "d": 965,
      "v": 127
    },
    {
      "midi": 56,
      "hit": false,
      "t": 22800,
      "d": 965,
      "v": 127
    },
    {
      "midi": 60,
      "hit": false,
      "t": 22800,
      "d": 968,
      "v": 127
    },
    {
      "midi": 44,
      "hit": false,
      "t": 22800,
      "d": 983,
      "v": 127
    },
    {
      "midi": 53,
      "hit": false,
      "t": 24000,
      "d": 335,
      "v": 127
    },
    {
      "midi": 56,
      "hit": false,
      "t": 24000,
      "d": 373,
      "v": 127
    },
    {
      "midi": 60,
      "hit": false,
      "t": 24000,
      "d": 385,
      "v": 127
    },
    {
      "midi": 44,
      "hit": false,
      "t": 24000,
      "d": 413,
      "v": 127
    },
    {
      "midi": 62,
      "hit": false,
      "t": 24480,
      "d": 352,
      "v": 127
    },
    {
      "midi": 53,
      "hit": false,
      "t": 24480,
      "d": 357,
      "v": 127
    },
    {
      "midi": 58,
      "hit": false,
      "t": 24480,
      "d": 357,
      "v": 127
    },
    {
      "midi": 46,
      "hit": false,
      "t": 24480,
      "d": 378,
      "v": 127
    },
    {
      "midi": 51,
      "hit": false,
      "t": 24960,
      "d": 268,
      "v": 127
    },
    {
      "midi": 58,
      "hit": false,
      "t": 25200,
      "d": 67,
      "v": 127
    },
    {
      "midi": 55,
      "hit": false,
      "t": 25200,
      "d": 70,
      "v": 127
    },
    {
      "midi": 63,
      "hit": false,
      "t": 25200,
      "d": 77,
      "v": 127
    },
    {
      "midi": 51,
      "hit": false,
      "t": 25440,
      "d": 112,
      "v": 127
    },
    {
      "midi": 55,
      "hit": false,
      "t": 25560,
      "d": 82,
      "v": 127
    },
    {
      "midi": 58,
      "hit": false,
      "t": 25560,
      "d": 87,
      "v": 127
    },
    {
      "midi": 63,
      "hit": false,
      "t": 25560,
      "d": 90,
      "v": 127
    },
    {
      "midi": 53,
      "hit": false,
      "t": 25920,
      "d": 72,
      "v": 127
    },
    {
      "midi": 62,
      "hit": false,
      "t": 25920,
      "d": 77,
      "v": 127
    },
    {
      "midi": 58,
      "hit": false,
      "t": 25920,
      "d": 80,
      "v": 127
    },
    {
      "midi": 46,
      "hit": false,
      "t": 25920,
      "d": 92,
      "v": 127
    },
    {
      "midi": 53,
      "hit": false,
      "t": 26280,
      "d": 77,
      "v": 127
    },
    {
      "midi": 58,
      "hit": false,
      "t": 26280,
      "d": 82,
      "v": 127
    },
    {
      "midi": 62,
      "hit": false,
      "t": 26280,
      "d": 95,
      "v": 127
    },
    {
      "midi": 46,
      "hit": false,
      "t": 26280,
      "d": 117,
      "v": 127
    },
    {
      "midi": 53,
      "hit": false,
      "t": 26640,
      "d": 843,
      "v": 127
    },
    {
      "midi": 44,
      "hit": false,
      "t": 26640,
      "d": 845,
      "v": 127
    },
    {
      "midi": 60,
      "hit": false,
      "t": 26640,
      "d": 848,
      "v": 127
    },
    {
      "midi": 56,
      "hit": false,
      "t": 26640,
      "d": 853,
      "v": 127
    },
    {
      "midi": 53,
      "hit": false,
      "t": 27840,
      "d": 268,
      "v": 127
    },
    {
      "midi": 56,
      "hit": false,
      "t": 27840,
      "d": 275,
      "v": 127
    },
    {
      "midi": 60,
      "hit": false,
      "t": 27840,
      "d": 275,
      "v": 127
    },
    {
      "midi": 44,
      "hit": false,
      "t": 27840,
      "d": 365,
      "v": 127
    },
    {
      "midi": 53,
      "hit": false,
      "t": 28320,
      "d": 330,
      "v": 127
    },
    {
      "midi": 62,
      "hit": false,
      "t": 28320,
      "d": 335,
      "v": 127
    },
    {
      "midi": 58,
      "hit": false,
      "t": 28320,
      "d": 337,
      "v": 127
    },
    {
      "midi": 46,
      "hit": false,
      "t": 28320,
      "d": 357,
      "v": 127
    },
    {
      "midi": 51,
      "hit": false,
      "t": 28800,
      "d": 253,
      "v": 127
    },
    {
      "midi": 55,
      "hit": false,
      "t": 29040,
      "d": 67,
      "v": 127
    },
    {
      "midi": 58,
      "hit": false,
      "t": 29040,
      "d": 70,
      "v": 127
    },
    {
      "midi": 63,
      "hit": false,
      "t": 29040,
      "d": 75,
      "v": 127
    },
    {
      "midi": 51,
      "hit": false,
      "t": 29280,
      "d": 95,
      "v": 127
    },
    {
      "midi": 55,
      "hit": false,
      "t": 29400,
      "d": 80,
      "v": 127
    },
    {
      "midi": 58,
      "hit": false,
      "t": 29400,
      "d": 82,
      "v": 127
    },
    {
      "midi": 63,
      "hit": false,
      "t": 29400,
      "d": 95,
      "v": 127
    },
    {
      "midi": 51,
      "hit": false,
      "t": 29640,
      "d": 72,
      "v": 127
    },
    {
      "midi": 53,
      "hit": false,
      "t": 29760,
      "d": 77,
      "v": 127
    },
    {
      "midi": 58,
      "hit": false,
      "t": 29760,
      "d": 87,
      "v": 127
    },
    {
      "midi": 46,
      "hit": false,
      "t": 29760,
      "d": 97,
      "v": 127
    },
    {
      "midi": 62,
      "hit": false,
      "t": 29760,
      "d": 102,
      "v": 127
    },
    {
      "midi": 53,
      "hit": false,
      "t": 30120,
      "d": 80,
      "v": 127
    },
    {
      "midi": 46,
      "hit": false,
      "t": 30120,
      "d": 90,
      "v": 127
    },
    {
      "midi": 58,
      "hit": false,
      "t": 30120,
      "d": 90,
      "v": 127
    },
    {
      "midi": 62,
      "hit": false,
      "t": 30120,
      "d": 92,
      "v": 127
    },
    {
      "midi": 53,
      "hit": false,
      "t": 30480,
      "d": 965,
      "v": 127
    },
    {
      "midi": 56,
      "hit": false,
      "t": 30480,
      "d": 965,
      "v": 127
    },
    {
      "midi": 60,
      "hit": false,
      "t": 30480,
      "d": 968,
      "v": 127
    },
    {
      "midi": 44,
      "hit": false,
      "t": 30480,
      "d": 983,
      "v": 127
    },
    {
      "midi": 51,
      "hit": false,
      "t": 31680,
      "d": 378,
      "v": 127
    },
    {
      "midi": 56,
      "hit": false,
      "t": 31680,
      "d": 405,
      "v": 127
    },
    {
      "midi": 60,
      "hit": false,
      "t": 31680,
      "d": 405,
      "v": 127
    },
    {
      "midi": 44,
      "hit": false,
      "t": 31680,
      "d": 435,
      "v": 127
    },
    {
      "midi": 53,
      "hit": false,
      "t": 32160,
      "d": 375,
      "v": 127
    },
    {
      "midi": 62,
      "hit": false,
      "t": 32160,
      "d": 378,
      "v": 127
    },
    {
      "midi": 58,
      "hit": false,
      "t": 32160,
      "d": 385,
      "v": 127
    },
    {
      "midi": 46,
      "hit": false,
      "t": 32160,
      "d": 403,
      "v": 127
    },
    {
      "midi": 51,
      "hit": false,
      "t": 32640,
      "d": 268,
      "v": 127
    },
    {
      "midi": 58,
      "hit": false,
      "t": 32880,
      "d": 67,
      "v": 127
    },
    {
      "midi": 55,
      "hit": false,
      "t": 32880,
      "d": 70,
      "v": 127
    },
    {
      "midi": 63,
      "hit": false,
      "t": 32880,
      "d": 77,
      "v": 127
    },
    {
      "midi": 82,
      "hit": false,
      "t": 32880,
      "d": 237,
      "v": 127
    },
    {
      "midi": 75,
      "hit": false,
      "t": 32880,
      "d": 253,
      "v": 127
    },
    {
      "midi": 79,
      "hit": false,
      "t": 32880,
      "d": 253,
      "v": 127
    },
    {
      "midi": 51,
      "hit": false,
      "t": 33120,
      "d": 112,
      "v": 127
    },
    {
      "midi": 55,
      "hit": false,
      "t": 33240,
      "d": 82,
      "v": 127
    },
    {
      "midi": 58,
      "hit": false,
      "t": 33240,
      "d": 87,
      "v": 127
    },
    {
      "midi": 63,
      "hit": false,
      "t": 33240,
      "d": 90,
      "v": 127
    },
    {
      "midi": 75,
      "hit": false,
      "t": 33360,
      "d": 212,
      "v": 127
    },
    {
      "midi": 82,
      "hit": false,
      "t": 33360,
      "d": 217,
      "v": 127
    },
    {
      "midi": 79,
      "hit": false,
      "t": 33360,
      "d": 220,
      "v": 127
    },
    {
      "midi": 53,
      "hit": false,
      "t": 33600,
      "d": 72,
      "v": 127
    },
    {
      "midi": 62,
      "hit": false,
      "t": 33600,
      "d": 77,
      "v": 127
    },
    {
      "midi": 58,
      "hit": false,
      "t": 33600,
      "d": 80,
      "v": 127
    },
    {
      "midi": 46,
      "hit": false,
      "t": 33600,
      "d": 92,
      "v": 127
    },
    {
      "midi": 53,
      "hit": false,
      "t": 33960,
      "d": 77,
      "v": 127
    },
    {
      "midi": 58,
      "hit": false,
      "t": 33960,
      "d": 82,
      "v": 127
    },
    {
      "midi": 62,
      "hit": false,
      "t": 33960,
      "d": 95,
      "v": 127
    },
    {
      "midi": 46,
      "hit": false,
      "t": 33960,
      "d": 117,
      "v": 127
    },
    {
      "midi": 53,
      "hit": false,
      "t": 34320,
      "d": 843,
      "v": 127
    },
    {
      "midi": 44,
      "hit": false,
      "t": 34320,
      "d": 845,
      "v": 127
    },
    {
      "midi": 60,
      "hit": false,
      "t": 34320,
      "d": 848,
      "v": 127
    },
    {
      "midi": 56,
      "hit": false,
      "t": 34320,
      "d": 853,
      "v": 127
    },
    {
      "midi": 53,
      "hit": false,
      "t": 35520,
      "d": 268,
      "v": 127
    },
    {
      "midi": 56,
      "hit": false,
      "t": 35520,
      "d": 275,
      "v": 127
    },
    {
      "midi": 60,
      "hit": false,
      "t": 35520,
      "d": 275,
      "v": 127
    },
    {
      "midi": 44,
      "hit": false,
      "t": 35520,
      "d": 365,
      "v": 127
    },
    {
      "midi": 68,
      "hit": false,
      "t": 35520,
      "d": 237,
      "v": 127
    },
    {
      "midi": 67,
      "hit": false,
      "t": 35760,
      "d": 237,
      "v": 127
    },
    {
      "midi": 53,
      "hit": false,
      "t": 36000,
      "d": 330,
      "v": 127
    },
    {
      "midi": 62,
      "hit": false,
      "t": 36000,
      "d": 335,
      "v": 127
    },
    {
      "midi": 58,
      "hit": false,
      "t": 36000,
      "d": 337,
      "v": 127
    },
    {
      "midi": 46,
      "hit": false,
      "t": 36000,
      "d": 357,
      "v": 127
    },
    {
      "midi": 72,
      "hit": false,
      "t": 36000,
      "d": 237,
      "v": 127
    },
    {
      "midi": 70,
      "hit": false,
      "t": 36240,
      "d": 212,
      "v": 127
    },
    {
      "midi": 51,
      "hit": false,
      "t": 36480,
      "d": 253,
      "v": 127
    },
    {
      "midi": 63,
      "hit": false,
      "t": 36480,
      "d": 418,
      "v": 127
    },
    {
      "midi": 55,
      "hit": false,
      "t": 36720,
      "d": 67,
      "v": 127
    },
    {
      "midi": 58,
      "hit": false,
      "t": 36720,
      "d": 70,
      "v": 127
    },
    {
      "midi": 63,
      "hit": false,
      "t": 36720,
      "d": 75,
      "v": 127
    },
    {
      "midi": 51,
      "hit": false,
      "t": 36960,
      "d": 95,
      "v": 127
    },
    {
      "midi": 55,
      "hit": false,
      "t": 37080,
      "d": 80,
      "v": 127
    },
    {
      "midi": 58,
      "hit": false,
      "t": 37080,
      "d": 82,
      "v": 127
    },
    {
      "midi": 63,
      "hit": false,
      "t": 37080,
      "d": 95,
      "v": 127
    },
    {
      "midi": 51,
      "hit": false,
      "t": 37320,
      "d": 72,
      "v": 127
    },
    {
      "midi": 53,
      "hit": false,
      "t": 37440,
      "d": 77,
      "v": 127
    },
    {
      "midi": 58,
      "hit": false,
      "t": 37440,
      "d": 87,
      "v": 127
    },
    {
      "midi": 46,
      "hit": false,
      "t": 37440,
      "d": 97,
      "v": 127
    },
    {
      "midi": 62,
      "hit": false,
      "t": 37440,
      "d": 102,
      "v": 127
    },
    {
      "midi": 53,
      "hit": false,
      "t": 37800,
      "d": 80,
      "v": 127
    },
    {
      "midi": 46,
      "hit": false,
      "t": 37800,
      "d": 90,
      "v": 127
    },
    {
      "midi": 58,
      "hit": false,
      "t": 37800,
      "d": 90,
      "v": 127
    },
    {
      "midi": 62,
      "hit": false,
      "t": 37800,
      "d": 92,
      "v": 127
    },
    {
      "midi": 53,
      "hit": false,
      "t": 38160,
      "d": 965,
      "v": 127
    },
    {
      "midi": 56,
      "hit": false,
      "t": 38160,
      "d": 965,
      "v": 127
    },
    {
      "midi": 60,
      "hit": false,
      "t": 38160,
      "d": 968,
      "v": 127
    },
    {
      "midi": 44,
      "hit": false,
      "t": 38160,
      "d": 983,
      "v": 127
    },
    {
      "midi": 53,
      "hit": false,
      "t": 39360,
      "d": 335,
      "v": 127
    },
    {
      "midi": 56,
      "hit": false,
      "t": 39360,
      "d": 373,
      "v": 127
    },
    {
      "midi": 60,
      "hit": false,
      "t": 39360,
      "d": 385,
      "v": 127
    },
    {
      "midi": 44,
      "hit": false,
      "t": 39360,
      "d": 413,
      "v": 127
    },
    {
      "midi": 68,
      "hit": false,
      "t": 39360,
      "d": 237,
      "v": 127
    },
    {
      "midi": 67,
      "hit": false,
      "t": 39600,
      "d": 237,
      "v": 127
    },
    {
      "midi": 62,
      "hit": false,
      "t": 39840,
      "d": 352,
      "v": 127
    },
    {
      "midi": 53,
      "hit": false,
      "t": 39840,
      "d": 357,
      "v": 127
    },
    {
      "midi": 58,
      "hit": false,
      "t": 39840,
      "d": 357,
      "v": 127
    },
    {
      "midi": 46,
      "hit": false,
      "t": 39840,
      "d": 378,
      "v": 127
    },
    {
      "midi": 72,
      "hit": false,
      "t": 39840,
      "d": 237,
      "v": 127
    },
    {
      "midi": 70,
      "hit": false,
      "t": 40080,
      "d": 235,
      "v": 127
    },
    {
      "midi": 51,
      "hit": false,
      "t": 40320,
      "d": 268,
      "v": 127
    },
    {
      "midi": 63,
      "hit": false,
      "t": 40320,
      "d": 237,
      "v": 127
    },
    {
      "midi": 58,
      "hit": false,
      "t": 40560,
      "d": 67,
      "v": 127
    },
    {
      "midi": 55,
      "hit": false,
      "t": 40560,
      "d": 70,
      "v": 127
    },
    {
      "midi": 63,
      "hit": false,
      "t": 40560,
      "d": 77,
      "v": 127
    },
    {
      "midi": 82,
      "hit": false,
      "t": 40560,
      "d": 200,
      "v": 127
    },
    {
      "midi": 75,
      "hit": false,
      "t": 40560,
      "d": 205,
      "v": 127
    },
    {
      "midi": 79,
      "hit": false,
      "t": 40560,
      "d": 222,
      "v": 127
    },
    {
      "midi": 51,
      "hit": false,
      "t": 40800,
      "d": 112,
      "v": 127
    },
    {
      "midi": 55,
      "hit": false,
      "t": 40920,
      "d": 82,
      "v": 127
    },
    {
      "midi": 58,
      "hit": false,
      "t": 40920,
      "d": 87,
      "v": 127
    },
    {
      "midi": 63,
      "hit": false,
      "t": 40920,
      "d": 90,
      "v": 127
    },
    {
      "midi": 75,
      "hit": false,
      "t": 41040,
      "d": 205,
      "v": 127
    },
    {
      "midi": 82,
      "hit": false,
      "t": 41040,
      "d": 207,
      "v": 127
    },
    {
      "midi": 79,
      "hit": false,
      "t": 41040,
      "d": 212,
      "v": 127
    },
    {
      "midi": 53,
      "hit": false,
      "t": 41280,
      "d": 72,
      "v": 127
    },
    {
      "midi": 62,
      "hit": false,
      "t": 41280,
      "d": 77,
      "v": 127
    },
    {
      "midi": 58,
      "hit": false,
      "t": 41280,
      "d": 80,
      "v": 127
    },
    {
      "midi": 46,
      "hit": false,
      "t": 41280,
      "d": 92,
      "v": 127
    },
    {
      "midi": 53,
      "hit": false,
      "t": 41640,
      "d": 77,
      "v": 127
    },
    {
      "midi": 58,
      "hit": false,
      "t": 41640,
      "d": 82,
      "v": 127
    },
    {
      "midi": 62,
      "hit": false,
      "t": 41640,
      "d": 95,
      "v": 127
    },
    {
      "midi": 46,
      "hit": false,
      "t": 41640,
      "d": 117,
      "v": 127
    },
    {
      "midi": 53,
      "hit": false,
      "t": 42000,
      "d": 843,
      "v": 127
    },
    {
      "midi": 44,
      "hit": false,
      "t": 42000,
      "d": 845,
      "v": 127
    },
    {
      "midi": 60,
      "hit": false,
      "t": 42000,
      "d": 848,
      "v": 127
    },
    {
      "midi": 56,
      "hit": false,
      "t": 42000,
      "d": 853,
      "v": 127
    },
    {
      "midi": 53,
      "hit": false,
      "t": 43200,
      "d": 268,
      "v": 127
    },
    {
      "midi": 56,
      "hit": false,
      "t": 43200,
      "d": 275,
      "v": 127
    },
    {
      "midi": 60,
      "hit": false,
      "t": 43200,
      "d": 275,
      "v": 127
    },
    {
      "midi": 44,
      "hit": false,
      "t": 43200,
      "d": 365,
      "v": 127
    },
    {
      "midi": 68,
      "hit": false,
      "t": 43200,
      "d": 237,
      "v": 127
    },
    {
      "midi": 67,
      "hit": false,
      "t": 43440,
      "d": 227,
      "v": 127
    },
    {
      "midi": 53,
      "hit": false,
      "t": 43680,
      "d": 330,
      "v": 127
    },
    {
      "midi": 62,
      "hit": false,
      "t": 43680,
      "d": 335,
      "v": 127
    },
    {
      "midi": 58,
      "hit": false,
      "t": 43680,
      "d": 337,
      "v": 127
    },
    {
      "midi": 46,
      "hit": false,
      "t": 43680,
      "d": 357,
      "v": 127
    },
    {
      "midi": 72,
      "hit": false,
      "t": 43680,
      "d": 237,
      "v": 127
    },
    {
      "midi": 70,
      "hit": false,
      "t": 43920,
      "d": 227,
      "v": 127
    },
    {
      "midi": 51,
      "hit": false,
      "t": 44160,
      "d": 253,
      "v": 127
    },
    {
      "midi": 63,
      "hit": false,
      "t": 44160,
      "d": 460,
      "v": 127
    },
    {
      "midi": 55,
      "hit": false,
      "t": 44400,
      "d": 67,
      "v": 127
    },
    {
      "midi": 58,
      "hit": false,
      "t": 44400,
      "d": 70,
      "v": 127
    },
    {
      "midi": 63,
      "hit": false,
      "t": 44400,
      "d": 75,
      "v": 127
    },
    {
      "midi": 51,
      "hit": false,
      "t": 44640,
      "d": 95,
      "v": 127
    },
    {
      "midi": 55,
      "hit": false,
      "t": 44760,
      "d": 80,
      "v": 127
    },
    {
      "midi": 58,
      "hit": false,
      "t": 44760,
      "d": 82,
      "v": 127
    },
    {
      "midi": 63,
      "hit": false,
      "t": 44760,
      "d": 95,
      "v": 127
    },
    {
      "midi": 51,
      "hit": false,
      "t": 45000,
      "d": 72,
      "v": 127
    },
    {
      "midi": 53,
      "hit": false,
      "t": 45120,
      "d": 77,
      "v": 127
    },
    {
      "midi": 58,
      "hit": false,
      "t": 45120,
      "d": 87,
      "v": 127
    },
    {
      "midi": 46,
      "hit": false,
      "t": 45120,
      "d": 97,
      "v": 127
    },
    {
      "midi": 62,
      "hit": false,
      "t": 45120,
      "d": 102,
      "v": 127
    },
    {
      "midi": 53,
      "hit": false,
      "t": 45480,
      "d": 80,
      "v": 127
    },
    {
      "midi": 46,
      "hit": false,
      "t": 45480,
      "d": 90,
      "v": 127
    },
    {
      "midi": 58,
      "hit": false,
      "t": 45480,
      "d": 90,
      "v": 127
    },
    {
      "midi": 62,
      "hit": false,
      "t": 45480,
      "d": 92,
      "v": 127
    },
    {
      "midi": 53,
      "hit": false,
      "t": 45840,
      "d": 965,
      "v": 127
    },
    {
      "midi": 56,
      "hit": false,
      "t": 45840,
      "d": 965,
      "v": 127
    },
    {
      "midi": 60,
      "hit": false,
      "t": 45840,
      "d": 968,
      "v": 127
    },
    {
      "midi": 44,
      "hit": false,
      "t": 45840,
      "d": 983,
      "v": 127
    },
    {
      "midi": 51,
      "hit": false,
      "t": 47040,
      "d": 378,
      "v": 127
    },
    {
      "midi": 56,
      "hit": false,
      "t": 47040,
      "d": 405,
      "v": 127
    },
    {
      "midi": 60,
      "hit": false,
      "t": 47040,
      "d": 405,
      "v": 127
    },
    {
      "midi": 44,
      "hit": false,
      "t": 47040,
      "d": 435,
      "v": 127
    },
    {
      "midi": 53,
      "hit": false,
      "t": 47520,
      "d": 375,
      "v": 127
    },
    {
      "midi": 62,
      "hit": false,
      "t": 47520,
      "d": 378,
      "v": 127
    },
    {
      "midi": 58,
      "hit": false,
      "t": 47520,
      "d": 385,
      "v": 127
    },
    {
      "midi": 46,
      "hit": false,
      "t": 47520,
      "d": 403,
      "v": 127
    },
    {
      "midi": 51,
      "hit": false,
      "t": 48000,
      "d": 268,
      "v": 127
    },
    {
      "midi": 58,
      "hit": false,
      "t": 48240,
      "d": 67,
      "v": 127
    },
    {
      "midi": 55,
      "hit": false,
      "t": 48240,
      "d": 70,
      "v": 127
    },
    {
      "midi": 63,
      "hit": false,
      "t": 48240,
      "d": 77,
      "v": 127
    },
    {
      "midi": 82,
      "hit": false,
      "t": 48240,
      "d": 237,
      "v": 127
    },
    {
      "midi": 75,
      "hit": false,
      "t": 48240,
      "d": 253,
      "v": 127
    },
    {
      "midi": 79,
      "hit": false,
      "t": 48240,
      "d": 253,
      "v": 127
    },
    {
      "midi": 51,
      "hit": false,
      "t": 48480,
      "d": 112,
      "v": 127
    },
    {
      "midi": 55,
      "hit": false,
      "t": 48600,
      "d": 82,
      "v": 127
    },
    {
      "midi": 58,
      "hit": false,
      "t": 48600,
      "d": 87,
      "v": 127
    },
    {
      "midi": 63,
      "hit": false,
      "t": 48600,
      "d": 90,
      "v": 127
    },
    {
      "midi": 75,
      "hit": false,
      "t": 48720,
      "d": 212,
      "v": 127
    },
    {
      "midi": 82,
      "hit": false,
      "t": 48720,
      "d": 217,
      "v": 127
    },
    {
      "midi": 79,
      "hit": false,
      "t": 48720,
      "d": 220,
      "v": 127
    },
    {
      "midi": 53,
      "hit": false,
      "t": 48960,
      "d": 72,
      "v": 127
    },
    {
      "midi": 62,
      "hit": false,
      "t": 48960,
      "d": 77,
      "v": 127
    },
    {
      "midi": 58,
      "hit": false,
      "t": 48960,
      "d": 80,
      "v": 127
    },
    {
      "midi": 46,
      "hit": false,
      "t": 48960,
      "d": 92,
      "v": 127
    },
    {
      "midi": 53,
      "hit": false,
      "t": 49320,
      "d": 77,
      "v": 127
    },
    {
      "midi": 58,
      "hit": false,
      "t": 49320,
      "d": 82,
      "v": 127
    },
    {
      "midi": 62,
      "hit": false,
      "t": 49320,
      "d": 95,
      "v": 127
    },
    {
      "midi": 46,
      "hit": false,
      "t": 49320,
      "d": 117,
      "v": 127
    },
    {
      "midi": 53,
      "hit": false,
      "t": 49680,
      "d": 843,
      "v": 127
    },
    {
      "midi": 44,
      "hit": false,
      "t": 49680,
      "d": 845,
      "v": 127
    },
    {
      "midi": 60,
      "hit": false,
      "t": 49680,
      "d": 848,
      "v": 127
    },
    {
      "midi": 56,
      "hit": false,
      "t": 49680,
      "d": 853,
      "v": 127
    },
    {
      "midi": 53,
      "hit": false,
      "t": 50880,
      "d": 268,
      "v": 127
    },
    {
      "midi": 56,
      "hit": false,
      "t": 50880,
      "d": 275,
      "v": 127
    },
    {
      "midi": 60,
      "hit": false,
      "t": 50880,
      "d": 275,
      "v": 127
    },
    {
      "midi": 44,
      "hit": false,
      "t": 50880,
      "d": 365,
      "v": 127
    },
    {
      "midi": 68,
      "hit": false,
      "t": 50880,
      "d": 237,
      "v": 127
    },
    {
      "midi": 67,
      "hit": false,
      "t": 51120,
      "d": 237,
      "v": 127
    },
    {
      "midi": 53,
      "hit": false,
      "t": 51360,
      "d": 330,
      "v": 127
    },
    {
      "midi": 62,
      "hit": false,
      "t": 51360,
      "d": 335,
      "v": 127
    },
    {
      "midi": 58,
      "hit": false,
      "t": 51360,
      "d": 337,
      "v": 127
    },
    {
      "midi": 46,
      "hit": false,
      "t": 51360,
      "d": 357,
      "v": 127
    },
    {
      "midi": 72,
      "hit": false,
      "t": 51360,
      "d": 237,
      "v": 127
    },
    {
      "midi": 70,
      "hit": false,
      "t": 51600,
      "d": 212,
      "v": 127
    },
    {
      "midi": 51,
      "hit": false,
      "t": 51840,
      "d": 253,
      "v": 127
    },
    {
      "midi": 63,
      "hit": false,
      "t": 51840,
      "d": 418,
      "v": 127
    },
    {
      "midi": 55,
      "hit": false,
      "t": 52080,
      "d": 67,
      "v": 127
    },
    {
      "midi": 58,
      "hit": false,
      "t": 52080,
      "d": 70,
      "v": 127
    },
    {
      "midi": 63,
      "hit": false,
      "t": 52080,
      "d": 75,
      "v": 127
    },
    {
      "midi": 51,
      "hit": false,
      "t": 52320,
      "d": 95,
      "v": 127
    },
    {
      "midi": 55,
      "hit": false,
      "t": 52440,
      "d": 80,
      "v": 127
    },
    {
      "midi": 58,
      "hit": false,
      "t": 52440,
      "d": 82,
      "v": 127
    },
    {
      "midi": 63,
      "hit": false,
      "t": 52440,
      "d": 95,
      "v": 127
    },
    {
      "midi": 51,
      "hit": false,
      "t": 52680,
      "d": 72,
      "v": 127
    },
    {
      "midi": 53,
      "hit": false,
      "t": 52800,
      "d": 77,
      "v": 127
    },
    {
      "midi": 58,
      "hit": false,
      "t": 52800,
      "d": 87,
      "v": 127
    },
    {
      "midi": 46,
      "hit": false,
      "t": 52800,
      "d": 97,
      "v": 127
    },
    {
      "midi": 62,
      "hit": false,
      "t": 52800,
      "d": 102,
      "v": 127
    },
    {
      "midi": 53,
      "hit": false,
      "t": 53160,
      "d": 80,
      "v": 127
    },
    {
      "midi": 46,
      "hit": false,
      "t": 53160,
      "d": 90,
      "v": 127
    },
    {
      "midi": 58,
      "hit": false,
      "t": 53160,
      "d": 90,
      "v": 127
    },
    {
      "midi": 62,
      "hit": false,
      "t": 53160,
      "d": 92,
      "v": 127
    },
    {
      "midi": 53,
      "hit": false,
      "t": 53520,
      "d": 965,
      "v": 127
    },
    {
      "midi": 56,
      "hit": false,
      "t": 53520,
      "d": 965,
      "v": 127
    },
    {
      "midi": 60,
      "hit": false,
      "t": 53520,
      "d": 968,
      "v": 127
    },
    {
      "midi": 44,
      "hit": false,
      "t": 53520,
      "d": 983,
      "v": 127
    },
    {
      "midi": 53,
      "hit": false,
      "t": 54720,
      "d": 335,
      "v": 127
    },
    {
      "midi": 56,
      "hit": false,
      "t": 54720,
      "d": 373,
      "v": 127
    },
    {
      "midi": 60,
      "hit": false,
      "t": 54720,
      "d": 385,
      "v": 127
    },
    {
      "midi": 44,
      "hit": false,
      "t": 54720,
      "d": 413,
      "v": 127
    },
    {
      "midi": 68,
      "hit": false,
      "t": 54720,
      "d": 237,
      "v": 127
    },
    {
      "midi": 67,
      "hit": false,
      "t": 54960,
      "d": 237,
      "v": 127
    },
    {
      "midi": 62,
      "hit": false,
      "t": 55200,
      "d": 352,
      "v": 127
    },
    {
      "midi": 53,
      "hit": false,
      "t": 55200,
      "d": 357,
      "v": 127
    },
    {
      "midi": 58,
      "hit": false,
      "t": 55200,
      "d": 357,
      "v": 127
    },
    {
      "midi": 46,
      "hit": false,
      "t": 55200,
      "d": 378,
      "v": 127
    },
    {
      "midi": 72,
      "hit": false,
      "t": 55200,
      "d": 237,
      "v": 127
    },
    {
      "midi": 70,
      "hit": false,
      "t": 55440,
      "d": 235,
      "v": 127
    },
    {
      "midi": 51,
      "hit": false,
      "t": 55680,
      "d": 268,
      "v": 127
    },
    {
      "midi": 63,
      "hit": false,
      "t": 55680,
      "d": 237,
      "v": 127
    },
    {
      "midi": 58,
      "hit": false,
      "t": 55920,
      "d": 67,
      "v": 127
    },
    {
      "midi": 55,
      "hit": false,
      "t": 55920,
      "d": 70,
      "v": 127
    },
    {
      "midi": 63,
      "hit": false,
      "t": 55920,
      "d": 77,
      "v": 127
    },
    {
      "midi": 82,
      "hit": false,
      "t": 55920,
      "d": 200,
      "v": 127
    },
    {
      "midi": 75,
      "hit": false,
      "t": 55920,
      "d": 205,
      "v": 127
    },
    {
      "midi": 79,
      "hit": false,
      "t": 55920,
      "d": 222,
      "v": 127
    },
    {
      "midi": 51,
      "hit": false,
      "t": 56160,
      "d": 112,
      "v": 127
    },
    {
      "midi": 55,
      "hit": false,
      "t": 56280,
      "d": 82,
      "v": 127
    },
    {
      "midi": 58,
      "hit": false,
      "t": 56280,
      "d": 87,
      "v": 127
    },
    {
      "midi": 63,
      "hit": false,
      "t": 56280,
      "d": 90,
      "v": 127
    },
    {
      "midi": 75,
      "hit": false,
      "t": 56400,
      "d": 205,
      "v": 127
    },
    {
      "midi": 82,
      "hit": false,
      "t": 56400,
      "d": 207,
      "v": 127
    },
    {
      "midi": 79,
      "hit": false,
      "t": 56400,
      "d": 212,
      "v": 127
    },
    {
      "midi": 53,
      "hit": false,
      "t": 56640,
      "d": 72,
      "v": 127
    },
    {
      "midi": 62,
      "hit": false,
      "t": 56640,
      "d": 77,
      "v": 127
    },
    {
      "midi": 58,
      "hit": false,
      "t": 56640,
      "d": 80,
      "v": 127
    },
    {
      "midi": 46,
      "hit": false,
      "t": 56640,
      "d": 92,
      "v": 127
    },
    {
      "midi": 53,
      "hit": false,
      "t": 57000,
      "d": 77,
      "v": 127
    },
    {
      "midi": 58,
      "hit": false,
      "t": 57000,
      "d": 82,
      "v": 127
    },
    {
      "midi": 62,
      "hit": false,
      "t": 57000,
      "d": 95,
      "v": 127
    },
    {
      "midi": 46,
      "hit": false,
      "t": 57000,
      "d": 117,
      "v": 127
    },
    {
      "midi": 53,
      "hit": false,
      "t": 57360,
      "d": 843,
      "v": 127
    },
    {
      "midi": 44,
      "hit": false,
      "t": 57360,
      "d": 845,
      "v": 127
    },
    {
      "midi": 60,
      "hit": false,
      "t": 57360,
      "d": 848,
      "v": 127
    },
    {
      "midi": 56,
      "hit": false,
      "t": 57360,
      "d": 853,
      "v": 127
    },
    {
      "midi": 53,
      "hit": false,
      "t": 58560,
      "d": 268,
      "v": 127
    },
    {
      "midi": 56,
      "hit": false,
      "t": 58560,
      "d": 275,
      "v": 127
    },
    {
      "midi": 60,
      "hit": false,
      "t": 58560,
      "d": 275,
      "v": 127
    },
    {
      "midi": 44,
      "hit": false,
      "t": 58560,
      "d": 365,
      "v": 127
    },
    {
      "midi": 68,
      "hit": false,
      "t": 58560,
      "d": 237,
      "v": 127
    },
    {
      "midi": 67,
      "hit": false,
      "t": 58800,
      "d": 227,
      "v": 127
    },
    {
      "midi": 53,
      "hit": false,
      "t": 59040,
      "d": 330,
      "v": 127
    },
    {
      "midi": 62,
      "hit": false,
      "t": 59040,
      "d": 335,
      "v": 127
    },
    {
      "midi": 58,
      "hit": false,
      "t": 59040,
      "d": 337,
      "v": 127
    },
    {
      "midi": 46,
      "hit": false,
      "t": 59040,
      "d": 357,
      "v": 127
    },
    {
      "midi": 72,
      "hit": false,
      "t": 59040,
      "d": 237,
      "v": 127
    },
    {
      "midi": 70,
      "hit": false,
      "t": 59280,
      "d": 227,
      "v": 127
    },
    {
      "midi": 51,
      "hit": false,
      "t": 59520,
      "d": 253,
      "v": 127
    },
    {
      "midi": 63,
      "hit": false,
      "t": 59520,
      "d": 460,
      "v": 127
    },
    {
      "midi": 55,
      "hit": false,
      "t": 59760,
      "d": 67,
      "v": 127
    },
    {
      "midi": 58,
      "hit": false,
      "t": 59760,
      "d": 70,
      "v": 127
    },
    {
      "midi": 63,
      "hit": false,
      "t": 59760,
      "d": 75,
      "v": 127
    },
    {
      "midi": 51,
      "hit": false,
      "t": 60000,
      "d": 95,
      "v": 127
    },
    {
      "midi": 55,
      "hit": false,
      "t": 60120,
      "d": 80,
      "v": 127
    },
    {
      "midi": 58,
      "hit": false,
      "t": 60120,
      "d": 82,
      "v": 127
    },
    {
      "midi": 63,
      "hit": false,
      "t": 60120,
      "d": 95,
      "v": 127
    },
    {
      "midi": 51,
      "hit": false,
      "t": 60360,
      "d": 72,
      "v": 127
    },
    {
      "midi": 53,
      "hit": false,
      "t": 60480,
      "d": 77,
      "v": 127
    },
    {
      "midi": 58,
      "hit": false,
      "t": 60480,
      "d": 87,
      "v": 127
    },
    {
      "midi": 46,
      "hit": false,
      "t": 60480,
      "d": 97,
      "v": 127
    },
    {
      "midi": 62,
      "hit": false,
      "t": 60480,
      "d": 102,
      "v": 127
    },
    {
      "midi": 53,
      "hit": false,
      "t": 60840,
      "d": 80,
      "v": 127
    },
    {
      "midi": 46,
      "hit": false,
      "t": 60840,
      "d": 90,
      "v": 127
    },
    {
      "midi": 58,
      "hit": false,
      "t": 60840,
      "d": 90,
      "v": 127
    },
    {
      "midi": 62,
      "hit": false,
      "t": 60840,
      "d": 92,
      "v": 127
    },
    {
      "midi": 53,
      "hit": false,
      "t": 61200,
      "d": 965,
      "v": 127
    },
    {
      "midi": 56,
      "hit": false,
      "t": 61200,
      "d": 965,
      "v": 127
    },
    {
      "midi": 60,
      "hit": false,
      "t": 61200,
      "d": 968,
      "v": 127
    },
    {
      "midi": 44,
      "hit": false,
      "t": 61200,
      "d": 983,
      "v": 127
    },
    {
      "midi": 51,
      "hit": false,
      "t": 62400,
      "d": 378,
      "v": 127
    },
    {
      "midi": 56,
      "hit": false,
      "t": 62400,
      "d": 405,
      "v": 127
    },
    {
      "midi": 60,
      "hit": false,
      "t": 62400,
      "d": 405,
      "v": 127
    },
    {
      "midi": 44,
      "hit": false,
      "t": 62400,
      "d": 435,
      "v": 127
    },
    {
      "midi": 53,
      "hit": false,
      "t": 62880,
      "d": 375,
      "v": 127
    },
    {
      "midi": 62,
      "hit": false,
      "t": 62880,
      "d": 378,
      "v": 127
    },
    {
      "midi": 58,
      "hit": false,
      "t": 62880,
      "d": 385,
      "v": 127
    },
    {
      "midi": 46,
      "hit": false,
      "t": 62880,
      "d": 403,
      "v": 127
    },
    {
      "midi": 56,
      "hit": false,
      "t": 63600,
      "d": 55,
      "v": 127
    },
    {
      "midi": 65,
      "hit": false,
      "t": 63600,
      "d": 62,
      "v": 127
    },
    {
      "midi": 60,
      "hit": false,
      "t": 63600,
      "d": 67,
      "v": 127
    },
    {
      "midi": 63,
      "hit": false,
      "t": 63600,
      "d": 67,
      "v": 127
    },
    {
      "midi": 68,
      "hit": false,
      "t": 63600,
      "d": 227,
      "v": 127
    },
    {
      "midi": 63,
      "hit": false,
      "t": 63960,
      "d": 45,
      "v": 127
    },
    {
      "midi": 65,
      "hit": false,
      "t": 63960,
      "d": 50,
      "v": 127
    },
    {
      "midi": 60,
      "hit": false,
      "t": 63960,
      "d": 55,
      "v": 127
    },
    {
      "midi": 56,
      "hit": false,
      "t": 63960,
      "d": 60,
      "v": 127
    },
    {
      "midi": 68,
      "hit": false,
      "t": 63960,
      "d": 258,
      "v": 127
    },
    {
      "midi": 60,
      "hit": false,
      "t": 64320,
      "d": 60,
      "v": 127
    },
    {
      "midi": 56,
      "hit": false,
      "t": 64320,
      "d": 65,
      "v": 127
    },
    {
      "midi": 63,
      "hit": false,
      "t": 64320,
      "d": 67,
      "v": 127
    },
    {
      "midi": 65,
      "hit": false,
      "t": 64320,
      "d": 70,
      "v": 127
    },
    {
      "midi": 60,
      "hit": false,
      "t": 64680,
      "d": 60,
      "v": 127
    },
    {
      "midi": 56,
      "hit": false,
      "t": 64680,
      "d": 62,
      "v": 127
    },
    {
      "midi": 63,
      "hit": false,
      "t": 64680,
      "d": 62,
      "v": 127
    },
    {
      "midi": 65,
      "hit": false,
      "t": 64680,
      "d": 70,
      "v": 127
    },
    {
      "midi": 56,
      "hit": false,
      "t": 65040,
      "d": 60,
      "v": 127
    },
    {
      "midi": 60,
      "hit": false,
      "t": 65040,
      "d": 60,
      "v": 127
    },
    {
      "midi": 63,
      "hit": false,
      "t": 65040,
      "d": 70,
      "v": 127
    },
    {
      "midi": 65,
      "hit": false,
      "t": 65040,
      "d": 75,
      "v": 127
    },
    {
      "midi": 58,
      "hit": false,
      "t": 65520,
      "d": 70,
      "v": 127
    },
    {
      "midi": 53,
      "hit": false,
      "t": 65520,
      "d": 80,
      "v": 127
    },
    {
      "midi": 62,
      "hit": false,
      "t": 65520,
      "d": 85,
      "v": 127
    },
    {
      "midi": 70,
      "hit": false,
      "t": 65520,
      "d": 240,
      "v": 127
    },
    {
      "midi": 53,
      "hit": false,
      "t": 65880,
      "d": 70,
      "v": 127
    },
    {
      "midi": 58,
      "hit": false,
      "t": 65880,
      "d": 75,
      "v": 127
    },
    {
      "midi": 62,
      "hit": false,
      "t": 65880,
      "d": 85,
      "v": 127
    },
    {
      "midi": 70,
      "hit": false,
      "t": 65880,
      "d": 278,
      "v": 127
    },
    {
      "midi": 58,
      "hit": false,
      "t": 66240,
      "d": 58,
      "v": 127
    },
    {
      "midi": 53,
      "hit": false,
      "t": 66240,
      "d": 62,
      "v": 127
    },
    {
      "midi": 62,
      "hit": false,
      "t": 66240,
      "d": 72,
      "v": 127
    },
    {
      "midi": 53,
      "hit": false,
      "t": 66600,
      "d": 67,
      "v": 127
    },
    {
      "midi": 58,
      "hit": false,
      "t": 66600,
      "d": 80,
      "v": 127
    },
    {
      "midi": 62,
      "hit": false,
      "t": 66600,
      "d": 85,
      "v": 127
    },
    {
      "midi": 63,
      "hit": false,
      "t": 67200,
      "d": 117,
      "v": 127
    },
    {
      "midi": 65,
      "hit": false,
      "t": 67200,
      "d": 117,
      "v": 127
    },
    {
      "midi": 56,
      "hit": false,
      "t": 67200,
      "d": 120,
      "v": 127
    },
    {
      "midi": 60,
      "hit": false,
      "t": 67200,
      "d": 123,
      "v": 127
    },
    {
      "midi": 68,
      "hit": false,
      "t": 67440,
      "d": 235,
      "v": 127
    },
    {
      "midi": 56,
      "hit": false,
      "t": 67560,
      "d": 58,
      "v": 127
    },
    {
      "midi": 60,
      "hit": false,
      "t": 67560,
      "d": 60,
      "v": 127
    },
    {
      "midi": 63,
      "hit": false,
      "t": 67560,
      "d": 60,
      "v": 127
    },
    {
      "midi": 65,
      "hit": false,
      "t": 67560,
      "d": 70,
      "v": 127
    },
    {
      "midi": 63,
      "hit": false,
      "t": 67920,
      "d": 50,
      "v": 127
    },
    {
      "midi": 60,
      "hit": false,
      "t": 67920,
      "d": 53,
      "v": 127
    },
    {
      "midi": 56,
      "hit": false,
      "t": 67920,
      "d": 55,
      "v": 127
    },
    {
      "midi": 65,
      "hit": false,
      "t": 67920,
      "d": 62,
      "v": 127
    },
    {
      "midi": 68,
      "hit": false,
      "t": 67920,
      "d": 263,
      "v": 127
    },
    {
      "midi": 56,
      "hit": false,
      "t": 68160,
      "d": 70,
      "v": 127
    },
    {
      "midi": 60,
      "hit": false,
      "t": 68160,
      "d": 72,
      "v": 127
    },
    {
      "midi": 63,
      "hit": false,
      "t": 68160,
      "d": 72,
      "v": 127
    },
    {
      "midi": 65,
      "hit": false,
      "t": 68160,
      "d": 77,
      "v": 127
    },
    {
      "midi": 63,
      "hit": false,
      "t": 68520,
      "d": 53,
      "v": 127
    },
    {
      "midi": 60,
      "hit": false,
      "t": 68520,
      "d": 55,
      "v": 127
    },
    {
      "midi": 56,
      "hit": false,
      "t": 68520,
      "d": 60,
      "v": 127
    },
    {
      "midi": 65,
      "hit": false,
      "t": 68520,
      "d": 67,
      "v": 127
    },
    {
      "midi": 60,
      "hit": false,
      "t": 68880,
      "d": 60,
      "v": 127
    },
    {
      "midi": 56,
      "hit": false,
      "t": 68880,
      "d": 67,
      "v": 127
    },
    {
      "midi": 63,
      "hit": false,
      "t": 68880,
      "d": 70,
      "v": 127
    },
    {
      "midi": 65,
      "hit": false,
      "t": 68880,
      "d": 77,
      "v": 127
    },
    {
      "midi": 53,
      "hit": false,
      "t": 69360,
      "d": 72,
      "v": 127
    },
    {
      "midi": 58,
      "hit": false,
      "t": 69360,
      "d": 82,
      "v": 127
    },
    {
      "midi": 62,
      "hit": false,
      "t": 69360,
      "d": 85,
      "v": 127
    },
    {
      "midi": 70,
      "hit": false,
      "t": 69360,
      "d": 260,
      "v": 127
    },
    {
      "midi": 58,
      "hit": false,
      "t": 69720,
      "d": 65,
      "v": 127
    },
    {
      "midi": 53,
      "hit": false,
      "t": 69720,
      "d": 67,
      "v": 127
    },
    {
      "midi": 62,
      "hit": false,
      "t": 69720,
      "d": 75,
      "v": 127
    },
    {
      "midi": 70,
      "hit": false,
      "t": 69840,
      "d": 225,
      "v": 127
    },
    {
      "midi": 53,
      "hit": false,
      "t": 70080,
      "d": 77,
      "v": 127
    },
    {
      "midi": 58,
      "hit": false,
      "t": 70080,
      "d": 87,
      "v": 127
    },
    {
      "midi": 62,
      "hit": false,
      "t": 70080,
      "d": 95,
      "v": 127
    },
    {
      "midi": 75,
      "hit": false,
      "t": 70320,
      "d": 227,
      "v": 127
    },
    {
      "midi": 58,
      "hit": false,
      "t": 70440,
      "d": 285,
      "v": 127
    },
    {
      "midi": 53,
      "hit": false,
      "t": 70440,
      "d": 290,
      "v": 127
    },
    {
      "midi": 63,
      "hit": false,
      "t": 70440,
      "d": 298,
      "v": 127
    },
    {
      "midi": 53,
      "hit": false,
      "t": 70800,
      "d": 90,
      "v": 127
    },
    {
      "midi": 62,
      "hit": false,
      "t": 70800,
      "d": 92,
      "v": 127
    },
    {
      "midi": 58,
      "hit": false,
      "t": 70800,
      "d": 100,
      "v": 127
    },
    {
      "midi": 75,
      "hit": false,
      "t": 70800,
      "d": 240,
      "v": 127
    },
    {
      "midi": 56,
      "hit": false,
      "t": 71280,
      "d": 55,
      "v": 127
    },
    {
      "midi": 65,
      "hit": false,
      "t": 71280,
      "d": 62,
      "v": 127
    },
    {
      "midi": 60,
      "hit": false,
      "t": 71280,
      "d": 67,
      "v": 127
    },
    {
      "midi": 63,
      "hit": false,
      "t": 71280,
      "d": 67,
      "v": 127
    },
    {
      "midi": 68,
      "hit": false,
      "t": 71280,
      "d": 248,
      "v": 127
    },
    {
      "midi": 63,
      "hit": false,
      "t": 71640,
      "d": 45,
      "v": 127
    },
    {
      "midi": 65,
      "hit": false,
      "t": 71640,
      "d": 50,
      "v": 127
    },
    {
      "midi": 60,
      "hit": false,
      "t": 71640,
      "d": 55,
      "v": 127
    },
    {
      "midi": 56,
      "hit": false,
      "t": 71640,
      "d": 60,
      "v": 127
    },
    {
      "midi": 68,
      "hit": false,
      "t": 71760,
      "d": 285,
      "v": 127
    },
    {
      "midi": 60,
      "hit": false,
      "t": 72000,
      "d": 60,
      "v": 127
    },
    {
      "midi": 56,
      "hit": false,
      "t": 72000,
      "d": 65,
      "v": 127
    },
    {
      "midi": 63,
      "hit": false,
      "t": 72000,
      "d": 67,
      "v": 127
    },
    {
      "midi": 65,
      "hit": false,
      "t": 72000,
      "d": 70,
      "v": 127
    },
    {
      "midi": 60,
      "hit": false,
      "t": 72360,
      "d": 60,
      "v": 127
    },
    {
      "midi": 56,
      "hit": false,
      "t": 72360,
      "d": 62,
      "v": 127
    },
    {
      "midi": 63,
      "hit": false,
      "t": 72360,
      "d": 62,
      "v": 127
    },
    {
      "midi": 65,
      "hit": false,
      "t": 72360,
      "d": 70,
      "v": 127
    },
    {
      "midi": 56,
      "hit": false,
      "t": 72720,
      "d": 60,
      "v": 127
    },
    {
      "midi": 60,
      "hit": false,
      "t": 72720,
      "d": 60,
      "v": 127
    },
    {
      "midi": 63,
      "hit": false,
      "t": 72720,
      "d": 70,
      "v": 127
    },
    {
      "midi": 65,
      "hit": false,
      "t": 72720,
      "d": 75,
      "v": 127
    },
    {
      "midi": 58,
      "hit": false,
      "t": 73200,
      "d": 70,
      "v": 127
    },
    {
      "midi": 53,
      "hit": false,
      "t": 73200,
      "d": 80,
      "v": 127
    },
    {
      "midi": 62,
      "hit": false,
      "t": 73200,
      "d": 85,
      "v": 127
    },
    {
      "midi": 70,
      "hit": false,
      "t": 73200,
      "d": 260,
      "v": 127
    },
    {
      "midi": 53,
      "hit": false,
      "t": 73560,
      "d": 70,
      "v": 127
    },
    {
      "midi": 58,
      "hit": false,
      "t": 73560,
      "d": 75,
      "v": 127
    },
    {
      "midi": 62,
      "hit": false,
      "t": 73560,
      "d": 85,
      "v": 127
    },
    {
      "midi": 70,
      "hit": false,
      "t": 73680,
      "d": 275,
      "v": 127
    },
    {
      "midi": 58,
      "hit": false,
      "t": 73920,
      "d": 58,
      "v": 127
    },
    {
      "midi": 53,
      "hit": false,
      "t": 73920,
      "d": 62,
      "v": 127
    },
    {
      "midi": 62,
      "hit": false,
      "t": 73920,
      "d": 72,
      "v": 127
    },
    {
      "midi": 53,
      "hit": false,
      "t": 74280,
      "d": 67,
      "v": 127
    },
    {
      "midi": 58,
      "hit": false,
      "t": 74280,
      "d": 80,
      "v": 127
    },
    {
      "midi": 62,
      "hit": false,
      "t": 74280,
      "d": 85,
      "v": 127
    },
    {
      "midi": 63,
      "hit": false,
      "t": 74880,
      "d": 117,
      "v": 127
    },
    {
      "midi": 65,
      "hit": false,
      "t": 74880,
      "d": 117,
      "v": 127
    },
    {
      "midi": 56,
      "hit": false,
      "t": 74880,
      "d": 120,
      "v": 127
    },
    {
      "midi": 60,
      "hit": false,
      "t": 74880,
      "d": 123,
      "v": 127
    },
    {
      "midi": 56,
      "hit": false,
      "t": 75240,
      "d": 58,
      "v": 127
    },
    {
      "midi": 60,
      "hit": false,
      "t": 75240,
      "d": 60,
      "v": 127
    },
    {
      "midi": 63,
      "hit": false,
      "t": 75240,
      "d": 60,
      "v": 127
    },
    {
      "midi": 65,
      "hit": false,
      "t": 75240,
      "d": 70,
      "v": 127
    },
    {
      "midi": 68,
      "hit": false,
      "t": 75240,
      "d": 212,
      "v": 127
    },
    {
      "midi": 63,
      "hit": false,
      "t": 75600,
      "d": 50,
      "v": 127
    },
    {
      "midi": 60,
      "hit": false,
      "t": 75600,
      "d": 53,
      "v": 127
    },
    {
      "midi": 56,
      "hit": false,
      "t": 75600,
      "d": 55,
      "v": 127
    },
    {
      "midi": 65,
      "hit": false,
      "t": 75600,
      "d": 62,
      "v": 127
    },
    {
      "midi": 68,
      "hit": false,
      "t": 75600,
      "d": 270,
      "v": 127
    },
    {
      "midi": 56,
      "hit": false,
      "t": 75840,
      "d": 70,
      "v": 127
    },
    {
      "midi": 60,
      "hit": false,
      "t": 75840,
      "d": 72,
      "v": 127
    },
    {
      "midi": 63,
      "hit": false,
      "t": 75840,
      "d": 72,
      "v": 127
    },
    {
      "midi": 65,
      "hit": false,
      "t": 75840,
      "d": 77,
      "v": 127
    },
    {
      "midi": 63,
      "hit": false,
      "t": 76200,
      "d": 53,
      "v": 127
    },
    {
      "midi": 60,
      "hit": false,
      "t": 76200,
      "d": 55,
      "v": 127
    },
    {
      "midi": 56,
      "hit": false,
      "t": 76200,
      "d": 60,
      "v": 127
    },
    {
      "midi": 65,
      "hit": false,
      "t": 76200,
      "d": 67,
      "v": 127
    },
    {
      "midi": 60,
      "hit": false,
      "t": 76560,
      "d": 60,
      "v": 127
    },
    {
      "midi": 56,
      "hit": false,
      "t": 76560,
      "d": 67,
      "v": 127
    },
    {
      "midi": 63,
      "hit": false,
      "t": 76560,
      "d": 70,
      "v": 127
    },
    {
      "midi": 65,
      "hit": false,
      "t": 76560,
      "d": 77,
      "v": 127
    },
    {
      "midi": 53,
      "hit": false,
      "t": 77040,
      "d": 72,
      "v": 127
    },
    {
      "midi": 58,
      "hit": false,
      "t": 77040,
      "d": 82,
      "v": 127
    },
    {
      "midi": 62,
      "hit": false,
      "t": 77040,
      "d": 85,
      "v": 127
    },
    {
      "midi": 70,
      "hit": false,
      "t": 77040,
      "d": 290,
      "v": 127
    },
    {
      "midi": 58,
      "hit": false,
      "t": 77400,
      "d": 65,
      "v": 127
    },
    {
      "midi": 53,
      "hit": false,
      "t": 77400,
      "d": 67,
      "v": 127
    },
    {
      "midi": 62,
      "hit": false,
      "t": 77400,
      "d": 75,
      "v": 127
    },
    {
      "midi": 70,
      "hit": false,
      "t": 77520,
      "d": 273,
      "v": 127
    },
    {
      "midi": 53,
      "hit": false,
      "t": 77760,
      "d": 77,
      "v": 127
    },
    {
      "midi": 58,
      "hit": false,
      "t": 77760,
      "d": 87,
      "v": 127
    },
    {
      "midi": 62,
      "hit": false,
      "t": 77760,
      "d": 95,
      "v": 127
    },
    {
      "midi": 58,
      "hit": false,
      "t": 78120,
      "d": 285,
      "v": 127
    },
    {
      "midi": 53,
      "hit": false,
      "t": 78120,
      "d": 290,
      "v": 127
    },
    {
      "midi": 63,
      "hit": false,
      "t": 78120,
      "d": 298,
      "v": 127
    },
    {
      "midi": 53,
      "hit": false,
      "t": 78480,
      "d": 90,
      "v": 127
    },
    {
      "midi": 62,
      "hit": false,
      "t": 78480,
      "d": 92,
      "v": 127
    },
    {
      "midi": 58,
      "hit": false,
      "t": 78480,
      "d": 100,
      "v": 127
    },
    {
      "midi": 51,
      "hit": false,
      "t": 78720,
      "d": 268,
      "v": 127
    },
    {
      "midi": 58,
      "hit": false,
      "t": 78960,
      "d": 67,
      "v": 127
    },
    {
      "midi": 55,
      "hit": false,
      "t": 78960,
      "d": 70,
      "v": 127
    },
    {
      "midi": 63,
      "hit": false,
      "t": 78960,
      "d": 77,
      "v": 127
    },
    {
      "midi": 82,
      "hit": false,
      "t": 78960,
      "d": 237,
      "v": 127
    },
    {
      "midi": 75,
      "hit": false,
      "t": 78960,
      "d": 253,
      "v": 127
    },
    {
      "midi": 79,
      "hit": false,
      "t": 78960,
      "d": 253,
      "v": 127
    },
    {
      "midi": 51,
      "hit": false,
      "t": 79200,
      "d": 112,
      "v": 127
    },
    {
      "midi": 55,
      "hit": false,
      "t": 79320,
      "d": 82,
      "v": 127
    },
    {
      "midi": 58,
      "hit": false,
      "t": 79320,
      "d": 87,
      "v": 127
    },
    {
      "midi": 63,
      "hit": false,
      "t": 79320,
      "d": 90,
      "v": 127
    },
    {
      "midi": 75,
      "hit": false,
      "t": 79440,
      "d": 212,
      "v": 127
    },
    {
      "midi": 82,
      "hit": false,
      "t": 79440,
      "d": 217,
      "v": 127
    },
    {
      "midi": 79,
      "hit": false,
      "t": 79440,
      "d": 220,
      "v": 127
    },
    {
      "midi": 53,
      "hit": false,
      "t": 79680,
      "d": 72,
      "v": 127
    },
    {
      "midi": 62,
      "hit": false,
      "t": 79680,
      "d": 77,
      "v": 127
    },
    {
      "midi": 58,
      "hit": false,
      "t": 79680,
      "d": 80,
      "v": 127
    },
    {
      "midi": 46,
      "hit": false,
      "t": 79680,
      "d": 92,
      "v": 127
    },
    {
      "midi": 53,
      "hit": false,
      "t": 80040,
      "d": 77,
      "v": 127
    },
    {
      "midi": 58,
      "hit": false,
      "t": 80040,
      "d": 82,
      "v": 127
    },
    {
      "midi": 62,
      "hit": false,
      "t": 80040,
      "d": 95,
      "v": 127
    },
    {
      "midi": 46,
      "hit": false,
      "t": 80040,
      "d": 117,
      "v": 127
    },
    {
      "midi": 53,
      "hit": false,
      "t": 80400,
      "d": 843,
      "v": 127
    },
    {
      "midi": 44,
      "hit": false,
      "t": 80400,
      "d": 845,
      "v": 127
    },
    {
      "midi": 60,
      "hit": false,
      "t": 80400,
      "d": 848,
      "v": 127
    },
    {
      "midi": 56,
      "hit": false,
      "t": 80400,
      "d": 853,
      "v": 127
    },
    {
      "midi": 53,
      "hit": false,
      "t": 81600,
      "d": 268,
      "v": 127
    },
    {
      "midi": 56,
      "hit": false,
      "t": 81600,
      "d": 275,
      "v": 127
    },
    {
      "midi": 60,
      "hit": false,
      "t": 81600,
      "d": 275,
      "v": 127
    },
    {
      "midi": 44,
      "hit": false,
      "t": 81600,
      "d": 365,
      "v": 127
    },
    {
      "midi": 68,
      "hit": false,
      "t": 81600,
      "d": 237,
      "v": 127
    },
    {
      "midi": 67,
      "hit": false,
      "t": 81840,
      "d": 237,
      "v": 127
    },
    {
      "midi": 53,
      "hit": false,
      "t": 82080,
      "d": 330,
      "v": 127
    },
    {
      "midi": 62,
      "hit": false,
      "t": 82080,
      "d": 335,
      "v": 127
    },
    {
      "midi": 58,
      "hit": false,
      "t": 82080,
      "d": 337,
      "v": 127
    },
    {
      "midi": 46,
      "hit": false,
      "t": 82080,
      "d": 357,
      "v": 127
    },
    {
      "midi": 72,
      "hit": false,
      "t": 82080,
      "d": 237,
      "v": 127
    },
    {
      "midi": 70,
      "hit": false,
      "t": 82320,
      "d": 212,
      "v": 127
    },
    {
      "midi": 51,
      "hit": false,
      "t": 82560,
      "d": 253,
      "v": 127
    },
    {
      "midi": 63,
      "hit": false,
      "t": 82560,
      "d": 418,
      "v": 127
    },
    {
      "midi": 55,
      "hit": false,
      "t": 82800,
      "d": 67,
      "v": 127
    },
    {
      "midi": 58,
      "hit": false,
      "t": 82800,
      "d": 70,
      "v": 127
    },
    {
      "midi": 63,
      "hit": false,
      "t": 82800,
      "d": 75,
      "v": 127
    },
    {
      "midi": 51,
      "hit": false,
      "t": 83040,
      "d": 95,
      "v": 127
    },
    {
      "midi": 55,
      "hit": false,
      "t": 83160,
      "d": 80,
      "v": 127
    },
    {
      "midi": 58,
      "hit": false,
      "t": 83160,
      "d": 82,
      "v": 127
    },
    {
      "midi": 63,
      "hit": false,
      "t": 83160,
      "d": 95,
      "v": 127
    },
    {
      "midi": 51,
      "hit": false,
      "t": 83400,
      "d": 72,
      "v": 127
    },
    {
      "midi": 53,
      "hit": false,
      "t": 83520,
      "d": 77,
      "v": 127
    },
    {
      "midi": 58,
      "hit": false,
      "t": 83520,
      "d": 87,
      "v": 127
    },
    {
      "midi": 46,
      "hit": false,
      "t": 83520,
      "d": 97,
      "v": 127
    },
    {
      "midi": 62,
      "hit": false,
      "t": 83520,
      "d": 102,
      "v": 127
    },
    {
      "midi": 53,
      "hit": false,
      "t": 83880,
      "d": 80,
      "v": 127
    },
    {
      "midi": 46,
      "hit": false,
      "t": 83880,
      "d": 90,
      "v": 127
    },
    {
      "midi": 58,
      "hit": false,
      "t": 83880,
      "d": 90,
      "v": 127
    },
    {
      "midi": 62,
      "hit": false,
      "t": 83880,
      "d": 92,
      "v": 127
    },
    {
      "midi": 53,
      "hit": false,
      "t": 84240,
      "d": 965,
      "v": 127
    },
    {
      "midi": 56,
      "hit": false,
      "t": 84240,
      "d": 965,
      "v": 127
    },
    {
      "midi": 60,
      "hit": false,
      "t": 84240,
      "d": 968,
      "v": 127
    },
    {
      "midi": 44,
      "hit": false,
      "t": 84240,
      "d": 983,
      "v": 127
    },
    {
      "midi": 53,
      "hit": false,
      "t": 85440,
      "d": 335,
      "v": 127
    },
    {
      "midi": 56,
      "hit": false,
      "t": 85440,
      "d": 373,
      "v": 127
    },
    {
      "midi": 60,
      "hit": false,
      "t": 85440,
      "d": 385,
      "v": 127
    },
    {
      "midi": 44,
      "hit": false,
      "t": 85440,
      "d": 413,
      "v": 127
    },
    {
      "midi": 68,
      "hit": false,
      "t": 85440,
      "d": 237,
      "v": 127
    },
    {
      "midi": 67,
      "hit": false,
      "t": 85680,
      "d": 237,
      "v": 127
    },
    {
      "midi": 62,
      "hit": false,
      "t": 85920,
      "d": 352,
      "v": 127
    },
    {
      "midi": 53,
      "hit": false,
      "t": 85920,
      "d": 357,
      "v": 127
    },
    {
      "midi": 58,
      "hit": false,
      "t": 85920,
      "d": 357,
      "v": 127
    },
    {
      "midi": 46,
      "hit": false,
      "t": 85920,
      "d": 378,
      "v": 127
    },
    {
      "midi": 72,
      "hit": false,
      "t": 85920,
      "d": 237,
      "v": 127
    },
    {
      "midi": 70,
      "hit": false,
      "t": 86160,
      "d": 235,
      "v": 127
    },
    {
      "midi": 51,
      "hit": false,
      "t": 86400,
      "d": 268,
      "v": 127
    },
    {
      "midi": 63,
      "hit": false,
      "t": 86400,
      "d": 237,
      "v": 127
    },
    {
      "midi": 58,
      "hit": false,
      "t": 86640,
      "d": 67,
      "v": 127
    },
    {
      "midi": 55,
      "hit": false,
      "t": 86640,
      "d": 70,
      "v": 127
    },
    {
      "midi": 63,
      "hit": false,
      "t": 86640,
      "d": 77,
      "v": 127
    },
    {
      "midi": 82,
      "hit": false,
      "t": 86640,
      "d": 200,
      "v": 127
    },
    {
      "midi": 75,
      "hit": false,
      "t": 86640,
      "d": 205,
      "v": 127
    },
    {
      "midi": 79,
      "hit": false,
      "t": 86640,
      "d": 222,
      "v": 127
    },
    {
      "midi": 51,
      "hit": false,
      "t": 86880,
      "d": 112,
      "v": 127
    },
    {
      "midi": 55,
      "hit": false,
      "t": 87000,
      "d": 82,
      "v": 127
    },
    {
      "midi": 58,
      "hit": false,
      "t": 87000,
      "d": 87,
      "v": 127
    },
    {
      "midi": 63,
      "hit": false,
      "t": 87000,
      "d": 90,
      "v": 127
    },
    {
      "midi": 75,
      "hit": false,
      "t": 87120,
      "d": 205,
      "v": 127
    },
    {
      "midi": 82,
      "hit": false,
      "t": 87120,
      "d": 207,
      "v": 127
    },
    {
      "midi": 79,
      "hit": false,
      "t": 87120,
      "d": 212,
      "v": 127
    },
    {
      "midi": 53,
      "hit": false,
      "t": 87360,
      "d": 72,
      "v": 127
    },
    {
      "midi": 62,
      "hit": false,
      "t": 87360,
      "d": 77,
      "v": 127
    },
    {
      "midi": 58,
      "hit": false,
      "t": 87360,
      "d": 80,
      "v": 127
    },
    {
      "midi": 46,
      "hit": false,
      "t": 87360,
      "d": 92,
      "v": 127
    },
    {
      "midi": 53,
      "hit": false,
      "t": 87720,
      "d": 77,
      "v": 127
    },
    {
      "midi": 58,
      "hit": false,
      "t": 87720,
      "d": 82,
      "v": 127
    },
    {
      "midi": 62,
      "hit": false,
      "t": 87720,
      "d": 95,
      "v": 127
    },
    {
      "midi": 46,
      "hit": false,
      "t": 87720,
      "d": 117,
      "v": 127
    },
    {
      "midi": 53,
      "hit": false,
      "t": 88080,
      "d": 843,
      "v": 127
    },
    {
      "midi": 44,
      "hit": false,
      "t": 88080,
      "d": 845,
      "v": 127
    },
    {
      "midi": 60,
      "hit": false,
      "t": 88080,
      "d": 848,
      "v": 127
    },
    {
      "midi": 56,
      "hit": false,
      "t": 88080,
      "d": 853,
      "v": 127
    },
    {
      "midi": 53,
      "hit": false,
      "t": 89280,
      "d": 268,
      "v": 127
    },
    {
      "midi": 56,
      "hit": false,
      "t": 89280,
      "d": 275,
      "v": 127
    },
    {
      "midi": 60,
      "hit": false,
      "t": 89280,
      "d": 275,
      "v": 127
    },
    {
      "midi": 44,
      "hit": false,
      "t": 89280,
      "d": 365,
      "v": 127
    },
    {
      "midi": 68,
      "hit": false,
      "t": 89280,
      "d": 237,
      "v": 127
    },
    {
      "midi": 67,
      "hit": false,
      "t": 89520,
      "d": 227,
      "v": 127
    },
    {
      "midi": 53,
      "hit": false,
      "t": 89760,
      "d": 330,
      "v": 127
    },
    {
      "midi": 62,
      "hit": false,
      "t": 89760,
      "d": 335,
      "v": 127
    },
    {
      "midi": 58,
      "hit": false,
      "t": 89760,
      "d": 337,
      "v": 127
    },
    {
      "midi": 46,
      "hit": false,
      "t": 89760,
      "d": 357,
      "v": 127
    },
    {
      "midi": 72,
      "hit": false,
      "t": 89760,
      "d": 237,
      "v": 127
    },
    {
      "midi": 70,
      "hit": false,
      "t": 90000,
      "d": 227,
      "v": 127
    },
    {
      "midi": 51,
      "hit": false,
      "t": 90240,
      "d": 253,
      "v": 127
    },
    {
      "midi": 63,
      "hit": false,
      "t": 90240,
      "d": 460,
      "v": 127
    },
    {
      "midi": 55,
      "hit": false,
      "t": 90480,
      "d": 67,
      "v": 127
    },
    {
      "midi": 58,
      "hit": false,
      "t": 90480,
      "d": 70,
      "v": 127
    },
    {
      "midi": 63,
      "hit": false,
      "t": 90480,
      "d": 75,
      "v": 127
    },
    {
      "midi": 51,
      "hit": false,
      "t": 90720,
      "d": 95,
      "v": 127
    },
    {
      "midi": 55,
      "hit": false,
      "t": 90840,
      "d": 80,
      "v": 127
    },
    {
      "midi": 58,
      "hit": false,
      "t": 90840,
      "d": 82,
      "v": 127
    },
    {
      "midi": 63,
      "hit": false,
      "t": 90840,
      "d": 95,
      "v": 127
    },
    {
      "midi": 51,
      "hit": false,
      "t": 91080,
      "d": 72,
      "v": 127
    },
    {
      "midi": 53,
      "hit": false,
      "t": 91200,
      "d": 77,
      "v": 127
    },
    {
      "midi": 58,
      "hit": false,
      "t": 91200,
      "d": 87,
      "v": 127
    },
    {
      "midi": 46,
      "hit": false,
      "t": 91200,
      "d": 97,
      "v": 127
    },
    {
      "midi": 62,
      "hit": false,
      "t": 91200,
      "d": 102,
      "v": 127
    },
    {
      "midi": 53,
      "hit": false,
      "t": 91560,
      "d": 80,
      "v": 127
    },
    {
      "midi": 46,
      "hit": false,
      "t": 91560,
      "d": 90,
      "v": 127
    },
    {
      "midi": 58,
      "hit": false,
      "t": 91560,
      "d": 90,
      "v": 127
    },
    {
      "midi": 62,
      "hit": false,
      "t": 91560,
      "d": 92,
      "v": 127
    },
    {
      "midi": 53,
      "hit": false,
      "t": 91920,
      "d": 965,
      "v": 127
    },
    {
      "midi": 56,
      "hit": false,
      "t": 91920,
      "d": 965,
      "v": 127
    },
    {
      "midi": 60,
      "hit": false,
      "t": 91920,
      "d": 968,
      "v": 127
    },
    {
      "midi": 44,
      "hit": false,
      "t": 91920,
      "d": 983,
      "v": 127
    },
    {
      "midi": 51,
      "hit": false,
      "t": 93120,
      "d": 378,
      "v": 127
    },
    {
      "midi": 56,
      "hit": false,
      "t": 93120,
      "d": 405,
      "v": 127
    },
    {
      "midi": 60,
      "hit": false,
      "t": 93120,
      "d": 405,
      "v": 127
    },
    {
      "midi": 44,
      "hit": false,
      "t": 93120,
      "d": 435,
      "v": 127
    },
    {
      "midi": 53,
      "hit": false,
      "t": 93600,
      "d": 375,
      "v": 127
    },
    {
      "midi": 62,
      "hit": false,
      "t": 93600,
      "d": 378,
      "v": 127
    },
    {
      "midi": 58,
      "hit": false,
      "t": 93600,
      "d": 385,
      "v": 127
    },
    {
      "midi": 46,
      "hit": false,
      "t": 93600,
      "d": 403,
      "v": 127
    },
    {
      "midi": 51,
      "hit": false,
      "t": 94080,
      "d": 268,
      "v": 127
    },
    {
      "midi": 58,
      "hit": false,
      "t": 94320,
      "d": 67,
      "v": 127
    },
    {
      "midi": 55,
      "hit": false,
      "t": 94320,
      "d": 70,
      "v": 127
    },
    {
      "midi": 63,
      "hit": false,
      "t": 94320,
      "d": 77,
      "v": 127
    },
    {
      "midi": 82,
      "hit": false,
      "t": 94320,
      "d": 237,
      "v": 127
    },
    {
      "midi": 75,
      "hit": false,
      "t": 94320,
      "d": 253,
      "v": 127
    },
    {
      "midi": 79,
      "hit": false,
      "t": 94320,
      "d": 253,
      "v": 127
    },
    {
      "midi": 51,
      "hit": false,
      "t": 94560,
      "d": 112,
      "v": 127
    },
    {
      "midi": 55,
      "hit": false,
      "t": 94680,
      "d": 82,
      "v": 127
    },
    {
      "midi": 58,
      "hit": false,
      "t": 94680,
      "d": 87,
      "v": 127
    },
    {
      "midi": 63,
      "hit": false,
      "t": 94680,
      "d": 90,
      "v": 127
    },
    {
      "midi": 75,
      "hit": false,
      "t": 94800,
      "d": 212,
      "v": 127
    },
    {
      "midi": 82,
      "hit": false,
      "t": 94800,
      "d": 217,
      "v": 127
    },
    {
      "midi": 79,
      "hit": false,
      "t": 94800,
      "d": 220,
      "v": 127
    },
    {
      "midi": 53,
      "hit": false,
      "t": 95040,
      "d": 72,
      "v": 127
    },
    {
      "midi": 62,
      "hit": false,
      "t": 95040,
      "d": 77,
      "v": 127
    },
    {
      "midi": 58,
      "hit": false,
      "t": 95040,
      "d": 80,
      "v": 127
    },
    {
      "midi": 46,
      "hit": false,
      "t": 95040,
      "d": 92,
      "v": 127
    },
    {
      "midi": 53,
      "hit": false,
      "t": 95400,
      "d": 77,
      "v": 127
    },
    {
      "midi": 58,
      "hit": false,
      "t": 95400,
      "d": 82,
      "v": 127
    },
    {
      "midi": 62,
      "hit": false,
      "t": 95400,
      "d": 95,
      "v": 127
    },
    {
      "midi": 46,
      "hit": false,
      "t": 95400,
      "d": 117,
      "v": 127
    },
    {
      "midi": 53,
      "hit": false,
      "t": 95760,
      "d": 843,
      "v": 127
    },
    {
      "midi": 44,
      "hit": false,
      "t": 95760,
      "d": 845,
      "v": 127
    },
    {
      "midi": 60,
      "hit": false,
      "t": 95760,
      "d": 848,
      "v": 127
    },
    {
      "midi": 56,
      "hit": false,
      "t": 95760,
      "d": 853,
      "v": 127
    },
    {
      "midi": 53,
      "hit": false,
      "t": 96960,
      "d": 268,
      "v": 127
    },
    {
      "midi": 56,
      "hit": false,
      "t": 96960,
      "d": 275,
      "v": 127
    },
    {
      "midi": 60,
      "hit": false,
      "t": 96960,
      "d": 275,
      "v": 127
    },
    {
      "midi": 44,
      "hit": false,
      "t": 96960,
      "d": 365,
      "v": 127
    },
    {
      "midi": 68,
      "hit": false,
      "t": 96960,
      "d": 237,
      "v": 127
    },
    {
      "midi": 67,
      "hit": false,
      "t": 97200,
      "d": 237,
      "v": 127
    },
    {
      "midi": 53,
      "hit": false,
      "t": 97440,
      "d": 330,
      "v": 127
    },
    {
      "midi": 62,
      "hit": false,
      "t": 97440,
      "d": 335,
      "v": 127
    },
    {
      "midi": 58,
      "hit": false,
      "t": 97440,
      "d": 337,
      "v": 127
    },
    {
      "midi": 46,
      "hit": false,
      "t": 97440,
      "d": 357,
      "v": 127
    },
    {
      "midi": 72,
      "hit": false,
      "t": 97440,
      "d": 237,
      "v": 127
    },
    {
      "midi": 70,
      "hit": false,
      "t": 97680,
      "d": 212,
      "v": 127
    },
    {
      "midi": 51,
      "hit": false,
      "t": 97920,
      "d": 253,
      "v": 127
    },
    {
      "midi": 63,
      "hit": false,
      "t": 97920,
      "d": 418,
      "v": 127
    },
    {
      "midi": 55,
      "hit": false,
      "t": 98160,
      "d": 67,
      "v": 127
    },
    {
      "midi": 58,
      "hit": false,
      "t": 98160,
      "d": 70,
      "v": 127
    },
    {
      "midi": 63,
      "hit": false,
      "t": 98160,
      "d": 75,
      "v": 127
    },
    {
      "midi": 51,
      "hit": false,
      "t": 98400,
      "d": 95,
      "v": 127
    },
    {
      "midi": 55,
      "hit": false,
      "t": 98520,
      "d": 80,
      "v": 127
    },
    {
      "midi": 58,
      "hit": false,
      "t": 98520,
      "d": 82,
      "v": 127
    },
    {
      "midi": 63,
      "hit": false,
      "t": 98520,
      "d": 95,
      "v": 127
    },
    {
      "midi": 51,
      "hit": false,
      "t": 98760,
      "d": 72,
      "v": 127
    },
    {
      "midi": 53,
      "hit": false,
      "t": 98880,
      "d": 77,
      "v": 127
    },
    {
      "midi": 58,
      "hit": false,
      "t": 98880,
      "d": 87,
      "v": 127
    },
    {
      "midi": 46,
      "hit": false,
      "t": 98880,
      "d": 97,
      "v": 127
    },
    {
      "midi": 62,
      "hit": false,
      "t": 98880,
      "d": 102,
      "v": 127
    },
    {
      "midi": 53,
      "hit": false,
      "t": 99240,
      "d": 80,
      "v": 127
    },
    {
      "midi": 46,
      "hit": false,
      "t": 99240,
      "d": 90,
      "v": 127
    },
    {
      "midi": 58,
      "hit": false,
      "t": 99240,
      "d": 90,
      "v": 127
    },
    {
      "midi": 62,
      "hit": false,
      "t": 99240,
      "d": 92,
      "v": 127
    },
    {
      "midi": 53,
      "hit": false,
      "t": 99600,
      "d": 965,
      "v": 127
    },
    {
      "midi": 56,
      "hit": false,
      "t": 99600,
      "d": 965,
      "v": 127
    },
    {
      "midi": 60,
      "hit": false,
      "t": 99600,
      "d": 968,
      "v": 127
    },
    {
      "midi": 44,
      "hit": false,
      "t": 99600,
      "d": 983,
      "v": 127
    },
    {
      "midi": 53,
      "hit": false,
      "t": 100800,
      "d": 335,
      "v": 127
    },
    {
      "midi": 56,
      "hit": false,
      "t": 100800,
      "d": 373,
      "v": 127
    },
    {
      "midi": 60,
      "hit": false,
      "t": 100800,
      "d": 385,
      "v": 127
    },
    {
      "midi": 44,
      "hit": false,
      "t": 100800,
      "d": 413,
      "v": 127
    },
    {
      "midi": 68,
      "hit": false,
      "t": 100800,
      "d": 237,
      "v": 127
    },
    {
      "midi": 67,
      "hit": false,
      "t": 101040,
      "d": 237,
      "v": 127
    },
    {
      "midi": 62,
      "hit": false,
      "t": 101280,
      "d": 352,
      "v": 127
    },
    {
      "midi": 53,
      "hit": false,
      "t": 101280,
      "d": 357,
      "v": 127
    },
    {
      "midi": 58,
      "hit": false,
      "t": 101280,
      "d": 357,
      "v": 127
    },
    {
      "midi": 46,
      "hit": false,
      "t": 101280,
      "d": 378,
      "v": 127
    },
    {
      "midi": 72,
      "hit": false,
      "t": 101280,
      "d": 237,
      "v": 127
    },
    {
      "midi": 70,
      "hit": false,
      "t": 101520,
      "d": 235,
      "v": 127
    },
    {
      "midi": 51,
      "hit": false,
      "t": 101760,
      "d": 268,
      "v": 127
    },
    {
      "midi": 63,
      "hit": false,
      "t": 101760,
      "d": 237,
      "v": 127
    },
    {
      "midi": 58,
      "hit": false,
      "t": 102000,
      "d": 67,
      "v": 127
    },
    {
      "midi": 55,
      "hit": false,
      "t": 102000,
      "d": 70,
      "v": 127
    },
    {
      "midi": 63,
      "hit": false,
      "t": 102000,
      "d": 77,
      "v": 127
    },
    {
      "midi": 82,
      "hit": false,
      "t": 102000,
      "d": 200,
      "v": 127
    },
    {
      "midi": 75,
      "hit": false,
      "t": 102000,
      "d": 205,
      "v": 127
    },
    {
      "midi": 79,
      "hit": false,
      "t": 102000,
      "d": 222,
      "v": 127
    },
    {
      "midi": 51,
      "hit": false,
      "t": 102240,
      "d": 112,
      "v": 127
    },
    {
      "midi": 55,
      "hit": false,
      "t": 102360,
      "d": 82,
      "v": 127
    },
    {
      "midi": 58,
      "hit": false,
      "t": 102360,
      "d": 87,
      "v": 127
    },
    {
      "midi": 63,
      "hit": false,
      "t": 102360,
      "d": 90,
      "v": 127
    },
    {
      "midi": 75,
      "hit": false,
      "t": 102480,
      "d": 205,
      "v": 127
    },
    {
      "midi": 82,
      "hit": false,
      "t": 102480,
      "d": 207,
      "v": 127
    },
    {
      "midi": 79,
      "hit": false,
      "t": 102480,
      "d": 212,
      "v": 127
    },
    {
      "midi": 53,
      "hit": false,
      "t": 102720,
      "d": 72,
      "v": 127
    },
    {
      "midi": 62,
      "hit": false,
      "t": 102720,
      "d": 77,
      "v": 127
    },
    {
      "midi": 58,
      "hit": false,
      "t": 102720,
      "d": 80,
      "v": 127
    },
    {
      "midi": 46,
      "hit": false,
      "t": 102720,
      "d": 92,
      "v": 127
    },
    {
      "midi": 53,
      "hit": false,
      "t": 103080,
      "d": 77,
      "v": 127
    },
    {
      "midi": 58,
      "hit": false,
      "t": 103080,
      "d": 82,
      "v": 127
    },
    {
      "midi": 62,
      "hit": false,
      "t": 103080,
      "d": 95,
      "v": 127
    },
    {
      "midi": 46,
      "hit": false,
      "t": 103080,
      "d": 117,
      "v": 127
    },
    {
      "midi": 53,
      "hit": false,
      "t": 103440,
      "d": 843,
      "v": 127
    },
    {
      "midi": 44,
      "hit": false,
      "t": 103440,
      "d": 845,
      "v": 127
    },
    {
      "midi": 60,
      "hit": false,
      "t": 103440,
      "d": 848,
      "v": 127
    },
    {
      "midi": 56,
      "hit": false,
      "t": 103440,
      "d": 853,
      "v": 127
    },
    {
      "midi": 53,
      "hit": false,
      "t": 104640,
      "d": 268,
      "v": 127
    },
    {
      "midi": 56,
      "hit": false,
      "t": 104640,
      "d": 275,
      "v": 127
    },
    {
      "midi": 60,
      "hit": false,
      "t": 104640,
      "d": 275,
      "v": 127
    },
    {
      "midi": 44,
      "hit": false,
      "t": 104640,
      "d": 365,
      "v": 127
    },
    {
      "midi": 68,
      "hit": false,
      "t": 104640,
      "d": 237,
      "v": 127
    },
    {
      "midi": 67,
      "hit": false,
      "t": 104880,
      "d": 227,
      "v": 127
    },
    {
      "midi": 53,
      "hit": false,
      "t": 105120,
      "d": 330,
      "v": 127
    },
    {
      "midi": 62,
      "hit": false,
      "t": 105120,
      "d": 335,
      "v": 127
    },
    {
      "midi": 58,
      "hit": false,
      "t": 105120,
      "d": 337,
      "v": 127
    },
    {
      "midi": 46,
      "hit": false,
      "t": 105120,
      "d": 357,
      "v": 127
    },
    {
      "midi": 72,
      "hit": false,
      "t": 105120,
      "d": 237,
      "v": 127
    },
    {
      "midi": 70,
      "hit": false,
      "t": 105360,
      "d": 227,
      "v": 127
    },
    {
      "midi": 51,
      "hit": false,
      "t": 105600,
      "d": 253,
      "v": 127
    },
    {
      "midi": 63,
      "hit": false,
      "t": 105600,
      "d": 460,
      "v": 127
    },
    {
      "midi": 55,
      "hit": false,
      "t": 105840,
      "d": 67,
      "v": 127
    },
    {
      "midi": 58,
      "hit": false,
      "t": 105840,
      "d": 70,
      "v": 127
    },
    {
      "midi": 63,
      "hit": false,
      "t": 105840,
      "d": 75,
      "v": 127
    },
    {
      "midi": 51,
      "hit": false,
      "t": 106080,
      "d": 95,
      "v": 127
    },
    {
      "midi": 55,
      "hit": false,
      "t": 106200,
      "d": 80,
      "v": 127
    },
    {
      "midi": 58,
      "hit": false,
      "t": 106200,
      "d": 82,
      "v": 127
    },
    {
      "midi": 63,
      "hit": false,
      "t": 106200,
      "d": 95,
      "v": 127
    },
    {
      "midi": 51,
      "hit": false,
      "t": 106440,
      "d": 72,
      "v": 127
    },
    {
      "midi": 53,
      "hit": false,
      "t": 106560,
      "d": 77,
      "v": 127
    },
    {
      "midi": 58,
      "hit": false,
      "t": 106560,
      "d": 87,
      "v": 127
    },
    {
      "midi": 46,
      "hit": false,
      "t": 106560,
      "d": 97,
      "v": 127
    },
    {
      "midi": 62,
      "hit": false,
      "t": 106560,
      "d": 102,
      "v": 127
    },
    {
      "midi": 53,
      "hit": false,
      "t": 106920,
      "d": 80,
      "v": 127
    },
    {
      "midi": 46,
      "hit": false,
      "t": 106920,
      "d": 90,
      "v": 127
    },
    {
      "midi": 58,
      "hit": false,
      "t": 106920,
      "d": 90,
      "v": 127
    },
    {
      "midi": 62,
      "hit": false,
      "t": 106920,
      "d": 92,
      "v": 127
    },
    {
      "midi": 53,
      "hit": false,
      "t": 107280,
      "d": 965,
      "v": 127
    },
    {
      "midi": 56,
      "hit": false,
      "t": 107280,
      "d": 965,
      "v": 127
    },
    {
      "midi": 60,
      "hit": false,
      "t": 107280,
      "d": 968,
      "v": 127
    },
    {
      "midi": 44,
      "hit": false,
      "t": 107280,
      "d": 983,
      "v": 127
    },
    {
      "midi": 51,
      "hit": false,
      "t": 108480,
      "d": 378,
      "v": 127
    },
    {
      "midi": 56,
      "hit": false,
      "t": 108480,
      "d": 405,
      "v": 127
    },
    {
      "midi": 60,
      "hit": false,
      "t": 108480,
      "d": 405,
      "v": 127
    },
    {
      "midi": 44,
      "hit": false,
      "t": 108480,
      "d": 435,
      "v": 127
    },
    {
      "midi": 53,
      "hit": false,
      "t": 108960,
      "d": 375,
      "v": 127
    },
    {
      "midi": 62,
      "hit": false,
      "t": 108960,
      "d": 378,
      "v": 127
    },
    {
      "midi": 58,
      "hit": false,
      "t": 108960,
      "d": 385,
      "v": 127
    },
    {
      "midi": 46,
      "hit": false,
      "t": 108960,
      "d": 403,
      "v": 127
    },
    {
      "midi": 56,
      "hit": false,
      "t": 109680,
      "d": 55,
      "v": 127
    },
    {
      "midi": 65,
      "hit": false,
      "t": 109680,
      "d": 62,
      "v": 127
    },
    {
      "midi": 60,
      "hit": false,
      "t": 109680,
      "d": 67,
      "v": 127
    },
    {
      "midi": 63,
      "hit": false,
      "t": 109680,
      "d": 67,
      "v": 127
    },
    {
      "midi": 68,
      "hit": false,
      "t": 109680,
      "d": 227,
      "v": 127
    },
    {
      "midi": 63,
      "hit": false,
      "t": 110040,
      "d": 45,
      "v": 127
    },
    {
      "midi": 65,
      "hit": false,
      "t": 110040,
      "d": 50,
      "v": 127
    },
    {
      "midi": 60,
      "hit": false,
      "t": 110040,
      "d": 55,
      "v": 127
    },
    {
      "midi": 56,
      "hit": false,
      "t": 110040,
      "d": 60,
      "v": 127
    },
    {
      "midi": 68,
      "hit": false,
      "t": 110040,
      "d": 258,
      "v": 127
    },
    {
      "midi": 60,
      "hit": false,
      "t": 110400,
      "d": 60,
      "v": 127
    },
    {
      "midi": 56,
      "hit": false,
      "t": 110400,
      "d": 65,
      "v": 127
    },
    {
      "midi": 63,
      "hit": false,
      "t": 110400,
      "d": 67,
      "v": 127
    },
    {
      "midi": 65,
      "hit": false,
      "t": 110400,
      "d": 70,
      "v": 127
    },
    {
      "midi": 60,
      "hit": false,
      "t": 110760,
      "d": 60,
      "v": 127
    },
    {
      "midi": 56,
      "hit": false,
      "t": 110760,
      "d": 62,
      "v": 127
    },
    {
      "midi": 63,
      "hit": false,
      "t": 110760,
      "d": 62,
      "v": 127
    },
    {
      "midi": 65,
      "hit": false,
      "t": 110760,
      "d": 70,
      "v": 127
    },
    {
      "midi": 56,
      "hit": false,
      "t": 111120,
      "d": 60,
      "v": 127
    },
    {
      "midi": 60,
      "hit": false,
      "t": 111120,
      "d": 60,
      "v": 127
    },
    {
      "midi": 63,
      "hit": false,
      "t": 111120,
      "d": 70,
      "v": 127
    },
    {
      "midi": 65,
      "hit": false,
      "t": 111120,
      "d": 75,
      "v": 127
    },
    {
      "midi": 58,
      "hit": false,
      "t": 111600,
      "d": 70,
      "v": 127
    },
    {
      "midi": 53,
      "hit": false,
      "t": 111600,
      "d": 80,
      "v": 127
    },
    {
      "midi": 62,
      "hit": false,
      "t": 111600,
      "d": 85,
      "v": 127
    },
    {
      "midi": 70,
      "hit": false,
      "t": 111600,
      "d": 240,
      "v": 127
    },
    {
      "midi": 53,
      "hit": false,
      "t": 111960,
      "d": 70,
      "v": 127
    },
    {
      "midi": 58,
      "hit": false,
      "t": 111960,
      "d": 75,
      "v": 127
    },
    {
      "midi": 62,
      "hit": false,
      "t": 111960,
      "d": 85,
      "v": 127
    },
    {
      "midi": 70,
      "hit": false,
      "t": 111960,
      "d": 278,
      "v": 127
    },
    {
      "midi": 58,
      "hit": false,
      "t": 112320,
      "d": 58,
      "v": 127
    },
    {
      "midi": 53,
      "hit": false,
      "t": 112320,
      "d": 62,
      "v": 127
    },
    {
      "midi": 62,
      "hit": false,
      "t": 112320,
      "d": 72,
      "v": 127
    },
    {
      "midi": 53,
      "hit": false,
      "t": 112680,
      "d": 67,
      "v": 127
    },
    {
      "midi": 58,
      "hit": false,
      "t": 112680,
      "d": 80,
      "v": 127
    },
    {
      "midi": 62,
      "hit": false,
      "t": 112680,
      "d": 85,
      "v": 127
    },
    {
      "midi": 63,
      "hit": false,
      "t": 113280,
      "d": 117,
      "v": 127
    },
    {
      "midi": 65,
      "hit": false,
      "t": 113280,
      "d": 117,
      "v": 127
    },
    {
      "midi": 56,
      "hit": false,
      "t": 113280,
      "d": 120,
      "v": 127
    },
    {
      "midi": 60,
      "hit": false,
      "t": 113280,
      "d": 123,
      "v": 127
    },
    {
      "midi": 68,
      "hit": false,
      "t": 113520,
      "d": 235,
      "v": 127
    },
    {
      "midi": 56,
      "hit": false,
      "t": 113640,
      "d": 58,
      "v": 127
    },
    {
      "midi": 60,
      "hit": false,
      "t": 113640,
      "d": 60,
      "v": 127
    },
    {
      "midi": 63,
      "hit": false,
      "t": 113640,
      "d": 60,
      "v": 127
    },
    {
      "midi": 65,
      "hit": false,
      "t": 113640,
      "d": 70,
      "v": 127
    },
    {
      "midi": 63,
      "hit": false,
      "t": 114000,
      "d": 50,
      "v": 127
    },
    {
      "midi": 60,
      "hit": false,
      "t": 114000,
      "d": 53,
      "v": 127
    },
    {
      "midi": 56,
      "hit": false,
      "t": 114000,
      "d": 55,
      "v": 127
    },
    {
      "midi": 65,
      "hit": false,
      "t": 114000,
      "d": 62,
      "v": 127
    },
    {
      "midi": 68,
      "hit": false,
      "t": 114000,
      "d": 263,
      "v": 127
    },
    {
      "midi": 56,
      "hit": false,
      "t": 114240,
      "d": 70,
      "v": 127
    },
    {
      "midi": 60,
      "hit": false,
      "t": 114240,
      "d": 72,
      "v": 127
    },
    {
      "midi": 63,
      "hit": false,
      "t": 114240,
      "d": 72,
      "v": 127
    },
    {
      "midi": 65,
      "hit": false,
      "t": 114240,
      "d": 77,
      "v": 127
    },
    {
      "midi": 63,
      "hit": false,
      "t": 114600,
      "d": 53,
      "v": 127
    },
    {
      "midi": 60,
      "hit": false,
      "t": 114600,
      "d": 55,
      "v": 127
    },
    {
      "midi": 56,
      "hit": false,
      "t": 114600,
      "d": 60,
      "v": 127
    },
    {
      "midi": 65,
      "hit": false,
      "t": 114600,
      "d": 67,
      "v": 127
    },
    {
      "midi": 60,
      "hit": false,
      "t": 114960,
      "d": 60,
      "v": 127
    },
    {
      "midi": 56,
      "hit": false,
      "t": 114960,
      "d": 67,
      "v": 127
    },
    {
      "midi": 63,
      "hit": false,
      "t": 114960,
      "d": 70,
      "v": 127
    },
    {
      "midi": 65,
      "hit": false,
      "t": 114960,
      "d": 77,
      "v": 127
    },
    {
      "midi": 53,
      "hit": false,
      "t": 115440,
      "d": 72,
      "v": 127
    },
    {
      "midi": 58,
      "hit": false,
      "t": 115440,
      "d": 82,
      "v": 127
    },
    {
      "midi": 62,
      "hit": false,
      "t": 115440,
      "d": 85,
      "v": 127
    },
    {
      "midi": 70,
      "hit": false,
      "t": 115440,
      "d": 260,
      "v": 127
    },
    {
      "midi": 58,
      "hit": false,
      "t": 115800,
      "d": 65,
      "v": 127
    },
    {
      "midi": 53,
      "hit": false,
      "t": 115800,
      "d": 67,
      "v": 127
    },
    {
      "midi": 62,
      "hit": false,
      "t": 115800,
      "d": 75,
      "v": 127
    },
    {
      "midi": 70,
      "hit": false,
      "t": 115920,
      "d": 225,
      "v": 127
    },
    {
      "midi": 53,
      "hit": false,
      "t": 116160,
      "d": 77,
      "v": 127
    },
    {
      "midi": 58,
      "hit": false,
      "t": 116160,
      "d": 87,
      "v": 127
    },
    {
      "midi": 62,
      "hit": false,
      "t": 116160,
      "d": 95,
      "v": 127
    },
    {
      "midi": 75,
      "hit": false,
      "t": 116400,
      "d": 227,
      "v": 127
    },
    {
      "midi": 58,
      "hit": false,
      "t": 116520,
      "d": 285,
      "v": 127
    },
    {
      "midi": 53,
      "hit": false,
      "t": 116520,
      "d": 290,
      "v": 127
    },
    {
      "midi": 63,
      "hit": false,
      "t": 116520,
      "d": 298,
      "v": 127
    },
    {
      "midi": 53,
      "hit": false,
      "t": 116880,
      "d": 90,
      "v": 127
    },
    {
      "midi": 62,
      "hit": false,
      "t": 116880,
      "d": 92,
      "v": 127
    },
    {
      "midi": 58,
      "hit": false,
      "t": 116880,
      "d": 100,
      "v": 127
    },
    {
      "midi": 75,
      "hit": false,
      "t": 116880,
      "d": 240,
      "v": 127
    },
    {
      "midi": 56,
      "hit": false,
      "t": 117360,
      "d": 55,
      "v": 127
    },
    {
      "midi": 65,
      "hit": false,
      "t": 117360,
      "d": 62,
      "v": 127
    },
    {
      "midi": 60,
      "hit": false,
      "t": 117360,
      "d": 67,
      "v": 127
    },
    {
      "midi": 63,
      "hit": false,
      "t": 117360,
      "d": 67,
      "v": 127
    },
    {
      "midi": 68,
      "hit": false,
      "t": 117360,
      "d": 248,
      "v": 127
    },
    {
      "midi": 63,
      "hit": false,
      "t": 117720,
      "d": 45,
      "v": 127
    },
    {
      "midi": 65,
      "hit": false,
      "t": 117720,
      "d": 50,
      "v": 127
    },
    {
      "midi": 60,
      "hit": false,
      "t": 117720,
      "d": 55,
      "v": 127
    },
    {
      "midi": 56,
      "hit": false,
      "t": 117720,
      "d": 60,
      "v": 127
    },
    {
      "midi": 68,
      "hit": false,
      "t": 117840,
      "d": 285,
      "v": 127
    },
    {
      "midi": 60,
      "hit": false,
      "t": 118080,
      "d": 60,
      "v": 127
    },
    {
      "midi": 56,
      "hit": false,
      "t": 118080,
      "d": 65,
      "v": 127
    },
    {
      "midi": 63,
      "hit": false,
      "t": 118080,
      "d": 67,
      "v": 127
    },
    {
      "midi": 65,
      "hit": false,
      "t": 118080,
      "d": 70,
      "v": 127
    },
    {
      "midi": 60,
      "hit": false,
      "t": 118440,
      "d": 60,
      "v": 127
    },
    {
      "midi": 56,
      "hit": false,
      "t": 118440,
      "d": 62,
      "v": 127
    },
    {
      "midi": 63,
      "hit": false,
      "t": 118440,
      "d": 62,
      "v": 127
    },
    {
      "midi": 65,
      "hit": false,
      "t": 118440,
      "d": 70,
      "v": 127
    },
    {
      "midi": 56,
      "hit": false,
      "t": 118800,
      "d": 60,
      "v": 127
    },
    {
      "midi": 60,
      "hit": false,
      "t": 118800,
      "d": 60,
      "v": 127
    },
    {
      "midi": 63,
      "hit": false,
      "t": 118800,
      "d": 70,
      "v": 127
    },
    {
      "midi": 65,
      "hit": false,
      "t": 118800,
      "d": 75,
      "v": 127
    },
    {
      "midi": 58,
      "hit": false,
      "t": 119280,
      "d": 70,
      "v": 127
    },
    {
      "midi": 53,
      "hit": false,
      "t": 119280,
      "d": 80,
      "v": 127
    },
    {
      "midi": 62,
      "hit": false,
      "t": 119280,
      "d": 85,
      "v": 127
    },
    {
      "midi": 70,
      "hit": false,
      "t": 119280,
      "d": 260,
      "v": 127
    },
    {
      "midi": 53,
      "hit": false,
      "t": 119640,
      "d": 70,
      "v": 127
    },
    {
      "midi": 58,
      "hit": false,
      "t": 119640,
      "d": 75,
      "v": 127
    },
    {
      "midi": 62,
      "hit": false,
      "t": 119640,
      "d": 85,
      "v": 127
    },
    {
      "midi": 70,
      "hit": false,
      "t": 119760,
      "d": 275,
      "v": 127
    },
    {
      "midi": 58,
      "hit": false,
      "t": 120000,
      "d": 58,
      "v": 127
    },
    {
      "midi": 53,
      "hit": false,
      "t": 120000,
      "d": 62,
      "v": 127
    },
    {
      "midi": 62,
      "hit": false,
      "t": 120000,
      "d": 72,
      "v": 127
    },
    {
      "midi": 53,
      "hit": false,
      "t": 120360,
      "d": 67,
      "v": 127
    },
    {
      "midi": 58,
      "hit": false,
      "t": 120360,
      "d": 80,
      "v": 127
    },
    {
      "midi": 62,
      "hit": false,
      "t": 120360,
      "d": 85,
      "v": 127
    },
    {
      "midi": 63,
      "hit": false,
      "t": 120960,
      "d": 117,
      "v": 127
    },
    {
      "midi": 65,
      "hit": false,
      "t": 120960,
      "d": 117,
      "v": 127
    },
    {
      "midi": 56,
      "hit": false,
      "t": 120960,
      "d": 120,
      "v": 127
    },
    {
      "midi": 60,
      "hit": false,
      "t": 120960,
      "d": 123,
      "v": 127
    },
    {
      "midi": 56,
      "hit": false,
      "t": 121320,
      "d": 58,
      "v": 127
    },
    {
      "midi": 60,
      "hit": false,
      "t": 121320,
      "d": 60,
      "v": 127
    },
    {
      "midi": 63,
      "hit": false,
      "t": 121320,
      "d": 60,
      "v": 127
    },
    {
      "midi": 65,
      "hit": false,
      "t": 121320,
      "d": 70,
      "v": 127
    },
    {
      "midi": 68,
      "hit": false,
      "t": 121320,
      "d": 212,
      "v": 127
    },
    {
      "midi": 63,
      "hit": false,
      "t": 121680,
      "d": 50,
      "v": 127
    },
    {
      "midi": 60,
      "hit": false,
      "t": 121680,
      "d": 53,
      "v": 127
    },
    {
      "midi": 56,
      "hit": false,
      "t": 121680,
      "d": 55,
      "v": 127
    },
    {
      "midi": 65,
      "hit": false,
      "t": 121680,
      "d": 62,
      "v": 127
    },
    {
      "midi": 68,
      "hit": false,
      "t": 121680,
      "d": 270,
      "v": 127
    },
    {
      "midi": 56,
      "hit": false,
      "t": 121920,
      "d": 70,
      "v": 127
    },
    {
      "midi": 60,
      "hit": false,
      "t": 121920,
      "d": 72,
      "v": 127
    },
    {
      "midi": 63,
      "hit": false,
      "t": 121920,
      "d": 72,
      "v": 127
    },
    {
      "midi": 65,
      "hit": false,
      "t": 121920,
      "d": 77,
      "v": 127
    },
    {
      "midi": 63,
      "hit": false,
      "t": 122280,
      "d": 53,
      "v": 127
    },
    {
      "midi": 60,
      "hit": false,
      "t": 122280,
      "d": 55,
      "v": 127
    },
    {
      "midi": 56,
      "hit": false,
      "t": 122280,
      "d": 60,
      "v": 127
    },
    {
      "midi": 65,
      "hit": false,
      "t": 122280,
      "d": 67,
      "v": 127
    },
    {
      "midi": 60,
      "hit": false,
      "t": 122640,
      "d": 60,
      "v": 127
    },
    {
      "midi": 56,
      "hit": false,
      "t": 122640,
      "d": 67,
      "v": 127
    },
    {
      "midi": 63,
      "hit": false,
      "t": 122640,
      "d": 70,
      "v": 127
    },
    {
      "midi": 65,
      "hit": false,
      "t": 122640,
      "d": 77,
      "v": 127
    },
    {
      "midi": 53,
      "hit": false,
      "t": 123120,
      "d": 72,
      "v": 127
    },
    {
      "midi": 58,
      "hit": false,
      "t": 123120,
      "d": 82,
      "v": 127
    },
    {
      "midi": 62,
      "hit": false,
      "t": 123120,
      "d": 85,
      "v": 127
    },
    {
      "midi": 70,
      "hit": false,
      "t": 123120,
      "d": 290,
      "v": 127
    },
    {
      "midi": 58,
      "hit": false,
      "t": 123480,
      "d": 65,
      "v": 127
    },
    {
      "midi": 53,
      "hit": false,
      "t": 123480,
      "d": 67,
      "v": 127
    },
    {
      "midi": 62,
      "hit": false,
      "t": 123480,
      "d": 75,
      "v": 127
    },
    {
      "midi": 70,
      "hit": false,
      "t": 123600,
      "d": 273,
      "v": 127
    },
    {
      "midi": 53,
      "hit": false,
      "t": 123840,
      "d": 77,
      "v": 127
    },
    {
      "midi": 58,
      "hit": false,
      "t": 123840,
      "d": 87,
      "v": 127
    },
    {
      "midi": 62,
      "hit": false,
      "t": 123840,
      "d": 95,
      "v": 127
    },
    {
      "midi": 58,
      "hit": false,
      "t": 124200,
      "d": 285,
      "v": 127
    },
    {
      "midi": 53,
      "hit": false,
      "t": 124200,
      "d": 290,
      "v": 127
    },
    {
      "midi": 63,
      "hit": false,
      "t": 124200,
      "d": 298,
      "v": 127
    },
    {
      "midi": 53,
      "hit": false,
      "t": 124560,
      "d": 90,
      "v": 127
    },
    {
      "midi": 62,
      "hit": false,
      "t": 124560,
      "d": 92,
      "v": 127
    },
    {
      "midi": 58,
      "hit": false,
      "t": 124560,
      "d": 100,
      "v": 127
    },
    {
      "midi": 82,
      "hit": false,
      "t": 125040,
      "d": 237,
      "v": 127
    },
    {
      "midi": 75,
      "hit": false,
      "t": 125040,
      "d": 253,
      "v": 127
    },
    {
      "midi": 79,
      "hit": false,
      "t": 125040,
      "d": 253,
      "v": 127
    },
    {
      "midi": 75,
      "hit": false,
      "t": 125520,
      "d": 212,
      "v": 127
    },
    {
      "midi": 82,
      "hit": false,
      "t": 125520,
      "d": 217,
      "v": 127
    },
    {
      "midi": 79,
      "hit": false,
      "t": 125520,
      "d": 220,
      "v": 127
    },
    {
      "midi": 68,
      "hit": false,
      "t": 127680,
      "d": 237,
      "v": 127
    },
    {
      "midi": 67,
      "hit": false,
      "t": 127920,
      "d": 237,
      "v": 127
    },
    {
      "midi": 72,
      "hit": false,
      "t": 128160,
      "d": 237,
      "v": 127
    },
    {
      "midi": 70,
      "hit": false,
      "t": 128400,
      "d": 212,
      "v": 127
    },
    {
      "midi": 63,
      "hit": false,
      "t": 128640,
      "d": 418,
      "v": 127
    },
    {
      "midi": 68,
      "hit": false,
      "t": 131520,
      "d": 237,
      "v": 127
    },
    {
      "midi": 67,
      "hit": false,
      "t": 131760,
      "d": 237,
      "v": 127
    },
    {
      "midi": 72,
      "hit": false,
      "t": 132000,
      "d": 237,
      "v": 127
    },
    {
      "midi": 70,
      "hit": false,
      "t": 132240,
      "d": 235,
      "v": 127
    },
    {
      "midi": 63,
      "hit": false,
      "t": 132480,
      "d": 237,
      "v": 127
    },
    {
      "midi": 82,
      "hit": false,
      "t": 132720,
      "d": 200,
      "v": 127
    },
    {
      "midi": 75,
      "hit": false,
      "t": 132720,
      "d": 205,
      "v": 127
    },
    {
      "midi": 79,
      "hit": false,
      "t": 132720,
      "d": 222,
      "v": 127
    },
    {
      "midi": 75,
      "hit": false,
      "t": 133200,
      "d": 205,
      "v": 127
    },
    {
      "midi": 82,
      "hit": false,
      "t": 133200,
      "d": 207,
      "v": 127
    },
    {
      "midi": 79,
      "hit": false,
      "t": 133200,
      "d": 212,
      "v": 127
    },
    {
      "midi": 68,
      "hit": false,
      "t": 135360,
      "d": 237,
      "v": 127
    },
    {
      "midi": 67,
      "hit": false,
      "t": 135600,
      "d": 227,
      "v": 127
    },
    {
      "midi": 72,
      "hit": false,
      "t": 135840,
      "d": 237,
      "v": 127
    },
    {
      "midi": 70,
      "hit": false,
      "t": 136080,
      "d": 227,
      "v": 127
    },
    {
      "midi": 63,
      "hit": false,
      "t": 136320,
      "d": 460,
      "v": 127
    },
    {
      "midi": 51,
      "hit": false,
      "t": 140160,
      "d": 268,
      "v": 127
    },
    {
      "midi": 58,
      "hit": false,
      "t": 140400,
      "d": 67,
      "v": 127
    },
    {
      "midi": 55,
      "hit": false,
      "t": 140400,
      "d": 70,
      "v": 127
    },
    {
      "midi": 63,
      "hit": false,
      "t": 140400,
      "d": 77,
      "v": 127
    },
    {
      "midi": 82,
      "hit": false,
      "t": 140400,
      "d": 237,
      "v": 127
    },
    {
      "midi": 75,
      "hit": false,
      "t": 140400,
      "d": 253,
      "v": 127
    },
    {
      "midi": 79,
      "hit": false,
      "t": 140400,
      "d": 253,
      "v": 127
    },
    {
      "midi": 51,
      "hit": false,
      "t": 140640,
      "d": 112,
      "v": 127
    },
    {
      "midi": 55,
      "hit": false,
      "t": 140760,
      "d": 82,
      "v": 127
    },
    {
      "midi": 58,
      "hit": false,
      "t": 140760,
      "d": 87,
      "v": 127
    },
    {
      "midi": 63,
      "hit": false,
      "t": 140760,
      "d": 90,
      "v": 127
    },
    {
      "midi": 75,
      "hit": false,
      "t": 140880,
      "d": 212,
      "v": 127
    },
    {
      "midi": 82,
      "hit": false,
      "t": 140880,
      "d": 217,
      "v": 127
    },
    {
      "midi": 79,
      "hit": false,
      "t": 140880,
      "d": 220,
      "v": 127
    },
    {
      "midi": 53,
      "hit": false,
      "t": 141120,
      "d": 72,
      "v": 127
    },
    {
      "midi": 62,
      "hit": false,
      "t": 141120,
      "d": 77,
      "v": 127
    },
    {
      "midi": 58,
      "hit": false,
      "t": 141120,
      "d": 80,
      "v": 127
    },
    {
      "midi": 46,
      "hit": false,
      "t": 141120,
      "d": 92,
      "v": 127
    },
    {
      "midi": 53,
      "hit": false,
      "t": 141480,
      "d": 77,
      "v": 127
    },
    {
      "midi": 58,
      "hit": false,
      "t": 141480,
      "d": 82,
      "v": 127
    },
    {
      "midi": 62,
      "hit": false,
      "t": 141480,
      "d": 95,
      "v": 127
    },
    {
      "midi": 46,
      "hit": false,
      "t": 141480,
      "d": 117,
      "v": 127
    },
    {
      "midi": 53,
      "hit": false,
      "t": 141840,
      "d": 843,
      "v": 127
    },
    {
      "midi": 44,
      "hit": false,
      "t": 141840,
      "d": 845,
      "v": 127
    },
    {
      "midi": 60,
      "hit": false,
      "t": 141840,
      "d": 848,
      "v": 127
    },
    {
      "midi": 56,
      "hit": false,
      "t": 141840,
      "d": 853,
      "v": 127
    },
    {
      "midi": 53,
      "hit": false,
      "t": 143040,
      "d": 268,
      "v": 127
    },
    {
      "midi": 56,
      "hit": false,
      "t": 143040,
      "d": 275,
      "v": 127
    },
    {
      "midi": 60,
      "hit": false,
      "t": 143040,
      "d": 275,
      "v": 127
    },
    {
      "midi": 44,
      "hit": false,
      "t": 143040,
      "d": 365,
      "v": 127
    },
    {
      "midi": 68,
      "hit": false,
      "t": 143040,
      "d": 237,
      "v": 127
    },
    {
      "midi": 67,
      "hit": false,
      "t": 143280,
      "d": 237,
      "v": 127
    },
    {
      "midi": 53,
      "hit": false,
      "t": 143520,
      "d": 330,
      "v": 127
    },
    {
      "midi": 62,
      "hit": false,
      "t": 143520,
      "d": 335,
      "v": 127
    },
    {
      "midi": 58,
      "hit": false,
      "t": 143520,
      "d": 337,
      "v": 127
    },
    {
      "midi": 46,
      "hit": false,
      "t": 143520,
      "d": 357,
      "v": 127
    },
    {
      "midi": 72,
      "hit": false,
      "t": 143520,
      "d": 237,
      "v": 127
    },
    {
      "midi": 70,
      "hit": false,
      "t": 143760,
      "d": 212,
      "v": 127
    },
    {
      "midi": 51,
      "hit": false,
      "t": 144000,
      "d": 253,
      "v": 127
    },
    {
      "midi": 63,
      "hit": false,
      "t": 144000,
      "d": 418,
      "v": 127
    },
    {
      "midi": 55,
      "hit": false,
      "t": 144240,
      "d": 67,
      "v": 127
    },
    {
      "midi": 58,
      "hit": false,
      "t": 144240,
      "d": 70,
      "v": 127
    },
    {
      "midi": 63,
      "hit": false,
      "t": 144240,
      "d": 75,
      "v": 127
    },
    {
      "midi": 51,
      "hit": false,
      "t": 144480,
      "d": 95,
      "v": 127
    },
    {
      "midi": 55,
      "hit": false,
      "t": 144600,
      "d": 80,
      "v": 127
    },
    {
      "midi": 58,
      "hit": false,
      "t": 144600,
      "d": 82,
      "v": 127
    },
    {
      "midi": 63,
      "hit": false,
      "t": 144600,
      "d": 95,
      "v": 127
    },
    {
      "midi": 51,
      "hit": false,
      "t": 144840,
      "d": 72,
      "v": 127
    },
    {
      "midi": 53,
      "hit": false,
      "t": 144960,
      "d": 77,
      "v": 127
    },
    {
      "midi": 58,
      "hit": false,
      "t": 144960,
      "d": 87,
      "v": 127
    },
    {
      "midi": 46,
      "hit": false,
      "t": 144960,
      "d": 97,
      "v": 127
    },
    {
      "midi": 62,
      "hit": false,
      "t": 144960,
      "d": 102,
      "v": 127
    },
    {
      "midi": 53,
      "hit": false,
      "t": 145320,
      "d": 80,
      "v": 127
    },
    {
      "midi": 46,
      "hit": false,
      "t": 145320,
      "d": 90,
      "v": 127
    },
    {
      "midi": 58,
      "hit": false,
      "t": 145320,
      "d": 90,
      "v": 127
    },
    {
      "midi": 62,
      "hit": false,
      "t": 145320,
      "d": 92,
      "v": 127
    },
    {
      "midi": 53,
      "hit": false,
      "t": 145680,
      "d": 965,
      "v": 127
    },
    {
      "midi": 56,
      "hit": false,
      "t": 145680,
      "d": 965,
      "v": 127
    },
    {
      "midi": 60,
      "hit": false,
      "t": 145680,
      "d": 968,
      "v": 127
    },
    {
      "midi": 44,
      "hit": false,
      "t": 145680,
      "d": 983,
      "v": 127
    },
    {
      "midi": 53,
      "hit": false,
      "t": 146880,
      "d": 335,
      "v": 127
    },
    {
      "midi": 56,
      "hit": false,
      "t": 146880,
      "d": 373,
      "v": 127
    },
    {
      "midi": 60,
      "hit": false,
      "t": 146880,
      "d": 385,
      "v": 127
    },
    {
      "midi": 44,
      "hit": false,
      "t": 146880,
      "d": 413,
      "v": 127
    },
    {
      "midi": 68,
      "hit": false,
      "t": 146880,
      "d": 237,
      "v": 127
    },
    {
      "midi": 67,
      "hit": false,
      "t": 147120,
      "d": 237,
      "v": 127
    },
    {
      "midi": 62,
      "hit": false,
      "t": 147360,
      "d": 352,
      "v": 127
    },
    {
      "midi": 53,
      "hit": false,
      "t": 147360,
      "d": 357,
      "v": 127
    },
    {
      "midi": 58,
      "hit": false,
      "t": 147360,
      "d": 357,
      "v": 127
    },
    {
      "midi": 46,
      "hit": false,
      "t": 147360,
      "d": 378,
      "v": 127
    },
    {
      "midi": 72,
      "hit": false,
      "t": 147360,
      "d": 237,
      "v": 127
    },
    {
      "midi": 70,
      "hit": false,
      "t": 147600,
      "d": 235,
      "v": 127
    },
    {
      "midi": 51,
      "hit": false,
      "t": 147840,
      "d": 268,
      "v": 127
    },
    {
      "midi": 63,
      "hit": false,
      "t": 147840,
      "d": 237,
      "v": 127
    },
    {
      "midi": 58,
      "hit": false,
      "t": 148080,
      "d": 67,
      "v": 127
    },
    {
      "midi": 55,
      "hit": false,
      "t": 148080,
      "d": 70,
      "v": 127
    },
    {
      "midi": 63,
      "hit": false,
      "t": 148080,
      "d": 77,
      "v": 127
    },
    {
      "midi": 82,
      "hit": false,
      "t": 148080,
      "d": 200,
      "v": 127
    },
    {
      "midi": 75,
      "hit": false,
      "t": 148080,
      "d": 205,
      "v": 127
    },
    {
      "midi": 79,
      "hit": false,
      "t": 148080,
      "d": 222,
      "v": 127
    },
    {
      "midi": 51,
      "hit": false,
      "t": 148320,
      "d": 112,
      "v": 127
    },
    {
      "midi": 55,
      "hit": false,
      "t": 148440,
      "d": 82,
      "v": 127
    },
    {
      "midi": 58,
      "hit": false,
      "t": 148440,
      "d": 87,
      "v": 127
    },
    {
      "midi": 63,
      "hit": false,
      "t": 148440,
      "d": 90,
      "v": 127
    },
    {
      "midi": 75,
      "hit": false,
      "t": 148560,
      "d": 205,
      "v": 127
    },
    {
      "midi": 82,
      "hit": false,
      "t": 148560,
      "d": 207,
      "v": 127
    },
    {
      "midi": 79,
      "hit": false,
      "t": 148560,
      "d": 212,
      "v": 127
    },
    {
      "midi": 53,
      "hit": false,
      "t": 148800,
      "d": 72,
      "v": 127
    },
    {
      "midi": 62,
      "hit": false,
      "t": 148800,
      "d": 77,
      "v": 127
    },
    {
      "midi": 58,
      "hit": false,
      "t": 148800,
      "d": 80,
      "v": 127
    },
    {
      "midi": 46,
      "hit": false,
      "t": 148800,
      "d": 92,
      "v": 127
    },
    {
      "midi": 53,
      "hit": false,
      "t": 149160,
      "d": 77,
      "v": 127
    },
    {
      "midi": 58,
      "hit": false,
      "t": 149160,
      "d": 82,
      "v": 127
    },
    {
      "midi": 62,
      "hit": false,
      "t": 149160,
      "d": 95,
      "v": 127
    },
    {
      "midi": 46,
      "hit": false,
      "t": 149160,
      "d": 117,
      "v": 127
    },
    {
      "midi": 53,
      "hit": false,
      "t": 149520,
      "d": 843,
      "v": 127
    },
    {
      "midi": 44,
      "hit": false,
      "t": 149520,
      "d": 845,
      "v": 127
    },
    {
      "midi": 60,
      "hit": false,
      "t": 149520,
      "d": 848,
      "v": 127
    },
    {
      "midi": 56,
      "hit": false,
      "t": 149520,
      "d": 853,
      "v": 127
    },
    {
      "midi": 53,
      "hit": false,
      "t": 150720,
      "d": 268,
      "v": 127
    },
    {
      "midi": 56,
      "hit": false,
      "t": 150720,
      "d": 275,
      "v": 127
    },
    {
      "midi": 60,
      "hit": false,
      "t": 150720,
      "d": 275,
      "v": 127
    },
    {
      "midi": 44,
      "hit": false,
      "t": 150720,
      "d": 365,
      "v": 127
    },
    {
      "midi": 68,
      "hit": false,
      "t": 150720,
      "d": 237,
      "v": 127
    },
    {
      "midi": 67,
      "hit": false,
      "t": 150960,
      "d": 227,
      "v": 127
    },
    {
      "midi": 53,
      "hit": false,
      "t": 151200,
      "d": 330,
      "v": 127
    },
    {
      "midi": 62,
      "hit": false,
      "t": 151200,
      "d": 335,
      "v": 127
    },
    {
      "midi": 58,
      "hit": false,
      "t": 151200,
      "d": 337,
      "v": 127
    },
    {
      "midi": 46,
      "hit": false,
      "t": 151200,
      "d": 357,
      "v": 127
    },
    {
      "midi": 72,
      "hit": false,
      "t": 151200,
      "d": 237,
      "v": 127
    },
    {
      "midi": 70,
      "hit": false,
      "t": 151440,
      "d": 227,
      "v": 127
    },
    {
      "midi": 51,
      "hit": false,
      "t": 151680,
      "d": 253,
      "v": 127
    },
    {
      "midi": 63,
      "hit": false,
      "t": 151680,
      "d": 460,
      "v": 127
    },
    {
      "midi": 55,
      "hit": false,
      "t": 151920,
      "d": 67,
      "v": 127
    },
    {
      "midi": 58,
      "hit": false,
      "t": 151920,
      "d": 70,
      "v": 127
    },
    {
      "midi": 63,
      "hit": false,
      "t": 151920,
      "d": 75,
      "v": 127
    },
    {
      "midi": 51,
      "hit": false,
      "t": 152160,
      "d": 95,
      "v": 127
    },
    {
      "midi": 55,
      "hit": false,
      "t": 152280,
      "d": 80,
      "v": 127
    },
    {
      "midi": 58,
      "hit": false,
      "t": 152280,
      "d": 82,
      "v": 127
    },
    {
      "midi": 63,
      "hit": false,
      "t": 152280,
      "d": 95,
      "v": 127
    },
    {
      "midi": 51,
      "hit": false,
      "t": 152520,
      "d": 72,
      "v": 127
    },
    {
      "midi": 53,
      "hit": false,
      "t": 152640,
      "d": 77,
      "v": 127
    },
    {
      "midi": 58,
      "hit": false,
      "t": 152640,
      "d": 87,
      "v": 127
    },
    {
      "midi": 46,
      "hit": false,
      "t": 152640,
      "d": 97,
      "v": 127
    },
    {
      "midi": 62,
      "hit": false,
      "t": 152640,
      "d": 102,
      "v": 127
    },
    {
      "midi": 53,
      "hit": false,
      "t": 153000,
      "d": 80,
      "v": 127
    },
    {
      "midi": 46,
      "hit": false,
      "t": 153000,
      "d": 90,
      "v": 127
    },
    {
      "midi": 58,
      "hit": false,
      "t": 153000,
      "d": 90,
      "v": 127
    },
    {
      "midi": 62,
      "hit": false,
      "t": 153000,
      "d": 92,
      "v": 127
    },
    {
      "midi": 53,
      "hit": false,
      "t": 153360,
      "d": 965,
      "v": 127
    },
    {
      "midi": 56,
      "hit": false,
      "t": 153360,
      "d": 965,
      "v": 127
    },
    {
      "midi": 60,
      "hit": false,
      "t": 153360,
      "d": 968,
      "v": 127
    },
    {
      "midi": 44,
      "hit": false,
      "t": 153360,
      "d": 983,
      "v": 127
    },
    {
      "midi": 51,
      "hit": false,
      "t": 154560,
      "d": 378,
      "v": 127
    },
    {
      "midi": 56,
      "hit": false,
      "t": 154560,
      "d": 405,
      "v": 127
    },
    {
      "midi": 60,
      "hit": false,
      "t": 154560,
      "d": 405,
      "v": 127
    },
    {
      "midi": 44,
      "hit": false,
      "t": 154560,
      "d": 435,
      "v": 127
    },
    {
      "midi": 53,
      "hit": false,
      "t": 155040,
      "d": 375,
      "v": 127
    },
    {
      "midi": 62,
      "hit": false,
      "t": 155040,
      "d": 378,
      "v": 127
    },
    {
      "midi": 58,
      "hit": false,
      "t": 155040,
      "d": 385,
      "v": 127
    },
    {
      "midi": 46,
      "hit": false,
      "t": 155040,
      "d": 403,
      "v": 127
    },
    {
      "midi": 51,
      "hit": false,
      "t": 155520,
      "d": 268,
      "v": 127
    },
    {
      "midi": 58,
      "hit": false,
      "t": 155760,
      "d": 67,
      "v": 127
    },
    {
      "midi": 55,
      "hit": false,
      "t": 155760,
      "d": 70,
      "v": 127
    },
    {
      "midi": 63,
      "hit": false,
      "t": 155760,
      "d": 77,
      "v": 127
    },
    {
      "midi": 82,
      "hit": false,
      "t": 155760,
      "d": 237,
      "v": 127
    },
    {
      "midi": 75,
      "hit": false,
      "t": 155760,
      "d": 253,
      "v": 127
    },
    {
      "midi": 79,
      "hit": false,
      "t": 155760,
      "d": 253,
      "v": 127
    },
    {
      "midi": 51,
      "hit": false,
      "t": 156000,
      "d": 112,
      "v": 127
    },
    {
      "midi": 55,
      "hit": false,
      "t": 156120,
      "d": 82,
      "v": 127
    },
    {
      "midi": 58,
      "hit": false,
      "t": 156120,
      "d": 87,
      "v": 127
    },
    {
      "midi": 63,
      "hit": false,
      "t": 156120,
      "d": 90,
      "v": 127
    },
    {
      "midi": 75,
      "hit": false,
      "t": 156240,
      "d": 212,
      "v": 127
    },
    {
      "midi": 82,
      "hit": false,
      "t": 156240,
      "d": 217,
      "v": 127
    },
    {
      "midi": 79,
      "hit": false,
      "t": 156240,
      "d": 220,
      "v": 127
    },
    {
      "midi": 53,
      "hit": false,
      "t": 156480,
      "d": 72,
      "v": 127
    },
    {
      "midi": 62,
      "hit": false,
      "t": 156480,
      "d": 77,
      "v": 127
    },
    {
      "midi": 58,
      "hit": false,
      "t": 156480,
      "d": 80,
      "v": 127
    },
    {
      "midi": 46,
      "hit": false,
      "t": 156480,
      "d": 92,
      "v": 127
    },
    {
      "midi": 53,
      "hit": false,
      "t": 156840,
      "d": 77,
      "v": 127
    },
    {
      "midi": 58,
      "hit": false,
      "t": 156840,
      "d": 82,
      "v": 127
    },
    {
      "midi": 62,
      "hit": false,
      "t": 156840,
      "d": 95,
      "v": 127
    },
    {
      "midi": 46,
      "hit": false,
      "t": 156840,
      "d": 117,
      "v": 127
    },
    {
      "midi": 53,
      "hit": false,
      "t": 157200,
      "d": 843,
      "v": 127
    },
    {
      "midi": 44,
      "hit": false,
      "t": 157200,
      "d": 845,
      "v": 127
    },
    {
      "midi": 60,
      "hit": false,
      "t": 157200,
      "d": 848,
      "v": 127
    },
    {
      "midi": 56,
      "hit": false,
      "t": 157200,
      "d": 853,
      "v": 127
    },
    {
      "midi": 53,
      "hit": false,
      "t": 158400,
      "d": 268,
      "v": 127
    },
    {
      "midi": 56,
      "hit": false,
      "t": 158400,
      "d": 275,
      "v": 127
    },
    {
      "midi": 60,
      "hit": false,
      "t": 158400,
      "d": 275,
      "v": 127
    },
    {
      "midi": 44,
      "hit": false,
      "t": 158400,
      "d": 365,
      "v": 127
    },
    {
      "midi": 68,
      "hit": false,
      "t": 158400,
      "d": 237,
      "v": 127
    },
    {
      "midi": 67,
      "hit": false,
      "t": 158640,
      "d": 237,
      "v": 127
    },
    {
      "midi": 53,
      "hit": false,
      "t": 158880,
      "d": 330,
      "v": 127
    },
    {
      "midi": 62,
      "hit": false,
      "t": 158880,
      "d": 335,
      "v": 127
    },
    {
      "midi": 58,
      "hit": false,
      "t": 158880,
      "d": 337,
      "v": 127
    },
    {
      "midi": 46,
      "hit": false,
      "t": 158880,
      "d": 357,
      "v": 127
    },
    {
      "midi": 72,
      "hit": false,
      "t": 158880,
      "d": 237,
      "v": 127
    },
    {
      "midi": 70,
      "hit": false,
      "t": 159120,
      "d": 212,
      "v": 127
    },
    {
      "midi": 51,
      "hit": false,
      "t": 159360,
      "d": 253,
      "v": 127
    },
    {
      "midi": 63,
      "hit": false,
      "t": 159360,
      "d": 418,
      "v": 127
    },
    {
      "midi": 55,
      "hit": false,
      "t": 159600,
      "d": 67,
      "v": 127
    },
    {
      "midi": 58,
      "hit": false,
      "t": 159600,
      "d": 70,
      "v": 127
    },
    {
      "midi": 63,
      "hit": false,
      "t": 159600,
      "d": 75,
      "v": 127
    },
    {
      "midi": 51,
      "hit": false,
      "t": 159840,
      "d": 95,
      "v": 127
    },
    {
      "midi": 55,
      "hit": false,
      "t": 159960,
      "d": 80,
      "v": 127
    },
    {
      "midi": 58,
      "hit": false,
      "t": 159960,
      "d": 82,
      "v": 127
    },
    {
      "midi": 63,
      "hit": false,
      "t": 159960,
      "d": 95,
      "v": 127
    },
    {
      "midi": 51,
      "hit": false,
      "t": 160200,
      "d": 72,
      "v": 127
    },
    {
      "midi": 53,
      "hit": false,
      "t": 160320,
      "d": 77,
      "v": 127
    },
    {
      "midi": 58,
      "hit": false,
      "t": 160320,
      "d": 87,
      "v": 127
    },
    {
      "midi": 46,
      "hit": false,
      "t": 160320,
      "d": 97,
      "v": 127
    },
    {
      "midi": 62,
      "hit": false,
      "t": 160320,
      "d": 102,
      "v": 127
    },
    {
      "midi": 53,
      "hit": false,
      "t": 160680,
      "d": 80,
      "v": 127
    },
    {
      "midi": 46,
      "hit": false,
      "t": 160680,
      "d": 90,
      "v": 127
    },
    {
      "midi": 58,
      "hit": false,
      "t": 160680,
      "d": 90,
      "v": 127
    },
    {
      "midi": 62,
      "hit": false,
      "t": 160680,
      "d": 92,
      "v": 127
    },
    {
      "midi": 53,
      "hit": false,
      "t": 161040,
      "d": 965,
      "v": 127
    },
    {
      "midi": 56,
      "hit": false,
      "t": 161040,
      "d": 965,
      "v": 127
    },
    {
      "midi": 60,
      "hit": false,
      "t": 161040,
      "d": 968,
      "v": 127
    },
    {
      "midi": 44,
      "hit": false,
      "t": 161040,
      "d": 983,
      "v": 127
    },
    {
      "midi": 53,
      "hit": false,
      "t": 162240,
      "d": 335,
      "v": 127
    },
    {
      "midi": 56,
      "hit": false,
      "t": 162240,
      "d": 373,
      "v": 127
    },
    {
      "midi": 60,
      "hit": false,
      "t": 162240,
      "d": 385,
      "v": 127
    },
    {
      "midi": 44,
      "hit": false,
      "t": 162240,
      "d": 413,
      "v": 127
    },
    {
      "midi": 68,
      "hit": false,
      "t": 162240,
      "d": 237,
      "v": 127
    },
    {
      "midi": 67,
      "hit": false,
      "t": 162480,
      "d": 237,
      "v": 127
    },
    {
      "midi": 62,
      "hit": false,
      "t": 162720,
      "d": 352,
      "v": 127
    },
    {
      "midi": 53,
      "hit": false,
      "t": 162720,
      "d": 357,
      "v": 127
    },
    {
      "midi": 58,
      "hit": false,
      "t": 162720,
      "d": 357,
      "v": 127
    },
    {
      "midi": 46,
      "hit": false,
      "t": 162720,
      "d": 378,
      "v": 127
    },
    {
      "midi": 72,
      "hit": false,
      "t": 162720,
      "d": 237,
      "v": 127
    },
    {
      "midi": 70,
      "hit": false,
      "t": 162960,
      "d": 235,
      "v": 127
    },
    {
      "midi": 51,
      "hit": false,
      "t": 163200,
      "d": 268,
      "v": 127
    },
    {
      "midi": 63,
      "hit": false,
      "t": 163200,
      "d": 237,
      "v": 127
    },
    {
      "midi": 58,
      "hit": false,
      "t": 163440,
      "d": 67,
      "v": 127
    },
    {
      "midi": 55,
      "hit": false,
      "t": 163440,
      "d": 70,
      "v": 127
    },
    {
      "midi": 63,
      "hit": false,
      "t": 163440,
      "d": 77,
      "v": 127
    },
    {
      "midi": 82,
      "hit": false,
      "t": 163440,
      "d": 200,
      "v": 127
    },
    {
      "midi": 75,
      "hit": false,
      "t": 163440,
      "d": 205,
      "v": 127
    },
    {
      "midi": 79,
      "hit": false,
      "t": 163440,
      "d": 222,
      "v": 127
    },
    {
      "midi": 51,
      "hit": false,
      "t": 163680,
      "d": 112,
      "v": 127
    },
    {
      "midi": 55,
      "hit": false,
      "t": 163800,
      "d": 82,
      "v": 127
    },
    {
      "midi": 58,
      "hit": false,
      "t": 163800,
      "d": 87,
      "v": 127
    },
    {
      "midi": 63,
      "hit": false,
      "t": 163800,
      "d": 90,
      "v": 127
    },
    {
      "midi": 75,
      "hit": false,
      "t": 163920,
      "d": 205,
      "v": 127
    },
    {
      "midi": 82,
      "hit": false,
      "t": 163920,
      "d": 207,
      "v": 127
    },
    {
      "midi": 79,
      "hit": false,
      "t": 163920,
      "d": 212,
      "v": 127
    },
    {
      "midi": 53,
      "hit": false,
      "t": 164160,
      "d": 72,
      "v": 127
    },
    {
      "midi": 62,
      "hit": false,
      "t": 164160,
      "d": 77,
      "v": 127
    },
    {
      "midi": 58,
      "hit": false,
      "t": 164160,
      "d": 80,
      "v": 127
    },
    {
      "midi": 46,
      "hit": false,
      "t": 164160,
      "d": 92,
      "v": 127
    },
    {
      "midi": 53,
      "hit": false,
      "t": 164520,
      "d": 77,
      "v": 127
    },
    {
      "midi": 58,
      "hit": false,
      "t": 164520,
      "d": 82,
      "v": 127
    },
    {
      "midi": 62,
      "hit": false,
      "t": 164520,
      "d": 95,
      "v": 127
    },
    {
      "midi": 46,
      "hit": false,
      "t": 164520,
      "d": 117,
      "v": 127
    },
    {
      "midi": 53,
      "hit": false,
      "t": 164880,
      "d": 843,
      "v": 127
    },
    {
      "midi": 44,
      "hit": false,
      "t": 164880,
      "d": 845,
      "v": 127
    },
    {
      "midi": 60,
      "hit": false,
      "t": 164880,
      "d": 848,
      "v": 127
    },
    {
      "midi": 56,
      "hit": false,
      "t": 164880,
      "d": 853,
      "v": 127
    },
    {
      "midi": 53,
      "hit": false,
      "t": 166080,
      "d": 268,
      "v": 127
    },
    {
      "midi": 56,
      "hit": false,
      "t": 166080,
      "d": 275,
      "v": 127
    },
    {
      "midi": 60,
      "hit": false,
      "t": 166080,
      "d": 275,
      "v": 127
    },
    {
      "midi": 44,
      "hit": false,
      "t": 166080,
      "d": 365,
      "v": 127
    },
    {
      "midi": 68,
      "hit": false,
      "t": 166080,
      "d": 237,
      "v": 127
    },
    {
      "midi": 67,
      "hit": false,
      "t": 166320,
      "d": 227,
      "v": 127
    },
    {
      "midi": 53,
      "hit": false,
      "t": 166560,
      "d": 330,
      "v": 127
    },
    {
      "midi": 62,
      "hit": false,
      "t": 166560,
      "d": 335,
      "v": 127
    },
    {
      "midi": 58,
      "hit": false,
      "t": 166560,
      "d": 337,
      "v": 127
    },
    {
      "midi": 46,
      "hit": false,
      "t": 166560,
      "d": 357,
      "v": 127
    },
    {
      "midi": 72,
      "hit": false,
      "t": 166560,
      "d": 237,
      "v": 127
    },
    {
      "midi": 70,
      "hit": false,
      "t": 166800,
      "d": 227,
      "v": 127
    },
    {
      "midi": 51,
      "hit": false,
      "t": 167040,
      "d": 253,
      "v": 127
    },
    {
      "midi": 63,
      "hit": false,
      "t": 167040,
      "d": 460,
      "v": 127
    },
    {
      "midi": 55,
      "hit": false,
      "t": 167280,
      "d": 67,
      "v": 127
    },
    {
      "midi": 58,
      "hit": false,
      "t": 167280,
      "d": 70,
      "v": 127
    },
    {
      "midi": 63,
      "hit": false,
      "t": 167280,
      "d": 75,
      "v": 127
    },
    {
      "midi": 51,
      "hit": false,
      "t": 167520,
      "d": 95,
      "v": 127
    },
    {
      "midi": 55,
      "hit": false,
      "t": 167640,
      "d": 80,
      "v": 127
    },
    {
      "midi": 58,
      "hit": false,
      "t": 167640,
      "d": 82,
      "v": 127
    },
    {
      "midi": 63,
      "hit": false,
      "t": 167640,
      "d": 95,
      "v": 127
    },
    {
      "midi": 51,
      "hit": false,
      "t": 167880,
      "d": 72,
      "v": 127
    },
    {
      "midi": 53,
      "hit": false,
      "t": 168000,
      "d": 77,
      "v": 127
    },
    {
      "midi": 58,
      "hit": false,
      "t": 168000,
      "d": 87,
      "v": 127
    },
    {
      "midi": 46,
      "hit": false,
      "t": 168000,
      "d": 97,
      "v": 127
    },
    {
      "midi": 62,
      "hit": false,
      "t": 168000,
      "d": 102,
      "v": 127
    },
    {
      "midi": 53,
      "hit": false,
      "t": 168360,
      "d": 80,
      "v": 127
    },
    {
      "midi": 46,
      "hit": false,
      "t": 168360,
      "d": 90,
      "v": 127
    },
    {
      "midi": 58,
      "hit": false,
      "t": 168360,
      "d": 90,
      "v": 127
    },
    {
      "midi": 62,
      "hit": false,
      "t": 168360,
      "d": 92,
      "v": 127
    },
    {
      "midi": 53,
      "hit": false,
      "t": 168720,
      "d": 965,
      "v": 127
    },
    {
      "midi": 56,
      "hit": false,
      "t": 168720,
      "d": 965,
      "v": 127
    },
    {
      "midi": 60,
      "hit": false,
      "t": 168720,
      "d": 968,
      "v": 127
    },
    {
      "midi": 44,
      "hit": false,
      "t": 168720,
      "d": 983,
      "v": 127
    },
    {
      "midi": 51,
      "hit": false,
      "t": 169920,
      "d": 378,
      "v": 127
    },
    {
      "midi": 56,
      "hit": false,
      "t": 169920,
      "d": 405,
      "v": 127
    },
    {
      "midi": 60,
      "hit": false,
      "t": 169920,
      "d": 405,
      "v": 127
    },
    {
      "midi": 44,
      "hit": false,
      "t": 169920,
      "d": 435,
      "v": 127
    },
    {
      "midi": 53,
      "hit": false,
      "t": 170400,
      "d": 375,
      "v": 127
    },
    {
      "midi": 62,
      "hit": false,
      "t": 170400,
      "d": 378,
      "v": 127
    },
    {
      "midi": 58,
      "hit": false,
      "t": 170400,
      "d": 385,
      "v": 127
    },
    {
      "midi": 46,
      "hit": false,
      "t": 170400,
      "d": 403,
      "v": 127
    },
    {
      "midi": 51,
      "hit": false,
      "t": 170880,
      "d": 268,
      "v": 127
    },
    {
      "midi": 58,
      "hit": false,
      "t": 171120,
      "d": 67,
      "v": 127
    },
    {
      "midi": 55,
      "hit": false,
      "t": 171120,
      "d": 70,
      "v": 127
    },
    {
      "midi": 63,
      "hit": false,
      "t": 171120,
      "d": 77,
      "v": 127
    },
    {
      "midi": 82,
      "hit": false,
      "t": 171120,
      "d": 237,
      "v": 127
    },
    {
      "midi": 75,
      "hit": false,
      "t": 171120,
      "d": 253,
      "v": 127
    },
    {
      "midi": 79,
      "hit": false,
      "t": 171120,
      "d": 253,
      "v": 127
    },
    {
      "midi": 51,
      "hit": false,
      "t": 171360,
      "d": 112,
      "v": 127
    },
    {
      "midi": 55,
      "hit": false,
      "t": 171480,
      "d": 82,
      "v": 127
    },
    {
      "midi": 58,
      "hit": false,
      "t": 171480,
      "d": 87,
      "v": 127
    },
    {
      "midi": 63,
      "hit": false,
      "t": 171480,
      "d": 90,
      "v": 127
    },
    {
      "midi": 75,
      "hit": false,
      "t": 171600,
      "d": 212,
      "v": 127
    },
    {
      "midi": 82,
      "hit": false,
      "t": 171600,
      "d": 217,
      "v": 127
    },
    {
      "midi": 79,
      "hit": false,
      "t": 171600,
      "d": 220,
      "v": 127
    },
    {
      "midi": 53,
      "hit": false,
      "t": 171840,
      "d": 72,
      "v": 127
    },
    {
      "midi": 62,
      "hit": false,
      "t": 171840,
      "d": 77,
      "v": 127
    },
    {
      "midi": 58,
      "hit": false,
      "t": 171840,
      "d": 80,
      "v": 127
    },
    {
      "midi": 46,
      "hit": false,
      "t": 171840,
      "d": 92,
      "v": 127
    },
    {
      "midi": 53,
      "hit": false,
      "t": 172200,
      "d": 77,
      "v": 127
    },
    {
      "midi": 58,
      "hit": false,
      "t": 172200,
      "d": 82,
      "v": 127
    },
    {
      "midi": 62,
      "hit": false,
      "t": 172200,
      "d": 95,
      "v": 127
    },
    {
      "midi": 46,
      "hit": false,
      "t": 172200,
      "d": 117,
      "v": 127
    },
    {
      "midi": 53,
      "hit": false,
      "t": 172560,
      "d": 843,
      "v": 127
    },
    {
      "midi": 44,
      "hit": false,
      "t": 172560,
      "d": 845,
      "v": 127
    },
    {
      "midi": 60,
      "hit": false,
      "t": 172560,
      "d": 848,
      "v": 127
    },
    {
      "midi": 56,
      "hit": false,
      "t": 172560,
      "d": 853,
      "v": 127
    },
    {
      "midi": 53,
      "hit": false,
      "t": 173760,
      "d": 268,
      "v": 127
    },
    {
      "midi": 56,
      "hit": false,
      "t": 173760,
      "d": 275,
      "v": 127
    },
    {
      "midi": 60,
      "hit": false,
      "t": 173760,
      "d": 275,
      "v": 127
    },
    {
      "midi": 44,
      "hit": false,
      "t": 173760,
      "d": 365,
      "v": 127
    },
    {
      "midi": 68,
      "hit": false,
      "t": 173760,
      "d": 237,
      "v": 127
    },
    {
      "midi": 67,
      "hit": false,
      "t": 174000,
      "d": 237,
      "v": 127
    },
    {
      "midi": 53,
      "hit": false,
      "t": 174240,
      "d": 330,
      "v": 127
    },
    {
      "midi": 62,
      "hit": false,
      "t": 174240,
      "d": 335,
      "v": 127
    },
    {
      "midi": 58,
      "hit": false,
      "t": 174240,
      "d": 337,
      "v": 127
    },
    {
      "midi": 46,
      "hit": false,
      "t": 174240,
      "d": 357,
      "v": 127
    },
    {
      "midi": 72,
      "hit": false,
      "t": 174240,
      "d": 237,
      "v": 127
    },
    {
      "midi": 70,
      "hit": false,
      "t": 174480,
      "d": 212,
      "v": 127
    },
    {
      "midi": 51,
      "hit": false,
      "t": 174720,
      "d": 253,
      "v": 127
    },
    {
      "midi": 63,
      "hit": false,
      "t": 174720,
      "d": 418,
      "v": 127
    },
    {
      "midi": 55,
      "hit": false,
      "t": 174960,
      "d": 67,
      "v": 127
    },
    {
      "midi": 58,
      "hit": false,
      "t": 174960,
      "d": 70,
      "v": 127
    },
    {
      "midi": 63,
      "hit": false,
      "t": 174960,
      "d": 75,
      "v": 127
    },
    {
      "midi": 51,
      "hit": false,
      "t": 175200,
      "d": 95,
      "v": 127
    },
    {
      "midi": 55,
      "hit": false,
      "t": 175320,
      "d": 80,
      "v": 127
    },
    {
      "midi": 58,
      "hit": false,
      "t": 175320,
      "d": 82,
      "v": 127
    },
    {
      "midi": 63,
      "hit": false,
      "t": 175320,
      "d": 95,
      "v": 127
    },
    {
      "midi": 51,
      "hit": false,
      "t": 175560,
      "d": 72,
      "v": 127
    },
    {
      "midi": 53,
      "hit": false,
      "t": 175680,
      "d": 77,
      "v": 127
    },
    {
      "midi": 58,
      "hit": false,
      "t": 175680,
      "d": 87,
      "v": 127
    },
    {
      "midi": 46,
      "hit": false,
      "t": 175680,
      "d": 97,
      "v": 127
    },
    {
      "midi": 62,
      "hit": false,
      "t": 175680,
      "d": 102,
      "v": 127
    },
    {
      "midi": 53,
      "hit": false,
      "t": 176040,
      "d": 80,
      "v": 127
    },
    {
      "midi": 46,
      "hit": false,
      "t": 176040,
      "d": 90,
      "v": 127
    },
    {
      "midi": 58,
      "hit": false,
      "t": 176040,
      "d": 90,
      "v": 127
    },
    {
      "midi": 62,
      "hit": false,
      "t": 176040,
      "d": 92,
      "v": 127
    },
    {
      "midi": 53,
      "hit": false,
      "t": 176400,
      "d": 965,
      "v": 127
    },
    {
      "midi": 56,
      "hit": false,
      "t": 176400,
      "d": 965,
      "v": 127
    },
    {
      "midi": 60,
      "hit": false,
      "t": 176400,
      "d": 968,
      "v": 127
    },
    {
      "midi": 44,
      "hit": false,
      "t": 176400,
      "d": 983,
      "v": 127
    },
    {
      "midi": 53,
      "hit": false,
      "t": 177600,
      "d": 335,
      "v": 127
    },
    {
      "midi": 56,
      "hit": false,
      "t": 177600,
      "d": 373,
      "v": 127
    },
    {
      "midi": 60,
      "hit": false,
      "t": 177600,
      "d": 385,
      "v": 127
    },
    {
      "midi": 44,
      "hit": false,
      "t": 177600,
      "d": 413,
      "v": 127
    },
    {
      "midi": 68,
      "hit": false,
      "t": 177600,
      "d": 237,
      "v": 127
    },
    {
      "midi": 67,
      "hit": false,
      "t": 177840,
      "d": 237,
      "v": 127
    },
    {
      "midi": 62,
      "hit": false,
      "t": 178080,
      "d": 352,
      "v": 127
    },
    {
      "midi": 53,
      "hit": false,
      "t": 178080,
      "d": 357,
      "v": 127
    },
    {
      "midi": 58,
      "hit": false,
      "t": 178080,
      "d": 357,
      "v": 127
    },
    {
      "midi": 46,
      "hit": false,
      "t": 178080,
      "d": 378,
      "v": 127
    },
    {
      "midi": 72,
      "hit": false,
      "t": 178080,
      "d": 237,
      "v": 127
    },
    {
      "midi": 70,
      "hit": false,
      "t": 178320,
      "d": 235,
      "v": 127
    },
    {
      "midi": 51,
      "hit": false,
      "t": 178560,
      "d": 268,
      "v": 127
    },
    {
      "midi": 63,
      "hit": false,
      "t": 178560,
      "d": 237,
      "v": 127
    },
    {
      "midi": 58,
      "hit": false,
      "t": 178800,
      "d": 67,
      "v": 127
    },
    {
      "midi": 55,
      "hit": false,
      "t": 178800,
      "d": 70,
      "v": 127
    },
    {
      "midi": 63,
      "hit": false,
      "t": 178800,
      "d": 77,
      "v": 127
    },
    {
      "midi": 82,
      "hit": false,
      "t": 178800,
      "d": 200,
      "v": 127
    },
    {
      "midi": 75,
      "hit": false,
      "t": 178800,
      "d": 205,
      "v": 127
    },
    {
      "midi": 79,
      "hit": false,
      "t": 178800,
      "d": 222,
      "v": 127
    },
    {
      "midi": 51,
      "hit": false,
      "t": 179040,
      "d": 112,
      "v": 127
    },
    {
      "midi": 55,
      "hit": false,
      "t": 179160,
      "d": 82,
      "v": 127
    },
    {
      "midi": 58,
      "hit": false,
      "t": 179160,
      "d": 87,
      "v": 127
    },
    {
      "midi": 63,
      "hit": false,
      "t": 179160,
      "d": 90,
      "v": 127
    },
    {
      "midi": 75,
      "hit": false,
      "t": 179280,
      "d": 205,
      "v": 127
    },
    {
      "midi": 82,
      "hit": false,
      "t": 179280,
      "d": 207,
      "v": 127
    },
    {
      "midi": 79,
      "hit": false,
      "t": 179280,
      "d": 212,
      "v": 127
    },
    {
      "midi": 53,
      "hit": false,
      "t": 179520,
      "d": 72,
      "v": 127
    },
    {
      "midi": 62,
      "hit": false,
      "t": 179520,
      "d": 77,
      "v": 127
    },
    {
      "midi": 58,
      "hit": false,
      "t": 179520,
      "d": 80,
      "v": 127
    },
    {
      "midi": 46,
      "hit": false,
      "t": 179520,
      "d": 92,
      "v": 127
    },
    {
      "midi": 53,
      "hit": false,
      "t": 179880,
      "d": 77,
      "v": 127
    },
    {
      "midi": 58,
      "hit": false,
      "t": 179880,
      "d": 82,
      "v": 127
    },
    {
      "midi": 62,
      "hit": false,
      "t": 179880,
      "d": 95,
      "v": 127
    },
    {
      "midi": 46,
      "hit": false,
      "t": 179880,
      "d": 117,
      "v": 127
    },
    {
      "midi": 53,
      "hit": false,
      "t": 180240,
      "d": 843,
      "v": 127
    },
    {
      "midi": 44,
      "hit": false,
      "t": 180240,
      "d": 845,
      "v": 127
    },
    {
      "midi": 60,
      "hit": false,
      "t": 180240,
      "d": 848,
      "v": 127
    },
    {
      "midi": 56,
      "hit": false,
      "t": 180240,
      "d": 853,
      "v": 127
    },
    {
      "midi": 53,
      "hit": false,
      "t": 181440,
      "d": 268,
      "v": 127
    },
    {
      "midi": 56,
      "hit": false,
      "t": 181440,
      "d": 275,
      "v": 127
    },
    {
      "midi": 60,
      "hit": false,
      "t": 181440,
      "d": 275,
      "v": 127
    },
    {
      "midi": 44,
      "hit": false,
      "t": 181440,
      "d": 365,
      "v": 127
    },
    {
      "midi": 68,
      "hit": false,
      "t": 181440,
      "d": 237,
      "v": 127
    },
    {
      "midi": 67,
      "hit": false,
      "t": 181680,
      "d": 227,
      "v": 127
    },
    {
      "midi": 53,
      "hit": false,
      "t": 181920,
      "d": 330,
      "v": 127
    },
    {
      "midi": 62,
      "hit": false,
      "t": 181920,
      "d": 335,
      "v": 127
    },
    {
      "midi": 58,
      "hit": false,
      "t": 181920,
      "d": 337,
      "v": 127
    },
    {
      "midi": 46,
      "hit": false,
      "t": 181920,
      "d": 357,
      "v": 127
    },
    {
      "midi": 72,
      "hit": false,
      "t": 181920,
      "d": 237,
      "v": 127
    },
    {
      "midi": 70,
      "hit": false,
      "t": 182160,
      "d": 227,
      "v": 127
    },
    {
      "midi": 51,
      "hit": false,
      "t": 182400,
      "d": 253,
      "v": 127
    },
    {
      "midi": 63,
      "hit": false,
      "t": 182400,
      "d": 460,
      "v": 127
    },
    {
      "midi": 55,
      "hit": false,
      "t": 182640,
      "d": 67,
      "v": 127
    },
    {
      "midi": 58,
      "hit": false,
      "t": 182640,
      "d": 70,
      "v": 127
    },
    {
      "midi": 63,
      "hit": false,
      "t": 182640,
      "d": 75,
      "v": 127
    },
    {
      "midi": 51,
      "hit": false,
      "t": 182880,
      "d": 95,
      "v": 127
    },
    {
      "midi": 55,
      "hit": false,
      "t": 183000,
      "d": 80,
      "v": 127
    },
    {
      "midi": 58,
      "hit": false,
      "t": 183000,
      "d": 82,
      "v": 127
    },
    {
      "midi": 63,
      "hit": false,
      "t": 183000,
      "d": 95,
      "v": 127
    },
    {
      "midi": 51,
      "hit": false,
      "t": 183240,
      "d": 72,
      "v": 127
    },
    {
      "midi": 53,
      "hit": false,
      "t": 183360,
      "d": 77,
      "v": 127
    },
    {
      "midi": 58,
      "hit": false,
      "t": 183360,
      "d": 87,
      "v": 127
    },
    {
      "midi": 46,
      "hit": false,
      "t": 183360,
      "d": 97,
      "v": 127
    },
    {
      "midi": 62,
      "hit": false,
      "t": 183360,
      "d": 102,
      "v": 127
    },
    {
      "midi": 53,
      "hit": false,
      "t": 183720,
      "d": 80,
      "v": 127
    },
    {
      "midi": 46,
      "hit": false,
      "t": 183720,
      "d": 90,
      "v": 127
    },
    {
      "midi": 58,
      "hit": false,
      "t": 183720,
      "d": 90,
      "v": 127
    },
    {
      "midi": 62,
      "hit": false,
      "t": 183720,
      "d": 92,
      "v": 127
    },
    {
      "midi": 53,
      "hit": false,
      "t": 184080,
      "d": 965,
      "v": 127
    },
    {
      "midi": 56,
      "hit": false,
      "t": 184080,
      "d": 965,
      "v": 127
    },
    {
      "midi": 60,
      "hit": false,
      "t": 184080,
      "d": 968,
      "v": 127
    },
    {
      "midi": 44,
      "hit": false,
      "t": 184080,
      "d": 983,
      "v": 127
    },
    {
      "midi": 51,
      "hit": false,
      "t": 185280,
      "d": 378,
      "v": 127
    },
    {
      "midi": 56,
      "hit": false,
      "t": 185280,
      "d": 405,
      "v": 127
    },
    {
      "midi": 60,
      "hit": false,
      "t": 185280,
      "d": 405,
      "v": 127
    },
    {
      "midi": 44,
      "hit": false,
      "t": 185280,
      "d": 435,
      "v": 127
    },
    {
      "midi": 53,
      "hit": false,
      "t": 185760,
      "d": 375,
      "v": 127
    },
    {
      "midi": 62,
      "hit": false,
      "t": 185760,
      "d": 378,
      "v": 127
    },
    {
      "midi": 58,
      "hit": false,
      "t": 185760,
      "d": 385,
      "v": 127
    },
    {
      "midi": 46,
      "hit": false,
      "t": 185760,
      "d": 403,
      "v": 127
    },
    {
      "midi": 51,
      "hit": false,
      "t": 186240,
      "d": 268,
      "v": 127
    },
    {
      "midi": 58,
      "hit": false,
      "t": 186480,
      "d": 67,
      "v": 127
    },
    {
      "midi": 55,
      "hit": false,
      "t": 186480,
      "d": 70,
      "v": 127
    },
    {
      "midi": 63,
      "hit": false,
      "t": 186480,
      "d": 77,
      "v": 127
    },
    {
      "midi": 82,
      "hit": false,
      "t": 186480,
      "d": 237,
      "v": 127
    },
    {
      "midi": 75,
      "hit": false,
      "t": 186480,
      "d": 253,
      "v": 127
    },
    {
      "midi": 79,
      "hit": false,
      "t": 186480,
      "d": 253,
      "v": 127
    },
    {
      "midi": 51,
      "hit": false,
      "t": 186720,
      "d": 112,
      "v": 127
    },
    {
      "midi": 55,
      "hit": false,
      "t": 186840,
      "d": 82,
      "v": 127
    },
    {
      "midi": 58,
      "hit": false,
      "t": 186840,
      "d": 87,
      "v": 127
    },
    {
      "midi": 63,
      "hit": false,
      "t": 186840,
      "d": 90,
      "v": 127
    },
    {
      "midi": 75,
      "hit": false,
      "t": 186960,
      "d": 212,
      "v": 127
    },
    {
      "midi": 82,
      "hit": false,
      "t": 186960,
      "d": 217,
      "v": 127
    },
    {
      "midi": 79,
      "hit": false,
      "t": 186960,
      "d": 220,
      "v": 127
    },
    {
      "midi": 53,
      "hit": false,
      "t": 187200,
      "d": 72,
      "v": 127
    },
    {
      "midi": 62,
      "hit": false,
      "t": 187200,
      "d": 77,
      "v": 127
    },
    {
      "midi": 58,
      "hit": false,
      "t": 187200,
      "d": 80,
      "v": 127
    },
    {
      "midi": 46,
      "hit": false,
      "t": 187200,
      "d": 92,
      "v": 127
    },
    {
      "midi": 53,
      "hit": false,
      "t": 187560,
      "d": 77,
      "v": 127
    },
    {
      "midi": 58,
      "hit": false,
      "t": 187560,
      "d": 82,
      "v": 127
    },
    {
      "midi": 62,
      "hit": false,
      "t": 187560,
      "d": 95,
      "v": 127
    },
    {
      "midi": 46,
      "hit": false,
      "t": 187560,
      "d": 117,
      "v": 127
    },
    {
      "midi": 53,
      "hit": false,
      "t": 187920,
      "d": 843,
      "v": 127
    },
    {
      "midi": 44,
      "hit": false,
      "t": 187920,
      "d": 845,
      "v": 127
    },
    {
      "midi": 60,
      "hit": false,
      "t": 187920,
      "d": 848,
      "v": 127
    },
    {
      "midi": 56,
      "hit": false,
      "t": 187920,
      "d": 853,
      "v": 127
    },
    {
      "midi": 53,
      "hit": false,
      "t": 189120,
      "d": 268,
      "v": 127
    },
    {
      "midi": 56,
      "hit": false,
      "t": 189120,
      "d": 275,
      "v": 127
    },
    {
      "midi": 60,
      "hit": false,
      "t": 189120,
      "d": 275,
      "v": 127
    },
    {
      "midi": 44,
      "hit": false,
      "t": 189120,
      "d": 365,
      "v": 127
    },
    {
      "midi": 68,
      "hit": false,
      "t": 189120,
      "d": 237,
      "v": 127
    },
    {
      "midi": 67,
      "hit": false,
      "t": 189360,
      "d": 237,
      "v": 127
    },
    {
      "midi": 53,
      "hit": false,
      "t": 189600,
      "d": 330,
      "v": 127
    },
    {
      "midi": 62,
      "hit": false,
      "t": 189600,
      "d": 335,
      "v": 127
    },
    {
      "midi": 58,
      "hit": false,
      "t": 189600,
      "d": 337,
      "v": 127
    },
    {
      "midi": 46,
      "hit": false,
      "t": 189600,
      "d": 357,
      "v": 127
    },
    {
      "midi": 72,
      "hit": false,
      "t": 189600,
      "d": 237,
      "v": 127
    },
    {
      "midi": 70,
      "hit": false,
      "t": 189840,
      "d": 212,
      "v": 127
    },
    {
      "midi": 51,
      "hit": false,
      "t": 190080,
      "d": 253,
      "v": 127
    },
    {
      "midi": 63,
      "hit": false,
      "t": 190080,
      "d": 418,
      "v": 127
    },
    {
      "midi": 55,
      "hit": false,
      "t": 190320,
      "d": 67,
      "v": 127
    },
    {
      "midi": 58,
      "hit": false,
      "t": 190320,
      "d": 70,
      "v": 127
    },
    {
      "midi": 63,
      "hit": false,
      "t": 190320,
      "d": 75,
      "v": 127
    },
    {
      "midi": 51,
      "hit": false,
      "t": 190560,
      "d": 95,
      "v": 127
    },
    {
      "midi": 55,
      "hit": false,
      "t": 190680,
      "d": 80,
      "v": 127
    },
    {
      "midi": 58,
      "hit": false,
      "t": 190680,
      "d": 82,
      "v": 127
    },
    {
      "midi": 63,
      "hit": false,
      "t": 190680,
      "d": 95,
      "v": 127
    },
    {
      "midi": 51,
      "hit": false,
      "t": 190920,
      "d": 72,
      "v": 127
    },
    {
      "midi": 53,
      "hit": false,
      "t": 191040,
      "d": 77,
      "v": 127
    },
    {
      "midi": 58,
      "hit": false,
      "t": 191040,
      "d": 87,
      "v": 127
    },
    {
      "midi": 46,
      "hit": false,
      "t": 191040,
      "d": 97,
      "v": 127
    },
    {
      "midi": 62,
      "hit": false,
      "t": 191040,
      "d": 102,
      "v": 127
    },
    {
      "midi": 53,
      "hit": false,
      "t": 191400,
      "d": 80,
      "v": 127
    },
    {
      "midi": 46,
      "hit": false,
      "t": 191400,
      "d": 90,
      "v": 127
    },
    {
      "midi": 58,
      "hit": false,
      "t": 191400,
      "d": 90,
      "v": 127
    },
    {
      "midi": 62,
      "hit": false,
      "t": 191400,
      "d": 92,
      "v": 127
    },
    {
      "midi": 53,
      "hit": false,
      "t": 191760,
      "d": 965,
      "v": 127
    },
    {
      "midi": 56,
      "hit": false,
      "t": 191760,
      "d": 965,
      "v": 127
    },
    {
      "midi": 60,
      "hit": false,
      "t": 191760,
      "d": 968,
      "v": 127
    },
    {
      "midi": 44,
      "hit": false,
      "t": 191760,
      "d": 983,
      "v": 127
    },
    {
      "midi": 53,
      "hit": false,
      "t": 192960,
      "d": 335,
      "v": 127
    },
    {
      "midi": 56,
      "hit": false,
      "t": 192960,
      "d": 373,
      "v": 127
    },
    {
      "midi": 60,
      "hit": false,
      "t": 192960,
      "d": 385,
      "v": 127
    },
    {
      "midi": 44,
      "hit": false,
      "t": 192960,
      "d": 413,
      "v": 127
    },
    {
      "midi": 68,
      "hit": false,
      "t": 192960,
      "d": 237,
      "v": 127
    },
    {
      "midi": 67,
      "hit": false,
      "t": 193200,
      "d": 237,
      "v": 127
    },
    {
      "midi": 62,
      "hit": false,
      "t": 193440,
      "d": 352,
      "v": 127
    },
    {
      "midi": 53,
      "hit": false,
      "t": 193440,
      "d": 357,
      "v": 127
    },
    {
      "midi": 58,
      "hit": false,
      "t": 193440,
      "d": 357,
      "v": 127
    },
    {
      "midi": 46,
      "hit": false,
      "t": 193440,
      "d": 378,
      "v": 127
    },
    {
      "midi": 72,
      "hit": false,
      "t": 193440,
      "d": 237,
      "v": 127
    },
    {
      "midi": 70,
      "hit": false,
      "t": 193680,
      "d": 235,
      "v": 127
    },
    {
      "midi": 51,
      "hit": false,
      "t": 193920,
      "d": 268,
      "v": 127
    },
    {
      "midi": 63,
      "hit": false,
      "t": 193920,
      "d": 237,
      "v": 127
    },
    {
      "midi": 58,
      "hit": false,
      "t": 194160,
      "d": 67,
      "v": 127
    },
    {
      "midi": 55,
      "hit": false,
      "t": 194160,
      "d": 70,
      "v": 127
    },
    {
      "midi": 63,
      "hit": false,
      "t": 194160,
      "d": 77,
      "v": 127
    },
    {
      "midi": 82,
      "hit": false,
      "t": 194160,
      "d": 200,
      "v": 127
    },
    {
      "midi": 75,
      "hit": false,
      "t": 194160,
      "d": 205,
      "v": 127
    },
    {
      "midi": 79,
      "hit": false,
      "t": 194160,
      "d": 222,
      "v": 127
    },
    {
      "midi": 51,
      "hit": false,
      "t": 194400,
      "d": 112,
      "v": 127
    },
    {
      "midi": 55,
      "hit": false,
      "t": 194520,
      "d": 82,
      "v": 127
    },
    {
      "midi": 58,
      "hit": false,
      "t": 194520,
      "d": 87,
      "v": 127
    },
    {
      "midi": 63,
      "hit": false,
      "t": 194520,
      "d": 90,
      "v": 127
    },
    {
      "midi": 75,
      "hit": false,
      "t": 194640,
      "d": 205,
      "v": 127
    },
    {
      "midi": 82,
      "hit": false,
      "t": 194640,
      "d": 207,
      "v": 127
    },
    {
      "midi": 79,
      "hit": false,
      "t": 194640,
      "d": 212,
      "v": 127
    },
    {
      "midi": 53,
      "hit": false,
      "t": 194880,
      "d": 72,
      "v": 127
    },
    {
      "midi": 62,
      "hit": false,
      "t": 194880,
      "d": 77,
      "v": 127
    },
    {
      "midi": 58,
      "hit": false,
      "t": 194880,
      "d": 80,
      "v": 127
    },
    {
      "midi": 46,
      "hit": false,
      "t": 194880,
      "d": 92,
      "v": 127
    },
    {
      "midi": 53,
      "hit": false,
      "t": 195240,
      "d": 77,
      "v": 127
    },
    {
      "midi": 58,
      "hit": false,
      "t": 195240,
      "d": 82,
      "v": 127
    },
    {
      "midi": 62,
      "hit": false,
      "t": 195240,
      "d": 95,
      "v": 127
    },
    {
      "midi": 46,
      "hit": false,
      "t": 195240,
      "d": 117,
      "v": 127
    },
    {
      "midi": 53,
      "hit": false,
      "t": 195600,
      "d": 843,
      "v": 127
    },
    {
      "midi": 44,
      "hit": false,
      "t": 195600,
      "d": 845,
      "v": 127
    },
    {
      "midi": 60,
      "hit": false,
      "t": 195600,
      "d": 848,
      "v": 127
    },
    {
      "midi": 56,
      "hit": false,
      "t": 195600,
      "d": 853,
      "v": 127
    },
    {
      "midi": 53,
      "hit": false,
      "t": 196800,
      "d": 268,
      "v": 127
    },
    {
      "midi": 56,
      "hit": false,
      "t": 196800,
      "d": 275,
      "v": 127
    },
    {
      "midi": 60,
      "hit": false,
      "t": 196800,
      "d": 275,
      "v": 127
    },
    {
      "midi": 44,
      "hit": false,
      "t": 196800,
      "d": 365,
      "v": 127
    },
    {
      "midi": 68,
      "hit": false,
      "t": 196800,
      "d": 237,
      "v": 127
    },
    {
      "midi": 67,
      "hit": false,
      "t": 197040,
      "d": 227,
      "v": 127
    },
    {
      "midi": 53,
      "hit": false,
      "t": 197280,
      "d": 330,
      "v": 127
    },
    {
      "midi": 62,
      "hit": false,
      "t": 197280,
      "d": 335,
      "v": 127
    },
    {
      "midi": 58,
      "hit": false,
      "t": 197280,
      "d": 337,
      "v": 127
    },
    {
      "midi": 46,
      "hit": false,
      "t": 197280,
      "d": 357,
      "v": 127
    },
    {
      "midi": 72,
      "hit": false,
      "t": 197280,
      "d": 237,
      "v": 127
    },
    {
      "midi": 70,
      "hit": false,
      "t": 197520,
      "d": 227,
      "v": 127
    },
    {
      "midi": 51,
      "hit": false,
      "t": 197760,
      "d": 253,
      "v": 127
    },
    {
      "midi": 63,
      "hit": false,
      "t": 197760,
      "d": 460,
      "v": 127
    },
    {
      "midi": 55,
      "hit": false,
      "t": 198000,
      "d": 67,
      "v": 127
    },
    {
      "midi": 58,
      "hit": false,
      "t": 198000,
      "d": 70,
      "v": 127
    },
    {
      "midi": 63,
      "hit": false,
      "t": 198000,
      "d": 75,
      "v": 127
    },
    {
      "midi": 51,
      "hit": false,
      "t": 198240,
      "d": 95,
      "v": 127
    },
    {
      "midi": 55,
      "hit": false,
      "t": 198360,
      "d": 80,
      "v": 127
    },
    {
      "midi": 58,
      "hit": false,
      "t": 198360,
      "d": 82,
      "v": 127
    },
    {
      "midi": 63,
      "hit": false,
      "t": 198360,
      "d": 95,
      "v": 127
    },
    {
      "midi": 51,
      "hit": false,
      "t": 198600,
      "d": 72,
      "v": 127
    },
    {
      "midi": 53,
      "hit": false,
      "t": 198720,
      "d": 77,
      "v": 127
    },
    {
      "midi": 58,
      "hit": false,
      "t": 198720,
      "d": 87,
      "v": 127
    },
    {
      "midi": 46,
      "hit": false,
      "t": 198720,
      "d": 97,
      "v": 127
    },
    {
      "midi": 62,
      "hit": false,
      "t": 198720,
      "d": 102,
      "v": 127
    },
    {
      "midi": 53,
      "hit": false,
      "t": 199080,
      "d": 80,
      "v": 127
    },
    {
      "midi": 46,
      "hit": false,
      "t": 199080,
      "d": 90,
      "v": 127
    },
    {
      "midi": 58,
      "hit": false,
      "t": 199080,
      "d": 90,
      "v": 127
    },
    {
      "midi": 62,
      "hit": false,
      "t": 199080,
      "d": 92,
      "v": 127
    },
    {
      "midi": 53,
      "hit": false,
      "t": 199440,
      "d": 965,
      "v": 127
    },
    {
      "midi": 56,
      "hit": false,
      "t": 199440,
      "d": 965,
      "v": 127
    },
    {
      "midi": 60,
      "hit": false,
      "t": 199440,
      "d": 968,
      "v": 127
    },
    {
      "midi": 44,
      "hit": false,
      "t": 199440,
      "d": 983,
      "v": 127
    },
    {
      "midi": 51,
      "hit": false,
      "t": 200640,
      "d": 378,
      "v": 127
    },
    {
      "midi": 56,
      "hit": false,
      "t": 200640,
      "d": 405,
      "v": 127
    },
    {
      "midi": 60,
      "hit": false,
      "t": 200640,
      "d": 405,
      "v": 127
    },
    {
      "midi": 44,
      "hit": false,
      "t": 200640,
      "d": 435,
      "v": 127
    },
    {
      "midi": 53,
      "hit": false,
      "t": 201120,
      "d": 375,
      "v": 127
    },
    {
      "midi": 62,
      "hit": false,
      "t": 201120,
      "d": 378,
      "v": 127
    },
    {
      "midi": 58,
      "hit": false,
      "t": 201120,
      "d": 385,
      "v": 127
    },
    {
      "midi": 46,
      "hit": false,
      "t": 201120,
      "d": 403,
      "v": 127
    },
    {
      "midi": 51,
      "hit": false,
      "t": 201600,
      "d": 268,
      "v": 127
    },
    {
      "midi": 58,
      "hit": false,
      "t": 201840,
      "d": 67,
      "v": 127
    },
    {
      "midi": 55,
      "hit": false,
      "t": 201840,
      "d": 70,
      "v": 127
    },
    {
      "midi": 63,
      "hit": false,
      "t": 201840,
      "d": 77,
      "v": 127
    },
    {
      "midi": 82,
      "hit": false,
      "t": 201840,
      "d": 237,
      "v": 127
    },
    {
      "midi": 75,
      "hit": false,
      "t": 201840,
      "d": 253,
      "v": 127
    },
    {
      "midi": 79,
      "hit": false,
      "t": 201840,
      "d": 253,
      "v": 127
    },
    {
      "midi": 51,
      "hit": false,
      "t": 202080,
      "d": 112,
      "v": 127
    },
    {
      "midi": 55,
      "hit": false,
      "t": 202200,
      "d": 82,
      "v": 127
    },
    {
      "midi": 58,
      "hit": false,
      "t": 202200,
      "d": 87,
      "v": 127
    },
    {
      "midi": 63,
      "hit": false,
      "t": 202200,
      "d": 90,
      "v": 127
    },
    {
      "midi": 75,
      "hit": false,
      "t": 202320,
      "d": 212,
      "v": 127
    },
    {
      "midi": 82,
      "hit": false,
      "t": 202320,
      "d": 217,
      "v": 127
    },
    {
      "midi": 79,
      "hit": false,
      "t": 202320,
      "d": 220,
      "v": 127
    },
    {
      "midi": 53,
      "hit": false,
      "t": 202560,
      "d": 72,
      "v": 127
    },
    {
      "midi": 62,
      "hit": false,
      "t": 202560,
      "d": 77,
      "v": 127
    },
    {
      "midi": 58,
      "hit": false,
      "t": 202560,
      "d": 80,
      "v": 127
    },
    {
      "midi": 46,
      "hit": false,
      "t": 202560,
      "d": 92,
      "v": 127
    },
    {
      "midi": 53,
      "hit": false,
      "t": 202920,
      "d": 77,
      "v": 127
    },
    {
      "midi": 58,
      "hit": false,
      "t": 202920,
      "d": 82,
      "v": 127
    },
    {
      "midi": 62,
      "hit": false,
      "t": 202920,
      "d": 95,
      "v": 127
    },
    {
      "midi": 46,
      "hit": false,
      "t": 202920,
      "d": 117,
      "v": 127
    },
    {
      "midi": 53,
      "hit": false,
      "t": 203280,
      "d": 843,
      "v": 127
    },
    {
      "midi": 44,
      "hit": false,
      "t": 203280,
      "d": 845,
      "v": 127
    },
    {
      "midi": 60,
      "hit": false,
      "t": 203280,
      "d": 848,
      "v": 127
    },
    {
      "midi": 56,
      "hit": false,
      "t": 203280,
      "d": 853,
      "v": 127
    },
    {
      "midi": 53,
      "hit": false,
      "t": 204480,
      "d": 268,
      "v": 127
    },
    {
      "midi": 56,
      "hit": false,
      "t": 204480,
      "d": 275,
      "v": 127
    },
    {
      "midi": 60,
      "hit": false,
      "t": 204480,
      "d": 275,
      "v": 127
    },
    {
      "midi": 44,
      "hit": false,
      "t": 204480,
      "d": 365,
      "v": 127
    },
    {
      "midi": 68,
      "hit": false,
      "t": 204480,
      "d": 237,
      "v": 127
    },
    {
      "midi": 67,
      "hit": false,
      "t": 204720,
      "d": 237,
      "v": 127
    },
    {
      "midi": 53,
      "hit": false,
      "t": 204960,
      "d": 330,
      "v": 127
    },
    {
      "midi": 62,
      "hit": false,
      "t": 204960,
      "d": 335,
      "v": 127
    },
    {
      "midi": 58,
      "hit": false,
      "t": 204960,
      "d": 337,
      "v": 127
    },
    {
      "midi": 46,
      "hit": false,
      "t": 204960,
      "d": 357,
      "v": 127
    },
    {
      "midi": 72,
      "hit": false,
      "t": 204960,
      "d": 237,
      "v": 127
    },
    {
      "midi": 70,
      "hit": false,
      "t": 205200,
      "d": 212,
      "v": 127
    },
    {
      "midi": 51,
      "hit": false,
      "t": 205440,
      "d": 253,
      "v": 127
    },
    {
      "midi": 63,
      "hit": false,
      "t": 205440,
      "d": 418,
      "v": 127
    },
    {
      "midi": 55,
      "hit": false,
      "t": 205680,
      "d": 67,
      "v": 127
    },
    {
      "midi": 58,
      "hit": false,
      "t": 205680,
      "d": 70,
      "v": 127
    },
    {
      "midi": 63,
      "hit": false,
      "t": 205680,
      "d": 75,
      "v": 127
    },
    {
      "midi": 51,
      "hit": false,
      "t": 205920,
      "d": 95,
      "v": 127
    },
    {
      "midi": 55,
      "hit": false,
      "t": 206040,
      "d": 80,
      "v": 127
    },
    {
      "midi": 58,
      "hit": false,
      "t": 206040,
      "d": 82,
      "v": 127
    },
    {
      "midi": 63,
      "hit": false,
      "t": 206040,
      "d": 95,
      "v": 127
    },
    {
      "midi": 51,
      "hit": false,
      "t": 206280,
      "d": 72,
      "v": 127
    },
    {
      "midi": 53,
      "hit": false,
      "t": 206400,
      "d": 77,
      "v": 127
    },
    {
      "midi": 58,
      "hit": false,
      "t": 206400,
      "d": 87,
      "v": 127
    },
    {
      "midi": 46,
      "hit": false,
      "t": 206400,
      "d": 97,
      "v": 127
    },
    {
      "midi": 62,
      "hit": false,
      "t": 206400,
      "d": 102,
      "v": 127
    },
    {
      "midi": 53,
      "hit": false,
      "t": 206760,
      "d": 80,
      "v": 127
    },
    {
      "midi": 46,
      "hit": false,
      "t": 206760,
      "d": 90,
      "v": 127
    },
    {
      "midi": 58,
      "hit": false,
      "t": 206760,
      "d": 90,
      "v": 127
    },
    {
      "midi": 62,
      "hit": false,
      "t": 206760,
      "d": 92,
      "v": 127
    },
    {
      "midi": 53,
      "hit": false,
      "t": 207120,
      "d": 965,
      "v": 127
    },
    {
      "midi": 56,
      "hit": false,
      "t": 207120,
      "d": 965,
      "v": 127
    },
    {
      "midi": 60,
      "hit": false,
      "t": 207120,
      "d": 968,
      "v": 127
    },
    {
      "midi": 44,
      "hit": false,
      "t": 207120,
      "d": 983,
      "v": 127
    },
    {
      "midi": 53,
      "hit": false,
      "t": 208320,
      "d": 335,
      "v": 127
    },
    {
      "midi": 56,
      "hit": false,
      "t": 208320,
      "d": 373,
      "v": 127
    },
    {
      "midi": 60,
      "hit": false,
      "t": 208320,
      "d": 385,
      "v": 127
    },
    {
      "midi": 44,
      "hit": false,
      "t": 208320,
      "d": 413,
      "v": 127
    },
    {
      "midi": 68,
      "hit": false,
      "t": 208320,
      "d": 237,
      "v": 127
    },
    {
      "midi": 67,
      "hit": false,
      "t": 208560,
      "d": 237,
      "v": 127
    },
    {
      "midi": 62,
      "hit": false,
      "t": 208800,
      "d": 352,
      "v": 127
    },
    {
      "midi": 53,
      "hit": false,
      "t": 208800,
      "d": 357,
      "v": 127
    },
    {
      "midi": 58,
      "hit": false,
      "t": 208800,
      "d": 357,
      "v": 127
    },
    {
      "midi": 46,
      "hit": false,
      "t": 208800,
      "d": 378,
      "v": 127
    },
    {
      "midi": 72,
      "hit": false,
      "t": 208800,
      "d": 237,
      "v": 127
    },
    {
      "midi": 70,
      "hit": false,
      "t": 209040,
      "d": 235,
      "v": 127
    },
    {
      "midi": 51,
      "hit": false,
      "t": 209280,
      "d": 268,
      "v": 127
    },
    {
      "midi": 63,
      "hit": false,
      "t": 209280,
      "d": 237,
      "v": 127
    },
    {
      "midi": 58,
      "hit": false,
      "t": 209520,
      "d": 67,
      "v": 127
    },
    {
      "midi": 55,
      "hit": false,
      "t": 209520,
      "d": 70,
      "v": 127
    },
    {
      "midi": 63,
      "hit": false,
      "t": 209520,
      "d": 77,
      "v": 127
    },
    {
      "midi": 82,
      "hit": false,
      "t": 209520,
      "d": 200,
      "v": 127
    },
    {
      "midi": 75,
      "hit": false,
      "t": 209520,
      "d": 205,
      "v": 127
    },
    {
      "midi": 79,
      "hit": false,
      "t": 209520,
      "d": 222,
      "v": 127
    },
    {
      "midi": 51,
      "hit": false,
      "t": 209760,
      "d": 112,
      "v": 127
    },
    {
      "midi": 55,
      "hit": false,
      "t": 209880,
      "d": 82,
      "v": 127
    },
    {
      "midi": 58,
      "hit": false,
      "t": 209880,
      "d": 87,
      "v": 127
    },
    {
      "midi": 63,
      "hit": false,
      "t": 209880,
      "d": 90,
      "v": 127
    },
    {
      "midi": 75,
      "hit": false,
      "t": 210000,
      "d": 205,
      "v": 127
    },
    {
      "midi": 82,
      "hit": false,
      "t": 210000,
      "d": 207,
      "v": 127
    },
    {
      "midi": 79,
      "hit": false,
      "t": 210000,
      "d": 212,
      "v": 127
    },
    {
      "midi": 53,
      "hit": false,
      "t": 210240,
      "d": 72,
      "v": 127
    },
    {
      "midi": 62,
      "hit": false,
      "t": 210240,
      "d": 77,
      "v": 127
    },
    {
      "midi": 58,
      "hit": false,
      "t": 210240,
      "d": 80,
      "v": 127
    },
    {
      "midi": 46,
      "hit": false,
      "t": 210240,
      "d": 92,
      "v": 127
    },
    {
      "midi": 53,
      "hit": false,
      "t": 210600,
      "d": 77,
      "v": 127
    },
    {
      "midi": 58,
      "hit": false,
      "t": 210600,
      "d": 82,
      "v": 127
    },
    {
      "midi": 62,
      "hit": false,
      "t": 210600,
      "d": 95,
      "v": 127
    },
    {
      "midi": 46,
      "hit": false,
      "t": 210600,
      "d": 117,
      "v": 127
    },
    {
      "midi": 53,
      "hit": false,
      "t": 210960,
      "d": 843,
      "v": 127
    },
    {
      "midi": 44,
      "hit": false,
      "t": 210960,
      "d": 845,
      "v": 127
    },
    {
      "midi": 60,
      "hit": false,
      "t": 210960,
      "d": 848,
      "v": 127
    },
    {
      "midi": 56,
      "hit": false,
      "t": 210960,
      "d": 853,
      "v": 127
    },
    {
      "midi": 53,
      "hit": false,
      "t": 212160,
      "d": 268,
      "v": 127
    },
    {
      "midi": 56,
      "hit": false,
      "t": 212160,
      "d": 275,
      "v": 127
    },
    {
      "midi": 60,
      "hit": false,
      "t": 212160,
      "d": 275,
      "v": 127
    },
    {
      "midi": 44,
      "hit": false,
      "t": 212160,
      "d": 365,
      "v": 127
    },
    {
      "midi": 68,
      "hit": false,
      "t": 212160,
      "d": 237,
      "v": 127
    },
    {
      "midi": 67,
      "hit": false,
      "t": 212400,
      "d": 227,
      "v": 127
    },
    {
      "midi": 53,
      "hit": false,
      "t": 212640,
      "d": 330,
      "v": 127
    },
    {
      "midi": 62,
      "hit": false,
      "t": 212640,
      "d": 335,
      "v": 127
    },
    {
      "midi": 58,
      "hit": false,
      "t": 212640,
      "d": 337,
      "v": 127
    },
    {
      "midi": 46,
      "hit": false,
      "t": 212640,
      "d": 357,
      "v": 127
    },
    {
      "midi": 72,
      "hit": false,
      "t": 212640,
      "d": 237,
      "v": 127
    },
    {
      "midi": 70,
      "hit": false,
      "t": 212880,
      "d": 227,
      "v": 127
    },
    {
      "midi": 51,
      "hit": false,
      "t": 213120,
      "d": 253,
      "v": 127
    },
    {
      "midi": 63,
      "hit": false,
      "t": 213120,
      "d": 460,
      "v": 127
    },
    {
      "midi": 55,
      "hit": false,
      "t": 213360,
      "d": 67,
      "v": 127
    },
    {
      "midi": 58,
      "hit": false,
      "t": 213360,
      "d": 70,
      "v": 127
    },
    {
      "midi": 63,
      "hit": false,
      "t": 213360,
      "d": 75,
      "v": 127
    },
    {
      "midi": 51,
      "hit": false,
      "t": 213600,
      "d": 95,
      "v": 127
    },
    {
      "midi": 55,
      "hit": false,
      "t": 213720,
      "d": 80,
      "v": 127
    },
    {
      "midi": 58,
      "hit": false,
      "t": 213720,
      "d": 82,
      "v": 127
    },
    {
      "midi": 63,
      "hit": false,
      "t": 213720,
      "d": 95,
      "v": 127
    },
    {
      "midi": 51,
      "hit": false,
      "t": 213960,
      "d": 72,
      "v": 127
    },
    {
      "midi": 53,
      "hit": false,
      "t": 214080,
      "d": 77,
      "v": 127
    },
    {
      "midi": 58,
      "hit": false,
      "t": 214080,
      "d": 87,
      "v": 127
    },
    {
      "midi": 46,
      "hit": false,
      "t": 214080,
      "d": 97,
      "v": 127
    },
    {
      "midi": 62,
      "hit": false,
      "t": 214080,
      "d": 102,
      "v": 127
    },
    {
      "midi": 53,
      "hit": false,
      "t": 214440,
      "d": 80,
      "v": 127
    },
    {
      "midi": 46,
      "hit": false,
      "t": 214440,
      "d": 90,
      "v": 127
    },
    {
      "midi": 58,
      "hit": false,
      "t": 214440,
      "d": 90,
      "v": 127
    },
    {
      "midi": 62,
      "hit": false,
      "t": 214440,
      "d": 92,
      "v": 127
    },
    {
      "midi": 53,
      "hit": false,
      "t": 214800,
      "d": 965,
      "v": 127
    },
    {
      "midi": 56,
      "hit": false,
      "t": 214800,
      "d": 965,
      "v": 127
    },
    {
      "midi": 60,
      "hit": false,
      "t": 214800,
      "d": 968,
      "v": 127
    },
    {
      "midi": 44,
      "hit": false,
      "t": 214800,
      "d": 983,
      "v": 127
    },
    {
      "midi": 51,
      "hit": false,
      "t": 216000,
      "d": 378,
      "v": 127
    },
    {
      "midi": 56,
      "hit": false,
      "t": 216000,
      "d": 405,
      "v": 127
    },
    {
      "midi": 60,
      "hit": false,
      "t": 216000,
      "d": 405,
      "v": 127
    },
    {
      "midi": 44,
      "hit": false,
      "t": 216000,
      "d": 435,
      "v": 127
    },
    {
      "midi": 53,
      "hit": false,
      "t": 216480,
      "d": 375,
      "v": 127
    },
    {
      "midi": 62,
      "hit": false,
      "t": 216480,
      "d": 378,
      "v": 127
    },
    {
      "midi": 58,
      "hit": false,
      "t": 216480,
      "d": 385,
      "v": 127
    },
    {
      "midi": 46,
      "hit": false,
      "t": 216480,
      "d": 403,
      "v": 127
    },
    {
      "midi": 51,
      "hit": false,
      "t": 232320,
      "d": 268,
      "v": 127
    },
    {
      "midi": 58,
      "hit": false,
      "t": 232560,
      "d": 67,
      "v": 127
    },
    {
      "midi": 55,
      "hit": false,
      "t": 232560,
      "d": 70,
      "v": 127
    },
    {
      "midi": 63,
      "hit": false,
      "t": 232560,
      "d": 77,
      "v": 127
    },
    {
      "midi": 82,
      "hit": false,
      "t": 232560,
      "d": 237,
      "v": 127
    },
    {
      "midi": 75,
      "hit": false,
      "t": 232560,
      "d": 253,
      "v": 127
    },
    {
      "midi": 79,
      "hit": false,
      "t": 232560,
      "d": 253,
      "v": 127
    },
    {
      "midi": 51,
      "hit": false,
      "t": 232800,
      "d": 112,
      "v": 127
    },
    {
      "midi": 55,
      "hit": false,
      "t": 232920,
      "d": 82,
      "v": 127
    },
    {
      "midi": 58,
      "hit": false,
      "t": 232920,
      "d": 87,
      "v": 127
    },
    {
      "midi": 63,
      "hit": false,
      "t": 232920,
      "d": 90,
      "v": 127
    },
    {
      "midi": 75,
      "hit": false,
      "t": 233040,
      "d": 212,
      "v": 127
    },
    {
      "midi": 82,
      "hit": false,
      "t": 233040,
      "d": 217,
      "v": 127
    },
    {
      "midi": 79,
      "hit": false,
      "t": 233040,
      "d": 220,
      "v": 127
    },
    {
      "midi": 53,
      "hit": false,
      "t": 233280,
      "d": 72,
      "v": 127
    },
    {
      "midi": 62,
      "hit": false,
      "t": 233280,
      "d": 77,
      "v": 127
    },
    {
      "midi": 58,
      "hit": false,
      "t": 233280,
      "d": 80,
      "v": 127
    },
    {
      "midi": 46,
      "hit": false,
      "t": 233280,
      "d": 92,
      "v": 127
    },
    {
      "midi": 53,
      "hit": false,
      "t": 233640,
      "d": 77,
      "v": 127
    },
    {
      "midi": 58,
      "hit": false,
      "t": 233640,
      "d": 82,
      "v": 127
    },
    {
      "midi": 62,
      "hit": false,
      "t": 233640,
      "d": 95,
      "v": 127
    },
    {
      "midi": 46,
      "hit": false,
      "t": 233640,
      "d": 117,
      "v": 127
    },
    {
      "midi": 53,
      "hit": false,
      "t": 234000,
      "d": 843,
      "v": 127
    },
    {
      "midi": 44,
      "hit": false,
      "t": 234000,
      "d": 845,
      "v": 127
    },
    {
      "midi": 60,
      "hit": false,
      "t": 234000,
      "d": 848,
      "v": 127
    },
    {
      "midi": 56,
      "hit": false,
      "t": 234000,
      "d": 853,
      "v": 127
    },
    {
      "midi": 53,
      "hit": false,
      "t": 235200,
      "d": 268,
      "v": 127
    },
    {
      "midi": 56,
      "hit": false,
      "t": 235200,
      "d": 275,
      "v": 127
    },
    {
      "midi": 60,
      "hit": false,
      "t": 235200,
      "d": 275,
      "v": 127
    },
    {
      "midi": 44,
      "hit": false,
      "t": 235200,
      "d": 365,
      "v": 127
    },
    {
      "midi": 68,
      "hit": false,
      "t": 235200,
      "d": 237,
      "v": 127
    },
    {
      "midi": 67,
      "hit": false,
      "t": 235440,
      "d": 237,
      "v": 127
    },
    {
      "midi": 53,
      "hit": false,
      "t": 235680,
      "d": 330,
      "v": 127
    },
    {
      "midi": 62,
      "hit": false,
      "t": 235680,
      "d": 335,
      "v": 127
    },
    {
      "midi": 58,
      "hit": false,
      "t": 235680,
      "d": 337,
      "v": 127
    },
    {
      "midi": 46,
      "hit": false,
      "t": 235680,
      "d": 357,
      "v": 127
    },
    {
      "midi": 72,
      "hit": false,
      "t": 235680,
      "d": 237,
      "v": 127
    },
    {
      "midi": 70,
      "hit": false,
      "t": 235920,
      "d": 212,
      "v": 127
    },
    {
      "midi": 51,
      "hit": false,
      "t": 236160,
      "d": 253,
      "v": 127
    },
    {
      "midi": 63,
      "hit": false,
      "t": 236160,
      "d": 418,
      "v": 127
    },
    {
      "midi": 55,
      "hit": false,
      "t": 236400,
      "d": 67,
      "v": 127
    },
    {
      "midi": 58,
      "hit": false,
      "t": 236400,
      "d": 70,
      "v": 127
    },
    {
      "midi": 63,
      "hit": false,
      "t": 236400,
      "d": 75,
      "v": 127
    },
    {
      "midi": 51,
      "hit": false,
      "t": 236640,
      "d": 95,
      "v": 127
    },
    {
      "midi": 55,
      "hit": false,
      "t": 236760,
      "d": 80,
      "v": 127
    },
    {
      "midi": 58,
      "hit": false,
      "t": 236760,
      "d": 82,
      "v": 127
    },
    {
      "midi": 63,
      "hit": false,
      "t": 236760,
      "d": 95,
      "v": 127
    },
    {
      "midi": 51,
      "hit": false,
      "t": 237000,
      "d": 72,
      "v": 127
    },
    {
      "midi": 53,
      "hit": false,
      "t": 237120,
      "d": 77,
      "v": 127
    },
    {
      "midi": 58,
      "hit": false,
      "t": 237120,
      "d": 87,
      "v": 127
    },
    {
      "midi": 46,
      "hit": false,
      "t": 237120,
      "d": 97,
      "v": 127
    },
    {
      "midi": 62,
      "hit": false,
      "t": 237120,
      "d": 102,
      "v": 127
    },
    {
      "midi": 53,
      "hit": false,
      "t": 237480,
      "d": 80,
      "v": 127
    },
    {
      "midi": 46,
      "hit": false,
      "t": 237480,
      "d": 90,
      "v": 127
    },
    {
      "midi": 58,
      "hit": false,
      "t": 237480,
      "d": 90,
      "v": 127
    },
    {
      "midi": 62,
      "hit": false,
      "t": 237480,
      "d": 92,
      "v": 127
    },
    {
      "midi": 53,
      "hit": false,
      "t": 237840,
      "d": 965,
      "v": 127
    },
    {
      "midi": 56,
      "hit": false,
      "t": 237840,
      "d": 965,
      "v": 127
    },
    {
      "midi": 60,
      "hit": false,
      "t": 237840,
      "d": 968,
      "v": 127
    },
    {
      "midi": 44,
      "hit": false,
      "t": 237840,
      "d": 983,
      "v": 127
    },
    {
      "midi": 53,
      "hit": false,
      "t": 239040,
      "d": 335,
      "v": 127
    },
    {
      "midi": 56,
      "hit": false,
      "t": 239040,
      "d": 373,
      "v": 127
    },
    {
      "midi": 60,
      "hit": false,
      "t": 239040,
      "d": 385,
      "v": 127
    },
    {
      "midi": 44,
      "hit": false,
      "t": 239040,
      "d": 413,
      "v": 127
    },
    {
      "midi": 68,
      "hit": false,
      "t": 239040,
      "d": 237,
      "v": 127
    },
    {
      "midi": 67,
      "hit": false,
      "t": 239280,
      "d": 237,
      "v": 127
    },
    {
      "midi": 62,
      "hit": false,
      "t": 239520,
      "d": 352,
      "v": 127
    },
    {
      "midi": 53,
      "hit": false,
      "t": 239520,
      "d": 357,
      "v": 127
    },
    {
      "midi": 58,
      "hit": false,
      "t": 239520,
      "d": 357,
      "v": 127
    },
    {
      "midi": 46,
      "hit": false,
      "t": 239520,
      "d": 378,
      "v": 127
    },
    {
      "midi": 72,
      "hit": false,
      "t": 239520,
      "d": 237,
      "v": 127
    },
    {
      "midi": 70,
      "hit": false,
      "t": 239760,
      "d": 235,
      "v": 127
    },
    {
      "midi": 51,
      "hit": false,
      "t": 240000,
      "d": 268,
      "v": 127
    },
    {
      "midi": 63,
      "hit": false,
      "t": 240000,
      "d": 237,
      "v": 127
    },
    {
      "midi": 58,
      "hit": false,
      "t": 240240,
      "d": 67,
      "v": 127
    },
    {
      "midi": 55,
      "hit": false,
      "t": 240240,
      "d": 70,
      "v": 127
    },
    {
      "midi": 63,
      "hit": false,
      "t": 240240,
      "d": 77,
      "v": 127
    },
    {
      "midi": 82,
      "hit": false,
      "t": 240240,
      "d": 200,
      "v": 127
    },
    {
      "midi": 75,
      "hit": false,
      "t": 240240,
      "d": 205,
      "v": 127
    },
    {
      "midi": 79,
      "hit": false,
      "t": 240240,
      "d": 222,
      "v": 127
    },
    {
      "midi": 51,
      "hit": false,
      "t": 240480,
      "d": 112,
      "v": 127
    },
    {
      "midi": 55,
      "hit": false,
      "t": 240600,
      "d": 82,
      "v": 127
    },
    {
      "midi": 58,
      "hit": false,
      "t": 240600,
      "d": 87,
      "v": 127
    },
    {
      "midi": 63,
      "hit": false,
      "t": 240600,
      "d": 90,
      "v": 127
    },
    {
      "midi": 75,
      "hit": false,
      "t": 240720,
      "d": 205,
      "v": 127
    },
    {
      "midi": 82,
      "hit": false,
      "t": 240720,
      "d": 207,
      "v": 127
    },
    {
      "midi": 79,
      "hit": false,
      "t": 240720,
      "d": 212,
      "v": 127
    },
    {
      "midi": 53,
      "hit": false,
      "t": 240960,
      "d": 72,
      "v": 127
    },
    {
      "midi": 62,
      "hit": false,
      "t": 240960,
      "d": 77,
      "v": 127
    },
    {
      "midi": 58,
      "hit": false,
      "t": 240960,
      "d": 80,
      "v": 127
    },
    {
      "midi": 46,
      "hit": false,
      "t": 240960,
      "d": 92,
      "v": 127
    },
    {
      "midi": 53,
      "hit": false,
      "t": 241320,
      "d": 77,
      "v": 127
    },
    {
      "midi": 58,
      "hit": false,
      "t": 241320,
      "d": 82,
      "v": 127
    },
    {
      "midi": 62,
      "hit": false,
      "t": 241320,
      "d": 95,
      "v": 127
    },
    {
      "midi": 46,
      "hit": false,
      "t": 241320,
      "d": 117,
      "v": 127
    },
    {
      "midi": 53,
      "hit": false,
      "t": 241680,
      "d": 843,
      "v": 127
    },
    {
      "midi": 44,
      "hit": false,
      "t": 241680,
      "d": 845,
      "v": 127
    },
    {
      "midi": 60,
      "hit": false,
      "t": 241680,
      "d": 848,
      "v": 127
    },
    {
      "midi": 56,
      "hit": false,
      "t": 241680,
      "d": 853,
      "v": 127
    },
    {
      "midi": 53,
      "hit": false,
      "t": 242880,
      "d": 268,
      "v": 127
    },
    {
      "midi": 56,
      "hit": false,
      "t": 242880,
      "d": 275,
      "v": 127
    },
    {
      "midi": 60,
      "hit": false,
      "t": 242880,
      "d": 275,
      "v": 127
    },
    {
      "midi": 44,
      "hit": false,
      "t": 242880,
      "d": 365,
      "v": 127
    },
    {
      "midi": 68,
      "hit": false,
      "t": 242880,
      "d": 237,
      "v": 127
    },
    {
      "midi": 67,
      "hit": false,
      "t": 243120,
      "d": 227,
      "v": 127
    },
    {
      "midi": 53,
      "hit": false,
      "t": 243360,
      "d": 330,
      "v": 127
    },
    {
      "midi": 62,
      "hit": false,
      "t": 243360,
      "d": 335,
      "v": 127
    },
    {
      "midi": 58,
      "hit": false,
      "t": 243360,
      "d": 337,
      "v": 127
    },
    {
      "midi": 46,
      "hit": false,
      "t": 243360,
      "d": 357,
      "v": 127
    },
    {
      "midi": 72,
      "hit": false,
      "t": 243360,
      "d": 237,
      "v": 127
    },
    {
      "midi": 70,
      "hit": false,
      "t": 243600,
      "d": 227,
      "v": 127
    },
    {
      "midi": 51,
      "hit": false,
      "t": 243840,
      "d": 253,
      "v": 127
    },
    {
      "midi": 63,
      "hit": false,
      "t": 243840,
      "d": 460,
      "v": 127
    },
    {
      "midi": 55,
      "hit": false,
      "t": 244080,
      "d": 67,
      "v": 127
    },
    {
      "midi": 58,
      "hit": false,
      "t": 244080,
      "d": 70,
      "v": 127
    },
    {
      "midi": 63,
      "hit": false,
      "t": 244080,
      "d": 75,
      "v": 127
    },
    {
      "midi": 51,
      "hit": false,
      "t": 244320,
      "d": 95,
      "v": 127
    },
    {
      "midi": 55,
      "hit": false,
      "t": 244440,
      "d": 80,
      "v": 127
    },
    {
      "midi": 58,
      "hit": false,
      "t": 244440,
      "d": 82,
      "v": 127
    },
    {
      "midi": 63,
      "hit": false,
      "t": 244440,
      "d": 95,
      "v": 127
    },
    {
      "midi": 51,
      "hit": false,
      "t": 244680,
      "d": 72,
      "v": 127
    },
    {
      "midi": 53,
      "hit": false,
      "t": 244800,
      "d": 77,
      "v": 127
    },
    {
      "midi": 58,
      "hit": false,
      "t": 244800,
      "d": 87,
      "v": 127
    },
    {
      "midi": 46,
      "hit": false,
      "t": 244800,
      "d": 97,
      "v": 127
    },
    {
      "midi": 62,
      "hit": false,
      "t": 244800,
      "d": 102,
      "v": 127
    },
    {
      "midi": 53,
      "hit": false,
      "t": 245160,
      "d": 80,
      "v": 127
    },
    {
      "midi": 46,
      "hit": false,
      "t": 245160,
      "d": 90,
      "v": 127
    },
    {
      "midi": 58,
      "hit": false,
      "t": 245160,
      "d": 90,
      "v": 127
    },
    {
      "midi": 62,
      "hit": false,
      "t": 245160,
      "d": 92,
      "v": 127
    },
    {
      "midi": 53,
      "hit": false,
      "t": 245520,
      "d": 965,
      "v": 127
    },
    {
      "midi": 56,
      "hit": false,
      "t": 245520,
      "d": 965,
      "v": 127
    },
    {
      "midi": 60,
      "hit": false,
      "t": 245520,
      "d": 968,
      "v": 127
    },
    {
      "midi": 44,
      "hit": false,
      "t": 245520,
      "d": 983,
      "v": 127
    },
    {
      "midi": 51,
      "hit": false,
      "t": 246720,
      "d": 378,
      "v": 127
    },
    {
      "midi": 56,
      "hit": false,
      "t": 246720,
      "d": 405,
      "v": 127
    },
    {
      "midi": 60,
      "hit": false,
      "t": 246720,
      "d": 405,
      "v": 127
    },
    {
      "midi": 44,
      "hit": false,
      "t": 246720,
      "d": 435,
      "v": 127
    },
    {
      "midi": 53,
      "hit": false,
      "t": 247200,
      "d": 375,
      "v": 127
    },
    {
      "midi": 62,
      "hit": false,
      "t": 247200,
      "d": 378,
      "v": 127
    },
    {
      "midi": 58,
      "hit": false,
      "t": 247200,
      "d": 385,
      "v": 127
    },
    {
      "midi": 46,
      "hit": false,
      "t": 247200,
      "d": 403,
      "v": 127
    }
  ]
}