{
  "jsonPath": "Rock/Italian Indie Pop/Niccolo Fabi/es-no-es.json",
  "path": "Rock\\Italian Indie Pop\\Niccolo Fabi\\Es no es.mid",
  "name": "Es no es",
  "difficulty": "Intermediate",
  "bpm": 95.00014250021376,
  "notes": [
    {
      "midi": 63,
      "hit": false,
      "t": 3008.9255625,
      "d": 2562.4974375000006,
      "v": 105
    },
    {
      "midi": 62,
      "hit": false,
      "t": 5593.744406250001,
      "d": 3191.961093750001,
      "v": 81
    },
    {
      "midi": 63,
      "hit": false,
      "t": 6428.5650000000005,
      "d": 2325.890531250001,
      "v": 90
    },
    {
      "midi": 65,
      "hit": false,
      "t": 9004.455281250002,
      "d": 3249.9967500000002,
      "v": 106
    },
    {
      "midi": 67,
      "hit": false,
      "t": 9861.597281250002,
      "d": 2392.8547500000004,
      "v": 96
    },
    {
      "midi": 62,
      "hit": false,
      "t": 12433.023281250003,
      "d": 839.2848749999994,
      "v": 80
    },
    {
      "midi": 70,
      "hit": false,
      "t": 12433.023281250003,
      "d": 857.1419999999998,
      "v": 107
    },
    {
      "midi": 60,
      "hit": false,
      "t": 13290.165281250003,
      "d": 2406.2475937500003,
      "v": 80
    },
    {
      "midi": 68,
      "hit": false,
      "t": 13290.165281250003,
      "d": 2406.2475937500003,
      "v": 109
    },
    {
      "midi": 67,
      "hit": false,
      "t": 15857.127000000004,
      "d": 3196.425374999999,
      "v": 98
    },
    {
      "midi": 63,
      "hit": false,
      "t": 16705.340437500003,
      "d": 2339.283374999999,
      "v": 97
    },
    {
      "midi": 62,
      "hit": false,
      "t": 19290.159281250002,
      "d": 3174.1039687500015,
      "v": 81
    },
    {
      "midi": 63,
      "hit": false,
      "t": 20133.908437500002,
      "d": 2334.8190937500003,
      "v": 90
    },
    {
      "midi": 65,
      "hit": false,
      "t": 22705.3344375,
      "d": 3249.996750000002,
      "v": 106
    },
    {
      "midi": 67,
      "hit": false,
      "t": 23558.012156250003,
      "d": 2406.247593750002,
      "v": 96
    },
    {
      "midi": 62,
      "hit": false,
      "t": 26133.902437500004,
      "d": 848.2134374999987,
      "v": 80
    },
    {
      "midi": 70,
      "hit": false,
      "t": 26133.902437500004,
      "d": 857.1419999999998,
      "v": 107
    },
    {
      "midi": 60,
      "hit": false,
      "t": 26991.044437500004,
      "d": 2410.711875000001,
      "v": 80
    },
    {
      "midi": 68,
      "hit": false,
      "t": 26991.044437500004,
      "d": 2410.711875000001,
      "v": 109
    },
    {
      "midi": 59,
      "hit": false,
      "t": 29575.863281250004,
      "d": 1272.3201562499999,
      "v": 98
    },
    {
      "midi": 67,
      "hit": false,
      "t": 56575.836281250005,
      "d": 834.8205937500024,
      "v": 84
    },
    {
      "midi": 65,
      "hit": false,
      "t": 57437.44256250001,
      "d": 767.856375000003,
      "v": 82
    },
    {
      "midi": 72,
      "hit": false,
      "t": 70290.10828125001,
      "d": 1209.8202187499992,
      "v": 81
    },
    {
      "midi": 71,
      "hit": false,
      "t": 70932.96478125,
      "d": 620.5350937500043,
      "v": 74
    },
    {
      "midi": 67,
      "hit": false,
      "t": 71557.96415625,
      "d": 437.49956250000105,
      "v": 100
    },
    {
      "midi": 69,
      "hit": false,
      "t": 71995.46371875,
      "d": 964.2847500000062,
      "v": 82
    },
    {
      "midi": 64,
      "hit": false,
      "t": 72008.8565625,
      "d": 540.178031250005,
      "v": 50
    },
    {
      "midi": 72,
      "hit": false,
      "t": 72651.71306250001,
      "d": 540.178031250005,
      "v": 66
    },
    {
      "midi": 64,
      "hit": false,
      "t": 72669.57018750001,
      "d": 513.3923437500052,
      "v": 56
    },
    {
      "midi": 69,
      "hit": false,
      "t": 73285.64100000002,
      "d": 325.89253125000687,
      "v": 71
    },
    {
      "midi": 64,
      "hit": false,
      "t": 73299.03384375002,
      "d": 299.1068437500071,
      "v": 52
    },
    {
      "midi": 71,
      "hit": false,
      "t": 73727.60484375003,
      "d": 477.6780937500007,
      "v": 74
    },
    {
      "midi": 67,
      "hit": false,
      "t": 73727.60484375003,
      "d": 499.99950000000536,
      "v": 59
    },
    {
      "midi": 74,
      "hit": false,
      "t": 74321.35425000003,
      "d": 491.0709375000006,
      "v": 69
    },
    {
      "midi": 67,
      "hit": false,
      "t": 74325.81853125003,
      "d": 473.2138125000056,
      "v": 60
    },
    {
      "midi": 71,
      "hit": false,
      "t": 74955.28218750004,
      "d": 272.3211562499928,
      "v": 78
    },
    {
      "midi": 67,
      "hit": false,
      "t": 74959.74646875003,
      "d": 290.1782812500023,
      "v": 61
    },
    {
      "midi": 69,
      "hit": false,
      "t": 75419.56743750004,
      "d": 1089.2846250000002,
      "v": 75
    },
    {
      "midi": 72,
      "hit": false,
      "t": 75432.96028125004,
      "d": 1075.8917812500003,
      "v": 68
    },
    {
      "midi": 65,
      "hit": false,
      "t": 75437.42456250003,
      "d": 392.8567500000063,
      "v": 53
    },
    {
      "midi": 65,
      "hit": false,
      "t": 76075.81678125003,
      "d": 1040.1775312500104,
      "v": 66
    },
    {
      "midi": 69,
      "hit": false,
      "t": 76678.49475000004,
      "d": 383.9281875000015,
      "v": 53
    },
    {
      "midi": 72,
      "hit": false,
      "t": 76682.95903125004,
      "d": 397.3210312500014,
      "v": 55
    },
    {
      "midi": 67,
      "hit": false,
      "t": 77151.70856250005,
      "d": 455.35668749999604,
      "v": 51
    },
    {
      "midi": 71,
      "hit": false,
      "t": 77151.70856250005,
      "d": 633.9279375000042,
      "v": 59
    },
    {
      "midi": 74,
      "hit": false,
      "t": 77151.70856250005,
      "d": 1660.7126250000147,
      "v": 58
    },
    {
      "midi": 67,
      "hit": false,
      "t": 77776.70793750005,
      "d": 999.9990000000107,
      "v": 56
    },
    {
      "midi": 71,
      "hit": false,
      "t": 78406.17159375006,
      "d": 352.67821875000664,
      "v": 65
    },
    {
      "midi": 67,
      "hit": false,
      "t": 82294.56056250006,
      "d": 531.2494687500002,
      "v": 69
    },
    {
      "midi": 59,
      "hit": false,
      "t": 82303.48912500007,
      "d": 508.9280624999956,
      "v": 57
    },
    {
      "midi": 64,
      "hit": false,
      "t": 82303.48912500007,
      "d": 535.7137499999953,
      "v": 64
    },
    {
      "midi": 64,
      "hit": false,
      "t": 82964.20275000005,
      "d": 526.7851875000051,
      "v": 66
    },
    {
      "midi": 71,
      "hit": false,
      "t": 82968.66703125005,
      "d": 513.3923437500052,
      "v": 58
    },
    {
      "midi": 59,
      "hit": false,
      "t": 82977.59559375005,
      "d": 491.0709375000006,
      "v": 55
    },
    {
      "midi": 64,
      "hit": false,
      "t": 83589.20212500005,
      "d": 308.0354062499973,
      "v": 60
    },
    {
      "midi": 59,
      "hit": false,
      "t": 83598.13068750006,
      "d": 294.64256249999744,
      "v": 53
    },
    {
      "midi": 67,
      "hit": false,
      "t": 83598.13068750006,
      "d": 294.64256249999744,
      "v": 56
    },
    {
      "midi": 59,
      "hit": false,
      "t": 84044.55881250005,
      "d": 678.570749999999,
      "v": 55
    },
    {
      "midi": 64,
      "hit": false,
      "t": 84044.55881250005,
      "d": 691.9635937499988,
      "v": 59
    },
    {
      "midi": 71,
      "hit": false,
      "t": 84044.55881250005,
      "d": 705.3564374999987,
      "v": 67
    },
    {
      "midi": 64,
      "hit": false,
      "t": 84843.66515625005,
      "d": 785.713499999998,
      "v": 62
    },
    {
      "midi": 59,
      "hit": false,
      "t": 84843.66515625005,
      "d": 790.1777812499931,
      "v": 50
    },
    {
      "midi": 67,
      "hit": false,
      "t": 84857.05800000005,
      "d": 772.3206562499981,
      "v": 62
    },
    {
      "midi": 62,
      "hit": false,
      "t": 87879.37640625004,
      "d": 3191.9610937499965,
      "v": 81
    },
    {
      "midi": 63,
      "hit": false,
      "t": 88718.66128125004,
      "d": 2321.426250000004,
      "v": 90
    },
    {
      "midi": 65,
      "hit": false,
      "t": 91290.08728125003,
      "d": 3254.461031250001,
      "v": 106
    },
    {
      "midi": 67,
      "hit": false,
      "t": 92147.22928125004,
      "d": 2397.3190312499937,
      "v": 96
    },
    {
      "midi": 62,
      "hit": false,
      "t": 94718.65528125003,
      "d": 839.2848749999976,
      "v": 80
    },
    {
      "midi": 70,
      "hit": false,
      "t": 94718.65528125003,
      "d": 857.1419999999925,
      "v": 107
    },
    {
      "midi": 60,
      "hit": false,
      "t": 95575.79728125002,
      "d": 2406.2475937499985,
      "v": 80
    },
    {
      "midi": 68,
      "hit": false,
      "t": 95575.79728125002,
      "d": 2406.2475937499985,
      "v": 109
    },
    {
      "midi": 67,
      "hit": false,
      "t": 98147.22328125002,
      "d": 3187.4968125000014,
      "v": 98
    },
    {
      "midi": 63,
      "hit": false,
      "t": 98986.50815625001,
      "d": 2339.283374999999,
      "v": 97
    },
    {
      "midi": 62,
      "hit": false,
      "t": 101571.32700000002,
      "d": 3178.5682499999966,
      "v": 81
    },
    {
      "midi": 63,
      "hit": false,
      "t": 102419.54043750002,
      "d": 2339.283374999999,
      "v": 90
    },
    {
      "midi": 65,
      "hit": false,
      "t": 104990.96643750001,
      "d": 3249.9967500000057,
      "v": 106
    },
    {
      "midi": 67,
      "hit": false,
      "t": 105848.10843750002,
      "d": 2397.3190312499937,
      "v": 96
    },
    {
      "midi": 62,
      "hit": false,
      "t": 108419.53443750001,
      "d": 843.7491562500072,
      "v": 80
    },
    {
      "midi": 70,
      "hit": false,
      "t": 108419.53443750001,
      "d": 857.1420000000071,
      "v": 107
    },
    {
      "midi": 60,
      "hit": false,
      "t": 109276.67643750002,
      "d": 2410.7118749999936,
      "v": 80
    },
    {
      "midi": 68,
      "hit": false,
      "t": 109276.67643750002,
      "d": 2410.7118749999936,
      "v": 109
    },
    {
      "midi": 59,
      "hit": false,
      "t": 111861.49528125001,
      "d": 1272.3201562500035,
      "v": 98
    },
    {
      "midi": 55,
      "hit": false,
      "t": 113160.60112500002,
      "d": 1522.3199062500062,
      "v": 56
    },
    {
      "midi": 60,
      "hit": false,
      "t": 113160.60112500002,
      "d": 1522.3199062500062,
      "v": 71
    },
    {
      "midi": 58,
      "hit": false,
      "t": 114812.38518750003,
      "d": 1486.6056562500016,
      "v": 71
    },
    {
      "midi": 62,
      "hit": false,
      "t": 114821.31375000003,
      "d": 1477.6770937499969,
      "v": 74
    },
    {
      "midi": 56,
      "hit": false,
      "t": 116580.24056250002,
      "d": 1633.9269375000003,
      "v": 54
    },
    {
      "midi": 63,
      "hit": false,
      "t": 116580.24056250002,
      "d": 1741.0696874999994,
      "v": 47
    },
    {
      "midi": 65,
      "hit": false,
      "t": 118705.23843750003,
      "d": 892.8562499999971,
      "v": 92
    },
    {
      "midi": 67,
      "hit": false,
      "t": 119598.09468750002,
      "d": 1915.176656249998,
      "v": 81
    },
    {
      "midi": 65,
      "hit": false,
      "t": 125575.76728125002,
      "d": 843.7491562500072,
      "v": 91
    },
    {
      "midi": 67,
      "hit": false,
      "t": 126437.37356250003,
      "d": 812.4991874999978,
      "v": 84
    },
    {
      "midi": 60,
      "hit": false,
      "t": 126888.26596875003,
      "d": 1325.891531250003,
      "v": 73
    },
    {
      "midi": 63,
      "hit": false,
      "t": 128575.76428125003,
      "d": 1379.462906249988,
      "v": 62
    },
    {
      "midi": 70,
      "hit": false,
      "t": 128575.76428125003,
      "d": 1401.7843124999927,
      "v": 57
    },
    {
      "midi": 58,
      "hit": false,
      "t": 128580.22856250002,
      "d": 1406.2485937500023,
      "v": 64
    },
    {
      "midi": 56,
      "hit": false,
      "t": 130290.04828125003,
      "d": 1651.7840624999953,
      "v": 79
    },
    {
      "midi": 63,
      "hit": false,
      "t": 130294.51256250002,
      "d": 1647.3197812500002,
      "v": 59
    },
    {
      "midi": 53,
      "hit": false,
      "t": 130298.97684375002,
      "d": 1642.8555000000051,
      "v": 63
    },
    {
      "midi": 65,
      "hit": false,
      "t": 132419.51043750002,
      "d": 830.3563124999928,
      "v": 79
    },
    {
      "midi": 67,
      "hit": false,
      "t": 133272.18815625002,
      "d": 1647.3197812500002,
      "v": 74
    },
    {
      "midi": 70,
      "hit": false,
      "t": 135406.11459375,
      "d": 1455.3556874999776,
      "v": 72
    },
    {
      "midi": 62,
      "hit": false,
      "t": 135415.04315625,
      "d": 1446.4271249999874,
      "v": 50
    },
    {
      "midi": 63,
      "hit": false,
      "t": 137142.72,
      "d": 1584.8198437500105,
      "v": 90
    },
    {
      "midi": 67,
      "hit": false,
      "t": 138857.00400000002,
      "d": 839.2848750000121,
      "v": 84
    },
    {
      "midi": 65,
      "hit": false,
      "t": 139723.07456250003,
      "d": 763.3920937500079,
      "v": 82
    },
    {
      "midi": 72,
      "hit": false,
      "t": 152571.27600000004,
      "d": 1205.3559374999895,
      "v": 81
    },
    {
      "midi": 71,
      "hit": false,
      "t": 153214.13250000004,
      "d": 611.6065312499995,
      "v": 74
    },
    {
      "midi": 67,
      "hit": false,
      "t": 153843.59615625005,
      "d": 437.4995624999865,
      "v": 100
    },
    {
      "midi": 69,
      "hit": false,
      "t": 154281.09571875003,
      "d": 973.2133125000109,
      "v": 82
    },
    {
      "midi": 64,
      "hit": false,
      "t": 154290.02428125002,
      "d": 540.1780312499905,
      "v": 50
    },
    {
      "midi": 72,
      "hit": false,
      "t": 154923.95221875003,
      "d": 549.1065937500389,
      "v": 66
    },
    {
      "midi": 64,
      "hit": false,
      "t": 154937.34506250004,
      "d": 517.8566250000149,
      "v": 56
    },
    {
      "midi": 64,
      "hit": false,
      "t": 155580.20156250006,
      "d": 294.64256249999744,
      "v": 52
    },
    {
      "midi": 69,
      "hit": false,
      "t": 155580.20156250006,
      "d": 308.0354062500119,
      "v": 71
    },
    {
      "midi": 71,
      "hit": false,
      "t": 155999.84400000007,
      "d": 491.07093749998603,
      "v": 74
    },
    {
      "midi": 67,
      "hit": false,
      "t": 156004.30828125007,
      "d": 499.99950000000536,
      "v": 59
    },
    {
      "midi": 67,
      "hit": false,
      "t": 156624.84337500008,
      "d": 473.2138125000056,
      "v": 60
    },
    {
      "midi": 74,
      "hit": false,
      "t": 156624.84337500008,
      "d": 486.60665625002,
      "v": 69
    },
    {
      "midi": 71,
      "hit": false,
      "t": 157258.77131250012,
      "d": 276.7854374999879,
      "v": 78
    },
    {
      "midi": 67,
      "hit": false,
      "t": 157267.6998750001,
      "d": 285.7140000000072,
      "v": 61
    },
    {
      "midi": 69,
      "hit": false,
      "t": 157700.73515625013,
      "d": 1089.2846250000002,
      "v": 75
    },
    {
      "midi": 72,
      "hit": false,
      "t": 157714.12800000014,
      "d": 1075.8917812499858,
      "v": 68
    },
    {
      "midi": 65,
      "hit": false,
      "t": 157723.05656250013,
      "d": 388.3924687500112,
      "v": 53
    },
    {
      "midi": 65,
      "hit": false,
      "t": 158356.98450000014,
      "d": 1035.7132500000007,
      "v": 66
    },
    {
      "midi": 69,
      "hit": false,
      "t": 158981.98387500012,
      "d": 383.92818749998696,
      "v": 53
    },
    {
      "midi": 72,
      "hit": false,
      "t": 158981.98387500012,
      "d": 397.3210312500014,
      "v": 55
    },
    {
      "midi": 71,
      "hit": false,
      "t": 159432.87628125015,
      "d": 638.3922187500284,
      "v": 59
    },
    {
      "midi": 74,
      "hit": false,
      "t": 159432.87628125015,
      "d": 1651.7840625000536,
      "v": 58
    },
    {
      "midi": 67,
      "hit": false,
      "t": 159437.34056250015,
      "d": 441.9638437500107,
      "v": 51
    },
    {
      "midi": 67,
      "hit": false,
      "t": 160057.87565625017,
      "d": 1013.3918437500251,
      "v": 56
    },
    {
      "midi": 71,
      "hit": false,
      "t": 160705.19643750018,
      "d": 348.213937499997,
      "v": 65
    },
    {
      "midi": 69,
      "hit": false,
      "t": 161133.7674375002,
      "d": 499.99950000000536,
      "v": 64
    },
    {
      "midi": 72,
      "hit": false,
      "t": 161133.7674375002,
      "d": 513.3923437500198,
      "v": 82
    },
    {
      "midi": 77,
      "hit": false,
      "t": 161133.7674375002,
      "d": 522.32090625001,
      "v": 66
    },
    {
      "midi": 69,
      "hit": false,
      "t": 161785.55250000022,
      "d": 540.1780312499905,
      "v": 63
    },
    {
      "midi": 72,
      "hit": false,
      "t": 161785.55250000022,
      "d": 540.1780312499905,
      "v": 74
    },
    {
      "midi": 77,
      "hit": false,
      "t": 161785.55250000022,
      "d": 571.4279999999853,
      "v": 71
    },
    {
      "midi": 77,
      "hit": false,
      "t": 162432.8732812502,
      "d": 258.92831250000745,
      "v": 48
    },
    {
      "midi": 72,
      "hit": false,
      "t": 162432.8732812502,
      "d": 272.3211562500219,
      "v": 56
    },
    {
      "midi": 69,
      "hit": false,
      "t": 162432.8732812502,
      "d": 281.2497187500121,
      "v": 49
    },
    {
      "midi": 69,
      "hit": false,
      "t": 162856.9800000002,
      "d": 513.3923437499907,
      "v": 56
    },
    {
      "midi": 72,
      "hit": false,
      "t": 162856.9800000002,
      "d": 540.1780312499905,
      "v": 59
    },
    {
      "midi": 76,
      "hit": false,
      "t": 162861.4442812502,
      "d": 504.46378125000047,
      "v": 64
    },
    {
      "midi": 74,
      "hit": false,
      "t": 163499.8365000002,
      "d": 598.2136874999851,
      "v": 58
    },
    {
      "midi": 72,
      "hit": false,
      "t": 163499.8365000002,
      "d": 964.2847499999625,
      "v": 50
    },
    {
      "midi": 69,
      "hit": false,
      "t": 163504.3007812502,
      "d": 508.9280624999956,
      "v": 55
    },
    {
      "midi": 69,
      "hit": false,
      "t": 164133.76443750018,
      "d": 397.3210312500014,
      "v": 62
    },
    {
      "midi": 67,
      "hit": false,
      "t": 164575.7282812502,
      "d": 526.7851875000051,
      "v": 69
    },
    {
      "midi": 59,
      "hit": false,
      "t": 164580.1925625002,
      "d": 504.46378125000047,
      "v": 57
    },
    {
      "midi": 64,
      "hit": false,
      "t": 164580.1925625002,
      "d": 535.7137500000244,
      "v": 64
    },
    {
      "midi": 71,
      "hit": false,
      "t": 165231.9776250002,
      "d": 504.46378125000047,
      "v": 58
    },
    {
      "midi": 64,
      "hit": false,
      "t": 165231.9776250002,
      "d": 517.8566250000149,
      "v": 66
    },
    {
      "midi": 59,
      "hit": false,
      "t": 165240.9061875002,
      "d": 477.6780937500007,
      "v": 55
    },
    {
      "midi": 59,
      "hit": false,
      "t": 165865.9055625002,
      "d": 294.64256249999744,
      "v": 53
    },
    {
      "midi": 67,
      "hit": false,
      "t": 165865.9055625002,
      "d": 294.64256249999744,
      "v": 56
    },
    {
      "midi": 64,
      "hit": false,
      "t": 165865.9055625002,
      "d": 312.499687500007,
      "v": 60
    },
    {
      "midi": 59,
      "hit": false,
      "t": 166303.40512500022,
      "d": 687.4993125000037,
      "v": 55
    },
    {
      "midi": 64,
      "hit": false,
      "t": 166303.40512500022,
      "d": 705.3564375000133,
      "v": 59
    },
    {
      "midi": 71,
      "hit": false,
      "t": 166303.40512500022,
      "d": 705.3564375000133,
      "v": 67
    },
    {
      "midi": 59,
      "hit": false,
      "t": 167133.76143750024,
      "d": 790.1777812500368,
      "v": 50
    },
    {
      "midi": 64,
      "hit": false,
      "t": 167133.76143750024,
      "d": 790.1777812500368,
      "v": 62
    },
    {
      "midi": 67,
      "hit": false,
      "t": 167147.15428125026,
      "d": 758.9278125000128,
      "v": 62
    },
    {
      "midi": 63,
      "hit": false,
      "t": 168004.29628125028,
      "d": 2138.3907187499863,
      "v": 105
    },
    {
      "midi": 62,
      "hit": false,
      "t": 170165.00840625027,
      "d": 3191.9610937500256,
      "v": 81
    },
    {
      "midi": 63,
      "hit": false,
      "t": 171004.29328125028,
      "d": 2325.8905312500137,
      "v": 90
    },
    {
      "midi": 65,
      "hit": false,
      "t": 173575.7192812503,
      "d": 3254.4610312499863,
      "v": 106
    },
    {
      "midi": 67,
      "hit": false,
      "t": 174432.86128125028,
      "d": 2397.3190312499937,
      "v": 96
    },
    {
      "midi": 62,
      "hit": false,
      "t": 176999.82300000027,
      "d": 848.2134375000023,
      "v": 80
    },
    {
      "midi": 70,
      "hit": false,
      "t": 176999.82300000027,
      "d": 866.0705625000119,
      "v": 107
    },
    {
      "midi": 60,
      "hit": false,
      "t": 177861.42928125028,
      "d": 2129.462156249996,
      "v": 80
    },
    {
      "midi": 68,
      "hit": false,
      "t": 177861.42928125028,
      "d": 2129.462156249996,
      "v": 109
    },
    {
      "midi": 79,
      "hit": false,
      "t": 180004.2842812503,
      "d": 611.6065312499995,
      "v": 92
    },
    {
      "midi": 75,
      "hit": false,
      "t": 180656.0693437503,
      "d": 120.5355937500135,
      "v": 84
    },
    {
      "midi": 77,
      "hit": false,
      "t": 180874.81912500033,
      "d": 232.14262499997858,
      "v": 96
    },
    {
      "midi": 75,
      "hit": false,
      "t": 181071.24750000032,
      "d": 147.32128124998417,
      "v": 93
    },
    {
      "midi": 72,
      "hit": false,
      "t": 181276.6044375003,
      "d": 419.64243750000605,
      "v": 72
    },
    {
      "midi": 63,
      "hit": false,
      "t": 181276.6044375003,
      "d": 2339.283374999999,
      "v": 97
    },
    {
      "midi": 65,
      "hit": false,
      "t": 182142.6750000003,
      "d": 1098.2131874999905,
      "v": 98
    },
    {
      "midi": 62,
      "hit": false,
      "t": 183861.4232812503,
      "d": 3174.103968749987,
      "v": 81
    },
    {
      "midi": 70,
      "hit": false,
      "t": 184026.60168750028,
      "d": 223.21406249998836,
      "v": 62
    },
    {
      "midi": 74,
      "hit": false,
      "t": 184272.13715625028,
      "d": 267.8568749999977,
      "v": 104
    },
    {
      "midi": 74,
      "hit": false,
      "t": 184651.60106250027,
      "d": 142.85699999998906,
      "v": 85
    },
    {
      "midi": 63,
      "hit": false,
      "t": 184705.17243750027,
      "d": 2339.283374999999,
      "v": 90
    },
    {
      "midi": 74,
      "hit": false,
      "t": 184941.77934375027,
      "d": 267.8568749999977,
      "v": 92
    },
    {
      "midi": 72,
      "hit": false,
      "t": 185289.99328125027,
      "d": 999.9990000000107,
      "v": 79
    },
    {
      "midi": 65,
      "hit": false,
      "t": 187276.59843750027,
      "d": 3249.996749999991,
      "v": 106
    },
    {
      "midi": 67,
      "hit": false,
      "t": 188129.27615625027,
      "d": 2406.247593749984,
      "v": 96
    },
    {
      "midi": 62,
      "hit": false,
      "t": 190700.70215625025,
      "d": 852.6777187499974,
      "v": 80
    },
    {
      "midi": 70,
      "hit": false,
      "t": 190700.70215625025,
      "d": 861.6062812499877,
      "v": 107
    },
    {
      "midi": 60,
      "hit": false,
      "t": 191562.30843750024,
      "d": 2410.711875000008,
      "v": 80
    },
    {
      "midi": 68,
      "hit": false,
      "t": 191562.30843750024,
      "d": 2410.711875000008,
      "v": 109
    },
    {
      "midi": 59,
      "hit": false,
      "t": 194147.12728125026,
      "d": 1276.7844374999986,
      "v": 98
    },
    {
      "midi": 62,
      "hit": false,
      "t": 222883.70568750025,
      "d": 406.2495937499916,
      "v": 57
    },
    {
      "midi": 66,
      "hit": false,
      "t": 222883.70568750025,
      "d": 638.3922187499993,
      "v": 69
    },
    {
      "midi": 71,
      "hit": false,
      "t": 222883.70568750025,
      "d": 1553.5698749999865,
      "v": 59
    },
    {
      "midi": 47,
      "hit": false,
      "t": 222888.16996875024,
      "d": 1495.5342187499919,
      "v": 70
    },
    {
      "midi": 62,
      "hit": false,
      "t": 223499.77650000024,
      "d": 955.3561875000014,
      "v": 49
    },
    {
      "midi": 66,
      "hit": false,
      "t": 224133.70443750024,
      "d": 321.4282499999972,
      "v": 93
    },
    {
      "midi": 71,
      "hit": false,
      "t": 224566.73971875024,
      "d": 1589.2841250000056,
      "v": 43
    },
    {
      "midi": 66,
      "hit": false,
      "t": 224566.73971875024,
      "d": 1602.67696875002,
      "v": 60
    },
    {
      "midi": 45,
      "hit": false,
      "t": 224571.20400000023,
      "d": 1513.3913437500014,
      "v": 63
    },
    {
      "midi": 62,
      "hit": false,
      "t": 224580.13256250022,
      "d": 638.3922187499993,
      "v": 55
    },
    {
      "midi": 62,
      "hit": false,
      "t": 225419.41743750023,
      "d": 776.7849375000224,
      "v": 76
    },
    {
      "midi": 59,
      "hit": false,
      "t": 226263.16659375027,
      "d": 491.07093750001513,
      "v": 67
    },
    {
      "midi": 62,
      "hit": false,
      "t": 226263.16659375027,
      "d": 1468.7485312500212,
      "v": 82
    },
    {
      "midi": 67,
      "hit": false,
      "t": 226276.55943750028,
      "d": 1535.712750000006,
      "v": 59
    },
    {
      "midi": 43,
      "hit": false,
      "t": 226289.9522812503,
      "d": 1665.1769062499807,
      "v": 68
    },
    {
      "midi": 59,
      "hit": false,
      "t": 226906.0230937503,
      "d": 482.1423749999958,
      "v": 68
    },
    {
      "midi": 59,
      "hit": false,
      "t": 227553.34387500028,
      "d": 249.99975000001723,
      "v": 74
    },
    {
      "midi": 57,
      "hit": false,
      "t": 227986.37915625027,
      "d": 687.4993125000037,
      "v": 71
    },
    {
      "midi": 61,
      "hit": false,
      "t": 227986.37915625027,
      "d": 1624.9983750000247,
      "v": 55
    },
    {
      "midi": 66,
      "hit": false,
      "t": 227990.84343750027,
      "d": 1580.3555625000154,
      "v": 55
    },
    {
      "midi": 42,
      "hit": false,
      "t": 228004.23628125028,
      "d": 1607.1412500000151,
      "v": 58
    },
    {
      "midi": 57,
      "hit": false,
      "t": 228839.05687500027,
      "d": 772.3206562500272,
      "v": 76
    },
    {
      "midi": 40,
      "hit": false,
      "t": 229696.1988750003,
      "d": 3374.9966249999125,
      "v": 76
    },
    {
      "midi": 67,
      "hit": false,
      "t": 229705.12743750028,
      "d": 477.6780937499716,
      "v": 85
    },
    {
      "midi": 64,
      "hit": false,
      "t": 229714.05600000027,
      "d": 281.249718749983,
      "v": 74
    },
    {
      "midi": 74,
      "hit": false,
      "t": 229722.98456250026,
      "d": 794.6420624999737,
      "v": 73
    },
    {
      "midi": 64,
      "hit": false,
      "t": 230120.30559375026,
      "d": 459.82096874996205,
      "v": 58
    },
    {
      "midi": 67,
      "hit": false,
      "t": 230347.98393750025,
      "d": 281.249718749983,
      "v": 76
    },
    {
      "midi": 67,
      "hit": false,
      "t": 230736.37640625023,
      "d": 299.10684375002165,
      "v": 68
    },
    {
      "midi": 64,
      "hit": false,
      "t": 230745.30496875022,
      "d": 272.3211562500219,
      "v": 56
    },
    {
      "midi": 74,
      "hit": false,
      "t": 230758.69781250024,
      "d": 258.92831250000745,
      "v": 78
    },
    {
      "midi": 64,
      "hit": false,
      "t": 231169.41168750025,
      "d": 544.6423124999856,
      "v": 72
    },
    {
      "midi": 67,
      "hit": false,
      "t": 231178.34025000024,
      "d": 879.4634062499972,
      "v": 96
    },
    {
      "midi": 74,
      "hit": false,
      "t": 231178.34025000024,
      "d": 1933.0337812499492,
      "v": 76
    },
    {
      "midi": 64,
      "hit": false,
      "t": 231834.58959375025,
      "d": 763.3920937499788,
      "v": 75
    },
    {
      "midi": 67,
      "hit": false,
      "t": 232276.55343750023,
      "d": 803.5706249999639,
      "v": 79
    },
    {
      "midi": 64,
      "hit": false,
      "t": 232714.05300000022,
      "d": 357.1424999999872,
      "v": 75
    },
    {
      "midi": 64,
      "hit": false,
      "t": 233133.6954375002,
      "d": 254.46403125001234,
      "v": 64
    },
    {
      "midi": 69,
      "hit": false,
      "t": 233133.6954375002,
      "d": 392.8567500000063,
      "v": 76
    },
    {
      "midi": 73,
      "hit": false,
      "t": 233133.6954375002,
      "d": 763.392093750037,
      "v": 77
    },
    {
      "midi": 42,
      "hit": false,
      "t": 233133.6954375002,
      "d": 3290.1752812500345,
      "v": 93
    },
    {
      "midi": 64,
      "hit": false,
      "t": 233539.94503125022,
      "d": 508.9280625000247,
      "v": 52
    },
    {
      "midi": 69,
      "hit": false,
      "t": 233767.62337500023,
      "d": 312.499687500007,
      "v": 59
    },
    {
      "midi": 64,
      "hit": false,
      "t": 234187.26581250023,
      "d": 245.53546874999302,
      "v": 67
    },
    {
      "midi": 69,
      "hit": false,
      "t": 234187.26581250023,
      "d": 245.53546874999302,
      "v": 73
    },
    {
      "midi": 64,
      "hit": false,
      "t": 234615.83681250023,
      "d": 352.6782187499921,
      "v": 71
    },
    {
      "midi": 69,
      "hit": false,
      "t": 234615.83681250023,
      "d": 616.0708124999946,
      "v": 85
    },
    {
      "midi": 64,
      "hit": false,
      "t": 235053.33637500022,
      "d": 633.9279375000333,
      "v": 55
    },
    {
      "midi": 69,
      "hit": false,
      "t": 235272.08615625024,
      "d": 1174.1059687499946,
      "v": 61
    },
    {
      "midi": 73,
      "hit": false,
      "t": 235289.94328125025,
      "d": 1124.9988749999902,
      "v": 116
    },
    {
      "midi": 64,
      "hit": false,
      "t": 235718.51428125025,
      "d": 687.4993125000037,
      "v": 61
    },
    {
      "midi": 71,
      "hit": false,
      "t": 236562.26343750022,
      "d": 977.677593750006,
      "v": 82
    },
    {
      "midi": 66,
      "hit": false,
      "t": 236580.12056250023,
      "d": 535.7137499999953,
      "v": 50
    },
    {
      "midi": 66,
      "hit": false,
      "t": 237214.04850000024,
      "d": 517.8566249999858,
      "v": 56
    },
    {
      "midi": 74,
      "hit": false,
      "t": 237214.04850000024,
      "d": 535.7137499999953,
      "v": 66
    },
    {
      "midi": 66,
      "hit": false,
      "t": 237865.83356250022,
      "d": 290.1782812500023,
      "v": 52
    },
    {
      "midi": 71,
      "hit": false,
      "t": 237865.83356250022,
      "d": 312.499687500007,
      "v": 71
    },
    {
      "midi": 73,
      "hit": false,
      "t": 238289.94028125022,
      "d": 473.2138125000056,
      "v": 74
    },
    {
      "midi": 69,
      "hit": false,
      "t": 238289.94028125022,
      "d": 495.53521875001024,
      "v": 59
    },
    {
      "midi": 69,
      "hit": false,
      "t": 238919.40393750023,
      "d": 468.7495312500105,
      "v": 60
    },
    {
      "midi": 76,
      "hit": false,
      "t": 238919.40393750023,
      "d": 486.60665625002,
      "v": 69
    },
    {
      "midi": 73,
      "hit": false,
      "t": 239548.86759375024,
      "d": 281.249718749983,
      "v": 78
    },
    {
      "midi": 69,
      "hit": false,
      "t": 239557.79615625023,
      "d": 285.7140000000072,
      "v": 61
    },
    {
      "midi": 71,
      "hit": false,
      "t": 239995.29571875025,
      "d": 1084.8203437500051,
      "v": 75
    },
    {
      "midi": 67,
      "hit": false,
      "t": 240008.68856250026,
      "d": 392.8567500000063,
      "v": 53
    },
    {
      "midi": 74,
      "hit": false,
      "t": 240008.68856250026,
      "d": 1071.4274999999907,
      "v": 68
    },
    {
      "midi": 67,
      "hit": false,
      "t": 240642.61650000027,
      "d": 1031.2489687499765,
      "v": 66
    },
    {
      "midi": 71,
      "hit": false,
      "t": 241276.54443750024,
      "d": 379.46390624999185,
      "v": 53
    },
    {
      "midi": 74,
      "hit": false,
      "t": 241276.54443750024,
      "d": 392.8567500000063,
      "v": 55
    },
    {
      "midi": 73,
      "hit": false,
      "t": 241718.50828125025,
      "d": 629.46365624998,
      "v": 59
    },
    {
      "midi": 76,
      "hit": false,
      "t": 241718.50828125025,
      "d": 1656.2483437499905,
      "v": 58
    },
    {
      "midi": 69,
      "hit": false,
      "t": 241722.97256250025,
      "d": 433.0352812499914,
      "v": 51
    },
    {
      "midi": 69,
      "hit": false,
      "t": 242347.97193750023,
      "d": 1008.9275625000009,
      "v": 56
    },
    {
      "midi": 73,
      "hit": false,
      "t": 242990.82843750023,
      "d": 343.74965625000186,
      "v": 65
    },
    {
      "midi": 71,
      "hit": false,
      "t": 243419.39943750025,
      "d": 495.53521875001024,
      "v": 64
    },
    {
      "midi": 74,
      "hit": false,
      "t": 243419.39943750025,
      "d": 517.8566250000149,
      "v": 82
    },
    {
      "midi": 79,
      "hit": false,
      "t": 243419.39943750025,
      "d": 526.7851875000051,
      "v": 66
    },
    {
      "midi": 71,
      "hit": false,
      "t": 244071.18450000026,
      "d": 535.7137499999953,
      "v": 63
    },
    {
      "midi": 74,
      "hit": false,
      "t": 244071.18450000026,
      "d": 540.1780312499905,
      "v": 74
    },
    {
      "midi": 79,
      "hit": false,
      "t": 244071.18450000026,
      "d": 571.4279999999853,
      "v": 71
    },
    {
      "midi": 79,
      "hit": false,
      "t": 244722.96956250025,
      "d": 258.92831250000745,
      "v": 48
    },
    {
      "midi": 71,
      "hit": false,
      "t": 244722.96956250025,
      "d": 263.39259375000256,
      "v": 49
    },
    {
      "midi": 74,
      "hit": false,
      "t": 244722.96956250025,
      "d": 263.39259375000256,
      "v": 56
    },
    {
      "midi": 74,
      "hit": false,
      "t": 245147.07628125025,
      "d": 531.2494687500002,
      "v": 59
    },
    {
      "midi": 78,
      "hit": false,
      "t": 245151.54056250025,
      "d": 495.53521875001024,
      "v": 64
    },
    {
      "midi": 71,
      "hit": false,
      "t": 245151.54056250025,
      "d": 504.46378125000047,
      "v": 56
    },
    {
      "midi": 71,
      "hit": false,
      "t": 245789.93278125025,
      "d": 513.3923437499907,
      "v": 55
    },
    {
      "midi": 76,
      "hit": false,
      "t": 245789.93278125025,
      "d": 593.74940624999,
      "v": 58
    },
    {
      "midi": 74,
      "hit": false,
      "t": 245789.93278125025,
      "d": 946.4276249999821,
      "v": 50
    },
    {
      "midi": 71,
      "hit": false,
      "t": 246419.39643750023,
      "d": 397.3210312500014,
      "v": 62
    },
    {
      "midi": 61,
      "hit": false,
      "t": 246865.82456250023,
      "d": 495.53521875001024,
      "v": 57
    },
    {
      "midi": 66,
      "hit": false,
      "t": 246865.82456250023,
      "d": 526.7851875000051,
      "v": 64
    },
    {
      "midi": 69,
      "hit": false,
      "t": 246865.82456250023,
      "d": 526.7851875000051,
      "v": 69
    },
    {
      "midi": 61,
      "hit": false,
      "t": 247508.68106250023,
      "d": 491.07093749998603,
      "v": 55
    },
    {
      "midi": 73,
      "hit": false,
      "t": 247508.68106250023,
      "d": 495.53521874998114,
      "v": 58
    },
    {
      "midi": 66,
      "hit": false,
      "t": 247508.68106250023,
      "d": 517.8566249999858,
      "v": 66
    },
    {
      "midi": 61,
      "hit": false,
      "t": 248151.53756250022,
      "d": 285.7140000000072,
      "v": 53
    },
    {
      "midi": 69,
      "hit": false,
      "t": 248151.53756250022,
      "d": 285.7140000000072,
      "v": 56
    },
    {
      "midi": 66,
      "hit": false,
      "t": 248151.53756250022,
      "d": 299.10684375002165,
      "v": 60
    },
    {
      "midi": 61,
      "hit": false,
      "t": 248580.10856250025,
      "d": 683.0350312500086,
      "v": 55
    },
    {
      "midi": 66,
      "hit": false,
      "t": 248580.10856250025,
      "d": 696.427875000023,
      "v": 59
    },
    {
      "midi": 73,
      "hit": false,
      "t": 248580.10856250025,
      "d": 696.427875000023,
      "v": 67
    },
    {
      "midi": 61,
      "hit": false,
      "t": 249419.39343750026,
      "d": 781.2492187499884,
      "v": 50
    },
    {
      "midi": 66,
      "hit": false,
      "t": 249419.39343750026,
      "d": 781.2492187499884,
      "v": 62
    },
    {
      "midi": 69,
      "hit": false,
      "t": 249428.32200000025,
      "d": 767.856375000003,
      "v": 62
    },
    {
      "midi": 62,
      "hit": false,
      "t": 250303.32112500025,
      "d": 415.17815625001094,
      "v": 57
    },
    {
      "midi": 66,
      "hit": false,
      "t": 250303.32112500025,
      "d": 651.7850625000137,
      "v": 69
    },
    {
      "midi": 71,
      "hit": false,
      "t": 250303.32112500025,
      "d": 1562.498437500035,
      "v": 59
    },
    {
      "midi": 47,
      "hit": false,
      "t": 250321.17825000026,
      "d": 1495.534218750021,
      "v": 70
    },
    {
      "midi": 62,
      "hit": false,
      "t": 250928.32050000026,
      "d": 955.3561875000305,
      "v": 49
    },
    {
      "midi": 66,
      "hit": false,
      "t": 251557.78415625027,
      "d": 325.8925312500214,
      "v": 93
    },
    {
      "midi": 71,
      "hit": false,
      "t": 251990.8194375003,
      "d": 1593.7484062500007,
      "v": 43
    },
    {
      "midi": 66,
      "hit": false,
      "t": 251990.8194375003,
      "d": 1602.676968749991,
      "v": 60
    },
    {
      "midi": 62,
      "hit": false,
      "t": 252004.2122812503,
      "d": 642.8564999999944,
      "v": 55
    },
    {
      "midi": 45,
      "hit": false,
      "t": 252004.2122812503,
      "d": 1508.9270624999772,
      "v": 63
    },
    {
      "midi": 62,
      "hit": false,
      "t": 252843.4971562503,
      "d": 781.2492187499884,
      "v": 76
    },
    {
      "midi": 59,
      "hit": false,
      "t": 253696.1748750003,
      "d": 486.6066562499909,
      "v": 67
    },
    {
      "midi": 62,
      "hit": false,
      "t": 253696.1748750003,
      "d": 1464.284249999997,
      "v": 82
    },
    {
      "midi": 67,
      "hit": false,
      "t": 253705.10343750028,
      "d": 1535.712750000006,
      "v": 59
    },
    {
      "midi": 43,
      "hit": false,
      "t": 253718.4962812503,
      "d": 1665.1769062499807,
      "v": 68
    },
    {
      "midi": 59,
      "hit": false,
      "t": 254339.03137500028,
      "d": 482.1423749999958,
      "v": 68
    },
    {
      "midi": 59,
      "hit": false,
      "t": 254977.42359375028,
      "d": 254.46403125001234,
      "v": 74
    },
    {
      "midi": 57,
      "hit": false,
      "t": 255414.92315625027,
      "d": 687.4993125000037,
      "v": 71
    },
    {
      "midi": 66,
      "hit": false,
      "t": 255414.92315625027,
      "d": 1584.8198437500105,
      "v": 55
    },
    {
      "midi": 61,
      "hit": false,
      "t": 255414.92315625027,
      "d": 1629.4626562500198,
      "v": 55
    },
    {
      "midi": 42,
      "hit": false,
      "t": 255432.78028125028,
      "d": 1611.6055312500102,
      "v": 58
    },
    {
      "midi": 57,
      "hit": false,
      "t": 256263.13659375027,
      "d": 781.2492187500175,
      "v": 76
    },
    {
      "midi": 40,
      "hit": false,
      "t": 257120.2785937503,
      "d": 3379.460906250053,
      "v": 76
    },
    {
      "midi": 67,
      "hit": false,
      "t": 257133.6714375003,
      "d": 477.6780937500298,
      "v": 85
    },
    {
      "midi": 64,
      "hit": false,
      "t": 257147.06428125032,
      "d": 281.2497187500121,
      "v": 74
    },
    {
      "midi": 74,
      "hit": false,
      "t": 257147.06428125032,
      "d": 794.6420625000319,
      "v": 73
    },
    {
      "midi": 64,
      "hit": false,
      "t": 257548.84959375035,
      "d": 459.82096875002026,
      "v": 58
    },
    {
      "midi": 67,
      "hit": false,
      "t": 257767.59937500034,
      "d": 294.64256250002654,
      "v": 76
    },
    {
      "midi": 67,
      "hit": false,
      "t": 258164.92040625037,
      "d": 294.64256250002654,
      "v": 68
    },
    {
      "midi": 64,
      "hit": false,
      "t": 258178.31325000038,
      "d": 263.39259375000256,
      "v": 56
    },
    {
      "midi": 74,
      "hit": false,
      "t": 258187.24181250038,
      "d": 254.46403125001234,
      "v": 78
    },
    {
      "midi": 64,
      "hit": false,
      "t": 258597.9556875004,
      "d": 544.6423124999856,
      "v": 72
    },
    {
      "midi": 67,
      "hit": false,
      "t": 258606.88425000038,
      "d": 879.4634062499972,
      "v": 96
    },
    {
      "midi": 74,
      "hit": false,
      "t": 258606.88425000038,
      "d": 1937.4980624999735,
      "v": 76
    },
    {
      "midi": 64,
      "hit": false,
      "t": 259267.59787500039,
      "d": 758.9278124999837,
      "v": 75
    },
    {
      "midi": 67,
      "hit": false,
      "t": 259700.63315625038,
      "d": 803.5706249999639,
      "v": 79
    },
    {
      "midi": 64,
      "hit": false,
      "t": 260142.59700000036,
      "d": 357.1424999999872,
      "v": 75
    },
    {
      "midi": 64,
      "hit": false,
      "t": 260566.70371875036,
      "d": 254.46403125001234,
      "v": 64
    },
    {
      "midi": 69,
      "hit": false,
      "t": 260566.70371875036,
      "d": 383.92818750001607,
      "v": 76
    },
    {
      "midi": 73,
      "hit": false,
      "t": 260566.70371875036,
      "d": 763.3920937500079,
      "v": 77
    },
    {
      "midi": 42,
      "hit": false,
      "t": 260566.70371875036,
      "d": 3285.710999999981,
      "v": 93
    },
    {
      "midi": 64,
      "hit": false,
      "t": 260968.48903125038,
      "d": 513.3923437499907,
      "v": 52
    },
    {
      "midi": 69,
      "hit": false,
      "t": 261191.70309375037,
      "d": 312.499687500007,
      "v": 59
    },
    {
      "midi": 64,
      "hit": false,
      "t": 261611.34553125038,
      "d": 249.99974999998813,
      "v": 67
    },
    {
      "midi": 69,
      "hit": false,
      "t": 261611.34553125038,
      "d": 249.99974999998813,
      "v": 73
    },
    {
      "midi": 64,
      "hit": false,
      "t": 262044.38081250037,
      "d": 352.6782187499921,
      "v": 71
    },
    {
      "midi": 69,
      "hit": false,
      "t": 262044.38081250037,
      "d": 616.0708124999655,
      "v": 85
    },
    {
      "midi": 64,
      "hit": false,
      "t": 262481.88037500036,
      "d": 629.46365624998,
      "v": 55
    },
    {
      "midi": 69,
      "hit": false,
      "t": 262700.6301562503,
      "d": 1169.6416874999995,
      "v": 61
    },
    {
      "midi": 73,
      "hit": false,
      "t": 262722.9515625003,
      "d": 1124.9988749999902,
      "v": 116
    },
    {
      "midi": 64,
      "hit": false,
      "t": 263151.5225625003,
      "d": 683.0350312499795,
      "v": 61
    },
    {
      "midi": 71,
      "hit": false,
      "t": 263986.3431562503,
      "d": 982.1418749999721,
      "v": 82
    },
    {
      "midi": 66,
      "hit": false,
      "t": 264008.6645625003,
      "d": 531.2494687499711,
      "v": 50
    },
    {
      "midi": 66,
      "hit": false,
      "t": 264642.59250000026,
      "d": 513.3923437500489,
      "v": 56
    },
    {
      "midi": 74,
      "hit": false,
      "t": 264642.59250000026,
      "d": 531.2494687500293,
      "v": 66
    },
    {
      "midi": 66,
      "hit": false,
      "t": 265289.9132812503,
      "d": 294.64256250002654,
      "v": 52
    },
    {
      "midi": 71,
      "hit": false,
      "t": 265289.9132812503,
      "d": 312.499687500007,
      "v": 71
    },
    {
      "midi": 73,
      "hit": false,
      "t": 265718.4842812503,
      "d": 473.2138125000056,
      "v": 74
    },
    {
      "midi": 69,
      "hit": false,
      "t": 265718.4842812503,
      "d": 491.07093749998603,
      "v": 59
    },
    {
      "midi": 69,
      "hit": false,
      "t": 266347.94793750026,
      "d": 473.2138125000056,
      "v": 60
    },
    {
      "midi": 76,
      "hit": false,
      "t": 266347.94793750026,
      "d": 486.60665625002,
      "v": 69
    },
    {
      "midi": 73,
      "hit": false,
      "t": 266977.4115937503,
      "d": 276.7854374999879,
      "v": 78
    },
    {
      "midi": 69,
      "hit": false,
      "t": 266990.8044375003,
      "d": 281.2497187499539,
      "v": 61
    },
    {
      "midi": 71,
      "hit": false,
      "t": 267419.37543750025,
      "d": 1084.8203437500051,
      "v": 75
    },
    {
      "midi": 67,
      "hit": false,
      "t": 267428.30400000024,
      "d": 397.3210312500014,
      "v": 53
    },
    {
      "midi": 74,
      "hit": false,
      "t": 267428.30400000024,
      "d": 1075.891781250015,
      "v": 68
    },
    {
      "midi": 67,
      "hit": false,
      "t": 268071.16050000023,
      "d": 1031.2489687500056,
      "v": 66
    },
    {
      "midi": 71,
      "hit": false,
      "t": 268705.08843750024,
      "d": 379.46390625002095,
      "v": 53
    },
    {
      "midi": 74,
      "hit": false,
      "t": 268705.08843750024,
      "d": 388.3924687500112,
      "v": 55
    },
    {
      "midi": 73,
      "hit": false,
      "t": 269147.05228125025,
      "d": 629.4636562500382,
      "v": 59
    },
    {
      "midi": 76,
      "hit": false,
      "t": 269147.05228125025,
      "d": 1651.7840625000536,
      "v": 58
    },
    {
      "midi": 69,
      "hit": false,
      "t": 269151.51656250027,
      "d": 433.0352812500205,
      "v": 51
    },
    {
      "midi": 69,
      "hit": false,
      "t": 269776.5159375003,
      "d": 1008.9275625000009,
      "v": 56
    },
    {
      "midi": 73,
      "hit": false,
      "t": 270419.3724375003,
      "d": 348.2139375000261,
      "v": 65
    },
    {
      "midi": 71,
      "hit": false,
      "t": 270847.9434375003,
      "d": 495.53521875001024,
      "v": 64
    },
    {
      "midi": 74,
      "hit": false,
      "t": 270847.9434375003,
      "d": 513.3923437499907,
      "v": 82
    },
    {
      "midi": 79,
      "hit": false,
      "t": 270847.9434375003,
      "d": 522.3209062499809,
      "v": 66
    },
    {
      "midi": 71,
      "hit": false,
      "t": 271504.1927812503,
      "d": 531.2494687499711,
      "v": 63
    },
    {
      "midi": 74,
      "hit": false,
      "t": 271504.1927812503,
      "d": 535.7137499999953,
      "v": 74
    },
    {
      "midi": 79,
      "hit": false,
      "t": 271504.1927812503,
      "d": 566.9637187499902,
      "v": 71
    },
    {
      "midi": 79,
      "hit": false,
      "t": 272147.0492812503,
      "d": 258.92831250000745,
      "v": 48
    },
    {
      "midi": 74,
      "hit": false,
      "t": 272147.0492812503,
      "d": 272.3211562500219,
      "v": 56
    },
    {
      "midi": 71,
      "hit": false,
      "t": 272151.5135625003,
      "d": 267.8568749999977,
      "v": 49
    },
    {
      "midi": 74,
      "hit": false,
      "t": 272575.6202812503,
      "d": 526.7851875000051,
      "v": 59
    },
    {
      "midi": 78,
      "hit": false,
      "t": 272580.0845625003,
      "d": 495.53521875001024,
      "v": 64
    },
    {
      "midi": 71,
      "hit": false,
      "t": 272580.0845625003,
      "d": 504.46378125000047,
      "v": 56
    },
    {
      "midi": 71,
      "hit": false,
      "t": 273218.47678125027,
      "d": 508.9280625000247,
      "v": 55
    },
    {
      "midi": 76,
      "hit": false,
      "t": 273218.47678125027,
      "d": 589.2851250000531,
      "v": 58
    },
    {
      "midi": 74,
      "hit": false,
      "t": 273218.47678125027,
      "d": 950.8919062500936,
      "v": 50
    },
    {
      "midi": 71,
      "hit": false,
      "t": 273843.47615625034,
      "d": 406.2495937500498,
      "v": 62
    },
    {
      "midi": 69,
      "hit": false,
      "t": 274289.9042812504,
      "d": 531.2494687500293,
      "v": 69
    },
    {
      "midi": 61,
      "hit": false,
      "t": 274294.3685625004,
      "d": 495.53521875001024,
      "v": 57
    },
    {
      "midi": 66,
      "hit": false,
      "t": 274294.3685625004,
      "d": 526.7851875000051,
      "v": 64
    },
    {
      "midi": 61,
      "hit": false,
      "t": 274937.2250625004,
      "d": 486.60665625002,
      "v": 55
    },
    {
      "midi": 73,
      "hit": false,
      "t": 274937.2250625004,
      "d": 499.99950000003446,
      "v": 58
    },
    {
      "midi": 66,
      "hit": false,
      "t": 274937.2250625004,
      "d": 517.8566250000149,
      "v": 66
    },
    {
      "midi": 69,
      "hit": false,
      "t": 275571.1530000004,
      "d": 290.1782812500023,
      "v": 56
    },
    {
      "midi": 66,
      "hit": false,
      "t": 275571.1530000004,
      "d": 312.499687500007,
      "v": 60
    },
    {
      "midi": 61,
      "hit": false,
      "t": 275580.0815625004,
      "d": 281.2497187500121,
      "v": 53
    },
    {
      "midi": 61,
      "hit": false,
      "t": 276004.1882812504,
      "d": 691.9635937500279,
      "v": 55
    },
    {
      "midi": 66,
      "hit": false,
      "t": 276004.1882812504,
      "d": 700.8921562500182,
      "v": 59
    },
    {
      "midi": 73,
      "hit": false,
      "t": 276004.1882812504,
      "d": 700.8921562500182,
      "v": 67
    },
    {
      "midi": 61,
      "hit": false,
      "t": 276847.93743750046,
      "d": 785.7134999999544,
      "v": 50
    },
    {
      "midi": 66,
      "hit": false,
      "t": 276847.93743750046,
      "d": 785.7134999999544,
      "v": 62
    },
    {
      "midi": 69,
      "hit": false,
      "t": 276856.86600000045,
      "d": 767.8563749999739,
      "v": 62
    },
    {
      "midi": 66,
      "hit": false,
      "t": 277714.00800000044,
      "d": 5285.709000000032,
      "v": 84
    },
    {
      "midi": 71,
      "hit": false,
      "t": 277722.9365625004,
      "d": 5263.387593750027,
      "v": 64
    },
    {
      "midi": 59,
      "hit": false,
      "t": 277727.40084375045,
      "d": 5258.923312500003,
      "v": 70
    }
  ]
}