{
  "jsonPath": "Unknown/Unknown/Rodgers And Hammerstein/some-enchanted-evening.json",
  "path": "Unknown\\Unknown\\Rodgers And Hammerstein\\Some Enchanted Evening.mid",
  "name": "Some Enchanted Evening",
  "difficulty": "Advanced",
  "bpm": 100,
  "notes": [
    {
      "midi": 67,
      "hit": false,
      "t": 0,
      "d": 300,
      "v": 127
    },
    {
      "midi": 72,
      "hit": false,
      "t": 0,
      "d": 300,
      "v": 127
    },
    {
      "midi": 52,
      "hit": false,
      "t": 0,
      "d": 1800,
      "v": 127
    },
    {
      "midi": 60,
      "hit": false,
      "t": 0,
      "d": 1800,
      "v": 127
    },
    {
      "midi": 71,
      "hit": false,
      "t": 300,
      "d": 300,
      "v": 127
    },
    {
      "midi": 74,
      "hit": false,
      "t": 600,
      "d": 300,
      "v": 127
    },
    {
      "midi": 72,
      "hit": false,
      "t": 900,
      "d": 300,
      "v": 127
    },
    {
      "midi": 72,
      "hit": false,
      "t": 1200,
      "d": 600,
      "v": 127
    },
    {
      "midi": 67,
      "hit": false,
      "t": 1800,
      "d": 600,
      "v": 127
    },
    {
      "midi": 52,
      "hit": false,
      "t": 1800,
      "d": 600,
      "v": 127
    },
    {
      "midi": 60,
      "hit": false,
      "t": 1800,
      "d": 600,
      "v": 127
    },
    {
      "midi": 68,
      "hit": false,
      "t": 2400,
      "d": 300,
      "v": 127
    },
    {
      "midi": 72,
      "hit": false,
      "t": 2400,
      "d": 300,
      "v": 127
    },
    {
      "midi": 52,
      "hit": false,
      "t": 2400,
      "d": 1800,
      "v": 127
    },
    {
      "midi": 60,
      "hit": false,
      "t": 2400,
      "d": 1800,
      "v": 127
    },
    {
      "midi": 71,
      "hit": false,
      "t": 2700,
      "d": 300,
      "v": 127
    },
    {
      "midi": 74,
      "hit": false,
      "t": 3000,
      "d": 300,
      "v": 127
    },
    {
      "midi": 72,
      "hit": false,
      "t": 3300,
      "d": 300,
      "v": 127
    },
    {
      "midi": 72,
      "hit": false,
      "t": 3600,
      "d": 600,
      "v": 127
    },
    {
      "midi": 68,
      "hit": false,
      "t": 4200,
      "d": 600,
      "v": 127
    },
    {
      "midi": 52,
      "hit": false,
      "t": 4200,
      "d": 600,
      "v": 127
    },
    {
      "midi": 60,
      "hit": false,
      "t": 4200,
      "d": 600,
      "v": 127
    },
    {
      "midi": 74,
      "hit": false,
      "t": 4800,
      "d": 300,
      "v": 127
    },
    {
      "midi": 53,
      "hit": false,
      "t": 4800,
      "d": 600,
      "v": 127
    },
    {
      "midi": 60,
      "hit": false,
      "t": 4800,
      "d": 600,
      "v": 127
    },
    {
      "midi": 73,
      "hit": false,
      "t": 5100,
      "d": 300,
      "v": 127
    },
    {
      "midi": 76,
      "hit": false,
      "t": 5400,
      "d": 300,
      "v": 127
    },
    {
      "midi": 52,
      "hit": false,
      "t": 5400,
      "d": 600,
      "v": 127
    },
    {
      "midi": 74,
      "hit": false,
      "t": 5700,
      "d": 300,
      "v": 127
    },
    {
      "midi": 69,
      "hit": false,
      "t": 6000,
      "d": 600,
      "v": 127
    },
    {
      "midi": 72,
      "hit": false,
      "t": 6000,
      "d": 600,
      "v": 127
    },
    {
      "midi": 81,
      "hit": false,
      "t": 6000,
      "d": 600,
      "v": 127
    },
    {
      "midi": 50,
      "hit": false,
      "t": 6000,
      "d": 1200,
      "v": 127
    },
    {
      "midi": 57,
      "hit": false,
      "t": 6000,
      "d": 1200,
      "v": 127
    },
    {
      "midi": 69,
      "hit": false,
      "t": 6600,
      "d": 600,
      "v": 127
    },
    {
      "midi": 59,
      "hit": false,
      "t": 7200,
      "d": 1200,
      "v": 127
    },
    {
      "midi": 64,
      "hit": false,
      "t": 7200,
      "d": 1200,
      "v": 127
    },
    {
      "midi": 69,
      "hit": false,
      "t": 7200,
      "d": 1200,
      "v": 127
    },
    {
      "midi": 43,
      "hit": false,
      "t": 7200,
      "d": 2400,
      "v": 127
    },
    {
      "midi": 53,
      "hit": false,
      "t": 7200,
      "d": 2400,
      "v": 127
    },
    {
      "midi": 62,
      "hit": false,
      "t": 8400,
      "d": 1200,
      "v": 127
    },
    {
      "midi": 67,
      "hit": false,
      "t": 8400,
      "d": 1200,
      "v": 127
    },
    {
      "midi": 64,
      "hit": false,
      "t": 9600,
      "d": 300,
      "v": 127
    },
    {
      "midi": 67,
      "hit": false,
      "t": 9600,
      "d": 300,
      "v": 127
    },
    {
      "midi": 36,
      "hit": false,
      "t": 9600,
      "d": 1200,
      "v": 127
    },
    {
      "midi": 43,
      "hit": false,
      "t": 9600,
      "d": 1200,
      "v": 127
    },
    {
      "midi": 66,
      "hit": false,
      "t": 9900,
      "d": 300,
      "v": 127
    },
    {
      "midi": 60,
      "hit": false,
      "t": 10200,
      "d": 300,
      "v": 127
    },
    {
      "midi": 64,
      "hit": false,
      "t": 10200,
      "d": 300,
      "v": 127
    },
    {
      "midi": 69,
      "hit": false,
      "t": 10200,
      "d": 300,
      "v": 127
    },
    {
      "midi": 67,
      "hit": false,
      "t": 10500,
      "d": 300,
      "v": 127
    },
    {
      "midi": 67,
      "hit": false,
      "t": 10800,
      "d": 600,
      "v": 127
    },
    {
      "midi": 31,
      "hit": false,
      "t": 10800,
      "d": 600,
      "v": 127
    },
    {
      "midi": 43,
      "hit": false,
      "t": 10800,
      "d": 600,
      "v": 127
    },
    {
      "midi": 60,
      "hit": false,
      "t": 11400,
      "d": 600,
      "v": 127
    },
    {
      "midi": 52,
      "hit": false,
      "t": 11400,
      "d": 600,
      "v": 127
    },
    {
      "midi": 55,
      "hit": false,
      "t": 11400,
      "d": 600,
      "v": 127
    },
    {
      "midi": 79,
      "hit": false,
      "t": 12000,
      "d": 300,
      "v": 127
    },
    {
      "midi": 36,
      "hit": false,
      "t": 12000,
      "d": 600,
      "v": 127
    },
    {
      "midi": 48,
      "hit": false,
      "t": 12000,
      "d": 600,
      "v": 127
    },
    {
      "midi": 78,
      "hit": false,
      "t": 12300,
      "d": 300,
      "v": 127
    },
    {
      "midi": 72,
      "hit": false,
      "t": 12600,
      "d": 300,
      "v": 127
    },
    {
      "midi": 76,
      "hit": false,
      "t": 12600,
      "d": 300,
      "v": 127
    },
    {
      "midi": 81,
      "hit": false,
      "t": 12600,
      "d": 300,
      "v": 127
    },
    {
      "midi": 55,
      "hit": false,
      "t": 12600,
      "d": 600,
      "v": 127
    },
    {
      "midi": 60,
      "hit": false,
      "t": 12600,
      "d": 600,
      "v": 127
    },
    {
      "midi": 64,
      "hit": false,
      "t": 12600,
      "d": 600,
      "v": 127
    },
    {
      "midi": 79,
      "hit": false,
      "t": 12900,
      "d": 300,
      "v": 127
    },
    {
      "midi": 79,
      "hit": false,
      "t": 13200,
      "d": 600,
      "v": 127
    },
    {
      "midi": 31,
      "hit": false,
      "t": 13200,
      "d": 600,
      "v": 127
    },
    {
      "midi": 43,
      "hit": false,
      "t": 13200,
      "d": 600,
      "v": 127
    },
    {
      "midi": 64,
      "hit": false,
      "t": 13800,
      "d": 600,
      "v": 127
    },
    {
      "midi": 67,
      "hit": false,
      "t": 13800,
      "d": 600,
      "v": 127
    },
    {
      "midi": 72,
      "hit": false,
      "t": 13800,
      "d": 600,
      "v": 127
    },
    {
      "midi": 52,
      "hit": false,
      "t": 13800,
      "d": 600,
      "v": 127
    },
    {
      "midi": 55,
      "hit": false,
      "t": 13800,
      "d": 600,
      "v": 127
    },
    {
      "midi": 60,
      "hit": false,
      "t": 13800,
      "d": 600,
      "v": 127
    },
    {
      "midi": 67,
      "hit": false,
      "t": 14400,
      "d": 300,
      "v": 127
    },
    {
      "midi": 38,
      "hit": false,
      "t": 14400,
      "d": 1200,
      "v": 127
    },
    {
      "midi": 50,
      "hit": false,
      "t": 14400,
      "d": 1200,
      "v": 127
    },
    {
      "midi": 66,
      "hit": false,
      "t": 14700,
      "d": 300,
      "v": 127
    },
    {
      "midi": 59,
      "hit": false,
      "t": 15000,
      "d": 300,
      "v": 127
    },
    {
      "midi": 65,
      "hit": false,
      "t": 15000,
      "d": 300,
      "v": 127
    },
    {
      "midi": 69,
      "hit": false,
      "t": 15000,
      "d": 300,
      "v": 127
    },
    {
      "midi": 67,
      "hit": false,
      "t": 15300,
      "d": 300,
      "v": 127
    },
    {
      "midi": 67,
      "hit": false,
      "t": 15600,
      "d": 600,
      "v": 127
    },
    {
      "midi": 31,
      "hit": false,
      "t": 15600,
      "d": 600,
      "v": 127
    },
    {
      "midi": 43,
      "hit": false,
      "t": 15600,
      "d": 600,
      "v": 127
    },
    {
      "midi": 65,
      "hit": false,
      "t": 16200,
      "d": 600,
      "v": 127
    },
    {
      "midi": 67,
      "hit": false,
      "t": 16200,
      "d": 600,
      "v": 127
    },
    {
      "midi": 71,
      "hit": false,
      "t": 16200,
      "d": 600,
      "v": 127
    },
    {
      "midi": 59,
      "hit": false,
      "t": 16200,
      "d": 600,
      "v": 127
    },
    {
      "midi": 79,
      "hit": false,
      "t": 16800,
      "d": 300,
      "v": 127
    },
    {
      "midi": 38,
      "hit": false,
      "t": 16800,
      "d": 600,
      "v": 127
    },
    {
      "midi": 50,
      "hit": false,
      "t": 16800,
      "d": 600,
      "v": 127
    },
    {
      "midi": 78,
      "hit": false,
      "t": 17100,
      "d": 300,
      "v": 127
    },
    {
      "midi": 71,
      "hit": false,
      "t": 17400,
      "d": 300,
      "v": 127
    },
    {
      "midi": 77,
      "hit": false,
      "t": 17400,
      "d": 300,
      "v": 127
    },
    {
      "midi": 81,
      "hit": false,
      "t": 17400,
      "d": 300,
      "v": 127
    },
    {
      "midi": 55,
      "hit": false,
      "t": 17400,
      "d": 600,
      "v": 127
    },
    {
      "midi": 59,
      "hit": false,
      "t": 17400,
      "d": 600,
      "v": 127
    },
    {
      "midi": 65,
      "hit": false,
      "t": 17400,
      "d": 600,
      "v": 127
    },
    {
      "midi": 79,
      "hit": false,
      "t": 17700,
      "d": 300,
      "v": 127
    },
    {
      "midi": 79,
      "hit": false,
      "t": 18000,
      "d": 600,
      "v": 127
    },
    {
      "midi": 31,
      "hit": false,
      "t": 18000,
      "d": 600,
      "v": 127
    },
    {
      "midi": 43,
      "hit": false,
      "t": 18000,
      "d": 600,
      "v": 127
    },
    {
      "midi": 77,
      "hit": false,
      "t": 18600,
      "d": 600,
      "v": 127
    },
    {
      "midi": 83,
      "hit": false,
      "t": 18600,
      "d": 600,
      "v": 127
    },
    {
      "midi": 86,
      "hit": false,
      "t": 18600,
      "d": 600,
      "v": 127
    },
    {
      "midi": 55,
      "hit": false,
      "t": 18600,
      "d": 600,
      "v": 127
    },
    {
      "midi": 59,
      "hit": false,
      "t": 18600,
      "d": 600,
      "v": 127
    },
    {
      "midi": 65,
      "hit": false,
      "t": 18600,
      "d": 600,
      "v": 127
    },
    {
      "midi": 64,
      "hit": false,
      "t": 19200,
      "d": 300,
      "v": 127
    },
    {
      "midi": 67,
      "hit": false,
      "t": 19200,
      "d": 300,
      "v": 127
    },
    {
      "midi": 36,
      "hit": false,
      "t": 19200,
      "d": 1200,
      "v": 127
    },
    {
      "midi": 43,
      "hit": false,
      "t": 19200,
      "d": 1200,
      "v": 127
    },
    {
      "midi": 66,
      "hit": false,
      "t": 19500,
      "d": 300,
      "v": 127
    },
    {
      "midi": 60,
      "hit": false,
      "t": 19800,
      "d": 300,
      "v": 127
    },
    {
      "midi": 64,
      "hit": false,
      "t": 19800,
      "d": 300,
      "v": 127
    },
    {
      "midi": 69,
      "hit": false,
      "t": 19800,
      "d": 300,
      "v": 127
    },
    {
      "midi": 67,
      "hit": false,
      "t": 20100,
      "d": 300,
      "v": 127
    },
    {
      "midi": 67,
      "hit": false,
      "t": 20400,
      "d": 600,
      "v": 127
    },
    {
      "midi": 31,
      "hit": false,
      "t": 20400,
      "d": 1200,
      "v": 127
    },
    {
      "midi": 43,
      "hit": false,
      "t": 20400,
      "d": 1200,
      "v": 127
    },
    {
      "midi": 64,
      "hit": false,
      "t": 21000,
      "d": 600,
      "v": 127
    },
    {
      "midi": 67,
      "hit": false,
      "t": 21000,
      "d": 600,
      "v": 127
    },
    {
      "midi": 72,
      "hit": false,
      "t": 21000,
      "d": 600,
      "v": 127
    },
    {
      "midi": 40,
      "hit": false,
      "t": 21600,
      "d": 600,
      "v": 127
    },
    {
      "midi": 48,
      "hit": false,
      "t": 21600,
      "d": 600,
      "v": 127
    },
    {
      "midi": 64,
      "hit": false,
      "t": 22200,
      "d": 600,
      "v": 127
    },
    {
      "midi": 68,
      "hit": false,
      "t": 22200,
      "d": 600,
      "v": 127
    },
    {
      "midi": 72,
      "hit": false,
      "t": 22200,
      "d": 600,
      "v": 127
    },
    {
      "midi": 52,
      "hit": false,
      "t": 22200,
      "d": 1200,
      "v": 127
    },
    {
      "midi": 56,
      "hit": false,
      "t": 22200,
      "d": 1200,
      "v": 127
    },
    {
      "midi": 60,
      "hit": false,
      "t": 22200,
      "d": 1200,
      "v": 127
    },
    {
      "midi": 64,
      "hit": false,
      "t": 22800,
      "d": 600,
      "v": 127
    },
    {
      "midi": 68,
      "hit": false,
      "t": 22800,
      "d": 600,
      "v": 127
    },
    {
      "midi": 72,
      "hit": false,
      "t": 22800,
      "d": 600,
      "v": 127
    },
    {
      "midi": 64,
      "hit": false,
      "t": 23400,
      "d": 600,
      "v": 127
    },
    {
      "midi": 68,
      "hit": false,
      "t": 23400,
      "d": 600,
      "v": 127
    },
    {
      "midi": 72,
      "hit": false,
      "t": 23400,
      "d": 600,
      "v": 127
    },
    {
      "midi": 52,
      "hit": false,
      "t": 23400,
      "d": 600,
      "v": 127
    },
    {
      "midi": 56,
      "hit": false,
      "t": 23400,
      "d": 600,
      "v": 127
    },
    {
      "midi": 60,
      "hit": false,
      "t": 23400,
      "d": 600,
      "v": 127
    },
    {
      "midi": 69,
      "hit": false,
      "t": 24000,
      "d": 600,
      "v": 127
    },
    {
      "midi": 41,
      "hit": false,
      "t": 24000,
      "d": 600,
      "v": 127
    },
    {
      "midi": 57,
      "hit": false,
      "t": 24600,
      "d": 300,
      "v": 127
    },
    {
      "midi": 60,
      "hit": false,
      "t": 24600,
      "d": 300,
      "v": 127
    },
    {
      "midi": 48,
      "hit": false,
      "t": 24600,
      "d": 600,
      "v": 127
    },
    {
      "midi": 64,
      "hit": false,
      "t": 24900,
      "d": 300,
      "v": 127
    },
    {
      "midi": 62,
      "hit": false,
      "t": 25200,
      "d": 600,
      "v": 127
    },
    {
      "midi": 36,
      "hit": false,
      "t": 25200,
      "d": 600,
      "v": 127
    },
    {
      "midi": 60,
      "hit": false,
      "t": 25800,
      "d": 600,
      "v": 127
    },
    {
      "midi": 57,
      "hit": false,
      "t": 25800,
      "d": 600,
      "v": 127
    },
    {
      "midi": 57,
      "hit": false,
      "t": 26400,
      "d": 600,
      "v": 127
    },
    {
      "midi": 41,
      "hit": false,
      "t": 26400,
      "d": 600,
      "v": 127
    },
    {
      "midi": 62,
      "hit": false,
      "t": 27000,
      "d": 600,
      "v": 127
    },
    {
      "midi": 48,
      "hit": false,
      "t": 27000,
      "d": 600,
      "v": 127
    },
    {
      "midi": 64,
      "hit": false,
      "t": 27600,
      "d": 300,
      "v": 127
    },
    {
      "midi": 40,
      "hit": false,
      "t": 27600,
      "d": 600,
      "v": 127
    },
    {
      "midi": 67,
      "hit": false,
      "t": 27900,
      "d": 450,
      "v": 127
    },
    {
      "midi": 48,
      "hit": false,
      "t": 28200,
      "d": 600,
      "v": 127
    },
    {
      "midi": 64,
      "hit": false,
      "t": 28350,
      "d": 450,
      "v": 127
    },
    {
      "midi": 62,
      "hit": false,
      "t": 28800,
      "d": 600,
      "v": 127
    },
    {
      "midi": 38,
      "hit": false,
      "t": 28800,
      "d": 600,
      "v": 127
    },
    {
      "midi": 60,
      "hit": false,
      "t": 29400,
      "d": 600,
      "v": 127
    },
    {
      "midi": 57,
      "hit": false,
      "t": 29400,
      "d": 600,
      "v": 127
    },
    {
      "midi": 53,
      "hit": false,
      "t": 30000,
      "d": 600,
      "v": 127
    },
    {
      "midi": 31,
      "hit": false,
      "t": 30000,
      "d": 1200,
      "v": 127
    },
    {
      "midi": 59,
      "hit": false,
      "t": 30600,
      "d": 600,
      "v": 127
    },
    {
      "midi": 57,
      "hit": false,
      "t": 31200,
      "d": 600,
      "v": 127
    },
    {
      "midi": 38,
      "hit": false,
      "t": 31200,
      "d": 600,
      "v": 127
    },
    {
      "midi": 62,
      "hit": false,
      "t": 31800,
      "d": 600,
      "v": 127
    },
    {
      "midi": 53,
      "hit": false,
      "t": 31800,
      "d": 600,
      "v": 127
    },
    {
      "midi": 57,
      "hit": false,
      "t": 31800,
      "d": 600,
      "v": 127
    },
    {
      "midi": 56,
      "hit": false,
      "t": 32400,
      "d": 450,
      "v": 127
    },
    {
      "midi": 64,
      "hit": false,
      "t": 32400,
      "d": 450,
      "v": 127
    },
    {
      "midi": 40,
      "hit": false,
      "t": 32400,
      "d": 1200,
      "v": 127
    },
    {
      "midi": 50,
      "hit": false,
      "t": 32400,
      "d": 1200,
      "v": 127
    },
    {
      "midi": 67,
      "hit": false,
      "t": 32850,
      "d": 300,
      "v": 127
    },
    {
      "midi": 64,
      "hit": false,
      "t": 33150,
      "d": 450,
      "v": 127
    },
    {
      "midi": 60,
      "hit": false,
      "t": 33600,
      "d": 600,
      "v": 127
    },
    {
      "midi": 45,
      "hit": false,
      "t": 33600,
      "d": 600,
      "v": 127
    },
    {
      "midi": 57,
      "hit": false,
      "t": 34200,
      "d": 600,
      "v": 127
    },
    {
      "midi": 52,
      "hit": false,
      "t": 34200,
      "d": 600,
      "v": 127
    },
    {
      "midi": 43,
      "hit": false,
      "t": 34800,
      "d": 600,
      "v": 127
    },
    {
      "midi": 52,
      "hit": false,
      "t": 34800,
      "d": 600,
      "v": 127
    },
    {
      "midi": 48,
      "hit": false,
      "t": 35400,
      "d": 600,
      "v": 127
    },
    {
      "midi": 58,
      "hit": false,
      "t": 35400,
      "d": 600,
      "v": 127
    },
    {
      "midi": 57,
      "hit": false,
      "t": 36000,
      "d": 600,
      "v": 127
    },
    {
      "midi": 41,
      "hit": false,
      "t": 36000,
      "d": 600,
      "v": 127
    },
    {
      "midi": 65,
      "hit": false,
      "t": 36600,
      "d": 600,
      "v": 127
    },
    {
      "midi": 69,
      "hit": false,
      "t": 36600,
      "d": 600,
      "v": 127
    },
    {
      "midi": 48,
      "hit": false,
      "t": 36600,
      "d": 600,
      "v": 127
    },
    {
      "midi": 64,
      "hit": false,
      "t": 37200,
      "d": 450,
      "v": 127
    },
    {
      "midi": 67,
      "hit": false,
      "t": 37200,
      "d": 450,
      "v": 127
    },
    {
      "midi": 71,
      "hit": false,
      "t": 37200,
      "d": 450,
      "v": 127
    },
    {
      "midi": 40,
      "hit": false,
      "t": 37200,
      "d": 600,
      "v": 127
    },
    {
      "midi": 72,
      "hit": false,
      "t": 37650,
      "d": 300,
      "v": 127
    },
    {
      "midi": 52,
      "hit": false,
      "t": 37800,
      "d": 600,
      "v": 127
    },
    {
      "midi": 74,
      "hit": false,
      "t": 37950,
      "d": 450,
      "v": 127
    },
    {
      "midi": 72,
      "hit": false,
      "t": 38400,
      "d": 600,
      "v": 127
    },
    {
      "midi": 38,
      "hit": false,
      "t": 38400,
      "d": 1200,
      "v": 127
    },
    {
      "midi": 45,
      "hit": false,
      "t": 38400,
      "d": 1200,
      "v": 127
    },
    {
      "midi": 60,
      "hit": false,
      "t": 39000,
      "d": 1200,
      "v": 127
    },
    {
      "midi": 65,
      "hit": false,
      "t": 39000,
      "d": 1200,
      "v": 127
    },
    {
      "midi": 71,
      "hit": false,
      "t": 39000,
      "d": 1200,
      "v": 127
    },
    {
      "midi": 41,
      "hit": false,
      "t": 39600,
      "d": 1200,
      "v": 127
    },
    {
      "midi": 60,
      "hit": false,
      "t": 40200,
      "d": 600,
      "v": 127
    },
    {
      "midi": 65,
      "hit": false,
      "t": 40200,
      "d": 600,
      "v": 127
    },
    {
      "midi": 69,
      "hit": false,
      "t": 40200,
      "d": 600,
      "v": 127
    },
    {
      "midi": 67,
      "hit": false,
      "t": 40800,
      "d": 600,
      "v": 127
    },
    {
      "midi": 57,
      "hit": false,
      "t": 41400,
      "d": 1200,
      "v": 127
    },
    {
      "midi": 60,
      "hit": false,
      "t": 41400,
      "d": 1200,
      "v": 127
    },
    {
      "midi": 64,
      "hit": false,
      "t": 41400,
      "d": 1200,
      "v": 127
    },
    {
      "midi": 38,
      "hit": false,
      "t": 41400,
      "d": 1200,
      "v": 127
    },
    {
      "midi": 53,
      "hit": false,
      "t": 42600,
      "d": 600,
      "v": 127
    },
    {
      "midi": 59,
      "hit": false,
      "t": 42600,
      "d": 600,
      "v": 127
    },
    {
      "midi": 62,
      "hit": false,
      "t": 42600,
      "d": 600,
      "v": 127
    },
    {
      "midi": 31,
      "hit": false,
      "t": 42600,
      "d": 600,
      "v": 127
    },
    {
      "midi": 43,
      "hit": false,
      "t": 42600,
      "d": 600,
      "v": 127
    },
    {
      "midi": 64,
      "hit": false,
      "t": 43200,
      "d": 600,
      "v": 127
    },
    {
      "midi": 36,
      "hit": false,
      "t": 43200,
      "d": 600,
      "v": 127
    },
    {
      "midi": 67,
      "hit": false,
      "t": 43800,
      "d": 600,
      "v": 127
    },
    {
      "midi": 71,
      "hit": false,
      "t": 43800,
      "d": 600,
      "v": 127
    },
    {
      "midi": 59,
      "hit": false,
      "t": 43800,
      "d": 600,
      "v": 127
    },
    {
      "midi": 58,
      "hit": false,
      "t": 44400,
      "d": 600,
      "v": 127
    },
    {
      "midi": 31,
      "hit": false,
      "t": 44400,
      "d": 1200,
      "v": 127
    },
    {
      "midi": 64,
      "hit": false,
      "t": 45000,
      "d": 600,
      "v": 127
    },
    {
      "midi": 67,
      "hit": false,
      "t": 45000,
      "d": 600,
      "v": 127
    },
    {
      "midi": 70,
      "hit": false,
      "t": 45000,
      "d": 600,
      "v": 127
    },
    {
      "midi": 56,
      "hit": false,
      "t": 45600,
      "d": 600,
      "v": 127
    },
    {
      "midi": 36,
      "hit": false,
      "t": 45600,
      "d": 1200,
      "v": 127
    },
    {
      "midi": 60,
      "hit": false,
      "t": 46200,
      "d": 600,
      "v": 127
    },
    {
      "midi": 64,
      "hit": false,
      "t": 46200,
      "d": 600,
      "v": 127
    },
    {
      "midi": 68,
      "hit": false,
      "t": 46200,
      "d": 600,
      "v": 127
    },
    {
      "midi": 54,
      "hit": false,
      "t": 46800,
      "d": 600,
      "v": 127
    },
    {
      "midi": 31,
      "hit": false,
      "t": 46800,
      "d": 1200,
      "v": 127
    },
    {
      "midi": 60,
      "hit": false,
      "t": 47400,
      "d": 600,
      "v": 127
    },
    {
      "midi": 63,
      "hit": false,
      "t": 47400,
      "d": 600,
      "v": 127
    },
    {
      "midi": 66,
      "hit": false,
      "t": 47400,
      "d": 600,
      "v": 127
    },
    {
      "midi": 67,
      "hit": false,
      "t": 48000,
      "d": 300,
      "v": 127
    },
    {
      "midi": 36,
      "hit": false,
      "t": 48000,
      "d": 1200,
      "v": 127
    },
    {
      "midi": 43,
      "hit": false,
      "t": 48000,
      "d": 1200,
      "v": 127
    },
    {
      "midi": 66,
      "hit": false,
      "t": 48300,
      "d": 300,
      "v": 127
    },
    {
      "midi": 60,
      "hit": false,
      "t": 48600,
      "d": 300,
      "v": 127
    },
    {
      "midi": 64,
      "hit": false,
      "t": 48600,
      "d": 300,
      "v": 127
    },
    {
      "midi": 69,
      "hit": false,
      "t": 48600,
      "d": 300,
      "v": 127
    },
    {
      "midi": 67,
      "hit": false,
      "t": 48900,
      "d": 300,
      "v": 127
    },
    {
      "midi": 67,
      "hit": false,
      "t": 49200,
      "d": 600,
      "v": 127
    },
    {
      "midi": 31,
      "hit": false,
      "t": 49200,
      "d": 600,
      "v": 127
    },
    {
      "midi": 43,
      "hit": false,
      "t": 49200,
      "d": 600,
      "v": 127
    },
    {
      "midi": 60,
      "hit": false,
      "t": 49800,
      "d": 600,
      "v": 127
    },
    {
      "midi": 52,
      "hit": false,
      "t": 49800,
      "d": 600,
      "v": 127
    },
    {
      "midi": 55,
      "hit": false,
      "t": 49800,
      "d": 600,
      "v": 127
    },
    {
      "midi": 79,
      "hit": false,
      "t": 50400,
      "d": 300,
      "v": 127
    },
    {
      "midi": 36,
      "hit": false,
      "t": 50400,
      "d": 600,
      "v": 127
    },
    {
      "midi": 48,
      "hit": false,
      "t": 50400,
      "d": 600,
      "v": 127
    },
    {
      "midi": 78,
      "hit": false,
      "t": 50700,
      "d": 300,
      "v": 127
    },
    {
      "midi": 72,
      "hit": false,
      "t": 51000,
      "d": 300,
      "v": 127
    },
    {
      "midi": 76,
      "hit": false,
      "t": 51000,
      "d": 300,
      "v": 127
    },
    {
      "midi": 81,
      "hit": false,
      "t": 51000,
      "d": 300,
      "v": 127
    },
    {
      "midi": 55,
      "hit": false,
      "t": 51000,
      "d": 600,
      "v": 127
    },
    {
      "midi": 60,
      "hit": false,
      "t": 51000,
      "d": 600,
      "v": 127
    },
    {
      "midi": 64,
      "hit": false,
      "t": 51000,
      "d": 600,
      "v": 127
    },
    {
      "midi": 79,
      "hit": false,
      "t": 51300,
      "d": 300,
      "v": 127
    },
    {
      "midi": 79,
      "hit": false,
      "t": 51600,
      "d": 600,
      "v": 127
    },
    {
      "midi": 31,
      "hit": false,
      "t": 51600,
      "d": 600,
      "v": 127
    },
    {
      "midi": 43,
      "hit": false,
      "t": 51600,
      "d": 600,
      "v": 127
    },
    {
      "midi": 64,
      "hit": false,
      "t": 52200,
      "d": 600,
      "v": 127
    },
    {
      "midi": 67,
      "hit": false,
      "t": 52200,
      "d": 600,
      "v": 127
    },
    {
      "midi": 72,
      "hit": false,
      "t": 52200,
      "d": 600,
      "v": 127
    },
    {
      "midi": 52,
      "hit": false,
      "t": 52200,
      "d": 600,
      "v": 127
    },
    {
      "midi": 55,
      "hit": false,
      "t": 52200,
      "d": 600,
      "v": 127
    },
    {
      "midi": 60,
      "hit": false,
      "t": 52200,
      "d": 600,
      "v": 127
    },
    {
      "midi": 67,
      "hit": false,
      "t": 52800,
      "d": 300,
      "v": 127
    },
    {
      "midi": 38,
      "hit": false,
      "t": 52800,
      "d": 1200,
      "v": 127
    },
    {
      "midi": 50,
      "hit": false,
      "t": 52800,
      "d": 1200,
      "v": 127
    },
    {
      "midi": 66,
      "hit": false,
      "t": 53100,
      "d": 300,
      "v": 127
    },
    {
      "midi": 59,
      "hit": false,
      "t": 53400,
      "d": 300,
      "v": 127
    },
    {
      "midi": 65,
      "hit": false,
      "t": 53400,
      "d": 300,
      "v": 127
    },
    {
      "midi": 69,
      "hit": false,
      "t": 53400,
      "d": 300,
      "v": 127
    },
    {
      "midi": 67,
      "hit": false,
      "t": 53700,
      "d": 300,
      "v": 127
    },
    {
      "midi": 67,
      "hit": false,
      "t": 54000,
      "d": 600,
      "v": 127
    },
    {
      "midi": 31,
      "hit": false,
      "t": 54000,
      "d": 600,
      "v": 127
    },
    {
      "midi": 43,
      "hit": false,
      "t": 54000,
      "d": 600,
      "v": 127
    },
    {
      "midi": 65,
      "hit": false,
      "t": 54600,
      "d": 600,
      "v": 127
    },
    {
      "midi": 67,
      "hit": false,
      "t": 54600,
      "d": 600,
      "v": 127
    },
    {
      "midi": 71,
      "hit": false,
      "t": 54600,
      "d": 600,
      "v": 127
    },
    {
      "midi": 59,
      "hit": false,
      "t": 54600,
      "d": 600,
      "v": 127
    },
    {
      "midi": 79,
      "hit": false,
      "t": 55200,
      "d": 300,
      "v": 127
    },
    {
      "midi": 38,
      "hit": false,
      "t": 55200,
      "d": 600,
      "v": 127
    },
    {
      "midi": 50,
      "hit": false,
      "t": 55200,
      "d": 600,
      "v": 127
    },
    {
      "midi": 78,
      "hit": false,
      "t": 55500,
      "d": 300,
      "v": 127
    },
    {
      "midi": 71,
      "hit": false,
      "t": 55800,
      "d": 300,
      "v": 127
    },
    {
      "midi": 77,
      "hit": false,
      "t": 55800,
      "d": 300,
      "v": 127
    },
    {
      "midi": 81,
      "hit": false,
      "t": 55800,
      "d": 300,
      "v": 127
    },
    {
      "midi": 55,
      "hit": false,
      "t": 55800,
      "d": 600,
      "v": 127
    },
    {
      "midi": 59,
      "hit": false,
      "t": 55800,
      "d": 600,
      "v": 127
    },
    {
      "midi": 65,
      "hit": false,
      "t": 55800,
      "d": 600,
      "v": 127
    },
    {
      "midi": 79,
      "hit": false,
      "t": 56100,
      "d": 300,
      "v": 127
    },
    {
      "midi": 79,
      "hit": false,
      "t": 56400,
      "d": 600,
      "v": 127
    },
    {
      "midi": 31,
      "hit": false,
      "t": 56400,
      "d": 600,
      "v": 127
    },
    {
      "midi": 43,
      "hit": false,
      "t": 56400,
      "d": 600,
      "v": 127
    },
    {
      "midi": 77,
      "hit": false,
      "t": 57000,
      "d": 600,
      "v": 127
    },
    {
      "midi": 83,
      "hit": false,
      "t": 57000,
      "d": 600,
      "v": 127
    },
    {
      "midi": 86,
      "hit": false,
      "t": 57000,
      "d": 600,
      "v": 127
    },
    {
      "midi": 55,
      "hit": false,
      "t": 57000,
      "d": 600,
      "v": 127
    },
    {
      "midi": 59,
      "hit": false,
      "t": 57000,
      "d": 600,
      "v": 127
    },
    {
      "midi": 65,
      "hit": false,
      "t": 57000,
      "d": 600,
      "v": 127
    },
    {
      "midi": 64,
      "hit": false,
      "t": 57600,
      "d": 300,
      "v": 127
    },
    {
      "midi": 67,
      "hit": false,
      "t": 57600,
      "d": 300,
      "v": 127
    },
    {
      "midi": 36,
      "hit": false,
      "t": 57600,
      "d": 1200,
      "v": 127
    },
    {
      "midi": 43,
      "hit": false,
      "t": 57600,
      "d": 1200,
      "v": 127
    },
    {
      "midi": 66,
      "hit": false,
      "t": 57900,
      "d": 300,
      "v": 127
    },
    {
      "midi": 60,
      "hit": false,
      "t": 58200,
      "d": 300,
      "v": 127
    },
    {
      "midi": 64,
      "hit": false,
      "t": 58200,
      "d": 300,
      "v": 127
    },
    {
      "midi": 69,
      "hit": false,
      "t": 58200,
      "d": 300,
      "v": 127
    },
    {
      "midi": 67,
      "hit": false,
      "t": 58500,
      "d": 300,
      "v": 127
    },
    {
      "midi": 67,
      "hit": false,
      "t": 58800,
      "d": 600,
      "v": 127
    },
    {
      "midi": 31,
      "hit": false,
      "t": 58800,
      "d": 1200,
      "v": 127
    },
    {
      "midi": 43,
      "hit": false,
      "t": 58800,
      "d": 1200,
      "v": 127
    },
    {
      "midi": 64,
      "hit": false,
      "t": 59400,
      "d": 600,
      "v": 127
    },
    {
      "midi": 67,
      "hit": false,
      "t": 59400,
      "d": 600,
      "v": 127
    },
    {
      "midi": 72,
      "hit": false,
      "t": 59400,
      "d": 600,
      "v": 127
    },
    {
      "midi": 40,
      "hit": false,
      "t": 60000,
      "d": 600,
      "v": 127
    },
    {
      "midi": 48,
      "hit": false,
      "t": 60000,
      "d": 600,
      "v": 127
    },
    {
      "midi": 64,
      "hit": false,
      "t": 60600,
      "d": 600,
      "v": 127
    },
    {
      "midi": 68,
      "hit": false,
      "t": 60600,
      "d": 600,
      "v": 127
    },
    {
      "midi": 72,
      "hit": false,
      "t": 60600,
      "d": 600,
      "v": 127
    },
    {
      "midi": 52,
      "hit": false,
      "t": 60600,
      "d": 1200,
      "v": 127
    },
    {
      "midi": 56,
      "hit": false,
      "t": 60600,
      "d": 1200,
      "v": 127
    },
    {
      "midi": 60,
      "hit": false,
      "t": 60600,
      "d": 1200,
      "v": 127
    },
    {
      "midi": 64,
      "hit": false,
      "t": 61200,
      "d": 600,
      "v": 127
    },
    {
      "midi": 68,
      "hit": false,
      "t": 61200,
      "d": 600,
      "v": 127
    },
    {
      "midi": 72,
      "hit": false,
      "t": 61200,
      "d": 600,
      "v": 127
    },
    {
      "midi": 64,
      "hit": false,
      "t": 61800,
      "d": 600,
      "v": 127
    },
    {
      "midi": 68,
      "hit": false,
      "t": 61800,
      "d": 600,
      "v": 127
    },
    {
      "midi": 72,
      "hit": false,
      "t": 61800,
      "d": 600,
      "v": 127
    },
    {
      "midi": 52,
      "hit": false,
      "t": 61800,
      "d": 600,
      "v": 127
    },
    {
      "midi": 56,
      "hit": false,
      "t": 61800,
      "d": 600,
      "v": 127
    },
    {
      "midi": 60,
      "hit": false,
      "t": 61800,
      "d": 600,
      "v": 127
    },
    {
      "midi": 69,
      "hit": false,
      "t": 62400,
      "d": 600,
      "v": 127
    },
    {
      "midi": 41,
      "hit": false,
      "t": 62400,
      "d": 600,
      "v": 127
    },
    {
      "midi": 57,
      "hit": false,
      "t": 63000,
      "d": 300,
      "v": 127
    },
    {
      "midi": 60,
      "hit": false,
      "t": 63000,
      "d": 300,
      "v": 127
    },
    {
      "midi": 48,
      "hit": false,
      "t": 63000,
      "d": 600,
      "v": 127
    },
    {
      "midi": 64,
      "hit": false,
      "t": 63300,
      "d": 300,
      "v": 127
    },
    {
      "midi": 62,
      "hit": false,
      "t": 63600,
      "d": 600,
      "v": 127
    },
    {
      "midi": 36,
      "hit": false,
      "t": 63600,
      "d": 600,
      "v": 127
    },
    {
      "midi": 60,
      "hit": false,
      "t": 64200,
      "d": 600,
      "v": 127
    },
    {
      "midi": 57,
      "hit": false,
      "t": 64200,
      "d": 600,
      "v": 127
    },
    {
      "midi": 57,
      "hit": false,
      "t": 64800,
      "d": 600,
      "v": 127
    },
    {
      "midi": 41,
      "hit": false,
      "t": 64800,
      "d": 600,
      "v": 127
    },
    {
      "midi": 62,
      "hit": false,
      "t": 65400,
      "d": 600,
      "v": 127
    },
    {
      "midi": 48,
      "hit": false,
      "t": 65400,
      "d": 600,
      "v": 127
    },
    {
      "midi": 64,
      "hit": false,
      "t": 66000,
      "d": 300,
      "v": 127
    },
    {
      "midi": 40,
      "hit": false,
      "t": 66000,
      "d": 600,
      "v": 127
    },
    {
      "midi": 67,
      "hit": false,
      "t": 66300,
      "d": 450,
      "v": 127
    },
    {
      "midi": 48,
      "hit": false,
      "t": 66600,
      "d": 600,
      "v": 127
    },
    {
      "midi": 64,
      "hit": false,
      "t": 66750,
      "d": 450,
      "v": 127
    },
    {
      "midi": 62,
      "hit": false,
      "t": 67200,
      "d": 600,
      "v": 127
    },
    {
      "midi": 38,
      "hit": false,
      "t": 67200,
      "d": 600,
      "v": 127
    },
    {
      "midi": 60,
      "hit": false,
      "t": 67800,
      "d": 600,
      "v": 127
    },
    {
      "midi": 57,
      "hit": false,
      "t": 67800,
      "d": 600,
      "v": 127
    },
    {
      "midi": 53,
      "hit": false,
      "t": 68400,
      "d": 600,
      "v": 127
    },
    {
      "midi": 31,
      "hit": false,
      "t": 68400,
      "d": 1200,
      "v": 127
    },
    {
      "midi": 59,
      "hit": false,
      "t": 69000,
      "d": 600,
      "v": 127
    },
    {
      "midi": 57,
      "hit": false,
      "t": 69600,
      "d": 600,
      "v": 127
    },
    {
      "midi": 38,
      "hit": false,
      "t": 69600,
      "d": 600,
      "v": 127
    },
    {
      "midi": 62,
      "hit": false,
      "t": 70200,
      "d": 600,
      "v": 127
    },
    {
      "midi": 53,
      "hit": false,
      "t": 70200,
      "d": 600,
      "v": 127
    },
    {
      "midi": 57,
      "hit": false,
      "t": 70200,
      "d": 600,
      "v": 127
    },
    {
      "midi": 56,
      "hit": false,
      "t": 70800,
      "d": 450,
      "v": 127
    },
    {
      "midi": 64,
      "hit": false,
      "t": 70800,
      "d": 450,
      "v": 127
    },
    {
      "midi": 40,
      "hit": false,
      "t": 70800,
      "d": 1200,
      "v": 127
    },
    {
      "midi": 50,
      "hit": false,
      "t": 70800,
      "d": 1200,
      "v": 127
    },
    {
      "midi": 67,
      "hit": false,
      "t": 71250,
      "d": 300,
      "v": 127
    },
    {
      "midi": 64,
      "hit": false,
      "t": 71550,
      "d": 450,
      "v": 127
    },
    {
      "midi": 60,
      "hit": false,
      "t": 72000,
      "d": 600,
      "v": 127
    },
    {
      "midi": 45,
      "hit": false,
      "t": 72000,
      "d": 600,
      "v": 127
    },
    {
      "midi": 57,
      "hit": false,
      "t": 72600,
      "d": 600,
      "v": 127
    },
    {
      "midi": 52,
      "hit": false,
      "t": 72600,
      "d": 600,
      "v": 127
    },
    {
      "midi": 43,
      "hit": false,
      "t": 73200,
      "d": 600,
      "v": 127
    },
    {
      "midi": 52,
      "hit": false,
      "t": 73200,
      "d": 600,
      "v": 127
    },
    {
      "midi": 48,
      "hit": false,
      "t": 73800,
      "d": 600,
      "v": 127
    },
    {
      "midi": 58,
      "hit": false,
      "t": 73800,
      "d": 600,
      "v": 127
    },
    {
      "midi": 57,
      "hit": false,
      "t": 74400,
      "d": 600,
      "v": 127
    },
    {
      "midi": 41,
      "hit": false,
      "t": 74400,
      "d": 600,
      "v": 127
    },
    {
      "midi": 65,
      "hit": false,
      "t": 75000,
      "d": 600,
      "v": 127
    },
    {
      "midi": 69,
      "hit": false,
      "t": 75000,
      "d": 600,
      "v": 127
    },
    {
      "midi": 48,
      "hit": false,
      "t": 75000,
      "d": 600,
      "v": 127
    },
    {
      "midi": 64,
      "hit": false,
      "t": 75600,
      "d": 450,
      "v": 127
    },
    {
      "midi": 67,
      "hit": false,
      "t": 75600,
      "d": 450,
      "v": 127
    },
    {
      "midi": 71,
      "hit": false,
      "t": 75600,
      "d": 450,
      "v": 127
    },
    {
      "midi": 40,
      "hit": false,
      "t": 75600,
      "d": 600,
      "v": 127
    },
    {
      "midi": 72,
      "hit": false,
      "t": 76050,
      "d": 300,
      "v": 127
    },
    {
      "midi": 52,
      "hit": false,
      "t": 76200,
      "d": 600,
      "v": 127
    },
    {
      "midi": 74,
      "hit": false,
      "t": 76350,
      "d": 450,
      "v": 127
    },
    {
      "midi": 65,
      "hit": false,
      "t": 76800,
      "d": 600,
      "v": 127
    },
    {
      "midi": 72,
      "hit": false,
      "t": 76800,
      "d": 600,
      "v": 127
    },
    {
      "midi": 38,
      "hit": false,
      "t": 76800,
      "d": 1200,
      "v": 127
    },
    {
      "midi": 45,
      "hit": false,
      "t": 76800,
      "d": 1200,
      "v": 127
    },
    {
      "midi": 60,
      "hit": false,
      "t": 77400,
      "d": 1200,
      "v": 127
    },
    {
      "midi": 65,
      "hit": false,
      "t": 77400,
      "d": 1200,
      "v": 127
    },
    {
      "midi": 71,
      "hit": false,
      "t": 77400,
      "d": 1200,
      "v": 127
    },
    {
      "midi": 41,
      "hit": false,
      "t": 78000,
      "d": 1200,
      "v": 127
    },
    {
      "midi": 60,
      "hit": false,
      "t": 78600,
      "d": 600,
      "v": 127
    },
    {
      "midi": 65,
      "hit": false,
      "t": 78600,
      "d": 600,
      "v": 127
    },
    {
      "midi": 69,
      "hit": false,
      "t": 78600,
      "d": 600,
      "v": 127
    },
    {
      "midi": 67,
      "hit": false,
      "t": 79200,
      "d": 600,
      "v": 127
    },
    {
      "midi": 38,
      "hit": false,
      "t": 79200,
      "d": 600,
      "v": 127
    },
    {
      "midi": 60,
      "hit": false,
      "t": 79800,
      "d": 1200,
      "v": 127
    },
    {
      "midi": 64,
      "hit": false,
      "t": 79800,
      "d": 1200,
      "v": 127
    },
    {
      "midi": 53,
      "hit": false,
      "t": 79800,
      "d": 600,
      "v": 127
    },
    {
      "midi": 57,
      "hit": false,
      "t": 79800,
      "d": 600,
      "v": 127
    },
    {
      "midi": 31,
      "hit": false,
      "t": 80400,
      "d": 600,
      "v": 127
    },
    {
      "midi": 43,
      "hit": false,
      "t": 80400,
      "d": 600,
      "v": 127
    },
    {
      "midi": 62,
      "hit": false,
      "t": 81000,
      "d": 600,
      "v": 127
    },
    {
      "midi": 53,
      "hit": false,
      "t": 81000,
      "d": 600,
      "v": 127
    },
    {
      "midi": 59,
      "hit": false,
      "t": 81000,
      "d": 600,
      "v": 127
    },
    {
      "midi": 52,
      "hit": false,
      "t": 81600,
      "d": 600,
      "v": 127
    },
    {
      "midi": 60,
      "hit": false,
      "t": 81600,
      "d": 600,
      "v": 127
    },
    {
      "midi": 36,
      "hit": false,
      "t": 81600,
      "d": 2400,
      "v": 127
    },
    {
      "midi": 43,
      "hit": false,
      "t": 81600,
      "d": 2400,
      "v": 127
    },
    {
      "midi": 55,
      "hit": false,
      "t": 82200,
      "d": 600,
      "v": 127
    },
    {
      "midi": 67,
      "hit": false,
      "t": 82200,
      "d": 600,
      "v": 127
    },
    {
      "midi": 67,
      "hit": false,
      "t": 82800,
      "d": 600,
      "v": 127
    },
    {
      "midi": 79,
      "hit": false,
      "t": 82800,
      "d": 600,
      "v": 127
    },
    {
      "midi": 55,
      "hit": false,
      "t": 83400,
      "d": 600,
      "v": 127
    },
    {
      "midi": 67,
      "hit": false,
      "t": 83400,
      "d": 600,
      "v": 127
    },
    {
      "midi": 67,
      "hit": false,
      "t": 84000,
      "d": 600,
      "v": 127
    },
    {
      "midi": 79,
      "hit": false,
      "t": 84000,
      "d": 600,
      "v": 127
    },
    {
      "midi": 55,
      "hit": false,
      "t": 84600,
      "d": 600,
      "v": 127
    },
    {
      "midi": 67,
      "hit": false,
      "t": 84600,
      "d": 600,
      "v": 127
    },
    {
      "midi": 67,
      "hit": false,
      "t": 85200,
      "d": 600,
      "v": 127
    },
    {
      "midi": 79,
      "hit": false,
      "t": 85200,
      "d": 600,
      "v": 127
    },
    {
      "midi": 55,
      "hit": false,
      "t": 85800,
      "d": 600,
      "v": 127
    },
    {
      "midi": 67,
      "hit": false,
      "t": 85800,
      "d": 600,
      "v": 127
    },
    {
      "midi": 67,
      "hit": false,
      "t": 86400,
      "d": 600,
      "v": 127
    },
    {
      "midi": 72,
      "hit": false,
      "t": 86400,
      "d": 600,
      "v": 127
    },
    {
      "midi": 77,
      "hit": false,
      "t": 86400,
      "d": 600,
      "v": 127
    },
    {
      "midi": 62,
      "hit": false,
      "t": 86400,
      "d": 600,
      "v": 127
    },
    {
      "midi": 67,
      "hit": false,
      "t": 87000,
      "d": 300,
      "v": 127
    },
    {
      "midi": 71,
      "hit": false,
      "t": 87000,
      "d": 300,
      "v": 127
    },
    {
      "midi": 77,
      "hit": false,
      "t": 87000,
      "d": 300,
      "v": 127
    },
    {
      "midi": 55,
      "hit": false,
      "t": 87000,
      "d": 600,
      "v": 127
    },
    {
      "midi": 77,
      "hit": false,
      "t": 87300,
      "d": 300,
      "v": 127
    },
    {
      "midi": 67,
      "hit": false,
      "t": 87600,
      "d": 600,
      "v": 127
    },
    {
      "midi": 74,
      "hit": false,
      "t": 87600,
      "d": 600,
      "v": 127
    },
    {
      "midi": 76,
      "hit": false,
      "t": 87600,
      "d": 600,
      "v": 127
    },
    {
      "midi": 60,
      "hit": false,
      "t": 87600,
      "d": 600,
      "v": 127
    },
    {
      "midi": 67,
      "hit": false,
      "t": 88200,
      "d": 600,
      "v": 127
    },
    {
      "midi": 72,
      "hit": false,
      "t": 88200,
      "d": 600,
      "v": 127
    },
    {
      "midi": 76,
      "hit": false,
      "t": 88200,
      "d": 600,
      "v": 127
    },
    {
      "midi": 55,
      "hit": false,
      "t": 88200,
      "d": 600,
      "v": 127
    },
    {
      "midi": 65,
      "hit": false,
      "t": 88800,
      "d": 300,
      "v": 127
    },
    {
      "midi": 72,
      "hit": false,
      "t": 88800,
      "d": 300,
      "v": 127
    },
    {
      "midi": 74,
      "hit": false,
      "t": 88800,
      "d": 300,
      "v": 127
    },
    {
      "midi": 62,
      "hit": false,
      "t": 88800,
      "d": 600,
      "v": 127
    },
    {
      "midi": 74,
      "hit": false,
      "t": 89100,
      "d": 300,
      "v": 127
    },
    {
      "midi": 65,
      "hit": false,
      "t": 89400,
      "d": 300,
      "v": 127
    },
    {
      "midi": 71,
      "hit": false,
      "t": 89400,
      "d": 300,
      "v": 127
    },
    {
      "midi": 74,
      "hit": false,
      "t": 89400,
      "d": 300,
      "v": 127
    },
    {
      "midi": 55,
      "hit": false,
      "t": 89400,
      "d": 600,
      "v": 127
    },
    {
      "midi": 74,
      "hit": false,
      "t": 89700,
      "d": 300,
      "v": 127
    },
    {
      "midi": 69,
      "hit": false,
      "t": 90000,
      "d": 600,
      "v": 127
    },
    {
      "midi": 72,
      "hit": false,
      "t": 90000,
      "d": 600,
      "v": 127
    },
    {
      "midi": 60,
      "hit": false,
      "t": 90000,
      "d": 600,
      "v": 127
    },
    {
      "midi": 67,
      "hit": false,
      "t": 90600,
      "d": 600,
      "v": 127
    },
    {
      "midi": 55,
      "hit": false,
      "t": 90600,
      "d": 600,
      "v": 127
    },
    {
      "midi": 67,
      "hit": false,
      "t": 91200,
      "d": 600,
      "v": 127
    },
    {
      "midi": 72,
      "hit": false,
      "t": 91200,
      "d": 600,
      "v": 127
    },
    {
      "midi": 77,
      "hit": false,
      "t": 91200,
      "d": 600,
      "v": 127
    },
    {
      "midi": 62,
      "hit": false,
      "t": 91200,
      "d": 600,
      "v": 127
    },
    {
      "midi": 67,
      "hit": false,
      "t": 91800,
      "d": 300,
      "v": 127
    },
    {
      "midi": 71,
      "hit": false,
      "t": 91800,
      "d": 300,
      "v": 127
    },
    {
      "midi": 77,
      "hit": false,
      "t": 91800,
      "d": 300,
      "v": 127
    },
    {
      "midi": 55,
      "hit": false,
      "t": 91800,
      "d": 600,
      "v": 127
    },
    {
      "midi": 77,
      "hit": false,
      "t": 92100,
      "d": 300,
      "v": 127
    },
    {
      "midi": 67,
      "hit": false,
      "t": 92400,
      "d": 600,
      "v": 127
    },
    {
      "midi": 74,
      "hit": false,
      "t": 92400,
      "d": 600,
      "v": 127
    },
    {
      "midi": 76,
      "hit": false,
      "t": 92400,
      "d": 600,
      "v": 127
    },
    {
      "midi": 60,
      "hit": false,
      "t": 92400,
      "d": 600,
      "v": 127
    },
    {
      "midi": 67,
      "hit": false,
      "t": 93000,
      "d": 600,
      "v": 127
    },
    {
      "midi": 72,
      "hit": false,
      "t": 93000,
      "d": 600,
      "v": 127
    },
    {
      "midi": 76,
      "hit": false,
      "t": 93000,
      "d": 600,
      "v": 127
    },
    {
      "midi": 55,
      "hit": false,
      "t": 93000,
      "d": 600,
      "v": 127
    },
    {
      "midi": 67,
      "hit": false,
      "t": 93600,
      "d": 600,
      "v": 127
    },
    {
      "midi": 72,
      "hit": false,
      "t": 93600,
      "d": 600,
      "v": 127
    },
    {
      "midi": 74,
      "hit": false,
      "t": 93600,
      "d": 600,
      "v": 127
    },
    {
      "midi": 57,
      "hit": false,
      "t": 93600,
      "d": 600,
      "v": 127
    },
    {
      "midi": 64,
      "hit": false,
      "t": 93600,
      "d": 600,
      "v": 127
    },
    {
      "midi": 74,
      "hit": false,
      "t": 94200,
      "d": 600,
      "v": 127
    },
    {
      "midi": 45,
      "hit": false,
      "t": 94200,
      "d": 600,
      "v": 127
    },
    {
      "midi": 66,
      "hit": false,
      "t": 94800,
      "d": 600,
      "v": 127
    },
    {
      "midi": 72,
      "hit": false,
      "t": 94800,
      "d": 600,
      "v": 127
    },
    {
      "midi": 74,
      "hit": false,
      "t": 94800,
      "d": 600,
      "v": 127
    },
    {
      "midi": 50,
      "hit": false,
      "t": 94800,
      "d": 600,
      "v": 127
    },
    {
      "midi": 74,
      "hit": false,
      "t": 95400,
      "d": 600,
      "v": 127
    },
    {
      "midi": 38,
      "hit": false,
      "t": 95400,
      "d": 600,
      "v": 127
    },
    {
      "midi": 67,
      "hit": false,
      "t": 96000,
      "d": 600,
      "v": 127
    },
    {
      "midi": 71,
      "hit": false,
      "t": 96000,
      "d": 600,
      "v": 127
    },
    {
      "midi": 79,
      "hit": false,
      "t": 96000,
      "d": 600,
      "v": 127
    },
    {
      "midi": 43,
      "hit": false,
      "t": 96000,
      "d": 1200,
      "v": 127
    },
    {
      "midi": 50,
      "hit": false,
      "t": 96000,
      "d": 1200,
      "v": 127
    },
    {
      "midi": 61,
      "hit": false,
      "t": 96600,
      "d": 300,
      "v": 127
    },
    {
      "midi": 73,
      "hit": false,
      "t": 96600,
      "d": 300,
      "v": 127
    },
    {
      "midi": 62,
      "hit": false,
      "t": 96900,
      "d": 300,
      "v": 127
    },
    {
      "midi": 74,
      "hit": false,
      "t": 96900,
      "d": 300,
      "v": 127
    },
    {
      "midi": 75,
      "hit": false,
      "t": 97200,
      "d": 600,
      "v": 127
    },
    {
      "midi": 55,
      "hit": false,
      "t": 97200,
      "d": 600,
      "v": 127
    },
    {
      "midi": 61,
      "hit": false,
      "t": 97200,
      "d": 600,
      "v": 127
    },
    {
      "midi": 74,
      "hit": false,
      "t": 97800,
      "d": 300,
      "v": 127
    },
    {
      "midi": 62,
      "hit": false,
      "t": 97800,
      "d": 300,
      "v": 127
    },
    {
      "midi": 75,
      "hit": false,
      "t": 98100,
      "d": 300,
      "v": 127
    },
    {
      "midi": 63,
      "hit": false,
      "t": 98100,
      "d": 300,
      "v": 127
    },
    {
      "midi": 70,
      "hit": false,
      "t": 98400,
      "d": 600,
      "v": 127
    },
    {
      "midi": 73,
      "hit": false,
      "t": 98400,
      "d": 600,
      "v": 127
    },
    {
      "midi": 76,
      "hit": false,
      "t": 98400,
      "d": 600,
      "v": 127
    },
    {
      "midi": 64,
      "hit": false,
      "t": 98400,
      "d": 600,
      "v": 127
    },
    {
      "midi": 63,
      "hit": false,
      "t": 99000,
      "d": 300,
      "v": 127
    },
    {
      "midi": 75,
      "hit": false,
      "t": 99000,
      "d": 300,
      "v": 127
    },
    {
      "midi": 64,
      "hit": false,
      "t": 99300,
      "d": 300,
      "v": 127
    },
    {
      "midi": 76,
      "hit": false,
      "t": 99300,
      "d": 300,
      "v": 127
    },
    {
      "midi": 69,
      "hit": false,
      "t": 99600,
      "d": 600,
      "v": 127
    },
    {
      "midi": 74,
      "hit": false,
      "t": 99600,
      "d": 600,
      "v": 127
    },
    {
      "midi": 77,
      "hit": false,
      "t": 99600,
      "d": 600,
      "v": 127
    },
    {
      "midi": 55,
      "hit": false,
      "t": 99600,
      "d": 600,
      "v": 127
    },
    {
      "midi": 60,
      "hit": false,
      "t": 99600,
      "d": 600,
      "v": 127
    },
    {
      "midi": 62,
      "hit": false,
      "t": 99600,
      "d": 600,
      "v": 127
    },
    {
      "midi": 64,
      "hit": false,
      "t": 99600,
      "d": 600,
      "v": 127
    },
    {
      "midi": 69,
      "hit": false,
      "t": 100200,
      "d": 600,
      "v": 127
    },
    {
      "midi": 72,
      "hit": false,
      "t": 100200,
      "d": 600,
      "v": 127
    },
    {
      "midi": 75,
      "hit": false,
      "t": 100200,
      "d": 600,
      "v": 127
    },
    {
      "midi": 78,
      "hit": false,
      "t": 100200,
      "d": 600,
      "v": 127
    },
    {
      "midi": 55,
      "hit": false,
      "t": 100200,
      "d": 600,
      "v": 127
    },
    {
      "midi": 60,
      "hit": false,
      "t": 100200,
      "d": 600,
      "v": 127
    },
    {
      "midi": 63,
      "hit": false,
      "t": 100200,
      "d": 600,
      "v": 127
    },
    {
      "midi": 67,
      "hit": false,
      "t": 100800,
      "d": 300,
      "v": 127
    },
    {
      "midi": 76,
      "hit": false,
      "t": 100800,
      "d": 300,
      "v": 127
    },
    {
      "midi": 79,
      "hit": false,
      "t": 100800,
      "d": 300,
      "v": 127
    },
    {
      "midi": 36,
      "hit": false,
      "t": 100800,
      "d": 600,
      "v": 127
    },
    {
      "midi": 48,
      "hit": false,
      "t": 100800,
      "d": 600,
      "v": 127
    },
    {
      "midi": 66,
      "hit": false,
      "t": 101100,
      "d": 300,
      "v": 127
    },
    {
      "midi": 78,
      "hit": false,
      "t": 101100,
      "d": 300,
      "v": 127
    },
    {
      "midi": 69,
      "hit": false,
      "t": 101400,
      "d": 300,
      "v": 127
    },
    {
      "midi": 76,
      "hit": false,
      "t": 101400,
      "d": 300,
      "v": 127
    },
    {
      "midi": 81,
      "hit": false,
      "t": 101400,
      "d": 300,
      "v": 127
    },
    {
      "midi": 57,
      "hit": false,
      "t": 101400,
      "d": 600,
      "v": 127
    },
    {
      "midi": 60,
      "hit": false,
      "t": 101400,
      "d": 600,
      "v": 127
    },
    {
      "midi": 64,
      "hit": false,
      "t": 101400,
      "d": 600,
      "v": 127
    },
    {
      "midi": 67,
      "hit": false,
      "t": 101700,
      "d": 300,
      "v": 127
    },
    {
      "midi": 79,
      "hit": false,
      "t": 101700,
      "d": 300,
      "v": 127
    },
    {
      "midi": 67,
      "hit": false,
      "t": 102000,
      "d": 600,
      "v": 127
    },
    {
      "midi": 76,
      "hit": false,
      "t": 102000,
      "d": 600,
      "v": 127
    },
    {
      "midi": 79,
      "hit": false,
      "t": 102000,
      "d": 600,
      "v": 127
    },
    {
      "midi": 31,
      "hit": false,
      "t": 102000,
      "d": 600,
      "v": 127
    },
    {
      "midi": 43,
      "hit": false,
      "t": 102000,
      "d": 600,
      "v": 127
    },
    {
      "midi": 64,
      "hit": false,
      "t": 102600,
      "d": 600,
      "v": 127
    },
    {
      "midi": 67,
      "hit": false,
      "t": 102600,
      "d": 600,
      "v": 127
    },
    {
      "midi": 72,
      "hit": false,
      "t": 102600,
      "d": 600,
      "v": 127
    },
    {
      "midi": 52,
      "hit": false,
      "t": 102600,
      "d": 600,
      "v": 127
    },
    {
      "midi": 55,
      "hit": false,
      "t": 102600,
      "d": 600,
      "v": 127
    },
    {
      "midi": 60,
      "hit": false,
      "t": 102600,
      "d": 600,
      "v": 127
    },
    {
      "midi": 67,
      "hit": false,
      "t": 103200,
      "d": 300,
      "v": 127
    },
    {
      "midi": 40,
      "hit": false,
      "t": 103200,
      "d": 600,
      "v": 127
    },
    {
      "midi": 66,
      "hit": false,
      "t": 103500,
      "d": 300,
      "v": 127
    },
    {
      "midi": 60,
      "hit": false,
      "t": 103800,
      "d": 300,
      "v": 127
    },
    {
      "midi": 64,
      "hit": false,
      "t": 103800,
      "d": 300,
      "v": 127
    },
    {
      "midi": 69,
      "hit": false,
      "t": 103800,
      "d": 300,
      "v": 127
    },
    {
      "midi": 43,
      "hit": false,
      "t": 103800,
      "d": 600,
      "v": 127
    },
    {
      "midi": 67,
      "hit": false,
      "t": 104100,
      "d": 300,
      "v": 127
    },
    {
      "midi": 67,
      "hit": false,
      "t": 104400,
      "d": 600,
      "v": 127
    },
    {
      "midi": 31,
      "hit": false,
      "t": 104400,
      "d": 600,
      "v": 127
    },
    {
      "midi": 55,
      "hit": false,
      "t": 105000,
      "d": 600,
      "v": 127
    },
    {
      "midi": 60,
      "hit": false,
      "t": 105000,
      "d": 600,
      "v": 127
    },
    {
      "midi": 43,
      "hit": false,
      "t": 105000,
      "d": 600,
      "v": 127
    },
    {
      "midi": 52,
      "hit": false,
      "t": 105000,
      "d": 600,
      "v": 127
    },
    {
      "midi": 67,
      "hit": false,
      "t": 105600,
      "d": 300,
      "v": 127
    },
    {
      "midi": 72,
      "hit": false,
      "t": 105600,
      "d": 300,
      "v": 127
    },
    {
      "midi": 74,
      "hit": false,
      "t": 105600,
      "d": 300,
      "v": 127
    },
    {
      "midi": 79,
      "hit": false,
      "t": 105600,
      "d": 300,
      "v": 127
    },
    {
      "midi": 38,
      "hit": false,
      "t": 105600,
      "d": 600,
      "v": 127
    },
    {
      "midi": 50,
      "hit": false,
      "t": 105600,
      "d": 600,
      "v": 127
    },
    {
      "midi": 66,
      "hit": false,
      "t": 105900,
      "d": 300,
      "v": 127
    },
    {
      "midi": 78,
      "hit": false,
      "t": 105900,
      "d": 300,
      "v": 127
    },
    {
      "midi": 69,
      "hit": false,
      "t": 106200,
      "d": 300,
      "v": 127
    },
    {
      "midi": 74,
      "hit": false,
      "t": 106200,
      "d": 300,
      "v": 127
    },
    {
      "midi": 81,
      "hit": false,
      "t": 106200,
      "d": 300,
      "v": 127
    },
    {
      "midi": 57,
      "hit": false,
      "t": 106200,
      "d": 600,
      "v": 127
    },
    {
      "midi": 60,
      "hit": false,
      "t": 106200,
      "d": 600,
      "v": 127
    },
    {
      "midi": 62,
      "hit": false,
      "t": 106200,
      "d": 600,
      "v": 127
    },
    {
      "midi": 65,
      "hit": false,
      "t": 106200,
      "d": 600,
      "v": 127
    },
    {
      "midi": 67,
      "hit": false,
      "t": 106500,
      "d": 300,
      "v": 127
    },
    {
      "midi": 79,
      "hit": false,
      "t": 106500,
      "d": 300,
      "v": 127
    },
    {
      "midi": 67,
      "hit": false,
      "t": 106800,
      "d": 600,
      "v": 127
    },
    {
      "midi": 79,
      "hit": false,
      "t": 106800,
      "d": 600,
      "v": 127
    },
    {
      "midi": 31,
      "hit": false,
      "t": 106800,
      "d": 600,
      "v": 127
    },
    {
      "midi": 43,
      "hit": false,
      "t": 106800,
      "d": 600,
      "v": 127
    },
    {
      "midi": 71,
      "hit": false,
      "t": 107400,
      "d": 600,
      "v": 127
    },
    {
      "midi": 77,
      "hit": false,
      "t": 107400,
      "d": 600,
      "v": 127
    },
    {
      "midi": 83,
      "hit": false,
      "t": 107400,
      "d": 600,
      "v": 127
    },
    {
      "midi": 59,
      "hit": false,
      "t": 107400,
      "d": 600,
      "v": 127
    },
    {
      "midi": 65,
      "hit": false,
      "t": 107400,
      "d": 600,
      "v": 127
    },
    {
      "midi": 67,
      "hit": false,
      "t": 107400,
      "d": 600,
      "v": 127
    },
    {
      "midi": 67,
      "hit": false,
      "t": 108000,
      "d": 300,
      "v": 127
    },
    {
      "midi": 38,
      "hit": false,
      "t": 108000,
      "d": 600,
      "v": 127
    },
    {
      "midi": 66,
      "hit": false,
      "t": 108300,
      "d": 300,
      "v": 127
    },
    {
      "midi": 59,
      "hit": false,
      "t": 108600,
      "d": 300,
      "v": 127
    },
    {
      "midi": 65,
      "hit": false,
      "t": 108600,
      "d": 300,
      "v": 127
    },
    {
      "midi": 69,
      "hit": false,
      "t": 108600,
      "d": 300,
      "v": 127
    },
    {
      "midi": 43,
      "hit": false,
      "t": 108600,
      "d": 600,
      "v": 127
    },
    {
      "midi": 67,
      "hit": false,
      "t": 108900,
      "d": 300,
      "v": 127
    },
    {
      "midi": 67,
      "hit": false,
      "t": 109200,
      "d": 600,
      "v": 127
    },
    {
      "midi": 31,
      "hit": false,
      "t": 109200,
      "d": 600,
      "v": 127
    },
    {
      "midi": 65,
      "hit": false,
      "t": 109800,
      "d": 600,
      "v": 127
    },
    {
      "midi": 71,
      "hit": false,
      "t": 109800,
      "d": 600,
      "v": 127
    },
    {
      "midi": 74,
      "hit": false,
      "t": 109800,
      "d": 600,
      "v": 127
    },
    {
      "midi": 43,
      "hit": false,
      "t": 109800,
      "d": 600,
      "v": 127
    },
    {
      "midi": 67,
      "hit": false,
      "t": 110400,
      "d": 300,
      "v": 127
    },
    {
      "midi": 76,
      "hit": false,
      "t": 110400,
      "d": 300,
      "v": 127
    },
    {
      "midi": 79,
      "hit": false,
      "t": 110400,
      "d": 300,
      "v": 127
    },
    {
      "midi": 40,
      "hit": false,
      "t": 110400,
      "d": 600,
      "v": 127
    },
    {
      "midi": 52,
      "hit": false,
      "t": 110400,
      "d": 600,
      "v": 127
    },
    {
      "midi": 66,
      "hit": false,
      "t": 110700,
      "d": 300,
      "v": 127
    },
    {
      "midi": 78,
      "hit": false,
      "t": 110700,
      "d": 300,
      "v": 127
    },
    {
      "midi": 69,
      "hit": false,
      "t": 111000,
      "d": 300,
      "v": 127
    },
    {
      "midi": 76,
      "hit": false,
      "t": 111000,
      "d": 300,
      "v": 127
    },
    {
      "midi": 81,
      "hit": false,
      "t": 111000,
      "d": 300,
      "v": 127
    },
    {
      "midi": 55,
      "hit": false,
      "t": 111000,
      "d": 600,
      "v": 127
    },
    {
      "midi": 60,
      "hit": false,
      "t": 111000,
      "d": 600,
      "v": 127
    },
    {
      "midi": 64,
      "hit": false,
      "t": 111000,
      "d": 600,
      "v": 127
    },
    {
      "midi": 67,
      "hit": false,
      "t": 111300,
      "d": 300,
      "v": 127
    },
    {
      "midi": 79,
      "hit": false,
      "t": 111300,
      "d": 300,
      "v": 127
    },
    {
      "midi": 67,
      "hit": false,
      "t": 111600,
      "d": 600,
      "v": 127
    },
    {
      "midi": 76,
      "hit": false,
      "t": 111600,
      "d": 600,
      "v": 127
    },
    {
      "midi": 79,
      "hit": false,
      "t": 111600,
      "d": 600,
      "v": 127
    },
    {
      "midi": 31,
      "hit": false,
      "t": 111600,
      "d": 600,
      "v": 127
    },
    {
      "midi": 43,
      "hit": false,
      "t": 111600,
      "d": 600,
      "v": 127
    },
    {
      "midi": 72,
      "hit": false,
      "t": 112200,
      "d": 600,
      "v": 127
    },
    {
      "midi": 79,
      "hit": false,
      "t": 112200,
      "d": 600,
      "v": 127
    },
    {
      "midi": 84,
      "hit": false,
      "t": 112200,
      "d": 600,
      "v": 127
    },
    {
      "midi": 55,
      "hit": false,
      "t": 112200,
      "d": 600,
      "v": 127
    },
    {
      "midi": 60,
      "hit": false,
      "t": 112200,
      "d": 600,
      "v": 127
    },
    {
      "midi": 64,
      "hit": false,
      "t": 112200,
      "d": 600,
      "v": 127
    },
    {
      "midi": 40,
      "hit": false,
      "t": 112800,
      "d": 600,
      "v": 127
    },
    {
      "midi": 48,
      "hit": false,
      "t": 112800,
      "d": 600,
      "v": 127
    },
    {
      "midi": 72,
      "hit": false,
      "t": 113400,
      "d": 600,
      "v": 127
    },
    {
      "midi": 80,
      "hit": false,
      "t": 113400,
      "d": 600,
      "v": 127
    },
    {
      "midi": 84,
      "hit": false,
      "t": 113400,
      "d": 600,
      "v": 127
    },
    {
      "midi": 56,
      "hit": false,
      "t": 113400,
      "d": 1200,
      "v": 127
    },
    {
      "midi": 60,
      "hit": false,
      "t": 113400,
      "d": 1200,
      "v": 127
    },
    {
      "midi": 64,
      "hit": false,
      "t": 113400,
      "d": 1200,
      "v": 127
    },
    {
      "midi": 72,
      "hit": false,
      "t": 114000,
      "d": 600,
      "v": 127
    },
    {
      "midi": 80,
      "hit": false,
      "t": 114000,
      "d": 600,
      "v": 127
    },
    {
      "midi": 84,
      "hit": false,
      "t": 114000,
      "d": 600,
      "v": 127
    },
    {
      "midi": 72,
      "hit": false,
      "t": 114600,
      "d": 600,
      "v": 127
    },
    {
      "midi": 80,
      "hit": false,
      "t": 114600,
      "d": 600,
      "v": 127
    },
    {
      "midi": 84,
      "hit": false,
      "t": 114600,
      "d": 600,
      "v": 127
    },
    {
      "midi": 56,
      "hit": false,
      "t": 114600,
      "d": 600,
      "v": 127
    },
    {
      "midi": 60,
      "hit": false,
      "t": 114600,
      "d": 600,
      "v": 127
    },
    {
      "midi": 64,
      "hit": false,
      "t": 114600,
      "d": 600,
      "v": 127
    },
    {
      "midi": 69,
      "hit": false,
      "t": 115200,
      "d": 900,
      "v": 127
    },
    {
      "midi": 76,
      "hit": false,
      "t": 115200,
      "d": 900,
      "v": 127
    },
    {
      "midi": 81,
      "hit": false,
      "t": 115200,
      "d": 900,
      "v": 127
    },
    {
      "midi": 41,
      "hit": false,
      "t": 115200,
      "d": 600,
      "v": 127
    },
    {
      "midi": 52,
      "hit": false,
      "t": 115200,
      "d": 600,
      "v": 127
    },
    {
      "midi": 57,
      "hit": false,
      "t": 115800,
      "d": 600,
      "v": 127
    },
    {
      "midi": 60,
      "hit": false,
      "t": 115800,
      "d": 600,
      "v": 127
    },
    {
      "midi": 64,
      "hit": false,
      "t": 116100,
      "d": 300,
      "v": 127
    },
    {
      "midi": 76,
      "hit": false,
      "t": 116100,
      "d": 300,
      "v": 127
    },
    {
      "midi": 62,
      "hit": false,
      "t": 116400,
      "d": 600,
      "v": 127
    },
    {
      "midi": 74,
      "hit": false,
      "t": 116400,
      "d": 600,
      "v": 127
    },
    {
      "midi": 36,
      "hit": false,
      "t": 116400,
      "d": 1200,
      "v": 127
    },
    {
      "midi": 50,
      "hit": false,
      "t": 116400,
      "d": 1200,
      "v": 127
    },
    {
      "midi": 57,
      "hit": false,
      "t": 117000,
      "d": 600,
      "v": 127
    },
    {
      "midi": 60,
      "hit": false,
      "t": 117000,
      "d": 600,
      "v": 127
    },
    {
      "midi": 65,
      "hit": false,
      "t": 117000,
      "d": 600,
      "v": 127
    },
    {
      "midi": 69,
      "hit": false,
      "t": 117000,
      "d": 600,
      "v": 127
    },
    {
      "midi": 41,
      "hit": false,
      "t": 117600,
      "d": 600,
      "v": 127
    },
    {
      "midi": 48,
      "hit": false,
      "t": 117600,
      "d": 600,
      "v": 127
    },
    {
      "midi": 62,
      "hit": false,
      "t": 118200,
      "d": 600,
      "v": 127
    },
    {
      "midi": 69,
      "hit": false,
      "t": 118200,
      "d": 600,
      "v": 127
    },
    {
      "midi": 74,
      "hit": false,
      "t": 118200,
      "d": 600,
      "v": 127
    },
    {
      "midi": 57,
      "hit": false,
      "t": 118200,
      "d": 600,
      "v": 127
    },
    {
      "midi": 60,
      "hit": false,
      "t": 118200,
      "d": 600,
      "v": 127
    },
    {
      "midi": 64,
      "hit": false,
      "t": 118800,
      "d": 450,
      "v": 127
    },
    {
      "midi": 72,
      "hit": false,
      "t": 118800,
      "d": 450,
      "v": 127
    },
    {
      "midi": 76,
      "hit": false,
      "t": 118800,
      "d": 450,
      "v": 127
    },
    {
      "midi": 40,
      "hit": false,
      "t": 118800,
      "d": 600,
      "v": 127
    },
    {
      "midi": 52,
      "hit": false,
      "t": 118800,
      "d": 600,
      "v": 127
    },
    {
      "midi": 67,
      "hit": false,
      "t": 119250,
      "d": 300,
      "v": 127
    },
    {
      "midi": 79,
      "hit": false,
      "t": 119250,
      "d": 300,
      "v": 127
    },
    {
      "midi": 57,
      "hit": false,
      "t": 119400,
      "d": 600,
      "v": 127
    },
    {
      "midi": 60,
      "hit": false,
      "t": 119400,
      "d": 600,
      "v": 127
    },
    {
      "midi": 64,
      "hit": false,
      "t": 119550,
      "d": 450,
      "v": 127
    },
    {
      "midi": 76,
      "hit": false,
      "t": 119550,
      "d": 450,
      "v": 127
    },
    {
      "midi": 62,
      "hit": false,
      "t": 120000,
      "d": 600,
      "v": 127
    },
    {
      "midi": 38,
      "hit": false,
      "t": 120000,
      "d": 1200,
      "v": 127
    },
    {
      "midi": 50,
      "hit": false,
      "t": 120000,
      "d": 1200,
      "v": 127
    },
    {
      "midi": 60,
      "hit": false,
      "t": 120600,
      "d": 600,
      "v": 127
    },
    {
      "midi": 65,
      "hit": false,
      "t": 120600,
      "d": 600,
      "v": 127
    },
    {
      "midi": 69,
      "hit": false,
      "t": 120600,
      "d": 600,
      "v": 127
    },
    {
      "midi": 59,
      "hit": false,
      "t": 121200,
      "d": 600,
      "v": 127
    },
    {
      "midi": 31,
      "hit": false,
      "t": 121200,
      "d": 1200,
      "v": 127
    },
    {
      "midi": 43,
      "hit": false,
      "t": 121200,
      "d": 1200,
      "v": 127
    },
    {
      "midi": 59,
      "hit": false,
      "t": 121800,
      "d": 600,
      "v": 127
    },
    {
      "midi": 65,
      "hit": false,
      "t": 121800,
      "d": 600,
      "v": 127
    },
    {
      "midi": 67,
      "hit": false,
      "t": 121800,
      "d": 600,
      "v": 127
    },
    {
      "midi": 57,
      "hit": false,
      "t": 122400,
      "d": 600,
      "v": 127
    },
    {
      "midi": 38,
      "hit": false,
      "t": 122400,
      "d": 600,
      "v": 127
    },
    {
      "midi": 62,
      "hit": false,
      "t": 123000,
      "d": 600,
      "v": 127
    },
    {
      "midi": 69,
      "hit": false,
      "t": 123000,
      "d": 600,
      "v": 127
    },
    {
      "midi": 74,
      "hit": false,
      "t": 123000,
      "d": 600,
      "v": 127
    },
    {
      "midi": 57,
      "hit": false,
      "t": 123000,
      "d": 600,
      "v": 127
    },
    {
      "midi": 60,
      "hit": false,
      "t": 123000,
      "d": 600,
      "v": 127
    },
    {
      "midi": 64,
      "hit": false,
      "t": 123600,
      "d": 450,
      "v": 127
    },
    {
      "midi": 76,
      "hit": false,
      "t": 123600,
      "d": 450,
      "v": 127
    },
    {
      "midi": 40,
      "hit": false,
      "t": 123600,
      "d": 600,
      "v": 127
    },
    {
      "midi": 67,
      "hit": false,
      "t": 124050,
      "d": 150,
      "v": 127
    },
    {
      "midi": 79,
      "hit": false,
      "t": 124050,
      "d": 150,
      "v": 127
    },
    {
      "midi": 62,
      "hit": false,
      "t": 124200,
      "d": 150,
      "v": 127
    },
    {
      "midi": 52,
      "hit": false,
      "t": 124200,
      "d": 600,
      "v": 127
    },
    {
      "midi": 56,
      "hit": false,
      "t": 124200,
      "d": 600,
      "v": 127
    },
    {
      "midi": 64,
      "hit": false,
      "t": 124350,
      "d": 450,
      "v": 127
    },
    {
      "midi": 76,
      "hit": false,
      "t": 124350,
      "d": 450,
      "v": 127
    },
    {
      "midi": 72,
      "hit": false,
      "t": 124800,
      "d": 600,
      "v": 127
    },
    {
      "midi": 84,
      "hit": false,
      "t": 124800,
      "d": 600,
      "v": 127
    },
    {
      "midi": 33,
      "hit": false,
      "t": 124800,
      "d": 600,
      "v": 127
    },
    {
      "midi": 45,
      "hit": false,
      "t": 124800,
      "d": 600,
      "v": 127
    },
    {
      "midi": 60,
      "hit": false,
      "t": 125400,
      "d": 600,
      "v": 127
    },
    {
      "midi": 67,
      "hit": false,
      "t": 125400,
      "d": 600,
      "v": 127
    },
    {
      "midi": 52,
      "hit": false,
      "t": 125400,
      "d": 600,
      "v": 127
    },
    {
      "midi": 57,
      "hit": false,
      "t": 125400,
      "d": 600,
      "v": 127
    },
    {
      "midi": 79,
      "hit": false,
      "t": 126000,
      "d": 600,
      "v": 127
    },
    {
      "midi": 31,
      "hit": false,
      "t": 126000,
      "d": 600,
      "v": 127
    },
    {
      "midi": 43,
      "hit": false,
      "t": 126000,
      "d": 600,
      "v": 127
    },
    {
      "midi": 67,
      "hit": false,
      "t": 126600,
      "d": 600,
      "v": 127
    },
    {
      "midi": 52,
      "hit": false,
      "t": 126600,
      "d": 600,
      "v": 127
    },
    {
      "midi": 58,
      "hit": false,
      "t": 126600,
      "d": 600,
      "v": 127
    },
    {
      "midi": 60,
      "hit": false,
      "t": 126600,
      "d": 600,
      "v": 127
    },
    {
      "midi": 29,
      "hit": false,
      "t": 127200,
      "d": 600,
      "v": 127
    },
    {
      "midi": 41,
      "hit": false,
      "t": 127200,
      "d": 600,
      "v": 127
    },
    {
      "midi": 69,
      "hit": false,
      "t": 127800,
      "d": 600,
      "v": 127
    },
    {
      "midi": 77,
      "hit": false,
      "t": 127800,
      "d": 600,
      "v": 127
    },
    {
      "midi": 81,
      "hit": false,
      "t": 127800,
      "d": 600,
      "v": 127
    },
    {
      "midi": 57,
      "hit": false,
      "t": 127800,
      "d": 600,
      "v": 127
    },
    {
      "midi": 60,
      "hit": false,
      "t": 127800,
      "d": 600,
      "v": 127
    },
    {
      "midi": 65,
      "hit": false,
      "t": 127800,
      "d": 600,
      "v": 127
    },
    {
      "midi": 71,
      "hit": false,
      "t": 128400,
      "d": 450,
      "v": 127
    },
    {
      "midi": 77,
      "hit": false,
      "t": 128400,
      "d": 450,
      "v": 127
    },
    {
      "midi": 83,
      "hit": false,
      "t": 128400,
      "d": 450,
      "v": 127
    },
    {
      "midi": 40,
      "hit": false,
      "t": 128400,
      "d": 1200,
      "v": 127
    },
    {
      "midi": 52,
      "hit": false,
      "t": 128400,
      "d": 1200,
      "v": 127
    },
    {
      "midi": 72,
      "hit": false,
      "t": 128850,
      "d": 150,
      "v": 127
    },
    {
      "midi": 79,
      "hit": false,
      "t": 128850,
      "d": 150,
      "v": 127
    },
    {
      "midi": 84,
      "hit": false,
      "t": 128850,
      "d": 150,
      "v": 127
    },
    {
      "midi": 55,
      "hit": false,
      "t": 129000,
      "d": 150,
      "v": 127
    },
    {
      "midi": 60,
      "hit": false,
      "t": 129000,
      "d": 150,
      "v": 127
    },
    {
      "midi": 64,
      "hit": false,
      "t": 129000,
      "d": 150,
      "v": 127
    },
    {
      "midi": 74,
      "hit": false,
      "t": 129150,
      "d": 450,
      "v": 127
    },
    {
      "midi": 79,
      "hit": false,
      "t": 129150,
      "d": 450,
      "v": 127
    },
    {
      "midi": 86,
      "hit": false,
      "t": 129150,
      "d": 450,
      "v": 127
    },
    {
      "midi": 72,
      "hit": false,
      "t": 129600,
      "d": 600,
      "v": 127
    },
    {
      "midi": 77,
      "hit": false,
      "t": 129600,
      "d": 600,
      "v": 127
    },
    {
      "midi": 84,
      "hit": false,
      "t": 129600,
      "d": 600,
      "v": 127
    },
    {
      "midi": 38,
      "hit": false,
      "t": 129600,
      "d": 600,
      "v": 127
    },
    {
      "midi": 50,
      "hit": false,
      "t": 129600,
      "d": 600,
      "v": 127
    },
    {
      "midi": 71,
      "hit": false,
      "t": 130200,
      "d": 1200,
      "v": 127
    },
    {
      "midi": 77,
      "hit": false,
      "t": 130200,
      "d": 1200,
      "v": 127
    },
    {
      "midi": 83,
      "hit": false,
      "t": 130200,
      "d": 1200,
      "v": 127
    },
    {
      "midi": 57,
      "hit": false,
      "t": 130200,
      "d": 600,
      "v": 127
    },
    {
      "midi": 62,
      "hit": false,
      "t": 130200,
      "d": 600,
      "v": 127
    },
    {
      "midi": 65,
      "hit": false,
      "t": 130200,
      "d": 600,
      "v": 127
    },
    {
      "midi": 41,
      "hit": false,
      "t": 130800,
      "d": 600,
      "v": 127
    },
    {
      "midi": 53,
      "hit": false,
      "t": 130800,
      "d": 600,
      "v": 127
    },
    {
      "midi": 69,
      "hit": false,
      "t": 131400,
      "d": 600,
      "v": 127
    },
    {
      "midi": 77,
      "hit": false,
      "t": 131400,
      "d": 600,
      "v": 127
    },
    {
      "midi": 81,
      "hit": false,
      "t": 131400,
      "d": 600,
      "v": 127
    },
    {
      "midi": 57,
      "hit": false,
      "t": 131400,
      "d": 600,
      "v": 127
    },
    {
      "midi": 62,
      "hit": false,
      "t": 131400,
      "d": 600,
      "v": 127
    },
    {
      "midi": 65,
      "hit": false,
      "t": 131400,
      "d": 600,
      "v": 127
    },
    {
      "midi": 72,
      "hit": false,
      "t": 132000,
      "d": 600,
      "v": 127
    },
    {
      "midi": 81,
      "hit": false,
      "t": 132000,
      "d": 600,
      "v": 127
    },
    {
      "midi": 84,
      "hit": false,
      "t": 132000,
      "d": 600,
      "v": 127
    },
    {
      "midi": 31,
      "hit": false,
      "t": 132000,
      "d": 600,
      "v": 127
    },
    {
      "midi": 43,
      "hit": false,
      "t": 132000,
      "d": 600,
      "v": 127
    },
    {
      "midi": 69,
      "hit": false,
      "t": 132600,
      "d": 1200,
      "v": 127
    },
    {
      "midi": 77,
      "hit": false,
      "t": 132600,
      "d": 1200,
      "v": 127
    },
    {
      "midi": 81,
      "hit": false,
      "t": 132600,
      "d": 1200,
      "v": 127
    },
    {
      "midi": 57,
      "hit": false,
      "t": 132600,
      "d": 600,
      "v": 127
    },
    {
      "midi": 60,
      "hit": false,
      "t": 132600,
      "d": 600,
      "v": 127
    },
    {
      "midi": 65,
      "hit": false,
      "t": 132600,
      "d": 600,
      "v": 127
    },
    {
      "midi": 31,
      "hit": false,
      "t": 133200,
      "d": 600,
      "v": 127
    },
    {
      "midi": 43,
      "hit": false,
      "t": 133200,
      "d": 600,
      "v": 127
    },
    {
      "midi": 74,
      "hit": false,
      "t": 133800,
      "d": 600,
      "v": 127
    },
    {
      "midi": 79,
      "hit": false,
      "t": 133800,
      "d": 600,
      "v": 127
    },
    {
      "midi": 86,
      "hit": false,
      "t": 133800,
      "d": 600,
      "v": 127
    },
    {
      "midi": 55,
      "hit": false,
      "t": 133800,
      "d": 600,
      "v": 127
    },
    {
      "midi": 59,
      "hit": false,
      "t": 133800,
      "d": 600,
      "v": 127
    },
    {
      "midi": 65,
      "hit": false,
      "t": 133800,
      "d": 600,
      "v": 127
    },
    {
      "midi": 72,
      "hit": false,
      "t": 134400,
      "d": 600,
      "v": 127
    },
    {
      "midi": 84,
      "hit": false,
      "t": 134400,
      "d": 600,
      "v": 127
    },
    {
      "midi": 36,
      "hit": false,
      "t": 134400,
      "d": 2400,
      "v": 127
    },
    {
      "midi": 52,
      "hit": false,
      "t": 134400,
      "d": 2400,
      "v": 127
    },
    {
      "midi": 55,
      "hit": false,
      "t": 135000,
      "d": 600,
      "v": 127
    },
    {
      "midi": 67,
      "hit": false,
      "t": 135000,
      "d": 600,
      "v": 127
    },
    {
      "midi": 67,
      "hit": false,
      "t": 135600,
      "d": 600,
      "v": 127
    },
    {
      "midi": 79,
      "hit": false,
      "t": 135600,
      "d": 600,
      "v": 127
    },
    {
      "midi": 55,
      "hit": false,
      "t": 136200,
      "d": 600,
      "v": 127
    },
    {
      "midi": 67,
      "hit": false,
      "t": 136200,
      "d": 600,
      "v": 127
    },
    {
      "midi": 67,
      "hit": false,
      "t": 136800,
      "d": 600,
      "v": 127
    },
    {
      "midi": 79,
      "hit": false,
      "t": 136800,
      "d": 600,
      "v": 127
    },
    {
      "midi": 55,
      "hit": false,
      "t": 137400,
      "d": 600,
      "v": 127
    },
    {
      "midi": 67,
      "hit": false,
      "t": 137400,
      "d": 600,
      "v": 127
    },
    {
      "midi": 67,
      "hit": false,
      "t": 138000,
      "d": 600,
      "v": 127
    },
    {
      "midi": 79,
      "hit": false,
      "t": 138000,
      "d": 600,
      "v": 127
    },
    {
      "midi": 55,
      "hit": false,
      "t": 138600,
      "d": 600,
      "v": 127
    },
    {
      "midi": 67,
      "hit": false,
      "t": 138600,
      "d": 600,
      "v": 127
    },
    {
      "midi": 67,
      "hit": false,
      "t": 139200,
      "d": 600,
      "v": 127
    },
    {
      "midi": 72,
      "hit": false,
      "t": 139200,
      "d": 600,
      "v": 127
    },
    {
      "midi": 77,
      "hit": false,
      "t": 139200,
      "d": 600,
      "v": 127
    },
    {
      "midi": 62,
      "hit": false,
      "t": 139200,
      "d": 600,
      "v": 127
    },
    {
      "midi": 67,
      "hit": false,
      "t": 139800,
      "d": 300,
      "v": 127
    },
    {
      "midi": 71,
      "hit": false,
      "t": 139800,
      "d": 300,
      "v": 127
    },
    {
      "midi": 77,
      "hit": false,
      "t": 139800,
      "d": 300,
      "v": 127
    },
    {
      "midi": 55,
      "hit": false,
      "t": 139800,
      "d": 600,
      "v": 127
    },
    {
      "midi": 77,
      "hit": false,
      "t": 140100,
      "d": 300,
      "v": 127
    },
    {
      "midi": 67,
      "hit": false,
      "t": 140400,
      "d": 600,
      "v": 127
    },
    {
      "midi": 74,
      "hit": false,
      "t": 140400,
      "d": 600,
      "v": 127
    },
    {
      "midi": 76,
      "hit": false,
      "t": 140400,
      "d": 600,
      "v": 127
    },
    {
      "midi": 60,
      "hit": false,
      "t": 140400,
      "d": 600,
      "v": 127
    },
    {
      "midi": 67,
      "hit": false,
      "t": 141000,
      "d": 600,
      "v": 127
    },
    {
      "midi": 72,
      "hit": false,
      "t": 141000,
      "d": 600,
      "v": 127
    },
    {
      "midi": 76,
      "hit": false,
      "t": 141000,
      "d": 600,
      "v": 127
    },
    {
      "midi": 55,
      "hit": false,
      "t": 141000,
      "d": 600,
      "v": 127
    },
    {
      "midi": 65,
      "hit": false,
      "t": 141600,
      "d": 300,
      "v": 127
    },
    {
      "midi": 72,
      "hit": false,
      "t": 141600,
      "d": 300,
      "v": 127
    },
    {
      "midi": 74,
      "hit": false,
      "t": 141600,
      "d": 300,
      "v": 127
    },
    {
      "midi": 62,
      "hit": false,
      "t": 141600,
      "d": 600,
      "v": 127
    },
    {
      "midi": 74,
      "hit": false,
      "t": 141900,
      "d": 300,
      "v": 127
    },
    {
      "midi": 65,
      "hit": false,
      "t": 142200,
      "d": 300,
      "v": 127
    },
    {
      "midi": 71,
      "hit": false,
      "t": 142200,
      "d": 300,
      "v": 127
    },
    {
      "midi": 74,
      "hit": false,
      "t": 142200,
      "d": 300,
      "v": 127
    },
    {
      "midi": 55,
      "hit": false,
      "t": 142200,
      "d": 600,
      "v": 127
    },
    {
      "midi": 74,
      "hit": false,
      "t": 142500,
      "d": 300,
      "v": 127
    },
    {
      "midi": 64,
      "hit": false,
      "t": 142800,
      "d": 600,
      "v": 127
    },
    {
      "midi": 69,
      "hit": false,
      "t": 142800,
      "d": 600,
      "v": 127
    },
    {
      "midi": 72,
      "hit": false,
      "t": 142800,
      "d": 600,
      "v": 127
    },
    {
      "midi": 60,
      "hit": false,
      "t": 142800,
      "d": 600,
      "v": 127
    },
    {
      "midi": 67,
      "hit": false,
      "t": 143400,
      "d": 600,
      "v": 127
    },
    {
      "midi": 55,
      "hit": false,
      "t": 143400,
      "d": 600,
      "v": 127
    },
    {
      "midi": 67,
      "hit": false,
      "t": 144000,
      "d": 600,
      "v": 127
    },
    {
      "midi": 72,
      "hit": false,
      "t": 144000,
      "d": 600,
      "v": 127
    },
    {
      "midi": 77,
      "hit": false,
      "t": 144000,
      "d": 600,
      "v": 127
    },
    {
      "midi": 62,
      "hit": false,
      "t": 144000,
      "d": 600,
      "v": 127
    },
    {
      "midi": 67,
      "hit": false,
      "t": 144600,
      "d": 300,
      "v": 127
    },
    {
      "midi": 71,
      "hit": false,
      "t": 144600,
      "d": 300,
      "v": 127
    },
    {
      "midi": 77,
      "hit": false,
      "t": 144600,
      "d": 300,
      "v": 127
    },
    {
      "midi": 55,
      "hit": false,
      "t": 144600,
      "d": 600,
      "v": 127
    },
    {
      "midi": 77,
      "hit": false,
      "t": 144900,
      "d": 300,
      "v": 127
    },
    {
      "midi": 67,
      "hit": false,
      "t": 145200,
      "d": 600,
      "v": 127
    },
    {
      "midi": 74,
      "hit": false,
      "t": 145200,
      "d": 600,
      "v": 127
    },
    {
      "midi": 76,
      "hit": false,
      "t": 145200,
      "d": 600,
      "v": 127
    },
    {
      "midi": 60,
      "hit": false,
      "t": 145200,
      "d": 600,
      "v": 127
    },
    {
      "midi": 67,
      "hit": false,
      "t": 145800,
      "d": 600,
      "v": 127
    },
    {
      "midi": 72,
      "hit": false,
      "t": 145800,
      "d": 600,
      "v": 127
    },
    {
      "midi": 76,
      "hit": false,
      "t": 145800,
      "d": 600,
      "v": 127
    },
    {
      "midi": 55,
      "hit": false,
      "t": 145800,
      "d": 600,
      "v": 127
    },
    {
      "midi": 65,
      "hit": false,
      "t": 146400,
      "d": 1200,
      "v": 127
    },
    {
      "midi": 69,
      "hit": false,
      "t": 146400,
      "d": 1200,
      "v": 127
    },
    {
      "midi": 74,
      "hit": false,
      "t": 146400,
      "d": 1200,
      "v": 127
    },
    {
      "midi": 60,
      "hit": false,
      "t": 146400,
      "d": 600,
      "v": 127
    },
    {
      "midi": 55,
      "hit": false,
      "t": 147000,
      "d": 600,
      "v": 127
    },
    {
      "midi": 69,
      "hit": false,
      "t": 147600,
      "d": 1200,
      "v": 127
    },
    {
      "midi": 72,
      "hit": false,
      "t": 147600,
      "d": 1200,
      "v": 127
    },
    {
      "midi": 77,
      "hit": false,
      "t": 147600,
      "d": 1200,
      "v": 127
    },
    {
      "midi": 60,
      "hit": false,
      "t": 147600,
      "d": 600,
      "v": 127
    },
    {
      "midi": 55,
      "hit": false,
      "t": 148200,
      "d": 600,
      "v": 127
    },
    {
      "midi": 69,
      "hit": false,
      "t": 148800,
      "d": 1200,
      "v": 127
    },
    {
      "midi": 74,
      "hit": false,
      "t": 148800,
      "d": 1200,
      "v": 127
    },
    {
      "midi": 77,
      "hit": false,
      "t": 148800,
      "d": 1200,
      "v": 127
    },
    {
      "midi": 81,
      "hit": false,
      "t": 148800,
      "d": 1200,
      "v": 127
    },
    {
      "midi": 60,
      "hit": false,
      "t": 148800,
      "d": 600,
      "v": 127
    },
    {
      "midi": 55,
      "hit": false,
      "t": 149400,
      "d": 600,
      "v": 127
    },
    {
      "midi": 74,
      "hit": false,
      "t": 150000,
      "d": 1200,
      "v": 127
    },
    {
      "midi": 77,
      "hit": false,
      "t": 150000,
      "d": 1200,
      "v": 127
    },
    {
      "midi": 81,
      "hit": false,
      "t": 150000,
      "d": 1200,
      "v": 127
    },
    {
      "midi": 84,
      "hit": false,
      "t": 150000,
      "d": 1200,
      "v": 127
    },
    {
      "midi": 60,
      "hit": false,
      "t": 150000,
      "d": 600,
      "v": 127
    },
    {
      "midi": 55,
      "hit": false,
      "t": 150600,
      "d": 600,
      "v": 127
    },
    {
      "midi": 76,
      "hit": false,
      "t": 151200,
      "d": 300,
      "v": 127
    },
    {
      "midi": 79,
      "hit": false,
      "t": 151200,
      "d": 300,
      "v": 127
    },
    {
      "midi": 84,
      "hit": false,
      "t": 151200,
      "d": 300,
      "v": 127
    },
    {
      "midi": 36,
      "hit": false,
      "t": 151200,
      "d": 300,
      "v": 127
    },
    {
      "midi": 43,
      "hit": false,
      "t": 151200,
      "d": 300,
      "v": 127
    },
    {
      "midi": 78,
      "hit": false,
      "t": 151500,
      "d": 300,
      "v": 127
    },
    {
      "midi": 42,
      "hit": false,
      "t": 151500,
      "d": 300,
      "v": 127
    },
    {
      "midi": 81,
      "hit": false,
      "t": 151800,
      "d": 300,
      "v": 127
    },
    {
      "midi": 45,
      "hit": false,
      "t": 151800,
      "d": 300,
      "v": 127
    },
    {
      "midi": 79,
      "hit": false,
      "t": 152100,
      "d": 300,
      "v": 127
    },
    {
      "midi": 43,
      "hit": false,
      "t": 152100,
      "d": 300,
      "v": 127
    },
    {
      "midi": 79,
      "hit": false,
      "t": 152400,
      "d": 600,
      "v": 127
    },
    {
      "midi": 43,
      "hit": false,
      "t": 152400,
      "d": 150,
      "v": 127
    },
    {
      "midi": 48,
      "hit": false,
      "t": 152550,
      "d": 150,
      "v": 127
    },
    {
      "midi": 52,
      "hit": false,
      "t": 152700,
      "d": 300,
      "v": 127
    },
    {
      "midi": 64,
      "hit": false,
      "t": 153000,
      "d": 600,
      "v": 127
    },
    {
      "midi": 72,
      "hit": false,
      "t": 153000,
      "d": 600,
      "v": 127
    },
    {
      "midi": 55,
      "hit": false,
      "t": 153000,
      "d": 600,
      "v": 127
    }
  ]
}