{
  "jsonPath": "Unknown/Unknown/Gerard Marsden/ferry-cross-the-mersey.json",
  "path": "Unknown\\Unknown\\Gerard Marsden\\Ferry Cross the Mersey.mid",
  "name": "Ferry Cross the Mersey",
  "difficulty": "Intermediate",
  "bpm": 100,
  "notes": [
    {
      "midi": 62,
      "hit": false,
      "t": 0,
      "d": 900,
      "v": 100
    },
    {
      "midi": 66,
      "hit": false,
      "t": 0,
      "d": 900,
      "v": 100
    },
    {
      "midi": 50,
      "hit": false,
      "t": 0,
      "d": 600,
      "v": 100
    },
    {
      "midi": 50,
      "hit": false,
      "t": 600,
      "d": 600,
      "v": 100
    },
    {
      "midi": 66,
      "hit": false,
      "t": 900,
      "d": 300,
      "v": 100
    },
    {
      "midi": 60,
      "hit": false,
      "t": 1200,
      "d": 600,
      "v": 100
    },
    {
      "midi": 64,
      "hit": false,
      "t": 1200,
      "d": 600,
      "v": 100
    },
    {
      "midi": 57,
      "hit": false,
      "t": 1200,
      "d": 600,
      "v": 100
    },
    {
      "midi": 69,
      "hit": false,
      "t": 1800,
      "d": 600,
      "v": 100
    },
    {
      "midi": 45,
      "hit": false,
      "t": 1800,
      "d": 600,
      "v": 100
    },
    {
      "midi": 62,
      "hit": false,
      "t": 2400,
      "d": 900,
      "v": 100
    },
    {
      "midi": 66,
      "hit": false,
      "t": 2400,
      "d": 900,
      "v": 100
    },
    {
      "midi": 50,
      "hit": false,
      "t": 2400,
      "d": 600,
      "v": 100
    },
    {
      "midi": 50,
      "hit": false,
      "t": 3000,
      "d": 600,
      "v": 100
    },
    {
      "midi": 66,
      "hit": false,
      "t": 3300,
      "d": 300,
      "v": 100
    },
    {
      "midi": 60,
      "hit": false,
      "t": 3600,
      "d": 600,
      "v": 100
    },
    {
      "midi": 64,
      "hit": false,
      "t": 3600,
      "d": 600,
      "v": 100
    },
    {
      "midi": 57,
      "hit": false,
      "t": 3600,
      "d": 600,
      "v": 100
    },
    {
      "midi": 69,
      "hit": false,
      "t": 4200,
      "d": 600,
      "v": 100
    },
    {
      "midi": 45,
      "hit": false,
      "t": 4200,
      "d": 600,
      "v": 100
    },
    {
      "midi": 69,
      "hit": false,
      "t": 4800,
      "d": 3000,
      "v": 100
    },
    {
      "midi": 50,
      "hit": false,
      "t": 4800,
      "d": 600,
      "v": 100
    },
    {
      "midi": 50,
      "hit": false,
      "t": 5400,
      "d": 600,
      "v": 100
    },
    {
      "midi": 57,
      "hit": false,
      "t": 6000,
      "d": 600,
      "v": 100
    },
    {
      "midi": 45,
      "hit": false,
      "t": 6600,
      "d": 600,
      "v": 100
    },
    {
      "midi": 50,
      "hit": false,
      "t": 7200,
      "d": 600,
      "v": 100
    },
    {
      "midi": 67,
      "hit": false,
      "t": 7800,
      "d": 300,
      "v": 100
    },
    {
      "midi": 50,
      "hit": false,
      "t": 7800,
      "d": 600,
      "v": 100
    },
    {
      "midi": 69,
      "hit": false,
      "t": 8100,
      "d": 300,
      "v": 100
    },
    {
      "midi": 72,
      "hit": false,
      "t": 8400,
      "d": 300,
      "v": 100
    },
    {
      "midi": 57,
      "hit": false,
      "t": 8400,
      "d": 600,
      "v": 100
    },
    {
      "midi": 69,
      "hit": false,
      "t": 8700,
      "d": 600,
      "v": 100
    },
    {
      "midi": 45,
      "hit": false,
      "t": 9000,
      "d": 600,
      "v": 100
    },
    {
      "midi": 67,
      "hit": false,
      "t": 9300,
      "d": 300,
      "v": 100
    },
    {
      "midi": 69,
      "hit": false,
      "t": 9600,
      "d": 4800,
      "v": 100
    },
    {
      "midi": 50,
      "hit": false,
      "t": 9600,
      "d": 600,
      "v": 100
    },
    {
      "midi": 50,
      "hit": false,
      "t": 10200,
      "d": 600,
      "v": 100
    },
    {
      "midi": 57,
      "hit": false,
      "t": 10800,
      "d": 600,
      "v": 100
    },
    {
      "midi": 45,
      "hit": false,
      "t": 11400,
      "d": 600,
      "v": 100
    },
    {
      "midi": 50,
      "hit": false,
      "t": 12000,
      "d": 600,
      "v": 100
    },
    {
      "midi": 50,
      "hit": false,
      "t": 12600,
      "d": 600,
      "v": 100
    },
    {
      "midi": 57,
      "hit": false,
      "t": 13200,
      "d": 600,
      "v": 100
    },
    {
      "midi": 45,
      "hit": false,
      "t": 13800,
      "d": 600,
      "v": 100
    },
    {
      "midi": 69,
      "hit": false,
      "t": 14400,
      "d": 3000,
      "v": 100
    },
    {
      "midi": 50,
      "hit": false,
      "t": 14400,
      "d": 600,
      "v": 100
    },
    {
      "midi": 50,
      "hit": false,
      "t": 15000,
      "d": 600,
      "v": 100
    },
    {
      "midi": 57,
      "hit": false,
      "t": 15600,
      "d": 600,
      "v": 100
    },
    {
      "midi": 45,
      "hit": false,
      "t": 16200,
      "d": 600,
      "v": 100
    },
    {
      "midi": 50,
      "hit": false,
      "t": 16800,
      "d": 600,
      "v": 100
    },
    {
      "midi": 67,
      "hit": false,
      "t": 17400,
      "d": 300,
      "v": 100
    },
    {
      "midi": 50,
      "hit": false,
      "t": 17400,
      "d": 600,
      "v": 100
    },
    {
      "midi": 69,
      "hit": false,
      "t": 17700,
      "d": 300,
      "v": 100
    },
    {
      "midi": 72,
      "hit": false,
      "t": 18000,
      "d": 300,
      "v": 100
    },
    {
      "midi": 57,
      "hit": false,
      "t": 18000,
      "d": 600,
      "v": 100
    },
    {
      "midi": 69,
      "hit": false,
      "t": 18300,
      "d": 600,
      "v": 100
    },
    {
      "midi": 45,
      "hit": false,
      "t": 18600,
      "d": 600,
      "v": 100
    },
    {
      "midi": 67,
      "hit": false,
      "t": 18900,
      "d": 300,
      "v": 100
    },
    {
      "midi": 69,
      "hit": false,
      "t": 19200,
      "d": 4200,
      "v": 100
    },
    {
      "midi": 50,
      "hit": false,
      "t": 19200,
      "d": 600,
      "v": 100
    },
    {
      "midi": 50,
      "hit": false,
      "t": 19800,
      "d": 600,
      "v": 100
    },
    {
      "midi": 57,
      "hit": false,
      "t": 20400,
      "d": 600,
      "v": 100
    },
    {
      "midi": 45,
      "hit": false,
      "t": 21000,
      "d": 600,
      "v": 100
    },
    {
      "midi": 50,
      "hit": false,
      "t": 21600,
      "d": 600,
      "v": 100
    },
    {
      "midi": 50,
      "hit": false,
      "t": 22200,
      "d": 600,
      "v": 100
    },
    {
      "midi": 57,
      "hit": false,
      "t": 22800,
      "d": 600,
      "v": 100
    },
    {
      "midi": 69,
      "hit": false,
      "t": 23400,
      "d": 600,
      "v": 100
    },
    {
      "midi": 45,
      "hit": false,
      "t": 23400,
      "d": 600,
      "v": 100
    },
    {
      "midi": 74,
      "hit": false,
      "t": 24000,
      "d": 600,
      "v": 100
    },
    {
      "midi": 50,
      "hit": false,
      "t": 24000,
      "d": 600,
      "v": 100
    },
    {
      "midi": 69,
      "hit": false,
      "t": 24600,
      "d": 600,
      "v": 100
    },
    {
      "midi": 57,
      "hit": false,
      "t": 24600,
      "d": 600,
      "v": 100
    },
    {
      "midi": 54,
      "hit": false,
      "t": 25200,
      "d": 600,
      "v": 100
    },
    {
      "midi": 74,
      "hit": false,
      "t": 25800,
      "d": 300,
      "v": 100
    },
    {
      "midi": 57,
      "hit": false,
      "t": 25800,
      "d": 600,
      "v": 100
    },
    {
      "midi": 76,
      "hit": false,
      "t": 26100,
      "d": 300,
      "v": 100
    },
    {
      "midi": 73,
      "hit": false,
      "t": 26400,
      "d": 600,
      "v": 100
    },
    {
      "midi": 54,
      "hit": false,
      "t": 26400,
      "d": 600,
      "v": 100
    },
    {
      "midi": 69,
      "hit": false,
      "t": 27000,
      "d": 600,
      "v": 100
    },
    {
      "midi": 61,
      "hit": false,
      "t": 27000,
      "d": 600,
      "v": 100
    },
    {
      "midi": 57,
      "hit": false,
      "t": 27600,
      "d": 600,
      "v": 100
    },
    {
      "midi": 66,
      "hit": false,
      "t": 28200,
      "d": 300,
      "v": 100
    },
    {
      "midi": 61,
      "hit": false,
      "t": 28200,
      "d": 600,
      "v": 100
    },
    {
      "midi": 73,
      "hit": false,
      "t": 28500,
      "d": 300,
      "v": 100
    },
    {
      "midi": 71,
      "hit": false,
      "t": 28800,
      "d": 1500,
      "v": 100
    },
    {
      "midi": 52,
      "hit": false,
      "t": 28800,
      "d": 600,
      "v": 100
    },
    {
      "midi": 59,
      "hit": false,
      "t": 29400,
      "d": 600,
      "v": 100
    },
    {
      "midi": 55,
      "hit": false,
      "t": 30000,
      "d": 600,
      "v": 100
    },
    {
      "midi": 69,
      "hit": false,
      "t": 30300,
      "d": 300,
      "v": 100
    },
    {
      "midi": 67,
      "hit": false,
      "t": 30600,
      "d": 300,
      "v": 100
    },
    {
      "midi": 59,
      "hit": false,
      "t": 30600,
      "d": 600,
      "v": 100
    },
    {
      "midi": 71,
      "hit": false,
      "t": 30900,
      "d": 300,
      "v": 100
    },
    {
      "midi": 69,
      "hit": false,
      "t": 31200,
      "d": 1200,
      "v": 100
    },
    {
      "midi": 45,
      "hit": false,
      "t": 31200,
      "d": 600,
      "v": 100
    },
    {
      "midi": 52,
      "hit": false,
      "t": 31800,
      "d": 600,
      "v": 100
    },
    {
      "midi": 49,
      "hit": false,
      "t": 32400,
      "d": 600,
      "v": 100
    },
    {
      "midi": 69,
      "hit": false,
      "t": 32700,
      "d": 300,
      "v": 100
    },
    {
      "midi": 66,
      "hit": false,
      "t": 33000,
      "d": 300,
      "v": 100
    },
    {
      "midi": 52,
      "hit": false,
      "t": 33000,
      "d": 600,
      "v": 100
    },
    {
      "midi": 62,
      "hit": false,
      "t": 33300,
      "d": 300,
      "v": 100
    },
    {
      "midi": 62,
      "hit": false,
      "t": 33600,
      "d": 2400,
      "v": 100
    },
    {
      "midi": 66,
      "hit": false,
      "t": 33600,
      "d": 2400,
      "v": 100
    },
    {
      "midi": 50,
      "hit": false,
      "t": 33600,
      "d": 600,
      "v": 100
    },
    {
      "midi": 50,
      "hit": false,
      "t": 34200,
      "d": 600,
      "v": 100
    },
    {
      "midi": 57,
      "hit": false,
      "t": 34800,
      "d": 600,
      "v": 100
    },
    {
      "midi": 45,
      "hit": false,
      "t": 35400,
      "d": 600,
      "v": 100
    },
    {
      "midi": 50,
      "hit": false,
      "t": 36000,
      "d": 600,
      "v": 100
    },
    {
      "midi": 50,
      "hit": false,
      "t": 36600,
      "d": 600,
      "v": 100
    },
    {
      "midi": 57,
      "hit": false,
      "t": 37200,
      "d": 600,
      "v": 100
    },
    {
      "midi": 45,
      "hit": false,
      "t": 37800,
      "d": 600,
      "v": 100
    },
    {
      "midi": 60,
      "hit": false,
      "t": 38400,
      "d": 2400,
      "v": 100
    },
    {
      "midi": 66,
      "hit": false,
      "t": 38400,
      "d": 2400,
      "v": 100
    },
    {
      "midi": 50,
      "hit": false,
      "t": 38400,
      "d": 600,
      "v": 100
    },
    {
      "midi": 50,
      "hit": false,
      "t": 39000,
      "d": 600,
      "v": 100
    },
    {
      "midi": 50,
      "hit": false,
      "t": 39600,
      "d": 600,
      "v": 100
    },
    {
      "midi": 50,
      "hit": false,
      "t": 40200,
      "d": 600,
      "v": 100
    },
    {
      "midi": 64,
      "hit": false,
      "t": 40800,
      "d": 300,
      "v": 100
    },
    {
      "midi": 52,
      "hit": false,
      "t": 40800,
      "d": 600,
      "v": 100
    },
    {
      "midi": 64,
      "hit": false,
      "t": 41100,
      "d": 600,
      "v": 100
    },
    {
      "midi": 52,
      "hit": false,
      "t": 41400,
      "d": 600,
      "v": 100
    },
    {
      "midi": 66,
      "hit": false,
      "t": 41700,
      "d": 300,
      "v": 100
    },
    {
      "midi": 67,
      "hit": false,
      "t": 42000,
      "d": 600,
      "v": 100
    },
    {
      "midi": 45,
      "hit": false,
      "t": 42000,
      "d": 600,
      "v": 100
    },
    {
      "midi": 69,
      "hit": false,
      "t": 42600,
      "d": 300,
      "v": 100
    },
    {
      "midi": 45,
      "hit": false,
      "t": 42600,
      "d": 600,
      "v": 100
    },
    {
      "midi": 67,
      "hit": false,
      "t": 42900,
      "d": 300,
      "v": 100
    },
    {
      "midi": 66,
      "hit": false,
      "t": 43200,
      "d": 600,
      "v": 100
    },
    {
      "midi": 50,
      "hit": false,
      "t": 43200,
      "d": 600,
      "v": 100
    },
    {
      "midi": 62,
      "hit": false,
      "t": 43800,
      "d": 600,
      "v": 100
    },
    {
      "midi": 50,
      "hit": false,
      "t": 43800,
      "d": 600,
      "v": 100
    },
    {
      "midi": 50,
      "hit": false,
      "t": 44400,
      "d": 600,
      "v": 100
    },
    {
      "midi": 50,
      "hit": false,
      "t": 45000,
      "d": 600,
      "v": 100
    },
    {
      "midi": 52,
      "hit": false,
      "t": 45600,
      "d": 600,
      "v": 100
    },
    {
      "midi": 64,
      "hit": false,
      "t": 45900,
      "d": 300,
      "v": 100
    },
    {
      "midi": 64,
      "hit": false,
      "t": 46200,
      "d": 300,
      "v": 100
    },
    {
      "midi": 52,
      "hit": false,
      "t": 46200,
      "d": 600,
      "v": 100
    },
    {
      "midi": 66,
      "hit": false,
      "t": 46500,
      "d": 300,
      "v": 100
    },
    {
      "midi": 67,
      "hit": false,
      "t": 46800,
      "d": 600,
      "v": 100
    },
    {
      "midi": 45,
      "hit": false,
      "t": 46800,
      "d": 600,
      "v": 100
    },
    {
      "midi": 69,
      "hit": false,
      "t": 47400,
      "d": 600,
      "v": 100
    },
    {
      "midi": 45,
      "hit": false,
      "t": 47400,
      "d": 600,
      "v": 100
    },
    {
      "midi": 66,
      "hit": false,
      "t": 48000,
      "d": 1200,
      "v": 100
    },
    {
      "midi": 50,
      "hit": false,
      "t": 48000,
      "d": 600,
      "v": 100
    },
    {
      "midi": 50,
      "hit": false,
      "t": 48600,
      "d": 600,
      "v": 100
    },
    {
      "midi": 50,
      "hit": false,
      "t": 49200,
      "d": 600,
      "v": 100
    },
    {
      "midi": 50,
      "hit": false,
      "t": 49800,
      "d": 600,
      "v": 100
    },
    {
      "midi": 52,
      "hit": false,
      "t": 50400,
      "d": 600,
      "v": 100
    },
    {
      "midi": 64,
      "hit": false,
      "t": 51000,
      "d": 300,
      "v": 100
    },
    {
      "midi": 52,
      "hit": false,
      "t": 51000,
      "d": 600,
      "v": 100
    },
    {
      "midi": 66,
      "hit": false,
      "t": 51300,
      "d": 300,
      "v": 100
    },
    {
      "midi": 67,
      "hit": false,
      "t": 51600,
      "d": 600,
      "v": 100
    },
    {
      "midi": 45,
      "hit": false,
      "t": 51600,
      "d": 600,
      "v": 100
    },
    {
      "midi": 69,
      "hit": false,
      "t": 52200,
      "d": 300,
      "v": 100
    },
    {
      "midi": 43,
      "hit": false,
      "t": 52200,
      "d": 600,
      "v": 100
    },
    {
      "midi": 71,
      "hit": false,
      "t": 52500,
      "d": 300,
      "v": 100
    },
    {
      "midi": 73,
      "hit": false,
      "t": 52800,
      "d": 600,
      "v": 100
    },
    {
      "midi": 42,
      "hit": false,
      "t": 52800,
      "d": 600,
      "v": 100
    },
    {
      "midi": 69,
      "hit": false,
      "t": 53400,
      "d": 600,
      "v": 100
    },
    {
      "midi": 42,
      "hit": false,
      "t": 53400,
      "d": 600,
      "v": 100
    },
    {
      "midi": 66,
      "hit": false,
      "t": 54000,
      "d": 600,
      "v": 100
    },
    {
      "midi": 54,
      "hit": false,
      "t": 54000,
      "d": 600,
      "v": 100
    },
    {
      "midi": 54,
      "hit": false,
      "t": 54600,
      "d": 600,
      "v": 100
    },
    {
      "midi": 71,
      "hit": false,
      "t": 55200,
      "d": 600,
      "v": 100
    },
    {
      "midi": 52,
      "hit": false,
      "t": 55200,
      "d": 600,
      "v": 100
    },
    {
      "midi": 71,
      "hit": false,
      "t": 55800,
      "d": 300,
      "v": 100
    },
    {
      "midi": 52,
      "hit": false,
      "t": 55800,
      "d": 600,
      "v": 100
    },
    {
      "midi": 71,
      "hit": false,
      "t": 56100,
      "d": 300,
      "v": 100
    },
    {
      "midi": 71,
      "hit": false,
      "t": 56400,
      "d": 300,
      "v": 100
    },
    {
      "midi": 52,
      "hit": false,
      "t": 56400,
      "d": 600,
      "v": 100
    },
    {
      "midi": 69,
      "hit": false,
      "t": 56700,
      "d": 600,
      "v": 100
    },
    {
      "midi": 52,
      "hit": false,
      "t": 57000,
      "d": 600,
      "v": 100
    },
    {
      "midi": 71,
      "hit": false,
      "t": 57300,
      "d": 300,
      "v": 100
    },
    {
      "midi": 69,
      "hit": false,
      "t": 57600,
      "d": 1800,
      "v": 100
    },
    {
      "midi": 57,
      "hit": false,
      "t": 57600,
      "d": 600,
      "v": 100
    },
    {
      "midi": 55,
      "hit": false,
      "t": 58200,
      "d": 600,
      "v": 100
    },
    {
      "midi": 54,
      "hit": false,
      "t": 58800,
      "d": 600,
      "v": 100
    },
    {
      "midi": 52,
      "hit": false,
      "t": 59400,
      "d": 600,
      "v": 100
    },
    {
      "midi": 69,
      "hit": false,
      "t": 60000,
      "d": 3000,
      "v": 100
    },
    {
      "midi": 50,
      "hit": false,
      "t": 60000,
      "d": 600,
      "v": 100
    },
    {
      "midi": 50,
      "hit": false,
      "t": 60600,
      "d": 600,
      "v": 100
    },
    {
      "midi": 57,
      "hit": false,
      "t": 61200,
      "d": 600,
      "v": 100
    },
    {
      "midi": 45,
      "hit": false,
      "t": 61800,
      "d": 600,
      "v": 100
    },
    {
      "midi": 50,
      "hit": false,
      "t": 62400,
      "d": 600,
      "v": 100
    },
    {
      "midi": 67,
      "hit": false,
      "t": 63000,
      "d": 300,
      "v": 100
    },
    {
      "midi": 50,
      "hit": false,
      "t": 63000,
      "d": 600,
      "v": 100
    },
    {
      "midi": 69,
      "hit": false,
      "t": 63300,
      "d": 300,
      "v": 100
    },
    {
      "midi": 72,
      "hit": false,
      "t": 63600,
      "d": 300,
      "v": 100
    },
    {
      "midi": 57,
      "hit": false,
      "t": 63600,
      "d": 600,
      "v": 100
    },
    {
      "midi": 69,
      "hit": false,
      "t": 63900,
      "d": 600,
      "v": 100
    },
    {
      "midi": 45,
      "hit": false,
      "t": 64200,
      "d": 600,
      "v": 100
    },
    {
      "midi": 67,
      "hit": false,
      "t": 64500,
      "d": 300,
      "v": 100
    },
    {
      "midi": 69,
      "hit": false,
      "t": 64800,
      "d": 4800,
      "v": 100
    },
    {
      "midi": 50,
      "hit": false,
      "t": 64800,
      "d": 600,
      "v": 100
    },
    {
      "midi": 50,
      "hit": false,
      "t": 65400,
      "d": 600,
      "v": 100
    },
    {
      "midi": 57,
      "hit": false,
      "t": 66000,
      "d": 600,
      "v": 100
    },
    {
      "midi": 45,
      "hit": false,
      "t": 66600,
      "d": 600,
      "v": 100
    },
    {
      "midi": 50,
      "hit": false,
      "t": 67200,
      "d": 600,
      "v": 100
    },
    {
      "midi": 50,
      "hit": false,
      "t": 67800,
      "d": 600,
      "v": 100
    },
    {
      "midi": 57,
      "hit": false,
      "t": 68400,
      "d": 600,
      "v": 100
    },
    {
      "midi": 45,
      "hit": false,
      "t": 69000,
      "d": 600,
      "v": 100
    },
    {
      "midi": 69,
      "hit": false,
      "t": 69600,
      "d": 3000,
      "v": 100
    },
    {
      "midi": 50,
      "hit": false,
      "t": 69600,
      "d": 600,
      "v": 100
    },
    {
      "midi": 50,
      "hit": false,
      "t": 70200,
      "d": 600,
      "v": 100
    },
    {
      "midi": 57,
      "hit": false,
      "t": 70800,
      "d": 600,
      "v": 100
    },
    {
      "midi": 45,
      "hit": false,
      "t": 71400,
      "d": 600,
      "v": 100
    },
    {
      "midi": 50,
      "hit": false,
      "t": 72000,
      "d": 600,
      "v": 100
    },
    {
      "midi": 67,
      "hit": false,
      "t": 72600,
      "d": 300,
      "v": 100
    },
    {
      "midi": 50,
      "hit": false,
      "t": 72600,
      "d": 600,
      "v": 100
    },
    {
      "midi": 69,
      "hit": false,
      "t": 72900,
      "d": 300,
      "v": 100
    },
    {
      "midi": 72,
      "hit": false,
      "t": 73200,
      "d": 300,
      "v": 100
    },
    {
      "midi": 57,
      "hit": false,
      "t": 73200,
      "d": 600,
      "v": 100
    },
    {
      "midi": 69,
      "hit": false,
      "t": 73500,
      "d": 600,
      "v": 100
    },
    {
      "midi": 45,
      "hit": false,
      "t": 73800,
      "d": 600,
      "v": 100
    },
    {
      "midi": 67,
      "hit": false,
      "t": 74100,
      "d": 300,
      "v": 100
    },
    {
      "midi": 69,
      "hit": false,
      "t": 74400,
      "d": 4200,
      "v": 100
    },
    {
      "midi": 50,
      "hit": false,
      "t": 74400,
      "d": 600,
      "v": 100
    },
    {
      "midi": 50,
      "hit": false,
      "t": 75000,
      "d": 600,
      "v": 100
    },
    {
      "midi": 57,
      "hit": false,
      "t": 75600,
      "d": 600,
      "v": 100
    },
    {
      "midi": 45,
      "hit": false,
      "t": 76200,
      "d": 600,
      "v": 100
    },
    {
      "midi": 50,
      "hit": false,
      "t": 76800,
      "d": 600,
      "v": 100
    },
    {
      "midi": 50,
      "hit": false,
      "t": 77400,
      "d": 600,
      "v": 100
    },
    {
      "midi": 57,
      "hit": false,
      "t": 78000,
      "d": 600,
      "v": 100
    },
    {
      "midi": 69,
      "hit": false,
      "t": 78600,
      "d": 600,
      "v": 100
    },
    {
      "midi": 45,
      "hit": false,
      "t": 78600,
      "d": 600,
      "v": 100
    },
    {
      "midi": 74,
      "hit": false,
      "t": 79200,
      "d": 600,
      "v": 100
    },
    {
      "midi": 50,
      "hit": false,
      "t": 79200,
      "d": 600,
      "v": 100
    },
    {
      "midi": 69,
      "hit": false,
      "t": 79800,
      "d": 600,
      "v": 100
    },
    {
      "midi": 57,
      "hit": false,
      "t": 79800,
      "d": 600,
      "v": 100
    },
    {
      "midi": 54,
      "hit": false,
      "t": 80400,
      "d": 600,
      "v": 100
    },
    {
      "midi": 74,
      "hit": false,
      "t": 81000,
      "d": 300,
      "v": 100
    },
    {
      "midi": 57,
      "hit": false,
      "t": 81000,
      "d": 600,
      "v": 100
    },
    {
      "midi": 76,
      "hit": false,
      "t": 81300,
      "d": 300,
      "v": 100
    },
    {
      "midi": 73,
      "hit": false,
      "t": 81600,
      "d": 600,
      "v": 100
    },
    {
      "midi": 54,
      "hit": false,
      "t": 81600,
      "d": 600,
      "v": 100
    },
    {
      "midi": 69,
      "hit": false,
      "t": 82200,
      "d": 600,
      "v": 100
    },
    {
      "midi": 61,
      "hit": false,
      "t": 82200,
      "d": 600,
      "v": 100
    },
    {
      "midi": 57,
      "hit": false,
      "t": 82800,
      "d": 600,
      "v": 100
    },
    {
      "midi": 66,
      "hit": false,
      "t": 83400,
      "d": 300,
      "v": 100
    },
    {
      "midi": 61,
      "hit": false,
      "t": 83400,
      "d": 600,
      "v": 100
    },
    {
      "midi": 73,
      "hit": false,
      "t": 83700,
      "d": 300,
      "v": 100
    },
    {
      "midi": 71,
      "hit": false,
      "t": 84000,
      "d": 1500,
      "v": 100
    },
    {
      "midi": 52,
      "hit": false,
      "t": 84000,
      "d": 600,
      "v": 100
    },
    {
      "midi": 52,
      "hit": false,
      "t": 84600,
      "d": 600,
      "v": 100
    },
    {
      "midi": 59,
      "hit": false,
      "t": 84600,
      "d": 600,
      "v": 100
    },
    {
      "midi": 52,
      "hit": false,
      "t": 85200,
      "d": 600,
      "v": 100
    },
    {
      "midi": 55,
      "hit": false,
      "t": 85200,
      "d": 600,
      "v": 100
    },
    {
      "midi": 69,
      "hit": false,
      "t": 85500,
      "d": 300,
      "v": 100
    },
    {
      "midi": 67,
      "hit": false,
      "t": 85800,
      "d": 300,
      "v": 100
    },
    {
      "midi": 52,
      "hit": false,
      "t": 85800,
      "d": 600,
      "v": 100
    },
    {
      "midi": 59,
      "hit": false,
      "t": 85800,
      "d": 600,
      "v": 100
    },
    {
      "midi": 71,
      "hit": false,
      "t": 86100,
      "d": 300,
      "v": 100
    },
    {
      "midi": 69,
      "hit": false,
      "t": 86400,
      "d": 1200,
      "v": 100
    },
    {
      "midi": 45,
      "hit": false,
      "t": 86400,
      "d": 600,
      "v": 100
    },
    {
      "midi": 52,
      "hit": false,
      "t": 87000,
      "d": 600,
      "v": 100
    },
    {
      "midi": 49,
      "hit": false,
      "t": 87600,
      "d": 600,
      "v": 100
    },
    {
      "midi": 69,
      "hit": false,
      "t": 87900,
      "d": 300,
      "v": 100
    },
    {
      "midi": 66,
      "hit": false,
      "t": 88200,
      "d": 300,
      "v": 100
    },
    {
      "midi": 52,
      "hit": false,
      "t": 88200,
      "d": 600,
      "v": 100
    },
    {
      "midi": 64,
      "hit": false,
      "t": 88500,
      "d": 300,
      "v": 100
    },
    {
      "midi": 62,
      "hit": false,
      "t": 88800,
      "d": 3300,
      "v": 100
    },
    {
      "midi": 66,
      "hit": false,
      "t": 88800,
      "d": 3300,
      "v": 100
    },
    {
      "midi": 50,
      "hit": false,
      "t": 88800,
      "d": 600,
      "v": 100
    },
    {
      "midi": 50,
      "hit": false,
      "t": 89400,
      "d": 600,
      "v": 100
    },
    {
      "midi": 57,
      "hit": false,
      "t": 90000,
      "d": 600,
      "v": 100
    },
    {
      "midi": 45,
      "hit": false,
      "t": 90600,
      "d": 600,
      "v": 100
    },
    {
      "midi": 50,
      "hit": false,
      "t": 91200,
      "d": 600,
      "v": 100
    },
    {
      "midi": 50,
      "hit": false,
      "t": 91800,
      "d": 600,
      "v": 100
    },
    {
      "midi": 66,
      "hit": false,
      "t": 92100,
      "d": 300,
      "v": 100
    },
    {
      "midi": 64,
      "hit": false,
      "t": 92400,
      "d": 600,
      "v": 100
    },
    {
      "midi": 57,
      "hit": false,
      "t": 92400,
      "d": 600,
      "v": 100
    },
    {
      "midi": 71,
      "hit": false,
      "t": 93000,
      "d": 600,
      "v": 100
    },
    {
      "midi": 45,
      "hit": false,
      "t": 93000,
      "d": 600,
      "v": 100
    },
    {
      "midi": 69,
      "hit": false,
      "t": 93600,
      "d": 3600,
      "v": 100
    },
    {
      "midi": 50,
      "hit": false,
      "t": 93600,
      "d": 600,
      "v": 100
    },
    {
      "midi": 50,
      "hit": false,
      "t": 94200,
      "d": 600,
      "v": 100
    },
    {
      "midi": 57,
      "hit": false,
      "t": 94800,
      "d": 600,
      "v": 100
    },
    {
      "midi": 45,
      "hit": false,
      "t": 95400,
      "d": 600,
      "v": 100
    },
    {
      "midi": 50,
      "hit": false,
      "t": 96000,
      "d": 600,
      "v": 100
    },
    {
      "midi": 50,
      "hit": false,
      "t": 96600,
      "d": 600,
      "v": 100
    },
    {
      "midi": 67,
      "hit": false,
      "t": 97200,
      "d": 600,
      "v": 100
    },
    {
      "midi": 57,
      "hit": false,
      "t": 97200,
      "d": 600,
      "v": 100
    },
    {
      "midi": 64,
      "hit": false,
      "t": 97800,
      "d": 600,
      "v": 100
    },
    {
      "midi": 45,
      "hit": false,
      "t": 97800,
      "d": 600,
      "v": 100
    },
    {
      "midi": 62,
      "hit": false,
      "t": 98400,
      "d": 7200,
      "v": 100
    },
    {
      "midi": 50,
      "hit": false,
      "t": 98400,
      "d": 600,
      "v": 100
    },
    {
      "midi": 50,
      "hit": false,
      "t": 99000,
      "d": 600,
      "v": 100
    },
    {
      "midi": 57,
      "hit": false,
      "t": 99600,
      "d": 600,
      "v": 100
    },
    {
      "midi": 45,
      "hit": false,
      "t": 100200,
      "d": 600,
      "v": 100
    },
    {
      "midi": 50,
      "hit": false,
      "t": 100800,
      "d": 600,
      "v": 100
    },
    {
      "midi": 50,
      "hit": false,
      "t": 101400,
      "d": 600,
      "v": 100
    },
    {
      "midi": 57,
      "hit": false,
      "t": 102000,
      "d": 600,
      "v": 100
    },
    {
      "midi": 45,
      "hit": false,
      "t": 102600,
      "d": 600,
      "v": 100
    },
    {
      "midi": 50,
      "hit": false,
      "t": 103200,
      "d": 2400,
      "v": 100
    },
    {
      "midi": 54,
      "hit": false,
      "t": 103200,
      "d": 2400,
      "v": 100
    }
  ]
}