{
  "jsonPath": "Unknown/Unknown/Walt Disney Records/pirates-of-the-caribbean-hes-a-pirate.json",
  "path": "Unknown\\Unknown\\Walt Disney Records\\Pirates of the Caribbean- Hes a Pirate.mid",
  "name": "Pirates of the Caribbean- Hes a Pirate",
  "difficulty": "Intermediate",
  "bpm": 200,
  "notes": [
    {
      "midi": 62,
      "hit": false,
      "t": 0,
      "d": 300,
      "v": 110
    },
    {
      "midi": 62,
      "hit": false,
      "t": 300,
      "d": 150,
      "v": 110
    },
    {
      "midi": 62,
      "hit": false,
      "t": 450,
      "d": 300,
      "v": 110
    },
    {
      "midi": 62,
      "hit": false,
      "t": 750,
      "d": 150,
      "v": 110
    },
    {
      "midi": 62,
      "hit": false,
      "t": 900,
      "d": 300,
      "v": 110
    },
    {
      "midi": 62,
      "hit": false,
      "t": 1200,
      "d": 150,
      "v": 110
    },
    {
      "midi": 62,
      "hit": false,
      "t": 1350,
      "d": 150,
      "v": 110
    },
    {
      "midi": 62,
      "hit": false,
      "t": 1500,
      "d": 150,
      "v": 110
    },
    {
      "midi": 62,
      "hit": false,
      "t": 1650,
      "d": 150,
      "v": 110
    },
    {
      "midi": 62,
      "hit": false,
      "t": 1800,
      "d": 300,
      "v": 110
    },
    {
      "midi": 62,
      "hit": false,
      "t": 2100,
      "d": 150,
      "v": 110
    },
    {
      "midi": 62,
      "hit": false,
      "t": 2250,
      "d": 300,
      "v": 110
    },
    {
      "midi": 62,
      "hit": false,
      "t": 2550,
      "d": 150,
      "v": 110
    },
    {
      "midi": 62,
      "hit": false,
      "t": 2700,
      "d": 300,
      "v": 110
    },
    {
      "midi": 62,
      "hit": false,
      "t": 3000,
      "d": 150,
      "v": 110
    },
    {
      "midi": 62,
      "hit": false,
      "t": 3150,
      "d": 150,
      "v": 110
    },
    {
      "midi": 62,
      "hit": false,
      "t": 3300,
      "d": 150,
      "v": 110
    },
    {
      "midi": 62,
      "hit": false,
      "t": 3450,
      "d": 150,
      "v": 110
    },
    {
      "midi": 62,
      "hit": false,
      "t": 3600,
      "d": 300,
      "v": 110
    },
    {
      "midi": 62,
      "hit": false,
      "t": 3900,
      "d": 150,
      "v": 110
    },
    {
      "midi": 62,
      "hit": false,
      "t": 4050,
      "d": 300,
      "v": 110
    },
    {
      "midi": 62,
      "hit": false,
      "t": 4350,
      "d": 150,
      "v": 110
    },
    {
      "midi": 62,
      "hit": false,
      "t": 4500,
      "d": 300,
      "v": 110
    },
    {
      "midi": 62,
      "hit": false,
      "t": 4800,
      "d": 150,
      "v": 110
    },
    {
      "midi": 62,
      "hit": false,
      "t": 4950,
      "d": 150,
      "v": 110
    },
    {
      "midi": 57,
      "hit": false,
      "t": 5100,
      "d": 150,
      "v": 110
    },
    {
      "midi": 60,
      "hit": false,
      "t": 5250,
      "d": 150,
      "v": 110
    },
    {
      "midi": 62,
      "hit": false,
      "t": 5400,
      "d": 300,
      "v": 110
    },
    {
      "midi": 50,
      "hit": false,
      "t": 5400,
      "d": 300,
      "v": 110
    },
    {
      "midi": 62,
      "hit": false,
      "t": 5700,
      "d": 300,
      "v": 110
    },
    {
      "midi": 50,
      "hit": false,
      "t": 5700,
      "d": 150,
      "v": 110
    },
    {
      "midi": 50,
      "hit": false,
      "t": 5850,
      "d": 300,
      "v": 110
    },
    {
      "midi": 62,
      "hit": false,
      "t": 6000,
      "d": 150,
      "v": 110
    },
    {
      "midi": 64,
      "hit": false,
      "t": 6150,
      "d": 150,
      "v": 110
    },
    {
      "midi": 48,
      "hit": false,
      "t": 6150,
      "d": 150,
      "v": 110
    },
    {
      "midi": 65,
      "hit": false,
      "t": 6300,
      "d": 300,
      "v": 110
    },
    {
      "midi": 65,
      "hit": false,
      "t": 6600,
      "d": 300,
      "v": 110
    },
    {
      "midi": 65,
      "hit": false,
      "t": 6900,
      "d": 150,
      "v": 110
    },
    {
      "midi": 67,
      "hit": false,
      "t": 7050,
      "d": 150,
      "v": 110
    },
    {
      "midi": 64,
      "hit": false,
      "t": 7200,
      "d": 300,
      "v": 110
    },
    {
      "midi": 64,
      "hit": false,
      "t": 7500,
      "d": 300,
      "v": 110
    },
    {
      "midi": 62,
      "hit": false,
      "t": 7800,
      "d": 150,
      "v": 110
    },
    {
      "midi": 60,
      "hit": false,
      "t": 7950,
      "d": 150,
      "v": 110
    },
    {
      "midi": 60,
      "hit": false,
      "t": 8100,
      "d": 150,
      "v": 110
    },
    {
      "midi": 50,
      "hit": false,
      "t": 8100,
      "d": 300,
      "v": 110
    },
    {
      "midi": 62,
      "hit": false,
      "t": 8250,
      "d": 150,
      "v": 110
    },
    {
      "midi": 50,
      "hit": false,
      "t": 8400,
      "d": 150,
      "v": 110
    },
    {
      "midi": 50,
      "hit": false,
      "t": 8550,
      "d": 300,
      "v": 110
    },
    {
      "midi": 57,
      "hit": false,
      "t": 8700,
      "d": 150,
      "v": 110
    },
    {
      "midi": 60,
      "hit": false,
      "t": 8850,
      "d": 150,
      "v": 110
    },
    {
      "midi": 50,
      "hit": false,
      "t": 8850,
      "d": 150,
      "v": 110
    },
    {
      "midi": 62,
      "hit": false,
      "t": 9000,
      "d": 300,
      "v": 110
    },
    {
      "midi": 46,
      "hit": false,
      "t": 9000,
      "d": 300,
      "v": 110
    },
    {
      "midi": 62,
      "hit": false,
      "t": 9300,
      "d": 300,
      "v": 110
    },
    {
      "midi": 46,
      "hit": false,
      "t": 9300,
      "d": 150,
      "v": 110
    },
    {
      "midi": 46,
      "hit": false,
      "t": 9450,
      "d": 300,
      "v": 110
    },
    {
      "midi": 62,
      "hit": false,
      "t": 9600,
      "d": 150,
      "v": 110
    },
    {
      "midi": 64,
      "hit": false,
      "t": 9750,
      "d": 150,
      "v": 110
    },
    {
      "midi": 46,
      "hit": false,
      "t": 9750,
      "d": 150,
      "v": 110
    },
    {
      "midi": 65,
      "hit": false,
      "t": 9900,
      "d": 300,
      "v": 110
    },
    {
      "midi": 65,
      "hit": false,
      "t": 10200,
      "d": 300,
      "v": 110
    },
    {
      "midi": 65,
      "hit": false,
      "t": 10500,
      "d": 150,
      "v": 110
    },
    {
      "midi": 67,
      "hit": false,
      "t": 10650,
      "d": 150,
      "v": 110
    },
    {
      "midi": 64,
      "hit": false,
      "t": 10800,
      "d": 300,
      "v": 110
    },
    {
      "midi": 48,
      "hit": false,
      "t": 10800,
      "d": 300,
      "v": 110
    },
    {
      "midi": 64,
      "hit": false,
      "t": 11100,
      "d": 300,
      "v": 110
    },
    {
      "midi": 48,
      "hit": false,
      "t": 11100,
      "d": 150,
      "v": 110
    },
    {
      "midi": 62,
      "hit": false,
      "t": 11400,
      "d": 150,
      "v": 110
    },
    {
      "midi": 60,
      "hit": false,
      "t": 11550,
      "d": 150,
      "v": 110
    },
    {
      "midi": 62,
      "hit": false,
      "t": 11700,
      "d": 450,
      "v": 110
    },
    {
      "midi": 50,
      "hit": false,
      "t": 11700,
      "d": 300,
      "v": 110
    },
    {
      "midi": 50,
      "hit": false,
      "t": 12000,
      "d": 150,
      "v": 110
    },
    {
      "midi": 50,
      "hit": false,
      "t": 12150,
      "d": 300,
      "v": 110
    },
    {
      "midi": 57,
      "hit": false,
      "t": 12300,
      "d": 150,
      "v": 110
    },
    {
      "midi": 60,
      "hit": false,
      "t": 12450,
      "d": 150,
      "v": 110
    },
    {
      "midi": 50,
      "hit": false,
      "t": 12450,
      "d": 150,
      "v": 110
    },
    {
      "midi": 62,
      "hit": false,
      "t": 12600,
      "d": 300,
      "v": 110
    },
    {
      "midi": 50,
      "hit": false,
      "t": 12600,
      "d": 300,
      "v": 110
    },
    {
      "midi": 62,
      "hit": false,
      "t": 12900,
      "d": 300,
      "v": 110
    },
    {
      "midi": 50,
      "hit": false,
      "t": 12900,
      "d": 150,
      "v": 110
    },
    {
      "midi": 50,
      "hit": false,
      "t": 13050,
      "d": 300,
      "v": 110
    },
    {
      "midi": 62,
      "hit": false,
      "t": 13200,
      "d": 150,
      "v": 110
    },
    {
      "midi": 65,
      "hit": false,
      "t": 13350,
      "d": 150,
      "v": 110
    },
    {
      "midi": 50,
      "hit": false,
      "t": 13350,
      "d": 150,
      "v": 110
    },
    {
      "midi": 67,
      "hit": false,
      "t": 13500,
      "d": 300,
      "v": 110
    },
    {
      "midi": 67,
      "hit": false,
      "t": 13800,
      "d": 300,
      "v": 110
    },
    {
      "midi": 67,
      "hit": false,
      "t": 14100,
      "d": 150,
      "v": 110
    },
    {
      "midi": 69,
      "hit": false,
      "t": 14250,
      "d": 150,
      "v": 110
    },
    {
      "midi": 70,
      "hit": false,
      "t": 14400,
      "d": 300,
      "v": 110
    },
    {
      "midi": 70,
      "hit": false,
      "t": 14700,
      "d": 300,
      "v": 110
    },
    {
      "midi": 69,
      "hit": false,
      "t": 15000,
      "d": 150,
      "v": 110
    },
    {
      "midi": 67,
      "hit": false,
      "t": 15150,
      "d": 150,
      "v": 110
    },
    {
      "midi": 69,
      "hit": false,
      "t": 15300,
      "d": 150,
      "v": 110
    },
    {
      "midi": 62,
      "hit": false,
      "t": 15450,
      "d": 150,
      "v": 110
    },
    {
      "midi": 62,
      "hit": false,
      "t": 15900,
      "d": 150,
      "v": 110
    },
    {
      "midi": 64,
      "hit": false,
      "t": 16050,
      "d": 150,
      "v": 110
    },
    {
      "midi": 65,
      "hit": false,
      "t": 16200,
      "d": 300,
      "v": 110
    },
    {
      "midi": 65,
      "hit": false,
      "t": 16500,
      "d": 300,
      "v": 110
    },
    {
      "midi": 67,
      "hit": false,
      "t": 16800,
      "d": 300,
      "v": 110
    },
    {
      "midi": 69,
      "hit": false,
      "t": 17100,
      "d": 150,
      "v": 110
    },
    {
      "midi": 62,
      "hit": false,
      "t": 17250,
      "d": 150,
      "v": 110
    },
    {
      "midi": 62,
      "hit": false,
      "t": 17700,
      "d": 150,
      "v": 110
    },
    {
      "midi": 65,
      "hit": false,
      "t": 17850,
      "d": 150,
      "v": 110
    },
    {
      "midi": 64,
      "hit": false,
      "t": 18000,
      "d": 300,
      "v": 110
    },
    {
      "midi": 64,
      "hit": false,
      "t": 18300,
      "d": 300,
      "v": 110
    },
    {
      "midi": 65,
      "hit": false,
      "t": 18600,
      "d": 150,
      "v": 110
    },
    {
      "midi": 62,
      "hit": false,
      "t": 18750,
      "d": 150,
      "v": 110
    },
    {
      "midi": 64,
      "hit": false,
      "t": 18900,
      "d": 450,
      "v": 110
    },
    {
      "midi": 69,
      "hit": false,
      "t": 19500,
      "d": 150,
      "v": 110
    },
    {
      "midi": 72,
      "hit": false,
      "t": 19650,
      "d": 150,
      "v": 110
    },
    {
      "midi": 74,
      "hit": false,
      "t": 19800,
      "d": 300,
      "v": 110
    },
    {
      "midi": 74,
      "hit": false,
      "t": 20100,
      "d": 300,
      "v": 110
    },
    {
      "midi": 74,
      "hit": false,
      "t": 20400,
      "d": 150,
      "v": 110
    },
    {
      "midi": 76,
      "hit": false,
      "t": 20550,
      "d": 150,
      "v": 110
    },
    {
      "midi": 77,
      "hit": false,
      "t": 20700,
      "d": 300,
      "v": 110
    },
    {
      "midi": 77,
      "hit": false,
      "t": 21000,
      "d": 300,
      "v": 110
    },
    {
      "midi": 77,
      "hit": false,
      "t": 21300,
      "d": 150,
      "v": 110
    },
    {
      "midi": 79,
      "hit": false,
      "t": 21450,
      "d": 150,
      "v": 110
    },
    {
      "midi": 76,
      "hit": false,
      "t": 21600,
      "d": 300,
      "v": 110
    },
    {
      "midi": 76,
      "hit": false,
      "t": 21900,
      "d": 300,
      "v": 110
    },
    {
      "midi": 74,
      "hit": false,
      "t": 22200,
      "d": 150,
      "v": 110
    },
    {
      "midi": 72,
      "hit": false,
      "t": 22350,
      "d": 150,
      "v": 110
    },
    {
      "midi": 72,
      "hit": false,
      "t": 22500,
      "d": 150,
      "v": 110
    },
    {
      "midi": 74,
      "hit": false,
      "t": 22650,
      "d": 150,
      "v": 110
    },
    {
      "midi": 69,
      "hit": false,
      "t": 23100,
      "d": 150,
      "v": 110
    },
    {
      "midi": 72,
      "hit": false,
      "t": 23250,
      "d": 150,
      "v": 110
    },
    {
      "midi": 74,
      "hit": false,
      "t": 23400,
      "d": 300,
      "v": 110
    },
    {
      "midi": 74,
      "hit": false,
      "t": 23700,
      "d": 300,
      "v": 110
    },
    {
      "midi": 74,
      "hit": false,
      "t": 24000,
      "d": 150,
      "v": 110
    },
    {
      "midi": 76,
      "hit": false,
      "t": 24150,
      "d": 150,
      "v": 110
    },
    {
      "midi": 77,
      "hit": false,
      "t": 24300,
      "d": 300,
      "v": 110
    },
    {
      "midi": 77,
      "hit": false,
      "t": 24600,
      "d": 300,
      "v": 110
    },
    {
      "midi": 77,
      "hit": false,
      "t": 24900,
      "d": 150,
      "v": 110
    },
    {
      "midi": 79,
      "hit": false,
      "t": 25050,
      "d": 150,
      "v": 110
    },
    {
      "midi": 76,
      "hit": false,
      "t": 25200,
      "d": 300,
      "v": 110
    },
    {
      "midi": 76,
      "hit": false,
      "t": 25500,
      "d": 300,
      "v": 110
    },
    {
      "midi": 74,
      "hit": false,
      "t": 25800,
      "d": 150,
      "v": 110
    },
    {
      "midi": 72,
      "hit": false,
      "t": 25950,
      "d": 150,
      "v": 110
    },
    {
      "midi": 74,
      "hit": false,
      "t": 26100,
      "d": 450,
      "v": 110
    },
    {
      "midi": 69,
      "hit": false,
      "t": 26700,
      "d": 150,
      "v": 110
    },
    {
      "midi": 72,
      "hit": false,
      "t": 26850,
      "d": 150,
      "v": 110
    },
    {
      "midi": 74,
      "hit": false,
      "t": 27000,
      "d": 300,
      "v": 110
    },
    {
      "midi": 74,
      "hit": false,
      "t": 27300,
      "d": 300,
      "v": 110
    },
    {
      "midi": 74,
      "hit": false,
      "t": 27600,
      "d": 150,
      "v": 110
    },
    {
      "midi": 77,
      "hit": false,
      "t": 27750,
      "d": 150,
      "v": 110
    },
    {
      "midi": 79,
      "hit": false,
      "t": 27900,
      "d": 300,
      "v": 110
    },
    {
      "midi": 79,
      "hit": false,
      "t": 28200,
      "d": 300,
      "v": 110
    },
    {
      "midi": 79,
      "hit": false,
      "t": 28500,
      "d": 150,
      "v": 110
    },
    {
      "midi": 81,
      "hit": false,
      "t": 28650,
      "d": 150,
      "v": 110
    },
    {
      "midi": 82,
      "hit": false,
      "t": 28800,
      "d": 300,
      "v": 110
    },
    {
      "midi": 82,
      "hit": false,
      "t": 29100,
      "d": 300,
      "v": 110
    },
    {
      "midi": 81,
      "hit": false,
      "t": 29400,
      "d": 150,
      "v": 110
    },
    {
      "midi": 79,
      "hit": false,
      "t": 29550,
      "d": 150,
      "v": 110
    },
    {
      "midi": 81,
      "hit": false,
      "t": 29700,
      "d": 150,
      "v": 110
    },
    {
      "midi": 74,
      "hit": false,
      "t": 29850,
      "d": 150,
      "v": 110
    },
    {
      "midi": 74,
      "hit": false,
      "t": 30300,
      "d": 150,
      "v": 110
    },
    {
      "midi": 76,
      "hit": false,
      "t": 30450,
      "d": 150,
      "v": 110
    },
    {
      "midi": 77,
      "hit": false,
      "t": 30600,
      "d": 300,
      "v": 110
    },
    {
      "midi": 77,
      "hit": false,
      "t": 30900,
      "d": 300,
      "v": 110
    },
    {
      "midi": 79,
      "hit": false,
      "t": 31200,
      "d": 300,
      "v": 110
    },
    {
      "midi": 81,
      "hit": false,
      "t": 31500,
      "d": 150,
      "v": 110
    },
    {
      "midi": 74,
      "hit": false,
      "t": 31650,
      "d": 150,
      "v": 110
    },
    {
      "midi": 74,
      "hit": false,
      "t": 32100,
      "d": 150,
      "v": 110
    },
    {
      "midi": 77,
      "hit": false,
      "t": 32250,
      "d": 150,
      "v": 110
    },
    {
      "midi": 76,
      "hit": false,
      "t": 32400,
      "d": 300,
      "v": 110
    },
    {
      "midi": 76,
      "hit": false,
      "t": 32700,
      "d": 300,
      "v": 110
    },
    {
      "midi": 74,
      "hit": false,
      "t": 33000,
      "d": 150,
      "v": 110
    },
    {
      "midi": 73,
      "hit": false,
      "t": 33150,
      "d": 150,
      "v": 110
    },
    {
      "midi": 74,
      "hit": false,
      "t": 33300,
      "d": 300,
      "v": 110
    },
    {
      "midi": 74,
      "hit": false,
      "t": 33600,
      "d": 300,
      "v": 110
    },
    {
      "midi": 76,
      "hit": false,
      "t": 33900,
      "d": 300,
      "v": 110
    },
    {
      "midi": 77,
      "hit": false,
      "t": 34200,
      "d": 300,
      "v": 110
    },
    {
      "midi": 77,
      "hit": false,
      "t": 34500,
      "d": 150,
      "v": 110
    },
    {
      "midi": 77,
      "hit": false,
      "t": 34650,
      "d": 150,
      "v": 110
    },
    {
      "midi": 79,
      "hit": false,
      "t": 34800,
      "d": 300,
      "v": 110
    },
    {
      "midi": 81,
      "hit": false,
      "t": 35100,
      "d": 150,
      "v": 110
    },
    {
      "midi": 77,
      "hit": false,
      "t": 35250,
      "d": 150,
      "v": 110
    },
    {
      "midi": 77,
      "hit": false,
      "t": 35700,
      "d": 150,
      "v": 110
    },
    {
      "midi": 74,
      "hit": false,
      "t": 35850,
      "d": 150,
      "v": 110
    },
    {
      "midi": 69,
      "hit": false,
      "t": 36000,
      "d": 450,
      "v": 110
    },
    {
      "midi": 82,
      "hit": false,
      "t": 36900,
      "d": 450,
      "v": 110
    },
    {
      "midi": 79,
      "hit": false,
      "t": 37500,
      "d": 150,
      "v": 110
    },
    {
      "midi": 74,
      "hit": false,
      "t": 37650,
      "d": 150,
      "v": 110
    },
    {
      "midi": 70,
      "hit": false,
      "t": 37800,
      "d": 450,
      "v": 110
    },
    {
      "midi": 64,
      "hit": false,
      "t": 38700,
      "d": 150,
      "v": 110
    },
    {
      "midi": 64,
      "hit": false,
      "t": 38850,
      "d": 150,
      "v": 110
    },
    {
      "midi": 62,
      "hit": false,
      "t": 39150,
      "d": 450,
      "v": 110
    },
    {
      "midi": 65,
      "hit": false,
      "t": 39600,
      "d": 450,
      "v": 110
    },
    {
      "midi": 65,
      "hit": false,
      "t": 40200,
      "d": 150,
      "v": 110
    },
    {
      "midi": 67,
      "hit": false,
      "t": 40350,
      "d": 150,
      "v": 110
    },
    {
      "midi": 69,
      "hit": false,
      "t": 40500,
      "d": 300,
      "v": 110
    },
    {
      "midi": 69,
      "hit": false,
      "t": 40800,
      "d": 300,
      "v": 110
    },
    {
      "midi": 69,
      "hit": false,
      "t": 41100,
      "d": 300,
      "v": 110
    },
    {
      "midi": 70,
      "hit": false,
      "t": 41400,
      "d": 150,
      "v": 110
    },
    {
      "midi": 69,
      "hit": false,
      "t": 41550,
      "d": 150,
      "v": 110
    },
    {
      "midi": 67,
      "hit": false,
      "t": 42300,
      "d": 300,
      "v": 110
    },
    {
      "midi": 67,
      "hit": false,
      "t": 42600,
      "d": 300,
      "v": 110
    },
    {
      "midi": 67,
      "hit": false,
      "t": 42900,
      "d": 300,
      "v": 110
    },
    {
      "midi": 67,
      "hit": false,
      "t": 43200,
      "d": 150,
      "v": 110
    },
    {
      "midi": 53,
      "hit": false,
      "t": 43200,
      "d": 300,
      "v": 110
    },
    {
      "midi": 69,
      "hit": false,
      "t": 43350,
      "d": 150,
      "v": 110
    },
    {
      "midi": 53,
      "hit": false,
      "t": 43500,
      "d": 150,
      "v": 110
    },
    {
      "midi": 53,
      "hit": false,
      "t": 43650,
      "d": 150,
      "v": 110
    },
    {
      "midi": 53,
      "hit": false,
      "t": 43800,
      "d": 150,
      "v": 110
    },
    {
      "midi": 53,
      "hit": false,
      "t": 43950,
      "d": 150,
      "v": 110
    },
    {
      "midi": 69,
      "hit": false,
      "t": 44100,
      "d": 300,
      "v": 110
    },
    {
      "midi": 69,
      "hit": false,
      "t": 44400,
      "d": 300,
      "v": 110
    },
    {
      "midi": 69,
      "hit": false,
      "t": 44700,
      "d": 300,
      "v": 110
    },
    {
      "midi": 70,
      "hit": false,
      "t": 45000,
      "d": 150,
      "v": 110
    },
    {
      "midi": 69,
      "hit": false,
      "t": 45150,
      "d": 150,
      "v": 110
    },
    {
      "midi": 67,
      "hit": false,
      "t": 45900,
      "d": 300,
      "v": 110
    },
    {
      "midi": 65,
      "hit": false,
      "t": 46200,
      "d": 300,
      "v": 110
    },
    {
      "midi": 64,
      "hit": false,
      "t": 46500,
      "d": 300,
      "v": 110
    },
    {
      "midi": 62,
      "hit": false,
      "t": 46800,
      "d": 450,
      "v": 110
    },
    {
      "midi": 50,
      "hit": false,
      "t": 46800,
      "d": 300,
      "v": 110
    },
    {
      "midi": 50,
      "hit": false,
      "t": 47100,
      "d": 150,
      "v": 110
    },
    {
      "midi": 50,
      "hit": false,
      "t": 47250,
      "d": 300,
      "v": 110
    },
    {
      "midi": 62,
      "hit": false,
      "t": 47400,
      "d": 150,
      "v": 110
    },
    {
      "midi": 64,
      "hit": false,
      "t": 47550,
      "d": 150,
      "v": 110
    },
    {
      "midi": 50,
      "hit": false,
      "t": 47550,
      "d": 150,
      "v": 110
    },
    {
      "midi": 65,
      "hit": false,
      "t": 47700,
      "d": 450,
      "v": 110
    },
    {
      "midi": 50,
      "hit": false,
      "t": 47700,
      "d": 300,
      "v": 110
    },
    {
      "midi": 67,
      "hit": false,
      "t": 48300,
      "d": 150,
      "v": 110
    },
    {
      "midi": 69,
      "hit": false,
      "t": 48450,
      "d": 150,
      "v": 110
    },
    {
      "midi": 67,
      "hit": false,
      "t": 48600,
      "d": 300,
      "v": 110
    },
    {
      "midi": 65,
      "hit": false,
      "t": 48900,
      "d": 300,
      "v": 110
    },
    {
      "midi": 64,
      "hit": false,
      "t": 49200,
      "d": 300,
      "v": 110
    },
    {
      "midi": 65,
      "hit": false,
      "t": 49500,
      "d": 300,
      "v": 110
    },
    {
      "midi": 53,
      "hit": false,
      "t": 49500,
      "d": 300,
      "v": 110
    },
    {
      "midi": 67,
      "hit": false,
      "t": 49800,
      "d": 300,
      "v": 110
    },
    {
      "midi": 53,
      "hit": false,
      "t": 49800,
      "d": 150,
      "v": 110
    },
    {
      "midi": 53,
      "hit": false,
      "t": 49950,
      "d": 150,
      "v": 110
    },
    {
      "midi": 69,
      "hit": false,
      "t": 50100,
      "d": 300,
      "v": 110
    },
    {
      "midi": 53,
      "hit": false,
      "t": 50100,
      "d": 150,
      "v": 110
    },
    {
      "midi": 53,
      "hit": false,
      "t": 50250,
      "d": 150,
      "v": 110
    },
    {
      "midi": 67,
      "hit": false,
      "t": 50400,
      "d": 450,
      "v": 110
    },
    {
      "midi": 65,
      "hit": false,
      "t": 51000,
      "d": 150,
      "v": 110
    },
    {
      "midi": 67,
      "hit": false,
      "t": 51150,
      "d": 150,
      "v": 110
    },
    {
      "midi": 69,
      "hit": false,
      "t": 51300,
      "d": 450,
      "v": 110
    },
    {
      "midi": 53,
      "hit": false,
      "t": 51300,
      "d": 300,
      "v": 110
    },
    {
      "midi": 53,
      "hit": false,
      "t": 51600,
      "d": 150,
      "v": 110
    },
    {
      "midi": 53,
      "hit": false,
      "t": 51750,
      "d": 150,
      "v": 110
    },
    {
      "midi": 67,
      "hit": false,
      "t": 51900,
      "d": 150,
      "v": 110
    },
    {
      "midi": 53,
      "hit": false,
      "t": 51900,
      "d": 150,
      "v": 110
    },
    {
      "midi": 65,
      "hit": false,
      "t": 52050,
      "d": 150,
      "v": 110
    },
    {
      "midi": 53,
      "hit": false,
      "t": 52050,
      "d": 150,
      "v": 110
    },
    {
      "midi": 64,
      "hit": false,
      "t": 52200,
      "d": 300,
      "v": 110
    },
    {
      "midi": 65,
      "hit": false,
      "t": 52500,
      "d": 300,
      "v": 110
    },
    {
      "midi": 64,
      "hit": false,
      "t": 52800,
      "d": 300,
      "v": 110
    },
    {
      "midi": 62,
      "hit": false,
      "t": 53100,
      "d": 450,
      "v": 110
    },
    {
      "midi": 50,
      "hit": false,
      "t": 53100,
      "d": 300,
      "v": 110
    },
    {
      "midi": 50,
      "hit": false,
      "t": 53400,
      "d": 150,
      "v": 110
    },
    {
      "midi": 50,
      "hit": false,
      "t": 53550,
      "d": 300,
      "v": 110
    },
    {
      "midi": 64,
      "hit": false,
      "t": 53700,
      "d": 150,
      "v": 110
    },
    {
      "midi": 60,
      "hit": false,
      "t": 53850,
      "d": 150,
      "v": 110
    },
    {
      "midi": 50,
      "hit": false,
      "t": 53850,
      "d": 150,
      "v": 110
    },
    {
      "midi": 62,
      "hit": false,
      "t": 54000,
      "d": 450,
      "v": 110
    },
    {
      "midi": 74,
      "hit": false,
      "t": 54600,
      "d": 150,
      "v": 110
    },
    {
      "midi": 76,
      "hit": false,
      "t": 54750,
      "d": 150,
      "v": 110
    },
    {
      "midi": 77,
      "hit": false,
      "t": 54900,
      "d": 450,
      "v": 110
    },
    {
      "midi": 76,
      "hit": false,
      "t": 55500,
      "d": 150,
      "v": 110
    },
    {
      "midi": 77,
      "hit": false,
      "t": 55650,
      "d": 150,
      "v": 110
    },
    {
      "midi": 79,
      "hit": false,
      "t": 55800,
      "d": 300,
      "v": 110
    },
    {
      "midi": 77,
      "hit": false,
      "t": 56100,
      "d": 300,
      "v": 110
    },
    {
      "midi": 79,
      "hit": false,
      "t": 56400,
      "d": 300,
      "v": 110
    },
    {
      "midi": 81,
      "hit": false,
      "t": 56700,
      "d": 300,
      "v": 110
    },
    {
      "midi": 79,
      "hit": false,
      "t": 57000,
      "d": 300,
      "v": 110
    },
    {
      "midi": 77,
      "hit": false,
      "t": 57300,
      "d": 300,
      "v": 110
    },
    {
      "midi": 74,
      "hit": false,
      "t": 57600,
      "d": 450,
      "v": 110
    },
    {
      "midi": 74,
      "hit": false,
      "t": 58200,
      "d": 150,
      "v": 110
    },
    {
      "midi": 76,
      "hit": false,
      "t": 58350,
      "d": 150,
      "v": 110
    },
    {
      "midi": 77,
      "hit": false,
      "t": 58500,
      "d": 300,
      "v": 110
    },
    {
      "midi": 79,
      "hit": false,
      "t": 58800,
      "d": 300,
      "v": 110
    },
    {
      "midi": 81,
      "hit": false,
      "t": 59100,
      "d": 300,
      "v": 110
    },
    {
      "midi": 82,
      "hit": false,
      "t": 59400,
      "d": 300,
      "v": 110
    },
    {
      "midi": 74,
      "hit": false,
      "t": 59700,
      "d": 300,
      "v": 110
    },
    {
      "midi": 79,
      "hit": false,
      "t": 60000,
      "d": 300,
      "v": 110
    },
    {
      "midi": 77,
      "hit": false,
      "t": 60300,
      "d": 450,
      "v": 110
    },
    {
      "midi": 79,
      "hit": false,
      "t": 60900,
      "d": 150,
      "v": 110
    },
    {
      "midi": 76,
      "hit": false,
      "t": 61050,
      "d": 150,
      "v": 110
    },
    {
      "midi": 74,
      "hit": false,
      "t": 61200,
      "d": 450,
      "v": 110
    },
    {
      "midi": 76,
      "hit": false,
      "t": 61800,
      "d": 150,
      "v": 110
    },
    {
      "midi": 73,
      "hit": false,
      "t": 61950,
      "d": 150,
      "v": 110
    },
    {
      "midi": 81,
      "hit": false,
      "t": 62100,
      "d": 450,
      "v": 110
    },
    {
      "midi": 82,
      "hit": false,
      "t": 63000,
      "d": 450,
      "v": 110
    },
    {
      "midi": 81,
      "hit": false,
      "t": 63900,
      "d": 300,
      "v": 110
    },
    {
      "midi": 81,
      "hit": false,
      "t": 64200,
      "d": 300,
      "v": 110
    },
    {
      "midi": 81,
      "hit": false,
      "t": 64500,
      "d": 300,
      "v": 110
    },
    {
      "midi": 81,
      "hit": false,
      "t": 64800,
      "d": 150,
      "v": 110
    },
    {
      "midi": 79,
      "hit": false,
      "t": 64950,
      "d": 150,
      "v": 110
    },
    {
      "midi": 79,
      "hit": false,
      "t": 65700,
      "d": 450,
      "v": 110
    },
    {
      "midi": 77,
      "hit": false,
      "t": 66600,
      "d": 450,
      "v": 110
    },
    {
      "midi": 77,
      "hit": false,
      "t": 67500,
      "d": 300,
      "v": 110
    },
    {
      "midi": 79,
      "hit": false,
      "t": 67800,
      "d": 300,
      "v": 110
    },
    {
      "midi": 76,
      "hit": false,
      "t": 68100,
      "d": 300,
      "v": 110
    },
    {
      "midi": 74,
      "hit": false,
      "t": 68400,
      "d": 450,
      "v": 110
    },
    {
      "midi": 74,
      "hit": false,
      "t": 68850,
      "d": 150,
      "v": 110
    },
    {
      "midi": 76,
      "hit": false,
      "t": 69000,
      "d": 150,
      "v": 110
    },
    {
      "midi": 77,
      "hit": false,
      "t": 69150,
      "d": 150,
      "v": 110
    },
    {
      "midi": 81,
      "hit": false,
      "t": 69300,
      "d": 450,
      "v": 110
    },
    {
      "midi": 74,
      "hit": false,
      "t": 69750,
      "d": 150,
      "v": 110
    },
    {
      "midi": 76,
      "hit": false,
      "t": 69900,
      "d": 150,
      "v": 110
    },
    {
      "midi": 77,
      "hit": false,
      "t": 70050,
      "d": 150,
      "v": 110
    },
    {
      "midi": 82,
      "hit": false,
      "t": 70200,
      "d": 450,
      "v": 110
    },
    {
      "midi": 74,
      "hit": false,
      "t": 70650,
      "d": 150,
      "v": 110
    },
    {
      "midi": 76,
      "hit": false,
      "t": 70800,
      "d": 150,
      "v": 110
    },
    {
      "midi": 77,
      "hit": false,
      "t": 70950,
      "d": 150,
      "v": 110
    },
    {
      "midi": 81,
      "hit": false,
      "t": 71100,
      "d": 300,
      "v": 110
    },
    {
      "midi": 81,
      "hit": false,
      "t": 71400,
      "d": 300,
      "v": 110
    },
    {
      "midi": 84,
      "hit": false,
      "t": 71700,
      "d": 300,
      "v": 110
    },
    {
      "midi": 81,
      "hit": false,
      "t": 72000,
      "d": 150,
      "v": 110
    },
    {
      "midi": 79,
      "hit": false,
      "t": 72150,
      "d": 150,
      "v": 110
    },
    {
      "midi": 79,
      "hit": false,
      "t": 72900,
      "d": 450,
      "v": 110
    },
    {
      "midi": 77,
      "hit": false,
      "t": 73800,
      "d": 450,
      "v": 110
    },
    {
      "midi": 77,
      "hit": false,
      "t": 74700,
      "d": 300,
      "v": 110
    },
    {
      "midi": 79,
      "hit": false,
      "t": 75000,
      "d": 300,
      "v": 110
    },
    {
      "midi": 76,
      "hit": false,
      "t": 75300,
      "d": 300,
      "v": 110
    },
    {
      "midi": 74,
      "hit": false,
      "t": 75600,
      "d": 450,
      "v": 110
    },
    {
      "midi": 62,
      "hit": false,
      "t": 76500,
      "d": 900,
      "v": 110
    }
  ]
}