{
  "jsonPath": "Unknown/American Romanticism/Ethelbert Nevin/narcissus.json",
  "path": "Unknown\\American Romanticism\\Ethelbert Nevin\\Narcissus.mid",
  "name": "Narcissus",
  "difficulty": "Advanced",
  "bpm": 120,
  "notes": [
    {
      "midi": 71,
      "hit": false,
      "t": 1500,
      "d": 500,
      "v": 100
    },
    {
      "midi": 62,
      "hit": false,
      "t": 2000,
      "d": 750,
      "v": 100
    },
    {
      "midi": 43,
      "hit": false,
      "t": 2000,
      "d": 500,
      "v": 100
    },
    {
      "midi": 50,
      "hit": false,
      "t": 2500,
      "d": 500,
      "v": 100
    },
    {
      "midi": 55,
      "hit": false,
      "t": 2500,
      "d": 500,
      "v": 100
    },
    {
      "midi": 59,
      "hit": false,
      "t": 2500,
      "d": 500,
      "v": 100
    },
    {
      "midi": 64,
      "hit": false,
      "t": 2750,
      "d": 250,
      "v": 100
    },
    {
      "midi": 67,
      "hit": false,
      "t": 3000,
      "d": 750,
      "v": 100
    },
    {
      "midi": 38,
      "hit": false,
      "t": 3000,
      "d": 500,
      "v": 100
    },
    {
      "midi": 50,
      "hit": false,
      "t": 3500,
      "d": 500,
      "v": 100
    },
    {
      "midi": 55,
      "hit": false,
      "t": 3500,
      "d": 500,
      "v": 100
    },
    {
      "midi": 59,
      "hit": false,
      "t": 3500,
      "d": 500,
      "v": 100
    },
    {
      "midi": 64,
      "hit": false,
      "t": 3750,
      "d": 250,
      "v": 100
    },
    {
      "midi": 66,
      "hit": false,
      "t": 4000,
      "d": 166.66666666666697,
      "v": 100
    },
    {
      "midi": 45,
      "hit": false,
      "t": 4000,
      "d": 500,
      "v": 100
    },
    {
      "midi": 69,
      "hit": false,
      "t": 4166.666666666667,
      "d": 166.66666666666697,
      "v": 100
    },
    {
      "midi": 64,
      "hit": false,
      "t": 4333.333333333334,
      "d": 166.66666666666697,
      "v": 100
    },
    {
      "midi": 50,
      "hit": false,
      "t": 4500,
      "d": 500,
      "v": 100
    },
    {
      "midi": 54,
      "hit": false,
      "t": 4500,
      "d": 500,
      "v": 100
    },
    {
      "midi": 60,
      "hit": false,
      "t": 4500,
      "d": 500,
      "v": 100
    },
    {
      "midi": 66,
      "hit": false,
      "t": 4500.000000000001,
      "d": 375,
      "v": 100
    },
    {
      "midi": 69,
      "hit": false,
      "t": 4875.000000000001,
      "d": 125,
      "v": 100
    },
    {
      "midi": 38,
      "hit": false,
      "t": 5000,
      "d": 500,
      "v": 100
    },
    {
      "midi": 74,
      "hit": false,
      "t": 5000.000000000001,
      "d": 750,
      "v": 100
    },
    {
      "midi": 50,
      "hit": false,
      "t": 5500,
      "d": 500,
      "v": 100
    },
    {
      "midi": 54,
      "hit": false,
      "t": 5500,
      "d": 500,
      "v": 100
    },
    {
      "midi": 60,
      "hit": false,
      "t": 5500,
      "d": 500,
      "v": 100
    },
    {
      "midi": 71,
      "hit": false,
      "t": 5750.000000000001,
      "d": 250,
      "v": 100
    },
    {
      "midi": 43,
      "hit": false,
      "t": 6000,
      "d": 500,
      "v": 100
    },
    {
      "midi": 62,
      "hit": false,
      "t": 6000.000000000001,
      "d": 750,
      "v": 100
    },
    {
      "midi": 50,
      "hit": false,
      "t": 6500,
      "d": 500,
      "v": 100
    },
    {
      "midi": 55,
      "hit": false,
      "t": 6500,
      "d": 500,
      "v": 100
    },
    {
      "midi": 59,
      "hit": false,
      "t": 6500,
      "d": 500,
      "v": 100
    },
    {
      "midi": 64,
      "hit": false,
      "t": 6750.000000000001,
      "d": 250,
      "v": 100
    },
    {
      "midi": 38,
      "hit": false,
      "t": 7000,
      "d": 500,
      "v": 100
    },
    {
      "midi": 67,
      "hit": false,
      "t": 7000.000000000001,
      "d": 750,
      "v": 100
    },
    {
      "midi": 50,
      "hit": false,
      "t": 7500,
      "d": 500,
      "v": 100
    },
    {
      "midi": 55,
      "hit": false,
      "t": 7500,
      "d": 500,
      "v": 100
    },
    {
      "midi": 59,
      "hit": false,
      "t": 7500,
      "d": 500,
      "v": 100
    },
    {
      "midi": 64,
      "hit": false,
      "t": 7750.000000000001,
      "d": 250,
      "v": 100
    },
    {
      "midi": 45,
      "hit": false,
      "t": 8000,
      "d": 500,
      "v": 100
    },
    {
      "midi": 66,
      "hit": false,
      "t": 8000.000000000001,
      "d": 166.66666666666697,
      "v": 100
    },
    {
      "midi": 69,
      "hit": false,
      "t": 8166.666666666668,
      "d": 166.66666666666606,
      "v": 100
    },
    {
      "midi": 64,
      "hit": false,
      "t": 8333.333333333334,
      "d": 166.66666666666606,
      "v": 100
    },
    {
      "midi": 66,
      "hit": false,
      "t": 8500,
      "d": 375,
      "v": 100
    },
    {
      "midi": 50,
      "hit": false,
      "t": 8500,
      "d": 500,
      "v": 100
    },
    {
      "midi": 54,
      "hit": false,
      "t": 8500,
      "d": 500,
      "v": 100
    },
    {
      "midi": 60,
      "hit": false,
      "t": 8500,
      "d": 500,
      "v": 100
    },
    {
      "midi": 69,
      "hit": false,
      "t": 8875,
      "d": 125,
      "v": 100
    },
    {
      "midi": 74,
      "hit": false,
      "t": 9000,
      "d": 750,
      "v": 100
    },
    {
      "midi": 38,
      "hit": false,
      "t": 9000,
      "d": 500,
      "v": 100
    },
    {
      "midi": 50,
      "hit": false,
      "t": 9500,
      "d": 500,
      "v": 100
    },
    {
      "midi": 54,
      "hit": false,
      "t": 9500,
      "d": 500,
      "v": 100
    },
    {
      "midi": 60,
      "hit": false,
      "t": 9500,
      "d": 500,
      "v": 100
    },
    {
      "midi": 76,
      "hit": false,
      "t": 9750,
      "d": 250,
      "v": 100
    },
    {
      "midi": 74,
      "hit": false,
      "t": 10000,
      "d": 750,
      "v": 100
    },
    {
      "midi": 43,
      "hit": false,
      "t": 10000,
      "d": 375,
      "v": 100
    },
    {
      "midi": 55,
      "hit": false,
      "t": 10375,
      "d": 125,
      "v": 100
    },
    {
      "midi": 59,
      "hit": false,
      "t": 10500,
      "d": 500,
      "v": 100
    },
    {
      "midi": 65,
      "hit": false,
      "t": 10500,
      "d": 500,
      "v": 100
    },
    {
      "midi": 76,
      "hit": false,
      "t": 10750,
      "d": 250,
      "v": 100
    },
    {
      "midi": 72,
      "hit": false,
      "t": 11000,
      "d": 750,
      "v": 100
    },
    {
      "midi": 48,
      "hit": false,
      "t": 11000,
      "d": 375,
      "v": 100
    },
    {
      "midi": 55,
      "hit": false,
      "t": 11375,
      "d": 125,
      "v": 100
    },
    {
      "midi": 60,
      "hit": false,
      "t": 11500,
      "d": 500,
      "v": 100
    },
    {
      "midi": 64,
      "hit": false,
      "t": 11500,
      "d": 500,
      "v": 100
    },
    {
      "midi": 76,
      "hit": false,
      "t": 11750,
      "d": 250,
      "v": 100
    },
    {
      "midi": 71,
      "hit": false,
      "t": 12000,
      "d": 750,
      "v": 100
    },
    {
      "midi": 40,
      "hit": false,
      "t": 12000,
      "d": 375,
      "v": 100
    },
    {
      "midi": 52,
      "hit": false,
      "t": 12375,
      "d": 125,
      "v": 100
    },
    {
      "midi": 56,
      "hit": false,
      "t": 12500,
      "d": 500,
      "v": 100
    },
    {
      "midi": 62,
      "hit": false,
      "t": 12500,
      "d": 500,
      "v": 100
    },
    {
      "midi": 72,
      "hit": false,
      "t": 12750,
      "d": 250,
      "v": 100
    },
    {
      "midi": 69,
      "hit": false,
      "t": 13000,
      "d": 750,
      "v": 100
    },
    {
      "midi": 45,
      "hit": false,
      "t": 13000,
      "d": 375,
      "v": 100
    },
    {
      "midi": 52,
      "hit": false,
      "t": 13375,
      "d": 125,
      "v": 100
    },
    {
      "midi": 57,
      "hit": false,
      "t": 13500,
      "d": 500,
      "v": 100
    },
    {
      "midi": 60,
      "hit": false,
      "t": 13500,
      "d": 500,
      "v": 100
    },
    {
      "midi": 71,
      "hit": false,
      "t": 13750,
      "d": 250,
      "v": 100
    },
    {
      "midi": 69,
      "hit": false,
      "t": 14000,
      "d": 375,
      "v": 100
    },
    {
      "midi": 71,
      "hit": false,
      "t": 14375,
      "d": 125,
      "v": 100
    },
    {
      "midi": 69,
      "hit": false,
      "t": 14500,
      "d": 166.66666666666606,
      "v": 100
    },
    {
      "midi": 67,
      "hit": false,
      "t": 14666.666666666666,
      "d": 166.66666666666606,
      "v": 100
    },
    {
      "midi": 64,
      "hit": false,
      "t": 14833.333333333332,
      "d": 166.66666666666606,
      "v": 100
    },
    {
      "midi": 69,
      "hit": false,
      "t": 14999.999999999998,
      "d": 166.66666666666606,
      "v": 100
    },
    {
      "midi": 71,
      "hit": false,
      "t": 15166.666666666664,
      "d": 166.66666666666606,
      "v": 100
    },
    {
      "midi": 69,
      "hit": false,
      "t": 15333.33333333333,
      "d": 166.66666666666606,
      "v": 100
    },
    {
      "midi": 67,
      "hit": false,
      "t": 15499.999999999996,
      "d": 166.66666666666606,
      "v": 100
    },
    {
      "midi": 63,
      "hit": false,
      "t": 15666.666666666662,
      "d": 166.66666666666606,
      "v": 100
    },
    {
      "midi": 71,
      "hit": false,
      "t": 15833.333333333328,
      "d": 166.66666666666606,
      "v": 100
    },
    {
      "midi": 69,
      "hit": false,
      "t": 15999.999999999995,
      "d": 499.9999999999982,
      "v": 100
    },
    {
      "midi": 60,
      "hit": false,
      "t": 16499.999999999993,
      "d": 500,
      "v": 100
    },
    {
      "midi": 62,
      "hit": false,
      "t": 16499.999999999993,
      "d": 500,
      "v": 100
    },
    {
      "midi": 50,
      "hit": false,
      "t": 16500,
      "d": 500,
      "v": 100
    },
    {
      "midi": 59,
      "hit": false,
      "t": 16999.999999999993,
      "d": 1000,
      "v": 100
    },
    {
      "midi": 62,
      "hit": false,
      "t": 16999.999999999993,
      "d": 1000,
      "v": 100
    },
    {
      "midi": 67,
      "hit": false,
      "t": 16999.999999999993,
      "d": 1000,
      "v": 100
    },
    {
      "midi": 43,
      "hit": false,
      "t": 17000,
      "d": 1000,
      "v": 100
    },
    {
      "midi": 61,
      "hit": false,
      "t": 17999.999999999993,
      "d": 500,
      "v": 100
    },
    {
      "midi": 67,
      "hit": false,
      "t": 17999.999999999993,
      "d": 500,
      "v": 100
    },
    {
      "midi": 46,
      "hit": false,
      "t": 18000,
      "d": 500,
      "v": 100
    },
    {
      "midi": 51,
      "hit": false,
      "t": 18000,
      "d": 500,
      "v": 100
    },
    {
      "midi": 67,
      "hit": false,
      "t": 18499.999999999993,
      "d": 166.66666666666788,
      "v": 100
    },
    {
      "midi": 39,
      "hit": false,
      "t": 18500,
      "d": 500,
      "v": 100
    },
    {
      "midi": 65,
      "hit": false,
      "t": 18666.66666666666,
      "d": 166.66666666666788,
      "v": 100
    },
    {
      "midi": 67,
      "hit": false,
      "t": 18833.33333333333,
      "d": 166.66666666666788,
      "v": 100
    },
    {
      "midi": 60,
      "hit": false,
      "t": 18999.999999999996,
      "d": 500,
      "v": 100
    },
    {
      "midi": 65,
      "hit": false,
      "t": 18999.999999999996,
      "d": 500,
      "v": 100
    },
    {
      "midi": 44,
      "hit": false,
      "t": 19000,
      "d": 1000,
      "v": 100
    },
    {
      "midi": 51,
      "hit": false,
      "t": 19000,
      "d": 1000,
      "v": 100
    },
    {
      "midi": 63,
      "hit": false,
      "t": 19499.999999999996,
      "d": 500,
      "v": 100
    },
    {
      "midi": 62,
      "hit": false,
      "t": 19999.999999999996,
      "d": 500,
      "v": 100
    },
    {
      "midi": 68,
      "hit": false,
      "t": 19999.999999999996,
      "d": 500,
      "v": 100
    },
    {
      "midi": 47,
      "hit": false,
      "t": 20000,
      "d": 500,
      "v": 100
    },
    {
      "midi": 52,
      "hit": false,
      "t": 20000,
      "d": 500,
      "v": 100
    },
    {
      "midi": 68,
      "hit": false,
      "t": 20499.999999999996,
      "d": 166.66666666666788,
      "v": 100
    },
    {
      "midi": 40,
      "hit": false,
      "t": 20500,
      "d": 500,
      "v": 100
    },
    {
      "midi": 66,
      "hit": false,
      "t": 20666.666666666664,
      "d": 166.66666666666788,
      "v": 100
    },
    {
      "midi": 68,
      "hit": false,
      "t": 20833.333333333332,
      "d": 166.66666666666788,
      "v": 100
    },
    {
      "midi": 61,
      "hit": false,
      "t": 21000,
      "d": 500,
      "v": 100
    },
    {
      "midi": 66,
      "hit": false,
      "t": 21000,
      "d": 500,
      "v": 100
    },
    {
      "midi": 45,
      "hit": false,
      "t": 21000,
      "d": 1000,
      "v": 100
    },
    {
      "midi": 52,
      "hit": false,
      "t": 21000,
      "d": 1000,
      "v": 100
    },
    {
      "midi": 64,
      "hit": false,
      "t": 21500,
      "d": 500,
      "v": 100
    },
    {
      "midi": 63,
      "hit": false,
      "t": 22000,
      "d": 500,
      "v": 100
    },
    {
      "midi": 69,
      "hit": false,
      "t": 22000,
      "d": 500,
      "v": 100
    },
    {
      "midi": 48,
      "hit": false,
      "t": 22000,
      "d": 500,
      "v": 100
    },
    {
      "midi": 53,
      "hit": false,
      "t": 22000,
      "d": 500,
      "v": 100
    },
    {
      "midi": 69,
      "hit": false,
      "t": 22500,
      "d": 166.66666666666788,
      "v": 100
    },
    {
      "midi": 41,
      "hit": false,
      "t": 22500,
      "d": 500,
      "v": 100
    },
    {
      "midi": 67,
      "hit": false,
      "t": 22666.666666666668,
      "d": 166.66666666666788,
      "v": 100
    },
    {
      "midi": 69,
      "hit": false,
      "t": 22833.333333333336,
      "d": 166.66666666666788,
      "v": 100
    },
    {
      "midi": 46,
      "hit": false,
      "t": 23000,
      "d": 1000,
      "v": 100
    },
    {
      "midi": 53,
      "hit": false,
      "t": 23000,
      "d": 1000,
      "v": 100
    },
    {
      "midi": 62,
      "hit": false,
      "t": 23000.000000000004,
      "d": 500,
      "v": 100
    },
    {
      "midi": 67,
      "hit": false,
      "t": 23000.000000000004,
      "d": 500,
      "v": 100
    },
    {
      "midi": 65,
      "hit": false,
      "t": 23500.000000000004,
      "d": 500,
      "v": 100
    },
    {
      "midi": 49,
      "hit": false,
      "t": 24000,
      "d": 500,
      "v": 100
    },
    {
      "midi": 54,
      "hit": false,
      "t": 24000,
      "d": 500,
      "v": 100
    },
    {
      "midi": 64,
      "hit": false,
      "t": 24000.000000000004,
      "d": 500,
      "v": 100
    },
    {
      "midi": 70,
      "hit": false,
      "t": 24000.000000000004,
      "d": 500,
      "v": 100
    },
    {
      "midi": 42,
      "hit": false,
      "t": 24500,
      "d": 500,
      "v": 100
    },
    {
      "midi": 70,
      "hit": false,
      "t": 24500.000000000004,
      "d": 166.66666666666788,
      "v": 100
    },
    {
      "midi": 68,
      "hit": false,
      "t": 24666.66666666667,
      "d": 166.66666666666788,
      "v": 100
    },
    {
      "midi": 70,
      "hit": false,
      "t": 24833.33333333334,
      "d": 166.66666666666788,
      "v": 100
    },
    {
      "midi": 47,
      "hit": false,
      "t": 25000,
      "d": 1000,
      "v": 100
    },
    {
      "midi": 54,
      "hit": false,
      "t": 25000,
      "d": 1000,
      "v": 100
    },
    {
      "midi": 63,
      "hit": false,
      "t": 25000.000000000007,
      "d": 500,
      "v": 100
    },
    {
      "midi": 68,
      "hit": false,
      "t": 25000.000000000007,
      "d": 500,
      "v": 100
    },
    {
      "midi": 66,
      "hit": false,
      "t": 25500.000000000007,
      "d": 500,
      "v": 100
    },
    {
      "midi": 50,
      "hit": false,
      "t": 26000,
      "d": 500,
      "v": 100
    },
    {
      "midi": 55,
      "hit": false,
      "t": 26000,
      "d": 500,
      "v": 100
    },
    {
      "midi": 65,
      "hit": false,
      "t": 26000.000000000007,
      "d": 500,
      "v": 100
    },
    {
      "midi": 71,
      "hit": false,
      "t": 26000.000000000007,
      "d": 500,
      "v": 100
    },
    {
      "midi": 43,
      "hit": false,
      "t": 26500,
      "d": 500,
      "v": 100
    },
    {
      "midi": 71,
      "hit": false,
      "t": 26500.000000000007,
      "d": 166.66666666666788,
      "v": 100
    },
    {
      "midi": 69,
      "hit": false,
      "t": 26666.666666666675,
      "d": 166.66666666666788,
      "v": 100
    },
    {
      "midi": 71,
      "hit": false,
      "t": 26833.333333333343,
      "d": 166.66666666666788,
      "v": 100
    },
    {
      "midi": 48,
      "hit": false,
      "t": 27000,
      "d": 1000,
      "v": 100
    },
    {
      "midi": 55,
      "hit": false,
      "t": 27000,
      "d": 1000,
      "v": 100
    },
    {
      "midi": 64,
      "hit": false,
      "t": 27000.00000000001,
      "d": 500,
      "v": 100
    },
    {
      "midi": 69,
      "hit": false,
      "t": 27000.00000000001,
      "d": 500,
      "v": 100
    },
    {
      "midi": 67,
      "hit": false,
      "t": 27500.00000000001,
      "d": 500,
      "v": 100
    },
    {
      "midi": 54,
      "hit": false,
      "t": 28000,
      "d": 500,
      "v": 100
    },
    {
      "midi": 60,
      "hit": false,
      "t": 28000,
      "d": 500,
      "v": 100
    },
    {
      "midi": 63,
      "hit": false,
      "t": 28000,
      "d": 500,
      "v": 100
    },
    {
      "midi": 68,
      "hit": false,
      "t": 28000.00000000001,
      "d": 166.66666666666788,
      "v": 100
    },
    {
      "midi": 72,
      "hit": false,
      "t": 28166.66666666668,
      "d": 166.66666666666788,
      "v": 100
    },
    {
      "midi": 75,
      "hit": false,
      "t": 28333.333333333347,
      "d": 166.66666666666788,
      "v": 100
    },
    {
      "midi": 53,
      "hit": false,
      "t": 28500,
      "d": 500,
      "v": 100
    },
    {
      "midi": 59,
      "hit": false,
      "t": 28500,
      "d": 500,
      "v": 100
    },
    {
      "midi": 62,
      "hit": false,
      "t": 28500,
      "d": 500,
      "v": 100
    },
    {
      "midi": 67,
      "hit": false,
      "t": 28500.000000000015,
      "d": 166.66666666666788,
      "v": 100
    },
    {
      "midi": 71,
      "hit": false,
      "t": 28666.666666666682,
      "d": 166.66666666666788,
      "v": 100
    },
    {
      "midi": 74,
      "hit": false,
      "t": 28833.33333333335,
      "d": 166.66666666666788,
      "v": 100
    },
    {
      "midi": 52,
      "hit": false,
      "t": 29000,
      "d": 500,
      "v": 100
    },
    {
      "midi": 58,
      "hit": false,
      "t": 29000,
      "d": 500,
      "v": 100
    },
    {
      "midi": 61,
      "hit": false,
      "t": 29000,
      "d": 500,
      "v": 100
    },
    {
      "midi": 66,
      "hit": false,
      "t": 29000.00000000002,
      "d": 166.66666666666788,
      "v": 100
    },
    {
      "midi": 70,
      "hit": false,
      "t": 29166.666666666686,
      "d": 166.66666666666788,
      "v": 100
    },
    {
      "midi": 73,
      "hit": false,
      "t": 29333.333333333354,
      "d": 166.66666666666788,
      "v": 100
    },
    {
      "midi": 51,
      "hit": false,
      "t": 29500,
      "d": 500,
      "v": 100
    },
    {
      "midi": 57,
      "hit": false,
      "t": 29500,
      "d": 500,
      "v": 100
    },
    {
      "midi": 60,
      "hit": false,
      "t": 29500,
      "d": 500,
      "v": 100
    },
    {
      "midi": 65,
      "hit": false,
      "t": 29500.000000000022,
      "d": 166.66666666666788,
      "v": 100
    },
    {
      "midi": 69,
      "hit": false,
      "t": 29666.66666666669,
      "d": 166.66666666666788,
      "v": 100
    },
    {
      "midi": 72,
      "hit": false,
      "t": 29833.333333333358,
      "d": 166.66666666666788,
      "v": 100
    },
    {
      "midi": 50,
      "hit": false,
      "t": 30000,
      "d": 1000,
      "v": 100
    },
    {
      "midi": 56,
      "hit": false,
      "t": 30000,
      "d": 1000,
      "v": 100
    },
    {
      "midi": 59,
      "hit": false,
      "t": 30000,
      "d": 1000,
      "v": 100
    },
    {
      "midi": 64,
      "hit": false,
      "t": 30000.000000000025,
      "d": 166.66666666666788,
      "v": 100
    },
    {
      "midi": 68,
      "hit": false,
      "t": 30166.666666666693,
      "d": 166.66666666666788,
      "v": 100
    },
    {
      "midi": 71,
      "hit": false,
      "t": 30333.33333333336,
      "d": 166.66666666666788,
      "v": 100
    },
    {
      "midi": 76,
      "hit": false,
      "t": 30500.00000000003,
      "d": 166.66666666666788,
      "v": 100
    },
    {
      "midi": 71,
      "hit": false,
      "t": 30666.666666666697,
      "d": 166.66666666666788,
      "v": 100
    },
    {
      "midi": 68,
      "hit": false,
      "t": 30833.333333333365,
      "d": 166.66666666666788,
      "v": 100
    },
    {
      "midi": 49,
      "hit": false,
      "t": 31000,
      "d": 1000,
      "v": 100
    },
    {
      "midi": 55,
      "hit": false,
      "t": 31000,
      "d": 1000,
      "v": 100
    },
    {
      "midi": 58,
      "hit": false,
      "t": 31000,
      "d": 1000,
      "v": 100
    },
    {
      "midi": 63,
      "hit": false,
      "t": 31000.000000000033,
      "d": 166.66666666666788,
      "v": 100
    },
    {
      "midi": 67,
      "hit": false,
      "t": 31166.6666666667,
      "d": 166.66666666666788,
      "v": 100
    },
    {
      "midi": 70,
      "hit": false,
      "t": 31333.33333333337,
      "d": 166.66666666666788,
      "v": 100
    },
    {
      "midi": 75,
      "hit": false,
      "t": 31500.000000000036,
      "d": 166.66666666666788,
      "v": 100
    },
    {
      "midi": 70,
      "hit": false,
      "t": 31666.666666666704,
      "d": 166.66666666666788,
      "v": 100
    },
    {
      "midi": 67,
      "hit": false,
      "t": 31833.333333333372,
      "d": 166.66666666666788,
      "v": 100
    },
    {
      "midi": 48,
      "hit": false,
      "t": 32000,
      "d": 1000,
      "v": 100
    },
    {
      "midi": 54,
      "hit": false,
      "t": 32000,
      "d": 1000,
      "v": 100
    },
    {
      "midi": 57,
      "hit": false,
      "t": 32000,
      "d": 1000,
      "v": 100
    },
    {
      "midi": 62,
      "hit": false,
      "t": 32000.00000000004,
      "d": 166.66666666666788,
      "v": 100
    },
    {
      "midi": 66,
      "hit": false,
      "t": 32166.666666666708,
      "d": 166.66666666666788,
      "v": 100
    },
    {
      "midi": 69,
      "hit": false,
      "t": 32333.333333333376,
      "d": 166.66666666666788,
      "v": 100
    },
    {
      "midi": 74,
      "hit": false,
      "t": 32500.000000000044,
      "d": 166.66666666666788,
      "v": 100
    },
    {
      "midi": 69,
      "hit": false,
      "t": 32666.66666666671,
      "d": 166.66666666666788,
      "v": 100
    },
    {
      "midi": 65,
      "hit": false,
      "t": 32833.33333333338,
      "d": 166.66666666666424,
      "v": 100
    },
    {
      "midi": 38,
      "hit": false,
      "t": 33000,
      "d": 500,
      "v": 100
    },
    {
      "midi": 62,
      "hit": false,
      "t": 33000.000000000044,
      "d": 500,
      "v": 100
    },
    {
      "midi": 71,
      "hit": false,
      "t": 33500.000000000044,
      "d": 500,
      "v": 100
    },
    {
      "midi": 43,
      "hit": false,
      "t": 34000,
      "d": 500,
      "v": 100
    },
    {
      "midi": 62,
      "hit": false,
      "t": 34000.000000000044,
      "d": 750,
      "v": 100
    },
    {
      "midi": 50,
      "hit": false,
      "t": 34500,
      "d": 500,
      "v": 100
    },
    {
      "midi": 55,
      "hit": false,
      "t": 34500,
      "d": 500,
      "v": 100
    },
    {
      "midi": 59,
      "hit": false,
      "t": 34500,
      "d": 500,
      "v": 100
    },
    {
      "midi": 64,
      "hit": false,
      "t": 34750.000000000044,
      "d": 250,
      "v": 100
    },
    {
      "midi": 38,
      "hit": false,
      "t": 35000,
      "d": 500,
      "v": 100
    },
    {
      "midi": 67,
      "hit": false,
      "t": 35000.000000000044,
      "d": 750,
      "v": 100
    },
    {
      "midi": 50,
      "hit": false,
      "t": 35500,
      "d": 500,
      "v": 100
    },
    {
      "midi": 55,
      "hit": false,
      "t": 35500,
      "d": 500,
      "v": 100
    },
    {
      "midi": 59,
      "hit": false,
      "t": 35500,
      "d": 500,
      "v": 100
    },
    {
      "midi": 64,
      "hit": false,
      "t": 35750.000000000044,
      "d": 250,
      "v": 100
    },
    {
      "midi": 45,
      "hit": false,
      "t": 36000,
      "d": 500,
      "v": 100
    },
    {
      "midi": 65,
      "hit": false,
      "t": 36000.000000000044,
      "d": 166.66666666666424,
      "v": 100
    },
    {
      "midi": 69,
      "hit": false,
      "t": 36166.66666666671,
      "d": 166.66666666666424,
      "v": 100
    },
    {
      "midi": 64,
      "hit": false,
      "t": 36333.33333333337,
      "d": 166.66666666666424,
      "v": 100
    },
    {
      "midi": 50,
      "hit": false,
      "t": 36500,
      "d": 500,
      "v": 100
    },
    {
      "midi": 54,
      "hit": false,
      "t": 36500,
      "d": 500,
      "v": 100
    },
    {
      "midi": 60,
      "hit": false,
      "t": 36500,
      "d": 500,
      "v": 100
    },
    {
      "midi": 65,
      "hit": false,
      "t": 36500.00000000004,
      "d": 375,
      "v": 100
    },
    {
      "midi": 69,
      "hit": false,
      "t": 36875.00000000004,
      "d": 125,
      "v": 100
    },
    {
      "midi": 38,
      "hit": false,
      "t": 37000,
      "d": 500,
      "v": 100
    },
    {
      "midi": 74,
      "hit": false,
      "t": 37000.00000000004,
      "d": 750,
      "v": 100
    },
    {
      "midi": 50,
      "hit": false,
      "t": 37500,
      "d": 500,
      "v": 100
    },
    {
      "midi": 54,
      "hit": false,
      "t": 37500,
      "d": 500,
      "v": 100
    },
    {
      "midi": 60,
      "hit": false,
      "t": 37500,
      "d": 500,
      "v": 100
    },
    {
      "midi": 71,
      "hit": false,
      "t": 37750.00000000004,
      "d": 250,
      "v": 100
    },
    {
      "midi": 43,
      "hit": false,
      "t": 38000,
      "d": 500,
      "v": 100
    },
    {
      "midi": 62,
      "hit": false,
      "t": 38000.00000000004,
      "d": 750,
      "v": 100
    },
    {
      "midi": 50,
      "hit": false,
      "t": 38500,
      "d": 500,
      "v": 100
    },
    {
      "midi": 55,
      "hit": false,
      "t": 38500,
      "d": 500,
      "v": 100
    },
    {
      "midi": 59,
      "hit": false,
      "t": 38500,
      "d": 500,
      "v": 100
    },
    {
      "midi": 64,
      "hit": false,
      "t": 38750.00000000004,
      "d": 250,
      "v": 100
    },
    {
      "midi": 38,
      "hit": false,
      "t": 39000,
      "d": 500,
      "v": 100
    },
    {
      "midi": 67,
      "hit": false,
      "t": 39000.00000000004,
      "d": 750,
      "v": 100
    },
    {
      "midi": 50,
      "hit": false,
      "t": 39500,
      "d": 500,
      "v": 100
    },
    {
      "midi": 55,
      "hit": false,
      "t": 39500,
      "d": 500,
      "v": 100
    },
    {
      "midi": 59,
      "hit": false,
      "t": 39500,
      "d": 500,
      "v": 100
    },
    {
      "midi": 64,
      "hit": false,
      "t": 39750.00000000004,
      "d": 250,
      "v": 100
    },
    {
      "midi": 45,
      "hit": false,
      "t": 40000,
      "d": 500,
      "v": 100
    },
    {
      "midi": 65,
      "hit": false,
      "t": 40000.00000000004,
      "d": 166.66666666666424,
      "v": 100
    },
    {
      "midi": 69,
      "hit": false,
      "t": 40166.6666666667,
      "d": 166.66666666666424,
      "v": 100
    },
    {
      "midi": 64,
      "hit": false,
      "t": 40333.333333333365,
      "d": 166.66666666666424,
      "v": 100
    },
    {
      "midi": 50,
      "hit": false,
      "t": 40500,
      "d": 500,
      "v": 100
    },
    {
      "midi": 54,
      "hit": false,
      "t": 40500,
      "d": 500,
      "v": 100
    },
    {
      "midi": 60,
      "hit": false,
      "t": 40500,
      "d": 500,
      "v": 100
    },
    {
      "midi": 65,
      "hit": false,
      "t": 40500.00000000003,
      "d": 375,
      "v": 100
    },
    {
      "midi": 69,
      "hit": false,
      "t": 40875.00000000003,
      "d": 125,
      "v": 100
    },
    {
      "midi": 38,
      "hit": false,
      "t": 41000,
      "d": 500,
      "v": 100
    },
    {
      "midi": 74,
      "hit": false,
      "t": 41000.00000000003,
      "d": 750,
      "v": 100
    },
    {
      "midi": 50,
      "hit": false,
      "t": 41500,
      "d": 500,
      "v": 100
    },
    {
      "midi": 54,
      "hit": false,
      "t": 41500,
      "d": 500,
      "v": 100
    },
    {
      "midi": 60,
      "hit": false,
      "t": 41500,
      "d": 500,
      "v": 100
    },
    {
      "midi": 76,
      "hit": false,
      "t": 41750.00000000003,
      "d": 250,
      "v": 100
    },
    {
      "midi": 43,
      "hit": false,
      "t": 42000,
      "d": 375,
      "v": 100
    },
    {
      "midi": 74,
      "hit": false,
      "t": 42000.00000000003,
      "d": 750,
      "v": 100
    },
    {
      "midi": 55,
      "hit": false,
      "t": 42375,
      "d": 125,
      "v": 100
    },
    {
      "midi": 59,
      "hit": false,
      "t": 42500,
      "d": 500,
      "v": 100
    },
    {
      "midi": 65,
      "hit": false,
      "t": 42500,
      "d": 500,
      "v": 100
    },
    {
      "midi": 76,
      "hit": false,
      "t": 42750.00000000003,
      "d": 250,
      "v": 100
    },
    {
      "midi": 48,
      "hit": false,
      "t": 43000,
      "d": 375,
      "v": 100
    },
    {
      "midi": 72,
      "hit": false,
      "t": 43000.00000000003,
      "d": 750,
      "v": 100
    },
    {
      "midi": 55,
      "hit": false,
      "t": 43375,
      "d": 125,
      "v": 100
    },
    {
      "midi": 60,
      "hit": false,
      "t": 43500,
      "d": 500,
      "v": 100
    },
    {
      "midi": 64,
      "hit": false,
      "t": 43500,
      "d": 500,
      "v": 100
    },
    {
      "midi": 76,
      "hit": false,
      "t": 43750.00000000003,
      "d": 250,
      "v": 100
    },
    {
      "midi": 40,
      "hit": false,
      "t": 44000,
      "d": 375,
      "v": 100
    },
    {
      "midi": 71,
      "hit": false,
      "t": 44000.00000000003,
      "d": 750,
      "v": 100
    },
    {
      "midi": 52,
      "hit": false,
      "t": 44375,
      "d": 125,
      "v": 100
    },
    {
      "midi": 56,
      "hit": false,
      "t": 44500,
      "d": 500,
      "v": 100
    },
    {
      "midi": 62,
      "hit": false,
      "t": 44500,
      "d": 500,
      "v": 100
    },
    {
      "midi": 72,
      "hit": false,
      "t": 44750.00000000003,
      "d": 250,
      "v": 100
    },
    {
      "midi": 45,
      "hit": false,
      "t": 45000,
      "d": 375,
      "v": 100
    },
    {
      "midi": 69,
      "hit": false,
      "t": 45000.00000000003,
      "d": 750,
      "v": 100
    },
    {
      "midi": 52,
      "hit": false,
      "t": 45375,
      "d": 125,
      "v": 100
    },
    {
      "midi": 57,
      "hit": false,
      "t": 45500,
      "d": 500,
      "v": 100
    },
    {
      "midi": 60,
      "hit": false,
      "t": 45500,
      "d": 500,
      "v": 100
    },
    {
      "midi": 71,
      "hit": false,
      "t": 45750.00000000003,
      "d": 250,
      "v": 100
    },
    {
      "midi": 69,
      "hit": false,
      "t": 46000.00000000003,
      "d": 375,
      "v": 100
    },
    {
      "midi": 71,
      "hit": false,
      "t": 46375.00000000003,
      "d": 125,
      "v": 100
    },
    {
      "midi": 69,
      "hit": false,
      "t": 46500.00000000003,
      "d": 166.66666666666424,
      "v": 100
    },
    {
      "midi": 67,
      "hit": false,
      "t": 46666.66666666669,
      "d": 166.66666666666424,
      "v": 100
    },
    {
      "midi": 64,
      "hit": false,
      "t": 46833.33333333336,
      "d": 166.66666666666424,
      "v": 100
    },
    {
      "midi": 69,
      "hit": false,
      "t": 47000.00000000002,
      "d": 166.66666666666424,
      "v": 100
    },
    {
      "midi": 71,
      "hit": false,
      "t": 47166.666666666686,
      "d": 166.66666666666424,
      "v": 100
    },
    {
      "midi": 69,
      "hit": false,
      "t": 47333.33333333335,
      "d": 166.66666666666424,
      "v": 100
    },
    {
      "midi": 67,
      "hit": false,
      "t": 47500.000000000015,
      "d": 166.66666666666424,
      "v": 100
    },
    {
      "midi": 63,
      "hit": false,
      "t": 47666.66666666668,
      "d": 166.66666666666424,
      "v": 100
    },
    {
      "midi": 71,
      "hit": false,
      "t": 47833.33333333334,
      "d": 166.66666666666424,
      "v": 100
    },
    {
      "midi": 69,
      "hit": false,
      "t": 48000.00000000001,
      "d": 500,
      "v": 100
    },
    {
      "midi": 50,
      "hit": false,
      "t": 48500,
      "d": 500,
      "v": 100
    },
    {
      "midi": 60,
      "hit": false,
      "t": 48500.00000000001,
      "d": 500,
      "v": 100
    },
    {
      "midi": 62,
      "hit": false,
      "t": 48500.00000000001,
      "d": 500,
      "v": 100
    },
    {
      "midi": 43,
      "hit": false,
      "t": 49000,
      "d": 1000,
      "v": 100
    },
    {
      "midi": 59,
      "hit": false,
      "t": 49000.00000000001,
      "d": 1000,
      "v": 100
    },
    {
      "midi": 62,
      "hit": false,
      "t": 49000.00000000001,
      "d": 1000,
      "v": 100
    },
    {
      "midi": 67,
      "hit": false,
      "t": 49000.00000000001,
      "d": 1000,
      "v": 100
    }
  ]
}