{
  "jsonPath": "Rock/Grunge Pop/David Usher/black-black-heart-20.json",
  "path": "Rock\\Grunge Pop\\David Usher\\Black Black Heart 20.mid",
  "name": "Black Black Heart 20",
  "difficulty": "Advanced",
  "bpm": 95.00239881056997,
  "notes": [
    {
      "midi": 61,
      "hit": false,
      "t": 2526.252,
      "d": 924.9766437500002,
      "v": 63
    },
    {
      "midi": 66,
      "hit": false,
      "t": 2526.252,
      "d": 931.555425,
      "v": 67
    },
    {
      "midi": 70,
      "hit": false,
      "t": 2526.252,
      "d": 955.2390375000004,
      "v": 69
    },
    {
      "midi": 54,
      "hit": false,
      "t": 2528.8835125,
      "d": 922.3451312500001,
      "v": 65
    },
    {
      "midi": 68,
      "hit": false,
      "t": 2539.4095625,
      "d": 909.1875687500001,
      "v": 63
    },
    {
      "midi": 68,
      "hit": false,
      "t": 3473.5965,
      "d": 1543.3820812500003,
      "v": 67
    },
    {
      "midi": 71,
      "hit": false,
      "t": 3473.5965,
      "d": 1549.9608625000005,
      "v": 59
    },
    {
      "midi": 63,
      "hit": false,
      "t": 3473.5965,
      "d": 1553.9081312500007,
      "v": 70
    },
    {
      "midi": 56,
      "hit": false,
      "t": 3476.2280125,
      "d": 1497.3306125000004,
      "v": 65
    },
    {
      "midi": 66,
      "hit": false,
      "t": 5045.925218750001,
      "d": 924.9766437500002,
      "v": 73
    },
    {
      "midi": 64,
      "hit": false,
      "t": 5052.504000000001,
      "d": 928.9239125000004,
      "v": 68
    },
    {
      "midi": 52,
      "hit": false,
      "t": 5052.504000000001,
      "d": 938.1342062500007,
      "v": 65
    },
    {
      "midi": 68,
      "hit": false,
      "t": 5055.135512500001,
      "d": 928.9239125000004,
      "v": 64
    },
    {
      "midi": 59,
      "hit": false,
      "t": 5055.135512500001,
      "d": 935.5026937500006,
      "v": 71
    },
    {
      "midi": 61,
      "hit": false,
      "t": 5999.848500000002,
      "d": 1527.5930062500001,
      "v": 67
    },
    {
      "midi": 54,
      "hit": false,
      "t": 5999.848500000002,
      "d": 1534.1717875000004,
      "v": 64
    },
    {
      "midi": 66,
      "hit": false,
      "t": 5999.848500000002,
      "d": 1536.8033000000005,
      "v": 63
    },
    {
      "midi": 70,
      "hit": false,
      "t": 5999.848500000002,
      "d": 1543.3820812500007,
      "v": 71
    },
    {
      "midi": 66,
      "hit": false,
      "t": 7574.808731250003,
      "d": 922.3451312500001,
      "v": 74
    },
    {
      "midi": 70,
      "hit": false,
      "t": 7574.808731250003,
      "d": 931.5554250000005,
      "v": 70
    },
    {
      "midi": 61,
      "hit": false,
      "t": 7574.808731250003,
      "d": 938.1342062500007,
      "v": 70
    },
    {
      "midi": 68,
      "hit": false,
      "t": 7578.756000000003,
      "d": 911.8190812499997,
      "v": 64
    },
    {
      "midi": 54,
      "hit": false,
      "t": 7585.334781250003,
      "d": 924.9766437500002,
      "v": 64
    },
    {
      "midi": 56,
      "hit": false,
      "t": 8519.521718750004,
      "d": 1567.0656937500007,
      "v": 68
    },
    {
      "midi": 68,
      "hit": false,
      "t": 8522.153231250004,
      "d": 1547.32935,
      "v": 69
    },
    {
      "midi": 71,
      "hit": false,
      "t": 8522.153231250004,
      "d": 1563.1184250000006,
      "v": 68
    },
    {
      "midi": 63,
      "hit": false,
      "t": 8526.100500000004,
      "d": 1563.1184250000006,
      "v": 66
    },
    {
      "midi": 83,
      "hit": false,
      "t": 8864.249856250004,
      "d": 438.1468312500001,
      "v": 76
    },
    {
      "midi": 82,
      "hit": false,
      "t": 9193.188918750004,
      "d": 457.88317500000085,
      "v": 77
    },
    {
      "midi": 80,
      "hit": false,
      "t": 9482.655293750004,
      "d": 438.1468312500001,
      "v": 76
    },
    {
      "midi": 78,
      "hit": false,
      "t": 9822.120406250004,
      "d": 474.9880062500015,
      "v": 68
    },
    {
      "midi": 64,
      "hit": false,
      "t": 10101.060731250005,
      "d": 935.5026937500006,
      "v": 73
    },
    {
      "midi": 66,
      "hit": false,
      "t": 10105.008000000005,
      "d": 468.4092249999994,
      "v": 63
    },
    {
      "midi": 52,
      "hit": false,
      "t": 10105.008000000005,
      "d": 922.3451312500001,
      "v": 66
    },
    {
      "midi": 59,
      "hit": false,
      "t": 10105.008000000005,
      "d": 942.0814750000009,
      "v": 69
    },
    {
      "midi": 68,
      "hit": false,
      "t": 10440.525843750005,
      "d": 514.4606937499993,
      "v": 64
    },
    {
      "midi": 66,
      "hit": false,
      "t": 10745.781293750004,
      "d": 1876.2684125000014,
      "v": 66
    },
    {
      "midi": 54,
      "hit": false,
      "t": 11045.773718750006,
      "d": 1540.7505687499997,
      "v": 56
    },
    {
      "midi": 61,
      "hit": false,
      "t": 11052.352500000006,
      "d": 1536.8032999999996,
      "v": 72
    },
    {
      "midi": 58,
      "hit": false,
      "t": 11052.352500000006,
      "d": 1540.7505687499997,
      "v": 67
    },
    {
      "midi": 85,
      "hit": false,
      "t": 12539.157062500006,
      "d": 3115.710799999999,
      "v": 67
    },
    {
      "midi": 66,
      "hit": false,
      "t": 12631.260000000006,
      "d": 10.526050000000396,
      "v": 77
    },
    {
      "midi": 61,
      "hit": false,
      "t": 12631.260000000006,
      "d": 619.7211937499997,
      "v": 73
    },
    {
      "midi": 70,
      "hit": false,
      "t": 12631.260000000006,
      "d": 619.7211937499997,
      "v": 79
    },
    {
      "midi": 80,
      "hit": false,
      "t": 12631.260000000006,
      "d": 3014.3975687499988,
      "v": 60
    },
    {
      "midi": 54,
      "hit": false,
      "t": 12633.891512500006,
      "d": 615.7739249999995,
      "v": 75
    },
    {
      "midi": 68,
      "hit": false,
      "t": 12644.417562500006,
      "d": 606.5636312499992,
      "v": 73
    },
    {
      "midi": 78,
      "hit": false,
      "t": 12732.573231250006,
      "d": 2931.5049249999993,
      "v": 59
    },
    {
      "midi": 56,
      "hit": false,
      "t": 13578.604500000005,
      "d": 457.88317500000085,
      "v": 65
    },
    {
      "midi": 63,
      "hit": false,
      "t": 13578.604500000005,
      "d": 457.88317500000085,
      "v": 70
    },
    {
      "midi": 68,
      "hit": false,
      "t": 13578.604500000005,
      "d": 457.88317500000085,
      "v": 67
    },
    {
      "midi": 71,
      "hit": false,
      "t": 13578.604500000005,
      "d": 457.88317500000085,
      "v": 59
    },
    {
      "midi": 71,
      "hit": false,
      "t": 14210.167500000005,
      "d": 40.788443749999715,
      "v": 75
    },
    {
      "midi": 66,
      "hit": false,
      "t": 14210.167500000005,
      "d": 67.10356874999889,
      "v": 74
    },
    {
      "midi": 63,
      "hit": false,
      "t": 14210.167500000005,
      "d": 73.68234999999913,
      "v": 60
    },
    {
      "midi": 68,
      "hit": false,
      "t": 14210.167500000005,
      "d": 76.31386249999923,
      "v": 76
    },
    {
      "midi": 66,
      "hit": false,
      "t": 15150.933218750004,
      "d": 784.1907250000004,
      "v": 73
    },
    {
      "midi": 52,
      "hit": false,
      "t": 15157.512000000004,
      "d": 777.6119437500001,
      "v": 65
    },
    {
      "midi": 64,
      "hit": false,
      "t": 15157.512000000004,
      "d": 777.6119437500001,
      "v": 68
    },
    {
      "midi": 59,
      "hit": false,
      "t": 15160.143512500004,
      "d": 773.664675,
      "v": 71
    },
    {
      "midi": 68,
      "hit": false,
      "t": 15160.143512500004,
      "d": 773.664675,
      "v": 64
    },
    {
      "midi": 54,
      "hit": false,
      "t": 16104.856500000004,
      "d": 457.88317500000085,
      "v": 64
    },
    {
      "midi": 61,
      "hit": false,
      "t": 16104.856500000004,
      "d": 457.88317500000085,
      "v": 67
    },
    {
      "midi": 66,
      "hit": false,
      "t": 16104.856500000004,
      "d": 457.88317500000085,
      "v": 63
    },
    {
      "midi": 70,
      "hit": false,
      "t": 16104.856500000004,
      "d": 457.88317500000085,
      "v": 71
    },
    {
      "midi": 61,
      "hit": false,
      "t": 16736.419500000004,
      "d": 93.4186937500017,
      "v": 62
    },
    {
      "midi": 66,
      "hit": false,
      "t": 16736.419500000004,
      "d": 93.4186937500017,
      "v": 73
    },
    {
      "midi": 68,
      "hit": false,
      "t": 16736.419500000004,
      "d": 96.05020625000179,
      "v": 73
    },
    {
      "midi": 70,
      "hit": false,
      "t": 16736.419500000004,
      "d": 109.20776875000229,
      "v": 76
    },
    {
      "midi": 61,
      "hit": false,
      "t": 17679.816731250005,
      "d": 780.2434562499984,
      "v": 70
    },
    {
      "midi": 66,
      "hit": false,
      "t": 17679.816731250005,
      "d": 780.2434562499984,
      "v": 74
    },
    {
      "midi": 70,
      "hit": false,
      "t": 17679.816731250005,
      "d": 780.2434562499984,
      "v": 70
    },
    {
      "midi": 68,
      "hit": false,
      "t": 17683.764000000003,
      "d": 777.6119437499983,
      "v": 64
    },
    {
      "midi": 54,
      "hit": false,
      "t": 17690.34278125,
      "d": 771.0331624999999,
      "v": 64
    },
    {
      "midi": 56,
      "hit": false,
      "t": 18624.52971875,
      "d": 468.4092249999958,
      "v": 68
    },
    {
      "midi": 68,
      "hit": false,
      "t": 18627.16123125,
      "d": 464.46195624999746,
      "v": 69
    },
    {
      "midi": 71,
      "hit": false,
      "t": 18627.16123125,
      "d": 464.46195624999746,
      "v": 68
    },
    {
      "midi": 63,
      "hit": false,
      "t": 18631.1085,
      "d": 461.83044374999736,
      "v": 66
    },
    {
      "midi": 68,
      "hit": false,
      "t": 19262.671499999997,
      "d": 174.99558124999385,
      "v": 70
    },
    {
      "midi": 71,
      "hit": false,
      "t": 19271.881793749995,
      "d": 161.838018749997,
      "v": 84
    },
    {
      "midi": 63,
      "hit": false,
      "t": 19271.881793749995,
      "d": 172.36406874999375,
      "v": 62
    },
    {
      "midi": 66,
      "hit": false,
      "t": 19275.829062499994,
      "d": 165.78528749999532,
      "v": 78
    },
    {
      "midi": 66,
      "hit": false,
      "t": 19771.86916874999,
      "d": 349.9911624999986,
      "v": 88
    },
    {
      "midi": 64,
      "hit": false,
      "t": 20206.068731249987,
      "d": 935.5026937499933,
      "v": 73
    },
    {
      "midi": 66,
      "hit": false,
      "t": 20210.015999999985,
      "d": 389.4638500000001,
      "v": 63
    },
    {
      "midi": 68,
      "hit": false,
      "t": 20210.015999999985,
      "d": 471.0407374999995,
      "v": 81
    },
    {
      "midi": 52,
      "hit": false,
      "t": 20210.015999999985,
      "d": 922.3451312499965,
      "v": 66
    },
    {
      "midi": 59,
      "hit": false,
      "t": 20210.015999999985,
      "d": 942.0814749999918,
      "v": 69
    },
    {
      "midi": 66,
      "hit": false,
      "t": 20690.267031249983,
      "d": 438.1468312500001,
      "v": 81
    },
    {
      "midi": 54,
      "hit": false,
      "t": 21150.78171874998,
      "d": 589.4587999999967,
      "v": 56
    },
    {
      "midi": 58,
      "hit": false,
      "t": 21157.360499999977,
      "d": 549.9861124999989,
      "v": 67
    },
    {
      "midi": 61,
      "hit": false,
      "t": 21177.096843749976,
      "d": 503.93464374999894,
      "v": 85
    },
    {
      "midi": 66,
      "hit": false,
      "t": 21795.502281249974,
      "d": 106.57625624999855,
      "v": 70
    },
    {
      "midi": 61,
      "hit": false,
      "t": 21804.712574999972,
      "d": 109.20776874999865,
      "v": 76
    },
    {
      "midi": 58,
      "hit": false,
      "t": 21815.238624999973,
      "d": 89.47142499999973,
      "v": 73
    },
    {
      "midi": 61,
      "hit": false,
      "t": 22736.26799999997,
      "d": 619.7211937499997,
      "v": 73
    },
    {
      "midi": 66,
      "hit": false,
      "t": 22736.26799999997,
      "d": 619.7211937499997,
      "v": 77
    },
    {
      "midi": 70,
      "hit": false,
      "t": 22736.26799999997,
      "d": 619.7211937499997,
      "v": 79
    },
    {
      "midi": 54,
      "hit": false,
      "t": 22738.89951249997,
      "d": 615.7739250000013,
      "v": 75
    },
    {
      "midi": 68,
      "hit": false,
      "t": 22749.42556249997,
      "d": 606.5636312499992,
      "v": 73
    },
    {
      "midi": 56,
      "hit": false,
      "t": 23683.61249999997,
      "d": 457.883174999999,
      "v": 65
    },
    {
      "midi": 63,
      "hit": false,
      "t": 23683.61249999997,
      "d": 457.883174999999,
      "v": 70
    },
    {
      "midi": 68,
      "hit": false,
      "t": 23683.61249999997,
      "d": 457.883174999999,
      "v": 67
    },
    {
      "midi": 71,
      "hit": false,
      "t": 23683.61249999997,
      "d": 457.883174999999,
      "v": 59
    },
    {
      "midi": 71,
      "hit": false,
      "t": 24315.17549999997,
      "d": 40.788443749999715,
      "v": 75
    },
    {
      "midi": 66,
      "hit": false,
      "t": 24315.17549999997,
      "d": 67.1035687500007,
      "v": 74
    },
    {
      "midi": 63,
      "hit": false,
      "t": 24315.17549999997,
      "d": 73.68234999999913,
      "v": 60
    },
    {
      "midi": 68,
      "hit": false,
      "t": 24315.17549999997,
      "d": 76.31386249999923,
      "v": 76
    },
    {
      "midi": 66,
      "hit": false,
      "t": 25255.94121874997,
      "d": 784.1907249999967,
      "v": 73
    },
    {
      "midi": 52,
      "hit": false,
      "t": 25262.519999999968,
      "d": 777.6119437499983,
      "v": 65
    },
    {
      "midi": 64,
      "hit": false,
      "t": 25262.519999999968,
      "d": 777.6119437499983,
      "v": 68
    },
    {
      "midi": 59,
      "hit": false,
      "t": 25265.151512499968,
      "d": 773.664675,
      "v": 71
    },
    {
      "midi": 68,
      "hit": false,
      "t": 25265.151512499968,
      "d": 773.664675,
      "v": 64
    },
    {
      "midi": 54,
      "hit": false,
      "t": 26209.864499999967,
      "d": 457.883174999999,
      "v": 64
    },
    {
      "midi": 61,
      "hit": false,
      "t": 26209.864499999967,
      "d": 457.883174999999,
      "v": 67
    },
    {
      "midi": 66,
      "hit": false,
      "t": 26209.864499999967,
      "d": 457.883174999999,
      "v": 63
    },
    {
      "midi": 70,
      "hit": false,
      "t": 26209.864499999967,
      "d": 457.883174999999,
      "v": 71
    },
    {
      "midi": 61,
      "hit": false,
      "t": 26841.427499999965,
      "d": 93.4186937500017,
      "v": 62
    },
    {
      "midi": 66,
      "hit": false,
      "t": 26841.427499999965,
      "d": 93.4186937500017,
      "v": 81
    },
    {
      "midi": 68,
      "hit": false,
      "t": 26841.427499999965,
      "d": 96.05020625000179,
      "v": 73
    },
    {
      "midi": 70,
      "hit": false,
      "t": 26841.427499999965,
      "d": 109.20776875000229,
      "v": 73
    },
    {
      "midi": 61,
      "hit": false,
      "t": 27350.625168749968,
      "d": 96.05020625000179,
      "v": 78
    },
    {
      "midi": 63,
      "hit": false,
      "t": 27472.99049999997,
      "d": 280.25608125000144,
      "v": 73
    },
    {
      "midi": 61,
      "hit": false,
      "t": 27784.824731249973,
      "d": 780.2434562499984,
      "v": 70
    },
    {
      "midi": 66,
      "hit": false,
      "t": 27784.824731249973,
      "d": 780.2434562499984,
      "v": 74
    },
    {
      "midi": 70,
      "hit": false,
      "t": 27784.824731249973,
      "d": 780.2434562499984,
      "v": 70
    },
    {
      "midi": 68,
      "hit": false,
      "t": 27788.77199999997,
      "d": 777.6119437499983,
      "v": 64
    },
    {
      "midi": 54,
      "hit": false,
      "t": 27795.35078124997,
      "d": 771.0331624999999,
      "v": 64
    },
    {
      "midi": 56,
      "hit": false,
      "t": 28729.53771874997,
      "d": 468.4092249999958,
      "v": 68
    },
    {
      "midi": 68,
      "hit": false,
      "t": 28732.16923124997,
      "d": 464.46195624999746,
      "v": 69
    },
    {
      "midi": 71,
      "hit": false,
      "t": 28732.16923124997,
      "d": 464.46195624999746,
      "v": 68
    },
    {
      "midi": 63,
      "hit": false,
      "t": 28736.116499999967,
      "d": 461.83044374999736,
      "v": 66
    },
    {
      "midi": 68,
      "hit": false,
      "t": 29367.679499999966,
      "d": 174.99558124999385,
      "v": 70
    },
    {
      "midi": 71,
      "hit": false,
      "t": 29376.889793749964,
      "d": 161.838018749997,
      "v": 84
    },
    {
      "midi": 63,
      "hit": false,
      "t": 29376.889793749964,
      "d": 172.36406874999375,
      "v": 62
    },
    {
      "midi": 66,
      "hit": false,
      "t": 29380.837062499962,
      "d": 165.78528749999532,
      "v": 78
    },
    {
      "midi": 66,
      "hit": false,
      "t": 29876.877168749957,
      "d": 349.9911624999986,
      "v": 88
    },
    {
      "midi": 64,
      "hit": false,
      "t": 30311.076731249956,
      "d": 935.5026937499933,
      "v": 73
    },
    {
      "midi": 66,
      "hit": false,
      "t": 30315.023999999954,
      "d": 389.4638500000001,
      "v": 63
    },
    {
      "midi": 68,
      "hit": false,
      "t": 30315.023999999954,
      "d": 471.0407374999995,
      "v": 81
    },
    {
      "midi": 52,
      "hit": false,
      "t": 30315.023999999954,
      "d": 922.3451312499965,
      "v": 66
    },
    {
      "midi": 59,
      "hit": false,
      "t": 30315.023999999954,
      "d": 942.0814749999918,
      "v": 69
    },
    {
      "midi": 66,
      "hit": false,
      "t": 30795.275031249952,
      "d": 438.1468312500001,
      "v": 81
    },
    {
      "midi": 54,
      "hit": false,
      "t": 31255.789718749947,
      "d": 589.4587999999967,
      "v": 56
    },
    {
      "midi": 58,
      "hit": false,
      "t": 31262.368499999946,
      "d": 549.9861124999989,
      "v": 67
    },
    {
      "midi": 61,
      "hit": false,
      "t": 31282.104843749945,
      "d": 503.93464374999894,
      "v": 85
    },
    {
      "midi": 66,
      "hit": false,
      "t": 31900.510281249943,
      "d": 106.57625624999855,
      "v": 70
    },
    {
      "midi": 61,
      "hit": false,
      "t": 31909.72057499994,
      "d": 109.20776874999865,
      "v": 76
    },
    {
      "midi": 58,
      "hit": false,
      "t": 31920.24662499994,
      "d": 89.47142499999973,
      "v": 73
    },
    {
      "midi": 61,
      "hit": false,
      "t": 32841.27599999994,
      "d": 619.721193749996,
      "v": 73
    },
    {
      "midi": 66,
      "hit": false,
      "t": 32841.27599999994,
      "d": 619.721193749996,
      "v": 77
    },
    {
      "midi": 70,
      "hit": false,
      "t": 32841.27599999994,
      "d": 619.721193749996,
      "v": 79
    },
    {
      "midi": 54,
      "hit": false,
      "t": 32843.907512499936,
      "d": 615.7739250000013,
      "v": 75
    },
    {
      "midi": 68,
      "hit": false,
      "t": 32854.43356249994,
      "d": 606.5636312499992,
      "v": 73
    },
    {
      "midi": 56,
      "hit": false,
      "t": 33788.62049999994,
      "d": 457.88317500000267,
      "v": 65
    },
    {
      "midi": 63,
      "hit": false,
      "t": 33788.62049999994,
      "d": 457.88317500000267,
      "v": 70
    },
    {
      "midi": 68,
      "hit": false,
      "t": 33788.62049999994,
      "d": 457.88317500000267,
      "v": 67
    },
    {
      "midi": 71,
      "hit": false,
      "t": 33788.62049999994,
      "d": 457.88317500000267,
      "v": 59
    },
    {
      "midi": 71,
      "hit": false,
      "t": 34420.18349999994,
      "d": 40.78844375000335,
      "v": 75
    },
    {
      "midi": 66,
      "hit": false,
      "t": 34420.18349999994,
      "d": 67.10356875000434,
      "v": 74
    },
    {
      "midi": 63,
      "hit": false,
      "t": 34420.18349999994,
      "d": 73.68235000000277,
      "v": 60
    },
    {
      "midi": 68,
      "hit": false,
      "t": 34420.18349999994,
      "d": 76.31386249999923,
      "v": 76
    },
    {
      "midi": 66,
      "hit": false,
      "t": 35360.94921874994,
      "d": 784.1907249999931,
      "v": 73
    },
    {
      "midi": 52,
      "hit": false,
      "t": 35367.52799999994,
      "d": 777.6119437499947,
      "v": 65
    },
    {
      "midi": 64,
      "hit": false,
      "t": 35367.52799999994,
      "d": 777.6119437499947,
      "v": 68
    },
    {
      "midi": 59,
      "hit": false,
      "t": 35370.15951249994,
      "d": 773.664675,
      "v": 71
    },
    {
      "midi": 68,
      "hit": false,
      "t": 35370.15951249994,
      "d": 773.664675,
      "v": 64
    },
    {
      "midi": 54,
      "hit": false,
      "t": 36314.87249999993,
      "d": 457.88317500000267,
      "v": 64
    },
    {
      "midi": 61,
      "hit": false,
      "t": 36314.87249999993,
      "d": 457.88317500000267,
      "v": 67
    },
    {
      "midi": 66,
      "hit": false,
      "t": 36314.87249999993,
      "d": 457.88317500000267,
      "v": 63
    },
    {
      "midi": 70,
      "hit": false,
      "t": 36314.87249999993,
      "d": 457.88317500000267,
      "v": 71
    },
    {
      "midi": 61,
      "hit": false,
      "t": 36946.435499999934,
      "d": 93.41869374999806,
      "v": 62
    },
    {
      "midi": 66,
      "hit": false,
      "t": 36946.435499999934,
      "d": 93.41869374999806,
      "v": 81
    },
    {
      "midi": 68,
      "hit": false,
      "t": 36946.435499999934,
      "d": 96.05020624999452,
      "v": 73
    },
    {
      "midi": 70,
      "hit": false,
      "t": 36946.435499999934,
      "d": 109.20776874999137,
      "v": 73
    },
    {
      "midi": 61,
      "hit": false,
      "t": 37455.633168749926,
      "d": 96.05020625000179,
      "v": 78
    },
    {
      "midi": 63,
      "hit": false,
      "t": 37577.99849999993,
      "d": 280.25608125000144,
      "v": 73
    },
    {
      "midi": 61,
      "hit": false,
      "t": 37889.83273124993,
      "d": 780.2434562499984,
      "v": 70
    },
    {
      "midi": 66,
      "hit": false,
      "t": 37889.83273124993,
      "d": 780.2434562499984,
      "v": 74
    },
    {
      "midi": 70,
      "hit": false,
      "t": 37889.83273124993,
      "d": 780.2434562499984,
      "v": 70
    },
    {
      "midi": 68,
      "hit": false,
      "t": 37893.77999999993,
      "d": 777.6119437499947,
      "v": 64
    },
    {
      "midi": 54,
      "hit": false,
      "t": 37900.35878124993,
      "d": 771.0331624999963,
      "v": 64
    },
    {
      "midi": 56,
      "hit": false,
      "t": 38834.54571874993,
      "d": 468.4092249999958,
      "v": 68
    },
    {
      "midi": 68,
      "hit": false,
      "t": 38837.17723124992,
      "d": 464.4619562500011,
      "v": 69
    },
    {
      "midi": 71,
      "hit": false,
      "t": 38837.17723124992,
      "d": 464.4619562500011,
      "v": 68
    },
    {
      "midi": 63,
      "hit": false,
      "t": 38841.124499999925,
      "d": 461.83044374999736,
      "v": 66
    },
    {
      "midi": 68,
      "hit": false,
      "t": 39472.68749999992,
      "d": 174.99558125000476,
      "v": 70
    },
    {
      "midi": 71,
      "hit": false,
      "t": 39481.89779374992,
      "d": 161.83801875000063,
      "v": 84
    },
    {
      "midi": 63,
      "hit": false,
      "t": 39481.89779374992,
      "d": 172.36406875000102,
      "v": 62
    },
    {
      "midi": 66,
      "hit": false,
      "t": 39485.845062499924,
      "d": 165.7852875000026,
      "v": 78
    },
    {
      "midi": 66,
      "hit": false,
      "t": 39981.88516874993,
      "d": 349.99116250000225,
      "v": 88
    },
    {
      "midi": 64,
      "hit": false,
      "t": 40416.08473124993,
      "d": 935.5026937500079,
      "v": 73
    },
    {
      "midi": 66,
      "hit": false,
      "t": 40420.031999999934,
      "d": 389.4638500000001,
      "v": 63
    },
    {
      "midi": 68,
      "hit": false,
      "t": 40420.031999999934,
      "d": 471.0407374999995,
      "v": 81
    },
    {
      "midi": 52,
      "hit": false,
      "t": 40420.031999999934,
      "d": 922.3451312500038,
      "v": 66
    },
    {
      "midi": 59,
      "hit": false,
      "t": 40420.031999999934,
      "d": 942.0814750000063,
      "v": 69
    },
    {
      "midi": 66,
      "hit": false,
      "t": 40900.283031249935,
      "d": 438.1468312500001,
      "v": 81
    },
    {
      "midi": 54,
      "hit": false,
      "t": 41360.79771874994,
      "d": 589.4588000000003,
      "v": 56
    },
    {
      "midi": 58,
      "hit": false,
      "t": 41367.37649999994,
      "d": 549.9861125000025,
      "v": 67
    },
    {
      "midi": 61,
      "hit": false,
      "t": 41387.11284374994,
      "d": 503.93464374999894,
      "v": 85
    },
    {
      "midi": 66,
      "hit": false,
      "t": 42005.51828124994,
      "d": 106.57625625000219,
      "v": 70
    },
    {
      "midi": 61,
      "hit": false,
      "t": 42014.72857499994,
      "d": 109.20776874999865,
      "v": 76
    },
    {
      "midi": 58,
      "hit": false,
      "t": 42025.25462499994,
      "d": 89.47142499999609,
      "v": 73
    },
    {
      "midi": 61,
      "hit": false,
      "t": 42946.28399999994,
      "d": 619.721193749996,
      "v": 73
    },
    {
      "midi": 66,
      "hit": false,
      "t": 42946.28399999994,
      "d": 619.721193749996,
      "v": 77
    },
    {
      "midi": 70,
      "hit": false,
      "t": 42946.28399999994,
      "d": 619.721193749996,
      "v": 79
    },
    {
      "midi": 54,
      "hit": false,
      "t": 42948.91551249994,
      "d": 615.7739250000013,
      "v": 75
    },
    {
      "midi": 68,
      "hit": false,
      "t": 42959.44156249994,
      "d": 606.5636312499992,
      "v": 73
    },
    {
      "midi": 56,
      "hit": false,
      "t": 43893.62849999994,
      "d": 457.88317500000267,
      "v": 65
    },
    {
      "midi": 63,
      "hit": false,
      "t": 43893.62849999994,
      "d": 457.88317500000267,
      "v": 70
    },
    {
      "midi": 68,
      "hit": false,
      "t": 43893.62849999994,
      "d": 457.88317500000267,
      "v": 67
    },
    {
      "midi": 71,
      "hit": false,
      "t": 43893.62849999994,
      "d": 457.88317500000267,
      "v": 59
    },
    {
      "midi": 71,
      "hit": false,
      "t": 44525.19149999994,
      "d": 40.78844375000335,
      "v": 75
    },
    {
      "midi": 66,
      "hit": false,
      "t": 44525.19149999994,
      "d": 67.10356875000434,
      "v": 74
    },
    {
      "midi": 63,
      "hit": false,
      "t": 44525.19149999994,
      "d": 73.68235000000277,
      "v": 60
    },
    {
      "midi": 68,
      "hit": false,
      "t": 44525.19149999994,
      "d": 76.31386249999923,
      "v": 76
    },
    {
      "midi": 66,
      "hit": false,
      "t": 45465.95721874994,
      "d": 784.1907249999931,
      "v": 73
    },
    {
      "midi": 52,
      "hit": false,
      "t": 45472.53599999994,
      "d": 777.6119437499947,
      "v": 65
    },
    {
      "midi": 64,
      "hit": false,
      "t": 45472.53599999994,
      "d": 777.6119437499947,
      "v": 68
    },
    {
      "midi": 59,
      "hit": false,
      "t": 45475.16751249994,
      "d": 773.664675,
      "v": 71
    },
    {
      "midi": 68,
      "hit": false,
      "t": 45475.16751249994,
      "d": 773.664675,
      "v": 64
    },
    {
      "midi": 54,
      "hit": false,
      "t": 46419.880499999934,
      "d": 457.88317500000267,
      "v": 64
    },
    {
      "midi": 61,
      "hit": false,
      "t": 46419.880499999934,
      "d": 457.88317500000267,
      "v": 67
    },
    {
      "midi": 66,
      "hit": false,
      "t": 46419.880499999934,
      "d": 457.88317500000267,
      "v": 63
    },
    {
      "midi": 70,
      "hit": false,
      "t": 46419.880499999934,
      "d": 457.88317500000267,
      "v": 71
    },
    {
      "midi": 61,
      "hit": false,
      "t": 47051.443499999936,
      "d": 93.41869374999806,
      "v": 62
    },
    {
      "midi": 66,
      "hit": false,
      "t": 47051.443499999936,
      "d": 93.41869374999806,
      "v": 81
    },
    {
      "midi": 68,
      "hit": false,
      "t": 47051.443499999936,
      "d": 96.05020624999452,
      "v": 73
    },
    {
      "midi": 70,
      "hit": false,
      "t": 47051.443499999936,
      "d": 109.20776874999137,
      "v": 73
    },
    {
      "midi": 61,
      "hit": false,
      "t": 47560.64116874993,
      "d": 96.05020625000179,
      "v": 78
    },
    {
      "midi": 63,
      "hit": false,
      "t": 47683.00649999993,
      "d": 280.25608125000144,
      "v": 73
    },
    {
      "midi": 61,
      "hit": false,
      "t": 47994.84073124993,
      "d": 780.2434562499984,
      "v": 70
    },
    {
      "midi": 66,
      "hit": false,
      "t": 47994.84073124993,
      "d": 780.2434562499984,
      "v": 74
    },
    {
      "midi": 70,
      "hit": false,
      "t": 47994.84073124993,
      "d": 780.2434562499984,
      "v": 70
    },
    {
      "midi": 68,
      "hit": false,
      "t": 47998.787999999935,
      "d": 777.6119437499947,
      "v": 64
    },
    {
      "midi": 54,
      "hit": false,
      "t": 48005.36678124993,
      "d": 771.0331624999963,
      "v": 64
    },
    {
      "midi": 97,
      "hit": false,
      "t": 48321.148281249996,
      "d": 89.47142500000336,
      "v": 90
    },
    {
      "midi": 56,
      "hit": false,
      "t": 48939.55371874993,
      "d": 468.4092249999958,
      "v": 68
    },
    {
      "midi": 68,
      "hit": false,
      "t": 48942.185231249925,
      "d": 464.4619562500011,
      "v": 69
    },
    {
      "midi": 71,
      "hit": false,
      "t": 48942.185231249925,
      "d": 464.4619562500011,
      "v": 68
    },
    {
      "midi": 63,
      "hit": false,
      "t": 48946.13249999993,
      "d": 461.83044374999736,
      "v": 66
    },
    {
      "midi": 95,
      "hit": false,
      "t": 48952.71128125,
      "d": 106.57625625000219,
      "v": 89
    },
    {
      "midi": 68,
      "hit": false,
      "t": 49577.69549999992,
      "d": 174.99558125000476,
      "v": 70
    },
    {
      "midi": 94,
      "hit": false,
      "t": 49584.27428125,
      "d": 89.47142500000336,
      "v": 89
    },
    {
      "midi": 71,
      "hit": false,
      "t": 49586.905793749924,
      "d": 161.83801875000063,
      "v": 84
    },
    {
      "midi": 63,
      "hit": false,
      "t": 49586.905793749924,
      "d": 172.36406875000102,
      "v": 62
    },
    {
      "midi": 66,
      "hit": false,
      "t": 49590.853062499926,
      "d": 165.7852875000026,
      "v": 78
    },
    {
      "midi": 64,
      "hit": false,
      "t": 50192.153668749925,
      "d": 2803.876568749998,
      "v": 79
    },
    {
      "midi": 68,
      "hit": false,
      "t": 50196.10093749993,
      "d": 2806.5080812499946,
      "v": 84
    },
    {
      "midi": 59,
      "hit": false,
      "t": 50198.73244999992,
      "d": 2799.929299999996,
      "v": 80
    },
    {
      "midi": 92,
      "hit": false,
      "t": 50211.8900125,
      "d": 69.7350812500008,
      "v": 89
    },
    {
      "midi": 47,
      "hit": false,
      "t": 53051.29199999992,
      "d": 435.51531874999637,
      "v": 77
    },
    {
      "midi": 54,
      "hit": false,
      "t": 53051.29199999992,
      "d": 497.35586249999324,
      "v": 77
    },
    {
      "midi": 59,
      "hit": false,
      "t": 53051.29199999992,
      "d": 497.35586249999324,
      "v": 77
    },
    {
      "midi": 63,
      "hit": false,
      "t": 53051.29199999992,
      "d": 497.35586249999324,
      "v": 77
    },
    {
      "midi": 47,
      "hit": false,
      "t": 53524.96424999992,
      "d": 461.83044374999736,
      "v": 77
    },
    {
      "midi": 54,
      "hit": false,
      "t": 53560.48966874991,
      "d": 424.98926875000325,
      "v": 77
    },
    {
      "midi": 59,
      "hit": false,
      "t": 53560.48966874991,
      "d": 424.98926875000325,
      "v": 77
    },
    {
      "midi": 63,
      "hit": false,
      "t": 53560.48966874991,
      "d": 424.98926875000325,
      "v": 77
    },
    {
      "midi": 69,
      "hit": false,
      "t": 53988.11044999991,
      "d": 89.47142500000336,
      "v": 67
    },
    {
      "midi": 66,
      "hit": false,
      "t": 53998.63649999991,
      "d": 1113.1297875000018,
      "v": 77
    },
    {
      "midi": 42,
      "hit": false,
      "t": 53998.63649999991,
      "d": 1128.9188625000024,
      "v": 77
    },
    {
      "midi": 61,
      "hit": false,
      "t": 53998.63649999991,
      "d": 1128.9188625000024,
      "v": 77
    },
    {
      "midi": 63,
      "hit": false,
      "t": 53998.6365,
      "d": 626.2999750000017,
      "v": 1
    },
    {
      "midi": 54,
      "hit": false,
      "t": 53998.6365,
      "d": 646.0363187500043,
      "v": 1
    },
    {
      "midi": 59,
      "hit": false,
      "t": 53998.6365,
      "d": 646.0363187500043,
      "v": 1
    },
    {
      "midi": 70,
      "hit": false,
      "t": 54044.68796874992,
      "d": 974.9753812499985,
      "v": 81
    },
    {
      "midi": 58,
      "hit": false,
      "t": 54630.1995,
      "d": 1889.4259750000056,
      "v": 1
    },
    {
      "midi": 66,
      "hit": false,
      "t": 54630.1995,
      "d": 1889.4259750000056,
      "v": 1
    },
    {
      "midi": 61,
      "hit": false,
      "t": 54630.1995,
      "d": 2520.9889750000075,
      "v": 1
    },
    {
      "midi": 70,
      "hit": false,
      "t": 55126.23960624992,
      "d": 96.05020625000179,
      "v": 81
    },
    {
      "midi": 66,
      "hit": false,
      "t": 55136.76565624992,
      "d": 109.20776874999865,
      "v": 81
    },
    {
      "midi": 61,
      "hit": false,
      "t": 55261.76249999992,
      "d": 122.3653312499955,
      "v": 90
    },
    {
      "midi": 66,
      "hit": false,
      "t": 55264.39401249991,
      "d": 119.73381874999905,
      "v": 81
    },
    {
      "midi": 61,
      "hit": false,
      "t": 55577.543999999914,
      "d": 461.83044374999736,
      "v": 87
    },
    {
      "midi": 64,
      "hit": false,
      "t": 55577.543999999914,
      "d": 497.3558625000005,
      "v": 77
    },
    {
      "midi": 69,
      "hit": false,
      "t": 55577.543999999914,
      "d": 497.3558625000005,
      "v": 77
    },
    {
      "midi": 64,
      "hit": false,
      "t": 56086.74166874991,
      "d": 396.0426312499985,
      "v": 77
    },
    {
      "midi": 61,
      "hit": false,
      "t": 56086.74166874991,
      "d": 424.989268749996,
      "v": 89
    },
    {
      "midi": 69,
      "hit": false,
      "t": 56086.74166874991,
      "d": 424.989268749996,
      "v": 77
    },
    {
      "midi": 66,
      "hit": false,
      "t": 56524.888499999906,
      "d": 76.31386249999923,
      "v": 76
    },
    {
      "midi": 59,
      "hit": false,
      "t": 56524.888499999906,
      "d": 586.8272874999966,
      "v": 77
    },
    {
      "midi": 64,
      "hit": false,
      "t": 56524.888499999906,
      "d": 586.8272874999966,
      "v": 77
    },
    {
      "midi": 52,
      "hit": false,
      "t": 56524.888499999906,
      "d": 1501.2778812499892,
      "v": 88
    },
    {
      "midi": 56,
      "hit": false,
      "t": 56524.88850000001,
      "d": 626.2999750000017,
      "v": 1
    },
    {
      "midi": 68,
      "hit": false,
      "t": 56577.51874999991,
      "d": 567.090943749994,
      "v": 88
    },
    {
      "midi": 64,
      "hit": false,
      "t": 57152.5042312499,
      "d": 161.83801875000063,
      "v": 86
    },
    {
      "midi": 59,
      "hit": false,
      "t": 57156.4514999999,
      "d": 211.83675624999887,
      "v": 93
    },
    {
      "midi": 59,
      "hit": false,
      "t": 57156.45150000001,
      "d": 310.5184749999971,
      "v": 1
    },
    {
      "midi": 66,
      "hit": false,
      "t": 57156.45150000001,
      "d": 310.5184749999971,
      "v": 1
    },
    {
      "midi": 68,
      "hit": false,
      "t": 57172.2405749999,
      "d": 178.94284999999945,
      "v": 92
    },
    {
      "midi": 61,
      "hit": false,
      "t": 57472.23300000001,
      "d": 310.5184749999971,
      "v": 1
    },
    {
      "midi": 64,
      "hit": false,
      "t": 57472.23300000001,
      "d": 310.5184749999971,
      "v": 1
    },
    {
      "midi": 68,
      "hit": false,
      "t": 57472.23300000001,
      "d": 310.5184749999971,
      "v": 1
    },
    {
      "midi": 68,
      "hit": false,
      "t": 57494.6008562499,
      "d": 148.6804562499965,
      "v": 88
    },
    {
      "midi": 64,
      "hit": false,
      "t": 57498.5481249999,
      "d": 152.6277249999912,
      "v": 93
    },
    {
      "midi": 59,
      "hit": false,
      "t": 57505.1269062499,
      "d": 135.52289374999964,
      "v": 102
    },
    {
      "midi": 61,
      "hit": false,
      "t": 57665.64916874989,
      "d": 132.89138125000318,
      "v": 76
    },
    {
      "midi": 66,
      "hit": false,
      "t": 57695.911562499896,
      "d": 93.41869374999806,
      "v": 76
    },
    {
      "midi": 64,
      "hit": false,
      "t": 57788.014499999896,
      "d": 178.94284999999945,
      "v": 80
    },
    {
      "midi": 59,
      "hit": false,
      "t": 57788.014500000005,
      "d": 1889.4259749999983,
      "v": 1
    },
    {
      "midi": 63,
      "hit": false,
      "t": 57788.014500000005,
      "d": 1889.4259749999983,
      "v": 1
    },
    {
      "midi": 66,
      "hit": false,
      "t": 57788.014500000005,
      "d": 4099.896474999994,
      "v": 1
    },
    {
      "midi": 59,
      "hit": false,
      "t": 57803.803574999896,
      "d": 221.04705000000104,
      "v": 99
    },
    {
      "midi": 68,
      "hit": false,
      "t": 57816.96113749989,
      "d": 240.7833937500036,
      "v": 68
    },
    {
      "midi": 47,
      "hit": false,
      "t": 58103.7959999999,
      "d": 435.51531874999637,
      "v": 77
    },
    {
      "midi": 54,
      "hit": false,
      "t": 58103.7959999999,
      "d": 497.35586249999324,
      "v": 77
    },
    {
      "midi": 59,
      "hit": false,
      "t": 58103.7959999999,
      "d": 497.35586249999324,
      "v": 77
    },
    {
      "midi": 63,
      "hit": false,
      "t": 58103.7959999999,
      "d": 497.35586249999324,
      "v": 77
    },
    {
      "midi": 47,
      "hit": false,
      "t": 58577.468249999896,
      "d": 461.83044374999736,
      "v": 77
    },
    {
      "midi": 54,
      "hit": false,
      "t": 58612.99366874989,
      "d": 424.98926875000325,
      "v": 77
    },
    {
      "midi": 59,
      "hit": false,
      "t": 58612.99366874989,
      "d": 424.98926875000325,
      "v": 77
    },
    {
      "midi": 63,
      "hit": false,
      "t": 58612.99366874989,
      "d": 424.98926875000325,
      "v": 77
    },
    {
      "midi": 69,
      "hit": false,
      "t": 59040.61444999989,
      "d": 89.47142500000336,
      "v": 67
    },
    {
      "midi": 42,
      "hit": false,
      "t": 59051.14049999989,
      "d": 935.5026937500006,
      "v": 77
    },
    {
      "midi": 66,
      "hit": false,
      "t": 59051.14049999989,
      "d": 935.5026937500006,
      "v": 77
    },
    {
      "midi": 61,
      "hit": false,
      "t": 59051.14049999989,
      "d": 1251.284193749998,
      "v": 77
    },
    {
      "midi": 70,
      "hit": false,
      "t": 59097.191968749896,
      "d": 889.4512249999971,
      "v": 81
    },
    {
      "midi": 58,
      "hit": false,
      "t": 59682.7035,
      "d": 1257.8629749999964,
      "v": 1
    },
    {
      "midi": 61,
      "hit": false,
      "t": 59682.7035,
      "d": 1257.8629749999964,
      "v": 1
    },
    {
      "midi": 68,
      "hit": false,
      "t": 59998.48499999989,
      "d": 198.679193750002,
      "v": 78
    },
    {
      "midi": 70,
      "hit": false,
      "t": 60159.007262499894,
      "d": 247.36217500000203,
      "v": 78
    },
    {
      "midi": 66,
      "hit": false,
      "t": 60316.89801249989,
      "d": 194.73192500000005,
      "v": 78
    },
    {
      "midi": 61,
      "hit": false,
      "t": 60472.157249999895,
      "d": 619.721193749996,
      "v": 82
    },
    {
      "midi": 62,
      "hit": false,
      "t": 60630.04799999989,
      "d": 497.3558625000005,
      "v": 77
    },
    {
      "midi": 66,
      "hit": false,
      "t": 60630.04799999989,
      "d": 497.3558625000005,
      "v": 77
    },
    {
      "midi": 69,
      "hit": false,
      "t": 60630.04799999989,
      "d": 497.3558625000005,
      "v": 77
    },
    {
      "midi": 50,
      "hit": false,
      "t": 60636.62678124989,
      "d": 448.6728812500005,
      "v": 86
    },
    {
      "midi": 62,
      "hit": false,
      "t": 60945.8295,
      "d": 626.2999750000017,
      "v": 1
    },
    {
      "midi": 69,
      "hit": false,
      "t": 60945.8295,
      "d": 626.2999750000017,
      "v": 1
    },
    {
      "midi": 61,
      "hit": false,
      "t": 61139.24566874989,
      "d": 267.0985187499973,
      "v": 77
    },
    {
      "midi": 62,
      "hit": false,
      "t": 61139.24566874989,
      "d": 267.0985187499973,
      "v": 77
    },
    {
      "midi": 66,
      "hit": false,
      "t": 61139.24566874989,
      "d": 267.0985187499973,
      "v": 77
    },
    {
      "midi": 69,
      "hit": false,
      "t": 61139.24566874989,
      "d": 267.0985187499973,
      "v": 77
    },
    {
      "midi": 50,
      "hit": false,
      "t": 61162.92928124989,
      "d": 398.67414375000226,
      "v": 86
    },
    {
      "midi": 68,
      "hit": false,
      "t": 61577.39249999989,
      "d": 892.0827375000008,
      "v": 77
    },
    {
      "midi": 66,
      "hit": false,
      "t": 61577.39249999989,
      "d": 935.5026937500006,
      "v": 77
    },
    {
      "midi": 64,
      "hit": false,
      "t": 61577.39249999989,
      "d": 1093.3934437499993,
      "v": 77
    },
    {
      "midi": 49,
      "hit": false,
      "t": 61577.39249999989,
      "d": 1303.9144437499926,
      "v": 76
    },
    {
      "midi": 59,
      "hit": false,
      "t": 61577.39249999989,
      "d": 1567.065693749988,
      "v": 77
    },
    {
      "midi": 61,
      "hit": false,
      "t": 61577.39249999989,
      "d": 1567.065693749988,
      "v": 77
    },
    {
      "midi": 59,
      "hit": false,
      "t": 61577.3925,
      "d": 310.5184749999971,
      "v": 1
    },
    {
      "midi": 63,
      "hit": false,
      "t": 61577.3925,
      "d": 310.5184749999971,
      "v": 1
    },
    {
      "midi": 61,
      "hit": false,
      "t": 61893.174,
      "d": 271.0457874999993,
      "v": 1
    },
    {
      "midi": 64,
      "hit": false,
      "t": 61893.174,
      "d": 310.5184749999971,
      "v": 1
    },
    {
      "midi": 68,
      "hit": false,
      "t": 61893.174,
      "d": 313.1499874999936,
      "v": 1
    },
    {
      "midi": 59,
      "hit": false,
      "t": 62208.95549999999,
      "d": 188.15314375000162,
      "v": 1
    },
    {
      "midi": 66,
      "hit": false,
      "t": 62208.95549999999,
      "d": 297.36091250000027,
      "v": 1
    },
    {
      "midi": 63,
      "hit": false,
      "t": 62208.95549999999,
      "d": 317.09725624999555,
      "v": 1
    },
    {
      "midi": 68,
      "hit": false,
      "t": 62524.73699999989,
      "d": 159.2065062499969,
      "v": 81
    },
    {
      "midi": 61,
      "hit": false,
      "t": 62524.73699999999,
      "d": 310.5184749999971,
      "v": 1
    },
    {
      "midi": 64,
      "hit": false,
      "t": 62524.73699999999,
      "d": 310.5184749999971,
      "v": 1
    },
    {
      "midi": 59,
      "hit": false,
      "t": 62524.73699999999,
      "d": 2205.2074749999956,
      "v": 1
    },
    {
      "midi": 66,
      "hit": false,
      "t": 62691.838043749885,
      "d": 102.62898750000022,
      "v": 73
    },
    {
      "midi": 64,
      "hit": false,
      "t": 62823.41366874988,
      "d": 168.41679999999906,
      "v": 84
    },
    {
      "midi": 54,
      "hit": false,
      "t": 62840.518499999984,
      "d": 1889.4259749999983,
      "v": 1
    },
    {
      "midi": 63,
      "hit": false,
      "t": 62840.518499999984,
      "d": 1889.4259749999983,
      "v": 1
    },
    {
      "midi": 47,
      "hit": false,
      "t": 63156.29999999988,
      "d": 435.51531874999637,
      "v": 77
    },
    {
      "midi": 54,
      "hit": false,
      "t": 63156.29999999988,
      "d": 497.35586249999324,
      "v": 77
    },
    {
      "midi": 59,
      "hit": false,
      "t": 63156.29999999988,
      "d": 497.35586249999324,
      "v": 77
    },
    {
      "midi": 63,
      "hit": false,
      "t": 63156.29999999988,
      "d": 497.35586249999324,
      "v": 77
    },
    {
      "midi": 47,
      "hit": false,
      "t": 63629.972249999875,
      "d": 461.83044374999736,
      "v": 77
    },
    {
      "midi": 54,
      "hit": false,
      "t": 63665.49766874987,
      "d": 424.98926875000325,
      "v": 77
    },
    {
      "midi": 59,
      "hit": false,
      "t": 63665.49766874987,
      "d": 424.98926875000325,
      "v": 77
    },
    {
      "midi": 63,
      "hit": false,
      "t": 63665.49766874987,
      "d": 424.98926875000325,
      "v": 77
    },
    {
      "midi": 69,
      "hit": false,
      "t": 64093.11844999987,
      "d": 89.47142500000336,
      "v": 67
    },
    {
      "midi": 66,
      "hit": false,
      "t": 64103.64449999987,
      "d": 1113.1297875000018,
      "v": 77
    },
    {
      "midi": 42,
      "hit": false,
      "t": 64103.64449999987,
      "d": 1128.9188625000024,
      "v": 77
    },
    {
      "midi": 61,
      "hit": false,
      "t": 64103.64449999987,
      "d": 1128.9188625000024,
      "v": 77
    },
    {
      "midi": 70,
      "hit": false,
      "t": 64149.695968749875,
      "d": 974.9753812499985,
      "v": 81
    },
    {
      "midi": 58,
      "hit": false,
      "t": 64735.20749999998,
      "d": 1257.8629750000036,
      "v": 1
    },
    {
      "midi": 66,
      "hit": false,
      "t": 64735.20749999998,
      "d": 1257.8629750000036,
      "v": 1
    },
    {
      "midi": 61,
      "hit": false,
      "t": 64735.20749999998,
      "d": 2520.9889750000075,
      "v": 1
    },
    {
      "midi": 70,
      "hit": false,
      "t": 65231.247606249875,
      "d": 96.05020625000179,
      "v": 81
    },
    {
      "midi": 66,
      "hit": false,
      "t": 65241.773656249876,
      "d": 109.20776874999865,
      "v": 81
    },
    {
      "midi": 61,
      "hit": false,
      "t": 65366.770499999875,
      "d": 122.3653312499955,
      "v": 90
    },
    {
      "midi": 66,
      "hit": false,
      "t": 65369.40201249987,
      "d": 119.73381874999905,
      "v": 81
    },
    {
      "midi": 61,
      "hit": false,
      "t": 65682.55199999987,
      "d": 461.83044375000463,
      "v": 87
    },
    {
      "midi": 64,
      "hit": false,
      "t": 65682.55199999987,
      "d": 497.3558625000005,
      "v": 77
    },
    {
      "midi": 69,
      "hit": false,
      "t": 65682.55199999987,
      "d": 497.3558625000005,
      "v": 77
    },
    {
      "midi": 64,
      "hit": false,
      "t": 66191.74966874986,
      "d": 396.0426312500058,
      "v": 77
    },
    {
      "midi": 61,
      "hit": false,
      "t": 66191.74966874986,
      "d": 424.9892687500105,
      "v": 89
    },
    {
      "midi": 69,
      "hit": false,
      "t": 66191.74966874986,
      "d": 424.9892687500105,
      "v": 77
    },
    {
      "midi": 66,
      "hit": false,
      "t": 66629.89649999987,
      "d": 76.31386249999923,
      "v": 76
    },
    {
      "midi": 59,
      "hit": false,
      "t": 66629.89649999987,
      "d": 586.8272874999966,
      "v": 77
    },
    {
      "midi": 64,
      "hit": false,
      "t": 66629.89649999987,
      "d": 586.8272874999966,
      "v": 77
    },
    {
      "midi": 52,
      "hit": false,
      "t": 66629.89649999987,
      "d": 1501.2778812499892,
      "v": 88
    },
    {
      "midi": 56,
      "hit": false,
      "t": 66629.89649999999,
      "d": 626.2999750000017,
      "v": 1
    },
    {
      "midi": 68,
      "hit": false,
      "t": 66682.52674999987,
      "d": 567.090943749994,
      "v": 88
    },
    {
      "midi": 64,
      "hit": false,
      "t": 67257.51223124987,
      "d": 161.83801874998608,
      "v": 86
    },
    {
      "midi": 59,
      "hit": false,
      "t": 67261.45949999987,
      "d": 211.8367562499916,
      "v": 93
    },
    {
      "midi": 59,
      "hit": false,
      "t": 67261.45949999998,
      "d": 310.5184750000044,
      "v": 1
    },
    {
      "midi": 66,
      "hit": false,
      "t": 67261.45949999998,
      "d": 310.5184750000044,
      "v": 1
    },
    {
      "midi": 68,
      "hit": false,
      "t": 67277.24857499986,
      "d": 178.94284999999218,
      "v": 92
    },
    {
      "midi": 61,
      "hit": false,
      "t": 67577.24099999998,
      "d": 310.5184750000044,
      "v": 1
    },
    {
      "midi": 64,
      "hit": false,
      "t": 67577.24099999998,
      "d": 310.5184750000044,
      "v": 1
    },
    {
      "midi": 68,
      "hit": false,
      "t": 67577.24099999998,
      "d": 310.5184750000044,
      "v": 1
    },
    {
      "midi": 68,
      "hit": false,
      "t": 67599.60885624986,
      "d": 148.68045625000377,
      "v": 88
    },
    {
      "midi": 64,
      "hit": false,
      "t": 67603.55612499986,
      "d": 152.62772500001302,
      "v": 93
    },
    {
      "midi": 59,
      "hit": false,
      "t": 67610.13490624986,
      "d": 135.52289375000692,
      "v": 102
    },
    {
      "midi": 61,
      "hit": false,
      "t": 67770.65716874987,
      "d": 132.89138125001045,
      "v": 76
    },
    {
      "midi": 66,
      "hit": false,
      "t": 67800.91956249987,
      "d": 93.41869375000533,
      "v": 76
    },
    {
      "midi": 64,
      "hit": false,
      "t": 67893.02249999988,
      "d": 178.94284999999218,
      "v": 80
    },
    {
      "midi": 59,
      "hit": false,
      "t": 67893.02249999998,
      "d": 1257.8629749999964,
      "v": 1
    },
    {
      "midi": 63,
      "hit": false,
      "t": 67893.02249999998,
      "d": 1257.8629749999964,
      "v": 1
    },
    {
      "midi": 66,
      "hit": false,
      "t": 67893.02249999998,
      "d": 3784.114974999975,
      "v": 1
    },
    {
      "midi": 59,
      "hit": false,
      "t": 67908.81157499987,
      "d": 221.04704999999376,
      "v": 99
    },
    {
      "midi": 68,
      "hit": false,
      "t": 67921.96913749987,
      "d": 240.78339374999632,
      "v": 68
    },
    {
      "midi": 47,
      "hit": false,
      "t": 68208.80399999986,
      "d": 435.51531874999637,
      "v": 77
    },
    {
      "midi": 54,
      "hit": false,
      "t": 68208.80399999986,
      "d": 497.3558625000005,
      "v": 77
    },
    {
      "midi": 59,
      "hit": false,
      "t": 68208.80399999986,
      "d": 497.3558625000005,
      "v": 77
    },
    {
      "midi": 63,
      "hit": false,
      "t": 68208.80399999986,
      "d": 497.3558625000005,
      "v": 77
    },
    {
      "midi": 47,
      "hit": false,
      "t": 68682.47624999986,
      "d": 461.8304437499901,
      "v": 77
    },
    {
      "midi": 54,
      "hit": false,
      "t": 68718.00166874986,
      "d": 424.989268749996,
      "v": 77
    },
    {
      "midi": 59,
      "hit": false,
      "t": 68718.00166874986,
      "d": 424.989268749996,
      "v": 77
    },
    {
      "midi": 63,
      "hit": false,
      "t": 68718.00166874986,
      "d": 424.989268749996,
      "v": 77
    },
    {
      "midi": 69,
      "hit": false,
      "t": 69145.62244999985,
      "d": 89.47142499999609,
      "v": 67
    },
    {
      "midi": 42,
      "hit": false,
      "t": 69156.14849999985,
      "d": 935.5026937499933,
      "v": 77
    },
    {
      "midi": 66,
      "hit": false,
      "t": 69156.14849999985,
      "d": 935.5026937499933,
      "v": 77
    },
    {
      "midi": 61,
      "hit": false,
      "t": 69156.14849999985,
      "d": 1251.2841937500052,
      "v": 77
    },
    {
      "midi": 70,
      "hit": false,
      "t": 69156.14849999997,
      "d": 626.2999750000017,
      "v": 1
    },
    {
      "midi": 61,
      "hit": false,
      "t": 69156.14849999997,
      "d": 1889.425974999991,
      "v": 1
    },
    {
      "midi": 70,
      "hit": false,
      "t": 69202.19996874985,
      "d": 889.4512249999971,
      "v": 81
    },
    {
      "midi": 58,
      "hit": false,
      "t": 69787.71149999996,
      "d": 1257.8629749999964,
      "v": 1
    },
    {
      "midi": 68,
      "hit": false,
      "t": 70103.49299999984,
      "d": 198.6791937500093,
      "v": 78
    },
    {
      "midi": 70,
      "hit": false,
      "t": 70264.01526249984,
      "d": 247.36217500000203,
      "v": 78
    },
    {
      "midi": 66,
      "hit": false,
      "t": 70421.90601249985,
      "d": 194.73192500000005,
      "v": 78
    },
    {
      "midi": 61,
      "hit": false,
      "t": 70577.16524999985,
      "d": 619.7211937500106,
      "v": 82
    },
    {
      "midi": 62,
      "hit": false,
      "t": 70735.05599999985,
      "d": 497.3558625000005,
      "v": 77
    },
    {
      "midi": 66,
      "hit": false,
      "t": 70735.05599999985,
      "d": 497.3558625000005,
      "v": 77
    },
    {
      "midi": 69,
      "hit": false,
      "t": 70735.05599999985,
      "d": 497.3558625000005,
      "v": 77
    },
    {
      "midi": 50,
      "hit": false,
      "t": 70741.63478124986,
      "d": 448.6728812499932,
      "v": 86
    },
    {
      "midi": 62,
      "hit": false,
      "t": 71050.83749999995,
      "d": 626.2999750000017,
      "v": 1
    },
    {
      "midi": 69,
      "hit": false,
      "t": 71050.83749999995,
      "d": 626.2999750000017,
      "v": 1
    },
    {
      "midi": 61,
      "hit": false,
      "t": 71244.25366874985,
      "d": 267.09851874999003,
      "v": 77
    },
    {
      "midi": 62,
      "hit": false,
      "t": 71244.25366874985,
      "d": 267.09851874999003,
      "v": 77
    },
    {
      "midi": 66,
      "hit": false,
      "t": 71244.25366874985,
      "d": 267.09851874999003,
      "v": 77
    },
    {
      "midi": 69,
      "hit": false,
      "t": 71244.25366874985,
      "d": 267.09851874999003,
      "v": 77
    },
    {
      "midi": 50,
      "hit": false,
      "t": 71267.93728124985,
      "d": 398.6741437499877,
      "v": 86
    },
    {
      "midi": 68,
      "hit": false,
      "t": 71682.40049999983,
      "d": 892.0827374999935,
      "v": 77
    },
    {
      "midi": 66,
      "hit": false,
      "t": 71682.40049999983,
      "d": 935.5026937499933,
      "v": 77
    },
    {
      "midi": 64,
      "hit": false,
      "t": 71682.40049999983,
      "d": 1093.3934437499847,
      "v": 77
    },
    {
      "midi": 49,
      "hit": false,
      "t": 71682.40049999983,
      "d": 1303.914443749978,
      "v": 76
    },
    {
      "midi": 59,
      "hit": false,
      "t": 71682.40049999983,
      "d": 1567.0656937499734,
      "v": 77
    },
    {
      "midi": 61,
      "hit": false,
      "t": 71682.40049999983,
      "d": 1567.0656937499734,
      "v": 77
    },
    {
      "midi": 59,
      "hit": false,
      "t": 71682.40049999995,
      "d": 310.5184750000044,
      "v": 1
    },
    {
      "midi": 63,
      "hit": false,
      "t": 71682.40049999995,
      "d": 310.5184750000044,
      "v": 1
    },
    {
      "midi": 64,
      "hit": false,
      "t": 71998.18199999994,
      "d": 626.2999750000017,
      "v": 1
    },
    {
      "midi": 68,
      "hit": false,
      "t": 71998.18199999994,
      "d": 626.2999750000017,
      "v": 1
    },
    {
      "midi": 61,
      "hit": false,
      "t": 71998.18199999994,
      "d": 1257.8629749999818,
      "v": 1
    },
    {
      "midi": 68,
      "hit": false,
      "t": 72629.74499999982,
      "d": 159.20650624998962,
      "v": 81
    },
    {
      "midi": 66,
      "hit": false,
      "t": 72629.74499999994,
      "d": 299.992425000004,
      "v": 1
    },
    {
      "midi": 59,
      "hit": false,
      "t": 72629.74499999994,
      "d": 330.2548187499924,
      "v": 1
    },
    {
      "midi": 66,
      "hit": false,
      "t": 72796.84604374981,
      "d": 102.62898749999295,
      "v": 73
    },
    {
      "midi": 64,
      "hit": false,
      "t": 72928.42166874981,
      "d": 168.41679999999178,
      "v": 84
    },
    {
      "midi": 56,
      "hit": false,
      "t": 72945.52649999993,
      "d": 310.51847499998985,
      "v": 1
    },
    {
      "midi": 64,
      "hit": false,
      "t": 72945.52649999993,
      "d": 310.51847499998985,
      "v": 1
    },
    {
      "midi": 61,
      "hit": false,
      "t": 73261.3079999998,
      "d": 924.976643749993,
      "v": 63
    },
    {
      "midi": 66,
      "hit": false,
      "t": 73261.3079999998,
      "d": 931.5554249999986,
      "v": 67
    },
    {
      "midi": 70,
      "hit": false,
      "t": 73261.3079999998,
      "d": 955.2390374999814,
      "v": 69
    },
    {
      "midi": 54,
      "hit": false,
      "t": 73261.30799999992,
      "d": 297.360912499993,
      "v": 1
    },
    {
      "midi": 63,
      "hit": false,
      "t": 73261.30799999992,
      "d": 332.8863312500034,
      "v": 1
    },
    {
      "midi": 54,
      "hit": false,
      "t": 73263.9395124998,
      "d": 922.3451312499965,
      "v": 65
    },
    {
      "midi": 68,
      "hit": false,
      "t": 73274.4655624998,
      "d": 909.1875687499996,
      "v": 63
    },
    {
      "midi": 58,
      "hit": false,
      "t": 73577.08949999991,
      "d": 626.2999750000017,
      "v": 1
    },
    {
      "midi": 70,
      "hit": false,
      "t": 73577.08949999991,
      "d": 626.2999750000017,
      "v": 1
    },
    {
      "midi": 66,
      "hit": false,
      "t": 73577.08949999991,
      "d": 4731.459474999996,
      "v": 1
    },
    {
      "midi": 68,
      "hit": false,
      "t": 74208.6524999998,
      "d": 1543.3820812499907,
      "v": 67
    },
    {
      "midi": 71,
      "hit": false,
      "t": 74208.6524999998,
      "d": 1549.9608624999964,
      "v": 59
    },
    {
      "midi": 63,
      "hit": false,
      "t": 74208.6524999998,
      "d": 1553.9081312499911,
      "v": 70
    },
    {
      "midi": 59,
      "hit": false,
      "t": 74208.65249999991,
      "d": 4099.896475000001,
      "v": 1
    },
    {
      "midi": 71,
      "hit": false,
      "t": 74208.65249999991,
      "d": 4099.896475000001,
      "v": 1
    },
    {
      "midi": 56,
      "hit": false,
      "t": 74211.28401249979,
      "d": 1497.3306124999945,
      "v": 65
    },
    {
      "midi": 66,
      "hit": false,
      "t": 75780.98121874979,
      "d": 924.9766437500075,
      "v": 73
    },
    {
      "midi": 64,
      "hit": false,
      "t": 75787.5599999998,
      "d": 928.9239125000022,
      "v": 68
    },
    {
      "midi": 52,
      "hit": false,
      "t": 75787.5599999998,
      "d": 938.1342062500044,
      "v": 65
    },
    {
      "midi": 68,
      "hit": false,
      "t": 75790.19151249979,
      "d": 928.9239125000022,
      "v": 64
    },
    {
      "midi": 59,
      "hit": false,
      "t": 75790.19151249979,
      "d": 935.5026937500079,
      "v": 71
    },
    {
      "midi": 61,
      "hit": false,
      "t": 76734.9044999998,
      "d": 1527.5930062499974,
      "v": 67
    },
    {
      "midi": 54,
      "hit": false,
      "t": 76734.9044999998,
      "d": 1534.1717875000031,
      "v": 64
    },
    {
      "midi": 66,
      "hit": false,
      "t": 76734.9044999998,
      "d": 1536.8032999999996,
      "v": 63
    },
    {
      "midi": 70,
      "hit": false,
      "t": 76734.9044999998,
      "d": 1543.3820812500053,
      "v": 71
    },
    {
      "midi": 66,
      "hit": false,
      "t": 78309.8647312498,
      "d": 922.345131250011,
      "v": 74
    },
    {
      "midi": 70,
      "hit": false,
      "t": 78309.8647312498,
      "d": 931.5554250000132,
      "v": 70
    },
    {
      "midi": 61,
      "hit": false,
      "t": 78309.8647312498,
      "d": 938.1342062500044,
      "v": 70
    },
    {
      "midi": 68,
      "hit": false,
      "t": 78313.8119999998,
      "d": 911.8190812500106,
      "v": 64
    },
    {
      "midi": 54,
      "hit": false,
      "t": 78320.39078124981,
      "d": 924.9766437500075,
      "v": 64
    },
    {
      "midi": 56,
      "hit": false,
      "t": 79254.57771874982,
      "d": 1567.065693749988,
      "v": 68
    },
    {
      "midi": 68,
      "hit": false,
      "t": 79257.20923124981,
      "d": 1547.32935,
      "v": 69
    },
    {
      "midi": 71,
      "hit": false,
      "t": 79257.20923124981,
      "d": 1563.1184249999933,
      "v": 68
    },
    {
      "midi": 63,
      "hit": false,
      "t": 79261.15649999981,
      "d": 1563.1184249999933,
      "v": 66
    },
    {
      "midi": 83,
      "hit": false,
      "t": 79599.3058562498,
      "d": 438.14683124999283,
      "v": 76
    },
    {
      "midi": 82,
      "hit": false,
      "t": 79928.2449187498,
      "d": 457.88317500000994,
      "v": 77
    },
    {
      "midi": 80,
      "hit": false,
      "t": 80217.7112937498,
      "d": 438.1468312500074,
      "v": 76
    },
    {
      "midi": 78,
      "hit": false,
      "t": 80557.17640624981,
      "d": 474.98800624998694,
      "v": 68
    },
    {
      "midi": 64,
      "hit": false,
      "t": 80836.1167312498,
      "d": 935.5026937499933,
      "v": 73
    },
    {
      "midi": 66,
      "hit": false,
      "t": 80840.0639999998,
      "d": 468.4092249999958,
      "v": 63
    },
    {
      "midi": 52,
      "hit": false,
      "t": 80840.0639999998,
      "d": 922.3451312499965,
      "v": 66
    },
    {
      "midi": 59,
      "hit": false,
      "t": 80840.0639999998,
      "d": 942.081474999999,
      "v": 69
    },
    {
      "midi": 68,
      "hit": false,
      "t": 81175.5818437498,
      "d": 514.4606937499921,
      "v": 64
    },
    {
      "midi": 66,
      "hit": false,
      "t": 81480.83729374979,
      "d": 1876.2684124999796,
      "v": 66
    },
    {
      "midi": 54,
      "hit": false,
      "t": 81780.8297187498,
      "d": 1540.7505687499797,
      "v": 56
    },
    {
      "midi": 61,
      "hit": false,
      "t": 81787.40849999979,
      "d": 1536.803299999985,
      "v": 72
    },
    {
      "midi": 58,
      "hit": false,
      "t": 81787.40849999979,
      "d": 1540.7505687499797,
      "v": 67
    },
    {
      "midi": 85,
      "hit": false,
      "t": 83274.21306249978,
      "d": 3115.710799999986,
      "v": 67
    },
    {
      "midi": 66,
      "hit": false,
      "t": 83366.31599999977,
      "d": 10.526050000000396,
      "v": 67
    },
    {
      "midi": 61,
      "hit": false,
      "t": 83366.31599999977,
      "d": 924.976643749993,
      "v": 63
    },
    {
      "midi": 70,
      "hit": false,
      "t": 83366.31599999977,
      "d": 955.2390374999814,
      "v": 69
    },
    {
      "midi": 80,
      "hit": false,
      "t": 83366.31599999977,
      "d": 3014.3975687499915,
      "v": 60
    },
    {
      "midi": 54,
      "hit": false,
      "t": 83368.94751249977,
      "d": 922.3451312499965,
      "v": 65
    },
    {
      "midi": 68,
      "hit": false,
      "t": 83379.47356249977,
      "d": 909.1875687499996,
      "v": 63
    },
    {
      "midi": 78,
      "hit": false,
      "t": 83467.62923124977,
      "d": 2931.504925000001,
      "v": 59
    },
    {
      "midi": 68,
      "hit": false,
      "t": 84313.66049999977,
      "d": 1543.3820812499907,
      "v": 67
    },
    {
      "midi": 71,
      "hit": false,
      "t": 84313.66049999977,
      "d": 1549.9608624999964,
      "v": 59
    },
    {
      "midi": 63,
      "hit": false,
      "t": 84313.66049999977,
      "d": 1553.9081312499911,
      "v": 70
    },
    {
      "midi": 56,
      "hit": false,
      "t": 84316.29201249976,
      "d": 1497.3306124999945,
      "v": 65
    },
    {
      "midi": 66,
      "hit": false,
      "t": 85885.98921874976,
      "d": 924.9766437500075,
      "v": 73
    },
    {
      "midi": 64,
      "hit": false,
      "t": 85892.56799999977,
      "d": 928.9239125000022,
      "v": 68
    },
    {
      "midi": 52,
      "hit": false,
      "t": 85892.56799999977,
      "d": 938.1342062500044,
      "v": 65
    },
    {
      "midi": 68,
      "hit": false,
      "t": 85895.19951249976,
      "d": 928.9239125000022,
      "v": 64
    },
    {
      "midi": 59,
      "hit": false,
      "t": 85895.19951249976,
      "d": 935.5026937500079,
      "v": 71
    },
    {
      "midi": 61,
      "hit": false,
      "t": 86839.91249999977,
      "d": 1527.5930062499974,
      "v": 67
    },
    {
      "midi": 54,
      "hit": false,
      "t": 86839.91249999977,
      "d": 1534.1717875000031,
      "v": 64
    },
    {
      "midi": 66,
      "hit": false,
      "t": 86839.91249999977,
      "d": 1536.8032999999996,
      "v": 63
    },
    {
      "midi": 70,
      "hit": false,
      "t": 86839.91249999977,
      "d": 1543.3820812500053,
      "v": 71
    },
    {
      "midi": 66,
      "hit": false,
      "t": 88414.87273124978,
      "d": 922.345131250011,
      "v": 74
    },
    {
      "midi": 70,
      "hit": false,
      "t": 88414.87273124978,
      "d": 931.5554250000132,
      "v": 70
    },
    {
      "midi": 61,
      "hit": false,
      "t": 88414.87273124978,
      "d": 938.1342062500044,
      "v": 70
    },
    {
      "midi": 68,
      "hit": false,
      "t": 88418.81999999977,
      "d": 911.8190812500106,
      "v": 64
    },
    {
      "midi": 54,
      "hit": false,
      "t": 88425.39878124978,
      "d": 924.9766437500075,
      "v": 64
    },
    {
      "midi": 56,
      "hit": false,
      "t": 89359.58571874979,
      "d": 1567.065693749988,
      "v": 68
    },
    {
      "midi": 68,
      "hit": false,
      "t": 89362.21723124979,
      "d": 1547.32935,
      "v": 69
    },
    {
      "midi": 71,
      "hit": false,
      "t": 89362.21723124979,
      "d": 1563.1184249999933,
      "v": 68
    },
    {
      "midi": 63,
      "hit": false,
      "t": 89366.16449999978,
      "d": 1563.1184249999933,
      "v": 66
    },
    {
      "midi": 83,
      "hit": false,
      "t": 89704.31385624978,
      "d": 438.14683124999283,
      "v": 76
    },
    {
      "midi": 82,
      "hit": false,
      "t": 90033.25291874977,
      "d": 457.88317500000994,
      "v": 77
    },
    {
      "midi": 80,
      "hit": false,
      "t": 90322.71929374977,
      "d": 438.1468312500074,
      "v": 76
    },
    {
      "midi": 78,
      "hit": false,
      "t": 90662.18440624978,
      "d": 474.98800624998694,
      "v": 68
    },
    {
      "midi": 64,
      "hit": false,
      "t": 90941.12473124977,
      "d": 935.5026937499933,
      "v": 73
    },
    {
      "midi": 66,
      "hit": false,
      "t": 90945.07199999977,
      "d": 468.4092249999958,
      "v": 63
    },
    {
      "midi": 52,
      "hit": false,
      "t": 90945.07199999977,
      "d": 922.3451312499965,
      "v": 66
    },
    {
      "midi": 59,
      "hit": false,
      "t": 90945.07199999977,
      "d": 942.081474999999,
      "v": 69
    },
    {
      "midi": 68,
      "hit": false,
      "t": 91280.58984374977,
      "d": 514.4606937499921,
      "v": 64
    },
    {
      "midi": 66,
      "hit": false,
      "t": 91585.84529374976,
      "d": 1876.2684124999942,
      "v": 66
    },
    {
      "midi": 54,
      "hit": false,
      "t": 91885.83771874977,
      "d": 1540.7505687499943,
      "v": 56
    },
    {
      "midi": 61,
      "hit": false,
      "t": 91892.41649999976,
      "d": 1536.8032999999996,
      "v": 72
    },
    {
      "midi": 58,
      "hit": false,
      "t": 91892.41649999976,
      "d": 1540.7505687499943,
      "v": 67
    },
    {
      "midi": 66,
      "hit": false,
      "t": 93471.32399999976,
      "d": 10.526050000000396,
      "v": 77
    },
    {
      "midi": 61,
      "hit": false,
      "t": 93471.32399999976,
      "d": 619.721193749996,
      "v": 73
    },
    {
      "midi": 70,
      "hit": false,
      "t": 93471.32399999976,
      "d": 619.721193749996,
      "v": 79
    },
    {
      "midi": 54,
      "hit": false,
      "t": 93473.95551249976,
      "d": 615.7739250000013,
      "v": 75
    },
    {
      "midi": 68,
      "hit": false,
      "t": 93484.48156249976,
      "d": 606.5636312499992,
      "v": 73
    },
    {
      "midi": 56,
      "hit": false,
      "t": 94418.66849999975,
      "d": 457.8831749999954,
      "v": 65
    },
    {
      "midi": 63,
      "hit": false,
      "t": 94418.66849999975,
      "d": 457.8831749999954,
      "v": 70
    },
    {
      "midi": 68,
      "hit": false,
      "t": 94418.66849999975,
      "d": 457.8831749999954,
      "v": 67
    },
    {
      "midi": 71,
      "hit": false,
      "t": 94418.66849999975,
      "d": 457.8831749999954,
      "v": 59
    },
    {
      "midi": 71,
      "hit": false,
      "t": 95050.23149999975,
      "d": 40.78844375000335,
      "v": 75
    },
    {
      "midi": 66,
      "hit": false,
      "t": 95050.23149999975,
      "d": 67.10356874999707,
      "v": 74
    },
    {
      "midi": 63,
      "hit": false,
      "t": 95050.23149999975,
      "d": 73.68235000000277,
      "v": 60
    },
    {
      "midi": 68,
      "hit": false,
      "t": 95050.23149999975,
      "d": 76.31386249999923,
      "v": 76
    },
    {
      "midi": 66,
      "hit": false,
      "t": 95990.99721874975,
      "d": 784.1907249999931,
      "v": 73
    },
    {
      "midi": 52,
      "hit": false,
      "t": 95997.57599999975,
      "d": 777.6119437499874,
      "v": 65
    },
    {
      "midi": 64,
      "hit": false,
      "t": 95997.57599999975,
      "d": 777.6119437499874,
      "v": 68
    },
    {
      "midi": 59,
      "hit": false,
      "t": 96000.20751249975,
      "d": 773.6646749999927,
      "v": 71
    },
    {
      "midi": 68,
      "hit": false,
      "t": 96000.20751249975,
      "d": 773.6646749999927,
      "v": 64
    },
    {
      "midi": 54,
      "hit": false,
      "t": 96944.92049999975,
      "d": 457.8831749999954,
      "v": 64
    },
    {
      "midi": 61,
      "hit": false,
      "t": 96944.92049999975,
      "d": 457.8831749999954,
      "v": 67
    },
    {
      "midi": 66,
      "hit": false,
      "t": 96944.92049999975,
      "d": 457.8831749999954,
      "v": 63
    },
    {
      "midi": 70,
      "hit": false,
      "t": 96944.92049999975,
      "d": 457.8831749999954,
      "v": 71
    },
    {
      "midi": 61,
      "hit": false,
      "t": 97576.48349999974,
      "d": 93.41869375000533,
      "v": 62
    },
    {
      "midi": 66,
      "hit": false,
      "t": 97576.48349999974,
      "d": 93.41869375000533,
      "v": 73
    },
    {
      "midi": 68,
      "hit": false,
      "t": 97576.48349999974,
      "d": 96.05020625000179,
      "v": 73
    },
    {
      "midi": 70,
      "hit": false,
      "t": 97576.48349999974,
      "d": 109.20776874999865,
      "v": 76
    },
    {
      "midi": 61,
      "hit": false,
      "t": 98519.88073124974,
      "d": 780.2434562499984,
      "v": 70
    },
    {
      "midi": 66,
      "hit": false,
      "t": 98519.88073124974,
      "d": 780.2434562499984,
      "v": 74
    },
    {
      "midi": 70,
      "hit": false,
      "t": 98519.88073124974,
      "d": 780.2434562499984,
      "v": 70
    },
    {
      "midi": 68,
      "hit": false,
      "t": 98523.82799999973,
      "d": 777.611943750002,
      "v": 64
    },
    {
      "midi": 54,
      "hit": false,
      "t": 98530.40678124974,
      "d": 771.0331624999963,
      "v": 64
    },
    {
      "midi": 56,
      "hit": false,
      "t": 99464.59371874973,
      "d": 468.4092249999958,
      "v": 68
    },
    {
      "midi": 68,
      "hit": false,
      "t": 99467.22523124973,
      "d": 464.4619562500011,
      "v": 69
    },
    {
      "midi": 71,
      "hit": false,
      "t": 99467.22523124973,
      "d": 464.4619562500011,
      "v": 68
    },
    {
      "midi": 63,
      "hit": false,
      "t": 99471.17249999972,
      "d": 461.83044375000463,
      "v": 66
    },
    {
      "midi": 68,
      "hit": false,
      "t": 100102.73549999973,
      "d": 174.99558124999749,
      "v": 70
    },
    {
      "midi": 71,
      "hit": false,
      "t": 100111.94579374974,
      "d": 161.83801875000063,
      "v": 84
    },
    {
      "midi": 63,
      "hit": false,
      "t": 100111.94579374974,
      "d": 172.36406874998647,
      "v": 62
    },
    {
      "midi": 66,
      "hit": false,
      "t": 100115.89306249973,
      "d": 165.78528749999532,
      "v": 78
    },
    {
      "midi": 66,
      "hit": false,
      "t": 100611.93316874972,
      "d": 349.99116249999497,
      "v": 88
    },
    {
      "midi": 64,
      "hit": false,
      "t": 101046.13273124972,
      "d": 935.5026937499933,
      "v": 73
    },
    {
      "midi": 66,
      "hit": false,
      "t": 101050.07999999971,
      "d": 389.4638500000001,
      "v": 63
    },
    {
      "midi": 68,
      "hit": false,
      "t": 101050.07999999971,
      "d": 471.0407375000068,
      "v": 81
    },
    {
      "midi": 52,
      "hit": false,
      "t": 101050.07999999971,
      "d": 922.3451312499965,
      "v": 66
    },
    {
      "midi": 59,
      "hit": false,
      "t": 101050.07999999971,
      "d": 942.081474999999,
      "v": 69
    },
    {
      "midi": 66,
      "hit": false,
      "t": 101530.33103124972,
      "d": 438.14683124999283,
      "v": 81
    },
    {
      "midi": 54,
      "hit": false,
      "t": 101990.84571874971,
      "d": 589.4587999999931,
      "v": 56
    },
    {
      "midi": 58,
      "hit": false,
      "t": 101997.4244999997,
      "d": 549.9861125000025,
      "v": 67
    },
    {
      "midi": 61,
      "hit": false,
      "t": 102017.1608437497,
      "d": 503.9346437500062,
      "v": 85
    },
    {
      "midi": 66,
      "hit": false,
      "t": 102635.5662812497,
      "d": 106.57625625000219,
      "v": 70
    },
    {
      "midi": 61,
      "hit": false,
      "t": 102644.7765749997,
      "d": 109.20776874999865,
      "v": 76
    },
    {
      "midi": 58,
      "hit": false,
      "t": 102655.3026249997,
      "d": 89.47142499999609,
      "v": 73
    },
    {
      "midi": 61,
      "hit": false,
      "t": 103576.3319999997,
      "d": 619.721193749996,
      "v": 73
    },
    {
      "midi": 66,
      "hit": false,
      "t": 103576.3319999997,
      "d": 619.721193749996,
      "v": 77
    },
    {
      "midi": 70,
      "hit": false,
      "t": 103576.3319999997,
      "d": 619.721193749996,
      "v": 79
    },
    {
      "midi": 54,
      "hit": false,
      "t": 103578.9635124997,
      "d": 615.7739250000013,
      "v": 75
    },
    {
      "midi": 68,
      "hit": false,
      "t": 103589.4895624997,
      "d": 606.5636312499992,
      "v": 73
    },
    {
      "midi": 56,
      "hit": false,
      "t": 104523.6764999997,
      "d": 457.8831749999954,
      "v": 65
    },
    {
      "midi": 63,
      "hit": false,
      "t": 104523.6764999997,
      "d": 457.8831749999954,
      "v": 70
    },
    {
      "midi": 68,
      "hit": false,
      "t": 104523.6764999997,
      "d": 457.8831749999954,
      "v": 67
    },
    {
      "midi": 71,
      "hit": false,
      "t": 104523.6764999997,
      "d": 457.8831749999954,
      "v": 59
    },
    {
      "midi": 71,
      "hit": false,
      "t": 105155.23949999969,
      "d": 40.78844375000335,
      "v": 75
    },
    {
      "midi": 66,
      "hit": false,
      "t": 105155.23949999969,
      "d": 67.10356874999707,
      "v": 74
    },
    {
      "midi": 63,
      "hit": false,
      "t": 105155.23949999969,
      "d": 73.68235000000277,
      "v": 60
    },
    {
      "midi": 68,
      "hit": false,
      "t": 105155.23949999969,
      "d": 76.31386249999923,
      "v": 76
    },
    {
      "midi": 66,
      "hit": false,
      "t": 106096.00521874969,
      "d": 784.1907249999931,
      "v": 73
    },
    {
      "midi": 52,
      "hit": false,
      "t": 106102.5839999997,
      "d": 777.6119437499874,
      "v": 65
    },
    {
      "midi": 64,
      "hit": false,
      "t": 106102.5839999997,
      "d": 777.6119437499874,
      "v": 68
    },
    {
      "midi": 59,
      "hit": false,
      "t": 106105.2155124997,
      "d": 773.6646749999927,
      "v": 71
    },
    {
      "midi": 68,
      "hit": false,
      "t": 106105.2155124997,
      "d": 773.6646749999927,
      "v": 64
    },
    {
      "midi": 54,
      "hit": false,
      "t": 107049.92849999969,
      "d": 457.8831749999954,
      "v": 64
    },
    {
      "midi": 61,
      "hit": false,
      "t": 107049.92849999969,
      "d": 457.8831749999954,
      "v": 67
    },
    {
      "midi": 66,
      "hit": false,
      "t": 107049.92849999969,
      "d": 457.8831749999954,
      "v": 63
    },
    {
      "midi": 70,
      "hit": false,
      "t": 107049.92849999969,
      "d": 457.8831749999954,
      "v": 71
    },
    {
      "midi": 61,
      "hit": false,
      "t": 107681.49149999968,
      "d": 93.41869375000533,
      "v": 62
    },
    {
      "midi": 66,
      "hit": false,
      "t": 107681.49149999968,
      "d": 93.41869375000533,
      "v": 81
    },
    {
      "midi": 68,
      "hit": false,
      "t": 107681.49149999968,
      "d": 96.05020625000179,
      "v": 73
    },
    {
      "midi": 70,
      "hit": false,
      "t": 107681.49149999968,
      "d": 109.20776874999865,
      "v": 73
    },
    {
      "midi": 61,
      "hit": false,
      "t": 108190.68916874968,
      "d": 96.05020625000179,
      "v": 78
    },
    {
      "midi": 63,
      "hit": false,
      "t": 108313.05449999968,
      "d": 280.25608125000144,
      "v": 73
    },
    {
      "midi": 61,
      "hit": false,
      "t": 108624.88873124968,
      "d": 780.2434562499984,
      "v": 70
    },
    {
      "midi": 66,
      "hit": false,
      "t": 108624.88873124968,
      "d": 780.2434562499984,
      "v": 74
    },
    {
      "midi": 70,
      "hit": false,
      "t": 108624.88873124968,
      "d": 780.2434562499984,
      "v": 70
    },
    {
      "midi": 68,
      "hit": false,
      "t": 108628.83599999968,
      "d": 777.611943750002,
      "v": 64
    },
    {
      "midi": 54,
      "hit": false,
      "t": 108635.41478124968,
      "d": 771.0331624999963,
      "v": 64
    },
    {
      "midi": 56,
      "hit": false,
      "t": 109569.60171874968,
      "d": 468.4092249999958,
      "v": 68
    },
    {
      "midi": 68,
      "hit": false,
      "t": 109572.23323124967,
      "d": 464.4619562500011,
      "v": 69
    },
    {
      "midi": 71,
      "hit": false,
      "t": 109572.23323124967,
      "d": 464.4619562500011,
      "v": 68
    },
    {
      "midi": 63,
      "hit": false,
      "t": 109576.18049999967,
      "d": 461.83044375000463,
      "v": 66
    },
    {
      "midi": 68,
      "hit": false,
      "t": 110207.74349999968,
      "d": 174.99558124999749,
      "v": 70
    },
    {
      "midi": 71,
      "hit": false,
      "t": 110216.95379374968,
      "d": 161.83801875000063,
      "v": 84
    },
    {
      "midi": 63,
      "hit": false,
      "t": 110216.95379374968,
      "d": 172.36406874998647,
      "v": 62
    },
    {
      "midi": 66,
      "hit": false,
      "t": 110220.90106249967,
      "d": 165.78528749999532,
      "v": 78
    },
    {
      "midi": 66,
      "hit": false,
      "t": 110716.94116874966,
      "d": 349.99116249999497,
      "v": 88
    },
    {
      "midi": 64,
      "hit": false,
      "t": 111151.14073124966,
      "d": 935.5026937499933,
      "v": 73
    },
    {
      "midi": 66,
      "hit": false,
      "t": 111155.08799999965,
      "d": 389.4638500000001,
      "v": 63
    },
    {
      "midi": 68,
      "hit": false,
      "t": 111155.08799999965,
      "d": 471.0407375000068,
      "v": 81
    },
    {
      "midi": 52,
      "hit": false,
      "t": 111155.08799999965,
      "d": 922.3451312499965,
      "v": 66
    },
    {
      "midi": 59,
      "hit": false,
      "t": 111155.08799999965,
      "d": 942.081474999999,
      "v": 69
    },
    {
      "midi": 66,
      "hit": false,
      "t": 111635.33903124966,
      "d": 438.14683124999283,
      "v": 81
    },
    {
      "midi": 54,
      "hit": false,
      "t": 112095.85371874965,
      "d": 589.4587999999931,
      "v": 56
    },
    {
      "midi": 58,
      "hit": false,
      "t": 112102.43249999965,
      "d": 549.9861125000025,
      "v": 67
    },
    {
      "midi": 61,
      "hit": false,
      "t": 112122.16884374965,
      "d": 503.9346437500062,
      "v": 85
    },
    {
      "midi": 66,
      "hit": false,
      "t": 112740.57428124965,
      "d": 106.57625625000219,
      "v": 70
    },
    {
      "midi": 61,
      "hit": false,
      "t": 112749.78457499965,
      "d": 109.20776874999865,
      "v": 76
    },
    {
      "midi": 58,
      "hit": false,
      "t": 112760.31062499965,
      "d": 89.47142499999609,
      "v": 73
    },
    {
      "midi": 61,
      "hit": false,
      "t": 113681.33999999965,
      "d": 619.721193749996,
      "v": 73
    },
    {
      "midi": 66,
      "hit": false,
      "t": 113681.33999999965,
      "d": 619.721193749996,
      "v": 77
    },
    {
      "midi": 70,
      "hit": false,
      "t": 113681.33999999965,
      "d": 619.721193749996,
      "v": 79
    },
    {
      "midi": 54,
      "hit": false,
      "t": 113683.97151249964,
      "d": 615.7739250000013,
      "v": 75
    },
    {
      "midi": 68,
      "hit": false,
      "t": 113694.49756249964,
      "d": 606.5636312499992,
      "v": 73
    },
    {
      "midi": 56,
      "hit": false,
      "t": 114628.68449999964,
      "d": 457.8831749999954,
      "v": 65
    },
    {
      "midi": 63,
      "hit": false,
      "t": 114628.68449999964,
      "d": 457.8831749999954,
      "v": 70
    },
    {
      "midi": 68,
      "hit": false,
      "t": 114628.68449999964,
      "d": 457.8831749999954,
      "v": 67
    },
    {
      "midi": 71,
      "hit": false,
      "t": 114628.68449999964,
      "d": 457.8831749999954,
      "v": 59
    },
    {
      "midi": 71,
      "hit": false,
      "t": 115260.24749999963,
      "d": 40.78844375000335,
      "v": 75
    },
    {
      "midi": 66,
      "hit": false,
      "t": 115260.24749999963,
      "d": 67.10356874999707,
      "v": 74
    },
    {
      "midi": 63,
      "hit": false,
      "t": 115260.24749999963,
      "d": 73.68235000000277,
      "v": 60
    },
    {
      "midi": 68,
      "hit": false,
      "t": 115260.24749999963,
      "d": 76.31386249999923,
      "v": 76
    },
    {
      "midi": 66,
      "hit": false,
      "t": 116201.01321874963,
      "d": 784.1907249999931,
      "v": 73
    },
    {
      "midi": 52,
      "hit": false,
      "t": 116207.59199999964,
      "d": 777.6119437499874,
      "v": 65
    },
    {
      "midi": 64,
      "hit": false,
      "t": 116207.59199999964,
      "d": 777.6119437499874,
      "v": 68
    },
    {
      "midi": 59,
      "hit": false,
      "t": 116210.22351249964,
      "d": 773.6646749999927,
      "v": 71
    },
    {
      "midi": 68,
      "hit": false,
      "t": 116210.22351249964,
      "d": 773.6646749999927,
      "v": 64
    },
    {
      "midi": 54,
      "hit": false,
      "t": 117154.93649999963,
      "d": 457.8831749999954,
      "v": 64
    },
    {
      "midi": 61,
      "hit": false,
      "t": 117154.93649999963,
      "d": 457.8831749999954,
      "v": 67
    },
    {
      "midi": 66,
      "hit": false,
      "t": 117154.93649999963,
      "d": 457.8831749999954,
      "v": 63
    },
    {
      "midi": 70,
      "hit": false,
      "t": 117154.93649999963,
      "d": 457.8831749999954,
      "v": 71
    },
    {
      "midi": 61,
      "hit": false,
      "t": 117786.49949999963,
      "d": 93.41869375000533,
      "v": 62
    },
    {
      "midi": 66,
      "hit": false,
      "t": 117786.49949999963,
      "d": 93.41869375000533,
      "v": 81
    },
    {
      "midi": 68,
      "hit": false,
      "t": 117786.49949999963,
      "d": 96.05020625000179,
      "v": 73
    },
    {
      "midi": 70,
      "hit": false,
      "t": 117786.49949999963,
      "d": 109.20776874999865,
      "v": 73
    },
    {
      "midi": 61,
      "hit": false,
      "t": 118295.69716874963,
      "d": 96.05020625000179,
      "v": 78
    },
    {
      "midi": 63,
      "hit": false,
      "t": 118418.06249999962,
      "d": 280.25608125000144,
      "v": 73
    },
    {
      "midi": 61,
      "hit": false,
      "t": 118729.89673124962,
      "d": 780.2434562499984,
      "v": 70
    },
    {
      "midi": 66,
      "hit": false,
      "t": 118729.89673124962,
      "d": 780.2434562499984,
      "v": 74
    },
    {
      "midi": 70,
      "hit": false,
      "t": 118729.89673124962,
      "d": 780.2434562499984,
      "v": 70
    },
    {
      "midi": 68,
      "hit": false,
      "t": 118733.84399999962,
      "d": 777.611943750002,
      "v": 64
    },
    {
      "midi": 54,
      "hit": false,
      "t": 118740.42278124962,
      "d": 771.0331624999963,
      "v": 64
    },
    {
      "midi": 56,
      "hit": false,
      "t": 119674.60971874962,
      "d": 468.4092249999958,
      "v": 68
    },
    {
      "midi": 68,
      "hit": false,
      "t": 119677.24123124962,
      "d": 464.4619562500011,
      "v": 69
    },
    {
      "midi": 71,
      "hit": false,
      "t": 119677.24123124962,
      "d": 464.4619562500011,
      "v": 68
    },
    {
      "midi": 63,
      "hit": false,
      "t": 119681.18849999961,
      "d": 461.83044375000463,
      "v": 66
    },
    {
      "midi": 68,
      "hit": false,
      "t": 120312.75149999962,
      "d": 174.99558124999749,
      "v": 70
    },
    {
      "midi": 71,
      "hit": false,
      "t": 120321.96179374962,
      "d": 161.83801875000063,
      "v": 84
    },
    {
      "midi": 63,
      "hit": false,
      "t": 120321.96179374962,
      "d": 172.36406874998647,
      "v": 62
    },
    {
      "midi": 66,
      "hit": false,
      "t": 120325.90906249962,
      "d": 165.78528749999532,
      "v": 78
    },
    {
      "midi": 66,
      "hit": false,
      "t": 120821.9491687496,
      "d": 349.99116249999497,
      "v": 88
    },
    {
      "midi": 64,
      "hit": false,
      "t": 121256.1487312496,
      "d": 935.5026937499933,
      "v": 73
    },
    {
      "midi": 66,
      "hit": false,
      "t": 121260.0959999996,
      "d": 389.4638500000001,
      "v": 63
    },
    {
      "midi": 68,
      "hit": false,
      "t": 121260.0959999996,
      "d": 471.0407375000068,
      "v": 81
    },
    {
      "midi": 52,
      "hit": false,
      "t": 121260.0959999996,
      "d": 922.3451312499965,
      "v": 66
    },
    {
      "midi": 59,
      "hit": false,
      "t": 121260.0959999996,
      "d": 942.081474999999,
      "v": 69
    },
    {
      "midi": 66,
      "hit": false,
      "t": 121740.3470312496,
      "d": 438.14683124999283,
      "v": 81
    },
    {
      "midi": 54,
      "hit": false,
      "t": 122200.8617187496,
      "d": 589.4587999999931,
      "v": 56
    },
    {
      "midi": 58,
      "hit": false,
      "t": 122207.44049999959,
      "d": 549.9861125000025,
      "v": 67
    },
    {
      "midi": 61,
      "hit": false,
      "t": 122227.17684374959,
      "d": 503.9346437500062,
      "v": 85
    },
    {
      "midi": 66,
      "hit": false,
      "t": 122845.58228124959,
      "d": 106.57625625000219,
      "v": 70
    },
    {
      "midi": 61,
      "hit": false,
      "t": 122854.79257499959,
      "d": 109.20776874999865,
      "v": 76
    },
    {
      "midi": 58,
      "hit": false,
      "t": 122865.31862499959,
      "d": 89.47142499999609,
      "v": 73
    },
    {
      "midi": 61,
      "hit": false,
      "t": 123786.34799999959,
      "d": 619.721193749996,
      "v": 73
    },
    {
      "midi": 66,
      "hit": false,
      "t": 123786.34799999959,
      "d": 619.721193749996,
      "v": 77
    },
    {
      "midi": 70,
      "hit": false,
      "t": 123786.34799999959,
      "d": 619.721193749996,
      "v": 79
    },
    {
      "midi": 54,
      "hit": false,
      "t": 123788.97951249959,
      "d": 615.7739250000013,
      "v": 75
    },
    {
      "midi": 68,
      "hit": false,
      "t": 123799.50556249959,
      "d": 606.5636312499992,
      "v": 73
    },
    {
      "midi": 56,
      "hit": false,
      "t": 124733.69249999958,
      "d": 457.8831749999954,
      "v": 65
    },
    {
      "midi": 63,
      "hit": false,
      "t": 124733.69249999958,
      "d": 457.8831749999954,
      "v": 70
    },
    {
      "midi": 68,
      "hit": false,
      "t": 124733.69249999958,
      "d": 457.8831749999954,
      "v": 67
    },
    {
      "midi": 71,
      "hit": false,
      "t": 124733.69249999958,
      "d": 457.8831749999954,
      "v": 59
    },
    {
      "midi": 71,
      "hit": false,
      "t": 125365.25549999958,
      "d": 40.78844375000335,
      "v": 75
    },
    {
      "midi": 66,
      "hit": false,
      "t": 125365.25549999958,
      "d": 67.10356874999707,
      "v": 74
    },
    {
      "midi": 63,
      "hit": false,
      "t": 125365.25549999958,
      "d": 73.68235000000277,
      "v": 60
    },
    {
      "midi": 68,
      "hit": false,
      "t": 125365.25549999958,
      "d": 76.31386249999923,
      "v": 76
    },
    {
      "midi": 66,
      "hit": false,
      "t": 126306.02121874958,
      "d": 784.1907249999931,
      "v": 73
    },
    {
      "midi": 52,
      "hit": false,
      "t": 126312.59999999958,
      "d": 777.6119437499874,
      "v": 65
    },
    {
      "midi": 64,
      "hit": false,
      "t": 126312.59999999958,
      "d": 777.6119437499874,
      "v": 68
    },
    {
      "midi": 59,
      "hit": false,
      "t": 126315.23151249958,
      "d": 773.6646749999927,
      "v": 71
    },
    {
      "midi": 68,
      "hit": false,
      "t": 126315.23151249958,
      "d": 773.6646749999927,
      "v": 64
    },
    {
      "midi": 54,
      "hit": false,
      "t": 127259.94449999958,
      "d": 457.8831749999954,
      "v": 64
    },
    {
      "midi": 61,
      "hit": false,
      "t": 127259.94449999958,
      "d": 457.8831749999954,
      "v": 67
    },
    {
      "midi": 66,
      "hit": false,
      "t": 127259.94449999958,
      "d": 457.8831749999954,
      "v": 63
    },
    {
      "midi": 70,
      "hit": false,
      "t": 127259.94449999958,
      "d": 457.8831749999954,
      "v": 71
    },
    {
      "midi": 61,
      "hit": false,
      "t": 127891.50749999957,
      "d": 93.41869375000533,
      "v": 62
    },
    {
      "midi": 66,
      "hit": false,
      "t": 127891.50749999957,
      "d": 93.41869375000533,
      "v": 81
    },
    {
      "midi": 68,
      "hit": false,
      "t": 127891.50749999957,
      "d": 96.05020625000179,
      "v": 73
    },
    {
      "midi": 70,
      "hit": false,
      "t": 127891.50749999957,
      "d": 109.20776874999865,
      "v": 73
    },
    {
      "midi": 61,
      "hit": false,
      "t": 128400.70516874957,
      "d": 96.05020625000179,
      "v": 78
    },
    {
      "midi": 63,
      "hit": false,
      "t": 128523.07049999957,
      "d": 280.25608125000144,
      "v": 73
    },
    {
      "midi": 61,
      "hit": false,
      "t": 128834.90473124957,
      "d": 780.2434562499984,
      "v": 70
    },
    {
      "midi": 66,
      "hit": false,
      "t": 128834.90473124957,
      "d": 780.2434562499984,
      "v": 74
    },
    {
      "midi": 70,
      "hit": false,
      "t": 128834.90473124957,
      "d": 780.2434562499984,
      "v": 70
    },
    {
      "midi": 68,
      "hit": false,
      "t": 128838.85199999956,
      "d": 777.611943750002,
      "v": 64
    },
    {
      "midi": 54,
      "hit": false,
      "t": 128845.43078124957,
      "d": 771.0331624999963,
      "v": 64
    },
    {
      "midi": 97,
      "hit": false,
      "t": 129161.21228125,
      "d": 89.47142499999609,
      "v": 90
    },
    {
      "midi": 56,
      "hit": false,
      "t": 129779.61771874956,
      "d": 468.4092249999958,
      "v": 68
    },
    {
      "midi": 68,
      "hit": false,
      "t": 129782.24923124956,
      "d": 464.4619562500011,
      "v": 69
    },
    {
      "midi": 71,
      "hit": false,
      "t": 129782.24923124956,
      "d": 464.4619562500011,
      "v": 68
    },
    {
      "midi": 63,
      "hit": false,
      "t": 129786.19649999955,
      "d": 461.83044375000463,
      "v": 66
    },
    {
      "midi": 95,
      "hit": false,
      "t": 129792.77528125,
      "d": 106.57625625000219,
      "v": 89
    },
    {
      "midi": 68,
      "hit": false,
      "t": 130417.75949999956,
      "d": 174.99558124999749,
      "v": 70
    },
    {
      "midi": 94,
      "hit": false,
      "t": 130424.33828125,
      "d": 89.47142499999609,
      "v": 89
    },
    {
      "midi": 71,
      "hit": false,
      "t": 130426.96979374957,
      "d": 161.83801875000063,
      "v": 84
    },
    {
      "midi": 63,
      "hit": false,
      "t": 130426.96979374957,
      "d": 172.36406874998647,
      "v": 62
    },
    {
      "midi": 66,
      "hit": false,
      "t": 130430.91706249956,
      "d": 165.78528749999532,
      "v": 78
    },
    {
      "midi": 64,
      "hit": false,
      "t": 131032.21766874955,
      "d": 2803.876568749998,
      "v": 79
    },
    {
      "midi": 68,
      "hit": false,
      "t": 131036.16493749955,
      "d": 2806.5080812499946,
      "v": 84
    },
    {
      "midi": 59,
      "hit": false,
      "t": 131038.79644999954,
      "d": 2799.9293000000034,
      "v": 80
    },
    {
      "midi": 92,
      "hit": false,
      "t": 131051.9540125,
      "d": 69.73508124999353,
      "v": 89
    },
    {
      "midi": 47,
      "hit": false,
      "t": 133891.35599999953,
      "d": 435.51531874999637,
      "v": 77
    },
    {
      "midi": 54,
      "hit": false,
      "t": 133891.35599999953,
      "d": 497.3558625000005,
      "v": 77
    },
    {
      "midi": 59,
      "hit": false,
      "t": 133891.35599999953,
      "d": 497.3558625000005,
      "v": 77
    },
    {
      "midi": 63,
      "hit": false,
      "t": 133891.35599999953,
      "d": 497.3558625000005,
      "v": 77
    },
    {
      "midi": 47,
      "hit": false,
      "t": 134365.02824999954,
      "d": 461.8304437500192,
      "v": 77
    },
    {
      "midi": 54,
      "hit": false,
      "t": 134400.55366874955,
      "d": 424.9892687500105,
      "v": 77
    },
    {
      "midi": 59,
      "hit": false,
      "t": 134400.55366874955,
      "d": 424.9892687500105,
      "v": 77
    },
    {
      "midi": 63,
      "hit": false,
      "t": 134400.55366874955,
      "d": 424.9892687500105,
      "v": 77
    },
    {
      "midi": 69,
      "hit": false,
      "t": 134828.17444999955,
      "d": 89.47142499999609,
      "v": 67
    },
    {
      "midi": 66,
      "hit": false,
      "t": 134838.70049999954,
      "d": 1113.1297875000164,
      "v": 77
    },
    {
      "midi": 42,
      "hit": false,
      "t": 134838.70049999954,
      "d": 1128.9188625000243,
      "v": 77
    },
    {
      "midi": 61,
      "hit": false,
      "t": 134838.70049999954,
      "d": 1128.9188625000243,
      "v": 77
    },
    {
      "midi": 63,
      "hit": false,
      "t": 134838.70049999992,
      "d": 626.2999750000017,
      "v": 1
    },
    {
      "midi": 54,
      "hit": false,
      "t": 134838.70049999992,
      "d": 646.0363187500043,
      "v": 1
    },
    {
      "midi": 59,
      "hit": false,
      "t": 134838.70049999992,
      "d": 646.0363187500043,
      "v": 1
    },
    {
      "midi": 70,
      "hit": false,
      "t": 134884.75196874954,
      "d": 974.9753812500276,
      "v": 81
    },
    {
      "midi": 58,
      "hit": false,
      "t": 135470.2634999999,
      "d": 1889.4259750000201,
      "v": 1
    },
    {
      "midi": 66,
      "hit": false,
      "t": 135470.2634999999,
      "d": 1889.4259750000201,
      "v": 1
    },
    {
      "midi": 61,
      "hit": false,
      "t": 135470.2634999999,
      "d": 2520.9889750000148,
      "v": 1
    },
    {
      "midi": 70,
      "hit": false,
      "t": 135966.30360624957,
      "d": 96.05020624998724,
      "v": 81
    },
    {
      "midi": 66,
      "hit": false,
      "t": 135976.82965624955,
      "d": 109.20776874999865,
      "v": 81
    },
    {
      "midi": 61,
      "hit": false,
      "t": 136101.82649999956,
      "d": 122.36533125001006,
      "v": 90
    },
    {
      "midi": 66,
      "hit": false,
      "t": 136104.45801249956,
      "d": 119.7338187500136,
      "v": 81
    },
    {
      "midi": 61,
      "hit": false,
      "t": 136417.60799999957,
      "d": 461.8304437499901,
      "v": 87
    },
    {
      "midi": 64,
      "hit": false,
      "t": 136417.60799999957,
      "d": 497.3558625000005,
      "v": 77
    },
    {
      "midi": 69,
      "hit": false,
      "t": 136417.60799999957,
      "d": 497.3558625000005,
      "v": 77
    },
    {
      "midi": 64,
      "hit": false,
      "t": 136926.80566874958,
      "d": 396.04263124999125,
      "v": 77
    },
    {
      "midi": 61,
      "hit": false,
      "t": 136926.80566874958,
      "d": 424.9892687499814,
      "v": 89
    },
    {
      "midi": 69,
      "hit": false,
      "t": 136926.80566874958,
      "d": 424.9892687499814,
      "v": 77
    },
    {
      "midi": 66,
      "hit": false,
      "t": 137364.95249999958,
      "d": 76.31386249998468,
      "v": 76
    },
    {
      "midi": 59,
      "hit": false,
      "t": 137364.95249999958,
      "d": 586.8272874999966,
      "v": 77
    },
    {
      "midi": 64,
      "hit": false,
      "t": 137364.95249999958,
      "d": 586.8272874999966,
      "v": 77
    },
    {
      "midi": 52,
      "hit": false,
      "t": 137364.95249999958,
      "d": 1501.2778812499892,
      "v": 88
    },
    {
      "midi": 56,
      "hit": false,
      "t": 137364.95249999993,
      "d": 626.2999750000017,
      "v": 1
    },
    {
      "midi": 68,
      "hit": false,
      "t": 137417.58274999956,
      "d": 567.0909437500231,
      "v": 88
    },
    {
      "midi": 64,
      "hit": false,
      "t": 137992.56823124958,
      "d": 161.83801875001518,
      "v": 86
    },
    {
      "midi": 59,
      "hit": false,
      "t": 137996.51549999957,
      "d": 211.83675625003525,
      "v": 93
    },
    {
      "midi": 59,
      "hit": false,
      "t": 137996.51549999992,
      "d": 310.51847499998985,
      "v": 1
    },
    {
      "midi": 66,
      "hit": false,
      "t": 137996.51549999992,
      "d": 310.51847499998985,
      "v": 1
    },
    {
      "midi": 68,
      "hit": false,
      "t": 138012.30457499958,
      "d": 178.94285000002128,
      "v": 92
    },
    {
      "midi": 61,
      "hit": false,
      "t": 138312.2969999999,
      "d": 310.51847499998985,
      "v": 1
    },
    {
      "midi": 64,
      "hit": false,
      "t": 138312.2969999999,
      "d": 310.51847499998985,
      "v": 1
    },
    {
      "midi": 68,
      "hit": false,
      "t": 138312.2969999999,
      "d": 310.51847499998985,
      "v": 1
    },
    {
      "midi": 68,
      "hit": false,
      "t": 138334.6648562496,
      "d": 148.68045624997467,
      "v": 88
    },
    {
      "midi": 64,
      "hit": false,
      "t": 138338.6121249996,
      "d": 152.62772499996936,
      "v": 93
    },
    {
      "midi": 59,
      "hit": false,
      "t": 138345.1909062496,
      "d": 135.52289374999236,
      "v": 102
    },
    {
      "midi": 61,
      "hit": false,
      "t": 138505.7131687496,
      "d": 132.8913812499668,
      "v": 76
    },
    {
      "midi": 66,
      "hit": false,
      "t": 138535.97556249957,
      "d": 93.41869374999078,
      "v": 76
    },
    {
      "midi": 64,
      "hit": false,
      "t": 138628.07849999957,
      "d": 178.94284999999218,
      "v": 80
    },
    {
      "midi": 59,
      "hit": false,
      "t": 138628.0784999999,
      "d": 1889.425974999991,
      "v": 1
    },
    {
      "midi": 63,
      "hit": false,
      "t": 138628.0784999999,
      "d": 1889.425974999991,
      "v": 1
    },
    {
      "midi": 66,
      "hit": false,
      "t": 138628.0784999999,
      "d": 4099.896474999958,
      "v": 1
    },
    {
      "midi": 59,
      "hit": false,
      "t": 138643.86757499955,
      "d": 221.04705000002286,
      "v": 99
    },
    {
      "midi": 68,
      "hit": false,
      "t": 138657.02513749956,
      "d": 240.78339374999632,
      "v": 68
    },
    {
      "midi": 47,
      "hit": false,
      "t": 138943.85999999955,
      "d": 435.51531874999637,
      "v": 77
    },
    {
      "midi": 54,
      "hit": false,
      "t": 138943.85999999955,
      "d": 497.3558625000005,
      "v": 77
    },
    {
      "midi": 59,
      "hit": false,
      "t": 138943.85999999955,
      "d": 497.3558625000005,
      "v": 77
    },
    {
      "midi": 63,
      "hit": false,
      "t": 138943.85999999955,
      "d": 497.3558625000005,
      "v": 77
    },
    {
      "midi": 47,
      "hit": false,
      "t": 139417.53224999955,
      "d": 461.8304437500192,
      "v": 77
    },
    {
      "midi": 54,
      "hit": false,
      "t": 139453.05766874956,
      "d": 424.9892687500105,
      "v": 77
    },
    {
      "midi": 59,
      "hit": false,
      "t": 139453.05766874956,
      "d": 424.9892687500105,
      "v": 77
    },
    {
      "midi": 63,
      "hit": false,
      "t": 139453.05766874956,
      "d": 424.9892687500105,
      "v": 77
    },
    {
      "midi": 69,
      "hit": false,
      "t": 139880.67844999957,
      "d": 89.47142499999609,
      "v": 67
    },
    {
      "midi": 42,
      "hit": false,
      "t": 139891.20449999956,
      "d": 935.5026937500224,
      "v": 77
    },
    {
      "midi": 66,
      "hit": false,
      "t": 139891.20449999956,
      "d": 935.5026937500224,
      "v": 77
    },
    {
      "midi": 61,
      "hit": false,
      "t": 139891.20449999956,
      "d": 1251.2841937500343,
      "v": 77
    },
    {
      "midi": 70,
      "hit": false,
      "t": 139937.25596874955,
      "d": 889.4512250000262,
      "v": 81
    },
    {
      "midi": 58,
      "hit": false,
      "t": 140522.76749999987,
      "d": 1257.8629749999964,
      "v": 1
    },
    {
      "midi": 61,
      "hit": false,
      "t": 140522.76749999987,
      "d": 1257.8629749999964,
      "v": 1
    },
    {
      "midi": 68,
      "hit": false,
      "t": 140838.5489999996,
      "d": 198.67919374999474,
      "v": 78
    },
    {
      "midi": 70,
      "hit": false,
      "t": 140999.07126249958,
      "d": 247.36217500001658,
      "v": 78
    },
    {
      "midi": 66,
      "hit": false,
      "t": 141156.9620124996,
      "d": 194.73192500000005,
      "v": 78
    },
    {
      "midi": 61,
      "hit": false,
      "t": 141312.2212499996,
      "d": 619.7211937499815,
      "v": 82
    },
    {
      "midi": 62,
      "hit": false,
      "t": 141470.1119999996,
      "d": 497.3558625000005,
      "v": 77
    },
    {
      "midi": 66,
      "hit": false,
      "t": 141470.1119999996,
      "d": 497.3558625000005,
      "v": 77
    },
    {
      "midi": 69,
      "hit": false,
      "t": 141470.1119999996,
      "d": 497.3558625000005,
      "v": 77
    },
    {
      "midi": 50,
      "hit": false,
      "t": 141476.69078124958,
      "d": 448.6728812500078,
      "v": 86
    },
    {
      "midi": 62,
      "hit": false,
      "t": 141785.89349999986,
      "d": 626.2999750000017,
      "v": 1
    },
    {
      "midi": 69,
      "hit": false,
      "t": 141785.89349999986,
      "d": 626.2999750000017,
      "v": 1
    },
    {
      "midi": 61,
      "hit": false,
      "t": 141979.3096687496,
      "d": 267.09851874999003,
      "v": 77
    },
    {
      "midi": 62,
      "hit": false,
      "t": 141979.3096687496,
      "d": 267.09851874999003,
      "v": 77
    },
    {
      "midi": 66,
      "hit": false,
      "t": 141979.3096687496,
      "d": 267.09851874999003,
      "v": 77
    },
    {
      "midi": 69,
      "hit": false,
      "t": 141979.3096687496,
      "d": 267.09851874999003,
      "v": 77
    },
    {
      "midi": 50,
      "hit": false,
      "t": 142002.9932812496,
      "d": 398.6741437499877,
      "v": 86
    },
    {
      "midi": 68,
      "hit": false,
      "t": 142417.4564999996,
      "d": 892.0827374999935,
      "v": 77
    },
    {
      "midi": 66,
      "hit": false,
      "t": 142417.4564999996,
      "d": 935.5026937499933,
      "v": 77
    },
    {
      "midi": 64,
      "hit": false,
      "t": 142417.4564999996,
      "d": 1093.3934437500138,
      "v": 77
    },
    {
      "midi": 49,
      "hit": false,
      "t": 142417.4564999996,
      "d": 1303.9144437500217,
      "v": 76
    },
    {
      "midi": 59,
      "hit": false,
      "t": 142417.4564999996,
      "d": 1567.065693750017,
      "v": 77
    },
    {
      "midi": 61,
      "hit": false,
      "t": 142417.4564999996,
      "d": 1567.065693750017,
      "v": 77
    },
    {
      "midi": 59,
      "hit": false,
      "t": 142417.45649999985,
      "d": 310.51847499998985,
      "v": 1
    },
    {
      "midi": 63,
      "hit": false,
      "t": 142417.45649999985,
      "d": 310.51847499998985,
      "v": 1
    },
    {
      "midi": 61,
      "hit": false,
      "t": 142733.23799999984,
      "d": 271.04578750001383,
      "v": 1
    },
    {
      "midi": 64,
      "hit": false,
      "t": 142733.23799999984,
      "d": 310.51847500001895,
      "v": 1
    },
    {
      "midi": 68,
      "hit": false,
      "t": 142733.23799999984,
      "d": 313.1499875000154,
      "v": 1
    },
    {
      "midi": 59,
      "hit": false,
      "t": 143049.01949999985,
      "d": 188.1531437500089,
      "v": 1
    },
    {
      "midi": 66,
      "hit": false,
      "t": 143049.01949999985,
      "d": 297.36091250000754,
      "v": 1
    },
    {
      "midi": 63,
      "hit": false,
      "t": 143049.01949999985,
      "d": 317.0972562500101,
      "v": 1
    },
    {
      "midi": 68,
      "hit": false,
      "t": 143364.8009999996,
      "d": 159.20650625001872,
      "v": 81
    },
    {
      "midi": 61,
      "hit": false,
      "t": 143364.80099999986,
      "d": 310.51847499998985,
      "v": 1
    },
    {
      "midi": 64,
      "hit": false,
      "t": 143364.80099999986,
      "d": 310.51847499998985,
      "v": 1
    },
    {
      "midi": 59,
      "hit": false,
      "t": 143364.80099999986,
      "d": 2205.207474999974,
      "v": 1
    },
    {
      "midi": 66,
      "hit": false,
      "t": 143531.9020437496,
      "d": 102.6289875000075,
      "v": 73
    },
    {
      "midi": 64,
      "hit": false,
      "t": 143663.4776687496,
      "d": 168.41680000000633,
      "v": 84
    },
    {
      "midi": 54,
      "hit": false,
      "t": 143680.58249999984,
      "d": 1889.425974999991,
      "v": 1
    },
    {
      "midi": 63,
      "hit": false,
      "t": 143680.58249999984,
      "d": 1889.425974999991,
      "v": 1
    },
    {
      "midi": 47,
      "hit": false,
      "t": 143996.36399999962,
      "d": 435.51531874999637,
      "v": 77
    },
    {
      "midi": 54,
      "hit": false,
      "t": 143996.36399999962,
      "d": 497.3558625000005,
      "v": 77
    },
    {
      "midi": 59,
      "hit": false,
      "t": 143996.36399999962,
      "d": 497.3558625000005,
      "v": 77
    },
    {
      "midi": 63,
      "hit": false,
      "t": 143996.36399999962,
      "d": 497.3558625000005,
      "v": 77
    },
    {
      "midi": 47,
      "hit": false,
      "t": 144470.03624999963,
      "d": 461.8304437500192,
      "v": 77
    },
    {
      "midi": 54,
      "hit": false,
      "t": 144505.56166874964,
      "d": 424.9892687500105,
      "v": 77
    },
    {
      "midi": 59,
      "hit": false,
      "t": 144505.56166874964,
      "d": 424.9892687500105,
      "v": 77
    },
    {
      "midi": 63,
      "hit": false,
      "t": 144505.56166874964,
      "d": 424.9892687500105,
      "v": 77
    },
    {
      "midi": 69,
      "hit": false,
      "t": 144933.18244999964,
      "d": 89.47142499999609,
      "v": 67
    },
    {
      "midi": 66,
      "hit": false,
      "t": 144943.70849999963,
      "d": 1113.1297875000164,
      "v": 77
    },
    {
      "midi": 42,
      "hit": false,
      "t": 144943.70849999963,
      "d": 1128.9188625000243,
      "v": 77
    },
    {
      "midi": 61,
      "hit": false,
      "t": 144943.70849999963,
      "d": 1128.9188625000243,
      "v": 77
    },
    {
      "midi": 70,
      "hit": false,
      "t": 144989.75996874963,
      "d": 974.9753812500276,
      "v": 81
    },
    {
      "midi": 58,
      "hit": false,
      "t": 145575.27149999983,
      "d": 1257.8629749999964,
      "v": 1
    },
    {
      "midi": 66,
      "hit": false,
      "t": 145575.27149999983,
      "d": 1257.8629749999964,
      "v": 1
    },
    {
      "midi": 61,
      "hit": false,
      "t": 145575.27149999983,
      "d": 2520.9889749999857,
      "v": 1
    },
    {
      "midi": 70,
      "hit": false,
      "t": 146071.31160624966,
      "d": 96.05020624998724,
      "v": 81
    },
    {
      "midi": 66,
      "hit": false,
      "t": 146081.83765624964,
      "d": 109.20776874999865,
      "v": 81
    },
    {
      "midi": 61,
      "hit": false,
      "t": 146206.83449999965,
      "d": 122.36533125001006,
      "v": 90
    },
    {
      "midi": 66,
      "hit": false,
      "t": 146209.46601249964,
      "d": 119.7338187500136,
      "v": 81
    },
    {
      "midi": 61,
      "hit": false,
      "t": 146522.61599999966,
      "d": 461.8304437499901,
      "v": 87
    },
    {
      "midi": 64,
      "hit": false,
      "t": 146522.61599999966,
      "d": 497.3558625000005,
      "v": 77
    },
    {
      "midi": 69,
      "hit": false,
      "t": 146522.61599999966,
      "d": 497.3558625000005,
      "v": 77
    },
    {
      "midi": 64,
      "hit": false,
      "t": 147031.81366874967,
      "d": 396.04263124999125,
      "v": 77
    },
    {
      "midi": 61,
      "hit": false,
      "t": 147031.81366874967,
      "d": 424.9892687499814,
      "v": 89
    },
    {
      "midi": 69,
      "hit": false,
      "t": 147031.81366874967,
      "d": 424.9892687499814,
      "v": 77
    },
    {
      "midi": 66,
      "hit": false,
      "t": 147469.96049999967,
      "d": 76.31386249998468,
      "v": 76
    },
    {
      "midi": 59,
      "hit": false,
      "t": 147469.96049999967,
      "d": 586.8272874999966,
      "v": 77
    },
    {
      "midi": 64,
      "hit": false,
      "t": 147469.96049999967,
      "d": 586.8272874999966,
      "v": 77
    },
    {
      "midi": 52,
      "hit": false,
      "t": 147469.96049999967,
      "d": 1501.2778812499892,
      "v": 88
    },
    {
      "midi": 56,
      "hit": false,
      "t": 147469.9604999998,
      "d": 626.2999750000017,
      "v": 1
    },
    {
      "midi": 68,
      "hit": false,
      "t": 147522.59074999965,
      "d": 567.0909437500231,
      "v": 88
    },
    {
      "midi": 64,
      "hit": false,
      "t": 148097.57623124967,
      "d": 161.83801875001518,
      "v": 86
    },
    {
      "midi": 59,
      "hit": false,
      "t": 148101.52349999966,
      "d": 211.83675625003525,
      "v": 93
    },
    {
      "midi": 59,
      "hit": false,
      "t": 148101.5234999998,
      "d": 310.51847499998985,
      "v": 1
    },
    {
      "midi": 66,
      "hit": false,
      "t": 148101.5234999998,
      "d": 310.51847499998985,
      "v": 1
    },
    {
      "midi": 68,
      "hit": false,
      "t": 148117.31257499967,
      "d": 178.94285000002128,
      "v": 92
    },
    {
      "midi": 61,
      "hit": false,
      "t": 148417.3049999998,
      "d": 310.51847499998985,
      "v": 1
    },
    {
      "midi": 64,
      "hit": false,
      "t": 148417.3049999998,
      "d": 310.51847499998985,
      "v": 1
    },
    {
      "midi": 68,
      "hit": false,
      "t": 148417.3049999998,
      "d": 310.51847499998985,
      "v": 1
    },
    {
      "midi": 68,
      "hit": false,
      "t": 148439.6728562497,
      "d": 148.68045624997467,
      "v": 88
    },
    {
      "midi": 64,
      "hit": false,
      "t": 148443.6201249997,
      "d": 152.62772499996936,
      "v": 93
    },
    {
      "midi": 59,
      "hit": false,
      "t": 148450.1989062497,
      "d": 135.52289374999236,
      "v": 102
    },
    {
      "midi": 61,
      "hit": false,
      "t": 148610.72116874967,
      "d": 132.8913812499668,
      "v": 76
    },
    {
      "midi": 66,
      "hit": false,
      "t": 148640.98356249966,
      "d": 93.41869374999078,
      "v": 76
    },
    {
      "midi": 64,
      "hit": false,
      "t": 148733.08649999966,
      "d": 178.94284999999218,
      "v": 80
    },
    {
      "midi": 59,
      "hit": false,
      "t": 148733.08649999977,
      "d": 1257.8629749999964,
      "v": 1
    },
    {
      "midi": 63,
      "hit": false,
      "t": 148733.08649999977,
      "d": 1257.8629749999964,
      "v": 1
    },
    {
      "midi": 66,
      "hit": false,
      "t": 148733.08649999977,
      "d": 3784.114974999975,
      "v": 1
    },
    {
      "midi": 59,
      "hit": false,
      "t": 148748.87557499963,
      "d": 221.04705000002286,
      "v": 99
    },
    {
      "midi": 68,
      "hit": false,
      "t": 148762.03313749965,
      "d": 240.78339374999632,
      "v": 68
    },
    {
      "midi": 47,
      "hit": false,
      "t": 149048.86799999964,
      "d": 435.51531874999637,
      "v": 77
    },
    {
      "midi": 54,
      "hit": false,
      "t": 149048.86799999964,
      "d": 497.3558625000005,
      "v": 77
    },
    {
      "midi": 59,
      "hit": false,
      "t": 149048.86799999964,
      "d": 497.3558625000005,
      "v": 77
    },
    {
      "midi": 63,
      "hit": false,
      "t": 149048.86799999964,
      "d": 497.3558625000005,
      "v": 77
    },
    {
      "midi": 47,
      "hit": false,
      "t": 149522.54024999964,
      "d": 461.8304437500192,
      "v": 77
    },
    {
      "midi": 54,
      "hit": false,
      "t": 149558.06566874965,
      "d": 424.9892687500105,
      "v": 77
    },
    {
      "midi": 59,
      "hit": false,
      "t": 149558.06566874965,
      "d": 424.9892687500105,
      "v": 77
    },
    {
      "midi": 63,
      "hit": false,
      "t": 149558.06566874965,
      "d": 424.9892687500105,
      "v": 77
    },
    {
      "midi": 69,
      "hit": false,
      "t": 149985.68644999966,
      "d": 89.47142499999609,
      "v": 67
    },
    {
      "midi": 42,
      "hit": false,
      "t": 149996.21249999964,
      "d": 935.5026937500224,
      "v": 77
    },
    {
      "midi": 66,
      "hit": false,
      "t": 149996.21249999964,
      "d": 935.5026937500224,
      "v": 77
    },
    {
      "midi": 61,
      "hit": false,
      "t": 149996.21249999964,
      "d": 1251.2841937500343,
      "v": 77
    },
    {
      "midi": 70,
      "hit": false,
      "t": 149996.21249999976,
      "d": 626.2999750000017,
      "v": 1
    },
    {
      "midi": 61,
      "hit": false,
      "t": 149996.21249999976,
      "d": 1889.425974999991,
      "v": 1
    },
    {
      "midi": 70,
      "hit": false,
      "t": 150042.26396874964,
      "d": 889.4512250000262,
      "v": 81
    },
    {
      "midi": 58,
      "hit": false,
      "t": 150627.77549999976,
      "d": 1257.8629749999964,
      "v": 1
    },
    {
      "midi": 68,
      "hit": false,
      "t": 150943.55699999968,
      "d": 198.67919374999474,
      "v": 78
    },
    {
      "midi": 70,
      "hit": false,
      "t": 151104.07926249967,
      "d": 247.36217500001658,
      "v": 78
    },
    {
      "midi": 66,
      "hit": false,
      "t": 151261.9700124997,
      "d": 194.73192500000005,
      "v": 78
    },
    {
      "midi": 61,
      "hit": false,
      "t": 151417.22924999968,
      "d": 619.7211937499815,
      "v": 82
    },
    {
      "midi": 62,
      "hit": false,
      "t": 151575.11999999968,
      "d": 497.3558625000005,
      "v": 77
    },
    {
      "midi": 66,
      "hit": false,
      "t": 151575.11999999968,
      "d": 497.3558625000005,
      "v": 77
    },
    {
      "midi": 69,
      "hit": false,
      "t": 151575.11999999968,
      "d": 497.3558625000005,
      "v": 77
    },
    {
      "midi": 50,
      "hit": false,
      "t": 151581.69878124967,
      "d": 448.6728812500078,
      "v": 86
    },
    {
      "midi": 62,
      "hit": false,
      "t": 151890.90149999975,
      "d": 626.2999750000017,
      "v": 1
    },
    {
      "midi": 69,
      "hit": false,
      "t": 151890.90149999975,
      "d": 626.2999750000017,
      "v": 1
    },
    {
      "midi": 61,
      "hit": false,
      "t": 152084.3176687497,
      "d": 267.09851874999003,
      "v": 77
    },
    {
      "midi": 62,
      "hit": false,
      "t": 152084.3176687497,
      "d": 267.09851874999003,
      "v": 77
    },
    {
      "midi": 66,
      "hit": false,
      "t": 152084.3176687497,
      "d": 267.09851874999003,
      "v": 77
    },
    {
      "midi": 69,
      "hit": false,
      "t": 152084.3176687497,
      "d": 267.09851874999003,
      "v": 77
    },
    {
      "midi": 50,
      "hit": false,
      "t": 152108.0012812497,
      "d": 398.6741437499877,
      "v": 86
    },
    {
      "midi": 68,
      "hit": false,
      "t": 152522.46449999968,
      "d": 892.0827374999935,
      "v": 77
    },
    {
      "midi": 66,
      "hit": false,
      "t": 152522.46449999968,
      "d": 935.5026937499933,
      "v": 77
    },
    {
      "midi": 64,
      "hit": false,
      "t": 152522.46449999968,
      "d": 1093.3934437500138,
      "v": 77
    },
    {
      "midi": 49,
      "hit": false,
      "t": 152522.46449999968,
      "d": 1303.9144437500217,
      "v": 76
    },
    {
      "midi": 59,
      "hit": false,
      "t": 152522.46449999968,
      "d": 1567.065693750017,
      "v": 77
    },
    {
      "midi": 61,
      "hit": false,
      "t": 152522.46449999968,
      "d": 1567.065693750017,
      "v": 77
    },
    {
      "midi": 59,
      "hit": false,
      "t": 152522.46449999974,
      "d": 310.51847499998985,
      "v": 1
    },
    {
      "midi": 63,
      "hit": false,
      "t": 152522.46449999974,
      "d": 310.51847499998985,
      "v": 1
    },
    {
      "midi": 64,
      "hit": false,
      "t": 152838.24599999972,
      "d": 626.2999750000017,
      "v": 1
    },
    {
      "midi": 68,
      "hit": false,
      "t": 152838.24599999972,
      "d": 626.2999750000017,
      "v": 1
    },
    {
      "midi": 61,
      "hit": false,
      "t": 152838.24599999972,
      "d": 1257.8629750000255,
      "v": 1
    },
    {
      "midi": 68,
      "hit": false,
      "t": 153469.8089999997,
      "d": 159.20650625001872,
      "v": 81
    },
    {
      "midi": 66,
      "hit": false,
      "t": 153469.80899999972,
      "d": 299.992425000004,
      "v": 1
    },
    {
      "midi": 59,
      "hit": false,
      "t": 153469.80899999972,
      "d": 330.2548187500215,
      "v": 1
    },
    {
      "midi": 66,
      "hit": false,
      "t": 153636.9100437497,
      "d": 102.6289875000075,
      "v": 73
    },
    {
      "midi": 64,
      "hit": false,
      "t": 153768.4856687497,
      "d": 168.41680000000633,
      "v": 84
    },
    {
      "midi": 56,
      "hit": false,
      "t": 153785.59049999973,
      "d": 310.51847500001895,
      "v": 1
    },
    {
      "midi": 64,
      "hit": false,
      "t": 153785.59049999973,
      "d": 310.51847500001895,
      "v": 1
    },
    {
      "midi": 59,
      "hit": false,
      "t": 154114.5295624997,
      "d": 878.9251749999821,
      "v": 88
    },
    {
      "midi": 61,
      "hit": false,
      "t": 154114.5295624997,
      "d": 878.9251749999821,
      "v": 48
    },
    {
      "midi": 63,
      "hit": false,
      "t": 154117.1610749997,
      "d": 869.7148812499945,
      "v": 64
    },
    {
      "midi": 54,
      "hit": false,
      "t": 154121.10834374969,
      "d": 852.6100499999884,
      "v": 62
    },
    {
      "midi": 68,
      "hit": false,
      "t": 155028.9801562497,
      "d": 115.7865500000189,
      "v": 68
    },
    {
      "midi": 66,
      "hit": false,
      "t": 155048.7164999997,
      "d": 1411.8064562500222,
      "v": 76
    },
    {
      "midi": 61,
      "hit": false,
      "t": 155057.92679374968,
      "d": 1428.9112875000283,
      "v": 81
    },
    {
      "midi": 63,
      "hit": false,
      "t": 155071.0843562497,
      "d": 1415.7537250000169,
      "v": 77
    },
    {
      "midi": 70,
      "hit": false,
      "t": 155103.9782624997,
      "d": 1411.806456249993,
      "v": 80
    },
    {
      "midi": 65,
      "hit": false,
      "t": 156627.6239999997,
      "d": 852.6100500000175,
      "v": 70
    },
    {
      "midi": 70,
      "hit": false,
      "t": 156660.5179062497,
      "d": 849.978537499992,
      "v": 73
    },
    {
      "midi": 66,
      "hit": false,
      "t": 156663.1494187497,
      "d": 849.978537499992,
      "v": 77
    },
    {
      "midi": 70,
      "hit": false,
      "t": 157574.9684999997,
      "d": 549.9861124999879,
      "v": 70
    },
    {
      "midi": 63,
      "hit": false,
      "t": 157581.5472812497,
      "d": 553.9333812499826,
      "v": 68
    },
    {
      "midi": 66,
      "hit": false,
      "t": 157588.12606249968,
      "d": 547.3545999999915,
      "v": 76
    },
    {
      "midi": 66,
      "hit": false,
      "t": 158222.32057499967,
      "d": 556.5648937499791,
      "v": 73
    },
    {
      "midi": 61,
      "hit": false,
      "t": 158228.89935624966,
      "d": 536.8285500000056,
      "v": 88
    },
    {
      "midi": 58,
      "hit": false,
      "t": 158228.89935624966,
      "d": 543.4073312499968,
      "v": 70
    },
    {
      "midi": 63,
      "hit": false,
      "t": 158840.72601249965,
      "d": 1161.81276874998,
      "v": 78
    },
    {
      "midi": 59,
      "hit": false,
      "t": 158844.67328124965,
      "d": 1155.2339874999889,
      "v": 72
    },
    {
      "midi": 54,
      "hit": false,
      "t": 158851.25206249964,
      "d": 1139.44491250001,
      "v": 68
    },
    {
      "midi": 71,
      "hit": false,
      "t": 159502.55140624964,
      "d": 602.6163625000045,
      "v": 87
    },
    {
      "midi": 56,
      "hit": false,
      "t": 160107.79928124964,
      "d": 1194.706674999994,
      "v": 81
    },
    {
      "midi": 61,
      "hit": false,
      "t": 160107.79928124964,
      "d": 1198.6539437499887,
      "v": 68
    },
    {
      "midi": 53,
      "hit": false,
      "t": 160114.37806249963,
      "d": 1198.6539437499887,
      "v": 78
    },
    {
      "midi": 73,
      "hit": false,
      "t": 160759.09862499963,
      "d": 580.2485062499763,
      "v": 85
    },
    {
      "midi": 62,
      "hit": false,
      "t": 161380.13557499961,
      "d": 1093.3934437499847,
      "v": 84
    },
    {
      "midi": 57,
      "hit": false,
      "t": 161384.0828437496,
      "d": 1049.973487499985,
      "v": 82
    },
    {
      "midi": 54,
      "hit": false,
      "t": 161386.7143562496,
      "d": 1047.3419749999885,
      "v": 68
    },
    {
      "midi": 56,
      "hit": false,
      "t": 162636.6827937496,
      "d": 4082.79164375001,
      "v": 73
    },
    {
      "midi": 59,
      "hit": false,
      "t": 162640.6300624996,
      "d": 4080.1601312500134,
      "v": 77
    },
    {
      "midi": 64,
      "hit": false,
      "t": 162640.6300624996,
      "d": 4080.1601312500134,
      "v": 88
    },
    {
      "midi": 68,
      "hit": false,
      "t": 165445.82238749962,
      "d": 43.419956249999814,
      "v": 75
    },
    {
      "midi": 70,
      "hit": false,
      "t": 165478.71629374963,
      "d": 67.10356874996796,
      "v": 76
    },
    {
      "midi": 71,
      "hit": false,
      "t": 165541.8725937496,
      "d": 56.57751874998212,
      "v": 84
    },
    {
      "midi": 73,
      "hit": false,
      "t": 165590.5555749996,
      "d": 60.52478749997681,
      "v": 84
    },
    {
      "midi": 75,
      "hit": false,
      "t": 165643.1858249996,
      "d": 60.52478749997681,
      "v": 85
    },
    {
      "midi": 76,
      "hit": false,
      "t": 165695.81607499957,
      "d": 63.15629999997327,
      "v": 84
    },
    {
      "midi": 78,
      "hit": false,
      "t": 165752.39359374956,
      "d": 76.31386250001378,
      "v": 85
    },
    {
      "midi": 80,
      "hit": false,
      "t": 165814.23413749956,
      "d": 82.89264375003404,
      "v": 82
    },
    {
      "midi": 83,
      "hit": false,
      "t": 165883.96921874958,
      "d": 93.41869375001988,
      "v": 78
    },
    {
      "midi": 85,
      "hit": false,
      "t": 165962.9145937496,
      "d": 93.41869375001988,
      "v": 71
    },
    {
      "midi": 87,
      "hit": false,
      "t": 166044.4914812496,
      "d": 67.10356875002617,
      "v": 66
    },
    {
      "midi": 47,
      "hit": false,
      "t": 166732.63199999963,
      "d": 435.51531874999637,
      "v": 77
    },
    {
      "midi": 54,
      "hit": false,
      "t": 166732.63199999963,
      "d": 497.3558625000005,
      "v": 77
    },
    {
      "midi": 59,
      "hit": false,
      "t": 166732.63199999963,
      "d": 497.3558625000005,
      "v": 77
    },
    {
      "midi": 63,
      "hit": false,
      "t": 166732.63199999963,
      "d": 497.3558625000005,
      "v": 77
    },
    {
      "midi": 66,
      "hit": false,
      "t": 167048.41349999973,
      "d": 784.1907249999931,
      "v": 1
    },
    {
      "midi": 63,
      "hit": false,
      "t": 167048.41349999973,
      "d": 942.0814749999845,
      "v": 1
    },
    {
      "midi": 47,
      "hit": false,
      "t": 167206.30424999964,
      "d": 461.8304437500192,
      "v": 77
    },
    {
      "midi": 54,
      "hit": false,
      "t": 167241.82966874965,
      "d": 424.9892687500105,
      "v": 77
    },
    {
      "midi": 59,
      "hit": false,
      "t": 167241.82966874965,
      "d": 424.9892687500105,
      "v": 77
    },
    {
      "midi": 63,
      "hit": false,
      "t": 167241.82966874965,
      "d": 424.9892687500105,
      "v": 77
    },
    {
      "midi": 69,
      "hit": false,
      "t": 167669.45044999965,
      "d": 89.47142499999609,
      "v": 67
    },
    {
      "midi": 66,
      "hit": false,
      "t": 167679.97649999964,
      "d": 1113.1297875000164,
      "v": 77
    },
    {
      "midi": 42,
      "hit": false,
      "t": 167679.97649999964,
      "d": 1128.9188625000243,
      "v": 77
    },
    {
      "midi": 61,
      "hit": false,
      "t": 167679.97649999964,
      "d": 1128.9188625000243,
      "v": 77
    },
    {
      "midi": 70,
      "hit": false,
      "t": 167726.02796874964,
      "d": 974.9753812500276,
      "v": 81
    },
    {
      "midi": 59,
      "hit": false,
      "t": 167837.86724999972,
      "d": 152.62772499999846,
      "v": 1
    },
    {
      "midi": 61,
      "hit": false,
      "t": 167995.7579999997,
      "d": 626.2999750000017,
      "v": 1
    },
    {
      "midi": 66,
      "hit": false,
      "t": 167995.7579999997,
      "d": 626.2999750000017,
      "v": 1
    },
    {
      "midi": 63,
      "hit": false,
      "t": 168627.3209999997,
      "d": 310.51847499998985,
      "v": 1
    },
    {
      "midi": 68,
      "hit": false,
      "t": 168627.3209999997,
      "d": 323.67603749997215,
      "v": 1
    },
    {
      "midi": 70,
      "hit": false,
      "t": 168807.57960624967,
      "d": 96.05020624998724,
      "v": 81
    },
    {
      "midi": 66,
      "hit": false,
      "t": 168818.10565624965,
      "d": 109.20776874999865,
      "v": 81
    },
    {
      "midi": 61,
      "hit": false,
      "t": 168943.10249999966,
      "d": 122.36533125001006,
      "v": 90
    },
    {
      "midi": 61,
      "hit": false,
      "t": 168943.1024999997,
      "d": 1415.7537249999878,
      "v": 1
    },
    {
      "midi": 66,
      "hit": false,
      "t": 168943.1024999997,
      "d": 1415.7537249999878,
      "v": 1
    },
    {
      "midi": 66,
      "hit": false,
      "t": 168945.73401249966,
      "d": 119.7338187500136,
      "v": 81
    },
    {
      "midi": 61,
      "hit": false,
      "t": 169258.88399999967,
      "d": 461.8304437499901,
      "v": 87
    },
    {
      "midi": 64,
      "hit": false,
      "t": 169258.88399999967,
      "d": 497.3558625000005,
      "v": 77
    },
    {
      "midi": 69,
      "hit": false,
      "t": 169258.88399999967,
      "d": 497.3558625000005,
      "v": 77
    },
    {
      "midi": 64,
      "hit": false,
      "t": 169768.08166874968,
      "d": 396.04263124999125,
      "v": 77
    },
    {
      "midi": 61,
      "hit": false,
      "t": 169768.08166874968,
      "d": 424.9892687499814,
      "v": 89
    },
    {
      "midi": 69,
      "hit": false,
      "t": 169768.08166874968,
      "d": 424.9892687499814,
      "v": 77
    },
    {
      "midi": 66,
      "hit": false,
      "t": 170206.22849999968,
      "d": 76.31386249998468,
      "v": 76
    },
    {
      "midi": 59,
      "hit": false,
      "t": 170206.22849999968,
      "d": 586.8272874999966,
      "v": 77
    },
    {
      "midi": 64,
      "hit": false,
      "t": 170206.22849999968,
      "d": 586.8272874999966,
      "v": 77
    },
    {
      "midi": 52,
      "hit": false,
      "t": 170206.22849999968,
      "d": 1501.2778812499892,
      "v": 88
    },
    {
      "midi": 68,
      "hit": false,
      "t": 170258.85874999966,
      "d": 567.0909437500231,
      "v": 88
    },
    {
      "midi": 63,
      "hit": false,
      "t": 170364.11924999967,
      "d": 152.62772499999846,
      "v": 1
    },
    {
      "midi": 68,
      "hit": false,
      "t": 170364.11924999967,
      "d": 152.62772499999846,
      "v": 1
    },
    {
      "midi": 61,
      "hit": false,
      "t": 170522.00999999966,
      "d": 310.51847499998985,
      "v": 1
    },
    {
      "midi": 66,
      "hit": false,
      "t": 170522.00999999966,
      "d": 310.51847499998985,
      "v": 1
    },
    {
      "midi": 64,
      "hit": false,
      "t": 170833.84423124968,
      "d": 161.83801875001518,
      "v": 86
    },
    {
      "midi": 59,
      "hit": false,
      "t": 170837.79149999964,
      "d": 468.40922500001034,
      "v": 1
    },
    {
      "midi": 64,
      "hit": false,
      "t": 170837.79149999964,
      "d": 468.40922500001034,
      "v": 1
    },
    {
      "midi": 59,
      "hit": false,
      "t": 170837.79149999967,
      "d": 211.83675625003525,
      "v": 93
    },
    {
      "midi": 68,
      "hit": false,
      "t": 170853.58057499968,
      "d": 178.94285000002128,
      "v": 92
    },
    {
      "midi": 68,
      "hit": false,
      "t": 171175.9408562497,
      "d": 148.68045624997467,
      "v": 88
    },
    {
      "midi": 64,
      "hit": false,
      "t": 171179.8881249997,
      "d": 152.62772499996936,
      "v": 93
    },
    {
      "midi": 59,
      "hit": false,
      "t": 171186.4669062497,
      "d": 135.52289374999236,
      "v": 102
    },
    {
      "midi": 61,
      "hit": false,
      "t": 171311.46374999965,
      "d": 122.36533125001006,
      "v": 1
    },
    {
      "midi": 56,
      "hit": false,
      "t": 171311.46374999965,
      "d": 159.20650625001872,
      "v": 1
    },
    {
      "midi": 61,
      "hit": false,
      "t": 171346.9891687497,
      "d": 132.8913812499668,
      "v": 76
    },
    {
      "midi": 66,
      "hit": false,
      "t": 171377.25156249967,
      "d": 93.41869374999078,
      "v": 76
    },
    {
      "midi": 64,
      "hit": false,
      "t": 171469.35449999967,
      "d": 178.94284999999218,
      "v": 80
    },
    {
      "midi": 54,
      "hit": false,
      "t": 171469.35449999967,
      "d": 626.2999750000017,
      "v": 1
    },
    {
      "midi": 59,
      "hit": false,
      "t": 171469.35449999967,
      "d": 626.2999750000017,
      "v": 1
    },
    {
      "midi": 59,
      "hit": false,
      "t": 171485.14357499965,
      "d": 221.04705000002286,
      "v": 99
    },
    {
      "midi": 68,
      "hit": false,
      "t": 171498.30113749966,
      "d": 240.78339374999632,
      "v": 68
    },
    {
      "midi": 47,
      "hit": false,
      "t": 171785.13599999965,
      "d": 435.51531874999637,
      "v": 77
    },
    {
      "midi": 54,
      "hit": false,
      "t": 171785.13599999965,
      "d": 497.3558625000005,
      "v": 77
    },
    {
      "midi": 59,
      "hit": false,
      "t": 171785.13599999965,
      "d": 497.3558625000005,
      "v": 77
    },
    {
      "midi": 63,
      "hit": false,
      "t": 171785.13599999965,
      "d": 497.3558625000005,
      "v": 77
    },
    {
      "midi": 66,
      "hit": false,
      "t": 172100.91749999966,
      "d": 784.1907249999931,
      "v": 1
    },
    {
      "midi": 63,
      "hit": false,
      "t": 172100.91749999966,
      "d": 942.0814749999845,
      "v": 1
    },
    {
      "midi": 47,
      "hit": false,
      "t": 172258.80824999965,
      "d": 461.8304437500192,
      "v": 77
    },
    {
      "midi": 54,
      "hit": false,
      "t": 172294.33366874966,
      "d": 424.9892687500105,
      "v": 77
    },
    {
      "midi": 59,
      "hit": false,
      "t": 172294.33366874966,
      "d": 424.9892687500105,
      "v": 77
    },
    {
      "midi": 63,
      "hit": false,
      "t": 172294.33366874966,
      "d": 424.9892687500105,
      "v": 77
    },
    {
      "midi": 69,
      "hit": false,
      "t": 172721.95444999967,
      "d": 89.47142499999609,
      "v": 67
    },
    {
      "midi": 42,
      "hit": false,
      "t": 172732.48049999966,
      "d": 935.5026937500224,
      "v": 77
    },
    {
      "midi": 66,
      "hit": false,
      "t": 172732.48049999966,
      "d": 935.5026937500224,
      "v": 77
    },
    {
      "midi": 61,
      "hit": false,
      "t": 172732.48049999966,
      "d": 1251.2841937500343,
      "v": 77
    },
    {
      "midi": 70,
      "hit": false,
      "t": 172778.53196874965,
      "d": 889.4512250000262,
      "v": 81
    },
    {
      "midi": 59,
      "hit": false,
      "t": 172890.37124999965,
      "d": 152.62772499999846,
      "v": 1
    },
    {
      "midi": 61,
      "hit": false,
      "t": 173048.26199999964,
      "d": 626.2999750000017,
      "v": 1
    },
    {
      "midi": 66,
      "hit": false,
      "t": 173048.26199999964,
      "d": 626.2999750000017,
      "v": 1
    },
    {
      "midi": 63,
      "hit": false,
      "t": 173679.82499999963,
      "d": 310.51847499998985,
      "v": 1
    },
    {
      "midi": 68,
      "hit": false,
      "t": 173679.82499999963,
      "d": 323.67603749997215,
      "v": 1
    },
    {
      "midi": 68,
      "hit": false,
      "t": 173679.8249999997,
      "d": 198.67919374999474,
      "v": 78
    },
    {
      "midi": 70,
      "hit": false,
      "t": 173840.34726249968,
      "d": 247.36217500001658,
      "v": 78
    },
    {
      "midi": 61,
      "hit": false,
      "t": 173995.60649999962,
      "d": 1415.7537249999878,
      "v": 1
    },
    {
      "midi": 66,
      "hit": false,
      "t": 173995.60649999962,
      "d": 1415.7537249999878,
      "v": 1
    },
    {
      "midi": 66,
      "hit": false,
      "t": 173998.2380124997,
      "d": 194.73192500000005,
      "v": 78
    },
    {
      "midi": 61,
      "hit": false,
      "t": 174153.4972499997,
      "d": 619.7211937499815,
      "v": 82
    },
    {
      "midi": 62,
      "hit": false,
      "t": 174311.3879999997,
      "d": 497.3558625000005,
      "v": 77
    },
    {
      "midi": 66,
      "hit": false,
      "t": 174311.3879999997,
      "d": 497.3558625000005,
      "v": 77
    },
    {
      "midi": 69,
      "hit": false,
      "t": 174311.3879999997,
      "d": 497.3558625000005,
      "v": 77
    },
    {
      "midi": 50,
      "hit": false,
      "t": 174317.96678124968,
      "d": 448.6728812500078,
      "v": 86
    },
    {
      "midi": 61,
      "hit": false,
      "t": 174820.5856687497,
      "d": 267.09851874999003,
      "v": 77
    },
    {
      "midi": 62,
      "hit": false,
      "t": 174820.5856687497,
      "d": 267.09851874999003,
      "v": 77
    },
    {
      "midi": 66,
      "hit": false,
      "t": 174820.5856687497,
      "d": 267.09851874999003,
      "v": 77
    },
    {
      "midi": 69,
      "hit": false,
      "t": 174820.5856687497,
      "d": 267.09851874999003,
      "v": 77
    },
    {
      "midi": 50,
      "hit": false,
      "t": 174844.2692812497,
      "d": 398.6741437499877,
      "v": 86
    },
    {
      "midi": 68,
      "hit": false,
      "t": 175258.7324999997,
      "d": 892.0827374999935,
      "v": 77
    },
    {
      "midi": 66,
      "hit": false,
      "t": 175258.7324999997,
      "d": 935.5026937499933,
      "v": 77
    },
    {
      "midi": 64,
      "hit": false,
      "t": 175258.7324999997,
      "d": 1093.3934437500138,
      "v": 77
    },
    {
      "midi": 49,
      "hit": false,
      "t": 175258.7324999997,
      "d": 1303.9144437500217,
      "v": 76
    },
    {
      "midi": 59,
      "hit": false,
      "t": 175258.7324999997,
      "d": 1567.065693750017,
      "v": 77
    },
    {
      "midi": 61,
      "hit": false,
      "t": 175258.7324999997,
      "d": 1567.065693750017,
      "v": 77
    },
    {
      "midi": 63,
      "hit": false,
      "t": 175416.6232499996,
      "d": 152.62772499999846,
      "v": 1
    },
    {
      "midi": 68,
      "hit": false,
      "t": 175416.6232499996,
      "d": 152.62772499999846,
      "v": 1
    },
    {
      "midi": 61,
      "hit": false,
      "t": 175574.5139999996,
      "d": 310.51847499998985,
      "v": 1
    },
    {
      "midi": 66,
      "hit": false,
      "t": 175574.5139999996,
      "d": 310.51847499998985,
      "v": 1
    },
    {
      "midi": 59,
      "hit": false,
      "t": 175890.29549999957,
      "d": 468.40922500001034,
      "v": 1
    },
    {
      "midi": 64,
      "hit": false,
      "t": 175890.29549999957,
      "d": 468.40922500001034,
      "v": 1
    },
    {
      "midi": 68,
      "hit": false,
      "t": 176206.0769999997,
      "d": 159.20650625001872,
      "v": 81
    },
    {
      "midi": 61,
      "hit": false,
      "t": 176363.96774999957,
      "d": 122.36533125001006,
      "v": 1
    },
    {
      "midi": 56,
      "hit": false,
      "t": 176363.96774999957,
      "d": 159.20650625001872,
      "v": 1
    },
    {
      "midi": 66,
      "hit": false,
      "t": 176373.1780437497,
      "d": 102.6289875000075,
      "v": 73
    },
    {
      "midi": 64,
      "hit": false,
      "t": 176504.7536687497,
      "d": 168.41680000000633,
      "v": 84
    },
    {
      "midi": 54,
      "hit": false,
      "t": 176521.8584999996,
      "d": 626.2999750000017,
      "v": 1
    },
    {
      "midi": 59,
      "hit": false,
      "t": 176521.8584999996,
      "d": 626.2999750000017,
      "v": 1
    },
    {
      "midi": 47,
      "hit": false,
      "t": 176837.63999999972,
      "d": 435.51531874999637,
      "v": 77
    },
    {
      "midi": 54,
      "hit": false,
      "t": 176837.63999999972,
      "d": 497.3558625000005,
      "v": 77
    },
    {
      "midi": 59,
      "hit": false,
      "t": 176837.63999999972,
      "d": 497.3558625000005,
      "v": 77
    },
    {
      "midi": 63,
      "hit": false,
      "t": 176837.63999999972,
      "d": 497.3558625000005,
      "v": 77
    },
    {
      "midi": 66,
      "hit": false,
      "t": 177153.4214999996,
      "d": 784.1907249999931,
      "v": 1
    },
    {
      "midi": 63,
      "hit": false,
      "t": 177153.4214999996,
      "d": 942.0814749999845,
      "v": 1
    },
    {
      "midi": 47,
      "hit": false,
      "t": 177311.31224999973,
      "d": 461.8304437500192,
      "v": 77
    },
    {
      "midi": 54,
      "hit": false,
      "t": 177346.83766874974,
      "d": 424.9892687500105,
      "v": 77
    },
    {
      "midi": 59,
      "hit": false,
      "t": 177346.83766874974,
      "d": 424.9892687500105,
      "v": 77
    },
    {
      "midi": 63,
      "hit": false,
      "t": 177346.83766874974,
      "d": 424.9892687500105,
      "v": 77
    },
    {
      "midi": 69,
      "hit": false,
      "t": 177774.45844999974,
      "d": 89.47142499999609,
      "v": 67
    },
    {
      "midi": 66,
      "hit": false,
      "t": 177784.98449999973,
      "d": 1113.1297875000164,
      "v": 77
    },
    {
      "midi": 42,
      "hit": false,
      "t": 177784.98449999973,
      "d": 1128.9188625000243,
      "v": 77
    },
    {
      "midi": 61,
      "hit": false,
      "t": 177784.98449999973,
      "d": 1128.9188625000243,
      "v": 77
    },
    {
      "midi": 70,
      "hit": false,
      "t": 177831.03596874973,
      "d": 974.9753812500276,
      "v": 81
    },
    {
      "midi": 59,
      "hit": false,
      "t": 177942.87524999958,
      "d": 152.62772499999846,
      "v": 1
    },
    {
      "midi": 61,
      "hit": false,
      "t": 178100.76599999957,
      "d": 626.2999750000017,
      "v": 1
    },
    {
      "midi": 66,
      "hit": false,
      "t": 178100.76599999957,
      "d": 626.2999750000017,
      "v": 1
    },
    {
      "midi": 63,
      "hit": false,
      "t": 178732.32899999956,
      "d": 310.51847499998985,
      "v": 1
    },
    {
      "midi": 68,
      "hit": false,
      "t": 178732.32899999956,
      "d": 323.67603749997215,
      "v": 1
    },
    {
      "midi": 70,
      "hit": false,
      "t": 178912.58760624976,
      "d": 96.05020624998724,
      "v": 81
    },
    {
      "midi": 66,
      "hit": false,
      "t": 178923.11365624974,
      "d": 109.20776874999865,
      "v": 81
    },
    {
      "midi": 61,
      "hit": false,
      "t": 179048.11049999954,
      "d": 1415.7537249999878,
      "v": 1
    },
    {
      "midi": 66,
      "hit": false,
      "t": 179048.11049999954,
      "d": 1415.7537249999878,
      "v": 1
    },
    {
      "midi": 61,
      "hit": false,
      "t": 179048.11049999975,
      "d": 122.36533125001006,
      "v": 90
    },
    {
      "midi": 66,
      "hit": false,
      "t": 179050.74201249974,
      "d": 119.7338187500136,
      "v": 81
    },
    {
      "midi": 61,
      "hit": false,
      "t": 179363.89199999976,
      "d": 461.8304437499901,
      "v": 87
    },
    {
      "midi": 64,
      "hit": false,
      "t": 179363.89199999976,
      "d": 497.3558625000005,
      "v": 77
    },
    {
      "midi": 69,
      "hit": false,
      "t": 179363.89199999976,
      "d": 497.3558625000005,
      "v": 77
    },
    {
      "midi": 64,
      "hit": false,
      "t": 179873.08966874977,
      "d": 396.04263124999125,
      "v": 77
    },
    {
      "midi": 61,
      "hit": false,
      "t": 179873.08966874977,
      "d": 424.9892687499814,
      "v": 89
    },
    {
      "midi": 69,
      "hit": false,
      "t": 179873.08966874977,
      "d": 424.9892687499814,
      "v": 77
    },
    {
      "midi": 66,
      "hit": false,
      "t": 180311.23649999977,
      "d": 76.31386249998468,
      "v": 76
    },
    {
      "midi": 59,
      "hit": false,
      "t": 180311.23649999977,
      "d": 586.8272874999966,
      "v": 77
    },
    {
      "midi": 64,
      "hit": false,
      "t": 180311.23649999977,
      "d": 586.8272874999966,
      "v": 77
    },
    {
      "midi": 52,
      "hit": false,
      "t": 180311.23649999977,
      "d": 1501.2778812499892,
      "v": 88
    },
    {
      "midi": 68,
      "hit": false,
      "t": 180363.86674999975,
      "d": 567.0909437500231,
      "v": 88
    },
    {
      "midi": 63,
      "hit": false,
      "t": 180469.12724999952,
      "d": 152.62772499999846,
      "v": 1
    },
    {
      "midi": 68,
      "hit": false,
      "t": 180469.12724999952,
      "d": 152.62772499999846,
      "v": 1
    },
    {
      "midi": 61,
      "hit": false,
      "t": 180627.01799999952,
      "d": 310.51847499998985,
      "v": 1
    },
    {
      "midi": 66,
      "hit": false,
      "t": 180627.01799999952,
      "d": 310.51847499998985,
      "v": 1
    },
    {
      "midi": 64,
      "hit": false,
      "t": 180938.85223124977,
      "d": 161.83801875001518,
      "v": 86
    },
    {
      "midi": 59,
      "hit": false,
      "t": 180942.7994999995,
      "d": 468.40922500001034,
      "v": 1
    },
    {
      "midi": 64,
      "hit": false,
      "t": 180942.7994999995,
      "d": 468.40922500001034,
      "v": 1
    },
    {
      "midi": 59,
      "hit": false,
      "t": 180942.79949999976,
      "d": 211.83675625003525,
      "v": 93
    },
    {
      "midi": 68,
      "hit": false,
      "t": 180958.58857499977,
      "d": 178.94285000002128,
      "v": 92
    },
    {
      "midi": 68,
      "hit": false,
      "t": 181280.9488562498,
      "d": 148.68045624997467,
      "v": 88
    },
    {
      "midi": 64,
      "hit": false,
      "t": 181284.8961249998,
      "d": 152.62772499996936,
      "v": 93
    },
    {
      "midi": 59,
      "hit": false,
      "t": 181291.4749062498,
      "d": 135.52289374999236,
      "v": 102
    },
    {
      "midi": 61,
      "hit": false,
      "t": 181416.4717499995,
      "d": 122.36533125001006,
      "v": 1
    },
    {
      "midi": 56,
      "hit": false,
      "t": 181416.4717499995,
      "d": 159.20650625001872,
      "v": 1
    },
    {
      "midi": 61,
      "hit": false,
      "t": 181451.99716874977,
      "d": 132.8913812499668,
      "v": 76
    },
    {
      "midi": 66,
      "hit": false,
      "t": 181482.25956249976,
      "d": 93.41869374999078,
      "v": 76
    },
    {
      "midi": 54,
      "hit": false,
      "t": 181574.36249999952,
      "d": 626.2999750000017,
      "v": 1
    },
    {
      "midi": 59,
      "hit": false,
      "t": 181574.36249999952,
      "d": 626.2999750000017,
      "v": 1
    },
    {
      "midi": 64,
      "hit": false,
      "t": 181574.36249999976,
      "d": 178.94284999999218,
      "v": 80
    },
    {
      "midi": 59,
      "hit": false,
      "t": 181590.15157499973,
      "d": 221.04705000002286,
      "v": 99
    },
    {
      "midi": 68,
      "hit": false,
      "t": 181603.30913749975,
      "d": 240.78339374999632,
      "v": 68
    },
    {
      "midi": 47,
      "hit": false,
      "t": 181890.14399999974,
      "d": 435.51531874999637,
      "v": 77
    },
    {
      "midi": 54,
      "hit": false,
      "t": 181890.14399999974,
      "d": 497.3558625000005,
      "v": 77
    },
    {
      "midi": 59,
      "hit": false,
      "t": 181890.14399999974,
      "d": 497.3558625000005,
      "v": 77
    },
    {
      "midi": 63,
      "hit": false,
      "t": 181890.14399999974,
      "d": 497.3558625000005,
      "v": 77
    },
    {
      "midi": 66,
      "hit": false,
      "t": 182205.92549999952,
      "d": 784.1907249999931,
      "v": 1
    },
    {
      "midi": 63,
      "hit": false,
      "t": 182205.92549999952,
      "d": 942.0814749999845,
      "v": 1
    },
    {
      "midi": 47,
      "hit": false,
      "t": 182363.81624999974,
      "d": 461.8304437500192,
      "v": 77
    },
    {
      "midi": 54,
      "hit": false,
      "t": 182399.34166874975,
      "d": 424.9892687500105,
      "v": 77
    },
    {
      "midi": 59,
      "hit": false,
      "t": 182399.34166874975,
      "d": 424.9892687500105,
      "v": 77
    },
    {
      "midi": 63,
      "hit": false,
      "t": 182399.34166874975,
      "d": 424.9892687500105,
      "v": 77
    },
    {
      "midi": 69,
      "hit": false,
      "t": 182826.96244999976,
      "d": 89.47142499999609,
      "v": 67
    },
    {
      "midi": 42,
      "hit": false,
      "t": 182837.48849999974,
      "d": 935.5026937500224,
      "v": 77
    },
    {
      "midi": 66,
      "hit": false,
      "t": 182837.48849999974,
      "d": 935.5026937500224,
      "v": 77
    },
    {
      "midi": 61,
      "hit": false,
      "t": 182837.48849999974,
      "d": 1251.2841937500343,
      "v": 77
    },
    {
      "midi": 70,
      "hit": false,
      "t": 182883.53996874974,
      "d": 889.4512250000262,
      "v": 81
    },
    {
      "midi": 59,
      "hit": false,
      "t": 182995.3792499995,
      "d": 152.62772499999846,
      "v": 1
    },
    {
      "midi": 61,
      "hit": false,
      "t": 183153.2699999995,
      "d": 626.2999750000017,
      "v": 1
    },
    {
      "midi": 66,
      "hit": false,
      "t": 183153.2699999995,
      "d": 626.2999750000017,
      "v": 1
    },
    {
      "midi": 63,
      "hit": false,
      "t": 183784.8329999995,
      "d": 310.51847499998985,
      "v": 1
    },
    {
      "midi": 68,
      "hit": false,
      "t": 183784.8329999995,
      "d": 323.67603749997215,
      "v": 1
    },
    {
      "midi": 68,
      "hit": false,
      "t": 183784.83299999978,
      "d": 198.67919374999474,
      "v": 78
    },
    {
      "midi": 70,
      "hit": false,
      "t": 183945.35526249977,
      "d": 247.36217500001658,
      "v": 78
    },
    {
      "midi": 61,
      "hit": false,
      "t": 184100.61449999947,
      "d": 1415.7537249999878,
      "v": 1
    },
    {
      "midi": 66,
      "hit": false,
      "t": 184100.61449999947,
      "d": 1415.7537249999878,
      "v": 1
    },
    {
      "midi": 66,
      "hit": false,
      "t": 184103.2460124998,
      "d": 194.73192500000005,
      "v": 78
    },
    {
      "midi": 61,
      "hit": false,
      "t": 184258.50524999978,
      "d": 619.7211937499815,
      "v": 82
    },
    {
      "midi": 62,
      "hit": false,
      "t": 184416.39599999978,
      "d": 497.3558625000005,
      "v": 77
    },
    {
      "midi": 66,
      "hit": false,
      "t": 184416.39599999978,
      "d": 497.3558625000005,
      "v": 77
    },
    {
      "midi": 69,
      "hit": false,
      "t": 184416.39599999978,
      "d": 497.3558625000005,
      "v": 77
    },
    {
      "midi": 50,
      "hit": false,
      "t": 184422.97478124977,
      "d": 448.6728812500078,
      "v": 86
    },
    {
      "midi": 61,
      "hit": false,
      "t": 184925.5936687498,
      "d": 267.09851874999003,
      "v": 77
    },
    {
      "midi": 62,
      "hit": false,
      "t": 184925.5936687498,
      "d": 267.09851874999003,
      "v": 77
    },
    {
      "midi": 66,
      "hit": false,
      "t": 184925.5936687498,
      "d": 267.09851874999003,
      "v": 77
    },
    {
      "midi": 69,
      "hit": false,
      "t": 184925.5936687498,
      "d": 267.09851874999003,
      "v": 77
    },
    {
      "midi": 50,
      "hit": false,
      "t": 184949.2772812498,
      "d": 398.6741437499877,
      "v": 86
    },
    {
      "midi": 68,
      "hit": false,
      "t": 185363.74049999978,
      "d": 892.0827374999935,
      "v": 77
    },
    {
      "midi": 66,
      "hit": false,
      "t": 185363.74049999978,
      "d": 935.5026937499933,
      "v": 77
    },
    {
      "midi": 64,
      "hit": false,
      "t": 185363.74049999978,
      "d": 1093.3934437500138,
      "v": 77
    },
    {
      "midi": 49,
      "hit": false,
      "t": 185363.74049999978,
      "d": 1303.9144437500217,
      "v": 76
    },
    {
      "midi": 59,
      "hit": false,
      "t": 185363.74049999978,
      "d": 1567.065693750017,
      "v": 77
    },
    {
      "midi": 61,
      "hit": false,
      "t": 185363.74049999978,
      "d": 1567.065693750017,
      "v": 77
    },
    {
      "midi": 63,
      "hit": false,
      "t": 185521.63124999945,
      "d": 152.62772499999846,
      "v": 1
    },
    {
      "midi": 68,
      "hit": false,
      "t": 185521.63124999945,
      "d": 152.62772499999846,
      "v": 1
    },
    {
      "midi": 61,
      "hit": false,
      "t": 185679.52199999944,
      "d": 310.51847499998985,
      "v": 1
    },
    {
      "midi": 66,
      "hit": false,
      "t": 185679.52199999944,
      "d": 310.51847499998985,
      "v": 1
    },
    {
      "midi": 59,
      "hit": false,
      "t": 185995.30349999943,
      "d": 468.40922500001034,
      "v": 1
    },
    {
      "midi": 64,
      "hit": false,
      "t": 185995.30349999943,
      "d": 468.40922500001034,
      "v": 1
    },
    {
      "midi": 68,
      "hit": false,
      "t": 186311.0849999998,
      "d": 159.20650625001872,
      "v": 81
    },
    {
      "midi": 61,
      "hit": false,
      "t": 186468.97574999943,
      "d": 122.36533125001006,
      "v": 1
    },
    {
      "midi": 56,
      "hit": false,
      "t": 186468.97574999943,
      "d": 159.20650625001872,
      "v": 1
    },
    {
      "midi": 66,
      "hit": false,
      "t": 186478.1860437498,
      "d": 102.6289875000075,
      "v": 73
    },
    {
      "midi": 64,
      "hit": false,
      "t": 186609.7616687498,
      "d": 168.41680000000633,
      "v": 84
    },
    {
      "midi": 54,
      "hit": false,
      "t": 186626.86649999945,
      "d": 626.2999750000017,
      "v": 1
    },
    {
      "midi": 59,
      "hit": false,
      "t": 186626.86649999945,
      "d": 626.2999750000017,
      "v": 1
    },
    {
      "midi": 47,
      "hit": false,
      "t": 186942.6479999998,
      "d": 435.51531874999637,
      "v": 77
    },
    {
      "midi": 54,
      "hit": false,
      "t": 186942.6479999998,
      "d": 497.3558625000005,
      "v": 77
    },
    {
      "midi": 59,
      "hit": false,
      "t": 186942.6479999998,
      "d": 497.3558625000005,
      "v": 77
    },
    {
      "midi": 63,
      "hit": false,
      "t": 186942.6479999998,
      "d": 497.3558625000005,
      "v": 77
    },
    {
      "midi": 66,
      "hit": false,
      "t": 187258.42949999945,
      "d": 784.1907249999931,
      "v": 1
    },
    {
      "midi": 63,
      "hit": false,
      "t": 187258.42949999945,
      "d": 942.0814749999845,
      "v": 1
    },
    {
      "midi": 47,
      "hit": false,
      "t": 187416.32024999982,
      "d": 461.8304437500192,
      "v": 77
    },
    {
      "midi": 54,
      "hit": false,
      "t": 187451.84566874983,
      "d": 424.9892687500105,
      "v": 77
    },
    {
      "midi": 59,
      "hit": false,
      "t": 187451.84566874983,
      "d": 424.9892687500105,
      "v": 77
    },
    {
      "midi": 63,
      "hit": false,
      "t": 187451.84566874983,
      "d": 424.9892687500105,
      "v": 77
    },
    {
      "midi": 69,
      "hit": false,
      "t": 187879.46644999983,
      "d": 89.47142499999609,
      "v": 67
    },
    {
      "midi": 66,
      "hit": false,
      "t": 187889.99249999982,
      "d": 1113.1297875000164,
      "v": 77
    },
    {
      "midi": 42,
      "hit": false,
      "t": 187889.99249999982,
      "d": 1128.9188625000243,
      "v": 77
    },
    {
      "midi": 61,
      "hit": false,
      "t": 187889.99249999982,
      "d": 1128.9188625000243,
      "v": 77
    },
    {
      "midi": 70,
      "hit": false,
      "t": 187936.04396874981,
      "d": 974.9753812500276,
      "v": 81
    },
    {
      "midi": 59,
      "hit": false,
      "t": 188047.88324999943,
      "d": 152.62772499999846,
      "v": 1
    },
    {
      "midi": 61,
      "hit": false,
      "t": 188205.77399999942,
      "d": 626.2999750000017,
      "v": 1
    },
    {
      "midi": 66,
      "hit": false,
      "t": 188205.77399999942,
      "d": 626.2999750000017,
      "v": 1
    },
    {
      "midi": 63,
      "hit": false,
      "t": 188837.33699999942,
      "d": 310.51847499998985,
      "v": 1
    },
    {
      "midi": 68,
      "hit": false,
      "t": 188837.33699999942,
      "d": 323.67603749997215,
      "v": 1
    },
    {
      "midi": 70,
      "hit": false,
      "t": 189017.59560624984,
      "d": 96.05020624998724,
      "v": 81
    },
    {
      "midi": 66,
      "hit": false,
      "t": 189028.12165624983,
      "d": 109.20776874999865,
      "v": 81
    },
    {
      "midi": 61,
      "hit": false,
      "t": 189153.1184999994,
      "d": 1415.7537249999878,
      "v": 1
    },
    {
      "midi": 66,
      "hit": false,
      "t": 189153.1184999994,
      "d": 1415.7537249999878,
      "v": 1
    },
    {
      "midi": 61,
      "hit": false,
      "t": 189153.11849999984,
      "d": 122.36533125001006,
      "v": 90
    },
    {
      "midi": 66,
      "hit": false,
      "t": 189155.75001249983,
      "d": 119.7338187500136,
      "v": 81
    },
    {
      "midi": 61,
      "hit": false,
      "t": 189468.89999999985,
      "d": 461.8304437499901,
      "v": 87
    },
    {
      "midi": 64,
      "hit": false,
      "t": 189468.89999999985,
      "d": 497.3558625000005,
      "v": 77
    },
    {
      "midi": 69,
      "hit": false,
      "t": 189468.89999999985,
      "d": 497.3558625000005,
      "v": 77
    },
    {
      "midi": 64,
      "hit": false,
      "t": 189978.09766874986,
      "d": 396.04263124999125,
      "v": 77
    },
    {
      "midi": 61,
      "hit": false,
      "t": 189978.09766874986,
      "d": 424.9892687499814,
      "v": 89
    },
    {
      "midi": 69,
      "hit": false,
      "t": 189978.09766874986,
      "d": 424.9892687499814,
      "v": 77
    },
    {
      "midi": 66,
      "hit": false,
      "t": 190416.24449999986,
      "d": 76.31386249998468,
      "v": 76
    },
    {
      "midi": 59,
      "hit": false,
      "t": 190416.24449999986,
      "d": 586.8272874999966,
      "v": 77
    },
    {
      "midi": 64,
      "hit": false,
      "t": 190416.24449999986,
      "d": 586.8272874999966,
      "v": 77
    },
    {
      "midi": 52,
      "hit": false,
      "t": 190416.24449999986,
      "d": 1501.2778812499892,
      "v": 88
    },
    {
      "midi": 68,
      "hit": false,
      "t": 190468.87474999984,
      "d": 567.0909437500231,
      "v": 88
    },
    {
      "midi": 63,
      "hit": false,
      "t": 190574.13524999938,
      "d": 152.62772499999846,
      "v": 1
    },
    {
      "midi": 68,
      "hit": false,
      "t": 190574.13524999938,
      "d": 152.62772499999846,
      "v": 1
    },
    {
      "midi": 61,
      "hit": false,
      "t": 190732.02599999937,
      "d": 310.51847499998985,
      "v": 1
    },
    {
      "midi": 66,
      "hit": false,
      "t": 190732.02599999937,
      "d": 310.51847499998985,
      "v": 1
    },
    {
      "midi": 64,
      "hit": false,
      "t": 191043.86023124986,
      "d": 161.83801875001518,
      "v": 86
    },
    {
      "midi": 59,
      "hit": false,
      "t": 191047.80749999936,
      "d": 468.40922500001034,
      "v": 1
    },
    {
      "midi": 64,
      "hit": false,
      "t": 191047.80749999936,
      "d": 468.40922500001034,
      "v": 1
    },
    {
      "midi": 59,
      "hit": false,
      "t": 191047.80749999985,
      "d": 211.83675625003525,
      "v": 93
    },
    {
      "midi": 68,
      "hit": false,
      "t": 191063.59657499986,
      "d": 178.94285000002128,
      "v": 92
    },
    {
      "midi": 68,
      "hit": false,
      "t": 191385.9568562499,
      "d": 148.68045624997467,
      "v": 88
    },
    {
      "midi": 64,
      "hit": false,
      "t": 191389.90412499988,
      "d": 152.62772499996936,
      "v": 93
    },
    {
      "midi": 59,
      "hit": false,
      "t": 191396.48290624988,
      "d": 135.52289374999236,
      "v": 102
    },
    {
      "midi": 61,
      "hit": false,
      "t": 191521.47974999936,
      "d": 122.36533125001006,
      "v": 1
    },
    {
      "midi": 56,
      "hit": false,
      "t": 191521.47974999936,
      "d": 159.20650625001872,
      "v": 1
    },
    {
      "midi": 61,
      "hit": false,
      "t": 191557.00516874986,
      "d": 132.8913812499668,
      "v": 76
    },
    {
      "midi": 66,
      "hit": false,
      "t": 191587.26756249985,
      "d": 93.41869374999078,
      "v": 76
    },
    {
      "midi": 54,
      "hit": false,
      "t": 191679.37049999938,
      "d": 626.2999750000017,
      "v": 1
    },
    {
      "midi": 59,
      "hit": false,
      "t": 191679.37049999938,
      "d": 626.2999750000017,
      "v": 1
    },
    {
      "midi": 64,
      "hit": false,
      "t": 191679.37049999984,
      "d": 178.94284999999218,
      "v": 80
    },
    {
      "midi": 59,
      "hit": false,
      "t": 191695.15957499982,
      "d": 221.04705000002286,
      "v": 99
    },
    {
      "midi": 68,
      "hit": false,
      "t": 191708.31713749983,
      "d": 240.78339374999632,
      "v": 68
    },
    {
      "midi": 47,
      "hit": false,
      "t": 191995.15199999983,
      "d": 435.51531874999637,
      "v": 77
    },
    {
      "midi": 54,
      "hit": false,
      "t": 191995.15199999983,
      "d": 497.3558625000005,
      "v": 77
    },
    {
      "midi": 59,
      "hit": false,
      "t": 191995.15199999983,
      "d": 497.3558625000005,
      "v": 77
    },
    {
      "midi": 63,
      "hit": false,
      "t": 191995.15199999983,
      "d": 497.3558625000005,
      "v": 77
    },
    {
      "midi": 66,
      "hit": false,
      "t": 192310.93349999937,
      "d": 784.1907249999931,
      "v": 1
    },
    {
      "midi": 63,
      "hit": false,
      "t": 192310.93349999937,
      "d": 942.0814749999845,
      "v": 1
    },
    {
      "midi": 47,
      "hit": false,
      "t": 192468.82424999983,
      "d": 461.8304437500192,
      "v": 77
    },
    {
      "midi": 54,
      "hit": false,
      "t": 192504.34966874984,
      "d": 424.9892687500105,
      "v": 77
    },
    {
      "midi": 59,
      "hit": false,
      "t": 192504.34966874984,
      "d": 424.9892687500105,
      "v": 77
    },
    {
      "midi": 63,
      "hit": false,
      "t": 192504.34966874984,
      "d": 424.9892687500105,
      "v": 77
    },
    {
      "midi": 69,
      "hit": false,
      "t": 192931.97044999985,
      "d": 89.47142499999609,
      "v": 67
    },
    {
      "midi": 42,
      "hit": false,
      "t": 192942.49649999983,
      "d": 935.5026937500224,
      "v": 77
    },
    {
      "midi": 66,
      "hit": false,
      "t": 192942.49649999983,
      "d": 935.5026937500224,
      "v": 77
    },
    {
      "midi": 61,
      "hit": false,
      "t": 192942.49649999983,
      "d": 1251.2841937500343,
      "v": 77
    },
    {
      "midi": 70,
      "hit": false,
      "t": 192988.54796874983,
      "d": 889.4512250000262,
      "v": 81
    },
    {
      "midi": 59,
      "hit": false,
      "t": 193100.38724999936,
      "d": 152.62772499999846,
      "v": 1
    },
    {
      "midi": 61,
      "hit": false,
      "t": 193258.27799999935,
      "d": 626.2999750000017,
      "v": 1
    },
    {
      "midi": 66,
      "hit": false,
      "t": 193258.27799999935,
      "d": 626.2999750000017,
      "v": 1
    },
    {
      "midi": 63,
      "hit": false,
      "t": 193889.84099999935,
      "d": 310.51847499998985,
      "v": 1
    },
    {
      "midi": 68,
      "hit": false,
      "t": 193889.84099999935,
      "d": 323.67603749997215,
      "v": 1
    },
    {
      "midi": 68,
      "hit": false,
      "t": 193889.84099999987,
      "d": 198.67919374999474,
      "v": 78
    },
    {
      "midi": 70,
      "hit": false,
      "t": 194050.36326249986,
      "d": 247.36217500001658,
      "v": 78
    },
    {
      "midi": 61,
      "hit": false,
      "t": 194205.62249999933,
      "d": 1415.7537249999878,
      "v": 1
    },
    {
      "midi": 66,
      "hit": false,
      "t": 194205.62249999933,
      "d": 1415.7537249999878,
      "v": 1
    },
    {
      "midi": 66,
      "hit": false,
      "t": 194208.25401249988,
      "d": 194.73192500000005,
      "v": 78
    },
    {
      "midi": 61,
      "hit": false,
      "t": 194363.51324999987,
      "d": 619.7211937499815,
      "v": 82
    },
    {
      "midi": 62,
      "hit": false,
      "t": 194521.40399999986,
      "d": 497.3558625000005,
      "v": 77
    },
    {
      "midi": 66,
      "hit": false,
      "t": 194521.40399999986,
      "d": 497.3558625000005,
      "v": 77
    },
    {
      "midi": 69,
      "hit": false,
      "t": 194521.40399999986,
      "d": 497.3558625000005,
      "v": 77
    },
    {
      "midi": 50,
      "hit": false,
      "t": 194527.98278124986,
      "d": 448.6728812500078,
      "v": 86
    },
    {
      "midi": 61,
      "hit": false,
      "t": 195030.60166874988,
      "d": 267.09851874999003,
      "v": 77
    },
    {
      "midi": 62,
      "hit": false,
      "t": 195030.60166874988,
      "d": 267.09851874999003,
      "v": 77
    },
    {
      "midi": 66,
      "hit": false,
      "t": 195030.60166874988,
      "d": 267.09851874999003,
      "v": 77
    },
    {
      "midi": 69,
      "hit": false,
      "t": 195030.60166874988,
      "d": 267.09851874999003,
      "v": 77
    },
    {
      "midi": 50,
      "hit": false,
      "t": 195054.28528124987,
      "d": 398.6741437499877,
      "v": 86
    },
    {
      "midi": 68,
      "hit": false,
      "t": 195468.74849999987,
      "d": 892.0827374999935,
      "v": 77
    },
    {
      "midi": 66,
      "hit": false,
      "t": 195468.74849999987,
      "d": 935.5026937499933,
      "v": 77
    },
    {
      "midi": 64,
      "hit": false,
      "t": 195468.74849999987,
      "d": 1093.3934437500138,
      "v": 77
    },
    {
      "midi": 49,
      "hit": false,
      "t": 195468.74849999987,
      "d": 1303.9144437500217,
      "v": 76
    },
    {
      "midi": 59,
      "hit": false,
      "t": 195468.74849999987,
      "d": 1567.065693750017,
      "v": 77
    },
    {
      "midi": 61,
      "hit": false,
      "t": 195468.74849999987,
      "d": 1567.065693750017,
      "v": 77
    },
    {
      "midi": 63,
      "hit": false,
      "t": 195626.6392499993,
      "d": 152.62772499999846,
      "v": 1
    },
    {
      "midi": 68,
      "hit": false,
      "t": 195626.6392499993,
      "d": 152.62772499999846,
      "v": 1
    },
    {
      "midi": 61,
      "hit": false,
      "t": 195784.5299999993,
      "d": 310.51847499998985,
      "v": 1
    },
    {
      "midi": 66,
      "hit": false,
      "t": 195784.5299999993,
      "d": 310.51847499998985,
      "v": 1
    },
    {
      "midi": 59,
      "hit": false,
      "t": 196100.31149999928,
      "d": 468.40922500001034,
      "v": 1
    },
    {
      "midi": 64,
      "hit": false,
      "t": 196100.31149999928,
      "d": 468.40922500001034,
      "v": 1
    },
    {
      "midi": 68,
      "hit": false,
      "t": 196416.09299999988,
      "d": 159.20650625001872,
      "v": 81
    },
    {
      "midi": 61,
      "hit": false,
      "t": 196573.9837499993,
      "d": 152.62772499999846,
      "v": 1
    },
    {
      "midi": 56,
      "hit": false,
      "t": 196573.9837499993,
      "d": 159.20650624998962,
      "v": 1
    },
    {
      "midi": 66,
      "hit": false,
      "t": 196583.19404374989,
      "d": 102.6289875000075,
      "v": 73
    },
    {
      "midi": 64,
      "hit": false,
      "t": 196714.76966874988,
      "d": 168.41680000000633,
      "v": 84
    },
    {
      "midi": 54,
      "hit": false,
      "t": 196731.87449999928,
      "d": 626.2999750000017,
      "v": 1
    },
    {
      "midi": 59,
      "hit": false,
      "t": 196731.87449999928,
      "d": 626.2999750000017,
      "v": 1
    },
    {
      "midi": 47,
      "hit": false,
      "t": 197047.6559999999,
      "d": 435.51531874999637,
      "v": 77
    },
    {
      "midi": 54,
      "hit": false,
      "t": 197047.6559999999,
      "d": 497.3558625000005,
      "v": 77
    },
    {
      "midi": 59,
      "hit": false,
      "t": 197047.6559999999,
      "d": 497.3558625000005,
      "v": 77
    },
    {
      "midi": 63,
      "hit": false,
      "t": 197047.6559999999,
      "d": 497.3558625000005,
      "v": 77
    },
    {
      "midi": 66,
      "hit": false,
      "t": 197363.43749999927,
      "d": 626.2999750000017,
      "v": 1
    },
    {
      "midi": 63,
      "hit": false,
      "t": 197363.43749999927,
      "d": 942.0814749999845,
      "v": 1
    },
    {
      "midi": 47,
      "hit": false,
      "t": 197521.3282499999,
      "d": 461.8304437500192,
      "v": 77
    },
    {
      "midi": 54,
      "hit": false,
      "t": 197556.8536687499,
      "d": 424.9892687500105,
      "v": 77
    },
    {
      "midi": 59,
      "hit": false,
      "t": 197556.8536687499,
      "d": 424.9892687500105,
      "v": 77
    },
    {
      "midi": 63,
      "hit": false,
      "t": 197556.8536687499,
      "d": 424.9892687500105,
      "v": 77
    },
    {
      "midi": 69,
      "hit": false,
      "t": 197984.47444999992,
      "d": 89.47142499999609,
      "v": 67
    },
    {
      "midi": 59,
      "hit": false,
      "t": 197995.00049999927,
      "d": 310.51847499998985,
      "v": 1
    },
    {
      "midi": 66,
      "hit": false,
      "t": 197995.0004999999,
      "d": 1113.1297875000164,
      "v": 77
    },
    {
      "midi": 42,
      "hit": false,
      "t": 197995.0004999999,
      "d": 1128.9188625000243,
      "v": 77
    },
    {
      "midi": 61,
      "hit": false,
      "t": 197995.0004999999,
      "d": 1128.9188625000243,
      "v": 77
    },
    {
      "midi": 70,
      "hit": false,
      "t": 198041.0519687499,
      "d": 974.9753812500276,
      "v": 81
    },
    {
      "midi": 61,
      "hit": false,
      "t": 198310.78199999925,
      "d": 626.2999750000017,
      "v": 1
    },
    {
      "midi": 66,
      "hit": false,
      "t": 198310.78199999925,
      "d": 626.2999750000017,
      "v": 1
    },
    {
      "midi": 63,
      "hit": false,
      "t": 198942.34499999924,
      "d": 310.51847499998985,
      "v": 1
    },
    {
      "midi": 68,
      "hit": false,
      "t": 198942.34499999924,
      "d": 323.67603749997215,
      "v": 1
    },
    {
      "midi": 70,
      "hit": false,
      "t": 199122.60360624993,
      "d": 96.05020624998724,
      "v": 81
    },
    {
      "midi": 66,
      "hit": false,
      "t": 199133.12965624992,
      "d": 109.20776874999865,
      "v": 81
    },
    {
      "midi": 61,
      "hit": false,
      "t": 199258.12649999923,
      "d": 1257.8629749999964,
      "v": 1
    },
    {
      "midi": 66,
      "hit": false,
      "t": 199258.12649999923,
      "d": 1257.8629749999964,
      "v": 1
    },
    {
      "midi": 61,
      "hit": false,
      "t": 199258.12649999993,
      "d": 122.36533125001006,
      "v": 90
    },
    {
      "midi": 66,
      "hit": false,
      "t": 199260.75801249992,
      "d": 119.7338187500136,
      "v": 81
    },
    {
      "midi": 61,
      "hit": false,
      "t": 199573.90799999994,
      "d": 461.8304437499901,
      "v": 87
    },
    {
      "midi": 64,
      "hit": false,
      "t": 199573.90799999994,
      "d": 497.3558625000005,
      "v": 77
    },
    {
      "midi": 69,
      "hit": false,
      "t": 199573.90799999994,
      "d": 497.3558625000005,
      "v": 77
    },
    {
      "midi": 64,
      "hit": false,
      "t": 200083.10566874995,
      "d": 396.04263124999125,
      "v": 77
    },
    {
      "midi": 61,
      "hit": false,
      "t": 200083.10566874995,
      "d": 424.9892687499814,
      "v": 89
    },
    {
      "midi": 69,
      "hit": false,
      "t": 200083.10566874995,
      "d": 424.9892687499814,
      "v": 77
    },
    {
      "midi": 64,
      "hit": false,
      "t": 200521.25249999922,
      "d": 152.62772499999846,
      "v": 1
    },
    {
      "midi": 66,
      "hit": false,
      "t": 200521.25249999994,
      "d": 76.31386249998468,
      "v": 76
    },
    {
      "midi": 59,
      "hit": false,
      "t": 200521.25249999994,
      "d": 586.8272874999966,
      "v": 77
    },
    {
      "midi": 64,
      "hit": false,
      "t": 200521.25249999994,
      "d": 586.8272874999966,
      "v": 77
    },
    {
      "midi": 52,
      "hit": false,
      "t": 200521.25249999994,
      "d": 1501.2778812499892,
      "v": 88
    },
    {
      "midi": 68,
      "hit": false,
      "t": 200573.88274999993,
      "d": 567.0909437500231,
      "v": 88
    },
    {
      "midi": 63,
      "hit": false,
      "t": 200679.1432499992,
      "d": 152.62772499999846,
      "v": 1
    },
    {
      "midi": 68,
      "hit": false,
      "t": 200679.1432499992,
      "d": 152.62772499999846,
      "v": 1
    },
    {
      "midi": 61,
      "hit": false,
      "t": 200837.0339999992,
      "d": 310.51847499998985,
      "v": 1
    },
    {
      "midi": 64,
      "hit": false,
      "t": 200837.0339999992,
      "d": 310.51847499998985,
      "v": 1
    },
    {
      "midi": 66,
      "hit": false,
      "t": 200837.0339999992,
      "d": 626.2999749999726,
      "v": 1
    },
    {
      "midi": 64,
      "hit": false,
      "t": 201148.86823124994,
      "d": 161.83801875001518,
      "v": 86
    },
    {
      "midi": 63,
      "hit": false,
      "t": 201152.81549999918,
      "d": 310.51847499998985,
      "v": 1
    },
    {
      "midi": 59,
      "hit": false,
      "t": 201152.81549999918,
      "d": 468.40922499998123,
      "v": 1
    },
    {
      "midi": 59,
      "hit": false,
      "t": 201152.81549999994,
      "d": 211.83675625003525,
      "v": 93
    },
    {
      "midi": 68,
      "hit": false,
      "t": 201168.60457499995,
      "d": 178.94285000002128,
      "v": 92
    },
    {
      "midi": 64,
      "hit": false,
      "t": 201468.59699999916,
      "d": 310.51847499998985,
      "v": 1
    },
    {
      "midi": 68,
      "hit": false,
      "t": 201490.96485624998,
      "d": 148.68045624997467,
      "v": 88
    },
    {
      "midi": 64,
      "hit": false,
      "t": 201494.91212499997,
      "d": 152.62772499996936,
      "v": 93
    },
    {
      "midi": 59,
      "hit": false,
      "t": 201501.49090624996,
      "d": 135.52289374999236,
      "v": 102
    },
    {
      "midi": 61,
      "hit": false,
      "t": 201626.48774999916,
      "d": 122.36533125001006,
      "v": 1
    },
    {
      "midi": 56,
      "hit": false,
      "t": 201626.48774999916,
      "d": 159.20650624998962,
      "v": 1
    },
    {
      "midi": 61,
      "hit": false,
      "t": 201662.01316874995,
      "d": 132.8913812499668,
      "v": 76
    },
    {
      "midi": 66,
      "hit": false,
      "t": 201692.27556249994,
      "d": 93.41869374999078,
      "v": 76
    },
    {
      "midi": 54,
      "hit": false,
      "t": 201784.37849999915,
      "d": 626.2999750000017,
      "v": 1
    },
    {
      "midi": 59,
      "hit": false,
      "t": 201784.37849999915,
      "d": 626.2999750000017,
      "v": 1
    },
    {
      "midi": 66,
      "hit": false,
      "t": 201784.37849999915,
      "d": 1257.8629749999964,
      "v": 1
    },
    {
      "midi": 64,
      "hit": false,
      "t": 201784.37849999993,
      "d": 178.94284999999218,
      "v": 80
    },
    {
      "midi": 59,
      "hit": false,
      "t": 201800.1675749999,
      "d": 221.04705000002286,
      "v": 99
    },
    {
      "midi": 68,
      "hit": false,
      "t": 201813.32513749992,
      "d": 240.78339374999632,
      "v": 68
    },
    {
      "midi": 47,
      "hit": false,
      "t": 202100.15999999992,
      "d": 435.51531874999637,
      "v": 77
    },
    {
      "midi": 54,
      "hit": false,
      "t": 202100.15999999992,
      "d": 497.3558625000005,
      "v": 77
    },
    {
      "midi": 59,
      "hit": false,
      "t": 202100.15999999992,
      "d": 497.3558625000005,
      "v": 77
    },
    {
      "midi": 63,
      "hit": false,
      "t": 202100.15999999992,
      "d": 497.3558625000005,
      "v": 77
    },
    {
      "midi": 63,
      "hit": false,
      "t": 202415.94149999914,
      "d": 942.0814749999845,
      "v": 1
    },
    {
      "midi": 47,
      "hit": false,
      "t": 202573.83224999992,
      "d": 461.8304437500192,
      "v": 77
    },
    {
      "midi": 54,
      "hit": false,
      "t": 202609.35766874993,
      "d": 424.9892687500105,
      "v": 77
    },
    {
      "midi": 59,
      "hit": false,
      "t": 202609.35766874993,
      "d": 424.9892687500105,
      "v": 77
    },
    {
      "midi": 63,
      "hit": false,
      "t": 202609.35766874993,
      "d": 424.9892687500105,
      "v": 77
    },
    {
      "midi": 69,
      "hit": false,
      "t": 203036.97844999994,
      "d": 89.47142499999609,
      "v": 67
    },
    {
      "midi": 59,
      "hit": false,
      "t": 203047.50449999914,
      "d": 310.51847499998985,
      "v": 1
    },
    {
      "midi": 71,
      "hit": false,
      "t": 203047.50449999914,
      "d": 310.51847499998985,
      "v": 1
    },
    {
      "midi": 42,
      "hit": false,
      "t": 203047.50449999992,
      "d": 935.5026937500224,
      "v": 77
    },
    {
      "midi": 66,
      "hit": false,
      "t": 203047.50449999992,
      "d": 935.5026937500224,
      "v": 77
    },
    {
      "midi": 61,
      "hit": false,
      "t": 203047.50449999992,
      "d": 1251.2841937500343,
      "v": 77
    },
    {
      "midi": 70,
      "hit": false,
      "t": 203093.55596874992,
      "d": 889.4512250000262,
      "v": 81
    },
    {
      "midi": 61,
      "hit": false,
      "t": 203363.28599999912,
      "d": 626.2999750000017,
      "v": 1
    },
    {
      "midi": 66,
      "hit": false,
      "t": 203363.28599999912,
      "d": 626.2999750000017,
      "v": 1
    },
    {
      "midi": 63,
      "hit": false,
      "t": 203994.8489999991,
      "d": 310.51847499998985,
      "v": 1
    },
    {
      "midi": 68,
      "hit": false,
      "t": 203994.8489999991,
      "d": 323.67603749997215,
      "v": 1
    },
    {
      "midi": 68,
      "hit": false,
      "t": 203994.84899999996,
      "d": 198.67919374999474,
      "v": 78
    },
    {
      "midi": 70,
      "hit": false,
      "t": 204155.37126249995,
      "d": 247.36217500001658,
      "v": 78
    },
    {
      "midi": 61,
      "hit": false,
      "t": 204310.6304999991,
      "d": 1415.7537249999878,
      "v": 1
    },
    {
      "midi": 66,
      "hit": false,
      "t": 204310.6304999991,
      "d": 1415.7537249999878,
      "v": 1
    },
    {
      "midi": 66,
      "hit": false,
      "t": 204313.26201249997,
      "d": 194.73192500000005,
      "v": 78
    },
    {
      "midi": 61,
      "hit": false,
      "t": 204468.52124999996,
      "d": 619.7211937499815,
      "v": 82
    },
    {
      "midi": 62,
      "hit": false,
      "t": 204626.41199999995,
      "d": 497.3558625000005,
      "v": 77
    },
    {
      "midi": 66,
      "hit": false,
      "t": 204626.41199999995,
      "d": 497.3558625000005,
      "v": 77
    },
    {
      "midi": 69,
      "hit": false,
      "t": 204626.41199999995,
      "d": 497.3558625000005,
      "v": 77
    },
    {
      "midi": 50,
      "hit": false,
      "t": 204632.99078124994,
      "d": 448.6728812500078,
      "v": 86
    },
    {
      "midi": 69,
      "hit": false,
      "t": 204942.1934999991,
      "d": 626.2999750000017,
      "v": 1
    },
    {
      "midi": 61,
      "hit": false,
      "t": 205135.60966874997,
      "d": 267.09851874999003,
      "v": 77
    },
    {
      "midi": 62,
      "hit": false,
      "t": 205135.60966874997,
      "d": 267.09851874999003,
      "v": 77
    },
    {
      "midi": 66,
      "hit": false,
      "t": 205135.60966874997,
      "d": 267.09851874999003,
      "v": 77
    },
    {
      "midi": 69,
      "hit": false,
      "t": 205135.60966874997,
      "d": 267.09851874999003,
      "v": 77
    },
    {
      "midi": 50,
      "hit": false,
      "t": 205159.29328124996,
      "d": 398.6741437499877,
      "v": 86
    },
    {
      "midi": 68,
      "hit": false,
      "t": 205573.75649999996,
      "d": 892.0827374999935,
      "v": 77
    },
    {
      "midi": 66,
      "hit": false,
      "t": 205573.75649999996,
      "d": 935.5026937499933,
      "v": 77
    },
    {
      "midi": 64,
      "hit": false,
      "t": 205573.75649999996,
      "d": 1093.3934437500138,
      "v": 77
    },
    {
      "midi": 49,
      "hit": false,
      "t": 205573.75649999996,
      "d": 1303.9144437500217,
      "v": 76
    },
    {
      "midi": 59,
      "hit": false,
      "t": 205573.75649999996,
      "d": 1567.065693750017,
      "v": 77
    },
    {
      "midi": 61,
      "hit": false,
      "t": 205573.75649999996,
      "d": 1567.065693750017,
      "v": 77
    },
    {
      "midi": 63,
      "hit": false,
      "t": 205731.64724999908,
      "d": 152.62772499999846,
      "v": 1
    },
    {
      "midi": 68,
      "hit": false,
      "t": 205731.64724999908,
      "d": 784.190724999964,
      "v": 1
    },
    {
      "midi": 61,
      "hit": false,
      "t": 205889.53799999907,
      "d": 310.51847499998985,
      "v": 1
    },
    {
      "midi": 66,
      "hit": false,
      "t": 205889.53799999907,
      "d": 626.2999749999726,
      "v": 1
    },
    {
      "midi": 59,
      "hit": false,
      "t": 206205.31949999905,
      "d": 468.40922499998123,
      "v": 1
    },
    {
      "midi": 64,
      "hit": false,
      "t": 206205.31949999905,
      "d": 468.40922499998123,
      "v": 1
    },
    {
      "midi": 68,
      "hit": false,
      "t": 206521.10099999997,
      "d": 159.20650625001872,
      "v": 81
    },
    {
      "midi": 61,
      "hit": false,
      "t": 206678.99174999903,
      "d": 122.36533125001006,
      "v": 1
    },
    {
      "midi": 56,
      "hit": false,
      "t": 206678.99174999903,
      "d": 159.20650625001872,
      "v": 1
    },
    {
      "midi": 66,
      "hit": false,
      "t": 206688.20204374997,
      "d": 102.6289875000075,
      "v": 73
    },
    {
      "midi": 64,
      "hit": false,
      "t": 206819.77766874997,
      "d": 168.41680000000633,
      "v": 84
    },
    {
      "midi": 54,
      "hit": false,
      "t": 206836.88249999905,
      "d": 626.2999750000017,
      "v": 1
    },
    {
      "midi": 59,
      "hit": false,
      "t": 206836.88249999905,
      "d": 626.2999750000017,
      "v": 1
    },
    {
      "midi": 63,
      "hit": false,
      "t": 206836.88249999905,
      "d": 1257.8629749999964,
      "v": 1
    },
    {
      "midi": 47,
      "hit": false,
      "t": 207152.664,
      "d": 435.51531874999637,
      "v": 77
    },
    {
      "midi": 54,
      "hit": false,
      "t": 207152.664,
      "d": 497.3558625000005,
      "v": 77
    },
    {
      "midi": 59,
      "hit": false,
      "t": 207152.664,
      "d": 497.3558625000005,
      "v": 77
    },
    {
      "midi": 63,
      "hit": false,
      "t": 207152.664,
      "d": 497.3558625000005,
      "v": 77
    },
    {
      "midi": 66,
      "hit": false,
      "t": 207468.44549999904,
      "d": 626.2999750000017,
      "v": 1
    },
    {
      "midi": 47,
      "hit": false,
      "t": 207626.33625,
      "d": 461.8304437500192,
      "v": 77
    },
    {
      "midi": 54,
      "hit": false,
      "t": 207661.86166875,
      "d": 424.9892687500105,
      "v": 77
    },
    {
      "midi": 59,
      "hit": false,
      "t": 207661.86166875,
      "d": 424.9892687500105,
      "v": 77
    },
    {
      "midi": 63,
      "hit": false,
      "t": 207661.86166875,
      "d": 424.9892687500105,
      "v": 77
    },
    {
      "midi": 69,
      "hit": false,
      "t": 208089.48245,
      "d": 89.47142499999609,
      "v": 67
    },
    {
      "midi": 59,
      "hit": false,
      "t": 208100.00849999904,
      "d": 310.51847499998985,
      "v": 1
    },
    {
      "midi": 66,
      "hit": false,
      "t": 208100.0085,
      "d": 1113.1297875000164,
      "v": 77
    },
    {
      "midi": 42,
      "hit": false,
      "t": 208100.0085,
      "d": 1128.9188625000243,
      "v": 77
    },
    {
      "midi": 61,
      "hit": false,
      "t": 208100.0085,
      "d": 1128.9188625000243,
      "v": 77
    },
    {
      "midi": 70,
      "hit": false,
      "t": 208146.05996875,
      "d": 974.9753812500276,
      "v": 81
    },
    {
      "midi": 61,
      "hit": false,
      "t": 208415.78999999902,
      "d": 626.2999750000017,
      "v": 1
    },
    {
      "midi": 66,
      "hit": false,
      "t": 208415.78999999902,
      "d": 626.2999750000017,
      "v": 1
    },
    {
      "midi": 63,
      "hit": false,
      "t": 209047.352999999,
      "d": 310.51847499998985,
      "v": 1
    },
    {
      "midi": 68,
      "hit": false,
      "t": 209047.352999999,
      "d": 323.67603749997215,
      "v": 1
    },
    {
      "midi": 70,
      "hit": false,
      "t": 209227.61160625002,
      "d": 96.05020624998724,
      "v": 81
    },
    {
      "midi": 66,
      "hit": false,
      "t": 209238.13765625,
      "d": 109.20776874999865,
      "v": 81
    },
    {
      "midi": 61,
      "hit": false,
      "t": 209363.134499999,
      "d": 1257.8629749999964,
      "v": 1
    },
    {
      "midi": 66,
      "hit": false,
      "t": 209363.134499999,
      "d": 1257.8629749999964,
      "v": 1
    },
    {
      "midi": 61,
      "hit": false,
      "t": 209363.13450000001,
      "d": 122.36533125001006,
      "v": 90
    },
    {
      "midi": 66,
      "hit": false,
      "t": 209365.7660125,
      "d": 119.7338187500136,
      "v": 81
    },
    {
      "midi": 61,
      "hit": false,
      "t": 209678.91600000003,
      "d": 461.8304437499901,
      "v": 87
    },
    {
      "midi": 64,
      "hit": false,
      "t": 209678.91600000003,
      "d": 497.3558625000005,
      "v": 77
    },
    {
      "midi": 69,
      "hit": false,
      "t": 209678.91600000003,
      "d": 497.3558625000005,
      "v": 77
    },
    {
      "midi": 64,
      "hit": false,
      "t": 210188.11366875004,
      "d": 396.04263124999125,
      "v": 77
    },
    {
      "midi": 61,
      "hit": false,
      "t": 210188.11366875004,
      "d": 424.9892687499814,
      "v": 89
    },
    {
      "midi": 69,
      "hit": false,
      "t": 210188.11366875004,
      "d": 424.9892687499814,
      "v": 77
    },
    {
      "midi": 64,
      "hit": false,
      "t": 210626.26049999899,
      "d": 152.62772499999846,
      "v": 1
    },
    {
      "midi": 66,
      "hit": false,
      "t": 210626.26050000003,
      "d": 76.31386249998468,
      "v": 76
    },
    {
      "midi": 59,
      "hit": false,
      "t": 210626.26050000003,
      "d": 586.8272874999966,
      "v": 77
    },
    {
      "midi": 64,
      "hit": false,
      "t": 210626.26050000003,
      "d": 586.8272874999966,
      "v": 77
    },
    {
      "midi": 52,
      "hit": false,
      "t": 210626.26050000003,
      "d": 1501.2778812499892,
      "v": 88
    },
    {
      "midi": 68,
      "hit": false,
      "t": 210678.89075000002,
      "d": 567.0909437500231,
      "v": 88
    },
    {
      "midi": 63,
      "hit": false,
      "t": 210784.15124999898,
      "d": 152.62772499999846,
      "v": 1
    },
    {
      "midi": 68,
      "hit": false,
      "t": 210784.15124999898,
      "d": 152.62772499999846,
      "v": 1
    },
    {
      "midi": 61,
      "hit": false,
      "t": 210942.04199999897,
      "d": 310.51847499998985,
      "v": 1
    },
    {
      "midi": 64,
      "hit": false,
      "t": 210942.04199999897,
      "d": 310.51847499998985,
      "v": 1
    },
    {
      "midi": 66,
      "hit": false,
      "t": 210942.04199999897,
      "d": 626.2999749999726,
      "v": 1
    },
    {
      "midi": 64,
      "hit": false,
      "t": 211253.87623125003,
      "d": 161.83801875001518,
      "v": 86
    },
    {
      "midi": 63,
      "hit": false,
      "t": 211257.82349999895,
      "d": 310.51847499998985,
      "v": 1
    },
    {
      "midi": 59,
      "hit": false,
      "t": 211257.82349999895,
      "d": 468.40922499998123,
      "v": 1
    },
    {
      "midi": 59,
      "hit": false,
      "t": 211257.82350000003,
      "d": 211.83675625003525,
      "v": 93
    },
    {
      "midi": 68,
      "hit": false,
      "t": 211273.61257500004,
      "d": 178.94285000002128,
      "v": 92
    },
    {
      "midi": 64,
      "hit": false,
      "t": 211573.60499999893,
      "d": 310.51847499998985,
      "v": 1
    },
    {
      "midi": 68,
      "hit": false,
      "t": 211595.97285625007,
      "d": 148.68045624997467,
      "v": 88
    },
    {
      "midi": 64,
      "hit": false,
      "t": 211599.92012500006,
      "d": 152.62772499996936,
      "v": 93
    },
    {
      "midi": 59,
      "hit": false,
      "t": 211606.49890625005,
      "d": 135.52289374999236,
      "v": 102
    },
    {
      "midi": 61,
      "hit": false,
      "t": 211731.49574999893,
      "d": 122.36533125001006,
      "v": 1
    },
    {
      "midi": 56,
      "hit": false,
      "t": 211731.49574999893,
      "d": 159.20650624998962,
      "v": 1
    },
    {
      "midi": 61,
      "hit": false,
      "t": 211767.02116875004,
      "d": 132.8913812499668,
      "v": 76
    },
    {
      "midi": 66,
      "hit": false,
      "t": 211797.28356250003,
      "d": 93.41869374999078,
      "v": 76
    },
    {
      "midi": 54,
      "hit": false,
      "t": 211889.38649999892,
      "d": 626.2999750000017,
      "v": 1
    },
    {
      "midi": 59,
      "hit": false,
      "t": 211889.38649999892,
      "d": 626.2999750000017,
      "v": 1
    },
    {
      "midi": 66,
      "hit": false,
      "t": 211889.38649999892,
      "d": 1257.8629749999964,
      "v": 1
    },
    {
      "midi": 64,
      "hit": false,
      "t": 211889.38650000002,
      "d": 178.94284999999218,
      "v": 80
    },
    {
      "midi": 59,
      "hit": false,
      "t": 211905.175575,
      "d": 221.04705000002286,
      "v": 99
    },
    {
      "midi": 68,
      "hit": false,
      "t": 211918.3331375,
      "d": 240.78339374999632,
      "v": 68
    },
    {
      "midi": 47,
      "hit": false,
      "t": 212205.168,
      "d": 435.51531874999637,
      "v": 77
    },
    {
      "midi": 54,
      "hit": false,
      "t": 212205.168,
      "d": 497.3558625000005,
      "v": 77
    },
    {
      "midi": 59,
      "hit": false,
      "t": 212205.168,
      "d": 497.3558625000005,
      "v": 77
    },
    {
      "midi": 63,
      "hit": false,
      "t": 212205.168,
      "d": 497.3558625000005,
      "v": 77
    },
    {
      "midi": 63,
      "hit": false,
      "t": 212520.9494999989,
      "d": 942.0814749999845,
      "v": 1
    },
    {
      "midi": 47,
      "hit": false,
      "t": 212678.84025,
      "d": 461.8304437500192,
      "v": 77
    },
    {
      "midi": 54,
      "hit": false,
      "t": 212714.36566875002,
      "d": 424.9892687500105,
      "v": 77
    },
    {
      "midi": 59,
      "hit": false,
      "t": 212714.36566875002,
      "d": 424.9892687500105,
      "v": 77
    },
    {
      "midi": 63,
      "hit": false,
      "t": 212714.36566875002,
      "d": 424.9892687500105,
      "v": 77
    },
    {
      "midi": 69,
      "hit": false,
      "t": 213141.98645000003,
      "d": 89.47142499999609,
      "v": 67
    },
    {
      "midi": 59,
      "hit": false,
      "t": 213152.5124999989,
      "d": 310.51847499998985,
      "v": 1
    },
    {
      "midi": 71,
      "hit": false,
      "t": 213152.5124999989,
      "d": 310.51847499998985,
      "v": 1
    },
    {
      "midi": 42,
      "hit": false,
      "t": 213152.5125,
      "d": 935.5026937500224,
      "v": 77
    },
    {
      "midi": 66,
      "hit": false,
      "t": 213152.5125,
      "d": 935.5026937500224,
      "v": 77
    },
    {
      "midi": 61,
      "hit": false,
      "t": 213152.5125,
      "d": 1251.2841937500343,
      "v": 77
    },
    {
      "midi": 70,
      "hit": false,
      "t": 213198.56396875,
      "d": 889.4512250000262,
      "v": 81
    },
    {
      "midi": 61,
      "hit": false,
      "t": 213468.2939999989,
      "d": 626.2999750000017,
      "v": 1
    },
    {
      "midi": 66,
      "hit": false,
      "t": 213468.2939999989,
      "d": 626.2999750000017,
      "v": 1
    },
    {
      "midi": 63,
      "hit": false,
      "t": 214099.85699999888,
      "d": 310.51847499998985,
      "v": 1
    },
    {
      "midi": 68,
      "hit": false,
      "t": 214099.85699999888,
      "d": 323.67603749997215,
      "v": 1
    },
    {
      "midi": 68,
      "hit": false,
      "t": 214099.85700000005,
      "d": 198.67919374999474,
      "v": 78
    },
    {
      "midi": 70,
      "hit": false,
      "t": 214260.37926250004,
      "d": 247.36217500001658,
      "v": 78
    },
    {
      "midi": 61,
      "hit": false,
      "t": 214415.63849999887,
      "d": 310.51847499998985,
      "v": 1
    },
    {
      "midi": 66,
      "hit": false,
      "t": 214415.63849999887,
      "d": 310.51847499998985,
      "v": 1
    },
    {
      "midi": 66,
      "hit": false,
      "t": 214418.27001250006,
      "d": 194.73192500000005,
      "v": 78
    },
    {
      "midi": 61,
      "hit": false,
      "t": 214573.52925000005,
      "d": 619.7211937499815,
      "v": 82
    },
    {
      "midi": 62,
      "hit": false,
      "t": 214731.42000000004,
      "d": 497.3558625000005,
      "v": 77
    },
    {
      "midi": 66,
      "hit": false,
      "t": 214731.42000000004,
      "d": 497.3558625000005,
      "v": 77
    },
    {
      "midi": 69,
      "hit": false,
      "t": 214731.42000000004,
      "d": 497.3558625000005,
      "v": 77
    },
    {
      "midi": 50,
      "hit": false,
      "t": 214737.99878125003,
      "d": 448.6728812500078,
      "v": 86
    },
    {
      "midi": 61,
      "hit": false,
      "t": 215240.61766875006,
      "d": 267.09851874999003,
      "v": 77
    },
    {
      "midi": 62,
      "hit": false,
      "t": 215240.61766875006,
      "d": 267.09851874999003,
      "v": 77
    },
    {
      "midi": 66,
      "hit": false,
      "t": 215240.61766875006,
      "d": 267.09851874999003,
      "v": 77
    },
    {
      "midi": 69,
      "hit": false,
      "t": 215240.61766875006,
      "d": 267.09851874999003,
      "v": 77
    },
    {
      "midi": 50,
      "hit": false,
      "t": 215264.30128125005,
      "d": 398.6741437499877,
      "v": 86
    },
    {
      "midi": 64,
      "hit": false,
      "t": 215678.76450000005,
      "d": 5672.225193749997,
      "v": 77
    },
    {
      "midi": 49,
      "hit": false,
      "t": 215678.76450000005,
      "d": 5830.115943749988,
      "v": 76
    },
    {
      "midi": 59,
      "hit": false,
      "t": 215678.76450000005,
      "d": 5830.115943749988,
      "v": 77
    },
    {
      "midi": 61,
      "hit": false,
      "t": 215678.76450000005,
      "d": 5830.115943749988,
      "v": 77
    },
    {
      "midi": 66,
      "hit": false,
      "t": 215678.76450000005,
      "d": 5830.115943749988,
      "v": 77
    },
    {
      "midi": 68,
      "hit": false,
      "t": 215678.76450000005,
      "d": 5830.115943749988,
      "v": 77
    }
  ]
}