{
  "jsonPath": "Animes/Gatekeepers MIDI Collection/asu-no-egao-no-tameni.json",
  "path": "Animes\\Gatekeepers MIDI Collection\\Asu No Egao No Tameni.mid",
  "name": "Asu No Egao No Tameni",
  "difficulty": "Advanced",
  "bpm": 100,
  "notes": [
    {
      "midi": 62,
      "hit": false,
      "t": 3284.247341666666,
      "d": 3287.672000000003,
      "v": 127
    },
    {
      "midi": 50,
      "hit": false,
      "t": 3284.247341666666,
      "d": 3287.672000000003,
      "v": 90
    },
    {
      "midi": 57,
      "hit": false,
      "t": 3284.247341666666,
      "d": 3287.672000000003,
      "v": 100
    },
    {
      "midi": 50,
      "hit": false,
      "t": 3284.2473416666667,
      "d": 2876.713,
      "v": 102
    },
    {
      "midi": 57,
      "hit": false,
      "t": 3284.2473416666667,
      "d": 2876.713,
      "v": 102
    },
    {
      "midi": 74,
      "hit": false,
      "t": 4931.508,
      "d": 1643.8359999999993,
      "v": 80
    },
    {
      "midi": 62,
      "hit": false,
      "t": 4931.508,
      "d": 1643.8359999999993,
      "v": 80
    },
    {
      "midi": 69,
      "hit": false,
      "t": 4931.508,
      "d": 1643.8359999999993,
      "v": 80
    },
    {
      "midi": 42,
      "hit": false,
      "t": 4931.508,
      "d": 205.47950000000037,
      "v": 102
    },
    {
      "midi": 72,
      "hit": false,
      "t": 5133.562841666667,
      "d": 92.46577499999967,
      "v": 127
    },
    {
      "midi": 64,
      "hit": false,
      "t": 5133.562841666667,
      "d": 154.10962500000005,
      "v": 107
    },
    {
      "midi": 67,
      "hit": false,
      "t": 5133.562841666667,
      "d": 154.10962500000005,
      "v": 112
    },
    {
      "midi": 72,
      "hit": false,
      "t": 5133.562841666667,
      "d": 205.47950000000037,
      "v": 125
    },
    {
      "midi": 46,
      "hit": false,
      "t": 5136.987499999999,
      "d": 205.47950000000037,
      "v": 102
    },
    {
      "midi": 71,
      "hit": false,
      "t": 5339.042341666666,
      "d": 215.75347500000044,
      "v": 127
    },
    {
      "midi": 67,
      "hit": false,
      "t": 5339.042341666667,
      "d": 154.10962500000005,
      "v": 112
    },
    {
      "midi": 72,
      "hit": false,
      "t": 5339.042341666667,
      "d": 154.10962500000005,
      "v": 118
    },
    {
      "midi": 64,
      "hit": false,
      "t": 5339.042341666667,
      "d": 154.10962500000005,
      "v": 117
    },
    {
      "midi": 71,
      "hit": false,
      "t": 5339.042341666667,
      "d": 205.47950000000037,
      "v": 127
    },
    {
      "midi": 42,
      "hit": false,
      "t": 5342.467000000001,
      "d": 205.47950000000037,
      "v": 102
    },
    {
      "midi": 67,
      "hit": false,
      "t": 5544.521841666667,
      "d": 130.13701666666657,
      "v": 115
    },
    {
      "midi": 64,
      "hit": false,
      "t": 5544.521841666668,
      "d": 154.10962500000005,
      "v": 118
    },
    {
      "midi": 72,
      "hit": false,
      "t": 5544.521841666668,
      "d": 154.10962500000005,
      "v": 107
    },
    {
      "midi": 67,
      "hit": false,
      "t": 5544.521841666668,
      "d": 205.47950000000037,
      "v": 121
    },
    {
      "midi": 46,
      "hit": false,
      "t": 5547.9465,
      "d": 205.47950000000037,
      "v": 102
    },
    {
      "midi": 72,
      "hit": false,
      "t": 5750.001341666666,
      "d": 256.8493750000007,
      "v": 127
    },
    {
      "midi": 67,
      "hit": false,
      "t": 5750.001341666668,
      "d": 154.10962500000005,
      "v": 109
    },
    {
      "midi": 64,
      "hit": false,
      "t": 5750.001341666668,
      "d": 154.10962500000005,
      "v": 117
    },
    {
      "midi": 72,
      "hit": false,
      "t": 5750.001341666668,
      "d": 205.47950000000037,
      "v": 127
    },
    {
      "midi": 42,
      "hit": false,
      "t": 5753.426000000001,
      "d": 102.73974999999973,
      "v": 107
    },
    {
      "midi": 71,
      "hit": false,
      "t": 5955.4808416666665,
      "d": 178.08223333333353,
      "v": 122
    },
    {
      "midi": 72,
      "hit": false,
      "t": 5955.480841666668,
      "d": 154.10962500000005,
      "v": 107
    },
    {
      "midi": 67,
      "hit": false,
      "t": 5955.480841666668,
      "d": 154.10962500000005,
      "v": 111
    },
    {
      "midi": 64,
      "hit": false,
      "t": 5955.480841666668,
      "d": 154.10962500000005,
      "v": 117
    },
    {
      "midi": 71,
      "hit": false,
      "t": 5955.480841666668,
      "d": 205.47950000000037,
      "v": 123
    },
    {
      "midi": 46,
      "hit": false,
      "t": 5958.905500000001,
      "d": 102.73974999999973,
      "v": 95
    },
    {
      "midi": 45,
      "hit": false,
      "t": 6160.960341666667,
      "d": 410.95900000000256,
      "v": 127
    },
    {
      "midi": 50,
      "hit": false,
      "t": 6160.960341666667,
      "d": 410.95900000000256,
      "v": 127
    },
    {
      "midi": 69,
      "hit": false,
      "t": 6160.960341666667,
      "d": 212.32881666666708,
      "v": 122
    },
    {
      "midi": 64,
      "hit": false,
      "t": 6160.960341666669,
      "d": 154.10962500000005,
      "v": 117
    },
    {
      "midi": 72,
      "hit": false,
      "t": 6160.960341666669,
      "d": 154.10962500000005,
      "v": 117
    },
    {
      "midi": 67,
      "hit": false,
      "t": 6160.960341666669,
      "d": 154.10962500000005,
      "v": 110
    },
    {
      "midi": 69,
      "hit": false,
      "t": 6160.960341666669,
      "d": 205.47950000000037,
      "v": 123
    },
    {
      "midi": 42,
      "hit": false,
      "t": 6164.385000000001,
      "d": 102.73974999999973,
      "v": 95
    },
    {
      "midi": 71,
      "hit": false,
      "t": 6366.439841666667,
      "d": 198.63018333333366,
      "v": 127
    },
    {
      "midi": 64,
      "hit": false,
      "t": 6366.439841666669,
      "d": 154.10962500000005,
      "v": 118
    },
    {
      "midi": 72,
      "hit": false,
      "t": 6366.439841666669,
      "d": 154.10962500000005,
      "v": 107
    },
    {
      "midi": 67,
      "hit": false,
      "t": 6366.439841666669,
      "d": 154.10962500000005,
      "v": 112
    },
    {
      "midi": 71,
      "hit": false,
      "t": 6366.439841666669,
      "d": 205.47950000000037,
      "v": 123
    },
    {
      "midi": 46,
      "hit": false,
      "t": 6369.864500000001,
      "d": 102.73974999999973,
      "v": 107
    },
    {
      "midi": 29,
      "hit": false,
      "t": 6571.919341666666,
      "d": 3287.6720000000005,
      "v": 107
    },
    {
      "midi": 67,
      "hit": false,
      "t": 6571.919341666668,
      "d": 407.5343416666674,
      "v": 122
    },
    {
      "midi": 48,
      "hit": false,
      "t": 6571.919341666669,
      "d": 3287.672000000006,
      "v": 78
    },
    {
      "midi": 41,
      "hit": false,
      "t": 6571.919341666669,
      "d": 3287.672000000006,
      "v": 95
    },
    {
      "midi": 67,
      "hit": false,
      "t": 6571.919341666669,
      "d": 308.2192500000001,
      "v": 113
    },
    {
      "midi": 62,
      "hit": false,
      "t": 6571.919341666669,
      "d": 308.2192500000001,
      "v": 111
    },
    {
      "midi": 71,
      "hit": false,
      "t": 6571.919341666669,
      "d": 308.2192500000001,
      "v": 109
    },
    {
      "midi": 69,
      "hit": false,
      "t": 6571.919341666669,
      "d": 410.95899999999983,
      "v": 123
    },
    {
      "midi": 71,
      "hit": false,
      "t": 6575.343999999999,
      "d": 3287.6720000000005,
      "v": 80
    },
    {
      "midi": 62,
      "hit": false,
      "t": 6575.343999999999,
      "d": 3287.6720000000005,
      "v": 80
    },
    {
      "midi": 67,
      "hit": false,
      "t": 6575.343999999999,
      "d": 3287.6720000000005,
      "v": 80
    },
    {
      "midi": 83,
      "hit": false,
      "t": 6575.343999999999,
      "d": 3287.6720000000187,
      "v": 127
    },
    {
      "midi": 71,
      "hit": false,
      "t": 6575.343999999999,
      "d": 3287.6720000000187,
      "v": 127
    },
    {
      "midi": 74,
      "hit": false,
      "t": 6575.343999999999,
      "d": 3287.6720000000187,
      "v": 127
    },
    {
      "midi": 79,
      "hit": false,
      "t": 6575.343999999999,
      "d": 3287.6720000000187,
      "v": 127
    },
    {
      "midi": 36,
      "hit": false,
      "t": 6575.343999999999,
      "d": 102.73974999999973,
      "v": 107
    },
    {
      "midi": 13,
      "hit": false,
      "t": 6575.343999999999,
      "d": 102.73974999999973,
      "v": 127
    },
    {
      "midi": 57,
      "hit": false,
      "t": 6575.343999999999,
      "d": 51.36987500000032,
      "v": 84
    },
    {
      "midi": 67,
      "hit": false,
      "t": 6575.344,
      "d": 58.21919166666703,
      "v": 122
    },
    {
      "midi": 71,
      "hit": false,
      "t": 6575.344,
      "d": 58.21919166666703,
      "v": 122
    },
    {
      "midi": 42,
      "hit": false,
      "t": 6575.344000000001,
      "d": 102.73974999999973,
      "v": 107
    },
    {
      "midi": 67,
      "hit": false,
      "t": 6678.083750000001,
      "d": 27.397266666666837,
      "v": 49
    },
    {
      "midi": 71,
      "hit": false,
      "t": 6678.083750000001,
      "d": 27.397266666666837,
      "v": 49
    },
    {
      "midi": 67,
      "hit": false,
      "t": 6780.8235,
      "d": 71.91782500000045,
      "v": 89
    },
    {
      "midi": 71,
      "hit": false,
      "t": 6780.8235,
      "d": 71.91782500000045,
      "v": 89
    },
    {
      "midi": 46,
      "hit": false,
      "t": 6791.0974750000005,
      "d": 205.47950000000037,
      "v": 107
    },
    {
      "midi": 67,
      "hit": false,
      "t": 6883.563250000001,
      "d": 78.76714166666625,
      "v": 105
    },
    {
      "midi": 72,
      "hit": false,
      "t": 6883.563250000001,
      "d": 78.76714166666625,
      "v": 105
    },
    {
      "midi": 67,
      "hit": false,
      "t": 6982.878341666668,
      "d": 164.38360000000011,
      "v": 122
    },
    {
      "midi": 62,
      "hit": false,
      "t": 6982.878341666669,
      "d": 154.10962500000005,
      "v": 112
    },
    {
      "midi": 71,
      "hit": false,
      "t": 6982.878341666669,
      "d": 154.10962500000005,
      "v": 110
    },
    {
      "midi": 67,
      "hit": false,
      "t": 6982.878341666669,
      "d": 205.47950000000037,
      "v": 119
    },
    {
      "midi": 36,
      "hit": false,
      "t": 6986.302999999999,
      "d": 102.73974999999973,
      "v": 107
    },
    {
      "midi": 13,
      "hit": false,
      "t": 6986.302999999999,
      "d": 102.73974999999973,
      "v": 127
    },
    {
      "midi": 67,
      "hit": false,
      "t": 6986.303000000001,
      "d": 27.397266666666837,
      "v": 45
    },
    {
      "midi": 71,
      "hit": false,
      "t": 6986.303000000001,
      "d": 27.397266666666837,
      "v": 45
    },
    {
      "midi": 42,
      "hit": false,
      "t": 6986.303000000001,
      "d": 102.73974999999973,
      "v": 107
    },
    {
      "midi": 67,
      "hit": false,
      "t": 7089.0427500000005,
      "d": 71.91782500000045,
      "v": 100
    },
    {
      "midi": 71,
      "hit": false,
      "t": 7089.0427500000005,
      "d": 71.91782500000045,
      "v": 100
    },
    {
      "midi": 67,
      "hit": false,
      "t": 7188.357841666669,
      "d": 2626.7129416666676,
      "v": 127
    },
    {
      "midi": 71,
      "hit": false,
      "t": 7188.35784166667,
      "d": 2568.4937499999996,
      "v": 112
    },
    {
      "midi": 67,
      "hit": false,
      "t": 7188.35784166667,
      "d": 2568.4937499999996,
      "v": 119
    },
    {
      "midi": 62,
      "hit": false,
      "t": 7188.35784166667,
      "d": 2568.4937499999996,
      "v": 110
    },
    {
      "midi": 67,
      "hit": false,
      "t": 7191.782500000001,
      "d": 75.3424833333329,
      "v": 86
    },
    {
      "midi": 72,
      "hit": false,
      "t": 7191.782500000001,
      "d": 75.3424833333329,
      "v": 86
    },
    {
      "midi": 46,
      "hit": false,
      "t": 7191.782500000001,
      "d": 102.73974999999973,
      "v": 102
    },
    {
      "midi": 67,
      "hit": false,
      "t": 7294.522250000001,
      "d": 27.397266666666837,
      "v": 44
    },
    {
      "midi": 71,
      "hit": false,
      "t": 7294.522250000001,
      "d": 27.397266666666837,
      "v": 44
    },
    {
      "midi": 36,
      "hit": false,
      "t": 7397.261999999999,
      "d": 102.73974999999973,
      "v": 107
    },
    {
      "midi": 13,
      "hit": false,
      "t": 7397.261999999999,
      "d": 102.73974999999973,
      "v": 127
    },
    {
      "midi": 67,
      "hit": false,
      "t": 7397.262000000001,
      "d": 65.06850833333374,
      "v": 77
    },
    {
      "midi": 71,
      "hit": false,
      "t": 7397.262000000001,
      "d": 65.06850833333374,
      "v": 77
    },
    {
      "midi": 42,
      "hit": false,
      "t": 7397.262000000001,
      "d": 102.73974999999973,
      "v": 107
    },
    {
      "midi": 67,
      "hit": false,
      "t": 7500.001750000001,
      "d": 78.76714166666625,
      "v": 110
    },
    {
      "midi": 72,
      "hit": false,
      "t": 7500.001750000001,
      "d": 78.76714166666625,
      "v": 110
    },
    {
      "midi": 67,
      "hit": false,
      "t": 7602.741500000001,
      "d": 61.643850000000384,
      "v": 77
    },
    {
      "midi": 71,
      "hit": false,
      "t": 7602.741500000001,
      "d": 61.643850000000384,
      "v": 77
    },
    {
      "midi": 46,
      "hit": false,
      "t": 7602.741500000001,
      "d": 102.73974999999973,
      "v": 107
    },
    {
      "midi": 67,
      "hit": false,
      "t": 7705.481250000002,
      "d": 27.397266666666837,
      "v": 44
    },
    {
      "midi": 71,
      "hit": false,
      "t": 7705.481250000002,
      "d": 27.397266666666837,
      "v": 44
    },
    {
      "midi": 36,
      "hit": false,
      "t": 7808.220999999999,
      "d": 102.73974999999973,
      "v": 107
    },
    {
      "midi": 13,
      "hit": false,
      "t": 7808.220999999999,
      "d": 102.73974999999973,
      "v": 127
    },
    {
      "midi": 42,
      "hit": false,
      "t": 7808.2210000000005,
      "d": 102.73974999999973,
      "v": 107
    },
    {
      "midi": 67,
      "hit": false,
      "t": 7808.221000000001,
      "d": 71.91782500000045,
      "v": 110
    },
    {
      "midi": 72,
      "hit": false,
      "t": 7808.221000000001,
      "d": 71.91782500000045,
      "v": 110
    },
    {
      "midi": 67,
      "hit": false,
      "t": 7910.960750000002,
      "d": 27.397266666666837,
      "v": 42
    },
    {
      "midi": 71,
      "hit": false,
      "t": 7910.960750000002,
      "d": 27.397266666666837,
      "v": 42
    },
    {
      "midi": 46,
      "hit": false,
      "t": 8013.700500000001,
      "d": 102.73974999999973,
      "v": 107
    },
    {
      "midi": 67,
      "hit": false,
      "t": 8013.700500000002,
      "d": 68.4931666666671,
      "v": 115
    },
    {
      "midi": 71,
      "hit": false,
      "t": 8013.700500000002,
      "d": 68.4931666666671,
      "v": 115
    },
    {
      "midi": 67,
      "hit": false,
      "t": 8116.440250000002,
      "d": 51.36987500000032,
      "v": 78
    },
    {
      "midi": 71,
      "hit": false,
      "t": 8116.440250000002,
      "d": 51.36987500000032,
      "v": 78
    },
    {
      "midi": 36,
      "hit": false,
      "t": 8219.179999999998,
      "d": 102.73975000000064,
      "v": 107
    },
    {
      "midi": 13,
      "hit": false,
      "t": 8219.179999999998,
      "d": 102.73975000000064,
      "v": 127
    },
    {
      "midi": 42,
      "hit": false,
      "t": 8219.18,
      "d": 102.73975000000064,
      "v": 107
    },
    {
      "midi": 67,
      "hit": false,
      "t": 8219.180000000002,
      "d": 58.21919166666703,
      "v": 122
    },
    {
      "midi": 71,
      "hit": false,
      "t": 8219.180000000002,
      "d": 58.21919166666703,
      "v": 122
    },
    {
      "midi": 53,
      "hit": false,
      "t": 8250.001924999999,
      "d": 37.6712416666669,
      "v": 22
    },
    {
      "midi": 55,
      "hit": false,
      "t": 8280.823849999999,
      "d": 58.21919166666703,
      "v": 25
    },
    {
      "midi": 67,
      "hit": false,
      "t": 8321.919750000003,
      "d": 27.397266666666837,
      "v": 49
    },
    {
      "midi": 71,
      "hit": false,
      "t": 8321.919750000003,
      "d": 27.397266666666837,
      "v": 49
    },
    {
      "midi": 57,
      "hit": false,
      "t": 8325.344408333332,
      "d": 54.794533333333675,
      "v": 28
    },
    {
      "midi": 59,
      "hit": false,
      "t": 8369.864966666666,
      "d": 51.36987500000032,
      "v": 32
    },
    {
      "midi": 60,
      "hit": false,
      "t": 8414.385525,
      "d": 51.36987500000032,
      "v": 35
    },
    {
      "midi": 38,
      "hit": false,
      "t": 8424.6595,
      "d": 102.73975000000064,
      "v": 89
    },
    {
      "midi": 40,
      "hit": false,
      "t": 8424.6595,
      "d": 102.73975000000064,
      "v": 89
    },
    {
      "midi": 46,
      "hit": false,
      "t": 8424.6595,
      "d": 102.73975000000064,
      "v": 107
    },
    {
      "midi": 67,
      "hit": false,
      "t": 8424.659500000003,
      "d": 71.91782500000045,
      "v": 86
    },
    {
      "midi": 71,
      "hit": false,
      "t": 8424.659500000003,
      "d": 71.91782500000045,
      "v": 86
    },
    {
      "midi": 62,
      "hit": false,
      "t": 8448.632108333333,
      "d": 58.21919166666703,
      "v": 38
    },
    {
      "midi": 64,
      "hit": false,
      "t": 8496.577325,
      "d": 61.643850000000384,
      "v": 42
    },
    {
      "midi": 67,
      "hit": false,
      "t": 8527.399250000004,
      "d": 78.76714166666716,
      "v": 104
    },
    {
      "midi": 72,
      "hit": false,
      "t": 8527.399250000004,
      "d": 78.76714166666716,
      "v": 104
    },
    {
      "midi": 65,
      "hit": false,
      "t": 8551.371858333334,
      "d": 54.794533333333675,
      "v": 46
    },
    {
      "midi": 67,
      "hit": false,
      "t": 8599.317075,
      "d": 54.794533333333675,
      "v": 50
    },
    {
      "midi": 36,
      "hit": false,
      "t": 8630.139,
      "d": 102.73975000000064,
      "v": 107
    },
    {
      "midi": 13,
      "hit": false,
      "t": 8630.139,
      "d": 102.73975000000064,
      "v": 127
    },
    {
      "midi": 38,
      "hit": false,
      "t": 8630.139000000001,
      "d": 102.73975000000064,
      "v": 100
    },
    {
      "midi": 40,
      "hit": false,
      "t": 8630.139000000001,
      "d": 102.73975000000064,
      "v": 100
    },
    {
      "midi": 42,
      "hit": false,
      "t": 8630.139000000001,
      "d": 102.73975000000064,
      "v": 107
    },
    {
      "midi": 67,
      "hit": false,
      "t": 8630.139000000005,
      "d": 27.397266666666837,
      "v": 45
    },
    {
      "midi": 71,
      "hit": false,
      "t": 8630.139000000005,
      "d": 27.397266666666837,
      "v": 45
    },
    {
      "midi": 69,
      "hit": false,
      "t": 8647.262291666668,
      "d": 54.794533333333675,
      "v": 54
    },
    {
      "midi": 71,
      "hit": false,
      "t": 8698.632166666668,
      "d": 44.52055833333361,
      "v": 58
    },
    {
      "midi": 38,
      "hit": false,
      "t": 8732.878750000002,
      "d": 102.73975000000064,
      "v": 77
    },
    {
      "midi": 40,
      "hit": false,
      "t": 8732.878750000002,
      "d": 102.73975000000064,
      "v": 77
    },
    {
      "midi": 67,
      "hit": false,
      "t": 8732.878750000005,
      "d": 71.91782500000045,
      "v": 100
    },
    {
      "midi": 71,
      "hit": false,
      "t": 8732.878750000005,
      "d": 71.91782500000045,
      "v": 100
    },
    {
      "midi": 72,
      "hit": false,
      "t": 8739.728066666668,
      "d": 41.095900000000256,
      "v": 62
    },
    {
      "midi": 74,
      "hit": false,
      "t": 8784.248625000002,
      "d": 34.24658333333355,
      "v": 65
    },
    {
      "midi": 76,
      "hit": false,
      "t": 8825.344525000002,
      "d": 34.24658333333355,
      "v": 68
    },
    {
      "midi": 46,
      "hit": false,
      "t": 8835.6185,
      "d": 205.47949999999946,
      "v": 107
    },
    {
      "midi": 67,
      "hit": false,
      "t": 8835.618500000006,
      "d": 75.3424833333338,
      "v": 71
    },
    {
      "midi": 72,
      "hit": false,
      "t": 8835.618500000006,
      "d": 75.3424833333338,
      "v": 71
    },
    {
      "midi": 77,
      "hit": false,
      "t": 8863.01576666667,
      "d": 37.6712416666669,
      "v": 71
    },
    {
      "midi": 79,
      "hit": false,
      "t": 8897.262350000003,
      "d": 41.095900000000256,
      "v": 74
    },
    {
      "midi": 81,
      "hit": false,
      "t": 8934.93359166667,
      "d": 44.52055833333361,
      "v": 77
    },
    {
      "midi": 38,
      "hit": false,
      "t": 8938.358250000003,
      "d": 102.73975000000064,
      "v": 105
    },
    {
      "midi": 40,
      "hit": false,
      "t": 8938.358250000003,
      "d": 102.73975000000064,
      "v": 105
    },
    {
      "midi": 67,
      "hit": false,
      "t": 8938.358250000007,
      "d": 51.36987500000032,
      "v": 89
    },
    {
      "midi": 71,
      "hit": false,
      "t": 8938.358250000007,
      "d": 51.36987500000032,
      "v": 89
    },
    {
      "midi": 83,
      "hit": false,
      "t": 8976.02949166667,
      "d": 51.36987500000032,
      "v": 80
    },
    {
      "midi": 84,
      "hit": false,
      "t": 9017.12539166667,
      "d": 78.76714166666716,
      "v": 84
    },
    {
      "midi": 36,
      "hit": false,
      "t": 9041.098,
      "d": 102.73975000000064,
      "v": 107
    },
    {
      "midi": 13,
      "hit": false,
      "t": 9041.098,
      "d": 102.73975000000064,
      "v": 127
    },
    {
      "midi": 42,
      "hit": false,
      "t": 9041.098000000002,
      "d": 102.73975000000064,
      "v": 102
    },
    {
      "midi": 38,
      "hit": false,
      "t": 9041.098000000004,
      "d": 102.73975000000064,
      "v": 83
    },
    {
      "midi": 40,
      "hit": false,
      "t": 9041.098000000004,
      "d": 102.73975000000064,
      "v": 83
    },
    {
      "midi": 67,
      "hit": false,
      "t": 9041.098000000007,
      "d": 65.06850833333374,
      "v": 77
    },
    {
      "midi": 71,
      "hit": false,
      "t": 9041.098000000007,
      "d": 65.06850833333374,
      "v": 77
    },
    {
      "midi": 86,
      "hit": false,
      "t": 9065.070608333337,
      "d": 75.3424833333338,
      "v": 105
    },
    {
      "midi": 95,
      "hit": false,
      "t": 9071.919925000004,
      "d": 51.36987500000032,
      "v": 105
    },
    {
      "midi": 93,
      "hit": false,
      "t": 9106.166508333337,
      "d": 54.794533333333675,
      "v": 103
    },
    {
      "midi": 67,
      "hit": false,
      "t": 9143.837750000008,
      "d": 78.76714166666716,
      "v": 110
    },
    {
      "midi": 72,
      "hit": false,
      "t": 9143.837750000008,
      "d": 78.76714166666716,
      "v": 110
    },
    {
      "midi": 91,
      "hit": false,
      "t": 9147.262408333338,
      "d": 47.945216666666965,
      "v": 101
    },
    {
      "midi": 89,
      "hit": false,
      "t": 9188.358308333338,
      "d": 44.52055833333361,
      "v": 101
    },
    {
      "midi": 88,
      "hit": false,
      "t": 9226.029550000005,
      "d": 44.52055833333361,
      "v": 93
    },
    {
      "midi": 46,
      "hit": false,
      "t": 9246.5775,
      "d": 102.73975000000064,
      "v": 107
    },
    {
      "midi": 38,
      "hit": false,
      "t": 9246.577500000005,
      "d": 51.36987500000032,
      "v": 21
    },
    {
      "midi": 40,
      "hit": false,
      "t": 9246.577500000005,
      "d": 51.36987500000032,
      "v": 22
    },
    {
      "midi": 67,
      "hit": false,
      "t": 9246.577500000009,
      "d": 61.643850000000384,
      "v": 77
    },
    {
      "midi": 71,
      "hit": false,
      "t": 9246.577500000009,
      "d": 61.643850000000384,
      "v": 77
    },
    {
      "midi": 86,
      "hit": false,
      "t": 9263.700791666672,
      "d": 51.36987500000032,
      "v": 91
    },
    {
      "midi": 84,
      "hit": false,
      "t": 9304.796691666672,
      "d": 51.36987500000032,
      "v": 89
    },
    {
      "midi": 83,
      "hit": false,
      "t": 9345.892591666672,
      "d": 51.36987500000032,
      "v": 85
    },
    {
      "midi": 38,
      "hit": false,
      "t": 9349.317250000006,
      "d": 51.36987500000032,
      "v": 39
    },
    {
      "midi": 40,
      "hit": false,
      "t": 9349.317250000006,
      "d": 51.36987500000032,
      "v": 39
    },
    {
      "midi": 67,
      "hit": false,
      "t": 9349.31725000001,
      "d": 27.397266666666837,
      "v": 44
    },
    {
      "midi": 71,
      "hit": false,
      "t": 9349.31725000001,
      "d": 27.397266666666837,
      "v": 44
    },
    {
      "midi": 81,
      "hit": false,
      "t": 9390.413150000006,
      "d": 47.945216666666965,
      "v": 82
    },
    {
      "midi": 79,
      "hit": false,
      "t": 9434.93370833334,
      "d": 47.945216666666965,
      "v": 79
    },
    {
      "midi": 36,
      "hit": false,
      "t": 9452.057,
      "d": 205.47949999999946,
      "v": 107
    },
    {
      "midi": 13,
      "hit": false,
      "t": 9452.057,
      "d": 205.47949999999946,
      "v": 127
    },
    {
      "midi": 42,
      "hit": false,
      "t": 9452.057000000003,
      "d": 102.73975000000064,
      "v": 107
    },
    {
      "midi": 38,
      "hit": false,
      "t": 9452.057000000006,
      "d": 102.73975000000064,
      "v": 60
    },
    {
      "midi": 40,
      "hit": false,
      "t": 9452.057000000006,
      "d": 102.73975000000064,
      "v": 60
    },
    {
      "midi": 67,
      "hit": false,
      "t": 9452.05700000001,
      "d": 71.91782500000045,
      "v": 110
    },
    {
      "midi": 72,
      "hit": false,
      "t": 9452.05700000001,
      "d": 71.91782500000045,
      "v": 110
    },
    {
      "midi": 77,
      "hit": false,
      "t": 9479.454266666673,
      "d": 51.36987500000032,
      "v": 76
    },
    {
      "midi": 76,
      "hit": false,
      "t": 9520.550166666673,
      "d": 54.794533333333675,
      "v": 74
    },
    {
      "midi": 38,
      "hit": false,
      "t": 9554.796750000007,
      "d": 102.73975000000064,
      "v": 82
    },
    {
      "midi": 40,
      "hit": false,
      "t": 9554.796750000007,
      "d": 102.73975000000064,
      "v": 82
    },
    {
      "midi": 67,
      "hit": false,
      "t": 9554.79675000001,
      "d": 27.397266666666837,
      "v": 42
    },
    {
      "midi": 71,
      "hit": false,
      "t": 9554.79675000001,
      "d": 27.397266666666837,
      "v": 42
    },
    {
      "midi": 74,
      "hit": false,
      "t": 9565.070725000007,
      "d": 54.794533333333675,
      "v": 69
    },
    {
      "midi": 72,
      "hit": false,
      "t": 9606.166625000007,
      "d": 54.794533333333675,
      "v": 66
    },
    {
      "midi": 71,
      "hit": false,
      "t": 9650.68718333334,
      "d": 54.794533333333675,
      "v": 64
    },
    {
      "midi": 46,
      "hit": false,
      "t": 9657.5365,
      "d": 102.73975000000064,
      "v": 107
    },
    {
      "midi": 38,
      "hit": false,
      "t": 9657.536500000007,
      "d": 102.73975000000064,
      "v": 104
    },
    {
      "midi": 40,
      "hit": false,
      "t": 9657.536500000007,
      "d": 102.73975000000064,
      "v": 104
    },
    {
      "midi": 67,
      "hit": false,
      "t": 9657.536500000011,
      "d": 68.4931666666671,
      "v": 115
    },
    {
      "midi": 71,
      "hit": false,
      "t": 9657.536500000011,
      "d": 68.4931666666671,
      "v": 115
    },
    {
      "midi": 69,
      "hit": false,
      "t": 9691.783083333341,
      "d": 54.794533333333675,
      "v": 63
    },
    {
      "midi": 67,
      "hit": false,
      "t": 9732.878983333341,
      "d": 54.794533333333675,
      "v": 63
    },
    {
      "midi": 38,
      "hit": false,
      "t": 9760.276250000008,
      "d": 102.73975000000064,
      "v": 127
    },
    {
      "midi": 40,
      "hit": false,
      "t": 9760.276250000008,
      "d": 102.73975000000064,
      "v": 127
    },
    {
      "midi": 67,
      "hit": false,
      "t": 9760.276250000012,
      "d": 27.397266666666837,
      "v": 70
    },
    {
      "midi": 71,
      "hit": false,
      "t": 9760.276250000012,
      "d": 27.397266666666837,
      "v": 70
    },
    {
      "midi": 65,
      "hit": false,
      "t": 9773.974883333341,
      "d": 47.945216666666965,
      "v": 63
    },
    {
      "midi": 64,
      "hit": false,
      "t": 9815.070783333342,
      "d": 34.24658333333355,
      "v": 63
    },
    {
      "midi": 62,
      "hit": false,
      "t": 9849.317366666675,
      "d": 17.123291666666773,
      "v": 49
    },
    {
      "midi": 31,
      "hit": false,
      "t": 9859.591341666666,
      "d": 154.10962499999914,
      "v": 107
    },
    {
      "midi": 62,
      "hit": false,
      "t": 9859.591341666666,
      "d": 205.47949999999946,
      "v": 122
    },
    {
      "midi": 74,
      "hit": false,
      "t": 9859.591341666666,
      "d": 205.47949999999946,
      "v": 122
    },
    {
      "midi": 62,
      "hit": false,
      "t": 9859.591341666668,
      "d": 205.47949999999946,
      "v": 109
    },
    {
      "midi": 74,
      "hit": false,
      "t": 9859.591341666668,
      "d": 205.47949999999946,
      "v": 109
    },
    {
      "midi": 62,
      "hit": false,
      "t": 9859.591341666668,
      "d": 205.47949999999946,
      "v": 109
    },
    {
      "midi": 74,
      "hit": false,
      "t": 9859.591341666668,
      "d": 205.47949999999946,
      "v": 109
    },
    {
      "midi": 43,
      "hit": false,
      "t": 9859.591341666675,
      "d": 102.73975000000064,
      "v": 75
    },
    {
      "midi": 50,
      "hit": false,
      "t": 9859.591341666675,
      "d": 102.73975000000064,
      "v": 67
    },
    {
      "midi": 55,
      "hit": false,
      "t": 9863.016,
      "d": 821.9179999999997,
      "v": 80
    },
    {
      "midi": 67,
      "hit": false,
      "t": 9863.016,
      "d": 821.9179999999997,
      "v": 80
    },
    {
      "midi": 62,
      "hit": false,
      "t": 9863.016,
      "d": 821.9179999999997,
      "v": 80
    },
    {
      "midi": 79,
      "hit": false,
      "t": 9863.016,
      "d": 616.4385000000002,
      "v": 80
    },
    {
      "midi": 36,
      "hit": false,
      "t": 9863.016,
      "d": 51.36987500000032,
      "v": 107
    },
    {
      "midi": 13,
      "hit": false,
      "t": 9863.016,
      "d": 51.36987500000032,
      "v": 127
    },
    {
      "midi": 70,
      "hit": false,
      "t": 9863.016,
      "d": 51.36987500000032,
      "v": 60
    },
    {
      "midi": 69,
      "hit": false,
      "t": 9863.016,
      "d": 51.36987500000032,
      "v": 50
    },
    {
      "midi": 42,
      "hit": false,
      "t": 9863.016000000003,
      "d": 102.73975000000064,
      "v": 107
    },
    {
      "midi": 60,
      "hit": false,
      "t": 9876.714633333342,
      "d": 10.273975000000064,
      "v": 47
    },
    {
      "midi": 70,
      "hit": false,
      "t": 9965.75575,
      "d": 51.36987500000032,
      "v": 49
    },
    {
      "midi": 69,
      "hit": false,
      "t": 9965.75575,
      "d": 51.36987500000032,
      "v": 39
    },
    {
      "midi": 43,
      "hit": false,
      "t": 10065.070841666666,
      "d": 51.36987500000032,
      "v": 107
    },
    {
      "midi": 64,
      "hit": false,
      "t": 10065.070841666666,
      "d": 102.73975000000064,
      "v": 115
    },
    {
      "midi": 76,
      "hit": false,
      "t": 10065.070841666666,
      "d": 102.73975000000064,
      "v": 115
    },
    {
      "midi": 43,
      "hit": false,
      "t": 10065.070841666677,
      "d": 102.73975000000064,
      "v": 55
    },
    {
      "midi": 50,
      "hit": false,
      "t": 10065.070841666677,
      "d": 102.73975000000064,
      "v": 65
    },
    {
      "midi": 64,
      "hit": false,
      "t": 10068.4955,
      "d": 102.73975000000064,
      "v": 103
    },
    {
      "midi": 76,
      "hit": false,
      "t": 10068.4955,
      "d": 102.73975000000064,
      "v": 103
    },
    {
      "midi": 64,
      "hit": false,
      "t": 10068.4955,
      "d": 102.73975000000064,
      "v": 103
    },
    {
      "midi": 76,
      "hit": false,
      "t": 10068.4955,
      "d": 102.73975000000064,
      "v": 103
    },
    {
      "midi": 46,
      "hit": false,
      "t": 10068.4955,
      "d": 102.73975000000064,
      "v": 107
    },
    {
      "midi": 70,
      "hit": false,
      "t": 10068.4955,
      "d": 51.36987500000032,
      "v": 109
    },
    {
      "midi": 69,
      "hit": false,
      "t": 10068.4955,
      "d": 51.36987500000032,
      "v": 99
    },
    {
      "midi": 67,
      "hit": false,
      "t": 10068.495500000012,
      "d": 205.47949999999946,
      "v": 80
    },
    {
      "midi": 55,
      "hit": false,
      "t": 10068.495500000012,
      "d": 205.47949999999946,
      "v": 83
    },
    {
      "midi": 74,
      "hit": false,
      "t": 10068.495500000012,
      "d": 205.47949999999946,
      "v": 105
    },
    {
      "midi": 62,
      "hit": false,
      "t": 10068.495500000012,
      "d": 205.47949999999946,
      "v": 110
    },
    {
      "midi": 43,
      "hit": false,
      "t": 10167.810591666666,
      "d": 51.36987500000032,
      "v": 107
    },
    {
      "midi": 62,
      "hit": false,
      "t": 10167.810591666666,
      "d": 102.73975000000064,
      "v": 122
    },
    {
      "midi": 74,
      "hit": false,
      "t": 10167.810591666666,
      "d": 102.73975000000064,
      "v": 122
    },
    {
      "midi": 62,
      "hit": false,
      "t": 10171.235250000002,
      "d": 102.73975000000064,
      "v": 109
    },
    {
      "midi": 74,
      "hit": false,
      "t": 10171.235250000002,
      "d": 102.73975000000064,
      "v": 109
    },
    {
      "midi": 62,
      "hit": false,
      "t": 10171.235250000002,
      "d": 102.73975000000064,
      "v": 109
    },
    {
      "midi": 74,
      "hit": false,
      "t": 10171.235250000002,
      "d": 102.73975000000064,
      "v": 109
    },
    {
      "midi": 70,
      "hit": false,
      "t": 10171.235250000002,
      "d": 51.36987500000032,
      "v": 53
    },
    {
      "midi": 69,
      "hit": false,
      "t": 10171.235250000002,
      "d": 51.36987500000032,
      "v": 43
    },
    {
      "midi": 109,
      "hit": false,
      "t": 10270.550341666665,
      "d": 51.36987500000032,
      "v": 127
    },
    {
      "midi": 31,
      "hit": false,
      "t": 10270.550341666667,
      "d": 205.47949999999946,
      "v": 107
    },
    {
      "midi": 67,
      "hit": false,
      "t": 10270.550341666667,
      "d": 102.73975000000064,
      "v": 122
    },
    {
      "midi": 79,
      "hit": false,
      "t": 10270.550341666667,
      "d": 102.73975000000064,
      "v": 122
    },
    {
      "midi": 50,
      "hit": false,
      "t": 10270.550341666678,
      "d": 308.2192500000001,
      "v": 71
    },
    {
      "midi": 43,
      "hit": false,
      "t": 10270.550341666678,
      "d": 308.2192500000001,
      "v": 71
    },
    {
      "midi": 36,
      "hit": false,
      "t": 10273.975,
      "d": 51.36987500000032,
      "v": 107
    },
    {
      "midi": 13,
      "hit": false,
      "t": 10273.975,
      "d": 51.36987500000032,
      "v": 127
    },
    {
      "midi": 67,
      "hit": false,
      "t": 10273.975000000002,
      "d": 102.73975000000064,
      "v": 109
    },
    {
      "midi": 79,
      "hit": false,
      "t": 10273.975000000002,
      "d": 102.73975000000064,
      "v": 109
    },
    {
      "midi": 67,
      "hit": false,
      "t": 10273.975000000002,
      "d": 102.73975000000064,
      "v": 109
    },
    {
      "midi": 79,
      "hit": false,
      "t": 10273.975000000002,
      "d": 102.73975000000064,
      "v": 109
    },
    {
      "midi": 70,
      "hit": false,
      "t": 10273.975000000002,
      "d": 51.36987500000032,
      "v": 60
    },
    {
      "midi": 69,
      "hit": false,
      "t": 10273.975000000002,
      "d": 51.36987500000032,
      "v": 50
    },
    {
      "midi": 42,
      "hit": false,
      "t": 10273.975000000004,
      "d": 102.73975000000064,
      "v": 107
    },
    {
      "midi": 38,
      "hit": false,
      "t": 10273.97500000001,
      "d": 51.36987500000032,
      "v": 88
    },
    {
      "midi": 40,
      "hit": false,
      "t": 10273.97500000001,
      "d": 51.36987500000032,
      "v": 88
    },
    {
      "midi": 69,
      "hit": false,
      "t": 10373.290091666668,
      "d": 102.73975000000064,
      "v": 110
    },
    {
      "midi": 81,
      "hit": false,
      "t": 10373.290091666668,
      "d": 102.73975000000064,
      "v": 110
    },
    {
      "midi": 69,
      "hit": false,
      "t": 10376.714750000003,
      "d": 102.73975000000064,
      "v": 99
    },
    {
      "midi": 81,
      "hit": false,
      "t": 10376.714750000003,
      "d": 102.73975000000064,
      "v": 99
    },
    {
      "midi": 69,
      "hit": false,
      "t": 10376.714750000003,
      "d": 102.73975000000064,
      "v": 99
    },
    {
      "midi": 81,
      "hit": false,
      "t": 10376.714750000003,
      "d": 102.73975000000064,
      "v": 99
    },
    {
      "midi": 70,
      "hit": false,
      "t": 10376.714750000003,
      "d": 51.36987500000032,
      "v": 49
    },
    {
      "midi": 69,
      "hit": false,
      "t": 10376.714750000003,
      "d": 51.36987500000032,
      "v": 39
    },
    {
      "midi": 43,
      "hit": false,
      "t": 10476.029841666666,
      "d": 51.36987500000032,
      "v": 107
    },
    {
      "midi": 70,
      "hit": false,
      "t": 10476.029841666668,
      "d": 102.73975000000064,
      "v": 110
    },
    {
      "midi": 82,
      "hit": false,
      "t": 10476.029841666668,
      "d": 102.73975000000064,
      "v": 110
    },
    {
      "midi": 46,
      "hit": false,
      "t": 10479.454500000002,
      "d": 205.47949999999946,
      "v": 107
    },
    {
      "midi": 70,
      "hit": false,
      "t": 10479.454500000003,
      "d": 102.73975000000064,
      "v": 99
    },
    {
      "midi": 82,
      "hit": false,
      "t": 10479.454500000003,
      "d": 102.73975000000064,
      "v": 99
    },
    {
      "midi": 70,
      "hit": false,
      "t": 10479.454500000003,
      "d": 102.73975000000064,
      "v": 99
    },
    {
      "midi": 82,
      "hit": false,
      "t": 10479.454500000003,
      "d": 102.73975000000064,
      "v": 99
    },
    {
      "midi": 70,
      "hit": false,
      "t": 10479.454500000003,
      "d": 51.36987500000032,
      "v": 109
    },
    {
      "midi": 69,
      "hit": false,
      "t": 10479.454500000003,
      "d": 51.36987500000032,
      "v": 99
    },
    {
      "midi": 67,
      "hit": false,
      "t": 10479.45450000001,
      "d": 205.47949999999946,
      "v": 80
    },
    {
      "midi": 55,
      "hit": false,
      "t": 10479.45450000001,
      "d": 205.47949999999946,
      "v": 89
    },
    {
      "midi": 74,
      "hit": false,
      "t": 10479.45450000001,
      "d": 205.47949999999946,
      "v": 89
    },
    {
      "midi": 62,
      "hit": false,
      "t": 10479.45450000001,
      "d": 205.47949999999946,
      "v": 89
    },
    {
      "midi": 31,
      "hit": false,
      "t": 10578.769591666667,
      "d": 154.10962499999914,
      "v": 107
    },
    {
      "midi": 71,
      "hit": false,
      "t": 10578.769591666669,
      "d": 102.73975000000064,
      "v": 105
    },
    {
      "midi": 83,
      "hit": false,
      "t": 10578.769591666669,
      "d": 102.73975000000064,
      "v": 105
    },
    {
      "midi": 71,
      "hit": false,
      "t": 10582.194250000004,
      "d": 102.73975000000064,
      "v": 94
    },
    {
      "midi": 83,
      "hit": false,
      "t": 10582.194250000004,
      "d": 102.73975000000064,
      "v": 94
    },
    {
      "midi": 71,
      "hit": false,
      "t": 10582.194250000004,
      "d": 102.73975000000064,
      "v": 94
    },
    {
      "midi": 83,
      "hit": false,
      "t": 10582.194250000004,
      "d": 102.73975000000064,
      "v": 94
    },
    {
      "midi": 70,
      "hit": false,
      "t": 10582.194250000004,
      "d": 51.36987500000032,
      "v": 53
    },
    {
      "midi": 69,
      "hit": false,
      "t": 10582.194250000004,
      "d": 51.36987500000032,
      "v": 43
    },
    {
      "midi": 38,
      "hit": false,
      "t": 10582.19425000001,
      "d": 51.36987500000032,
      "v": 88
    },
    {
      "midi": 40,
      "hit": false,
      "t": 10582.19425000001,
      "d": 51.36987500000032,
      "v": 88
    },
    {
      "midi": 50,
      "hit": false,
      "t": 10681.509341666679,
      "d": 308.2192500000001,
      "v": 65
    },
    {
      "midi": 43,
      "hit": false,
      "t": 10681.509341666679,
      "d": 308.2192500000001,
      "v": 75
    },
    {
      "midi": 74,
      "hit": false,
      "t": 10684.934,
      "d": 616.4385000000002,
      "v": 80
    },
    {
      "midi": 67,
      "hit": false,
      "t": 10684.934,
      "d": 616.4385000000002,
      "v": 80
    },
    {
      "midi": 62,
      "hit": false,
      "t": 10684.934,
      "d": 616.4385000000002,
      "v": 80
    },
    {
      "midi": 86,
      "hit": false,
      "t": 10684.934,
      "d": 410.95900000000074,
      "v": 80
    },
    {
      "midi": 36,
      "hit": false,
      "t": 10684.934000000001,
      "d": 51.36987500000032,
      "v": 107
    },
    {
      "midi": 13,
      "hit": false,
      "t": 10684.934000000001,
      "d": 51.36987500000032,
      "v": 127
    },
    {
      "midi": 42,
      "hit": false,
      "t": 10684.934000000005,
      "d": 102.73975000000064,
      "v": 102
    },
    {
      "midi": 70,
      "hit": false,
      "t": 10684.934000000005,
      "d": 51.36987500000032,
      "v": 60
    },
    {
      "midi": 69,
      "hit": false,
      "t": 10684.934000000005,
      "d": 51.36987500000032,
      "v": 50
    },
    {
      "midi": 43,
      "hit": false,
      "t": 10784.249091666667,
      "d": 51.36987500000032,
      "v": 107
    },
    {
      "midi": 72,
      "hit": false,
      "t": 10784.24909166667,
      "d": 102.73975000000064,
      "v": 127
    },
    {
      "midi": 84,
      "hit": false,
      "t": 10784.24909166667,
      "d": 102.73975000000064,
      "v": 127
    },
    {
      "midi": 72,
      "hit": false,
      "t": 10787.673750000005,
      "d": 102.73975000000064,
      "v": 114
    },
    {
      "midi": 84,
      "hit": false,
      "t": 10787.673750000005,
      "d": 102.73975000000064,
      "v": 114
    },
    {
      "midi": 72,
      "hit": false,
      "t": 10787.673750000005,
      "d": 102.73975000000064,
      "v": 114
    },
    {
      "midi": 84,
      "hit": false,
      "t": 10787.673750000005,
      "d": 102.73975000000064,
      "v": 114
    },
    {
      "midi": 70,
      "hit": false,
      "t": 10787.673750000005,
      "d": 51.36987500000032,
      "v": 49
    },
    {
      "midi": 69,
      "hit": false,
      "t": 10787.673750000005,
      "d": 51.36987500000032,
      "v": 39
    },
    {
      "midi": 38,
      "hit": false,
      "t": 10787.673750000009,
      "d": 51.36987500000032,
      "v": 70
    },
    {
      "midi": 40,
      "hit": false,
      "t": 10787.673750000009,
      "d": 51.36987500000032,
      "v": 70
    },
    {
      "midi": 31,
      "hit": false,
      "t": 10886.988841666667,
      "d": 154.10962499999914,
      "v": 107
    },
    {
      "midi": 46,
      "hit": false,
      "t": 10890.4135,
      "d": 102.73975000000064,
      "v": 107
    },
    {
      "midi": 70,
      "hit": false,
      "t": 10890.413500000006,
      "d": 51.36987500000032,
      "v": 109
    },
    {
      "midi": 69,
      "hit": false,
      "t": 10890.413500000006,
      "d": 51.36987500000032,
      "v": 99
    },
    {
      "midi": 67,
      "hit": false,
      "t": 10890.41350000001,
      "d": 205.47949999999946,
      "v": 83
    },
    {
      "midi": 55,
      "hit": false,
      "t": 10890.41350000001,
      "d": 205.47949999999946,
      "v": 75
    },
    {
      "midi": 74,
      "hit": false,
      "t": 10890.41350000001,
      "d": 205.47949999999946,
      "v": 96
    },
    {
      "midi": 62,
      "hit": false,
      "t": 10890.41350000001,
      "d": 205.47949999999946,
      "v": 105
    },
    {
      "midi": 73,
      "hit": false,
      "t": 10989.728591666671,
      "d": 102.73975000000064,
      "v": 122
    },
    {
      "midi": 85,
      "hit": false,
      "t": 10989.728591666671,
      "d": 102.73975000000064,
      "v": 122
    },
    {
      "midi": 73,
      "hit": false,
      "t": 10993.153250000007,
      "d": 102.73975000000064,
      "v": 109
    },
    {
      "midi": 85,
      "hit": false,
      "t": 10993.153250000007,
      "d": 102.73975000000064,
      "v": 109
    },
    {
      "midi": 73,
      "hit": false,
      "t": 10993.153250000007,
      "d": 102.73975000000064,
      "v": 109
    },
    {
      "midi": 85,
      "hit": false,
      "t": 10993.153250000007,
      "d": 102.73975000000064,
      "v": 109
    },
    {
      "midi": 70,
      "hit": false,
      "t": 10993.153250000007,
      "d": 51.36987500000032,
      "v": 53
    },
    {
      "midi": 69,
      "hit": false,
      "t": 10993.153250000007,
      "d": 51.36987500000032,
      "v": 43
    },
    {
      "midi": 109,
      "hit": false,
      "t": 11092.468341666665,
      "d": 51.36987500000032,
      "v": 127
    },
    {
      "midi": 43,
      "hit": false,
      "t": 11092.468341666667,
      "d": 51.36987500000032,
      "v": 107
    },
    {
      "midi": 74,
      "hit": false,
      "t": 11092.468341666672,
      "d": 102.73975000000064,
      "v": 122
    },
    {
      "midi": 86,
      "hit": false,
      "t": 11092.468341666672,
      "d": 102.73975000000064,
      "v": 122
    },
    {
      "midi": 50,
      "hit": false,
      "t": 11092.46834166668,
      "d": 102.73975000000064,
      "v": 67
    },
    {
      "midi": 43,
      "hit": false,
      "t": 11092.46834166668,
      "d": 102.73975000000064,
      "v": 63
    },
    {
      "midi": 36,
      "hit": false,
      "t": 11095.893000000002,
      "d": 51.36987500000032,
      "v": 107
    },
    {
      "midi": 13,
      "hit": false,
      "t": 11095.893000000002,
      "d": 51.36987500000032,
      "v": 127
    },
    {
      "midi": 42,
      "hit": false,
      "t": 11095.893000000005,
      "d": 102.73975000000064,
      "v": 107
    },
    {
      "midi": 74,
      "hit": false,
      "t": 11095.893000000007,
      "d": 102.73975000000064,
      "v": 109
    },
    {
      "midi": 86,
      "hit": false,
      "t": 11095.893000000007,
      "d": 102.73975000000064,
      "v": 109
    },
    {
      "midi": 74,
      "hit": false,
      "t": 11095.893000000007,
      "d": 102.73975000000064,
      "v": 109
    },
    {
      "midi": 86,
      "hit": false,
      "t": 11095.893000000007,
      "d": 102.73975000000064,
      "v": 109
    },
    {
      "midi": 70,
      "hit": false,
      "t": 11095.893000000007,
      "d": 51.36987500000032,
      "v": 60
    },
    {
      "midi": 69,
      "hit": false,
      "t": 11095.893000000007,
      "d": 51.36987500000032,
      "v": 50
    },
    {
      "midi": 38,
      "hit": false,
      "t": 11095.89300000001,
      "d": 51.36987500000032,
      "v": 88
    },
    {
      "midi": 40,
      "hit": false,
      "t": 11095.89300000001,
      "d": 51.36987500000032,
      "v": 88
    },
    {
      "midi": 29,
      "hit": false,
      "t": 11195.208091666667,
      "d": 51.36987500000032,
      "v": 107
    },
    {
      "midi": 70,
      "hit": false,
      "t": 11198.632750000008,
      "d": 51.36987500000032,
      "v": 49
    },
    {
      "midi": 69,
      "hit": false,
      "t": 11198.632750000008,
      "d": 51.36987500000032,
      "v": 39
    },
    {
      "midi": 29,
      "hit": false,
      "t": 11297.947841666668,
      "d": 205.47949999999946,
      "v": 107
    },
    {
      "midi": 72,
      "hit": false,
      "t": 11297.947841666673,
      "d": 205.47949999999946,
      "v": 115
    },
    {
      "midi": 62,
      "hit": false,
      "t": 11297.947841666673,
      "d": 205.47949999999946,
      "v": 105
    },
    {
      "midi": 67,
      "hit": false,
      "t": 11297.947841666673,
      "d": 205.47949999999946,
      "v": 122
    },
    {
      "midi": 41,
      "hit": false,
      "t": 11297.94784166668,
      "d": 205.47949999999946,
      "v": 82
    },
    {
      "midi": 48,
      "hit": false,
      "t": 11297.94784166668,
      "d": 205.47949999999946,
      "v": 65
    },
    {
      "midi": 72,
      "hit": false,
      "t": 11301.3725,
      "d": 1849.3155000000006,
      "v": 80
    },
    {
      "midi": 67,
      "hit": false,
      "t": 11301.3725,
      "d": 1849.3155000000006,
      "v": 80
    },
    {
      "midi": 62,
      "hit": false,
      "t": 11301.3725,
      "d": 1849.3155000000006,
      "v": 80
    },
    {
      "midi": 79,
      "hit": false,
      "t": 11301.3725,
      "d": 205.47949999999946,
      "v": 80
    },
    {
      "midi": 46,
      "hit": false,
      "t": 11301.372500000001,
      "d": 102.73975000000064,
      "v": 107
    },
    {
      "midi": 67,
      "hit": false,
      "t": 11301.372500000009,
      "d": 205.47949999999946,
      "v": 92
    },
    {
      "midi": 55,
      "hit": false,
      "t": 11301.372500000009,
      "d": 205.47949999999946,
      "v": 80
    },
    {
      "midi": 72,
      "hit": false,
      "t": 11301.372500000009,
      "d": 205.47949999999946,
      "v": 89
    },
    {
      "midi": 62,
      "hit": false,
      "t": 11301.372500000009,
      "d": 205.47949999999946,
      "v": 100
    },
    {
      "midi": 72,
      "hit": false,
      "t": 11301.372500000009,
      "d": 205.47949999999946,
      "v": 103
    },
    {
      "midi": 62,
      "hit": false,
      "t": 11301.372500000009,
      "d": 205.47949999999946,
      "v": 94
    },
    {
      "midi": 67,
      "hit": false,
      "t": 11301.372500000009,
      "d": 205.47949999999946,
      "v": 109
    },
    {
      "midi": 72,
      "hit": false,
      "t": 11301.372500000009,
      "d": 205.47949999999946,
      "v": 103
    },
    {
      "midi": 62,
      "hit": false,
      "t": 11301.372500000009,
      "d": 205.47949999999946,
      "v": 94
    },
    {
      "midi": 67,
      "hit": false,
      "t": 11301.372500000009,
      "d": 205.47949999999946,
      "v": 109
    },
    {
      "midi": 70,
      "hit": false,
      "t": 11301.372500000009,
      "d": 51.36987500000032,
      "v": 109
    },
    {
      "midi": 69,
      "hit": false,
      "t": 11301.372500000009,
      "d": 51.36987500000032,
      "v": 99
    },
    {
      "midi": 70,
      "hit": false,
      "t": 11404.11225000001,
      "d": 51.36987500000032,
      "v": 53
    },
    {
      "midi": 69,
      "hit": false,
      "t": 11404.11225000001,
      "d": 51.36987500000032,
      "v": 43
    },
    {
      "midi": 36,
      "hit": false,
      "t": 11506.852000000003,
      "d": 51.36987500000032,
      "v": 107
    },
    {
      "midi": 13,
      "hit": false,
      "t": 11506.852000000003,
      "d": 51.36987500000032,
      "v": 127
    },
    {
      "midi": 42,
      "hit": false,
      "t": 11506.852000000006,
      "d": 102.73975000000064,
      "v": 107
    },
    {
      "midi": 70,
      "hit": false,
      "t": 11506.85200000001,
      "d": 51.36987500000032,
      "v": 60
    },
    {
      "midi": 69,
      "hit": false,
      "t": 11506.85200000001,
      "d": 51.36987500000032,
      "v": 50
    },
    {
      "midi": 70,
      "hit": false,
      "t": 11609.59175000001,
      "d": 51.36987500000032,
      "v": 49
    },
    {
      "midi": 69,
      "hit": false,
      "t": 11609.59175000001,
      "d": 51.36987500000032,
      "v": 39
    },
    {
      "midi": 29,
      "hit": false,
      "t": 11708.906841666667,
      "d": 205.47949999999946,
      "v": 107
    },
    {
      "midi": 72,
      "hit": false,
      "t": 11708.906841666672,
      "d": 205.47949999999946,
      "v": 127
    },
    {
      "midi": 62,
      "hit": false,
      "t": 11708.906841666672,
      "d": 205.47949999999946,
      "v": 122
    },
    {
      "midi": 67,
      "hit": false,
      "t": 11708.906841666672,
      "d": 205.47949999999946,
      "v": 127
    },
    {
      "midi": 48,
      "hit": false,
      "t": 11708.90684166668,
      "d": 205.47949999999946,
      "v": 67
    },
    {
      "midi": 41,
      "hit": false,
      "t": 11708.90684166668,
      "d": 205.47949999999946,
      "v": 85
    },
    {
      "midi": 79,
      "hit": false,
      "t": 11712.331499999998,
      "d": 205.47949999999946,
      "v": 80
    },
    {
      "midi": 46,
      "hit": false,
      "t": 11712.331500000002,
      "d": 102.73975000000064,
      "v": 107
    },
    {
      "midi": 55,
      "hit": false,
      "t": 11712.331500000008,
      "d": 102.73975000000064,
      "v": 89
    },
    {
      "midi": 72,
      "hit": false,
      "t": 11712.331500000008,
      "d": 205.47950000000128,
      "v": 89
    },
    {
      "midi": 62,
      "hit": false,
      "t": 11712.331500000008,
      "d": 205.47950000000128,
      "v": 110
    },
    {
      "midi": 67,
      "hit": false,
      "t": 11712.331500000008,
      "d": 205.47950000000128,
      "v": 92
    },
    {
      "midi": 72,
      "hit": false,
      "t": 11712.331500000008,
      "d": 205.47949999999946,
      "v": 114
    },
    {
      "midi": 62,
      "hit": false,
      "t": 11712.331500000008,
      "d": 205.47949999999946,
      "v": 109
    },
    {
      "midi": 67,
      "hit": false,
      "t": 11712.331500000008,
      "d": 205.47949999999946,
      "v": 114
    },
    {
      "midi": 72,
      "hit": false,
      "t": 11712.331500000008,
      "d": 205.47949999999946,
      "v": 114
    },
    {
      "midi": 62,
      "hit": false,
      "t": 11712.331500000008,
      "d": 205.47949999999946,
      "v": 109
    },
    {
      "midi": 67,
      "hit": false,
      "t": 11712.331500000008,
      "d": 205.47949999999946,
      "v": 114
    },
    {
      "midi": 70,
      "hit": false,
      "t": 11712.331500000011,
      "d": 51.36987500000032,
      "v": 109
    },
    {
      "midi": 69,
      "hit": false,
      "t": 11712.331500000011,
      "d": 51.36987500000032,
      "v": 99
    },
    {
      "midi": 70,
      "hit": false,
      "t": 11815.071250000012,
      "d": 51.36987500000032,
      "v": 53
    },
    {
      "midi": 69,
      "hit": false,
      "t": 11815.071250000012,
      "d": 51.36987500000032,
      "v": 43
    },
    {
      "midi": 109,
      "hit": false,
      "t": 11914.386341666665,
      "d": 51.36987500000032,
      "v": 127
    },
    {
      "midi": 36,
      "hit": false,
      "t": 11917.811000000003,
      "d": 51.36987500000032,
      "v": 107
    },
    {
      "midi": 13,
      "hit": false,
      "t": 11917.811000000003,
      "d": 51.36987500000032,
      "v": 127
    },
    {
      "midi": 42,
      "hit": false,
      "t": 11917.811000000007,
      "d": 102.73975000000064,
      "v": 107
    },
    {
      "midi": 38,
      "hit": false,
      "t": 11917.811000000009,
      "d": 51.36987500000032,
      "v": 88
    },
    {
      "midi": 40,
      "hit": false,
      "t": 11917.811000000009,
      "d": 51.36987500000032,
      "v": 88
    },
    {
      "midi": 70,
      "hit": false,
      "t": 11917.811000000012,
      "d": 51.36987500000032,
      "v": 60
    },
    {
      "midi": 69,
      "hit": false,
      "t": 11917.811000000012,
      "d": 51.36987500000032,
      "v": 50
    },
    {
      "midi": 70,
      "hit": false,
      "t": 12020.550750000013,
      "d": 51.36987500000032,
      "v": 49
    },
    {
      "midi": 69,
      "hit": false,
      "t": 12020.550750000013,
      "d": 51.36987500000032,
      "v": 39
    },
    {
      "midi": 29,
      "hit": false,
      "t": 12119.865841666666,
      "d": 154.10962499999914,
      "v": 107
    },
    {
      "midi": 72,
      "hit": false,
      "t": 12119.865841666671,
      "d": 102.73975000000064,
      "v": 122
    },
    {
      "midi": 62,
      "hit": false,
      "t": 12119.865841666671,
      "d": 102.73975000000064,
      "v": 122
    },
    {
      "midi": 67,
      "hit": false,
      "t": 12119.865841666671,
      "d": 102.73975000000064,
      "v": 127
    },
    {
      "midi": 48,
      "hit": false,
      "t": 12119.865841666679,
      "d": 102.73975000000064,
      "v": 65
    },
    {
      "midi": 41,
      "hit": false,
      "t": 12119.865841666679,
      "d": 102.73975000000064,
      "v": 75
    },
    {
      "midi": 79,
      "hit": false,
      "t": 12123.290499999997,
      "d": 102.73975000000064,
      "v": 80
    },
    {
      "midi": 46,
      "hit": false,
      "t": 12123.290500000003,
      "d": 205.47949999999946,
      "v": 107
    },
    {
      "midi": 72,
      "hit": false,
      "t": 12123.290500000006,
      "d": 102.73975000000064,
      "v": 109
    },
    {
      "midi": 62,
      "hit": false,
      "t": 12123.290500000006,
      "d": 102.73975000000064,
      "v": 109
    },
    {
      "midi": 67,
      "hit": false,
      "t": 12123.290500000006,
      "d": 102.73975000000064,
      "v": 114
    },
    {
      "midi": 72,
      "hit": false,
      "t": 12123.290500000006,
      "d": 102.73975000000064,
      "v": 109
    },
    {
      "midi": 62,
      "hit": false,
      "t": 12123.290500000006,
      "d": 102.73975000000064,
      "v": 109
    },
    {
      "midi": 67,
      "hit": false,
      "t": 12123.290500000006,
      "d": 102.73975000000064,
      "v": 114
    },
    {
      "midi": 67,
      "hit": false,
      "t": 12123.290500000008,
      "d": 102.73975000000064,
      "v": 96
    },
    {
      "midi": 62,
      "hit": false,
      "t": 12123.290500000008,
      "d": 102.73975000000064,
      "v": 105
    },
    {
      "midi": 55,
      "hit": false,
      "t": 12123.290500000008,
      "d": 102.73975000000064,
      "v": 69
    },
    {
      "midi": 72,
      "hit": false,
      "t": 12123.290500000008,
      "d": 205.47950000000128,
      "v": 80
    },
    {
      "midi": 70,
      "hit": false,
      "t": 12123.290500000014,
      "d": 51.36987500000032,
      "v": 109
    },
    {
      "midi": 69,
      "hit": false,
      "t": 12123.290500000014,
      "d": 51.36987500000032,
      "v": 99
    },
    {
      "midi": 38,
      "hit": false,
      "t": 12226.030250000009,
      "d": 51.36987500000032,
      "v": 88
    },
    {
      "midi": 40,
      "hit": false,
      "t": 12226.030250000009,
      "d": 51.36987500000032,
      "v": 88
    },
    {
      "midi": 70,
      "hit": false,
      "t": 12226.030250000014,
      "d": 51.36987500000032,
      "v": 53
    },
    {
      "midi": 69,
      "hit": false,
      "t": 12226.030250000014,
      "d": 51.36987500000032,
      "v": 43
    },
    {
      "midi": 29,
      "hit": false,
      "t": 12325.345341666665,
      "d": 205.47949999999946,
      "v": 107
    },
    {
      "midi": 72,
      "hit": false,
      "t": 12325.345341666673,
      "d": 205.47949999999946,
      "v": 127
    },
    {
      "midi": 62,
      "hit": false,
      "t": 12325.345341666673,
      "d": 205.47949999999946,
      "v": 122
    },
    {
      "midi": 67,
      "hit": false,
      "t": 12325.345341666673,
      "d": 205.47949999999946,
      "v": 127
    },
    {
      "midi": 48,
      "hit": false,
      "t": 12325.34534166668,
      "d": 308.2192500000001,
      "v": 65
    },
    {
      "midi": 41,
      "hit": false,
      "t": 12325.34534166668,
      "d": 308.2192500000001,
      "v": 82
    },
    {
      "midi": 79,
      "hit": false,
      "t": 12328.769999999999,
      "d": 205.47949999999946,
      "v": 80
    },
    {
      "midi": 36,
      "hit": false,
      "t": 12328.770000000004,
      "d": 51.36987500000032,
      "v": 107
    },
    {
      "midi": 13,
      "hit": false,
      "t": 12328.770000000004,
      "d": 51.36987500000032,
      "v": 127
    },
    {
      "midi": 72,
      "hit": false,
      "t": 12328.770000000008,
      "d": 205.47949999999946,
      "v": 114
    },
    {
      "midi": 62,
      "hit": false,
      "t": 12328.770000000008,
      "d": 205.47949999999946,
      "v": 109
    },
    {
      "midi": 67,
      "hit": false,
      "t": 12328.770000000008,
      "d": 205.47949999999946,
      "v": 114
    },
    {
      "midi": 72,
      "hit": false,
      "t": 12328.770000000008,
      "d": 205.47949999999946,
      "v": 114
    },
    {
      "midi": 62,
      "hit": false,
      "t": 12328.770000000008,
      "d": 205.47949999999946,
      "v": 109
    },
    {
      "midi": 67,
      "hit": false,
      "t": 12328.770000000008,
      "d": 205.47949999999946,
      "v": 114
    },
    {
      "midi": 42,
      "hit": false,
      "t": 12328.770000000008,
      "d": 102.73975000000064,
      "v": 102
    },
    {
      "midi": 67,
      "hit": false,
      "t": 12328.77000000001,
      "d": 102.73975000000064,
      "v": 96
    },
    {
      "midi": 62,
      "hit": false,
      "t": 12328.77000000001,
      "d": 102.73975000000064,
      "v": 115
    },
    {
      "midi": 55,
      "hit": false,
      "t": 12328.77000000001,
      "d": 102.73975000000064,
      "v": 89
    },
    {
      "midi": 72,
      "hit": false,
      "t": 12328.77000000001,
      "d": 205.47950000000128,
      "v": 75
    },
    {
      "midi": 70,
      "hit": false,
      "t": 12328.770000000015,
      "d": 51.36987500000032,
      "v": 60
    },
    {
      "midi": 69,
      "hit": false,
      "t": 12328.770000000015,
      "d": 51.36987500000032,
      "v": 50
    },
    {
      "midi": 38,
      "hit": false,
      "t": 12431.509750000008,
      "d": 51.36987500000032,
      "v": 70
    },
    {
      "midi": 40,
      "hit": false,
      "t": 12431.509750000008,
      "d": 51.36987500000032,
      "v": 70
    },
    {
      "midi": 70,
      "hit": false,
      "t": 12431.509750000016,
      "d": 51.36987500000032,
      "v": 49
    },
    {
      "midi": 69,
      "hit": false,
      "t": 12431.509750000016,
      "d": 51.36987500000032,
      "v": 39
    },
    {
      "midi": 46,
      "hit": false,
      "t": 12534.249500000002,
      "d": 102.73975000000064,
      "v": 107
    },
    {
      "midi": 70,
      "hit": false,
      "t": 12534.249500000016,
      "d": 51.36987500000032,
      "v": 109
    },
    {
      "midi": 69,
      "hit": false,
      "t": 12534.249500000016,
      "d": 51.36987500000032,
      "v": 99
    },
    {
      "midi": 70,
      "hit": false,
      "t": 12636.989250000017,
      "d": 51.36987500000032,
      "v": 53
    },
    {
      "midi": 69,
      "hit": false,
      "t": 12636.989250000017,
      "d": 51.36987500000032,
      "v": 43
    },
    {
      "midi": 29,
      "hit": false,
      "t": 12736.304341666664,
      "d": 205.47949999999946,
      "v": 107
    },
    {
      "midi": 109,
      "hit": false,
      "t": 12736.304341666664,
      "d": 51.36987500000032,
      "v": 127
    },
    {
      "midi": 72,
      "hit": false,
      "t": 12736.304341666671,
      "d": 205.47949999999946,
      "v": 122
    },
    {
      "midi": 62,
      "hit": false,
      "t": 12736.304341666671,
      "d": 205.47949999999946,
      "v": 127
    },
    {
      "midi": 67,
      "hit": false,
      "t": 12736.304341666671,
      "d": 205.47949999999946,
      "v": 127
    },
    {
      "midi": 48,
      "hit": false,
      "t": 12736.30434166668,
      "d": 308.2192500000001,
      "v": 65
    },
    {
      "midi": 41,
      "hit": false,
      "t": 12736.30434166668,
      "d": 308.2192500000001,
      "v": 71
    },
    {
      "midi": 79,
      "hit": false,
      "t": 12739.728999999998,
      "d": 205.47949999999946,
      "v": 80
    },
    {
      "midi": 36,
      "hit": false,
      "t": 12739.729000000005,
      "d": 51.36987500000032,
      "v": 107
    },
    {
      "midi": 13,
      "hit": false,
      "t": 12739.729000000005,
      "d": 51.36987500000032,
      "v": 127
    },
    {
      "midi": 72,
      "hit": false,
      "t": 12739.729000000007,
      "d": 205.47949999999946,
      "v": 109
    },
    {
      "midi": 62,
      "hit": false,
      "t": 12739.729000000007,
      "d": 205.47949999999946,
      "v": 114
    },
    {
      "midi": 67,
      "hit": false,
      "t": 12739.729000000007,
      "d": 205.47949999999946,
      "v": 114
    },
    {
      "midi": 72,
      "hit": false,
      "t": 12739.729000000007,
      "d": 205.47949999999946,
      "v": 109
    },
    {
      "midi": 62,
      "hit": false,
      "t": 12739.729000000007,
      "d": 205.47949999999946,
      "v": 114
    },
    {
      "midi": 67,
      "hit": false,
      "t": 12739.729000000007,
      "d": 205.47949999999946,
      "v": 114
    },
    {
      "midi": 38,
      "hit": false,
      "t": 12739.729000000008,
      "d": 51.36987500000032,
      "v": 88
    },
    {
      "midi": 40,
      "hit": false,
      "t": 12739.729000000008,
      "d": 51.36987500000032,
      "v": 88
    },
    {
      "midi": 42,
      "hit": false,
      "t": 12739.729000000008,
      "d": 102.73975000000064,
      "v": 107
    },
    {
      "midi": 67,
      "hit": false,
      "t": 12739.72900000001,
      "d": 102.73975000000064,
      "v": 100
    },
    {
      "midi": 62,
      "hit": false,
      "t": 12739.72900000001,
      "d": 102.73975000000064,
      "v": 115
    },
    {
      "midi": 72,
      "hit": false,
      "t": 12739.72900000001,
      "d": 205.47950000000128,
      "v": 96
    },
    {
      "midi": 55,
      "hit": false,
      "t": 12739.72900000001,
      "d": 205.47950000000128,
      "v": 96
    },
    {
      "midi": 70,
      "hit": false,
      "t": 12739.729000000018,
      "d": 51.36987500000032,
      "v": 60
    },
    {
      "midi": 69,
      "hit": false,
      "t": 12739.729000000018,
      "d": 51.36987500000032,
      "v": 50
    },
    {
      "midi": 70,
      "hit": false,
      "t": 12842.468750000018,
      "d": 51.36987500000032,
      "v": 49
    },
    {
      "midi": 69,
      "hit": false,
      "t": 12842.468750000018,
      "d": 51.36987500000032,
      "v": 39
    },
    {
      "midi": 46,
      "hit": false,
      "t": 12945.208500000002,
      "d": 102.73975000000064,
      "v": 107
    },
    {
      "midi": 36,
      "hit": false,
      "t": 12945.208500000004,
      "d": 51.36987500000032,
      "v": 107
    },
    {
      "midi": 13,
      "hit": false,
      "t": 12945.208500000004,
      "d": 51.36987500000032,
      "v": 127
    },
    {
      "midi": 38,
      "hit": false,
      "t": 12945.208500000008,
      "d": 51.36987500000032,
      "v": 58
    },
    {
      "midi": 40,
      "hit": false,
      "t": 12945.208500000008,
      "d": 51.36987500000032,
      "v": 58
    },
    {
      "midi": 70,
      "hit": false,
      "t": 12945.208500000019,
      "d": 51.36987500000032,
      "v": 109
    },
    {
      "midi": 69,
      "hit": false,
      "t": 12945.208500000019,
      "d": 51.36987500000032,
      "v": 99
    },
    {
      "midi": 38,
      "hit": false,
      "t": 13047.948250000009,
      "d": 51.36987500000032,
      "v": 88
    },
    {
      "midi": 40,
      "hit": false,
      "t": 13047.948250000009,
      "d": 51.36987500000032,
      "v": 88
    },
    {
      "midi": 48,
      "hit": false,
      "t": 13047.948250000012,
      "d": 102.73975000000064,
      "v": 40
    },
    {
      "midi": 70,
      "hit": false,
      "t": 13047.94825000002,
      "d": 51.36987500000032,
      "v": 53
    },
    {
      "midi": 69,
      "hit": false,
      "t": 13047.94825000002,
      "d": 51.36987500000032,
      "v": 43
    },
    {
      "midi": 31,
      "hit": false,
      "t": 13147.263341666663,
      "d": 154.10962499999914,
      "v": 107
    },
    {
      "midi": 71,
      "hit": false,
      "t": 13147.26334166667,
      "d": 205.47949999999946,
      "v": 127
    },
    {
      "midi": 83,
      "hit": false,
      "t": 13147.26334166667,
      "d": 205.47949999999946,
      "v": 127
    },
    {
      "midi": 50,
      "hit": false,
      "t": 13147.263341666681,
      "d": 102.73975000000064,
      "v": 82
    },
    {
      "midi": 43,
      "hit": false,
      "t": 13147.263341666681,
      "d": 102.73975000000064,
      "v": 71
    },
    {
      "midi": 74,
      "hit": false,
      "t": 13150.687999999996,
      "d": 616.4385000000002,
      "v": 80
    },
    {
      "midi": 57,
      "hit": false,
      "t": 13150.687999999998,
      "d": 51.36987500000032,
      "v": 84
    },
    {
      "midi": 55,
      "hit": false,
      "t": 13150.688,
      "d": 821.9179999999997,
      "v": 80
    },
    {
      "midi": 67,
      "hit": false,
      "t": 13150.688,
      "d": 821.9179999999997,
      "v": 80
    },
    {
      "midi": 62,
      "hit": false,
      "t": 13150.688,
      "d": 821.9179999999997,
      "v": 80
    },
    {
      "midi": 36,
      "hit": false,
      "t": 13150.688000000004,
      "d": 51.36987500000032,
      "v": 107
    },
    {
      "midi": 13,
      "hit": false,
      "t": 13150.688000000004,
      "d": 51.36987500000032,
      "v": 127
    },
    {
      "midi": 71,
      "hit": false,
      "t": 13150.688000000006,
      "d": 205.47949999999946,
      "v": 114
    },
    {
      "midi": 83,
      "hit": false,
      "t": 13150.688000000006,
      "d": 205.47949999999946,
      "v": 114
    },
    {
      "midi": 71,
      "hit": false,
      "t": 13150.688000000006,
      "d": 205.47949999999946,
      "v": 114
    },
    {
      "midi": 83,
      "hit": false,
      "t": 13150.688000000006,
      "d": 205.47949999999946,
      "v": 114
    },
    {
      "midi": 42,
      "hit": false,
      "t": 13150.68800000001,
      "d": 102.73975000000064,
      "v": 107
    },
    {
      "midi": 50,
      "hit": false,
      "t": 13150.688000000013,
      "d": 205.47949999999946,
      "v": 66
    },
    {
      "midi": 70,
      "hit": false,
      "t": 13150.68800000002,
      "d": 51.36987500000032,
      "v": 60
    },
    {
      "midi": 69,
      "hit": false,
      "t": 13150.68800000002,
      "d": 51.36987500000032,
      "v": 50
    },
    {
      "midi": 70,
      "hit": false,
      "t": 13253.42775000002,
      "d": 51.36987500000032,
      "v": 49
    },
    {
      "midi": 69,
      "hit": false,
      "t": 13253.42775000002,
      "d": 51.36987500000032,
      "v": 39
    },
    {
      "midi": 43,
      "hit": false,
      "t": 13352.742841666663,
      "d": 51.36987500000032,
      "v": 107
    },
    {
      "midi": 72,
      "hit": false,
      "t": 13352.74284166667,
      "d": 102.73975000000064,
      "v": 122
    },
    {
      "midi": 84,
      "hit": false,
      "t": 13352.74284166667,
      "d": 102.73975000000064,
      "v": 122
    },
    {
      "midi": 50,
      "hit": false,
      "t": 13352.742841666683,
      "d": 102.73975000000064,
      "v": 65
    },
    {
      "midi": 43,
      "hit": false,
      "t": 13352.742841666683,
      "d": 102.73975000000064,
      "v": 55
    },
    {
      "midi": 46,
      "hit": false,
      "t": 13356.167500000003,
      "d": 102.73975000000064,
      "v": 107
    },
    {
      "midi": 72,
      "hit": false,
      "t": 13356.167500000005,
      "d": 102.73975000000064,
      "v": 109
    },
    {
      "midi": 84,
      "hit": false,
      "t": 13356.167500000005,
      "d": 102.73975000000064,
      "v": 109
    },
    {
      "midi": 72,
      "hit": false,
      "t": 13356.167500000005,
      "d": 102.73975000000064,
      "v": 109
    },
    {
      "midi": 84,
      "hit": false,
      "t": 13356.167500000005,
      "d": 102.73975000000064,
      "v": 109
    },
    {
      "midi": 55,
      "hit": false,
      "t": 13356.167500000012,
      "d": 102.73975000000064,
      "v": 65
    },
    {
      "midi": 62,
      "hit": false,
      "t": 13356.167500000012,
      "d": 102.73975000000064,
      "v": 100
    },
    {
      "midi": 70,
      "hit": false,
      "t": 13356.167500000021,
      "d": 51.36987500000032,
      "v": 109
    },
    {
      "midi": 69,
      "hit": false,
      "t": 13356.167500000021,
      "d": 51.36987500000032,
      "v": 99
    },
    {
      "midi": 43,
      "hit": false,
      "t": 13455.482591666663,
      "d": 51.36987500000032,
      "v": 107
    },
    {
      "midi": 73,
      "hit": false,
      "t": 13455.48259166667,
      "d": 102.73975000000064,
      "v": 105
    },
    {
      "midi": 85,
      "hit": false,
      "t": 13455.48259166667,
      "d": 102.73975000000064,
      "v": 105
    },
    {
      "midi": 73,
      "hit": false,
      "t": 13458.907250000006,
      "d": 102.73975000000064,
      "v": 94
    },
    {
      "midi": 85,
      "hit": false,
      "t": 13458.907250000006,
      "d": 102.73975000000064,
      "v": 94
    },
    {
      "midi": 73,
      "hit": false,
      "t": 13458.907250000006,
      "d": 102.73975000000064,
      "v": 94
    },
    {
      "midi": 85,
      "hit": false,
      "t": 13458.907250000006,
      "d": 102.73975000000064,
      "v": 94
    },
    {
      "midi": 74,
      "hit": false,
      "t": 13458.907250000013,
      "d": 102.73975000000064,
      "v": 92
    },
    {
      "midi": 67,
      "hit": false,
      "t": 13458.907250000013,
      "d": 102.73975000000064,
      "v": 96
    },
    {
      "midi": 70,
      "hit": false,
      "t": 13458.907250000022,
      "d": 51.36987500000032,
      "v": 53
    },
    {
      "midi": 69,
      "hit": false,
      "t": 13458.907250000022,
      "d": 51.36987500000032,
      "v": 43
    },
    {
      "midi": 31,
      "hit": false,
      "t": 13558.222341666664,
      "d": 154.10962499999914,
      "v": 107
    },
    {
      "midi": 109,
      "hit": false,
      "t": 13558.222341666664,
      "d": 51.36987500000032,
      "v": 127
    },
    {
      "midi": 74,
      "hit": false,
      "t": 13558.222341666671,
      "d": 102.73975000000064,
      "v": 116
    },
    {
      "midi": 86,
      "hit": false,
      "t": 13558.222341666671,
      "d": 102.73975000000064,
      "v": 116
    },
    {
      "midi": 50,
      "hit": false,
      "t": 13558.222341666684,
      "d": 308.2192500000001,
      "v": 71
    },
    {
      "midi": 43,
      "hit": false,
      "t": 13558.222341666684,
      "d": 308.2192500000001,
      "v": 67
    },
    {
      "midi": 36,
      "hit": false,
      "t": 13561.647000000004,
      "d": 51.36987500000032,
      "v": 107
    },
    {
      "midi": 13,
      "hit": false,
      "t": 13561.647000000004,
      "d": 51.36987500000032,
      "v": 127
    },
    {
      "midi": 74,
      "hit": false,
      "t": 13561.647000000006,
      "d": 102.73975000000064,
      "v": 104
    },
    {
      "midi": 86,
      "hit": false,
      "t": 13561.647000000006,
      "d": 102.73975000000064,
      "v": 104
    },
    {
      "midi": 74,
      "hit": false,
      "t": 13561.647000000006,
      "d": 102.73975000000064,
      "v": 104
    },
    {
      "midi": 86,
      "hit": false,
      "t": 13561.647000000006,
      "d": 102.73975000000064,
      "v": 104
    },
    {
      "midi": 38,
      "hit": false,
      "t": 13561.647000000008,
      "d": 51.36987500000032,
      "v": 88
    },
    {
      "midi": 40,
      "hit": false,
      "t": 13561.647000000008,
      "d": 51.36987500000032,
      "v": 88
    },
    {
      "midi": 42,
      "hit": false,
      "t": 13561.64700000001,
      "d": 102.73975000000064,
      "v": 107
    },
    {
      "midi": 70,
      "hit": false,
      "t": 13561.647000000023,
      "d": 51.36987500000032,
      "v": 60
    },
    {
      "midi": 69,
      "hit": false,
      "t": 13561.647000000023,
      "d": 51.36987500000032,
      "v": 50
    },
    {
      "midi": 71,
      "hit": false,
      "t": 13660.962091666672,
      "d": 102.73975000000064,
      "v": 110
    },
    {
      "midi": 83,
      "hit": false,
      "t": 13660.962091666672,
      "d": 102.73975000000064,
      "v": 110
    },
    {
      "midi": 71,
      "hit": false,
      "t": 13664.386750000007,
      "d": 102.73975000000064,
      "v": 99
    },
    {
      "midi": 83,
      "hit": false,
      "t": 13664.386750000007,
      "d": 102.73975000000064,
      "v": 99
    },
    {
      "midi": 71,
      "hit": false,
      "t": 13664.386750000007,
      "d": 102.73975000000064,
      "v": 99
    },
    {
      "midi": 83,
      "hit": false,
      "t": 13664.386750000007,
      "d": 102.73975000000064,
      "v": 99
    },
    {
      "midi": 70,
      "hit": false,
      "t": 13664.386750000023,
      "d": 51.36987500000032,
      "v": 49
    },
    {
      "midi": 69,
      "hit": false,
      "t": 13664.386750000023,
      "d": 51.36987500000032,
      "v": 39
    },
    {
      "midi": 43,
      "hit": false,
      "t": 13763.701841666663,
      "d": 51.36987500000032,
      "v": 107
    },
    {
      "midi": 69,
      "hit": false,
      "t": 13763.701841666672,
      "d": 102.73975000000064,
      "v": 96
    },
    {
      "midi": 81,
      "hit": false,
      "t": 13763.701841666672,
      "d": 102.73975000000064,
      "v": 96
    },
    {
      "midi": 46,
      "hit": false,
      "t": 13767.126500000004,
      "d": 205.47949999999946,
      "v": 107
    },
    {
      "midi": 69,
      "hit": false,
      "t": 13767.126500000008,
      "d": 102.73975000000064,
      "v": 86
    },
    {
      "midi": 81,
      "hit": false,
      "t": 13767.126500000008,
      "d": 102.73975000000064,
      "v": 86
    },
    {
      "midi": 69,
      "hit": false,
      "t": 13767.126500000008,
      "d": 102.73975000000064,
      "v": 86
    },
    {
      "midi": 81,
      "hit": false,
      "t": 13767.126500000008,
      "d": 102.73975000000064,
      "v": 86
    },
    {
      "midi": 55,
      "hit": false,
      "t": 13767.126500000013,
      "d": 102.73975000000064,
      "v": 86
    },
    {
      "midi": 62,
      "hit": false,
      "t": 13767.126500000013,
      "d": 205.47950000000128,
      "v": 89
    },
    {
      "midi": 67,
      "hit": false,
      "t": 13767.126500000013,
      "d": 205.47950000000128,
      "v": 89
    },
    {
      "midi": 74,
      "hit": false,
      "t": 13767.126500000013,
      "d": 205.47950000000128,
      "v": 105
    },
    {
      "midi": 70,
      "hit": false,
      "t": 13767.126500000024,
      "d": 51.36987500000032,
      "v": 109
    },
    {
      "midi": 69,
      "hit": false,
      "t": 13767.126500000024,
      "d": 51.36987500000032,
      "v": 99
    },
    {
      "midi": 31,
      "hit": false,
      "t": 13866.441591666664,
      "d": 154.10962499999914,
      "v": 107
    },
    {
      "midi": 67,
      "hit": false,
      "t": 13866.441591666673,
      "d": 102.73975000000064,
      "v": 92
    },
    {
      "midi": 79,
      "hit": false,
      "t": 13866.441591666673,
      "d": 102.73975000000064,
      "v": 92
    },
    {
      "midi": 67,
      "hit": false,
      "t": 13869.866250000008,
      "d": 102.73975000000064,
      "v": 82
    },
    {
      "midi": 79,
      "hit": false,
      "t": 13869.866250000008,
      "d": 102.73975000000064,
      "v": 82
    },
    {
      "midi": 67,
      "hit": false,
      "t": 13869.866250000008,
      "d": 102.73975000000064,
      "v": 82
    },
    {
      "midi": 79,
      "hit": false,
      "t": 13869.866250000008,
      "d": 102.73975000000064,
      "v": 82
    },
    {
      "midi": 38,
      "hit": false,
      "t": 13869.866250000008,
      "d": 51.36987500000032,
      "v": 88
    },
    {
      "midi": 40,
      "hit": false,
      "t": 13869.866250000008,
      "d": 51.36987500000032,
      "v": 88
    },
    {
      "midi": 70,
      "hit": false,
      "t": 13869.866250000025,
      "d": 51.36987500000032,
      "v": 53
    },
    {
      "midi": 69,
      "hit": false,
      "t": 13869.866250000025,
      "d": 51.36987500000032,
      "v": 43
    },
    {
      "midi": 69,
      "hit": false,
      "t": 13969.181341666674,
      "d": 102.73975000000064,
      "v": 127
    },
    {
      "midi": 81,
      "hit": false,
      "t": 13969.181341666674,
      "d": 102.73975000000064,
      "v": 127
    },
    {
      "midi": 50,
      "hit": false,
      "t": 13969.181341666685,
      "d": 308.2192500000001,
      "v": 82
    },
    {
      "midi": 43,
      "hit": false,
      "t": 13969.181341666685,
      "d": 308.2192500000001,
      "v": 78
    },
    {
      "midi": 86,
      "hit": false,
      "t": 13972.605999999996,
      "d": 410.95900000000074,
      "v": 80
    },
    {
      "midi": 74,
      "hit": false,
      "t": 13972.606,
      "d": 616.4385000000002,
      "v": 80
    },
    {
      "midi": 67,
      "hit": false,
      "t": 13972.606,
      "d": 616.4385000000002,
      "v": 80
    },
    {
      "midi": 62,
      "hit": false,
      "t": 13972.606,
      "d": 616.4385000000002,
      "v": 80
    },
    {
      "midi": 36,
      "hit": false,
      "t": 13972.606000000005,
      "d": 51.36987500000032,
      "v": 107
    },
    {
      "midi": 13,
      "hit": false,
      "t": 13972.606000000005,
      "d": 51.36987500000032,
      "v": 127
    },
    {
      "midi": 69,
      "hit": false,
      "t": 13972.606000000009,
      "d": 102.73975000000064,
      "v": 114
    },
    {
      "midi": 81,
      "hit": false,
      "t": 13972.606000000009,
      "d": 102.73975000000064,
      "v": 114
    },
    {
      "midi": 69,
      "hit": false,
      "t": 13972.606000000009,
      "d": 102.73975000000064,
      "v": 114
    },
    {
      "midi": 81,
      "hit": false,
      "t": 13972.606000000009,
      "d": 102.73975000000064,
      "v": 114
    },
    {
      "midi": 42,
      "hit": false,
      "t": 13972.60600000001,
      "d": 102.73975000000064,
      "v": 102
    },
    {
      "midi": 70,
      "hit": false,
      "t": 13972.606000000025,
      "d": 51.36987500000032,
      "v": 60
    },
    {
      "midi": 69,
      "hit": false,
      "t": 13972.606000000025,
      "d": 51.36987500000032,
      "v": 50
    },
    {
      "midi": 43,
      "hit": false,
      "t": 14071.921091666663,
      "d": 51.36987500000032,
      "v": 107
    },
    {
      "midi": 67,
      "hit": false,
      "t": 14071.921091666674,
      "d": 102.73975000000064,
      "v": 127
    },
    {
      "midi": 79,
      "hit": false,
      "t": 14071.921091666674,
      "d": 102.73975000000064,
      "v": 127
    },
    {
      "midi": 38,
      "hit": false,
      "t": 14075.345750000008,
      "d": 51.36987500000032,
      "v": 70
    },
    {
      "midi": 40,
      "hit": false,
      "t": 14075.345750000008,
      "d": 51.36987500000032,
      "v": 70
    },
    {
      "midi": 67,
      "hit": false,
      "t": 14075.34575000001,
      "d": 102.73975000000064,
      "v": 114
    },
    {
      "midi": 79,
      "hit": false,
      "t": 14075.34575000001,
      "d": 102.73975000000064,
      "v": 114
    },
    {
      "midi": 67,
      "hit": false,
      "t": 14075.34575000001,
      "d": 102.73975000000064,
      "v": 114
    },
    {
      "midi": 79,
      "hit": false,
      "t": 14075.34575000001,
      "d": 102.73975000000064,
      "v": 114
    },
    {
      "midi": 70,
      "hit": false,
      "t": 14075.345750000026,
      "d": 51.36987500000032,
      "v": 49
    },
    {
      "midi": 69,
      "hit": false,
      "t": 14075.345750000026,
      "d": 51.36987500000032,
      "v": 39
    },
    {
      "midi": 31,
      "hit": false,
      "t": 14174.660841666664,
      "d": 154.10962499999914,
      "v": 107
    },
    {
      "midi": 46,
      "hit": false,
      "t": 14178.085500000003,
      "d": 102.73975000000064,
      "v": 107
    },
    {
      "midi": 55,
      "hit": false,
      "t": 14178.085500000014,
      "d": 102.73975000000064,
      "v": 80
    },
    {
      "midi": 67,
      "hit": false,
      "t": 14178.085500000014,
      "d": 102.73975000000064,
      "v": 105
    },
    {
      "midi": 62,
      "hit": false,
      "t": 14178.085500000014,
      "d": 102.73975000000064,
      "v": 96
    },
    {
      "midi": 74,
      "hit": false,
      "t": 14178.085500000014,
      "d": 205.47950000000128,
      "v": 83
    },
    {
      "midi": 70,
      "hit": false,
      "t": 14178.085500000027,
      "d": 51.36987500000032,
      "v": 109
    },
    {
      "midi": 69,
      "hit": false,
      "t": 14178.085500000027,
      "d": 51.36987500000032,
      "v": 99
    },
    {
      "midi": 67,
      "hit": false,
      "t": 14277.400591666676,
      "d": 102.73975000000064,
      "v": 127
    },
    {
      "midi": 79,
      "hit": false,
      "t": 14277.400591666676,
      "d": 102.73975000000064,
      "v": 127
    },
    {
      "midi": 67,
      "hit": false,
      "t": 14280.82525000001,
      "d": 102.73975000000064,
      "v": 114
    },
    {
      "midi": 79,
      "hit": false,
      "t": 14280.82525000001,
      "d": 102.73975000000064,
      "v": 114
    },
    {
      "midi": 67,
      "hit": false,
      "t": 14280.82525000001,
      "d": 102.73975000000064,
      "v": 114
    },
    {
      "midi": 79,
      "hit": false,
      "t": 14280.82525000001,
      "d": 102.73975000000064,
      "v": 114
    },
    {
      "midi": 70,
      "hit": false,
      "t": 14280.825250000027,
      "d": 51.36987500000032,
      "v": 53
    },
    {
      "midi": 69,
      "hit": false,
      "t": 14280.825250000027,
      "d": 51.36987500000032,
      "v": 43
    },
    {
      "midi": 43,
      "hit": false,
      "t": 14380.140341666664,
      "d": 51.36987500000032,
      "v": 107
    },
    {
      "midi": 109,
      "hit": false,
      "t": 14380.140341666664,
      "d": 51.36987500000032,
      "v": 127
    },
    {
      "midi": 50,
      "hit": false,
      "t": 14380.140341666685,
      "d": 102.73975000000064,
      "v": 71
    },
    {
      "midi": 43,
      "hit": false,
      "t": 14380.140341666685,
      "d": 102.73975000000064,
      "v": 55
    },
    {
      "midi": 36,
      "hit": false,
      "t": 14383.565000000006,
      "d": 51.36987500000032,
      "v": 107
    },
    {
      "midi": 13,
      "hit": false,
      "t": 14383.565000000006,
      "d": 51.36987500000032,
      "v": 127
    },
    {
      "midi": 38,
      "hit": false,
      "t": 14383.565000000008,
      "d": 51.36987500000032,
      "v": 88
    },
    {
      "midi": 40,
      "hit": false,
      "t": 14383.565000000008,
      "d": 51.36987500000032,
      "v": 88
    },
    {
      "midi": 42,
      "hit": false,
      "t": 14383.565000000011,
      "d": 102.73975000000064,
      "v": 107
    },
    {
      "midi": 70,
      "hit": false,
      "t": 14383.565000000028,
      "d": 51.36987500000032,
      "v": 60
    },
    {
      "midi": 69,
      "hit": false,
      "t": 14383.565000000028,
      "d": 51.36987500000032,
      "v": 50
    },
    {
      "midi": 43,
      "hit": false,
      "t": 14482.880091666664,
      "d": 51.36987500000032,
      "v": 107
    },
    {
      "midi": 70,
      "hit": false,
      "t": 14486.304750000028,
      "d": 51.36987500000032,
      "v": 49
    },
    {
      "midi": 69,
      "hit": false,
      "t": 14486.304750000028,
      "d": 51.36987500000032,
      "v": 39
    },
    {
      "midi": 32,
      "hit": false,
      "t": 14585.619841666665,
      "d": 359.5891250000004,
      "v": 107
    },
    {
      "midi": 70,
      "hit": false,
      "t": 14585.619841666676,
      "d": 308.2192500000001,
      "v": 122
    },
    {
      "midi": 74,
      "hit": false,
      "t": 14585.619841666676,
      "d": 308.2192500000001,
      "v": 122
    },
    {
      "midi": 65,
      "hit": false,
      "t": 14585.619841666676,
      "d": 308.2192500000001,
      "v": 127
    },
    {
      "midi": 44,
      "hit": false,
      "t": 14585.619841666687,
      "d": 308.2192500000001,
      "v": 78
    },
    {
      "midi": 51,
      "hit": false,
      "t": 14585.619841666687,
      "d": 308.2192500000001,
      "v": 113
    },
    {
      "midi": 86,
      "hit": false,
      "t": 14589.044499999996,
      "d": 205.47949999999946,
      "v": 80
    },
    {
      "midi": 74,
      "hit": false,
      "t": 14589.0445,
      "d": 410.95900000000074,
      "v": 80
    },
    {
      "midi": 62,
      "hit": false,
      "t": 14589.0445,
      "d": 410.95900000000074,
      "v": 80
    },
    {
      "midi": 65,
      "hit": false,
      "t": 14589.0445,
      "d": 410.95900000000074,
      "v": 80
    },
    {
      "midi": 70,
      "hit": false,
      "t": 14589.0445,
      "d": 410.95900000000074,
      "v": 80
    },
    {
      "midi": 46,
      "hit": false,
      "t": 14589.044500000004,
      "d": 102.73975000000064,
      "v": 107
    },
    {
      "midi": 70,
      "hit": false,
      "t": 14589.04450000001,
      "d": 308.2192500000001,
      "v": 109
    },
    {
      "midi": 74,
      "hit": false,
      "t": 14589.04450000001,
      "d": 308.2192500000001,
      "v": 109
    },
    {
      "midi": 65,
      "hit": false,
      "t": 14589.04450000001,
      "d": 308.2192500000001,
      "v": 114
    },
    {
      "midi": 70,
      "hit": false,
      "t": 14589.04450000001,
      "d": 308.2192500000001,
      "v": 109
    },
    {
      "midi": 74,
      "hit": false,
      "t": 14589.04450000001,
      "d": 308.2192500000001,
      "v": 109
    },
    {
      "midi": 65,
      "hit": false,
      "t": 14589.04450000001,
      "d": 308.2192500000001,
      "v": 114
    },
    {
      "midi": 74,
      "hit": false,
      "t": 14589.044500000015,
      "d": 308.2192500000001,
      "v": 86
    },
    {
      "midi": 65,
      "hit": false,
      "t": 14589.044500000015,
      "d": 308.2192500000001,
      "v": 110
    },
    {
      "midi": 70,
      "hit": false,
      "t": 14589.044500000015,
      "d": 308.2192500000001,
      "v": 86
    },
    {
      "midi": 62,
      "hit": false,
      "t": 14589.044500000015,
      "d": 308.2192500000001,
      "v": 80
    },
    {
      "midi": 70,
      "hit": false,
      "t": 14589.044500000029,
      "d": 51.36987500000032,
      "v": 109
    },
    {
      "midi": 69,
      "hit": false,
      "t": 14589.044500000029,
      "d": 51.36987500000032,
      "v": 99
    },
    {
      "midi": 38,
      "hit": false,
      "t": 14691.784250000008,
      "d": 51.36987500000032,
      "v": 28
    },
    {
      "midi": 40,
      "hit": false,
      "t": 14691.784250000008,
      "d": 51.36987500000032,
      "v": 28
    },
    {
      "midi": 70,
      "hit": false,
      "t": 14691.78425000003,
      "d": 51.36987500000032,
      "v": 53
    },
    {
      "midi": 69,
      "hit": false,
      "t": 14691.78425000003,
      "d": 51.36987500000032,
      "v": 43
    },
    {
      "midi": 38,
      "hit": false,
      "t": 14743.154125000008,
      "d": 51.36987500000032,
      "v": 58
    },
    {
      "midi": 40,
      "hit": false,
      "t": 14743.154125000008,
      "d": 51.36987500000032,
      "v": 58
    },
    {
      "midi": 36,
      "hit": false,
      "t": 14794.524000000007,
      "d": 51.36987500000032,
      "v": 107
    },
    {
      "midi": 13,
      "hit": false,
      "t": 14794.524000000007,
      "d": 51.36987500000032,
      "v": 127
    },
    {
      "midi": 38,
      "hit": false,
      "t": 14794.524000000009,
      "d": 51.36987500000032,
      "v": 88
    },
    {
      "midi": 40,
      "hit": false,
      "t": 14794.524000000009,
      "d": 51.36987500000032,
      "v": 88
    },
    {
      "midi": 42,
      "hit": false,
      "t": 14794.524000000012,
      "d": 102.73975000000064,
      "v": 107
    },
    {
      "midi": 70,
      "hit": false,
      "t": 14794.52400000003,
      "d": 51.36987500000032,
      "v": 60
    },
    {
      "midi": 69,
      "hit": false,
      "t": 14794.52400000003,
      "d": 51.36987500000032,
      "v": 50
    },
    {
      "midi": 70,
      "hit": false,
      "t": 14897.263750000031,
      "d": 51.36987500000032,
      "v": 49
    },
    {
      "midi": 69,
      "hit": false,
      "t": 14897.263750000031,
      "d": 51.36987500000032,
      "v": 39
    },
    {
      "midi": 32,
      "hit": false,
      "t": 14996.578841666666,
      "d": 154.10962499999914,
      "v": 107
    },
    {
      "midi": 74,
      "hit": false,
      "t": 14996.578841666676,
      "d": 102.73975000000064,
      "v": 115
    },
    {
      "midi": 70,
      "hit": false,
      "t": 14996.578841666676,
      "d": 102.73975000000064,
      "v": 110
    },
    {
      "midi": 65,
      "hit": false,
      "t": 14996.578841666676,
      "d": 102.73975000000064,
      "v": 127
    },
    {
      "midi": 51,
      "hit": false,
      "t": 14996.578841666687,
      "d": 102.73975000000064,
      "v": 58
    },
    {
      "midi": 44,
      "hit": false,
      "t": 14996.578841666687,
      "d": 102.73975000000064,
      "v": 60
    },
    {
      "midi": 86,
      "hit": false,
      "t": 15000.003499999995,
      "d": 102.73975000000064,
      "v": 80
    },
    {
      "midi": 74,
      "hit": false,
      "t": 15000.0035,
      "d": 205.47949999999946,
      "v": 80
    },
    {
      "midi": 62,
      "hit": false,
      "t": 15000.0035,
      "d": 205.47949999999946,
      "v": 80
    },
    {
      "midi": 65,
      "hit": false,
      "t": 15000.0035,
      "d": 205.47949999999946,
      "v": 80
    },
    {
      "midi": 70,
      "hit": false,
      "t": 15000.0035,
      "d": 205.47949999999946,
      "v": 80
    },
    {
      "midi": 46,
      "hit": false,
      "t": 15000.003500000004,
      "d": 102.73975000000064,
      "v": 107
    },
    {
      "midi": 38,
      "hit": false,
      "t": 15000.003500000008,
      "d": 51.36987500000032,
      "v": 88
    },
    {
      "midi": 40,
      "hit": false,
      "t": 15000.003500000008,
      "d": 51.36987500000032,
      "v": 88
    },
    {
      "midi": 74,
      "hit": false,
      "t": 15000.003500000012,
      "d": 102.73975000000064,
      "v": 103
    },
    {
      "midi": 70,
      "hit": false,
      "t": 15000.003500000012,
      "d": 102.73975000000064,
      "v": 99
    },
    {
      "midi": 65,
      "hit": false,
      "t": 15000.003500000012,
      "d": 102.73975000000064,
      "v": 114
    },
    {
      "midi": 74,
      "hit": false,
      "t": 15000.003500000012,
      "d": 102.73975000000064,
      "v": 103
    },
    {
      "midi": 70,
      "hit": false,
      "t": 15000.003500000012,
      "d": 102.73975000000064,
      "v": 99
    },
    {
      "midi": 65,
      "hit": false,
      "t": 15000.003500000012,
      "d": 102.73975000000064,
      "v": 114
    },
    {
      "midi": 74,
      "hit": false,
      "t": 15000.003500000015,
      "d": 102.73975000000064,
      "v": 80
    },
    {
      "midi": 65,
      "hit": false,
      "t": 15000.003500000015,
      "d": 102.73975000000064,
      "v": 105
    },
    {
      "midi": 70,
      "hit": false,
      "t": 15000.003500000015,
      "d": 102.73975000000064,
      "v": 100
    },
    {
      "midi": 62,
      "hit": false,
      "t": 15000.003500000015,
      "d": 102.73975000000064,
      "v": 80
    },
    {
      "midi": 70,
      "hit": false,
      "t": 15000.003500000032,
      "d": 51.36987500000032,
      "v": 109
    },
    {
      "midi": 69,
      "hit": false,
      "t": 15000.003500000032,
      "d": 51.36987500000032,
      "v": 99
    },
    {
      "midi": 70,
      "hit": false,
      "t": 15102.743250000032,
      "d": 51.36987500000032,
      "v": 53
    },
    {
      "midi": 69,
      "hit": false,
      "t": 15102.743250000032,
      "d": 51.36987500000032,
      "v": 43
    },
    {
      "midi": 109,
      "hit": false,
      "t": 15202.058341666663,
      "d": 51.36987500000032,
      "v": 127
    },
    {
      "midi": 34,
      "hit": false,
      "t": 15202.058341666665,
      "d": 359.5891250000004,
      "v": 107
    },
    {
      "midi": 68,
      "hit": false,
      "t": 15202.058341666678,
      "d": 308.2192500000001,
      "v": 127
    },
    {
      "midi": 72,
      "hit": false,
      "t": 15202.058341666678,
      "d": 308.2192500000001,
      "v": 122
    },
    {
      "midi": 63,
      "hit": false,
      "t": 15202.058341666678,
      "d": 308.2192500000001,
      "v": 127
    },
    {
      "midi": 46,
      "hit": false,
      "t": 15202.058341666689,
      "d": 410.95900000000074,
      "v": 46
    },
    {
      "midi": 53,
      "hit": false,
      "t": 15202.058341666689,
      "d": 410.95900000000074,
      "v": 78
    },
    {
      "midi": 84,
      "hit": false,
      "t": 15205.482999999997,
      "d": 205.47949999999946,
      "v": 80
    },
    {
      "midi": 72,
      "hit": false,
      "t": 15205.483,
      "d": 410.95900000000074,
      "v": 80
    },
    {
      "midi": 60,
      "hit": false,
      "t": 15205.483,
      "d": 410.95900000000074,
      "v": 80
    },
    {
      "midi": 63,
      "hit": false,
      "t": 15205.483,
      "d": 410.95900000000074,
      "v": 80
    },
    {
      "midi": 68,
      "hit": false,
      "t": 15205.483,
      "d": 410.95900000000074,
      "v": 80
    },
    {
      "midi": 36,
      "hit": false,
      "t": 15205.483000000007,
      "d": 51.36987500000032,
      "v": 107
    },
    {
      "midi": 13,
      "hit": false,
      "t": 15205.483000000007,
      "d": 51.36987500000032,
      "v": 127
    },
    {
      "midi": 38,
      "hit": false,
      "t": 15205.483000000007,
      "d": 51.36987500000032,
      "v": 88
    },
    {
      "midi": 40,
      "hit": false,
      "t": 15205.483000000007,
      "d": 51.36987500000032,
      "v": 88
    },
    {
      "midi": 68,
      "hit": false,
      "t": 15205.483000000013,
      "d": 308.2192500000001,
      "v": 114
    },
    {
      "midi": 72,
      "hit": false,
      "t": 15205.483000000013,
      "d": 308.2192500000001,
      "v": 109
    },
    {
      "midi": 63,
      "hit": false,
      "t": 15205.483000000013,
      "d": 308.2192500000001,
      "v": 114
    },
    {
      "midi": 68,
      "hit": false,
      "t": 15205.483000000013,
      "d": 308.2192500000001,
      "v": 114
    },
    {
      "midi": 72,
      "hit": false,
      "t": 15205.483000000013,
      "d": 308.2192500000001,
      "v": 109
    },
    {
      "midi": 63,
      "hit": false,
      "t": 15205.483000000013,
      "d": 308.2192500000001,
      "v": 114
    },
    {
      "midi": 42,
      "hit": false,
      "t": 15205.483000000013,
      "d": 102.73975000000064,
      "v": 107
    },
    {
      "midi": 68,
      "hit": false,
      "t": 15205.483000000017,
      "d": 308.2192500000001,
      "v": 86
    },
    {
      "midi": 60,
      "hit": false,
      "t": 15205.483000000017,
      "d": 308.2192500000001,
      "v": 75
    },
    {
      "midi": 63,
      "hit": false,
      "t": 15205.483000000017,
      "d": 308.2192500000001,
      "v": 96
    },
    {
      "midi": 72,
      "hit": false,
      "t": 15205.483000000017,
      "d": 410.95900000000074,
      "v": 83
    },
    {
      "midi": 70,
      "hit": false,
      "t": 15205.483000000033,
      "d": 51.36987500000032,
      "v": 60
    },
    {
      "midi": 69,
      "hit": false,
      "t": 15205.483000000033,
      "d": 51.36987500000032,
      "v": 50
    },
    {
      "midi": 70,
      "hit": false,
      "t": 15308.222750000034,
      "d": 51.36987500000032,
      "v": 49
    },
    {
      "midi": 69,
      "hit": false,
      "t": 15308.222750000034,
      "d": 51.36987500000032,
      "v": 39
    },
    {
      "midi": 46,
      "hit": false,
      "t": 15410.962500000005,
      "d": 205.47949999999946,
      "v": 107
    },
    {
      "midi": 70,
      "hit": false,
      "t": 15410.962500000034,
      "d": 51.36987500000032,
      "v": 109
    },
    {
      "midi": 69,
      "hit": false,
      "t": 15410.962500000034,
      "d": 51.36987500000032,
      "v": 99
    },
    {
      "midi": 70,
      "hit": false,
      "t": 15513.702250000035,
      "d": 51.36987500000032,
      "v": 53
    },
    {
      "midi": 69,
      "hit": false,
      "t": 15513.702250000035,
      "d": 51.36987500000032,
      "v": 43
    },
    {
      "midi": 29,
      "hit": false,
      "t": 15613.017341666666,
      "d": 359.5891250000004,
      "v": 107
    },
    {
      "midi": 63,
      "hit": false,
      "t": 15613.017341666678,
      "d": 308.2192500000001,
      "v": 122
    },
    {
      "midi": 67,
      "hit": false,
      "t": 15613.017341666678,
      "d": 308.2192500000001,
      "v": 122
    },
    {
      "midi": 58,
      "hit": false,
      "t": 15613.017341666678,
      "d": 308.2192500000001,
      "v": 115
    },
    {
      "midi": 39,
      "hit": false,
      "t": 15613.01734166669,
      "d": 410.95900000000074,
      "v": 90
    },
    {
      "midi": 46,
      "hit": false,
      "t": 15613.01734166669,
      "d": 410.95900000000074,
      "v": 67
    },
    {
      "midi": 79,
      "hit": false,
      "t": 15616.441999999995,
      "d": 205.47949999999946,
      "v": 80
    },
    {
      "midi": 57,
      "hit": false,
      "t": 15616.442,
      "d": 51.36987500000032,
      "v": 84
    },
    {
      "midi": 70,
      "hit": false,
      "t": 15616.442000000001,
      "d": 410.95900000000074,
      "v": 80
    },
    {
      "midi": 58,
      "hit": false,
      "t": 15616.442000000001,
      "d": 410.95900000000074,
      "v": 80
    },
    {
      "midi": 63,
      "hit": false,
      "t": 15616.442000000001,
      "d": 410.95900000000074,
      "v": 80
    },
    {
      "midi": 67,
      "hit": false,
      "t": 15616.442000000001,
      "d": 410.95900000000074,
      "v": 80
    },
    {
      "midi": 36,
      "hit": false,
      "t": 15616.442000000008,
      "d": 51.36987500000032,
      "v": 107
    },
    {
      "midi": 13,
      "hit": false,
      "t": 15616.442000000008,
      "d": 51.36987500000032,
      "v": 127
    },
    {
      "midi": 38,
      "hit": false,
      "t": 15616.442000000008,
      "d": 51.36987500000032,
      "v": 29
    },
    {
      "midi": 40,
      "hit": false,
      "t": 15616.442000000008,
      "d": 51.36987500000032,
      "v": 29
    },
    {
      "midi": 63,
      "hit": false,
      "t": 15616.442000000014,
      "d": 308.2192500000001,
      "v": 109
    },
    {
      "midi": 67,
      "hit": false,
      "t": 15616.442000000014,
      "d": 308.2192500000001,
      "v": 109
    },
    {
      "midi": 58,
      "hit": false,
      "t": 15616.442000000014,
      "d": 308.2192500000001,
      "v": 103
    },
    {
      "midi": 63,
      "hit": false,
      "t": 15616.442000000014,
      "d": 308.2192500000001,
      "v": 109
    },
    {
      "midi": 67,
      "hit": false,
      "t": 15616.442000000014,
      "d": 308.2192500000001,
      "v": 109
    },
    {
      "midi": 58,
      "hit": false,
      "t": 15616.442000000014,
      "d": 308.2192500000001,
      "v": 103
    },
    {
      "midi": 42,
      "hit": false,
      "t": 15616.442000000014,
      "d": 102.73975000000064,
      "v": 102
    },
    {
      "midi": 58,
      "hit": false,
      "t": 15616.442000000017,
      "d": 410.95900000000074,
      "v": 92
    },
    {
      "midi": 63,
      "hit": false,
      "t": 15616.442000000017,
      "d": 410.95900000000074,
      "v": 75
    },
    {
      "midi": 67,
      "hit": false,
      "t": 15616.442000000017,
      "d": 410.95900000000074,
      "v": 92
    },
    {
      "midi": 70,
      "hit": false,
      "t": 15616.442000000017,
      "d": 410.95900000000074,
      "v": 75
    },
    {
      "midi": 70,
      "hit": false,
      "t": 15616.442000000035,
      "d": 51.36987500000032,
      "v": 60
    },
    {
      "midi": 69,
      "hit": false,
      "t": 15616.442000000035,
      "d": 51.36987500000032,
      "v": 50
    },
    {
      "midi": 38,
      "hit": false,
      "t": 15719.181750000009,
      "d": 51.36987500000032,
      "v": 42
    },
    {
      "midi": 40,
      "hit": false,
      "t": 15719.181750000009,
      "d": 51.36987500000032,
      "v": 42
    },
    {
      "midi": 70,
      "hit": false,
      "t": 15719.181750000036,
      "d": 51.36987500000032,
      "v": 49
    },
    {
      "midi": 69,
      "hit": false,
      "t": 15719.181750000036,
      "d": 51.36987500000032,
      "v": 39
    },
    {
      "midi": 46,
      "hit": false,
      "t": 15821.921500000004,
      "d": 102.73975000000064,
      "v": 107
    },
    {
      "midi": 38,
      "hit": false,
      "t": 15821.92150000001,
      "d": 51.36987500000032,
      "v": 57
    },
    {
      "midi": 40,
      "hit": false,
      "t": 15821.92150000001,
      "d": 51.36987500000032,
      "v": 57
    },
    {
      "midi": 70,
      "hit": false,
      "t": 15821.921500000037,
      "d": 51.36987500000032,
      "v": 109
    },
    {
      "midi": 69,
      "hit": false,
      "t": 15821.921500000037,
      "d": 51.36987500000032,
      "v": 99
    },
    {
      "midi": 38,
      "hit": false,
      "t": 15924.66125000001,
      "d": 51.36987500000032,
      "v": 71
    },
    {
      "midi": 40,
      "hit": false,
      "t": 15924.66125000001,
      "d": 51.36987500000032,
      "v": 71
    },
    {
      "midi": 70,
      "hit": false,
      "t": 15924.661250000037,
      "d": 51.36987500000032,
      "v": 53
    },
    {
      "midi": 69,
      "hit": false,
      "t": 15924.661250000037,
      "d": 51.36987500000032,
      "v": 43
    },
    {
      "midi": 109,
      "hit": false,
      "t": 16023.976341666663,
      "d": 51.36987500000032,
      "v": 127
    },
    {
      "midi": 27,
      "hit": false,
      "t": 16023.976341666666,
      "d": 359.5891250000004,
      "v": 107
    },
    {
      "midi": 66,
      "hit": false,
      "t": 16023.97634166668,
      "d": 410.9589999999989,
      "v": 127
    },
    {
      "midi": 57,
      "hit": false,
      "t": 16023.97634166668,
      "d": 410.9589999999989,
      "v": 110
    },
    {
      "midi": 69,
      "hit": false,
      "t": 16023.97634166668,
      "d": 410.9589999999989,
      "v": 127
    },
    {
      "midi": 62,
      "hit": false,
      "t": 16023.97634166668,
      "d": 410.9589999999989,
      "v": 100
    },
    {
      "midi": 38,
      "hit": false,
      "t": 16023.97634166669,
      "d": 410.9589999999989,
      "v": 85
    },
    {
      "midi": 45,
      "hit": false,
      "t": 16023.97634166669,
      "d": 410.9589999999989,
      "v": 78
    },
    {
      "midi": 78,
      "hit": false,
      "t": 16027.400999999994,
      "d": 205.47949999999946,
      "v": 80
    },
    {
      "midi": 57,
      "hit": false,
      "t": 16027.401,
      "d": 51.36987500000032,
      "v": 84
    },
    {
      "midi": 57,
      "hit": false,
      "t": 16027.401000000002,
      "d": 410.9589999999989,
      "v": 80
    },
    {
      "midi": 62,
      "hit": false,
      "t": 16027.401000000002,
      "d": 410.9589999999989,
      "v": 80
    },
    {
      "midi": 66,
      "hit": false,
      "t": 16027.401000000002,
      "d": 410.9589999999989,
      "v": 80
    },
    {
      "midi": 69,
      "hit": false,
      "t": 16027.401000000002,
      "d": 410.9589999999989,
      "v": 80
    },
    {
      "midi": 36,
      "hit": false,
      "t": 16027.401000000009,
      "d": 51.36987500000032,
      "v": 107
    },
    {
      "midi": 13,
      "hit": false,
      "t": 16027.401000000009,
      "d": 51.36987500000032,
      "v": 127
    },
    {
      "midi": 38,
      "hit": false,
      "t": 16027.40100000001,
      "d": 51.36987500000032,
      "v": 86
    },
    {
      "midi": 40,
      "hit": false,
      "t": 16027.40100000001,
      "d": 51.36987500000032,
      "v": 86
    },
    {
      "midi": 66,
      "hit": false,
      "t": 16027.401000000014,
      "d": 410.95900000000074,
      "v": 114
    },
    {
      "midi": 57,
      "hit": false,
      "t": 16027.401000000014,
      "d": 410.95900000000074,
      "v": 99
    },
    {
      "midi": 69,
      "hit": false,
      "t": 16027.401000000014,
      "d": 410.95900000000074,
      "v": 114
    },
    {
      "midi": 62,
      "hit": false,
      "t": 16027.401000000014,
      "d": 410.95900000000074,
      "v": 90
    },
    {
      "midi": 66,
      "hit": false,
      "t": 16027.401000000014,
      "d": 410.95900000000074,
      "v": 114
    },
    {
      "midi": 57,
      "hit": false,
      "t": 16027.401000000014,
      "d": 410.95900000000074,
      "v": 99
    },
    {
      "midi": 69,
      "hit": false,
      "t": 16027.401000000014,
      "d": 410.95900000000074,
      "v": 114
    },
    {
      "midi": 62,
      "hit": false,
      "t": 16027.401000000014,
      "d": 410.95900000000074,
      "v": 90
    },
    {
      "midi": 42,
      "hit": false,
      "t": 16027.401000000014,
      "d": 102.73975000000064,
      "v": 107
    },
    {
      "midi": 66,
      "hit": false,
      "t": 16027.401000000018,
      "d": 308.2192500000001,
      "v": 96
    },
    {
      "midi": 62,
      "hit": false,
      "t": 16027.401000000018,
      "d": 308.2192500000001,
      "v": 75
    },
    {
      "midi": 69,
      "hit": false,
      "t": 16027.401000000018,
      "d": 308.2192500000001,
      "v": 73
    },
    {
      "midi": 57,
      "hit": false,
      "t": 16027.401000000018,
      "d": 410.95900000000074,
      "v": 62
    },
    {
      "midi": 70,
      "hit": false,
      "t": 16027.401000000038,
      "d": 51.36987500000032,
      "v": 60
    },
    {
      "midi": 69,
      "hit": false,
      "t": 16027.401000000038,
      "d": 51.36987500000032,
      "v": 50
    },
    {
      "midi": 38,
      "hit": false,
      "t": 16130.140750000011,
      "d": 51.36987500000032,
      "v": 99
    },
    {
      "midi": 40,
      "hit": false,
      "t": 16130.140750000011,
      "d": 51.36987500000032,
      "v": 99
    },
    {
      "midi": 70,
      "hit": false,
      "t": 16130.140750000039,
      "d": 51.36987500000032,
      "v": 49
    },
    {
      "midi": 69,
      "hit": false,
      "t": 16130.140750000039,
      "d": 51.36987500000032,
      "v": 39
    },
    {
      "midi": 46,
      "hit": false,
      "t": 16232.880500000005,
      "d": 102.73975000000064,
      "v": 107
    },
    {
      "midi": 38,
      "hit": false,
      "t": 16232.880500000012,
      "d": 51.36987500000032,
      "v": 114
    },
    {
      "midi": 40,
      "hit": false,
      "t": 16232.880500000012,
      "d": 51.36987500000032,
      "v": 114
    },
    {
      "midi": 70,
      "hit": false,
      "t": 16232.88050000004,
      "d": 51.36987500000032,
      "v": 109
    },
    {
      "midi": 69,
      "hit": false,
      "t": 16232.88050000004,
      "d": 51.36987500000032,
      "v": 99
    },
    {
      "midi": 38,
      "hit": false,
      "t": 16335.620250000013,
      "d": 51.3698749999985,
      "v": 127
    },
    {
      "midi": 40,
      "hit": false,
      "t": 16335.620250000013,
      "d": 51.3698749999985,
      "v": 127
    },
    {
      "midi": 70,
      "hit": false,
      "t": 16335.62025000004,
      "d": 51.36987500000032,
      "v": 53
    },
    {
      "midi": 69,
      "hit": false,
      "t": 16335.62025000004,
      "d": 51.36987500000032,
      "v": 43
    },
    {
      "midi": 31,
      "hit": false,
      "t": 16434.935341666667,
      "d": 154.10962500000096,
      "v": 107
    },
    {
      "midi": 50,
      "hit": false,
      "t": 16434.93534166669,
      "d": 102.73975000000064,
      "v": 46
    },
    {
      "midi": 43,
      "hit": false,
      "t": 16434.93534166669,
      "d": 102.73975000000064,
      "v": 53
    },
    {
      "midi": 59,
      "hit": false,
      "t": 16438.36,
      "d": 815.0686833333348,
      "v": 80
    },
    {
      "midi": 67,
      "hit": false,
      "t": 16438.36,
      "d": 815.0686833333348,
      "v": 80
    },
    {
      "midi": 62,
      "hit": false,
      "t": 16438.36,
      "d": 815.0686833333348,
      "v": 80
    },
    {
      "midi": 57,
      "hit": false,
      "t": 16438.36,
      "d": 51.36987500000032,
      "v": 84
    },
    {
      "midi": 36,
      "hit": false,
      "t": 16438.360000000008,
      "d": 51.36987500000032,
      "v": 107
    },
    {
      "midi": 13,
      "hit": false,
      "t": 16438.360000000008,
      "d": 51.36987500000032,
      "v": 127
    },
    {
      "midi": 38,
      "hit": false,
      "t": 16438.36000000001,
      "d": 51.36987500000032,
      "v": 88
    },
    {
      "midi": 40,
      "hit": false,
      "t": 16438.36000000001,
      "d": 51.36987500000032,
      "v": 88
    },
    {
      "midi": 42,
      "hit": false,
      "t": 16438.360000000015,
      "d": 102.73975000000064,
      "v": 107
    },
    {
      "midi": 57,
      "hit": false,
      "t": 16438.36000000002,
      "d": 205.47950000000128,
      "v": 85
    },
    {
      "midi": 70,
      "hit": false,
      "t": 16438.36000000004,
      "d": 51.36987500000032,
      "v": 60
    },
    {
      "midi": 69,
      "hit": false,
      "t": 16438.36000000004,
      "d": 51.36987500000032,
      "v": 50
    },
    {
      "midi": 70,
      "hit": false,
      "t": 16541.09975000004,
      "d": 51.36987500000032,
      "v": 49
    },
    {
      "midi": 69,
      "hit": false,
      "t": 16541.09975000004,
      "d": 51.36987500000032,
      "v": 39
    },
    {
      "midi": 43,
      "hit": false,
      "t": 16640.41484166667,
      "d": 51.36987500000032,
      "v": 107
    },
    {
      "midi": 62,
      "hit": false,
      "t": 16640.414841666672,
      "d": 78.76714166666716,
      "v": 113
    },
    {
      "midi": 50,
      "hit": false,
      "t": 16640.41484166669,
      "d": 102.73975000000064,
      "v": 52
    },
    {
      "midi": 43,
      "hit": false,
      "t": 16640.41484166669,
      "d": 102.73975000000064,
      "v": 53
    },
    {
      "midi": 46,
      "hit": false,
      "t": 16643.839500000006,
      "d": 102.73975000000064,
      "v": 107
    },
    {
      "midi": 70,
      "hit": false,
      "t": 16643.839500000042,
      "d": 51.36987500000032,
      "v": 109
    },
    {
      "midi": 69,
      "hit": false,
      "t": 16643.839500000042,
      "d": 51.36987500000032,
      "v": 99
    },
    {
      "midi": 43,
      "hit": false,
      "t": 16743.15459166667,
      "d": 51.36987500000032,
      "v": 107
    },
    {
      "midi": 62,
      "hit": false,
      "t": 16746.57925000002,
      "d": 102.73975000000064,
      "v": 98
    },
    {
      "midi": 70,
      "hit": false,
      "t": 16746.579250000043,
      "d": 51.36987500000032,
      "v": 53
    },
    {
      "midi": 69,
      "hit": false,
      "t": 16746.579250000043,
      "d": 51.36987500000032,
      "v": 43
    },
    {
      "midi": 109,
      "hit": false,
      "t": 16845.894341666663,
      "d": 51.36987500000032,
      "v": 127
    },
    {
      "midi": 31,
      "hit": false,
      "t": 16845.89434166667,
      "d": 154.10962500000096,
      "v": 107
    },
    {
      "midi": 62,
      "hit": false,
      "t": 16845.894341666673,
      "d": 195.20552500000122,
      "v": 96
    },
    {
      "midi": 50,
      "hit": false,
      "t": 16845.89434166669,
      "d": 102.73975000000064,
      "v": 55
    },
    {
      "midi": 43,
      "hit": false,
      "t": 16845.89434166669,
      "d": 102.73975000000064,
      "v": 55
    },
    {
      "midi": 36,
      "hit": false,
      "t": 16849.319000000007,
      "d": 51.36987500000032,
      "v": 107
    },
    {
      "midi": 13,
      "hit": false,
      "t": 16849.319000000007,
      "d": 51.36987500000032,
      "v": 127
    },
    {
      "midi": 38,
      "hit": false,
      "t": 16849.31900000001,
      "d": 51.36987500000032,
      "v": 63
    },
    {
      "midi": 40,
      "hit": false,
      "t": 16849.31900000001,
      "d": 51.36987500000032,
      "v": 64
    },
    {
      "midi": 42,
      "hit": false,
      "t": 16849.319000000014,
      "d": 102.73975000000064,
      "v": 107
    },
    {
      "midi": 70,
      "hit": false,
      "t": 16849.319000000043,
      "d": 51.36987500000032,
      "v": 60
    },
    {
      "midi": 69,
      "hit": false,
      "t": 16849.319000000043,
      "d": 51.36987500000032,
      "v": 50
    },
    {
      "midi": 70,
      "hit": false,
      "t": 16952.058750000044,
      "d": 51.36987500000032,
      "v": 49
    },
    {
      "midi": 69,
      "hit": false,
      "t": 16952.058750000044,
      "d": 51.36987500000032,
      "v": 39
    },
    {
      "midi": 43,
      "hit": false,
      "t": 17051.37384166667,
      "d": 51.36987500000032,
      "v": 107
    },
    {
      "midi": 62,
      "hit": false,
      "t": 17051.373841666675,
      "d": 68.4931666666671,
      "v": 115
    },
    {
      "midi": 50,
      "hit": false,
      "t": 17051.373841666693,
      "d": 205.47950000000128,
      "v": 82
    },
    {
      "midi": 43,
      "hit": false,
      "t": 17051.373841666693,
      "d": 205.47950000000128,
      "v": 95
    },
    {
      "midi": 46,
      "hit": false,
      "t": 17054.798500000004,
      "d": 205.47950000000128,
      "v": 107
    },
    {
      "midi": 57,
      "hit": false,
      "t": 17054.798500000023,
      "d": 205.47950000000128,
      "v": 32
    },
    {
      "midi": 70,
      "hit": false,
      "t": 17054.798500000044,
      "d": 51.36987500000032,
      "v": 109
    },
    {
      "midi": 69,
      "hit": false,
      "t": 17054.798500000044,
      "d": 51.36987500000032,
      "v": 99
    },
    {
      "midi": 43,
      "hit": false,
      "t": 17154.11359166667,
      "d": 51.36987500000032,
      "v": 107
    },
    {
      "midi": 62,
      "hit": false,
      "t": 17154.113591666675,
      "d": 304.79459166666857,
      "v": 100
    },
    {
      "midi": 38,
      "hit": false,
      "t": 17157.538250000012,
      "d": 51.36987500000032,
      "v": 88
    },
    {
      "midi": 40,
      "hit": false,
      "t": 17157.538250000012,
      "d": 51.36987500000032,
      "v": 88
    },
    {
      "midi": 70,
      "hit": false,
      "t": 17157.538250000045,
      "d": 51.36987500000032,
      "v": 53
    },
    {
      "midi": 69,
      "hit": false,
      "t": 17157.538250000045,
      "d": 51.36987500000032,
      "v": 43
    },
    {
      "midi": 33,
      "hit": false,
      "t": 17256.853341666672,
      "d": 154.10962500000096,
      "v": 107
    },
    {
      "midi": 52,
      "hit": false,
      "t": 17256.853341666694,
      "d": 102.73975000000064,
      "v": 78
    },
    {
      "midi": 45,
      "hit": false,
      "t": 17256.853341666694,
      "d": 102.73975000000064,
      "v": 75
    },
    {
      "midi": 69,
      "hit": false,
      "t": 17260.278000000002,
      "d": 815.0686833333348,
      "v": 80
    },
    {
      "midi": 61,
      "hit": false,
      "t": 17260.278000000002,
      "d": 815.0686833333348,
      "v": 80
    },
    {
      "midi": 64,
      "hit": false,
      "t": 17260.278000000002,
      "d": 815.0686833333348,
      "v": 80
    },
    {
      "midi": 36,
      "hit": false,
      "t": 17260.278000000006,
      "d": 51.36987500000032,
      "v": 107
    },
    {
      "midi": 13,
      "hit": false,
      "t": 17260.278000000006,
      "d": 51.36987500000032,
      "v": 127
    },
    {
      "midi": 42,
      "hit": false,
      "t": 17260.278000000013,
      "d": 102.73975000000064,
      "v": 102
    },
    {
      "midi": 57,
      "hit": false,
      "t": 17260.278000000024,
      "d": 102.73975000000064,
      "v": 41
    },
    {
      "midi": 70,
      "hit": false,
      "t": 17260.278000000046,
      "d": 51.36987500000032,
      "v": 60
    },
    {
      "midi": 69,
      "hit": false,
      "t": 17260.278000000046,
      "d": 51.36987500000032,
      "v": 50
    },
    {
      "midi": 38,
      "hit": false,
      "t": 17363.017750000014,
      "d": 51.36987500000032,
      "v": 69
    },
    {
      "midi": 40,
      "hit": false,
      "t": 17363.017750000014,
      "d": 51.36987500000032,
      "v": 69
    },
    {
      "midi": 70,
      "hit": false,
      "t": 17363.017750000046,
      "d": 51.36987500000032,
      "v": 49
    },
    {
      "midi": 69,
      "hit": false,
      "t": 17363.017750000046,
      "d": 51.36987500000032,
      "v": 39
    },
    {
      "midi": 45,
      "hit": false,
      "t": 17462.332841666674,
      "d": 51.36987500000032,
      "v": 107
    },
    {
      "midi": 61,
      "hit": false,
      "t": 17462.332841666677,
      "d": 174.6575750000011,
      "v": 110
    },
    {
      "midi": 52,
      "hit": false,
      "t": 17462.332841666695,
      "d": 102.73975000000064,
      "v": 65
    },
    {
      "midi": 45,
      "hit": false,
      "t": 17462.332841666695,
      "d": 102.73975000000064,
      "v": 58
    },
    {
      "midi": 46,
      "hit": false,
      "t": 17465.757500000007,
      "d": 102.73975000000064,
      "v": 107
    },
    {
      "midi": 57,
      "hit": false,
      "t": 17465.757500000025,
      "d": 205.47950000000128,
      "v": 64
    },
    {
      "midi": 70,
      "hit": false,
      "t": 17465.757500000047,
      "d": 51.36987500000032,
      "v": 109
    },
    {
      "midi": 69,
      "hit": false,
      "t": 17465.757500000047,
      "d": 51.36987500000032,
      "v": 99
    },
    {
      "midi": 45,
      "hit": false,
      "t": 17565.072591666674,
      "d": 51.36987500000032,
      "v": 107
    },
    {
      "midi": 70,
      "hit": false,
      "t": 17568.497250000048,
      "d": 51.36987500000032,
      "v": 53
    },
    {
      "midi": 69,
      "hit": false,
      "t": 17568.497250000048,
      "d": 51.36987500000032,
      "v": 43
    },
    {
      "midi": 109,
      "hit": false,
      "t": 17667.812341666664,
      "d": 51.36987500000032,
      "v": 127
    },
    {
      "midi": 33,
      "hit": false,
      "t": 17667.812341666675,
      "d": 154.10962500000096,
      "v": 107
    },
    {
      "midi": 62,
      "hit": false,
      "t": 17667.81234166668,
      "d": 229.45210833333476,
      "v": 105
    },
    {
      "midi": 52,
      "hit": false,
      "t": 17667.812341666697,
      "d": 102.73975000000064,
      "v": 65
    },
    {
      "midi": 45,
      "hit": false,
      "t": 17667.812341666697,
      "d": 102.73975000000064,
      "v": 67
    },
    {
      "midi": 36,
      "hit": false,
      "t": 17671.237000000005,
      "d": 51.36987500000032,
      "v": 107
    },
    {
      "midi": 13,
      "hit": false,
      "t": 17671.237000000005,
      "d": 51.36987500000032,
      "v": 127
    },
    {
      "midi": 42,
      "hit": false,
      "t": 17671.237000000012,
      "d": 102.73975000000064,
      "v": 107
    },
    {
      "midi": 38,
      "hit": false,
      "t": 17671.237000000016,
      "d": 51.36987500000032,
      "v": 88
    },
    {
      "midi": 40,
      "hit": false,
      "t": 17671.237000000016,
      "d": 51.36987500000032,
      "v": 88
    },
    {
      "midi": 59,
      "hit": false,
      "t": 17671.237000000026,
      "d": 205.47950000000128,
      "v": 79
    },
    {
      "midi": 70,
      "hit": false,
      "t": 17671.23700000005,
      "d": 51.36987500000032,
      "v": 60
    },
    {
      "midi": 69,
      "hit": false,
      "t": 17671.23700000005,
      "d": 51.36987500000032,
      "v": 50
    },
    {
      "midi": 70,
      "hit": false,
      "t": 17773.97675000005,
      "d": 51.36987500000032,
      "v": 49
    },
    {
      "midi": 69,
      "hit": false,
      "t": 17773.97675000005,
      "d": 51.36987500000032,
      "v": 39
    },
    {
      "midi": 45,
      "hit": false,
      "t": 17873.291841666676,
      "d": 51.36987500000032,
      "v": 107
    },
    {
      "midi": 64,
      "hit": false,
      "t": 17873.29184166668,
      "d": 143.8356500000009,
      "v": 115
    },
    {
      "midi": 52,
      "hit": false,
      "t": 17873.291841666698,
      "d": 205.47950000000128,
      "v": 75
    },
    {
      "midi": 45,
      "hit": false,
      "t": 17873.291841666698,
      "d": 205.47950000000128,
      "v": 85
    },
    {
      "midi": 46,
      "hit": false,
      "t": 17876.716500000006,
      "d": 102.73975000000064,
      "v": 107
    },
    {
      "midi": 38,
      "hit": false,
      "t": 17876.716500000017,
      "d": 51.36987500000032,
      "v": 68
    },
    {
      "midi": 40,
      "hit": false,
      "t": 17876.716500000017,
      "d": 51.36987500000032,
      "v": 68
    },
    {
      "midi": 57,
      "hit": false,
      "t": 17876.716500000028,
      "d": 102.73975000000064,
      "v": 91
    },
    {
      "midi": 70,
      "hit": false,
      "t": 17876.71650000005,
      "d": 51.36987500000032,
      "v": 109
    },
    {
      "midi": 69,
      "hit": false,
      "t": 17876.71650000005,
      "d": 51.36987500000032,
      "v": 99
    },
    {
      "midi": 45,
      "hit": false,
      "t": 17976.031591666677,
      "d": 51.36987500000032,
      "v": 107
    },
    {
      "midi": 38,
      "hit": false,
      "t": 17979.456250000017,
      "d": 51.36987500000032,
      "v": 52
    },
    {
      "midi": 40,
      "hit": false,
      "t": 17979.456250000017,
      "d": 51.36987500000032,
      "v": 52
    },
    {
      "midi": 70,
      "hit": false,
      "t": 17979.45625000005,
      "d": 51.36987500000032,
      "v": 53
    },
    {
      "midi": 69,
      "hit": false,
      "t": 17979.45625000005,
      "d": 51.36987500000032,
      "v": 43
    },
    {
      "midi": 35,
      "hit": false,
      "t": 18078.771341666677,
      "d": 154.10962500000096,
      "v": 107
    },
    {
      "midi": 66,
      "hit": false,
      "t": 18078.77134166668,
      "d": 297.94527500000186,
      "v": 112
    },
    {
      "midi": 54,
      "hit": false,
      "t": 18078.7713416667,
      "d": 102.73975000000064,
      "v": 90
    },
    {
      "midi": 47,
      "hit": false,
      "t": 18078.7713416667,
      "d": 102.73975000000064,
      "v": 78
    },
    {
      "midi": 62,
      "hit": false,
      "t": 18082.196000000004,
      "d": 815.0686833333348,
      "v": 80
    },
    {
      "midi": 66,
      "hit": false,
      "t": 18082.196000000004,
      "d": 815.0686833333348,
      "v": 80
    },
    {
      "midi": 71,
      "hit": false,
      "t": 18082.196000000004,
      "d": 815.0686833333348,
      "v": 80
    },
    {
      "midi": 36,
      "hit": false,
      "t": 18082.196000000004,
      "d": 51.36987500000032,
      "v": 107
    },
    {
      "midi": 13,
      "hit": false,
      "t": 18082.196000000004,
      "d": 51.36987500000032,
      "v": 127
    },
    {
      "midi": 42,
      "hit": false,
      "t": 18082.19600000001,
      "d": 102.73975000000064,
      "v": 107
    },
    {
      "midi": 38,
      "hit": false,
      "t": 18082.196000000018,
      "d": 51.36987500000032,
      "v": 63
    },
    {
      "midi": 40,
      "hit": false,
      "t": 18082.196000000018,
      "d": 51.36987500000032,
      "v": 63
    },
    {
      "midi": 57,
      "hit": false,
      "t": 18082.19600000003,
      "d": 205.47950000000128,
      "v": 88
    },
    {
      "midi": 70,
      "hit": false,
      "t": 18082.19600000005,
      "d": 51.36987500000032,
      "v": 60
    },
    {
      "midi": 69,
      "hit": false,
      "t": 18082.19600000005,
      "d": 51.36987500000032,
      "v": 50
    },
    {
      "midi": 70,
      "hit": false,
      "t": 18184.93575000005,
      "d": 51.36987500000032,
      "v": 49
    },
    {
      "midi": 69,
      "hit": false,
      "t": 18184.93575000005,
      "d": 51.36987500000032,
      "v": 39
    },
    {
      "midi": 47,
      "hit": false,
      "t": 18284.25084166668,
      "d": 51.36987500000032,
      "v": 107
    },
    {
      "midi": 54,
      "hit": false,
      "t": 18284.2508416667,
      "d": 102.73975000000064,
      "v": 78
    },
    {
      "midi": 47,
      "hit": false,
      "t": 18284.2508416667,
      "d": 102.73975000000064,
      "v": 47
    },
    {
      "midi": 46,
      "hit": false,
      "t": 18287.675500000005,
      "d": 102.73975000000064,
      "v": 107
    },
    {
      "midi": 70,
      "hit": false,
      "t": 18287.675500000052,
      "d": 51.36987500000032,
      "v": 109
    },
    {
      "midi": 69,
      "hit": false,
      "t": 18287.675500000052,
      "d": 51.36987500000032,
      "v": 99
    },
    {
      "midi": 47,
      "hit": false,
      "t": 18386.99059166668,
      "d": 51.36987500000032,
      "v": 107
    },
    {
      "midi": 66,
      "hit": false,
      "t": 18386.990591666683,
      "d": 294.52061666666486,
      "v": 110
    },
    {
      "midi": 62,
      "hit": false,
      "t": 18390.41525000003,
      "d": 102.73975000000064,
      "v": 94
    },
    {
      "midi": 70,
      "hit": false,
      "t": 18390.415250000053,
      "d": 51.36987500000032,
      "v": 53
    },
    {
      "midi": 69,
      "hit": false,
      "t": 18390.415250000053,
      "d": 51.36987500000032,
      "v": 43
    },
    {
      "midi": 109,
      "hit": false,
      "t": 18489.730341666665,
      "d": 51.36987500000032,
      "v": 127
    },
    {
      "midi": 35,
      "hit": false,
      "t": 18489.73034166668,
      "d": 154.10962500000096,
      "v": 107
    },
    {
      "midi": 47,
      "hit": false,
      "t": 18489.730341666702,
      "d": 308.2192499999983,
      "v": 65
    },
    {
      "midi": 54,
      "hit": false,
      "t": 18489.730341666702,
      "d": 308.2192499999983,
      "v": 101
    },
    {
      "midi": 36,
      "hit": false,
      "t": 18493.155000000002,
      "d": 51.36987500000032,
      "v": 107
    },
    {
      "midi": 13,
      "hit": false,
      "t": 18493.155000000002,
      "d": 51.36987500000032,
      "v": 127
    },
    {
      "midi": 42,
      "hit": false,
      "t": 18493.15500000001,
      "d": 102.73975000000064,
      "v": 107
    },
    {
      "midi": 38,
      "hit": false,
      "t": 18493.155000000017,
      "d": 51.36987500000032,
      "v": 88
    },
    {
      "midi": 40,
      "hit": false,
      "t": 18493.155000000017,
      "d": 51.36987500000032,
      "v": 88
    },
    {
      "midi": 70,
      "hit": false,
      "t": 18493.155000000053,
      "d": 51.36987500000032,
      "v": 60
    },
    {
      "midi": 69,
      "hit": false,
      "t": 18493.155000000053,
      "d": 51.36987500000032,
      "v": 50
    },
    {
      "midi": 70,
      "hit": false,
      "t": 18595.894750000054,
      "d": 51.36987500000032,
      "v": 49
    },
    {
      "midi": 69,
      "hit": false,
      "t": 18595.894750000054,
      "d": 51.36987500000032,
      "v": 39
    },
    {
      "midi": 47,
      "hit": false,
      "t": 18695.20984166668,
      "d": 51.36987500000032,
      "v": 107
    },
    {
      "midi": 67,
      "hit": false,
      "t": 18695.20984166668,
      "d": 215.75347500000134,
      "v": 105
    },
    {
      "midi": 46,
      "hit": false,
      "t": 18698.634500000004,
      "d": 205.47950000000128,
      "v": 107
    },
    {
      "midi": 57,
      "hit": false,
      "t": 18698.634500000033,
      "d": 102.73975000000064,
      "v": 30
    },
    {
      "midi": 70,
      "hit": false,
      "t": 18698.634500000055,
      "d": 51.36987500000032,
      "v": 109
    },
    {
      "midi": 69,
      "hit": false,
      "t": 18698.634500000055,
      "d": 51.36987500000032,
      "v": 99
    },
    {
      "midi": 47,
      "hit": false,
      "t": 18797.949591666682,
      "d": 51.36987500000032,
      "v": 107
    },
    {
      "midi": 38,
      "hit": false,
      "t": 18801.37425000002,
      "d": 51.36987500000032,
      "v": 88
    },
    {
      "midi": 40,
      "hit": false,
      "t": 18801.37425000002,
      "d": 51.36987500000032,
      "v": 88
    },
    {
      "midi": 70,
      "hit": false,
      "t": 18801.374250000055,
      "d": 51.36987500000032,
      "v": 53
    },
    {
      "midi": 69,
      "hit": false,
      "t": 18801.374250000055,
      "d": 51.36987500000032,
      "v": 43
    },
    {
      "midi": 33,
      "hit": false,
      "t": 18900.689341666683,
      "d": 154.10962500000096,
      "v": 107
    },
    {
      "midi": 66,
      "hit": false,
      "t": 18900.689341666683,
      "d": 315.06856666666863,
      "v": 122
    },
    {
      "midi": 45,
      "hit": false,
      "t": 18900.6893416667,
      "d": 102.73975000000064,
      "v": 75
    },
    {
      "midi": 52,
      "hit": false,
      "t": 18900.6893416667,
      "d": 102.73975000000064,
      "v": 65
    },
    {
      "midi": 36,
      "hit": false,
      "t": 18904.114,
      "d": 51.36987500000032,
      "v": 107
    },
    {
      "midi": 13,
      "hit": false,
      "t": 18904.114,
      "d": 51.36987500000032,
      "v": 127
    },
    {
      "midi": 64,
      "hit": false,
      "t": 18904.114000000005,
      "d": 815.0686833333348,
      "v": 80
    },
    {
      "midi": 61,
      "hit": false,
      "t": 18904.114000000005,
      "d": 815.0686833333348,
      "v": 80
    },
    {
      "midi": 69,
      "hit": false,
      "t": 18904.114000000005,
      "d": 815.0686833333348,
      "v": 80
    },
    {
      "midi": 42,
      "hit": false,
      "t": 18904.11400000001,
      "d": 102.73975000000064,
      "v": 102
    },
    {
      "midi": 57,
      "hit": false,
      "t": 18904.114000000034,
      "d": 102.73975000000064,
      "v": 41
    },
    {
      "midi": 70,
      "hit": false,
      "t": 18904.114000000056,
      "d": 51.36987500000032,
      "v": 60
    },
    {
      "midi": 69,
      "hit": false,
      "t": 18904.114000000056,
      "d": 51.36987500000032,
      "v": 50
    },
    {
      "midi": 38,
      "hit": false,
      "t": 19006.85375000002,
      "d": 51.36987500000032,
      "v": 69
    },
    {
      "midi": 40,
      "hit": false,
      "t": 19006.85375000002,
      "d": 51.36987500000032,
      "v": 69
    },
    {
      "midi": 70,
      "hit": false,
      "t": 19006.853750000057,
      "d": 51.36987500000032,
      "v": 49
    },
    {
      "midi": 69,
      "hit": false,
      "t": 19006.853750000057,
      "d": 51.36987500000032,
      "v": 39
    },
    {
      "midi": 45,
      "hit": false,
      "t": 19106.168841666684,
      "d": 51.36987500000032,
      "v": 107
    },
    {
      "midi": 45,
      "hit": false,
      "t": 19106.168841666702,
      "d": 102.73975000000064,
      "v": 45
    },
    {
      "midi": 52,
      "hit": false,
      "t": 19106.168841666702,
      "d": 102.73975000000064,
      "v": 71
    },
    {
      "midi": 46,
      "hit": false,
      "t": 19109.593500000006,
      "d": 102.73975000000064,
      "v": 107
    },
    {
      "midi": 57,
      "hit": false,
      "t": 19109.593500000035,
      "d": 205.47950000000128,
      "v": 61
    },
    {
      "midi": 70,
      "hit": false,
      "t": 19109.593500000057,
      "d": 51.36987500000032,
      "v": 109
    },
    {
      "midi": 69,
      "hit": false,
      "t": 19109.593500000057,
      "d": 51.36987500000032,
      "v": 99
    },
    {
      "midi": 45,
      "hit": false,
      "t": 19208.908591666685,
      "d": 51.36987500000032,
      "v": 107
    },
    {
      "midi": 70,
      "hit": false,
      "t": 19212.333250000058,
      "d": 51.36987500000032,
      "v": 53
    },
    {
      "midi": 69,
      "hit": false,
      "t": 19212.333250000058,
      "d": 51.36987500000032,
      "v": 43
    },
    {
      "midi": 109,
      "hit": false,
      "t": 19311.648341666667,
      "d": 51.36987500000032,
      "v": 127
    },
    {
      "midi": 33,
      "hit": false,
      "t": 19311.648341666685,
      "d": 154.10962500000096,
      "v": 107
    },
    {
      "midi": 64,
      "hit": false,
      "t": 19311.648341666685,
      "d": 417.80831666666927,
      "v": 113
    },
    {
      "midi": 52,
      "hit": false,
      "t": 19311.648341666703,
      "d": 308.2192499999983,
      "v": 82
    },
    {
      "midi": 45,
      "hit": false,
      "t": 19311.648341666703,
      "d": 308.2192499999983,
      "v": 95
    },
    {
      "midi": 36,
      "hit": false,
      "t": 19315.073,
      "d": 51.36987500000032,
      "v": 107
    },
    {
      "midi": 13,
      "hit": false,
      "t": 19315.073,
      "d": 51.36987500000032,
      "v": 127
    },
    {
      "midi": 42,
      "hit": false,
      "t": 19315.073000000008,
      "d": 102.73975000000064,
      "v": 107
    },
    {
      "midi": 38,
      "hit": false,
      "t": 19315.073000000022,
      "d": 51.36987500000032,
      "v": 88
    },
    {
      "midi": 40,
      "hit": false,
      "t": 19315.073000000022,
      "d": 51.36987500000032,
      "v": 88
    },
    {
      "midi": 59,
      "hit": false,
      "t": 19315.073000000037,
      "d": 205.47950000000128,
      "v": 77
    },
    {
      "midi": 70,
      "hit": false,
      "t": 19315.07300000006,
      "d": 51.36987500000032,
      "v": 60
    },
    {
      "midi": 69,
      "hit": false,
      "t": 19315.07300000006,
      "d": 51.36987500000032,
      "v": 50
    },
    {
      "midi": 70,
      "hit": false,
      "t": 19417.81275000006,
      "d": 51.36987500000032,
      "v": 49
    },
    {
      "midi": 69,
      "hit": false,
      "t": 19417.81275000006,
      "d": 51.36987500000032,
      "v": 39
    },
    {
      "midi": 45,
      "hit": false,
      "t": 19517.127841666686,
      "d": 51.36987500000032,
      "v": 107
    },
    {
      "midi": 36,
      "hit": false,
      "t": 19520.5525,
      "d": 51.36987500000032,
      "v": 107
    },
    {
      "midi": 13,
      "hit": false,
      "t": 19520.5525,
      "d": 51.36987500000032,
      "v": 127
    },
    {
      "midi": 46,
      "hit": false,
      "t": 19520.552500000005,
      "d": 102.73975000000064,
      "v": 107
    },
    {
      "midi": 38,
      "hit": false,
      "t": 19520.552500000023,
      "d": 51.36987500000032,
      "v": 68
    },
    {
      "midi": 40,
      "hit": false,
      "t": 19520.552500000023,
      "d": 51.36987500000032,
      "v": 68
    },
    {
      "midi": 57,
      "hit": false,
      "t": 19520.552500000038,
      "d": 102.73975000000064,
      "v": 85
    },
    {
      "midi": 70,
      "hit": false,
      "t": 19520.55250000006,
      "d": 51.36987500000032,
      "v": 109
    },
    {
      "midi": 69,
      "hit": false,
      "t": 19520.55250000006,
      "d": 51.36987500000032,
      "v": 99
    },
    {
      "midi": 45,
      "hit": false,
      "t": 19619.867591666687,
      "d": 51.36987500000032,
      "v": 107
    },
    {
      "midi": 38,
      "hit": false,
      "t": 19623.292250000024,
      "d": 51.36987500000032,
      "v": 52
    },
    {
      "midi": 40,
      "hit": false,
      "t": 19623.292250000024,
      "d": 51.36987500000032,
      "v": 52
    },
    {
      "midi": 70,
      "hit": false,
      "t": 19623.29225000006,
      "d": 51.36987500000032,
      "v": 53
    },
    {
      "midi": 69,
      "hit": false,
      "t": 19623.29225000006,
      "d": 51.36987500000032,
      "v": 43
    },
    {
      "midi": 31,
      "hit": false,
      "t": 19722.607341666688,
      "d": 154.10962500000096,
      "v": 107
    },
    {
      "midi": 50,
      "hit": false,
      "t": 19722.607341666702,
      "d": 102.73975000000064,
      "v": 52
    },
    {
      "midi": 43,
      "hit": false,
      "t": 19722.607341666702,
      "d": 102.73975000000064,
      "v": 46
    },
    {
      "midi": 36,
      "hit": false,
      "t": 19726.032000000003,
      "d": 51.36987500000032,
      "v": 107
    },
    {
      "midi": 13,
      "hit": false,
      "t": 19726.032000000003,
      "d": 51.36987500000032,
      "v": 127
    },
    {
      "midi": 62,
      "hit": false,
      "t": 19726.032000000007,
      "d": 815.0686833333348,
      "v": 80
    },
    {
      "midi": 67,
      "hit": false,
      "t": 19726.032000000007,
      "d": 815.0686833333348,
      "v": 80
    },
    {
      "midi": 59,
      "hit": false,
      "t": 19726.032000000007,
      "d": 815.0686833333348,
      "v": 80
    },
    {
      "midi": 42,
      "hit": false,
      "t": 19726.032000000007,
      "d": 102.73975000000064,
      "v": 107
    },
    {
      "midi": 38,
      "hit": false,
      "t": 19726.032000000025,
      "d": 51.36987500000032,
      "v": 63
    },
    {
      "midi": 40,
      "hit": false,
      "t": 19726.032000000025,
      "d": 51.36987500000032,
      "v": 64
    },
    {
      "midi": 57,
      "hit": false,
      "t": 19726.03200000004,
      "d": 171.23291666666773,
      "v": 77
    },
    {
      "midi": 70,
      "hit": false,
      "t": 19726.03200000006,
      "d": 51.36987500000032,
      "v": 60
    },
    {
      "midi": 69,
      "hit": false,
      "t": 19726.03200000006,
      "d": 51.36987500000032,
      "v": 50
    },
    {
      "midi": 70,
      "hit": false,
      "t": 19828.77175000006,
      "d": 51.36987500000032,
      "v": 49
    },
    {
      "midi": 69,
      "hit": false,
      "t": 19828.77175000006,
      "d": 51.36987500000032,
      "v": 39
    },
    {
      "midi": 43,
      "hit": false,
      "t": 19928.08684166669,
      "d": 51.36987500000032,
      "v": 107
    },
    {
      "midi": 62,
      "hit": false,
      "t": 19928.08684166669,
      "d": 202.05484166666793,
      "v": 115
    },
    {
      "midi": 43,
      "hit": false,
      "t": 19928.086841666704,
      "d": 102.73975000000064,
      "v": 47
    },
    {
      "midi": 50,
      "hit": false,
      "t": 19928.086841666704,
      "d": 102.73975000000064,
      "v": 58
    },
    {
      "midi": 46,
      "hit": false,
      "t": 19931.511500000004,
      "d": 102.73975000000064,
      "v": 107
    },
    {
      "midi": 70,
      "hit": false,
      "t": 19931.511500000062,
      "d": 51.36987500000032,
      "v": 109
    },
    {
      "midi": 69,
      "hit": false,
      "t": 19931.511500000062,
      "d": 51.36987500000032,
      "v": 99
    },
    {
      "midi": 43,
      "hit": false,
      "t": 20030.82659166669,
      "d": 51.36987500000032,
      "v": 107
    },
    {
      "midi": 62,
      "hit": false,
      "t": 20034.25125000004,
      "d": 102.73975000000064,
      "v": 88
    },
    {
      "midi": 70,
      "hit": false,
      "t": 20034.251250000063,
      "d": 51.36987500000032,
      "v": 53
    },
    {
      "midi": 69,
      "hit": false,
      "t": 20034.251250000063,
      "d": 51.36987500000032,
      "v": 43
    },
    {
      "midi": 109,
      "hit": false,
      "t": 20133.56634166667,
      "d": 51.36987500000032,
      "v": 127
    },
    {
      "midi": 31,
      "hit": false,
      "t": 20133.56634166669,
      "d": 154.10962500000096,
      "v": 107
    },
    {
      "midi": 62,
      "hit": false,
      "t": 20133.56634166669,
      "d": 130.13701666666748,
      "v": 95
    },
    {
      "midi": 43,
      "hit": false,
      "t": 20133.566341666705,
      "d": 102.73975000000064,
      "v": 53
    },
    {
      "midi": 50,
      "hit": false,
      "t": 20133.566341666705,
      "d": 102.73975000000064,
      "v": 63
    },
    {
      "midi": 36,
      "hit": false,
      "t": 20136.991,
      "d": 51.36987500000032,
      "v": 107
    },
    {
      "midi": 13,
      "hit": false,
      "t": 20136.991,
      "d": 51.36987500000032,
      "v": 127
    },
    {
      "midi": 42,
      "hit": false,
      "t": 20136.991000000005,
      "d": 102.73975000000064,
      "v": 107
    },
    {
      "midi": 38,
      "hit": false,
      "t": 20136.991000000024,
      "d": 51.36987500000032,
      "v": 88
    },
    {
      "midi": 40,
      "hit": false,
      "t": 20136.991000000024,
      "d": 51.36987500000032,
      "v": 88
    },
    {
      "midi": 70,
      "hit": false,
      "t": 20136.991000000064,
      "d": 51.36987500000032,
      "v": 60
    },
    {
      "midi": 69,
      "hit": false,
      "t": 20136.991000000064,
      "d": 51.36987500000032,
      "v": 50
    },
    {
      "midi": 70,
      "hit": false,
      "t": 20239.730750000064,
      "d": 51.36987500000032,
      "v": 49
    },
    {
      "midi": 69,
      "hit": false,
      "t": 20239.730750000064,
      "d": 51.36987500000032,
      "v": 39
    },
    {
      "midi": 43,
      "hit": false,
      "t": 20339.04584166669,
      "d": 51.36987500000032,
      "v": 107
    },
    {
      "midi": 62,
      "hit": false,
      "t": 20339.04584166669,
      "d": 191.78086666666786,
      "v": 104
    },
    {
      "midi": 43,
      "hit": false,
      "t": 20339.045841666706,
      "d": 102.73975000000064,
      "v": 71
    },
    {
      "midi": 50,
      "hit": false,
      "t": 20339.045841666706,
      "d": 205.47950000000128,
      "v": 71
    },
    {
      "midi": 46,
      "hit": false,
      "t": 20342.470500000003,
      "d": 205.47950000000128,
      "v": 107
    },
    {
      "midi": 57,
      "hit": false,
      "t": 20342.470500000043,
      "d": 102.73975000000064,
      "v": 70
    },
    {
      "midi": 70,
      "hit": false,
      "t": 20342.470500000065,
      "d": 51.36987500000032,
      "v": 109
    },
    {
      "midi": 69,
      "hit": false,
      "t": 20342.470500000065,
      "d": 51.36987500000032,
      "v": 99
    },
    {
      "midi": 43,
      "hit": false,
      "t": 20441.785591666692,
      "d": 51.36987500000032,
      "v": 107
    },
    {
      "midi": 38,
      "hit": false,
      "t": 20445.210250000026,
      "d": 51.36987500000032,
      "v": 88
    },
    {
      "midi": 40,
      "hit": false,
      "t": 20445.210250000026,
      "d": 51.36987500000032,
      "v": 88
    },
    {
      "midi": 70,
      "hit": false,
      "t": 20445.210250000066,
      "d": 51.36987500000032,
      "v": 53
    },
    {
      "midi": 69,
      "hit": false,
      "t": 20445.210250000066,
      "d": 51.36987500000032,
      "v": 43
    },
    {
      "midi": 33,
      "hit": false,
      "t": 20544.525341666693,
      "d": 154.10962500000096,
      "v": 107
    },
    {
      "midi": 62,
      "hit": false,
      "t": 20544.525341666693,
      "d": 212.328816666668,
      "v": 95
    },
    {
      "midi": 45,
      "hit": false,
      "t": 20544.525341666707,
      "d": 102.73975000000064,
      "v": 63
    },
    {
      "midi": 52,
      "hit": false,
      "t": 20544.525341666707,
      "d": 102.73975000000064,
      "v": 75
    },
    {
      "midi": 36,
      "hit": false,
      "t": 20547.95,
      "d": 51.36987500000032,
      "v": 107
    },
    {
      "midi": 13,
      "hit": false,
      "t": 20547.95,
      "d": 51.36987500000032,
      "v": 127
    },
    {
      "midi": 42,
      "hit": false,
      "t": 20547.950000000004,
      "d": 102.73975000000064,
      "v": 102
    },
    {
      "midi": 61,
      "hit": false,
      "t": 20547.950000000008,
      "d": 815.0686833333348,
      "v": 80
    },
    {
      "midi": 64,
      "hit": false,
      "t": 20547.950000000008,
      "d": 815.0686833333348,
      "v": 80
    },
    {
      "midi": 69,
      "hit": false,
      "t": 20547.950000000008,
      "d": 815.0686833333348,
      "v": 80
    },
    {
      "midi": 64,
      "hit": false,
      "t": 20547.950000000044,
      "d": 205.47950000000128,
      "v": 118
    },
    {
      "midi": 70,
      "hit": false,
      "t": 20547.950000000066,
      "d": 51.36987500000032,
      "v": 60
    },
    {
      "midi": 69,
      "hit": false,
      "t": 20547.950000000066,
      "d": 51.36987500000032,
      "v": 50
    },
    {
      "midi": 38,
      "hit": false,
      "t": 20650.689750000027,
      "d": 51.36987500000032,
      "v": 69
    },
    {
      "midi": 40,
      "hit": false,
      "t": 20650.689750000027,
      "d": 51.36987500000032,
      "v": 69
    },
    {
      "midi": 70,
      "hit": false,
      "t": 20650.689750000067,
      "d": 51.36987500000032,
      "v": 49
    },
    {
      "midi": 69,
      "hit": false,
      "t": 20650.689750000067,
      "d": 51.36987500000032,
      "v": 39
    },
    {
      "midi": 45,
      "hit": false,
      "t": 20750.004841666694,
      "d": 51.36987500000032,
      "v": 107
    },
    {
      "midi": 61,
      "hit": false,
      "t": 20750.004841666694,
      "d": 205.47950000000128,
      "v": 115
    },
    {
      "midi": 45,
      "hit": false,
      "t": 20750.00484166671,
      "d": 102.73975000000064,
      "v": 39
    },
    {
      "midi": 52,
      "hit": false,
      "t": 20750.00484166671,
      "d": 102.73975000000064,
      "v": 46
    },
    {
      "midi": 46,
      "hit": false,
      "t": 20753.429500000006,
      "d": 102.73975000000064,
      "v": 107
    },
    {
      "midi": 70,
      "hit": false,
      "t": 20753.429500000067,
      "d": 51.36987500000032,
      "v": 109
    },
    {
      "midi": 69,
      "hit": false,
      "t": 20753.429500000067,
      "d": 51.36987500000032,
      "v": 99
    },
    {
      "midi": 45,
      "hit": false,
      "t": 20852.744591666695,
      "d": 51.36987500000032,
      "v": 107
    },
    {
      "midi": 70,
      "hit": false,
      "t": 20856.169250000068,
      "d": 51.36987500000032,
      "v": 53
    },
    {
      "midi": 69,
      "hit": false,
      "t": 20856.169250000068,
      "d": 51.36987500000032,
      "v": 43
    },
    {
      "midi": 109,
      "hit": false,
      "t": 20955.48434166667,
      "d": 51.36987500000032,
      "v": 127
    },
    {
      "midi": 33,
      "hit": false,
      "t": 20955.484341666695,
      "d": 154.10962500000096,
      "v": 107
    },
    {
      "midi": 57,
      "hit": false,
      "t": 20955.484341666695,
      "d": 202.05484166666793,
      "v": 88
    },
    {
      "midi": 52,
      "hit": false,
      "t": 20955.48434166671,
      "d": 308.2192499999983,
      "v": 85
    },
    {
      "midi": 45,
      "hit": false,
      "t": 20955.48434166671,
      "d": 308.2192499999983,
      "v": 90
    },
    {
      "midi": 36,
      "hit": false,
      "t": 20958.909,
      "d": 51.36987500000032,
      "v": 107
    },
    {
      "midi": 13,
      "hit": false,
      "t": 20958.909,
      "d": 51.36987500000032,
      "v": 127
    },
    {
      "midi": 42,
      "hit": false,
      "t": 20958.909000000003,
      "d": 102.73975000000064,
      "v": 107
    },
    {
      "midi": 38,
      "hit": false,
      "t": 20958.90900000003,
      "d": 51.36987500000032,
      "v": 88
    },
    {
      "midi": 40,
      "hit": false,
      "t": 20958.90900000003,
      "d": 51.36987500000032,
      "v": 88
    },
    {
      "midi": 64,
      "hit": false,
      "t": 20958.909000000047,
      "d": 205.47950000000128,
      "v": 81
    },
    {
      "midi": 70,
      "hit": false,
      "t": 20958.90900000007,
      "d": 51.36987500000032,
      "v": 60
    },
    {
      "midi": 69,
      "hit": false,
      "t": 20958.90900000007,
      "d": 51.36987500000032,
      "v": 50
    },
    {
      "midi": 70,
      "hit": false,
      "t": 21061.64875000007,
      "d": 51.36987500000032,
      "v": 49
    },
    {
      "midi": 69,
      "hit": false,
      "t": 21061.64875000007,
      "d": 51.36987500000032,
      "v": 39
    },
    {
      "midi": 45,
      "hit": false,
      "t": 21160.963841666697,
      "d": 51.36987500000032,
      "v": 107
    },
    {
      "midi": 59,
      "hit": false,
      "t": 21160.963841666697,
      "d": 410.95900000000256,
      "v": 102
    },
    {
      "midi": 46,
      "hit": false,
      "t": 21164.388500000005,
      "d": 102.73975000000064,
      "v": 107
    },
    {
      "midi": 38,
      "hit": false,
      "t": 21164.38850000003,
      "d": 51.36987500000032,
      "v": 68
    },
    {
      "midi": 40,
      "hit": false,
      "t": 21164.38850000003,
      "d": 51.36987500000032,
      "v": 68
    },
    {
      "midi": 70,
      "hit": false,
      "t": 21164.38850000007,
      "d": 51.36987500000032,
      "v": 109
    },
    {
      "midi": 69,
      "hit": false,
      "t": 21164.38850000007,
      "d": 51.36987500000032,
      "v": 99
    },
    {
      "midi": 45,
      "hit": false,
      "t": 21263.703591666697,
      "d": 51.36987500000032,
      "v": 107
    },
    {
      "midi": 38,
      "hit": false,
      "t": 21267.12825000003,
      "d": 51.36987500000032,
      "v": 52
    },
    {
      "midi": 40,
      "hit": false,
      "t": 21267.12825000003,
      "d": 51.36987500000032,
      "v": 52
    },
    {
      "midi": 70,
      "hit": false,
      "t": 21267.12825000007,
      "d": 51.36987500000032,
      "v": 53
    },
    {
      "midi": 69,
      "hit": false,
      "t": 21267.12825000007,
      "d": 51.36987500000032,
      "v": 43
    },
    {
      "midi": 28,
      "hit": false,
      "t": 21366.443341666698,
      "d": 154.10962500000096,
      "v": 107
    },
    {
      "midi": 59,
      "hit": false,
      "t": 21366.44334166671,
      "d": 102.73975000000064,
      "v": 65
    },
    {
      "midi": 52,
      "hit": false,
      "t": 21366.44334166671,
      "d": 102.73975000000064,
      "v": 85
    },
    {
      "midi": 36,
      "hit": false,
      "t": 21369.868,
      "d": 51.36987500000032,
      "v": 107
    },
    {
      "midi": 13,
      "hit": false,
      "t": 21369.868,
      "d": 51.36987500000032,
      "v": 127
    },
    {
      "midi": 42,
      "hit": false,
      "t": 21369.868000000002,
      "d": 102.73975000000064,
      "v": 107
    },
    {
      "midi": 64,
      "hit": false,
      "t": 21369.86800000001,
      "d": 1643.8359999999993,
      "v": 80
    },
    {
      "midi": 59,
      "hit": false,
      "t": 21369.86800000001,
      "d": 1643.8359999999993,
      "v": 80
    },
    {
      "midi": 56,
      "hit": false,
      "t": 21369.86800000001,
      "d": 1643.8359999999993,
      "v": 80
    },
    {
      "midi": 38,
      "hit": false,
      "t": 21369.86800000003,
      "d": 51.36987500000032,
      "v": 64
    },
    {
      "midi": 40,
      "hit": false,
      "t": 21369.86800000003,
      "d": 51.36987500000032,
      "v": 64
    },
    {
      "midi": 57,
      "hit": false,
      "t": 21369.86800000005,
      "d": 171.23291666666773,
      "v": 98
    },
    {
      "midi": 70,
      "hit": false,
      "t": 21369.86800000007,
      "d": 51.36987500000032,
      "v": 60
    },
    {
      "midi": 69,
      "hit": false,
      "t": 21369.86800000007,
      "d": 51.36987500000032,
      "v": 50
    },
    {
      "midi": 80,
      "hit": false,
      "t": 21469.18309166671,
      "d": 102.73975000000064,
      "v": 65
    },
    {
      "midi": 76,
      "hit": false,
      "t": 21469.18309166671,
      "d": 102.73975000000064,
      "v": 55
    },
    {
      "midi": 70,
      "hit": false,
      "t": 21472.607750000072,
      "d": 51.36987500000032,
      "v": 49
    },
    {
      "midi": 69,
      "hit": false,
      "t": 21472.607750000072,
      "d": 51.36987500000032,
      "v": 39
    },
    {
      "midi": 40,
      "hit": false,
      "t": 21571.9228416667,
      "d": 51.36987500000032,
      "v": 107
    },
    {
      "midi": 64,
      "hit": false,
      "t": 21571.9228416667,
      "d": 181.5068916666678,
      "v": 115
    },
    {
      "midi": 80,
      "hit": false,
      "t": 21571.92284166671,
      "d": 68.4931666666671,
      "v": 119
    },
    {
      "midi": 71,
      "hit": false,
      "t": 21571.92284166671,
      "d": 205.47950000000128,
      "v": 77
    },
    {
      "midi": 64,
      "hit": false,
      "t": 21571.92284166671,
      "d": 205.47950000000128,
      "v": 90
    },
    {
      "midi": 46,
      "hit": false,
      "t": 21575.347500000003,
      "d": 102.73975000000064,
      "v": 107
    },
    {
      "midi": 70,
      "hit": false,
      "t": 21575.347500000073,
      "d": 51.36987500000032,
      "v": 109
    },
    {
      "midi": 69,
      "hit": false,
      "t": 21575.347500000073,
      "d": 51.36987500000032,
      "v": 99
    },
    {
      "midi": 40,
      "hit": false,
      "t": 21674.6625916667,
      "d": 51.36987500000032,
      "v": 107
    },
    {
      "midi": 64,
      "hit": false,
      "t": 21678.08725000005,
      "d": 102.73975000000064,
      "v": 107
    },
    {
      "midi": 70,
      "hit": false,
      "t": 21678.087250000073,
      "d": 51.36987500000032,
      "v": 53
    },
    {
      "midi": 69,
      "hit": false,
      "t": 21678.087250000073,
      "d": 51.36987500000032,
      "v": 43
    },
    {
      "midi": 109,
      "hit": false,
      "t": 21777.40234166667,
      "d": 51.36987500000032,
      "v": 127
    },
    {
      "midi": 28,
      "hit": false,
      "t": 21777.4023416667,
      "d": 154.10962500000096,
      "v": 107
    },
    {
      "midi": 64,
      "hit": false,
      "t": 21777.4023416667,
      "d": 517.1234083333366,
      "v": 110
    },
    {
      "midi": 64,
      "hit": false,
      "t": 21777.40234166671,
      "d": 410.9589999999989,
      "v": 119
    },
    {
      "midi": 36,
      "hit": false,
      "t": 21780.826999999997,
      "d": 51.36987500000032,
      "v": 107
    },
    {
      "midi": 13,
      "hit": false,
      "t": 21780.826999999997,
      "d": 51.36987500000032,
      "v": 127
    },
    {
      "midi": 42,
      "hit": false,
      "t": 21780.827,
      "d": 102.73975000000064,
      "v": 107
    },
    {
      "midi": 38,
      "hit": false,
      "t": 21780.82700000003,
      "d": 51.36987500000032,
      "v": 88
    },
    {
      "midi": 40,
      "hit": false,
      "t": 21780.82700000003,
      "d": 51.36987500000032,
      "v": 88
    },
    {
      "midi": 70,
      "hit": false,
      "t": 21780.827000000074,
      "d": 51.36987500000032,
      "v": 60
    },
    {
      "midi": 69,
      "hit": false,
      "t": 21780.827000000074,
      "d": 51.36987500000032,
      "v": 50
    },
    {
      "midi": 70,
      "hit": false,
      "t": 21883.566750000075,
      "d": 51.36987500000032,
      "v": 49
    },
    {
      "midi": 69,
      "hit": false,
      "t": 21883.566750000075,
      "d": 51.36987500000032,
      "v": 39
    },
    {
      "midi": 40,
      "hit": false,
      "t": 21982.8818416667,
      "d": 51.36987500000032,
      "v": 107
    },
    {
      "midi": 46,
      "hit": false,
      "t": 21986.306500000002,
      "d": 205.47950000000128,
      "v": 107
    },
    {
      "midi": 62,
      "hit": false,
      "t": 21986.306500000053,
      "d": 102.73975000000064,
      "v": 91
    },
    {
      "midi": 70,
      "hit": false,
      "t": 21986.306500000075,
      "d": 51.36987500000032,
      "v": 109
    },
    {
      "midi": 69,
      "hit": false,
      "t": 21986.306500000075,
      "d": 51.36987500000032,
      "v": 99
    },
    {
      "midi": 40,
      "hit": false,
      "t": 22085.621591666702,
      "d": 51.36987500000032,
      "v": 107
    },
    {
      "midi": 38,
      "hit": false,
      "t": 22089.046250000032,
      "d": 51.36987500000032,
      "v": 88
    },
    {
      "midi": 40,
      "hit": false,
      "t": 22089.046250000032,
      "d": 51.36987500000032,
      "v": 88
    },
    {
      "midi": 70,
      "hit": false,
      "t": 22089.046250000076,
      "d": 51.36987500000032,
      "v": 53
    },
    {
      "midi": 69,
      "hit": false,
      "t": 22089.046250000076,
      "d": 51.36987500000032,
      "v": 43
    },
    {
      "midi": 28,
      "hit": false,
      "t": 22188.361341666703,
      "d": 154.10962500000096,
      "v": 107
    },
    {
      "midi": 62,
      "hit": false,
      "t": 22188.36134166671,
      "d": 205.47950000000128,
      "v": 109
    },
    {
      "midi": 36,
      "hit": false,
      "t": 22191.785999999996,
      "d": 51.36987500000032,
      "v": 107
    },
    {
      "midi": 13,
      "hit": false,
      "t": 22191.785999999996,
      "d": 51.36987500000032,
      "v": 127
    },
    {
      "midi": 42,
      "hit": false,
      "t": 22191.786,
      "d": 102.73975000000064,
      "v": 102
    },
    {
      "midi": 70,
      "hit": false,
      "t": 22191.786000000076,
      "d": 51.36987500000032,
      "v": 60
    },
    {
      "midi": 69,
      "hit": false,
      "t": 22191.786000000076,
      "d": 51.36987500000032,
      "v": 50
    },
    {
      "midi": 38,
      "hit": false,
      "t": 22294.525750000033,
      "d": 51.36987500000032,
      "v": 69
    },
    {
      "midi": 40,
      "hit": false,
      "t": 22294.525750000033,
      "d": 51.36987500000032,
      "v": 69
    },
    {
      "midi": 64,
      "hit": false,
      "t": 22294.525750000055,
      "d": 102.73975000000064,
      "v": 118
    },
    {
      "midi": 70,
      "hit": false,
      "t": 22294.525750000077,
      "d": 51.36987500000032,
      "v": 49
    },
    {
      "midi": 69,
      "hit": false,
      "t": 22294.525750000077,
      "d": 51.36987500000032,
      "v": 39
    },
    {
      "midi": 40,
      "hit": false,
      "t": 22393.840841666704,
      "d": 51.36987500000032,
      "v": 107
    },
    {
      "midi": 76,
      "hit": false,
      "t": 22393.84084166671,
      "d": 513.6987499999996,
      "v": 60
    },
    {
      "midi": 92,
      "hit": false,
      "t": 22393.84084166671,
      "d": 513.6987499999996,
      "v": 127
    },
    {
      "midi": 83,
      "hit": false,
      "t": 22393.84084166671,
      "d": 513.6987499999996,
      "v": 77
    },
    {
      "midi": 46,
      "hit": false,
      "t": 22397.265500000005,
      "d": 102.73975000000064,
      "v": 107
    },
    {
      "midi": 70,
      "hit": false,
      "t": 22397.265500000078,
      "d": 51.36987500000032,
      "v": 109
    },
    {
      "midi": 69,
      "hit": false,
      "t": 22397.265500000078,
      "d": 51.36987500000032,
      "v": 99
    },
    {
      "midi": 40,
      "hit": false,
      "t": 22496.580591666705,
      "d": 51.36987500000032,
      "v": 107
    },
    {
      "midi": 70,
      "hit": false,
      "t": 22500.00525000008,
      "d": 51.36987500000032,
      "v": 53
    },
    {
      "midi": 69,
      "hit": false,
      "t": 22500.00525000008,
      "d": 51.36987500000032,
      "v": 43
    },
    {
      "midi": 109,
      "hit": false,
      "t": 22599.320341666673,
      "d": 51.36987500000032,
      "v": 127
    },
    {
      "midi": 28,
      "hit": false,
      "t": 22599.320341666706,
      "d": 154.10962500000096,
      "v": 107
    },
    {
      "midi": 36,
      "hit": false,
      "t": 22602.744999999995,
      "d": 51.36987500000032,
      "v": 107
    },
    {
      "midi": 13,
      "hit": false,
      "t": 22602.744999999995,
      "d": 51.36987500000032,
      "v": 127
    },
    {
      "midi": 42,
      "hit": false,
      "t": 22602.745,
      "d": 102.73975000000064,
      "v": 107
    },
    {
      "midi": 38,
      "hit": false,
      "t": 22602.745000000035,
      "d": 51.36987500000032,
      "v": 88
    },
    {
      "midi": 40,
      "hit": false,
      "t": 22602.745000000035,
      "d": 51.36987500000032,
      "v": 88
    },
    {
      "midi": 64,
      "hit": false,
      "t": 22602.745000000057,
      "d": 205.47950000000128,
      "v": 112
    },
    {
      "midi": 70,
      "hit": false,
      "t": 22602.74500000008,
      "d": 51.36987500000032,
      "v": 60
    },
    {
      "midi": 69,
      "hit": false,
      "t": 22602.74500000008,
      "d": 51.36987500000032,
      "v": 50
    },
    {
      "midi": 70,
      "hit": false,
      "t": 22705.48475000008,
      "d": 51.36987500000032,
      "v": 49
    },
    {
      "midi": 69,
      "hit": false,
      "t": 22705.48475000008,
      "d": 51.36987500000032,
      "v": 39
    },
    {
      "midi": 40,
      "hit": false,
      "t": 22804.799841666707,
      "d": 51.36987500000032,
      "v": 107
    },
    {
      "midi": 46,
      "hit": false,
      "t": 22808.224500000004,
      "d": 102.73975000000064,
      "v": 107
    },
    {
      "midi": 38,
      "hit": false,
      "t": 22808.224500000037,
      "d": 51.36987500000032,
      "v": 68
    },
    {
      "midi": 40,
      "hit": false,
      "t": 22808.224500000037,
      "d": 51.36987500000032,
      "v": 68
    },
    {
      "midi": 70,
      "hit": false,
      "t": 22808.22450000008,
      "d": 51.36987500000032,
      "v": 109
    },
    {
      "midi": 69,
      "hit": false,
      "t": 22808.22450000008,
      "d": 51.36987500000032,
      "v": 99
    },
    {
      "midi": 40,
      "hit": false,
      "t": 22907.539591666708,
      "d": 51.36987500000032,
      "v": 107
    },
    {
      "midi": 38,
      "hit": false,
      "t": 22910.964250000037,
      "d": 51.36987500000032,
      "v": 52
    },
    {
      "midi": 40,
      "hit": false,
      "t": 22910.964250000037,
      "d": 51.36987500000032,
      "v": 52
    },
    {
      "midi": 70,
      "hit": false,
      "t": 22910.96425000008,
      "d": 51.36987500000032,
      "v": 53
    },
    {
      "midi": 69,
      "hit": false,
      "t": 22910.96425000008,
      "d": 51.36987500000032,
      "v": 43
    },
    {
      "midi": 37,
      "hit": false,
      "t": 23010.27934166671,
      "d": 154.10962500000096,
      "v": 107
    },
    {
      "midi": 56,
      "hit": false,
      "t": 23010.279341666712,
      "d": 102.73975000000064,
      "v": 45
    },
    {
      "midi": 49,
      "hit": false,
      "t": 23010.279341666712,
      "d": 102.73975000000064,
      "v": 90
    },
    {
      "midi": 36,
      "hit": false,
      "t": 23013.703999999994,
      "d": 51.36987500000032,
      "v": 107
    },
    {
      "midi": 13,
      "hit": false,
      "t": 23013.703999999994,
      "d": 51.36987500000032,
      "v": 127
    },
    {
      "midi": 42,
      "hit": false,
      "t": 23013.703999999998,
      "d": 102.73975000000064,
      "v": 107
    },
    {
      "midi": 64,
      "hit": false,
      "t": 23013.70400000001,
      "d": 821.9180000000015,
      "v": 80
    },
    {
      "midi": 56,
      "hit": false,
      "t": 23013.70400000001,
      "d": 821.9180000000015,
      "v": 80
    },
    {
      "midi": 59,
      "hit": false,
      "t": 23013.70400000001,
      "d": 821.9180000000015,
      "v": 80
    },
    {
      "midi": 38,
      "hit": false,
      "t": 23013.704000000038,
      "d": 51.36987500000032,
      "v": 88
    },
    {
      "midi": 40,
      "hit": false,
      "t": 23013.704000000038,
      "d": 51.36987500000032,
      "v": 88
    },
    {
      "midi": 57,
      "hit": false,
      "t": 23013.70400000006,
      "d": 171.23291666666773,
      "v": 67
    },
    {
      "midi": 70,
      "hit": false,
      "t": 23013.70400000008,
      "d": 51.36987500000032,
      "v": 60
    },
    {
      "midi": 69,
      "hit": false,
      "t": 23013.70400000008,
      "d": 51.36987500000032,
      "v": 50
    },
    {
      "midi": 70,
      "hit": false,
      "t": 23116.443750000082,
      "d": 51.36987500000032,
      "v": 49
    },
    {
      "midi": 69,
      "hit": false,
      "t": 23116.443750000082,
      "d": 51.36987500000032,
      "v": 39
    },
    {
      "midi": 64,
      "hit": false,
      "t": 23215.758841666706,
      "d": 99.31509166666729,
      "v": 97
    },
    {
      "midi": 49,
      "hit": false,
      "t": 23215.75884166671,
      "d": 51.36987500000032,
      "v": 107
    },
    {
      "midi": 49,
      "hit": false,
      "t": 23215.758841666713,
      "d": 102.73975000000064,
      "v": 85
    },
    {
      "midi": 56,
      "hit": false,
      "t": 23215.758841666713,
      "d": 102.73975000000064,
      "v": 47
    },
    {
      "midi": 46,
      "hit": false,
      "t": 23219.183500000003,
      "d": 102.73975000000064,
      "v": 107
    },
    {
      "midi": 70,
      "hit": false,
      "t": 23219.183500000083,
      "d": 51.36987500000032,
      "v": 109
    },
    {
      "midi": 69,
      "hit": false,
      "t": 23219.183500000083,
      "d": 51.36987500000032,
      "v": 99
    },
    {
      "midi": 49,
      "hit": false,
      "t": 23318.49859166671,
      "d": 51.36987500000032,
      "v": 107
    },
    {
      "midi": 64,
      "hit": false,
      "t": 23321.92325000006,
      "d": 102.73975000000064,
      "v": 98
    },
    {
      "midi": 70,
      "hit": false,
      "t": 23321.923250000083,
      "d": 51.36987500000032,
      "v": 53
    },
    {
      "midi": 69,
      "hit": false,
      "t": 23321.923250000083,
      "d": 51.36987500000032,
      "v": 43
    },
    {
      "midi": 109,
      "hit": false,
      "t": 23421.238341666674,
      "d": 51.36987500000032,
      "v": 127
    },
    {
      "midi": 64,
      "hit": false,
      "t": 23421.238341666707,
      "d": 106.164408333334,
      "v": 112
    },
    {
      "midi": 37,
      "hit": false,
      "t": 23421.23834166671,
      "d": 154.10962500000096,
      "v": 107
    },
    {
      "midi": 56,
      "hit": false,
      "t": 23421.238341666714,
      "d": 308.2192499999983,
      "v": 78
    },
    {
      "midi": 49,
      "hit": false,
      "t": 23421.238341666714,
      "d": 308.2192499999983,
      "v": 101
    },
    {
      "midi": 36,
      "hit": false,
      "t": 23424.662999999993,
      "d": 51.36987500000032,
      "v": 107
    },
    {
      "midi": 13,
      "hit": false,
      "t": 23424.662999999993,
      "d": 51.36987500000032,
      "v": 127
    },
    {
      "midi": 42,
      "hit": false,
      "t": 23424.662999999997,
      "d": 102.73975000000064,
      "v": 107
    },
    {
      "midi": 38,
      "hit": false,
      "t": 23424.663000000037,
      "d": 51.36987500000032,
      "v": 63
    },
    {
      "midi": 40,
      "hit": false,
      "t": 23424.663000000037,
      "d": 51.36987500000032,
      "v": 64
    },
    {
      "midi": 70,
      "hit": false,
      "t": 23424.663000000084,
      "d": 51.36987500000032,
      "v": 60
    },
    {
      "midi": 69,
      "hit": false,
      "t": 23424.663000000084,
      "d": 51.36987500000032,
      "v": 50
    },
    {
      "midi": 70,
      "hit": false,
      "t": 23527.402750000085,
      "d": 51.36987500000032,
      "v": 49
    },
    {
      "midi": 69,
      "hit": false,
      "t": 23527.402750000085,
      "d": 51.36987500000032,
      "v": 39
    },
    {
      "midi": 64,
      "hit": false,
      "t": 23626.71784166671,
      "d": 198.63018333333457,
      "v": 99
    },
    {
      "midi": 49,
      "hit": false,
      "t": 23626.717841666712,
      "d": 51.36987500000032,
      "v": 107
    },
    {
      "midi": 46,
      "hit": false,
      "t": 23630.1425,
      "d": 205.47950000000128,
      "v": 107
    },
    {
      "midi": 59,
      "hit": false,
      "t": 23630.142500000064,
      "d": 102.73975000000064,
      "v": 43
    },
    {
      "midi": 70,
      "hit": false,
      "t": 23630.142500000085,
      "d": 51.36987500000032,
      "v": 109
    },
    {
      "midi": 69,
      "hit": false,
      "t": 23630.142500000085,
      "d": 51.36987500000032,
      "v": 99
    },
    {
      "midi": 49,
      "hit": false,
      "t": 23729.457591666713,
      "d": 51.36987500000032,
      "v": 107
    },
    {
      "midi": 38,
      "hit": false,
      "t": 23732.88225000004,
      "d": 51.36987500000032,
      "v": 88
    },
    {
      "midi": 40,
      "hit": false,
      "t": 23732.88225000004,
      "d": 51.36987500000032,
      "v": 88
    },
    {
      "midi": 70,
      "hit": false,
      "t": 23732.882250000086,
      "d": 51.36987500000032,
      "v": 53
    },
    {
      "midi": 69,
      "hit": false,
      "t": 23732.882250000086,
      "d": 51.36987500000032,
      "v": 43
    },
    {
      "midi": 64,
      "hit": false,
      "t": 23832.19734166671,
      "d": 198.63018333333457,
      "v": 95
    },
    {
      "midi": 30,
      "hit": false,
      "t": 23832.197341666713,
      "d": 154.10962500000096,
      "v": 107
    },
    {
      "midi": 49,
      "hit": false,
      "t": 23832.197341666713,
      "d": 102.73975000000064,
      "v": 71
    },
    {
      "midi": 42,
      "hit": false,
      "t": 23832.197341666713,
      "d": 102.73975000000064,
      "v": 71
    },
    {
      "midi": 36,
      "hit": false,
      "t": 23835.621999999992,
      "d": 51.36987500000032,
      "v": 107
    },
    {
      "midi": 13,
      "hit": false,
      "t": 23835.621999999992,
      "d": 51.36987500000032,
      "v": 127
    },
    {
      "midi": 42,
      "hit": false,
      "t": 23835.621999999996,
      "d": 102.73975000000064,
      "v": 102
    },
    {
      "midi": 66,
      "hit": false,
      "t": 23835.62200000001,
      "d": 821.9180000000015,
      "v": 80
    },
    {
      "midi": 61,
      "hit": false,
      "t": 23835.62200000001,
      "d": 821.9180000000015,
      "v": 80
    },
    {
      "midi": 58,
      "hit": false,
      "t": 23835.62200000001,
      "d": 821.9180000000015,
      "v": 80
    },
    {
      "midi": 59,
      "hit": false,
      "t": 23835.622000000065,
      "d": 102.73975000000064,
      "v": 39
    },
    {
      "midi": 70,
      "hit": false,
      "t": 23835.622000000087,
      "d": 51.36987500000032,
      "v": 60
    },
    {
      "midi": 69,
      "hit": false,
      "t": 23835.622000000087,
      "d": 51.36987500000032,
      "v": 50
    },
    {
      "midi": 38,
      "hit": false,
      "t": 23938.36175000004,
      "d": 51.36987500000032,
      "v": 69
    },
    {
      "midi": 40,
      "hit": false,
      "t": 23938.36175000004,
      "d": 51.36987500000032,
      "v": 69
    },
    {
      "midi": 70,
      "hit": false,
      "t": 23938.361750000087,
      "d": 51.36987500000032,
      "v": 49
    },
    {
      "midi": 69,
      "hit": false,
      "t": 23938.361750000087,
      "d": 51.36987500000032,
      "v": 39
    },
    {
      "midi": 64,
      "hit": false,
      "t": 24037.67684166671,
      "d": 171.23291666666773,
      "v": 103
    },
    {
      "midi": 42,
      "hit": false,
      "t": 24037.676841666715,
      "d": 51.36987500000032,
      "v": 107
    },
    {
      "midi": 49,
      "hit": false,
      "t": 24037.676841666715,
      "d": 102.73975000000064,
      "v": 101
    },
    {
      "midi": 42,
      "hit": false,
      "t": 24037.676841666715,
      "d": 102.73975000000064,
      "v": 85
    },
    {
      "midi": 46,
      "hit": false,
      "t": 24041.101500000004,
      "d": 102.73975000000064,
      "v": 107
    },
    {
      "midi": 59,
      "hit": false,
      "t": 24041.101500000066,
      "d": 102.73975000000064,
      "v": 56
    },
    {
      "midi": 70,
      "hit": false,
      "t": 24041.101500000088,
      "d": 51.36987500000032,
      "v": 109
    },
    {
      "midi": 69,
      "hit": false,
      "t": 24041.101500000088,
      "d": 51.36987500000032,
      "v": 99
    },
    {
      "midi": 42,
      "hit": false,
      "t": 24140.416591666715,
      "d": 51.36987500000032,
      "v": 107
    },
    {
      "midi": 70,
      "hit": false,
      "t": 24143.84125000009,
      "d": 51.36987500000032,
      "v": 53
    },
    {
      "midi": 69,
      "hit": false,
      "t": 24143.84125000009,
      "d": 51.36987500000032,
      "v": 43
    },
    {
      "midi": 109,
      "hit": false,
      "t": 24243.156341666676,
      "d": 51.36987500000032,
      "v": 127
    },
    {
      "midi": 66,
      "hit": false,
      "t": 24243.156341666712,
      "d": 205.47950000000128,
      "v": 112
    },
    {
      "midi": 30,
      "hit": false,
      "t": 24243.156341666716,
      "d": 154.10962500000096,
      "v": 107
    },
    {
      "midi": 49,
      "hit": false,
      "t": 24243.156341666716,
      "d": 102.73975000000064,
      "v": 95
    },
    {
      "midi": 42,
      "hit": false,
      "t": 24243.156341666716,
      "d": 102.73975000000064,
      "v": 90
    },
    {
      "midi": 36,
      "hit": false,
      "t": 24246.58099999999,
      "d": 51.36987500000032,
      "v": 107
    },
    {
      "midi": 13,
      "hit": false,
      "t": 24246.58099999999,
      "d": 51.36987500000032,
      "v": 127
    },
    {
      "midi": 42,
      "hit": false,
      "t": 24246.580999999995,
      "d": 102.73975000000064,
      "v": 107
    },
    {
      "midi": 38,
      "hit": false,
      "t": 24246.581000000042,
      "d": 51.36987500000032,
      "v": 88
    },
    {
      "midi": 40,
      "hit": false,
      "t": 24246.581000000042,
      "d": 51.36987500000032,
      "v": 88
    },
    {
      "midi": 64,
      "hit": false,
      "t": 24246.581000000067,
      "d": 308.2192500000019,
      "v": 118
    },
    {
      "midi": 70,
      "hit": false,
      "t": 24246.58100000009,
      "d": 51.36987500000032,
      "v": 60
    },
    {
      "midi": 69,
      "hit": false,
      "t": 24246.58100000009,
      "d": 51.36987500000032,
      "v": 50
    },
    {
      "midi": 70,
      "hit": false,
      "t": 24349.32075000009,
      "d": 51.36987500000032,
      "v": 49
    },
    {
      "midi": 69,
      "hit": false,
      "t": 24349.32075000009,
      "d": 51.36987500000032,
      "v": 39
    },
    {
      "midi": 64,
      "hit": false,
      "t": 24448.635841666714,
      "d": 184.93155000000115,
      "v": 118
    },
    {
      "midi": 42,
      "hit": false,
      "t": 24448.635841666717,
      "d": 51.36987500000032,
      "v": 107
    },
    {
      "midi": 49,
      "hit": false,
      "t": 24448.635841666717,
      "d": 102.73975000000064,
      "v": 85
    },
    {
      "midi": 42,
      "hit": false,
      "t": 24448.635841666717,
      "d": 102.73975000000064,
      "v": 95
    },
    {
      "midi": 46,
      "hit": false,
      "t": 24452.060500000003,
      "d": 102.73975000000064,
      "v": 107
    },
    {
      "midi": 38,
      "hit": false,
      "t": 24452.060500000043,
      "d": 51.36987500000032,
      "v": 68
    },
    {
      "midi": 40,
      "hit": false,
      "t": 24452.060500000043,
      "d": 51.36987500000032,
      "v": 68
    },
    {
      "midi": 70,
      "hit": false,
      "t": 24452.06050000009,
      "d": 51.36987500000032,
      "v": 109
    },
    {
      "midi": 69,
      "hit": false,
      "t": 24452.06050000009,
      "d": 51.36987500000032,
      "v": 99
    },
    {
      "midi": 42,
      "hit": false,
      "t": 24551.375591666718,
      "d": 51.36987500000032,
      "v": 107
    },
    {
      "midi": 38,
      "hit": false,
      "t": 24554.800250000044,
      "d": 51.36987500000032,
      "v": 52
    },
    {
      "midi": 40,
      "hit": false,
      "t": 24554.800250000044,
      "d": 51.36987500000032,
      "v": 52
    },
    {
      "midi": 70,
      "hit": false,
      "t": 24554.80025000009,
      "d": 51.36987500000032,
      "v": 53
    },
    {
      "midi": 69,
      "hit": false,
      "t": 24554.80025000009,
      "d": 51.36987500000032,
      "v": 43
    },
    {
      "midi": 62,
      "hit": false,
      "t": 24654.115341666715,
      "d": 308.2192500000019,
      "v": 113
    },
    {
      "midi": 35,
      "hit": false,
      "t": 24654.11534166672,
      "d": 154.10962500000096,
      "v": 107
    },
    {
      "midi": 54,
      "hit": false,
      "t": 24654.11534166672,
      "d": 205.47950000000128,
      "v": 101
    },
    {
      "midi": 47,
      "hit": false,
      "t": 24654.11534166672,
      "d": 205.47950000000128,
      "v": 53
    },
    {
      "midi": 36,
      "hit": false,
      "t": 24657.53999999999,
      "d": 51.36987500000032,
      "v": 107
    },
    {
      "midi": 13,
      "hit": false,
      "t": 24657.53999999999,
      "d": 51.36987500000032,
      "v": 127
    },
    {
      "midi": 42,
      "hit": false,
      "t": 24657.539999999994,
      "d": 102.73975000000064,
      "v": 107
    },
    {
      "midi": 66,
      "hit": false,
      "t": 24657.54000000001,
      "d": 821.9180000000015,
      "v": 60
    },
    {
      "midi": 62,
      "hit": false,
      "t": 24657.54000000001,
      "d": 821.9180000000015,
      "v": 80
    },
    {
      "midi": 59,
      "hit": false,
      "t": 24657.54000000001,
      "d": 821.9180000000015,
      "v": 69
    },
    {
      "midi": 38,
      "hit": false,
      "t": 24657.540000000045,
      "d": 51.36987500000032,
      "v": 63
    },
    {
      "midi": 40,
      "hit": false,
      "t": 24657.540000000045,
      "d": 51.36987500000032,
      "v": 63
    },
    {
      "midi": 57,
      "hit": false,
      "t": 24657.54000000007,
      "d": 171.23291666666773,
      "v": 91
    },
    {
      "midi": 70,
      "hit": false,
      "t": 24657.540000000092,
      "d": 51.36987500000032,
      "v": 60
    },
    {
      "midi": 69,
      "hit": false,
      "t": 24657.540000000092,
      "d": 51.36987500000032,
      "v": 50
    },
    {
      "midi": 70,
      "hit": false,
      "t": 24760.279750000092,
      "d": 51.36987500000032,
      "v": 49
    },
    {
      "midi": 69,
      "hit": false,
      "t": 24760.279750000092,
      "d": 51.36987500000032,
      "v": 39
    },
    {
      "midi": 47,
      "hit": false,
      "t": 24859.59484166672,
      "d": 51.36987500000032,
      "v": 107
    },
    {
      "midi": 54,
      "hit": false,
      "t": 24859.59484166672,
      "d": 102.73975000000064,
      "v": 78
    },
    {
      "midi": 47,
      "hit": false,
      "t": 24859.59484166672,
      "d": 102.73975000000064,
      "v": 45
    },
    {
      "midi": 46,
      "hit": false,
      "t": 24863.019500000002,
      "d": 102.73975000000064,
      "v": 107
    },
    {
      "midi": 70,
      "hit": false,
      "t": 24863.019500000093,
      "d": 51.36987500000032,
      "v": 109
    },
    {
      "midi": 69,
      "hit": false,
      "t": 24863.019500000093,
      "d": 51.36987500000032,
      "v": 99
    },
    {
      "midi": 62,
      "hit": false,
      "t": 24962.334591666717,
      "d": 325.34254166666506,
      "v": 105
    },
    {
      "midi": 47,
      "hit": false,
      "t": 24962.33459166672,
      "d": 51.36987500000032,
      "v": 107
    },
    {
      "midi": 62,
      "hit": false,
      "t": 24965.759250000072,
      "d": 102.73975000000064,
      "v": 83
    },
    {
      "midi": 70,
      "hit": false,
      "t": 24965.759250000094,
      "d": 51.36987500000032,
      "v": 53
    },
    {
      "midi": 69,
      "hit": false,
      "t": 24965.759250000094,
      "d": 51.36987500000032,
      "v": 43
    },
    {
      "midi": 109,
      "hit": false,
      "t": 25065.074341666677,
      "d": 51.36987500000032,
      "v": 127
    },
    {
      "midi": 35,
      "hit": false,
      "t": 25065.07434166672,
      "d": 154.10962500000096,
      "v": 107
    },
    {
      "midi": 47,
      "hit": false,
      "t": 25065.07434166672,
      "d": 308.2192499999983,
      "v": 43
    },
    {
      "midi": 54,
      "hit": false,
      "t": 25065.07434166672,
      "d": 308.2192499999983,
      "v": 60
    },
    {
      "midi": 36,
      "hit": false,
      "t": 25068.49899999999,
      "d": 51.36987500000032,
      "v": 107
    },
    {
      "midi": 13,
      "hit": false,
      "t": 25068.49899999999,
      "d": 51.36987500000032,
      "v": 127
    },
    {
      "midi": 42,
      "hit": false,
      "t": 25068.498999999993,
      "d": 102.73975000000064,
      "v": 107
    },
    {
      "midi": 38,
      "hit": false,
      "t": 25068.499000000043,
      "d": 51.36987500000032,
      "v": 88
    },
    {
      "midi": 40,
      "hit": false,
      "t": 25068.499000000043,
      "d": 51.36987500000032,
      "v": 88
    },
    {
      "midi": 70,
      "hit": false,
      "t": 25068.499000000094,
      "d": 51.36987500000032,
      "v": 60
    },
    {
      "midi": 69,
      "hit": false,
      "t": 25068.499000000094,
      "d": 51.36987500000032,
      "v": 50
    },
    {
      "midi": 70,
      "hit": false,
      "t": 25171.238750000095,
      "d": 51.36987500000032,
      "v": 49
    },
    {
      "midi": 69,
      "hit": false,
      "t": 25171.238750000095,
      "d": 51.36987500000032,
      "v": 39
    },
    {
      "midi": 61,
      "hit": false,
      "t": 25270.553841666715,
      "d": 188.3562083333345,
      "v": 98
    },
    {
      "midi": 47,
      "hit": false,
      "t": 25270.553841666722,
      "d": 51.36987500000032,
      "v": 107
    },
    {
      "midi": 46,
      "hit": false,
      "t": 25273.9785,
      "d": 205.47950000000128,
      "v": 107
    },
    {
      "midi": 59,
      "hit": false,
      "t": 25273.978500000074,
      "d": 102.73975000000064,
      "v": 61
    },
    {
      "midi": 70,
      "hit": false,
      "t": 25273.978500000096,
      "d": 51.36987500000032,
      "v": 109
    },
    {
      "midi": 69,
      "hit": false,
      "t": 25273.978500000096,
      "d": 51.36987500000032,
      "v": 99
    },
    {
      "midi": 47,
      "hit": false,
      "t": 25373.293591666723,
      "d": 51.36987500000032,
      "v": 107
    },
    {
      "midi": 38,
      "hit": false,
      "t": 25376.718250000045,
      "d": 51.36987500000032,
      "v": 88
    },
    {
      "midi": 40,
      "hit": false,
      "t": 25376.718250000045,
      "d": 51.36987500000032,
      "v": 88
    },
    {
      "midi": 70,
      "hit": false,
      "t": 25376.718250000096,
      "d": 51.36987500000032,
      "v": 53
    },
    {
      "midi": 69,
      "hit": false,
      "t": 25376.718250000096,
      "d": 51.36987500000032,
      "v": 43
    },
    {
      "midi": 62,
      "hit": false,
      "t": 25476.033341666716,
      "d": 397.26036666666914,
      "v": 112
    },
    {
      "midi": 52,
      "hit": false,
      "t": 25476.03334166672,
      "d": 102.73975000000064,
      "v": 101
    },
    {
      "midi": 45,
      "hit": false,
      "t": 25476.03334166672,
      "d": 102.73975000000064,
      "v": 82
    },
    {
      "midi": 33,
      "hit": false,
      "t": 25476.033341666724,
      "d": 154.10962500000096,
      "v": 107
    },
    {
      "midi": 36,
      "hit": false,
      "t": 25479.457999999988,
      "d": 51.36987500000032,
      "v": 107
    },
    {
      "midi": 13,
      "hit": false,
      "t": 25479.457999999988,
      "d": 51.36987500000032,
      "v": 127
    },
    {
      "midi": 42,
      "hit": false,
      "t": 25479.45799999999,
      "d": 102.73975000000064,
      "v": 102
    },
    {
      "midi": 66,
      "hit": false,
      "t": 25479.458000000013,
      "d": 821.9180000000015,
      "v": 80
    },
    {
      "midi": 57,
      "hit": false,
      "t": 25479.458000000013,
      "d": 821.9180000000015,
      "v": 80
    },
    {
      "midi": 62,
      "hit": false,
      "t": 25479.458000000013,
      "d": 821.9180000000015,
      "v": 80
    },
    {
      "midi": 59,
      "hit": false,
      "t": 25479.458000000075,
      "d": 102.73975000000064,
      "v": 61
    },
    {
      "midi": 70,
      "hit": false,
      "t": 25479.458000000097,
      "d": 51.36987500000032,
      "v": 60
    },
    {
      "midi": 69,
      "hit": false,
      "t": 25479.458000000097,
      "d": 51.36987500000032,
      "v": 50
    },
    {
      "midi": 38,
      "hit": false,
      "t": 25582.197750000047,
      "d": 51.36987500000032,
      "v": 69
    },
    {
      "midi": 40,
      "hit": false,
      "t": 25582.197750000047,
      "d": 51.36987500000032,
      "v": 69
    },
    {
      "midi": 70,
      "hit": false,
      "t": 25582.197750000098,
      "d": 51.36987500000032,
      "v": 49
    },
    {
      "midi": 69,
      "hit": false,
      "t": 25582.197750000098,
      "d": 51.36987500000032,
      "v": 39
    },
    {
      "midi": 52,
      "hit": false,
      "t": 25681.51284166672,
      "d": 102.73975000000064,
      "v": 82
    },
    {
      "midi": 45,
      "hit": false,
      "t": 25681.51284166672,
      "d": 102.73975000000064,
      "v": 46
    },
    {
      "midi": 45,
      "hit": false,
      "t": 25681.512841666725,
      "d": 51.36987500000032,
      "v": 107
    },
    {
      "midi": 46,
      "hit": false,
      "t": 25684.937500000004,
      "d": 102.73975000000064,
      "v": 107
    },
    {
      "midi": 57,
      "hit": false,
      "t": 25684.937500000076,
      "d": 102.73975000000064,
      "v": 78
    },
    {
      "midi": 70,
      "hit": false,
      "t": 25684.9375000001,
      "d": 51.36987500000032,
      "v": 109
    },
    {
      "midi": 69,
      "hit": false,
      "t": 25684.9375000001,
      "d": 51.36987500000032,
      "v": 99
    },
    {
      "midi": 45,
      "hit": false,
      "t": 25784.252591666725,
      "d": 51.36987500000032,
      "v": 107
    },
    {
      "midi": 70,
      "hit": false,
      "t": 25787.6772500001,
      "d": 51.36987500000032,
      "v": 53
    },
    {
      "midi": 69,
      "hit": false,
      "t": 25787.6772500001,
      "d": 51.36987500000032,
      "v": 43
    },
    {
      "midi": 109,
      "hit": false,
      "t": 25886.99234166668,
      "d": 51.36987500000032,
      "v": 127
    },
    {
      "midi": 52,
      "hit": false,
      "t": 25886.992341666722,
      "d": 410.9589999999989,
      "v": 107
    },
    {
      "midi": 45,
      "hit": false,
      "t": 25886.992341666722,
      "d": 410.9589999999989,
      "v": 90
    },
    {
      "midi": 33,
      "hit": false,
      "t": 25886.992341666726,
      "d": 154.10962500000096,
      "v": 107
    },
    {
      "midi": 36,
      "hit": false,
      "t": 25890.416999999987,
      "d": 51.36987500000032,
      "v": 107
    },
    {
      "midi": 13,
      "hit": false,
      "t": 25890.416999999987,
      "d": 51.36987500000032,
      "v": 127
    },
    {
      "midi": 42,
      "hit": false,
      "t": 25890.41699999999,
      "d": 102.73975000000064,
      "v": 107
    },
    {
      "midi": 38,
      "hit": false,
      "t": 25890.41700000005,
      "d": 51.36987500000032,
      "v": 88
    },
    {
      "midi": 40,
      "hit": false,
      "t": 25890.41700000005,
      "d": 51.36987500000032,
      "v": 88
    },
    {
      "midi": 59,
      "hit": false,
      "t": 25890.417000000078,
      "d": 308.2192500000019,
      "v": 118
    },
    {
      "midi": 70,
      "hit": false,
      "t": 25890.4170000001,
      "d": 51.36987500000032,
      "v": 60
    },
    {
      "midi": 69,
      "hit": false,
      "t": 25890.4170000001,
      "d": 51.36987500000032,
      "v": 50
    },
    {
      "midi": 70,
      "hit": false,
      "t": 25993.1567500001,
      "d": 51.36987500000032,
      "v": 49
    },
    {
      "midi": 69,
      "hit": false,
      "t": 25993.1567500001,
      "d": 51.36987500000032,
      "v": 39
    },
    {
      "midi": 62,
      "hit": false,
      "t": 26092.47184166672,
      "d": 58.21919166666703,
      "v": 96
    },
    {
      "midi": 45,
      "hit": false,
      "t": 26092.471841666727,
      "d": 51.36987500000032,
      "v": 107
    },
    {
      "midi": 36,
      "hit": false,
      "t": 26095.896499999988,
      "d": 51.36987500000032,
      "v": 107
    },
    {
      "midi": 13,
      "hit": false,
      "t": 26095.896499999988,
      "d": 51.36987500000032,
      "v": 127
    },
    {
      "midi": 46,
      "hit": false,
      "t": 26095.896500000003,
      "d": 102.73975000000064,
      "v": 107
    },
    {
      "midi": 38,
      "hit": false,
      "t": 26095.89650000005,
      "d": 51.36987500000032,
      "v": 68
    },
    {
      "midi": 40,
      "hit": false,
      "t": 26095.89650000005,
      "d": 51.36987500000032,
      "v": 68
    },
    {
      "midi": 70,
      "hit": false,
      "t": 26095.8965000001,
      "d": 51.36987500000032,
      "v": 109
    },
    {
      "midi": 69,
      "hit": false,
      "t": 26095.8965000001,
      "d": 51.36987500000032,
      "v": 99
    },
    {
      "midi": 62,
      "hit": false,
      "t": 26195.21159166672,
      "d": 102.73975000000064,
      "v": 93
    },
    {
      "midi": 45,
      "hit": false,
      "t": 26195.211591666728,
      "d": 51.36987500000032,
      "v": 107
    },
    {
      "midi": 38,
      "hit": false,
      "t": 26198.63625000005,
      "d": 51.36987500000032,
      "v": 52
    },
    {
      "midi": 40,
      "hit": false,
      "t": 26198.63625000005,
      "d": 51.36987500000032,
      "v": 52
    },
    {
      "midi": 70,
      "hit": false,
      "t": 26198.6362500001,
      "d": 51.36987500000032,
      "v": 53
    },
    {
      "midi": 69,
      "hit": false,
      "t": 26198.6362500001,
      "d": 51.36987500000032,
      "v": 43
    },
    {
      "midi": 50,
      "hit": false,
      "t": 26297.95134166672,
      "d": 102.73975000000064,
      "v": 53
    },
    {
      "midi": 43,
      "hit": false,
      "t": 26297.95134166672,
      "d": 102.73975000000064,
      "v": 71
    },
    {
      "midi": 69,
      "hit": false,
      "t": 26297.95134166672,
      "d": 287.6713000000018,
      "v": 123
    },
    {
      "midi": 31,
      "hit": false,
      "t": 26297.95134166673,
      "d": 154.10962500000096,
      "v": 107
    },
    {
      "midi": 36,
      "hit": false,
      "t": 26301.37599999999,
      "d": 51.36987500000032,
      "v": 107
    },
    {
      "midi": 13,
      "hit": false,
      "t": 26301.37599999999,
      "d": 51.36987500000032,
      "v": 127
    },
    {
      "midi": 42,
      "hit": false,
      "t": 26301.37599999999,
      "d": 102.73975000000064,
      "v": 107
    },
    {
      "midi": 59,
      "hit": false,
      "t": 26301.376000000015,
      "d": 1643.8359999999993,
      "v": 80
    },
    {
      "midi": 55,
      "hit": false,
      "t": 26301.376000000015,
      "d": 1643.8359999999993,
      "v": 80
    },
    {
      "midi": 62,
      "hit": false,
      "t": 26301.376000000015,
      "d": 1643.8359999999993,
      "v": 80
    },
    {
      "midi": 38,
      "hit": false,
      "t": 26301.37600000005,
      "d": 51.36987500000032,
      "v": 63
    },
    {
      "midi": 40,
      "hit": false,
      "t": 26301.37600000005,
      "d": 51.36987500000032,
      "v": 64
    },
    {
      "midi": 70,
      "hit": false,
      "t": 26301.376000000102,
      "d": 51.36987500000032,
      "v": 60
    },
    {
      "midi": 69,
      "hit": false,
      "t": 26301.376000000102,
      "d": 51.36987500000032,
      "v": 50
    },
    {
      "midi": 70,
      "hit": false,
      "t": 26404.115750000103,
      "d": 51.36987500000032,
      "v": 49
    },
    {
      "midi": 69,
      "hit": false,
      "t": 26404.115750000103,
      "d": 51.36987500000032,
      "v": 39
    },
    {
      "midi": 50,
      "hit": false,
      "t": 26503.430841666723,
      "d": 102.73975000000064,
      "v": 48
    },
    {
      "midi": 43,
      "hit": false,
      "t": 26503.430841666723,
      "d": 102.73975000000064,
      "v": 71
    },
    {
      "midi": 43,
      "hit": false,
      "t": 26503.43084166673,
      "d": 51.36987500000032,
      "v": 107
    },
    {
      "midi": 46,
      "hit": false,
      "t": 26506.8555,
      "d": 102.73975000000064,
      "v": 107
    },
    {
      "midi": 57,
      "hit": false,
      "t": 26506.85550000008,
      "d": 205.47950000000128,
      "v": 70
    },
    {
      "midi": 70,
      "hit": false,
      "t": 26506.855500000103,
      "d": 51.36987500000032,
      "v": 109
    },
    {
      "midi": 69,
      "hit": false,
      "t": 26506.855500000103,
      "d": 51.36987500000032,
      "v": 99
    },
    {
      "midi": 69,
      "hit": false,
      "t": 26606.170591666723,
      "d": 280.8219833333351,
      "v": 103
    },
    {
      "midi": 43,
      "hit": false,
      "t": 26606.17059166673,
      "d": 51.36987500000032,
      "v": 107
    },
    {
      "midi": 70,
      "hit": false,
      "t": 26609.595250000104,
      "d": 51.36987500000032,
      "v": 53
    },
    {
      "midi": 69,
      "hit": false,
      "t": 26609.595250000104,
      "d": 51.36987500000032,
      "v": 43
    },
    {
      "midi": 109,
      "hit": false,
      "t": 26708.91034166668,
      "d": 51.36987500000032,
      "v": 127
    },
    {
      "midi": 50,
      "hit": false,
      "t": 26708.910341666724,
      "d": 205.47950000000128,
      "v": 90
    },
    {
      "midi": 43,
      "hit": false,
      "t": 26708.910341666724,
      "d": 205.47950000000128,
      "v": 121
    },
    {
      "midi": 31,
      "hit": false,
      "t": 26708.91034166673,
      "d": 154.10962500000096,
      "v": 107
    },
    {
      "midi": 36,
      "hit": false,
      "t": 26712.33499999999,
      "d": 51.36987500000032,
      "v": 107
    },
    {
      "midi": 13,
      "hit": false,
      "t": 26712.33499999999,
      "d": 51.36987500000032,
      "v": 127
    },
    {
      "midi": 42,
      "hit": false,
      "t": 26712.33499999999,
      "d": 102.73975000000064,
      "v": 107
    },
    {
      "midi": 38,
      "hit": false,
      "t": 26712.33500000005,
      "d": 51.36987500000032,
      "v": 88
    },
    {
      "midi": 40,
      "hit": false,
      "t": 26712.33500000005,
      "d": 51.36987500000032,
      "v": 88
    },
    {
      "midi": 62,
      "hit": false,
      "t": 26712.335000000083,
      "d": 102.73975000000064,
      "v": 94
    },
    {
      "midi": 70,
      "hit": false,
      "t": 26712.335000000105,
      "d": 51.36987500000032,
      "v": 60
    },
    {
      "midi": 69,
      "hit": false,
      "t": 26712.335000000105,
      "d": 51.36987500000032,
      "v": 50
    },
    {
      "midi": 70,
      "hit": false,
      "t": 26815.074750000105,
      "d": 51.36987500000032,
      "v": 49
    },
    {
      "midi": 69,
      "hit": false,
      "t": 26815.074750000105,
      "d": 51.36987500000032,
      "v": 39
    },
    {
      "midi": 43,
      "hit": false,
      "t": 26914.389841666725,
      "d": 102.73975000000064,
      "v": 82
    },
    {
      "midi": 50,
      "hit": false,
      "t": 26914.389841666725,
      "d": 102.73975000000064,
      "v": 67
    },
    {
      "midi": 69,
      "hit": false,
      "t": 26914.389841666725,
      "d": 102.73975000000064,
      "v": 93
    },
    {
      "midi": 43,
      "hit": false,
      "t": 26914.389841666733,
      "d": 51.36987500000032,
      "v": 107
    },
    {
      "midi": 46,
      "hit": false,
      "t": 26917.8145,
      "d": 205.47950000000128,
      "v": 107
    },
    {
      "midi": 70,
      "hit": false,
      "t": 26917.814500000106,
      "d": 51.36987500000032,
      "v": 109
    },
    {
      "midi": 69,
      "hit": false,
      "t": 26917.814500000106,
      "d": 51.36987500000032,
      "v": 99
    },
    {
      "midi": 43,
      "hit": false,
      "t": 27017.129591666733,
      "d": 51.36987500000032,
      "v": 107
    },
    {
      "midi": 38,
      "hit": false,
      "t": 27020.554250000052,
      "d": 51.36987500000032,
      "v": 88
    },
    {
      "midi": 40,
      "hit": false,
      "t": 27020.554250000052,
      "d": 51.36987500000032,
      "v": 88
    },
    {
      "midi": 70,
      "hit": false,
      "t": 27020.554250000107,
      "d": 51.36987500000032,
      "v": 53
    },
    {
      "midi": 69,
      "hit": false,
      "t": 27020.554250000107,
      "d": 51.36987500000032,
      "v": 43
    },
    {
      "midi": 50,
      "hit": false,
      "t": 27119.869341666727,
      "d": 102.73975000000064,
      "v": 35
    },
    {
      "midi": 43,
      "hit": false,
      "t": 27119.869341666727,
      "d": 102.73975000000064,
      "v": 63
    },
    {
      "midi": 69,
      "hit": false,
      "t": 27119.869341666727,
      "d": 198.63018333333457,
      "v": 103
    },
    {
      "midi": 31,
      "hit": false,
      "t": 27119.869341666734,
      "d": 154.10962500000096,
      "v": 107
    },
    {
      "midi": 36,
      "hit": false,
      "t": 27123.293999999987,
      "d": 51.36987500000032,
      "v": 107
    },
    {
      "midi": 13,
      "hit": false,
      "t": 27123.293999999987,
      "d": 51.36987500000032,
      "v": 127
    },
    {
      "midi": 42,
      "hit": false,
      "t": 27123.293999999987,
      "d": 102.73975000000064,
      "v": 102
    },
    {
      "midi": 59,
      "hit": false,
      "t": 27123.29400000008,
      "d": 102.73975000000064,
      "v": 74
    },
    {
      "midi": 70,
      "hit": false,
      "t": 27123.294000000107,
      "d": 51.36987500000032,
      "v": 60
    },
    {
      "midi": 69,
      "hit": false,
      "t": 27123.294000000107,
      "d": 51.36987500000032,
      "v": 50
    },
    {
      "midi": 38,
      "hit": false,
      "t": 27226.033750000053,
      "d": 51.36987500000032,
      "v": 69
    },
    {
      "midi": 40,
      "hit": false,
      "t": 27226.033750000053,
      "d": 51.36987500000032,
      "v": 69
    },
    {
      "midi": 70,
      "hit": false,
      "t": 27226.033750000108,
      "d": 51.36987500000032,
      "v": 49
    },
    {
      "midi": 69,
      "hit": false,
      "t": 27226.033750000108,
      "d": 51.36987500000032,
      "v": 39
    },
    {
      "midi": 62,
      "hit": false,
      "t": 27311.650208333394,
      "d": 212.328816666668,
      "v": 90
    },
    {
      "midi": 50,
      "hit": false,
      "t": 27325.348841666728,
      "d": 205.47950000000128,
      "v": 90
    },
    {
      "midi": 43,
      "hit": false,
      "t": 27325.348841666728,
      "d": 205.47950000000128,
      "v": 121
    },
    {
      "midi": 43,
      "hit": false,
      "t": 27325.348841666735,
      "d": 51.36987500000032,
      "v": 107
    },
    {
      "midi": 46,
      "hit": false,
      "t": 27328.773500000003,
      "d": 102.73975000000064,
      "v": 107
    },
    {
      "midi": 62,
      "hit": false,
      "t": 27328.773500000083,
      "d": 205.47950000000128,
      "v": 98
    },
    {
      "midi": 70,
      "hit": false,
      "t": 27328.77350000011,
      "d": 51.36987500000032,
      "v": 109
    },
    {
      "midi": 69,
      "hit": false,
      "t": 27328.77350000011,
      "d": 51.36987500000032,
      "v": 99
    },
    {
      "midi": 43,
      "hit": false,
      "t": 27428.088591666736,
      "d": 51.36987500000032,
      "v": 107
    },
    {
      "midi": 70,
      "hit": false,
      "t": 27431.51325000011,
      "d": 51.36987500000032,
      "v": 53
    },
    {
      "midi": 69,
      "hit": false,
      "t": 27431.51325000011,
      "d": 51.36987500000032,
      "v": 43
    },
    {
      "midi": 109,
      "hit": false,
      "t": 27530.82834166668,
      "d": 51.36987500000032,
      "v": 127
    },
    {
      "midi": 50,
      "hit": false,
      "t": 27530.82834166673,
      "d": 102.73975000000064,
      "v": 78
    },
    {
      "midi": 43,
      "hit": false,
      "t": 27530.82834166673,
      "d": 102.73975000000064,
      "v": 85
    },
    {
      "midi": 62,
      "hit": false,
      "t": 27530.82834166673,
      "d": 441.78092500000275,
      "v": 100
    },
    {
      "midi": 31,
      "hit": false,
      "t": 27530.828341666736,
      "d": 154.10962500000096,
      "v": 107
    },
    {
      "midi": 36,
      "hit": false,
      "t": 27534.252999999986,
      "d": 51.36987500000032,
      "v": 107
    },
    {
      "midi": 13,
      "hit": false,
      "t": 27534.252999999986,
      "d": 51.36987500000032,
      "v": 127
    },
    {
      "midi": 42,
      "hit": false,
      "t": 27534.252999999986,
      "d": 102.73975000000064,
      "v": 107
    },
    {
      "midi": 38,
      "hit": false,
      "t": 27534.253000000055,
      "d": 51.36987500000032,
      "v": 88
    },
    {
      "midi": 40,
      "hit": false,
      "t": 27534.253000000055,
      "d": 51.36987500000032,
      "v": 88
    },
    {
      "midi": 70,
      "hit": false,
      "t": 27534.25300000011,
      "d": 51.36987500000032,
      "v": 60
    },
    {
      "midi": 69,
      "hit": false,
      "t": 27534.25300000011,
      "d": 51.36987500000032,
      "v": 50
    },
    {
      "midi": 59,
      "hit": false,
      "t": 27554.800950000084,
      "d": 68.4931666666671,
      "v": 47
    },
    {
      "midi": 70,
      "hit": false,
      "t": 27636.99275000011,
      "d": 51.36987500000032,
      "v": 49
    },
    {
      "midi": 69,
      "hit": false,
      "t": 27636.99275000011,
      "d": 51.36987500000032,
      "v": 39
    },
    {
      "midi": 50,
      "hit": false,
      "t": 27736.30784166673,
      "d": 102.73975000000064,
      "v": 46
    },
    {
      "midi": 43,
      "hit": false,
      "t": 27736.30784166673,
      "d": 102.73975000000064,
      "v": 78
    },
    {
      "midi": 43,
      "hit": false,
      "t": 27736.307841666738,
      "d": 51.36987500000032,
      "v": 107
    },
    {
      "midi": 46,
      "hit": false,
      "t": 27739.732500000002,
      "d": 102.73975000000064,
      "v": 107
    },
    {
      "midi": 38,
      "hit": false,
      "t": 27739.732500000056,
      "d": 51.36987500000032,
      "v": 68
    },
    {
      "midi": 40,
      "hit": false,
      "t": 27739.732500000056,
      "d": 51.36987500000032,
      "v": 68
    },
    {
      "midi": 62,
      "hit": false,
      "t": 27739.732500000086,
      "d": 51.36987500000032,
      "v": 88
    },
    {
      "midi": 70,
      "hit": false,
      "t": 27739.73250000011,
      "d": 51.36987500000032,
      "v": 109
    },
    {
      "midi": 69,
      "hit": false,
      "t": 27739.73250000011,
      "d": 51.36987500000032,
      "v": 99
    },
    {
      "midi": 43,
      "hit": false,
      "t": 27839.04759166674,
      "d": 51.36987500000032,
      "v": 107
    },
    {
      "midi": 38,
      "hit": false,
      "t": 27842.472250000057,
      "d": 51.36987500000032,
      "v": 52
    },
    {
      "midi": 40,
      "hit": false,
      "t": 27842.472250000057,
      "d": 51.36987500000032,
      "v": 52
    },
    {
      "midi": 70,
      "hit": false,
      "t": 27842.47225000011,
      "d": 51.36987500000032,
      "v": 53
    },
    {
      "midi": 69,
      "hit": false,
      "t": 27842.47225000011,
      "d": 51.36987500000032,
      "v": 43
    },
    {
      "midi": 40,
      "hit": false,
      "t": 27941.78734166673,
      "d": 205.47950000000128,
      "v": 71
    },
    {
      "midi": 47,
      "hit": false,
      "t": 27941.78734166673,
      "d": 205.47950000000128,
      "v": 90
    },
    {
      "midi": 28,
      "hit": false,
      "t": 27941.78734166674,
      "d": 154.10962500000096,
      "v": 107
    },
    {
      "midi": 36,
      "hit": false,
      "t": 27945.211999999985,
      "d": 51.36987500000032,
      "v": 107
    },
    {
      "midi": 13,
      "hit": false,
      "t": 27945.211999999985,
      "d": 51.36987500000032,
      "v": 127
    },
    {
      "midi": 42,
      "hit": false,
      "t": 27945.211999999985,
      "d": 102.73975000000064,
      "v": 107
    },
    {
      "midi": 59,
      "hit": false,
      "t": 27945.212000000014,
      "d": 821.9180000000015,
      "v": 80
    },
    {
      "midi": 55,
      "hit": false,
      "t": 27945.212000000014,
      "d": 821.9180000000015,
      "v": 80
    },
    {
      "midi": 64,
      "hit": false,
      "t": 27945.212000000014,
      "d": 821.9180000000015,
      "v": 80
    },
    {
      "midi": 38,
      "hit": false,
      "t": 27945.212000000058,
      "d": 51.36987500000032,
      "v": 64
    },
    {
      "midi": 40,
      "hit": false,
      "t": 27945.212000000058,
      "d": 51.36987500000032,
      "v": 64
    },
    {
      "midi": 64,
      "hit": false,
      "t": 27945.212000000087,
      "d": 205.47950000000128,
      "v": 123
    },
    {
      "midi": 70,
      "hit": false,
      "t": 27945.212000000112,
      "d": 51.36987500000032,
      "v": 60
    },
    {
      "midi": 69,
      "hit": false,
      "t": 27945.212000000112,
      "d": 51.36987500000032,
      "v": 50
    },
    {
      "midi": 70,
      "hit": false,
      "t": 28047.951750000113,
      "d": 51.36987500000032,
      "v": 49
    },
    {
      "midi": 69,
      "hit": false,
      "t": 28047.951750000113,
      "d": 51.36987500000032,
      "v": 39
    },
    {
      "midi": 69,
      "hit": false,
      "t": 28147.266841666733,
      "d": 208.90415833333464,
      "v": 103
    },
    {
      "midi": 40,
      "hit": false,
      "t": 28147.26684166674,
      "d": 51.36987500000032,
      "v": 107
    },
    {
      "midi": 46,
      "hit": false,
      "t": 28150.6915,
      "d": 102.73975000000064,
      "v": 107
    },
    {
      "midi": 70,
      "hit": false,
      "t": 28150.691500000114,
      "d": 51.36987500000032,
      "v": 109
    },
    {
      "midi": 69,
      "hit": false,
      "t": 28150.691500000114,
      "d": 51.36987500000032,
      "v": 99
    },
    {
      "midi": 47,
      "hit": false,
      "t": 28250.006591666734,
      "d": 102.73975000000064,
      "v": 65
    },
    {
      "midi": 40,
      "hit": false,
      "t": 28250.006591666734,
      "d": 102.73975000000064,
      "v": 58
    },
    {
      "midi": 40,
      "hit": false,
      "t": 28250.00659166674,
      "d": 51.36987500000032,
      "v": 107
    },
    {
      "midi": 64,
      "hit": false,
      "t": 28253.43125000009,
      "d": 102.73975000000064,
      "v": 107
    },
    {
      "midi": 70,
      "hit": false,
      "t": 28253.431250000114,
      "d": 51.36987500000032,
      "v": 53
    },
    {
      "midi": 69,
      "hit": false,
      "t": 28253.431250000114,
      "d": 51.36987500000032,
      "v": 43
    },
    {
      "midi": 109,
      "hit": false,
      "t": 28352.746341666683,
      "d": 51.36987500000032,
      "v": 127
    },
    {
      "midi": 67,
      "hit": false,
      "t": 28352.746341666734,
      "d": 205.47950000000128,
      "v": 103
    },
    {
      "midi": 28,
      "hit": false,
      "t": 28352.74634166674,
      "d": 154.10962500000096,
      "v": 107
    },
    {
      "midi": 36,
      "hit": false,
      "t": 28356.170999999984,
      "d": 51.36987500000032,
      "v": 107
    },
    {
      "midi": 13,
      "hit": false,
      "t": 28356.170999999984,
      "d": 51.36987500000032,
      "v": 127
    },
    {
      "midi": 42,
      "hit": false,
      "t": 28356.170999999984,
      "d": 102.73975000000064,
      "v": 107
    },
    {
      "midi": 38,
      "hit": false,
      "t": 28356.171000000057,
      "d": 51.36987500000032,
      "v": 88
    },
    {
      "midi": 40,
      "hit": false,
      "t": 28356.171000000057,
      "d": 51.36987500000032,
      "v": 88
    },
    {
      "midi": 70,
      "hit": false,
      "t": 28356.171000000115,
      "d": 51.36987500000032,
      "v": 60
    },
    {
      "midi": 69,
      "hit": false,
      "t": 28356.171000000115,
      "d": 51.36987500000032,
      "v": 50
    },
    {
      "midi": 70,
      "hit": false,
      "t": 28458.910750000116,
      "d": 51.36987500000032,
      "v": 49
    },
    {
      "midi": 69,
      "hit": false,
      "t": 28458.910750000116,
      "d": 51.36987500000032,
      "v": 39
    },
    {
      "midi": 47,
      "hit": false,
      "t": 28558.225841666736,
      "d": 102.73975000000064,
      "v": 78
    },
    {
      "midi": 40,
      "hit": false,
      "t": 28558.225841666736,
      "d": 102.73975000000064,
      "v": 82
    },
    {
      "midi": 66,
      "hit": false,
      "t": 28558.225841666736,
      "d": 113.0137250000007,
      "v": 108
    },
    {
      "midi": 40,
      "hit": false,
      "t": 28558.225841666743,
      "d": 51.36987500000032,
      "v": 107
    },
    {
      "midi": 46,
      "hit": false,
      "t": 28561.6505,
      "d": 205.47950000000128,
      "v": 107
    },
    {
      "midi": 64,
      "hit": false,
      "t": 28561.65050000009,
      "d": 205.47950000000128,
      "v": 112
    },
    {
      "midi": 70,
      "hit": false,
      "t": 28561.650500000116,
      "d": 51.36987500000032,
      "v": 109
    },
    {
      "midi": 69,
      "hit": false,
      "t": 28561.650500000116,
      "d": 51.36987500000032,
      "v": 99
    },
    {
      "midi": 40,
      "hit": false,
      "t": 28660.965591666743,
      "d": 51.36987500000032,
      "v": 107
    },
    {
      "midi": 38,
      "hit": false,
      "t": 28664.39025000006,
      "d": 51.36987500000032,
      "v": 88
    },
    {
      "midi": 40,
      "hit": false,
      "t": 28664.39025000006,
      "d": 51.36987500000032,
      "v": 88
    },
    {
      "midi": 70,
      "hit": false,
      "t": 28664.390250000117,
      "d": 51.36987500000032,
      "v": 53
    },
    {
      "midi": 69,
      "hit": false,
      "t": 28664.390250000117,
      "d": 51.36987500000032,
      "v": 43
    },
    {
      "midi": 42,
      "hit": false,
      "t": 28763.705341666737,
      "d": 308.2192499999983,
      "v": 90
    },
    {
      "midi": 49,
      "hit": false,
      "t": 28763.705341666737,
      "d": 308.2192499999983,
      "v": 90
    },
    {
      "midi": 66,
      "hit": false,
      "t": 28763.705341666737,
      "d": 373.28775833333566,
      "v": 112
    },
    {
      "midi": 30,
      "hit": false,
      "t": 28763.705341666744,
      "d": 154.10962500000096,
      "v": 107
    },
    {
      "midi": 36,
      "hit": false,
      "t": 28767.129999999983,
      "d": 51.36987500000032,
      "v": 107
    },
    {
      "midi": 13,
      "hit": false,
      "t": 28767.129999999983,
      "d": 51.36987500000032,
      "v": 127
    },
    {
      "midi": 42,
      "hit": false,
      "t": 28767.129999999983,
      "d": 102.73975000000064,
      "v": 102
    },
    {
      "midi": 61,
      "hit": false,
      "t": 28767.130000000016,
      "d": 821.9180000000015,
      "v": 80
    },
    {
      "midi": 58,
      "hit": false,
      "t": 28767.130000000016,
      "d": 821.9180000000015,
      "v": 80
    },
    {
      "midi": 54,
      "hit": false,
      "t": 28767.130000000016,
      "d": 821.9180000000015,
      "v": 80
    },
    {
      "midi": 70,
      "hit": false,
      "t": 28767.130000000117,
      "d": 51.36987500000032,
      "v": 60
    },
    {
      "midi": 69,
      "hit": false,
      "t": 28767.130000000117,
      "d": 51.36987500000032,
      "v": 50
    },
    {
      "midi": 38,
      "hit": false,
      "t": 28869.86975000006,
      "d": 51.36987500000032,
      "v": 69
    },
    {
      "midi": 40,
      "hit": false,
      "t": 28869.86975000006,
      "d": 51.36987500000032,
      "v": 69
    },
    {
      "midi": 70,
      "hit": false,
      "t": 28869.869750000118,
      "d": 51.36987500000032,
      "v": 49
    },
    {
      "midi": 69,
      "hit": false,
      "t": 28869.869750000118,
      "d": 51.36987500000032,
      "v": 39
    },
    {
      "midi": 42,
      "hit": false,
      "t": 28969.184841666745,
      "d": 51.36987500000032,
      "v": 107
    },
    {
      "midi": 46,
      "hit": false,
      "t": 28972.609500000002,
      "d": 102.73975000000064,
      "v": 107
    },
    {
      "midi": 66,
      "hit": false,
      "t": 28972.609500000093,
      "d": 102.73975000000064,
      "v": 123
    },
    {
      "midi": 70,
      "hit": false,
      "t": 28972.60950000012,
      "d": 51.36987500000032,
      "v": 109
    },
    {
      "midi": 69,
      "hit": false,
      "t": 28972.60950000012,
      "d": 51.36987500000032,
      "v": 99
    },
    {
      "midi": 42,
      "hit": false,
      "t": 29071.924591666746,
      "d": 51.36987500000032,
      "v": 107
    },
    {
      "midi": 70,
      "hit": false,
      "t": 29075.34925000012,
      "d": 51.36987500000032,
      "v": 53
    },
    {
      "midi": 69,
      "hit": false,
      "t": 29075.34925000012,
      "d": 51.36987500000032,
      "v": 43
    },
    {
      "midi": 109,
      "hit": false,
      "t": 29174.664341666685,
      "d": 51.36987500000032,
      "v": 127
    },
    {
      "midi": 42,
      "hit": false,
      "t": 29174.664341666736,
      "d": 410.9589999999989,
      "v": 95
    },
    {
      "midi": 49,
      "hit": false,
      "t": 29174.664341666736,
      "d": 410.9589999999989,
      "v": 101
    },
    {
      "midi": 64,
      "hit": false,
      "t": 29174.66434166674,
      "d": 349.3151500000022,
      "v": 108
    },
    {
      "midi": 30,
      "hit": false,
      "t": 29174.664341666747,
      "d": 154.10962500000096,
      "v": 107
    },
    {
      "midi": 36,
      "hit": false,
      "t": 29178.08899999998,
      "d": 51.36987500000032,
      "v": 107
    },
    {
      "midi": 13,
      "hit": false,
      "t": 29178.08899999998,
      "d": 51.36987500000032,
      "v": 127
    },
    {
      "midi": 42,
      "hit": false,
      "t": 29178.08899999998,
      "d": 102.73975000000064,
      "v": 107
    },
    {
      "midi": 38,
      "hit": false,
      "t": 29178.08900000006,
      "d": 51.36987500000032,
      "v": 88
    },
    {
      "midi": 40,
      "hit": false,
      "t": 29178.08900000006,
      "d": 51.36987500000032,
      "v": 88
    },
    {
      "midi": 64,
      "hit": false,
      "t": 29178.089000000095,
      "d": 102.73975000000064,
      "v": 127
    },
    {
      "midi": 70,
      "hit": false,
      "t": 29178.08900000012,
      "d": 51.36987500000032,
      "v": 60
    },
    {
      "midi": 69,
      "hit": false,
      "t": 29178.08900000012,
      "d": 51.36987500000032,
      "v": 50
    },
    {
      "midi": 70,
      "hit": false,
      "t": 29280.82875000012,
      "d": 51.36987500000032,
      "v": 49
    },
    {
      "midi": 69,
      "hit": false,
      "t": 29280.82875000012,
      "d": 51.36987500000032,
      "v": 39
    },
    {
      "midi": 42,
      "hit": false,
      "t": 29380.143841666748,
      "d": 51.36987500000032,
      "v": 107
    },
    {
      "midi": 46,
      "hit": false,
      "t": 29383.5685,
      "d": 102.73975000000064,
      "v": 107
    },
    {
      "midi": 38,
      "hit": false,
      "t": 29383.568500000063,
      "d": 51.36987500000032,
      "v": 68
    },
    {
      "midi": 40,
      "hit": false,
      "t": 29383.568500000063,
      "d": 51.36987500000032,
      "v": 68
    },
    {
      "midi": 76,
      "hit": false,
      "t": 29383.568500000096,
      "d": 102.73975000000064,
      "v": 79
    },
    {
      "midi": 70,
      "hit": false,
      "t": 29383.56850000012,
      "d": 51.36987500000032,
      "v": 109
    },
    {
      "midi": 69,
      "hit": false,
      "t": 29383.56850000012,
      "d": 51.36987500000032,
      "v": 99
    },
    {
      "midi": 42,
      "hit": false,
      "t": 29482.88359166675,
      "d": 51.36987500000032,
      "v": 107
    },
    {
      "midi": 38,
      "hit": false,
      "t": 29486.308250000064,
      "d": 51.36987500000032,
      "v": 52
    },
    {
      "midi": 40,
      "hit": false,
      "t": 29486.308250000064,
      "d": 51.36987500000032,
      "v": 52
    },
    {
      "midi": 78,
      "hit": false,
      "t": 29486.308250000096,
      "d": 102.73975000000064,
      "v": 85
    },
    {
      "midi": 70,
      "hit": false,
      "t": 29486.308250000122,
      "d": 51.36987500000032,
      "v": 53
    },
    {
      "midi": 69,
      "hit": false,
      "t": 29486.308250000122,
      "d": 51.36987500000032,
      "v": 43
    },
    {
      "midi": 47,
      "hit": false,
      "t": 29585.623341666735,
      "d": 205.47950000000128,
      "v": 71
    },
    {
      "midi": 54,
      "hit": false,
      "t": 29585.623341666735,
      "d": 205.47950000000128,
      "v": 90
    },
    {
      "midi": 62,
      "hit": false,
      "t": 29585.623341666742,
      "d": 695.205641666671,
      "v": 98
    },
    {
      "midi": 35,
      "hit": false,
      "t": 29585.62334166675,
      "d": 154.10962500000096,
      "v": 107
    },
    {
      "midi": 36,
      "hit": false,
      "t": 29589.04799999998,
      "d": 51.36987500000032,
      "v": 107
    },
    {
      "midi": 13,
      "hit": false,
      "t": 29589.04799999998,
      "d": 51.36987500000032,
      "v": 127
    },
    {
      "midi": 42,
      "hit": false,
      "t": 29589.04799999998,
      "d": 102.73975000000064,
      "v": 107
    },
    {
      "midi": 66,
      "hit": false,
      "t": 29589.048000000017,
      "d": 821.9180000000015,
      "v": 80
    },
    {
      "midi": 59,
      "hit": false,
      "t": 29589.048000000017,
      "d": 821.9180000000015,
      "v": 80
    },
    {
      "midi": 62,
      "hit": false,
      "t": 29589.048000000017,
      "d": 821.9180000000015,
      "v": 80
    },
    {
      "midi": 38,
      "hit": false,
      "t": 29589.048000000064,
      "d": 51.36987500000032,
      "v": 88
    },
    {
      "midi": 40,
      "hit": false,
      "t": 29589.048000000064,
      "d": 51.36987500000032,
      "v": 88
    },
    {
      "midi": 57,
      "hit": false,
      "t": 29589.048000000097,
      "d": 171.23291666666773,
      "v": 47
    },
    {
      "midi": 70,
      "hit": false,
      "t": 29589.048000000123,
      "d": 51.36987500000032,
      "v": 60
    },
    {
      "midi": 69,
      "hit": false,
      "t": 29589.048000000123,
      "d": 51.36987500000032,
      "v": 50
    },
    {
      "midi": 70,
      "hit": false,
      "t": 29691.787750000123,
      "d": 51.36987500000032,
      "v": 49
    },
    {
      "midi": 69,
      "hit": false,
      "t": 29691.787750000123,
      "d": 51.36987500000032,
      "v": 39
    },
    {
      "midi": 47,
      "hit": false,
      "t": 29791.10284166675,
      "d": 51.36987500000032,
      "v": 107
    },
    {
      "midi": 46,
      "hit": false,
      "t": 29794.5275,
      "d": 102.73975000000064,
      "v": 107
    },
    {
      "midi": 59,
      "hit": false,
      "t": 29794.5275000001,
      "d": 102.73975000000064,
      "v": 112
    },
    {
      "midi": 70,
      "hit": false,
      "t": 29794.527500000124,
      "d": 51.36987500000032,
      "v": 109
    },
    {
      "midi": 69,
      "hit": false,
      "t": 29794.527500000124,
      "d": 51.36987500000032,
      "v": 99
    },
    {
      "midi": 47,
      "hit": false,
      "t": 29893.84259166675,
      "d": 51.36987500000032,
      "v": 107
    },
    {
      "midi": 62,
      "hit": false,
      "t": 29897.2672500001,
      "d": 102.73975000000064,
      "v": 112
    },
    {
      "midi": 70,
      "hit": false,
      "t": 29897.267250000124,
      "d": 51.36987500000032,
      "v": 53
    },
    {
      "midi": 69,
      "hit": false,
      "t": 29897.267250000124,
      "d": 51.36987500000032,
      "v": 43
    },
    {
      "midi": 109,
      "hit": false,
      "t": 29996.582341666686,
      "d": 51.36987500000032,
      "v": 127
    },
    {
      "midi": 54,
      "hit": false,
      "t": 29996.582341666737,
      "d": 308.2192499999983,
      "v": 78
    },
    {
      "midi": 47,
      "hit": false,
      "t": 29996.582341666737,
      "d": 308.2192499999983,
      "v": 65
    },
    {
      "midi": 35,
      "hit": false,
      "t": 29996.58234166675,
      "d": 154.10962500000096,
      "v": 107
    },
    {
      "midi": 36,
      "hit": false,
      "t": 30000.00699999998,
      "d": 51.36987500000032,
      "v": 107
    },
    {
      "midi": 13,
      "hit": false,
      "t": 30000.00699999998,
      "d": 51.36987500000032,
      "v": 127
    },
    {
      "midi": 42,
      "hit": false,
      "t": 30000.00699999998,
      "d": 102.73975000000064,
      "v": 107
    },
    {
      "midi": 38,
      "hit": false,
      "t": 30000.007000000063,
      "d": 51.36987500000032,
      "v": 63
    },
    {
      "midi": 40,
      "hit": false,
      "t": 30000.007000000063,
      "d": 51.36987500000032,
      "v": 64
    },
    {
      "midi": 70,
      "hit": false,
      "t": 30000.007000000125,
      "d": 51.36987500000032,
      "v": 60
    },
    {
      "midi": 69,
      "hit": false,
      "t": 30000.007000000125,
      "d": 51.36987500000032,
      "v": 50
    },
    {
      "midi": 70,
      "hit": false,
      "t": 30102.746750000126,
      "d": 51.36987500000032,
      "v": 49
    },
    {
      "midi": 69,
      "hit": false,
      "t": 30102.746750000126,
      "d": 51.36987500000032,
      "v": 39
    },
    {
      "midi": 47,
      "hit": false,
      "t": 30202.061841666753,
      "d": 51.36987500000032,
      "v": 107
    },
    {
      "midi": 46,
      "hit": false,
      "t": 30205.4865,
      "d": 205.47950000000128,
      "v": 107
    },
    {
      "midi": 57,
      "hit": false,
      "t": 30205.4865000001,
      "d": 205.47950000000128,
      "v": 118
    },
    {
      "midi": 70,
      "hit": false,
      "t": 30205.486500000126,
      "d": 51.36987500000032,
      "v": 109
    },
    {
      "midi": 69,
      "hit": false,
      "t": 30205.486500000126,
      "d": 51.36987500000032,
      "v": 99
    },
    {
      "midi": 47,
      "hit": false,
      "t": 30304.801591666754,
      "d": 51.36987500000032,
      "v": 107
    },
    {
      "midi": 38,
      "hit": false,
      "t": 30308.226250000065,
      "d": 51.36987500000032,
      "v": 88
    },
    {
      "midi": 40,
      "hit": false,
      "t": 30308.226250000065,
      "d": 51.36987500000032,
      "v": 88
    },
    {
      "midi": 70,
      "hit": false,
      "t": 30308.226250000127,
      "d": 51.36987500000032,
      "v": 53
    },
    {
      "midi": 69,
      "hit": false,
      "t": 30308.226250000127,
      "d": 51.36987500000032,
      "v": 43
    },
    {
      "midi": 45,
      "hit": false,
      "t": 30407.541341666736,
      "d": 102.73975000000064,
      "v": 53
    },
    {
      "midi": 52,
      "hit": false,
      "t": 30407.541341666736,
      "d": 102.73975000000064,
      "v": 95
    },
    {
      "midi": 33,
      "hit": false,
      "t": 30407.541341666754,
      "d": 154.10962500000096,
      "v": 107
    },
    {
      "midi": 36,
      "hit": false,
      "t": 30410.96599999998,
      "d": 51.36987500000032,
      "v": 107
    },
    {
      "midi": 13,
      "hit": false,
      "t": 30410.96599999998,
      "d": 51.36987500000032,
      "v": 127
    },
    {
      "midi": 42,
      "hit": false,
      "t": 30410.96599999998,
      "d": 102.73975000000064,
      "v": 102
    },
    {
      "midi": 59,
      "hit": false,
      "t": 30410.96600000002,
      "d": 821.9180000000015,
      "v": 80
    },
    {
      "midi": 57,
      "hit": false,
      "t": 30410.96600000002,
      "d": 821.9180000000015,
      "v": 80
    },
    {
      "midi": 62,
      "hit": false,
      "t": 30410.96600000002,
      "d": 821.9180000000015,
      "v": 80
    },
    {
      "midi": 70,
      "hit": false,
      "t": 30410.966000000128,
      "d": 51.36987500000032,
      "v": 60
    },
    {
      "midi": 69,
      "hit": false,
      "t": 30410.966000000128,
      "d": 51.36987500000032,
      "v": 50
    },
    {
      "midi": 38,
      "hit": false,
      "t": 30513.705750000066,
      "d": 51.36987500000032,
      "v": 69
    },
    {
      "midi": 40,
      "hit": false,
      "t": 30513.705750000066,
      "d": 51.36987500000032,
      "v": 69
    },
    {
      "midi": 70,
      "hit": false,
      "t": 30513.70575000013,
      "d": 51.36987500000032,
      "v": 49
    },
    {
      "midi": 69,
      "hit": false,
      "t": 30513.70575000013,
      "d": 51.36987500000032,
      "v": 39
    },
    {
      "midi": 45,
      "hit": false,
      "t": 30613.020841666737,
      "d": 102.73975000000064,
      "v": 48
    },
    {
      "midi": 52,
      "hit": false,
      "t": 30613.020841666737,
      "d": 102.73975000000064,
      "v": 41
    },
    {
      "midi": 59,
      "hit": false,
      "t": 30613.02084166675,
      "d": 202.05484166666793,
      "v": 96
    },
    {
      "midi": 45,
      "hit": false,
      "t": 30613.020841666756,
      "d": 51.36987500000032,
      "v": 107
    },
    {
      "midi": 46,
      "hit": false,
      "t": 30616.4455,
      "d": 102.73975000000064,
      "v": 107
    },
    {
      "midi": 59,
      "hit": false,
      "t": 30616.445500000103,
      "d": 205.47950000000128,
      "v": 107
    },
    {
      "midi": 70,
      "hit": false,
      "t": 30616.44550000013,
      "d": 51.36987500000032,
      "v": 109
    },
    {
      "midi": 69,
      "hit": false,
      "t": 30616.44550000013,
      "d": 51.36987500000032,
      "v": 99
    },
    {
      "midi": 45,
      "hit": false,
      "t": 30715.760591666756,
      "d": 51.36987500000032,
      "v": 107
    },
    {
      "midi": 70,
      "hit": false,
      "t": 30719.18525000013,
      "d": 51.36987500000032,
      "v": 53
    },
    {
      "midi": 69,
      "hit": false,
      "t": 30719.18525000013,
      "d": 51.36987500000032,
      "v": 43
    },
    {
      "midi": 109,
      "hit": false,
      "t": 30818.500341666688,
      "d": 51.36987500000032,
      "v": 127
    },
    {
      "midi": 52,
      "hit": false,
      "t": 30818.50034166674,
      "d": 410.9589999999989,
      "v": 121
    },
    {
      "midi": 45,
      "hit": false,
      "t": 30818.50034166674,
      "d": 410.9589999999989,
      "v": 101
    },
    {
      "midi": 62,
      "hit": false,
      "t": 30818.50034166675,
      "d": 202.05484166666793,
      "v": 104
    },
    {
      "midi": 33,
      "hit": false,
      "t": 30818.500341666757,
      "d": 154.10962500000096,
      "v": 107
    },
    {
      "midi": 36,
      "hit": false,
      "t": 30821.924999999977,
      "d": 51.36987500000032,
      "v": 107
    },
    {
      "midi": 13,
      "hit": false,
      "t": 30821.924999999977,
      "d": 51.36987500000032,
      "v": 127
    },
    {
      "midi": 42,
      "hit": false,
      "t": 30821.924999999977,
      "d": 102.73975000000064,
      "v": 107
    },
    {
      "midi": 38,
      "hit": false,
      "t": 30821.92500000007,
      "d": 51.36987500000032,
      "v": 88
    },
    {
      "midi": 40,
      "hit": false,
      "t": 30821.92500000007,
      "d": 51.36987500000032,
      "v": 88
    },
    {
      "midi": 57,
      "hit": false,
      "t": 30821.925000000105,
      "d": 205.47950000000128,
      "v": 107
    },
    {
      "midi": 70,
      "hit": false,
      "t": 30821.92500000013,
      "d": 51.36987500000032,
      "v": 60
    },
    {
      "midi": 69,
      "hit": false,
      "t": 30821.92500000013,
      "d": 51.36987500000032,
      "v": 50
    },
    {
      "midi": 70,
      "hit": false,
      "t": 30924.66475000013,
      "d": 51.36987500000032,
      "v": 49
    },
    {
      "midi": 69,
      "hit": false,
      "t": 30924.66475000013,
      "d": 51.36987500000032,
      "v": 39
    },
    {
      "midi": 64,
      "hit": false,
      "t": 31023.97984166675,
      "d": 195.20552500000122,
      "v": 112
    },
    {
      "midi": 45,
      "hit": false,
      "t": 31023.979841666758,
      "d": 51.36987500000032,
      "v": 107
    },
    {
      "midi": 46,
      "hit": false,
      "t": 31027.4045,
      "d": 102.73975000000064,
      "v": 107
    },
    {
      "midi": 38,
      "hit": false,
      "t": 31027.40450000007,
      "d": 51.36987500000032,
      "v": 68
    },
    {
      "midi": 40,
      "hit": false,
      "t": 31027.40450000007,
      "d": 51.36987500000032,
      "v": 68
    },
    {
      "midi": 70,
      "hit": false,
      "t": 31027.40450000013,
      "d": 51.36987500000032,
      "v": 109
    },
    {
      "midi": 69,
      "hit": false,
      "t": 31027.40450000013,
      "d": 51.36987500000032,
      "v": 99
    },
    {
      "midi": 45,
      "hit": false,
      "t": 31126.71959166676,
      "d": 51.36987500000032,
      "v": 107
    },
    {
      "midi": 38,
      "hit": false,
      "t": 31130.14425000007,
      "d": 51.36987500000032,
      "v": 52
    },
    {
      "midi": 40,
      "hit": false,
      "t": 31130.14425000007,
      "d": 51.36987500000032,
      "v": 52
    },
    {
      "midi": 70,
      "hit": false,
      "t": 31130.144250000132,
      "d": 51.36987500000032,
      "v": 53
    },
    {
      "midi": 69,
      "hit": false,
      "t": 31130.144250000132,
      "d": 51.36987500000032,
      "v": 43
    },
    {
      "midi": 50,
      "hit": false,
      "t": 31229.459341666738,
      "d": 102.73975000000064,
      "v": 65
    },
    {
      "midi": 43,
      "hit": false,
      "t": 31229.459341666738,
      "d": 102.73975000000064,
      "v": 71
    },
    {
      "midi": 66,
      "hit": false,
      "t": 31229.459341666752,
      "d": 414.3836583333359,
      "v": 119
    },
    {
      "midi": 31,
      "hit": false,
      "t": 31229.45934166676,
      "d": 154.10962500000096,
      "v": 107
    },
    {
      "midi": 36,
      "hit": false,
      "t": 31232.883999999976,
      "d": 51.36987500000032,
      "v": 107
    },
    {
      "midi": 13,
      "hit": false,
      "t": 31232.883999999976,
      "d": 51.36987500000032,
      "v": 127
    },
    {
      "midi": 42,
      "hit": false,
      "t": 31232.883999999976,
      "d": 102.73975000000064,
      "v": 107
    },
    {
      "midi": 62,
      "hit": false,
      "t": 31232.88400000002,
      "d": 821.9180000000015,
      "v": 80
    },
    {
      "midi": 59,
      "hit": false,
      "t": 31232.88400000002,
      "d": 821.9180000000015,
      "v": 80
    },
    {
      "midi": 55,
      "hit": false,
      "t": 31232.88400000002,
      "d": 821.9180000000015,
      "v": 80
    },
    {
      "midi": 38,
      "hit": false,
      "t": 31232.88400000007,
      "d": 51.36987500000032,
      "v": 63
    },
    {
      "midi": 40,
      "hit": false,
      "t": 31232.88400000007,
      "d": 51.36987500000032,
      "v": 63
    },
    {
      "midi": 57,
      "hit": false,
      "t": 31232.884000000107,
      "d": 171.23291666666773,
      "v": 79
    },
    {
      "midi": 70,
      "hit": false,
      "t": 31232.884000000133,
      "d": 51.36987500000032,
      "v": 60
    },
    {
      "midi": 69,
      "hit": false,
      "t": 31232.884000000133,
      "d": 51.36987500000032,
      "v": 50
    },
    {
      "midi": 70,
      "hit": false,
      "t": 31335.623750000133,
      "d": 51.36987500000032,
      "v": 49
    },
    {
      "midi": 69,
      "hit": false,
      "t": 31335.623750000133,
      "d": 51.36987500000032,
      "v": 39
    },
    {
      "midi": 43,
      "hit": false,
      "t": 31434.93884166674,
      "d": 102.73975000000064,
      "v": 58
    },
    {
      "midi": 50,
      "hit": false,
      "t": 31434.93884166674,
      "d": 102.73975000000064,
      "v": 58
    },
    {
      "midi": 43,
      "hit": false,
      "t": 31434.93884166676,
      "d": 51.36987500000032,
      "v": 107
    },
    {
      "midi": 46,
      "hit": false,
      "t": 31438.3635,
      "d": 102.73975000000064,
      "v": 107
    },
    {
      "midi": 70,
      "hit": false,
      "t": 31438.363500000134,
      "d": 51.36987500000032,
      "v": 109
    },
    {
      "midi": 69,
      "hit": false,
      "t": 31438.363500000134,
      "d": 51.36987500000032,
      "v": 99
    },
    {
      "midi": 43,
      "hit": false,
      "t": 31537.67859166676,
      "d": 51.36987500000032,
      "v": 107
    },
    {
      "midi": 62,
      "hit": false,
      "t": 31541.10325000011,
      "d": 102.73975000000064,
      "v": 107
    },
    {
      "midi": 70,
      "hit": false,
      "t": 31541.103250000135,
      "d": 51.36987500000032,
      "v": 53
    },
    {
      "midi": 69,
      "hit": false,
      "t": 31541.103250000135,
      "d": 51.36987500000032,
      "v": 43
    },
    {
      "midi": 109,
      "hit": false,
      "t": 31640.41834166669,
      "d": 51.36987500000032,
      "v": 127
    },
    {
      "midi": 50,
      "hit": false,
      "t": 31640.41834166674,
      "d": 308.2192499999983,
      "v": 85
    },
    {
      "midi": 43,
      "hit": false,
      "t": 31640.41834166674,
      "d": 308.2192499999983,
      "v": 85
    },
    {
      "midi": 64,
      "hit": false,
      "t": 31640.418341666755,
      "d": 202.05484166666793,
      "v": 109
    },
    {
      "midi": 31,
      "hit": false,
      "t": 31640.418341666762,
      "d": 154.10962500000096,
      "v": 107
    },
    {
      "midi": 36,
      "hit": false,
      "t": 31643.842999999975,
      "d": 51.36987500000032,
      "v": 107
    },
    {
      "midi": 13,
      "hit": false,
      "t": 31643.842999999975,
      "d": 51.36987500000032,
      "v": 127
    },
    {
      "midi": 42,
      "hit": false,
      "t": 31643.842999999975,
      "d": 102.73975000000064,
      "v": 107
    },
    {
      "midi": 38,
      "hit": false,
      "t": 31643.84300000007,
      "d": 51.36987500000032,
      "v": 88
    },
    {
      "midi": 40,
      "hit": false,
      "t": 31643.84300000007,
      "d": 51.36987500000032,
      "v": 88
    },
    {
      "midi": 70,
      "hit": false,
      "t": 31643.843000000135,
      "d": 51.36987500000032,
      "v": 60
    },
    {
      "midi": 69,
      "hit": false,
      "t": 31643.843000000135,
      "d": 51.36987500000032,
      "v": 50
    },
    {
      "midi": 70,
      "hit": false,
      "t": 31746.582750000136,
      "d": 51.36987500000032,
      "v": 49
    },
    {
      "midi": 69,
      "hit": false,
      "t": 31746.582750000136,
      "d": 51.36987500000032,
      "v": 39
    },
    {
      "midi": 62,
      "hit": false,
      "t": 31845.897841666756,
      "d": 154.10962500000096,
      "v": 92
    },
    {
      "midi": 43,
      "hit": false,
      "t": 31845.897841666763,
      "d": 51.36987500000032,
      "v": 107
    },
    {
      "midi": 46,
      "hit": false,
      "t": 31849.3225,
      "d": 205.47950000000128,
      "v": 107
    },
    {
      "midi": 64,
      "hit": false,
      "t": 31849.32250000011,
      "d": 102.73975000000064,
      "v": 88
    },
    {
      "midi": 70,
      "hit": false,
      "t": 31849.322500000137,
      "d": 51.36987500000032,
      "v": 109
    },
    {
      "midi": 69,
      "hit": false,
      "t": 31849.322500000137,
      "d": 51.36987500000032,
      "v": 99
    },
    {
      "midi": 43,
      "hit": false,
      "t": 31948.637591666764,
      "d": 51.36987500000032,
      "v": 107
    },
    {
      "midi": 38,
      "hit": false,
      "t": 31952.06225000007,
      "d": 51.36987500000032,
      "v": 88
    },
    {
      "midi": 40,
      "hit": false,
      "t": 31952.06225000007,
      "d": 51.36987500000032,
      "v": 88
    },
    {
      "midi": 70,
      "hit": false,
      "t": 31952.062250000137,
      "d": 51.36987500000032,
      "v": 53
    },
    {
      "midi": 69,
      "hit": false,
      "t": 31952.062250000137,
      "d": 51.36987500000032,
      "v": 43
    },
    {
      "midi": 52,
      "hit": false,
      "t": 32051.37734166674,
      "d": 308.2192499999983,
      "v": 85
    },
    {
      "midi": 45,
      "hit": false,
      "t": 32051.37734166674,
      "d": 308.2192499999983,
      "v": 78
    },
    {
      "midi": 62,
      "hit": false,
      "t": 32051.377341666757,
      "d": 414.3836583333359,
      "v": 105
    },
    {
      "midi": 33,
      "hit": false,
      "t": 32051.377341666765,
      "d": 154.10962500000096,
      "v": 107
    },
    {
      "midi": 36,
      "hit": false,
      "t": 32054.801999999974,
      "d": 51.36987500000032,
      "v": 107
    },
    {
      "midi": 13,
      "hit": false,
      "t": 32054.801999999974,
      "d": 51.36987500000032,
      "v": 127
    },
    {
      "midi": 42,
      "hit": false,
      "t": 32054.801999999974,
      "d": 102.73975000000064,
      "v": 102
    },
    {
      "midi": 57,
      "hit": false,
      "t": 32054.80200000002,
      "d": 821.9180000000015,
      "v": 80
    },
    {
      "midi": 59,
      "hit": false,
      "t": 32054.80200000002,
      "d": 821.9180000000015,
      "v": 80
    },
    {
      "midi": 62,
      "hit": false,
      "t": 32054.80200000002,
      "d": 821.9180000000015,
      "v": 80
    },
    {
      "midi": 70,
      "hit": false,
      "t": 32054.802000000138,
      "d": 51.36987500000032,
      "v": 60
    },
    {
      "midi": 69,
      "hit": false,
      "t": 32054.802000000138,
      "d": 51.36987500000032,
      "v": 50
    },
    {
      "midi": 38,
      "hit": false,
      "t": 32157.541750000073,
      "d": 51.36987500000032,
      "v": 69
    },
    {
      "midi": 40,
      "hit": false,
      "t": 32157.541750000073,
      "d": 51.36987500000032,
      "v": 69
    },
    {
      "midi": 70,
      "hit": false,
      "t": 32157.54175000014,
      "d": 51.36987500000032,
      "v": 49
    },
    {
      "midi": 69,
      "hit": false,
      "t": 32157.54175000014,
      "d": 51.36987500000032,
      "v": 39
    },
    {
      "midi": 45,
      "hit": false,
      "t": 32256.856841666766,
      "d": 51.36987500000032,
      "v": 107
    },
    {
      "midi": 46,
      "hit": false,
      "t": 32260.2815,
      "d": 102.73975000000064,
      "v": 107
    },
    {
      "midi": 62,
      "hit": false,
      "t": 32260.28150000011,
      "d": 205.47950000000128,
      "v": 118
    },
    {
      "midi": 70,
      "hit": false,
      "t": 32260.28150000014,
      "d": 51.36987500000032,
      "v": 109
    },
    {
      "midi": 69,
      "hit": false,
      "t": 32260.28150000014,
      "d": 51.36987500000032,
      "v": 99
    },
    {
      "midi": 45,
      "hit": false,
      "t": 32359.596591666766,
      "d": 51.36987500000032,
      "v": 107
    },
    {
      "midi": 70,
      "hit": false,
      "t": 32363.02125000014,
      "d": 51.36987500000032,
      "v": 53
    },
    {
      "midi": 69,
      "hit": false,
      "t": 32363.02125000014,
      "d": 51.36987500000032,
      "v": 43
    },
    {
      "midi": 109,
      "hit": false,
      "t": 32462.33634166669,
      "d": 51.36987500000032,
      "v": 127
    },
    {
      "midi": 52,
      "hit": false,
      "t": 32462.336341666738,
      "d": 410.9589999999989,
      "v": 85
    },
    {
      "midi": 45,
      "hit": false,
      "t": 32462.336341666738,
      "d": 410.9589999999989,
      "v": 82
    },
    {
      "midi": 61,
      "hit": false,
      "t": 32462.33634166676,
      "d": 208.90415833333464,
      "v": 110
    },
    {
      "midi": 33,
      "hit": false,
      "t": 32462.336341666767,
      "d": 154.10962500000096,
      "v": 107
    },
    {
      "midi": 36,
      "hit": false,
      "t": 32465.760999999973,
      "d": 51.36987500000032,
      "v": 107
    },
    {
      "midi": 13,
      "hit": false,
      "t": 32465.760999999973,
      "d": 51.36987500000032,
      "v": 127
    },
    {
      "midi": 42,
      "hit": false,
      "t": 32465.760999999973,
      "d": 102.73975000000064,
      "v": 107
    },
    {
      "midi": 38,
      "hit": false,
      "t": 32465.761000000075,
      "d": 51.36987500000032,
      "v": 88
    },
    {
      "midi": 40,
      "hit": false,
      "t": 32465.761000000075,
      "d": 51.36987500000032,
      "v": 88
    },
    {
      "midi": 59,
      "hit": false,
      "t": 32465.76100000011,
      "d": 205.47950000000128,
      "v": 112
    },
    {
      "midi": 70,
      "hit": false,
      "t": 32465.76100000014,
      "d": 51.36987500000032,
      "v": 60
    },
    {
      "midi": 69,
      "hit": false,
      "t": 32465.76100000014,
      "d": 51.36987500000032,
      "v": 50
    },
    {
      "midi": 70,
      "hit": false,
      "t": 32568.50075000014,
      "d": 51.36987500000032,
      "v": 49
    },
    {
      "midi": 69,
      "hit": false,
      "t": 32568.50075000014,
      "d": 51.36987500000032,
      "v": 39
    },
    {
      "midi": 59,
      "hit": false,
      "t": 32667.81584166676,
      "d": 979.4522833333212,
      "v": 98
    },
    {
      "midi": 45,
      "hit": false,
      "t": 32667.81584166677,
      "d": 51.36987500000032,
      "v": 107
    },
    {
      "midi": 46,
      "hit": false,
      "t": 32671.2405,
      "d": 102.73975000000064,
      "v": 107
    },
    {
      "midi": 38,
      "hit": false,
      "t": 32671.240500000076,
      "d": 51.36987500000032,
      "v": 68
    },
    {
      "midi": 40,
      "hit": false,
      "t": 32671.240500000076,
      "d": 51.36987500000032,
      "v": 68
    },
    {
      "midi": 70,
      "hit": false,
      "t": 32671.24050000014,
      "d": 51.36987500000032,
      "v": 109
    },
    {
      "midi": 69,
      "hit": false,
      "t": 32671.24050000014,
      "d": 51.36987500000032,
      "v": 99
    },
    {
      "midi": 45,
      "hit": false,
      "t": 32770.555591666765,
      "d": 51.36987499999668,
      "v": 107
    },
    {
      "midi": 38,
      "hit": false,
      "t": 32773.98025000007,
      "d": 51.36987499999668,
      "v": 52
    },
    {
      "midi": 40,
      "hit": false,
      "t": 32773.98025000007,
      "d": 51.36987499999668,
      "v": 52
    },
    {
      "midi": 70,
      "hit": false,
      "t": 32773.98025000014,
      "d": 51.36987499999668,
      "v": 53
    },
    {
      "midi": 69,
      "hit": false,
      "t": 32773.98025000014,
      "d": 51.36987499999668,
      "v": 43
    },
    {
      "midi": 54,
      "hit": false,
      "t": 32873.29534166674,
      "d": 205.47950000000128,
      "v": 107
    },
    {
      "midi": 47,
      "hit": false,
      "t": 32873.29534166674,
      "d": 205.47950000000128,
      "v": 65
    },
    {
      "midi": 35,
      "hit": false,
      "t": 32873.29534166676,
      "d": 154.10962499999732,
      "v": 107
    },
    {
      "midi": 36,
      "hit": false,
      "t": 32876.71999999997,
      "d": 51.36987499999668,
      "v": 107
    },
    {
      "midi": 13,
      "hit": false,
      "t": 32876.71999999997,
      "d": 51.36987499999668,
      "v": 127
    },
    {
      "midi": 42,
      "hit": false,
      "t": 32876.71999999997,
      "d": 102.73975000000064,
      "v": 107
    },
    {
      "midi": 83,
      "hit": false,
      "t": 32876.719999999994,
      "d": 513.6987500000032,
      "v": 60
    },
    {
      "midi": 71,
      "hit": false,
      "t": 32876.719999999994,
      "d": 513.6987500000032,
      "v": 80
    },
    {
      "midi": 59,
      "hit": false,
      "t": 32876.72000000002,
      "d": 1643.836000000003,
      "v": 80
    },
    {
      "midi": 66,
      "hit": false,
      "t": 32876.72000000002,
      "d": 1643.836000000003,
      "v": 80
    },
    {
      "midi": 64,
      "hit": false,
      "t": 32876.72000000002,
      "d": 1643.836000000003,
      "v": 80
    },
    {
      "midi": 38,
      "hit": false,
      "t": 32876.72000000007,
      "d": 51.36987499999668,
      "v": 63
    },
    {
      "midi": 40,
      "hit": false,
      "t": 32876.72000000007,
      "d": 51.36987499999668,
      "v": 64
    },
    {
      "midi": 64,
      "hit": false,
      "t": 32876.720000000096,
      "d": 239.726083333313,
      "v": 112
    },
    {
      "midi": 70,
      "hit": false,
      "t": 32876.72000000013,
      "d": 51.36987499999668,
      "v": 60
    },
    {
      "midi": 69,
      "hit": false,
      "t": 32876.72000000013,
      "d": 51.36987499999668,
      "v": 50
    },
    {
      "midi": 70,
      "hit": false,
      "t": 32979.459750000125,
      "d": 51.36987499999668,
      "v": 49
    },
    {
      "midi": 69,
      "hit": false,
      "t": 32979.459750000125,
      "d": 51.36987499999668,
      "v": 39
    },
    {
      "midi": 47,
      "hit": false,
      "t": 33078.77484166675,
      "d": 51.36987499999668,
      "v": 107
    },
    {
      "midi": 46,
      "hit": false,
      "t": 33082.1995,
      "d": 102.73975000000064,
      "v": 107
    },
    {
      "midi": 70,
      "hit": false,
      "t": 33082.19950000012,
      "d": 51.36987499999668,
      "v": 109
    },
    {
      "midi": 69,
      "hit": false,
      "t": 33082.19950000012,
      "d": 51.36987499999668,
      "v": 99
    },
    {
      "midi": 54,
      "hit": false,
      "t": 33181.51459166674,
      "d": 102.73975000000064,
      "v": 90
    },
    {
      "midi": 47,
      "hit": false,
      "t": 33181.51459166674,
      "d": 102.73975000000064,
      "v": 55
    },
    {
      "midi": 47,
      "hit": false,
      "t": 33181.514591666746,
      "d": 51.36987499999668,
      "v": 107
    },
    {
      "midi": 64,
      "hit": false,
      "t": 33184.939250000076,
      "d": 102.73975000000064,
      "v": 112
    },
    {
      "midi": 70,
      "hit": false,
      "t": 33184.93925000011,
      "d": 51.36987499999668,
      "v": 53
    },
    {
      "midi": 69,
      "hit": false,
      "t": 33184.93925000011,
      "d": 51.36987499999668,
      "v": 43
    },
    {
      "midi": 109,
      "hit": false,
      "t": 33284.25434166669,
      "d": 51.36987499999668,
      "v": 127
    },
    {
      "midi": 35,
      "hit": false,
      "t": 33284.25434166674,
      "d": 154.10962499999732,
      "v": 107
    },
    {
      "midi": 36,
      "hit": false,
      "t": 33287.67899999997,
      "d": 51.36987499999668,
      "v": 107
    },
    {
      "midi": 13,
      "hit": false,
      "t": 33287.67899999997,
      "d": 51.36987499999668,
      "v": 127
    },
    {
      "midi": 42,
      "hit": false,
      "t": 33287.678999999975,
      "d": 102.73975000000064,
      "v": 107
    },
    {
      "midi": 38,
      "hit": false,
      "t": 33287.67900000006,
      "d": 51.36987499999668,
      "v": 88
    },
    {
      "midi": 40,
      "hit": false,
      "t": 33287.67900000006,
      "d": 51.36987499999668,
      "v": 88
    },
    {
      "midi": 70,
      "hit": false,
      "t": 33287.679000000106,
      "d": 51.36987499999668,
      "v": 60
    },
    {
      "midi": 69,
      "hit": false,
      "t": 33287.679000000106,
      "d": 51.36987499999668,
      "v": 50
    },
    {
      "midi": 70,
      "hit": false,
      "t": 33390.4187500001,
      "d": 51.36987499999668,
      "v": 49
    },
    {
      "midi": 69,
      "hit": false,
      "t": 33390.4187500001,
      "d": 51.36987499999668,
      "v": 39
    },
    {
      "midi": 47,
      "hit": false,
      "t": 33489.73384166673,
      "d": 51.36987499999668,
      "v": 107
    },
    {
      "midi": 64,
      "hit": false,
      "t": 33489.73384166674,
      "d": 410.95900000000256,
      "v": 113
    },
    {
      "midi": 76,
      "hit": false,
      "t": 33489.73384166674,
      "d": 462.32887499999924,
      "v": 113
    },
    {
      "midi": 88,
      "hit": false,
      "t": 33489.73384166674,
      "d": 462.32887499999924,
      "v": 113
    },
    {
      "midi": 88,
      "hit": false,
      "t": 33493.1585,
      "d": 308.2192500000019,
      "v": 60
    },
    {
      "midi": 76,
      "hit": false,
      "t": 33493.1585,
      "d": 308.2192500000019,
      "v": 80
    },
    {
      "midi": 46,
      "hit": false,
      "t": 33493.158500000005,
      "d": 205.47950000000128,
      "v": 107
    },
    {
      "midi": 59,
      "hit": false,
      "t": 33493.15850000008,
      "d": 205.47950000000128,
      "v": 85
    },
    {
      "midi": 70,
      "hit": false,
      "t": 33493.15850000009,
      "d": 51.36987499999668,
      "v": 109
    },
    {
      "midi": 69,
      "hit": false,
      "t": 33493.15850000009,
      "d": 51.36987499999668,
      "v": 99
    },
    {
      "midi": 47,
      "hit": false,
      "t": 33592.47359166673,
      "d": 51.36987499999668,
      "v": 107
    },
    {
      "midi": 38,
      "hit": false,
      "t": 33595.89825000006,
      "d": 51.36987499999668,
      "v": 88
    },
    {
      "midi": 40,
      "hit": false,
      "t": 33595.89825000006,
      "d": 51.36987499999668,
      "v": 88
    },
    {
      "midi": 70,
      "hit": false,
      "t": 33595.898250000086,
      "d": 51.36987499999668,
      "v": 53
    },
    {
      "midi": 69,
      "hit": false,
      "t": 33595.898250000086,
      "d": 51.36987499999668,
      "v": 43
    },
    {
      "midi": 35,
      "hit": false,
      "t": 33695.21334166672,
      "d": 154.10962499999732,
      "v": 107
    },
    {
      "midi": 36,
      "hit": false,
      "t": 33698.63799999996,
      "d": 51.36987499999668,
      "v": 107
    },
    {
      "midi": 13,
      "hit": false,
      "t": 33698.63799999996,
      "d": 51.36987499999668,
      "v": 127
    },
    {
      "midi": 42,
      "hit": false,
      "t": 33698.63799999998,
      "d": 102.73975000000064,
      "v": 102
    },
    {
      "midi": 70,
      "hit": false,
      "t": 33698.63800000008,
      "d": 51.36987499999668,
      "v": 60
    },
    {
      "midi": 69,
      "hit": false,
      "t": 33698.63800000008,
      "d": 51.36987499999668,
      "v": 50
    },
    {
      "midi": 38,
      "hit": false,
      "t": 33801.37775000005,
      "d": 51.36987499999668,
      "v": 69
    },
    {
      "midi": 40,
      "hit": false,
      "t": 33801.37775000005,
      "d": 51.36987499999668,
      "v": 69
    },
    {
      "midi": 70,
      "hit": false,
      "t": 33801.37775000007,
      "d": 51.36987499999668,
      "v": 49
    },
    {
      "midi": 69,
      "hit": false,
      "t": 33801.37775000007,
      "d": 51.36987499999668,
      "v": 39
    },
    {
      "midi": 47,
      "hit": false,
      "t": 33900.692841666714,
      "d": 51.36987499999668,
      "v": 107
    },
    {
      "midi": 63,
      "hit": false,
      "t": 33900.69284166674,
      "d": 205.479499999994,
      "v": 106
    },
    {
      "midi": 75,
      "hit": false,
      "t": 33900.69284166674,
      "d": 205.479499999994,
      "v": 106
    },
    {
      "midi": 90,
      "hit": false,
      "t": 33904.1175,
      "d": 205.47950000000128,
      "v": 60
    },
    {
      "midi": 78,
      "hit": false,
      "t": 33904.1175,
      "d": 205.47950000000128,
      "v": 80
    },
    {
      "midi": 46,
      "hit": false,
      "t": 33904.11750000001,
      "d": 102.73975000000064,
      "v": 107
    },
    {
      "midi": 70,
      "hit": false,
      "t": 33904.117500000066,
      "d": 51.36987499999668,
      "v": 109
    },
    {
      "midi": 69,
      "hit": false,
      "t": 33904.117500000066,
      "d": 51.36987499999668,
      "v": 99
    },
    {
      "midi": 59,
      "hit": false,
      "t": 33904.11750000008,
      "d": 205.47950000000128,
      "v": 88
    },
    {
      "midi": 47,
      "hit": false,
      "t": 34003.43259166671,
      "d": 51.36987499999668,
      "v": 107
    },
    {
      "midi": 70,
      "hit": false,
      "t": 34006.85725000006,
      "d": 51.36987499999668,
      "v": 53
    },
    {
      "midi": 69,
      "hit": false,
      "t": 34006.85725000006,
      "d": 51.36987499999668,
      "v": 43
    },
    {
      "midi": 109,
      "hit": false,
      "t": 34106.17234166669,
      "d": 51.36987499999668,
      "v": 127
    },
    {
      "midi": 35,
      "hit": false,
      "t": 34106.1723416667,
      "d": 154.10962499999732,
      "v": 107
    },
    {
      "midi": 59,
      "hit": false,
      "t": 34106.17234166674,
      "d": 205.47950000000128,
      "v": 87
    },
    {
      "midi": 71,
      "hit": false,
      "t": 34106.17234166674,
      "d": 205.47950000000128,
      "v": 87
    },
    {
      "midi": 36,
      "hit": false,
      "t": 34109.59699999996,
      "d": 51.36987499999668,
      "v": 107
    },
    {
      "midi": 13,
      "hit": false,
      "t": 34109.59699999996,
      "d": 51.36987499999668,
      "v": 127
    },
    {
      "midi": 42,
      "hit": false,
      "t": 34109.59699999998,
      "d": 102.73975000000064,
      "v": 107
    },
    {
      "midi": 88,
      "hit": false,
      "t": 34109.597,
      "d": 308.2192500000019,
      "v": 60
    },
    {
      "midi": 76,
      "hit": false,
      "t": 34109.597,
      "d": 308.2192500000019,
      "v": 80
    },
    {
      "midi": 38,
      "hit": false,
      "t": 34109.597000000045,
      "d": 51.36987499999668,
      "v": 88
    },
    {
      "midi": 40,
      "hit": false,
      "t": 34109.597000000045,
      "d": 51.36987499999668,
      "v": 88
    },
    {
      "midi": 70,
      "hit": false,
      "t": 34109.59700000005,
      "d": 51.36987499999668,
      "v": 60
    },
    {
      "midi": 69,
      "hit": false,
      "t": 34109.59700000005,
      "d": 51.36987499999668,
      "v": 50
    },
    {
      "midi": 64,
      "hit": false,
      "t": 34109.59700000008,
      "d": 205.47950000000128,
      "v": 98
    },
    {
      "midi": 70,
      "hit": false,
      "t": 34212.336750000046,
      "d": 51.36987499999668,
      "v": 49
    },
    {
      "midi": 69,
      "hit": false,
      "t": 34212.336750000046,
      "d": 51.36987499999668,
      "v": 39
    },
    {
      "midi": 47,
      "hit": false,
      "t": 34311.651841666695,
      "d": 51.36987499999668,
      "v": 107
    },
    {
      "midi": 57,
      "hit": false,
      "t": 34311.65184166674,
      "d": 167.80825833333074,
      "v": 87
    },
    {
      "midi": 52,
      "hit": false,
      "t": 34311.65184166674,
      "d": 178.08223333332717,
      "v": 87
    },
    {
      "midi": 46,
      "hit": false,
      "t": 34315.07650000001,
      "d": 102.73975000000064,
      "v": 107
    },
    {
      "midi": 38,
      "hit": false,
      "t": 34315.07650000004,
      "d": 51.36987499999668,
      "v": 68
    },
    {
      "midi": 40,
      "hit": false,
      "t": 34315.07650000004,
      "d": 51.36987499999668,
      "v": 68
    },
    {
      "midi": 70,
      "hit": false,
      "t": 34315.07650000004,
      "d": 51.36987499999668,
      "v": 109
    },
    {
      "midi": 69,
      "hit": false,
      "t": 34315.07650000004,
      "d": 51.36987499999668,
      "v": 99
    },
    {
      "midi": 66,
      "hit": false,
      "t": 34315.07650000008,
      "d": 102.73974999999336,
      "v": 91
    },
    {
      "midi": 47,
      "hit": false,
      "t": 34414.39159166669,
      "d": 51.36987499999668,
      "v": 107
    },
    {
      "midi": 38,
      "hit": false,
      "t": 34417.81625000003,
      "d": 51.36987499999668,
      "v": 52
    },
    {
      "midi": 40,
      "hit": false,
      "t": 34417.81625000003,
      "d": 51.36987499999668,
      "v": 52
    },
    {
      "midi": 70,
      "hit": false,
      "t": 34417.81625000003,
      "d": 51.36987499999668,
      "v": 53
    },
    {
      "midi": 69,
      "hit": false,
      "t": 34417.81625000003,
      "d": 51.36987499999668,
      "v": 43
    },
    {
      "midi": 35,
      "hit": false,
      "t": 34517.13134166668,
      "d": 154.10962499999732,
      "v": 107
    },
    {
      "midi": 47,
      "hit": false,
      "t": 34517.131341666725,
      "d": 102.73975000000064,
      "v": 55
    },
    {
      "midi": 54,
      "hit": false,
      "t": 34517.131341666725,
      "d": 102.73975000000064,
      "v": 101
    },
    {
      "midi": 36,
      "hit": false,
      "t": 34520.55599999995,
      "d": 51.36987499999668,
      "v": 107
    },
    {
      "midi": 13,
      "hit": false,
      "t": 34520.55599999995,
      "d": 51.36987499999668,
      "v": 127
    },
    {
      "midi": 42,
      "hit": false,
      "t": 34520.55599999998,
      "d": 102.73975000000064,
      "v": 107
    },
    {
      "midi": 57,
      "hit": false,
      "t": 34520.556,
      "d": 51.36987499999668,
      "v": 84
    },
    {
      "midi": 87,
      "hit": false,
      "t": 34520.556000000004,
      "d": 513.6987500000032,
      "v": 60
    },
    {
      "midi": 75,
      "hit": false,
      "t": 34520.556000000004,
      "d": 513.6987500000032,
      "v": 80
    },
    {
      "midi": 59,
      "hit": false,
      "t": 34520.556000000026,
      "d": 1643.836000000003,
      "v": 80
    },
    {
      "midi": 66,
      "hit": false,
      "t": 34520.556000000026,
      "d": 1643.836000000003,
      "v": 80
    },
    {
      "midi": 63,
      "hit": false,
      "t": 34520.556000000026,
      "d": 1643.836000000003,
      "v": 80
    },
    {
      "midi": 38,
      "hit": false,
      "t": 34520.556000000026,
      "d": 51.36987499999668,
      "v": 77
    },
    {
      "midi": 40,
      "hit": false,
      "t": 34520.556000000026,
      "d": 51.36987499999668,
      "v": 78
    },
    {
      "midi": 70,
      "hit": false,
      "t": 34520.556000000026,
      "d": 51.36987499999668,
      "v": 60
    },
    {
      "midi": 69,
      "hit": false,
      "t": 34520.556000000026,
      "d": 51.36987499999668,
      "v": 50
    },
    {
      "midi": 59,
      "hit": false,
      "t": 34520.55600000007,
      "d": 205.47949999998673,
      "v": 102
    },
    {
      "midi": 70,
      "hit": false,
      "t": 34623.29575000002,
      "d": 51.36987499999668,
      "v": 49
    },
    {
      "midi": 69,
      "hit": false,
      "t": 34623.29575000002,
      "d": 51.36987499999668,
      "v": 39
    },
    {
      "midi": 47,
      "hit": false,
      "t": 34722.610841666676,
      "d": 51.36987499999668,
      "v": 107
    },
    {
      "midi": 54,
      "hit": false,
      "t": 34722.61084166673,
      "d": 308.2192500000019,
      "v": 113
    },
    {
      "midi": 47,
      "hit": false,
      "t": 34722.61084166673,
      "d": 308.2192500000019,
      "v": 85
    },
    {
      "midi": 46,
      "hit": false,
      "t": 34726.03550000001,
      "d": 102.73975000000064,
      "v": 107
    },
    {
      "midi": 70,
      "hit": false,
      "t": 34726.03550000001,
      "d": 51.36987499999668,
      "v": 109
    },
    {
      "midi": 69,
      "hit": false,
      "t": 34726.03550000001,
      "d": 51.36987499999668,
      "v": 99
    },
    {
      "midi": 38,
      "hit": false,
      "t": 34726.03550000002,
      "d": 51.36987499999668,
      "v": 64
    },
    {
      "midi": 40,
      "hit": false,
      "t": 34726.03550000002,
      "d": 51.36987499999668,
      "v": 64
    },
    {
      "midi": 47,
      "hit": false,
      "t": 34825.35059166667,
      "d": 51.36987499999668,
      "v": 107
    },
    {
      "midi": 70,
      "hit": false,
      "t": 34828.775250000006,
      "d": 51.36987499999668,
      "v": 53
    },
    {
      "midi": 69,
      "hit": false,
      "t": 34828.775250000006,
      "d": 51.36987499999668,
      "v": 43
    },
    {
      "midi": 66,
      "hit": false,
      "t": 34828.77525000006,
      "d": 102.73975000000064,
      "v": 94
    },
    {
      "midi": 63,
      "hit": false,
      "t": 34828.77525000006,
      "d": 102.73975000000064,
      "v": 94
    },
    {
      "midi": 35,
      "hit": false,
      "t": 34928.09034166666,
      "d": 154.10962499999732,
      "v": 107
    },
    {
      "midi": 109,
      "hit": false,
      "t": 34928.090341666684,
      "d": 51.36987499999668,
      "v": 127
    },
    {
      "midi": 36,
      "hit": false,
      "t": 34931.51499999995,
      "d": 51.36987499999668,
      "v": 107
    },
    {
      "midi": 13,
      "hit": false,
      "t": 34931.51499999995,
      "d": 51.36987499999668,
      "v": 127
    },
    {
      "midi": 42,
      "hit": false,
      "t": 34931.514999999985,
      "d": 102.73975000000064,
      "v": 107
    },
    {
      "midi": 70,
      "hit": false,
      "t": 34931.515,
      "d": 51.36987499999668,
      "v": 60
    },
    {
      "midi": 69,
      "hit": false,
      "t": 34931.515,
      "d": 51.36987499999668,
      "v": 50
    },
    {
      "midi": 38,
      "hit": false,
      "t": 34931.515000000014,
      "d": 51.36987499999668,
      "v": 88
    },
    {
      "midi": 40,
      "hit": false,
      "t": 34931.515000000014,
      "d": 51.36987499999668,
      "v": 88
    },
    {
      "midi": 70,
      "hit": false,
      "t": 35034.25474999999,
      "d": 51.36987499999668,
      "v": 49
    },
    {
      "midi": 69,
      "hit": false,
      "t": 35034.25474999999,
      "d": 51.36987499999668,
      "v": 39
    },
    {
      "midi": 38,
      "hit": false,
      "t": 35034.25475000001,
      "d": 51.36987499999668,
      "v": 64
    },
    {
      "midi": 40,
      "hit": false,
      "t": 35034.25475000001,
      "d": 51.36987499999668,
      "v": 64
    },
    {
      "midi": 47,
      "hit": false,
      "t": 35133.56984166666,
      "d": 51.36987499999668,
      "v": 107
    },
    {
      "midi": 47,
      "hit": false,
      "t": 35133.56984166673,
      "d": 102.73975000000064,
      "v": 53
    },
    {
      "midi": 54,
      "hit": false,
      "t": 35133.56984166673,
      "d": 102.73975000000064,
      "v": 101
    },
    {
      "midi": 59,
      "hit": false,
      "t": 35133.569841666744,
      "d": 421.23297499995533,
      "v": 113
    },
    {
      "midi": 70,
      "hit": false,
      "t": 35136.994499999986,
      "d": 51.36987499999668,
      "v": 109
    },
    {
      "midi": 69,
      "hit": false,
      "t": 35136.994499999986,
      "d": 51.36987499999668,
      "v": 99
    },
    {
      "midi": 83,
      "hit": false,
      "t": 35136.99450000001,
      "d": 924.6577499999985,
      "v": 60
    },
    {
      "midi": 71,
      "hit": false,
      "t": 35136.99450000001,
      "d": 924.6577499999985,
      "v": 80
    },
    {
      "midi": 46,
      "hit": false,
      "t": 35136.994500000015,
      "d": 205.47950000000128,
      "v": 107
    },
    {
      "midi": 59,
      "hit": false,
      "t": 35136.99450000006,
      "d": 102.73975000000064,
      "v": 78
    },
    {
      "midi": 66,
      "hit": false,
      "t": 35136.99450000006,
      "d": 102.73975000000064,
      "v": 78
    },
    {
      "midi": 63,
      "hit": false,
      "t": 35136.99450000006,
      "d": 102.73975000000064,
      "v": 78
    },
    {
      "midi": 47,
      "hit": false,
      "t": 35236.30959166665,
      "d": 51.36987499999668,
      "v": 107
    },
    {
      "midi": 54,
      "hit": false,
      "t": 35236.30959166673,
      "d": 102.73975000000064,
      "v": 101
    },
    {
      "midi": 47,
      "hit": false,
      "t": 35236.30959166673,
      "d": 102.73975000000064,
      "v": 67
    },
    {
      "midi": 70,
      "hit": false,
      "t": 35239.73424999998,
      "d": 51.36987499999668,
      "v": 53
    },
    {
      "midi": 69,
      "hit": false,
      "t": 35239.73424999998,
      "d": 51.36987499999668,
      "v": 43
    },
    {
      "midi": 38,
      "hit": false,
      "t": 35239.73425,
      "d": 51.36987499999668,
      "v": 88
    },
    {
      "midi": 40,
      "hit": false,
      "t": 35239.73425,
      "d": 51.36987499999668,
      "v": 88
    },
    {
      "midi": 35,
      "hit": false,
      "t": 35339.04934166664,
      "d": 154.10962499999732,
      "v": 107
    },
    {
      "midi": 36,
      "hit": false,
      "t": 35342.473999999944,
      "d": 51.36987499999668,
      "v": 107
    },
    {
      "midi": 13,
      "hit": false,
      "t": 35342.473999999944,
      "d": 51.36987499999668,
      "v": 127
    },
    {
      "midi": 70,
      "hit": false,
      "t": 35342.47399999997,
      "d": 51.36987499999668,
      "v": 60
    },
    {
      "midi": 69,
      "hit": false,
      "t": 35342.47399999997,
      "d": 51.36987499999668,
      "v": 50
    },
    {
      "midi": 42,
      "hit": false,
      "t": 35342.47399999999,
      "d": 102.73975000000064,
      "v": 102
    },
    {
      "midi": 38,
      "hit": false,
      "t": 35342.473999999995,
      "d": 51.36987499999668,
      "v": 31
    },
    {
      "midi": 40,
      "hit": false,
      "t": 35342.473999999995,
      "d": 51.36987499999668,
      "v": 31
    },
    {
      "midi": 70,
      "hit": false,
      "t": 35445.213749999966,
      "d": 51.36987499999668,
      "v": 49
    },
    {
      "midi": 69,
      "hit": false,
      "t": 35445.213749999966,
      "d": 51.36987499999668,
      "v": 39
    },
    {
      "midi": 38,
      "hit": false,
      "t": 35445.21374999999,
      "d": 51.36987499999668,
      "v": 44
    },
    {
      "midi": 40,
      "hit": false,
      "t": 35445.21374999999,
      "d": 51.36987499999668,
      "v": 44
    },
    {
      "midi": 66,
      "hit": false,
      "t": 35445.21375000006,
      "d": 102.73975000000064,
      "v": 118
    },
    {
      "midi": 63,
      "hit": false,
      "t": 35445.21375000006,
      "d": 102.73975000000064,
      "v": 107
    },
    {
      "midi": 35,
      "hit": false,
      "t": 35544.52884166664,
      "d": 154.10962499999732,
      "v": 107
    },
    {
      "midi": 71,
      "hit": false,
      "t": 35544.5288416667,
      "d": 232.876766666639,
      "v": 124
    },
    {
      "midi": 47,
      "hit": false,
      "t": 35544.52884166673,
      "d": 410.95900000000256,
      "v": 101
    },
    {
      "midi": 54,
      "hit": false,
      "t": 35544.52884166673,
      "d": 410.95900000000256,
      "v": 121
    },
    {
      "midi": 36,
      "hit": false,
      "t": 35547.95349999994,
      "d": 51.36987499999668,
      "v": 107
    },
    {
      "midi": 13,
      "hit": false,
      "t": 35547.95349999994,
      "d": 51.36987499999668,
      "v": 127
    },
    {
      "midi": 70,
      "hit": false,
      "t": 35547.95349999996,
      "d": 51.36987499999668,
      "v": 109
    },
    {
      "midi": 69,
      "hit": false,
      "t": 35547.95349999996,
      "d": 51.36987499999668,
      "v": 99
    },
    {
      "midi": 38,
      "hit": false,
      "t": 35547.95349999998,
      "d": 51.36987499999668,
      "v": 58
    },
    {
      "midi": 40,
      "hit": false,
      "t": 35547.95349999998,
      "d": 51.36987499999668,
      "v": 58
    },
    {
      "midi": 46,
      "hit": false,
      "t": 35547.95350000002,
      "d": 102.73975000000064,
      "v": 107
    },
    {
      "midi": 59,
      "hit": false,
      "t": 35547.95350000006,
      "d": 205.47950000000128,
      "v": 112
    },
    {
      "midi": 70,
      "hit": false,
      "t": 35650.69324999995,
      "d": 51.36987499999668,
      "v": 53
    },
    {
      "midi": 69,
      "hit": false,
      "t": 35650.69324999995,
      "d": 51.36987499999668,
      "v": 43
    },
    {
      "midi": 38,
      "hit": false,
      "t": 35650.693249999975,
      "d": 51.36987499999668,
      "v": 71
    },
    {
      "midi": 40,
      "hit": false,
      "t": 35650.693249999975,
      "d": 51.36987499999668,
      "v": 71
    },
    {
      "midi": 35,
      "hit": false,
      "t": 35750.00834166663,
      "d": 154.10962499999732,
      "v": 107
    },
    {
      "midi": 69,
      "hit": false,
      "t": 35750.00834166668,
      "d": 198.6301833333273,
      "v": 116
    },
    {
      "midi": 109,
      "hit": false,
      "t": 35750.00834166668,
      "d": 51.36987499999668,
      "v": 127
    },
    {
      "midi": 36,
      "hit": false,
      "t": 35753.43299999993,
      "d": 51.36987499999668,
      "v": 107
    },
    {
      "midi": 13,
      "hit": false,
      "t": 35753.43299999993,
      "d": 51.36987499999668,
      "v": 127
    },
    {
      "midi": 70,
      "hit": false,
      "t": 35753.432999999946,
      "d": 51.36987499999668,
      "v": 60
    },
    {
      "midi": 69,
      "hit": false,
      "t": 35753.432999999946,
      "d": 51.36987499999668,
      "v": 50
    },
    {
      "midi": 38,
      "hit": false,
      "t": 35753.43299999997,
      "d": 51.36987499999668,
      "v": 85
    },
    {
      "midi": 40,
      "hit": false,
      "t": 35753.43299999997,
      "d": 51.36987499999668,
      "v": 86
    },
    {
      "midi": 42,
      "hit": false,
      "t": 35753.43299999999,
      "d": 102.73975000000064,
      "v": 107
    },
    {
      "midi": 66,
      "hit": false,
      "t": 35753.43300000006,
      "d": 102.73975000000064,
      "v": 118
    },
    {
      "midi": 63,
      "hit": false,
      "t": 35753.43300000006,
      "d": 102.73975000000064,
      "v": 112
    },
    {
      "midi": 70,
      "hit": false,
      "t": 35856.17274999994,
      "d": 51.36987499999668,
      "v": 49
    },
    {
      "midi": 69,
      "hit": false,
      "t": 35856.17274999994,
      "d": 51.36987499999668,
      "v": 39
    },
    {
      "midi": 38,
      "hit": false,
      "t": 35856.17274999996,
      "d": 51.36987499999668,
      "v": 98
    },
    {
      "midi": 40,
      "hit": false,
      "t": 35856.17274999996,
      "d": 51.36987499999668,
      "v": 99
    },
    {
      "midi": 35,
      "hit": false,
      "t": 35955.487841666625,
      "d": 154.10962499999732,
      "v": 107
    },
    {
      "midi": 71,
      "hit": false,
      "t": 35955.487841666676,
      "d": 195.20552499999758,
      "v": 123
    },
    {
      "midi": 109,
      "hit": false,
      "t": 35955.487841666676,
      "d": 51.36987499999668,
      "v": 127
    },
    {
      "midi": 36,
      "hit": false,
      "t": 35958.912499999926,
      "d": 51.36987499999668,
      "v": 107
    },
    {
      "midi": 13,
      "hit": false,
      "t": 35958.912499999926,
      "d": 51.36987499999668,
      "v": 127
    },
    {
      "midi": 70,
      "hit": false,
      "t": 35958.91249999993,
      "d": 51.36987499999668,
      "v": 109
    },
    {
      "midi": 69,
      "hit": false,
      "t": 35958.91249999993,
      "d": 51.36987499999668,
      "v": 99
    },
    {
      "midi": 38,
      "hit": false,
      "t": 35958.912499999955,
      "d": 51.36987499999668,
      "v": 112
    },
    {
      "midi": 40,
      "hit": false,
      "t": 35958.912499999955,
      "d": 51.36987499999668,
      "v": 113
    },
    {
      "midi": 46,
      "hit": false,
      "t": 35958.91250000002,
      "d": 102.73975000000064,
      "v": 107
    },
    {
      "midi": 70,
      "hit": false,
      "t": 36061.65224999993,
      "d": 51.36987499999668,
      "v": 53
    },
    {
      "midi": 69,
      "hit": false,
      "t": 36061.65224999993,
      "d": 51.36987499999668,
      "v": 43
    },
    {
      "midi": 38,
      "hit": false,
      "t": 36061.65224999995,
      "d": 51.36987499999668,
      "v": 127
    },
    {
      "midi": 40,
      "hit": false,
      "t": 36061.65224999995,
      "d": 51.36987499999668,
      "v": 127
    },
    {
      "midi": 40,
      "hit": false,
      "t": 36160.96734166662,
      "d": 154.10962499999732,
      "v": 107
    },
    {
      "midi": 69,
      "hit": false,
      "t": 36160.96734166666,
      "d": 616.4384999999093,
      "v": 124
    },
    {
      "midi": 64,
      "hit": false,
      "t": 36160.96734166666,
      "d": 616.4384999999093,
      "v": 124
    },
    {
      "midi": 69,
      "hit": false,
      "t": 36160.96734166667,
      "d": 613.0138416666523,
      "v": 118
    },
    {
      "midi": 59,
      "hit": false,
      "t": 36160.967341666736,
      "d": 205.47950000000128,
      "v": 71
    },
    {
      "midi": 64,
      "hit": false,
      "t": 36160.967341666736,
      "d": 356.1644666666689,
      "v": 95
    },
    {
      "midi": 36,
      "hit": false,
      "t": 36164.39199999992,
      "d": 51.36987499999668,
      "v": 107
    },
    {
      "midi": 13,
      "hit": false,
      "t": 36164.39199999992,
      "d": 51.36987499999668,
      "v": 127
    },
    {
      "midi": 70,
      "hit": false,
      "t": 36164.39199999992,
      "d": 51.36987499999668,
      "v": 60
    },
    {
      "midi": 69,
      "hit": false,
      "t": 36164.39199999992,
      "d": 51.36987499999668,
      "v": 50
    },
    {
      "midi": 38,
      "hit": false,
      "t": 36164.39199999994,
      "d": 51.36987499999668,
      "v": 88
    },
    {
      "midi": 40,
      "hit": false,
      "t": 36164.39199999994,
      "d": 51.36987499999668,
      "v": 88
    },
    {
      "midi": 59,
      "hit": false,
      "t": 36164.39199999999,
      "d": 613.0138416665795,
      "v": 124
    },
    {
      "midi": 42,
      "hit": false,
      "t": 36164.39199999999,
      "d": 102.73975000000064,
      "v": 107
    },
    {
      "midi": 49,
      "hit": false,
      "t": 36164.39199999999,
      "d": 51.36987499999668,
      "v": 84
    },
    {
      "midi": 59,
      "hit": false,
      "t": 36164.39200000003,
      "d": 1643.836000000003,
      "v": 80
    },
    {
      "midi": 67,
      "hit": false,
      "t": 36164.39200000003,
      "d": 1643.836000000003,
      "v": 80
    },
    {
      "midi": 64,
      "hit": false,
      "t": 36164.39200000005,
      "d": 171.23291666665318,
      "v": 91
    },
    {
      "midi": 59,
      "hit": false,
      "t": 36164.39200000005,
      "d": 171.23291666665318,
      "v": 72
    },
    {
      "midi": 70,
      "hit": false,
      "t": 36267.13174999991,
      "d": 51.36987499999668,
      "v": 49
    },
    {
      "midi": 69,
      "hit": false,
      "t": 36267.13174999991,
      "d": 51.36987499999668,
      "v": 39
    },
    {
      "midi": 52,
      "hit": false,
      "t": 36366.44684166661,
      "d": 51.36987499999668,
      "v": 107
    },
    {
      "midi": 59,
      "hit": false,
      "t": 36366.44684166674,
      "d": 102.73975000000064,
      "v": 42
    },
    {
      "midi": 52,
      "hit": false,
      "t": 36366.44684166674,
      "d": 102.73975000000064,
      "v": 42
    },
    {
      "midi": 70,
      "hit": false,
      "t": 36369.87149999991,
      "d": 51.36987499999668,
      "v": 109
    },
    {
      "midi": 69,
      "hit": false,
      "t": 36369.87149999991,
      "d": 51.36987499999668,
      "v": 99
    },
    {
      "midi": 46,
      "hit": false,
      "t": 36369.87150000002,
      "d": 102.73975000000064,
      "v": 107
    },
    {
      "midi": 67,
      "hit": false,
      "t": 36369.87150000004,
      "d": 102.73975000000064,
      "v": 53
    },
    {
      "midi": 64,
      "hit": false,
      "t": 36369.87150000004,
      "d": 102.73975000000064,
      "v": 53
    },
    {
      "midi": 52,
      "hit": false,
      "t": 36469.18659166661,
      "d": 51.36987499999668,
      "v": 107
    },
    {
      "midi": 52,
      "hit": false,
      "t": 36469.18659166674,
      "d": 102.73975000000064,
      "v": 78
    },
    {
      "midi": 59,
      "hit": false,
      "t": 36469.18659166674,
      "d": 102.73975000000064,
      "v": 78
    },
    {
      "midi": 70,
      "hit": false,
      "t": 36472.6112499999,
      "d": 51.36987499999668,
      "v": 53
    },
    {
      "midi": 69,
      "hit": false,
      "t": 36472.6112499999,
      "d": 51.36987499999668,
      "v": 43
    },
    {
      "midi": 67,
      "hit": false,
      "t": 36472.61125000004,
      "d": 102.73975000000064,
      "v": 98
    },
    {
      "midi": 64,
      "hit": false,
      "t": 36472.61125000004,
      "d": 102.73975000000064,
      "v": 112
    },
    {
      "midi": 40,
      "hit": false,
      "t": 36571.9263416666,
      "d": 154.10962499999732,
      "v": 107
    },
    {
      "midi": 109,
      "hit": false,
      "t": 36571.92634166667,
      "d": 51.36987499999668,
      "v": 127
    },
    {
      "midi": 52,
      "hit": false,
      "t": 36571.92634166674,
      "d": 102.73975000000064,
      "v": 41
    },
    {
      "midi": 59,
      "hit": false,
      "t": 36571.92634166674,
      "d": 102.73975000000064,
      "v": 41
    },
    {
      "midi": 70,
      "hit": false,
      "t": 36575.35099999989,
      "d": 51.36987499999668,
      "v": 60
    },
    {
      "midi": 69,
      "hit": false,
      "t": 36575.35099999989,
      "d": 51.36987499999668,
      "v": 50
    },
    {
      "midi": 36,
      "hit": false,
      "t": 36575.350999999915,
      "d": 51.36987499999668,
      "v": 107
    },
    {
      "midi": 13,
      "hit": false,
      "t": 36575.350999999915,
      "d": 51.36987499999668,
      "v": 127
    },
    {
      "midi": 38,
      "hit": false,
      "t": 36575.35099999994,
      "d": 51.36987499999668,
      "v": 63
    },
    {
      "midi": 40,
      "hit": false,
      "t": 36575.35099999994,
      "d": 51.36987499999668,
      "v": 64
    },
    {
      "midi": 42,
      "hit": false,
      "t": 36575.350999999995,
      "d": 102.73975000000064,
      "v": 107
    },
    {
      "midi": 71,
      "hit": false,
      "t": 36575.35100000001,
      "d": 308.2192500000019,
      "v": 80
    },
    {
      "midi": 70,
      "hit": false,
      "t": 36678.09074999989,
      "d": 51.36987499999668,
      "v": 49
    },
    {
      "midi": 69,
      "hit": false,
      "t": 36678.09074999989,
      "d": 51.36987499999668,
      "v": 39
    },
    {
      "midi": 62,
      "hit": false,
      "t": 36777.40584166657,
      "d": 1027.3974999999336,
      "v": 114
    },
    {
      "midi": 67,
      "hit": false,
      "t": 36777.40584166657,
      "d": 1027.3974999999336,
      "v": 114
    },
    {
      "midi": 59,
      "hit": false,
      "t": 36777.40584166657,
      "d": 1027.3974999999336,
      "v": 114
    },
    {
      "midi": 40,
      "hit": false,
      "t": 36777.405841666594,
      "d": 154.10962499999732,
      "v": 107
    },
    {
      "midi": 67,
      "hit": false,
      "t": 36777.40584166665,
      "d": 421.2329749999917,
      "v": 110
    },
    {
      "midi": 59,
      "hit": false,
      "t": 36777.40584166674,
      "d": 205.47950000000128,
      "v": 85
    },
    {
      "midi": 64,
      "hit": false,
      "t": 36777.40584166674,
      "d": 308.2192500000019,
      "v": 78
    },
    {
      "midi": 70,
      "hit": false,
      "t": 36780.83049999988,
      "d": 51.36987499999668,
      "v": 109
    },
    {
      "midi": 69,
      "hit": false,
      "t": 36780.83049999988,
      "d": 51.36987499999668,
      "v": 99
    },
    {
      "midi": 46,
      "hit": false,
      "t": 36780.830500000025,
      "d": 205.47950000000128,
      "v": 107
    },
    {
      "midi": 70,
      "hit": false,
      "t": 36883.57024999987,
      "d": 51.36987499999668,
      "v": 53
    },
    {
      "midi": 69,
      "hit": false,
      "t": 36883.57024999987,
      "d": 51.36987499999668,
      "v": 43
    },
    {
      "midi": 38,
      "hit": false,
      "t": 36883.57024999993,
      "d": 51.36987499999668,
      "v": 88
    },
    {
      "midi": 40,
      "hit": false,
      "t": 36883.57024999993,
      "d": 51.36987499999668,
      "v": 88
    },
    {
      "midi": 40,
      "hit": false,
      "t": 36982.88534166659,
      "d": 154.10962499999732,
      "v": 107
    },
    {
      "midi": 59,
      "hit": false,
      "t": 36982.88534166674,
      "d": 102.73975000000064,
      "v": 78
    },
    {
      "midi": 52,
      "hit": false,
      "t": 36982.88534166674,
      "d": 102.73975000000064,
      "v": 78
    },
    {
      "midi": 70,
      "hit": false,
      "t": 36986.30999999987,
      "d": 51.36987499999668,
      "v": 60
    },
    {
      "midi": 69,
      "hit": false,
      "t": 36986.30999999987,
      "d": 51.36987499999668,
      "v": 50
    },
    {
      "midi": 36,
      "hit": false,
      "t": 36986.30999999991,
      "d": 51.36987499999668,
      "v": 107
    },
    {
      "midi": 13,
      "hit": false,
      "t": 36986.30999999991,
      "d": 51.36987499999668,
      "v": 127
    },
    {
      "midi": 42,
      "hit": false,
      "t": 36986.31,
      "d": 102.73975000000064,
      "v": 102
    },
    {
      "midi": 76,
      "hit": false,
      "t": 36986.31000000001,
      "d": 308.2192500000019,
      "v": 80
    },
    {
      "midi": 70,
      "hit": false,
      "t": 37089.04974999986,
      "d": 51.36987499999668,
      "v": 49
    },
    {
      "midi": 69,
      "hit": false,
      "t": 37089.04974999986,
      "d": 51.36987499999668,
      "v": 39
    },
    {
      "midi": 38,
      "hit": false,
      "t": 37089.049749999926,
      "d": 51.36987499999668,
      "v": 69
    },
    {
      "midi": 40,
      "hit": false,
      "t": 37089.049749999926,
      "d": 51.36987499999668,
      "v": 69
    },
    {
      "midi": 40,
      "hit": false,
      "t": 37188.36484166658,
      "d": 154.10962499999732,
      "v": 107
    },
    {
      "midi": 69,
      "hit": false,
      "t": 37188.36484166665,
      "d": 606.1645249999492,
      "v": 126
    },
    {
      "midi": 59,
      "hit": false,
      "t": 37188.36484166674,
      "d": 102.73975000000064,
      "v": 78
    },
    {
      "midi": 52,
      "hit": false,
      "t": 37188.36484166674,
      "d": 102.73975000000064,
      "v": 78
    },
    {
      "midi": 70,
      "hit": false,
      "t": 37191.78949999985,
      "d": 51.36987499999668,
      "v": 109
    },
    {
      "midi": 69,
      "hit": false,
      "t": 37191.78949999985,
      "d": 51.36987499999668,
      "v": 99
    },
    {
      "midi": 46,
      "hit": false,
      "t": 37191.78950000003,
      "d": 102.73975000000064,
      "v": 107
    },
    {
      "midi": 59,
      "hit": false,
      "t": 37191.789500000035,
      "d": 205.47950000000128,
      "v": 81
    },
    {
      "midi": 70,
      "hit": false,
      "t": 37294.52924999985,
      "d": 51.36987499999668,
      "v": 53
    },
    {
      "midi": 69,
      "hit": false,
      "t": 37294.52924999985,
      "d": 51.36987499999668,
      "v": 43
    },
    {
      "midi": 40,
      "hit": false,
      "t": 37393.844341666576,
      "d": 154.10962499999732,
      "v": 107
    },
    {
      "midi": 109,
      "hit": false,
      "t": 37393.84434166667,
      "d": 51.36987499999668,
      "v": 127
    },
    {
      "midi": 59,
      "hit": false,
      "t": 37393.84434166674,
      "d": 205.47950000000128,
      "v": 88
    },
    {
      "midi": 64,
      "hit": false,
      "t": 37393.84434166674,
      "d": 397.26036666666914,
      "v": 88
    },
    {
      "midi": 70,
      "hit": false,
      "t": 37397.26899999984,
      "d": 51.36987499999668,
      "v": 60
    },
    {
      "midi": 69,
      "hit": false,
      "t": 37397.26899999984,
      "d": 51.36987499999668,
      "v": 50
    },
    {
      "midi": 36,
      "hit": false,
      "t": 37397.268999999906,
      "d": 51.36987499999668,
      "v": 107
    },
    {
      "midi": 13,
      "hit": false,
      "t": 37397.268999999906,
      "d": 51.36987499999668,
      "v": 127
    },
    {
      "midi": 38,
      "hit": false,
      "t": 37397.26899999992,
      "d": 51.36987499999668,
      "v": 88
    },
    {
      "midi": 40,
      "hit": false,
      "t": 37397.26899999992,
      "d": 51.36987499999668,
      "v": 88
    },
    {
      "midi": 42,
      "hit": false,
      "t": 37397.269,
      "d": 102.73975000000064,
      "v": 107
    },
    {
      "midi": 79,
      "hit": false,
      "t": 37397.269000000015,
      "d": 308.2192500000019,
      "v": 80
    },
    {
      "midi": 62,
      "hit": false,
      "t": 37397.26900000004,
      "d": 102.73975000000064,
      "v": 107
    },
    {
      "midi": 70,
      "hit": false,
      "t": 37500.00874999983,
      "d": 51.36987499999668,
      "v": 49
    },
    {
      "midi": 69,
      "hit": false,
      "t": 37500.00874999983,
      "d": 51.36987499999668,
      "v": 39
    },
    {
      "midi": 40,
      "hit": false,
      "t": 37599.32384166657,
      "d": 154.10962499999732,
      "v": 107
    },
    {
      "midi": 59,
      "hit": false,
      "t": 37599.323841666745,
      "d": 102.73975000000064,
      "v": 55
    },
    {
      "midi": 52,
      "hit": false,
      "t": 37599.323841666745,
      "d": 102.73975000000064,
      "v": 55
    },
    {
      "midi": 70,
      "hit": false,
      "t": 37602.74849999983,
      "d": 51.36987499999668,
      "v": 109
    },
    {
      "midi": 69,
      "hit": false,
      "t": 37602.74849999983,
      "d": 51.36987499999668,
      "v": 99
    },
    {
      "midi": 38,
      "hit": false,
      "t": 37602.748499999914,
      "d": 51.36987499999668,
      "v": 68
    },
    {
      "midi": 40,
      "hit": false,
      "t": 37602.748499999914,
      "d": 51.36987499999668,
      "v": 68
    },
    {
      "midi": 46,
      "hit": false,
      "t": 37602.74850000003,
      "d": 102.73975000000064,
      "v": 107
    },
    {
      "midi": 59,
      "hit": false,
      "t": 37602.74850000004,
      "d": 102.73975000000064,
      "v": 46
    },
    {
      "midi": 70,
      "hit": false,
      "t": 37705.48824999982,
      "d": 51.36987499999668,
      "v": 53
    },
    {
      "midi": 69,
      "hit": false,
      "t": 37705.48824999982,
      "d": 51.36987499999668,
      "v": 43
    },
    {
      "midi": 38,
      "hit": false,
      "t": 37705.48824999991,
      "d": 51.36987499999668,
      "v": 52
    },
    {
      "midi": 40,
      "hit": false,
      "t": 37705.48824999991,
      "d": 51.36987499999668,
      "v": 52
    },
    {
      "midi": 61,
      "hit": false,
      "t": 37804.803341666506,
      "d": 1541.0962499998714,
      "v": 98
    },
    {
      "midi": 67,
      "hit": false,
      "t": 37804.803341666506,
      "d": 1541.0962499998714,
      "v": 98
    },
    {
      "midi": 33,
      "hit": false,
      "t": 37804.803341666564,
      "d": 154.10962499999732,
      "v": 107
    },
    {
      "midi": 57,
      "hit": false,
      "t": 37804.803341666746,
      "d": 205.47950000000128,
      "v": 85
    },
    {
      "midi": 64,
      "hit": false,
      "t": 37804.803341666746,
      "d": 356.1644666666689,
      "v": 75
    },
    {
      "midi": 70,
      "hit": false,
      "t": 37808.22799999981,
      "d": 51.36987499999668,
      "v": 60
    },
    {
      "midi": 69,
      "hit": false,
      "t": 37808.22799999981,
      "d": 51.36987499999668,
      "v": 50
    },
    {
      "midi": 36,
      "hit": false,
      "t": 37808.2279999999,
      "d": 51.36987499999668,
      "v": 107
    },
    {
      "midi": 13,
      "hit": false,
      "t": 37808.2279999999,
      "d": 51.36987499999668,
      "v": 127
    },
    {
      "midi": 38,
      "hit": false,
      "t": 37808.2279999999,
      "d": 51.36987499999668,
      "v": 63
    },
    {
      "midi": 40,
      "hit": false,
      "t": 37808.2279999999,
      "d": 51.36987499999668,
      "v": 63
    },
    {
      "midi": 42,
      "hit": false,
      "t": 37808.228,
      "d": 102.73975000000064,
      "v": 107
    },
    {
      "midi": 57,
      "hit": false,
      "t": 37808.22800000002,
      "d": 205.47949999998673,
      "v": 93
    },
    {
      "midi": 61,
      "hit": false,
      "t": 37808.22800000002,
      "d": 205.47949999998673,
      "v": 93
    },
    {
      "midi": 78,
      "hit": false,
      "t": 37808.22800000002,
      "d": 513.6987500000032,
      "v": 80
    },
    {
      "midi": 64,
      "hit": false,
      "t": 37808.22800000003,
      "d": 102.73975000000064,
      "v": 80
    },
    {
      "midi": 57,
      "hit": false,
      "t": 37808.22800000003,
      "d": 1643.836000000003,
      "v": 80
    },
    {
      "midi": 61,
      "hit": false,
      "t": 37808.22800000003,
      "d": 1643.836000000003,
      "v": 80
    },
    {
      "midi": 67,
      "hit": false,
      "t": 37808.22800000003,
      "d": 1643.836000000003,
      "v": 80
    },
    {
      "midi": 70,
      "hit": false,
      "t": 37910.96774999981,
      "d": 51.36987499999668,
      "v": 49
    },
    {
      "midi": 69,
      "hit": false,
      "t": 37910.96774999981,
      "d": 51.36987499999668,
      "v": 39
    },
    {
      "midi": 45,
      "hit": false,
      "t": 38010.28284166656,
      "d": 51.36987499999668,
      "v": 107
    },
    {
      "midi": 52,
      "hit": false,
      "t": 38010.28284166675,
      "d": 102.73975000000064,
      "v": 45
    },
    {
      "midi": 57,
      "hit": false,
      "t": 38010.28284166675,
      "d": 102.73975000000064,
      "v": 45
    },
    {
      "midi": 70,
      "hit": false,
      "t": 38013.7074999998,
      "d": 51.36987499999668,
      "v": 109
    },
    {
      "midi": 69,
      "hit": false,
      "t": 38013.7074999998,
      "d": 51.36987499999668,
      "v": 99
    },
    {
      "midi": 69,
      "hit": false,
      "t": 38013.707500000004,
      "d": 102.73975000000064,
      "v": 54
    },
    {
      "midi": 64,
      "hit": false,
      "t": 38013.707500000004,
      "d": 102.73975000000064,
      "v": 54
    },
    {
      "midi": 46,
      "hit": false,
      "t": 38013.70750000003,
      "d": 102.73975000000064,
      "v": 107
    },
    {
      "midi": 45,
      "hit": false,
      "t": 38113.02259166655,
      "d": 51.36987499999668,
      "v": 107
    },
    {
      "midi": 57,
      "hit": false,
      "t": 38113.02259166675,
      "d": 102.73975000000064,
      "v": 78
    },
    {
      "midi": 52,
      "hit": false,
      "t": 38113.02259166675,
      "d": 102.73975000000064,
      "v": 78
    },
    {
      "midi": 70,
      "hit": false,
      "t": 38116.447249999794,
      "d": 51.36987499999668,
      "v": 53
    },
    {
      "midi": 69,
      "hit": false,
      "t": 38116.447249999794,
      "d": 51.36987499999668,
      "v": 43
    },
    {
      "midi": 69,
      "hit": false,
      "t": 38116.447250000005,
      "d": 102.73975000000064,
      "v": 111
    },
    {
      "midi": 64,
      "hit": false,
      "t": 38116.447250000005,
      "d": 102.73975000000064,
      "v": 111
    },
    {
      "midi": 33,
      "hit": false,
      "t": 38215.762341666545,
      "d": 154.10962499999732,
      "v": 107
    },
    {
      "midi": 109,
      "hit": false,
      "t": 38215.76234166667,
      "d": 51.36987499999668,
      "v": 127
    },
    {
      "midi": 57,
      "hit": false,
      "t": 38215.76234166675,
      "d": 102.73975000000064,
      "v": 45
    },
    {
      "midi": 52,
      "hit": false,
      "t": 38215.76234166675,
      "d": 102.73975000000064,
      "v": 45
    },
    {
      "midi": 70,
      "hit": false,
      "t": 38219.18699999979,
      "d": 51.36987499999668,
      "v": 60
    },
    {
      "midi": 69,
      "hit": false,
      "t": 38219.18699999979,
      "d": 51.36987499999668,
      "v": 50
    },
    {
      "midi": 36,
      "hit": false,
      "t": 38219.186999999896,
      "d": 51.36987499999668,
      "v": 107
    },
    {
      "midi": 13,
      "hit": false,
      "t": 38219.186999999896,
      "d": 51.36987499999668,
      "v": 127
    },
    {
      "midi": 38,
      "hit": false,
      "t": 38219.186999999896,
      "d": 51.36987499999668,
      "v": 88
    },
    {
      "midi": 40,
      "hit": false,
      "t": 38219.186999999896,
      "d": 51.36987499999668,
      "v": 88
    },
    {
      "midi": 42,
      "hit": false,
      "t": 38219.187000000005,
      "d": 102.73975000000064,
      "v": 107
    },
    {
      "midi": 70,
      "hit": false,
      "t": 38321.92674999978,
      "d": 51.36987499999668,
      "v": 49
    },
    {
      "midi": 69,
      "hit": false,
      "t": 38321.92674999978,
      "d": 51.36987499999668,
      "v": 39
    },
    {
      "midi": 33,
      "hit": false,
      "t": 38421.24184166654,
      "d": 154.10962499999732,
      "v": 107
    },
    {
      "midi": 57,
      "hit": false,
      "t": 38421.24184166657,
      "d": 410.95899999998073,
      "v": 104
    },
    {
      "midi": 57,
      "hit": false,
      "t": 38421.24184166675,
      "d": 205.47950000000128,
      "v": 85
    },
    {
      "midi": 64,
      "hit": false,
      "t": 38421.24184166675,
      "d": 205.47950000000128,
      "v": 90
    },
    {
      "midi": 70,
      "hit": false,
      "t": 38424.666499999774,
      "d": 51.36987499999668,
      "v": 109
    },
    {
      "midi": 69,
      "hit": false,
      "t": 38424.666499999774,
      "d": 51.36987499999668,
      "v": 99
    },
    {
      "midi": 76,
      "hit": false,
      "t": 38424.66650000002,
      "d": 924.6577499999985,
      "v": 80
    },
    {
      "midi": 46,
      "hit": false,
      "t": 38424.666500000036,
      "d": 205.47950000000128,
      "v": 107
    },
    {
      "midi": 70,
      "hit": false,
      "t": 38527.40624999977,
      "d": 51.36987499999668,
      "v": 53
    },
    {
      "midi": 69,
      "hit": false,
      "t": 38527.40624999977,
      "d": 51.36987499999668,
      "v": 43
    },
    {
      "midi": 38,
      "hit": false,
      "t": 38527.40624999989,
      "d": 51.36987499999668,
      "v": 88
    },
    {
      "midi": 40,
      "hit": false,
      "t": 38527.40624999989,
      "d": 51.36987499999668,
      "v": 88
    },
    {
      "midi": 33,
      "hit": false,
      "t": 38626.72134166653,
      "d": 154.10962499999732,
      "v": 107
    },
    {
      "midi": 57,
      "hit": false,
      "t": 38626.72134166675,
      "d": 102.73975000000064,
      "v": 78
    },
    {
      "midi": 52,
      "hit": false,
      "t": 38626.72134166675,
      "d": 102.73975000000064,
      "v": 78
    },
    {
      "midi": 70,
      "hit": false,
      "t": 38630.14599999976,
      "d": 51.36987499999668,
      "v": 60
    },
    {
      "midi": 69,
      "hit": false,
      "t": 38630.14599999976,
      "d": 51.36987499999668,
      "v": 50
    },
    {
      "midi": 36,
      "hit": false,
      "t": 38630.14599999989,
      "d": 51.36987499999668,
      "v": 107
    },
    {
      "midi": 13,
      "hit": false,
      "t": 38630.14599999989,
      "d": 51.36987499999668,
      "v": 127
    },
    {
      "midi": 42,
      "hit": false,
      "t": 38630.14600000001,
      "d": 102.73975000000064,
      "v": 102
    },
    {
      "midi": 70,
      "hit": false,
      "t": 38732.885749999754,
      "d": 51.36987499999668,
      "v": 49
    },
    {
      "midi": 69,
      "hit": false,
      "t": 38732.885749999754,
      "d": 51.36987499999668,
      "v": 39
    },
    {
      "midi": 38,
      "hit": false,
      "t": 38732.885749999885,
      "d": 51.36987499999668,
      "v": 69
    },
    {
      "midi": 40,
      "hit": false,
      "t": 38732.885749999885,
      "d": 51.36987499999668,
      "v": 69
    },
    {
      "midi": 33,
      "hit": false,
      "t": 38832.20084166653,
      "d": 154.10962499999732,
      "v": 107
    },
    {
      "midi": 69,
      "hit": false,
      "t": 38832.20084166655,
      "d": 229.4521083333093,
      "v": 113
    },
    {
      "midi": 57,
      "hit": false,
      "t": 38832.20084166675,
      "d": 102.73975000000064,
      "v": 78
    },
    {
      "midi": 52,
      "hit": false,
      "t": 38832.20084166675,
      "d": 102.73975000000064,
      "v": 78
    },
    {
      "midi": 70,
      "hit": false,
      "t": 38835.62549999975,
      "d": 51.36987499999668,
      "v": 109
    },
    {
      "midi": 69,
      "hit": false,
      "t": 38835.62549999975,
      "d": 51.36987499999668,
      "v": 99
    },
    {
      "midi": 57,
      "hit": false,
      "t": 38835.6255,
      "d": 205.47950000000128,
      "v": 70
    },
    {
      "midi": 46,
      "hit": false,
      "t": 38835.62550000004,
      "d": 102.73975000000064,
      "v": 107
    },
    {
      "midi": 70,
      "hit": false,
      "t": 38938.36524999974,
      "d": 51.36987499999668,
      "v": 53
    },
    {
      "midi": 69,
      "hit": false,
      "t": 38938.36524999974,
      "d": 51.36987499999668,
      "v": 43
    },
    {
      "midi": 33,
      "hit": false,
      "t": 39037.68034166652,
      "d": 154.10962499999732,
      "v": 107
    },
    {
      "midi": 67,
      "hit": false,
      "t": 39037.680341666535,
      "d": 215.75347499997588,
      "v": 106
    },
    {
      "midi": 109,
      "hit": false,
      "t": 39037.680341666666,
      "d": 51.36987499999668,
      "v": 127
    },
    {
      "midi": 57,
      "hit": false,
      "t": 39037.68034166675,
      "d": 205.47950000000128,
      "v": 78
    },
    {
      "midi": 64,
      "hit": false,
      "t": 39037.68034166675,
      "d": 205.47950000000128,
      "v": 90
    },
    {
      "midi": 70,
      "hit": false,
      "t": 39041.104999999734,
      "d": 51.36987499999668,
      "v": 60
    },
    {
      "midi": 69,
      "hit": false,
      "t": 39041.104999999734,
      "d": 51.36987499999668,
      "v": 50
    },
    {
      "midi": 38,
      "hit": false,
      "t": 39041.10499999988,
      "d": 51.36987499999668,
      "v": 88
    },
    {
      "midi": 40,
      "hit": false,
      "t": 39041.10499999988,
      "d": 51.36987499999668,
      "v": 88
    },
    {
      "midi": 36,
      "hit": false,
      "t": 39041.10499999989,
      "d": 51.36987499999668,
      "v": 107
    },
    {
      "midi": 13,
      "hit": false,
      "t": 39041.10499999989,
      "d": 51.36987499999668,
      "v": 127
    },
    {
      "midi": 64,
      "hit": false,
      "t": 39041.105,
      "d": 102.73975000000064,
      "v": 89
    },
    {
      "midi": 61,
      "hit": false,
      "t": 39041.105,
      "d": 102.73975000000064,
      "v": 89
    },
    {
      "midi": 42,
      "hit": false,
      "t": 39041.10500000001,
      "d": 102.73975000000064,
      "v": 107
    },
    {
      "midi": 70,
      "hit": false,
      "t": 39143.84474999973,
      "d": 51.36987499999668,
      "v": 49
    },
    {
      "midi": 69,
      "hit": false,
      "t": 39143.84474999973,
      "d": 51.36987499999668,
      "v": 39
    },
    {
      "midi": 33,
      "hit": false,
      "t": 39243.159841666515,
      "d": 154.10962499999732,
      "v": 107
    },
    {
      "midi": 69,
      "hit": false,
      "t": 39243.159841666515,
      "d": 202.054841666657,
      "v": 115
    },
    {
      "midi": 57,
      "hit": false,
      "t": 39243.159841666755,
      "d": 102.73975000000064,
      "v": 65
    },
    {
      "midi": 52,
      "hit": false,
      "t": 39243.159841666755,
      "d": 102.73975000000064,
      "v": 65
    },
    {
      "midi": 70,
      "hit": false,
      "t": 39246.58449999972,
      "d": 51.36987499999668,
      "v": 109
    },
    {
      "midi": 69,
      "hit": false,
      "t": 39246.58449999972,
      "d": 51.36987499999668,
      "v": 99
    },
    {
      "midi": 38,
      "hit": false,
      "t": 39246.58449999987,
      "d": 51.36987499999668,
      "v": 68
    },
    {
      "midi": 40,
      "hit": false,
      "t": 39246.58449999987,
      "d": 51.36987499999668,
      "v": 68
    },
    {
      "midi": 36,
      "hit": false,
      "t": 39246.58449999988,
      "d": 51.36987499999668,
      "v": 107
    },
    {
      "midi": 13,
      "hit": false,
      "t": 39246.58449999988,
      "d": 51.36987499999668,
      "v": 127
    },
    {
      "midi": 57,
      "hit": false,
      "t": 39246.584500000004,
      "d": 102.73975000000064,
      "v": 47
    },
    {
      "midi": 46,
      "hit": false,
      "t": 39246.58450000004,
      "d": 102.73975000000064,
      "v": 107
    },
    {
      "midi": 70,
      "hit": false,
      "t": 39349.324249999714,
      "d": 51.36987499999668,
      "v": 53
    },
    {
      "midi": 69,
      "hit": false,
      "t": 39349.324249999714,
      "d": 51.36987499999668,
      "v": 43
    },
    {
      "midi": 38,
      "hit": false,
      "t": 39349.32424999987,
      "d": 51.36987499999668,
      "v": 52
    },
    {
      "midi": 40,
      "hit": false,
      "t": 39349.32424999987,
      "d": 51.36987499999668,
      "v": 52
    },
    {
      "midi": 69,
      "hit": false,
      "t": 39448.639341666356,
      "d": 616.4384999999238,
      "v": 125
    },
    {
      "midi": 62,
      "hit": false,
      "t": 39448.639341666356,
      "d": 616.4384999999238,
      "v": 125
    },
    {
      "midi": 67,
      "hit": false,
      "t": 39448.639341666356,
      "d": 616.4384999999238,
      "v": 125
    },
    {
      "midi": 67,
      "hit": false,
      "t": 39448.6393416665,
      "d": 616.438499999982,
      "v": 107
    },
    {
      "midi": 38,
      "hit": false,
      "t": 39448.63934166651,
      "d": 154.10962499999732,
      "v": 107
    },
    {
      "midi": 57,
      "hit": false,
      "t": 39448.639341666756,
      "d": 205.47950000000128,
      "v": 90
    },
    {
      "midi": 62,
      "hit": false,
      "t": 39448.639341666756,
      "d": 308.2192500000019,
      "v": 101
    },
    {
      "midi": 70,
      "hit": false,
      "t": 39452.06399999971,
      "d": 51.36987499999668,
      "v": 60
    },
    {
      "midi": 69,
      "hit": false,
      "t": 39452.06399999971,
      "d": 51.36987499999668,
      "v": 50
    },
    {
      "midi": 38,
      "hit": false,
      "t": 39452.06399999986,
      "d": 51.36987499999668,
      "v": 63
    },
    {
      "midi": 40,
      "hit": false,
      "t": 39452.06399999986,
      "d": 51.36987499999668,
      "v": 64
    },
    {
      "midi": 36,
      "hit": false,
      "t": 39452.063999999875,
      "d": 51.36987499999668,
      "v": 107
    },
    {
      "midi": 13,
      "hit": false,
      "t": 39452.063999999875,
      "d": 51.36987499999668,
      "v": 127
    },
    {
      "midi": 62,
      "hit": false,
      "t": 39452.064,
      "d": 205.47949999998673,
      "v": 91
    },
    {
      "midi": 59,
      "hit": false,
      "t": 39452.064,
      "d": 205.47949999998673,
      "v": 81
    },
    {
      "midi": 42,
      "hit": false,
      "t": 39452.06400000001,
      "d": 102.73975000000064,
      "v": 107
    },
    {
      "midi": 66,
      "hit": false,
      "t": 39452.064000000035,
      "d": 1643.836000000003,
      "v": 80
    },
    {
      "midi": 57,
      "hit": false,
      "t": 39452.064000000035,
      "d": 1643.836000000003,
      "v": 80
    },
    {
      "midi": 62,
      "hit": false,
      "t": 39452.064000000035,
      "d": 1643.836000000003,
      "v": 80
    },
    {
      "midi": 70,
      "hit": false,
      "t": 39554.8037499997,
      "d": 51.36987499999668,
      "v": 49
    },
    {
      "midi": 69,
      "hit": false,
      "t": 39554.8037499997,
      "d": 51.36987499999668,
      "v": 39
    },
    {
      "midi": 50,
      "hit": false,
      "t": 39654.1188416665,
      "d": 51.36987499999668,
      "v": 107
    },
    {
      "midi": 50,
      "hit": false,
      "t": 39654.11884166676,
      "d": 102.73975000000064,
      "v": 45
    },
    {
      "midi": 57,
      "hit": false,
      "t": 39654.11884166676,
      "d": 102.73975000000064,
      "v": 45
    },
    {
      "midi": 70,
      "hit": false,
      "t": 39657.543499999694,
      "d": 51.36987499999668,
      "v": 109
    },
    {
      "midi": 69,
      "hit": false,
      "t": 39657.543499999694,
      "d": 51.36987499999668,
      "v": 99
    },
    {
      "midi": 66,
      "hit": false,
      "t": 39657.543499999985,
      "d": 102.73975000000064,
      "v": 49
    },
    {
      "midi": 69,
      "hit": false,
      "t": 39657.543499999985,
      "d": 102.73975000000064,
      "v": 49
    },
    {
      "midi": 62,
      "hit": false,
      "t": 39657.543499999985,
      "d": 102.73975000000064,
      "v": 49
    },
    {
      "midi": 46,
      "hit": false,
      "t": 39657.54350000004,
      "d": 102.73975000000064,
      "v": 107
    },
    {
      "midi": 50,
      "hit": false,
      "t": 39756.858591666496,
      "d": 51.36987499999668,
      "v": 107
    },
    {
      "midi": 50,
      "hit": false,
      "t": 39756.85859166676,
      "d": 102.73975000000064,
      "v": 78
    },
    {
      "midi": 57,
      "hit": false,
      "t": 39756.85859166676,
      "d": 102.73975000000064,
      "v": 78
    },
    {
      "midi": 70,
      "hit": false,
      "t": 39760.28324999969,
      "d": 51.36987499999668,
      "v": 53
    },
    {
      "midi": 69,
      "hit": false,
      "t": 39760.28324999969,
      "d": 51.36987499999668,
      "v": 43
    },
    {
      "midi": 62,
      "hit": false,
      "t": 39760.283249999986,
      "d": 102.73975000000064,
      "v": 86
    },
    {
      "midi": 69,
      "hit": false,
      "t": 39760.283249999986,
      "d": 102.73975000000064,
      "v": 86
    },
    {
      "midi": 66,
      "hit": false,
      "t": 39760.283249999986,
      "d": 102.73975000000064,
      "v": 86
    },
    {
      "midi": 38,
      "hit": false,
      "t": 39859.59834166649,
      "d": 154.10962499999732,
      "v": 107
    },
    {
      "midi": 109,
      "hit": false,
      "t": 39859.598341666664,
      "d": 51.36987499999668,
      "v": 127
    },
    {
      "midi": 57,
      "hit": false,
      "t": 39859.59834166676,
      "d": 102.73975000000064,
      "v": 45
    },
    {
      "midi": 50,
      "hit": false,
      "t": 39859.59834166676,
      "d": 102.73975000000064,
      "v": 45
    },
    {
      "midi": 70,
      "hit": false,
      "t": 39863.02299999968,
      "d": 51.36987499999668,
      "v": 60
    },
    {
      "midi": 69,
      "hit": false,
      "t": 39863.02299999968,
      "d": 51.36987499999668,
      "v": 50
    },
    {
      "midi": 38,
      "hit": false,
      "t": 39863.022999999856,
      "d": 51.36987499999668,
      "v": 88
    },
    {
      "midi": 40,
      "hit": false,
      "t": 39863.022999999856,
      "d": 51.36987499999668,
      "v": 88
    },
    {
      "midi": 36,
      "hit": false,
      "t": 39863.02299999987,
      "d": 51.36987499999668,
      "v": 107
    },
    {
      "midi": 13,
      "hit": false,
      "t": 39863.02299999987,
      "d": 51.36987499999668,
      "v": 127
    },
    {
      "midi": 42,
      "hit": false,
      "t": 39863.023000000016,
      "d": 102.73975000000064,
      "v": 107
    },
    {
      "midi": 69,
      "hit": false,
      "t": 39863.02300000002,
      "d": 308.2192500000019,
      "v": 80
    },
    {
      "midi": 70,
      "hit": false,
      "t": 39965.762749999674,
      "d": 51.36987499999668,
      "v": 49
    },
    {
      "midi": 69,
      "hit": false,
      "t": 39965.762749999674,
      "d": 51.36987499999668,
      "v": 39
    },
    {
      "midi": 62,
      "hit": false,
      "t": 40065.07784166628,
      "d": 1027.397499999919,
      "v": 109
    },
    {
      "midi": 69,
      "hit": false,
      "t": 40065.07784166628,
      "d": 1027.397499999919,
      "v": 109
    },
    {
      "midi": 66,
      "hit": false,
      "t": 40065.07784166628,
      "d": 1027.397499999919,
      "v": 109
    },
    {
      "midi": 38,
      "hit": false,
      "t": 40065.07784166648,
      "d": 154.10962499999732,
      "v": 107
    },
    {
      "midi": 66,
      "hit": false,
      "t": 40065.07784166648,
      "d": 421.23297499998444,
      "v": 106
    },
    {
      "midi": 57,
      "hit": false,
      "t": 40065.07784166676,
      "d": 410.95900000000256,
      "v": 101
    },
    {
      "midi": 62,
      "hit": false,
      "t": 40065.07784166676,
      "d": 410.95900000000256,
      "v": 95
    },
    {
      "midi": 70,
      "hit": false,
      "t": 40068.50249999967,
      "d": 51.36987499999668,
      "v": 109
    },
    {
      "midi": 69,
      "hit": false,
      "t": 40068.50249999967,
      "d": 51.36987499999668,
      "v": 99
    },
    {
      "midi": 66,
      "hit": false,
      "t": 40068.50249999999,
      "d": 205.47950000000128,
      "v": 90
    },
    {
      "midi": 69,
      "hit": false,
      "t": 40068.50249999999,
      "d": 205.47950000000128,
      "v": 90
    },
    {
      "midi": 62,
      "hit": false,
      "t": 40068.50249999999,
      "d": 205.47950000000128,
      "v": 90
    },
    {
      "midi": 46,
      "hit": false,
      "t": 40068.502500000046,
      "d": 205.47950000000128,
      "v": 107
    },
    {
      "midi": 70,
      "hit": false,
      "t": 40171.24224999966,
      "d": 51.36987499999668,
      "v": 53
    },
    {
      "midi": 69,
      "hit": false,
      "t": 40171.24224999966,
      "d": 51.36987499999668,
      "v": 43
    },
    {
      "midi": 38,
      "hit": false,
      "t": 40171.24224999985,
      "d": 51.36987499999668,
      "v": 88
    },
    {
      "midi": 40,
      "hit": false,
      "t": 40171.24224999985,
      "d": 51.36987499999668,
      "v": 88
    },
    {
      "midi": 38,
      "hit": false,
      "t": 40270.55734166648,
      "d": 154.10962499999732,
      "v": 107
    },
    {
      "midi": 70,
      "hit": false,
      "t": 40273.981999999654,
      "d": 51.36987499999668,
      "v": 60
    },
    {
      "midi": 69,
      "hit": false,
      "t": 40273.981999999654,
      "d": 51.36987499999668,
      "v": 50
    },
    {
      "midi": 36,
      "hit": false,
      "t": 40273.981999999865,
      "d": 51.36987499999668,
      "v": 107
    },
    {
      "midi": 13,
      "hit": false,
      "t": 40273.981999999865,
      "d": 51.36987499999668,
      "v": 127
    },
    {
      "midi": 42,
      "hit": false,
      "t": 40273.98200000002,
      "d": 102.73975000000064,
      "v": 102
    },
    {
      "midi": 74,
      "hit": false,
      "t": 40273.982000000025,
      "d": 308.2192500000019,
      "v": 80
    },
    {
      "midi": 70,
      "hit": false,
      "t": 40376.72174999965,
      "d": 51.36987499999668,
      "v": 49
    },
    {
      "midi": 69,
      "hit": false,
      "t": 40376.72174999965,
      "d": 51.36987499999668,
      "v": 39
    },
    {
      "midi": 38,
      "hit": false,
      "t": 40376.721749999844,
      "d": 51.36987499999668,
      "v": 69
    },
    {
      "midi": 40,
      "hit": false,
      "t": 40376.721749999844,
      "d": 51.36987499999668,
      "v": 69
    },
    {
      "midi": 38,
      "hit": false,
      "t": 40476.03684166647,
      "d": 154.10962499999732,
      "v": 107
    },
    {
      "midi": 67,
      "hit": false,
      "t": 40476.03684166647,
      "d": 633.5617916666233,
      "v": 115
    },
    {
      "midi": 57,
      "hit": false,
      "t": 40476.03684166676,
      "d": 191.78086666666786,
      "v": 82
    },
    {
      "midi": 62,
      "hit": false,
      "t": 40476.03684166676,
      "d": 191.78086666666786,
      "v": 90
    },
    {
      "midi": 70,
      "hit": false,
      "t": 40479.46149999964,
      "d": 51.36987499999668,
      "v": 109
    },
    {
      "midi": 69,
      "hit": false,
      "t": 40479.46149999964,
      "d": 51.36987499999668,
      "v": 99
    },
    {
      "midi": 69,
      "hit": false,
      "t": 40479.46149999999,
      "d": 616.4384999999747,
      "v": 91
    },
    {
      "midi": 66,
      "hit": false,
      "t": 40479.46149999999,
      "d": 616.4384999999747,
      "v": 91
    },
    {
      "midi": 62,
      "hit": false,
      "t": 40479.46149999999,
      "d": 616.4384999999747,
      "v": 91
    },
    {
      "midi": 46,
      "hit": false,
      "t": 40479.46150000005,
      "d": 102.73975000000064,
      "v": 107
    },
    {
      "midi": 70,
      "hit": false,
      "t": 40582.201249999634,
      "d": 51.36987499999668,
      "v": 53
    },
    {
      "midi": 69,
      "hit": false,
      "t": 40582.201249999634,
      "d": 51.36987499999668,
      "v": 43
    },
    {
      "midi": 38,
      "hit": false,
      "t": 40681.516341666465,
      "d": 154.10962499999732,
      "v": 107
    },
    {
      "midi": 109,
      "hit": false,
      "t": 40681.51634166666,
      "d": 51.36987499999668,
      "v": 127
    },
    {
      "midi": 62,
      "hit": false,
      "t": 40681.516341666764,
      "d": 160.95894166666403,
      "v": 78
    },
    {
      "midi": 57,
      "hit": false,
      "t": 40681.516341666764,
      "d": 160.95894166666403,
      "v": 55
    },
    {
      "midi": 70,
      "hit": false,
      "t": 40684.94099999963,
      "d": 51.36987499999668,
      "v": 60
    },
    {
      "midi": 69,
      "hit": false,
      "t": 40684.94099999963,
      "d": 51.36987499999668,
      "v": 50
    },
    {
      "midi": 38,
      "hit": false,
      "t": 40684.94099999984,
      "d": 51.36987499999668,
      "v": 88
    },
    {
      "midi": 40,
      "hit": false,
      "t": 40684.94099999984,
      "d": 51.36987499999668,
      "v": 88
    },
    {
      "midi": 36,
      "hit": false,
      "t": 40684.94099999986,
      "d": 51.36987499999668,
      "v": 107
    },
    {
      "midi": 13,
      "hit": false,
      "t": 40684.94099999986,
      "d": 51.36987499999668,
      "v": 127
    },
    {
      "midi": 42,
      "hit": false,
      "t": 40684.94100000002,
      "d": 102.73975000000064,
      "v": 107
    },
    {
      "midi": 81,
      "hit": false,
      "t": 40684.94100000003,
      "d": 308.2192500000019,
      "v": 80
    },
    {
      "midi": 70,
      "hit": false,
      "t": 40787.68074999962,
      "d": 51.36987499999668,
      "v": 49
    },
    {
      "midi": 69,
      "hit": false,
      "t": 40787.68074999962,
      "d": 51.36987499999668,
      "v": 39
    },
    {
      "midi": 36,
      "hit": false,
      "t": 40886.99584166646,
      "d": 154.10962499999732,
      "v": 107
    },
    {
      "midi": 60,
      "hit": false,
      "t": 40886.99584166676,
      "d": 171.23291666666773,
      "v": 113
    },
    {
      "midi": 55,
      "hit": false,
      "t": 40886.99584166676,
      "d": 191.78086666666786,
      "v": 121
    },
    {
      "midi": 70,
      "hit": false,
      "t": 40890.420499999615,
      "d": 51.36987499999668,
      "v": 109
    },
    {
      "midi": 69,
      "hit": false,
      "t": 40890.420499999615,
      "d": 51.36987499999668,
      "v": 99
    },
    {
      "midi": 38,
      "hit": false,
      "t": 40890.42049999983,
      "d": 51.36987499999668,
      "v": 68
    },
    {
      "midi": 40,
      "hit": false,
      "t": 40890.42049999983,
      "d": 51.36987499999668,
      "v": 68
    },
    {
      "midi": 46,
      "hit": false,
      "t": 40890.42050000005,
      "d": 102.73975000000064,
      "v": 107
    },
    {
      "midi": 70,
      "hit": false,
      "t": 40993.16024999961,
      "d": 51.36987499999668,
      "v": 53
    },
    {
      "midi": 69,
      "hit": false,
      "t": 40993.16024999961,
      "d": 51.36987499999668,
      "v": 43
    },
    {
      "midi": 38,
      "hit": false,
      "t": 40993.160249999826,
      "d": 51.36987499999668,
      "v": 52
    },
    {
      "midi": 40,
      "hit": false,
      "t": 40993.160249999826,
      "d": 51.36987499999668,
      "v": 52
    },
    {
      "midi": 59,
      "hit": false,
      "t": 41092.4753416662,
      "d": 1541.0962499998495,
      "v": 83
    },
    {
      "midi": 66,
      "hit": false,
      "t": 41092.4753416662,
      "d": 1541.0962499998495,
      "v": 83
    },
    {
      "midi": 35,
      "hit": false,
      "t": 41092.47534166645,
      "d": 154.10962499999732,
      "v": 107
    },
    {
      "midi": 54,
      "hit": false,
      "t": 41092.47534166676,
      "d": 205.47950000000128,
      "v": 107
    },
    {
      "midi": 59,
      "hit": false,
      "t": 41092.47534166676,
      "d": 308.2192500000019,
      "v": 101
    },
    {
      "midi": 70,
      "hit": false,
      "t": 41095.8999999996,
      "d": 51.36987499999668,
      "v": 60
    },
    {
      "midi": 69,
      "hit": false,
      "t": 41095.8999999996,
      "d": 51.36987499999668,
      "v": 50
    },
    {
      "midi": 38,
      "hit": false,
      "t": 41095.89999999982,
      "d": 51.36987499999668,
      "v": 64
    },
    {
      "midi": 40,
      "hit": false,
      "t": 41095.89999999982,
      "d": 51.36987499999668,
      "v": 64
    },
    {
      "midi": 36,
      "hit": false,
      "t": 41095.899999999856,
      "d": 51.36987499999668,
      "v": 107
    },
    {
      "midi": 13,
      "hit": false,
      "t": 41095.899999999856,
      "d": 51.36987499999668,
      "v": 127
    },
    {
      "midi": 59,
      "hit": false,
      "t": 41095.899999999965,
      "d": 205.479499999994,
      "v": 102
    },
    {
      "midi": 42,
      "hit": false,
      "t": 41095.90000000002,
      "d": 102.73975000000064,
      "v": 107
    },
    {
      "midi": 78,
      "hit": false,
      "t": 41095.90000000003,
      "d": 513.6987500000032,
      "v": 80
    },
    {
      "midi": 66,
      "hit": false,
      "t": 41095.90000000004,
      "d": 1643.836000000003,
      "v": 80
    },
    {
      "midi": 62,
      "hit": false,
      "t": 41095.90000000004,
      "d": 1643.836000000003,
      "v": 80
    },
    {
      "midi": 59,
      "hit": false,
      "t": 41095.90000000004,
      "d": 1643.836000000003,
      "v": 80
    },
    {
      "midi": 70,
      "hit": false,
      "t": 41198.639749999595,
      "d": 51.36987499999668,
      "v": 49
    },
    {
      "midi": 69,
      "hit": false,
      "t": 41198.639749999595,
      "d": 51.36987499999668,
      "v": 39
    },
    {
      "midi": 47,
      "hit": false,
      "t": 41297.95484166645,
      "d": 51.36987499999668,
      "v": 107
    },
    {
      "midi": 54,
      "hit": false,
      "t": 41297.95484166676,
      "d": 102.73975000000064,
      "v": 45
    },
    {
      "midi": 47,
      "hit": false,
      "t": 41297.95484166676,
      "d": 102.73975000000064,
      "v": 45
    },
    {
      "midi": 70,
      "hit": false,
      "t": 41301.37949999959,
      "d": 51.36987499999668,
      "v": 109
    },
    {
      "midi": 69,
      "hit": false,
      "t": 41301.37949999959,
      "d": 51.36987499999668,
      "v": 99
    },
    {
      "midi": 71,
      "hit": false,
      "t": 41301.37949999996,
      "d": 102.73975000000064,
      "v": 48
    },
    {
      "midi": 66,
      "hit": false,
      "t": 41301.37949999996,
      "d": 102.73975000000064,
      "v": 48
    },
    {
      "midi": 46,
      "hit": false,
      "t": 41301.379500000054,
      "d": 102.73975000000064,
      "v": 107
    },
    {
      "midi": 47,
      "hit": false,
      "t": 41400.69459166644,
      "d": 51.36987499999668,
      "v": 107
    },
    {
      "midi": 54,
      "hit": false,
      "t": 41400.69459166676,
      "d": 102.73975000000064,
      "v": 78
    },
    {
      "midi": 47,
      "hit": false,
      "t": 41400.69459166676,
      "d": 102.73975000000064,
      "v": 78
    },
    {
      "midi": 70,
      "hit": false,
      "t": 41404.11924999958,
      "d": 51.36987499999668,
      "v": 53
    },
    {
      "midi": 69,
      "hit": false,
      "t": 41404.11924999958,
      "d": 51.36987499999668,
      "v": 43
    },
    {
      "midi": 71,
      "hit": false,
      "t": 41404.11924999996,
      "d": 102.73975000000064,
      "v": 88
    },
    {
      "midi": 66,
      "hit": false,
      "t": 41404.11924999996,
      "d": 102.73975000000064,
      "v": 98
    },
    {
      "midi": 35,
      "hit": false,
      "t": 41503.434341666434,
      "d": 154.10962499999732,
      "v": 107
    },
    {
      "midi": 109,
      "hit": false,
      "t": 41503.43434166666,
      "d": 51.36987499999668,
      "v": 127
    },
    {
      "midi": 47,
      "hit": false,
      "t": 41503.43434166676,
      "d": 102.73975000000064,
      "v": 45
    },
    {
      "midi": 54,
      "hit": false,
      "t": 41503.43434166676,
      "d": 102.73975000000064,
      "v": 45
    },
    {
      "midi": 70,
      "hit": false,
      "t": 41506.858999999575,
      "d": 51.36987499999668,
      "v": 60
    },
    {
      "midi": 69,
      "hit": false,
      "t": 41506.858999999575,
      "d": 51.36987499999668,
      "v": 50
    },
    {
      "midi": 38,
      "hit": false,
      "t": 41506.858999999815,
      "d": 51.36987499999668,
      "v": 88
    },
    {
      "midi": 40,
      "hit": false,
      "t": 41506.858999999815,
      "d": 51.36987499999668,
      "v": 88
    },
    {
      "midi": 36,
      "hit": false,
      "t": 41506.85899999985,
      "d": 51.36987499999668,
      "v": 107
    },
    {
      "midi": 13,
      "hit": false,
      "t": 41506.85899999985,
      "d": 51.36987499999668,
      "v": 127
    },
    {
      "midi": 42,
      "hit": false,
      "t": 41506.859000000026,
      "d": 102.73975000000064,
      "v": 107
    },
    {
      "midi": 70,
      "hit": false,
      "t": 41609.59874999957,
      "d": 51.36987499999668,
      "v": 49
    },
    {
      "midi": 69,
      "hit": false,
      "t": 41609.59874999957,
      "d": 51.36987499999668,
      "v": 39
    },
    {
      "midi": 62,
      "hit": false,
      "t": 41708.91384166642,
      "d": 202.054841666657,
      "v": 101
    },
    {
      "midi": 35,
      "hit": false,
      "t": 41708.91384166643,
      "d": 154.10962499999732,
      "v": 107
    },
    {
      "midi": 59,
      "hit": false,
      "t": 41708.91384166676,
      "d": 205.47950000000128,
      "v": 113
    },
    {
      "midi": 54,
      "hit": false,
      "t": 41708.91384166676,
      "d": 205.47950000000128,
      "v": 101
    },
    {
      "midi": 70,
      "hit": false,
      "t": 41712.33849999956,
      "d": 51.36987499999668,
      "v": 109
    },
    {
      "midi": 69,
      "hit": false,
      "t": 41712.33849999956,
      "d": 51.36987499999668,
      "v": 99
    },
    {
      "midi": 71,
      "hit": false,
      "t": 41712.33849999996,
      "d": 102.73975000000064,
      "v": 96
    },
    {
      "midi": 66,
      "hit": false,
      "t": 41712.33849999996,
      "d": 102.73975000000064,
      "v": 96
    },
    {
      "midi": 81,
      "hit": false,
      "t": 41712.338500000034,
      "d": 924.6577499999985,
      "v": 80
    },
    {
      "midi": 46,
      "hit": false,
      "t": 41712.338500000056,
      "d": 205.47950000000128,
      "v": 107
    },
    {
      "midi": 70,
      "hit": false,
      "t": 41815.078249999555,
      "d": 51.36987499999668,
      "v": 53
    },
    {
      "midi": 69,
      "hit": false,
      "t": 41815.078249999555,
      "d": 51.36987499999668,
      "v": 43
    },
    {
      "midi": 38,
      "hit": false,
      "t": 41815.07824999981,
      "d": 51.36987499999668,
      "v": 88
    },
    {
      "midi": 40,
      "hit": false,
      "t": 41815.07824999981,
      "d": 51.36987499999668,
      "v": 88
    },
    {
      "midi": 62,
      "hit": false,
      "t": 41914.39334166641,
      "d": 191.7808666666606,
      "v": 101
    },
    {
      "midi": 35,
      "hit": false,
      "t": 41914.39334166642,
      "d": 154.10962499999732,
      "v": 107
    },
    {
      "midi": 54,
      "hit": false,
      "t": 41914.393341666764,
      "d": 102.73975000000064,
      "v": 78
    },
    {
      "midi": 47,
      "hit": false,
      "t": 41914.393341666764,
      "d": 102.73975000000064,
      "v": 78
    },
    {
      "midi": 70,
      "hit": false,
      "t": 41917.81799999955,
      "d": 51.36987499999668,
      "v": 60
    },
    {
      "midi": 69,
      "hit": false,
      "t": 41917.81799999955,
      "d": 51.36987499999668,
      "v": 50
    },
    {
      "midi": 36,
      "hit": false,
      "t": 41917.81799999985,
      "d": 51.36987499999668,
      "v": 107
    },
    {
      "midi": 13,
      "hit": false,
      "t": 41917.81799999985,
      "d": 51.36987499999668,
      "v": 127
    },
    {
      "midi": 42,
      "hit": false,
      "t": 41917.81800000003,
      "d": 102.73975000000064,
      "v": 102
    },
    {
      "midi": 70,
      "hit": false,
      "t": 42020.55774999954,
      "d": 51.36987499999668,
      "v": 49
    },
    {
      "midi": 69,
      "hit": false,
      "t": 42020.55774999954,
      "d": 51.36987499999668,
      "v": 39
    },
    {
      "midi": 38,
      "hit": false,
      "t": 42020.5577499998,
      "d": 51.36987499999668,
      "v": 69
    },
    {
      "midi": 40,
      "hit": false,
      "t": 42020.5577499998,
      "d": 51.36987499999668,
      "v": 69
    },
    {
      "midi": 62,
      "hit": false,
      "t": 42119.8728416664,
      "d": 219.17813333332742,
      "v": 102
    },
    {
      "midi": 35,
      "hit": false,
      "t": 42119.872841666416,
      "d": 154.10962499999732,
      "v": 107
    },
    {
      "midi": 47,
      "hit": false,
      "t": 42119.872841666765,
      "d": 102.73975000000064,
      "v": 78
    },
    {
      "midi": 54,
      "hit": false,
      "t": 42119.872841666765,
      "d": 102.73975000000064,
      "v": 78
    },
    {
      "midi": 70,
      "hit": false,
      "t": 42123.297499999535,
      "d": 51.36987499999668,
      "v": 109
    },
    {
      "midi": 69,
      "hit": false,
      "t": 42123.297499999535,
      "d": 51.36987499999668,
      "v": 99
    },
    {
      "midi": 64,
      "hit": false,
      "t": 42123.297499999964,
      "d": 205.47950000000128,
      "v": 96
    },
    {
      "midi": 46,
      "hit": false,
      "t": 42123.29750000006,
      "d": 102.73975000000064,
      "v": 107
    },
    {
      "midi": 70,
      "hit": false,
      "t": 42226.03724999953,
      "d": 51.36987499999668,
      "v": 53
    },
    {
      "midi": 69,
      "hit": false,
      "t": 42226.03724999953,
      "d": 51.36987499999668,
      "v": 43
    },
    {
      "midi": 64,
      "hit": false,
      "t": 42325.352341666396,
      "d": 198.63018333333457,
      "v": 106
    },
    {
      "midi": 35,
      "hit": false,
      "t": 42325.35234166641,
      "d": 154.10962499999732,
      "v": 107
    },
    {
      "midi": 109,
      "hit": false,
      "t": 42325.35234166666,
      "d": 51.36987499999668,
      "v": 127
    },
    {
      "midi": 59,
      "hit": false,
      "t": 42325.35234166677,
      "d": 205.47950000000128,
      "v": 101
    },
    {
      "midi": 54,
      "hit": false,
      "t": 42325.35234166677,
      "d": 205.47950000000128,
      "v": 107
    },
    {
      "midi": 70,
      "hit": false,
      "t": 42328.77699999952,
      "d": 51.36987499999668,
      "v": 60
    },
    {
      "midi": 69,
      "hit": false,
      "t": 42328.77699999952,
      "d": 51.36987499999668,
      "v": 50
    },
    {
      "midi": 38,
      "hit": false,
      "t": 42328.7769999998,
      "d": 51.36987499999668,
      "v": 88
    },
    {
      "midi": 40,
      "hit": false,
      "t": 42328.7769999998,
      "d": 51.36987499999668,
      "v": 88
    },
    {
      "midi": 36,
      "hit": false,
      "t": 42328.77699999984,
      "d": 51.36987499999668,
      "v": 107
    },
    {
      "midi": 13,
      "hit": false,
      "t": 42328.77699999984,
      "d": 51.36987499999668,
      "v": 127
    },
    {
      "midi": 62,
      "hit": false,
      "t": 42328.776999999965,
      "d": 205.47950000000128,
      "v": 94
    },
    {
      "midi": 42,
      "hit": false,
      "t": 42328.77700000003,
      "d": 102.73975000000064,
      "v": 107
    },
    {
      "midi": 70,
      "hit": false,
      "t": 42431.516749999515,
      "d": 51.36987499999668,
      "v": 49
    },
    {
      "midi": 69,
      "hit": false,
      "t": 42431.516749999515,
      "d": 51.36987499999668,
      "v": 39
    },
    {
      "midi": 66,
      "hit": false,
      "t": 42530.8318416664,
      "d": 202.0548416666643,
      "v": 111
    },
    {
      "midi": 35,
      "hit": false,
      "t": 42530.831841666404,
      "d": 154.10962499999732,
      "v": 107
    },
    {
      "midi": 54,
      "hit": false,
      "t": 42530.83184166677,
      "d": 102.73975000000064,
      "v": 78
    },
    {
      "midi": 47,
      "hit": false,
      "t": 42530.83184166677,
      "d": 102.73975000000064,
      "v": 45
    },
    {
      "midi": 70,
      "hit": false,
      "t": 42534.25649999951,
      "d": 51.36987499999668,
      "v": 109
    },
    {
      "midi": 69,
      "hit": false,
      "t": 42534.25649999951,
      "d": 51.36987499999668,
      "v": 99
    },
    {
      "midi": 38,
      "hit": false,
      "t": 42534.25649999979,
      "d": 51.36987499999668,
      "v": 68
    },
    {
      "midi": 40,
      "hit": false,
      "t": 42534.25649999979,
      "d": 51.36987499999668,
      "v": 68
    },
    {
      "midi": 59,
      "hit": false,
      "t": 42534.25649999997,
      "d": 102.73975000000064,
      "v": 55
    },
    {
      "midi": 46,
      "hit": false,
      "t": 42534.25650000006,
      "d": 102.73975000000064,
      "v": 107
    },
    {
      "midi": 70,
      "hit": false,
      "t": 42636.9962499995,
      "d": 51.36987499999668,
      "v": 53
    },
    {
      "midi": 69,
      "hit": false,
      "t": 42636.9962499995,
      "d": 51.36987499999668,
      "v": 43
    },
    {
      "midi": 38,
      "hit": false,
      "t": 42636.996249999786,
      "d": 51.36987499999668,
      "v": 52
    },
    {
      "midi": 40,
      "hit": false,
      "t": 42636.996249999786,
      "d": 51.36987499999668,
      "v": 52
    },
    {
      "midi": 66,
      "hit": false,
      "t": 42736.31134166639,
      "d": 623.2878166666051,
      "v": 117
    },
    {
      "midi": 36,
      "hit": false,
      "t": 42736.3113416664,
      "d": 154.10962499999732,
      "v": 107
    },
    {
      "midi": 55,
      "hit": false,
      "t": 42736.31134166677,
      "d": 140.4109916666639,
      "v": 95
    },
    {
      "midi": 48,
      "hit": false,
      "t": 42736.31134166677,
      "d": 140.4109916666639,
      "v": 95
    },
    {
      "midi": 70,
      "hit": false,
      "t": 42739.735999999495,
      "d": 51.36987499999668,
      "v": 60
    },
    {
      "midi": 69,
      "hit": false,
      "t": 42739.735999999495,
      "d": 51.36987499999668,
      "v": 50
    },
    {
      "midi": 38,
      "hit": false,
      "t": 42739.73599999978,
      "d": 51.36987499999668,
      "v": 88
    },
    {
      "midi": 40,
      "hit": false,
      "t": 42739.73599999978,
      "d": 51.36987499999668,
      "v": 88
    },
    {
      "midi": 36,
      "hit": false,
      "t": 42739.73599999984,
      "d": 51.36987499999668,
      "v": 107
    },
    {
      "midi": 13,
      "hit": false,
      "t": 42739.73599999984,
      "d": 51.36987499999668,
      "v": 127
    },
    {
      "midi": 60,
      "hit": false,
      "t": 42739.73599999996,
      "d": 205.47949999998673,
      "v": 72
    },
    {
      "midi": 55,
      "hit": false,
      "t": 42739.73599999996,
      "d": 205.47949999998673,
      "v": 68
    },
    {
      "midi": 72,
      "hit": false,
      "t": 42739.73600000003,
      "d": 1541.0962500000023,
      "v": 80
    },
    {
      "midi": 42,
      "hit": false,
      "t": 42739.73600000003,
      "d": 102.73975000000064,
      "v": 107
    },
    {
      "midi": 64,
      "hit": false,
      "t": 42739.73600000004,
      "d": 1643.836000000003,
      "v": 80
    },
    {
      "midi": 55,
      "hit": false,
      "t": 42739.73600000004,
      "d": 1643.836000000003,
      "v": 80
    },
    {
      "midi": 60,
      "hit": false,
      "t": 42739.73600000004,
      "d": 1643.836000000003,
      "v": 80
    },
    {
      "midi": 70,
      "hit": false,
      "t": 42842.47574999949,
      "d": 51.36987499999668,
      "v": 49
    },
    {
      "midi": 69,
      "hit": false,
      "t": 42842.47574999949,
      "d": 51.36987499999668,
      "v": 39
    },
    {
      "midi": 48,
      "hit": false,
      "t": 42941.79084166639,
      "d": 51.36987499999668,
      "v": 107
    },
    {
      "midi": 55,
      "hit": false,
      "t": 42941.79084166676,
      "d": 102.73975000000064,
      "v": 43
    },
    {
      "midi": 48,
      "hit": false,
      "t": 42941.79084166676,
      "d": 102.73975000000064,
      "v": 43
    },
    {
      "midi": 70,
      "hit": false,
      "t": 42945.21549999948,
      "d": 51.36987499999668,
      "v": 109
    },
    {
      "midi": 69,
      "hit": false,
      "t": 42945.21549999948,
      "d": 51.36987499999668,
      "v": 99
    },
    {
      "midi": 60,
      "hit": false,
      "t": 42945.21549999995,
      "d": 102.73975000000064,
      "v": 47
    },
    {
      "midi": 55,
      "hit": false,
      "t": 42945.21549999995,
      "d": 102.73975000000064,
      "v": 47
    },
    {
      "midi": 46,
      "hit": false,
      "t": 42945.215500000064,
      "d": 102.73975000000064,
      "v": 107
    },
    {
      "midi": 48,
      "hit": false,
      "t": 43044.530591666386,
      "d": 51.36987499999668,
      "v": 107
    },
    {
      "midi": 55,
      "hit": false,
      "t": 43044.530591666764,
      "d": 102.73975000000064,
      "v": 78
    },
    {
      "midi": 48,
      "hit": false,
      "t": 43044.530591666764,
      "d": 102.73975000000064,
      "v": 78
    },
    {
      "midi": 70,
      "hit": false,
      "t": 43047.955249999475,
      "d": 51.36987499999668,
      "v": 53
    },
    {
      "midi": 69,
      "hit": false,
      "t": 43047.955249999475,
      "d": 51.36987499999668,
      "v": 43
    },
    {
      "midi": 60,
      "hit": false,
      "t": 43047.95524999995,
      "d": 102.73975000000064,
      "v": 107
    },
    {
      "midi": 55,
      "hit": false,
      "t": 43047.95524999995,
      "d": 102.73975000000064,
      "v": 85
    },
    {
      "midi": 36,
      "hit": false,
      "t": 43147.27034166638,
      "d": 154.10962499999732,
      "v": 107
    },
    {
      "midi": 109,
      "hit": false,
      "t": 43147.270341666655,
      "d": 51.36987499999668,
      "v": 127
    },
    {
      "midi": 48,
      "hit": false,
      "t": 43147.270341666765,
      "d": 102.73975000000064,
      "v": 45
    },
    {
      "midi": 55,
      "hit": false,
      "t": 43147.270341666765,
      "d": 102.73975000000064,
      "v": 43
    },
    {
      "midi": 70,
      "hit": false,
      "t": 43150.69499999947,
      "d": 51.36987499999668,
      "v": 60
    },
    {
      "midi": 69,
      "hit": false,
      "t": 43150.69499999947,
      "d": 51.36987499999668,
      "v": 50
    },
    {
      "midi": 38,
      "hit": false,
      "t": 43150.694999999774,
      "d": 51.36987499999668,
      "v": 63
    },
    {
      "midi": 40,
      "hit": false,
      "t": 43150.694999999774,
      "d": 51.36987499999668,
      "v": 64
    },
    {
      "midi": 36,
      "hit": false,
      "t": 43150.69499999983,
      "d": 51.36987499999668,
      "v": 107
    },
    {
      "midi": 13,
      "hit": false,
      "t": 43150.69499999983,
      "d": 51.36987499999668,
      "v": 127
    },
    {
      "midi": 42,
      "hit": false,
      "t": 43150.695000000036,
      "d": 102.73975000000064,
      "v": 107
    },
    {
      "midi": 70,
      "hit": false,
      "t": 43253.43474999946,
      "d": 51.36987499999668,
      "v": 49
    },
    {
      "midi": 69,
      "hit": false,
      "t": 43253.43474999946,
      "d": 51.36987499999668,
      "v": 39
    },
    {
      "midi": 64,
      "hit": false,
      "t": 43352.74984166633,
      "d": 202.0548416666643,
      "v": 97
    },
    {
      "midi": 36,
      "hit": false,
      "t": 43352.74984166637,
      "d": 154.10962499999732,
      "v": 107
    },
    {
      "midi": 55,
      "hit": false,
      "t": 43352.749841666766,
      "d": 205.47950000000128,
      "v": 78
    },
    {
      "midi": 60,
      "hit": false,
      "t": 43352.749841666766,
      "d": 205.47950000000128,
      "v": 82
    },
    {
      "midi": 70,
      "hit": false,
      "t": 43356.174499999455,
      "d": 51.36987499999668,
      "v": 109
    },
    {
      "midi": 69,
      "hit": false,
      "t": 43356.174499999455,
      "d": 51.36987499999668,
      "v": 99
    },
    {
      "midi": 55,
      "hit": false,
      "t": 43356.17449999995,
      "d": 205.47950000000128,
      "v": 77
    },
    {
      "midi": 46,
      "hit": false,
      "t": 43356.17450000007,
      "d": 205.47950000000128,
      "v": 107
    },
    {
      "midi": 70,
      "hit": false,
      "t": 43458.91424999945,
      "d": 51.36987499999668,
      "v": 53
    },
    {
      "midi": 69,
      "hit": false,
      "t": 43458.91424999945,
      "d": 51.36987499999668,
      "v": 43
    },
    {
      "midi": 38,
      "hit": false,
      "t": 43458.91424999977,
      "d": 51.36987499999668,
      "v": 88
    },
    {
      "midi": 40,
      "hit": false,
      "t": 43458.91424999977,
      "d": 51.36987499999668,
      "v": 88
    },
    {
      "midi": 64,
      "hit": false,
      "t": 43558.22934166632,
      "d": 1626.7127083332016,
      "v": 118
    },
    {
      "midi": 36,
      "hit": false,
      "t": 43558.22934166637,
      "d": 154.10962499999732,
      "v": 107
    },
    {
      "midi": 48,
      "hit": false,
      "t": 43558.22934166677,
      "d": 102.73975000000064,
      "v": 78
    },
    {
      "midi": 55,
      "hit": false,
      "t": 43558.22934166677,
      "d": 102.73975000000064,
      "v": 78
    },
    {
      "midi": 70,
      "hit": false,
      "t": 43561.65399999944,
      "d": 51.36987499999668,
      "v": 60
    },
    {
      "midi": 69,
      "hit": false,
      "t": 43561.65399999944,
      "d": 51.36987499999668,
      "v": 50
    },
    {
      "midi": 36,
      "hit": false,
      "t": 43561.65399999983,
      "d": 51.36987499999668,
      "v": 107
    },
    {
      "midi": 13,
      "hit": false,
      "t": 43561.65399999983,
      "d": 51.36987499999668,
      "v": 127
    },
    {
      "midi": 42,
      "hit": false,
      "t": 43561.65400000004,
      "d": 102.73975000000064,
      "v": 102
    },
    {
      "midi": 70,
      "hit": false,
      "t": 43664.393749999435,
      "d": 51.36987499999668,
      "v": 49
    },
    {
      "midi": 69,
      "hit": false,
      "t": 43664.393749999435,
      "d": 51.36987499999668,
      "v": 39
    },
    {
      "midi": 38,
      "hit": false,
      "t": 43664.39374999976,
      "d": 51.36987499999668,
      "v": 69
    },
    {
      "midi": 40,
      "hit": false,
      "t": 43664.39374999976,
      "d": 51.36987499999668,
      "v": 69
    },
    {
      "midi": 36,
      "hit": false,
      "t": 43763.70884166636,
      "d": 154.10962499999732,
      "v": 107
    },
    {
      "midi": 55,
      "hit": false,
      "t": 43763.70884166677,
      "d": 102.73975000000064,
      "v": 78
    },
    {
      "midi": 48,
      "hit": false,
      "t": 43763.70884166677,
      "d": 102.73975000000064,
      "v": 78
    },
    {
      "midi": 70,
      "hit": false,
      "t": 43767.13349999943,
      "d": 51.36987499999668,
      "v": 109
    },
    {
      "midi": 69,
      "hit": false,
      "t": 43767.13349999943,
      "d": 51.36987499999668,
      "v": 99
    },
    {
      "midi": 52,
      "hit": false,
      "t": 43767.13349999995,
      "d": 205.47950000000128,
      "v": 77
    },
    {
      "midi": 46,
      "hit": false,
      "t": 43767.13350000007,
      "d": 102.73975000000064,
      "v": 107
    },
    {
      "midi": 70,
      "hit": false,
      "t": 43869.87324999942,
      "d": 51.36987499999668,
      "v": 53
    },
    {
      "midi": 69,
      "hit": false,
      "t": 43869.87324999942,
      "d": 51.36987499999668,
      "v": 43
    },
    {
      "midi": 36,
      "hit": false,
      "t": 43969.188341666355,
      "d": 154.10962499999732,
      "v": 107
    },
    {
      "midi": 109,
      "hit": false,
      "t": 43969.18834166665,
      "d": 51.36987499999668,
      "v": 127
    },
    {
      "midi": 55,
      "hit": false,
      "t": 43969.18834166677,
      "d": 205.47950000000128,
      "v": 95
    },
    {
      "midi": 60,
      "hit": false,
      "t": 43969.18834166677,
      "d": 205.47950000000128,
      "v": 90
    },
    {
      "midi": 70,
      "hit": false,
      "t": 43972.612999999415,
      "d": 51.36987499999668,
      "v": 60
    },
    {
      "midi": 69,
      "hit": false,
      "t": 43972.612999999415,
      "d": 51.36987499999668,
      "v": 50
    },
    {
      "midi": 38,
      "hit": false,
      "t": 43972.61299999976,
      "d": 51.36987499999668,
      "v": 88
    },
    {
      "midi": 40,
      "hit": false,
      "t": 43972.61299999976,
      "d": 51.36987499999668,
      "v": 88
    },
    {
      "midi": 36,
      "hit": false,
      "t": 43972.61299999982,
      "d": 51.36987499999668,
      "v": 107
    },
    {
      "midi": 13,
      "hit": false,
      "t": 43972.61299999982,
      "d": 51.36987499999668,
      "v": 127
    },
    {
      "midi": 55,
      "hit": false,
      "t": 43972.612999999954,
      "d": 205.47950000000128,
      "v": 72
    },
    {
      "midi": 42,
      "hit": false,
      "t": 43972.61300000004,
      "d": 102.73975000000064,
      "v": 107
    },
    {
      "midi": 70,
      "hit": false,
      "t": 44075.35274999941,
      "d": 51.36987499999668,
      "v": 49
    },
    {
      "midi": 69,
      "hit": false,
      "t": 44075.35274999941,
      "d": 51.36987499999668,
      "v": 39
    },
    {
      "midi": 35,
      "hit": false,
      "t": 44174.66784166635,
      "d": 154.10962499999732,
      "v": 107
    },
    {
      "midi": 48,
      "hit": false,
      "t": 44174.66784166677,
      "d": 102.73975000000064,
      "v": 66
    },
    {
      "midi": 55,
      "hit": false,
      "t": 44174.66784166677,
      "d": 102.73975000000064,
      "v": 66
    },
    {
      "midi": 70,
      "hit": false,
      "t": 44178.0924999994,
      "d": 51.36987499999668,
      "v": 109
    },
    {
      "midi": 69,
      "hit": false,
      "t": 44178.0924999994,
      "d": 51.36987499999668,
      "v": 99
    },
    {
      "midi": 38,
      "hit": false,
      "t": 44178.09249999975,
      "d": 51.36987499999668,
      "v": 68
    },
    {
      "midi": 40,
      "hit": false,
      "t": 44178.09249999975,
      "d": 51.36987499999668,
      "v": 68
    },
    {
      "midi": 60,
      "hit": false,
      "t": 44178.092499999955,
      "d": 102.73975000000064,
      "v": 49
    },
    {
      "midi": 46,
      "hit": false,
      "t": 44178.09250000007,
      "d": 102.73975000000064,
      "v": 107
    },
    {
      "midi": 70,
      "hit": false,
      "t": 44280.832249999396,
      "d": 51.36987499999668,
      "v": 53
    },
    {
      "midi": 69,
      "hit": false,
      "t": 44280.832249999396,
      "d": 51.36987499999668,
      "v": 43
    },
    {
      "midi": 38,
      "hit": false,
      "t": 44280.832249999745,
      "d": 51.36987499999668,
      "v": 52
    },
    {
      "midi": 40,
      "hit": false,
      "t": 44280.832249999745,
      "d": 51.36987499999668,
      "v": 52
    },
    {
      "midi": 33,
      "hit": false,
      "t": 44380.14734166634,
      "d": 154.10962499999732,
      "v": 107
    },
    {
      "midi": 52,
      "hit": false,
      "t": 44380.14734166677,
      "d": 205.47950000000128,
      "v": 95
    },
    {
      "midi": 57,
      "hit": false,
      "t": 44380.14734166677,
      "d": 410.95900000000256,
      "v": 85
    },
    {
      "midi": 70,
      "hit": false,
      "t": 44383.57199999939,
      "d": 51.36987499999668,
      "v": 60
    },
    {
      "midi": 69,
      "hit": false,
      "t": 44383.57199999939,
      "d": 51.36987499999668,
      "v": 50
    },
    {
      "midi": 38,
      "hit": false,
      "t": 44383.57199999974,
      "d": 51.36987499999668,
      "v": 63
    },
    {
      "midi": 40,
      "hit": false,
      "t": 44383.57199999974,
      "d": 51.36987499999668,
      "v": 63
    },
    {
      "midi": 36,
      "hit": false,
      "t": 44383.57199999982,
      "d": 51.36987499999668,
      "v": 107
    },
    {
      "midi": 13,
      "hit": false,
      "t": 44383.57199999982,
      "d": 51.36987499999668,
      "v": 127
    },
    {
      "midi": 57,
      "hit": false,
      "t": 44383.57199999995,
      "d": 205.47949999997945,
      "v": 94
    },
    {
      "midi": 52,
      "hit": false,
      "t": 44383.57199999995,
      "d": 205.47949999997945,
      "v": 72
    },
    {
      "midi": 69,
      "hit": false,
      "t": 44383.57200000004,
      "d": 1130.1372499999998,
      "v": 80
    },
    {
      "midi": 64,
      "hit": false,
      "t": 44383.572000000044,
      "d": 1643.836000000003,
      "v": 80
    },
    {
      "midi": 57,
      "hit": false,
      "t": 44383.572000000044,
      "d": 1643.836000000003,
      "v": 80
    },
    {
      "midi": 60,
      "hit": false,
      "t": 44383.572000000044,
      "d": 1643.836000000003,
      "v": 80
    },
    {
      "midi": 42,
      "hit": false,
      "t": 44383.572000000044,
      "d": 102.73975000000064,
      "v": 107
    },
    {
      "midi": 70,
      "hit": false,
      "t": 44486.31174999938,
      "d": 51.36987499999668,
      "v": 49
    },
    {
      "midi": 69,
      "hit": false,
      "t": 44486.31174999938,
      "d": 51.36987499999668,
      "v": 39
    },
    {
      "midi": 45,
      "hit": false,
      "t": 44585.62684166634,
      "d": 51.36987499999668,
      "v": 107
    },
    {
      "midi": 52,
      "hit": false,
      "t": 44585.62684166677,
      "d": 102.73975000000064,
      "v": 45
    },
    {
      "midi": 45,
      "hit": false,
      "t": 44585.62684166677,
      "d": 102.73975000000064,
      "v": 45
    },
    {
      "midi": 70,
      "hit": false,
      "t": 44589.051499999376,
      "d": 51.36987499999668,
      "v": 109
    },
    {
      "midi": 69,
      "hit": false,
      "t": 44589.051499999376,
      "d": 51.36987499999668,
      "v": 99
    },
    {
      "midi": 57,
      "hit": false,
      "t": 44589.05149999993,
      "d": 102.73975000000064,
      "v": 49
    },
    {
      "midi": 60,
      "hit": false,
      "t": 44589.05149999993,
      "d": 102.73975000000064,
      "v": 49
    },
    {
      "midi": 46,
      "hit": false,
      "t": 44589.051500000074,
      "d": 102.73975000000064,
      "v": 107
    },
    {
      "midi": 45,
      "hit": false,
      "t": 44688.36659166633,
      "d": 51.36987499999668,
      "v": 107
    },
    {
      "midi": 52,
      "hit": false,
      "t": 44688.366591666774,
      "d": 102.73975000000064,
      "v": 78
    },
    {
      "midi": 45,
      "hit": false,
      "t": 44688.366591666774,
      "d": 102.73975000000064,
      "v": 78
    },
    {
      "midi": 70,
      "hit": false,
      "t": 44691.79124999937,
      "d": 51.36987499999668,
      "v": 53
    },
    {
      "midi": 69,
      "hit": false,
      "t": 44691.79124999937,
      "d": 51.36987499999668,
      "v": 43
    },
    {
      "midi": 60,
      "hit": false,
      "t": 44691.79124999993,
      "d": 102.73975000000064,
      "v": 94
    },
    {
      "midi": 57,
      "hit": false,
      "t": 44691.79124999993,
      "d": 102.73975000000064,
      "v": 107
    },
    {
      "midi": 33,
      "hit": false,
      "t": 44791.106341666324,
      "d": 154.10962499999732,
      "v": 107
    },
    {
      "midi": 109,
      "hit": false,
      "t": 44791.10634166665,
      "d": 51.36987499999668,
      "v": 127
    },
    {
      "midi": 52,
      "hit": false,
      "t": 44791.106341666775,
      "d": 102.73975000000064,
      "v": 45
    },
    {
      "midi": 45,
      "hit": false,
      "t": 44791.106341666775,
      "d": 102.73975000000064,
      "v": 45
    },
    {
      "midi": 70,
      "hit": false,
      "t": 44794.53099999936,
      "d": 51.36987499999668,
      "v": 60
    },
    {
      "midi": 69,
      "hit": false,
      "t": 44794.53099999936,
      "d": 51.36987499999668,
      "v": 50
    },
    {
      "midi": 38,
      "hit": false,
      "t": 44794.53099999973,
      "d": 51.36987499999668,
      "v": 88
    },
    {
      "midi": 40,
      "hit": false,
      "t": 44794.53099999973,
      "d": 51.36987499999668,
      "v": 88
    },
    {
      "midi": 36,
      "hit": false,
      "t": 44794.53099999981,
      "d": 51.36987499999668,
      "v": 107
    },
    {
      "midi": 13,
      "hit": false,
      "t": 44794.53099999981,
      "d": 51.36987499999668,
      "v": 127
    },
    {
      "midi": 42,
      "hit": false,
      "t": 44794.531000000046,
      "d": 102.73975000000064,
      "v": 107
    },
    {
      "midi": 70,
      "hit": false,
      "t": 44897.270749999356,
      "d": 51.36987499999668,
      "v": 49
    },
    {
      "midi": 69,
      "hit": false,
      "t": 44897.270749999356,
      "d": 51.36987499999668,
      "v": 39
    },
    {
      "midi": 33,
      "hit": false,
      "t": 44996.58584166632,
      "d": 154.10962499999732,
      "v": 107
    },
    {
      "midi": 72,
      "hit": false,
      "t": 44996.58584166666,
      "d": 154.10962499999732,
      "v": 110
    },
    {
      "midi": 64,
      "hit": false,
      "t": 44996.58584166666,
      "d": 154.10962499999732,
      "v": 107
    },
    {
      "midi": 69,
      "hit": false,
      "t": 44996.58584166666,
      "d": 154.10962499999732,
      "v": 116
    },
    {
      "midi": 52,
      "hit": false,
      "t": 44996.585841666776,
      "d": 205.47950000000128,
      "v": 82
    },
    {
      "midi": 57,
      "hit": false,
      "t": 44996.585841666776,
      "d": 205.47950000000128,
      "v": 78
    },
    {
      "midi": 70,
      "hit": false,
      "t": 45000.01049999935,
      "d": 51.36987499999668,
      "v": 109
    },
    {
      "midi": 69,
      "hit": false,
      "t": 45000.01049999935,
      "d": 51.36987499999668,
      "v": 99
    },
    {
      "midi": 55,
      "hit": false,
      "t": 45000.01049999993,
      "d": 205.47950000000128,
      "v": 66
    },
    {
      "midi": 46,
      "hit": false,
      "t": 45000.01050000008,
      "d": 205.47950000000128,
      "v": 107
    },
    {
      "midi": 70,
      "hit": false,
      "t": 45102.75024999934,
      "d": 51.36987499999668,
      "v": 53
    },
    {
      "midi": 69,
      "hit": false,
      "t": 45102.75024999934,
      "d": 51.36987499999668,
      "v": 43
    },
    {
      "midi": 38,
      "hit": false,
      "t": 45102.75024999973,
      "d": 51.36987499999668,
      "v": 88
    },
    {
      "midi": 40,
      "hit": false,
      "t": 45102.75024999973,
      "d": 51.36987499999668,
      "v": 88
    },
    {
      "midi": 33,
      "hit": false,
      "t": 45202.06534166631,
      "d": 154.10962499999732,
      "v": 107
    },
    {
      "midi": 72,
      "hit": false,
      "t": 45202.065341666654,
      "d": 154.10962499999732,
      "v": 102
    },
    {
      "midi": 64,
      "hit": false,
      "t": 45202.065341666654,
      "d": 154.10962499999732,
      "v": 105
    },
    {
      "midi": 69,
      "hit": false,
      "t": 45202.065341666654,
      "d": 154.10962499999732,
      "v": 114
    },
    {
      "midi": 45,
      "hit": false,
      "t": 45202.06534166678,
      "d": 102.73975000000064,
      "v": 78
    },
    {
      "midi": 52,
      "hit": false,
      "t": 45202.06534166678,
      "d": 102.73975000000064,
      "v": 78
    },
    {
      "midi": 70,
      "hit": false,
      "t": 45205.489999999336,
      "d": 51.36987499999668,
      "v": 60
    },
    {
      "midi": 69,
      "hit": false,
      "t": 45205.489999999336,
      "d": 51.36987499999668,
      "v": 50
    },
    {
      "midi": 36,
      "hit": false,
      "t": 45205.48999999981,
      "d": 51.36987499999668,
      "v": 107
    },
    {
      "midi": 13,
      "hit": false,
      "t": 45205.48999999981,
      "d": 51.36987499999668,
      "v": 127
    },
    {
      "midi": 42,
      "hit": false,
      "t": 45205.49000000005,
      "d": 102.73975000000064,
      "v": 102
    },
    {
      "midi": 70,
      "hit": false,
      "t": 45308.22974999933,
      "d": 51.36987499999668,
      "v": 49
    },
    {
      "midi": 69,
      "hit": false,
      "t": 45308.22974999933,
      "d": 51.36987499999668,
      "v": 39
    },
    {
      "midi": 38,
      "hit": false,
      "t": 45308.22974999972,
      "d": 51.36987499999668,
      "v": 69
    },
    {
      "midi": 40,
      "hit": false,
      "t": 45308.22974999972,
      "d": 51.36987499999668,
      "v": 69
    },
    {
      "midi": 33,
      "hit": false,
      "t": 45407.544841666306,
      "d": 154.10962499999732,
      "v": 107
    },
    {
      "midi": 72,
      "hit": false,
      "t": 45407.54484166665,
      "d": 154.10962499999732,
      "v": 100
    },
    {
      "midi": 64,
      "hit": false,
      "t": 45407.54484166665,
      "d": 154.10962499999732,
      "v": 100
    },
    {
      "midi": 69,
      "hit": false,
      "t": 45407.54484166665,
      "d": 154.10962499999732,
      "v": 107
    },
    {
      "midi": 52,
      "hit": false,
      "t": 45407.54484166678,
      "d": 102.73975000000064,
      "v": 78
    },
    {
      "midi": 45,
      "hit": false,
      "t": 45407.54484166678,
      "d": 102.73975000000064,
      "v": 78
    },
    {
      "midi": 70,
      "hit": false,
      "t": 45410.96949999932,
      "d": 51.36987499999668,
      "v": 109
    },
    {
      "midi": 69,
      "hit": false,
      "t": 45410.96949999932,
      "d": 51.36987499999668,
      "v": 99
    },
    {
      "midi": 57,
      "hit": false,
      "t": 45410.969499999934,
      "d": 205.47950000000128,
      "v": 88
    },
    {
      "midi": 46,
      "hit": false,
      "t": 45410.96950000008,
      "d": 102.73975000000064,
      "v": 107
    },
    {
      "midi": 70,
      "hit": false,
      "t": 45513.709249999316,
      "d": 51.36987499999668,
      "v": 53
    },
    {
      "midi": 69,
      "hit": false,
      "t": 45513.709249999316,
      "d": 51.36987499999668,
      "v": 43
    },
    {
      "midi": 35,
      "hit": false,
      "t": 45613.0243416663,
      "d": 154.10962499999732,
      "v": 107
    },
    {
      "midi": 69,
      "hit": false,
      "t": 45613.02434166664,
      "d": 154.10962499999732,
      "v": 98
    },
    {
      "midi": 72,
      "hit": false,
      "t": 45613.02434166664,
      "d": 154.10962499999732,
      "v": 96
    },
    {
      "midi": 64,
      "hit": false,
      "t": 45613.02434166664,
      "d": 154.10962499999732,
      "v": 93
    },
    {
      "midi": 109,
      "hit": false,
      "t": 45613.02434166665,
      "d": 51.36987499999668,
      "v": 127
    },
    {
      "midi": 52,
      "hit": false,
      "t": 45613.02434166678,
      "d": 205.47950000000128,
      "v": 82
    },
    {
      "midi": 57,
      "hit": false,
      "t": 45613.02434166678,
      "d": 205.47950000000128,
      "v": 95
    },
    {
      "midi": 70,
      "hit": false,
      "t": 45616.44899999931,
      "d": 51.36987499999668,
      "v": 60
    },
    {
      "midi": 69,
      "hit": false,
      "t": 45616.44899999931,
      "d": 51.36987499999668,
      "v": 50
    },
    {
      "midi": 38,
      "hit": false,
      "t": 45616.44899999972,
      "d": 51.36987499999668,
      "v": 88
    },
    {
      "midi": 40,
      "hit": false,
      "t": 45616.44899999972,
      "d": 51.36987499999668,
      "v": 88
    },
    {
      "midi": 36,
      "hit": false,
      "t": 45616.448999999804,
      "d": 51.36987499999668,
      "v": 107
    },
    {
      "midi": 13,
      "hit": false,
      "t": 45616.448999999804,
      "d": 51.36987499999668,
      "v": 127
    },
    {
      "midi": 55,
      "hit": false,
      "t": 45616.448999999935,
      "d": 205.47950000000128,
      "v": 79
    },
    {
      "midi": 71,
      "hit": false,
      "t": 45616.44900000004,
      "d": 205.47950000000128,
      "v": 80
    },
    {
      "midi": 42,
      "hit": false,
      "t": 45616.44900000005,
      "d": 102.73975000000064,
      "v": 107
    },
    {
      "midi": 70,
      "hit": false,
      "t": 45719.1887499993,
      "d": 51.36987499999668,
      "v": 49
    },
    {
      "midi": 69,
      "hit": false,
      "t": 45719.1887499993,
      "d": 51.36987499999668,
      "v": 39
    },
    {
      "midi": 36,
      "hit": false,
      "t": 45818.503841666294,
      "d": 154.10962499999732,
      "v": 107
    },
    {
      "midi": 64,
      "hit": false,
      "t": 45818.503841666636,
      "d": 102.73975000000064,
      "v": 116
    },
    {
      "midi": 72,
      "hit": false,
      "t": 45818.503841666636,
      "d": 102.73975000000064,
      "v": 121
    },
    {
      "midi": 69,
      "hit": false,
      "t": 45818.503841666636,
      "d": 102.73975000000064,
      "v": 125
    },
    {
      "midi": 57,
      "hit": false,
      "t": 45818.50384166678,
      "d": 205.47950000000128,
      "v": 75
    },
    {
      "midi": 52,
      "hit": false,
      "t": 45818.50384166678,
      "d": 205.47950000000128,
      "v": 75
    },
    {
      "midi": 70,
      "hit": false,
      "t": 45821.928499999296,
      "d": 51.36987499999668,
      "v": 109
    },
    {
      "midi": 69,
      "hit": false,
      "t": 45821.928499999296,
      "d": 51.36987499999668,
      "v": 99
    },
    {
      "midi": 38,
      "hit": false,
      "t": 45821.92849999971,
      "d": 51.36987499999668,
      "v": 68
    },
    {
      "midi": 40,
      "hit": false,
      "t": 45821.92849999971,
      "d": 51.36987499999668,
      "v": 68
    },
    {
      "midi": 36,
      "hit": false,
      "t": 45821.9284999998,
      "d": 51.36987499999668,
      "v": 107
    },
    {
      "midi": 13,
      "hit": false,
      "t": 45821.9284999998,
      "d": 51.36987499999668,
      "v": 127
    },
    {
      "midi": 52,
      "hit": false,
      "t": 45821.928499999936,
      "d": 102.73974999999336,
      "v": 53
    },
    {
      "midi": 72,
      "hit": false,
      "t": 45821.92850000004,
      "d": 205.47950000000128,
      "v": 80
    },
    {
      "midi": 46,
      "hit": false,
      "t": 45821.92850000008,
      "d": 102.73975000000064,
      "v": 107
    },
    {
      "midi": 66,
      "hit": false,
      "t": 45921.243591666636,
      "d": 1746.5757499999963,
      "v": 110
    },
    {
      "midi": 74,
      "hit": false,
      "t": 45921.243591666636,
      "d": 1746.5757499999963,
      "v": 108
    },
    {
      "midi": 69,
      "hit": false,
      "t": 45921.243591666636,
      "d": 1746.5757499999963,
      "v": 108
    },
    {
      "midi": 70,
      "hit": false,
      "t": 45924.66824999929,
      "d": 51.36987499999668,
      "v": 53
    },
    {
      "midi": 69,
      "hit": false,
      "t": 45924.66824999929,
      "d": 51.36987499999668,
      "v": 43
    },
    {
      "midi": 38,
      "hit": false,
      "t": 45924.668249999704,
      "d": 51.36987499999668,
      "v": 52
    },
    {
      "midi": 40,
      "hit": false,
      "t": 45924.668249999704,
      "d": 51.36987499999668,
      "v": 52
    },
    {
      "midi": 38,
      "hit": false,
      "t": 46023.98334166629,
      "d": 154.10962499999732,
      "v": 107
    },
    {
      "midi": 57,
      "hit": false,
      "t": 46023.98334166678,
      "d": 205.47950000000128,
      "v": 93
    },
    {
      "midi": 62,
      "hit": false,
      "t": 46023.98334166678,
      "d": 308.2192500000019,
      "v": 93
    },
    {
      "midi": 70,
      "hit": false,
      "t": 46027.40799999928,
      "d": 51.36987499999668,
      "v": 60
    },
    {
      "midi": 69,
      "hit": false,
      "t": 46027.40799999928,
      "d": 51.36987499999668,
      "v": 50
    },
    {
      "midi": 38,
      "hit": false,
      "t": 46027.4079999997,
      "d": 51.36987499999668,
      "v": 63
    },
    {
      "midi": 40,
      "hit": false,
      "t": 46027.4079999997,
      "d": 51.36987499999668,
      "v": 64
    },
    {
      "midi": 36,
      "hit": false,
      "t": 46027.40799999979,
      "d": 51.36987499999668,
      "v": 107
    },
    {
      "midi": 13,
      "hit": false,
      "t": 46027.40799999979,
      "d": 51.36987499999668,
      "v": 127
    },
    {
      "midi": 60,
      "hit": false,
      "t": 46027.40799999992,
      "d": 205.47949999997945,
      "v": 68
    },
    {
      "midi": 57,
      "hit": false,
      "t": 46027.40799999992,
      "d": 205.47949999997945,
      "v": 68
    },
    {
      "midi": 74,
      "hit": false,
      "t": 46027.40800000004,
      "d": 1541.0962500000023,
      "v": 80
    },
    {
      "midi": 62,
      "hit": false,
      "t": 46027.40800000005,
      "d": 1643.836000000003,
      "v": 80
    },
    {
      "midi": 60,
      "hit": false,
      "t": 46027.40800000005,
      "d": 1643.836000000003,
      "v": 80
    },
    {
      "midi": 66,
      "hit": false,
      "t": 46027.40800000005,
      "d": 1643.836000000003,
      "v": 80
    },
    {
      "midi": 57,
      "hit": false,
      "t": 46027.40800000005,
      "d": 1643.836000000003,
      "v": 80
    },
    {
      "midi": 42,
      "hit": false,
      "t": 46027.408000000054,
      "d": 102.73975000000064,
      "v": 107
    },
    {
      "midi": 70,
      "hit": false,
      "t": 46130.147749999276,
      "d": 51.36987499999668,
      "v": 49
    },
    {
      "midi": 69,
      "hit": false,
      "t": 46130.147749999276,
      "d": 51.36987499999668,
      "v": 39
    },
    {
      "midi": 50,
      "hit": false,
      "t": 46229.46284166628,
      "d": 51.36987499999668,
      "v": 107
    },
    {
      "midi": 57,
      "hit": false,
      "t": 46229.462841666784,
      "d": 102.73975000000064,
      "v": 45
    },
    {
      "midi": 50,
      "hit": false,
      "t": 46229.462841666784,
      "d": 102.73975000000064,
      "v": 45
    },
    {
      "midi": 70,
      "hit": false,
      "t": 46232.88749999927,
      "d": 51.36987499999668,
      "v": 109
    },
    {
      "midi": 69,
      "hit": false,
      "t": 46232.88749999927,
      "d": 51.36987499999668,
      "v": 99
    },
    {
      "midi": 57,
      "hit": false,
      "t": 46232.8874999999,
      "d": 102.73975000000064,
      "v": 49
    },
    {
      "midi": 60,
      "hit": false,
      "t": 46232.8874999999,
      "d": 102.73975000000064,
      "v": 49
    },
    {
      "midi": 46,
      "hit": false,
      "t": 46232.887500000084,
      "d": 102.73975000000064,
      "v": 107
    },
    {
      "midi": 50,
      "hit": false,
      "t": 46332.202591666275,
      "d": 51.36987499999668,
      "v": 107
    },
    {
      "midi": 50,
      "hit": false,
      "t": 46332.202591666784,
      "d": 102.73975000000064,
      "v": 78
    },
    {
      "midi": 57,
      "hit": false,
      "t": 46332.202591666784,
      "d": 102.73975000000064,
      "v": 78
    },
    {
      "midi": 70,
      "hit": false,
      "t": 46335.62724999926,
      "d": 51.36987499999668,
      "v": 53
    },
    {
      "midi": 69,
      "hit": false,
      "t": 46335.62724999926,
      "d": 51.36987499999668,
      "v": 43
    },
    {
      "midi": 57,
      "hit": false,
      "t": 46335.6272499999,
      "d": 102.73975000000064,
      "v": 81
    },
    {
      "midi": 60,
      "hit": false,
      "t": 46335.6272499999,
      "d": 102.73975000000064,
      "v": 81
    },
    {
      "midi": 38,
      "hit": false,
      "t": 46434.94234166627,
      "d": 154.10962499999732,
      "v": 107
    },
    {
      "midi": 109,
      "hit": false,
      "t": 46434.94234166665,
      "d": 51.36987499999668,
      "v": 127
    },
    {
      "midi": 50,
      "hit": false,
      "t": 46434.942341666785,
      "d": 102.73975000000064,
      "v": 45
    },
    {
      "midi": 57,
      "hit": false,
      "t": 46434.942341666785,
      "d": 102.73975000000064,
      "v": 45
    },
    {
      "midi": 70,
      "hit": false,
      "t": 46438.366999999256,
      "d": 51.36987499999668,
      "v": 60
    },
    {
      "midi": 69,
      "hit": false,
      "t": 46438.366999999256,
      "d": 51.36987499999668,
      "v": 50
    },
    {
      "midi": 38,
      "hit": false,
      "t": 46438.36699999969,
      "d": 51.36987499999668,
      "v": 88
    },
    {
      "midi": 40,
      "hit": false,
      "t": 46438.36699999969,
      "d": 51.36987499999668,
      "v": 88
    },
    {
      "midi": 36,
      "hit": false,
      "t": 46438.36699999979,
      "d": 51.36987499999668,
      "v": 107
    },
    {
      "midi": 13,
      "hit": false,
      "t": 46438.36699999979,
      "d": 51.36987499999668,
      "v": 127
    },
    {
      "midi": 42,
      "hit": false,
      "t": 46438.36700000006,
      "d": 102.73975000000064,
      "v": 107
    },
    {
      "midi": 70,
      "hit": false,
      "t": 46541.10674999925,
      "d": 51.36987499999668,
      "v": 49
    },
    {
      "midi": 69,
      "hit": false,
      "t": 46541.10674999925,
      "d": 51.36987499999668,
      "v": 39
    },
    {
      "midi": 50,
      "hit": false,
      "t": 46640.42184166626,
      "d": 51.36987499999668,
      "v": 107
    },
    {
      "midi": 62,
      "hit": false,
      "t": 46640.421841666786,
      "d": 205.47950000000128,
      "v": 95
    },
    {
      "midi": 57,
      "hit": false,
      "t": 46640.421841666786,
      "d": 205.47950000000128,
      "v": 95
    },
    {
      "midi": 70,
      "hit": false,
      "t": 46643.84649999924,
      "d": 51.36987499999668,
      "v": 109
    },
    {
      "midi": 69,
      "hit": false,
      "t": 46643.84649999924,
      "d": 51.36987499999668,
      "v": 99
    },
    {
      "midi": 60,
      "hit": false,
      "t": 46643.846499999905,
      "d": 102.73975000000064,
      "v": 81
    },
    {
      "midi": 57,
      "hit": false,
      "t": 46643.846499999905,
      "d": 102.73975000000064,
      "v": 81
    },
    {
      "midi": 46,
      "hit": false,
      "t": 46643.84650000009,
      "d": 205.47950000000128,
      "v": 107
    },
    {
      "midi": 50,
      "hit": false,
      "t": 46743.161591666256,
      "d": 51.36987499999668,
      "v": 107
    },
    {
      "midi": 70,
      "hit": false,
      "t": 46746.586249999236,
      "d": 51.36987499999668,
      "v": 53
    },
    {
      "midi": 69,
      "hit": false,
      "t": 46746.586249999236,
      "d": 51.36987499999668,
      "v": 43
    },
    {
      "midi": 38,
      "hit": false,
      "t": 46746.58624999969,
      "d": 51.36987499999668,
      "v": 88
    },
    {
      "midi": 40,
      "hit": false,
      "t": 46746.58624999969,
      "d": 51.36987499999668,
      "v": 88
    },
    {
      "midi": 38,
      "hit": false,
      "t": 46845.90134166625,
      "d": 154.10962499999732,
      "v": 107
    },
    {
      "midi": 57,
      "hit": false,
      "t": 46845.90134166679,
      "d": 102.73975000000064,
      "v": 45
    },
    {
      "midi": 50,
      "hit": false,
      "t": 46845.90134166679,
      "d": 102.73975000000064,
      "v": 45
    },
    {
      "midi": 70,
      "hit": false,
      "t": 46849.32599999923,
      "d": 51.36987499999668,
      "v": 60
    },
    {
      "midi": 69,
      "hit": false,
      "t": 46849.32599999923,
      "d": 51.36987499999668,
      "v": 50
    },
    {
      "midi": 36,
      "hit": false,
      "t": 46849.32599999978,
      "d": 51.36987499999668,
      "v": 107
    },
    {
      "midi": 13,
      "hit": false,
      "t": 46849.32599999978,
      "d": 51.36987499999668,
      "v": 127
    },
    {
      "midi": 42,
      "hit": false,
      "t": 46849.32600000006,
      "d": 102.73975000000064,
      "v": 102
    },
    {
      "midi": 70,
      "hit": false,
      "t": 46952.06574999922,
      "d": 51.36987499999668,
      "v": 49
    },
    {
      "midi": 69,
      "hit": false,
      "t": 46952.06574999922,
      "d": 51.36987499999668,
      "v": 39
    },
    {
      "midi": 38,
      "hit": false,
      "t": 46952.06574999968,
      "d": 51.36987499999668,
      "v": 69
    },
    {
      "midi": 40,
      "hit": false,
      "t": 46952.06574999968,
      "d": 51.36987499999668,
      "v": 69
    },
    {
      "midi": 50,
      "hit": false,
      "t": 47051.38084166624,
      "d": 51.36987499999668,
      "v": 107
    },
    {
      "midi": 57,
      "hit": false,
      "t": 47051.38084166679,
      "d": 616.4384999999966,
      "v": 85
    },
    {
      "midi": 62,
      "hit": false,
      "t": 47051.38084166679,
      "d": 616.4384999999966,
      "v": 95
    },
    {
      "midi": 70,
      "hit": false,
      "t": 47054.80549999922,
      "d": 51.36987499999668,
      "v": 109
    },
    {
      "midi": 69,
      "hit": false,
      "t": 47054.80549999922,
      "d": 51.36987499999668,
      "v": 99
    },
    {
      "midi": 60,
      "hit": false,
      "t": 47054.80549999991,
      "d": 616.4384999999966,
      "v": 89
    },
    {
      "midi": 57,
      "hit": false,
      "t": 47054.80549999991,
      "d": 616.4384999999966,
      "v": 89
    },
    {
      "midi": 46,
      "hit": false,
      "t": 47054.80550000009,
      "d": 102.73975000000064,
      "v": 107
    },
    {
      "midi": 70,
      "hit": false,
      "t": 47157.54524999921,
      "d": 51.36987499999668,
      "v": 53
    },
    {
      "midi": 69,
      "hit": false,
      "t": 47157.54524999921,
      "d": 51.36987499999668,
      "v": 43
    },
    {
      "midi": 38,
      "hit": false,
      "t": 47256.86034166624,
      "d": 154.10962499999732,
      "v": 107
    },
    {
      "midi": 109,
      "hit": false,
      "t": 47256.860341666645,
      "d": 51.36987499999668,
      "v": 127
    },
    {
      "midi": 70,
      "hit": false,
      "t": 47260.2849999992,
      "d": 51.36987499999668,
      "v": 60
    },
    {
      "midi": 69,
      "hit": false,
      "t": 47260.2849999992,
      "d": 51.36987499999668,
      "v": 50
    },
    {
      "midi": 38,
      "hit": false,
      "t": 47260.284999999676,
      "d": 51.36987499999668,
      "v": 88
    },
    {
      "midi": 40,
      "hit": false,
      "t": 47260.284999999676,
      "d": 51.36987499999668,
      "v": 88
    },
    {
      "midi": 36,
      "hit": false,
      "t": 47260.28499999978,
      "d": 51.36987499999668,
      "v": 107
    },
    {
      "midi": 13,
      "hit": false,
      "t": 47260.28499999978,
      "d": 51.36987499999668,
      "v": 127
    },
    {
      "midi": 42,
      "hit": false,
      "t": 47260.28500000006,
      "d": 102.73975000000064,
      "v": 107
    },
    {
      "midi": 70,
      "hit": false,
      "t": 47363.0247499992,
      "d": 51.36987499999668,
      "v": 49
    },
    {
      "midi": 69,
      "hit": false,
      "t": 47363.0247499992,
      "d": 51.36987499999668,
      "v": 39
    },
    {
      "midi": 50,
      "hit": false,
      "t": 47462.33984166623,
      "d": 51.36987499999668,
      "v": 107
    },
    {
      "midi": 70,
      "hit": false,
      "t": 47465.76449999919,
      "d": 51.36987499999668,
      "v": 109
    },
    {
      "midi": 69,
      "hit": false,
      "t": 47465.76449999919,
      "d": 51.36987499999668,
      "v": 99
    },
    {
      "midi": 38,
      "hit": false,
      "t": 47465.76449999967,
      "d": 51.36987499999668,
      "v": 68
    },
    {
      "midi": 40,
      "hit": false,
      "t": 47465.76449999967,
      "d": 51.36987499999668,
      "v": 68
    },
    {
      "midi": 46,
      "hit": false,
      "t": 47465.76450000009,
      "d": 102.73975000000064,
      "v": 107
    },
    {
      "midi": 70,
      "hit": false,
      "t": 47568.50424999918,
      "d": 51.36987499999668,
      "v": 53
    },
    {
      "midi": 69,
      "hit": false,
      "t": 47568.50424999918,
      "d": 51.36987499999668,
      "v": 43
    },
    {
      "midi": 38,
      "hit": false,
      "t": 47568.50424999966,
      "d": 51.36987499999668,
      "v": 52
    },
    {
      "midi": 40,
      "hit": false,
      "t": 47568.50424999966,
      "d": 51.36987499999668,
      "v": 52
    },
    {
      "midi": 62,
      "hit": false,
      "t": 47667.819341666676,
      "d": 205.47950000000128,
      "v": 127
    },
    {
      "midi": 62,
      "hit": false,
      "t": 47671.243999999984,
      "d": 410.95900000000256,
      "v": 127
    },
    {
      "midi": 67,
      "hit": false,
      "t": 47976.03859166668,
      "d": 205.47950000000128,
      "v": 127
    },
    {
      "midi": 67,
      "hit": false,
      "t": 47979.463249999986,
      "d": 410.95900000000256,
      "v": 127
    },
    {
      "midi": 72,
      "hit": false,
      "t": 48284.25784166668,
      "d": 102.73975000000064,
      "v": 127
    },
    {
      "midi": 72,
      "hit": false,
      "t": 48287.68249999999,
      "d": 308.2192500000019,
      "v": 127
    },
    {
      "midi": 77,
      "hit": false,
      "t": 48489.73734166668,
      "d": 102.73975000000064,
      "v": 127
    },
    {
      "midi": 77,
      "hit": false,
      "t": 48493.16199999999,
      "d": 308.2192500000019,
      "v": 127
    },
    {
      "midi": 82,
      "hit": false,
      "t": 48695.21684166668,
      "d": 102.73975000000064,
      "v": 127
    },
    {
      "midi": 38,
      "hit": false,
      "t": 48698.64149999966,
      "d": 51.36987499999668,
      "v": 127
    },
    {
      "midi": 40,
      "hit": false,
      "t": 48698.64149999966,
      "d": 51.36987499999668,
      "v": 127
    },
    {
      "midi": 82,
      "hit": false,
      "t": 48698.64149999999,
      "d": 205.47950000000128,
      "v": 127
    },
    {
      "midi": 38,
      "hit": false,
      "t": 48900.696341666226,
      "d": 256.84937499999796,
      "v": 107
    },
    {
      "midi": 109,
      "hit": false,
      "t": 48900.69634166664,
      "d": 51.36987499999668,
      "v": 127
    },
    {
      "midi": 74,
      "hit": false,
      "t": 48900.69634166668,
      "d": 410.95900000000256,
      "v": 110
    },
    {
      "midi": 69,
      "hit": false,
      "t": 48900.69634166668,
      "d": 410.95900000000256,
      "v": 122
    },
    {
      "midi": 66,
      "hit": false,
      "t": 48900.69634166668,
      "d": 410.95900000000256,
      "v": 122
    },
    {
      "midi": 62,
      "hit": false,
      "t": 48900.69634166668,
      "d": 410.95900000000256,
      "v": 110
    },
    {
      "midi": 70,
      "hit": false,
      "t": 48904.12099999918,
      "d": 51.36987499999668,
      "v": 60
    },
    {
      "midi": 69,
      "hit": false,
      "t": 48904.12099999918,
      "d": 51.36987499999668,
      "v": 50
    },
    {
      "midi": 38,
      "hit": false,
      "t": 48904.12099999966,
      "d": 51.36987499999668,
      "v": 88
    },
    {
      "midi": 40,
      "hit": false,
      "t": 48904.12099999966,
      "d": 51.36987499999668,
      "v": 88
    },
    {
      "midi": 36,
      "hit": false,
      "t": 48904.12099999977,
      "d": 51.36987499999668,
      "v": 107
    },
    {
      "midi": 13,
      "hit": false,
      "t": 48904.12099999977,
      "d": 51.36987499999668,
      "v": 127
    },
    {
      "midi": 49,
      "hit": false,
      "t": 48904.120999999985,
      "d": 51.36987499999668,
      "v": 84
    },
    {
      "midi": 74,
      "hit": false,
      "t": 48904.121000000014,
      "d": 410.95900000000256,
      "v": 110
    },
    {
      "midi": 69,
      "hit": false,
      "t": 48904.121000000014,
      "d": 410.95900000000256,
      "v": 122
    },
    {
      "midi": 66,
      "hit": false,
      "t": 48904.121000000014,
      "d": 410.95900000000256,
      "v": 122
    },
    {
      "midi": 62,
      "hit": false,
      "t": 48904.121000000014,
      "d": 410.95900000000256,
      "v": 110
    },
    {
      "midi": 74,
      "hit": false,
      "t": 48904.121000000014,
      "d": 410.95900000000256,
      "v": 110
    },
    {
      "midi": 69,
      "hit": false,
      "t": 48904.121000000014,
      "d": 410.95900000000256,
      "v": 122
    },
    {
      "midi": 66,
      "hit": false,
      "t": 48904.121000000014,
      "d": 410.95900000000256,
      "v": 122
    },
    {
      "midi": 62,
      "hit": false,
      "t": 48904.121000000014,
      "d": 410.95900000000256,
      "v": 110
    },
    {
      "midi": 42,
      "hit": false,
      "t": 48904.121000000065,
      "d": 102.73975000000064,
      "v": 107
    },
    {
      "midi": 70,
      "hit": false,
      "t": 49006.86074999917,
      "d": 51.36987499999668,
      "v": 49
    },
    {
      "midi": 69,
      "hit": false,
      "t": 49006.86074999917,
      "d": 51.36987499999668,
      "v": 39
    },
    {
      "midi": 38,
      "hit": false,
      "t": 49006.86074999965,
      "d": 51.36987499999668,
      "v": 86
    },
    {
      "midi": 40,
      "hit": false,
      "t": 49006.86074999965,
      "d": 51.36987499999668,
      "v": 88
    },
    {
      "midi": 70,
      "hit": false,
      "t": 49109.600499999164,
      "d": 51.36987499999668,
      "v": 109
    },
    {
      "midi": 69,
      "hit": false,
      "t": 49109.600499999164,
      "d": 51.36987499999668,
      "v": 99
    },
    {
      "midi": 38,
      "hit": false,
      "t": 49109.600499999644,
      "d": 51.36987499999668,
      "v": 86
    },
    {
      "midi": 40,
      "hit": false,
      "t": 49109.600499999644,
      "d": 51.36987499999668,
      "v": 86
    },
    {
      "midi": 46,
      "hit": false,
      "t": 49109.600500000095,
      "d": 102.73975000000064,
      "v": 107
    },
    {
      "midi": 70,
      "hit": false,
      "t": 49212.34024999916,
      "d": 51.36987499999668,
      "v": 53
    },
    {
      "midi": 69,
      "hit": false,
      "t": 49212.34024999916,
      "d": 51.36987499999668,
      "v": 43
    },
    {
      "midi": 38,
      "hit": false,
      "t": 49212.34024999964,
      "d": 51.36987499999668,
      "v": 86
    },
    {
      "midi": 40,
      "hit": false,
      "t": 49212.34024999964,
      "d": 51.36987499999668,
      "v": 88
    },
    {
      "midi": 62,
      "hit": false,
      "t": 49311.65534166618,
      "d": 280.8219833333351,
      "v": 117
    },
    {
      "midi": 31,
      "hit": false,
      "t": 49311.65534166622,
      "d": 154.10962499999732,
      "v": 107
    },
    {
      "midi": 62,
      "hit": false,
      "t": 49311.655341666636,
      "d": 205.47950000000128,
      "v": 127
    },
    {
      "midi": 71,
      "hit": false,
      "t": 49311.655341666636,
      "d": 226.0274500000014,
      "v": 119
    },
    {
      "midi": 67,
      "hit": false,
      "t": 49311.655341666636,
      "d": 226.0274500000014,
      "v": 114
    },
    {
      "midi": 50,
      "hit": false,
      "t": 49311.65534166679,
      "d": 308.2192500000019,
      "v": 78
    },
    {
      "midi": 55,
      "hit": false,
      "t": 49311.65534166679,
      "d": 308.2192500000019,
      "v": 95
    },
    {
      "midi": 70,
      "hit": false,
      "t": 49315.07999999915,
      "d": 51.36987499999668,
      "v": 60
    },
    {
      "midi": 69,
      "hit": false,
      "t": 49315.07999999915,
      "d": 51.36987499999668,
      "v": 50
    },
    {
      "midi": 38,
      "hit": false,
      "t": 49315.07999999963,
      "d": 51.36987499999668,
      "v": 88
    },
    {
      "midi": 40,
      "hit": false,
      "t": 49315.07999999963,
      "d": 51.36987499999668,
      "v": 88
    },
    {
      "midi": 36,
      "hit": false,
      "t": 49315.07999999977,
      "d": 51.36987499999668,
      "v": 107
    },
    {
      "midi": 13,
      "hit": false,
      "t": 49315.07999999977,
      "d": 51.36987499999668,
      "v": 127
    },
    {
      "midi": 71,
      "hit": false,
      "t": 49315.07999999991,
      "d": 102.73975000000064,
      "v": 78
    },
    {
      "midi": 67,
      "hit": false,
      "t": 49315.07999999991,
      "d": 102.73975000000064,
      "v": 89
    },
    {
      "midi": 62,
      "hit": false,
      "t": 49315.07999999991,
      "d": 102.73975000000064,
      "v": 88
    },
    {
      "midi": 79,
      "hit": false,
      "t": 49315.08000000001,
      "d": 1222.6030249999967,
      "v": 103
    },
    {
      "midi": 67,
      "hit": false,
      "t": 49315.08000000001,
      "d": 1222.6030249999967,
      "v": 90
    },
    {
      "midi": 59,
      "hit": false,
      "t": 49315.08000000005,
      "d": 1643.836000000003,
      "v": 80
    },
    {
      "midi": 67,
      "hit": false,
      "t": 49315.08000000005,
      "d": 1643.836000000003,
      "v": 80
    },
    {
      "midi": 62,
      "hit": false,
      "t": 49315.08000000005,
      "d": 1643.836000000003,
      "v": 80
    },
    {
      "midi": 42,
      "hit": false,
      "t": 49315.08000000007,
      "d": 102.73975000000064,
      "v": 107
    },
    {
      "midi": 70,
      "hit": false,
      "t": 49417.819749999144,
      "d": 51.36987499999668,
      "v": 49
    },
    {
      "midi": 69,
      "hit": false,
      "t": 49417.819749999144,
      "d": 51.36987499999668,
      "v": 39
    },
    {
      "midi": 43,
      "hit": false,
      "t": 49517.134841666215,
      "d": 51.36987499999668,
      "v": 107
    },
    {
      "midi": 70,
      "hit": false,
      "t": 49520.55949999914,
      "d": 51.36987499999668,
      "v": 109
    },
    {
      "midi": 69,
      "hit": false,
      "t": 49520.55949999914,
      "d": 51.36987499999668,
      "v": 99
    },
    {
      "midi": 71,
      "hit": false,
      "t": 49520.55949999991,
      "d": 102.73975000000064,
      "v": 36
    },
    {
      "midi": 67,
      "hit": false,
      "t": 49520.55949999991,
      "d": 102.73975000000064,
      "v": 42
    },
    {
      "midi": 62,
      "hit": false,
      "t": 49520.55949999991,
      "d": 102.73975000000064,
      "v": 42
    },
    {
      "midi": 46,
      "hit": false,
      "t": 49520.5595000001,
      "d": 102.73975000000064,
      "v": 107
    },
    {
      "midi": 67,
      "hit": false,
      "t": 49619.87459166618,
      "d": 345.89049166665063,
      "v": 127
    },
    {
      "midi": 43,
      "hit": false,
      "t": 49619.87459166621,
      "d": 51.36987499999668,
      "v": 107
    },
    {
      "midi": 62,
      "hit": false,
      "t": 49619.87459166664,
      "d": 178.08223333333444,
      "v": 121
    },
    {
      "midi": 67,
      "hit": false,
      "t": 49619.87459166664,
      "d": 181.50689166666416,
      "v": 110
    },
    {
      "midi": 71,
      "hit": false,
      "t": 49619.87459166664,
      "d": 184.93154999999388,
      "v": 108
    },
    {
      "midi": 70,
      "hit": false,
      "t": 49623.29924999913,
      "d": 51.36987499999668,
      "v": 53
    },
    {
      "midi": 69,
      "hit": false,
      "t": 49623.29924999913,
      "d": 51.36987499999668,
      "v": 43
    },
    {
      "midi": 71,
      "hit": false,
      "t": 49623.29924999991,
      "d": 102.73975000000064,
      "v": 79
    },
    {
      "midi": 62,
      "hit": false,
      "t": 49623.29924999991,
      "d": 102.73975000000064,
      "v": 83
    },
    {
      "midi": 67,
      "hit": false,
      "t": 49623.29924999991,
      "d": 102.73975000000064,
      "v": 88
    },
    {
      "midi": 31,
      "hit": false,
      "t": 49722.6143416662,
      "d": 154.10962499999732,
      "v": 107
    },
    {
      "midi": 109,
      "hit": false,
      "t": 49722.61434166664,
      "d": 51.36987499999668,
      "v": 127
    },
    {
      "midi": 74,
      "hit": false,
      "t": 49722.61434166668,
      "d": 308.2192500000019,
      "v": 115
    },
    {
      "midi": 62,
      "hit": false,
      "t": 49722.61434166668,
      "d": 308.2192500000019,
      "v": 115
    },
    {
      "midi": 69,
      "hit": false,
      "t": 49722.61434166668,
      "d": 308.2192500000019,
      "v": 115
    },
    {
      "midi": 67,
      "hit": false,
      "t": 49722.61434166668,
      "d": 308.2192500000019,
      "v": 122
    },
    {
      "midi": 50,
      "hit": false,
      "t": 49722.61434166679,
      "d": 205.47950000000128,
      "v": 63
    },
    {
      "midi": 55,
      "hit": false,
      "t": 49722.61434166679,
      "d": 205.47950000000128,
      "v": 82
    },
    {
      "midi": 70,
      "hit": false,
      "t": 49726.038999999124,
      "d": 51.36987499999668,
      "v": 60
    },
    {
      "midi": 69,
      "hit": false,
      "t": 49726.038999999124,
      "d": 51.36987499999668,
      "v": 50
    },
    {
      "midi": 38,
      "hit": false,
      "t": 49726.038999999626,
      "d": 51.36987499999668,
      "v": 63
    },
    {
      "midi": 40,
      "hit": false,
      "t": 49726.038999999626,
      "d": 51.36987499999668,
      "v": 64
    },
    {
      "midi": 36,
      "hit": false,
      "t": 49726.038999999764,
      "d": 51.36987499999668,
      "v": 107
    },
    {
      "midi": 13,
      "hit": false,
      "t": 49726.038999999764,
      "d": 51.36987499999668,
      "v": 127
    },
    {
      "midi": 74,
      "hit": false,
      "t": 49726.03900000002,
      "d": 308.2192500000019,
      "v": 115
    },
    {
      "midi": 62,
      "hit": false,
      "t": 49726.03900000002,
      "d": 308.2192500000019,
      "v": 115
    },
    {
      "midi": 69,
      "hit": false,
      "t": 49726.03900000002,
      "d": 308.2192500000019,
      "v": 115
    },
    {
      "midi": 67,
      "hit": false,
      "t": 49726.03900000002,
      "d": 308.2192500000019,
      "v": 122
    },
    {
      "midi": 74,
      "hit": false,
      "t": 49726.03900000002,
      "d": 308.2192500000019,
      "v": 115
    },
    {
      "midi": 62,
      "hit": false,
      "t": 49726.03900000002,
      "d": 308.2192500000019,
      "v": 115
    },
    {
      "midi": 69,
      "hit": false,
      "t": 49726.03900000002,
      "d": 308.2192500000019,
      "v": 115
    },
    {
      "midi": 67,
      "hit": false,
      "t": 49726.03900000002,
      "d": 308.2192500000019,
      "v": 122
    },
    {
      "midi": 42,
      "hit": false,
      "t": 49726.03900000007,
      "d": 102.73975000000064,
      "v": 107
    },
    {
      "midi": 70,
      "hit": false,
      "t": 49828.77874999912,
      "d": 51.36987499999668,
      "v": 49
    },
    {
      "midi": 69,
      "hit": false,
      "t": 49828.77874999912,
      "d": 51.36987499999668,
      "v": 39
    },
    {
      "midi": 71,
      "hit": false,
      "t": 49828.77874999991,
      "d": 102.73975000000064,
      "v": 37
    },
    {
      "midi": 62,
      "hit": false,
      "t": 49828.77874999991,
      "d": 102.73975000000064,
      "v": 39
    },
    {
      "midi": 67,
      "hit": false,
      "t": 49828.77874999991,
      "d": 102.73975000000064,
      "v": 42
    },
    {
      "midi": 66,
      "hit": false,
      "t": 49928.09384166617,
      "d": 239.72608333332028,
      "v": 109
    },
    {
      "midi": 43,
      "hit": false,
      "t": 49928.093841666196,
      "d": 51.36987499999668,
      "v": 107
    },
    {
      "midi": 62,
      "hit": false,
      "t": 49928.09384166663,
      "d": 85.61645833333023,
      "v": 125
    },
    {
      "midi": 67,
      "hit": false,
      "t": 49928.09384166663,
      "d": 89.04111666665995,
      "v": 112
    },
    {
      "midi": 71,
      "hit": false,
      "t": 49928.09384166663,
      "d": 95.89043333332665,
      "v": 114
    },
    {
      "midi": 70,
      "hit": false,
      "t": 49931.51849999911,
      "d": 51.36987499999668,
      "v": 109
    },
    {
      "midi": 69,
      "hit": false,
      "t": 49931.51849999911,
      "d": 51.36987499999668,
      "v": 99
    },
    {
      "midi": 71,
      "hit": false,
      "t": 49931.51849999991,
      "d": 102.73975000000064,
      "v": 66
    },
    {
      "midi": 62,
      "hit": false,
      "t": 49931.51849999991,
      "d": 102.73975000000064,
      "v": 78
    },
    {
      "midi": 67,
      "hit": false,
      "t": 49931.51849999991,
      "d": 102.73975000000064,
      "v": 79
    },
    {
      "midi": 46,
      "hit": false,
      "t": 49931.5185000001,
      "d": 205.47950000000128,
      "v": 107
    },
    {
      "midi": 43,
      "hit": false,
      "t": 50030.83359166619,
      "d": 51.36987499999668,
      "v": 107
    },
    {
      "midi": 50,
      "hit": false,
      "t": 50030.83359166679,
      "d": 102.73975000000064,
      "v": 63
    },
    {
      "midi": 55,
      "hit": false,
      "t": 50030.83359166679,
      "d": 102.73975000000064,
      "v": 75
    },
    {
      "midi": 70,
      "hit": false,
      "t": 50034.258249999104,
      "d": 51.36987499999668,
      "v": 53
    },
    {
      "midi": 69,
      "hit": false,
      "t": 50034.258249999104,
      "d": 51.36987499999668,
      "v": 43
    },
    {
      "midi": 38,
      "hit": false,
      "t": 50034.25824999962,
      "d": 51.36987499999668,
      "v": 88
    },
    {
      "midi": 40,
      "hit": false,
      "t": 50034.25824999962,
      "d": 51.36987499999668,
      "v": 88
    },
    {
      "midi": 67,
      "hit": false,
      "t": 50133.57334166615,
      "d": 386.9863916666509,
      "v": 127
    },
    {
      "midi": 31,
      "hit": false,
      "t": 50133.57334166618,
      "d": 154.10962499999732,
      "v": 107
    },
    {
      "midi": 67,
      "hit": false,
      "t": 50133.573341666626,
      "d": 280.8219833332987,
      "v": 110
    },
    {
      "midi": 62,
      "hit": false,
      "t": 50133.573341666626,
      "d": 280.8219833332987,
      "v": 125
    },
    {
      "midi": 71,
      "hit": false,
      "t": 50133.573341666626,
      "d": 294.5206166666321,
      "v": 108
    },
    {
      "midi": 70,
      "hit": false,
      "t": 50136.9979999991,
      "d": 51.36987499999668,
      "v": 60
    },
    {
      "midi": 69,
      "hit": false,
      "t": 50136.9979999991,
      "d": 51.36987499999668,
      "v": 50
    },
    {
      "midi": 36,
      "hit": false,
      "t": 50136.99799999976,
      "d": 51.36987499999668,
      "v": 107
    },
    {
      "midi": 13,
      "hit": false,
      "t": 50136.99799999976,
      "d": 51.36987499999668,
      "v": 127
    },
    {
      "midi": 71,
      "hit": false,
      "t": 50136.99799999991,
      "d": 102.73975000000064,
      "v": 31
    },
    {
      "midi": 62,
      "hit": false,
      "t": 50136.99799999991,
      "d": 102.73975000000064,
      "v": 36
    },
    {
      "midi": 67,
      "hit": false,
      "t": 50136.99799999991,
      "d": 102.73975000000064,
      "v": 37
    },
    {
      "midi": 42,
      "hit": false,
      "t": 50136.99800000007,
      "d": 102.73975000000064,
      "v": 102
    },
    {
      "midi": 70,
      "hit": false,
      "t": 50239.73774999909,
      "d": 51.36987499999668,
      "v": 49
    },
    {
      "midi": 69,
      "hit": false,
      "t": 50239.73774999909,
      "d": 51.36987499999668,
      "v": 39
    },
    {
      "midi": 38,
      "hit": false,
      "t": 50239.737749999615,
      "d": 51.36987499999668,
      "v": 69
    },
    {
      "midi": 40,
      "hit": false,
      "t": 50239.737749999615,
      "d": 51.36987499999668,
      "v": 69
    },
    {
      "midi": 71,
      "hit": false,
      "t": 50239.73774999991,
      "d": 102.73975000000064,
      "v": 71
    },
    {
      "midi": 67,
      "hit": false,
      "t": 50239.73774999991,
      "d": 102.73975000000064,
      "v": 78
    },
    {
      "midi": 62,
      "hit": false,
      "t": 50239.73774999991,
      "d": 102.73975000000064,
      "v": 78
    },
    {
      "midi": 43,
      "hit": false,
      "t": 50339.05284166618,
      "d": 51.36987499999668,
      "v": 107
    },
    {
      "midi": 55,
      "hit": false,
      "t": 50339.052841666795,
      "d": 308.2192500000019,
      "v": 85
    },
    {
      "midi": 50,
      "hit": false,
      "t": 50339.052841666795,
      "d": 308.2192500000019,
      "v": 75
    },
    {
      "midi": 70,
      "hit": false,
      "t": 50342.477499999084,
      "d": 51.36987499999668,
      "v": 109
    },
    {
      "midi": 69,
      "hit": false,
      "t": 50342.477499999084,
      "d": 51.36987499999668,
      "v": 99
    },
    {
      "midi": 46,
      "hit": false,
      "t": 50342.4775000001,
      "d": 102.73975000000064,
      "v": 107
    },
    {
      "midi": 43,
      "hit": false,
      "t": 50441.79259166617,
      "d": 51.36987499999668,
      "v": 107
    },
    {
      "midi": 70,
      "hit": false,
      "t": 50445.21724999908,
      "d": 51.36987499999668,
      "v": 53
    },
    {
      "midi": 69,
      "hit": false,
      "t": 50445.21724999908,
      "d": 51.36987499999668,
      "v": 43
    },
    {
      "midi": 71,
      "hit": false,
      "t": 50445.217249999914,
      "d": 102.73975000000064,
      "v": 33
    },
    {
      "midi": 67,
      "hit": false,
      "t": 50445.217249999914,
      "d": 102.73975000000064,
      "v": 36
    },
    {
      "midi": 62,
      "hit": false,
      "t": 50445.217249999914,
      "d": 102.73975000000064,
      "v": 36
    },
    {
      "midi": 62,
      "hit": false,
      "t": 50544.532341666134,
      "d": 270.5480083333314,
      "v": 105
    },
    {
      "midi": 31,
      "hit": false,
      "t": 50544.53234166616,
      "d": 154.10962499999732,
      "v": 107
    },
    {
      "midi": 67,
      "hit": false,
      "t": 50544.53234166659,
      "d": 280.8219833332914,
      "v": 116
    },
    {
      "midi": 62,
      "hit": false,
      "t": 50544.53234166659,
      "d": 280.8219833332914,
      "v": 125
    },
    {
      "midi": 71,
      "hit": false,
      "t": 50544.53234166659,
      "d": 284.24664166662114,
      "v": 119
    },
    {
      "midi": 109,
      "hit": false,
      "t": 50544.532341666636,
      "d": 51.36987499999668,
      "v": 127
    },
    {
      "midi": 70,
      "hit": false,
      "t": 50547.95699999907,
      "d": 51.36987499999668,
      "v": 60
    },
    {
      "midi": 69,
      "hit": false,
      "t": 50547.95699999907,
      "d": 51.36987499999668,
      "v": 50
    },
    {
      "midi": 38,
      "hit": false,
      "t": 50547.95699999961,
      "d": 51.36987499999668,
      "v": 88
    },
    {
      "midi": 40,
      "hit": false,
      "t": 50547.95699999961,
      "d": 51.36987499999668,
      "v": 88
    },
    {
      "midi": 36,
      "hit": false,
      "t": 50547.956999999755,
      "d": 51.36987499999668,
      "v": 107
    },
    {
      "midi": 13,
      "hit": false,
      "t": 50547.956999999755,
      "d": 51.36987499999668,
      "v": 127
    },
    {
      "midi": 71,
      "hit": false,
      "t": 50547.956999999915,
      "d": 102.73975000000064,
      "v": 78
    },
    {
      "midi": 67,
      "hit": false,
      "t": 50547.956999999915,
      "d": 102.73975000000064,
      "v": 85
    },
    {
      "midi": 62,
      "hit": false,
      "t": 50547.956999999915,
      "d": 102.73975000000064,
      "v": 82
    },
    {
      "midi": 78,
      "hit": false,
      "t": 50547.957,
      "d": 205.47950000000128,
      "v": 95
    },
    {
      "midi": 66,
      "hit": false,
      "t": 50547.957,
      "d": 205.47950000000128,
      "v": 84
    },
    {
      "midi": 42,
      "hit": false,
      "t": 50547.957000000075,
      "d": 102.73975000000064,
      "v": 107
    },
    {
      "midi": 70,
      "hit": false,
      "t": 50650.696749999064,
      "d": 51.36987499999668,
      "v": 49
    },
    {
      "midi": 69,
      "hit": false,
      "t": 50650.696749999064,
      "d": 51.36987499999668,
      "v": 39
    },
    {
      "midi": 43,
      "hit": false,
      "t": 50750.01184166616,
      "d": 51.36987499999668,
      "v": 107
    },
    {
      "midi": 50,
      "hit": false,
      "t": 50750.0118416668,
      "d": 102.73975000000064,
      "v": 65
    },
    {
      "midi": 55,
      "hit": false,
      "t": 50750.0118416668,
      "d": 102.73975000000064,
      "v": 71
    },
    {
      "midi": 70,
      "hit": false,
      "t": 50753.43649999906,
      "d": 51.36987499999668,
      "v": 109
    },
    {
      "midi": 69,
      "hit": false,
      "t": 50753.43649999906,
      "d": 51.36987499999668,
      "v": 99
    },
    {
      "midi": 38,
      "hit": false,
      "t": 50753.4364999996,
      "d": 51.36987499999668,
      "v": 68
    },
    {
      "midi": 40,
      "hit": false,
      "t": 50753.4364999996,
      "d": 51.36987499999668,
      "v": 68
    },
    {
      "midi": 71,
      "hit": false,
      "t": 50753.436499999916,
      "d": 102.73975000000064,
      "v": 36
    },
    {
      "midi": 67,
      "hit": false,
      "t": 50753.436499999916,
      "d": 102.73975000000064,
      "v": 41
    },
    {
      "midi": 62,
      "hit": false,
      "t": 50753.436499999916,
      "d": 102.73975000000064,
      "v": 39
    },
    {
      "midi": 79,
      "hit": false,
      "t": 50753.4365,
      "d": 205.47950000000128,
      "v": 98
    },
    {
      "midi": 67,
      "hit": false,
      "t": 50753.4365,
      "d": 205.47950000000128,
      "v": 87
    },
    {
      "midi": 46,
      "hit": false,
      "t": 50753.436500000105,
      "d": 102.73975000000064,
      "v": 107
    },
    {
      "midi": 43,
      "hit": false,
      "t": 50852.75159166615,
      "d": 51.36987499999668,
      "v": 107
    },
    {
      "midi": 55,
      "hit": false,
      "t": 50852.7515916668,
      "d": 102.73975000000064,
      "v": 71
    },
    {
      "midi": 50,
      "hit": false,
      "t": 50852.7515916668,
      "d": 102.73975000000064,
      "v": 65
    },
    {
      "midi": 70,
      "hit": false,
      "t": 50856.17624999905,
      "d": 51.36987499999668,
      "v": 53
    },
    {
      "midi": 69,
      "hit": false,
      "t": 50856.17624999905,
      "d": 51.36987499999668,
      "v": 43
    },
    {
      "midi": 38,
      "hit": false,
      "t": 50856.1762499996,
      "d": 51.36987499999668,
      "v": 52
    },
    {
      "midi": 40,
      "hit": false,
      "t": 50856.1762499996,
      "d": 51.36987499999668,
      "v": 52
    },
    {
      "midi": 62,
      "hit": false,
      "t": 50856.17624999992,
      "d": 102.73975000000064,
      "v": 78
    },
    {
      "midi": 71,
      "hit": false,
      "t": 50856.17624999992,
      "d": 102.73975000000064,
      "v": 85
    },
    {
      "midi": 67,
      "hit": false,
      "t": 50856.17624999992,
      "d": 102.73975000000064,
      "v": 103
    },
    {
      "midi": 62,
      "hit": false,
      "t": 50955.49134166613,
      "d": 417.8083166666547,
      "v": 104
    },
    {
      "midi": 30,
      "hit": false,
      "t": 50955.491341666144,
      "d": 154.10962499999732,
      "v": 107
    },
    {
      "midi": 66,
      "hit": false,
      "t": 50955.491341666544,
      "d": 273.9726666666684,
      "v": 121
    },
    {
      "midi": 69,
      "hit": false,
      "t": 50955.491341666544,
      "d": 294.5206166666685,
      "v": 119
    },
    {
      "midi": 62,
      "hit": false,
      "t": 50955.491341666544,
      "d": 297.9452749999982,
      "v": 125
    },
    {
      "midi": 50,
      "hit": false,
      "t": 50955.4913416668,
      "d": 308.2192500000019,
      "v": 63
    },
    {
      "midi": 54,
      "hit": false,
      "t": 50955.4913416668,
      "d": 308.2192500000019,
      "v": 113
    },
    {
      "midi": 70,
      "hit": false,
      "t": 50958.915999999044,
      "d": 51.36987499999668,
      "v": 60
    },
    {
      "midi": 69,
      "hit": false,
      "t": 50958.915999999044,
      "d": 51.36987499999668,
      "v": 50
    },
    {
      "midi": 38,
      "hit": false,
      "t": 50958.91599999959,
      "d": 51.36987499999668,
      "v": 63
    },
    {
      "midi": 40,
      "hit": false,
      "t": 50958.91599999959,
      "d": 51.36987499999668,
      "v": 63
    },
    {
      "midi": 36,
      "hit": false,
      "t": 50958.91599999975,
      "d": 51.36987499999668,
      "v": 107
    },
    {
      "midi": 13,
      "hit": false,
      "t": 50958.91599999975,
      "d": 51.36987499999668,
      "v": 127
    },
    {
      "midi": 69,
      "hit": false,
      "t": 50958.91599999992,
      "d": 102.73975000000064,
      "v": 72
    },
    {
      "midi": 66,
      "hit": false,
      "t": 50958.91599999992,
      "d": 102.73975000000064,
      "v": 91
    },
    {
      "midi": 62,
      "hit": false,
      "t": 50958.91599999992,
      "d": 102.73975000000064,
      "v": 68
    },
    {
      "midi": 81,
      "hit": false,
      "t": 50958.916000000005,
      "d": 1222.6030249999967,
      "v": 107
    },
    {
      "midi": 69,
      "hit": false,
      "t": 50958.916000000005,
      "d": 1222.6030249999967,
      "v": 92
    },
    {
      "midi": 66,
      "hit": false,
      "t": 50958.916000000056,
      "d": 1643.836000000003,
      "v": 80
    },
    {
      "midi": 62,
      "hit": false,
      "t": 50958.916000000056,
      "d": 1643.836000000003,
      "v": 80
    },
    {
      "midi": 57,
      "hit": false,
      "t": 50958.916000000056,
      "d": 1643.836000000003,
      "v": 80
    },
    {
      "midi": 42,
      "hit": false,
      "t": 50958.91600000008,
      "d": 102.73975000000064,
      "v": 107
    },
    {
      "midi": 70,
      "hit": false,
      "t": 51061.65574999904,
      "d": 51.36987499999668,
      "v": 49
    },
    {
      "midi": 69,
      "hit": false,
      "t": 51061.65574999904,
      "d": 51.36987499999668,
      "v": 39
    },
    {
      "midi": 42,
      "hit": false,
      "t": 51160.97084166614,
      "d": 51.36987499999668,
      "v": 107
    },
    {
      "midi": 70,
      "hit": false,
      "t": 51164.39549999903,
      "d": 51.36987499999668,
      "v": 109
    },
    {
      "midi": 69,
      "hit": false,
      "t": 51164.39549999903,
      "d": 51.36987499999668,
      "v": 99
    },
    {
      "midi": 69,
      "hit": false,
      "t": 51164.39549999992,
      "d": 102.73975000000064,
      "v": 107
    },
    {
      "midi": 62,
      "hit": false,
      "t": 51164.39549999992,
      "d": 102.73975000000064,
      "v": 32
    },
    {
      "midi": 66,
      "hit": false,
      "t": 51164.39549999992,
      "d": 102.73975000000064,
      "v": 44
    },
    {
      "midi": 46,
      "hit": false,
      "t": 51164.39550000011,
      "d": 102.73975000000064,
      "v": 107
    },
    {
      "midi": 42,
      "hit": false,
      "t": 51263.71059166613,
      "d": 51.36987499999668,
      "v": 107
    },
    {
      "midi": 70,
      "hit": false,
      "t": 51267.135249999024,
      "d": 51.36987499999668,
      "v": 53
    },
    {
      "midi": 69,
      "hit": false,
      "t": 51267.135249999024,
      "d": 51.36987499999668,
      "v": 43
    },
    {
      "midi": 66,
      "hit": false,
      "t": 51267.13524999992,
      "d": 102.73975000000064,
      "v": 118
    },
    {
      "midi": 69,
      "hit": false,
      "t": 51267.13524999992,
      "d": 102.73975000000064,
      "v": 76
    },
    {
      "midi": 74,
      "hit": false,
      "t": 51267.13524999992,
      "d": 102.73975000000064,
      "v": 107
    },
    {
      "midi": 62,
      "hit": false,
      "t": 51267.13524999992,
      "d": 102.73975000000064,
      "v": 79
    },
    {
      "midi": 69,
      "hit": false,
      "t": 51366.45034166612,
      "d": 130.13701666666748,
      "v": 122
    },
    {
      "midi": 30,
      "hit": false,
      "t": 51366.450341666125,
      "d": 154.10962499999732,
      "v": 107
    },
    {
      "midi": 69,
      "hit": false,
      "t": 51366.45034166654,
      "d": 92.46577499999694,
      "v": 108
    },
    {
      "midi": 66,
      "hit": false,
      "t": 51366.45034166654,
      "d": 92.46577499999694,
      "v": 112
    },
    {
      "midi": 62,
      "hit": false,
      "t": 51366.45034166654,
      "d": 95.89043333332665,
      "v": 121
    },
    {
      "midi": 109,
      "hit": false,
      "t": 51366.450341666634,
      "d": 51.36987499999668,
      "v": 127
    },
    {
      "midi": 50,
      "hit": false,
      "t": 51366.4503416668,
      "d": 205.47950000000128,
      "v": 71
    },
    {
      "midi": 54,
      "hit": false,
      "t": 51366.4503416668,
      "d": 205.47950000000128,
      "v": 90
    },
    {
      "midi": 70,
      "hit": false,
      "t": 51369.87499999902,
      "d": 51.36987499999668,
      "v": 60
    },
    {
      "midi": 69,
      "hit": false,
      "t": 51369.87499999902,
      "d": 51.36987499999668,
      "v": 50
    },
    {
      "midi": 38,
      "hit": false,
      "t": 51369.874999999585,
      "d": 51.36987499999668,
      "v": 88
    },
    {
      "midi": 40,
      "hit": false,
      "t": 51369.874999999585,
      "d": 51.36987499999668,
      "v": 88
    },
    {
      "midi": 36,
      "hit": false,
      "t": 51369.874999999745,
      "d": 51.36987499999668,
      "v": 107
    },
    {
      "midi": 13,
      "hit": false,
      "t": 51369.874999999745,
      "d": 51.36987499999668,
      "v": 127
    },
    {
      "midi": 42,
      "hit": false,
      "t": 51369.87500000008,
      "d": 102.73975000000064,
      "v": 107
    },
    {
      "midi": 70,
      "hit": false,
      "t": 51472.61474999901,
      "d": 51.36987499999668,
      "v": 49
    },
    {
      "midi": 69,
      "hit": false,
      "t": 51472.61474999901,
      "d": 51.36987499999668,
      "v": 39
    },
    {
      "midi": 66,
      "hit": false,
      "t": 51472.61474999992,
      "d": 102.73975000000064,
      "v": 57
    },
    {
      "midi": 62,
      "hit": false,
      "t": 51472.61474999992,
      "d": 102.73975000000064,
      "v": 37
    },
    {
      "midi": 69,
      "hit": false,
      "t": 51472.61474999992,
      "d": 102.73975000000064,
      "v": 47
    },
    {
      "midi": 42,
      "hit": false,
      "t": 51571.92984166612,
      "d": 51.36987499999668,
      "v": 107
    },
    {
      "midi": 69,
      "hit": false,
      "t": 51571.92984166612,
      "d": 547.9453333333149,
      "v": 127
    },
    {
      "midi": 62,
      "hit": false,
      "t": 51571.92984166653,
      "d": 568.493283333315,
      "v": 125
    },
    {
      "midi": 69,
      "hit": false,
      "t": 51571.92984166653,
      "d": 589.0412333333152,
      "v": 119
    },
    {
      "midi": 66,
      "hit": false,
      "t": 51571.92984166653,
      "d": 589.0412333333152,
      "v": 119
    },
    {
      "midi": 62,
      "hit": false,
      "t": 51571.929841666686,
      "d": 92.46577499999694,
      "v": 88
    },
    {
      "midi": 74,
      "hit": false,
      "t": 51571.929841666686,
      "d": 92.46577499999694,
      "v": 127
    },
    {
      "midi": 70,
      "hit": false,
      "t": 51575.354499999004,
      "d": 51.36987499999668,
      "v": 109
    },
    {
      "midi": 69,
      "hit": false,
      "t": 51575.354499999004,
      "d": 51.36987499999668,
      "v": 99
    },
    {
      "midi": 69,
      "hit": false,
      "t": 51575.35449999992,
      "d": 102.73975000000064,
      "v": 88
    },
    {
      "midi": 62,
      "hit": false,
      "t": 51575.35449999992,
      "d": 102.73975000000064,
      "v": 68
    },
    {
      "midi": 66,
      "hit": false,
      "t": 51575.35449999992,
      "d": 102.73975000000064,
      "v": 102
    },
    {
      "midi": 62,
      "hit": false,
      "t": 51575.35450000002,
      "d": 92.46577499999694,
      "v": 88
    },
    {
      "midi": 74,
      "hit": false,
      "t": 51575.35450000002,
      "d": 92.46577499999694,
      "v": 127
    },
    {
      "midi": 62,
      "hit": false,
      "t": 51575.35450000002,
      "d": 92.46577499999694,
      "v": 88
    },
    {
      "midi": 74,
      "hit": false,
      "t": 51575.35450000002,
      "d": 92.46577499999694,
      "v": 127
    },
    {
      "midi": 46,
      "hit": false,
      "t": 51575.35450000011,
      "d": 205.47950000000128,
      "v": 107
    },
    {
      "midi": 42,
      "hit": false,
      "t": 51674.66959166611,
      "d": 51.36987499999668,
      "v": 107
    },
    {
      "midi": 54,
      "hit": false,
      "t": 51674.6695916668,
      "d": 102.73975000000064,
      "v": 107
    },
    {
      "midi": 50,
      "hit": false,
      "t": 51674.6695916668,
      "d": 102.73975000000064,
      "v": 75
    },
    {
      "midi": 70,
      "hit": false,
      "t": 51678.094249999,
      "d": 51.36987499999668,
      "v": 53
    },
    {
      "midi": 69,
      "hit": false,
      "t": 51678.094249999,
      "d": 51.36987499999668,
      "v": 43
    },
    {
      "midi": 38,
      "hit": false,
      "t": 51678.09424999958,
      "d": 51.36987499999668,
      "v": 88
    },
    {
      "midi": 40,
      "hit": false,
      "t": 51678.09424999958,
      "d": 51.36987499999668,
      "v": 88
    },
    {
      "midi": 30,
      "hit": false,
      "t": 51777.409341666105,
      "d": 154.10962499999732,
      "v": 107
    },
    {
      "midi": 64,
      "hit": false,
      "t": 51777.40934166668,
      "d": 270.5480083333314,
      "v": 85
    },
    {
      "midi": 76,
      "hit": false,
      "t": 51777.40934166668,
      "d": 270.5480083333314,
      "v": 122
    },
    {
      "midi": 70,
      "hit": false,
      "t": 51780.83399999899,
      "d": 51.36987499999668,
      "v": 60
    },
    {
      "midi": 69,
      "hit": false,
      "t": 51780.83399999899,
      "d": 51.36987499999668,
      "v": 50
    },
    {
      "midi": 36,
      "hit": false,
      "t": 51780.83399999974,
      "d": 51.36987499999668,
      "v": 107
    },
    {
      "midi": 13,
      "hit": false,
      "t": 51780.83399999974,
      "d": 51.36987499999668,
      "v": 127
    },
    {
      "midi": 66,
      "hit": false,
      "t": 51780.83399999992,
      "d": 102.73975000000064,
      "v": 49
    },
    {
      "midi": 62,
      "hit": false,
      "t": 51780.83399999992,
      "d": 102.73975000000064,
      "v": 32
    },
    {
      "midi": 69,
      "hit": false,
      "t": 51780.83399999992,
      "d": 102.73975000000064,
      "v": 42
    },
    {
      "midi": 64,
      "hit": false,
      "t": 51780.83400000002,
      "d": 270.5480083333314,
      "v": 85
    },
    {
      "midi": 76,
      "hit": false,
      "t": 51780.83400000002,
      "d": 270.5480083333314,
      "v": 122
    },
    {
      "midi": 64,
      "hit": false,
      "t": 51780.83400000002,
      "d": 270.5480083333314,
      "v": 85
    },
    {
      "midi": 76,
      "hit": false,
      "t": 51780.83400000002,
      "d": 270.5480083333314,
      "v": 122
    },
    {
      "midi": 42,
      "hit": false,
      "t": 51780.83400000008,
      "d": 102.73975000000064,
      "v": 102
    },
    {
      "midi": 70,
      "hit": false,
      "t": 51883.573749998985,
      "d": 51.36987499999668,
      "v": 49
    },
    {
      "midi": 69,
      "hit": false,
      "t": 51883.573749998985,
      "d": 51.36987499999668,
      "v": 39
    },
    {
      "midi": 38,
      "hit": false,
      "t": 51883.573749999574,
      "d": 51.36987499999668,
      "v": 69
    },
    {
      "midi": 40,
      "hit": false,
      "t": 51883.573749999574,
      "d": 51.36987499999668,
      "v": 69
    },
    {
      "midi": 69,
      "hit": false,
      "t": 51883.57374999992,
      "d": 102.73975000000064,
      "v": 77
    },
    {
      "midi": 66,
      "hit": false,
      "t": 51883.57374999992,
      "d": 102.73975000000064,
      "v": 98
    },
    {
      "midi": 42,
      "hit": false,
      "t": 51982.8888416661,
      "d": 51.36987499999668,
      "v": 107
    },
    {
      "midi": 54,
      "hit": false,
      "t": 51982.888841666805,
      "d": 308.2192500000019,
      "v": 95
    },
    {
      "midi": 50,
      "hit": false,
      "t": 51982.888841666805,
      "d": 308.2192500000019,
      "v": 75
    },
    {
      "midi": 70,
      "hit": false,
      "t": 51986.31349999898,
      "d": 51.36987499999668,
      "v": 109
    },
    {
      "midi": 69,
      "hit": false,
      "t": 51986.31349999898,
      "d": 51.36987499999668,
      "v": 99
    },
    {
      "midi": 62,
      "hit": false,
      "t": 51986.313499999924,
      "d": 102.73975000000064,
      "v": 64
    },
    {
      "midi": 46,
      "hit": false,
      "t": 51986.31350000011,
      "d": 102.73975000000064,
      "v": 107
    },
    {
      "midi": 42,
      "hit": false,
      "t": 52085.62859166609,
      "d": 51.36987499999668,
      "v": 107
    },
    {
      "midi": 62,
      "hit": false,
      "t": 52085.628591666675,
      "d": 284.2466416666648,
      "v": 88
    },
    {
      "midi": 74,
      "hit": false,
      "t": 52085.628591666675,
      "d": 284.2466416666648,
      "v": 127
    },
    {
      "midi": 70,
      "hit": false,
      "t": 52089.05324999897,
      "d": 51.36987499999668,
      "v": 53
    },
    {
      "midi": 69,
      "hit": false,
      "t": 52089.05324999897,
      "d": 51.36987499999668,
      "v": 43
    },
    {
      "midi": 36,
      "hit": false,
      "t": 52089.053249999735,
      "d": 51.36987499999668,
      "v": 107
    },
    {
      "midi": 13,
      "hit": false,
      "t": 52089.053249999735,
      "d": 51.36987499999668,
      "v": 127
    },
    {
      "midi": 69,
      "hit": false,
      "t": 52089.053249999924,
      "d": 102.73975000000064,
      "v": 36
    },
    {
      "midi": 66,
      "hit": false,
      "t": 52089.053249999924,
      "d": 102.73975000000064,
      "v": 47
    },
    {
      "midi": 62,
      "hit": false,
      "t": 52089.053249999924,
      "d": 102.73975000000064,
      "v": 30
    },
    {
      "midi": 62,
      "hit": false,
      "t": 52089.05325000001,
      "d": 284.2466416666648,
      "v": 88
    },
    {
      "midi": 74,
      "hit": false,
      "t": 52089.05325000001,
      "d": 284.2466416666648,
      "v": 127
    },
    {
      "midi": 62,
      "hit": false,
      "t": 52089.05325000001,
      "d": 284.2466416666648,
      "v": 88
    },
    {
      "midi": 74,
      "hit": false,
      "t": 52089.05325000001,
      "d": 284.2466416666648,
      "v": 127
    },
    {
      "midi": 30,
      "hit": false,
      "t": 52188.368341666086,
      "d": 154.10962499999732,
      "v": 107
    },
    {
      "midi": 109,
      "hit": false,
      "t": 52188.36834166663,
      "d": 51.36987499999668,
      "v": 127
    },
    {
      "midi": 70,
      "hit": false,
      "t": 52191.792999998965,
      "d": 51.36987499999668,
      "v": 60
    },
    {
      "midi": 69,
      "hit": false,
      "t": 52191.792999998965,
      "d": 51.36987499999668,
      "v": 50
    },
    {
      "midi": 38,
      "hit": false,
      "t": 52191.79299999957,
      "d": 51.36987499999668,
      "v": 88
    },
    {
      "midi": 40,
      "hit": false,
      "t": 52191.79299999957,
      "d": 51.36987499999668,
      "v": 88
    },
    {
      "midi": 36,
      "hit": false,
      "t": 52191.79299999973,
      "d": 51.36987499999668,
      "v": 107
    },
    {
      "midi": 13,
      "hit": false,
      "t": 52191.79299999973,
      "d": 51.36987499999668,
      "v": 127
    },
    {
      "midi": 66,
      "hit": false,
      "t": 52191.792999999925,
      "d": 102.73975000000064,
      "v": 107
    },
    {
      "midi": 62,
      "hit": false,
      "t": 52191.792999999925,
      "d": 102.73975000000064,
      "v": 67
    },
    {
      "midi": 69,
      "hit": false,
      "t": 52191.792999999925,
      "d": 102.73975000000064,
      "v": 79
    },
    {
      "midi": 79,
      "hit": false,
      "t": 52191.793,
      "d": 205.47950000000128,
      "v": 98
    },
    {
      "midi": 67,
      "hit": false,
      "t": 52191.793,
      "d": 205.47950000000128,
      "v": 87
    },
    {
      "midi": 42,
      "hit": false,
      "t": 52191.793000000085,
      "d": 102.73975000000064,
      "v": 107
    },
    {
      "midi": 70,
      "hit": false,
      "t": 52294.53274999896,
      "d": 51.36987499999668,
      "v": 49
    },
    {
      "midi": 69,
      "hit": false,
      "t": 52294.53274999896,
      "d": 51.36987499999668,
      "v": 39
    },
    {
      "midi": 42,
      "hit": false,
      "t": 52393.84784166608,
      "d": 51.36987499999668,
      "v": 107
    },
    {
      "midi": 67,
      "hit": false,
      "t": 52393.8478416661,
      "d": 119.86304166666378,
      "v": 97
    },
    {
      "midi": 69,
      "hit": false,
      "t": 52393.8478416665,
      "d": 92.46577499999694,
      "v": 105
    },
    {
      "midi": 67,
      "hit": false,
      "t": 52393.8478416665,
      "d": 92.46577499999694,
      "v": 105
    },
    {
      "midi": 62,
      "hit": false,
      "t": 52393.8478416665,
      "d": 92.46577499999694,
      "v": 121
    },
    {
      "midi": 57,
      "hit": false,
      "t": 52393.84784166667,
      "d": 256.84937499999796,
      "v": 85
    },
    {
      "midi": 69,
      "hit": false,
      "t": 52393.84784166667,
      "d": 256.84937499999796,
      "v": 122
    },
    {
      "midi": 50,
      "hit": false,
      "t": 52393.84784166681,
      "d": 102.73975000000064,
      "v": 78
    },
    {
      "midi": 54,
      "hit": false,
      "t": 52393.84784166681,
      "d": 102.73975000000064,
      "v": 113
    },
    {
      "midi": 70,
      "hit": false,
      "t": 52397.27249999895,
      "d": 51.36987499999668,
      "v": 109
    },
    {
      "midi": 69,
      "hit": false,
      "t": 52397.27249999895,
      "d": 51.36987499999668,
      "v": 99
    },
    {
      "midi": 38,
      "hit": false,
      "t": 52397.27249999956,
      "d": 51.36987499999668,
      "v": 68
    },
    {
      "midi": 40,
      "hit": false,
      "t": 52397.27249999956,
      "d": 51.36987499999668,
      "v": 68
    },
    {
      "midi": 36,
      "hit": false,
      "t": 52397.27249999972,
      "d": 51.36987499999668,
      "v": 107
    },
    {
      "midi": 13,
      "hit": false,
      "t": 52397.27249999972,
      "d": 51.36987499999668,
      "v": 127
    },
    {
      "midi": 66,
      "hit": false,
      "t": 52397.27249999993,
      "d": 102.73975000000064,
      "v": 52
    },
    {
      "midi": 62,
      "hit": false,
      "t": 52397.27249999993,
      "d": 102.73975000000064,
      "v": 32
    },
    {
      "midi": 69,
      "hit": false,
      "t": 52397.27249999993,
      "d": 102.73975000000064,
      "v": 37
    },
    {
      "midi": 81,
      "hit": false,
      "t": 52397.2725,
      "d": 205.47950000000128,
      "v": 102
    },
    {
      "midi": 69,
      "hit": false,
      "t": 52397.2725,
      "d": 205.47950000000128,
      "v": 89
    },
    {
      "midi": 57,
      "hit": false,
      "t": 52397.27250000001,
      "d": 256.84937499999796,
      "v": 85
    },
    {
      "midi": 69,
      "hit": false,
      "t": 52397.27250000001,
      "d": 256.84937499999796,
      "v": 122
    },
    {
      "midi": 57,
      "hit": false,
      "t": 52397.27250000001,
      "d": 256.84937499999796,
      "v": 85
    },
    {
      "midi": 69,
      "hit": false,
      "t": 52397.27250000001,
      "d": 256.84937499999796,
      "v": 122
    },
    {
      "midi": 46,
      "hit": false,
      "t": 52397.272500000116,
      "d": 102.73975000000064,
      "v": 107
    },
    {
      "midi": 42,
      "hit": false,
      "t": 52496.58759166607,
      "d": 51.36987499999668,
      "v": 107
    },
    {
      "midi": 69,
      "hit": false,
      "t": 52496.5875916661,
      "d": 136.9863333333269,
      "v": 106
    },
    {
      "midi": 66,
      "hit": false,
      "t": 52496.587591666495,
      "d": 13.698633333333419,
      "v": 114
    },
    {
      "midi": 69,
      "hit": false,
      "t": 52496.587591666495,
      "d": 92.46577499999694,
      "v": 105
    },
    {
      "midi": 62,
      "hit": false,
      "t": 52496.587591666495,
      "d": 116.43838333332678,
      "v": 114
    },
    {
      "midi": 50,
      "hit": false,
      "t": 52496.58759166681,
      "d": 102.73975000000064,
      "v": 78
    },
    {
      "midi": 54,
      "hit": false,
      "t": 52496.58759166681,
      "d": 102.73975000000064,
      "v": 113
    },
    {
      "midi": 70,
      "hit": false,
      "t": 52500.012249998945,
      "d": 51.36987499999668,
      "v": 53
    },
    {
      "midi": 69,
      "hit": false,
      "t": 52500.012249998945,
      "d": 51.36987499999668,
      "v": 43
    },
    {
      "midi": 38,
      "hit": false,
      "t": 52500.012249999556,
      "d": 51.36987499999668,
      "v": 52
    },
    {
      "midi": 40,
      "hit": false,
      "t": 52500.012249999556,
      "d": 51.36987499999668,
      "v": 52
    },
    {
      "midi": 62,
      "hit": false,
      "t": 52500.01224999993,
      "d": 102.73975000000064,
      "v": 68
    },
    {
      "midi": 66,
      "hit": false,
      "t": 52500.01224999993,
      "d": 102.73975000000064,
      "v": 107
    },
    {
      "midi": 69,
      "hit": false,
      "t": 52500.01224999993,
      "d": 102.73975000000064,
      "v": 91
    },
    {
      "midi": 27,
      "hit": false,
      "t": 52599.32734166607,
      "d": 154.10962499999732,
      "v": 107
    },
    {
      "midi": 71,
      "hit": false,
      "t": 52599.327341666096,
      "d": 294.5206166666612,
      "v": 127
    },
    {
      "midi": 66,
      "hit": false,
      "t": 52599.32734166649,
      "d": 13.698633333333419,
      "v": 119
    },
    {
      "midi": 71,
      "hit": false,
      "t": 52599.32734166649,
      "d": 239.72608333333483,
      "v": 121
    },
    {
      "midi": 63,
      "hit": false,
      "t": 52599.32734166649,
      "d": 277.3973249999981,
      "v": 119
    },
    {
      "midi": 59,
      "hit": false,
      "t": 52599.32734166649,
      "d": 280.8219833333278,
      "v": 125
    },
    {
      "midi": 47,
      "hit": false,
      "t": 52599.32734166681,
      "d": 308.2192500000019,
      "v": 63
    },
    {
      "midi": 51,
      "hit": false,
      "t": 52599.32734166681,
      "d": 308.2192500000019,
      "v": 95
    },
    {
      "midi": 70,
      "hit": false,
      "t": 52602.75199999894,
      "d": 51.36987499999668,
      "v": 60
    },
    {
      "midi": 69,
      "hit": false,
      "t": 52602.75199999894,
      "d": 51.36987499999668,
      "v": 50
    },
    {
      "midi": 38,
      "hit": false,
      "t": 52602.75199999955,
      "d": 51.36987499999668,
      "v": 63
    },
    {
      "midi": 40,
      "hit": false,
      "t": 52602.75199999955,
      "d": 51.36987499999668,
      "v": 64
    },
    {
      "midi": 36,
      "hit": false,
      "t": 52602.75199999972,
      "d": 51.36987499999668,
      "v": 107
    },
    {
      "midi": 13,
      "hit": false,
      "t": 52602.75199999972,
      "d": 51.36987499999668,
      "v": 127
    },
    {
      "midi": 59,
      "hit": false,
      "t": 52602.75199999993,
      "d": 154.10962499999005,
      "v": 79
    },
    {
      "midi": 66,
      "hit": false,
      "t": 52602.75199999993,
      "d": 154.10962499999005,
      "v": 98
    },
    {
      "midi": 63,
      "hit": false,
      "t": 52602.75199999993,
      "d": 154.10962499999005,
      "v": 107
    },
    {
      "midi": 83,
      "hit": false,
      "t": 52602.752,
      "d": 407.53434166666557,
      "v": 107
    },
    {
      "midi": 71,
      "hit": false,
      "t": 52602.752,
      "d": 407.53434166666557,
      "v": 92
    },
    {
      "midi": 66,
      "hit": false,
      "t": 52602.75200000006,
      "d": 1643.836000000003,
      "v": 80
    },
    {
      "midi": 63,
      "hit": false,
      "t": 52602.75200000006,
      "d": 1643.836000000003,
      "v": 80
    },
    {
      "midi": 59,
      "hit": false,
      "t": 52602.75200000006,
      "d": 1643.836000000003,
      "v": 80
    },
    {
      "midi": 42,
      "hit": false,
      "t": 52602.75200000009,
      "d": 102.73975000000064,
      "v": 107
    },
    {
      "midi": 70,
      "hit": false,
      "t": 52705.49174999893,
      "d": 51.36987499999668,
      "v": 49
    },
    {
      "midi": 69,
      "hit": false,
      "t": 52705.49174999893,
      "d": 51.36987499999668,
      "v": 39
    },
    {
      "midi": 39,
      "hit": false,
      "t": 52804.80684166606,
      "d": 51.36987499999668,
      "v": 107
    },
    {
      "midi": 70,
      "hit": false,
      "t": 52808.231499998925,
      "d": 51.36987499999668,
      "v": 109
    },
    {
      "midi": 69,
      "hit": false,
      "t": 52808.231499998925,
      "d": 51.36987499999668,
      "v": 99
    },
    {
      "midi": 63,
      "hit": false,
      "t": 52808.231499999914,
      "d": 102.73975000000064,
      "v": 52
    },
    {
      "midi": 59,
      "hit": false,
      "t": 52808.231499999914,
      "d": 102.73975000000064,
      "v": 37
    },
    {
      "midi": 66,
      "hit": false,
      "t": 52808.231499999914,
      "d": 102.73975000000064,
      "v": 47
    },
    {
      "midi": 46,
      "hit": false,
      "t": 52808.23150000012,
      "d": 102.73975000000064,
      "v": 107
    },
    {
      "midi": 39,
      "hit": false,
      "t": 52907.546591666054,
      "d": 51.36987499999668,
      "v": 107
    },
    {
      "midi": 70,
      "hit": false,
      "t": 52910.97124999892,
      "d": 51.36987499999668,
      "v": 53
    },
    {
      "midi": 69,
      "hit": false,
      "t": 52910.97124999892,
      "d": 51.36987499999668,
      "v": 43
    },
    {
      "midi": 63,
      "hit": false,
      "t": 52910.971249999915,
      "d": 102.73975000000064,
      "v": 98
    },
    {
      "midi": 66,
      "hit": false,
      "t": 52910.971249999915,
      "d": 102.73975000000064,
      "v": 91
    },
    {
      "midi": 59,
      "hit": false,
      "t": 52910.971249999915,
      "d": 102.73975000000064,
      "v": 65
    },
    {
      "midi": 27,
      "hit": false,
      "t": 53010.28634166605,
      "d": 154.10962499999732,
      "v": 107
    },
    {
      "midi": 69,
      "hit": false,
      "t": 53010.286341666084,
      "d": 291.0959583333315,
      "v": 107
    },
    {
      "midi": 63,
      "hit": false,
      "t": 53010.28634166648,
      "d": 256.84937499999796,
      "v": 125
    },
    {
      "midi": 59,
      "hit": false,
      "t": 53010.28634166648,
      "d": 256.84937499999796,
      "v": 125
    },
    {
      "midi": 66,
      "hit": false,
      "t": 53010.28634166648,
      "d": 273.9726666666611,
      "v": 116
    },
    {
      "midi": 69,
      "hit": false,
      "t": 53010.28634166648,
      "d": 291.09595833332423,
      "v": 125
    },
    {
      "midi": 109,
      "hit": false,
      "t": 53010.28634166663,
      "d": 51.36987499999668,
      "v": 127
    },
    {
      "midi": 71,
      "hit": false,
      "t": 53010.286341666666,
      "d": 308.2192500000019,
      "v": 110
    },
    {
      "midi": 63,
      "hit": false,
      "t": 53010.286341666666,
      "d": 308.2192500000019,
      "v": 105
    },
    {
      "midi": 66,
      "hit": false,
      "t": 53010.286341666666,
      "d": 308.2192500000019,
      "v": 105
    },
    {
      "midi": 59,
      "hit": false,
      "t": 53010.286341666666,
      "d": 308.2192500000019,
      "v": 92
    },
    {
      "midi": 47,
      "hit": false,
      "t": 53010.28634166681,
      "d": 205.47950000000128,
      "v": 55
    },
    {
      "midi": 51,
      "hit": false,
      "t": 53010.28634166681,
      "d": 205.47950000000128,
      "v": 95
    },
    {
      "midi": 70,
      "hit": false,
      "t": 53013.71099999891,
      "d": 51.36987499999668,
      "v": 60
    },
    {
      "midi": 69,
      "hit": false,
      "t": 53013.71099999891,
      "d": 51.36987499999668,
      "v": 50
    },
    {
      "midi": 38,
      "hit": false,
      "t": 53013.710999999545,
      "d": 51.36987499999668,
      "v": 88
    },
    {
      "midi": 40,
      "hit": false,
      "t": 53013.710999999545,
      "d": 51.36987499999668,
      "v": 88
    },
    {
      "midi": 36,
      "hit": false,
      "t": 53013.71099999971,
      "d": 51.36987499999668,
      "v": 107
    },
    {
      "midi": 13,
      "hit": false,
      "t": 53013.71099999971,
      "d": 51.36987499999668,
      "v": 127
    },
    {
      "midi": 81,
      "hit": false,
      "t": 53013.710999999996,
      "d": 407.53434166666557,
      "v": 98
    },
    {
      "midi": 69,
      "hit": false,
      "t": 53013.710999999996,
      "d": 407.53434166666557,
      "v": 87
    },
    {
      "midi": 71,
      "hit": false,
      "t": 53013.711,
      "d": 308.2192500000019,
      "v": 110
    },
    {
      "midi": 63,
      "hit": false,
      "t": 53013.711,
      "d": 308.2192500000019,
      "v": 105
    },
    {
      "midi": 66,
      "hit": false,
      "t": 53013.711,
      "d": 308.2192500000019,
      "v": 105
    },
    {
      "midi": 59,
      "hit": false,
      "t": 53013.711,
      "d": 308.2192500000019,
      "v": 92
    },
    {
      "midi": 71,
      "hit": false,
      "t": 53013.711,
      "d": 308.2192500000019,
      "v": 110
    },
    {
      "midi": 63,
      "hit": false,
      "t": 53013.711,
      "d": 308.2192500000019,
      "v": 105
    },
    {
      "midi": 66,
      "hit": false,
      "t": 53013.711,
      "d": 308.2192500000019,
      "v": 105
    },
    {
      "midi": 59,
      "hit": false,
      "t": 53013.711,
      "d": 308.2192500000019,
      "v": 92
    },
    {
      "midi": 42,
      "hit": false,
      "t": 53013.71100000009,
      "d": 102.73975000000064,
      "v": 107
    },
    {
      "midi": 70,
      "hit": false,
      "t": 53116.450749998905,
      "d": 51.36987499999668,
      "v": 49
    },
    {
      "midi": 69,
      "hit": false,
      "t": 53116.450749998905,
      "d": 51.36987499999668,
      "v": 39
    },
    {
      "midi": 59,
      "hit": false,
      "t": 53116.450749999916,
      "d": 102.73975000000064,
      "v": 31
    },
    {
      "midi": 63,
      "hit": false,
      "t": 53116.450749999916,
      "d": 102.73975000000064,
      "v": 47
    },
    {
      "midi": 66,
      "hit": false,
      "t": 53116.450749999916,
      "d": 102.73975000000064,
      "v": 44
    },
    {
      "midi": 39,
      "hit": false,
      "t": 53215.76584166604,
      "d": 51.36987499999668,
      "v": 107
    },
    {
      "midi": 70,
      "hit": false,
      "t": 53219.1904999989,
      "d": 51.36987499999668,
      "v": 109
    },
    {
      "midi": 69,
      "hit": false,
      "t": 53219.1904999989,
      "d": 51.36987499999668,
      "v": 99
    },
    {
      "midi": 63,
      "hit": false,
      "t": 53219.19049999992,
      "d": 102.73975000000064,
      "v": 107
    },
    {
      "midi": 66,
      "hit": false,
      "t": 53219.19049999992,
      "d": 102.73975000000064,
      "v": 102
    },
    {
      "midi": 59,
      "hit": false,
      "t": 53219.19049999992,
      "d": 102.73975000000064,
      "v": 79
    },
    {
      "midi": 46,
      "hit": false,
      "t": 53219.19050000012,
      "d": 205.47950000000128,
      "v": 107
    },
    {
      "midi": 39,
      "hit": false,
      "t": 53318.505591666035,
      "d": 51.36987499999668,
      "v": 107
    },
    {
      "midi": 47,
      "hit": false,
      "t": 53318.50559166681,
      "d": 102.73975000000064,
      "v": 48
    },
    {
      "midi": 51,
      "hit": false,
      "t": 53318.50559166681,
      "d": 102.73975000000064,
      "v": 90
    },
    {
      "midi": 70,
      "hit": false,
      "t": 53321.93024999889,
      "d": 51.36987499999668,
      "v": 53
    },
    {
      "midi": 69,
      "hit": false,
      "t": 53321.93024999889,
      "d": 51.36987499999668,
      "v": 43
    },
    {
      "midi": 38,
      "hit": false,
      "t": 53321.93024999954,
      "d": 51.36987499999668,
      "v": 88
    },
    {
      "midi": 40,
      "hit": false,
      "t": 53321.93024999954,
      "d": 51.36987499999668,
      "v": 88
    },
    {
      "midi": 27,
      "hit": false,
      "t": 53421.24534166603,
      "d": 154.10962499999732,
      "v": 107
    },
    {
      "midi": 72,
      "hit": false,
      "t": 53421.24534166607,
      "d": 284.2466416666575,
      "v": 127
    },
    {
      "midi": 63,
      "hit": false,
      "t": 53421.245341666465,
      "d": 243.15074166666454,
      "v": 121
    },
    {
      "midi": 59,
      "hit": false,
      "t": 53421.245341666465,
      "d": 253.42471666666097,
      "v": 125
    },
    {
      "midi": 66,
      "hit": false,
      "t": 53421.245341666465,
      "d": 263.6986916666574,
      "v": 116
    },
    {
      "midi": 72,
      "hit": false,
      "t": 53421.245341666465,
      "d": 277.3973249999908,
      "v": 114
    },
    {
      "midi": 70,
      "hit": false,
      "t": 53424.669999998885,
      "d": 51.36987499999668,
      "v": 60
    },
    {
      "midi": 69,
      "hit": false,
      "t": 53424.669999998885,
      "d": 51.36987499999668,
      "v": 50
    },
    {
      "midi": 36,
      "hit": false,
      "t": 53424.66999999971,
      "d": 51.36987499999668,
      "v": 107
    },
    {
      "midi": 13,
      "hit": false,
      "t": 53424.66999999971,
      "d": 51.36987499999668,
      "v": 127
    },
    {
      "midi": 59,
      "hit": false,
      "t": 53424.66999999992,
      "d": 102.73975000000064,
      "v": 37
    },
    {
      "midi": 63,
      "hit": false,
      "t": 53424.66999999992,
      "d": 102.73975000000064,
      "v": 52
    },
    {
      "midi": 66,
      "hit": false,
      "t": 53424.66999999992,
      "d": 102.73975000000064,
      "v": 49
    },
    {
      "midi": 84,
      "hit": false,
      "t": 53424.66999999999,
      "d": 407.53434166666557,
      "v": 107
    },
    {
      "midi": 72,
      "hit": false,
      "t": 53424.66999999999,
      "d": 407.53434166666557,
      "v": 92
    },
    {
      "midi": 42,
      "hit": false,
      "t": 53424.67000000009,
      "d": 102.73975000000064,
      "v": 102
    },
    {
      "midi": 70,
      "hit": false,
      "t": 53527.40974999888,
      "d": 51.36987499999668,
      "v": 49
    },
    {
      "midi": 69,
      "hit": false,
      "t": 53527.40974999888,
      "d": 51.36987499999668,
      "v": 39
    },
    {
      "midi": 38,
      "hit": false,
      "t": 53527.40974999953,
      "d": 51.36987499999668,
      "v": 69
    },
    {
      "midi": 40,
      "hit": false,
      "t": 53527.40974999953,
      "d": 51.36987499999668,
      "v": 69
    },
    {
      "midi": 66,
      "hit": false,
      "t": 53527.40974999992,
      "d": 102.73975000000064,
      "v": 107
    },
    {
      "midi": 59,
      "hit": false,
      "t": 53527.40974999992,
      "d": 102.73975000000064,
      "v": 77
    },
    {
      "midi": 63,
      "hit": false,
      "t": 53527.40974999992,
      "d": 102.73975000000064,
      "v": 112
    },
    {
      "midi": 39,
      "hit": false,
      "t": 53626.72484166602,
      "d": 51.36987499999668,
      "v": 107
    },
    {
      "midi": 47,
      "hit": false,
      "t": 53626.724841666815,
      "d": 308.2192500000019,
      "v": 65
    },
    {
      "midi": 51,
      "hit": false,
      "t": 53626.724841666815,
      "d": 308.2192500000019,
      "v": 95
    },
    {
      "midi": 70,
      "hit": false,
      "t": 53630.14949999887,
      "d": 51.36987499999668,
      "v": 109
    },
    {
      "midi": 69,
      "hit": false,
      "t": 53630.14949999887,
      "d": 51.36987499999668,
      "v": 99
    },
    {
      "midi": 46,
      "hit": false,
      "t": 53630.14950000012,
      "d": 102.73975000000064,
      "v": 107
    },
    {
      "midi": 39,
      "hit": false,
      "t": 53729.464591666016,
      "d": 51.36987499999668,
      "v": 107
    },
    {
      "midi": 70,
      "hit": false,
      "t": 53732.889249998865,
      "d": 51.36987499999668,
      "v": 53
    },
    {
      "midi": 69,
      "hit": false,
      "t": 53732.889249998865,
      "d": 51.36987499999668,
      "v": 43
    },
    {
      "midi": 63,
      "hit": false,
      "t": 53732.88924999992,
      "d": 102.73975000000064,
      "v": 54
    },
    {
      "midi": 66,
      "hit": false,
      "t": 53732.88924999992,
      "d": 102.73975000000064,
      "v": 52
    },
    {
      "midi": 59,
      "hit": false,
      "t": 53732.88924999992,
      "d": 102.73975000000064,
      "v": 36
    },
    {
      "midi": 27,
      "hit": false,
      "t": 53832.20434166601,
      "d": 154.10962499999732,
      "v": 107
    },
    {
      "midi": 71,
      "hit": false,
      "t": 53832.20434166606,
      "d": 205.47950000000128,
      "v": 122
    },
    {
      "midi": 66,
      "hit": false,
      "t": 53832.20434166645,
      "d": 126.71235833333049,
      "v": 112
    },
    {
      "midi": 63,
      "hit": false,
      "t": 53832.20434166645,
      "d": 126.71235833333049,
      "v": 121
    },
    {
      "midi": 59,
      "hit": false,
      "t": 53832.20434166645,
      "d": 126.71235833333049,
      "v": 125
    },
    {
      "midi": 71,
      "hit": false,
      "t": 53832.20434166645,
      "d": 205.479499999994,
      "v": 125
    },
    {
      "midi": 109,
      "hit": false,
      "t": 53832.20434166663,
      "d": 51.36987499999668,
      "v": 127
    },
    {
      "midi": 70,
      "hit": false,
      "t": 53835.62899999886,
      "d": 51.36987499999668,
      "v": 60
    },
    {
      "midi": 69,
      "hit": false,
      "t": 53835.62899999886,
      "d": 51.36987499999668,
      "v": 50
    },
    {
      "midi": 38,
      "hit": false,
      "t": 53835.62899999953,
      "d": 51.36987499999668,
      "v": 88
    },
    {
      "midi": 40,
      "hit": false,
      "t": 53835.62899999953,
      "d": 51.36987499999668,
      "v": 88
    },
    {
      "midi": 36,
      "hit": false,
      "t": 53835.6289999997,
      "d": 51.36987499999668,
      "v": 107
    },
    {
      "midi": 13,
      "hit": false,
      "t": 53835.6289999997,
      "d": 51.36987499999668,
      "v": 127
    },
    {
      "midi": 59,
      "hit": false,
      "t": 53835.62899999992,
      "d": 102.73975000000064,
      "v": 81
    },
    {
      "midi": 66,
      "hit": false,
      "t": 53835.62899999992,
      "d": 102.73975000000064,
      "v": 102
    },
    {
      "midi": 63,
      "hit": false,
      "t": 53835.62899999992,
      "d": 102.73975000000064,
      "v": 112
    },
    {
      "midi": 83,
      "hit": false,
      "t": 53835.628999999986,
      "d": 205.47950000000128,
      "v": 104
    },
    {
      "midi": 71,
      "hit": false,
      "t": 53835.628999999986,
      "d": 205.47950000000128,
      "v": 90
    },
    {
      "midi": 42,
      "hit": false,
      "t": 53835.629000000095,
      "d": 102.73975000000064,
      "v": 107
    },
    {
      "midi": 70,
      "hit": false,
      "t": 53938.36874999885,
      "d": 51.36987499999668,
      "v": 49
    },
    {
      "midi": 69,
      "hit": false,
      "t": 53938.36874999885,
      "d": 51.36987499999668,
      "v": 39
    },
    {
      "midi": 39,
      "hit": false,
      "t": 54037.683841666,
      "d": 51.36987499999668,
      "v": 107
    },
    {
      "midi": 67,
      "hit": false,
      "t": 54037.68384166606,
      "d": 465.7535333333144,
      "v": 110
    },
    {
      "midi": 67,
      "hit": false,
      "t": 54037.68384166645,
      "d": 414.38365833331045,
      "v": 114
    },
    {
      "midi": 71,
      "hit": false,
      "t": 54037.68384166645,
      "d": 462.32887499997014,
      "v": 117
    },
    {
      "midi": 64,
      "hit": false,
      "t": 54037.68384166645,
      "d": 462.32887499997014,
      "v": 121
    },
    {
      "midi": 59,
      "hit": false,
      "t": 54037.68384166645,
      "d": 482.87682499997027,
      "v": 125
    },
    {
      "midi": 47,
      "hit": false,
      "t": 54037.68384166682,
      "d": 102.73975000000064,
      "v": 41
    },
    {
      "midi": 51,
      "hit": false,
      "t": 54037.68384166682,
      "d": 102.73975000000064,
      "v": 85
    },
    {
      "midi": 70,
      "hit": false,
      "t": 54041.108499998845,
      "d": 51.36987499999668,
      "v": 109
    },
    {
      "midi": 69,
      "hit": false,
      "t": 54041.108499998845,
      "d": 51.36987499999668,
      "v": 99
    },
    {
      "midi": 38,
      "hit": false,
      "t": 54041.10849999952,
      "d": 51.36987499999668,
      "v": 68
    },
    {
      "midi": 40,
      "hit": false,
      "t": 54041.10849999952,
      "d": 51.36987499999668,
      "v": 68
    },
    {
      "midi": 63,
      "hit": false,
      "t": 54041.10849999992,
      "d": 102.73975000000064,
      "v": 54
    },
    {
      "midi": 59,
      "hit": false,
      "t": 54041.10849999992,
      "d": 102.73975000000064,
      "v": 38
    },
    {
      "midi": 66,
      "hit": false,
      "t": 54041.10849999992,
      "d": 102.73975000000064,
      "v": 49
    },
    {
      "midi": 79,
      "hit": false,
      "t": 54041.10849999999,
      "d": 1832.1922083333338,
      "v": 100
    },
    {
      "midi": 67,
      "hit": false,
      "t": 54041.10849999999,
      "d": 1832.1922083333338,
      "v": 88
    },
    {
      "midi": 46,
      "hit": false,
      "t": 54041.108500000126,
      "d": 102.73975000000064,
      "v": 107
    },
    {
      "midi": 39,
      "hit": false,
      "t": 54140.423591665996,
      "d": 51.36987499999668,
      "v": 107
    },
    {
      "midi": 51,
      "hit": false,
      "t": 54140.42359166682,
      "d": 102.73975000000064,
      "v": 85
    },
    {
      "midi": 47,
      "hit": false,
      "t": 54140.42359166682,
      "d": 102.73975000000064,
      "v": 41
    },
    {
      "midi": 70,
      "hit": false,
      "t": 54143.84824999884,
      "d": 51.36987499999668,
      "v": 53
    },
    {
      "midi": 69,
      "hit": false,
      "t": 54143.84824999884,
      "d": 51.36987499999668,
      "v": 43
    },
    {
      "midi": 38,
      "hit": false,
      "t": 54143.848249999515,
      "d": 51.36987499999668,
      "v": 52
    },
    {
      "midi": 40,
      "hit": false,
      "t": 54143.848249999515,
      "d": 51.36987499999668,
      "v": 52
    },
    {
      "midi": 59,
      "hit": false,
      "t": 54143.84824999992,
      "d": 102.73975000000064,
      "v": 77
    },
    {
      "midi": 63,
      "hit": false,
      "t": 54143.84824999992,
      "d": 102.73975000000064,
      "v": 112
    },
    {
      "midi": 66,
      "hit": false,
      "t": 54143.84824999992,
      "d": 102.73975000000064,
      "v": 107
    },
    {
      "midi": 28,
      "hit": false,
      "t": 54243.16334166599,
      "d": 154.10962499999732,
      "v": 107
    },
    {
      "midi": 52,
      "hit": false,
      "t": 54243.16334166682,
      "d": 308.2192500000019,
      "v": 85
    },
    {
      "midi": 47,
      "hit": false,
      "t": 54243.16334166682,
      "d": 308.2192500000019,
      "v": 43
    },
    {
      "midi": 70,
      "hit": false,
      "t": 54246.58799999883,
      "d": 51.36987499999668,
      "v": 60
    },
    {
      "midi": 69,
      "hit": false,
      "t": 54246.58799999883,
      "d": 51.36987499999668,
      "v": 50
    },
    {
      "midi": 38,
      "hit": false,
      "t": 54246.58799999951,
      "d": 51.36987499999668,
      "v": 64
    },
    {
      "midi": 40,
      "hit": false,
      "t": 54246.58799999951,
      "d": 51.36987499999668,
      "v": 64
    },
    {
      "midi": 36,
      "hit": false,
      "t": 54246.5879999997,
      "d": 51.36987499999668,
      "v": 107
    },
    {
      "midi": 13,
      "hit": false,
      "t": 54246.5879999997,
      "d": 51.36987499999668,
      "v": 127
    },
    {
      "midi": 67,
      "hit": false,
      "t": 54246.58799999992,
      "d": 154.10962499999005,
      "v": 79
    },
    {
      "midi": 64,
      "hit": false,
      "t": 54246.58799999992,
      "d": 154.10962499999005,
      "v": 91
    },
    {
      "midi": 59,
      "hit": false,
      "t": 54246.58799999992,
      "d": 154.10962499999005,
      "v": 79
    },
    {
      "midi": 55,
      "hit": false,
      "t": 54246.58799999992,
      "d": 154.10962499999005,
      "v": 79
    },
    {
      "midi": 59,
      "hit": false,
      "t": 54246.58800000006,
      "d": 1643.836000000003,
      "v": 80
    },
    {
      "midi": 67,
      "hit": false,
      "t": 54246.58800000006,
      "d": 1643.836000000003,
      "v": 80
    },
    {
      "midi": 64,
      "hit": false,
      "t": 54246.58800000006,
      "d": 1643.836000000003,
      "v": 80
    },
    {
      "midi": 42,
      "hit": false,
      "t": 54246.5880000001,
      "d": 102.73975000000064,
      "v": 107
    },
    {
      "midi": 70,
      "hit": false,
      "t": 54349.327749998825,
      "d": 51.36987499999668,
      "v": 49
    },
    {
      "midi": 69,
      "hit": false,
      "t": 54349.327749998825,
      "d": 51.36987499999668,
      "v": 39
    },
    {
      "midi": 40,
      "hit": false,
      "t": 54448.642841665984,
      "d": 51.36987499999668,
      "v": 107
    },
    {
      "midi": 64,
      "hit": false,
      "t": 54448.64284166667,
      "d": 109.58906666666735,
      "v": 88
    },
    {
      "midi": 76,
      "hit": false,
      "t": 54448.64284166667,
      "d": 109.58906666666735,
      "v": 127
    },
    {
      "midi": 70,
      "hit": false,
      "t": 54452.06749999882,
      "d": 51.36987499999668,
      "v": 109
    },
    {
      "midi": 69,
      "hit": false,
      "t": 54452.06749999882,
      "d": 51.36987499999668,
      "v": 99
    },
    {
      "midi": 64,
      "hit": false,
      "t": 54452.06749999991,
      "d": 102.73975000000064,
      "v": 44
    },
    {
      "midi": 67,
      "hit": false,
      "t": 54452.06749999991,
      "d": 102.73975000000064,
      "v": 37
    },
    {
      "midi": 59,
      "hit": false,
      "t": 54452.06749999991,
      "d": 102.73975000000064,
      "v": 37
    },
    {
      "midi": 64,
      "hit": false,
      "t": 54452.067500000005,
      "d": 109.58906666666735,
      "v": 88
    },
    {
      "midi": 76,
      "hit": false,
      "t": 54452.067500000005,
      "d": 109.58906666666735,
      "v": 127
    },
    {
      "midi": 64,
      "hit": false,
      "t": 54452.067500000005,
      "d": 109.58906666666735,
      "v": 88
    },
    {
      "midi": 76,
      "hit": false,
      "t": 54452.067500000005,
      "d": 109.58906666666735,
      "v": 127
    },
    {
      "midi": 46,
      "hit": false,
      "t": 54452.06750000013,
      "d": 102.73975000000064,
      "v": 107
    },
    {
      "midi": 40,
      "hit": false,
      "t": 54551.38259166598,
      "d": 51.36987499999668,
      "v": 107
    },
    {
      "midi": 70,
      "hit": false,
      "t": 54554.80724999881,
      "d": 51.36987499999668,
      "v": 53
    },
    {
      "midi": 69,
      "hit": false,
      "t": 54554.80724999881,
      "d": 51.36987499999668,
      "v": 43
    },
    {
      "midi": 64,
      "hit": false,
      "t": 54554.80724999991,
      "d": 102.73975000000064,
      "v": 88
    },
    {
      "midi": 59,
      "hit": false,
      "t": 54554.80724999991,
      "d": 102.73975000000064,
      "v": 60
    },
    {
      "midi": 67,
      "hit": false,
      "t": 54554.80724999991,
      "d": 102.73975000000064,
      "v": 68
    },
    {
      "midi": 28,
      "hit": false,
      "t": 54654.12234166597,
      "d": 154.10962499999732,
      "v": 107
    },
    {
      "midi": 109,
      "hit": false,
      "t": 54654.122341666625,
      "d": 51.36987499999668,
      "v": 127
    },
    {
      "midi": 62,
      "hit": false,
      "t": 54654.12234166667,
      "d": 202.0548416666643,
      "v": 85
    },
    {
      "midi": 74,
      "hit": false,
      "t": 54654.12234166667,
      "d": 202.0548416666643,
      "v": 122
    },
    {
      "midi": 47,
      "hit": false,
      "t": 54654.12234166682,
      "d": 205.47950000000128,
      "v": 78
    },
    {
      "midi": 52,
      "hit": false,
      "t": 54654.12234166682,
      "d": 205.47950000000128,
      "v": 95
    },
    {
      "midi": 70,
      "hit": false,
      "t": 54657.546999998805,
      "d": 51.36987499999668,
      "v": 60
    },
    {
      "midi": 69,
      "hit": false,
      "t": 54657.546999998805,
      "d": 51.36987499999668,
      "v": 50
    },
    {
      "midi": 38,
      "hit": false,
      "t": 54657.546999999504,
      "d": 51.36987499999668,
      "v": 88
    },
    {
      "midi": 40,
      "hit": false,
      "t": 54657.546999999504,
      "d": 51.36987499999668,
      "v": 88
    },
    {
      "midi": 36,
      "hit": false,
      "t": 54657.54699999969,
      "d": 51.36987499999668,
      "v": 107
    },
    {
      "midi": 13,
      "hit": false,
      "t": 54657.54699999969,
      "d": 51.36987499999668,
      "v": 127
    },
    {
      "midi": 62,
      "hit": false,
      "t": 54657.547000000006,
      "d": 202.0548416666643,
      "v": 85
    },
    {
      "midi": 74,
      "hit": false,
      "t": 54657.547000000006,
      "d": 202.0548416666643,
      "v": 122
    },
    {
      "midi": 62,
      "hit": false,
      "t": 54657.547000000006,
      "d": 202.0548416666643,
      "v": 85
    },
    {
      "midi": 74,
      "hit": false,
      "t": 54657.547000000006,
      "d": 202.0548416666643,
      "v": 122
    },
    {
      "midi": 42,
      "hit": false,
      "t": 54657.5470000001,
      "d": 102.73975000000064,
      "v": 107
    },
    {
      "midi": 70,
      "hit": false,
      "t": 54760.2867499988,
      "d": 51.36987499999668,
      "v": 49
    },
    {
      "midi": 69,
      "hit": false,
      "t": 54760.2867499988,
      "d": 51.36987499999668,
      "v": 39
    },
    {
      "midi": 59,
      "hit": false,
      "t": 54760.28674999991,
      "d": 102.73975000000064,
      "v": 29
    },
    {
      "midi": 67,
      "hit": false,
      "t": 54760.28674999991,
      "d": 102.73975000000064,
      "v": 32
    },
    {
      "midi": 64,
      "hit": false,
      "t": 54760.28674999991,
      "d": 102.73975000000064,
      "v": 42
    },
    {
      "midi": 40,
      "hit": false,
      "t": 54859.601841665964,
      "d": 51.36987499999668,
      "v": 107
    },
    {
      "midi": 64,
      "hit": false,
      "t": 54859.60184166666,
      "d": 102.73975000000064,
      "v": 64
    },
    {
      "midi": 76,
      "hit": false,
      "t": 54859.60184166666,
      "d": 102.73975000000064,
      "v": 92
    },
    {
      "midi": 70,
      "hit": false,
      "t": 54863.02649999879,
      "d": 51.36987499999668,
      "v": 109
    },
    {
      "midi": 69,
      "hit": false,
      "t": 54863.02649999879,
      "d": 51.36987499999668,
      "v": 99
    },
    {
      "midi": 64,
      "hit": false,
      "t": 54863.02649999991,
      "d": 102.73975000000064,
      "v": 98
    },
    {
      "midi": 67,
      "hit": false,
      "t": 54863.02649999991,
      "d": 102.73975000000064,
      "v": 81
    },
    {
      "midi": 59,
      "hit": false,
      "t": 54863.02649999991,
      "d": 102.73975000000064,
      "v": 77
    },
    {
      "midi": 64,
      "hit": false,
      "t": 54863.0265,
      "d": 102.73975000000064,
      "v": 64
    },
    {
      "midi": 76,
      "hit": false,
      "t": 54863.0265,
      "d": 102.73975000000064,
      "v": 92
    },
    {
      "midi": 64,
      "hit": false,
      "t": 54863.0265,
      "d": 102.73975000000064,
      "v": 64
    },
    {
      "midi": 76,
      "hit": false,
      "t": 54863.0265,
      "d": 102.73975000000064,
      "v": 92
    },
    {
      "midi": 46,
      "hit": false,
      "t": 54863.02650000013,
      "d": 205.47950000000128,
      "v": 107
    },
    {
      "midi": 40,
      "hit": false,
      "t": 54962.34159166596,
      "d": 51.36987499999668,
      "v": 107
    },
    {
      "midi": 47,
      "hit": false,
      "t": 54962.341591666824,
      "d": 102.73975000000064,
      "v": 75
    },
    {
      "midi": 52,
      "hit": false,
      "t": 54962.341591666824,
      "d": 102.73975000000064,
      "v": 95
    },
    {
      "midi": 70,
      "hit": false,
      "t": 54965.766249998785,
      "d": 51.36987499999668,
      "v": 53
    },
    {
      "midi": 69,
      "hit": false,
      "t": 54965.766249998785,
      "d": 51.36987499999668,
      "v": 43
    },
    {
      "midi": 38,
      "hit": false,
      "t": 54965.7662499995,
      "d": 51.36987499999668,
      "v": 88
    },
    {
      "midi": 40,
      "hit": false,
      "t": 54965.7662499995,
      "d": 51.36987499999668,
      "v": 88
    },
    {
      "midi": 28,
      "hit": false,
      "t": 55065.08134166595,
      "d": 154.10962499999732,
      "v": 107
    },
    {
      "midi": 58,
      "hit": false,
      "t": 55065.081341666664,
      "d": 291.09595833331696,
      "v": 85
    },
    {
      "midi": 70,
      "hit": false,
      "t": 55065.081341666664,
      "d": 291.09595833331696,
      "v": 122
    },
    {
      "midi": 70,
      "hit": false,
      "t": 55068.50599999878,
      "d": 51.36987499999668,
      "v": 60
    },
    {
      "midi": 69,
      "hit": false,
      "t": 55068.50599999878,
      "d": 51.36987499999668,
      "v": 50
    },
    {
      "midi": 36,
      "hit": false,
      "t": 55068.50599999969,
      "d": 51.36987499999668,
      "v": 107
    },
    {
      "midi": 13,
      "hit": false,
      "t": 55068.50599999969,
      "d": 51.36987499999668,
      "v": 127
    },
    {
      "midi": 64,
      "hit": false,
      "t": 55068.505999999914,
      "d": 102.73975000000064,
      "v": 47
    },
    {
      "midi": 67,
      "hit": false,
      "t": 55068.505999999914,
      "d": 102.73975000000064,
      "v": 38
    },
    {
      "midi": 59,
      "hit": false,
      "t": 55068.505999999914,
      "d": 102.73975000000064,
      "v": 36
    },
    {
      "midi": 58,
      "hit": false,
      "t": 55068.506,
      "d": 291.09595833331696,
      "v": 85
    },
    {
      "midi": 70,
      "hit": false,
      "t": 55068.506,
      "d": 291.09595833331696,
      "v": 122
    },
    {
      "midi": 58,
      "hit": false,
      "t": 55068.506,
      "d": 291.09595833331696,
      "v": 85
    },
    {
      "midi": 70,
      "hit": false,
      "t": 55068.506,
      "d": 291.09595833331696,
      "v": 122
    },
    {
      "midi": 42,
      "hit": false,
      "t": 55068.5060000001,
      "d": 102.73975000000064,
      "v": 102
    },
    {
      "midi": 70,
      "hit": false,
      "t": 55171.24574999877,
      "d": 51.36987499999668,
      "v": 49
    },
    {
      "midi": 69,
      "hit": false,
      "t": 55171.24574999877,
      "d": 51.36987499999668,
      "v": 39
    },
    {
      "midi": 38,
      "hit": false,
      "t": 55171.24574999949,
      "d": 51.36987499999668,
      "v": 69
    },
    {
      "midi": 40,
      "hit": false,
      "t": 55171.24574999949,
      "d": 51.36987499999668,
      "v": 69
    },
    {
      "midi": 67,
      "hit": false,
      "t": 55171.245749999915,
      "d": 102.73975000000064,
      "v": 77
    },
    {
      "midi": 59,
      "hit": false,
      "t": 55171.245749999915,
      "d": 102.73975000000064,
      "v": 68
    },
    {
      "midi": 64,
      "hit": false,
      "t": 55171.245749999915,
      "d": 102.73975000000064,
      "v": 94
    },
    {
      "midi": 40,
      "hit": false,
      "t": 55270.560841665945,
      "d": 51.36987499999668,
      "v": 107
    },
    {
      "midi": 64,
      "hit": false,
      "t": 55270.56084166603,
      "d": 212.328816666668,
      "v": 110
    },
    {
      "midi": 52,
      "hit": false,
      "t": 55270.560841666826,
      "d": 513.6987500000032,
      "v": 113
    },
    {
      "midi": 47,
      "hit": false,
      "t": 55270.560841666826,
      "d": 513.6987500000032,
      "v": 95
    },
    {
      "midi": 70,
      "hit": false,
      "t": 55273.985499998766,
      "d": 51.36987499999668,
      "v": 109
    },
    {
      "midi": 69,
      "hit": false,
      "t": 55273.985499998766,
      "d": 51.36987499999668,
      "v": 99
    },
    {
      "midi": 46,
      "hit": false,
      "t": 55273.98550000013,
      "d": 102.73975000000064,
      "v": 107
    },
    {
      "midi": 40,
      "hit": false,
      "t": 55373.30059166594,
      "d": 51.36987499999668,
      "v": 107
    },
    {
      "midi": 57,
      "hit": false,
      "t": 55373.300591666644,
      "d": 291.09595833331696,
      "v": 80
    },
    {
      "midi": 69,
      "hit": false,
      "t": 55373.300591666644,
      "d": 291.09595833331696,
      "v": 115
    },
    {
      "midi": 70,
      "hit": false,
      "t": 55376.72524999876,
      "d": 51.36987499999668,
      "v": 53
    },
    {
      "midi": 69,
      "hit": false,
      "t": 55376.72524999876,
      "d": 51.36987499999668,
      "v": 43
    },
    {
      "midi": 36,
      "hit": false,
      "t": 55376.72524999968,
      "d": 51.36987499999668,
      "v": 107
    },
    {
      "midi": 13,
      "hit": false,
      "t": 55376.72524999968,
      "d": 51.36987499999668,
      "v": 127
    },
    {
      "midi": 64,
      "hit": false,
      "t": 55376.725249999916,
      "d": 102.73975000000064,
      "v": 45
    },
    {
      "midi": 67,
      "hit": false,
      "t": 55376.725249999916,
      "d": 102.73975000000064,
      "v": 36
    },
    {
      "midi": 59,
      "hit": false,
      "t": 55376.725249999916,
      "d": 102.73975000000064,
      "v": 32
    },
    {
      "midi": 57,
      "hit": false,
      "t": 55376.72524999998,
      "d": 291.09595833331696,
      "v": 80
    },
    {
      "midi": 69,
      "hit": false,
      "t": 55376.72524999998,
      "d": 291.09595833331696,
      "v": 115
    },
    {
      "midi": 57,
      "hit": false,
      "t": 55376.72524999998,
      "d": 291.09595833331696,
      "v": 80
    },
    {
      "midi": 69,
      "hit": false,
      "t": 55376.72524999998,
      "d": 291.09595833331696,
      "v": 115
    },
    {
      "midi": 28,
      "hit": false,
      "t": 55476.04034166593,
      "d": 154.10962499999732,
      "v": 107
    },
    {
      "midi": 67,
      "hit": false,
      "t": 55476.040341666034,
      "d": 116.43838333333406,
      "v": 115
    },
    {
      "midi": 109,
      "hit": false,
      "t": 55476.04034166662,
      "d": 51.36987499999668,
      "v": 127
    },
    {
      "midi": 70,
      "hit": false,
      "t": 55479.46499999875,
      "d": 51.36987499999668,
      "v": 60
    },
    {
      "midi": 69,
      "hit": false,
      "t": 55479.46499999875,
      "d": 51.36987499999668,
      "v": 50
    },
    {
      "midi": 38,
      "hit": false,
      "t": 55479.46499999949,
      "d": 51.36987499999668,
      "v": 88
    },
    {
      "midi": 40,
      "hit": false,
      "t": 55479.46499999949,
      "d": 51.36987499999668,
      "v": 88
    },
    {
      "midi": 36,
      "hit": false,
      "t": 55479.46499999968,
      "d": 51.36987499999668,
      "v": 107
    },
    {
      "midi": 13,
      "hit": false,
      "t": 55479.46499999968,
      "d": 51.36987499999668,
      "v": 127
    },
    {
      "midi": 59,
      "hit": false,
      "t": 55479.46499999992,
      "d": 102.73975000000064,
      "v": 81
    },
    {
      "midi": 64,
      "hit": false,
      "t": 55479.46499999992,
      "d": 102.73975000000064,
      "v": 107
    },
    {
      "midi": 67,
      "hit": false,
      "t": 55479.46499999992,
      "d": 102.73975000000064,
      "v": 88
    },
    {
      "midi": 42,
      "hit": false,
      "t": 55479.465000000106,
      "d": 102.73975000000064,
      "v": 107
    },
    {
      "midi": 70,
      "hit": false,
      "t": 55582.204749998746,
      "d": 51.36987499999668,
      "v": 49
    },
    {
      "midi": 69,
      "hit": false,
      "t": 55582.204749998746,
      "d": 51.36987499999668,
      "v": 39
    },
    {
      "midi": 40,
      "hit": false,
      "t": 55681.519841665926,
      "d": 51.36987499999668,
      "v": 107
    },
    {
      "midi": 69,
      "hit": false,
      "t": 55681.519841666035,
      "d": 174.65757499999745,
      "v": 122
    },
    {
      "midi": 55,
      "hit": false,
      "t": 55681.519841666624,
      "d": 99.31509166666365,
      "v": 88
    },
    {
      "midi": 67,
      "hit": false,
      "t": 55681.519841666624,
      "d": 99.31509166666365,
      "v": 127
    },
    {
      "midi": 70,
      "hit": false,
      "t": 55684.94449999874,
      "d": 51.36987499999668,
      "v": 109
    },
    {
      "midi": 69,
      "hit": false,
      "t": 55684.94449999874,
      "d": 51.36987499999668,
      "v": 99
    },
    {
      "midi": 38,
      "hit": false,
      "t": 55684.94449999948,
      "d": 51.36987499999668,
      "v": 68
    },
    {
      "midi": 40,
      "hit": false,
      "t": 55684.94449999948,
      "d": 51.36987499999668,
      "v": 68
    },
    {
      "midi": 36,
      "hit": false,
      "t": 55684.94449999967,
      "d": 51.36987499999668,
      "v": 107
    },
    {
      "midi": 13,
      "hit": false,
      "t": 55684.94449999967,
      "d": 51.36987499999668,
      "v": 127
    },
    {
      "midi": 64,
      "hit": false,
      "t": 55684.94449999992,
      "d": 102.73975000000064,
      "v": 52
    },
    {
      "midi": 67,
      "hit": false,
      "t": 55684.94449999992,
      "d": 102.73975000000064,
      "v": 42
    },
    {
      "midi": 59,
      "hit": false,
      "t": 55684.94449999992,
      "d": 102.73975000000064,
      "v": 38
    },
    {
      "midi": 55,
      "hit": false,
      "t": 55684.94449999996,
      "d": 99.31509166666365,
      "v": 88
    },
    {
      "midi": 67,
      "hit": false,
      "t": 55684.94449999996,
      "d": 99.31509166666365,
      "v": 127
    },
    {
      "midi": 55,
      "hit": false,
      "t": 55684.94449999996,
      "d": 99.31509166666365,
      "v": 88
    },
    {
      "midi": 67,
      "hit": false,
      "t": 55684.94449999996,
      "d": 99.31509166666365,
      "v": 127
    },
    {
      "midi": 46,
      "hit": false,
      "t": 55684.944500000136,
      "d": 102.73975000000064,
      "v": 107
    },
    {
      "midi": 40,
      "hit": false,
      "t": 55784.25959166592,
      "d": 51.36987499999668,
      "v": 107
    },
    {
      "midi": 70,
      "hit": false,
      "t": 55787.68424999873,
      "d": 51.36987499999668,
      "v": 53
    },
    {
      "midi": 69,
      "hit": false,
      "t": 55787.68424999873,
      "d": 51.36987499999668,
      "v": 43
    },
    {
      "midi": 38,
      "hit": false,
      "t": 55787.684249999475,
      "d": 51.36987499999668,
      "v": 52
    },
    {
      "midi": 40,
      "hit": false,
      "t": 55787.684249999475,
      "d": 51.36987499999668,
      "v": 52
    },
    {
      "midi": 64,
      "hit": false,
      "t": 55787.68424999992,
      "d": 102.73975000000064,
      "v": 102
    },
    {
      "midi": 67,
      "hit": false,
      "t": 55787.68424999992,
      "d": 102.73975000000064,
      "v": 88
    },
    {
      "midi": 59,
      "hit": false,
      "t": 55787.68424999992,
      "d": 102.73975000000064,
      "v": 72
    },
    {
      "midi": 36,
      "hit": false,
      "t": 55886.99934166591,
      "d": 154.10962499999732,
      "v": 107
    },
    {
      "midi": 71,
      "hit": false,
      "t": 55886.99934166603,
      "d": 301.36993333329883,
      "v": 127
    },
    {
      "midi": 67,
      "hit": false,
      "t": 55886.999341666036,
      "d": 770.5481250000012,
      "v": 116
    },
    {
      "midi": 64,
      "hit": false,
      "t": 55886.999341666036,
      "d": 787.6714166666643,
      "v": 116
    },
    {
      "midi": 71,
      "hit": false,
      "t": 55886.999341666036,
      "d": 804.7947083333274,
      "v": 116
    },
    {
      "midi": 60,
      "hit": false,
      "t": 55886.99934166683,
      "d": 102.73975000000064,
      "v": 55
    },
    {
      "midi": 55,
      "hit": false,
      "t": 55886.99934166683,
      "d": 102.73975000000064,
      "v": 95
    },
    {
      "midi": 70,
      "hit": false,
      "t": 55890.423999998726,
      "d": 51.36987499999668,
      "v": 60
    },
    {
      "midi": 69,
      "hit": false,
      "t": 55890.423999998726,
      "d": 51.36987499999668,
      "v": 50
    },
    {
      "midi": 38,
      "hit": false,
      "t": 55890.42399999947,
      "d": 51.36987499999668,
      "v": 88
    },
    {
      "midi": 40,
      "hit": false,
      "t": 55890.42399999947,
      "d": 51.36987499999668,
      "v": 88
    },
    {
      "midi": 36,
      "hit": false,
      "t": 55890.423999999664,
      "d": 51.36987499999668,
      "v": 107
    },
    {
      "midi": 13,
      "hit": false,
      "t": 55890.423999999664,
      "d": 51.36987499999668,
      "v": 127
    },
    {
      "midi": 64,
      "hit": false,
      "t": 55890.42399999992,
      "d": 102.73975000000064,
      "v": 88
    },
    {
      "midi": 60,
      "hit": false,
      "t": 55890.42399999992,
      "d": 102.73975000000064,
      "v": 81
    },
    {
      "midi": 67,
      "hit": false,
      "t": 55890.42399999992,
      "d": 102.73975000000064,
      "v": 79
    },
    {
      "midi": 88,
      "hit": false,
      "t": 55890.423999999985,
      "d": 815.0686833333311,
      "v": 100
    },
    {
      "midi": 76,
      "hit": false,
      "t": 55890.423999999985,
      "d": 815.0686833333311,
      "v": 88
    },
    {
      "midi": 67,
      "hit": false,
      "t": 55890.424000000065,
      "d": 821.9179999999978,
      "v": 80
    },
    {
      "midi": 64,
      "hit": false,
      "t": 55890.424000000065,
      "d": 821.9179999999978,
      "v": 80
    },
    {
      "midi": 60,
      "hit": false,
      "t": 55890.424000000065,
      "d": 821.9179999999978,
      "v": 80
    },
    {
      "midi": 42,
      "hit": false,
      "t": 55890.42400000011,
      "d": 102.73975000000064,
      "v": 107
    },
    {
      "midi": 70,
      "hit": false,
      "t": 55993.16374999872,
      "d": 51.36987499999668,
      "v": 49
    },
    {
      "midi": 69,
      "hit": false,
      "t": 55993.16374999872,
      "d": 51.36987499999668,
      "v": 39
    },
    {
      "midi": 48,
      "hit": false,
      "t": 56092.47884166591,
      "d": 51.36987499999668,
      "v": 107
    },
    {
      "midi": 60,
      "hit": false,
      "t": 56092.47884166683,
      "d": 102.73975000000064,
      "v": 47
    },
    {
      "midi": 55,
      "hit": false,
      "t": 56092.47884166683,
      "d": 102.73975000000064,
      "v": 65
    },
    {
      "midi": 70,
      "hit": false,
      "t": 56095.90349999871,
      "d": 51.36987499999668,
      "v": 109
    },
    {
      "midi": 69,
      "hit": false,
      "t": 56095.90349999871,
      "d": 51.36987499999668,
      "v": 99
    },
    {
      "midi": 64,
      "hit": false,
      "t": 56095.90349999992,
      "d": 102.73975000000064,
      "v": 42
    },
    {
      "midi": 60,
      "hit": false,
      "t": 56095.90349999992,
      "d": 102.73975000000064,
      "v": 38
    },
    {
      "midi": 67,
      "hit": false,
      "t": 56095.90349999992,
      "d": 102.73975000000064,
      "v": 37
    },
    {
      "midi": 46,
      "hit": false,
      "t": 56095.90350000014,
      "d": 102.73975000000064,
      "v": 107
    },
    {
      "midi": 48,
      "hit": false,
      "t": 56195.2185916659,
      "d": 51.36987499999668,
      "v": 107
    },
    {
      "midi": 64,
      "hit": false,
      "t": 56195.218591665995,
      "d": 277.3973249999981,
      "v": 104
    },
    {
      "midi": 70,
      "hit": false,
      "t": 56198.643249998706,
      "d": 51.36987499999668,
      "v": 53
    },
    {
      "midi": 69,
      "hit": false,
      "t": 56198.643249998706,
      "d": 51.36987499999668,
      "v": 43
    },
    {
      "midi": 60,
      "hit": false,
      "t": 56198.64324999992,
      "d": 205.47950000000128,
      "v": 77
    },
    {
      "midi": 64,
      "hit": false,
      "t": 56198.64324999992,
      "d": 205.47950000000128,
      "v": 85
    },
    {
      "midi": 67,
      "hit": false,
      "t": 56198.64324999992,
      "d": 205.47950000000128,
      "v": 65
    },
    {
      "midi": 36,
      "hit": false,
      "t": 56297.95834166589,
      "d": 154.10962499999732,
      "v": 107
    },
    {
      "midi": 64,
      "hit": false,
      "t": 56297.95834166662,
      "d": 95.89043333333393,
      "v": 96
    },
    {
      "midi": 67,
      "hit": false,
      "t": 56297.95834166662,
      "d": 95.89043333333393,
      "v": 115
    },
    {
      "midi": 72,
      "hit": false,
      "t": 56297.95834166662,
      "d": 99.31509166666365,
      "v": 110
    },
    {
      "midi": 109,
      "hit": false,
      "t": 56297.95834166662,
      "d": 51.36987499999668,
      "v": 127
    },
    {
      "midi": 60,
      "hit": false,
      "t": 56297.95834166683,
      "d": 102.73975000000064,
      "v": 45
    },
    {
      "midi": 55,
      "hit": false,
      "t": 56297.95834166683,
      "d": 102.73975000000064,
      "v": 67
    },
    {
      "midi": 70,
      "hit": false,
      "t": 56301.3829999987,
      "d": 51.36987499999668,
      "v": 60
    },
    {
      "midi": 69,
      "hit": false,
      "t": 56301.3829999987,
      "d": 51.36987499999668,
      "v": 50
    },
    {
      "midi": 38,
      "hit": false,
      "t": 56301.38299999946,
      "d": 51.36987499999668,
      "v": 63
    },
    {
      "midi": 40,
      "hit": false,
      "t": 56301.38299999946,
      "d": 51.36987499999668,
      "v": 64
    },
    {
      "midi": 36,
      "hit": false,
      "t": 56301.38299999966,
      "d": 51.36987499999668,
      "v": 107
    },
    {
      "midi": 13,
      "hit": false,
      "t": 56301.38299999966,
      "d": 51.36987499999668,
      "v": 127
    },
    {
      "midi": 64,
      "hit": false,
      "t": 56301.38299999996,
      "d": 95.89043333333393,
      "v": 96
    },
    {
      "midi": 67,
      "hit": false,
      "t": 56301.38299999996,
      "d": 95.89043333333393,
      "v": 115
    },
    {
      "midi": 72,
      "hit": false,
      "t": 56301.38299999996,
      "d": 99.31509166666365,
      "v": 110
    },
    {
      "midi": 64,
      "hit": false,
      "t": 56301.38299999996,
      "d": 95.89043333333393,
      "v": 96
    },
    {
      "midi": 67,
      "hit": false,
      "t": 56301.38299999996,
      "d": 95.89043333333393,
      "v": 115
    },
    {
      "midi": 72,
      "hit": false,
      "t": 56301.38299999996,
      "d": 99.31509166666365,
      "v": 110
    },
    {
      "midi": 42,
      "hit": false,
      "t": 56301.38300000011,
      "d": 102.73975000000064,
      "v": 107
    },
    {
      "midi": 70,
      "hit": false,
      "t": 56404.12274999869,
      "d": 51.36987499999668,
      "v": 49
    },
    {
      "midi": 69,
      "hit": false,
      "t": 56404.12274999869,
      "d": 51.36987499999668,
      "v": 39
    },
    {
      "midi": 48,
      "hit": false,
      "t": 56503.43784166589,
      "d": 51.36987499999668,
      "v": 107
    },
    {
      "midi": 71,
      "hit": false,
      "t": 56503.43784166599,
      "d": 239.72608333333483,
      "v": 123
    },
    {
      "midi": 60,
      "hit": false,
      "t": 56503.43784166683,
      "d": 102.73975000000064,
      "v": 58
    },
    {
      "midi": 55,
      "hit": false,
      "t": 56503.43784166683,
      "d": 102.73975000000064,
      "v": 95
    },
    {
      "midi": 70,
      "hit": false,
      "t": 56506.862499998686,
      "d": 51.36987499999668,
      "v": 109
    },
    {
      "midi": 69,
      "hit": false,
      "t": 56506.862499998686,
      "d": 51.36987499999668,
      "v": 99
    },
    {
      "midi": 60,
      "hit": false,
      "t": 56506.86249999992,
      "d": 102.73975000000064,
      "v": 67
    },
    {
      "midi": 64,
      "hit": false,
      "t": 56506.86249999992,
      "d": 102.73975000000064,
      "v": 72
    },
    {
      "midi": 67,
      "hit": false,
      "t": 56506.86249999992,
      "d": 102.73975000000064,
      "v": 64
    },
    {
      "midi": 46,
      "hit": false,
      "t": 56506.86250000014,
      "d": 205.47950000000128,
      "v": 107
    },
    {
      "midi": 48,
      "hit": false,
      "t": 56606.17759166588,
      "d": 51.36987499999668,
      "v": 107
    },
    {
      "midi": 70,
      "hit": false,
      "t": 56609.60224999868,
      "d": 51.36987499999668,
      "v": 53
    },
    {
      "midi": 69,
      "hit": false,
      "t": 56609.60224999868,
      "d": 51.36987499999668,
      "v": 43
    },
    {
      "midi": 38,
      "hit": false,
      "t": 56609.60224999946,
      "d": 51.36987499999668,
      "v": 88
    },
    {
      "midi": 40,
      "hit": false,
      "t": 56609.60224999946,
      "d": 51.36987499999668,
      "v": 88
    },
    {
      "midi": 60,
      "hit": false,
      "t": 56609.60224999992,
      "d": 102.73975000000064,
      "v": 32
    },
    {
      "midi": 64,
      "hit": false,
      "t": 56609.60224999992,
      "d": 102.73975000000064,
      "v": 34
    },
    {
      "midi": 67,
      "hit": false,
      "t": 56609.60224999992,
      "d": 102.73975000000064,
      "v": 30
    },
    {
      "midi": 36,
      "hit": false,
      "t": 56708.917341665874,
      "d": 154.10962499999732,
      "v": 107
    },
    {
      "midi": 69,
      "hit": false,
      "t": 56708.91734166599,
      "d": 455.47955833329615,
      "v": 112
    },
    {
      "midi": 66,
      "hit": false,
      "t": 56708.91734166603,
      "d": 770.5481250000012,
      "v": 102
    },
    {
      "midi": 69,
      "hit": false,
      "t": 56708.91734166603,
      "d": 770.5481250000012,
      "v": 102
    },
    {
      "midi": 62,
      "hit": false,
      "t": 56708.91734166603,
      "d": 770.5481250000012,
      "v": 102
    },
    {
      "midi": 66,
      "hit": false,
      "t": 56708.917341666616,
      "d": 236.30142499999783,
      "v": 110
    },
    {
      "midi": 69,
      "hit": false,
      "t": 56708.917341666616,
      "d": 239.72608333332755,
      "v": 105
    },
    {
      "midi": 62,
      "hit": false,
      "t": 56708.917341666616,
      "d": 243.15074166665727,
      "v": 92
    },
    {
      "midi": 74,
      "hit": false,
      "t": 56708.917341666616,
      "d": 243.15074166665727,
      "v": 96
    },
    {
      "midi": 60,
      "hit": false,
      "t": 56708.917341666835,
      "d": 102.73975000000064,
      "v": 42
    },
    {
      "midi": 55,
      "hit": false,
      "t": 56708.917341666835,
      "d": 102.73975000000064,
      "v": 52
    },
    {
      "midi": 70,
      "hit": false,
      "t": 56712.34199999867,
      "d": 51.36987499999668,
      "v": 60
    },
    {
      "midi": 69,
      "hit": false,
      "t": 56712.34199999867,
      "d": 51.36987499999668,
      "v": 50
    },
    {
      "midi": 36,
      "hit": false,
      "t": 56712.341999999655,
      "d": 51.36987499999668,
      "v": 107
    },
    {
      "midi": 13,
      "hit": false,
      "t": 56712.341999999655,
      "d": 51.36987499999668,
      "v": 127
    },
    {
      "midi": 62,
      "hit": false,
      "t": 56712.341999999924,
      "d": 102.73975000000064,
      "v": 79
    },
    {
      "midi": 69,
      "hit": false,
      "t": 56712.341999999924,
      "d": 102.73975000000064,
      "v": 81
    },
    {
      "midi": 66,
      "hit": false,
      "t": 56712.341999999924,
      "d": 102.73975000000064,
      "v": 112
    },
    {
      "midi": 66,
      "hit": false,
      "t": 56712.34199999995,
      "d": 236.30142499999783,
      "v": 110
    },
    {
      "midi": 69,
      "hit": false,
      "t": 56712.34199999995,
      "d": 239.72608333332755,
      "v": 105
    },
    {
      "midi": 62,
      "hit": false,
      "t": 56712.34199999995,
      "d": 243.15074166665727,
      "v": 92
    },
    {
      "midi": 74,
      "hit": false,
      "t": 56712.34199999995,
      "d": 243.15074166665727,
      "v": 96
    },
    {
      "midi": 66,
      "hit": false,
      "t": 56712.34199999995,
      "d": 236.30142499999783,
      "v": 110
    },
    {
      "midi": 69,
      "hit": false,
      "t": 56712.34199999995,
      "d": 239.72608333332755,
      "v": 105
    },
    {
      "midi": 62,
      "hit": false,
      "t": 56712.34199999995,
      "d": 243.15074166665727,
      "v": 92
    },
    {
      "midi": 74,
      "hit": false,
      "t": 56712.34199999995,
      "d": 243.15074166665727,
      "v": 96
    },
    {
      "midi": 90,
      "hit": false,
      "t": 56712.34199999998,
      "d": 815.0686833333311,
      "v": 110
    },
    {
      "midi": 78,
      "hit": false,
      "t": 56712.34199999998,
      "d": 815.0686833333311,
      "v": 95
    },
    {
      "midi": 62,
      "hit": false,
      "t": 56712.34200000006,
      "d": 821.9179999999978,
      "v": 80
    },
    {
      "midi": 57,
      "hit": false,
      "t": 56712.34200000006,
      "d": 821.9179999999978,
      "v": 80
    },
    {
      "midi": 66,
      "hit": false,
      "t": 56712.34200000006,
      "d": 821.9179999999978,
      "v": 80
    },
    {
      "midi": 42,
      "hit": false,
      "t": 56712.34200000011,
      "d": 102.73975000000064,
      "v": 102
    },
    {
      "midi": 70,
      "hit": false,
      "t": 56815.081749998666,
      "d": 51.36987499999668,
      "v": 49
    },
    {
      "midi": 69,
      "hit": false,
      "t": 56815.081749998666,
      "d": 51.36987499999668,
      "v": 39
    },
    {
      "midi": 38,
      "hit": false,
      "t": 56815.08174999945,
      "d": 51.36987499999668,
      "v": 69
    },
    {
      "midi": 40,
      "hit": false,
      "t": 56815.08174999945,
      "d": 51.36987499999668,
      "v": 69
    },
    {
      "midi": 48,
      "hit": false,
      "t": 56914.39684166587,
      "d": 51.36987499999668,
      "v": 107
    },
    {
      "midi": 55,
      "hit": false,
      "t": 56914.396841666836,
      "d": 102.73975000000064,
      "v": 65
    },
    {
      "midi": 60,
      "hit": false,
      "t": 56914.396841666836,
      "d": 102.73975000000064,
      "v": 43
    },
    {
      "midi": 70,
      "hit": false,
      "t": 56917.82149999866,
      "d": 51.36987499999668,
      "v": 109
    },
    {
      "midi": 69,
      "hit": false,
      "t": 56917.82149999866,
      "d": 51.36987499999668,
      "v": 99
    },
    {
      "midi": 62,
      "hit": false,
      "t": 56917.821499999925,
      "d": 102.73975000000064,
      "v": 37
    },
    {
      "midi": 69,
      "hit": false,
      "t": 56917.821499999925,
      "d": 102.73975000000064,
      "v": 38
    },
    {
      "midi": 66,
      "hit": false,
      "t": 56917.821499999925,
      "d": 102.73975000000064,
      "v": 54
    },
    {
      "midi": 46,
      "hit": false,
      "t": 56917.821500000144,
      "d": 102.73975000000064,
      "v": 107
    },
    {
      "midi": 48,
      "hit": false,
      "t": 57017.13659166586,
      "d": 51.36987499999668,
      "v": 107
    },
    {
      "midi": 62,
      "hit": false,
      "t": 57017.1365916666,
      "d": 65.0685083333301,
      "v": 100
    },
    {
      "midi": 66,
      "hit": false,
      "t": 57017.1365916666,
      "d": 68.49316666665982,
      "v": 115
    },
    {
      "midi": 74,
      "hit": false,
      "t": 57017.1365916666,
      "d": 75.34248333332653,
      "v": 96
    },
    {
      "midi": 69,
      "hit": false,
      "t": 57017.1365916666,
      "d": 78.76714166665624,
      "v": 105
    },
    {
      "midi": 70,
      "hit": false,
      "t": 57020.56124999865,
      "d": 51.36987499999668,
      "v": 53
    },
    {
      "midi": 69,
      "hit": false,
      "t": 57020.56124999865,
      "d": 51.36987499999668,
      "v": 43
    },
    {
      "midi": 69,
      "hit": false,
      "t": 57020.561249999926,
      "d": 102.73975000000064,
      "v": 77
    },
    {
      "midi": 66,
      "hit": false,
      "t": 57020.561249999926,
      "d": 102.73975000000064,
      "v": 102
    },
    {
      "midi": 62,
      "hit": false,
      "t": 57020.561249999926,
      "d": 102.73975000000064,
      "v": 70
    },
    {
      "midi": 62,
      "hit": false,
      "t": 57020.56124999994,
      "d": 65.0685083333301,
      "v": 100
    },
    {
      "midi": 66,
      "hit": false,
      "t": 57020.56124999994,
      "d": 68.49316666665982,
      "v": 115
    },
    {
      "midi": 74,
      "hit": false,
      "t": 57020.56124999994,
      "d": 75.34248333332653,
      "v": 96
    },
    {
      "midi": 69,
      "hit": false,
      "t": 57020.56124999994,
      "d": 78.76714166665624,
      "v": 105
    },
    {
      "midi": 62,
      "hit": false,
      "t": 57020.56124999994,
      "d": 65.0685083333301,
      "v": 100
    },
    {
      "midi": 66,
      "hit": false,
      "t": 57020.56124999994,
      "d": 68.49316666665982,
      "v": 115
    },
    {
      "midi": 74,
      "hit": false,
      "t": 57020.56124999994,
      "d": 75.34248333332653,
      "v": 96
    },
    {
      "midi": 69,
      "hit": false,
      "t": 57020.56124999994,
      "d": 78.76714166665624,
      "v": 105
    },
    {
      "midi": 36,
      "hit": false,
      "t": 57119.876341665855,
      "d": 154.10962499999732,
      "v": 107
    },
    {
      "midi": 109,
      "hit": false,
      "t": 57119.87634166662,
      "d": 51.36987499999668,
      "v": 127
    },
    {
      "midi": 55,
      "hit": false,
      "t": 57119.87634166684,
      "d": 308.2192500000019,
      "v": 95
    },
    {
      "midi": 60,
      "hit": false,
      "t": 57119.87634166684,
      "d": 308.2192500000019,
      "v": 65
    },
    {
      "midi": 70,
      "hit": false,
      "t": 57123.300999998646,
      "d": 51.36987499999668,
      "v": 60
    },
    {
      "midi": 69,
      "hit": false,
      "t": 57123.300999998646,
      "d": 51.36987499999668,
      "v": 50
    },
    {
      "midi": 38,
      "hit": false,
      "t": 57123.30099999945,
      "d": 51.36987499999668,
      "v": 88
    },
    {
      "midi": 40,
      "hit": false,
      "t": 57123.30099999945,
      "d": 51.36987499999668,
      "v": 88
    },
    {
      "midi": 36,
      "hit": false,
      "t": 57123.30099999965,
      "d": 51.36987499999668,
      "v": 107
    },
    {
      "midi": 13,
      "hit": false,
      "t": 57123.30099999965,
      "d": 51.36987499999668,
      "v": 127
    },
    {
      "midi": 42,
      "hit": false,
      "t": 57123.301000000116,
      "d": 102.73975000000064,
      "v": 107
    },
    {
      "midi": 70,
      "hit": false,
      "t": 57226.04074999864,
      "d": 51.36987499999668,
      "v": 49
    },
    {
      "midi": 69,
      "hit": false,
      "t": 57226.04074999864,
      "d": 51.36987499999668,
      "v": 39
    },
    {
      "midi": 69,
      "hit": false,
      "t": 57226.04074999993,
      "d": 102.73975000000064,
      "v": 36
    },
    {
      "midi": 66,
      "hit": false,
      "t": 57226.04074999993,
      "d": 102.73975000000064,
      "v": 49
    },
    {
      "midi": 62,
      "hit": false,
      "t": 57226.04074999993,
      "d": 102.73975000000064,
      "v": 33
    },
    {
      "midi": 48,
      "hit": false,
      "t": 57325.35584166585,
      "d": 51.36987499999668,
      "v": 107
    },
    {
      "midi": 70,
      "hit": false,
      "t": 57328.78049999863,
      "d": 51.36987499999668,
      "v": 109
    },
    {
      "midi": 69,
      "hit": false,
      "t": 57328.78049999863,
      "d": 51.36987499999668,
      "v": 99
    },
    {
      "midi": 38,
      "hit": false,
      "t": 57328.78049999944,
      "d": 51.36987499999668,
      "v": 68
    },
    {
      "midi": 40,
      "hit": false,
      "t": 57328.78049999944,
      "d": 51.36987499999668,
      "v": 68
    },
    {
      "midi": 69,
      "hit": false,
      "t": 57328.78049999993,
      "d": 102.73975000000064,
      "v": 85
    },
    {
      "midi": 66,
      "hit": false,
      "t": 57328.78049999993,
      "d": 102.73975000000064,
      "v": 102
    },
    {
      "midi": 62,
      "hit": false,
      "t": 57328.78049999993,
      "d": 102.73975000000064,
      "v": 68
    },
    {
      "midi": 46,
      "hit": false,
      "t": 57328.780500000146,
      "d": 102.73975000000064,
      "v": 107
    },
    {
      "midi": 48,
      "hit": false,
      "t": 57428.09559166584,
      "d": 51.36987499999668,
      "v": 107
    },
    {
      "midi": 70,
      "hit": false,
      "t": 57431.520249998626,
      "d": 51.36987499999668,
      "v": 53
    },
    {
      "midi": 69,
      "hit": false,
      "t": 57431.520249998626,
      "d": 51.36987499999668,
      "v": 43
    },
    {
      "midi": 38,
      "hit": false,
      "t": 57431.520249999434,
      "d": 51.36987499999668,
      "v": 52
    },
    {
      "midi": 40,
      "hit": false,
      "t": 57431.520249999434,
      "d": 51.36987499999668,
      "v": 52
    },
    {
      "midi": 69,
      "hit": false,
      "t": 57431.52024999993,
      "d": 102.73975000000064,
      "v": 41
    },
    {
      "midi": 66,
      "hit": false,
      "t": 57431.52024999993,
      "d": 102.73975000000064,
      "v": 49
    },
    {
      "midi": 62,
      "hit": false,
      "t": 57431.52024999993,
      "d": 102.73975000000064,
      "v": 32
    },
    {
      "midi": 35,
      "hit": false,
      "t": 57530.835341665836,
      "d": 154.10962499999732,
      "v": 107
    },
    {
      "midi": 69,
      "hit": false,
      "t": 57530.83534166594,
      "d": 297.94527499993274,
      "v": 122
    },
    {
      "midi": 62,
      "hit": false,
      "t": 57530.835341666025,
      "d": 787.6714166666716,
      "v": 114
    },
    {
      "midi": 66,
      "hit": false,
      "t": 57530.835341666025,
      "d": 787.6714166666716,
      "v": 114
    },
    {
      "midi": 69,
      "hit": false,
      "t": 57530.835341666025,
      "d": 804.7947083333347,
      "v": 114
    },
    {
      "midi": 59,
      "hit": false,
      "t": 57530.83534166684,
      "d": 102.73975000000064,
      "v": 52
    },
    {
      "midi": 54,
      "hit": false,
      "t": 57530.83534166684,
      "d": 102.73975000000064,
      "v": 107
    },
    {
      "midi": 70,
      "hit": false,
      "t": 57534.25999999862,
      "d": 51.36987499999668,
      "v": 60
    },
    {
      "midi": 69,
      "hit": false,
      "t": 57534.25999999862,
      "d": 51.36987499999668,
      "v": 50
    },
    {
      "midi": 38,
      "hit": false,
      "t": 57534.25999999943,
      "d": 51.36987499999668,
      "v": 63
    },
    {
      "midi": 40,
      "hit": false,
      "t": 57534.25999999943,
      "d": 51.36987499999668,
      "v": 63
    },
    {
      "midi": 36,
      "hit": false,
      "t": 57534.259999999646,
      "d": 51.36987499999668,
      "v": 107
    },
    {
      "midi": 13,
      "hit": false,
      "t": 57534.259999999646,
      "d": 51.36987499999668,
      "v": 127
    },
    {
      "midi": 66,
      "hit": false,
      "t": 57534.25999999993,
      "d": 102.73975000000064,
      "v": 59
    },
    {
      "midi": 59,
      "hit": false,
      "t": 57534.25999999993,
      "d": 102.73975000000064,
      "v": 57
    },
    {
      "midi": 62,
      "hit": false,
      "t": 57534.25999999993,
      "d": 102.73975000000064,
      "v": 77
    },
    {
      "midi": 86,
      "hit": false,
      "t": 57534.25999999998,
      "d": 815.0686833333311,
      "v": 101
    },
    {
      "midi": 74,
      "hit": false,
      "t": 57534.25999999998,
      "d": 815.0686833333311,
      "v": 89
    },
    {
      "midi": 62,
      "hit": false,
      "t": 57534.26000000006,
      "d": 821.9179999999978,
      "v": 80
    },
    {
      "midi": 66,
      "hit": false,
      "t": 57534.26000000006,
      "d": 821.9179999999978,
      "v": 80
    },
    {
      "midi": 59,
      "hit": false,
      "t": 57534.26000000006,
      "d": 821.9179999999978,
      "v": 80
    },
    {
      "midi": 42,
      "hit": false,
      "t": 57534.26000000012,
      "d": 102.73975000000064,
      "v": 107
    },
    {
      "midi": 70,
      "hit": false,
      "t": 57636.99974999861,
      "d": 51.36987499999668,
      "v": 49
    },
    {
      "midi": 69,
      "hit": false,
      "t": 57636.99974999861,
      "d": 51.36987499999668,
      "v": 39
    },
    {
      "midi": 47,
      "hit": false,
      "t": 57736.31484166583,
      "d": 51.36987499999668,
      "v": 107
    },
    {
      "midi": 59,
      "hit": false,
      "t": 57736.31484166684,
      "d": 102.73975000000064,
      "v": 42
    },
    {
      "midi": 54,
      "hit": false,
      "t": 57736.31484166684,
      "d": 102.73975000000064,
      "v": 53
    },
    {
      "midi": 70,
      "hit": false,
      "t": 57739.739499998606,
      "d": 51.36987499999668,
      "v": 109
    },
    {
      "midi": 69,
      "hit": false,
      "t": 57739.739499998606,
      "d": 51.36987499999668,
      "v": 99
    },
    {
      "midi": 66,
      "hit": false,
      "t": 57739.73949999993,
      "d": 102.73975000000064,
      "v": 28
    },
    {
      "midi": 59,
      "hit": false,
      "t": 57739.73949999993,
      "d": 102.73975000000064,
      "v": 27
    },
    {
      "midi": 62,
      "hit": false,
      "t": 57739.73949999993,
      "d": 102.73975000000064,
      "v": 36
    },
    {
      "midi": 46,
      "hit": false,
      "t": 57739.73950000015,
      "d": 102.73975000000064,
      "v": 107
    },
    {
      "midi": 47,
      "hit": false,
      "t": 57839.05459166582,
      "d": 51.36987499999668,
      "v": 107
    },
    {
      "midi": 62,
      "hit": false,
      "t": 57839.05459166587,
      "d": 321.91788333332806,
      "v": 106
    },
    {
      "midi": 70,
      "hit": false,
      "t": 57842.4792499986,
      "d": 51.36987499999668,
      "v": 53
    },
    {
      "midi": 69,
      "hit": false,
      "t": 57842.4792499986,
      "d": 51.36987499999668,
      "v": 43
    },
    {
      "midi": 59,
      "hit": false,
      "t": 57842.47924999993,
      "d": 102.73975000000064,
      "v": 72
    },
    {
      "midi": 62,
      "hit": false,
      "t": 57842.47924999993,
      "d": 102.73975000000064,
      "v": 98
    },
    {
      "midi": 66,
      "hit": false,
      "t": 57842.47924999993,
      "d": 102.73975000000064,
      "v": 102
    },
    {
      "midi": 35,
      "hit": false,
      "t": 57941.794341665816,
      "d": 154.10962499999732,
      "v": 107
    },
    {
      "midi": 66,
      "hit": false,
      "t": 57941.794341666595,
      "d": 109.58906666666735,
      "v": 110
    },
    {
      "midi": 71,
      "hit": false,
      "t": 57941.794341666595,
      "d": 123.28770000000077,
      "v": 110
    },
    {
      "midi": 62,
      "hit": false,
      "t": 57941.794341666595,
      "d": 126.71235833333049,
      "v": 100
    },
    {
      "midi": 74,
      "hit": false,
      "t": 57941.794341666595,
      "d": 136.9863333333269,
      "v": 105
    },
    {
      "midi": 109,
      "hit": false,
      "t": 57941.79434166662,
      "d": 51.36987499999668,
      "v": 127
    },
    {
      "midi": 54,
      "hit": false,
      "t": 57941.79434166684,
      "d": 102.73975000000064,
      "v": 90
    },
    {
      "midi": 59,
      "hit": false,
      "t": 57941.79434166684,
      "d": 102.73975000000064,
      "v": 55
    },
    {
      "midi": 70,
      "hit": false,
      "t": 57945.21899999859,
      "d": 51.36987499999668,
      "v": 60
    },
    {
      "midi": 69,
      "hit": false,
      "t": 57945.21899999859,
      "d": 51.36987499999668,
      "v": 50
    },
    {
      "midi": 38,
      "hit": false,
      "t": 57945.21899999942,
      "d": 51.36987499999668,
      "v": 88
    },
    {
      "midi": 40,
      "hit": false,
      "t": 57945.21899999942,
      "d": 51.36987499999668,
      "v": 88
    },
    {
      "midi": 36,
      "hit": false,
      "t": 57945.21899999964,
      "d": 51.36987499999668,
      "v": 107
    },
    {
      "midi": 13,
      "hit": false,
      "t": 57945.21899999964,
      "d": 51.36987499999668,
      "v": 127
    },
    {
      "midi": 66,
      "hit": false,
      "t": 57945.21899999993,
      "d": 109.58906666666735,
      "v": 110
    },
    {
      "midi": 71,
      "hit": false,
      "t": 57945.21899999993,
      "d": 123.28770000000077,
      "v": 110
    },
    {
      "midi": 62,
      "hit": false,
      "t": 57945.21899999993,
      "d": 126.71235833333049,
      "v": 100
    },
    {
      "midi": 74,
      "hit": false,
      "t": 57945.21899999993,
      "d": 136.9863333333269,
      "v": 105
    },
    {
      "midi": 66,
      "hit": false,
      "t": 57945.21899999993,
      "d": 109.58906666666735,
      "v": 110
    },
    {
      "midi": 71,
      "hit": false,
      "t": 57945.21899999993,
      "d": 123.28770000000077,
      "v": 110
    },
    {
      "midi": 62,
      "hit": false,
      "t": 57945.21899999993,
      "d": 126.71235833333049,
      "v": 100
    },
    {
      "midi": 74,
      "hit": false,
      "t": 57945.21899999993,
      "d": 136.9863333333269,
      "v": 105
    },
    {
      "midi": 42,
      "hit": false,
      "t": 57945.21900000012,
      "d": 102.73975000000064,
      "v": 107
    },
    {
      "midi": 70,
      "hit": false,
      "t": 58047.95874999859,
      "d": 51.36987499999668,
      "v": 49
    },
    {
      "midi": 69,
      "hit": false,
      "t": 58047.95874999859,
      "d": 51.36987499999668,
      "v": 39
    },
    {
      "midi": 59,
      "hit": false,
      "t": 58047.95874999993,
      "d": 102.73975000000064,
      "v": 34
    },
    {
      "midi": 62,
      "hit": false,
      "t": 58047.95874999993,
      "d": 102.73975000000064,
      "v": 47
    },
    {
      "midi": 66,
      "hit": false,
      "t": 58047.95874999993,
      "d": 102.73975000000064,
      "v": 49
    },
    {
      "midi": 47,
      "hit": false,
      "t": 58147.27384166581,
      "d": 51.36987499999668,
      "v": 107
    },
    {
      "midi": 67,
      "hit": false,
      "t": 58147.27384166587,
      "d": 205.47949999992852,
      "v": 124
    },
    {
      "midi": 59,
      "hit": false,
      "t": 58147.27384166684,
      "d": 102.73975000000064,
      "v": 65
    },
    {
      "midi": 54,
      "hit": false,
      "t": 58147.27384166684,
      "d": 102.73975000000064,
      "v": 95
    },
    {
      "midi": 70,
      "hit": false,
      "t": 58150.69849999858,
      "d": 51.36987499999668,
      "v": 109
    },
    {
      "midi": 69,
      "hit": false,
      "t": 58150.69849999858,
      "d": 51.36987499999668,
      "v": 99
    },
    {
      "midi": 66,
      "hit": false,
      "t": 58150.69849999993,
      "d": 205.47950000000128,
      "v": 107
    },
    {
      "midi": 62,
      "hit": false,
      "t": 58150.69849999993,
      "d": 205.47950000000128,
      "v": 98
    },
    {
      "midi": 59,
      "hit": false,
      "t": 58150.69849999993,
      "d": 205.47950000000128,
      "v": 77
    },
    {
      "midi": 46,
      "hit": false,
      "t": 58150.69850000015,
      "d": 205.47950000000128,
      "v": 107
    },
    {
      "midi": 47,
      "hit": false,
      "t": 58250.013591665804,
      "d": 51.36987499999668,
      "v": 107
    },
    {
      "midi": 70,
      "hit": false,
      "t": 58253.43824999857,
      "d": 51.36987499999668,
      "v": 53
    },
    {
      "midi": 69,
      "hit": false,
      "t": 58253.43824999857,
      "d": 51.36987499999668,
      "v": 43
    },
    {
      "midi": 38,
      "hit": false,
      "t": 58253.43824999942,
      "d": 51.36987499999668,
      "v": 88
    },
    {
      "midi": 40,
      "hit": false,
      "t": 58253.43824999942,
      "d": 51.36987499999668,
      "v": 88
    },
    {
      "midi": 28,
      "hit": false,
      "t": 58352.7533416658,
      "d": 154.10962499999732,
      "v": 107
    },
    {
      "midi": 67,
      "hit": false,
      "t": 58352.7533416658,
      "d": 534.2466999999451,
      "v": 112
    },
    {
      "midi": 67,
      "hit": false,
      "t": 58352.75334166602,
      "d": 787.6714166666716,
      "v": 91
    },
    {
      "midi": 59,
      "hit": false,
      "t": 58352.75334166602,
      "d": 787.6714166666716,
      "v": 91
    },
    {
      "midi": 64,
      "hit": false,
      "t": 58352.75334166602,
      "d": 787.6714166666716,
      "v": 91
    },
    {
      "midi": 67,
      "hit": false,
      "t": 58352.75334166659,
      "d": 253.42471666666825,
      "v": 122
    },
    {
      "midi": 64,
      "hit": false,
      "t": 58352.75334166659,
      "d": 253.42471666666825,
      "v": 122
    },
    {
      "midi": 59,
      "hit": false,
      "t": 58352.75334166659,
      "d": 260.27403333333496,
      "v": 100
    },
    {
      "midi": 71,
      "hit": false,
      "t": 58352.75334166659,
      "d": 263.6986916666647,
      "v": 100
    },
    {
      "midi": 52,
      "hit": false,
      "t": 58352.753341666845,
      "d": 102.73975000000064,
      "v": 58
    },
    {
      "midi": 59,
      "hit": false,
      "t": 58352.753341666845,
      "d": 102.73975000000064,
      "v": 41
    },
    {
      "midi": 70,
      "hit": false,
      "t": 58356.17799999857,
      "d": 51.36987499999668,
      "v": 60
    },
    {
      "midi": 69,
      "hit": false,
      "t": 58356.17799999857,
      "d": 51.36987499999668,
      "v": 50
    },
    {
      "midi": 36,
      "hit": false,
      "t": 58356.177999999636,
      "d": 51.36987499999668,
      "v": 107
    },
    {
      "midi": 13,
      "hit": false,
      "t": 58356.177999999636,
      "d": 51.36987499999668,
      "v": 127
    },
    {
      "midi": 67,
      "hit": false,
      "t": 58356.17799999993,
      "d": 253.42471666666825,
      "v": 122
    },
    {
      "midi": 64,
      "hit": false,
      "t": 58356.17799999993,
      "d": 253.42471666666825,
      "v": 122
    },
    {
      "midi": 59,
      "hit": false,
      "t": 58356.17799999993,
      "d": 260.27403333333496,
      "v": 100
    },
    {
      "midi": 71,
      "hit": false,
      "t": 58356.17799999993,
      "d": 263.6986916666647,
      "v": 100
    },
    {
      "midi": 67,
      "hit": false,
      "t": 58356.17799999993,
      "d": 253.42471666666825,
      "v": 122
    },
    {
      "midi": 64,
      "hit": false,
      "t": 58356.17799999993,
      "d": 253.42471666666825,
      "v": 122
    },
    {
      "midi": 59,
      "hit": false,
      "t": 58356.17799999993,
      "d": 260.27403333333496,
      "v": 100
    },
    {
      "midi": 71,
      "hit": false,
      "t": 58356.17799999993,
      "d": 263.6986916666647,
      "v": 100
    },
    {
      "midi": 88,
      "hit": false,
      "t": 58356.17799999998,
      "d": 815.0686833333311,
      "v": 105
    },
    {
      "midi": 76,
      "hit": false,
      "t": 58356.17799999998,
      "d": 815.0686833333311,
      "v": 92
    },
    {
      "midi": 67,
      "hit": false,
      "t": 58356.17800000006,
      "d": 821.9179999999978,
      "v": 80
    },
    {
      "midi": 64,
      "hit": false,
      "t": 58356.17800000006,
      "d": 821.9179999999978,
      "v": 80
    },
    {
      "midi": 59,
      "hit": false,
      "t": 58356.17800000006,
      "d": 821.9179999999978,
      "v": 80
    },
    {
      "midi": 42,
      "hit": false,
      "t": 58356.17800000012,
      "d": 102.73975000000064,
      "v": 102
    },
    {
      "midi": 70,
      "hit": false,
      "t": 58458.91774999856,
      "d": 51.36987499999668,
      "v": 49
    },
    {
      "midi": 69,
      "hit": false,
      "t": 58458.91774999856,
      "d": 51.36987499999668,
      "v": 39
    },
    {
      "midi": 38,
      "hit": false,
      "t": 58458.91774999941,
      "d": 51.36987499999668,
      "v": 69
    },
    {
      "midi": 40,
      "hit": false,
      "t": 58458.91774999941,
      "d": 51.36987499999668,
      "v": 69
    },
    {
      "midi": 62,
      "hit": false,
      "t": 58458.917749999935,
      "d": 102.73975000000064,
      "v": 85
    },
    {
      "midi": 59,
      "hit": false,
      "t": 58458.917749999935,
      "d": 102.73975000000064,
      "v": 59
    },
    {
      "midi": 66,
      "hit": false,
      "t": 58458.917749999935,
      "d": 102.73975000000064,
      "v": 102
    },
    {
      "midi": 40,
      "hit": false,
      "t": 58558.23284166579,
      "d": 51.36987499999668,
      "v": 107
    },
    {
      "midi": 52,
      "hit": false,
      "t": 58558.232841666846,
      "d": 102.73975000000064,
      "v": 53
    },
    {
      "midi": 59,
      "hit": false,
      "t": 58558.232841666846,
      "d": 102.73975000000064,
      "v": 55
    },
    {
      "midi": 70,
      "hit": false,
      "t": 58561.65749999855,
      "d": 51.36987499999668,
      "v": 109
    },
    {
      "midi": 69,
      "hit": false,
      "t": 58561.65749999855,
      "d": 51.36987499999668,
      "v": 99
    },
    {
      "midi": 46,
      "hit": false,
      "t": 58561.657500000154,
      "d": 102.73975000000064,
      "v": 107
    },
    {
      "midi": 40,
      "hit": false,
      "t": 58660.972591665784,
      "d": 51.36987499999668,
      "v": 107
    },
    {
      "midi": 64,
      "hit": false,
      "t": 58660.972591666585,
      "d": 89.04111666666722,
      "v": 122
    },
    {
      "midi": 59,
      "hit": false,
      "t": 58660.972591666585,
      "d": 89.04111666666722,
      "v": 115
    },
    {
      "midi": 67,
      "hit": false,
      "t": 58660.972591666585,
      "d": 92.46577499999694,
      "v": 122
    },
    {
      "midi": 71,
      "hit": false,
      "t": 58660.972591666585,
      "d": 99.31509166666365,
      "v": 115
    },
    {
      "midi": 70,
      "hit": false,
      "t": 58664.39724999855,
      "d": 51.36987499999668,
      "v": 53
    },
    {
      "midi": 69,
      "hit": false,
      "t": 58664.39724999855,
      "d": 51.36987499999668,
      "v": 43
    },
    {
      "midi": 64,
      "hit": false,
      "t": 58664.39724999992,
      "d": 89.04111666666722,
      "v": 122
    },
    {
      "midi": 59,
      "hit": false,
      "t": 58664.39724999992,
      "d": 89.04111666666722,
      "v": 115
    },
    {
      "midi": 67,
      "hit": false,
      "t": 58664.39724999992,
      "d": 92.46577499999694,
      "v": 122
    },
    {
      "midi": 71,
      "hit": false,
      "t": 58664.39724999992,
      "d": 99.31509166666365,
      "v": 115
    },
    {
      "midi": 64,
      "hit": false,
      "t": 58664.39724999992,
      "d": 89.04111666666722,
      "v": 122
    },
    {
      "midi": 59,
      "hit": false,
      "t": 58664.39724999992,
      "d": 89.04111666666722,
      "v": 115
    },
    {
      "midi": 67,
      "hit": false,
      "t": 58664.39724999992,
      "d": 92.46577499999694,
      "v": 122
    },
    {
      "midi": 71,
      "hit": false,
      "t": 58664.39724999992,
      "d": 99.31509166666365,
      "v": 115
    },
    {
      "midi": 66,
      "hit": false,
      "t": 58664.397249999936,
      "d": 102.73975000000064,
      "v": 49
    },
    {
      "midi": 62,
      "hit": false,
      "t": 58664.397249999936,
      "d": 102.73975000000064,
      "v": 41
    },
    {
      "midi": 59,
      "hit": false,
      "t": 58664.397249999936,
      "d": 102.73975000000064,
      "v": 28
    },
    {
      "midi": 28,
      "hit": false,
      "t": 58763.71234166578,
      "d": 154.10962499999732,
      "v": 107
    },
    {
      "midi": 109,
      "hit": false,
      "t": 58763.712341666615,
      "d": 51.36987499999668,
      "v": 127
    },
    {
      "midi": 59,
      "hit": false,
      "t": 58763.71234166685,
      "d": 308.2192500000019,
      "v": 85
    },
    {
      "midi": 52,
      "hit": false,
      "t": 58763.71234166685,
      "d": 308.2192500000019,
      "v": 113
    },
    {
      "midi": 70,
      "hit": false,
      "t": 58767.13699999854,
      "d": 51.36987499999668,
      "v": 60
    },
    {
      "midi": 69,
      "hit": false,
      "t": 58767.13699999854,
      "d": 51.36987499999668,
      "v": 50
    },
    {
      "midi": 38,
      "hit": false,
      "t": 58767.136999999406,
      "d": 51.36987499999668,
      "v": 88
    },
    {
      "midi": 40,
      "hit": false,
      "t": 58767.136999999406,
      "d": 51.36987499999668,
      "v": 88
    },
    {
      "midi": 36,
      "hit": false,
      "t": 58767.13699999963,
      "d": 51.36987499999668,
      "v": 107
    },
    {
      "midi": 13,
      "hit": false,
      "t": 58767.13699999963,
      "d": 51.36987499999668,
      "v": 127
    },
    {
      "midi": 66,
      "hit": false,
      "t": 58767.13699999994,
      "d": 205.47950000000128,
      "v": 91
    },
    {
      "midi": 59,
      "hit": false,
      "t": 58767.13699999994,
      "d": 205.47950000000128,
      "v": 63
    },
    {
      "midi": 62,
      "hit": false,
      "t": 58767.13699999994,
      "d": 205.47950000000128,
      "v": 94
    },
    {
      "midi": 42,
      "hit": false,
      "t": 58767.137000000126,
      "d": 102.73975000000064,
      "v": 107
    },
    {
      "midi": 70,
      "hit": false,
      "t": 58869.87674999853,
      "d": 51.36987499999668,
      "v": 49
    },
    {
      "midi": 69,
      "hit": false,
      "t": 58869.87674999853,
      "d": 51.36987499999668,
      "v": 39
    },
    {
      "midi": 59,
      "hit": false,
      "t": 58969.19184166573,
      "d": 58.21919166666339,
      "v": 94
    },
    {
      "midi": 40,
      "hit": false,
      "t": 58969.19184166577,
      "d": 51.36987499999668,
      "v": 107
    },
    {
      "midi": 70,
      "hit": false,
      "t": 58972.61649999853,
      "d": 51.36987499999668,
      "v": 109
    },
    {
      "midi": 69,
      "hit": false,
      "t": 58972.61649999853,
      "d": 51.36987499999668,
      "v": 99
    },
    {
      "midi": 38,
      "hit": false,
      "t": 58972.6164999994,
      "d": 51.36987499999668,
      "v": 68
    },
    {
      "midi": 40,
      "hit": false,
      "t": 58972.6164999994,
      "d": 51.36987499999668,
      "v": 68
    },
    {
      "midi": 46,
      "hit": false,
      "t": 58972.61650000016,
      "d": 102.73975000000064,
      "v": 107
    },
    {
      "midi": 59,
      "hit": false,
      "t": 59071.93159166572,
      "d": 136.9863333333342,
      "v": 92
    },
    {
      "midi": 40,
      "hit": false,
      "t": 59071.931591665765,
      "d": 51.36987499999668,
      "v": 107
    },
    {
      "midi": 70,
      "hit": false,
      "t": 59075.35624999852,
      "d": 51.36987499999668,
      "v": 53
    },
    {
      "midi": 69,
      "hit": false,
      "t": 59075.35624999852,
      "d": 51.36987499999668,
      "v": 43
    },
    {
      "midi": 38,
      "hit": false,
      "t": 59075.35624999939,
      "d": 51.36987499999668,
      "v": 52
    },
    {
      "midi": 40,
      "hit": false,
      "t": 59075.35624999939,
      "d": 51.36987499999668,
      "v": 52
    },
    {
      "midi": 64,
      "hit": false,
      "t": 59075.35624999994,
      "d": 102.73975000000064,
      "v": 98
    },
    {
      "midi": 67,
      "hit": false,
      "t": 59075.35624999994,
      "d": 102.73975000000064,
      "v": 91
    },
    {
      "midi": 59,
      "hit": false,
      "t": 59075.35624999994,
      "d": 102.73975000000064,
      "v": 60
    },
    {
      "midi": 60,
      "hit": false,
      "t": 59174.67134166572,
      "d": 400.68502499997703,
      "v": 90
    },
    {
      "midi": 33,
      "hit": false,
      "t": 59174.67134166576,
      "d": 154.10962499999732,
      "v": 107
    },
    {
      "midi": 59,
      "hit": false,
      "t": 59174.67134166685,
      "d": 102.73975000000064,
      "v": 63
    },
    {
      "midi": 52,
      "hit": false,
      "t": 59174.67134166685,
      "d": 102.73975000000064,
      "v": 82
    },
    {
      "midi": 70,
      "hit": false,
      "t": 59178.09599999851,
      "d": 51.36987499999668,
      "v": 60
    },
    {
      "midi": 69,
      "hit": false,
      "t": 59178.09599999851,
      "d": 51.36987499999668,
      "v": 50
    },
    {
      "midi": 38,
      "hit": false,
      "t": 59178.09599999939,
      "d": 51.36987499999668,
      "v": 63
    },
    {
      "midi": 40,
      "hit": false,
      "t": 59178.09599999939,
      "d": 51.36987499999668,
      "v": 64
    },
    {
      "midi": 36,
      "hit": false,
      "t": 59178.09599999963,
      "d": 51.36987499999668,
      "v": 107
    },
    {
      "midi": 13,
      "hit": false,
      "t": 59178.09599999963,
      "d": 51.36987499999668,
      "v": 127
    },
    {
      "midi": 69,
      "hit": false,
      "t": 59178.09599999994,
      "d": 102.73975000000064,
      "v": 33
    },
    {
      "midi": 60,
      "hit": false,
      "t": 59178.09599999994,
      "d": 102.73975000000064,
      "v": 67
    },
    {
      "midi": 64,
      "hit": false,
      "t": 59178.09599999994,
      "d": 102.73975000000064,
      "v": 94
    },
    {
      "midi": 84,
      "hit": false,
      "t": 59178.095999999976,
      "d": 1017.1235250000027,
      "v": 105
    },
    {
      "midi": 72,
      "hit": false,
      "t": 59178.095999999976,
      "d": 1017.1235250000027,
      "v": 91
    },
    {
      "midi": 60,
      "hit": false,
      "t": 59178.096000000056,
      "d": 1643.836000000003,
      "v": 80
    },
    {
      "midi": 64,
      "hit": false,
      "t": 59178.096000000056,
      "d": 1643.836000000003,
      "v": 80
    },
    {
      "midi": 57,
      "hit": false,
      "t": 59178.096000000056,
      "d": 1643.836000000003,
      "v": 80
    },
    {
      "midi": 42,
      "hit": false,
      "t": 59178.09600000013,
      "d": 102.73975000000064,
      "v": 107
    },
    {
      "midi": 70,
      "hit": false,
      "t": 59280.83574999851,
      "d": 51.36987499999668,
      "v": 49
    },
    {
      "midi": 69,
      "hit": false,
      "t": 59280.83574999851,
      "d": 51.36987499999668,
      "v": 39
    },
    {
      "midi": 45,
      "hit": false,
      "t": 59380.15084166575,
      "d": 51.36987499999668,
      "v": 107
    },
    {
      "midi": 59,
      "hit": false,
      "t": 59380.15084166685,
      "d": 102.73975000000064,
      "v": 53
    },
    {
      "midi": 52,
      "hit": false,
      "t": 59380.15084166685,
      "d": 102.73975000000064,
      "v": 65
    },
    {
      "midi": 70,
      "hit": false,
      "t": 59383.5754999985,
      "d": 51.36987499999668,
      "v": 109
    },
    {
      "midi": 69,
      "hit": false,
      "t": 59383.5754999985,
      "d": 51.36987499999668,
      "v": 99
    },
    {
      "midi": 69,
      "hit": false,
      "t": 59383.57549999994,
      "d": 102.73975000000064,
      "v": 15
    },
    {
      "midi": 60,
      "hit": false,
      "t": 59383.57549999994,
      "d": 102.73975000000064,
      "v": 32
    },
    {
      "midi": 64,
      "hit": false,
      "t": 59383.57549999994,
      "d": 102.73975000000064,
      "v": 45
    },
    {
      "midi": 46,
      "hit": false,
      "t": 59383.57550000016,
      "d": 102.73975000000064,
      "v": 107
    },
    {
      "midi": 45,
      "hit": false,
      "t": 59482.890591665746,
      "d": 51.36987499999668,
      "v": 107
    },
    {
      "midi": 70,
      "hit": false,
      "t": 59486.31524999849,
      "d": 51.36987499999668,
      "v": 53
    },
    {
      "midi": 69,
      "hit": false,
      "t": 59486.31524999849,
      "d": 51.36987499999668,
      "v": 43
    },
    {
      "midi": 69,
      "hit": false,
      "t": 59486.31524999994,
      "d": 102.73975000000064,
      "v": 44
    },
    {
      "midi": 64,
      "hit": false,
      "t": 59486.31524999994,
      "d": 102.73975000000064,
      "v": 112
    },
    {
      "midi": 60,
      "hit": false,
      "t": 59486.31524999994,
      "d": 102.73975000000064,
      "v": 85
    },
    {
      "midi": 62,
      "hit": false,
      "t": 59585.630341665696,
      "d": 417.80831666664017,
      "v": 100
    },
    {
      "midi": 33,
      "hit": false,
      "t": 59585.63034166574,
      "d": 154.10962499999732,
      "v": 107
    },
    {
      "midi": 109,
      "hit": false,
      "t": 59585.63034166661,
      "d": 51.36987499999668,
      "v": 127
    },
    {
      "midi": 52,
      "hit": false,
      "t": 59585.63034166685,
      "d": 102.73975000000064,
      "v": 45
    },
    {
      "midi": 59,
      "hit": false,
      "t": 59585.63034166685,
      "d": 102.73975000000064,
      "v": 42
    },
    {
      "midi": 70,
      "hit": false,
      "t": 59589.05499999849,
      "d": 51.36987499999668,
      "v": 60
    },
    {
      "midi": 69,
      "hit": false,
      "t": 59589.05499999849,
      "d": 51.36987499999668,
      "v": 50
    },
    {
      "midi": 38,
      "hit": false,
      "t": 59589.05499999938,
      "d": 51.36987499999668,
      "v": 88
    },
    {
      "midi": 40,
      "hit": false,
      "t": 59589.05499999938,
      "d": 51.36987499999668,
      "v": 88
    },
    {
      "midi": 36,
      "hit": false,
      "t": 59589.05499999962,
      "d": 51.36987499999668,
      "v": 107
    },
    {
      "midi": 13,
      "hit": false,
      "t": 59589.05499999962,
      "d": 51.36987499999668,
      "v": 127
    },
    {
      "midi": 42,
      "hit": false,
      "t": 59589.05500000013,
      "d": 102.73975000000064,
      "v": 107
    },
    {
      "midi": 70,
      "hit": false,
      "t": 59691.79474999848,
      "d": 51.36987499999668,
      "v": 49
    },
    {
      "midi": 69,
      "hit": false,
      "t": 59691.79474999848,
      "d": 51.36987499999668,
      "v": 39
    },
    {
      "midi": 69,
      "hit": false,
      "t": 59691.79474999994,
      "d": 102.73975000000064,
      "v": 21
    },
    {
      "midi": 64,
      "hit": false,
      "t": 59691.79474999994,
      "d": 102.73975000000064,
      "v": 54
    },
    {
      "midi": 60,
      "hit": false,
      "t": 59691.79474999994,
      "d": 102.73975000000064,
      "v": 41
    },
    {
      "midi": 45,
      "hit": false,
      "t": 59791.10984166573,
      "d": 51.36987499999668,
      "v": 107
    },
    {
      "midi": 59,
      "hit": false,
      "t": 59791.109841666854,
      "d": 102.73975000000064,
      "v": 82
    },
    {
      "midi": 52,
      "hit": false,
      "t": 59791.109841666854,
      "d": 102.73975000000064,
      "v": 101
    },
    {
      "midi": 70,
      "hit": false,
      "t": 59794.53449999847,
      "d": 51.36987499999668,
      "v": 109
    },
    {
      "midi": 69,
      "hit": false,
      "t": 59794.53449999847,
      "d": 51.36987499999668,
      "v": 99
    },
    {
      "midi": 69,
      "hit": false,
      "t": 59794.53449999994,
      "d": 102.73975000000064,
      "v": 41
    },
    {
      "midi": 60,
      "hit": false,
      "t": 59794.53449999994,
      "d": 102.73975000000064,
      "v": 70
    },
    {
      "midi": 64,
      "hit": false,
      "t": 59794.53449999994,
      "d": 102.73975000000064,
      "v": 107
    },
    {
      "midi": 46,
      "hit": false,
      "t": 59794.53450000016,
      "d": 205.47950000000128,
      "v": 107
    },
    {
      "midi": 45,
      "hit": false,
      "t": 59893.84959166573,
      "d": 51.36987499999668,
      "v": 107
    },
    {
      "midi": 70,
      "hit": false,
      "t": 59897.27424999847,
      "d": 51.36987499999668,
      "v": 53
    },
    {
      "midi": 69,
      "hit": false,
      "t": 59897.27424999847,
      "d": 51.36987499999668,
      "v": 43
    },
    {
      "midi": 38,
      "hit": false,
      "t": 59897.27424999938,
      "d": 51.36987499999668,
      "v": 88
    },
    {
      "midi": 40,
      "hit": false,
      "t": 59897.27424999938,
      "d": 51.36987499999668,
      "v": 88
    },
    {
      "midi": 64,
      "hit": false,
      "t": 59996.58934166567,
      "d": 424.6576333333287,
      "v": 110
    },
    {
      "midi": 33,
      "hit": false,
      "t": 59996.58934166572,
      "d": 154.10962499999732,
      "v": 107
    },
    {
      "midi": 59,
      "hit": false,
      "t": 59996.589341666855,
      "d": 102.73975000000064,
      "v": 55
    },
    {
      "midi": 52,
      "hit": false,
      "t": 59996.589341666855,
      "d": 102.73975000000064,
      "v": 65
    },
    {
      "midi": 70,
      "hit": false,
      "t": 60000.01399999846,
      "d": 51.36987499999668,
      "v": 60
    },
    {
      "midi": 69,
      "hit": false,
      "t": 60000.01399999846,
      "d": 51.36987499999668,
      "v": 50
    },
    {
      "midi": 36,
      "hit": false,
      "t": 60000.01399999962,
      "d": 51.36987499999668,
      "v": 107
    },
    {
      "midi": 13,
      "hit": false,
      "t": 60000.01399999962,
      "d": 51.36987499999668,
      "v": 127
    },
    {
      "midi": 69,
      "hit": false,
      "t": 60000.013999999945,
      "d": 102.73975000000064,
      "v": 19
    },
    {
      "midi": 60,
      "hit": false,
      "t": 60000.013999999945,
      "d": 102.73975000000064,
      "v": 33
    },
    {
      "midi": 64,
      "hit": false,
      "t": 60000.013999999945,
      "d": 102.73975000000064,
      "v": 52
    },
    {
      "midi": 42,
      "hit": false,
      "t": 60000.014000000134,
      "d": 102.73975000000064,
      "v": 102
    },
    {
      "midi": 70,
      "hit": false,
      "t": 60102.753749998454,
      "d": 51.36987499999668,
      "v": 49
    },
    {
      "midi": 69,
      "hit": false,
      "t": 60102.753749998454,
      "d": 51.36987499999668,
      "v": 39
    },
    {
      "midi": 38,
      "hit": false,
      "t": 60102.75374999937,
      "d": 51.36987499999668,
      "v": 69
    },
    {
      "midi": 40,
      "hit": false,
      "t": 60102.75374999937,
      "d": 51.36987499999668,
      "v": 69
    },
    {
      "midi": 69,
      "hit": false,
      "t": 60102.753749999945,
      "d": 102.73975000000064,
      "v": 42
    },
    {
      "midi": 60,
      "hit": false,
      "t": 60102.753749999945,
      "d": 102.73975000000064,
      "v": 79
    },
    {
      "midi": 64,
      "hit": false,
      "t": 60102.753749999945,
      "d": 102.73975000000064,
      "v": 107
    },
    {
      "midi": 45,
      "hit": false,
      "t": 60202.068841665714,
      "d": 51.36987499999668,
      "v": 107
    },
    {
      "midi": 59,
      "hit": false,
      "t": 60202.068841666856,
      "d": 102.73975000000064,
      "v": 58
    },
    {
      "midi": 52,
      "hit": false,
      "t": 60202.068841666856,
      "d": 102.73975000000064,
      "v": 65
    },
    {
      "midi": 70,
      "hit": false,
      "t": 60205.49349999845,
      "d": 51.36987499999668,
      "v": 109
    },
    {
      "midi": 69,
      "hit": false,
      "t": 60205.49349999845,
      "d": 51.36987499999668,
      "v": 99
    },
    {
      "midi": 86,
      "hit": false,
      "t": 60205.493499999975,
      "d": 205.47950000000128,
      "v": 96
    },
    {
      "midi": 74,
      "hit": false,
      "t": 60205.493499999975,
      "d": 205.47950000000128,
      "v": 85
    },
    {
      "midi": 46,
      "hit": false,
      "t": 60205.493500000164,
      "d": 102.73975000000064,
      "v": 107
    },
    {
      "midi": 45,
      "hit": false,
      "t": 60304.80859166571,
      "d": 51.36987499999668,
      "v": 107
    },
    {
      "midi": 70,
      "hit": false,
      "t": 60308.23324999844,
      "d": 51.36987499999668,
      "v": 53
    },
    {
      "midi": 69,
      "hit": false,
      "t": 60308.23324999844,
      "d": 51.36987499999668,
      "v": 43
    },
    {
      "midi": 69,
      "hit": false,
      "t": 60308.23324999995,
      "d": 102.73975000000064,
      "v": 19
    },
    {
      "midi": 60,
      "hit": false,
      "t": 60308.23324999995,
      "d": 102.73975000000064,
      "v": 37
    },
    {
      "midi": 64,
      "hit": false,
      "t": 60308.23324999995,
      "d": 102.73975000000064,
      "v": 52
    },
    {
      "midi": 67,
      "hit": false,
      "t": 60407.54834166567,
      "d": 390.4110499999442,
      "v": 119
    },
    {
      "midi": 33,
      "hit": false,
      "t": 60407.5483416657,
      "d": 154.10962499999732,
      "v": 107
    },
    {
      "midi": 109,
      "hit": false,
      "t": 60407.54834166661,
      "d": 51.36987499999668,
      "v": 127
    },
    {
      "midi": 59,
      "hit": false,
      "t": 60407.54834166686,
      "d": 102.73975000000064,
      "v": 90
    },
    {
      "midi": 52,
      "hit": false,
      "t": 60407.54834166686,
      "d": 102.73975000000064,
      "v": 113
    },
    {
      "midi": 70,
      "hit": false,
      "t": 60410.972999998434,
      "d": 51.36987499999668,
      "v": 60
    },
    {
      "midi": 69,
      "hit": false,
      "t": 60410.972999998434,
      "d": 51.36987499999668,
      "v": 50
    },
    {
      "midi": 38,
      "hit": false,
      "t": 60410.972999999365,
      "d": 51.36987499999668,
      "v": 88
    },
    {
      "midi": 40,
      "hit": false,
      "t": 60410.972999999365,
      "d": 51.36987499999668,
      "v": 88
    },
    {
      "midi": 36,
      "hit": false,
      "t": 60410.97299999961,
      "d": 51.36987499999668,
      "v": 107
    },
    {
      "midi": 13,
      "hit": false,
      "t": 60410.97299999961,
      "d": 51.36987499999668,
      "v": 127
    },
    {
      "midi": 69,
      "hit": false,
      "t": 60410.97299999995,
      "d": 102.73975000000064,
      "v": 42
    },
    {
      "midi": 60,
      "hit": false,
      "t": 60410.97299999995,
      "d": 102.73975000000064,
      "v": 77
    },
    {
      "midi": 64,
      "hit": false,
      "t": 60410.97299999995,
      "d": 102.73975000000064,
      "v": 102
    },
    {
      "midi": 88,
      "hit": false,
      "t": 60410.972999999976,
      "d": 205.47950000000128,
      "v": 99
    },
    {
      "midi": 76,
      "hit": false,
      "t": 60410.972999999976,
      "d": 205.47950000000128,
      "v": 87
    },
    {
      "midi": 42,
      "hit": false,
      "t": 60410.97300000014,
      "d": 102.73975000000064,
      "v": 107
    },
    {
      "midi": 70,
      "hit": false,
      "t": 60513.71274999843,
      "d": 51.36987499999668,
      "v": 49
    },
    {
      "midi": 69,
      "hit": false,
      "t": 60513.71274999843,
      "d": 51.36987499999668,
      "v": 39
    },
    {
      "midi": 45,
      "hit": false,
      "t": 60613.027841665695,
      "d": 51.36987499999668,
      "v": 107
    },
    {
      "midi": 59,
      "hit": false,
      "t": 60613.02784166686,
      "d": 205.47950000000128,
      "v": 85
    },
    {
      "midi": 52,
      "hit": false,
      "t": 60613.02784166686,
      "d": 205.47950000000128,
      "v": 121
    },
    {
      "midi": 70,
      "hit": false,
      "t": 60616.45249999842,
      "d": 51.36987499999668,
      "v": 109
    },
    {
      "midi": 69,
      "hit": false,
      "t": 60616.45249999842,
      "d": 51.36987499999668,
      "v": 99
    },
    {
      "midi": 38,
      "hit": false,
      "t": 60616.45249999936,
      "d": 51.36987499999668,
      "v": 68
    },
    {
      "midi": 40,
      "hit": false,
      "t": 60616.45249999936,
      "d": 51.36987499999668,
      "v": 68
    },
    {
      "midi": 69,
      "hit": false,
      "t": 60616.45249999995,
      "d": 102.73975000000064,
      "v": 44
    },
    {
      "midi": 60,
      "hit": false,
      "t": 60616.45249999995,
      "d": 102.73975000000064,
      "v": 80
    },
    {
      "midi": 64,
      "hit": false,
      "t": 60616.45249999995,
      "d": 102.73975000000064,
      "v": 110
    },
    {
      "midi": 90,
      "hit": false,
      "t": 60616.45249999998,
      "d": 205.47950000000128,
      "v": 101
    },
    {
      "midi": 78,
      "hit": false,
      "t": 60616.45249999998,
      "d": 205.47950000000128,
      "v": 88
    },
    {
      "midi": 46,
      "hit": false,
      "t": 60616.45250000017,
      "d": 102.73975000000064,
      "v": 107
    },
    {
      "midi": 45,
      "hit": false,
      "t": 60715.76759166569,
      "d": 51.36987499999668,
      "v": 107
    },
    {
      "midi": 70,
      "hit": false,
      "t": 60719.192249998414,
      "d": 51.36987499999668,
      "v": 53
    },
    {
      "midi": 69,
      "hit": false,
      "t": 60719.192249998414,
      "d": 51.36987499999668,
      "v": 43
    },
    {
      "midi": 38,
      "hit": false,
      "t": 60719.19224999935,
      "d": 51.36987499999668,
      "v": 52
    },
    {
      "midi": 40,
      "hit": false,
      "t": 60719.19224999935,
      "d": 51.36987499999668,
      "v": 52
    },
    {
      "midi": 60,
      "hit": false,
      "t": 60719.19224999995,
      "d": 51.36987499999668,
      "v": 82
    },
    {
      "midi": 69,
      "hit": false,
      "t": 60719.19224999995,
      "d": 51.36987499999668,
      "v": 42
    },
    {
      "midi": 64,
      "hit": false,
      "t": 60719.19224999995,
      "d": 51.36987499999668,
      "v": 111
    },
    {
      "midi": 71,
      "hit": false,
      "t": 60818.50734166561,
      "d": 311.6439083333098,
      "v": 118
    },
    {
      "midi": 26,
      "hit": false,
      "t": 60818.50734166568,
      "d": 154.10962499999732,
      "v": 107
    },
    {
      "midi": 50,
      "hit": false,
      "t": 60818.507341666584,
      "d": 1287.6715333332977,
      "v": 92
    },
    {
      "midi": 62,
      "hit": false,
      "t": 60818.507341666584,
      "d": 1287.6715333332977,
      "v": 127
    },
    {
      "midi": 50,
      "hit": false,
      "t": 60818.50734166686,
      "d": 102.73975000000064,
      "v": 58
    },
    {
      "midi": 57,
      "hit": false,
      "t": 60818.50734166686,
      "d": 102.73975000000064,
      "v": 53
    },
    {
      "midi": 70,
      "hit": false,
      "t": 60821.93199999841,
      "d": 51.36987499999668,
      "v": 60
    },
    {
      "midi": 69,
      "hit": false,
      "t": 60821.93199999841,
      "d": 51.36987499999668,
      "v": 50
    },
    {
      "midi": 38,
      "hit": false,
      "t": 60821.931999999346,
      "d": 51.36987499999668,
      "v": 64
    },
    {
      "midi": 40,
      "hit": false,
      "t": 60821.931999999346,
      "d": 51.36987499999668,
      "v": 64
    },
    {
      "midi": 36,
      "hit": false,
      "t": 60821.93199999961,
      "d": 51.36987499999668,
      "v": 107
    },
    {
      "midi": 13,
      "hit": false,
      "t": 60821.93199999961,
      "d": 51.36987499999668,
      "v": 127
    },
    {
      "midi": 50,
      "hit": false,
      "t": 60821.93199999992,
      "d": 1287.6715333332977,
      "v": 92
    },
    {
      "midi": 62,
      "hit": false,
      "t": 60821.93199999992,
      "d": 1287.6715333332977,
      "v": 127
    },
    {
      "midi": 50,
      "hit": false,
      "t": 60821.93199999992,
      "d": 1287.6715333332977,
      "v": 92
    },
    {
      "midi": 62,
      "hit": false,
      "t": 60821.93199999992,
      "d": 1287.6715333332977,
      "v": 127
    },
    {
      "midi": 69,
      "hit": false,
      "t": 60821.93199999994,
      "d": 102.73975000000064,
      "v": 34
    },
    {
      "midi": 60,
      "hit": false,
      "t": 60821.93199999994,
      "d": 102.73975000000064,
      "v": 65
    },
    {
      "midi": 64,
      "hit": false,
      "t": 60821.93199999994,
      "d": 102.73975000000064,
      "v": 85
    },
    {
      "midi": 91,
      "hit": false,
      "t": 60821.93199999998,
      "d": 102.73975000000064,
      "v": 106
    },
    {
      "midi": 79,
      "hit": false,
      "t": 60821.93199999998,
      "d": 102.73975000000064,
      "v": 106
    },
    {
      "midi": 57,
      "hit": false,
      "t": 60821.93200000006,
      "d": 2465.754000000001,
      "v": 80
    },
    {
      "midi": 62,
      "hit": false,
      "t": 60821.93200000006,
      "d": 2465.754000000001,
      "v": 80
    },
    {
      "midi": 66,
      "hit": false,
      "t": 60821.93200000006,
      "d": 2465.754000000001,
      "v": 80
    },
    {
      "midi": 42,
      "hit": false,
      "t": 60821.93200000014,
      "d": 102.73975000000064,
      "v": 107
    },
    {
      "midi": 70,
      "hit": false,
      "t": 60924.6717499984,
      "d": 51.36987499999668,
      "v": 49
    },
    {
      "midi": 69,
      "hit": false,
      "t": 60924.6717499984,
      "d": 51.36987499999668,
      "v": 39
    },
    {
      "midi": 93,
      "hit": false,
      "t": 60924.67174999998,
      "d": 102.73975000000064,
      "v": 120
    },
    {
      "midi": 81,
      "hit": false,
      "t": 60924.67174999998,
      "d": 102.73975000000064,
      "v": 120
    },
    {
      "midi": 38,
      "hit": false,
      "t": 61023.986841665675,
      "d": 51.36987499999668,
      "v": 107
    },
    {
      "midi": 50,
      "hit": false,
      "t": 61023.98684166686,
      "d": 102.73975000000064,
      "v": 52
    },
    {
      "midi": 57,
      "hit": false,
      "t": 61023.98684166686,
      "d": 102.73975000000064,
      "v": 63
    },
    {
      "midi": 70,
      "hit": false,
      "t": 61027.411499998394,
      "d": 51.36987499999668,
      "v": 109
    },
    {
      "midi": 69,
      "hit": false,
      "t": 61027.411499998394,
      "d": 51.36987499999668,
      "v": 99
    },
    {
      "midi": 69,
      "hit": false,
      "t": 61027.411499999944,
      "d": 102.73975000000064,
      "v": 16
    },
    {
      "midi": 60,
      "hit": false,
      "t": 61027.411499999944,
      "d": 102.73975000000064,
      "v": 31
    },
    {
      "midi": 64,
      "hit": false,
      "t": 61027.411499999944,
      "d": 102.73975000000064,
      "v": 41
    },
    {
      "midi": 91,
      "hit": false,
      "t": 61027.41149999998,
      "d": 102.73975000000064,
      "v": 90
    },
    {
      "midi": 79,
      "hit": false,
      "t": 61027.41149999998,
      "d": 102.73975000000064,
      "v": 90
    },
    {
      "midi": 46,
      "hit": false,
      "t": 61027.41150000017,
      "d": 102.73975000000064,
      "v": 107
    },
    {
      "midi": 72,
      "hit": false,
      "t": 61126.72659166559,
      "d": 311.64390833330253,
      "v": 125
    },
    {
      "midi": 38,
      "hit": false,
      "t": 61126.72659166567,
      "d": 51.36987499999668,
      "v": 107
    },
    {
      "midi": 70,
      "hit": false,
      "t": 61130.15124999839,
      "d": 51.36987499999668,
      "v": 53
    },
    {
      "midi": 69,
      "hit": false,
      "t": 61130.15124999839,
      "d": 51.36987499999668,
      "v": 43
    },
    {
      "midi": 69,
      "hit": false,
      "t": 61130.151249999944,
      "d": 102.73975000000064,
      "v": 38
    },
    {
      "midi": 60,
      "hit": false,
      "t": 61130.151249999944,
      "d": 102.73975000000064,
      "v": 72
    },
    {
      "midi": 64,
      "hit": false,
      "t": 61130.151249999944,
      "d": 102.73975000000064,
      "v": 91
    },
    {
      "midi": 90,
      "hit": false,
      "t": 61130.15124999998,
      "d": 102.73975000000064,
      "v": 70
    },
    {
      "midi": 78,
      "hit": false,
      "t": 61130.15124999998,
      "d": 102.73975000000064,
      "v": 70
    },
    {
      "midi": 26,
      "hit": false,
      "t": 61229.46634166566,
      "d": 154.10962499999732,
      "v": 107
    },
    {
      "midi": 109,
      "hit": false,
      "t": 61229.46634166661,
      "d": 51.36987499999668,
      "v": 127
    },
    {
      "midi": 50,
      "hit": false,
      "t": 61229.46634166686,
      "d": 102.73975000000064,
      "v": 101
    },
    {
      "midi": 57,
      "hit": false,
      "t": 61229.46634166686,
      "d": 205.47950000000128,
      "v": 85
    },
    {
      "midi": 70,
      "hit": false,
      "t": 61232.89099999838,
      "d": 51.36987499999668,
      "v": 60
    },
    {
      "midi": 69,
      "hit": false,
      "t": 61232.89099999838,
      "d": 51.36987499999668,
      "v": 50
    },
    {
      "midi": 38,
      "hit": false,
      "t": 61232.89099999934,
      "d": 51.36987499999668,
      "v": 88
    },
    {
      "midi": 40,
      "hit": false,
      "t": 61232.89099999934,
      "d": 51.36987499999668,
      "v": 88
    },
    {
      "midi": 36,
      "hit": false,
      "t": 61232.8909999996,
      "d": 51.36987499999668,
      "v": 107
    },
    {
      "midi": 13,
      "hit": false,
      "t": 61232.8909999996,
      "d": 51.36987499999668,
      "v": 127
    },
    {
      "midi": 91,
      "hit": false,
      "t": 61232.89099999998,
      "d": 102.73975000000064,
      "v": 106
    },
    {
      "midi": 79,
      "hit": false,
      "t": 61232.89099999998,
      "d": 102.73975000000064,
      "v": 106
    },
    {
      "midi": 42,
      "hit": false,
      "t": 61232.89100000014,
      "d": 102.73975000000064,
      "v": 107
    },
    {
      "midi": 70,
      "hit": false,
      "t": 61335.630749998374,
      "d": 51.36987499999668,
      "v": 49
    },
    {
      "midi": 69,
      "hit": false,
      "t": 61335.630749998374,
      "d": 51.36987499999668,
      "v": 39
    },
    {
      "midi": 69,
      "hit": false,
      "t": 61335.630749999946,
      "d": 102.73975000000064,
      "v": 18
    },
    {
      "midi": 60,
      "hit": false,
      "t": 61335.630749999946,
      "d": 102.73975000000064,
      "v": 34
    },
    {
      "midi": 64,
      "hit": false,
      "t": 61335.630749999946,
      "d": 102.73975000000064,
      "v": 44
    },
    {
      "midi": 93,
      "hit": false,
      "t": 61335.63074999998,
      "d": 102.73975000000064,
      "v": 120
    },
    {
      "midi": 81,
      "hit": false,
      "t": 61335.63074999998,
      "d": 102.73975000000064,
      "v": 120
    },
    {
      "midi": 71,
      "hit": false,
      "t": 61434.94584166556,
      "d": 250.00005833332398,
      "v": 115
    },
    {
      "midi": 38,
      "hit": false,
      "t": 61434.945841665656,
      "d": 51.36987499999668,
      "v": 107
    },
    {
      "midi": 57,
      "hit": false,
      "t": 61434.945841666864,
      "d": 102.73975000000064,
      "v": 53
    },
    {
      "midi": 50,
      "hit": false,
      "t": 61434.945841666864,
      "d": 102.73975000000064,
      "v": 65
    },
    {
      "midi": 70,
      "hit": false,
      "t": 61438.37049999837,
      "d": 51.36987499999668,
      "v": 109
    },
    {
      "midi": 69,
      "hit": false,
      "t": 61438.37049999837,
      "d": 51.36987499999668,
      "v": 99
    },
    {
      "midi": 69,
      "hit": false,
      "t": 61438.370499999946,
      "d": 102.73975000000064,
      "v": 42
    },
    {
      "midi": 60,
      "hit": false,
      "t": 61438.370499999946,
      "d": 102.73975000000064,
      "v": 70
    },
    {
      "midi": 64,
      "hit": false,
      "t": 61438.370499999946,
      "d": 102.73975000000064,
      "v": 91
    },
    {
      "midi": 91,
      "hit": false,
      "t": 61438.37049999998,
      "d": 102.73975000000064,
      "v": 90
    },
    {
      "midi": 79,
      "hit": false,
      "t": 61438.37049999998,
      "d": 102.73975000000064,
      "v": 90
    },
    {
      "midi": 46,
      "hit": false,
      "t": 61438.37050000017,
      "d": 205.47950000000128,
      "v": 107
    },
    {
      "midi": 38,
      "hit": false,
      "t": 61537.68559166565,
      "d": 51.36987499999668,
      "v": 107
    },
    {
      "midi": 70,
      "hit": false,
      "t": 61541.11024999836,
      "d": 51.36987499999668,
      "v": 53
    },
    {
      "midi": 69,
      "hit": false,
      "t": 61541.11024999836,
      "d": 51.36987499999668,
      "v": 43
    },
    {
      "midi": 38,
      "hit": false,
      "t": 61541.110249999336,
      "d": 51.36987499999668,
      "v": 88
    },
    {
      "midi": 40,
      "hit": false,
      "t": 61541.110249999336,
      "d": 51.36987499999668,
      "v": 88
    },
    {
      "midi": 90,
      "hit": false,
      "t": 61541.11024999998,
      "d": 102.73975000000064,
      "v": 70
    },
    {
      "midi": 78,
      "hit": false,
      "t": 61541.11024999998,
      "d": 102.73975000000064,
      "v": 70
    },
    {
      "midi": 67,
      "hit": false,
      "t": 61640.425341665556,
      "d": 390.4110499999879,
      "v": 105
    },
    {
      "midi": 26,
      "hit": false,
      "t": 61640.42534166564,
      "d": 154.10962499999732,
      "v": 107
    },
    {
      "midi": 57,
      "hit": false,
      "t": 61640.425341666865,
      "d": 102.73975000000064,
      "v": 63
    },
    {
      "midi": 50,
      "hit": false,
      "t": 61640.425341666865,
      "d": 102.73975000000064,
      "v": 55
    },
    {
      "midi": 70,
      "hit": false,
      "t": 61643.849999998354,
      "d": 51.36987499999668,
      "v": 60
    },
    {
      "midi": 69,
      "hit": false,
      "t": 61643.849999998354,
      "d": 51.36987499999668,
      "v": 50
    },
    {
      "midi": 36,
      "hit": false,
      "t": 61643.8499999996,
      "d": 51.36987499999668,
      "v": 107
    },
    {
      "midi": 13,
      "hit": false,
      "t": 61643.8499999996,
      "d": 51.36987499999668,
      "v": 127
    },
    {
      "midi": 69,
      "hit": false,
      "t": 61643.84999999995,
      "d": 102.73975000000064,
      "v": 19
    },
    {
      "midi": 60,
      "hit": false,
      "t": 61643.84999999995,
      "d": 102.73975000000064,
      "v": 33
    },
    {
      "midi": 64,
      "hit": false,
      "t": 61643.84999999995,
      "d": 102.73975000000064,
      "v": 44
    },
    {
      "midi": 91,
      "hit": false,
      "t": 61643.849999999984,
      "d": 102.73975000000064,
      "v": 106
    },
    {
      "midi": 79,
      "hit": false,
      "t": 61643.849999999984,
      "d": 102.73975000000064,
      "v": 106
    },
    {
      "midi": 42,
      "hit": false,
      "t": 61643.850000000144,
      "d": 102.73975000000064,
      "v": 102
    },
    {
      "midi": 70,
      "hit": false,
      "t": 61746.58974999835,
      "d": 51.36987499999668,
      "v": 49
    },
    {
      "midi": 69,
      "hit": false,
      "t": 61746.58974999835,
      "d": 51.36987499999668,
      "v": 39
    },
    {
      "midi": 38,
      "hit": false,
      "t": 61746.58974999933,
      "d": 51.36987499999668,
      "v": 69
    },
    {
      "midi": 40,
      "hit": false,
      "t": 61746.58974999933,
      "d": 51.36987499999668,
      "v": 69
    },
    {
      "midi": 69,
      "hit": false,
      "t": 61746.58974999995,
      "d": 102.73975000000064,
      "v": 41
    },
    {
      "midi": 60,
      "hit": false,
      "t": 61746.58974999995,
      "d": 102.73975000000064,
      "v": 79
    },
    {
      "midi": 64,
      "hit": false,
      "t": 61746.58974999995,
      "d": 102.73975000000064,
      "v": 102
    },
    {
      "midi": 93,
      "hit": false,
      "t": 61746.589749999985,
      "d": 102.73975000000064,
      "v": 120
    },
    {
      "midi": 81,
      "hit": false,
      "t": 61746.589749999985,
      "d": 102.73975000000064,
      "v": 120
    },
    {
      "midi": 38,
      "hit": false,
      "t": 61845.90484166564,
      "d": 51.36987499999668,
      "v": 107
    },
    {
      "midi": 57,
      "hit": false,
      "t": 61845.90484166687,
      "d": 205.47950000000128,
      "v": 85
    },
    {
      "midi": 50,
      "hit": false,
      "t": 61845.90484166687,
      "d": 205.47950000000128,
      "v": 101
    },
    {
      "midi": 70,
      "hit": false,
      "t": 61849.32949999834,
      "d": 51.36987499999668,
      "v": 109
    },
    {
      "midi": 69,
      "hit": false,
      "t": 61849.32949999834,
      "d": 51.36987499999668,
      "v": 99
    },
    {
      "midi": 91,
      "hit": false,
      "t": 61849.329499999985,
      "d": 102.73975000000064,
      "v": 90
    },
    {
      "midi": 79,
      "hit": false,
      "t": 61849.329499999985,
      "d": 102.73975000000064,
      "v": 90
    },
    {
      "midi": 46,
      "hit": false,
      "t": 61849.329500000174,
      "d": 102.73975000000064,
      "v": 107
    },
    {
      "midi": 38,
      "hit": false,
      "t": 61948.64459166563,
      "d": 51.36987499999668,
      "v": 107
    },
    {
      "midi": 70,
      "hit": false,
      "t": 61952.069249998334,
      "d": 51.36987499999668,
      "v": 53
    },
    {
      "midi": 69,
      "hit": false,
      "t": 61952.069249998334,
      "d": 51.36987499999668,
      "v": 43
    },
    {
      "midi": 69,
      "hit": false,
      "t": 61952.06924999995,
      "d": 102.73975000000064,
      "v": 19
    },
    {
      "midi": 60,
      "hit": false,
      "t": 61952.06924999995,
      "d": 102.73975000000064,
      "v": 37
    },
    {
      "midi": 64,
      "hit": false,
      "t": 61952.06924999995,
      "d": 102.73975000000064,
      "v": 49
    },
    {
      "midi": 90,
      "hit": false,
      "t": 61952.069249999986,
      "d": 102.73975000000064,
      "v": 70
    },
    {
      "midi": 78,
      "hit": false,
      "t": 61952.069249999986,
      "d": 102.73975000000064,
      "v": 70
    },
    {
      "midi": 69,
      "hit": false,
      "t": 62051.38434166554,
      "d": 1082.1920333332819,
      "v": 127
    },
    {
      "midi": 26,
      "hit": false,
      "t": 62051.384341665624,
      "d": 154.10962499999732,
      "v": 107
    },
    {
      "midi": 109,
      "hit": false,
      "t": 62051.384341666606,
      "d": 51.36987499999668,
      "v": 127
    },
    {
      "midi": 50,
      "hit": false,
      "t": 62051.38434166687,
      "d": 102.73975000000064,
      "v": 75
    },
    {
      "midi": 57,
      "hit": false,
      "t": 62051.38434166687,
      "d": 102.73975000000064,
      "v": 63
    },
    {
      "midi": 70,
      "hit": false,
      "t": 62054.80899999833,
      "d": 51.36987499999668,
      "v": 60
    },
    {
      "midi": 69,
      "hit": false,
      "t": 62054.80899999833,
      "d": 51.36987499999668,
      "v": 50
    },
    {
      "midi": 38,
      "hit": false,
      "t": 62054.808999999324,
      "d": 51.36987499999668,
      "v": 88
    },
    {
      "midi": 40,
      "hit": false,
      "t": 62054.808999999324,
      "d": 51.36987499999668,
      "v": 88
    },
    {
      "midi": 36,
      "hit": false,
      "t": 62054.808999999594,
      "d": 51.36987499999668,
      "v": 107
    },
    {
      "midi": 13,
      "hit": false,
      "t": 62054.808999999594,
      "d": 51.36987499999668,
      "v": 127
    },
    {
      "midi": 69,
      "hit": false,
      "t": 62054.80899999995,
      "d": 102.73975000000064,
      "v": 41
    },
    {
      "midi": 60,
      "hit": false,
      "t": 62054.80899999995,
      "d": 102.73975000000064,
      "v": 67
    },
    {
      "midi": 64,
      "hit": false,
      "t": 62054.80899999995,
      "d": 102.73975000000064,
      "v": 91
    },
    {
      "midi": 91,
      "hit": false,
      "t": 62054.80899999999,
      "d": 102.73975000000064,
      "v": 106
    },
    {
      "midi": 79,
      "hit": false,
      "t": 62054.80899999999,
      "d": 102.73975000000064,
      "v": 106
    },
    {
      "midi": 42,
      "hit": false,
      "t": 62054.80900000015,
      "d": 102.73975000000064,
      "v": 107
    },
    {
      "midi": 70,
      "hit": false,
      "t": 62157.54874999832,
      "d": 51.36987499999668,
      "v": 49
    },
    {
      "midi": 69,
      "hit": false,
      "t": 62157.54874999832,
      "d": 51.36987499999668,
      "v": 39
    },
    {
      "midi": 93,
      "hit": false,
      "t": 62157.54874999999,
      "d": 102.73975000000064,
      "v": 120
    },
    {
      "midi": 81,
      "hit": false,
      "t": 62157.54874999999,
      "d": 102.73975000000064,
      "v": 120
    },
    {
      "midi": 38,
      "hit": false,
      "t": 62256.86384166562,
      "d": 51.36987499999668,
      "v": 107
    },
    {
      "midi": 62,
      "hit": false,
      "t": 62256.86384166642,
      "d": 431.5069499999954,
      "v": 127
    },
    {
      "midi": 50,
      "hit": false,
      "t": 62256.86384166655,
      "d": 428.0822916666657,
      "v": 77
    },
    {
      "midi": 62,
      "hit": false,
      "t": 62256.86384166655,
      "d": 428.0822916666657,
      "v": 110
    },
    {
      "midi": 57,
      "hit": false,
      "t": 62256.86384166687,
      "d": 102.73975000000064,
      "v": 67
    },
    {
      "midi": 50,
      "hit": false,
      "t": 62256.86384166687,
      "d": 102.73975000000064,
      "v": 71
    },
    {
      "midi": 70,
      "hit": false,
      "t": 62260.288499998314,
      "d": 51.36987499999668,
      "v": 109
    },
    {
      "midi": 69,
      "hit": false,
      "t": 62260.288499998314,
      "d": 51.36987499999668,
      "v": 99
    },
    {
      "midi": 38,
      "hit": false,
      "t": 62260.28849999932,
      "d": 51.36987499999668,
      "v": 68
    },
    {
      "midi": 40,
      "hit": false,
      "t": 62260.28849999932,
      "d": 51.36987499999668,
      "v": 68
    },
    {
      "midi": 50,
      "hit": false,
      "t": 62260.288499999886,
      "d": 428.0822916666657,
      "v": 77
    },
    {
      "midi": 62,
      "hit": false,
      "t": 62260.288499999886,
      "d": 428.0822916666657,
      "v": 110
    },
    {
      "midi": 50,
      "hit": false,
      "t": 62260.288499999886,
      "d": 428.0822916666657,
      "v": 77
    },
    {
      "midi": 62,
      "hit": false,
      "t": 62260.288499999886,
      "d": 428.0822916666657,
      "v": 110
    },
    {
      "midi": 69,
      "hit": false,
      "t": 62260.28849999995,
      "d": 102.73975000000064,
      "v": 19
    },
    {
      "midi": 60,
      "hit": false,
      "t": 62260.28849999995,
      "d": 102.73975000000064,
      "v": 32
    },
    {
      "midi": 64,
      "hit": false,
      "t": 62260.28849999995,
      "d": 102.73975000000064,
      "v": 44
    },
    {
      "midi": 91,
      "hit": false,
      "t": 62260.28849999999,
      "d": 102.73975000000064,
      "v": 90
    },
    {
      "midi": 79,
      "hit": false,
      "t": 62260.28849999999,
      "d": 102.73975000000064,
      "v": 90
    },
    {
      "midi": 46,
      "hit": false,
      "t": 62260.28850000018,
      "d": 102.73975000000064,
      "v": 107
    },
    {
      "midi": 38,
      "hit": false,
      "t": 62359.60359166561,
      "d": 51.36987499999668,
      "v": 107
    },
    {
      "midi": 70,
      "hit": false,
      "t": 62363.02824999831,
      "d": 51.36987499999668,
      "v": 53
    },
    {
      "midi": 69,
      "hit": false,
      "t": 62363.02824999831,
      "d": 51.36987499999668,
      "v": 43
    },
    {
      "midi": 38,
      "hit": false,
      "t": 62363.02824999931,
      "d": 51.36987499999668,
      "v": 52
    },
    {
      "midi": 40,
      "hit": false,
      "t": 62363.02824999931,
      "d": 51.36987499999668,
      "v": 52
    },
    {
      "midi": 60,
      "hit": false,
      "t": 62363.02824999995,
      "d": 51.36987499999668,
      "v": 64
    },
    {
      "midi": 69,
      "hit": false,
      "t": 62363.02824999995,
      "d": 51.36987499999668,
      "v": 32
    },
    {
      "midi": 64,
      "hit": false,
      "t": 62363.02824999995,
      "d": 51.36987499999668,
      "v": 65
    },
    {
      "midi": 90,
      "hit": false,
      "t": 62363.02824999999,
      "d": 102.73975000000064,
      "v": 70
    },
    {
      "midi": 78,
      "hit": false,
      "t": 62363.02824999999,
      "d": 102.73975000000064,
      "v": 70
    },
    {
      "midi": 26,
      "hit": false,
      "t": 62462.343341665604,
      "d": 154.10962499999732,
      "v": 107
    },
    {
      "midi": 109,
      "hit": false,
      "t": 62462.3433416666,
      "d": 51.36987499999668,
      "v": 45
    },
    {
      "midi": 57,
      "hit": false,
      "t": 62462.34334166687,
      "d": 102.73975000000064,
      "v": 85
    },
    {
      "midi": 50,
      "hit": false,
      "t": 62462.34334166687,
      "d": 205.47950000000128,
      "v": 85
    },
    {
      "midi": 70,
      "hit": false,
      "t": 62465.7679999983,
      "d": 51.36987499999668,
      "v": 60
    },
    {
      "midi": 69,
      "hit": false,
      "t": 62465.7679999983,
      "d": 51.36987499999668,
      "v": 50
    },
    {
      "midi": 38,
      "hit": false,
      "t": 62465.767999999305,
      "d": 51.36987499999668,
      "v": 35
    },
    {
      "midi": 40,
      "hit": false,
      "t": 62465.767999999305,
      "d": 51.36987499999668,
      "v": 33
    },
    {
      "midi": 36,
      "hit": false,
      "t": 62465.76799999959,
      "d": 51.36987499999668,
      "v": 107
    },
    {
      "midi": 13,
      "hit": false,
      "t": 62465.76799999959,
      "d": 51.36987499999668,
      "v": 127
    },
    {
      "midi": 69,
      "hit": false,
      "t": 62465.767999999945,
      "d": 410.95900000000256,
      "v": 36
    },
    {
      "midi": 60,
      "hit": false,
      "t": 62465.767999999945,
      "d": 410.95900000000256,
      "v": 67
    },
    {
      "midi": 64,
      "hit": false,
      "t": 62465.767999999945,
      "d": 410.95900000000256,
      "v": 91
    },
    {
      "midi": 91,
      "hit": false,
      "t": 62465.76799999999,
      "d": 102.73975000000064,
      "v": 106
    },
    {
      "midi": 79,
      "hit": false,
      "t": 62465.76799999999,
      "d": 102.73975000000064,
      "v": 106
    },
    {
      "midi": 42,
      "hit": false,
      "t": 62465.76800000015,
      "d": 102.73975000000064,
      "v": 107
    },
    {
      "midi": 76,
      "hit": false,
      "t": 62469.192658333326,
      "d": 815.0686833332948,
      "v": 127
    },
    {
      "midi": 83,
      "hit": false,
      "t": 62469.192658333326,
      "d": 815.0686833332948,
      "v": 127
    },
    {
      "midi": 79,
      "hit": false,
      "t": 62469.192658333326,
      "d": 815.0686833332948,
      "v": 127
    },
    {
      "midi": 70,
      "hit": false,
      "t": 62568.507749998294,
      "d": 51.36987499999668,
      "v": 49
    },
    {
      "midi": 69,
      "hit": false,
      "t": 62568.507749998294,
      "d": 51.36987499999668,
      "v": 39
    },
    {
      "midi": 38,
      "hit": false,
      "t": 62568.5077499993,
      "d": 51.36987499999668,
      "v": 47
    },
    {
      "midi": 40,
      "hit": false,
      "t": 62568.5077499993,
      "d": 51.36987499999668,
      "v": 44
    },
    {
      "midi": 93,
      "hit": false,
      "t": 62568.50774999999,
      "d": 102.73975000000064,
      "v": 120
    },
    {
      "midi": 81,
      "hit": false,
      "t": 62568.50774999999,
      "d": 102.73975000000064,
      "v": 120
    },
    {
      "midi": 64,
      "hit": false,
      "t": 62657.54886666642,
      "d": 133.5616749999972,
      "v": 127
    },
    {
      "midi": 26,
      "hit": false,
      "t": 62667.8228416656,
      "d": 154.10962499999732,
      "v": 107
    },
    {
      "midi": 64,
      "hit": false,
      "t": 62667.82284166655,
      "d": 119.86304166666378,
      "v": 115
    },
    {
      "midi": 52,
      "hit": false,
      "t": 62667.82284166655,
      "d": 119.86304166666378,
      "v": 80
    },
    {
      "midi": 109,
      "hit": false,
      "t": 62667.822841666595,
      "d": 51.36987499999668,
      "v": 72
    },
    {
      "midi": 57,
      "hit": false,
      "t": 62667.82284166687,
      "d": 102.73975000000064,
      "v": 90
    },
    {
      "midi": 50,
      "hit": false,
      "t": 62667.82284166687,
      "d": 102.73975000000064,
      "v": 78
    },
    {
      "midi": 70,
      "hit": false,
      "t": 62671.24749999829,
      "d": 51.36987499999668,
      "v": 109
    },
    {
      "midi": 69,
      "hit": false,
      "t": 62671.24749999829,
      "d": 51.36987499999668,
      "v": 99
    },
    {
      "midi": 38,
      "hit": false,
      "t": 62671.24749999929,
      "d": 51.36987499999668,
      "v": 61
    },
    {
      "midi": 40,
      "hit": false,
      "t": 62671.24749999929,
      "d": 51.36987499999668,
      "v": 59
    },
    {
      "midi": 36,
      "hit": false,
      "t": 62671.24749999958,
      "d": 51.36987499999668,
      "v": 107
    },
    {
      "midi": 13,
      "hit": false,
      "t": 62671.24749999958,
      "d": 51.36987499999668,
      "v": 127
    },
    {
      "midi": 64,
      "hit": false,
      "t": 62671.24749999989,
      "d": 119.86304166666378,
      "v": 115
    },
    {
      "midi": 52,
      "hit": false,
      "t": 62671.24749999989,
      "d": 119.86304166666378,
      "v": 80
    },
    {
      "midi": 64,
      "hit": false,
      "t": 62671.24749999989,
      "d": 119.86304166666378,
      "v": 115
    },
    {
      "midi": 52,
      "hit": false,
      "t": 62671.24749999989,
      "d": 119.86304166666378,
      "v": 80
    },
    {
      "midi": 91,
      "hit": false,
      "t": 62671.24749999999,
      "d": 102.73975000000064,
      "v": 90
    },
    {
      "midi": 79,
      "hit": false,
      "t": 62671.24749999999,
      "d": 102.73975000000064,
      "v": 90
    },
    {
      "midi": 46,
      "hit": false,
      "t": 62671.24750000018,
      "d": 102.73975000000064,
      "v": 107
    },
    {
      "midi": 70,
      "hit": false,
      "t": 62773.98724999828,
      "d": 51.36987499999668,
      "v": 53
    },
    {
      "midi": 69,
      "hit": false,
      "t": 62773.98724999828,
      "d": 51.36987499999668,
      "v": 43
    },
    {
      "midi": 38,
      "hit": false,
      "t": 62773.987249999285,
      "d": 51.36987499999668,
      "v": 75
    },
    {
      "midi": 40,
      "hit": false,
      "t": 62773.987249999285,
      "d": 51.36987499999668,
      "v": 74
    },
    {
      "midi": 90,
      "hit": false,
      "t": 62773.98724999999,
      "d": 102.73975000000064,
      "v": 70
    },
    {
      "midi": 78,
      "hit": false,
      "t": 62773.98724999999,
      "d": 102.73975000000064,
      "v": 70
    },
    {
      "midi": 26,
      "hit": false,
      "t": 62873.30234166559,
      "d": 154.10962499999732,
      "v": 107
    },
    {
      "midi": 55,
      "hit": false,
      "t": 62873.302341666546,
      "d": 222.60279166666442,
      "v": 88
    },
    {
      "midi": 67,
      "hit": false,
      "t": 62873.302341666546,
      "d": 222.60279166666442,
      "v": 127
    },
    {
      "midi": 109,
      "hit": false,
      "t": 62873.30234166659,
      "d": 51.36987499999668,
      "v": 102
    },
    {
      "midi": 57,
      "hit": false,
      "t": 62873.30234166687,
      "d": 102.73975000000064,
      "v": 78
    },
    {
      "midi": 50,
      "hit": false,
      "t": 62873.30234166687,
      "d": 102.73975000000064,
      "v": 71
    },
    {
      "midi": 70,
      "hit": false,
      "t": 62876.726999998275,
      "d": 51.36987499999668,
      "v": 60
    },
    {
      "midi": 69,
      "hit": false,
      "t": 62876.726999998275,
      "d": 51.36987499999668,
      "v": 50
    },
    {
      "midi": 38,
      "hit": false,
      "t": 62876.72699999928,
      "d": 51.36987499999668,
      "v": 89
    },
    {
      "midi": 40,
      "hit": false,
      "t": 62876.72699999928,
      "d": 51.36987499999668,
      "v": 88
    },
    {
      "midi": 36,
      "hit": false,
      "t": 62876.72699999958,
      "d": 51.36987499999668,
      "v": 107
    },
    {
      "midi": 13,
      "hit": false,
      "t": 62876.72699999958,
      "d": 51.36987499999668,
      "v": 127
    },
    {
      "midi": 67,
      "hit": false,
      "t": 62876.726999999744,
      "d": 219.1781333333347,
      "v": 127
    },
    {
      "midi": 55,
      "hit": false,
      "t": 62876.72699999988,
      "d": 222.60279166666442,
      "v": 88
    },
    {
      "midi": 67,
      "hit": false,
      "t": 62876.72699999988,
      "d": 222.60279166666442,
      "v": 127
    },
    {
      "midi": 55,
      "hit": false,
      "t": 62876.72699999988,
      "d": 222.60279166666442,
      "v": 88
    },
    {
      "midi": 67,
      "hit": false,
      "t": 62876.72699999988,
      "d": 222.60279166666442,
      "v": 127
    },
    {
      "midi": 60,
      "hit": false,
      "t": 62876.72699999995,
      "d": 410.958999999988,
      "v": 67
    },
    {
      "midi": 69,
      "hit": false,
      "t": 62876.72699999995,
      "d": 410.958999999988,
      "v": 38
    },
    {
      "midi": 64,
      "hit": false,
      "t": 62876.72699999995,
      "d": 410.958999999988,
      "v": 98
    },
    {
      "midi": 91,
      "hit": false,
      "t": 62876.72699999999,
      "d": 102.73975000000064,
      "v": 106
    },
    {
      "midi": 79,
      "hit": false,
      "t": 62876.72699999999,
      "d": 102.73975000000064,
      "v": 106
    },
    {
      "midi": 42,
      "hit": false,
      "t": 62876.72700000015,
      "d": 102.73975000000064,
      "v": 107
    },
    {
      "midi": 70,
      "hit": false,
      "t": 62979.46674999827,
      "d": 51.36987499999668,
      "v": 49
    },
    {
      "midi": 69,
      "hit": false,
      "t": 62979.46674999827,
      "d": 51.36987499999668,
      "v": 39
    },
    {
      "midi": 38,
      "hit": false,
      "t": 62979.46674999927,
      "d": 51.36987499999668,
      "v": 101
    },
    {
      "midi": 40,
      "hit": false,
      "t": 62979.46674999927,
      "d": 51.36987499999668,
      "v": 100
    },
    {
      "midi": 93,
      "hit": false,
      "t": 62979.46674999999,
      "d": 102.73975000000064,
      "v": 120
    },
    {
      "midi": 81,
      "hit": false,
      "t": 62979.46674999999,
      "d": 102.73975000000064,
      "v": 120
    },
    {
      "midi": 69,
      "hit": false,
      "t": 63061.658549999745,
      "d": 143.8356500000009,
      "v": 127
    },
    {
      "midi": 26,
      "hit": false,
      "t": 63078.78184166559,
      "d": 154.10962499999732,
      "v": 107
    },
    {
      "midi": 69,
      "hit": false,
      "t": 63078.78184166655,
      "d": 85.61645833333023,
      "v": 100
    },
    {
      "midi": 57,
      "hit": false,
      "t": 63078.78184166655,
      "d": 85.61645833333023,
      "v": 70
    },
    {
      "midi": 109,
      "hit": false,
      "t": 63078.78184166658,
      "d": 51.36987499999668,
      "v": 127
    },
    {
      "midi": 57,
      "hit": false,
      "t": 63078.781841666874,
      "d": 102.73975000000064,
      "v": 101
    },
    {
      "midi": 50,
      "hit": false,
      "t": 63078.781841666874,
      "d": 102.73975000000064,
      "v": 90
    },
    {
      "midi": 70,
      "hit": false,
      "t": 63082.20649999826,
      "d": 51.36987499999668,
      "v": 109
    },
    {
      "midi": 69,
      "hit": false,
      "t": 63082.20649999826,
      "d": 51.36987499999668,
      "v": 99
    },
    {
      "midi": 38,
      "hit": false,
      "t": 63082.206499999265,
      "d": 51.36987499999668,
      "v": 115
    },
    {
      "midi": 40,
      "hit": false,
      "t": 63082.206499999265,
      "d": 51.36987499999668,
      "v": 115
    },
    {
      "midi": 36,
      "hit": false,
      "t": 63082.20649999957,
      "d": 51.36987499999668,
      "v": 107
    },
    {
      "midi": 13,
      "hit": false,
      "t": 63082.20649999957,
      "d": 51.36987499999668,
      "v": 127
    },
    {
      "midi": 69,
      "hit": false,
      "t": 63082.206499999884,
      "d": 85.61645833333023,
      "v": 100
    },
    {
      "midi": 57,
      "hit": false,
      "t": 63082.206499999884,
      "d": 85.61645833333023,
      "v": 70
    },
    {
      "midi": 69,
      "hit": false,
      "t": 63082.206499999884,
      "d": 85.61645833333023,
      "v": 100
    },
    {
      "midi": 57,
      "hit": false,
      "t": 63082.206499999884,
      "d": 85.61645833333023,
      "v": 70
    },
    {
      "midi": 91,
      "hit": false,
      "t": 63082.20649999999,
      "d": 102.73975000000064,
      "v": 90
    },
    {
      "midi": 79,
      "hit": false,
      "t": 63082.20649999999,
      "d": 102.73975000000064,
      "v": 90
    },
    {
      "midi": 46,
      "hit": false,
      "t": 63082.20650000018,
      "d": 205.47950000000128,
      "v": 107
    },
    {
      "midi": 70,
      "hit": false,
      "t": 63184.946249998255,
      "d": 51.36987499999668,
      "v": 53
    },
    {
      "midi": 69,
      "hit": false,
      "t": 63184.946249998255,
      "d": 51.36987499999668,
      "v": 43
    },
    {
      "midi": 38,
      "hit": false,
      "t": 63184.94624999926,
      "d": 51.36987499999668,
      "v": 127
    },
    {
      "midi": 40,
      "hit": false,
      "t": 63184.94624999926,
      "d": 51.36987499999668,
      "v": 127
    },
    {
      "midi": 90,
      "hit": false,
      "t": 63184.94624999999,
      "d": 102.73975000000064,
      "v": 70
    },
    {
      "midi": 78,
      "hit": false,
      "t": 63184.94624999999,
      "d": 102.73975000000064,
      "v": 70
    },
    {
      "midi": 62,
      "hit": false,
      "t": 63284.261341665486,
      "d": 315.0685666666541,
      "v": 108
    },
    {
      "midi": 31,
      "hit": false,
      "t": 63284.26134166558,
      "d": 154.10962499999732,
      "v": 107
    },
    {
      "midi": 62,
      "hit": false,
      "t": 63284.2613416664,
      "d": 205.47950000000128,
      "v": 127
    },
    {
      "midi": 71,
      "hit": false,
      "t": 63284.2613416664,
      "d": 226.0274500000014,
      "v": 119
    },
    {
      "midi": 67,
      "hit": false,
      "t": 63284.2613416664,
      "d": 226.0274500000014,
      "v": 114
    },
    {
      "midi": 50,
      "hit": false,
      "t": 63284.261341666876,
      "d": 102.73975000000064,
      "v": 71
    },
    {
      "midi": 55,
      "hit": false,
      "t": 63284.261341666876,
      "d": 102.73975000000064,
      "v": 90
    },
    {
      "midi": 70,
      "hit": false,
      "t": 63287.68599999825,
      "d": 51.36987499999668,
      "v": 60
    },
    {
      "midi": 69,
      "hit": false,
      "t": 63287.68599999825,
      "d": 51.36987499999668,
      "v": 50
    },
    {
      "midi": 38,
      "hit": false,
      "t": 63287.68599999925,
      "d": 51.36987499999668,
      "v": 88
    },
    {
      "midi": 40,
      "hit": false,
      "t": 63287.68599999925,
      "d": 51.36987499999668,
      "v": 88
    },
    {
      "midi": 36,
      "hit": false,
      "t": 63287.685999999565,
      "d": 51.36987499999668,
      "v": 107
    },
    {
      "midi": 13,
      "hit": false,
      "t": 63287.685999999565,
      "d": 51.36987499999668,
      "v": 127
    },
    {
      "midi": 71,
      "hit": false,
      "t": 63287.685999999936,
      "d": 205.47949999997945,
      "v": 88
    },
    {
      "midi": 67,
      "hit": false,
      "t": 63287.685999999936,
      "d": 205.47949999997945,
      "v": 107
    },
    {
      "midi": 62,
      "hit": false,
      "t": 63287.685999999936,
      "d": 205.47949999997945,
      "v": 79
    },
    {
      "midi": 53,
      "hit": false,
      "t": 63287.68599999998,
      "d": 51.36987499999668,
      "v": 127
    },
    {
      "midi": 91,
      "hit": false,
      "t": 63287.685999999994,
      "d": 1222.6030249999967,
      "v": 103
    },
    {
      "midi": 79,
      "hit": false,
      "t": 63287.685999999994,
      "d": 1222.6030249999967,
      "v": 90
    },
    {
      "midi": 59,
      "hit": false,
      "t": 63287.68600000006,
      "d": 1643.836000000003,
      "v": 80
    },
    {
      "midi": 62,
      "hit": false,
      "t": 63287.68600000006,
      "d": 1643.836000000003,
      "v": 80
    },
    {
      "midi": 67,
      "hit": false,
      "t": 63287.68600000006,
      "d": 1643.836000000003,
      "v": 80
    },
    {
      "midi": 42,
      "hit": false,
      "t": 63287.686000000154,
      "d": 102.73975000000064,
      "v": 107
    },
    {
      "midi": 70,
      "hit": false,
      "t": 63390.42574999824,
      "d": 51.36987499999668,
      "v": 49
    },
    {
      "midi": 69,
      "hit": false,
      "t": 63390.42574999824,
      "d": 51.36987499999668,
      "v": 39
    },
    {
      "midi": 43,
      "hit": false,
      "t": 63489.740841665574,
      "d": 51.36987499999668,
      "v": 107
    },
    {
      "midi": 50,
      "hit": false,
      "t": 63489.74084166688,
      "d": 102.73975000000064,
      "v": 52
    },
    {
      "midi": 55,
      "hit": false,
      "t": 63489.74084166688,
      "d": 102.73975000000064,
      "v": 71
    },
    {
      "midi": 70,
      "hit": false,
      "t": 63493.165499998235,
      "d": 51.36987499999668,
      "v": 109
    },
    {
      "midi": 69,
      "hit": false,
      "t": 63493.165499998235,
      "d": 51.36987499999668,
      "v": 99
    },
    {
      "midi": 46,
      "hit": false,
      "t": 63493.165500000185,
      "d": 102.73975000000064,
      "v": 107
    },
    {
      "midi": 67,
      "hit": false,
      "t": 63592.48059166547,
      "d": 311.64390833330253,
      "v": 122
    },
    {
      "midi": 43,
      "hit": false,
      "t": 63592.48059166557,
      "d": 51.36987499999668,
      "v": 107
    },
    {
      "midi": 62,
      "hit": false,
      "t": 63592.480591666405,
      "d": 178.08223333333444,
      "v": 121
    },
    {
      "midi": 67,
      "hit": false,
      "t": 63592.480591666405,
      "d": 181.50689166666416,
      "v": 110
    },
    {
      "midi": 71,
      "hit": false,
      "t": 63592.480591666405,
      "d": 184.93154999999388,
      "v": 108
    },
    {
      "midi": 70,
      "hit": false,
      "t": 63595.90524999823,
      "d": 51.36987499999668,
      "v": 53
    },
    {
      "midi": 69,
      "hit": false,
      "t": 63595.90524999823,
      "d": 51.36987499999668,
      "v": 43
    },
    {
      "midi": 62,
      "hit": false,
      "t": 63595.905249999916,
      "d": 102.73975000000064,
      "v": 67
    },
    {
      "midi": 71,
      "hit": false,
      "t": 63595.905249999916,
      "d": 102.73975000000064,
      "v": 70
    },
    {
      "midi": 67,
      "hit": false,
      "t": 63595.905249999916,
      "d": 102.73975000000064,
      "v": 85
    },
    {
      "midi": 31,
      "hit": false,
      "t": 63695.22034166556,
      "d": 154.10962499999732,
      "v": 107
    },
    {
      "midi": 74,
      "hit": false,
      "t": 63695.22034166654,
      "d": 308.2192500000019,
      "v": 115
    },
    {
      "midi": 62,
      "hit": false,
      "t": 63695.22034166654,
      "d": 308.2192500000019,
      "v": 115
    },
    {
      "midi": 69,
      "hit": false,
      "t": 63695.22034166654,
      "d": 308.2192500000019,
      "v": 115
    },
    {
      "midi": 67,
      "hit": false,
      "t": 63695.22034166654,
      "d": 308.2192500000019,
      "v": 122
    },
    {
      "midi": 109,
      "hit": false,
      "t": 63695.22034166658,
      "d": 51.36987499999668,
      "v": 127
    },
    {
      "midi": 50,
      "hit": false,
      "t": 63695.22034166688,
      "d": 102.73975000000064,
      "v": 45
    },
    {
      "midi": 55,
      "hit": false,
      "t": 63695.22034166688,
      "d": 102.73975000000064,
      "v": 65
    },
    {
      "midi": 70,
      "hit": false,
      "t": 63698.64499999822,
      "d": 51.36987499999668,
      "v": 60
    },
    {
      "midi": 69,
      "hit": false,
      "t": 63698.64499999822,
      "d": 51.36987499999668,
      "v": 50
    },
    {
      "midi": 38,
      "hit": false,
      "t": 63698.64499999925,
      "d": 51.36987499999668,
      "v": 63
    },
    {
      "midi": 40,
      "hit": false,
      "t": 63698.64499999925,
      "d": 51.36987499999668,
      "v": 64
    },
    {
      "midi": 36,
      "hit": false,
      "t": 63698.64499999956,
      "d": 51.36987499999668,
      "v": 107
    },
    {
      "midi": 13,
      "hit": false,
      "t": 63698.64499999956,
      "d": 51.36987499999668,
      "v": 127
    },
    {
      "midi": 74,
      "hit": false,
      "t": 63698.64499999988,
      "d": 308.2192500000019,
      "v": 115
    },
    {
      "midi": 62,
      "hit": false,
      "t": 63698.64499999988,
      "d": 308.2192500000019,
      "v": 115
    },
    {
      "midi": 69,
      "hit": false,
      "t": 63698.64499999988,
      "d": 308.2192500000019,
      "v": 115
    },
    {
      "midi": 67,
      "hit": false,
      "t": 63698.64499999988,
      "d": 308.2192500000019,
      "v": 122
    },
    {
      "midi": 74,
      "hit": false,
      "t": 63698.64499999988,
      "d": 308.2192500000019,
      "v": 115
    },
    {
      "midi": 62,
      "hit": false,
      "t": 63698.64499999988,
      "d": 308.2192500000019,
      "v": 115
    },
    {
      "midi": 69,
      "hit": false,
      "t": 63698.64499999988,
      "d": 308.2192500000019,
      "v": 115
    },
    {
      "midi": 67,
      "hit": false,
      "t": 63698.64499999988,
      "d": 308.2192500000019,
      "v": 122
    },
    {
      "midi": 42,
      "hit": false,
      "t": 63698.64500000016,
      "d": 102.73975000000064,
      "v": 107
    },
    {
      "midi": 70,
      "hit": false,
      "t": 63801.384749998215,
      "d": 51.36987499999668,
      "v": 49
    },
    {
      "midi": 69,
      "hit": false,
      "t": 63801.384749998215,
      "d": 51.36987499999668,
      "v": 39
    },
    {
      "midi": 62,
      "hit": false,
      "t": 63801.38474999992,
      "d": 102.73975000000064,
      "v": 32
    },
    {
      "midi": 71,
      "hit": false,
      "t": 63801.38474999992,
      "d": 102.73975000000064,
      "v": 33
    },
    {
      "midi": 67,
      "hit": false,
      "t": 63801.38474999992,
      "d": 102.73975000000064,
      "v": 41
    },
    {
      "midi": 66,
      "hit": false,
      "t": 63900.699841665446,
      "d": 184.93154999999388,
      "v": 110
    },
    {
      "midi": 43,
      "hit": false,
      "t": 63900.699841665555,
      "d": 51.36987499999668,
      "v": 107
    },
    {
      "midi": 62,
      "hit": false,
      "t": 63900.6998416664,
      "d": 85.61645833333023,
      "v": 125
    },
    {
      "midi": 67,
      "hit": false,
      "t": 63900.6998416664,
      "d": 89.04111666665995,
      "v": 112
    },
    {
      "midi": 71,
      "hit": false,
      "t": 63900.6998416664,
      "d": 95.89043333332665,
      "v": 114
    },
    {
      "midi": 50,
      "hit": false,
      "t": 63900.69984166688,
      "d": 102.73975000000064,
      "v": 47
    },
    {
      "midi": 55,
      "hit": false,
      "t": 63900.69984166688,
      "d": 102.73975000000064,
      "v": 63
    },
    {
      "midi": 70,
      "hit": false,
      "t": 63904.12449999821,
      "d": 51.36987499999668,
      "v": 109
    },
    {
      "midi": 69,
      "hit": false,
      "t": 63904.12449999821,
      "d": 51.36987499999668,
      "v": 99
    },
    {
      "midi": 62,
      "hit": false,
      "t": 63904.12449999992,
      "d": 102.73975000000064,
      "v": 79
    },
    {
      "midi": 71,
      "hit": false,
      "t": 63904.12449999992,
      "d": 102.73975000000064,
      "v": 79
    },
    {
      "midi": 67,
      "hit": false,
      "t": 63904.12449999992,
      "d": 102.73975000000064,
      "v": 98
    },
    {
      "midi": 46,
      "hit": false,
      "t": 63904.12450000019,
      "d": 205.47950000000128,
      "v": 107
    },
    {
      "midi": 43,
      "hit": false,
      "t": 64003.43959166555,
      "d": 51.36987499999668,
      "v": 107
    },
    {
      "midi": 70,
      "hit": false,
      "t": 64006.8642499982,
      "d": 51.36987499999668,
      "v": 53
    },
    {
      "midi": 69,
      "hit": false,
      "t": 64006.8642499982,
      "d": 51.36987499999668,
      "v": 43
    },
    {
      "midi": 38,
      "hit": false,
      "t": 64006.86424999924,
      "d": 51.36987499999668,
      "v": 88
    },
    {
      "midi": 40,
      "hit": false,
      "t": 64006.86424999924,
      "d": 51.36987499999668,
      "v": 88
    },
    {
      "midi": 67,
      "hit": false,
      "t": 64106.17934166544,
      "d": 376.7124166666399,
      "v": 122
    },
    {
      "midi": 31,
      "hit": false,
      "t": 64106.17934166554,
      "d": 154.10962499999732,
      "v": 107
    },
    {
      "midi": 67,
      "hit": false,
      "t": 64106.17934166639,
      "d": 280.8219833332987,
      "v": 110
    },
    {
      "midi": 62,
      "hit": false,
      "t": 64106.17934166639,
      "d": 280.8219833332987,
      "v": 125
    },
    {
      "midi": 71,
      "hit": false,
      "t": 64106.17934166639,
      "d": 294.5206166666321,
      "v": 108
    },
    {
      "midi": 50,
      "hit": false,
      "t": 64106.17934166688,
      "d": 102.73975000000064,
      "v": 42
    },
    {
      "midi": 55,
      "hit": false,
      "t": 64106.17934166688,
      "d": 102.73975000000064,
      "v": 49
    },
    {
      "midi": 70,
      "hit": false,
      "t": 64109.603999998195,
      "d": 51.36987499999668,
      "v": 60
    },
    {
      "midi": 69,
      "hit": false,
      "t": 64109.603999998195,
      "d": 51.36987499999668,
      "v": 50
    },
    {
      "midi": 36,
      "hit": false,
      "t": 64109.603999999556,
      "d": 51.36987499999668,
      "v": 107
    },
    {
      "midi": 13,
      "hit": false,
      "t": 64109.603999999556,
      "d": 51.36987499999668,
      "v": 127
    },
    {
      "midi": 62,
      "hit": false,
      "t": 64109.60399999992,
      "d": 102.73975000000064,
      "v": 37
    },
    {
      "midi": 71,
      "hit": false,
      "t": 64109.60399999992,
      "d": 102.73975000000064,
      "v": 37
    },
    {
      "midi": 67,
      "hit": false,
      "t": 64109.60399999992,
      "d": 102.73975000000064,
      "v": 47
    },
    {
      "midi": 42,
      "hit": false,
      "t": 64109.60400000016,
      "d": 102.73975000000064,
      "v": 102
    },
    {
      "midi": 70,
      "hit": false,
      "t": 64212.34374999819,
      "d": 51.36987499999668,
      "v": 49
    },
    {
      "midi": 69,
      "hit": false,
      "t": 64212.34374999819,
      "d": 51.36987499999668,
      "v": 39
    },
    {
      "midi": 38,
      "hit": false,
      "t": 64212.343749999236,
      "d": 51.36987499999668,
      "v": 69
    },
    {
      "midi": 40,
      "hit": false,
      "t": 64212.343749999236,
      "d": 51.36987499999668,
      "v": 69
    },
    {
      "midi": 62,
      "hit": false,
      "t": 64212.34374999992,
      "d": 102.73975000000064,
      "v": 81
    },
    {
      "midi": 71,
      "hit": false,
      "t": 64212.34374999992,
      "d": 102.73975000000064,
      "v": 85
    },
    {
      "midi": 67,
      "hit": false,
      "t": 64212.34374999992,
      "d": 102.73975000000064,
      "v": 98
    },
    {
      "midi": 43,
      "hit": false,
      "t": 64311.658841665536,
      "d": 51.36987499999668,
      "v": 107
    },
    {
      "midi": 50,
      "hit": false,
      "t": 64311.65884166688,
      "d": 102.73975000000064,
      "v": 40
    },
    {
      "midi": 55,
      "hit": false,
      "t": 64311.65884166688,
      "d": 102.73975000000064,
      "v": 53
    },
    {
      "midi": 70,
      "hit": false,
      "t": 64315.08349999818,
      "d": 51.36987499999668,
      "v": 109
    },
    {
      "midi": 69,
      "hit": false,
      "t": 64315.08349999818,
      "d": 51.36987499999668,
      "v": 99
    },
    {
      "midi": 46,
      "hit": false,
      "t": 64315.08350000019,
      "d": 102.73975000000064,
      "v": 107
    },
    {
      "midi": 43,
      "hit": false,
      "t": 64414.39859166553,
      "d": 51.36987499999668,
      "v": 107
    },
    {
      "midi": 70,
      "hit": false,
      "t": 64417.823249998175,
      "d": 51.36987499999668,
      "v": 53
    },
    {
      "midi": 69,
      "hit": false,
      "t": 64417.823249998175,
      "d": 51.36987499999668,
      "v": 43
    },
    {
      "midi": 62,
      "hit": false,
      "t": 64417.82324999992,
      "d": 102.73975000000064,
      "v": 38
    },
    {
      "midi": 71,
      "hit": false,
      "t": 64417.82324999992,
      "d": 102.73975000000064,
      "v": 41
    },
    {
      "midi": 67,
      "hit": false,
      "t": 64417.82324999992,
      "d": 102.73975000000064,
      "v": 47
    },
    {
      "midi": 62,
      "hit": false,
      "t": 64517.138341665406,
      "d": 294.5206166666394,
      "v": 109
    },
    {
      "midi": 31,
      "hit": false,
      "t": 64517.13834166552,
      "d": 154.10962499999732,
      "v": 107
    },
    {
      "midi": 67,
      "hit": false,
      "t": 64517.13834166636,
      "d": 280.8219833332914,
      "v": 116
    },
    {
      "midi": 62,
      "hit": false,
      "t": 64517.13834166636,
      "d": 280.8219833332914,
      "v": 125
    },
    {
      "midi": 71,
      "hit": false,
      "t": 64517.13834166636,
      "d": 284.24664166662114,
      "v": 119
    },
    {
      "midi": 109,
      "hit": false,
      "t": 64517.13834166658,
      "d": 51.36987499999668,
      "v": 127
    },
    {
      "midi": 50,
      "hit": false,
      "t": 64517.13834166688,
      "d": 102.73975000000064,
      "v": 52
    },
    {
      "midi": 55,
      "hit": false,
      "t": 64517.13834166688,
      "d": 102.73975000000064,
      "v": 63
    },
    {
      "midi": 70,
      "hit": false,
      "t": 64520.56299999817,
      "d": 51.36987499999668,
      "v": 60
    },
    {
      "midi": 69,
      "hit": false,
      "t": 64520.56299999817,
      "d": 51.36987499999668,
      "v": 50
    },
    {
      "midi": 38,
      "hit": false,
      "t": 64520.56299999923,
      "d": 51.36987499999668,
      "v": 88
    },
    {
      "midi": 40,
      "hit": false,
      "t": 64520.56299999923,
      "d": 51.36987499999668,
      "v": 88
    },
    {
      "midi": 36,
      "hit": false,
      "t": 64520.56299999955,
      "d": 51.36987499999668,
      "v": 107
    },
    {
      "midi": 13,
      "hit": false,
      "t": 64520.56299999955,
      "d": 51.36987499999668,
      "v": 127
    },
    {
      "midi": 62,
      "hit": false,
      "t": 64520.56299999992,
      "d": 102.73975000000064,
      "v": 72
    },
    {
      "midi": 71,
      "hit": false,
      "t": 64520.56299999992,
      "d": 102.73975000000064,
      "v": 77
    },
    {
      "midi": 67,
      "hit": false,
      "t": 64520.56299999992,
      "d": 102.73975000000064,
      "v": 94
    },
    {
      "midi": 93,
      "hit": false,
      "t": 64520.56299999999,
      "d": 205.47950000000128,
      "v": 107
    },
    {
      "midi": 81,
      "hit": false,
      "t": 64520.56299999999,
      "d": 205.47950000000128,
      "v": 92
    },
    {
      "midi": 42,
      "hit": false,
      "t": 64520.56300000016,
      "d": 102.73975000000064,
      "v": 107
    },
    {
      "midi": 70,
      "hit": false,
      "t": 64623.30274999816,
      "d": 51.36987499999668,
      "v": 49
    },
    {
      "midi": 69,
      "hit": false,
      "t": 64623.30274999816,
      "d": 51.36987499999668,
      "v": 39
    },
    {
      "midi": 43,
      "hit": false,
      "t": 64722.61784166552,
      "d": 51.36987499999668,
      "v": 107
    },
    {
      "midi": 50,
      "hit": false,
      "t": 64722.617841666884,
      "d": 102.73975000000064,
      "v": 85
    },
    {
      "midi": 55,
      "hit": false,
      "t": 64722.617841666884,
      "d": 102.73975000000064,
      "v": 95
    },
    {
      "midi": 70,
      "hit": false,
      "t": 64726.042499998155,
      "d": 51.36987499999668,
      "v": 109
    },
    {
      "midi": 69,
      "hit": false,
      "t": 64726.042499998155,
      "d": 51.36987499999668,
      "v": 99
    },
    {
      "midi": 38,
      "hit": false,
      "t": 64726.042499999225,
      "d": 51.36987499999668,
      "v": 68
    },
    {
      "midi": 40,
      "hit": false,
      "t": 64726.042499999225,
      "d": 51.36987499999668,
      "v": 68
    },
    {
      "midi": 62,
      "hit": false,
      "t": 64726.04249999992,
      "d": 102.73975000000064,
      "v": 34
    },
    {
      "midi": 71,
      "hit": false,
      "t": 64726.04249999992,
      "d": 102.73975000000064,
      "v": 36
    },
    {
      "midi": 67,
      "hit": false,
      "t": 64726.04249999992,
      "d": 102.73975000000064,
      "v": 45
    },
    {
      "midi": 91,
      "hit": false,
      "t": 64726.04249999999,
      "d": 205.47950000000128,
      "v": 104
    },
    {
      "midi": 79,
      "hit": false,
      "t": 64726.04249999999,
      "d": 205.47950000000128,
      "v": 90
    },
    {
      "midi": 46,
      "hit": false,
      "t": 64726.04250000019,
      "d": 102.73975000000064,
      "v": 107
    },
    {
      "midi": 43,
      "hit": false,
      "t": 64825.35759166551,
      "d": 51.36987499999668,
      "v": 107
    },
    {
      "midi": 55,
      "hit": false,
      "t": 64825.357591666885,
      "d": 102.73975000000064,
      "v": 55
    },
    {
      "midi": 50,
      "hit": false,
      "t": 64825.357591666885,
      "d": 102.73975000000064,
      "v": 75
    },
    {
      "midi": 70,
      "hit": false,
      "t": 64828.78224999815,
      "d": 51.36987499999668,
      "v": 53
    },
    {
      "midi": 69,
      "hit": false,
      "t": 64828.78224999815,
      "d": 51.36987499999668,
      "v": 43
    },
    {
      "midi": 38,
      "hit": false,
      "t": 64828.78224999922,
      "d": 51.36987499999668,
      "v": 52
    },
    {
      "midi": 40,
      "hit": false,
      "t": 64828.78224999922,
      "d": 51.36987499999668,
      "v": 52
    },
    {
      "midi": 71,
      "hit": false,
      "t": 64828.782249999924,
      "d": 102.73975000000064,
      "v": 65
    },
    {
      "midi": 62,
      "hit": false,
      "t": 64828.782249999924,
      "d": 102.73975000000064,
      "v": 60
    },
    {
      "midi": 67,
      "hit": false,
      "t": 64828.782249999924,
      "d": 102.73975000000064,
      "v": 77
    },
    {
      "midi": 62,
      "hit": false,
      "t": 64928.097341665365,
      "d": 417.80831666664744,
      "v": 110
    },
    {
      "midi": 30,
      "hit": false,
      "t": 64928.0973416655,
      "d": 154.10962499999732,
      "v": 107
    },
    {
      "midi": 66,
      "hit": false,
      "t": 64928.09734166631,
      "d": 273.9726666666684,
      "v": 121
    },
    {
      "midi": 69,
      "hit": false,
      "t": 64928.09734166631,
      "d": 294.5206166666685,
      "v": 119
    },
    {
      "midi": 62,
      "hit": false,
      "t": 64928.09734166631,
      "d": 297.9452749999982,
      "v": 125
    },
    {
      "midi": 54,
      "hit": false,
      "t": 64928.097341666886,
      "d": 102.73975000000064,
      "v": 16
    },
    {
      "midi": 50,
      "hit": false,
      "t": 64928.097341666886,
      "d": 102.73975000000064,
      "v": 16
    },
    {
      "midi": 70,
      "hit": false,
      "t": 64931.52199999814,
      "d": 51.36987499999668,
      "v": 60
    },
    {
      "midi": 69,
      "hit": false,
      "t": 64931.52199999814,
      "d": 51.36987499999668,
      "v": 50
    },
    {
      "midi": 38,
      "hit": false,
      "t": 64931.52199999921,
      "d": 51.36987499999668,
      "v": 63
    },
    {
      "midi": 40,
      "hit": false,
      "t": 64931.52199999921,
      "d": 51.36987499999668,
      "v": 63
    },
    {
      "midi": 36,
      "hit": false,
      "t": 64931.521999999546,
      "d": 51.36987499999668,
      "v": 107
    },
    {
      "midi": 13,
      "hit": false,
      "t": 64931.521999999546,
      "d": 51.36987499999668,
      "v": 127
    },
    {
      "midi": 66,
      "hit": false,
      "t": 64931.521999999924,
      "d": 205.47949999998673,
      "v": 118
    },
    {
      "midi": 69,
      "hit": false,
      "t": 64931.521999999924,
      "d": 205.47949999998673,
      "v": 94
    },
    {
      "midi": 62,
      "hit": false,
      "t": 64931.521999999924,
      "d": 205.47949999998673,
      "v": 88
    },
    {
      "midi": 90,
      "hit": false,
      "t": 64931.52199999999,
      "d": 1626.7127083333398,
      "v": 101
    },
    {
      "midi": 78,
      "hit": false,
      "t": 64931.52199999999,
      "d": 1626.7127083333398,
      "v": 89
    },
    {
      "midi": 57,
      "hit": false,
      "t": 64931.52200000006,
      "d": 1643.836000000003,
      "v": 80
    },
    {
      "midi": 62,
      "hit": false,
      "t": 64931.52200000006,
      "d": 1643.836000000003,
      "v": 80
    },
    {
      "midi": 66,
      "hit": false,
      "t": 64931.52200000006,
      "d": 1643.836000000003,
      "v": 80
    },
    {
      "midi": 42,
      "hit": false,
      "t": 64931.522000000165,
      "d": 102.73975000000064,
      "v": 107
    },
    {
      "midi": 70,
      "hit": false,
      "t": 65034.261749998135,
      "d": 51.36987499999668,
      "v": 49
    },
    {
      "midi": 69,
      "hit": false,
      "t": 65034.261749998135,
      "d": 51.36987499999668,
      "v": 39
    },
    {
      "midi": 42,
      "hit": false,
      "t": 65133.5768416655,
      "d": 51.36987499999668,
      "v": 107
    },
    {
      "midi": 50,
      "hit": false,
      "t": 65133.57684166689,
      "d": 102.73975000000064,
      "v": 53
    },
    {
      "midi": 54,
      "hit": false,
      "t": 65133.57684166689,
      "d": 102.73975000000064,
      "v": 75
    },
    {
      "midi": 70,
      "hit": false,
      "t": 65137.00149999813,
      "d": 51.36987499999668,
      "v": 109
    },
    {
      "midi": 69,
      "hit": false,
      "t": 65137.00149999813,
      "d": 51.36987499999668,
      "v": 99
    },
    {
      "midi": 46,
      "hit": false,
      "t": 65137.001500000195,
      "d": 102.73975000000064,
      "v": 107
    },
    {
      "midi": 42,
      "hit": false,
      "t": 65236.31659166549,
      "d": 51.36987499999668,
      "v": 107
    },
    {
      "midi": 70,
      "hit": false,
      "t": 65239.74124999812,
      "d": 51.36987499999668,
      "v": 53
    },
    {
      "midi": 69,
      "hit": false,
      "t": 65239.74124999812,
      "d": 51.36987499999668,
      "v": 43
    },
    {
      "midi": 62,
      "hit": false,
      "t": 65239.74124999991,
      "d": 102.73975000000064,
      "v": 70
    },
    {
      "midi": 66,
      "hit": false,
      "t": 65239.74124999991,
      "d": 102.73975000000064,
      "v": 107
    },
    {
      "midi": 69,
      "hit": false,
      "t": 65239.74124999991,
      "d": 102.73975000000064,
      "v": 79
    },
    {
      "midi": 69,
      "hit": false,
      "t": 65339.056341665346,
      "d": 109.58906666666735,
      "v": 122
    },
    {
      "midi": 30,
      "hit": false,
      "t": 65339.056341665484,
      "d": 154.10962499999732,
      "v": 107
    },
    {
      "midi": 69,
      "hit": false,
      "t": 65339.056341666306,
      "d": 92.46577499999694,
      "v": 108
    },
    {
      "midi": 66,
      "hit": false,
      "t": 65339.056341666306,
      "d": 92.46577499999694,
      "v": 112
    },
    {
      "midi": 62,
      "hit": false,
      "t": 65339.056341666306,
      "d": 95.89043333332665,
      "v": 121
    },
    {
      "midi": 109,
      "hit": false,
      "t": 65339.056341666575,
      "d": 51.36987499999668,
      "v": 127
    },
    {
      "midi": 50,
      "hit": false,
      "t": 65339.05634166689,
      "d": 102.73975000000064,
      "v": 52
    },
    {
      "midi": 54,
      "hit": false,
      "t": 65339.05634166689,
      "d": 102.73975000000064,
      "v": 101
    },
    {
      "midi": 70,
      "hit": false,
      "t": 65342.480999998115,
      "d": 51.36987499999668,
      "v": 60
    },
    {
      "midi": 69,
      "hit": false,
      "t": 65342.480999998115,
      "d": 51.36987499999668,
      "v": 50
    },
    {
      "midi": 38,
      "hit": false,
      "t": 65342.48099999921,
      "d": 51.36987499999668,
      "v": 88
    },
    {
      "midi": 40,
      "hit": false,
      "t": 65342.48099999921,
      "d": 51.36987499999668,
      "v": 88
    },
    {
      "midi": 36,
      "hit": false,
      "t": 65342.48099999954,
      "d": 51.36987499999668,
      "v": 107
    },
    {
      "midi": 13,
      "hit": false,
      "t": 65342.48099999954,
      "d": 51.36987499999668,
      "v": 127
    },
    {
      "midi": 42,
      "hit": false,
      "t": 65342.48100000017,
      "d": 102.73975000000064,
      "v": 107
    },
    {
      "midi": 70,
      "hit": false,
      "t": 65445.22074999811,
      "d": 51.36987499999668,
      "v": 49
    },
    {
      "midi": 69,
      "hit": false,
      "t": 65445.22074999811,
      "d": 51.36987499999668,
      "v": 39
    },
    {
      "midi": 62,
      "hit": false,
      "t": 65445.22074999991,
      "d": 102.73975000000064,
      "v": 33
    },
    {
      "midi": 66,
      "hit": false,
      "t": 65445.22074999991,
      "d": 102.73975000000064,
      "v": 52
    },
    {
      "midi": 69,
      "hit": false,
      "t": 65445.22074999991,
      "d": 102.73975000000064,
      "v": 37
    },
    {
      "midi": 69,
      "hit": false,
      "t": 65544.53584166535,
      "d": 352.73980833331007,
      "v": 119
    },
    {
      "midi": 42,
      "hit": false,
      "t": 65544.53584166548,
      "d": 51.36987500000396,
      "v": 107
    },
    {
      "midi": 62,
      "hit": false,
      "t": 65544.5358416663,
      "d": 568.4932833332714,
      "v": 125
    },
    {
      "midi": 69,
      "hit": false,
      "t": 65544.5358416663,
      "d": 589.0412333332642,
      "v": 119
    },
    {
      "midi": 66,
      "hit": false,
      "t": 65544.5358416663,
      "d": 589.0412333332642,
      "v": 119
    },
    {
      "midi": 62,
      "hit": false,
      "t": 65544.53584166654,
      "d": 92.46577500000421,
      "v": 88
    },
    {
      "midi": 74,
      "hit": false,
      "t": 65544.53584166654,
      "d": 92.46577500000421,
      "v": 127
    },
    {
      "midi": 50,
      "hit": false,
      "t": 65544.53584166689,
      "d": 102.73974999999336,
      "v": 43
    },
    {
      "midi": 54,
      "hit": false,
      "t": 65544.53584166689,
      "d": 102.73974999999336,
      "v": 95
    },
    {
      "midi": 70,
      "hit": false,
      "t": 65547.96049999811,
      "d": 51.36987500000396,
      "v": 109
    },
    {
      "midi": 69,
      "hit": false,
      "t": 65547.96049999811,
      "d": 51.36987500000396,
      "v": 99
    },
    {
      "midi": 62,
      "hit": false,
      "t": 65547.96049999988,
      "d": 92.46577500000421,
      "v": 88
    },
    {
      "midi": 74,
      "hit": false,
      "t": 65547.96049999988,
      "d": 92.46577500000421,
      "v": 127
    },
    {
      "midi": 62,
      "hit": false,
      "t": 65547.96049999988,
      "d": 92.46577500000421,
      "v": 88
    },
    {
      "midi": 74,
      "hit": false,
      "t": 65547.96049999988,
      "d": 92.46577500000421,
      "v": 127
    },
    {
      "midi": 66,
      "hit": false,
      "t": 65547.96049999991,
      "d": 102.73974999999336,
      "v": 107
    },
    {
      "midi": 69,
      "hit": false,
      "t": 65547.96049999991,
      "d": 102.73974999999336,
      "v": 79
    },
    {
      "midi": 62,
      "hit": false,
      "t": 65547.96049999991,
      "d": 102.73974999999336,
      "v": 68
    },
    {
      "midi": 46,
      "hit": false,
      "t": 65547.96050000019,
      "d": 205.47950000000128,
      "v": 107
    },
    {
      "midi": 42,
      "hit": false,
      "t": 65647.27559166549,
      "d": 51.36987500000396,
      "v": 107
    },
    {
      "midi": 70,
      "hit": false,
      "t": 65650.70024999812,
      "d": 51.36987500000396,
      "v": 53
    },
    {
      "midi": 69,
      "hit": false,
      "t": 65650.70024999812,
      "d": 51.36987500000396,
      "v": 43
    },
    {
      "midi": 38,
      "hit": false,
      "t": 65650.70024999921,
      "d": 51.36987500000396,
      "v": 88
    },
    {
      "midi": 40,
      "hit": false,
      "t": 65650.70024999921,
      "d": 51.36987500000396,
      "v": 88
    },
    {
      "midi": 30,
      "hit": false,
      "t": 65750.0153416655,
      "d": 154.10962499999732,
      "v": 107
    },
    {
      "midi": 64,
      "hit": false,
      "t": 65750.01534166654,
      "d": 270.54800833333866,
      "v": 85
    },
    {
      "midi": 76,
      "hit": false,
      "t": 65750.01534166654,
      "d": 270.54800833333866,
      "v": 122
    },
    {
      "midi": 50,
      "hit": false,
      "t": 65750.01534166688,
      "d": 102.73974999999336,
      "v": 48
    },
    {
      "midi": 54,
      "hit": false,
      "t": 65750.01534166688,
      "d": 102.73974999999336,
      "v": 90
    },
    {
      "midi": 70,
      "hit": false,
      "t": 65753.43999999813,
      "d": 51.36987500000396,
      "v": 60
    },
    {
      "midi": 69,
      "hit": false,
      "t": 65753.43999999813,
      "d": 51.36987500000396,
      "v": 50
    },
    {
      "midi": 36,
      "hit": false,
      "t": 65753.43999999954,
      "d": 51.36987500000396,
      "v": 107
    },
    {
      "midi": 13,
      "hit": false,
      "t": 65753.43999999954,
      "d": 51.36987500000396,
      "v": 127
    },
    {
      "midi": 64,
      "hit": false,
      "t": 65753.43999999989,
      "d": 270.54800833333866,
      "v": 85
    },
    {
      "midi": 76,
      "hit": false,
      "t": 65753.43999999989,
      "d": 270.54800833333866,
      "v": 122
    },
    {
      "midi": 64,
      "hit": false,
      "t": 65753.43999999989,
      "d": 270.54800833333866,
      "v": 85
    },
    {
      "midi": 76,
      "hit": false,
      "t": 65753.43999999989,
      "d": 270.54800833333866,
      "v": 122
    },
    {
      "midi": 66,
      "hit": false,
      "t": 65753.4399999999,
      "d": 102.73974999999336,
      "v": 52
    },
    {
      "midi": 69,
      "hit": false,
      "t": 65753.4399999999,
      "d": 102.73974999999336,
      "v": 37
    },
    {
      "midi": 62,
      "hit": false,
      "t": 65753.4399999999,
      "d": 102.73974999999336,
      "v": 32
    },
    {
      "midi": 42,
      "hit": false,
      "t": 65753.44000000016,
      "d": 102.73974999999336,
      "v": 102
    },
    {
      "midi": 70,
      "hit": false,
      "t": 65856.17974999813,
      "d": 51.36987500000396,
      "v": 49
    },
    {
      "midi": 69,
      "hit": false,
      "t": 65856.17974999813,
      "d": 51.36987500000396,
      "v": 39
    },
    {
      "midi": 38,
      "hit": false,
      "t": 65856.17974999921,
      "d": 51.36987500000396,
      "v": 69
    },
    {
      "midi": 40,
      "hit": false,
      "t": 65856.17974999921,
      "d": 51.36987500000396,
      "v": 69
    },
    {
      "midi": 66,
      "hit": false,
      "t": 65856.1797499999,
      "d": 102.73974999999336,
      "v": 112
    },
    {
      "midi": 69,
      "hit": false,
      "t": 65856.1797499999,
      "d": 102.73974999999336,
      "v": 91
    },
    {
      "midi": 62,
      "hit": false,
      "t": 65856.1797499999,
      "d": 102.73974999999336,
      "v": 85
    },
    {
      "midi": 71,
      "hit": false,
      "t": 65955.49484166532,
      "d": 410.95899999994435,
      "v": 120
    },
    {
      "midi": 42,
      "hit": false,
      "t": 65955.4948416655,
      "d": 51.36987500000396,
      "v": 107
    },
    {
      "midi": 50,
      "hit": false,
      "t": 65955.49484166686,
      "d": 102.73974999999336,
      "v": 55
    },
    {
      "midi": 54,
      "hit": false,
      "t": 65955.49484166686,
      "d": 102.73974999999336,
      "v": 95
    },
    {
      "midi": 70,
      "hit": false,
      "t": 65958.91949999814,
      "d": 51.36987500000396,
      "v": 109
    },
    {
      "midi": 69,
      "hit": false,
      "t": 65958.91949999814,
      "d": 51.36987500000396,
      "v": 99
    },
    {
      "midi": 46,
      "hit": false,
      "t": 65958.9195000002,
      "d": 102.73974999999336,
      "v": 107
    },
    {
      "midi": 42,
      "hit": false,
      "t": 66058.2345916655,
      "d": 51.36987500000396,
      "v": 107
    },
    {
      "midi": 62,
      "hit": false,
      "t": 66058.23459166655,
      "d": 284.2466416666721,
      "v": 88
    },
    {
      "midi": 74,
      "hit": false,
      "t": 66058.23459166655,
      "d": 284.2466416666721,
      "v": 127
    },
    {
      "midi": 70,
      "hit": false,
      "t": 66061.65924999815,
      "d": 51.36987500000396,
      "v": 53
    },
    {
      "midi": 69,
      "hit": false,
      "t": 66061.65924999815,
      "d": 51.36987500000396,
      "v": 43
    },
    {
      "midi": 36,
      "hit": false,
      "t": 66061.65924999955,
      "d": 51.36987500000396,
      "v": 107
    },
    {
      "midi": 13,
      "hit": false,
      "t": 66061.65924999955,
      "d": 51.36987500000396,
      "v": 127
    },
    {
      "midi": 62,
      "hit": false,
      "t": 66061.65924999988,
      "d": 102.73974999999336,
      "v": 41
    },
    {
      "midi": 66,
      "hit": false,
      "t": 66061.65924999988,
      "d": 102.73974999999336,
      "v": 54
    },
    {
      "midi": 69,
      "hit": false,
      "t": 66061.65924999988,
      "d": 102.73974999999336,
      "v": 44
    },
    {
      "midi": 62,
      "hit": false,
      "t": 66061.6592499999,
      "d": 284.2466416666721,
      "v": 88
    },
    {
      "midi": 74,
      "hit": false,
      "t": 66061.6592499999,
      "d": 284.2466416666721,
      "v": 127
    },
    {
      "midi": 62,
      "hit": false,
      "t": 66061.6592499999,
      "d": 284.2466416666721,
      "v": 88
    },
    {
      "midi": 74,
      "hit": false,
      "t": 66061.6592499999,
      "d": 284.2466416666721,
      "v": 127
    },
    {
      "midi": 30,
      "hit": false,
      "t": 66160.97434166551,
      "d": 154.10962499999732,
      "v": 107
    },
    {
      "midi": 109,
      "hit": false,
      "t": 66160.97434166657,
      "d": 51.36987500000396,
      "v": 127
    },
    {
      "midi": 50,
      "hit": false,
      "t": 66160.97434166685,
      "d": 308.21924999999464,
      "v": 78
    },
    {
      "midi": 54,
      "hit": false,
      "t": 66160.97434166685,
      "d": 308.21924999999464,
      "v": 113
    },
    {
      "midi": 70,
      "hit": false,
      "t": 66164.39899999816,
      "d": 51.36987500000396,
      "v": 60
    },
    {
      "midi": 69,
      "hit": false,
      "t": 66164.39899999816,
      "d": 51.36987500000396,
      "v": 50
    },
    {
      "midi": 38,
      "hit": false,
      "t": 66164.39899999922,
      "d": 51.36987500000396,
      "v": 88
    },
    {
      "midi": 40,
      "hit": false,
      "t": 66164.39899999922,
      "d": 51.36987500000396,
      "v": 88
    },
    {
      "midi": 36,
      "hit": false,
      "t": 66164.39899999955,
      "d": 51.36987500000396,
      "v": 107
    },
    {
      "midi": 13,
      "hit": false,
      "t": 66164.39899999955,
      "d": 51.36987500000396,
      "v": 127
    },
    {
      "midi": 69,
      "hit": false,
      "t": 66164.39899999987,
      "d": 102.73974999999336,
      "v": 102
    },
    {
      "midi": 66,
      "hit": false,
      "t": 66164.39899999987,
      "d": 102.73974999999336,
      "v": 118
    },
    {
      "midi": 62,
      "hit": false,
      "t": 66164.39899999987,
      "d": 102.73974999999336,
      "v": 85
    },
    {
      "midi": 42,
      "hit": false,
      "t": 66164.39900000015,
      "d": 102.73974999999336,
      "v": 107
    },
    {
      "midi": 70,
      "hit": false,
      "t": 66267.13874999816,
      "d": 51.36987500000396,
      "v": 49
    },
    {
      "midi": 69,
      "hit": false,
      "t": 66267.13874999816,
      "d": 51.36987500000396,
      "v": 39
    },
    {
      "midi": 73,
      "hit": false,
      "t": 66366.45384166526,
      "d": 1020.5481833333033,
      "v": 127
    },
    {
      "midi": 42,
      "hit": false,
      "t": 66366.45384166551,
      "d": 51.36987500000396,
      "v": 107
    },
    {
      "midi": 57,
      "hit": false,
      "t": 66366.45384166656,
      "d": 119.86304166667105,
      "v": 85
    },
    {
      "midi": 69,
      "hit": false,
      "t": 66366.45384166656,
      "d": 119.86304166667105,
      "v": 122
    },
    {
      "midi": 70,
      "hit": false,
      "t": 66369.87849999817,
      "d": 51.36987500000396,
      "v": 109
    },
    {
      "midi": 69,
      "hit": false,
      "t": 66369.87849999817,
      "d": 51.36987500000396,
      "v": 99
    },
    {
      "midi": 38,
      "hit": false,
      "t": 66369.87849999922,
      "d": 51.36987500000396,
      "v": 68
    },
    {
      "midi": 40,
      "hit": false,
      "t": 66369.87849999922,
      "d": 51.36987500000396,
      "v": 68
    },
    {
      "midi": 36,
      "hit": false,
      "t": 66369.87849999956,
      "d": 51.36987500000396,
      "v": 107
    },
    {
      "midi": 13,
      "hit": false,
      "t": 66369.87849999956,
      "d": 51.36987500000396,
      "v": 127
    },
    {
      "midi": 69,
      "hit": false,
      "t": 66369.87849999986,
      "d": 102.73974999997881,
      "v": 49
    },
    {
      "midi": 66,
      "hit": false,
      "t": 66369.87849999986,
      "d": 102.73974999997881,
      "v": 57
    },
    {
      "midi": 62,
      "hit": false,
      "t": 66369.87849999986,
      "d": 102.73974999997881,
      "v": 41
    },
    {
      "midi": 57,
      "hit": false,
      "t": 66369.8784999999,
      "d": 119.86304166667105,
      "v": 85
    },
    {
      "midi": 69,
      "hit": false,
      "t": 66369.8784999999,
      "d": 119.86304166667105,
      "v": 122
    },
    {
      "midi": 57,
      "hit": false,
      "t": 66369.8784999999,
      "d": 119.86304166667105,
      "v": 85
    },
    {
      "midi": 69,
      "hit": false,
      "t": 66369.8784999999,
      "d": 119.86304166667105,
      "v": 122
    },
    {
      "midi": 46,
      "hit": false,
      "t": 66369.87850000018,
      "d": 102.73974999999336,
      "v": 107
    },
    {
      "midi": 42,
      "hit": false,
      "t": 66469.19359166552,
      "d": 51.36987500000396,
      "v": 107
    },
    {
      "midi": 70,
      "hit": false,
      "t": 66472.61824999818,
      "d": 51.36987500000396,
      "v": 53
    },
    {
      "midi": 69,
      "hit": false,
      "t": 66472.61824999818,
      "d": 51.36987500000396,
      "v": 43
    },
    {
      "midi": 38,
      "hit": false,
      "t": 66472.61824999923,
      "d": 51.36987500000396,
      "v": 52
    },
    {
      "midi": 40,
      "hit": false,
      "t": 66472.61824999923,
      "d": 51.36987500000396,
      "v": 52
    },
    {
      "midi": 62,
      "hit": false,
      "t": 66472.61824999984,
      "d": 102.73974999999336,
      "v": 63
    },
    {
      "midi": 66,
      "hit": false,
      "t": 66472.61824999984,
      "d": 102.73974999999336,
      "v": 68
    },
    {
      "midi": 69,
      "hit": false,
      "t": 66472.61824999984,
      "d": 102.73974999999336,
      "v": 68
    },
    {
      "midi": 29,
      "hit": false,
      "t": 66571.93334166553,
      "d": 154.10962499999732,
      "v": 107
    },
    {
      "midi": 71,
      "hit": false,
      "t": 66571.93334166602,
      "d": 801.3700499998959,
      "v": 120
    },
    {
      "midi": 65,
      "hit": false,
      "t": 66571.93334166602,
      "d": 821.9179999998887,
      "v": 120
    },
    {
      "midi": 60,
      "hit": false,
      "t": 66571.93334166602,
      "d": 821.9179999998887,
      "v": 120
    },
    {
      "midi": 48,
      "hit": false,
      "t": 66571.93334166684,
      "d": 102.73974999999336,
      "v": 85
    },
    {
      "midi": 53,
      "hit": false,
      "t": 66571.93334166684,
      "d": 102.73974999999336,
      "v": 107
    },
    {
      "midi": 70,
      "hit": false,
      "t": 66575.35799999819,
      "d": 51.36987500000396,
      "v": 60
    },
    {
      "midi": 69,
      "hit": false,
      "t": 66575.35799999819,
      "d": 51.36987500000396,
      "v": 50
    },
    {
      "midi": 38,
      "hit": false,
      "t": 66575.35799999924,
      "d": 51.36987500000396,
      "v": 63
    },
    {
      "midi": 40,
      "hit": false,
      "t": 66575.35799999924,
      "d": 51.36987500000396,
      "v": 64
    },
    {
      "midi": 36,
      "hit": false,
      "t": 66575.35799999956,
      "d": 51.36987500000396,
      "v": 107
    },
    {
      "midi": 13,
      "hit": false,
      "t": 66575.35799999956,
      "d": 51.36987500000396,
      "v": 127
    },
    {
      "midi": 74,
      "hit": false,
      "t": 66575.35799999983,
      "d": 205.47949999997218,
      "v": 70
    },
    {
      "midi": 69,
      "hit": false,
      "t": 66575.35799999983,
      "d": 205.47949999997218,
      "v": 85
    },
    {
      "midi": 65,
      "hit": false,
      "t": 66575.35799999983,
      "d": 205.47949999997218,
      "v": 68
    },
    {
      "midi": 89,
      "hit": false,
      "t": 66575.358,
      "d": 815.0686833333311,
      "v": 104
    },
    {
      "midi": 77,
      "hit": false,
      "t": 66575.358,
      "d": 815.0686833333311,
      "v": 90
    },
    {
      "midi": 57,
      "hit": false,
      "t": 66575.35800000007,
      "d": 821.9180000000051,
      "v": 80
    },
    {
      "midi": 65,
      "hit": false,
      "t": 66575.35800000007,
      "d": 821.9180000000051,
      "v": 80
    },
    {
      "midi": 60,
      "hit": false,
      "t": 66575.35800000007,
      "d": 821.9180000000051,
      "v": 80
    },
    {
      "midi": 42,
      "hit": false,
      "t": 66575.35800000014,
      "d": 102.73974999999336,
      "v": 107
    },
    {
      "midi": 70,
      "hit": false,
      "t": 66678.0977499982,
      "d": 51.36987500000396,
      "v": 49
    },
    {
      "midi": 69,
      "hit": false,
      "t": 66678.0977499982,
      "d": 51.36987500000396,
      "v": 39
    },
    {
      "midi": 41,
      "hit": false,
      "t": 66777.41284166553,
      "d": 51.36987500000396,
      "v": 107
    },
    {
      "midi": 48,
      "hit": false,
      "t": 66777.41284166682,
      "d": 102.73974999999336,
      "v": 45
    },
    {
      "midi": 53,
      "hit": false,
      "t": 66777.41284166682,
      "d": 102.73974999999336,
      "v": 63
    },
    {
      "midi": 70,
      "hit": false,
      "t": 66780.8374999982,
      "d": 51.36987500000396,
      "v": 109
    },
    {
      "midi": 69,
      "hit": false,
      "t": 66780.8374999982,
      "d": 51.36987500000396,
      "v": 99
    },
    {
      "midi": 46,
      "hit": false,
      "t": 66780.83750000017,
      "d": 102.73974999999336,
      "v": 107
    },
    {
      "midi": 41,
      "hit": false,
      "t": 66880.15259166554,
      "d": 51.36987500000396,
      "v": 107
    },
    {
      "midi": 70,
      "hit": false,
      "t": 66883.57724999821,
      "d": 51.36987500000396,
      "v": 53
    },
    {
      "midi": 69,
      "hit": false,
      "t": 66883.57724999821,
      "d": 51.36987500000396,
      "v": 43
    },
    {
      "midi": 74,
      "hit": false,
      "t": 66883.5772499998,
      "d": 102.73974999999336,
      "v": 72
    },
    {
      "midi": 69,
      "hit": false,
      "t": 66883.5772499998,
      "d": 102.73974999999336,
      "v": 94
    },
    {
      "midi": 65,
      "hit": false,
      "t": 66883.5772499998,
      "d": 102.73974999999336,
      "v": 65
    },
    {
      "midi": 29,
      "hit": false,
      "t": 66982.89234166555,
      "d": 154.10962499999732,
      "v": 107
    },
    {
      "midi": 62,
      "hit": false,
      "t": 66982.89234166656,
      "d": 85.61645833333023,
      "v": 115
    },
    {
      "midi": 71,
      "hit": false,
      "t": 66982.89234166656,
      "d": 102.73974999999336,
      "v": 124
    },
    {
      "midi": 109,
      "hit": false,
      "t": 66982.89234166658,
      "d": 51.36987500000396,
      "v": 127
    },
    {
      "midi": 48,
      "hit": false,
      "t": 66982.89234166681,
      "d": 102.73974999999336,
      "v": 53
    },
    {
      "midi": 53,
      "hit": false,
      "t": 66982.89234166681,
      "d": 102.73974999999336,
      "v": 85
    },
    {
      "midi": 70,
      "hit": false,
      "t": 66986.31699999822,
      "d": 51.36987500000396,
      "v": 60
    },
    {
      "midi": 69,
      "hit": false,
      "t": 66986.31699999822,
      "d": 51.36987500000396,
      "v": 50
    },
    {
      "midi": 38,
      "hit": false,
      "t": 66986.31699999924,
      "d": 51.36987500000396,
      "v": 88
    },
    {
      "midi": 40,
      "hit": false,
      "t": 66986.31699999924,
      "d": 51.36987500000396,
      "v": 88
    },
    {
      "midi": 36,
      "hit": false,
      "t": 66986.31699999956,
      "d": 51.36987500000396,
      "v": 107
    },
    {
      "midi": 13,
      "hit": false,
      "t": 66986.31699999956,
      "d": 51.36987500000396,
      "v": 127
    },
    {
      "midi": 62,
      "hit": false,
      "t": 66986.31699999991,
      "d": 85.61645833333023,
      "v": 115
    },
    {
      "midi": 71,
      "hit": false,
      "t": 66986.31699999991,
      "d": 102.73974999999336,
      "v": 124
    },
    {
      "midi": 62,
      "hit": false,
      "t": 66986.31699999991,
      "d": 85.61645833333023,
      "v": 115
    },
    {
      "midi": 71,
      "hit": false,
      "t": 66986.31699999991,
      "d": 102.73974999999336,
      "v": 124
    },
    {
      "midi": 42,
      "hit": false,
      "t": 66986.31700000013,
      "d": 102.73974999999336,
      "v": 107
    },
    {
      "midi": 70,
      "hit": false,
      "t": 67089.05674999823,
      "d": 51.36987500000396,
      "v": 49
    },
    {
      "midi": 69,
      "hit": false,
      "t": 67089.05674999823,
      "d": 51.36987500000396,
      "v": 39
    },
    {
      "midi": 69,
      "hit": false,
      "t": 67089.05674999979,
      "d": 102.73974999999336,
      "v": 45
    },
    {
      "midi": 65,
      "hit": false,
      "t": 67089.05674999979,
      "d": 102.73974999999336,
      "v": 31
    },
    {
      "midi": 74,
      "hit": false,
      "t": 67089.05674999979,
      "d": 102.73974999999336,
      "v": 34
    },
    {
      "midi": 41,
      "hit": false,
      "t": 67188.37184166555,
      "d": 51.36987500000396,
      "v": 107
    },
    {
      "midi": 60,
      "hit": false,
      "t": 67188.37184166655,
      "d": 106.16440833333763,
      "v": 107
    },
    {
      "midi": 69,
      "hit": false,
      "t": 67188.37184166655,
      "d": 106.16440833333763,
      "v": 107
    },
    {
      "midi": 48,
      "hit": false,
      "t": 67188.3718416668,
      "d": 102.73974999999336,
      "v": 55
    },
    {
      "midi": 53,
      "hit": false,
      "t": 67188.3718416668,
      "d": 102.73974999999336,
      "v": 82
    },
    {
      "midi": 70,
      "hit": false,
      "t": 67191.79649999824,
      "d": 51.36987500000396,
      "v": 109
    },
    {
      "midi": 69,
      "hit": false,
      "t": 67191.79649999824,
      "d": 51.36987500000396,
      "v": 99
    },
    {
      "midi": 74,
      "hit": false,
      "t": 67191.79649999978,
      "d": 102.73974999999336,
      "v": 60
    },
    {
      "midi": 65,
      "hit": false,
      "t": 67191.79649999978,
      "d": 102.73974999999336,
      "v": 60
    },
    {
      "midi": 69,
      "hit": false,
      "t": 67191.79649999978,
      "d": 102.73974999999336,
      "v": 79
    },
    {
      "midi": 60,
      "hit": false,
      "t": 67191.7964999999,
      "d": 106.16440833333763,
      "v": 107
    },
    {
      "midi": 69,
      "hit": false,
      "t": 67191.7964999999,
      "d": 106.16440833333763,
      "v": 107
    },
    {
      "midi": 60,
      "hit": false,
      "t": 67191.7964999999,
      "d": 106.16440833333763,
      "v": 107
    },
    {
      "midi": 69,
      "hit": false,
      "t": 67191.7964999999,
      "d": 106.16440833333763,
      "v": 107
    },
    {
      "midi": 46,
      "hit": false,
      "t": 67191.79650000016,
      "d": 205.47950000000128,
      "v": 107
    },
    {
      "midi": 41,
      "hit": false,
      "t": 67291.11159166555,
      "d": 51.36987500000396,
      "v": 107
    },
    {
      "midi": 70,
      "hit": false,
      "t": 67294.53624999824,
      "d": 51.36987500000396,
      "v": 53
    },
    {
      "midi": 69,
      "hit": false,
      "t": 67294.53624999824,
      "d": 51.36987500000396,
      "v": 43
    },
    {
      "midi": 38,
      "hit": false,
      "t": 67294.53624999925,
      "d": 51.36987500000396,
      "v": 88
    },
    {
      "midi": 40,
      "hit": false,
      "t": 67294.53624999925,
      "d": 51.36987500000396,
      "v": 88
    },
    {
      "midi": 74,
      "hit": false,
      "t": 67294.53624999977,
      "d": 102.73974999999336,
      "v": 29
    },
    {
      "midi": 65,
      "hit": false,
      "t": 67294.53624999977,
      "d": 102.73974999999336,
      "v": 29
    },
    {
      "midi": 69,
      "hit": false,
      "t": 67294.53624999977,
      "d": 102.73974999999336,
      "v": 37
    },
    {
      "midi": 28,
      "hit": false,
      "t": 67393.85134166556,
      "d": 154.10962499999732,
      "v": 107
    },
    {
      "midi": 71,
      "hit": false,
      "t": 67393.85134166591,
      "d": 801.3700499998376,
      "v": 117
    },
    {
      "midi": 59,
      "hit": false,
      "t": 67393.85134166591,
      "d": 801.3700499998376,
      "v": 117
    },
    {
      "midi": 64,
      "hit": false,
      "t": 67393.85134166591,
      "d": 801.3700499998376,
      "v": 117
    },
    {
      "midi": 59,
      "hit": false,
      "t": 67393.85134166655,
      "d": 804.794708333342,
      "v": 115
    },
    {
      "midi": 68,
      "hit": false,
      "t": 67393.85134166655,
      "d": 804.794708333342,
      "v": 115
    },
    {
      "midi": 47,
      "hit": false,
      "t": 67393.85134166678,
      "d": 102.73974999999336,
      "v": 71
    },
    {
      "midi": 52,
      "hit": false,
      "t": 67393.85134166678,
      "d": 102.73974999999336,
      "v": 90
    },
    {
      "midi": 70,
      "hit": false,
      "t": 67397.27599999825,
      "d": 51.36987500000396,
      "v": 60
    },
    {
      "midi": 69,
      "hit": false,
      "t": 67397.27599999825,
      "d": 51.36987500000396,
      "v": 50
    },
    {
      "midi": 36,
      "hit": false,
      "t": 67397.27599999956,
      "d": 51.36987500000396,
      "v": 107
    },
    {
      "midi": 13,
      "hit": false,
      "t": 67397.27599999956,
      "d": 51.36987500000396,
      "v": 127
    },
    {
      "midi": 68,
      "hit": false,
      "t": 67397.27599999977,
      "d": 205.47949999998673,
      "v": 118
    },
    {
      "midi": 64,
      "hit": false,
      "t": 67397.27599999977,
      "d": 205.47949999998673,
      "v": 94
    },
    {
      "midi": 74,
      "hit": false,
      "t": 67397.27599999977,
      "d": 205.47949999998673,
      "v": 67
    },
    {
      "midi": 59,
      "hit": false,
      "t": 67397.2759999999,
      "d": 804.794708333342,
      "v": 115
    },
    {
      "midi": 68,
      "hit": false,
      "t": 67397.2759999999,
      "d": 804.794708333342,
      "v": 115
    },
    {
      "midi": 59,
      "hit": false,
      "t": 67397.2759999999,
      "d": 804.794708333342,
      "v": 115
    },
    {
      "midi": 68,
      "hit": false,
      "t": 67397.2759999999,
      "d": 804.794708333342,
      "v": 115
    },
    {
      "midi": 88,
      "hit": false,
      "t": 67397.27599999998,
      "d": 815.0686833333311,
      "v": 99
    },
    {
      "midi": 76,
      "hit": false,
      "t": 67397.27599999998,
      "d": 815.0686833333311,
      "v": 87
    },
    {
      "midi": 56,
      "hit": false,
      "t": 67397.27600000007,
      "d": 821.9180000000051,
      "v": 80
    },
    {
      "midi": 64,
      "hit": false,
      "t": 67397.27600000007,
      "d": 821.9180000000051,
      "v": 80
    },
    {
      "midi": 59,
      "hit": false,
      "t": 67397.27600000007,
      "d": 821.9180000000051,
      "v": 80
    },
    {
      "midi": 42,
      "hit": false,
      "t": 67397.27600000011,
      "d": 102.73974999999336,
      "v": 102
    },
    {
      "midi": 70,
      "hit": false,
      "t": 67500.01574999826,
      "d": 51.36987500000396,
      "v": 49
    },
    {
      "midi": 69,
      "hit": false,
      "t": 67500.01574999826,
      "d": 51.36987500000396,
      "v": 39
    },
    {
      "midi": 38,
      "hit": false,
      "t": 67500.01574999925,
      "d": 51.36987500000396,
      "v": 69
    },
    {
      "midi": 40,
      "hit": false,
      "t": 67500.01574999925,
      "d": 51.36987500000396,
      "v": 69
    },
    {
      "midi": 72,
      "hit": false,
      "t": 67599.33084166523,
      "d": 246.57540000000154,
      "v": 122
    },
    {
      "midi": 40,
      "hit": false,
      "t": 67599.33084166556,
      "d": 51.36987500000396,
      "v": 107
    },
    {
      "midi": 47,
      "hit": false,
      "t": 67599.33084166677,
      "d": 102.73974999999336,
      "v": 41
    },
    {
      "midi": 52,
      "hit": false,
      "t": 67599.33084166677,
      "d": 102.73974999999336,
      "v": 55
    },
    {
      "midi": 70,
      "hit": false,
      "t": 67602.75549999827,
      "d": 51.36987500000396,
      "v": 109
    },
    {
      "midi": 69,
      "hit": false,
      "t": 67602.75549999827,
      "d": 51.36987500000396,
      "v": 99
    },
    {
      "midi": 46,
      "hit": false,
      "t": 67602.75550000016,
      "d": 102.73974999999336,
      "v": 107
    },
    {
      "midi": 40,
      "hit": false,
      "t": 67702.07059166557,
      "d": 51.36987500000396,
      "v": 107
    },
    {
      "midi": 70,
      "hit": false,
      "t": 67705.49524999828,
      "d": 51.36987500000396,
      "v": 53
    },
    {
      "midi": 69,
      "hit": false,
      "t": 67705.49524999828,
      "d": 51.36987500000396,
      "v": 43
    },
    {
      "midi": 68,
      "hit": false,
      "t": 67705.49524999975,
      "d": 102.73974999999336,
      "v": 98
    },
    {
      "midi": 64,
      "hit": false,
      "t": 67705.49524999975,
      "d": 102.73974999999336,
      "v": 70
    },
    {
      "midi": 74,
      "hit": false,
      "t": 67705.49524999975,
      "d": 102.73974999999336,
      "v": 70
    },
    {
      "midi": 71,
      "hit": false,
      "t": 67804.81034166523,
      "d": 243.15074166667182,
      "v": 122
    },
    {
      "midi": 28,
      "hit": false,
      "t": 67804.81034166558,
      "d": 154.10962499999732,
      "v": 107
    },
    {
      "midi": 109,
      "hit": false,
      "t": 67804.81034166658,
      "d": 51.36987500000396,
      "v": 127
    },
    {
      "midi": 47,
      "hit": false,
      "t": 67804.81034166676,
      "d": 102.73974999999336,
      "v": 63
    },
    {
      "midi": 52,
      "hit": false,
      "t": 67804.81034166676,
      "d": 102.73974999999336,
      "v": 85
    },
    {
      "midi": 70,
      "hit": false,
      "t": 67808.23499999828,
      "d": 51.36987500000396,
      "v": 60
    },
    {
      "midi": 69,
      "hit": false,
      "t": 67808.23499999828,
      "d": 51.36987500000396,
      "v": 50
    },
    {
      "midi": 38,
      "hit": false,
      "t": 67808.23499999926,
      "d": 51.36987500000396,
      "v": 88
    },
    {
      "midi": 40,
      "hit": false,
      "t": 67808.23499999926,
      "d": 51.36987500000396,
      "v": 88
    },
    {
      "midi": 36,
      "hit": false,
      "t": 67808.23499999956,
      "d": 51.36987500000396,
      "v": 107
    },
    {
      "midi": 13,
      "hit": false,
      "t": 67808.23499999956,
      "d": 51.36987500000396,
      "v": 127
    },
    {
      "midi": 42,
      "hit": false,
      "t": 67808.2350000001,
      "d": 102.73974999999336,
      "v": 107
    },
    {
      "midi": 70,
      "hit": false,
      "t": 67910.97474999829,
      "d": 51.36987500000396,
      "v": 49
    },
    {
      "midi": 69,
      "hit": false,
      "t": 67910.97474999829,
      "d": 51.36987500000396,
      "v": 39
    },
    {
      "midi": 68,
      "hit": false,
      "t": 67910.97474999973,
      "d": 102.73974999999336,
      "v": 47
    },
    {
      "midi": 64,
      "hit": false,
      "t": 67910.97474999973,
      "d": 102.73974999999336,
      "v": 33
    },
    {
      "midi": 74,
      "hit": false,
      "t": 67910.97474999973,
      "d": 102.73974999999336,
      "v": 33
    },
    {
      "midi": 64,
      "hit": false,
      "t": 68010.28984166523,
      "d": 232.87676666666812,
      "v": 105
    },
    {
      "midi": 40,
      "hit": false,
      "t": 68010.28984166558,
      "d": 51.36987500000396,
      "v": 107
    },
    {
      "midi": 47,
      "hit": false,
      "t": 68010.28984166674,
      "d": 205.47950000000128,
      "v": 90
    },
    {
      "midi": 52,
      "hit": false,
      "t": 68010.28984166674,
      "d": 205.47950000000128,
      "v": 113
    },
    {
      "midi": 70,
      "hit": false,
      "t": 68013.7144999983,
      "d": 51.36987500000396,
      "v": 109
    },
    {
      "midi": 69,
      "hit": false,
      "t": 68013.7144999983,
      "d": 51.36987500000396,
      "v": 99
    },
    {
      "midi": 38,
      "hit": false,
      "t": 68013.71449999926,
      "d": 51.36987500000396,
      "v": 68
    },
    {
      "midi": 40,
      "hit": false,
      "t": 68013.71449999926,
      "d": 51.36987500000396,
      "v": 68
    },
    {
      "midi": 74,
      "hit": false,
      "t": 68013.71449999973,
      "d": 102.73974999999336,
      "v": 79
    },
    {
      "midi": 68,
      "hit": false,
      "t": 68013.71449999973,
      "d": 102.73974999999336,
      "v": 118
    },
    {
      "midi": 64,
      "hit": false,
      "t": 68013.71449999973,
      "d": 102.73974999999336,
      "v": 88
    },
    {
      "midi": 46,
      "hit": false,
      "t": 68013.71450000015,
      "d": 102.73974999999336,
      "v": 107
    },
    {
      "midi": 40,
      "hit": false,
      "t": 68113.02959166559,
      "d": 51.36987500000396,
      "v": 107
    },
    {
      "midi": 70,
      "hit": false,
      "t": 68116.4542499983,
      "d": 51.36987500000396,
      "v": 53
    },
    {
      "midi": 69,
      "hit": false,
      "t": 68116.4542499983,
      "d": 51.36987500000396,
      "v": 43
    },
    {
      "midi": 38,
      "hit": false,
      "t": 68116.45424999927,
      "d": 51.36987500000396,
      "v": 52
    },
    {
      "midi": 40,
      "hit": false,
      "t": 68116.45424999927,
      "d": 51.36987500000396,
      "v": 52
    },
    {
      "midi": 74,
      "hit": false,
      "t": 68116.45424999972,
      "d": 102.73974999997881,
      "v": 37
    },
    {
      "midi": 68,
      "hit": false,
      "t": 68116.45424999972,
      "d": 102.73974999997881,
      "v": 57
    },
    {
      "midi": 64,
      "hit": false,
      "t": 68116.45424999972,
      "d": 102.73974999997881,
      "v": 42
    },
    {
      "midi": 71,
      "hit": false,
      "t": 68215.76934166523,
      "d": 246.57539999995788,
      "v": 108
    },
    {
      "midi": 33,
      "hit": false,
      "t": 68215.7693416656,
      "d": 154.10962499999732,
      "v": 107
    },
    {
      "midi": 71,
      "hit": false,
      "t": 68215.76934166574,
      "d": 215.75347499996133,
      "v": 119
    },
    {
      "midi": 59,
      "hit": false,
      "t": 68215.76934166574,
      "d": 376.7124166666181,
      "v": 119
    },
    {
      "midi": 64,
      "hit": false,
      "t": 68215.76934166574,
      "d": 376.7124166666181,
      "v": 119
    },
    {
      "midi": 81,
      "hit": false,
      "t": 68215.76934166656,
      "d": 410.9590000000171,
      "v": 85
    },
    {
      "midi": 69,
      "hit": false,
      "t": 68215.76934166656,
      "d": 410.9590000000171,
      "v": 122
    },
    {
      "midi": 52,
      "hit": false,
      "t": 68215.76934166675,
      "d": 102.73974999999336,
      "v": 31
    },
    {
      "midi": 57,
      "hit": false,
      "t": 68215.76934166675,
      "d": 102.73974999999336,
      "v": 53
    },
    {
      "midi": 70,
      "hit": false,
      "t": 68219.19399999832,
      "d": 51.36987500000396,
      "v": 60
    },
    {
      "midi": 69,
      "hit": false,
      "t": 68219.19399999832,
      "d": 51.36987500000396,
      "v": 50
    },
    {
      "midi": 38,
      "hit": false,
      "t": 68219.19399999928,
      "d": 51.36987500000396,
      "v": 64
    },
    {
      "midi": 40,
      "hit": false,
      "t": 68219.19399999928,
      "d": 51.36987500000396,
      "v": 64
    },
    {
      "midi": 36,
      "hit": false,
      "t": 68219.19399999957,
      "d": 51.36987500000396,
      "v": 107
    },
    {
      "midi": 13,
      "hit": false,
      "t": 68219.19399999957,
      "d": 51.36987500000396,
      "v": 127
    },
    {
      "midi": 69,
      "hit": false,
      "t": 68219.1939999997,
      "d": 205.47949999998673,
      "v": 79
    },
    {
      "midi": 60,
      "hit": false,
      "t": 68219.1939999997,
      "d": 205.47949999998673,
      "v": 107
    },
    {
      "midi": 64,
      "hit": false,
      "t": 68219.1939999997,
      "d": 205.47949999998673,
      "v": 118
    },
    {
      "midi": 57,
      "hit": false,
      "t": 68219.1939999997,
      "d": 205.47949999998673,
      "v": 72
    },
    {
      "midi": 81,
      "hit": false,
      "t": 68219.1939999999,
      "d": 410.9590000000171,
      "v": 85
    },
    {
      "midi": 69,
      "hit": false,
      "t": 68219.1939999999,
      "d": 410.9590000000171,
      "v": 122
    },
    {
      "midi": 81,
      "hit": false,
      "t": 68219.1939999999,
      "d": 410.9590000000171,
      "v": 85
    },
    {
      "midi": 69,
      "hit": false,
      "t": 68219.1939999999,
      "d": 410.9590000000171,
      "v": 122
    },
    {
      "midi": 81,
      "hit": false,
      "t": 68219.19399999997,
      "d": 407.53434166667284,
      "v": 98
    },
    {
      "midi": 69,
      "hit": false,
      "t": 68219.19399999997,
      "d": 407.53434166667284,
      "v": 86
    },
    {
      "midi": 64,
      "hit": false,
      "t": 68219.19400000008,
      "d": 1643.8359999999957,
      "v": 80
    },
    {
      "midi": 69,
      "hit": false,
      "t": 68219.19400000008,
      "d": 1643.8359999999957,
      "v": 80
    },
    {
      "midi": 60,
      "hit": false,
      "t": 68219.19400000008,
      "d": 1643.8359999999957,
      "v": 80
    },
    {
      "midi": 42,
      "hit": false,
      "t": 68219.19400000009,
      "d": 102.73974999999336,
      "v": 107
    },
    {
      "midi": 70,
      "hit": false,
      "t": 68321.93374999832,
      "d": 51.36987500000396,
      "v": 49
    },
    {
      "midi": 69,
      "hit": false,
      "t": 68321.93374999832,
      "d": 51.36987500000396,
      "v": 39
    },
    {
      "midi": 69,
      "hit": false,
      "t": 68421.2488416652,
      "d": 232.876766666639,
      "v": 100
    },
    {
      "midi": 45,
      "hit": false,
      "t": 68421.2488416656,
      "d": 51.36987500000396,
      "v": 107
    },
    {
      "midi": 69,
      "hit": false,
      "t": 68421.2488416657,
      "d": 171.23291666666046,
      "v": 102
    },
    {
      "midi": 52,
      "hit": false,
      "t": 68421.24884166673,
      "d": 102.73974999999336,
      "v": 48
    },
    {
      "midi": 57,
      "hit": false,
      "t": 68421.24884166673,
      "d": 102.73974999999336,
      "v": 65
    },
    {
      "midi": 70,
      "hit": false,
      "t": 68424.67349999833,
      "d": 51.36987500000396,
      "v": 109
    },
    {
      "midi": 69,
      "hit": false,
      "t": 68424.67349999833,
      "d": 51.36987500000396,
      "v": 99
    },
    {
      "midi": 46,
      "hit": false,
      "t": 68424.67350000014,
      "d": 102.73974999999336,
      "v": 107
    },
    {
      "midi": 45,
      "hit": false,
      "t": 68523.9885916656,
      "d": 51.36987500000396,
      "v": 107
    },
    {
      "midi": 70,
      "hit": false,
      "t": 68527.41324999834,
      "d": 51.36987500000396,
      "v": 53
    },
    {
      "midi": 69,
      "hit": false,
      "t": 68527.41324999834,
      "d": 51.36987500000396,
      "v": 43
    },
    {
      "midi": 69,
      "hit": false,
      "t": 68527.41324999968,
      "d": 102.73974999999336,
      "v": 64
    },
    {
      "midi": 57,
      "hit": false,
      "t": 68527.41324999968,
      "d": 102.73974999999336,
      "v": 64
    },
    {
      "midi": 60,
      "hit": false,
      "t": 68527.41324999968,
      "d": 102.73974999999336,
      "v": 85
    },
    {
      "midi": 64,
      "hit": false,
      "t": 68527.41324999968,
      "d": 102.73974999999336,
      "v": 81
    },
    {
      "midi": 33,
      "hit": false,
      "t": 68626.72834166561,
      "d": 154.10962499999732,
      "v": 107
    },
    {
      "midi": 83,
      "hit": false,
      "t": 68626.72834166657,
      "d": 428.08229166668025,
      "v": 85
    },
    {
      "midi": 71,
      "hit": false,
      "t": 68626.72834166657,
      "d": 428.08229166668025,
      "v": 122
    },
    {
      "midi": 109,
      "hit": false,
      "t": 68626.72834166659,
      "d": 51.36987500000396,
      "v": 127
    },
    {
      "midi": 52,
      "hit": false,
      "t": 68626.72834166672,
      "d": 205.47950000000128,
      "v": 82
    },
    {
      "midi": 57,
      "hit": false,
      "t": 68626.72834166672,
      "d": 205.47950000000128,
      "v": 95
    },
    {
      "midi": 70,
      "hit": false,
      "t": 68630.15299999835,
      "d": 51.36987500000396,
      "v": 60
    },
    {
      "midi": 69,
      "hit": false,
      "t": 68630.15299999835,
      "d": 51.36987500000396,
      "v": 50
    },
    {
      "midi": 38,
      "hit": false,
      "t": 68630.15299999928,
      "d": 51.36987500000396,
      "v": 88
    },
    {
      "midi": 40,
      "hit": false,
      "t": 68630.15299999928,
      "d": 51.36987500000396,
      "v": 88
    },
    {
      "midi": 36,
      "hit": false,
      "t": 68630.15299999957,
      "d": 51.36987500000396,
      "v": 107
    },
    {
      "midi": 13,
      "hit": false,
      "t": 68630.15299999957,
      "d": 51.36987500000396,
      "v": 127
    },
    {
      "midi": 83,
      "hit": false,
      "t": 68630.15299999992,
      "d": 428.08229166668025,
      "v": 85
    },
    {
      "midi": 71,
      "hit": false,
      "t": 68630.15299999992,
      "d": 428.08229166668025,
      "v": 122
    },
    {
      "midi": 83,
      "hit": false,
      "t": 68630.15299999992,
      "d": 428.08229166668025,
      "v": 85
    },
    {
      "midi": 71,
      "hit": false,
      "t": 68630.15299999992,
      "d": 428.08229166668025,
      "v": 122
    },
    {
      "midi": 83,
      "hit": false,
      "t": 68630.15299999998,
      "d": 407.53434166667284,
      "v": 98
    },
    {
      "midi": 71,
      "hit": false,
      "t": 68630.15299999998,
      "d": 407.53434166667284,
      "v": 86
    },
    {
      "midi": 42,
      "hit": false,
      "t": 68630.15300000008,
      "d": 102.73974999999336,
      "v": 107
    },
    {
      "midi": 70,
      "hit": false,
      "t": 68732.89274999835,
      "d": 51.36987500000396,
      "v": 49
    },
    {
      "midi": 69,
      "hit": false,
      "t": 68732.89274999835,
      "d": 51.36987500000396,
      "v": 39
    },
    {
      "midi": 64,
      "hit": false,
      "t": 68732.89274999966,
      "d": 102.73974999999336,
      "v": 38
    },
    {
      "midi": 60,
      "hit": false,
      "t": 68732.89274999966,
      "d": 102.73974999999336,
      "v": 41
    },
    {
      "midi": 57,
      "hit": false,
      "t": 68732.89274999966,
      "d": 102.73974999999336,
      "v": 30
    },
    {
      "midi": 69,
      "hit": false,
      "t": 68732.89274999966,
      "d": 102.73974999999336,
      "v": 30
    },
    {
      "midi": 69,
      "hit": false,
      "t": 68832.20784166518,
      "d": 373.28775833328837,
      "v": 102
    },
    {
      "midi": 45,
      "hit": false,
      "t": 68832.20784166561,
      "d": 51.36987500000396,
      "v": 107
    },
    {
      "midi": 69,
      "hit": false,
      "t": 68832.20784166569,
      "d": 684.9316666665254,
      "v": 119
    },
    {
      "midi": 64,
      "hit": false,
      "t": 68832.20784166569,
      "d": 684.9316666665254,
      "v": 119
    },
    {
      "midi": 60,
      "hit": false,
      "t": 68832.20784166569,
      "d": 702.0549583331886,
      "v": 119
    },
    {
      "midi": 72,
      "hit": false,
      "t": 68832.20784166569,
      "d": 702.0549583331886,
      "v": 119
    },
    {
      "midi": 57,
      "hit": false,
      "t": 68832.20784166672,
      "d": 102.73974999999336,
      "v": 53
    },
    {
      "midi": 52,
      "hit": false,
      "t": 68832.20784166672,
      "d": 102.73974999999336,
      "v": 45
    },
    {
      "midi": 70,
      "hit": false,
      "t": 68835.63249999836,
      "d": 51.36987500000396,
      "v": 109
    },
    {
      "midi": 69,
      "hit": false,
      "t": 68835.63249999836,
      "d": 51.36987500000396,
      "v": 99
    },
    {
      "midi": 69,
      "hit": false,
      "t": 68835.63249999966,
      "d": 102.73974999999336,
      "v": 91
    },
    {
      "midi": 57,
      "hit": false,
      "t": 68835.63249999966,
      "d": 102.73974999999336,
      "v": 70
    },
    {
      "midi": 60,
      "hit": false,
      "t": 68835.63249999966,
      "d": 102.73974999999336,
      "v": 94
    },
    {
      "midi": 64,
      "hit": false,
      "t": 68835.63249999966,
      "d": 102.73974999999336,
      "v": 107
    },
    {
      "midi": 46,
      "hit": false,
      "t": 68835.63250000012,
      "d": 205.47950000000128,
      "v": 107
    },
    {
      "midi": 45,
      "hit": false,
      "t": 68934.94759166562,
      "d": 51.36987500000396,
      "v": 107
    },
    {
      "midi": 70,
      "hit": false,
      "t": 68938.37224999837,
      "d": 51.36987500000396,
      "v": 53
    },
    {
      "midi": 69,
      "hit": false,
      "t": 68938.37224999837,
      "d": 51.36987500000396,
      "v": 43
    },
    {
      "midi": 38,
      "hit": false,
      "t": 68938.37224999929,
      "d": 51.36987500000396,
      "v": 88
    },
    {
      "midi": 40,
      "hit": false,
      "t": 68938.37224999929,
      "d": 51.36987500000396,
      "v": 88
    },
    {
      "midi": 33,
      "hit": false,
      "t": 69037.68734166563,
      "d": 154.10962499999732,
      "v": 107
    },
    {
      "midi": 84,
      "hit": false,
      "t": 69037.68734166659,
      "d": 393.8357083333249,
      "v": 84
    },
    {
      "midi": 72,
      "hit": false,
      "t": 69037.68734166659,
      "d": 410.958999999988,
      "v": 117
    },
    {
      "midi": 52,
      "hit": false,
      "t": 69037.68734166671,
      "d": 102.73974999999336,
      "v": 47
    },
    {
      "midi": 57,
      "hit": false,
      "t": 69037.68734166671,
      "d": 102.73974999999336,
      "v": 52
    },
    {
      "midi": 70,
      "hit": false,
      "t": 69041.11199999838,
      "d": 51.36987500000396,
      "v": 60
    },
    {
      "midi": 69,
      "hit": false,
      "t": 69041.11199999838,
      "d": 51.36987500000396,
      "v": 50
    },
    {
      "midi": 36,
      "hit": false,
      "t": 69041.11199999957,
      "d": 51.36987500000396,
      "v": 107
    },
    {
      "midi": 13,
      "hit": false,
      "t": 69041.11199999957,
      "d": 51.36987500000396,
      "v": 127
    },
    {
      "midi": 69,
      "hit": false,
      "t": 69041.11199999964,
      "d": 102.73974999999336,
      "v": 44
    },
    {
      "midi": 57,
      "hit": false,
      "t": 69041.11199999964,
      "d": 102.73974999999336,
      "v": 33
    },
    {
      "midi": 64,
      "hit": false,
      "t": 69041.11199999964,
      "d": 102.73974999999336,
      "v": 52
    },
    {
      "midi": 60,
      "hit": false,
      "t": 69041.11199999964,
      "d": 102.73974999999336,
      "v": 45
    },
    {
      "midi": 84,
      "hit": false,
      "t": 69041.11199999994,
      "d": 393.8357083333249,
      "v": 84
    },
    {
      "midi": 72,
      "hit": false,
      "t": 69041.11199999994,
      "d": 410.958999999988,
      "v": 117
    },
    {
      "midi": 84,
      "hit": false,
      "t": 69041.11199999994,
      "d": 393.8357083333249,
      "v": 84
    },
    {
      "midi": 72,
      "hit": false,
      "t": 69041.11199999994,
      "d": 410.958999999988,
      "v": 117
    },
    {
      "midi": 84,
      "hit": false,
      "t": 69041.11199999998,
      "d": 407.53434166667284,
      "v": 97
    },
    {
      "midi": 72,
      "hit": false,
      "t": 69041.11199999998,
      "d": 407.53434166667284,
      "v": 86
    },
    {
      "midi": 42,
      "hit": false,
      "t": 69041.11200000007,
      "d": 102.73974999999336,
      "v": 102
    },
    {
      "midi": 70,
      "hit": false,
      "t": 69143.85174999839,
      "d": 51.36987500000396,
      "v": 49
    },
    {
      "midi": 69,
      "hit": false,
      "t": 69143.85174999839,
      "d": 51.36987500000396,
      "v": 39
    },
    {
      "midi": 38,
      "hit": false,
      "t": 69143.85174999929,
      "d": 51.36987500000396,
      "v": 69
    },
    {
      "midi": 40,
      "hit": false,
      "t": 69143.85174999929,
      "d": 51.36987500000396,
      "v": 69
    },
    {
      "midi": 64,
      "hit": false,
      "t": 69143.85174999964,
      "d": 102.73974999999336,
      "v": 94
    },
    {
      "midi": 60,
      "hit": false,
      "t": 69143.85174999964,
      "d": 102.73974999999336,
      "v": 88
    },
    {
      "midi": 57,
      "hit": false,
      "t": 69143.85174999964,
      "d": 102.73974999999336,
      "v": 65
    },
    {
      "midi": 69,
      "hit": false,
      "t": 69143.85174999964,
      "d": 102.73974999999336,
      "v": 81
    },
    {
      "midi": 45,
      "hit": false,
      "t": 69243.16684166563,
      "d": 51.36987500000396,
      "v": 107
    },
    {
      "midi": 52,
      "hit": false,
      "t": 69243.1668416667,
      "d": 102.73974999999336,
      "v": 45
    },
    {
      "midi": 57,
      "hit": false,
      "t": 69243.1668416667,
      "d": 102.73974999999336,
      "v": 49
    },
    {
      "midi": 70,
      "hit": false,
      "t": 69246.5914999984,
      "d": 51.36987500000396,
      "v": 109
    },
    {
      "midi": 69,
      "hit": false,
      "t": 69246.5914999984,
      "d": 51.36987500000396,
      "v": 99
    },
    {
      "midi": 46,
      "hit": false,
      "t": 69246.59150000013,
      "d": 102.73974999999336,
      "v": 107
    },
    {
      "midi": 45,
      "hit": false,
      "t": 69345.90659166564,
      "d": 51.36987500000396,
      "v": 107
    },
    {
      "midi": 70,
      "hit": false,
      "t": 69349.3312499984,
      "d": 51.36987500000396,
      "v": 53
    },
    {
      "midi": 69,
      "hit": false,
      "t": 69349.3312499984,
      "d": 51.36987500000396,
      "v": 43
    },
    {
      "midi": 36,
      "hit": false,
      "t": 69349.33124999958,
      "d": 51.36987500000396,
      "v": 107
    },
    {
      "midi": 13,
      "hit": false,
      "t": 69349.33124999958,
      "d": 51.36987500000396,
      "v": 127
    },
    {
      "midi": 69,
      "hit": false,
      "t": 69349.33124999962,
      "d": 102.73974999999336,
      "v": 38
    },
    {
      "midi": 57,
      "hit": false,
      "t": 69349.33124999962,
      "d": 102.73974999999336,
      "v": 31
    },
    {
      "midi": 60,
      "hit": false,
      "t": 69349.33124999962,
      "d": 102.73974999999336,
      "v": 42
    },
    {
      "midi": 64,
      "hit": false,
      "t": 69349.33124999962,
      "d": 102.73974999999336,
      "v": 45
    },
    {
      "midi": 33,
      "hit": false,
      "t": 69448.64634166565,
      "d": 154.10962499999732,
      "v": 107
    },
    {
      "midi": 81,
      "hit": false,
      "t": 69448.64634166658,
      "d": 393.8357083333394,
      "v": 82
    },
    {
      "midi": 69,
      "hit": false,
      "t": 69448.64634166658,
      "d": 393.8357083333394,
      "v": 115
    },
    {
      "midi": 109,
      "hit": false,
      "t": 69448.6463416666,
      "d": 51.36987500000396,
      "v": 127
    },
    {
      "midi": 52,
      "hit": false,
      "t": 69448.64634166668,
      "d": 102.73974999999336,
      "v": 43
    },
    {
      "midi": 57,
      "hit": false,
      "t": 69448.64634166668,
      "d": 102.73974999999336,
      "v": 46
    },
    {
      "midi": 70,
      "hit": false,
      "t": 69452.07099999841,
      "d": 51.36987500000396,
      "v": 60
    },
    {
      "midi": 69,
      "hit": false,
      "t": 69452.07099999841,
      "d": 51.36987500000396,
      "v": 50
    },
    {
      "midi": 38,
      "hit": false,
      "t": 69452.0709999993,
      "d": 51.36987500000396,
      "v": 88
    },
    {
      "midi": 40,
      "hit": false,
      "t": 69452.0709999993,
      "d": 51.36987500000396,
      "v": 88
    },
    {
      "midi": 36,
      "hit": false,
      "t": 69452.07099999959,
      "d": 51.36987500000396,
      "v": 107
    },
    {
      "midi": 13,
      "hit": false,
      "t": 69452.07099999959,
      "d": 51.36987500000396,
      "v": 127
    },
    {
      "midi": 57,
      "hit": false,
      "t": 69452.07099999962,
      "d": 102.73974999999336,
      "v": 77
    },
    {
      "midi": 60,
      "hit": false,
      "t": 69452.07099999962,
      "d": 102.73974999999336,
      "v": 102
    },
    {
      "midi": 64,
      "hit": false,
      "t": 69452.07099999962,
      "d": 102.73974999999336,
      "v": 102
    },
    {
      "midi": 69,
      "hit": false,
      "t": 69452.07099999962,
      "d": 102.73974999999336,
      "v": 91
    },
    {
      "midi": 81,
      "hit": false,
      "t": 69452.07099999992,
      "d": 393.8357083333394,
      "v": 82
    },
    {
      "midi": 69,
      "hit": false,
      "t": 69452.07099999992,
      "d": 393.8357083333394,
      "v": 115
    },
    {
      "midi": 81,
      "hit": false,
      "t": 69452.07099999992,
      "d": 393.8357083333394,
      "v": 82
    },
    {
      "midi": 69,
      "hit": false,
      "t": 69452.07099999992,
      "d": 393.8357083333394,
      "v": 115
    },
    {
      "midi": 81,
      "hit": false,
      "t": 69452.07099999998,
      "d": 407.53434166667284,
      "v": 96
    },
    {
      "midi": 69,
      "hit": false,
      "t": 69452.07099999998,
      "d": 407.53434166667284,
      "v": 86
    },
    {
      "midi": 42,
      "hit": false,
      "t": 69452.07100000005,
      "d": 102.73974999999336,
      "v": 107
    },
    {
      "midi": 70,
      "hit": false,
      "t": 69554.81074999842,
      "d": 51.36987500000396,
      "v": 49
    },
    {
      "midi": 69,
      "hit": false,
      "t": 69554.81074999842,
      "d": 51.36987500000396,
      "v": 39
    },
    {
      "midi": 45,
      "hit": false,
      "t": 69654.12584166565,
      "d": 51.36987500000396,
      "v": 107
    },
    {
      "midi": 52,
      "hit": false,
      "t": 69654.12584166667,
      "d": 102.73974999999336,
      "v": 53
    },
    {
      "midi": 57,
      "hit": false,
      "t": 69654.12584166667,
      "d": 102.73974999999336,
      "v": 63
    },
    {
      "midi": 70,
      "hit": false,
      "t": 69657.55049999843,
      "d": 51.36987500000396,
      "v": 109
    },
    {
      "midi": 69,
      "hit": false,
      "t": 69657.55049999843,
      "d": 51.36987500000396,
      "v": 99
    },
    {
      "midi": 38,
      "hit": false,
      "t": 69657.5504999993,
      "d": 51.36987500000396,
      "v": 68
    },
    {
      "midi": 40,
      "hit": false,
      "t": 69657.5504999993,
      "d": 51.36987500000396,
      "v": 68
    },
    {
      "midi": 36,
      "hit": false,
      "t": 69657.55049999959,
      "d": 51.36987500000396,
      "v": 107
    },
    {
      "midi": 13,
      "hit": false,
      "t": 69657.55049999959,
      "d": 51.36987500000396,
      "v": 127
    },
    {
      "midi": 57,
      "hit": false,
      "t": 69657.5504999996,
      "d": 102.73974999999336,
      "v": 36
    },
    {
      "midi": 60,
      "hit": false,
      "t": 69657.5504999996,
      "d": 102.73974999999336,
      "v": 49
    },
    {
      "midi": 69,
      "hit": false,
      "t": 69657.5504999996,
      "d": 102.73974999999336,
      "v": 44
    },
    {
      "midi": 64,
      "hit": false,
      "t": 69657.5504999996,
      "d": 102.73974999999336,
      "v": 49
    },
    {
      "midi": 46,
      "hit": false,
      "t": 69657.55050000011,
      "d": 102.73974999999336,
      "v": 107
    },
    {
      "midi": 45,
      "hit": false,
      "t": 69756.86559166566,
      "d": 51.36987500000396,
      "v": 107
    },
    {
      "midi": 70,
      "hit": false,
      "t": 69760.29024999843,
      "d": 51.36987500000396,
      "v": 53
    },
    {
      "midi": 69,
      "hit": false,
      "t": 69760.29024999843,
      "d": 51.36987500000396,
      "v": 43
    },
    {
      "midi": 38,
      "hit": false,
      "t": 69760.2902499993,
      "d": 51.36987500000396,
      "v": 52
    },
    {
      "midi": 40,
      "hit": false,
      "t": 69760.2902499993,
      "d": 51.36987500000396,
      "v": 52
    },
    {
      "midi": 57,
      "hit": false,
      "t": 69760.2902499996,
      "d": 51.36987500000396,
      "v": 70
    },
    {
      "midi": 64,
      "hit": false,
      "t": 69760.2902499996,
      "d": 51.36987500000396,
      "v": 94
    },
    {
      "midi": 60,
      "hit": false,
      "t": 69760.2902499996,
      "d": 51.36987500000396,
      "v": 94
    },
    {
      "midi": 69,
      "hit": false,
      "t": 69760.2902499996,
      "d": 51.36987500000396,
      "v": 91
    },
    {
      "midi": 72,
      "hit": false,
      "t": 69859.60534166514,
      "d": 287.67129999995814,
      "v": 127
    },
    {
      "midi": 36,
      "hit": false,
      "t": 69859.60534166567,
      "d": 154.10962499999732,
      "v": 107
    },
    {
      "midi": 67,
      "hit": false,
      "t": 69859.60534166617,
      "d": 205.47950000000128,
      "v": 110
    },
    {
      "midi": 72,
      "hit": false,
      "t": 69859.60534166617,
      "d": 205.47950000000128,
      "v": 109
    },
    {
      "midi": 64,
      "hit": false,
      "t": 69859.60534166617,
      "d": 205.47950000000128,
      "v": 116
    },
    {
      "midi": 60,
      "hit": false,
      "t": 69859.60534166665,
      "d": 102.73974999999336,
      "v": 63
    },
    {
      "midi": 55,
      "hit": false,
      "t": 69859.60534166665,
      "d": 102.73974999999336,
      "v": 58
    },
    {
      "midi": 70,
      "hit": false,
      "t": 69863.02999999844,
      "d": 51.36987500000396,
      "v": 60
    },
    {
      "midi": 69,
      "hit": false,
      "t": 69863.02999999844,
      "d": 51.36987500000396,
      "v": 50
    },
    {
      "midi": 38,
      "hit": false,
      "t": 69863.02999999931,
      "d": 51.36987500000396,
      "v": 88
    },
    {
      "midi": 40,
      "hit": false,
      "t": 69863.02999999931,
      "d": 51.36987500000396,
      "v": 88
    },
    {
      "midi": 36,
      "hit": false,
      "t": 69863.02999999959,
      "d": 51.36987500000396,
      "v": 107
    },
    {
      "midi": 13,
      "hit": false,
      "t": 69863.02999999959,
      "d": 51.36987500000396,
      "v": 127
    },
    {
      "midi": 67,
      "hit": false,
      "t": 69863.0299999996,
      "d": 410.95900000000256,
      "v": 81
    },
    {
      "midi": 60,
      "hit": false,
      "t": 69863.0299999996,
      "d": 410.95900000000256,
      "v": 85
    },
    {
      "midi": 64,
      "hit": false,
      "t": 69863.0299999996,
      "d": 410.95900000000256,
      "v": 112
    },
    {
      "midi": 84,
      "hit": false,
      "t": 69863.02999999998,
      "d": 815.0686833333311,
      "v": 99
    },
    {
      "midi": 72,
      "hit": false,
      "t": 69863.02999999998,
      "d": 815.0686833333311,
      "v": 87
    },
    {
      "midi": 42,
      "hit": false,
      "t": 69863.03000000004,
      "d": 102.73974999999336,
      "v": 107
    },
    {
      "midi": 64,
      "hit": false,
      "t": 69863.03000000007,
      "d": 821.9180000000051,
      "v": 80
    },
    {
      "midi": 60,
      "hit": false,
      "t": 69863.03000000007,
      "d": 821.9180000000051,
      "v": 80
    },
    {
      "midi": 67,
      "hit": false,
      "t": 69863.03000000007,
      "d": 821.9180000000051,
      "v": 80
    },
    {
      "midi": 70,
      "hit": false,
      "t": 69965.76974999845,
      "d": 51.36987500000396,
      "v": 49
    },
    {
      "midi": 69,
      "hit": false,
      "t": 69965.76974999845,
      "d": 51.36987500000396,
      "v": 39
    },
    {
      "midi": 48,
      "hit": false,
      "t": 70065.08484166567,
      "d": 51.36987500000396,
      "v": 107
    },
    {
      "midi": 60,
      "hit": false,
      "t": 70065.08484166664,
      "d": 102.73974999999336,
      "v": 48
    },
    {
      "midi": 55,
      "hit": false,
      "t": 70065.08484166664,
      "d": 102.73974999999336,
      "v": 47
    },
    {
      "midi": 70,
      "hit": false,
      "t": 70068.50949999846,
      "d": 51.36987500000396,
      "v": 109
    },
    {
      "midi": 69,
      "hit": false,
      "t": 70068.50949999846,
      "d": 51.36987500000396,
      "v": 99
    },
    {
      "midi": 46,
      "hit": false,
      "t": 70068.5095000001,
      "d": 102.73974999999336,
      "v": 107
    },
    {
      "midi": 72,
      "hit": false,
      "t": 70167.8245916651,
      "d": 301.36993333334976,
      "v": 123
    },
    {
      "midi": 48,
      "hit": false,
      "t": 70167.82459166567,
      "d": 51.36987500000396,
      "v": 107
    },
    {
      "midi": 67,
      "hit": false,
      "t": 70167.82459166617,
      "d": 205.47950000000128,
      "v": 116
    },
    {
      "midi": 72,
      "hit": false,
      "t": 70167.82459166617,
      "d": 205.47950000000128,
      "v": 115
    },
    {
      "midi": 64,
      "hit": false,
      "t": 70167.82459166617,
      "d": 205.47950000000128,
      "v": 116
    },
    {
      "midi": 70,
      "hit": false,
      "t": 70171.24924999847,
      "d": 51.36987500000396,
      "v": 53
    },
    {
      "midi": 69,
      "hit": false,
      "t": 70171.24924999847,
      "d": 51.36987500000396,
      "v": 43
    },
    {
      "midi": 36,
      "hit": false,
      "t": 70270.56434166568,
      "d": 154.10962499999732,
      "v": 107
    },
    {
      "midi": 64,
      "hit": false,
      "t": 70270.56434166658,
      "d": 95.89043333333393,
      "v": 96
    },
    {
      "midi": 67,
      "hit": false,
      "t": 70270.56434166658,
      "d": 95.89043333333393,
      "v": 115
    },
    {
      "midi": 72,
      "hit": false,
      "t": 70270.56434166658,
      "d": 99.31509166666365,
      "v": 110
    },
    {
      "midi": 109,
      "hit": false,
      "t": 70270.5643416666,
      "d": 51.36987500000396,
      "v": 127
    },
    {
      "midi": 60,
      "hit": false,
      "t": 70270.56434166663,
      "d": 102.73974999999336,
      "v": 65
    },
    {
      "midi": 55,
      "hit": false,
      "t": 70270.56434166663,
      "d": 102.73974999999336,
      "v": 82
    },
    {
      "midi": 70,
      "hit": false,
      "t": 70273.98899999847,
      "d": 51.36987500000396,
      "v": 60
    },
    {
      "midi": 69,
      "hit": false,
      "t": 70273.98899999847,
      "d": 51.36987500000396,
      "v": 50
    },
    {
      "midi": 38,
      "hit": false,
      "t": 70273.98899999932,
      "d": 51.36987500000396,
      "v": 63
    },
    {
      "midi": 40,
      "hit": false,
      "t": 70273.98899999932,
      "d": 51.36987500000396,
      "v": 64
    },
    {
      "midi": 36,
      "hit": false,
      "t": 70273.9889999996,
      "d": 51.36987500000396,
      "v": 107
    },
    {
      "midi": 13,
      "hit": false,
      "t": 70273.9889999996,
      "d": 51.36987500000396,
      "v": 127
    },
    {
      "midi": 60,
      "hit": false,
      "t": 70273.98899999961,
      "d": 102.73974999999336,
      "v": 36
    },
    {
      "midi": 64,
      "hit": false,
      "t": 70273.98899999961,
      "d": 102.73974999999336,
      "v": 49
    },
    {
      "midi": 67,
      "hit": false,
      "t": 70273.98899999961,
      "d": 102.73974999999336,
      "v": 37
    },
    {
      "midi": 64,
      "hit": false,
      "t": 70273.98899999993,
      "d": 95.89043333333393,
      "v": 96
    },
    {
      "midi": 67,
      "hit": false,
      "t": 70273.98899999993,
      "d": 95.89043333333393,
      "v": 115
    },
    {
      "midi": 72,
      "hit": false,
      "t": 70273.98899999993,
      "d": 99.31509166666365,
      "v": 110
    },
    {
      "midi": 64,
      "hit": false,
      "t": 70273.98899999993,
      "d": 95.89043333333393,
      "v": 96
    },
    {
      "midi": 67,
      "hit": false,
      "t": 70273.98899999993,
      "d": 95.89043333333393,
      "v": 115
    },
    {
      "midi": 72,
      "hit": false,
      "t": 70273.98899999993,
      "d": 99.31509166666365,
      "v": 110
    },
    {
      "midi": 42,
      "hit": false,
      "t": 70273.98900000003,
      "d": 102.73974999999336,
      "v": 107
    },
    {
      "midi": 70,
      "hit": false,
      "t": 70376.72874999848,
      "d": 51.36987500000396,
      "v": 49
    },
    {
      "midi": 69,
      "hit": false,
      "t": 70376.72874999848,
      "d": 51.36987500000396,
      "v": 39
    },
    {
      "midi": 72,
      "hit": false,
      "t": 70476.04384166512,
      "d": 133.56167500000447,
      "v": 116
    },
    {
      "midi": 48,
      "hit": false,
      "t": 70476.04384166568,
      "d": 51.36987500000396,
      "v": 107
    },
    {
      "midi": 67,
      "hit": false,
      "t": 70476.04384166616,
      "d": 205.47950000000128,
      "v": 117
    },
    {
      "midi": 72,
      "hit": false,
      "t": 70476.04384166616,
      "d": 205.47950000000128,
      "v": 117
    },
    {
      "midi": 64,
      "hit": false,
      "t": 70476.04384166616,
      "d": 205.47950000000128,
      "v": 115
    },
    {
      "midi": 55,
      "hit": false,
      "t": 70476.04384166661,
      "d": 205.47950000000128,
      "v": 82
    },
    {
      "midi": 60,
      "hit": false,
      "t": 70476.04384166661,
      "d": 205.47950000000128,
      "v": 58
    },
    {
      "midi": 70,
      "hit": false,
      "t": 70479.46849999849,
      "d": 51.36987500000396,
      "v": 109
    },
    {
      "midi": 69,
      "hit": false,
      "t": 70479.46849999849,
      "d": 51.36987500000396,
      "v": 99
    },
    {
      "midi": 60,
      "hit": false,
      "t": 70479.4684999996,
      "d": 205.47950000000128,
      "v": 77
    },
    {
      "midi": 64,
      "hit": false,
      "t": 70479.4684999996,
      "d": 205.47950000000128,
      "v": 102
    },
    {
      "midi": 67,
      "hit": false,
      "t": 70479.4684999996,
      "d": 205.47950000000128,
      "v": 79
    },
    {
      "midi": 46,
      "hit": false,
      "t": 70479.46850000009,
      "d": 205.47950000000128,
      "v": 107
    },
    {
      "midi": 48,
      "hit": false,
      "t": 70578.78359166569,
      "d": 51.36987500000396,
      "v": 107
    },
    {
      "midi": 70,
      "hit": false,
      "t": 70582.2082499985,
      "d": 51.36987500000396,
      "v": 53
    },
    {
      "midi": 69,
      "hit": false,
      "t": 70582.2082499985,
      "d": 51.36987500000396,
      "v": 43
    },
    {
      "midi": 38,
      "hit": false,
      "t": 70582.20824999933,
      "d": 51.36987500000396,
      "v": 88
    },
    {
      "midi": 40,
      "hit": false,
      "t": 70582.20824999933,
      "d": 51.36987500000396,
      "v": 88
    },
    {
      "midi": 72,
      "hit": false,
      "t": 70681.52334166512,
      "d": 291.0959583333024,
      "v": 127
    },
    {
      "midi": 38,
      "hit": false,
      "t": 70681.5233416657,
      "d": 154.10962499999732,
      "v": 107
    },
    {
      "midi": 62,
      "hit": false,
      "t": 70681.52334166616,
      "d": 205.47950000000128,
      "v": 110
    },
    {
      "midi": 69,
      "hit": false,
      "t": 70681.52334166616,
      "d": 205.47950000000128,
      "v": 118
    },
    {
      "midi": 66,
      "hit": false,
      "t": 70681.52334166616,
      "d": 205.47950000000128,
      "v": 118
    },
    {
      "midi": 72,
      "hit": false,
      "t": 70681.52334166616,
      "d": 308.21924999999464,
      "v": 115
    },
    {
      "midi": 66,
      "hit": false,
      "t": 70681.52334166659,
      "d": 236.30142499999783,
      "v": 110
    },
    {
      "midi": 69,
      "hit": false,
      "t": 70681.52334166659,
      "d": 239.72608333332755,
      "v": 105
    },
    {
      "midi": 62,
      "hit": false,
      "t": 70681.52334166659,
      "d": 243.15074166665727,
      "v": 92
    },
    {
      "midi": 74,
      "hit": false,
      "t": 70681.52334166659,
      "d": 243.15074166665727,
      "v": 96
    },
    {
      "midi": 52,
      "hit": false,
      "t": 70681.52334166662,
      "d": 308.21924999999464,
      "v": 90
    },
    {
      "midi": 57,
      "hit": false,
      "t": 70681.52334166662,
      "d": 308.21924999999464,
      "v": 107
    },
    {
      "midi": 70,
      "hit": false,
      "t": 70684.9479999985,
      "d": 51.36987500000396,
      "v": 60
    },
    {
      "midi": 69,
      "hit": false,
      "t": 70684.9479999985,
      "d": 51.36987500000396,
      "v": 50
    },
    {
      "midi": 60,
      "hit": false,
      "t": 70684.9479999996,
      "d": 102.73974999999336,
      "v": 36
    },
    {
      "midi": 64,
      "hit": false,
      "t": 70684.9479999996,
      "d": 102.73974999999336,
      "v": 49
    },
    {
      "midi": 67,
      "hit": false,
      "t": 70684.9479999996,
      "d": 102.73974999999336,
      "v": 37
    },
    {
      "midi": 36,
      "hit": false,
      "t": 70684.9479999996,
      "d": 51.36987500000396,
      "v": 107
    },
    {
      "midi": 13,
      "hit": false,
      "t": 70684.9479999996,
      "d": 51.36987500000396,
      "v": 127
    },
    {
      "midi": 66,
      "hit": false,
      "t": 70684.94799999993,
      "d": 236.30142499999783,
      "v": 110
    },
    {
      "midi": 69,
      "hit": false,
      "t": 70684.94799999993,
      "d": 239.72608333332755,
      "v": 105
    },
    {
      "midi": 62,
      "hit": false,
      "t": 70684.94799999993,
      "d": 243.15074166665727,
      "v": 92
    },
    {
      "midi": 74,
      "hit": false,
      "t": 70684.94799999993,
      "d": 243.15074166665727,
      "v": 96
    },
    {
      "midi": 66,
      "hit": false,
      "t": 70684.94799999993,
      "d": 236.30142499999783,
      "v": 110
    },
    {
      "midi": 69,
      "hit": false,
      "t": 70684.94799999993,
      "d": 239.72608333332755,
      "v": 105
    },
    {
      "midi": 62,
      "hit": false,
      "t": 70684.94799999993,
      "d": 243.15074166665727,
      "v": 92
    },
    {
      "midi": 74,
      "hit": false,
      "t": 70684.94799999993,
      "d": 243.15074166665727,
      "v": 96
    },
    {
      "midi": 86,
      "hit": false,
      "t": 70684.94799999997,
      "d": 815.0686833333311,
      "v": 101
    },
    {
      "midi": 74,
      "hit": false,
      "t": 70684.94799999997,
      "d": 815.0686833333311,
      "v": 88
    },
    {
      "midi": 42,
      "hit": false,
      "t": 70684.94800000002,
      "d": 102.73974999999336,
      "v": 102
    },
    {
      "midi": 66,
      "hit": false,
      "t": 70684.94800000008,
      "d": 821.9180000000051,
      "v": 80
    },
    {
      "midi": 62,
      "hit": false,
      "t": 70684.94800000008,
      "d": 821.9180000000051,
      "v": 80
    },
    {
      "midi": 57,
      "hit": false,
      "t": 70684.94800000008,
      "d": 821.9180000000051,
      "v": 80
    },
    {
      "midi": 70,
      "hit": false,
      "t": 70787.68774999851,
      "d": 51.36987500000396,
      "v": 49
    },
    {
      "midi": 69,
      "hit": false,
      "t": 70787.68774999851,
      "d": 51.36987500000396,
      "v": 39
    },
    {
      "midi": 38,
      "hit": false,
      "t": 70787.68774999933,
      "d": 51.36987500000396,
      "v": 69
    },
    {
      "midi": 40,
      "hit": false,
      "t": 70787.68774999933,
      "d": 51.36987500000396,
      "v": 69
    },
    {
      "midi": 50,
      "hit": false,
      "t": 70887.0028416657,
      "d": 51.36987500000396,
      "v": 107
    },
    {
      "midi": 70,
      "hit": false,
      "t": 70890.42749999852,
      "d": 51.36987500000396,
      "v": 109
    },
    {
      "midi": 69,
      "hit": false,
      "t": 70890.42749999852,
      "d": 51.36987500000396,
      "v": 99
    },
    {
      "midi": 66,
      "hit": false,
      "t": 70890.42749999958,
      "d": 513.6987499999959,
      "v": 112
    },
    {
      "midi": 69,
      "hit": false,
      "t": 70890.42749999958,
      "d": 513.6987499999959,
      "v": 85
    },
    {
      "midi": 62,
      "hit": false,
      "t": 70890.42749999958,
      "d": 513.6987499999959,
      "v": 81
    },
    {
      "midi": 46,
      "hit": false,
      "t": 70890.42750000009,
      "d": 102.73974999999336,
      "v": 107
    },
    {
      "midi": 71,
      "hit": false,
      "t": 70989.74259166508,
      "d": 297.94527500002005,
      "v": 119
    },
    {
      "midi": 50,
      "hit": false,
      "t": 70989.74259166571,
      "d": 51.36987500000396,
      "v": 107
    },
    {
      "midi": 62,
      "hit": false,
      "t": 70989.74259166616,
      "d": 205.47950000000128,
      "v": 117
    },
    {
      "midi": 66,
      "hit": false,
      "t": 70989.74259166616,
      "d": 205.47950000000128,
      "v": 117
    },
    {
      "midi": 71,
      "hit": false,
      "t": 70989.74259166616,
      "d": 205.47950000000128,
      "v": 121
    },
    {
      "midi": 69,
      "hit": false,
      "t": 70989.74259166616,
      "d": 205.47950000000128,
      "v": 113
    },
    {
      "midi": 62,
      "hit": false,
      "t": 70989.74259166658,
      "d": 65.06850833333738,
      "v": 100
    },
    {
      "midi": 66,
      "hit": false,
      "t": 70989.74259166658,
      "d": 68.4931666666671,
      "v": 115
    },
    {
      "midi": 74,
      "hit": false,
      "t": 70989.74259166658,
      "d": 75.34248333332653,
      "v": 96
    },
    {
      "midi": 69,
      "hit": false,
      "t": 70989.74259166658,
      "d": 78.76714166665624,
      "v": 105
    },
    {
      "midi": 70,
      "hit": false,
      "t": 70993.16724999853,
      "d": 51.36987500000396,
      "v": 53
    },
    {
      "midi": 69,
      "hit": false,
      "t": 70993.16724999853,
      "d": 51.36987500000396,
      "v": 43
    },
    {
      "midi": 62,
      "hit": false,
      "t": 70993.16724999993,
      "d": 65.06850833333738,
      "v": 100
    },
    {
      "midi": 66,
      "hit": false,
      "t": 70993.16724999993,
      "d": 68.4931666666671,
      "v": 115
    },
    {
      "midi": 74,
      "hit": false,
      "t": 70993.16724999993,
      "d": 75.34248333332653,
      "v": 96
    },
    {
      "midi": 69,
      "hit": false,
      "t": 70993.16724999993,
      "d": 78.76714166665624,
      "v": 105
    },
    {
      "midi": 62,
      "hit": false,
      "t": 70993.16724999993,
      "d": 65.06850833333738,
      "v": 100
    },
    {
      "midi": 66,
      "hit": false,
      "t": 70993.16724999993,
      "d": 68.4931666666671,
      "v": 115
    },
    {
      "midi": 74,
      "hit": false,
      "t": 70993.16724999993,
      "d": 75.34248333332653,
      "v": 96
    },
    {
      "midi": 69,
      "hit": false,
      "t": 70993.16724999993,
      "d": 78.76714166665624,
      "v": 105
    },
    {
      "midi": 38,
      "hit": false,
      "t": 71092.48234166572,
      "d": 154.10962499999732,
      "v": 107
    },
    {
      "midi": 57,
      "hit": false,
      "t": 71092.4823416666,
      "d": 308.21924999999464,
      "v": 82
    },
    {
      "midi": 52,
      "hit": false,
      "t": 71092.4823416666,
      "d": 308.21924999999464,
      "v": 82
    },
    {
      "midi": 109,
      "hit": false,
      "t": 71092.4823416666,
      "d": 51.36987500000396,
      "v": 127
    },
    {
      "midi": 70,
      "hit": false,
      "t": 71095.90699999854,
      "d": 51.36987500000396,
      "v": 60
    },
    {
      "midi": 69,
      "hit": false,
      "t": 71095.90699999854,
      "d": 51.36987500000396,
      "v": 50
    },
    {
      "midi": 38,
      "hit": false,
      "t": 71095.90699999934,
      "d": 51.36987500000396,
      "v": 88
    },
    {
      "midi": 40,
      "hit": false,
      "t": 71095.90699999934,
      "d": 51.36987500000396,
      "v": 88
    },
    {
      "midi": 36,
      "hit": false,
      "t": 71095.9069999996,
      "d": 51.36987500000396,
      "v": 107
    },
    {
      "midi": 13,
      "hit": false,
      "t": 71095.9069999996,
      "d": 51.36987500000396,
      "v": 127
    },
    {
      "midi": 42,
      "hit": false,
      "t": 71095.907,
      "d": 102.73974999999336,
      "v": 107
    },
    {
      "midi": 70,
      "hit": false,
      "t": 71198.64674999854,
      "d": 51.36987500000396,
      "v": 49
    },
    {
      "midi": 69,
      "hit": false,
      "t": 71198.64674999854,
      "d": 51.36987500000396,
      "v": 39
    },
    {
      "midi": 69,
      "hit": false,
      "t": 71297.9618416651,
      "d": 133.56167500000447,
      "v": 100
    },
    {
      "midi": 50,
      "hit": false,
      "t": 71297.96184166572,
      "d": 51.36987500000396,
      "v": 107
    },
    {
      "midi": 62,
      "hit": false,
      "t": 71297.96184166615,
      "d": 205.47950000000128,
      "v": 115
    },
    {
      "midi": 69,
      "hit": false,
      "t": 71297.96184166615,
      "d": 205.47950000000128,
      "v": 121
    },
    {
      "midi": 66,
      "hit": false,
      "t": 71297.96184166615,
      "d": 205.47950000000128,
      "v": 115
    },
    {
      "midi": 70,
      "hit": false,
      "t": 71301.38649999855,
      "d": 51.36987500000396,
      "v": 109
    },
    {
      "midi": 69,
      "hit": false,
      "t": 71301.38649999855,
      "d": 51.36987500000396,
      "v": 99
    },
    {
      "midi": 38,
      "hit": false,
      "t": 71301.38649999934,
      "d": 51.36987500000396,
      "v": 68
    },
    {
      "midi": 40,
      "hit": false,
      "t": 71301.38649999934,
      "d": 51.36987500000396,
      "v": 68
    },
    {
      "midi": 46,
      "hit": false,
      "t": 71301.38650000008,
      "d": 102.73974999999336,
      "v": 107
    },
    {
      "midi": 50,
      "hit": false,
      "t": 71400.70159166573,
      "d": 51.36987500000396,
      "v": 107
    },
    {
      "midi": 70,
      "hit": false,
      "t": 71404.12624999856,
      "d": 51.36987500000396,
      "v": 53
    },
    {
      "midi": 69,
      "hit": false,
      "t": 71404.12624999856,
      "d": 51.36987500000396,
      "v": 43
    },
    {
      "midi": 38,
      "hit": false,
      "t": 71404.12624999935,
      "d": 51.36987500000396,
      "v": 52
    },
    {
      "midi": 40,
      "hit": false,
      "t": 71404.12624999935,
      "d": 51.36987500000396,
      "v": 52
    },
    {
      "midi": 66,
      "hit": false,
      "t": 71404.12624999958,
      "d": 102.73974999999336,
      "v": 54
    },
    {
      "midi": 69,
      "hit": false,
      "t": 71404.12624999958,
      "d": 102.73974999999336,
      "v": 41
    },
    {
      "midi": 62,
      "hit": false,
      "t": 71404.12624999958,
      "d": 102.73974999999336,
      "v": 38
    },
    {
      "midi": 71,
      "hit": false,
      "t": 71503.44134166511,
      "d": 308.21924999999464,
      "v": 114
    },
    {
      "midi": 39,
      "hit": false,
      "t": 71503.44134166573,
      "d": 154.10962499999732,
      "v": 107
    },
    {
      "midi": 63,
      "hit": false,
      "t": 71503.44134166616,
      "d": 205.47950000000128,
      "v": 123
    },
    {
      "midi": 66,
      "hit": false,
      "t": 71503.44134166616,
      "d": 205.47950000000128,
      "v": 109
    },
    {
      "midi": 71,
      "hit": false,
      "t": 71503.44134166616,
      "d": 308.21924999999464,
      "v": 113
    },
    {
      "midi": 59,
      "hit": false,
      "t": 71503.44134166659,
      "d": 102.73974999999336,
      "v": 46
    },
    {
      "midi": 54,
      "hit": false,
      "t": 71503.44134166659,
      "d": 102.73974999999336,
      "v": 85
    },
    {
      "midi": 70,
      "hit": false,
      "t": 71506.86599999857,
      "d": 51.36987500000396,
      "v": 60
    },
    {
      "midi": 69,
      "hit": false,
      "t": 71506.86599999857,
      "d": 51.36987500000396,
      "v": 50
    },
    {
      "midi": 38,
      "hit": false,
      "t": 71506.86599999935,
      "d": 51.36987500000396,
      "v": 63
    },
    {
      "midi": 40,
      "hit": false,
      "t": 71506.86599999935,
      "d": 51.36987500000396,
      "v": 63
    },
    {
      "midi": 66,
      "hit": false,
      "t": 71506.86599999957,
      "d": 205.47950000000128,
      "v": 107
    },
    {
      "midi": 71,
      "hit": false,
      "t": 71506.86599999957,
      "d": 205.47950000000128,
      "v": 85
    },
    {
      "midi": 63,
      "hit": false,
      "t": 71506.86599999957,
      "d": 205.47950000000128,
      "v": 98
    },
    {
      "midi": 36,
      "hit": false,
      "t": 71506.8659999996,
      "d": 51.36987500000396,
      "v": 107
    },
    {
      "midi": 13,
      "hit": false,
      "t": 71506.8659999996,
      "d": 51.36987500000396,
      "v": 127
    },
    {
      "midi": 87,
      "hit": false,
      "t": 71506.86599999997,
      "d": 815.0686833333311,
      "v": 104
    },
    {
      "midi": 75,
      "hit": false,
      "t": 71506.86599999997,
      "d": 815.0686833333311,
      "v": 90
    },
    {
      "midi": 42,
      "hit": false,
      "t": 71506.866,
      "d": 102.73974999999336,
      "v": 107
    },
    {
      "midi": 63,
      "hit": false,
      "t": 71506.86600000008,
      "d": 821.9180000000051,
      "v": 80
    },
    {
      "midi": 66,
      "hit": false,
      "t": 71506.86600000008,
      "d": 821.9180000000051,
      "v": 80
    },
    {
      "midi": 59,
      "hit": false,
      "t": 71506.86600000008,
      "d": 821.9180000000051,
      "v": 80
    },
    {
      "midi": 70,
      "hit": false,
      "t": 71609.60574999858,
      "d": 51.36987500000396,
      "v": 49
    },
    {
      "midi": 69,
      "hit": false,
      "t": 71609.60574999858,
      "d": 51.36987500000396,
      "v": 39
    },
    {
      "midi": 51,
      "hit": false,
      "t": 71708.92084166573,
      "d": 51.36987500000396,
      "v": 107
    },
    {
      "midi": 59,
      "hit": false,
      "t": 71708.92084166658,
      "d": 102.73974999999336,
      "v": 47
    },
    {
      "midi": 54,
      "hit": false,
      "t": 71708.92084166658,
      "d": 102.73974999999336,
      "v": 78
    },
    {
      "midi": 70,
      "hit": false,
      "t": 71712.34549999858,
      "d": 51.36987500000396,
      "v": 109
    },
    {
      "midi": 69,
      "hit": false,
      "t": 71712.34549999858,
      "d": 51.36987500000396,
      "v": 99
    },
    {
      "midi": 46,
      "hit": false,
      "t": 71712.34550000007,
      "d": 102.73974999999336,
      "v": 107
    },
    {
      "midi": 71,
      "hit": false,
      "t": 71811.6605916651,
      "d": 301.36993333337887,
      "v": 127
    },
    {
      "midi": 51,
      "hit": false,
      "t": 71811.66059166574,
      "d": 51.36987500000396,
      "v": 107
    },
    {
      "midi": 71,
      "hit": false,
      "t": 71811.66059166615,
      "d": 205.47950000000128,
      "v": 107
    },
    {
      "midi": 63,
      "hit": false,
      "t": 71811.66059166615,
      "d": 205.47950000000128,
      "v": 117
    },
    {
      "midi": 66,
      "hit": false,
      "t": 71811.66059166615,
      "d": 205.47950000000128,
      "v": 117
    },
    {
      "midi": 72,
      "hit": false,
      "t": 71811.66059166615,
      "d": 308.21924999999464,
      "v": 115
    },
    {
      "midi": 70,
      "hit": false,
      "t": 71815.08524999859,
      "d": 51.36987500000396,
      "v": 53
    },
    {
      "midi": 69,
      "hit": false,
      "t": 71815.08524999859,
      "d": 51.36987500000396,
      "v": 43
    },
    {
      "midi": 66,
      "hit": false,
      "t": 71815.08524999957,
      "d": 102.73974999999336,
      "v": 102
    },
    {
      "midi": 63,
      "hit": false,
      "t": 71815.08524999957,
      "d": 102.73974999999336,
      "v": 79
    },
    {
      "midi": 71,
      "hit": false,
      "t": 71815.08524999957,
      "d": 102.73974999999336,
      "v": 72
    },
    {
      "midi": 39,
      "hit": false,
      "t": 71914.40034166575,
      "d": 154.10962499999732,
      "v": 107
    },
    {
      "midi": 54,
      "hit": false,
      "t": 71914.40034166657,
      "d": 102.73974999999336,
      "v": 95
    },
    {
      "midi": 59,
      "hit": false,
      "t": 71914.40034166657,
      "d": 102.73974999999336,
      "v": 63
    },
    {
      "midi": 66,
      "hit": false,
      "t": 71914.40034166657,
      "d": 109.58906666666735,
      "v": 110
    },
    {
      "midi": 71,
      "hit": false,
      "t": 71914.40034166657,
      "d": 123.28770000000077,
      "v": 110
    },
    {
      "midi": 63,
      "hit": false,
      "t": 71914.40034166657,
      "d": 126.71235833333049,
      "v": 100
    },
    {
      "midi": 74,
      "hit": false,
      "t": 71914.40034166657,
      "d": 136.9863333333342,
      "v": 105
    },
    {
      "midi": 109,
      "hit": false,
      "t": 71914.40034166661,
      "d": 51.36987500000396,
      "v": 127
    },
    {
      "midi": 70,
      "hit": false,
      "t": 71917.8249999986,
      "d": 51.36987500000396,
      "v": 60
    },
    {
      "midi": 69,
      "hit": false,
      "t": 71917.8249999986,
      "d": 51.36987500000396,
      "v": 50
    },
    {
      "midi": 38,
      "hit": false,
      "t": 71917.82499999936,
      "d": 51.36987500000396,
      "v": 88
    },
    {
      "midi": 40,
      "hit": false,
      "t": 71917.82499999936,
      "d": 51.36987500000396,
      "v": 88
    },
    {
      "midi": 36,
      "hit": false,
      "t": 71917.8249999996,
      "d": 51.36987500000396,
      "v": 107
    },
    {
      "midi": 13,
      "hit": false,
      "t": 71917.8249999996,
      "d": 51.36987500000396,
      "v": 127
    },
    {
      "midi": 66,
      "hit": false,
      "t": 71917.82499999991,
      "d": 109.58906666666735,
      "v": 110
    },
    {
      "midi": 71,
      "hit": false,
      "t": 71917.82499999991,
      "d": 123.28770000000077,
      "v": 110
    },
    {
      "midi": 63,
      "hit": false,
      "t": 71917.82499999991,
      "d": 126.71235833333049,
      "v": 100
    },
    {
      "midi": 74,
      "hit": false,
      "t": 71917.82499999991,
      "d": 136.9863333333342,
      "v": 105
    },
    {
      "midi": 66,
      "hit": false,
      "t": 71917.82499999991,
      "d": 109.58906666666735,
      "v": 110
    },
    {
      "midi": 71,
      "hit": false,
      "t": 71917.82499999991,
      "d": 123.28770000000077,
      "v": 110
    },
    {
      "midi": 63,
      "hit": false,
      "t": 71917.82499999991,
      "d": 126.71235833333049,
      "v": 100
    },
    {
      "midi": 74,
      "hit": false,
      "t": 71917.82499999991,
      "d": 136.9863333333342,
      "v": 105
    },
    {
      "midi": 42,
      "hit": false,
      "t": 71917.82499999998,
      "d": 102.73974999999336,
      "v": 107
    },
    {
      "midi": 70,
      "hit": false,
      "t": 72020.56474999861,
      "d": 51.36987500000396,
      "v": 49
    },
    {
      "midi": 69,
      "hit": false,
      "t": 72020.56474999861,
      "d": 51.36987500000396,
      "v": 39
    },
    {
      "midi": 71,
      "hit": false,
      "t": 72020.56474999955,
      "d": 102.73974999999336,
      "v": 34
    },
    {
      "midi": 63,
      "hit": false,
      "t": 72020.56474999955,
      "d": 102.73974999999336,
      "v": 37
    },
    {
      "midi": 66,
      "hit": false,
      "t": 72020.56474999955,
      "d": 102.73974999999336,
      "v": 49
    },
    {
      "midi": 71,
      "hit": false,
      "t": 72119.87984166514,
      "d": 133.56167500000447,
      "v": 116
    },
    {
      "midi": 51,
      "hit": false,
      "t": 72119.87984166575,
      "d": 51.36987500000396,
      "v": 107
    },
    {
      "midi": 63,
      "hit": false,
      "t": 72119.87984166614,
      "d": 205.47950000000128,
      "v": 117
    },
    {
      "midi": 71,
      "hit": false,
      "t": 72119.87984166614,
      "d": 205.47950000000128,
      "v": 109
    },
    {
      "midi": 66,
      "hit": false,
      "t": 72119.87984166614,
      "d": 205.47950000000128,
      "v": 116
    },
    {
      "midi": 54,
      "hit": false,
      "t": 72119.87984166655,
      "d": 102.73974999999336,
      "v": 78
    },
    {
      "midi": 59,
      "hit": false,
      "t": 72119.87984166655,
      "d": 102.73974999999336,
      "v": 47
    },
    {
      "midi": 70,
      "hit": false,
      "t": 72123.30449999862,
      "d": 51.36987500000396,
      "v": 109
    },
    {
      "midi": 69,
      "hit": false,
      "t": 72123.30449999862,
      "d": 51.36987500000396,
      "v": 99
    },
    {
      "midi": 71,
      "hit": false,
      "t": 72123.30449999955,
      "d": 102.73974999999336,
      "v": 91
    },
    {
      "midi": 66,
      "hit": false,
      "t": 72123.30449999955,
      "d": 102.73974999999336,
      "v": 118
    },
    {
      "midi": 63,
      "hit": false,
      "t": 72123.30449999955,
      "d": 102.73974999999336,
      "v": 98
    },
    {
      "midi": 46,
      "hit": false,
      "t": 72123.30450000006,
      "d": 205.47950000000128,
      "v": 107
    },
    {
      "midi": 51,
      "hit": false,
      "t": 72222.61959166576,
      "d": 51.36987500000396,
      "v": 107
    },
    {
      "midi": 70,
      "hit": false,
      "t": 72226.04424999862,
      "d": 51.36987500000396,
      "v": 53
    },
    {
      "midi": 69,
      "hit": false,
      "t": 72226.04424999862,
      "d": 51.36987500000396,
      "v": 43
    },
    {
      "midi": 38,
      "hit": false,
      "t": 72226.04424999937,
      "d": 51.36987500000396,
      "v": 88
    },
    {
      "midi": 40,
      "hit": false,
      "t": 72226.04424999937,
      "d": 51.36987500000396,
      "v": 88
    },
    {
      "midi": 67,
      "hit": false,
      "t": 72325.35934166514,
      "d": 410.958999999988,
      "v": 101
    },
    {
      "midi": 40,
      "hit": false,
      "t": 72325.35934166577,
      "d": 154.10962499999732,
      "v": 107
    },
    {
      "midi": 67,
      "hit": false,
      "t": 72325.35934166615,
      "d": 513.6987499999959,
      "v": 113
    },
    {
      "midi": 71,
      "hit": false,
      "t": 72325.35934166615,
      "d": 616.4384999999893,
      "v": 119
    },
    {
      "midi": 64,
      "hit": false,
      "t": 72325.35934166615,
      "d": 616.4384999999893,
      "v": 119
    },
    {
      "midi": 59,
      "hit": false,
      "t": 72325.35934166654,
      "d": 102.73974999999336,
      "v": 55
    },
    {
      "midi": 52,
      "hit": false,
      "t": 72325.35934166654,
      "d": 102.73974999999336,
      "v": 78
    },
    {
      "midi": 67,
      "hit": false,
      "t": 72325.35934166657,
      "d": 253.42471666666097,
      "v": 122
    },
    {
      "midi": 64,
      "hit": false,
      "t": 72325.35934166657,
      "d": 253.42471666666097,
      "v": 122
    },
    {
      "midi": 59,
      "hit": false,
      "t": 72325.35934166657,
      "d": 260.2740333333204,
      "v": 100
    },
    {
      "midi": 71,
      "hit": false,
      "t": 72325.35934166657,
      "d": 263.6986916666501,
      "v": 100
    },
    {
      "midi": 70,
      "hit": false,
      "t": 72328.78399999863,
      "d": 51.36987500000396,
      "v": 60
    },
    {
      "midi": 69,
      "hit": false,
      "t": 72328.78399999863,
      "d": 51.36987500000396,
      "v": 50
    },
    {
      "midi": 64,
      "hit": false,
      "t": 72328.78399999953,
      "d": 102.73974999999336,
      "v": 47
    },
    {
      "midi": 67,
      "hit": false,
      "t": 72328.78399999953,
      "d": 102.73974999999336,
      "v": 57
    },
    {
      "midi": 71,
      "hit": false,
      "t": 72328.78399999953,
      "d": 102.73974999999336,
      "v": 44
    },
    {
      "midi": 36,
      "hit": false,
      "t": 72328.7839999996,
      "d": 51.36987500000396,
      "v": 107
    },
    {
      "midi": 13,
      "hit": false,
      "t": 72328.7839999996,
      "d": 51.36987500000396,
      "v": 127
    },
    {
      "midi": 67,
      "hit": false,
      "t": 72328.78399999991,
      "d": 253.42471666666097,
      "v": 122
    },
    {
      "midi": 64,
      "hit": false,
      "t": 72328.78399999991,
      "d": 253.42471666666097,
      "v": 122
    },
    {
      "midi": 59,
      "hit": false,
      "t": 72328.78399999991,
      "d": 260.2740333333204,
      "v": 100
    },
    {
      "midi": 71,
      "hit": false,
      "t": 72328.78399999991,
      "d": 263.6986916666501,
      "v": 100
    },
    {
      "midi": 67,
      "hit": false,
      "t": 72328.78399999991,
      "d": 253.42471666666097,
      "v": 122
    },
    {
      "midi": 64,
      "hit": false,
      "t": 72328.78399999991,
      "d": 253.42471666666097,
      "v": 122
    },
    {
      "midi": 59,
      "hit": false,
      "t": 72328.78399999991,
      "d": 260.2740333333204,
      "v": 100
    },
    {
      "midi": 71,
      "hit": false,
      "t": 72328.78399999991,
      "d": 263.6986916666501,
      "v": 100
    },
    {
      "midi": 88,
      "hit": false,
      "t": 72328.78399999996,
      "d": 407.53434166667284,
      "v": 101
    },
    {
      "midi": 76,
      "hit": false,
      "t": 72328.78399999996,
      "d": 407.53434166667284,
      "v": 88
    },
    {
      "midi": 42,
      "hit": false,
      "t": 72328.78399999997,
      "d": 102.73974999999336,
      "v": 102
    },
    {
      "midi": 59,
      "hit": false,
      "t": 72328.78400000009,
      "d": 821.9180000000051,
      "v": 80
    },
    {
      "midi": 67,
      "hit": false,
      "t": 72328.78400000009,
      "d": 821.9180000000051,
      "v": 80
    },
    {
      "midi": 64,
      "hit": false,
      "t": 72328.78400000009,
      "d": 821.9180000000051,
      "v": 80
    },
    {
      "midi": 70,
      "hit": false,
      "t": 72431.52374999864,
      "d": 51.36987500000396,
      "v": 49
    },
    {
      "midi": 69,
      "hit": false,
      "t": 72431.52374999864,
      "d": 51.36987500000396,
      "v": 39
    },
    {
      "midi": 38,
      "hit": false,
      "t": 72431.52374999937,
      "d": 51.36987500000396,
      "v": 69
    },
    {
      "midi": 40,
      "hit": false,
      "t": 72431.52374999937,
      "d": 51.36987500000396,
      "v": 69
    },
    {
      "midi": 67,
      "hit": false,
      "t": 72431.52374999953,
      "d": 102.73974999999336,
      "v": 112
    },
    {
      "midi": 71,
      "hit": false,
      "t": 72431.52374999953,
      "d": 102.73974999999336,
      "v": 77
    },
    {
      "midi": 64,
      "hit": false,
      "t": 72431.52374999953,
      "d": 102.73974999999336,
      "v": 98
    },
    {
      "midi": 52,
      "hit": false,
      "t": 72530.83884166577,
      "d": 51.36987500000396,
      "v": 107
    },
    {
      "midi": 59,
      "hit": false,
      "t": 72530.83884166653,
      "d": 102.73974999999336,
      "v": 55
    },
    {
      "midi": 52,
      "hit": false,
      "t": 72530.83884166653,
      "d": 102.73974999999336,
      "v": 63
    },
    {
      "midi": 70,
      "hit": false,
      "t": 72534.26349999865,
      "d": 51.36987500000396,
      "v": 109
    },
    {
      "midi": 69,
      "hit": false,
      "t": 72534.26349999865,
      "d": 51.36987500000396,
      "v": 99
    },
    {
      "midi": 46,
      "hit": false,
      "t": 72534.26350000006,
      "d": 102.73974999999336,
      "v": 107
    },
    {
      "midi": 52,
      "hit": false,
      "t": 72633.57859166578,
      "d": 51.36987500000396,
      "v": 107
    },
    {
      "midi": 64,
      "hit": false,
      "t": 72633.57859166655,
      "d": 89.04111666665995,
      "v": 122
    },
    {
      "midi": 59,
      "hit": false,
      "t": 72633.57859166655,
      "d": 89.04111666665995,
      "v": 115
    },
    {
      "midi": 67,
      "hit": false,
      "t": 72633.57859166655,
      "d": 92.46577499998966,
      "v": 122
    },
    {
      "midi": 71,
      "hit": false,
      "t": 72633.57859166655,
      "d": 99.3150916666491,
      "v": 115
    },
    {
      "midi": 70,
      "hit": false,
      "t": 72637.00324999866,
      "d": 51.36987500000396,
      "v": 53
    },
    {
      "midi": 69,
      "hit": false,
      "t": 72637.00324999866,
      "d": 51.36987500000396,
      "v": 43
    },
    {
      "midi": 71,
      "hit": false,
      "t": 72637.00324999951,
      "d": 102.73974999999336,
      "v": 36
    },
    {
      "midi": 67,
      "hit": false,
      "t": 72637.00324999951,
      "d": 102.73974999999336,
      "v": 54
    },
    {
      "midi": 64,
      "hit": false,
      "t": 72637.00324999951,
      "d": 102.73974999999336,
      "v": 47
    },
    {
      "midi": 64,
      "hit": false,
      "t": 72637.00324999989,
      "d": 89.04111666665995,
      "v": 122
    },
    {
      "midi": 59,
      "hit": false,
      "t": 72637.00324999989,
      "d": 89.04111666665995,
      "v": 115
    },
    {
      "midi": 67,
      "hit": false,
      "t": 72637.00324999989,
      "d": 92.46577499998966,
      "v": 122
    },
    {
      "midi": 71,
      "hit": false,
      "t": 72637.00324999989,
      "d": 99.3150916666491,
      "v": 115
    },
    {
      "midi": 64,
      "hit": false,
      "t": 72637.00324999989,
      "d": 89.04111666665995,
      "v": 122
    },
    {
      "midi": 59,
      "hit": false,
      "t": 72637.00324999989,
      "d": 89.04111666665995,
      "v": 115
    },
    {
      "midi": 67,
      "hit": false,
      "t": 72637.00324999989,
      "d": 92.46577499998966,
      "v": 122
    },
    {
      "midi": 71,
      "hit": false,
      "t": 72637.00324999989,
      "d": 99.3150916666491,
      "v": 115
    },
    {
      "midi": 40,
      "hit": false,
      "t": 72736.31834166578,
      "d": 154.10962499999732,
      "v": 107
    },
    {
      "midi": 59,
      "hit": false,
      "t": 72736.31834166651,
      "d": 410.95900000000256,
      "v": 78
    },
    {
      "midi": 52,
      "hit": false,
      "t": 72736.31834166651,
      "d": 410.95900000000256,
      "v": 95
    },
    {
      "midi": 109,
      "hit": false,
      "t": 72736.31834166661,
      "d": 51.36987500000396,
      "v": 127
    },
    {
      "midi": 70,
      "hit": false,
      "t": 72739.74299999866,
      "d": 51.36987500000396,
      "v": 60
    },
    {
      "midi": 69,
      "hit": false,
      "t": 72739.74299999866,
      "d": 51.36987500000396,
      "v": 50
    },
    {
      "midi": 38,
      "hit": false,
      "t": 72739.74299999938,
      "d": 51.36987500000396,
      "v": 88
    },
    {
      "midi": 40,
      "hit": false,
      "t": 72739.74299999938,
      "d": 51.36987500000396,
      "v": 88
    },
    {
      "midi": 64,
      "hit": false,
      "t": 72739.74299999951,
      "d": 205.47950000000128,
      "v": 91
    },
    {
      "midi": 71,
      "hit": false,
      "t": 72739.74299999951,
      "d": 205.47950000000128,
      "v": 85
    },
    {
      "midi": 67,
      "hit": false,
      "t": 72739.74299999951,
      "d": 205.47950000000128,
      "v": 118
    },
    {
      "midi": 36,
      "hit": false,
      "t": 72739.74299999961,
      "d": 51.36987500000396,
      "v": 107
    },
    {
      "midi": 13,
      "hit": false,
      "t": 72739.74299999961,
      "d": 51.36987500000396,
      "v": 127
    },
    {
      "midi": 90,
      "hit": false,
      "t": 72739.74299999996,
      "d": 407.53434166667284,
      "v": 105
    },
    {
      "midi": 78,
      "hit": false,
      "t": 72739.74299999996,
      "d": 407.53434166667284,
      "v": 92
    },
    {
      "midi": 42,
      "hit": false,
      "t": 72739.74299999996,
      "d": 102.73974999999336,
      "v": 107
    },
    {
      "midi": 70,
      "hit": false,
      "t": 72842.48274999867,
      "d": 51.36987500000396,
      "v": 49
    },
    {
      "midi": 69,
      "hit": false,
      "t": 72842.48274999867,
      "d": 51.36987500000396,
      "v": 39
    },
    {
      "midi": 62,
      "hit": false,
      "t": 72941.79784166515,
      "d": 75.34248333332653,
      "v": 76
    },
    {
      "midi": 52,
      "hit": false,
      "t": 72941.79784166579,
      "d": 51.36987500000396,
      "v": 107
    },
    {
      "midi": 70,
      "hit": false,
      "t": 72945.22249999868,
      "d": 51.36987500000396,
      "v": 109
    },
    {
      "midi": 69,
      "hit": false,
      "t": 72945.22249999868,
      "d": 51.36987500000396,
      "v": 99
    },
    {
      "midi": 38,
      "hit": false,
      "t": 72945.22249999938,
      "d": 51.36987500000396,
      "v": 68
    },
    {
      "midi": 40,
      "hit": false,
      "t": 72945.22249999938,
      "d": 51.36987500000396,
      "v": 68
    },
    {
      "midi": 71,
      "hit": false,
      "t": 72945.22249999951,
      "d": 102.73974999999336,
      "v": 44
    },
    {
      "midi": 67,
      "hit": false,
      "t": 72945.22249999951,
      "d": 102.73974999999336,
      "v": 57
    },
    {
      "midi": 64,
      "hit": false,
      "t": 72945.22249999951,
      "d": 102.73974999999336,
      "v": 44
    },
    {
      "midi": 46,
      "hit": false,
      "t": 72945.22250000005,
      "d": 102.73974999999336,
      "v": 107
    },
    {
      "midi": 62,
      "hit": false,
      "t": 73044.53759166514,
      "d": 123.28769999998622,
      "v": 76
    },
    {
      "midi": 52,
      "hit": false,
      "t": 73044.5375916658,
      "d": 51.36987500000396,
      "v": 107
    },
    {
      "midi": 70,
      "hit": false,
      "t": 73047.96224999869,
      "d": 51.36987500000396,
      "v": 53
    },
    {
      "midi": 69,
      "hit": false,
      "t": 73047.96224999869,
      "d": 51.36987500000396,
      "v": 43
    },
    {
      "midi": 38,
      "hit": false,
      "t": 73047.96224999939,
      "d": 51.36987500000396,
      "v": 52
    },
    {
      "midi": 40,
      "hit": false,
      "t": 73047.96224999939,
      "d": 51.36987500000396,
      "v": 52
    },
    {
      "midi": 67,
      "hit": false,
      "t": 73047.9622499995,
      "d": 51.36987500000396,
      "v": 118
    },
    {
      "midi": 64,
      "hit": false,
      "t": 73047.9622499995,
      "d": 51.36987500000396,
      "v": 91
    },
    {
      "midi": 71,
      "hit": false,
      "t": 73047.9622499995,
      "d": 51.36987500000396,
      "v": 91
    },
    {
      "midi": 64,
      "hit": false,
      "t": 73147.27734166513,
      "d": 359.58912499998405,
      "v": 103
    },
    {
      "midi": 33,
      "hit": false,
      "t": 73147.2773416658,
      "d": 154.10962499999732,
      "v": 107
    },
    {
      "midi": 64,
      "hit": false,
      "t": 73147.27734166614,
      "d": 1643.8359999999957,
      "v": 117
    },
    {
      "midi": 72,
      "hit": false,
      "t": 73147.27734166614,
      "d": 1643.8359999999957,
      "v": 111
    },
    {
      "midi": 69,
      "hit": false,
      "t": 73147.27734166614,
      "d": 1643.8359999999957,
      "v": 115
    },
    {
      "midi": 57,
      "hit": false,
      "t": 73147.27734166651,
      "d": 102.73974999999336,
      "v": 65
    },
    {
      "midi": 52,
      "hit": false,
      "t": 73147.27734166651,
      "d": 102.73974999999336,
      "v": 90
    },
    {
      "midi": 70,
      "hit": false,
      "t": 73150.7019999987,
      "d": 51.36987500000396,
      "v": 60
    },
    {
      "midi": 69,
      "hit": false,
      "t": 73150.7019999987,
      "d": 51.36987500000396,
      "v": 50
    },
    {
      "midi": 38,
      "hit": false,
      "t": 73150.7019999994,
      "d": 51.36987500000396,
      "v": 63
    },
    {
      "midi": 40,
      "hit": false,
      "t": 73150.7019999994,
      "d": 51.36987500000396,
      "v": 64
    },
    {
      "midi": 67,
      "hit": false,
      "t": 73150.70199999951,
      "d": 205.47949999998673,
      "v": 88
    },
    {
      "midi": 64,
      "hit": false,
      "t": 73150.70199999951,
      "d": 205.47949999998673,
      "v": 107
    },
    {
      "midi": 60,
      "hit": false,
      "t": 73150.70199999951,
      "d": 205.47949999998673,
      "v": 70
    },
    {
      "midi": 36,
      "hit": false,
      "t": 73150.70199999961,
      "d": 51.36987500000396,
      "v": 107
    },
    {
      "midi": 13,
      "hit": false,
      "t": 73150.70199999961,
      "d": 51.36987500000396,
      "v": 127
    },
    {
      "midi": 42,
      "hit": false,
      "t": 73150.70199999995,
      "d": 102.73974999999336,
      "v": 107
    },
    {
      "midi": 91,
      "hit": false,
      "t": 73150.70199999996,
      "d": 1626.7127083333326,
      "v": 108
    },
    {
      "midi": 79,
      "hit": false,
      "t": 73150.70199999996,
      "d": 1626.7127083333326,
      "v": 94
    },
    {
      "midi": 60,
      "hit": false,
      "t": 73150.70200000009,
      "d": 1643.8359999999957,
      "v": 80
    },
    {
      "midi": 69,
      "hit": false,
      "t": 73150.70200000009,
      "d": 1643.8359999999957,
      "v": 80
    },
    {
      "midi": 64,
      "hit": false,
      "t": 73150.70200000009,
      "d": 1643.8359999999957,
      "v": 80
    },
    {
      "midi": 70,
      "hit": false,
      "t": 73253.4417499987,
      "d": 51.36987500000396,
      "v": 49
    },
    {
      "midi": 69,
      "hit": false,
      "t": 73253.4417499987,
      "d": 51.36987500000396,
      "v": 39
    },
    {
      "midi": 45,
      "hit": false,
      "t": 73352.7568416658,
      "d": 51.36987500000396,
      "v": 107
    },
    {
      "midi": 52,
      "hit": false,
      "t": 73352.7568416665,
      "d": 102.73974999999336,
      "v": 75
    },
    {
      "midi": 57,
      "hit": false,
      "t": 73352.7568416665,
      "d": 102.73974999999336,
      "v": 49
    },
    {
      "midi": 70,
      "hit": false,
      "t": 73356.18149999871,
      "d": 51.36987500000396,
      "v": 109
    },
    {
      "midi": 69,
      "hit": false,
      "t": 73356.18149999871,
      "d": 51.36987500000396,
      "v": 99
    },
    {
      "midi": 46,
      "hit": false,
      "t": 73356.18150000004,
      "d": 102.73974999999336,
      "v": 107
    },
    {
      "midi": 45,
      "hit": false,
      "t": 73455.49659166581,
      "d": 51.36987500000396,
      "v": 107
    },
    {
      "midi": 70,
      "hit": false,
      "t": 73458.92124999872,
      "d": 51.36987500000396,
      "v": 53
    },
    {
      "midi": 69,
      "hit": false,
      "t": 73458.92124999872,
      "d": 51.36987500000396,
      "v": 43
    },
    {
      "midi": 67,
      "hit": false,
      "t": 73458.92124999949,
      "d": 102.73974999999336,
      "v": 85
    },
    {
      "midi": 60,
      "hit": false,
      "t": 73458.92124999949,
      "d": 102.73974999999336,
      "v": 77
    },
    {
      "midi": 64,
      "hit": false,
      "t": 73458.92124999949,
      "d": 102.73974999999336,
      "v": 102
    },
    {
      "midi": 67,
      "hit": false,
      "t": 73558.23634166514,
      "d": 380.13707499999146,
      "v": 115
    },
    {
      "midi": 33,
      "hit": false,
      "t": 73558.23634166582,
      "d": 154.10962499999732,
      "v": 107
    },
    {
      "midi": 57,
      "hit": false,
      "t": 73558.23634166649,
      "d": 102.73974999999336,
      "v": 33
    },
    {
      "midi": 52,
      "hit": false,
      "t": 73558.23634166649,
      "d": 102.73974999999336,
      "v": 47
    },
    {
      "midi": 109,
      "hit": false,
      "t": 73558.23634166662,
      "d": 51.36987500000396,
      "v": 127
    },
    {
      "midi": 70,
      "hit": false,
      "t": 73561.66099999873,
      "d": 51.36987500000396,
      "v": 60
    },
    {
      "midi": 69,
      "hit": false,
      "t": 73561.66099999873,
      "d": 51.36987500000396,
      "v": 50
    },
    {
      "midi": 38,
      "hit": false,
      "t": 73561.6609999994,
      "d": 51.36987500000396,
      "v": 88
    },
    {
      "midi": 40,
      "hit": false,
      "t": 73561.6609999994,
      "d": 51.36987500000396,
      "v": 88
    },
    {
      "midi": 36,
      "hit": false,
      "t": 73561.66099999961,
      "d": 51.36987500000396,
      "v": 107
    },
    {
      "midi": 13,
      "hit": false,
      "t": 73561.66099999961,
      "d": 51.36987500000396,
      "v": 127
    },
    {
      "midi": 42,
      "hit": false,
      "t": 73561.66099999993,
      "d": 102.73974999999336,
      "v": 107
    },
    {
      "midi": 70,
      "hit": false,
      "t": 73664.40074999873,
      "d": 51.36987500000396,
      "v": 49
    },
    {
      "midi": 69,
      "hit": false,
      "t": 73664.40074999873,
      "d": 51.36987500000396,
      "v": 39
    },
    {
      "midi": 67,
      "hit": false,
      "t": 73664.40074999948,
      "d": 102.73974999999336,
      "v": 41
    },
    {
      "midi": 60,
      "hit": false,
      "t": 73664.40074999948,
      "d": 102.73974999999336,
      "v": 36
    },
    {
      "midi": 64,
      "hit": false,
      "t": 73664.40074999948,
      "d": 102.73974999999336,
      "v": 49
    },
    {
      "midi": 45,
      "hit": false,
      "t": 73763.71584166582,
      "d": 51.36987500000396,
      "v": 107
    },
    {
      "midi": 52,
      "hit": false,
      "t": 73763.71584166648,
      "d": 102.73974999999336,
      "v": 121
    },
    {
      "midi": 57,
      "hit": false,
      "t": 73763.71584166648,
      "d": 102.73974999999336,
      "v": 71
    },
    {
      "midi": 69,
      "hit": false,
      "t": 73763.71584166653,
      "d": 65.06850833333738,
      "v": 122
    },
    {
      "midi": 64,
      "hit": false,
      "t": 73763.71584166653,
      "d": 65.06850833333738,
      "v": 99
    },
    {
      "midi": 70,
      "hit": false,
      "t": 73767.14049999874,
      "d": 51.36987500000396,
      "v": 109
    },
    {
      "midi": 69,
      "hit": false,
      "t": 73767.14049999874,
      "d": 51.36987500000396,
      "v": 99
    },
    {
      "midi": 60,
      "hit": false,
      "t": 73767.14049999947,
      "d": 102.73974999999336,
      "v": 88
    },
    {
      "midi": 64,
      "hit": false,
      "t": 73767.14049999947,
      "d": 102.73974999999336,
      "v": 107
    },
    {
      "midi": 67,
      "hit": false,
      "t": 73767.14049999947,
      "d": 102.73974999999336,
      "v": 94
    },
    {
      "midi": 69,
      "hit": false,
      "t": 73767.14049999988,
      "d": 65.06850833333738,
      "v": 122
    },
    {
      "midi": 64,
      "hit": false,
      "t": 73767.14049999988,
      "d": 65.06850833333738,
      "v": 99
    },
    {
      "midi": 69,
      "hit": false,
      "t": 73767.14049999988,
      "d": 65.06850833333738,
      "v": 122
    },
    {
      "midi": 64,
      "hit": false,
      "t": 73767.14049999988,
      "d": 65.06850833333738,
      "v": 99
    },
    {
      "midi": 46,
      "hit": false,
      "t": 73767.14050000002,
      "d": 205.47950000000128,
      "v": 107
    },
    {
      "midi": 45,
      "hit": false,
      "t": 73866.45559166583,
      "d": 51.36987500000396,
      "v": 107
    },
    {
      "midi": 70,
      "hit": false,
      "t": 73869.88024999875,
      "d": 51.36987500000396,
      "v": 53
    },
    {
      "midi": 69,
      "hit": false,
      "t": 73869.88024999875,
      "d": 51.36987500000396,
      "v": 43
    },
    {
      "midi": 38,
      "hit": false,
      "t": 73869.8802499994,
      "d": 51.36987500000396,
      "v": 88
    },
    {
      "midi": 40,
      "hit": false,
      "t": 73869.8802499994,
      "d": 51.36987500000396,
      "v": 88
    },
    {
      "midi": 71,
      "hit": false,
      "t": 73969.19534166514,
      "d": 791.0960750000086,
      "v": 127
    },
    {
      "midi": 33,
      "hit": false,
      "t": 73969.19534166584,
      "d": 154.10962499999732,
      "v": 107
    },
    {
      "midi": 57,
      "hit": false,
      "t": 73969.19534166646,
      "d": 102.73974999999336,
      "v": 58
    },
    {
      "midi": 52,
      "hit": false,
      "t": 73969.19534166646,
      "d": 102.73974999999336,
      "v": 65
    },
    {
      "midi": 69,
      "hit": false,
      "t": 73969.19534166653,
      "d": 311.6439083332807,
      "v": 106
    },
    {
      "midi": 64,
      "hit": false,
      "t": 73969.19534166653,
      "d": 311.6439083332807,
      "v": 82
    },
    {
      "midi": 70,
      "hit": false,
      "t": 73972.61999999876,
      "d": 51.36987500000396,
      "v": 60
    },
    {
      "midi": 69,
      "hit": false,
      "t": 73972.61999999876,
      "d": 51.36987500000396,
      "v": 50
    },
    {
      "midi": 67,
      "hit": false,
      "t": 73972.61999999946,
      "d": 102.73974999999336,
      "v": 45
    },
    {
      "midi": 60,
      "hit": false,
      "t": 73972.61999999946,
      "d": 102.73974999999336,
      "v": 42
    },
    {
      "midi": 64,
      "hit": false,
      "t": 73972.61999999946,
      "d": 102.73974999999336,
      "v": 52
    },
    {
      "midi": 36,
      "hit": false,
      "t": 73972.61999999962,
      "d": 51.36987500000396,
      "v": 107
    },
    {
      "midi": 13,
      "hit": false,
      "t": 73972.61999999962,
      "d": 51.36987500000396,
      "v": 127
    },
    {
      "midi": 69,
      "hit": false,
      "t": 73972.61999999988,
      "d": 311.6439083332807,
      "v": 106
    },
    {
      "midi": 64,
      "hit": false,
      "t": 73972.61999999988,
      "d": 311.6439083332807,
      "v": 82
    },
    {
      "midi": 69,
      "hit": false,
      "t": 73972.61999999988,
      "d": 311.6439083332807,
      "v": 106
    },
    {
      "midi": 64,
      "hit": false,
      "t": 73972.61999999988,
      "d": 311.6439083332807,
      "v": 82
    },
    {
      "midi": 42,
      "hit": false,
      "t": 73972.61999999992,
      "d": 102.73974999999336,
      "v": 102
    },
    {
      "midi": 70,
      "hit": false,
      "t": 74075.35974999877,
      "d": 51.36987500000396,
      "v": 49
    },
    {
      "midi": 69,
      "hit": false,
      "t": 74075.35974999877,
      "d": 51.36987500000396,
      "v": 39
    },
    {
      "midi": 38,
      "hit": false,
      "t": 74075.3597499994,
      "d": 51.36987500000396,
      "v": 69
    },
    {
      "midi": 40,
      "hit": false,
      "t": 74075.3597499994,
      "d": 51.36987500000396,
      "v": 69
    },
    {
      "midi": 67,
      "hit": false,
      "t": 74075.35974999945,
      "d": 513.6987499999959,
      "v": 102
    },
    {
      "midi": 60,
      "hit": false,
      "t": 74075.35974999945,
      "d": 513.6987499999959,
      "v": 102
    },
    {
      "midi": 64,
      "hit": false,
      "t": 74075.35974999945,
      "d": 513.6987499999959,
      "v": 112
    },
    {
      "midi": 45,
      "hit": false,
      "t": 74174.67484166584,
      "d": 51.36987500000396,
      "v": 107
    },
    {
      "midi": 57,
      "hit": false,
      "t": 74174.67484166645,
      "d": 102.73974999999336,
      "v": 41
    },
    {
      "midi": 52,
      "hit": false,
      "t": 74174.67484166645,
      "d": 102.73974999999336,
      "v": 49
    },
    {
      "midi": 70,
      "hit": false,
      "t": 74178.09949999877,
      "d": 51.36987500000396,
      "v": 109
    },
    {
      "midi": 69,
      "hit": false,
      "t": 74178.09949999877,
      "d": 51.36987500000396,
      "v": 99
    },
    {
      "midi": 46,
      "hit": false,
      "t": 74178.09950000003,
      "d": 102.73974999999336,
      "v": 107
    },
    {
      "midi": 45,
      "hit": false,
      "t": 74277.41459166585,
      "d": 51.36987500000396,
      "v": 107
    },
    {
      "midi": 66,
      "hit": false,
      "t": 74277.41459166649,
      "d": 318.49322499999835,
      "v": 85
    },
    {
      "midi": 71,
      "hit": false,
      "t": 74277.41459166649,
      "d": 318.49322499999835,
      "v": 111
    },
    {
      "midi": 70,
      "hit": false,
      "t": 74280.83924999878,
      "d": 51.36987500000396,
      "v": 53
    },
    {
      "midi": 69,
      "hit": false,
      "t": 74280.83924999878,
      "d": 51.36987500000396,
      "v": 43
    },
    {
      "midi": 66,
      "hit": false,
      "t": 74280.83924999983,
      "d": 318.49322499999835,
      "v": 85
    },
    {
      "midi": 71,
      "hit": false,
      "t": 74280.83924999983,
      "d": 318.49322499999835,
      "v": 111
    },
    {
      "midi": 66,
      "hit": false,
      "t": 74280.83924999983,
      "d": 318.49322499999835,
      "v": 85
    },
    {
      "midi": 71,
      "hit": false,
      "t": 74280.83924999983,
      "d": 318.49322499999835,
      "v": 111
    },
    {
      "midi": 33,
      "hit": false,
      "t": 74380.15434166585,
      "d": 154.10962499999732,
      "v": 107
    },
    {
      "midi": 57,
      "hit": false,
      "t": 74380.15434166644,
      "d": 102.73974999999336,
      "v": 49
    },
    {
      "midi": 52,
      "hit": false,
      "t": 74380.15434166644,
      "d": 102.73974999999336,
      "v": 55
    },
    {
      "midi": 109,
      "hit": false,
      "t": 74380.15434166662,
      "d": 51.36987500000396,
      "v": 127
    },
    {
      "midi": 70,
      "hit": false,
      "t": 74383.57899999879,
      "d": 51.36987500000396,
      "v": 60
    },
    {
      "midi": 69,
      "hit": false,
      "t": 74383.57899999879,
      "d": 51.36987500000396,
      "v": 50
    },
    {
      "midi": 38,
      "hit": false,
      "t": 74383.57899999942,
      "d": 51.36987500000396,
      "v": 88
    },
    {
      "midi": 40,
      "hit": false,
      "t": 74383.57899999942,
      "d": 51.36987500000396,
      "v": 88
    },
    {
      "midi": 36,
      "hit": false,
      "t": 74383.57899999962,
      "d": 51.36987500000396,
      "v": 107
    },
    {
      "midi": 13,
      "hit": false,
      "t": 74383.57899999962,
      "d": 51.36987500000396,
      "v": 127
    },
    {
      "midi": 42,
      "hit": false,
      "t": 74383.57899999991,
      "d": 102.73974999999336,
      "v": 107
    },
    {
      "midi": 70,
      "hit": false,
      "t": 74486.3187499988,
      "d": 51.36987500000396,
      "v": 49
    },
    {
      "midi": 69,
      "hit": false,
      "t": 74486.3187499988,
      "d": 51.36987500000396,
      "v": 39
    },
    {
      "midi": 45,
      "hit": false,
      "t": 74585.63384166585,
      "d": 51.36987500000396,
      "v": 107
    },
    {
      "midi": 52,
      "hit": false,
      "t": 74585.63384166642,
      "d": 102.73974999999336,
      "v": 127
    },
    {
      "midi": 57,
      "hit": false,
      "t": 74585.63384166642,
      "d": 102.73974999999336,
      "v": 85
    },
    {
      "midi": 67,
      "hit": false,
      "t": 74585.63384166648,
      "d": 85.61645833333023,
      "v": 85
    },
    {
      "midi": 72,
      "hit": false,
      "t": 74585.63384166648,
      "d": 85.61645833333023,
      "v": 122
    },
    {
      "midi": 70,
      "hit": false,
      "t": 74589.0584999988,
      "d": 51.36987500000396,
      "v": 109
    },
    {
      "midi": 69,
      "hit": false,
      "t": 74589.0584999988,
      "d": 51.36987500000396,
      "v": 99
    },
    {
      "midi": 38,
      "hit": false,
      "t": 74589.05849999942,
      "d": 51.36987500000396,
      "v": 68
    },
    {
      "midi": 40,
      "hit": false,
      "t": 74589.05849999942,
      "d": 51.36987500000396,
      "v": 68
    },
    {
      "midi": 60,
      "hit": false,
      "t": 74589.05849999945,
      "d": 102.73974999999336,
      "v": 36
    },
    {
      "midi": 64,
      "hit": false,
      "t": 74589.05849999945,
      "d": 102.73974999999336,
      "v": 49
    },
    {
      "midi": 67,
      "hit": false,
      "t": 74589.05849999945,
      "d": 102.73974999999336,
      "v": 41
    },
    {
      "midi": 67,
      "hit": false,
      "t": 74589.05849999982,
      "d": 85.61645833333023,
      "v": 85
    },
    {
      "midi": 72,
      "hit": false,
      "t": 74589.05849999982,
      "d": 85.61645833333023,
      "v": 122
    },
    {
      "midi": 67,
      "hit": false,
      "t": 74589.05849999982,
      "d": 85.61645833333023,
      "v": 85
    },
    {
      "midi": 72,
      "hit": false,
      "t": 74589.05849999982,
      "d": 85.61645833333023,
      "v": 122
    },
    {
      "midi": 46,
      "hit": false,
      "t": 74589.05850000001,
      "d": 102.73974999999336,
      "v": 107
    },
    {
      "midi": 45,
      "hit": false,
      "t": 74688.37359166586,
      "d": 51.36987500000396,
      "v": 107
    },
    {
      "midi": 70,
      "hit": false,
      "t": 74691.79824999881,
      "d": 51.36987500000396,
      "v": 53
    },
    {
      "midi": 69,
      "hit": false,
      "t": 74691.79824999881,
      "d": 51.36987500000396,
      "v": 43
    },
    {
      "midi": 38,
      "hit": false,
      "t": 74691.79824999943,
      "d": 51.36987500000396,
      "v": 52
    },
    {
      "midi": 40,
      "hit": false,
      "t": 74691.79824999943,
      "d": 51.36987500000396,
      "v": 52
    },
    {
      "midi": 60,
      "hit": false,
      "t": 74691.79824999944,
      "d": 51.36987500000396,
      "v": 63
    },
    {
      "midi": 64,
      "hit": false,
      "t": 74691.79824999944,
      "d": 51.36987500000396,
      "v": 63
    },
    {
      "midi": 67,
      "hit": false,
      "t": 74691.79824999944,
      "d": 51.36987500000396,
      "v": 63
    },
    {
      "midi": 26,
      "hit": false,
      "t": 74791.11334166587,
      "d": 1643.8359999999957,
      "v": 107
    },
    {
      "midi": 57,
      "hit": false,
      "t": 74791.11334166641,
      "d": 1643.8359999999666,
      "v": 71
    },
    {
      "midi": 50,
      "hit": false,
      "t": 74791.11334166641,
      "d": 1643.8359999999666,
      "v": 95
    },
    {
      "midi": 74,
      "hit": false,
      "t": 74791.11334166648,
      "d": 1681.5072416665644,
      "v": 127
    },
    {
      "midi": 69,
      "hit": false,
      "t": 74791.11334166648,
      "d": 1681.5072416665644,
      "v": 115
    },
    {
      "midi": 38,
      "hit": false,
      "t": 74794.53799999943,
      "d": 51.36987500000396,
      "v": 64
    },
    {
      "midi": 40,
      "hit": false,
      "t": 74794.53799999943,
      "d": 51.36987500000396,
      "v": 64
    },
    {
      "midi": 60,
      "hit": false,
      "t": 74794.53799999945,
      "d": 1643.8359999999957,
      "v": 98
    },
    {
      "midi": 64,
      "hit": false,
      "t": 74794.53799999945,
      "d": 1643.8359999999957,
      "v": 118
    },
    {
      "midi": 67,
      "hit": false,
      "t": 74794.53799999945,
      "d": 1643.8359999999957,
      "v": 118
    },
    {
      "midi": 36,
      "hit": false,
      "t": 74794.53799999962,
      "d": 51.36987500000396,
      "v": 107
    },
    {
      "midi": 13,
      "hit": false,
      "t": 74794.53799999962,
      "d": 51.36987500000396,
      "v": 127
    },
    {
      "midi": 74,
      "hit": false,
      "t": 74794.53799999983,
      "d": 1681.5072416665644,
      "v": 127
    },
    {
      "midi": 69,
      "hit": false,
      "t": 74794.53799999983,
      "d": 1681.5072416665644,
      "v": 115
    },
    {
      "midi": 74,
      "hit": false,
      "t": 74794.53799999983,
      "d": 1681.5072416665644,
      "v": 127
    },
    {
      "midi": 69,
      "hit": false,
      "t": 74794.53799999983,
      "d": 1681.5072416665644,
      "v": 115
    },
    {
      "midi": 42,
      "hit": false,
      "t": 74794.5379999999,
      "d": 102.73974999999336,
      "v": 107
    },
    {
      "midi": 86,
      "hit": false,
      "t": 74794.53799999996,
      "d": 1626.7127083333326,
      "v": 97
    },
    {
      "midi": 74,
      "hit": false,
      "t": 74794.53799999996,
      "d": 1626.7127083333326,
      "v": 86
    },
    {
      "midi": 60,
      "hit": false,
      "t": 74794.53800000009,
      "d": 1643.8359999999957,
      "v": 80
    },
    {
      "midi": 67,
      "hit": false,
      "t": 74794.53800000009,
      "d": 1643.8359999999957,
      "v": 80
    },
    {
      "midi": 64,
      "hit": false,
      "t": 74794.53800000009,
      "d": 1643.8359999999957,
      "v": 80
    },
    {
      "midi": 72,
      "hit": false,
      "t": 74996.59284166514,
      "d": 92.46577500000421,
      "v": 127
    },
    {
      "midi": 64,
      "hit": false,
      "t": 74996.59284166612,
      "d": 154.10962499999732,
      "v": 107
    },
    {
      "midi": 67,
      "hit": false,
      "t": 74996.59284166612,
      "d": 154.10962499999732,
      "v": 112
    },
    {
      "midi": 72,
      "hit": false,
      "t": 74996.59284166612,
      "d": 205.47950000000128,
      "v": 125
    },
    {
      "midi": 38,
      "hit": false,
      "t": 75000.01749999943,
      "d": 51.36987500000396,
      "v": 88
    },
    {
      "midi": 40,
      "hit": false,
      "t": 75000.01749999943,
      "d": 51.36987500000396,
      "v": 88
    },
    {
      "midi": 46,
      "hit": false,
      "t": 75000.0175,
      "d": 102.73974999999336,
      "v": 107
    },
    {
      "midi": 71,
      "hit": false,
      "t": 75202.07234166515,
      "d": 215.75347500000498,
      "v": 127
    },
    {
      "midi": 67,
      "hit": false,
      "t": 75202.07234166612,
      "d": 154.10962499999732,
      "v": 112
    },
    {
      "midi": 72,
      "hit": false,
      "t": 75202.07234166612,
      "d": 154.10962499999732,
      "v": 118
    },
    {
      "midi": 64,
      "hit": false,
      "t": 75202.07234166612,
      "d": 154.10962499999732,
      "v": 117
    },
    {
      "midi": 71,
      "hit": false,
      "t": 75202.07234166612,
      "d": 205.47950000000128,
      "v": 127
    },
    {
      "midi": 38,
      "hit": false,
      "t": 75205.49699999944,
      "d": 51.36987500000396,
      "v": 88
    },
    {
      "midi": 40,
      "hit": false,
      "t": 75205.49699999944,
      "d": 51.36987500000396,
      "v": 88
    },
    {
      "midi": 36,
      "hit": false,
      "t": 75205.49699999962,
      "d": 51.36987500000396,
      "v": 107
    },
    {
      "midi": 13,
      "hit": false,
      "t": 75205.49699999962,
      "d": 51.36987500000396,
      "v": 127
    },
    {
      "midi": 42,
      "hit": false,
      "t": 75205.49699999989,
      "d": 102.73974999999336,
      "v": 107
    },
    {
      "midi": 38,
      "hit": false,
      "t": 75308.23674999944,
      "d": 51.36987500000396,
      "v": 88
    },
    {
      "midi": 40,
      "hit": false,
      "t": 75308.23674999944,
      "d": 51.36987500000396,
      "v": 88
    },
    {
      "midi": 67,
      "hit": false,
      "t": 75407.55184166515,
      "d": 130.13701666667475,
      "v": 115
    },
    {
      "midi": 64,
      "hit": false,
      "t": 75407.55184166612,
      "d": 154.10962499999732,
      "v": 118
    },
    {
      "midi": 72,
      "hit": false,
      "t": 75407.55184166612,
      "d": 154.10962499999732,
      "v": 107
    },
    {
      "midi": 67,
      "hit": false,
      "t": 75407.55184166612,
      "d": 205.47950000000128,
      "v": 121
    },
    {
      "midi": 46,
      "hit": false,
      "t": 75410.97649999999,
      "d": 205.47950000000128,
      "v": 107
    },
    {
      "midi": 38,
      "hit": false,
      "t": 75513.71624999944,
      "d": 51.36987500000396,
      "v": 88
    },
    {
      "midi": 40,
      "hit": false,
      "t": 75513.71624999944,
      "d": 51.36987500000396,
      "v": 88
    },
    {
      "midi": 72,
      "hit": false,
      "t": 75613.03134166515,
      "d": 256.84937500000524,
      "v": 127
    },
    {
      "midi": 67,
      "hit": false,
      "t": 75613.03134166612,
      "d": 154.10962499999732,
      "v": 109
    },
    {
      "midi": 64,
      "hit": false,
      "t": 75613.03134166612,
      "d": 154.10962499999732,
      "v": 117
    },
    {
      "midi": 72,
      "hit": false,
      "t": 75613.03134166612,
      "d": 205.47950000000128,
      "v": 127
    },
    {
      "midi": 38,
      "hit": false,
      "t": 75616.45599999945,
      "d": 51.36987500000396,
      "v": 127
    },
    {
      "midi": 40,
      "hit": false,
      "t": 75616.45599999945,
      "d": 51.36987500000396,
      "v": 127
    },
    {
      "midi": 36,
      "hit": false,
      "t": 75616.45599999963,
      "d": 51.36987500000396,
      "v": 107
    },
    {
      "midi": 13,
      "hit": false,
      "t": 75616.45599999963,
      "d": 51.36987500000396,
      "v": 127
    },
    {
      "midi": 42,
      "hit": false,
      "t": 75616.45599999987,
      "d": 102.73974999999336,
      "v": 102
    },
    {
      "midi": 71,
      "hit": false,
      "t": 75818.51084166515,
      "d": 205.47950000000128,
      "v": 122
    },
    {
      "midi": 72,
      "hit": false,
      "t": 75818.51084166612,
      "d": 154.10962499999732,
      "v": 107
    },
    {
      "midi": 67,
      "hit": false,
      "t": 75818.51084166612,
      "d": 154.10962499999732,
      "v": 111
    },
    {
      "midi": 64,
      "hit": false,
      "t": 75818.51084166612,
      "d": 154.10962499999732,
      "v": 117
    },
    {
      "midi": 71,
      "hit": false,
      "t": 75818.51084166612,
      "d": 205.47950000000128,
      "v": 123
    },
    {
      "midi": 38,
      "hit": false,
      "t": 75821.93549999945,
      "d": 51.36987500000396,
      "v": 68
    },
    {
      "midi": 40,
      "hit": false,
      "t": 75821.93549999945,
      "d": 51.36987500000396,
      "v": 68
    },
    {
      "midi": 46,
      "hit": false,
      "t": 75821.93549999999,
      "d": 102.73974999999336,
      "v": 107
    },
    {
      "midi": 38,
      "hit": false,
      "t": 75924.67524999946,
      "d": 51.36987500000396,
      "v": 51
    },
    {
      "midi": 40,
      "hit": false,
      "t": 75924.67524999946,
      "d": 51.36987500000396,
      "v": 51
    },
    {
      "midi": 69,
      "hit": false,
      "t": 76023.99034166515,
      "d": 212.3288166666607,
      "v": 122
    },
    {
      "midi": 64,
      "hit": false,
      "t": 76023.99034166613,
      "d": 154.10962499999732,
      "v": 117
    },
    {
      "midi": 72,
      "hit": false,
      "t": 76023.99034166613,
      "d": 154.10962499999732,
      "v": 117
    },
    {
      "midi": 67,
      "hit": false,
      "t": 76023.99034166613,
      "d": 154.10962499999732,
      "v": 110
    },
    {
      "midi": 69,
      "hit": false,
      "t": 76023.99034166613,
      "d": 205.47950000000128,
      "v": 123
    },
    {
      "midi": 38,
      "hit": false,
      "t": 76027.41499999947,
      "d": 51.36987500000396,
      "v": 78
    },
    {
      "midi": 40,
      "hit": false,
      "t": 76027.41499999947,
      "d": 51.36987500000396,
      "v": 78
    },
    {
      "midi": 36,
      "hit": false,
      "t": 76027.41499999963,
      "d": 51.36987500000396,
      "v": 107
    },
    {
      "midi": 13,
      "hit": false,
      "t": 76027.41499999963,
      "d": 51.36987500000396,
      "v": 127
    },
    {
      "midi": 42,
      "hit": false,
      "t": 76027.41499999986,
      "d": 102.73974999999336,
      "v": 107
    },
    {
      "midi": 38,
      "hit": false,
      "t": 76130.15474999948,
      "d": 51.36987500000396,
      "v": 96
    },
    {
      "midi": 40,
      "hit": false,
      "t": 76130.15474999948,
      "d": 51.36987500000396,
      "v": 96
    },
    {
      "midi": 71,
      "hit": false,
      "t": 76229.46984166515,
      "d": 198.63018333331274,
      "v": 127
    },
    {
      "midi": 64,
      "hit": false,
      "t": 76229.46984166613,
      "d": 154.10962499999732,
      "v": 118
    },
    {
      "midi": 72,
      "hit": false,
      "t": 76229.46984166613,
      "d": 154.10962499999732,
      "v": 107
    },
    {
      "midi": 67,
      "hit": false,
      "t": 76229.46984166613,
      "d": 154.10962499999732,
      "v": 112
    },
    {
      "midi": 71,
      "hit": false,
      "t": 76229.46984166613,
      "d": 205.47950000000128,
      "v": 123
    },
    {
      "midi": 38,
      "hit": false,
      "t": 76232.89449999949,
      "d": 51.36987500000396,
      "v": 109
    },
    {
      "midi": 40,
      "hit": false,
      "t": 76232.89449999949,
      "d": 51.36987500000396,
      "v": 109
    },
    {
      "midi": 46,
      "hit": false,
      "t": 76232.89449999998,
      "d": 102.73974999999336,
      "v": 107
    },
    {
      "midi": 38,
      "hit": false,
      "t": 76335.6342499995,
      "d": 51.36987500000396,
      "v": 127
    },
    {
      "midi": 40,
      "hit": false,
      "t": 76335.6342499995,
      "d": 51.36987500000396,
      "v": 127
    },
    {
      "midi": 67,
      "hit": false,
      "t": 76434.94934166512,
      "d": 407.5343416666292,
      "v": 122
    },
    {
      "midi": 31,
      "hit": false,
      "t": 76434.94934166587,
      "d": 154.10962499999732,
      "v": 107
    },
    {
      "midi": 67,
      "hit": false,
      "t": 76434.94934166613,
      "d": 308.21924999999464,
      "v": 113
    },
    {
      "midi": 62,
      "hit": false,
      "t": 76434.94934166613,
      "d": 308.21924999999464,
      "v": 111
    },
    {
      "midi": 71,
      "hit": false,
      "t": 76434.94934166613,
      "d": 308.21924999999464,
      "v": 109
    },
    {
      "midi": 69,
      "hit": false,
      "t": 76434.94934166613,
      "d": 410.958999999988,
      "v": 123
    },
    {
      "midi": 50,
      "hit": false,
      "t": 76434.94934166638,
      "d": 102.73974999999336,
      "v": 95
    },
    {
      "midi": 55,
      "hit": false,
      "t": 76434.94934166638,
      "d": 102.73974999999336,
      "v": 113
    },
    {
      "midi": 70,
      "hit": false,
      "t": 76438.37399999882,
      "d": 51.36987500000396,
      "v": 60
    },
    {
      "midi": 69,
      "hit": false,
      "t": 76438.37399999882,
      "d": 51.36987500000396,
      "v": 50
    },
    {
      "midi": 55,
      "hit": false,
      "t": 76438.37399999944,
      "d": 205.47949999998673,
      "v": 112
    },
    {
      "midi": 38,
      "hit": false,
      "t": 76438.3739999995,
      "d": 51.36987500000396,
      "v": 64
    },
    {
      "midi": 40,
      "hit": false,
      "t": 76438.3739999995,
      "d": 51.36987500000396,
      "v": 64
    },
    {
      "midi": 36,
      "hit": false,
      "t": 76438.37399999963,
      "d": 51.36987500000396,
      "v": 107
    },
    {
      "midi": 13,
      "hit": false,
      "t": 76438.37399999963,
      "d": 51.36987500000396,
      "v": 127
    },
    {
      "midi": 42,
      "hit": false,
      "t": 76438.37399999985,
      "d": 102.73974999999336,
      "v": 107
    },
    {
      "midi": 91,
      "hit": false,
      "t": 76438.37399999995,
      "d": 3256.850074999995,
      "v": 89
    },
    {
      "midi": 79,
      "hit": false,
      "t": 76438.37399999995,
      "d": 3256.850074999995,
      "v": 80
    },
    {
      "midi": 62,
      "hit": false,
      "t": 76438.37400000008,
      "d": 3287.672000000006,
      "v": 80
    },
    {
      "midi": 67,
      "hit": false,
      "t": 76438.37400000008,
      "d": 3287.672000000006,
      "v": 80
    },
    {
      "midi": 59,
      "hit": false,
      "t": 76438.37400000008,
      "d": 3287.672000000006,
      "v": 80
    },
    {
      "midi": 70,
      "hit": false,
      "t": 76541.11374999883,
      "d": 51.36987500000396,
      "v": 49
    },
    {
      "midi": 69,
      "hit": false,
      "t": 76541.11374999883,
      "d": 51.36987500000396,
      "v": 39
    },
    {
      "midi": 43,
      "hit": false,
      "t": 76640.42884166587,
      "d": 51.36987500000396,
      "v": 107
    },
    {
      "midi": 50,
      "hit": false,
      "t": 76640.42884166636,
      "d": 102.73974999999336,
      "v": 45
    },
    {
      "midi": 55,
      "hit": false,
      "t": 76640.42884166636,
      "d": 102.73974999999336,
      "v": 65
    },
    {
      "midi": 70,
      "hit": false,
      "t": 76643.85349999883,
      "d": 51.36987500000396,
      "v": 109
    },
    {
      "midi": 69,
      "hit": false,
      "t": 76643.85349999883,
      "d": 51.36987500000396,
      "v": 99
    },
    {
      "midi": 46,
      "hit": false,
      "t": 76643.85349999997,
      "d": 102.73974999999336,
      "v": 107
    },
    {
      "midi": 43,
      "hit": false,
      "t": 76743.16859166588,
      "d": 51.36987500000396,
      "v": 107
    },
    {
      "midi": 70,
      "hit": false,
      "t": 76746.59324999884,
      "d": 51.36987500000396,
      "v": 53
    },
    {
      "midi": 69,
      "hit": false,
      "t": 76746.59324999884,
      "d": 51.36987500000396,
      "v": 43
    },
    {
      "midi": 59,
      "hit": false,
      "t": 76746.59324999942,
      "d": 102.73974999999336,
      "v": 127
    },
    {
      "midi": 67,
      "hit": false,
      "t": 76845.90834166508,
      "d": 164.38360000000102,
      "v": 122
    },
    {
      "midi": 31,
      "hit": false,
      "t": 76845.90834166588,
      "d": 154.10962499999732,
      "v": 107
    },
    {
      "midi": 62,
      "hit": false,
      "t": 76845.90834166612,
      "d": 154.10962499999732,
      "v": 112
    },
    {
      "midi": 71,
      "hit": false,
      "t": 76845.90834166612,
      "d": 154.10962499999732,
      "v": 110
    },
    {
      "midi": 67,
      "hit": false,
      "t": 76845.90834166612,
      "d": 205.47950000000128,
      "v": 119
    },
    {
      "midi": 50,
      "hit": false,
      "t": 76845.90834166635,
      "d": 102.73974999999336,
      "v": 41
    },
    {
      "midi": 55,
      "hit": false,
      "t": 76845.90834166635,
      "d": 102.73974999999336,
      "v": 47
    },
    {
      "midi": 109,
      "hit": false,
      "t": 76845.90834166663,
      "d": 51.36987500000396,
      "v": 127
    },
    {
      "midi": 70,
      "hit": false,
      "t": 76849.33299999885,
      "d": 51.36987500000396,
      "v": 60
    },
    {
      "midi": 69,
      "hit": false,
      "t": 76849.33299999885,
      "d": 51.36987500000396,
      "v": 50
    },
    {
      "midi": 38,
      "hit": false,
      "t": 76849.3329999995,
      "d": 51.36987500000396,
      "v": 88
    },
    {
      "midi": 40,
      "hit": false,
      "t": 76849.3329999995,
      "d": 51.36987500000396,
      "v": 88
    },
    {
      "midi": 36,
      "hit": false,
      "t": 76849.33299999963,
      "d": 51.36987500000396,
      "v": 107
    },
    {
      "midi": 13,
      "hit": false,
      "t": 76849.33299999963,
      "d": 51.36987500000396,
      "v": 127
    },
    {
      "midi": 42,
      "hit": false,
      "t": 76849.33299999984,
      "d": 102.73974999999336,
      "v": 107
    },
    {
      "midi": 70,
      "hit": false,
      "t": 76952.07274999886,
      "d": 51.36987500000396,
      "v": 49
    },
    {
      "midi": 69,
      "hit": false,
      "t": 76952.07274999886,
      "d": 51.36987500000396,
      "v": 39
    },
    {
      "midi": 67,
      "hit": false,
      "t": 77051.38784166508,
      "d": 2400.68549166678,
      "v": 127
    },
    {
      "midi": 43,
      "hit": false,
      "t": 77051.38784166588,
      "d": 51.36987500000396,
      "v": 107
    },
    {
      "midi": 71,
      "hit": false,
      "t": 77051.38784166612,
      "d": 2568.493749999994,
      "v": 112
    },
    {
      "midi": 67,
      "hit": false,
      "t": 77051.38784166612,
      "d": 2568.493749999994,
      "v": 119
    },
    {
      "midi": 62,
      "hit": false,
      "t": 77051.38784166612,
      "d": 2568.493749999994,
      "v": 110
    },
    {
      "midi": 50,
      "hit": false,
      "t": 77051.38784166634,
      "d": 102.73974999999336,
      "v": 78
    },
    {
      "midi": 55,
      "hit": false,
      "t": 77051.38784166634,
      "d": 102.73974999999336,
      "v": 107
    },
    {
      "midi": 74,
      "hit": false,
      "t": 77051.38784166638,
      "d": 85.61645833333023,
      "v": 88
    },
    {
      "midi": 67,
      "hit": false,
      "t": 77051.38784166638,
      "d": 85.61645833333023,
      "v": 88
    },
    {
      "midi": 79,
      "hit": false,
      "t": 77051.38784166638,
      "d": 85.61645833333023,
      "v": 127
    },
    {
      "midi": 70,
      "hit": false,
      "t": 77054.81249999886,
      "d": 51.36987500000396,
      "v": 109
    },
    {
      "midi": 69,
      "hit": false,
      "t": 77054.81249999886,
      "d": 51.36987500000396,
      "v": 99
    },
    {
      "midi": 53,
      "hit": false,
      "t": 77054.81249999942,
      "d": 102.73974999999336,
      "v": 122
    },
    {
      "midi": 74,
      "hit": false,
      "t": 77054.81249999972,
      "d": 85.61645833333023,
      "v": 88
    },
    {
      "midi": 67,
      "hit": false,
      "t": 77054.81249999972,
      "d": 85.61645833333023,
      "v": 88
    },
    {
      "midi": 79,
      "hit": false,
      "t": 77054.81249999972,
      "d": 85.61645833333023,
      "v": 127
    },
    {
      "midi": 74,
      "hit": false,
      "t": 77054.81249999972,
      "d": 85.61645833333023,
      "v": 88
    },
    {
      "midi": 67,
      "hit": false,
      "t": 77054.81249999972,
      "d": 85.61645833333023,
      "v": 88
    },
    {
      "midi": 79,
      "hit": false,
      "t": 77054.81249999972,
      "d": 85.61645833333023,
      "v": 127
    },
    {
      "midi": 46,
      "hit": false,
      "t": 77054.81249999996,
      "d": 205.47950000000128,
      "v": 107
    },
    {
      "midi": 43,
      "hit": false,
      "t": 77154.12759166589,
      "d": 51.36987500000396,
      "v": 107
    },
    {
      "midi": 70,
      "hit": false,
      "t": 77157.55224999887,
      "d": 51.36987500000396,
      "v": 53
    },
    {
      "midi": 69,
      "hit": false,
      "t": 77157.55224999887,
      "d": 51.36987500000396,
      "v": 43
    },
    {
      "midi": 38,
      "hit": false,
      "t": 77157.55224999951,
      "d": 51.36987500000396,
      "v": 88
    },
    {
      "midi": 40,
      "hit": false,
      "t": 77157.55224999951,
      "d": 51.36987500000396,
      "v": 88
    },
    {
      "midi": 31,
      "hit": false,
      "t": 77256.8673416659,
      "d": 154.10962499999732,
      "v": 107
    },
    {
      "midi": 55,
      "hit": false,
      "t": 77256.86734166632,
      "d": 102.73974999999336,
      "v": 78
    },
    {
      "midi": 50,
      "hit": false,
      "t": 77256.86734166632,
      "d": 102.73974999999336,
      "v": 53
    },
    {
      "midi": 72,
      "hit": false,
      "t": 77256.86734166638,
      "d": 315.0685666666541,
      "v": 88
    },
    {
      "midi": 77,
      "hit": false,
      "t": 77256.86734166638,
      "d": 315.0685666666541,
      "v": 127
    },
    {
      "midi": 65,
      "hit": false,
      "t": 77256.86734166638,
      "d": 315.0685666666541,
      "v": 88
    },
    {
      "midi": 70,
      "hit": false,
      "t": 77260.29199999888,
      "d": 51.36987500000396,
      "v": 60
    },
    {
      "midi": 69,
      "hit": false,
      "t": 77260.29199999888,
      "d": 51.36987500000396,
      "v": 50
    },
    {
      "midi": 59,
      "hit": false,
      "t": 77260.2919999994,
      "d": 102.73974999999336,
      "v": 111
    },
    {
      "midi": 55,
      "hit": false,
      "t": 77260.2919999994,
      "d": 102.73974999999336,
      "v": 118
    },
    {
      "midi": 36,
      "hit": false,
      "t": 77260.29199999964,
      "d": 51.36987500000396,
      "v": 107
    },
    {
      "midi": 13,
      "hit": false,
      "t": 77260.29199999964,
      "d": 51.36987500000396,
      "v": 127
    },
    {
      "midi": 72,
      "hit": false,
      "t": 77260.29199999972,
      "d": 315.0685666666541,
      "v": 88
    },
    {
      "midi": 77,
      "hit": false,
      "t": 77260.29199999972,
      "d": 315.0685666666541,
      "v": 127
    },
    {
      "midi": 65,
      "hit": false,
      "t": 77260.29199999972,
      "d": 315.0685666666541,
      "v": 88
    },
    {
      "midi": 72,
      "hit": false,
      "t": 77260.29199999972,
      "d": 315.0685666666541,
      "v": 88
    },
    {
      "midi": 77,
      "hit": false,
      "t": 77260.29199999972,
      "d": 315.0685666666541,
      "v": 127
    },
    {
      "midi": 65,
      "hit": false,
      "t": 77260.29199999972,
      "d": 315.0685666666541,
      "v": 88
    },
    {
      "midi": 42,
      "hit": false,
      "t": 77260.29199999983,
      "d": 102.73974999999336,
      "v": 102
    },
    {
      "midi": 70,
      "hit": false,
      "t": 77363.03174999889,
      "d": 51.36987500000396,
      "v": 49
    },
    {
      "midi": 69,
      "hit": false,
      "t": 77363.03174999889,
      "d": 51.36987500000396,
      "v": 39
    },
    {
      "midi": 38,
      "hit": false,
      "t": 77363.03174999951,
      "d": 51.36987500000396,
      "v": 69
    },
    {
      "midi": 40,
      "hit": false,
      "t": 77363.03174999951,
      "d": 51.36987500000396,
      "v": 69
    },
    {
      "midi": 43,
      "hit": false,
      "t": 77462.3468416659,
      "d": 51.36987500000396,
      "v": 107
    },
    {
      "midi": 50,
      "hit": false,
      "t": 77462.34684166631,
      "d": 102.73974999999336,
      "v": 43
    },
    {
      "midi": 55,
      "hit": false,
      "t": 77462.34684166631,
      "d": 102.73974999999336,
      "v": 55
    },
    {
      "midi": 70,
      "hit": false,
      "t": 77465.7714999989,
      "d": 51.36987500000396,
      "v": 109
    },
    {
      "midi": 69,
      "hit": false,
      "t": 77465.7714999989,
      "d": 51.36987500000396,
      "v": 99
    },
    {
      "midi": 46,
      "hit": false,
      "t": 77465.77149999996,
      "d": 102.73974999999336,
      "v": 107
    },
    {
      "midi": 43,
      "hit": false,
      "t": 77565.08659166591,
      "d": 51.36987500000396,
      "v": 107
    },
    {
      "midi": 79,
      "hit": false,
      "t": 77565.08659166638,
      "d": 95.89043333331938,
      "v": 110
    },
    {
      "midi": 67,
      "hit": false,
      "t": 77565.08659166638,
      "d": 95.89043333331938,
      "v": 77
    },
    {
      "midi": 74,
      "hit": false,
      "t": 77565.08659166638,
      "d": 95.89043333331938,
      "v": 77
    },
    {
      "midi": 70,
      "hit": false,
      "t": 77568.5112499989,
      "d": 51.36987500000396,
      "v": 53
    },
    {
      "midi": 69,
      "hit": false,
      "t": 77568.5112499989,
      "d": 51.36987500000396,
      "v": 43
    },
    {
      "midi": 59,
      "hit": false,
      "t": 77568.5112499994,
      "d": 102.73974999999336,
      "v": 101
    },
    {
      "midi": 55,
      "hit": false,
      "t": 77568.5112499994,
      "d": 102.73974999999336,
      "v": 99
    },
    {
      "midi": 79,
      "hit": false,
      "t": 77568.51124999972,
      "d": 95.89043333331938,
      "v": 110
    },
    {
      "midi": 67,
      "hit": false,
      "t": 77568.51124999972,
      "d": 95.89043333331938,
      "v": 77
    },
    {
      "midi": 74,
      "hit": false,
      "t": 77568.51124999972,
      "d": 95.89043333331938,
      "v": 77
    },
    {
      "midi": 79,
      "hit": false,
      "t": 77568.51124999972,
      "d": 95.89043333331938,
      "v": 110
    },
    {
      "midi": 67,
      "hit": false,
      "t": 77568.51124999972,
      "d": 95.89043333331938,
      "v": 77
    },
    {
      "midi": 74,
      "hit": false,
      "t": 77568.51124999972,
      "d": 95.89043333331938,
      "v": 77
    },
    {
      "midi": 31,
      "hit": false,
      "t": 77667.82634166592,
      "d": 154.10962499999732,
      "v": 107
    },
    {
      "midi": 50,
      "hit": false,
      "t": 77667.8263416663,
      "d": 102.73974999999336,
      "v": 41
    },
    {
      "midi": 55,
      "hit": false,
      "t": 77667.8263416663,
      "d": 102.73974999999336,
      "v": 52
    },
    {
      "midi": 109,
      "hit": false,
      "t": 77667.82634166663,
      "d": 51.36987500000396,
      "v": 127
    },
    {
      "midi": 70,
      "hit": false,
      "t": 77671.25099999891,
      "d": 51.36987500000396,
      "v": 60
    },
    {
      "midi": 69,
      "hit": false,
      "t": 77671.25099999891,
      "d": 51.36987500000396,
      "v": 50
    },
    {
      "midi": 38,
      "hit": false,
      "t": 77671.25099999952,
      "d": 51.36987500000396,
      "v": 88
    },
    {
      "midi": 40,
      "hit": false,
      "t": 77671.25099999952,
      "d": 51.36987500000396,
      "v": 88
    },
    {
      "midi": 36,
      "hit": false,
      "t": 77671.25099999964,
      "d": 51.36987500000396,
      "v": 107
    },
    {
      "midi": 13,
      "hit": false,
      "t": 77671.25099999964,
      "d": 51.36987500000396,
      "v": 127
    },
    {
      "midi": 42,
      "hit": false,
      "t": 77671.25099999981,
      "d": 102.73974999999336,
      "v": 107
    },
    {
      "midi": 70,
      "hit": false,
      "t": 77773.99074999892,
      "d": 51.36987500000396,
      "v": 49
    },
    {
      "midi": 69,
      "hit": false,
      "t": 77773.99074999892,
      "d": 51.36987500000396,
      "v": 39
    },
    {
      "midi": 43,
      "hit": false,
      "t": 77873.30584166592,
      "d": 51.36987500000396,
      "v": 107
    },
    {
      "midi": 50,
      "hit": false,
      "t": 77873.30584166628,
      "d": 102.73974999999336,
      "v": 75
    },
    {
      "midi": 55,
      "hit": false,
      "t": 77873.30584166628,
      "d": 102.73974999999336,
      "v": 95
    },
    {
      "midi": 74,
      "hit": false,
      "t": 77873.30584166636,
      "d": 68.4931666666671,
      "v": 88
    },
    {
      "midi": 67,
      "hit": false,
      "t": 77873.30584166636,
      "d": 68.4931666666671,
      "v": 88
    },
    {
      "midi": 79,
      "hit": false,
      "t": 77873.30584166636,
      "d": 68.4931666666671,
      "v": 127
    },
    {
      "midi": 70,
      "hit": false,
      "t": 77876.73049999893,
      "d": 51.36987500000396,
      "v": 109
    },
    {
      "midi": 69,
      "hit": false,
      "t": 77876.73049999893,
      "d": 51.36987500000396,
      "v": 99
    },
    {
      "midi": 55,
      "hit": false,
      "t": 77876.7304999994,
      "d": 102.73974999999336,
      "v": 107
    },
    {
      "midi": 59,
      "hit": false,
      "t": 77876.7304999994,
      "d": 102.73974999999336,
      "v": 102
    },
    {
      "midi": 38,
      "hit": false,
      "t": 77876.73049999952,
      "d": 51.36987500000396,
      "v": 68
    },
    {
      "midi": 40,
      "hit": false,
      "t": 77876.73049999952,
      "d": 51.36987500000396,
      "v": 68
    },
    {
      "midi": 74,
      "hit": false,
      "t": 77876.7304999997,
      "d": 68.4931666666671,
      "v": 88
    },
    {
      "midi": 67,
      "hit": false,
      "t": 77876.7304999997,
      "d": 68.4931666666671,
      "v": 88
    },
    {
      "midi": 79,
      "hit": false,
      "t": 77876.7304999997,
      "d": 68.4931666666671,
      "v": 127
    },
    {
      "midi": 74,
      "hit": false,
      "t": 77876.7304999997,
      "d": 68.4931666666671,
      "v": 88
    },
    {
      "midi": 67,
      "hit": false,
      "t": 77876.7304999997,
      "d": 68.4931666666671,
      "v": 88
    },
    {
      "midi": 79,
      "hit": false,
      "t": 77876.7304999997,
      "d": 68.4931666666671,
      "v": 127
    },
    {
      "midi": 46,
      "hit": false,
      "t": 77876.73049999995,
      "d": 102.73974999999336,
      "v": 107
    },
    {
      "midi": 43,
      "hit": false,
      "t": 77976.04559166593,
      "d": 51.36987500000396,
      "v": 107
    },
    {
      "midi": 70,
      "hit": false,
      "t": 77979.47024999894,
      "d": 51.36987500000396,
      "v": 53
    },
    {
      "midi": 69,
      "hit": false,
      "t": 77979.47024999894,
      "d": 51.36987500000396,
      "v": 43
    },
    {
      "midi": 38,
      "hit": false,
      "t": 77979.47024999953,
      "d": 51.36987500000396,
      "v": 52
    },
    {
      "midi": 40,
      "hit": false,
      "t": 77979.47024999953,
      "d": 51.36987500000396,
      "v": 52
    },
    {
      "midi": 31,
      "hit": false,
      "t": 78078.78534166593,
      "d": 154.10962499999732,
      "v": 107
    },
    {
      "midi": 50,
      "hit": false,
      "t": 78078.78534166627,
      "d": 205.47950000000128,
      "v": 85
    },
    {
      "midi": 55,
      "hit": false,
      "t": 78078.78534166627,
      "d": 205.47950000000128,
      "v": 113
    },
    {
      "midi": 66,
      "hit": false,
      "t": 78078.78534166636,
      "d": 198.6301833333273,
      "v": 85
    },
    {
      "midi": 59,
      "hit": false,
      "t": 78078.78534166636,
      "d": 198.6301833333273,
      "v": 85
    },
    {
      "midi": 71,
      "hit": false,
      "t": 78078.78534166636,
      "d": 198.6301833333273,
      "v": 122
    },
    {
      "midi": 70,
      "hit": false,
      "t": 78082.20999999894,
      "d": 51.36987500000396,
      "v": 60
    },
    {
      "midi": 69,
      "hit": false,
      "t": 78082.20999999894,
      "d": 51.36987500000396,
      "v": 50
    },
    {
      "midi": 55,
      "hit": false,
      "t": 78082.20999999938,
      "d": 205.47950000000128,
      "v": 122
    },
    {
      "midi": 38,
      "hit": false,
      "t": 78082.20999999954,
      "d": 51.36987500000396,
      "v": 68
    },
    {
      "midi": 40,
      "hit": false,
      "t": 78082.20999999954,
      "d": 51.36987500000396,
      "v": 68
    },
    {
      "midi": 36,
      "hit": false,
      "t": 78082.20999999964,
      "d": 51.36987500000396,
      "v": 107
    },
    {
      "midi": 13,
      "hit": false,
      "t": 78082.20999999964,
      "d": 51.36987500000396,
      "v": 127
    },
    {
      "midi": 66,
      "hit": false,
      "t": 78082.2099999997,
      "d": 198.6301833333273,
      "v": 85
    },
    {
      "midi": 59,
      "hit": false,
      "t": 78082.2099999997,
      "d": 198.6301833333273,
      "v": 85
    },
    {
      "midi": 71,
      "hit": false,
      "t": 78082.2099999997,
      "d": 198.6301833333273,
      "v": 122
    },
    {
      "midi": 66,
      "hit": false,
      "t": 78082.2099999997,
      "d": 198.6301833333273,
      "v": 85
    },
    {
      "midi": 59,
      "hit": false,
      "t": 78082.2099999997,
      "d": 198.6301833333273,
      "v": 85
    },
    {
      "midi": 71,
      "hit": false,
      "t": 78082.2099999997,
      "d": 198.6301833333273,
      "v": 122
    },
    {
      "midi": 42,
      "hit": false,
      "t": 78082.2099999998,
      "d": 102.73974999999336,
      "v": 107
    },
    {
      "midi": 70,
      "hit": false,
      "t": 78184.94974999895,
      "d": 51.36987500000396,
      "v": 49
    },
    {
      "midi": 69,
      "hit": false,
      "t": 78184.94974999895,
      "d": 51.36987500000396,
      "v": 39
    },
    {
      "midi": 43,
      "hit": false,
      "t": 78284.26484166594,
      "d": 51.36987500000396,
      "v": 107
    },
    {
      "midi": 50,
      "hit": false,
      "t": 78284.26484166627,
      "d": 102.73974999999336,
      "v": 55
    },
    {
      "midi": 55,
      "hit": false,
      "t": 78284.26484166627,
      "d": 102.73974999999336,
      "v": 67
    },
    {
      "midi": 74,
      "hit": false,
      "t": 78284.26484166634,
      "d": 85.61645833333023,
      "v": 88
    },
    {
      "midi": 67,
      "hit": false,
      "t": 78284.26484166634,
      "d": 85.61645833333023,
      "v": 88
    },
    {
      "midi": 79,
      "hit": false,
      "t": 78284.26484166634,
      "d": 85.61645833333023,
      "v": 127
    },
    {
      "midi": 70,
      "hit": false,
      "t": 78287.68949999896,
      "d": 51.36987500000396,
      "v": 109
    },
    {
      "midi": 69,
      "hit": false,
      "t": 78287.68949999896,
      "d": 51.36987500000396,
      "v": 99
    },
    {
      "midi": 38,
      "hit": false,
      "t": 78287.68949999954,
      "d": 51.36987500000396,
      "v": 88
    },
    {
      "midi": 40,
      "hit": false,
      "t": 78287.68949999954,
      "d": 51.36987500000396,
      "v": 88
    },
    {
      "midi": 74,
      "hit": false,
      "t": 78287.68949999969,
      "d": 85.61645833333023,
      "v": 88
    },
    {
      "midi": 67,
      "hit": false,
      "t": 78287.68949999969,
      "d": 85.61645833333023,
      "v": 88
    },
    {
      "midi": 79,
      "hit": false,
      "t": 78287.68949999969,
      "d": 85.61645833333023,
      "v": 127
    },
    {
      "midi": 74,
      "hit": false,
      "t": 78287.68949999969,
      "d": 85.61645833333023,
      "v": 88
    },
    {
      "midi": 67,
      "hit": false,
      "t": 78287.68949999969,
      "d": 85.61645833333023,
      "v": 88
    },
    {
      "midi": 79,
      "hit": false,
      "t": 78287.68949999969,
      "d": 85.61645833333023,
      "v": 127
    },
    {
      "midi": 46,
      "hit": false,
      "t": 78287.68949999993,
      "d": 102.73974999999336,
      "v": 107
    },
    {
      "midi": 43,
      "hit": false,
      "t": 78387.00459166594,
      "d": 51.36987500000396,
      "v": 107
    },
    {
      "midi": 70,
      "hit": false,
      "t": 78390.42924999897,
      "d": 51.36987500000396,
      "v": 53
    },
    {
      "midi": 69,
      "hit": false,
      "t": 78390.42924999897,
      "d": 51.36987500000396,
      "v": 43
    },
    {
      "midi": 59,
      "hit": false,
      "t": 78390.42924999938,
      "d": 102.73974999999336,
      "v": 127
    },
    {
      "midi": 31,
      "hit": false,
      "t": 78489.74434166595,
      "d": 154.10962499999732,
      "v": 107
    },
    {
      "midi": 50,
      "hit": false,
      "t": 78489.74434166626,
      "d": 102.73974999999336,
      "v": 45
    },
    {
      "midi": 55,
      "hit": false,
      "t": 78489.74434166626,
      "d": 102.73974999999336,
      "v": 67
    },
    {
      "midi": 74,
      "hit": false,
      "t": 78489.74434166634,
      "d": 71.91782499999681,
      "v": 88
    },
    {
      "midi": 67,
      "hit": false,
      "t": 78489.74434166634,
      "d": 71.91782499999681,
      "v": 88
    },
    {
      "midi": 79,
      "hit": false,
      "t": 78489.74434166634,
      "d": 71.91782499999681,
      "v": 127
    },
    {
      "midi": 109,
      "hit": false,
      "t": 78489.74434166664,
      "d": 51.36987500000396,
      "v": 127
    },
    {
      "midi": 70,
      "hit": false,
      "t": 78493.16899999898,
      "d": 51.36987500000396,
      "v": 60
    },
    {
      "midi": 69,
      "hit": false,
      "t": 78493.16899999898,
      "d": 51.36987500000396,
      "v": 50
    },
    {
      "midi": 38,
      "hit": false,
      "t": 78493.16899999954,
      "d": 51.36987500000396,
      "v": 88
    },
    {
      "midi": 40,
      "hit": false,
      "t": 78493.16899999954,
      "d": 51.36987500000396,
      "v": 88
    },
    {
      "midi": 36,
      "hit": false,
      "t": 78493.16899999965,
      "d": 51.36987500000396,
      "v": 107
    },
    {
      "midi": 13,
      "hit": false,
      "t": 78493.16899999965,
      "d": 51.36987500000396,
      "v": 127
    },
    {
      "midi": 74,
      "hit": false,
      "t": 78493.16899999969,
      "d": 71.91782499999681,
      "v": 88
    },
    {
      "midi": 67,
      "hit": false,
      "t": 78493.16899999969,
      "d": 71.91782499999681,
      "v": 88
    },
    {
      "midi": 79,
      "hit": false,
      "t": 78493.16899999969,
      "d": 71.91782499999681,
      "v": 127
    },
    {
      "midi": 74,
      "hit": false,
      "t": 78493.16899999969,
      "d": 71.91782499999681,
      "v": 88
    },
    {
      "midi": 67,
      "hit": false,
      "t": 78493.16899999969,
      "d": 71.91782499999681,
      "v": 88
    },
    {
      "midi": 79,
      "hit": false,
      "t": 78493.16899999969,
      "d": 71.91782499999681,
      "v": 127
    },
    {
      "midi": 42,
      "hit": false,
      "t": 78493.16899999979,
      "d": 102.73974999999336,
      "v": 107
    },
    {
      "midi": 70,
      "hit": false,
      "t": 78595.90874999898,
      "d": 51.36987500000396,
      "v": 49
    },
    {
      "midi": 69,
      "hit": false,
      "t": 78595.90874999898,
      "d": 51.36987500000396,
      "v": 39
    },
    {
      "midi": 38,
      "hit": false,
      "t": 78595.90874999955,
      "d": 51.36987500000396,
      "v": 53
    },
    {
      "midi": 40,
      "hit": false,
      "t": 78595.90874999955,
      "d": 51.36987500000396,
      "v": 53
    },
    {
      "midi": 43,
      "hit": false,
      "t": 78695.22384166595,
      "d": 51.36987500000396,
      "v": 107
    },
    {
      "midi": 50,
      "hit": false,
      "t": 78695.22384166624,
      "d": 102.73974999999336,
      "v": 101
    },
    {
      "midi": 55,
      "hit": false,
      "t": 78695.22384166624,
      "d": 102.73974999999336,
      "v": 107
    },
    {
      "midi": 74,
      "hit": false,
      "t": 78695.22384166635,
      "d": 95.89043333333393,
      "v": 88
    },
    {
      "midi": 67,
      "hit": false,
      "t": 78695.22384166635,
      "d": 95.89043333333393,
      "v": 88
    },
    {
      "midi": 79,
      "hit": false,
      "t": 78695.22384166635,
      "d": 95.89043333333393,
      "v": 127
    },
    {
      "midi": 70,
      "hit": false,
      "t": 78698.64849999899,
      "d": 51.36987500000396,
      "v": 109
    },
    {
      "midi": 69,
      "hit": false,
      "t": 78698.64849999899,
      "d": 51.36987500000396,
      "v": 99
    },
    {
      "midi": 53,
      "hit": false,
      "t": 78698.64849999937,
      "d": 102.73974999999336,
      "v": 109
    },
    {
      "midi": 38,
      "hit": false,
      "t": 78698.64849999956,
      "d": 51.36987500000396,
      "v": 23
    },
    {
      "midi": 40,
      "hit": false,
      "t": 78698.64849999956,
      "d": 51.36987500000396,
      "v": 23
    },
    {
      "midi": 74,
      "hit": false,
      "t": 78698.64849999969,
      "d": 95.89043333333393,
      "v": 88
    },
    {
      "midi": 67,
      "hit": false,
      "t": 78698.64849999969,
      "d": 95.89043333333393,
      "v": 88
    },
    {
      "midi": 79,
      "hit": false,
      "t": 78698.64849999969,
      "d": 95.89043333333393,
      "v": 127
    },
    {
      "midi": 74,
      "hit": false,
      "t": 78698.64849999969,
      "d": 95.89043333333393,
      "v": 88
    },
    {
      "midi": 67,
      "hit": false,
      "t": 78698.64849999969,
      "d": 95.89043333333393,
      "v": 88
    },
    {
      "midi": 79,
      "hit": false,
      "t": 78698.64849999969,
      "d": 95.89043333333393,
      "v": 127
    },
    {
      "midi": 46,
      "hit": false,
      "t": 78698.64849999992,
      "d": 205.47950000000128,
      "v": 107
    },
    {
      "midi": 43,
      "hit": false,
      "t": 78797.96359166596,
      "d": 51.36987500000396,
      "v": 107
    },
    {
      "midi": 70,
      "hit": false,
      "t": 78801.388249999,
      "d": 51.36987500000396,
      "v": 53
    },
    {
      "midi": 69,
      "hit": false,
      "t": 78801.388249999,
      "d": 51.36987500000396,
      "v": 43
    },
    {
      "midi": 31,
      "hit": false,
      "t": 78900.70334166597,
      "d": 154.10962499999732,
      "v": 107
    },
    {
      "midi": 50,
      "hit": false,
      "t": 78900.70334166623,
      "d": 102.73974999999336,
      "v": 35
    },
    {
      "midi": 55,
      "hit": false,
      "t": 78900.70334166623,
      "d": 102.73974999999336,
      "v": 49
    },
    {
      "midi": 72,
      "hit": false,
      "t": 78900.70334166635,
      "d": 356.16446666665433,
      "v": 88
    },
    {
      "midi": 77,
      "hit": false,
      "t": 78900.70334166635,
      "d": 356.16446666665433,
      "v": 127
    },
    {
      "midi": 65,
      "hit": false,
      "t": 78900.70334166635,
      "d": 356.16446666665433,
      "v": 88
    },
    {
      "midi": 70,
      "hit": false,
      "t": 78904.12799999901,
      "d": 51.36987500000396,
      "v": 60
    },
    {
      "midi": 69,
      "hit": false,
      "t": 78904.12799999901,
      "d": 51.36987500000396,
      "v": 50
    },
    {
      "midi": 38,
      "hit": false,
      "t": 78904.12799999956,
      "d": 51.36987500000396,
      "v": 88
    },
    {
      "midi": 40,
      "hit": false,
      "t": 78904.12799999956,
      "d": 51.36987500000396,
      "v": 88
    },
    {
      "midi": 36,
      "hit": false,
      "t": 78904.12799999965,
      "d": 51.36987500000396,
      "v": 107
    },
    {
      "midi": 13,
      "hit": false,
      "t": 78904.12799999965,
      "d": 51.36987500000396,
      "v": 127
    },
    {
      "midi": 72,
      "hit": false,
      "t": 78904.12799999969,
      "d": 356.16446666665433,
      "v": 88
    },
    {
      "midi": 77,
      "hit": false,
      "t": 78904.12799999969,
      "d": 356.16446666665433,
      "v": 127
    },
    {
      "midi": 65,
      "hit": false,
      "t": 78904.12799999969,
      "d": 356.16446666665433,
      "v": 88
    },
    {
      "midi": 72,
      "hit": false,
      "t": 78904.12799999969,
      "d": 356.16446666665433,
      "v": 88
    },
    {
      "midi": 77,
      "hit": false,
      "t": 78904.12799999969,
      "d": 356.16446666665433,
      "v": 127
    },
    {
      "midi": 65,
      "hit": false,
      "t": 78904.12799999969,
      "d": 356.16446666665433,
      "v": 88
    },
    {
      "midi": 42,
      "hit": false,
      "t": 78904.12799999978,
      "d": 102.73974999999336,
      "v": 102
    },
    {
      "midi": 70,
      "hit": false,
      "t": 79006.86774999902,
      "d": 51.36987500000396,
      "v": 49
    },
    {
      "midi": 69,
      "hit": false,
      "t": 79006.86774999902,
      "d": 51.36987500000396,
      "v": 39
    },
    {
      "midi": 55,
      "hit": false,
      "t": 79006.86774999936,
      "d": 102.73974999999336,
      "v": 118
    },
    {
      "midi": 43,
      "hit": false,
      "t": 79106.18284166597,
      "d": 51.36987500000396,
      "v": 107
    },
    {
      "midi": 50,
      "hit": false,
      "t": 79106.18284166622,
      "d": 102.73974999999336,
      "v": 43
    },
    {
      "midi": 55,
      "hit": false,
      "t": 79106.18284166622,
      "d": 102.73974999999336,
      "v": 53
    },
    {
      "midi": 109,
      "hit": false,
      "t": 79106.18284166664,
      "d": 51.36987500000396,
      "v": 127
    },
    {
      "midi": 70,
      "hit": false,
      "t": 79109.60749999902,
      "d": 51.36987500000396,
      "v": 109
    },
    {
      "midi": 69,
      "hit": false,
      "t": 79109.60749999902,
      "d": 51.36987500000396,
      "v": 99
    },
    {
      "midi": 53,
      "hit": false,
      "t": 79109.60749999936,
      "d": 102.73974999999336,
      "v": 102
    },
    {
      "midi": 38,
      "hit": false,
      "t": 79109.60749999956,
      "d": 51.36987500000396,
      "v": 37
    },
    {
      "midi": 40,
      "hit": false,
      "t": 79109.60749999956,
      "d": 51.36987500000396,
      "v": 37
    },
    {
      "midi": 46,
      "hit": false,
      "t": 79109.60749999993,
      "d": 102.73974999999336,
      "v": 107
    },
    {
      "midi": 43,
      "hit": false,
      "t": 79208.92259166598,
      "d": 51.36987500000396,
      "v": 107
    },
    {
      "midi": 79,
      "hit": false,
      "t": 79208.92259166634,
      "d": 61.64384999999311,
      "v": 122
    },
    {
      "midi": 67,
      "hit": false,
      "t": 79208.92259166634,
      "d": 61.64384999999311,
      "v": 85
    },
    {
      "midi": 74,
      "hit": false,
      "t": 79208.92259166634,
      "d": 61.64384999999311,
      "v": 85
    },
    {
      "midi": 70,
      "hit": false,
      "t": 79212.34724999903,
      "d": 51.36987500000396,
      "v": 53
    },
    {
      "midi": 69,
      "hit": false,
      "t": 79212.34724999903,
      "d": 51.36987500000396,
      "v": 43
    },
    {
      "midi": 38,
      "hit": false,
      "t": 79212.34724999957,
      "d": 51.36987500000396,
      "v": 57
    },
    {
      "midi": 40,
      "hit": false,
      "t": 79212.34724999957,
      "d": 51.36987500000396,
      "v": 57
    },
    {
      "midi": 36,
      "hit": false,
      "t": 79212.34724999966,
      "d": 51.36987500000396,
      "v": 107
    },
    {
      "midi": 13,
      "hit": false,
      "t": 79212.34724999966,
      "d": 51.36987500000396,
      "v": 127
    },
    {
      "midi": 79,
      "hit": false,
      "t": 79212.34724999969,
      "d": 61.64384999999311,
      "v": 122
    },
    {
      "midi": 67,
      "hit": false,
      "t": 79212.34724999969,
      "d": 61.64384999999311,
      "v": 85
    },
    {
      "midi": 74,
      "hit": false,
      "t": 79212.34724999969,
      "d": 61.64384999999311,
      "v": 85
    },
    {
      "midi": 79,
      "hit": false,
      "t": 79212.34724999969,
      "d": 61.64384999999311,
      "v": 122
    },
    {
      "midi": 67,
      "hit": false,
      "t": 79212.34724999969,
      "d": 61.64384999999311,
      "v": 85
    },
    {
      "midi": 74,
      "hit": false,
      "t": 79212.34724999969,
      "d": 61.64384999999311,
      "v": 85
    },
    {
      "midi": 31,
      "hit": false,
      "t": 79311.66234166599,
      "d": 154.10962499999732,
      "v": 107
    },
    {
      "midi": 50,
      "hit": false,
      "t": 79311.6623416662,
      "d": 102.73974999999336,
      "v": 52
    },
    {
      "midi": 55,
      "hit": false,
      "t": 79311.6623416662,
      "d": 102.73974999999336,
      "v": 71
    },
    {
      "midi": 109,
      "hit": false,
      "t": 79311.66234166664,
      "d": 51.36987500000396,
      "v": 127
    },
    {
      "midi": 70,
      "hit": false,
      "t": 79315.08699999904,
      "d": 51.36987500000396,
      "v": 60
    },
    {
      "midi": 69,
      "hit": false,
      "t": 79315.08699999904,
      "d": 51.36987500000396,
      "v": 50
    },
    {
      "midi": 55,
      "hit": false,
      "t": 79315.08699999934,
      "d": 102.73974999999336,
      "v": 112
    },
    {
      "midi": 38,
      "hit": false,
      "t": 79315.08699999958,
      "d": 51.36987500000396,
      "v": 77
    },
    {
      "midi": 40,
      "hit": false,
      "t": 79315.08699999958,
      "d": 51.36987500000396,
      "v": 77
    },
    {
      "midi": 36,
      "hit": false,
      "t": 79315.08699999966,
      "d": 51.36987500000396,
      "v": 107
    },
    {
      "midi": 13,
      "hit": false,
      "t": 79315.08699999966,
      "d": 51.36987500000396,
      "v": 127
    },
    {
      "midi": 42,
      "hit": false,
      "t": 79315.08699999977,
      "d": 102.73974999999336,
      "v": 107
    },
    {
      "midi": 70,
      "hit": false,
      "t": 79417.82674999905,
      "d": 51.36987500000396,
      "v": 49
    },
    {
      "midi": 69,
      "hit": false,
      "t": 79417.82674999905,
      "d": 51.36987500000396,
      "v": 39
    },
    {
      "midi": 38,
      "hit": false,
      "t": 79417.82674999959,
      "d": 51.36987500000396,
      "v": 93
    },
    {
      "midi": 40,
      "hit": false,
      "t": 79417.82674999959,
      "d": 51.36987500000396,
      "v": 93
    },
    {
      "midi": 43,
      "hit": false,
      "t": 79517.14184166599,
      "d": 51.36987500000396,
      "v": 107
    },
    {
      "midi": 50,
      "hit": false,
      "t": 79517.14184166619,
      "d": 102.73974999999336,
      "v": 82
    },
    {
      "midi": 55,
      "hit": false,
      "t": 79517.14184166619,
      "d": 102.73974999999336,
      "v": 95
    },
    {
      "midi": 74,
      "hit": false,
      "t": 79517.14184166634,
      "d": 61.64384999999311,
      "v": 88
    },
    {
      "midi": 67,
      "hit": false,
      "t": 79517.14184166634,
      "d": 61.64384999999311,
      "v": 88
    },
    {
      "midi": 79,
      "hit": false,
      "t": 79517.14184166634,
      "d": 61.64384999999311,
      "v": 127
    },
    {
      "midi": 109,
      "hit": false,
      "t": 79517.14184166664,
      "d": 51.36987500000396,
      "v": 127
    },
    {
      "midi": 70,
      "hit": false,
      "t": 79520.56649999905,
      "d": 51.36987500000396,
      "v": 109
    },
    {
      "midi": 69,
      "hit": false,
      "t": 79520.56649999905,
      "d": 51.36987500000396,
      "v": 99
    },
    {
      "midi": 53,
      "hit": false,
      "t": 79520.56649999933,
      "d": 102.73974999999336,
      "v": 39
    },
    {
      "midi": 38,
      "hit": false,
      "t": 79520.5664999996,
      "d": 51.36987500000396,
      "v": 113
    },
    {
      "midi": 40,
      "hit": false,
      "t": 79520.5664999996,
      "d": 51.36987500000396,
      "v": 113
    },
    {
      "midi": 36,
      "hit": false,
      "t": 79520.56649999967,
      "d": 51.36987500000396,
      "v": 107
    },
    {
      "midi": 13,
      "hit": false,
      "t": 79520.56649999967,
      "d": 51.36987500000396,
      "v": 127
    },
    {
      "midi": 74,
      "hit": false,
      "t": 79520.56649999968,
      "d": 61.64384999999311,
      "v": 88
    },
    {
      "midi": 67,
      "hit": false,
      "t": 79520.56649999968,
      "d": 61.64384999999311,
      "v": 88
    },
    {
      "midi": 79,
      "hit": false,
      "t": 79520.56649999968,
      "d": 61.64384999999311,
      "v": 127
    },
    {
      "midi": 74,
      "hit": false,
      "t": 79520.56649999968,
      "d": 61.64384999999311,
      "v": 88
    },
    {
      "midi": 67,
      "hit": false,
      "t": 79520.56649999968,
      "d": 61.64384999999311,
      "v": 88
    },
    {
      "midi": 79,
      "hit": false,
      "t": 79520.56649999968,
      "d": 61.64384999999311,
      "v": 127
    },
    {
      "midi": 46,
      "hit": false,
      "t": 79520.56649999991,
      "d": 102.73974999999336,
      "v": 107
    },
    {
      "midi": 43,
      "hit": false,
      "t": 79619.881591666,
      "d": 51.36987500000396,
      "v": 107
    },
    {
      "midi": 70,
      "hit": false,
      "t": 79623.30624999906,
      "d": 51.36987500000396,
      "v": 53
    },
    {
      "midi": 69,
      "hit": false,
      "t": 79623.30624999906,
      "d": 51.36987500000396,
      "v": 43
    },
    {
      "midi": 38,
      "hit": false,
      "t": 79623.3062499996,
      "d": 51.36987500000396,
      "v": 127
    },
    {
      "midi": 40,
      "hit": false,
      "t": 79623.3062499996,
      "d": 51.36987500000396,
      "v": 127
    },
    {
      "midi": 67,
      "hit": false,
      "t": 79722.6213416652,
      "d": 770.5481249999284,
      "v": 102
    },
    {
      "midi": 63,
      "hit": false,
      "t": 79722.62134166552,
      "d": 770.548124999943,
      "v": 109
    },
    {
      "midi": 60,
      "hit": false,
      "t": 79722.62134166552,
      "d": 787.6714166666061,
      "v": 109
    },
    {
      "midi": 67,
      "hit": false,
      "t": 79722.62134166552,
      "d": 787.6714166666061,
      "v": 114
    },
    {
      "midi": 33,
      "hit": false,
      "t": 79722.621341666,
      "d": 154.10962499999732,
      "v": 107
    },
    {
      "midi": 55,
      "hit": false,
      "t": 79722.62134166618,
      "d": 0,
      "v": 115
    },
    {
      "midi": 60,
      "hit": false,
      "t": 79722.62134166618,
      "d": 0,
      "v": 115
    },
    {
      "midi": 70,
      "hit": false,
      "t": 79726.04599999907,
      "d": 51.36987500000396,
      "v": 60
    },
    {
      "midi": 69,
      "hit": false,
      "t": 79726.04599999907,
      "d": 51.36987500000396,
      "v": 50
    },
    {
      "midi": 67,
      "hit": false,
      "t": 79726.04599999932,
      "d": 205.47949999998673,
      "v": 88
    },
    {
      "midi": 63,
      "hit": false,
      "t": 79726.04599999932,
      "d": 205.47949999998673,
      "v": 107
    },
    {
      "midi": 60,
      "hit": false,
      "t": 79726.04599999932,
      "d": 205.47949999998673,
      "v": 79
    },
    {
      "midi": 38,
      "hit": false,
      "t": 79726.04599999961,
      "d": 51.36987500000396,
      "v": 88
    },
    {
      "midi": 40,
      "hit": false,
      "t": 79726.04599999961,
      "d": 51.36987500000396,
      "v": 88
    },
    {
      "midi": 36,
      "hit": false,
      "t": 79726.04599999967,
      "d": 51.36987500000396,
      "v": 107
    },
    {
      "midi": 13,
      "hit": false,
      "t": 79726.04599999967,
      "d": 51.36987500000396,
      "v": 127
    },
    {
      "midi": 42,
      "hit": false,
      "t": 79726.04599999975,
      "d": 102.73974999999336,
      "v": 107
    },
    {
      "midi": 67,
      "hit": false,
      "t": 79726.04600000009,
      "d": 1643.8359999999957,
      "v": 80
    },
    {
      "midi": 60,
      "hit": false,
      "t": 79726.04600000009,
      "d": 1643.8359999999957,
      "v": 80
    },
    {
      "midi": 63,
      "hit": false,
      "t": 79726.04600000009,
      "d": 1643.8359999999957,
      "v": 80
    },
    {
      "midi": 70,
      "hit": false,
      "t": 79828.78574999908,
      "d": 51.36987500000396,
      "v": 49
    },
    {
      "midi": 69,
      "hit": false,
      "t": 79828.78574999908,
      "d": 51.36987500000396,
      "v": 39
    },
    {
      "midi": 45,
      "hit": false,
      "t": 79928.100841666,
      "d": 51.36987500000396,
      "v": 107
    },
    {
      "midi": 60,
      "hit": false,
      "t": 79928.10084166618,
      "d": 0,
      "v": 88
    },
    {
      "midi": 55,
      "hit": false,
      "t": 79928.10084166618,
      "d": 0,
      "v": 88
    },
    {
      "midi": 70,
      "hit": false,
      "t": 79931.52549999909,
      "d": 51.36987500000396,
      "v": 109
    },
    {
      "midi": 69,
      "hit": false,
      "t": 79931.52549999909,
      "d": 51.36987500000396,
      "v": 99
    },
    {
      "midi": 46,
      "hit": false,
      "t": 79931.5254999999,
      "d": 102.73974999999336,
      "v": 107
    },
    {
      "midi": 45,
      "hit": false,
      "t": 80030.84059166601,
      "d": 51.36987500000396,
      "v": 107
    },
    {
      "midi": 70,
      "hit": false,
      "t": 80034.2652499991,
      "d": 51.36987500000396,
      "v": 53
    },
    {
      "midi": 69,
      "hit": false,
      "t": 80034.2652499991,
      "d": 51.36987500000396,
      "v": 43
    },
    {
      "midi": 67,
      "hit": false,
      "t": 80034.2652499993,
      "d": 102.73974999999336,
      "v": 70
    },
    {
      "midi": 60,
      "hit": false,
      "t": 80034.2652499993,
      "d": 102.73974999999336,
      "v": 67
    },
    {
      "midi": 63,
      "hit": false,
      "t": 80034.2652499993,
      "d": 102.73974999999336,
      "v": 85
    },
    {
      "midi": 33,
      "hit": false,
      "t": 80133.58034166602,
      "d": 154.10962499999732,
      "v": 107
    },
    {
      "midi": 55,
      "hit": false,
      "t": 80133.58034166618,
      "d": 0,
      "v": 103
    },
    {
      "midi": 60,
      "hit": false,
      "t": 80133.58034166618,
      "d": 0,
      "v": 103
    },
    {
      "midi": 81,
      "hit": false,
      "t": 80133.58034166633,
      "d": 410.95899999994435,
      "v": 117
    },
    {
      "midi": 69,
      "hit": false,
      "t": 80133.58034166633,
      "d": 410.95899999994435,
      "v": 117
    },
    {
      "midi": 109,
      "hit": false,
      "t": 80133.58034166665,
      "d": 51.36987500000396,
      "v": 127
    },
    {
      "midi": 70,
      "hit": false,
      "t": 80137.0049999991,
      "d": 51.36987500000396,
      "v": 60
    },
    {
      "midi": 69,
      "hit": false,
      "t": 80137.0049999991,
      "d": 51.36987500000396,
      "v": 50
    },
    {
      "midi": 38,
      "hit": false,
      "t": 80137.00499999961,
      "d": 51.36987500000396,
      "v": 63
    },
    {
      "midi": 40,
      "hit": false,
      "t": 80137.00499999961,
      "d": 51.36987500000396,
      "v": 64
    },
    {
      "midi": 81,
      "hit": false,
      "t": 80137.00499999967,
      "d": 410.95899999994435,
      "v": 117
    },
    {
      "midi": 69,
      "hit": false,
      "t": 80137.00499999967,
      "d": 410.95899999994435,
      "v": 117
    },
    {
      "midi": 81,
      "hit": false,
      "t": 80137.00499999967,
      "d": 410.95899999994435,
      "v": 117
    },
    {
      "midi": 69,
      "hit": false,
      "t": 80137.00499999967,
      "d": 410.95899999994435,
      "v": 117
    },
    {
      "midi": 36,
      "hit": false,
      "t": 80137.00499999967,
      "d": 51.36987500000396,
      "v": 107
    },
    {
      "midi": 13,
      "hit": false,
      "t": 80137.00499999967,
      "d": 51.36987500000396,
      "v": 127
    },
    {
      "midi": 42,
      "hit": false,
      "t": 80137.00499999974,
      "d": 102.73974999999336,
      "v": 107
    },
    {
      "midi": 81,
      "hit": false,
      "t": 80137.00499999995,
      "d": 407.53434166667284,
      "v": 93
    },
    {
      "midi": 69,
      "hit": false,
      "t": 80137.00499999995,
      "d": 407.53434166667284,
      "v": 93
    },
    {
      "midi": 70,
      "hit": false,
      "t": 80239.74474999911,
      "d": 51.36987500000396,
      "v": 49
    },
    {
      "midi": 69,
      "hit": false,
      "t": 80239.74474999911,
      "d": 51.36987500000396,
      "v": 39
    },
    {
      "midi": 67,
      "hit": false,
      "t": 80239.74474999928,
      "d": 102.73974999999336,
      "v": 33
    },
    {
      "midi": 63,
      "hit": false,
      "t": 80239.74474999928,
      "d": 102.73974999999336,
      "v": 41
    },
    {
      "midi": 60,
      "hit": false,
      "t": 80239.74474999928,
      "d": 102.73974999999336,
      "v": 32
    },
    {
      "midi": 45,
      "hit": false,
      "t": 80339.05984166602,
      "d": 51.36987500000396,
      "v": 107
    },
    {
      "midi": 60,
      "hit": false,
      "t": 80339.05984166618,
      "d": 0,
      "v": 115
    },
    {
      "midi": 55,
      "hit": false,
      "t": 80339.05984166618,
      "d": 0,
      "v": 115
    },
    {
      "midi": 70,
      "hit": false,
      "t": 80342.48449999912,
      "d": 51.36987500000396,
      "v": 109
    },
    {
      "midi": 69,
      "hit": false,
      "t": 80342.48449999912,
      "d": 51.36987500000396,
      "v": 99
    },
    {
      "midi": 63,
      "hit": false,
      "t": 80342.48449999928,
      "d": 102.73974999999336,
      "v": 98
    },
    {
      "midi": 60,
      "hit": false,
      "t": 80342.48449999928,
      "d": 102.73974999999336,
      "v": 79
    },
    {
      "midi": 67,
      "hit": false,
      "t": 80342.48449999928,
      "d": 102.73974999999336,
      "v": 79
    },
    {
      "midi": 46,
      "hit": false,
      "t": 80342.48449999989,
      "d": 205.47950000000128,
      "v": 107
    },
    {
      "midi": 45,
      "hit": false,
      "t": 80441.79959166603,
      "d": 51.36987500000396,
      "v": 107
    },
    {
      "midi": 70,
      "hit": false,
      "t": 80445.22424999913,
      "d": 51.36987500000396,
      "v": 53
    },
    {
      "midi": 69,
      "hit": false,
      "t": 80445.22424999913,
      "d": 51.36987500000396,
      "v": 43
    },
    {
      "midi": 38,
      "hit": false,
      "t": 80445.22424999962,
      "d": 51.36987500000396,
      "v": 88
    },
    {
      "midi": 40,
      "hit": false,
      "t": 80445.22424999962,
      "d": 51.36987500000396,
      "v": 88
    },
    {
      "midi": 69,
      "hit": false,
      "t": 80544.53934166512,
      "d": 616.4384999999602,
      "v": 116
    },
    {
      "midi": 67,
      "hit": false,
      "t": 80544.53934166546,
      "d": 462.32887499990466,
      "v": 122
    },
    {
      "midi": 63,
      "hit": false,
      "t": 80544.53934166546,
      "d": 462.32887499990466,
      "v": 122
    },
    {
      "midi": 69,
      "hit": false,
      "t": 80544.53934166546,
      "d": 472.60284999990836,
      "v": 124
    },
    {
      "midi": 60,
      "hit": false,
      "t": 80544.53934166546,
      "d": 479.4521666665678,
      "v": 122
    },
    {
      "midi": 33,
      "hit": false,
      "t": 80544.53934166604,
      "d": 154.10962499999732,
      "v": 107
    },
    {
      "midi": 60,
      "hit": false,
      "t": 80544.53934166618,
      "d": 0,
      "v": 118
    },
    {
      "midi": 55,
      "hit": false,
      "t": 80544.53934166618,
      "d": 0,
      "v": 118
    },
    {
      "midi": 83,
      "hit": false,
      "t": 80544.53934166627,
      "d": 410.95899999994435,
      "v": 120
    },
    {
      "midi": 71,
      "hit": false,
      "t": 80544.53934166627,
      "d": 410.95899999994435,
      "v": 120
    },
    {
      "midi": 70,
      "hit": false,
      "t": 80547.96399999913,
      "d": 51.36987500000396,
      "v": 60
    },
    {
      "midi": 69,
      "hit": false,
      "t": 80547.96399999913,
      "d": 51.36987500000396,
      "v": 50
    },
    {
      "midi": 60,
      "hit": false,
      "t": 80547.96399999927,
      "d": 102.73974999999336,
      "v": 37
    },
    {
      "midi": 63,
      "hit": false,
      "t": 80547.96399999927,
      "d": 102.73974999999336,
      "v": 47
    },
    {
      "midi": 67,
      "hit": false,
      "t": 80547.96399999927,
      "d": 102.73974999999336,
      "v": 37
    },
    {
      "midi": 83,
      "hit": false,
      "t": 80547.96399999961,
      "d": 410.95899999994435,
      "v": 120
    },
    {
      "midi": 71,
      "hit": false,
      "t": 80547.96399999961,
      "d": 410.95899999994435,
      "v": 120
    },
    {
      "midi": 83,
      "hit": false,
      "t": 80547.96399999961,
      "d": 410.95899999994435,
      "v": 120
    },
    {
      "midi": 71,
      "hit": false,
      "t": 80547.96399999961,
      "d": 410.95899999994435,
      "v": 120
    },
    {
      "midi": 36,
      "hit": false,
      "t": 80547.96399999967,
      "d": 51.36987500000396,
      "v": 107
    },
    {
      "midi": 13,
      "hit": false,
      "t": 80547.96399999967,
      "d": 51.36987500000396,
      "v": 127
    },
    {
      "midi": 42,
      "hit": false,
      "t": 80547.96399999973,
      "d": 102.73974999999336,
      "v": 102
    },
    {
      "midi": 83,
      "hit": false,
      "t": 80547.96399999995,
      "d": 407.53434166667284,
      "v": 96
    },
    {
      "midi": 71,
      "hit": false,
      "t": 80547.96399999995,
      "d": 407.53434166667284,
      "v": 96
    },
    {
      "midi": 70,
      "hit": false,
      "t": 80650.70374999914,
      "d": 51.36987500000396,
      "v": 49
    },
    {
      "midi": 69,
      "hit": false,
      "t": 80650.70374999914,
      "d": 51.36987500000396,
      "v": 39
    },
    {
      "midi": 63,
      "hit": false,
      "t": 80650.70374999926,
      "d": 102.73974999999336,
      "v": 98
    },
    {
      "midi": 67,
      "hit": false,
      "t": 80650.70374999926,
      "d": 102.73974999999336,
      "v": 85
    },
    {
      "midi": 60,
      "hit": false,
      "t": 80650.70374999926,
      "d": 102.73974999999336,
      "v": 81
    },
    {
      "midi": 38,
      "hit": false,
      "t": 80650.70374999962,
      "d": 51.36987500000396,
      "v": 69
    },
    {
      "midi": 40,
      "hit": false,
      "t": 80650.70374999962,
      "d": 51.36987500000396,
      "v": 69
    },
    {
      "midi": 45,
      "hit": false,
      "t": 80750.01884166604,
      "d": 51.36987500000396,
      "v": 107
    },
    {
      "midi": 60,
      "hit": false,
      "t": 80750.01884166618,
      "d": 0,
      "v": 86
    },
    {
      "midi": 55,
      "hit": false,
      "t": 80750.01884166618,
      "d": 0,
      "v": 86
    },
    {
      "midi": 70,
      "hit": false,
      "t": 80753.44349999915,
      "d": 51.36987500000396,
      "v": 109
    },
    {
      "midi": 69,
      "hit": false,
      "t": 80753.44349999915,
      "d": 51.36987500000396,
      "v": 99
    },
    {
      "midi": 63,
      "hit": false,
      "t": 80753.44349999925,
      "d": 102.73974999999336,
      "v": 78
    },
    {
      "midi": 67,
      "hit": false,
      "t": 80753.44349999925,
      "d": 102.73974999999336,
      "v": 78
    },
    {
      "midi": 60,
      "hit": false,
      "t": 80753.44349999925,
      "d": 205.47949999998673,
      "v": 78
    },
    {
      "midi": 46,
      "hit": false,
      "t": 80753.44349999989,
      "d": 102.73974999999336,
      "v": 107
    },
    {
      "midi": 45,
      "hit": false,
      "t": 80852.75859166605,
      "d": 51.36987500000396,
      "v": 107
    },
    {
      "midi": 70,
      "hit": false,
      "t": 80856.18324999916,
      "d": 51.36987500000396,
      "v": 53
    },
    {
      "midi": 69,
      "hit": false,
      "t": 80856.18324999916,
      "d": 51.36987500000396,
      "v": 43
    },
    {
      "midi": 33,
      "hit": false,
      "t": 80955.49834166605,
      "d": 154.10962499999732,
      "v": 107
    },
    {
      "midi": 60,
      "hit": false,
      "t": 80955.49834166619,
      "d": 0,
      "v": 100
    },
    {
      "midi": 55,
      "hit": false,
      "t": 80955.49834166619,
      "d": 0,
      "v": 100
    },
    {
      "midi": 84,
      "hit": false,
      "t": 80955.49834166621,
      "d": 410.95899999994435,
      "v": 122
    },
    {
      "midi": 72,
      "hit": false,
      "t": 80955.49834166621,
      "d": 410.95899999994435,
      "v": 122
    },
    {
      "midi": 109,
      "hit": false,
      "t": 80955.49834166665,
      "d": 51.36987500000396,
      "v": 127
    },
    {
      "midi": 70,
      "hit": false,
      "t": 80958.92299999917,
      "d": 51.36987500000396,
      "v": 60
    },
    {
      "midi": 69,
      "hit": false,
      "t": 80958.92299999917,
      "d": 51.36987500000396,
      "v": 50
    },
    {
      "midi": 67,
      "hit": false,
      "t": 80958.92299999924,
      "d": 102.73974999999336,
      "v": 77
    },
    {
      "midi": 63,
      "hit": false,
      "t": 80958.92299999924,
      "d": 102.73974999999336,
      "v": 94
    },
    {
      "midi": 60,
      "hit": false,
      "t": 80958.92299999924,
      "d": 102.73974999999336,
      "v": 72
    },
    {
      "midi": 84,
      "hit": false,
      "t": 80958.92299999956,
      "d": 410.95899999994435,
      "v": 122
    },
    {
      "midi": 72,
      "hit": false,
      "t": 80958.92299999956,
      "d": 410.95899999994435,
      "v": 122
    },
    {
      "midi": 84,
      "hit": false,
      "t": 80958.92299999956,
      "d": 410.95899999994435,
      "v": 122
    },
    {
      "midi": 72,
      "hit": false,
      "t": 80958.92299999956,
      "d": 410.95899999994435,
      "v": 122
    },
    {
      "midi": 38,
      "hit": false,
      "t": 80958.92299999963,
      "d": 51.36987500000396,
      "v": 88
    },
    {
      "midi": 40,
      "hit": false,
      "t": 80958.92299999963,
      "d": 51.36987500000396,
      "v": 88
    },
    {
      "midi": 36,
      "hit": false,
      "t": 80958.92299999968,
      "d": 51.36987500000396,
      "v": 107
    },
    {
      "midi": 13,
      "hit": false,
      "t": 80958.92299999968,
      "d": 51.36987500000396,
      "v": 127
    },
    {
      "midi": 42,
      "hit": false,
      "t": 80958.92299999972,
      "d": 102.73974999999336,
      "v": 107
    },
    {
      "midi": 84,
      "hit": false,
      "t": 80958.92299999995,
      "d": 407.53434166667284,
      "v": 99
    },
    {
      "midi": 72,
      "hit": false,
      "t": 80958.92299999995,
      "d": 407.53434166667284,
      "v": 99
    },
    {
      "midi": 70,
      "hit": false,
      "t": 81061.66274999917,
      "d": 51.36987500000396,
      "v": 49
    },
    {
      "midi": 69,
      "hit": false,
      "t": 81061.66274999917,
      "d": 51.36987500000396,
      "v": 39
    },
    {
      "midi": 45,
      "hit": false,
      "t": 81160.97784166606,
      "d": 51.36987500000396,
      "v": 107
    },
    {
      "midi": 55,
      "hit": false,
      "t": 81160.97784166619,
      "d": 0,
      "v": 111
    },
    {
      "midi": 60,
      "hit": false,
      "t": 81160.97784166619,
      "d": 0,
      "v": 111
    },
    {
      "midi": 70,
      "hit": false,
      "t": 81164.40249999918,
      "d": 51.36987500000396,
      "v": 109
    },
    {
      "midi": 69,
      "hit": false,
      "t": 81164.40249999918,
      "d": 51.36987500000396,
      "v": 99
    },
    {
      "midi": 38,
      "hit": false,
      "t": 81164.40249999963,
      "d": 51.36987500000396,
      "v": 68
    },
    {
      "midi": 40,
      "hit": false,
      "t": 81164.40249999963,
      "d": 51.36987500000396,
      "v": 68
    },
    {
      "midi": 46,
      "hit": false,
      "t": 81164.40249999988,
      "d": 102.73974999999336,
      "v": 107
    },
    {
      "midi": 45,
      "hit": false,
      "t": 81263.71759166606,
      "d": 51.36987500000396,
      "v": 107
    },
    {
      "midi": 70,
      "hit": false,
      "t": 81267.14224999919,
      "d": 51.36987500000396,
      "v": 53
    },
    {
      "midi": 69,
      "hit": false,
      "t": 81267.14224999919,
      "d": 51.36987500000396,
      "v": 43
    },
    {
      "midi": 38,
      "hit": false,
      "t": 81267.14224999964,
      "d": 51.36987500000396,
      "v": 52
    },
    {
      "midi": 40,
      "hit": false,
      "t": 81267.14224999964,
      "d": 51.36987500000396,
      "v": 52
    },
    {
      "midi": 71,
      "hit": false,
      "t": 81366.45734166508,
      "d": 547.9453333332785,
      "v": 127
    },
    {
      "midi": 33,
      "hit": false,
      "t": 81366.45734166607,
      "d": 154.10962499999732,
      "v": 107
    },
    {
      "midi": 60,
      "hit": false,
      "t": 81366.45734166612,
      "d": 530.8220416665863,
      "v": 116
    },
    {
      "midi": 63,
      "hit": false,
      "t": 81366.45734166612,
      "d": 547.9453333332494,
      "v": 116
    },
    {
      "midi": 67,
      "hit": false,
      "t": 81366.45734166612,
      "d": 547.9453333332494,
      "v": 116
    },
    {
      "midi": 71,
      "hit": false,
      "t": 81366.45734166612,
      "d": 547.9453333332494,
      "v": 127
    },
    {
      "midi": 87,
      "hit": false,
      "t": 81366.45734166616,
      "d": 1643.835999999952,
      "v": 127
    },
    {
      "midi": 75,
      "hit": false,
      "t": 81366.45734166616,
      "d": 1643.835999999952,
      "v": 127
    },
    {
      "midi": 55,
      "hit": false,
      "t": 81366.45734166619,
      "d": 578.7672583333333,
      "v": 86
    },
    {
      "midi": 51,
      "hit": false,
      "t": 81366.45734166619,
      "d": 599.3152083333262,
      "v": 86
    },
    {
      "midi": 70,
      "hit": false,
      "t": 81369.8819999992,
      "d": 51.36987500000396,
      "v": 60
    },
    {
      "midi": 69,
      "hit": false,
      "t": 81369.8819999992,
      "d": 51.36987500000396,
      "v": 50
    },
    {
      "midi": 67,
      "hit": false,
      "t": 81369.88199999923,
      "d": 205.47949999998673,
      "v": 88
    },
    {
      "midi": 63,
      "hit": false,
      "t": 81369.88199999923,
      "d": 205.47949999998673,
      "v": 107
    },
    {
      "midi": 60,
      "hit": false,
      "t": 81369.88199999923,
      "d": 205.47949999998673,
      "v": 79
    },
    {
      "midi": 87,
      "hit": false,
      "t": 81369.8819999995,
      "d": 1643.835999999952,
      "v": 127
    },
    {
      "midi": 75,
      "hit": false,
      "t": 81369.8819999995,
      "d": 1643.835999999952,
      "v": 127
    },
    {
      "midi": 87,
      "hit": false,
      "t": 81369.8819999995,
      "d": 1643.835999999952,
      "v": 127
    },
    {
      "midi": 75,
      "hit": false,
      "t": 81369.8819999995,
      "d": 1643.835999999952,
      "v": 127
    },
    {
      "midi": 38,
      "hit": false,
      "t": 81369.88199999965,
      "d": 51.36987500000396,
      "v": 63
    },
    {
      "midi": 40,
      "hit": false,
      "t": 81369.88199999965,
      "d": 51.36987500000396,
      "v": 63
    },
    {
      "midi": 36,
      "hit": false,
      "t": 81369.88199999968,
      "d": 51.36987500000396,
      "v": 107
    },
    {
      "midi": 13,
      "hit": false,
      "t": 81369.88199999968,
      "d": 51.36987500000396,
      "v": 127
    },
    {
      "midi": 42,
      "hit": false,
      "t": 81369.8819999997,
      "d": 102.73974999999336,
      "v": 107
    },
    {
      "midi": 87,
      "hit": false,
      "t": 81369.88199999995,
      "d": 815.0686833333311,
      "v": 105
    },
    {
      "midi": 75,
      "hit": false,
      "t": 81369.88199999995,
      "d": 815.0686833333311,
      "v": 105
    },
    {
      "midi": 57,
      "hit": false,
      "t": 81369.88200000009,
      "d": 1643.8359999999957,
      "v": 80
    },
    {
      "midi": 63,
      "hit": false,
      "t": 81369.88200000009,
      "d": 1643.8359999999957,
      "v": 80
    },
    {
      "midi": 60,
      "hit": false,
      "t": 81369.88200000009,
      "d": 1643.8359999999957,
      "v": 80
    },
    {
      "midi": 67,
      "hit": false,
      "t": 81369.88200000009,
      "d": 1643.8359999999957,
      "v": 80
    },
    {
      "midi": 70,
      "hit": false,
      "t": 81472.6217499992,
      "d": 51.36987500000396,
      "v": 49
    },
    {
      "midi": 69,
      "hit": false,
      "t": 81472.6217499992,
      "d": 51.36987500000396,
      "v": 39
    },
    {
      "midi": 45,
      "hit": false,
      "t": 81571.93684166607,
      "d": 51.36987500000396,
      "v": 107
    },
    {
      "midi": 70,
      "hit": false,
      "t": 81575.36149999921,
      "d": 51.36987500000396,
      "v": 109
    },
    {
      "midi": 69,
      "hit": false,
      "t": 81575.36149999921,
      "d": 51.36987500000396,
      "v": 99
    },
    {
      "midi": 46,
      "hit": false,
      "t": 81575.36149999987,
      "d": 102.73974999999336,
      "v": 107
    },
    {
      "midi": 45,
      "hit": false,
      "t": 81674.67659166608,
      "d": 51.36987500000396,
      "v": 107
    },
    {
      "midi": 67,
      "hit": false,
      "t": 81678.1012499992,
      "d": 102.73974999999336,
      "v": 70
    },
    {
      "midi": 60,
      "hit": false,
      "t": 81678.1012499992,
      "d": 102.73974999999336,
      "v": 67
    },
    {
      "midi": 63,
      "hit": false,
      "t": 81678.1012499992,
      "d": 102.73974999999336,
      "v": 85
    },
    {
      "midi": 70,
      "hit": false,
      "t": 81678.10124999922,
      "d": 51.36987500000396,
      "v": 53
    },
    {
      "midi": 69,
      "hit": false,
      "t": 81678.10124999922,
      "d": 51.36987500000396,
      "v": 43
    },
    {
      "midi": 33,
      "hit": false,
      "t": 81777.41634166609,
      "d": 154.10962499999732,
      "v": 107
    },
    {
      "midi": 109,
      "hit": false,
      "t": 81777.41634166666,
      "d": 51.36987500000396,
      "v": 127
    },
    {
      "midi": 70,
      "hit": false,
      "t": 81780.84099999923,
      "d": 51.36987500000396,
      "v": 60
    },
    {
      "midi": 69,
      "hit": false,
      "t": 81780.84099999923,
      "d": 51.36987500000396,
      "v": 50
    },
    {
      "midi": 38,
      "hit": false,
      "t": 81780.84099999965,
      "d": 51.36987500000396,
      "v": 88
    },
    {
      "midi": 40,
      "hit": false,
      "t": 81780.84099999965,
      "d": 51.36987500000396,
      "v": 88
    },
    {
      "midi": 36,
      "hit": false,
      "t": 81780.84099999968,
      "d": 51.36987500000396,
      "v": 107
    },
    {
      "midi": 13,
      "hit": false,
      "t": 81780.84099999968,
      "d": 51.36987500000396,
      "v": 127
    },
    {
      "midi": 42,
      "hit": false,
      "t": 81780.8409999997,
      "d": 102.73974999999336,
      "v": 107
    },
    {
      "midi": 67,
      "hit": false,
      "t": 81883.5807499992,
      "d": 102.73974999999336,
      "v": 33
    },
    {
      "midi": 63,
      "hit": false,
      "t": 81883.5807499992,
      "d": 102.73974999999336,
      "v": 41
    },
    {
      "midi": 60,
      "hit": false,
      "t": 81883.5807499992,
      "d": 102.73974999999336,
      "v": 32
    },
    {
      "midi": 70,
      "hit": false,
      "t": 81883.58074999924,
      "d": 51.36987500000396,
      "v": 49
    },
    {
      "midi": 69,
      "hit": false,
      "t": 81883.58074999924,
      "d": 51.36987500000396,
      "v": 39
    },
    {
      "midi": 69,
      "hit": false,
      "t": 81982.89584166501,
      "d": 582.1919166666339,
      "v": 120
    },
    {
      "midi": 67,
      "hit": false,
      "t": 81982.89584166603,
      "d": 530.8220416665863,
      "v": 101
    },
    {
      "midi": 69,
      "hit": false,
      "t": 81982.89584166603,
      "d": 547.9453333332494,
      "v": 117
    },
    {
      "midi": 63,
      "hit": false,
      "t": 81982.89584166603,
      "d": 565.0686249999126,
      "v": 101
    },
    {
      "midi": 60,
      "hit": false,
      "t": 81982.89584166603,
      "d": 565.0686249999126,
      "v": 101
    },
    {
      "midi": 45,
      "hit": false,
      "t": 81982.89584166609,
      "d": 51.36987500000396,
      "v": 107
    },
    {
      "midi": 60,
      "hit": false,
      "t": 81982.89584166618,
      "d": 3.4246583333297167,
      "v": 70
    },
    {
      "midi": 48,
      "hit": false,
      "t": 81982.89584166618,
      "d": 609.5891833333299,
      "v": 70
    },
    {
      "midi": 55,
      "hit": false,
      "t": 81982.89584166618,
      "d": 609.5891833333299,
      "v": 70
    },
    {
      "midi": 63,
      "hit": false,
      "t": 81986.32049999919,
      "d": 102.73974999999336,
      "v": 98
    },
    {
      "midi": 60,
      "hit": false,
      "t": 81986.32049999919,
      "d": 102.73974999999336,
      "v": 79
    },
    {
      "midi": 67,
      "hit": false,
      "t": 81986.32049999919,
      "d": 102.73974999999336,
      "v": 79
    },
    {
      "midi": 70,
      "hit": false,
      "t": 81986.32049999924,
      "d": 51.36987500000396,
      "v": 109
    },
    {
      "midi": 69,
      "hit": false,
      "t": 81986.32049999924,
      "d": 51.36987500000396,
      "v": 99
    },
    {
      "midi": 46,
      "hit": false,
      "t": 81986.32049999986,
      "d": 205.47950000000128,
      "v": 107
    },
    {
      "midi": 45,
      "hit": false,
      "t": 82085.6355916661,
      "d": 51.36987500000396,
      "v": 107
    },
    {
      "midi": 70,
      "hit": false,
      "t": 82089.06024999925,
      "d": 51.36987500000396,
      "v": 53
    },
    {
      "midi": 69,
      "hit": false,
      "t": 82089.06024999925,
      "d": 51.36987500000396,
      "v": 43
    },
    {
      "midi": 38,
      "hit": false,
      "t": 82089.06024999966,
      "d": 51.36987500000396,
      "v": 88
    },
    {
      "midi": 40,
      "hit": false,
      "t": 82089.06024999966,
      "d": 51.36987500000396,
      "v": 88
    },
    {
      "midi": 33,
      "hit": false,
      "t": 82188.3753416661,
      "d": 154.10962499999732,
      "v": 107
    },
    {
      "midi": 60,
      "hit": false,
      "t": 82191.79999999917,
      "d": 102.73974999999336,
      "v": 37
    },
    {
      "midi": 63,
      "hit": false,
      "t": 82191.79999999917,
      "d": 102.73974999999336,
      "v": 47
    },
    {
      "midi": 67,
      "hit": false,
      "t": 82191.79999999917,
      "d": 102.73974999999336,
      "v": 37
    },
    {
      "midi": 70,
      "hit": false,
      "t": 82191.79999999926,
      "d": 51.36987500000396,
      "v": 60
    },
    {
      "midi": 69,
      "hit": false,
      "t": 82191.79999999926,
      "d": 51.36987500000396,
      "v": 50
    },
    {
      "midi": 36,
      "hit": false,
      "t": 82191.79999999968,
      "d": 51.36987500000396,
      "v": 107
    },
    {
      "midi": 13,
      "hit": false,
      "t": 82191.79999999968,
      "d": 51.36987500000396,
      "v": 127
    },
    {
      "midi": 42,
      "hit": false,
      "t": 82191.79999999968,
      "d": 102.73974999999336,
      "v": 102
    },
    {
      "midi": 91,
      "hit": false,
      "t": 82191.79999999994,
      "d": 821.9180000000051,
      "v": 99
    },
    {
      "midi": 79,
      "hit": false,
      "t": 82191.79999999994,
      "d": 821.9180000000051,
      "v": 99
    },
    {
      "midi": 63,
      "hit": false,
      "t": 82294.53974999917,
      "d": 102.73974999999336,
      "v": 98
    },
    {
      "midi": 67,
      "hit": false,
      "t": 82294.53974999917,
      "d": 102.73974999999336,
      "v": 85
    },
    {
      "midi": 60,
      "hit": false,
      "t": 82294.53974999917,
      "d": 102.73974999999336,
      "v": 81
    },
    {
      "midi": 70,
      "hit": false,
      "t": 82294.53974999927,
      "d": 51.36987500000396,
      "v": 49
    },
    {
      "midi": 69,
      "hit": false,
      "t": 82294.53974999927,
      "d": 51.36987500000396,
      "v": 39
    },
    {
      "midi": 38,
      "hit": false,
      "t": 82294.53974999966,
      "d": 51.36987500000396,
      "v": 69
    },
    {
      "midi": 40,
      "hit": false,
      "t": 82294.53974999966,
      "d": 51.36987500000396,
      "v": 69
    },
    {
      "midi": 45,
      "hit": false,
      "t": 82393.8548416661,
      "d": 51.36987500000396,
      "v": 107
    },
    {
      "midi": 63,
      "hit": false,
      "t": 82397.27949999916,
      "d": 102.73974999999336,
      "v": 78
    },
    {
      "midi": 67,
      "hit": false,
      "t": 82397.27949999916,
      "d": 102.73974999999336,
      "v": 78
    },
    {
      "midi": 60,
      "hit": false,
      "t": 82397.27949999916,
      "d": 205.47949999998673,
      "v": 78
    },
    {
      "midi": 70,
      "hit": false,
      "t": 82397.27949999928,
      "d": 51.36987500000396,
      "v": 109
    },
    {
      "midi": 69,
      "hit": false,
      "t": 82397.27949999928,
      "d": 51.36987500000396,
      "v": 99
    },
    {
      "midi": 46,
      "hit": false,
      "t": 82397.27949999986,
      "d": 102.73974999999336,
      "v": 107
    },
    {
      "midi": 45,
      "hit": false,
      "t": 82496.59459166611,
      "d": 51.36987500000396,
      "v": 107
    },
    {
      "midi": 70,
      "hit": false,
      "t": 82500.01924999928,
      "d": 51.36987500000396,
      "v": 53
    },
    {
      "midi": 69,
      "hit": false,
      "t": 82500.01924999928,
      "d": 51.36987500000396,
      "v": 43
    },
    {
      "midi": 67,
      "hit": false,
      "t": 82599.33434166497,
      "d": 410.95900000000256,
      "v": 116
    },
    {
      "midi": 72,
      "hit": false,
      "t": 82599.33434166593,
      "d": 205.47950000000128,
      "v": 127
    },
    {
      "midi": 63,
      "hit": false,
      "t": 82599.33434166593,
      "d": 212.3288166666607,
      "v": 118
    },
    {
      "midi": 60,
      "hit": false,
      "t": 82599.33434166593,
      "d": 222.60279166666442,
      "v": 118
    },
    {
      "midi": 67,
      "hit": false,
      "t": 82599.33434166593,
      "d": 229.45210833332385,
      "v": 118
    },
    {
      "midi": 33,
      "hit": false,
      "t": 82599.33434166612,
      "d": 154.10962499999732,
      "v": 107
    },
    {
      "midi": 51,
      "hit": false,
      "t": 82599.33434166617,
      "d": 13.698633333333419,
      "v": 92
    },
    {
      "midi": 55,
      "hit": false,
      "t": 82599.33434166617,
      "d": 404.1096833333286,
      "v": 92
    },
    {
      "midi": 60,
      "hit": false,
      "t": 82599.33434166617,
      "d": 448.630241666644,
      "v": 92
    },
    {
      "midi": 109,
      "hit": false,
      "t": 82599.33434166666,
      "d": 51.36987500000396,
      "v": 127
    },
    {
      "midi": 67,
      "hit": false,
      "t": 82602.75899999915,
      "d": 102.73974999999336,
      "v": 77
    },
    {
      "midi": 63,
      "hit": false,
      "t": 82602.75899999915,
      "d": 102.73974999999336,
      "v": 94
    },
    {
      "midi": 60,
      "hit": false,
      "t": 82602.75899999915,
      "d": 102.73974999999336,
      "v": 72
    },
    {
      "midi": 70,
      "hit": false,
      "t": 82602.75899999929,
      "d": 51.36987500000396,
      "v": 60
    },
    {
      "midi": 69,
      "hit": false,
      "t": 82602.75899999929,
      "d": 51.36987500000396,
      "v": 50
    },
    {
      "midi": 38,
      "hit": false,
      "t": 82602.75899999967,
      "d": 51.36987500000396,
      "v": 88
    },
    {
      "midi": 40,
      "hit": false,
      "t": 82602.75899999967,
      "d": 51.36987500000396,
      "v": 88
    },
    {
      "midi": 42,
      "hit": false,
      "t": 82602.75899999967,
      "d": 102.73974999999336,
      "v": 107
    },
    {
      "midi": 36,
      "hit": false,
      "t": 82602.75899999969,
      "d": 51.36987500000396,
      "v": 107
    },
    {
      "midi": 13,
      "hit": false,
      "t": 82602.75899999969,
      "d": 51.36987500000396,
      "v": 127
    },
    {
      "midi": 70,
      "hit": false,
      "t": 82705.4987499993,
      "d": 51.36987500000396,
      "v": 49
    },
    {
      "midi": 69,
      "hit": false,
      "t": 82705.4987499993,
      "d": 51.36987500000396,
      "v": 39
    },
    {
      "midi": 45,
      "hit": false,
      "t": 82804.81384166612,
      "d": 51.36987500000396,
      "v": 107
    },
    {
      "midi": 70,
      "hit": false,
      "t": 82808.23849999931,
      "d": 51.36987500000396,
      "v": 109
    },
    {
      "midi": 69,
      "hit": false,
      "t": 82808.23849999931,
      "d": 51.36987500000396,
      "v": 99
    },
    {
      "midi": 38,
      "hit": false,
      "t": 82808.23849999967,
      "d": 51.36987500000396,
      "v": 68
    },
    {
      "midi": 40,
      "hit": false,
      "t": 82808.23849999967,
      "d": 51.36987500000396,
      "v": 68
    },
    {
      "midi": 46,
      "hit": false,
      "t": 82808.23849999985,
      "d": 102.73974999999336,
      "v": 107
    },
    {
      "midi": 45,
      "hit": false,
      "t": 82907.55359166613,
      "d": 51.36987500000396,
      "v": 107
    },
    {
      "midi": 70,
      "hit": false,
      "t": 82910.97824999932,
      "d": 51.36987500000396,
      "v": 53
    },
    {
      "midi": 69,
      "hit": false,
      "t": 82910.97824999932,
      "d": 51.36987500000396,
      "v": 43
    },
    {
      "midi": 38,
      "hit": false,
      "t": 82910.97824999968,
      "d": 51.36987500000396,
      "v": 52
    },
    {
      "midi": 40,
      "hit": false,
      "t": 82910.97824999968,
      "d": 51.36987500000396,
      "v": 52
    },
    {
      "midi": 74,
      "hit": false,
      "t": 83010.29334166498,
      "d": 3287.671999999933,
      "v": 127
    },
    {
      "midi": 67,
      "hit": false,
      "t": 83010.29334166592,
      "d": 3287.672000000006,
      "v": 93
    },
    {
      "midi": 62,
      "hit": false,
      "t": 83010.29334166592,
      "d": 3287.672000000006,
      "v": 93
    },
    {
      "midi": 74,
      "hit": false,
      "t": 83010.29334166592,
      "d": 3287.672000000006,
      "v": 93
    },
    {
      "midi": 59,
      "hit": false,
      "t": 83010.29334166592,
      "d": 3287.672000000006,
      "v": 93
    },
    {
      "midi": 71,
      "hit": false,
      "t": 83010.29334166592,
      "d": 3287.672000000006,
      "v": 127
    },
    {
      "midi": 86,
      "hit": false,
      "t": 83010.29334166611,
      "d": 3287.671999999846,
      "v": 121
    },
    {
      "midi": 74,
      "hit": false,
      "t": 83010.29334166611,
      "d": 3287.671999999846,
      "v": 121
    },
    {
      "midi": 31,
      "hit": false,
      "t": 83010.29334166614,
      "d": 154.10962499999732,
      "v": 107
    },
    {
      "midi": 55,
      "hit": false,
      "t": 83010.29334166615,
      "d": 126.71235833333049,
      "v": 89
    },
    {
      "midi": 62,
      "hit": false,
      "t": 83013.71799999913,
      "d": 102.73974999999336,
      "v": 107
    },
    {
      "midi": 67,
      "hit": false,
      "t": 83013.71799999913,
      "d": 102.73974999999336,
      "v": 88
    },
    {
      "midi": 71,
      "hit": false,
      "t": 83013.71799999913,
      "d": 102.73974999999336,
      "v": 88
    },
    {
      "midi": 70,
      "hit": false,
      "t": 83013.71799999932,
      "d": 51.36987500000396,
      "v": 60
    },
    {
      "midi": 69,
      "hit": false,
      "t": 83013.71799999932,
      "d": 51.36987500000396,
      "v": 50
    },
    {
      "midi": 42,
      "hit": false,
      "t": 83013.71799999966,
      "d": 102.73974999999336,
      "v": 107
    },
    {
      "midi": 36,
      "hit": false,
      "t": 83013.71799999969,
      "d": 51.36987500000396,
      "v": 107
    },
    {
      "midi": 13,
      "hit": false,
      "t": 83013.71799999969,
      "d": 51.36987500000396,
      "v": 127
    },
    {
      "midi": 38,
      "hit": false,
      "t": 83013.71799999969,
      "d": 51.36987500000396,
      "v": 63
    },
    {
      "midi": 40,
      "hit": false,
      "t": 83013.71799999969,
      "d": 51.36987500000396,
      "v": 64
    },
    {
      "midi": 91,
      "hit": false,
      "t": 83013.71799999995,
      "d": 102.73974999999336,
      "v": 106
    },
    {
      "midi": 79,
      "hit": false,
      "t": 83013.71799999995,
      "d": 102.73974999999336,
      "v": 106
    },
    {
      "midi": 67,
      "hit": false,
      "t": 83013.71800000008,
      "d": 3287.672000000006,
      "v": 80
    },
    {
      "midi": 62,
      "hit": false,
      "t": 83013.71800000008,
      "d": 3287.672000000006,
      "v": 80
    },
    {
      "midi": 59,
      "hit": false,
      "t": 83013.71800000008,
      "d": 3287.672000000006,
      "v": 80
    },
    {
      "midi": 59,
      "hit": false,
      "t": 83027.41663333282,
      "d": 99.31509166666365,
      "v": 89
    },
    {
      "midi": 70,
      "hit": false,
      "t": 83116.45774999933,
      "d": 51.36987500000396,
      "v": 49
    },
    {
      "midi": 69,
      "hit": false,
      "t": 83116.45774999933,
      "d": 51.36987500000396,
      "v": 39
    },
    {
      "midi": 93,
      "hit": false,
      "t": 83116.45774999994,
      "d": 102.73974999999336,
      "v": 120
    },
    {
      "midi": 81,
      "hit": false,
      "t": 83116.45774999994,
      "d": 102.73974999999336,
      "v": 120
    },
    {
      "midi": 43,
      "hit": false,
      "t": 83215.77284166614,
      "d": 51.36987500000396,
      "v": 107
    },
    {
      "midi": 59,
      "hit": false,
      "t": 83215.77284166616,
      "d": 71.91782499999681,
      "v": 78
    },
    {
      "midi": 55,
      "hit": false,
      "t": 83215.77284166616,
      "d": 71.91782499999681,
      "v": 78
    },
    {
      "midi": 71,
      "hit": false,
      "t": 83219.19749999912,
      "d": 102.73974999999336,
      "v": 43
    },
    {
      "midi": 67,
      "hit": false,
      "t": 83219.19749999912,
      "d": 102.73974999999336,
      "v": 43
    },
    {
      "midi": 62,
      "hit": false,
      "t": 83219.19749999912,
      "d": 102.73974999999336,
      "v": 43
    },
    {
      "midi": 70,
      "hit": false,
      "t": 83219.19749999934,
      "d": 51.36987500000396,
      "v": 109
    },
    {
      "midi": 69,
      "hit": false,
      "t": 83219.19749999934,
      "d": 51.36987500000396,
      "v": 99
    },
    {
      "midi": 46,
      "hit": false,
      "t": 83219.19749999983,
      "d": 102.73974999999336,
      "v": 107
    },
    {
      "midi": 79,
      "hit": false,
      "t": 83219.19749999994,
      "d": 102.73974999999336,
      "v": 90
    },
    {
      "midi": 91,
      "hit": false,
      "t": 83219.19749999994,
      "d": 102.73974999999336,
      "v": 90
    },
    {
      "midi": 43,
      "hit": false,
      "t": 83318.51259166615,
      "d": 51.36987500000396,
      "v": 107
    },
    {
      "midi": 71,
      "hit": false,
      "t": 83321.93724999912,
      "d": 102.73974999999336,
      "v": 70
    },
    {
      "midi": 62,
      "hit": false,
      "t": 83321.93724999912,
      "d": 102.73974999999336,
      "v": 85
    },
    {
      "midi": 67,
      "hit": false,
      "t": 83321.93724999912,
      "d": 102.73974999999336,
      "v": 70
    },
    {
      "midi": 70,
      "hit": false,
      "t": 83321.93724999935,
      "d": 51.36987500000396,
      "v": 53
    },
    {
      "midi": 69,
      "hit": false,
      "t": 83321.93724999935,
      "d": 51.36987500000396,
      "v": 43
    },
    {
      "midi": 78,
      "hit": false,
      "t": 83321.93724999993,
      "d": 102.73974999999336,
      "v": 70
    },
    {
      "midi": 90,
      "hit": false,
      "t": 83321.93724999993,
      "d": 102.73974999999336,
      "v": 70
    },
    {
      "midi": 31,
      "hit": false,
      "t": 83421.25234166616,
      "d": 154.10962499999732,
      "v": 107
    },
    {
      "midi": 59,
      "hit": false,
      "t": 83421.25234166616,
      "d": 404.1096833333286,
      "v": 74
    },
    {
      "midi": 50,
      "hit": false,
      "t": 83421.25234166616,
      "d": 404.1096833333286,
      "v": 74
    },
    {
      "midi": 55,
      "hit": false,
      "t": 83421.25234166616,
      "d": 404.1096833333286,
      "v": 74
    },
    {
      "midi": 109,
      "hit": false,
      "t": 83421.25234166667,
      "d": 51.36987500000396,
      "v": 127
    },
    {
      "midi": 70,
      "hit": false,
      "t": 83424.67699999936,
      "d": 51.36987500000396,
      "v": 60
    },
    {
      "midi": 69,
      "hit": false,
      "t": 83424.67699999936,
      "d": 51.36987500000396,
      "v": 50
    },
    {
      "midi": 67,
      "hit": false,
      "t": 83424.67699999946,
      "d": 119.86304166667105,
      "v": 127
    },
    {
      "midi": 74,
      "hit": false,
      "t": 83424.67699999946,
      "d": 119.86304166667105,
      "v": 127
    },
    {
      "midi": 71,
      "hit": false,
      "t": 83424.67699999946,
      "d": 119.86304166667105,
      "v": 127
    },
    {
      "midi": 67,
      "hit": false,
      "t": 83424.67699999946,
      "d": 119.86304166667105,
      "v": 127
    },
    {
      "midi": 74,
      "hit": false,
      "t": 83424.67699999946,
      "d": 119.86304166667105,
      "v": 127
    },
    {
      "midi": 71,
      "hit": false,
      "t": 83424.67699999946,
      "d": 119.86304166667105,
      "v": 127
    },
    {
      "midi": 42,
      "hit": false,
      "t": 83424.67699999965,
      "d": 102.73974999999336,
      "v": 107
    },
    {
      "midi": 36,
      "hit": false,
      "t": 83424.67699999969,
      "d": 51.36987500000396,
      "v": 107
    },
    {
      "midi": 13,
      "hit": false,
      "t": 83424.67699999969,
      "d": 51.36987500000396,
      "v": 127
    },
    {
      "midi": 38,
      "hit": false,
      "t": 83424.67699999969,
      "d": 51.36987500000396,
      "v": 88
    },
    {
      "midi": 40,
      "hit": false,
      "t": 83424.67699999969,
      "d": 51.36987500000396,
      "v": 88
    },
    {
      "midi": 91,
      "hit": false,
      "t": 83424.67699999992,
      "d": 102.73974999999336,
      "v": 106
    },
    {
      "midi": 79,
      "hit": false,
      "t": 83424.67699999992,
      "d": 102.73974999999336,
      "v": 106
    },
    {
      "midi": 62,
      "hit": false,
      "t": 83527.4167499991,
      "d": 102.73974999999336,
      "v": 41
    },
    {
      "midi": 71,
      "hit": false,
      "t": 83527.4167499991,
      "d": 102.73974999999336,
      "v": 33
    },
    {
      "midi": 67,
      "hit": false,
      "t": 83527.4167499991,
      "d": 102.73974999999336,
      "v": 33
    },
    {
      "midi": 70,
      "hit": false,
      "t": 83527.41674999936,
      "d": 51.36987500000396,
      "v": 49
    },
    {
      "midi": 69,
      "hit": false,
      "t": 83527.41674999936,
      "d": 51.36987500000396,
      "v": 39
    },
    {
      "midi": 93,
      "hit": false,
      "t": 83527.41674999992,
      "d": 102.73974999999336,
      "v": 120
    },
    {
      "midi": 81,
      "hit": false,
      "t": 83527.41674999992,
      "d": 102.73974999999336,
      "v": 120
    },
    {
      "midi": 43,
      "hit": false,
      "t": 83626.73184166616,
      "d": 51.36987500000396,
      "v": 107
    },
    {
      "midi": 71,
      "hit": false,
      "t": 83630.1564999991,
      "d": 102.73974999999336,
      "v": 79
    },
    {
      "midi": 67,
      "hit": false,
      "t": 83630.1564999991,
      "d": 102.73974999999336,
      "v": 79
    },
    {
      "midi": 62,
      "hit": false,
      "t": 83630.1564999991,
      "d": 102.73974999999336,
      "v": 98
    },
    {
      "midi": 70,
      "hit": false,
      "t": 83630.15649999937,
      "d": 51.36987500000396,
      "v": 109
    },
    {
      "midi": 69,
      "hit": false,
      "t": 83630.15649999937,
      "d": 51.36987500000396,
      "v": 99
    },
    {
      "midi": 46,
      "hit": false,
      "t": 83630.15649999982,
      "d": 205.47950000000128,
      "v": 107
    },
    {
      "midi": 91,
      "hit": false,
      "t": 83630.15649999991,
      "d": 102.73974999999336,
      "v": 90
    },
    {
      "midi": 79,
      "hit": false,
      "t": 83630.15649999991,
      "d": 102.73974999999336,
      "v": 90
    },
    {
      "midi": 43,
      "hit": false,
      "t": 83729.47159166617,
      "d": 51.36987500000396,
      "v": 107
    },
    {
      "midi": 70,
      "hit": false,
      "t": 83732.89624999938,
      "d": 51.36987500000396,
      "v": 53
    },
    {
      "midi": 69,
      "hit": false,
      "t": 83732.89624999938,
      "d": 51.36987500000396,
      "v": 43
    },
    {
      "midi": 38,
      "hit": false,
      "t": 83732.8962499997,
      "d": 51.36987500000396,
      "v": 88
    },
    {
      "midi": 40,
      "hit": false,
      "t": 83732.8962499997,
      "d": 51.36987500000396,
      "v": 88
    },
    {
      "midi": 90,
      "hit": false,
      "t": 83732.8962499999,
      "d": 102.73974999999336,
      "v": 70
    },
    {
      "midi": 78,
      "hit": false,
      "t": 83732.8962499999,
      "d": 102.73974999999336,
      "v": 70
    },
    {
      "midi": 50,
      "hit": false,
      "t": 83832.21134166615,
      "d": 404.1096833333286,
      "v": 76
    },
    {
      "midi": 59,
      "hit": false,
      "t": 83832.21134166615,
      "d": 404.1096833333286,
      "v": 76
    },
    {
      "midi": 31,
      "hit": false,
      "t": 83832.21134166617,
      "d": 154.10962499999732,
      "v": 107
    },
    {
      "midi": 62,
      "hit": false,
      "t": 83835.63599999908,
      "d": 102.73974999999336,
      "v": 47
    },
    {
      "midi": 67,
      "hit": false,
      "t": 83835.63599999908,
      "d": 102.73974999999336,
      "v": 37
    },
    {
      "midi": 71,
      "hit": false,
      "t": 83835.63599999908,
      "d": 102.73974999999336,
      "v": 37
    },
    {
      "midi": 70,
      "hit": false,
      "t": 83835.63599999939,
      "d": 51.36987500000396,
      "v": 60
    },
    {
      "midi": 69,
      "hit": false,
      "t": 83835.63599999939,
      "d": 51.36987500000396,
      "v": 50
    },
    {
      "midi": 74,
      "hit": false,
      "t": 83835.63599999946,
      "d": 270.54800833333866,
      "v": 127
    },
    {
      "midi": 67,
      "hit": false,
      "t": 83835.63599999946,
      "d": 270.54800833333866,
      "v": 127
    },
    {
      "midi": 71,
      "hit": false,
      "t": 83835.63599999946,
      "d": 270.54800833333866,
      "v": 127
    },
    {
      "midi": 74,
      "hit": false,
      "t": 83835.63599999946,
      "d": 270.54800833333866,
      "v": 127
    },
    {
      "midi": 67,
      "hit": false,
      "t": 83835.63599999946,
      "d": 270.54800833333866,
      "v": 127
    },
    {
      "midi": 71,
      "hit": false,
      "t": 83835.63599999946,
      "d": 270.54800833333866,
      "v": 127
    },
    {
      "midi": 42,
      "hit": false,
      "t": 83835.63599999963,
      "d": 102.73974999999336,
      "v": 102
    },
    {
      "midi": 36,
      "hit": false,
      "t": 83835.6359999997,
      "d": 51.36987500000396,
      "v": 107
    },
    {
      "midi": 13,
      "hit": false,
      "t": 83835.6359999997,
      "d": 51.36987500000396,
      "v": 127
    },
    {
      "midi": 91,
      "hit": false,
      "t": 83835.6359999999,
      "d": 102.73974999999336,
      "v": 106
    },
    {
      "midi": 79,
      "hit": false,
      "t": 83835.6359999999,
      "d": 102.73974999999336,
      "v": 106
    },
    {
      "midi": 67,
      "hit": false,
      "t": 83938.37574999908,
      "d": 102.73974999999336,
      "v": 85
    },
    {
      "midi": 71,
      "hit": false,
      "t": 83938.37574999908,
      "d": 102.73974999999336,
      "v": 85
    },
    {
      "midi": 62,
      "hit": false,
      "t": 83938.37574999908,
      "d": 102.73974999999336,
      "v": 98
    },
    {
      "midi": 70,
      "hit": false,
      "t": 83938.3757499994,
      "d": 51.36987500000396,
      "v": 49
    },
    {
      "midi": 69,
      "hit": false,
      "t": 83938.3757499994,
      "d": 51.36987500000396,
      "v": 39
    },
    {
      "midi": 38,
      "hit": false,
      "t": 83938.3757499997,
      "d": 51.36987500000396,
      "v": 69
    },
    {
      "midi": 40,
      "hit": false,
      "t": 83938.3757499997,
      "d": 51.36987500000396,
      "v": 69
    },
    {
      "midi": 93,
      "hit": false,
      "t": 83938.37574999989,
      "d": 102.73974999999336,
      "v": 120
    },
    {
      "midi": 81,
      "hit": false,
      "t": 83938.37574999989,
      "d": 102.73974999999336,
      "v": 120
    },
    {
      "midi": 43,
      "hit": false,
      "t": 84037.69084166618,
      "d": 51.36987500000396,
      "v": 107
    },
    {
      "midi": 70,
      "hit": false,
      "t": 84041.1154999994,
      "d": 51.36987500000396,
      "v": 109
    },
    {
      "midi": 69,
      "hit": false,
      "t": 84041.1154999994,
      "d": 51.36987500000396,
      "v": 99
    },
    {
      "midi": 46,
      "hit": false,
      "t": 84041.11549999983,
      "d": 102.73974999999336,
      "v": 107
    },
    {
      "midi": 91,
      "hit": false,
      "t": 84041.11549999988,
      "d": 102.73974999999336,
      "v": 90
    },
    {
      "midi": 79,
      "hit": false,
      "t": 84041.11549999988,
      "d": 102.73974999999336,
      "v": 90
    },
    {
      "midi": 43,
      "hit": false,
      "t": 84140.43059166618,
      "d": 51.36987500000396,
      "v": 107
    },
    {
      "midi": 71,
      "hit": false,
      "t": 84143.85524999906,
      "d": 102.73974999999336,
      "v": 43
    },
    {
      "midi": 67,
      "hit": false,
      "t": 84143.85524999906,
      "d": 102.73974999999336,
      "v": 43
    },
    {
      "midi": 62,
      "hit": false,
      "t": 84143.85524999906,
      "d": 102.73974999999336,
      "v": 43
    },
    {
      "midi": 70,
      "hit": false,
      "t": 84143.85524999941,
      "d": 51.36987500000396,
      "v": 53
    },
    {
      "midi": 69,
      "hit": false,
      "t": 84143.85524999941,
      "d": 51.36987500000396,
      "v": 43
    },
    {
      "midi": 67,
      "hit": false,
      "t": 84143.85524999947,
      "d": 102.73974999999336,
      "v": 127
    },
    {
      "midi": 74,
      "hit": false,
      "t": 84143.85524999947,
      "d": 102.73974999999336,
      "v": 127
    },
    {
      "midi": 71,
      "hit": false,
      "t": 84143.85524999947,
      "d": 102.73974999999336,
      "v": 127
    },
    {
      "midi": 67,
      "hit": false,
      "t": 84143.85524999947,
      "d": 102.73974999999336,
      "v": 127
    },
    {
      "midi": 74,
      "hit": false,
      "t": 84143.85524999947,
      "d": 102.73974999999336,
      "v": 127
    },
    {
      "midi": 71,
      "hit": false,
      "t": 84143.85524999947,
      "d": 102.73974999999336,
      "v": 127
    },
    {
      "midi": 36,
      "hit": false,
      "t": 84143.8552499997,
      "d": 51.36987500000396,
      "v": 107
    },
    {
      "midi": 13,
      "hit": false,
      "t": 84143.8552499997,
      "d": 51.36987500000396,
      "v": 127
    },
    {
      "midi": 90,
      "hit": false,
      "t": 84143.85524999988,
      "d": 102.73974999999336,
      "v": 70
    },
    {
      "midi": 78,
      "hit": false,
      "t": 84143.85524999988,
      "d": 102.73974999999336,
      "v": 70
    },
    {
      "midi": 55,
      "hit": false,
      "t": 84243.17034166613,
      "d": 13.698633333333419,
      "v": 82
    },
    {
      "midi": 59,
      "hit": false,
      "t": 84243.17034166613,
      "d": 404.1096833333286,
      "v": 82
    },
    {
      "midi": 50,
      "hit": false,
      "t": 84243.17034166613,
      "d": 404.1096833333286,
      "v": 82
    },
    {
      "midi": 31,
      "hit": false,
      "t": 84243.17034166619,
      "d": 154.10962499999732,
      "v": 107
    },
    {
      "midi": 109,
      "hit": false,
      "t": 84243.17034166667,
      "d": 51.36987500000396,
      "v": 127
    },
    {
      "midi": 71,
      "hit": false,
      "t": 84246.59499999906,
      "d": 102.73974999999336,
      "v": 77
    },
    {
      "midi": 67,
      "hit": false,
      "t": 84246.59499999906,
      "d": 102.73974999999336,
      "v": 77
    },
    {
      "midi": 62,
      "hit": false,
      "t": 84246.59499999906,
      "d": 102.73974999999336,
      "v": 94
    },
    {
      "midi": 70,
      "hit": false,
      "t": 84246.59499999942,
      "d": 51.36987500000396,
      "v": 60
    },
    {
      "midi": 69,
      "hit": false,
      "t": 84246.59499999942,
      "d": 51.36987500000396,
      "v": 50
    },
    {
      "midi": 42,
      "hit": false,
      "t": 84246.59499999962,
      "d": 102.73974999999336,
      "v": 107
    },
    {
      "midi": 36,
      "hit": false,
      "t": 84246.59499999971,
      "d": 51.36987500000396,
      "v": 107
    },
    {
      "midi": 13,
      "hit": false,
      "t": 84246.59499999971,
      "d": 51.36987500000396,
      "v": 127
    },
    {
      "midi": 38,
      "hit": false,
      "t": 84246.59499999971,
      "d": 51.36987500000396,
      "v": 88
    },
    {
      "midi": 40,
      "hit": false,
      "t": 84246.59499999971,
      "d": 51.36987500000396,
      "v": 88
    },
    {
      "midi": 91,
      "hit": false,
      "t": 84246.59499999987,
      "d": 102.73974999999336,
      "v": 106
    },
    {
      "midi": 79,
      "hit": false,
      "t": 84246.59499999987,
      "d": 102.73974999999336,
      "v": 106
    },
    {
      "midi": 70,
      "hit": false,
      "t": 84349.33474999943,
      "d": 51.36987500000396,
      "v": 49
    },
    {
      "midi": 69,
      "hit": false,
      "t": 84349.33474999943,
      "d": 51.36987500000396,
      "v": 39
    },
    {
      "midi": 93,
      "hit": false,
      "t": 84349.33474999986,
      "d": 102.73974999999336,
      "v": 120
    },
    {
      "midi": 81,
      "hit": false,
      "t": 84349.33474999986,
      "d": 102.73974999999336,
      "v": 120
    },
    {
      "midi": 43,
      "hit": false,
      "t": 84448.64984166619,
      "d": 51.36987500000396,
      "v": 107
    },
    {
      "midi": 71,
      "hit": false,
      "t": 84452.07449999904,
      "d": 102.73974999999336,
      "v": 43
    },
    {
      "midi": 67,
      "hit": false,
      "t": 84452.07449999904,
      "d": 102.73974999999336,
      "v": 43
    },
    {
      "midi": 62,
      "hit": false,
      "t": 84452.07449999904,
      "d": 102.73974999999336,
      "v": 43
    },
    {
      "midi": 70,
      "hit": false,
      "t": 84452.07449999943,
      "d": 51.36987500000396,
      "v": 109
    },
    {
      "midi": 69,
      "hit": false,
      "t": 84452.07449999943,
      "d": 51.36987500000396,
      "v": 99
    },
    {
      "midi": 67,
      "hit": false,
      "t": 84452.07449999946,
      "d": 99.31509166666365,
      "v": 127
    },
    {
      "midi": 71,
      "hit": false,
      "t": 84452.07449999946,
      "d": 99.31509166666365,
      "v": 127
    },
    {
      "midi": 74,
      "hit": false,
      "t": 84452.07449999946,
      "d": 109.58906666666735,
      "v": 127
    },
    {
      "midi": 67,
      "hit": false,
      "t": 84452.07449999946,
      "d": 99.31509166666365,
      "v": 127
    },
    {
      "midi": 71,
      "hit": false,
      "t": 84452.07449999946,
      "d": 99.31509166666365,
      "v": 127
    },
    {
      "midi": 74,
      "hit": false,
      "t": 84452.07449999946,
      "d": 109.58906666666735,
      "v": 127
    },
    {
      "midi": 36,
      "hit": false,
      "t": 84452.07449999971,
      "d": 51.36987500000396,
      "v": 107
    },
    {
      "midi": 13,
      "hit": false,
      "t": 84452.07449999971,
      "d": 51.36987500000396,
      "v": 127
    },
    {
      "midi": 38,
      "hit": false,
      "t": 84452.07449999971,
      "d": 51.36987500000396,
      "v": 68
    },
    {
      "midi": 40,
      "hit": false,
      "t": 84452.07449999971,
      "d": 51.36987500000396,
      "v": 68
    },
    {
      "midi": 46,
      "hit": false,
      "t": 84452.07449999981,
      "d": 102.73974999999336,
      "v": 107
    },
    {
      "midi": 91,
      "hit": false,
      "t": 84452.07449999986,
      "d": 102.73974999999336,
      "v": 90
    },
    {
      "midi": 79,
      "hit": false,
      "t": 84452.07449999986,
      "d": 102.73974999999336,
      "v": 90
    },
    {
      "midi": 43,
      "hit": false,
      "t": 84551.3895916662,
      "d": 51.36987500000396,
      "v": 107
    },
    {
      "midi": 71,
      "hit": false,
      "t": 84554.81424999904,
      "d": 102.73974999999336,
      "v": 107
    },
    {
      "midi": 67,
      "hit": false,
      "t": 84554.81424999904,
      "d": 102.73974999999336,
      "v": 107
    },
    {
      "midi": 62,
      "hit": false,
      "t": 84554.81424999904,
      "d": 102.73974999999336,
      "v": 107
    },
    {
      "midi": 70,
      "hit": false,
      "t": 84554.81424999944,
      "d": 51.36987500000396,
      "v": 53
    },
    {
      "midi": 69,
      "hit": false,
      "t": 84554.81424999944,
      "d": 51.36987500000396,
      "v": 43
    },
    {
      "midi": 38,
      "hit": false,
      "t": 84554.81424999972,
      "d": 51.36987500000396,
      "v": 52
    },
    {
      "midi": 40,
      "hit": false,
      "t": 84554.81424999972,
      "d": 51.36987500000396,
      "v": 52
    },
    {
      "midi": 90,
      "hit": false,
      "t": 84554.81424999985,
      "d": 102.73974999999336,
      "v": 70
    },
    {
      "midi": 78,
      "hit": false,
      "t": 84554.81424999985,
      "d": 102.73974999999336,
      "v": 70
    },
    {
      "midi": 59,
      "hit": false,
      "t": 84654.12934166612,
      "d": 92.46577500000421,
      "v": 92
    },
    {
      "midi": 55,
      "hit": false,
      "t": 84654.12934166612,
      "d": 99.31509166666365,
      "v": 92
    },
    {
      "midi": 31,
      "hit": false,
      "t": 84654.12934166621,
      "d": 154.10962499999732,
      "v": 107
    },
    {
      "midi": 62,
      "hit": false,
      "t": 84657.55399999903,
      "d": 102.73974999999336,
      "v": 107
    },
    {
      "midi": 67,
      "hit": false,
      "t": 84657.55399999903,
      "d": 102.73974999999336,
      "v": 88
    },
    {
      "midi": 71,
      "hit": false,
      "t": 84657.55399999903,
      "d": 102.73974999999336,
      "v": 88
    },
    {
      "midi": 70,
      "hit": false,
      "t": 84657.55399999945,
      "d": 51.36987500000396,
      "v": 60
    },
    {
      "midi": 69,
      "hit": false,
      "t": 84657.55399999945,
      "d": 51.36987500000396,
      "v": 50
    },
    {
      "midi": 42,
      "hit": false,
      "t": 84657.55399999961,
      "d": 102.73974999999336,
      "v": 107
    },
    {
      "midi": 36,
      "hit": false,
      "t": 84657.55399999971,
      "d": 51.36987500000396,
      "v": 107
    },
    {
      "midi": 13,
      "hit": false,
      "t": 84657.55399999971,
      "d": 51.36987500000396,
      "v": 127
    },
    {
      "midi": 38,
      "hit": false,
      "t": 84657.55399999973,
      "d": 51.36987500000396,
      "v": 64
    },
    {
      "midi": 40,
      "hit": false,
      "t": 84657.55399999973,
      "d": 51.36987500000396,
      "v": 64
    },
    {
      "midi": 91,
      "hit": false,
      "t": 84657.55399999984,
      "d": 102.73974999999336,
      "v": 106
    },
    {
      "midi": 79,
      "hit": false,
      "t": 84657.55399999984,
      "d": 102.73974999999336,
      "v": 106
    },
    {
      "midi": 70,
      "hit": false,
      "t": 84760.29374999946,
      "d": 51.36987500000396,
      "v": 49
    },
    {
      "midi": 69,
      "hit": false,
      "t": 84760.29374999946,
      "d": 51.36987500000396,
      "v": 39
    },
    {
      "midi": 93,
      "hit": false,
      "t": 84760.29374999984,
      "d": 102.73974999999336,
      "v": 120
    },
    {
      "midi": 81,
      "hit": false,
      "t": 84760.29374999984,
      "d": 102.73974999999336,
      "v": 120
    },
    {
      "midi": 59,
      "hit": false,
      "t": 84859.60884166612,
      "d": 68.4931666666671,
      "v": 83
    },
    {
      "midi": 55,
      "hit": false,
      "t": 84859.60884166612,
      "d": 71.91782499999681,
      "v": 83
    },
    {
      "midi": 43,
      "hit": false,
      "t": 84859.60884166621,
      "d": 51.36987500000396,
      "v": 107
    },
    {
      "midi": 71,
      "hit": false,
      "t": 84863.03349999902,
      "d": 102.73974999999336,
      "v": 43
    },
    {
      "midi": 67,
      "hit": false,
      "t": 84863.03349999902,
      "d": 102.73974999999336,
      "v": 43
    },
    {
      "midi": 62,
      "hit": false,
      "t": 84863.03349999902,
      "d": 102.73974999999336,
      "v": 43
    },
    {
      "midi": 70,
      "hit": false,
      "t": 84863.03349999947,
      "d": 51.36987500000396,
      "v": 109
    },
    {
      "midi": 69,
      "hit": false,
      "t": 84863.03349999947,
      "d": 51.36987500000396,
      "v": 99
    },
    {
      "midi": 46,
      "hit": false,
      "t": 84863.0334999998,
      "d": 102.73974999999336,
      "v": 107
    },
    {
      "midi": 91,
      "hit": false,
      "t": 84863.03349999983,
      "d": 102.73974999999336,
      "v": 90
    },
    {
      "midi": 79,
      "hit": false,
      "t": 84863.03349999983,
      "d": 102.73974999999336,
      "v": 90
    },
    {
      "midi": 43,
      "hit": false,
      "t": 84962.34859166622,
      "d": 51.36987500000396,
      "v": 107
    },
    {
      "midi": 71,
      "hit": false,
      "t": 84965.77324999901,
      "d": 102.73974999999336,
      "v": 70
    },
    {
      "midi": 62,
      "hit": false,
      "t": 84965.77324999901,
      "d": 102.73974999999336,
      "v": 85
    },
    {
      "midi": 67,
      "hit": false,
      "t": 84965.77324999901,
      "d": 102.73974999999336,
      "v": 70
    },
    {
      "midi": 70,
      "hit": false,
      "t": 84965.77324999947,
      "d": 51.36987500000396,
      "v": 53
    },
    {
      "midi": 69,
      "hit": false,
      "t": 84965.77324999947,
      "d": 51.36987500000396,
      "v": 43
    },
    {
      "midi": 90,
      "hit": false,
      "t": 84965.77324999982,
      "d": 102.73974999999336,
      "v": 70
    },
    {
      "midi": 78,
      "hit": false,
      "t": 84965.77324999982,
      "d": 102.73974999999336,
      "v": 70
    },
    {
      "midi": 50,
      "hit": false,
      "t": 85065.08834166612,
      "d": 404.1096833333286,
      "v": 76
    },
    {
      "midi": 31,
      "hit": false,
      "t": 85065.08834166623,
      "d": 154.10962499999732,
      "v": 107
    },
    {
      "midi": 109,
      "hit": false,
      "t": 85065.08834166668,
      "d": 51.36987500000396,
      "v": 127
    },
    {
      "midi": 67,
      "hit": false,
      "t": 85068.51299999947,
      "d": 119.86304166667105,
      "v": 127
    },
    {
      "midi": 74,
      "hit": false,
      "t": 85068.51299999947,
      "d": 119.86304166667105,
      "v": 127
    },
    {
      "midi": 71,
      "hit": false,
      "t": 85068.51299999947,
      "d": 119.86304166667105,
      "v": 127
    },
    {
      "midi": 67,
      "hit": false,
      "t": 85068.51299999947,
      "d": 119.86304166667105,
      "v": 127
    },
    {
      "midi": 74,
      "hit": false,
      "t": 85068.51299999947,
      "d": 119.86304166667105,
      "v": 127
    },
    {
      "midi": 71,
      "hit": false,
      "t": 85068.51299999947,
      "d": 119.86304166667105,
      "v": 127
    },
    {
      "midi": 70,
      "hit": false,
      "t": 85068.51299999948,
      "d": 51.36987500000396,
      "v": 60
    },
    {
      "midi": 69,
      "hit": false,
      "t": 85068.51299999948,
      "d": 51.36987500000396,
      "v": 50
    },
    {
      "midi": 42,
      "hit": false,
      "t": 85068.5129999996,
      "d": 102.73974999999336,
      "v": 107
    },
    {
      "midi": 36,
      "hit": false,
      "t": 85068.51299999972,
      "d": 51.36987500000396,
      "v": 107
    },
    {
      "midi": 13,
      "hit": false,
      "t": 85068.51299999972,
      "d": 51.36987500000396,
      "v": 127
    },
    {
      "midi": 38,
      "hit": false,
      "t": 85068.51299999973,
      "d": 51.36987500000396,
      "v": 88
    },
    {
      "midi": 40,
      "hit": false,
      "t": 85068.51299999973,
      "d": 51.36987500000396,
      "v": 88
    },
    {
      "midi": 91,
      "hit": false,
      "t": 85068.51299999982,
      "d": 102.73974999999336,
      "v": 106
    },
    {
      "midi": 79,
      "hit": false,
      "t": 85068.51299999982,
      "d": 102.73974999999336,
      "v": 106
    },
    {
      "midi": 62,
      "hit": false,
      "t": 85171.252749999,
      "d": 102.73974999999336,
      "v": 41
    },
    {
      "midi": 71,
      "hit": false,
      "t": 85171.252749999,
      "d": 102.73974999999336,
      "v": 33
    },
    {
      "midi": 67,
      "hit": false,
      "t": 85171.252749999,
      "d": 102.73974999999336,
      "v": 33
    },
    {
      "midi": 70,
      "hit": false,
      "t": 85171.25274999949,
      "d": 51.36987500000396,
      "v": 49
    },
    {
      "midi": 69,
      "hit": false,
      "t": 85171.25274999949,
      "d": 51.36987500000396,
      "v": 39
    },
    {
      "midi": 93,
      "hit": false,
      "t": 85171.25274999981,
      "d": 102.73974999999336,
      "v": 120
    },
    {
      "midi": 81,
      "hit": false,
      "t": 85171.25274999981,
      "d": 102.73974999999336,
      "v": 120
    },
    {
      "midi": 43,
      "hit": false,
      "t": 85270.56784166623,
      "d": 51.36987500000396,
      "v": 107
    },
    {
      "midi": 71,
      "hit": false,
      "t": 85273.99249999899,
      "d": 102.73974999999336,
      "v": 79
    },
    {
      "midi": 67,
      "hit": false,
      "t": 85273.99249999899,
      "d": 102.73974999999336,
      "v": 79
    },
    {
      "midi": 62,
      "hit": false,
      "t": 85273.99249999899,
      "d": 102.73974999999336,
      "v": 98
    },
    {
      "midi": 70,
      "hit": false,
      "t": 85273.9924999995,
      "d": 51.36987500000396,
      "v": 109
    },
    {
      "midi": 69,
      "hit": false,
      "t": 85273.9924999995,
      "d": 51.36987500000396,
      "v": 99
    },
    {
      "midi": 46,
      "hit": false,
      "t": 85273.99249999979,
      "d": 205.47950000000128,
      "v": 107
    },
    {
      "midi": 91,
      "hit": false,
      "t": 85273.9924999998,
      "d": 102.73974999999336,
      "v": 90
    },
    {
      "midi": 79,
      "hit": false,
      "t": 85273.9924999998,
      "d": 102.73974999999336,
      "v": 90
    },
    {
      "midi": 43,
      "hit": false,
      "t": 85373.30759166623,
      "d": 51.36987500000396,
      "v": 107
    },
    {
      "midi": 70,
      "hit": false,
      "t": 85376.7322499995,
      "d": 51.36987500000396,
      "v": 53
    },
    {
      "midi": 69,
      "hit": false,
      "t": 85376.7322499995,
      "d": 51.36987500000396,
      "v": 43
    },
    {
      "midi": 90,
      "hit": false,
      "t": 85376.7322499998,
      "d": 102.73974999999336,
      "v": 70
    },
    {
      "midi": 78,
      "hit": false,
      "t": 85376.7322499998,
      "d": 102.73974999999336,
      "v": 70
    },
    {
      "midi": 55,
      "hit": false,
      "t": 85476.04734166611,
      "d": 13.698633333333419,
      "v": 81
    },
    {
      "midi": 59,
      "hit": false,
      "t": 85476.04734166611,
      "d": 13.698633333333419,
      "v": 81
    },
    {
      "midi": 50,
      "hit": false,
      "t": 85476.04734166611,
      "d": 404.1096833333286,
      "v": 81
    },
    {
      "midi": 31,
      "hit": false,
      "t": 85476.04734166624,
      "d": 154.10962499999732,
      "v": 107
    },
    {
      "midi": 62,
      "hit": false,
      "t": 85479.47199999898,
      "d": 102.73974999999336,
      "v": 47
    },
    {
      "midi": 67,
      "hit": false,
      "t": 85479.47199999898,
      "d": 102.73974999999336,
      "v": 37
    },
    {
      "midi": 71,
      "hit": false,
      "t": 85479.47199999898,
      "d": 102.73974999999336,
      "v": 37
    },
    {
      "midi": 71,
      "hit": false,
      "t": 85479.47199999947,
      "d": 280.8219833333278,
      "v": 127
    },
    {
      "midi": 74,
      "hit": false,
      "t": 85479.47199999947,
      "d": 280.8219833333278,
      "v": 127
    },
    {
      "midi": 67,
      "hit": false,
      "t": 85479.47199999947,
      "d": 280.8219833333278,
      "v": 127
    },
    {
      "midi": 71,
      "hit": false,
      "t": 85479.47199999947,
      "d": 280.8219833333278,
      "v": 127
    },
    {
      "midi": 74,
      "hit": false,
      "t": 85479.47199999947,
      "d": 280.8219833333278,
      "v": 127
    },
    {
      "midi": 67,
      "hit": false,
      "t": 85479.47199999947,
      "d": 280.8219833333278,
      "v": 127
    },
    {
      "midi": 70,
      "hit": false,
      "t": 85479.47199999951,
      "d": 51.36987500000396,
      "v": 60
    },
    {
      "midi": 69,
      "hit": false,
      "t": 85479.47199999951,
      "d": 51.36987500000396,
      "v": 50
    },
    {
      "midi": 42,
      "hit": false,
      "t": 85479.47199999959,
      "d": 102.73974999999336,
      "v": 102
    },
    {
      "midi": 36,
      "hit": false,
      "t": 85479.47199999972,
      "d": 51.36987500000396,
      "v": 107
    },
    {
      "midi": 13,
      "hit": false,
      "t": 85479.47199999972,
      "d": 51.36987500000396,
      "v": 127
    },
    {
      "midi": 38,
      "hit": false,
      "t": 85479.47199999973,
      "d": 51.36987500000396,
      "v": 88
    },
    {
      "midi": 40,
      "hit": false,
      "t": 85479.47199999973,
      "d": 51.36987500000396,
      "v": 88
    },
    {
      "midi": 91,
      "hit": false,
      "t": 85479.47199999979,
      "d": 102.73974999999336,
      "v": 106
    },
    {
      "midi": 79,
      "hit": false,
      "t": 85479.47199999979,
      "d": 102.73974999999336,
      "v": 106
    },
    {
      "midi": 67,
      "hit": false,
      "t": 85582.21174999897,
      "d": 102.73974999999336,
      "v": 85
    },
    {
      "midi": 71,
      "hit": false,
      "t": 85582.21174999897,
      "d": 102.73974999999336,
      "v": 85
    },
    {
      "midi": 62,
      "hit": false,
      "t": 85582.21174999897,
      "d": 102.73974999999336,
      "v": 98
    },
    {
      "midi": 70,
      "hit": false,
      "t": 85582.21174999952,
      "d": 51.36987500000396,
      "v": 49
    },
    {
      "midi": 69,
      "hit": false,
      "t": 85582.21174999952,
      "d": 51.36987500000396,
      "v": 39
    },
    {
      "midi": 93,
      "hit": false,
      "t": 85582.21174999978,
      "d": 102.73974999999336,
      "v": 120
    },
    {
      "midi": 81,
      "hit": false,
      "t": 85582.21174999978,
      "d": 102.73974999999336,
      "v": 120
    },
    {
      "midi": 43,
      "hit": false,
      "t": 85681.52684166624,
      "d": 51.36987500000396,
      "v": 107
    },
    {
      "midi": 70,
      "hit": false,
      "t": 85684.95149999953,
      "d": 51.36987500000396,
      "v": 109
    },
    {
      "midi": 69,
      "hit": false,
      "t": 85684.95149999953,
      "d": 51.36987500000396,
      "v": 99
    },
    {
      "midi": 38,
      "hit": false,
      "t": 85684.95149999973,
      "d": 51.36987500000396,
      "v": 33
    },
    {
      "midi": 40,
      "hit": false,
      "t": 85684.95149999973,
      "d": 51.36987500000396,
      "v": 33
    },
    {
      "midi": 91,
      "hit": false,
      "t": 85684.95149999978,
      "d": 102.73974999999336,
      "v": 90
    },
    {
      "midi": 79,
      "hit": false,
      "t": 85684.95149999978,
      "d": 102.73974999999336,
      "v": 90
    },
    {
      "midi": 46,
      "hit": false,
      "t": 85684.95149999979,
      "d": 102.73974999999336,
      "v": 107
    },
    {
      "midi": 43,
      "hit": false,
      "t": 85784.26659166625,
      "d": 51.36987500000396,
      "v": 107
    },
    {
      "midi": 71,
      "hit": false,
      "t": 85787.69124999896,
      "d": 102.73974999999336,
      "v": 43
    },
    {
      "midi": 67,
      "hit": false,
      "t": 85787.69124999896,
      "d": 102.73974999999336,
      "v": 43
    },
    {
      "midi": 62,
      "hit": false,
      "t": 85787.69124999896,
      "d": 102.73974999999336,
      "v": 43
    },
    {
      "midi": 71,
      "hit": false,
      "t": 85787.69124999947,
      "d": 102.73974999999336,
      "v": 127
    },
    {
      "midi": 67,
      "hit": false,
      "t": 85787.69124999947,
      "d": 102.73974999999336,
      "v": 127
    },
    {
      "midi": 74,
      "hit": false,
      "t": 85787.69124999947,
      "d": 102.73974999999336,
      "v": 127
    },
    {
      "midi": 71,
      "hit": false,
      "t": 85787.69124999947,
      "d": 102.73974999999336,
      "v": 127
    },
    {
      "midi": 67,
      "hit": false,
      "t": 85787.69124999947,
      "d": 102.73974999999336,
      "v": 127
    },
    {
      "midi": 74,
      "hit": false,
      "t": 85787.69124999947,
      "d": 102.73974999999336,
      "v": 127
    },
    {
      "midi": 70,
      "hit": false,
      "t": 85787.69124999954,
      "d": 51.36987500000396,
      "v": 53
    },
    {
      "midi": 69,
      "hit": false,
      "t": 85787.69124999954,
      "d": 51.36987500000396,
      "v": 43
    },
    {
      "midi": 36,
      "hit": false,
      "t": 85787.69124999973,
      "d": 51.36987500000396,
      "v": 107
    },
    {
      "midi": 13,
      "hit": false,
      "t": 85787.69124999973,
      "d": 51.36987500000396,
      "v": 127
    },
    {
      "midi": 38,
      "hit": false,
      "t": 85787.69124999974,
      "d": 51.36987500000396,
      "v": 52
    },
    {
      "midi": 40,
      "hit": false,
      "t": 85787.69124999974,
      "d": 51.36987500000396,
      "v": 52
    },
    {
      "midi": 90,
      "hit": false,
      "t": 85787.69124999977,
      "d": 102.73974999999336,
      "v": 70
    },
    {
      "midi": 78,
      "hit": false,
      "t": 85787.69124999977,
      "d": 102.73974999999336,
      "v": 70
    },
    {
      "midi": 55,
      "hit": false,
      "t": 85887.0063416661,
      "d": 404.1096833333286,
      "v": 78
    },
    {
      "midi": 50,
      "hit": false,
      "t": 85887.0063416661,
      "d": 424.6576333333214,
      "v": 78
    },
    {
      "midi": 59,
      "hit": false,
      "t": 85887.0063416661,
      "d": 424.6576333333214,
      "v": 78
    },
    {
      "midi": 31,
      "hit": false,
      "t": 85887.00634166626,
      "d": 154.10962499999732,
      "v": 107
    },
    {
      "midi": 109,
      "hit": false,
      "t": 85887.00634166668,
      "d": 51.36987500000396,
      "v": 127
    },
    {
      "midi": 71,
      "hit": false,
      "t": 85890.43099999895,
      "d": 102.73974999999336,
      "v": 77
    },
    {
      "midi": 67,
      "hit": false,
      "t": 85890.43099999895,
      "d": 102.73974999999336,
      "v": 77
    },
    {
      "midi": 62,
      "hit": false,
      "t": 85890.43099999895,
      "d": 102.73974999999336,
      "v": 94
    },
    {
      "midi": 70,
      "hit": false,
      "t": 85890.43099999955,
      "d": 51.36987500000396,
      "v": 60
    },
    {
      "midi": 69,
      "hit": false,
      "t": 85890.43099999955,
      "d": 51.36987500000396,
      "v": 50
    },
    {
      "midi": 42,
      "hit": false,
      "t": 85890.43099999957,
      "d": 102.73974999999336,
      "v": 107
    },
    {
      "midi": 36,
      "hit": false,
      "t": 85890.43099999973,
      "d": 51.36987500000396,
      "v": 107
    },
    {
      "midi": 13,
      "hit": false,
      "t": 85890.43099999973,
      "d": 51.36987500000396,
      "v": 127
    },
    {
      "midi": 38,
      "hit": false,
      "t": 85890.43099999975,
      "d": 51.36987500000396,
      "v": 71
    },
    {
      "midi": 40,
      "hit": false,
      "t": 85890.43099999975,
      "d": 51.36987500000396,
      "v": 71
    },
    {
      "midi": 91,
      "hit": false,
      "t": 85890.43099999976,
      "d": 102.73974999999336,
      "v": 106
    },
    {
      "midi": 79,
      "hit": false,
      "t": 85890.43099999976,
      "d": 102.73974999999336,
      "v": 106
    },
    {
      "midi": 70,
      "hit": false,
      "t": 85993.17074999955,
      "d": 51.36987500000396,
      "v": 49
    },
    {
      "midi": 69,
      "hit": false,
      "t": 85993.17074999955,
      "d": 51.36987500000396,
      "v": 39
    },
    {
      "midi": 93,
      "hit": false,
      "t": 85993.17074999976,
      "d": 102.73974999999336,
      "v": 120
    },
    {
      "midi": 81,
      "hit": false,
      "t": 85993.17074999976,
      "d": 102.73974999999336,
      "v": 120
    },
    {
      "midi": 38,
      "hit": false,
      "t": 85993.17074999976,
      "d": 51.36987500000396,
      "v": 86
    },
    {
      "midi": 40,
      "hit": false,
      "t": 85993.17074999976,
      "d": 51.36987500000396,
      "v": 86
    },
    {
      "midi": 43,
      "hit": false,
      "t": 86092.48584166626,
      "d": 51.36987500000396,
      "v": 107
    },
    {
      "midi": 71,
      "hit": false,
      "t": 86095.91049999894,
      "d": 102.73974999999336,
      "v": 43
    },
    {
      "midi": 67,
      "hit": false,
      "t": 86095.91049999894,
      "d": 102.73974999999336,
      "v": 43
    },
    {
      "midi": 62,
      "hit": false,
      "t": 86095.91049999894,
      "d": 102.73974999999336,
      "v": 43
    },
    {
      "midi": 70,
      "hit": false,
      "t": 86095.91049999956,
      "d": 51.36987500000396,
      "v": 109
    },
    {
      "midi": 69,
      "hit": false,
      "t": 86095.91049999956,
      "d": 51.36987500000396,
      "v": 99
    },
    {
      "midi": 36,
      "hit": false,
      "t": 86095.91049999974,
      "d": 51.36987500000396,
      "v": 107
    },
    {
      "midi": 13,
      "hit": false,
      "t": 86095.91049999974,
      "d": 51.36987500000396,
      "v": 127
    },
    {
      "midi": 91,
      "hit": false,
      "t": 86095.91049999975,
      "d": 102.73974999999336,
      "v": 90
    },
    {
      "midi": 79,
      "hit": false,
      "t": 86095.91049999975,
      "d": 102.73974999999336,
      "v": 90
    },
    {
      "midi": 38,
      "hit": false,
      "t": 86095.91049999977,
      "d": 51.36987500000396,
      "v": 105
    },
    {
      "midi": 40,
      "hit": false,
      "t": 86095.91049999977,
      "d": 51.36987500000396,
      "v": 105
    },
    {
      "midi": 46,
      "hit": false,
      "t": 86095.91049999978,
      "d": 102.73974999999336,
      "v": 107
    },
    {
      "midi": 43,
      "hit": false,
      "t": 86195.22559166627,
      "d": 51.36987500000396,
      "v": 107
    },
    {
      "midi": 71,
      "hit": false,
      "t": 86198.65024999893,
      "d": 102.73974999999336,
      "v": 107
    },
    {
      "midi": 67,
      "hit": false,
      "t": 86198.65024999893,
      "d": 102.73974999999336,
      "v": 107
    },
    {
      "midi": 62,
      "hit": false,
      "t": 86198.65024999893,
      "d": 102.73974999999336,
      "v": 107
    },
    {
      "midi": 70,
      "hit": false,
      "t": 86198.65024999957,
      "d": 51.36987500000396,
      "v": 53
    },
    {
      "midi": 69,
      "hit": false,
      "t": 86198.65024999957,
      "d": 51.36987500000396,
      "v": 43
    },
    {
      "midi": 90,
      "hit": false,
      "t": 86198.65024999974,
      "d": 102.73974999999336,
      "v": 70
    },
    {
      "midi": 78,
      "hit": false,
      "t": 86198.65024999974,
      "d": 102.73974999999336,
      "v": 70
    },
    {
      "midi": 38,
      "hit": false,
      "t": 86198.65024999977,
      "d": 51.36987500000396,
      "v": 127
    },
    {
      "midi": 40,
      "hit": false,
      "t": 86198.65024999977,
      "d": 51.36987500000396,
      "v": 127
    },
    {
      "midi": 79,
      "hit": false,
      "t": 86503.44484166596,
      "d": 229.4521083333384,
      "v": 127
    },
    {
      "midi": 74,
      "hit": false,
      "t": 86503.44484166596,
      "d": 229.4521083333384,
      "v": 127
    },
    {
      "midi": 67,
      "hit": false,
      "t": 86503.44484166596,
      "d": 229.4521083333384,
      "v": 127
    },
    {
      "midi": 67,
      "hit": false,
      "t": 86503.44484166609,
      "d": 219.1781333333638,
      "v": 80
    },
    {
      "midi": 74,
      "hit": false,
      "t": 86503.44484166609,
      "d": 219.1781333333638,
      "v": 101
    },
    {
      "midi": 79,
      "hit": false,
      "t": 86503.44484166609,
      "d": 219.1781333333638,
      "v": 101
    },
    {
      "midi": 43,
      "hit": false,
      "t": 86503.44484166628,
      "d": 205.47950000000128,
      "v": 107
    },
    {
      "midi": 109,
      "hit": false,
      "t": 86503.44484166669,
      "d": 51.36987500000396,
      "v": 127
    },
    {
      "midi": 79,
      "hit": false,
      "t": 86506.86949999946,
      "d": 229.4521083333384,
      "v": 124
    },
    {
      "midi": 74,
      "hit": false,
      "t": 86506.86949999946,
      "d": 229.4521083333384,
      "v": 124
    },
    {
      "midi": 67,
      "hit": false,
      "t": 86506.86949999946,
      "d": 229.4521083333384,
      "v": 86
    },
    {
      "midi": 79,
      "hit": false,
      "t": 86506.86949999946,
      "d": 229.4521083333384,
      "v": 124
    },
    {
      "midi": 74,
      "hit": false,
      "t": 86506.86949999946,
      "d": 229.4521083333384,
      "v": 124
    },
    {
      "midi": 67,
      "hit": false,
      "t": 86506.86949999946,
      "d": 229.4521083333384,
      "v": 86
    },
    {
      "midi": 36,
      "hit": false,
      "t": 86506.86949999974,
      "d": 51.36987500000396,
      "v": 107
    },
    {
      "midi": 13,
      "hit": false,
      "t": 86506.86949999974,
      "d": 51.36987500000396,
      "v": 127
    },
    {
      "midi": 38,
      "hit": false,
      "t": 86506.86949999978,
      "d": 51.36987500000396,
      "v": 96
    },
    {
      "midi": 40,
      "hit": false,
      "t": 86506.86949999978,
      "d": 51.36987500000396,
      "v": 96
    },
    {
      "midi": 49,
      "hit": false,
      "t": 86506.86949999997,
      "d": 51.36987500000396,
      "v": 100
    },
    {
      "midi": 73,
      "hit": false,
      "t": 86708.92434166596,
      "d": 202.05484166667156,
      "v": 127
    },
    {
      "midi": 66,
      "hit": false,
      "t": 86708.92434166596,
      "d": 202.05484166667156,
      "v": 127
    },
    {
      "midi": 78,
      "hit": false,
      "t": 86708.92434166596,
      "d": 202.05484166667156,
      "v": 127
    },
    {
      "midi": 73,
      "hit": false,
      "t": 86708.92434166612,
      "d": 198.6301833333273,
      "v": 97
    },
    {
      "midi": 78,
      "hit": false,
      "t": 86708.92434166612,
      "d": 198.6301833333273,
      "v": 97
    },
    {
      "midi": 66,
      "hit": false,
      "t": 86708.92434166612,
      "d": 198.6301833333273,
      "v": 77
    },
    {
      "midi": 42,
      "hit": false,
      "t": 86708.92434166628,
      "d": 205.47950000000128,
      "v": 107
    },
    {
      "midi": 109,
      "hit": false,
      "t": 86708.92434166669,
      "d": 51.36987500000396,
      "v": 127
    },
    {
      "midi": 73,
      "hit": false,
      "t": 86712.34899999946,
      "d": 202.05484166667156,
      "v": 117
    },
    {
      "midi": 66,
      "hit": false,
      "t": 86712.34899999946,
      "d": 202.05484166667156,
      "v": 81
    },
    {
      "midi": 78,
      "hit": false,
      "t": 86712.34899999946,
      "d": 202.05484166667156,
      "v": 117
    },
    {
      "midi": 73,
      "hit": false,
      "t": 86712.34899999946,
      "d": 202.05484166667156,
      "v": 117
    },
    {
      "midi": 66,
      "hit": false,
      "t": 86712.34899999946,
      "d": 202.05484166667156,
      "v": 81
    },
    {
      "midi": 78,
      "hit": false,
      "t": 86712.34899999946,
      "d": 202.05484166667156,
      "v": 117
    },
    {
      "midi": 36,
      "hit": false,
      "t": 86712.34899999974,
      "d": 51.36987500000396,
      "v": 107
    },
    {
      "midi": 13,
      "hit": false,
      "t": 86712.34899999974,
      "d": 51.36987500000396,
      "v": 127
    },
    {
      "midi": 38,
      "hit": false,
      "t": 86712.34899999978,
      "d": 51.36987500000396,
      "v": 96
    },
    {
      "midi": 40,
      "hit": false,
      "t": 86712.34899999978,
      "d": 51.36987500000396,
      "v": 96
    },
    {
      "midi": 49,
      "hit": false,
      "t": 86712.34899999997,
      "d": 51.36987500000396,
      "v": 100
    },
    {
      "midi": 69,
      "hit": false,
      "t": 86914.40384166596,
      "d": 239.72608333332755,
      "v": 110
    },
    {
      "midi": 62,
      "hit": false,
      "t": 86914.40384166596,
      "d": 239.72608333332755,
      "v": 110
    },
    {
      "midi": 62,
      "hit": false,
      "t": 86914.4038416661,
      "d": 250.00005833333125,
      "v": 77
    },
    {
      "midi": 69,
      "hit": false,
      "t": 86914.4038416661,
      "d": 250.00005833333125,
      "v": 97
    },
    {
      "midi": 38,
      "hit": false,
      "t": 86914.40384166628,
      "d": 205.47950000000128,
      "v": 107
    },
    {
      "midi": 109,
      "hit": false,
      "t": 86914.40384166669,
      "d": 51.36987500000396,
      "v": 127
    },
    {
      "midi": 69,
      "hit": false,
      "t": 86917.82849999946,
      "d": 239.72608333332755,
      "v": 100
    },
    {
      "midi": 62,
      "hit": false,
      "t": 86917.82849999946,
      "d": 239.72608333332755,
      "v": 70
    },
    {
      "midi": 69,
      "hit": false,
      "t": 86917.82849999946,
      "d": 239.72608333332755,
      "v": 100
    },
    {
      "midi": 62,
      "hit": false,
      "t": 86917.82849999946,
      "d": 239.72608333332755,
      "v": 70
    },
    {
      "midi": 36,
      "hit": false,
      "t": 86917.82849999974,
      "d": 51.36987500000396,
      "v": 107
    },
    {
      "midi": 13,
      "hit": false,
      "t": 86917.82849999974,
      "d": 51.36987500000396,
      "v": 127
    },
    {
      "midi": 38,
      "hit": false,
      "t": 86917.82849999978,
      "d": 51.36987500000396,
      "v": 96
    },
    {
      "midi": 40,
      "hit": false,
      "t": 86917.82849999978,
      "d": 51.36987500000396,
      "v": 96
    },
    {
      "midi": 49,
      "hit": false,
      "t": 86917.82849999997,
      "d": 51.36987500000396,
      "v": 100
    },
    {
      "midi": 74,
      "hit": false,
      "t": 87119.88334166596,
      "d": 34.24658333332627,
      "v": 127
    },
    {
      "midi": 79,
      "hit": false,
      "t": 87119.88334166596,
      "d": 219.17813333332015,
      "v": 127
    },
    {
      "midi": 67,
      "hit": false,
      "t": 87119.88334166596,
      "d": 219.17813333332015,
      "v": 127
    },
    {
      "midi": 74,
      "hit": false,
      "t": 87119.88334166611,
      "d": 44.52055833332997,
      "v": 97
    },
    {
      "midi": 67,
      "hit": false,
      "t": 87119.88334166611,
      "d": 236.30142499999783,
      "v": 77
    },
    {
      "midi": 79,
      "hit": false,
      "t": 87119.88334166611,
      "d": 236.30142499999783,
      "v": 97
    },
    {
      "midi": 43,
      "hit": false,
      "t": 87119.88334166628,
      "d": 205.47950000000128,
      "v": 107
    },
    {
      "midi": 109,
      "hit": false,
      "t": 87119.88334166669,
      "d": 51.36987500000396,
      "v": 127
    },
    {
      "midi": 74,
      "hit": false,
      "t": 87123.30799999947,
      "d": 34.24658333332627,
      "v": 118
    },
    {
      "midi": 79,
      "hit": false,
      "t": 87123.30799999947,
      "d": 219.17813333332015,
      "v": 118
    },
    {
      "midi": 67,
      "hit": false,
      "t": 87123.30799999947,
      "d": 219.17813333332015,
      "v": 82
    },
    {
      "midi": 74,
      "hit": false,
      "t": 87123.30799999947,
      "d": 34.24658333332627,
      "v": 118
    },
    {
      "midi": 79,
      "hit": false,
      "t": 87123.30799999947,
      "d": 219.17813333332015,
      "v": 118
    },
    {
      "midi": 67,
      "hit": false,
      "t": 87123.30799999947,
      "d": 219.17813333332015,
      "v": 82
    },
    {
      "midi": 36,
      "hit": false,
      "t": 87123.30799999974,
      "d": 51.36987500000396,
      "v": 107
    },
    {
      "midi": 13,
      "hit": false,
      "t": 87123.30799999974,
      "d": 51.36987500000396,
      "v": 127
    },
    {
      "midi": 38,
      "hit": false,
      "t": 87123.30799999979,
      "d": 51.36987500000396,
      "v": 96
    },
    {
      "midi": 40,
      "hit": false,
      "t": 87123.30799999979,
      "d": 51.36987500000396,
      "v": 96
    },
    {
      "midi": 49,
      "hit": false,
      "t": 87123.30799999998,
      "d": 51.36987500000396,
      "v": 100
    },
    {
      "midi": 66,
      "hit": false,
      "t": 87325.36284166595,
      "d": 202.05484166667156,
      "v": 105
    },
    {
      "midi": 73,
      "hit": false,
      "t": 87325.36284166595,
      "d": 202.05484166667156,
      "v": 105
    },
    {
      "midi": 78,
      "hit": false,
      "t": 87325.36284166595,
      "d": 202.05484166667156,
      "v": 105
    },
    {
      "midi": 73,
      "hit": false,
      "t": 87325.36284166611,
      "d": 198.6301833333273,
      "v": 97
    },
    {
      "midi": 78,
      "hit": false,
      "t": 87325.36284166611,
      "d": 198.6301833333273,
      "v": 97
    },
    {
      "midi": 66,
      "hit": false,
      "t": 87325.36284166611,
      "d": 198.6301833333273,
      "v": 77
    },
    {
      "midi": 42,
      "hit": false,
      "t": 87325.36284166628,
      "d": 205.47950000000128,
      "v": 107
    },
    {
      "midi": 109,
      "hit": false,
      "t": 87325.36284166669,
      "d": 51.36987500000396,
      "v": 127
    },
    {
      "midi": 66,
      "hit": false,
      "t": 87328.78749999945,
      "d": 202.05484166667156,
      "v": 70
    },
    {
      "midi": 73,
      "hit": false,
      "t": 87328.78749999945,
      "d": 202.05484166667156,
      "v": 101
    },
    {
      "midi": 78,
      "hit": false,
      "t": 87328.78749999945,
      "d": 202.05484166667156,
      "v": 101
    },
    {
      "midi": 66,
      "hit": false,
      "t": 87328.78749999945,
      "d": 202.05484166667156,
      "v": 70
    },
    {
      "midi": 73,
      "hit": false,
      "t": 87328.78749999945,
      "d": 202.05484166667156,
      "v": 101
    },
    {
      "midi": 78,
      "hit": false,
      "t": 87328.78749999945,
      "d": 202.05484166667156,
      "v": 101
    },
    {
      "midi": 36,
      "hit": false,
      "t": 87328.78749999974,
      "d": 51.36987500000396,
      "v": 107
    },
    {
      "midi": 13,
      "hit": false,
      "t": 87328.78749999974,
      "d": 51.36987500000396,
      "v": 127
    },
    {
      "midi": 38,
      "hit": false,
      "t": 87328.78749999979,
      "d": 51.36987500000396,
      "v": 96
    },
    {
      "midi": 40,
      "hit": false,
      "t": 87328.78749999979,
      "d": 51.36987500000396,
      "v": 96
    },
    {
      "midi": 49,
      "hit": false,
      "t": 87328.78749999998,
      "d": 51.36987500000396,
      "v": 100
    },
    {
      "midi": 74,
      "hit": false,
      "t": 87530.84234166595,
      "d": 184.93154999999388,
      "v": 122
    },
    {
      "midi": 62,
      "hit": false,
      "t": 87530.84234166595,
      "d": 184.93154999999388,
      "v": 122
    },
    {
      "midi": 69,
      "hit": false,
      "t": 87530.84234166595,
      "d": 202.054841666657,
      "v": 105
    },
    {
      "midi": 62,
      "hit": false,
      "t": 87530.8423416661,
      "d": 195.20552499999758,
      "v": 77
    },
    {
      "midi": 74,
      "hit": false,
      "t": 87530.8423416661,
      "d": 195.20552499999758,
      "v": 97
    },
    {
      "midi": 69,
      "hit": false,
      "t": 87530.8423416661,
      "d": 195.20552499999758,
      "v": 97
    },
    {
      "midi": 38,
      "hit": false,
      "t": 87530.84234166628,
      "d": 205.47950000000128,
      "v": 107
    },
    {
      "midi": 109,
      "hit": false,
      "t": 87530.84234166669,
      "d": 51.36987500000396,
      "v": 127
    },
    {
      "midi": 74,
      "hit": false,
      "t": 87534.26699999945,
      "d": 184.93154999999388,
      "v": 122
    },
    {
      "midi": 62,
      "hit": false,
      "t": 87534.26699999945,
      "d": 184.93154999999388,
      "v": 85
    },
    {
      "midi": 69,
      "hit": false,
      "t": 87534.26699999945,
      "d": 202.054841666657,
      "v": 122
    },
    {
      "midi": 74,
      "hit": false,
      "t": 87534.26699999945,
      "d": 184.93154999999388,
      "v": 122
    },
    {
      "midi": 62,
      "hit": false,
      "t": 87534.26699999945,
      "d": 184.93154999999388,
      "v": 85
    },
    {
      "midi": 69,
      "hit": false,
      "t": 87534.26699999945,
      "d": 202.054841666657,
      "v": 122
    },
    {
      "midi": 36,
      "hit": false,
      "t": 87534.26699999975,
      "d": 51.36987500000396,
      "v": 107
    },
    {
      "midi": 13,
      "hit": false,
      "t": 87534.26699999975,
      "d": 51.36987500000396,
      "v": 127
    },
    {
      "midi": 38,
      "hit": false,
      "t": 87534.26699999979,
      "d": 51.36987500000396,
      "v": 96
    },
    {
      "midi": 40,
      "hit": false,
      "t": 87534.26699999979,
      "d": 51.36987500000396,
      "v": 96
    },
    {
      "midi": 49,
      "hit": false,
      "t": 87534.26699999998,
      "d": 51.36987500000396,
      "v": 100
    },
    {
      "midi": 67,
      "hit": false,
      "t": 87736.32184166594,
      "d": 181.50689166666416,
      "v": 127
    },
    {
      "midi": 62,
      "hit": false,
      "t": 87736.32184166594,
      "d": 181.50689166666416,
      "v": 127
    },
    {
      "midi": 55,
      "hit": false,
      "t": 87736.32184166594,
      "d": 181.50689166666416,
      "v": 127
    },
    {
      "midi": 55,
      "hit": false,
      "t": 87736.3218416661,
      "d": 195.20552499999758,
      "v": 80
    },
    {
      "midi": 67,
      "hit": false,
      "t": 87736.3218416661,
      "d": 195.20552499999758,
      "v": 101
    },
    {
      "midi": 62,
      "hit": false,
      "t": 87736.3218416661,
      "d": 195.20552499999758,
      "v": 101
    },
    {
      "midi": 31,
      "hit": false,
      "t": 87736.32184166629,
      "d": 205.47950000000128,
      "v": 107
    },
    {
      "midi": 109,
      "hit": false,
      "t": 87736.3218416667,
      "d": 51.36987500000396,
      "v": 127
    },
    {
      "midi": 67,
      "hit": false,
      "t": 87739.74649999944,
      "d": 181.50689166666416,
      "v": 101
    },
    {
      "midi": 62,
      "hit": false,
      "t": 87739.74649999944,
      "d": 181.50689166666416,
      "v": 101
    },
    {
      "midi": 55,
      "hit": false,
      "t": 87739.74649999944,
      "d": 181.50689166666416,
      "v": 70
    },
    {
      "midi": 67,
      "hit": false,
      "t": 87739.74649999944,
      "d": 181.50689166666416,
      "v": 101
    },
    {
      "midi": 62,
      "hit": false,
      "t": 87739.74649999944,
      "d": 181.50689166666416,
      "v": 101
    },
    {
      "midi": 55,
      "hit": false,
      "t": 87739.74649999944,
      "d": 181.50689166666416,
      "v": 70
    },
    {
      "midi": 36,
      "hit": false,
      "t": 87739.74649999975,
      "d": 51.36987500000396,
      "v": 107
    },
    {
      "midi": 13,
      "hit": false,
      "t": 87739.74649999975,
      "d": 51.36987500000396,
      "v": 127
    },
    {
      "midi": 38,
      "hit": false,
      "t": 87739.74649999979,
      "d": 51.36987500000396,
      "v": 96
    },
    {
      "midi": 40,
      "hit": false,
      "t": 87739.74649999979,
      "d": 51.36987500000396,
      "v": 96
    },
    {
      "midi": 49,
      "hit": false,
      "t": 87739.74649999998,
      "d": 51.36987500000396,
      "v": 100
    },
    {
      "midi": 67,
      "hit": false,
      "t": 88352.76034166594,
      "d": 2931.507533333337,
      "v": 127
    },
    {
      "midi": 62,
      "hit": false,
      "t": 88352.76034166594,
      "d": 2931.507533333337,
      "v": 127
    },
    {
      "midi": 55,
      "hit": false,
      "t": 88352.76034166594,
      "d": 2931.507533333337,
      "v": 127
    },
    {
      "midi": 79,
      "hit": false,
      "t": 88352.7603416661,
      "d": 51.36987500000396,
      "v": 127
    },
    {
      "midi": 31,
      "hit": false,
      "t": 88352.76034166629,
      "d": 2876.7130000000034,
      "v": 107
    },
    {
      "midi": 67,
      "hit": false,
      "t": 88356.18499999944,
      "d": 2931.507533333337,
      "v": 127
    },
    {
      "midi": 62,
      "hit": false,
      "t": 88356.18499999944,
      "d": 2931.507533333337,
      "v": 127
    },
    {
      "midi": 55,
      "hit": false,
      "t": 88356.18499999944,
      "d": 2931.507533333337,
      "v": 88
    },
    {
      "midi": 67,
      "hit": false,
      "t": 88356.18499999944,
      "d": 2931.507533333337,
      "v": 127
    },
    {
      "midi": 62,
      "hit": false,
      "t": 88356.18499999944,
      "d": 2931.507533333337,
      "v": 127
    },
    {
      "midi": 55,
      "hit": false,
      "t": 88356.18499999944,
      "d": 2931.507533333337,
      "v": 88
    },
    {
      "midi": 36,
      "hit": false,
      "t": 88356.18499999975,
      "d": 51.36987500000396,
      "v": 107
    },
    {
      "midi": 13,
      "hit": false,
      "t": 88356.18499999975,
      "d": 51.36987500000396,
      "v": 127
    },
    {
      "midi": 49,
      "hit": false,
      "t": 88356.18499999998,
      "d": 51.36987500000396,
      "v": 83
    },
    {
      "midi": 50,
      "hit": false,
      "t": 88376.73294999944,
      "d": 51.36987500000396,
      "v": 127
    },
    {
      "midi": 74,
      "hit": false,
      "t": 88376.73294999944,
      "d": 51.36987500000396,
      "v": 127
    },
    {
      "midi": 55,
      "hit": false,
      "t": 88387.00692499944,
      "d": 17.123291666663135,
      "v": 80
    },
    {
      "midi": 62,
      "hit": false,
      "t": 88387.00692499944,
      "d": 2886.986975000007,
      "v": 101
    },
    {
      "midi": 67,
      "hit": false,
      "t": 88387.00692499944,
      "d": 2886.986975000007,
      "v": 101
    }
  ]
}