{
  "jsonPath": "Unknown/Unknown/Loulou Gaste, Sung By Morris Albert/feelings.json",
  "path": "Unknown\\Unknown\\Loulou Gaste, Sung By Morris Albert\\Feelings.mid",
  "name": "Feelings",
  "difficulty": "Advanced",
  "bpm": 100,
  "notes": [
    {
      "midi": 43,
      "hit": false,
      "t": 0,
      "d": 300,
      "v": 71
    },
    {
      "midi": 50,
      "hit": false,
      "t": 300,
      "d": 300,
      "v": 83
    },
    {
      "midi": 67,
      "hit": false,
      "t": 600,
      "d": 600,
      "v": 68
    },
    {
      "midi": 72,
      "hit": false,
      "t": 600,
      "d": 600,
      "v": 68
    },
    {
      "midi": 60,
      "hit": false,
      "t": 600,
      "d": 600,
      "v": 95
    },
    {
      "midi": 67,
      "hit": false,
      "t": 1200,
      "d": 600,
      "v": 70
    },
    {
      "midi": 71,
      "hit": false,
      "t": 1200,
      "d": 600,
      "v": 70
    },
    {
      "midi": 62,
      "hit": false,
      "t": 1200,
      "d": 600,
      "v": 85
    },
    {
      "midi": 69,
      "hit": false,
      "t": 1800,
      "d": 300,
      "v": 69
    },
    {
      "midi": 47,
      "hit": false,
      "t": 1800,
      "d": 300,
      "v": 68
    },
    {
      "midi": 67,
      "hit": false,
      "t": 2100,
      "d": 300,
      "v": 74
    },
    {
      "midi": 43,
      "hit": false,
      "t": 2100,
      "d": 300,
      "v": 69
    },
    {
      "midi": 64,
      "hit": false,
      "t": 2400,
      "d": 600,
      "v": 67
    },
    {
      "midi": 69,
      "hit": false,
      "t": 2400,
      "d": 600,
      "v": 80
    },
    {
      "midi": 42,
      "hit": false,
      "t": 2400,
      "d": 300,
      "v": 70
    },
    {
      "midi": 52,
      "hit": false,
      "t": 2700,
      "d": 300,
      "v": 86
    },
    {
      "midi": 60,
      "hit": false,
      "t": 3000,
      "d": 300,
      "v": 66
    },
    {
      "midi": 57,
      "hit": false,
      "t": 3000,
      "d": 300,
      "v": 83
    },
    {
      "midi": 71,
      "hit": false,
      "t": 3300,
      "d": 300,
      "v": 86
    },
    {
      "midi": 42,
      "hit": false,
      "t": 3300,
      "d": 300,
      "v": 70
    },
    {
      "midi": 63,
      "hit": false,
      "t": 3600,
      "d": 600,
      "v": 79
    },
    {
      "midi": 69,
      "hit": false,
      "t": 3600,
      "d": 600,
      "v": 68
    },
    {
      "midi": 47,
      "hit": false,
      "t": 3600,
      "d": 300,
      "v": 83
    },
    {
      "midi": 54,
      "hit": false,
      "t": 3900,
      "d": 600,
      "v": 82
    },
    {
      "midi": 60,
      "hit": false,
      "t": 4200,
      "d": 600,
      "v": 71
    },
    {
      "midi": 59,
      "hit": false,
      "t": 4500,
      "d": 300,
      "v": 80
    },
    {
      "midi": 71,
      "hit": false,
      "t": 4800,
      "d": 300,
      "v": 78
    },
    {
      "midi": 40,
      "hit": false,
      "t": 4800,
      "d": 300,
      "v": 71
    },
    {
      "midi": 64,
      "hit": false,
      "t": 5100,
      "d": 300,
      "v": 62
    },
    {
      "midi": 47,
      "hit": false,
      "t": 5100,
      "d": 300,
      "v": 76
    },
    {
      "midi": 52,
      "hit": false,
      "t": 5400,
      "d": 300,
      "v": 81
    },
    {
      "midi": 55,
      "hit": false,
      "t": 5700,
      "d": 300,
      "v": 77
    },
    {
      "midi": 59,
      "hit": false,
      "t": 6000,
      "d": 300,
      "v": 82
    },
    {
      "midi": 55,
      "hit": false,
      "t": 6300,
      "d": 300,
      "v": 72
    },
    {
      "midi": 52,
      "hit": false,
      "t": 6600,
      "d": 300,
      "v": 73
    },
    {
      "midi": 47,
      "hit": false,
      "t": 6900,
      "d": 300,
      "v": 72
    },
    {
      "midi": 39,
      "hit": false,
      "t": 7200,
      "d": 300,
      "v": 70
    },
    {
      "midi": 47,
      "hit": false,
      "t": 7500,
      "d": 300,
      "v": 86
    },
    {
      "midi": 51,
      "hit": false,
      "t": 7800,
      "d": 300,
      "v": 86
    },
    {
      "midi": 55,
      "hit": false,
      "t": 8100,
      "d": 300,
      "v": 81
    },
    {
      "midi": 64,
      "hit": false,
      "t": 8400,
      "d": 300,
      "v": 68
    },
    {
      "midi": 59,
      "hit": false,
      "t": 8400,
      "d": 300,
      "v": 83
    },
    {
      "midi": 66,
      "hit": false,
      "t": 8700,
      "d": 300,
      "v": 79
    },
    {
      "midi": 55,
      "hit": false,
      "t": 8700,
      "d": 300,
      "v": 73
    },
    {
      "midi": 67,
      "hit": false,
      "t": 9000,
      "d": 300,
      "v": 82
    },
    {
      "midi": 51,
      "hit": false,
      "t": 9000,
      "d": 300,
      "v": 69
    },
    {
      "midi": 64,
      "hit": false,
      "t": 9300,
      "d": 300,
      "v": 72
    },
    {
      "midi": 47,
      "hit": false,
      "t": 9300,
      "d": 300,
      "v": 76
    },
    {
      "midi": 55,
      "hit": false,
      "t": 9600,
      "d": 300,
      "v": 69
    },
    {
      "midi": 71,
      "hit": false,
      "t": 9600,
      "d": 300,
      "v": 89
    },
    {
      "midi": 38,
      "hit": false,
      "t": 9600,
      "d": 300,
      "v": 66
    },
    {
      "midi": 59,
      "hit": false,
      "t": 9900,
      "d": 300,
      "v": 79
    },
    {
      "midi": 64,
      "hit": false,
      "t": 9900,
      "d": 300,
      "v": 65
    },
    {
      "midi": 47,
      "hit": false,
      "t": 9900,
      "d": 300,
      "v": 83
    },
    {
      "midi": 52,
      "hit": false,
      "t": 10200,
      "d": 300,
      "v": 82
    },
    {
      "midi": 55,
      "hit": false,
      "t": 10500,
      "d": 300,
      "v": 88
    },
    {
      "midi": 59,
      "hit": false,
      "t": 10800,
      "d": 300,
      "v": 86
    },
    {
      "midi": 55,
      "hit": false,
      "t": 11100,
      "d": 300,
      "v": 71
    },
    {
      "midi": 52,
      "hit": false,
      "t": 11400,
      "d": 300,
      "v": 70
    },
    {
      "midi": 47,
      "hit": false,
      "t": 11700,
      "d": 300,
      "v": 66
    },
    {
      "midi": 57,
      "hit": false,
      "t": 12000,
      "d": 600,
      "v": 71
    },
    {
      "midi": 37,
      "hit": false,
      "t": 12000,
      "d": 300,
      "v": 66
    },
    {
      "midi": 45,
      "hit": false,
      "t": 12300,
      "d": 300,
      "v": 80
    },
    {
      "midi": 61,
      "hit": false,
      "t": 12600,
      "d": 600,
      "v": 80
    },
    {
      "midi": 52,
      "hit": false,
      "t": 12600,
      "d": 300,
      "v": 84
    },
    {
      "midi": 49,
      "hit": false,
      "t": 12900,
      "d": 300,
      "v": 73
    },
    {
      "midi": 64,
      "hit": false,
      "t": 13200,
      "d": 300,
      "v": 70
    },
    {
      "midi": 55,
      "hit": false,
      "t": 13200,
      "d": 300,
      "v": 78
    },
    {
      "midi": 66,
      "hit": false,
      "t": 13500,
      "d": 300,
      "v": 78
    },
    {
      "midi": 52,
      "hit": false,
      "t": 13500,
      "d": 300,
      "v": 74
    },
    {
      "midi": 61,
      "hit": false,
      "t": 13800,
      "d": 300,
      "v": 76
    },
    {
      "midi": 67,
      "hit": false,
      "t": 13800,
      "d": 300,
      "v": 80
    },
    {
      "midi": 45,
      "hit": false,
      "t": 13800,
      "d": 300,
      "v": 69
    },
    {
      "midi": 64,
      "hit": false,
      "t": 14100,
      "d": 300,
      "v": 88
    },
    {
      "midi": 40,
      "hit": false,
      "t": 14100,
      "d": 300,
      "v": 69
    },
    {
      "midi": 64,
      "hit": false,
      "t": 14400,
      "d": 600,
      "v": 79
    },
    {
      "midi": 71,
      "hit": false,
      "t": 14400,
      "d": 600,
      "v": 91
    },
    {
      "midi": 36,
      "hit": false,
      "t": 14400,
      "d": 300,
      "v": 73
    },
    {
      "midi": 45,
      "hit": false,
      "t": 14700,
      "d": 300,
      "v": 84
    },
    {
      "midi": 62,
      "hit": false,
      "t": 15000,
      "d": 600,
      "v": 74
    },
    {
      "midi": 52,
      "hit": false,
      "t": 15000,
      "d": 300,
      "v": 84
    },
    {
      "midi": 48,
      "hit": false,
      "t": 15300,
      "d": 300,
      "v": 74
    },
    {
      "midi": 57,
      "hit": false,
      "t": 15600,
      "d": 600,
      "v": 69
    },
    {
      "midi": 60,
      "hit": false,
      "t": 15600,
      "d": 600,
      "v": 69
    },
    {
      "midi": 64,
      "hit": false,
      "t": 15600,
      "d": 600,
      "v": 61
    },
    {
      "midi": 55,
      "hit": false,
      "t": 15600,
      "d": 600,
      "v": 80
    },
    {
      "midi": 55,
      "hit": false,
      "t": 16200,
      "d": 300,
      "v": 70
    },
    {
      "midi": 52,
      "hit": false,
      "t": 16200,
      "d": 300,
      "v": 71
    },
    {
      "midi": 59,
      "hit": false,
      "t": 16500,
      "d": 300,
      "v": 81
    },
    {
      "midi": 45,
      "hit": false,
      "t": 16500,
      "d": 300,
      "v": 72
    },
    {
      "midi": 57,
      "hit": false,
      "t": 16800,
      "d": 600,
      "v": 77
    },
    {
      "midi": 38,
      "hit": false,
      "t": 16800,
      "d": 300,
      "v": 69
    },
    {
      "midi": 45,
      "hit": false,
      "t": 17100,
      "d": 300,
      "v": 80
    },
    {
      "midi": 62,
      "hit": false,
      "t": 17400,
      "d": 300,
      "v": 87
    },
    {
      "midi": 54,
      "hit": false,
      "t": 17400,
      "d": 300,
      "v": 84
    },
    {
      "midi": 64,
      "hit": false,
      "t": 17700,
      "d": 300,
      "v": 84
    },
    {
      "midi": 50,
      "hit": false,
      "t": 17700,
      "d": 300,
      "v": 73
    },
    {
      "midi": 60,
      "hit": false,
      "t": 18000,
      "d": 450,
      "v": 87
    },
    {
      "midi": 66,
      "hit": false,
      "t": 18000,
      "d": 450,
      "v": 87
    },
    {
      "midi": 38,
      "hit": false,
      "t": 18000,
      "d": 300,
      "v": 71
    },
    {
      "midi": 45,
      "hit": false,
      "t": 18300,
      "d": 300,
      "v": 82
    },
    {
      "midi": 62,
      "hit": false,
      "t": 18450,
      "d": 150,
      "v": 68
    },
    {
      "midi": 62,
      "hit": false,
      "t": 18600,
      "d": 199.21875,
      "v": 100
    },
    {
      "midi": 66,
      "hit": false,
      "t": 18600,
      "d": 199.21875,
      "v": 100
    },
    {
      "midi": 50,
      "hit": false,
      "t": 18600,
      "d": 300,
      "v": 79
    },
    {
      "midi": 64,
      "hit": false,
      "t": 18799.21875,
      "d": 199.21875,
      "v": 100
    },
    {
      "midi": 67,
      "hit": false,
      "t": 18799.21875,
      "d": 199.21875,
      "v": 100
    },
    {
      "midi": 38,
      "hit": false,
      "t": 18900,
      "d": 300,
      "v": 66
    },
    {
      "midi": 66,
      "hit": false,
      "t": 18998.4375,
      "d": 201.5625,
      "v": 100
    },
    {
      "midi": 69,
      "hit": false,
      "t": 18998.4375,
      "d": 201.5625,
      "v": 100
    },
    {
      "midi": 62,
      "hit": false,
      "t": 19200,
      "d": 600,
      "v": 87
    },
    {
      "midi": 66,
      "hit": false,
      "t": 19200,
      "d": 600,
      "v": 87
    },
    {
      "midi": 71,
      "hit": false,
      "t": 19200,
      "d": 600,
      "v": 87
    },
    {
      "midi": 43,
      "hit": false,
      "t": 19200,
      "d": 300,
      "v": 83
    },
    {
      "midi": 50,
      "hit": false,
      "t": 19500,
      "d": 300,
      "v": 81
    },
    {
      "midi": 74,
      "hit": false,
      "t": 19800,
      "d": 300,
      "v": 98
    },
    {
      "midi": 83,
      "hit": false,
      "t": 19800,
      "d": 300,
      "v": 98
    },
    {
      "midi": 55,
      "hit": false,
      "t": 19800,
      "d": 300,
      "v": 78
    },
    {
      "midi": 76,
      "hit": false,
      "t": 20100,
      "d": 300,
      "v": 82
    },
    {
      "midi": 84,
      "hit": false,
      "t": 20100,
      "d": 300,
      "v": 82
    },
    {
      "midi": 50,
      "hit": false,
      "t": 20100,
      "d": 300,
      "v": 71
    },
    {
      "midi": 74,
      "hit": false,
      "t": 20400,
      "d": 600,
      "v": 77
    },
    {
      "midi": 83,
      "hit": false,
      "t": 20400,
      "d": 600,
      "v": 77
    },
    {
      "midi": 59,
      "hit": false,
      "t": 20400,
      "d": 300,
      "v": 82
    },
    {
      "midi": 55,
      "hit": false,
      "t": 20700,
      "d": 300,
      "v": 72
    },
    {
      "midi": 72,
      "hit": false,
      "t": 21000,
      "d": 300,
      "v": 72
    },
    {
      "midi": 81,
      "hit": false,
      "t": 21000,
      "d": 300,
      "v": 72
    },
    {
      "midi": 50,
      "hit": false,
      "t": 21000,
      "d": 300,
      "v": 72
    },
    {
      "midi": 71,
      "hit": false,
      "t": 21300,
      "d": 300,
      "v": 75
    },
    {
      "midi": 79,
      "hit": false,
      "t": 21300,
      "d": 300,
      "v": 75
    },
    {
      "midi": 45,
      "hit": false,
      "t": 21300,
      "d": 300,
      "v": 74
    },
    {
      "midi": 72,
      "hit": false,
      "t": 21600,
      "d": 600,
      "v": 84
    },
    {
      "midi": 76,
      "hit": false,
      "t": 21600,
      "d": 600,
      "v": 84
    },
    {
      "midi": 81,
      "hit": false,
      "t": 21600,
      "d": 600,
      "v": 84
    },
    {
      "midi": 42,
      "hit": false,
      "t": 21600,
      "d": 300,
      "v": 70
    },
    {
      "midi": 52,
      "hit": false,
      "t": 21900,
      "d": 300,
      "v": 81
    },
    {
      "midi": 76,
      "hit": false,
      "t": 22200,
      "d": 300,
      "v": 83
    },
    {
      "midi": 83,
      "hit": false,
      "t": 22200,
      "d": 300,
      "v": 83
    },
    {
      "midi": 55,
      "hit": false,
      "t": 22200,
      "d": 300,
      "v": 84
    },
    {
      "midi": 72,
      "hit": false,
      "t": 22500,
      "d": 300,
      "v": 58
    },
    {
      "midi": 52,
      "hit": false,
      "t": 22500,
      "d": 300,
      "v": 74
    },
    {
      "midi": 75,
      "hit": false,
      "t": 22800,
      "d": 600,
      "v": 90
    },
    {
      "midi": 81,
      "hit": false,
      "t": 22800,
      "d": 600,
      "v": 90
    },
    {
      "midi": 47,
      "hit": false,
      "t": 22800,
      "d": 300,
      "v": 74
    },
    {
      "midi": 54,
      "hit": false,
      "t": 23100,
      "d": 300,
      "v": 83
    },
    {
      "midi": 59,
      "hit": false,
      "t": 23400,
      "d": 150,
      "v": 68
    },
    {
      "midi": 57,
      "hit": false,
      "t": 23400,
      "d": 300,
      "v": 72
    },
    {
      "midi": 63,
      "hit": false,
      "t": 23550,
      "d": 150,
      "v": 83
    },
    {
      "midi": 66,
      "hit": false,
      "t": 23700,
      "d": 150,
      "v": 80
    },
    {
      "midi": 47,
      "hit": false,
      "t": 23700,
      "d": 300,
      "v": 69
    },
    {
      "midi": 69,
      "hit": false,
      "t": 23850,
      "d": 150,
      "v": 85
    },
    {
      "midi": 62,
      "hit": false,
      "t": 24000,
      "d": 300,
      "v": 72
    },
    {
      "midi": 71,
      "hit": false,
      "t": 24000,
      "d": 300,
      "v": 80
    },
    {
      "midi": 40,
      "hit": false,
      "t": 24000,
      "d": 900,
      "v": 62
    },
    {
      "midi": 64,
      "hit": false,
      "t": 24300,
      "d": 300,
      "v": 63
    },
    {
      "midi": 55,
      "hit": false,
      "t": 24600,
      "d": 300,
      "v": 72
    },
    {
      "midi": 59,
      "hit": false,
      "t": 24900,
      "d": 300,
      "v": 80
    },
    {
      "midi": 40,
      "hit": false,
      "t": 24900,
      "d": 300,
      "v": 75
    },
    {
      "midi": 59,
      "hit": false,
      "t": 25200,
      "d": 300,
      "v": 78
    },
    {
      "midi": 64,
      "hit": false,
      "t": 25200,
      "d": 300,
      "v": 78
    },
    {
      "midi": 52,
      "hit": false,
      "t": 25200,
      "d": 300,
      "v": 83
    },
    {
      "midi": 55,
      "hit": false,
      "t": 25500,
      "d": 300,
      "v": 66
    },
    {
      "midi": 47,
      "hit": false,
      "t": 25500,
      "d": 300,
      "v": 77
    },
    {
      "midi": 59,
      "hit": false,
      "t": 25800,
      "d": 300,
      "v": 92
    },
    {
      "midi": 64,
      "hit": false,
      "t": 25800,
      "d": 300,
      "v": 92
    },
    {
      "midi": 43,
      "hit": false,
      "t": 25800,
      "d": 300,
      "v": 73
    },
    {
      "midi": 55,
      "hit": false,
      "t": 26100,
      "d": 300,
      "v": 71
    },
    {
      "midi": 40,
      "hit": false,
      "t": 26100,
      "d": 300,
      "v": 71
    },
    {
      "midi": 59,
      "hit": false,
      "t": 26400,
      "d": 300,
      "v": 87
    },
    {
      "midi": 63,
      "hit": false,
      "t": 26400,
      "d": 300,
      "v": 87
    },
    {
      "midi": 40,
      "hit": false,
      "t": 26400,
      "d": 900,
      "v": 74
    },
    {
      "midi": 55,
      "hit": false,
      "t": 26700,
      "d": 300,
      "v": 76
    },
    {
      "midi": 59,
      "hit": false,
      "t": 27000,
      "d": 300,
      "v": 89
    },
    {
      "midi": 63,
      "hit": false,
      "t": 27000,
      "d": 300,
      "v": 89
    },
    {
      "midi": 55,
      "hit": false,
      "t": 27300,
      "d": 300,
      "v": 66
    },
    {
      "midi": 47,
      "hit": false,
      "t": 27300,
      "d": 300,
      "v": 79
    },
    {
      "midi": 59,
      "hit": false,
      "t": 27600,
      "d": 300,
      "v": 65
    },
    {
      "midi": 63,
      "hit": false,
      "t": 27600,
      "d": 300,
      "v": 65
    },
    {
      "midi": 52,
      "hit": false,
      "t": 27600,
      "d": 300,
      "v": 76
    },
    {
      "midi": 55,
      "hit": false,
      "t": 27900,
      "d": 300,
      "v": 66
    },
    {
      "midi": 47,
      "hit": false,
      "t": 27900,
      "d": 300,
      "v": 70
    },
    {
      "midi": 59,
      "hit": false,
      "t": 28200,
      "d": 150,
      "v": 77
    },
    {
      "midi": 64,
      "hit": false,
      "t": 28200,
      "d": 150,
      "v": 68
    },
    {
      "midi": 52,
      "hit": false,
      "t": 28200,
      "d": 300,
      "v": 82
    },
    {
      "midi": 66,
      "hit": false,
      "t": 28350,
      "d": 150,
      "v": 84
    },
    {
      "midi": 63,
      "hit": false,
      "t": 28500,
      "d": 150,
      "v": 79
    },
    {
      "midi": 67,
      "hit": false,
      "t": 28500,
      "d": 150,
      "v": 79
    },
    {
      "midi": 47,
      "hit": false,
      "t": 28500,
      "d": 300,
      "v": 75
    },
    {
      "midi": 64,
      "hit": false,
      "t": 28650,
      "d": 150,
      "v": 67
    },
    {
      "midi": 64,
      "hit": false,
      "t": 28800,
      "d": 300,
      "v": 85
    },
    {
      "midi": 67,
      "hit": false,
      "t": 28800,
      "d": 300,
      "v": 90
    },
    {
      "midi": 71,
      "hit": false,
      "t": 28800,
      "d": 300,
      "v": 90
    },
    {
      "midi": 38,
      "hit": false,
      "t": 28800,
      "d": 900,
      "v": 64
    },
    {
      "midi": 62,
      "hit": false,
      "t": 29100,
      "d": 300,
      "v": 73
    },
    {
      "midi": 59,
      "hit": false,
      "t": 29400,
      "d": 300,
      "v": 73
    },
    {
      "midi": 64,
      "hit": false,
      "t": 29400,
      "d": 300,
      "v": 60
    },
    {
      "midi": 57,
      "hit": false,
      "t": 29700,
      "d": 300,
      "v": 73
    },
    {
      "midi": 38,
      "hit": false,
      "t": 29700,
      "d": 300,
      "v": 77
    },
    {
      "midi": 55,
      "hit": false,
      "t": 30000,
      "d": 300,
      "v": 79
    },
    {
      "midi": 59,
      "hit": false,
      "t": 30000,
      "d": 300,
      "v": 79
    },
    {
      "midi": 64,
      "hit": false,
      "t": 30000,
      "d": 300,
      "v": 69
    },
    {
      "midi": 40,
      "hit": false,
      "t": 30000,
      "d": 300,
      "v": 84
    },
    {
      "midi": 62,
      "hit": false,
      "t": 30300,
      "d": 600,
      "v": 86
    },
    {
      "midi": 47,
      "hit": false,
      "t": 30300,
      "d": 300,
      "v": 79
    },
    {
      "midi": 52,
      "hit": false,
      "t": 30600,
      "d": 300,
      "v": 81
    },
    {
      "midi": 59,
      "hit": false,
      "t": 30900,
      "d": 150,
      "v": 71
    },
    {
      "midi": 40,
      "hit": false,
      "t": 30900,
      "d": 300,
      "v": 65
    },
    {
      "midi": 62,
      "hit": false,
      "t": 31050,
      "d": 150,
      "v": 87
    },
    {
      "midi": 61,
      "hit": false,
      "t": 31200,
      "d": 300,
      "v": 71
    },
    {
      "midi": 45,
      "hit": false,
      "t": 31200,
      "d": 300,
      "v": 80
    },
    {
      "midi": 57,
      "hit": false,
      "t": 31500,
      "d": 300,
      "v": 71
    },
    {
      "midi": 52,
      "hit": false,
      "t": 31500,
      "d": 600,
      "v": 84
    },
    {
      "midi": 57,
      "hit": false,
      "t": 31800,
      "d": 300,
      "v": 81
    },
    {
      "midi": 61,
      "hit": false,
      "t": 31800,
      "d": 300,
      "v": 81
    },
    {
      "midi": 59,
      "hit": false,
      "t": 32100,
      "d": 300,
      "v": 82
    },
    {
      "midi": 62,
      "hit": false,
      "t": 32100,
      "d": 300,
      "v": 82
    },
    {
      "midi": 45,
      "hit": false,
      "t": 32100,
      "d": 300,
      "v": 68
    },
    {
      "midi": 61,
      "hit": false,
      "t": 32400,
      "d": 600,
      "v": 79
    },
    {
      "midi": 64,
      "hit": false,
      "t": 32400,
      "d": 600,
      "v": 79
    },
    {
      "midi": 57,
      "hit": false,
      "t": 32400,
      "d": 300,
      "v": 84
    },
    {
      "midi": 55,
      "hit": false,
      "t": 32700,
      "d": 300,
      "v": 76
    },
    {
      "midi": 61,
      "hit": false,
      "t": 33000,
      "d": 150,
      "v": 69
    },
    {
      "midi": 64,
      "hit": false,
      "t": 33000,
      "d": 150,
      "v": 69
    },
    {
      "midi": 52,
      "hit": false,
      "t": 33000,
      "d": 300,
      "v": 75
    },
    {
      "midi": 66,
      "hit": false,
      "t": 33150,
      "d": 150,
      "v": 77
    },
    {
      "midi": 61,
      "hit": false,
      "t": 33300,
      "d": 150,
      "v": 78
    },
    {
      "midi": 67,
      "hit": false,
      "t": 33300,
      "d": 150,
      "v": 80
    },
    {
      "midi": 45,
      "hit": false,
      "t": 33300,
      "d": 300,
      "v": 69
    },
    {
      "midi": 64,
      "hit": false,
      "t": 33450,
      "d": 150,
      "v": 72
    },
    {
      "midi": 64,
      "hit": false,
      "t": 33600,
      "d": 300,
      "v": 83
    },
    {
      "midi": 67,
      "hit": false,
      "t": 33600,
      "d": 300,
      "v": 85
    },
    {
      "midi": 71,
      "hit": false,
      "t": 33600,
      "d": 300,
      "v": 85
    },
    {
      "midi": 45,
      "hit": false,
      "t": 33600,
      "d": 300,
      "v": 73
    },
    {
      "midi": 60,
      "hit": false,
      "t": 33900,
      "d": 300,
      "v": 68
    },
    {
      "midi": 52,
      "hit": false,
      "t": 33900,
      "d": 600,
      "v": 85
    },
    {
      "midi": 64,
      "hit": false,
      "t": 34200,
      "d": 300,
      "v": 85
    },
    {
      "midi": 60,
      "hit": false,
      "t": 34500,
      "d": 300,
      "v": 70
    },
    {
      "midi": 69,
      "hit": false,
      "t": 34500,
      "d": 300,
      "v": 71
    },
    {
      "midi": 45,
      "hit": false,
      "t": 34500,
      "d": 300,
      "v": 71
    },
    {
      "midi": 64,
      "hit": false,
      "t": 34800,
      "d": 300,
      "v": 81
    },
    {
      "midi": 67,
      "hit": false,
      "t": 34800,
      "d": 300,
      "v": 68
    },
    {
      "midi": 57,
      "hit": false,
      "t": 34800,
      "d": 300,
      "v": 89
    },
    {
      "midi": 62,
      "hit": false,
      "t": 35100,
      "d": 300,
      "v": 70
    },
    {
      "midi": 52,
      "hit": false,
      "t": 35100,
      "d": 300,
      "v": 72
    },
    {
      "midi": 62,
      "hit": false,
      "t": 35400,
      "d": 150,
      "v": 77
    },
    {
      "midi": 48,
      "hit": false,
      "t": 35400,
      "d": 300,
      "v": 74
    },
    {
      "midi": 64,
      "hit": false,
      "t": 35550,
      "d": 150,
      "v": 78
    },
    {
      "midi": 60,
      "hit": false,
      "t": 35700,
      "d": 300,
      "v": 70
    },
    {
      "midi": 45,
      "hit": false,
      "t": 35700,
      "d": 300,
      "v": 74
    },
    {
      "midi": 57,
      "hit": false,
      "t": 36000,
      "d": 300,
      "v": 73
    },
    {
      "midi": 38,
      "hit": false,
      "t": 36000,
      "d": 300,
      "v": 70
    },
    {
      "midi": 59,
      "hit": false,
      "t": 36300,
      "d": 300,
      "v": 82
    },
    {
      "midi": 45,
      "hit": false,
      "t": 36300,
      "d": 300,
      "v": 80
    },
    {
      "midi": 60,
      "hit": false,
      "t": 36600,
      "d": 300,
      "v": 83
    },
    {
      "midi": 50,
      "hit": false,
      "t": 36600,
      "d": 300,
      "v": 75
    },
    {
      "midi": 62,
      "hit": false,
      "t": 36900,
      "d": 300,
      "v": 84
    },
    {
      "midi": 54,
      "hit": false,
      "t": 36900,
      "d": 300,
      "v": 81
    },
    {
      "midi": 64,
      "hit": false,
      "t": 37200,
      "d": 300,
      "v": 78
    },
    {
      "midi": 57,
      "hit": false,
      "t": 37200,
      "d": 600,
      "v": 88
    },
    {
      "midi": 60,
      "hit": false,
      "t": 37200,
      "d": 600,
      "v": 88
    },
    {
      "midi": 62,
      "hit": false,
      "t": 37500,
      "d": 300,
      "v": 71
    },
    {
      "midi": 62,
      "hit": false,
      "t": 37800,
      "d": 199.21875,
      "v": 100
    },
    {
      "midi": 66,
      "hit": false,
      "t": 37800,
      "d": 199.21875,
      "v": 100
    },
    {
      "midi": 50,
      "hit": false,
      "t": 37800,
      "d": 300,
      "v": 72
    },
    {
      "midi": 64,
      "hit": false,
      "t": 37999.21875,
      "d": 199.21875,
      "v": 100
    },
    {
      "midi": 67,
      "hit": false,
      "t": 37999.21875,
      "d": 199.21875,
      "v": 100
    },
    {
      "midi": 50,
      "hit": false,
      "t": 38100,
      "d": 300,
      "v": 77
    },
    {
      "midi": 66,
      "hit": false,
      "t": 38198.4375,
      "d": 201.5625,
      "v": 100
    },
    {
      "midi": 69,
      "hit": false,
      "t": 38198.4375,
      "d": 201.5625,
      "v": 100
    },
    {
      "midi": 62,
      "hit": false,
      "t": 38400,
      "d": 600,
      "v": 69
    },
    {
      "midi": 66,
      "hit": false,
      "t": 38400,
      "d": 600,
      "v": 69
    },
    {
      "midi": 71,
      "hit": false,
      "t": 38400,
      "d": 600,
      "v": 85
    },
    {
      "midi": 43,
      "hit": false,
      "t": 38400,
      "d": 300,
      "v": 68
    },
    {
      "midi": 50,
      "hit": false,
      "t": 38700,
      "d": 300,
      "v": 79
    },
    {
      "midi": 59,
      "hit": false,
      "t": 39000,
      "d": 600,
      "v": 76
    },
    {
      "midi": 62,
      "hit": false,
      "t": 39000,
      "d": 600,
      "v": 76
    },
    {
      "midi": 66,
      "hit": false,
      "t": 39000,
      "d": 600,
      "v": 76
    },
    {
      "midi": 54,
      "hit": false,
      "t": 39000,
      "d": 300,
      "v": 79
    },
    {
      "midi": 50,
      "hit": false,
      "t": 39300,
      "d": 300,
      "v": 72
    },
    {
      "midi": 59,
      "hit": false,
      "t": 39600,
      "d": 300,
      "v": 73
    },
    {
      "midi": 57,
      "hit": false,
      "t": 39600,
      "d": 300,
      "v": 82
    },
    {
      "midi": 62,
      "hit": false,
      "t": 39900,
      "d": 150,
      "v": 66
    },
    {
      "midi": 50,
      "hit": false,
      "t": 39900,
      "d": 300,
      "v": 73
    },
    {
      "midi": 64,
      "hit": false,
      "t": 40050,
      "d": 150,
      "v": 83
    },
    {
      "midi": 62,
      "hit": false,
      "t": 40200,
      "d": 300,
      "v": 85
    },
    {
      "midi": 66,
      "hit": false,
      "t": 40200,
      "d": 300,
      "v": 80
    },
    {
      "midi": 47,
      "hit": false,
      "t": 40200,
      "d": 300,
      "v": 73
    },
    {
      "midi": 67,
      "hit": false,
      "t": 40500,
      "d": 300,
      "v": 80
    },
    {
      "midi": 43,
      "hit": false,
      "t": 40500,
      "d": 300,
      "v": 75
    },
    {
      "midi": 62,
      "hit": false,
      "t": 40800,
      "d": 300,
      "v": 81
    },
    {
      "midi": 68,
      "hit": false,
      "t": 40800,
      "d": 300,
      "v": 81
    },
    {
      "midi": 40,
      "hit": false,
      "t": 40800,
      "d": 300,
      "v": 70
    },
    {
      "midi": 66,
      "hit": false,
      "t": 41100,
      "d": 300,
      "v": 83
    },
    {
      "midi": 69,
      "hit": false,
      "t": 41100,
      "d": 300,
      "v": 83
    },
    {
      "midi": 47,
      "hit": false,
      "t": 41100,
      "d": 300,
      "v": 82
    },
    {
      "midi": 68,
      "hit": false,
      "t": 41400,
      "d": 900,
      "v": 84
    },
    {
      "midi": 71,
      "hit": false,
      "t": 41400,
      "d": 900,
      "v": 84
    },
    {
      "midi": 52,
      "hit": false,
      "t": 41400,
      "d": 300,
      "v": 80
    },
    {
      "midi": 47,
      "hit": false,
      "t": 41700,
      "d": 300,
      "v": 66
    },
    {
      "midi": 52,
      "hit": false,
      "t": 42000,
      "d": 300,
      "v": 80
    },
    {
      "midi": 47,
      "hit": false,
      "t": 42300,
      "d": 300,
      "v": 72
    },
    {
      "midi": 64,
      "hit": false,
      "t": 42450,
      "d": 150,
      "v": 58
    },
    {
      "midi": 67,
      "hit": false,
      "t": 42600,
      "d": 199.21875,
      "v": 100
    },
    {
      "midi": 71,
      "hit": false,
      "t": 42600,
      "d": 199.21875,
      "v": 100
    },
    {
      "midi": 40,
      "hit": false,
      "t": 42600,
      "d": 300,
      "v": 79
    },
    {
      "midi": 52,
      "hit": false,
      "t": 42600,
      "d": 300,
      "v": 79
    },
    {
      "midi": 69,
      "hit": false,
      "t": 42799.21875,
      "d": 199.21875,
      "v": 100
    },
    {
      "midi": 72,
      "hit": false,
      "t": 42799.21875,
      "d": 199.21875,
      "v": 100
    },
    {
      "midi": 38,
      "hit": false,
      "t": 42900,
      "d": 300,
      "v": 69
    },
    {
      "midi": 50,
      "hit": false,
      "t": 42900,
      "d": 300,
      "v": 69
    },
    {
      "midi": 71,
      "hit": false,
      "t": 42998.4375,
      "d": 201.5625,
      "v": 100
    },
    {
      "midi": 74,
      "hit": false,
      "t": 42998.4375,
      "d": 201.5625,
      "v": 100
    },
    {
      "midi": 64,
      "hit": false,
      "t": 43200,
      "d": 600,
      "v": 94
    },
    {
      "midi": 67,
      "hit": false,
      "t": 43200,
      "d": 600,
      "v": 94
    },
    {
      "midi": 71,
      "hit": false,
      "t": 43200,
      "d": 600,
      "v": 94
    },
    {
      "midi": 76,
      "hit": false,
      "t": 43200,
      "d": 600,
      "v": 82
    },
    {
      "midi": 36,
      "hit": false,
      "t": 43200,
      "d": 900,
      "v": 70
    },
    {
      "midi": 48,
      "hit": false,
      "t": 43200,
      "d": 900,
      "v": 70
    },
    {
      "midi": 64,
      "hit": false,
      "t": 43800,
      "d": 600,
      "v": 78
    },
    {
      "midi": 67,
      "hit": false,
      "t": 43800,
      "d": 600,
      "v": 78
    },
    {
      "midi": 71,
      "hit": false,
      "t": 43800,
      "d": 600,
      "v": 78
    },
    {
      "midi": 43,
      "hit": false,
      "t": 44100,
      "d": 300,
      "v": 69
    },
    {
      "midi": 59,
      "hit": false,
      "t": 44400,
      "d": 600,
      "v": 61
    },
    {
      "midi": 62,
      "hit": false,
      "t": 44400,
      "d": 600,
      "v": 61
    },
    {
      "midi": 64,
      "hit": false,
      "t": 44400,
      "d": 600,
      "v": 61
    },
    {
      "midi": 67,
      "hit": false,
      "t": 44400,
      "d": 600,
      "v": 54
    },
    {
      "midi": 48,
      "hit": false,
      "t": 44400,
      "d": 300,
      "v": 80
    },
    {
      "midi": 43,
      "hit": false,
      "t": 44700,
      "d": 300,
      "v": 70
    },
    {
      "midi": 55,
      "hit": false,
      "t": 45000,
      "d": 600,
      "v": 76
    },
    {
      "midi": 59,
      "hit": false,
      "t": 45000,
      "d": 600,
      "v": 76
    },
    {
      "midi": 62,
      "hit": false,
      "t": 45000,
      "d": 600,
      "v": 76
    },
    {
      "midi": 64,
      "hit": false,
      "t": 45000,
      "d": 600,
      "v": 76
    },
    {
      "midi": 36,
      "hit": false,
      "t": 45000,
      "d": 300,
      "v": 71
    },
    {
      "midi": 35,
      "hit": false,
      "t": 45300,
      "d": 300,
      "v": 73
    },
    {
      "midi": 55,
      "hit": false,
      "t": 45600,
      "d": 600,
      "v": 79
    },
    {
      "midi": 57,
      "hit": false,
      "t": 45600,
      "d": 600,
      "v": 79
    },
    {
      "midi": 60,
      "hit": false,
      "t": 45600,
      "d": 600,
      "v": 79
    },
    {
      "midi": 64,
      "hit": false,
      "t": 45600,
      "d": 600,
      "v": 79
    },
    {
      "midi": 33,
      "hit": false,
      "t": 45600,
      "d": 900,
      "v": 84
    },
    {
      "midi": 45,
      "hit": false,
      "t": 45600,
      "d": 900,
      "v": 84
    },
    {
      "midi": 55,
      "hit": false,
      "t": 46200,
      "d": 300,
      "v": 78
    },
    {
      "midi": 57,
      "hit": false,
      "t": 46200,
      "d": 300,
      "v": 78
    },
    {
      "midi": 60,
      "hit": false,
      "t": 46200,
      "d": 300,
      "v": 78
    },
    {
      "midi": 64,
      "hit": false,
      "t": 46200,
      "d": 300,
      "v": 78
    },
    {
      "midi": 67,
      "hit": false,
      "t": 46500,
      "d": 300,
      "v": 81
    },
    {
      "midi": 69,
      "hit": false,
      "t": 46500,
      "d": 300,
      "v": 67
    },
    {
      "midi": 72,
      "hit": false,
      "t": 46500,
      "d": 300,
      "v": 67
    },
    {
      "midi": 76,
      "hit": false,
      "t": 46500,
      "d": 300,
      "v": 67
    },
    {
      "midi": 38,
      "hit": false,
      "t": 46500,
      "d": 300,
      "v": 71
    },
    {
      "midi": 66,
      "hit": false,
      "t": 46800,
      "d": 300,
      "v": 71
    },
    {
      "midi": 74,
      "hit": false,
      "t": 46800,
      "d": 300,
      "v": 77
    },
    {
      "midi": 38,
      "hit": false,
      "t": 46800,
      "d": 600,
      "v": 85
    },
    {
      "midi": 50,
      "hit": false,
      "t": 46800,
      "d": 600,
      "v": 85
    },
    {
      "midi": 72,
      "hit": false,
      "t": 47100,
      "d": 300,
      "v": 72
    },
    {
      "midi": 64,
      "hit": false,
      "t": 47400,
      "d": 300,
      "v": 77
    },
    {
      "midi": 67,
      "hit": false,
      "t": 47400,
      "d": 300,
      "v": 77
    },
    {
      "midi": 71,
      "hit": false,
      "t": 47400,
      "d": 300,
      "v": 73
    },
    {
      "midi": 38,
      "hit": false,
      "t": 47400,
      "d": 300,
      "v": 77
    },
    {
      "midi": 50,
      "hit": false,
      "t": 47400,
      "d": 300,
      "v": 77
    },
    {
      "midi": 66,
      "hit": false,
      "t": 47700,
      "d": 150,
      "v": 77
    },
    {
      "midi": 72,
      "hit": false,
      "t": 47700,
      "d": 150,
      "v": 80
    },
    {
      "midi": 36,
      "hit": false,
      "t": 47700,
      "d": 300,
      "v": 72
    },
    {
      "midi": 48,
      "hit": false,
      "t": 47700,
      "d": 300,
      "v": 72
    },
    {
      "midi": 64,
      "hit": false,
      "t": 47850,
      "d": 150,
      "v": 71
    },
    {
      "midi": 62,
      "hit": false,
      "t": 48000,
      "d": 600,
      "v": 83
    },
    {
      "midi": 66,
      "hit": false,
      "t": 48000,
      "d": 600,
      "v": 83
    },
    {
      "midi": 69,
      "hit": false,
      "t": 48000,
      "d": 600,
      "v": 83
    },
    {
      "midi": 74,
      "hit": false,
      "t": 48000,
      "d": 600,
      "v": 82
    },
    {
      "midi": 35,
      "hit": false,
      "t": 48000,
      "d": 900,
      "v": 76
    },
    {
      "midi": 47,
      "hit": false,
      "t": 48000,
      "d": 900,
      "v": 76
    },
    {
      "midi": 62,
      "hit": false,
      "t": 48600,
      "d": 300,
      "v": 77
    },
    {
      "midi": 66,
      "hit": false,
      "t": 48600,
      "d": 300,
      "v": 77
    },
    {
      "midi": 69,
      "hit": false,
      "t": 48600,
      "d": 300,
      "v": 77
    },
    {
      "midi": 74,
      "hit": false,
      "t": 48900,
      "d": 150,
      "v": 76
    },
    {
      "midi": 42,
      "hit": false,
      "t": 48900,
      "d": 300,
      "v": 74
    },
    {
      "midi": 73,
      "hit": false,
      "t": 49050,
      "d": 150,
      "v": 76
    },
    {
      "midi": 66,
      "hit": false,
      "t": 49200,
      "d": 300,
      "v": 74
    },
    {
      "midi": 74,
      "hit": false,
      "t": 49200,
      "d": 300,
      "v": 82
    },
    {
      "midi": 47,
      "hit": false,
      "t": 49200,
      "d": 600,
      "v": 80
    },
    {
      "midi": 62,
      "hit": false,
      "t": 49500,
      "d": 300,
      "v": 66
    },
    {
      "midi": 66,
      "hit": false,
      "t": 49800,
      "d": 300,
      "v": 77
    },
    {
      "midi": 57,
      "hit": false,
      "t": 49800,
      "d": 300,
      "v": 85
    },
    {
      "midi": 69,
      "hit": false,
      "t": 50100,
      "d": 300,
      "v": 88
    },
    {
      "midi": 54,
      "hit": false,
      "t": 50100,
      "d": 300,
      "v": 76
    },
    {
      "midi": 62,
      "hit": false,
      "t": 50400,
      "d": 600,
      "v": 60
    },
    {
      "midi": 64,
      "hit": false,
      "t": 50400,
      "d": 600,
      "v": 60
    },
    {
      "midi": 68,
      "hit": false,
      "t": 50400,
      "d": 600,
      "v": 60
    },
    {
      "midi": 40,
      "hit": false,
      "t": 50400,
      "d": 900,
      "v": 74
    },
    {
      "midi": 52,
      "hit": false,
      "t": 50400,
      "d": 900,
      "v": 74
    },
    {
      "midi": 62,
      "hit": false,
      "t": 51000,
      "d": 300,
      "v": 69
    },
    {
      "midi": 64,
      "hit": false,
      "t": 51000,
      "d": 300,
      "v": 69
    },
    {
      "midi": 71,
      "hit": false,
      "t": 51000,
      "d": 300,
      "v": 69
    },
    {
      "midi": 74,
      "hit": false,
      "t": 51300,
      "d": 300,
      "v": 67
    },
    {
      "midi": 47,
      "hit": false,
      "t": 51300,
      "d": 300,
      "v": 73
    },
    {
      "midi": 62,
      "hit": false,
      "t": 51600,
      "d": 300,
      "v": 66
    },
    {
      "midi": 66,
      "hit": false,
      "t": 51600,
      "d": 300,
      "v": 66
    },
    {
      "midi": 69,
      "hit": false,
      "t": 51600,
      "d": 300,
      "v": 66
    },
    {
      "midi": 72,
      "hit": false,
      "t": 51600,
      "d": 300,
      "v": 72
    },
    {
      "midi": 52,
      "hit": false,
      "t": 51600,
      "d": 300,
      "v": 78
    },
    {
      "midi": 71,
      "hit": false,
      "t": 51900,
      "d": 300,
      "v": 70
    },
    {
      "midi": 47,
      "hit": false,
      "t": 51900,
      "d": 300,
      "v": 74
    },
    {
      "midi": 62,
      "hit": false,
      "t": 52200,
      "d": 300,
      "v": 69
    },
    {
      "midi": 66,
      "hit": false,
      "t": 52200,
      "d": 300,
      "v": 69
    },
    {
      "midi": 69,
      "hit": false,
      "t": 52200,
      "d": 300,
      "v": 68
    },
    {
      "midi": 52,
      "hit": false,
      "t": 52200,
      "d": 300,
      "v": 81
    },
    {
      "midi": 64,
      "hit": false,
      "t": 52500,
      "d": 150,
      "v": 81
    },
    {
      "midi": 68,
      "hit": false,
      "t": 52500,
      "d": 150,
      "v": 81
    },
    {
      "midi": 71,
      "hit": false,
      "t": 52500,
      "d": 150,
      "v": 82
    },
    {
      "midi": 47,
      "hit": false,
      "t": 52500,
      "d": 300,
      "v": 71
    },
    {
      "midi": 62,
      "hit": false,
      "t": 52650,
      "d": 150,
      "v": 59
    },
    {
      "midi": 60,
      "hit": false,
      "t": 52800,
      "d": 600,
      "v": 91
    },
    {
      "midi": 64,
      "hit": false,
      "t": 52800,
      "d": 600,
      "v": 91
    },
    {
      "midi": 69,
      "hit": false,
      "t": 52800,
      "d": 600,
      "v": 91
    },
    {
      "midi": 72,
      "hit": false,
      "t": 52800,
      "d": 600,
      "v": 84
    },
    {
      "midi": 45,
      "hit": false,
      "t": 52800,
      "d": 300,
      "v": 75
    },
    {
      "midi": 52,
      "hit": false,
      "t": 53100,
      "d": 300,
      "v": 84
    },
    {
      "midi": 60,
      "hit": false,
      "t": 53400,
      "d": 300,
      "v": 70
    },
    {
      "midi": 64,
      "hit": false,
      "t": 53400,
      "d": 300,
      "v": 70
    },
    {
      "midi": 67,
      "hit": false,
      "t": 53400,
      "d": 300,
      "v": 70
    },
    {
      "midi": 57,
      "hit": false,
      "t": 53400,
      "d": 300,
      "v": 81
    },
    {
      "midi": 72,
      "hit": false,
      "t": 53700,
      "d": 150,
      "v": 83
    },
    {
      "midi": 52,
      "hit": false,
      "t": 53700,
      "d": 300,
      "v": 70
    },
    {
      "midi": 71,
      "hit": false,
      "t": 53850,
      "d": 150,
      "v": 70
    },
    {
      "midi": 64,
      "hit": false,
      "t": 54000,
      "d": 600,
      "v": 81
    },
    {
      "midi": 67,
      "hit": false,
      "t": 54000,
      "d": 600,
      "v": 81
    },
    {
      "midi": 69,
      "hit": false,
      "t": 54000,
      "d": 600,
      "v": 81
    },
    {
      "midi": 72,
      "hit": false,
      "t": 54000,
      "d": 600,
      "v": 86
    },
    {
      "midi": 57,
      "hit": false,
      "t": 54000,
      "d": 300,
      "v": 79
    },
    {
      "midi": 59,
      "hit": false,
      "t": 54300,
      "d": 300,
      "v": 78
    },
    {
      "midi": 60,
      "hit": false,
      "t": 54600,
      "d": 300,
      "v": 59
    },
    {
      "midi": 57,
      "hit": false,
      "t": 54600,
      "d": 300,
      "v": 71
    },
    {
      "midi": 64,
      "hit": false,
      "t": 54900,
      "d": 300,
      "v": 83
    },
    {
      "midi": 55,
      "hit": false,
      "t": 54900,
      "d": 300,
      "v": 74
    },
    {
      "midi": 60,
      "hit": false,
      "t": 55200,
      "d": 600,
      "v": 85
    },
    {
      "midi": 64,
      "hit": false,
      "t": 55200,
      "d": 600,
      "v": 85
    },
    {
      "midi": 67,
      "hit": false,
      "t": 55200,
      "d": 600,
      "v": 85
    },
    {
      "midi": 50,
      "hit": false,
      "t": 55200,
      "d": 600,
      "v": 78
    },
    {
      "midi": 57,
      "hit": false,
      "t": 55200,
      "d": 600,
      "v": 78
    },
    {
      "midi": 60,
      "hit": false,
      "t": 55800,
      "d": 300,
      "v": 73
    },
    {
      "midi": 66,
      "hit": false,
      "t": 55800,
      "d": 300,
      "v": 73
    },
    {
      "midi": 38,
      "hit": false,
      "t": 55800,
      "d": 900,
      "v": 73
    },
    {
      "midi": 50,
      "hit": false,
      "t": 55800,
      "d": 900,
      "v": 73
    },
    {
      "midi": 72,
      "hit": false,
      "t": 56100,
      "d": 300,
      "v": 66
    },
    {
      "midi": 60,
      "hit": false,
      "t": 56400,
      "d": 300,
      "v": 72
    },
    {
      "midi": 64,
      "hit": false,
      "t": 56400,
      "d": 300,
      "v": 72
    },
    {
      "midi": 71,
      "hit": false,
      "t": 56400,
      "d": 300,
      "v": 73
    },
    {
      "midi": 60,
      "hit": false,
      "t": 56700,
      "d": 300,
      "v": 78
    },
    {
      "midi": 64,
      "hit": false,
      "t": 56700,
      "d": 300,
      "v": 78
    },
    {
      "midi": 69,
      "hit": false,
      "t": 56700,
      "d": 300,
      "v": 75
    },
    {
      "midi": 45,
      "hit": false,
      "t": 56700,
      "d": 300,
      "v": 72
    },
    {
      "midi": 67,
      "hit": false,
      "t": 57000,
      "d": 300,
      "v": 69
    },
    {
      "midi": 50,
      "hit": false,
      "t": 57000,
      "d": 300,
      "v": 79
    },
    {
      "midi": 63,
      "hit": false,
      "t": 57300,
      "d": 150,
      "v": 73
    },
    {
      "midi": 66,
      "hit": false,
      "t": 57300,
      "d": 150,
      "v": 81
    },
    {
      "midi": 69,
      "hit": false,
      "t": 57300,
      "d": 150,
      "v": 81
    },
    {
      "midi": 48,
      "hit": false,
      "t": 57300,
      "d": 300,
      "v": 72
    },
    {
      "midi": 60,
      "hit": false,
      "t": 57450,
      "d": 150,
      "v": 72
    },
    {
      "midi": 62,
      "hit": false,
      "t": 57600,
      "d": 600,
      "v": 87
    },
    {
      "midi": 66,
      "hit": false,
      "t": 57600,
      "d": 600,
      "v": 87
    },
    {
      "midi": 71,
      "hit": false,
      "t": 57600,
      "d": 600,
      "v": 82
    },
    {
      "midi": 47,
      "hit": false,
      "t": 57600,
      "d": 900,
      "v": 81
    },
    {
      "midi": 57,
      "hit": false,
      "t": 57600,
      "d": 900,
      "v": 81
    },
    {
      "midi": 62,
      "hit": false,
      "t": 58200,
      "d": 300,
      "v": 77
    },
    {
      "midi": 66,
      "hit": false,
      "t": 58200,
      "d": 300,
      "v": 77
    },
    {
      "midi": 71,
      "hit": false,
      "t": 58500,
      "d": 150,
      "v": 77
    },
    {
      "midi": 54,
      "hit": false,
      "t": 58500,
      "d": 300,
      "v": 74
    },
    {
      "midi": 69,
      "hit": false,
      "t": 58650,
      "d": 150,
      "v": 72
    },
    {
      "midi": 62,
      "hit": false,
      "t": 58800,
      "d": 600,
      "v": 81
    },
    {
      "midi": 66,
      "hit": false,
      "t": 58800,
      "d": 600,
      "v": 81
    },
    {
      "midi": 69,
      "hit": false,
      "t": 58800,
      "d": 600,
      "v": 81
    },
    {
      "midi": 71,
      "hit": false,
      "t": 58800,
      "d": 600,
      "v": 81
    },
    {
      "midi": 57,
      "hit": false,
      "t": 58800,
      "d": 300,
      "v": 81
    },
    {
      "midi": 47,
      "hit": false,
      "t": 59100,
      "d": 600,
      "v": 67
    },
    {
      "midi": 62,
      "hit": false,
      "t": 59400,
      "d": 199.21875,
      "v": 100
    },
    {
      "midi": 66,
      "hit": false,
      "t": 59400,
      "d": 199.21875,
      "v": 100
    },
    {
      "midi": 62,
      "hit": false,
      "t": 59599.21875,
      "d": 199.21875,
      "v": 100
    },
    {
      "midi": 64,
      "hit": false,
      "t": 59599.21875,
      "d": 199.21875,
      "v": 100
    },
    {
      "midi": 67,
      "hit": false,
      "t": 59599.21875,
      "d": 199.21875,
      "v": 100
    },
    {
      "midi": 47,
      "hit": false,
      "t": 59700,
      "d": 300,
      "v": 76
    },
    {
      "midi": 62,
      "hit": false,
      "t": 59798.4375,
      "d": 201.5625,
      "v": 100
    },
    {
      "midi": 66,
      "hit": false,
      "t": 59798.4375,
      "d": 201.5625,
      "v": 100
    },
    {
      "midi": 69,
      "hit": false,
      "t": 59798.4375,
      "d": 201.5625,
      "v": 100
    },
    {
      "midi": 66,
      "hit": false,
      "t": 60000,
      "d": 300,
      "v": 71
    },
    {
      "midi": 69,
      "hit": false,
      "t": 60000,
      "d": 300,
      "v": 71
    },
    {
      "midi": 71,
      "hit": false,
      "t": 60000,
      "d": 300,
      "v": 86
    },
    {
      "midi": 40,
      "hit": false,
      "t": 60000,
      "d": 300,
      "v": 79
    },
    {
      "midi": 52,
      "hit": false,
      "t": 60000,
      "d": 300,
      "v": 79
    },
    {
      "midi": 62,
      "hit": false,
      "t": 60300,
      "d": 300,
      "v": 56
    },
    {
      "midi": 40,
      "hit": false,
      "t": 60300,
      "d": 600,
      "v": 79
    },
    {
      "midi": 52,
      "hit": false,
      "t": 60300,
      "d": 600,
      "v": 79
    },
    {
      "midi": 64,
      "hit": false,
      "t": 60600,
      "d": 300,
      "v": 90
    },
    {
      "midi": 68,
      "hit": false,
      "t": 60600,
      "d": 300,
      "v": 90
    },
    {
      "midi": 64,
      "hit": false,
      "t": 60900,
      "d": 300,
      "v": 93
    },
    {
      "midi": 76,
      "hit": false,
      "t": 60900,
      "d": 300,
      "v": 93
    },
    {
      "midi": 59,
      "hit": false,
      "t": 60900,
      "d": 300,
      "v": 83
    },
    {
      "midi": 68,
      "hit": false,
      "t": 61200,
      "d": 300,
      "v": 89
    },
    {
      "midi": 74,
      "hit": false,
      "t": 61200,
      "d": 300,
      "v": 89
    },
    {
      "midi": 80,
      "hit": false,
      "t": 61200,
      "d": 300,
      "v": 89
    },
    {
      "midi": 52,
      "hit": false,
      "t": 61200,
      "d": 600,
      "v": 90
    },
    {
      "midi": 64,
      "hit": false,
      "t": 61200,
      "d": 600,
      "v": 90
    },
    {
      "midi": 69,
      "hit": false,
      "t": 61500,
      "d": 300,
      "v": 78
    },
    {
      "midi": 74,
      "hit": false,
      "t": 61500,
      "d": 300,
      "v": 78
    },
    {
      "midi": 78,
      "hit": false,
      "t": 61500,
      "d": 300,
      "v": 78
    },
    {
      "midi": 81,
      "hit": false,
      "t": 61500,
      "d": 300,
      "v": 78
    },
    {
      "midi": 71,
      "hit": false,
      "t": 61800,
      "d": 199.21875,
      "v": 100
    },
    {
      "midi": 83,
      "hit": false,
      "t": 61800,
      "d": 199.21875,
      "v": 100
    },
    {
      "midi": 52,
      "hit": false,
      "t": 61800,
      "d": 300,
      "v": 81
    },
    {
      "midi": 64,
      "hit": false,
      "t": 61800,
      "d": 300,
      "v": 81
    },
    {
      "midi": 72,
      "hit": false,
      "t": 61999.21875,
      "d": 199.21875,
      "v": 100
    },
    {
      "midi": 84,
      "hit": false,
      "t": 61999.21875,
      "d": 199.21875,
      "v": 100
    },
    {
      "midi": 50,
      "hit": false,
      "t": 62100,
      "d": 300,
      "v": 71
    },
    {
      "midi": 62,
      "hit": false,
      "t": 62100,
      "d": 300,
      "v": 71
    },
    {
      "midi": 74,
      "hit": false,
      "t": 62198.4375,
      "d": 201.5625,
      "v": 100
    },
    {
      "midi": 86,
      "hit": false,
      "t": 62198.4375,
      "d": 201.5625,
      "v": 100
    },
    {
      "midi": 76,
      "hit": false,
      "t": 62400,
      "d": 600,
      "v": 69
    },
    {
      "midi": 79,
      "hit": false,
      "t": 62400,
      "d": 600,
      "v": 69
    },
    {
      "midi": 84,
      "hit": false,
      "t": 62400,
      "d": 600,
      "v": 69
    },
    {
      "midi": 88,
      "hit": false,
      "t": 62400,
      "d": 600,
      "v": 69
    },
    {
      "midi": 48,
      "hit": false,
      "t": 62400,
      "d": 300,
      "v": 67
    },
    {
      "midi": 60,
      "hit": false,
      "t": 62400,
      "d": 300,
      "v": 68
    },
    {
      "midi": 55,
      "hit": false,
      "t": 62700,
      "d": 300,
      "v": 75
    },
    {
      "midi": 83,
      "hit": false,
      "t": 63000,
      "d": 600,
      "v": 65
    },
    {
      "midi": 64,
      "hit": false,
      "t": 63000,
      "d": 300,
      "v": 95
    },
    {
      "midi": 62,
      "hit": false,
      "t": 63300,
      "d": 300,
      "v": 72
    },
    {
      "midi": 76,
      "hit": false,
      "t": 63600,
      "d": 300,
      "v": 75
    },
    {
      "midi": 81,
      "hit": false,
      "t": 63600,
      "d": 300,
      "v": 75
    },
    {
      "midi": 84,
      "hit": false,
      "t": 63600,
      "d": 300,
      "v": 75
    },
    {
      "midi": 88,
      "hit": false,
      "t": 63600,
      "d": 300,
      "v": 75
    },
    {
      "midi": 60,
      "hit": false,
      "t": 63600,
      "d": 300,
      "v": 70
    },
    {
      "midi": 48,
      "hit": false,
      "t": 63900,
      "d": 300,
      "v": 60
    },
    {
      "midi": 64,
      "hit": false,
      "t": 64200,
      "d": 199.21875,
      "v": 100
    },
    {
      "midi": 48,
      "hit": false,
      "t": 64200,
      "d": 300,
      "v": 94
    },
    {
      "midi": 60,
      "hit": false,
      "t": 64200,
      "d": 300,
      "v": 94
    },
    {
      "midi": 67,
      "hit": false,
      "t": 64399.21875,
      "d": 199.21875,
      "v": 100
    },
    {
      "midi": 47,
      "hit": false,
      "t": 64500,
      "d": 300,
      "v": 73
    },
    {
      "midi": 59,
      "hit": false,
      "t": 64500,
      "d": 300,
      "v": 73
    },
    {
      "midi": 69,
      "hit": false,
      "t": 64598.4375,
      "d": 201.5625,
      "v": 100
    },
    {
      "midi": 64,
      "hit": false,
      "t": 64800,
      "d": 150,
      "v": 87
    },
    {
      "midi": 71,
      "hit": false,
      "t": 64800,
      "d": 150,
      "v": 87
    },
    {
      "midi": 45,
      "hit": false,
      "t": 64800,
      "d": 300,
      "v": 74
    },
    {
      "midi": 57,
      "hit": false,
      "t": 64800,
      "d": 300,
      "v": 74
    },
    {
      "midi": 72,
      "hit": false,
      "t": 64950,
      "d": 150,
      "v": 78
    },
    {
      "midi": 69,
      "hit": false,
      "t": 65100,
      "d": 300,
      "v": 67
    },
    {
      "midi": 52,
      "hit": false,
      "t": 65100,
      "d": 300,
      "v": 71
    },
    {
      "midi": 76,
      "hit": false,
      "t": 65400,
      "d": 150,
      "v": 88
    },
    {
      "midi": 60,
      "hit": false,
      "t": 65400,
      "d": 300,
      "v": 92
    },
    {
      "midi": 81,
      "hit": false,
      "t": 65550,
      "d": 150,
      "v": 89
    },
    {
      "midi": 84,
      "hit": false,
      "t": 65700,
      "d": 150,
      "v": 82
    },
    {
      "midi": 52,
      "hit": false,
      "t": 65700,
      "d": 300,
      "v": 71
    },
    {
      "midi": 88,
      "hit": false,
      "t": 65850,
      "d": 150,
      "v": 89
    },
    {
      "midi": 78,
      "hit": false,
      "t": 66000,
      "d": 300,
      "v": 67
    },
    {
      "midi": 81,
      "hit": false,
      "t": 66000,
      "d": 300,
      "v": 67
    },
    {
      "midi": 86,
      "hit": false,
      "t": 66000,
      "d": 300,
      "v": 67
    },
    {
      "midi": 50,
      "hit": false,
      "t": 66000,
      "d": 300,
      "v": 75
    },
    {
      "midi": 74,
      "hit": false,
      "t": 66300,
      "d": 300,
      "v": 53
    },
    {
      "midi": 57,
      "hit": false,
      "t": 66300,
      "d": 300,
      "v": 80
    },
    {
      "midi": 78,
      "hit": false,
      "t": 66600,
      "d": 300,
      "v": 87
    },
    {
      "midi": 81,
      "hit": false,
      "t": 66600,
      "d": 300,
      "v": 87
    },
    {
      "midi": 84,
      "hit": false,
      "t": 66600,
      "d": 300,
      "v": 87
    },
    {
      "midi": 60,
      "hit": false,
      "t": 66600,
      "d": 300,
      "v": 84
    },
    {
      "midi": 72,
      "hit": false,
      "t": 66900,
      "d": 300,
      "v": 58
    },
    {
      "midi": 48,
      "hit": false,
      "t": 66900,
      "d": 300,
      "v": 68
    },
    {
      "midi": 74,
      "hit": false,
      "t": 67200,
      "d": 1200,
      "v": 92
    },
    {
      "midi": 78,
      "hit": false,
      "t": 67200,
      "d": 1200,
      "v": 92
    },
    {
      "midi": 83,
      "hit": false,
      "t": 67200,
      "d": 1200,
      "v": 92
    },
    {
      "midi": 86,
      "hit": false,
      "t": 67200,
      "d": 1200,
      "v": 92
    },
    {
      "midi": 47,
      "hit": false,
      "t": 67200,
      "d": 900,
      "v": 80
    },
    {
      "midi": 57,
      "hit": false,
      "t": 67200,
      "d": 900,
      "v": 80
    },
    {
      "midi": 54,
      "hit": false,
      "t": 68100,
      "d": 300,
      "v": 74
    },
    {
      "midi": 74,
      "hit": false,
      "t": 68400,
      "d": 300,
      "v": 74
    },
    {
      "midi": 78,
      "hit": false,
      "t": 68400,
      "d": 300,
      "v": 74
    },
    {
      "midi": 83,
      "hit": false,
      "t": 68400,
      "d": 300,
      "v": 74
    },
    {
      "midi": 86,
      "hit": false,
      "t": 68400,
      "d": 300,
      "v": 74
    },
    {
      "midi": 57,
      "hit": false,
      "t": 68400,
      "d": 300,
      "v": 84
    },
    {
      "midi": 47,
      "hit": false,
      "t": 68700,
      "d": 300,
      "v": 65
    },
    {
      "midi": 59,
      "hit": false,
      "t": 69000,
      "d": 199.21875,
      "v": 100
    },
    {
      "midi": 57,
      "hit": false,
      "t": 69000,
      "d": 300,
      "v": 84
    },
    {
      "midi": 62,
      "hit": false,
      "t": 69199.21875,
      "d": 199.21875,
      "v": 100
    },
    {
      "midi": 47,
      "hit": false,
      "t": 69300,
      "d": 300,
      "v": 72
    },
    {
      "midi": 66,
      "hit": false,
      "t": 69398.4375,
      "d": 201.5625,
      "v": 100
    },
    {
      "midi": 62,
      "hit": false,
      "t": 69600,
      "d": 150,
      "v": 93
    },
    {
      "midi": 69,
      "hit": false,
      "t": 69600,
      "d": 150,
      "v": 93
    },
    {
      "midi": 40,
      "hit": false,
      "t": 69600,
      "d": 300,
      "v": 82
    },
    {
      "midi": 52,
      "hit": false,
      "t": 69600,
      "d": 300,
      "v": 82
    },
    {
      "midi": 71,
      "hit": false,
      "t": 69750,
      "d": 150,
      "v": 81
    },
    {
      "midi": 68,
      "hit": false,
      "t": 69900,
      "d": 300,
      "v": 67
    },
    {
      "midi": 59,
      "hit": false,
      "t": 69900,
      "d": 300,
      "v": 85
    },
    {
      "midi": 74,
      "hit": false,
      "t": 70200,
      "d": 150,
      "v": 85
    },
    {
      "midi": 64,
      "hit": false,
      "t": 70200,
      "d": 300,
      "v": 87
    },
    {
      "midi": 80,
      "hit": false,
      "t": 70350,
      "d": 150,
      "v": 91
    },
    {
      "midi": 83,
      "hit": false,
      "t": 70500,
      "d": 150,
      "v": 84
    },
    {
      "midi": 59,
      "hit": false,
      "t": 70500,
      "d": 300,
      "v": 68
    },
    {
      "midi": 86,
      "hit": false,
      "t": 70650,
      "d": 150,
      "v": 81
    },
    {
      "midi": 76,
      "hit": false,
      "t": 70800,
      "d": 300,
      "v": 73
    },
    {
      "midi": 80,
      "hit": false,
      "t": 70800,
      "d": 300,
      "v": 73
    },
    {
      "midi": 84,
      "hit": false,
      "t": 70800,
      "d": 300,
      "v": 73
    },
    {
      "midi": 52,
      "hit": false,
      "t": 70800,
      "d": 600,
      "v": 79
    },
    {
      "midi": 62,
      "hit": false,
      "t": 70800,
      "d": 600,
      "v": 79
    },
    {
      "midi": 72,
      "hit": false,
      "t": 71100,
      "d": 300,
      "v": 57
    },
    {
      "midi": 74,
      "hit": false,
      "t": 71400,
      "d": 300,
      "v": 92
    },
    {
      "midi": 80,
      "hit": false,
      "t": 71400,
      "d": 300,
      "v": 92
    },
    {
      "midi": 83,
      "hit": false,
      "t": 71400,
      "d": 300,
      "v": 92
    },
    {
      "midi": 52,
      "hit": false,
      "t": 71400,
      "d": 150,
      "v": 71
    },
    {
      "midi": 50,
      "hit": false,
      "t": 71550,
      "d": 150,
      "v": 77
    },
    {
      "midi": 71,
      "hit": false,
      "t": 71700,
      "d": 300,
      "v": 55
    },
    {
      "midi": 48,
      "hit": false,
      "t": 71700,
      "d": 150,
      "v": 78
    },
    {
      "midi": 47,
      "hit": false,
      "t": 71850,
      "d": 150,
      "v": 74
    },
    {
      "midi": 72,
      "hit": false,
      "t": 72000,
      "d": 600,
      "v": 69
    },
    {
      "midi": 76,
      "hit": false,
      "t": 72000,
      "d": 600,
      "v": 69
    },
    {
      "midi": 79,
      "hit": false,
      "t": 72000,
      "d": 600,
      "v": 69
    },
    {
      "midi": 81,
      "hit": false,
      "t": 72000,
      "d": 600,
      "v": 69
    },
    {
      "midi": 84,
      "hit": false,
      "t": 72000,
      "d": 600,
      "v": 69
    },
    {
      "midi": 45,
      "hit": false,
      "t": 72000,
      "d": 300,
      "v": 82
    },
    {
      "midi": 57,
      "hit": false,
      "t": 72000,
      "d": 300,
      "v": 82
    },
    {
      "midi": 52,
      "hit": false,
      "t": 72300,
      "d": 300,
      "v": 67
    },
    {
      "midi": 72,
      "hit": false,
      "t": 72600,
      "d": 450,
      "v": 72
    },
    {
      "midi": 76,
      "hit": false,
      "t": 72600,
      "d": 450,
      "v": 72
    },
    {
      "midi": 79,
      "hit": false,
      "t": 72600,
      "d": 450,
      "v": 72
    },
    {
      "midi": 81,
      "hit": false,
      "t": 72600,
      "d": 450,
      "v": 72
    },
    {
      "midi": 84,
      "hit": false,
      "t": 72600,
      "d": 450,
      "v": 72
    },
    {
      "midi": 60,
      "hit": false,
      "t": 72600,
      "d": 300,
      "v": 90
    },
    {
      "midi": 52,
      "hit": false,
      "t": 72900,
      "d": 300,
      "v": 67
    },
    {
      "midi": 83,
      "hit": false,
      "t": 73050,
      "d": 49.21875,
      "v": 100
    },
    {
      "midi": 84,
      "hit": false,
      "t": 73099.21875,
      "d": 49.21875,
      "v": 100
    },
    {
      "midi": 83,
      "hit": false,
      "t": 73148.4375,
      "d": 51.5625,
      "v": 100
    },
    {
      "midi": 81,
      "hit": false,
      "t": 73200,
      "d": 300,
      "v": 82
    },
    {
      "midi": 55,
      "hit": false,
      "t": 73200,
      "d": 600,
      "v": 94
    },
    {
      "midi": 57,
      "hit": false,
      "t": 73200,
      "d": 600,
      "v": 94
    },
    {
      "midi": 60,
      "hit": false,
      "t": 73200,
      "d": 600,
      "v": 94
    },
    {
      "midi": 64,
      "hit": false,
      "t": 73200,
      "d": 600,
      "v": 94
    },
    {
      "midi": 76,
      "hit": false,
      "t": 73500,
      "d": 300,
      "v": 71
    },
    {
      "midi": 64,
      "hit": false,
      "t": 73800,
      "d": 150,
      "v": 64
    },
    {
      "midi": 55,
      "hit": false,
      "t": 73800,
      "d": 300,
      "v": 73
    },
    {
      "midi": 57,
      "hit": false,
      "t": 73800,
      "d": 300,
      "v": 73
    },
    {
      "midi": 60,
      "hit": false,
      "t": 73800,
      "d": 300,
      "v": 73
    },
    {
      "midi": 69,
      "hit": false,
      "t": 73950,
      "d": 150,
      "v": 100
    },
    {
      "midi": 72,
      "hit": false,
      "t": 74100,
      "d": 150,
      "v": 66
    },
    {
      "midi": 48,
      "hit": false,
      "t": 74100,
      "d": 300,
      "v": 65
    },
    {
      "midi": 76,
      "hit": false,
      "t": 74250,
      "d": 150,
      "v": 88
    },
    {
      "midi": 72,
      "hit": false,
      "t": 74400,
      "d": 300,
      "v": 94
    },
    {
      "midi": 76,
      "hit": false,
      "t": 74400,
      "d": 300,
      "v": 94
    },
    {
      "midi": 79,
      "hit": false,
      "t": 74400,
      "d": 300,
      "v": 94
    },
    {
      "midi": 50,
      "hit": false,
      "t": 74400,
      "d": 300,
      "v": 80
    },
    {
      "midi": 69,
      "hit": false,
      "t": 74700,
      "d": 300,
      "v": 64
    },
    {
      "midi": 38,
      "hit": false,
      "t": 74700,
      "d": 600,
      "v": 67
    },
    {
      "midi": 72,
      "hit": false,
      "t": 75000,
      "d": 300,
      "v": 90
    },
    {
      "midi": 74,
      "hit": false,
      "t": 75000,
      "d": 300,
      "v": 90
    },
    {
      "midi": 78,
      "hit": false,
      "t": 75000,
      "d": 300,
      "v": 90
    },
    {
      "midi": 67,
      "hit": false,
      "t": 75300,
      "d": 300,
      "v": 77
    },
    {
      "midi": 69,
      "hit": false,
      "t": 75300,
      "d": 300,
      "v": 77
    },
    {
      "midi": 72,
      "hit": false,
      "t": 75300,
      "d": 300,
      "v": 77
    },
    {
      "midi": 76,
      "hit": false,
      "t": 75300,
      "d": 300,
      "v": 77
    },
    {
      "midi": 48,
      "hit": false,
      "t": 75300,
      "d": 150,
      "v": 85
    },
    {
      "midi": 52,
      "hit": false,
      "t": 75450,
      "d": 150,
      "v": 83
    },
    {
      "midi": 66,
      "hit": false,
      "t": 75600,
      "d": 450,
      "v": 75
    },
    {
      "midi": 69,
      "hit": false,
      "t": 75600,
      "d": 450,
      "v": 75
    },
    {
      "midi": 72,
      "hit": false,
      "t": 75600,
      "d": 450,
      "v": 75
    },
    {
      "midi": 74,
      "hit": false,
      "t": 75600,
      "d": 450,
      "v": 75
    },
    {
      "midi": 50,
      "hit": false,
      "t": 75600,
      "d": 300,
      "v": 78
    },
    {
      "midi": 57,
      "hit": false,
      "t": 75900,
      "d": 300,
      "v": 83
    },
    {
      "midi": 67,
      "hit": false,
      "t": 76050,
      "d": 150,
      "v": 83
    },
    {
      "midi": 76,
      "hit": false,
      "t": 76050,
      "d": 150,
      "v": 83
    },
    {
      "midi": 66,
      "hit": false,
      "t": 76200,
      "d": 199.21875,
      "v": 100
    },
    {
      "midi": 72,
      "hit": false,
      "t": 76200,
      "d": 199.21875,
      "v": 100
    },
    {
      "midi": 78,
      "hit": false,
      "t": 76200,
      "d": 199.21875,
      "v": 100
    },
    {
      "midi": 60,
      "hit": false,
      "t": 76200,
      "d": 300,
      "v": 87
    },
    {
      "midi": 67,
      "hit": false,
      "t": 76399.21875,
      "d": 199.21875,
      "v": 100
    },
    {
      "midi": 76,
      "hit": false,
      "t": 76399.21875,
      "d": 199.21875,
      "v": 100
    },
    {
      "midi": 79,
      "hit": false,
      "t": 76399.21875,
      "d": 199.21875,
      "v": 100
    },
    {
      "midi": 50,
      "hit": false,
      "t": 76500,
      "d": 300,
      "v": 61
    },
    {
      "midi": 69,
      "hit": false,
      "t": 76598.4375,
      "d": 201.5625,
      "v": 100
    },
    {
      "midi": 76,
      "hit": false,
      "t": 76598.4375,
      "d": 201.5625,
      "v": 100
    },
    {
      "midi": 81,
      "hit": false,
      "t": 76598.4375,
      "d": 201.5625,
      "v": 100
    },
    {
      "midi": 71,
      "hit": false,
      "t": 76800,
      "d": 600,
      "v": 85
    },
    {
      "midi": 76,
      "hit": false,
      "t": 76800,
      "d": 600,
      "v": 85
    },
    {
      "midi": 78,
      "hit": false,
      "t": 76800,
      "d": 600,
      "v": 85
    },
    {
      "midi": 83,
      "hit": false,
      "t": 76800,
      "d": 600,
      "v": 85
    },
    {
      "midi": 42,
      "hit": false,
      "t": 76800,
      "d": 300,
      "v": 68
    },
    {
      "midi": 52,
      "hit": false,
      "t": 77100,
      "d": 300,
      "v": 84
    },
    {
      "midi": 83,
      "hit": false,
      "t": 77400,
      "d": 150,
      "v": 83
    },
    {
      "midi": 57,
      "hit": false,
      "t": 77400,
      "d": 300,
      "v": 80
    },
    {
      "midi": 78,
      "hit": false,
      "t": 77550,
      "d": 150,
      "v": 65
    },
    {
      "midi": 76,
      "hit": false,
      "t": 77700,
      "d": 150,
      "v": 66
    },
    {
      "midi": 54,
      "hit": false,
      "t": 77700,
      "d": 300,
      "v": 76
    },
    {
      "midi": 71,
      "hit": false,
      "t": 77850,
      "d": 150,
      "v": 66
    },
    {
      "midi": 69,
      "hit": false,
      "t": 78000,
      "d": 300,
      "v": 75
    },
    {
      "midi": 54,
      "hit": false,
      "t": 78000,
      "d": 600,
      "v": 87
    },
    {
      "midi": 61,
      "hit": false,
      "t": 78000,
      "d": 600,
      "v": 87
    },
    {
      "midi": 64,
      "hit": false,
      "t": 78300,
      "d": 300,
      "v": 61
    },
    {
      "midi": 61,
      "hit": false,
      "t": 78600,
      "d": 300,
      "v": 66
    },
    {
      "midi": 42,
      "hit": false,
      "t": 78600,
      "d": 300,
      "v": 67
    },
    {
      "midi": 57,
      "hit": false,
      "t": 78900,
      "d": 300,
      "v": 73
    },
    {
      "midi": 49,
      "hit": false,
      "t": 78900,
      "d": 300,
      "v": 81
    },
    {
      "midi": 54,
      "hit": false,
      "t": 79200,
      "d": 900,
      "v": 69
    },
    {
      "midi": 57,
      "hit": false,
      "t": 79200,
      "d": 900,
      "v": 69
    },
    {
      "midi": 61,
      "hit": false,
      "t": 79200,
      "d": 900,
      "v": 84
    },
    {
      "midi": 47,
      "hit": false,
      "t": 79200,
      "d": 300,
      "v": 75
    },
    {
      "midi": 35,
      "hit": false,
      "t": 79500,
      "d": 600,
      "v": 70
    },
    {
      "midi": 60,
      "hit": false,
      "t": 80100,
      "d": 98.4375,
      "v": 100
    },
    {
      "midi": 35,
      "hit": false,
      "t": 80100,
      "d": 300,
      "v": 72
    },
    {
      "midi": 62,
      "hit": false,
      "t": 80198.4375,
      "d": 100.78125,
      "v": 100
    },
    {
      "midi": 60,
      "hit": false,
      "t": 80299.21875,
      "d": 100.78125,
      "v": 100
    },
    {
      "midi": 60,
      "hit": false,
      "t": 80400,
      "d": 900,
      "v": 100
    },
    {
      "midi": 47,
      "hit": false,
      "t": 80400,
      "d": 300,
      "v": 87
    },
    {
      "midi": 54,
      "hit": false,
      "t": 80700,
      "d": 300,
      "v": 83
    },
    {
      "midi": 57,
      "hit": false,
      "t": 81000,
      "d": 300,
      "v": 80
    },
    {
      "midi": 60,
      "hit": false,
      "t": 81300,
      "d": 98.4375,
      "v": 100
    },
    {
      "midi": 47,
      "hit": false,
      "t": 81300,
      "d": 300,
      "v": 76
    },
    {
      "midi": 54,
      "hit": false,
      "t": 81300,
      "d": 300,
      "v": 76
    },
    {
      "midi": 62,
      "hit": false,
      "t": 81398.4375,
      "d": 100.78125,
      "v": 100
    },
    {
      "midi": 60,
      "hit": false,
      "t": 81499.21875,
      "d": 100.78125,
      "v": 100
    },
    {
      "midi": 55,
      "hit": false,
      "t": 81600,
      "d": 300,
      "v": 66
    },
    {
      "midi": 59,
      "hit": false,
      "t": 81600,
      "d": 300,
      "v": 100
    },
    {
      "midi": 40,
      "hit": false,
      "t": 81600,
      "d": 300,
      "v": 73
    },
    {
      "midi": 52,
      "hit": false,
      "t": 81600,
      "d": 300,
      "v": 73
    },
    {
      "midi": 64,
      "hit": false,
      "t": 81900,
      "d": 300,
      "v": 83
    },
    {
      "midi": 55,
      "hit": false,
      "t": 81900,
      "d": 300,
      "v": 79
    },
    {
      "midi": 71,
      "hit": false,
      "t": 82200,
      "d": 300,
      "v": 69
    },
    {
      "midi": 59,
      "hit": false,
      "t": 82200,
      "d": 300,
      "v": 82
    },
    {
      "midi": 64,
      "hit": false,
      "t": 82500,
      "d": 300,
      "v": 60
    },
    {
      "midi": 57,
      "hit": false,
      "t": 82500,
      "d": 300,
      "v": 75
    },
    {
      "midi": 59,
      "hit": false,
      "t": 82800,
      "d": 300,
      "v": 68
    },
    {
      "midi": 64,
      "hit": false,
      "t": 82800,
      "d": 300,
      "v": 68
    },
    {
      "midi": 55,
      "hit": false,
      "t": 82800,
      "d": 300,
      "v": 79
    },
    {
      "midi": 59,
      "hit": false,
      "t": 83100,
      "d": 300,
      "v": 75
    },
    {
      "midi": 64,
      "hit": false,
      "t": 83100,
      "d": 300,
      "v": 75
    },
    {
      "midi": 66,
      "hit": false,
      "t": 83100,
      "d": 300,
      "v": 75
    },
    {
      "midi": 54,
      "hit": false,
      "t": 83100,
      "d": 300,
      "v": 77
    },
    {
      "midi": 59,
      "hit": false,
      "t": 83400,
      "d": 300,
      "v": 79
    },
    {
      "midi": 64,
      "hit": false,
      "t": 83400,
      "d": 300,
      "v": 79
    },
    {
      "midi": 66,
      "hit": false,
      "t": 83400,
      "d": 300,
      "v": 79
    },
    {
      "midi": 52,
      "hit": false,
      "t": 83400,
      "d": 300,
      "v": 73
    },
    {
      "midi": 59,
      "hit": false,
      "t": 83700,
      "d": 300,
      "v": 79
    },
    {
      "midi": 64,
      "hit": false,
      "t": 83700,
      "d": 300,
      "v": 79
    },
    {
      "midi": 67,
      "hit": false,
      "t": 83700,
      "d": 300,
      "v": 79
    },
    {
      "midi": 47,
      "hit": false,
      "t": 83700,
      "d": 300,
      "v": 70
    },
    {
      "midi": 59,
      "hit": false,
      "t": 84000,
      "d": 300,
      "v": 77
    },
    {
      "midi": 63,
      "hit": false,
      "t": 84000,
      "d": 300,
      "v": 77
    },
    {
      "midi": 67,
      "hit": false,
      "t": 84000,
      "d": 300,
      "v": 77
    },
    {
      "midi": 39,
      "hit": false,
      "t": 84000,
      "d": 300,
      "v": 71
    },
    {
      "midi": 59,
      "hit": false,
      "t": 84300,
      "d": 300,
      "v": 85
    },
    {
      "midi": 63,
      "hit": false,
      "t": 84300,
      "d": 300,
      "v": 85
    },
    {
      "midi": 69,
      "hit": false,
      "t": 84300,
      "d": 300,
      "v": 85
    },
    {
      "midi": 47,
      "hit": false,
      "t": 84300,
      "d": 300,
      "v": 84
    },
    {
      "midi": 59,
      "hit": false,
      "t": 84600,
      "d": 300,
      "v": 78
    },
    {
      "midi": 63,
      "hit": false,
      "t": 84600,
      "d": 300,
      "v": 78
    },
    {
      "midi": 69,
      "hit": false,
      "t": 84600,
      "d": 300,
      "v": 78
    },
    {
      "midi": 51,
      "hit": false,
      "t": 84600,
      "d": 300,
      "v": 79
    },
    {
      "midi": 59,
      "hit": false,
      "t": 84900,
      "d": 300,
      "v": 81
    },
    {
      "midi": 63,
      "hit": false,
      "t": 84900,
      "d": 300,
      "v": 81
    },
    {
      "midi": 71,
      "hit": false,
      "t": 84900,
      "d": 300,
      "v": 81
    },
    {
      "midi": 47,
      "hit": false,
      "t": 84900,
      "d": 300,
      "v": 69
    },
    {
      "midi": 63,
      "hit": false,
      "t": 85200,
      "d": 300,
      "v": 83
    },
    {
      "midi": 71,
      "hit": false,
      "t": 85200,
      "d": 300,
      "v": 83
    },
    {
      "midi": 55,
      "hit": false,
      "t": 85200,
      "d": 300,
      "v": 87
    },
    {
      "midi": 59,
      "hit": false,
      "t": 85500,
      "d": 300,
      "v": 74
    },
    {
      "midi": 71,
      "hit": false,
      "t": 85500,
      "d": 300,
      "v": 74
    },
    {
      "midi": 51,
      "hit": false,
      "t": 85500,
      "d": 300,
      "v": 74
    },
    {
      "midi": 63,
      "hit": false,
      "t": 85800,
      "d": 150,
      "v": 57
    },
    {
      "midi": 71,
      "hit": false,
      "t": 85800,
      "d": 150,
      "v": 70
    },
    {
      "midi": 47,
      "hit": false,
      "t": 85800,
      "d": 300,
      "v": 77
    },
    {
      "midi": 69,
      "hit": false,
      "t": 85950,
      "d": 150,
      "v": 72
    },
    {
      "midi": 59,
      "hit": false,
      "t": 86100,
      "d": 150,
      "v": 72
    },
    {
      "midi": 69,
      "hit": false,
      "t": 86100,
      "d": 150,
      "v": 70
    },
    {
      "midi": 39,
      "hit": false,
      "t": 86100,
      "d": 300,
      "v": 70
    },
    {
      "midi": 67,
      "hit": false,
      "t": 86250,
      "d": 150,
      "v": 68
    },
    {
      "midi": 62,
      "hit": false,
      "t": 86400,
      "d": 600,
      "v": 82
    },
    {
      "midi": 64,
      "hit": false,
      "t": 86400,
      "d": 600,
      "v": 82
    },
    {
      "midi": 67,
      "hit": false,
      "t": 86400,
      "d": 600,
      "v": 82
    },
    {
      "midi": 71,
      "hit": false,
      "t": 86400,
      "d": 600,
      "v": 82
    },
    {
      "midi": 38,
      "hit": false,
      "t": 86400,
      "d": 300,
      "v": 84
    },
    {
      "midi": 50,
      "hit": false,
      "t": 86400,
      "d": 300,
      "v": 84
    },
    {
      "midi": 52,
      "hit": false,
      "t": 86700,
      "d": 300,
      "v": 77
    },
    {
      "midi": 64,
      "hit": false,
      "t": 87000,
      "d": 300,
      "v": 79
    },
    {
      "midi": 59,
      "hit": false,
      "t": 87000,
      "d": 300,
      "v": 86
    },
    {
      "midi": 62,
      "hit": false,
      "t": 87300,
      "d": 300,
      "v": 91
    },
    {
      "midi": 66,
      "hit": false,
      "t": 87300,
      "d": 300,
      "v": 91
    },
    {
      "midi": 69,
      "hit": false,
      "t": 87300,
      "d": 300,
      "v": 91
    },
    {
      "midi": 71,
      "hit": false,
      "t": 87300,
      "d": 300,
      "v": 75
    },
    {
      "midi": 57,
      "hit": false,
      "t": 87300,
      "d": 300,
      "v": 76
    },
    {
      "midi": 62,
      "hit": false,
      "t": 87600,
      "d": 300,
      "v": 81
    },
    {
      "midi": 66,
      "hit": false,
      "t": 87600,
      "d": 300,
      "v": 81
    },
    {
      "midi": 69,
      "hit": false,
      "t": 87600,
      "d": 300,
      "v": 81
    },
    {
      "midi": 57,
      "hit": false,
      "t": 87600,
      "d": 300,
      "v": 71
    },
    {
      "midi": 67,
      "hit": false,
      "t": 87900,
      "d": 300,
      "v": 67
    },
    {
      "midi": 55,
      "hit": false,
      "t": 87900,
      "d": 300,
      "v": 72
    },
    {
      "midi": 62,
      "hit": false,
      "t": 88200,
      "d": 300,
      "v": 73
    },
    {
      "midi": 64,
      "hit": false,
      "t": 88200,
      "d": 300,
      "v": 73
    },
    {
      "midi": 67,
      "hit": false,
      "t": 88200,
      "d": 300,
      "v": 73
    },
    {
      "midi": 52,
      "hit": false,
      "t": 88200,
      "d": 300,
      "v": 75
    },
    {
      "midi": 62,
      "hit": false,
      "t": 88500,
      "d": 300,
      "v": 82
    },
    {
      "midi": 64,
      "hit": false,
      "t": 88500,
      "d": 300,
      "v": 82
    },
    {
      "midi": 69,
      "hit": false,
      "t": 88500,
      "d": 300,
      "v": 82
    },
    {
      "midi": 50,
      "hit": false,
      "t": 88500,
      "d": 300,
      "v": 76
    },
    {
      "midi": 64,
      "hit": false,
      "t": 88800,
      "d": 150,
      "v": 75
    },
    {
      "midi": 69,
      "hit": false,
      "t": 88800,
      "d": 150,
      "v": 75
    },
    {
      "midi": 37,
      "hit": false,
      "t": 88800,
      "d": 600,
      "v": 74
    },
    {
      "midi": 49,
      "hit": false,
      "t": 88800,
      "d": 600,
      "v": 74
    },
    {
      "midi": 71,
      "hit": false,
      "t": 88950,
      "d": 150,
      "v": 82
    },
    {
      "midi": 61,
      "hit": false,
      "t": 89100,
      "d": 300,
      "v": 68
    },
    {
      "midi": 67,
      "hit": false,
      "t": 89100,
      "d": 300,
      "v": 68
    },
    {
      "midi": 61,
      "hit": false,
      "t": 89400,
      "d": 150,
      "v": 72
    },
    {
      "midi": 64,
      "hit": false,
      "t": 89400,
      "d": 150,
      "v": 72
    },
    {
      "midi": 45,
      "hit": false,
      "t": 89400,
      "d": 300,
      "v": 70
    },
    {
      "midi": 62,
      "hit": false,
      "t": 89550,
      "d": 150,
      "v": 82
    },
    {
      "midi": 66,
      "hit": false,
      "t": 89550,
      "d": 150,
      "v": 82
    },
    {
      "midi": 64,
      "hit": false,
      "t": 89700,
      "d": 150,
      "v": 76
    },
    {
      "midi": 67,
      "hit": false,
      "t": 89700,
      "d": 150,
      "v": 76
    },
    {
      "midi": 55,
      "hit": false,
      "t": 89700,
      "d": 300,
      "v": 87
    },
    {
      "midi": 66,
      "hit": false,
      "t": 89850,
      "d": 150,
      "v": 79
    },
    {
      "midi": 69,
      "hit": false,
      "t": 89850,
      "d": 150,
      "v": 79
    },
    {
      "midi": 64,
      "hit": false,
      "t": 90000,
      "d": 300,
      "v": 71
    },
    {
      "midi": 71,
      "hit": false,
      "t": 90000,
      "d": 300,
      "v": 79
    },
    {
      "midi": 52,
      "hit": false,
      "t": 90000,
      "d": 300,
      "v": 73
    },
    {
      "midi": 61,
      "hit": false,
      "t": 90300,
      "d": 300,
      "v": 73
    },
    {
      "midi": 49,
      "hit": false,
      "t": 90300,
      "d": 300,
      "v": 67
    },
    {
      "midi": 64,
      "hit": false,
      "t": 90600,
      "d": 199.21875,
      "v": 100
    },
    {
      "midi": 69,
      "hit": false,
      "t": 90600,
      "d": 199.21875,
      "v": 100
    },
    {
      "midi": 45,
      "hit": false,
      "t": 90600,
      "d": 300,
      "v": 71
    },
    {
      "midi": 64,
      "hit": false,
      "t": 90799.21875,
      "d": 199.21875,
      "v": 100
    },
    {
      "midi": 69,
      "hit": false,
      "t": 90799.21875,
      "d": 199.21875,
      "v": 100
    },
    {
      "midi": 43,
      "hit": false,
      "t": 90900,
      "d": 300,
      "v": 70
    },
    {
      "midi": 60,
      "hit": false,
      "t": 90998.4375,
      "d": 201.5625,
      "v": 100
    },
    {
      "midi": 67,
      "hit": false,
      "t": 90998.4375,
      "d": 201.5625,
      "v": 100
    },
    {
      "midi": 60,
      "hit": false,
      "t": 91200,
      "d": 600,
      "v": 71
    },
    {
      "midi": 64,
      "hit": false,
      "t": 91200,
      "d": 600,
      "v": 71
    },
    {
      "midi": 67,
      "hit": false,
      "t": 91200,
      "d": 600,
      "v": 78
    },
    {
      "midi": 71,
      "hit": false,
      "t": 91200,
      "d": 600,
      "v": 78
    },
    {
      "midi": 33,
      "hit": false,
      "t": 91200,
      "d": 300,
      "v": 75
    },
    {
      "midi": 45,
      "hit": false,
      "t": 91200,
      "d": 300,
      "v": 75
    },
    {
      "midi": 52,
      "hit": false,
      "t": 91500,
      "d": 300,
      "v": 81
    },
    {
      "midi": 60,
      "hit": false,
      "t": 91800,
      "d": 300,
      "v": 74
    },
    {
      "midi": 64,
      "hit": false,
      "t": 91800,
      "d": 300,
      "v": 74
    },
    {
      "midi": 55,
      "hit": false,
      "t": 91800,
      "d": 300,
      "v": 81
    },
    {
      "midi": 69,
      "hit": false,
      "t": 92100,
      "d": 300,
      "v": 71
    },
    {
      "midi": 57,
      "hit": false,
      "t": 92100,
      "d": 300,
      "v": 80
    },
    {
      "midi": 60,
      "hit": false,
      "t": 92400,
      "d": 300,
      "v": 76
    },
    {
      "midi": 64,
      "hit": false,
      "t": 92400,
      "d": 300,
      "v": 76
    },
    {
      "midi": 69,
      "hit": false,
      "t": 92400,
      "d": 300,
      "v": 75
    },
    {
      "midi": 48,
      "hit": false,
      "t": 92400,
      "d": 300,
      "v": 74
    },
    {
      "midi": 57,
      "hit": false,
      "t": 92400,
      "d": 300,
      "v": 74
    },
    {
      "midi": 62,
      "hit": false,
      "t": 92700,
      "d": 150,
      "v": 69
    },
    {
      "midi": 67,
      "hit": false,
      "t": 92700,
      "d": 150,
      "v": 69
    },
    {
      "midi": 48,
      "hit": false,
      "t": 92700,
      "d": 300,
      "v": 80
    },
    {
      "midi": 59,
      "hit": false,
      "t": 92700,
      "d": 300,
      "v": 80
    },
    {
      "midi": 69,
      "hit": false,
      "t": 92850,
      "d": 150,
      "v": 79
    },
    {
      "midi": 62,
      "hit": false,
      "t": 93000,
      "d": 300,
      "v": 78
    },
    {
      "midi": 48,
      "hit": false,
      "t": 93000,
      "d": 300,
      "v": 78
    },
    {
      "midi": 55,
      "hit": false,
      "t": 93000,
      "d": 300,
      "v": 78
    },
    {
      "midi": 59,
      "hit": false,
      "t": 93000,
      "d": 300,
      "v": 78
    },
    {
      "midi": 64,
      "hit": false,
      "t": 93300,
      "d": 150,
      "v": 80
    },
    {
      "midi": 48,
      "hit": false,
      "t": 93300,
      "d": 300,
      "v": 77
    },
    {
      "midi": 57,
      "hit": false,
      "t": 93300,
      "d": 300,
      "v": 77
    },
    {
      "midi": 60,
      "hit": false,
      "t": 93300,
      "d": 300,
      "v": 77
    },
    {
      "midi": 66,
      "hit": false,
      "t": 93450,
      "d": 150,
      "v": 81
    },
    {
      "midi": 57,
      "hit": false,
      "t": 93600,
      "d": 600,
      "v": 74
    },
    {
      "midi": 60,
      "hit": false,
      "t": 93600,
      "d": 600,
      "v": 74
    },
    {
      "midi": 64,
      "hit": false,
      "t": 93600,
      "d": 600,
      "v": 74
    },
    {
      "midi": 67,
      "hit": false,
      "t": 93600,
      "d": 600,
      "v": 74
    },
    {
      "midi": 50,
      "hit": false,
      "t": 93600,
      "d": 300,
      "v": 69
    },
    {
      "midi": 38,
      "hit": false,
      "t": 93900,
      "d": 600,
      "v": 66
    },
    {
      "midi": 57,
      "hit": false,
      "t": 94200,
      "d": 300,
      "v": 72
    },
    {
      "midi": 62,
      "hit": false,
      "t": 94200,
      "d": 300,
      "v": 72
    },
    {
      "midi": 66,
      "hit": false,
      "t": 94200,
      "d": 300,
      "v": 72
    },
    {
      "midi": 55,
      "hit": false,
      "t": 94500,
      "d": 300,
      "v": 69
    },
    {
      "midi": 57,
      "hit": false,
      "t": 94500,
      "d": 300,
      "v": 69
    },
    {
      "midi": 60,
      "hit": false,
      "t": 94500,
      "d": 300,
      "v": 69
    },
    {
      "midi": 64,
      "hit": false,
      "t": 94500,
      "d": 300,
      "v": 69
    },
    {
      "midi": 48,
      "hit": false,
      "t": 94500,
      "d": 150,
      "v": 87
    },
    {
      "midi": 52,
      "hit": false,
      "t": 94650,
      "d": 150,
      "v": 79
    },
    {
      "midi": 57,
      "hit": false,
      "t": 94800,
      "d": 450,
      "v": 80
    },
    {
      "midi": 60,
      "hit": false,
      "t": 94800,
      "d": 450,
      "v": 80
    },
    {
      "midi": 62,
      "hit": false,
      "t": 94800,
      "d": 450,
      "v": 80
    },
    {
      "midi": 66,
      "hit": false,
      "t": 94800,
      "d": 450,
      "v": 80
    },
    {
      "midi": 50,
      "hit": false,
      "t": 94800,
      "d": 300,
      "v": 76
    },
    {
      "midi": 36,
      "hit": false,
      "t": 95100,
      "d": 300,
      "v": 73
    },
    {
      "midi": 48,
      "hit": false,
      "t": 95100,
      "d": 300,
      "v": 73
    },
    {
      "midi": 62,
      "hit": false,
      "t": 95250,
      "d": 150,
      "v": 69
    },
    {
      "midi": 57,
      "hit": false,
      "t": 95400,
      "d": 199.21875,
      "v": 100
    },
    {
      "midi": 59,
      "hit": false,
      "t": 95400,
      "d": 199.21875,
      "v": 100
    },
    {
      "midi": 62,
      "hit": false,
      "t": 95400,
      "d": 199.21875,
      "v": 100
    },
    {
      "midi": 66,
      "hit": false,
      "t": 95400,
      "d": 199.21875,
      "v": 100
    },
    {
      "midi": 35,
      "hit": false,
      "t": 95400,
      "d": 300,
      "v": 76
    },
    {
      "midi": 47,
      "hit": false,
      "t": 95400,
      "d": 300,
      "v": 76
    },
    {
      "midi": 57,
      "hit": false,
      "t": 95599.21875,
      "d": 199.21875,
      "v": 100
    },
    {
      "midi": 60,
      "hit": false,
      "t": 95599.21875,
      "d": 199.21875,
      "v": 100
    },
    {
      "midi": 64,
      "hit": false,
      "t": 95599.21875,
      "d": 199.21875,
      "v": 100
    },
    {
      "midi": 67,
      "hit": false,
      "t": 95599.21875,
      "d": 199.21875,
      "v": 100
    },
    {
      "midi": 33,
      "hit": false,
      "t": 95700,
      "d": 300,
      "v": 69
    },
    {
      "midi": 45,
      "hit": false,
      "t": 95700,
      "d": 300,
      "v": 69
    },
    {
      "midi": 60,
      "hit": false,
      "t": 95798.4375,
      "d": 201.5625,
      "v": 100
    },
    {
      "midi": 63,
      "hit": false,
      "t": 95798.4375,
      "d": 201.5625,
      "v": 100
    },
    {
      "midi": 67,
      "hit": false,
      "t": 95798.4375,
      "d": 201.5625,
      "v": 100
    },
    {
      "midi": 69,
      "hit": false,
      "t": 95798.4375,
      "d": 201.5625,
      "v": 100
    },
    {
      "midi": 59,
      "hit": false,
      "t": 96000,
      "d": 600,
      "v": 85
    },
    {
      "midi": 62,
      "hit": false,
      "t": 96000,
      "d": 600,
      "v": 85
    },
    {
      "midi": 66,
      "hit": false,
      "t": 96000,
      "d": 600,
      "v": 85
    },
    {
      "midi": 71,
      "hit": false,
      "t": 96000,
      "d": 600,
      "v": 85
    },
    {
      "midi": 31,
      "hit": false,
      "t": 96000,
      "d": 300,
      "v": 74
    },
    {
      "midi": 43,
      "hit": false,
      "t": 96000,
      "d": 300,
      "v": 74
    },
    {
      "midi": 43,
      "hit": false,
      "t": 96300,
      "d": 300,
      "v": 78
    },
    {
      "midi": 74,
      "hit": false,
      "t": 96600,
      "d": 300,
      "v": 98
    },
    {
      "midi": 81,
      "hit": false,
      "t": 96600,
      "d": 300,
      "v": 98
    },
    {
      "midi": 43,
      "hit": false,
      "t": 96600,
      "d": 300,
      "v": 87
    },
    {
      "midi": 54,
      "hit": false,
      "t": 96600,
      "d": 300,
      "v": 87
    },
    {
      "midi": 71,
      "hit": false,
      "t": 96900,
      "d": 300,
      "v": 70
    },
    {
      "midi": 78,
      "hit": false,
      "t": 96900,
      "d": 300,
      "v": 70
    },
    {
      "midi": 50,
      "hit": false,
      "t": 96900,
      "d": 300,
      "v": 75
    },
    {
      "midi": 69,
      "hit": false,
      "t": 97200,
      "d": 300,
      "v": 75
    },
    {
      "midi": 71,
      "hit": false,
      "t": 97200,
      "d": 300,
      "v": 75
    },
    {
      "midi": 78,
      "hit": false,
      "t": 97200,
      "d": 300,
      "v": 75
    },
    {
      "midi": 50,
      "hit": false,
      "t": 97200,
      "d": 300,
      "v": 85
    },
    {
      "midi": 57,
      "hit": false,
      "t": 97200,
      "d": 300,
      "v": 85
    },
    {
      "midi": 66,
      "hit": false,
      "t": 97500,
      "d": 300,
      "v": 70
    },
    {
      "midi": 74,
      "hit": false,
      "t": 97500,
      "d": 300,
      "v": 70
    },
    {
      "midi": 50,
      "hit": false,
      "t": 97500,
      "d": 300,
      "v": 75
    },
    {
      "midi": 59,
      "hit": false,
      "t": 97500,
      "d": 300,
      "v": 75
    },
    {
      "midi": 66,
      "hit": false,
      "t": 97800,
      "d": 300,
      "v": 77
    },
    {
      "midi": 71,
      "hit": false,
      "t": 97800,
      "d": 300,
      "v": 77
    },
    {
      "midi": 74,
      "hit": false,
      "t": 97800,
      "d": 300,
      "v": 77
    },
    {
      "midi": 43,
      "hit": false,
      "t": 97800,
      "d": 300,
      "v": 68
    },
    {
      "midi": 50,
      "hit": false,
      "t": 97800,
      "d": 300,
      "v": 68
    },
    {
      "midi": 62,
      "hit": false,
      "t": 98100,
      "d": 300,
      "v": 70
    },
    {
      "midi": 66,
      "hit": false,
      "t": 98100,
      "d": 300,
      "v": 70
    },
    {
      "midi": 71,
      "hit": false,
      "t": 98100,
      "d": 300,
      "v": 70
    },
    {
      "midi": 43,
      "hit": false,
      "t": 98100,
      "d": 300,
      "v": 80
    },
    {
      "midi": 54,
      "hit": false,
      "t": 98100,
      "d": 300,
      "v": 80
    },
    {
      "midi": 62,
      "hit": false,
      "t": 98400,
      "d": 600,
      "v": 72
    },
    {
      "midi": 66,
      "hit": false,
      "t": 98400,
      "d": 600,
      "v": 72
    },
    {
      "midi": 71,
      "hit": false,
      "t": 98400,
      "d": 600,
      "v": 73
    },
    {
      "midi": 40,
      "hit": false,
      "t": 98400,
      "d": 300,
      "v": 75
    },
    {
      "midi": 52,
      "hit": false,
      "t": 98400,
      "d": 300,
      "v": 75
    },
    {
      "midi": 54,
      "hit": false,
      "t": 98700,
      "d": 150,
      "v": 82
    },
    {
      "midi": 57,
      "hit": false,
      "t": 98850,
      "d": 150,
      "v": 76
    },
    {
      "midi": 62,
      "hit": false,
      "t": 99000,
      "d": 300,
      "v": 84
    },
    {
      "midi": 64,
      "hit": false,
      "t": 99000,
      "d": 300,
      "v": 84
    },
    {
      "midi": 68,
      "hit": false,
      "t": 99000,
      "d": 300,
      "v": 84
    },
    {
      "midi": 52,
      "hit": false,
      "t": 99000,
      "d": 600,
      "v": 82
    },
    {
      "midi": 59,
      "hit": false,
      "t": 99000,
      "d": 600,
      "v": 82
    },
    {
      "midi": 71,
      "hit": false,
      "t": 99300,
      "d": 300,
      "v": 80
    },
    {
      "midi": 69,
      "hit": false,
      "t": 99600,
      "d": 150,
      "v": 91
    },
    {
      "midi": 77,
      "hit": false,
      "t": 99600,
      "d": 150,
      "v": 91
    },
    {
      "midi": 52,
      "hit": false,
      "t": 99600,
      "d": 300,
      "v": 63
    },
    {
      "midi": 68,
      "hit": false,
      "t": 99750,
      "d": 450,
      "v": 74
    },
    {
      "midi": 76,
      "hit": false,
      "t": 99750,
      "d": 450,
      "v": 74
    },
    {
      "midi": 40,
      "hit": false,
      "t": 99900,
      "d": 300,
      "v": 61
    },
    {
      "midi": 66,
      "hit": false,
      "t": 100200,
      "d": 98.4375,
      "v": 100
    },
    {
      "midi": 78,
      "hit": false,
      "t": 100200,
      "d": 98.4375,
      "v": 100
    },
    {
      "midi": 40,
      "hit": false,
      "t": 100200,
      "d": 300,
      "v": 89
    },
    {
      "midi": 52,
      "hit": false,
      "t": 100200,
      "d": 300,
      "v": 89
    },
    {
      "midi": 68,
      "hit": false,
      "t": 100298.4375,
      "d": 100.78125,
      "v": 100
    },
    {
      "midi": 80,
      "hit": false,
      "t": 100298.4375,
      "d": 100.78125,
      "v": 100
    },
    {
      "midi": 69,
      "hit": false,
      "t": 100399.21875,
      "d": 100.78125,
      "v": 100
    },
    {
      "midi": 81,
      "hit": false,
      "t": 100399.21875,
      "d": 100.78125,
      "v": 100
    },
    {
      "midi": 71,
      "hit": false,
      "t": 100500,
      "d": 98.4375,
      "v": 100
    },
    {
      "midi": 83,
      "hit": false,
      "t": 100500,
      "d": 98.4375,
      "v": 100
    },
    {
      "midi": 38,
      "hit": false,
      "t": 100500,
      "d": 300,
      "v": 77
    },
    {
      "midi": 50,
      "hit": false,
      "t": 100500,
      "d": 300,
      "v": 77
    },
    {
      "midi": 72,
      "hit": false,
      "t": 100598.4375,
      "d": 100.78125,
      "v": 100
    },
    {
      "midi": 84,
      "hit": false,
      "t": 100598.4375,
      "d": 100.78125,
      "v": 100
    },
    {
      "midi": 74,
      "hit": false,
      "t": 100699.21875,
      "d": 100.78125,
      "v": 100
    },
    {
      "midi": 86,
      "hit": false,
      "t": 100699.21875,
      "d": 100.78125,
      "v": 100
    },
    {
      "midi": 76,
      "hit": false,
      "t": 100800,
      "d": 600,
      "v": 70
    },
    {
      "midi": 79,
      "hit": false,
      "t": 100800,
      "d": 600,
      "v": 70
    },
    {
      "midi": 84,
      "hit": false,
      "t": 100800,
      "d": 600,
      "v": 70
    },
    {
      "midi": 88,
      "hit": false,
      "t": 100800,
      "d": 600,
      "v": 70
    },
    {
      "midi": 36,
      "hit": false,
      "t": 100800,
      "d": 300,
      "v": 70
    },
    {
      "midi": 48,
      "hit": false,
      "t": 100800,
      "d": 300,
      "v": 70
    },
    {
      "midi": 55,
      "hit": false,
      "t": 101100,
      "d": 300,
      "v": 80
    },
    {
      "midi": 64,
      "hit": false,
      "t": 101400,
      "d": 300,
      "v": 56
    },
    {
      "midi": 67,
      "hit": false,
      "t": 101400,
      "d": 300,
      "v": 56
    },
    {
      "midi": 71,
      "hit": false,
      "t": 101400,
      "d": 300,
      "v": 56
    },
    {
      "midi": 76,
      "hit": false,
      "t": 101400,
      "d": 300,
      "v": 56
    },
    {
      "midi": 48,
      "hit": false,
      "t": 101400,
      "d": 300,
      "v": 82
    },
    {
      "midi": 59,
      "hit": false,
      "t": 101400,
      "d": 300,
      "v": 82
    },
    {
      "midi": 67,
      "hit": false,
      "t": 101700,
      "d": 300,
      "v": 78
    },
    {
      "midi": 79,
      "hit": false,
      "t": 101700,
      "d": 300,
      "v": 78
    },
    {
      "midi": 48,
      "hit": false,
      "t": 101700,
      "d": 300,
      "v": 84
    },
    {
      "midi": 62,
      "hit": false,
      "t": 101700,
      "d": 300,
      "v": 84
    },
    {
      "midi": 67,
      "hit": false,
      "t": 102000,
      "d": 300,
      "v": 77
    },
    {
      "midi": 71,
      "hit": false,
      "t": 102000,
      "d": 300,
      "v": 77
    },
    {
      "midi": 79,
      "hit": false,
      "t": 102000,
      "d": 300,
      "v": 77
    },
    {
      "midi": 48,
      "hit": false,
      "t": 102000,
      "d": 300,
      "v": 77
    },
    {
      "midi": 60,
      "hit": false,
      "t": 102000,
      "d": 300,
      "v": 77
    },
    {
      "midi": 72,
      "hit": false,
      "t": 102300,
      "d": 300,
      "v": 78
    },
    {
      "midi": 79,
      "hit": false,
      "t": 102300,
      "d": 300,
      "v": 78
    },
    {
      "midi": 55,
      "hit": false,
      "t": 102300,
      "d": 300,
      "v": 68
    },
    {
      "midi": 69,
      "hit": false,
      "t": 102600,
      "d": 450,
      "v": 75
    },
    {
      "midi": 72,
      "hit": false,
      "t": 102600,
      "d": 450,
      "v": 75
    },
    {
      "midi": 76,
      "hit": false,
      "t": 102600,
      "d": 450,
      "v": 75
    },
    {
      "midi": 36,
      "hit": false,
      "t": 102600,
      "d": 300,
      "v": 71
    },
    {
      "midi": 48,
      "hit": false,
      "t": 102600,
      "d": 300,
      "v": 71
    },
    {
      "midi": 35,
      "hit": false,
      "t": 102900,
      "d": 300,
      "v": 74
    },
    {
      "midi": 47,
      "hit": false,
      "t": 102900,
      "d": 300,
      "v": 74
    },
    {
      "midi": 67,
      "hit": false,
      "t": 103050,
      "d": 150,
      "v": 56
    },
    {
      "midi": 67,
      "hit": false,
      "t": 103200,
      "d": 150,
      "v": 84
    },
    {
      "midi": 72,
      "hit": false,
      "t": 103200,
      "d": 150,
      "v": 84
    },
    {
      "midi": 33,
      "hit": false,
      "t": 103200,
      "d": 300,
      "v": 74
    },
    {
      "midi": 45,
      "hit": false,
      "t": 103200,
      "d": 300,
      "v": 74
    },
    {
      "midi": 69,
      "hit": false,
      "t": 103350,
      "d": 450,
      "v": 88
    },
    {
      "midi": 52,
      "hit": false,
      "t": 103500,
      "d": 300,
      "v": 77
    },
    {
      "midi": 55,
      "hit": false,
      "t": 103800,
      "d": 300,
      "v": 84
    },
    {
      "midi": 45,
      "hit": false,
      "t": 103800,
      "d": 600,
      "v": 84
    },
    {
      "midi": 76,
      "hit": false,
      "t": 104100,
      "d": 300,
      "v": 65
    },
    {
      "midi": 79,
      "hit": false,
      "t": 104100,
      "d": 300,
      "v": 65
    },
    {
      "midi": 81,
      "hit": false,
      "t": 104100,
      "d": 300,
      "v": 65
    },
    {
      "midi": 88,
      "hit": false,
      "t": 104100,
      "d": 300,
      "v": 65
    },
    {
      "midi": 52,
      "hit": false,
      "t": 104100,
      "d": 300,
      "v": 83
    },
    {
      "midi": 74,
      "hit": false,
      "t": 104400,
      "d": 600,
      "v": 70
    },
    {
      "midi": 78,
      "hit": false,
      "t": 104400,
      "d": 600,
      "v": 70
    },
    {
      "midi": 83,
      "hit": false,
      "t": 104400,
      "d": 600,
      "v": 70
    },
    {
      "midi": 86,
      "hit": false,
      "t": 104400,
      "d": 600,
      "v": 70
    },
    {
      "midi": 50,
      "hit": false,
      "t": 104400,
      "d": 300,
      "v": 73
    },
    {
      "midi": 38,
      "hit": false,
      "t": 104700,
      "d": 300,
      "v": 63
    },
    {
      "midi": 72,
      "hit": false,
      "t": 105000,
      "d": 199.21875,
      "v": 100
    },
    {
      "midi": 78,
      "hit": false,
      "t": 105000,
      "d": 199.21875,
      "v": 100
    },
    {
      "midi": 84,
      "hit": false,
      "t": 105000,
      "d": 199.21875,
      "v": 100
    },
    {
      "midi": 38,
      "hit": false,
      "t": 105000,
      "d": 300,
      "v": 85
    },
    {
      "midi": 50,
      "hit": false,
      "t": 105000,
      "d": 300,
      "v": 85
    },
    {
      "midi": 71,
      "hit": false,
      "t": 105199.21875,
      "d": 199.21875,
      "v": 100
    },
    {
      "midi": 78,
      "hit": false,
      "t": 105199.21875,
      "d": 199.21875,
      "v": 100
    },
    {
      "midi": 83,
      "hit": false,
      "t": 105199.21875,
      "d": 199.21875,
      "v": 100
    },
    {
      "midi": 36,
      "hit": false,
      "t": 105300,
      "d": 300,
      "v": 73
    },
    {
      "midi": 48,
      "hit": false,
      "t": 105300,
      "d": 300,
      "v": 73
    },
    {
      "midi": 72,
      "hit": false,
      "t": 105398.4375,
      "d": 201.5625,
      "v": 100
    },
    {
      "midi": 81,
      "hit": false,
      "t": 105398.4375,
      "d": 201.5625,
      "v": 100
    },
    {
      "midi": 84,
      "hit": false,
      "t": 105398.4375,
      "d": 201.5625,
      "v": 100
    },
    {
      "midi": 74,
      "hit": false,
      "t": 105600,
      "d": 600,
      "v": 81
    },
    {
      "midi": 78,
      "hit": false,
      "t": 105600,
      "d": 600,
      "v": 81
    },
    {
      "midi": 83,
      "hit": false,
      "t": 105600,
      "d": 600,
      "v": 81
    },
    {
      "midi": 86,
      "hit": false,
      "t": 105600,
      "d": 600,
      "v": 81
    },
    {
      "midi": 35,
      "hit": false,
      "t": 105600,
      "d": 300,
      "v": 74
    },
    {
      "midi": 47,
      "hit": false,
      "t": 105600,
      "d": 300,
      "v": 74
    },
    {
      "midi": 54,
      "hit": false,
      "t": 105900,
      "d": 300,
      "v": 85
    },
    {
      "midi": 71,
      "hit": false,
      "t": 106200,
      "d": 600,
      "v": 58
    },
    {
      "midi": 74,
      "hit": false,
      "t": 106200,
      "d": 600,
      "v": 58
    },
    {
      "midi": 78,
      "hit": false,
      "t": 106200,
      "d": 600,
      "v": 58
    },
    {
      "midi": 57,
      "hit": false,
      "t": 106200,
      "d": 300,
      "v": 76
    },
    {
      "midi": 47,
      "hit": false,
      "t": 106200,
      "d": 600,
      "v": 76
    },
    {
      "midi": 54,
      "hit": false,
      "t": 106500,
      "d": 300,
      "v": 71
    },
    {
      "midi": 74,
      "hit": false,
      "t": 106800,
      "d": 600,
      "v": 88
    },
    {
      "midi": 78,
      "hit": false,
      "t": 106800,
      "d": 600,
      "v": 88
    },
    {
      "midi": 83,
      "hit": false,
      "t": 106800,
      "d": 600,
      "v": 88
    },
    {
      "midi": 86,
      "hit": false,
      "t": 106800,
      "d": 600,
      "v": 88
    },
    {
      "midi": 47,
      "hit": false,
      "t": 106800,
      "d": 300,
      "v": 81
    },
    {
      "midi": 59,
      "hit": false,
      "t": 106800,
      "d": 300,
      "v": 81
    },
    {
      "midi": 54,
      "hit": false,
      "t": 107100,
      "d": 300,
      "v": 73
    },
    {
      "midi": 57,
      "hit": false,
      "t": 107400,
      "d": 450,
      "v": 53
    },
    {
      "midi": 66,
      "hit": false,
      "t": 107400,
      "d": 450,
      "v": 53
    },
    {
      "midi": 47,
      "hit": false,
      "t": 107400,
      "d": 300,
      "v": 69
    },
    {
      "midi": 35,
      "hit": false,
      "t": 107700,
      "d": 300,
      "v": 62
    },
    {
      "midi": 62,
      "hit": false,
      "t": 107850,
      "d": 150,
      "v": 78
    },
    {
      "midi": 69,
      "hit": false,
      "t": 107850,
      "d": 150,
      "v": 78
    },
    {
      "midi": 62,
      "hit": false,
      "t": 108000,
      "d": 150,
      "v": 74
    },
    {
      "midi": 69,
      "hit": false,
      "t": 108000,
      "d": 150,
      "v": 74
    },
    {
      "midi": 40,
      "hit": false,
      "t": 108000,
      "d": 300,
      "v": 77
    },
    {
      "midi": 71,
      "hit": false,
      "t": 108150,
      "d": 150,
      "v": 78
    },
    {
      "midi": 62,
      "hit": false,
      "t": 108300,
      "d": 300,
      "v": 72
    },
    {
      "midi": 68,
      "hit": false,
      "t": 108300,
      "d": 300,
      "v": 72
    },
    {
      "midi": 47,
      "hit": false,
      "t": 108300,
      "d": 300,
      "v": 82
    },
    {
      "midi": 53,
      "hit": false,
      "t": 108600,
      "d": 300,
      "v": 83
    },
    {
      "midi": 74,
      "hit": false,
      "t": 108900,
      "d": 300,
      "v": 64
    },
    {
      "midi": 80,
      "hit": false,
      "t": 108900,
      "d": 300,
      "v": 64
    },
    {
      "midi": 86,
      "hit": false,
      "t": 108900,
      "d": 300,
      "v": 64
    },
    {
      "midi": 52,
      "hit": false,
      "t": 108900,
      "d": 300,
      "v": 78
    },
    {
      "midi": 72,
      "hit": false,
      "t": 109200,
      "d": 600,
      "v": 70
    },
    {
      "midi": 76,
      "hit": false,
      "t": 109200,
      "d": 600,
      "v": 70
    },
    {
      "midi": 80,
      "hit": false,
      "t": 109200,
      "d": 600,
      "v": 70
    },
    {
      "midi": 84,
      "hit": false,
      "t": 109200,
      "d": 600,
      "v": 70
    },
    {
      "midi": 40,
      "hit": false,
      "t": 109200,
      "d": 300,
      "v": 63
    },
    {
      "midi": 47,
      "hit": false,
      "t": 109500,
      "d": 300,
      "v": 84
    },
    {
      "midi": 71,
      "hit": false,
      "t": 109800,
      "d": 199.21875,
      "v": 100
    },
    {
      "midi": 80,
      "hit": false,
      "t": 109800,
      "d": 199.21875,
      "v": 100
    },
    {
      "midi": 83,
      "hit": false,
      "t": 109800,
      "d": 199.21875,
      "v": 100
    },
    {
      "midi": 52,
      "hit": false,
      "t": 109800,
      "d": 300,
      "v": 79
    },
    {
      "midi": 69,
      "hit": false,
      "t": 109999.21875,
      "d": 199.21875,
      "v": 100
    },
    {
      "midi": 78,
      "hit": false,
      "t": 109999.21875,
      "d": 199.21875,
      "v": 100
    },
    {
      "midi": 81,
      "hit": false,
      "t": 109999.21875,
      "d": 199.21875,
      "v": 100
    },
    {
      "midi": 40,
      "hit": false,
      "t": 110100,
      "d": 300,
      "v": 64
    },
    {
      "midi": 71,
      "hit": false,
      "t": 110198.4375,
      "d": 201.5625,
      "v": 100
    },
    {
      "midi": 80,
      "hit": false,
      "t": 110198.4375,
      "d": 201.5625,
      "v": 100
    },
    {
      "midi": 83,
      "hit": false,
      "t": 110198.4375,
      "d": 201.5625,
      "v": 100
    },
    {
      "midi": 72,
      "hit": false,
      "t": 110400,
      "d": 600,
      "v": 88
    },
    {
      "midi": 76,
      "hit": false,
      "t": 110400,
      "d": 600,
      "v": 88
    },
    {
      "midi": 79,
      "hit": false,
      "t": 110400,
      "d": 600,
      "v": 88
    },
    {
      "midi": 81,
      "hit": false,
      "t": 110400,
      "d": 600,
      "v": 88
    },
    {
      "midi": 84,
      "hit": false,
      "t": 110400,
      "d": 600,
      "v": 88
    },
    {
      "midi": 33,
      "hit": false,
      "t": 110400,
      "d": 300,
      "v": 77
    },
    {
      "midi": 45,
      "hit": false,
      "t": 110400,
      "d": 300,
      "v": 77
    },
    {
      "midi": 52,
      "hit": false,
      "t": 110700,
      "d": 300,
      "v": 83
    },
    {
      "midi": 72,
      "hit": false,
      "t": 111000,
      "d": 450,
      "v": 63
    },
    {
      "midi": 76,
      "hit": false,
      "t": 111000,
      "d": 450,
      "v": 63
    },
    {
      "midi": 57,
      "hit": false,
      "t": 111000,
      "d": 300,
      "v": 87
    },
    {
      "midi": 52,
      "hit": false,
      "t": 111300,
      "d": 300,
      "v": 75
    },
    {
      "midi": 84,
      "hit": false,
      "t": 111450,
      "d": 75,
      "v": 87
    },
    {
      "midi": 86,
      "hit": false,
      "t": 111525,
      "d": 75,
      "v": 83
    },
    {
      "midi": 72,
      "hit": false,
      "t": 111600,
      "d": 600,
      "v": 69
    },
    {
      "midi": 76,
      "hit": false,
      "t": 111600,
      "d": 600,
      "v": 69
    },
    {
      "midi": 79,
      "hit": false,
      "t": 111600,
      "d": 600,
      "v": 69
    },
    {
      "midi": 84,
      "hit": false,
      "t": 111600,
      "d": 600,
      "v": 69
    },
    {
      "midi": 45,
      "hit": false,
      "t": 111600,
      "d": 300,
      "v": 80
    },
    {
      "midi": 57,
      "hit": false,
      "t": 111600,
      "d": 300,
      "v": 80
    },
    {
      "midi": 52,
      "hit": false,
      "t": 111900,
      "d": 300,
      "v": 72
    },
    {
      "midi": 67,
      "hit": false,
      "t": 112200,
      "d": 199.21875,
      "v": 100
    },
    {
      "midi": 71,
      "hit": false,
      "t": 112200,
      "d": 199.21875,
      "v": 100
    },
    {
      "midi": 45,
      "hit": false,
      "t": 112200,
      "d": 300,
      "v": 68
    },
    {
      "midi": 69,
      "hit": false,
      "t": 112399.21875,
      "d": 199.21875,
      "v": 100
    },
    {
      "midi": 72,
      "hit": false,
      "t": 112399.21875,
      "d": 199.21875,
      "v": 100
    },
    {
      "midi": 48,
      "hit": false,
      "t": 112500,
      "d": 300,
      "v": 76
    },
    {
      "midi": 71,
      "hit": false,
      "t": 112598.4375,
      "d": 201.5625,
      "v": 100
    },
    {
      "midi": 76,
      "hit": false,
      "t": 112598.4375,
      "d": 201.5625,
      "v": 100
    },
    {
      "midi": 72,
      "hit": false,
      "t": 112800,
      "d": 150,
      "v": 68
    },
    {
      "midi": 79,
      "hit": false,
      "t": 112800,
      "d": 150,
      "v": 68
    },
    {
      "midi": 50,
      "hit": false,
      "t": 112800,
      "d": 300,
      "v": 79
    },
    {
      "midi": 76,
      "hit": false,
      "t": 112950,
      "d": 150,
      "v": 68
    },
    {
      "midi": 69,
      "hit": false,
      "t": 113100,
      "d": 450,
      "v": 77
    },
    {
      "midi": 78,
      "hit": false,
      "t": 113100,
      "d": 450,
      "v": 77
    },
    {
      "midi": 38,
      "hit": false,
      "t": 113100,
      "d": 300,
      "v": 64
    },
    {
      "midi": 45,
      "hit": false,
      "t": 113400,
      "d": 300,
      "v": 84
    },
    {
      "midi": 74,
      "hit": false,
      "t": 113550,
      "d": 150,
      "v": 86
    },
    {
      "midi": 78,
      "hit": false,
      "t": 113550,
      "d": 150,
      "v": 86
    },
    {
      "midi": 84,
      "hit": false,
      "t": 113550,
      "d": 150,
      "v": 86
    },
    {
      "midi": 86,
      "hit": false,
      "t": 113700,
      "d": 150,
      "v": 84
    },
    {
      "midi": 50,
      "hit": false,
      "t": 113700,
      "d": 300,
      "v": 85
    },
    {
      "midi": 84,
      "hit": false,
      "t": 113850,
      "d": 150,
      "v": 71
    },
    {
      "midi": 71,
      "hit": false,
      "t": 114000,
      "d": 300,
      "v": 74
    },
    {
      "midi": 76,
      "hit": false,
      "t": 114000,
      "d": 300,
      "v": 74
    },
    {
      "midi": 83,
      "hit": false,
      "t": 114000,
      "d": 300,
      "v": 74
    },
    {
      "midi": 45,
      "hit": false,
      "t": 114000,
      "d": 300,
      "v": 82
    },
    {
      "midi": 55,
      "hit": false,
      "t": 114000,
      "d": 300,
      "v": 82
    },
    {
      "midi": 69,
      "hit": false,
      "t": 114300,
      "d": 300,
      "v": 71
    },
    {
      "midi": 72,
      "hit": false,
      "t": 114300,
      "d": 300,
      "v": 71
    },
    {
      "midi": 76,
      "hit": false,
      "t": 114300,
      "d": 300,
      "v": 71
    },
    {
      "midi": 81,
      "hit": false,
      "t": 114300,
      "d": 300,
      "v": 71
    },
    {
      "midi": 52,
      "hit": false,
      "t": 114300,
      "d": 300,
      "v": 77
    },
    {
      "midi": 69,
      "hit": false,
      "t": 114600,
      "d": 300,
      "v": 68
    },
    {
      "midi": 72,
      "hit": false,
      "t": 114600,
      "d": 300,
      "v": 68
    },
    {
      "midi": 79,
      "hit": false,
      "t": 114600,
      "d": 300,
      "v": 68
    },
    {
      "midi": 50,
      "hit": false,
      "t": 114600,
      "d": 300,
      "v": 73
    },
    {
      "midi": 69,
      "hit": false,
      "t": 114900,
      "d": 300,
      "v": 76
    },
    {
      "midi": 74,
      "hit": false,
      "t": 114900,
      "d": 300,
      "v": 76
    },
    {
      "midi": 81,
      "hit": false,
      "t": 114900,
      "d": 300,
      "v": 76
    },
    {
      "midi": 38,
      "hit": false,
      "t": 114900,
      "d": 300,
      "v": 70
    },
    {
      "midi": 71,
      "hit": false,
      "t": 115200,
      "d": 600,
      "v": 83
    },
    {
      "midi": 76,
      "hit": false,
      "t": 115200,
      "d": 600,
      "v": 83
    },
    {
      "midi": 78,
      "hit": false,
      "t": 115200,
      "d": 600,
      "v": 83
    },
    {
      "midi": 83,
      "hit": false,
      "t": 115200,
      "d": 600,
      "v": 83
    },
    {
      "midi": 42,
      "hit": false,
      "t": 115200,
      "d": 300,
      "v": 82
    },
    {
      "midi": 52,
      "hit": false,
      "t": 115500,
      "d": 300,
      "v": 89
    },
    {
      "midi": 83,
      "hit": false,
      "t": 115800,
      "d": 150,
      "v": 83
    },
    {
      "midi": 57,
      "hit": false,
      "t": 115800,
      "d": 300,
      "v": 78
    },
    {
      "midi": 78,
      "hit": false,
      "t": 115950,
      "d": 150,
      "v": 64
    },
    {
      "midi": 76,
      "hit": false,
      "t": 116100,
      "d": 150,
      "v": 71
    },
    {
      "midi": 54,
      "hit": false,
      "t": 116100,
      "d": 300,
      "v": 74
    },
    {
      "midi": 71,
      "hit": false,
      "t": 116250,
      "d": 150,
      "v": 62
    },
    {
      "midi": 69,
      "hit": false,
      "t": 116400,
      "d": 300,
      "v": 70
    },
    {
      "midi": 54,
      "hit": false,
      "t": 116400,
      "d": 600,
      "v": 94
    },
    {
      "midi": 61,
      "hit": false,
      "t": 116400,
      "d": 600,
      "v": 94
    },
    {
      "midi": 64,
      "hit": false,
      "t": 116700,
      "d": 300,
      "v": 70
    },
    {
      "midi": 61,
      "hit": false,
      "t": 117000,
      "d": 300,
      "v": 67
    },
    {
      "midi": 42,
      "hit": false,
      "t": 117000,
      "d": 300,
      "v": 73
    },
    {
      "midi": 57,
      "hit": false,
      "t": 117300,
      "d": 300,
      "v": 72
    },
    {
      "midi": 49,
      "hit": false,
      "t": 117300,
      "d": 300,
      "v": 77
    },
    {
      "midi": 54,
      "hit": false,
      "t": 117600,
      "d": 600,
      "v": 68
    },
    {
      "midi": 57,
      "hit": false,
      "t": 117600,
      "d": 600,
      "v": 68
    },
    {
      "midi": 61,
      "hit": false,
      "t": 117600,
      "d": 600,
      "v": 84
    },
    {
      "midi": 50,
      "hit": false,
      "t": 117600,
      "d": 300,
      "v": 82
    },
    {
      "midi": 35,
      "hit": false,
      "t": 117900,
      "d": 600,
      "v": 62
    },
    {
      "midi": 54,
      "hit": false,
      "t": 118200,
      "d": 300,
      "v": 75
    },
    {
      "midi": 57,
      "hit": false,
      "t": 118200,
      "d": 300,
      "v": 75
    },
    {
      "midi": 60,
      "hit": false,
      "t": 118500,
      "d": 98.4375,
      "v": 100
    },
    {
      "midi": 35,
      "hit": false,
      "t": 118500,
      "d": 300,
      "v": 71
    },
    {
      "midi": 62,
      "hit": false,
      "t": 118598.4375,
      "d": 100.78125,
      "v": 100
    },
    {
      "midi": 60,
      "hit": false,
      "t": 118699.21875,
      "d": 100.78125,
      "v": 100
    },
    {
      "midi": 57,
      "hit": false,
      "t": 118800,
      "d": 900,
      "v": 100
    },
    {
      "midi": 60,
      "hit": false,
      "t": 118800,
      "d": 900,
      "v": 100
    },
    {
      "midi": 47,
      "hit": false,
      "t": 118800,
      "d": 300,
      "v": 85
    },
    {
      "midi": 54,
      "hit": false,
      "t": 119100,
      "d": 300,
      "v": 85
    },
    {
      "midi": 57,
      "hit": false,
      "t": 119400,
      "d": 300,
      "v": 79
    },
    {
      "midi": 60,
      "hit": false,
      "t": 119700,
      "d": 98.4375,
      "v": 100
    },
    {
      "midi": 47,
      "hit": false,
      "t": 119700,
      "d": 300,
      "v": 73
    },
    {
      "midi": 54,
      "hit": false,
      "t": 119700,
      "d": 300,
      "v": 73
    },
    {
      "midi": 62,
      "hit": false,
      "t": 119798.4375,
      "d": 100.78125,
      "v": 100
    },
    {
      "midi": 60,
      "hit": false,
      "t": 119899.21875,
      "d": 100.78125,
      "v": 100
    },
    {
      "midi": 76,
      "hit": false,
      "t": 120000,
      "d": 1200,
      "v": 98
    },
    {
      "midi": 79,
      "hit": false,
      "t": 120000,
      "d": 1200,
      "v": 98
    },
    {
      "midi": 84,
      "hit": false,
      "t": 120000,
      "d": 1200,
      "v": 98
    },
    {
      "midi": 88,
      "hit": false,
      "t": 120000,
      "d": 1200,
      "v": 98
    },
    {
      "midi": 36,
      "hit": false,
      "t": 120000,
      "d": 300,
      "v": 69
    },
    {
      "midi": 48,
      "hit": false,
      "t": 120000,
      "d": 300,
      "v": 69
    },
    {
      "midi": 55,
      "hit": false,
      "t": 120300,
      "d": 300,
      "v": 85
    },
    {
      "midi": 60,
      "hit": false,
      "t": 120600,
      "d": 300,
      "v": 87
    },
    {
      "midi": 55,
      "hit": false,
      "t": 120900,
      "d": 300,
      "v": 73
    },
    {
      "midi": 76,
      "hit": false,
      "t": 121200,
      "d": 300,
      "v": 80
    },
    {
      "midi": 79,
      "hit": false,
      "t": 121200,
      "d": 300,
      "v": 80
    },
    {
      "midi": 84,
      "hit": false,
      "t": 121200,
      "d": 300,
      "v": 80
    },
    {
      "midi": 88,
      "hit": false,
      "t": 121200,
      "d": 300,
      "v": 80
    },
    {
      "midi": 48,
      "hit": false,
      "t": 121200,
      "d": 600,
      "v": 90
    },
    {
      "midi": 60,
      "hit": false,
      "t": 121200,
      "d": 600,
      "v": 90
    },
    {
      "midi": 74,
      "hit": false,
      "t": 121500,
      "d": 300,
      "v": 60
    },
    {
      "midi": 78,
      "hit": false,
      "t": 121500,
      "d": 300,
      "v": 60
    },
    {
      "midi": 72,
      "hit": false,
      "t": 121800,
      "d": 300,
      "v": 72
    },
    {
      "midi": 76,
      "hit": false,
      "t": 121800,
      "d": 300,
      "v": 72
    },
    {
      "midi": 47,
      "hit": false,
      "t": 121800,
      "d": 600,
      "v": 73
    },
    {
      "midi": 59,
      "hit": false,
      "t": 121800,
      "d": 600,
      "v": 73
    },
    {
      "midi": 71,
      "hit": false,
      "t": 122100,
      "d": 300,
      "v": 71
    },
    {
      "midi": 74,
      "hit": false,
      "t": 122100,
      "d": 300,
      "v": 71
    },
    {
      "midi": 67,
      "hit": false,
      "t": 122400,
      "d": 600,
      "v": 68
    },
    {
      "midi": 69,
      "hit": false,
      "t": 122400,
      "d": 600,
      "v": 68
    },
    {
      "midi": 72,
      "hit": false,
      "t": 122400,
      "d": 600,
      "v": 68
    },
    {
      "midi": 45,
      "hit": false,
      "t": 122400,
      "d": 300,
      "v": 72
    },
    {
      "midi": 57,
      "hit": false,
      "t": 122400,
      "d": 300,
      "v": 72
    },
    {
      "midi": 52,
      "hit": false,
      "t": 122700,
      "d": 300,
      "v": 66
    },
    {
      "midi": 76,
      "hit": false,
      "t": 123000,
      "d": 600,
      "v": 97
    },
    {
      "midi": 79,
      "hit": false,
      "t": 123000,
      "d": 600,
      "v": 97
    },
    {
      "midi": 81,
      "hit": false,
      "t": 123000,
      "d": 600,
      "v": 97
    },
    {
      "midi": 88,
      "hit": false,
      "t": 123000,
      "d": 600,
      "v": 97
    },
    {
      "midi": 55,
      "hit": false,
      "t": 123000,
      "d": 600,
      "v": 98
    },
    {
      "midi": 57,
      "hit": false,
      "t": 123000,
      "d": 600,
      "v": 98
    },
    {
      "midi": 60,
      "hit": false,
      "t": 123000,
      "d": 600,
      "v": 98
    },
    {
      "midi": 64,
      "hit": false,
      "t": 123000,
      "d": 600,
      "v": 98
    },
    {
      "midi": 74,
      "hit": false,
      "t": 123600,
      "d": 600,
      "v": 78
    },
    {
      "midi": 78,
      "hit": false,
      "t": 123600,
      "d": 600,
      "v": 78
    },
    {
      "midi": 83,
      "hit": false,
      "t": 123600,
      "d": 600,
      "v": 78
    },
    {
      "midi": 86,
      "hit": false,
      "t": 123600,
      "d": 600,
      "v": 78
    },
    {
      "midi": 54,
      "hit": false,
      "t": 123600,
      "d": 600,
      "v": 70
    },
    {
      "midi": 59,
      "hit": false,
      "t": 123600,
      "d": 600,
      "v": 70
    },
    {
      "midi": 62,
      "hit": false,
      "t": 123600,
      "d": 600,
      "v": 70
    },
    {
      "midi": 72,
      "hit": false,
      "t": 124200,
      "d": 600,
      "v": 71
    },
    {
      "midi": 78,
      "hit": false,
      "t": 124200,
      "d": 600,
      "v": 71
    },
    {
      "midi": 81,
      "hit": false,
      "t": 124200,
      "d": 600,
      "v": 71
    },
    {
      "midi": 84,
      "hit": false,
      "t": 124200,
      "d": 600,
      "v": 71
    },
    {
      "midi": 54,
      "hit": false,
      "t": 124200,
      "d": 300,
      "v": 74
    },
    {
      "midi": 57,
      "hit": false,
      "t": 124200,
      "d": 300,
      "v": 74
    },
    {
      "midi": 60,
      "hit": false,
      "t": 124200,
      "d": 300,
      "v": 74
    },
    {
      "midi": 50,
      "hit": false,
      "t": 124500,
      "d": 300,
      "v": 69
    },
    {
      "midi": 74,
      "hit": false,
      "t": 124800,
      "d": 1200,
      "v": 77
    },
    {
      "midi": 78,
      "hit": false,
      "t": 124800,
      "d": 1200,
      "v": 77
    },
    {
      "midi": 83,
      "hit": false,
      "t": 124800,
      "d": 1200,
      "v": 77
    },
    {
      "midi": 86,
      "hit": false,
      "t": 124800,
      "d": 1200,
      "v": 77
    },
    {
      "midi": 47,
      "hit": false,
      "t": 124800,
      "d": 300,
      "v": 75
    },
    {
      "midi": 54,
      "hit": false,
      "t": 125100,
      "d": 300,
      "v": 82
    },
    {
      "midi": 59,
      "hit": false,
      "t": 125400,
      "d": 300,
      "v": 80
    },
    {
      "midi": 60,
      "hit": false,
      "t": 125700,
      "d": 300,
      "v": 78
    },
    {
      "midi": 74,
      "hit": false,
      "t": 126000,
      "d": 300,
      "v": 75
    },
    {
      "midi": 78,
      "hit": false,
      "t": 126000,
      "d": 300,
      "v": 75
    },
    {
      "midi": 83,
      "hit": false,
      "t": 126000,
      "d": 300,
      "v": 75
    },
    {
      "midi": 86,
      "hit": false,
      "t": 126000,
      "d": 300,
      "v": 75
    },
    {
      "midi": 47,
      "hit": false,
      "t": 126000,
      "d": 600,
      "v": 76
    },
    {
      "midi": 59,
      "hit": false,
      "t": 126000,
      "d": 600,
      "v": 76
    },
    {
      "midi": 73,
      "hit": false,
      "t": 126300,
      "d": 300,
      "v": 53
    },
    {
      "midi": 76,
      "hit": false,
      "t": 126300,
      "d": 300,
      "v": 53
    },
    {
      "midi": 71,
      "hit": false,
      "t": 126600,
      "d": 300,
      "v": 69
    },
    {
      "midi": 74,
      "hit": false,
      "t": 126600,
      "d": 300,
      "v": 69
    },
    {
      "midi": 42,
      "hit": false,
      "t": 126600,
      "d": 600,
      "v": 73
    },
    {
      "midi": 54,
      "hit": false,
      "t": 126600,
      "d": 600,
      "v": 73
    },
    {
      "midi": 69,
      "hit": false,
      "t": 126900,
      "d": 300,
      "v": 74
    },
    {
      "midi": 73,
      "hit": false,
      "t": 126900,
      "d": 300,
      "v": 74
    },
    {
      "midi": 62,
      "hit": false,
      "t": 127200,
      "d": 600,
      "v": 71
    },
    {
      "midi": 68,
      "hit": false,
      "t": 127200,
      "d": 600,
      "v": 71
    },
    {
      "midi": 71,
      "hit": false,
      "t": 127200,
      "d": 600,
      "v": 71
    },
    {
      "midi": 40,
      "hit": false,
      "t": 127200,
      "d": 300,
      "v": 72
    },
    {
      "midi": 52,
      "hit": false,
      "t": 127200,
      "d": 300,
      "v": 72
    },
    {
      "midi": 50,
      "hit": false,
      "t": 127500,
      "d": 300,
      "v": 74
    },
    {
      "midi": 74,
      "hit": false,
      "t": 127800,
      "d": 600,
      "v": 94
    },
    {
      "midi": 80,
      "hit": false,
      "t": 127800,
      "d": 600,
      "v": 94
    },
    {
      "midi": 83,
      "hit": false,
      "t": 127800,
      "d": 600,
      "v": 94
    },
    {
      "midi": 86,
      "hit": false,
      "t": 127800,
      "d": 600,
      "v": 94
    },
    {
      "midi": 52,
      "hit": false,
      "t": 127800,
      "d": 600,
      "v": 96
    },
    {
      "midi": 56,
      "hit": false,
      "t": 127800,
      "d": 600,
      "v": 96
    },
    {
      "midi": 59,
      "hit": false,
      "t": 127800,
      "d": 600,
      "v": 96
    },
    {
      "midi": 66,
      "hit": false,
      "t": 127800,
      "d": 600,
      "v": 96
    },
    {
      "midi": 72,
      "hit": false,
      "t": 128400,
      "d": 600,
      "v": 73
    },
    {
      "midi": 76,
      "hit": false,
      "t": 128400,
      "d": 600,
      "v": 73
    },
    {
      "midi": 80,
      "hit": false,
      "t": 128400,
      "d": 600,
      "v": 73
    },
    {
      "midi": 84,
      "hit": false,
      "t": 128400,
      "d": 600,
      "v": 73
    },
    {
      "midi": 52,
      "hit": false,
      "t": 128400,
      "d": 600,
      "v": 66
    },
    {
      "midi": 56,
      "hit": false,
      "t": 128400,
      "d": 600,
      "v": 66
    },
    {
      "midi": 60,
      "hit": false,
      "t": 128400,
      "d": 600,
      "v": 66
    },
    {
      "midi": 71,
      "hit": false,
      "t": 129000,
      "d": 600,
      "v": 73
    },
    {
      "midi": 76,
      "hit": false,
      "t": 129000,
      "d": 600,
      "v": 73
    },
    {
      "midi": 80,
      "hit": false,
      "t": 129000,
      "d": 600,
      "v": 73
    },
    {
      "midi": 83,
      "hit": false,
      "t": 129000,
      "d": 600,
      "v": 73
    },
    {
      "midi": 52,
      "hit": false,
      "t": 129000,
      "d": 300,
      "v": 76
    },
    {
      "midi": 56,
      "hit": false,
      "t": 129000,
      "d": 300,
      "v": 76
    },
    {
      "midi": 59,
      "hit": false,
      "t": 129000,
      "d": 300,
      "v": 76
    },
    {
      "midi": 47,
      "hit": false,
      "t": 129300,
      "d": 300,
      "v": 68
    },
    {
      "midi": 72,
      "hit": false,
      "t": 129600,
      "d": 1200,
      "v": 77
    },
    {
      "midi": 76,
      "hit": false,
      "t": 129600,
      "d": 1200,
      "v": 77
    },
    {
      "midi": 81,
      "hit": false,
      "t": 129600,
      "d": 1200,
      "v": 77
    },
    {
      "midi": 84,
      "hit": false,
      "t": 129600,
      "d": 1200,
      "v": 77
    },
    {
      "midi": 45,
      "hit": false,
      "t": 129600,
      "d": 300,
      "v": 91
    },
    {
      "midi": 57,
      "hit": false,
      "t": 129600,
      "d": 300,
      "v": 91
    },
    {
      "midi": 52,
      "hit": false,
      "t": 129900,
      "d": 300,
      "v": 76
    },
    {
      "midi": 48,
      "hit": false,
      "t": 130200,
      "d": 300,
      "v": 71
    },
    {
      "midi": 47,
      "hit": false,
      "t": 130500,
      "d": 300,
      "v": 71
    },
    {
      "midi": 72,
      "hit": false,
      "t": 130800,
      "d": 300,
      "v": 78
    },
    {
      "midi": 76,
      "hit": false,
      "t": 130800,
      "d": 300,
      "v": 78
    },
    {
      "midi": 81,
      "hit": false,
      "t": 130800,
      "d": 300,
      "v": 78
    },
    {
      "midi": 84,
      "hit": false,
      "t": 130800,
      "d": 300,
      "v": 78
    },
    {
      "midi": 45,
      "hit": false,
      "t": 130800,
      "d": 600,
      "v": 77
    },
    {
      "midi": 71,
      "hit": false,
      "t": 131100,
      "d": 300,
      "v": 52
    },
    {
      "midi": 74,
      "hit": false,
      "t": 131100,
      "d": 300,
      "v": 52
    },
    {
      "midi": 69,
      "hit": false,
      "t": 131400,
      "d": 300,
      "v": 70
    },
    {
      "midi": 72,
      "hit": false,
      "t": 131400,
      "d": 300,
      "v": 70
    },
    {
      "midi": 33,
      "hit": false,
      "t": 131400,
      "d": 600,
      "v": 73
    },
    {
      "midi": 45,
      "hit": false,
      "t": 131400,
      "d": 600,
      "v": 73
    },
    {
      "midi": 67,
      "hit": false,
      "t": 131700,
      "d": 300,
      "v": 71
    },
    {
      "midi": 71,
      "hit": false,
      "t": 131700,
      "d": 300,
      "v": 71
    },
    {
      "midi": 60,
      "hit": false,
      "t": 132000,
      "d": 600,
      "v": 75
    },
    {
      "midi": 66,
      "hit": false,
      "t": 132000,
      "d": 600,
      "v": 75
    },
    {
      "midi": 69,
      "hit": false,
      "t": 132000,
      "d": 600,
      "v": 75
    },
    {
      "midi": 38,
      "hit": false,
      "t": 132000,
      "d": 300,
      "v": 82
    },
    {
      "midi": 50,
      "hit": false,
      "t": 132000,
      "d": 300,
      "v": 82
    },
    {
      "midi": 45,
      "hit": false,
      "t": 132300,
      "d": 300,
      "v": 77
    },
    {
      "midi": 64,
      "hit": false,
      "t": 132600,
      "d": 300,
      "v": 84
    },
    {
      "midi": 72,
      "hit": false,
      "t": 132600,
      "d": 300,
      "v": 84
    },
    {
      "midi": 50,
      "hit": false,
      "t": 132600,
      "d": 600,
      "v": 82
    },
    {
      "midi": 66,
      "hit": false,
      "t": 132900,
      "d": 300,
      "v": 78
    },
    {
      "midi": 74,
      "hit": false,
      "t": 132900,
      "d": 300,
      "v": 78
    },
    {
      "midi": 67,
      "hit": false,
      "t": 133200,
      "d": 300,
      "v": 82
    },
    {
      "midi": 76,
      "hit": false,
      "t": 133200,
      "d": 300,
      "v": 82
    },
    {
      "midi": 38,
      "hit": false,
      "t": 133200,
      "d": 300,
      "v": 80
    },
    {
      "midi": 50,
      "hit": false,
      "t": 133200,
      "d": 300,
      "v": 80
    },
    {
      "midi": 66,
      "hit": false,
      "t": 133500,
      "d": 300,
      "v": 77
    },
    {
      "midi": 74,
      "hit": false,
      "t": 133500,
      "d": 300,
      "v": 77
    },
    {
      "midi": 78,
      "hit": false,
      "t": 133500,
      "d": 300,
      "v": 77
    },
    {
      "midi": 38,
      "hit": false,
      "t": 133500,
      "d": 600,
      "v": 78
    },
    {
      "midi": 50,
      "hit": false,
      "t": 133500,
      "d": 600,
      "v": 78
    },
    {
      "midi": 67,
      "hit": false,
      "t": 133800,
      "d": 300,
      "v": 84
    },
    {
      "midi": 76,
      "hit": false,
      "t": 133800,
      "d": 300,
      "v": 84
    },
    {
      "midi": 79,
      "hit": false,
      "t": 133800,
      "d": 300,
      "v": 84
    },
    {
      "midi": 69,
      "hit": false,
      "t": 134100,
      "d": 300,
      "v": 82
    },
    {
      "midi": 78,
      "hit": false,
      "t": 134100,
      "d": 300,
      "v": 82
    },
    {
      "midi": 81,
      "hit": false,
      "t": 134100,
      "d": 300,
      "v": 82
    },
    {
      "midi": 36,
      "hit": false,
      "t": 134100,
      "d": 300,
      "v": 76
    },
    {
      "midi": 48,
      "hit": false,
      "t": 134100,
      "d": 300,
      "v": 76
    },
    {
      "midi": 71,
      "hit": false,
      "t": 134400,
      "d": 600,
      "v": 84
    },
    {
      "midi": 74,
      "hit": false,
      "t": 134400,
      "d": 600,
      "v": 84
    },
    {
      "midi": 78,
      "hit": false,
      "t": 134400,
      "d": 600,
      "v": 84
    },
    {
      "midi": 83,
      "hit": false,
      "t": 134400,
      "d": 600,
      "v": 84
    },
    {
      "midi": 35,
      "hit": false,
      "t": 134400,
      "d": 300,
      "v": 76
    },
    {
      "midi": 47,
      "hit": false,
      "t": 134400,
      "d": 300,
      "v": 76
    },
    {
      "midi": 54,
      "hit": false,
      "t": 134700,
      "d": 300,
      "v": 83
    },
    {
      "midi": 66,
      "hit": false,
      "t": 135000,
      "d": 300,
      "v": 60
    },
    {
      "midi": 71,
      "hit": false,
      "t": 135000,
      "d": 300,
      "v": 60
    },
    {
      "midi": 47,
      "hit": false,
      "t": 135000,
      "d": 300,
      "v": 85
    },
    {
      "midi": 57,
      "hit": false,
      "t": 135000,
      "d": 300,
      "v": 85
    },
    {
      "midi": 71,
      "hit": false,
      "t": 135300,
      "d": 300,
      "v": 78
    },
    {
      "midi": 74,
      "hit": false,
      "t": 135300,
      "d": 300,
      "v": 78
    },
    {
      "midi": 47,
      "hit": false,
      "t": 135300,
      "d": 600,
      "v": 74
    },
    {
      "midi": 57,
      "hit": false,
      "t": 135300,
      "d": 600,
      "v": 74
    },
    {
      "midi": 74,
      "hit": false,
      "t": 135600,
      "d": 300,
      "v": 76
    },
    {
      "midi": 71,
      "hit": false,
      "t": 135600,
      "d": 600,
      "v": 76
    },
    {
      "midi": 76,
      "hit": false,
      "t": 135900,
      "d": 300,
      "v": 80
    },
    {
      "midi": 54,
      "hit": false,
      "t": 135900,
      "d": 300,
      "v": 75
    },
    {
      "midi": 76,
      "hit": false,
      "t": 136200,
      "d": 300,
      "v": 74
    },
    {
      "midi": 69,
      "hit": false,
      "t": 136200,
      "d": 600,
      "v": 74
    },
    {
      "midi": 71,
      "hit": false,
      "t": 136200,
      "d": 600,
      "v": 74
    },
    {
      "midi": 57,
      "hit": false,
      "t": 136200,
      "d": 300,
      "v": 76
    },
    {
      "midi": 74,
      "hit": false,
      "t": 136500,
      "d": 300,
      "v": 78
    },
    {
      "midi": 78,
      "hit": false,
      "t": 136500,
      "d": 300,
      "v": 78
    },
    {
      "midi": 47,
      "hit": false,
      "t": 136500,
      "d": 300,
      "v": 65
    },
    {
      "midi": 69,
      "hit": false,
      "t": 136800,
      "d": 300,
      "v": 74
    },
    {
      "midi": 74,
      "hit": false,
      "t": 136800,
      "d": 300,
      "v": 74
    },
    {
      "midi": 78,
      "hit": false,
      "t": 136800,
      "d": 300,
      "v": 74
    },
    {
      "midi": 40,
      "hit": false,
      "t": 136800,
      "d": 300,
      "v": 83
    },
    {
      "midi": 52,
      "hit": false,
      "t": 136800,
      "d": 300,
      "v": 83
    },
    {
      "midi": 68,
      "hit": false,
      "t": 137100,
      "d": 300,
      "v": 88
    },
    {
      "midi": 74,
      "hit": false,
      "t": 137100,
      "d": 300,
      "v": 88
    },
    {
      "midi": 80,
      "hit": false,
      "t": 137100,
      "d": 300,
      "v": 88
    },
    {
      "midi": 47,
      "hit": false,
      "t": 137100,
      "d": 300,
      "v": 79
    },
    {
      "midi": 68,
      "hit": false,
      "t": 137400,
      "d": 300,
      "v": 77
    },
    {
      "midi": 74,
      "hit": false,
      "t": 137400,
      "d": 300,
      "v": 77
    },
    {
      "midi": 80,
      "hit": false,
      "t": 137400,
      "d": 300,
      "v": 77
    },
    {
      "midi": 52,
      "hit": false,
      "t": 137400,
      "d": 600,
      "v": 80
    },
    {
      "midi": 69,
      "hit": false,
      "t": 137700,
      "d": 300,
      "v": 77
    },
    {
      "midi": 78,
      "hit": false,
      "t": 137700,
      "d": 300,
      "v": 77
    },
    {
      "midi": 81,
      "hit": false,
      "t": 137700,
      "d": 300,
      "v": 77
    },
    {
      "midi": 69,
      "hit": false,
      "t": 138000,
      "d": 300,
      "v": 73
    },
    {
      "midi": 78,
      "hit": false,
      "t": 138000,
      "d": 300,
      "v": 73
    },
    {
      "midi": 81,
      "hit": false,
      "t": 138000,
      "d": 300,
      "v": 73
    },
    {
      "midi": 50,
      "hit": false,
      "t": 138000,
      "d": 150,
      "v": 76
    },
    {
      "midi": 48,
      "hit": false,
      "t": 138150,
      "d": 150,
      "v": 73
    },
    {
      "midi": 71,
      "hit": false,
      "t": 138300,
      "d": 300,
      "v": 83
    },
    {
      "midi": 80,
      "hit": false,
      "t": 138300,
      "d": 300,
      "v": 83
    },
    {
      "midi": 83,
      "hit": false,
      "t": 138300,
      "d": 300,
      "v": 83
    },
    {
      "midi": 47,
      "hit": false,
      "t": 138300,
      "d": 150,
      "v": 73
    },
    {
      "midi": 45,
      "hit": false,
      "t": 138450,
      "d": 150,
      "v": 75
    },
    {
      "midi": 72,
      "hit": false,
      "t": 138600,
      "d": 300,
      "v": 82
    },
    {
      "midi": 81,
      "hit": false,
      "t": 138600,
      "d": 300,
      "v": 82
    },
    {
      "midi": 84,
      "hit": false,
      "t": 138600,
      "d": 300,
      "v": 82
    },
    {
      "midi": 44,
      "hit": false,
      "t": 138600,
      "d": 150,
      "v": 69
    },
    {
      "midi": 42,
      "hit": false,
      "t": 138750,
      "d": 150,
      "v": 74
    },
    {
      "midi": 74,
      "hit": false,
      "t": 138900,
      "d": 300,
      "v": 83
    },
    {
      "midi": 83,
      "hit": false,
      "t": 138900,
      "d": 300,
      "v": 83
    },
    {
      "midi": 86,
      "hit": false,
      "t": 138900,
      "d": 300,
      "v": 83
    },
    {
      "midi": 40,
      "hit": false,
      "t": 138900,
      "d": 150,
      "v": 77
    },
    {
      "midi": 38,
      "hit": false,
      "t": 139050,
      "d": 150,
      "v": 76
    },
    {
      "midi": 76,
      "hit": false,
      "t": 139200,
      "d": 1200,
      "v": 87
    },
    {
      "midi": 79,
      "hit": false,
      "t": 139200,
      "d": 1200,
      "v": 87
    },
    {
      "midi": 84,
      "hit": false,
      "t": 139200,
      "d": 1200,
      "v": 87
    },
    {
      "midi": 88,
      "hit": false,
      "t": 139200,
      "d": 1200,
      "v": 87
    },
    {
      "midi": 36,
      "hit": false,
      "t": 139200,
      "d": 300,
      "v": 81
    },
    {
      "midi": 48,
      "hit": false,
      "t": 139200,
      "d": 300,
      "v": 81
    },
    {
      "midi": 55,
      "hit": false,
      "t": 139500,
      "d": 300,
      "v": 84
    },
    {
      "midi": 60,
      "hit": false,
      "t": 139800,
      "d": 300,
      "v": 89
    },
    {
      "midi": 55,
      "hit": false,
      "t": 140100,
      "d": 300,
      "v": 73
    },
    {
      "midi": 76,
      "hit": false,
      "t": 140400,
      "d": 300,
      "v": 77
    },
    {
      "midi": 79,
      "hit": false,
      "t": 140400,
      "d": 300,
      "v": 77
    },
    {
      "midi": 84,
      "hit": false,
      "t": 140400,
      "d": 300,
      "v": 77
    },
    {
      "midi": 88,
      "hit": false,
      "t": 140400,
      "d": 300,
      "v": 77
    },
    {
      "midi": 48,
      "hit": false,
      "t": 140400,
      "d": 600,
      "v": 87
    },
    {
      "midi": 60,
      "hit": false,
      "t": 140400,
      "d": 600,
      "v": 87
    },
    {
      "midi": 74,
      "hit": false,
      "t": 140700,
      "d": 300,
      "v": 60
    },
    {
      "midi": 78,
      "hit": false,
      "t": 140700,
      "d": 300,
      "v": 60
    },
    {
      "midi": 72,
      "hit": false,
      "t": 141000,
      "d": 300,
      "v": 67
    },
    {
      "midi": 76,
      "hit": false,
      "t": 141000,
      "d": 300,
      "v": 67
    },
    {
      "midi": 47,
      "hit": false,
      "t": 141000,
      "d": 600,
      "v": 77
    },
    {
      "midi": 59,
      "hit": false,
      "t": 141000,
      "d": 600,
      "v": 77
    },
    {
      "midi": 71,
      "hit": false,
      "t": 141300,
      "d": 300,
      "v": 68
    },
    {
      "midi": 74,
      "hit": false,
      "t": 141300,
      "d": 300,
      "v": 68
    },
    {
      "midi": 67,
      "hit": false,
      "t": 141600,
      "d": 600,
      "v": 66
    },
    {
      "midi": 69,
      "hit": false,
      "t": 141600,
      "d": 600,
      "v": 66
    },
    {
      "midi": 72,
      "hit": false,
      "t": 141600,
      "d": 600,
      "v": 66
    },
    {
      "midi": 45,
      "hit": false,
      "t": 141600,
      "d": 300,
      "v": 76
    },
    {
      "midi": 57,
      "hit": false,
      "t": 141600,
      "d": 300,
      "v": 76
    },
    {
      "midi": 52,
      "hit": false,
      "t": 141900,
      "d": 300,
      "v": 73
    },
    {
      "midi": 76,
      "hit": false,
      "t": 142200,
      "d": 600,
      "v": 102
    },
    {
      "midi": 79,
      "hit": false,
      "t": 142200,
      "d": 600,
      "v": 102
    },
    {
      "midi": 81,
      "hit": false,
      "t": 142200,
      "d": 600,
      "v": 102
    },
    {
      "midi": 88,
      "hit": false,
      "t": 142200,
      "d": 600,
      "v": 102
    },
    {
      "midi": 55,
      "hit": false,
      "t": 142200,
      "d": 600,
      "v": 96
    },
    {
      "midi": 57,
      "hit": false,
      "t": 142200,
      "d": 600,
      "v": 96
    },
    {
      "midi": 60,
      "hit": false,
      "t": 142200,
      "d": 600,
      "v": 96
    },
    {
      "midi": 64,
      "hit": false,
      "t": 142200,
      "d": 600,
      "v": 96
    },
    {
      "midi": 74,
      "hit": false,
      "t": 142800,
      "d": 600,
      "v": 73
    },
    {
      "midi": 78,
      "hit": false,
      "t": 142800,
      "d": 600,
      "v": 73
    },
    {
      "midi": 83,
      "hit": false,
      "t": 142800,
      "d": 600,
      "v": 73
    },
    {
      "midi": 86,
      "hit": false,
      "t": 142800,
      "d": 600,
      "v": 73
    },
    {
      "midi": 54,
      "hit": false,
      "t": 142800,
      "d": 600,
      "v": 73
    },
    {
      "midi": 59,
      "hit": false,
      "t": 142800,
      "d": 600,
      "v": 73
    },
    {
      "midi": 62,
      "hit": false,
      "t": 142800,
      "d": 600,
      "v": 73
    },
    {
      "midi": 72,
      "hit": false,
      "t": 143400,
      "d": 600,
      "v": 71
    },
    {
      "midi": 78,
      "hit": false,
      "t": 143400,
      "d": 600,
      "v": 71
    },
    {
      "midi": 81,
      "hit": false,
      "t": 143400,
      "d": 600,
      "v": 71
    },
    {
      "midi": 84,
      "hit": false,
      "t": 143400,
      "d": 600,
      "v": 71
    },
    {
      "midi": 54,
      "hit": false,
      "t": 143400,
      "d": 300,
      "v": 70
    },
    {
      "midi": 57,
      "hit": false,
      "t": 143400,
      "d": 300,
      "v": 70
    },
    {
      "midi": 60,
      "hit": false,
      "t": 143400,
      "d": 300,
      "v": 70
    },
    {
      "midi": 50,
      "hit": false,
      "t": 143700,
      "d": 300,
      "v": 68
    },
    {
      "midi": 74,
      "hit": false,
      "t": 144000,
      "d": 1200,
      "v": 83
    },
    {
      "midi": 78,
      "hit": false,
      "t": 144000,
      "d": 1200,
      "v": 83
    },
    {
      "midi": 83,
      "hit": false,
      "t": 144000,
      "d": 1200,
      "v": 83
    },
    {
      "midi": 86,
      "hit": false,
      "t": 144000,
      "d": 1200,
      "v": 83
    },
    {
      "midi": 47,
      "hit": false,
      "t": 144000,
      "d": 300,
      "v": 74
    },
    {
      "midi": 54,
      "hit": false,
      "t": 144300,
      "d": 300,
      "v": 82
    },
    {
      "midi": 59,
      "hit": false,
      "t": 144600,
      "d": 300,
      "v": 83
    },
    {
      "midi": 60,
      "hit": false,
      "t": 144900,
      "d": 300,
      "v": 77
    },
    {
      "midi": 74,
      "hit": false,
      "t": 145200,
      "d": 300,
      "v": 76
    },
    {
      "midi": 78,
      "hit": false,
      "t": 145200,
      "d": 300,
      "v": 76
    },
    {
      "midi": 83,
      "hit": false,
      "t": 145200,
      "d": 300,
      "v": 76
    },
    {
      "midi": 86,
      "hit": false,
      "t": 145200,
      "d": 300,
      "v": 76
    },
    {
      "midi": 47,
      "hit": false,
      "t": 145200,
      "d": 600,
      "v": 74
    },
    {
      "midi": 59,
      "hit": false,
      "t": 145200,
      "d": 600,
      "v": 74
    },
    {
      "midi": 73,
      "hit": false,
      "t": 145500,
      "d": 300,
      "v": 59
    },
    {
      "midi": 76,
      "hit": false,
      "t": 145500,
      "d": 300,
      "v": 59
    },
    {
      "midi": 71,
      "hit": false,
      "t": 145800,
      "d": 300,
      "v": 67
    },
    {
      "midi": 74,
      "hit": false,
      "t": 145800,
      "d": 300,
      "v": 67
    },
    {
      "midi": 42,
      "hit": false,
      "t": 145800,
      "d": 600,
      "v": 67
    },
    {
      "midi": 54,
      "hit": false,
      "t": 145800,
      "d": 600,
      "v": 67
    },
    {
      "midi": 69,
      "hit": false,
      "t": 146100,
      "d": 300,
      "v": 69
    },
    {
      "midi": 73,
      "hit": false,
      "t": 146100,
      "d": 300,
      "v": 69
    },
    {
      "midi": 62,
      "hit": false,
      "t": 146400,
      "d": 600,
      "v": 69
    },
    {
      "midi": 68,
      "hit": false,
      "t": 146400,
      "d": 600,
      "v": 69
    },
    {
      "midi": 71,
      "hit": false,
      "t": 146400,
      "d": 600,
      "v": 69
    },
    {
      "midi": 40,
      "hit": false,
      "t": 146400,
      "d": 300,
      "v": 74
    },
    {
      "midi": 52,
      "hit": false,
      "t": 146400,
      "d": 300,
      "v": 74
    },
    {
      "midi": 50,
      "hit": false,
      "t": 146700,
      "d": 300,
      "v": 68
    },
    {
      "midi": 74,
      "hit": false,
      "t": 147000,
      "d": 600,
      "v": 93
    },
    {
      "midi": 80,
      "hit": false,
      "t": 147000,
      "d": 600,
      "v": 93
    },
    {
      "midi": 83,
      "hit": false,
      "t": 147000,
      "d": 600,
      "v": 93
    },
    {
      "midi": 86,
      "hit": false,
      "t": 147000,
      "d": 600,
      "v": 93
    },
    {
      "midi": 52,
      "hit": false,
      "t": 147000,
      "d": 600,
      "v": 100
    },
    {
      "midi": 56,
      "hit": false,
      "t": 147000,
      "d": 600,
      "v": 100
    },
    {
      "midi": 59,
      "hit": false,
      "t": 147000,
      "d": 600,
      "v": 100
    },
    {
      "midi": 66,
      "hit": false,
      "t": 147000,
      "d": 600,
      "v": 100
    },
    {
      "midi": 72,
      "hit": false,
      "t": 147600,
      "d": 600,
      "v": 75
    },
    {
      "midi": 76,
      "hit": false,
      "t": 147600,
      "d": 600,
      "v": 75
    },
    {
      "midi": 80,
      "hit": false,
      "t": 147600,
      "d": 600,
      "v": 75
    },
    {
      "midi": 84,
      "hit": false,
      "t": 147600,
      "d": 600,
      "v": 75
    },
    {
      "midi": 52,
      "hit": false,
      "t": 147600,
      "d": 600,
      "v": 66
    },
    {
      "midi": 56,
      "hit": false,
      "t": 147600,
      "d": 600,
      "v": 66
    },
    {
      "midi": 60,
      "hit": false,
      "t": 147600,
      "d": 600,
      "v": 66
    },
    {
      "midi": 71,
      "hit": false,
      "t": 148200,
      "d": 600,
      "v": 76
    },
    {
      "midi": 76,
      "hit": false,
      "t": 148200,
      "d": 600,
      "v": 76
    },
    {
      "midi": 80,
      "hit": false,
      "t": 148200,
      "d": 600,
      "v": 76
    },
    {
      "midi": 83,
      "hit": false,
      "t": 148200,
      "d": 600,
      "v": 76
    },
    {
      "midi": 52,
      "hit": false,
      "t": 148200,
      "d": 300,
      "v": 66
    },
    {
      "midi": 56,
      "hit": false,
      "t": 148200,
      "d": 300,
      "v": 66
    },
    {
      "midi": 59,
      "hit": false,
      "t": 148200,
      "d": 300,
      "v": 66
    },
    {
      "midi": 47,
      "hit": false,
      "t": 148500,
      "d": 300,
      "v": 69
    },
    {
      "midi": 72,
      "hit": false,
      "t": 148800,
      "d": 1200,
      "v": 78
    },
    {
      "midi": 76,
      "hit": false,
      "t": 148800,
      "d": 1200,
      "v": 78
    },
    {
      "midi": 81,
      "hit": false,
      "t": 148800,
      "d": 1200,
      "v": 78
    },
    {
      "midi": 84,
      "hit": false,
      "t": 148800,
      "d": 1200,
      "v": 78
    },
    {
      "midi": 45,
      "hit": false,
      "t": 148800,
      "d": 300,
      "v": 83
    },
    {
      "midi": 57,
      "hit": false,
      "t": 148800,
      "d": 300,
      "v": 83
    },
    {
      "midi": 52,
      "hit": false,
      "t": 149100,
      "d": 300,
      "v": 73
    },
    {
      "midi": 48,
      "hit": false,
      "t": 149400,
      "d": 300,
      "v": 71
    },
    {
      "midi": 47,
      "hit": false,
      "t": 149700,
      "d": 300,
      "v": 72
    },
    {
      "midi": 72,
      "hit": false,
      "t": 150000,
      "d": 300,
      "v": 75
    },
    {
      "midi": 76,
      "hit": false,
      "t": 150000,
      "d": 300,
      "v": 75
    },
    {
      "midi": 81,
      "hit": false,
      "t": 150000,
      "d": 300,
      "v": 75
    },
    {
      "midi": 84,
      "hit": false,
      "t": 150000,
      "d": 300,
      "v": 75
    },
    {
      "midi": 45,
      "hit": false,
      "t": 150000,
      "d": 600,
      "v": 75
    },
    {
      "midi": 71,
      "hit": false,
      "t": 150300,
      "d": 300,
      "v": 54
    },
    {
      "midi": 74,
      "hit": false,
      "t": 150300,
      "d": 300,
      "v": 54
    },
    {
      "midi": 69,
      "hit": false,
      "t": 150600,
      "d": 300,
      "v": 66
    },
    {
      "midi": 72,
      "hit": false,
      "t": 150600,
      "d": 300,
      "v": 66
    },
    {
      "midi": 33,
      "hit": false,
      "t": 150600,
      "d": 600,
      "v": 75
    },
    {
      "midi": 45,
      "hit": false,
      "t": 150600,
      "d": 600,
      "v": 75
    },
    {
      "midi": 67,
      "hit": false,
      "t": 150900,
      "d": 300,
      "v": 75
    },
    {
      "midi": 71,
      "hit": false,
      "t": 150900,
      "d": 300,
      "v": 75
    },
    {
      "midi": 60,
      "hit": false,
      "t": 151200,
      "d": 600,
      "v": 68
    },
    {
      "midi": 66,
      "hit": false,
      "t": 151200,
      "d": 600,
      "v": 68
    },
    {
      "midi": 69,
      "hit": false,
      "t": 151200,
      "d": 600,
      "v": 68
    },
    {
      "midi": 38,
      "hit": false,
      "t": 151200,
      "d": 300,
      "v": 76
    },
    {
      "midi": 50,
      "hit": false,
      "t": 151200,
      "d": 300,
      "v": 76
    },
    {
      "midi": 45,
      "hit": false,
      "t": 151500,
      "d": 300,
      "v": 73
    },
    {
      "midi": 64,
      "hit": false,
      "t": 151800,
      "d": 300,
      "v": 86
    },
    {
      "midi": 72,
      "hit": false,
      "t": 151800,
      "d": 300,
      "v": 86
    },
    {
      "midi": 50,
      "hit": false,
      "t": 151800,
      "d": 600,
      "v": 79
    },
    {
      "midi": 66,
      "hit": false,
      "t": 152100,
      "d": 300,
      "v": 83
    },
    {
      "midi": 74,
      "hit": false,
      "t": 152100,
      "d": 300,
      "v": 83
    },
    {
      "midi": 67,
      "hit": false,
      "t": 152400,
      "d": 300,
      "v": 82
    },
    {
      "midi": 76,
      "hit": false,
      "t": 152400,
      "d": 300,
      "v": 82
    },
    {
      "midi": 38,
      "hit": false,
      "t": 152400,
      "d": 300,
      "v": 78
    },
    {
      "midi": 50,
      "hit": false,
      "t": 152400,
      "d": 300,
      "v": 78
    },
    {
      "midi": 66,
      "hit": false,
      "t": 152700,
      "d": 300,
      "v": 81
    },
    {
      "midi": 74,
      "hit": false,
      "t": 152700,
      "d": 300,
      "v": 81
    },
    {
      "midi": 78,
      "hit": false,
      "t": 152700,
      "d": 300,
      "v": 81
    },
    {
      "midi": 38,
      "hit": false,
      "t": 152700,
      "d": 600,
      "v": 80
    },
    {
      "midi": 50,
      "hit": false,
      "t": 152700,
      "d": 600,
      "v": 80
    },
    {
      "midi": 67,
      "hit": false,
      "t": 153000,
      "d": 300,
      "v": 77
    },
    {
      "midi": 76,
      "hit": false,
      "t": 153000,
      "d": 300,
      "v": 77
    },
    {
      "midi": 79,
      "hit": false,
      "t": 153000,
      "d": 300,
      "v": 77
    },
    {
      "midi": 69,
      "hit": false,
      "t": 153300,
      "d": 300,
      "v": 80
    },
    {
      "midi": 78,
      "hit": false,
      "t": 153300,
      "d": 300,
      "v": 80
    },
    {
      "midi": 81,
      "hit": false,
      "t": 153300,
      "d": 300,
      "v": 80
    },
    {
      "midi": 36,
      "hit": false,
      "t": 153300,
      "d": 300,
      "v": 70
    },
    {
      "midi": 48,
      "hit": false,
      "t": 153300,
      "d": 300,
      "v": 70
    },
    {
      "midi": 71,
      "hit": false,
      "t": 153600,
      "d": 600,
      "v": 81
    },
    {
      "midi": 74,
      "hit": false,
      "t": 153600,
      "d": 600,
      "v": 81
    },
    {
      "midi": 78,
      "hit": false,
      "t": 153600,
      "d": 600,
      "v": 81
    },
    {
      "midi": 83,
      "hit": false,
      "t": 153600,
      "d": 600,
      "v": 81
    },
    {
      "midi": 35,
      "hit": false,
      "t": 153600,
      "d": 300,
      "v": 76
    },
    {
      "midi": 47,
      "hit": false,
      "t": 153600,
      "d": 300,
      "v": 76
    },
    {
      "midi": 54,
      "hit": false,
      "t": 153900,
      "d": 300,
      "v": 84
    },
    {
      "midi": 66,
      "hit": false,
      "t": 154200,
      "d": 300,
      "v": 56
    },
    {
      "midi": 71,
      "hit": false,
      "t": 154200,
      "d": 300,
      "v": 56
    },
    {
      "midi": 47,
      "hit": false,
      "t": 154200,
      "d": 300,
      "v": 79
    },
    {
      "midi": 57,
      "hit": false,
      "t": 154200,
      "d": 300,
      "v": 79
    },
    {
      "midi": 71,
      "hit": false,
      "t": 154500,
      "d": 300,
      "v": 79
    },
    {
      "midi": 74,
      "hit": false,
      "t": 154500,
      "d": 300,
      "v": 79
    },
    {
      "midi": 47,
      "hit": false,
      "t": 154500,
      "d": 600,
      "v": 79
    },
    {
      "midi": 57,
      "hit": false,
      "t": 154500,
      "d": 600,
      "v": 79
    },
    {
      "midi": 74,
      "hit": false,
      "t": 154800,
      "d": 300,
      "v": 76
    },
    {
      "midi": 71,
      "hit": false,
      "t": 154800,
      "d": 600,
      "v": 76
    },
    {
      "midi": 76,
      "hit": false,
      "t": 155100,
      "d": 300,
      "v": 81
    },
    {
      "midi": 54,
      "hit": false,
      "t": 155100,
      "d": 300,
      "v": 71
    },
    {
      "midi": 76,
      "hit": false,
      "t": 155400,
      "d": 300,
      "v": 74
    },
    {
      "midi": 69,
      "hit": false,
      "t": 155400,
      "d": 600,
      "v": 74
    },
    {
      "midi": 71,
      "hit": false,
      "t": 155400,
      "d": 600,
      "v": 74
    },
    {
      "midi": 57,
      "hit": false,
      "t": 155400,
      "d": 300,
      "v": 84
    },
    {
      "midi": 74,
      "hit": false,
      "t": 155700,
      "d": 300,
      "v": 83
    },
    {
      "midi": 78,
      "hit": false,
      "t": 155700,
      "d": 300,
      "v": 83
    },
    {
      "midi": 47,
      "hit": false,
      "t": 155700,
      "d": 300,
      "v": 62
    },
    {
      "midi": 69,
      "hit": false,
      "t": 156000,
      "d": 300,
      "v": 76
    },
    {
      "midi": 74,
      "hit": false,
      "t": 156000,
      "d": 300,
      "v": 76
    },
    {
      "midi": 78,
      "hit": false,
      "t": 156000,
      "d": 300,
      "v": 76
    },
    {
      "midi": 40,
      "hit": false,
      "t": 156000,
      "d": 300,
      "v": 78
    },
    {
      "midi": 52,
      "hit": false,
      "t": 156000,
      "d": 300,
      "v": 78
    },
    {
      "midi": 68,
      "hit": false,
      "t": 156300,
      "d": 300,
      "v": 79
    },
    {
      "midi": 74,
      "hit": false,
      "t": 156300,
      "d": 300,
      "v": 79
    },
    {
      "midi": 80,
      "hit": false,
      "t": 156300,
      "d": 300,
      "v": 79
    },
    {
      "midi": 47,
      "hit": false,
      "t": 156300,
      "d": 300,
      "v": 74
    },
    {
      "midi": 68,
      "hit": false,
      "t": 156600,
      "d": 300,
      "v": 78
    },
    {
      "midi": 74,
      "hit": false,
      "t": 156600,
      "d": 300,
      "v": 78
    },
    {
      "midi": 80,
      "hit": false,
      "t": 156600,
      "d": 300,
      "v": 78
    },
    {
      "midi": 52,
      "hit": false,
      "t": 156600,
      "d": 600,
      "v": 83
    },
    {
      "midi": 69,
      "hit": false,
      "t": 156900,
      "d": 300,
      "v": 81
    },
    {
      "midi": 78,
      "hit": false,
      "t": 156900,
      "d": 300,
      "v": 81
    },
    {
      "midi": 81,
      "hit": false,
      "t": 156900,
      "d": 300,
      "v": 81
    },
    {
      "midi": 69,
      "hit": false,
      "t": 157200,
      "d": 300,
      "v": 75
    },
    {
      "midi": 78,
      "hit": false,
      "t": 157200,
      "d": 300,
      "v": 75
    },
    {
      "midi": 81,
      "hit": false,
      "t": 157200,
      "d": 300,
      "v": 75
    },
    {
      "midi": 50,
      "hit": false,
      "t": 157200,
      "d": 150,
      "v": 76
    },
    {
      "midi": 48,
      "hit": false,
      "t": 157350,
      "d": 150,
      "v": 79
    },
    {
      "midi": 71,
      "hit": false,
      "t": 157500,
      "d": 300,
      "v": 82
    },
    {
      "midi": 80,
      "hit": false,
      "t": 157500,
      "d": 300,
      "v": 82
    },
    {
      "midi": 83,
      "hit": false,
      "t": 157500,
      "d": 300,
      "v": 82
    },
    {
      "midi": 47,
      "hit": false,
      "t": 157500,
      "d": 150,
      "v": 75
    },
    {
      "midi": 45,
      "hit": false,
      "t": 157650,
      "d": 150,
      "v": 76
    },
    {
      "midi": 72,
      "hit": false,
      "t": 157800,
      "d": 300,
      "v": 78
    },
    {
      "midi": 81,
      "hit": false,
      "t": 157800,
      "d": 300,
      "v": 78
    },
    {
      "midi": 84,
      "hit": false,
      "t": 157800,
      "d": 300,
      "v": 78
    },
    {
      "midi": 44,
      "hit": false,
      "t": 157800,
      "d": 150,
      "v": 74
    },
    {
      "midi": 42,
      "hit": false,
      "t": 157950,
      "d": 150,
      "v": 74
    },
    {
      "midi": 74,
      "hit": false,
      "t": 158100,
      "d": 300,
      "v": 80
    },
    {
      "midi": 83,
      "hit": false,
      "t": 158100,
      "d": 300,
      "v": 80
    },
    {
      "midi": 86,
      "hit": false,
      "t": 158100,
      "d": 300,
      "v": 80
    },
    {
      "midi": 40,
      "hit": false,
      "t": 158100,
      "d": 150,
      "v": 74
    },
    {
      "midi": 38,
      "hit": false,
      "t": 158250,
      "d": 150,
      "v": 74
    }
  ]
}