{
  "jsonPath": "Rock/Heartland Rock/Bruce Springsteen/im-on-fire.json",
  "path": "Rock\\Heartland Rock\\Bruce Springsteen\\Im On Fire.mid",
  "name": "Im On Fire",
  "difficulty": "Intermediate",
  "bpm": 120,
  "notes": [
    {
      "midi": 55,
      "hit": false,
      "t": 46000,
      "d": 3495.8333333333358,
      "v": 119
    },
    {
      "midi": 62,
      "hit": false,
      "t": 46000,
      "d": 3495.8333333333358,
      "v": 119
    },
    {
      "midi": 43,
      "hit": false,
      "t": 46000,
      "d": 3620.8333333333358,
      "v": 119
    },
    {
      "midi": 59,
      "hit": false,
      "t": 46000,
      "d": 3620.8333333333358,
      "v": 119
    },
    {
      "midi": 43,
      "hit": false,
      "t": 50000,
      "d": 3120.8333333333285,
      "v": 119
    },
    {
      "midi": 59,
      "hit": false,
      "t": 50000,
      "d": 3245.8333333333285,
      "v": 119
    },
    {
      "midi": 62,
      "hit": false,
      "t": 50000,
      "d": 3245.8333333333285,
      "v": 119
    },
    {
      "midi": 55,
      "hit": false,
      "t": 50004.166666666664,
      "d": 3245.8333333333285,
      "v": 119
    },
    {
      "midi": 43,
      "hit": false,
      "t": 53499.99999999999,
      "d": 245.83333333333576,
      "v": 119
    },
    {
      "midi": 55,
      "hit": false,
      "t": 53499.99999999999,
      "d": 245.83333333333576,
      "v": 119
    },
    {
      "midi": 59,
      "hit": false,
      "t": 53499.99999999999,
      "d": 245.83333333333576,
      "v": 119
    },
    {
      "midi": 62,
      "hit": false,
      "t": 53499.99999999999,
      "d": 245.83333333333576,
      "v": 119
    },
    {
      "midi": 45,
      "hit": false,
      "t": 53999.99999999999,
      "d": 3370.8333333333358,
      "v": 119
    },
    {
      "midi": 57,
      "hit": false,
      "t": 53999.99999999999,
      "d": 3370.8333333333358,
      "v": 119
    },
    {
      "midi": 60,
      "hit": false,
      "t": 53999.99999999999,
      "d": 3370.8333333333358,
      "v": 119
    },
    {
      "midi": 64,
      "hit": false,
      "t": 53999.99999999999,
      "d": 3370.8333333333358,
      "v": 119
    },
    {
      "midi": 45,
      "hit": false,
      "t": 57499.99999999999,
      "d": 245.83333333333576,
      "v": 119
    },
    {
      "midi": 57,
      "hit": false,
      "t": 57499.99999999999,
      "d": 245.83333333333576,
      "v": 119
    },
    {
      "midi": 60,
      "hit": false,
      "t": 57499.99999999999,
      "d": 245.83333333333576,
      "v": 119
    },
    {
      "midi": 64,
      "hit": false,
      "t": 57499.99999999999,
      "d": 245.83333333333576,
      "v": 119
    },
    {
      "midi": 45,
      "hit": false,
      "t": 57999.99999999999,
      "d": 245.83333333333576,
      "v": 119
    },
    {
      "midi": 57,
      "hit": false,
      "t": 57999.99999999999,
      "d": 245.83333333333576,
      "v": 119
    },
    {
      "midi": 60,
      "hit": false,
      "t": 57999.99999999999,
      "d": 245.83333333333576,
      "v": 119
    },
    {
      "midi": 64,
      "hit": false,
      "t": 57999.99999999999,
      "d": 245.83333333333576,
      "v": 119
    },
    {
      "midi": 43,
      "hit": false,
      "t": 58499.99999999999,
      "d": 2870.8333333333358,
      "v": 119
    },
    {
      "midi": 55,
      "hit": false,
      "t": 58499.99999999999,
      "d": 2870.8333333333358,
      "v": 119
    },
    {
      "midi": 59,
      "hit": false,
      "t": 58499.99999999999,
      "d": 2870.8333333333358,
      "v": 119
    },
    {
      "midi": 62,
      "hit": false,
      "t": 58499.99999999999,
      "d": 2870.8333333333358,
      "v": 119
    },
    {
      "midi": 43,
      "hit": false,
      "t": 61499.99999999999,
      "d": 245.83333333333576,
      "v": 119
    },
    {
      "midi": 55,
      "hit": false,
      "t": 61499.99999999999,
      "d": 245.83333333333576,
      "v": 119
    },
    {
      "midi": 59,
      "hit": false,
      "t": 61499.99999999999,
      "d": 245.83333333333576,
      "v": 119
    },
    {
      "midi": 62,
      "hit": false,
      "t": 61499.99999999999,
      "d": 245.83333333333576,
      "v": 119
    },
    {
      "midi": 60,
      "hit": false,
      "t": 61999.99999999999,
      "d": 3245.8333333333358,
      "v": 119
    },
    {
      "midi": 57,
      "hit": false,
      "t": 61999.99999999999,
      "d": 3370.8333333333358,
      "v": 119
    },
    {
      "midi": 64,
      "hit": false,
      "t": 61999.99999999999,
      "d": 3370.8333333333358,
      "v": 119
    },
    {
      "midi": 45,
      "hit": false,
      "t": 61999.99999999999,
      "d": 3495.8333333333358,
      "v": 119
    },
    {
      "midi": 40,
      "hit": false,
      "t": 66000,
      "d": 2620.8333333333285,
      "v": 119
    },
    {
      "midi": 64,
      "hit": false,
      "t": 66000,
      "d": 2620.8333333333285,
      "v": 119
    },
    {
      "midi": 67,
      "hit": false,
      "t": 66000,
      "d": 2620.8333333333285,
      "v": 119
    },
    {
      "midi": 71,
      "hit": false,
      "t": 66000,
      "d": 2620.8333333333285,
      "v": 119
    },
    {
      "midi": 36,
      "hit": false,
      "t": 70000,
      "d": 1620.8333333333285,
      "v": 119
    },
    {
      "midi": 48,
      "hit": false,
      "t": 70000,
      "d": 1620.8333333333285,
      "v": 119
    },
    {
      "midi": 55,
      "hit": false,
      "t": 70000,
      "d": 1620.8333333333285,
      "v": 119
    },
    {
      "midi": 52,
      "hit": false,
      "t": 70000,
      "d": 1745.8333333333285,
      "v": 119
    },
    {
      "midi": 36,
      "hit": false,
      "t": 71750,
      "d": 120.83333333332848,
      "v": 119
    },
    {
      "midi": 48,
      "hit": false,
      "t": 71750,
      "d": 120.83333333332848,
      "v": 119
    },
    {
      "midi": 52,
      "hit": false,
      "t": 71750,
      "d": 120.83333333332848,
      "v": 119
    },
    {
      "midi": 55,
      "hit": false,
      "t": 71750,
      "d": 120.83333333332848,
      "v": 119
    },
    {
      "midi": 38,
      "hit": false,
      "t": 72000,
      "d": 1620.8333333333285,
      "v": 119
    },
    {
      "midi": 50,
      "hit": false,
      "t": 72000,
      "d": 1620.8333333333285,
      "v": 119
    },
    {
      "midi": 54,
      "hit": false,
      "t": 72000,
      "d": 1620.8333333333285,
      "v": 119
    },
    {
      "midi": 57,
      "hit": false,
      "t": 72000,
      "d": 1620.8333333333285,
      "v": 119
    },
    {
      "midi": 43,
      "hit": false,
      "t": 74000,
      "d": 3745.8333333333285,
      "v": 119
    },
    {
      "midi": 55,
      "hit": false,
      "t": 74000,
      "d": 3745.8333333333285,
      "v": 119
    },
    {
      "midi": 59,
      "hit": false,
      "t": 74000,
      "d": 3745.8333333333285,
      "v": 119
    },
    {
      "midi": 62,
      "hit": false,
      "t": 74000,
      "d": 3745.8333333333285,
      "v": 119
    },
    {
      "midi": 43,
      "hit": false,
      "t": 78000,
      "d": 2995.8333333333285,
      "v": 119
    },
    {
      "midi": 55,
      "hit": false,
      "t": 78000,
      "d": 3120.8333333333285,
      "v": 119
    },
    {
      "midi": 59,
      "hit": false,
      "t": 78000,
      "d": 3120.8333333333285,
      "v": 119
    },
    {
      "midi": 62,
      "hit": false,
      "t": 78000,
      "d": 3120.8333333333285,
      "v": 119
    },
    {
      "midi": 55,
      "hit": false,
      "t": 102000,
      "d": 3495.8333333333285,
      "v": 119
    },
    {
      "midi": 62,
      "hit": false,
      "t": 102000,
      "d": 3495.8333333333285,
      "v": 119
    },
    {
      "midi": 43,
      "hit": false,
      "t": 102000,
      "d": 3620.8333333333285,
      "v": 119
    },
    {
      "midi": 59,
      "hit": false,
      "t": 102000,
      "d": 3620.8333333333285,
      "v": 119
    },
    {
      "midi": 43,
      "hit": false,
      "t": 106000,
      "d": 3120.833333333343,
      "v": 119
    },
    {
      "midi": 59,
      "hit": false,
      "t": 106000,
      "d": 3245.833333333343,
      "v": 119
    },
    {
      "midi": 62,
      "hit": false,
      "t": 106000,
      "d": 3245.833333333343,
      "v": 119
    },
    {
      "midi": 55,
      "hit": false,
      "t": 106004.16666666667,
      "d": 3245.833333333343,
      "v": 119
    },
    {
      "midi": 43,
      "hit": false,
      "t": 109500.00000000001,
      "d": 245.83333333332848,
      "v": 119
    },
    {
      "midi": 55,
      "hit": false,
      "t": 109500.00000000001,
      "d": 245.83333333332848,
      "v": 119
    },
    {
      "midi": 59,
      "hit": false,
      "t": 109500.00000000001,
      "d": 245.83333333332848,
      "v": 119
    },
    {
      "midi": 62,
      "hit": false,
      "t": 109500.00000000001,
      "d": 245.83333333332848,
      "v": 119
    },
    {
      "midi": 45,
      "hit": false,
      "t": 110000.00000000001,
      "d": 3370.8333333333285,
      "v": 119
    },
    {
      "midi": 57,
      "hit": false,
      "t": 110000.00000000001,
      "d": 3370.8333333333285,
      "v": 119
    },
    {
      "midi": 60,
      "hit": false,
      "t": 110000.00000000001,
      "d": 3370.8333333333285,
      "v": 119
    },
    {
      "midi": 64,
      "hit": false,
      "t": 110000.00000000001,
      "d": 3370.8333333333285,
      "v": 119
    },
    {
      "midi": 45,
      "hit": false,
      "t": 113500.00000000001,
      "d": 245.83333333332848,
      "v": 119
    },
    {
      "midi": 57,
      "hit": false,
      "t": 113500.00000000001,
      "d": 245.83333333332848,
      "v": 119
    },
    {
      "midi": 60,
      "hit": false,
      "t": 113500.00000000001,
      "d": 245.83333333332848,
      "v": 119
    },
    {
      "midi": 64,
      "hit": false,
      "t": 113500.00000000001,
      "d": 245.83333333332848,
      "v": 119
    },
    {
      "midi": 45,
      "hit": false,
      "t": 114000.00000000001,
      "d": 245.83333333332848,
      "v": 119
    },
    {
      "midi": 57,
      "hit": false,
      "t": 114000.00000000001,
      "d": 245.83333333332848,
      "v": 119
    },
    {
      "midi": 60,
      "hit": false,
      "t": 114000.00000000001,
      "d": 245.83333333332848,
      "v": 119
    },
    {
      "midi": 64,
      "hit": false,
      "t": 114000.00000000001,
      "d": 245.83333333332848,
      "v": 119
    },
    {
      "midi": 43,
      "hit": false,
      "t": 114500.00000000001,
      "d": 2870.8333333333285,
      "v": 119
    },
    {
      "midi": 55,
      "hit": false,
      "t": 114500.00000000001,
      "d": 2870.8333333333285,
      "v": 119
    },
    {
      "midi": 59,
      "hit": false,
      "t": 114500.00000000001,
      "d": 2870.8333333333285,
      "v": 119
    },
    {
      "midi": 62,
      "hit": false,
      "t": 114500.00000000001,
      "d": 2870.8333333333285,
      "v": 119
    },
    {
      "midi": 43,
      "hit": false,
      "t": 117500.00000000001,
      "d": 245.83333333332848,
      "v": 119
    },
    {
      "midi": 55,
      "hit": false,
      "t": 117500.00000000001,
      "d": 245.83333333332848,
      "v": 119
    },
    {
      "midi": 59,
      "hit": false,
      "t": 117500.00000000001,
      "d": 245.83333333332848,
      "v": 119
    },
    {
      "midi": 62,
      "hit": false,
      "t": 117500.00000000001,
      "d": 245.83333333332848,
      "v": 119
    },
    {
      "midi": 60,
      "hit": false,
      "t": 118000.00000000001,
      "d": 3245.8333333333285,
      "v": 119
    },
    {
      "midi": 57,
      "hit": false,
      "t": 118000.00000000001,
      "d": 3370.8333333333285,
      "v": 119
    },
    {
      "midi": 64,
      "hit": false,
      "t": 118000.00000000001,
      "d": 3370.8333333333285,
      "v": 119
    },
    {
      "midi": 45,
      "hit": false,
      "t": 118000.00000000001,
      "d": 3495.8333333333285,
      "v": 119
    },
    {
      "midi": 40,
      "hit": false,
      "t": 122000.00000000001,
      "d": 2620.8333333333285,
      "v": 119
    },
    {
      "midi": 64,
      "hit": false,
      "t": 122000.00000000001,
      "d": 2620.8333333333285,
      "v": 119
    },
    {
      "midi": 67,
      "hit": false,
      "t": 122000.00000000001,
      "d": 2620.8333333333285,
      "v": 119
    },
    {
      "midi": 71,
      "hit": false,
      "t": 122000.00000000001,
      "d": 2620.8333333333285,
      "v": 119
    },
    {
      "midi": 36,
      "hit": false,
      "t": 126000.00000000001,
      "d": 1620.8333333333285,
      "v": 119
    },
    {
      "midi": 48,
      "hit": false,
      "t": 126000.00000000001,
      "d": 1620.8333333333285,
      "v": 119
    },
    {
      "midi": 55,
      "hit": false,
      "t": 126000.00000000001,
      "d": 1620.8333333333285,
      "v": 119
    },
    {
      "midi": 52,
      "hit": false,
      "t": 126000.00000000001,
      "d": 1745.8333333333285,
      "v": 119
    },
    {
      "midi": 36,
      "hit": false,
      "t": 127750.00000000001,
      "d": 120.83333333332848,
      "v": 119
    },
    {
      "midi": 48,
      "hit": false,
      "t": 127750.00000000001,
      "d": 120.83333333332848,
      "v": 119
    },
    {
      "midi": 52,
      "hit": false,
      "t": 127750.00000000001,
      "d": 120.83333333332848,
      "v": 119
    },
    {
      "midi": 55,
      "hit": false,
      "t": 127750.00000000001,
      "d": 120.83333333332848,
      "v": 119
    },
    {
      "midi": 38,
      "hit": false,
      "t": 128000.00000000001,
      "d": 1620.8333333333285,
      "v": 119
    },
    {
      "midi": 50,
      "hit": false,
      "t": 128000.00000000001,
      "d": 1620.8333333333285,
      "v": 119
    },
    {
      "midi": 54,
      "hit": false,
      "t": 128000.00000000001,
      "d": 1620.8333333333285,
      "v": 119
    },
    {
      "midi": 57,
      "hit": false,
      "t": 128000.00000000001,
      "d": 1620.8333333333285,
      "v": 119
    },
    {
      "midi": 43,
      "hit": false,
      "t": 130000.00000000001,
      "d": 3745.8333333333285,
      "v": 119
    },
    {
      "midi": 55,
      "hit": false,
      "t": 130000.00000000001,
      "d": 3745.8333333333285,
      "v": 119
    },
    {
      "midi": 59,
      "hit": false,
      "t": 130000.00000000001,
      "d": 3745.8333333333285,
      "v": 119
    },
    {
      "midi": 62,
      "hit": false,
      "t": 130000.00000000001,
      "d": 3745.8333333333285,
      "v": 119
    },
    {
      "midi": 43,
      "hit": false,
      "t": 134000,
      "d": 2995.833333333343,
      "v": 119
    },
    {
      "midi": 55,
      "hit": false,
      "t": 134000,
      "d": 3120.833333333343,
      "v": 119
    },
    {
      "midi": 59,
      "hit": false,
      "t": 134000,
      "d": 3120.833333333343,
      "v": 119
    },
    {
      "midi": 62,
      "hit": false,
      "t": 134000,
      "d": 3120.833333333343,
      "v": 119
    },
    {
      "midi": 55,
      "hit": false,
      "t": 158000,
      "d": 3495.833333333343,
      "v": 119
    },
    {
      "midi": 62,
      "hit": false,
      "t": 158000,
      "d": 3495.833333333343,
      "v": 119
    },
    {
      "midi": 43,
      "hit": false,
      "t": 158000,
      "d": 3620.833333333343,
      "v": 119
    },
    {
      "midi": 59,
      "hit": false,
      "t": 158000,
      "d": 3620.833333333343,
      "v": 119
    },
    {
      "midi": 43,
      "hit": false,
      "t": 162000,
      "d": 3120.833333333314,
      "v": 119
    },
    {
      "midi": 59,
      "hit": false,
      "t": 162000,
      "d": 3245.833333333314,
      "v": 119
    },
    {
      "midi": 62,
      "hit": false,
      "t": 162000,
      "d": 3245.833333333314,
      "v": 119
    },
    {
      "midi": 55,
      "hit": false,
      "t": 162004.16666666666,
      "d": 3245.833333333314,
      "v": 119
    },
    {
      "midi": 43,
      "hit": false,
      "t": 165499.99999999997,
      "d": 245.83333333334303,
      "v": 119
    },
    {
      "midi": 55,
      "hit": false,
      "t": 165499.99999999997,
      "d": 245.83333333334303,
      "v": 119
    },
    {
      "midi": 59,
      "hit": false,
      "t": 165499.99999999997,
      "d": 245.83333333334303,
      "v": 119
    },
    {
      "midi": 62,
      "hit": false,
      "t": 165499.99999999997,
      "d": 245.83333333334303,
      "v": 119
    },
    {
      "midi": 45,
      "hit": false,
      "t": 165999.99999999997,
      "d": 3370.833333333343,
      "v": 119
    },
    {
      "midi": 57,
      "hit": false,
      "t": 165999.99999999997,
      "d": 3370.833333333343,
      "v": 119
    },
    {
      "midi": 60,
      "hit": false,
      "t": 165999.99999999997,
      "d": 3370.833333333343,
      "v": 119
    },
    {
      "midi": 64,
      "hit": false,
      "t": 165999.99999999997,
      "d": 3370.833333333343,
      "v": 119
    },
    {
      "midi": 45,
      "hit": false,
      "t": 169499.99999999997,
      "d": 245.83333333334303,
      "v": 119
    },
    {
      "midi": 57,
      "hit": false,
      "t": 169499.99999999997,
      "d": 245.83333333334303,
      "v": 119
    },
    {
      "midi": 60,
      "hit": false,
      "t": 169499.99999999997,
      "d": 245.83333333334303,
      "v": 119
    },
    {
      "midi": 64,
      "hit": false,
      "t": 169499.99999999997,
      "d": 245.83333333334303,
      "v": 119
    },
    {
      "midi": 45,
      "hit": false,
      "t": 169999.99999999997,
      "d": 245.83333333334303,
      "v": 119
    },
    {
      "midi": 57,
      "hit": false,
      "t": 169999.99999999997,
      "d": 245.83333333334303,
      "v": 119
    },
    {
      "midi": 60,
      "hit": false,
      "t": 169999.99999999997,
      "d": 245.83333333334303,
      "v": 119
    },
    {
      "midi": 64,
      "hit": false,
      "t": 169999.99999999997,
      "d": 245.83333333334303,
      "v": 119
    },
    {
      "midi": 43,
      "hit": false,
      "t": 170499.99999999997,
      "d": 2870.833333333343,
      "v": 119
    },
    {
      "midi": 55,
      "hit": false,
      "t": 170499.99999999997,
      "d": 2870.833333333343,
      "v": 119
    },
    {
      "midi": 59,
      "hit": false,
      "t": 170499.99999999997,
      "d": 2870.833333333343,
      "v": 119
    },
    {
      "midi": 62,
      "hit": false,
      "t": 170499.99999999997,
      "d": 2870.833333333343,
      "v": 119
    },
    {
      "midi": 43,
      "hit": false,
      "t": 173499.99999999997,
      "d": 245.83333333334303,
      "v": 119
    },
    {
      "midi": 55,
      "hit": false,
      "t": 173499.99999999997,
      "d": 245.83333333334303,
      "v": 119
    },
    {
      "midi": 59,
      "hit": false,
      "t": 173499.99999999997,
      "d": 245.83333333334303,
      "v": 119
    },
    {
      "midi": 62,
      "hit": false,
      "t": 173499.99999999997,
      "d": 245.83333333334303,
      "v": 119
    },
    {
      "midi": 60,
      "hit": false,
      "t": 173999.99999999997,
      "d": 3245.833333333343,
      "v": 119
    },
    {
      "midi": 57,
      "hit": false,
      "t": 173999.99999999997,
      "d": 3370.833333333343,
      "v": 119
    },
    {
      "midi": 64,
      "hit": false,
      "t": 173999.99999999997,
      "d": 3370.833333333343,
      "v": 119
    },
    {
      "midi": 45,
      "hit": false,
      "t": 173999.99999999997,
      "d": 3495.833333333343,
      "v": 119
    },
    {
      "midi": 40,
      "hit": false,
      "t": 177999.99999999997,
      "d": 2620.833333333343,
      "v": 119
    },
    {
      "midi": 64,
      "hit": false,
      "t": 177999.99999999997,
      "d": 2620.833333333343,
      "v": 119
    },
    {
      "midi": 67,
      "hit": false,
      "t": 177999.99999999997,
      "d": 2620.833333333343,
      "v": 119
    },
    {
      "midi": 71,
      "hit": false,
      "t": 177999.99999999997,
      "d": 2620.833333333343,
      "v": 119
    },
    {
      "midi": 36,
      "hit": false,
      "t": 181999.99999999997,
      "d": 1620.833333333343,
      "v": 119
    },
    {
      "midi": 48,
      "hit": false,
      "t": 181999.99999999997,
      "d": 1620.833333333343,
      "v": 119
    },
    {
      "midi": 55,
      "hit": false,
      "t": 181999.99999999997,
      "d": 1620.833333333343,
      "v": 119
    },
    {
      "midi": 52,
      "hit": false,
      "t": 181999.99999999997,
      "d": 1745.833333333343,
      "v": 119
    },
    {
      "midi": 36,
      "hit": false,
      "t": 183749.99999999997,
      "d": 120.83333333334303,
      "v": 119
    },
    {
      "midi": 48,
      "hit": false,
      "t": 183749.99999999997,
      "d": 120.83333333334303,
      "v": 119
    },
    {
      "midi": 52,
      "hit": false,
      "t": 183749.99999999997,
      "d": 120.83333333334303,
      "v": 119
    },
    {
      "midi": 55,
      "hit": false,
      "t": 183749.99999999997,
      "d": 120.83333333334303,
      "v": 119
    },
    {
      "midi": 38,
      "hit": false,
      "t": 183999.99999999997,
      "d": 1620.833333333343,
      "v": 119
    },
    {
      "midi": 50,
      "hit": false,
      "t": 183999.99999999997,
      "d": 1620.833333333343,
      "v": 119
    },
    {
      "midi": 54,
      "hit": false,
      "t": 183999.99999999997,
      "d": 1620.833333333343,
      "v": 119
    },
    {
      "midi": 57,
      "hit": false,
      "t": 183999.99999999997,
      "d": 1620.833333333343,
      "v": 119
    },
    {
      "midi": 43,
      "hit": false,
      "t": 185999.99999999997,
      "d": 3745.833333333343,
      "v": 119
    },
    {
      "midi": 55,
      "hit": false,
      "t": 185999.99999999997,
      "d": 3745.833333333343,
      "v": 119
    },
    {
      "midi": 59,
      "hit": false,
      "t": 185999.99999999997,
      "d": 3745.833333333343,
      "v": 119
    },
    {
      "midi": 62,
      "hit": false,
      "t": 185999.99999999997,
      "d": 3745.833333333343,
      "v": 119
    },
    {
      "midi": 43,
      "hit": false,
      "t": 189999.99999999997,
      "d": 2995.833333333343,
      "v": 119
    },
    {
      "midi": 55,
      "hit": false,
      "t": 189999.99999999997,
      "d": 3120.833333333343,
      "v": 119
    },
    {
      "midi": 59,
      "hit": false,
      "t": 189999.99999999997,
      "d": 3120.833333333343,
      "v": 119
    },
    {
      "midi": 62,
      "hit": false,
      "t": 189999.99999999997,
      "d": 3120.833333333343,
      "v": 119
    },
    {
      "midi": 36,
      "hit": false,
      "t": 193999.99999999997,
      "d": 1620.833333333343,
      "v": 119
    },
    {
      "midi": 48,
      "hit": false,
      "t": 193999.99999999997,
      "d": 1620.833333333343,
      "v": 119
    },
    {
      "midi": 55,
      "hit": false,
      "t": 193999.99999999997,
      "d": 1620.833333333343,
      "v": 119
    },
    {
      "midi": 52,
      "hit": false,
      "t": 193999.99999999997,
      "d": 1745.833333333343,
      "v": 119
    },
    {
      "midi": 36,
      "hit": false,
      "t": 195749.99999999997,
      "d": 120.83333333334303,
      "v": 119
    },
    {
      "midi": 48,
      "hit": false,
      "t": 195749.99999999997,
      "d": 120.83333333334303,
      "v": 119
    },
    {
      "midi": 52,
      "hit": false,
      "t": 195749.99999999997,
      "d": 120.83333333334303,
      "v": 119
    },
    {
      "midi": 55,
      "hit": false,
      "t": 195749.99999999997,
      "d": 120.83333333334303,
      "v": 119
    },
    {
      "midi": 38,
      "hit": false,
      "t": 195999.99999999997,
      "d": 1620.833333333343,
      "v": 119
    },
    {
      "midi": 50,
      "hit": false,
      "t": 195999.99999999997,
      "d": 1620.833333333343,
      "v": 119
    },
    {
      "midi": 54,
      "hit": false,
      "t": 195999.99999999997,
      "d": 1620.833333333343,
      "v": 119
    },
    {
      "midi": 57,
      "hit": false,
      "t": 195999.99999999997,
      "d": 1620.833333333343,
      "v": 119
    }
  ]
}