{
  "jsonPath": "Jazz/South African Jazz/Brenda Fassie/good-black-woman.json",
  "path": "Jazz\\South African Jazz\\Brenda Fassie\\Good Black Woman.mid",
  "name": "Good Black Woman",
  "difficulty": "Advanced",
  "bpm": 68.0000725334107,
  "notes": [
    {
      "midi": 71,
      "hit": false,
      "t": 6171.868416666666,
      "d": 142.4630833333331,
      "v": 127
    },
    {
      "midi": 71,
      "hit": false,
      "t": 6387.860833333333,
      "d": 188.41891666666652,
      "v": 112
    },
    {
      "midi": 81,
      "hit": false,
      "t": 6622.235583333333,
      "d": 110.29399999999987,
      "v": 127
    },
    {
      "midi": 80,
      "hit": false,
      "t": 6833.632416666666,
      "d": 202.20566666666673,
      "v": 127
    },
    {
      "midi": 40,
      "hit": false,
      "t": 7054.220416666666,
      "d": 491.7274166666666,
      "v": 108
    },
    {
      "midi": 76,
      "hit": false,
      "t": 7058.816,
      "d": 2610.2913333333336,
      "v": 127
    },
    {
      "midi": 47,
      "hit": false,
      "t": 7504.587583333333,
      "d": 110.29399999999987,
      "v": 100
    },
    {
      "midi": 54,
      "hit": false,
      "t": 7931.976833333333,
      "d": 257.35266666666666,
      "v": 80
    },
    {
      "midi": 56,
      "hit": false,
      "t": 8373.152833333334,
      "d": 133.27191666666658,
      "v": 80
    },
    {
      "midi": 59,
      "hit": false,
      "t": 8828.115583333334,
      "d": 905.3299166666657,
      "v": 76
    },
    {
      "midi": 71,
      "hit": false,
      "t": 9696.680833333334,
      "d": 124.08074999999917,
      "v": 80
    },
    {
      "midi": 71,
      "hit": false,
      "t": 9917.268833333334,
      "d": 197.61008333333302,
      "v": 127
    },
    {
      "midi": 81,
      "hit": false,
      "t": 10137.856833333333,
      "d": 133.27191666666658,
      "v": 127
    },
    {
      "midi": 80,
      "hit": false,
      "t": 10358.444833333333,
      "d": 307.9040833333347,
      "v": 124
    },
    {
      "midi": 78,
      "hit": false,
      "t": 10583.628416666666,
      "d": 2486.2105833333353,
      "v": 127
    },
    {
      "midi": 47,
      "hit": false,
      "t": 10592.819583333334,
      "d": 2385.107750000001,
      "v": 120
    },
    {
      "midi": 54,
      "hit": false,
      "t": 11029.400000000001,
      "d": 234.37475000000086,
      "v": 112
    },
    {
      "midi": 59,
      "hit": false,
      "t": 11461.384833333335,
      "d": 114.88958333333358,
      "v": 104
    },
    {
      "midi": 64,
      "hit": false,
      "t": 11907.156416666669,
      "d": 160.845416666667,
      "v": 96
    },
    {
      "midi": 63,
      "hit": false,
      "t": 12357.523583333335,
      "d": 105.69841666666616,
      "v": 80
    },
    {
      "midi": 59,
      "hit": false,
      "t": 14113.036416666668,
      "d": 579.0435000000016,
      "v": 98
    },
    {
      "midi": 52,
      "hit": false,
      "t": 14117.632000000001,
      "d": 689.3375000000015,
      "v": 94
    },
    {
      "midi": 40,
      "hit": false,
      "t": 14117.632000000001,
      "d": 3515.6212500000074,
      "v": 94
    },
    {
      "midi": 64,
      "hit": false,
      "t": 14122.227583333335,
      "d": 450.3671666666669,
      "v": 100
    },
    {
      "midi": 56,
      "hit": false,
      "t": 14549.616833333335,
      "d": 781.2491666666701,
      "v": 74
    },
    {
      "midi": 64,
      "hit": false,
      "t": 14995.38841666667,
      "d": 367.64666666666926,
      "v": 98
    },
    {
      "midi": 59,
      "hit": false,
      "t": 15004.579583333338,
      "d": 464.15391666666983,
      "v": 100
    },
    {
      "midi": 56,
      "hit": false,
      "t": 15441.160000000007,
      "d": 666.3595833333347,
      "v": 80
    },
    {
      "midi": 64,
      "hit": false,
      "t": 15873.144833333341,
      "d": 468.7495000000017,
      "v": 96
    },
    {
      "midi": 59,
      "hit": false,
      "t": 15882.336000000008,
      "d": 749.080083333336,
      "v": 100
    },
    {
      "midi": 56,
      "hit": false,
      "t": 16314.320833333342,
      "d": 707.7198333333363,
      "v": 82
    },
    {
      "midi": 64,
      "hit": false,
      "t": 16755.496833333345,
      "d": 468.7494999999981,
      "v": 98
    },
    {
      "midi": 59,
      "hit": false,
      "t": 16760.092416666677,
      "d": 643.3816666666644,
      "v": 100
    },
    {
      "midi": 52,
      "hit": false,
      "t": 17210.459583333344,
      "d": 427.38924999999654,
      "v": 72
    },
    {
      "midi": 59,
      "hit": false,
      "t": 17637.84883333334,
      "d": 404.4113333333298,
      "v": 95
    },
    {
      "midi": 51,
      "hit": false,
      "t": 17637.84883333334,
      "d": 1061.5797499999971,
      "v": 75
    },
    {
      "midi": 66,
      "hit": false,
      "t": 17642.444416666673,
      "d": 491.7274166666648,
      "v": 95
    },
    {
      "midi": 59,
      "hit": false,
      "t": 18092.811583333336,
      "d": 137.8675000000003,
      "v": 27
    },
    {
      "midi": 66,
      "hit": false,
      "t": 18520.200833333336,
      "d": 409.006916666669,
      "v": 103
    },
    {
      "midi": 59,
      "hit": false,
      "t": 18529.392000000003,
      "d": 413.6025000000009,
      "v": 99
    },
    {
      "midi": 51,
      "hit": false,
      "t": 18970.568000000003,
      "d": 1001.837166666668,
      "v": 81
    },
    {
      "midi": 59,
      "hit": false,
      "t": 19195.751583333335,
      "d": 128.67633333333288,
      "v": 79
    },
    {
      "midi": 66,
      "hit": false,
      "t": 19402.552833333335,
      "d": 422.7936666666683,
      "v": 119
    },
    {
      "midi": 71,
      "hit": false,
      "t": 19411.744000000002,
      "d": 670.9551666666703,
      "v": 119
    },
    {
      "midi": 59,
      "hit": false,
      "t": 19857.515583333337,
      "d": 238.97033333333457,
      "v": 99
    },
    {
      "midi": 59,
      "hit": false,
      "t": 20284.904833333338,
      "d": 505.51416666666773,
      "v": 75
    },
    {
      "midi": 66,
      "hit": false,
      "t": 20294.096000000005,
      "d": 546.8744166666656,
      "v": 79
    },
    {
      "midi": 51,
      "hit": false,
      "t": 20726.080833333337,
      "d": 303.3084999999992,
      "v": 84
    },
    {
      "midi": 61,
      "hit": false,
      "t": 21176.448000000004,
      "d": 569.8523333333324,
      "v": 105
    },
    {
      "midi": 57,
      "hit": false,
      "t": 21181.043583333336,
      "d": 611.2125833333339,
      "v": 101
    },
    {
      "midi": 42,
      "hit": false,
      "t": 21181.043583333336,
      "d": 1056.984166666669,
      "v": 107
    },
    {
      "midi": 61,
      "hit": false,
      "t": 22054.20441666667,
      "d": 514.7053333333351,
      "v": 107
    },
    {
      "midi": 57,
      "hit": false,
      "t": 22063.39558333334,
      "d": 537.6832500000019,
      "v": 95
    },
    {
      "midi": 42,
      "hit": false,
      "t": 22504.571583333338,
      "d": 179.22775000000183,
      "v": 98
    },
    {
      "midi": 45,
      "hit": false,
      "t": 22725.15958333334,
      "d": 257.35266666666575,
      "v": 101
    },
    {
      "midi": 64,
      "hit": false,
      "t": 22931.96083333334,
      "d": 556.0655833333294,
      "v": 111
    },
    {
      "midi": 57,
      "hit": false,
      "t": 22941.15200000001,
      "d": 284.92616666666436,
      "v": 103
    },
    {
      "midi": 61,
      "hit": false,
      "t": 22941.15200000001,
      "d": 735.2933333333276,
      "v": 107
    },
    {
      "midi": 47,
      "hit": false,
      "t": 22945.74758333334,
      "d": 514.7053333333315,
      "v": 99
    },
    {
      "midi": 57,
      "hit": false,
      "t": 23377.732416666673,
      "d": 215.9924166666642,
      "v": 111
    },
    {
      "midi": 47,
      "hit": false,
      "t": 23602.916000000005,
      "d": 1116.7267500000053,
      "v": 99
    },
    {
      "midi": 57,
      "hit": false,
      "t": 23814.312833333337,
      "d": 294.1173333333354,
      "v": 95
    },
    {
      "midi": 59,
      "hit": false,
      "t": 23814.312833333337,
      "d": 716.9110000000037,
      "v": 99
    },
    {
      "midi": 63,
      "hit": false,
      "t": 23823.504000000004,
      "d": 749.0800833333378,
      "v": 99
    },
    {
      "midi": 57,
      "hit": false,
      "t": 24255.48883333334,
      "d": 390.62458333333416,
      "v": 87
    },
    {
      "midi": 64,
      "hit": false,
      "t": 24701.260416666675,
      "d": 450.3671666666669,
      "v": 95
    },
    {
      "midi": 59,
      "hit": false,
      "t": 24701.260416666675,
      "d": 519.300916666667,
      "v": 103
    },
    {
      "midi": 40,
      "hit": false,
      "t": 24710.451583333343,
      "d": 3382.349333333339,
      "v": 79
    },
    {
      "midi": 56,
      "hit": false,
      "t": 25147.03200000001,
      "d": 137.8675000000003,
      "v": 71
    },
    {
      "midi": 52,
      "hit": false,
      "t": 25363.024416666678,
      "d": 376.83783333333486,
      "v": 91
    },
    {
      "midi": 64,
      "hit": false,
      "t": 25579.016833333346,
      "d": 307.9040833333347,
      "v": 115
    },
    {
      "midi": 56,
      "hit": false,
      "t": 25592.803583333345,
      "d": 317.0952500000021,
      "v": 99
    },
    {
      "midi": 64,
      "hit": false,
      "t": 26033.97958333335,
      "d": 280.33058333333247,
      "v": 115
    },
    {
      "midi": 57,
      "hit": false,
      "t": 26033.97958333335,
      "d": 376.8378333333312,
      "v": 107
    },
    {
      "midi": 52,
      "hit": false,
      "t": 26240.78083333335,
      "d": 721.5065833333283,
      "v": 91
    },
    {
      "midi": 64,
      "hit": false,
      "t": 26461.368833333345,
      "d": 703.1242500000008,
      "v": 115
    },
    {
      "midi": 59,
      "hit": false,
      "t": 26475.155583333344,
      "d": 781.2491666666683,
      "v": 91
    },
    {
      "midi": 56,
      "hit": false,
      "t": 26916.331583333344,
      "d": 514.7053333333351,
      "v": 91
    },
    {
      "midi": 52,
      "hit": false,
      "t": 27132.32400000001,
      "d": 882.3520000000026,
      "v": 91
    },
    {
      "midi": 64,
      "hit": false,
      "t": 27348.31641666668,
      "d": 528.4920833333344,
      "v": 95
    },
    {
      "midi": 59,
      "hit": false,
      "t": 27348.31641666668,
      "d": 537.6832500000019,
      "v": 95
    },
    {
      "midi": 47,
      "hit": false,
      "t": 27789.49241666668,
      "d": 312.49966666667024,
      "v": 83
    },
    {
      "midi": 59,
      "hit": false,
      "t": 28226.07283333335,
      "d": 326.28641666666226,
      "v": 103
    },
    {
      "midi": 68,
      "hit": false,
      "t": 28230.668416666682,
      "d": 330.8819999999978,
      "v": 99
    },
    {
      "midi": 50,
      "hit": false,
      "t": 28230.668416666682,
      "d": 3423.7095833333333,
      "v": 95
    },
    {
      "midi": 64,
      "hit": false,
      "t": 28235.264000000014,
      "d": 335.4775833333333,
      "v": 119
    },
    {
      "midi": 59,
      "hit": false,
      "t": 28667.248833333346,
      "d": 91.91166666666686,
      "v": 59
    },
    {
      "midi": 59,
      "hit": false,
      "t": 28897.028000000013,
      "d": 91.91166666666686,
      "v": 75
    },
    {
      "midi": 68,
      "hit": false,
      "t": 29108.424833333345,
      "d": 335.4775833333333,
      "v": 95
    },
    {
      "midi": 64,
      "hit": false,
      "t": 29108.424833333345,
      "d": 390.62458333333416,
      "v": 111
    },
    {
      "midi": 59,
      "hit": false,
      "t": 29554.19641666668,
      "d": 335.4775833333333,
      "v": 95
    },
    {
      "midi": 68,
      "hit": false,
      "t": 29990.776833333348,
      "d": 468.7494999999981,
      "v": 99
    },
    {
      "midi": 71,
      "hit": false,
      "t": 30004.563583333347,
      "d": 464.1539166666662,
      "v": 111
    },
    {
      "midi": 59,
      "hit": false,
      "t": 30431.952833333347,
      "d": 119.48516666666546,
      "v": 87
    },
    {
      "midi": 68,
      "hit": false,
      "t": 30873.128833333347,
      "d": 661.7640000000029,
      "v": 91
    },
    {
      "midi": 64,
      "hit": false,
      "t": 30886.915583333346,
      "d": 638.7860833333361,
      "v": 103
    },
    {
      "midi": 59,
      "hit": false,
      "t": 31314.304833333346,
      "d": 193.01450000000114,
      "v": 75
    },
    {
      "midi": 61,
      "hit": false,
      "t": 31755.48083333335,
      "d": 624.9993333333332,
      "v": 107
    },
    {
      "midi": 49,
      "hit": false,
      "t": 31755.48083333335,
      "d": 3501.8345000000045,
      "v": 67
    },
    {
      "midi": 57,
      "hit": false,
      "t": 31769.26758333335,
      "d": 698.5286666666689,
      "v": 111
    },
    {
      "midi": 52,
      "hit": false,
      "t": 32210.44358333335,
      "d": 303.3085000000028,
      "v": 59
    },
    {
      "midi": 61,
      "hit": false,
      "t": 32637.832833333352,
      "d": 413.60249999999724,
      "v": 103
    },
    {
      "midi": 57,
      "hit": false,
      "t": 32651.61958333335,
      "d": 473.34508333332997,
      "v": 103
    },
    {
      "midi": 52,
      "hit": false,
      "t": 33083.60441666668,
      "d": 170.03658333333442,
      "v": 83
    },
    {
      "midi": 61,
      "hit": false,
      "t": 33524.78041666668,
      "d": 427.3892500000002,
      "v": 119
    },
    {
      "midi": 57,
      "hit": false,
      "t": 33533.97158333335,
      "d": 500.9185833333395,
      "v": 119
    },
    {
      "midi": 52,
      "hit": false,
      "t": 33970.55200000002,
      "d": 197.61008333333302,
      "v": 83
    },
    {
      "midi": 57,
      "hit": false,
      "t": 34402.53683333335,
      "d": 850.1829166666648,
      "v": 79
    },
    {
      "midi": 61,
      "hit": false,
      "t": 34402.53683333335,
      "d": 854.7785000000003,
      "v": 83
    },
    {
      "midi": 52,
      "hit": false,
      "t": 34852.90400000002,
      "d": 404.4113333333371,
      "v": 63
    },
    {
      "midi": 61,
      "hit": false,
      "t": 35284.88883333335,
      "d": 537.6832500000019,
      "v": 99
    },
    {
      "midi": 57,
      "hit": false,
      "t": 35294.080000000016,
      "d": 335.4775833333333,
      "v": 87
    },
    {
      "midi": 66,
      "hit": false,
      "t": 35294.080000000016,
      "d": 431.9848333333357,
      "v": 95
    },
    {
      "midi": 42,
      "hit": false,
      "t": 35294.080000000016,
      "d": 795.0359166666676,
      "v": 87
    },
    {
      "midi": 57,
      "hit": false,
      "t": 35726.06483333335,
      "d": 197.61008333333302,
      "v": 71
    },
    {
      "midi": 66,
      "hit": false,
      "t": 36167.24083333335,
      "d": 431.9848333333284,
      "v": 71
    },
    {
      "midi": 61,
      "hit": false,
      "t": 36176.432000000015,
      "d": 487.1318333333329,
      "v": 79
    },
    {
      "midi": 57,
      "hit": false,
      "t": 36176.432000000015,
      "d": 510.109749999996,
      "v": 75
    },
    {
      "midi": 42,
      "hit": false,
      "t": 36613.01241666668,
      "d": 197.61008333333302,
      "v": 95
    },
    {
      "midi": 44,
      "hit": false,
      "t": 36838.19600000001,
      "d": 206.8012499999968,
      "v": 79
    },
    {
      "midi": 64,
      "hit": false,
      "t": 37049.59283333334,
      "d": 542.2788333333374,
      "v": 79
    },
    {
      "midi": 57,
      "hit": false,
      "t": 37054.18841666668,
      "d": 330.88200000000506,
      "v": 71
    },
    {
      "midi": 45,
      "hit": false,
      "t": 37058.784000000014,
      "d": 1084.5576666666675,
      "v": 75
    },
    {
      "midi": 61,
      "hit": false,
      "t": 37063.37958333335,
      "d": 716.9110000000001,
      "v": 71
    },
    {
      "midi": 57,
      "hit": false,
      "t": 37504.55558333335,
      "d": 271.13941666666506,
      "v": 63
    },
    {
      "midi": 61,
      "hit": false,
      "t": 37936.540416666685,
      "d": 395.22016666666605,
      "v": 99
    },
    {
      "midi": 57,
      "hit": false,
      "t": 37936.540416666685,
      "d": 450.36716666666325,
      "v": 91
    },
    {
      "midi": 64,
      "hit": false,
      "t": 37945.73158333335,
      "d": 367.64666666666744,
      "v": 91
    },
    {
      "midi": 45,
      "hit": false,
      "t": 38377.716416666684,
      "d": 459.55833333331975,
      "v": 87
    },
    {
      "midi": 57,
      "hit": false,
      "t": 38593.708833333345,
      "d": 147.05866666666407,
      "v": 67
    },
    {
      "midi": 59,
      "hit": false,
      "t": 38814.29683333334,
      "d": 611.2125833333266,
      "v": 91
    },
    {
      "midi": 57,
      "hit": false,
      "t": 38818.89241666668,
      "d": 358.4554999999964,
      "v": 83
    },
    {
      "midi": 47,
      "hit": false,
      "t": 38818.89241666668,
      "d": 1121.3223333333299,
      "v": 79
    },
    {
      "midi": 64,
      "hit": false,
      "t": 38828.08358333334,
      "d": 537.6832499999946,
      "v": 87
    },
    {
      "midi": 57,
      "hit": false,
      "t": 39264.664000000004,
      "d": 257.35266666666575,
      "v": 67
    },
    {
      "midi": 57,
      "hit": false,
      "t": 39696.64883333334,
      "d": 500.9185833333322,
      "v": 79
    },
    {
      "midi": 64,
      "hit": false,
      "t": 39705.840000000004,
      "d": 496.32300000000396,
      "v": 83
    },
    {
      "midi": 59,
      "hit": false,
      "t": 39710.43558333334,
      "d": 537.6832500000019,
      "v": 87
    },
    {
      "midi": 47,
      "hit": false,
      "t": 40137.82483333334,
      "d": 294.1173333333354,
      "v": 71
    },
    {
      "midi": 59,
      "hit": false,
      "t": 40583.596416666674,
      "d": 1034.0062499999985,
      "v": 63
    },
    {
      "midi": 57,
      "hit": false,
      "t": 40588.19200000001,
      "d": 1034.0062499999985,
      "v": 67
    },
    {
      "midi": 63,
      "hit": false,
      "t": 40588.19200000001,
      "d": 1034.0062499999985,
      "v": 67
    },
    {
      "midi": 47,
      "hit": false,
      "t": 40588.19200000001,
      "d": 1043.1974166666623,
      "v": 51
    },
    {
      "midi": 40,
      "hit": false,
      "t": 44108.408833333335,
      "d": 3166.356916666664,
      "v": 91
    },
    {
      "midi": 64,
      "hit": false,
      "t": 44113.00441666667,
      "d": 556.0655833333294,
      "v": 103
    },
    {
      "midi": 59,
      "hit": false,
      "t": 44122.195583333334,
      "d": 579.0434999999998,
      "v": 107
    },
    {
      "midi": 56,
      "hit": false,
      "t": 44554.18041666667,
      "d": 431.9848333333284,
      "v": 51
    },
    {
      "midi": 64,
      "hit": false,
      "t": 44990.760833333334,
      "d": 431.9848333333357,
      "v": 95
    },
    {
      "midi": 59,
      "hit": false,
      "t": 45004.54758333333,
      "d": 482.53625000000466,
      "v": 99
    },
    {
      "midi": 56,
      "hit": false,
      "t": 45436.53241666667,
      "d": 510.10975000000326,
      "v": 75
    },
    {
      "midi": 59,
      "hit": false,
      "t": 45882.304000000004,
      "d": 579.0434999999998,
      "v": 83
    },
    {
      "midi": 64,
      "hit": false,
      "t": 45886.89958333334,
      "d": 477.94066666666185,
      "v": 75
    },
    {
      "midi": 56,
      "hit": false,
      "t": 46323.48,
      "d": 496.32300000000396,
      "v": 59
    },
    {
      "midi": 47,
      "hit": false,
      "t": 46534.876833333336,
      "d": 698.5286666666652,
      "v": 83
    },
    {
      "midi": 64,
      "hit": false,
      "t": 46769.25158333334,
      "d": 450.36716666666325,
      "v": 91
    },
    {
      "midi": 59,
      "hit": false,
      "t": 46769.25158333334,
      "d": 537.6832499999946,
      "v": 99
    },
    {
      "midi": 56,
      "hit": false,
      "t": 47210.42758333334,
      "d": 211.39683333332505,
      "v": 95
    },
    {
      "midi": 47,
      "hit": false,
      "t": 47426.42,
      "d": 160.84541666666337,
      "v": 83
    },
    {
      "midi": 52,
      "hit": false,
      "t": 47637.81683333332,
      "d": 579.0434999999925,
      "v": 95
    },
    {
      "midi": 56,
      "hit": false,
      "t": 47647.00799999999,
      "d": 234.37475000000268,
      "v": 87
    },
    {
      "midi": 59,
      "hit": false,
      "t": 47647.00799999999,
      "d": 496.3229999999967,
      "v": 115
    },
    {
      "midi": 40,
      "hit": false,
      "t": 47647.00799999999,
      "d": 3520.2168333333175,
      "v": 95
    },
    {
      "midi": 64,
      "hit": false,
      "t": 47651.60358333332,
      "d": 459.558333333327,
      "v": 115
    },
    {
      "midi": 56,
      "hit": false,
      "t": 48088.18399999999,
      "d": 487.13183333332563,
      "v": 103
    },
    {
      "midi": 52,
      "hit": false,
      "t": 48304.17641666665,
      "d": 735.2933333333276,
      "v": 83
    },
    {
      "midi": 64,
      "hit": false,
      "t": 48520.168833333315,
      "d": 519.3009166666598,
      "v": 95
    },
    {
      "midi": 59,
      "hit": false,
      "t": 48529.35999999998,
      "d": 556.0655833333294,
      "v": 99
    },
    {
      "midi": 56,
      "hit": false,
      "t": 48970.53599999998,
      "d": 514.7053333333315,
      "v": 83
    },
    {
      "midi": 52,
      "hit": false,
      "t": 49191.123999999974,
      "d": 767.4624166666617,
      "v": 83
    },
    {
      "midi": 59,
      "hit": false,
      "t": 49411.71199999998,
      "d": 487.13183333332563,
      "v": 87
    },
    {
      "midi": 64,
      "hit": false,
      "t": 49416.30758333331,
      "d": 436.5804166666567,
      "v": 87
    },
    {
      "midi": 56,
      "hit": false,
      "t": 49843.696833333306,
      "d": 473.3450833333336,
      "v": 79
    },
    {
      "midi": 52,
      "hit": false,
      "t": 50068.88041666664,
      "d": 795.0359166666676,
      "v": 91
    },
    {
      "midi": 68,
      "hit": false,
      "t": 50294.06399999997,
      "d": 579.0434999999998,
      "v": 111
    },
    {
      "midi": 64,
      "hit": false,
      "t": 50298.659583333305,
      "d": 877.7564166666707,
      "v": 119
    },
    {
      "midi": 59,
      "hit": false,
      "t": 50739.835583333304,
      "d": 427.3892500000002,
      "v": 95
    },
    {
      "midi": 56,
      "hit": false,
      "t": 50951.23241666664,
      "d": 280.3305833333434,
      "v": 55
    },
    {
      "midi": 59,
      "hit": false,
      "t": 51171.82041666664,
      "d": 64.33816666667553,
      "v": 109
    },
    {
      "midi": 40,
      "hit": false,
      "t": 51171.82041666664,
      "d": 151.65425000000687,
      "v": 89
    },
    {
      "midi": 64,
      "hit": false,
      "t": 51181.01158333331,
      "d": 114.88958333333721,
      "v": 105
    },
    {
      "midi": 52,
      "hit": false,
      "t": 51181.01158333331,
      "d": 546.8744166666656,
      "v": 97
    },
    {
      "midi": 59,
      "hit": false,
      "t": 51612.99641666665,
      "d": 238.97033333333093,
      "v": 97
    },
    {
      "midi": 52,
      "hit": false,
      "t": 51838.17999999998,
      "d": 877.7564166666634,
      "v": 105
    },
    {
      "midi": 64,
      "hit": false,
      "t": 52054.172416666646,
      "d": 335.4775833333333,
      "v": 121
    },
    {
      "midi": 59,
      "hit": false,
      "t": 52058.76799999998,
      "d": 500.91858333332493,
      "v": 121
    },
    {
      "midi": 40,
      "hit": false,
      "t": 52490.75283333331,
      "d": 427.3892500000002,
      "v": 101
    },
    {
      "midi": 61,
      "hit": false,
      "t": 52931.92883333331,
      "d": 505.51416666666046,
      "v": 101
    },
    {
      "midi": 41,
      "hit": false,
      "t": 52931.92883333331,
      "d": 1075.3664999999964,
      "v": 97
    },
    {
      "midi": 68,
      "hit": false,
      "t": 52941.11999999997,
      "d": 464.15391666666255,
      "v": 93
    },
    {
      "midi": 65,
      "hit": false,
      "t": 52945.71558333331,
      "d": 487.13183333332563,
      "v": 101
    },
    {
      "midi": 56,
      "hit": false,
      "t": 53386.8915833333,
      "d": 514.7053333333388,
      "v": 77
    },
    {
      "midi": 61,
      "hit": false,
      "t": 53814.2808333333,
      "d": 579.0435000000143,
      "v": 101
    },
    {
      "midi": 68,
      "hit": false,
      "t": 53818.87641666664,
      "d": 477.9406666666764,
      "v": 93
    },
    {
      "midi": 65,
      "hit": false,
      "t": 53823.47199999997,
      "d": 404.4113333333371,
      "v": 101
    },
    {
      "midi": 41,
      "hit": false,
      "t": 54260.052416666644,
      "d": 404.4113333333444,
      "v": 101
    },
    {
      "midi": 57,
      "hit": false,
      "t": 54489.83158333332,
      "d": 188.41891666666925,
      "v": 113
    },
    {
      "midi": 61,
      "hit": false,
      "t": 54696.63283333332,
      "d": 546.8744166666729,
      "v": 105
    },
    {
      "midi": 42,
      "hit": false,
      "t": 54701.22841666666,
      "d": 992.6460000000079,
      "v": 109
    },
    {
      "midi": 66,
      "hit": false,
      "t": 54705.82399999999,
      "d": 477.94066666666913,
      "v": 105
    },
    {
      "midi": 57,
      "hit": false,
      "t": 54710.41958333333,
      "d": 326.28641666666954,
      "v": 97
    },
    {
      "midi": 57,
      "hit": false,
      "t": 55137.80883333333,
      "d": 822.6094166666662,
      "v": 101
    },
    {
      "midi": 66,
      "hit": false,
      "t": 55583.580416666664,
      "d": 367.64666666666744,
      "v": 109
    },
    {
      "midi": 61,
      "hit": false,
      "t": 55588.176,
      "d": 399.8157499999943,
      "v": 109
    },
    {
      "midi": 69,
      "hit": false,
      "t": 55588.176,
      "d": 427.3892500000002,
      "v": 102
    },
    {
      "midi": 78,
      "hit": false,
      "t": 55588.176,
      "d": 427.3892500000002,
      "v": 102
    },
    {
      "midi": 44,
      "hit": false,
      "t": 56024.75641666666,
      "d": 179.22775000000547,
      "v": 113
    },
    {
      "midi": 59,
      "hit": false,
      "t": 56029.352,
      "d": 399.8157500000016,
      "v": 87
    },
    {
      "midi": 71,
      "hit": false,
      "t": 56029.352,
      "d": 427.3892500000002,
      "v": 102
    },
    {
      "midi": 80,
      "hit": false,
      "t": 56029.352,
      "d": 427.3892500000002,
      "v": 102
    },
    {
      "midi": 68,
      "hit": false,
      "t": 56033.947583333334,
      "d": 367.64666666666744,
      "v": 109
    },
    {
      "midi": 57,
      "hit": false,
      "t": 56461.33683333333,
      "d": 363.0510833333319,
      "v": 93
    },
    {
      "midi": 45,
      "hit": false,
      "t": 56470.52799999999,
      "d": 1475.182249999998,
      "v": 89
    },
    {
      "midi": 73,
      "hit": false,
      "t": 56470.528,
      "d": 1378.675000000003,
      "v": 102
    },
    {
      "midi": 81,
      "hit": false,
      "t": 56470.528,
      "d": 1378.675000000003,
      "v": 100
    },
    {
      "midi": 69,
      "hit": false,
      "t": 56475.12358333333,
      "d": 482.5362499999974,
      "v": 89
    },
    {
      "midi": 61,
      "hit": false,
      "t": 56475.12358333333,
      "d": 523.8964999999953,
      "v": 85
    },
    {
      "midi": 57,
      "hit": false,
      "t": 56907.108416666655,
      "d": 882.351999999999,
      "v": 85
    },
    {
      "midi": 61,
      "hit": false,
      "t": 57348.284416666655,
      "d": 436.58041666666395,
      "v": 69
    },
    {
      "midi": 66,
      "hit": false,
      "t": 57357.47558333332,
      "d": 459.5583333333343,
      "v": 81
    },
    {
      "midi": 57,
      "hit": false,
      "t": 58226.040833333325,
      "d": 620.4037499999977,
      "v": 105
    },
    {
      "midi": 59,
      "hit": false,
      "t": 58230.63641666666,
      "d": 602.0214166666628,
      "v": 105
    },
    {
      "midi": 64,
      "hit": false,
      "t": 58239.827583333325,
      "d": 569.852333333336,
      "v": 109
    },
    {
      "midi": 64,
      "hit": false,
      "t": 59122.17958333332,
      "d": 399.8157500000016,
      "v": 113
    },
    {
      "midi": 57,
      "hit": false,
      "t": 59122.17958333332,
      "d": 427.3892500000002,
      "v": 97
    },
    {
      "midi": 59,
      "hit": false,
      "t": 59122.17958333332,
      "d": 441.1759999999995,
      "v": 113
    },
    {
      "midi": 57,
      "hit": false,
      "t": 59770.15683333332,
      "d": 133.27191666666477,
      "v": 89
    },
    {
      "midi": 59,
      "hit": false,
      "t": 59990.744833333316,
      "d": 643.381666666668,
      "v": 97
    },
    {
      "midi": 63,
      "hit": false,
      "t": 59995.34041666665,
      "d": 629.5949166666687,
      "v": 97
    },
    {
      "midi": 57,
      "hit": false,
      "t": 59999.93599999999,
      "d": 666.3595833333311,
      "v": 97
    },
    {
      "midi": 63,
      "hit": false,
      "t": 60873.096833333315,
      "d": 818.013833333338,
      "v": 109
    },
    {
      "midi": 59,
      "hit": false,
      "t": 60882.28799999998,
      "d": 758.2712500000052,
      "v": 109
    },
    {
      "midi": 57,
      "hit": false,
      "t": 60886.883583333314,
      "d": 753.6756666666697,
      "v": 101
    },
    {
      "midi": 64,
      "hit": false,
      "t": 61760.04441666665,
      "d": 542.2788333333301,
      "v": 97
    },
    {
      "midi": 68,
      "hit": false,
      "t": 61760.04441666665,
      "d": 546.8744166666656,
      "v": 85
    },
    {
      "midi": 59,
      "hit": false,
      "t": 61764.639999999985,
      "d": 661.7639999999956,
      "v": 93
    },
    {
      "midi": 68,
      "hit": false,
      "t": 62637.80083333331,
      "d": 500.9185833333395,
      "v": 93
    },
    {
      "midi": 59,
      "hit": false,
      "t": 62642.39641666665,
      "d": 624.9993333333332,
      "v": 97
    },
    {
      "midi": 64,
      "hit": false,
      "t": 62646.991999999984,
      "d": 597.4258333333346,
      "v": 93
    },
    {
      "midi": 52,
      "hit": false,
      "t": 63078.97683333332,
      "d": 735.2933333333203,
      "v": 81
    },
    {
      "midi": 64,
      "hit": false,
      "t": 63520.15283333331,
      "d": 436.58041666666395,
      "v": 93
    },
    {
      "midi": 59,
      "hit": false,
      "t": 63529.343999999975,
      "d": 454.9627499999988,
      "v": 97
    },
    {
      "midi": 52,
      "hit": false,
      "t": 63961.32883333331,
      "d": 1158.0869999999995,
      "v": 85
    },
    {
      "midi": 59,
      "hit": false,
      "t": 64402.50483333331,
      "d": 638.7860833333325,
      "v": 97
    },
    {
      "midi": 64,
      "hit": false,
      "t": 64407.100416666646,
      "d": 611.2125833333339,
      "v": 101
    },
    {
      "midi": 57,
      "hit": false,
      "t": 65284.85683333331,
      "d": 399.81575000000885,
      "v": 93
    },
    {
      "midi": 61,
      "hit": false,
      "t": 65284.85683333331,
      "d": 629.5949166666687,
      "v": 89
    },
    {
      "midi": 64,
      "hit": false,
      "t": 65289.452416666645,
      "d": 611.2125833333339,
      "v": 89
    },
    {
      "midi": 57,
      "hit": false,
      "t": 65726.03283333332,
      "d": 266.54383333332953,
      "v": 57
    },
    {
      "midi": 57,
      "hit": false,
      "t": 66167.20883333331,
      "d": 358.4554999999964,
      "v": 93
    },
    {
      "midi": 64,
      "hit": false,
      "t": 66171.80441666664,
      "d": 349.2643333333399,
      "v": 89
    },
    {
      "midi": 61,
      "hit": false,
      "t": 66180.99558333331,
      "d": 363.05108333332464,
      "v": 89
    },
    {
      "midi": 59,
      "hit": false,
      "t": 67049.5608333333,
      "d": 381.43341666666674,
      "v": 81
    },
    {
      "midi": 66,
      "hit": false,
      "t": 67054.15641666662,
      "d": 583.6390833333426,
      "v": 81
    },
    {
      "midi": 63,
      "hit": false,
      "t": 67063.34758333329,
      "d": 744.4845000000059,
      "v": 77
    },
    {
      "midi": 59,
      "hit": false,
      "t": 67504.5235833333,
      "d": 358.4554999999964,
      "v": 41
    },
    {
      "midi": 66,
      "hit": false,
      "t": 67931.91283333329,
      "d": 367.6466666666529,
      "v": 101
    },
    {
      "midi": 59,
      "hit": false,
      "t": 67936.50841666662,
      "d": 376.83783333332394,
      "v": 93
    },
    {
      "midi": 63,
      "hit": false,
      "t": 67941.10399999995,
      "d": 367.64666666666744,
      "v": 97
    },
    {
      "midi": 59,
      "hit": false,
      "t": 68814.26483333328,
      "d": 666.3595833333238,
      "v": 85
    },
    {
      "midi": 64,
      "hit": false,
      "t": 68818.8604166666,
      "d": 602.0214166666701,
      "v": 85
    },
    {
      "midi": 68,
      "hit": false,
      "t": 68823.45599999993,
      "d": 624.9993333333405,
      "v": 73
    },
    {
      "midi": 68,
      "hit": false,
      "t": 69696.61683333326,
      "d": 436.5804166666494,
      "v": 65
    },
    {
      "midi": 64,
      "hit": false,
      "t": 69701.21241666659,
      "d": 459.55833333331975,
      "v": 73
    },
    {
      "midi": 59,
      "hit": false,
      "t": 69705.80799999992,
      "d": 496.3229999999894,
      "v": 69
    },
    {
      "midi": 66,
      "hit": false,
      "t": 71020.14483333325,
      "d": 500.91858333331766,
      "v": 69
    },
    {
      "midi": 64,
      "hit": false,
      "t": 71024.74041666658,
      "d": 519.3009166666598,
      "v": 81
    },
    {
      "midi": 59,
      "hit": false,
      "t": 71029.33599999991,
      "d": 666.3595833333384,
      "v": 73
    },
    {
      "midi": 64,
      "hit": false,
      "t": 72348.26841666659,
      "d": 753.675666666677,
      "v": 125
    },
    {
      "midi": 68,
      "hit": false,
      "t": 72348.26841666659,
      "d": 758.2712500000052,
      "v": 124
    },
    {
      "midi": 59,
      "hit": false,
      "t": 72357.45958333326,
      "d": 804.2270833333314,
      "v": 125
    },
    {
      "midi": 57,
      "hit": false,
      "t": 73455.80399999992,
      "d": 156.24983333332057,
      "v": 115
    },
    {
      "midi": 69,
      "hit": false,
      "t": 73667.20083333323,
      "d": 243.56591666667373,
      "v": 125
    },
    {
      "midi": 61,
      "hit": false,
      "t": 73671.79641666656,
      "d": 215.99241666667513,
      "v": 124
    },
    {
      "midi": 64,
      "hit": false,
      "t": 73671.79641666656,
      "d": 252.75708333334478,
      "v": 126
    },
    {
      "midi": 64,
      "hit": false,
      "t": 74108.37683333324,
      "d": 988.0504166666797,
      "v": 125
    },
    {
      "midi": 59,
      "hit": false,
      "t": 74122.16358333324,
      "d": 965.0725000000093,
      "v": 125
    },
    {
      "midi": 68,
      "hit": false,
      "t": 74122.16358333324,
      "d": 1006.4327500000072,
      "v": 122
    },
    {
      "midi": 68,
      "hit": false,
      "t": 75877.67641666658,
      "d": 758.2712499999907,
      "v": 124
    },
    {
      "midi": 64,
      "hit": false,
      "t": 75882.27199999991,
      "d": 753.6756666666624,
      "v": 125
    },
    {
      "midi": 59,
      "hit": false,
      "t": 75886.86758333324,
      "d": 804.2270833333314,
      "v": 125
    },
    {
      "midi": 57,
      "hit": false,
      "t": 76989.80758333324,
      "d": 156.24983333333512,
      "v": 115
    },
    {
      "midi": 61,
      "hit": false,
      "t": 77196.60883333324,
      "d": 215.99241666666057,
      "v": 124
    },
    {
      "midi": 64,
      "hit": false,
      "t": 77196.60883333324,
      "d": 252.75708333331568,
      "v": 126
    },
    {
      "midi": 69,
      "hit": false,
      "t": 77201.20441666657,
      "d": 243.56591666665918,
      "v": 125
    },
    {
      "midi": 64,
      "hit": false,
      "t": 77642.38041666656,
      "d": 988.0504166666506,
      "v": 125
    },
    {
      "midi": 68,
      "hit": false,
      "t": 77646.9759999999,
      "d": 1006.4327499999927,
      "v": 122
    },
    {
      "midi": 59,
      "hit": false,
      "t": 77651.57158333322,
      "d": 965.0724999999948,
      "v": 125
    },
    {
      "midi": 68,
      "hit": false,
      "t": 79407.08441666655,
      "d": 781.249166666661,
      "v": 121
    },
    {
      "midi": 59,
      "hit": false,
      "t": 79411.67999999988,
      "d": 753.675666666677,
      "v": 123
    },
    {
      "midi": 64,
      "hit": false,
      "t": 79411.67999999988,
      "d": 758.2712500000052,
      "v": 124
    },
    {
      "midi": 68,
      "hit": false,
      "t": 81171.78841666655,
      "d": 923.7122499999969,
      "v": 120
    },
    {
      "midi": 61,
      "hit": false,
      "t": 81171.78841666655,
      "d": 974.2636666666513,
      "v": 121
    },
    {
      "midi": 65,
      "hit": false,
      "t": 81180.97958333322,
      "d": 932.9034166666534,
      "v": 123
    },
    {
      "midi": 66,
      "hit": false,
      "t": 82931.8968333332,
      "d": 666.3595833333384,
      "v": 120
    },
    {
      "midi": 69,
      "hit": false,
      "t": 82941.08799999987,
      "d": 647.9772499999963,
      "v": 120
    },
    {
      "midi": 61,
      "hit": false,
      "t": 82945.6835833332,
      "d": 689.3375000000087,
      "v": 120
    },
    {
      "midi": 61,
      "hit": false,
      "t": 84044.02799999987,
      "d": 202.20566666666127,
      "v": 107
    },
    {
      "midi": 68,
      "hit": false,
      "t": 84255.4248333332,
      "d": 427.3892499999929,
      "v": 120
    },
    {
      "midi": 71,
      "hit": false,
      "t": 84260.02041666654,
      "d": 427.3892499999929,
      "v": 120
    },
    {
      "midi": 69,
      "hit": false,
      "t": 84705.79199999987,
      "d": 1571.6894999999931,
      "v": 119
    },
    {
      "midi": 73,
      "hit": false,
      "t": 84705.79199999987,
      "d": 1599.2629999999917,
      "v": 120
    },
    {
      "midi": 57,
      "hit": false,
      "t": 86465.90041666653,
      "d": 597.4258333333273,
      "v": 109
    },
    {
      "midi": 64,
      "hit": false,
      "t": 86465.90041666653,
      "d": 611.2125833333266,
      "v": 115
    },
    {
      "midi": 61,
      "hit": false,
      "t": 86470.49599999985,
      "d": 588.2346666666708,
      "v": 115
    },
    {
      "midi": 64,
      "hit": false,
      "t": 88226.00883333318,
      "d": 510.10975000000326,
      "v": 117
    },
    {
      "midi": 69,
      "hit": false,
      "t": 88235.19999999985,
      "d": 500.9185833333322,
      "v": 117
    },
    {
      "midi": 73,
      "hit": false,
      "t": 88239.79558333318,
      "d": 487.1318333333329,
      "v": 115
    },
    {
      "midi": 64,
      "hit": false,
      "t": 88901.55958333319,
      "d": 87.31608333333861,
      "v": 95
    },
    {
      "midi": 64,
      "hit": false,
      "t": 89108.3608333332,
      "d": 390.62458333332324,
      "v": 115
    },
    {
      "midi": 73,
      "hit": false,
      "t": 89117.55199999987,
      "d": 312.4996666666557,
      "v": 115
    },
    {
      "midi": 69,
      "hit": false,
      "t": 89122.1475833332,
      "d": 330.8819999999978,
      "v": 119
    },
    {
      "midi": 59,
      "hit": false,
      "t": 89995.3084166665,
      "d": 689.3375000000087,
      "v": 119
    },
    {
      "midi": 56,
      "hit": false,
      "t": 89999.90399999983,
      "d": 569.8523333333433,
      "v": 113
    },
    {
      "midi": 64,
      "hit": false,
      "t": 89999.90399999983,
      "d": 675.5507500000094,
      "v": 119
    },
    {
      "midi": 88,
      "hit": false,
      "t": 91544.01999999984,
      "d": 147.05866666666407,
      "v": 123
    },
    {
      "midi": 83,
      "hit": false,
      "t": 91548.61558333317,
      "d": 133.27191666666477,
      "v": 123
    },
    {
      "midi": 80,
      "hit": false,
      "t": 91548.61558333317,
      "d": 142.46308333333582,
      "v": 123
    },
    {
      "midi": 88,
      "hit": false,
      "t": 91755.41683333318,
      "d": 1102.9399999999878,
      "v": 119
    },
    {
      "midi": 80,
      "hit": false,
      "t": 91755.41683333318,
      "d": 1121.3223333333153,
      "v": 115
    },
    {
      "midi": 83,
      "hit": false,
      "t": 91764.60799999985,
      "d": 1130.5134999999718,
      "v": 121
    },
    {
      "midi": 64,
      "hit": false,
      "t": 92637.76883333318,
      "d": 496.32299999997485,
      "v": 122
    },
    {
      "midi": 59,
      "hit": false,
      "t": 92642.3644166665,
      "d": 477.9406666666473,
      "v": 126
    },
    {
      "midi": 47,
      "hit": false,
      "t": 93520.12083333315,
      "d": 1006.4327500000072,
      "v": 110
    },
    {
      "midi": 64,
      "hit": false,
      "t": 93529.31199999982,
      "d": 1286.763333333336,
      "v": 127
    },
    {
      "midi": 59,
      "hit": false,
      "t": 93529.31199999982,
      "d": 1300.5500833333354,
      "v": 127
    },
    {
      "midi": 47,
      "hit": false,
      "t": 94843.64883333315,
      "d": 758.2712500000052,
      "v": 110
    },
    {
      "midi": 59,
      "hit": false,
      "t": 95289.42041666649,
      "d": 657.1684166666528,
      "v": 122
    },
    {
      "midi": 64,
      "hit": false,
      "t": 95298.61158333316,
      "d": 537.6832499999873,
      "v": 122
    },
    {
      "midi": 47,
      "hit": false,
      "t": 95726.00083333315,
      "d": 528.4920833333163,
      "v": 86
    },
    {
      "midi": 64,
      "hit": false,
      "t": 96171.77241666647,
      "d": 487.1318333333329,
      "v": 114
    },
    {
      "midi": 59,
      "hit": false,
      "t": 96171.77241666647,
      "d": 652.5728333333391,
      "v": 106
    },
    {
      "midi": 47,
      "hit": false,
      "t": 96608.35283333313,
      "d": 271.13941666667233,
      "v": 73
    },
    {
      "midi": 64,
      "hit": false,
      "t": 100578.93683333314,
      "d": 450.3671666666778,
      "v": 100
    },
    {
      "midi": 59,
      "hit": false,
      "t": 100578.93683333314,
      "d": 579.0435000000143,
      "v": 98
    },
    {
      "midi": 40,
      "hit": false,
      "t": 100578.93683333314,
      "d": 3515.621249999982,
      "v": 94
    },
    {
      "midi": 52,
      "hit": false,
      "t": 100588.12799999981,
      "d": 689.3375000000087,
      "v": 94
    },
    {
      "midi": 56,
      "hit": false,
      "t": 101020.11283333314,
      "d": 781.2491666666756,
      "v": 74
    },
    {
      "midi": 59,
      "hit": false,
      "t": 101470.47999999982,
      "d": 464.15391666666255,
      "v": 100
    },
    {
      "midi": 64,
      "hit": false,
      "t": 101475.07558333315,
      "d": 367.64666666666744,
      "v": 98
    },
    {
      "midi": 56,
      "hit": false,
      "t": 101916.25158333316,
      "d": 666.3595833333238,
      "v": 80
    },
    {
      "midi": 59,
      "hit": false,
      "t": 102343.64083333315,
      "d": 749.0800833333196,
      "v": 100
    },
    {
      "midi": 64,
      "hit": false,
      "t": 102357.42758333315,
      "d": 468.7494999999908,
      "v": 96
    },
    {
      "midi": 56,
      "hit": false,
      "t": 102784.81683333314,
      "d": 707.7198333333217,
      "v": 82
    },
    {
      "midi": 64,
      "hit": false,
      "t": 103225.99283333313,
      "d": 468.7494999999908,
      "v": 98
    },
    {
      "midi": 59,
      "hit": false,
      "t": 103225.99283333313,
      "d": 643.3816666666535,
      "v": 100
    },
    {
      "midi": 52,
      "hit": false,
      "t": 103680.95558333313,
      "d": 427.3892499999929,
      "v": 72
    },
    {
      "midi": 59,
      "hit": false,
      "t": 104108.34483333312,
      "d": 404.4113333333371,
      "v": 95
    },
    {
      "midi": 51,
      "hit": false,
      "t": 104117.53599999979,
      "d": 1061.5797500000044,
      "v": 75
    },
    {
      "midi": 66,
      "hit": false,
      "t": 104122.13158333312,
      "d": 491.7274166666757,
      "v": 95
    },
    {
      "midi": 59,
      "hit": false,
      "t": 104549.52083333312,
      "d": 137.86750000000757,
      "v": 27
    },
    {
      "midi": 66,
      "hit": false,
      "t": 104990.69683333313,
      "d": 409.00691666666535,
      "v": 103
    },
    {
      "midi": 59,
      "hit": false,
      "t": 104990.69683333313,
      "d": 413.6024999999936,
      "v": 99
    },
    {
      "midi": 51,
      "hit": false,
      "t": 105441.0639999998,
      "d": 1001.8371666666644,
      "v": 81
    },
    {
      "midi": 59,
      "hit": false,
      "t": 105657.05641666646,
      "d": 128.67633333333652,
      "v": 79
    },
    {
      "midi": 66,
      "hit": false,
      "t": 105882.23999999979,
      "d": 422.79366666666465,
      "v": 119
    },
    {
      "midi": 71,
      "hit": false,
      "t": 105882.23999999979,
      "d": 670.9551666666666,
      "v": 119
    },
    {
      "midi": 59,
      "hit": false,
      "t": 106328.01158333312,
      "d": 238.97033333333093,
      "v": 99
    },
    {
      "midi": 66,
      "hit": false,
      "t": 106755.40083333311,
      "d": 546.8744166666584,
      "v": 79
    },
    {
      "midi": 59,
      "hit": false,
      "t": 106759.99641666644,
      "d": 505.51416666666046,
      "v": 75
    },
    {
      "midi": 51,
      "hit": false,
      "t": 107196.5768333331,
      "d": 303.3084999999992,
      "v": 84
    },
    {
      "midi": 42,
      "hit": false,
      "t": 107642.34841666643,
      "d": 1056.9841666666762,
      "v": 107
    },
    {
      "midi": 61,
      "hit": false,
      "t": 107651.5395833331,
      "d": 569.8523333333287,
      "v": 105
    },
    {
      "midi": 57,
      "hit": false,
      "t": 107651.5395833331,
      "d": 611.2125833333266,
      "v": 101
    },
    {
      "midi": 57,
      "hit": false,
      "t": 108520.1048333331,
      "d": 537.6832500000164,
      "v": 95
    },
    {
      "midi": 61,
      "hit": false,
      "t": 108533.8915833331,
      "d": 514.7053333333461,
      "v": 107
    },
    {
      "midi": 42,
      "hit": false,
      "t": 108961.2808333331,
      "d": 179.22775000000547,
      "v": 98
    },
    {
      "midi": 45,
      "hit": false,
      "t": 109181.86883333311,
      "d": 257.35266666667303,
      "v": 101
    },
    {
      "midi": 57,
      "hit": false,
      "t": 109402.45683333311,
      "d": 284.92616666667163,
      "v": 103
    },
    {
      "midi": 64,
      "hit": false,
      "t": 109402.45683333311,
      "d": 556.0655833333294,
      "v": 111
    },
    {
      "midi": 61,
      "hit": false,
      "t": 109402.45683333311,
      "d": 735.2933333333203,
      "v": 107
    },
    {
      "midi": 47,
      "hit": false,
      "t": 109416.24358333311,
      "d": 514.7053333333315,
      "v": 99
    },
    {
      "midi": 57,
      "hit": false,
      "t": 109852.82399999977,
      "d": 215.99241666666057,
      "v": 111
    },
    {
      "midi": 47,
      "hit": false,
      "t": 110068.81641666644,
      "d": 1116.726749999987,
      "v": 99
    },
    {
      "midi": 63,
      "hit": false,
      "t": 110284.8088333331,
      "d": 749.0800833333342,
      "v": 99
    },
    {
      "midi": 59,
      "hit": false,
      "t": 110289.40441666642,
      "d": 716.9110000000073,
      "v": 99
    },
    {
      "midi": 57,
      "hit": false,
      "t": 110293.99999999975,
      "d": 294.1173333333427,
      "v": 95
    },
    {
      "midi": 57,
      "hit": false,
      "t": 110730.58041666643,
      "d": 390.6245833333378,
      "v": 87
    },
    {
      "midi": 64,
      "hit": false,
      "t": 111167.1608333331,
      "d": 450.36716666666325,
      "v": 95
    },
    {
      "midi": 59,
      "hit": false,
      "t": 111176.35199999977,
      "d": 519.3009166666598,
      "v": 103
    },
    {
      "midi": 40,
      "hit": false,
      "t": 111180.9475833331,
      "d": 3382.3493333333317,
      "v": 79
    },
    {
      "midi": 56,
      "hit": false,
      "t": 111617.52799999976,
      "d": 137.86750000000757,
      "v": 71
    },
    {
      "midi": 52,
      "hit": false,
      "t": 111842.7115833331,
      "d": 376.8378333333385,
      "v": 91
    },
    {
      "midi": 68,
      "hit": false,
      "t": 112054.10841666644,
      "d": 317.09525000001304,
      "v": 109
    },
    {
      "midi": 64,
      "hit": false,
      "t": 112058.704,
      "d": 473.3450833333336,
      "v": 98
    },
    {
      "midi": 76,
      "hit": false,
      "t": 112058.704,
      "d": 473.3450833333336,
      "v": 89
    },
    {
      "midi": 64,
      "hit": false,
      "t": 112063.29958333311,
      "d": 307.904083333342,
      "v": 115
    },
    {
      "midi": 69,
      "hit": false,
      "t": 112490.68883333312,
      "d": 376.83783333332394,
      "v": 115
    },
    {
      "midi": 64,
      "hit": false,
      "t": 112495.28441666644,
      "d": 280.33058333332883,
      "v": 115
    },
    {
      "midi": 78,
      "hit": false,
      "t": 112499.88,
      "d": 473.34508333331905,
      "v": 86
    },
    {
      "midi": 66,
      "hit": false,
      "t": 112499.88,
      "d": 505.5141666666459,
      "v": 97
    },
    {
      "midi": 52,
      "hit": false,
      "t": 112720.46799999978,
      "d": 721.506583333321,
      "v": 91
    },
    {
      "midi": 64,
      "hit": false,
      "t": 112936.46041666644,
      "d": 703.1242499999935,
      "v": 115
    },
    {
      "midi": 68,
      "hit": false,
      "t": 112941.056,
      "d": 1704.961416666658,
      "v": 94
    },
    {
      "midi": 80,
      "hit": false,
      "t": 112941.056,
      "d": 1704.961416666658,
      "v": 84
    },
    {
      "midi": 71,
      "hit": false,
      "t": 112945.6515833331,
      "d": 781.249166666661,
      "v": 108
    },
    {
      "midi": 56,
      "hit": false,
      "t": 113373.0408333331,
      "d": 514.7053333333315,
      "v": 91
    },
    {
      "midi": 52,
      "hit": false,
      "t": 113602.81999999976,
      "d": 882.351999999999,
      "v": 91
    },
    {
      "midi": 59,
      "hit": false,
      "t": 113818.81241666643,
      "d": 537.6832499999873,
      "v": 95
    },
    {
      "midi": 64,
      "hit": false,
      "t": 113828.00358333309,
      "d": 528.4920833333308,
      "v": 95
    },
    {
      "midi": 47,
      "hit": false,
      "t": 114259.98841666643,
      "d": 312.49966666667024,
      "v": 83
    },
    {
      "midi": 59,
      "hit": false,
      "t": 114696.56883333309,
      "d": 326.286416666655,
      "v": 103
    },
    {
      "midi": 68,
      "hit": false,
      "t": 114696.56883333309,
      "d": 330.88199999998324,
      "v": 99
    },
    {
      "midi": 50,
      "hit": false,
      "t": 114696.56883333309,
      "d": 3423.7095833333005,
      "v": 95
    },
    {
      "midi": 64,
      "hit": false,
      "t": 114710.35558333309,
      "d": 335.4775833333115,
      "v": 119
    },
    {
      "midi": 59,
      "hit": false,
      "t": 115137.74483333307,
      "d": 91.91166666666686,
      "v": 59
    },
    {
      "midi": 59,
      "hit": false,
      "t": 115367.52399999973,
      "d": 91.91166666666686,
      "v": 75
    },
    {
      "midi": 68,
      "hit": false,
      "t": 115578.92083333306,
      "d": 335.4775833333406,
      "v": 95
    },
    {
      "midi": 64,
      "hit": false,
      "t": 115588.11199999973,
      "d": 390.6245833333378,
      "v": 111
    },
    {
      "midi": 59,
      "hit": false,
      "t": 116020.09683333307,
      "d": 335.4775833333406,
      "v": 95
    },
    {
      "midi": 71,
      "hit": false,
      "t": 116470.46399999975,
      "d": 464.15391666666255,
      "v": 111
    },
    {
      "midi": 68,
      "hit": false,
      "t": 116475.05958333307,
      "d": 468.74950000000536,
      "v": 99
    },
    {
      "midi": 59,
      "hit": false,
      "t": 116916.23558333308,
      "d": 119.48516666666546,
      "v": 87
    },
    {
      "midi": 64,
      "hit": false,
      "t": 117343.62483333307,
      "d": 638.7860833333252,
      "v": 103
    },
    {
      "midi": 68,
      "hit": false,
      "t": 117357.41158333307,
      "d": 661.763999999981,
      "v": 91
    },
    {
      "midi": 59,
      "hit": false,
      "t": 117793.99199999974,
      "d": 193.01449999999022,
      "v": 75
    },
    {
      "midi": 61,
      "hit": false,
      "t": 118225.97683333306,
      "d": 624.9993333333405,
      "v": 107
    },
    {
      "midi": 49,
      "hit": false,
      "t": 118225.97683333306,
      "d": 3501.834499999997,
      "v": 67
    },
    {
      "midi": 57,
      "hit": false,
      "t": 118235.16799999973,
      "d": 698.5286666666652,
      "v": 111
    },
    {
      "midi": 52,
      "hit": false,
      "t": 118671.74841666639,
      "d": 303.3084999999992,
      "v": 59
    },
    {
      "midi": 57,
      "hit": false,
      "t": 119108.32883333306,
      "d": 473.3450833333336,
      "v": 103
    },
    {
      "midi": 61,
      "hit": false,
      "t": 119122.11558333306,
      "d": 413.6024999999936,
      "v": 103
    },
    {
      "midi": 52,
      "hit": false,
      "t": 119558.69599999972,
      "d": 170.03658333333442,
      "v": 83
    },
    {
      "midi": 61,
      "hit": false,
      "t": 119995.27641666638,
      "d": 427.3892499999929,
      "v": 119
    },
    {
      "midi": 57,
      "hit": false,
      "t": 119995.27641666638,
      "d": 500.9185833333322,
      "v": 119
    },
    {
      "midi": 52,
      "hit": false,
      "t": 120445.64358333305,
      "d": 197.61008333333302,
      "v": 83
    },
    {
      "midi": 57,
      "hit": false,
      "t": 120886.81958333305,
      "d": 850.1829166666721,
      "v": 79
    },
    {
      "midi": 61,
      "hit": false,
      "t": 120886.81958333305,
      "d": 854.7785000000003,
      "v": 83
    },
    {
      "midi": 52,
      "hit": false,
      "t": 121314.20883333305,
      "d": 404.4113333333371,
      "v": 63
    },
    {
      "midi": 66,
      "hit": false,
      "t": 121759.98041666638,
      "d": 431.98483333332115,
      "v": 95
    },
    {
      "midi": 61,
      "hit": false,
      "t": 121759.98041666638,
      "d": 537.6832499999873,
      "v": 99
    },
    {
      "midi": 57,
      "hit": false,
      "t": 121764.57599999971,
      "d": 335.47758333332604,
      "v": 87
    },
    {
      "midi": 42,
      "hit": false,
      "t": 121764.57599999971,
      "d": 795.0359166666603,
      "v": 87
    },
    {
      "midi": 57,
      "hit": false,
      "t": 122205.7519999997,
      "d": 197.61008333333302,
      "v": 71
    },
    {
      "midi": 57,
      "hit": false,
      "t": 122637.73683333304,
      "d": 510.10975000000326,
      "v": 75
    },
    {
      "midi": 66,
      "hit": false,
      "t": 122646.92799999971,
      "d": 431.98483333332115,
      "v": 71
    },
    {
      "midi": 61,
      "hit": false,
      "t": 122651.52358333304,
      "d": 487.1318333333329,
      "v": 79
    },
    {
      "midi": 42,
      "hit": false,
      "t": 123088.1039999997,
      "d": 197.61008333333302,
      "v": 95
    },
    {
      "midi": 44,
      "hit": false,
      "t": 123313.28758333303,
      "d": 206.80124999998952,
      "v": 79
    },
    {
      "midi": 64,
      "hit": false,
      "t": 123520.08883333302,
      "d": 542.2788333333301,
      "v": 79
    },
    {
      "midi": 61,
      "hit": false,
      "t": 123520.08883333302,
      "d": 716.9109999999928,
      "v": 71
    },
    {
      "midi": 57,
      "hit": false,
      "t": 123533.87558333302,
      "d": 330.8819999999978,
      "v": 71
    },
    {
      "midi": 45,
      "hit": false,
      "t": 123533.87558333302,
      "d": 1084.5576666666602,
      "v": 75
    },
    {
      "midi": 57,
      "hit": false,
      "t": 123975.05158333301,
      "d": 271.13941666667233,
      "v": 63
    },
    {
      "midi": 57,
      "hit": false,
      "t": 124402.44083333302,
      "d": 450.3671666666487,
      "v": 91
    },
    {
      "midi": 64,
      "hit": false,
      "t": 124407.03641666635,
      "d": 367.64666666666744,
      "v": 91
    },
    {
      "midi": 61,
      "hit": false,
      "t": 124407.03641666635,
      "d": 395.22016666666605,
      "v": 99
    },
    {
      "midi": 45,
      "hit": false,
      "t": 124848.21241666634,
      "d": 459.55833333331975,
      "v": 87
    },
    {
      "midi": 57,
      "hit": false,
      "t": 125068.80041666633,
      "d": 147.05866666666407,
      "v": 67
    },
    {
      "midi": 57,
      "hit": false,
      "t": 125289.38841666633,
      "d": 358.45549999998184,
      "v": 83
    },
    {
      "midi": 47,
      "hit": false,
      "t": 125289.38841666633,
      "d": 1121.3223333333008,
      "v": 79
    },
    {
      "midi": 64,
      "hit": false,
      "t": 125293.98399999966,
      "d": 537.6832499999873,
      "v": 87
    },
    {
      "midi": 59,
      "hit": false,
      "t": 125298.57958333299,
      "d": 611.2125833333266,
      "v": 91
    },
    {
      "midi": 57,
      "hit": false,
      "t": 125725.96883333298,
      "d": 257.35266666667303,
      "v": 67
    },
    {
      "midi": 64,
      "hit": false,
      "t": 126171.74041666632,
      "d": 496.32299999997485,
      "v": 83
    },
    {
      "midi": 57,
      "hit": false,
      "t": 126176.33599999965,
      "d": 500.91858333331766,
      "v": 79
    },
    {
      "midi": 59,
      "hit": false,
      "t": 126180.93158333297,
      "d": 537.6832499999873,
      "v": 87
    },
    {
      "midi": 47,
      "hit": false,
      "t": 126622.10758333297,
      "d": 294.11733333332813,
      "v": 71
    },
    {
      "midi": 63,
      "hit": false,
      "t": 127049.49683333296,
      "d": 1034.0062499999913,
      "v": 67
    },
    {
      "midi": 47,
      "hit": false,
      "t": 127049.49683333296,
      "d": 1043.1974166666478,
      "v": 51
    },
    {
      "midi": 57,
      "hit": false,
      "t": 127054.09241666629,
      "d": 1034.0062499999913,
      "v": 67
    },
    {
      "midi": 59,
      "hit": false,
      "t": 127063.28358333296,
      "d": 1034.0062499999767,
      "v": 63
    },
    {
      "midi": 40,
      "hit": false,
      "t": 130588.0959999996,
      "d": 3166.3569166666275,
      "v": 91
    },
    {
      "midi": 64,
      "hit": false,
      "t": 130592.69158333293,
      "d": 556.065583333344,
      "v": 103
    },
    {
      "midi": 59,
      "hit": false,
      "t": 130592.69158333293,
      "d": 579.0434999999998,
      "v": 107
    },
    {
      "midi": 56,
      "hit": false,
      "t": 131024.67641666626,
      "d": 431.9848333333357,
      "v": 51
    },
    {
      "midi": 59,
      "hit": false,
      "t": 131470.4479999996,
      "d": 482.53625000003376,
      "v": 99
    },
    {
      "midi": 64,
      "hit": false,
      "t": 131475.04358333294,
      "d": 431.98483333335025,
      "v": 95
    },
    {
      "midi": 56,
      "hit": false,
      "t": 131902.43283333295,
      "d": 510.10975000000326,
      "v": 75
    },
    {
      "midi": 64,
      "hit": false,
      "t": 132348.2044166663,
      "d": 477.94066666663275,
      "v": 75
    },
    {
      "midi": 59,
      "hit": false,
      "t": 132348.2044166663,
      "d": 579.0434999999707,
      "v": 83
    },
    {
      "midi": 56,
      "hit": false,
      "t": 132789.38041666627,
      "d": 496.32299999997485,
      "v": 59
    },
    {
      "midi": 47,
      "hit": false,
      "t": 133019.15958333292,
      "d": 698.5286666666507,
      "v": 83
    },
    {
      "midi": 64,
      "hit": false,
      "t": 133230.55641666625,
      "d": 450.36716666666325,
      "v": 91
    },
    {
      "midi": 59,
      "hit": false,
      "t": 133239.7475833329,
      "d": 537.6832499999728,
      "v": 99
    },
    {
      "midi": 56,
      "hit": false,
      "t": 133667.13683333292,
      "d": 211.39683333330322,
      "v": 95
    },
    {
      "midi": 47,
      "hit": false,
      "t": 133901.51158333287,
      "d": 160.84541666667792,
      "v": 83
    },
    {
      "midi": 64,
      "hit": false,
      "t": 134108.3128333329,
      "d": 459.55833333334886,
      "v": 115
    },
    {
      "midi": 59,
      "hit": false,
      "t": 134108.3128333329,
      "d": 496.32300000000396,
      "v": 115
    },
    {
      "midi": 56,
      "hit": false,
      "t": 134122.0995833329,
      "d": 234.37474999998813,
      "v": 87
    },
    {
      "midi": 52,
      "hit": false,
      "t": 134122.0995833329,
      "d": 579.0434999999998,
      "v": 95
    },
    {
      "midi": 40,
      "hit": false,
      "t": 134122.0995833329,
      "d": 3515.6212499999965,
      "v": 95
    },
    {
      "midi": 56,
      "hit": false,
      "t": 134563.2755833329,
      "d": 487.13183333331835,
      "v": 103
    },
    {
      "midi": 52,
      "hit": false,
      "t": 134774.67241666623,
      "d": 735.2933333333058,
      "v": 83
    },
    {
      "midi": 59,
      "hit": false,
      "t": 134990.6648333329,
      "d": 556.0655833332858,
      "v": 99
    },
    {
      "midi": 64,
      "hit": false,
      "t": 134999.85599999956,
      "d": 519.3009166666307,
      "v": 95
    },
    {
      "midi": 56,
      "hit": false,
      "t": 135441.03199999954,
      "d": 514.705333333317,
      "v": 83
    },
    {
      "midi": 52,
      "hit": false,
      "t": 135657.0244166662,
      "d": 767.4624166666763,
      "v": 83
    },
    {
      "midi": 64,
      "hit": false,
      "t": 135886.80358333286,
      "d": 436.58041666666395,
      "v": 87
    },
    {
      "midi": 59,
      "hit": false,
      "t": 135886.80358333286,
      "d": 487.13183333334746,
      "v": 87
    },
    {
      "midi": 56,
      "hit": false,
      "t": 136327.97958333287,
      "d": 473.34508333334816,
      "v": 79
    },
    {
      "midi": 52,
      "hit": false,
      "t": 136543.97199999954,
      "d": 795.0359166666749,
      "v": 91
    },
    {
      "midi": 64,
      "hit": false,
      "t": 136759.96441666622,
      "d": 873.1608333333279,
      "v": 119
    },
    {
      "midi": 68,
      "hit": false,
      "t": 136769.15558333287,
      "d": 579.0434999999998,
      "v": 111
    },
    {
      "midi": 59,
      "hit": false,
      "t": 137196.54483333288,
      "d": 441.17600000000675,
      "v": 95
    },
    {
      "midi": 56,
      "hit": false,
      "t": 137430.91958333287,
      "d": 280.33058333338704,
      "v": 55
    },
    {
      "midi": 64,
      "hit": false,
      "t": 137637.7208333329,
      "d": 114.88958333336632,
      "v": 105
    },
    {
      "midi": 59,
      "hit": false,
      "t": 137642.31641666623,
      "d": 64.33816666668281,
      "v": 109
    },
    {
      "midi": 40,
      "hit": false,
      "t": 137642.31641666623,
      "d": 151.65425000002142,
      "v": 89
    },
    {
      "midi": 52,
      "hit": false,
      "t": 137646.91199999957,
      "d": 546.8744166666584,
      "v": 97
    },
    {
      "midi": 59,
      "hit": false,
      "t": 138083.49241666624,
      "d": 238.97033333333093,
      "v": 97
    },
    {
      "midi": 52,
      "hit": false,
      "t": 138299.4848333329,
      "d": 877.7564166666416,
      "v": 105
    },
    {
      "midi": 64,
      "hit": false,
      "t": 138533.8595833329,
      "d": 335.47758333332604,
      "v": 121
    },
    {
      "midi": 59,
      "hit": false,
      "t": 138533.8595833329,
      "d": 500.91858333331766,
      "v": 121
    },
    {
      "midi": 40,
      "hit": false,
      "t": 138970.43999999957,
      "d": 427.38924999997835,
      "v": 101
    },
    {
      "midi": 65,
      "hit": false,
      "t": 139402.4248333329,
      "d": 487.13183333337656,
      "v": 101
    },
    {
      "midi": 68,
      "hit": false,
      "t": 139407.02041666623,
      "d": 464.15391666669166,
      "v": 93
    },
    {
      "midi": 41,
      "hit": false,
      "t": 139411.61599999957,
      "d": 1075.366500000062,
      "v": 97
    },
    {
      "midi": 61,
      "hit": false,
      "t": 139416.21158333292,
      "d": 505.51416666668956,
      "v": 101
    },
    {
      "midi": 56,
      "hit": false,
      "t": 139857.38758333292,
      "d": 514.7053333333752,
      "v": 77
    },
    {
      "midi": 68,
      "hit": false,
      "t": 140289.37241666627,
      "d": 477.94066666672006,
      "v": 93
    },
    {
      "midi": 61,
      "hit": false,
      "t": 140293.96799999962,
      "d": 579.043500000058,
      "v": 101
    },
    {
      "midi": 65,
      "hit": false,
      "t": 140298.56358333296,
      "d": 404.41133333335165,
      "v": 101
    },
    {
      "midi": 41,
      "hit": false,
      "t": 140735.14399999965,
      "d": 404.41133333335165,
      "v": 101
    },
    {
      "midi": 57,
      "hit": false,
      "t": 140960.327583333,
      "d": 188.41891666664742,
      "v": 113
    },
    {
      "midi": 57,
      "hit": false,
      "t": 141167.128833333,
      "d": 326.28641666666954,
      "v": 97
    },
    {
      "midi": 66,
      "hit": false,
      "t": 141167.128833333,
      "d": 477.94066666669096,
      "v": 105
    },
    {
      "midi": 61,
      "hit": false,
      "t": 141167.128833333,
      "d": 546.8744166666875,
      "v": 105
    },
    {
      "midi": 42,
      "hit": false,
      "t": 141171.72441666634,
      "d": 992.646000000037,
      "v": 109
    },
    {
      "midi": 57,
      "hit": false,
      "t": 141612.90041666635,
      "d": 822.6094166667026,
      "v": 101
    },
    {
      "midi": 66,
      "hit": false,
      "t": 142054.07641666636,
      "d": 367.64666666669655,
      "v": 109
    },
    {
      "midi": 61,
      "hit": false,
      "t": 142058.6719999997,
      "d": 399.81575000000885,
      "v": 109
    },
    {
      "midi": 69,
      "hit": false,
      "t": 142058.672,
      "d": 427.38925000000745,
      "v": 102
    },
    {
      "midi": 78,
      "hit": false,
      "t": 142058.672,
      "d": 427.38925000000745,
      "v": 102
    },
    {
      "midi": 68,
      "hit": false,
      "t": 142490.65683333305,
      "d": 367.64666666666744,
      "v": 109
    },
    {
      "midi": 59,
      "hit": false,
      "t": 142490.65683333305,
      "d": 399.81575000000885,
      "v": 87
    },
    {
      "midi": 71,
      "hit": false,
      "t": 142499.848,
      "d": 427.38925000000745,
      "v": 102
    },
    {
      "midi": 80,
      "hit": false,
      "t": 142499.848,
      "d": 427.38925000000745,
      "v": 102
    },
    {
      "midi": 44,
      "hit": false,
      "t": 142504.44358333305,
      "d": 179.22774999999092,
      "v": 113
    },
    {
      "midi": 61,
      "hit": false,
      "t": 142931.83283333306,
      "d": 523.8965000000026,
      "v": 85
    },
    {
      "midi": 45,
      "hit": false,
      "t": 142931.83283333306,
      "d": 1475.1822500000126,
      "v": 89
    },
    {
      "midi": 69,
      "hit": false,
      "t": 142936.4284166664,
      "d": 482.53625000000466,
      "v": 89
    },
    {
      "midi": 57,
      "hit": false,
      "t": 142941.02399999974,
      "d": 363.05108333332464,
      "v": 93
    },
    {
      "midi": 73,
      "hit": false,
      "t": 142941.024,
      "d": 1378.6749999999884,
      "v": 102
    },
    {
      "midi": 81,
      "hit": false,
      "t": 142941.024,
      "d": 1378.6749999999884,
      "v": 100
    },
    {
      "midi": 57,
      "hit": false,
      "t": 143373.00883333306,
      "d": 882.3520000000135,
      "v": 85
    },
    {
      "midi": 61,
      "hit": false,
      "t": 143827.97158333307,
      "d": 436.58041666666395,
      "v": 69
    },
    {
      "midi": 66,
      "hit": false,
      "t": 143827.97158333307,
      "d": 459.55833333331975,
      "v": 81
    },
    {
      "midi": 57,
      "hit": false,
      "t": 144696.53683333308,
      "d": 620.4037500000268,
      "v": 105
    },
    {
      "midi": 64,
      "hit": false,
      "t": 144710.32358333308,
      "d": 569.8523333333433,
      "v": 109
    },
    {
      "midi": 59,
      "hit": false,
      "t": 144710.32358333308,
      "d": 602.0214166666847,
      "v": 105
    },
    {
      "midi": 64,
      "hit": false,
      "t": 145578.8888333331,
      "d": 399.81575000000885,
      "v": 113
    },
    {
      "midi": 57,
      "hit": false,
      "t": 145578.8888333331,
      "d": 427.38925000000745,
      "v": 97
    },
    {
      "midi": 59,
      "hit": false,
      "t": 145578.8888333331,
      "d": 441.17600000000675,
      "v": 113
    },
    {
      "midi": 57,
      "hit": false,
      "t": 146254.4395833331,
      "d": 133.27191666667932,
      "v": 89
    },
    {
      "midi": 63,
      "hit": false,
      "t": 146461.2408333331,
      "d": 629.5949166666833,
      "v": 97
    },
    {
      "midi": 59,
      "hit": false,
      "t": 146475.0275833331,
      "d": 643.3816666666826,
      "v": 97
    },
    {
      "midi": 57,
      "hit": false,
      "t": 146475.0275833331,
      "d": 666.3595833333384,
      "v": 97
    },
    {
      "midi": 59,
      "hit": false,
      "t": 147352.78399999978,
      "d": 758.2712500000198,
      "v": 109
    },
    {
      "midi": 63,
      "hit": false,
      "t": 147352.78399999978,
      "d": 818.0138333333598,
      "v": 109
    },
    {
      "midi": 57,
      "hit": false,
      "t": 147357.37958333312,
      "d": 753.675666666677,
      "v": 101
    },
    {
      "midi": 68,
      "hit": false,
      "t": 148230.54041666648,
      "d": 546.8744166666875,
      "v": 85
    },
    {
      "midi": 59,
      "hit": false,
      "t": 148235.13599999982,
      "d": 661.7640000000247,
      "v": 93
    },
    {
      "midi": 64,
      "hit": false,
      "t": 148239.73158333317,
      "d": 542.2788333333447,
      "v": 97
    },
    {
      "midi": 64,
      "hit": false,
      "t": 149117.48799999984,
      "d": 597.4258333333419,
      "v": 93
    },
    {
      "midi": 59,
      "hit": false,
      "t": 149117.48799999984,
      "d": 624.9993333333405,
      "v": 97
    },
    {
      "midi": 68,
      "hit": false,
      "t": 149122.08358333318,
      "d": 500.91858333334676,
      "v": 93
    },
    {
      "midi": 52,
      "hit": false,
      "t": 149549.4728333332,
      "d": 735.2933333333349,
      "v": 81
    },
    {
      "midi": 64,
      "hit": false,
      "t": 149990.64883333317,
      "d": 436.58041666669305,
      "v": 93
    },
    {
      "midi": 59,
      "hit": false,
      "t": 149995.2444166665,
      "d": 454.96275000000605,
      "v": 97
    },
    {
      "midi": 52,
      "hit": false,
      "t": 150436.42041666651,
      "d": 1158.0869999999995,
      "v": 85
    },
    {
      "midi": 59,
      "hit": false,
      "t": 150882.19199999984,
      "d": 638.7860833333398,
      "v": 97
    },
    {
      "midi": 64,
      "hit": false,
      "t": 150886.78758333318,
      "d": 611.2125833333412,
      "v": 101
    },
    {
      "midi": 57,
      "hit": false,
      "t": 151764.54399999985,
      "d": 399.81575000000885,
      "v": 93
    },
    {
      "midi": 64,
      "hit": false,
      "t": 151769.1395833332,
      "d": 611.2125833333412,
      "v": 89
    },
    {
      "midi": 61,
      "hit": false,
      "t": 151769.1395833332,
      "d": 629.5949166666833,
      "v": 89
    },
    {
      "midi": 57,
      "hit": false,
      "t": 152210.3155833332,
      "d": 266.54383333332953,
      "v": 57
    },
    {
      "midi": 61,
      "hit": false,
      "t": 152637.7048333332,
      "d": 363.05108333332464,
      "v": 89
    },
    {
      "midi": 57,
      "hit": false,
      "t": 152646.89599999986,
      "d": 358.45550000001094,
      "v": 93
    },
    {
      "midi": 64,
      "hit": false,
      "t": 152651.4915833332,
      "d": 349.26433333332534,
      "v": 89
    },
    {
      "midi": 59,
      "hit": false,
      "t": 153520.05683333322,
      "d": 381.43341666666674,
      "v": 81
    },
    {
      "midi": 66,
      "hit": false,
      "t": 153520.05683333322,
      "d": 583.6390833333135,
      "v": 81
    },
    {
      "midi": 63,
      "hit": false,
      "t": 153529.24799999988,
      "d": 744.4844999999914,
      "v": 77
    },
    {
      "midi": 59,
      "hit": false,
      "t": 153965.82841666654,
      "d": 358.45549999998184,
      "v": 41
    },
    {
      "midi": 63,
      "hit": false,
      "t": 154402.40883333317,
      "d": 367.64666666666744,
      "v": 97
    },
    {
      "midi": 66,
      "hit": false,
      "t": 154407.00441666652,
      "d": 367.64666666666744,
      "v": 101
    },
    {
      "midi": 59,
      "hit": false,
      "t": 154416.19558333317,
      "d": 376.83783333335305,
      "v": 93
    },
    {
      "midi": 64,
      "hit": false,
      "t": 155289.3564166665,
      "d": 602.0214166666556,
      "v": 85
    },
    {
      "midi": 59,
      "hit": false,
      "t": 155289.3564166665,
      "d": 666.3595833333093,
      "v": 85
    },
    {
      "midi": 68,
      "hit": false,
      "t": 155293.95199999984,
      "d": 624.9993333333114,
      "v": 73
    },
    {
      "midi": 68,
      "hit": false,
      "t": 156171.7084166665,
      "d": 436.58041666666395,
      "v": 65
    },
    {
      "midi": 64,
      "hit": false,
      "t": 156176.30399999983,
      "d": 459.55833333331975,
      "v": 73
    },
    {
      "midi": 59,
      "hit": false,
      "t": 156176.30399999983,
      "d": 496.32299999997485,
      "v": 69
    },
    {
      "midi": 66,
      "hit": false,
      "t": 157274.64841666646,
      "d": 1383.2705833333312,
      "v": 109
    },
    {
      "midi": 64,
      "hit": false,
      "t": 157279.2439999998,
      "d": 1181.0649166666553,
      "v": 114
    },
    {
      "midi": 71,
      "hit": false,
      "t": 157279.2439999998,
      "d": 1328.123583333334,
      "v": 107
    },
    {
      "midi": 64,
      "hit": false,
      "t": 158814.16883333313,
      "d": 753.675666666677,
      "v": 125
    },
    {
      "midi": 59,
      "hit": false,
      "t": 158814.16883333313,
      "d": 804.2270833333314,
      "v": 125
    },
    {
      "midi": 68,
      "hit": false,
      "t": 158818.76441666647,
      "d": 758.2712499999907,
      "v": 124
    },
    {
      "midi": 57,
      "hit": false,
      "t": 159921.70441666647,
      "d": 156.24983333333512,
      "v": 115
    },
    {
      "midi": 69,
      "hit": false,
      "t": 160146.8879999998,
      "d": 243.56591666667373,
      "v": 125
    },
    {
      "midi": 61,
      "hit": false,
      "t": 160151.48358333315,
      "d": 215.99241666667513,
      "v": 124
    },
    {
      "midi": 64,
      "hit": false,
      "t": 160151.48358333315,
      "d": 252.75708333333023,
      "v": 126
    },
    {
      "midi": 59,
      "hit": false,
      "t": 160578.87283333315,
      "d": 965.0725000000093,
      "v": 125
    },
    {
      "midi": 68,
      "hit": false,
      "t": 160578.87283333315,
      "d": 1006.4327500000072,
      "v": 122
    },
    {
      "midi": 64,
      "hit": false,
      "t": 160583.4684166665,
      "d": 988.0504166666651,
      "v": 125
    },
    {
      "midi": 64,
      "hit": false,
      "t": 162348.1724166665,
      "d": 753.675666666677,
      "v": 125
    },
    {
      "midi": 68,
      "hit": false,
      "t": 162348.1724166665,
      "d": 758.2712500000198,
      "v": 124
    },
    {
      "midi": 59,
      "hit": false,
      "t": 162348.1724166665,
      "d": 804.2270833333605,
      "v": 125
    },
    {
      "midi": 57,
      "hit": false,
      "t": 163451.11241666652,
      "d": 156.24983333333512,
      "v": 115
    },
    {
      "midi": 64,
      "hit": false,
      "t": 163671.7004166665,
      "d": 252.75708333335933,
      "v": 126
    },
    {
      "midi": 61,
      "hit": false,
      "t": 163676.29599999986,
      "d": 215.99241666667513,
      "v": 124
    },
    {
      "midi": 69,
      "hit": false,
      "t": 163680.8915833332,
      "d": 243.56591666667373,
      "v": 125
    },
    {
      "midi": 59,
      "hit": false,
      "t": 164112.87641666655,
      "d": 965.0725000000093,
      "v": 125
    },
    {
      "midi": 68,
      "hit": false,
      "t": 164112.87641666655,
      "d": 1006.4327500000072,
      "v": 122
    },
    {
      "midi": 64,
      "hit": false,
      "t": 164117.4719999999,
      "d": 988.0504166666651,
      "v": 125
    },
    {
      "midi": 59,
      "hit": false,
      "t": 165882.1759999999,
      "d": 753.675666666677,
      "v": 123
    },
    {
      "midi": 64,
      "hit": false,
      "t": 165886.77158333323,
      "d": 758.2712499999907,
      "v": 124
    },
    {
      "midi": 68,
      "hit": false,
      "t": 165886.77158333323,
      "d": 781.2491666666465,
      "v": 121
    },
    {
      "midi": 65,
      "hit": false,
      "t": 167637.6888333332,
      "d": 932.903416666697,
      "v": 123
    },
    {
      "midi": 68,
      "hit": false,
      "t": 167642.28441666655,
      "d": 923.7122500000114,
      "v": 120
    },
    {
      "midi": 61,
      "hit": false,
      "t": 167642.28441666655,
      "d": 974.2636666666949,
      "v": 121
    },
    {
      "midi": 66,
      "hit": false,
      "t": 169402.39283333323,
      "d": 666.3595833333384,
      "v": 120
    },
    {
      "midi": 61,
      "hit": false,
      "t": 169406.98841666657,
      "d": 689.3374999999942,
      "v": 120
    },
    {
      "midi": 69,
      "hit": false,
      "t": 169416.17958333323,
      "d": 647.9772499999963,
      "v": 120
    },
    {
      "midi": 61,
      "hit": false,
      "t": 170519.11958333323,
      "d": 202.20566666667582,
      "v": 107
    },
    {
      "midi": 71,
      "hit": false,
      "t": 170730.51641666656,
      "d": 427.38925000000745,
      "v": 120
    },
    {
      "midi": 68,
      "hit": false,
      "t": 170735.1119999999,
      "d": 427.38925000000745,
      "v": 120
    },
    {
      "midi": 69,
      "hit": false,
      "t": 171167.09683333326,
      "d": 1571.6894999999786,
      "v": 119
    },
    {
      "midi": 73,
      "hit": false,
      "t": 171176.2879999999,
      "d": 1599.2629999999772,
      "v": 120
    },
    {
      "midi": 61,
      "hit": false,
      "t": 172936.39641666657,
      "d": 588.2346666666563,
      "v": 115
    },
    {
      "midi": 57,
      "hit": false,
      "t": 172940.9919999999,
      "d": 597.4258333333128,
      "v": 109
    },
    {
      "midi": 64,
      "hit": false,
      "t": 172940.9919999999,
      "d": 611.2125833333121,
      "v": 115
    },
    {
      "midi": 73,
      "hit": false,
      "t": 174696.50483333322,
      "d": 487.13183333331835,
      "v": 115
    },
    {
      "midi": 64,
      "hit": false,
      "t": 174705.69599999988,
      "d": 510.10975000000326,
      "v": 117
    },
    {
      "midi": 69,
      "hit": false,
      "t": 174710.29158333322,
      "d": 500.91858333331766,
      "v": 117
    },
    {
      "midi": 64,
      "hit": false,
      "t": 175358.26883333322,
      "d": 87.31608333333861,
      "v": 95
    },
    {
      "midi": 73,
      "hit": false,
      "t": 175583.45241666655,
      "d": 312.49966666667024,
      "v": 115
    },
    {
      "midi": 69,
      "hit": false,
      "t": 175583.45241666655,
      "d": 330.88200000001234,
      "v": 119
    },
    {
      "midi": 64,
      "hit": false,
      "t": 175592.6435833332,
      "d": 390.62458333335235,
      "v": 115
    },
    {
      "midi": 64,
      "hit": false,
      "t": 176461.20883333322,
      "d": 675.5507499999658,
      "v": 119
    },
    {
      "midi": 59,
      "hit": false,
      "t": 176465.80441666656,
      "d": 689.3374999999651,
      "v": 119
    },
    {
      "midi": 56,
      "hit": false,
      "t": 176474.99558333322,
      "d": 569.8523333333142,
      "v": 113
    },
    {
      "midi": 76,
      "hit": false,
      "t": 178009.92041666651,
      "d": 147.05866666667862,
      "v": 123
    },
    {
      "midi": 71,
      "hit": false,
      "t": 178019.11158333317,
      "d": 133.27191666667932,
      "v": 123
    },
    {
      "midi": 80,
      "hit": false,
      "t": 178019.11158333317,
      "d": 142.46308333336492,
      "v": 123
    },
    {
      "midi": 76,
      "hit": false,
      "t": 178225.9128333332,
      "d": 1102.9400000000023,
      "v": 119
    },
    {
      "midi": 71,
      "hit": false,
      "t": 178235.10399999985,
      "d": 1130.51350000003,
      "v": 121
    },
    {
      "midi": 80,
      "hit": false,
      "t": 178239.6995833332,
      "d": 1121.3223333333444,
      "v": 115
    },
    {
      "midi": 59,
      "hit": false,
      "t": 179108.2648333332,
      "d": 477.94066666666185,
      "v": 126
    },
    {
      "midi": 64,
      "hit": false,
      "t": 179112.86041666655,
      "d": 496.32299999997485,
      "v": 122
    },
    {
      "midi": 64,
      "hit": false,
      "t": 179990.6168333332,
      "d": 1286.763333333336,
      "v": 127
    },
    {
      "midi": 47,
      "hit": false,
      "t": 179995.21241666653,
      "d": 1006.4327500000072,
      "v": 110
    },
    {
      "midi": 59,
      "hit": false,
      "t": 179995.21241666653,
      "d": 1300.5500833333354,
      "v": 127
    },
    {
      "midi": 47,
      "hit": false,
      "t": 181327.9315833332,
      "d": 758.2712499999907,
      "v": 110
    },
    {
      "midi": 63,
      "hit": false,
      "t": 181759.91641666653,
      "d": 537.6832500000019,
      "v": 122
    },
    {
      "midi": 59,
      "hit": false,
      "t": 181769.10758333319,
      "d": 657.1684166666819,
      "v": 122
    },
    {
      "midi": 47,
      "hit": false,
      "t": 182210.2835833332,
      "d": 528.4920833333454,
      "v": 86
    },
    {
      "midi": 63,
      "hit": false,
      "t": 182646.86399999986,
      "d": 487.13183333334746,
      "v": 114
    },
    {
      "midi": 59,
      "hit": false,
      "t": 182651.4595833332,
      "d": 652.5728333333391,
      "v": 106
    },
    {
      "midi": 47,
      "hit": false,
      "t": 183088.03999999986,
      "d": 271.13941666667233,
      "v": 73
    },
    {
      "midi": 68,
      "hit": false,
      "t": 183524.62041666653,
      "d": 758.2712499999616,
      "v": 124
    },
    {
      "midi": 64,
      "hit": false,
      "t": 183533.81158333318,
      "d": 753.6756666666479,
      "v": 125
    },
    {
      "midi": 59,
      "hit": false,
      "t": 183533.81158333318,
      "d": 804.2270833333023,
      "v": 125
    },
    {
      "midi": 57,
      "hit": false,
      "t": 184627.5604166665,
      "d": 156.24983333333512,
      "v": 115
    },
    {
      "midi": 64,
      "hit": false,
      "t": 184843.55283333317,
      "d": 252.75708333333023,
      "v": 126
    },
    {
      "midi": 69,
      "hit": false,
      "t": 184848.14841666652,
      "d": 243.56591666664463,
      "v": 125
    },
    {
      "midi": 61,
      "hit": false,
      "t": 184852.74399999986,
      "d": 215.99241666664602,
      "v": 124
    },
    {
      "midi": 64,
      "hit": false,
      "t": 185293.91999999984,
      "d": 988.0504166666651,
      "v": 125
    },
    {
      "midi": 59,
      "hit": false,
      "t": 185298.51558333318,
      "d": 965.0724999999802,
      "v": 125
    },
    {
      "midi": 68,
      "hit": false,
      "t": 185298.51558333318,
      "d": 1006.4327499999781,
      "v": 122
    },
    {
      "midi": 68,
      "hit": false,
      "t": 187049.43283333315,
      "d": 758.2712499999907,
      "v": 124
    },
    {
      "midi": 59,
      "hit": false,
      "t": 187049.43283333315,
      "d": 804.2270833333314,
      "v": 125
    },
    {
      "midi": 64,
      "hit": false,
      "t": 187058.6239999998,
      "d": 753.675666666677,
      "v": 125
    },
    {
      "midi": 57,
      "hit": false,
      "t": 188152.37283333315,
      "d": 156.24983333333512,
      "v": 115
    },
    {
      "midi": 69,
      "hit": false,
      "t": 188377.55641666648,
      "d": 243.56591666667373,
      "v": 125
    },
    {
      "midi": 61,
      "hit": false,
      "t": 188386.74758333314,
      "d": 215.99241666667513,
      "v": 124
    },
    {
      "midi": 64,
      "hit": false,
      "t": 188386.74758333314,
      "d": 252.75708333335933,
      "v": 126
    },
    {
      "midi": 59,
      "hit": false,
      "t": 188814.13683333318,
      "d": 965.0725000000093,
      "v": 125
    },
    {
      "midi": 64,
      "hit": false,
      "t": 188823.32799999983,
      "d": 988.0504166666942,
      "v": 125
    },
    {
      "midi": 68,
      "hit": false,
      "t": 188827.92358333318,
      "d": 1006.4327500000072,
      "v": 122
    },
    {
      "midi": 64,
      "hit": false,
      "t": 190578.84083333318,
      "d": 758.2712500000198,
      "v": 124
    },
    {
      "midi": 68,
      "hit": false,
      "t": 190583.43641666652,
      "d": 781.2491666666756,
      "v": 121
    },
    {
      "midi": 59,
      "hit": false,
      "t": 190592.62758333317,
      "d": 753.675666666677,
      "v": 123
    },
    {
      "midi": 65,
      "hit": false,
      "t": 192343.5448333332,
      "d": 932.9034166666679,
      "v": 123
    },
    {
      "midi": 61,
      "hit": false,
      "t": 192343.5448333332,
      "d": 974.2636666666658,
      "v": 121
    },
    {
      "midi": 68,
      "hit": false,
      "t": 192352.73599999986,
      "d": 923.7122500000114,
      "v": 120
    },
    {
      "midi": 61,
      "hit": false,
      "t": 194108.2488333332,
      "d": 689.3374999999942,
      "v": 120
    },
    {
      "midi": 69,
      "hit": false,
      "t": 194112.84441666654,
      "d": 647.9772499999672,
      "v": 120
    },
    {
      "midi": 66,
      "hit": false,
      "t": 194112.84441666654,
      "d": 666.3595833333093,
      "v": 120
    },
    {
      "midi": 61,
      "hit": false,
      "t": 195220.37999999986,
      "d": 202.20566666667582,
      "v": 107
    },
    {
      "midi": 71,
      "hit": false,
      "t": 195431.7768333332,
      "d": 427.38925000000745,
      "v": 120
    },
    {
      "midi": 68,
      "hit": false,
      "t": 195436.37241666653,
      "d": 427.38925000000745,
      "v": 120
    },
    {
      "midi": 73,
      "hit": false,
      "t": 195877.54841666654,
      "d": 1599.2630000000063,
      "v": 120
    },
    {
      "midi": 69,
      "hit": false,
      "t": 195886.7395833332,
      "d": 1571.6895000000077,
      "v": 119
    },
    {
      "midi": 57,
      "hit": false,
      "t": 197637.65683333323,
      "d": 597.4258333333419,
      "v": 109
    },
    {
      "midi": 64,
      "hit": false,
      "t": 197642.25241666657,
      "d": 611.2125833333412,
      "v": 115
    },
    {
      "midi": 61,
      "hit": false,
      "t": 197651.44358333322,
      "d": 588.2346666666854,
      "v": 115
    },
    {
      "midi": 69,
      "hit": false,
      "t": 199402.36083333325,
      "d": 500.91858333334676,
      "v": 117
    },
    {
      "midi": 73,
      "hit": false,
      "t": 199406.9564166666,
      "d": 487.13183333334746,
      "v": 115
    },
    {
      "midi": 64,
      "hit": false,
      "t": 199411.55199999994,
      "d": 510.10975000000326,
      "v": 117
    },
    {
      "midi": 64,
      "hit": false,
      "t": 200073.31599999993,
      "d": 87.31608333333861,
      "v": 95
    },
    {
      "midi": 69,
      "hit": false,
      "t": 200284.71283333327,
      "d": 330.88200000001234,
      "v": 119
    },
    {
      "midi": 64,
      "hit": false,
      "t": 200284.71283333327,
      "d": 390.62458333335235,
      "v": 115
    },
    {
      "midi": 73,
      "hit": false,
      "t": 200289.3084166666,
      "d": 312.49966666667024,
      "v": 115
    },
    {
      "midi": 64,
      "hit": false,
      "t": 201176.25599999994,
      "d": 675.5507499999949,
      "v": 119
    },
    {
      "midi": 59,
      "hit": false,
      "t": 201176.25599999994,
      "d": 689.3374999999942,
      "v": 119
    },
    {
      "midi": 56,
      "hit": false,
      "t": 201180.85158333328,
      "d": 569.8523333333142,
      "v": 113
    },
    {
      "midi": 80,
      "hit": false,
      "t": 202711.18083333326,
      "d": 142.46308333333582,
      "v": 123
    },
    {
      "midi": 83,
      "hit": false,
      "t": 202715.7764166666,
      "d": 133.2719166666502,
      "v": 123
    },
    {
      "midi": 88,
      "hit": false,
      "t": 202715.7764166666,
      "d": 147.05866666664951,
      "v": 123
    },
    {
      "midi": 80,
      "hit": false,
      "t": 202936.3644166666,
      "d": 1121.3223333333444,
      "v": 115
    },
    {
      "midi": 83,
      "hit": false,
      "t": 202940.95999999993,
      "d": 1130.513500000001,
      "v": 121
    },
    {
      "midi": 88,
      "hit": false,
      "t": 202945.55558333328,
      "d": 1102.9400000000023,
      "v": 119
    },
    {
      "midi": 59,
      "hit": false,
      "t": 203814.1208333333,
      "d": 477.94066666663275,
      "v": 126
    },
    {
      "midi": 64,
      "hit": false,
      "t": 203818.71641666663,
      "d": 496.32299999994575,
      "v": 122
    },
    {
      "midi": 47,
      "hit": false,
      "t": 204705.6639999999,
      "d": 1006.4327500000072,
      "v": 110
    },
    {
      "midi": 64,
      "hit": false,
      "t": 204705.6639999999,
      "d": 1286.763333333336,
      "v": 127
    },
    {
      "midi": 59,
      "hit": false,
      "t": 204710.25958333325,
      "d": 1300.5500833333354,
      "v": 127
    },
    {
      "midi": 47,
      "hit": false,
      "t": 206024.59641666658,
      "d": 758.2712500000198,
      "v": 110
    },
    {
      "midi": 64,
      "hit": false,
      "t": 206461.17683333324,
      "d": 537.683250000031,
      "v": 122
    },
    {
      "midi": 59,
      "hit": false,
      "t": 206461.17683333324,
      "d": 657.168416666711,
      "v": 122
    },
    {
      "midi": 47,
      "hit": false,
      "t": 206902.35283333328,
      "d": 528.4920833333454,
      "v": 86
    },
    {
      "midi": 64,
      "hit": false,
      "t": 207348.12441666663,
      "d": 487.13183333331835,
      "v": 114
    },
    {
      "midi": 59,
      "hit": false,
      "t": 207348.12441666663,
      "d": 652.57283333331,
      "v": 106
    },
    {
      "midi": 47,
      "hit": false,
      "t": 207793.89599999995,
      "d": 271.1394166666432,
      "v": 73
    },
    {
      "midi": 60,
      "hit": false,
      "t": 208451.06441666657,
      "d": 647.9772500000254,
      "v": 120
    },
    {
      "midi": 68,
      "hit": false,
      "t": 208455.65999999992,
      "d": 647.9772500000254,
      "v": 121
    },
    {
      "midi": 63,
      "hit": false,
      "t": 208460.25558333326,
      "d": 647.9772500000254,
      "v": 121
    },
    {
      "midi": 60,
      "hit": false,
      "t": 209108.23283333328,
      "d": 868.5652499999851,
      "v": 119
    },
    {
      "midi": 68,
      "hit": false,
      "t": 209117.42399999994,
      "d": 868.5652499999851,
      "v": 119
    },
    {
      "midi": 63,
      "hit": false,
      "t": 209122.01958333328,
      "d": 868.5652499999851,
      "v": 120
    },
    {
      "midi": 60,
      "hit": false,
      "t": 210215.7684166666,
      "d": 647.9772499999963,
      "v": 119
    },
    {
      "midi": 63,
      "hit": false,
      "t": 210215.7684166666,
      "d": 647.9772499999963,
      "v": 119
    },
    {
      "midi": 68,
      "hit": false,
      "t": 210215.7684166666,
      "d": 647.9772499999963,
      "v": 119
    },
    {
      "midi": 62,
      "hit": false,
      "t": 210872.93683333325,
      "d": 868.5652499999851,
      "v": 117
    },
    {
      "midi": 68,
      "hit": false,
      "t": 210882.1279999999,
      "d": 868.5652499999851,
      "v": 117
    },
    {
      "midi": 58,
      "hit": false,
      "t": 210886.72358333325,
      "d": 868.5652499999851,
      "v": 117
    },
    {
      "midi": 67,
      "hit": false,
      "t": 211755.28883333324,
      "d": 758.2712500000198,
      "v": 124
    },
    {
      "midi": 63,
      "hit": false,
      "t": 211764.4799999999,
      "d": 753.6756666667061,
      "v": 125
    },
    {
      "midi": 58,
      "hit": false,
      "t": 211769.07558333324,
      "d": 804.2270833333605,
      "v": 125
    },
    {
      "midi": 56,
      "hit": false,
      "t": 212858.22883333327,
      "d": 156.24983333333512,
      "v": 115
    },
    {
      "midi": 68,
      "hit": false,
      "t": 213078.81683333326,
      "d": 243.56591666664463,
      "v": 125
    },
    {
      "midi": 63,
      "hit": false,
      "t": 213078.81683333326,
      "d": 252.75708333330113,
      "v": 126
    },
    {
      "midi": 60,
      "hit": false,
      "t": 213088.0079999999,
      "d": 215.99241666664602,
      "v": 124
    },
    {
      "midi": 58,
      "hit": false,
      "t": 213524.58841666655,
      "d": 965.0725000000093,
      "v": 125
    },
    {
      "midi": 67,
      "hit": false,
      "t": 213524.58841666655,
      "d": 1006.4327500000072,
      "v": 122
    },
    {
      "midi": 63,
      "hit": false,
      "t": 213529.1839999999,
      "d": 988.0504166666651,
      "v": 125
    },
    {
      "midi": 67,
      "hit": false,
      "t": 215289.29241666658,
      "d": 758.2712499999907,
      "v": 124
    },
    {
      "midi": 63,
      "hit": false,
      "t": 215293.88799999992,
      "d": 753.6756666666479,
      "v": 125
    },
    {
      "midi": 58,
      "hit": false,
      "t": 215293.88799999992,
      "d": 804.2270833333023,
      "v": 125
    },
    {
      "midi": 56,
      "hit": false,
      "t": 216401.42358333324,
      "d": 156.24983333333512,
      "v": 115
    },
    {
      "midi": 60,
      "hit": false,
      "t": 216608.22483333322,
      "d": 215.99241666667513,
      "v": 124
    },
    {
      "midi": 68,
      "hit": false,
      "t": 216612.82041666657,
      "d": 243.56591666667373,
      "v": 125
    },
    {
      "midi": 63,
      "hit": false,
      "t": 216612.82041666657,
      "d": 252.75708333333023,
      "v": 126
    },
    {
      "midi": 58,
      "hit": false,
      "t": 217058.5919999999,
      "d": 965.0725000000093,
      "v": 125
    },
    {
      "midi": 63,
      "hit": false,
      "t": 217063.18758333323,
      "d": 988.0504166666651,
      "v": 125
    },
    {
      "midi": 67,
      "hit": false,
      "t": 217063.18758333323,
      "d": 1006.4327500000072,
      "v": 122
    },
    {
      "midi": 63,
      "hit": false,
      "t": 218818.70041666657,
      "d": 758.2712500000198,
      "v": 124
    },
    {
      "midi": 67,
      "hit": false,
      "t": 218823.29599999991,
      "d": 781.2491666666756,
      "v": 121
    },
    {
      "midi": 58,
      "hit": false,
      "t": 218827.89158333326,
      "d": 753.675666666677,
      "v": 123
    },
    {
      "midi": 64,
      "hit": false,
      "t": 220583.4044166666,
      "d": 932.903416666697,
      "v": 123
    },
    {
      "midi": 60,
      "hit": false,
      "t": 220587.99999999994,
      "d": 974.2636666666949,
      "v": 121
    },
    {
      "midi": 67,
      "hit": false,
      "t": 220592.59558333328,
      "d": 923.7122500000114,
      "v": 120
    },
    {
      "midi": 60,
      "hit": false,
      "t": 222348.10841666663,
      "d": 689.3374999999942,
      "v": 120
    },
    {
      "midi": 68,
      "hit": false,
      "t": 222352.70399999997,
      "d": 647.9772499999963,
      "v": 120
    },
    {
      "midi": 65,
      "hit": false,
      "t": 222357.2995833333,
      "d": 666.3595833333093,
      "v": 120
    },
    {
      "midi": 60,
      "hit": false,
      "t": 223455.64399999994,
      "d": 202.20566666667582,
      "v": 107
    },
    {
      "midi": 70,
      "hit": false,
      "t": 223667.04083333327,
      "d": 427.38925000000745,
      "v": 120
    },
    {
      "midi": 67,
      "hit": false,
      "t": 223671.63641666662,
      "d": 427.38925000000745,
      "v": 120
    },
    {
      "midi": 68,
      "hit": false,
      "t": 224112.81241666662,
      "d": 1571.6895000000077,
      "v": 119
    },
    {
      "midi": 72,
      "hit": false,
      "t": 224112.81241666662,
      "d": 1599.2630000000063,
      "v": 120
    },
    {
      "midi": 63,
      "hit": false,
      "t": 225872.9208333333,
      "d": 611.2125833333412,
      "v": 115
    },
    {
      "midi": 56,
      "hit": false,
      "t": 225877.51641666665,
      "d": 597.4258333333419,
      "v": 109
    },
    {
      "midi": 60,
      "hit": false,
      "t": 225882.112,
      "d": 588.2346666666563,
      "v": 115
    },
    {
      "midi": 68,
      "hit": false,
      "t": 227637.6248333333,
      "d": 500.91858333331766,
      "v": 117
    },
    {
      "midi": 72,
      "hit": false,
      "t": 227642.22041666665,
      "d": 487.13183333331835,
      "v": 115
    },
    {
      "midi": 63,
      "hit": false,
      "t": 227651.4115833333,
      "d": 510.10974999997416,
      "v": 117
    },
    {
      "midi": 63,
      "hit": false,
      "t": 228299.38883333327,
      "d": 87.31608333333861,
      "v": 95
    },
    {
      "midi": 72,
      "hit": false,
      "t": 228519.9768333333,
      "d": 312.49966666667024,
      "v": 115
    },
    {
      "midi": 68,
      "hit": false,
      "t": 228524.57241666663,
      "d": 330.88199999998324,
      "v": 119
    },
    {
      "midi": 63,
      "hit": false,
      "t": 228533.7635833333,
      "d": 390.62458333332324,
      "v": 115
    },
    {
      "midi": 58,
      "hit": false,
      "t": 229402.32883333327,
      "d": 689.3375000000233,
      "v": 119
    },
    {
      "midi": 55,
      "hit": false,
      "t": 229411.51999999993,
      "d": 569.8523333333433,
      "v": 113
    },
    {
      "midi": 63,
      "hit": false,
      "t": 229411.51999999993,
      "d": 675.550750000024,
      "v": 119
    },
    {
      "midi": 82,
      "hit": false,
      "t": 230955.63599999997,
      "d": 133.27191666667932,
      "v": 123
    },
    {
      "midi": 79,
      "hit": false,
      "t": 230960.2315833333,
      "d": 142.46308333333582,
      "v": 123
    },
    {
      "midi": 87,
      "hit": false,
      "t": 230960.2315833333,
      "d": 147.05866666667862,
      "v": 123
    },
    {
      "midi": 87,
      "hit": false,
      "t": 231167.03283333333,
      "d": 1102.9400000000023,
      "v": 119
    },
    {
      "midi": 79,
      "hit": false,
      "t": 231180.81958333333,
      "d": 1121.3223333333444,
      "v": 115
    },
    {
      "midi": 82,
      "hit": false,
      "t": 231180.81958333333,
      "d": 1130.513500000001,
      "v": 121
    },
    {
      "midi": 63,
      "hit": false,
      "t": 232053.98041666666,
      "d": 496.32300000000396,
      "v": 122
    },
    {
      "midi": 58,
      "hit": false,
      "t": 232058.576,
      "d": 477.94066666666185,
      "v": 126
    },
    {
      "midi": 58,
      "hit": false,
      "t": 232931.73683333333,
      "d": 1300.5500833333354,
      "v": 127
    },
    {
      "midi": 63,
      "hit": false,
      "t": 232940.92799999999,
      "d": 1286.763333333336,
      "v": 127
    },
    {
      "midi": 46,
      "hit": false,
      "t": 232945.52358333333,
      "d": 1006.4327500000072,
      "v": 110
    },
    {
      "midi": 46,
      "hit": false,
      "t": 234255.26483333332,
      "d": 758.2712499999907,
      "v": 110
    },
    {
      "midi": 63,
      "hit": false,
      "t": 234701.03641666664,
      "d": 537.6832500000019,
      "v": 122
    },
    {
      "midi": 58,
      "hit": false,
      "t": 234701.03641666664,
      "d": 657.1684166666819,
      "v": 122
    },
    {
      "midi": 46,
      "hit": false,
      "t": 235137.6168333333,
      "d": 528.4920833333163,
      "v": 86
    },
    {
      "midi": 63,
      "hit": false,
      "t": 235578.7928333333,
      "d": 487.13183333331835,
      "v": 114
    },
    {
      "midi": 58,
      "hit": false,
      "t": 235587.98399999997,
      "d": 652.5728333333391,
      "v": 106
    },
    {
      "midi": 46,
      "hit": false,
      "t": 236033.7555833333,
      "d": 271.13941666667233,
      "v": 73
    },
    {
      "midi": 46,
      "hit": false,
      "t": 236465.74041666664,
      "d": 271.13941666667233,
      "v": 98
    },
    {
      "midi": 62,
      "hit": false,
      "t": 236470.33599999998,
      "d": 487.13183333331835,
      "v": 114
    },
    {
      "midi": 58,
      "hit": false,
      "t": 236470.33599999998,
      "d": 652.57283333331,
      "v": 108
    },
    {
      "midi": 46,
      "hit": false,
      "t": 237343.49683333328,
      "d": 271.13941666667233,
      "v": 108
    },
    {
      "midi": 62,
      "hit": false,
      "t": 237343.49683333328,
      "d": 271.13941666667233,
      "v": 114
    },
    {
      "midi": 58,
      "hit": false,
      "t": 237348.09241666662,
      "d": 271.13941666667233,
      "v": 107
    },
    {
      "midi": 46,
      "hit": false,
      "t": 238009.85641666662,
      "d": 271.13941666667233,
      "v": 106
    },
    {
      "midi": 58,
      "hit": false,
      "t": 238009.85641666662,
      "d": 271.13941666667233,
      "v": 101
    },
    {
      "midi": 62,
      "hit": false,
      "t": 238014.45199999996,
      "d": 271.13941666667233,
      "v": 102
    },
    {
      "midi": 60,
      "hit": false,
      "t": 243529.15199999997,
      "d": 2192.0932500000054,
      "v": 115
    },
    {
      "midi": 63,
      "hit": false,
      "t": 243529.15199999997,
      "d": 2192.0932500000054,
      "v": 114
    },
    {
      "midi": 68,
      "hit": false,
      "t": 243533.74758333332,
      "d": 2192.0932500000054,
      "v": 115
    },
    {
      "midi": 67,
      "hit": false,
      "t": 245735.03199999998,
      "d": 3060.6585000000196,
      "v": 114
    },
    {
      "midi": 58,
      "hit": false,
      "t": 245739.62758333332,
      "d": 3056.0629166666768,
      "v": 115
    },
    {
      "midi": 63,
      "hit": false,
      "t": 245739.62758333332,
      "d": 3065.2540833333333,
      "v": 113
    }
  ]
}