{
  "jsonPath": "Reggae/Uk Reggae/Eddy Grant/gimme-hope-joanna.json",
  "path": "Reggae\\Uk Reggae\\Eddy Grant\\Gimme Hope Joanna.mid",
  "name": "Gimme Hope Joanna",
  "difficulty": "Advanced",
  "bpm": 129.00035475097556,
  "notes": [
    {
      "midi": 65,
      "hit": false,
      "t": 3255.8050000000003,
      "d": 128.39111979166682,
      "v": 118
    },
    {
      "midi": 77,
      "hit": false,
      "t": 3255.8050000000003,
      "d": 128.39111979166682,
      "v": 115
    },
    {
      "midi": 65,
      "hit": false,
      "t": 3263.072421875,
      "d": 128.39111979166682,
      "v": 94
    },
    {
      "midi": 65,
      "hit": false,
      "t": 3263.072421875,
      "d": 128.39111979166682,
      "v": 91
    },
    {
      "midi": 70,
      "hit": false,
      "t": 3263.072421875,
      "d": 128.39111979166682,
      "v": 98
    },
    {
      "midi": 74,
      "hit": false,
      "t": 3263.072421875,
      "d": 130.8135937500001,
      "v": 103
    },
    {
      "midi": 65,
      "hit": false,
      "t": 3488.3625,
      "d": 128.39111979166637,
      "v": 99
    },
    {
      "midi": 65,
      "hit": false,
      "t": 3488.3625000000006,
      "d": 128.39111979166682,
      "v": 110
    },
    {
      "midi": 77,
      "hit": false,
      "t": 3488.3625000000006,
      "d": 130.8135937500001,
      "v": 109
    },
    {
      "midi": 70,
      "hit": false,
      "t": 3493.2074479166668,
      "d": 128.39111979166637,
      "v": 93
    },
    {
      "midi": 74,
      "hit": false,
      "t": 3493.2074479166668,
      "d": 130.81359374999965,
      "v": 96
    },
    {
      "midi": 65,
      "hit": false,
      "t": 3495.6299218750005,
      "d": 130.8135937500001,
      "v": 92
    },
    {
      "midi": 77,
      "hit": false,
      "t": 3720.920000000001,
      "d": 121.12369791666652,
      "v": 110
    },
    {
      "midi": 65,
      "hit": false,
      "t": 3720.920000000001,
      "d": 128.39111979166637,
      "v": 110
    },
    {
      "midi": 65,
      "hit": false,
      "t": 3728.187421875,
      "d": 123.5461718749998,
      "v": 98
    },
    {
      "midi": 34,
      "hit": false,
      "t": 3733.032369791667,
      "d": 237.40244791666692,
      "v": 109
    },
    {
      "midi": 70,
      "hit": false,
      "t": 3735.45484375,
      "d": 123.5461718749998,
      "v": 89
    },
    {
      "midi": 74,
      "hit": false,
      "t": 3735.45484375,
      "d": 125.96864583333308,
      "v": 92
    },
    {
      "midi": 65,
      "hit": false,
      "t": 3737.8773177083335,
      "d": 1862.8824739583338,
      "v": 102
    },
    {
      "midi": 65,
      "hit": false,
      "t": 3737.877317708334,
      "d": 125.96864583333354,
      "v": 96
    },
    {
      "midi": 62,
      "hit": false,
      "t": 3740.299791666667,
      "d": 1865.304947916667,
      "v": 102
    },
    {
      "midi": 70,
      "hit": false,
      "t": 3745.1447395833334,
      "d": 1860.4600000000005,
      "v": 104
    },
    {
      "midi": 70,
      "hit": false,
      "t": 3837.198750000001,
      "d": 123.5461718749998,
      "v": 110
    },
    {
      "midi": 58,
      "hit": false,
      "t": 3837.198750000001,
      "d": 128.39111979166637,
      "v": 110
    },
    {
      "midi": 65,
      "hit": false,
      "t": 4069.756250000001,
      "d": 128.39111979166637,
      "v": 107
    },
    {
      "midi": 77,
      "hit": false,
      "t": 4069.756250000001,
      "d": 130.81359374999965,
      "v": 113
    },
    {
      "midi": 29,
      "hit": false,
      "t": 4425.8599218750005,
      "d": 242.24739583333303,
      "v": 111
    },
    {
      "midi": 77,
      "hit": false,
      "t": 4651.150000000001,
      "d": 123.54617187500025,
      "v": 116
    },
    {
      "midi": 65,
      "hit": false,
      "t": 4651.150000000001,
      "d": 128.39111979166682,
      "v": 117
    },
    {
      "midi": 65,
      "hit": false,
      "t": 4658.4174218749995,
      "d": 125.96864583333354,
      "v": 91
    },
    {
      "midi": 70,
      "hit": false,
      "t": 4658.4174218749995,
      "d": 125.96864583333354,
      "v": 96
    },
    {
      "midi": 74,
      "hit": false,
      "t": 4660.839895833333,
      "d": 128.39111979166682,
      "v": 93
    },
    {
      "midi": 34,
      "hit": false,
      "t": 4660.839895833334,
      "d": 239.82492187499975,
      "v": 108
    },
    {
      "midi": 65,
      "hit": false,
      "t": 4663.262369791668,
      "d": 128.39111979166682,
      "v": 96
    },
    {
      "midi": 77,
      "hit": false,
      "t": 4883.7075,
      "d": 125.96864583333354,
      "v": 111
    },
    {
      "midi": 65,
      "hit": false,
      "t": 4883.7075,
      "d": 128.39111979166682,
      "v": 110
    },
    {
      "midi": 65,
      "hit": false,
      "t": 4888.552447916666,
      "d": 125.96864583333354,
      "v": 90
    },
    {
      "midi": 74,
      "hit": false,
      "t": 4893.397395833333,
      "d": 130.8135937500001,
      "v": 94
    },
    {
      "midi": 70,
      "hit": false,
      "t": 4895.819869791666,
      "d": 128.39111979166682,
      "v": 101
    },
    {
      "midi": 65,
      "hit": false,
      "t": 4898.242343750001,
      "d": 128.39111979166682,
      "v": 98
    },
    {
      "midi": 79,
      "hit": false,
      "t": 5116.265,
      "d": 123.54617187500025,
      "v": 110
    },
    {
      "midi": 67,
      "hit": false,
      "t": 5116.265,
      "d": 128.39111979166682,
      "v": 117
    },
    {
      "midi": 75,
      "hit": false,
      "t": 5123.532421874999,
      "d": 128.39111979166682,
      "v": 94
    },
    {
      "midi": 67,
      "hit": false,
      "t": 5128.377369791666,
      "d": 123.54617187500025,
      "v": 96
    },
    {
      "midi": 72,
      "hit": false,
      "t": 5128.377369791666,
      "d": 125.96864583333354,
      "v": 95
    },
    {
      "midi": 34,
      "hit": false,
      "t": 5128.377369791667,
      "d": 469.95994791666635,
      "v": 105
    },
    {
      "midi": 67,
      "hit": false,
      "t": 5128.377369791668,
      "d": 128.39111979166682,
      "v": 103
    },
    {
      "midi": 67,
      "hit": false,
      "t": 5348.8225,
      "d": 128.39111979166682,
      "v": 116
    },
    {
      "midi": 79,
      "hit": false,
      "t": 5348.8225,
      "d": 128.39111979166682,
      "v": 119
    },
    {
      "midi": 72,
      "hit": false,
      "t": 5353.667447916666,
      "d": 130.8135937500001,
      "v": 91
    },
    {
      "midi": 67,
      "hit": false,
      "t": 5358.512395833332,
      "d": 128.39111979166682,
      "v": 97
    },
    {
      "midi": 75,
      "hit": false,
      "t": 5360.934869791666,
      "d": 130.8135937500001,
      "v": 94
    },
    {
      "midi": 67,
      "hit": false,
      "t": 5363.357343750001,
      "d": 128.39111979166682,
      "v": 94
    },
    {
      "midi": 79,
      "hit": false,
      "t": 5581.38,
      "d": 121.12369791666697,
      "v": 117
    },
    {
      "midi": 67,
      "hit": false,
      "t": 5581.38,
      "d": 125.96864583333354,
      "v": 116
    },
    {
      "midi": 39,
      "hit": false,
      "t": 5591.069895833333,
      "d": 237.40244791666646,
      "v": 103
    },
    {
      "midi": 72,
      "hit": false,
      "t": 5595.914843749999,
      "d": 123.54617187500025,
      "v": 89
    },
    {
      "midi": 67,
      "hit": false,
      "t": 5595.914843750001,
      "d": 121.12369791666697,
      "v": 96
    },
    {
      "midi": 67,
      "hit": false,
      "t": 5598.337317708332,
      "d": 121.12369791666697,
      "v": 101
    },
    {
      "midi": 75,
      "hit": false,
      "t": 5598.337317708332,
      "d": 125.96864583333354,
      "v": 92
    },
    {
      "midi": 67,
      "hit": false,
      "t": 5603.182265625001,
      "d": 1860.46,
      "v": 100
    },
    {
      "midi": 63,
      "hit": false,
      "t": 5605.604739583334,
      "d": 1860.46,
      "v": 96
    },
    {
      "midi": 70,
      "hit": false,
      "t": 5608.027213541667,
      "d": 1865.3049479166666,
      "v": 102
    },
    {
      "midi": 70,
      "hit": false,
      "t": 5697.6587500000005,
      "d": 123.54617187500025,
      "v": 111
    },
    {
      "midi": 58,
      "hit": false,
      "t": 5697.6587500000005,
      "d": 128.39111979166682,
      "v": 116
    },
    {
      "midi": 67,
      "hit": false,
      "t": 5930.21625,
      "d": 128.39111979166682,
      "v": 115
    },
    {
      "midi": 79,
      "hit": false,
      "t": 5930.21625,
      "d": 130.8135937500001,
      "v": 109
    },
    {
      "midi": 34,
      "hit": false,
      "t": 6288.742395833333,
      "d": 242.24739583333303,
      "v": 104
    },
    {
      "midi": 39,
      "hit": false,
      "t": 6521.299895833333,
      "d": 242.24739583333303,
      "v": 110
    },
    {
      "midi": 79,
      "hit": false,
      "t": 6976.725,
      "d": 123.54617187500025,
      "v": 115
    },
    {
      "midi": 67,
      "hit": false,
      "t": 6976.725,
      "d": 128.39111979166682,
      "v": 107
    },
    {
      "midi": 39,
      "hit": false,
      "t": 6981.569947916666,
      "d": 469.95994791666635,
      "v": 108
    },
    {
      "midi": 67,
      "hit": false,
      "t": 6983.992421874999,
      "d": 123.54617187500025,
      "v": 96
    },
    {
      "midi": 75,
      "hit": false,
      "t": 6983.992421874999,
      "d": 128.39111979166682,
      "v": 89
    },
    {
      "midi": 72,
      "hit": false,
      "t": 6986.414895833333,
      "d": 125.96864583333354,
      "v": 89
    },
    {
      "midi": 67,
      "hit": false,
      "t": 6988.837369791668,
      "d": 128.39111979166682,
      "v": 97
    },
    {
      "midi": 67,
      "hit": false,
      "t": 7209.2825,
      "d": 128.39111979166682,
      "v": 117
    },
    {
      "midi": 79,
      "hit": false,
      "t": 7209.2825,
      "d": 128.39111979166682,
      "v": 110
    },
    {
      "midi": 67,
      "hit": false,
      "t": 7214.127447916666,
      "d": 128.39111979166682,
      "v": 92
    },
    {
      "midi": 72,
      "hit": false,
      "t": 7216.549921874999,
      "d": 130.8135937500001,
      "v": 102
    },
    {
      "midi": 75,
      "hit": false,
      "t": 7216.549921874999,
      "d": 130.8135937500001,
      "v": 90
    },
    {
      "midi": 67,
      "hit": false,
      "t": 7221.394869791668,
      "d": 128.39111979166682,
      "v": 94
    },
    {
      "midi": 77,
      "hit": false,
      "t": 7441.84,
      "d": 118.70122395833369,
      "v": 107
    },
    {
      "midi": 65,
      "hit": false,
      "t": 7441.84,
      "d": 125.96864583333354,
      "v": 114
    },
    {
      "midi": 34,
      "hit": false,
      "t": 7453.952369791666,
      "d": 234.97997395833318,
      "v": 105
    },
    {
      "midi": 70,
      "hit": false,
      "t": 7453.952369791666,
      "d": 121.12369791666697,
      "v": 89
    },
    {
      "midi": 65,
      "hit": false,
      "t": 7456.374843750001,
      "d": 121.12369791666697,
      "v": 100
    },
    {
      "midi": 65,
      "hit": false,
      "t": 7458.797317708332,
      "d": 118.70122395833369,
      "v": 95
    },
    {
      "midi": 74,
      "hit": false,
      "t": 7458.797317708332,
      "d": 121.12369791666697,
      "v": 93
    },
    {
      "midi": 65,
      "hit": false,
      "t": 7463.642265625001,
      "d": 1858.0375260416668,
      "v": 103
    },
    {
      "midi": 62,
      "hit": false,
      "t": 7468.487213541667,
      "d": 1858.0375260416668,
      "v": 95
    },
    {
      "midi": 70,
      "hit": false,
      "t": 7473.332161458334,
      "d": 1860.46,
      "v": 102
    },
    {
      "midi": 70,
      "hit": false,
      "t": 7558.118750000001,
      "d": 123.54617187500025,
      "v": 116
    },
    {
      "midi": 58,
      "hit": false,
      "t": 7558.118750000001,
      "d": 128.39111979166682,
      "v": 112
    },
    {
      "midi": 65,
      "hit": false,
      "t": 7790.67625,
      "d": 128.39111979166682,
      "v": 111
    },
    {
      "midi": 77,
      "hit": false,
      "t": 7790.67625,
      "d": 130.8135937500001,
      "v": 114
    },
    {
      "midi": 29,
      "hit": false,
      "t": 8146.779921874999,
      "d": 242.24739583333394,
      "v": 111
    },
    {
      "midi": 77,
      "hit": false,
      "t": 8372.07,
      "d": 125.96864583333263,
      "v": 115
    },
    {
      "midi": 65,
      "hit": false,
      "t": 8372.07,
      "d": 128.39111979166591,
      "v": 117
    },
    {
      "midi": 34,
      "hit": false,
      "t": 8376.914947916666,
      "d": 239.82492187500065,
      "v": 102
    },
    {
      "midi": 65,
      "hit": false,
      "t": 8376.914947916666,
      "d": 125.96864583333263,
      "v": 101
    },
    {
      "midi": 70,
      "hit": false,
      "t": 8376.914947916666,
      "d": 128.39111979166591,
      "v": 97
    },
    {
      "midi": 74,
      "hit": false,
      "t": 8384.182369791666,
      "d": 128.39111979166591,
      "v": 90
    },
    {
      "midi": 65,
      "hit": false,
      "t": 8386.604843750001,
      "d": 128.39111979166591,
      "v": 96
    },
    {
      "midi": 77,
      "hit": false,
      "t": 8604.627499999999,
      "d": 125.96864583333263,
      "v": 109
    },
    {
      "midi": 65,
      "hit": false,
      "t": 8604.627499999999,
      "d": 128.39111979166591,
      "v": 113
    },
    {
      "midi": 74,
      "hit": false,
      "t": 8611.894921874999,
      "d": 130.8135937499992,
      "v": 93
    },
    {
      "midi": 65,
      "hit": false,
      "t": 8614.317395833332,
      "d": 125.96864583333263,
      "v": 97
    },
    {
      "midi": 70,
      "hit": false,
      "t": 8614.317395833332,
      "d": 125.96864583333263,
      "v": 95
    },
    {
      "midi": 65,
      "hit": false,
      "t": 8614.317395833334,
      "d": 125.96864583333263,
      "v": 103
    },
    {
      "midi": 79,
      "hit": false,
      "t": 8837.184999999998,
      "d": 123.54617187499935,
      "v": 115
    },
    {
      "midi": 67,
      "hit": false,
      "t": 8837.184999999998,
      "d": 128.39111979166591,
      "v": 107
    },
    {
      "midi": 34,
      "hit": false,
      "t": 8842.029947916668,
      "d": 469.95994791666635,
      "v": 103
    },
    {
      "midi": 67,
      "hit": false,
      "t": 8844.452421874998,
      "d": 123.54617187499935,
      "v": 96
    },
    {
      "midi": 72,
      "hit": false,
      "t": 8844.452421874998,
      "d": 123.54617187499935,
      "v": 95
    },
    {
      "midi": 67,
      "hit": false,
      "t": 8846.874895833333,
      "d": 128.39111979166591,
      "v": 99
    },
    {
      "midi": 75,
      "hit": false,
      "t": 8854.14231770833,
      "d": 125.96864583333263,
      "v": 97
    },
    {
      "midi": 67,
      "hit": false,
      "t": 9069.742499999997,
      "d": 128.39111979166591,
      "v": 115
    },
    {
      "midi": 79,
      "hit": false,
      "t": 9069.742499999997,
      "d": 128.39111979166591,
      "v": 110
    },
    {
      "midi": 75,
      "hit": false,
      "t": 9074.587447916663,
      "d": 130.8135937499992,
      "v": 102
    },
    {
      "midi": 67,
      "hit": false,
      "t": 9077.009921874997,
      "d": 128.39111979166591,
      "v": 102
    },
    {
      "midi": 72,
      "hit": false,
      "t": 9077.009921874997,
      "d": 130.8135937499992,
      "v": 97
    },
    {
      "midi": 67,
      "hit": false,
      "t": 9079.432395833332,
      "d": 128.39111979166591,
      "v": 101
    },
    {
      "midi": 77,
      "hit": false,
      "t": 9302.299999999996,
      "d": 121.12369791666606,
      "v": 117
    },
    {
      "midi": 65,
      "hit": false,
      "t": 9302.299999999996,
      "d": 125.96864583333263,
      "v": 112
    },
    {
      "midi": 67,
      "hit": false,
      "t": 9311.989895833329,
      "d": 121.12369791666606,
      "v": 97
    },
    {
      "midi": 72,
      "hit": false,
      "t": 9314.412369791662,
      "d": 123.54617187499935,
      "v": 94
    },
    {
      "midi": 29,
      "hit": false,
      "t": 9314.412369791668,
      "d": 237.40244791666737,
      "v": 105
    },
    {
      "midi": 75,
      "hit": false,
      "t": 9319.257317708329,
      "d": 125.96864583333263,
      "v": 95
    },
    {
      "midi": 67,
      "hit": false,
      "t": 9321.679791666664,
      "d": 123.54617187499935,
      "v": 92
    },
    {
      "midi": 60,
      "hit": false,
      "t": 9324.102265625,
      "d": 1860.460000000001,
      "v": 103
    },
    {
      "midi": 65,
      "hit": false,
      "t": 9328.947213541667,
      "d": 1853.192578125001,
      "v": 91
    },
    {
      "midi": 69,
      "hit": false,
      "t": 9328.947213541667,
      "d": 1862.8824739583342,
      "v": 100
    },
    {
      "midi": 72,
      "hit": false,
      "t": 9418.578749999995,
      "d": 123.54617187499935,
      "v": 114
    },
    {
      "midi": 60,
      "hit": false,
      "t": 9418.578749999995,
      "d": 128.39111979166591,
      "v": 109
    },
    {
      "midi": 77,
      "hit": false,
      "t": 9651.136249999994,
      "d": 111.43380208333292,
      "v": 117
    },
    {
      "midi": 65,
      "hit": false,
      "t": 9651.136249999994,
      "d": 116.27874999999949,
      "v": 107
    },
    {
      "midi": 77,
      "hit": false,
      "t": 9767.414999999994,
      "d": 125.96864583333263,
      "v": 113
    },
    {
      "midi": 65,
      "hit": false,
      "t": 9767.414999999994,
      "d": 128.39111979166591,
      "v": 115
    },
    {
      "midi": 41,
      "hit": false,
      "t": 10002.394973958335,
      "d": 474.80489583333474,
      "v": 111
    },
    {
      "midi": 29,
      "hit": false,
      "t": 10234.952473958336,
      "d": 9.68989583333314,
      "v": 104
    },
    {
      "midi": 79,
      "hit": false,
      "t": 10697.644999999993,
      "d": 123.54617187499935,
      "v": 114
    },
    {
      "midi": 67,
      "hit": false,
      "t": 10697.644999999993,
      "d": 128.39111979166591,
      "v": 111
    },
    {
      "midi": 29,
      "hit": false,
      "t": 10702.48994791667,
      "d": 469.95994791666635,
      "v": 103
    },
    {
      "midi": 67,
      "hit": false,
      "t": 10704.912421874997,
      "d": 128.39111979166591,
      "v": 102
    },
    {
      "midi": 72,
      "hit": false,
      "t": 10707.334895833328,
      "d": 125.96864583333263,
      "v": 89
    },
    {
      "midi": 67,
      "hit": false,
      "t": 10709.757369791661,
      "d": 123.54617187499935,
      "v": 99
    },
    {
      "midi": 75,
      "hit": false,
      "t": 10714.602317708328,
      "d": 125.96864583333263,
      "v": 101
    },
    {
      "midi": 67,
      "hit": false,
      "t": 10930.202499999992,
      "d": 128.39111979166591,
      "v": 112
    },
    {
      "midi": 79,
      "hit": false,
      "t": 10930.202499999992,
      "d": 128.39111979166591,
      "v": 118
    },
    {
      "midi": 67,
      "hit": false,
      "t": 10932.624973958327,
      "d": 128.39111979166591,
      "v": 96
    },
    {
      "midi": 72,
      "hit": false,
      "t": 10935.04744791666,
      "d": 130.8135937499992,
      "v": 101
    },
    {
      "midi": 75,
      "hit": false,
      "t": 10939.892395833327,
      "d": 133.23606770833248,
      "v": 92
    },
    {
      "midi": 67,
      "hit": false,
      "t": 10939.892395833329,
      "d": 128.39111979166591,
      "v": 97
    },
    {
      "midi": 77,
      "hit": false,
      "t": 11162.759999999991,
      "d": 118.70122395833278,
      "v": 117
    },
    {
      "midi": 65,
      "hit": false,
      "t": 11162.759999999991,
      "d": 125.96864583333263,
      "v": 110
    },
    {
      "midi": 65,
      "hit": false,
      "t": 11177.294843749993,
      "d": 118.70122395833278,
      "v": 94
    },
    {
      "midi": 74,
      "hit": false,
      "t": 11179.717317708326,
      "d": 123.54617187499935,
      "v": 102
    },
    {
      "midi": 34,
      "hit": false,
      "t": 11179.717317708337,
      "d": 234.97997395833409,
      "v": 109
    },
    {
      "midi": 70,
      "hit": false,
      "t": 11182.13979166666,
      "d": 121.12369791666606,
      "v": 98
    },
    {
      "midi": 65,
      "hit": false,
      "t": 11182.139791666661,
      "d": 121.12369791666606,
      "v": 103
    },
    {
      "midi": 65,
      "hit": false,
      "t": 11182.139791666668,
      "d": 1860.4599999999991,
      "v": 101
    },
    {
      "midi": 62,
      "hit": false,
      "t": 11184.562265625002,
      "d": 1858.0375260416658,
      "v": 92
    },
    {
      "midi": 70,
      "hit": false,
      "t": 11189.407213541668,
      "d": 1855.6150520833326,
      "v": 101
    },
    {
      "midi": 70,
      "hit": false,
      "t": 11279.03874999999,
      "d": 123.54617187499935,
      "v": 108
    },
    {
      "midi": 58,
      "hit": false,
      "t": 11279.03874999999,
      "d": 128.39111979166591,
      "v": 108
    },
    {
      "midi": 65,
      "hit": false,
      "t": 11511.59624999999,
      "d": 128.39111979166591,
      "v": 112
    },
    {
      "midi": 77,
      "hit": false,
      "t": 11511.59624999999,
      "d": 130.8135937499992,
      "v": 114
    },
    {
      "midi": 29,
      "hit": false,
      "t": 11862.854973958338,
      "d": 242.24739583333394,
      "v": 101
    },
    {
      "midi": 77,
      "hit": false,
      "t": 12092.989999999989,
      "d": 123.54617187499935,
      "v": 118
    },
    {
      "midi": 65,
      "hit": false,
      "t": 12092.989999999989,
      "d": 128.39111979166591,
      "v": 118
    },
    {
      "midi": 34,
      "hit": false,
      "t": 12097.834947916672,
      "d": 239.82492187500065,
      "v": 109
    },
    {
      "midi": 65,
      "hit": false,
      "t": 12100.257421874992,
      "d": 125.96864583333263,
      "v": 101
    },
    {
      "midi": 70,
      "hit": false,
      "t": 12105.102369791659,
      "d": 123.54617187499935,
      "v": 91
    },
    {
      "midi": 74,
      "hit": false,
      "t": 12105.102369791659,
      "d": 128.39111979166591,
      "v": 95
    },
    {
      "midi": 65,
      "hit": false,
      "t": 12107.524843749994,
      "d": 128.39111979166591,
      "v": 97
    },
    {
      "midi": 77,
      "hit": false,
      "t": 12325.547499999988,
      "d": 125.96864583333263,
      "v": 112
    },
    {
      "midi": 65,
      "hit": false,
      "t": 12325.547499999988,
      "d": 128.39111979166591,
      "v": 114
    },
    {
      "midi": 65,
      "hit": false,
      "t": 12330.392447916658,
      "d": 125.96864583333263,
      "v": 89
    },
    {
      "midi": 70,
      "hit": false,
      "t": 12332.814921874991,
      "d": 128.39111979166591,
      "v": 92
    },
    {
      "midi": 74,
      "hit": false,
      "t": 12335.237395833325,
      "d": 130.8135937499992,
      "v": 90
    },
    {
      "midi": 65,
      "hit": false,
      "t": 12335.237395833326,
      "d": 128.39111979166591,
      "v": 96
    },
    {
      "midi": 79,
      "hit": false,
      "t": 12558.104999999987,
      "d": 123.54617187499935,
      "v": 116
    },
    {
      "midi": 67,
      "hit": false,
      "t": 12558.104999999987,
      "d": 128.39111979166591,
      "v": 115
    },
    {
      "midi": 67,
      "hit": false,
      "t": 12565.37242187499,
      "d": 123.54617187499935,
      "v": 101
    },
    {
      "midi": 72,
      "hit": false,
      "t": 12565.37242187499,
      "d": 125.96864583333263,
      "v": 99
    },
    {
      "midi": 75,
      "hit": false,
      "t": 12567.794895833324,
      "d": 128.39111979166591,
      "v": 102
    },
    {
      "midi": 67,
      "hit": false,
      "t": 12567.794895833325,
      "d": 128.39111979166591,
      "v": 100
    },
    {
      "midi": 34,
      "hit": false,
      "t": 12570.217369791673,
      "d": 469.95994791666635,
      "v": 111
    },
    {
      "midi": 67,
      "hit": false,
      "t": 12790.662499999986,
      "d": 128.39111979166591,
      "v": 110
    },
    {
      "midi": 79,
      "hit": false,
      "t": 12790.662499999986,
      "d": 128.39111979166591,
      "v": 114
    },
    {
      "midi": 67,
      "hit": false,
      "t": 12795.507447916656,
      "d": 128.39111979166591,
      "v": 96
    },
    {
      "midi": 72,
      "hit": false,
      "t": 12797.92992187499,
      "d": 130.8135937499992,
      "v": 93
    },
    {
      "midi": 75,
      "hit": false,
      "t": 12797.92992187499,
      "d": 130.8135937499992,
      "v": 92
    },
    {
      "midi": 67,
      "hit": false,
      "t": 12802.774869791658,
      "d": 128.39111979166591,
      "v": 93
    },
    {
      "midi": 79,
      "hit": false,
      "t": 13023.219999999985,
      "d": 123.54617187499935,
      "v": 112
    },
    {
      "midi": 67,
      "hit": false,
      "t": 13023.219999999985,
      "d": 128.39111979166591,
      "v": 113
    },
    {
      "midi": 72,
      "hit": false,
      "t": 13035.332369791655,
      "d": 125.96864583333263,
      "v": 93
    },
    {
      "midi": 39,
      "hit": false,
      "t": 13037.754843750006,
      "d": 237.40244791666737,
      "v": 107
    },
    {
      "midi": 67,
      "hit": false,
      "t": 13040.177317708321,
      "d": 123.54617187499935,
      "v": 92
    },
    {
      "midi": 75,
      "hit": false,
      "t": 13040.177317708321,
      "d": 125.96864583333263,
      "v": 100
    },
    {
      "midi": 63,
      "hit": false,
      "t": 13042.599791666667,
      "d": 1860.4599999999991,
      "v": 91
    },
    {
      "midi": 67,
      "hit": false,
      "t": 13045.02226562499,
      "d": 123.54617187499935,
      "v": 94
    },
    {
      "midi": 70,
      "hit": false,
      "t": 13045.022265625,
      "d": 1862.8824739583324,
      "v": 97
    },
    {
      "midi": 67,
      "hit": false,
      "t": 13047.444739583334,
      "d": 1860.4599999999991,
      "v": 92
    },
    {
      "midi": 70,
      "hit": false,
      "t": 13139.498749999984,
      "d": 121.12369791666606,
      "v": 113
    },
    {
      "midi": 58,
      "hit": false,
      "t": 13139.498749999984,
      "d": 125.96864583333263,
      "v": 114
    },
    {
      "midi": 67,
      "hit": false,
      "t": 13372.056249999983,
      "d": 128.39111979166591,
      "v": 110
    },
    {
      "midi": 79,
      "hit": false,
      "t": 13372.056249999983,
      "d": 130.8135937499992,
      "v": 110
    },
    {
      "midi": 34,
      "hit": false,
      "t": 13730.58239583334,
      "d": 242.24739583333394,
      "v": 106
    },
    {
      "midi": 39,
      "hit": false,
      "t": 13958.294947916675,
      "d": 242.24739583333394,
      "v": 103
    },
    {
      "midi": 79,
      "hit": false,
      "t": 14418.564999999982,
      "d": 123.54617187499935,
      "v": 111
    },
    {
      "midi": 67,
      "hit": false,
      "t": 14418.564999999982,
      "d": 128.39111979166591,
      "v": 117
    },
    {
      "midi": 72,
      "hit": false,
      "t": 14425.832421874988,
      "d": 125.96864583333263,
      "v": 101
    },
    {
      "midi": 67,
      "hit": false,
      "t": 14425.83242187499,
      "d": 128.39111979166591,
      "v": 94
    },
    {
      "midi": 67,
      "hit": false,
      "t": 14428.254895833321,
      "d": 123.54617187499935,
      "v": 89
    },
    {
      "midi": 39,
      "hit": false,
      "t": 14430.677369791676,
      "d": 469.95994791666635,
      "v": 106
    },
    {
      "midi": 75,
      "hit": false,
      "t": 14433.099843749987,
      "d": 128.39111979166591,
      "v": 99
    },
    {
      "midi": 67,
      "hit": false,
      "t": 14651.122499999981,
      "d": 128.39111979166591,
      "v": 118
    },
    {
      "midi": 79,
      "hit": false,
      "t": 14651.122499999981,
      "d": 128.39111979166591,
      "v": 109
    },
    {
      "midi": 67,
      "hit": false,
      "t": 14653.54497395832,
      "d": 128.39111979166591,
      "v": 100
    },
    {
      "midi": 72,
      "hit": false,
      "t": 14658.389921874987,
      "d": 130.8135937499992,
      "v": 91
    },
    {
      "midi": 75,
      "hit": false,
      "t": 14658.389921874987,
      "d": 130.8135937499992,
      "v": 90
    },
    {
      "midi": 67,
      "hit": false,
      "t": 14660.812395833322,
      "d": 128.39111979166591,
      "v": 98
    },
    {
      "midi": 77,
      "hit": false,
      "t": 14883.67999999998,
      "d": 118.70122395833278,
      "v": 116
    },
    {
      "midi": 65,
      "hit": false,
      "t": 14883.67999999998,
      "d": 125.96864583333263,
      "v": 108
    },
    {
      "midi": 34,
      "hit": false,
      "t": 14893.369895833343,
      "d": 234.97997395833409,
      "v": 106
    },
    {
      "midi": 65,
      "hit": false,
      "t": 14900.637317708319,
      "d": 121.12369791666606,
      "v": 99
    },
    {
      "midi": 70,
      "hit": false,
      "t": 14900.637317708319,
      "d": 123.54617187499935,
      "v": 92
    },
    {
      "midi": 65,
      "hit": false,
      "t": 14900.63731770832,
      "d": 121.12369791666606,
      "v": 101
    },
    {
      "midi": 74,
      "hit": false,
      "t": 14903.059791666652,
      "d": 123.54617187499935,
      "v": 94
    },
    {
      "midi": 65,
      "hit": false,
      "t": 14905.482265625,
      "d": 927.8075260416663,
      "v": 103
    },
    {
      "midi": 62,
      "hit": false,
      "t": 14907.904739583333,
      "d": 932.6524739583328,
      "v": 99
    },
    {
      "midi": 70,
      "hit": false,
      "t": 14910.327213541666,
      "d": 937.4974218749994,
      "v": 101
    },
    {
      "midi": 70,
      "hit": false,
      "t": 14999.95874999998,
      "d": 123.54617187499935,
      "v": 112
    },
    {
      "midi": 58,
      "hit": false,
      "t": 14999.95874999998,
      "d": 128.39111979166591,
      "v": 112
    },
    {
      "midi": 65,
      "hit": false,
      "t": 15232.516249999979,
      "d": 128.39111979166591,
      "v": 116
    },
    {
      "midi": 77,
      "hit": false,
      "t": 15232.516249999979,
      "d": 130.8135937499992,
      "v": 115
    },
    {
      "midi": 41,
      "hit": false,
      "t": 15588.61992187501,
      "d": 472.38242187500146,
      "v": 102
    },
    {
      "midi": 75,
      "hit": false,
      "t": 15813.909999999978,
      "d": 125.96864583333263,
      "v": 117
    },
    {
      "midi": 63,
      "hit": false,
      "t": 15813.909999999978,
      "d": 128.39111979166591,
      "v": 118
    },
    {
      "midi": 63,
      "hit": false,
      "t": 15821.177421874987,
      "d": 128.39111979166591,
      "v": 95
    },
    {
      "midi": 29,
      "hit": false,
      "t": 15821.17742187501,
      "d": 9.68989583333314,
      "v": 103
    },
    {
      "midi": 69,
      "hit": false,
      "t": 15823.599895833318,
      "d": 128.39111979166591,
      "v": 96
    },
    {
      "midi": 72,
      "hit": false,
      "t": 15823.599895833318,
      "d": 128.39111979166591,
      "v": 98
    },
    {
      "midi": 65,
      "hit": false,
      "t": 15826.022369791652,
      "d": 125.96864583333263,
      "v": 96
    },
    {
      "midi": 65,
      "hit": false,
      "t": 15833.289791666666,
      "d": 930.2299999999996,
      "v": 98
    },
    {
      "midi": 60,
      "hit": false,
      "t": 15838.134739583333,
      "d": 927.8075260416663,
      "v": 100
    },
    {
      "midi": 69,
      "hit": false,
      "t": 15840.557213541666,
      "d": 930.2299999999996,
      "v": 98
    },
    {
      "midi": 75,
      "hit": false,
      "t": 16046.467499999977,
      "d": 125.96864583333263,
      "v": 117
    },
    {
      "midi": 63,
      "hit": false,
      "t": 16046.467499999977,
      "d": 128.39111979166591,
      "v": 117
    },
    {
      "midi": 72,
      "hit": false,
      "t": 16051.31244791665,
      "d": 130.8135937499992,
      "v": 90
    },
    {
      "midi": 69,
      "hit": false,
      "t": 16056.157395833317,
      "d": 125.96864583333263,
      "v": 95
    },
    {
      "midi": 65,
      "hit": false,
      "t": 16058.57986979165,
      "d": 125.96864583333263,
      "v": 98
    },
    {
      "midi": 63,
      "hit": false,
      "t": 16061.002343749986,
      "d": 125.96864583333263,
      "v": 98
    },
    {
      "midi": 77,
      "hit": false,
      "t": 16279.024999999976,
      "d": 123.54617187500116,
      "v": 117
    },
    {
      "midi": 65,
      "hit": false,
      "t": 16279.024999999976,
      "d": 128.39111979166773,
      "v": 108
    },
    {
      "midi": 29,
      "hit": false,
      "t": 16283.869947916677,
      "d": 469.95994791666635,
      "v": 103
    },
    {
      "midi": 74,
      "hit": false,
      "t": 16288.714895833316,
      "d": 128.39111979166773,
      "v": 97
    },
    {
      "midi": 70,
      "hit": false,
      "t": 16291.13736979165,
      "d": 123.54617187500116,
      "v": 98
    },
    {
      "midi": 65,
      "hit": false,
      "t": 16291.137369791652,
      "d": 125.96864583333263,
      "v": 103
    },
    {
      "midi": 65,
      "hit": false,
      "t": 16293.559843749983,
      "d": 123.54617187500116,
      "v": 102
    },
    {
      "midi": 65,
      "hit": false,
      "t": 16511.58249999998,
      "d": 128.39111979166773,
      "v": 116
    },
    {
      "midi": 77,
      "hit": false,
      "t": 16511.58249999998,
      "d": 128.39111979166773,
      "v": 110
    },
    {
      "midi": 70,
      "hit": false,
      "t": 16514.00497395832,
      "d": 130.81359375000102,
      "v": 97
    },
    {
      "midi": 74,
      "hit": false,
      "t": 16518.849921874986,
      "d": 130.81359375000102,
      "v": 95
    },
    {
      "midi": 65,
      "hit": false,
      "t": 16521.27239583332,
      "d": 128.39111979166773,
      "v": 103
    },
    {
      "midi": 65,
      "hit": false,
      "t": 16521.27239583332,
      "d": 128.39111979166773,
      "v": 98
    },
    {
      "midi": 77,
      "hit": false,
      "t": 16744.13999999998,
      "d": 121.12369791666788,
      "v": 110
    },
    {
      "midi": 65,
      "hit": false,
      "t": 16744.13999999998,
      "d": 125.96864583333445,
      "v": 109
    },
    {
      "midi": 65,
      "hit": false,
      "t": 16753.82989583332,
      "d": 121.12369791666788,
      "v": 91
    },
    {
      "midi": 65,
      "hit": false,
      "t": 16756.252369791655,
      "d": 121.12369791666788,
      "v": 97
    },
    {
      "midi": 34,
      "hit": false,
      "t": 16756.252369791677,
      "d": 237.40244791666555,
      "v": 106
    },
    {
      "midi": 70,
      "hit": false,
      "t": 16758.67484374999,
      "d": 123.54617187500116,
      "v": 91
    },
    {
      "midi": 74,
      "hit": false,
      "t": 16758.67484374999,
      "d": 125.96864583333445,
      "v": 97
    },
    {
      "midi": 65,
      "hit": false,
      "t": 16763.519791666666,
      "d": 1858.0375260416658,
      "v": 95
    },
    {
      "midi": 70,
      "hit": false,
      "t": 16763.519791666666,
      "d": 1858.0375260416658,
      "v": 98
    },
    {
      "midi": 62,
      "hit": false,
      "t": 16768.364739583332,
      "d": 1855.6150520833326,
      "v": 98
    },
    {
      "midi": 70,
      "hit": false,
      "t": 16860.418749999983,
      "d": 123.54617187500116,
      "v": 114
    },
    {
      "midi": 58,
      "hit": false,
      "t": 16860.418749999983,
      "d": 128.39111979166773,
      "v": 113
    },
    {
      "midi": 65,
      "hit": false,
      "t": 17092.976249999985,
      "d": 113.85627604166802,
      "v": 118
    },
    {
      "midi": 77,
      "hit": false,
      "t": 17092.976249999985,
      "d": 116.27875000000131,
      "v": 111
    },
    {
      "midi": 77,
      "hit": false,
      "t": 17209.254999999986,
      "d": 125.96864583333445,
      "v": 117
    },
    {
      "midi": 65,
      "hit": false,
      "t": 17209.254999999986,
      "d": 128.39111979166773,
      "v": 115
    },
    {
      "midi": 29,
      "hit": false,
      "t": 17444.234973958344,
      "d": 242.24739583333212,
      "v": 111
    },
    {
      "midi": 34,
      "hit": false,
      "t": 17681.63742187501,
      "d": 242.24739583333212,
      "v": 105
    },
    {
      "midi": 72,
      "hit": false,
      "t": 18139.485,
      "d": 94.47648437500175,
      "v": 113
    },
    {
      "midi": 34,
      "hit": false,
      "t": 18151.597369791674,
      "d": 467.5374739583349,
      "v": 103
    },
    {
      "midi": 74,
      "hit": false,
      "t": 18372.042500000003,
      "d": 94.47648437500175,
      "v": 112
    },
    {
      "midi": 77,
      "hit": false,
      "t": 18604.599999999988,
      "d": 121.12369791666788,
      "v": 108
    },
    {
      "midi": 65,
      "hit": false,
      "t": 18604.599999999988,
      "d": 125.96864583333445,
      "v": 113
    },
    {
      "midi": 74,
      "hit": false,
      "t": 18604.600000000006,
      "d": 225.29007812499913,
      "v": 108
    },
    {
      "midi": 34,
      "hit": false,
      "t": 18619.13484375001,
      "d": 234.97997395833227,
      "v": 104
    },
    {
      "midi": 65,
      "hit": false,
      "t": 18623.979791666665,
      "d": 1865.3049479166657,
      "v": 96
    },
    {
      "midi": 62,
      "hit": false,
      "t": 18623.979791666665,
      "d": 1867.727421874999,
      "v": 102
    },
    {
      "midi": 70,
      "hit": false,
      "t": 18626.402265624998,
      "d": 1855.6150520833326,
      "v": 93
    },
    {
      "midi": 58,
      "hit": false,
      "t": 18720.87874999999,
      "d": 128.39111979166773,
      "v": 107
    },
    {
      "midi": 70,
      "hit": false,
      "t": 18720.87874999999,
      "d": 128.39111979166773,
      "v": 116
    },
    {
      "midi": 65,
      "hit": false,
      "t": 18953.43624999999,
      "d": 128.39111979166773,
      "v": 115
    },
    {
      "midi": 77,
      "hit": false,
      "t": 18953.43624999999,
      "d": 130.81359375000102,
      "v": 116
    },
    {
      "midi": 74,
      "hit": false,
      "t": 18953.436250000006,
      "d": 142.92596354166744,
      "v": 115
    },
    {
      "midi": 72,
      "hit": false,
      "t": 19302.272500000006,
      "d": 111.43380208333474,
      "v": 116
    },
    {
      "midi": 29,
      "hit": false,
      "t": 19311.962395833343,
      "d": 242.24739583333212,
      "v": 110
    },
    {
      "midi": 70,
      "hit": false,
      "t": 19534.83000000001,
      "d": 205.91028645833285,
      "v": 113
    },
    {
      "midi": 34,
      "hit": false,
      "t": 19537.252473958342,
      "d": 242.24739583333212,
      "v": 103
    },
    {
      "midi": 69,
      "hit": false,
      "t": 19999.945000000007,
      "d": 159.88328125000044,
      "v": 116
    },
    {
      "midi": 34,
      "hit": false,
      "t": 20009.63489583334,
      "d": 469.95994791666817,
      "v": 111
    },
    {
      "midi": 67,
      "hit": false,
      "t": 20232.502500000006,
      "d": 266.47213541666497,
      "v": 114
    },
    {
      "midi": 79,
      "hit": false,
      "t": 20465.059999999994,
      "d": 123.54617187500116,
      "v": 110
    },
    {
      "midi": 67,
      "hit": false,
      "t": 20465.059999999994,
      "d": 125.96864583333445,
      "v": 109
    },
    {
      "midi": 67,
      "hit": false,
      "t": 20479.594843749997,
      "d": 1865.3049479166657,
      "v": 92
    },
    {
      "midi": 39,
      "hit": false,
      "t": 20479.59484375001,
      "d": 237.40244791666555,
      "v": 111
    },
    {
      "midi": 70,
      "hit": false,
      "t": 20482.01731770833,
      "d": 1860.4599999999991,
      "v": 102
    },
    {
      "midi": 63,
      "hit": false,
      "t": 20482.01731770833,
      "d": 1862.8824739583324,
      "v": 97
    },
    {
      "midi": 58,
      "hit": false,
      "t": 20581.338749999995,
      "d": 128.39111979166773,
      "v": 114
    },
    {
      "midi": 70,
      "hit": false,
      "t": 20581.338749999995,
      "d": 128.39111979166773,
      "v": 109
    },
    {
      "midi": 70,
      "hit": false,
      "t": 20697.617500000004,
      "d": 147.770911458334,
      "v": 111
    },
    {
      "midi": 67,
      "hit": false,
      "t": 20813.896249999998,
      "d": 128.39111979166773,
      "v": 107
    },
    {
      "midi": 79,
      "hit": false,
      "t": 20813.896249999998,
      "d": 130.81359375000102,
      "v": 107
    },
    {
      "midi": 70,
      "hit": false,
      "t": 21162.732500000006,
      "d": 121.12369791666788,
      "v": 114
    },
    {
      "midi": 34,
      "hit": false,
      "t": 21169.99992187501,
      "d": 244.6698697916654,
      "v": 111
    },
    {
      "midi": 39,
      "hit": false,
      "t": 21400.134947916675,
      "d": 239.82492187499884,
      "v": 106
    },
    {
      "midi": 70,
      "hit": false,
      "t": 21627.847500000007,
      "d": 111.43380208333474,
      "v": 115
    },
    {
      "midi": 75,
      "hit": false,
      "t": 21860.40500000001,
      "d": 111.43380208333474,
      "v": 110
    },
    {
      "midi": 39,
      "hit": false,
      "t": 21872.517369791673,
      "d": 469.95994791666817,
      "v": 104
    },
    {
      "midi": 75,
      "hit": false,
      "t": 22092.962500000012,
      "d": 118.7012239583346,
      "v": 108
    },
    {
      "midi": 77,
      "hit": false,
      "t": 22325.52,
      "d": 121.12369791666788,
      "v": 115
    },
    {
      "midi": 65,
      "hit": false,
      "t": 22325.52,
      "d": 125.96864583333445,
      "v": 108
    },
    {
      "midi": 74,
      "hit": false,
      "t": 22325.520000000015,
      "d": 116.27875000000131,
      "v": 115
    },
    {
      "midi": 34,
      "hit": false,
      "t": 22335.20989583334,
      "d": 234.97997395833227,
      "v": 101
    },
    {
      "midi": 65,
      "hit": false,
      "t": 22342.47731770833,
      "d": 1858.0375260416658,
      "v": 98
    },
    {
      "midi": 62,
      "hit": false,
      "t": 22347.322265624996,
      "d": 1862.8824739583324,
      "v": 94
    },
    {
      "midi": 70,
      "hit": false,
      "t": 22349.74473958333,
      "d": 1867.727421874999,
      "v": 93
    },
    {
      "midi": 58,
      "hit": false,
      "t": 22441.79875,
      "d": 128.39111979166773,
      "v": 107
    },
    {
      "midi": 70,
      "hit": false,
      "t": 22441.79875,
      "d": 128.39111979166773,
      "v": 109
    },
    {
      "midi": 74,
      "hit": false,
      "t": 22558.077500000018,
      "d": 75.09669270833183,
      "v": 113
    },
    {
      "midi": 65,
      "hit": false,
      "t": 22674.356250000004,
      "d": 128.39111979166773,
      "v": 110
    },
    {
      "midi": 77,
      "hit": false,
      "t": 22674.356250000004,
      "d": 130.81359375000102,
      "v": 109
    },
    {
      "midi": 74,
      "hit": false,
      "t": 22790.635000000017,
      "d": 79.9416406249984,
      "v": 111
    },
    {
      "midi": 70,
      "hit": false,
      "t": 23023.192500000016,
      "d": 79.9416406249984,
      "v": 113
    },
    {
      "midi": 29,
      "hit": false,
      "t": 23030.459921875008,
      "d": 242.24739583333212,
      "v": 101
    },
    {
      "midi": 72,
      "hit": false,
      "t": 23255.750000000015,
      "d": 116.27875000000131,
      "v": 115
    },
    {
      "midi": 34,
      "hit": false,
      "t": 23260.594947916674,
      "d": 244.6698697916654,
      "v": 107
    },
    {
      "midi": 74,
      "hit": false,
      "t": 23488.307500000017,
      "d": 135.6585416666676,
      "v": 112
    },
    {
      "midi": 34,
      "hit": false,
      "t": 23728.132421875005,
      "d": 469.95994791666817,
      "v": 109
    },
    {
      "midi": 72,
      "hit": false,
      "t": 23953.42250000002,
      "d": 171.99565104166686,
      "v": 112
    },
    {
      "midi": 77,
      "hit": false,
      "t": 24185.980000000007,
      "d": 121.12369791666788,
      "v": 109
    },
    {
      "midi": 65,
      "hit": false,
      "t": 24185.980000000007,
      "d": 125.96864583333445,
      "v": 109
    },
    {
      "midi": 29,
      "hit": false,
      "t": 24198.092369791673,
      "d": 237.40244791666555,
      "v": 108
    },
    {
      "midi": 60,
      "hit": false,
      "t": 24200.514843749996,
      "d": 1862.8824739583324,
      "v": 101
    },
    {
      "midi": 65,
      "hit": false,
      "t": 24202.93731770833,
      "d": 1862.8824739583324,
      "v": 92
    },
    {
      "midi": 69,
      "hit": false,
      "t": 24207.782265624995,
      "d": 1867.727421874999,
      "v": 96
    },
    {
      "midi": 60,
      "hit": false,
      "t": 24302.258750000008,
      "d": 128.39111979166773,
      "v": 118
    },
    {
      "midi": 72,
      "hit": false,
      "t": 24302.258750000008,
      "d": 128.39111979166773,
      "v": 107
    },
    {
      "midi": 65,
      "hit": false,
      "t": 24534.81625000001,
      "d": 128.39111979166773,
      "v": 107
    },
    {
      "midi": 77,
      "hit": false,
      "t": 24534.81625000001,
      "d": 130.81359375000102,
      "v": 111
    },
    {
      "midi": 41,
      "hit": false,
      "t": 24888.49744791667,
      "d": 477.2273697916644,
      "v": 103
    },
    {
      "midi": 29,
      "hit": false,
      "t": 25123.477421875003,
      "d": 7.2674218749998545,
      "v": 104
    },
    {
      "midi": 74,
      "hit": false,
      "t": 25581.32500000002,
      "d": 104.16638020833489,
      "v": 117
    },
    {
      "midi": 29,
      "hit": false,
      "t": 25586.169947916667,
      "d": 469.95994791666817,
      "v": 104
    },
    {
      "midi": 74,
      "hit": false,
      "t": 25813.88250000002,
      "d": 62.984322916665406,
      "v": 115
    },
    {
      "midi": 77,
      "hit": false,
      "t": 26046.440000000013,
      "d": 121.12369791666788,
      "v": 118
    },
    {
      "midi": 65,
      "hit": false,
      "t": 26046.440000000013,
      "d": 125.96864583333445,
      "v": 110
    },
    {
      "midi": 74,
      "hit": false,
      "t": 26046.44000000002,
      "d": 239.82492187499884,
      "v": 112
    },
    {
      "midi": 34,
      "hit": false,
      "t": 26056.129895833335,
      "d": 234.97997395833227,
      "v": 106
    },
    {
      "midi": 70,
      "hit": false,
      "t": 26063.397317708328,
      "d": 1858.0375260416658,
      "v": 103
    },
    {
      "midi": 62,
      "hit": false,
      "t": 26063.397317708328,
      "d": 1862.8824739583324,
      "v": 97
    },
    {
      "midi": 65,
      "hit": false,
      "t": 26068.242265624995,
      "d": 1862.8824739583324,
      "v": 101
    },
    {
      "midi": 58,
      "hit": false,
      "t": 26162.718750000015,
      "d": 128.39111979166773,
      "v": 112
    },
    {
      "midi": 70,
      "hit": false,
      "t": 26162.718750000015,
      "d": 128.39111979166773,
      "v": 107
    },
    {
      "midi": 65,
      "hit": false,
      "t": 26395.276250000017,
      "d": 128.39111979166773,
      "v": 107
    },
    {
      "midi": 77,
      "hit": false,
      "t": 26395.276250000017,
      "d": 128.39111979166773,
      "v": 111
    },
    {
      "midi": 74,
      "hit": false,
      "t": 26395.27625000002,
      "d": 128.39111979166773,
      "v": 112
    },
    {
      "midi": 72,
      "hit": false,
      "t": 26744.11250000002,
      "d": 111.43380208333474,
      "v": 116
    },
    {
      "midi": 29,
      "hit": false,
      "t": 26753.802395833336,
      "d": 242.24739583333212,
      "v": 105
    },
    {
      "midi": 70,
      "hit": false,
      "t": 26976.670000000024,
      "d": 220.44513020833256,
      "v": 114
    },
    {
      "midi": 34,
      "hit": false,
      "t": 26986.359895833335,
      "d": 242.24739583333212,
      "v": 111
    },
    {
      "midi": 69,
      "hit": false,
      "t": 27441.78500000002,
      "d": 123.54617187500116,
      "v": 114
    },
    {
      "midi": 34,
      "hit": false,
      "t": 27446.629947916666,
      "d": 469.95994791666817,
      "v": 105
    },
    {
      "midi": 67,
      "hit": false,
      "t": 27674.342500000024,
      "d": 276.16203125000175,
      "v": 108
    },
    {
      "midi": 79,
      "hit": false,
      "t": 27906.90000000002,
      "d": 121.12369791666788,
      "v": 113
    },
    {
      "midi": 67,
      "hit": false,
      "t": 27906.90000000002,
      "d": 125.96864583333445,
      "v": 117
    },
    {
      "midi": 39,
      "hit": false,
      "t": 27914.167421875,
      "d": 237.40244791666555,
      "v": 106
    },
    {
      "midi": 63,
      "hit": false,
      "t": 27921.434843749994,
      "d": 1862.8824739583324,
      "v": 95
    },
    {
      "midi": 67,
      "hit": false,
      "t": 27928.702265624994,
      "d": 935.0749479166661,
      "v": 102
    },
    {
      "midi": 70,
      "hit": false,
      "t": 27928.702265624994,
      "d": 1855.6150520833326,
      "v": 100
    },
    {
      "midi": 58,
      "hit": false,
      "t": 28023.17875000002,
      "d": 128.39111979166773,
      "v": 110
    },
    {
      "midi": 70,
      "hit": false,
      "t": 28023.17875000002,
      "d": 128.39111979166773,
      "v": 108
    },
    {
      "midi": 70,
      "hit": false,
      "t": 28139.457500000026,
      "d": 138.08101562500087,
      "v": 111
    },
    {
      "midi": 67,
      "hit": false,
      "t": 28255.736250000024,
      "d": 128.39111979166773,
      "v": 111
    },
    {
      "midi": 79,
      "hit": false,
      "t": 28255.736250000024,
      "d": 130.81359375000102,
      "v": 110
    },
    {
      "midi": 70,
      "hit": false,
      "t": 28604.572500000028,
      "d": 147.770911458334,
      "v": 112
    },
    {
      "midi": 34,
      "hit": false,
      "t": 28606.994973958335,
      "d": 242.24739583333212,
      "v": 107
    },
    {
      "midi": 39,
      "hit": false,
      "t": 28844.397421875,
      "d": 242.24739583333212,
      "v": 106
    },
    {
      "midi": 66,
      "hit": false,
      "t": 28849.24236979166,
      "d": 942.342369791666,
      "v": 93
    },
    {
      "midi": 75,
      "hit": false,
      "t": 29069.68750000003,
      "d": 101.7439062500016,
      "v": 110
    },
    {
      "midi": 75,
      "hit": false,
      "t": 29302.24500000003,
      "d": 116.27875000000131,
      "v": 116
    },
    {
      "midi": 39,
      "hit": false,
      "t": 29311.934895833332,
      "d": 469.95994791666817,
      "v": 101
    },
    {
      "midi": 75,
      "hit": false,
      "t": 29534.802500000034,
      "d": 89.63153645833154,
      "v": 109
    },
    {
      "midi": 77,
      "hit": false,
      "t": 29767.360000000026,
      "d": 121.12369791666788,
      "v": 113
    },
    {
      "midi": 65,
      "hit": false,
      "t": 29767.360000000026,
      "d": 125.96864583333445,
      "v": 118
    },
    {
      "midi": 74,
      "hit": false,
      "t": 29767.360000000033,
      "d": 121.12369791666788,
      "v": 116
    },
    {
      "midi": 34,
      "hit": false,
      "t": 29779.472369791667,
      "d": 237.40244791666555,
      "v": 104
    },
    {
      "midi": 62,
      "hit": false,
      "t": 29784.317317708326,
      "d": 932.6524739583328,
      "v": 104
    },
    {
      "midi": 70,
      "hit": false,
      "t": 29784.317317708326,
      "d": 935.0749479166661,
      "v": 91
    },
    {
      "midi": 65,
      "hit": false,
      "t": 29789.162265624993,
      "d": 922.9625781249997,
      "v": 97
    },
    {
      "midi": 58,
      "hit": false,
      "t": 29883.638750000027,
      "d": 130.81359375000102,
      "v": 111
    },
    {
      "midi": 70,
      "hit": false,
      "t": 29883.638750000027,
      "d": 130.81359375000102,
      "v": 113
    },
    {
      "midi": 74,
      "hit": false,
      "t": 29999.917500000036,
      "d": 77.51916666666511,
      "v": 110
    },
    {
      "midi": 65,
      "hit": false,
      "t": 30116.19625000003,
      "d": 128.39111979166773,
      "v": 108
    },
    {
      "midi": 77,
      "hit": false,
      "t": 30116.19625000003,
      "d": 130.81359375000102,
      "v": 113
    },
    {
      "midi": 74,
      "hit": false,
      "t": 30232.475000000035,
      "d": 109.01132812500146,
      "v": 113
    },
    {
      "midi": 70,
      "hit": false,
      "t": 30465.032500000038,
      "d": 106.58885416666817,
      "v": 109
    },
    {
      "midi": 41,
      "hit": false,
      "t": 30467.45497395833,
      "d": 479.6498437499977,
      "v": 108
    },
    {
      "midi": 72,
      "hit": false,
      "t": 30697.59000000004,
      "d": 147.770911458334,
      "v": 111
    },
    {
      "midi": 29,
      "hit": false,
      "t": 30704.857421874996,
      "d": 4.84494791666657,
      "v": 103
    },
    {
      "midi": 65,
      "hit": false,
      "t": 30712.124843749993,
      "d": 930.2299999999996,
      "v": 99
    },
    {
      "midi": 60,
      "hit": false,
      "t": 30716.96979166666,
      "d": 935.0749479166661,
      "v": 92
    },
    {
      "midi": 69,
      "hit": false,
      "t": 30721.814739583326,
      "d": 937.4974218749994,
      "v": 95
    },
    {
      "midi": 72,
      "hit": false,
      "t": 31046.42625000004,
      "d": 150.1933854166673,
      "v": 115
    },
    {
      "midi": 29,
      "hit": false,
      "t": 31169.972421874994,
      "d": 469.95994791666817,
      "v": 108
    },
    {
      "midi": 70,
      "hit": false,
      "t": 31395.26250000004,
      "d": 157.46080729166715,
      "v": 110
    },
    {
      "midi": 77,
      "hit": false,
      "t": 31627.820000000032,
      "d": 121.12369791666788,
      "v": 115
    },
    {
      "midi": 65,
      "hit": false,
      "t": 31627.820000000032,
      "d": 125.96864583333445,
      "v": 117
    },
    {
      "midi": 34,
      "hit": false,
      "t": 31635.087421874996,
      "d": 237.40244791666555,
      "v": 101
    },
    {
      "midi": 62,
      "hit": false,
      "t": 31642.354843749992,
      "d": 1860.4599999999991,
      "v": 101
    },
    {
      "midi": 65,
      "hit": false,
      "t": 31642.354843749992,
      "d": 1862.882473958336,
      "v": 93
    },
    {
      "midi": 70,
      "hit": false,
      "t": 31642.354843749992,
      "d": 1865.304947916673,
      "v": 105
    },
    {
      "midi": 65,
      "hit": false,
      "t": 31976.656250000033,
      "d": 128.39111979166773,
      "v": 114
    },
    {
      "midi": 77,
      "hit": false,
      "t": 31976.656250000033,
      "d": 130.81359375000102,
      "v": 111
    },
    {
      "midi": 29,
      "hit": false,
      "t": 32332.759921874997,
      "d": 242.24739583333212,
      "v": 109
    },
    {
      "midi": 34,
      "hit": false,
      "t": 32567.73989583333,
      "d": 242.24739583333576,
      "v": 101
    },
    {
      "midi": 74,
      "hit": false,
      "t": 33023.165000000045,
      "d": 113.85627604166802,
      "v": 108
    },
    {
      "midi": 34,
      "hit": false,
      "t": 33030.432421875,
      "d": 469.95994791666453,
      "v": 104
    },
    {
      "midi": 74,
      "hit": false,
      "t": 33255.72250000005,
      "d": 104.16638020833489,
      "v": 111
    },
    {
      "midi": 77,
      "hit": false,
      "t": 33488.280000000035,
      "d": 121.12369791666424,
      "v": 107
    },
    {
      "midi": 65,
      "hit": false,
      "t": 33488.280000000035,
      "d": 125.96864583333081,
      "v": 109
    },
    {
      "midi": 74,
      "hit": false,
      "t": 33488.28000000005,
      "d": 181.685546875,
      "v": 116
    },
    {
      "midi": 62,
      "hit": false,
      "t": 33502.81484374999,
      "d": 1865.3049479166802,
      "v": 101
    },
    {
      "midi": 34,
      "hit": false,
      "t": 33502.81484375,
      "d": 234.97997395833227,
      "v": 103
    },
    {
      "midi": 65,
      "hit": false,
      "t": 33507.659791666665,
      "d": 1865.304947916673,
      "v": 96
    },
    {
      "midi": 70,
      "hit": false,
      "t": 33514.92721354167,
      "d": 1850.770104166666,
      "v": 98
    },
    {
      "midi": 58,
      "hit": false,
      "t": 33604.55875000003,
      "d": 128.39111979166773,
      "v": 113
    },
    {
      "midi": 70,
      "hit": false,
      "t": 33604.55875000003,
      "d": 128.39111979166773,
      "v": 118
    },
    {
      "midi": 65,
      "hit": false,
      "t": 33837.116250000036,
      "d": 128.39111979166773,
      "v": 113
    },
    {
      "midi": 77,
      "hit": false,
      "t": 33837.116250000036,
      "d": 130.81359375000466,
      "v": 107
    },
    {
      "midi": 74,
      "hit": false,
      "t": 33837.11625000005,
      "d": 133.2360677083343,
      "v": 109
    },
    {
      "midi": 72,
      "hit": false,
      "t": 34185.95250000005,
      "d": 113.85627604166802,
      "v": 115
    },
    {
      "midi": 29,
      "hit": false,
      "t": 34188.37497395833,
      "d": 242.24739583333576,
      "v": 107
    },
    {
      "midi": 70,
      "hit": false,
      "t": 34418.51000000005,
      "d": 176.84059895833343,
      "v": 110
    },
    {
      "midi": 34,
      "hit": false,
      "t": 34425.777421875,
      "d": 242.24739583333576,
      "v": 102
    },
    {
      "midi": 69,
      "hit": false,
      "t": 34883.62500000005,
      "d": 121.12369791666424,
      "v": 114
    },
    {
      "midi": 34,
      "hit": false,
      "t": 34893.31489583333,
      "d": 469.95994791666453,
      "v": 104
    },
    {
      "midi": 67,
      "hit": false,
      "t": 35116.182500000046,
      "d": 251.9372916666689,
      "v": 111
    },
    {
      "midi": 79,
      "hit": false,
      "t": 35348.74000000004,
      "d": 123.54617187500116,
      "v": 113
    },
    {
      "midi": 67,
      "hit": false,
      "t": 35348.74000000004,
      "d": 125.96864583333809,
      "v": 115
    },
    {
      "midi": 39,
      "hit": false,
      "t": 35358.42989583333,
      "d": 237.4024479166692,
      "v": 101
    },
    {
      "midi": 70,
      "hit": false,
      "t": 35365.697317708335,
      "d": 1860.4600000000064,
      "v": 103
    },
    {
      "midi": 67,
      "hit": false,
      "t": 35365.697317708335,
      "d": 1865.304947916673,
      "v": 99
    },
    {
      "midi": 63,
      "hit": false,
      "t": 35368.11979166667,
      "d": 1862.882473958336,
      "v": 94
    },
    {
      "midi": 58,
      "hit": false,
      "t": 35465.01875000004,
      "d": 128.391119791675,
      "v": 109
    },
    {
      "midi": 70,
      "hit": false,
      "t": 35465.01875000004,
      "d": 128.391119791675,
      "v": 116
    },
    {
      "midi": 70,
      "hit": false,
      "t": 35581.29750000005,
      "d": 167.1507031250003,
      "v": 110
    },
    {
      "midi": 67,
      "hit": false,
      "t": 35697.57625000005,
      "d": 128.39111979166773,
      "v": 110
    },
    {
      "midi": 79,
      "hit": false,
      "t": 35697.57625000005,
      "d": 130.81359375000466,
      "v": 119
    },
    {
      "midi": 70,
      "hit": false,
      "t": 36046.41250000005,
      "d": 150.19338541666366,
      "v": 114
    },
    {
      "midi": 34,
      "hit": false,
      "t": 36048.834973958335,
      "d": 242.24739583333576,
      "v": 106
    },
    {
      "midi": 39,
      "hit": false,
      "t": 36288.659895833334,
      "d": 242.24739583333576,
      "v": 105
    },
    {
      "midi": 70,
      "hit": false,
      "t": 36511.52750000005,
      "d": 140.50348958333052,
      "v": 112
    },
    {
      "midi": 75,
      "hit": false,
      "t": 36744.08500000004,
      "d": 138.08101562500087,
      "v": 110
    },
    {
      "midi": 39,
      "hit": false,
      "t": 36748.92994791667,
      "d": 469.95994791666453,
      "v": 109
    },
    {
      "midi": 74,
      "hit": false,
      "t": 37209.20000000004,
      "d": 125.96864583333081,
      "v": 111
    },
    {
      "midi": 77,
      "hit": false,
      "t": 37209.200000000055,
      "d": 121.12369791666424,
      "v": 118
    },
    {
      "midi": 65,
      "hit": false,
      "t": 37209.200000000055,
      "d": 125.96864583333081,
      "v": 109
    },
    {
      "midi": 34,
      "hit": false,
      "t": 37226.15731770834,
      "d": 234.97997395833227,
      "v": 102
    },
    {
      "midi": 62,
      "hit": false,
      "t": 37231.00226562501,
      "d": 1862.8824739583433,
      "v": 102
    },
    {
      "midi": 65,
      "hit": false,
      "t": 37233.424739583344,
      "d": 1858.0375260416695,
      "v": 93
    },
    {
      "midi": 70,
      "hit": false,
      "t": 37233.424739583344,
      "d": 1867.72742187501,
      "v": 93
    },
    {
      "midi": 58,
      "hit": false,
      "t": 37325.47875000005,
      "d": 128.39111979166773,
      "v": 118
    },
    {
      "midi": 70,
      "hit": false,
      "t": 37325.47875000005,
      "d": 128.39111979166773,
      "v": 115
    },
    {
      "midi": 74,
      "hit": false,
      "t": 37441.757500000036,
      "d": 101.74390624999796,
      "v": 108
    },
    {
      "midi": 65,
      "hit": false,
      "t": 37558.036250000056,
      "d": 128.39111979166773,
      "v": 107
    },
    {
      "midi": 77,
      "hit": false,
      "t": 37558.036250000056,
      "d": 130.81359375000466,
      "v": 113
    },
    {
      "midi": 74,
      "hit": false,
      "t": 37674.31500000003,
      "d": 111.4338020833311,
      "v": 116
    },
    {
      "midi": 70,
      "hit": false,
      "t": 37906.87250000003,
      "d": 99.32143229166832,
      "v": 116
    },
    {
      "midi": 29,
      "hit": false,
      "t": 37909.29497395834,
      "d": 242.24739583333576,
      "v": 101
    },
    {
      "midi": 72,
      "hit": false,
      "t": 38139.43000000003,
      "d": 116.27874999999767,
      "v": 114
    },
    {
      "midi": 34,
      "hit": false,
      "t": 38141.852473958344,
      "d": 242.24739583333576,
      "v": 104
    },
    {
      "midi": 74,
      "hit": false,
      "t": 38371.987500000025,
      "d": 147.770911458334,
      "v": 115
    },
    {
      "midi": 34,
      "hit": false,
      "t": 38609.38994791668,
      "d": 469.95994791666453,
      "v": 102
    },
    {
      "midi": 72,
      "hit": false,
      "t": 38837.10250000002,
      "d": 188.9529687500035,
      "v": 112
    },
    {
      "midi": 77,
      "hit": false,
      "t": 39069.66000000006,
      "d": 121.12369791666424,
      "v": 113
    },
    {
      "midi": 65,
      "hit": false,
      "t": 39069.66000000006,
      "d": 125.96864583333081,
      "v": 107
    },
    {
      "midi": 29,
      "hit": false,
      "t": 39081.77236979168,
      "d": 237.4024479166692,
      "v": 105
    },
    {
      "midi": 69,
      "hit": false,
      "t": 39089.03979166668,
      "d": 1867.7274218750244,
      "v": 104
    },
    {
      "midi": 65,
      "hit": false,
      "t": 39091.462265625014,
      "d": 1860.4600000000137,
      "v": 91
    },
    {
      "midi": 60,
      "hit": false,
      "t": 39091.462265625014,
      "d": 1862.8824739583506,
      "v": 100
    },
    {
      "midi": 60,
      "hit": false,
      "t": 39185.93875000006,
      "d": 128.39111979166773,
      "v": 114
    },
    {
      "midi": 72,
      "hit": false,
      "t": 39185.93875000006,
      "d": 128.39111979166773,
      "v": 110
    },
    {
      "midi": 65,
      "hit": false,
      "t": 39418.49625000006,
      "d": 128.39111979166773,
      "v": 108
    },
    {
      "midi": 77,
      "hit": false,
      "t": 39418.49625000006,
      "d": 130.81359375000466,
      "v": 116
    },
    {
      "midi": 41,
      "hit": false,
      "t": 39772.177447916685,
      "d": 474.8048958333384,
      "v": 106
    },
    {
      "midi": 29,
      "hit": false,
      "t": 40007.15742187502,
      "d": 7.2674218750034925,
      "v": 107
    },
    {
      "midi": 74,
      "hit": false,
      "t": 40232.447500000024,
      "d": 118.7012239583346,
      "v": 115
    },
    {
      "midi": 74,
      "hit": false,
      "t": 40465.00500000003,
      "d": 118.7012239583346,
      "v": 111
    },
    {
      "midi": 29,
      "hit": false,
      "t": 40474.69489583336,
      "d": 469.95994791666453,
      "v": 104
    },
    {
      "midi": 74,
      "hit": false,
      "t": 40697.56250000003,
      "d": 125.96864583333081,
      "v": 110
    },
    {
      "midi": 74,
      "hit": false,
      "t": 40930.120000000024,
      "d": 205.91028645833285,
      "v": 108
    },
    {
      "midi": 77,
      "hit": false,
      "t": 40930.12000000007,
      "d": 121.12369791666424,
      "v": 108
    },
    {
      "midi": 65,
      "hit": false,
      "t": 40930.12000000007,
      "d": 125.96864583333081,
      "v": 112
    },
    {
      "midi": 34,
      "hit": false,
      "t": 40939.80989583336,
      "d": 234.97997395833227,
      "v": 107
    },
    {
      "midi": 62,
      "hit": false,
      "t": 40944.654843750024,
      "d": 1862.8824739583506,
      "v": 95
    },
    {
      "midi": 70,
      "hit": false,
      "t": 40951.92226562503,
      "d": 1860.4600000000137,
      "v": 102
    },
    {
      "midi": 65,
      "hit": false,
      "t": 40951.92226562503,
      "d": 1862.8824739583506,
      "v": 101
    },
    {
      "midi": 58,
      "hit": false,
      "t": 41046.398750000066,
      "d": 128.39111979166773,
      "v": 113
    },
    {
      "midi": 70,
      "hit": false,
      "t": 41046.398750000066,
      "d": 128.39111979166773,
      "v": 110
    },
    {
      "midi": 74,
      "hit": false,
      "t": 41278.956250000025,
      "d": 196.2203906249997,
      "v": 115
    },
    {
      "midi": 65,
      "hit": false,
      "t": 41278.95625000007,
      "d": 128.39111979166773,
      "v": 113
    },
    {
      "midi": 77,
      "hit": false,
      "t": 41278.95625000007,
      "d": 130.81359375000466,
      "v": 116
    },
    {
      "midi": 72,
      "hit": false,
      "t": 41627.792500000025,
      "d": 167.1507031250003,
      "v": 108
    },
    {
      "midi": 29,
      "hit": false,
      "t": 41635.05992187502,
      "d": 242.24739583333576,
      "v": 107
    },
    {
      "midi": 70,
      "hit": false,
      "t": 41860.35000000003,
      "d": 276.16203125000175,
      "v": 110
    },
    {
      "midi": 34,
      "hit": false,
      "t": 41865.19494791669,
      "d": 242.24739583333576,
      "v": 107
    },
    {
      "midi": 69,
      "hit": false,
      "t": 42325.46500000003,
      "d": 167.1507031250003,
      "v": 116
    },
    {
      "midi": 34,
      "hit": false,
      "t": 42335.15489583336,
      "d": 469.9599479166718,
      "v": 109
    },
    {
      "midi": 67,
      "hit": false,
      "t": 42558.022500000036,
      "d": 443.31273437500204,
      "v": 111
    },
    {
      "midi": 79,
      "hit": false,
      "t": 42790.580000000075,
      "d": 121.12369791666424,
      "v": 111
    },
    {
      "midi": 67,
      "hit": false,
      "t": 42790.580000000075,
      "d": 125.96864583333081,
      "v": 107
    },
    {
      "midi": 39,
      "hit": false,
      "t": 42802.69236979169,
      "d": 237.4024479166692,
      "v": 109
    },
    {
      "midi": 63,
      "hit": false,
      "t": 42805.11484375004,
      "d": 1862.8824739583506,
      "v": 95
    },
    {
      "midi": 67,
      "hit": false,
      "t": 42807.537317708375,
      "d": 935.074947916677,
      "v": 96
    },
    {
      "midi": 70,
      "hit": false,
      "t": 42814.80473958338,
      "d": 1858.037526041684,
      "v": 98
    },
    {
      "midi": 58,
      "hit": false,
      "t": 42906.85875000007,
      "d": 128.39111979166773,
      "v": 110
    },
    {
      "midi": 70,
      "hit": false,
      "t": 42906.85875000007,
      "d": 128.39111979166773,
      "v": 109
    },
    {
      "midi": 70,
      "hit": false,
      "t": 43023.13750000004,
      "d": 244.6698697916654,
      "v": 114
    },
    {
      "midi": 67,
      "hit": false,
      "t": 43139.416250000075,
      "d": 128.39111979166773,
      "v": 115
    },
    {
      "midi": 79,
      "hit": false,
      "t": 43139.416250000075,
      "d": 130.81359375000466,
      "v": 119
    },
    {
      "midi": 75,
      "hit": false,
      "t": 43488.25250000004,
      "d": 276.16203125000175,
      "v": 116
    },
    {
      "midi": 34,
      "hit": false,
      "t": 43493.0974479167,
      "d": 242.24739583333576,
      "v": 106
    },
    {
      "midi": 39,
      "hit": false,
      "t": 43728.07742187503,
      "d": 242.24739583333576,
      "v": 102
    },
    {
      "midi": 66,
      "hit": false,
      "t": 43730.49989583338,
      "d": 942.3423697916805,
      "v": 94
    },
    {
      "midi": 75,
      "hit": false,
      "t": 43953.367500000044,
      "d": 232.55750000000262,
      "v": 116
    },
    {
      "midi": 39,
      "hit": false,
      "t": 44195.614895833365,
      "d": 469.95994791666453,
      "v": 106
    },
    {
      "midi": 74,
      "hit": false,
      "t": 44418.48250000005,
      "d": 307.6541927083308,
      "v": 113
    },
    {
      "midi": 77,
      "hit": false,
      "t": 44651.04000000008,
      "d": 121.12369791666424,
      "v": 108
    },
    {
      "midi": 65,
      "hit": false,
      "t": 44651.04000000008,
      "d": 125.96864583333081,
      "v": 115
    },
    {
      "midi": 34,
      "hit": false,
      "t": 44665.57484375003,
      "d": 234.97997395833227,
      "v": 106
    },
    {
      "midi": 65,
      "hit": false,
      "t": 44670.419791666725,
      "d": 927.8075260416736,
      "v": 94
    },
    {
      "midi": 62,
      "hit": false,
      "t": 44670.419791666725,
      "d": 935.0749479166843,
      "v": 97
    },
    {
      "midi": 70,
      "hit": false,
      "t": 44672.84226562506,
      "d": 937.497421875014,
      "v": 91
    },
    {
      "midi": 58,
      "hit": false,
      "t": 44767.31875000008,
      "d": 128.39111979166773,
      "v": 110
    },
    {
      "midi": 70,
      "hit": false,
      "t": 44767.31875000008,
      "d": 128.39111979166773,
      "v": 111
    },
    {
      "midi": 74,
      "hit": false,
      "t": 44883.59750000005,
      "d": 135.65854166666395,
      "v": 117
    },
    {
      "midi": 65,
      "hit": false,
      "t": 44999.87625000008,
      "d": 128.39111979166773,
      "v": 109
    },
    {
      "midi": 77,
      "hit": false,
      "t": 44999.87625000008,
      "d": 130.81359375000466,
      "v": 114
    },
    {
      "midi": 74,
      "hit": false,
      "t": 45116.15500000004,
      "d": 135.65854166666395,
      "v": 116
    },
    {
      "midi": 70,
      "hit": false,
      "t": 45348.71250000004,
      "d": 155.03833333333023,
      "v": 111
    },
    {
      "midi": 41,
      "hit": false,
      "t": 45353.5574479167,
      "d": 477.227369791668,
      "v": 101
    },
    {
      "midi": 72,
      "hit": false,
      "t": 45581.27000000003,
      "d": 152.61585937500058,
      "v": 116
    },
    {
      "midi": 29,
      "hit": false,
      "t": 45586.1149479167,
      "d": 9.68989583333314,
      "v": 108
    },
    {
      "midi": 60,
      "hit": false,
      "t": 45598.2273177084,
      "d": 932.6524739583474,
      "v": 104
    },
    {
      "midi": 65,
      "hit": false,
      "t": 45600.649791666736,
      "d": 930.2300000000105,
      "v": 92
    },
    {
      "midi": 69,
      "hit": false,
      "t": 45603.07226562507,
      "d": 937.497421875014,
      "v": 94
    },
    {
      "midi": 72,
      "hit": false,
      "t": 45813.827500000036,
      "d": 186.53049479166657,
      "v": 108
    },
    {
      "midi": 29,
      "hit": false,
      "t": 46058.4973697917,
      "d": 469.9599479166718,
      "v": 101
    },
    {
      "midi": 70,
      "hit": false,
      "t": 46278.942500000034,
      "d": 213.17770833333634,
      "v": 113
    },
    {
      "midi": 77,
      "hit": false,
      "t": 46511.50000000009,
      "d": 121.12369791666424,
      "v": 112
    },
    {
      "midi": 65,
      "hit": false,
      "t": 46511.50000000009,
      "d": 125.96864583333081,
      "v": 108
    },
    {
      "midi": 34,
      "hit": false,
      "t": 46526.034843750036,
      "d": 237.4024479166692,
      "v": 110
    },
    {
      "midi": 62,
      "hit": false,
      "t": 46530.879791666746,
      "d": 1862.8824739583433,
      "v": 102
    },
    {
      "midi": 65,
      "hit": false,
      "t": 46533.30226562508,
      "d": 1862.8824739583433,
      "v": 91
    },
    {
      "midi": 70,
      "hit": false,
      "t": 46533.30226562508,
      "d": 1865.3049479166802,
      "v": 98
    },
    {
      "midi": 65,
      "hit": false,
      "t": 46860.33625000009,
      "d": 128.39111979166773,
      "v": 116
    },
    {
      "midi": 77,
      "hit": false,
      "t": 46860.33625000009,
      "d": 130.81359375000466,
      "v": 108
    },
    {
      "midi": 29,
      "hit": false,
      "t": 47214.0174479167,
      "d": 242.24739583333576,
      "v": 105
    },
    {
      "midi": 34,
      "hit": false,
      "t": 47451.41989583337,
      "d": 239.82492187499884,
      "v": 112
    },
    {
      "midi": 77,
      "hit": false,
      "t": 47906.84500000004,
      "d": 118.7012239583346,
      "v": 110
    },
    {
      "midi": 65,
      "hit": false,
      "t": 47914.11242187499,
      "d": 123.54617187500116,
      "v": 97
    },
    {
      "midi": 34,
      "hit": false,
      "t": 47914.11242187504,
      "d": 467.5374739583349,
      "v": 103
    },
    {
      "midi": 65,
      "hit": false,
      "t": 47916.53489583333,
      "d": 130.81359374999738,
      "v": 94
    },
    {
      "midi": 70,
      "hit": false,
      "t": 47921.37984374999,
      "d": 125.96864583333081,
      "v": 101
    },
    {
      "midi": 74,
      "hit": false,
      "t": 47921.37984374999,
      "d": 128.39111979166773,
      "v": 101
    },
    {
      "midi": 77,
      "hit": false,
      "t": 48139.40250000004,
      "d": 116.27874999999767,
      "v": 109
    },
    {
      "midi": 65,
      "hit": false,
      "t": 48141.824973958326,
      "d": 128.39111979166773,
      "v": 95
    },
    {
      "midi": 70,
      "hit": false,
      "t": 48144.24744791666,
      "d": 130.81359374999738,
      "v": 92
    },
    {
      "midi": 74,
      "hit": false,
      "t": 48144.24744791666,
      "d": 130.81359374999738,
      "v": 102
    },
    {
      "midi": 65,
      "hit": false,
      "t": 48146.66992187499,
      "d": 128.39111979166773,
      "v": 94
    },
    {
      "midi": 77,
      "hit": false,
      "t": 48371.960000000036,
      "d": 133.2360677083343,
      "v": 111
    },
    {
      "midi": 77,
      "hit": false,
      "t": 48371.960000000094,
      "d": 118.7012239583346,
      "v": 112
    },
    {
      "midi": 65,
      "hit": false,
      "t": 48371.960000000094,
      "d": 125.96864583333809,
      "v": 116
    },
    {
      "midi": 65,
      "hit": false,
      "t": 48381.649895833325,
      "d": 121.12369791667152,
      "v": 99
    },
    {
      "midi": 34,
      "hit": false,
      "t": 48381.649895833376,
      "d": 234.97997395833227,
      "v": 106
    },
    {
      "midi": 65,
      "hit": false,
      "t": 48386.494843750006,
      "d": 234.97997395833227,
      "v": 95
    },
    {
      "midi": 70,
      "hit": false,
      "t": 48388.91731770833,
      "d": 121.12369791667152,
      "v": 89
    },
    {
      "midi": 74,
      "hit": false,
      "t": 48391.339791666665,
      "d": 121.12369791667152,
      "v": 102
    },
    {
      "midi": 65,
      "hit": false,
      "t": 48396.184739583325,
      "d": 116.27874999999767,
      "v": 92
    },
    {
      "midi": 62,
      "hit": false,
      "t": 48396.18473958343,
      "d": 1865.304947916673,
      "v": 93
    },
    {
      "midi": 65,
      "hit": false,
      "t": 48396.18473958343,
      "d": 1867.72742187501,
      "v": 100
    },
    {
      "midi": 70,
      "hit": false,
      "t": 48398.60721354176,
      "d": 1862.882473958336,
      "v": 91
    },
    {
      "midi": 70,
      "hit": false,
      "t": 48488.23875000009,
      "d": 125.96864583333809,
      "v": 118
    },
    {
      "midi": 58,
      "hit": false,
      "t": 48488.23875000009,
      "d": 128.391119791675,
      "v": 118
    },
    {
      "midi": 65,
      "hit": false,
      "t": 48720.7962500001,
      "d": 128.39111979166773,
      "v": 113
    },
    {
      "midi": 77,
      "hit": false,
      "t": 48720.7962500001,
      "d": 130.81359375000466,
      "v": 110
    },
    {
      "midi": 65,
      "hit": false,
      "t": 48849.187369791674,
      "d": 244.6698697916654,
      "v": 101
    },
    {
      "midi": 70,
      "hit": false,
      "t": 49069.632500000036,
      "d": 121.12369791666424,
      "v": 113
    },
    {
      "midi": 29,
      "hit": false,
      "t": 49072.05497395837,
      "d": 244.6698697916654,
      "v": 103
    },
    {
      "midi": 70,
      "hit": false,
      "t": 49302.19000000003,
      "d": 111.4338020833311,
      "v": 115
    },
    {
      "midi": 77,
      "hit": false,
      "t": 49302.190000000104,
      "d": 123.54617187500116,
      "v": 114
    },
    {
      "midi": 65,
      "hit": false,
      "t": 49302.190000000104,
      "d": 128.39111979166773,
      "v": 115
    },
    {
      "midi": 65,
      "hit": false,
      "t": 49307.034947916676,
      "d": 237.4024479166692,
      "v": 100
    },
    {
      "midi": 74,
      "hit": false,
      "t": 49309.457421875006,
      "d": 128.39111979166773,
      "v": 101
    },
    {
      "midi": 34,
      "hit": false,
      "t": 49311.87989583337,
      "d": 242.24739583333576,
      "v": 105
    },
    {
      "midi": 65,
      "hit": false,
      "t": 49314.30236979166,
      "d": 121.12369791666424,
      "v": 100
    },
    {
      "midi": 65,
      "hit": false,
      "t": 49316.72484375001,
      "d": 123.54617187500116,
      "v": 90
    },
    {
      "midi": 70,
      "hit": false,
      "t": 49316.72484375001,
      "d": 125.96864583333809,
      "v": 102
    },
    {
      "midi": 70,
      "hit": false,
      "t": 49534.74750000003,
      "d": 135.65854166666395,
      "v": 117
    },
    {
      "midi": 77,
      "hit": false,
      "t": 49534.74750000011,
      "d": 125.96864583333081,
      "v": 111
    },
    {
      "midi": 65,
      "hit": false,
      "t": 49534.74750000011,
      "d": 128.39111979166773,
      "v": 109
    },
    {
      "midi": 65,
      "hit": false,
      "t": 49542.014921875016,
      "d": 123.54617187500116,
      "v": 100
    },
    {
      "midi": 74,
      "hit": false,
      "t": 49544.43739583335,
      "d": 128.39111979166773,
      "v": 95
    },
    {
      "midi": 70,
      "hit": false,
      "t": 49549.28234375002,
      "d": 125.96864583333809,
      "v": 96
    },
    {
      "midi": 65,
      "hit": false,
      "t": 49551.70481770835,
      "d": 232.55750000000262,
      "v": 93
    },
    {
      "midi": 65,
      "hit": false,
      "t": 49556.549765624986,
      "d": 118.7012239583346,
      "v": 95
    },
    {
      "midi": 79,
      "hit": false,
      "t": 49767.30500000002,
      "d": 118.7012239583346,
      "v": 108
    },
    {
      "midi": 79,
      "hit": false,
      "t": 49767.30500000011,
      "d": 123.54617187500116,
      "v": 108
    },
    {
      "midi": 67,
      "hit": false,
      "t": 49767.30500000011,
      "d": 128.39111979166773,
      "v": 111
    },
    {
      "midi": 72,
      "hit": false,
      "t": 49779.41736979169,
      "d": 125.96864583333809,
      "v": 95
    },
    {
      "midi": 34,
      "hit": false,
      "t": 49779.41736979171,
      "d": 467.5374739583349,
      "v": 108
    },
    {
      "midi": 67,
      "hit": false,
      "t": 49781.83984375003,
      "d": 123.54617187500116,
      "v": 102
    },
    {
      "midi": 65,
      "hit": false,
      "t": 49784.26231770835,
      "d": 227.71255208333605,
      "v": 97
    },
    {
      "midi": 75,
      "hit": false,
      "t": 49784.262317708366,
      "d": 125.96864583333081,
      "v": 102
    },
    {
      "midi": 67,
      "hit": false,
      "t": 49791.52973958332,
      "d": 118.7012239583346,
      "v": 94
    },
    {
      "midi": 79,
      "hit": false,
      "t": 49999.862500000025,
      "d": 293.1193489583311,
      "v": 108
    },
    {
      "midi": 79,
      "hit": false,
      "t": 49999.86250000011,
      "d": 125.96864583333081,
      "v": 111
    },
    {
      "midi": 67,
      "hit": false,
      "t": 49999.86250000011,
      "d": 128.39111979166773,
      "v": 117
    },
    {
      "midi": 67,
      "hit": false,
      "t": 50007.12992187503,
      "d": 128.39111979166773,
      "v": 97
    },
    {
      "midi": 72,
      "hit": false,
      "t": 50007.12992187503,
      "d": 128.39111979166773,
      "v": 98
    },
    {
      "midi": 75,
      "hit": false,
      "t": 50007.12992187503,
      "d": 130.81359375000466,
      "v": 101
    },
    {
      "midi": 65,
      "hit": false,
      "t": 50011.97486979169,
      "d": 239.82492187499884,
      "v": 101
    },
    {
      "midi": 67,
      "hit": false,
      "t": 50024.08723958332,
      "d": 118.7012239583346,
      "v": 104
    },
    {
      "midi": 79,
      "hit": false,
      "t": 50232.420000000115,
      "d": 121.12369791666424,
      "v": 109
    },
    {
      "midi": 67,
      "hit": false,
      "t": 50232.420000000115,
      "d": 125.96864583333081,
      "v": 107
    },
    {
      "midi": 39,
      "hit": false,
      "t": 50239.68742187504,
      "d": 237.4024479166692,
      "v": 106
    },
    {
      "midi": 67,
      "hit": false,
      "t": 50242.10989583337,
      "d": 121.12369791667152,
      "v": 97
    },
    {
      "midi": 72,
      "hit": false,
      "t": 50249.37731770837,
      "d": 121.12369791667152,
      "v": 91
    },
    {
      "midi": 75,
      "hit": false,
      "t": 50249.37731770837,
      "d": 123.54617187500844,
      "v": 90
    },
    {
      "midi": 67,
      "hit": false,
      "t": 50254.22226562502,
      "d": 230.1350260416657,
      "v": 92
    },
    {
      "midi": 67,
      "hit": false,
      "t": 50259.06721354165,
      "d": 113.85627604166802,
      "v": 99
    },
    {
      "midi": 63,
      "hit": false,
      "t": 50259.06721354176,
      "d": 1862.8824739583433,
      "v": 95
    },
    {
      "midi": 70,
      "hit": false,
      "t": 50261.4896875001,
      "d": 1860.4600000000064,
      "v": 93
    },
    {
      "midi": 67,
      "hit": false,
      "t": 50263.91216145844,
      "d": 1862.882473958336,
      "v": 96
    },
    {
      "midi": 70,
      "hit": false,
      "t": 50348.69875000011,
      "d": 125.96864583333081,
      "v": 116
    },
    {
      "midi": 58,
      "hit": false,
      "t": 50348.69875000011,
      "d": 128.39111979166773,
      "v": 110
    },
    {
      "midi": 67,
      "hit": false,
      "t": 50581.256250000115,
      "d": 128.39111979166773,
      "v": 109
    },
    {
      "midi": 79,
      "hit": false,
      "t": 50581.256250000115,
      "d": 130.81359375000466,
      "v": 116
    },
    {
      "midi": 67,
      "hit": false,
      "t": 50707.22489583336,
      "d": 244.6698697916654,
      "v": 96
    },
    {
      "midi": 70,
      "hit": false,
      "t": 50930.09250000002,
      "d": 94.47648437500175,
      "v": 115
    },
    {
      "midi": 34,
      "hit": false,
      "t": 50939.782395833376,
      "d": 242.24739583333576,
      "v": 110
    },
    {
      "midi": 70,
      "hit": false,
      "t": 51162.65000000002,
      "d": 94.47648437500175,
      "v": 110
    },
    {
      "midi": 39,
      "hit": false,
      "t": 51167.49494791671,
      "d": 239.82492187499884,
      "v": 109
    },
    {
      "midi": 67,
      "hit": false,
      "t": 51172.33989583336,
      "d": 232.55750000000262,
      "v": 96
    },
    {
      "midi": 70,
      "hit": false,
      "t": 51395.207500000026,
      "d": 113.85627604166802,
      "v": 115
    },
    {
      "midi": 67,
      "hit": false,
      "t": 51404.89739583336,
      "d": 232.55750000000262,
      "v": 94
    },
    {
      "midi": 77,
      "hit": false,
      "t": 51627.76500000003,
      "d": 147.770911458334,
      "v": 115
    },
    {
      "midi": 79,
      "hit": false,
      "t": 51627.76500000012,
      "d": 123.54617187500116,
      "v": 112
    },
    {
      "midi": 67,
      "hit": false,
      "t": 51627.76500000012,
      "d": 128.39111979166773,
      "v": 115
    },
    {
      "midi": 67,
      "hit": false,
      "t": 51635.03242187505,
      "d": 123.54617187500116,
      "v": 100
    },
    {
      "midi": 72,
      "hit": false,
      "t": 51635.03242187505,
      "d": 125.96864583333809,
      "v": 92
    },
    {
      "midi": 67,
      "hit": false,
      "t": 51637.45489583336,
      "d": 232.55750000000262,
      "v": 104
    },
    {
      "midi": 75,
      "hit": false,
      "t": 51637.45489583338,
      "d": 125.96864583333809,
      "v": 97
    },
    {
      "midi": 39,
      "hit": false,
      "t": 51639.87736979171,
      "d": 469.95994791666453,
      "v": 103
    },
    {
      "midi": 67,
      "hit": false,
      "t": 51649.56726562499,
      "d": 118.7012239583346,
      "v": 99
    },
    {
      "midi": 77,
      "hit": false,
      "t": 51860.32250000003,
      "d": 142.92596354166744,
      "v": 114
    },
    {
      "midi": 79,
      "hit": false,
      "t": 51860.322500000126,
      "d": 125.96864583333081,
      "v": 114
    },
    {
      "midi": 67,
      "hit": false,
      "t": 51860.322500000126,
      "d": 128.39111979166773,
      "v": 115
    },
    {
      "midi": 67,
      "hit": false,
      "t": 51862.74497395839,
      "d": 128.391119791675,
      "v": 97
    },
    {
      "midi": 75,
      "hit": false,
      "t": 51865.16744791673,
      "d": 130.81359375000466,
      "v": 89
    },
    {
      "midi": 67,
      "hit": false,
      "t": 51872.4348697917,
      "d": 242.24739583333576,
      "v": 91
    },
    {
      "midi": 72,
      "hit": false,
      "t": 51872.43486979173,
      "d": 128.39111979166773,
      "v": 92
    },
    {
      "midi": 67,
      "hit": false,
      "t": 51882.12476562499,
      "d": 121.12369791666424,
      "v": 94
    },
    {
      "midi": 77,
      "hit": false,
      "t": 52092.88000000013,
      "d": 118.7012239583346,
      "v": 114
    },
    {
      "midi": 65,
      "hit": false,
      "t": 52092.88000000013,
      "d": 125.96864583333809,
      "v": 116
    },
    {
      "midi": 34,
      "hit": false,
      "t": 52104.99236979171,
      "d": 234.97997395833227,
      "v": 106
    },
    {
      "midi": 70,
      "hit": false,
      "t": 52107.41484375006,
      "d": 121.12369791667152,
      "v": 92
    },
    {
      "midi": 74,
      "hit": false,
      "t": 52107.41484375006,
      "d": 123.54617187500844,
      "v": 101
    },
    {
      "midi": 65,
      "hit": false,
      "t": 52109.8373177084,
      "d": 118.7012239583346,
      "v": 97
    },
    {
      "midi": 65,
      "hit": false,
      "t": 52117.10473958332,
      "d": 111.4338020833311,
      "v": 96
    },
    {
      "midi": 65,
      "hit": false,
      "t": 52121.94968750004,
      "d": 227.71255208333605,
      "v": 89
    },
    {
      "midi": 62,
      "hit": false,
      "t": 52121.949687500106,
      "d": 1853.192578125003,
      "v": 92
    },
    {
      "midi": 65,
      "hit": false,
      "t": 52121.949687500106,
      "d": 1855.6150520833398,
      "v": 103
    },
    {
      "midi": 70,
      "hit": false,
      "t": 52129.21710937511,
      "d": 1862.8824739583433,
      "v": 102
    },
    {
      "midi": 70,
      "hit": false,
      "t": 52209.158750000126,
      "d": 123.54617187500844,
      "v": 116
    },
    {
      "midi": 58,
      "hit": false,
      "t": 52209.158750000126,
      "d": 128.391119791675,
      "v": 107
    },
    {
      "midi": 65,
      "hit": false,
      "t": 52441.716250000136,
      "d": 128.39111979166773,
      "v": 116
    },
    {
      "midi": 77,
      "hit": false,
      "t": 52441.716250000136,
      "d": 130.81359375000466,
      "v": 109
    },
    {
      "midi": 65,
      "hit": false,
      "t": 52570.10736979171,
      "d": 244.6698697916654,
      "v": 103
    },
    {
      "midi": 70,
      "hit": false,
      "t": 52790.552500000034,
      "d": 111.4338020833311,
      "v": 112
    },
    {
      "midi": 29,
      "hit": false,
      "t": 52795.39744791671,
      "d": 244.6698697916654,
      "v": 110
    },
    {
      "midi": 70,
      "hit": false,
      "t": 53023.11000000003,
      "d": 96.8989583333314,
      "v": 114
    },
    {
      "midi": 77,
      "hit": false,
      "t": 53023.11000000014,
      "d": 123.54617187500116,
      "v": 116
    },
    {
      "midi": 65,
      "hit": false,
      "t": 53023.11000000014,
      "d": 128.39111979166773,
      "v": 110
    },
    {
      "midi": 65,
      "hit": false,
      "t": 53025.532473958374,
      "d": 237.4024479166692,
      "v": 96
    },
    {
      "midi": 65,
      "hit": false,
      "t": 53035.222369791656,
      "d": 123.54617187500116,
      "v": 96
    },
    {
      "midi": 34,
      "hit": false,
      "t": 53035.22236979171,
      "d": 242.24739583333576,
      "v": 105
    },
    {
      "midi": 70,
      "hit": false,
      "t": 53035.222369791736,
      "d": 125.96864583333809,
      "v": 97
    },
    {
      "midi": 74,
      "hit": false,
      "t": 53035.222369791736,
      "d": 128.391119791675,
      "v": 94
    },
    {
      "midi": 65,
      "hit": false,
      "t": 53037.64484375007,
      "d": 123.54617187500116,
      "v": 99
    },
    {
      "midi": 70,
      "hit": false,
      "t": 53255.667500000025,
      "d": 113.85627604166802,
      "v": 108
    },
    {
      "midi": 77,
      "hit": false,
      "t": 53255.66750000014,
      "d": 123.54617187500116,
      "v": 113
    },
    {
      "midi": 65,
      "hit": false,
      "t": 53255.66750000014,
      "d": 128.39111979166773,
      "v": 112
    },
    {
      "midi": 65,
      "hit": false,
      "t": 53262.93492187504,
      "d": 234.97997395833227,
      "v": 98
    },
    {
      "midi": 70,
      "hit": false,
      "t": 53267.779869791746,
      "d": 125.96864583333809,
      "v": 96
    },
    {
      "midi": 74,
      "hit": false,
      "t": 53267.779869791746,
      "d": 128.391119791675,
      "v": 95
    },
    {
      "midi": 65,
      "hit": false,
      "t": 53270.20234375008,
      "d": 123.54617187500116,
      "v": 98
    },
    {
      "midi": 65,
      "hit": false,
      "t": 53275.047291666655,
      "d": 121.12369791666424,
      "v": 96
    },
    {
      "midi": 74,
      "hit": false,
      "t": 53488.22500000003,
      "d": 109.01132812500146,
      "v": 110
    },
    {
      "midi": 79,
      "hit": false,
      "t": 53488.225000000144,
      "d": 121.12369791666424,
      "v": 115
    },
    {
      "midi": 67,
      "hit": false,
      "t": 53488.225000000144,
      "d": 128.39111979166773,
      "v": 117
    },
    {
      "midi": 34,
      "hit": false,
      "t": 53495.492421875046,
      "d": 467.5374739583349,
      "v": 105
    },
    {
      "midi": 67,
      "hit": false,
      "t": 53495.49242187509,
      "d": 123.54617187500116,
      "v": 90
    },
    {
      "midi": 65,
      "hit": false,
      "t": 53497.914895833375,
      "d": 232.55750000000262,
      "v": 94
    },
    {
      "midi": 72,
      "hit": false,
      "t": 53500.337369791756,
      "d": 125.96864583333809,
      "v": 92
    },
    {
      "midi": 75,
      "hit": false,
      "t": 53500.337369791756,
      "d": 125.96864583333809,
      "v": 90
    },
    {
      "midi": 67,
      "hit": false,
      "t": 53510.02726562499,
      "d": 118.7012239583346,
      "v": 93
    },
    {
      "midi": 74,
      "hit": false,
      "t": 53720.78250000003,
      "d": 133.2360677083343,
      "v": 113
    },
    {
      "midi": 79,
      "hit": false,
      "t": 53720.78250000015,
      "d": 125.96864583333081,
      "v": 112
    },
    {
      "midi": 67,
      "hit": false,
      "t": 53720.78250000015,
      "d": 128.39111979166773,
      "v": 107
    },
    {
      "midi": 65,
      "hit": false,
      "t": 53730.47239583338,
      "d": 239.82492187499884,
      "v": 91
    },
    {
      "midi": 67,
      "hit": false,
      "t": 53730.47239583343,
      "d": 128.39111979166773,
      "v": 96
    },
    {
      "midi": 72,
      "hit": false,
      "t": 53730.47239583343,
      "d": 128.39111979166773,
      "v": 100
    },
    {
      "midi": 75,
      "hit": false,
      "t": 53732.894869791766,
      "d": 130.81359374999738,
      "v": 100
    },
    {
      "midi": 67,
      "hit": false,
      "t": 53740.16229166665,
      "d": 118.7012239583346,
      "v": 92
    },
    {
      "midi": 72,
      "hit": false,
      "t": 53953.34000000003,
      "d": 167.1507031250003,
      "v": 110
    },
    {
      "midi": 77,
      "hit": false,
      "t": 53953.34000000015,
      "d": 121.12369791666424,
      "v": 110
    },
    {
      "midi": 65,
      "hit": false,
      "t": 53953.34000000015,
      "d": 125.96864583333081,
      "v": 114
    },
    {
      "midi": 75,
      "hit": false,
      "t": 53965.45236979176,
      "d": 123.54617187500844,
      "v": 96
    },
    {
      "midi": 29,
      "hit": false,
      "t": 53967.87484375005,
      "d": 239.82492187499884,
      "v": 106
    },
    {
      "midi": 67,
      "hit": false,
      "t": 53967.8748437501,
      "d": 121.12369791667152,
      "v": 100
    },
    {
      "midi": 72,
      "hit": false,
      "t": 53970.297317708435,
      "d": 123.54617187500116,
      "v": 97
    },
    {
      "midi": 69,
      "hit": false,
      "t": 53972.719791666714,
      "d": 232.55750000000262,
      "v": 99
    },
    {
      "midi": 67,
      "hit": false,
      "t": 53977.56473958332,
      "d": 111.4338020833311,
      "v": 97
    },
    {
      "midi": 65,
      "hit": false,
      "t": 53982.40968750011,
      "d": 1862.8824739583433,
      "v": 101
    },
    {
      "midi": 60,
      "hit": false,
      "t": 53984.83216145845,
      "d": 1858.0375260416695,
      "v": 94
    },
    {
      "midi": 69,
      "hit": false,
      "t": 53987.254635416786,
      "d": 1862.882473958336,
      "v": 101
    },
    {
      "midi": 72,
      "hit": false,
      "t": 54069.61875000015,
      "d": 125.96864583333081,
      "v": 110
    },
    {
      "midi": 60,
      "hit": false,
      "t": 54069.61875000015,
      "d": 130.81359374999738,
      "v": 108
    },
    {
      "midi": 74,
      "hit": false,
      "t": 54185.897500000036,
      "d": 179.26307291666308,
      "v": 112
    },
    {
      "midi": 65,
      "hit": false,
      "t": 54302.17625000014,
      "d": 116.27874999999767,
      "v": 109
    },
    {
      "midi": 77,
      "hit": false,
      "t": 54302.17625000014,
      "d": 116.27874999999767,
      "v": 113
    },
    {
      "midi": 77,
      "hit": false,
      "t": 54418.45500000014,
      "d": 125.96864583333081,
      "v": 117
    },
    {
      "midi": 65,
      "hit": false,
      "t": 54418.45500000014,
      "d": 128.39111979166773,
      "v": 107
    },
    {
      "midi": 69,
      "hit": false,
      "t": 54425.72242187505,
      "d": 242.24739583333576,
      "v": 92
    },
    {
      "midi": 75,
      "hit": false,
      "t": 54651.01250000003,
      "d": 210.75523437499942,
      "v": 116
    },
    {
      "midi": 41,
      "hit": false,
      "t": 54655.857447916715,
      "d": 477.227369791668,
      "v": 107
    },
    {
      "midi": 69,
      "hit": false,
      "t": 54890.837421875054,
      "d": 234.97997395833227,
      "v": 92
    },
    {
      "midi": 29,
      "hit": false,
      "t": 54893.259895833384,
      "d": 4.84494791666657,
      "v": 103
    },
    {
      "midi": 69,
      "hit": false,
      "t": 55128.23986979172,
      "d": 227.71255208333605,
      "v": 98
    },
    {
      "midi": 77,
      "hit": false,
      "t": 55348.685000000034,
      "d": 142.92596354166744,
      "v": 108
    },
    {
      "midi": 79,
      "hit": false,
      "t": 55348.68500000014,
      "d": 123.54617187500116,
      "v": 118
    },
    {
      "midi": 67,
      "hit": false,
      "t": 55348.68500000014,
      "d": 128.39111979166773,
      "v": 112
    },
    {
      "midi": 29,
      "hit": false,
      "t": 55355.95242187505,
      "d": 467.5374739583349,
      "v": 102
    },
    {
      "midi": 69,
      "hit": false,
      "t": 55355.95242187506,
      "d": 232.55750000000262,
      "v": 90
    },
    {
      "midi": 75,
      "hit": false,
      "t": 55358.37489583343,
      "d": 125.96864583333809,
      "v": 89
    },
    {
      "midi": 67,
      "hit": false,
      "t": 55360.79736979177,
      "d": 123.54617187500116,
      "v": 101
    },
    {
      "midi": 72,
      "hit": false,
      "t": 55363.21984375011,
      "d": 123.54617187500116,
      "v": 91
    },
    {
      "midi": 67,
      "hit": false,
      "t": 55372.90973958332,
      "d": 118.7012239583346,
      "v": 95
    },
    {
      "midi": 77,
      "hit": false,
      "t": 55581.24250000004,
      "d": 116.27874999999767,
      "v": 113
    },
    {
      "midi": 79,
      "hit": false,
      "t": 55581.242500000146,
      "d": 125.96864583333081,
      "v": 114
    },
    {
      "midi": 67,
      "hit": false,
      "t": 55581.242500000146,
      "d": 128.39111979166773,
      "v": 112
    },
    {
      "midi": 67,
      "hit": false,
      "t": 55586.087447916776,
      "d": 128.39111979166773,
      "v": 97
    },
    {
      "midi": 69,
      "hit": false,
      "t": 55588.50992187506,
      "d": 242.24739583333576,
      "v": 92
    },
    {
      "midi": 75,
      "hit": false,
      "t": 55590.93239583344,
      "d": 130.81359375000466,
      "v": 97
    },
    {
      "midi": 67,
      "hit": false,
      "t": 55593.354869791656,
      "d": 123.54617187500116,
      "v": 95
    },
    {
      "midi": 72,
      "hit": false,
      "t": 55593.35486979178,
      "d": 128.39111979166773,
      "v": 96
    },
    {
      "midi": 77,
      "hit": false,
      "t": 55813.80000000003,
      "d": 150.19338541666366,
      "v": 111
    },
    {
      "midi": 77,
      "hit": false,
      "t": 55813.80000000015,
      "d": 118.7012239583346,
      "v": 116
    },
    {
      "midi": 65,
      "hit": false,
      "t": 55813.80000000015,
      "d": 125.96864583333809,
      "v": 118
    },
    {
      "midi": 34,
      "hit": false,
      "t": 55828.33484375005,
      "d": 234.97997395833227,
      "v": 101
    },
    {
      "midi": 65,
      "hit": false,
      "t": 55828.33484375011,
      "d": 118.7012239583346,
      "v": 98
    },
    {
      "midi": 70,
      "hit": false,
      "t": 55830.75731770845,
      "d": 121.12369791666424,
      "v": 90
    },
    {
      "midi": 74,
      "hit": false,
      "t": 55835.602265625115,
      "d": 121.12369791666424,
      "v": 93
    },
    {
      "midi": 65,
      "hit": false,
      "t": 55838.02473958332,
      "d": 111.4338020833311,
      "v": 98
    },
    {
      "midi": 65,
      "hit": false,
      "t": 55838.0247395834,
      "d": 227.71255208333605,
      "v": 101
    },
    {
      "midi": 62,
      "hit": false,
      "t": 55842.86968750012,
      "d": 1860.4600000000064,
      "v": 100
    },
    {
      "midi": 65,
      "hit": false,
      "t": 55845.292161458456,
      "d": 1860.4600000000064,
      "v": 96
    },
    {
      "midi": 70,
      "hit": false,
      "t": 55845.292161458456,
      "d": 1862.8824739583433,
      "v": 93
    },
    {
      "midi": 70,
      "hit": false,
      "t": 55930.078750000146,
      "d": 125.96864583333809,
      "v": 110
    },
    {
      "midi": 58,
      "hit": false,
      "t": 55930.078750000146,
      "d": 128.391119791675,
      "v": 113
    },
    {
      "midi": 65,
      "hit": false,
      "t": 56162.636250000156,
      "d": 128.39111979166773,
      "v": 114
    },
    {
      "midi": 77,
      "hit": false,
      "t": 56162.636250000156,
      "d": 130.81359375000466,
      "v": 113
    },
    {
      "midi": 65,
      "hit": false,
      "t": 56283.75994791674,
      "d": 244.6698697916654,
      "v": 104
    },
    {
      "midi": 70,
      "hit": false,
      "t": 56511.47250000003,
      "d": 101.74390624999796,
      "v": 112
    },
    {
      "midi": 29,
      "hit": false,
      "t": 56513.894973958384,
      "d": 244.66986979167268,
      "v": 108
    },
    {
      "midi": 70,
      "hit": false,
      "t": 56744.03000000003,
      "d": 104.16638020833489,
      "v": 115
    },
    {
      "midi": 77,
      "hit": false,
      "t": 56744.03000000016,
      "d": 123.54617187500116,
      "v": 110
    },
    {
      "midi": 65,
      "hit": false,
      "t": 56744.03000000016,
      "d": 128.39111979166773,
      "v": 108
    },
    {
      "midi": 65,
      "hit": false,
      "t": 56753.71989583345,
      "d": 123.54617187500116,
      "v": 99
    },
    {
      "midi": 34,
      "hit": false,
      "t": 56756.14236979172,
      "d": 242.24739583333576,
      "v": 107
    },
    {
      "midi": 65,
      "hit": false,
      "t": 56756.14236979174,
      "d": 230.1350260416657,
      "v": 99
    },
    {
      "midi": 70,
      "hit": false,
      "t": 56758.564843750115,
      "d": 123.54617187500116,
      "v": 100
    },
    {
      "midi": 74,
      "hit": false,
      "t": 56758.564843750115,
      "d": 128.39111979166773,
      "v": 96
    },
    {
      "midi": 65,
      "hit": false,
      "t": 56763.40979166665,
      "d": 123.54617187500116,
      "v": 92
    },
    {
      "midi": 70,
      "hit": false,
      "t": 56976.58750000003,
      "d": 113.85627604166802,
      "v": 111
    },
    {
      "midi": 77,
      "hit": false,
      "t": 56976.58750000016,
      "d": 123.54617187500116,
      "v": 110
    },
    {
      "midi": 65,
      "hit": false,
      "t": 56976.58750000016,
      "d": 128.39111979166773,
      "v": 117
    },
    {
      "midi": 65,
      "hit": false,
      "t": 56986.27739583341,
      "d": 232.55750000000262,
      "v": 91
    },
    {
      "midi": 65,
      "hit": false,
      "t": 56986.27739583345,
      "d": 125.96864583333809,
      "v": 95
    },
    {
      "midi": 74,
      "hit": false,
      "t": 56988.69986979179,
      "d": 128.39111979166773,
      "v": 94
    },
    {
      "midi": 70,
      "hit": false,
      "t": 56991.122343750125,
      "d": 125.96864583333081,
      "v": 99
    },
    {
      "midi": 65,
      "hit": false,
      "t": 56998.38976562498,
      "d": 118.7012239583346,
      "v": 98
    },
    {
      "midi": 79,
      "hit": false,
      "t": 57209.14500000003,
      "d": 138.08101562500087,
      "v": 111
    },
    {
      "midi": 79,
      "hit": false,
      "t": 57209.145000000164,
      "d": 123.54617187500116,
      "v": 111
    },
    {
      "midi": 67,
      "hit": false,
      "t": 57209.145000000164,
      "d": 128.39111979166773,
      "v": 112
    },
    {
      "midi": 67,
      "hit": false,
      "t": 57216.412421875124,
      "d": 123.54617187500844,
      "v": 99
    },
    {
      "midi": 72,
      "hit": false,
      "t": 57218.83489583346,
      "d": 125.96864583333809,
      "v": 95
    },
    {
      "midi": 34,
      "hit": false,
      "t": 57221.257369791725,
      "d": 467.5374739583349,
      "v": 112
    },
    {
      "midi": 75,
      "hit": false,
      "t": 57221.2573697918,
      "d": 125.96864583333809,
      "v": 94
    },
    {
      "midi": 65,
      "hit": false,
      "t": 57223.67984375008,
      "d": 230.1350260416657,
      "v": 101
    },
    {
      "midi": 67,
      "hit": false,
      "t": 57230.947265624985,
      "d": 118.7012239583346,
      "v": 98
    },
    {
      "midi": 79,
      "hit": false,
      "t": 57441.702500000036,
      "d": 159.8832812499968,
      "v": 110
    },
    {
      "midi": 79,
      "hit": false,
      "t": 57441.70250000017,
      "d": 125.96864583333081,
      "v": 116
    },
    {
      "midi": 67,
      "hit": false,
      "t": 57441.70250000017,
      "d": 128.39111979166773,
      "v": 115
    },
    {
      "midi": 72,
      "hit": false,
      "t": 57446.547447916804,
      "d": 128.39111979166773,
      "v": 92
    },
    {
      "midi": 67,
      "hit": false,
      "t": 57448.96992187514,
      "d": 128.39111979166773,
      "v": 99
    },
    {
      "midi": 75,
      "hit": false,
      "t": 57448.96992187514,
      "d": 130.81359375000466,
      "v": 95
    },
    {
      "midi": 65,
      "hit": false,
      "t": 57453.81486979174,
      "d": 239.82492187499884,
      "v": 98
    },
    {
      "midi": 67,
      "hit": false,
      "t": 57463.50476562499,
      "d": 116.27874999999767,
      "v": 102
    },
    {
      "midi": 79,
      "hit": false,
      "t": 57674.26000000017,
      "d": 121.12369791666424,
      "v": 107
    },
    {
      "midi": 67,
      "hit": false,
      "t": 57674.26000000017,
      "d": 125.96864583333081,
      "v": 107
    },
    {
      "midi": 67,
      "hit": false,
      "t": 57686.37236979181,
      "d": 121.12369791667152,
      "v": 102
    },
    {
      "midi": 39,
      "hit": false,
      "t": 57688.79484375006,
      "d": 239.82492187499884,
      "v": 105
    },
    {
      "midi": 75,
      "hit": false,
      "t": 57688.79484375015,
      "d": 123.54617187500116,
      "v": 90
    },
    {
      "midi": 72,
      "hit": false,
      "t": 57691.217317708484,
      "d": 121.12369791666424,
      "v": 97
    },
    {
      "midi": 67,
      "hit": false,
      "t": 57700.907213541745,
      "d": 232.55750000000262,
      "v": 102
    },
    {
      "midi": 63,
      "hit": false,
      "t": 57703.329687500125,
      "d": 1860.4600000000137,
      "v": 94
    },
    {
      "midi": 67,
      "hit": false,
      "t": 57705.75216145832,
      "d": 111.4338020833311,
      "v": 99
    },
    {
      "midi": 67,
      "hit": false,
      "t": 57705.75216145846,
      "d": 1860.4600000000137,
      "v": 103
    },
    {
      "midi": 70,
      "hit": false,
      "t": 57710.597109375136,
      "d": 1858.0375260416768,
      "v": 98
    },
    {
      "midi": 70,
      "hit": false,
      "t": 57790.53875000017,
      "d": 128.39111979166773,
      "v": 117
    },
    {
      "midi": 58,
      "hit": false,
      "t": 57790.53875000017,
      "d": 130.81359375000466,
      "v": 113
    },
    {
      "midi": 67,
      "hit": false,
      "t": 58023.09625000017,
      "d": 128.39111979166773,
      "v": 110
    },
    {
      "midi": 79,
      "hit": false,
      "t": 58023.09625000017,
      "d": 133.2360677083343,
      "v": 118
    },
    {
      "midi": 67,
      "hit": false,
      "t": 58149.06489583341,
      "d": 244.6698697916654,
      "v": 91
    },
    {
      "midi": 70,
      "hit": false,
      "t": 58371.93250000003,
      "d": 96.8989583333314,
      "v": 112
    },
    {
      "midi": 34,
      "hit": false,
      "t": 58379.19992187506,
      "d": 242.24739583333576,
      "v": 104
    },
    {
      "midi": 70,
      "hit": false,
      "t": 58604.49000000003,
      "d": 87.20906249999825,
      "v": 112
    },
    {
      "midi": 39,
      "hit": false,
      "t": 58611.75742187506,
      "d": 239.82492187499884,
      "v": 103
    },
    {
      "midi": 67,
      "hit": false,
      "t": 58614.17989583341,
      "d": 234.97997395833227,
      "v": 97
    },
    {
      "midi": 70,
      "hit": false,
      "t": 58837.04750000002,
      "d": 111.4338020833311,
      "v": 115
    },
    {
      "midi": 67,
      "hit": false,
      "t": 58851.58234375008,
      "d": 232.55750000000262,
      "v": 96
    },
    {
      "midi": 77,
      "hit": false,
      "t": 59069.60500000002,
      "d": 109.01132812500146,
      "v": 109
    },
    {
      "midi": 79,
      "hit": false,
      "t": 59069.60500000017,
      "d": 123.54617187500116,
      "v": 111
    },
    {
      "midi": 67,
      "hit": false,
      "t": 59069.60500000017,
      "d": 128.39111979166773,
      "v": 112
    },
    {
      "midi": 67,
      "hit": false,
      "t": 59076.872421875145,
      "d": 123.54617187500116,
      "v": 102
    },
    {
      "midi": 39,
      "hit": false,
      "t": 59081.717369791724,
      "d": 467.5374739583349,
      "v": 110
    },
    {
      "midi": 67,
      "hit": false,
      "t": 59084.13984375008,
      "d": 230.1350260416657,
      "v": 98
    },
    {
      "midi": 72,
      "hit": false,
      "t": 59084.13984375015,
      "d": 125.96864583333081,
      "v": 89
    },
    {
      "midi": 75,
      "hit": false,
      "t": 59084.13984375015,
      "d": 125.96864583333081,
      "v": 95
    },
    {
      "midi": 67,
      "hit": false,
      "t": 59091.407265624985,
      "d": 118.7012239583346,
      "v": 102
    },
    {
      "midi": 77,
      "hit": false,
      "t": 59302.16250000002,
      "d": 89.63153645833518,
      "v": 116
    },
    {
      "midi": 79,
      "hit": false,
      "t": 59302.16250000017,
      "d": 125.96864583333081,
      "v": 114
    },
    {
      "midi": 67,
      "hit": false,
      "t": 59302.16250000017,
      "d": 128.39111979166773,
      "v": 117
    },
    {
      "midi": 67,
      "hit": false,
      "t": 59304.58497395848,
      "d": 128.39111979166773,
      "v": 98
    },
    {
      "midi": 75,
      "hit": false,
      "t": 59307.00744791682,
      "d": 130.81359374999738,
      "v": 102
    },
    {
      "midi": 72,
      "hit": false,
      "t": 59311.852395833484,
      "d": 128.39111979166773,
      "v": 91
    },
    {
      "midi": 67,
      "hit": false,
      "t": 59314.27486979175,
      "d": 242.24739583333576,
      "v": 101
    },
    {
      "midi": 67,
      "hit": false,
      "t": 59321.54229166665,
      "d": 118.7012239583346,
      "v": 94
    },
    {
      "midi": 77,
      "hit": false,
      "t": 59534.72000000002,
      "d": 138.08101562500087,
      "v": 115
    },
    {
      "midi": 77,
      "hit": false,
      "t": 59534.720000000176,
      "d": 121.12369791666424,
      "v": 109
    },
    {
      "midi": 65,
      "hit": false,
      "t": 59534.720000000176,
      "d": 125.96864583333081,
      "v": 117
    },
    {
      "midi": 65,
      "hit": false,
      "t": 59544.40989583349,
      "d": 121.12369791667152,
      "v": 89
    },
    {
      "midi": 34,
      "hit": false,
      "t": 59546.83236979172,
      "d": 234.97997395833954,
      "v": 101
    },
    {
      "midi": 74,
      "hit": false,
      "t": 59546.832369791824,
      "d": 123.54617187500116,
      "v": 98
    },
    {
      "midi": 70,
      "hit": false,
      "t": 59551.67731770849,
      "d": 121.12369791667152,
      "v": 102
    },
    {
      "midi": 65,
      "hit": false,
      "t": 59556.522265625084,
      "d": 227.71255208333605,
      "v": 98
    },
    {
      "midi": 65,
      "hit": false,
      "t": 59563.789687499986,
      "d": 111.4338020833311,
      "v": 96
    },
    {
      "midi": 65,
      "hit": false,
      "t": 59566.212161458476,
      "d": 922.962578125007,
      "v": 92
    },
    {
      "midi": 70,
      "hit": false,
      "t": 59568.63463541681,
      "d": 930.2300000000105,
      "v": 101
    },
    {
      "midi": 62,
      "hit": false,
      "t": 59571.05710937515,
      "d": 927.8075260416736,
      "v": 103
    },
    {
      "midi": 70,
      "hit": false,
      "t": 59650.99875000017,
      "d": 123.54617187500116,
      "v": 115
    },
    {
      "midi": 58,
      "hit": false,
      "t": 59650.99875000017,
      "d": 128.39111979166773,
      "v": 107
    },
    {
      "midi": 65,
      "hit": false,
      "t": 59883.556250000176,
      "d": 128.39111979166773,
      "v": 116
    },
    {
      "midi": 77,
      "hit": false,
      "t": 59883.556250000176,
      "d": 130.81359375000466,
      "v": 108
    },
    {
      "midi": 74,
      "hit": false,
      "t": 59999.83500000002,
      "d": 116.27874999999767,
      "v": 110
    },
    {
      "midi": 65,
      "hit": false,
      "t": 60007.10242187509,
      "d": 244.6698697916654,
      "v": 100
    },
    {
      "midi": 74,
      "hit": false,
      "t": 60232.392500000016,
      "d": 118.7012239583346,
      "v": 112
    },
    {
      "midi": 41,
      "hit": false,
      "t": 60237.23744791673,
      "d": 477.227369791668,
      "v": 105
    },
    {
      "midi": 75,
      "hit": false,
      "t": 60464.95000000002,
      "d": 230.1350260416657,
      "v": 113
    },
    {
      "midi": 75,
      "hit": false,
      "t": 60464.95000000018,
      "d": 123.54617187500116,
      "v": 116
    },
    {
      "midi": 63,
      "hit": false,
      "t": 60464.95000000018,
      "d": 128.39111979166773,
      "v": 112
    },
    {
      "midi": 69,
      "hit": false,
      "t": 60469.79494791676,
      "d": 234.97997395833227,
      "v": 95
    },
    {
      "midi": 29,
      "hit": false,
      "t": 60472.21742187506,
      "d": 9.68989583333314,
      "v": 106
    },
    {
      "midi": 72,
      "hit": false,
      "t": 60474.6398958335,
      "d": 128.391119791675,
      "v": 94
    },
    {
      "midi": 65,
      "hit": false,
      "t": 60477.062369791834,
      "d": 123.54617187500116,
      "v": 93
    },
    {
      "midi": 69,
      "hit": false,
      "t": 60477.062369791834,
      "d": 125.96864583333809,
      "v": 100
    },
    {
      "midi": 63,
      "hit": false,
      "t": 60481.90731770832,
      "d": 123.54617187500116,
      "v": 97
    },
    {
      "midi": 60,
      "hit": false,
      "t": 60491.59721354182,
      "d": 930.2300000000032,
      "v": 94
    },
    {
      "midi": 65,
      "hit": false,
      "t": 60491.59721354182,
      "d": 932.6524739583401,
      "v": 91
    },
    {
      "midi": 69,
      "hit": false,
      "t": 60491.59721354182,
      "d": 939.9198958333509,
      "v": 97
    },
    {
      "midi": 72,
      "hit": false,
      "t": 60697.50750000002,
      "d": 215.600182291666,
      "v": 110
    },
    {
      "midi": 75,
      "hit": false,
      "t": 60697.50750000018,
      "d": 123.54617187500116,
      "v": 108
    },
    {
      "midi": 63,
      "hit": false,
      "t": 60697.50750000018,
      "d": 128.39111979166773,
      "v": 114
    },
    {
      "midi": 65,
      "hit": false,
      "t": 60704.77492187517,
      "d": 125.96864583333809,
      "v": 95
    },
    {
      "midi": 72,
      "hit": false,
      "t": 60704.77492187517,
      "d": 128.391119791675,
      "v": 95
    },
    {
      "midi": 69,
      "hit": false,
      "t": 60707.19739583351,
      "d": 125.96864583333809,
      "v": 95
    },
    {
      "midi": 69,
      "hit": false,
      "t": 60712.042343750094,
      "d": 227.71255208333605,
      "v": 90
    },
    {
      "midi": 63,
      "hit": false,
      "t": 60721.73223958332,
      "d": 118.7012239583346,
      "v": 97
    },
    {
      "midi": 77,
      "hit": false,
      "t": 60930.065000000024,
      "d": 215.600182291666,
      "v": 116
    },
    {
      "midi": 77,
      "hit": false,
      "t": 60930.065000000184,
      "d": 123.54617187500116,
      "v": 112
    },
    {
      "midi": 65,
      "hit": false,
      "t": 60930.065000000184,
      "d": 128.39111979166773,
      "v": 110
    },
    {
      "midi": 29,
      "hit": false,
      "t": 60937.332421875064,
      "d": 467.5374739583349,
      "v": 103
    },
    {
      "midi": 65,
      "hit": false,
      "t": 60937.33242187518,
      "d": 123.54617187500844,
      "v": 89
    },
    {
      "midi": 69,
      "hit": false,
      "t": 60939.75489583343,
      "d": 232.55750000000262,
      "v": 93
    },
    {
      "midi": 70,
      "hit": false,
      "t": 60939.75489583352,
      "d": 123.54617187500844,
      "v": 92
    },
    {
      "midi": 74,
      "hit": false,
      "t": 60947.02231770852,
      "d": 125.96864583333809,
      "v": 90
    },
    {
      "midi": 65,
      "hit": false,
      "t": 60951.867265624984,
      "d": 118.7012239583346,
      "v": 94
    },
    {
      "midi": 70,
      "hit": false,
      "t": 61162.62250000003,
      "d": 232.55750000000262,
      "v": 108
    },
    {
      "midi": 77,
      "hit": false,
      "t": 61162.62250000019,
      "d": 125.96864583333081,
      "v": 116
    },
    {
      "midi": 65,
      "hit": false,
      "t": 61162.62250000019,
      "d": 128.39111979166773,
      "v": 111
    },
    {
      "midi": 65,
      "hit": false,
      "t": 61172.31239583353,
      "d": 128.39111979166773,
      "v": 95
    },
    {
      "midi": 70,
      "hit": false,
      "t": 61172.31239583353,
      "d": 128.39111979166773,
      "v": 92
    },
    {
      "midi": 74,
      "hit": false,
      "t": 61172.31239583353,
      "d": 130.81359375000466,
      "v": 89
    },
    {
      "midi": 69,
      "hit": false,
      "t": 61174.73486979177,
      "d": 239.82492187499884,
      "v": 95
    },
    {
      "midi": 65,
      "hit": false,
      "t": 61184.424765624986,
      "d": 118.7012239583346,
      "v": 93
    },
    {
      "midi": 77,
      "hit": false,
      "t": 61395.18000000019,
      "d": 121.12369791666424,
      "v": 110
    },
    {
      "midi": 65,
      "hit": false,
      "t": 61395.18000000019,
      "d": 125.96864583333081,
      "v": 111
    },
    {
      "midi": 34,
      "hit": false,
      "t": 61404.8698958334,
      "d": 237.4024479166692,
      "v": 102
    },
    {
      "midi": 70,
      "hit": false,
      "t": 61404.86989583353,
      "d": 123.54617187500116,
      "v": 97
    },
    {
      "midi": 65,
      "hit": false,
      "t": 61407.29236979187,
      "d": 121.12369791666424,
      "v": 93
    },
    {
      "midi": 74,
      "hit": false,
      "t": 61412.13731770853,
      "d": 123.54617187500116,
      "v": 90
    },
    {
      "midi": 70,
      "hit": false,
      "t": 61414.55979166677,
      "d": 230.1350260416657,
      "v": 93
    },
    {
      "midi": 65,
      "hit": false,
      "t": 61419.40473958332,
      "d": 111.4338020833311,
      "v": 92
    },
    {
      "midi": 70,
      "hit": false,
      "t": 61426.6721614585,
      "d": 1850.7701041666733,
      "v": 92
    },
    {
      "midi": 65,
      "hit": false,
      "t": 61429.09463541683,
      "d": 1850.7701041666733,
      "v": 96
    },
    {
      "midi": 62,
      "hit": false,
      "t": 61429.09463541683,
      "d": 1853.1925781250102,
      "v": 92
    },
    {
      "midi": 70,
      "hit": false,
      "t": 61511.45875000019,
      "d": 123.54617187500116,
      "v": 110
    },
    {
      "midi": 58,
      "hit": false,
      "t": 61511.45875000019,
      "d": 128.39111979166773,
      "v": 112
    },
    {
      "midi": 65,
      "hit": false,
      "t": 61744.01625000019,
      "d": 111.4338020833311,
      "v": 117
    },
    {
      "midi": 77,
      "hit": false,
      "t": 61744.01625000019,
      "d": 116.27874999999767,
      "v": 118
    },
    {
      "midi": 77,
      "hit": false,
      "t": 61860.29500000019,
      "d": 123.54617187500116,
      "v": 108
    },
    {
      "midi": 65,
      "hit": false,
      "t": 61860.29500000019,
      "d": 128.39111979166773,
      "v": 117
    },
    {
      "midi": 65,
      "hit": false,
      "t": 61865.13994791677,
      "d": 244.6698697916654,
      "v": 101
    },
    {
      "midi": 29,
      "hit": false,
      "t": 62100.11992187507,
      "d": 242.24739583333576,
      "v": 111
    },
    {
      "midi": 70,
      "hit": false,
      "t": 62100.1199218751,
      "d": 242.24739583333576,
      "v": 93
    },
    {
      "midi": 34,
      "hit": false,
      "t": 62337.52236979174,
      "d": 239.82492187499884,
      "v": 104
    },
    {
      "midi": 65,
      "hit": false,
      "t": 62570.07986979177,
      "d": 230.1350260416657,
      "v": 100
    },
    {
      "midi": 74,
      "hit": false,
      "t": 62790.52500000003,
      "d": 300.3867708333346,
      "v": 111
    },
    {
      "midi": 65,
      "hit": false,
      "t": 62800.21489583344,
      "d": 230.1350260416657,
      "v": 99
    },
    {
      "midi": 34,
      "hit": false,
      "t": 62802.63736979174,
      "d": 469.95994791666453,
      "v": 101
    },
    {
      "midi": 65,
      "hit": false,
      "t": 63032.77239583344,
      "d": 244.6698697916654,
      "v": 102
    },
    {
      "midi": 74,
      "hit": false,
      "t": 63255.64000000003,
      "d": 215.600182291666,
      "v": 111
    },
    {
      "midi": 77,
      "hit": false,
      "t": 63255.64000000019,
      "d": 121.12369791666424,
      "v": 117
    },
    {
      "midi": 65,
      "hit": false,
      "t": 63255.64000000019,
      "d": 125.96864583333081,
      "v": 113
    },
    {
      "midi": 34,
      "hit": false,
      "t": 63272.5973177084,
      "d": 234.97997395833227,
      "v": 103
    },
    {
      "midi": 70,
      "hit": false,
      "t": 63277.44226562517,
      "d": 1855.615052083347,
      "v": 97
    },
    {
      "midi": 65,
      "hit": false,
      "t": 63279.86473958351,
      "d": 1862.8824739583506,
      "v": 96
    },
    {
      "midi": 62,
      "hit": false,
      "t": 63282.287213541844,
      "d": 1860.4600000000137,
      "v": 92
    },
    {
      "midi": 58,
      "hit": false,
      "t": 63371.918750000186,
      "d": 128.39111979166773,
      "v": 108
    },
    {
      "midi": 70,
      "hit": false,
      "t": 63371.918750000186,
      "d": 128.39111979166773,
      "v": 112
    },
    {
      "midi": 74,
      "hit": false,
      "t": 63604.47625000003,
      "d": 116.27874999999767,
      "v": 114
    },
    {
      "midi": 65,
      "hit": false,
      "t": 63604.47625000019,
      "d": 128.39111979166773,
      "v": 113
    },
    {
      "midi": 77,
      "hit": false,
      "t": 63604.47625000019,
      "d": 130.81359375000466,
      "v": 117
    },
    {
      "midi": 72,
      "hit": false,
      "t": 63953.31250000003,
      "d": 123.54617187500116,
      "v": 110
    },
    {
      "midi": 29,
      "hit": false,
      "t": 63958.15744791673,
      "d": 242.24739583333576,
      "v": 109
    },
    {
      "midi": 70,
      "hit": false,
      "t": 64185.87000000003,
      "d": 152.61585937500058,
      "v": 108
    },
    {
      "midi": 34,
      "hit": false,
      "t": 64195.5598958334,
      "d": 242.24739583333576,
      "v": 101
    },
    {
      "midi": 69,
      "hit": false,
      "t": 64534.70625000003,
      "d": 142.92596354166744,
      "v": 112
    },
    {
      "midi": 34,
      "hit": false,
      "t": 64655.82994791674,
      "d": 469.9599479166718,
      "v": 109
    },
    {
      "midi": 67,
      "hit": false,
      "t": 64883.54250000003,
      "d": 329.456458333334,
      "v": 114
    },
    {
      "midi": 79,
      "hit": false,
      "t": 65116.100000000195,
      "d": 123.54617187500116,
      "v": 116
    },
    {
      "midi": 67,
      "hit": false,
      "t": 65116.100000000195,
      "d": 125.96864583333809,
      "v": 109
    },
    {
      "midi": 39,
      "hit": false,
      "t": 65123.367421875075,
      "d": 237.4024479166692,
      "v": 105
    },
    {
      "midi": 67,
      "hit": false,
      "t": 65130.63484375018,
      "d": 1867.7274218750026,
      "v": 94
    },
    {
      "midi": 63,
      "hit": false,
      "t": 65133.05731770852,
      "d": 1862.882473958336,
      "v": 96
    },
    {
      "midi": 70,
      "hit": false,
      "t": 65135.479791666854,
      "d": 1858.0375260416695,
      "v": 96
    },
    {
      "midi": 58,
      "hit": false,
      "t": 65232.37875000019,
      "d": 128.391119791675,
      "v": 113
    },
    {
      "midi": 70,
      "hit": false,
      "t": 65232.37875000019,
      "d": 128.391119791675,
      "v": 110
    },
    {
      "midi": 70,
      "hit": false,
      "t": 65348.65750000003,
      "d": 191.37544270833314,
      "v": 115
    },
    {
      "midi": 67,
      "hit": false,
      "t": 65464.9362500002,
      "d": 128.39111979166046,
      "v": 112
    },
    {
      "midi": 79,
      "hit": false,
      "t": 65464.9362500002,
      "d": 130.8135937499901,
      "v": 111
    },
    {
      "midi": 70,
      "hit": false,
      "t": 65813.77250000004,
      "d": 152.61585937500058,
      "v": 109
    },
    {
      "midi": 34,
      "hit": false,
      "t": 65816.19497395841,
      "d": 242.24739583334303,
      "v": 101
    },
    {
      "midi": 39,
      "hit": false,
      "t": 66051.17494791675,
      "d": 242.24739583334303,
      "v": 106
    },
    {
      "midi": 70,
      "hit": false,
      "t": 66278.88750000004,
      "d": 96.8989583333314,
      "v": 116
    },
    {
      "midi": 75,
      "hit": false,
      "t": 66511.44500000004,
      "d": 104.16638020833489,
      "v": 113
    },
    {
      "midi": 39,
      "hit": false,
      "t": 66521.13489583343,
      "d": 469.9599479166791,
      "v": 106
    },
    {
      "midi": 75,
      "hit": false,
      "t": 66744.00250000003,
      "d": 101.74390625000524,
      "v": 110
    },
    {
      "midi": 74,
      "hit": false,
      "t": 66976.56000000004,
      "d": 106.58885416666453,
      "v": 113
    },
    {
      "midi": 77,
      "hit": false,
      "t": 66976.56000000019,
      "d": 121.12369791667152,
      "v": 118
    },
    {
      "midi": 65,
      "hit": false,
      "t": 66976.56000000019,
      "d": 125.96864583334536,
      "v": 118
    },
    {
      "midi": 34,
      "hit": false,
      "t": 66986.24989583343,
      "d": 237.4024479166692,
      "v": 103
    },
    {
      "midi": 62,
      "hit": false,
      "t": 66991.0948437502,
      "d": 1862.8824739583215,
      "v": 97
    },
    {
      "midi": 70,
      "hit": false,
      "t": 66993.51731770852,
      "d": 1865.3049479166657,
      "v": 99
    },
    {
      "midi": 65,
      "hit": false,
      "t": 67000.78473958351,
      "d": 1858.0375260416768,
      "v": 95
    },
    {
      "midi": 58,
      "hit": false,
      "t": 67092.83875000018,
      "d": 128.391119791675,
      "v": 118
    },
    {
      "midi": 70,
      "hit": false,
      "t": 67092.83875000018,
      "d": 128.391119791675,
      "v": 115
    },
    {
      "midi": 74,
      "hit": false,
      "t": 67209.11750000004,
      "d": 101.74390625000524,
      "v": 116
    },
    {
      "midi": 65,
      "hit": false,
      "t": 67325.3962500002,
      "d": 128.39111979166046,
      "v": 110
    },
    {
      "midi": 77,
      "hit": false,
      "t": 67325.3962500002,
      "d": 130.8135937499901,
      "v": 110
    },
    {
      "midi": 74,
      "hit": false,
      "t": 67441.67500000005,
      "d": 92.0540104166721,
      "v": 114
    },
    {
      "midi": 70,
      "hit": false,
      "t": 67674.23250000006,
      "d": 94.47648437500175,
      "v": 111
    },
    {
      "midi": 29,
      "hit": false,
      "t": 67679.07744791677,
      "d": 242.24739583334303,
      "v": 107
    },
    {
      "midi": 72,
      "hit": false,
      "t": 67906.79000000005,
      "d": 121.12369791667152,
      "v": 116
    },
    {
      "midi": 34,
      "hit": false,
      "t": 67914.05742187511,
      "d": 242.24739583334303,
      "v": 111
    },
    {
      "midi": 74,
      "hit": false,
      "t": 68139.34750000006,
      "d": 159.88328125000407,
      "v": 108
    },
    {
      "midi": 34,
      "hit": false,
      "t": 68381.59489583346,
      "d": 469.95994791666453,
      "v": 106
    },
    {
      "midi": 72,
      "hit": false,
      "t": 68604.46250000007,
      "d": 196.22039062500698,
      "v": 114
    },
    {
      "midi": 77,
      "hit": false,
      "t": 68837.02000000018,
      "d": 121.12369791667152,
      "v": 117
    },
    {
      "midi": 65,
      "hit": false,
      "t": 68837.02000000018,
      "d": 125.96864583334536,
      "v": 108
    },
    {
      "midi": 29,
      "hit": false,
      "t": 68844.28742187512,
      "d": 237.4024479166692,
      "v": 110
    },
    {
      "midi": 60,
      "hit": false,
      "t": 68853.97731770852,
      "d": 1865.3049479166657,
      "v": 96
    },
    {
      "midi": 69,
      "hit": false,
      "t": 68853.97731770852,
      "d": 1870.1498958333395,
      "v": 91
    },
    {
      "midi": 65,
      "hit": false,
      "t": 68858.82226562519,
      "d": 1855.6150520833326,
      "v": 102
    },
    {
      "midi": 72,
      "hit": false,
      "t": 68953.29875000018,
      "d": 125.96864583334536,
      "v": 107
    },
    {
      "midi": 60,
      "hit": false,
      "t": 68953.29875000018,
      "d": 128.391119791675,
      "v": 118
    },
    {
      "midi": 65,
      "hit": false,
      "t": 69185.85625000019,
      "d": 128.39111979166046,
      "v": 107
    },
    {
      "midi": 77,
      "hit": false,
      "t": 69185.85625000019,
      "d": 130.8135937499901,
      "v": 112
    },
    {
      "midi": 41,
      "hit": false,
      "t": 69537.11497395847,
      "d": 479.6498437500122,
      "v": 106
    },
    {
      "midi": 29,
      "hit": false,
      "t": 69772.0949479168,
      "d": 7.2674218750034925,
      "v": 104
    },
    {
      "midi": 75,
      "hit": false,
      "t": 70232.36500000008,
      "d": 113.85627604166802,
      "v": 112
    },
    {
      "midi": 29,
      "hit": false,
      "t": 70244.47736979181,
      "d": 469.95994791666453,
      "v": 110
    },
    {
      "midi": 75,
      "hit": false,
      "t": 70464.92250000007,
      "d": 106.58885416666453,
      "v": 116
    },
    {
      "midi": 74,
      "hit": false,
      "t": 70697.48000000007,
      "d": 145.3484374999971,
      "v": 111
    },
    {
      "midi": 77,
      "hit": false,
      "t": 70697.48000000017,
      "d": 121.12369791667152,
      "v": 114
    },
    {
      "midi": 65,
      "hit": false,
      "t": 70697.48000000017,
      "d": 125.96864583334536,
      "v": 112
    },
    {
      "midi": 34,
      "hit": false,
      "t": 70707.16989583347,
      "d": 234.97997395833954,
      "v": 111
    },
    {
      "midi": 70,
      "hit": false,
      "t": 70714.43731770852,
      "d": 1860.4599999999919,
      "v": 97
    },
    {
      "midi": 65,
      "hit": false,
      "t": 70714.43731770852,
      "d": 1862.8824739583215,
      "v": 95
    },
    {
      "midi": 62,
      "hit": false,
      "t": 70716.85979166685,
      "d": 1862.8824739583215,
      "v": 95
    },
    {
      "midi": 58,
      "hit": false,
      "t": 70813.75875000017,
      "d": 128.391119791675,
      "v": 118
    },
    {
      "midi": 70,
      "hit": false,
      "t": 70813.75875000017,
      "d": 128.391119791675,
      "v": 113
    },
    {
      "midi": 74,
      "hit": false,
      "t": 71046.31625000006,
      "d": 128.39111979166046,
      "v": 115
    },
    {
      "midi": 65,
      "hit": false,
      "t": 71046.31625000018,
      "d": 128.39111979166046,
      "v": 109
    },
    {
      "midi": 77,
      "hit": false,
      "t": 71046.31625000018,
      "d": 130.8135937499901,
      "v": 117
    },
    {
      "midi": 72,
      "hit": false,
      "t": 71395.15250000005,
      "d": 116.27874999999767,
      "v": 111
    },
    {
      "midi": 29,
      "hit": false,
      "t": 71402.41992187515,
      "d": 242.24739583332848,
      "v": 107
    },
    {
      "midi": 70,
      "hit": false,
      "t": 71627.71000000005,
      "d": 164.72822916666337,
      "v": 112
    },
    {
      "midi": 34,
      "hit": false,
      "t": 71634.97742187514,
      "d": 242.24739583332848,
      "v": 110
    },
    {
      "midi": 69,
      "hit": false,
      "t": 72092.82500000004,
      "d": 138.0810156249936,
      "v": 113
    },
    {
      "midi": 34,
      "hit": false,
      "t": 72104.9373697918,
      "d": 469.95994791666453,
      "v": 102
    },
    {
      "midi": 67,
      "hit": false,
      "t": 72325.38250000004,
      "d": 336.72388020833023,
      "v": 115
    },
    {
      "midi": 79,
      "hit": false,
      "t": 72557.94000000016,
      "d": 121.12369791667152,
      "v": 117
    },
    {
      "midi": 67,
      "hit": false,
      "t": 72557.94000000016,
      "d": 125.96864583334536,
      "v": 107
    },
    {
      "midi": 39,
      "hit": false,
      "t": 72572.47484375014,
      "d": 237.4024479166692,
      "v": 105
    },
    {
      "midi": 67,
      "hit": false,
      "t": 72572.47484375018,
      "d": 932.6524739583256,
      "v": 94
    },
    {
      "midi": 63,
      "hit": false,
      "t": 72577.31979166684,
      "d": 1862.8824739583215,
      "v": 92
    },
    {
      "midi": 70,
      "hit": false,
      "t": 72579.74226562517,
      "d": 1860.4599999999919,
      "v": 98
    },
    {
      "midi": 58,
      "hit": false,
      "t": 72674.21875000016,
      "d": 128.391119791675,
      "v": 117
    },
    {
      "midi": 70,
      "hit": false,
      "t": 72674.21875000016,
      "d": 128.391119791675,
      "v": 107
    },
    {
      "midi": 70,
      "hit": false,
      "t": 72790.49750000003,
      "d": 140.5034895833378,
      "v": 112
    },
    {
      "midi": 67,
      "hit": false,
      "t": 72906.77625000017,
      "d": 128.39111979166046,
      "v": 114
    },
    {
      "midi": 79,
      "hit": false,
      "t": 72906.77625000017,
      "d": 130.8135937499901,
      "v": 110
    },
    {
      "midi": 75,
      "hit": false,
      "t": 73255.61250000003,
      "d": 176.84059895832615,
      "v": 108
    },
    {
      "midi": 34,
      "hit": false,
      "t": 73262.87992187514,
      "d": 242.24739583334303,
      "v": 101
    },
    {
      "midi": 39,
      "hit": false,
      "t": 73490.59247395847,
      "d": 242.24739583334303,
      "v": 107
    },
    {
      "midi": 66,
      "hit": false,
      "t": 73500.28236979184,
      "d": 942.3423697916587,
      "v": 104
    },
    {
      "midi": 75,
      "hit": false,
      "t": 73720.72750000002,
      "d": 101.74390625000524,
      "v": 114
    },
    {
      "midi": 75,
      "hit": false,
      "t": 73953.28500000003,
      "d": 92.0540104166721,
      "v": 114
    },
    {
      "midi": 39,
      "hit": false,
      "t": 73962.97489583348,
      "d": 469.95994791666453,
      "v": 101
    },
    {
      "midi": 75,
      "hit": false,
      "t": 74185.84250000004,
      "d": 94.47648437500175,
      "v": 113
    },
    {
      "midi": 74,
      "hit": false,
      "t": 74418.40000000004,
      "d": 104.16638020833489,
      "v": 112
    },
    {
      "midi": 77,
      "hit": false,
      "t": 74418.40000000015,
      "d": 121.12369791667152,
      "v": 108
    },
    {
      "midi": 65,
      "hit": false,
      "t": 74418.40000000015,
      "d": 125.96864583334536,
      "v": 113
    },
    {
      "midi": 34,
      "hit": false,
      "t": 74430.51236979182,
      "d": 234.979973958325,
      "v": 101
    },
    {
      "midi": 62,
      "hit": false,
      "t": 74435.3573177085,
      "d": 935.0749479166698,
      "v": 100
    },
    {
      "midi": 65,
      "hit": false,
      "t": 74437.77979166684,
      "d": 927.8075260416663,
      "v": 97
    },
    {
      "midi": 70,
      "hit": false,
      "t": 74442.6247395835,
      "d": 937.497421875014,
      "v": 101
    },
    {
      "midi": 58,
      "hit": false,
      "t": 74534.67875000015,
      "d": 128.391119791675,
      "v": 116
    },
    {
      "midi": 70,
      "hit": false,
      "t": 74534.67875000015,
      "d": 128.391119791675,
      "v": 114
    },
    {
      "midi": 74,
      "hit": false,
      "t": 74650.95750000003,
      "d": 96.8989583333314,
      "v": 110
    },
    {
      "midi": 65,
      "hit": false,
      "t": 74767.23625000016,
      "d": 128.39111979166046,
      "v": 108
    },
    {
      "midi": 77,
      "hit": false,
      "t": 74767.23625000016,
      "d": 130.8135937499901,
      "v": 111
    },
    {
      "midi": 74,
      "hit": false,
      "t": 74883.51500000003,
      "d": 84.7865885416686,
      "v": 112
    },
    {
      "midi": 70,
      "hit": false,
      "t": 75116.07250000002,
      "d": 121.12369791667152,
      "v": 109
    },
    {
      "midi": 41,
      "hit": false,
      "t": 75125.76239583347,
      "d": 469.9599479166791,
      "v": 106
    },
    {
      "midi": 72,
      "hit": false,
      "t": 75348.63000000003,
      "d": 164.72822916666337,
      "v": 111
    },
    {
      "midi": 29,
      "hit": false,
      "t": 75353.47494791681,
      "d": 14.534843750006985,
      "v": 108
    },
    {
      "midi": 60,
      "hit": false,
      "t": 75360.74236979183,
      "d": 935.0749479166843,
      "v": 94
    },
    {
      "midi": 65,
      "hit": false,
      "t": 75370.43226562518,
      "d": 930.2300000000105,
      "v": 95
    },
    {
      "midi": 69,
      "hit": false,
      "t": 75372.8547395835,
      "d": 935.0749479166843,
      "v": 102
    },
    {
      "midi": 72,
      "hit": false,
      "t": 75813.74500000002,
      "d": 155.03833333333023,
      "v": 112
    },
    {
      "midi": 29,
      "hit": false,
      "t": 75825.85736979182,
      "d": 469.95994791666453,
      "v": 104
    },
    {
      "midi": 70,
      "hit": false,
      "t": 76046.30250000002,
      "d": 167.15070312499302,
      "v": 109
    },
    {
      "midi": 77,
      "hit": false,
      "t": 76278.86000000015,
      "d": 121.12369791667152,
      "v": 117
    },
    {
      "midi": 65,
      "hit": false,
      "t": 76278.86000000015,
      "d": 125.96864583334536,
      "v": 118
    },
    {
      "midi": 34,
      "hit": false,
      "t": 76286.12742187515,
      "d": 237.4024479166692,
      "v": 109
    },
    {
      "midi": 62,
      "hit": false,
      "t": 76293.39484375018,
      "d": 1862.882473958336,
      "v": 96
    },
    {
      "midi": 70,
      "hit": false,
      "t": 76295.81731770851,
      "d": 1865.3049479166802,
      "v": 92
    },
    {
      "midi": 65,
      "hit": false,
      "t": 76300.66226562519,
      "d": 1855.6150520833326,
      "v": 102
    },
    {
      "midi": 65,
      "hit": false,
      "t": 76627.69625000015,
      "d": 128.39111979166046,
      "v": 115
    },
    {
      "midi": 77,
      "hit": false,
      "t": 76627.69625000015,
      "d": 130.8135937499901,
      "v": 114
    },
    {
      "midi": 29,
      "hit": false,
      "t": 76981.37744791682,
      "d": 242.24739583332848,
      "v": 104
    },
    {
      "midi": 34,
      "hit": false,
      "t": 77211.51247395849,
      "d": 242.24739583332848,
      "v": 101
    },
    {
      "midi": 75,
      "hit": false,
      "t": 77674.20500000002,
      "d": 104.16638020833489,
      "v": 115
    },
    {
      "midi": 34,
      "hit": false,
      "t": 77686.31736979181,
      "d": 467.5374739583349,
      "v": 109
    },
    {
      "midi": 74,
      "hit": false,
      "t": 77906.76250000001,
      "d": 84.7865885416686,
      "v": 114
    },
    {
      "midi": 74,
      "hit": false,
      "t": 78139.32,
      "d": 186.53049479167385,
      "v": 116
    },
    {
      "midi": 77,
      "hit": false,
      "t": 78139.32000000014,
      "d": 118.70122395832732,
      "v": 114
    },
    {
      "midi": 65,
      "hit": false,
      "t": 78139.32000000014,
      "d": 125.96864583333081,
      "v": 107
    },
    {
      "midi": 34,
      "hit": false,
      "t": 78153.85484375014,
      "d": 234.97997395833954,
      "v": 103
    },
    {
      "midi": 62,
      "hit": false,
      "t": 78156.27731770852,
      "d": 1862.882473958336,
      "v": 96
    },
    {
      "midi": 65,
      "hit": false,
      "t": 78156.27731770852,
      "d": 1862.882473958336,
      "v": 96
    },
    {
      "midi": 70,
      "hit": false,
      "t": 78161.12226562519,
      "d": 1858.0375260416622,
      "v": 98
    },
    {
      "midi": 58,
      "hit": false,
      "t": 78255.59875000014,
      "d": 128.39111979166046,
      "v": 108
    },
    {
      "midi": 70,
      "hit": false,
      "t": 78255.59875000014,
      "d": 128.39111979166046,
      "v": 109
    },
    {
      "midi": 74,
      "hit": false,
      "t": 78488.15625000001,
      "d": 113.85627604166802,
      "v": 113
    },
    {
      "midi": 65,
      "hit": false,
      "t": 78488.15625000013,
      "d": 128.39111979166046,
      "v": 113
    },
    {
      "midi": 77,
      "hit": false,
      "t": 78488.15625000013,
      "d": 130.8135937499901,
      "v": 118
    },
    {
      "midi": 72,
      "hit": false,
      "t": 78836.99250000002,
      "d": 135.65854166666395,
      "v": 108
    },
    {
      "midi": 29,
      "hit": false,
      "t": 78839.41497395848,
      "d": 242.24739583332848,
      "v": 102
    },
    {
      "midi": 70,
      "hit": false,
      "t": 79069.55000000002,
      "d": 276.16203125000175,
      "v": 116
    },
    {
      "midi": 34,
      "hit": false,
      "t": 79071.97247395848,
      "d": 242.24739583332848,
      "v": 101
    },
    {
      "midi": 69,
      "hit": false,
      "t": 79534.66500000002,
      "d": 142.92596354166744,
      "v": 113
    },
    {
      "midi": 34,
      "hit": false,
      "t": 79544.35489583347,
      "d": 469.95994791666453,
      "v": 110
    },
    {
      "midi": 67,
      "hit": false,
      "t": 79767.22250000002,
      "d": 293.1193489583384,
      "v": 116
    },
    {
      "midi": 79,
      "hit": false,
      "t": 79999.78000000012,
      "d": 121.12369791667152,
      "v": 107
    },
    {
      "midi": 67,
      "hit": false,
      "t": 79999.78000000012,
      "d": 125.96864583334536,
      "v": 112
    },
    {
      "midi": 39,
      "hit": false,
      "t": 80014.31484375014,
      "d": 237.4024479166692,
      "v": 107
    },
    {
      "midi": 63,
      "hit": false,
      "t": 80016.73731770852,
      "d": 1862.8824739583215,
      "v": 100
    },
    {
      "midi": 67,
      "hit": false,
      "t": 80019.15979166685,
      "d": 1865.3049479166511,
      "v": 91
    },
    {
      "midi": 70,
      "hit": false,
      "t": 80021.58226562518,
      "d": 1860.4599999999919,
      "v": 104
    },
    {
      "midi": 58,
      "hit": false,
      "t": 80116.05875000011,
      "d": 128.391119791675,
      "v": 113
    },
    {
      "midi": 70,
      "hit": false,
      "t": 80116.05875000011,
      "d": 128.391119791675,
      "v": 112
    },
    {
      "midi": 70,
      "hit": false,
      "t": 80232.33750000002,
      "d": 181.685546875,
      "v": 114
    },
    {
      "midi": 67,
      "hit": false,
      "t": 80348.61625000012,
      "d": 128.39111979166046,
      "v": 112
    },
    {
      "midi": 79,
      "hit": false,
      "t": 80348.61625000012,
      "d": 130.8135937499901,
      "v": 111
    },
    {
      "midi": 70,
      "hit": false,
      "t": 80697.45250000003,
      "d": 176.84059895832615,
      "v": 116
    },
    {
      "midi": 34,
      "hit": false,
      "t": 80704.71992187513,
      "d": 242.24739583332848,
      "v": 103
    },
    {
      "midi": 39,
      "hit": false,
      "t": 80937.27742187513,
      "d": 242.24739583332848,
      "v": 107
    },
    {
      "midi": 70,
      "hit": false,
      "t": 81162.56750000002,
      "d": 121.12369791667152,
      "v": 109
    },
    {
      "midi": 75,
      "hit": false,
      "t": 81395.12500000003,
      "d": 140.5034895833378,
      "v": 116
    },
    {
      "midi": 39,
      "hit": false,
      "t": 81402.39242187512,
      "d": 469.95994791666453,
      "v": 107
    },
    {
      "midi": 70,
      "hit": false,
      "t": 81627.68250000004,
      "d": 94.47648437500175,
      "v": 108
    },
    {
      "midi": 74,
      "hit": false,
      "t": 81860.24000000003,
      "d": 138.0810156249936,
      "v": 110
    },
    {
      "midi": 77,
      "hit": false,
      "t": 81860.2400000001,
      "d": 121.12369791667152,
      "v": 110
    },
    {
      "midi": 65,
      "hit": false,
      "t": 81860.2400000001,
      "d": 125.96864583334536,
      "v": 111
    },
    {
      "midi": 34,
      "hit": false,
      "t": 81872.35236979178,
      "d": 234.97997395833954,
      "v": 105
    },
    {
      "midi": 65,
      "hit": false,
      "t": 81879.61979166685,
      "d": 1858.0375260416622,
      "v": 92
    },
    {
      "midi": 62,
      "hit": false,
      "t": 81879.61979166685,
      "d": 1862.8824739583215,
      "v": 105
    },
    {
      "midi": 70,
      "hit": false,
      "t": 81882.04226562518,
      "d": 1865.3049479166657,
      "v": 103
    },
    {
      "midi": 58,
      "hit": false,
      "t": 81976.5187500001,
      "d": 128.391119791675,
      "v": 112
    },
    {
      "midi": 70,
      "hit": false,
      "t": 81976.5187500001,
      "d": 128.391119791675,
      "v": 108
    },
    {
      "midi": 74,
      "hit": false,
      "t": 82092.79750000003,
      "d": 113.85627604166802,
      "v": 114
    },
    {
      "midi": 65,
      "hit": false,
      "t": 82209.07625000011,
      "d": 128.39111979166046,
      "v": 107
    },
    {
      "midi": 77,
      "hit": false,
      "t": 82209.07625000011,
      "d": 130.8135937499901,
      "v": 118
    },
    {
      "midi": 74,
      "hit": false,
      "t": 82325.35500000003,
      "d": 123.54617187500116,
      "v": 115
    },
    {
      "midi": 70,
      "hit": false,
      "t": 82557.91250000002,
      "d": 118.70122395832732,
      "v": 108
    },
    {
      "midi": 29,
      "hit": false,
      "t": 82560.33497395845,
      "d": 242.24739583332848,
      "v": 103
    },
    {
      "midi": 72,
      "hit": false,
      "t": 82790.47000000002,
      "d": 123.54617187500116,
      "v": 116
    },
    {
      "midi": 34,
      "hit": false,
      "t": 82802.58236979178,
      "d": 239.82492187499884,
      "v": 110
    },
    {
      "midi": 74,
      "hit": false,
      "t": 83139.30625000002,
      "d": 150.19338541667094,
      "v": 115
    },
    {
      "midi": 34,
      "hit": false,
      "t": 83260.42994791678,
      "d": 469.95994791666453,
      "v": 106
    },
    {
      "midi": 72,
      "hit": false,
      "t": 83488.14250000003,
      "d": 152.61585937500058,
      "v": 109
    },
    {
      "midi": 77,
      "hit": false,
      "t": 83720.7000000001,
      "d": 121.12369791667152,
      "v": 115
    },
    {
      "midi": 65,
      "hit": false,
      "t": 83720.7000000001,
      "d": 125.96864583334536,
      "v": 107
    },
    {
      "midi": 29,
      "hit": false,
      "t": 83727.96742187512,
      "d": 237.4024479166692,
      "v": 108
    },
    {
      "midi": 60,
      "hit": false,
      "t": 83735.23484375018,
      "d": 1862.882473958336,
      "v": 104
    },
    {
      "midi": 65,
      "hit": false,
      "t": 83740.07979166684,
      "d": 1862.882473958336,
      "v": 92
    },
    {
      "midi": 69,
      "hit": false,
      "t": 83742.50226562517,
      "d": 1867.72742187501,
      "v": 104
    },
    {
      "midi": 60,
      "hit": false,
      "t": 83836.9787500001,
      "d": 128.391119791675,
      "v": 118
    },
    {
      "midi": 72,
      "hit": false,
      "t": 83836.9787500001,
      "d": 128.391119791675,
      "v": 114
    },
    {
      "midi": 65,
      "hit": false,
      "t": 84069.5362500001,
      "d": 128.39111979166046,
      "v": 113
    },
    {
      "midi": 77,
      "hit": false,
      "t": 84069.5362500001,
      "d": 130.8135937499901,
      "v": 116
    },
    {
      "midi": 41,
      "hit": false,
      "t": 84425.63992187512,
      "d": 472.3824218749942,
      "v": 105
    },
    {
      "midi": 29,
      "hit": false,
      "t": 84655.77494791678,
      "d": 12.112369791662786,
      "v": 108
    },
    {
      "midi": 75,
      "hit": false,
      "t": 85116.04500000003,
      "d": 94.47648437500175,
      "v": 116
    },
    {
      "midi": 29,
      "hit": false,
      "t": 85123.31242187512,
      "d": 469.95994791666453,
      "v": 106
    },
    {
      "midi": 75,
      "hit": false,
      "t": 85348.60250000002,
      "d": 92.0540104166721,
      "v": 110
    },
    {
      "midi": 74,
      "hit": false,
      "t": 85581.16000000003,
      "d": 179.26307291667035,
      "v": 113
    },
    {
      "midi": 77,
      "hit": false,
      "t": 85581.16000000009,
      "d": 121.12369791667152,
      "v": 117
    },
    {
      "midi": 65,
      "hit": false,
      "t": 85581.16000000009,
      "d": 125.96864583334536,
      "v": 109
    },
    {
      "midi": 34,
      "hit": false,
      "t": 85595.69484375011,
      "d": 234.97997395833954,
      "v": 102
    },
    {
      "midi": 62,
      "hit": false,
      "t": 85600.53979166684,
      "d": 1862.882473958336,
      "v": 100
    },
    {
      "midi": 70,
      "hit": false,
      "t": 85602.96226562517,
      "d": 1855.6150520833326,
      "v": 95
    },
    {
      "midi": 65,
      "hit": false,
      "t": 85605.3847395835,
      "d": 1862.8824739583506,
      "v": 102
    },
    {
      "midi": 58,
      "hit": false,
      "t": 85697.43875000009,
      "d": 128.391119791675,
      "v": 113
    },
    {
      "midi": 70,
      "hit": false,
      "t": 85697.43875000009,
      "d": 128.391119791675,
      "v": 116
    },
    {
      "midi": 74,
      "hit": false,
      "t": 85929.99625000004,
      "d": 125.96864583333081,
      "v": 111
    },
    {
      "midi": 65,
      "hit": false,
      "t": 85929.9962500001,
      "d": 128.39111979166046,
      "v": 109
    },
    {
      "midi": 77,
      "hit": false,
      "t": 85929.9962500001,
      "d": 130.8135937499901,
      "v": 115
    },
    {
      "midi": 72,
      "hit": false,
      "t": 86278.83250000003,
      "d": 123.54617187500116,
      "v": 113
    },
    {
      "midi": 29,
      "hit": false,
      "t": 86281.25497395845,
      "d": 242.24739583334303,
      "v": 105
    },
    {
      "midi": 70,
      "hit": false,
      "t": 86511.39000000003,
      "d": 261.62718749999476,
      "v": 111
    },
    {
      "midi": 34,
      "hit": false,
      "t": 86518.65742187512,
      "d": 242.24739583334303,
      "v": 107
    },
    {
      "midi": 69,
      "hit": false,
      "t": 86976.50500000002,
      "d": 128.39111979166046,
      "v": 113
    },
    {
      "midi": 34,
      "hit": false,
      "t": 86986.19489583347,
      "d": 469.95994791666453,
      "v": 101
    },
    {
      "midi": 67,
      "hit": false,
      "t": 87209.06250000001,
      "d": 341.5688281250041,
      "v": 109
    },
    {
      "midi": 79,
      "hit": false,
      "t": 87441.62000000008,
      "d": 121.12369791667152,
      "v": 114
    },
    {
      "midi": 67,
      "hit": false,
      "t": 87441.62000000008,
      "d": 125.96864583334536,
      "v": 111
    },
    {
      "midi": 39,
      "hit": false,
      "t": 87456.15484375013,
      "d": 237.4024479166692,
      "v": 110
    },
    {
      "midi": 67,
      "hit": false,
      "t": 87456.15484375018,
      "d": 932.6524739583547,
      "v": 100
    },
    {
      "midi": 70,
      "hit": false,
      "t": 87458.5773177085,
      "d": 1860.460000000021,
      "v": 94
    },
    {
      "midi": 63,
      "hit": false,
      "t": 87458.5773177085,
      "d": 1862.8824739583506,
      "v": 95
    },
    {
      "midi": 58,
      "hit": false,
      "t": 87557.89875000008,
      "d": 128.391119791675,
      "v": 118
    },
    {
      "midi": 70,
      "hit": false,
      "t": 87557.89875000008,
      "d": 128.391119791675,
      "v": 117
    },
    {
      "midi": 70,
      "hit": false,
      "t": 87674.17750000002,
      "d": 145.3484374999971,
      "v": 111
    },
    {
      "midi": 67,
      "hit": false,
      "t": 87790.45625000009,
      "d": 128.39111979166046,
      "v": 115
    },
    {
      "midi": 79,
      "hit": false,
      "t": 87790.45625000009,
      "d": 130.8135937499901,
      "v": 112
    },
    {
      "midi": 70,
      "hit": false,
      "t": 88139.29250000001,
      "d": 142.92596354166744,
      "v": 114
    },
    {
      "midi": 34,
      "hit": false,
      "t": 88144.1374479168,
      "d": 242.24739583332848,
      "v": 107
    },
    {
      "midi": 39,
      "hit": false,
      "t": 88374.27247395847,
      "d": 242.24739583332848,
      "v": 104
    },
    {
      "midi": 66,
      "hit": false,
      "t": 88381.53989583353,
      "d": 944.7648437500029,
      "v": 99
    },
    {
      "midi": 70,
      "hit": false,
      "t": 88604.40750000002,
      "d": 116.27874999999767,
      "v": 108
    },
    {
      "midi": 75,
      "hit": false,
      "t": 88836.96500000001,
      "d": 121.12369791667152,
      "v": 113
    },
    {
      "midi": 39,
      "hit": false,
      "t": 88846.65489583346,
      "d": 469.9599479166791,
      "v": 102
    },
    {
      "midi": 70,
      "hit": false,
      "t": 89069.52250000002,
      "d": 106.58885416666453,
      "v": 109
    },
    {
      "midi": 74,
      "hit": false,
      "t": 89302.08000000002,
      "d": 116.27874999999767,
      "v": 109
    },
    {
      "midi": 77,
      "hit": false,
      "t": 89302.08000000007,
      "d": 121.12369791667152,
      "v": 111
    },
    {
      "midi": 65,
      "hit": false,
      "t": 89302.08000000007,
      "d": 125.96864583334536,
      "v": 117
    },
    {
      "midi": 34,
      "hit": false,
      "t": 89311.76989583347,
      "d": 237.4024479166692,
      "v": 104
    },
    {
      "midi": 62,
      "hit": false,
      "t": 89319.03731770853,
      "d": 935.0749479166552,
      "v": 102
    },
    {
      "midi": 70,
      "hit": false,
      "t": 89319.03731770853,
      "d": 937.4974218749849,
      "v": 101
    },
    {
      "midi": 65,
      "hit": false,
      "t": 89326.30473958353,
      "d": 920.5401041666628,
      "v": 98
    },
    {
      "midi": 58,
      "hit": false,
      "t": 89418.35875000007,
      "d": 128.391119791675,
      "v": 116
    },
    {
      "midi": 70,
      "hit": false,
      "t": 89418.35875000007,
      "d": 130.81359375000466,
      "v": 111
    },
    {
      "midi": 74,
      "hit": false,
      "t": 89534.63750000001,
      "d": 123.54617187500116,
      "v": 110
    },
    {
      "midi": 65,
      "hit": false,
      "t": 89650.91625000008,
      "d": 128.39111979166046,
      "v": 118
    },
    {
      "midi": 77,
      "hit": false,
      "t": 89650.91625000008,
      "d": 130.8135937499901,
      "v": 116
    },
    {
      "midi": 74,
      "hit": false,
      "t": 89767.195,
      "d": 123.54617187500116,
      "v": 112
    },
    {
      "midi": 70,
      "hit": false,
      "t": 89999.7525,
      "d": 104.16638020833489,
      "v": 109
    },
    {
      "midi": 41,
      "hit": false,
      "t": 90002.17497395846,
      "d": 482.0723177083273,
      "v": 107
    },
    {
      "midi": 72,
      "hit": false,
      "t": 90232.31,
      "d": 130.81359375000466,
      "v": 109
    },
    {
      "midi": 29,
      "hit": false,
      "t": 90241.99989583346,
      "d": 2.422473958329647,
      "v": 103
    },
    {
      "midi": 65,
      "hit": false,
      "t": 90246.8448437502,
      "d": 930.2299999999814,
      "v": 99
    },
    {
      "midi": 69,
      "hit": false,
      "t": 90249.26731770852,
      "d": 935.0749479166552,
      "v": 98
    },
    {
      "midi": 60,
      "hit": false,
      "t": 90251.68979166685,
      "d": 935.0749479166552,
      "v": 97
    },
    {
      "midi": 72,
      "hit": false,
      "t": 90464.86750000001,
      "d": 138.0810156249936,
      "v": 114
    },
    {
      "midi": 29,
      "hit": false,
      "t": 90709.5373697918,
      "d": 469.95994791666453,
      "v": 103
    },
    {
      "midi": 70,
      "hit": false,
      "t": 90929.9825,
      "d": 155.03833333333023,
      "v": 108
    },
    {
      "midi": 77,
      "hit": false,
      "t": 91162.54000000007,
      "d": 121.12369791667152,
      "v": 113
    },
    {
      "midi": 65,
      "hit": false,
      "t": 91162.54000000007,
      "d": 125.96864583334536,
      "v": 110
    },
    {
      "midi": 34,
      "hit": false,
      "t": 91169.80742187513,
      "d": 239.82492187499884,
      "v": 109
    },
    {
      "midi": 65,
      "hit": false,
      "t": 91179.4973177085,
      "d": 1865.3049479166657,
      "v": 103
    },
    {
      "midi": 70,
      "hit": false,
      "t": 91179.4973177085,
      "d": 1870.149895833325,
      "v": 93
    },
    {
      "midi": 62,
      "hit": false,
      "t": 91184.34226562518,
      "d": 1862.8824739583215,
      "v": 91
    },
    {
      "midi": 65,
      "hit": false,
      "t": 91511.37625000007,
      "d": 128.39111979166046,
      "v": 114
    },
    {
      "midi": 77,
      "hit": false,
      "t": 91511.37625000007,
      "d": 130.8135937499901,
      "v": 110
    },
    {
      "midi": 29,
      "hit": false,
      "t": 91862.63497395845,
      "d": 242.24739583334303,
      "v": 107
    },
    {
      "midi": 34,
      "hit": false,
      "t": 92097.6149479168,
      "d": 239.82492187499884,
      "v": 103
    },
    {
      "midi": 77,
      "hit": false,
      "t": 92557.885,
      "d": 109.01132812499418,
      "v": 111
    },
    {
      "midi": 65,
      "hit": false,
      "t": 92565.15242187498,
      "d": 130.81359375000466,
      "v": 93
    },
    {
      "midi": 74,
      "hit": false,
      "t": 92565.1524218752,
      "d": 128.391119791675,
      "v": 91
    },
    {
      "midi": 34,
      "hit": false,
      "t": 92567.57489583346,
      "d": 465.11500000000524,
      "v": 104
    },
    {
      "midi": 70,
      "hit": false,
      "t": 92569.99736979188,
      "d": 123.54617187500116,
      "v": 89
    },
    {
      "midi": 65,
      "hit": false,
      "t": 92572.4198437502,
      "d": 123.54617187500116,
      "v": 95
    },
    {
      "midi": 77,
      "hit": false,
      "t": 92790.44249999999,
      "d": 94.47648437500175,
      "v": 115
    },
    {
      "midi": 70,
      "hit": false,
      "t": 92792.86497395854,
      "d": 130.81359375000466,
      "v": 97
    },
    {
      "midi": 65,
      "hit": false,
      "t": 92800.13239583332,
      "d": 128.39111979166046,
      "v": 101
    },
    {
      "midi": 65,
      "hit": false,
      "t": 92800.13239583354,
      "d": 128.391119791675,
      "v": 89
    },
    {
      "midi": 74,
      "hit": false,
      "t": 92802.55486979187,
      "d": 130.8135937500192,
      "v": 92
    },
    {
      "midi": 77,
      "hit": false,
      "t": 93022.99999999999,
      "d": 125.96864583333081,
      "v": 113
    },
    {
      "midi": 77,
      "hit": false,
      "t": 93023.00000000006,
      "d": 118.70122395832732,
      "v": 117
    },
    {
      "midi": 65,
      "hit": false,
      "t": 93023.00000000006,
      "d": 125.96864583333081,
      "v": 113
    },
    {
      "midi": 34,
      "hit": false,
      "t": 93032.68989583346,
      "d": 234.97997395833954,
      "v": 108
    },
    {
      "midi": 65,
      "hit": false,
      "t": 93035.1123697919,
      "d": 118.70122395834187,
      "v": 91
    },
    {
      "midi": 65,
      "hit": false,
      "t": 93037.53484375011,
      "d": 234.97997395833954,
      "v": 103
    },
    {
      "midi": 70,
      "hit": false,
      "t": 93039.95731770857,
      "d": 121.12369791667152,
      "v": 102
    },
    {
      "midi": 74,
      "hit": false,
      "t": 93039.95731770857,
      "d": 121.12369791667152,
      "v": 89
    },
    {
      "midi": 65,
      "hit": false,
      "t": 93044.80226562498,
      "d": 111.43380208333838,
      "v": 98
    },
    {
      "midi": 62,
      "hit": false,
      "t": 93047.2247395835,
      "d": 1860.4599999999919,
      "v": 95
    },
    {
      "midi": 65,
      "hit": false,
      "t": 93047.2247395835,
      "d": 1862.8824739583215,
      "v": 97
    },
    {
      "midi": 70,
      "hit": false,
      "t": 93052.06968750016,
      "d": 1867.7274218749953,
      "v": 94
    },
    {
      "midi": 70,
      "hit": false,
      "t": 93139.27875000006,
      "d": 123.54617187500116,
      "v": 112
    },
    {
      "midi": 58,
      "hit": false,
      "t": 93139.27875000006,
      "d": 128.391119791675,
      "v": 117
    },
    {
      "midi": 65,
      "hit": false,
      "t": 93371.83625000007,
      "d": 128.39111979166046,
      "v": 108
    },
    {
      "midi": 77,
      "hit": false,
      "t": 93371.83625000007,
      "d": 130.8135937499901,
      "v": 114
    },
    {
      "midi": 65,
      "hit": false,
      "t": 93495.38242187511,
      "d": 244.66986979167268,
      "v": 97
    },
    {
      "midi": 70,
      "hit": false,
      "t": 93720.67249999999,
      "d": 92.0540104166721,
      "v": 108
    },
    {
      "midi": 29,
      "hit": false,
      "t": 93730.36239583346,
      "d": 244.66986979167268,
      "v": 105
    },
    {
      "midi": 70,
      "hit": false,
      "t": 93953.23,
      "d": 87.20906249999825,
      "v": 108
    },
    {
      "midi": 77,
      "hit": false,
      "t": 93953.23000000005,
      "d": 123.54617187500116,
      "v": 110
    },
    {
      "midi": 65,
      "hit": false,
      "t": 93953.23000000005,
      "d": 128.391119791675,
      "v": 109
    },
    {
      "midi": 65,
      "hit": false,
      "t": 93958.07494791679,
      "d": 234.97997395833954,
      "v": 96
    },
    {
      "midi": 34,
      "hit": false,
      "t": 93958.0749479168,
      "d": 242.24739583334303,
      "v": 106
    },
    {
      "midi": 70,
      "hit": false,
      "t": 93960.49742187525,
      "d": 123.54617187500116,
      "v": 100
    },
    {
      "midi": 65,
      "hit": false,
      "t": 93967.76484375025,
      "d": 123.54617187500116,
      "v": 100
    },
    {
      "midi": 74,
      "hit": false,
      "t": 93967.76484375025,
      "d": 128.391119791675,
      "v": 93
    },
    {
      "midi": 65,
      "hit": false,
      "t": 93970.18731770832,
      "d": 123.54617187500116,
      "v": 96
    },
    {
      "midi": 70,
      "hit": false,
      "t": 94185.78749999999,
      "d": 101.74390625000524,
      "v": 112
    },
    {
      "midi": 77,
      "hit": false,
      "t": 94185.78750000006,
      "d": 123.54617187500116,
      "v": 116
    },
    {
      "midi": 65,
      "hit": false,
      "t": 94185.78750000006,
      "d": 128.391119791675,
      "v": 110
    },
    {
      "midi": 74,
      "hit": false,
      "t": 94193.05492187526,
      "d": 128.391119791675,
      "v": 102
    },
    {
      "midi": 65,
      "hit": false,
      "t": 94195.47739583359,
      "d": 125.96864583334536,
      "v": 102
    },
    {
      "midi": 65,
      "hit": false,
      "t": 94200.32234375013,
      "d": 230.1350260416657,
      "v": 103
    },
    {
      "midi": 70,
      "hit": false,
      "t": 94200.32234375026,
      "d": 125.96864583334536,
      "v": 102
    },
    {
      "midi": 65,
      "hit": false,
      "t": 94207.58976562499,
      "d": 118.70122395832732,
      "v": 103
    },
    {
      "midi": 79,
      "hit": false,
      "t": 94418.345,
      "d": 133.2360677083343,
      "v": 111
    },
    {
      "midi": 79,
      "hit": false,
      "t": 94418.34500000007,
      "d": 123.54617187500116,
      "v": 111
    },
    {
      "midi": 67,
      "hit": false,
      "t": 94418.34500000007,
      "d": 128.391119791675,
      "v": 113
    },
    {
      "midi": 34,
      "hit": false,
      "t": 94425.61242187515,
      "d": 467.5374739583349,
      "v": 109
    },
    {
      "midi": 67,
      "hit": false,
      "t": 94428.03489583361,
      "d": 123.54617187498661,
      "v": 92
    },
    {
      "midi": 65,
      "hit": false,
      "t": 94430.4573697918,
      "d": 234.97997395833954,
      "v": 100
    },
    {
      "midi": 75,
      "hit": false,
      "t": 94430.45736979194,
      "d": 125.96864583333081,
      "v": 94
    },
    {
      "midi": 72,
      "hit": false,
      "t": 94432.87984375027,
      "d": 125.96864583333081,
      "v": 100
    },
    {
      "midi": 67,
      "hit": false,
      "t": 94442.56973958331,
      "d": 118.70122395832732,
      "v": 101
    },
    {
      "midi": 79,
      "hit": false,
      "t": 94650.90250000008,
      "d": 125.96864583333081,
      "v": 114
    },
    {
      "midi": 67,
      "hit": false,
      "t": 94650.90250000008,
      "d": 128.39111979166046,
      "v": 117
    },
    {
      "midi": 67,
      "hit": false,
      "t": 94658.16992187526,
      "d": 128.39111979166046,
      "v": 102
    },
    {
      "midi": 75,
      "hit": false,
      "t": 94660.59239583359,
      "d": 130.81359375000466,
      "v": 100
    },
    {
      "midi": 72,
      "hit": false,
      "t": 94663.01486979192,
      "d": 128.391119791675,
      "v": 89
    },
    {
      "midi": 65,
      "hit": false,
      "t": 94667.85981770846,
      "d": 239.82492187499884,
      "v": 92
    },
    {
      "midi": 67,
      "hit": false,
      "t": 94670.28229166663,
      "d": 118.70122395832732,
      "v": 99
    },
    {
      "midi": 79,
      "hit": false,
      "t": 94767.18125,
      "d": 101.74390625000524,
      "v": 108
    },
    {
      "midi": 79,
      "hit": false,
      "t": 94883.46000000008,
      "d": 121.12369791667152,
      "v": 118
    },
    {
      "midi": 67,
      "hit": false,
      "t": 94883.46000000008,
      "d": 125.96864583334536,
      "v": 112
    },
    {
      "midi": 39,
      "hit": false,
      "t": 94893.14989583349,
      "d": 237.4024479166692,
      "v": 102
    },
    {
      "midi": 72,
      "hit": false,
      "t": 94893.1498958336,
      "d": 123.54617187498661,
      "v": 98
    },
    {
      "midi": 75,
      "hit": false,
      "t": 94895.57236979193,
      "d": 123.54617187498661,
      "v": 100
    },
    {
      "midi": 67,
      "hit": false,
      "t": 94897.99484375026,
      "d": 121.12369791665697,
      "v": 92
    },
    {
      "midi": 67,
      "hit": false,
      "t": 94905.26226562513,
      "d": 230.1350260416657,
      "v": 92
    },
    {
      "midi": 67,
      "hit": false,
      "t": 94907.68473958329,
      "d": 111.43380208333838,
      "v": 95
    },
    {
      "midi": 63,
      "hit": false,
      "t": 94910.10721354182,
      "d": 1858.0375260416622,
      "v": 99
    },
    {
      "midi": 67,
      "hit": false,
      "t": 94917.37463541683,
      "d": 1860.4600000000064,
      "v": 93
    },
    {
      "midi": 70,
      "hit": false,
      "t": 94922.21958333348,
      "d": 1850.7701041666733,
      "v": 104
    },
    {
      "midi": 70,
      "hit": false,
      "t": 94999.73875000008,
      "d": 123.54617187501572,
      "v": 118
    },
    {
      "midi": 58,
      "hit": false,
      "t": 94999.73875000008,
      "d": 128.39111979168956,
      "v": 117
    },
    {
      "midi": 67,
      "hit": false,
      "t": 95232.2962500001,
      "d": 128.39111979166046,
      "v": 116
    },
    {
      "midi": 79,
      "hit": false,
      "t": 95232.2962500001,
      "d": 130.8135937499901,
      "v": 113
    },
    {
      "midi": 67,
      "hit": false,
      "t": 95353.4199479168,
      "d": 244.66986979167268,
      "v": 90
    },
    {
      "midi": 70,
      "hit": false,
      "t": 95581.13249999999,
      "d": 82.36411458333896,
      "v": 110
    },
    {
      "midi": 34,
      "hit": false,
      "t": 95585.97744791683,
      "d": 242.24739583334303,
      "v": 103
    },
    {
      "midi": 70,
      "hit": false,
      "t": 95813.69,
      "d": 109.01132812499418,
      "v": 111
    },
    {
      "midi": 67,
      "hit": false,
      "t": 95820.95742187514,
      "d": 230.1350260416657,
      "v": 89
    },
    {
      "midi": 39,
      "hit": false,
      "t": 95820.95742187517,
      "d": 239.82492187499884,
      "v": 101
    },
    {
      "midi": 77,
      "hit": false,
      "t": 96046.2475,
      "d": 65.40679687500233,
      "v": 112
    },
    {
      "midi": 67,
      "hit": false,
      "t": 96051.0924479168,
      "d": 234.97997395833954,
      "v": 99
    },
    {
      "midi": 77,
      "hit": false,
      "t": 96278.805,
      "d": 111.43380208333838,
      "v": 115
    },
    {
      "midi": 79,
      "hit": false,
      "t": 96278.8050000001,
      "d": 123.54617187500116,
      "v": 108
    },
    {
      "midi": 67,
      "hit": false,
      "t": 96278.8050000001,
      "d": 128.391119791675,
      "v": 109
    },
    {
      "midi": 67,
      "hit": false,
      "t": 96286.07242187526,
      "d": 123.54617187500116,
      "v": 95
    },
    {
      "midi": 75,
      "hit": false,
      "t": 96288.49489583359,
      "d": 125.96864583334536,
      "v": 95
    },
    {
      "midi": 39,
      "hit": false,
      "t": 96290.91736979183,
      "d": 467.5374739583349,
      "v": 108
    },
    {
      "midi": 67,
      "hit": false,
      "t": 96293.33984375015,
      "d": 232.55749999999534,
      "v": 103
    },
    {
      "midi": 72,
      "hit": false,
      "t": 96295.76231770859,
      "d": 123.54617187501572,
      "v": 93
    },
    {
      "midi": 67,
      "hit": false,
      "t": 96298.18479166663,
      "d": 118.70122395832732,
      "v": 101
    },
    {
      "midi": 77,
      "hit": false,
      "t": 96511.3625,
      "d": 130.81359375000466,
      "v": 112
    },
    {
      "midi": 79,
      "hit": false,
      "t": 96511.3625000001,
      "d": 125.96864583333081,
      "v": 109
    },
    {
      "midi": 67,
      "hit": false,
      "t": 96511.3625000001,
      "d": 128.39111979166046,
      "v": 107
    },
    {
      "midi": 72,
      "hit": false,
      "t": 96516.20744791694,
      "d": 128.39111979166046,
      "v": 102
    },
    {
      "midi": 75,
      "hit": false,
      "t": 96516.20744791694,
      "d": 130.8135937499901,
      "v": 100
    },
    {
      "midi": 67,
      "hit": false,
      "t": 96518.62992187527,
      "d": 128.39111979166046,
      "v": 101
    },
    {
      "midi": 67,
      "hit": false,
      "t": 96525.89734375014,
      "d": 239.82492187499884,
      "v": 103
    },
    {
      "midi": 67,
      "hit": false,
      "t": 96533.16476562496,
      "d": 118.70122395832732,
      "v": 99
    },
    {
      "midi": 77,
      "hit": false,
      "t": 96743.9200000001,
      "d": 118.70122395832732,
      "v": 107
    },
    {
      "midi": 65,
      "hit": false,
      "t": 96743.9200000001,
      "d": 125.96864583333081,
      "v": 107
    },
    {
      "midi": 34,
      "hit": false,
      "t": 96756.03236979184,
      "d": 234.979973958325,
      "v": 110
    },
    {
      "midi": 70,
      "hit": false,
      "t": 96758.45484375027,
      "d": 121.12369791667152,
      "v": 93
    },
    {
      "midi": 65,
      "hit": false,
      "t": 96760.8773177086,
      "d": 118.70122395834187,
      "v": 90
    },
    {
      "midi": 74,
      "hit": false,
      "t": 96765.72226562527,
      "d": 121.12369791667152,
      "v": 100
    },
    {
      "midi": 65,
      "hit": false,
      "t": 96770.56721354161,
      "d": 111.43380208333838,
      "v": 102
    },
    {
      "midi": 65,
      "hit": false,
      "t": 96772.98968750014,
      "d": 227.71255208333605,
      "v": 97
    },
    {
      "midi": 62,
      "hit": false,
      "t": 96772.98968750016,
      "d": 1858.0375260416768,
      "v": 99
    },
    {
      "midi": 70,
      "hit": false,
      "t": 96772.98968750016,
      "d": 1862.8824739583506,
      "v": 102
    },
    {
      "midi": 65,
      "hit": false,
      "t": 96780.25710937516,
      "d": 1855.615052083347,
      "v": 99
    },
    {
      "midi": 70,
      "hit": false,
      "t": 96860.1987500001,
      "d": 125.96864583333081,
      "v": 114
    },
    {
      "midi": 58,
      "hit": false,
      "t": 96860.1987500001,
      "d": 128.39111979166046,
      "v": 109
    },
    {
      "midi": 65,
      "hit": false,
      "t": 97092.7562500001,
      "d": 128.39111979166046,
      "v": 107
    },
    {
      "midi": 77,
      "hit": false,
      "t": 97092.7562500001,
      "d": 130.8135937499901,
      "v": 107
    },
    {
      "midi": 65,
      "hit": false,
      "t": 97218.72489583348,
      "d": 244.66986979167268,
      "v": 91
    },
    {
      "midi": 70,
      "hit": false,
      "t": 97441.59250000001,
      "d": 92.0540104166721,
      "v": 115
    },
    {
      "midi": 29,
      "hit": false,
      "t": 97444.01497395849,
      "d": 244.66986979167268,
      "v": 108
    },
    {
      "midi": 70,
      "hit": false,
      "t": 97674.15000000002,
      "d": 125.96864583333081,
      "v": 116
    },
    {
      "midi": 77,
      "hit": false,
      "t": 97674.15000000008,
      "d": 123.54617187500116,
      "v": 115
    },
    {
      "midi": 65,
      "hit": false,
      "t": 97674.15000000008,
      "d": 128.391119791675,
      "v": 115
    },
    {
      "midi": 34,
      "hit": false,
      "t": 97678.99494791683,
      "d": 244.66986979167268,
      "v": 101
    },
    {
      "midi": 65,
      "hit": false,
      "t": 97678.99494791683,
      "d": 237.4024479166692,
      "v": 104
    },
    {
      "midi": 65,
      "hit": false,
      "t": 97681.41742187527,
      "d": 123.54617187500116,
      "v": 95
    },
    {
      "midi": 74,
      "hit": false,
      "t": 97681.41742187527,
      "d": 128.391119791675,
      "v": 97
    },
    {
      "midi": 70,
      "hit": false,
      "t": 97686.26236979195,
      "d": 125.96864583333081,
      "v": 89
    },
    {
      "midi": 65,
      "hit": false,
      "t": 97691.10731770829,
      "d": 123.54617187500116,
      "v": 99
    },
    {
      "midi": 77,
      "hit": false,
      "t": 97906.70750000009,
      "d": 121.12369791667152,
      "v": 117
    },
    {
      "midi": 65,
      "hit": false,
      "t": 97906.70750000009,
      "d": 125.96864583334536,
      "v": 113
    },
    {
      "midi": 74,
      "hit": false,
      "t": 97916.39739583361,
      "d": 125.96864583333081,
      "v": 89
    },
    {
      "midi": 65,
      "hit": false,
      "t": 97918.81986979194,
      "d": 123.54617187500116,
      "v": 90
    },
    {
      "midi": 70,
      "hit": false,
      "t": 97921.24234375027,
      "d": 123.54617187500116,
      "v": 95
    },
    {
      "midi": 65,
      "hit": false,
      "t": 97923.66481770828,
      "d": 118.70122395832732,
      "v": 100
    },
    {
      "midi": 65,
      "hit": false,
      "t": 97923.6648177085,
      "d": 227.71255208333605,
      "v": 98
    },
    {
      "midi": 74,
      "hit": false,
      "t": 98139.26500000001,
      "d": 116.27874999999767,
      "v": 108
    },
    {
      "midi": 79,
      "hit": false,
      "t": 98139.2650000001,
      "d": 123.54617187500116,
      "v": 110
    },
    {
      "midi": 67,
      "hit": false,
      "t": 98139.2650000001,
      "d": 128.391119791675,
      "v": 114
    },
    {
      "midi": 67,
      "hit": false,
      "t": 98146.53242187528,
      "d": 123.54617187501572,
      "v": 97
    },
    {
      "midi": 65,
      "hit": false,
      "t": 98151.37736979184,
      "d": 230.1350260416657,
      "v": 96
    },
    {
      "midi": 72,
      "hit": false,
      "t": 98151.37736979195,
      "d": 123.54617187501572,
      "v": 96
    },
    {
      "midi": 34,
      "hit": false,
      "t": 98153.79984375017,
      "d": 467.5374739583349,
      "v": 105
    },
    {
      "midi": 75,
      "hit": false,
      "t": 98156.22231770863,
      "d": 125.96864583334536,
      "v": 96
    },
    {
      "midi": 67,
      "hit": false,
      "t": 98161.06726562494,
      "d": 118.70122395832732,
      "v": 92
    },
    {
      "midi": 74,
      "hit": false,
      "t": 98371.82250000001,
      "d": 87.20906249999825,
      "v": 110
    },
    {
      "midi": 67,
      "hit": false,
      "t": 98371.82250000011,
      "d": 128.39111979166046,
      "v": 107
    },
    {
      "midi": 79,
      "hit": false,
      "t": 98371.82250000011,
      "d": 128.39111979166046,
      "v": 119
    },
    {
      "midi": 67,
      "hit": false,
      "t": 98374.24497395864,
      "d": 128.391119791675,
      "v": 95
    },
    {
      "midi": 75,
      "hit": false,
      "t": 98376.66744791697,
      "d": 130.8135937500192,
      "v": 89
    },
    {
      "midi": 65,
      "hit": false,
      "t": 98381.5123958335,
      "d": 239.82492187499884,
      "v": 96
    },
    {
      "midi": 72,
      "hit": false,
      "t": 98381.51239583365,
      "d": 128.391119791675,
      "v": 101
    },
    {
      "midi": 67,
      "hit": false,
      "t": 98386.35734374993,
      "d": 121.12369791667152,
      "v": 93
    },
    {
      "midi": 72,
      "hit": false,
      "t": 98604.38,
      "d": 133.2360677083343,
      "v": 110
    },
    {
      "midi": 77,
      "hit": false,
      "t": 98604.3800000001,
      "d": 121.12369791667152,
      "v": 110
    },
    {
      "midi": 65,
      "hit": false,
      "t": 98604.3800000001,
      "d": 125.96864583334536,
      "v": 110
    },
    {
      "midi": 67,
      "hit": false,
      "t": 98614.06989583366,
      "d": 121.12369791667152,
      "v": 101
    },
    {
      "midi": 29,
      "hit": false,
      "t": 98616.49236979183,
      "d": 237.4024479166692,
      "v": 110
    },
    {
      "midi": 75,
      "hit": false,
      "t": 98616.49236979199,
      "d": 123.54617187501572,
      "v": 94
    },
    {
      "midi": 72,
      "hit": false,
      "t": 98621.33731770866,
      "d": 123.54617187501572,
      "v": 91
    },
    {
      "midi": 69,
      "hit": false,
      "t": 98626.18226562518,
      "d": 230.1350260416657,
      "v": 94
    },
    {
      "midi": 67,
      "hit": false,
      "t": 98628.60473958327,
      "d": 111.43380208333838,
      "v": 93
    },
    {
      "midi": 60,
      "hit": false,
      "t": 98631.02721354183,
      "d": 1860.460000000021,
      "v": 102
    },
    {
      "midi": 65,
      "hit": false,
      "t": 98635.87216145851,
      "d": 1860.460000000021,
      "v": 96
    },
    {
      "midi": 69,
      "hit": false,
      "t": 98640.71710937518,
      "d": 1860.4600000000064,
      "v": 93
    },
    {
      "midi": 72,
      "hit": false,
      "t": 98720.6587500001,
      "d": 123.54617187501572,
      "v": 109
    },
    {
      "midi": 60,
      "hit": false,
      "t": 98720.6587500001,
      "d": 128.39111979168956,
      "v": 107
    },
    {
      "midi": 74,
      "hit": false,
      "t": 98836.9375,
      "d": 140.5034895833378,
      "v": 113
    },
    {
      "midi": 65,
      "hit": false,
      "t": 98953.21625000013,
      "d": 116.27874999999767,
      "v": 116
    },
    {
      "midi": 77,
      "hit": false,
      "t": 98953.21625000013,
      "d": 116.27874999999767,
      "v": 111
    },
    {
      "midi": 77,
      "hit": false,
      "t": 99069.49500000013,
      "d": 123.54617187500116,
      "v": 116
    },
    {
      "midi": 65,
      "hit": false,
      "t": 99069.49500000013,
      "d": 128.391119791675,
      "v": 107
    },
    {
      "midi": 69,
      "hit": false,
      "t": 99076.76242187517,
      "d": 244.66986979167268,
      "v": 98
    },
    {
      "midi": 75,
      "hit": false,
      "t": 99302.0525,
      "d": 251.93729166666162,
      "v": 108
    },
    {
      "midi": 41,
      "hit": false,
      "t": 99311.7423958335,
      "d": 467.53747395834944,
      "v": 102
    },
    {
      "midi": 29,
      "hit": false,
      "t": 99539.45494791683,
      "d": 14.534843750006985,
      "v": 106
    },
    {
      "midi": 69,
      "hit": false,
      "t": 99539.45494791685,
      "d": 234.97997395833954,
      "v": 97
    },
    {
      "midi": 69,
      "hit": false,
      "t": 99776.85739583352,
      "d": 232.55749999999534,
      "v": 90
    },
    {
      "midi": 77,
      "hit": false,
      "t": 99999.725,
      "d": 135.65854166666395,
      "v": 115
    },
    {
      "midi": 79,
      "hit": false,
      "t": 99999.72500000014,
      "d": 123.54617187500116,
      "v": 114
    },
    {
      "midi": 67,
      "hit": false,
      "t": 99999.72500000014,
      "d": 128.391119791675,
      "v": 113
    },
    {
      "midi": 29,
      "hit": false,
      "t": 100009.41489583351,
      "d": 467.5374739583349,
      "v": 101
    },
    {
      "midi": 75,
      "hit": false,
      "t": 100011.83736979202,
      "d": 125.96864583333081,
      "v": 95
    },
    {
      "midi": 69,
      "hit": false,
      "t": 100014.25984375019,
      "d": 227.71255208333605,
      "v": 97
    },
    {
      "midi": 67,
      "hit": false,
      "t": 100014.25984375035,
      "d": 123.54617187500116,
      "v": 94
    },
    {
      "midi": 72,
      "hit": false,
      "t": 100014.25984375035,
      "d": 123.54617187500116,
      "v": 92
    },
    {
      "midi": 67,
      "hit": false,
      "t": 100019.10479166661,
      "d": 118.70122395832732,
      "v": 99
    },
    {
      "midi": 77,
      "hit": false,
      "t": 100232.2825,
      "d": 130.81359375000466,
      "v": 115
    },
    {
      "midi": 79,
      "hit": false,
      "t": 100232.28250000015,
      "d": 125.96864583333081,
      "v": 115
    },
    {
      "midi": 67,
      "hit": false,
      "t": 100232.28250000015,
      "d": 128.39111979166046,
      "v": 110
    },
    {
      "midi": 75,
      "hit": false,
      "t": 100237.12744791701,
      "d": 130.81359375000466,
      "v": 101
    },
    {
      "midi": 69,
      "hit": false,
      "t": 100241.97239583352,
      "d": 242.24739583332848,
      "v": 91
    },
    {
      "midi": 67,
      "hit": false,
      "t": 100241.97239583368,
      "d": 128.39111979166046,
      "v": 97
    },
    {
      "midi": 72,
      "hit": false,
      "t": 100244.39486979201,
      "d": 128.39111979166046,
      "v": 96
    },
    {
      "midi": 67,
      "hit": false,
      "t": 100246.81734374994,
      "d": 121.12369791667152,
      "v": 98
    },
    {
      "midi": 77,
      "hit": false,
      "t": 100464.84000000001,
      "d": 150.19338541667094,
      "v": 115
    },
    {
      "midi": 77,
      "hit": false,
      "t": 100464.84000000014,
      "d": 118.70122395832732,
      "v": 114
    },
    {
      "midi": 65,
      "hit": false,
      "t": 100464.84000000014,
      "d": 125.96864583333081,
      "v": 112
    },
    {
      "midi": 34,
      "hit": false,
      "t": 100476.95236979185,
      "d": 234.97997395833954,
      "v": 109
    },
    {
      "midi": 74,
      "hit": false,
      "t": 100476.95236979201,
      "d": 123.54617187498661,
      "v": 90
    },
    {
      "midi": 65,
      "hit": false,
      "t": 100479.37484375034,
      "d": 118.70122395832732,
      "v": 92
    },
    {
      "midi": 70,
      "hit": false,
      "t": 100481.79731770867,
      "d": 121.12369791665697,
      "v": 95
    },
    {
      "midi": 65,
      "hit": false,
      "t": 100489.06473958328,
      "d": 111.43380208333838,
      "v": 92
    },
    {
      "midi": 65,
      "hit": false,
      "t": 100493.90968750019,
      "d": 227.71255208333605,
      "v": 104
    },
    {
      "midi": 62,
      "hit": false,
      "t": 100496.33216145853,
      "d": 1855.6150520833326,
      "v": 96
    },
    {
      "midi": 70,
      "hit": false,
      "t": 100496.33216145853,
      "d": 1860.4600000000064,
      "v": 99
    },
    {
      "midi": 65,
      "hit": false,
      "t": 100498.75463541686,
      "d": 1858.0375260416768,
      "v": 103
    },
    {
      "midi": 70,
      "hit": false,
      "t": 100581.11875000014,
      "d": 125.96864583333081,
      "v": 109
    },
    {
      "midi": 58,
      "hit": false,
      "t": 100581.11875000014,
      "d": 128.39111979166046,
      "v": 114
    },
    {
      "midi": 65,
      "hit": false,
      "t": 100813.67625000014,
      "d": 128.39111979166046,
      "v": 107
    },
    {
      "midi": 77,
      "hit": false,
      "t": 100813.67625000014,
      "d": 130.8135937499901,
      "v": 112
    },
    {
      "midi": 65,
      "hit": false,
      "t": 100934.79994791685,
      "d": 244.66986979167268,
      "v": 101
    },
    {
      "midi": 70,
      "hit": false,
      "t": 101162.51250000001,
      "d": 96.8989583333314,
      "v": 115
    },
    {
      "midi": 29,
      "hit": false,
      "t": 101164.93497395852,
      "d": 244.66986979165813,
      "v": 102
    },
    {
      "midi": 70,
      "hit": false,
      "t": 101395.07,
      "d": 96.8989583333314,
      "v": 111
    },
    {
      "midi": 77,
      "hit": false,
      "t": 101395.07000000012,
      "d": 123.54617187500116,
      "v": 108
    },
    {
      "midi": 65,
      "hit": false,
      "t": 101395.07000000012,
      "d": 128.391119791675,
      "v": 109
    },
    {
      "midi": 65,
      "hit": false,
      "t": 101404.75989583353,
      "d": 230.1350260416657,
      "v": 97
    },
    {
      "midi": 70,
      "hit": false,
      "t": 101404.75989583366,
      "d": 123.54617187498661,
      "v": 100
    },
    {
      "midi": 34,
      "hit": false,
      "t": 101407.18236979184,
      "d": 242.24739583332848,
      "v": 108
    },
    {
      "midi": 65,
      "hit": false,
      "t": 101407.18236979199,
      "d": 123.54617187498661,
      "v": 95
    },
    {
      "midi": 65,
      "hit": false,
      "t": 101409.60484374996,
      "d": 121.12369791667152,
      "v": 102
    },
    {
      "midi": 74,
      "hit": false,
      "t": 101409.60484375032,
      "d": 128.39111979166046,
      "v": 94
    },
    {
      "midi": 70,
      "hit": false,
      "t": 101627.6275,
      "d": 94.47648437500175,
      "v": 108
    },
    {
      "midi": 77,
      "hit": false,
      "t": 101627.62750000013,
      "d": 123.54617187500116,
      "v": 115
    },
    {
      "midi": 65,
      "hit": false,
      "t": 101627.62750000013,
      "d": 128.391119791675,
      "v": 111
    },
    {
      "midi": 65,
      "hit": false,
      "t": 101634.8949218752,
      "d": 232.55749999999534,
      "v": 100
    },
    {
      "midi": 65,
      "hit": false,
      "t": 101637.31739583364,
      "d": 125.96864583333081,
      "v": 92
    },
    {
      "midi": 74,
      "hit": false,
      "t": 101639.73986979197,
      "d": 128.391119791675,
      "v": 89
    },
    {
      "midi": 70,
      "hit": false,
      "t": 101642.1623437503,
      "d": 125.96864583334536,
      "v": 91
    },
    {
      "midi": 65,
      "hit": false,
      "t": 101651.8522395833,
      "d": 118.70122395832732,
      "v": 99
    },
    {
      "midi": 79,
      "hit": false,
      "t": 101860.18500000014,
      "d": 123.54617187500116,
      "v": 117
    },
    {
      "midi": 67,
      "hit": false,
      "t": 101860.18500000014,
      "d": 128.391119791675,
      "v": 115
    },
    {
      "midi": 34,
      "hit": false,
      "t": 101869.8748958335,
      "d": 467.5374739583349,
      "v": 111
    },
    {
      "midi": 67,
      "hit": false,
      "t": 101869.87489583365,
      "d": 123.54617187500116,
      "v": 95
    },
    {
      "midi": 72,
      "hit": false,
      "t": 101869.87489583365,
      "d": 123.54617187500116,
      "v": 96
    },
    {
      "midi": 75,
      "hit": false,
      "t": 101872.29736979198,
      "d": 125.96864583334536,
      "v": 100
    },
    {
      "midi": 65,
      "hit": false,
      "t": 101874.7198437502,
      "d": 230.1350260416657,
      "v": 96
    },
    {
      "midi": 67,
      "hit": false,
      "t": 101884.4097395833,
      "d": 118.70122395832732,
      "v": 102
    },
    {
      "midi": 79,
      "hit": false,
      "t": 102092.7425,
      "d": 113.85627604166802,
      "v": 114
    },
    {
      "midi": 79,
      "hit": false,
      "t": 102092.74250000015,
      "d": 125.96864583333081,
      "v": 113
    },
    {
      "midi": 67,
      "hit": false,
      "t": 102092.74250000015,
      "d": 128.39111979166046,
      "v": 115
    },
    {
      "midi": 67,
      "hit": false,
      "t": 102095.16497395866,
      "d": 128.391119791675,
      "v": 92
    },
    {
      "midi": 72,
      "hit": false,
      "t": 102097.58744791699,
      "d": 128.391119791675,
      "v": 89
    },
    {
      "midi": 75,
      "hit": false,
      "t": 102102.43239583366,
      "d": 130.81359375000466,
      "v": 89
    },
    {
      "midi": 65,
      "hit": false,
      "t": 102104.85486979186,
      "d": 239.82492187499884,
      "v": 103
    },
    {
      "midi": 67,
      "hit": false,
      "t": 102109.69981770829,
      "d": 123.54617187500116,
      "v": 97
    },
    {
      "midi": 79,
      "hit": false,
      "t": 102325.30000000015,
      "d": 121.12369791667152,
      "v": 110
    },
    {
      "midi": 67,
      "hit": false,
      "t": 102325.30000000015,
      "d": 125.96864583334536,
      "v": 111
    },
    {
      "midi": 39,
      "hit": false,
      "t": 102337.41236979184,
      "d": 237.4024479166692,
      "v": 107
    },
    {
      "midi": 72,
      "hit": false,
      "t": 102339.83484375033,
      "d": 123.54617187498661,
      "v": 93
    },
    {
      "midi": 67,
      "hit": false,
      "t": 102342.25731770866,
      "d": 121.12369791665697,
      "v": 96
    },
    {
      "midi": 67,
      "hit": false,
      "t": 102344.67979166686,
      "d": 230.1350260416657,
      "v": 100
    },
    {
      "midi": 75,
      "hit": false,
      "t": 102344.67979166699,
      "d": 123.54617187500116,
      "v": 92
    },
    {
      "midi": 67,
      "hit": false,
      "t": 102354.36968749996,
      "d": 111.43380208333838,
      "v": 97
    },
    {
      "midi": 63,
      "hit": false,
      "t": 102359.21463541687,
      "d": 1860.4600000000064,
      "v": 104
    },
    {
      "midi": 70,
      "hit": false,
      "t": 102361.6371093752,
      "d": 1853.192578125003,
      "v": 98
    },
    {
      "midi": 67,
      "hit": false,
      "t": 102361.6371093752,
      "d": 1860.4600000000064,
      "v": 100
    },
    {
      "midi": 70,
      "hit": false,
      "t": 102441.57875000015,
      "d": 123.54617187501572,
      "v": 113
    },
    {
      "midi": 58,
      "hit": false,
      "t": 102441.57875000015,
      "d": 128.39111979168956,
      "v": 109
    },
    {
      "midi": 67,
      "hit": false,
      "t": 102674.13625000017,
      "d": 128.39111979166046,
      "v": 117
    },
    {
      "midi": 79,
      "hit": false,
      "t": 102674.13625000017,
      "d": 130.8135937499901,
      "v": 115
    },
    {
      "midi": 67,
      "hit": false,
      "t": 102797.68242187519,
      "d": 244.66986979167268,
      "v": 96
    },
    {
      "midi": 70,
      "hit": false,
      "t": 103022.97249999999,
      "d": 116.27874999999767,
      "v": 110
    },
    {
      "midi": 34,
      "hit": false,
      "t": 103030.23992187518,
      "d": 242.24739583332848,
      "v": 101
    },
    {
      "midi": 70,
      "hit": false,
      "t": 103255.52999999998,
      "d": 92.0540104166721,
      "v": 108
    },
    {
      "midi": 67,
      "hit": false,
      "t": 103260.37494791686,
      "d": 232.55749999999534,
      "v": 93
    },
    {
      "midi": 39,
      "hit": false,
      "t": 103262.79742187518,
      "d": 242.24739583332848,
      "v": 106
    },
    {
      "midi": 70,
      "hit": false,
      "t": 103488.0875,
      "d": 101.74390625000524,
      "v": 108
    },
    {
      "midi": 67,
      "hit": false,
      "t": 103492.93244791686,
      "d": 237.4024479166692,
      "v": 93
    },
    {
      "midi": 77,
      "hit": false,
      "t": 103720.645,
      "d": 130.81359375000466,
      "v": 112
    },
    {
      "midi": 79,
      "hit": false,
      "t": 103720.64500000016,
      "d": 123.54617187500116,
      "v": 115
    },
    {
      "midi": 67,
      "hit": false,
      "t": 103720.64500000016,
      "d": 128.391119791675,
      "v": 110
    },
    {
      "midi": 39,
      "hit": false,
      "t": 103727.91242187517,
      "d": 467.5374739583349,
      "v": 102
    },
    {
      "midi": 67,
      "hit": false,
      "t": 103732.75736979199,
      "d": 123.54617187500116,
      "v": 93
    },
    {
      "midi": 72,
      "hit": false,
      "t": 103732.75736979199,
      "d": 125.96864583333081,
      "v": 89
    },
    {
      "midi": 67,
      "hit": false,
      "t": 103735.1798437502,
      "d": 227.71255208333605,
      "v": 91
    },
    {
      "midi": 75,
      "hit": false,
      "t": 103737.60231770866,
      "d": 125.96864583333081,
      "v": 96
    },
    {
      "midi": 67,
      "hit": false,
      "t": 103744.8697395833,
      "d": 118.70122395832732,
      "v": 96
    },
    {
      "midi": 77,
      "hit": false,
      "t": 103953.20250000001,
      "d": 109.01132812499418,
      "v": 113
    },
    {
      "midi": 79,
      "hit": false,
      "t": 103953.20250000017,
      "d": 125.96864583333081,
      "v": 118
    },
    {
      "midi": 67,
      "hit": false,
      "t": 103953.20250000017,
      "d": 128.39111979166046,
      "v": 113
    },
    {
      "midi": 67,
      "hit": false,
      "t": 103962.89239583354,
      "d": 242.24739583332848,
      "v": 103
    },
    {
      "midi": 67,
      "hit": false,
      "t": 103962.89239583365,
      "d": 128.39111979166046,
      "v": 94
    },
    {
      "midi": 72,
      "hit": false,
      "t": 103965.31486979198,
      "d": 128.39111979166046,
      "v": 96
    },
    {
      "midi": 75,
      "hit": false,
      "t": 103965.31486979198,
      "d": 130.8135937499901,
      "v": 98
    },
    {
      "midi": 67,
      "hit": false,
      "t": 103977.4272395833,
      "d": 118.70122395832732,
      "v": 95
    },
    {
      "midi": 77,
      "hit": false,
      "t": 104185.76000000001,
      "d": 125.96864583333081,
      "v": 112
    },
    {
      "midi": 77,
      "hit": false,
      "t": 104185.76000000017,
      "d": 121.12369791667152,
      "v": 115
    },
    {
      "midi": 65,
      "hit": false,
      "t": 104185.76000000017,
      "d": 125.96864583334536,
      "v": 117
    },
    {
      "midi": 65,
      "hit": false,
      "t": 104197.87236979198,
      "d": 121.12369791667152,
      "v": 100
    },
    {
      "midi": 34,
      "hit": false,
      "t": 104202.7173177085,
      "d": 234.97997395833954,
      "v": 101
    },
    {
      "midi": 70,
      "hit": false,
      "t": 104202.71731770865,
      "d": 121.12369791667152,
      "v": 95
    },
    {
      "midi": 74,
      "hit": false,
      "t": 104202.71731770865,
      "d": 123.54617187500116,
      "v": 92
    },
    {
      "midi": 62,
      "hit": false,
      "t": 104209.98473958352,
      "d": 932.6524739583401,
      "v": 100
    },
    {
      "midi": 65,
      "hit": false,
      "t": 104212.40721354162,
      "d": 111.43380208333838,
      "v": 101
    },
    {
      "midi": 65,
      "hit": false,
      "t": 104212.40721354187,
      "d": 227.71255208333605,
      "v": 90
    },
    {
      "midi": 70,
      "hit": false,
      "t": 104214.8296875002,
      "d": 930.2299999999959,
      "v": 103
    },
    {
      "midi": 65,
      "hit": false,
      "t": 104219.67463541687,
      "d": 920.5401041666628,
      "v": 91
    },
    {
      "midi": 70,
      "hit": false,
      "t": 104302.03875000017,
      "d": 123.54617187501572,
      "v": 111
    },
    {
      "midi": 58,
      "hit": false,
      "t": 104302.03875000017,
      "d": 128.39111979168956,
      "v": 107
    },
    {
      "midi": 65,
      "hit": false,
      "t": 104534.59625000019,
      "d": 128.39111979166046,
      "v": 112
    },
    {
      "midi": 77,
      "hit": false,
      "t": 104534.59625000019,
      "d": 133.2360677083343,
      "v": 114
    },
    {
      "midi": 74,
      "hit": false,
      "t": 104650.875,
      "d": 123.54617187500116,
      "v": 116
    },
    {
      "midi": 65,
      "hit": false,
      "t": 104662.98736979187,
      "d": 244.66986979167268,
      "v": 93
    },
    {
      "midi": 74,
      "hit": false,
      "t": 104883.4325,
      "d": 109.01132812499418,
      "v": 111
    },
    {
      "midi": 41,
      "hit": false,
      "t": 104890.69992187517,
      "d": 477.227369791668,
      "v": 106
    },
    {
      "midi": 75,
      "hit": false,
      "t": 105115.98999999999,
      "d": 96.8989583333314,
      "v": 113
    },
    {
      "midi": 75,
      "hit": false,
      "t": 105115.9900000002,
      "d": 123.54617187500116,
      "v": 116
    },
    {
      "midi": 63,
      "hit": false,
      "t": 105115.9900000002,
      "d": 128.391119791675,
      "v": 114
    },
    {
      "midi": 65,
      "hit": false,
      "t": 105123.25742187531,
      "d": 123.54617187500116,
      "v": 89
    },
    {
      "midi": 29,
      "hit": false,
      "t": 105125.67989583351,
      "d": 9.68989583333314,
      "v": 103
    },
    {
      "midi": 69,
      "hit": false,
      "t": 105125.67989583354,
      "d": 234.97997395833954,
      "v": 93
    },
    {
      "midi": 69,
      "hit": false,
      "t": 105128.10236979199,
      "d": 125.96864583333081,
      "v": 94
    },
    {
      "midi": 72,
      "hit": false,
      "t": 105128.10236979199,
      "d": 128.39111979166046,
      "v": 89
    },
    {
      "midi": 63,
      "hit": false,
      "t": 105132.9473177083,
      "d": 123.54617187500116,
      "v": 103
    },
    {
      "midi": 69,
      "hit": false,
      "t": 105137.7922656252,
      "d": 939.9198958333145,
      "v": 104
    },
    {
      "midi": 60,
      "hit": false,
      "t": 105140.21473958353,
      "d": 932.6524739583256,
      "v": 98
    },
    {
      "midi": 65,
      "hit": false,
      "t": 105140.21473958353,
      "d": 935.0749479166552,
      "v": 99
    },
    {
      "midi": 72,
      "hit": false,
      "t": 105348.54749999999,
      "d": 121.12369791667152,
      "v": 111
    },
    {
      "midi": 75,
      "hit": false,
      "t": 105348.5475000002,
      "d": 123.54617187500116,
      "v": 107
    },
    {
      "midi": 63,
      "hit": false,
      "t": 105348.5475000002,
      "d": 128.391119791675,
      "v": 119
    },
    {
      "midi": 65,
      "hit": false,
      "t": 105358.23739583365,
      "d": 125.96864583333081,
      "v": 97
    },
    {
      "midi": 72,
      "hit": false,
      "t": 105358.23739583365,
      "d": 128.39111979166046,
      "v": 91
    },
    {
      "midi": 69,
      "hit": false,
      "t": 105360.65986979198,
      "d": 125.96864583333081,
      "v": 94
    },
    {
      "midi": 69,
      "hit": false,
      "t": 105363.08234375021,
      "d": 230.1350260416657,
      "v": 93
    },
    {
      "midi": 63,
      "hit": false,
      "t": 105365.5048177083,
      "d": 118.70122395832732,
      "v": 94
    },
    {
      "midi": 69,
      "hit": false,
      "t": 105581.105,
      "d": 210.75523437499942,
      "v": 110
    },
    {
      "midi": 77,
      "hit": false,
      "t": 105581.10500000021,
      "d": 123.54617187500116,
      "v": 114
    },
    {
      "midi": 65,
      "hit": false,
      "t": 105581.10500000021,
      "d": 128.391119791675,
      "v": 117
    },
    {
      "midi": 29,
      "hit": false,
      "t": 105590.7948958335,
      "d": 467.5374739583349,
      "v": 101
    },
    {
      "midi": 65,
      "hit": false,
      "t": 105590.79489583365,
      "d": 123.54617187500116,
      "v": 102
    },
    {
      "midi": 70,
      "hit": false,
      "t": 105590.79489583365,
      "d": 125.96864583333081,
      "v": 90
    },
    {
      "midi": 69,
      "hit": false,
      "t": 105593.21736979188,
      "d": 232.55749999999534,
      "v": 91
    },
    {
      "midi": 74,
      "hit": false,
      "t": 105593.21736979198,
      "d": 125.96864583333081,
      "v": 94
    },
    {
      "midi": 65,
      "hit": false,
      "t": 105598.06231770829,
      "d": 118.70122395832732,
      "v": 101
    },
    {
      "midi": 70,
      "hit": false,
      "t": 105813.66249999999,
      "d": 218.0226562500029,
      "v": 112
    },
    {
      "midi": 77,
      "hit": false,
      "t": 105813.66250000022,
      "d": 125.96864583333081,
      "v": 107
    },
    {
      "midi": 65,
      "hit": false,
      "t": 105813.66250000022,
      "d": 128.39111979166046,
      "v": 118
    },
    {
      "midi": 74,
      "hit": false,
      "t": 105818.50744791697,
      "d": 130.8135937499901,
      "v": 102
    },
    {
      "midi": 65,
      "hit": false,
      "t": 105820.9299218753,
      "d": 128.39111979166046,
      "v": 97
    },
    {
      "midi": 70,
      "hit": false,
      "t": 105823.35239583363,
      "d": 128.39111979166046,
      "v": 100
    },
    {
      "midi": 65,
      "hit": false,
      "t": 105828.19734374995,
      "d": 121.12369791667152,
      "v": 94
    },
    {
      "midi": 69,
      "hit": false,
      "t": 105830.61981770855,
      "d": 239.8249218750134,
      "v": 100
    },
    {
      "midi": 77,
      "hit": false,
      "t": 106046.22000000022,
      "d": 121.12369791667152,
      "v": 114
    },
    {
      "midi": 65,
      "hit": false,
      "t": 106046.22000000022,
      "d": 125.96864583334536,
      "v": 109
    },
    {
      "midi": 70,
      "hit": false,
      "t": 106058.33236979195,
      "d": 123.54617187498661,
      "v": 93
    },
    {
      "midi": 34,
      "hit": false,
      "t": 106060.75484375017,
      "d": 237.4024479166692,
      "v": 102
    },
    {
      "midi": 65,
      "hit": false,
      "t": 106060.75484375028,
      "d": 121.12369791665697,
      "v": 94
    },
    {
      "midi": 74,
      "hit": false,
      "t": 106063.17731770861,
      "d": 123.54617187500116,
      "v": 95
    },
    {
      "midi": 70,
      "hit": false,
      "t": 106065.59979166689,
      "d": 230.13502604168025,
      "v": 90
    },
    {
      "midi": 62,
      "hit": false,
      "t": 106072.86721354186,
      "d": 1860.4599999999919,
      "v": 101
    },
    {
      "midi": 65,
      "hit": false,
      "t": 106075.28968750019,
      "d": 1862.8824739583215,
      "v": 95
    },
    {
      "midi": 65,
      "hit": false,
      "t": 106077.71216145829,
      "d": 111.43380208333838,
      "v": 103
    },
    {
      "midi": 70,
      "hit": false,
      "t": 106080.13463541685,
      "d": 1862.8824739583215,
      "v": 102
    },
    {
      "midi": 70,
      "hit": false,
      "t": 106162.49875000022,
      "d": 123.54617187501572,
      "v": 109
    },
    {
      "midi": 58,
      "hit": false,
      "t": 106162.49875000022,
      "d": 128.39111979168956,
      "v": 111
    },
    {
      "midi": 93,
      "hit": false,
      "t": 106247.28533854162,
      "d": 53.29442708332499,
      "v": 102
    },
    {
      "midi": 94,
      "hit": false,
      "t": 106298.15729166662,
      "d": 816.3737239583279,
      "v": 99
    },
    {
      "midi": 65,
      "hit": false,
      "t": 106395.05625000024,
      "d": 113.85627604166802,
      "v": 108
    },
    {
      "midi": 77,
      "hit": false,
      "t": 106395.05625000024,
      "d": 116.27874999999767,
      "v": 108
    },
    {
      "midi": 77,
      "hit": false,
      "t": 106511.33500000024,
      "d": 123.54617187500116,
      "v": 115
    },
    {
      "midi": 65,
      "hit": false,
      "t": 106511.33500000024,
      "d": 128.391119791675,
      "v": 114
    },
    {
      "midi": 65,
      "hit": false,
      "t": 106516.1799479169,
      "d": 244.66986979165813,
      "v": 90
    },
    {
      "midi": 29,
      "hit": false,
      "t": 106746.3149739585,
      "d": 244.66986979167268,
      "v": 109
    },
    {
      "midi": 70,
      "hit": false,
      "t": 106758.42734375023,
      "d": 242.24739583332848,
      "v": 91
    },
    {
      "midi": 34,
      "hit": false,
      "t": 106983.71742187518,
      "d": 239.82492187499884,
      "v": 108
    },
    {
      "midi": 93,
      "hit": false,
      "t": 107184.78276041661,
      "d": 53.29442708333954,
      "v": 103
    },
    {
      "midi": 65,
      "hit": false,
      "t": 107213.85244791688,
      "d": 234.97997395833954,
      "v": 89
    },
    {
      "midi": 94,
      "hit": false,
      "t": 107223.54234374994,
      "d": 249.51481770834653,
      "v": 97
    },
    {
      "midi": 77,
      "hit": false,
      "t": 107441.56499999999,
      "d": 142.92596354166744,
      "v": 112
    },
    {
      "midi": 34,
      "hit": false,
      "t": 107451.25489583351,
      "d": 467.5374739583349,
      "v": 108
    },
    {
      "midi": 65,
      "hit": false,
      "t": 107451.25489583361,
      "d": 121.12369791667152,
      "v": 97
    },
    {
      "midi": 70,
      "hit": false,
      "t": 107453.67736979194,
      "d": 123.54617187501572,
      "v": 102
    },
    {
      "midi": 65,
      "hit": false,
      "t": 107456.09984375023,
      "d": 230.1350260416657,
      "v": 104
    },
    {
      "midi": 74,
      "hit": false,
      "t": 107460.94479166695,
      "d": 123.54617187501572,
      "v": 101
    },
    {
      "midi": 65,
      "hit": false,
      "t": 107463.36726562495,
      "d": 113.85627604166802,
      "v": 97
    },
    {
      "midi": 93,
      "hit": false,
      "t": 107465.78973958328,
      "d": 116.27875000001222,
      "v": 100
    },
    {
      "midi": 77,
      "hit": false,
      "t": 107674.12249999998,
      "d": 128.39111979166046,
      "v": 111
    },
    {
      "midi": 70,
      "hit": false,
      "t": 107676.54497395863,
      "d": 130.8135937500192,
      "v": 93
    },
    {
      "midi": 65,
      "hit": false,
      "t": 107681.3899218753,
      "d": 128.391119791675,
      "v": 94
    },
    {
      "midi": 65,
      "hit": false,
      "t": 107686.2348697919,
      "d": 244.66986979167268,
      "v": 95
    },
    {
      "midi": 74,
      "hit": false,
      "t": 107686.23486979198,
      "d": 130.81359375000466,
      "v": 95
    },
    {
      "midi": 65,
      "hit": false,
      "t": 107688.65734374996,
      "d": 123.54617187500116,
      "v": 93
    },
    {
      "midi": 91,
      "hit": false,
      "t": 107695.92476562496,
      "d": 121.12369791667152,
      "v": 95
    },
    {
      "midi": 77,
      "hit": false,
      "t": 107906.67999999998,
      "d": 150.19338541667094,
      "v": 113
    },
    {
      "midi": 77,
      "hit": false,
      "t": 107906.68000000025,
      "d": 118.70122395832732,
      "v": 108
    },
    {
      "midi": 65,
      "hit": false,
      "t": 107906.68000000025,
      "d": 123.54617187500116,
      "v": 107
    },
    {
      "midi": 70,
      "hit": false,
      "t": 107918.79236979199,
      "d": 121.12369791665697,
      "v": 98
    },
    {
      "midi": 65,
      "hit": false,
      "t": 107921.21484375032,
      "d": 118.70122395832732,
      "v": 102
    },
    {
      "midi": 74,
      "hit": false,
      "t": 107923.63731770865,
      "d": 121.12369791667152,
      "v": 96
    },
    {
      "midi": 34,
      "hit": false,
      "t": 107926.05979166685,
      "d": 232.55749999999534,
      "v": 106
    },
    {
      "midi": 65,
      "hit": false,
      "t": 107933.3272135419,
      "d": 227.71255208333605,
      "v": 94
    },
    {
      "midi": 62,
      "hit": false,
      "t": 107935.74968750018,
      "d": 1855.615052083318,
      "v": 103
    },
    {
      "midi": 65,
      "hit": false,
      "t": 107938.17216145831,
      "d": 109.01132812499418,
      "v": 100
    },
    {
      "midi": 89,
      "hit": false,
      "t": 107940.59463541664,
      "d": 162.30575520833372,
      "v": 96
    },
    {
      "midi": 65,
      "hit": false,
      "t": 107940.59463541684,
      "d": 1855.6150520833326,
      "v": 97
    },
    {
      "midi": 70,
      "hit": false,
      "t": 107945.4395833335,
      "d": 1858.0375260416622,
      "v": 100
    },
    {
      "midi": 70,
      "hit": false,
      "t": 108022.95875000025,
      "d": 123.54617187500116,
      "v": 108
    },
    {
      "midi": 58,
      "hit": false,
      "t": 108022.95875000025,
      "d": 128.391119791675,
      "v": 115
    },
    {
      "midi": 65,
      "hit": false,
      "t": 108255.51625000026,
      "d": 128.39111979166046,
      "v": 114
    },
    {
      "midi": 77,
      "hit": false,
      "t": 108255.51625000026,
      "d": 133.2360677083343,
      "v": 116
    },
    {
      "midi": 89,
      "hit": false,
      "t": 108267.62861979163,
      "d": 184.10802083332965,
      "v": 94
    },
    {
      "midi": 65,
      "hit": false,
      "t": 108376.6399479169,
      "d": 244.66986979167268,
      "v": 103
    },
    {
      "midi": 70,
      "hit": false,
      "t": 108604.35249999998,
      "d": 104.16638020833489,
      "v": 116
    },
    {
      "midi": 29,
      "hit": false,
      "t": 108609.19744791684,
      "d": 244.66986979167268,
      "v": 107
    },
    {
      "midi": 86,
      "hit": false,
      "t": 108614.0423958333,
      "d": 184.10802083332965,
      "v": 95
    },
    {
      "midi": 70,
      "hit": false,
      "t": 108836.90999999997,
      "d": 92.0540104166721,
      "v": 113
    },
    {
      "midi": 77,
      "hit": false,
      "t": 108836.91000000027,
      "d": 123.54617187500116,
      "v": 112
    },
    {
      "midi": 65,
      "hit": false,
      "t": 108836.91000000027,
      "d": 128.391119791675,
      "v": 108
    },
    {
      "midi": 34,
      "hit": false,
      "t": 108844.17742187518,
      "d": 242.24739583332848,
      "v": 104
    },
    {
      "midi": 65,
      "hit": false,
      "t": 108844.17742187533,
      "d": 123.54617187500116,
      "v": 95
    },
    {
      "midi": 65,
      "hit": false,
      "t": 108849.02236979162,
      "d": 121.12369791665697,
      "v": 103
    },
    {
      "midi": 65,
      "hit": false,
      "t": 108849.02236979191,
      "d": 232.55749999999534,
      "v": 104
    },
    {
      "midi": 74,
      "hit": false,
      "t": 108849.022369792,
      "d": 128.39111979166046,
      "v": 98
    },
    {
      "midi": 89,
      "hit": false,
      "t": 108851.44484374995,
      "d": 174.4181249999965,
      "v": 96
    },
    {
      "midi": 70,
      "hit": false,
      "t": 108851.44484375033,
      "d": 123.54617187500116,
      "v": 102
    },
    {
      "midi": 70,
      "hit": false,
      "t": 109069.46749999998,
      "d": 113.85627604166802,
      "v": 112
    },
    {
      "midi": 77,
      "hit": false,
      "t": 109069.46750000028,
      "d": 125.96864583333081,
      "v": 108
    },
    {
      "midi": 65,
      "hit": false,
      "t": 109069.46750000028,
      "d": 128.39111979166046,
      "v": 107
    },
    {
      "midi": 65,
      "hit": false,
      "t": 109076.73492187532,
      "d": 123.54617187500116,
      "v": 94
    },
    {
      "midi": 74,
      "hit": false,
      "t": 109076.73492187532,
      "d": 128.39111979166046,
      "v": 99
    },
    {
      "midi": 70,
      "hit": false,
      "t": 109079.15739583365,
      "d": 123.54617187500116,
      "v": 93
    },
    {
      "midi": 65,
      "hit": false,
      "t": 109081.57986979191,
      "d": 232.55749999999534,
      "v": 102
    },
    {
      "midi": 89,
      "hit": false,
      "t": 109086.42481770828,
      "d": 171.99565104166686,
      "v": 95
    },
    {
      "midi": 65,
      "hit": false,
      "t": 109093.69223958328,
      "d": 118.70122395832732,
      "v": 93
    },
    {
      "midi": 79,
      "hit": false,
      "t": 109302.02499999998,
      "d": 138.0810156249936,
      "v": 111
    },
    {
      "midi": 79,
      "hit": false,
      "t": 109302.02500000027,
      "d": 123.54617187500116,
      "v": 111
    },
    {
      "midi": 67,
      "hit": false,
      "t": 109302.02500000027,
      "d": 128.391119791675,
      "v": 117
    },
    {
      "midi": 34,
      "hit": false,
      "t": 109311.71489583352,
      "d": 467.5374739583349,
      "v": 107
    },
    {
      "midi": 67,
      "hit": false,
      "t": 109311.71489583365,
      "d": 123.54617187500116,
      "v": 94
    },
    {
      "midi": 65,
      "hit": false,
      "t": 109316.55984375023,
      "d": 227.71255208333605,
      "v": 94
    },
    {
      "midi": 72,
      "hit": false,
      "t": 109316.55984375032,
      "d": 125.96864583333081,
      "v": 97
    },
    {
      "midi": 75,
      "hit": false,
      "t": 109316.55984375032,
      "d": 125.96864583333081,
      "v": 98
    },
    {
      "midi": 67,
      "hit": false,
      "t": 109326.24973958328,
      "d": 118.70122395832732,
      "v": 101
    },
    {
      "midi": 79,
      "hit": false,
      "t": 109534.58249999997,
      "d": 198.64286458333663,
      "v": 114
    },
    {
      "midi": 79,
      "hit": false,
      "t": 109534.58250000028,
      "d": 125.96864583333081,
      "v": 110
    },
    {
      "midi": 67,
      "hit": false,
      "t": 109534.58250000028,
      "d": 128.39111979166046,
      "v": 118
    },
    {
      "midi": 67,
      "hit": false,
      "t": 109539.42744791698,
      "d": 128.39111979166046,
      "v": 98
    },
    {
      "midi": 75,
      "hit": false,
      "t": 109539.42744791698,
      "d": 130.8135937499901,
      "v": 89
    },
    {
      "midi": 72,
      "hit": false,
      "t": 109541.84992187531,
      "d": 128.39111979166046,
      "v": 93
    },
    {
      "midi": 65,
      "hit": false,
      "t": 109544.27239583357,
      "d": 239.82492187499884,
      "v": 102
    },
    {
      "midi": 67,
      "hit": false,
      "t": 109553.9622916666,
      "d": 118.70122395834187,
      "v": 93
    },
    {
      "midi": 91,
      "hit": false,
      "t": 109558.80723958327,
      "d": 171.99565104166686,
      "v": 96
    },
    {
      "midi": 79,
      "hit": false,
      "t": 109767.14000000028,
      "d": 121.12369791667152,
      "v": 118
    },
    {
      "midi": 67,
      "hit": false,
      "t": 109767.14000000028,
      "d": 125.96864583334536,
      "v": 110
    },
    {
      "midi": 67,
      "hit": false,
      "t": 109776.82989583364,
      "d": 121.12369791665697,
      "v": 99
    },
    {
      "midi": 72,
      "hit": false,
      "t": 109779.25236979197,
      "d": 123.54617187500116,
      "v": 96
    },
    {
      "midi": 75,
      "hit": false,
      "t": 109779.25236979197,
      "d": 123.54617187500116,
      "v": 94
    },
    {
      "midi": 39,
      "hit": false,
      "t": 109781.67484375018,
      "d": 239.82492187499884,
      "v": 102
    },
    {
      "midi": 67,
      "hit": false,
      "t": 109791.36473958357,
      "d": 232.55749999999534,
      "v": 97
    },
    {
      "midi": 67,
      "hit": false,
      "t": 109796.20968749994,
      "d": 111.43380208333838,
      "v": 94
    },
    {
      "midi": 67,
      "hit": false,
      "t": 109798.6321614585,
      "d": 1860.4599999999919,
      "v": 95
    },
    {
      "midi": 63,
      "hit": false,
      "t": 109801.05463541683,
      "d": 1860.4599999999919,
      "v": 95
    },
    {
      "midi": 70,
      "hit": false,
      "t": 109803.47710937516,
      "d": 1860.4599999999919,
      "v": 101
    },
    {
      "midi": 70,
      "hit": false,
      "t": 109883.41875000027,
      "d": 125.96864583334536,
      "v": 110
    },
    {
      "midi": 58,
      "hit": false,
      "t": 109883.41875000027,
      "d": 130.8135937500192,
      "v": 116
    },
    {
      "midi": 87,
      "hit": false,
      "t": 110014.23234374994,
      "d": 179.26307291667035,
      "v": 98
    },
    {
      "midi": 67,
      "hit": false,
      "t": 110115.9762500003,
      "d": 128.39111979166046,
      "v": 112
    },
    {
      "midi": 79,
      "hit": false,
      "t": 110115.9762500003,
      "d": 130.8135937499901,
      "v": 116
    },
    {
      "midi": 67,
      "hit": false,
      "t": 110241.94489583357,
      "d": 244.66986979167268,
      "v": 97
    },
    {
      "midi": 89,
      "hit": false,
      "t": 110244.36736979161,
      "d": 181.685546875,
      "v": 97
    },
    {
      "midi": 70,
      "hit": false,
      "t": 110464.81249999999,
      "d": 109.01132812499418,
      "v": 116
    },
    {
      "midi": 34,
      "hit": false,
      "t": 110467.23497395852,
      "d": 242.24739583334303,
      "v": 101
    },
    {
      "midi": 91,
      "hit": false,
      "t": 110476.9248697916,
      "d": 181.685546875,
      "v": 102
    },
    {
      "midi": 70,
      "hit": false,
      "t": 110697.36999999998,
      "d": 123.54617187500116,
      "v": 110
    },
    {
      "midi": 67,
      "hit": false,
      "t": 110702.21494791692,
      "d": 234.97997395833954,
      "v": 97
    },
    {
      "midi": 39,
      "hit": false,
      "t": 110704.63742187519,
      "d": 239.8249218750134,
      "v": 110
    },
    {
      "midi": 93,
      "hit": false,
      "t": 110903.28028645828,
      "d": 62.98432291667268,
      "v": 100
    },
    {
      "midi": 70,
      "hit": false,
      "t": 110929.92749999998,
      "d": 138.0810156249936,
      "v": 108
    },
    {
      "midi": 67,
      "hit": false,
      "t": 110937.19492187526,
      "d": 232.55749999999534,
      "v": 97
    },
    {
      "midi": 94,
      "hit": false,
      "t": 110949.30729166661,
      "d": 242.24739583334303,
      "v": 101
    },
    {
      "midi": 77,
      "hit": false,
      "t": 111162.48499999997,
      "d": 150.19338541667094,
      "v": 108
    },
    {
      "midi": 79,
      "hit": false,
      "t": 111162.48500000029,
      "d": 123.54617187500116,
      "v": 111
    },
    {
      "midi": 67,
      "hit": false,
      "t": 111162.48500000029,
      "d": 128.391119791675,
      "v": 107
    },
    {
      "midi": 72,
      "hit": false,
      "t": 111169.75242187531,
      "d": 125.96864583333081,
      "v": 92
    },
    {
      "midi": 67,
      "hit": false,
      "t": 111172.17489583358,
      "d": 232.55749999999534,
      "v": 98
    },
    {
      "midi": 39,
      "hit": false,
      "t": 111177.0198437502,
      "d": 467.5374739583349,
      "v": 107
    },
    {
      "midi": 67,
      "hit": false,
      "t": 111177.01984375031,
      "d": 123.54617187500116,
      "v": 96
    },
    {
      "midi": 75,
      "hit": false,
      "t": 111179.44231770864,
      "d": 125.96864583334536,
      "v": 99
    },
    {
      "midi": 67,
      "hit": false,
      "t": 111186.70973958328,
      "d": 116.27875000001222,
      "v": 100
    },
    {
      "midi": 93,
      "hit": false,
      "t": 111186.70973958328,
      "d": 239.82492187502794,
      "v": 93
    },
    {
      "midi": 77,
      "hit": false,
      "t": 111395.04249999998,
      "d": 171.99565104166686,
      "v": 116
    },
    {
      "midi": 79,
      "hit": false,
      "t": 111395.0425000003,
      "d": 125.96864583333081,
      "v": 118
    },
    {
      "midi": 67,
      "hit": false,
      "t": 111395.0425000003,
      "d": 128.39111979166046,
      "v": 116
    },
    {
      "midi": 75,
      "hit": false,
      "t": 111402.30992187532,
      "d": 130.8135937499901,
      "v": 95
    },
    {
      "midi": 67,
      "hit": false,
      "t": 111404.73239583358,
      "d": 239.82492187499884,
      "v": 89
    },
    {
      "midi": 67,
      "hit": false,
      "t": 111404.73239583365,
      "d": 128.39111979166046,
      "v": 89
    },
    {
      "midi": 72,
      "hit": false,
      "t": 111404.73239583365,
      "d": 128.39111979166046,
      "v": 103
    },
    {
      "midi": 67,
      "hit": false,
      "t": 111416.84476562496,
      "d": 118.70122395834187,
      "v": 101
    },
    {
      "midi": 91,
      "hit": false,
      "t": 111421.68971354164,
      "d": 169.5731770833372,
      "v": 102
    },
    {
      "midi": 77,
      "hit": false,
      "t": 111627.6000000003,
      "d": 118.70122395832732,
      "v": 112
    },
    {
      "midi": 65,
      "hit": false,
      "t": 111627.6000000003,
      "d": 125.96864583333081,
      "v": 107
    },
    {
      "midi": 34,
      "hit": false,
      "t": 111642.1348437502,
      "d": 234.979973958325,
      "v": 109
    },
    {
      "midi": 65,
      "hit": false,
      "t": 111644.55731770865,
      "d": 118.70122395832732,
      "v": 89
    },
    {
      "midi": 70,
      "hit": false,
      "t": 111646.97979166698,
      "d": 121.12369791667152,
      "v": 93
    },
    {
      "midi": 74,
      "hit": false,
      "t": 111646.97979166698,
      "d": 123.54617187500116,
      "v": 90
    },
    {
      "midi": 89,
      "hit": false,
      "t": 111651.8247395833,
      "d": 140.5034895833378,
      "v": 93
    },
    {
      "midi": 65,
      "hit": false,
      "t": 111654.24721354163,
      "d": 111.43380208333838,
      "v": 101
    },
    {
      "midi": 65,
      "hit": false,
      "t": 111656.66968750024,
      "d": 227.71255208333605,
      "v": 97
    },
    {
      "midi": 62,
      "hit": false,
      "t": 111661.51463541682,
      "d": 1858.0375260416622,
      "v": 104
    },
    {
      "midi": 65,
      "hit": false,
      "t": 111663.93710937515,
      "d": 1855.6150520833326,
      "v": 99
    },
    {
      "midi": 70,
      "hit": false,
      "t": 111666.35958333348,
      "d": 1860.4600000000064,
      "v": 97
    },
    {
      "midi": 70,
      "hit": false,
      "t": 111743.8787500003,
      "d": 125.96864583333081,
      "v": 108
    },
    {
      "midi": 58,
      "hit": false,
      "t": 111743.8787500003,
      "d": 128.39111979166046,
      "v": 110
    },
    {
      "midi": 65,
      "hit": false,
      "t": 111976.43625000029,
      "d": 128.39111979166046,
      "v": 113
    },
    {
      "midi": 77,
      "hit": false,
      "t": 111976.43625000029,
      "d": 130.8135937499901,
      "v": 116
    },
    {
      "midi": 89,
      "hit": false,
      "t": 111983.70367187497,
      "d": 157.46080729165988,
      "v": 94
    },
    {
      "midi": 65,
      "hit": false,
      "t": 112104.8273697919,
      "d": 244.66986979167268,
      "v": 96
    },
    {
      "midi": 70,
      "hit": false,
      "t": 112325.27249999998,
      "d": 111.43380208333838,
      "v": 108
    },
    {
      "midi": 29,
      "hit": false,
      "t": 112334.96239583353,
      "d": 242.24739583332848,
      "v": 101
    },
    {
      "midi": 86,
      "hit": false,
      "t": 112337.38486979164,
      "d": 145.3484374999971,
      "v": 97
    },
    {
      "midi": 70,
      "hit": false,
      "t": 112557.82999999999,
      "d": 101.74390625000524,
      "v": 116
    },
    {
      "midi": 77,
      "hit": false,
      "t": 112557.83000000028,
      "d": 125.96864583333081,
      "v": 110
    },
    {
      "midi": 65,
      "hit": false,
      "t": 112557.83000000028,
      "d": 130.81359375000466,
      "v": 111
    },
    {
      "midi": 34,
      "hit": false,
      "t": 112567.51989583352,
      "d": 242.24739583332848,
      "v": 108
    },
    {
      "midi": 65,
      "hit": false,
      "t": 112567.51989583358,
      "d": 232.55749999999534,
      "v": 99
    },
    {
      "midi": 70,
      "hit": false,
      "t": 112567.51989583364,
      "d": 128.39111979166046,
      "v": 100
    },
    {
      "midi": 74,
      "hit": false,
      "t": 112567.51989583364,
      "d": 130.8135937499901,
      "v": 98
    },
    {
      "midi": 65,
      "hit": false,
      "t": 112569.94236979164,
      "d": 125.96864583333081,
      "v": 103
    },
    {
      "midi": 65,
      "hit": false,
      "t": 112569.94236979197,
      "d": 125.96864583333081,
      "v": 89
    },
    {
      "midi": 89,
      "hit": false,
      "t": 112572.36484374997,
      "d": 162.30575520833372,
      "v": 95
    },
    {
      "midi": 70,
      "hit": false,
      "t": 112790.3875,
      "d": 101.74390625000524,
      "v": 116
    },
    {
      "midi": 77,
      "hit": false,
      "t": 112790.38750000029,
      "d": 123.54617187500116,
      "v": 110
    },
    {
      "midi": 65,
      "hit": false,
      "t": 112790.38750000029,
      "d": 128.391119791675,
      "v": 114
    },
    {
      "midi": 65,
      "hit": false,
      "t": 112800.07739583358,
      "d": 234.97997395833954,
      "v": 95
    },
    {
      "midi": 70,
      "hit": false,
      "t": 112800.07739583364,
      "d": 125.96864583333081,
      "v": 92
    },
    {
      "midi": 74,
      "hit": false,
      "t": 112800.07739583364,
      "d": 128.39111979166046,
      "v": 102
    },
    {
      "midi": 65,
      "hit": false,
      "t": 112802.49986979197,
      "d": 125.96864583333081,
      "v": 102
    },
    {
      "midi": 91,
      "hit": false,
      "t": 112809.76729166663,
      "d": 244.66986979165813,
      "v": 101
    },
    {
      "midi": 65,
      "hit": false,
      "t": 112812.18976562496,
      "d": 118.70122395832732,
      "v": 103
    },
    {
      "midi": 74,
      "hit": false,
      "t": 113022.945,
      "d": 130.81359375000466,
      "v": 113
    },
    {
      "midi": 79,
      "hit": false,
      "t": 113022.9450000003,
      "d": 123.54617187500116,
      "v": 108
    },
    {
      "midi": 67,
      "hit": false,
      "t": 113022.9450000003,
      "d": 128.391119791675,
      "v": 108
    },
    {
      "midi": 67,
      "hit": false,
      "t": 113030.2124218753,
      "d": 123.54617187500116,
      "v": 89
    },
    {
      "midi": 72,
      "hit": false,
      "t": 113032.63489583363,
      "d": 123.54617187500116,
      "v": 90
    },
    {
      "midi": 34,
      "hit": false,
      "t": 113035.05736979186,
      "d": 467.5374739583349,
      "v": 102
    },
    {
      "midi": 75,
      "hit": false,
      "t": 113037.4798437503,
      "d": 125.96864583333081,
      "v": 99
    },
    {
      "midi": 65,
      "hit": false,
      "t": 113039.90231770859,
      "d": 227.71255208333605,
      "v": 98
    },
    {
      "midi": 67,
      "hit": false,
      "t": 113047.16973958329,
      "d": 116.27874999999767,
      "v": 92
    },
    {
      "midi": 74,
      "hit": false,
      "t": 113255.50250000002,
      "d": 123.54617187500116,
      "v": 109
    },
    {
      "midi": 79,
      "hit": false,
      "t": 113255.50250000031,
      "d": 123.54617187500116,
      "v": 110
    },
    {
      "midi": 67,
      "hit": false,
      "t": 113255.50250000031,
      "d": 125.96864583333081,
      "v": 109
    },
    {
      "midi": 72,
      "hit": false,
      "t": 113262.7699218753,
      "d": 125.96864583333081,
      "v": 101
    },
    {
      "midi": 67,
      "hit": false,
      "t": 113265.19239583363,
      "d": 125.96864583333081,
      "v": 100
    },
    {
      "midi": 75,
      "hit": false,
      "t": 113265.19239583363,
      "d": 128.39111979166046,
      "v": 98
    },
    {
      "midi": 65,
      "hit": false,
      "t": 113267.61486979193,
      "d": 237.4024479166692,
      "v": 95
    },
    {
      "midi": 84,
      "hit": false,
      "t": 113274.88229166662,
      "d": 702.5174479166599,
      "v": 99
    },
    {
      "midi": 67,
      "hit": false,
      "t": 113277.30476562495,
      "d": 118.70122395832732,
      "v": 98
    },
    {
      "midi": 72,
      "hit": false,
      "t": 113488.06000000001,
      "d": 167.15070312499302,
      "v": 115
    },
    {
      "midi": 77,
      "hit": false,
      "t": 113488.0600000003,
      "d": 121.12369791667152,
      "v": 114
    },
    {
      "midi": 65,
      "hit": false,
      "t": 113488.0600000003,
      "d": 125.96864583334536,
      "v": 117
    },
    {
      "midi": 29,
      "hit": false,
      "t": 113497.74989583352,
      "d": 237.4024479166692,
      "v": 105
    },
    {
      "midi": 67,
      "hit": false,
      "t": 113497.74989583362,
      "d": 121.12369791665697,
      "v": 100
    },
    {
      "midi": 75,
      "hit": false,
      "t": 113500.17236979195,
      "d": 123.54617187500116,
      "v": 91
    },
    {
      "midi": 72,
      "hit": false,
      "t": 113502.59484375028,
      "d": 123.54617187500116,
      "v": 90
    },
    {
      "midi": 69,
      "hit": false,
      "t": 113507.43979166693,
      "d": 230.1350260416657,
      "v": 100
    },
    {
      "midi": 67,
      "hit": false,
      "t": 113517.12968749995,
      "d": 111.43380208333838,
      "v": 99
    },
    {
      "midi": 60,
      "hit": false,
      "t": 113519.55216145849,
      "d": 1865.3049479166657,
      "v": 102
    },
    {
      "midi": 65,
      "hit": false,
      "t": 113519.55216145849,
      "d": 1867.7274218749953,
      "v": 104
    },
    {
      "midi": 69,
      "hit": false,
      "t": 113519.55216145849,
      "d": 1867.7274218749953,
      "v": 98
    },
    {
      "midi": 72,
      "hit": false,
      "t": 113604.3387500003,
      "d": 125.96864583334536,
      "v": 114
    },
    {
      "midi": 60,
      "hit": false,
      "t": 113604.3387500003,
      "d": 128.391119791675,
      "v": 110
    },
    {
      "midi": 74,
      "hit": false,
      "t": 113720.61750000001,
      "d": 176.84059895832615,
      "v": 113
    },
    {
      "midi": 65,
      "hit": false,
      "t": 113836.89625000031,
      "d": 116.27874999999767,
      "v": 115
    },
    {
      "midi": 77,
      "hit": false,
      "t": 113836.89625000031,
      "d": 116.27874999999767,
      "v": 112
    },
    {
      "midi": 77,
      "hit": false,
      "t": 113953.17500000031,
      "d": 125.96864583333081,
      "v": 114
    },
    {
      "midi": 65,
      "hit": false,
      "t": 113953.17500000031,
      "d": 128.39111979166046,
      "v": 116
    },
    {
      "midi": 69,
      "hit": false,
      "t": 113960.44242187525,
      "d": 244.66986979167268,
      "v": 94
    },
    {
      "midi": 75,
      "hit": false,
      "t": 114185.7325,
      "d": 191.37544270833314,
      "v": 110
    },
    {
      "midi": 41,
      "hit": false,
      "t": 114195.42239583352,
      "d": 467.53747395834944,
      "v": 108
    },
    {
      "midi": 29,
      "hit": false,
      "t": 114423.13494791686,
      "d": 14.534843750006985,
      "v": 108
    },
    {
      "midi": 69,
      "hit": false,
      "t": 114427.97989583359,
      "d": 234.97997395833954,
      "v": 94
    },
    {
      "midi": 77,
      "hit": false,
      "t": 114665.38234374995,
      "d": 251.93729166666162,
      "v": 97
    },
    {
      "midi": 69,
      "hit": false,
      "t": 114665.38234375026,
      "d": 232.55749999999534,
      "v": 100
    },
    {
      "midi": 77,
      "hit": false,
      "t": 114883.405,
      "d": 145.3484374999971,
      "v": 116
    },
    {
      "midi": 79,
      "hit": false,
      "t": 114883.4050000003,
      "d": 121.12369791667152,
      "v": 115
    },
    {
      "midi": 67,
      "hit": false,
      "t": 114883.4050000003,
      "d": 128.391119791675,
      "v": 118
    },
    {
      "midi": 67,
      "hit": false,
      "t": 114895.51736979195,
      "d": 123.54617187500116,
      "v": 92
    },
    {
      "midi": 75,
      "hit": false,
      "t": 114895.51736979195,
      "d": 125.96864583333081,
      "v": 93
    },
    {
      "midi": 29,
      "hit": false,
      "t": 114897.93984375021,
      "d": 467.5374739583349,
      "v": 105
    },
    {
      "midi": 69,
      "hit": false,
      "t": 114897.93984375025,
      "d": 232.55749999999534,
      "v": 92
    },
    {
      "midi": 72,
      "hit": false,
      "t": 114897.93984375028,
      "d": 125.96864583333081,
      "v": 91
    },
    {
      "midi": 67,
      "hit": false,
      "t": 114907.62973958328,
      "d": 116.27874999999767,
      "v": 97
    },
    {
      "midi": 77,
      "hit": false,
      "t": 115115.9625,
      "d": 130.81359375000466,
      "v": 115
    },
    {
      "midi": 79,
      "hit": false,
      "t": 115115.96250000031,
      "d": 125.96864583333081,
      "v": 108
    },
    {
      "midi": 67,
      "hit": false,
      "t": 115115.96250000031,
      "d": 128.39111979166046,
      "v": 116
    },
    {
      "midi": 67,
      "hit": false,
      "t": 115118.38497395861,
      "d": 128.39111979166046,
      "v": 95
    },
    {
      "midi": 72,
      "hit": false,
      "t": 115120.80744791694,
      "d": 128.39111979166046,
      "v": 101
    },
    {
      "midi": 75,
      "hit": false,
      "t": 115128.07486979195,
      "d": 130.8135937499901,
      "v": 102
    },
    {
      "midi": 69,
      "hit": false,
      "t": 115130.49734375025,
      "d": 239.82492187499884,
      "v": 102
    },
    {
      "midi": 79,
      "hit": false,
      "t": 115135.34229166662,
      "d": 239.82492187498428,
      "v": 92
    },
    {
      "midi": 67,
      "hit": false,
      "t": 115137.76476562495,
      "d": 118.70122395832732,
      "v": 96
    },
    {
      "midi": 77,
      "hit": false,
      "t": 115348.52,
      "d": 193.7979166666628,
      "v": 115
    },
    {
      "midi": 77,
      "hit": false,
      "t": 115348.52000000031,
      "d": 118.70122395832732,
      "v": 118
    },
    {
      "midi": 65,
      "hit": false,
      "t": 115348.52000000031,
      "d": 125.96864583333081,
      "v": 115
    },
    {
      "midi": 70,
      "hit": false,
      "t": 115360.63236979194,
      "d": 121.12369791667152,
      "v": 97
    },
    {
      "midi": 34,
      "hit": false,
      "t": 115363.05484375021,
      "d": 232.55749999999534,
      "v": 109
    },
    {
      "midi": 74,
      "hit": false,
      "t": 115363.05484375027,
      "d": 121.12369791667152,
      "v": 92
    },
    {
      "midi": 65,
      "hit": false,
      "t": 115367.89979166695,
      "d": 118.70122395832732,
      "v": 92
    },
    {
      "midi": 65,
      "hit": false,
      "t": 115375.16721354192,
      "d": 225.2900781250064,
      "v": 91
    },
    {
      "midi": 82,
      "hit": false,
      "t": 115380.01216145827,
      "d": 225.29007812499185,
      "v": 92
    },
    {
      "midi": 65,
      "hit": false,
      "t": 115382.4346354166,
      "d": 109.01132812499418,
      "v": 92
    },
    {
      "midi": 62,
      "hit": false,
      "t": 115387.27958333348,
      "d": 1850.7701041666587,
      "v": 103
    },
    {
      "midi": 65,
      "hit": false,
      "t": 115389.70205729181,
      "d": 1853.192578125003,
      "v": 97
    },
    {
      "midi": 70,
      "hit": false,
      "t": 115392.12453125014,
      "d": 1853.192578125003,
      "v": 92
    },
    {
      "midi": 70,
      "hit": false,
      "t": 115464.79875000031,
      "d": 125.96864583333081,
      "v": 113
    },
    {
      "midi": 58,
      "hit": false,
      "t": 115464.79875000031,
      "d": 128.39111979166046,
      "v": 107
    },
    {
      "midi": 81,
      "hit": false,
      "t": 115593.1898697916,
      "d": 244.66986979165813,
      "v": 100
    },
    {
      "midi": 65,
      "hit": false,
      "t": 115697.3562500003,
      "d": 128.39111979166046,
      "v": 112
    },
    {
      "midi": 77,
      "hit": false,
      "t": 115697.3562500003,
      "d": 130.8135937499901,
      "v": 110
    },
    {
      "midi": 65,
      "hit": false,
      "t": 115818.47994791693,
      "d": 244.66986979167268,
      "v": 92
    },
    {
      "midi": 82,
      "hit": false,
      "t": 115825.7473697916,
      "d": 242.24739583332848,
      "v": 102
    },
    {
      "midi": 70,
      "hit": false,
      "t": 116046.1925,
      "d": 106.58885416666453,
      "v": 109
    },
    {
      "midi": 29,
      "hit": false,
      "t": 116055.88239583354,
      "d": 244.66986979167268,
      "v": 108
    },
    {
      "midi": 84,
      "hit": false,
      "t": 116060.72734374992,
      "d": 244.66986979168723,
      "v": 93
    },
    {
      "midi": 70,
      "hit": false,
      "t": 116278.75,
      "d": 106.58885416666453,
      "v": 114
    },
    {
      "midi": 77,
      "hit": false,
      "t": 116278.75000000029,
      "d": 123.54617187500116,
      "v": 114
    },
    {
      "midi": 65,
      "hit": false,
      "t": 116278.75000000029,
      "d": 128.391119791675,
      "v": 116
    },
    {
      "midi": 34,
      "hit": false,
      "t": 116283.59494791688,
      "d": 242.24739583334303,
      "v": 103
    },
    {
      "midi": 65,
      "hit": false,
      "t": 116286.01742187528,
      "d": 123.54617187500116,
      "v": 89
    },
    {
      "midi": 70,
      "hit": false,
      "t": 116286.01742187528,
      "d": 123.54617187500116,
      "v": 92
    },
    {
      "midi": 65,
      "hit": false,
      "t": 116288.43989583361,
      "d": 237.4024479166692,
      "v": 90
    },
    {
      "midi": 74,
      "hit": false,
      "t": 116288.43989583361,
      "d": 128.391119791675,
      "v": 91
    },
    {
      "midi": 86,
      "hit": false,
      "t": 116293.28484374993,
      "d": 247.09234375000233,
      "v": 102
    },
    {
      "midi": 65,
      "hit": false,
      "t": 116300.55226562494,
      "d": 118.70122395834187,
      "v": 99
    },
    {
      "midi": 70,
      "hit": false,
      "t": 116511.3075,
      "d": 128.39111979166046,
      "v": 115
    },
    {
      "midi": 77,
      "hit": false,
      "t": 116511.3075000003,
      "d": 125.96864583333081,
      "v": 111
    },
    {
      "midi": 65,
      "hit": false,
      "t": 116511.3075000003,
      "d": 128.39111979166046,
      "v": 107
    },
    {
      "midi": 65,
      "hit": false,
      "t": 116518.57492187529,
      "d": 125.96864583333081,
      "v": 94
    },
    {
      "midi": 74,
      "hit": false,
      "t": 116518.57492187529,
      "d": 128.39111979166046,
      "v": 90
    },
    {
      "midi": 70,
      "hit": false,
      "t": 116520.99739583362,
      "d": 125.96864583333081,
      "v": 95
    },
    {
      "midi": 65,
      "hit": false,
      "t": 116528.26481770861,
      "d": 225.2900781250064,
      "v": 98
    },
    {
      "midi": 65,
      "hit": false,
      "t": 116537.9547135416,
      "d": 116.27874999999767,
      "v": 96
    },
    {
      "midi": 86,
      "hit": false,
      "t": 116591.24914062493,
      "d": 244.66986979167268,
      "v": 97
    },
    {
      "midi": 79,
      "hit": false,
      "t": 116743.86499999999,
      "d": 142.92596354166744,
      "v": 109
    },
    {
      "midi": 79,
      "hit": false,
      "t": 116743.8650000003,
      "d": 123.54617187500116,
      "v": 116
    },
    {
      "midi": 67,
      "hit": false,
      "t": 116743.8650000003,
      "d": 128.391119791675,
      "v": 116
    },
    {
      "midi": 72,
      "hit": false,
      "t": 116751.13242187529,
      "d": 125.96864583334536,
      "v": 102
    },
    {
      "midi": 65,
      "hit": false,
      "t": 116753.55489583361,
      "d": 232.55749999999534,
      "v": 99
    },
    {
      "midi": 34,
      "hit": false,
      "t": 116755.97736979189,
      "d": 467.5374739583349,
      "v": 108
    },
    {
      "midi": 67,
      "hit": false,
      "t": 116755.97736979196,
      "d": 123.54617187500116,
      "v": 89
    },
    {
      "midi": 75,
      "hit": false,
      "t": 116760.82231770863,
      "d": 125.96864583333081,
      "v": 89
    },
    {
      "midi": 67,
      "hit": false,
      "t": 116768.08973958327,
      "d": 116.27874999999767,
      "v": 94
    },
    {
      "midi": 87,
      "hit": false,
      "t": 116906.17075520827,
      "d": 244.66986979167268,
      "v": 94
    },
    {
      "midi": 79,
      "hit": false,
      "t": 116976.42249999999,
      "d": 84.7865885416686,
      "v": 113
    },
    {
      "midi": 79,
      "hit": false,
      "t": 116976.4225000003,
      "d": 125.96864583333081,
      "v": 109
    },
    {
      "midi": 67,
      "hit": false,
      "t": 116976.4225000003,
      "d": 128.39111979166046,
      "v": 107
    },
    {
      "midi": 72,
      "hit": false,
      "t": 116978.84497395864,
      "d": 130.81359375000466,
      "v": 99
    },
    {
      "midi": 75,
      "hit": false,
      "t": 116983.68992187531,
      "d": 130.81359375000466,
      "v": 102
    },
    {
      "midi": 67,
      "hit": false,
      "t": 116986.11239583364,
      "d": 128.391119791675,
      "v": 91
    },
    {
      "midi": 65,
      "hit": false,
      "t": 116988.53486979194,
      "d": 239.82492187499884,
      "v": 93
    },
    {
      "midi": 67,
      "hit": false,
      "t": 116990.95734374993,
      "d": 121.12369791667152,
      "v": 93
    },
    {
      "midi": 79,
      "hit": false,
      "t": 117208.9800000003,
      "d": 121.12369791667152,
      "v": 117
    },
    {
      "midi": 67,
      "hit": false,
      "t": 117208.9800000003,
      "d": 125.96864583334536,
      "v": 108
    },
    {
      "midi": 39,
      "hit": false,
      "t": 117216.24742187522,
      "d": 237.4024479166692,
      "v": 109
    },
    {
      "midi": 67,
      "hit": false,
      "t": 117221.09236979198,
      "d": 121.12369791665697,
      "v": 102
    },
    {
      "midi": 75,
      "hit": false,
      "t": 117221.09236979198,
      "d": 123.54617187498661,
      "v": 92
    },
    {
      "midi": 72,
      "hit": false,
      "t": 117223.51484375031,
      "d": 123.54617187498661,
      "v": 94
    },
    {
      "midi": 67,
      "hit": false,
      "t": 117230.78226562527,
      "d": 230.1350260416657,
      "v": 102
    },
    {
      "midi": 67,
      "hit": false,
      "t": 117235.62721354161,
      "d": 111.43380208332383,
      "v": 98
    },
    {
      "midi": 86,
      "hit": false,
      "t": 117238.04968749994,
      "d": 227.7125520833215,
      "v": 95
    },
    {
      "midi": 63,
      "hit": false,
      "t": 117242.89463541681,
      "d": 1858.0375260416622,
      "v": 100
    },
    {
      "midi": 67,
      "hit": false,
      "t": 117245.31710937514,
      "d": 1858.0375260416622,
      "v": 100
    },
    {
      "midi": 70,
      "hit": false,
      "t": 117245.31710937514,
      "d": 1860.4599999999919,
      "v": 101
    },
    {
      "midi": 70,
      "hit": false,
      "t": 117325.2587500003,
      "d": 123.54617187501572,
      "v": 112
    },
    {
      "midi": 58,
      "hit": false,
      "t": 117325.2587500003,
      "d": 128.39111979168956,
      "v": 111
    },
    {
      "midi": 87,
      "hit": false,
      "t": 117528.74656249993,
      "d": 247.09234375000233,
      "v": 92
    },
    {
      "midi": 67,
      "hit": false,
      "t": 117557.81625000032,
      "d": 128.39111979166046,
      "v": 114
    },
    {
      "midi": 79,
      "hit": false,
      "t": 117557.81625000032,
      "d": 130.8135937499901,
      "v": 108
    },
    {
      "midi": 67,
      "hit": false,
      "t": 117683.7848958336,
      "d": 244.66986979167268,
      "v": 98
    },
    {
      "midi": 89,
      "hit": false,
      "t": 117833.97828124993,
      "d": 247.09234375000233,
      "v": 97
    },
    {
      "midi": 70,
      "hit": false,
      "t": 117906.65249999998,
      "d": 96.8989583333314,
      "v": 115
    },
    {
      "midi": 34,
      "hit": false,
      "t": 117913.91992187522,
      "d": 242.24739583332848,
      "v": 104
    },
    {
      "midi": 70,
      "hit": false,
      "t": 118139.20999999998,
      "d": 94.47648437500175,
      "v": 115
    },
    {
      "midi": 39,
      "hit": false,
      "t": 118144.05494791688,
      "d": 239.82492187499884,
      "v": 101
    },
    {
      "midi": 67,
      "hit": false,
      "t": 118144.05494791694,
      "d": 232.55749999999534,
      "v": 89
    },
    {
      "midi": 91,
      "hit": false,
      "t": 118151.3223697916,
      "d": 251.93729166666162,
      "v": 93
    },
    {
      "midi": 70,
      "hit": false,
      "t": 118371.76749999997,
      "d": 142.92596354166744,
      "v": 110
    },
    {
      "midi": 67,
      "hit": false,
      "t": 118381.45739583361,
      "d": 234.97997395833954,
      "v": 100
    },
    {
      "midi": 77,
      "hit": false,
      "t": 118604.32499999997,
      "d": 138.0810156249936,
      "v": 113
    },
    {
      "midi": 79,
      "hit": false,
      "t": 118604.32500000032,
      "d": 123.54617187500116,
      "v": 108
    },
    {
      "midi": 67,
      "hit": false,
      "t": 118604.32500000032,
      "d": 128.391119791675,
      "v": 112
    },
    {
      "midi": 67,
      "hit": false,
      "t": 118611.59242187529,
      "d": 123.54617187500116,
      "v": 89
    },
    {
      "midi": 72,
      "hit": false,
      "t": 118614.01489583362,
      "d": 123.54617187500116,
      "v": 102
    },
    {
      "midi": 39,
      "hit": false,
      "t": 118618.85984375022,
      "d": 467.5374739583349,
      "v": 111
    },
    {
      "midi": 67,
      "hit": false,
      "t": 118618.85984375028,
      "d": 230.1350260416657,
      "v": 96
    },
    {
      "midi": 75,
      "hit": false,
      "t": 118618.8598437503,
      "d": 125.96864583333081,
      "v": 102
    },
    {
      "midi": 91,
      "hit": false,
      "t": 118623.70479166659,
      "d": 244.66986979165813,
      "v": 102
    },
    {
      "midi": 67,
      "hit": false,
      "t": 118626.12726562492,
      "d": 118.70122395832732,
      "v": 102
    },
    {
      "midi": 77,
      "hit": false,
      "t": 118836.88249999996,
      "d": 145.3484374999971,
      "v": 114
    },
    {
      "midi": 79,
      "hit": false,
      "t": 118836.88250000033,
      "d": 125.96864583333081,
      "v": 113
    },
    {
      "midi": 67,
      "hit": false,
      "t": 118836.88250000033,
      "d": 128.39111979166046,
      "v": 113
    },
    {
      "midi": 72,
      "hit": false,
      "t": 118841.72744791696,
      "d": 128.391119791675,
      "v": 92
    },
    {
      "midi": 67,
      "hit": false,
      "t": 118846.57239583363,
      "d": 128.391119791675,
      "v": 102
    },
    {
      "midi": 67,
      "hit": false,
      "t": 118848.99486979195,
      "d": 242.24739583332848,
      "v": 96
    },
    {
      "midi": 75,
      "hit": false,
      "t": 118848.99486979196,
      "d": 130.8135937500192,
      "v": 92
    },
    {
      "midi": 67,
      "hit": false,
      "t": 118856.26229166659,
      "d": 118.70122395832732,
      "v": 92
    },
    {
      "midi": 77,
      "hit": false,
      "t": 119069.44000000032,
      "d": 121.12369791667152,
      "v": 117
    },
    {
      "midi": 65,
      "hit": false,
      "t": 119069.44000000032,
      "d": 125.96864583334536,
      "v": 111
    },
    {
      "midi": 65,
      "hit": false,
      "t": 119083.97484375031,
      "d": 121.12369791667152,
      "v": 101
    },
    {
      "midi": 70,
      "hit": false,
      "t": 119083.97484375031,
      "d": 121.12369791667152,
      "v": 101
    },
    {
      "midi": 34,
      "hit": false,
      "t": 119086.39731770856,
      "d": 234.97997395833954,
      "v": 102
    },
    {
      "midi": 74,
      "hit": false,
      "t": 119088.81979166699,
      "d": 123.54617187500116,
      "v": 92
    },
    {
      "midi": 65,
      "hit": false,
      "t": 119093.66473958324,
      "d": 111.43380208333838,
      "v": 99
    },
    {
      "midi": 65,
      "hit": false,
      "t": 119096.08721354195,
      "d": 227.71255208333605,
      "v": 90
    },
    {
      "midi": 62,
      "hit": false,
      "t": 119098.50968750015,
      "d": 930.2299999999959,
      "v": 94
    },
    {
      "midi": 89,
      "hit": false,
      "t": 119100.93216145824,
      "d": 227.71255208333605,
      "v": 97
    },
    {
      "midi": 65,
      "hit": false,
      "t": 119105.77710937514,
      "d": 922.962578125007,
      "v": 91
    },
    {
      "midi": 70,
      "hit": false,
      "t": 119110.62205729181,
      "d": 930.2299999999959,
      "v": 95
    },
    {
      "midi": 70,
      "hit": false,
      "t": 119185.71875000032,
      "d": 125.96864583334536,
      "v": 110
    },
    {
      "midi": 58,
      "hit": false,
      "t": 119185.71875000032,
      "d": 128.391119791675,
      "v": 112
    },
    {
      "midi": 65,
      "hit": false,
      "t": 119418.27625000033,
      "d": 128.39111979166046,
      "v": 113
    },
    {
      "midi": 77,
      "hit": false,
      "t": 119418.27625000033,
      "d": 133.2360677083343,
      "v": 116
    },
    {
      "midi": 74,
      "hit": false,
      "t": 119534.55499999996,
      "d": 106.58885416666453,
      "v": 114
    },
    {
      "midi": 65,
      "hit": false,
      "t": 119539.39994791696,
      "d": 247.09234375000233,
      "v": 103
    },
    {
      "midi": 94,
      "hit": false,
      "t": 119551.51231770824,
      "d": 244.66986979167268,
      "v": 101
    },
    {
      "midi": 74,
      "hit": false,
      "t": 119767.11249999996,
      "d": 79.94164062499476,
      "v": 112
    },
    {
      "midi": 41,
      "hit": false,
      "t": 119776.80239583357,
      "d": 472.3824218749942,
      "v": 104
    },
    {
      "midi": 89,
      "hit": false,
      "t": 119788.91476562491,
      "d": 174.4181249999965,
      "v": 92
    },
    {
      "midi": 70,
      "hit": false,
      "t": 119999.66999999995,
      "d": 130.81359375000466,
      "v": 112
    },
    {
      "midi": 75,
      "hit": false,
      "t": 119999.67000000033,
      "d": 123.54617187500116,
      "v": 111
    },
    {
      "midi": 63,
      "hit": false,
      "t": 119999.67000000033,
      "d": 128.391119791675,
      "v": 115
    },
    {
      "midi": 29,
      "hit": false,
      "t": 120006.93742187523,
      "d": 12.112369791662786,
      "v": 106
    },
    {
      "midi": 65,
      "hit": false,
      "t": 120006.93742187532,
      "d": 123.54617187500116,
      "v": 96
    },
    {
      "midi": 69,
      "hit": false,
      "t": 120006.93742187532,
      "d": 125.96864583333081,
      "v": 94
    },
    {
      "midi": 72,
      "hit": false,
      "t": 120006.93742187532,
      "d": 128.39111979166046,
      "v": 96
    },
    {
      "midi": 69,
      "hit": false,
      "t": 120011.78236979197,
      "d": 234.97997395833954,
      "v": 94
    },
    {
      "midi": 86,
      "hit": false,
      "t": 120016.62731770825,
      "d": 123.54617187500116,
      "v": 102
    },
    {
      "midi": 63,
      "hit": false,
      "t": 120019.04979166658,
      "d": 123.54617187500116,
      "v": 101
    },
    {
      "midi": 60,
      "hit": false,
      "t": 120021.47226562514,
      "d": 937.4974218749994,
      "v": 98
    },
    {
      "midi": 65,
      "hit": false,
      "t": 120031.16216145847,
      "d": 930.2299999999959,
      "v": 100
    },
    {
      "midi": 69,
      "hit": false,
      "t": 120031.16216145847,
      "d": 937.4974218749994,
      "v": 104
    },
    {
      "midi": 72,
      "hit": false,
      "t": 120232.22749999996,
      "d": 157.46080729165988,
      "v": 112
    },
    {
      "midi": 75,
      "hit": false,
      "t": 120232.22750000034,
      "d": 123.54617187500116,
      "v": 113
    },
    {
      "midi": 63,
      "hit": false,
      "t": 120232.22750000034,
      "d": 128.391119791675,
      "v": 117
    },
    {
      "midi": 69,
      "hit": false,
      "t": 120241.91739583365,
      "d": 128.39111979166046,
      "v": 90
    },
    {
      "midi": 72,
      "hit": false,
      "t": 120241.91739583365,
      "d": 128.39111979166046,
      "v": 93
    },
    {
      "midi": 65,
      "hit": false,
      "t": 120244.33986979198,
      "d": 125.96864583333081,
      "v": 90
    },
    {
      "midi": 69,
      "hit": false,
      "t": 120246.7623437503,
      "d": 232.55749999999534,
      "v": 93
    },
    {
      "midi": 63,
      "hit": false,
      "t": 120256.45223958325,
      "d": 118.70122395834187,
      "v": 97
    },
    {
      "midi": 84,
      "hit": false,
      "t": 120300.05677083325,
      "d": 247.09234375000233,
      "v": 95
    },
    {
      "midi": 77,
      "hit": false,
      "t": 120464.78499999996,
      "d": 210.75523437499942,
      "v": 113
    },
    {
      "midi": 77,
      "hit": false,
      "t": 120464.78500000035,
      "d": 123.54617187500116,
      "v": 107
    },
    {
      "midi": 65,
      "hit": false,
      "t": 120464.78500000035,
      "d": 128.391119791675,
      "v": 118
    },
    {
      "midi": 29,
      "hit": false,
      "t": 120472.05242187523,
      "d": 467.5374739583349,
      "v": 109
    },
    {
      "midi": 65,
      "hit": false,
      "t": 120476.89736979197,
      "d": 123.54617187500116,
      "v": 100
    },
    {
      "midi": 69,
      "hit": false,
      "t": 120479.3198437503,
      "d": 232.55749999999534,
      "v": 104
    },
    {
      "midi": 70,
      "hit": false,
      "t": 120479.3198437503,
      "d": 125.96864583334536,
      "v": 94
    },
    {
      "midi": 74,
      "hit": false,
      "t": 120479.3198437503,
      "d": 125.96864583334536,
      "v": 97
    },
    {
      "midi": 65,
      "hit": false,
      "t": 120484.16479166658,
      "d": 118.70122395834187,
      "v": 103
    },
    {
      "midi": 70,
      "hit": false,
      "t": 120697.34249999996,
      "d": 310.07666666666046,
      "v": 115
    },
    {
      "midi": 77,
      "hit": false,
      "t": 120697.34250000036,
      "d": 125.96864583333081,
      "v": 107
    },
    {
      "midi": 65,
      "hit": false,
      "t": 120697.34250000036,
      "d": 128.39111979166046,
      "v": 118
    },
    {
      "midi": 65,
      "hit": false,
      "t": 120699.76497395865,
      "d": 128.39111979166046,
      "v": 90
    },
    {
      "midi": 70,
      "hit": false,
      "t": 120709.45486979198,
      "d": 128.39111979166046,
      "v": 91
    },
    {
      "midi": 74,
      "hit": false,
      "t": 120709.45486979198,
      "d": 130.8135937499901,
      "v": 92
    },
    {
      "midi": 65,
      "hit": false,
      "t": 120714.29981770826,
      "d": 121.12369791665697,
      "v": 99
    },
    {
      "midi": 69,
      "hit": false,
      "t": 120714.29981770863,
      "d": 242.24739583332848,
      "v": 100
    },
    {
      "midi": 82,
      "hit": false,
      "t": 120716.72229166659,
      "d": 239.82492187499884,
      "v": 101
    },
    {
      "midi": 77,
      "hit": false,
      "t": 120929.90000000036,
      "d": 121.12369791667152,
      "v": 109
    },
    {
      "midi": 65,
      "hit": false,
      "t": 120929.90000000036,
      "d": 125.96864583334536,
      "v": 112
    },
    {
      "midi": 34,
      "hit": false,
      "t": 120937.16742187523,
      "d": 237.4024479166692,
      "v": 110
    },
    {
      "midi": 65,
      "hit": false,
      "t": 120939.58989583363,
      "d": 121.12369791667152,
      "v": 92
    },
    {
      "midi": 70,
      "hit": false,
      "t": 120942.01236979196,
      "d": 123.54617187501572,
      "v": 96
    },
    {
      "midi": 74,
      "hit": false,
      "t": 120946.85731770864,
      "d": 123.54617187501572,
      "v": 98
    },
    {
      "midi": 70,
      "hit": false,
      "t": 120954.12473958363,
      "d": 227.71255208333605,
      "v": 97
    },
    {
      "midi": 65,
      "hit": false,
      "t": 120958.96968749992,
      "d": 109.01132812499418,
      "v": 92
    },
    {
      "midi": 65,
      "hit": false,
      "t": 120961.39216145847,
      "d": 1848.3476302083436,
      "v": 104
    },
    {
      "midi": 62,
      "hit": false,
      "t": 120961.39216145847,
      "d": 1850.7701041666733,
      "v": 91
    },
    {
      "midi": 70,
      "hit": false,
      "t": 120966.23710937514,
      "d": 1845.9251562499994,
      "v": 94
    },
    {
      "midi": 70,
      "hit": false,
      "t": 121046.17875000036,
      "d": 123.54617187501572,
      "v": 107
    },
    {
      "midi": 58,
      "hit": false,
      "t": 121046.17875000036,
      "d": 128.39111979168956,
      "v": 115
    },
    {
      "midi": 65,
      "hit": false,
      "t": 121278.73625000038,
      "d": 116.27874999999767,
      "v": 117
    },
    {
      "midi": 77,
      "hit": false,
      "t": 121278.73625000038,
      "d": 116.27874999999767,
      "v": 109
    },
    {
      "midi": 77,
      "hit": false,
      "t": 121395.01500000038,
      "d": 123.54617187500116,
      "v": 113
    },
    {
      "midi": 65,
      "hit": false,
      "t": 121395.01500000038,
      "d": 125.96864583333081,
      "v": 113
    },
    {
      "midi": 65,
      "hit": false,
      "t": 121407.12736979197,
      "d": 242.24739583332848,
      "v": 100
    },
    {
      "midi": 29,
      "hit": false,
      "t": 121629.99497395857,
      "d": 242.24739583332848,
      "v": 110
    },
    {
      "midi": 70,
      "hit": false,
      "t": 121639.68486979196,
      "d": 242.24739583332848,
      "v": 96
    },
    {
      "midi": 34,
      "hit": false,
      "t": 121872.2423697919,
      "d": 239.82492187499884,
      "v": 107
    },
    {
      "midi": 65,
      "hit": false,
      "t": 122104.79986979195,
      "d": 232.55749999999534,
      "v": 95
    },
    {
      "midi": 74,
      "hit": false,
      "t": 122325.24499999995,
      "d": 104.16638020833489,
      "v": 112
    },
    {
      "midi": 34,
      "hit": false,
      "t": 122334.93489583356,
      "d": 467.5374739583349,
      "v": 101
    },
    {
      "midi": 65,
      "hit": false,
      "t": 122337.35736979195,
      "d": 227.71255208333605,
      "v": 96
    },
    {
      "midi": 74,
      "hit": false,
      "t": 122557.80249999995,
      "d": 96.8989583333314,
      "v": 114
    },
    {
      "midi": 65,
      "hit": false,
      "t": 122565.06992187529,
      "d": 244.66986979167268,
      "v": 101
    },
    {
      "midi": 74,
      "hit": false,
      "t": 122790.35999999994,
      "d": 147.77091145832674,
      "v": 110
    },
    {
      "midi": 77,
      "hit": false,
      "t": 122790.36000000038,
      "d": 121.12369791667152,
      "v": 116
    },
    {
      "midi": 65,
      "hit": false,
      "t": 122790.36000000038,
      "d": 125.96864583334536,
      "v": 112
    },
    {
      "midi": 34,
      "hit": false,
      "t": 122802.4723697919,
      "d": 234.97997395833954,
      "v": 107
    },
    {
      "midi": 70,
      "hit": false,
      "t": 122812.16226562514,
      "d": 1855.615052083318,
      "v": 102
    },
    {
      "midi": 62,
      "hit": false,
      "t": 122814.58473958347,
      "d": 1860.4599999999919,
      "v": 97
    },
    {
      "midi": 65,
      "hit": false,
      "t": 122817.0072135418,
      "d": 1862.882473958336,
      "v": 97
    },
    {
      "midi": 58,
      "hit": false,
      "t": 122906.63875000038,
      "d": 128.391119791675,
      "v": 112
    },
    {
      "midi": 70,
      "hit": false,
      "t": 122906.63875000038,
      "d": 128.391119791675,
      "v": 108
    },
    {
      "midi": 74,
      "hit": false,
      "t": 123139.19624999994,
      "d": 116.27874999999767,
      "v": 112
    },
    {
      "midi": 65,
      "hit": false,
      "t": 123139.19625000039,
      "d": 128.39111979166046,
      "v": 118
    },
    {
      "midi": 77,
      "hit": false,
      "t": 123139.19625000039,
      "d": 128.39111979166046,
      "v": 111
    },
    {
      "midi": 72,
      "hit": false,
      "t": 123488.03249999993,
      "d": 118.70122395832732,
      "v": 115
    },
    {
      "midi": 29,
      "hit": false,
      "t": 123495.29992187524,
      "d": 242.24739583334303,
      "v": 107
    },
    {
      "midi": 70,
      "hit": false,
      "t": 123720.58999999992,
      "d": 118.70122395832732,
      "v": 113
    },
    {
      "midi": 34,
      "hit": false,
      "t": 123730.27989583358,
      "d": 242.24739583334303,
      "v": 105
    },
    {
      "midi": 69,
      "hit": false,
      "t": 124185.70499999991,
      "d": 111.43380208333838,
      "v": 116
    },
    {
      "midi": 34,
      "hit": false,
      "t": 124197.81736979193,
      "d": 469.95994791666453,
      "v": 103
    },
    {
      "midi": 67,
      "hit": false,
      "t": 124418.26249999992,
      "d": 336.72388020833023,
      "v": 111
    },
    {
      "midi": 79,
      "hit": false,
      "t": 124650.82000000039,
      "d": 123.54617187500116,
      "v": 107
    },
    {
      "midi": 67,
      "hit": false,
      "t": 124650.82000000039,
      "d": 125.96864583333081,
      "v": 118
    },
    {
      "midi": 39,
      "hit": false,
      "t": 124660.50989583359,
      "d": 237.4024479166692,
      "v": 106
    },
    {
      "midi": 63,
      "hit": false,
      "t": 124665.35484375013,
      "d": 1862.882473958336,
      "v": 95
    },
    {
      "midi": 67,
      "hit": false,
      "t": 124672.62226562513,
      "d": 1865.3049479166657,
      "v": 91
    },
    {
      "midi": 70,
      "hit": false,
      "t": 124675.04473958346,
      "d": 1860.4600000000064,
      "v": 98
    },
    {
      "midi": 58,
      "hit": false,
      "t": 124767.09875000038,
      "d": 128.39111979166046,
      "v": 113
    },
    {
      "midi": 70,
      "hit": false,
      "t": 124767.09875000038,
      "d": 128.39111979166046,
      "v": 116
    },
    {
      "midi": 70,
      "hit": false,
      "t": 124883.37749999992,
      "d": 213.17770833332906,
      "v": 113
    },
    {
      "midi": 67,
      "hit": false,
      "t": 124999.65625000038,
      "d": 128.39111979166046,
      "v": 118
    },
    {
      "midi": 79,
      "hit": false,
      "t": 124999.65625000038,
      "d": 130.8135937499901,
      "v": 115
    },
    {
      "midi": 70,
      "hit": false,
      "t": 125348.4924999999,
      "d": 188.9529687500035,
      "v": 114
    },
    {
      "midi": 34,
      "hit": false,
      "t": 125350.91497395858,
      "d": 242.24739583332848,
      "v": 110
    },
    {
      "midi": 39,
      "hit": false,
      "t": 125590.73989583358,
      "d": 242.24739583332848,
      "v": 101
    },
    {
      "midi": 70,
      "hit": false,
      "t": 125813.60749999991,
      "d": 104.16638020833489,
      "v": 110
    },
    {
      "midi": 75,
      "hit": false,
      "t": 126046.1649999999,
      "d": 164.72822916666337,
      "v": 115
    },
    {
      "midi": 39,
      "hit": false,
      "t": 126051.00994791691,
      "d": 469.95994791666453,
      "v": 104
    },
    {
      "midi": 70,
      "hit": false,
      "t": 126278.7224999999,
      "d": 109.01132812499418,
      "v": 109
    },
    {
      "midi": 74,
      "hit": false,
      "t": 126511.2799999999,
      "d": 164.72822916666337,
      "v": 108
    },
    {
      "midi": 77,
      "hit": false,
      "t": 126511.28000000036,
      "d": 121.12369791667152,
      "v": 111
    },
    {
      "midi": 65,
      "hit": false,
      "t": 126511.28000000036,
      "d": 125.96864583334536,
      "v": 119
    },
    {
      "midi": 34,
      "hit": false,
      "t": 126520.96989583358,
      "d": 234.97997395833954,
      "v": 101
    },
    {
      "midi": 62,
      "hit": false,
      "t": 126528.23731770847,
      "d": 1862.882473958336,
      "v": 94
    },
    {
      "midi": 65,
      "hit": false,
      "t": 126535.50473958347,
      "d": 1855.6150520833326,
      "v": 100
    },
    {
      "midi": 70,
      "hit": false,
      "t": 126535.50473958347,
      "d": 1867.7274218749953,
      "v": 100
    },
    {
      "midi": 58,
      "hit": false,
      "t": 126627.55875000036,
      "d": 128.391119791675,
      "v": 118
    },
    {
      "midi": 70,
      "hit": false,
      "t": 126627.55875000036,
      "d": 128.391119791675,
      "v": 110
    },
    {
      "midi": 74,
      "hit": false,
      "t": 126743.83749999989,
      "d": 116.27874999999767,
      "v": 113
    },
    {
      "midi": 65,
      "hit": false,
      "t": 126860.11625000037,
      "d": 128.39111979166046,
      "v": 112
    },
    {
      "midi": 77,
      "hit": false,
      "t": 126860.11625000037,
      "d": 130.8135937499901,
      "v": 119
    },
    {
      "midi": 74,
      "hit": false,
      "t": 126976.39499999989,
      "d": 118.70122395832732,
      "v": 114
    },
    {
      "midi": 70,
      "hit": false,
      "t": 127208.95249999988,
      "d": 111.43380208333838,
      "v": 114
    },
    {
      "midi": 29,
      "hit": false,
      "t": 127216.21992187525,
      "d": 244.66986979165813,
      "v": 104
    },
    {
      "midi": 72,
      "hit": false,
      "t": 127441.5099999999,
      "d": 118.70122395832732,
      "v": 111
    },
    {
      "midi": 34,
      "hit": false,
      "t": 127448.77742187525,
      "d": 239.82492187499884,
      "v": 108
    },
    {
      "midi": 74,
      "hit": false,
      "t": 127674.06749999989,
      "d": 142.92596354166744,
      "v": 112
    },
    {
      "midi": 34,
      "hit": false,
      "t": 127916.31489583358,
      "d": 469.95994791666453,
      "v": 109
    },
    {
      "midi": 72,
      "hit": false,
      "t": 128139.1824999999,
      "d": 157.46080729165988,
      "v": 110
    },
    {
      "midi": 77,
      "hit": false,
      "t": 128371.74000000035,
      "d": 121.12369791667152,
      "v": 112
    },
    {
      "midi": 65,
      "hit": false,
      "t": 128371.74000000035,
      "d": 125.96864583334536,
      "v": 118
    },
    {
      "midi": 29,
      "hit": false,
      "t": 128386.27484375025,
      "d": 237.4024479166692,
      "v": 105
    },
    {
      "midi": 65,
      "hit": false,
      "t": 128391.1197916668,
      "d": 1860.4600000000064,
      "v": 91
    },
    {
      "midi": 60,
      "hit": false,
      "t": 128393.54226562513,
      "d": 1862.8824739583506,
      "v": 104
    },
    {
      "midi": 69,
      "hit": false,
      "t": 128393.54226562513,
      "d": 1867.7274218750244,
      "v": 101
    },
    {
      "midi": 60,
      "hit": false,
      "t": 128488.01875000035,
      "d": 128.391119791675,
      "v": 115
    },
    {
      "midi": 72,
      "hit": false,
      "t": 128488.01875000035,
      "d": 128.391119791675,
      "v": 118
    },
    {
      "midi": 65,
      "hit": false,
      "t": 128720.57625000036,
      "d": 128.39111979166046,
      "v": 111
    },
    {
      "midi": 77,
      "hit": false,
      "t": 128720.57625000036,
      "d": 130.8135937499901,
      "v": 108
    },
    {
      "midi": 41,
      "hit": false,
      "t": 129074.25744791691,
      "d": 477.2273697916826,
      "v": 102
    },
    {
      "midi": 29,
      "hit": false,
      "t": 129309.23742187525,
      "d": 7.2674218750034925,
      "v": 103
    },
    {
      "midi": 75,
      "hit": false,
      "t": 129767.08499999989,
      "d": 96.8989583333314,
      "v": 112
    },
    {
      "midi": 29,
      "hit": false,
      "t": 129776.7748958336,
      "d": 469.9599479166791,
      "v": 107
    },
    {
      "midi": 75,
      "hit": false,
      "t": 129999.64249999989,
      "d": 118.70122395832732,
      "v": 113
    },
    {
      "midi": 74,
      "hit": false,
      "t": 130232.19999999988,
      "d": 159.88328125000407,
      "v": 110
    },
    {
      "midi": 77,
      "hit": false,
      "t": 130232.20000000035,
      "d": 121.12369791667152,
      "v": 109
    },
    {
      "midi": 65,
      "hit": false,
      "t": 130232.20000000035,
      "d": 125.96864583334536,
      "v": 118
    },
    {
      "midi": 34,
      "hit": false,
      "t": 130241.8898958336,
      "d": 234.97997395833954,
      "v": 102
    },
    {
      "midi": 62,
      "hit": false,
      "t": 130246.73484375014,
      "d": 1865.3049479167094,
      "v": 101
    },
    {
      "midi": 65,
      "hit": false,
      "t": 130251.57979166681,
      "d": 1862.8824739583797,
      "v": 101
    },
    {
      "midi": 70,
      "hit": false,
      "t": 130256.42473958348,
      "d": 1853.1925781250175,
      "v": 96
    },
    {
      "midi": 58,
      "hit": false,
      "t": 130348.47875000034,
      "d": 128.391119791675,
      "v": 109
    },
    {
      "midi": 70,
      "hit": false,
      "t": 130348.47875000034,
      "d": 128.391119791675,
      "v": 107
    },
    {
      "midi": 74,
      "hit": false,
      "t": 130581.03624999989,
      "d": 145.3484374999971,
      "v": 111
    },
    {
      "midi": 65,
      "hit": false,
      "t": 130581.03625000035,
      "d": 128.39111979166046,
      "v": 117
    },
    {
      "midi": 77,
      "hit": false,
      "t": 130581.03625000035,
      "d": 130.8135937499901,
      "v": 118
    },
    {
      "midi": 72,
      "hit": false,
      "t": 130929.87249999988,
      "d": 92.0540104166721,
      "v": 112
    },
    {
      "midi": 29,
      "hit": false,
      "t": 130934.71744791695,
      "d": 242.24739583334303,
      "v": 102
    },
    {
      "midi": 70,
      "hit": false,
      "t": 131162.42999999988,
      "d": 142.92596354166744,
      "v": 111
    },
    {
      "midi": 34,
      "hit": false,
      "t": 131164.85247395863,
      "d": 242.24739583334303,
      "v": 101
    },
    {
      "midi": 69,
      "hit": false,
      "t": 131627.54499999987,
      "d": 162.30575520833372,
      "v": 113
    },
    {
      "midi": 34,
      "hit": false,
      "t": 131637.23489583365,
      "d": 469.9599479166791,
      "v": 103
    },
    {
      "midi": 67,
      "hit": false,
      "t": 131860.10249999986,
      "d": 486.91726562500116,
      "v": 112
    },
    {
      "midi": 79,
      "hit": false,
      "t": 132092.66000000035,
      "d": 121.12369791665697,
      "v": 109
    },
    {
      "midi": 67,
      "hit": false,
      "t": 132092.66000000035,
      "d": 125.96864583331626,
      "v": 117
    },
    {
      "midi": 63,
      "hit": false,
      "t": 132107.19484375016,
      "d": 1862.8824739583652,
      "v": 95
    },
    {
      "midi": 39,
      "hit": false,
      "t": 132107.19484375033,
      "d": 237.40244791665464,
      "v": 104
    },
    {
      "midi": 67,
      "hit": false,
      "t": 132109.6173177085,
      "d": 935.0749479166989,
      "v": 95
    },
    {
      "midi": 70,
      "hit": false,
      "t": 132109.6173177085,
      "d": 1860.460000000021,
      "v": 98
    },
    {
      "midi": 58,
      "hit": false,
      "t": 132208.93875000035,
      "d": 128.39111979166046,
      "v": 115
    },
    {
      "midi": 70,
      "hit": false,
      "t": 132208.93875000035,
      "d": 128.39111979166046,
      "v": 107
    },
    {
      "midi": 70,
      "hit": false,
      "t": 132325.21749999985,
      "d": 208.33276041666977,
      "v": 111
    },
    {
      "midi": 67,
      "hit": false,
      "t": 132441.49625000035,
      "d": 128.39111979166046,
      "v": 112
    },
    {
      "midi": 79,
      "hit": false,
      "t": 132441.49625000035,
      "d": 130.81359375000466,
      "v": 110
    },
    {
      "midi": 70,
      "hit": false,
      "t": 132790.33249999984,
      "d": 142.92596354166744,
      "v": 115
    },
    {
      "midi": 34,
      "hit": false,
      "t": 132795.177447917,
      "d": 242.24739583334303,
      "v": 106
    },
    {
      "midi": 39,
      "hit": false,
      "t": 133030.15742187534,
      "d": 242.24739583334303,
      "v": 111
    },
    {
      "midi": 66,
      "hit": false,
      "t": 133035.00236979185,
      "d": 942.3423697916733,
      "v": 104
    },
    {
      "midi": 75,
      "hit": false,
      "t": 133255.44749999983,
      "d": 145.34843750001164,
      "v": 115
    },
    {
      "midi": 39,
      "hit": false,
      "t": 133502.53984375036,
      "d": 467.5374739583349,
      "v": 108
    },
    {
      "midi": 70,
      "hit": false,
      "t": 133720.56249999985,
      "d": 106.58885416667908,
      "v": 111
    },
    {
      "midi": 74,
      "hit": false,
      "t": 133953.11999999988,
      "d": 109.01132812499418,
      "v": 116
    },
    {
      "midi": 77,
      "hit": false,
      "t": 133953.12000000034,
      "d": 121.12369791665697,
      "v": 118
    },
    {
      "midi": 65,
      "hit": false,
      "t": 133953.12000000034,
      "d": 125.96864583331626,
      "v": 108
    },
    {
      "midi": 62,
      "hit": false,
      "t": 133970.07731770852,
      "d": 935.0749479166698,
      "v": 102
    },
    {
      "midi": 70,
      "hit": false,
      "t": 133970.07731770852,
      "d": 937.497421875014,
      "v": 97
    },
    {
      "midi": 34,
      "hit": false,
      "t": 133970.0773177087,
      "d": 234.97997395833954,
      "v": 107
    },
    {
      "midi": 65,
      "hit": false,
      "t": 133977.34473958352,
      "d": 927.8075260416663,
      "v": 103
    },
    {
      "midi": 58,
      "hit": false,
      "t": 134069.39875000034,
      "d": 128.39111979166046,
      "v": 110
    },
    {
      "midi": 70,
      "hit": false,
      "t": 134069.39875000034,
      "d": 128.39111979166046,
      "v": 110
    },
    {
      "midi": 74,
      "hit": false,
      "t": 134185.67749999987,
      "d": 104.16638020833489,
      "v": 112
    },
    {
      "midi": 65,
      "hit": false,
      "t": 134301.95625000034,
      "d": 128.39111979166046,
      "v": 113
    },
    {
      "midi": 77,
      "hit": false,
      "t": 134301.95625000034,
      "d": 130.81359375000466,
      "v": 112
    },
    {
      "midi": 74,
      "hit": false,
      "t": 134418.23499999987,
      "d": 125.96864583334536,
      "v": 111
    },
    {
      "midi": 70,
      "hit": false,
      "t": 134650.7924999999,
      "d": 113.85627604165347,
      "v": 110
    },
    {
      "midi": 41,
      "hit": false,
      "t": 134653.2149739587,
      "d": 474.8048958333384,
      "v": 111
    },
    {
      "midi": 72,
      "hit": false,
      "t": 134883.3499999999,
      "d": 147.77091145832674,
      "v": 113
    },
    {
      "midi": 29,
      "hit": false,
      "t": 134885.7724739587,
      "d": 9.689895833347691,
      "v": 103
    },
    {
      "midi": 60,
      "hit": false,
      "t": 134897.8848437502,
      "d": 932.6524739583547,
      "v": 91
    },
    {
      "midi": 69,
      "hit": false,
      "t": 134902.72979166685,
      "d": 937.4974218750431,
      "v": 94
    },
    {
      "midi": 65,
      "hit": false,
      "t": 134905.1522656252,
      "d": 925.3850520833512,
      "v": 104
    },
    {
      "midi": 77,
      "hit": false,
      "t": 135232.18624999988,
      "d": 174.4181249999965,
      "v": 113
    },
    {
      "midi": 29,
      "hit": false,
      "t": 135360.57736979204,
      "d": 469.95994791665,
      "v": 104
    },
    {
      "midi": 70,
      "hit": false,
      "t": 135581.02249999988,
      "d": 159.88328124998952,
      "v": 115
    },
    {
      "midi": 77,
      "hit": false,
      "t": 135813.58000000034,
      "d": 121.12369791665697,
      "v": 118
    },
    {
      "midi": 65,
      "hit": false,
      "t": 135813.58000000034,
      "d": 125.96864583331626,
      "v": 112
    },
    {
      "midi": 34,
      "hit": false,
      "t": 135825.69236979203,
      "d": 237.40244791665464,
      "v": 111
    },
    {
      "midi": 62,
      "hit": false,
      "t": 135828.1148437502,
      "d": 1860.460000000021,
      "v": 92
    },
    {
      "midi": 70,
      "hit": false,
      "t": 135828.1148437502,
      "d": 1865.3049479166802,
      "v": 93
    },
    {
      "midi": 65,
      "hit": false,
      "t": 135830.53731770854,
      "d": 1862.882473958336,
      "v": 94
    },
    {
      "midi": 65,
      "hit": false,
      "t": 136162.41625000033,
      "d": 128.39111979166046,
      "v": 112
    },
    {
      "midi": 77,
      "hit": false,
      "t": 136162.41625000033,
      "d": 130.81359375000466,
      "v": 116
    },
    {
      "midi": 29,
      "hit": false,
      "t": 136513.6749739587,
      "d": 242.24739583334303,
      "v": 108
    },
    {
      "midi": 34,
      "hit": false,
      "t": 136753.4998958337,
      "d": 242.24739583334303,
      "v": 109
    },
    {
      "midi": 74,
      "hit": false,
      "t": 137208.92499999987,
      "d": 123.54617187500116,
      "v": 110
    },
    {
      "midi": 34,
      "hit": false,
      "t": 137213.76994791703,
      "d": 469.9599479166791,
      "v": 103
    },
    {
      "midi": 74,
      "hit": false,
      "t": 137441.48249999987,
      "d": 101.74390624999069,
      "v": 112
    },
    {
      "midi": 74,
      "hit": false,
      "t": 137674.03999999986,
      "d": 152.61585937498603,
      "v": 113
    },
    {
      "midi": 77,
      "hit": false,
      "t": 137674.04000000033,
      "d": 118.70122395834187,
      "v": 109
    },
    {
      "midi": 65,
      "hit": false,
      "t": 137674.04000000033,
      "d": 125.96864583334536,
      "v": 110
    },
    {
      "midi": 34,
      "hit": false,
      "t": 137690.9973177087,
      "d": 234.97997395833954,
      "v": 102
    },
    {
      "midi": 62,
      "hit": false,
      "t": 137693.41979166688,
      "d": 1865.3049479167094,
      "v": 91
    },
    {
      "midi": 65,
      "hit": false,
      "t": 137695.84226562522,
      "d": 1865.3049479167094,
      "v": 98
    },
    {
      "midi": 70,
      "hit": false,
      "t": 137698.26473958357,
      "d": 1858.0375260416768,
      "v": 104
    },
    {
      "midi": 58,
      "hit": false,
      "t": 137790.31875000033,
      "d": 128.39111979168956,
      "v": 108
    },
    {
      "midi": 70,
      "hit": false,
      "t": 137790.31875000033,
      "d": 128.39111979168956,
      "v": 118
    },
    {
      "midi": 74,
      "hit": false,
      "t": 138022.87624999986,
      "d": 125.96864583334536,
      "v": 114
    },
    {
      "midi": 65,
      "hit": false,
      "t": 138022.87625000035,
      "d": 128.39111979166046,
      "v": 117
    },
    {
      "midi": 77,
      "hit": false,
      "t": 138022.87625000035,
      "d": 130.81359375000466,
      "v": 115
    },
    {
      "midi": 72,
      "hit": false,
      "t": 138371.71249999988,
      "d": 123.54617187500116,
      "v": 112
    },
    {
      "midi": 29,
      "hit": false,
      "t": 138376.55744791706,
      "d": 242.24739583334303,
      "v": 106
    },
    {
      "midi": 70,
      "hit": false,
      "t": 138604.26999999987,
      "d": 162.30575520833372,
      "v": 116
    },
    {
      "midi": 34,
      "hit": false,
      "t": 138611.5374218754,
      "d": 242.24739583334303,
      "v": 111
    },
    {
      "midi": 69,
      "hit": false,
      "t": 139069.38499999986,
      "d": 125.96864583334536,
      "v": 113
    },
    {
      "midi": 34,
      "hit": false,
      "t": 139081.49736979208,
      "d": 469.9599479166791,
      "v": 109
    },
    {
      "midi": 67,
      "hit": false,
      "t": 139301.9424999999,
      "d": 324.61151041666744,
      "v": 109
    },
    {
      "midi": 79,
      "hit": false,
      "t": 139534.50000000035,
      "d": 123.54617187500116,
      "v": 110
    },
    {
      "midi": 67,
      "hit": false,
      "t": 139534.50000000035,
      "d": 125.96864583334536,
      "v": 111
    },
    {
      "midi": 39,
      "hit": false,
      "t": 139544.18989583376,
      "d": 237.40244791668374,
      "v": 103
    },
    {
      "midi": 67,
      "hit": false,
      "t": 139549.03484375024,
      "d": 1867.7274218750244,
      "v": 93
    },
    {
      "midi": 63,
      "hit": false,
      "t": 139551.45731770858,
      "d": 1865.3049479166802,
      "v": 94
    },
    {
      "midi": 70,
      "hit": false,
      "t": 139558.7247395836,
      "d": 1853.1925781250175,
      "v": 95
    },
    {
      "midi": 58,
      "hit": false,
      "t": 139650.77875000035,
      "d": 128.39111979168956,
      "v": 115
    },
    {
      "midi": 70,
      "hit": false,
      "t": 139650.77875000035,
      "d": 128.39111979168956,
      "v": 114
    },
    {
      "midi": 70,
      "hit": false,
      "t": 139767.05749999988,
      "d": 171.9956510416523,
      "v": 115
    },
    {
      "midi": 67,
      "hit": false,
      "t": 139883.33625000037,
      "d": 130.81359375000466,
      "v": 110
    },
    {
      "midi": 79,
      "hit": false,
      "t": 139883.33625000037,
      "d": 130.81359375000466,
      "v": 113
    },
    {
      "midi": 70,
      "hit": false,
      "t": 140232.17249999987,
      "d": 152.61585937498603,
      "v": 108
    },
    {
      "midi": 34,
      "hit": false,
      "t": 140234.59497395877,
      "d": 242.24739583334303,
      "v": 106
    },
    {
      "midi": 39,
      "hit": false,
      "t": 140469.5749479171,
      "d": 242.24739583334303,
      "v": 107
    },
    {
      "midi": 70,
      "hit": false,
      "t": 140697.28749999986,
      "d": 111.43380208333838,
      "v": 110
    },
    {
      "midi": 75,
      "hit": false,
      "t": 140929.84499999986,
      "d": 123.54617187500116,
      "v": 108
    },
    {
      "midi": 39,
      "hit": false,
      "t": 140934.68994791713,
      "d": 469.9599479166791,
      "v": 111
    },
    {
      "midi": 70,
      "hit": false,
      "t": 141162.40249999985,
      "d": 111.43380208333838,
      "v": 114
    },
    {
      "midi": 74,
      "hit": false,
      "t": 141394.95999999985,
      "d": 181.685546875,
      "v": 109
    },
    {
      "midi": 77,
      "hit": false,
      "t": 141394.96000000037,
      "d": 121.12369791665697,
      "v": 111
    },
    {
      "midi": 65,
      "hit": false,
      "t": 141394.96000000037,
      "d": 125.96864583331626,
      "v": 114
    },
    {
      "midi": 34,
      "hit": false,
      "t": 141407.07236979215,
      "d": 237.40244791665464,
      "v": 108
    },
    {
      "midi": 65,
      "hit": false,
      "t": 141411.9173177086,
      "d": 1858.0375260416477,
      "v": 99
    },
    {
      "midi": 70,
      "hit": false,
      "t": 141411.9173177086,
      "d": 1867.7274218750244,
      "v": 92
    },
    {
      "midi": 62,
      "hit": false,
      "t": 141416.76226562526,
      "d": 1862.8824739583652,
      "v": 101
    },
    {
      "midi": 58,
      "hit": false,
      "t": 141511.23875000037,
      "d": 128.39111979166046,
      "v": 115
    },
    {
      "midi": 70,
      "hit": false,
      "t": 141511.23875000037,
      "d": 128.39111979166046,
      "v": 107
    },
    {
      "midi": 74,
      "hit": false,
      "t": 141743.79624999984,
      "d": 140.50348958332324,
      "v": 114
    },
    {
      "midi": 65,
      "hit": false,
      "t": 141743.79625000036,
      "d": 128.39111979166046,
      "v": 108
    },
    {
      "midi": 77,
      "hit": false,
      "t": 141743.79625000036,
      "d": 130.81359375000466,
      "v": 110
    },
    {
      "midi": 70,
      "hit": false,
      "t": 142092.63249999983,
      "d": 116.27874999999767,
      "v": 113
    },
    {
      "midi": 29,
      "hit": false,
      "t": 142095.05497395882,
      "d": 242.24739583331393,
      "v": 105
    },
    {
      "midi": 72,
      "hit": false,
      "t": 142325.18999999983,
      "d": 159.88328124998952,
      "v": 116
    },
    {
      "midi": 34,
      "hit": false,
      "t": 142332.45742187547,
      "d": 242.24739583331393,
      "v": 101
    },
    {
      "midi": 74,
      "hit": false,
      "t": 142790.30499999982,
      "d": 164.72822916667792,
      "v": 111
    },
    {
      "midi": 34,
      "hit": false,
      "t": 142795.14994791712,
      "d": 469.9599479166791,
      "v": 104
    },
    {
      "midi": 72,
      "hit": false,
      "t": 143022.86249999984,
      "d": 167.15070312499302,
      "v": 112
    },
    {
      "midi": 77,
      "hit": false,
      "t": 143255.42000000036,
      "d": 121.12369791665697,
      "v": 115
    },
    {
      "midi": 65,
      "hit": false,
      "t": 143255.42000000036,
      "d": 125.96864583331626,
      "v": 116
    },
    {
      "midi": 29,
      "hit": false,
      "t": 143269.95484375046,
      "d": 237.40244791665464,
      "v": 108
    },
    {
      "midi": 60,
      "hit": false,
      "t": 143272.3773177086,
      "d": 1862.8824739583943,
      "v": 98
    },
    {
      "midi": 69,
      "hit": false,
      "t": 143274.79979166694,
      "d": 1867.7274218750536,
      "v": 91
    },
    {
      "midi": 65,
      "hit": false,
      "t": 143277.22226562529,
      "d": 1855.6150520833617,
      "v": 104
    },
    {
      "midi": 60,
      "hit": false,
      "t": 143371.69875000036,
      "d": 128.39111979166046,
      "v": 110
    },
    {
      "midi": 72,
      "hit": false,
      "t": 143371.69875000036,
      "d": 128.39111979166046,
      "v": 116
    },
    {
      "midi": 65,
      "hit": false,
      "t": 143604.25625000036,
      "d": 128.39111979166046,
      "v": 109
    },
    {
      "midi": 77,
      "hit": false,
      "t": 143604.25625000036,
      "d": 130.81359375000466,
      "v": 118
    },
    {
      "midi": 41,
      "hit": false,
      "t": 143957.93744791712,
      "d": 479.6498437499977,
      "v": 106
    },
    {
      "midi": 29,
      "hit": false,
      "t": 144192.91742187546,
      "d": 7.2674218750034925,
      "v": 102
    },
    {
      "midi": 75,
      "hit": false,
      "t": 144650.76499999984,
      "d": 121.12369791665697,
      "v": 111
    },
    {
      "midi": 29,
      "hit": false,
      "t": 144662.8773697921,
      "d": 469.9599479166791,
      "v": 109
    },
    {
      "midi": 75,
      "hit": false,
      "t": 144883.32249999983,
      "d": 104.16638020833489,
      "v": 115
    },
    {
      "midi": 74,
      "hit": false,
      "t": 145115.87999999983,
      "d": 179.2630729166558,
      "v": 108
    },
    {
      "midi": 77,
      "hit": false,
      "t": 145115.88000000035,
      "d": 121.12369791665697,
      "v": 118
    },
    {
      "midi": 65,
      "hit": false,
      "t": 145115.88000000035,
      "d": 125.96864583331626,
      "v": 113
    },
    {
      "midi": 62,
      "hit": false,
      "t": 145130.4148437503,
      "d": 1862.8824739583652,
      "v": 103
    },
    {
      "midi": 34,
      "hit": false,
      "t": 145130.41484375045,
      "d": 234.97997395833954,
      "v": 110
    },
    {
      "midi": 65,
      "hit": false,
      "t": 145132.83731770865,
      "d": 1862.8824739583652,
      "v": 103
    },
    {
      "midi": 70,
      "hit": false,
      "t": 145140.10473958365,
      "d": 1855.6150520833617,
      "v": 93
    },
    {
      "midi": 58,
      "hit": false,
      "t": 145232.15875000035,
      "d": 128.39111979166046,
      "v": 110
    },
    {
      "midi": 70,
      "hit": false,
      "t": 145232.15875000035,
      "d": 128.39111979166046,
      "v": 112
    },
    {
      "midi": 74,
      "hit": false,
      "t": 145464.71624999982,
      "d": 123.54617187500116,
      "v": 113
    },
    {
      "midi": 65,
      "hit": false,
      "t": 145464.71625000035,
      "d": 128.39111979166046,
      "v": 116
    },
    {
      "midi": 77,
      "hit": false,
      "t": 145464.71625000035,
      "d": 130.81359375000466,
      "v": 112
    },
    {
      "midi": 72,
      "hit": false,
      "t": 145813.55249999982,
      "d": 99.32143229167559,
      "v": 115
    },
    {
      "midi": 29,
      "hit": false,
      "t": 145818.39744791712,
      "d": 242.24739583334303,
      "v": 106
    },
    {
      "midi": 70,
      "hit": false,
      "t": 146046.1099999998,
      "d": 167.15070312499302,
      "v": 109
    },
    {
      "midi": 34,
      "hit": false,
      "t": 146050.9549479171,
      "d": 242.24739583334303,
      "v": 103
    },
    {
      "midi": 69,
      "hit": false,
      "t": 146511.2249999998,
      "d": 130.81359375000466,
      "v": 109
    },
    {
      "midi": 34,
      "hit": false,
      "t": 146516.06994791713,
      "d": 469.9599479166791,
      "v": 108
    },
    {
      "midi": 67,
      "hit": false,
      "t": 146743.7824999998,
      "d": 358.5261458333407,
      "v": 114
    },
    {
      "midi": 79,
      "hit": false,
      "t": 146976.34000000035,
      "d": 121.12369791665697,
      "v": 114
    },
    {
      "midi": 67,
      "hit": false,
      "t": 146976.34000000035,
      "d": 125.96864583331626,
      "v": 115
    },
    {
      "midi": 39,
      "hit": false,
      "t": 146988.45236979215,
      "d": 237.40244791665464,
      "v": 103
    },
    {
      "midi": 70,
      "hit": false,
      "t": 146995.719791667,
      "d": 1860.4599999999919,
      "v": 96
    },
    {
      "midi": 63,
      "hit": false,
      "t": 146995.719791667,
      "d": 1862.882473958336,
      "v": 104
    },
    {
      "midi": 67,
      "hit": false,
      "t": 146998.14226562536,
      "d": 932.6524739583256,
      "v": 102
    },
    {
      "midi": 58,
      "hit": false,
      "t": 147092.61875000034,
      "d": 128.39111979166046,
      "v": 112
    },
    {
      "midi": 70,
      "hit": false,
      "t": 147092.61875000034,
      "d": 128.39111979166046,
      "v": 112
    },
    {
      "midi": 70,
      "hit": false,
      "t": 147208.89749999982,
      "d": 147.77091145832674,
      "v": 112
    },
    {
      "midi": 67,
      "hit": false,
      "t": 147325.17625000034,
      "d": 128.39111979166046,
      "v": 114
    },
    {
      "midi": 79,
      "hit": false,
      "t": 147325.17625000034,
      "d": 130.81359375000466,
      "v": 111
    },
    {
      "midi": 75,
      "hit": false,
      "t": 147674.0124999998,
      "d": 184.1080208333442,
      "v": 112
    },
    {
      "midi": 34,
      "hit": false,
      "t": 147681.27992187548,
      "d": 239.82492187499884,
      "v": 107
    },
    {
      "midi": 39,
      "hit": false,
      "t": 147908.99247395882,
      "d": 242.24739583334303,
      "v": 102
    },
    {
      "midi": 66,
      "hit": false,
      "t": 147923.52731770868,
      "d": 942.3423697916733,
      "v": 101
    },
    {
      "midi": 70,
      "hit": false,
      "t": 148139.12749999983,
      "d": 96.8989583333314,
      "v": 110
    },
    {
      "midi": 75,
      "hit": false,
      "t": 148371.68499999982,
      "d": 138.08101562500815,
      "v": 116
    },
    {
      "midi": 39,
      "hit": false,
      "t": 148376.52994791715,
      "d": 469.9599479166791,
      "v": 103
    },
    {
      "midi": 70,
      "hit": false,
      "t": 148604.24249999982,
      "d": 89.6315364583279,
      "v": 113
    },
    {
      "midi": 74,
      "hit": false,
      "t": 148836.7999999998,
      "d": 133.23606770831975,
      "v": 111
    },
    {
      "midi": 77,
      "hit": false,
      "t": 148836.80000000034,
      "d": 121.12369791665697,
      "v": 111
    },
    {
      "midi": 65,
      "hit": false,
      "t": 148836.80000000034,
      "d": 125.96864583331626,
      "v": 115
    },
    {
      "midi": 62,
      "hit": false,
      "t": 148851.33484375034,
      "d": 935.0749479166698,
      "v": 91
    },
    {
      "midi": 34,
      "hit": false,
      "t": 148851.3348437505,
      "d": 234.97997395833954,
      "v": 105
    },
    {
      "midi": 65,
      "hit": false,
      "t": 148858.60226562535,
      "d": 927.8075260416663,
      "v": 91
    },
    {
      "midi": 70,
      "hit": false,
      "t": 148858.60226562535,
      "d": 937.497421875014,
      "v": 99
    },
    {
      "midi": 58,
      "hit": false,
      "t": 148953.07875000034,
      "d": 128.39111979166046,
      "v": 117
    },
    {
      "midi": 70,
      "hit": false,
      "t": 148953.07875000034,
      "d": 128.39111979166046,
      "v": 118
    },
    {
      "midi": 74,
      "hit": false,
      "t": 149069.3574999998,
      "d": 106.58885416667908,
      "v": 110
    },
    {
      "midi": 65,
      "hit": false,
      "t": 149185.63625000033,
      "d": 128.39111979166046,
      "v": 117
    },
    {
      "midi": 77,
      "hit": false,
      "t": 149185.63625000033,
      "d": 130.81359375000466,
      "v": 112
    },
    {
      "midi": 74,
      "hit": false,
      "t": 149301.91499999983,
      "d": 130.81359375000466,
      "v": 115
    },
    {
      "midi": 70,
      "hit": false,
      "t": 149534.47249999983,
      "d": 109.01132812499418,
      "v": 116
    },
    {
      "midi": 41,
      "hit": false,
      "t": 149544.16239583382,
      "d": 474.8048958333384,
      "v": 106
    },
    {
      "midi": 72,
      "hit": false,
      "t": 149767.02999999982,
      "d": 198.64286458332208,
      "v": 112
    },
    {
      "midi": 29,
      "hit": false,
      "t": 149776.7198958338,
      "d": 9.689895833347691,
      "v": 104
    },
    {
      "midi": 60,
      "hit": false,
      "t": 149779.142369792,
      "d": 935.0749479166989,
      "v": 95
    },
    {
      "midi": 65,
      "hit": false,
      "t": 149786.409791667,
      "d": 925.3850520833512,
      "v": 102
    },
    {
      "midi": 69,
      "hit": false,
      "t": 149788.83226562536,
      "d": 937.497421875014,
      "v": 103
    },
    {
      "midi": 72,
      "hit": false,
      "t": 150232.14499999981,
      "d": 230.13502604168025,
      "v": 113
    },
    {
      "midi": 29,
      "hit": false,
      "t": 150236.98994791714,
      "d": 469.9599479166791,
      "v": 109
    },
    {
      "midi": 70,
      "hit": false,
      "t": 150464.70249999984,
      "d": 157.46080729167443,
      "v": 113
    },
    {
      "midi": 77,
      "hit": false,
      "t": 150697.26000000033,
      "d": 121.12369791665697,
      "v": 109
    },
    {
      "midi": 65,
      "hit": false,
      "t": 150697.26000000033,
      "d": 125.96864583331626,
      "v": 113
    },
    {
      "midi": 65,
      "hit": false,
      "t": 150711.79484375037,
      "d": 1865.3049479166802,
      "v": 92
    },
    {
      "midi": 34,
      "hit": false,
      "t": 150711.79484375048,
      "d": 237.40244791665464,
      "v": 106
    },
    {
      "midi": 62,
      "hit": false,
      "t": 150719.06226562537,
      "d": 1860.460000000021,
      "v": 100
    },
    {
      "midi": 70,
      "hit": false,
      "t": 150719.06226562537,
      "d": 1867.7274218750244,
      "v": 91
    },
    {
      "midi": 65,
      "hit": false,
      "t": 151046.09625000032,
      "d": 128.39111979166046,
      "v": 117
    },
    {
      "midi": 77,
      "hit": false,
      "t": 151046.09625000032,
      "d": 130.81359375000466,
      "v": 109
    },
    {
      "midi": 29,
      "hit": false,
      "t": 151399.77744791715,
      "d": 242.24739583331393,
      "v": 106
    },
    {
      "midi": 34,
      "hit": false,
      "t": 151637.1798958338,
      "d": 239.82492187499884,
      "v": 105
    },
    {
      "midi": 77,
      "hit": false,
      "t": 152092.60499999984,
      "d": 113.85627604165347,
      "v": 113
    },
    {
      "midi": 65,
      "hit": false,
      "t": 152102.29489583365,
      "d": 123.54617187500116,
      "v": 91
    },
    {
      "midi": 34,
      "hit": false,
      "t": 152102.2948958338,
      "d": 469.9599479166791,
      "v": 103
    },
    {
      "midi": 65,
      "hit": false,
      "t": 152104.7173697916,
      "d": 128.39111979166046,
      "v": 93
    },
    {
      "midi": 70,
      "hit": false,
      "t": 152104.717369792,
      "d": 123.54617187500116,
      "v": 100
    },
    {
      "midi": 74,
      "hit": false,
      "t": 152104.717369792,
      "d": 125.96864583334536,
      "v": 101
    },
    {
      "midi": 77,
      "hit": false,
      "t": 152325.16249999983,
      "d": 101.74390624999069,
      "v": 111
    },
    {
      "midi": 65,
      "hit": false,
      "t": 152330.007447917,
      "d": 128.39111979168956,
      "v": 99
    },
    {
      "midi": 74,
      "hit": false,
      "t": 152330.007447917,
      "d": 130.81359375003376,
      "v": 96
    },
    {
      "midi": 70,
      "hit": false,
      "t": 152332.42992187536,
      "d": 130.81359375003376,
      "v": 94
    },
    {
      "midi": 65,
      "hit": false,
      "t": 152339.69734374993,
      "d": 128.39111979166046,
      "v": 101
    },
    {
      "midi": 77,
      "hit": false,
      "t": 152557.71999999983,
      "d": 155.03833333333023,
      "v": 110
    },
    {
      "midi": 77,
      "hit": false,
      "t": 152557.72000000032,
      "d": 118.70122395834187,
      "v": 113
    },
    {
      "midi": 65,
      "hit": false,
      "t": 152557.72000000032,
      "d": 125.96864583334536,
      "v": 112
    },
    {
      "midi": 70,
      "hit": false,
      "t": 152569.83236979207,
      "d": 121.12369791665697,
      "v": 93
    },
    {
      "midi": 34,
      "hit": false,
      "t": 152572.25484375047,
      "d": 234.97997395833954,
      "v": 101
    },
    {
      "midi": 65,
      "hit": false,
      "t": 152574.6773177086,
      "d": 237.40244791665464,
      "v": 100
    },
    {
      "midi": 65,
      "hit": false,
      "t": 152577.09979166658,
      "d": 116.27874999999767,
      "v": 99
    },
    {
      "midi": 65,
      "hit": false,
      "t": 152577.09979166707,
      "d": 118.70122395831277,
      "v": 90
    },
    {
      "midi": 74,
      "hit": false,
      "t": 152577.09979166707,
      "d": 121.12369791665697,
      "v": 94
    },
    {
      "midi": 62,
      "hit": false,
      "t": 152579.5222656254,
      "d": 1862.882473958336,
      "v": 96
    },
    {
      "midi": 70,
      "hit": false,
      "t": 152586.7896875004,
      "d": 1867.7274218749953,
      "v": 103
    },
    {
      "midi": 65,
      "hit": false,
      "t": 152589.21216145874,
      "d": 1862.882473958307,
      "v": 94
    },
    {
      "midi": 70,
      "hit": false,
      "t": 152673.99875000032,
      "d": 125.96864583334536,
      "v": 115
    },
    {
      "midi": 58,
      "hit": false,
      "t": 152673.99875000032,
      "d": 128.39111979168956,
      "v": 110
    },
    {
      "midi": 65,
      "hit": false,
      "t": 152906.55625000034,
      "d": 128.39111979166046,
      "v": 115
    },
    {
      "midi": 77,
      "hit": false,
      "t": 152906.55625000034,
      "d": 130.81359375000466,
      "v": 116
    },
    {
      "midi": 65,
      "hit": false,
      "t": 153034.94736979195,
      "d": 244.66986979165813,
      "v": 103
    },
    {
      "midi": 70,
      "hit": false,
      "t": 153255.3924999998,
      "d": 96.8989583333314,
      "v": 114
    },
    {
      "midi": 29,
      "hit": false,
      "t": 153262.6599218755,
      "d": 244.66986979165813,
      "v": 103
    },
    {
      "midi": 70,
      "hit": false,
      "t": 153487.9499999998,
      "d": 142.92596354166744,
      "v": 112
    },
    {
      "midi": 77,
      "hit": false,
      "t": 153487.95000000036,
      "d": 123.54617187500116,
      "v": 114
    },
    {
      "midi": 65,
      "hit": false,
      "t": 153487.95000000036,
      "d": 128.39111979166046,
      "v": 107
    },
    {
      "midi": 65,
      "hit": false,
      "t": 153495.2174218754,
      "d": 123.54617187500116,
      "v": 103
    },
    {
      "midi": 34,
      "hit": false,
      "t": 153495.21742187548,
      "d": 242.24739583334303,
      "v": 110
    },
    {
      "midi": 65,
      "hit": false,
      "t": 153500.06236979194,
      "d": 234.97997395833954,
      "v": 91
    },
    {
      "midi": 74,
      "hit": false,
      "t": 153500.06236979205,
      "d": 128.39111979168956,
      "v": 101
    },
    {
      "midi": 70,
      "hit": false,
      "t": 153502.4848437504,
      "d": 123.54617187500116,
      "v": 96
    },
    {
      "midi": 65,
      "hit": false,
      "t": 153504.90731770825,
      "d": 121.12369791665697,
      "v": 102
    },
    {
      "midi": 70,
      "hit": false,
      "t": 153720.5074999998,
      "d": 79.94164062500931,
      "v": 113
    },
    {
      "midi": 77,
      "hit": false,
      "t": 153720.50750000036,
      "d": 125.96864583334536,
      "v": 110
    },
    {
      "midi": 65,
      "hit": false,
      "t": 153720.50750000036,
      "d": 128.39111979168956,
      "v": 109
    },
    {
      "midi": 70,
      "hit": false,
      "t": 153727.77492187542,
      "d": 125.96864583334536,
      "v": 96
    },
    {
      "midi": 65,
      "hit": false,
      "t": 153735.04234375028,
      "d": 227.71255208333605,
      "v": 91
    },
    {
      "midi": 65,
      "hit": false,
      "t": 153735.04234375042,
      "d": 123.54617187500116,
      "v": 92
    },
    {
      "midi": 74,
      "hit": false,
      "t": 153735.04234375042,
      "d": 128.39111979166046,
      "v": 102
    },
    {
      "midi": 65,
      "hit": false,
      "t": 153744.73223958325,
      "d": 118.70122395834187,
      "v": 97
    },
    {
      "midi": 79,
      "hit": false,
      "t": 153953.0649999998,
      "d": 138.08101562500815,
      "v": 115
    },
    {
      "midi": 79,
      "hit": false,
      "t": 153953.06500000038,
      "d": 123.54617187500116,
      "v": 119
    },
    {
      "midi": 67,
      "hit": false,
      "t": 153953.06500000038,
      "d": 128.39111979166046,
      "v": 114
    },
    {
      "midi": 65,
      "hit": false,
      "t": 153962.7548958336,
      "d": 230.13502604168025,
      "v": 97
    },
    {
      "midi": 67,
      "hit": false,
      "t": 153962.75489583376,
      "d": 123.54617187503027,
      "v": 95
    },
    {
      "midi": 72,
      "hit": false,
      "t": 153965.1773697921,
      "d": 125.96864583334536,
      "v": 98
    },
    {
      "midi": 75,
      "hit": false,
      "t": 153967.59984375045,
      "d": 125.96864583334536,
      "v": 100
    },
    {
      "midi": 34,
      "hit": false,
      "t": 153967.5998437505,
      "d": 467.5374739583349,
      "v": 102
    },
    {
      "midi": 67,
      "hit": false,
      "t": 153970.02231770827,
      "d": 118.70122395834187,
      "v": 100
    },
    {
      "midi": 79,
      "hit": false,
      "t": 154185.6224999998,
      "d": 159.88328124998952,
      "v": 110
    },
    {
      "midi": 79,
      "hit": false,
      "t": 154185.62250000038,
      "d": 125.96864583334536,
      "v": 117
    },
    {
      "midi": 67,
      "hit": false,
      "t": 154185.62250000038,
      "d": 128.39111979168956,
      "v": 119
    },
    {
      "midi": 72,
      "hit": false,
      "t": 154192.88992187547,
      "d": 128.39111979168956,
      "v": 94
    },
    {
      "midi": 67,
      "hit": false,
      "t": 154195.3123958338,
      "d": 128.39111979168956,
      "v": 100
    },
    {
      "midi": 75,
      "hit": false,
      "t": 154197.73486979216,
      "d": 130.81359375000466,
      "v": 99
    },
    {
      "midi": 65,
      "hit": false,
      "t": 154200.1573437503,
      "d": 242.24739583334303,
      "v": 96
    },
    {
      "midi": 67,
      "hit": false,
      "t": 154207.42476562495,
      "d": 118.70122395834187,
      "v": 102
    },
    {
      "midi": 79,
      "hit": false,
      "t": 154418.1800000004,
      "d": 121.12369791665697,
      "v": 112
    },
    {
      "midi": 67,
      "hit": false,
      "t": 154418.1800000004,
      "d": 125.96864583331626,
      "v": 118
    },
    {
      "midi": 67,
      "hit": false,
      "t": 154427.86989583384,
      "d": 121.12369791668607,
      "v": 90
    },
    {
      "midi": 72,
      "hit": false,
      "t": 154427.86989583384,
      "d": 123.54617187503027,
      "v": 100
    },
    {
      "midi": 39,
      "hit": false,
      "t": 154432.7148437505,
      "d": 237.40244791668374,
      "v": 104
    },
    {
      "midi": 75,
      "hit": false,
      "t": 154437.55979166718,
      "d": 123.54617187503027,
      "v": 100
    },
    {
      "midi": 67,
      "hit": false,
      "t": 154439.9822656253,
      "d": 230.13502604168025,
      "v": 104
    },
    {
      "midi": 63,
      "hit": false,
      "t": 154447.24968750039,
      "d": 1860.4599999999919,
      "v": 91
    },
    {
      "midi": 67,
      "hit": false,
      "t": 154449.6721614583,
      "d": 111.43380208333838,
      "v": 92
    },
    {
      "midi": 67,
      "hit": false,
      "t": 154452.09463541704,
      "d": 1860.460000000021,
      "v": 91
    },
    {
      "midi": 70,
      "hit": false,
      "t": 154454.5171093754,
      "d": 1855.6150520833326,
      "v": 95
    },
    {
      "midi": 70,
      "hit": false,
      "t": 154534.4587500004,
      "d": 123.54617187497206,
      "v": 116
    },
    {
      "midi": 58,
      "hit": false,
      "t": 154534.4587500004,
      "d": 128.39111979163135,
      "v": 117
    },
    {
      "midi": 67,
      "hit": false,
      "t": 154767.01625000036,
      "d": 128.39111979166046,
      "v": 113
    },
    {
      "midi": 79,
      "hit": false,
      "t": 154767.01625000036,
      "d": 130.81359375000466,
      "v": 107
    },
    {
      "midi": 67,
      "hit": false,
      "t": 154892.98489583365,
      "d": 244.66986979165813,
      "v": 102
    },
    {
      "midi": 70,
      "hit": false,
      "t": 155115.85249999978,
      "d": 106.58885416667908,
      "v": 115
    },
    {
      "midi": 34,
      "hit": false,
      "t": 155125.54239583385,
      "d": 242.24739583334303,
      "v": 111
    },
    {
      "midi": 70,
      "hit": false,
      "t": 155348.4099999998,
      "d": 84.7865885416686,
      "v": 115
    },
    {
      "midi": 67,
      "hit": false,
      "t": 155355.6774218753,
      "d": 234.97997395833954,
      "v": 89
    },
    {
      "midi": 39,
      "hit": false,
      "t": 155358.09989583385,
      "d": 239.82492187502794,
      "v": 107
    },
    {
      "midi": 70,
      "hit": false,
      "t": 155580.9674999998,
      "d": 130.81359375000466,
      "v": 108
    },
    {
      "midi": 67,
      "hit": false,
      "t": 155593.07986979198,
      "d": 230.13502604168025,
      "v": 89
    },
    {
      "midi": 77,
      "hit": false,
      "t": 155813.5249999998,
      "d": 128.39111979166046,
      "v": 116
    },
    {
      "midi": 79,
      "hit": false,
      "t": 155813.52500000037,
      "d": 125.96864583334536,
      "v": 107
    },
    {
      "midi": 67,
      "hit": false,
      "t": 155813.52500000037,
      "d": 130.81359375000466,
      "v": 107
    },
    {
      "midi": 72,
      "hit": false,
      "t": 155820.79242187555,
      "d": 128.39111979168956,
      "v": 90
    },
    {
      "midi": 67,
      "hit": false,
      "t": 155823.21489583366,
      "d": 232.55749999999534,
      "v": 104
    },
    {
      "midi": 39,
      "hit": false,
      "t": 155823.21489583387,
      "d": 467.5374739583349,
      "v": 106
    },
    {
      "midi": 67,
      "hit": false,
      "t": 155823.2148958339,
      "d": 125.96864583334536,
      "v": 101
    },
    {
      "midi": 75,
      "hit": false,
      "t": 155823.2148958339,
      "d": 128.39111979168956,
      "v": 93
    },
    {
      "midi": 67,
      "hit": false,
      "t": 155832.90479166663,
      "d": 121.12369791665697,
      "v": 102
    },
    {
      "midi": 77,
      "hit": false,
      "t": 156046.0824999998,
      "d": 155.03833333333023,
      "v": 108
    },
    {
      "midi": 79,
      "hit": false,
      "t": 156046.08250000037,
      "d": 125.96864583334536,
      "v": 112
    },
    {
      "midi": 67,
      "hit": false,
      "t": 156046.08250000037,
      "d": 128.39111979168956,
      "v": 111
    },
    {
      "midi": 67,
      "hit": false,
      "t": 156050.92744791726,
      "d": 128.39111979168956,
      "v": 89
    },
    {
      "midi": 72,
      "hit": false,
      "t": 156050.92744791726,
      "d": 128.39111979168956,
      "v": 94
    },
    {
      "midi": 75,
      "hit": false,
      "t": 156053.3499218756,
      "d": 130.81359375000466,
      "v": 89
    },
    {
      "midi": 67,
      "hit": false,
      "t": 156055.77239583366,
      "d": 242.24739583334303,
      "v": 96
    },
    {
      "midi": 67,
      "hit": false,
      "t": 156065.46229166663,
      "d": 118.70122395834187,
      "v": 97
    },
    {
      "midi": 77,
      "hit": false,
      "t": 156278.6400000004,
      "d": 121.12369791665697,
      "v": 118
    },
    {
      "midi": 65,
      "hit": false,
      "t": 156278.6400000004,
      "d": 128.39111979166046,
      "v": 109
    },
    {
      "midi": 34,
      "hit": false,
      "t": 156293.17484375054,
      "d": 234.97997395833954,
      "v": 108
    },
    {
      "midi": 65,
      "hit": false,
      "t": 156298.01979166726,
      "d": 121.12369791665697,
      "v": 93
    },
    {
      "midi": 70,
      "hit": false,
      "t": 156298.01979166726,
      "d": 123.54617187500116,
      "v": 91
    },
    {
      "midi": 74,
      "hit": false,
      "t": 156298.01979166726,
      "d": 125.96864583334536,
      "v": 100
    },
    {
      "midi": 65,
      "hit": false,
      "t": 156300.44226562534,
      "d": 227.71255208333605,
      "v": 104
    },
    {
      "midi": 65,
      "hit": false,
      "t": 156305.28721354163,
      "d": 113.85627604165347,
      "v": 94
    },
    {
      "midi": 62,
      "hit": false,
      "t": 156307.70968750038,
      "d": 1855.6150520833617,
      "v": 102
    },
    {
      "midi": 65,
      "hit": false,
      "t": 156310.13216145872,
      "d": 1858.0375260416768,
      "v": 100
    },
    {
      "midi": 70,
      "hit": false,
      "t": 156310.13216145872,
      "d": 1862.882473958336,
      "v": 102
    },
    {
      "midi": 70,
      "hit": false,
      "t": 156394.9187500004,
      "d": 123.54617187500116,
      "v": 114
    },
    {
      "midi": 58,
      "hit": false,
      "t": 156394.9187500004,
      "d": 125.96864583334536,
      "v": 117
    },
    {
      "midi": 65,
      "hit": false,
      "t": 156627.4762500004,
      "d": 128.39111979166046,
      "v": 115
    },
    {
      "midi": 77,
      "hit": false,
      "t": 156627.4762500004,
      "d": 130.81359375000466,
      "v": 110
    },
    {
      "midi": 65,
      "hit": false,
      "t": 156748.599947917,
      "d": 244.66986979165813,
      "v": 103
    },
    {
      "midi": 70,
      "hit": false,
      "t": 156976.3124999998,
      "d": 106.58885416667908,
      "v": 112
    },
    {
      "midi": 29,
      "hit": false,
      "t": 156983.57992187556,
      "d": 244.66986979168723,
      "v": 105
    },
    {
      "midi": 70,
      "hit": false,
      "t": 157208.86999999982,
      "d": 111.43380208333838,
      "v": 113
    },
    {
      "midi": 77,
      "hit": false,
      "t": 157208.87000000043,
      "d": 123.54617187500116,
      "v": 110
    },
    {
      "midi": 65,
      "hit": false,
      "t": 157208.87000000043,
      "d": 128.39111979166046,
      "v": 107
    },
    {
      "midi": 65,
      "hit": false,
      "t": 157211.29247395866,
      "d": 239.82492187499884,
      "v": 98
    },
    {
      "midi": 74,
      "hit": false,
      "t": 157216.1374218756,
      "d": 128.39111979166046,
      "v": 97
    },
    {
      "midi": 34,
      "hit": false,
      "t": 157218.5598958339,
      "d": 244.66986979168723,
      "v": 110
    },
    {
      "midi": 70,
      "hit": false,
      "t": 157220.98236979227,
      "d": 125.96864583334536,
      "v": 89
    },
    {
      "midi": 65,
      "hit": false,
      "t": 157223.4048437506,
      "d": 123.54617187500116,
      "v": 96
    },
    {
      "midi": 65,
      "hit": false,
      "t": 157225.8273177083,
      "d": 123.54617187500116,
      "v": 95
    },
    {
      "midi": 70,
      "hit": false,
      "t": 157441.42749999982,
      "d": 121.12369791665697,
      "v": 114
    },
    {
      "midi": 77,
      "hit": false,
      "t": 157441.42750000043,
      "d": 121.12369791665697,
      "v": 112
    },
    {
      "midi": 65,
      "hit": false,
      "t": 157441.42750000043,
      "d": 125.96864583331626,
      "v": 107
    },
    {
      "midi": 65,
      "hit": false,
      "t": 157451.11739583395,
      "d": 123.54617187500116,
      "v": 90
    },
    {
      "midi": 70,
      "hit": false,
      "t": 157453.5398697923,
      "d": 123.54617187500116,
      "v": 102
    },
    {
      "midi": 74,
      "hit": false,
      "t": 157453.5398697923,
      "d": 125.96864583334536,
      "v": 92
    },
    {
      "midi": 65,
      "hit": false,
      "t": 157458.38481770866,
      "d": 225.29007812499185,
      "v": 91
    },
    {
      "midi": 65,
      "hit": false,
      "t": 157465.6522395833,
      "d": 118.70122395834187,
      "v": 101
    },
    {
      "midi": 74,
      "hit": false,
      "t": 157673.9849999998,
      "d": 121.12369791665697,
      "v": 114
    },
    {
      "midi": 79,
      "hit": false,
      "t": 157673.98500000042,
      "d": 123.54617187500116,
      "v": 113
    },
    {
      "midi": 67,
      "hit": false,
      "t": 157673.98500000042,
      "d": 128.39111979166046,
      "v": 110
    },
    {
      "midi": 65,
      "hit": false,
      "t": 157683.67489583365,
      "d": 232.55749999999534,
      "v": 99
    },
    {
      "midi": 67,
      "hit": false,
      "t": 157683.67489583397,
      "d": 123.54617187503027,
      "v": 92
    },
    {
      "midi": 72,
      "hit": false,
      "t": 157686.09736979232,
      "d": 123.54617187503027,
      "v": 89
    },
    {
      "midi": 34,
      "hit": false,
      "t": 157688.51984375058,
      "d": 467.5374739583349,
      "v": 108
    },
    {
      "midi": 75,
      "hit": false,
      "t": 157688.51984375066,
      "d": 125.96864583334536,
      "v": 101
    },
    {
      "midi": 67,
      "hit": false,
      "t": 157693.36479166662,
      "d": 116.27874999999767,
      "v": 96
    },
    {
      "midi": 74,
      "hit": false,
      "t": 157906.5424999998,
      "d": 106.58885416667908,
      "v": 111
    },
    {
      "midi": 79,
      "hit": false,
      "t": 157906.54250000042,
      "d": 128.39111979166046,
      "v": 109
    },
    {
      "midi": 67,
      "hit": false,
      "t": 157906.54250000042,
      "d": 130.81359375000466,
      "v": 114
    },
    {
      "midi": 67,
      "hit": false,
      "t": 157913.80992187568,
      "d": 130.81359375000466,
      "v": 95
    },
    {
      "midi": 65,
      "hit": false,
      "t": 157916.23239583365,
      "d": 239.82492187499884,
      "v": 103
    },
    {
      "midi": 72,
      "hit": false,
      "t": 157916.23239583403,
      "d": 130.81359375000466,
      "v": 98
    },
    {
      "midi": 75,
      "hit": false,
      "t": 157916.23239583403,
      "d": 133.23606770834886,
      "v": 98
    },
    {
      "midi": 67,
      "hit": false,
      "t": 157925.92229166662,
      "d": 121.12369791665697,
      "v": 100
    },
    {
      "midi": 72,
      "hit": false,
      "t": 158139.09999999983,
      "d": 152.61585937498603,
      "v": 111
    },
    {
      "midi": 77,
      "hit": false,
      "t": 158139.1000000004,
      "d": 121.12369791665697,
      "v": 117
    },
    {
      "midi": 65,
      "hit": false,
      "t": 158139.1000000004,
      "d": 125.96864583331626,
      "v": 115
    },
    {
      "midi": 29,
      "hit": false,
      "t": 158146.36742187556,
      "d": 237.40244791668374,
      "v": 105
    },
    {
      "midi": 72,
      "hit": false,
      "t": 158151.21236979237,
      "d": 123.54617187500116,
      "v": 95
    },
    {
      "midi": 75,
      "hit": false,
      "t": 158151.21236979237,
      "d": 123.54617187500116,
      "v": 101
    },
    {
      "midi": 67,
      "hit": false,
      "t": 158153.6348437507,
      "d": 121.12369791665697,
      "v": 98
    },
    {
      "midi": 69,
      "hit": false,
      "t": 158163.32473958365,
      "d": 227.71255208333605,
      "v": 102
    },
    {
      "midi": 67,
      "hit": false,
      "t": 158168.16968749993,
      "d": 111.43380208333838,
      "v": 102
    },
    {
      "midi": 60,
      "hit": false,
      "t": 158168.1696875004,
      "d": 1858.0375260416477,
      "v": 98
    },
    {
      "midi": 65,
      "hit": false,
      "t": 158168.1696875004,
      "d": 1860.4599999999919,
      "v": 99
    },
    {
      "midi": 69,
      "hit": false,
      "t": 158173.01463541706,
      "d": 1860.4599999999919,
      "v": 96
    },
    {
      "midi": 72,
      "hit": false,
      "t": 158255.3787500004,
      "d": 125.96864583331626,
      "v": 119
    },
    {
      "midi": 60,
      "hit": false,
      "t": 158255.3787500004,
      "d": 128.39111979166046,
      "v": 107
    },
    {
      "midi": 74,
      "hit": false,
      "t": 158371.65749999983,
      "d": 155.03833333333023,
      "v": 110
    },
    {
      "midi": 65,
      "hit": false,
      "t": 158487.9362500004,
      "d": 116.27874999999767,
      "v": 114
    },
    {
      "midi": 77,
      "hit": false,
      "t": 158487.9362500004,
      "d": 116.27874999999767,
      "v": 111
    },
    {
      "midi": 77,
      "hit": false,
      "t": 158604.2150000004,
      "d": 125.96864583334536,
      "v": 114
    },
    {
      "midi": 65,
      "hit": false,
      "t": 158604.2150000004,
      "d": 128.39111979168956,
      "v": 113
    },
    {
      "midi": 69,
      "hit": false,
      "t": 158613.90489583366,
      "d": 244.66986979165813,
      "v": 95
    },
    {
      "midi": 75,
      "hit": false,
      "t": 158836.77249999982,
      "d": 254.35976562500582,
      "v": 111
    },
    {
      "midi": 41,
      "hit": false,
      "t": 158844.03992187558,
      "d": 474.8048958333384,
      "v": 108
    },
    {
      "midi": 69,
      "hit": false,
      "t": 159074.174947917,
      "d": 234.97997395833954,
      "v": 99
    },
    {
      "midi": 29,
      "hit": false,
      "t": 159079.01989583392,
      "d": 7.2674218750034925,
      "v": 106
    },
    {
      "midi": 69,
      "hit": false,
      "t": 159313.999869792,
      "d": 230.13502604168025,
      "v": 95
    },
    {
      "midi": 77,
      "hit": false,
      "t": 159534.44499999983,
      "d": 140.50348958332324,
      "v": 108
    },
    {
      "midi": 79,
      "hit": false,
      "t": 159534.4450000004,
      "d": 123.54617187500116,
      "v": 116
    },
    {
      "midi": 67,
      "hit": false,
      "t": 159534.4450000004,
      "d": 128.39111979166046,
      "v": 107
    },
    {
      "midi": 29,
      "hit": false,
      "t": 159541.7124218756,
      "d": 469.9599479166791,
      "v": 108
    },
    {
      "midi": 69,
      "hit": false,
      "t": 159544.13489583367,
      "d": 232.55749999999534,
      "v": 90
    },
    {
      "midi": 67,
      "hit": false,
      "t": 159544.13489583402,
      "d": 123.54617187500116,
      "v": 95
    },
    {
      "midi": 75,
      "hit": false,
      "t": 159544.13489583402,
      "d": 125.96864583334536,
      "v": 96
    },
    {
      "midi": 72,
      "hit": false,
      "t": 159548.97984375068,
      "d": 125.96864583334536,
      "v": 102
    },
    {
      "midi": 67,
      "hit": false,
      "t": 159553.82479166662,
      "d": 118.70122395834187,
      "v": 102
    },
    {
      "midi": 77,
      "hit": false,
      "t": 159767.00249999983,
      "d": 145.34843750001164,
      "v": 115
    },
    {
      "midi": 79,
      "hit": false,
      "t": 159767.0025000004,
      "d": 125.96864583334536,
      "v": 111
    },
    {
      "midi": 67,
      "hit": false,
      "t": 159767.0025000004,
      "d": 128.39111979168956,
      "v": 118
    },
    {
      "midi": 75,
      "hit": false,
      "t": 159771.84744791736,
      "d": 130.81359375003376,
      "v": 102
    },
    {
      "midi": 67,
      "hit": false,
      "t": 159774.2699218757,
      "d": 128.39111979168956,
      "v": 91
    },
    {
      "midi": 72,
      "hit": false,
      "t": 159776.69239583405,
      "d": 128.39111979168956,
      "v": 98
    },
    {
      "midi": 69,
      "hit": false,
      "t": 159781.53734375033,
      "d": 242.24739583334303,
      "v": 96
    },
    {
      "midi": 67,
      "hit": false,
      "t": 159783.9598177083,
      "d": 121.12369791665697,
      "v": 99
    },
    {
      "midi": 77,
      "hit": false,
      "t": 159999.56000000043,
      "d": 118.70122395834187,
      "v": 107
    },
    {
      "midi": 65,
      "hit": false,
      "t": 159999.56000000043,
      "d": 125.96864583334536,
      "v": 113
    },
    {
      "midi": 34,
      "hit": false,
      "t": 160009.24989583393,
      "d": 234.97997395833954,
      "v": 111
    },
    {
      "midi": 65,
      "hit": false,
      "t": 160018.9397916674,
      "d": 118.70122395834187,
      "v": 97
    },
    {
      "midi": 70,
      "hit": false,
      "t": 160018.9397916674,
      "d": 121.12369791668607,
      "v": 98
    },
    {
      "midi": 74,
      "hit": false,
      "t": 160018.9397916674,
      "d": 123.54617187503027,
      "v": 100
    },
    {
      "midi": 65,
      "hit": false,
      "t": 160021.36226562533,
      "d": 227.71255208333605,
      "v": 93
    },
    {
      "midi": 65,
      "hit": false,
      "t": 160026.2072135416,
      "d": 111.43380208333838,
      "v": 103
    },
    {
      "midi": 65,
      "hit": false,
      "t": 160028.6296875004,
      "d": 1860.4599999999919,
      "v": 104
    },
    {
      "midi": 62,
      "hit": false,
      "t": 160035.8971093754,
      "d": 1858.0375260416768,
      "v": 92
    },
    {
      "midi": 70,
      "hit": false,
      "t": 160035.8971093754,
      "d": 1858.0375260416768,
      "v": 98
    },
    {
      "midi": 70,
      "hit": false,
      "t": 160115.83875000043,
      "d": 125.96864583334536,
      "v": 109
    },
    {
      "midi": 58,
      "hit": false,
      "t": 160115.83875000043,
      "d": 128.39111979168956,
      "v": 111
    },
    {
      "midi": 65,
      "hit": false,
      "t": 160348.39625000046,
      "d": 128.39111979166046,
      "v": 118
    },
    {
      "midi": 77,
      "hit": false,
      "t": 160348.39625000046,
      "d": 130.81359375000466,
      "v": 117
    },
    {
      "midi": 65,
      "hit": false,
      "t": 160471.94242187534,
      "d": 244.66986979165813,
      "v": 92
    },
    {
      "midi": 70,
      "hit": false,
      "t": 160697.23249999984,
      "d": 106.58885416667908,
      "v": 113
    },
    {
      "midi": 29,
      "hit": false,
      "t": 160706.92239583394,
      "d": 244.66986979165813,
      "v": 108
    },
    {
      "midi": 70,
      "hit": false,
      "t": 160929.78999999986,
      "d": 116.27874999999767,
      "v": 109
    },
    {
      "midi": 77,
      "hit": false,
      "t": 160929.79000000047,
      "d": 123.54617187500116,
      "v": 111
    },
    {
      "midi": 65,
      "hit": false,
      "t": 160929.79000000047,
      "d": 128.39111979166046,
      "v": 113
    },
    {
      "midi": 65,
      "hit": false,
      "t": 160934.634947917,
      "d": 234.97997395833954,
      "v": 95
    },
    {
      "midi": 34,
      "hit": false,
      "t": 160939.47989583394,
      "d": 242.24739583334303,
      "v": 110
    },
    {
      "midi": 70,
      "hit": false,
      "t": 160941.90236979243,
      "d": 123.54617187500116,
      "v": 102
    },
    {
      "midi": 74,
      "hit": false,
      "t": 160941.90236979243,
      "d": 128.39111979168956,
      "v": 100
    },
    {
      "midi": 65,
      "hit": false,
      "t": 160944.32484375077,
      "d": 123.54617187500116,
      "v": 95
    },
    {
      "midi": 65,
      "hit": false,
      "t": 160946.74731770827,
      "d": 121.12369791665697,
      "v": 96
    },
    {
      "midi": 70,
      "hit": false,
      "t": 161162.34749999986,
      "d": 145.34843750001164,
      "v": 108
    },
    {
      "midi": 77,
      "hit": false,
      "t": 161162.34750000047,
      "d": 123.54617187500116,
      "v": 109
    },
    {
      "midi": 65,
      "hit": false,
      "t": 161162.34750000047,
      "d": 128.39111979166046,
      "v": 116
    },
    {
      "midi": 65,
      "hit": false,
      "t": 161167.19244791745,
      "d": 125.96864583334536,
      "v": 102
    },
    {
      "midi": 65,
      "hit": false,
      "t": 161174.459869792,
      "d": 230.13502604168025,
      "v": 101
    },
    {
      "midi": 70,
      "hit": false,
      "t": 161174.45986979245,
      "d": 123.54617187500116,
      "v": 97
    },
    {
      "midi": 74,
      "hit": false,
      "t": 161174.45986979245,
      "d": 128.39111979166046,
      "v": 95
    },
    {
      "midi": 65,
      "hit": false,
      "t": 161179.30481770827,
      "d": 121.12369791665697,
      "v": 99
    },
    {
      "midi": 79,
      "hit": false,
      "t": 161394.90499999988,
      "d": 113.85627604165347,
      "v": 116
    },
    {
      "midi": 79,
      "hit": false,
      "t": 161394.90500000046,
      "d": 123.54617187500116,
      "v": 116
    },
    {
      "midi": 67,
      "hit": false,
      "t": 161394.90500000046,
      "d": 128.39111979166046,
      "v": 115
    },
    {
      "midi": 34,
      "hit": false,
      "t": 161402.1724218756,
      "d": 469.9599479166791,
      "v": 101
    },
    {
      "midi": 65,
      "hit": false,
      "t": 161404.59489583367,
      "d": 232.55749999999534,
      "v": 92
    },
    {
      "midi": 67,
      "hit": false,
      "t": 161404.5948958341,
      "d": 123.54617187500116,
      "v": 96
    },
    {
      "midi": 75,
      "hit": false,
      "t": 161404.5948958341,
      "d": 125.96864583334536,
      "v": 90
    },
    {
      "midi": 72,
      "hit": false,
      "t": 161407.01736979245,
      "d": 123.54617187500116,
      "v": 99
    },
    {
      "midi": 67,
      "hit": false,
      "t": 161419.12973958327,
      "d": 118.70122395834187,
      "v": 97
    },
    {
      "midi": 79,
      "hit": false,
      "t": 161627.46249999988,
      "d": 164.72822916667792,
      "v": 112
    },
    {
      "midi": 79,
      "hit": false,
      "t": 161627.46250000046,
      "d": 125.96864583334536,
      "v": 116
    },
    {
      "midi": 67,
      "hit": false,
      "t": 161627.46250000046,
      "d": 128.39111979168956,
      "v": 107
    },
    {
      "midi": 67,
      "hit": false,
      "t": 161632.30744791744,
      "d": 128.39111979166046,
      "v": 95
    },
    {
      "midi": 75,
      "hit": false,
      "t": 161632.30744791744,
      "d": 130.81359375000466,
      "v": 93
    },
    {
      "midi": 65,
      "hit": false,
      "t": 161637.15239583366,
      "d": 242.24739583334303,
      "v": 100
    },
    {
      "midi": 72,
      "hit": false,
      "t": 161637.1523958341,
      "d": 128.39111979168956,
      "v": 93
    },
    {
      "midi": 67,
      "hit": false,
      "t": 161641.99734374994,
      "d": 121.12369791665697,
      "v": 92
    },
    {
      "midi": 79,
      "hit": false,
      "t": 161860.02000000048,
      "d": 121.12369791665697,
      "v": 115
    },
    {
      "midi": 67,
      "hit": false,
      "t": 161860.02000000048,
      "d": 125.96864583331626,
      "v": 113
    },
    {
      "midi": 67,
      "hit": false,
      "t": 161869.70989583412,
      "d": 121.12369791668607,
      "v": 92
    },
    {
      "midi": 39,
      "hit": false,
      "t": 161874.55484375064,
      "d": 237.40244791665464,
      "v": 106
    },
    {
      "midi": 72,
      "hit": false,
      "t": 161876.97731770913,
      "d": 123.54617187503027,
      "v": 100
    },
    {
      "midi": 75,
      "hit": false,
      "t": 161879.39979166747,
      "d": 123.54617187503027,
      "v": 90
    },
    {
      "midi": 67,
      "hit": false,
      "t": 161884.24473958366,
      "d": 230.13502604168025,
      "v": 91
    },
    {
      "midi": 67,
      "hit": false,
      "t": 161886.6672135416,
      "d": 111.43380208333838,
      "v": 94
    },
    {
      "midi": 63,
      "hit": false,
      "t": 161891.51216145873,
      "d": 1858.0375260416768,
      "v": 102
    },
    {
      "midi": 70,
      "hit": false,
      "t": 161893.93463541707,
      "d": 1858.0375260416768,
      "v": 93
    },
    {
      "midi": 67,
      "hit": false,
      "t": 161893.93463541707,
      "d": 1860.460000000021,
      "v": 104
    },
    {
      "midi": 70,
      "hit": false,
      "t": 161976.29875000048,
      "d": 125.96864583331626,
      "v": 115
    },
    {
      "midi": 58,
      "hit": false,
      "t": 161976.29875000048,
      "d": 128.39111979166046,
      "v": 109
    },
    {
      "midi": 67,
      "hit": false,
      "t": 162208.85625000048,
      "d": 128.39111979166046,
      "v": 110
    },
    {
      "midi": 79,
      "hit": false,
      "t": 162208.85625000048,
      "d": 130.81359375000466,
      "v": 107
    },
    {
      "midi": 67,
      "hit": false,
      "t": 162329.97994791702,
      "d": 247.09234375000233,
      "v": 97
    },
    {
      "midi": 70,
      "hit": false,
      "t": 162557.6924999999,
      "d": 106.58885416667908,
      "v": 108
    },
    {
      "midi": 34,
      "hit": false,
      "t": 162567.38239583396,
      "d": 242.24739583334303,
      "v": 106
    },
    {
      "midi": 70,
      "hit": false,
      "t": 162790.2499999999,
      "d": 99.32143229167559,
      "v": 115
    },
    {
      "midi": 67,
      "hit": false,
      "t": 162795.094947917,
      "d": 234.97997395833954,
      "v": 101
    },
    {
      "midi": 39,
      "hit": false,
      "t": 162799.93989583396,
      "d": 242.24739583334303,
      "v": 110
    },
    {
      "midi": 70,
      "hit": false,
      "t": 163022.8074999999,
      "d": 123.54617187500116,
      "v": 108
    },
    {
      "midi": 67,
      "hit": false,
      "t": 163037.34234375035,
      "d": 232.55749999999534,
      "v": 100
    },
    {
      "midi": 77,
      "hit": false,
      "t": 163255.3649999999,
      "d": 138.08101562500815,
      "v": 116
    },
    {
      "midi": 79,
      "hit": false,
      "t": 163255.3650000005,
      "d": 121.12369791665697,
      "v": 112
    },
    {
      "midi": 67,
      "hit": false,
      "t": 163255.3650000005,
      "d": 128.39111979166046,
      "v": 108
    },
    {
      "midi": 39,
      "hit": false,
      "t": 163267.4773697923,
      "d": 469.9599479166791,
      "v": 108
    },
    {
      "midi": 67,
      "hit": false,
      "t": 163267.4773697925,
      "d": 123.54617187500116,
      "v": 90
    },
    {
      "midi": 75,
      "hit": false,
      "t": 163267.4773697925,
      "d": 125.96864583334536,
      "v": 100
    },
    {
      "midi": 67,
      "hit": false,
      "t": 163269.89984375035,
      "d": 227.71255208333605,
      "v": 96
    },
    {
      "midi": 72,
      "hit": false,
      "t": 163269.89984375084,
      "d": 125.96864583334536,
      "v": 99
    },
    {
      "midi": 67,
      "hit": false,
      "t": 163279.5897395833,
      "d": 116.27874999999767,
      "v": 102
    },
    {
      "midi": 77,
      "hit": false,
      "t": 163487.9224999999,
      "d": 150.19338541667094,
      "v": 116
    },
    {
      "midi": 79,
      "hit": false,
      "t": 163487.92250000048,
      "d": 125.96864583334536,
      "v": 108
    },
    {
      "midi": 67,
      "hit": false,
      "t": 163487.92250000048,
      "d": 128.39111979168956,
      "v": 115
    },
    {
      "midi": 67,
      "hit": false,
      "t": 163492.76744791752,
      "d": 128.39111979168956,
      "v": 94
    },
    {
      "midi": 75,
      "hit": false,
      "t": 163492.76744791752,
      "d": 130.81359375003376,
      "v": 99
    },
    {
      "midi": 72,
      "hit": false,
      "t": 163495.18992187586,
      "d": 128.39111979168956,
      "v": 94
    },
    {
      "midi": 67,
      "hit": false,
      "t": 163497.61239583368,
      "d": 242.24739583334303,
      "v": 93
    },
    {
      "midi": 67,
      "hit": false,
      "t": 163507.30229166662,
      "d": 118.70122395834187,
      "v": 103
    },
    {
      "midi": 77,
      "hit": false,
      "t": 163720.4800000005,
      "d": 121.12369791665697,
      "v": 108
    },
    {
      "midi": 65,
      "hit": false,
      "t": 163720.4800000005,
      "d": 125.96864583331626,
      "v": 112
    },
    {
      "midi": 65,
      "hit": false,
      "t": 163732.59236979255,
      "d": 121.12369791665697,
      "v": 93
    },
    {
      "midi": 34,
      "hit": false,
      "t": 163737.43731770897,
      "d": 234.97997395833954,
      "v": 107
    },
    {
      "midi": 74,
      "hit": false,
      "t": 163737.4373177092,
      "d": 123.54617187500116,
      "v": 98
    },
    {
      "midi": 70,
      "hit": false,
      "t": 163739.85979166755,
      "d": 121.12369791665697,
      "v": 91
    },
    {
      "midi": 65,
      "hit": false,
      "t": 163744.70473958369,
      "d": 227.71255208333605,
      "v": 97
    },
    {
      "midi": 65,
      "hit": false,
      "t": 163749.54968749997,
      "d": 111.43380208333838,
      "v": 98
    },
    {
      "midi": 62,
      "hit": false,
      "t": 163749.5496875004,
      "d": 930.2300000000687,
      "v": 94
    },
    {
      "midi": 65,
      "hit": false,
      "t": 163754.3946354171,
      "d": 925.3850520833803,
      "v": 98
    },
    {
      "midi": 70,
      "hit": false,
      "t": 163756.81710937544,
      "d": 932.6524739583838,
      "v": 101
    },
    {
      "midi": 70,
      "hit": false,
      "t": 163836.7587500005,
      "d": 123.54617187497206,
      "v": 115
    },
    {
      "midi": 58,
      "hit": false,
      "t": 163836.7587500005,
      "d": 128.39111979163135,
      "v": 119
    },
    {
      "midi": 65,
      "hit": false,
      "t": 164069.31625000047,
      "d": 128.39111979166046,
      "v": 107
    },
    {
      "midi": 77,
      "hit": false,
      "t": 164069.31625000047,
      "d": 130.81359375000466,
      "v": 112
    },
    {
      "midi": 74,
      "hit": false,
      "t": 164185.5949999999,
      "d": 116.27874999999767,
      "v": 110
    },
    {
      "midi": 65,
      "hit": false,
      "t": 164197.707369792,
      "d": 244.66986979165813,
      "v": 99
    },
    {
      "midi": 74,
      "hit": false,
      "t": 164418.1524999999,
      "d": 128.39111979166046,
      "v": 111
    },
    {
      "midi": 41,
      "hit": false,
      "t": 164425.41992187564,
      "d": 479.64984374996857,
      "v": 111
    },
    {
      "midi": 75,
      "hit": false,
      "t": 164650.7099999999,
      "d": 230.13502604168025,
      "v": 111
    },
    {
      "midi": 75,
      "hit": false,
      "t": 164650.7100000005,
      "d": 123.54617187500116,
      "v": 110
    },
    {
      "midi": 63,
      "hit": false,
      "t": 164650.7100000005,
      "d": 128.39111979166046,
      "v": 117
    },
    {
      "midi": 65,
      "hit": false,
      "t": 164660.3998958342,
      "d": 123.54617187500116,
      "v": 102
    },
    {
      "midi": 69,
      "hit": false,
      "t": 164660.3998958342,
      "d": 125.96864583334536,
      "v": 99
    },
    {
      "midi": 69,
      "hit": false,
      "t": 164662.822369792,
      "d": 232.55749999999534,
      "v": 99
    },
    {
      "midi": 29,
      "hit": false,
      "t": 164662.8223697923,
      "d": 4.844947916659294,
      "v": 108
    },
    {
      "midi": 72,
      "hit": false,
      "t": 164662.82236979256,
      "d": 128.39111979166046,
      "v": 101
    },
    {
      "midi": 63,
      "hit": false,
      "t": 164667.6673177083,
      "d": 123.54617187500116,
      "v": 103
    },
    {
      "midi": 69,
      "hit": false,
      "t": 164674.93473958378,
      "d": 937.4974218750722,
      "v": 93
    },
    {
      "midi": 60,
      "hit": false,
      "t": 164677.35721354213,
      "d": 930.2300000000396,
      "v": 95
    },
    {
      "midi": 65,
      "hit": false,
      "t": 164682.20216145882,
      "d": 927.8075260416954,
      "v": 91
    },
    {
      "midi": 72,
      "hit": false,
      "t": 164883.26749999993,
      "d": 135.65854166666395,
      "v": 115
    },
    {
      "midi": 75,
      "hit": false,
      "t": 164883.26750000048,
      "d": 123.54617187500116,
      "v": 112
    },
    {
      "midi": 63,
      "hit": false,
      "t": 164883.26750000048,
      "d": 128.39111979166046,
      "v": 110
    },
    {
      "midi": 65,
      "hit": false,
      "t": 164890.5349218759,
      "d": 125.96864583334536,
      "v": 89
    },
    {
      "midi": 69,
      "hit": false,
      "t": 164892.95739583424,
      "d": 125.96864583334536,
      "v": 99
    },
    {
      "midi": 69,
      "hit": false,
      "t": 164895.379869792,
      "d": 232.55749999999534,
      "v": 91
    },
    {
      "midi": 72,
      "hit": false,
      "t": 164895.37986979258,
      "d": 128.39111979166046,
      "v": 100
    },
    {
      "midi": 63,
      "hit": false,
      "t": 164907.4922395833,
      "d": 118.70122395834187,
      "v": 102
    },
    {
      "midi": 69,
      "hit": false,
      "t": 165115.82499999992,
      "d": 121.12369791665697,
      "v": 115
    },
    {
      "midi": 77,
      "hit": false,
      "t": 165115.82500000048,
      "d": 123.54617187500116,
      "v": 115
    },
    {
      "midi": 65,
      "hit": false,
      "t": 165115.82500000048,
      "d": 128.39111979166046,
      "v": 112
    },
    {
      "midi": 65,
      "hit": false,
      "t": 165123.09242187592,
      "d": 123.54617187500116,
      "v": 95
    },
    {
      "midi": 70,
      "hit": false,
      "t": 165123.09242187592,
      "d": 125.96864583334536,
      "v": 89
    },
    {
      "midi": 29,
      "hit": false,
      "t": 165125.51489583394,
      "d": 467.5374739583349,
      "v": 101
    },
    {
      "midi": 69,
      "hit": false,
      "t": 165127.937369792,
      "d": 232.55749999999534,
      "v": 101
    },
    {
      "midi": 74,
      "hit": false,
      "t": 165127.93736979258,
      "d": 125.96864583334536,
      "v": 98
    },
    {
      "midi": 65,
      "hit": false,
      "t": 165135.20479166665,
      "d": 116.27874999999767,
      "v": 99
    },
    {
      "midi": 70,
      "hit": false,
      "t": 165348.38249999992,
      "d": 196.22039062500698,
      "v": 110
    },
    {
      "midi": 77,
      "hit": false,
      "t": 165348.38250000047,
      "d": 125.96864583334536,
      "v": 114
    },
    {
      "midi": 65,
      "hit": false,
      "t": 165348.38250000047,
      "d": 128.39111979168956,
      "v": 111
    },
    {
      "midi": 74,
      "hit": false,
      "t": 165353.2274479176,
      "d": 130.81359375003376,
      "v": 101
    },
    {
      "midi": 70,
      "hit": false,
      "t": 165355.64992187594,
      "d": 128.39111979168956,
      "v": 95
    },
    {
      "midi": 65,
      "hit": false,
      "t": 165358.0723958343,
      "d": 128.39111979168956,
      "v": 102
    },
    {
      "midi": 65,
      "hit": false,
      "t": 165362.91734374998,
      "d": 121.12369791665697,
      "v": 99
    },
    {
      "midi": 69,
      "hit": false,
      "t": 165365.33981770865,
      "d": 239.82492187499884,
      "v": 92
    },
    {
      "midi": 77,
      "hit": false,
      "t": 165580.9400000005,
      "d": 121.12369791665697,
      "v": 108
    },
    {
      "midi": 65,
      "hit": false,
      "t": 165580.9400000005,
      "d": 125.96864583331626,
      "v": 114
    },
    {
      "midi": 70,
      "hit": false,
      "t": 165593.05236979265,
      "d": 123.54617187503027,
      "v": 89
    },
    {
      "midi": 34,
      "hit": false,
      "t": 165595.47484375062,
      "d": 237.40244791665464,
      "v": 104
    },
    {
      "midi": 65,
      "hit": false,
      "t": 165595.474843751,
      "d": 121.12369791668607,
      "v": 89
    },
    {
      "midi": 74,
      "hit": false,
      "t": 165597.89731770934,
      "d": 123.54617187500116,
      "v": 99
    },
    {
      "midi": 65,
      "hit": false,
      "t": 165607.58721354164,
      "d": 111.43380208333838,
      "v": 102
    },
    {
      "midi": 70,
      "hit": false,
      "t": 165607.587213542,
      "d": 230.13502604168025,
      "v": 101
    },
    {
      "midi": 65,
      "hit": false,
      "t": 165610.0096875005,
      "d": 1850.7701041667024,
      "v": 91
    },
    {
      "midi": 62,
      "hit": false,
      "t": 165612.43216145886,
      "d": 1848.3476302083582,
      "v": 99
    },
    {
      "midi": 70,
      "hit": false,
      "t": 165614.8546354172,
      "d": 1850.7701041667024,
      "v": 99
    },
    {
      "midi": 70,
      "hit": false,
      "t": 165697.2187500005,
      "d": 125.96864583331626,
      "v": 109
    },
    {
      "midi": 58,
      "hit": false,
      "t": 165697.2187500005,
      "d": 128.39111979166046,
      "v": 113
    },
    {
      "midi": 65,
      "hit": false,
      "t": 165929.7762500005,
      "d": 116.27874999999767,
      "v": 113
    },
    {
      "midi": 77,
      "hit": false,
      "t": 165929.7762500005,
      "d": 116.27874999999767,
      "v": 113
    },
    {
      "midi": 77,
      "hit": false,
      "t": 166046.0550000005,
      "d": 125.96864583334536,
      "v": 115
    },
    {
      "midi": 65,
      "hit": false,
      "t": 166046.0550000005,
      "d": 128.39111979168956,
      "v": 118
    },
    {
      "midi": 65,
      "hit": false,
      "t": 166058.167369792,
      "d": 247.09234375000233,
      "v": 100
    },
    {
      "midi": 29,
      "hit": false,
      "t": 166285.8799218756,
      "d": 239.82492187502794,
      "v": 102
    },
    {
      "midi": 70,
      "hit": false,
      "t": 166293.14734375034,
      "d": 239.82492187499884,
      "v": 92
    },
    {
      "midi": 34,
      "hit": false,
      "t": 166516.01494791728,
      "d": 239.82492187502794,
      "v": 105
    },
    {
      "midi": 65,
      "hit": false,
      "t": 166748.57244791702,
      "d": 234.97997395833954,
      "v": 103
    },
    {
      "midi": 34,
      "hit": false,
      "t": 166983.55242187565,
      "d": 467.5374739583349,
      "v": 102
    },
    {
      "midi": 65,
      "hit": false,
      "t": 166985.9748958337,
      "d": 230.13502604168025,
      "v": 92
    },
    {
      "midi": 74,
      "hit": false,
      "t": 167092.5637499999,
      "d": 121.12369791665697,
      "v": 109
    },
    {
      "midi": 65,
      "hit": false,
      "t": 167216.10992187538,
      "d": 242.24739583334303,
      "v": 90
    },
    {
      "midi": 74,
      "hit": false,
      "t": 167325.1212499999,
      "d": 104.16638020833489,
      "v": 115
    },
    {
      "midi": 77,
      "hit": false,
      "t": 167441.40000000052,
      "d": 121.12369791665697,
      "v": 110
    },
    {
      "midi": 65,
      "hit": false,
      "t": 167441.40000000052,
      "d": 125.96864583331626,
      "v": 117
    },
    {
      "midi": 34,
      "hit": false,
      "t": 167455.93484375064,
      "d": 234.97997395833954,
      "v": 105
    },
    {
      "midi": 62,
      "hit": false,
      "t": 167460.7797916672,
      "d": 1860.460000000021,
      "v": 94
    },
    {
      "midi": 65,
      "hit": false,
      "t": 167463.20226562556,
      "d": 1862.882473958336,
      "v": 102
    },
    {
      "midi": 70,
      "hit": false,
      "t": 167465.6247395839,
      "d": 1855.6150520833326,
      "v": 95
    },
    {
      "midi": 74,
      "hit": false,
      "t": 167557.6787499999,
      "d": 138.08101562500815,
      "v": 108
    },
    {
      "midi": 58,
      "hit": false,
      "t": 167557.67875000052,
      "d": 128.39111979166046,
      "v": 118
    },
    {
      "midi": 70,
      "hit": false,
      "t": 167557.67875000052,
      "d": 128.39111979166046,
      "v": 109
    },
    {
      "midi": 74,
      "hit": false,
      "t": 167790.2362499999,
      "d": 133.23606770831975,
      "v": 114
    },
    {
      "midi": 65,
      "hit": false,
      "t": 167790.2362500005,
      "d": 128.39111979166046,
      "v": 117
    },
    {
      "midi": 77,
      "hit": false,
      "t": 167790.2362500005,
      "d": 130.81359375000466,
      "v": 109
    },
    {
      "midi": 72,
      "hit": false,
      "t": 168139.0724999999,
      "d": 140.50348958332324,
      "v": 114
    },
    {
      "midi": 29,
      "hit": false,
      "t": 168143.9174479173,
      "d": 242.24739583331393,
      "v": 110
    },
    {
      "midi": 70,
      "hit": false,
      "t": 168371.6299999999,
      "d": 186.5304947916593,
      "v": 113
    },
    {
      "midi": 34,
      "hit": false,
      "t": 168381.31989583396,
      "d": 242.24739583331393,
      "v": 102
    },
    {
      "midi": 69,
      "hit": false,
      "t": 168836.74499999988,
      "d": 171.9956510416523,
      "v": 113
    },
    {
      "midi": 34,
      "hit": false,
      "t": 168844.0124218756,
      "d": 469.95994791665,
      "v": 106
    },
    {
      "midi": 67,
      "hit": false,
      "t": 169069.30249999987,
      "d": 377.905937500007,
      "v": 108
    },
    {
      "midi": 79,
      "hit": false,
      "t": 169301.8600000005,
      "d": 123.54617187500116,
      "v": 112
    },
    {
      "midi": 67,
      "hit": false,
      "t": 169301.8600000005,
      "d": 125.96864583334536,
      "v": 113
    },
    {
      "midi": 39,
      "hit": false,
      "t": 169309.1274218756,
      "d": 237.40244791665464,
      "v": 109
    },
    {
      "midi": 63,
      "hit": false,
      "t": 169316.39484375058,
      "d": 1862.882473958336,
      "v": 92
    },
    {
      "midi": 70,
      "hit": false,
      "t": 169321.23979166723,
      "d": 1860.460000000021,
      "v": 97
    },
    {
      "midi": 67,
      "hit": false,
      "t": 169321.23979166723,
      "d": 1867.7274218750244,
      "v": 97
    },
    {
      "midi": 58,
      "hit": false,
      "t": 169418.1387500005,
      "d": 128.39111979168956,
      "v": 110
    },
    {
      "midi": 70,
      "hit": false,
      "t": 169418.1387500005,
      "d": 128.39111979168956,
      "v": 113
    },
    {
      "midi": 70,
      "hit": false,
      "t": 169534.4174999999,
      "d": 176.8405989583407,
      "v": 109
    },
    {
      "midi": 67,
      "hit": false,
      "t": 169650.69625000053,
      "d": 128.39111979166046,
      "v": 109
    },
    {
      "midi": 79,
      "hit": false,
      "t": 169650.69625000053,
      "d": 130.81359375000466,
      "v": 110
    },
    {
      "midi": 34,
      "hit": false,
      "t": 170011.64486979225,
      "d": 239.82492187499884,
      "v": 104
    },
    {
      "midi": 39,
      "hit": false,
      "t": 170236.93494791724,
      "d": 242.24739583334303,
      "v": 111
    },
    {
      "midi": 75,
      "hit": false,
      "t": 170697.2049999999,
      "d": 128.39111979166046,
      "v": 112
    },
    {
      "midi": 39,
      "hit": false,
      "t": 170702.04994791726,
      "d": 469.9599479166791,
      "v": 110
    },
    {
      "midi": 75,
      "hit": false,
      "t": 170929.7624999999,
      "d": 118.70122395834187,
      "v": 108
    },
    {
      "midi": 74,
      "hit": false,
      "t": 171162.3199999999,
      "d": 152.61585937498603,
      "v": 111
    },
    {
      "midi": 77,
      "hit": false,
      "t": 171162.32000000053,
      "d": 121.12369791665697,
      "v": 110
    },
    {
      "midi": 65,
      "hit": false,
      "t": 171162.32000000053,
      "d": 125.96864583331626,
      "v": 110
    },
    {
      "midi": 34,
      "hit": false,
      "t": 171174.43236979228,
      "d": 237.40244791665464,
      "v": 101
    },
    {
      "midi": 62,
      "hit": false,
      "t": 171176.85484375057,
      "d": 1862.8824739583652,
      "v": 101
    },
    {
      "midi": 65,
      "hit": false,
      "t": 171179.2773177089,
      "d": 1858.0375260416768,
      "v": 96
    },
    {
      "midi": 70,
      "hit": false,
      "t": 171181.69979166726,
      "d": 1867.7274218750244,
      "v": 95
    },
    {
      "midi": 58,
      "hit": false,
      "t": 171278.59875000053,
      "d": 128.39111979166046,
      "v": 117
    },
    {
      "midi": 70,
      "hit": false,
      "t": 171278.59875000053,
      "d": 128.39111979166046,
      "v": 113
    },
    {
      "midi": 74,
      "hit": false,
      "t": 171511.15624999988,
      "d": 121.12369791665697,
      "v": 109
    },
    {
      "midi": 65,
      "hit": false,
      "t": 171511.15625000052,
      "d": 128.39111979166046,
      "v": 114
    },
    {
      "midi": 77,
      "hit": false,
      "t": 171511.15625000052,
      "d": 130.81359375000466,
      "v": 114
    },
    {
      "midi": 70,
      "hit": false,
      "t": 171859.99249999988,
      "d": 123.54617187500116,
      "v": 108
    },
    {
      "midi": 29,
      "hit": false,
      "t": 171864.83744791726,
      "d": 242.24739583334303,
      "v": 103
    },
    {
      "midi": 72,
      "hit": false,
      "t": 172092.54999999987,
      "d": 162.30575520833372,
      "v": 116
    },
    {
      "midi": 34,
      "hit": false,
      "t": 172099.8174218756,
      "d": 242.24739583334303,
      "v": 111
    },
    {
      "midi": 74,
      "hit": false,
      "t": 172557.66499999986,
      "d": 150.19338541667094,
      "v": 109
    },
    {
      "midi": 34,
      "hit": false,
      "t": 172562.50994791728,
      "d": 469.9599479166791,
      "v": 111
    },
    {
      "midi": 72,
      "hit": false,
      "t": 172790.22249999986,
      "d": 181.685546875,
      "v": 114
    },
    {
      "midi": 77,
      "hit": false,
      "t": 173022.78000000052,
      "d": 121.12369791665697,
      "v": 108
    },
    {
      "midi": 65,
      "hit": false,
      "t": 173022.78000000052,
      "d": 125.96864583331626,
      "v": 107
    },
    {
      "midi": 29,
      "hit": false,
      "t": 173032.46989583396,
      "d": 237.40244791665464,
      "v": 105
    },
    {
      "midi": 60,
      "hit": false,
      "t": 173039.73731770893,
      "d": 1862.8824739583652,
      "v": 104
    },
    {
      "midi": 65,
      "hit": false,
      "t": 173042.15979166728,
      "d": 1862.8824739583652,
      "v": 97
    },
    {
      "midi": 69,
      "hit": false,
      "t": 173044.58226562562,
      "d": 1867.7274218750244,
      "v": 98
    },
    {
      "midi": 60,
      "hit": false,
      "t": 173139.05875000052,
      "d": 128.39111979166046,
      "v": 113
    },
    {
      "midi": 72,
      "hit": false,
      "t": 173139.05875000052,
      "d": 128.39111979166046,
      "v": 113
    },
    {
      "midi": 65,
      "hit": false,
      "t": 173371.61625000052,
      "d": 128.39111979166046,
      "v": 114
    },
    {
      "midi": 77,
      "hit": false,
      "t": 173371.61625000052,
      "d": 130.81359375000466,
      "v": 116
    },
    {
      "midi": 41,
      "hit": false,
      "t": 173727.7199218756,
      "d": 472.3824218750233,
      "v": 109
    },
    {
      "midi": 29,
      "hit": false,
      "t": 173957.85494791728,
      "d": 12.112369791662786,
      "v": 102
    },
    {
      "midi": 74,
      "hit": false,
      "t": 174418.12499999985,
      "d": 128.39111979166046,
      "v": 114
    },
    {
      "midi": 29,
      "hit": false,
      "t": 174427.81489583396,
      "d": 469.9599479166791,
      "v": 107
    },
    {
      "midi": 74,
      "hit": false,
      "t": 174650.68249999985,
      "d": 99.32143229167559,
      "v": 116
    },
    {
      "midi": 74,
      "hit": false,
      "t": 174883.23999999985,
      "d": 142.92596354166744,
      "v": 111
    },
    {
      "midi": 77,
      "hit": false,
      "t": 174883.24000000051,
      "d": 121.12369791665697,
      "v": 110
    },
    {
      "midi": 65,
      "hit": false,
      "t": 174883.24000000051,
      "d": 125.96864583331626,
      "v": 115
    },
    {
      "midi": 34,
      "hit": false,
      "t": 174897.77484375064,
      "d": 234.97997395833954,
      "v": 105
    },
    {
      "midi": 62,
      "hit": false,
      "t": 174900.19731770895,
      "d": 1862.8824739583652,
      "v": 98
    },
    {
      "midi": 70,
      "hit": false,
      "t": 174905.04226562564,
      "d": 1858.0375260416768,
      "v": 92
    },
    {
      "midi": 65,
      "hit": false,
      "t": 174907.464739584,
      "d": 1862.882473958336,
      "v": 95
    },
    {
      "midi": 58,
      "hit": false,
      "t": 174999.5187500005,
      "d": 128.39111979166046,
      "v": 109
    },
    {
      "midi": 70,
      "hit": false,
      "t": 174999.5187500005,
      "d": 128.39111979166046,
      "v": 113
    },
    {
      "midi": 74,
      "hit": false,
      "t": 175232.07624999984,
      "d": 116.27874999999767,
      "v": 112
    },
    {
      "midi": 65,
      "hit": false,
      "t": 175232.0762500005,
      "d": 128.39111979166046,
      "v": 110
    },
    {
      "midi": 77,
      "hit": false,
      "t": 175232.0762500005,
      "d": 130.81359375000466,
      "v": 116
    },
    {
      "midi": 72,
      "hit": false,
      "t": 175580.91249999983,
      "d": 128.39111979166046,
      "v": 117
    },
    {
      "midi": 29,
      "hit": false,
      "t": 175590.60239583396,
      "d": 242.24739583334303,
      "v": 109
    },
    {
      "midi": 70,
      "hit": false,
      "t": 175813.46999999983,
      "d": 138.08101562500815,
      "v": 113
    },
    {
      "midi": 34,
      "hit": false,
      "t": 175818.3149479173,
      "d": 242.24739583334303,
      "v": 110
    },
    {
      "midi": 69,
      "hit": false,
      "t": 176278.58499999985,
      "d": 138.08101562500815,
      "v": 112
    },
    {
      "midi": 34,
      "hit": false,
      "t": 176285.85242187564,
      "d": 469.9599479166791,
      "v": 104
    },
    {
      "midi": 67,
      "hit": false,
      "t": 176511.14249999984,
      "d": 179.2630729166558,
      "v": 113
    },
    {
      "midi": 79,
      "hit": false,
      "t": 176743.7000000005,
      "d": 121.12369791665697,
      "v": 118
    },
    {
      "midi": 67,
      "hit": false,
      "t": 176743.7000000005,
      "d": 125.96864583331626,
      "v": 115
    },
    {
      "midi": 39,
      "hit": false,
      "t": 176753.38989583397,
      "d": 237.40244791668374,
      "v": 102
    },
    {
      "midi": 63,
      "hit": false,
      "t": 176760.65731770897,
      "d": 1865.3049479166802,
      "v": 95
    },
    {
      "midi": 70,
      "hit": false,
      "t": 176763.07979166732,
      "d": 1862.882473958336,
      "v": 104
    },
    {
      "midi": 67,
      "hit": false,
      "t": 176765.50226562566,
      "d": 935.0749479166698,
      "v": 97
    },
    {
      "midi": 70,
      "hit": false,
      "t": 176859.9787500005,
      "d": 125.96864583331626,
      "v": 110
    },
    {
      "midi": 58,
      "hit": false,
      "t": 176859.9787500005,
      "d": 128.39111979166046,
      "v": 108
    },
    {
      "midi": 70,
      "hit": false,
      "t": 176976.25749999983,
      "d": 145.34843750001164,
      "v": 109
    },
    {
      "midi": 67,
      "hit": false,
      "t": 177092.5362500005,
      "d": 128.39111979166046,
      "v": 113
    },
    {
      "midi": 79,
      "hit": false,
      "t": 177092.5362500005,
      "d": 130.81359375000466,
      "v": 109
    },
    {
      "midi": 75,
      "hit": false,
      "t": 177441.37249999985,
      "d": 159.88328124998952,
      "v": 113
    },
    {
      "midi": 34,
      "hit": false,
      "t": 177451.062395834,
      "d": 242.24739583334303,
      "v": 104
    },
    {
      "midi": 39,
      "hit": false,
      "t": 177678.77494791732,
      "d": 242.24739583334303,
      "v": 110
    },
    {
      "midi": 66,
      "hit": false,
      "t": 177690.88731770898,
      "d": 944.7648437500175,
      "v": 101
    },
    {
      "midi": 70,
      "hit": false,
      "t": 177906.48749999984,
      "d": 104.16638020833489,
      "v": 111
    },
    {
      "midi": 75,
      "hit": false,
      "t": 178139.04499999984,
      "d": 128.39111979166046,
      "v": 112
    },
    {
      "midi": 39,
      "hit": false,
      "t": 178148.734895834,
      "d": 469.95994791665,
      "v": 101
    },
    {
      "midi": 70,
      "hit": false,
      "t": 178371.60249999983,
      "d": 106.58885416667908,
      "v": 108
    },
    {
      "midi": 74,
      "hit": false,
      "t": 178604.15999999986,
      "d": 142.92596354166744,
      "v": 111
    },
    {
      "midi": 77,
      "hit": false,
      "t": 178604.1600000005,
      "d": 121.12369791665697,
      "v": 115
    },
    {
      "midi": 65,
      "hit": false,
      "t": 178604.1600000005,
      "d": 125.96864583331626,
      "v": 111
    },
    {
      "midi": 34,
      "hit": false,
      "t": 178613.849895834,
      "d": 234.97997395833954,
      "v": 102
    },
    {
      "midi": 62,
      "hit": false,
      "t": 178621.117317709,
      "d": 932.6524739583547,
      "v": 104
    },
    {
      "midi": 65,
      "hit": false,
      "t": 178625.96226562565,
      "d": 927.8075260416954,
      "v": 104
    },
    {
      "midi": 70,
      "hit": false,
      "t": 178625.96226562565,
      "d": 932.6524739583838,
      "v": 103
    },
    {
      "midi": 58,
      "hit": false,
      "t": 178720.4387500005,
      "d": 128.39111979166046,
      "v": 116
    },
    {
      "midi": 70,
      "hit": false,
      "t": 178720.4387500005,
      "d": 128.39111979166046,
      "v": 116
    },
    {
      "midi": 74,
      "hit": false,
      "t": 178836.71749999985,
      "d": 109.01132812499418,
      "v": 113
    },
    {
      "midi": 65,
      "hit": false,
      "t": 178952.9962500005,
      "d": 128.39111979166046,
      "v": 116
    },
    {
      "midi": 77,
      "hit": false,
      "t": 178952.9962500005,
      "d": 130.81359375000466,
      "v": 111
    },
    {
      "midi": 74,
      "hit": false,
      "t": 179069.27499999985,
      "d": 116.27874999999767,
      "v": 111
    },
    {
      "midi": 70,
      "hit": false,
      "t": 179301.83249999984,
      "d": 128.39111979166046,
      "v": 115
    },
    {
      "midi": 41,
      "hit": false,
      "t": 179311.522395834,
      "d": 469.9599479166791,
      "v": 103
    },
    {
      "midi": 72,
      "hit": false,
      "t": 179534.38999999984,
      "d": 171.9956510416523,
      "v": 114
    },
    {
      "midi": 29,
      "hit": false,
      "t": 179539.23494791734,
      "d": 14.534843750006985,
      "v": 106
    },
    {
      "midi": 60,
      "hit": false,
      "t": 179546.50236979235,
      "d": 937.4974218750431,
      "v": 103
    },
    {
      "midi": 65,
      "hit": false,
      "t": 179556.1922656257,
      "d": 925.3850520833512,
      "v": 93
    },
    {
      "midi": 69,
      "hit": false,
      "t": 179556.1922656257,
      "d": 937.4974218750431,
      "v": 97
    },
    {
      "midi": 72,
      "hit": false,
      "t": 179999.50499999983,
      "d": 162.30575520833372,
      "v": 109
    },
    {
      "midi": 29,
      "hit": false,
      "t": 180009.19489583402,
      "d": 469.9599479166791,
      "v": 104
    },
    {
      "midi": 70,
      "hit": false,
      "t": 180232.06249999983,
      "d": 162.30575520833372,
      "v": 116
    },
    {
      "midi": 77,
      "hit": false,
      "t": 180464.6200000005,
      "d": 123.54617187500116,
      "v": 117
    },
    {
      "midi": 65,
      "hit": false,
      "t": 180464.6200000005,
      "d": 125.96864583334536,
      "v": 116
    },
    {
      "midi": 34,
      "hit": false,
      "t": 180479.1548437507,
      "d": 237.40244791665464,
      "v": 107
    },
    {
      "midi": 65,
      "hit": false,
      "t": 180481.57731770905,
      "d": 1862.8824739583652,
      "v": 101
    },
    {
      "midi": 70,
      "hit": false,
      "t": 180483.9997916674,
      "d": 1862.8824739583652,
      "v": 93
    },
    {
      "midi": 62,
      "hit": false,
      "t": 180486.42226562573,
      "d": 1853.1925781250175,
      "v": 99
    },
    {
      "midi": 65,
      "hit": false,
      "t": 180813.4562500005,
      "d": 128.39111979166046,
      "v": 112
    },
    {
      "midi": 77,
      "hit": false,
      "t": 180813.4562500005,
      "d": 130.81359375000466,
      "v": 108
    },
    {
      "midi": 29,
      "hit": false,
      "t": 181167.13744791737,
      "d": 242.24739583331393,
      "v": 108
    },
    {
      "midi": 34,
      "hit": false,
      "t": 181404.53989583402,
      "d": 242.24739583331393,
      "v": 109
    },
    {
      "midi": 75,
      "hit": false,
      "t": 181859.96499999982,
      "d": 125.96864583334536,
      "v": 108
    },
    {
      "midi": 34,
      "hit": false,
      "t": 181869.654895834,
      "d": 465.1149999999907,
      "v": 111
    },
    {
      "midi": 74,
      "hit": false,
      "t": 182092.52249999985,
      "d": 113.85627604165347,
      "v": 117
    },
    {
      "midi": 74,
      "hit": false,
      "t": 182325.07999999984,
      "d": 186.5304947916593,
      "v": 111
    },
    {
      "midi": 77,
      "hit": false,
      "t": 182325.0800000005,
      "d": 118.70122395834187,
      "v": 118
    },
    {
      "midi": 65,
      "hit": false,
      "t": 182325.0800000005,
      "d": 125.96864583334536,
      "v": 113
    },
    {
      "midi": 34,
      "hit": false,
      "t": 182334.769895834,
      "d": 234.97997395833954,
      "v": 101
    },
    {
      "midi": 62,
      "hit": false,
      "t": 182339.61484375075,
      "d": 1862.8824739583652,
      "v": 100
    },
    {
      "midi": 65,
      "hit": false,
      "t": 182349.3047395841,
      "d": 1862.8824739583652,
      "v": 91
    },
    {
      "midi": 70,
      "hit": false,
      "t": 182351.72721354244,
      "d": 1855.6150520833617,
      "v": 102
    },
    {
      "midi": 58,
      "hit": false,
      "t": 182441.3587500005,
      "d": 128.39111979168956,
      "v": 110
    },
    {
      "midi": 70,
      "hit": false,
      "t": 182441.3587500005,
      "d": 128.39111979168956,
      "v": 110
    },
    {
      "midi": 74,
      "hit": false,
      "t": 182673.91624999983,
      "d": 140.50348958332324,
      "v": 108
    },
    {
      "midi": 65,
      "hit": false,
      "t": 182673.91625000053,
      "d": 128.39111979166046,
      "v": 114
    },
    {
      "midi": 77,
      "hit": false,
      "t": 182673.91625000053,
      "d": 130.81359375000466,
      "v": 110
    },
    {
      "midi": 72,
      "hit": false,
      "t": 183022.75249999983,
      "d": 92.0540104166721,
      "v": 109
    },
    {
      "midi": 29,
      "hit": false,
      "t": 183030.01992187568,
      "d": 242.24739583334303,
      "v": 105
    },
    {
      "midi": 70,
      "hit": false,
      "t": 183255.30999999982,
      "d": 152.61585937498603,
      "v": 108
    },
    {
      "midi": 34,
      "hit": false,
      "t": 183257.732473959,
      "d": 242.24739583334303,
      "v": 110
    },
    {
      "midi": 69,
      "hit": false,
      "t": 183720.4249999998,
      "d": 147.77091145832674,
      "v": 111
    },
    {
      "midi": 34,
      "hit": false,
      "t": 183732.53736979235,
      "d": 469.9599479166791,
      "v": 107
    },
    {
      "midi": 67,
      "hit": false,
      "t": 183952.9824999998,
      "d": 198.64286458332208,
      "v": 112
    },
    {
      "midi": 79,
      "hit": false,
      "t": 184185.54000000053,
      "d": 121.12369791665697,
      "v": 116
    },
    {
      "midi": 67,
      "hit": false,
      "t": 184185.54000000053,
      "d": 125.96864583331626,
      "v": 112
    },
    {
      "midi": 39,
      "hit": false,
      "t": 184192.80742187568,
      "d": 237.40244791668374,
      "v": 107
    },
    {
      "midi": 63,
      "hit": false,
      "t": 184204.91979166746,
      "d": 1862.882473958336,
      "v": 101
    },
    {
      "midi": 67,
      "hit": false,
      "t": 184204.91979166746,
      "d": 1865.3049479166802,
      "v": 91
    },
    {
      "midi": 70,
      "hit": false,
      "t": 184207.3422656258,
      "d": 1860.4599999999919,
      "v": 99
    },
    {
      "midi": 58,
      "hit": false,
      "t": 184301.81875000053,
      "d": 128.39111979166046,
      "v": 117
    },
    {
      "midi": 70,
      "hit": false,
      "t": 184301.81875000053,
      "d": 128.39111979166046,
      "v": 111
    },
    {
      "midi": 70,
      "hit": false,
      "t": 184418.0974999998,
      "d": 130.81359375000466,
      "v": 114
    },
    {
      "midi": 67,
      "hit": false,
      "t": 184534.37625000053,
      "d": 128.39111979166046,
      "v": 113
    },
    {
      "midi": 79,
      "hit": false,
      "t": 184534.37625000053,
      "d": 130.81359375000466,
      "v": 117
    },
    {
      "midi": 70,
      "hit": false,
      "t": 184883.2124999998,
      "d": 128.39111979166046,
      "v": 109
    },
    {
      "midi": 34,
      "hit": false,
      "t": 184890.4799218757,
      "d": 242.24739583334303,
      "v": 107
    },
    {
      "midi": 39,
      "hit": false,
      "t": 185120.61494791738,
      "d": 242.24739583334303,
      "v": 107
    },
    {
      "midi": 70,
      "hit": false,
      "t": 185348.32749999978,
      "d": 181.685546875,
      "v": 112
    },
    {
      "midi": 75,
      "hit": false,
      "t": 185580.88499999978,
      "d": 174.4181249999965,
      "v": 109
    },
    {
      "midi": 39,
      "hit": false,
      "t": 185592.9973697924,
      "d": 469.9599479166791,
      "v": 102
    },
    {
      "midi": 70,
      "hit": false,
      "t": 185813.44249999977,
      "d": 96.8989583333314,
      "v": 108
    },
    {
      "midi": 74,
      "hit": false,
      "t": 186045.99999999977,
      "d": 184.1080208333442,
      "v": 110
    },
    {
      "midi": 77,
      "hit": false,
      "t": 186046.00000000052,
      "d": 121.12369791665697,
      "v": 110
    },
    {
      "midi": 65,
      "hit": false,
      "t": 186046.00000000052,
      "d": 125.96864583331626,
      "v": 116
    },
    {
      "midi": 34,
      "hit": false,
      "t": 186062.95731770908,
      "d": 234.97997395833954,
      "v": 110
    },
    {
      "midi": 65,
      "hit": false,
      "t": 186065.37979166745,
      "d": 1858.0375260416768,
      "v": 91
    },
    {
      "midi": 62,
      "hit": false,
      "t": 186065.37979166745,
      "d": 1865.3049479166802,
      "v": 94
    },
    {
      "midi": 70,
      "hit": false,
      "t": 186070.22473958414,
      "d": 1867.7274218749953,
      "v": 95
    },
    {
      "midi": 58,
      "hit": false,
      "t": 186162.27875000052,
      "d": 128.39111979166046,
      "v": 118
    },
    {
      "midi": 70,
      "hit": false,
      "t": 186162.27875000052,
      "d": 128.39111979166046,
      "v": 111
    },
    {
      "midi": 74,
      "hit": false,
      "t": 186278.5574999998,
      "d": 230.13502604168025,
      "v": 115
    },
    {
      "midi": 65,
      "hit": false,
      "t": 186394.83625000052,
      "d": 125.96864583334536,
      "v": 111
    },
    {
      "midi": 77,
      "hit": false,
      "t": 186394.83625000052,
      "d": 128.39111979168956,
      "v": 114
    },
    {
      "midi": 70,
      "hit": false,
      "t": 186743.6724999998,
      "d": 109.01132812499418,
      "v": 116
    },
    {
      "midi": 29,
      "hit": false,
      "t": 186748.51744791743,
      "d": 242.24739583334303,
      "v": 111
    },
    {
      "midi": 72,
      "hit": false,
      "t": 186976.2299999998,
      "d": 220.44513020833256,
      "v": 115
    },
    {
      "midi": 34,
      "hit": false,
      "t": 186983.49742187577,
      "d": 242.24739583334303,
      "v": 106
    },
    {
      "midi": 74,
      "hit": false,
      "t": 187441.3449999998,
      "d": 164.72822916667792,
      "v": 114
    },
    {
      "midi": 34,
      "hit": false,
      "t": 187448.6124218758,
      "d": 469.95994791665,
      "v": 101
    },
    {
      "midi": 72,
      "hit": false,
      "t": 187673.90249999982,
      "d": 196.22039062500698,
      "v": 114
    },
    {
      "midi": 77,
      "hit": false,
      "t": 187906.46000000054,
      "d": 121.12369791665697,
      "v": 115
    },
    {
      "midi": 65,
      "hit": false,
      "t": 187906.46000000054,
      "d": 125.96864583331626,
      "v": 109
    },
    {
      "midi": 29,
      "hit": false,
      "t": 187913.72742187578,
      "d": 237.40244791665464,
      "v": 110
    },
    {
      "midi": 65,
      "hit": false,
      "t": 187923.41731770913,
      "d": 1862.882473958336,
      "v": 99
    },
    {
      "midi": 69,
      "hit": false,
      "t": 187923.41731770913,
      "d": 1865.3049479166802,
      "v": 101
    },
    {
      "midi": 60,
      "hit": false,
      "t": 187925.83979166747,
      "d": 1862.882473958336,
      "v": 95
    },
    {
      "midi": 60,
      "hit": false,
      "t": 188022.73875000054,
      "d": 128.39111979166046,
      "v": 107
    },
    {
      "midi": 72,
      "hit": false,
      "t": 188022.73875000054,
      "d": 128.39111979166046,
      "v": 112
    },
    {
      "midi": 65,
      "hit": false,
      "t": 188255.29625000054,
      "d": 128.39111979166046,
      "v": 115
    },
    {
      "midi": 77,
      "hit": false,
      "t": 188255.29625000054,
      "d": 130.81359375000466,
      "v": 115
    },
    {
      "midi": 41,
      "hit": false,
      "t": 188613.8223958341,
      "d": 472.3824218750233,
      "v": 109
    },
    {
      "midi": 29,
      "hit": false,
      "t": 188843.9574218758,
      "d": 12.112369791662786,
      "v": 103
    },
    {
      "midi": 75,
      "hit": false,
      "t": 189301.80499999982,
      "d": 196.22039062500698,
      "v": 113
    },
    {
      "midi": 29,
      "hit": false,
      "t": 189309.0724218758,
      "d": 469.9599479166791,
      "v": 104
    },
    {
      "midi": 74,
      "hit": false,
      "t": 189534.3624999998,
      "d": 138.08101562500815,
      "v": 110
    },
    {
      "midi": 74,
      "hit": false,
      "t": 189766.9199999998,
      "d": 218.02265624998836,
      "v": 110
    },
    {
      "midi": 77,
      "hit": false,
      "t": 189766.92000000054,
      "d": 121.12369791665697,
      "v": 113
    },
    {
      "midi": 65,
      "hit": false,
      "t": 189766.92000000054,
      "d": 125.96864583331626,
      "v": 117
    },
    {
      "midi": 34,
      "hit": false,
      "t": 189783.87731770915,
      "d": 234.97997395833954,
      "v": 103
    },
    {
      "midi": 62,
      "hit": false,
      "t": 189786.29979166746,
      "d": 1862.882473958336,
      "v": 104
    },
    {
      "midi": 65,
      "hit": false,
      "t": 189786.29979166746,
      "d": 1862.882473958336,
      "v": 101
    },
    {
      "midi": 70,
      "hit": false,
      "t": 189788.7222656258,
      "d": 1853.1925781249884,
      "v": 91
    },
    {
      "midi": 58,
      "hit": false,
      "t": 189883.19875000053,
      "d": 128.39111979166046,
      "v": 107
    },
    {
      "midi": 70,
      "hit": false,
      "t": 189883.19875000053,
      "d": 128.39111979166046,
      "v": 114
    },
    {
      "midi": 74,
      "hit": false,
      "t": 190115.7562499998,
      "d": 118.70122395834187,
      "v": 110
    },
    {
      "midi": 65,
      "hit": false,
      "t": 190115.75625000053,
      "d": 128.39111979166046,
      "v": 109
    },
    {
      "midi": 77,
      "hit": false,
      "t": 190115.75625000053,
      "d": 130.81359375000466,
      "v": 115
    },
    {
      "midi": 72,
      "hit": false,
      "t": 190464.59249999982,
      "d": 92.0540104166721,
      "v": 117
    },
    {
      "midi": 29,
      "hit": false,
      "t": 190469.4374479175,
      "d": 242.24739583331393,
      "v": 108
    },
    {
      "midi": 70,
      "hit": false,
      "t": 190697.14999999982,
      "d": 215.60018229167326,
      "v": 109
    },
    {
      "midi": 34,
      "hit": false,
      "t": 190706.83989583416,
      "d": 242.24739583331393,
      "v": 102
    },
    {
      "midi": 69,
      "hit": false,
      "t": 191162.26499999984,
      "d": 186.5304947916593,
      "v": 111
    },
    {
      "midi": 34,
      "hit": false,
      "t": 191169.5324218758,
      "d": 469.9599479166791,
      "v": 105
    },
    {
      "midi": 67,
      "hit": false,
      "t": 191394.82249999983,
      "d": 455.4251041666721,
      "v": 115
    },
    {
      "midi": 79,
      "hit": false,
      "t": 191627.38000000053,
      "d": 121.12369791665697,
      "v": 112
    },
    {
      "midi": 67,
      "hit": false,
      "t": 191627.38000000053,
      "d": 125.96864583331626,
      "v": 113
    },
    {
      "midi": 67,
      "hit": false,
      "t": 191641.9148437508,
      "d": 932.6524739583256,
      "v": 100
    },
    {
      "midi": 70,
      "hit": false,
      "t": 191641.9148437508,
      "d": 1862.882473958336,
      "v": 100
    },
    {
      "midi": 39,
      "hit": false,
      "t": 191641.91484375083,
      "d": 237.40244791665464,
      "v": 102
    },
    {
      "midi": 63,
      "hit": false,
      "t": 191644.33731770914,
      "d": 1862.882473958336,
      "v": 92
    },
    {
      "midi": 58,
      "hit": false,
      "t": 191743.65875000053,
      "d": 128.39111979166046,
      "v": 108
    },
    {
      "midi": 70,
      "hit": false,
      "t": 191743.65875000053,
      "d": 128.39111979166046,
      "v": 116
    },
    {
      "midi": 70,
      "hit": false,
      "t": 191859.93749999985,
      "d": 171.9956510416523,
      "v": 108
    },
    {
      "midi": 67,
      "hit": false,
      "t": 191976.21625000052,
      "d": 128.39111979166046,
      "v": 117
    },
    {
      "midi": 79,
      "hit": false,
      "t": 191976.21625000052,
      "d": 130.81359375000466,
      "v": 111
    },
    {
      "midi": 70,
      "hit": false,
      "t": 192325.05249999985,
      "d": 101.74390624999069,
      "v": 113
    },
    {
      "midi": 34,
      "hit": false,
      "t": 192327.47497395915,
      "d": 242.24739583331393,
      "v": 101
    },
    {
      "midi": 75,
      "hit": false,
      "t": 192557.60999999984,
      "d": 188.9529687500035,
      "v": 114
    },
    {
      "midi": 39,
      "hit": false,
      "t": 192564.8774218758,
      "d": 242.24739583331393,
      "v": 103
    },
    {
      "midi": 66,
      "hit": false,
      "t": 192569.72236979246,
      "d": 944.7648437500175,
      "v": 92
    },
    {
      "midi": 75,
      "hit": false,
      "t": 193022.72499999983,
      "d": 138.08101562500815,
      "v": 112
    },
    {
      "midi": 39,
      "hit": false,
      "t": 193027.56994791745,
      "d": 469.9599479166791,
      "v": 103
    },
    {
      "midi": 74,
      "hit": false,
      "t": 193487.83999999985,
      "d": 208.33276041666977,
      "v": 112
    },
    {
      "midi": 77,
      "hit": false,
      "t": 193487.84000000052,
      "d": 121.12369791665697,
      "v": 116
    },
    {
      "midi": 65,
      "hit": false,
      "t": 193487.84000000052,
      "d": 125.96864583331626,
      "v": 107
    },
    {
      "midi": 34,
      "hit": false,
      "t": 193504.79731770913,
      "d": 234.97997395833954,
      "v": 102
    },
    {
      "midi": 65,
      "hit": false,
      "t": 193504.79731770913,
      "d": 927.8075260416954,
      "v": 104
    },
    {
      "midi": 70,
      "hit": false,
      "t": 193507.21979166748,
      "d": 935.0749479166698,
      "v": 100
    },
    {
      "midi": 62,
      "hit": false,
      "t": 193509.64226562582,
      "d": 932.6524739583256,
      "v": 103
    },
    {
      "midi": 58,
      "hit": false,
      "t": 193604.11875000052,
      "d": 128.39111979166046,
      "v": 109
    },
    {
      "midi": 70,
      "hit": false,
      "t": 193604.11875000052,
      "d": 128.39111979166046,
      "v": 111
    },
    {
      "midi": 65,
      "hit": false,
      "t": 193836.6762500005,
      "d": 128.39111979166046,
      "v": 117
    },
    {
      "midi": 77,
      "hit": false,
      "t": 193836.6762500005,
      "d": 130.81359375000466,
      "v": 110
    },
    {
      "midi": 74,
      "hit": false,
      "t": 193952.95499999984,
      "d": 147.77091145832674,
      "v": 111
    },
    {
      "midi": 70,
      "hit": false,
      "t": 194185.51249999984,
      "d": 147.77091145832674,
      "v": 115
    },
    {
      "midi": 41,
      "hit": false,
      "t": 194187.93497395914,
      "d": 479.64984374996857,
      "v": 105
    },
    {
      "midi": 72,
      "hit": false,
      "t": 194418.06999999983,
      "d": 159.88328124998952,
      "v": 113
    },
    {
      "midi": 29,
      "hit": false,
      "t": 194425.3374218758,
      "d": 4.844947916659294,
      "v": 109
    },
    {
      "midi": 65,
      "hit": false,
      "t": 194432.60484375083,
      "d": 930.2299999999814,
      "v": 94
    },
    {
      "midi": 60,
      "hit": false,
      "t": 194432.60484375083,
      "d": 935.0749479166698,
      "v": 103
    },
    {
      "midi": 69,
      "hit": false,
      "t": 194437.4497916675,
      "d": 937.497421875014,
      "v": 98
    },
    {
      "midi": 72,
      "hit": false,
      "t": 194650.62749999983,
      "d": 169.5731770833372,
      "v": 110
    },
    {
      "midi": 29,
      "hit": false,
      "t": 194892.8748958341,
      "d": 469.9599479166791,
      "v": 104
    },
    {
      "midi": 70,
      "hit": false,
      "t": 195115.74249999982,
      "d": 159.88328124998952,
      "v": 114
    },
    {
      "midi": 77,
      "hit": false,
      "t": 195348.3000000005,
      "d": 121.12369791665697,
      "v": 116
    },
    {
      "midi": 65,
      "hit": false,
      "t": 195348.3000000005,
      "d": 125.96864583331626,
      "v": 110
    },
    {
      "midi": 34,
      "hit": false,
      "t": 195362.83484375078,
      "d": 237.40244791665464,
      "v": 103
    },
    {
      "midi": 62,
      "hit": false,
      "t": 195365.25731770915,
      "d": 1865.3049479166802,
      "v": 101
    },
    {
      "midi": 65,
      "hit": false,
      "t": 195370.10226562584,
      "d": 1862.882473958336,
      "v": 104
    },
    {
      "midi": 70,
      "hit": false,
      "t": 195370.10226562584,
      "d": 1867.7274218749953,
      "v": 104
    },
    {
      "midi": 65,
      "hit": false,
      "t": 195697.1362500005,
      "d": 128.39111979166046,
      "v": 109
    },
    {
      "midi": 77,
      "hit": false,
      "t": 195697.1362500005,
      "d": 130.81359375000466,
      "v": 111
    },
    {
      "midi": 29,
      "hit": false,
      "t": 196055.6623958341,
      "d": 242.24739583334303,
      "v": 101
    },
    {
      "midi": 34,
      "hit": false,
      "t": 196288.2198958341,
      "d": 239.82492187502794,
      "v": 106
    },
    {
      "midi": 77,
      "hit": false,
      "t": 196743.64499999981,
      "d": 133.23606770831975,
      "v": 111
    },
    {
      "midi": 70,
      "hit": false,
      "t": 196750.912421876,
      "d": 123.54617187500116,
      "v": 97
    },
    {
      "midi": 34,
      "hit": false,
      "t": 196755.75736979247,
      "d": 462.6925260416756,
      "v": 108
    },
    {
      "midi": 65,
      "hit": false,
      "t": 196758.17984375,
      "d": 128.39111979166046,
      "v": 98
    },
    {
      "midi": 65,
      "hit": false,
      "t": 196758.17984375102,
      "d": 123.54617187500116,
      "v": 90
    },
    {
      "midi": 74,
      "hit": false,
      "t": 196760.60231770936,
      "d": 125.96864583331626,
      "v": 93
    },
    {
      "midi": 77,
      "hit": false,
      "t": 196976.2024999998,
      "d": 130.81359375000466,
      "v": 109
    },
    {
      "midi": 65,
      "hit": false,
      "t": 196978.62497395935,
      "d": 128.39111979166046,
      "v": 101
    },
    {
      "midi": 70,
      "hit": false,
      "t": 196978.62497395935,
      "d": 130.81359375000466,
      "v": 100
    },
    {
      "midi": 74,
      "hit": false,
      "t": 196985.89239583435,
      "d": 130.81359375000466,
      "v": 95
    },
    {
      "midi": 65,
      "hit": false,
      "t": 196990.73734375,
      "d": 128.39111979166046,
      "v": 96
    },
    {
      "midi": 77,
      "hit": false,
      "t": 197208.7599999998,
      "d": 164.72822916667792,
      "v": 109
    },
    {
      "midi": 77,
      "hit": false,
      "t": 197208.7600000005,
      "d": 118.70122395834187,
      "v": 110
    },
    {
      "midi": 65,
      "hit": false,
      "t": 197208.7600000005,
      "d": 125.96864583334536,
      "v": 112
    },
    {
      "midi": 34,
      "hit": false,
      "t": 197218.44989583414,
      "d": 234.97997395833954,
      "v": 101
    },
    {
      "midi": 65,
      "hit": false,
      "t": 197223.29484375103,
      "d": 118.70122395834187,
      "v": 98
    },
    {
      "midi": 70,
      "hit": false,
      "t": 197223.29484375103,
      "d": 121.12369791668607,
      "v": 100
    },
    {
      "midi": 65,
      "hit": false,
      "t": 197230.5622656254,
      "d": 232.55749999999534,
      "v": 90
    },
    {
      "midi": 74,
      "hit": false,
      "t": 197230.56226562604,
      "d": 121.12369791668607,
      "v": 97
    },
    {
      "midi": 65,
      "hit": false,
      "t": 197232.98473958418,
      "d": 1865.3049479166511,
      "v": 95
    },
    {
      "midi": 65,
      "hit": false,
      "t": 197237.8296875,
      "d": 113.85627604165347,
      "v": 102
    },
    {
      "midi": 62,
      "hit": false,
      "t": 197237.82968750084,
      "d": 1862.882473958336,
      "v": 101
    },
    {
      "midi": 70,
      "hit": false,
      "t": 197237.82968750084,
      "d": 1865.3049479166802,
      "v": 97
    },
    {
      "midi": 70,
      "hit": false,
      "t": 197325.0387500005,
      "d": 125.96864583334536,
      "v": 114
    },
    {
      "midi": 58,
      "hit": false,
      "t": 197325.0387500005,
      "d": 128.39111979168956,
      "v": 117
    },
    {
      "midi": 65,
      "hit": false,
      "t": 197557.59625000053,
      "d": 128.39111979166046,
      "v": 109
    },
    {
      "midi": 77,
      "hit": false,
      "t": 197557.59625000053,
      "d": 130.81359375000466,
      "v": 112
    },
    {
      "midi": 65,
      "hit": false,
      "t": 197683.56489583373,
      "d": 242.24739583334303,
      "v": 96
    },
    {
      "midi": 70,
      "hit": false,
      "t": 197906.43249999982,
      "d": 104.16638020833489,
      "v": 110
    },
    {
      "midi": 29,
      "hit": false,
      "t": 197908.85497395915,
      "d": 244.66986979168723,
      "v": 109
    },
    {
      "midi": 70,
      "hit": false,
      "t": 198138.98999999982,
      "d": 96.8989583333314,
      "v": 115
    },
    {
      "midi": 77,
      "hit": false,
      "t": 198138.99000000054,
      "d": 123.54617187500116,
      "v": 109
    },
    {
      "midi": 65,
      "hit": false,
      "t": 198138.99000000054,
      "d": 128.39111979166046,
      "v": 112
    },
    {
      "midi": 70,
      "hit": false,
      "t": 198148.6798958344,
      "d": 125.96864583331626,
      "v": 95
    },
    {
      "midi": 65,
      "hit": false,
      "t": 198151.10236979206,
      "d": 227.71255208333605,
      "v": 89
    },
    {
      "midi": 34,
      "hit": false,
      "t": 198151.1023697925,
      "d": 242.24739583334303,
      "v": 110
    },
    {
      "midi": 65,
      "hit": false,
      "t": 198153.52484375105,
      "d": 123.54617187500116,
      "v": 94
    },
    {
      "midi": 74,
      "hit": false,
      "t": 198153.52484375105,
      "d": 128.39111979166046,
      "v": 102
    },
    {
      "midi": 65,
      "hit": false,
      "t": 198155.9473177083,
      "d": 123.54617187500116,
      "v": 100
    },
    {
      "midi": 70,
      "hit": false,
      "t": 198371.5474999998,
      "d": 101.74390624999069,
      "v": 114
    },
    {
      "midi": 77,
      "hit": false,
      "t": 198371.54750000054,
      "d": 123.54617187500116,
      "v": 118
    },
    {
      "midi": 65,
      "hit": false,
      "t": 198371.54750000054,
      "d": 128.39111979166046,
      "v": 118
    },
    {
      "midi": 65,
      "hit": false,
      "t": 198376.3924479177,
      "d": 125.96864583331626,
      "v": 96
    },
    {
      "midi": 65,
      "hit": false,
      "t": 198378.8149218754,
      "d": 232.55749999999534,
      "v": 101
    },
    {
      "midi": 70,
      "hit": false,
      "t": 198381.23739583435,
      "d": 125.96864583331626,
      "v": 97
    },
    {
      "midi": 74,
      "hit": false,
      "t": 198381.23739583435,
      "d": 128.39111979166046,
      "v": 97
    },
    {
      "midi": 65,
      "hit": false,
      "t": 198390.92729166665,
      "d": 118.70122395834187,
      "v": 94
    },
    {
      "midi": 79,
      "hit": false,
      "t": 198604.1049999998,
      "d": 145.34843750001164,
      "v": 108
    },
    {
      "midi": 79,
      "hit": false,
      "t": 198604.10500000053,
      "d": 123.54617187500116,
      "v": 114
    },
    {
      "midi": 67,
      "hit": false,
      "t": 198604.10500000053,
      "d": 128.39111979166046,
      "v": 117
    },
    {
      "midi": 34,
      "hit": false,
      "t": 198616.21736979252,
      "d": 469.95994791665,
      "v": 108
    },
    {
      "midi": 67,
      "hit": false,
      "t": 198616.2173697927,
      "d": 123.54617187503027,
      "v": 93
    },
    {
      "midi": 65,
      "hit": false,
      "t": 198618.6398437504,
      "d": 232.55749999999534,
      "v": 90
    },
    {
      "midi": 72,
      "hit": false,
      "t": 198618.63984375104,
      "d": 123.54617187503027,
      "v": 91
    },
    {
      "midi": 75,
      "hit": false,
      "t": 198621.06231770938,
      "d": 125.96864583334536,
      "v": 101
    },
    {
      "midi": 67,
      "hit": false,
      "t": 198628.32973958334,
      "d": 118.70122395834187,
      "v": 100
    },
    {
      "midi": 79,
      "hit": false,
      "t": 198836.66249999983,
      "d": 152.61585937498603,
      "v": 110
    },
    {
      "midi": 79,
      "hit": false,
      "t": 198836.66250000053,
      "d": 125.96864583334536,
      "v": 109
    },
    {
      "midi": 67,
      "hit": false,
      "t": 198836.66250000053,
      "d": 128.39111979168956,
      "v": 110
    },
    {
      "midi": 67,
      "hit": false,
      "t": 198846.3523958344,
      "d": 128.39111979166046,
      "v": 92
    },
    {
      "midi": 72,
      "hit": false,
      "t": 198846.3523958344,
      "d": 128.39111979166046,
      "v": 94
    },
    {
      "midi": 75,
      "hit": false,
      "t": 198846.3523958344,
      "d": 130.81359375000466,
      "v": 99
    },
    {
      "midi": 65,
      "hit": false,
      "t": 198851.1973437504,
      "d": 244.66986979165813,
      "v": 92
    },
    {
      "midi": 67,
      "hit": false,
      "t": 198858.46476562502,
      "d": 118.70122395834187,
      "v": 95
    },
    {
      "midi": 79,
      "hit": false,
      "t": 199069.22000000055,
      "d": 121.12369791665697,
      "v": 107
    },
    {
      "midi": 67,
      "hit": false,
      "t": 199069.22000000055,
      "d": 125.96864583331626,
      "v": 114
    },
    {
      "midi": 72,
      "hit": false,
      "t": 199078.9098958344,
      "d": 123.54617187503027,
      "v": 94
    },
    {
      "midi": 39,
      "hit": false,
      "t": 199081.3323697925,
      "d": 237.40244791665464,
      "v": 109
    },
    {
      "midi": 67,
      "hit": false,
      "t": 199081.33236979274,
      "d": 121.12369791668607,
      "v": 94
    },
    {
      "midi": 75,
      "hit": false,
      "t": 199083.75484375108,
      "d": 123.54617187500116,
      "v": 90
    },
    {
      "midi": 67,
      "hit": false,
      "t": 199095.86721354205,
      "d": 230.13502604168025,
      "v": 99
    },
    {
      "midi": 67,
      "hit": false,
      "t": 199098.28968750002,
      "d": 111.43380208333838,
      "v": 98
    },
    {
      "midi": 63,
      "hit": false,
      "t": 199098.28968750083,
      "d": 1858.0375260417059,
      "v": 94
    },
    {
      "midi": 67,
      "hit": false,
      "t": 199103.13463541752,
      "d": 1860.46000000005,
      "v": 98
    },
    {
      "midi": 70,
      "hit": false,
      "t": 199105.55710937586,
      "d": 1860.46000000005,
      "v": 95
    },
    {
      "midi": 70,
      "hit": false,
      "t": 199185.49875000055,
      "d": 123.54617187497206,
      "v": 107
    },
    {
      "midi": 58,
      "hit": false,
      "t": 199185.49875000055,
      "d": 128.39111979163135,
      "v": 112
    },
    {
      "midi": 67,
      "hit": false,
      "t": 199418.05625000052,
      "d": 128.39111979166046,
      "v": 114
    },
    {
      "midi": 79,
      "hit": false,
      "t": 199418.05625000052,
      "d": 130.81359375000466,
      "v": 107
    },
    {
      "midi": 67,
      "hit": false,
      "t": 199541.6024218754,
      "d": 244.66986979165813,
      "v": 104
    },
    {
      "midi": 70,
      "hit": false,
      "t": 199766.8924999998,
      "d": 92.0540104166721,
      "v": 108
    },
    {
      "midi": 34,
      "hit": false,
      "t": 199776.58239583415,
      "d": 242.24739583334303,
      "v": 108
    },
    {
      "midi": 70,
      "hit": false,
      "t": 199999.4499999998,
      "d": 92.0540104166721,
      "v": 108
    },
    {
      "midi": 67,
      "hit": false,
      "t": 200011.56236979205,
      "d": 234.97997395833954,
      "v": 96
    },
    {
      "midi": 39,
      "hit": false,
      "t": 200011.5623697925,
      "d": 239.82492187499884,
      "v": 108
    },
    {
      "midi": 70,
      "hit": false,
      "t": 200232.0074999998,
      "d": 94.4764843749872,
      "v": 114
    },
    {
      "midi": 67,
      "hit": false,
      "t": 200246.5423437504,
      "d": 230.13502604168025,
      "v": 90
    },
    {
      "midi": 77,
      "hit": false,
      "t": 200464.5649999998,
      "d": 133.23606770831975,
      "v": 113
    },
    {
      "midi": 79,
      "hit": false,
      "t": 200464.56500000053,
      "d": 123.54617187500116,
      "v": 117
    },
    {
      "midi": 67,
      "hit": false,
      "t": 200464.56500000053,
      "d": 128.39111979166046,
      "v": 110
    },
    {
      "midi": 39,
      "hit": false,
      "t": 200469.40994791748,
      "d": 469.9599479166791,
      "v": 104
    },
    {
      "midi": 67,
      "hit": false,
      "t": 200471.83242187608,
      "d": 123.54617187497206,
      "v": 98
    },
    {
      "midi": 67,
      "hit": false,
      "t": 200476.67736979207,
      "d": 230.13502604168025,
      "v": 90
    },
    {
      "midi": 72,
      "hit": false,
      "t": 200476.67736979274,
      "d": 125.96864583331626,
      "v": 100
    },
    {
      "midi": 75,
      "hit": false,
      "t": 200481.5223177094,
      "d": 125.96864583331626,
      "v": 94
    },
    {
      "midi": 67,
      "hit": false,
      "t": 200488.78973958336,
      "d": 118.70122395834187,
      "v": 99
    },
    {
      "midi": 77,
      "hit": false,
      "t": 200697.1224999998,
      "d": 140.50348958332324,
      "v": 110
    },
    {
      "midi": 79,
      "hit": false,
      "t": 200697.12250000052,
      "d": 125.96864583334536,
      "v": 114
    },
    {
      "midi": 67,
      "hit": false,
      "t": 200697.12250000052,
      "d": 128.39111979168956,
      "v": 111
    },
    {
      "midi": 75,
      "hit": false,
      "t": 200704.38992187605,
      "d": 130.81359375000466,
      "v": 94
    },
    {
      "midi": 67,
      "hit": false,
      "t": 200706.81239583375,
      "d": 239.82492187499884,
      "v": 92
    },
    {
      "midi": 67,
      "hit": false,
      "t": 200706.8123958344,
      "d": 128.39111979166046,
      "v": 102
    },
    {
      "midi": 72,
      "hit": false,
      "t": 200706.8123958344,
      "d": 128.39111979166046,
      "v": 91
    },
    {
      "midi": 67,
      "hit": false,
      "t": 200718.92476562504,
      "d": 116.27874999999767,
      "v": 98
    },
    {
      "midi": 77,
      "hit": false,
      "t": 200929.68000000055,
      "d": 118.70122395834187,
      "v": 111
    },
    {
      "midi": 65,
      "hit": false,
      "t": 200929.68000000055,
      "d": 125.96864583334536,
      "v": 117
    },
    {
      "midi": 74,
      "hit": false,
      "t": 200941.79236979273,
      "d": 123.54617187500116,
      "v": 101
    },
    {
      "midi": 34,
      "hit": false,
      "t": 200944.21484375081,
      "d": 234.97997395833954,
      "v": 111
    },
    {
      "midi": 65,
      "hit": false,
      "t": 200946.6373177094,
      "d": 118.70122395834187,
      "v": 102
    },
    {
      "midi": 70,
      "hit": false,
      "t": 200946.6373177094,
      "d": 121.12369791668607,
      "v": 101
    },
    {
      "midi": 65,
      "hit": false,
      "t": 200953.90473958338,
      "d": 113.85627604165347,
      "v": 98
    },
    {
      "midi": 65,
      "hit": false,
      "t": 200956.3272135421,
      "d": 227.71255208333605,
      "v": 103
    },
    {
      "midi": 65,
      "hit": false,
      "t": 200958.74968750088,
      "d": 1860.460000000021,
      "v": 101
    },
    {
      "midi": 62,
      "hit": false,
      "t": 200961.17216145922,
      "d": 1860.460000000021,
      "v": 104
    },
    {
      "midi": 70,
      "hit": false,
      "t": 200966.0171093759,
      "d": 1862.882473958336,
      "v": 93
    },
    {
      "midi": 70,
      "hit": false,
      "t": 201045.95875000054,
      "d": 125.96864583334536,
      "v": 113
    },
    {
      "midi": 58,
      "hit": false,
      "t": 201045.95875000054,
      "d": 128.39111979168956,
      "v": 116
    },
    {
      "midi": 65,
      "hit": false,
      "t": 201278.51625000057,
      "d": 128.39111979166046,
      "v": 118
    },
    {
      "midi": 77,
      "hit": false,
      "t": 201278.51625000057,
      "d": 130.81359375000466,
      "v": 107
    },
    {
      "midi": 65,
      "hit": false,
      "t": 201404.48489583377,
      "d": 244.66986979165813,
      "v": 95
    },
    {
      "midi": 70,
      "hit": false,
      "t": 201627.35249999978,
      "d": 92.0540104166721,
      "v": 115
    },
    {
      "midi": 29,
      "hit": false,
      "t": 201632.19744791748,
      "d": 244.66986979165813,
      "v": 107
    },
    {
      "midi": 70,
      "hit": false,
      "t": 201859.90999999977,
      "d": 94.4764843749872,
      "v": 108
    },
    {
      "midi": 77,
      "hit": false,
      "t": 201859.9100000006,
      "d": 123.54617187500116,
      "v": 116
    },
    {
      "midi": 65,
      "hit": false,
      "t": 201859.9100000006,
      "d": 128.39111979166046,
      "v": 112
    },
    {
      "midi": 65,
      "hit": false,
      "t": 201867.1774218754,
      "d": 234.97997395833954,
      "v": 101
    },
    {
      "midi": 70,
      "hit": false,
      "t": 201867.17742187608,
      "d": 125.96864583334536,
      "v": 96
    },
    {
      "midi": 65,
      "hit": false,
      "t": 201869.59989583443,
      "d": 123.54617187500116,
      "v": 101
    },
    {
      "midi": 34,
      "hit": false,
      "t": 201872.02236979248,
      "d": 242.24739583331393,
      "v": 104
    },
    {
      "midi": 74,
      "hit": false,
      "t": 201872.02236979277,
      "d": 128.39111979166046,
      "v": 94
    },
    {
      "midi": 65,
      "hit": false,
      "t": 201879.2897916667,
      "d": 123.54617187500116,
      "v": 95
    },
    {
      "midi": 70,
      "hit": false,
      "t": 202092.46749999977,
      "d": 82.36411458332441,
      "v": 110
    },
    {
      "midi": 77,
      "hit": false,
      "t": 202092.46750000058,
      "d": 123.54617187500116,
      "v": 114
    },
    {
      "midi": 65,
      "hit": false,
      "t": 202092.46750000058,
      "d": 128.39111979166046,
      "v": 116
    },
    {
      "midi": 70,
      "hit": false,
      "t": 202099.7349218761,
      "d": 125.96864583331626,
      "v": 96
    },
    {
      "midi": 65,
      "hit": false,
      "t": 202104.57986979277,
      "d": 125.96864583331626,
      "v": 99
    },
    {
      "midi": 74,
      "hit": false,
      "t": 202104.57986979277,
      "d": 128.39111979166046,
      "v": 102
    },
    {
      "midi": 65,
      "hit": false,
      "t": 202107.0023437504,
      "d": 230.13502604168025,
      "v": 99
    },
    {
      "midi": 65,
      "hit": false,
      "t": 202109.42481770838,
      "d": 121.12369791665697,
      "v": 95
    },
    {
      "midi": 74,
      "hit": false,
      "t": 202325.02499999976,
      "d": 109.01132812499418,
      "v": 111
    },
    {
      "midi": 79,
      "hit": false,
      "t": 202325.02500000058,
      "d": 121.12369791665697,
      "v": 119
    },
    {
      "midi": 67,
      "hit": false,
      "t": 202325.02500000058,
      "d": 128.39111979166046,
      "v": 110
    },
    {
      "midi": 34,
      "hit": false,
      "t": 202332.29242187578,
      "d": 467.5374739583349,
      "v": 101
    },
    {
      "midi": 67,
      "hit": false,
      "t": 202334.71489583442,
      "d": 123.54617187500116,
      "v": 94
    },
    {
      "midi": 75,
      "hit": false,
      "t": 202334.71489583442,
      "d": 125.96864583334536,
      "v": 102
    },
    {
      "midi": 65,
      "hit": false,
      "t": 202337.1373697921,
      "d": 232.55749999999534,
      "v": 99
    },
    {
      "midi": 72,
      "hit": false,
      "t": 202341.98231770942,
      "d": 121.12369791668607,
      "v": 94
    },
    {
      "midi": 67,
      "hit": false,
      "t": 202346.82726562503,
      "d": 118.70122395834187,
      "v": 96
    },
    {
      "midi": 74,
      "hit": false,
      "t": 202557.58249999976,
      "d": 138.08101562500815,
      "v": 108
    },
    {
      "midi": 79,
      "hit": false,
      "t": 202557.58250000057,
      "d": 125.96864583334536,
      "v": 113
    },
    {
      "midi": 67,
      "hit": false,
      "t": 202557.58250000057,
      "d": 128.39111979168956,
      "v": 107
    },
    {
      "midi": 67,
      "hit": false,
      "t": 202562.42744791778,
      "d": 128.39111979166046,
      "v": 96
    },
    {
      "midi": 72,
      "hit": false,
      "t": 202562.42744791778,
      "d": 128.39111979166046,
      "v": 94
    },
    {
      "midi": 75,
      "hit": false,
      "t": 202567.27239583444,
      "d": 130.81359375000466,
      "v": 89
    },
    {
      "midi": 65,
      "hit": false,
      "t": 202569.6948697921,
      "d": 239.82492187499884,
      "v": 104
    },
    {
      "midi": 67,
      "hit": false,
      "t": 202574.53981770837,
      "d": 118.70122395834187,
      "v": 100
    },
    {
      "midi": 72,
      "hit": false,
      "t": 202790.13999999975,
      "d": 164.72822916667792,
      "v": 115
    },
    {
      "midi": 77,
      "hit": false,
      "t": 202790.1400000006,
      "d": 121.12369791665697,
      "v": 109
    },
    {
      "midi": 65,
      "hit": false,
      "t": 202790.1400000006,
      "d": 125.96864583331626,
      "v": 115
    },
    {
      "midi": 29,
      "hit": false,
      "t": 202797.40742187577,
      "d": 237.40244791668374,
      "v": 108
    },
    {
      "midi": 75,
      "hit": false,
      "t": 202802.25236979278,
      "d": 123.54617187503027,
      "v": 94
    },
    {
      "midi": 72,
      "hit": false,
      "t": 202804.67484375113,
      "d": 123.54617187503027,
      "v": 91
    },
    {
      "midi": 67,
      "hit": false,
      "t": 202807.09731770947,
      "d": 121.12369791668607,
      "v": 94
    },
    {
      "midi": 69,
      "hit": false,
      "t": 202814.36473958375,
      "d": 230.13502604168025,
      "v": 99
    },
    {
      "midi": 67,
      "hit": false,
      "t": 202819.20968750006,
      "d": 111.43380208333838,
      "v": 93
    },
    {
      "midi": 60,
      "hit": false,
      "t": 202819.2096875009,
      "d": 1858.0375260416768,
      "v": 94
    },
    {
      "midi": 65,
      "hit": false,
      "t": 202826.4771093759,
      "d": 1850.7701041666733,
      "v": 99
    },
    {
      "midi": 69,
      "hit": false,
      "t": 202826.4771093759,
      "d": 1860.460000000021,
      "v": 101
    },
    {
      "midi": 72,
      "hit": false,
      "t": 202906.4187500006,
      "d": 125.96864583331626,
      "v": 114
    },
    {
      "midi": 60,
      "hit": false,
      "t": 202906.4187500006,
      "d": 128.39111979166046,
      "v": 107
    },
    {
      "midi": 74,
      "hit": false,
      "t": 203022.69749999978,
      "d": 138.08101562500815,
      "v": 108
    },
    {
      "midi": 77,
      "hit": false,
      "t": 203138.9762500006,
      "d": 113.85627604165347,
      "v": 108
    },
    {
      "midi": 65,
      "hit": false,
      "t": 203138.9762500006,
      "d": 116.27874999999767,
      "v": 115
    },
    {
      "midi": 77,
      "hit": false,
      "t": 203255.2550000006,
      "d": 125.96864583334536,
      "v": 109
    },
    {
      "midi": 65,
      "hit": false,
      "t": 203255.2550000006,
      "d": 128.39111979168956,
      "v": 111
    },
    {
      "midi": 69,
      "hit": false,
      "t": 203262.52242187542,
      "d": 244.66986979165813,
      "v": 102
    },
    {
      "midi": 75,
      "hit": false,
      "t": 203487.8124999998,
      "d": 162.30575520833372,
      "v": 114
    },
    {
      "midi": 41,
      "hit": false,
      "t": 203490.23497395913,
      "d": 482.07231770834187,
      "v": 107
    },
    {
      "midi": 69,
      "hit": false,
      "t": 203725.21494791706,
      "d": 234.97997395833954,
      "v": 95
    },
    {
      "midi": 69,
      "hit": false,
      "t": 203967.4623437504,
      "d": 232.55749999999534,
      "v": 91
    },
    {
      "midi": 77,
      "hit": false,
      "t": 204185.48499999978,
      "d": 135.65854166666395,
      "v": 116
    },
    {
      "midi": 79,
      "hit": false,
      "t": 204185.4850000006,
      "d": 123.54617187500116,
      "v": 115
    },
    {
      "midi": 67,
      "hit": false,
      "t": 204185.4850000006,
      "d": 128.39111979166046,
      "v": 116
    },
    {
      "midi": 29,
      "hit": false,
      "t": 204192.7524218758,
      "d": 467.5374739583349,
      "v": 111
    },
    {
      "midi": 67,
      "hit": false,
      "t": 204195.1748958345,
      "d": 123.54617187500116,
      "v": 90
    },
    {
      "midi": 72,
      "hit": false,
      "t": 204195.1748958345,
      "d": 123.54617187500116,
      "v": 98
    },
    {
      "midi": 75,
      "hit": false,
      "t": 204197.59736979284,
      "d": 125.96864583331626,
      "v": 91
    },
    {
      "midi": 69,
      "hit": false,
      "t": 204200.0198437504,
      "d": 227.71255208333605,
      "v": 92
    },
    {
      "midi": 67,
      "hit": false,
      "t": 204207.28726562505,
      "d": 118.70122395834187,
      "v": 92
    },
    {
      "midi": 77,
      "hit": false,
      "t": 204418.04249999978,
      "d": 167.15070312499302,
      "v": 108
    },
    {
      "midi": 79,
      "hit": false,
      "t": 204418.0425000006,
      "d": 125.96864583334536,
      "v": 108
    },
    {
      "midi": 67,
      "hit": false,
      "t": 204418.0425000006,
      "d": 128.39111979168956,
      "v": 110
    },
    {
      "midi": 72,
      "hit": false,
      "t": 204422.88744791783,
      "d": 128.39111979166046,
      "v": 100
    },
    {
      "midi": 75,
      "hit": false,
      "t": 204422.88744791783,
      "d": 130.81359375000466,
      "v": 101
    },
    {
      "midi": 69,
      "hit": false,
      "t": 204427.73239583374,
      "d": 239.82492187499884,
      "v": 103
    },
    {
      "midi": 67,
      "hit": false,
      "t": 204427.7323958345,
      "d": 128.39111979168956,
      "v": 100
    },
    {
      "midi": 67,
      "hit": false,
      "t": 204432.57734375008,
      "d": 121.12369791665697,
      "v": 93
    },
    {
      "midi": 77,
      "hit": false,
      "t": 204650.60000000062,
      "d": 118.70122395834187,
      "v": 113
    },
    {
      "midi": 65,
      "hit": false,
      "t": 204650.60000000062,
      "d": 125.96864583334536,
      "v": 118
    },
    {
      "midi": 34,
      "hit": false,
      "t": 204662.71236979248,
      "d": 234.97997395833954,
      "v": 106
    },
    {
      "midi": 70,
      "hit": false,
      "t": 204662.71236979286,
      "d": 121.12369791665697,
      "v": 98
    },
    {
      "midi": 65,
      "hit": false,
      "t": 204665.1348437512,
      "d": 121.12369791665697,
      "v": 94
    },
    {
      "midi": 74,
      "hit": false,
      "t": 204669.97979166787,
      "d": 123.54617187500116,
      "v": 99
    },
    {
      "midi": 65,
      "hit": false,
      "t": 204674.8247395834,
      "d": 111.43380208333838,
      "v": 96
    },
    {
      "midi": 65,
      "hit": false,
      "t": 204677.24721354258,
      "d": 1862.8824739583652,
      "v": 92
    },
    {
      "midi": 65,
      "hit": false,
      "t": 204679.6696875004,
      "d": 227.71255208333605,
      "v": 95
    },
    {
      "midi": 62,
      "hit": false,
      "t": 204679.66968750092,
      "d": 1860.460000000021,
      "v": 98
    },
    {
      "midi": 70,
      "hit": false,
      "t": 204682.09216145927,
      "d": 1858.0375260416768,
      "v": 103
    },
    {
      "midi": 70,
      "hit": false,
      "t": 204766.87875000061,
      "d": 123.54617187500116,
      "v": 114
    },
    {
      "midi": 58,
      "hit": false,
      "t": 204766.87875000061,
      "d": 128.39111979166046,
      "v": 113
    },
    {
      "midi": 65,
      "hit": false,
      "t": 204999.4362500006,
      "d": 128.39111979166046,
      "v": 113
    },
    {
      "midi": 77,
      "hit": false,
      "t": 204999.4362500006,
      "d": 133.23606770831975,
      "v": 117
    },
    {
      "midi": 65,
      "hit": false,
      "t": 205127.82736979207,
      "d": 242.24739583334303,
      "v": 102
    },
    {
      "midi": 70,
      "hit": false,
      "t": 205348.27249999976,
      "d": 89.6315364583279,
      "v": 110
    },
    {
      "midi": 29,
      "hit": false,
      "t": 205357.96239583415,
      "d": 244.66986979165813,
      "v": 107
    },
    {
      "midi": 70,
      "hit": false,
      "t": 205580.82999999975,
      "d": 109.01132812499418,
      "v": 109
    },
    {
      "midi": 77,
      "hit": false,
      "t": 205580.8300000006,
      "d": 123.54617187500116,
      "v": 115
    },
    {
      "midi": 65,
      "hit": false,
      "t": 205580.8300000006,
      "d": 128.39111979166046,
      "v": 111
    },
    {
      "midi": 34,
      "hit": false,
      "t": 205585.6749479175,
      "d": 242.24739583331393,
      "v": 110
    },
    {
      "midi": 65,
      "hit": false,
      "t": 205588.0974218754,
      "d": 234.97997395833954,
      "v": 95
    },
    {
      "midi": 65,
      "hit": false,
      "t": 205590.51989583453,
      "d": 123.54617187500116,
      "v": 100
    },
    {
      "midi": 70,
      "hit": false,
      "t": 205590.51989583453,
      "d": 125.96864583334536,
      "v": 90
    },
    {
      "midi": 74,
      "hit": false,
      "t": 205592.94236979287,
      "d": 128.39111979166046,
      "v": 93
    },
    {
      "midi": 65,
      "hit": false,
      "t": 205600.20979166674,
      "d": 123.54617187500116,
      "v": 99
    },
    {
      "midi": 70,
      "hit": false,
      "t": 205813.38749999975,
      "d": 113.85627604165347,
      "v": 114
    },
    {
      "midi": 77,
      "hit": false,
      "t": 205813.3875000006,
      "d": 123.54617187500116,
      "v": 109
    },
    {
      "midi": 65,
      "hit": false,
      "t": 205813.3875000006,
      "d": 128.39111979166046,
      "v": 114
    },
    {
      "midi": 70,
      "hit": false,
      "t": 205820.6549218762,
      "d": 125.96864583334536,
      "v": 97
    },
    {
      "midi": 65,
      "hit": false,
      "t": 205823.07739583374,
      "d": 234.97997395833954,
      "v": 94
    },
    {
      "midi": 65,
      "hit": false,
      "t": 205823.07739583455,
      "d": 125.96864583334536,
      "v": 101
    },
    {
      "midi": 74,
      "hit": false,
      "t": 205827.9223437512,
      "d": 128.39111979168956,
      "v": 92
    },
    {
      "midi": 65,
      "hit": false,
      "t": 205832.76729166674,
      "d": 121.12369791665697,
      "v": 92
    },
    {
      "midi": 79,
      "hit": false,
      "t": 206045.94499999975,
      "d": 145.34843750001164,
      "v": 111
    },
    {
      "midi": 79,
      "hit": false,
      "t": 206045.9450000006,
      "d": 121.12369791665697,
      "v": 115
    },
    {
      "midi": 67,
      "hit": false,
      "t": 206045.9450000006,
      "d": 128.39111979166046,
      "v": 112
    },
    {
      "midi": 34,
      "hit": false,
      "t": 206055.63489583414,
      "d": 469.9599479166791,
      "v": 105
    },
    {
      "midi": 72,
      "hit": false,
      "t": 206055.63489583458,
      "d": 125.96864583334536,
      "v": 102
    },
    {
      "midi": 67,
      "hit": false,
      "t": 206058.05736979292,
      "d": 123.54617187500116,
      "v": 101
    },
    {
      "midi": 65,
      "hit": false,
      "t": 206060.47984375042,
      "d": 230.13502604168025,
      "v": 94
    },
    {
      "midi": 75,
      "hit": false,
      "t": 206062.90231770958,
      "d": 125.96864583334536,
      "v": 90
    },
    {
      "midi": 67,
      "hit": false,
      "t": 206065.32479166673,
      "d": 116.27874999999767,
      "v": 96
    },
    {
      "midi": 79,
      "hit": false,
      "t": 206278.50249999977,
      "d": 152.61585937498603,
      "v": 112
    },
    {
      "midi": 79,
      "hit": false,
      "t": 206278.50250000058,
      "d": 125.96864583334536,
      "v": 114
    },
    {
      "midi": 67,
      "hit": false,
      "t": 206278.50250000058,
      "d": 128.39111979168956,
      "v": 114
    },
    {
      "midi": 67,
      "hit": false,
      "t": 206285.76992187626,
      "d": 128.39111979168956,
      "v": 90
    },
    {
      "midi": 72,
      "hit": false,
      "t": 206288.1923958346,
      "d": 128.39111979168956,
      "v": 99
    },
    {
      "midi": 75,
      "hit": false,
      "t": 206290.61486979295,
      "d": 130.81359375000466,
      "v": 89
    },
    {
      "midi": 65,
      "hit": false,
      "t": 206293.03734375045,
      "d": 244.66986979165813,
      "v": 93
    },
    {
      "midi": 67,
      "hit": false,
      "t": 206302.7272395834,
      "d": 118.70122395834187,
      "v": 99
    },
    {
      "midi": 79,
      "hit": false,
      "t": 206511.0600000006,
      "d": 121.12369791665697,
      "v": 111
    },
    {
      "midi": 67,
      "hit": false,
      "t": 206511.0600000006,
      "d": 125.96864583331626,
      "v": 107
    },
    {
      "midi": 39,
      "hit": false,
      "t": 206518.32742187582,
      "d": 237.40244791668374,
      "v": 107
    },
    {
      "midi": 67,
      "hit": false,
      "t": 206528.01731770963,
      "d": 121.12369791665697,
      "v": 95
    },
    {
      "midi": 72,
      "hit": false,
      "t": 206528.01731770963,
      "d": 123.54617187500116,
      "v": 97
    },
    {
      "midi": 75,
      "hit": false,
      "t": 206528.01731770963,
      "d": 123.54617187500116,
      "v": 101
    },
    {
      "midi": 67,
      "hit": false,
      "t": 206530.4397916671,
      "d": 230.13502604168025,
      "v": 100
    },
    {
      "midi": 63,
      "hit": false,
      "t": 206537.7072135426,
      "d": 1858.0375260416768,
      "v": 104
    },
    {
      "midi": 67,
      "hit": false,
      "t": 206540.12968750007,
      "d": 111.43380208333838,
      "v": 94
    },
    {
      "midi": 67,
      "hit": false,
      "t": 206540.12968750094,
      "d": 1860.460000000021,
      "v": 104
    },
    {
      "midi": 70,
      "hit": false,
      "t": 206540.12968750094,
      "d": 1860.460000000021,
      "v": 95
    },
    {
      "midi": 70,
      "hit": false,
      "t": 206627.3387500006,
      "d": 125.96864583331626,
      "v": 116
    },
    {
      "midi": 58,
      "hit": false,
      "t": 206627.3387500006,
      "d": 128.39111979166046,
      "v": 113
    },
    {
      "midi": 67,
      "hit": false,
      "t": 206859.8962500006,
      "d": 128.39111979166046,
      "v": 116
    },
    {
      "midi": 79,
      "hit": false,
      "t": 206859.8962500006,
      "d": 133.23606770831975,
      "v": 107
    },
    {
      "midi": 67,
      "hit": false,
      "t": 206981.0199479171,
      "d": 244.66986979165813,
      "v": 94
    },
    {
      "midi": 70,
      "hit": false,
      "t": 207208.73249999975,
      "d": 101.74390624999069,
      "v": 108
    },
    {
      "midi": 34,
      "hit": false,
      "t": 207215.99992187583,
      "d": 242.24739583334303,
      "v": 107
    },
    {
      "midi": 70,
      "hit": false,
      "t": 207441.28999999975,
      "d": 116.27874999999767,
      "v": 113
    },
    {
      "midi": 39,
      "hit": false,
      "t": 207448.55742187583,
      "d": 239.82492187502794,
      "v": 101
    },
    {
      "midi": 67,
      "hit": false,
      "t": 207453.4023697921,
      "d": 232.55749999999534,
      "v": 95
    },
    {
      "midi": 70,
      "hit": false,
      "t": 207673.84749999974,
      "d": 109.01132812499418,
      "v": 116
    },
    {
      "midi": 67,
      "hit": false,
      "t": 207685.9598697921,
      "d": 232.55749999999534,
      "v": 94
    },
    {
      "midi": 77,
      "hit": false,
      "t": 207906.40499999974,
      "d": 123.54617187500116,
      "v": 108
    },
    {
      "midi": 79,
      "hit": false,
      "t": 207906.40500000058,
      "d": 121.12369791665697,
      "v": 114
    },
    {
      "midi": 67,
      "hit": false,
      "t": 207906.40500000058,
      "d": 128.39111979166046,
      "v": 117
    },
    {
      "midi": 67,
      "hit": false,
      "t": 207913.67242187628,
      "d": 123.54617187500116,
      "v": 97
    },
    {
      "midi": 39,
      "hit": false,
      "t": 207916.0948958342,
      "d": 467.5374739583349,
      "v": 104
    },
    {
      "midi": 72,
      "hit": false,
      "t": 207916.09489583463,
      "d": 125.96864583331626,
      "v": 93
    },
    {
      "midi": 67,
      "hit": false,
      "t": 207918.5173697921,
      "d": 232.55749999999534,
      "v": 91
    },
    {
      "midi": 75,
      "hit": false,
      "t": 207920.9398437513,
      "d": 125.96864583331626,
      "v": 89
    },
    {
      "midi": 67,
      "hit": false,
      "t": 207930.6297395834,
      "d": 116.27874999999767,
      "v": 95
    },
    {
      "midi": 77,
      "hit": false,
      "t": 208138.96249999973,
      "d": 113.85627604165347,
      "v": 109
    },
    {
      "midi": 79,
      "hit": false,
      "t": 208138.96250000058,
      "d": 125.96864583334536,
      "v": 115
    },
    {
      "midi": 67,
      "hit": false,
      "t": 208138.96250000058,
      "d": 128.39111979168956,
      "v": 118
    },
    {
      "midi": 72,
      "hit": false,
      "t": 208143.80744791793,
      "d": 128.39111979168956,
      "v": 101
    },
    {
      "midi": 67,
      "hit": false,
      "t": 208146.22992187628,
      "d": 128.39111979168956,
      "v": 99
    },
    {
      "midi": 75,
      "hit": false,
      "t": 208146.22992187628,
      "d": 130.81359375003376,
      "v": 89
    },
    {
      "midi": 67,
      "hit": false,
      "t": 208151.0748697921,
      "d": 239.82492187499884,
      "v": 97
    },
    {
      "midi": 67,
      "hit": false,
      "t": 208158.34229166675,
      "d": 116.27874999999767,
      "v": 92
    },
    {
      "midi": 77,
      "hit": false,
      "t": 208371.51999999973,
      "d": 130.81359375000466,
      "v": 115
    },
    {
      "midi": 77,
      "hit": false,
      "t": 208371.5200000006,
      "d": 118.70122395834187,
      "v": 118
    },
    {
      "midi": 65,
      "hit": false,
      "t": 208371.5200000006,
      "d": 125.96864583334536,
      "v": 112
    },
    {
      "midi": 34,
      "hit": false,
      "t": 208383.63236979253,
      "d": 234.97997395833954,
      "v": 105
    },
    {
      "midi": 65,
      "hit": false,
      "t": 208388.47731770965,
      "d": 121.12369791668607,
      "v": 91
    },
    {
      "midi": 74,
      "hit": false,
      "t": 208388.47731770965,
      "d": 123.54617187503027,
      "v": 94
    },
    {
      "midi": 70,
      "hit": false,
      "t": 208390.899791668,
      "d": 121.12369791668607,
      "v": 93
    },
    {
      "midi": 65,
      "hit": false,
      "t": 208393.32226562544,
      "d": 227.71255208333605,
      "v": 95
    },
    {
      "midi": 65,
      "hit": false,
      "t": 208395.7447395834,
      "d": 113.85627604165347,
      "v": 92
    },
    {
      "midi": 65,
      "hit": false,
      "t": 208398.16721354262,
      "d": 925.3850520833512,
      "v": 99
    },
    {
      "midi": 70,
      "hit": false,
      "t": 208403.0121614593,
      "d": 930.2300000000396,
      "v": 94
    },
    {
      "midi": 62,
      "hit": false,
      "t": 208403.0121614593,
      "d": 932.6524739583838,
      "v": 104
    },
    {
      "midi": 70,
      "hit": false,
      "t": 208487.7987500006,
      "d": 123.54617187500116,
      "v": 113
    },
    {
      "midi": 58,
      "hit": false,
      "t": 208487.7987500006,
      "d": 128.39111979166046,
      "v": 110
    },
    {
      "midi": 65,
      "hit": false,
      "t": 208720.3562500006,
      "d": 128.39111979166046,
      "v": 118
    },
    {
      "midi": 77,
      "hit": false,
      "t": 208720.3562500006,
      "d": 130.81359375000466,
      "v": 115
    },
    {
      "midi": 74,
      "hit": false,
      "t": 208836.63499999972,
      "d": 104.16638020833489,
      "v": 109
    },
    {
      "midi": 65,
      "hit": false,
      "t": 208846.32489583376,
      "d": 244.66986979165813,
      "v": 96
    },
    {
      "midi": 70,
      "hit": false,
      "t": 209069.1924999997,
      "d": 118.70122395834187,
      "v": 113
    },
    {
      "midi": 41,
      "hit": false,
      "t": 209074.03744791754,
      "d": 479.6498437499977,
      "v": 106
    },
    {
      "midi": 72,
      "hit": false,
      "t": 209301.7499999997,
      "d": 162.30575520833372,
      "v": 116
    },
    {
      "midi": 75,
      "hit": false,
      "t": 209301.7500000006,
      "d": 123.54617187500116,
      "v": 112
    },
    {
      "midi": 63,
      "hit": false,
      "t": 209301.7500000006,
      "d": 128.39111979166046,
      "v": 118
    },
    {
      "midi": 69,
      "hit": false,
      "t": 209306.5949479171,
      "d": 237.40244791665464,
      "v": 91
    },
    {
      "midi": 69,
      "hit": false,
      "t": 209309.01742187634,
      "d": 123.54617187500116,
      "v": 95
    },
    {
      "midi": 29,
      "hit": false,
      "t": 209311.4398958342,
      "d": 7.2674218750034925,
      "v": 104
    },
    {
      "midi": 72,
      "hit": false,
      "t": 209311.4398958347,
      "d": 128.39111979166046,
      "v": 90
    },
    {
      "midi": 65,
      "hit": false,
      "t": 209316.28484375135,
      "d": 123.54617187500116,
      "v": 92
    },
    {
      "midi": 63,
      "hit": false,
      "t": 209318.70731770838,
      "d": 123.54617187500116,
      "v": 97
    },
    {
      "midi": 60,
      "hit": false,
      "t": 209325.97473958432,
      "d": 932.6524739583838,
      "v": 103
    },
    {
      "midi": 65,
      "hit": false,
      "t": 209328.39721354266,
      "d": 935.074947916728,
      "v": 97
    },
    {
      "midi": 69,
      "hit": false,
      "t": 209330.819687501,
      "d": 937.4974218750431,
      "v": 95
    },
    {
      "midi": 77,
      "hit": false,
      "t": 209534.3074999997,
      "d": 133.23606770831975,
      "v": 114
    },
    {
      "midi": 75,
      "hit": false,
      "t": 209534.3075000006,
      "d": 125.96864583334536,
      "v": 113
    },
    {
      "midi": 63,
      "hit": false,
      "t": 209534.3075000006,
      "d": 128.39111979168956,
      "v": 108
    },
    {
      "midi": 72,
      "hit": false,
      "t": 209541.57492187634,
      "d": 128.39111979166046,
      "v": 98
    },
    {
      "midi": 69,
      "hit": false,
      "t": 209543.99739583375,
      "d": 232.55749999999534,
      "v": 103
    },
    {
      "midi": 65,
      "hit": false,
      "t": 209546.419869793,
      "d": 125.96864583334536,
      "v": 92
    },
    {
      "midi": 69,
      "hit": false,
      "t": 209548.84234375134,
      "d": 125.96864583334536,
      "v": 92
    },
    {
      "midi": 63,
      "hit": false,
      "t": 209553.68729166672,
      "d": 118.70122395834187,
      "v": 93
    },
    {
      "midi": 77,
      "hit": false,
      "t": 209766.86500000063,
      "d": 123.54617187500116,
      "v": 117
    },
    {
      "midi": 65,
      "hit": false,
      "t": 209766.86500000063,
      "d": 128.39111979166046,
      "v": 115
    },
    {
      "midi": 70,
      "hit": false,
      "t": 209776.55489583468,
      "d": 123.54617187503027,
      "v": 90
    },
    {
      "midi": 65,
      "hit": false,
      "t": 209778.97736979302,
      "d": 123.54617187503027,
      "v": 89
    },
    {
      "midi": 69,
      "hit": false,
      "t": 209781.3998437504,
      "d": 230.13502604168025,
      "v": 97
    },
    {
      "midi": 29,
      "hit": false,
      "t": 209781.39984375087,
      "d": 467.5374739583349,
      "v": 104
    },
    {
      "midi": 74,
      "hit": false,
      "t": 209781.39984375137,
      "d": 125.96864583334536,
      "v": 97
    },
    {
      "midi": 65,
      "hit": false,
      "t": 209783.8223177084,
      "d": 118.70122395834187,
      "v": 98
    },
    {
      "midi": 70,
      "hit": false,
      "t": 209883.1437499997,
      "d": 729.1646614583442,
      "v": 110
    },
    {
      "midi": 77,
      "hit": false,
      "t": 209999.42250000063,
      "d": 125.96864583334536,
      "v": 113
    },
    {
      "midi": 65,
      "hit": false,
      "t": 209999.42250000063,
      "d": 128.39111979168956,
      "v": 114
    },
    {
      "midi": 65,
      "hit": false,
      "t": 210001.8449739597,
      "d": 128.39111979168956,
      "v": 92
    },
    {
      "midi": 74,
      "hit": false,
      "t": 210004.26744791804,
      "d": 130.81359375000466,
      "v": 102
    },
    {
      "midi": 70,
      "hit": false,
      "t": 210006.6899218764,
      "d": 128.39111979166046,
      "v": 97
    },
    {
      "midi": 69,
      "hit": false,
      "t": 210011.53486979209,
      "d": 239.82492187499884,
      "v": 94
    },
    {
      "midi": 65,
      "hit": false,
      "t": 210023.6472395834,
      "d": 118.70122395834187,
      "v": 101
    },
    {
      "midi": 77,
      "hit": false,
      "t": 210231.98000000065,
      "d": 121.12369791665697,
      "v": 112
    },
    {
      "midi": 65,
      "hit": false,
      "t": 210231.98000000065,
      "d": 125.96864583331626,
      "v": 116
    },
    {
      "midi": 34,
      "hit": false,
      "t": 210241.6698958342,
      "d": 239.82492187499884,
      "v": 103
    },
    {
      "midi": 70,
      "hit": false,
      "t": 210241.66989583473,
      "d": 123.54617187500116,
      "v": 102
    },
    {
      "midi": 65,
      "hit": false,
      "t": 210248.93731770973,
      "d": 121.12369791665697,
      "v": 99
    },
    {
      "midi": 74,
      "hit": false,
      "t": 210248.93731770973,
      "d": 123.54617187500116,
      "v": 99
    },
    {
      "midi": 70,
      "hit": false,
      "t": 210253.78226562543,
      "d": 230.13502604168025,
      "v": 99
    },
    {
      "midi": 65,
      "hit": false,
      "t": 210256.2047395834,
      "d": 111.43380208333838,
      "v": 98
    },
    {
      "midi": 62,
      "hit": false,
      "t": 210258.6272135427,
      "d": 1858.0375260416768,
      "v": 101
    },
    {
      "midi": 70,
      "hit": false,
      "t": 210261.04968750104,
      "d": 1862.882473958336,
      "v": 96
    },
    {
      "midi": 65,
      "hit": false,
      "t": 210263.4721614594,
      "d": 1858.0375260416477,
      "v": 95
    },
    {
      "midi": 70,
      "hit": false,
      "t": 210348.25875000065,
      "d": 125.96864583331626,
      "v": 110
    },
    {
      "midi": 58,
      "hit": false,
      "t": 210348.25875000065,
      "d": 128.39111979166046,
      "v": 110
    },
    {
      "midi": 65,
      "hit": false,
      "t": 210580.81625000064,
      "d": 116.27874999999767,
      "v": 117
    },
    {
      "midi": 77,
      "hit": false,
      "t": 210580.81625000064,
      "d": 116.27874999999767,
      "v": 115
    },
    {
      "midi": 77,
      "hit": false,
      "t": 210697.09500000064,
      "d": 125.96864583334536,
      "v": 117
    },
    {
      "midi": 65,
      "hit": false,
      "t": 210697.09500000064,
      "d": 128.39111979168956,
      "v": 115
    },
    {
      "midi": 65,
      "hit": false,
      "t": 210706.78489583379,
      "d": 244.66986979168723,
      "v": 90
    },
    {
      "midi": 29,
      "hit": false,
      "t": 210934.49744791753,
      "d": 244.66986979165813,
      "v": 105
    },
    {
      "midi": 70,
      "hit": false,
      "t": 210941.76486979212,
      "d": 242.24739583334303,
      "v": 96
    },
    {
      "midi": 34,
      "hit": false,
      "t": 211167.05494791752,
      "d": 242.24739583334303,
      "v": 107
    },
    {
      "midi": 65,
      "hit": false,
      "t": 211406.87986979214,
      "d": 232.55749999999534,
      "v": 96
    },
    {
      "midi": 65,
      "hit": false,
      "t": 211634.59242187638,
      "d": 123.54617187500116,
      "v": 95
    },
    {
      "midi": 70,
      "hit": false,
      "t": 211637.01489583473,
      "d": 123.54617187500116,
      "v": 91
    },
    {
      "midi": 65,
      "hit": false,
      "t": 211639.43736979214,
      "d": 230.13502604168025,
      "v": 92
    },
    {
      "midi": 34,
      "hit": false,
      "t": 211641.85984375086,
      "d": 462.6925260416756,
      "v": 103
    },
    {
      "midi": 74,
      "hit": false,
      "t": 211644.28231770973,
      "d": 125.96864583334536,
      "v": 90
    },
    {
      "midi": 65,
      "hit": false,
      "t": 211651.5497395834,
      "d": 116.27874999999767,
      "v": 95
    },
    {
      "midi": 65,
      "hit": false,
      "t": 211869.57239583382,
      "d": 239.82492187499884,
      "v": 91
    },
    {
      "midi": 70,
      "hit": false,
      "t": 211869.57239583475,
      "d": 128.39111979168956,
      "v": 98
    },
    {
      "midi": 65,
      "hit": false,
      "t": 211871.9948697931,
      "d": 125.96864583334536,
      "v": 102
    },
    {
      "midi": 74,
      "hit": false,
      "t": 211871.9948697931,
      "d": 128.39111979168956,
      "v": 92
    },
    {
      "midi": 65,
      "hit": false,
      "t": 211881.68476562505,
      "d": 118.70122395834187,
      "v": 102
    },
    {
      "midi": 77,
      "hit": false,
      "t": 212092.44000000067,
      "d": 118.70122395834187,
      "v": 112
    },
    {
      "midi": 65,
      "hit": false,
      "t": 212092.44000000067,
      "d": 125.96864583334536,
      "v": 108
    },
    {
      "midi": 34,
      "hit": false,
      "t": 212104.55236979254,
      "d": 234.97997395833954,
      "v": 106
    },
    {
      "midi": 70,
      "hit": false,
      "t": 212104.55236979312,
      "d": 121.12369791668607,
      "v": 91
    },
    {
      "midi": 65,
      "hit": false,
      "t": 212111.81979166812,
      "d": 118.70122395834187,
      "v": 97
    },
    {
      "midi": 65,
      "hit": false,
      "t": 212114.24226562548,
      "d": 227.71255208333605,
      "v": 95
    },
    {
      "midi": 74,
      "hit": false,
      "t": 212114.24226562647,
      "d": 121.12369791665697,
      "v": 91
    },
    {
      "midi": 65,
      "hit": false,
      "t": 212119.08721354173,
      "d": 111.43380208333838,
      "v": 97
    },
    {
      "midi": 62,
      "hit": false,
      "t": 212121.50968750103,
      "d": 1865.3049479166802,
      "v": 97
    },
    {
      "midi": 70,
      "hit": false,
      "t": 212126.35463541772,
      "d": 1865.3049479166511,
      "v": 97
    },
    {
      "midi": 65,
      "hit": false,
      "t": 212126.35463541772,
      "d": 1867.7274218749953,
      "v": 96
    },
    {
      "midi": 70,
      "hit": false,
      "t": 212208.71875000067,
      "d": 125.96864583334536,
      "v": 117
    },
    {
      "midi": 58,
      "hit": false,
      "t": 212208.71875000067,
      "d": 128.39111979168956,
      "v": 115
    },
    {
      "midi": 82,
      "hit": false,
      "t": 212334.6873958338,
      "d": 242.24739583334303,
      "v": 98
    },
    {
      "midi": 65,
      "hit": false,
      "t": 212441.2762500007,
      "d": 128.39111979166046,
      "v": 111
    },
    {
      "midi": 77,
      "hit": false,
      "t": 212441.2762500007,
      "d": 133.23606770831975,
      "v": 118
    },
    {
      "midi": 81,
      "hit": false,
      "t": 212569.66736979215,
      "d": 239.82492187499884,
      "v": 101
    },
    {
      "midi": 65,
      "hit": false,
      "t": 212572.0898437505,
      "d": 239.82492187499884,
      "v": 99
    },
    {
      "midi": 29,
      "hit": false,
      "t": 212799.8023958342,
      "d": 244.66986979165813,
      "v": 101
    },
    {
      "midi": 82,
      "hit": false,
      "t": 212802.22486979215,
      "d": 242.24739583334303,
      "v": 91
    },
    {
      "midi": 77,
      "hit": false,
      "t": 213022.67000000068,
      "d": 123.54617187500116,
      "v": 112
    },
    {
      "midi": 65,
      "hit": false,
      "t": 213022.67000000068,
      "d": 128.39111979166046,
      "v": 117
    },
    {
      "midi": 34,
      "hit": false,
      "t": 213027.51494791755,
      "d": 242.24739583331393,
      "v": 104
    },
    {
      "midi": 65,
      "hit": false,
      "t": 213032.3598958348,
      "d": 123.54617187500116,
      "v": 98
    },
    {
      "midi": 70,
      "hit": false,
      "t": 213034.78236979313,
      "d": 125.96864583331626,
      "v": 100
    },
    {
      "midi": 74,
      "hit": false,
      "t": 213034.78236979313,
      "d": 125.96864583331626,
      "v": 102
    },
    {
      "midi": 65,
      "hit": false,
      "t": 213037.2048437505,
      "d": 232.55749999999534,
      "v": 90
    },
    {
      "midi": 86,
      "hit": false,
      "t": 213037.2048437505,
      "d": 239.82492187499884,
      "v": 98
    },
    {
      "midi": 65,
      "hit": false,
      "t": 213049.31721354174,
      "d": 113.85627604165347,
      "v": 96
    },
    {
      "midi": 77,
      "hit": false,
      "t": 213255.22750000068,
      "d": 123.54617187500116,
      "v": 108
    },
    {
      "midi": 65,
      "hit": false,
      "t": 213255.22750000068,
      "d": 128.39111979166046,
      "v": 117
    },
    {
      "midi": 65,
      "hit": false,
      "t": 213264.91739583478,
      "d": 123.54617187500116,
      "v": 90
    },
    {
      "midi": 74,
      "hit": false,
      "t": 213264.91739583478,
      "d": 125.96864583334536,
      "v": 96
    },
    {
      "midi": 70,
      "hit": false,
      "t": 213267.33986979313,
      "d": 125.96864583334536,
      "v": 97
    },
    {
      "midi": 65,
      "hit": false,
      "t": 213269.76234375048,
      "d": 230.13502604168025,
      "v": 104
    },
    {
      "midi": 82,
      "hit": false,
      "t": 213269.76234375048,
      "d": 239.82492187499884,
      "v": 103
    },
    {
      "midi": 65,
      "hit": false,
      "t": 213281.87471354174,
      "d": 113.85627604165347,
      "v": 95
    },
    {
      "midi": 79,
      "hit": false,
      "t": 213487.78500000067,
      "d": 121.12369791665697,
      "v": 109
    },
    {
      "midi": 67,
      "hit": false,
      "t": 213487.78500000067,
      "d": 128.39111979166046,
      "v": 108
    },
    {
      "midi": 34,
      "hit": false,
      "t": 213495.05242187585,
      "d": 469.9599479166791,
      "v": 107
    },
    {
      "midi": 72,
      "hit": false,
      "t": 213497.4748958348,
      "d": 123.54617187500116,
      "v": 89
    },
    {
      "midi": 65,
      "hit": false,
      "t": 213499.89736979216,
      "d": 230.13502604165114,
      "v": 101
    },
    {
      "midi": 67,
      "hit": false,
      "t": 213502.31984375147,
      "d": 121.12369791668607,
      "v": 90
    },
    {
      "midi": 81,
      "hit": false,
      "t": 213504.74231770882,
      "d": 237.40244791668374,
      "v": 103
    },
    {
      "midi": 75,
      "hit": false,
      "t": 213504.7423177098,
      "d": 125.96864583334536,
      "v": 100
    },
    {
      "midi": 67,
      "hit": false,
      "t": 213516.85468750005,
      "d": 111.43380208333838,
      "v": 98
    },
    {
      "midi": 79,
      "hit": false,
      "t": 213720.34250000067,
      "d": 125.96864583334536,
      "v": 110
    },
    {
      "midi": 67,
      "hit": false,
      "t": 213720.34250000067,
      "d": 128.39111979168956,
      "v": 108
    },
    {
      "midi": 67,
      "hit": false,
      "t": 213727.6099218765,
      "d": 125.96864583334536,
      "v": 90
    },
    {
      "midi": 72,
      "hit": false,
      "t": 213730.03239583483,
      "d": 128.39111979166046,
      "v": 92
    },
    {
      "midi": 75,
      "hit": false,
      "t": 213730.03239583483,
      "d": 128.39111979166046,
      "v": 90
    },
    {
      "midi": 65,
      "hit": false,
      "t": 213737.29981770882,
      "d": 239.82492187502794,
      "v": 94
    },
    {
      "midi": 82,
      "hit": false,
      "t": 213739.72229166716,
      "d": 242.24739583337214,
      "v": 94
    },
    {
      "midi": 67,
      "hit": false,
      "t": 213746.98971354173,
      "d": 111.43380208333838,
      "v": 92
    },
    {
      "midi": 79,
      "hit": false,
      "t": 213952.9000000007,
      "d": 118.70122395834187,
      "v": 108
    },
    {
      "midi": 67,
      "hit": false,
      "t": 213952.9000000007,
      "d": 123.54617187500116,
      "v": 117
    },
    {
      "midi": 72,
      "hit": false,
      "t": 213965.01236979317,
      "d": 121.12369791665697,
      "v": 94
    },
    {
      "midi": 67,
      "hit": false,
      "t": 213967.43484375151,
      "d": 121.12369791665697,
      "v": 95
    },
    {
      "midi": 39,
      "hit": false,
      "t": 213969.8573177092,
      "d": 234.97997395833954,
      "v": 105
    },
    {
      "midi": 75,
      "hit": false,
      "t": 213972.27979166817,
      "d": 123.54617187500116,
      "v": 93
    },
    {
      "midi": 67,
      "hit": false,
      "t": 213979.5472135422,
      "d": 225.29007812502095,
      "v": 89
    },
    {
      "midi": 84,
      "hit": false,
      "t": 213984.39216145888,
      "d": 227.71255208333605,
      "v": 90
    },
    {
      "midi": 67,
      "hit": false,
      "t": 213989.23710937507,
      "d": 101.74390624999069,
      "v": 92
    },
    {
      "midi": 63,
      "hit": false,
      "t": 213991.65958333437,
      "d": 1855.6150520833617,
      "v": 96
    },
    {
      "midi": 67,
      "hit": false,
      "t": 213994.08205729272,
      "d": 1858.0375260417059,
      "v": 100
    },
    {
      "midi": 70,
      "hit": false,
      "t": 213996.50453125106,
      "d": 1853.1925781250175,
      "v": 97
    },
    {
      "midi": 70,
      "hit": false,
      "t": 214069.1787500007,
      "d": 125.96864583334536,
      "v": 110
    },
    {
      "midi": 58,
      "hit": false,
      "t": 214069.1787500007,
      "d": 128.39111979168956,
      "v": 113
    },
    {
      "midi": 67,
      "hit": false,
      "t": 214301.73625000071,
      "d": 125.96864583334536,
      "v": 109
    },
    {
      "midi": 79,
      "hit": false,
      "t": 214301.73625000071,
      "d": 128.39111979168956,
      "v": 117
    },
    {
      "midi": 67,
      "hit": false,
      "t": 214430.1273697922,
      "d": 244.66986979165813,
      "v": 89
    },
    {
      "midi": 34,
      "hit": false,
      "t": 214652.9949739592,
      "d": 242.24739583334303,
      "v": 108
    },
    {
      "midi": 67,
      "hit": false,
      "t": 214887.9749479172,
      "d": 234.97997395833954,
      "v": 99
    },
    {
      "midi": 39,
      "hit": false,
      "t": 214887.97494791754,
      "d": 242.24739583334303,
      "v": 102
    },
    {
      "midi": 67,
      "hit": false,
      "t": 215127.7998697922,
      "d": 234.97997395833954,
      "v": 99
    },
    {
      "midi": 82,
      "hit": false,
      "t": 215132.64481770885,
      "d": 242.24739583337214,
      "v": 91
    },
    {
      "midi": 79,
      "hit": false,
      "t": 215348.24500000075,
      "d": 121.12369791665697,
      "v": 111
    },
    {
      "midi": 67,
      "hit": false,
      "t": 215348.24500000075,
      "d": 128.39111979166046,
      "v": 116
    },
    {
      "midi": 39,
      "hit": false,
      "t": 215357.93489583422,
      "d": 469.9599479166791,
      "v": 104
    },
    {
      "midi": 67,
      "hit": false,
      "t": 215357.93489583483,
      "d": 123.54617187500116,
      "v": 101
    },
    {
      "midi": 72,
      "hit": false,
      "t": 215357.93489583483,
      "d": 123.54617187500116,
      "v": 94
    },
    {
      "midi": 67,
      "hit": false,
      "t": 215362.77984375053,
      "d": 232.55750000002445,
      "v": 98
    },
    {
      "midi": 75,
      "hit": false,
      "t": 215362.7798437515,
      "d": 125.96864583334536,
      "v": 99
    },
    {
      "midi": 81,
      "hit": false,
      "t": 215365.20231770887,
      "d": 237.40244791668374,
      "v": 99
    },
    {
      "midi": 67,
      "hit": false,
      "t": 215379.73716145838,
      "d": 111.43380208333838,
      "v": 101
    },
    {
      "midi": 79,
      "hit": false,
      "t": 215580.80250000075,
      "d": 125.96864583334536,
      "v": 113
    },
    {
      "midi": 67,
      "hit": false,
      "t": 215580.80250000075,
      "d": 128.39111979168956,
      "v": 113
    },
    {
      "midi": 72,
      "hit": false,
      "t": 215588.0699218765,
      "d": 128.39111979168956,
      "v": 94
    },
    {
      "midi": 75,
      "hit": false,
      "t": 215588.0699218765,
      "d": 128.39111979168956,
      "v": 98
    },
    {
      "midi": 67,
      "hit": false,
      "t": 215590.49239583485,
      "d": 125.96864583334536,
      "v": 99
    },
    {
      "midi": 67,
      "hit": false,
      "t": 215595.33734375055,
      "d": 239.82492187499884,
      "v": 89
    },
    {
      "midi": 82,
      "hit": false,
      "t": 215600.1822916672,
      "d": 242.24739583334303,
      "v": 97
    },
    {
      "midi": 67,
      "hit": false,
      "t": 215607.44971354172,
      "d": 109.01132812499418,
      "v": 97
    },
    {
      "midi": 77,
      "hit": false,
      "t": 215813.36000000077,
      "d": 116.27874999999767,
      "v": 114
    },
    {
      "midi": 65,
      "hit": false,
      "t": 215813.36000000077,
      "d": 123.54617187500116,
      "v": 107
    },
    {
      "midi": 65,
      "hit": false,
      "t": 215827.89484375154,
      "d": 118.70122395834187,
      "v": 102
    },
    {
      "midi": 70,
      "hit": false,
      "t": 215827.89484375154,
      "d": 118.70122395834187,
      "v": 95
    },
    {
      "midi": 34,
      "hit": false,
      "t": 215830.31731770924,
      "d": 232.55749999999534,
      "v": 106
    },
    {
      "midi": 74,
      "hit": false,
      "t": 215835.16226562654,
      "d": 121.12369791668607,
      "v": 93
    },
    {
      "midi": 65,
      "hit": false,
      "t": 215837.5847395839,
      "d": 225.29007812499185,
      "v": 91
    },
    {
      "midi": 65,
      "hit": false,
      "t": 215842.42968750006,
      "d": 106.58885416667908,
      "v": 94
    },
    {
      "midi": 62,
      "hit": false,
      "t": 215844.8521614594,
      "d": 1860.460000000021,
      "v": 103
    },
    {
      "midi": 65,
      "hit": false,
      "t": 215847.27463541774,
      "d": 1860.460000000021,
      "v": 99
    },
    {
      "midi": 70,
      "hit": false,
      "t": 215849.69710937608,
      "d": 1860.460000000021,
      "v": 92
    },
    {
      "midi": 70,
      "hit": false,
      "t": 215929.63875000077,
      "d": 125.96864583334536,
      "v": 115
    },
    {
      "midi": 58,
      "hit": false,
      "t": 215929.63875000077,
      "d": 128.39111979168956,
      "v": 117
    },
    {
      "midi": 82,
      "hit": false,
      "t": 216055.60739583388,
      "d": 242.24739583334303,
      "v": 96
    },
    {
      "midi": 65,
      "hit": false,
      "t": 216162.1962500008,
      "d": 128.39111979166046,
      "v": 108
    },
    {
      "midi": 77,
      "hit": false,
      "t": 216162.1962500008,
      "d": 133.23606770831975,
      "v": 108
    },
    {
      "midi": 65,
      "hit": false,
      "t": 216290.58736979222,
      "d": 242.24739583334303,
      "v": 89
    },
    {
      "midi": 81,
      "hit": false,
      "t": 216295.43231770888,
      "d": 239.82492187502794,
      "v": 91
    },
    {
      "midi": 29,
      "hit": false,
      "t": 216518.2999218759,
      "d": 244.66986979165813,
      "v": 101
    },
    {
      "midi": 82,
      "hit": false,
      "t": 216523.14486979222,
      "d": 239.82492187499884,
      "v": 93
    },
    {
      "midi": 77,
      "hit": false,
      "t": 216743.59000000078,
      "d": 123.54617187500116,
      "v": 112
    },
    {
      "midi": 65,
      "hit": false,
      "t": 216743.59000000078,
      "d": 128.39111979166046,
      "v": 114
    },
    {
      "midi": 65,
      "hit": false,
      "t": 216753.2798958339,
      "d": 234.97997395831044,
      "v": 103
    },
    {
      "midi": 70,
      "hit": false,
      "t": 216753.2798958349,
      "d": 123.54617187500116,
      "v": 95
    },
    {
      "midi": 74,
      "hit": false,
      "t": 216753.2798958349,
      "d": 125.96864583334536,
      "v": 89
    },
    {
      "midi": 34,
      "hit": false,
      "t": 216755.70236979256,
      "d": 239.82492187499884,
      "v": 107
    },
    {
      "midi": 86,
      "hit": false,
      "t": 216758.12484375056,
      "d": 239.82492187496973,
      "v": 103
    },
    {
      "midi": 65,
      "hit": false,
      "t": 216758.12484375155,
      "d": 123.54617187503027,
      "v": 90
    },
    {
      "midi": 65,
      "hit": false,
      "t": 216767.8147395834,
      "d": 116.27874999999767,
      "v": 94
    },
    {
      "midi": 77,
      "hit": false,
      "t": 216976.14750000078,
      "d": 123.54617187500116,
      "v": 117
    },
    {
      "midi": 65,
      "hit": false,
      "t": 216976.14750000078,
      "d": 128.39111979166046,
      "v": 108
    },
    {
      "midi": 65,
      "hit": false,
      "t": 216983.41492187657,
      "d": 123.54617187500116,
      "v": 98
    },
    {
      "midi": 70,
      "hit": false,
      "t": 216983.41492187657,
      "d": 125.96864583334536,
      "v": 102
    },
    {
      "midi": 74,
      "hit": false,
      "t": 216990.68234375157,
      "d": 125.96864583334536,
      "v": 89
    },
    {
      "midi": 65,
      "hit": false,
      "t": 216993.10481770887,
      "d": 232.55749999999534,
      "v": 97
    },
    {
      "midi": 82,
      "hit": false,
      "t": 216997.94976562553,
      "d": 237.40244791668374,
      "v": 89
    },
    {
      "midi": 65,
      "hit": false,
      "t": 217000.3722395834,
      "d": 111.43380208333838,
      "v": 95
    },
    {
      "midi": 79,
      "hit": false,
      "t": 217208.70500000077,
      "d": 121.12369791665697,
      "v": 111
    },
    {
      "midi": 67,
      "hit": false,
      "t": 217208.70500000077,
      "d": 128.39111979166046,
      "v": 115
    },
    {
      "midi": 81,
      "hit": false,
      "t": 217223.23984375052,
      "d": 237.40244791671284,
      "v": 98
    },
    {
      "midi": 34,
      "hit": false,
      "t": 217223.2398437509,
      "d": 469.9599479166791,
      "v": 111
    },
    {
      "midi": 75,
      "hit": false,
      "t": 217223.2398437516,
      "d": 125.96864583334536,
      "v": 100
    },
    {
      "midi": 65,
      "hit": false,
      "t": 217225.66231770886,
      "d": 227.71255208336515,
      "v": 90
    },
    {
      "midi": 67,
      "hit": false,
      "t": 217225.66231770994,
      "d": 121.12369791665697,
      "v": 94
    },
    {
      "midi": 72,
      "hit": false,
      "t": 217225.66231770994,
      "d": 123.54617187500116,
      "v": 90
    },
    {
      "midi": 67,
      "hit": false,
      "t": 217237.7746875001,
      "d": 111.43380208333838,
      "v": 93
    },
    {
      "midi": 79,
      "hit": false,
      "t": 217441.26250000077,
      "d": 125.96864583334536,
      "v": 109
    },
    {
      "midi": 67,
      "hit": false,
      "t": 217441.26250000077,
      "d": 128.39111979168956,
      "v": 117
    },
    {
      "midi": 72,
      "hit": false,
      "t": 217448.52992187662,
      "d": 128.39111979168956,
      "v": 89
    },
    {
      "midi": 75,
      "hit": false,
      "t": 217448.52992187662,
      "d": 128.39111979168956,
      "v": 99
    },
    {
      "midi": 82,
      "hit": false,
      "t": 217450.95239583388,
      "d": 242.24739583334303,
      "v": 90
    },
    {
      "midi": 67,
      "hit": false,
      "t": 217450.95239583496,
      "d": 125.96864583334536,
      "v": 89
    },
    {
      "midi": 65,
      "hit": false,
      "t": 217453.37486979223,
      "d": 239.82492187499884,
      "v": 98
    },
    {
      "midi": 67,
      "hit": false,
      "t": 217470.33218750008,
      "d": 111.43380208333838,
      "v": 92
    },
    {
      "midi": 77,
      "hit": false,
      "t": 217673.8200000008,
      "d": 118.70122395834187,
      "v": 114
    },
    {
      "midi": 65,
      "hit": false,
      "t": 217673.8200000008,
      "d": 123.54617187500116,
      "v": 115
    },
    {
      "midi": 67,
      "hit": false,
      "t": 217685.9323697933,
      "d": 121.12369791668607,
      "v": 103
    },
    {
      "midi": 75,
      "hit": false,
      "t": 217685.9323697933,
      "d": 123.54617187503027,
      "v": 100
    },
    {
      "midi": 72,
      "hit": false,
      "t": 217688.35484375164,
      "d": 121.12369791668607,
      "v": 92
    },
    {
      "midi": 29,
      "hit": false,
      "t": 217690.77731770923,
      "d": 234.97997395833954,
      "v": 110
    },
    {
      "midi": 69,
      "hit": false,
      "t": 217698.0447395839,
      "d": 225.29007812502095,
      "v": 102
    },
    {
      "midi": 84,
      "hit": false,
      "t": 217700.46721354223,
      "d": 227.71255208333605,
      "v": 94
    },
    {
      "midi": 60,
      "hit": false,
      "t": 217710.1571093761,
      "d": 1855.6150520833326,
      "v": 101
    },
    {
      "midi": 67,
      "hit": false,
      "t": 217712.57958333343,
      "d": 104.16638020833489,
      "v": 95
    },
    {
      "midi": 65,
      "hit": false,
      "t": 217715.00205729276,
      "d": 1853.1925781250175,
      "v": 97
    },
    {
      "midi": 69,
      "hit": false,
      "t": 217717.4245312511,
      "d": 1858.0375260416768,
      "v": 98
    },
    {
      "midi": 72,
      "hit": false,
      "t": 217790.0987500008,
      "d": 125.96864583334536,
      "v": 118
    },
    {
      "midi": 60,
      "hit": false,
      "t": 217790.0987500008,
      "d": 128.39111979168956,
      "v": 113
    },
    {
      "midi": 65,
      "hit": false,
      "t": 218022.65625000081,
      "d": 116.27874999999767,
      "v": 114
    },
    {
      "midi": 77,
      "hit": false,
      "t": 218022.65625000081,
      "d": 116.27874999999767,
      "v": 116
    },
    {
      "midi": 77,
      "hit": false,
      "t": 218138.9350000008,
      "d": 123.54617187500116,
      "v": 111
    },
    {
      "midi": 65,
      "hit": false,
      "t": 218138.9350000008,
      "d": 128.39111979166046,
      "v": 117
    },
    {
      "midi": 69,
      "hit": false,
      "t": 218146.20242187555,
      "d": 244.66986979165813,
      "v": 103
    },
    {
      "midi": 41,
      "hit": false,
      "t": 218381.18239583424,
      "d": 477.2273697916826,
      "v": 104
    },
    {
      "midi": 69,
      "hit": false,
      "t": 218613.7398958339,
      "d": 232.55749999999534,
      "v": 96
    },
    {
      "midi": 29,
      "hit": false,
      "t": 218616.16236979258,
      "d": 7.2674218750034925,
      "v": 105
    },
    {
      "midi": 69,
      "hit": false,
      "t": 218846.29739583388,
      "d": 234.97997395833954,
      "v": 93
    },
    {
      "midi": 82,
      "hit": false,
      "t": 218846.29739583388,
      "d": 244.66986979168723,
      "v": 90
    },
    {
      "midi": 79,
      "hit": false,
      "t": 219069.1650000008,
      "d": 121.12369791665697,
      "v": 117
    },
    {
      "midi": 67,
      "hit": false,
      "t": 219069.1650000008,
      "d": 128.39111979166046,
      "v": 116
    },
    {
      "midi": 69,
      "hit": false,
      "t": 219081.27736979222,
      "d": 230.13502604168025,
      "v": 94
    },
    {
      "midi": 67,
      "hit": false,
      "t": 219081.27736979333,
      "d": 121.12369791668607,
      "v": 90
    },
    {
      "midi": 29,
      "hit": false,
      "t": 219083.69984375092,
      "d": 469.95994791665,
      "v": 105
    },
    {
      "midi": 72,
      "hit": false,
      "t": 219083.69984375167,
      "d": 123.54617187500116,
      "v": 91
    },
    {
      "midi": 75,
      "hit": false,
      "t": 219086.12231771002,
      "d": 125.96864583331626,
      "v": 90
    },
    {
      "midi": 81,
      "hit": false,
      "t": 219088.54479166723,
      "d": 237.40244791668374,
      "v": 101
    },
    {
      "midi": 67,
      "hit": false,
      "t": 219093.38973958342,
      "d": 113.85627604165347,
      "v": 97
    },
    {
      "midi": 79,
      "hit": false,
      "t": 219301.7225000008,
      "d": 125.96864583334536,
      "v": 111
    },
    {
      "midi": 67,
      "hit": false,
      "t": 219301.7225000008,
      "d": 128.39111979168956,
      "v": 118
    },
    {
      "midi": 72,
      "hit": false,
      "t": 219308.98992187667,
      "d": 128.39111979166046,
      "v": 93
    },
    {
      "midi": 67,
      "hit": false,
      "t": 219311.412395835,
      "d": 125.96864583331626,
      "v": 93
    },
    {
      "midi": 75,
      "hit": false,
      "t": 219316.25734375167,
      "d": 128.39111979166046,
      "v": 97
    },
    {
      "midi": 69,
      "hit": false,
      "t": 219318.6798177089,
      "d": 242.24739583334303,
      "v": 91
    },
    {
      "midi": 82,
      "hit": false,
      "t": 219321.10229166725,
      "d": 242.24739583334303,
      "v": 91
    },
    {
      "midi": 67,
      "hit": false,
      "t": 219325.94723958342,
      "d": 111.43380208333838,
      "v": 98
    },
    {
      "midi": 77,
      "hit": false,
      "t": 219534.2800000008,
      "d": 116.27874999999767,
      "v": 113
    },
    {
      "midi": 65,
      "hit": false,
      "t": 219534.2800000008,
      "d": 123.54617187500116,
      "v": 109
    },
    {
      "midi": 34,
      "hit": false,
      "t": 219548.8148437509,
      "d": 234.97997395833954,
      "v": 102
    },
    {
      "midi": 74,
      "hit": false,
      "t": 219548.81484375166,
      "d": 121.12369791665697,
      "v": 103
    },
    {
      "midi": 65,
      "hit": false,
      "t": 219553.65979166832,
      "d": 118.70122395834187,
      "v": 95
    },
    {
      "midi": 70,
      "hit": false,
      "t": 219553.65979166832,
      "d": 121.12369791668607,
      "v": 95
    },
    {
      "midi": 62,
      "hit": false,
      "t": 219565.77216145943,
      "d": 1860.460000000021,
      "v": 100
    },
    {
      "midi": 65,
      "hit": false,
      "t": 219568.19463541676,
      "d": 106.58885416667908,
      "v": 93
    },
    {
      "midi": 65,
      "hit": false,
      "t": 219568.19463541725,
      "d": 222.86760416667676,
      "v": 95
    },
    {
      "midi": 65,
      "hit": false,
      "t": 219568.19463541778,
      "d": 1862.882473958336,
      "v": 101
    },
    {
      "midi": 70,
      "hit": false,
      "t": 219575.46205729278,
      "d": 1860.460000000021,
      "v": 102
    },
    {
      "midi": 70,
      "hit": false,
      "t": 219650.5587500008,
      "d": 125.96864583334536,
      "v": 111
    },
    {
      "midi": 58,
      "hit": false,
      "t": 219650.5587500008,
      "d": 128.39111979168956,
      "v": 115
    },
    {
      "midi": 82,
      "hit": false,
      "t": 219776.52739583392,
      "d": 242.24739583334303,
      "v": 90
    },
    {
      "midi": 65,
      "hit": false,
      "t": 219883.11625000084,
      "d": 128.39111979166046,
      "v": 111
    },
    {
      "midi": 77,
      "hit": false,
      "t": 219883.11625000084,
      "d": 133.23606770831975,
      "v": 117
    },
    {
      "midi": 65,
      "hit": false,
      "t": 220016.35231770892,
      "d": 239.82492187499884,
      "v": 100
    },
    {
      "midi": 81,
      "hit": false,
      "t": 220016.35231770892,
      "d": 239.82492187499884,
      "v": 94
    },
    {
      "midi": 29,
      "hit": false,
      "t": 220241.64239583423,
      "d": 244.66986979165813,
      "v": 103
    },
    {
      "midi": 82,
      "hit": false,
      "t": 220244.06486979226,
      "d": 239.82492187499884,
      "v": 89
    },
    {
      "midi": 77,
      "hit": false,
      "t": 220464.51000000082,
      "d": 123.54617187500116,
      "v": 107
    },
    {
      "midi": 65,
      "hit": false,
      "t": 220464.51000000082,
      "d": 128.39111979166046,
      "v": 109
    },
    {
      "midi": 65,
      "hit": false,
      "t": 220471.77742187667,
      "d": 123.54617187503027,
      "v": 102
    },
    {
      "midi": 34,
      "hit": false,
      "t": 220474.19989583423,
      "d": 239.82492187499884,
      "v": 112
    },
    {
      "midi": 70,
      "hit": false,
      "t": 220474.19989583502,
      "d": 125.96864583334536,
      "v": 97
    },
    {
      "midi": 86,
      "hit": false,
      "t": 220476.62236979225,
      "d": 239.82492187499884,
      "v": 100
    },
    {
      "midi": 74,
      "hit": false,
      "t": 220476.62236979336,
      "d": 125.96864583334536,
      "v": 99
    },
    {
      "midi": 65,
      "hit": false,
      "t": 220479.0448437506,
      "d": 234.97997395831044,
      "v": 90
    },
    {
      "midi": 65,
      "hit": false,
      "t": 220483.88979166676,
      "d": 116.27874999999767,
      "v": 101
    },
    {
      "midi": 77,
      "hit": false,
      "t": 220697.06750000082,
      "d": 123.54617187500116,
      "v": 112
    },
    {
      "midi": 65,
      "hit": false,
      "t": 220697.06750000082,
      "d": 128.39111979166046,
      "v": 110
    },
    {
      "midi": 82,
      "hit": false,
      "t": 220709.17986979225,
      "d": 239.82492187502794,
      "v": 100
    },
    {
      "midi": 65,
      "hit": false,
      "t": 220711.6023437517,
      "d": 123.54617187500116,
      "v": 91
    },
    {
      "midi": 70,
      "hit": false,
      "t": 220711.6023437517,
      "d": 125.96864583334536,
      "v": 96
    },
    {
      "midi": 74,
      "hit": false,
      "t": 220711.6023437517,
      "d": 125.96864583334536,
      "v": 94
    },
    {
      "midi": 65,
      "hit": false,
      "t": 220714.0248177089,
      "d": 232.55750000002445,
      "v": 89
    },
    {
      "midi": 65,
      "hit": false,
      "t": 220726.1371875001,
      "d": 111.43380208333838,
      "v": 102
    },
    {
      "midi": 79,
      "hit": false,
      "t": 220929.62500000081,
      "d": 121.12369791665697,
      "v": 118
    },
    {
      "midi": 67,
      "hit": false,
      "t": 220929.62500000081,
      "d": 128.39111979166046,
      "v": 110
    },
    {
      "midi": 67,
      "hit": false,
      "t": 220939.31489583504,
      "d": 121.12369791665697,
      "v": 90
    },
    {
      "midi": 34,
      "hit": false,
      "t": 220941.73736979257,
      "d": 469.9599479166791,
      "v": 103
    },
    {
      "midi": 81,
      "hit": false,
      "t": 220944.1598437506,
      "d": 239.82492187502794,
      "v": 93
    },
    {
      "midi": 75,
      "hit": false,
      "t": 220944.1598437517,
      "d": 125.96864583334536,
      "v": 102
    },
    {
      "midi": 65,
      "hit": false,
      "t": 220946.58231770893,
      "d": 227.71255208333605,
      "v": 101
    },
    {
      "midi": 72,
      "hit": false,
      "t": 220946.58231771004,
      "d": 123.54617187500116,
      "v": 96
    },
    {
      "midi": 67,
      "hit": false,
      "t": 220958.6946875001,
      "d": 111.43380208333838,
      "v": 93
    },
    {
      "midi": 79,
      "hit": false,
      "t": 221162.1825000008,
      "d": 125.96864583334536,
      "v": 111
    },
    {
      "midi": 67,
      "hit": false,
      "t": 221162.1825000008,
      "d": 128.39111979168956,
      "v": 111
    },
    {
      "midi": 67,
      "hit": false,
      "t": 221169.44992187672,
      "d": 125.96864583334536,
      "v": 91
    },
    {
      "midi": 75,
      "hit": false,
      "t": 221171.87239583506,
      "d": 128.39111979166046,
      "v": 90
    },
    {
      "midi": 65,
      "hit": false,
      "t": 221174.29486979227,
      "d": 237.40244791668374,
      "v": 89
    },
    {
      "midi": 72,
      "hit": false,
      "t": 221174.2948697934,
      "d": 128.39111979166046,
      "v": 89
    },
    {
      "midi": 82,
      "hit": false,
      "t": 221176.7173437506,
      "d": 239.82492187499884,
      "v": 96
    },
    {
      "midi": 67,
      "hit": false,
      "t": 221193.67466145844,
      "d": 111.43380208333838,
      "v": 98
    },
    {
      "midi": 79,
      "hit": false,
      "t": 221394.74000000083,
      "d": 118.70122395834187,
      "v": 115
    },
    {
      "midi": 67,
      "hit": false,
      "t": 221394.74000000083,
      "d": 125.96864583334536,
      "v": 107
    },
    {
      "midi": 75,
      "hit": false,
      "t": 221409.27484375174,
      "d": 123.54617187500116,
      "v": 95
    },
    {
      "midi": 39,
      "hit": false,
      "t": 221411.69731770924,
      "d": 234.97997395833954,
      "v": 104
    },
    {
      "midi": 67,
      "hit": false,
      "t": 221414.1197916684,
      "d": 118.70122395834187,
      "v": 95
    },
    {
      "midi": 72,
      "hit": false,
      "t": 221414.1197916684,
      "d": 121.12369791668607,
      "v": 100
    },
    {
      "midi": 67,
      "hit": false,
      "t": 221421.38721354227,
      "d": 225.29007812499185,
      "v": 102
    },
    {
      "midi": 84,
      "hit": false,
      "t": 221421.38721354227,
      "d": 227.71255208333605,
      "v": 91
    },
    {
      "midi": 67,
      "hit": false,
      "t": 221431.0771093761,
      "d": 1858.0375260416768,
      "v": 96
    },
    {
      "midi": 67,
      "hit": false,
      "t": 221433.49958333344,
      "d": 101.74390624999069,
      "v": 92
    },
    {
      "midi": 63,
      "hit": false,
      "t": 221433.49958333446,
      "d": 1855.6150520833326,
      "v": 95
    },
    {
      "midi": 70,
      "hit": false,
      "t": 221435.9220572928,
      "d": 1860.4599999999919,
      "v": 92
    },
    {
      "midi": 70,
      "hit": false,
      "t": 221511.01875000083,
      "d": 125.96864583334536,
      "v": 110
    },
    {
      "midi": 58,
      "hit": false,
      "t": 221511.01875000083,
      "d": 128.39111979168956,
      "v": 114
    },
    {
      "midi": 67,
      "hit": false,
      "t": 221743.57625000086,
      "d": 128.39111979166046,
      "v": 110
    },
    {
      "midi": 79,
      "hit": false,
      "t": 221743.57625000086,
      "d": 130.81359375000466,
      "v": 117
    },
    {
      "midi": 67,
      "hit": false,
      "t": 221871.96736979228,
      "d": 244.66986979165813,
      "v": 100
    },
    {
      "midi": 34,
      "hit": false,
      "t": 222094.83497395925,
      "d": 242.24739583334303,
      "v": 101
    },
    {
      "midi": 67,
      "hit": false,
      "t": 222329.81494791727,
      "d": 234.97997395833954,
      "v": 100
    },
    {
      "midi": 39,
      "hit": false,
      "t": 222329.8149479176,
      "d": 242.24739583334303,
      "v": 102
    },
    {
      "midi": 67,
      "hit": false,
      "t": 222564.7949218756,
      "d": 234.97997395833954,
      "v": 93
    },
    {
      "midi": 84,
      "hit": false,
      "t": 222572.06234375061,
      "d": 239.82492187502794,
      "v": 98
    },
    {
      "midi": 79,
      "hit": false,
      "t": 222790.08500000086,
      "d": 121.12369791665697,
      "v": 109
    },
    {
      "midi": 67,
      "hit": false,
      "t": 222790.08500000086,
      "d": 128.39111979166046,
      "v": 112
    },
    {
      "midi": 67,
      "hit": false,
      "t": 222799.77489583395,
      "d": 232.55750000002445,
      "v": 104
    },
    {
      "midi": 67,
      "hit": false,
      "t": 222799.7748958351,
      "d": 121.12369791668607,
      "v": 95
    },
    {
      "midi": 72,
      "hit": false,
      "t": 222799.7748958351,
      "d": 123.54617187503027,
      "v": 101
    },
    {
      "midi": 82,
      "hit": false,
      "t": 222802.1973697923,
      "d": 239.82492187502794,
      "v": 95
    },
    {
      "midi": 39,
      "hit": false,
      "t": 222802.19736979262,
      "d": 469.9599479166791,
      "v": 104
    },
    {
      "midi": 75,
      "hit": false,
      "t": 222802.19736979343,
      "d": 125.96864583334536,
      "v": 97
    },
    {
      "midi": 67,
      "hit": false,
      "t": 222821.57716145844,
      "d": 111.43380208333838,
      "v": 93
    },
    {
      "midi": 79,
      "hit": false,
      "t": 223022.64250000086,
      "d": 125.96864583334536,
      "v": 108
    },
    {
      "midi": 67,
      "hit": false,
      "t": 223022.64250000086,
      "d": 128.39111979168956,
      "v": 108
    },
    {
      "midi": 67,
      "hit": false,
      "t": 223029.90992187677,
      "d": 125.96864583334536,
      "v": 102
    },
    {
      "midi": 75,
      "hit": false,
      "t": 223029.90992187677,
      "d": 128.39111979168956,
      "v": 92
    },
    {
      "midi": 72,
      "hit": false,
      "t": 223032.3323958351,
      "d": 128.39111979168956,
      "v": 99
    },
    {
      "midi": 67,
      "hit": false,
      "t": 223039.59981770898,
      "d": 239.82492187499884,
      "v": 100
    },
    {
      "midi": 84,
      "hit": false,
      "t": 223039.59981770898,
      "d": 239.82492187499884,
      "v": 94
    },
    {
      "midi": 67,
      "hit": false,
      "t": 223051.71218750012,
      "d": 109.01132812499418,
      "v": 102
    },
    {
      "midi": 77,
      "hit": false,
      "t": 223255.20000000088,
      "d": 118.70122395834187,
      "v": 116
    },
    {
      "midi": 65,
      "hit": false,
      "t": 223255.20000000088,
      "d": 125.96864583334536,
      "v": 118
    },
    {
      "midi": 34,
      "hit": false,
      "t": 223264.8898958343,
      "d": 234.97997395833954,
      "v": 102
    },
    {
      "midi": 65,
      "hit": false,
      "t": 223269.7348437518,
      "d": 118.70122395831277,
      "v": 94
    },
    {
      "midi": 70,
      "hit": false,
      "t": 223274.57979166845,
      "d": 121.12369791665697,
      "v": 94
    },
    {
      "midi": 74,
      "hit": false,
      "t": 223274.57979166845,
      "d": 123.54617187500116,
      "v": 96
    },
    {
      "midi": 65,
      "hit": false,
      "t": 223279.42473958398,
      "d": 227.71255208333605,
      "v": 89
    },
    {
      "midi": 82,
      "hit": false,
      "t": 223286.69216145898,
      "d": 227.71255208333605,
      "v": 89
    },
    {
      "midi": 65,
      "hit": false,
      "t": 223291.53710937512,
      "d": 101.74390624999069,
      "v": 103
    },
    {
      "midi": 65,
      "hit": false,
      "t": 223296.3820572928,
      "d": 918.1176302083477,
      "v": 98
    },
    {
      "midi": 62,
      "hit": false,
      "t": 223296.3820572928,
      "d": 925.3850520833512,
      "v": 101
    },
    {
      "midi": 70,
      "hit": false,
      "t": 223298.80453125114,
      "d": 930.2300000000105,
      "v": 91
    },
    {
      "midi": 70,
      "hit": false,
      "t": 223371.47875000088,
      "d": 125.96864583334536,
      "v": 117
    },
    {
      "midi": 58,
      "hit": false,
      "t": 223371.47875000088,
      "d": 128.39111979168956,
      "v": 112
    },
    {
      "midi": 65,
      "hit": false,
      "t": 223604.0362500009,
      "d": 128.39111979166046,
      "v": 112
    },
    {
      "midi": 77,
      "hit": false,
      "t": 223604.0362500009,
      "d": 130.81359375000466,
      "v": 107
    },
    {
      "midi": 65,
      "hit": false,
      "t": 223730.004895834,
      "d": 244.66986979165813,
      "v": 93
    },
    {
      "midi": 41,
      "hit": false,
      "t": 223960.13992187596,
      "d": 479.6498437499977,
      "v": 105
    },
    {
      "midi": 75,
      "hit": false,
      "t": 224185.43000000092,
      "d": 123.54617187500116,
      "v": 117
    },
    {
      "midi": 63,
      "hit": false,
      "t": 224185.43000000092,
      "d": 128.39111979166046,
      "v": 110
    },
    {
      "midi": 69,
      "hit": false,
      "t": 224192.69742187564,
      "d": 237.40244791665464,
      "v": 97
    },
    {
      "midi": 69,
      "hit": false,
      "t": 224192.6974218768,
      "d": 123.54617187500116,
      "v": 96
    },
    {
      "midi": 81,
      "hit": false,
      "t": 224197.5423697923,
      "d": 234.97997395833954,
      "v": 101
    },
    {
      "midi": 29,
      "hit": false,
      "t": 224197.54236979262,
      "d": 7.2674218750034925,
      "v": 103
    },
    {
      "midi": 65,
      "hit": false,
      "t": 224199.9648437518,
      "d": 123.54617187500116,
      "v": 95
    },
    {
      "midi": 72,
      "hit": false,
      "t": 224199.9648437518,
      "d": 125.96864583334536,
      "v": 92
    },
    {
      "midi": 63,
      "hit": false,
      "t": 224204.80979166678,
      "d": 118.70122395834187,
      "v": 101
    },
    {
      "midi": 60,
      "hit": false,
      "t": 224214.49968750114,
      "d": 927.8075260416663,
      "v": 95
    },
    {
      "midi": 65,
      "hit": false,
      "t": 224214.49968750114,
      "d": 930.2300000000105,
      "v": 103
    },
    {
      "midi": 69,
      "hit": false,
      "t": 224221.76710937615,
      "d": 932.6524739583547,
      "v": 95
    },
    {
      "midi": 75,
      "hit": false,
      "t": 224417.98750000092,
      "d": 123.54617187500116,
      "v": 114
    },
    {
      "midi": 63,
      "hit": false,
      "t": 224417.98750000092,
      "d": 128.39111979166046,
      "v": 107
    },
    {
      "midi": 69,
      "hit": false,
      "t": 224427.67739583514,
      "d": 125.96864583331626,
      "v": 97
    },
    {
      "midi": 72,
      "hit": false,
      "t": 224427.67739583514,
      "d": 128.39111979166046,
      "v": 102
    },
    {
      "midi": 69,
      "hit": false,
      "t": 224432.52234375064,
      "d": 234.97997395833954,
      "v": 98
    },
    {
      "midi": 65,
      "hit": false,
      "t": 224432.5223437518,
      "d": 123.54617187500116,
      "v": 102
    },
    {
      "midi": 81,
      "hit": false,
      "t": 224437.3672916673,
      "d": 239.82492187502794,
      "v": 97
    },
    {
      "midi": 63,
      "hit": false,
      "t": 224442.21223958346,
      "d": 111.43380208333838,
      "v": 100
    },
    {
      "midi": 77,
      "hit": false,
      "t": 224650.54500000092,
      "d": 123.54617187500116,
      "v": 115
    },
    {
      "midi": 65,
      "hit": false,
      "t": 224650.54500000092,
      "d": 128.39111979166046,
      "v": 113
    },
    {
      "midi": 70,
      "hit": false,
      "t": 224660.23489583514,
      "d": 123.54617187503027,
      "v": 96
    },
    {
      "midi": 65,
      "hit": false,
      "t": 224662.65736979348,
      "d": 121.12369791668607,
      "v": 95
    },
    {
      "midi": 29,
      "hit": false,
      "t": 224665.07984375095,
      "d": 467.5374739583349,
      "v": 102
    },
    {
      "midi": 74,
      "hit": false,
      "t": 224665.07984375182,
      "d": 125.96864583334536,
      "v": 95
    },
    {
      "midi": 69,
      "hit": false,
      "t": 224667.50231770898,
      "d": 227.71255208333605,
      "v": 103
    },
    {
      "midi": 65,
      "hit": false,
      "t": 224669.9247916668,
      "d": 116.27874999999767,
      "v": 95
    },
    {
      "midi": 77,
      "hit": false,
      "t": 224883.1025000009,
      "d": 125.96864583334536,
      "v": 114
    },
    {
      "midi": 65,
      "hit": false,
      "t": 224883.1025000009,
      "d": 128.39111979168956,
      "v": 107
    },
    {
      "midi": 65,
      "hit": false,
      "t": 224887.9474479185,
      "d": 128.39111979166046,
      "v": 101
    },
    {
      "midi": 74,
      "hit": false,
      "t": 224892.79239583516,
      "d": 130.81359375000466,
      "v": 94
    },
    {
      "midi": 69,
      "hit": false,
      "t": 224895.2148697923,
      "d": 239.82492187499884,
      "v": 99
    },
    {
      "midi": 70,
      "hit": false,
      "t": 224895.2148697935,
      "d": 128.39111979166046,
      "v": 97
    },
    {
      "midi": 65,
      "hit": false,
      "t": 224900.05981770845,
      "d": 118.70122395834187,
      "v": 96
    },
    {
      "midi": 77,
      "hit": false,
      "t": 225115.66000000093,
      "d": 121.12369791665697,
      "v": 118
    },
    {
      "midi": 65,
      "hit": false,
      "t": 225115.66000000093,
      "d": 125.96864583331626,
      "v": 110
    },
    {
      "midi": 34,
      "hit": false,
      "t": 225125.34989583428,
      "d": 239.82492187499884,
      "v": 107
    },
    {
      "midi": 65,
      "hit": false,
      "t": 225127.7723697935,
      "d": 121.12369791665697,
      "v": 92
    },
    {
      "midi": 70,
      "hit": false,
      "t": 225130.19484375184,
      "d": 123.54617187497206,
      "v": 91
    },
    {
      "midi": 70,
      "hit": false,
      "t": 225135.0397916673,
      "d": 230.13502604168025,
      "v": 97
    },
    {
      "midi": 74,
      "hit": false,
      "t": 225135.0397916685,
      "d": 123.54617187497206,
      "v": 97
    },
    {
      "midi": 82,
      "hit": false,
      "t": 225137.46226562565,
      "d": 230.13502604168025,
      "v": 97
    },
    {
      "midi": 65,
      "hit": false,
      "t": 225149.5746354168,
      "d": 109.01132812499418,
      "v": 94
    },
    {
      "midi": 62,
      "hit": false,
      "t": 225149.5746354178,
      "d": 1969.4713281250151,
      "v": 103
    },
    {
      "midi": 65,
      "hit": false,
      "t": 225151.99710937616,
      "d": 1967.048854166671,
      "v": 93
    },
    {
      "midi": 70,
      "hit": false,
      "t": 225151.99710937616,
      "d": 1967.048854166671,
      "v": 91
    },
    {
      "midi": 70,
      "hit": false,
      "t": 225231.93875000093,
      "d": 125.96864583331626,
      "v": 114
    },
    {
      "midi": 58,
      "hit": false,
      "t": 225231.93875000093,
      "d": 128.39111979166046,
      "v": 114
    },
    {
      "midi": 65,
      "hit": false,
      "t": 225464.49625000093,
      "d": 116.27874999999767,
      "v": 110
    },
    {
      "midi": 77,
      "hit": false,
      "t": 225464.49625000093,
      "d": 116.27874999999767,
      "v": 108
    },
    {
      "midi": 77,
      "hit": false,
      "t": 225580.77500000093,
      "d": 125.96864583334536,
      "v": 115
    },
    {
      "midi": 65,
      "hit": false,
      "t": 225580.77500000093,
      "d": 128.39111979168956,
      "v": 107
    },
    {
      "midi": 65,
      "hit": false,
      "t": 225590.464895834,
      "d": 244.66986979165813,
      "v": 100
    },
    {
      "midi": 29,
      "hit": false,
      "t": 225820.59992187595,
      "d": 244.66986979168723,
      "v": 106
    },
    {
      "midi": 70,
      "hit": false,
      "t": 225823.022395834,
      "d": 242.24739583334303,
      "v": 95
    },
    {
      "midi": 34,
      "hit": false,
      "t": 226050.73494791763,
      "d": 242.24739583334303,
      "v": 101
    },
    {
      "midi": 65,
      "hit": false,
      "t": 226285.71492187568,
      "d": 237.40244791665464,
      "v": 101
    },
    {
      "midi": 70,
      "hit": false,
      "t": 226523.11736979347,
      "d": 123.54617187500116,
      "v": 98
    },
    {
      "midi": 65,
      "hit": false,
      "t": 226525.53984375068,
      "d": 232.55749999999534,
      "v": 104
    },
    {
      "midi": 29,
      "hit": false,
      "t": 226525.53984375097,
      "d": 469.9599479166791,
      "v": 108
    },
    {
      "midi": 65,
      "hit": false,
      "t": 226525.53984375182,
      "d": 123.54617187500116,
      "v": 90
    },
    {
      "midi": 74,
      "hit": false,
      "t": 226525.53984375182,
      "d": 125.96864583334536,
      "v": 92
    },
    {
      "midi": 70,
      "hit": false,
      "t": 226527.96231770844,
      "d": 118.70122395834187,
      "v": 97
    },
    {
      "midi": 74,
      "hit": false,
      "t": 226750.82992187684,
      "d": 128.39111979168956,
      "v": 102
    },
    {
      "midi": 70,
      "hit": false,
      "t": 226753.25239583518,
      "d": 128.39111979168956,
      "v": 101
    },
    {
      "midi": 65,
      "hit": false,
      "t": 226755.67486979353,
      "d": 125.96864583334536,
      "v": 101
    },
    {
      "midi": 70,
      "hit": false,
      "t": 226760.51981770844,
      "d": 118.70122395834187,
      "v": 94
    },
    {
      "midi": 65,
      "hit": false,
      "t": 226760.51981770902,
      "d": 242.24739583334303,
      "v": 99
    },
    {
      "midi": 70,
      "hit": false,
      "t": 226976.12000000096,
      "d": 116.27874999999767,
      "v": 118
    },
    {
      "midi": 58,
      "hit": false,
      "t": 226976.12000000096,
      "d": 125.96864583334536,
      "v": 116
    },
    {
      "midi": 70,
      "hit": false,
      "t": 226988.23236979236,
      "d": 237.40244791668374,
      "v": 94
    },
    {
      "midi": 34,
      "hit": false,
      "t": 226988.23236979265,
      "d": 232.55749999999534,
      "v": 104
    },
    {
      "midi": 70,
      "hit": false,
      "t": 226990.65484375186,
      "d": 118.70122395834187,
      "v": 95
    },
    {
      "midi": 74,
      "hit": false,
      "t": 226993.0773177102,
      "d": 121.12369791668607,
      "v": 91
    },
    {
      "midi": 65,
      "hit": false,
      "t": 226995.49979166855,
      "d": 116.27874999999767,
      "v": 102
    },
    {
      "midi": 70,
      "hit": false,
      "t": 226997.92226562512,
      "d": 116.27874999999767,
      "v": 97
    }
  ]
}