{
  "jsonPath": "Classical/Ballroom/Bert Kaempfert/footprints-in-the-sand-huellas-en-la-arena.json",
  "path": "Classical\\Ballroom\\Bert Kaempfert\\Footprints In The Sand (Huellas En La Arena).mid",
  "name": "Footprints In The Sand (Huellas En La Arena)",
  "difficulty": "Advanced",
  "bpm": 110.00011000011,
  "notes": [
    {
      "midi": 40,
      "hit": false,
      "t": 4363.6320000000005,
      "d": 277.2724499999995,
      "v": 105
    },
    {
      "midi": 59,
      "hit": false,
      "t": 4363.6320000000005,
      "d": 363.6359999999995,
      "v": 93
    },
    {
      "midi": 64,
      "hit": false,
      "t": 4363.6320000000005,
      "d": 477.27225,
      "v": 98
    },
    {
      "midi": 67,
      "hit": false,
      "t": 4363.6320000000005,
      "d": 927.2718000000004,
      "v": 102
    },
    {
      "midi": 59,
      "hit": false,
      "t": 4727.268,
      "d": 145.45439999999962,
      "v": 97
    },
    {
      "midi": 40,
      "hit": false,
      "t": 4727.268,
      "d": 9.090900000000147,
      "v": 60
    },
    {
      "midi": 64,
      "hit": false,
      "t": 4909.085999999999,
      "d": 436.3631999999998,
      "v": 111
    },
    {
      "midi": 67,
      "hit": false,
      "t": 4909.085999999999,
      "d": 436.3631999999998,
      "v": 117
    },
    {
      "midi": 59,
      "hit": false,
      "t": 4909.086,
      "d": 49.999950000000354,
      "v": 55
    },
    {
      "midi": 64,
      "hit": false,
      "t": 4909.086,
      "d": 77.2726500000008,
      "v": 76
    },
    {
      "midi": 40,
      "hit": false,
      "t": 5290.903800000001,
      "d": 131.81804999999986,
      "v": 52
    },
    {
      "midi": 59,
      "hit": false,
      "t": 5454.539999999999,
      "d": 290.90880000000016,
      "v": 101
    },
    {
      "midi": 66,
      "hit": false,
      "t": 5454.539999999999,
      "d": 290.90880000000016,
      "v": 108
    },
    {
      "midi": 40,
      "hit": false,
      "t": 5454.540000000001,
      "d": 822.726450000001,
      "v": 57
    },
    {
      "midi": 55,
      "hit": false,
      "t": 5818.1759999999995,
      "d": 522.7267499999998,
      "v": 122
    },
    {
      "midi": 59,
      "hit": false,
      "t": 5818.1759999999995,
      "d": 522.7267499999998,
      "v": 122
    },
    {
      "midi": 64,
      "hit": false,
      "t": 5818.1759999999995,
      "d": 522.7267499999998,
      "v": 110
    },
    {
      "midi": 67,
      "hit": false,
      "t": 5818.176000000001,
      "d": 1718.1801000000023,
      "v": 89
    },
    {
      "midi": 64,
      "hit": false,
      "t": 6181.812000000002,
      "d": 1372.7259000000013,
      "v": 105
    },
    {
      "midi": 40,
      "hit": false,
      "t": 6363.630000000002,
      "d": 99.9998999999998,
      "v": 100
    },
    {
      "midi": 59,
      "hit": false,
      "t": 6363.630000000002,
      "d": 1177.2715500000013,
      "v": 102
    },
    {
      "midi": 40,
      "hit": false,
      "t": 6545.448000000002,
      "d": 49.999950000000354,
      "v": 91
    },
    {
      "midi": 59,
      "hit": false,
      "t": 6909.083999999999,
      "d": 145.45439999999962,
      "v": 115
    },
    {
      "midi": 40,
      "hit": false,
      "t": 6909.084000000003,
      "d": 318.1815000000006,
      "v": 50
    },
    {
      "midi": 55,
      "hit": false,
      "t": 7090.901999999998,
      "d": 436.3631999999998,
      "v": 123
    },
    {
      "midi": 59,
      "hit": false,
      "t": 7090.901999999998,
      "d": 436.3631999999998,
      "v": 114
    },
    {
      "midi": 64,
      "hit": false,
      "t": 7090.901999999998,
      "d": 436.3631999999998,
      "v": 106
    },
    {
      "midi": 40,
      "hit": false,
      "t": 7454.538000000003,
      "d": 1.1363625000003594,
      "v": 52
    },
    {
      "midi": 55,
      "hit": false,
      "t": 7636.355999999998,
      "d": 290.90880000000016,
      "v": 112
    },
    {
      "midi": 59,
      "hit": false,
      "t": 7636.355999999998,
      "d": 290.90880000000016,
      "v": 111
    },
    {
      "midi": 62,
      "hit": false,
      "t": 7636.355999999998,
      "d": 290.90880000000016,
      "v": 115
    },
    {
      "midi": 40,
      "hit": false,
      "t": 7636.356000000003,
      "d": 1090.9079999999994,
      "v": 60
    },
    {
      "midi": 55,
      "hit": false,
      "t": 7999.991999999998,
      "d": 522.7267499999998,
      "v": 122
    },
    {
      "midi": 59,
      "hit": false,
      "t": 7999.991999999998,
      "d": 522.7267499999998,
      "v": 100
    },
    {
      "midi": 64,
      "hit": false,
      "t": 7999.991999999998,
      "d": 522.7267499999998,
      "v": 110
    },
    {
      "midi": 55,
      "hit": false,
      "t": 7999.992000000004,
      "d": 172.72710000000006,
      "v": 60
    },
    {
      "midi": 59,
      "hit": false,
      "t": 8181.810000000004,
      "d": 545.4539999999988,
      "v": 98
    },
    {
      "midi": 55,
      "hit": false,
      "t": 8363.628000000004,
      "d": 363.6359999999986,
      "v": 85
    },
    {
      "midi": 64,
      "hit": false,
      "t": 8363.628000000004,
      "d": 363.6359999999986,
      "v": 98
    },
    {
      "midi": 67,
      "hit": false,
      "t": 8545.446000000004,
      "d": 181.8179999999993,
      "v": 102
    },
    {
      "midi": 67,
      "hit": false,
      "t": 8727.264000000003,
      "d": 190.90890000000036,
      "v": 98
    },
    {
      "midi": 64,
      "hit": false,
      "t": 8727.264000000003,
      "d": 195.45434999999998,
      "v": 98
    },
    {
      "midi": 59,
      "hit": false,
      "t": 8727.264000000003,
      "d": 199.9997999999996,
      "v": 87
    },
    {
      "midi": 55,
      "hit": false,
      "t": 8727.264000000003,
      "d": 204.5452499999992,
      "v": 100
    },
    {
      "midi": 40,
      "hit": false,
      "t": 8727.264000000003,
      "d": 477.27225,
      "v": 95
    },
    {
      "midi": 59,
      "hit": false,
      "t": 9090.899999999998,
      "d": 145.45440000000053,
      "v": 109
    },
    {
      "midi": 64,
      "hit": false,
      "t": 9272.717999999999,
      "d": 436.3631999999998,
      "v": 111
    },
    {
      "midi": 67,
      "hit": false,
      "t": 9272.717999999999,
      "d": 436.3631999999998,
      "v": 104
    },
    {
      "midi": 64,
      "hit": false,
      "t": 9272.718000000003,
      "d": 36.36360000000059,
      "v": 91
    },
    {
      "midi": 55,
      "hit": false,
      "t": 9272.718000000003,
      "d": 45.454499999999825,
      "v": 95
    },
    {
      "midi": 59,
      "hit": false,
      "t": 9272.718000000003,
      "d": 45.454499999999825,
      "v": 80
    },
    {
      "midi": 67,
      "hit": false,
      "t": 9272.718000000003,
      "d": 49.999949999999444,
      "v": 89
    },
    {
      "midi": 40,
      "hit": false,
      "t": 9454.536000000002,
      "d": 4.545449999999619,
      "v": 59
    },
    {
      "midi": 40,
      "hit": false,
      "t": 9636.354000000003,
      "d": 1.13636249999945,
      "v": 85
    },
    {
      "midi": 59,
      "hit": false,
      "t": 9818.171999999999,
      "d": 290.90879999999925,
      "v": 109
    },
    {
      "midi": 66,
      "hit": false,
      "t": 9818.171999999999,
      "d": 290.90879999999925,
      "v": 106
    },
    {
      "midi": 55,
      "hit": false,
      "t": 9818.172000000002,
      "d": 27.27269999999953,
      "v": 34
    },
    {
      "midi": 40,
      "hit": false,
      "t": 9999.990000000002,
      "d": 727.2719999999972,
      "v": 60
    },
    {
      "midi": 55,
      "hit": false,
      "t": 10181.807999999997,
      "d": 436.3631999999998,
      "v": 112
    },
    {
      "midi": 59,
      "hit": false,
      "t": 10181.807999999997,
      "d": 436.3631999999998,
      "v": 98
    },
    {
      "midi": 64,
      "hit": false,
      "t": 10181.807999999997,
      "d": 436.3631999999998,
      "v": 97
    },
    {
      "midi": 55,
      "hit": false,
      "t": 10181.808,
      "d": 63.63630000000012,
      "v": 72
    },
    {
      "midi": 59,
      "hit": false,
      "t": 10363.626,
      "d": 90.90899999999965,
      "v": 107
    },
    {
      "midi": 55,
      "hit": false,
      "t": 10545.444,
      "d": 540.9085500000001,
      "v": 100
    },
    {
      "midi": 64,
      "hit": false,
      "t": 10545.444,
      "d": 540.9085500000001,
      "v": 107
    },
    {
      "midi": 59,
      "hit": false,
      "t": 10727.261999999999,
      "d": 399.999600000001,
      "v": 58
    },
    {
      "midi": 40,
      "hit": false,
      "t": 10909.08,
      "d": 609.0902999999998,
      "v": 91
    },
    {
      "midi": 59,
      "hit": false,
      "t": 11272.715999999997,
      "d": 145.45440000000053,
      "v": 112
    },
    {
      "midi": 55,
      "hit": false,
      "t": 11454.533999999998,
      "d": 436.3631999999998,
      "v": 97
    },
    {
      "midi": 59,
      "hit": false,
      "t": 11454.533999999998,
      "d": 436.3631999999998,
      "v": 113
    },
    {
      "midi": 64,
      "hit": false,
      "t": 11454.533999999998,
      "d": 436.3631999999998,
      "v": 112
    },
    {
      "midi": 64,
      "hit": false,
      "t": 11454.534,
      "d": 45.454499999999825,
      "v": 100
    },
    {
      "midi": 55,
      "hit": false,
      "t": 11454.534,
      "d": 49.999949999999444,
      "v": 105
    },
    {
      "midi": 59,
      "hit": false,
      "t": 11454.534,
      "d": 49.999949999999444,
      "v": 91
    },
    {
      "midi": 67,
      "hit": false,
      "t": 11454.534,
      "d": 49.999949999999444,
      "v": 102
    },
    {
      "midi": 40,
      "hit": false,
      "t": 11649.98835,
      "d": 49.999949999999444,
      "v": 59
    },
    {
      "midi": 40,
      "hit": false,
      "t": 11818.169999999998,
      "d": 227.27249999999913,
      "v": 70
    },
    {
      "midi": 55,
      "hit": false,
      "t": 11999.987999999998,
      "d": 522.7267499999998,
      "v": 102
    },
    {
      "midi": 59,
      "hit": false,
      "t": 11999.987999999998,
      "d": 522.7267499999998,
      "v": 113
    },
    {
      "midi": 62,
      "hit": false,
      "t": 11999.987999999998,
      "d": 522.7267499999998,
      "v": 123
    },
    {
      "midi": 64,
      "hit": false,
      "t": 11999.987999999998,
      "d": 31.81814999999915,
      "v": 72
    },
    {
      "midi": 59,
      "hit": false,
      "t": 11999.987999999998,
      "d": 45.454499999999825,
      "v": 66
    },
    {
      "midi": 67,
      "hit": false,
      "t": 11999.987999999998,
      "d": 45.454499999999825,
      "v": 82
    },
    {
      "midi": 55,
      "hit": false,
      "t": 11999.987999999998,
      "d": 49.999949999999444,
      "v": 80
    },
    {
      "midi": 40,
      "hit": false,
      "t": 12181.805999999997,
      "d": 77.2726500000008,
      "v": 40
    },
    {
      "midi": 40,
      "hit": false,
      "t": 12372.714899999997,
      "d": 536.3630999999968,
      "v": 85
    },
    {
      "midi": 59,
      "hit": false,
      "t": 12545.441999999995,
      "d": 27.27269999999953,
      "v": 98
    },
    {
      "midi": 64,
      "hit": false,
      "t": 12545.441999999995,
      "d": 545.4539999999979,
      "v": 105
    },
    {
      "midi": 67,
      "hit": false,
      "t": 12545.441999999995,
      "d": 545.4539999999979,
      "v": 107
    },
    {
      "midi": 59,
      "hit": false,
      "t": 12727.259999999995,
      "d": 363.6359999999986,
      "v": 93
    },
    {
      "midi": 40,
      "hit": false,
      "t": 13090.895999999993,
      "d": 409.09050000000025,
      "v": 95
    },
    {
      "midi": 55,
      "hit": false,
      "t": 13090.895999999993,
      "d": 509.09040000000095,
      "v": 89
    },
    {
      "midi": 59,
      "hit": false,
      "t": 13090.895999999993,
      "d": 509.09040000000095,
      "v": 89
    },
    {
      "midi": 64,
      "hit": false,
      "t": 13090.895999999993,
      "d": 509.09040000000095,
      "v": 89
    },
    {
      "midi": 67,
      "hit": false,
      "t": 14363.621999999994,
      "d": 1468.1803499999987,
      "v": 98
    },
    {
      "midi": 59,
      "hit": false,
      "t": 15090.893999999993,
      "d": 809.0900999999994,
      "v": 66
    },
    {
      "midi": 59,
      "hit": false,
      "t": 15818.165999999997,
      "d": 436.3631999999998,
      "v": 112
    },
    {
      "midi": 64,
      "hit": false,
      "t": 15818.165999999997,
      "d": 436.3631999999998,
      "v": 112
    },
    {
      "midi": 67,
      "hit": false,
      "t": 15818.165999999997,
      "d": 436.3631999999998,
      "v": 95
    },
    {
      "midi": 71,
      "hit": false,
      "t": 15818.165999999997,
      "d": 436.3631999999998,
      "v": 100
    },
    {
      "midi": 59,
      "hit": false,
      "t": 16363.619999999997,
      "d": 436.3632000000016,
      "v": 105
    },
    {
      "midi": 64,
      "hit": false,
      "t": 16363.619999999997,
      "d": 436.3632000000016,
      "v": 119
    },
    {
      "midi": 67,
      "hit": false,
      "t": 16545.43799999999,
      "d": 909.0899999999965,
      "v": 66
    },
    {
      "midi": 64,
      "hit": false,
      "t": 16727.25599999999,
      "d": 640.908449999999,
      "v": 72
    },
    {
      "midi": 55,
      "hit": false,
      "t": 16909.07399999999,
      "d": 545.4539999999979,
      "v": 89
    },
    {
      "midi": 59,
      "hit": false,
      "t": 16909.074,
      "d": 522.7267500000016,
      "v": 105
    },
    {
      "midi": 38,
      "hit": false,
      "t": 17454.527999999988,
      "d": 754.5446999999986,
      "v": 102
    },
    {
      "midi": 50,
      "hit": false,
      "t": 17454.527999999988,
      "d": 754.5446999999986,
      "v": 102
    },
    {
      "midi": 57,
      "hit": false,
      "t": 17454.527999999988,
      "d": 786.3628499999977,
      "v": 98
    },
    {
      "midi": 62,
      "hit": false,
      "t": 17454.527999999988,
      "d": 786.3628499999977,
      "v": 98
    },
    {
      "midi": 66,
      "hit": false,
      "t": 17454.527999999988,
      "d": 786.3628499999977,
      "v": 98
    },
    {
      "midi": 57,
      "hit": false,
      "t": 19272.707999999984,
      "d": 2086.361549999998,
      "v": 72
    },
    {
      "midi": 66,
      "hit": false,
      "t": 19454.525999999983,
      "d": 1881.8162999999986,
      "v": 76
    },
    {
      "midi": 69,
      "hit": false,
      "t": 19636.343999999983,
      "d": 1699.9982999999993,
      "v": 87
    },
    {
      "midi": 57,
      "hit": false,
      "t": 19636.344,
      "d": 436.3631999999998,
      "v": 111
    },
    {
      "midi": 62,
      "hit": false,
      "t": 19636.344,
      "d": 436.3631999999998,
      "v": 108
    },
    {
      "midi": 57,
      "hit": false,
      "t": 20181.798000000003,
      "d": 436.3631999999998,
      "v": 104
    },
    {
      "midi": 62,
      "hit": false,
      "t": 20181.798000000003,
      "d": 436.3631999999998,
      "v": 111
    },
    {
      "midi": 57,
      "hit": false,
      "t": 20727.252000000004,
      "d": 436.3631999999998,
      "v": 109
    },
    {
      "midi": 62,
      "hit": false,
      "t": 20727.252000000004,
      "d": 436.3631999999998,
      "v": 102
    },
    {
      "midi": 57,
      "hit": false,
      "t": 21272.706000000006,
      "d": 522.7267500000016,
      "v": 114
    },
    {
      "midi": 36,
      "hit": false,
      "t": 21818.15999999998,
      "d": 754.5446999999986,
      "v": 102
    },
    {
      "midi": 48,
      "hit": false,
      "t": 21818.15999999998,
      "d": 754.5446999999986,
      "v": 102
    },
    {
      "midi": 55,
      "hit": false,
      "t": 21818.15999999998,
      "d": 786.3628499999977,
      "v": 98
    },
    {
      "midi": 60,
      "hit": false,
      "t": 21818.15999999998,
      "d": 786.3628499999977,
      "v": 98
    },
    {
      "midi": 64,
      "hit": false,
      "t": 21818.15999999998,
      "d": 786.3628499999977,
      "v": 98
    },
    {
      "midi": 55,
      "hit": false,
      "t": 23636.33999999998,
      "d": 2086.361549999998,
      "v": 72
    },
    {
      "midi": 64,
      "hit": false,
      "t": 23818.157999999978,
      "d": 1881.8162999999986,
      "v": 76
    },
    {
      "midi": 67,
      "hit": false,
      "t": 23999.975999999977,
      "d": 1699.9982999999993,
      "v": 87
    },
    {
      "midi": 54,
      "hit": false,
      "t": 26181.791999999976,
      "d": 1140.9079500000007,
      "v": 91
    },
    {
      "midi": 59,
      "hit": false,
      "t": 26181.791999999976,
      "d": 1209.0897000000004,
      "v": 82
    },
    {
      "midi": 66,
      "hit": false,
      "t": 26181.791999999976,
      "d": 1209.0897000000004,
      "v": 100
    },
    {
      "midi": 47,
      "hit": false,
      "t": 26181.791999999976,
      "d": 4131.8140500000045,
      "v": 87
    },
    {
      "midi": 54,
      "hit": false,
      "t": 26181.79200000001,
      "d": 436.3631999999998,
      "v": 100
    },
    {
      "midi": 59,
      "hit": false,
      "t": 26727.24600000001,
      "d": 727.2720000000008,
      "v": 106
    },
    {
      "midi": 62,
      "hit": false,
      "t": 26727.24600000001,
      "d": 727.2720000000008,
      "v": 117
    },
    {
      "midi": 66,
      "hit": false,
      "t": 26727.24600000001,
      "d": 727.2720000000008,
      "v": 101
    },
    {
      "midi": 54,
      "hit": false,
      "t": 27636.335999999978,
      "d": 2022.7252499999995,
      "v": 70
    },
    {
      "midi": 59,
      "hit": false,
      "t": 27636.33600000001,
      "d": 522.7267500000016,
      "v": 118
    },
    {
      "midi": 62,
      "hit": false,
      "t": 27636.33600000001,
      "d": 522.7267500000016,
      "v": 110
    },
    {
      "midi": 66,
      "hit": false,
      "t": 27636.33600000001,
      "d": 522.7267500000016,
      "v": 113
    },
    {
      "midi": 59,
      "hit": false,
      "t": 27818.153999999977,
      "d": 1949.998050000002,
      "v": 82
    },
    {
      "midi": 66,
      "hit": false,
      "t": 28181.789999999975,
      "d": 2131.816050000005,
      "v": 80
    },
    {
      "midi": 59,
      "hit": false,
      "t": 28363.60800000001,
      "d": 522.7267500000016,
      "v": 111
    },
    {
      "midi": 63,
      "hit": false,
      "t": 28363.60800000001,
      "d": 522.7267500000016,
      "v": 110
    },
    {
      "midi": 66,
      "hit": false,
      "t": 28363.60800000001,
      "d": 522.7267500000016,
      "v": 100
    },
    {
      "midi": 59,
      "hit": false,
      "t": 29272.69800000001,
      "d": 522.7267500000016,
      "v": 100
    },
    {
      "midi": 63,
      "hit": false,
      "t": 29272.69800000001,
      "d": 522.7267500000016,
      "v": 118
    },
    {
      "midi": 66,
      "hit": false,
      "t": 29272.69800000001,
      "d": 522.7267500000016,
      "v": 114
    },
    {
      "midi": 54,
      "hit": false,
      "t": 29818.15199999998,
      "d": 495.4540500000003,
      "v": 53
    },
    {
      "midi": 59,
      "hit": false,
      "t": 29999.96999999998,
      "d": 299.9997000000003,
      "v": 107
    },
    {
      "midi": 55,
      "hit": false,
      "t": 30545.42399999998,
      "d": 1559.0893499999984,
      "v": 98
    },
    {
      "midi": 59,
      "hit": false,
      "t": 30545.42399999998,
      "d": 1559.0893499999984,
      "v": 98
    },
    {
      "midi": 64,
      "hit": false,
      "t": 30545.42399999998,
      "d": 1559.0893499999984,
      "v": 98
    },
    {
      "midi": 40,
      "hit": false,
      "t": 30545.42399999998,
      "d": 1790.907299999999,
      "v": 87
    },
    {
      "midi": 52,
      "hit": false,
      "t": 30545.42399999998,
      "d": 1827.2708999999995,
      "v": 87
    },
    {
      "midi": 55,
      "hit": false,
      "t": 32181.78599999998,
      "d": 168.18165000000226,
      "v": 98
    },
    {
      "midi": 59,
      "hit": false,
      "t": 32181.78599999998,
      "d": 168.18165000000226,
      "v": 98
    },
    {
      "midi": 64,
      "hit": false,
      "t": 32181.78599999998,
      "d": 168.18165000000226,
      "v": 98
    },
    {
      "midi": 57,
      "hit": false,
      "t": 32372.69489999998,
      "d": 145.4543999999987,
      "v": 98
    },
    {
      "midi": 60,
      "hit": false,
      "t": 32372.69489999998,
      "d": 145.4543999999987,
      "v": 98
    },
    {
      "midi": 64,
      "hit": false,
      "t": 32372.69489999998,
      "d": 145.4543999999987,
      "v": 98
    },
    {
      "midi": 55,
      "hit": false,
      "t": 32727.23999999998,
      "d": 1949.9980499999983,
      "v": 89
    },
    {
      "midi": 59,
      "hit": false,
      "t": 32727.23999999998,
      "d": 1949.9980499999983,
      "v": 89
    },
    {
      "midi": 64,
      "hit": false,
      "t": 32727.23999999998,
      "d": 1949.9980499999983,
      "v": 89
    },
    {
      "midi": 52,
      "hit": false,
      "t": 32727.23999999998,
      "d": 1968.1798499999968,
      "v": 87
    },
    {
      "midi": 40,
      "hit": false,
      "t": 32727.23999999998,
      "d": 1977.2707499999997,
      "v": 98
    },
    {
      "midi": 59,
      "hit": false,
      "t": 33272.69400000001,
      "d": 436.3631999999998,
      "v": 110
    },
    {
      "midi": 64,
      "hit": false,
      "t": 33272.69400000001,
      "d": 436.3631999999998,
      "v": 122
    },
    {
      "midi": 67,
      "hit": false,
      "t": 33272.69400000001,
      "d": 436.3631999999998,
      "v": 105
    },
    {
      "midi": 71,
      "hit": false,
      "t": 33272.69400000001,
      "d": 436.3631999999998,
      "v": 106
    },
    {
      "midi": 59,
      "hit": false,
      "t": 33818.14800000001,
      "d": 436.3631999999998,
      "v": 110
    },
    {
      "midi": 64,
      "hit": false,
      "t": 33818.14800000001,
      "d": 436.3631999999998,
      "v": 107
    },
    {
      "midi": 59,
      "hit": false,
      "t": 34363.602000000006,
      "d": 522.7267500000016,
      "v": 115
    },
    {
      "midi": 57,
      "hit": false,
      "t": 34909.05599999998,
      "d": 1140.9079500000007,
      "v": 91
    },
    {
      "midi": 62,
      "hit": false,
      "t": 34909.05599999998,
      "d": 1209.089700000004,
      "v": 82
    },
    {
      "midi": 69,
      "hit": false,
      "t": 34909.05599999998,
      "d": 1209.089700000004,
      "v": 100
    },
    {
      "midi": 50,
      "hit": false,
      "t": 34909.05599999998,
      "d": 4131.814049999994,
      "v": 87
    },
    {
      "midi": 57,
      "hit": false,
      "t": 36363.599999999984,
      "d": 2022.7252499999959,
      "v": 70
    },
    {
      "midi": 62,
      "hit": false,
      "t": 36545.41799999998,
      "d": 1949.9980499999947,
      "v": 82
    },
    {
      "midi": 69,
      "hit": false,
      "t": 36909.05399999998,
      "d": 2131.816049999994,
      "v": 80
    },
    {
      "midi": 57,
      "hit": false,
      "t": 37090.87200000001,
      "d": 436.3631999999998,
      "v": 116
    },
    {
      "midi": 62,
      "hit": false,
      "t": 37090.87200000001,
      "d": 436.3631999999998,
      "v": 96
    },
    {
      "midi": 57,
      "hit": false,
      "t": 37636.32600000001,
      "d": 436.3631999999998,
      "v": 109
    },
    {
      "midi": 62,
      "hit": false,
      "t": 37636.32600000001,
      "d": 436.3631999999998,
      "v": 110
    },
    {
      "midi": 57,
      "hit": false,
      "t": 38181.780000000006,
      "d": 436.3631999999998,
      "v": 114
    },
    {
      "midi": 62,
      "hit": false,
      "t": 38181.780000000006,
      "d": 436.3631999999998,
      "v": 103
    },
    {
      "midi": 57,
      "hit": false,
      "t": 38545.415999999976,
      "d": 495.4540500000003,
      "v": 53
    },
    {
      "midi": 62,
      "hit": false,
      "t": 38727.233999999975,
      "d": 299.9997000000003,
      "v": 107
    },
    {
      "midi": 57,
      "hit": false,
      "t": 38727.234000000004,
      "d": 522.7267500000016,
      "v": 99
    },
    {
      "midi": 55,
      "hit": false,
      "t": 39272.68799999997,
      "d": 1649.9983499999944,
      "v": 95
    },
    {
      "midi": 64,
      "hit": false,
      "t": 39272.68799999997,
      "d": 1659.0892499999973,
      "v": 98
    },
    {
      "midi": 67,
      "hit": false,
      "t": 39272.68799999997,
      "d": 1695.4528499999942,
      "v": 98
    },
    {
      "midi": 48,
      "hit": false,
      "t": 39272.68799999997,
      "d": 3840.905249999989,
      "v": 93
    },
    {
      "midi": 36,
      "hit": false,
      "t": 39272.68799999997,
      "d": 4122.723149999991,
      "v": 98
    },
    {
      "midi": 55,
      "hit": false,
      "t": 41090.867999999966,
      "d": 1695.4528499999942,
      "v": 49
    },
    {
      "midi": 64,
      "hit": false,
      "t": 41272.685999999965,
      "d": 1631.816549999996,
      "v": 70
    },
    {
      "midi": 67,
      "hit": false,
      "t": 41454.503999999964,
      "d": 1427.271299999993,
      "v": 100
    },
    {
      "midi": 54,
      "hit": false,
      "t": 43636.32000000001,
      "d": 436.3631999999998,
      "v": 111
    },
    {
      "midi": 66,
      "hit": false,
      "t": 43645.410899999966,
      "d": 1168.1806499999948,
      "v": 87
    },
    {
      "midi": 59,
      "hit": false,
      "t": 43645.410899999966,
      "d": 1204.5442499999917,
      "v": 82
    },
    {
      "midi": 54,
      "hit": false,
      "t": 43645.410899999966,
      "d": 1231.816949999993,
      "v": 82
    },
    {
      "midi": 35,
      "hit": false,
      "t": 43649.956349999964,
      "d": 1218.1805999999924,
      "v": 82
    },
    {
      "midi": 47,
      "hit": false,
      "t": 43649.956349999964,
      "d": 2613.6337499999863,
      "v": 82
    },
    {
      "midi": 59,
      "hit": false,
      "t": 44181.774000000005,
      "d": 727.2719999999972,
      "v": 109
    },
    {
      "midi": 62,
      "hit": false,
      "t": 44181.774000000005,
      "d": 727.2719999999972,
      "v": 107
    },
    {
      "midi": 66,
      "hit": false,
      "t": 44181.774000000005,
      "d": 727.2719999999972,
      "v": 97
    },
    {
      "midi": 66,
      "hit": false,
      "t": 45090.864,
      "d": 522.7267500000016,
      "v": 111
    },
    {
      "midi": 59,
      "hit": false,
      "t": 45090.864,
      "d": 581.8176000000021,
      "v": 116
    },
    {
      "midi": 62,
      "hit": false,
      "t": 45090.864,
      "d": 581.8176000000021,
      "v": 106
    },
    {
      "midi": 35,
      "hit": false,
      "t": 45122.68214999996,
      "d": 813.6355499999991,
      "v": 55
    },
    {
      "midi": 66,
      "hit": false,
      "t": 45295.40924999995,
      "d": 118.181700000001,
      "v": 55
    },
    {
      "midi": 54,
      "hit": false,
      "t": 45299.95469999995,
      "d": 68.1817499999961,
      "v": 51
    },
    {
      "midi": 59,
      "hit": false,
      "t": 45304.50014999995,
      "d": 86.36355000000185,
      "v": 45
    },
    {
      "midi": 63,
      "hit": false,
      "t": 45468.13634999996,
      "d": 136.36349999999948,
      "v": 93
    },
    {
      "midi": 55,
      "hit": false,
      "t": 45472.681799999955,
      "d": 136.36349999999948,
      "v": 85
    },
    {
      "midi": 67,
      "hit": false,
      "t": 45472.681799999955,
      "d": 136.36349999999948,
      "v": 87
    },
    {
      "midi": 59,
      "hit": false,
      "t": 45818.136000000006,
      "d": 145.45440000000235,
      "v": 109
    },
    {
      "midi": 63,
      "hit": false,
      "t": 45818.136000000006,
      "d": 145.45440000000235,
      "v": 111
    },
    {
      "midi": 66,
      "hit": false,
      "t": 45818.136000000006,
      "d": 145.45440000000235,
      "v": 112
    },
    {
      "midi": 59,
      "hit": false,
      "t": 45999.954000000005,
      "d": 145.45440000000235,
      "v": 113
    },
    {
      "midi": 63,
      "hit": false,
      "t": 45999.954000000005,
      "d": 145.45440000000235,
      "v": 109
    },
    {
      "midi": 66,
      "hit": false,
      "t": 45999.954000000005,
      "d": 145.45440000000235,
      "v": 114
    },
    {
      "midi": 35,
      "hit": false,
      "t": 46181.77199999995,
      "d": 1799.9982000000018,
      "v": 74
    },
    {
      "midi": 59,
      "hit": false,
      "t": 46181.772000000004,
      "d": 145.45440000000235,
      "v": 96
    },
    {
      "midi": 63,
      "hit": false,
      "t": 46181.772000000004,
      "d": 145.45440000000235,
      "v": 109
    },
    {
      "midi": 66,
      "hit": false,
      "t": 46181.772000000004,
      "d": 145.45440000000235,
      "v": 111
    },
    {
      "midi": 59,
      "hit": false,
      "t": 46363.590000000004,
      "d": 145.45440000000235,
      "v": 112
    },
    {
      "midi": 63,
      "hit": false,
      "t": 46363.590000000004,
      "d": 145.45440000000235,
      "v": 121
    },
    {
      "midi": 66,
      "hit": false,
      "t": 46363.590000000004,
      "d": 145.45440000000235,
      "v": 116
    },
    {
      "midi": 59,
      "hit": false,
      "t": 46399.95359999995,
      "d": 145.45440000000235,
      "v": 102
    },
    {
      "midi": 66,
      "hit": false,
      "t": 46399.95359999995,
      "d": 168.1816500000059,
      "v": 95
    },
    {
      "midi": 47,
      "hit": false,
      "t": 46399.95359999995,
      "d": 1572.7257000000027,
      "v": 85
    },
    {
      "midi": 59,
      "hit": false,
      "t": 46545.408,
      "d": 145.45440000000235,
      "v": 110
    },
    {
      "midi": 63,
      "hit": false,
      "t": 46545.408,
      "d": 145.45440000000235,
      "v": 110
    },
    {
      "midi": 66,
      "hit": false,
      "t": 46545.408,
      "d": 145.45440000000235,
      "v": 110
    },
    {
      "midi": 59,
      "hit": false,
      "t": 46727.226,
      "d": 145.45440000000235,
      "v": 118
    },
    {
      "midi": 63,
      "hit": false,
      "t": 46727.226,
      "d": 145.45440000000235,
      "v": 117
    },
    {
      "midi": 66,
      "hit": false,
      "t": 46727.226,
      "d": 145.45440000000235,
      "v": 102
    },
    {
      "midi": 59,
      "hit": false,
      "t": 46909.044,
      "d": 145.45440000000235,
      "v": 121
    },
    {
      "midi": 63,
      "hit": false,
      "t": 46909.044,
      "d": 145.45440000000235,
      "v": 110
    },
    {
      "midi": 66,
      "hit": false,
      "t": 46909.044,
      "d": 145.45440000000235,
      "v": 115
    },
    {
      "midi": 63,
      "hit": false,
      "t": 46949.95304999995,
      "d": 195.45434999999998,
      "v": 93
    },
    {
      "midi": 67,
      "hit": false,
      "t": 46949.95304999995,
      "d": 236.363400000002,
      "v": 93
    },
    {
      "midi": 55,
      "hit": false,
      "t": 46954.49849999995,
      "d": 213.63615000000573,
      "v": 95
    },
    {
      "midi": 59,
      "hit": false,
      "t": 47090.862,
      "d": 145.45440000000235,
      "v": 121
    },
    {
      "midi": 63,
      "hit": false,
      "t": 47090.862,
      "d": 145.45440000000235,
      "v": 99
    },
    {
      "midi": 66,
      "hit": false,
      "t": 47090.862,
      "d": 145.45440000000235,
      "v": 101
    },
    {
      "midi": 59,
      "hit": false,
      "t": 47272.68,
      "d": 145.45440000000235,
      "v": 104
    },
    {
      "midi": 63,
      "hit": false,
      "t": 47272.68,
      "d": 145.45440000000235,
      "v": 102
    },
    {
      "midi": 66,
      "hit": false,
      "t": 47272.68,
      "d": 145.45440000000235,
      "v": 110
    },
    {
      "midi": 59,
      "hit": false,
      "t": 47454.498,
      "d": 340.9087500000023,
      "v": 109
    },
    {
      "midi": 63,
      "hit": false,
      "t": 47454.498,
      "d": 340.9087500000023,
      "v": 110
    },
    {
      "midi": 66,
      "hit": false,
      "t": 47454.498,
      "d": 340.9087500000023,
      "v": 95
    },
    {
      "midi": 59,
      "hit": false,
      "t": 47477.22524999996,
      "d": 431.8177499999947,
      "v": 91
    },
    {
      "midi": 54,
      "hit": false,
      "t": 47481.77069999996,
      "d": 422.7268499999991,
      "v": 87
    },
    {
      "midi": 66,
      "hit": false,
      "t": 47481.77069999996,
      "d": 422.7268499999991,
      "v": 95
    },
    {
      "midi": 59,
      "hit": false,
      "t": 47999.951999999954,
      "d": 272.72699999999895,
      "v": 87
    },
    {
      "midi": 64,
      "hit": false,
      "t": 47999.951999999954,
      "d": 277.27244999999675,
      "v": 95
    },
    {
      "midi": 56,
      "hit": false,
      "t": 47999.951999999954,
      "d": 281.81789999999455,
      "v": 89
    },
    {
      "midi": 68,
      "hit": false,
      "t": 47999.951999999954,
      "d": 295.4542499999952,
      "v": 95
    },
    {
      "midi": 40,
      "hit": false,
      "t": 47999.951999999954,
      "d": 581.8175999999949,
      "v": 91
    },
    {
      "midi": 64,
      "hit": false,
      "t": 47999.952000000005,
      "d": 436.3631999999998,
      "v": 102
    },
    {
      "midi": 68,
      "hit": false,
      "t": 47999.952000000005,
      "d": 436.3631999999998,
      "v": 110
    },
    {
      "midi": 71,
      "hit": false,
      "t": 47999.952000000005,
      "d": 436.3631999999998,
      "v": 107
    },
    {
      "midi": 76,
      "hit": false,
      "t": 47999.952000000005,
      "d": 436.3631999999998,
      "v": 110
    },
    {
      "midi": 56,
      "hit": false,
      "t": 48545.40599999995,
      "d": 622.7266499999896,
      "v": 85
    },
    {
      "midi": 68,
      "hit": false,
      "t": 48545.40599999995,
      "d": 818.1809999999896,
      "v": 89
    },
    {
      "midi": 64,
      "hit": false,
      "t": 48545.40599999995,
      "d": 836.362799999988,
      "v": 89
    },
    {
      "midi": 59,
      "hit": false,
      "t": 48545.40599999995,
      "d": 849.9991499999887,
      "v": 78
    },
    {
      "midi": 64,
      "hit": false,
      "t": 48545.406,
      "d": 436.3631999999998,
      "v": 98
    },
    {
      "midi": 68,
      "hit": false,
      "t": 48545.406,
      "d": 436.3631999999998,
      "v": 108
    },
    {
      "midi": 71,
      "hit": false,
      "t": 48545.406,
      "d": 436.3631999999998,
      "v": 104
    },
    {
      "midi": 40,
      "hit": false,
      "t": 48727.223999999944,
      "d": 4.5454499999978,
      "v": 54
    },
    {
      "midi": 40,
      "hit": false,
      "t": 48909.04199999994,
      "d": 772.726499999997,
      "v": 87
    },
    {
      "midi": 59,
      "hit": false,
      "t": 49090.86,
      "d": 436.3631999999998,
      "v": 108
    },
    {
      "midi": 64,
      "hit": false,
      "t": 49090.86,
      "d": 436.3631999999998,
      "v": 110
    },
    {
      "midi": 68,
      "hit": false,
      "t": 49090.86,
      "d": 436.3631999999998,
      "v": 109
    },
    {
      "midi": 56,
      "hit": false,
      "t": 49454.49599999994,
      "d": 45.454499999999825,
      "v": 49
    },
    {
      "midi": 64,
      "hit": false,
      "t": 49636.31399999994,
      "d": 140.90894999999728,
      "v": 105
    },
    {
      "midi": 59,
      "hit": false,
      "t": 49636.31399999994,
      "d": 145.45439999999508,
      "v": 107
    },
    {
      "midi": 56,
      "hit": false,
      "t": 49636.31399999994,
      "d": 154.54529999999795,
      "v": 110
    },
    {
      "midi": 68,
      "hit": false,
      "t": 49636.31399999994,
      "d": 154.54529999999795,
      "v": 105
    },
    {
      "midi": 56,
      "hit": false,
      "t": 49636.314,
      "d": 522.7267500000016,
      "v": 115
    },
    {
      "midi": 59,
      "hit": false,
      "t": 49636.314,
      "d": 522.7267500000016,
      "v": 104
    },
    {
      "midi": 64,
      "hit": false,
      "t": 49636.314,
      "d": 522.7267500000016,
      "v": 110
    },
    {
      "midi": 40,
      "hit": false,
      "t": 49818.13199999994,
      "d": 209.09070000000065,
      "v": 76
    },
    {
      "midi": 59,
      "hit": false,
      "t": 50181.76799999994,
      "d": 259.0906499999983,
      "v": 93
    },
    {
      "midi": 57,
      "hit": false,
      "t": 50181.76799999994,
      "d": 263.6360999999961,
      "v": 80
    },
    {
      "midi": 66,
      "hit": false,
      "t": 50181.76799999994,
      "d": 263.6360999999961,
      "v": 98
    },
    {
      "midi": 62,
      "hit": false,
      "t": 50181.76799999994,
      "d": 268.1815499999939,
      "v": 85
    },
    {
      "midi": 35,
      "hit": false,
      "t": 50181.76799999994,
      "d": 659.0902499999938,
      "v": 102
    },
    {
      "midi": 47,
      "hit": false,
      "t": 50545.40399999993,
      "d": 363.6360000000059,
      "v": 49
    },
    {
      "midi": 57,
      "hit": false,
      "t": 50727.22199999993,
      "d": 340.9087500000096,
      "v": 85
    },
    {
      "midi": 66,
      "hit": false,
      "t": 50727.22199999993,
      "d": 363.63600000001315,
      "v": 87
    },
    {
      "midi": 59,
      "hit": false,
      "t": 50727.22199999993,
      "d": 399.9996000000101,
      "v": 95
    },
    {
      "midi": 62,
      "hit": false,
      "t": 50727.22199999993,
      "d": 431.81775000000926,
      "v": 87
    },
    {
      "midi": 62,
      "hit": false,
      "t": 51090.858,
      "d": 522.7267500000016,
      "v": 97
    },
    {
      "midi": 66,
      "hit": false,
      "t": 51090.858,
      "d": 522.7267500000016,
      "v": 116
    },
    {
      "midi": 69,
      "hit": false,
      "t": 51090.858,
      "d": 522.7267500000016,
      "v": 99
    },
    {
      "midi": 73,
      "hit": false,
      "t": 51090.858,
      "d": 522.7267500000016,
      "v": 107
    },
    {
      "midi": 35,
      "hit": false,
      "t": 51454.49399999994,
      "d": 909.0899999999965,
      "v": 76
    },
    {
      "midi": 47,
      "hit": false,
      "t": 51636.31199999994,
      "d": 727.2719999999972,
      "v": 113
    },
    {
      "midi": 57,
      "hit": false,
      "t": 51818.12999999994,
      "d": 545.4539999999979,
      "v": 95
    },
    {
      "midi": 62,
      "hit": false,
      "t": 51818.130000000005,
      "d": 436.3631999999998,
      "v": 107
    },
    {
      "midi": 66,
      "hit": false,
      "t": 51818.130000000005,
      "d": 436.3631999999998,
      "v": 108
    },
    {
      "midi": 69,
      "hit": false,
      "t": 51818.130000000005,
      "d": 436.3631999999998,
      "v": 120
    },
    {
      "midi": 73,
      "hit": false,
      "t": 51818.130000000005,
      "d": 436.3631999999998,
      "v": 122
    },
    {
      "midi": 62,
      "hit": false,
      "t": 51999.94799999994,
      "d": 363.6359999999986,
      "v": 102
    },
    {
      "midi": 59,
      "hit": false,
      "t": 52181.76599999994,
      "d": 181.8179999999993,
      "v": 85
    },
    {
      "midi": 59,
      "hit": false,
      "t": 52363.58399999994,
      "d": 259.0906499999983,
      "v": 93
    },
    {
      "midi": 56,
      "hit": false,
      "t": 52363.58399999994,
      "d": 263.6360999999961,
      "v": 80
    },
    {
      "midi": 68,
      "hit": false,
      "t": 52363.58399999994,
      "d": 263.6360999999961,
      "v": 98
    },
    {
      "midi": 64,
      "hit": false,
      "t": 52363.58399999994,
      "d": 268.1815499999939,
      "v": 85
    },
    {
      "midi": 40,
      "hit": false,
      "t": 52363.58399999994,
      "d": 659.0902499999938,
      "v": 102
    },
    {
      "midi": 64,
      "hit": false,
      "t": 52363.584,
      "d": 872.7263999999996,
      "v": 119
    },
    {
      "midi": 68,
      "hit": false,
      "t": 52363.584,
      "d": 872.7263999999996,
      "v": 116
    },
    {
      "midi": 71,
      "hit": false,
      "t": 52363.584,
      "d": 872.7263999999996,
      "v": 104
    },
    {
      "midi": 56,
      "hit": false,
      "t": 52909.03799999993,
      "d": 340.9087500000023,
      "v": 85
    },
    {
      "midi": 68,
      "hit": false,
      "t": 52909.03799999993,
      "d": 363.6360000000059,
      "v": 87
    },
    {
      "midi": 59,
      "hit": false,
      "t": 52909.03799999993,
      "d": 399.99960000000283,
      "v": 95
    },
    {
      "midi": 64,
      "hit": false,
      "t": 52909.03799999993,
      "d": 431.817750000002,
      "v": 87
    },
    {
      "midi": 64,
      "hit": false,
      "t": 53454.492000000006,
      "d": 290.9087999999974,
      "v": 122
    },
    {
      "midi": 68,
      "hit": false,
      "t": 53454.492000000006,
      "d": 290.9087999999974,
      "v": 112
    },
    {
      "midi": 71,
      "hit": false,
      "t": 53454.492000000006,
      "d": 290.9087999999974,
      "v": 103
    },
    {
      "midi": 40,
      "hit": false,
      "t": 53636.30999999993,
      "d": 909.0899999999965,
      "v": 76
    },
    {
      "midi": 64,
      "hit": false,
      "t": 53818.128000000004,
      "d": 436.3631999999998,
      "v": 113
    },
    {
      "midi": 68,
      "hit": false,
      "t": 53818.128000000004,
      "d": 436.3631999999998,
      "v": 120
    },
    {
      "midi": 73,
      "hit": false,
      "t": 53818.128000000004,
      "d": 436.3631999999998,
      "v": 111
    },
    {
      "midi": 56,
      "hit": false,
      "t": 53999.94599999993,
      "d": 545.4539999999979,
      "v": 95
    },
    {
      "midi": 64,
      "hit": false,
      "t": 54181.76399999993,
      "d": 363.6359999999986,
      "v": 102
    },
    {
      "midi": 59,
      "hit": false,
      "t": 54363.58199999993,
      "d": 181.8179999999993,
      "v": 85
    },
    {
      "midi": 62,
      "hit": false,
      "t": 54363.582,
      "d": 581.8176000000021,
      "v": 119
    },
    {
      "midi": 67,
      "hit": false,
      "t": 54363.582,
      "d": 581.8176000000021,
      "v": 95
    },
    {
      "midi": 71,
      "hit": false,
      "t": 54363.582,
      "d": 581.8176000000021,
      "v": 110
    },
    {
      "midi": 55,
      "hit": false,
      "t": 54545.39999999993,
      "d": 627.272100000002,
      "v": 113
    },
    {
      "midi": 59,
      "hit": false,
      "t": 54545.39999999993,
      "d": 627.272100000002,
      "v": 113
    },
    {
      "midi": 62,
      "hit": false,
      "t": 54545.39999999993,
      "d": 627.272100000002,
      "v": 113
    },
    {
      "midi": 43,
      "hit": false,
      "t": 54909.03599999993,
      "d": 413.6359500000035,
      "v": 98
    },
    {
      "midi": 62,
      "hit": false,
      "t": 55090.85400000001,
      "d": 436.3631999999998,
      "v": 110
    },
    {
      "midi": 67,
      "hit": false,
      "t": 55090.85400000001,
      "d": 436.3631999999998,
      "v": 106
    },
    {
      "midi": 71,
      "hit": false,
      "t": 55090.85400000001,
      "d": 436.3631999999998,
      "v": 108
    },
    {
      "midi": 55,
      "hit": false,
      "t": 55272.67199999993,
      "d": 731.817449999995,
      "v": 105
    },
    {
      "midi": 59,
      "hit": false,
      "t": 55272.67199999993,
      "d": 731.817449999995,
      "v": 105
    },
    {
      "midi": 62,
      "hit": false,
      "t": 55272.67199999993,
      "d": 731.817449999995,
      "v": 105
    },
    {
      "midi": 43,
      "hit": false,
      "t": 55454.48999999993,
      "d": 345.4542000000001,
      "v": 87
    },
    {
      "midi": 62,
      "hit": false,
      "t": 55636.308000000005,
      "d": 436.3631999999998,
      "v": 107
    },
    {
      "midi": 67,
      "hit": false,
      "t": 55636.308000000005,
      "d": 436.3631999999998,
      "v": 110
    },
    {
      "midi": 71,
      "hit": false,
      "t": 55636.308000000005,
      "d": 436.3631999999998,
      "v": 98
    },
    {
      "midi": 43,
      "hit": false,
      "t": 55999.94399999993,
      "d": 463.6359000000084,
      "v": 85
    },
    {
      "midi": 55,
      "hit": false,
      "t": 56181.76199999993,
      "d": 159.09075000000303,
      "v": 119
    },
    {
      "midi": 59,
      "hit": false,
      "t": 56181.76199999993,
      "d": 159.09075000000303,
      "v": 119
    },
    {
      "midi": 62,
      "hit": false,
      "t": 56181.76199999993,
      "d": 159.09075000000303,
      "v": 119
    },
    {
      "midi": 62,
      "hit": false,
      "t": 56181.762,
      "d": 340.9087500000023,
      "v": 110
    },
    {
      "midi": 67,
      "hit": false,
      "t": 56181.762,
      "d": 340.9087500000023,
      "v": 123
    },
    {
      "midi": 71,
      "hit": false,
      "t": 56181.762,
      "d": 340.9087500000023,
      "v": 120
    },
    {
      "midi": 55,
      "hit": false,
      "t": 56363.579999999936,
      "d": 109.0908000000054,
      "v": 113
    },
    {
      "midi": 60,
      "hit": false,
      "t": 56363.579999999936,
      "d": 109.0908000000054,
      "v": 113
    },
    {
      "midi": 64,
      "hit": false,
      "t": 56363.579999999936,
      "d": 109.0908000000054,
      "v": 113
    },
    {
      "midi": 43,
      "hit": false,
      "t": 56545.39799999994,
      "d": 77.27264999999898,
      "v": 89
    },
    {
      "midi": 56,
      "hit": false,
      "t": 56727.21599999994,
      "d": 627.272100000002,
      "v": 113
    },
    {
      "midi": 59,
      "hit": false,
      "t": 56727.21599999994,
      "d": 627.272100000002,
      "v": 113
    },
    {
      "midi": 64,
      "hit": false,
      "t": 56727.21599999994,
      "d": 627.272100000002,
      "v": 113
    },
    {
      "midi": 64,
      "hit": false,
      "t": 56727.21600000001,
      "d": 436.3631999999998,
      "v": 108
    },
    {
      "midi": 68,
      "hit": false,
      "t": 56727.21600000001,
      "d": 436.3631999999998,
      "v": 110
    },
    {
      "midi": 71,
      "hit": false,
      "t": 56727.21600000001,
      "d": 436.3631999999998,
      "v": 112
    },
    {
      "midi": 76,
      "hit": false,
      "t": 56727.21600000001,
      "d": 436.3631999999998,
      "v": 110
    },
    {
      "midi": 40,
      "hit": false,
      "t": 57090.85199999994,
      "d": 413.6359500000035,
      "v": 98
    },
    {
      "midi": 64,
      "hit": false,
      "t": 57272.670000000006,
      "d": 436.3631999999998,
      "v": 121
    },
    {
      "midi": 68,
      "hit": false,
      "t": 57272.670000000006,
      "d": 436.3631999999998,
      "v": 106
    },
    {
      "midi": 71,
      "hit": false,
      "t": 57272.670000000006,
      "d": 436.3631999999998,
      "v": 123
    },
    {
      "midi": 56,
      "hit": false,
      "t": 57454.48799999995,
      "d": 731.817449999995,
      "v": 105
    },
    {
      "midi": 59,
      "hit": false,
      "t": 57454.48799999995,
      "d": 731.817449999995,
      "v": 105
    },
    {
      "midi": 64,
      "hit": false,
      "t": 57454.48799999995,
      "d": 731.817449999995,
      "v": 105
    },
    {
      "midi": 40,
      "hit": false,
      "t": 57636.305999999946,
      "d": 345.4542000000001,
      "v": 87
    },
    {
      "midi": 59,
      "hit": false,
      "t": 57818.124,
      "d": 436.3631999999998,
      "v": 110
    },
    {
      "midi": 64,
      "hit": false,
      "t": 57818.124,
      "d": 436.3631999999998,
      "v": 104
    },
    {
      "midi": 68,
      "hit": false,
      "t": 57818.124,
      "d": 436.3631999999998,
      "v": 110
    },
    {
      "midi": 40,
      "hit": false,
      "t": 58181.759999999944,
      "d": 463.6359000000084,
      "v": 85
    },
    {
      "midi": 56,
      "hit": false,
      "t": 58363.57799999994,
      "d": 159.09075000000303,
      "v": 119
    },
    {
      "midi": 59,
      "hit": false,
      "t": 58363.57799999994,
      "d": 159.09075000000303,
      "v": 119
    },
    {
      "midi": 64,
      "hit": false,
      "t": 58363.57799999994,
      "d": 159.09075000000303,
      "v": 119
    },
    {
      "midi": 56,
      "hit": false,
      "t": 58363.578,
      "d": 522.7267500000016,
      "v": 116
    },
    {
      "midi": 59,
      "hit": false,
      "t": 58363.578,
      "d": 522.7267500000016,
      "v": 109
    },
    {
      "midi": 64,
      "hit": false,
      "t": 58363.578,
      "d": 522.7267500000016,
      "v": 116
    },
    {
      "midi": 57,
      "hit": false,
      "t": 58545.39599999995,
      "d": 109.0908000000054,
      "v": 113
    },
    {
      "midi": 60,
      "hit": false,
      "t": 58545.39599999995,
      "d": 109.0908000000054,
      "v": 113
    },
    {
      "midi": 64,
      "hit": false,
      "t": 58545.39599999995,
      "d": 109.0908000000054,
      "v": 113
    },
    {
      "midi": 40,
      "hit": false,
      "t": 58727.213999999956,
      "d": 77.27264999999898,
      "v": 89
    },
    {
      "midi": 57,
      "hit": false,
      "t": 58909.031999999956,
      "d": 272.72699999999895,
      "v": 87
    },
    {
      "midi": 59,
      "hit": false,
      "t": 58909.031999999956,
      "d": 277.27244999999675,
      "v": 95
    },
    {
      "midi": 54,
      "hit": false,
      "t": 58909.031999999956,
      "d": 281.81789999999455,
      "v": 89
    },
    {
      "midi": 62,
      "hit": false,
      "t": 58909.031999999956,
      "d": 295.4542499999952,
      "v": 95
    },
    {
      "midi": 35,
      "hit": false,
      "t": 58909.031999999956,
      "d": 731.8174499999877,
      "v": 91
    },
    {
      "midi": 47,
      "hit": false,
      "t": 59272.667999999954,
      "d": 218.18159999999625,
      "v": 61
    },
    {
      "midi": 54,
      "hit": false,
      "t": 59454.48599999995,
      "d": 622.7266499999896,
      "v": 85
    },
    {
      "midi": 62,
      "hit": false,
      "t": 59454.48599999995,
      "d": 818.1809999999896,
      "v": 89
    },
    {
      "midi": 59,
      "hit": false,
      "t": 59454.48599999995,
      "d": 836.362799999988,
      "v": 89
    },
    {
      "midi": 57,
      "hit": false,
      "t": 59454.48599999995,
      "d": 849.9991499999887,
      "v": 78
    },
    {
      "midi": 47,
      "hit": false,
      "t": 59636.303999999946,
      "d": 163.63620000000083,
      "v": 54
    },
    {
      "midi": 35,
      "hit": false,
      "t": 59818.121999999945,
      "d": 899.9990999999936,
      "v": 87
    },
    {
      "midi": 62,
      "hit": false,
      "t": 59818.122,
      "d": 522.7267500000016,
      "v": 117
    },
    {
      "midi": 66,
      "hit": false,
      "t": 59818.122,
      "d": 522.7267500000016,
      "v": 120
    },
    {
      "midi": 69,
      "hit": false,
      "t": 59818.122,
      "d": 522.7267500000016,
      "v": 108
    },
    {
      "midi": 73,
      "hit": false,
      "t": 59818.122,
      "d": 522.7267500000016,
      "v": 121
    },
    {
      "midi": 47,
      "hit": false,
      "t": 59999.939999999944,
      "d": 590.9084999999977,
      "v": 85
    },
    {
      "midi": 54,
      "hit": false,
      "t": 60363.57599999994,
      "d": 45.454499999999825,
      "v": 49
    },
    {
      "midi": 59,
      "hit": false,
      "t": 60545.39399999994,
      "d": 140.90894999999728,
      "v": 105
    },
    {
      "midi": 57,
      "hit": false,
      "t": 60545.39399999994,
      "d": 145.45439999999508,
      "v": 107
    },
    {
      "midi": 54,
      "hit": false,
      "t": 60545.39399999994,
      "d": 154.54529999999795,
      "v": 110
    },
    {
      "midi": 62,
      "hit": false,
      "t": 60545.39399999994,
      "d": 154.54529999999795,
      "v": 105
    },
    {
      "midi": 62,
      "hit": false,
      "t": 60545.39400000001,
      "d": 436.3631999999998,
      "v": 112
    },
    {
      "midi": 66,
      "hit": false,
      "t": 60545.39400000001,
      "d": 436.3631999999998,
      "v": 97
    },
    {
      "midi": 69,
      "hit": false,
      "t": 60545.39400000001,
      "d": 436.3631999999998,
      "v": 115
    },
    {
      "midi": 73,
      "hit": false,
      "t": 60545.39400000001,
      "d": 436.3631999999998,
      "v": 109
    },
    {
      "midi": 47,
      "hit": false,
      "t": 60727.21199999994,
      "d": 209.09070000000065,
      "v": 76
    },
    {
      "midi": 35,
      "hit": false,
      "t": 60909.02999999994,
      "d": 181.8179999999993,
      "v": 100
    },
    {
      "midi": 59,
      "hit": false,
      "t": 61090.84799999994,
      "d": 259.0906499999983,
      "v": 93
    },
    {
      "midi": 56,
      "hit": false,
      "t": 61090.84799999994,
      "d": 263.6360999999961,
      "v": 80
    },
    {
      "midi": 68,
      "hit": false,
      "t": 61090.84799999994,
      "d": 263.6360999999961,
      "v": 98
    },
    {
      "midi": 64,
      "hit": false,
      "t": 61090.84799999994,
      "d": 268.1815499999939,
      "v": 85
    },
    {
      "midi": 40,
      "hit": false,
      "t": 61090.84799999994,
      "d": 659.0902499999938,
      "v": 102
    },
    {
      "midi": 64,
      "hit": false,
      "t": 61090.848000000005,
      "d": 872.7263999999996,
      "v": 105
    },
    {
      "midi": 68,
      "hit": false,
      "t": 61090.848000000005,
      "d": 872.7263999999996,
      "v": 110
    },
    {
      "midi": 71,
      "hit": false,
      "t": 61090.848000000005,
      "d": 872.7263999999996,
      "v": 110
    },
    {
      "midi": 56,
      "hit": false,
      "t": 61636.30199999993,
      "d": 340.9087500000023,
      "v": 85
    },
    {
      "midi": 68,
      "hit": false,
      "t": 61636.30199999993,
      "d": 363.6360000000059,
      "v": 87
    },
    {
      "midi": 59,
      "hit": false,
      "t": 61636.30199999993,
      "d": 399.99960000000283,
      "v": 95
    },
    {
      "midi": 64,
      "hit": false,
      "t": 61636.30199999993,
      "d": 431.817750000002,
      "v": 87
    },
    {
      "midi": 64,
      "hit": false,
      "t": 62181.75600000001,
      "d": 290.9087999999974,
      "v": 110
    },
    {
      "midi": 68,
      "hit": false,
      "t": 62181.75600000001,
      "d": 290.9087999999974,
      "v": 106
    },
    {
      "midi": 71,
      "hit": false,
      "t": 62181.75600000001,
      "d": 290.9087999999974,
      "v": 119
    },
    {
      "midi": 40,
      "hit": false,
      "t": 62363.573999999935,
      "d": 909.0899999999965,
      "v": 76
    },
    {
      "midi": 64,
      "hit": false,
      "t": 62545.39200000001,
      "d": 436.3631999999998,
      "v": 110
    },
    {
      "midi": 68,
      "hit": false,
      "t": 62545.39200000001,
      "d": 436.3631999999998,
      "v": 119
    },
    {
      "midi": 73,
      "hit": false,
      "t": 62545.39200000001,
      "d": 436.3631999999998,
      "v": 106
    },
    {
      "midi": 56,
      "hit": false,
      "t": 62727.209999999934,
      "d": 545.4539999999979,
      "v": 95
    },
    {
      "midi": 64,
      "hit": false,
      "t": 62909.02799999993,
      "d": 363.6359999999986,
      "v": 102
    },
    {
      "midi": 59,
      "hit": false,
      "t": 63090.84599999993,
      "d": 181.8179999999993,
      "v": 85
    },
    {
      "midi": 62,
      "hit": false,
      "t": 63090.846000000005,
      "d": 581.8176000000021,
      "v": 110
    },
    {
      "midi": 67,
      "hit": false,
      "t": 63090.846000000005,
      "d": 581.8176000000021,
      "v": 106
    },
    {
      "midi": 71,
      "hit": false,
      "t": 63090.846000000005,
      "d": 581.8176000000021,
      "v": 110
    },
    {
      "midi": 62,
      "hit": false,
      "t": 63272.66399999993,
      "d": 272.72699999999895,
      "v": 87
    },
    {
      "midi": 67,
      "hit": false,
      "t": 63272.66399999993,
      "d": 277.27244999999675,
      "v": 95
    },
    {
      "midi": 59,
      "hit": false,
      "t": 63272.66399999993,
      "d": 281.81789999999455,
      "v": 89
    },
    {
      "midi": 71,
      "hit": false,
      "t": 63272.66399999993,
      "d": 295.4542499999952,
      "v": 95
    },
    {
      "midi": 43,
      "hit": false,
      "t": 63272.66399999993,
      "d": 581.8175999999949,
      "v": 91
    },
    {
      "midi": 59,
      "hit": false,
      "t": 63818.11799999993,
      "d": 622.7266499999896,
      "v": 85
    },
    {
      "midi": 71,
      "hit": false,
      "t": 63818.11799999993,
      "d": 818.1809999999896,
      "v": 89
    },
    {
      "midi": 67,
      "hit": false,
      "t": 63818.11799999993,
      "d": 836.362799999988,
      "v": 89
    },
    {
      "midi": 62,
      "hit": false,
      "t": 63818.11799999993,
      "d": 849.9991499999887,
      "v": 78
    },
    {
      "midi": 62,
      "hit": false,
      "t": 63818.11800000001,
      "d": 436.3631999999998,
      "v": 124
    },
    {
      "midi": 67,
      "hit": false,
      "t": 63818.11800000001,
      "d": 436.3631999999998,
      "v": 123
    },
    {
      "midi": 71,
      "hit": false,
      "t": 63818.11800000001,
      "d": 436.3631999999998,
      "v": 111
    },
    {
      "midi": 43,
      "hit": false,
      "t": 63999.93599999992,
      "d": 4.5454499999978,
      "v": 54
    },
    {
      "midi": 43,
      "hit": false,
      "t": 64181.75399999992,
      "d": 772.726499999997,
      "v": 87
    },
    {
      "midi": 62,
      "hit": false,
      "t": 64363.57200000001,
      "d": 436.3631999999998,
      "v": 104
    },
    {
      "midi": 67,
      "hit": false,
      "t": 64363.57200000001,
      "d": 436.3631999999998,
      "v": 107
    },
    {
      "midi": 71,
      "hit": false,
      "t": 64363.57200000001,
      "d": 436.3631999999998,
      "v": 119
    },
    {
      "midi": 59,
      "hit": false,
      "t": 64727.20799999992,
      "d": 45.454499999999825,
      "v": 49
    },
    {
      "midi": 67,
      "hit": false,
      "t": 64909.02599999992,
      "d": 140.90894999999728,
      "v": 105
    },
    {
      "midi": 62,
      "hit": false,
      "t": 64909.02599999992,
      "d": 145.45439999999508,
      "v": 107
    },
    {
      "midi": 59,
      "hit": false,
      "t": 64909.02599999992,
      "d": 154.54529999999795,
      "v": 110
    },
    {
      "midi": 71,
      "hit": false,
      "t": 64909.02599999992,
      "d": 154.54529999999795,
      "v": 105
    },
    {
      "midi": 62,
      "hit": false,
      "t": 64909.026000000005,
      "d": 340.9087500000023,
      "v": 95
    },
    {
      "midi": 67,
      "hit": false,
      "t": 64909.026000000005,
      "d": 340.9087500000023,
      "v": 110
    },
    {
      "midi": 71,
      "hit": false,
      "t": 64909.026000000005,
      "d": 340.9087500000023,
      "v": 108
    },
    {
      "midi": 43,
      "hit": false,
      "t": 65090.84399999992,
      "d": 209.09070000000065,
      "v": 76
    },
    {
      "midi": 67,
      "hit": false,
      "t": 65454.479999999916,
      "d": 722.7265499999994,
      "v": 85
    },
    {
      "midi": 55,
      "hit": false,
      "t": 65454.479999999916,
      "d": 749.9992500000008,
      "v": 80
    },
    {
      "midi": 64,
      "hit": false,
      "t": 65454.479999999916,
      "d": 749.9992500000008,
      "v": 89
    },
    {
      "midi": 40,
      "hit": false,
      "t": 65454.479999999916,
      "d": 2113.63425000001,
      "v": 85
    },
    {
      "midi": 55,
      "hit": false,
      "t": 66545.38799999992,
      "d": 127.2725999999966,
      "v": 74
    },
    {
      "midi": 64,
      "hit": false,
      "t": 66545.38799999992,
      "d": 136.3634999999922,
      "v": 89
    },
    {
      "midi": 67,
      "hit": false,
      "t": 66545.38799999992,
      "d": 136.3634999999922,
      "v": 89
    },
    {
      "midi": 66,
      "hit": false,
      "t": 67090.84199999992,
      "d": 131.81805000000168,
      "v": 91
    },
    {
      "midi": 69,
      "hit": false,
      "t": 67090.84199999992,
      "d": 131.81805000000168,
      "v": 91
    },
    {
      "midi": 59,
      "hit": false,
      "t": 67090.84199999992,
      "d": 145.45440000000235,
      "v": 93
    },
    {
      "midi": 59,
      "hit": false,
      "t": 67636.296,
      "d": 436.36320000000705,
      "v": 113
    },
    {
      "midi": 64,
      "hit": false,
      "t": 67636.296,
      "d": 436.36320000000705,
      "v": 95
    },
    {
      "midi": 59,
      "hit": false,
      "t": 68181.75000000001,
      "d": 436.36320000000705,
      "v": 107
    },
    {
      "midi": 64,
      "hit": false,
      "t": 68181.75000000001,
      "d": 436.36320000000705,
      "v": 100
    },
    {
      "midi": 59,
      "hit": false,
      "t": 68727.20400000003,
      "d": 436.36320000000705,
      "v": 108
    },
    {
      "midi": 64,
      "hit": false,
      "t": 68727.20400000003,
      "d": 436.36320000000705,
      "v": 98
    },
    {
      "midi": 40,
      "hit": false,
      "t": 69090.83999999992,
      "d": 727.2719999999972,
      "v": 64
    },
    {
      "midi": 55,
      "hit": false,
      "t": 69272.65799999992,
      "d": 545.4539999999979,
      "v": 85
    },
    {
      "midi": 64,
      "hit": false,
      "t": 69272.65799999992,
      "d": 545.4539999999979,
      "v": 93
    },
    {
      "midi": 67,
      "hit": false,
      "t": 69272.65799999992,
      "d": 545.4539999999979,
      "v": 91
    },
    {
      "midi": 59,
      "hit": false,
      "t": 69272.65800000004,
      "d": 522.7267500000016,
      "v": 98
    },
    {
      "midi": 38,
      "hit": false,
      "t": 69818.11199999992,
      "d": 409.0905000000057,
      "v": 95
    },
    {
      "midi": 50,
      "hit": false,
      "t": 69818.11199999992,
      "d": 413.6359500000108,
      "v": 89
    },
    {
      "midi": 57,
      "hit": false,
      "t": 69818.11199999992,
      "d": 509.0904000000155,
      "v": 89
    },
    {
      "midi": 62,
      "hit": false,
      "t": 69818.11199999992,
      "d": 509.0904000000155,
      "v": 89
    },
    {
      "midi": 66,
      "hit": false,
      "t": 69818.11199999992,
      "d": 509.0904000000155,
      "v": 89
    },
    {
      "midi": 69,
      "hit": false,
      "t": 71090.83799999993,
      "d": 1468.180349999995,
      "v": 98
    },
    {
      "midi": 62,
      "hit": false,
      "t": 71818.10999999993,
      "d": 809.0901000000013,
      "v": 66
    },
    {
      "midi": 57,
      "hit": false,
      "t": 71999.92800000004,
      "d": 436.36320000000705,
      "v": 109
    },
    {
      "midi": 62,
      "hit": false,
      "t": 71999.92800000004,
      "d": 436.36320000000705,
      "v": 110
    },
    {
      "midi": 57,
      "hit": false,
      "t": 72545.38200000006,
      "d": 436.36320000000705,
      "v": 111
    },
    {
      "midi": 62,
      "hit": false,
      "t": 72545.38200000006,
      "d": 436.36320000000705,
      "v": 107
    },
    {
      "midi": 57,
      "hit": false,
      "t": 73090.83600000007,
      "d": 436.36320000000705,
      "v": 111
    },
    {
      "midi": 62,
      "hit": false,
      "t": 73090.83600000007,
      "d": 436.36320000000705,
      "v": 108
    },
    {
      "midi": 69,
      "hit": false,
      "t": 73272.65399999994,
      "d": 909.0899999999965,
      "v": 66
    },
    {
      "midi": 66,
      "hit": false,
      "t": 73454.47199999994,
      "d": 640.9084500000026,
      "v": 72
    },
    {
      "midi": 57,
      "hit": false,
      "t": 73636.28999999994,
      "d": 545.4539999999979,
      "v": 89
    },
    {
      "midi": 57,
      "hit": false,
      "t": 73636.29000000008,
      "d": 522.7267500000016,
      "v": 96
    },
    {
      "midi": 67,
      "hit": false,
      "t": 74181.74399999993,
      "d": 722.7265500000067,
      "v": 85
    },
    {
      "midi": 55,
      "hit": false,
      "t": 74181.74399999993,
      "d": 749.999250000008,
      "v": 80
    },
    {
      "midi": 64,
      "hit": false,
      "t": 74181.74399999993,
      "d": 749.999250000008,
      "v": 89
    },
    {
      "midi": 48,
      "hit": false,
      "t": 74181.74399999993,
      "d": 4363.632000000012,
      "v": 85
    },
    {
      "midi": 36,
      "hit": false,
      "t": 75090.83399999994,
      "d": 1204.5442500000063,
      "v": 57
    },
    {
      "midi": 55,
      "hit": false,
      "t": 75272.65199999994,
      "d": 127.2725999999966,
      "v": 74
    },
    {
      "midi": 64,
      "hit": false,
      "t": 75272.65199999994,
      "d": 136.3634999999922,
      "v": 89
    },
    {
      "midi": 67,
      "hit": false,
      "t": 75272.65199999994,
      "d": 136.3634999999922,
      "v": 89
    },
    {
      "midi": 65,
      "hit": false,
      "t": 75818.10599999994,
      "d": 131.81805000000168,
      "v": 91
    },
    {
      "midi": 69,
      "hit": false,
      "t": 75818.10599999994,
      "d": 131.81805000000168,
      "v": 91
    },
    {
      "midi": 60,
      "hit": false,
      "t": 75818.10599999994,
      "d": 145.45440000000235,
      "v": 93
    },
    {
      "midi": 36,
      "hit": false,
      "t": 77818.10399999995,
      "d": 727.2719999999972,
      "v": 64
    },
    {
      "midi": 55,
      "hit": false,
      "t": 77999.92199999995,
      "d": 545.4539999999979,
      "v": 85
    },
    {
      "midi": 64,
      "hit": false,
      "t": 77999.92199999995,
      "d": 545.4539999999979,
      "v": 93
    },
    {
      "midi": 67,
      "hit": false,
      "t": 77999.92199999995,
      "d": 545.4539999999979,
      "v": 91
    },
    {
      "midi": 54,
      "hit": false,
      "t": 78545.37599999995,
      "d": 590.908500000005,
      "v": 89
    },
    {
      "midi": 35,
      "hit": false,
      "t": 78545.37599999995,
      "d": 681.8175000000047,
      "v": 93
    },
    {
      "midi": 47,
      "hit": false,
      "t": 78545.37599999995,
      "d": 827.271900000007,
      "v": 89
    },
    {
      "midi": 66,
      "hit": false,
      "t": 78545.37599999995,
      "d": 849.9991500000033,
      "v": 95
    },
    {
      "midi": 63,
      "hit": false,
      "t": 78545.37599999995,
      "d": 877.2718500000046,
      "v": 100
    },
    {
      "midi": 54,
      "hit": false,
      "t": 78545.37600000008,
      "d": 436.36320000000705,
      "v": 125
    },
    {
      "midi": 59,
      "hit": false,
      "t": 78545.37600000008,
      "d": 436.36320000000705,
      "v": 105
    },
    {
      "midi": 59,
      "hit": false,
      "t": 79090.83000000009,
      "d": 727.2719999999972,
      "v": 114
    },
    {
      "midi": 63,
      "hit": false,
      "t": 79090.83000000009,
      "d": 727.2719999999972,
      "v": 110
    },
    {
      "midi": 66,
      "hit": false,
      "t": 79090.83000000009,
      "d": 727.2719999999972,
      "v": 111
    },
    {
      "midi": 35,
      "hit": false,
      "t": 79818.10199999996,
      "d": 909.0899999999965,
      "v": 54
    },
    {
      "midi": 47,
      "hit": false,
      "t": 79999.91999999995,
      "d": 727.2719999999972,
      "v": 85
    },
    {
      "midi": 59,
      "hit": false,
      "t": 79999.92000000009,
      "d": 522.7267500000016,
      "v": 98
    },
    {
      "midi": 63,
      "hit": false,
      "t": 79999.92000000009,
      "d": 522.7267500000016,
      "v": 118
    },
    {
      "midi": 66,
      "hit": false,
      "t": 79999.92000000009,
      "d": 522.7267500000016,
      "v": 96
    },
    {
      "midi": 54,
      "hit": false,
      "t": 80181.73799999995,
      "d": 545.4539999999979,
      "v": 93
    },
    {
      "midi": 63,
      "hit": false,
      "t": 80363.55599999995,
      "d": 363.6359999999986,
      "v": 87
    },
    {
      "midi": 66,
      "hit": false,
      "t": 80545.37399999995,
      "d": 181.8179999999993,
      "v": 95
    },
    {
      "midi": 40,
      "hit": false,
      "t": 80727.19199999995,
      "d": 2181.816000000006,
      "v": 92
    },
    {
      "midi": 55,
      "hit": false,
      "t": 80727.19199999995,
      "d": 2181.816000000006,
      "v": 81
    },
    {
      "midi": 64,
      "hit": false,
      "t": 80731.73744999996,
      "d": 2177.270550000001,
      "v": 81
    },
    {
      "midi": 67,
      "hit": false,
      "t": 80731.73744999996,
      "d": 2177.270550000001,
      "v": 88
    },
    {
      "midi": 55,
      "hit": false,
      "t": 81636.28200000008,
      "d": 145.45440000000235,
      "v": 102
    },
    {
      "midi": 59,
      "hit": false,
      "t": 81636.28200000008,
      "d": 145.45440000000235,
      "v": 101
    },
    {
      "midi": 64,
      "hit": false,
      "t": 81636.28200000008,
      "d": 145.45440000000235,
      "v": 103
    },
    {
      "midi": 55,
      "hit": false,
      "t": 81818.10000000008,
      "d": 290.9088000000047,
      "v": 110
    },
    {
      "midi": 59,
      "hit": false,
      "t": 81818.10000000008,
      "d": 290.9088000000047,
      "v": 121
    },
    {
      "midi": 64,
      "hit": false,
      "t": 81818.10000000008,
      "d": 290.9088000000047,
      "v": 96
    },
    {
      "midi": 57,
      "hit": false,
      "t": 82181.73600000008,
      "d": 436.36320000000705,
      "v": 98
    },
    {
      "midi": 66,
      "hit": false,
      "t": 82181.73600000008,
      "d": 436.36320000000705,
      "v": 105
    },
    {
      "midi": 55,
      "hit": false,
      "t": 82727.19000000009,
      "d": 145.45440000000235,
      "v": 112
    },
    {
      "midi": 59,
      "hit": false,
      "t": 82727.19000000009,
      "d": 145.45440000000235,
      "v": 98
    },
    {
      "midi": 64,
      "hit": false,
      "t": 82727.19000000009,
      "d": 145.45440000000235,
      "v": 101
    },
    {
      "midi": 54,
      "hit": false,
      "t": 82909.00799999996,
      "d": 590.908500000005,
      "v": 89
    },
    {
      "midi": 35,
      "hit": false,
      "t": 82909.00799999996,
      "d": 681.8175000000047,
      "v": 93
    },
    {
      "midi": 47,
      "hit": false,
      "t": 82909.00799999996,
      "d": 827.271900000007,
      "v": 89
    },
    {
      "midi": 66,
      "hit": false,
      "t": 82909.00799999996,
      "d": 849.9991500000033,
      "v": 95
    },
    {
      "midi": 63,
      "hit": false,
      "t": 82909.00799999996,
      "d": 877.2718500000046,
      "v": 100
    },
    {
      "midi": 54,
      "hit": false,
      "t": 82909.00800000009,
      "d": 436.36320000000705,
      "v": 119
    },
    {
      "midi": 59,
      "hit": false,
      "t": 82909.00800000009,
      "d": 436.36320000000705,
      "v": 110
    },
    {
      "midi": 59,
      "hit": false,
      "t": 83454.4620000001,
      "d": 727.2719999999972,
      "v": 117
    },
    {
      "midi": 63,
      "hit": false,
      "t": 83454.4620000001,
      "d": 727.2719999999972,
      "v": 106
    },
    {
      "midi": 66,
      "hit": false,
      "t": 83454.4620000001,
      "d": 727.2719999999972,
      "v": 105
    },
    {
      "midi": 35,
      "hit": false,
      "t": 84181.73399999997,
      "d": 909.0899999999965,
      "v": 54
    },
    {
      "midi": 47,
      "hit": false,
      "t": 84363.55199999997,
      "d": 727.2719999999972,
      "v": 85
    },
    {
      "midi": 59,
      "hit": false,
      "t": 84363.5520000001,
      "d": 581.8175999999949,
      "v": 110
    },
    {
      "midi": 63,
      "hit": false,
      "t": 84363.5520000001,
      "d": 581.8175999999949,
      "v": 110
    },
    {
      "midi": 66,
      "hit": false,
      "t": 84363.5520000001,
      "d": 581.8175999999949,
      "v": 106
    },
    {
      "midi": 54,
      "hit": false,
      "t": 84545.36999999997,
      "d": 545.4539999999979,
      "v": 93
    },
    {
      "midi": 63,
      "hit": false,
      "t": 84727.18799999997,
      "d": 363.6359999999986,
      "v": 87
    },
    {
      "midi": 66,
      "hit": false,
      "t": 84909.00599999996,
      "d": 181.8179999999993,
      "v": 95
    },
    {
      "midi": 56,
      "hit": false,
      "t": 85090.82399999996,
      "d": 2078.4070125,
      "v": 93
    },
    {
      "midi": 59,
      "hit": false,
      "t": 85090.82399999996,
      "d": 2078.4070125,
      "v": 93
    },
    {
      "midi": 64,
      "hit": false,
      "t": 85090.82399999996,
      "d": 2078.4070125,
      "v": 93
    },
    {
      "midi": 59,
      "hit": false,
      "t": 85090.8240000001,
      "d": 2078.4070125,
      "v": 113
    },
    {
      "midi": 64,
      "hit": false,
      "t": 85090.8240000001,
      "d": 2078.4070125,
      "v": 125
    },
    {
      "midi": 68,
      "hit": false,
      "t": 85090.8240000001,
      "d": 2078.4070125,
      "v": 119
    }
  ]
}