{
  "jsonPath": "Unknown/Unknown/Kuhn_ Dieter Thomas/gute-nacht-freunde.json",
  "path": "Unknown\\Unknown\\Kuhn_ Dieter Thomas\\Gute Nacht_ Freunde.mid",
  "name": "Gute Nacht_ Freunde",
  "difficulty": "Advanced",
  "bpm": 123.00223864074326,
  "notes": [
    {
      "midi": 45,
      "hit": false,
      "t": 7266.406875,
      "d": 809.3426249999993,
      "v": 111
    },
    {
      "midi": 57,
      "hit": false,
      "t": 7266.406875,
      "d": 809.3426249999993,
      "v": 112
    },
    {
      "midi": 69,
      "hit": false,
      "t": 7304.2856249999995,
      "d": 184.3432499999999,
      "v": 107
    },
    {
      "midi": 81,
      "hit": false,
      "t": 7477.2652499999995,
      "d": 133.8382499999998,
      "v": 76
    },
    {
      "midi": 69,
      "hit": false,
      "t": 7638.881249999999,
      "d": 114.89887499999986,
      "v": 83
    },
    {
      "midi": 81,
      "hit": false,
      "t": 7736.103375,
      "d": 70.70699999999943,
      "v": 77
    },
    {
      "midi": 69,
      "hit": false,
      "t": 7821.961874999999,
      "d": 130.0503749999998,
      "v": 53
    },
    {
      "midi": 81,
      "hit": false,
      "t": 7938.123374999999,
      "d": 60.60599999999977,
      "v": 90
    },
    {
      "midi": 69,
      "hit": false,
      "t": 8032.820249999999,
      "d": 89.64637500000026,
      "v": 59
    },
    {
      "midi": 81,
      "hit": false,
      "t": 8127.517124999999,
      "d": 51.76762500000041,
      "v": 92
    },
    {
      "midi": 45,
      "hit": false,
      "t": 8178.0221249999995,
      "d": 815.6557499999981,
      "v": 105
    },
    {
      "midi": 57,
      "hit": false,
      "t": 8188.123125,
      "d": 815.6557499999981,
      "v": 105
    },
    {
      "midi": 69,
      "hit": false,
      "t": 8222.214,
      "d": 136.36349999999948,
      "v": 51
    },
    {
      "midi": 81,
      "hit": false,
      "t": 8316.910875,
      "d": 54.292874999999185,
      "v": 94
    },
    {
      "midi": 69,
      "hit": false,
      "t": 8405.294624999999,
      "d": 104.7978750000002,
      "v": 37
    },
    {
      "midi": 81,
      "hit": false,
      "t": 8503.779374999998,
      "d": 70.70700000000033,
      "v": 91
    },
    {
      "midi": 69,
      "hit": false,
      "t": 8617.415624999998,
      "d": 108.58575000000019,
      "v": 52
    },
    {
      "midi": 81,
      "hit": false,
      "t": 8699.486249999998,
      "d": 70.70700000000033,
      "v": 89
    },
    {
      "midi": 69,
      "hit": false,
      "t": 8800.496249999998,
      "d": 140.15137499999946,
      "v": 58
    },
    {
      "midi": 81,
      "hit": false,
      "t": 8891.405249999998,
      "d": 89.64637500000026,
      "v": 82
    },
    {
      "midi": 69,
      "hit": false,
      "t": 9008.829374999998,
      "d": 121.21199999999953,
      "v": 59
    },
    {
      "midi": 45,
      "hit": false,
      "t": 9084.586874999997,
      "d": 818.1810000000005,
      "v": 98
    },
    {
      "midi": 57,
      "hit": false,
      "t": 9084.586874999997,
      "d": 818.1810000000005,
      "v": 103
    },
    {
      "midi": 81,
      "hit": false,
      "t": 9103.526249999997,
      "d": 77.0201249999991,
      "v": 90
    },
    {
      "midi": 69,
      "hit": false,
      "t": 9210.849374999996,
      "d": 136.3635000000013,
      "v": 54
    },
    {
      "midi": 81,
      "hit": false,
      "t": 9299.233124999997,
      "d": 79.5453749999997,
      "v": 84
    },
    {
      "midi": 69,
      "hit": false,
      "t": 9412.869374999997,
      "d": 92.17162500000086,
      "v": 43
    },
    {
      "midi": 81,
      "hit": false,
      "t": 9501.253124999997,
      "d": 58.08074999999917,
      "v": 79
    },
    {
      "midi": 69,
      "hit": false,
      "t": 9592.162124999997,
      "d": 123.73725000000013,
      "v": 45
    },
    {
      "midi": 81,
      "hit": false,
      "t": 9690.646874999997,
      "d": 79.5453749999997,
      "v": 77
    },
    {
      "midi": 69,
      "hit": false,
      "t": 9800.495249999996,
      "d": 114.89887500000077,
      "v": 53
    },
    {
      "midi": 81,
      "hit": false,
      "t": 9888.878999999997,
      "d": 77.0201249999991,
      "v": 92
    },
    {
      "midi": 69,
      "hit": false,
      "t": 9987.363749999997,
      "d": 136.36349999999948,
      "v": 61
    },
    {
      "midi": 45,
      "hit": false,
      "t": 9996.202124999996,
      "d": 780.302249999997,
      "v": 112
    },
    {
      "midi": 57,
      "hit": false,
      "t": 9996.202124999996,
      "d": 780.302249999997,
      "v": 107
    },
    {
      "midi": 81,
      "hit": false,
      "t": 10078.272749999996,
      "d": 89.64637500000026,
      "v": 80
    },
    {
      "midi": 69,
      "hit": false,
      "t": 10195.696874999996,
      "d": 95.95949999999903,
      "v": 49
    },
    {
      "midi": 81,
      "hit": false,
      "t": 10267.666499999996,
      "d": 95.95949999999903,
      "v": 77
    },
    {
      "midi": 69,
      "hit": false,
      "t": 10393.928999999995,
      "d": 111.11100000000079,
      "v": 63
    },
    {
      "midi": 81,
      "hit": false,
      "t": 10486.100624999995,
      "d": 73.23224999999911,
      "v": 72
    },
    {
      "midi": 69,
      "hit": false,
      "t": 10599.736874999995,
      "d": 79.5453749999997,
      "v": 56
    },
    {
      "midi": 81,
      "hit": false,
      "t": 10675.494374999995,
      "d": 77.0201249999991,
      "v": 73
    },
    {
      "midi": 69,
      "hit": false,
      "t": 10789.130624999993,
      "d": 95.95950000000084,
      "v": 70
    },
    {
      "midi": 81,
      "hit": false,
      "t": 10873.726499999993,
      "d": 66.91912500000035,
      "v": 62
    },
    {
      "midi": 45,
      "hit": false,
      "t": 10909.079999999993,
      "d": 512.6257500000011,
      "v": 110
    },
    {
      "midi": 57,
      "hit": false,
      "t": 10915.393124999993,
      "d": 512.6257499999992,
      "v": 108
    },
    {
      "midi": 69,
      "hit": false,
      "t": 10993.675874999994,
      "d": 60.60599999999977,
      "v": 44
    },
    {
      "midi": 81,
      "hit": false,
      "t": 11041.655624999994,
      "d": 77.0201249999991,
      "v": 78
    },
    {
      "midi": 69,
      "hit": false,
      "t": 11161.604999999992,
      "d": 95.95950000000084,
      "v": 48
    },
    {
      "midi": 81,
      "hit": false,
      "t": 11224.736249999993,
      "d": 102.2726249999996,
      "v": 76
    },
    {
      "midi": 69,
      "hit": false,
      "t": 11340.897749999993,
      "d": 102.2726249999996,
      "v": 63
    },
    {
      "midi": 81,
      "hit": false,
      "t": 11426.756249999993,
      "d": 89.64637499999844,
      "v": 87
    },
    {
      "midi": 45,
      "hit": false,
      "t": 11508.826874999992,
      "d": 462.1207499999982,
      "v": 107
    },
    {
      "midi": 57,
      "hit": false,
      "t": 11511.352124999992,
      "d": 462.1207499999982,
      "v": 106
    },
    {
      "midi": 69,
      "hit": false,
      "t": 11540.39249999999,
      "d": 64.39387499999975,
      "v": 62
    },
    {
      "midi": 81,
      "hit": false,
      "t": 11590.89749999999,
      "d": 92.17162500000086,
      "v": 65
    },
    {
      "midi": 69,
      "hit": false,
      "t": 11717.15999999999,
      "d": 73.23224999999911,
      "v": 57
    },
    {
      "midi": 81,
      "hit": false,
      "t": 11755.03874999999,
      "d": 89.64637499999844,
      "v": 70
    },
    {
      "midi": 69,
      "hit": false,
      "t": 11856.048749999989,
      "d": 117.42412500000137,
      "v": 65
    },
    {
      "midi": 73,
      "hit": false,
      "t": 12111.098999999991,
      "d": 376.26224999999977,
      "v": 105
    },
    {
      "midi": 88,
      "hit": false,
      "t": 12111.098999999991,
      "d": 376.26224999999977,
      "v": 99
    },
    {
      "midi": 86,
      "hit": false,
      "t": 12571.957124999992,
      "d": 323.23199999999997,
      "v": 113
    },
    {
      "midi": 69,
      "hit": false,
      "t": 12929.279999999992,
      "d": 237.3734999999997,
      "v": 102
    },
    {
      "midi": 85,
      "hit": false,
      "t": 12975.99712499999,
      "d": 272.72700000000077,
      "v": 98
    },
    {
      "midi": 73,
      "hit": false,
      "t": 13323.218999999992,
      "d": 376.26224999999795,
      "v": 104
    },
    {
      "midi": 88,
      "hit": false,
      "t": 13354.784624999991,
      "d": 335.8582499999993,
      "v": 109
    },
    {
      "midi": 86,
      "hit": false,
      "t": 13771.45087499999,
      "d": 407.82787499999904,
      "v": 95
    },
    {
      "midi": 69,
      "hit": false,
      "t": 14141.399999999989,
      "d": 237.3734999999997,
      "v": 99
    },
    {
      "midi": 85,
      "hit": false,
      "t": 14238.622124999989,
      "d": 260.1007499999996,
      "v": 91
    },
    {
      "midi": 73,
      "hit": false,
      "t": 14595.944999999989,
      "d": 268.9391250000008,
      "v": 98
    },
    {
      "midi": 88,
      "hit": false,
      "t": 14595.944999999989,
      "d": 268.9391250000008,
      "v": 102
    },
    {
      "midi": 86,
      "hit": false,
      "t": 14880.03562499999,
      "d": 262.6260000000002,
      "v": 96
    },
    {
      "midi": 69,
      "hit": false,
      "t": 15141.39899999999,
      "d": 152.7776249999988,
      "v": 93
    },
    {
      "midi": 85,
      "hit": false,
      "t": 15151.499999999989,
      "d": 152.77762500000063,
      "v": 99
    },
    {
      "midi": 73,
      "hit": false,
      "t": 15340.89374999999,
      "d": 297.97949999999946,
      "v": 93
    },
    {
      "midi": 88,
      "hit": false,
      "t": 15353.51999999999,
      "d": 146.46450000000004,
      "v": 94
    },
    {
      "midi": 86,
      "hit": false,
      "t": 15555.53999999999,
      "d": 184.3432499999999,
      "v": 80
    },
    {
      "midi": 85,
      "hit": false,
      "t": 15757.55999999999,
      "d": 130.0503749999989,
      "v": 95
    },
    {
      "midi": 69,
      "hit": false,
      "t": 15766.39837499999,
      "d": 130.0503749999989,
      "v": 94
    },
    {
      "midi": 88,
      "hit": false,
      "t": 15959.579999999989,
      "d": 148.98975000000064,
      "v": 97
    },
    {
      "midi": 73,
      "hit": false,
      "t": 15974.731499999989,
      "d": 300.50475000000006,
      "v": 93
    },
    {
      "midi": 86,
      "hit": false,
      "t": 16161.59999999999,
      "d": 114.89887499999895,
      "v": 90
    },
    {
      "midi": 85,
      "hit": false,
      "t": 16363.619999999988,
      "d": 184.34325000000172,
      "v": 101
    },
    {
      "midi": 69,
      "hit": false,
      "t": 17755.03274999999,
      "d": 670.4538749999992,
      "v": 96
    },
    {
      "midi": 68,
      "hit": false,
      "t": 18487.35524999999,
      "d": 443.1813750000001,
      "v": 104
    },
    {
      "midi": 66,
      "hit": false,
      "t": 18992.40524999999,
      "d": 405.30262500000026,
      "v": 98
    },
    {
      "midi": 64,
      "hit": false,
      "t": 19459.57649999999,
      "d": 344.6966250000005,
      "v": 100
    },
    {
      "midi": 62,
      "hit": false,
      "t": 19869.92962499999,
      "d": 373.737000000001,
      "v": 106
    },
    {
      "midi": 61,
      "hit": false,
      "t": 20290.38374999999,
      "d": 392.6763749999991,
      "v": 95
    },
    {
      "midi": 59,
      "hit": false,
      "t": 20722.20149999999,
      "d": 392.6763749999991,
      "v": 98
    },
    {
      "midi": 61,
      "hit": false,
      "t": 21130.029374999987,
      "d": 338.3834999999999,
      "v": 111
    },
    {
      "midi": 57,
      "hit": false,
      "t": 21515.129999999986,
      "d": 657.8276250000017,
      "v": 107
    },
    {
      "midi": 61,
      "hit": false,
      "t": 22420.43212499999,
      "d": 837.1203750000022,
      "v": 109
    },
    {
      "midi": 52,
      "hit": false,
      "t": 22424.21999999999,
      "d": 837.1203750000022,
      "v": 109
    },
    {
      "midi": 57,
      "hit": false,
      "t": 22426.74524999999,
      "d": 837.1203750000022,
      "v": 103
    },
    {
      "midi": 57,
      "hit": false,
      "t": 23329.522124999992,
      "d": 929.2920000000013,
      "v": 112
    },
    {
      "midi": 62,
      "hit": false,
      "t": 23335.835249999993,
      "d": 929.2920000000013,
      "v": 106
    },
    {
      "midi": 66,
      "hit": false,
      "t": 23339.623124999995,
      "d": 929.2920000000013,
      "v": 111
    },
    {
      "midi": 52,
      "hit": false,
      "t": 24244.925249999993,
      "d": 85.8585000000021,
      "v": 102
    },
    {
      "midi": 64,
      "hit": false,
      "t": 24545.429999999997,
      "d": 752.5244999999995,
      "v": 111
    },
    {
      "midi": 68,
      "hit": false,
      "t": 24545.429999999997,
      "d": 752.5244999999995,
      "v": 111
    },
    {
      "midi": 59,
      "hit": false,
      "t": 24547.955249999995,
      "d": 752.5244999999995,
      "v": 109
    },
    {
      "midi": 57,
      "hit": false,
      "t": 25448.206874999996,
      "d": 818.1810000000005,
      "v": 107
    },
    {
      "midi": 66,
      "hit": false,
      "t": 25454.519999999997,
      "d": 818.1810000000005,
      "v": 107
    },
    {
      "midi": 62,
      "hit": false,
      "t": 25460.833124999997,
      "d": 818.1810000000005,
      "v": 103
    },
    {
      "midi": 49,
      "hit": false,
      "t": 26369.923124999998,
      "d": 742.4234999999971,
      "v": 103
    },
    {
      "midi": 45,
      "hit": false,
      "t": 26672.953124999996,
      "d": 512.6257499999992,
      "v": 102
    },
    {
      "midi": 49,
      "hit": false,
      "t": 27275.225249999996,
      "d": 222.22200000000157,
      "v": 111
    },
    {
      "midi": 45,
      "hit": false,
      "t": 27281.538374999996,
      "d": 222.22200000000157,
      "v": 118
    },
    {
      "midi": 49,
      "hit": false,
      "t": 27571.942124999998,
      "d": 287.87850000000253,
      "v": 96
    },
    {
      "midi": 45,
      "hit": false,
      "t": 27575.73,
      "d": 287.87850000000253,
      "v": 102
    },
    {
      "midi": 45,
      "hit": false,
      "t": 27885.073125000003,
      "d": 291.6663750000007,
      "v": 89
    },
    {
      "midi": 50,
      "hit": false,
      "t": 28181.790000000005,
      "d": 537.8782499999979,
      "v": 117
    },
    {
      "midi": 45,
      "hit": false,
      "t": 28184.315250000003,
      "d": 534.0903749999998,
      "v": 115
    },
    {
      "midi": 47,
      "hit": false,
      "t": 28484.820000000003,
      "d": 287.8784999999989,
      "v": 101
    },
    {
      "midi": 40,
      "hit": false,
      "t": 28784.062125000004,
      "d": 1169.1907500000016,
      "v": 104
    },
    {
      "midi": 52,
      "hit": false,
      "t": 28790.375250000005,
      "d": 1169.1907500000016,
      "v": 107
    },
    {
      "midi": 47,
      "hit": false,
      "t": 28794.163125000006,
      "d": 1169.1907500000016,
      "v": 103
    },
    {
      "midi": 54,
      "hit": false,
      "t": 31515.12000000001,
      "d": 885.1001250000008,
      "v": 97
    },
    {
      "midi": 66,
      "hit": false,
      "t": 31515.12000000001,
      "d": 885.1001250000008,
      "v": 96
    },
    {
      "midi": 54,
      "hit": false,
      "t": 32424.21000000001,
      "d": 420.4541250000002,
      "v": 103
    },
    {
      "midi": 66,
      "hit": false,
      "t": 32424.21000000001,
      "d": 420.4541250000002,
      "v": 102
    },
    {
      "midi": 54,
      "hit": false,
      "t": 33030.27000000001,
      "d": 843.4334999999992,
      "v": 101
    },
    {
      "midi": 59,
      "hit": false,
      "t": 33636.33000000001,
      "d": 287.8784999999989,
      "v": 108
    },
    {
      "midi": 52,
      "hit": false,
      "t": 33939.36000000001,
      "d": 748.7366249999977,
      "v": 98
    },
    {
      "midi": 68,
      "hit": false,
      "t": 33939.36000000001,
      "d": 748.7366249999977,
      "v": 96
    },
    {
      "midi": 52,
      "hit": false,
      "t": 34848.450000000004,
      "d": 369.9491249999992,
      "v": 97
    },
    {
      "midi": 52,
      "hit": false,
      "t": 35454.51,
      "d": 843.4334999999992,
      "v": 103
    },
    {
      "midi": 52,
      "hit": false,
      "t": 36363.6,
      "d": 748.7366249999977,
      "v": 94
    },
    {
      "midi": 52,
      "hit": false,
      "t": 37272.689999999995,
      "d": 369.9491249999992,
      "v": 95
    },
    {
      "midi": 73,
      "hit": false,
      "t": 37874.96212499999,
      "d": 291.6663750000007,
      "v": 103
    },
    {
      "midi": 52,
      "hit": false,
      "t": 37878.74999999999,
      "d": 843.4334999999992,
      "v": 95
    },
    {
      "midi": 74,
      "hit": false,
      "t": 38188.09312499999,
      "d": 285.3532500000001,
      "v": 100
    },
    {
      "midi": 73,
      "hit": false,
      "t": 38487.33524999999,
      "d": 262.62600000000384,
      "v": 98
    },
    {
      "midi": 74,
      "hit": false,
      "t": 38777.738999999994,
      "d": 748.736625000005,
      "v": 111
    },
    {
      "midi": 54,
      "hit": false,
      "t": 38787.84,
      "d": 748.736625000005,
      "v": 99
    },
    {
      "midi": 54,
      "hit": false,
      "t": 39696.93,
      "d": 369.9491249999992,
      "v": 96
    },
    {
      "midi": 64,
      "hit": false,
      "t": 39999.96,
      "d": 190.65637499999866,
      "v": 102
    },
    {
      "midi": 66,
      "hit": false,
      "t": 40204.505249999995,
      "d": 900.2516250000044,
      "v": 108
    },
    {
      "midi": 54,
      "hit": false,
      "t": 40302.99,
      "d": 843.4334999999992,
      "v": 95
    },
    {
      "midi": 49,
      "hit": false,
      "t": 41212.079999999994,
      "d": 748.7366249999977,
      "v": 98
    },
    {
      "midi": 68,
      "hit": false,
      "t": 41212.079999999994,
      "d": 748.7366249999977,
      "v": 101
    },
    {
      "midi": 49,
      "hit": false,
      "t": 42121.16999999999,
      "d": 369.9491249999992,
      "v": 96
    },
    {
      "midi": 68,
      "hit": false,
      "t": 42121.16999999999,
      "d": 369.9491249999992,
      "v": 100
    },
    {
      "midi": 49,
      "hit": false,
      "t": 42727.22999999999,
      "d": 843.4334999999992,
      "v": 103
    },
    {
      "midi": 64,
      "hit": false,
      "t": 42727.22999999999,
      "d": 843.4334999999992,
      "v": 102
    },
    {
      "midi": 47,
      "hit": false,
      "t": 43636.319999999985,
      "d": 748.7366249999977,
      "v": 101
    },
    {
      "midi": 66,
      "hit": false,
      "t": 43636.319999999985,
      "d": 748.7366249999977,
      "v": 99
    },
    {
      "midi": 47,
      "hit": false,
      "t": 44545.40999999998,
      "d": 369.9491249999992,
      "v": 92
    },
    {
      "midi": 66,
      "hit": false,
      "t": 44545.40999999998,
      "d": 369.9491249999992,
      "v": 99
    },
    {
      "midi": 47,
      "hit": false,
      "t": 45151.46999999998,
      "d": 843.4334999999992,
      "v": 99
    },
    {
      "midi": 59,
      "hit": false,
      "t": 45151.46999999998,
      "d": 843.4334999999992,
      "v": 98
    },
    {
      "midi": 52,
      "hit": false,
      "t": 46060.559999999976,
      "d": 748.7366249999977,
      "v": 102
    },
    {
      "midi": 68,
      "hit": false,
      "t": 46060.559999999976,
      "d": 748.7366249999977,
      "v": 103
    },
    {
      "midi": 68,
      "hit": false,
      "t": 46965.86212499997,
      "d": 287.8784999999989,
      "v": 104
    },
    {
      "midi": 52,
      "hit": false,
      "t": 46969.64999999997,
      "d": 369.9491249999992,
      "v": 93
    },
    {
      "midi": 69,
      "hit": false,
      "t": 47278.99312499997,
      "d": 272.72699999999895,
      "v": 87
    },
    {
      "midi": 68,
      "hit": false,
      "t": 47565.60899999997,
      "d": 287.8784999999989,
      "v": 100
    },
    {
      "midi": 52,
      "hit": false,
      "t": 47575.70999999997,
      "d": 843.4334999999992,
      "v": 99
    },
    {
      "midi": 66,
      "hit": false,
      "t": 47885.05312499997,
      "d": 279.04012499999953,
      "v": 104
    },
    {
      "midi": 64,
      "hit": false,
      "t": 48177.982124999966,
      "d": 287.87850000000617,
      "v": 98
    },
    {
      "midi": 52,
      "hit": false,
      "t": 48484.799999999974,
      "d": 748.7366249999977,
      "v": 103
    },
    {
      "midi": 61,
      "hit": false,
      "t": 48487.32524999997,
      "d": 872.473874999996,
      "v": 99
    },
    {
      "midi": 52,
      "hit": false,
      "t": 49393.88999999997,
      "d": 369.9491249999992,
      "v": 98
    },
    {
      "midi": 52,
      "hit": false,
      "t": 49999.94999999997,
      "d": 843.4334999999992,
      "v": 97
    },
    {
      "midi": 62,
      "hit": false,
      "t": 50909.039999999964,
      "d": 388.88850000000093,
      "v": 117
    },
    {
      "midi": 66,
      "hit": false,
      "t": 50909.039999999964,
      "d": 388.88850000000093,
      "v": 118
    },
    {
      "midi": 52,
      "hit": false,
      "t": 50909.039999999964,
      "d": 748.7366249999977,
      "v": 96
    },
    {
      "midi": 61,
      "hit": false,
      "t": 51313.079999999965,
      "d": 363.6359999999986,
      "v": 95
    },
    {
      "midi": 64,
      "hit": false,
      "t": 51313.079999999965,
      "d": 363.6359999999986,
      "v": 99
    },
    {
      "midi": 57,
      "hit": false,
      "t": 51717.119999999966,
      "d": 388.88850000000093,
      "v": 101
    },
    {
      "midi": 61,
      "hit": false,
      "t": 51717.119999999966,
      "d": 388.88850000000093,
      "v": 103
    },
    {
      "midi": 52,
      "hit": false,
      "t": 51818.12999999997,
      "d": 369.9491249999992,
      "v": 95
    },
    {
      "midi": 61,
      "hit": false,
      "t": 52121.15999999997,
      "d": 388.88850000000093,
      "v": 105
    },
    {
      "midi": 52,
      "hit": false,
      "t": 52424.189999999966,
      "d": 843.4335000000065,
      "v": 100
    },
    {
      "midi": 62,
      "hit": false,
      "t": 52525.19999999997,
      "d": 388.88850000000093,
      "v": 110
    },
    {
      "midi": 64,
      "hit": false,
      "t": 52929.23999999997,
      "d": 376.26225000000704,
      "v": 108
    },
    {
      "midi": 54,
      "hit": false,
      "t": 53333.27999999998,
      "d": 885.1001249999972,
      "v": 98
    },
    {
      "midi": 66,
      "hit": false,
      "t": 53333.27999999998,
      "d": 885.1001249999972,
      "v": 103
    },
    {
      "midi": 54,
      "hit": false,
      "t": 54242.36999999997,
      "d": 420.45412499999657,
      "v": 98
    },
    {
      "midi": 66,
      "hit": false,
      "t": 54242.36999999997,
      "d": 420.45412499999657,
      "v": 101
    },
    {
      "midi": 54,
      "hit": false,
      "t": 54848.42999999997,
      "d": 843.4334999999992,
      "v": 96
    },
    {
      "midi": 59,
      "hit": false,
      "t": 55454.48999999997,
      "d": 287.8784999999989,
      "v": 102
    },
    {
      "midi": 52,
      "hit": false,
      "t": 55757.51999999997,
      "d": 748.7366249999977,
      "v": 99
    },
    {
      "midi": 68,
      "hit": false,
      "t": 55757.51999999997,
      "d": 748.7366249999977,
      "v": 95
    },
    {
      "midi": 52,
      "hit": false,
      "t": 56666.609999999964,
      "d": 369.9491249999992,
      "v": 101
    },
    {
      "midi": 66,
      "hit": false,
      "t": 56975.95312499996,
      "d": 285.3532500000001,
      "v": 103
    },
    {
      "midi": 68,
      "hit": false,
      "t": 57268.88212499997,
      "d": 291.6663750000007,
      "v": 100
    },
    {
      "midi": 52,
      "hit": false,
      "t": 57272.66999999997,
      "d": 843.4334999999992,
      "v": 97
    },
    {
      "midi": 69,
      "hit": false,
      "t": 57582.01312499997,
      "d": 285.3532500000001,
      "v": 99
    },
    {
      "midi": 71,
      "hit": false,
      "t": 57881.255249999966,
      "d": 111.11099999999715,
      "v": 97
    },
    {
      "midi": 73,
      "hit": false,
      "t": 58030.244999999966,
      "d": 748.7366249999977,
      "v": 102
    },
    {
      "midi": 52,
      "hit": false,
      "t": 58181.759999999966,
      "d": 748.7366249999977,
      "v": 104
    },
    {
      "midi": 52,
      "hit": false,
      "t": 59090.84999999996,
      "d": 369.9491249999992,
      "v": 96
    },
    {
      "midi": 52,
      "hit": false,
      "t": 59696.90999999996,
      "d": 843.4334999999992,
      "v": 101
    },
    {
      "midi": 52,
      "hit": false,
      "t": 60605.999999999956,
      "d": 748.7366249999977,
      "v": 94
    },
    {
      "midi": 52,
      "hit": false,
      "t": 61515.08999999995,
      "d": 369.9491249999992,
      "v": 98
    },
    {
      "midi": 73,
      "hit": false,
      "t": 61818.11999999995,
      "d": 136.36349999999948,
      "v": 82
    },
    {
      "midi": 76,
      "hit": false,
      "t": 61824.43312499995,
      "d": 285.3532500000001,
      "v": 100
    },
    {
      "midi": 73,
      "hit": false,
      "t": 61965.84712499995,
      "d": 443.1813750000001,
      "v": 97
    },
    {
      "midi": 52,
      "hit": false,
      "t": 62121.14999999995,
      "d": 843.4334999999992,
      "v": 95
    },
    {
      "midi": 71,
      "hit": false,
      "t": 62430.49312499995,
      "d": 285.3532500000001,
      "v": 103
    },
    {
      "midi": 69,
      "hit": false,
      "t": 62729.73524999995,
      "d": 262.62600000000384,
      "v": 99
    },
    {
      "midi": 54,
      "hit": false,
      "t": 63030.239999999954,
      "d": 885.1001249999972,
      "v": 100
    },
    {
      "midi": 66,
      "hit": false,
      "t": 63030.239999999954,
      "d": 885.1001249999972,
      "v": 101
    },
    {
      "midi": 54,
      "hit": false,
      "t": 63939.32999999995,
      "d": 420.45412499999657,
      "v": 98
    },
    {
      "midi": 66,
      "hit": false,
      "t": 63939.32999999995,
      "d": 420.45412499999657,
      "v": 94
    },
    {
      "midi": 54,
      "hit": false,
      "t": 64545.38999999995,
      "d": 843.4334999999992,
      "v": 101
    },
    {
      "midi": 59,
      "hit": false,
      "t": 65151.449999999946,
      "d": 287.8784999999989,
      "v": 101
    },
    {
      "midi": 52,
      "hit": false,
      "t": 65454.479999999945,
      "d": 748.7366249999977,
      "v": 100
    },
    {
      "midi": 68,
      "hit": false,
      "t": 65454.479999999945,
      "d": 748.7366249999977,
      "v": 95
    },
    {
      "midi": 52,
      "hit": false,
      "t": 66363.56999999995,
      "d": 369.9491249999992,
      "v": 95
    },
    {
      "midi": 66,
      "hit": false,
      "t": 66672.91312499995,
      "d": 285.3532500000001,
      "v": 107
    },
    {
      "midi": 68,
      "hit": false,
      "t": 66965.84212499995,
      "d": 291.6663750000007,
      "v": 101
    },
    {
      "midi": 52,
      "hit": false,
      "t": 66969.62999999995,
      "d": 843.4334999999992,
      "v": 97
    },
    {
      "midi": 66,
      "hit": false,
      "t": 67278.97312499995,
      "d": 285.3532500000001,
      "v": 105
    },
    {
      "midi": 52,
      "hit": false,
      "t": 67878.71999999994,
      "d": 748.736625000005,
      "v": 102
    },
    {
      "midi": 64,
      "hit": false,
      "t": 67878.71999999994,
      "d": 748.736625000005,
      "v": 102
    },
    {
      "midi": 66,
      "hit": false,
      "t": 69090.83999999995,
      "d": 369.9491249999992,
      "v": 101
    },
    {
      "midi": 54,
      "hit": false,
      "t": 69393.86999999995,
      "d": 843.4334999999992,
      "v": 98
    },
    {
      "midi": 62,
      "hit": false,
      "t": 69693.11212499996,
      "d": 291.6663750000007,
      "v": 99
    },
    {
      "midi": 59,
      "hit": false,
      "t": 70006.24312499995,
      "d": 285.3532500000001,
      "v": 101
    },
    {
      "midi": 56,
      "hit": false,
      "t": 70302.95999999995,
      "d": 748.736625000005,
      "v": 98
    },
    {
      "midi": 68,
      "hit": false,
      "t": 70302.95999999995,
      "d": 748.736625000005,
      "v": 101
    },
    {
      "midi": 56,
      "hit": false,
      "t": 71212.04999999996,
      "d": 369.9491249999992,
      "v": 92
    },
    {
      "midi": 47,
      "hit": false,
      "t": 71818.10999999996,
      "d": 843.4334999999992,
      "v": 102
    },
    {
      "midi": 40,
      "hit": false,
      "t": 72727.19999999995,
      "d": 2358.5834999999934,
      "v": 96
    },
    {
      "midi": 54,
      "hit": false,
      "t": 75151.43999999994,
      "d": 885.1001249999972,
      "v": 99
    },
    {
      "midi": 66,
      "hit": false,
      "t": 75151.43999999994,
      "d": 885.1001249999972,
      "v": 100
    },
    {
      "midi": 54,
      "hit": false,
      "t": 76060.52999999994,
      "d": 420.45412500000384,
      "v": 101
    },
    {
      "midi": 66,
      "hit": false,
      "t": 76060.52999999994,
      "d": 420.45412500000384,
      "v": 97
    },
    {
      "midi": 54,
      "hit": false,
      "t": 76666.58999999994,
      "d": 843.4334999999992,
      "v": 100
    },
    {
      "midi": 59,
      "hit": false,
      "t": 77272.64999999994,
      "d": 287.87850000000617,
      "v": 105
    },
    {
      "midi": 52,
      "hit": false,
      "t": 77575.67999999995,
      "d": 748.736625000005,
      "v": 96
    },
    {
      "midi": 68,
      "hit": false,
      "t": 77575.67999999995,
      "d": 748.736625000005,
      "v": 99
    },
    {
      "midi": 52,
      "hit": false,
      "t": 78484.76999999996,
      "d": 369.9491249999992,
      "v": 102
    },
    {
      "midi": 52,
      "hit": false,
      "t": 79090.82999999996,
      "d": 843.4334999999992,
      "v": 97
    },
    {
      "midi": 52,
      "hit": false,
      "t": 79999.91999999995,
      "d": 748.736625000005,
      "v": 99
    },
    {
      "midi": 52,
      "hit": false,
      "t": 80909.00999999997,
      "d": 369.9491249999992,
      "v": 100
    },
    {
      "midi": 73,
      "hit": false,
      "t": 81511.28212499997,
      "d": 291.6663750000007,
      "v": 106
    },
    {
      "midi": 52,
      "hit": false,
      "t": 81515.06999999996,
      "d": 843.4334999999992,
      "v": 102
    },
    {
      "midi": 74,
      "hit": false,
      "t": 81824.41312499996,
      "d": 285.3532500000001,
      "v": 107
    },
    {
      "midi": 73,
      "hit": false,
      "t": 82123.65524999997,
      "d": 262.6259999999893,
      "v": 98
    },
    {
      "midi": 74,
      "hit": false,
      "t": 82414.05899999995,
      "d": 748.7366249999905,
      "v": 104
    },
    {
      "midi": 54,
      "hit": false,
      "t": 82424.15999999995,
      "d": 748.7366249999905,
      "v": 97
    },
    {
      "midi": 54,
      "hit": false,
      "t": 83333.24999999994,
      "d": 369.9491249999992,
      "v": 97
    },
    {
      "midi": 64,
      "hit": false,
      "t": 83636.27999999994,
      "d": 190.65637500000594,
      "v": 104
    },
    {
      "midi": 66,
      "hit": false,
      "t": 83840.82524999995,
      "d": 900.2516250000044,
      "v": 107
    },
    {
      "midi": 54,
      "hit": false,
      "t": 83939.30999999995,
      "d": 843.4334999999992,
      "v": 103
    },
    {
      "midi": 49,
      "hit": false,
      "t": 84848.39999999995,
      "d": 748.736625000005,
      "v": 99
    },
    {
      "midi": 68,
      "hit": false,
      "t": 84848.39999999995,
      "d": 748.736625000005,
      "v": 102
    },
    {
      "midi": 49,
      "hit": false,
      "t": 85757.48999999996,
      "d": 369.9491249999992,
      "v": 95
    },
    {
      "midi": 68,
      "hit": false,
      "t": 85757.48999999996,
      "d": 369.9491249999992,
      "v": 97
    },
    {
      "midi": 49,
      "hit": false,
      "t": 86363.54999999996,
      "d": 843.4334999999992,
      "v": 98
    },
    {
      "midi": 64,
      "hit": false,
      "t": 86363.54999999996,
      "d": 843.4334999999992,
      "v": 99
    },
    {
      "midi": 47,
      "hit": false,
      "t": 87272.63999999996,
      "d": 748.736625000005,
      "v": 97
    },
    {
      "midi": 66,
      "hit": false,
      "t": 87272.63999999996,
      "d": 748.736625000005,
      "v": 98
    },
    {
      "midi": 47,
      "hit": false,
      "t": 88181.72999999997,
      "d": 369.9491249999992,
      "v": 101
    },
    {
      "midi": 66,
      "hit": false,
      "t": 88181.72999999997,
      "d": 369.9491249999992,
      "v": 93
    },
    {
      "midi": 47,
      "hit": false,
      "t": 88787.78999999996,
      "d": 843.4334999999992,
      "v": 100
    },
    {
      "midi": 59,
      "hit": false,
      "t": 88787.78999999996,
      "d": 843.4334999999992,
      "v": 101
    },
    {
      "midi": 52,
      "hit": false,
      "t": 89696.87999999996,
      "d": 748.736625000005,
      "v": 102
    },
    {
      "midi": 68,
      "hit": false,
      "t": 89696.87999999996,
      "d": 748.736625000005,
      "v": 94
    },
    {
      "midi": 68,
      "hit": false,
      "t": 90602.18212499996,
      "d": 287.8784999999916,
      "v": 110
    },
    {
      "midi": 52,
      "hit": false,
      "t": 90605.96999999996,
      "d": 369.9491249999992,
      "v": 93
    },
    {
      "midi": 69,
      "hit": false,
      "t": 90915.31312499996,
      "d": 272.72699999999895,
      "v": 89
    },
    {
      "midi": 68,
      "hit": false,
      "t": 91201.92899999996,
      "d": 287.8784999999916,
      "v": 99
    },
    {
      "midi": 52,
      "hit": false,
      "t": 91212.02999999996,
      "d": 843.4334999999992,
      "v": 98
    },
    {
      "midi": 66,
      "hit": false,
      "t": 91521.37312499995,
      "d": 279.04012499999953,
      "v": 97
    },
    {
      "midi": 64,
      "hit": false,
      "t": 91814.30212499996,
      "d": 287.8784999999916,
      "v": 101
    },
    {
      "midi": 52,
      "hit": false,
      "t": 92121.11999999995,
      "d": 748.736625000005,
      "v": 94
    },
    {
      "midi": 61,
      "hit": false,
      "t": 92123.64524999996,
      "d": 872.473874999996,
      "v": 95
    },
    {
      "midi": 52,
      "hit": false,
      "t": 93030.20999999995,
      "d": 369.9491249999992,
      "v": 100
    },
    {
      "midi": 52,
      "hit": false,
      "t": 93636.26999999995,
      "d": 843.4334999999992,
      "v": 95
    },
    {
      "midi": 62,
      "hit": false,
      "t": 94545.35999999994,
      "d": 388.88850000000093,
      "v": 108
    },
    {
      "midi": 66,
      "hit": false,
      "t": 94545.35999999994,
      "d": 388.88850000000093,
      "v": 104
    },
    {
      "midi": 52,
      "hit": false,
      "t": 94545.35999999994,
      "d": 748.736625000005,
      "v": 94
    },
    {
      "midi": 61,
      "hit": false,
      "t": 94949.39999999995,
      "d": 363.6359999999986,
      "v": 100
    },
    {
      "midi": 64,
      "hit": false,
      "t": 94949.39999999995,
      "d": 363.6359999999986,
      "v": 99
    },
    {
      "midi": 57,
      "hit": false,
      "t": 95353.43999999994,
      "d": 388.88850000000093,
      "v": 99
    },
    {
      "midi": 61,
      "hit": false,
      "t": 95353.43999999994,
      "d": 388.88850000000093,
      "v": 97
    },
    {
      "midi": 52,
      "hit": false,
      "t": 95454.44999999994,
      "d": 369.94912500001374,
      "v": 93
    },
    {
      "midi": 61,
      "hit": false,
      "t": 95757.47999999995,
      "d": 388.88850000000093,
      "v": 104
    },
    {
      "midi": 52,
      "hit": false,
      "t": 96060.50999999995,
      "d": 843.4335000000137,
      "v": 96
    },
    {
      "midi": 62,
      "hit": false,
      "t": 96161.51999999996,
      "d": 388.88850000000093,
      "v": 110
    },
    {
      "midi": 64,
      "hit": false,
      "t": 96565.55999999997,
      "d": 376.26224999999977,
      "v": 104
    },
    {
      "midi": 54,
      "hit": false,
      "t": 96969.59999999996,
      "d": 885.1001249999972,
      "v": 104
    },
    {
      "midi": 66,
      "hit": false,
      "t": 96969.59999999996,
      "d": 885.1001249999972,
      "v": 105
    },
    {
      "midi": 62,
      "hit": false,
      "t": 96978.438375,
      "d": 2402.7753749999974,
      "v": 99
    },
    {
      "midi": 54,
      "hit": false,
      "t": 97878.68999999996,
      "d": 420.45412500000384,
      "v": 95
    },
    {
      "midi": 66,
      "hit": false,
      "t": 97878.68999999996,
      "d": 420.45412500000384,
      "v": 94
    },
    {
      "midi": 54,
      "hit": false,
      "t": 98484.74999999996,
      "d": 843.4334999999992,
      "v": 99
    },
    {
      "midi": 59,
      "hit": false,
      "t": 99090.80999999995,
      "d": 287.87850000000617,
      "v": 106
    },
    {
      "midi": 59,
      "hit": false,
      "t": 99387.526875,
      "d": 2446.9672500000015,
      "v": 79
    },
    {
      "midi": 52,
      "hit": false,
      "t": 99393.83999999997,
      "d": 748.736625000005,
      "v": 96
    },
    {
      "midi": 68,
      "hit": false,
      "t": 99393.83999999997,
      "d": 748.736625000005,
      "v": 101
    },
    {
      "midi": 52,
      "hit": false,
      "t": 100302.92999999998,
      "d": 369.9491249999992,
      "v": 92
    },
    {
      "midi": 66,
      "hit": false,
      "t": 100612.27312499998,
      "d": 285.3532500000001,
      "v": 101
    },
    {
      "midi": 68,
      "hit": false,
      "t": 100905.20212499998,
      "d": 291.6663750000007,
      "v": 99
    },
    {
      "midi": 52,
      "hit": false,
      "t": 100908.98999999998,
      "d": 843.4335000000137,
      "v": 99
    },
    {
      "midi": 69,
      "hit": false,
      "t": 101218.33312499998,
      "d": 285.3532500000001,
      "v": 99
    },
    {
      "midi": 71,
      "hit": false,
      "t": 101517.57524999998,
      "d": 111.11100000000442,
      "v": 96
    },
    {
      "midi": 73,
      "hit": false,
      "t": 101666.56499999999,
      "d": 748.736625000005,
      "v": 101
    },
    {
      "midi": 52,
      "hit": false,
      "t": 101818.07999999999,
      "d": 748.736625000005,
      "v": 99
    },
    {
      "midi": 61,
      "hit": false,
      "t": 101839.544625,
      "d": 4792.924499999994,
      "v": 92
    },
    {
      "midi": 52,
      "hit": false,
      "t": 102727.17,
      "d": 369.9491249999992,
      "v": 98
    },
    {
      "midi": 52,
      "hit": false,
      "t": 103333.23,
      "d": 843.4334999999992,
      "v": 95
    },
    {
      "midi": 52,
      "hit": false,
      "t": 104242.31999999999,
      "d": 748.736625000005,
      "v": 97
    },
    {
      "midi": 52,
      "hit": false,
      "t": 105151.41,
      "d": 369.9491249999992,
      "v": 92
    },
    {
      "midi": 73,
      "hit": false,
      "t": 105454.44,
      "d": 136.36350000000675,
      "v": 82
    },
    {
      "midi": 76,
      "hit": false,
      "t": 105460.753125,
      "d": 285.3532500000001,
      "v": 100
    },
    {
      "midi": 73,
      "hit": false,
      "t": 105602.167125,
      "d": 443.1813750000001,
      "v": 102
    },
    {
      "midi": 52,
      "hit": false,
      "t": 105757.47,
      "d": 843.4334999999992,
      "v": 99
    },
    {
      "midi": 71,
      "hit": false,
      "t": 106066.813125,
      "d": 285.3532500000001,
      "v": 105
    },
    {
      "midi": 69,
      "hit": false,
      "t": 106366.05525,
      "d": 262.6259999999893,
      "v": 91
    },
    {
      "midi": 62,
      "hit": false,
      "t": 106637.51962499999,
      "d": 2421.714749999999,
      "v": 95
    },
    {
      "midi": 54,
      "hit": false,
      "t": 106666.56,
      "d": 885.1001249999972,
      "v": 96
    },
    {
      "midi": 66,
      "hit": false,
      "t": 106666.56,
      "d": 885.1001249999972,
      "v": 102
    },
    {
      "midi": 54,
      "hit": false,
      "t": 107575.65,
      "d": 420.45412500000384,
      "v": 100
    },
    {
      "midi": 66,
      "hit": false,
      "t": 107575.65,
      "d": 420.45412500000384,
      "v": 102
    },
    {
      "midi": 54,
      "hit": false,
      "t": 108181.70999999999,
      "d": 843.4334999999992,
      "v": 99
    },
    {
      "midi": 59,
      "hit": false,
      "t": 108787.76999999999,
      "d": 287.87850000000617,
      "v": 103
    },
    {
      "midi": 59,
      "hit": false,
      "t": 109065.54749999999,
      "d": 2446.9672500000015,
      "v": 82
    },
    {
      "midi": 52,
      "hit": false,
      "t": 109090.8,
      "d": 748.736625000005,
      "v": 100
    },
    {
      "midi": 68,
      "hit": false,
      "t": 109090.8,
      "d": 748.736625000005,
      "v": 97
    },
    {
      "midi": 52,
      "hit": false,
      "t": 109999.89000000001,
      "d": 369.9491249999992,
      "v": 95
    },
    {
      "midi": 66,
      "hit": false,
      "t": 110309.23312500001,
      "d": 285.3532500000001,
      "v": 99
    },
    {
      "midi": 68,
      "hit": false,
      "t": 110602.16212500002,
      "d": 291.6663750000007,
      "v": 98
    },
    {
      "midi": 52,
      "hit": false,
      "t": 110605.95000000001,
      "d": 843.4334999999992,
      "v": 99
    },
    {
      "midi": 66,
      "hit": false,
      "t": 110915.29312500001,
      "d": 285.3532500000001,
      "v": 100
    },
    {
      "midi": 52,
      "hit": false,
      "t": 111515.04000000001,
      "d": 748.736625000005,
      "v": 99
    },
    {
      "midi": 64,
      "hit": false,
      "t": 111515.04000000001,
      "d": 748.736625000005,
      "v": 97
    },
    {
      "midi": 61,
      "hit": false,
      "t": 111517.56524999999,
      "d": 1232.3220000000001,
      "v": 78
    },
    {
      "midi": 66,
      "hit": false,
      "t": 112727.16000000002,
      "d": 369.9491249999992,
      "v": 95
    },
    {
      "midi": 62,
      "hit": false,
      "t": 112754.93774999998,
      "d": 1203.2816250000033,
      "v": 77
    },
    {
      "midi": 54,
      "hit": false,
      "t": 113030.19000000002,
      "d": 843.4334999999992,
      "v": 102
    },
    {
      "midi": 62,
      "hit": false,
      "t": 113329.43212500002,
      "d": 291.6663750000007,
      "v": 105
    },
    {
      "midi": 59,
      "hit": false,
      "t": 113642.56312500002,
      "d": 285.3532500000001,
      "v": 107
    },
    {
      "midi": 56,
      "hit": false,
      "t": 113939.28000000001,
      "d": 748.736625000005,
      "v": 101
    },
    {
      "midi": 68,
      "hit": false,
      "t": 113939.28000000001,
      "d": 748.736625000005,
      "v": 98
    },
    {
      "midi": 59,
      "hit": false,
      "t": 113964.53249999999,
      "d": 2393.9370000000054,
      "v": 85
    },
    {
      "midi": 56,
      "hit": false,
      "t": 114848.37000000002,
      "d": 369.9491249999992,
      "v": 95
    },
    {
      "midi": 47,
      "hit": false,
      "t": 115454.43000000002,
      "d": 843.4334999999992,
      "v": 101
    },
    {
      "midi": 40,
      "hit": false,
      "t": 116363.52000000002,
      "d": 2358.5834999999934,
      "v": 104
    },
    {
      "midi": 54,
      "hit": false,
      "t": 118787.76000000001,
      "d": 885.1001249999972,
      "v": 97
    },
    {
      "midi": 66,
      "hit": false,
      "t": 118787.76000000001,
      "d": 885.1001249999972,
      "v": 105
    },
    {
      "midi": 54,
      "hit": false,
      "t": 119696.85,
      "d": 420.45412500000384,
      "v": 98
    },
    {
      "midi": 66,
      "hit": false,
      "t": 119696.85,
      "d": 420.45412500000384,
      "v": 99
    },
    {
      "midi": 54,
      "hit": false,
      "t": 120302.91,
      "d": 843.4334999999992,
      "v": 96
    },
    {
      "midi": 59,
      "hit": false,
      "t": 120908.97,
      "d": 287.87850000000617,
      "v": 103
    },
    {
      "midi": 52,
      "hit": false,
      "t": 121212.00000000001,
      "d": 748.736625000005,
      "v": 95
    },
    {
      "midi": 68,
      "hit": false,
      "t": 121212.00000000001,
      "d": 748.736625000005,
      "v": 101
    },
    {
      "midi": 52,
      "hit": false,
      "t": 122121.09000000003,
      "d": 369.9491249999992,
      "v": 94
    },
    {
      "midi": 52,
      "hit": false,
      "t": 122727.15000000002,
      "d": 843.4334999999992,
      "v": 95
    },
    {
      "midi": 52,
      "hit": false,
      "t": 123636.24000000002,
      "d": 748.736625000005,
      "v": 100
    },
    {
      "midi": 52,
      "hit": false,
      "t": 124545.33000000003,
      "d": 369.9491249999992,
      "v": 96
    },
    {
      "midi": 73,
      "hit": false,
      "t": 125147.60212500003,
      "d": 291.6663750000007,
      "v": 105
    },
    {
      "midi": 52,
      "hit": false,
      "t": 125151.39000000003,
      "d": 843.4334999999992,
      "v": 104
    },
    {
      "midi": 74,
      "hit": false,
      "t": 125460.73312500003,
      "d": 285.3532500000001,
      "v": 106
    },
    {
      "midi": 73,
      "hit": false,
      "t": 125759.97525000003,
      "d": 262.6259999999893,
      "v": 97
    },
    {
      "midi": 74,
      "hit": false,
      "t": 126050.37900000002,
      "d": 748.7366249999905,
      "v": 112
    },
    {
      "midi": 54,
      "hit": false,
      "t": 126060.48000000001,
      "d": 748.7366249999905,
      "v": 102
    },
    {
      "midi": 54,
      "hit": false,
      "t": 126969.57,
      "d": 369.9491249999992,
      "v": 94
    },
    {
      "midi": 64,
      "hit": false,
      "t": 127272.6,
      "d": 190.65637500000594,
      "v": 100
    },
    {
      "midi": 66,
      "hit": false,
      "t": 127477.14525000002,
      "d": 900.2516250000044,
      "v": 105
    },
    {
      "midi": 54,
      "hit": false,
      "t": 127575.63000000002,
      "d": 843.4334999999992,
      "v": 97
    },
    {
      "midi": 49,
      "hit": false,
      "t": 128484.72000000002,
      "d": 748.736625000005,
      "v": 95
    },
    {
      "midi": 68,
      "hit": false,
      "t": 128484.72000000002,
      "d": 748.736625000005,
      "v": 98
    },
    {
      "midi": 49,
      "hit": false,
      "t": 129393.81000000003,
      "d": 369.9491249999992,
      "v": 98
    },
    {
      "midi": 68,
      "hit": false,
      "t": 129393.81000000003,
      "d": 369.9491249999992,
      "v": 93
    },
    {
      "midi": 49,
      "hit": false,
      "t": 129999.87000000002,
      "d": 843.4334999999992,
      "v": 95
    },
    {
      "midi": 64,
      "hit": false,
      "t": 129999.87000000002,
      "d": 843.4334999999992,
      "v": 103
    },
    {
      "midi": 47,
      "hit": false,
      "t": 130908.96000000002,
      "d": 748.7366249999905,
      "v": 100
    },
    {
      "midi": 66,
      "hit": false,
      "t": 130908.96000000002,
      "d": 748.7366249999905,
      "v": 94
    },
    {
      "midi": 47,
      "hit": false,
      "t": 131818.05000000002,
      "d": 369.94912500001374,
      "v": 101
    },
    {
      "midi": 66,
      "hit": false,
      "t": 131818.05000000002,
      "d": 369.94912500001374,
      "v": 98
    },
    {
      "midi": 47,
      "hit": false,
      "t": 132424.11000000004,
      "d": 843.4335000000137,
      "v": 98
    },
    {
      "midi": 59,
      "hit": false,
      "t": 132424.11000000004,
      "d": 843.4335000000137,
      "v": 102
    },
    {
      "midi": 52,
      "hit": false,
      "t": 133333.20000000007,
      "d": 748.7366249999905,
      "v": 100
    },
    {
      "midi": 68,
      "hit": false,
      "t": 133333.20000000007,
      "d": 748.7366249999905,
      "v": 101
    },
    {
      "midi": 68,
      "hit": false,
      "t": 134238.50212500006,
      "d": 287.8785000000207,
      "v": 102
    },
    {
      "midi": 52,
      "hit": false,
      "t": 134242.29000000007,
      "d": 369.94912500001374,
      "v": 100
    },
    {
      "midi": 69,
      "hit": false,
      "t": 134551.63312500008,
      "d": 272.7270000000135,
      "v": 82
    },
    {
      "midi": 68,
      "hit": false,
      "t": 134838.2490000001,
      "d": 287.8784999999916,
      "v": 95
    },
    {
      "midi": 52,
      "hit": false,
      "t": 134848.3500000001,
      "d": 843.4334999999846,
      "v": 103
    },
    {
      "midi": 66,
      "hit": false,
      "t": 135157.69312500008,
      "d": 279.04012499999953,
      "v": 97
    },
    {
      "midi": 64,
      "hit": false,
      "t": 135450.62212500008,
      "d": 287.8784999999916,
      "v": 104
    },
    {
      "midi": 52,
      "hit": false,
      "t": 135757.44000000006,
      "d": 748.7366250000196,
      "v": 102
    },
    {
      "midi": 61,
      "hit": false,
      "t": 135759.96525000007,
      "d": 872.4738750000251,
      "v": 102
    },
    {
      "midi": 52,
      "hit": false,
      "t": 136666.5300000001,
      "d": 369.94912500001374,
      "v": 97
    },
    {
      "midi": 52,
      "hit": false,
      "t": 137272.5900000001,
      "d": 843.4335000000137,
      "v": 97
    },
    {
      "midi": 62,
      "hit": false,
      "t": 138181.68000000014,
      "d": 388.88850000000093,
      "v": 109
    },
    {
      "midi": 66,
      "hit": false,
      "t": 138181.68000000014,
      "d": 388.88850000000093,
      "v": 107
    },
    {
      "midi": 52,
      "hit": false,
      "t": 138181.68000000014,
      "d": 748.7366250000196,
      "v": 102
    },
    {
      "midi": 61,
      "hit": false,
      "t": 138585.72000000015,
      "d": 363.6359999999986,
      "v": 101
    },
    {
      "midi": 64,
      "hit": false,
      "t": 138585.72000000015,
      "d": 363.6359999999986,
      "v": 104
    },
    {
      "midi": 57,
      "hit": false,
      "t": 138989.76000000015,
      "d": 388.88850000000093,
      "v": 96
    },
    {
      "midi": 61,
      "hit": false,
      "t": 138989.76000000015,
      "d": 388.88850000000093,
      "v": 103
    },
    {
      "midi": 52,
      "hit": false,
      "t": 139090.77000000016,
      "d": 369.94912499998463,
      "v": 94
    },
    {
      "midi": 61,
      "hit": false,
      "t": 139393.80000000016,
      "d": 388.88850000000093,
      "v": 107
    },
    {
      "midi": 52,
      "hit": false,
      "t": 139696.83000000016,
      "d": 843.4335000000137,
      "v": 103
    },
    {
      "midi": 62,
      "hit": false,
      "t": 139797.84000000017,
      "d": 388.88850000000093,
      "v": 110
    },
    {
      "midi": 64,
      "hit": false,
      "t": 140201.88000000018,
      "d": 376.26224999999977,
      "v": 106
    },
    {
      "midi": 54,
      "hit": false,
      "t": 140605.9200000002,
      "d": 885.1001249999972,
      "v": 103
    },
    {
      "midi": 66,
      "hit": false,
      "t": 140605.9200000002,
      "d": 885.1001249999972,
      "v": 97
    },
    {
      "midi": 62,
      "hit": false,
      "t": 140614.758375,
      "d": 2402.7753749999974,
      "v": 99
    },
    {
      "midi": 54,
      "hit": false,
      "t": 141515.01000000018,
      "d": 420.4541249999893,
      "v": 99
    },
    {
      "midi": 66,
      "hit": false,
      "t": 141515.01000000018,
      "d": 420.4541249999893,
      "v": 101
    },
    {
      "midi": 54,
      "hit": false,
      "t": 142121.07000000018,
      "d": 843.4334999999846,
      "v": 98
    },
    {
      "midi": 59,
      "hit": false,
      "t": 142727.13000000018,
      "d": 287.8784999999916,
      "v": 110
    },
    {
      "midi": 59,
      "hit": false,
      "t": 143023.846875,
      "d": 2446.967249999987,
      "v": 79
    },
    {
      "midi": 52,
      "hit": false,
      "t": 143030.16000000018,
      "d": 748.7366249999905,
      "v": 97
    },
    {
      "midi": 68,
      "hit": false,
      "t": 143030.16000000018,
      "d": 748.7366249999905,
      "v": 97
    },
    {
      "midi": 52,
      "hit": false,
      "t": 143939.25000000017,
      "d": 369.94912500001374,
      "v": 100
    },
    {
      "midi": 66,
      "hit": false,
      "t": 144248.5931250002,
      "d": 285.35324999998556,
      "v": 104
    },
    {
      "midi": 68,
      "hit": false,
      "t": 144541.52212500016,
      "d": 291.6663750000007,
      "v": 100
    },
    {
      "midi": 52,
      "hit": false,
      "t": 144545.31000000017,
      "d": 843.4334999999846,
      "v": 99
    },
    {
      "midi": 69,
      "hit": false,
      "t": 144854.65312500016,
      "d": 285.35324999998556,
      "v": 104
    },
    {
      "midi": 71,
      "hit": false,
      "t": 145153.89525000015,
      "d": 111.11100000000442,
      "v": 97
    },
    {
      "midi": 73,
      "hit": false,
      "t": 145302.88500000015,
      "d": 748.7366250000196,
      "v": 98
    },
    {
      "midi": 52,
      "hit": false,
      "t": 145454.40000000017,
      "d": 748.7366250000196,
      "v": 101
    },
    {
      "midi": 61,
      "hit": false,
      "t": 145475.864625,
      "d": 4792.924499999994,
      "v": 92
    },
    {
      "midi": 52,
      "hit": false,
      "t": 146363.4900000002,
      "d": 369.94912500001374,
      "v": 94
    },
    {
      "midi": 52,
      "hit": false,
      "t": 146969.55000000022,
      "d": 843.4335000000137,
      "v": 104
    },
    {
      "midi": 52,
      "hit": false,
      "t": 147878.64000000025,
      "d": 748.7366249999905,
      "v": 94
    },
    {
      "midi": 52,
      "hit": false,
      "t": 148787.73000000024,
      "d": 369.94912499998463,
      "v": 93
    },
    {
      "midi": 73,
      "hit": false,
      "t": 149090.76000000024,
      "d": 136.36349999997765,
      "v": 86
    },
    {
      "midi": 76,
      "hit": false,
      "t": 149097.07312500023,
      "d": 285.35324999998556,
      "v": 99
    },
    {
      "midi": 73,
      "hit": false,
      "t": 149238.48712500022,
      "d": 443.18137499998556,
      "v": 98
    },
    {
      "midi": 52,
      "hit": false,
      "t": 149393.7900000002,
      "d": 843.4334999999846,
      "v": 100
    },
    {
      "midi": 71,
      "hit": false,
      "t": 149703.1331250002,
      "d": 285.35324999998556,
      "v": 104
    },
    {
      "midi": 69,
      "hit": false,
      "t": 150002.3752500002,
      "d": 262.6260000000184,
      "v": 92
    },
    {
      "midi": 62,
      "hit": false,
      "t": 150273.839625,
      "d": 2421.7147500000137,
      "v": 95
    },
    {
      "midi": 54,
      "hit": false,
      "t": 150302.8800000002,
      "d": 885.1001249999972,
      "v": 98
    },
    {
      "midi": 66,
      "hit": false,
      "t": 150302.8800000002,
      "d": 885.1001249999972,
      "v": 103
    },
    {
      "midi": 54,
      "hit": false,
      "t": 151211.9700000002,
      "d": 420.4541249999893,
      "v": 94
    },
    {
      "midi": 66,
      "hit": false,
      "t": 151211.9700000002,
      "d": 420.4541249999893,
      "v": 98
    },
    {
      "midi": 54,
      "hit": false,
      "t": 151818.0300000002,
      "d": 843.4334999999846,
      "v": 99
    },
    {
      "midi": 59,
      "hit": false,
      "t": 152424.0900000002,
      "d": 287.8784999999916,
      "v": 105
    },
    {
      "midi": 59,
      "hit": false,
      "t": 152701.8675,
      "d": 2446.967249999987,
      "v": 82
    },
    {
      "midi": 52,
      "hit": false,
      "t": 152727.1200000002,
      "d": 748.7366249999905,
      "v": 98
    },
    {
      "midi": 68,
      "hit": false,
      "t": 152727.1200000002,
      "d": 748.7366249999905,
      "v": 94
    },
    {
      "midi": 52,
      "hit": false,
      "t": 153636.2100000002,
      "d": 369.94912500001374,
      "v": 101
    },
    {
      "midi": 66,
      "hit": false,
      "t": 153945.5531250002,
      "d": 285.35324999998556,
      "v": 106
    },
    {
      "midi": 68,
      "hit": false,
      "t": 154238.48212500018,
      "d": 291.6663750000007,
      "v": 105
    },
    {
      "midi": 52,
      "hit": false,
      "t": 154242.2700000002,
      "d": 843.4334999999846,
      "v": 104
    },
    {
      "midi": 66,
      "hit": false,
      "t": 154551.61312500018,
      "d": 285.35324999998556,
      "v": 108
    },
    {
      "midi": 52,
      "hit": false,
      "t": 155151.3600000002,
      "d": 748.7366249999905,
      "v": 97
    },
    {
      "midi": 64,
      "hit": false,
      "t": 155151.3600000002,
      "d": 748.7366249999905,
      "v": 102
    },
    {
      "midi": 61,
      "hit": false,
      "t": 155153.88525,
      "d": 1232.3219999999856,
      "v": 78
    },
    {
      "midi": 66,
      "hit": false,
      "t": 156363.48000000019,
      "d": 369.94912499998463,
      "v": 94
    },
    {
      "midi": 62,
      "hit": false,
      "t": 156391.25775,
      "d": 1203.2816250000033,
      "v": 77
    },
    {
      "midi": 54,
      "hit": false,
      "t": 156666.51000000018,
      "d": 843.4334999999846,
      "v": 102
    },
    {
      "midi": 62,
      "hit": false,
      "t": 156965.75212500017,
      "d": 291.6663750000007,
      "v": 98
    },
    {
      "midi": 59,
      "hit": false,
      "t": 157278.88312500017,
      "d": 285.35325000001467,
      "v": 107
    },
    {
      "midi": 56,
      "hit": false,
      "t": 157575.60000000018,
      "d": 748.7366249999905,
      "v": 94
    },
    {
      "midi": 68,
      "hit": false,
      "t": 157575.60000000018,
      "d": 748.7366249999905,
      "v": 97
    },
    {
      "midi": 59,
      "hit": false,
      "t": 157600.85249999998,
      "d": 2393.9370000000054,
      "v": 85
    },
    {
      "midi": 56,
      "hit": false,
      "t": 158484.69000000018,
      "d": 369.94912500001374,
      "v": 100
    },
    {
      "midi": 47,
      "hit": false,
      "t": 159090.7500000002,
      "d": 843.4335000000137,
      "v": 99
    },
    {
      "midi": 40,
      "hit": false,
      "t": 159999.84000000023,
      "d": 2358.583500000008,
      "v": 100
    },
    {
      "midi": 54,
      "hit": false,
      "t": 162424.08000000025,
      "d": 885.1001249999972,
      "v": 99
    },
    {
      "midi": 66,
      "hit": false,
      "t": 162424.08000000025,
      "d": 885.1001249999972,
      "v": 100
    },
    {
      "midi": 54,
      "hit": false,
      "t": 163333.17000000025,
      "d": 420.4541249999893,
      "v": 102
    },
    {
      "midi": 66,
      "hit": false,
      "t": 163333.17000000025,
      "d": 420.4541249999893,
      "v": 100
    },
    {
      "midi": 54,
      "hit": false,
      "t": 163939.23000000024,
      "d": 843.4334999999846,
      "v": 101
    },
    {
      "midi": 59,
      "hit": false,
      "t": 164545.29000000024,
      "d": 287.8784999999916,
      "v": 108
    },
    {
      "midi": 52,
      "hit": false,
      "t": 164848.32000000024,
      "d": 748.7366249999905,
      "v": 103
    },
    {
      "midi": 68,
      "hit": false,
      "t": 164848.32000000024,
      "d": 748.7366249999905,
      "v": 100
    },
    {
      "midi": 52,
      "hit": false,
      "t": 165757.41000000024,
      "d": 369.94912500001374,
      "v": 98
    },
    {
      "midi": 52,
      "hit": false,
      "t": 166363.47000000026,
      "d": 843.4335000000137,
      "v": 101
    },
    {
      "midi": 52,
      "hit": false,
      "t": 167272.5600000003,
      "d": 748.7366249999905,
      "v": 101
    },
    {
      "midi": 52,
      "hit": false,
      "t": 168181.65000000029,
      "d": 369.94912500001374,
      "v": 96
    },
    {
      "midi": 73,
      "hit": false,
      "t": 168783.9221250003,
      "d": 291.6663750000007,
      "v": 100
    },
    {
      "midi": 52,
      "hit": false,
      "t": 168787.7100000003,
      "d": 843.4334999999846,
      "v": 102
    },
    {
      "midi": 74,
      "hit": false,
      "t": 169097.0531250003,
      "d": 285.35324999998556,
      "v": 100
    },
    {
      "midi": 73,
      "hit": false,
      "t": 169396.2952500003,
      "d": 262.6260000000184,
      "v": 93
    },
    {
      "midi": 74,
      "hit": false,
      "t": 169686.6990000003,
      "d": 748.7366249999905,
      "v": 106
    },
    {
      "midi": 54,
      "hit": false,
      "t": 169696.8000000003,
      "d": 748.7366249999905,
      "v": 96
    },
    {
      "midi": 54,
      "hit": false,
      "t": 170605.8900000003,
      "d": 369.94912499998463,
      "v": 93
    },
    {
      "midi": 64,
      "hit": false,
      "t": 170908.9200000003,
      "d": 190.65637499999139,
      "v": 100
    },
    {
      "midi": 66,
      "hit": false,
      "t": 171113.4652500003,
      "d": 900.2516250000044,
      "v": 103
    },
    {
      "midi": 54,
      "hit": false,
      "t": 171211.9500000003,
      "d": 843.4335000000137,
      "v": 102
    },
    {
      "midi": 49,
      "hit": false,
      "t": 172121.04000000033,
      "d": 748.7366249999905,
      "v": 101
    },
    {
      "midi": 68,
      "hit": false,
      "t": 172121.04000000033,
      "d": 748.7366249999905,
      "v": 98
    },
    {
      "midi": 49,
      "hit": false,
      "t": 173030.13000000032,
      "d": 369.94912500001374,
      "v": 101
    },
    {
      "midi": 68,
      "hit": false,
      "t": 173030.13000000032,
      "d": 369.94912500001374,
      "v": 93
    },
    {
      "midi": 49,
      "hit": false,
      "t": 173636.19000000035,
      "d": 843.4335000000137,
      "v": 104
    },
    {
      "midi": 64,
      "hit": false,
      "t": 173636.19000000035,
      "d": 843.4335000000137,
      "v": 102
    },
    {
      "midi": 47,
      "hit": false,
      "t": 174545.28000000038,
      "d": 748.7366249999905,
      "v": 96
    },
    {
      "midi": 66,
      "hit": false,
      "t": 174545.28000000038,
      "d": 748.7366249999905,
      "v": 96
    },
    {
      "midi": 47,
      "hit": false,
      "t": 175454.37000000037,
      "d": 369.94912500001374,
      "v": 96
    },
    {
      "midi": 66,
      "hit": false,
      "t": 175454.37000000037,
      "d": 369.94912500001374,
      "v": 97
    },
    {
      "midi": 47,
      "hit": false,
      "t": 176060.4300000004,
      "d": 843.4335000000137,
      "v": 100
    },
    {
      "midi": 59,
      "hit": false,
      "t": 176060.4300000004,
      "d": 843.4335000000137,
      "v": 96
    },
    {
      "midi": 52,
      "hit": false,
      "t": 176969.52000000043,
      "d": 748.7366249999905,
      "v": 101
    },
    {
      "midi": 68,
      "hit": false,
      "t": 176969.52000000043,
      "d": 748.7366249999905,
      "v": 100
    },
    {
      "midi": 68,
      "hit": false,
      "t": 177874.8221250004,
      "d": 287.8785000000207,
      "v": 110
    },
    {
      "midi": 52,
      "hit": false,
      "t": 177878.61000000042,
      "d": 369.94912500001374,
      "v": 94
    },
    {
      "midi": 69,
      "hit": false,
      "t": 178187.95312500044,
      "d": 272.7270000000135,
      "v": 83
    },
    {
      "midi": 68,
      "hit": false,
      "t": 178474.56900000045,
      "d": 287.8784999999916,
      "v": 97
    },
    {
      "midi": 52,
      "hit": false,
      "t": 178484.67000000045,
      "d": 843.4334999999846,
      "v": 103
    },
    {
      "midi": 66,
      "hit": false,
      "t": 178794.01312500043,
      "d": 279.04012499999953,
      "v": 103
    },
    {
      "midi": 64,
      "hit": false,
      "t": 179086.94212500044,
      "d": 287.8784999999916,
      "v": 97
    },
    {
      "midi": 52,
      "hit": false,
      "t": 179393.76000000042,
      "d": 748.7366250000196,
      "v": 102
    },
    {
      "midi": 61,
      "hit": false,
      "t": 179396.28525000042,
      "d": 872.4738750000251,
      "v": 96
    },
    {
      "midi": 52,
      "hit": false,
      "t": 180302.85000000044,
      "d": 369.94912500001374,
      "v": 96
    },
    {
      "midi": 52,
      "hit": false,
      "t": 180908.91000000047,
      "d": 843.4335000000137,
      "v": 101
    },
    {
      "midi": 62,
      "hit": false,
      "t": 181818.0000000005,
      "d": 388.88850000000093,
      "v": 106
    },
    {
      "midi": 66,
      "hit": false,
      "t": 181818.0000000005,
      "d": 388.88850000000093,
      "v": 102
    },
    {
      "midi": 52,
      "hit": false,
      "t": 181818.0000000005,
      "d": 748.7366250000196,
      "v": 94
    },
    {
      "midi": 61,
      "hit": false,
      "t": 182222.0400000005,
      "d": 363.6359999999986,
      "v": 99
    },
    {
      "midi": 64,
      "hit": false,
      "t": 182222.0400000005,
      "d": 363.6359999999986,
      "v": 104
    },
    {
      "midi": 57,
      "hit": false,
      "t": 182626.0800000005,
      "d": 388.88850000000093,
      "v": 100
    },
    {
      "midi": 61,
      "hit": false,
      "t": 182626.0800000005,
      "d": 388.88850000000093,
      "v": 99
    },
    {
      "midi": 52,
      "hit": false,
      "t": 182727.09000000052,
      "d": 369.94912499998463,
      "v": 96
    },
    {
      "midi": 57,
      "hit": false,
      "t": 183030.12000000052,
      "d": 388.8884999999718,
      "v": 99
    },
    {
      "midi": 59,
      "hit": false,
      "t": 183434.1600000005,
      "d": 388.88850000000093,
      "v": 91
    },
    {
      "midi": 61,
      "hit": false,
      "t": 183838.2000000005,
      "d": 388.88850000000093,
      "v": 96
    },
    {
      "midi": 54,
      "hit": false,
      "t": 184242.24000000051,
      "d": 885.1001249999972,
      "v": 114
    },
    {
      "midi": 66,
      "hit": false,
      "t": 184242.24000000051,
      "d": 885.1001249999972,
      "v": 113
    },
    {
      "midi": 54,
      "hit": false,
      "t": 185151.3300000005,
      "d": 420.4541249999893,
      "v": 114
    },
    {
      "midi": 66,
      "hit": false,
      "t": 185151.3300000005,
      "d": 420.4541249999893,
      "v": 105
    },
    {
      "midi": 54,
      "hit": false,
      "t": 185757.3900000005,
      "d": 843.4334999999846,
      "v": 109
    },
    {
      "midi": 59,
      "hit": false,
      "t": 186363.4500000005,
      "d": 287.8784999999916,
      "v": 119
    },
    {
      "midi": 52,
      "hit": false,
      "t": 186666.4800000005,
      "d": 748.7366249999905,
      "v": 110
    },
    {
      "midi": 68,
      "hit": false,
      "t": 186666.4800000005,
      "d": 748.7366249999905,
      "v": 105
    },
    {
      "midi": 52,
      "hit": false,
      "t": 187575.5700000005,
      "d": 369.94912500001374,
      "v": 105
    },
    {
      "midi": 52,
      "hit": false,
      "t": 188181.63000000053,
      "d": 843.4335000000137,
      "v": 105
    },
    {
      "midi": 52,
      "hit": false,
      "t": 189090.72000000055,
      "d": 748.7366249999905,
      "v": 105
    },
    {
      "midi": 52,
      "hit": false,
      "t": 189999.81000000055,
      "d": 369.94912500001374,
      "v": 104
    },
    {
      "midi": 73,
      "hit": false,
      "t": 190602.08212500057,
      "d": 291.6663750000007,
      "v": 110
    },
    {
      "midi": 52,
      "hit": false,
      "t": 190605.87000000058,
      "d": 843.4334999999846,
      "v": 111
    },
    {
      "midi": 74,
      "hit": false,
      "t": 190915.21312500056,
      "d": 285.35324999998556,
      "v": 117
    },
    {
      "midi": 73,
      "hit": false,
      "t": 191214.45525000055,
      "d": 262.6260000000184,
      "v": 104
    },
    {
      "midi": 74,
      "hit": false,
      "t": 191504.85900000058,
      "d": 748.7366249999905,
      "v": 120
    },
    {
      "midi": 54,
      "hit": false,
      "t": 191514.96000000057,
      "d": 748.7366249999905,
      "v": 109
    },
    {
      "midi": 54,
      "hit": false,
      "t": 192424.05000000057,
      "d": 369.94912499998463,
      "v": 110
    },
    {
      "midi": 64,
      "hit": false,
      "t": 192727.08000000057,
      "d": 190.65637499999139,
      "v": 112
    },
    {
      "midi": 66,
      "hit": false,
      "t": 192931.62525000056,
      "d": 900.2516250000044,
      "v": 111
    },
    {
      "midi": 54,
      "hit": false,
      "t": 193030.11000000057,
      "d": 843.4335000000137,
      "v": 105
    },
    {
      "midi": 49,
      "hit": false,
      "t": 193939.2000000006,
      "d": 748.7366249999905,
      "v": 108
    },
    {
      "midi": 68,
      "hit": false,
      "t": 193939.2000000006,
      "d": 748.7366249999905,
      "v": 107
    },
    {
      "midi": 49,
      "hit": false,
      "t": 194848.2900000006,
      "d": 369.94912500001374,
      "v": 107
    },
    {
      "midi": 68,
      "hit": false,
      "t": 194848.2900000006,
      "d": 369.94912500001374,
      "v": 102
    },
    {
      "midi": 49,
      "hit": false,
      "t": 195454.35000000062,
      "d": 843.4335000000137,
      "v": 112
    },
    {
      "midi": 64,
      "hit": false,
      "t": 195454.35000000062,
      "d": 843.4335000000137,
      "v": 110
    },
    {
      "midi": 47,
      "hit": false,
      "t": 196363.44000000064,
      "d": 748.7366249999905,
      "v": 104
    },
    {
      "midi": 66,
      "hit": false,
      "t": 196363.44000000064,
      "d": 748.7366249999905,
      "v": 111
    },
    {
      "midi": 47,
      "hit": false,
      "t": 197272.53000000064,
      "d": 369.94912500001374,
      "v": 103
    },
    {
      "midi": 66,
      "hit": false,
      "t": 197272.53000000064,
      "d": 369.94912500001374,
      "v": 106
    },
    {
      "midi": 47,
      "hit": false,
      "t": 197878.59000000067,
      "d": 843.4335000000137,
      "v": 112
    },
    {
      "midi": 59,
      "hit": false,
      "t": 197878.59000000067,
      "d": 843.4335000000137,
      "v": 106
    },
    {
      "midi": 52,
      "hit": false,
      "t": 198787.6800000007,
      "d": 748.7366249999905,
      "v": 110
    },
    {
      "midi": 68,
      "hit": false,
      "t": 198787.6800000007,
      "d": 748.7366249999905,
      "v": 107
    },
    {
      "midi": 68,
      "hit": false,
      "t": 199692.98212500068,
      "d": 287.8785000000207,
      "v": 113
    },
    {
      "midi": 52,
      "hit": false,
      "t": 199696.7700000007,
      "d": 369.94912500001374,
      "v": 107
    },
    {
      "midi": 69,
      "hit": false,
      "t": 200006.1131250007,
      "d": 272.7270000000135,
      "v": 97
    },
    {
      "midi": 68,
      "hit": false,
      "t": 200292.72900000072,
      "d": 287.8784999999916,
      "v": 108
    },
    {
      "midi": 52,
      "hit": false,
      "t": 200302.83000000071,
      "d": 843.4334999999846,
      "v": 114
    },
    {
      "midi": 66,
      "hit": false,
      "t": 200612.1731250007,
      "d": 279.04012499999953,
      "v": 113
    },
    {
      "midi": 64,
      "hit": false,
      "t": 200905.1021250007,
      "d": 287.8784999999916,
      "v": 107
    },
    {
      "midi": 61,
      "hit": false,
      "t": 201814.1921250007,
      "d": 837.1203750000277,
      "v": 118
    },
    {
      "midi": 52,
      "hit": false,
      "t": 201817.9800000007,
      "d": 837.1203750000277,
      "v": 117
    },
    {
      "midi": 57,
      "hit": false,
      "t": 201820.50525000072,
      "d": 837.1203750000277,
      "v": 115
    },
    {
      "midi": 57,
      "hit": false,
      "t": 202723.28212500075,
      "d": 929.2919999999867,
      "v": 123
    },
    {
      "midi": 62,
      "hit": false,
      "t": 202729.59525000074,
      "d": 929.2919999999867,
      "v": 119
    },
    {
      "midi": 66,
      "hit": false,
      "t": 202733.38312500075,
      "d": 929.2919999999867,
      "v": 124
    },
    {
      "midi": 52,
      "hit": false,
      "t": 203638.68525000074,
      "d": 85.8585000000021,
      "v": 117
    },
    {
      "midi": 64,
      "hit": false,
      "t": 203939.19000000073,
      "d": 752.5244999999995,
      "v": 118
    },
    {
      "midi": 68,
      "hit": false,
      "t": 203939.19000000073,
      "d": 752.5244999999995,
      "v": 123
    },
    {
      "midi": 59,
      "hit": false,
      "t": 203941.71525000074,
      "d": 752.5244999999995,
      "v": 117
    },
    {
      "midi": 57,
      "hit": false,
      "t": 204841.96687500074,
      "d": 818.1809999999823,
      "v": 115
    },
    {
      "midi": 66,
      "hit": false,
      "t": 204848.28000000073,
      "d": 818.1809999999823,
      "v": 114
    },
    {
      "midi": 62,
      "hit": false,
      "t": 204854.5931250007,
      "d": 818.1809999999823,
      "v": 120
    },
    {
      "midi": 49,
      "hit": false,
      "t": 205763.6831250007,
      "d": 742.4235000000044,
      "v": 116
    },
    {
      "midi": 61,
      "hit": false,
      "t": 206662.6721250007,
      "d": 837.1203750000277,
      "v": 117
    },
    {
      "midi": 52,
      "hit": false,
      "t": 206666.46000000072,
      "d": 837.1203750000277,
      "v": 120
    },
    {
      "midi": 57,
      "hit": false,
      "t": 206668.98525000073,
      "d": 837.1203750000277,
      "v": 114
    },
    {
      "midi": 57,
      "hit": false,
      "t": 207571.76212500077,
      "d": 929.2919999999867,
      "v": 120
    },
    {
      "midi": 62,
      "hit": false,
      "t": 207578.07525000075,
      "d": 929.2919999999867,
      "v": 115
    },
    {
      "midi": 66,
      "hit": false,
      "t": 207581.86312500076,
      "d": 929.2919999999867,
      "v": 115
    },
    {
      "midi": 52,
      "hit": false,
      "t": 208487.16525000075,
      "d": 85.8585000000021,
      "v": 117
    },
    {
      "midi": 64,
      "hit": false,
      "t": 208787.67000000074,
      "d": 752.5244999999995,
      "v": 119
    },
    {
      "midi": 68,
      "hit": false,
      "t": 208787.67000000074,
      "d": 752.5244999999995,
      "v": 125
    },
    {
      "midi": 59,
      "hit": false,
      "t": 208790.19525000075,
      "d": 752.5244999999995,
      "v": 116
    },
    {
      "midi": 57,
      "hit": false,
      "t": 209690.44687500075,
      "d": 818.1809999999823,
      "v": 120
    },
    {
      "midi": 66,
      "hit": false,
      "t": 209696.76000000074,
      "d": 818.1809999999823,
      "v": 120
    },
    {
      "midi": 62,
      "hit": false,
      "t": 209703.07312500072,
      "d": 818.1809999999823,
      "v": 117
    },
    {
      "midi": 49,
      "hit": false,
      "t": 210612.16312500072,
      "d": 742.4235000000044,
      "v": 116
    },
    {
      "midi": 61,
      "hit": false,
      "t": 211511.15212500072,
      "d": 837.1203750000277,
      "v": 116
    },
    {
      "midi": 52,
      "hit": false,
      "t": 211514.94000000073,
      "d": 837.1203750000277,
      "v": 116
    },
    {
      "midi": 57,
      "hit": false,
      "t": 211517.46525000074,
      "d": 837.1203750000277,
      "v": 122
    },
    {
      "midi": 57,
      "hit": false,
      "t": 212420.24212500078,
      "d": 929.2920000000449,
      "v": 117
    },
    {
      "midi": 50,
      "hit": false,
      "t": 212426.55525000076,
      "d": 929.2920000000449,
      "v": 117
    },
    {
      "midi": 54,
      "hit": false,
      "t": 212430.34312500077,
      "d": 929.2920000000449,
      "v": 118
    },
    {
      "midi": 64,
      "hit": false,
      "t": 212455.59562500077,
      "d": 603.5347500000207,
      "v": 95
    },
    {
      "midi": 76,
      "hit": false,
      "t": 212483.37337500078,
      "d": 603.5347500000207,
      "v": 111
    },
    {
      "midi": 66,
      "hit": false,
      "t": 213074.2818750008,
      "d": 508.83787500002654,
      "v": 100
    },
    {
      "midi": 78,
      "hit": false,
      "t": 213102.0596250008,
      "d": 508.83787500002654,
      "v": 104
    },
    {
      "midi": 52,
      "hit": false,
      "t": 213335.64525000082,
      "d": 85.8585000000021,
      "v": 112
    },
    {
      "midi": 80,
      "hit": false,
      "t": 213626.04900000084,
      "d": 361.11075000002165,
      "v": 110
    },
    {
      "midi": 68,
      "hit": false,
      "t": 213636.15000000084,
      "d": 323.23200000001816,
      "v": 117
    },
    {
      "midi": 64,
      "hit": false,
      "t": 213636.15000000084,
      "d": 752.5245000000577,
      "v": 119
    },
    {
      "midi": 59,
      "hit": false,
      "t": 213638.67525000084,
      "d": 752.5245000000577,
      "v": 116
    },
    {
      "midi": 69,
      "hit": false,
      "t": 214014.93750000087,
      "d": 354.7976250000065,
      "v": 99
    },
    {
      "midi": 81,
      "hit": false,
      "t": 214042.71525000088,
      "d": 354.7976250000065,
      "v": 106
    },
    {
      "midi": 71,
      "hit": false,
      "t": 214383.62400000088,
      "d": 395.20162499998696,
      "v": 94
    },
    {
      "midi": 83,
      "hit": false,
      "t": 214412.6643750009,
      "d": 395.20162499998696,
      "v": 108
    },
    {
      "midi": 57,
      "hit": false,
      "t": 214538.9268750009,
      "d": 818.1809999999823,
      "v": 121
    },
    {
      "midi": 66,
      "hit": false,
      "t": 214545.2400000009,
      "d": 818.1809999999823,
      "v": 119
    },
    {
      "midi": 62,
      "hit": false,
      "t": 214551.55312500088,
      "d": 818.1809999999823,
      "v": 117
    },
    {
      "midi": 73,
      "hit": false,
      "t": 214793.97712500088,
      "d": 553.0297500000161,
      "v": 98
    },
    {
      "midi": 85,
      "hit": false,
      "t": 214823.0175000009,
      "d": 553.0297499999579,
      "v": 103
    },
    {
      "midi": 74,
      "hit": false,
      "t": 215378.57250000085,
      "d": 361.11075000002165,
      "v": 91
    },
    {
      "midi": 86,
      "hit": false,
      "t": 215406.35025000086,
      "d": 361.11075000002165,
      "v": 103
    },
    {
      "midi": 49,
      "hit": false,
      "t": 215460.64312500088,
      "d": 742.4235000000044,
      "v": 115
    },
    {
      "midi": 76,
      "hit": false,
      "t": 215753.57212500088,
      "d": 468.4338749999879,
      "v": 100
    },
    {
      "midi": 88,
      "hit": false,
      "t": 215782.6125000009,
      "d": 468.4338749999879,
      "v": 107
    },
    {
      "midi": 78,
      "hit": false,
      "t": 216245.99587500087,
      "d": 679.2922500000277,
      "v": 93
    },
    {
      "midi": 90,
      "hit": false,
      "t": 216275.03625000088,
      "d": 679.2922500000277,
      "v": 105
    },
    {
      "midi": 61,
      "hit": false,
      "t": 216359.63212500088,
      "d": 837.1203750000568,
      "v": 117
    },
    {
      "midi": 52,
      "hit": false,
      "t": 216363.4200000009,
      "d": 837.1203750000568,
      "v": 119
    },
    {
      "midi": 57,
      "hit": false,
      "t": 216365.9452500009,
      "d": 837.1203750000568,
      "v": 117
    },
    {
      "midi": 80,
      "hit": false,
      "t": 216940.4396250009,
      "d": 222.22200000000885,
      "v": 91
    },
    {
      "midi": 92,
      "hit": false,
      "t": 216969.4800000009,
      "d": 222.22200000000885,
      "v": 105
    },
    {
      "midi": 57,
      "hit": false,
      "t": 217268.72212500096,
      "d": 929.2920000000158,
      "v": 116
    },
    {
      "midi": 62,
      "hit": false,
      "t": 217275.03525000095,
      "d": 929.2920000000158,
      "v": 119
    },
    {
      "midi": 66,
      "hit": false,
      "t": 217278.82312500096,
      "d": 929.2920000000158,
      "v": 118
    },
    {
      "midi": 81,
      "hit": false,
      "t": 217493.46937500095,
      "d": 268.9391250000044,
      "v": 98
    },
    {
      "midi": 93,
      "hit": false,
      "t": 217521.24712500095,
      "d": 268.9391250000044,
      "v": 105
    },
    {
      "midi": 83,
      "hit": false,
      "t": 217865.94375000097,
      "d": 304.29262500000186,
      "v": 92
    },
    {
      "midi": 95,
      "hit": false,
      "t": 217893.72150000097,
      "d": 304.29262500000186,
      "v": 104
    },
    {
      "midi": 52,
      "hit": false,
      "t": 218184.12525000097,
      "d": 85.8585000000021,
      "v": 119
    },
    {
      "midi": 85,
      "hit": false,
      "t": 218304.07462500097,
      "d": 458.3328750000219,
      "v": 98
    },
    {
      "midi": 97,
      "hit": false,
      "t": 218333.11500000098,
      "d": 458.3328750000219,
      "v": 109
    },
    {
      "midi": 64,
      "hit": false,
      "t": 218484.630000001,
      "d": 752.5244999999995,
      "v": 123
    },
    {
      "midi": 68,
      "hit": false,
      "t": 218484.630000001,
      "d": 752.5244999999995,
      "v": 116
    },
    {
      "midi": 59,
      "hit": false,
      "t": 218487.155250001,
      "d": 752.5244999999995,
      "v": 116
    },
    {
      "midi": 86,
      "hit": false,
      "t": 218834.377125001,
      "d": 279.04012499999953,
      "v": 94
    },
    {
      "midi": 98,
      "hit": false,
      "t": 218863.417500001,
      "d": 279.04012499999953,
      "v": 104
    },
    {
      "midi": 88,
      "hit": false,
      "t": 219229.578750001,
      "d": 335.8582499999611,
      "v": 94
    },
    {
      "midi": 100,
      "hit": false,
      "t": 219257.356500001,
      "d": 335.8582499999611,
      "v": 104
    },
    {
      "midi": 57,
      "hit": false,
      "t": 219387.406875001,
      "d": 818.1809999999823,
      "v": 117
    },
    {
      "midi": 66,
      "hit": false,
      "t": 219393.720000001,
      "d": 818.1809999999823,
      "v": 114
    },
    {
      "midi": 62,
      "hit": false,
      "t": 219400.03312500098,
      "d": 818.1809999999823,
      "v": 111
    },
    {
      "midi": 88,
      "hit": false,
      "t": 219747.25500000097,
      "d": 285.35325000001467,
      "v": 98
    },
    {
      "midi": 100,
      "hit": false,
      "t": 219775.03275000097,
      "d": 285.35325000001467,
      "v": 112
    },
    {
      "midi": 88,
      "hit": false,
      "t": 220153.82025000098,
      "d": 266.41387499999837,
      "v": 100
    },
    {
      "midi": 100,
      "hit": false,
      "t": 220182.860625001,
      "d": 266.41387499999837,
      "v": 107
    },
    {
      "midi": 49,
      "hit": false,
      "t": 220309.12312500097,
      "d": 742.4235000000335,
      "v": 111
    },
    {
      "midi": 61,
      "hit": false,
      "t": 221208.112125001,
      "d": 837.1203750000277,
      "v": 113
    },
    {
      "midi": 52,
      "hit": false,
      "t": 221211.900000001,
      "d": 837.1203750000277,
      "v": 121
    },
    {
      "midi": 57,
      "hit": false,
      "t": 221214.42525000102,
      "d": 837.1203750000277,
      "v": 116
    },
    {
      "midi": 88,
      "hit": false,
      "t": 221413.92000000103,
      "d": 35.35349999999744,
      "v": 117
    },
    {
      "midi": 100,
      "hit": false,
      "t": 221432.85937500102,
      "d": 45.45450000002165,
      "v": 117
    },
    {
      "midi": 88,
      "hit": false,
      "t": 221817.96000000104,
      "d": 297.97950000001583,
      "v": 118
    },
    {
      "midi": 100,
      "hit": false,
      "t": 221836.89937500103,
      "d": 297.97950000001583,
      "v": 111
    },
    {
      "midi": 57,
      "hit": false,
      "t": 222117.20212500106,
      "d": 929.2919999999576,
      "v": 124
    },
    {
      "midi": 62,
      "hit": false,
      "t": 222123.51525000104,
      "d": 929.2919999999867,
      "v": 122
    },
    {
      "midi": 66,
      "hit": false,
      "t": 222127.30312500105,
      "d": 929.2919999999867,
      "v": 115
    },
    {
      "midi": 86,
      "hit": false,
      "t": 222222.00000000105,
      "d": 285.35324999998556,
      "v": 103
    },
    {
      "midi": 98,
      "hit": false,
      "t": 222240.93937500103,
      "d": 285.35324999998556,
      "v": 103
    },
    {
      "midi": 85,
      "hit": false,
      "t": 222626.04000000103,
      "d": 294.19162499997765,
      "v": 118
    },
    {
      "midi": 97,
      "hit": false,
      "t": 222644.979375001,
      "d": 294.19162499997765,
      "v": 118
    },
    {
      "midi": 83,
      "hit": false,
      "t": 223030.080000001,
      "d": 297.97950000004494,
      "v": 119
    },
    {
      "midi": 52,
      "hit": false,
      "t": 223032.605250001,
      "d": 319.4441250000382,
      "v": 114
    },
    {
      "midi": 95,
      "hit": false,
      "t": 223049.01937500102,
      "d": 297.97950000001583,
      "v": 119
    },
    {
      "midi": 64,
      "hit": false,
      "t": 223434.12000000104,
      "d": 338.3834999999963,
      "v": 123
    },
    {
      "midi": 69,
      "hit": false,
      "t": 223434.12000000104,
      "d": 338.3834999999963,
      "v": 115
    },
    {
      "midi": 59,
      "hit": false,
      "t": 223436.64525000105,
      "d": 367.4238750000077,
      "v": 115
    },
    {
      "midi": 81,
      "hit": false,
      "t": 223461.89775000105,
      "d": 338.3834999999963,
      "v": 123
    },
    {
      "midi": 64,
      "hit": false,
      "t": 223838.16000000105,
      "d": 338.3834999999963,
      "v": 117
    },
    {
      "midi": 68,
      "hit": false,
      "t": 223838.16000000105,
      "d": 338.3834999999963,
      "v": 115
    },
    {
      "midi": 59,
      "hit": false,
      "t": 223840.68525000106,
      "d": 367.4238750000077,
      "v": 124
    },
    {
      "midi": 80,
      "hit": false,
      "t": 223865.93775000106,
      "d": 338.3834999999963,
      "v": 119
    },
    {
      "midi": 57,
      "hit": false,
      "t": 224235.88687500107,
      "d": 338.38349999996717,
      "v": 119
    },
    {
      "midi": 66,
      "hit": false,
      "t": 224242.20000000106,
      "d": 338.38349999996717,
      "v": 117
    },
    {
      "midi": 62,
      "hit": false,
      "t": 224248.51312500105,
      "d": 338.38349999996717,
      "v": 119
    },
    {
      "midi": 78,
      "hit": false,
      "t": 224269.97775000104,
      "d": 338.38349999996717,
      "v": 111
    },
    {
      "midi": 57,
      "hit": false,
      "t": 224639.926875001,
      "d": 338.38349999996717,
      "v": 114
    },
    {
      "midi": 66,
      "hit": false,
      "t": 224646.24000000098,
      "d": 338.38349999996717,
      "v": 113
    },
    {
      "midi": 62,
      "hit": false,
      "t": 224652.55312500097,
      "d": 338.38349999996717,
      "v": 114
    },
    {
      "midi": 78,
      "hit": false,
      "t": 224674.01775000096,
      "d": 338.38349999996717,
      "v": 120
    },
    {
      "midi": 57,
      "hit": false,
      "t": 225043.96687500092,
      "d": 338.38349999996717,
      "v": 120
    },
    {
      "midi": 64,
      "hit": false,
      "t": 225050.2800000009,
      "d": 338.38349999996717,
      "v": 117
    },
    {
      "midi": 61,
      "hit": false,
      "t": 225056.5931250009,
      "d": 338.38349999996717,
      "v": 114
    },
    {
      "midi": 76,
      "hit": false,
      "t": 225078.05775000088,
      "d": 338.38349999996717,
      "v": 116
    },
    {
      "midi": 57,
      "hit": false,
      "t": 225448.00687500084,
      "d": 1550.5034999999625,
      "v": 114
    },
    {
      "midi": 64,
      "hit": false,
      "t": 225454.32000000082,
      "d": 1550.5034999999625,
      "v": 113
    },
    {
      "midi": 61,
      "hit": false,
      "t": 225460.6331250008,
      "d": 1550.5034999999625,
      "v": 114
    },
    {
      "midi": 69,
      "hit": false,
      "t": 225482.0977500008,
      "d": 1550.5034999999625,
      "v": 112
    }
  ]
}