{
  "jsonPath": "Rock/German Rock/Herbert Grönemeyer/mensch.json",
  "path": "Rock\\German Rock\\Herbert Grönemeyer\\Mensch.mid",
  "name": "Mensch",
  "difficulty": "Advanced",
  "bpm": 174.00029580050287,
  "notes": [
    {
      "midi": 62,
      "hit": false,
      "t": 29310.295,
      "d": 860.6307208333346,
      "v": 1
    },
    {
      "midi": 66,
      "hit": false,
      "t": 30172.3625,
      "d": 1550.2847208333333,
      "v": 1
    },
    {
      "midi": 62,
      "hit": false,
      "t": 39655.104999999996,
      "d": 1377.8712208333309,
      "v": 1
    },
    {
      "midi": 66,
      "hit": false,
      "t": 41034.41299999999,
      "d": 343.3902208333311,
      "v": 1
    },
    {
      "midi": 66,
      "hit": false,
      "t": 48275.78,
      "d": 1272.2679520833335,
      "v": 81
    },
    {
      "midi": 55,
      "hit": false,
      "t": 48275.78,
      "d": 1301.0035354166685,
      "v": 82
    },
    {
      "midi": 59,
      "hit": false,
      "t": 48275.78,
      "d": 1301.0035354166685,
      "v": 87
    },
    {
      "midi": 62,
      "hit": false,
      "t": 48275.78,
      "d": 1321.118443750005,
      "v": 80
    },
    {
      "midi": 62,
      "hit": false,
      "t": 48793.02049999999,
      "d": 170.976720833336,
      "v": 1
    },
    {
      "midi": 66,
      "hit": false,
      "t": 48965.433999999994,
      "d": 343.3902208333311,
      "v": 1
    },
    {
      "midi": 62,
      "hit": false,
      "t": 49310.26099999999,
      "d": 170.976720833336,
      "v": 1
    },
    {
      "midi": 64,
      "hit": false,
      "t": 49482.674499999994,
      "d": 1550.2847208333333,
      "v": 1
    },
    {
      "midi": 59,
      "hit": false,
      "t": 49650.777662500004,
      "d": 1244.2507583333354,
      "v": 84
    },
    {
      "midi": 62,
      "hit": false,
      "t": 49650.777662500004,
      "d": 1272.9863416666703,
      "v": 80
    },
    {
      "midi": 64,
      "hit": false,
      "t": 49652.93283125001,
      "d": 1212.6416166666677,
      "v": 82
    },
    {
      "midi": 55,
      "hit": false,
      "t": 49655.08800000001,
      "d": 1258.6185499999992,
      "v": 85
    },
    {
      "midi": 62,
      "hit": false,
      "t": 51027.930493750006,
      "d": 1270.1127833333376,
      "v": 81
    },
    {
      "midi": 59,
      "hit": false,
      "t": 51028.64888333334,
      "d": 1239.9404208333362,
      "v": 83
    },
    {
      "midi": 55,
      "hit": false,
      "t": 51032.95922083334,
      "d": 1229.1645770833347,
      "v": 77
    },
    {
      "midi": 66,
      "hit": false,
      "t": 51034.39599999999,
      "d": 860.630720833331,
      "v": 1
    },
    {
      "midi": 66,
      "hit": false,
      "t": 51035.114389583345,
      "d": 1189.6531499999983,
      "v": 79
    },
    {
      "midi": 67,
      "hit": false,
      "t": 51896.46349999999,
      "d": 515.8037208333335,
      "v": 1
    },
    {
      "midi": 59,
      "hit": false,
      "t": 52392.15231250001,
      "d": 1106.3199583333335,
      "v": 81
    },
    {
      "midi": 64,
      "hit": false,
      "t": 52393.589091666676,
      "d": 1174.5669687499976,
      "v": 79
    },
    {
      "midi": 55,
      "hit": false,
      "t": 52393.589091666676,
      "d": 1176.7221375000008,
      "v": 81
    },
    {
      "midi": 62,
      "hit": false,
      "t": 52401.491377083345,
      "d": 1052.4407395833332,
      "v": 78
    },
    {
      "midi": 64,
      "hit": false,
      "t": 52413.70399999999,
      "d": 2239.9387208333355,
      "v": 1
    },
    {
      "midi": 64,
      "hit": false,
      "t": 53778.644208333346,
      "d": 1206.1761104166726,
      "v": 81
    },
    {
      "midi": 57,
      "hit": false,
      "t": 53778.644208333346,
      "d": 2596.259954166664,
      "v": 78
    },
    {
      "midi": 54,
      "hit": false,
      "t": 53779.36259791668,
      "d": 1281.6070166666686,
      "v": 80
    },
    {
      "midi": 61,
      "hit": false,
      "t": 53782.95454583335,
      "d": 1228.446187499998,
      "v": 81
    },
    {
      "midi": 61,
      "hit": false,
      "t": 54655.07949999999,
      "d": 343.3902208333311,
      "v": 1
    },
    {
      "midi": 62,
      "hit": false,
      "t": 54999.90649999999,
      "d": 1550.2847208333333,
      "v": 1
    },
    {
      "midi": 62,
      "hit": false,
      "t": 55151.48670208335,
      "d": 1148.7049437499954,
      "v": 79
    },
    {
      "midi": 59,
      "hit": false,
      "t": 55154.36026041668,
      "d": 1076.8659854166617,
      "v": 78
    },
    {
      "midi": 54,
      "hit": false,
      "t": 55161.54415625001,
      "d": 1239.940420833329,
      "v": 75
    },
    {
      "midi": 61,
      "hit": false,
      "t": 56528.63953333334,
      "d": 1238.5036416666771,
      "v": 77
    },
    {
      "midi": 54,
      "hit": false,
      "t": 56531.513091666675,
      "d": 1219.8255125000069,
      "v": 81
    },
    {
      "midi": 57,
      "hit": false,
      "t": 56531.513091666675,
      "d": 1338.359793750009,
      "v": 79
    },
    {
      "midi": 64,
      "hit": false,
      "t": 56532.23148125001,
      "d": 1222.6990708333396,
      "v": 79
    },
    {
      "midi": 64,
      "hit": false,
      "t": 56551.62799999999,
      "d": 860.630720833331,
      "v": 1
    },
    {
      "midi": 66,
      "hit": false,
      "t": 57413.69549999999,
      "d": 515.8037208333335,
      "v": 1
    },
    {
      "midi": 62,
      "hit": false,
      "t": 57912.25787083335,
      "d": 1375.716052083335,
      "v": 79
    },
    {
      "midi": 57,
      "hit": false,
      "t": 57912.25787083335,
      "d": 1395.1125708333348,
      "v": 68
    },
    {
      "midi": 59,
      "hit": false,
      "t": 57912.97626041669,
      "d": 1390.8022333333283,
      "v": 78
    },
    {
      "midi": 54,
      "hit": false,
      "t": 57918.723377083355,
      "d": 1389.3654541666692,
      "v": 77
    },
    {
      "midi": 62,
      "hit": false,
      "t": 57930.93599999999,
      "d": 860.630720833331,
      "v": 1
    },
    {
      "midi": 64,
      "hit": false,
      "t": 58793.003499999984,
      "d": 343.3902208333311,
      "v": 1
    },
    {
      "midi": 66,
      "hit": false,
      "t": 59137.83049999998,
      "d": 1205.4577208333358,
      "v": 1
    },
    {
      "midi": 66,
      "hit": false,
      "t": 59310.24400000003,
      "d": 1272.2679520833335,
      "v": 81
    },
    {
      "midi": 55,
      "hit": false,
      "t": 59310.24400000003,
      "d": 1301.0035354166685,
      "v": 82
    },
    {
      "midi": 59,
      "hit": false,
      "t": 59310.24400000003,
      "d": 1301.0035354166685,
      "v": 87
    },
    {
      "midi": 62,
      "hit": false,
      "t": 59310.24400000003,
      "d": 1321.118443750005,
      "v": 80
    },
    {
      "midi": 62,
      "hit": false,
      "t": 60344.724999999984,
      "d": 170.976720833336,
      "v": 1
    },
    {
      "midi": 64,
      "hit": false,
      "t": 60517.13849999999,
      "d": 1033.0442208333334,
      "v": 1
    },
    {
      "midi": 59,
      "hit": false,
      "t": 60685.24166250003,
      "d": 1244.2507583333354,
      "v": 84
    },
    {
      "midi": 62,
      "hit": false,
      "t": 60685.24166250003,
      "d": 1272.9863416666703,
      "v": 80
    },
    {
      "midi": 64,
      "hit": false,
      "t": 60687.39683125004,
      "d": 1212.6416166666677,
      "v": 82
    },
    {
      "midi": 55,
      "hit": false,
      "t": 60689.55200000004,
      "d": 1258.6185499999992,
      "v": 85
    },
    {
      "midi": 62,
      "hit": false,
      "t": 61551.619499999986,
      "d": 515.8037208333335,
      "v": 1
    },
    {
      "midi": 62,
      "hit": false,
      "t": 62062.394493750035,
      "d": 1270.1127833333376,
      "v": 81
    },
    {
      "midi": 59,
      "hit": false,
      "t": 62063.11288333337,
      "d": 1239.9404208333362,
      "v": 83
    },
    {
      "midi": 55,
      "hit": false,
      "t": 62067.42322083337,
      "d": 1229.1645770833347,
      "v": 77
    },
    {
      "midi": 66,
      "hit": false,
      "t": 62068.859999999986,
      "d": 860.630720833331,
      "v": 1
    },
    {
      "midi": 66,
      "hit": false,
      "t": 62069.578389583374,
      "d": 1189.6531499999983,
      "v": 79
    },
    {
      "midi": 67,
      "hit": false,
      "t": 62930.92749999998,
      "d": 343.3902208333311,
      "v": 1
    },
    {
      "midi": 64,
      "hit": false,
      "t": 63275.75449999998,
      "d": 2584.7657208333403,
      "v": 1
    },
    {
      "midi": 59,
      "hit": false,
      "t": 63426.61631250004,
      "d": 1106.3199583333335,
      "v": 81
    },
    {
      "midi": 64,
      "hit": false,
      "t": 63428.053091666705,
      "d": 1174.5669687499976,
      "v": 79
    },
    {
      "midi": 55,
      "hit": false,
      "t": 63428.053091666705,
      "d": 1176.7221375000008,
      "v": 81
    },
    {
      "midi": 62,
      "hit": false,
      "t": 63435.95537708337,
      "d": 1052.4407395833332,
      "v": 78
    },
    {
      "midi": 64,
      "hit": false,
      "t": 64813.108208333375,
      "d": 1206.1761104166799,
      "v": 81
    },
    {
      "midi": 57,
      "hit": false,
      "t": 64813.108208333375,
      "d": 2596.2599541667005,
      "v": 78
    },
    {
      "midi": 54,
      "hit": false,
      "t": 64813.82659791671,
      "d": 1281.6070166666832,
      "v": 80
    },
    {
      "midi": 61,
      "hit": false,
      "t": 64817.41854583338,
      "d": 1228.4461875000125,
      "v": 81
    },
    {
      "midi": 61,
      "hit": false,
      "t": 65861.957,
      "d": 170.976720833336,
      "v": 1
    },
    {
      "midi": 62,
      "hit": false,
      "t": 66034.3705,
      "d": 1205.4577208333358,
      "v": 1
    },
    {
      "midi": 62,
      "hit": false,
      "t": 66185.9507020834,
      "d": 1148.70494375001,
      "v": 79
    },
    {
      "midi": 59,
      "hit": false,
      "t": 66188.82426041673,
      "d": 1076.8659854166763,
      "v": 78
    },
    {
      "midi": 54,
      "hit": false,
      "t": 66196.00815625007,
      "d": 1239.9404208333435,
      "v": 75
    },
    {
      "midi": 61,
      "hit": false,
      "t": 67241.26500000001,
      "d": 343.3902208333311,
      "v": 1
    },
    {
      "midi": 61,
      "hit": false,
      "t": 67563.10353333341,
      "d": 1238.5036416666553,
      "v": 77
    },
    {
      "midi": 54,
      "hit": false,
      "t": 67565.97709166675,
      "d": 1219.8255124999996,
      "v": 81
    },
    {
      "midi": 57,
      "hit": false,
      "t": 67565.97709166675,
      "d": 1338.3597937499871,
      "v": 79
    },
    {
      "midi": 64,
      "hit": false,
      "t": 67566.69548125008,
      "d": 1222.6990708333324,
      "v": 79
    },
    {
      "midi": 64,
      "hit": false,
      "t": 67586.09200000002,
      "d": 860.630720833331,
      "v": 1
    },
    {
      "midi": 66,
      "hit": false,
      "t": 68448.15950000002,
      "d": 343.3902208333311,
      "v": 1
    },
    {
      "midi": 62,
      "hit": false,
      "t": 68792.98650000003,
      "d": 688.2172208333359,
      "v": 1
    },
    {
      "midi": 62,
      "hit": false,
      "t": 68946.7218708334,
      "d": 1375.7160520833277,
      "v": 79
    },
    {
      "midi": 57,
      "hit": false,
      "t": 68946.7218708334,
      "d": 1395.1125708333275,
      "v": 68
    },
    {
      "midi": 59,
      "hit": false,
      "t": 68947.44026041673,
      "d": 1390.8022333333356,
      "v": 78
    },
    {
      "midi": 54,
      "hit": false,
      "t": 68953.18737708339,
      "d": 1389.365454166662,
      "v": 77
    },
    {
      "midi": 62,
      "hit": false,
      "t": 69482.64050000004,
      "d": 170.976720833336,
      "v": 1
    },
    {
      "midi": 66,
      "hit": false,
      "t": 69655.05400000005,
      "d": 170.976720833336,
      "v": 1
    },
    {
      "midi": 62,
      "hit": false,
      "t": 69827.46750000006,
      "d": 170.976720833336,
      "v": 1
    },
    {
      "midi": 66,
      "hit": false,
      "t": 69999.88100000007,
      "d": 1377.8712208333309,
      "v": 1
    },
    {
      "midi": 59,
      "hit": false,
      "t": 70352.61028541673,
      "d": 2465.513049999994,
      "v": 81
    },
    {
      "midi": 62,
      "hit": false,
      "t": 70354.76545416673,
      "d": 2462.6394916666613,
      "v": 79
    },
    {
      "midi": 64,
      "hit": false,
      "t": 70355.48384375006,
      "d": 2443.2429729166615,
      "v": 78
    },
    {
      "midi": 55,
      "hit": false,
      "t": 70356.20223333339,
      "d": 2452.582037500004,
      "v": 79
    },
    {
      "midi": 62,
      "hit": false,
      "t": 71379.18900000007,
      "d": 170.976720833336,
      "v": 1
    },
    {
      "midi": 66,
      "hit": false,
      "t": 71551.60250000008,
      "d": 1033.044220833326,
      "v": 1
    },
    {
      "midi": 62,
      "hit": false,
      "t": 72586.08350000008,
      "d": 515.8037208333262,
      "v": 1
    },
    {
      "midi": 62,
      "hit": false,
      "t": 81034.34500000007,
      "d": 170.976720833336,
      "v": 1
    },
    {
      "midi": 61,
      "hit": false,
      "t": 81206.75850000008,
      "d": 170.976720833336,
      "v": 1
    },
    {
      "midi": 62,
      "hit": false,
      "t": 81379.1720000001,
      "d": 860.630720833331,
      "v": 1
    },
    {
      "midi": 64,
      "hit": false,
      "t": 82241.2395000001,
      "d": 343.3902208333311,
      "v": 1
    },
    {
      "midi": 62,
      "hit": false,
      "t": 82586.0665000001,
      "d": 1550.284720833326,
      "v": 1
    },
    {
      "midi": 69,
      "hit": false,
      "t": 92758.46300000009,
      "d": 343.3902208333311,
      "v": 1
    },
    {
      "midi": 67,
      "hit": false,
      "t": 93103.2900000001,
      "d": 170.976720833336,
      "v": 1
    },
    {
      "midi": 66,
      "hit": false,
      "t": 93275.7035000001,
      "d": 515.8037208333262,
      "v": 1
    },
    {
      "midi": 66,
      "hit": false,
      "t": 100689.48400000005,
      "d": 1272.2679520833335,
      "v": 81
    },
    {
      "midi": 55,
      "hit": false,
      "t": 100689.48400000005,
      "d": 1301.0035354166612,
      "v": 82
    },
    {
      "midi": 59,
      "hit": false,
      "t": 100689.48400000005,
      "d": 1301.0035354166612,
      "v": 87
    },
    {
      "midi": 62,
      "hit": false,
      "t": 100689.48400000005,
      "d": 1321.1184437499905,
      "v": 80
    },
    {
      "midi": 59,
      "hit": false,
      "t": 101206.7245000001,
      "d": 170.976720833336,
      "v": 1
    },
    {
      "midi": 62,
      "hit": false,
      "t": 101379.13800000011,
      "d": 343.3902208333311,
      "v": 1
    },
    {
      "midi": 59,
      "hit": false,
      "t": 101723.96500000011,
      "d": 170.976720833336,
      "v": 1
    },
    {
      "midi": 61,
      "hit": false,
      "t": 101896.37850000012,
      "d": 1550.2847208333405,
      "v": 1
    },
    {
      "midi": 59,
      "hit": false,
      "t": 102064.48166250004,
      "d": 1244.25075833335,
      "v": 84
    },
    {
      "midi": 62,
      "hit": false,
      "t": 102064.48166250004,
      "d": 1272.9863416666922,
      "v": 80
    },
    {
      "midi": 64,
      "hit": false,
      "t": 102066.63683125004,
      "d": 1212.641616666675,
      "v": 82
    },
    {
      "midi": 55,
      "hit": false,
      "t": 102068.79200000004,
      "d": 1258.6185500000138,
      "v": 85
    },
    {
      "midi": 62,
      "hit": false,
      "t": 103441.63449375007,
      "d": 1270.1127833333449,
      "v": 81
    },
    {
      "midi": 59,
      "hit": false,
      "t": 103442.3528833334,
      "d": 1239.9404208333435,
      "v": 83
    },
    {
      "midi": 55,
      "hit": false,
      "t": 103446.6632208334,
      "d": 1229.164577083342,
      "v": 77
    },
    {
      "midi": 62,
      "hit": false,
      "t": 103448.10000000014,
      "d": 860.630720833331,
      "v": 1
    },
    {
      "midi": 66,
      "hit": false,
      "t": 103448.81838958341,
      "d": 1189.6531499999983,
      "v": 79
    },
    {
      "midi": 64,
      "hit": false,
      "t": 104310.16750000014,
      "d": 515.8037208333262,
      "v": 1
    },
    {
      "midi": 59,
      "hit": false,
      "t": 104805.85631250008,
      "d": 1106.319958333348,
      "v": 81
    },
    {
      "midi": 64,
      "hit": false,
      "t": 104807.29309166675,
      "d": 1174.566968750005,
      "v": 79
    },
    {
      "midi": 55,
      "hit": false,
      "t": 104807.29309166675,
      "d": 1176.722137500008,
      "v": 81
    },
    {
      "midi": 62,
      "hit": false,
      "t": 104815.19537708342,
      "d": 1052.4407395833405,
      "v": 78
    },
    {
      "midi": 61,
      "hit": false,
      "t": 104827.40800000014,
      "d": 515.8037208333262,
      "v": 1
    },
    {
      "midi": 57,
      "hit": false,
      "t": 105344.64850000014,
      "d": 170.976720833336,
      "v": 1
    },
    {
      "midi": 61,
      "hit": false,
      "t": 105517.06200000015,
      "d": 1722.6982208333357,
      "v": 1
    },
    {
      "midi": 64,
      "hit": false,
      "t": 106192.34820833342,
      "d": 1206.1761104166653,
      "v": 81
    },
    {
      "midi": 57,
      "hit": false,
      "t": 106192.34820833342,
      "d": 2596.259954166686,
      "v": 78
    },
    {
      "midi": 54,
      "hit": false,
      "t": 106193.06659791675,
      "d": 1281.607016666676,
      "v": 80
    },
    {
      "midi": 61,
      "hit": false,
      "t": 106196.65854583342,
      "d": 1228.4461875000125,
      "v": 81
    },
    {
      "midi": 57,
      "hit": false,
      "t": 107241.19700000016,
      "d": 170.976720833336,
      "v": 1
    },
    {
      "midi": 59,
      "hit": false,
      "t": 107413.61050000017,
      "d": 1550.2847208333405,
      "v": 1
    },
    {
      "midi": 62,
      "hit": false,
      "t": 107565.19070208343,
      "d": 1148.70494375001,
      "v": 79
    },
    {
      "midi": 59,
      "hit": false,
      "t": 107568.06426041677,
      "d": 1076.8659854166763,
      "v": 78
    },
    {
      "midi": 54,
      "hit": false,
      "t": 107575.2481562501,
      "d": 1239.9404208333435,
      "v": 75
    },
    {
      "midi": 61,
      "hit": false,
      "t": 108942.34353333345,
      "d": 1238.5036416666553,
      "v": 77
    },
    {
      "midi": 54,
      "hit": false,
      "t": 108945.21709166678,
      "d": 1219.8255124999996,
      "v": 81
    },
    {
      "midi": 57,
      "hit": false,
      "t": 108945.21709166678,
      "d": 1338.3597937499871,
      "v": 79
    },
    {
      "midi": 64,
      "hit": false,
      "t": 108945.93548125011,
      "d": 1222.6990708333324,
      "v": 79
    },
    {
      "midi": 61,
      "hit": false,
      "t": 108965.33200000018,
      "d": 860.630720833331,
      "v": 1
    },
    {
      "midi": 62,
      "hit": false,
      "t": 109827.39950000019,
      "d": 343.3902208333311,
      "v": 1
    },
    {
      "midi": 59,
      "hit": false,
      "t": 110172.2265000002,
      "d": 1550.284720833326,
      "v": 1
    },
    {
      "midi": 62,
      "hit": false,
      "t": 110325.96187083343,
      "d": 1375.7160520833277,
      "v": 79
    },
    {
      "midi": 57,
      "hit": false,
      "t": 110325.96187083343,
      "d": 1395.1125708333275,
      "v": 68
    },
    {
      "midi": 59,
      "hit": false,
      "t": 110326.68026041676,
      "d": 1390.8022333333356,
      "v": 78
    },
    {
      "midi": 54,
      "hit": false,
      "t": 110332.42737708343,
      "d": 1389.365454166662,
      "v": 77
    },
    {
      "midi": 66,
      "hit": false,
      "t": 111723.94800000009,
      "d": 1272.2679520833335,
      "v": 81
    },
    {
      "midi": 55,
      "hit": false,
      "t": 111723.94800000009,
      "d": 1301.0035354166612,
      "v": 82
    },
    {
      "midi": 59,
      "hit": false,
      "t": 111723.94800000009,
      "d": 1301.0035354166612,
      "v": 87
    },
    {
      "midi": 62,
      "hit": false,
      "t": 111723.94800000009,
      "d": 1321.1184437499905,
      "v": 80
    },
    {
      "midi": 62,
      "hit": false,
      "t": 111723.9480000002,
      "d": 1033.044220833326,
      "v": 1
    },
    {
      "midi": 59,
      "hit": false,
      "t": 112758.4290000002,
      "d": 170.976720833336,
      "v": 1
    },
    {
      "midi": 61,
      "hit": false,
      "t": 112930.8425000002,
      "d": 1033.0442208333407,
      "v": 1
    },
    {
      "midi": 59,
      "hit": false,
      "t": 113098.94566250007,
      "d": 1244.25075833335,
      "v": 84
    },
    {
      "midi": 62,
      "hit": false,
      "t": 113098.94566250007,
      "d": 1272.9863416666922,
      "v": 80
    },
    {
      "midi": 64,
      "hit": false,
      "t": 113101.10083125008,
      "d": 1212.641616666675,
      "v": 82
    },
    {
      "midi": 55,
      "hit": false,
      "t": 113103.25600000008,
      "d": 1258.6185500000138,
      "v": 85
    },
    {
      "midi": 59,
      "hit": false,
      "t": 113965.32350000022,
      "d": 343.3902208333311,
      "v": 1
    },
    {
      "midi": 62,
      "hit": false,
      "t": 114310.15050000022,
      "d": 1033.0442208333407,
      "v": 1
    },
    {
      "midi": 62,
      "hit": false,
      "t": 114476.0984937501,
      "d": 1270.1127833333449,
      "v": 81
    },
    {
      "midi": 59,
      "hit": false,
      "t": 114476.81688333343,
      "d": 1239.9404208333435,
      "v": 83
    },
    {
      "midi": 55,
      "hit": false,
      "t": 114481.12722083344,
      "d": 1229.164577083342,
      "v": 77
    },
    {
      "midi": 66,
      "hit": false,
      "t": 114483.28238958344,
      "d": 1189.6531499999983,
      "v": 79
    },
    {
      "midi": 64,
      "hit": false,
      "t": 115344.63150000024,
      "d": 343.3902208333311,
      "v": 1
    },
    {
      "midi": 61,
      "hit": false,
      "t": 115689.45850000024,
      "d": 688.2172208333359,
      "v": 1
    },
    {
      "midi": 59,
      "hit": false,
      "t": 115840.32031250012,
      "d": 1106.319958333348,
      "v": 81
    },
    {
      "midi": 64,
      "hit": false,
      "t": 115841.75709166679,
      "d": 1174.566968750005,
      "v": 79
    },
    {
      "midi": 55,
      "hit": false,
      "t": 115841.75709166679,
      "d": 1176.722137500008,
      "v": 81
    },
    {
      "midi": 62,
      "hit": false,
      "t": 115849.65937708346,
      "d": 1052.4407395833405,
      "v": 78
    },
    {
      "midi": 57,
      "hit": false,
      "t": 116379.11250000025,
      "d": 170.976720833336,
      "v": 1
    },
    {
      "midi": 61,
      "hit": false,
      "t": 116551.52600000026,
      "d": 1722.6982208333357,
      "v": 1
    },
    {
      "midi": 64,
      "hit": false,
      "t": 117226.81220833346,
      "d": 1206.1761104166653,
      "v": 81
    },
    {
      "midi": 57,
      "hit": false,
      "t": 117226.81220833346,
      "d": 2596.259954166686,
      "v": 78
    },
    {
      "midi": 54,
      "hit": false,
      "t": 117227.53059791679,
      "d": 1281.607016666676,
      "v": 80
    },
    {
      "midi": 61,
      "hit": false,
      "t": 117231.12254583345,
      "d": 1228.4461875000125,
      "v": 81
    },
    {
      "midi": 57,
      "hit": false,
      "t": 118275.66100000027,
      "d": 170.976720833336,
      "v": 1
    },
    {
      "midi": 59,
      "hit": false,
      "t": 118448.07450000028,
      "d": 1033.0442208333407,
      "v": 1
    },
    {
      "midi": 62,
      "hit": false,
      "t": 118599.65470208347,
      "d": 1148.70494375001,
      "v": 79
    },
    {
      "midi": 59,
      "hit": false,
      "t": 118602.5282604168,
      "d": 1076.8659854166763,
      "v": 78
    },
    {
      "midi": 54,
      "hit": false,
      "t": 118609.71215625014,
      "d": 1239.9404208333435,
      "v": 75
    },
    {
      "midi": 57,
      "hit": false,
      "t": 119482.5555000003,
      "d": 343.3902208333311,
      "v": 1
    },
    {
      "midi": 61,
      "hit": false,
      "t": 119827.3825000003,
      "d": 1205.4577208333358,
      "v": 1
    },
    {
      "midi": 61,
      "hit": false,
      "t": 119976.80753333349,
      "d": 1238.5036416666553,
      "v": 77
    },
    {
      "midi": 54,
      "hit": false,
      "t": 119979.68109166682,
      "d": 1219.8255124999996,
      "v": 81
    },
    {
      "midi": 57,
      "hit": false,
      "t": 119979.68109166682,
      "d": 1338.3597937499871,
      "v": 79
    },
    {
      "midi": 64,
      "hit": false,
      "t": 119980.39948125015,
      "d": 1222.6990708333324,
      "v": 79
    },
    {
      "midi": 62,
      "hit": false,
      "t": 121034.27700000031,
      "d": 170.976720833336,
      "v": 1
    },
    {
      "midi": 59,
      "hit": false,
      "t": 121206.69050000032,
      "d": 688.2172208333359,
      "v": 1
    },
    {
      "midi": 62,
      "hit": false,
      "t": 121360.42587083347,
      "d": 1375.7160520833277,
      "v": 79
    },
    {
      "midi": 57,
      "hit": false,
      "t": 121360.42587083347,
      "d": 1395.1125708333275,
      "v": 68
    },
    {
      "midi": 59,
      "hit": false,
      "t": 121361.1442604168,
      "d": 1390.8022333333356,
      "v": 78
    },
    {
      "midi": 54,
      "hit": false,
      "t": 121366.89137708346,
      "d": 1389.365454166662,
      "v": 77
    },
    {
      "midi": 57,
      "hit": false,
      "t": 121896.34450000033,
      "d": 170.976720833336,
      "v": 1
    },
    {
      "midi": 59,
      "hit": false,
      "t": 122068.75800000034,
      "d": 170.976720833336,
      "v": 1
    },
    {
      "midi": 57,
      "hit": false,
      "t": 122241.17150000035,
      "d": 170.976720833336,
      "v": 1
    },
    {
      "midi": 59,
      "hit": false,
      "t": 122413.58500000036,
      "d": 860.630720833331,
      "v": 1
    },
    {
      "midi": 59,
      "hit": false,
      "t": 122766.3142854168,
      "d": 2465.513049999994,
      "v": 81
    },
    {
      "midi": 62,
      "hit": false,
      "t": 122768.4694541668,
      "d": 2462.6394916666613,
      "v": 79
    },
    {
      "midi": 64,
      "hit": false,
      "t": 122769.18784375013,
      "d": 2443.2429729166615,
      "v": 78
    },
    {
      "midi": 55,
      "hit": false,
      "t": 122769.90623333346,
      "d": 2452.582037500004,
      "v": 79
    },
    {
      "midi": 57,
      "hit": false,
      "t": 123275.65250000036,
      "d": 170.976720833336,
      "v": 1
    },
    {
      "midi": 59,
      "hit": false,
      "t": 123448.06600000037,
      "d": 170.976720833336,
      "v": 1
    },
    {
      "midi": 57,
      "hit": false,
      "t": 123620.47950000038,
      "d": 170.976720833336,
      "v": 1
    },
    {
      "midi": 59,
      "hit": false,
      "t": 123792.89300000039,
      "d": 1205.4577208333358,
      "v": 1
    },
    {
      "midi": 54,
      "hit": false,
      "t": 124999.7875000004,
      "d": 1722.6982208333357,
      "v": 1
    },
    {
      "midi": 62,
      "hit": false,
      "t": 126723.92250000041,
      "d": 1033.044220833326,
      "v": 1
    },
    {
      "midi": 61,
      "hit": false,
      "t": 127758.40350000041,
      "d": 170.976720833336,
      "v": 1
    },
    {
      "midi": 59,
      "hit": false,
      "t": 127930.81700000042,
      "d": 2584.7657208333403,
      "v": 1
    },
    {
      "midi": 59,
      "hit": false,
      "t": 128283.54628541679,
      "d": 2465.513049999994,
      "v": 81
    },
    {
      "midi": 62,
      "hit": false,
      "t": 128285.70145416679,
      "d": 2462.6394916666613,
      "v": 79
    },
    {
      "midi": 64,
      "hit": false,
      "t": 128286.41984375012,
      "d": 2443.2429729166615,
      "v": 78
    },
    {
      "midi": 55,
      "hit": false,
      "t": 128287.13823333345,
      "d": 2452.582037500004,
      "v": 79
    },
    {
      "midi": 54,
      "hit": false,
      "t": 130517.01950000043,
      "d": 515.8037208333262,
      "v": 1
    },
    {
      "midi": 71,
      "hit": false,
      "t": 132073.76972708345,
      "d": 193.24679791668314,
      "v": 65
    },
    {
      "midi": 69,
      "hit": false,
      "t": 132167.87876250013,
      "d": 126.43656666667084,
      "v": 64
    },
    {
      "midi": 67,
      "hit": false,
      "t": 132226.78670833347,
      "d": 130.02851458333316,
      "v": 69
    },
    {
      "midi": 65,
      "hit": false,
      "t": 132287.13143333347,
      "d": 139.36757916666102,
      "v": 68
    },
    {
      "midi": 64,
      "hit": false,
      "t": 132353.94166458346,
      "d": 136.4940208333428,
      "v": 65
    },
    {
      "midi": 62,
      "hit": false,
      "t": 132418.59672708347,
      "d": 143.67791666666744,
      "v": 67
    },
    {
      "midi": 60,
      "hit": false,
      "t": 132486.84373750014,
      "d": 149.42503333333298,
      "v": 67
    },
    {
      "midi": 59,
      "hit": false,
      "t": 132560.11947500013,
      "d": 148.70664374998887,
      "v": 64
    },
    {
      "midi": 57,
      "hit": false,
      "t": 132631.95843333346,
      "d": 146.55147499998566,
      "v": 64
    },
    {
      "midi": 55,
      "hit": false,
      "t": 132703.7973916668,
      "d": 141.52274791663513,
      "v": 66
    },
    {
      "midi": 53,
      "hit": false,
      "t": 132770.60762291678,
      "d": 142.95952708332334,
      "v": 67
    },
    {
      "midi": 52,
      "hit": false,
      "t": 132840.2914125001,
      "d": 141.52274791666423,
      "v": 68
    },
    {
      "midi": 50,
      "hit": false,
      "t": 132909.2568125001,
      "d": 146.55147500001476,
      "v": 67
    },
    {
      "midi": 48,
      "hit": false,
      "t": 132979.65899166677,
      "d": 150.14342291667708,
      "v": 67
    },
    {
      "midi": 47,
      "hit": false,
      "t": 133052.93472916677,
      "d": 153.7353708333685,
      "v": 66
    },
    {
      "midi": 45,
      "hit": false,
      "t": 133131.95758333345,
      "d": 148.70664375001797,
      "v": 66
    },
    {
      "midi": 43,
      "hit": false,
      "t": 133208.1068791668,
      "d": 148.70664375001797,
      "v": 68
    },
    {
      "midi": 41,
      "hit": false,
      "t": 133282.81939583347,
      "d": 151.5802020833653,
      "v": 67
    },
    {
      "midi": 40,
      "hit": false,
      "t": 133359.68708125016,
      "d": 155.89053958334262,
      "v": 67
    },
    {
      "midi": 38,
      "hit": false,
      "t": 133438.70993541685,
      "d": 158.04570833331672,
      "v": 67
    },
    {
      "midi": 36,
      "hit": false,
      "t": 133519.8879583335,
      "d": 168.8215520833328,
      "v": 65
    },
    {
      "midi": 35,
      "hit": false,
      "t": 133611.12343541684,
      "d": 64.65506250000908,
      "v": 82
    },
    {
      "midi": 71,
      "hit": false,
      "t": 133792.87600000016,
      "d": 3802.436064583395,
      "v": 82
    },
    {
      "midi": 83,
      "hit": false,
      "t": 133796.46794791683,
      "d": 3802.436064583395,
      "v": 112
    },
    {
      "midi": 95,
      "hit": false,
      "t": 133803.65184375015,
      "d": 3803.154454166739,
      "v": 112
    },
    {
      "midi": 54,
      "hit": false,
      "t": 134127.64554583348,
      "d": 128.59173541664495,
      "v": 69
    },
    {
      "midi": 50,
      "hit": false,
      "t": 134129.08232500014,
      "d": 107.75843749998603,
      "v": 68
    },
    {
      "midi": 47,
      "hit": false,
      "t": 134130.5191041668,
      "d": 106.32165833332692,
      "v": 70
    },
    {
      "midi": 47,
      "hit": false,
      "t": 134825.92022083345,
      "d": 109.91360625001835,
      "v": 68
    },
    {
      "midi": 54,
      "hit": false,
      "t": 134825.92022083345,
      "d": 126.43656666667084,
      "v": 66
    },
    {
      "midi": 50,
      "hit": false,
      "t": 134826.6386104168,
      "d": 106.32165833332692,
      "v": 68
    },
    {
      "midi": 54,
      "hit": false,
      "t": 135511.9822729168,
      "d": 119.2526708333753,
      "v": 66
    },
    {
      "midi": 50,
      "hit": false,
      "t": 135512.70066250014,
      "d": 114.22394375002477,
      "v": 68
    },
    {
      "midi": 47,
      "hit": false,
      "t": 135513.41905208348,
      "d": 118.5342812500312,
      "v": 70
    },
    {
      "midi": 54,
      "hit": false,
      "t": 136196.6075458335,
      "d": 125.71817708332674,
      "v": 65
    },
    {
      "midi": 50,
      "hit": false,
      "t": 136198.7627145835,
      "d": 117.81589166665799,
      "v": 64
    },
    {
      "midi": 47,
      "hit": false,
      "t": 136200.91788333352,
      "d": 116.37911249999888,
      "v": 64
    },
    {
      "midi": 54,
      "hit": false,
      "t": 136884.10637708352,
      "d": 121.40783958334941,
      "v": 66
    },
    {
      "midi": 50,
      "hit": false,
      "t": 136884.82476666686,
      "d": 86.92513958335621,
      "v": 66
    },
    {
      "midi": 47,
      "hit": false,
      "t": 136885.5431562502,
      "d": 109.19521666667424,
      "v": 66
    },
    {
      "midi": 50,
      "hit": false,
      "t": 137573.0419875002,
      "d": 104.16648958335281,
      "v": 64
    },
    {
      "midi": 54,
      "hit": false,
      "t": 137573.0419875002,
      "d": 108.47682708335924,
      "v": 63
    },
    {
      "midi": 47,
      "hit": false,
      "t": 137573.76037708356,
      "d": 106.32165833335603,
      "v": 66
    },
    {
      "midi": 54,
      "hit": false,
      "t": 138257.6672604169,
      "d": 115.66072291668388,
      "v": 64
    },
    {
      "midi": 50,
      "hit": false,
      "t": 138257.6672604169,
      "d": 119.2526708333462,
      "v": 65
    },
    {
      "midi": 47,
      "hit": false,
      "t": 138259.10403958356,
      "d": 111.35038541667745,
      "v": 68
    },
    {
      "midi": 66,
      "hit": false,
      "t": 138618.29883125026,
      "d": 560.3438749999914,
      "v": 81
    },
    {
      "midi": 78,
      "hit": false,
      "t": 138621.89077916692,
      "d": 561.0622645833355,
      "v": 111
    },
    {
      "midi": 90,
      "hit": false,
      "t": 138624.76433750027,
      "d": 560.3438749999914,
      "v": 111
    },
    {
      "midi": 54,
      "hit": false,
      "t": 138950.9132083336,
      "d": 120.6894499999762,
      "v": 71
    },
    {
      "midi": 50,
      "hit": false,
      "t": 138950.9132083336,
      "d": 122.12622916663531,
      "v": 69
    },
    {
      "midi": 47,
      "hit": false,
      "t": 138952.34998750026,
      "d": 112.06877499999246,
      "v": 67
    },
    {
      "midi": 68,
      "hit": false,
      "t": 139147.03356458357,
      "d": 112.78716458336567,
      "v": 61
    },
    {
      "midi": 80,
      "hit": false,
      "t": 139150.62551250024,
      "d": 112.78716458336567,
      "v": 91
    },
    {
      "midi": 92,
      "hit": false,
      "t": 139187.9817708336,
      "d": 112.78716458333656,
      "v": 91
    },
    {
      "midi": 94,
      "hit": false,
      "t": 139251.91844375027,
      "d": 100.5745416666905,
      "v": 105
    },
    {
      "midi": 70,
      "hit": false,
      "t": 139292.14826041693,
      "d": 100.5745416666905,
      "v": 75
    },
    {
      "midi": 82,
      "hit": false,
      "t": 139296.45859791694,
      "d": 100.5745416666905,
      "v": 105
    },
    {
      "midi": 71,
      "hit": false,
      "t": 139306.5160520836,
      "d": 3454.0171166667133,
      "v": 61
    },
    {
      "midi": 95,
      "hit": false,
      "t": 139308.6712208336,
      "d": 3454.0171166667133,
      "v": 91
    },
    {
      "midi": 83,
      "hit": false,
      "t": 139310.8263895836,
      "d": 3453.298727083369,
      "v": 91
    },
    {
      "midi": 54,
      "hit": false,
      "t": 139644.87754583362,
      "d": 128.59173541664495,
      "v": 69
    },
    {
      "midi": 50,
      "hit": false,
      "t": 139646.31432500028,
      "d": 107.75843749998603,
      "v": 68
    },
    {
      "midi": 47,
      "hit": false,
      "t": 139647.75110416693,
      "d": 106.32165833332692,
      "v": 70
    },
    {
      "midi": 47,
      "hit": false,
      "t": 140343.15222083358,
      "d": 109.91360625001835,
      "v": 68
    },
    {
      "midi": 54,
      "hit": false,
      "t": 140343.15222083358,
      "d": 126.43656666667084,
      "v": 66
    },
    {
      "midi": 50,
      "hit": false,
      "t": 140343.87061041693,
      "d": 106.32165833332692,
      "v": 68
    },
    {
      "midi": 54,
      "hit": false,
      "t": 141029.21427291693,
      "d": 119.2526708333753,
      "v": 66
    },
    {
      "midi": 50,
      "hit": false,
      "t": 141029.93266250027,
      "d": 114.22394375002477,
      "v": 68
    },
    {
      "midi": 47,
      "hit": false,
      "t": 141030.65105208362,
      "d": 118.5342812500312,
      "v": 70
    },
    {
      "midi": 54,
      "hit": false,
      "t": 141713.83954583365,
      "d": 125.71817708332674,
      "v": 65
    },
    {
      "midi": 50,
      "hit": false,
      "t": 141715.99471458365,
      "d": 117.81589166665799,
      "v": 64
    },
    {
      "midi": 47,
      "hit": false,
      "t": 141718.14988333365,
      "d": 116.37911249999888,
      "v": 64
    },
    {
      "midi": 54,
      "hit": false,
      "t": 142401.33837708365,
      "d": 121.40783958334941,
      "v": 66
    },
    {
      "midi": 50,
      "hit": false,
      "t": 142402.056766667,
      "d": 86.92513958335621,
      "v": 66
    },
    {
      "midi": 47,
      "hit": false,
      "t": 142402.77515625034,
      "d": 109.19521666667424,
      "v": 66
    },
    {
      "midi": 50,
      "hit": false,
      "t": 143090.27398750032,
      "d": 104.16648958335281,
      "v": 64
    },
    {
      "midi": 54,
      "hit": false,
      "t": 143090.27398750032,
      "d": 108.47682708335924,
      "v": 63
    },
    {
      "midi": 47,
      "hit": false,
      "t": 143090.99237708366,
      "d": 106.32165833335603,
      "v": 66
    },
    {
      "midi": 54,
      "hit": false,
      "t": 143774.899260417,
      "d": 115.66072291668388,
      "v": 64
    },
    {
      "midi": 50,
      "hit": false,
      "t": 143774.899260417,
      "d": 119.2526708333462,
      "v": 65
    },
    {
      "midi": 47,
      "hit": false,
      "t": 143776.33603958366,
      "d": 111.35038541667745,
      "v": 68
    },
    {
      "midi": 54,
      "hit": false,
      "t": 144468.14520833368,
      "d": 120.68945000000531,
      "v": 71
    },
    {
      "midi": 50,
      "hit": false,
      "t": 144468.14520833368,
      "d": 122.12622916666442,
      "v": 69
    },
    {
      "midi": 47,
      "hit": false,
      "t": 144469.58198750034,
      "d": 112.06877500002156,
      "v": 67
    },
    {
      "midi": 95,
      "hit": false,
      "t": 144472.45554583368,
      "d": 251.43635416665347,
      "v": 97
    },
    {
      "midi": 71,
      "hit": false,
      "t": 144476.7658833337,
      "d": 251.43635416665347,
      "v": 67
    },
    {
      "midi": 66,
      "hit": false,
      "t": 144478.9210520837,
      "d": 261.49380833332543,
      "v": 71
    },
    {
      "midi": 90,
      "hit": false,
      "t": 144478.9210520837,
      "d": 262.21219791666954,
      "v": 101
    },
    {
      "midi": 83,
      "hit": false,
      "t": 144480.35783125035,
      "d": 252.15474374999758,
      "v": 97
    },
    {
      "midi": 78,
      "hit": false,
      "t": 144482.51300000036,
      "d": 261.49380833335454,
      "v": 101
    },
    {
      "midi": 78,
      "hit": false,
      "t": 144824.46644166706,
      "d": 1078.3027645832917,
      "v": 76
    },
    {
      "midi": 74,
      "hit": false,
      "t": 144826.62161041706,
      "d": 1067.5269208333048,
      "v": 73
    },
    {
      "midi": 90,
      "hit": false,
      "t": 144828.05838958372,
      "d": 1079.0211541666358,
      "v": 106
    },
    {
      "midi": 102,
      "hit": false,
      "t": 144828.05838958372,
      "d": 1079.0211541666358,
      "v": 106
    },
    {
      "midi": 86,
      "hit": false,
      "t": 144830.21355833372,
      "d": 1067.5269208333048,
      "v": 103
    },
    {
      "midi": 98,
      "hit": false,
      "t": 144835.9606750004,
      "d": 1067.5269208333048,
      "v": 103
    },
    {
      "midi": 54,
      "hit": false,
      "t": 145162.10954583372,
      "d": 128.59173541664495,
      "v": 69
    },
    {
      "midi": 50,
      "hit": false,
      "t": 145163.54632500038,
      "d": 107.75843749998603,
      "v": 68
    },
    {
      "midi": 47,
      "hit": false,
      "t": 145164.98310416704,
      "d": 106.32165833332692,
      "v": 70
    },
    {
      "midi": 47,
      "hit": false,
      "t": 145860.3842208337,
      "d": 109.91360625001835,
      "v": 68
    },
    {
      "midi": 54,
      "hit": false,
      "t": 145860.3842208337,
      "d": 126.43656666667084,
      "v": 66
    },
    {
      "midi": 50,
      "hit": false,
      "t": 145861.10261041703,
      "d": 106.32165833332692,
      "v": 68
    },
    {
      "midi": 54,
      "hit": false,
      "t": 146546.44627291703,
      "d": 119.2526708333753,
      "v": 66
    },
    {
      "midi": 50,
      "hit": false,
      "t": 146547.16466250038,
      "d": 114.22394375002477,
      "v": 68
    },
    {
      "midi": 47,
      "hit": false,
      "t": 146547.88305208372,
      "d": 118.5342812500312,
      "v": 70
    },
    {
      "midi": 54,
      "hit": false,
      "t": 147231.07154583375,
      "d": 125.71817708332674,
      "v": 65
    },
    {
      "midi": 50,
      "hit": false,
      "t": 147233.22671458375,
      "d": 117.81589166665799,
      "v": 64
    },
    {
      "midi": 47,
      "hit": false,
      "t": 147235.38188333376,
      "d": 116.37911249999888,
      "v": 64
    },
    {
      "midi": 54,
      "hit": false,
      "t": 147918.57037708376,
      "d": 121.40783958334941,
      "v": 66
    },
    {
      "midi": 50,
      "hit": false,
      "t": 147919.2887666671,
      "d": 86.92513958335621,
      "v": 66
    },
    {
      "midi": 47,
      "hit": false,
      "t": 147920.00715625045,
      "d": 109.19521666667424,
      "v": 66
    },
    {
      "midi": 50,
      "hit": false,
      "t": 148607.50598750045,
      "d": 104.16648958335281,
      "v": 64
    },
    {
      "midi": 54,
      "hit": false,
      "t": 148607.50598750045,
      "d": 108.47682708335924,
      "v": 63
    },
    {
      "midi": 47,
      "hit": false,
      "t": 148608.2243770838,
      "d": 106.32165833335603,
      "v": 66
    },
    {
      "midi": 54,
      "hit": false,
      "t": 149292.13126041714,
      "d": 115.66072291668388,
      "v": 64
    },
    {
      "midi": 50,
      "hit": false,
      "t": 149292.13126041714,
      "d": 119.2526708333462,
      "v": 65
    },
    {
      "midi": 47,
      "hit": false,
      "t": 149293.5680395838,
      "d": 111.35038541667745,
      "v": 68
    },
    {
      "midi": 95,
      "hit": false,
      "t": 149618.99852083382,
      "d": 212.64331666668295,
      "v": 113
    },
    {
      "midi": 69,
      "hit": false,
      "t": 149837.38895416717,
      "d": 202.585862500011,
      "v": 79
    },
    {
      "midi": 81,
      "hit": false,
      "t": 149840.98090208383,
      "d": 202.585862500011,
      "v": 109
    },
    {
      "midi": 71,
      "hit": false,
      "t": 149843.13607083383,
      "d": 12.212622916675173,
      "v": 55
    },
    {
      "midi": 83,
      "hit": false,
      "t": 149847.44640833384,
      "d": 11.494233333331067,
      "v": 85
    },
    {
      "midi": 93,
      "hit": false,
      "t": 149880.49232916717,
      "d": 202.585862500011,
      "v": 109
    },
    {
      "midi": 95,
      "hit": false,
      "t": 149904.19918541718,
      "d": 45.25854375000927,
      "v": 85
    },
    {
      "midi": 54,
      "hit": false,
      "t": 149985.37720833384,
      "d": 120.68945000000531,
      "v": 71
    },
    {
      "midi": 50,
      "hit": false,
      "t": 149985.37720833384,
      "d": 122.12622916666442,
      "v": 69
    },
    {
      "midi": 47,
      "hit": false,
      "t": 149986.8139875005,
      "d": 112.06877500002156,
      "v": 67
    },
    {
      "midi": 91,
      "hit": false,
      "t": 150128.33673541716,
      "d": 176.72383750000154,
      "v": 107
    },
    {
      "midi": 67,
      "hit": false,
      "t": 150157.79070833384,
      "d": 176.72383750000154,
      "v": 77
    },
    {
      "midi": 79,
      "hit": false,
      "t": 150162.10104583384,
      "d": 176.00544791665743,
      "v": 107
    },
    {
      "midi": 66,
      "hit": false,
      "t": 150351.75589583383,
      "d": 2073.272337500035,
      "v": 81
    },
    {
      "midi": 78,
      "hit": false,
      "t": 150355.3478437505,
      "d": 2073.272337500035,
      "v": 111
    },
    {
      "midi": 90,
      "hit": false,
      "t": 150385.52020625048,
      "d": 2073.272337500035,
      "v": 111
    },
    {
      "midi": 54,
      "hit": false,
      "t": 150679.34154583383,
      "d": 128.59173541664495,
      "v": 69
    },
    {
      "midi": 50,
      "hit": false,
      "t": 150680.7783250005,
      "d": 107.75843749998603,
      "v": 68
    },
    {
      "midi": 47,
      "hit": false,
      "t": 150682.21510416715,
      "d": 106.32165833332692,
      "v": 70
    },
    {
      "midi": 47,
      "hit": false,
      "t": 151377.6162208338,
      "d": 109.91360625001835,
      "v": 68
    },
    {
      "midi": 54,
      "hit": false,
      "t": 151377.6162208338,
      "d": 126.43656666667084,
      "v": 66
    },
    {
      "midi": 50,
      "hit": false,
      "t": 151378.33461041714,
      "d": 106.32165833332692,
      "v": 68
    },
    {
      "midi": 54,
      "hit": false,
      "t": 152063.67827291714,
      "d": 119.2526708333753,
      "v": 66
    },
    {
      "midi": 50,
      "hit": false,
      "t": 152064.39666250048,
      "d": 114.22394375002477,
      "v": 68
    },
    {
      "midi": 47,
      "hit": false,
      "t": 152065.11505208383,
      "d": 118.5342812500312,
      "v": 70
    },
    {
      "midi": 54,
      "hit": false,
      "t": 152748.30354583386,
      "d": 125.71817708332674,
      "v": 65
    },
    {
      "midi": 50,
      "hit": false,
      "t": 152750.45871458386,
      "d": 117.81589166665799,
      "v": 64
    },
    {
      "midi": 47,
      "hit": false,
      "t": 152752.61388333386,
      "d": 116.37911249999888,
      "v": 64
    },
    {
      "midi": 54,
      "hit": false,
      "t": 153435.80237708386,
      "d": 121.40783958334941,
      "v": 66
    },
    {
      "midi": 50,
      "hit": false,
      "t": 153436.5207666672,
      "d": 86.92513958335621,
      "v": 66
    },
    {
      "midi": 47,
      "hit": false,
      "t": 153437.23915625055,
      "d": 109.19521666667424,
      "v": 66
    },
    {
      "midi": 50,
      "hit": false,
      "t": 154124.73798750056,
      "d": 104.16648958335281,
      "v": 64
    },
    {
      "midi": 54,
      "hit": false,
      "t": 154124.73798750056,
      "d": 108.47682708335924,
      "v": 63
    },
    {
      "midi": 47,
      "hit": false,
      "t": 154125.4563770839,
      "d": 106.32165833335603,
      "v": 66
    },
    {
      "midi": 54,
      "hit": false,
      "t": 154809.36326041725,
      "d": 115.66072291668388,
      "v": 64
    },
    {
      "midi": 50,
      "hit": false,
      "t": 154809.36326041725,
      "d": 119.2526708333462,
      "v": 65
    },
    {
      "midi": 47,
      "hit": false,
      "t": 154810.8000395839,
      "d": 111.35038541667745,
      "v": 68
    },
    {
      "midi": 54,
      "hit": false,
      "t": 155502.60920833392,
      "d": 120.6894499999762,
      "v": 71
    },
    {
      "midi": 50,
      "hit": false,
      "t": 155502.60920833392,
      "d": 122.12622916663531,
      "v": 69
    },
    {
      "midi": 47,
      "hit": false,
      "t": 155504.04598750058,
      "d": 112.06877499999246,
      "v": 67
    },
    {
      "midi": 66,
      "hit": false,
      "t": 155861.80400000056,
      "d": 1272.267952083319,
      "v": 81
    },
    {
      "midi": 55,
      "hit": false,
      "t": 155861.80400000056,
      "d": 1301.0035354166466,
      "v": 82
    },
    {
      "midi": 59,
      "hit": false,
      "t": 155861.80400000056,
      "d": 1301.0035354166466,
      "v": 87
    },
    {
      "midi": 62,
      "hit": false,
      "t": 155861.80400000056,
      "d": 1321.1184437499905,
      "v": 80
    },
    {
      "midi": 59,
      "hit": false,
      "t": 156379.04450000043,
      "d": 170.976720833336,
      "v": 1
    },
    {
      "midi": 62,
      "hit": false,
      "t": 156551.45800000042,
      "d": 343.3902208333311,
      "v": 1
    },
    {
      "midi": 59,
      "hit": false,
      "t": 156896.2850000004,
      "d": 170.976720833336,
      "v": 1
    },
    {
      "midi": 61,
      "hit": false,
      "t": 157068.6985000004,
      "d": 1550.284720833326,
      "v": 1
    },
    {
      "midi": 59,
      "hit": false,
      "t": 157236.80166250054,
      "d": 1244.2507583333354,
      "v": 84
    },
    {
      "midi": 62,
      "hit": false,
      "t": 157236.80166250054,
      "d": 1272.986341666663,
      "v": 80
    },
    {
      "midi": 64,
      "hit": false,
      "t": 157238.95683125054,
      "d": 1212.6416166666604,
      "v": 82
    },
    {
      "midi": 55,
      "hit": false,
      "t": 157241.11200000055,
      "d": 1258.6185499999847,
      "v": 85
    },
    {
      "midi": 62,
      "hit": false,
      "t": 158613.95449375053,
      "d": 1270.112783333374,
      "v": 81
    },
    {
      "midi": 59,
      "hit": false,
      "t": 158614.67288333387,
      "d": 1239.940420833358,
      "v": 83
    },
    {
      "midi": 55,
      "hit": false,
      "t": 158618.98322083388,
      "d": 1229.164577083342,
      "v": 77
    },
    {
      "midi": 62,
      "hit": false,
      "t": 158620.4200000004,
      "d": 860.6307208333455,
      "v": 1
    },
    {
      "midi": 66,
      "hit": false,
      "t": 158621.13838958388,
      "d": 1189.6531499999983,
      "v": 79
    },
    {
      "midi": 64,
      "hit": false,
      "t": 159482.4875000004,
      "d": 515.8037208333262,
      "v": 1
    },
    {
      "midi": 59,
      "hit": false,
      "t": 159978.17631250058,
      "d": 1106.3199583333335,
      "v": 81
    },
    {
      "midi": 64,
      "hit": false,
      "t": 159979.61309166724,
      "d": 1174.566968750005,
      "v": 79
    },
    {
      "midi": 55,
      "hit": false,
      "t": 159979.61309166724,
      "d": 1176.722137500008,
      "v": 81
    },
    {
      "midi": 62,
      "hit": false,
      "t": 159987.5153770839,
      "d": 1052.4407395833405,
      "v": 78
    },
    {
      "midi": 61,
      "hit": false,
      "t": 159999.72800000038,
      "d": 515.8037208333262,
      "v": 1
    },
    {
      "midi": 57,
      "hit": false,
      "t": 160516.96850000037,
      "d": 170.976720833336,
      "v": 1
    },
    {
      "midi": 61,
      "hit": false,
      "t": 160689.38200000036,
      "d": 1722.698220833321,
      "v": 1
    },
    {
      "midi": 64,
      "hit": false,
      "t": 161364.66820833393,
      "d": 1206.1761104166799,
      "v": 81
    },
    {
      "midi": 57,
      "hit": false,
      "t": 161364.66820833393,
      "d": 2596.259954166657,
      "v": 78
    },
    {
      "midi": 54,
      "hit": false,
      "t": 161365.38659791727,
      "d": 1281.6070166666468,
      "v": 80
    },
    {
      "midi": 61,
      "hit": false,
      "t": 161368.97854583393,
      "d": 1228.446187499998,
      "v": 81
    },
    {
      "midi": 57,
      "hit": false,
      "t": 162413.51700000034,
      "d": 170.976720833336,
      "v": 1
    },
    {
      "midi": 59,
      "hit": false,
      "t": 162585.93050000034,
      "d": 1550.284720833326,
      "v": 1
    },
    {
      "midi": 62,
      "hit": false,
      "t": 162737.5107020839,
      "d": 1148.7049437499954,
      "v": 79
    },
    {
      "midi": 59,
      "hit": false,
      "t": 162740.38426041725,
      "d": 1076.8659854166617,
      "v": 78
    },
    {
      "midi": 54,
      "hit": false,
      "t": 162747.56815625058,
      "d": 1239.940420833329,
      "v": 75
    },
    {
      "midi": 61,
      "hit": false,
      "t": 164114.6635333339,
      "d": 1238.503641666699,
      "v": 77
    },
    {
      "midi": 54,
      "hit": false,
      "t": 164117.53709166724,
      "d": 1219.8255125000142,
      "v": 81
    },
    {
      "midi": 57,
      "hit": false,
      "t": 164117.53709166724,
      "d": 1338.3597937500163,
      "v": 79
    },
    {
      "midi": 64,
      "hit": false,
      "t": 164118.25548125058,
      "d": 1222.6990708333324,
      "v": 79
    },
    {
      "midi": 61,
      "hit": false,
      "t": 164137.65200000032,
      "d": 860.6307208333455,
      "v": 1
    },
    {
      "midi": 62,
      "hit": false,
      "t": 164999.71950000033,
      "d": 343.3902208333311,
      "v": 1
    },
    {
      "midi": 59,
      "hit": false,
      "t": 165344.54650000032,
      "d": 1550.284720833326,
      "v": 1
    },
    {
      "midi": 62,
      "hit": false,
      "t": 165498.28187083392,
      "d": 1375.7160520833568,
      "v": 79
    },
    {
      "midi": 57,
      "hit": false,
      "t": 165498.28187083392,
      "d": 1395.1125708333566,
      "v": 68
    },
    {
      "midi": 59,
      "hit": false,
      "t": 165499.00026041726,
      "d": 1390.8022333333502,
      "v": 78
    },
    {
      "midi": 54,
      "hit": false,
      "t": 165504.74737708393,
      "d": 1389.365454166691,
      "v": 77
    },
    {
      "midi": 62,
      "hit": false,
      "t": 166896.2680000003,
      "d": 1033.0442208333407,
      "v": 1
    },
    {
      "midi": 66,
      "hit": false,
      "t": 166896.26800000062,
      "d": 1272.267952083319,
      "v": 81
    },
    {
      "midi": 55,
      "hit": false,
      "t": 166896.26800000062,
      "d": 1301.0035354166466,
      "v": 82
    },
    {
      "midi": 59,
      "hit": false,
      "t": 166896.26800000062,
      "d": 1301.0035354166466,
      "v": 87
    },
    {
      "midi": 62,
      "hit": false,
      "t": 166896.26800000062,
      "d": 1321.1184437499905,
      "v": 80
    },
    {
      "midi": 59,
      "hit": false,
      "t": 167930.7490000003,
      "d": 170.976720833336,
      "v": 1
    },
    {
      "midi": 61,
      "hit": false,
      "t": 168103.1625000003,
      "d": 1033.0442208333407,
      "v": 1
    },
    {
      "midi": 59,
      "hit": false,
      "t": 168271.2656625006,
      "d": 1244.2507583333354,
      "v": 84
    },
    {
      "midi": 62,
      "hit": false,
      "t": 168271.2656625006,
      "d": 1272.986341666663,
      "v": 80
    },
    {
      "midi": 64,
      "hit": false,
      "t": 168273.4208312506,
      "d": 1212.6416166666604,
      "v": 82
    },
    {
      "midi": 55,
      "hit": false,
      "t": 168275.5760000006,
      "d": 1258.6185499999847,
      "v": 85
    },
    {
      "midi": 59,
      "hit": false,
      "t": 169137.6435000003,
      "d": 515.8037208333262,
      "v": 1
    },
    {
      "midi": 62,
      "hit": false,
      "t": 169648.4184937506,
      "d": 1270.112783333374,
      "v": 81
    },
    {
      "midi": 59,
      "hit": false,
      "t": 169649.13688333394,
      "d": 1239.940420833358,
      "v": 83
    },
    {
      "midi": 55,
      "hit": false,
      "t": 169653.44722083394,
      "d": 1229.164577083342,
      "v": 77
    },
    {
      "midi": 62,
      "hit": false,
      "t": 169654.88400000028,
      "d": 860.6307208333455,
      "v": 1
    },
    {
      "midi": 66,
      "hit": false,
      "t": 169655.60238958395,
      "d": 1189.6531499999983,
      "v": 79
    },
    {
      "midi": 64,
      "hit": false,
      "t": 170516.9515000003,
      "d": 343.3902208333311,
      "v": 1
    },
    {
      "midi": 61,
      "hit": false,
      "t": 170861.77850000028,
      "d": 688.2172208333213,
      "v": 1
    },
    {
      "midi": 59,
      "hit": false,
      "t": 171012.64031250065,
      "d": 1106.3199583333335,
      "v": 81
    },
    {
      "midi": 64,
      "hit": false,
      "t": 171014.0770916673,
      "d": 1174.566968750005,
      "v": 79
    },
    {
      "midi": 55,
      "hit": false,
      "t": 171014.0770916673,
      "d": 1176.722137500008,
      "v": 81
    },
    {
      "midi": 62,
      "hit": false,
      "t": 171021.97937708398,
      "d": 1052.4407395833405,
      "v": 78
    },
    {
      "midi": 57,
      "hit": false,
      "t": 171551.43250000026,
      "d": 170.976720833336,
      "v": 1
    },
    {
      "midi": 61,
      "hit": false,
      "t": 171723.84600000025,
      "d": 1722.698220833321,
      "v": 1
    },
    {
      "midi": 64,
      "hit": false,
      "t": 172399.132208334,
      "d": 1206.1761104166799,
      "v": 81
    },
    {
      "midi": 57,
      "hit": false,
      "t": 172399.132208334,
      "d": 2596.259954166657,
      "v": 78
    },
    {
      "midi": 54,
      "hit": false,
      "t": 172399.85059791734,
      "d": 1281.6070166666468,
      "v": 80
    },
    {
      "midi": 61,
      "hit": false,
      "t": 172403.442545834,
      "d": 1228.446187499998,
      "v": 81
    },
    {
      "midi": 57,
      "hit": false,
      "t": 173447.98100000023,
      "d": 170.976720833336,
      "v": 1
    },
    {
      "midi": 59,
      "hit": false,
      "t": 173620.39450000023,
      "d": 1205.4577208333358,
      "v": 1
    },
    {
      "midi": 62,
      "hit": false,
      "t": 173771.97470208397,
      "d": 1148.7049437499954,
      "v": 79
    },
    {
      "midi": 59,
      "hit": false,
      "t": 173774.84826041732,
      "d": 1076.8659854166617,
      "v": 78
    },
    {
      "midi": 54,
      "hit": false,
      "t": 173782.03215625064,
      "d": 1239.940420833329,
      "v": 75
    },
    {
      "midi": 57,
      "hit": false,
      "t": 174827.28900000022,
      "d": 170.976720833336,
      "v": 1
    },
    {
      "midi": 61,
      "hit": false,
      "t": 174999.70250000022,
      "d": 1205.4577208333358,
      "v": 1
    },
    {
      "midi": 61,
      "hit": false,
      "t": 175149.12753333396,
      "d": 1238.503641666699,
      "v": 77
    },
    {
      "midi": 54,
      "hit": false,
      "t": 175152.0010916673,
      "d": 1219.8255125000142,
      "v": 81
    },
    {
      "midi": 57,
      "hit": false,
      "t": 175152.0010916673,
      "d": 1338.3597937500163,
      "v": 79
    },
    {
      "midi": 64,
      "hit": false,
      "t": 175152.71948125065,
      "d": 1222.6990708333324,
      "v": 79
    },
    {
      "midi": 62,
      "hit": false,
      "t": 176206.5970000002,
      "d": 170.976720833336,
      "v": 1
    },
    {
      "midi": 59,
      "hit": false,
      "t": 176379.0105000002,
      "d": 688.2172208333213,
      "v": 1
    },
    {
      "midi": 62,
      "hit": false,
      "t": 176532.74587083398,
      "d": 1375.7160520833568,
      "v": 79
    },
    {
      "midi": 57,
      "hit": false,
      "t": 176532.74587083398,
      "d": 1395.1125708333566,
      "v": 68
    },
    {
      "midi": 59,
      "hit": false,
      "t": 176533.46426041733,
      "d": 1390.8022333333502,
      "v": 78
    },
    {
      "midi": 54,
      "hit": false,
      "t": 176539.211377084,
      "d": 1389.365454166691,
      "v": 77
    },
    {
      "midi": 57,
      "hit": false,
      "t": 177068.6645000002,
      "d": 170.976720833336,
      "v": 1
    },
    {
      "midi": 59,
      "hit": false,
      "t": 177241.07800000018,
      "d": 170.976720833336,
      "v": 1
    },
    {
      "midi": 57,
      "hit": false,
      "t": 177413.49150000018,
      "d": 170.976720833336,
      "v": 1
    },
    {
      "midi": 59,
      "hit": false,
      "t": 177585.90500000017,
      "d": 860.6307208333455,
      "v": 1
    },
    {
      "midi": 57,
      "hit": false,
      "t": 178447.97250000018,
      "d": 170.976720833336,
      "v": 1
    },
    {
      "midi": 59,
      "hit": false,
      "t": 178620.38600000017,
      "d": 170.976720833336,
      "v": 1
    },
    {
      "midi": 71,
      "hit": false,
      "t": 178790.6443312507,
      "d": 305.3155729166465,
      "v": 111
    },
    {
      "midi": 57,
      "hit": false,
      "t": 178792.79950000017,
      "d": 170.976720833336,
      "v": 1
    },
    {
      "midi": 67,
      "hit": false,
      "t": 178794.23627916735,
      "d": 296.69489791666274,
      "v": 110
    },
    {
      "midi": 64,
      "hit": false,
      "t": 178799.26500625067,
      "d": 297.41328750000685,
      "v": 107
    },
    {
      "midi": 59,
      "hit": false,
      "t": 178965.21300000016,
      "d": 1205.4577208333358,
      "v": 1
    },
    {
      "midi": 67,
      "hit": false,
      "t": 179163.4885250007,
      "d": 1174.5669687499758,
      "v": 101
    },
    {
      "midi": 74,
      "hit": false,
      "t": 179167.7988625007,
      "d": 1140.0842687499826,
      "v": 106
    },
    {
      "midi": 71,
      "hit": false,
      "t": 179169.23564166736,
      "d": 1161.6359562499856,
      "v": 113
    },
    {
      "midi": 54,
      "hit": false,
      "t": 180172.10750000016,
      "d": 1895.1117208333453,
      "v": 1
    },
    {
      "midi": 78,
      "hit": false,
      "t": 181072.24964791734,
      "d": 1119.2509708333237,
      "v": 119
    },
    {
      "midi": 79,
      "hit": false,
      "t": 182268.36830416732,
      "d": 257.183470833319,
      "v": 113
    },
    {
      "midi": 81,
      "hit": false,
      "t": 182585.89650000064,
      "d": 240.6605104166665,
      "v": 113
    },
    {
      "midi": 83,
      "hit": false,
      "t": 182885.46495625065,
      "d": 224.13755000001402,
      "v": 113
    },
    {
      "midi": 86,
      "hit": false,
      "t": 183169.22884166733,
      "d": 276.5799895833188,
      "v": 113
    },
    {
      "midi": 59,
      "hit": false,
      "t": 183792.79100000017,
      "d": 343.3902208333311,
      "v": 1
    },
    {
      "midi": 62,
      "hit": false,
      "t": 184137.61800000016,
      "d": 343.3902208333311,
      "v": 1
    },
    {
      "midi": 81,
      "hit": false,
      "t": 184151.267402084,
      "d": 608.475977083348,
      "v": 110
    },
    {
      "midi": 78,
      "hit": false,
      "t": 184154.14096041734,
      "d": 559.6254854166764,
      "v": 119
    },
    {
      "midi": 59,
      "hit": false,
      "t": 184482.44500000015,
      "d": 170.976720833336,
      "v": 1
    },
    {
      "midi": 61,
      "hit": false,
      "t": 184654.85850000015,
      "d": 1550.284720833326,
      "v": 1
    },
    {
      "midi": 79,
      "hit": false,
      "t": 184831.58233750067,
      "d": 1142.2394374999858,
      "v": 110
    },
    {
      "midi": 76,
      "hit": false,
      "t": 184835.17428541734,
      "d": 1145.1129958333331,
      "v": 103
    },
    {
      "midi": 62,
      "hit": false,
      "t": 186206.58000000013,
      "d": 860.6307208333455,
      "v": 1
    },
    {
      "midi": 64,
      "hit": false,
      "t": 187068.64750000014,
      "d": 343.3902208333311,
      "v": 1
    },
    {
      "midi": 61,
      "hit": false,
      "t": 187413.47450000013,
      "d": 688.2172208333213,
      "v": 1
    },
    {
      "midi": 57,
      "hit": false,
      "t": 188103.1285000001,
      "d": 170.976720833336,
      "v": 1
    },
    {
      "midi": 61,
      "hit": false,
      "t": 188275.5420000001,
      "d": 1722.698220833321,
      "v": 1
    },
    {
      "midi": 76,
      "hit": false,
      "t": 188279.85233750066,
      "d": 508.6198250000307,
      "v": 108
    },
    {
      "midi": 79,
      "hit": false,
      "t": 188282.725895834,
      "d": 491.378475000005,
      "v": 106
    },
    {
      "midi": 76,
      "hit": false,
      "t": 188968.069558334,
      "d": 1295.9748083333252,
      "v": 115
    },
    {
      "midi": 79,
      "hit": false,
      "t": 188970.94311666736,
      "d": 1268.6760041666566,
      "v": 109
    },
    {
      "midi": 57,
      "hit": false,
      "t": 189999.67700000008,
      "d": 170.976720833336,
      "v": 1
    },
    {
      "midi": 59,
      "hit": false,
      "t": 190172.09050000008,
      "d": 1550.284720833326,
      "v": 1
    },
    {
      "midi": 74,
      "hit": false,
      "t": 190330.136208334,
      "d": 1218.388733333355,
      "v": 97
    },
    {
      "midi": 69,
      "hit": false,
      "t": 190330.85459791735,
      "d": 1234.1933041666634,
      "v": 98
    },
    {
      "midi": 78,
      "hit": false,
      "t": 190333.7281562507,
      "d": 1214.7967854166636,
      "v": 88
    },
    {
      "midi": 61,
      "hit": false,
      "t": 191723.81200000006,
      "d": 860.6307208333455,
      "v": 1
    },
    {
      "midi": 67,
      "hit": false,
      "t": 191723.81200000067,
      "d": 1209.049668749998,
      "v": 83
    },
    {
      "midi": 79,
      "hit": false,
      "t": 191723.81200000067,
      "d": 1265.0840562499943,
      "v": 88
    },
    {
      "midi": 76,
      "hit": false,
      "t": 191723.81200000067,
      "d": 1276.5782895833254,
      "v": 90
    },
    {
      "midi": 62,
      "hit": false,
      "t": 192585.87950000007,
      "d": 343.3902208333311,
      "v": 1
    },
    {
      "midi": 59,
      "hit": false,
      "t": 192930.70650000006,
      "d": 1377.8712208333309,
      "v": 1
    },
    {
      "midi": 69,
      "hit": false,
      "t": 193100.96483125066,
      "d": 1299.5667562500166,
      "v": 80
    },
    {
      "midi": 74,
      "hit": false,
      "t": 193101.683220834,
      "d": 1280.1702375000168,
      "v": 87
    },
    {
      "midi": 78,
      "hit": false,
      "t": 193109.58550625067,
      "d": 1265.8024458333384,
      "v": 87
    },
    {
      "midi": 62,
      "hit": false,
      "t": 194310.01450000005,
      "d": 1205.4577208333358,
      "v": 1
    },
    {
      "midi": 59,
      "hit": false,
      "t": 195516.90900000004,
      "d": 170.976720833336,
      "v": 1
    },
    {
      "midi": 61,
      "hit": false,
      "t": 195689.32250000004,
      "d": 1033.0442208333407,
      "v": 1
    },
    {
      "midi": 83,
      "hit": false,
      "t": 196527.68314375068,
      "d": 1284.4805749999941,
      "v": 127
    },
    {
      "midi": 71,
      "hit": false,
      "t": 196533.43026041734,
      "d": 1318.2448854166723,
      "v": 127
    },
    {
      "midi": 95,
      "hit": false,
      "t": 196551.39000000068,
      "d": 1284.4805749999941,
      "v": 127
    },
    {
      "midi": 59,
      "hit": false,
      "t": 196723.80350000004,
      "d": 343.3902208333311,
      "v": 1
    },
    {
      "midi": 62,
      "hit": false,
      "t": 197068.63050000003,
      "d": 1033.0442208333407,
      "v": 1
    },
    {
      "midi": 86,
      "hit": false,
      "t": 197929.97961041736,
      "d": 1259.336939583358,
      "v": 127
    },
    {
      "midi": 98,
      "hit": false,
      "t": 197930.6980000007,
      "d": 1259.336939583358,
      "v": 127
    },
    {
      "midi": 74,
      "hit": false,
      "t": 197933.57155833405,
      "d": 1297.4115875000134,
      "v": 127
    },
    {
      "midi": 64,
      "hit": false,
      "t": 198103.11150000003,
      "d": 343.3902208333311,
      "v": 1
    },
    {
      "midi": 61,
      "hit": false,
      "t": 198447.93850000002,
      "d": 860.6307208333455,
      "v": 1
    },
    {
      "midi": 61,
      "hit": false,
      "t": 199310.00600000002,
      "d": 1722.698220833321,
      "v": 1
    },
    {
      "midi": 57,
      "hit": false,
      "t": 201034.141,
      "d": 170.976720833336,
      "v": 1
    },
    {
      "midi": 59,
      "hit": false,
      "t": 201206.5545,
      "d": 1033.0442208333407,
      "v": 1
    },
    {
      "midi": 57,
      "hit": false,
      "t": 202241.0355,
      "d": 343.3902208333311,
      "v": 1
    },
    {
      "midi": 61,
      "hit": false,
      "t": 202585.8625,
      "d": 1205.4577208333358,
      "v": 1
    },
    {
      "midi": 79,
      "hit": false,
      "t": 202776.23573958405,
      "d": 805.3147229166643,
      "v": 127
    },
    {
      "midi": 76,
      "hit": false,
      "t": 202778.39090833405,
      "d": 841.9525916666607,
      "v": 127
    },
    {
      "midi": 81,
      "hit": false,
      "t": 203659.85492708406,
      "d": 403.73494583333377,
      "v": 121
    },
    {
      "midi": 78,
      "hit": false,
      "t": 203666.32043333407,
      "d": 397.26943958332413,
      "v": 127
    },
    {
      "midi": 62,
      "hit": false,
      "t": 203792.75699999998,
      "d": 170.976720833336,
      "v": 1
    },
    {
      "midi": 59,
      "hit": false,
      "t": 203965.17049999998,
      "d": 688.2172208333213,
      "v": 1
    },
    {
      "midi": 74,
      "hit": false,
      "t": 204128.2449354174,
      "d": 1140.0842687500117,
      "v": 125
    },
    {
      "midi": 78,
      "hit": false,
      "t": 204128.2449354174,
      "d": 1146.5497750000213,
      "v": 127
    },
    {
      "midi": 57,
      "hit": false,
      "t": 204654.82449999996,
      "d": 170.976720833336,
      "v": 1
    },
    {
      "midi": 59,
      "hit": false,
      "t": 204827.23799999995,
      "d": 170.976720833336,
      "v": 1
    },
    {
      "midi": 57,
      "hit": false,
      "t": 204999.65149999995,
      "d": 170.976720833336,
      "v": 1
    },
    {
      "midi": 59,
      "hit": false,
      "t": 205172.06499999994,
      "d": 860.6307208333455,
      "v": 1
    },
    {
      "midi": 74,
      "hit": false,
      "t": 205519.04716875075,
      "d": 2285.197264583345,
      "v": 101
    },
    {
      "midi": 71,
      "hit": false,
      "t": 205519.7655583341,
      "d": 2297.409887499991,
      "v": 107
    },
    {
      "midi": 67,
      "hit": false,
      "t": 205520.48394791744,
      "d": 2288.789212499978,
      "v": 99
    },
    {
      "midi": 57,
      "hit": false,
      "t": 206034.13249999995,
      "d": 170.976720833336,
      "v": 1
    },
    {
      "midi": 59,
      "hit": false,
      "t": 206206.54599999994,
      "d": 170.976720833336,
      "v": 1
    },
    {
      "midi": 57,
      "hit": false,
      "t": 206378.95949999994,
      "d": 170.976720833336,
      "v": 1
    },
    {
      "midi": 59,
      "hit": false,
      "t": 206551.37299999993,
      "d": 1205.4577208333358,
      "v": 1
    },
    {
      "midi": 54,
      "hit": false,
      "t": 207758.26749999993,
      "d": 1722.698220833321,
      "v": 1
    },
    {
      "midi": 78,
      "hit": false,
      "t": 208455.10539583408,
      "d": 227.01110833333223,
      "v": 119
    },
    {
      "midi": 74,
      "hit": false,
      "t": 208455.10539583408,
      "d": 239.2237312500074,
      "v": 113
    },
    {
      "midi": 76,
      "hit": false,
      "t": 208798.4956166674,
      "d": 204.0226416666701,
      "v": 111
    },
    {
      "midi": 73,
      "hit": false,
      "t": 208801.36917500076,
      "d": 196.12035625000135,
      "v": 109
    },
    {
      "midi": 76,
      "hit": false,
      "t": 209122.48931875074,
      "d": 223.4191604166699,
      "v": 116
    },
    {
      "midi": 79,
      "hit": false,
      "t": 209126.79965625075,
      "d": 222.7007708333258,
      "v": 118
    },
    {
      "midi": 62,
      "hit": false,
      "t": 209482.4024999999,
      "d": 1033.0442208333407,
      "v": 1
    },
    {
      "midi": 78,
      "hit": false,
      "t": 209482.40250000075,
      "d": 95.54581458333996,
      "v": 125
    },
    {
      "midi": 74,
      "hit": false,
      "t": 209500.3622395841,
      "d": 109.91360624998924,
      "v": 120
    },
    {
      "midi": 78,
      "hit": false,
      "t": 209636.1378708341,
      "d": 745.6883874999767,
      "v": 127
    },
    {
      "midi": 74,
      "hit": false,
      "t": 209654.81600000075,
      "d": 748.561945833324,
      "v": 127
    },
    {
      "midi": 61,
      "hit": false,
      "t": 210516.8834999999,
      "d": 170.976720833336,
      "v": 1
    },
    {
      "midi": 59,
      "hit": false,
      "t": 210689.2969999999,
      "d": 2584.7657208333258,
      "v": 1
    },
    {
      "midi": 76,
      "hit": false,
      "t": 211034.12400000074,
      "d": 1266.5208354166534,
      "v": 108
    },
    {
      "midi": 79,
      "hit": false,
      "t": 211034.12400000074,
      "d": 1269.3943937500007,
      "v": 98
    },
    {
      "midi": 71,
      "hit": false,
      "t": 211034.12400000074,
      "d": 1275.1415104166663,
      "v": 99
    },
    {
      "midi": 91,
      "hit": false,
      "t": 212758.25900000075,
      "d": 964.0788208333252,
      "v": 127
    },
    {
      "midi": 79,
      "hit": false,
      "t": 212763.28772708407,
      "d": 964.7972104166693,
      "v": 127
    },
    {
      "midi": 54,
      "hit": false,
      "t": 213275.4994999999,
      "d": 515.8037208333262,
      "v": 1
    },
    {
      "midi": 83,
      "hit": false,
      "t": 214719.46256250073,
      "d": 298.85006666666595,
      "v": 127
    },
    {
      "midi": 81,
      "hit": false,
      "t": 215069.31828958407,
      "d": 237.7869520833192,
      "v": 127
    },
    {
      "midi": 83,
      "hit": false,
      "t": 215344.46150000073,
      "d": 233.47661458334187,
      "v": 127
    },
    {
      "midi": 86,
      "hit": false,
      "t": 215628.2253854174,
      "d": 255.0283020833449,
      "v": 127
    },
    {
      "midi": 88,
      "hit": false,
      "t": 215904.80537500075,
      "d": 200.43069375000778,
      "v": 127
    },
    {
      "midi": 90,
      "hit": false,
      "t": 216167.73596250077,
      "d": 345.5453895833343,
      "v": 127
    },
    {
      "midi": 90,
      "hit": false,
      "t": 216551.35600000076,
      "d": 1313.934547916666,
      "v": 121
    },
    {
      "midi": 93,
      "hit": false,
      "t": 216551.35600000076,
      "d": 1367.095377083344,
      "v": 115
    },
    {
      "midi": 91,
      "hit": false,
      "t": 217936.41111666744,
      "d": 1266.5208354166825,
      "v": 108
    },
    {
      "midi": 88,
      "hit": false,
      "t": 217937.12950625079,
      "d": 1270.8311729166599,
      "v": 99
    },
    {
      "midi": 78,
      "hit": false,
      "t": 220904.7968750008,
      "d": 244.97084791667294,
      "v": 113
    },
    {
      "midi": 81,
      "hit": false,
      "t": 220906.23365416744,
      "d": 260.77541875001043,
      "v": 107
    },
    {
      "midi": 79,
      "hit": false,
      "t": 221248.18709583412,
      "d": 230.60305624999455,
      "v": 108
    },
    {
      "midi": 76,
      "hit": false,
      "t": 221251.77904375078,
      "d": 248.56279583333526,
      "v": 108
    },
    {
      "midi": 79,
      "hit": false,
      "t": 221576.49113541745,
      "d": 216.95365416666027,
      "v": 110
    },
    {
      "midi": 83,
      "hit": false,
      "t": 221580.08308333412,
      "d": 216.95365416666027,
      "v": 105
    },
    {
      "midi": 83,
      "hit": false,
      "t": 221886.83543541745,
      "d": 220.5456020833226,
      "v": 106
    },
    {
      "midi": 79,
      "hit": false,
      "t": 221894.01933125078,
      "d": 220.5456020833226,
      "v": 109
    },
    {
      "midi": 81,
      "hit": false,
      "t": 222189.9958395841,
      "d": 228.44788749999134,
      "v": 99
    },
    {
      "midi": 78,
      "hit": false,
      "t": 222197.17973541742,
      "d": 221.2639916666667,
      "v": 108
    },
    {
      "midi": 76,
      "hit": false,
      "t": 222478.07006250074,
      "d": 211.92492708330974,
      "v": 103
    },
    {
      "midi": 79,
      "hit": false,
      "t": 222483.09878958407,
      "d": 215.51687500000116,
      "v": 107
    },
    {
      "midi": 81,
      "hit": false,
      "t": 223397.60872916738,
      "d": 1211.2048374999722,
      "v": 101
    },
    {
      "midi": 74,
      "hit": false,
      "t": 223399.04550833403,
      "d": 478.4474624999857,
      "v": 103
    },
    {
      "midi": 78,
      "hit": false,
      "t": 223400.4822875007,
      "d": 478.4474624999857,
      "v": 113
    },
    {
      "midi": 69,
      "hit": false,
      "t": 223404.07423541736,
      "d": 1228.446187499998,
      "v": 101
    },
    {
      "midi": 78,
      "hit": false,
      "t": 225685.679552084,
      "d": 285.2006645833608,
      "v": 113
    },
    {
      "midi": 86,
      "hit": false,
      "t": 225689.98988958402,
      "d": 277.29837916669203,
      "v": 106
    },
    {
      "midi": 74,
      "hit": false,
      "t": 225692.86344791736,
      "d": 267.9593145833351,
      "v": 101
    },
    {
      "midi": 81,
      "hit": false,
      "t": 225692.86344791736,
      "d": 283.76388541667257,
      "v": 108
    },
    {
      "midi": 78,
      "hit": false,
      "t": 226072.17314791738,
      "d": 1100.572841666668,
      "v": 119
    },
    {
      "midi": 86,
      "hit": false,
      "t": 226075.76509583404,
      "d": 1043.1016750000126,
      "v": 105
    },
    {
      "midi": 81,
      "hit": false,
      "t": 226078.6386541674,
      "d": 1091.233777083311,
      "v": 111
    },
    {
      "midi": 74,
      "hit": false,
      "t": 226080.7938229174,
      "d": 1056.7510770833178,
      "v": 106
    },
    {
      "midi": 93,
      "hit": false,
      "t": 228445.01394166736,
      "d": 450.43026875000214,
      "v": 105
    },
    {
      "midi": 90,
      "hit": false,
      "t": 228451.47944791737,
      "d": 447.5567104166548,
      "v": 111
    },
    {
      "midi": 91,
      "hit": false,
      "t": 228982.3693500007,
      "d": 1008.6189749999903,
      "v": 107
    },
    {
      "midi": 88,
      "hit": false,
      "t": 228985.96129791735,
      "d": 997.1247416666592,
      "v": 108
    },
    {
      "midi": 91,
      "hit": false,
      "t": 231723.74400000068,
      "d": 775.1423604166775,
      "v": 111
    },
    {
      "midi": 88,
      "hit": false,
      "t": 231723.74400000068,
      "d": 788.0733729166677,
      "v": 109
    },
    {
      "midi": 88,
      "hit": false,
      "t": 232572.8804875007,
      "d": 425.2866333333368,
      "v": 111
    },
    {
      "midi": 91,
      "hit": false,
      "t": 232573.59887708403,
      "d": 424.5682437499927,
      "v": 109
    },
    {
      "midi": 91,
      "hit": false,
      "t": 233075.75319583403,
      "d": 1356.319533333357,
      "v": 107
    },
    {
      "midi": 88,
      "hit": false,
      "t": 233078.62675416737,
      "d": 1314.65293750001,
      "v": 110
    },
    {
      "midi": 90,
      "hit": false,
      "t": 234463.68187083406,
      "d": 1274.4231208333222,
      "v": 115
    },
    {
      "midi": 86,
      "hit": false,
      "t": 234464.4002604174,
      "d": 1281.6070166666468,
      "v": 99
    },
    {
      "midi": 71,
      "hit": false,
      "t": 235360.23207083406,
      "d": 532.3266812499787,
      "v": 115
    },
    {
      "midi": 74,
      "hit": false,
      "t": 235361.66885000071,
      "d": 537.3554083333293,
      "v": 115
    },
    {
      "midi": 76,
      "hit": false,
      "t": 236573.59207708403,
      "d": 478.4474624999857,
      "v": 115
    },
    {
      "midi": 79,
      "hit": false,
      "t": 236573.59207708403,
      "d": 481.321020833333,
      "v": 113
    },
    {
      "midi": 78,
      "hit": false,
      "t": 237124.5968875007,
      "d": 1076.1475958333467,
      "v": 111
    },
    {
      "midi": 74,
      "hit": false,
      "t": 237125.31527708404,
      "d": 1075.4292062500026,
      "v": 107
    },
    {
      "midi": 88,
      "hit": false,
      "t": 237757.49811041736,
      "d": 278.73515833332203,
      "v": 121
    },
    {
      "midi": 86,
      "hit": false,
      "t": 238116.69290208403,
      "d": 526.5795645833423,
      "v": 115
    },
    {
      "midi": 86,
      "hit": false,
      "t": 239133.93255208404,
      "d": 306.7523520833347,
      "v": 121
    },
    {
      "midi": 85,
      "hit": false,
      "t": 239501.02962916737,
      "d": 304.5971833333315,
      "v": 113
    },
    {
      "midi": 81,
      "hit": false,
      "t": 239842.98307083405,
      "d": 513.648552083323,
      "v": 113
    },
    {
      "midi": 76,
      "hit": false,
      "t": 240395.42466041737,
      "d": 456.1773854166677,
      "v": 117
    },
    {
      "midi": 78,
      "hit": false,
      "t": 240873.87212291738,
      "d": 492.09686458332,
      "v": 115
    },
    {
      "midi": 83,
      "hit": false,
      "t": 241370.2793250007,
      "d": 624.2805479166564,
      "v": 102
    },
    {
      "midi": 83,
      "hit": false,
      "t": 242928.4663312507,
      "d": 270.1144833333383,
      "v": 119
    },
    {
      "midi": 85,
      "hit": false,
      "t": 243272.57494166738,
      "d": 304.5971833333315,
      "v": 119
    },
    {
      "midi": 86,
      "hit": false,
      "t": 243623.86744791738,
      "d": 428.160191666655,
      "v": 111
    },
    {
      "midi": 90,
      "hit": false,
      "t": 244138.23438958405,
      "d": 787.3549833333236,
      "v": 111
    },
    {
      "midi": 88,
      "hit": false,
      "t": 244988.8076562507,
      "d": 137.9308000000019,
      "v": 99
    },
    {
      "midi": 86,
      "hit": false,
      "t": 245171.9970000007,
      "d": 168.10316249998868,
      "v": 103
    },
    {
      "midi": 88,
      "hit": false,
      "t": 245338.66338333403,
      "d": 298.13167708332185,
      "v": 109
    },
    {
      "midi": 85,
      "hit": false,
      "t": 245678.4616562507,
      "d": 358.4764020833536,
      "v": 113
    },
    {
      "midi": 81,
      "hit": false,
      "t": 246036.2196687507,
      "d": 289.5110020833381,
      "v": 113
    },
    {
      "midi": 78,
      "hit": false,
      "t": 246378.89150000073,
      "d": 125.71817708332674,
      "v": 109
    },
    {
      "midi": 81,
      "hit": false,
      "t": 246546.9946625007,
      "d": 161.63765625000815,
      "v": 97
    },
    {
      "midi": 83,
      "hit": false,
      "t": 246720.8449416674,
      "d": 1742.813129166665,
      "v": 110
    }
  ]
}