{
  "jsonPath": "Animes/Chousha Reideen MIDI Collection/tsubasa.json",
  "path": "Animes\\Chousha Reideen MIDI Collection\\Tsubasa.mid",
  "name": "Tsubasa",
  "difficulty": "Advanced",
  "bpm": 126.000126000126,
  "notes": [
    {
      "midi": 59,
      "hit": false,
      "t": 1956.5963541666688,
      "d": 31.746000000000095,
      "v": 105
    },
    {
      "midi": 69,
      "hit": false,
      "t": 1956.5963541666688,
      "d": 119.04750000000013,
      "v": 100
    },
    {
      "midi": 70,
      "hit": false,
      "t": 1956.5963541666688,
      "d": 119.04750000000013,
      "v": 100
    },
    {
      "midi": 54,
      "hit": false,
      "t": 1956.5963541666688,
      "d": 119.04750000000013,
      "v": 100
    },
    {
      "midi": 49,
      "hit": false,
      "t": 1956.5963541666688,
      "d": 119.04750000000013,
      "v": 100
    },
    {
      "midi": 42,
      "hit": false,
      "t": 1956.5963541666688,
      "d": 119.04750000000013,
      "v": 115
    },
    {
      "midi": 35,
      "hit": false,
      "t": 1956.5963541666688,
      "d": 119.04750000000013,
      "v": 115
    },
    {
      "midi": 47,
      "hit": false,
      "t": 1956.5963541666688,
      "d": 158.73000000000002,
      "v": 107
    },
    {
      "midi": 74,
      "hit": false,
      "t": 1956.5963541666688,
      "d": 355.158375,
      "v": 60
    },
    {
      "midi": 78,
      "hit": false,
      "t": 1956.5963541666688,
      "d": 952.3799999999992,
      "v": 60
    },
    {
      "midi": 71,
      "hit": false,
      "t": 1956.5963541666688,
      "d": 952.3799999999992,
      "v": 45
    },
    {
      "midi": 66,
      "hit": false,
      "t": 1956.5963541666688,
      "d": 952.3799999999992,
      "v": 56
    },
    {
      "midi": 23,
      "hit": false,
      "t": 2075.643854166669,
      "d": 111.11099999999988,
      "v": 82
    },
    {
      "midi": 69,
      "hit": false,
      "t": 2194.6913541666686,
      "d": 119.04750000000013,
      "v": 60
    },
    {
      "midi": 42,
      "hit": false,
      "t": 2194.6913541666686,
      "d": 119.04750000000013,
      "v": 100
    },
    {
      "midi": 35,
      "hit": false,
      "t": 2194.6913541666686,
      "d": 119.04750000000013,
      "v": 100
    },
    {
      "midi": 47,
      "hit": false,
      "t": 2194.6913541666686,
      "d": 706.3484999999996,
      "v": 107
    },
    {
      "midi": 73,
      "hit": false,
      "t": 2313.7388541666687,
      "d": 355.1583749999995,
      "v": 127
    },
    {
      "midi": 69,
      "hit": false,
      "t": 2432.7863541666684,
      "d": 119.04750000000013,
      "v": 100
    },
    {
      "midi": 70,
      "hit": false,
      "t": 2432.7863541666684,
      "d": 119.04750000000013,
      "v": 100
    },
    {
      "midi": 54,
      "hit": false,
      "t": 2432.7863541666684,
      "d": 119.04750000000013,
      "v": 127
    },
    {
      "midi": 42,
      "hit": false,
      "t": 2432.7863541666684,
      "d": 119.04750000000013,
      "v": 115
    },
    {
      "midi": 38,
      "hit": false,
      "t": 2432.7863541666684,
      "d": 119.04750000000013,
      "v": 115
    },
    {
      "midi": 35,
      "hit": false,
      "t": 2432.7863541666684,
      "d": 154.76175000000012,
      "v": 107
    },
    {
      "midi": 54,
      "hit": false,
      "t": 2670.881354166668,
      "d": 39.68249999999989,
      "v": 76
    },
    {
      "midi": 69,
      "hit": false,
      "t": 2670.881354166668,
      "d": 119.04750000000013,
      "v": 60
    },
    {
      "midi": 42,
      "hit": false,
      "t": 2670.881354166668,
      "d": 119.04750000000013,
      "v": 100
    },
    {
      "midi": 35,
      "hit": false,
      "t": 2670.881354166668,
      "d": 119.04750000000013,
      "v": 100
    },
    {
      "midi": 74,
      "hit": false,
      "t": 2670.881354166668,
      "d": 236.11087499999985,
      "v": 127
    },
    {
      "midi": 59,
      "hit": false,
      "t": 2670.881354166668,
      "d": 238.0949999999998,
      "v": 95
    },
    {
      "midi": 43,
      "hit": false,
      "t": 2908.976354166668,
      "d": 83.33325000000013,
      "v": 110
    },
    {
      "midi": 69,
      "hit": false,
      "t": 2908.976354166668,
      "d": 119.04750000000013,
      "v": 100
    },
    {
      "midi": 70,
      "hit": false,
      "t": 2908.976354166668,
      "d": 119.04750000000013,
      "v": 100
    },
    {
      "midi": 54,
      "hit": false,
      "t": 2908.976354166668,
      "d": 119.04750000000013,
      "v": 100
    },
    {
      "midi": 42,
      "hit": false,
      "t": 2908.976354166668,
      "d": 119.04750000000013,
      "v": 115
    },
    {
      "midi": 35,
      "hit": false,
      "t": 2908.976354166668,
      "d": 119.04750000000013,
      "v": 115
    },
    {
      "midi": 76,
      "hit": false,
      "t": 2908.976354166668,
      "d": 236.1108750000003,
      "v": 127
    },
    {
      "midi": 50,
      "hit": false,
      "t": 2908.976354166668,
      "d": 257.9362500000002,
      "v": 113
    },
    {
      "midi": 83,
      "hit": false,
      "t": 2908.976354166668,
      "d": 952.3799999999997,
      "v": 60
    },
    {
      "midi": 79,
      "hit": false,
      "t": 2908.976354166668,
      "d": 952.3799999999997,
      "v": 60
    },
    {
      "midi": 71,
      "hit": false,
      "t": 2908.976354166668,
      "d": 952.3799999999997,
      "v": 56
    },
    {
      "midi": 43,
      "hit": false,
      "t": 3147.0713541666682,
      "d": 7.936499999999796,
      "v": 116
    },
    {
      "midi": 69,
      "hit": false,
      "t": 3147.0713541666682,
      "d": 119.04750000000013,
      "v": 60
    },
    {
      "midi": 42,
      "hit": false,
      "t": 3147.0713541666682,
      "d": 119.04750000000013,
      "v": 100
    },
    {
      "midi": 35,
      "hit": false,
      "t": 3147.0713541666682,
      "d": 119.04750000000013,
      "v": 90
    },
    {
      "midi": 74,
      "hit": false,
      "t": 3147.0713541666682,
      "d": 236.11087499999985,
      "v": 127
    },
    {
      "midi": 43,
      "hit": false,
      "t": 3266.1188541666684,
      "d": 75.39674999999988,
      "v": 26
    },
    {
      "midi": 43,
      "hit": false,
      "t": 3385.166354166668,
      "d": 59.523749999999836,
      "v": 110
    },
    {
      "midi": 69,
      "hit": false,
      "t": 3385.166354166668,
      "d": 119.04749999999967,
      "v": 100
    },
    {
      "midi": 70,
      "hit": false,
      "t": 3385.166354166668,
      "d": 119.04749999999967,
      "v": 100
    },
    {
      "midi": 54,
      "hit": false,
      "t": 3385.166354166668,
      "d": 119.04749999999967,
      "v": 127
    },
    {
      "midi": 42,
      "hit": false,
      "t": 3385.166354166668,
      "d": 119.04749999999967,
      "v": 115
    },
    {
      "midi": 38,
      "hit": false,
      "t": 3385.166354166668,
      "d": 119.04749999999967,
      "v": 115
    },
    {
      "midi": 50,
      "hit": false,
      "t": 3385.166354166668,
      "d": 210.3172499999996,
      "v": 100
    },
    {
      "midi": 73,
      "hit": false,
      "t": 3385.166354166668,
      "d": 236.1108749999994,
      "v": 127
    },
    {
      "midi": 32,
      "hit": false,
      "t": 3623.2613541666674,
      "d": 99.20625000000018,
      "v": 110
    },
    {
      "midi": 69,
      "hit": false,
      "t": 3623.2613541666674,
      "d": 119.04750000000013,
      "v": 60
    },
    {
      "midi": 42,
      "hit": false,
      "t": 3623.2613541666674,
      "d": 119.04750000000013,
      "v": 100
    },
    {
      "midi": 35,
      "hit": false,
      "t": 3623.2613541666674,
      "d": 119.04750000000013,
      "v": 100
    },
    {
      "midi": 74,
      "hit": false,
      "t": 3623.2613541666674,
      "d": 236.1108750000003,
      "v": 127
    },
    {
      "midi": 33,
      "hit": false,
      "t": 3861.3563541666676,
      "d": 83.33325000000013,
      "v": 105
    },
    {
      "midi": 69,
      "hit": false,
      "t": 3861.3563541666676,
      "d": 119.04750000000013,
      "v": 100
    },
    {
      "midi": 70,
      "hit": false,
      "t": 3861.3563541666676,
      "d": 119.04750000000013,
      "v": 100
    },
    {
      "midi": 54,
      "hit": false,
      "t": 3861.3563541666676,
      "d": 119.04750000000013,
      "v": 100
    },
    {
      "midi": 42,
      "hit": false,
      "t": 3861.3563541666676,
      "d": 119.04750000000013,
      "v": 115
    },
    {
      "midi": 35,
      "hit": false,
      "t": 3861.3563541666676,
      "d": 119.04750000000013,
      "v": 115
    },
    {
      "midi": 76,
      "hit": false,
      "t": 3861.3563541666676,
      "d": 355.1583749999995,
      "v": 127
    },
    {
      "midi": 45,
      "hit": false,
      "t": 3861.3563541666676,
      "d": 722.2214999999983,
      "v": 105
    },
    {
      "midi": 52,
      "hit": false,
      "t": 3861.3563541666676,
      "d": 726.1897499999982,
      "v": 102
    },
    {
      "midi": 69,
      "hit": false,
      "t": 4099.451354166667,
      "d": 119.04749999999967,
      "v": 60
    },
    {
      "midi": 42,
      "hit": false,
      "t": 4099.451354166667,
      "d": 119.04749999999967,
      "v": 100
    },
    {
      "midi": 35,
      "hit": false,
      "t": 4099.451354166667,
      "d": 119.04749999999967,
      "v": 100
    },
    {
      "midi": 33,
      "hit": false,
      "t": 4099.451354166667,
      "d": 194.44424999999956,
      "v": 116
    },
    {
      "midi": 73,
      "hit": false,
      "t": 4099.451354166667,
      "d": 202.38074999999935,
      "v": 29
    },
    {
      "midi": 78,
      "hit": false,
      "t": 4218.498854166667,
      "d": 355.15837499999907,
      "v": 127
    },
    {
      "midi": 69,
      "hit": false,
      "t": 4337.546354166667,
      "d": 119.04749999999967,
      "v": 100
    },
    {
      "midi": 70,
      "hit": false,
      "t": 4337.546354166667,
      "d": 119.04749999999967,
      "v": 100
    },
    {
      "midi": 54,
      "hit": false,
      "t": 4337.546354166667,
      "d": 119.04749999999967,
      "v": 127
    },
    {
      "midi": 42,
      "hit": false,
      "t": 4337.546354166667,
      "d": 119.04749999999967,
      "v": 115
    },
    {
      "midi": 38,
      "hit": false,
      "t": 4337.546354166667,
      "d": 119.04749999999967,
      "v": 115
    },
    {
      "midi": 33,
      "hit": false,
      "t": 4337.546354166667,
      "d": 123.01574999999957,
      "v": 110
    },
    {
      "midi": 37,
      "hit": false,
      "t": 4575.641354166666,
      "d": 99.20624999999927,
      "v": 110
    },
    {
      "midi": 69,
      "hit": false,
      "t": 4575.641354166666,
      "d": 119.04749999999967,
      "v": 60
    },
    {
      "midi": 42,
      "hit": false,
      "t": 4575.641354166666,
      "d": 119.04749999999967,
      "v": 100
    },
    {
      "midi": 35,
      "hit": false,
      "t": 4575.641354166666,
      "d": 119.04749999999967,
      "v": 100
    },
    {
      "midi": 79,
      "hit": false,
      "t": 4575.641354166666,
      "d": 236.1108749999994,
      "v": 127
    },
    {
      "midi": 69,
      "hit": false,
      "t": 4813.7363541666655,
      "d": 119.04749999999967,
      "v": 100
    },
    {
      "midi": 70,
      "hit": false,
      "t": 4813.7363541666655,
      "d": 119.04749999999967,
      "v": 100
    },
    {
      "midi": 54,
      "hit": false,
      "t": 4813.7363541666655,
      "d": 119.04749999999967,
      "v": 100
    },
    {
      "midi": 42,
      "hit": false,
      "t": 4813.7363541666655,
      "d": 119.04749999999967,
      "v": 115
    },
    {
      "midi": 35,
      "hit": false,
      "t": 4813.7363541666655,
      "d": 119.04749999999967,
      "v": 115
    },
    {
      "midi": 38,
      "hit": false,
      "t": 4813.7363541666655,
      "d": 150.79349999999977,
      "v": 107
    },
    {
      "midi": 79,
      "hit": false,
      "t": 4813.7363541666655,
      "d": 236.1108749999994,
      "v": 127
    },
    {
      "midi": 50,
      "hit": false,
      "t": 4813.7363541666655,
      "d": 246.03149999999914,
      "v": 110
    },
    {
      "midi": 57,
      "hit": false,
      "t": 4813.7363541666655,
      "d": 257.93624999999884,
      "v": 113
    },
    {
      "midi": 81,
      "hit": false,
      "t": 4813.7363541666655,
      "d": 952.3799999999992,
      "v": 60
    },
    {
      "midi": 74,
      "hit": false,
      "t": 4813.7363541666655,
      "d": 952.3799999999992,
      "v": 45
    },
    {
      "midi": 26,
      "hit": false,
      "t": 4932.783854166665,
      "d": 111.11099999999988,
      "v": 82
    },
    {
      "midi": 69,
      "hit": false,
      "t": 5051.831354166665,
      "d": 119.04749999999967,
      "v": 60
    },
    {
      "midi": 42,
      "hit": false,
      "t": 5051.831354166665,
      "d": 119.04749999999967,
      "v": 100
    },
    {
      "midi": 35,
      "hit": false,
      "t": 5051.831354166665,
      "d": 119.04749999999967,
      "v": 100
    },
    {
      "midi": 78,
      "hit": false,
      "t": 5051.831354166665,
      "d": 236.1108749999994,
      "v": 127
    },
    {
      "midi": 38,
      "hit": false,
      "t": 5170.8788541666645,
      "d": 7.936499999999796,
      "v": 26
    },
    {
      "midi": 38,
      "hit": false,
      "t": 5289.926354166664,
      "d": 59.52375000000029,
      "v": 115
    },
    {
      "midi": 69,
      "hit": false,
      "t": 5289.926354166664,
      "d": 119.04750000000058,
      "v": 100
    },
    {
      "midi": 70,
      "hit": false,
      "t": 5289.926354166664,
      "d": 119.04750000000058,
      "v": 100
    },
    {
      "midi": 54,
      "hit": false,
      "t": 5289.926354166664,
      "d": 119.04750000000058,
      "v": 127
    },
    {
      "midi": 42,
      "hit": false,
      "t": 5289.926354166664,
      "d": 119.04750000000058,
      "v": 115
    },
    {
      "midi": 57,
      "hit": false,
      "t": 5289.926354166664,
      "d": 210.31725000000097,
      "v": 100
    },
    {
      "midi": 50,
      "hit": false,
      "t": 5289.926354166664,
      "d": 234.12675000000127,
      "v": 105
    },
    {
      "midi": 69,
      "hit": false,
      "t": 5528.021354166665,
      "d": 119.04749999999967,
      "v": 60
    },
    {
      "midi": 42,
      "hit": false,
      "t": 5528.021354166665,
      "d": 119.04749999999967,
      "v": 80
    },
    {
      "midi": 35,
      "hit": false,
      "t": 5528.021354166665,
      "d": 119.04749999999967,
      "v": 100
    },
    {
      "midi": 38,
      "hit": false,
      "t": 5528.021354166665,
      "d": 170.63474999999926,
      "v": 113
    },
    {
      "midi": 64,
      "hit": false,
      "t": 5766.116354166665,
      "d": 31.746000000000095,
      "v": 105
    },
    {
      "midi": 69,
      "hit": false,
      "t": 5766.116354166665,
      "d": 119.04749999999967,
      "v": 100
    },
    {
      "midi": 70,
      "hit": false,
      "t": 5766.116354166665,
      "d": 119.04749999999967,
      "v": 100
    },
    {
      "midi": 54,
      "hit": false,
      "t": 5766.116354166665,
      "d": 119.04749999999967,
      "v": 100
    },
    {
      "midi": 42,
      "hit": false,
      "t": 5766.116354166665,
      "d": 119.04749999999967,
      "v": 115
    },
    {
      "midi": 35,
      "hit": false,
      "t": 5766.116354166665,
      "d": 119.04749999999967,
      "v": 115
    },
    {
      "midi": 40,
      "hit": false,
      "t": 5766.116354166665,
      "d": 150.79349999999977,
      "v": 107
    },
    {
      "midi": 52,
      "hit": false,
      "t": 5766.116354166665,
      "d": 158.72999999999956,
      "v": 107
    },
    {
      "midi": 59,
      "hit": false,
      "t": 5766.116354166665,
      "d": 325.3964999999989,
      "v": 102
    },
    {
      "midi": 71,
      "hit": false,
      "t": 5766.116354166665,
      "d": 355.15837499999907,
      "v": 127
    },
    {
      "midi": 79,
      "hit": false,
      "t": 5766.116354166665,
      "d": 857.1419999999989,
      "v": 48
    },
    {
      "midi": 67,
      "hit": false,
      "t": 5766.116354166665,
      "d": 880.9514999999992,
      "v": 61
    },
    {
      "midi": 28,
      "hit": false,
      "t": 5885.163854166664,
      "d": 111.11099999999988,
      "v": 82
    },
    {
      "midi": 69,
      "hit": false,
      "t": 6004.211354166664,
      "d": 119.04749999999967,
      "v": 60
    },
    {
      "midi": 42,
      "hit": false,
      "t": 6004.211354166664,
      "d": 119.04749999999967,
      "v": 70
    },
    {
      "midi": 35,
      "hit": false,
      "t": 6004.211354166664,
      "d": 119.04749999999967,
      "v": 100
    },
    {
      "midi": 40,
      "hit": false,
      "t": 6004.211354166664,
      "d": 126.98399999999947,
      "v": 89
    },
    {
      "midi": 52,
      "hit": false,
      "t": 6004.211354166664,
      "d": 706.3485000000001,
      "v": 107
    },
    {
      "midi": 78,
      "hit": false,
      "t": 6123.258854166664,
      "d": 355.158375,
      "v": 127
    },
    {
      "midi": 69,
      "hit": false,
      "t": 6242.306354166663,
      "d": 119.04749999999967,
      "v": 100
    },
    {
      "midi": 70,
      "hit": false,
      "t": 6242.306354166663,
      "d": 119.04749999999967,
      "v": 100
    },
    {
      "midi": 54,
      "hit": false,
      "t": 6242.306354166663,
      "d": 119.04749999999967,
      "v": 127
    },
    {
      "midi": 42,
      "hit": false,
      "t": 6242.306354166663,
      "d": 119.04749999999967,
      "v": 100
    },
    {
      "midi": 38,
      "hit": false,
      "t": 6242.306354166663,
      "d": 119.04749999999967,
      "v": 115
    },
    {
      "midi": 40,
      "hit": false,
      "t": 6242.306354166663,
      "d": 154.76174999999967,
      "v": 107
    },
    {
      "midi": 59,
      "hit": false,
      "t": 6242.306354166663,
      "d": 210.31725000000006,
      "v": 100
    },
    {
      "midi": 59,
      "hit": false,
      "t": 6480.401354166664,
      "d": 39.68249999999989,
      "v": 76
    },
    {
      "midi": 69,
      "hit": false,
      "t": 6480.401354166664,
      "d": 119.04749999999967,
      "v": 60
    },
    {
      "midi": 42,
      "hit": false,
      "t": 6480.401354166664,
      "d": 119.04749999999967,
      "v": 90
    },
    {
      "midi": 35,
      "hit": false,
      "t": 6480.401354166664,
      "d": 119.04749999999967,
      "v": 100
    },
    {
      "midi": 76,
      "hit": false,
      "t": 6480.401354166664,
      "d": 142.85699999999997,
      "v": 127
    },
    {
      "midi": 40,
      "hit": false,
      "t": 6480.401354166664,
      "d": 170.63475000000017,
      "v": 113
    },
    {
      "midi": 64,
      "hit": false,
      "t": 6480.401354166664,
      "d": 238.09500000000025,
      "v": 95
    },
    {
      "midi": 69,
      "hit": false,
      "t": 6718.496354166664,
      "d": 119.04749999999967,
      "v": 100
    },
    {
      "midi": 70,
      "hit": false,
      "t": 6718.496354166664,
      "d": 119.04749999999967,
      "v": 100
    },
    {
      "midi": 54,
      "hit": false,
      "t": 6718.496354166664,
      "d": 119.04749999999967,
      "v": 100
    },
    {
      "midi": 42,
      "hit": false,
      "t": 6718.496354166664,
      "d": 119.04749999999967,
      "v": 115
    },
    {
      "midi": 35,
      "hit": false,
      "t": 6718.496354166664,
      "d": 119.04749999999967,
      "v": 115
    },
    {
      "midi": 33,
      "hit": false,
      "t": 6718.496354166664,
      "d": 150.79349999999977,
      "v": 107
    },
    {
      "midi": 45,
      "hit": false,
      "t": 6718.496354166664,
      "d": 246.03149999999914,
      "v": 110
    },
    {
      "midi": 52,
      "hit": false,
      "t": 6718.496354166664,
      "d": 257.93624999999884,
      "v": 113
    },
    {
      "midi": 81,
      "hit": false,
      "t": 6718.496354166664,
      "d": 355.15837499999907,
      "v": 127
    },
    {
      "midi": 21,
      "hit": false,
      "t": 6837.543854166664,
      "d": 111.11099999999988,
      "v": 82
    },
    {
      "midi": 69,
      "hit": false,
      "t": 6956.591354166663,
      "d": 119.04749999999967,
      "v": 60
    },
    {
      "midi": 42,
      "hit": false,
      "t": 6956.591354166663,
      "d": 119.04749999999967,
      "v": 90
    },
    {
      "midi": 35,
      "hit": false,
      "t": 6956.591354166663,
      "d": 119.04749999999967,
      "v": 90
    },
    {
      "midi": 33,
      "hit": false,
      "t": 6956.591354166663,
      "d": 126.98399999999947,
      "v": 89
    },
    {
      "midi": 72,
      "hit": false,
      "t": 6956.591354166663,
      "d": 202.38074999999935,
      "v": 29
    },
    {
      "midi": 45,
      "hit": false,
      "t": 7075.638854166663,
      "d": 178.57124999999996,
      "v": 26
    },
    {
      "midi": 79,
      "hit": false,
      "t": 7075.638854166663,
      "d": 355.1583750000009,
      "v": 127
    },
    {
      "midi": 69,
      "hit": false,
      "t": 7194.686354166663,
      "d": 119.04750000000058,
      "v": 100
    },
    {
      "midi": 70,
      "hit": false,
      "t": 7194.686354166663,
      "d": 119.04750000000058,
      "v": 100
    },
    {
      "midi": 54,
      "hit": false,
      "t": 7194.686354166663,
      "d": 119.04750000000058,
      "v": 127
    },
    {
      "midi": 42,
      "hit": false,
      "t": 7194.686354166663,
      "d": 119.04750000000058,
      "v": 115
    },
    {
      "midi": 38,
      "hit": false,
      "t": 7194.686354166663,
      "d": 119.04750000000058,
      "v": 115
    },
    {
      "midi": 33,
      "hit": false,
      "t": 7194.686354166663,
      "d": 154.76175000000057,
      "v": 107
    },
    {
      "midi": 52,
      "hit": false,
      "t": 7194.686354166663,
      "d": 210.31725000000097,
      "v": 100
    },
    {
      "midi": 69,
      "hit": false,
      "t": 7432.781354166664,
      "d": 119.04749999999967,
      "v": 60
    },
    {
      "midi": 42,
      "hit": false,
      "t": 7432.781354166664,
      "d": 119.04749999999967,
      "v": 90
    },
    {
      "midi": 35,
      "hit": false,
      "t": 7432.781354166664,
      "d": 119.04749999999967,
      "v": 100
    },
    {
      "midi": 33,
      "hit": false,
      "t": 7432.781354166664,
      "d": 170.63474999999926,
      "v": 113
    },
    {
      "midi": 78,
      "hit": false,
      "t": 7432.781354166664,
      "d": 236.1108749999994,
      "v": 127
    },
    {
      "midi": 46,
      "hit": false,
      "t": 7551.828854166663,
      "d": 119.04749999999967,
      "v": 100
    },
    {
      "midi": 38,
      "hit": false,
      "t": 7670.876354166663,
      "d": 83.33324999999968,
      "v": 105
    },
    {
      "midi": 69,
      "hit": false,
      "t": 7670.876354166663,
      "d": 119.04749999999967,
      "v": 100
    },
    {
      "midi": 70,
      "hit": false,
      "t": 7670.876354166663,
      "d": 119.04749999999967,
      "v": 100
    },
    {
      "midi": 54,
      "hit": false,
      "t": 7670.876354166663,
      "d": 119.04749999999967,
      "v": 100
    },
    {
      "midi": 42,
      "hit": false,
      "t": 7670.876354166663,
      "d": 119.04749999999967,
      "v": 115
    },
    {
      "midi": 35,
      "hit": false,
      "t": 7670.876354166663,
      "d": 119.04749999999967,
      "v": 115
    },
    {
      "midi": 76,
      "hit": false,
      "t": 7670.876354166663,
      "d": 355.15837499999907,
      "v": 127
    },
    {
      "midi": 69,
      "hit": false,
      "t": 7908.971354166662,
      "d": 119.04749999999967,
      "v": 60
    },
    {
      "midi": 42,
      "hit": false,
      "t": 7908.971354166662,
      "d": 119.04749999999967,
      "v": 100
    },
    {
      "midi": 35,
      "hit": false,
      "t": 7908.971354166662,
      "d": 119.04749999999967,
      "v": 100
    },
    {
      "midi": 38,
      "hit": false,
      "t": 7908.971354166662,
      "d": 194.44424999999956,
      "v": 116
    },
    {
      "midi": 62,
      "hit": false,
      "t": 7908.971354166662,
      "d": 202.38074999999935,
      "v": 100
    },
    {
      "midi": 57,
      "hit": false,
      "t": 7908.971354166662,
      "d": 206.34899999999925,
      "v": 91
    },
    {
      "midi": 50,
      "hit": false,
      "t": 7908.971354166662,
      "d": 210.31724999999915,
      "v": 95
    },
    {
      "midi": 78,
      "hit": false,
      "t": 8028.018854166662,
      "d": 355.158375,
      "v": 127
    },
    {
      "midi": 69,
      "hit": false,
      "t": 8147.066354166662,
      "d": 119.04750000000058,
      "v": 100
    },
    {
      "midi": 70,
      "hit": false,
      "t": 8147.066354166662,
      "d": 119.04750000000058,
      "v": 100
    },
    {
      "midi": 54,
      "hit": false,
      "t": 8147.066354166662,
      "d": 119.04750000000058,
      "v": 127
    },
    {
      "midi": 42,
      "hit": false,
      "t": 8147.066354166662,
      "d": 119.04750000000058,
      "v": 115
    },
    {
      "midi": 38,
      "hit": false,
      "t": 8147.066354166662,
      "d": 119.04750000000058,
      "v": 115
    },
    {
      "midi": 62,
      "hit": false,
      "t": 8385.161354166663,
      "d": 23.80949999999939,
      "v": 105
    },
    {
      "midi": 41,
      "hit": false,
      "t": 8385.161354166663,
      "d": 99.20624999999927,
      "v": 110
    },
    {
      "midi": 69,
      "hit": false,
      "t": 8385.161354166663,
      "d": 119.04749999999876,
      "v": 60
    },
    {
      "midi": 42,
      "hit": false,
      "t": 8385.161354166663,
      "d": 119.04749999999876,
      "v": 100
    },
    {
      "midi": 35,
      "hit": false,
      "t": 8385.161354166663,
      "d": 119.04749999999876,
      "v": 100
    },
    {
      "midi": 57,
      "hit": false,
      "t": 8385.161354166663,
      "d": 194.44424999999865,
      "v": 110
    },
    {
      "midi": 50,
      "hit": false,
      "t": 8385.161354166663,
      "d": 198.41249999999854,
      "v": 110
    },
    {
      "midi": 79,
      "hit": false,
      "t": 8385.161354166663,
      "d": 236.1108749999985,
      "v": 127
    },
    {
      "midi": 78,
      "hit": false,
      "t": 8623.256354166662,
      "d": 0,
      "v": 127
    },
    {
      "midi": 42,
      "hit": false,
      "t": 8623.256354166662,
      "d": 83.33324999999968,
      "v": 115
    },
    {
      "midi": 69,
      "hit": false,
      "t": 8623.256354166662,
      "d": 119.04750000000058,
      "v": 100
    },
    {
      "midi": 70,
      "hit": false,
      "t": 8623.256354166662,
      "d": 119.04750000000058,
      "v": 100
    },
    {
      "midi": 54,
      "hit": false,
      "t": 8623.256354166662,
      "d": 119.04750000000058,
      "v": 100
    },
    {
      "midi": 35,
      "hit": false,
      "t": 8623.256354166662,
      "d": 119.04750000000058,
      "v": 115
    },
    {
      "midi": 49,
      "hit": false,
      "t": 8623.256354166662,
      "d": 726.1897500000032,
      "v": 102
    },
    {
      "midi": 78,
      "hit": false,
      "t": 8623.256354166662,
      "d": 950.395875000002,
      "v": 61
    },
    {
      "midi": 69,
      "hit": false,
      "t": 8861.351354166663,
      "d": 119.04750000000058,
      "v": 60
    },
    {
      "midi": 42,
      "hit": false,
      "t": 8861.351354166663,
      "d": 119.04750000000058,
      "v": 100
    },
    {
      "midi": 35,
      "hit": false,
      "t": 8861.351354166663,
      "d": 119.04750000000058,
      "v": 100
    },
    {
      "midi": 69,
      "hit": false,
      "t": 9099.446354166665,
      "d": 119.04750000000058,
      "v": 100
    },
    {
      "midi": 70,
      "hit": false,
      "t": 9099.446354166665,
      "d": 119.04750000000058,
      "v": 100
    },
    {
      "midi": 54,
      "hit": false,
      "t": 9099.446354166665,
      "d": 119.04750000000058,
      "v": 127
    },
    {
      "midi": 42,
      "hit": false,
      "t": 9099.446354166665,
      "d": 119.04750000000058,
      "v": 115
    },
    {
      "midi": 38,
      "hit": false,
      "t": 9099.446354166665,
      "d": 119.04750000000058,
      "v": 115
    },
    {
      "midi": 42,
      "hit": false,
      "t": 9337.541354166666,
      "d": 7.936499999999796,
      "v": 80
    },
    {
      "midi": 34,
      "hit": false,
      "t": 9337.541354166666,
      "d": 99.20624999999927,
      "v": 110
    },
    {
      "midi": 69,
      "hit": false,
      "t": 9337.541354166666,
      "d": 119.04749999999876,
      "v": 60
    },
    {
      "midi": 35,
      "hit": false,
      "t": 9337.541354166666,
      "d": 119.04749999999876,
      "v": 100
    },
    {
      "midi": 69,
      "hit": false,
      "t": 9575.636354166665,
      "d": 119.04750000000058,
      "v": 100
    },
    {
      "midi": 70,
      "hit": false,
      "t": 9575.636354166665,
      "d": 119.04750000000058,
      "v": 100
    },
    {
      "midi": 54,
      "hit": false,
      "t": 9575.636354166665,
      "d": 119.04750000000058,
      "v": 100
    },
    {
      "midi": 42,
      "hit": false,
      "t": 9575.636354166665,
      "d": 119.04750000000058,
      "v": 115
    },
    {
      "midi": 35,
      "hit": false,
      "t": 9575.636354166665,
      "d": 119.04750000000058,
      "v": 115
    },
    {
      "midi": 74,
      "hit": false,
      "t": 9575.636354166665,
      "d": 355.1583750000009,
      "v": 60
    },
    {
      "midi": 66,
      "hit": false,
      "t": 9575.636354166665,
      "d": 1761.9030000000075,
      "v": 47
    },
    {
      "midi": 71,
      "hit": false,
      "t": 9575.636354166665,
      "d": 1769.8395000000073,
      "v": 58
    },
    {
      "midi": 78,
      "hit": false,
      "t": 9575.636354166665,
      "d": 1781.744250000007,
      "v": 57
    },
    {
      "midi": 53,
      "hit": false,
      "t": 9813.731354166666,
      "d": 23.80949999999939,
      "v": 52
    },
    {
      "midi": 47,
      "hit": false,
      "t": 9813.731354166666,
      "d": 103.17449999999917,
      "v": 107
    },
    {
      "midi": 69,
      "hit": false,
      "t": 9813.731354166666,
      "d": 119.04750000000058,
      "v": 60
    },
    {
      "midi": 42,
      "hit": false,
      "t": 9813.731354166666,
      "d": 119.04750000000058,
      "v": 90
    },
    {
      "midi": 35,
      "hit": false,
      "t": 9813.731354166666,
      "d": 119.04750000000058,
      "v": 100
    },
    {
      "midi": 54,
      "hit": false,
      "t": 9813.731354166666,
      "d": 134.92050000000017,
      "v": 98
    },
    {
      "midi": 73,
      "hit": false,
      "t": 9932.778854166667,
      "d": 355.1583750000009,
      "v": 127
    },
    {
      "midi": 69,
      "hit": false,
      "t": 10051.826354166666,
      "d": 119.04750000000058,
      "v": 100
    },
    {
      "midi": 70,
      "hit": false,
      "t": 10051.826354166666,
      "d": 119.04750000000058,
      "v": 100
    },
    {
      "midi": 54,
      "hit": false,
      "t": 10051.826354166666,
      "d": 119.04750000000058,
      "v": 127
    },
    {
      "midi": 42,
      "hit": false,
      "t": 10051.826354166666,
      "d": 119.04750000000058,
      "v": 115
    },
    {
      "midi": 38,
      "hit": false,
      "t": 10051.826354166666,
      "d": 119.04750000000058,
      "v": 115
    },
    {
      "midi": 35,
      "hit": false,
      "t": 10051.826354166666,
      "d": 158.73000000000138,
      "v": 105
    },
    {
      "midi": 69,
      "hit": false,
      "t": 10289.921354166669,
      "d": 119.04750000000058,
      "v": 60
    },
    {
      "midi": 42,
      "hit": false,
      "t": 10289.921354166669,
      "d": 119.04750000000058,
      "v": 90
    },
    {
      "midi": 35,
      "hit": false,
      "t": 10289.921354166669,
      "d": 119.04750000000058,
      "v": 100
    },
    {
      "midi": 74,
      "hit": false,
      "t": 10289.921354166669,
      "d": 236.1108750000003,
      "v": 127
    },
    {
      "midi": 35,
      "hit": false,
      "t": 10528.01635416667,
      "d": 47.6190000000006,
      "v": 115
    },
    {
      "midi": 69,
      "hit": false,
      "t": 10528.01635416667,
      "d": 119.04750000000058,
      "v": 100
    },
    {
      "midi": 70,
      "hit": false,
      "t": 10528.01635416667,
      "d": 119.04750000000058,
      "v": 100
    },
    {
      "midi": 54,
      "hit": false,
      "t": 10528.01635416667,
      "d": 119.04750000000058,
      "v": 100
    },
    {
      "midi": 42,
      "hit": false,
      "t": 10528.01635416667,
      "d": 119.04750000000058,
      "v": 115
    },
    {
      "midi": 76,
      "hit": false,
      "t": 10528.01635416667,
      "d": 236.1108750000003,
      "v": 127
    },
    {
      "midi": 47,
      "hit": false,
      "t": 10528.01635416667,
      "d": 742.0627500000028,
      "v": 107
    },
    {
      "midi": 69,
      "hit": false,
      "t": 10766.111354166671,
      "d": 119.04750000000058,
      "v": 60
    },
    {
      "midi": 42,
      "hit": false,
      "t": 10766.111354166671,
      "d": 119.04750000000058,
      "v": 100
    },
    {
      "midi": 35,
      "hit": false,
      "t": 10766.111354166671,
      "d": 119.04750000000058,
      "v": 100
    },
    {
      "midi": 74,
      "hit": false,
      "t": 10766.111354166671,
      "d": 236.1108750000003,
      "v": 127
    },
    {
      "midi": 69,
      "hit": false,
      "t": 11004.206354166672,
      "d": 119.04750000000058,
      "v": 100
    },
    {
      "midi": 70,
      "hit": false,
      "t": 11004.206354166672,
      "d": 119.04750000000058,
      "v": 100
    },
    {
      "midi": 54,
      "hit": false,
      "t": 11004.206354166672,
      "d": 119.04750000000058,
      "v": 127
    },
    {
      "midi": 42,
      "hit": false,
      "t": 11004.206354166672,
      "d": 119.04750000000058,
      "v": 115
    },
    {
      "midi": 38,
      "hit": false,
      "t": 11004.206354166672,
      "d": 119.04750000000058,
      "v": 115
    },
    {
      "midi": 35,
      "hit": false,
      "t": 11004.206354166672,
      "d": 170.63475000000108,
      "v": 110
    },
    {
      "midi": 73,
      "hit": false,
      "t": 11004.206354166672,
      "d": 236.1108750000003,
      "v": 127
    },
    {
      "midi": 74,
      "hit": false,
      "t": 11242.301354166673,
      "d": 95.23799999999937,
      "v": 127
    },
    {
      "midi": 69,
      "hit": false,
      "t": 11242.301354166673,
      "d": 119.04749999999876,
      "v": 60
    },
    {
      "midi": 42,
      "hit": false,
      "t": 11242.301354166673,
      "d": 119.04749999999876,
      "v": 100
    },
    {
      "midi": 35,
      "hit": false,
      "t": 11242.301354166673,
      "d": 119.04749999999876,
      "v": 100
    },
    {
      "midi": 69,
      "hit": false,
      "t": 11480.396354166673,
      "d": 119.04750000000058,
      "v": 100
    },
    {
      "midi": 70,
      "hit": false,
      "t": 11480.396354166673,
      "d": 119.04750000000058,
      "v": 100
    },
    {
      "midi": 54,
      "hit": false,
      "t": 11480.396354166673,
      "d": 119.04750000000058,
      "v": 100
    },
    {
      "midi": 42,
      "hit": false,
      "t": 11480.396354166673,
      "d": 119.04750000000058,
      "v": 115
    },
    {
      "midi": 35,
      "hit": false,
      "t": 11480.396354166673,
      "d": 119.04750000000058,
      "v": 115
    },
    {
      "midi": 33,
      "hit": false,
      "t": 11480.396354166673,
      "d": 150.79349999999977,
      "v": 107
    },
    {
      "midi": 76,
      "hit": false,
      "t": 11480.396354166673,
      "d": 355.15837499999907,
      "v": 127
    },
    {
      "midi": 45,
      "hit": false,
      "t": 11480.396354166673,
      "d": 722.2215000000033,
      "v": 105
    },
    {
      "midi": 52,
      "hit": false,
      "t": 11480.396354166673,
      "d": 726.1897500000032,
      "v": 102
    },
    {
      "midi": 73,
      "hit": false,
      "t": 11480.396354166673,
      "d": 952.3800000000047,
      "v": 61
    },
    {
      "midi": 64,
      "hit": false,
      "t": 11480.396354166673,
      "d": 952.3800000000047,
      "v": 50
    },
    {
      "midi": 21,
      "hit": false,
      "t": 11599.443854166673,
      "d": 111.11099999999897,
      "v": 82
    },
    {
      "midi": 69,
      "hit": false,
      "t": 11718.491354166672,
      "d": 119.04750000000058,
      "v": 60
    },
    {
      "midi": 42,
      "hit": false,
      "t": 11718.491354166672,
      "d": 119.04750000000058,
      "v": 90
    },
    {
      "midi": 35,
      "hit": false,
      "t": 11718.491354166672,
      "d": 119.04750000000058,
      "v": 100
    },
    {
      "midi": 33,
      "hit": false,
      "t": 11718.491354166672,
      "d": 126.98400000000038,
      "v": 89
    },
    {
      "midi": 81,
      "hit": false,
      "t": 11837.538854166673,
      "d": 355.1583750000027,
      "v": 127
    },
    {
      "midi": 69,
      "hit": false,
      "t": 11956.586354166673,
      "d": 119.04750000000058,
      "v": 100
    },
    {
      "midi": 70,
      "hit": false,
      "t": 11956.586354166673,
      "d": 119.04750000000058,
      "v": 100
    },
    {
      "midi": 54,
      "hit": false,
      "t": 11956.586354166673,
      "d": 119.04750000000058,
      "v": 127
    },
    {
      "midi": 42,
      "hit": false,
      "t": 11956.586354166673,
      "d": 119.04750000000058,
      "v": 115
    },
    {
      "midi": 38,
      "hit": false,
      "t": 11956.586354166673,
      "d": 119.04750000000058,
      "v": 115
    },
    {
      "midi": 33,
      "hit": false,
      "t": 11956.586354166673,
      "d": 154.76175000000148,
      "v": 107
    },
    {
      "midi": 69,
      "hit": false,
      "t": 12194.681354166676,
      "d": 119.04750000000058,
      "v": 60
    },
    {
      "midi": 42,
      "hit": false,
      "t": 12194.681354166676,
      "d": 119.04750000000058,
      "v": 90
    },
    {
      "midi": 35,
      "hit": false,
      "t": 12194.681354166676,
      "d": 119.04750000000058,
      "v": 100
    },
    {
      "midi": 33,
      "hit": false,
      "t": 12194.681354166676,
      "d": 170.63475000000108,
      "v": 113
    },
    {
      "midi": 76,
      "hit": false,
      "t": 12194.681354166676,
      "d": 236.1108750000003,
      "v": 127
    },
    {
      "midi": 69,
      "hit": false,
      "t": 12432.776354166677,
      "d": 119.04750000000058,
      "v": 100
    },
    {
      "midi": 70,
      "hit": false,
      "t": 12432.776354166677,
      "d": 119.04750000000058,
      "v": 100
    },
    {
      "midi": 54,
      "hit": false,
      "t": 12432.776354166677,
      "d": 119.04750000000058,
      "v": 100
    },
    {
      "midi": 42,
      "hit": false,
      "t": 12432.776354166677,
      "d": 119.04750000000058,
      "v": 115
    },
    {
      "midi": 35,
      "hit": false,
      "t": 12432.776354166677,
      "d": 119.04750000000058,
      "v": 115
    },
    {
      "midi": 38,
      "hit": false,
      "t": 12432.776354166677,
      "d": 150.79349999999977,
      "v": 107
    },
    {
      "midi": 79,
      "hit": false,
      "t": 12432.776354166677,
      "d": 236.1108750000003,
      "v": 127
    },
    {
      "midi": 26,
      "hit": false,
      "t": 12551.823854166678,
      "d": 111.11099999999897,
      "v": 82
    },
    {
      "midi": 78,
      "hit": false,
      "t": 12670.871354166678,
      "d": 117.06337499999972,
      "v": 29
    },
    {
      "midi": 69,
      "hit": false,
      "t": 12670.871354166678,
      "d": 119.04750000000058,
      "v": 60
    },
    {
      "midi": 42,
      "hit": false,
      "t": 12670.871354166678,
      "d": 119.04750000000058,
      "v": 100
    },
    {
      "midi": 35,
      "hit": false,
      "t": 12670.871354166678,
      "d": 119.04750000000058,
      "v": 100
    },
    {
      "midi": 38,
      "hit": false,
      "t": 12670.871354166678,
      "d": 126.98400000000038,
      "v": 89
    },
    {
      "midi": 74,
      "hit": false,
      "t": 12670.871354166678,
      "d": 198.41250000000036,
      "v": 8
    },
    {
      "midi": 62,
      "hit": false,
      "t": 12670.871354166678,
      "d": 202.38075000000026,
      "v": 100
    },
    {
      "midi": 57,
      "hit": false,
      "t": 12670.871354166678,
      "d": 206.34900000000016,
      "v": 91
    },
    {
      "midi": 50,
      "hit": false,
      "t": 12670.871354166678,
      "d": 210.31725000000006,
      "v": 95
    },
    {
      "midi": 78,
      "hit": false,
      "t": 12789.918854166679,
      "d": 83.33324999999968,
      "v": 127
    },
    {
      "midi": 69,
      "hit": false,
      "t": 12908.966354166678,
      "d": 119.04750000000058,
      "v": 100
    },
    {
      "midi": 70,
      "hit": false,
      "t": 12908.966354166678,
      "d": 119.04750000000058,
      "v": 100
    },
    {
      "midi": 54,
      "hit": false,
      "t": 12908.966354166678,
      "d": 119.04750000000058,
      "v": 127
    },
    {
      "midi": 42,
      "hit": false,
      "t": 12908.966354166678,
      "d": 119.04750000000058,
      "v": 115
    },
    {
      "midi": 38,
      "hit": false,
      "t": 12908.966354166678,
      "d": 119.04750000000058,
      "v": 115
    },
    {
      "midi": 62,
      "hit": false,
      "t": 13147.061354166679,
      "d": 23.80949999999939,
      "v": 105
    },
    {
      "midi": 69,
      "hit": false,
      "t": 13147.061354166679,
      "d": 119.04749999999876,
      "v": 60
    },
    {
      "midi": 42,
      "hit": false,
      "t": 13147.061354166679,
      "d": 119.04749999999876,
      "v": 100
    },
    {
      "midi": 35,
      "hit": false,
      "t": 13147.061354166679,
      "d": 119.04749999999876,
      "v": 100
    },
    {
      "midi": 38,
      "hit": false,
      "t": 13147.061354166679,
      "d": 170.63474999999926,
      "v": 113
    },
    {
      "midi": 57,
      "hit": false,
      "t": 13147.061354166679,
      "d": 194.44424999999865,
      "v": 110
    },
    {
      "midi": 50,
      "hit": false,
      "t": 13147.061354166679,
      "d": 198.41249999999854,
      "v": 110
    },
    {
      "midi": 62,
      "hit": false,
      "t": 13385.156354166678,
      "d": 31.745999999999185,
      "v": 55
    },
    {
      "midi": 69,
      "hit": false,
      "t": 13385.156354166678,
      "d": 119.04749999999876,
      "v": 100
    },
    {
      "midi": 70,
      "hit": false,
      "t": 13385.156354166678,
      "d": 119.04749999999876,
      "v": 100
    },
    {
      "midi": 54,
      "hit": false,
      "t": 13385.156354166678,
      "d": 119.04749999999876,
      "v": 100
    },
    {
      "midi": 42,
      "hit": false,
      "t": 13385.156354166678,
      "d": 119.04749999999876,
      "v": 115
    },
    {
      "midi": 35,
      "hit": false,
      "t": 13385.156354166678,
      "d": 119.04749999999876,
      "v": 115
    },
    {
      "midi": 40,
      "hit": false,
      "t": 13385.156354166678,
      "d": 150.79349999999795,
      "v": 107
    },
    {
      "midi": 52,
      "hit": false,
      "t": 13385.156354166678,
      "d": 158.72999999999774,
      "v": 107
    },
    {
      "midi": 59,
      "hit": false,
      "t": 13385.156354166678,
      "d": 325.3964999999971,
      "v": 102
    },
    {
      "midi": 71,
      "hit": false,
      "t": 13385.156354166678,
      "d": 355.15837499999725,
      "v": 45
    },
    {
      "midi": 64,
      "hit": false,
      "t": 13385.156354166678,
      "d": 488.0947499999984,
      "v": 105
    },
    {
      "midi": 74,
      "hit": false,
      "t": 13385.156354166678,
      "d": 952.3800000000047,
      "v": 60
    },
    {
      "midi": 67,
      "hit": false,
      "t": 13385.156354166678,
      "d": 952.3800000000047,
      "v": 56
    },
    {
      "midi": 28,
      "hit": false,
      "t": 13504.203854166677,
      "d": 111.11099999999897,
      "v": 82
    },
    {
      "midi": 69,
      "hit": false,
      "t": 13623.251354166676,
      "d": 119.04750000000058,
      "v": 60
    },
    {
      "midi": 42,
      "hit": false,
      "t": 13623.251354166676,
      "d": 119.04750000000058,
      "v": 90
    },
    {
      "midi": 35,
      "hit": false,
      "t": 13623.251354166676,
      "d": 119.04750000000058,
      "v": 100
    },
    {
      "midi": 40,
      "hit": false,
      "t": 13623.251354166676,
      "d": 126.98400000000038,
      "v": 89
    },
    {
      "midi": 52,
      "hit": false,
      "t": 13623.251354166676,
      "d": 706.3485000000055,
      "v": 107
    },
    {
      "midi": 78,
      "hit": false,
      "t": 13742.298854166676,
      "d": 355.1583750000027,
      "v": 127
    },
    {
      "midi": 69,
      "hit": false,
      "t": 13861.346354166677,
      "d": 119.04750000000058,
      "v": 100
    },
    {
      "midi": 70,
      "hit": false,
      "t": 13861.346354166677,
      "d": 119.04750000000058,
      "v": 100
    },
    {
      "midi": 54,
      "hit": false,
      "t": 13861.346354166677,
      "d": 119.04750000000058,
      "v": 127
    },
    {
      "midi": 42,
      "hit": false,
      "t": 13861.346354166677,
      "d": 119.04750000000058,
      "v": 115
    },
    {
      "midi": 38,
      "hit": false,
      "t": 13861.346354166677,
      "d": 119.04750000000058,
      "v": 115
    },
    {
      "midi": 40,
      "hit": false,
      "t": 13861.346354166677,
      "d": 154.76175000000148,
      "v": 107
    },
    {
      "midi": 59,
      "hit": false,
      "t": 13861.346354166677,
      "d": 210.31725000000188,
      "v": 100
    },
    {
      "midi": 59,
      "hit": false,
      "t": 14099.44135416668,
      "d": 39.6825000000008,
      "v": 76
    },
    {
      "midi": 69,
      "hit": false,
      "t": 14099.44135416668,
      "d": 119.04750000000058,
      "v": 60
    },
    {
      "midi": 46,
      "hit": false,
      "t": 14099.44135416668,
      "d": 119.04750000000058,
      "v": 100
    },
    {
      "midi": 35,
      "hit": false,
      "t": 14099.44135416668,
      "d": 119.04750000000058,
      "v": 90
    },
    {
      "midi": 40,
      "hit": false,
      "t": 14099.44135416668,
      "d": 170.63475000000108,
      "v": 113
    },
    {
      "midi": 76,
      "hit": false,
      "t": 14099.44135416668,
      "d": 236.11087500000212,
      "v": 127
    },
    {
      "midi": 64,
      "hit": false,
      "t": 14099.44135416668,
      "d": 238.09500000000298,
      "v": 95
    },
    {
      "midi": 52,
      "hit": false,
      "t": 14337.536354166683,
      "d": 31.745999999999185,
      "v": 55
    },
    {
      "midi": 69,
      "hit": false,
      "t": 14337.536354166683,
      "d": 119.04749999999876,
      "v": 100
    },
    {
      "midi": 70,
      "hit": false,
      "t": 14337.536354166683,
      "d": 119.04749999999876,
      "v": 100
    },
    {
      "midi": 54,
      "hit": false,
      "t": 14337.536354166683,
      "d": 119.04749999999876,
      "v": 100
    },
    {
      "midi": 42,
      "hit": false,
      "t": 14337.536354166683,
      "d": 119.04749999999876,
      "v": 115
    },
    {
      "midi": 35,
      "hit": false,
      "t": 14337.536354166683,
      "d": 119.04749999999876,
      "v": 115
    },
    {
      "midi": 49,
      "hit": false,
      "t": 14337.536354166683,
      "d": 325.3964999999971,
      "v": 102
    },
    {
      "midi": 81,
      "hit": false,
      "t": 14337.536354166683,
      "d": 355.15837499999725,
      "v": 48
    },
    {
      "midi": 76,
      "hit": false,
      "t": 14337.536354166683,
      "d": 857.1419999999998,
      "v": 55
    },
    {
      "midi": 69,
      "hit": false,
      "t": 14575.63135416668,
      "d": 119.04750000000058,
      "v": 60
    },
    {
      "midi": 42,
      "hit": false,
      "t": 14575.63135416668,
      "d": 119.04750000000058,
      "v": 100
    },
    {
      "midi": 35,
      "hit": false,
      "t": 14575.63135416668,
      "d": 119.04750000000058,
      "v": 90
    },
    {
      "midi": 79,
      "hit": false,
      "t": 14694.678854166681,
      "d": 355.1583750000009,
      "v": 127
    },
    {
      "midi": 54,
      "hit": false,
      "t": 14813.726354166682,
      "d": 11.904749999999694,
      "v": 127
    },
    {
      "midi": 69,
      "hit": false,
      "t": 14813.726354166682,
      "d": 119.04750000000058,
      "v": 100
    },
    {
      "midi": 70,
      "hit": false,
      "t": 14813.726354166682,
      "d": 119.04750000000058,
      "v": 100
    },
    {
      "midi": 42,
      "hit": false,
      "t": 14813.726354166682,
      "d": 119.04750000000058,
      "v": 115
    },
    {
      "midi": 38,
      "hit": false,
      "t": 14813.726354166682,
      "d": 119.04750000000058,
      "v": 115
    },
    {
      "midi": 49,
      "hit": false,
      "t": 14813.726354166682,
      "d": 210.31725000000006,
      "v": 100
    },
    {
      "midi": 49,
      "hit": false,
      "t": 15051.821354166683,
      "d": 39.6825000000008,
      "v": 76
    },
    {
      "midi": 42,
      "hit": false,
      "t": 15051.821354166683,
      "d": 67.46025000000009,
      "v": 100
    },
    {
      "midi": 69,
      "hit": false,
      "t": 15051.821354166683,
      "d": 119.04750000000058,
      "v": 60
    },
    {
      "midi": 35,
      "hit": false,
      "t": 15051.821354166683,
      "d": 119.04750000000058,
      "v": 100
    },
    {
      "midi": 78,
      "hit": false,
      "t": 15051.821354166683,
      "d": 142.85699999999997,
      "v": 127
    },
    {
      "midi": 54,
      "hit": false,
      "t": 15051.821354166683,
      "d": 238.09500000000116,
      "v": 95
    },
    {
      "midi": 30,
      "hit": false,
      "t": 15170.868854166683,
      "d": 59.52374999999847,
      "v": 80
    },
    {
      "midi": 69,
      "hit": false,
      "t": 15289.916354166684,
      "d": 119.04750000000058,
      "v": 100
    },
    {
      "midi": 70,
      "hit": false,
      "t": 15289.916354166684,
      "d": 119.04750000000058,
      "v": 100
    },
    {
      "midi": 54,
      "hit": false,
      "t": 15289.916354166684,
      "d": 119.04750000000058,
      "v": 100
    },
    {
      "midi": 42,
      "hit": false,
      "t": 15289.916354166684,
      "d": 119.04750000000058,
      "v": 127
    },
    {
      "midi": 35,
      "hit": false,
      "t": 15289.916354166684,
      "d": 119.04750000000058,
      "v": 115
    },
    {
      "midi": 43,
      "hit": false,
      "t": 15289.916354166684,
      "d": 150.79349999999977,
      "v": 105
    },
    {
      "midi": 76,
      "hit": false,
      "t": 15289.916354166684,
      "d": 355.15837499999907,
      "v": 127
    },
    {
      "midi": 77,
      "hit": false,
      "t": 15289.916354166684,
      "d": 857.1419999999998,
      "v": 55
    },
    {
      "midi": 82,
      "hit": false,
      "t": 15289.916354166684,
      "d": 865.0784999999996,
      "v": 48
    },
    {
      "midi": 69,
      "hit": false,
      "t": 15528.011354166683,
      "d": 119.04750000000058,
      "v": 60
    },
    {
      "midi": 42,
      "hit": false,
      "t": 15528.011354166683,
      "d": 119.04750000000058,
      "v": 115
    },
    {
      "midi": 35,
      "hit": false,
      "t": 15528.011354166683,
      "d": 119.04750000000058,
      "v": 100
    },
    {
      "midi": 43,
      "hit": false,
      "t": 15528.011354166683,
      "d": 190.47600000000057,
      "v": 95
    },
    {
      "midi": 55,
      "hit": false,
      "t": 15528.011354166683,
      "d": 202.38075000000026,
      "v": 100
    },
    {
      "midi": 50,
      "hit": false,
      "t": 15528.011354166683,
      "d": 206.34900000000016,
      "v": 91
    },
    {
      "midi": 78,
      "hit": false,
      "t": 15647.058854166684,
      "d": 355.15837499999907,
      "v": 127
    },
    {
      "midi": 69,
      "hit": false,
      "t": 15766.106354166683,
      "d": 119.04750000000058,
      "v": 100
    },
    {
      "midi": 70,
      "hit": false,
      "t": 15766.106354166683,
      "d": 119.04750000000058,
      "v": 100
    },
    {
      "midi": 54,
      "hit": false,
      "t": 15766.106354166683,
      "d": 119.04750000000058,
      "v": 127
    },
    {
      "midi": 42,
      "hit": false,
      "t": 15766.106354166683,
      "d": 119.04750000000058,
      "v": 100
    },
    {
      "midi": 38,
      "hit": false,
      "t": 15766.106354166683,
      "d": 119.04750000000058,
      "v": 115
    },
    {
      "midi": 43,
      "hit": false,
      "t": 15766.106354166683,
      "d": 150.79349999999977,
      "v": 102
    },
    {
      "midi": 53,
      "hit": false,
      "t": 16004.201354166684,
      "d": 23.80949999999939,
      "v": 68
    },
    {
      "midi": 43,
      "hit": false,
      "t": 16004.201354166684,
      "d": 67.46025000000009,
      "v": 110
    },
    {
      "midi": 69,
      "hit": false,
      "t": 16004.201354166684,
      "d": 119.04750000000058,
      "v": 60
    },
    {
      "midi": 42,
      "hit": false,
      "t": 16004.201354166684,
      "d": 119.04750000000058,
      "v": 100
    },
    {
      "midi": 35,
      "hit": false,
      "t": 16004.201354166684,
      "d": 119.04750000000058,
      "v": 100
    },
    {
      "midi": 79,
      "hit": false,
      "t": 16004.201354166684,
      "d": 142.85699999999997,
      "v": 127
    },
    {
      "midi": 55,
      "hit": false,
      "t": 16004.201354166684,
      "d": 174.60299999999916,
      "v": 105
    },
    {
      "midi": 50,
      "hit": false,
      "t": 16004.201354166684,
      "d": 194.44424999999865,
      "v": 110
    },
    {
      "midi": 31,
      "hit": false,
      "t": 16123.248854166684,
      "d": 59.52374999999847,
      "v": 80
    },
    {
      "midi": 33,
      "hit": false,
      "t": 16242.296354166683,
      "d": 83.33324999999968,
      "v": 105
    },
    {
      "midi": 69,
      "hit": false,
      "t": 16242.296354166683,
      "d": 119.04750000000058,
      "v": 100
    },
    {
      "midi": 70,
      "hit": false,
      "t": 16242.296354166683,
      "d": 119.04750000000058,
      "v": 100
    },
    {
      "midi": 54,
      "hit": false,
      "t": 16242.296354166683,
      "d": 119.04750000000058,
      "v": 100
    },
    {
      "midi": 42,
      "hit": false,
      "t": 16242.296354166683,
      "d": 119.04750000000058,
      "v": 115
    },
    {
      "midi": 35,
      "hit": false,
      "t": 16242.296354166683,
      "d": 119.04750000000058,
      "v": 115
    },
    {
      "midi": 45,
      "hit": false,
      "t": 16242.296354166683,
      "d": 246.03150000000096,
      "v": 110
    },
    {
      "midi": 52,
      "hit": false,
      "t": 16242.296354166683,
      "d": 257.9362500000025,
      "v": 113
    },
    {
      "midi": 78,
      "hit": false,
      "t": 16242.296354166683,
      "d": 474.2058750000033,
      "v": 127
    },
    {
      "midi": 69,
      "hit": false,
      "t": 16480.391354166684,
      "d": 119.04750000000058,
      "v": 60
    },
    {
      "midi": 42,
      "hit": false,
      "t": 16480.391354166684,
      "d": 119.04750000000058,
      "v": 100
    },
    {
      "midi": 35,
      "hit": false,
      "t": 16480.391354166684,
      "d": 119.04750000000058,
      "v": 100
    },
    {
      "midi": 33,
      "hit": false,
      "t": 16480.391354166684,
      "d": 194.44425000000047,
      "v": 116
    },
    {
      "midi": 73,
      "hit": false,
      "t": 16480.391354166684,
      "d": 202.3807500000039,
      "v": 29
    },
    {
      "midi": 45,
      "hit": false,
      "t": 16599.438854166685,
      "d": 178.57125000000087,
      "v": 26
    },
    {
      "midi": 69,
      "hit": false,
      "t": 16718.486354166685,
      "d": 119.04750000000058,
      "v": 100
    },
    {
      "midi": 70,
      "hit": false,
      "t": 16718.486354166685,
      "d": 119.04750000000058,
      "v": 100
    },
    {
      "midi": 54,
      "hit": false,
      "t": 16718.486354166685,
      "d": 119.04750000000058,
      "v": 127
    },
    {
      "midi": 41,
      "hit": false,
      "t": 16718.486354166685,
      "d": 119.04750000000058,
      "v": 100
    },
    {
      "midi": 38,
      "hit": false,
      "t": 16718.486354166685,
      "d": 119.04750000000058,
      "v": 115
    },
    {
      "midi": 33,
      "hit": false,
      "t": 16718.486354166685,
      "d": 123.0157500000023,
      "v": 110
    },
    {
      "midi": 52,
      "hit": false,
      "t": 16718.486354166685,
      "d": 210.3172500000037,
      "v": 100
    },
    {
      "midi": 78,
      "hit": false,
      "t": 16718.486354166685,
      "d": 236.11087500000212,
      "v": 127
    },
    {
      "midi": 34,
      "hit": false,
      "t": 16956.581354166687,
      "d": 99.20624999999927,
      "v": 110
    },
    {
      "midi": 69,
      "hit": false,
      "t": 16956.581354166687,
      "d": 119.04750000000058,
      "v": 60
    },
    {
      "midi": 49,
      "hit": false,
      "t": 16956.581354166687,
      "d": 119.04750000000058,
      "v": 115
    },
    {
      "midi": 38,
      "hit": false,
      "t": 16956.581354166687,
      "d": 119.04750000000058,
      "v": 127
    },
    {
      "midi": 35,
      "hit": false,
      "t": 16956.581354166687,
      "d": 119.04750000000058,
      "v": 115
    },
    {
      "midi": 76,
      "hit": false,
      "t": 16956.581354166687,
      "d": 236.11087500000212,
      "v": 127
    },
    {
      "midi": 35,
      "hit": false,
      "t": 17194.676354166688,
      "d": 107.14274999999907,
      "v": 115
    },
    {
      "midi": 69,
      "hit": false,
      "t": 17194.676354166688,
      "d": 119.04750000000058,
      "v": 100
    },
    {
      "midi": 70,
      "hit": false,
      "t": 17194.676354166688,
      "d": 119.04750000000058,
      "v": 100
    },
    {
      "midi": 54,
      "hit": false,
      "t": 17194.676354166688,
      "d": 119.04750000000058,
      "v": 100
    },
    {
      "midi": 42,
      "hit": false,
      "t": 17194.676354166688,
      "d": 119.04750000000058,
      "v": 115
    },
    {
      "midi": 78,
      "hit": false,
      "t": 17194.676354166688,
      "d": 178.57125000000087,
      "v": 57
    },
    {
      "midi": 71,
      "hit": false,
      "t": 17194.676354166688,
      "d": 190.4760000000024,
      "v": 35
    },
    {
      "midi": 74,
      "hit": false,
      "t": 17194.676354166688,
      "d": 190.4760000000024,
      "v": 53
    },
    {
      "midi": 83,
      "hit": false,
      "t": 17194.676354166688,
      "d": 210.3172500000037,
      "v": 55
    },
    {
      "midi": 69,
      "hit": false,
      "t": 17432.771354166693,
      "d": 119.04750000000058,
      "v": 60
    },
    {
      "midi": 42,
      "hit": false,
      "t": 17432.771354166693,
      "d": 119.04750000000058,
      "v": 90
    },
    {
      "midi": 35,
      "hit": false,
      "t": 17432.771354166693,
      "d": 119.04750000000058,
      "v": 100
    },
    {
      "midi": 47,
      "hit": false,
      "t": 17432.771354166693,
      "d": 130.9522500000021,
      "v": 107
    },
    {
      "midi": 54,
      "hit": false,
      "t": 17432.771354166693,
      "d": 158.7300000000032,
      "v": 100
    },
    {
      "midi": 69,
      "hit": false,
      "t": 17670.866354166697,
      "d": 119.04750000000058,
      "v": 100
    },
    {
      "midi": 70,
      "hit": false,
      "t": 17670.866354166697,
      "d": 119.04750000000058,
      "v": 100
    },
    {
      "midi": 54,
      "hit": false,
      "t": 17670.866354166697,
      "d": 119.04750000000058,
      "v": 127
    },
    {
      "midi": 42,
      "hit": false,
      "t": 17670.866354166697,
      "d": 119.04750000000058,
      "v": 115
    },
    {
      "midi": 38,
      "hit": false,
      "t": 17670.866354166697,
      "d": 119.04750000000058,
      "v": 115
    },
    {
      "midi": 35,
      "hit": false,
      "t": 17670.866354166697,
      "d": 158.72999999999956,
      "v": 105
    },
    {
      "midi": 69,
      "hit": false,
      "t": 17908.9613541667,
      "d": 119.04750000000058,
      "v": 60
    },
    {
      "midi": 42,
      "hit": false,
      "t": 17908.9613541667,
      "d": 119.04750000000058,
      "v": 90
    },
    {
      "midi": 35,
      "hit": false,
      "t": 17908.9613541667,
      "d": 119.04750000000058,
      "v": 100
    },
    {
      "midi": 74,
      "hit": false,
      "t": 17908.9613541667,
      "d": 948.4117500000029,
      "v": 62
    },
    {
      "midi": 78,
      "hit": false,
      "t": 17908.9613541667,
      "d": 948.4117500000029,
      "v": 62
    },
    {
      "midi": 83,
      "hit": false,
      "t": 17908.9613541667,
      "d": 952.380000000001,
      "v": 60
    },
    {
      "midi": 71,
      "hit": false,
      "t": 17908.9613541667,
      "d": 960.3165000000008,
      "v": 60
    },
    {
      "midi": 35,
      "hit": false,
      "t": 18147.056354166696,
      "d": 75.39674999999988,
      "v": 115
    },
    {
      "midi": 69,
      "hit": false,
      "t": 18147.056354166696,
      "d": 119.04750000000058,
      "v": 100
    },
    {
      "midi": 70,
      "hit": false,
      "t": 18147.056354166696,
      "d": 119.04750000000058,
      "v": 100
    },
    {
      "midi": 54,
      "hit": false,
      "t": 18147.056354166696,
      "d": 119.04750000000058,
      "v": 100
    },
    {
      "midi": 42,
      "hit": false,
      "t": 18147.056354166696,
      "d": 119.04750000000058,
      "v": 115
    },
    {
      "midi": 47,
      "hit": false,
      "t": 18147.056354166696,
      "d": 309.52350000000297,
      "v": 110
    },
    {
      "midi": 69,
      "hit": false,
      "t": 18385.151354166697,
      "d": 119.04750000000058,
      "v": 60
    },
    {
      "midi": 42,
      "hit": false,
      "t": 18385.151354166697,
      "d": 119.04750000000058,
      "v": 100
    },
    {
      "midi": 35,
      "hit": false,
      "t": 18385.151354166697,
      "d": 119.04750000000058,
      "v": 100
    },
    {
      "midi": 54,
      "hit": false,
      "t": 18623.2463541667,
      "d": 31.745999999999185,
      "v": 127
    },
    {
      "midi": 69,
      "hit": false,
      "t": 18623.2463541667,
      "d": 119.04750000000058,
      "v": 100
    },
    {
      "midi": 70,
      "hit": false,
      "t": 18623.2463541667,
      "d": 119.04750000000058,
      "v": 100
    },
    {
      "midi": 42,
      "hit": false,
      "t": 18623.2463541667,
      "d": 119.04750000000058,
      "v": 115
    },
    {
      "midi": 38,
      "hit": false,
      "t": 18623.2463541667,
      "d": 119.04750000000058,
      "v": 115
    },
    {
      "midi": 35,
      "hit": false,
      "t": 18623.2463541667,
      "d": 170.63475000000108,
      "v": 110
    },
    {
      "midi": 47,
      "hit": false,
      "t": 18623.2463541667,
      "d": 436.50750000000335,
      "v": 100
    },
    {
      "midi": 69,
      "hit": false,
      "t": 18861.3413541667,
      "d": 119.04750000000058,
      "v": 60
    },
    {
      "midi": 42,
      "hit": false,
      "t": 18861.3413541667,
      "d": 119.04750000000058,
      "v": 100
    },
    {
      "midi": 35,
      "hit": false,
      "t": 18861.3413541667,
      "d": 119.04750000000058,
      "v": 100
    },
    {
      "midi": 54,
      "hit": false,
      "t": 18861.3413541667,
      "d": 130.9522500000021,
      "v": 100
    },
    {
      "midi": 76,
      "hit": false,
      "t": 18861.3413541667,
      "d": 236.11087500000212,
      "v": 127
    },
    {
      "midi": 35,
      "hit": false,
      "t": 19099.4363541667,
      "d": 111.11100000000079,
      "v": 115
    },
    {
      "midi": 69,
      "hit": false,
      "t": 19099.4363541667,
      "d": 119.04750000000058,
      "v": 100
    },
    {
      "midi": 70,
      "hit": false,
      "t": 19099.4363541667,
      "d": 119.04750000000058,
      "v": 100
    },
    {
      "midi": 54,
      "hit": false,
      "t": 19099.4363541667,
      "d": 119.04750000000058,
      "v": 100
    },
    {
      "midi": 42,
      "hit": false,
      "t": 19099.4363541667,
      "d": 119.04750000000058,
      "v": 115
    },
    {
      "midi": 76,
      "hit": false,
      "t": 19099.4363541667,
      "d": 950.395875000002,
      "v": 39
    },
    {
      "midi": 73,
      "hit": false,
      "t": 19099.4363541667,
      "d": 1123.014750000002,
      "v": 47
    },
    {
      "midi": 64,
      "hit": false,
      "t": 19099.4363541667,
      "d": 1206.3480000000054,
      "v": 42
    },
    {
      "midi": 69,
      "hit": false,
      "t": 19337.531354166702,
      "d": 119.04750000000058,
      "v": 60
    },
    {
      "midi": 42,
      "hit": false,
      "t": 19337.531354166702,
      "d": 119.04750000000058,
      "v": 100
    },
    {
      "midi": 35,
      "hit": false,
      "t": 19337.531354166702,
      "d": 119.04750000000058,
      "v": 100
    },
    {
      "midi": 52,
      "hit": false,
      "t": 19337.531354166702,
      "d": 182.53949999999895,
      "v": 107
    },
    {
      "midi": 47,
      "hit": false,
      "t": 19337.531354166702,
      "d": 194.44425000000047,
      "v": 110
    },
    {
      "midi": 35,
      "hit": false,
      "t": 19575.626354166703,
      "d": 79.3650000000016,
      "v": 107
    },
    {
      "midi": 69,
      "hit": false,
      "t": 19575.626354166703,
      "d": 119.04750000000058,
      "v": 100
    },
    {
      "midi": 70,
      "hit": false,
      "t": 19575.626354166703,
      "d": 119.04750000000058,
      "v": 100
    },
    {
      "midi": 54,
      "hit": false,
      "t": 19575.626354166703,
      "d": 119.04750000000058,
      "v": 127
    },
    {
      "midi": 42,
      "hit": false,
      "t": 19575.626354166703,
      "d": 119.04750000000058,
      "v": 115
    },
    {
      "midi": 38,
      "hit": false,
      "t": 19575.626354166703,
      "d": 119.04750000000058,
      "v": 115
    },
    {
      "midi": 69,
      "hit": false,
      "t": 19813.721354166704,
      "d": 119.04750000000058,
      "v": 60
    },
    {
      "midi": 42,
      "hit": false,
      "t": 19813.721354166704,
      "d": 119.04750000000058,
      "v": 100
    },
    {
      "midi": 35,
      "hit": false,
      "t": 19813.721354166704,
      "d": 119.04750000000058,
      "v": 100
    },
    {
      "midi": 38,
      "hit": false,
      "t": 19932.768854166705,
      "d": 119.04749999999694,
      "v": 60
    },
    {
      "midi": 69,
      "hit": false,
      "t": 20051.8163541667,
      "d": 119.04750000000058,
      "v": 100
    },
    {
      "midi": 70,
      "hit": false,
      "t": 20051.8163541667,
      "d": 119.04750000000058,
      "v": 100
    },
    {
      "midi": 54,
      "hit": false,
      "t": 20051.8163541667,
      "d": 119.04750000000058,
      "v": 100
    },
    {
      "midi": 42,
      "hit": false,
      "t": 20051.8163541667,
      "d": 119.04750000000058,
      "v": 115
    },
    {
      "midi": 35,
      "hit": false,
      "t": 20051.8163541667,
      "d": 119.04750000000058,
      "v": 115
    },
    {
      "midi": 52,
      "hit": false,
      "t": 20051.8163541667,
      "d": 801.5865000000122,
      "v": 110
    },
    {
      "midi": 69,
      "hit": false,
      "t": 20289.911354166707,
      "d": 119.04750000000058,
      "v": 60
    },
    {
      "midi": 42,
      "hit": false,
      "t": 20289.911354166707,
      "d": 119.04750000000058,
      "v": 90
    },
    {
      "midi": 35,
      "hit": false,
      "t": 20289.911354166707,
      "d": 119.04750000000058,
      "v": 90
    },
    {
      "midi": 47,
      "hit": false,
      "t": 20305.784354166706,
      "d": 253.9680000000044,
      "v": 59
    },
    {
      "midi": 23,
      "hit": false,
      "t": 20408.958854166707,
      "d": 99.20625000000291,
      "v": 72
    },
    {
      "midi": 35,
      "hit": false,
      "t": 20528.00635416671,
      "d": 111.11100000000079,
      "v": 127
    },
    {
      "midi": 69,
      "hit": false,
      "t": 20528.00635416671,
      "d": 119.04750000000058,
      "v": 100
    },
    {
      "midi": 70,
      "hit": false,
      "t": 20528.00635416671,
      "d": 119.04750000000058,
      "v": 100
    },
    {
      "midi": 54,
      "hit": false,
      "t": 20528.00635416671,
      "d": 119.04750000000058,
      "v": 127
    },
    {
      "midi": 42,
      "hit": false,
      "t": 20528.00635416671,
      "d": 119.04750000000058,
      "v": 115
    },
    {
      "midi": 38,
      "hit": false,
      "t": 20528.00635416671,
      "d": 119.04750000000058,
      "v": 115
    },
    {
      "midi": 73,
      "hit": false,
      "t": 20528.00635416671,
      "d": 182.53949999999895,
      "v": 74
    },
    {
      "midi": 76,
      "hit": false,
      "t": 20528.00635416671,
      "d": 202.38075000000026,
      "v": 65
    },
    {
      "midi": 64,
      "hit": false,
      "t": 20528.00635416671,
      "d": 214.28550000000178,
      "v": 51
    },
    {
      "midi": 23,
      "hit": false,
      "t": 20647.053854166712,
      "d": 95.2380000000012,
      "v": 76
    },
    {
      "midi": 35,
      "hit": false,
      "t": 20766.101354166713,
      "d": 103.17450000000099,
      "v": 100
    },
    {
      "midi": 69,
      "hit": false,
      "t": 20766.101354166713,
      "d": 119.04750000000422,
      "v": 60
    },
    {
      "midi": 42,
      "hit": false,
      "t": 20766.101354166713,
      "d": 119.04750000000422,
      "v": 90
    },
    {
      "midi": 35,
      "hit": false,
      "t": 20885.148854166717,
      "d": 0,
      "v": 102
    },
    {
      "midi": 35,
      "hit": false,
      "t": 20885.148854166717,
      "d": 31.745999999999185,
      "v": 90
    },
    {
      "midi": 69,
      "hit": false,
      "t": 21004.196354166714,
      "d": 119.04750000000058,
      "v": 100
    },
    {
      "midi": 70,
      "hit": false,
      "t": 21004.196354166714,
      "d": 119.04750000000058,
      "v": 100
    },
    {
      "midi": 54,
      "hit": false,
      "t": 21004.196354166714,
      "d": 119.04750000000058,
      "v": 100
    },
    {
      "midi": 42,
      "hit": false,
      "t": 21004.196354166714,
      "d": 119.04750000000058,
      "v": 115
    },
    {
      "midi": 35,
      "hit": false,
      "t": 21004.196354166714,
      "d": 119.04750000000058,
      "v": 115
    },
    {
      "midi": 62,
      "hit": false,
      "t": 21004.196354166714,
      "d": 1547.6175000000003,
      "v": 46
    },
    {
      "midi": 67,
      "hit": false,
      "t": 21004.196354166714,
      "d": 1555.554,
      "v": 58
    },
    {
      "midi": 71,
      "hit": false,
      "t": 21004.196354166714,
      "d": 1567.4587500000016,
      "v": 52
    },
    {
      "midi": 74,
      "hit": false,
      "t": 21004.196354166714,
      "d": 1902.775875000003,
      "v": 127
    },
    {
      "midi": 69,
      "hit": false,
      "t": 21242.29135416671,
      "d": 119.04750000000058,
      "v": 60
    },
    {
      "midi": 42,
      "hit": false,
      "t": 21242.29135416671,
      "d": 119.04750000000058,
      "v": 90
    },
    {
      "midi": 35,
      "hit": false,
      "t": 21242.29135416671,
      "d": 119.04750000000058,
      "v": 100
    },
    {
      "midi": 69,
      "hit": false,
      "t": 21480.386354166712,
      "d": 119.04750000000058,
      "v": 100
    },
    {
      "midi": 70,
      "hit": false,
      "t": 21480.386354166712,
      "d": 119.04750000000058,
      "v": 100
    },
    {
      "midi": 54,
      "hit": false,
      "t": 21480.386354166712,
      "d": 119.04750000000058,
      "v": 127
    },
    {
      "midi": 42,
      "hit": false,
      "t": 21480.386354166712,
      "d": 119.04750000000058,
      "v": 115
    },
    {
      "midi": 38,
      "hit": false,
      "t": 21480.386354166712,
      "d": 119.04750000000058,
      "v": 115
    },
    {
      "midi": 35,
      "hit": false,
      "t": 21480.386354166712,
      "d": 158.72999999999956,
      "v": 105
    },
    {
      "midi": 50,
      "hit": false,
      "t": 21480.386354166712,
      "d": 202.38075000000026,
      "v": 102
    },
    {
      "midi": 69,
      "hit": false,
      "t": 21718.481354166714,
      "d": 119.04750000000058,
      "v": 60
    },
    {
      "midi": 42,
      "hit": false,
      "t": 21718.481354166714,
      "d": 119.04750000000058,
      "v": 90
    },
    {
      "midi": 35,
      "hit": false,
      "t": 21718.481354166714,
      "d": 119.04750000000058,
      "v": 100
    },
    {
      "midi": 69,
      "hit": false,
      "t": 21956.57635416671,
      "d": 119.04750000000058,
      "v": 100
    },
    {
      "midi": 70,
      "hit": false,
      "t": 21956.57635416671,
      "d": 119.04750000000058,
      "v": 100
    },
    {
      "midi": 54,
      "hit": false,
      "t": 21956.57635416671,
      "d": 119.04750000000058,
      "v": 100
    },
    {
      "midi": 42,
      "hit": false,
      "t": 21956.57635416671,
      "d": 119.04750000000058,
      "v": 115
    },
    {
      "midi": 35,
      "hit": false,
      "t": 21956.57635416671,
      "d": 119.04750000000058,
      "v": 115
    },
    {
      "midi": 69,
      "hit": false,
      "t": 22194.671354166712,
      "d": 119.04750000000058,
      "v": 60
    },
    {
      "midi": 42,
      "hit": false,
      "t": 22194.671354166712,
      "d": 119.04750000000058,
      "v": 100
    },
    {
      "midi": 35,
      "hit": false,
      "t": 22194.671354166712,
      "d": 119.04750000000058,
      "v": 100
    },
    {
      "midi": 50,
      "hit": false,
      "t": 22194.671354166712,
      "d": 238.09500000000116,
      "v": 100
    },
    {
      "midi": 35,
      "hit": false,
      "t": 22432.766354166713,
      "d": 27.777750000001106,
      "v": 110
    },
    {
      "midi": 69,
      "hit": false,
      "t": 22432.766354166713,
      "d": 119.04750000000058,
      "v": 100
    },
    {
      "midi": 70,
      "hit": false,
      "t": 22432.766354166713,
      "d": 119.04750000000058,
      "v": 100
    },
    {
      "midi": 54,
      "hit": false,
      "t": 22432.766354166713,
      "d": 119.04750000000058,
      "v": 127
    },
    {
      "midi": 42,
      "hit": false,
      "t": 22432.766354166713,
      "d": 119.04750000000058,
      "v": 115
    },
    {
      "midi": 38,
      "hit": false,
      "t": 22432.766354166713,
      "d": 119.04750000000058,
      "v": 115
    },
    {
      "midi": 69,
      "hit": false,
      "t": 22670.861354166715,
      "d": 119.04750000000058,
      "v": 60
    },
    {
      "midi": 42,
      "hit": false,
      "t": 22670.861354166715,
      "d": 119.04750000000058,
      "v": 100
    },
    {
      "midi": 35,
      "hit": false,
      "t": 22670.861354166715,
      "d": 119.04750000000058,
      "v": 100
    },
    {
      "midi": 67,
      "hit": false,
      "t": 22670.861354166715,
      "d": 630.9517500000038,
      "v": 58
    },
    {
      "midi": 62,
      "hit": false,
      "t": 22670.861354166715,
      "d": 666.6660000000047,
      "v": 46
    },
    {
      "midi": 35,
      "hit": false,
      "t": 22908.956354166716,
      "d": 115.07924999999886,
      "v": 115
    },
    {
      "midi": 69,
      "hit": false,
      "t": 22908.956354166716,
      "d": 119.04750000000058,
      "v": 100
    },
    {
      "midi": 70,
      "hit": false,
      "t": 22908.956354166716,
      "d": 119.04750000000058,
      "v": 100
    },
    {
      "midi": 54,
      "hit": false,
      "t": 22908.956354166716,
      "d": 119.04750000000058,
      "v": 100
    },
    {
      "midi": 42,
      "hit": false,
      "t": 22908.956354166716,
      "d": 119.04750000000058,
      "v": 115
    },
    {
      "midi": 50,
      "hit": false,
      "t": 23147.051354166717,
      "d": 59.52375000000029,
      "v": 46
    },
    {
      "midi": 69,
      "hit": false,
      "t": 23147.051354166717,
      "d": 119.04750000000058,
      "v": 60
    },
    {
      "midi": 42,
      "hit": false,
      "t": 23147.051354166717,
      "d": 119.04750000000058,
      "v": 100
    },
    {
      "midi": 35,
      "hit": false,
      "t": 23147.051354166717,
      "d": 119.04750000000058,
      "v": 100
    },
    {
      "midi": 62,
      "hit": false,
      "t": 23385.14635416672,
      "d": 67.46025000000009,
      "v": 44
    },
    {
      "midi": 67,
      "hit": false,
      "t": 23385.14635416672,
      "d": 75.39674999999988,
      "v": 63
    },
    {
      "midi": 71,
      "hit": false,
      "t": 23385.14635416672,
      "d": 95.2380000000012,
      "v": 65
    },
    {
      "midi": 35,
      "hit": false,
      "t": 23385.14635416672,
      "d": 119.04750000000058,
      "v": 107
    },
    {
      "midi": 69,
      "hit": false,
      "t": 23385.14635416672,
      "d": 119.04750000000058,
      "v": 100
    },
    {
      "midi": 70,
      "hit": false,
      "t": 23385.14635416672,
      "d": 119.04750000000058,
      "v": 100
    },
    {
      "midi": 54,
      "hit": false,
      "t": 23385.14635416672,
      "d": 119.04750000000058,
      "v": 127
    },
    {
      "midi": 42,
      "hit": false,
      "t": 23385.14635416672,
      "d": 119.04750000000058,
      "v": 115
    },
    {
      "midi": 38,
      "hit": false,
      "t": 23385.14635416672,
      "d": 119.04750000000058,
      "v": 115
    },
    {
      "midi": 50,
      "hit": false,
      "t": 23623.241354166723,
      "d": 111.11100000000079,
      "v": 44
    },
    {
      "midi": 69,
      "hit": false,
      "t": 23623.241354166723,
      "d": 119.04750000000058,
      "v": 60
    },
    {
      "midi": 42,
      "hit": false,
      "t": 23623.241354166723,
      "d": 119.04750000000058,
      "v": 100
    },
    {
      "midi": 35,
      "hit": false,
      "t": 23623.241354166723,
      "d": 119.04750000000058,
      "v": 100
    },
    {
      "midi": 69,
      "hit": false,
      "t": 23861.336354166724,
      "d": 119.04750000000058,
      "v": 100
    },
    {
      "midi": 70,
      "hit": false,
      "t": 23861.336354166724,
      "d": 119.04750000000058,
      "v": 100
    },
    {
      "midi": 54,
      "hit": false,
      "t": 23861.336354166724,
      "d": 119.04750000000058,
      "v": 100
    },
    {
      "midi": 42,
      "hit": false,
      "t": 23861.336354166724,
      "d": 119.04750000000058,
      "v": 115
    },
    {
      "midi": 35,
      "hit": false,
      "t": 23861.336354166724,
      "d": 119.04750000000058,
      "v": 115
    },
    {
      "midi": 67,
      "hit": false,
      "t": 23861.336354166724,
      "d": 444.44400000000314,
      "v": 65
    },
    {
      "midi": 62,
      "hit": false,
      "t": 23861.336354166724,
      "d": 448.41225000000486,
      "v": 56
    },
    {
      "midi": 55,
      "hit": false,
      "t": 23861.336354166724,
      "d": 555.5550000000039,
      "v": 89
    },
    {
      "midi": 69,
      "hit": false,
      "t": 24099.431354166725,
      "d": 119.04750000000058,
      "v": 60
    },
    {
      "midi": 42,
      "hit": false,
      "t": 24099.431354166725,
      "d": 119.04750000000058,
      "v": 100
    },
    {
      "midi": 35,
      "hit": false,
      "t": 24099.431354166725,
      "d": 119.04750000000058,
      "v": 100
    },
    {
      "midi": 69,
      "hit": false,
      "t": 24337.52635416673,
      "d": 47.61899999999878,
      "v": 100
    },
    {
      "midi": 35,
      "hit": false,
      "t": 24337.52635416673,
      "d": 99.20624999999927,
      "v": 102
    },
    {
      "midi": 70,
      "hit": false,
      "t": 24337.52635416673,
      "d": 119.04750000000058,
      "v": 100
    },
    {
      "midi": 54,
      "hit": false,
      "t": 24337.52635416673,
      "d": 119.04750000000058,
      "v": 127
    },
    {
      "midi": 42,
      "hit": false,
      "t": 24337.52635416673,
      "d": 119.04750000000058,
      "v": 115
    },
    {
      "midi": 38,
      "hit": false,
      "t": 24337.52635416673,
      "d": 119.04750000000058,
      "v": 115
    },
    {
      "midi": 71,
      "hit": false,
      "t": 24337.52635416673,
      "d": 130.9522500000021,
      "v": 76
    },
    {
      "midi": 67,
      "hit": false,
      "t": 24337.52635416673,
      "d": 134.9205000000038,
      "v": 60
    },
    {
      "midi": 62,
      "hit": false,
      "t": 24337.52635416673,
      "d": 154.76175000000512,
      "v": 65
    },
    {
      "midi": 50,
      "hit": false,
      "t": 24337.52635416673,
      "d": 293.6505000000034,
      "v": 100
    },
    {
      "midi": 69,
      "hit": false,
      "t": 24575.621354166735,
      "d": 119.04749999999694,
      "v": 60
    },
    {
      "midi": 42,
      "hit": false,
      "t": 24575.621354166735,
      "d": 119.04749999999694,
      "v": 80
    },
    {
      "midi": 35,
      "hit": false,
      "t": 24575.621354166735,
      "d": 119.04749999999694,
      "v": 100
    },
    {
      "midi": 66,
      "hit": false,
      "t": 24575.621354166735,
      "d": 236.1108749999985,
      "v": 127
    },
    {
      "midi": 69,
      "hit": false,
      "t": 24813.716354166732,
      "d": 119.04750000000058,
      "v": 100
    },
    {
      "midi": 70,
      "hit": false,
      "t": 24813.716354166732,
      "d": 119.04750000000058,
      "v": 100
    },
    {
      "midi": 54,
      "hit": false,
      "t": 24813.716354166732,
      "d": 119.04750000000058,
      "v": 100
    },
    {
      "midi": 42,
      "hit": false,
      "t": 24813.716354166732,
      "d": 119.04750000000058,
      "v": 115
    },
    {
      "midi": 35,
      "hit": false,
      "t": 24813.716354166732,
      "d": 119.04750000000058,
      "v": 115
    },
    {
      "midi": 74,
      "hit": false,
      "t": 24813.716354166732,
      "d": 236.1108749999985,
      "v": 60
    },
    {
      "midi": 66,
      "hit": false,
      "t": 24813.716354166732,
      "d": 1761.9029999999984,
      "v": 47
    },
    {
      "midi": 78,
      "hit": false,
      "t": 24813.716354166732,
      "d": 1781.7442499999997,
      "v": 57
    },
    {
      "midi": 69,
      "hit": false,
      "t": 25051.81135416673,
      "d": 119.04750000000058,
      "v": 60
    },
    {
      "midi": 42,
      "hit": false,
      "t": 25051.81135416673,
      "d": 119.04750000000058,
      "v": 100
    },
    {
      "midi": 35,
      "hit": false,
      "t": 25051.81135416673,
      "d": 119.04750000000058,
      "v": 100
    },
    {
      "midi": 54,
      "hit": false,
      "t": 25051.81135416673,
      "d": 182.5395000000026,
      "v": 107
    },
    {
      "midi": 47,
      "hit": false,
      "t": 25051.81135416673,
      "d": 194.4442500000041,
      "v": 110
    },
    {
      "midi": 73,
      "hit": false,
      "t": 25051.81135416673,
      "d": 236.11087500000576,
      "v": 127
    },
    {
      "midi": 35,
      "hit": false,
      "t": 25289.906354166735,
      "d": 79.3650000000016,
      "v": 105
    },
    {
      "midi": 69,
      "hit": false,
      "t": 25289.906354166735,
      "d": 119.04750000000058,
      "v": 100
    },
    {
      "midi": 70,
      "hit": false,
      "t": 25289.906354166735,
      "d": 119.04750000000058,
      "v": 100
    },
    {
      "midi": 54,
      "hit": false,
      "t": 25289.906354166735,
      "d": 119.04750000000058,
      "v": 127
    },
    {
      "midi": 42,
      "hit": false,
      "t": 25289.906354166735,
      "d": 119.04750000000058,
      "v": 115
    },
    {
      "midi": 38,
      "hit": false,
      "t": 25289.906354166735,
      "d": 119.04750000000058,
      "v": 115
    },
    {
      "midi": 71,
      "hit": false,
      "t": 25289.906354166735,
      "d": 236.1108749999985,
      "v": 127
    },
    {
      "midi": 69,
      "hit": false,
      "t": 25528.001354166732,
      "d": 119.04750000000058,
      "v": 60
    },
    {
      "midi": 42,
      "hit": false,
      "t": 25528.001354166732,
      "d": 119.04750000000058,
      "v": 100
    },
    {
      "midi": 35,
      "hit": false,
      "t": 25528.001354166732,
      "d": 119.04750000000058,
      "v": 100
    },
    {
      "midi": 73,
      "hit": false,
      "t": 25528.001354166732,
      "d": 236.1108749999985,
      "v": 127
    },
    {
      "midi": 69,
      "hit": false,
      "t": 25766.09635416673,
      "d": 119.04750000000058,
      "v": 100
    },
    {
      "midi": 70,
      "hit": false,
      "t": 25766.09635416673,
      "d": 119.04750000000058,
      "v": 100
    },
    {
      "midi": 54,
      "hit": false,
      "t": 25766.09635416673,
      "d": 119.04750000000058,
      "v": 100
    },
    {
      "midi": 42,
      "hit": false,
      "t": 25766.09635416673,
      "d": 119.04750000000058,
      "v": 115
    },
    {
      "midi": 35,
      "hit": false,
      "t": 25766.09635416673,
      "d": 119.04750000000058,
      "v": 115
    },
    {
      "midi": 74,
      "hit": false,
      "t": 25766.09635416673,
      "d": 236.1108749999985,
      "v": 127
    },
    {
      "midi": 47,
      "hit": false,
      "t": 25766.09635416673,
      "d": 821.4277500000026,
      "v": 110
    },
    {
      "midi": 73,
      "hit": false,
      "t": 26004.191354166727,
      "d": 117.06337500000154,
      "v": 127
    },
    {
      "midi": 69,
      "hit": false,
      "t": 26004.191354166727,
      "d": 119.04750000000058,
      "v": 60
    },
    {
      "midi": 42,
      "hit": false,
      "t": 26004.191354166727,
      "d": 119.04750000000058,
      "v": 100
    },
    {
      "midi": 35,
      "hit": false,
      "t": 26004.191354166727,
      "d": 119.04750000000058,
      "v": 100
    },
    {
      "midi": 71,
      "hit": false,
      "t": 26123.238854166728,
      "d": 355.1583750000027,
      "v": 127
    },
    {
      "midi": 69,
      "hit": false,
      "t": 26242.28635416673,
      "d": 119.04750000000058,
      "v": 100
    },
    {
      "midi": 70,
      "hit": false,
      "t": 26242.28635416673,
      "d": 119.04750000000058,
      "v": 100
    },
    {
      "midi": 54,
      "hit": false,
      "t": 26242.28635416673,
      "d": 119.04750000000058,
      "v": 127
    },
    {
      "midi": 42,
      "hit": false,
      "t": 26242.28635416673,
      "d": 119.04750000000058,
      "v": 115
    },
    {
      "midi": 38,
      "hit": false,
      "t": 26242.28635416673,
      "d": 119.04750000000058,
      "v": 115
    },
    {
      "midi": 35,
      "hit": false,
      "t": 26242.28635416673,
      "d": 170.63475000000108,
      "v": 110
    },
    {
      "midi": 71,
      "hit": false,
      "t": 26480.38135416673,
      "d": 103.17450000000099,
      "v": 127
    },
    {
      "midi": 69,
      "hit": false,
      "t": 26480.38135416673,
      "d": 119.04750000000422,
      "v": 60
    },
    {
      "midi": 42,
      "hit": false,
      "t": 26480.38135416673,
      "d": 119.04750000000422,
      "v": 80
    },
    {
      "midi": 35,
      "hit": false,
      "t": 26480.38135416673,
      "d": 119.04750000000422,
      "v": 100
    },
    {
      "midi": 35,
      "hit": false,
      "t": 26718.47635416673,
      "d": 111.11100000000079,
      "v": 115
    },
    {
      "midi": 69,
      "hit": false,
      "t": 26718.47635416673,
      "d": 119.04750000000058,
      "v": 100
    },
    {
      "midi": 70,
      "hit": false,
      "t": 26718.47635416673,
      "d": 119.04750000000058,
      "v": 100
    },
    {
      "midi": 54,
      "hit": false,
      "t": 26718.47635416673,
      "d": 119.04750000000058,
      "v": 100
    },
    {
      "midi": 42,
      "hit": false,
      "t": 26718.47635416673,
      "d": 119.04750000000058,
      "v": 115
    },
    {
      "midi": 76,
      "hit": false,
      "t": 26718.47635416673,
      "d": 178.57125000000087,
      "v": 57
    },
    {
      "midi": 73,
      "hit": false,
      "t": 26718.47635416673,
      "d": 190.4760000000024,
      "v": 53
    },
    {
      "midi": 81,
      "hit": false,
      "t": 26718.47635416673,
      "d": 210.3172500000037,
      "v": 55
    },
    {
      "midi": 35,
      "hit": false,
      "t": 26956.571354166736,
      "d": 87.3015000000014,
      "v": 100
    },
    {
      "midi": 69,
      "hit": false,
      "t": 26956.571354166736,
      "d": 119.04750000000058,
      "v": 60
    },
    {
      "midi": 42,
      "hit": false,
      "t": 26956.571354166736,
      "d": 119.04750000000058,
      "v": 90
    },
    {
      "midi": 52,
      "hit": false,
      "t": 26956.571354166736,
      "d": 154.76175000000148,
      "v": 91
    },
    {
      "midi": 47,
      "hit": false,
      "t": 26956.571354166736,
      "d": 166.666500000003,
      "v": 93
    },
    {
      "midi": 71,
      "hit": false,
      "t": 27075.618854166736,
      "d": 355.15837500000634,
      "v": 127
    },
    {
      "midi": 35,
      "hit": false,
      "t": 27194.66635416674,
      "d": 91.26974999999948,
      "v": 110
    },
    {
      "midi": 69,
      "hit": false,
      "t": 27194.66635416674,
      "d": 119.04750000000058,
      "v": 100
    },
    {
      "midi": 70,
      "hit": false,
      "t": 27194.66635416674,
      "d": 119.04750000000058,
      "v": 100
    },
    {
      "midi": 54,
      "hit": false,
      "t": 27194.66635416674,
      "d": 119.04750000000058,
      "v": 127
    },
    {
      "midi": 42,
      "hit": false,
      "t": 27194.66635416674,
      "d": 119.04750000000058,
      "v": 115
    },
    {
      "midi": 38,
      "hit": false,
      "t": 27194.66635416674,
      "d": 119.04750000000058,
      "v": 115
    },
    {
      "midi": 69,
      "hit": false,
      "t": 27432.76135416674,
      "d": 119.04750000000058,
      "v": 60
    },
    {
      "midi": 46,
      "hit": false,
      "t": 27432.76135416674,
      "d": 119.04750000000058,
      "v": 100
    },
    {
      "midi": 35,
      "hit": false,
      "t": 27432.76135416674,
      "d": 119.04750000000058,
      "v": 90
    },
    {
      "midi": 73,
      "hit": false,
      "t": 27432.76135416674,
      "d": 948.4117500000029,
      "v": 62
    },
    {
      "midi": 76,
      "hit": false,
      "t": 27432.76135416674,
      "d": 948.4117500000029,
      "v": 62
    },
    {
      "midi": 81,
      "hit": false,
      "t": 27432.76135416674,
      "d": 952.3800000000047,
      "v": 60
    },
    {
      "midi": 35,
      "hit": false,
      "t": 27670.85635416674,
      "d": 107.14274999999907,
      "v": 115
    },
    {
      "midi": 69,
      "hit": false,
      "t": 27670.85635416674,
      "d": 119.04750000000058,
      "v": 100
    },
    {
      "midi": 70,
      "hit": false,
      "t": 27670.85635416674,
      "d": 119.04750000000058,
      "v": 100
    },
    {
      "midi": 54,
      "hit": false,
      "t": 27670.85635416674,
      "d": 119.04750000000058,
      "v": 100
    },
    {
      "midi": 42,
      "hit": false,
      "t": 27670.85635416674,
      "d": 119.04750000000058,
      "v": 115
    },
    {
      "midi": 47,
      "hit": false,
      "t": 27670.85635416674,
      "d": 313.49175000000105,
      "v": 107
    },
    {
      "midi": 57,
      "hit": false,
      "t": 27670.85635416674,
      "d": 734.1262500000084,
      "v": 100
    },
    {
      "midi": 35,
      "hit": false,
      "t": 27908.95135416674,
      "d": 91.26974999999948,
      "v": 90
    },
    {
      "midi": 69,
      "hit": false,
      "t": 27908.95135416674,
      "d": 119.04750000000058,
      "v": 60
    },
    {
      "midi": 42,
      "hit": false,
      "t": 27908.95135416674,
      "d": 119.04750000000058,
      "v": 100
    },
    {
      "midi": 52,
      "hit": false,
      "t": 27908.95135416674,
      "d": 321.42825000000084,
      "v": 89
    },
    {
      "midi": 69,
      "hit": false,
      "t": 28147.04635416674,
      "d": 119.04750000000058,
      "v": 100
    },
    {
      "midi": 70,
      "hit": false,
      "t": 28147.04635416674,
      "d": 119.04750000000058,
      "v": 100
    },
    {
      "midi": 54,
      "hit": false,
      "t": 28147.04635416674,
      "d": 119.04750000000058,
      "v": 127
    },
    {
      "midi": 42,
      "hit": false,
      "t": 28147.04635416674,
      "d": 119.04750000000058,
      "v": 115
    },
    {
      "midi": 38,
      "hit": false,
      "t": 28147.04635416674,
      "d": 119.04750000000058,
      "v": 115
    },
    {
      "midi": 35,
      "hit": false,
      "t": 28147.04635416674,
      "d": 130.9522500000021,
      "v": 122
    },
    {
      "midi": 47,
      "hit": false,
      "t": 28147.04635416674,
      "d": 456.34875000000466,
      "v": 102
    },
    {
      "midi": 69,
      "hit": false,
      "t": 28385.141354166746,
      "d": 7.936499999999796,
      "v": 60
    },
    {
      "midi": 35,
      "hit": false,
      "t": 28385.141354166746,
      "d": 55.55550000000221,
      "v": 100
    },
    {
      "midi": 42,
      "hit": false,
      "t": 28385.141354166746,
      "d": 119.04750000000058,
      "v": 100
    },
    {
      "midi": 52,
      "hit": false,
      "t": 28385.141354166746,
      "d": 178.57125000000087,
      "v": 98
    },
    {
      "midi": 23,
      "hit": false,
      "t": 28504.188854166747,
      "d": 67.46025000000009,
      "v": 85
    },
    {
      "midi": 69,
      "hit": false,
      "t": 28623.236354166747,
      "d": 119.04750000000058,
      "v": 100
    },
    {
      "midi": 70,
      "hit": false,
      "t": 28623.236354166747,
      "d": 119.04750000000058,
      "v": 100
    },
    {
      "midi": 54,
      "hit": false,
      "t": 28623.236354166747,
      "d": 119.04750000000058,
      "v": 100
    },
    {
      "midi": 42,
      "hit": false,
      "t": 28623.236354166747,
      "d": 119.04750000000058,
      "v": 115
    },
    {
      "midi": 35,
      "hit": false,
      "t": 28623.236354166747,
      "d": 119.04750000000058,
      "v": 115
    },
    {
      "midi": 83,
      "hit": false,
      "t": 28623.236354166747,
      "d": 178.57125000000087,
      "v": 57
    },
    {
      "midi": 74,
      "hit": false,
      "t": 28623.236354166747,
      "d": 190.4760000000024,
      "v": 35
    },
    {
      "midi": 79,
      "hit": false,
      "t": 28623.236354166747,
      "d": 190.4760000000024,
      "v": 53
    },
    {
      "midi": 86,
      "hit": false,
      "t": 28623.236354166747,
      "d": 210.3172500000037,
      "v": 55
    },
    {
      "midi": 71,
      "hit": false,
      "t": 28623.236354166747,
      "d": 236.11087500000212,
      "v": 127
    },
    {
      "midi": 69,
      "hit": false,
      "t": 28861.33135416675,
      "d": 119.04750000000058,
      "v": 60
    },
    {
      "midi": 42,
      "hit": false,
      "t": 28861.33135416675,
      "d": 119.04750000000058,
      "v": 90
    },
    {
      "midi": 35,
      "hit": false,
      "t": 28861.33135416675,
      "d": 119.04750000000058,
      "v": 100
    },
    {
      "midi": 50,
      "hit": false,
      "t": 28861.33135416675,
      "d": 182.5395000000026,
      "v": 107
    },
    {
      "midi": 69,
      "hit": false,
      "t": 29099.426354166753,
      "d": 119.04750000000058,
      "v": 100
    },
    {
      "midi": 70,
      "hit": false,
      "t": 29099.426354166753,
      "d": 119.04750000000058,
      "v": 100
    },
    {
      "midi": 54,
      "hit": false,
      "t": 29099.426354166753,
      "d": 119.04750000000058,
      "v": 127
    },
    {
      "midi": 42,
      "hit": false,
      "t": 29099.426354166753,
      "d": 119.04750000000058,
      "v": 115
    },
    {
      "midi": 38,
      "hit": false,
      "t": 29099.426354166753,
      "d": 119.04750000000058,
      "v": 115
    },
    {
      "midi": 35,
      "hit": false,
      "t": 29099.426354166753,
      "d": 142.85699999999997,
      "v": 113
    },
    {
      "midi": 71,
      "hit": false,
      "t": 29099.426354166753,
      "d": 236.1108749999985,
      "v": 127
    },
    {
      "midi": 69,
      "hit": false,
      "t": 29337.52135416675,
      "d": 119.04750000000058,
      "v": 60
    },
    {
      "midi": 46,
      "hit": false,
      "t": 29337.52135416675,
      "d": 119.04750000000058,
      "v": 100
    },
    {
      "midi": 35,
      "hit": false,
      "t": 29337.52135416675,
      "d": 119.04750000000058,
      "v": 90
    },
    {
      "midi": 79,
      "hit": false,
      "t": 29337.52135416675,
      "d": 948.4117499999957,
      "v": 62
    },
    {
      "midi": 83,
      "hit": false,
      "t": 29337.52135416675,
      "d": 948.4117499999957,
      "v": 62
    },
    {
      "midi": 86,
      "hit": false,
      "t": 29337.52135416675,
      "d": 952.3799999999937,
      "v": 60
    },
    {
      "midi": 69,
      "hit": false,
      "t": 29575.616354166752,
      "d": 119.04750000000058,
      "v": 100
    },
    {
      "midi": 70,
      "hit": false,
      "t": 29575.616354166752,
      "d": 119.04750000000058,
      "v": 100
    },
    {
      "midi": 54,
      "hit": false,
      "t": 29575.616354166752,
      "d": 119.04750000000058,
      "v": 100
    },
    {
      "midi": 42,
      "hit": false,
      "t": 29575.616354166752,
      "d": 119.04750000000058,
      "v": 115
    },
    {
      "midi": 35,
      "hit": false,
      "t": 29575.616354166752,
      "d": 119.04750000000058,
      "v": 115
    },
    {
      "midi": 74,
      "hit": false,
      "t": 29575.616354166752,
      "d": 236.1108749999985,
      "v": 127
    },
    {
      "midi": 50,
      "hit": false,
      "t": 29575.616354166752,
      "d": 801.586499999994,
      "v": 110
    },
    {
      "midi": 69,
      "hit": false,
      "t": 29813.71135416675,
      "d": 119.04750000000058,
      "v": 60
    },
    {
      "midi": 42,
      "hit": false,
      "t": 29813.71135416675,
      "d": 119.04750000000058,
      "v": 100
    },
    {
      "midi": 35,
      "hit": false,
      "t": 29813.71135416675,
      "d": 119.04750000000058,
      "v": 90
    },
    {
      "midi": 73,
      "hit": false,
      "t": 29813.71135416675,
      "d": 236.1108749999985,
      "v": 127
    },
    {
      "midi": 69,
      "hit": false,
      "t": 30051.806354166747,
      "d": 119.04750000000058,
      "v": 100
    },
    {
      "midi": 70,
      "hit": false,
      "t": 30051.806354166747,
      "d": 119.04750000000058,
      "v": 100
    },
    {
      "midi": 54,
      "hit": false,
      "t": 30051.806354166747,
      "d": 119.04750000000058,
      "v": 127
    },
    {
      "midi": 42,
      "hit": false,
      "t": 30051.806354166747,
      "d": 119.04750000000058,
      "v": 115
    },
    {
      "midi": 38,
      "hit": false,
      "t": 30051.806354166747,
      "d": 119.04750000000058,
      "v": 115
    },
    {
      "midi": 35,
      "hit": false,
      "t": 30051.806354166747,
      "d": 134.92050000000017,
      "v": 105
    },
    {
      "midi": 71,
      "hit": false,
      "t": 30051.806354166747,
      "d": 236.1108749999985,
      "v": 127
    },
    {
      "midi": 35,
      "hit": false,
      "t": 30289.901354166745,
      "d": 107.1427500000027,
      "v": 100
    },
    {
      "midi": 69,
      "hit": false,
      "t": 30289.901354166745,
      "d": 119.04750000000422,
      "v": 60
    },
    {
      "midi": 42,
      "hit": false,
      "t": 30289.901354166745,
      "d": 119.04750000000422,
      "v": 100
    },
    {
      "midi": 69,
      "hit": false,
      "t": 30527.99635416675,
      "d": 119.04750000000058,
      "v": 100
    },
    {
      "midi": 70,
      "hit": false,
      "t": 30527.99635416675,
      "d": 119.04750000000058,
      "v": 100
    },
    {
      "midi": 54,
      "hit": false,
      "t": 30527.99635416675,
      "d": 119.04750000000058,
      "v": 100
    },
    {
      "midi": 42,
      "hit": false,
      "t": 30527.99635416675,
      "d": 119.04750000000058,
      "v": 115
    },
    {
      "midi": 35,
      "hit": false,
      "t": 30527.99635416675,
      "d": 119.04750000000058,
      "v": 115
    },
    {
      "midi": 66,
      "hit": false,
      "t": 30527.99635416675,
      "d": 712.3008750000045,
      "v": 127
    },
    {
      "midi": 73,
      "hit": false,
      "t": 30527.99635416675,
      "d": 1123.0147500000057,
      "v": 47
    },
    {
      "midi": 76,
      "hit": false,
      "t": 30527.99635416675,
      "d": 1134.9195000000072,
      "v": 39
    },
    {
      "midi": 64,
      "hit": false,
      "t": 30527.99635416675,
      "d": 1206.348000000009,
      "v": 42
    },
    {
      "midi": 69,
      "hit": false,
      "t": 30766.09135416675,
      "d": 119.04750000000058,
      "v": 60
    },
    {
      "midi": 42,
      "hit": false,
      "t": 30766.09135416675,
      "d": 119.04750000000058,
      "v": 70
    },
    {
      "midi": 35,
      "hit": false,
      "t": 30766.09135416675,
      "d": 119.04750000000058,
      "v": 100
    },
    {
      "midi": 52,
      "hit": false,
      "t": 30766.09135416675,
      "d": 182.5395000000026,
      "v": 107
    },
    {
      "midi": 47,
      "hit": false,
      "t": 30766.09135416675,
      "d": 194.4442500000041,
      "v": 110
    },
    {
      "midi": 35,
      "hit": false,
      "t": 31004.186354166755,
      "d": 79.3650000000016,
      "v": 113
    },
    {
      "midi": 69,
      "hit": false,
      "t": 31004.186354166755,
      "d": 119.04750000000058,
      "v": 100
    },
    {
      "midi": 70,
      "hit": false,
      "t": 31004.186354166755,
      "d": 119.04750000000058,
      "v": 100
    },
    {
      "midi": 54,
      "hit": false,
      "t": 31004.186354166755,
      "d": 119.04750000000058,
      "v": 127
    },
    {
      "midi": 42,
      "hit": false,
      "t": 31004.186354166755,
      "d": 119.04750000000058,
      "v": 100
    },
    {
      "midi": 38,
      "hit": false,
      "t": 31004.186354166755,
      "d": 119.04750000000058,
      "v": 115
    },
    {
      "midi": 69,
      "hit": false,
      "t": 31242.281354166753,
      "d": 119.04750000000058,
      "v": 60
    },
    {
      "midi": 42,
      "hit": false,
      "t": 31242.281354166753,
      "d": 119.04750000000058,
      "v": 90
    },
    {
      "midi": 35,
      "hit": false,
      "t": 31242.281354166753,
      "d": 119.04750000000058,
      "v": 100
    },
    {
      "midi": 69,
      "hit": false,
      "t": 31480.376354166754,
      "d": 119.04750000000058,
      "v": 100
    },
    {
      "midi": 70,
      "hit": false,
      "t": 31480.376354166754,
      "d": 119.04750000000058,
      "v": 100
    },
    {
      "midi": 54,
      "hit": false,
      "t": 31480.376354166754,
      "d": 119.04750000000058,
      "v": 100
    },
    {
      "midi": 42,
      "hit": false,
      "t": 31480.376354166754,
      "d": 119.04750000000058,
      "v": 115
    },
    {
      "midi": 35,
      "hit": false,
      "t": 31480.376354166754,
      "d": 119.04750000000058,
      "v": 115
    },
    {
      "midi": 66,
      "hit": false,
      "t": 31480.376354166754,
      "d": 474.2058750000033,
      "v": 127
    },
    {
      "midi": 52,
      "hit": false,
      "t": 31480.376354166754,
      "d": 801.5865000000049,
      "v": 110
    },
    {
      "midi": 69,
      "hit": false,
      "t": 31718.47135416676,
      "d": 119.04750000000058,
      "v": 60
    },
    {
      "midi": 42,
      "hit": false,
      "t": 31718.47135416676,
      "d": 119.04750000000058,
      "v": 90
    },
    {
      "midi": 35,
      "hit": false,
      "t": 31718.47135416676,
      "d": 119.04750000000058,
      "v": 90
    },
    {
      "midi": 47,
      "hit": false,
      "t": 31734.34435416676,
      "d": 253.96799999999712,
      "v": 59
    },
    {
      "midi": 69,
      "hit": false,
      "t": 31956.566354166756,
      "d": 119.04750000000058,
      "v": 100
    },
    {
      "midi": 70,
      "hit": false,
      "t": 31956.566354166756,
      "d": 119.04750000000058,
      "v": 100
    },
    {
      "midi": 54,
      "hit": false,
      "t": 31956.566354166756,
      "d": 119.04750000000058,
      "v": 127
    },
    {
      "midi": 42,
      "hit": false,
      "t": 31956.566354166756,
      "d": 119.04750000000058,
      "v": 115
    },
    {
      "midi": 38,
      "hit": false,
      "t": 31956.566354166756,
      "d": 119.04750000000058,
      "v": 115
    },
    {
      "midi": 35,
      "hit": false,
      "t": 31956.566354166756,
      "d": 134.92050000000017,
      "v": 105
    },
    {
      "midi": 73,
      "hit": false,
      "t": 31956.566354166756,
      "d": 182.53949999999895,
      "v": 74
    },
    {
      "midi": 76,
      "hit": false,
      "t": 31956.566354166756,
      "d": 202.38075000000026,
      "v": 65
    },
    {
      "midi": 64,
      "hit": false,
      "t": 31956.566354166756,
      "d": 214.28550000000178,
      "v": 51
    },
    {
      "midi": 69,
      "hit": false,
      "t": 32194.661354166758,
      "d": 119.04750000000422,
      "v": 60
    },
    {
      "midi": 42,
      "hit": false,
      "t": 32194.661354166758,
      "d": 119.04750000000422,
      "v": 90
    },
    {
      "midi": 35,
      "hit": false,
      "t": 32194.661354166758,
      "d": 119.04750000000422,
      "v": 100
    },
    {
      "midi": 66,
      "hit": false,
      "t": 32194.661354166758,
      "d": 236.11087500000576,
      "v": 127
    },
    {
      "midi": 46,
      "hit": false,
      "t": 32313.70885416676,
      "d": 119.04750000000058,
      "v": 100
    },
    {
      "midi": 35,
      "hit": false,
      "t": 32432.756354166762,
      "d": 111.11100000000079,
      "v": 115
    },
    {
      "midi": 69,
      "hit": false,
      "t": 32432.756354166762,
      "d": 119.04750000000058,
      "v": 100
    },
    {
      "midi": 70,
      "hit": false,
      "t": 32432.756354166762,
      "d": 119.04750000000058,
      "v": 100
    },
    {
      "midi": 54,
      "hit": false,
      "t": 32432.756354166762,
      "d": 119.04750000000058,
      "v": 100
    },
    {
      "midi": 42,
      "hit": false,
      "t": 32432.756354166762,
      "d": 119.04750000000058,
      "v": 115
    },
    {
      "midi": 78,
      "hit": false,
      "t": 32432.756354166762,
      "d": 178.57125000000087,
      "v": 57
    },
    {
      "midi": 71,
      "hit": false,
      "t": 32432.756354166762,
      "d": 190.4760000000024,
      "v": 35
    },
    {
      "midi": 74,
      "hit": false,
      "t": 32432.756354166762,
      "d": 190.4760000000024,
      "v": 53
    },
    {
      "midi": 83,
      "hit": false,
      "t": 32432.756354166762,
      "d": 210.3172500000037,
      "v": 55
    },
    {
      "midi": 35,
      "hit": false,
      "t": 32670.851354166763,
      "d": 87.3015000000014,
      "v": 100
    },
    {
      "midi": 69,
      "hit": false,
      "t": 32670.851354166763,
      "d": 119.04750000000058,
      "v": 60
    },
    {
      "midi": 42,
      "hit": false,
      "t": 32670.851354166763,
      "d": 119.04750000000058,
      "v": 90
    },
    {
      "midi": 54,
      "hit": false,
      "t": 32670.851354166763,
      "d": 182.53949999999895,
      "v": 107
    },
    {
      "midi": 47,
      "hit": false,
      "t": 32670.851354166763,
      "d": 194.44425000000047,
      "v": 110
    },
    {
      "midi": 73,
      "hit": false,
      "t": 32670.851354166763,
      "d": 236.1108749999985,
      "v": 127
    },
    {
      "midi": 35,
      "hit": false,
      "t": 32908.946354166765,
      "d": 79.36499999999796,
      "v": 110
    },
    {
      "midi": 69,
      "hit": false,
      "t": 32908.946354166765,
      "d": 119.04750000000058,
      "v": 100
    },
    {
      "midi": 70,
      "hit": false,
      "t": 32908.946354166765,
      "d": 119.04750000000058,
      "v": 100
    },
    {
      "midi": 54,
      "hit": false,
      "t": 32908.946354166765,
      "d": 119.04750000000058,
      "v": 127
    },
    {
      "midi": 42,
      "hit": false,
      "t": 32908.946354166765,
      "d": 119.04750000000058,
      "v": 115
    },
    {
      "midi": 38,
      "hit": false,
      "t": 32908.946354166765,
      "d": 119.04750000000058,
      "v": 115
    },
    {
      "midi": 71,
      "hit": false,
      "t": 32908.946354166765,
      "d": 236.1108749999985,
      "v": 127
    },
    {
      "midi": 69,
      "hit": false,
      "t": 33147.041354166766,
      "d": 119.04750000000058,
      "v": 60
    },
    {
      "midi": 46,
      "hit": false,
      "t": 33147.041354166766,
      "d": 119.04750000000058,
      "v": 100
    },
    {
      "midi": 35,
      "hit": false,
      "t": 33147.041354166766,
      "d": 119.04750000000058,
      "v": 90
    },
    {
      "midi": 73,
      "hit": false,
      "t": 33147.041354166766,
      "d": 236.11087500000576,
      "v": 127
    },
    {
      "midi": 78,
      "hit": false,
      "t": 33147.041354166766,
      "d": 948.4117500000139,
      "v": 62
    },
    {
      "midi": 83,
      "hit": false,
      "t": 33147.041354166766,
      "d": 952.3800000000192,
      "v": 60
    },
    {
      "midi": 35,
      "hit": false,
      "t": 33385.136354166774,
      "d": 107.14274999999907,
      "v": 115
    },
    {
      "midi": 69,
      "hit": false,
      "t": 33385.136354166774,
      "d": 119.04750000000058,
      "v": 100
    },
    {
      "midi": 70,
      "hit": false,
      "t": 33385.136354166774,
      "d": 119.04750000000058,
      "v": 100
    },
    {
      "midi": 54,
      "hit": false,
      "t": 33385.136354166774,
      "d": 119.04750000000058,
      "v": 100
    },
    {
      "midi": 42,
      "hit": false,
      "t": 33385.136354166774,
      "d": 119.04750000000058,
      "v": 115
    },
    {
      "midi": 74,
      "hit": false,
      "t": 33385.136354166774,
      "d": 236.1108749999985,
      "v": 127
    },
    {
      "midi": 47,
      "hit": false,
      "t": 33385.136354166774,
      "d": 821.4277500000098,
      "v": 110
    },
    {
      "midi": 35,
      "hit": false,
      "t": 33623.231354166775,
      "d": 91.26974999999948,
      "v": 90
    },
    {
      "midi": 73,
      "hit": false,
      "t": 33623.231354166775,
      "d": 117.0633749999979,
      "v": 127
    },
    {
      "midi": 69,
      "hit": false,
      "t": 33623.231354166775,
      "d": 119.04750000000058,
      "v": 60
    },
    {
      "midi": 42,
      "hit": false,
      "t": 33623.231354166775,
      "d": 119.04750000000058,
      "v": 100
    },
    {
      "midi": 71,
      "hit": false,
      "t": 33742.278854166776,
      "d": 355.15837500000634,
      "v": 127
    },
    {
      "midi": 69,
      "hit": false,
      "t": 33861.32635416678,
      "d": 119.04750000000058,
      "v": 100
    },
    {
      "midi": 70,
      "hit": false,
      "t": 33861.32635416678,
      "d": 119.04750000000058,
      "v": 100
    },
    {
      "midi": 54,
      "hit": false,
      "t": 33861.32635416678,
      "d": 119.04750000000058,
      "v": 127
    },
    {
      "midi": 42,
      "hit": false,
      "t": 33861.32635416678,
      "d": 119.04750000000058,
      "v": 115
    },
    {
      "midi": 38,
      "hit": false,
      "t": 33861.32635416678,
      "d": 119.04750000000058,
      "v": 115
    },
    {
      "midi": 35,
      "hit": false,
      "t": 33861.32635416678,
      "d": 130.9522500000021,
      "v": 122
    },
    {
      "midi": 71,
      "hit": false,
      "t": 34099.421354166785,
      "d": 7.936500000003434,
      "v": 127
    },
    {
      "midi": 35,
      "hit": false,
      "t": 34099.421354166785,
      "d": 55.55550000000221,
      "v": 100
    },
    {
      "midi": 69,
      "hit": false,
      "t": 34099.421354166785,
      "d": 119.04750000000058,
      "v": 60
    },
    {
      "midi": 42,
      "hit": false,
      "t": 34099.421354166785,
      "d": 119.04750000000058,
      "v": 100
    },
    {
      "midi": 23,
      "hit": false,
      "t": 34218.468854166786,
      "d": 67.46024999999645,
      "v": 85
    },
    {
      "midi": 35,
      "hit": false,
      "t": 34337.516354166786,
      "d": 107.14274999999907,
      "v": 115
    },
    {
      "midi": 69,
      "hit": false,
      "t": 34337.516354166786,
      "d": 119.04750000000058,
      "v": 100
    },
    {
      "midi": 70,
      "hit": false,
      "t": 34337.516354166786,
      "d": 119.04750000000058,
      "v": 100
    },
    {
      "midi": 54,
      "hit": false,
      "t": 34337.516354166786,
      "d": 119.04750000000058,
      "v": 100
    },
    {
      "midi": 42,
      "hit": false,
      "t": 34337.516354166786,
      "d": 119.04750000000058,
      "v": 115
    },
    {
      "midi": 76,
      "hit": false,
      "t": 34337.516354166786,
      "d": 355.15837499999907,
      "v": 127
    },
    {
      "midi": 79,
      "hit": false,
      "t": 34337.516354166786,
      "d": 1761.9030000000203,
      "v": 60
    },
    {
      "midi": 83,
      "hit": false,
      "t": 34337.516354166786,
      "d": 1781.7442500000252,
      "v": 57
    },
    {
      "midi": 35,
      "hit": false,
      "t": 34575.61135416679,
      "d": 87.3015000000014,
      "v": 100
    },
    {
      "midi": 69,
      "hit": false,
      "t": 34575.61135416679,
      "d": 119.04750000000058,
      "v": 60
    },
    {
      "midi": 42,
      "hit": false,
      "t": 34575.61135416679,
      "d": 119.04750000000058,
      "v": 70
    },
    {
      "midi": 50,
      "hit": false,
      "t": 34575.61135416679,
      "d": 158.7300000000032,
      "v": 100
    },
    {
      "midi": 74,
      "hit": false,
      "t": 34694.65885416679,
      "d": 355.15837499999907,
      "v": 127
    },
    {
      "midi": 35,
      "hit": false,
      "t": 34813.70635416679,
      "d": 91.26974999999948,
      "v": 110
    },
    {
      "midi": 69,
      "hit": false,
      "t": 34813.70635416679,
      "d": 119.04750000000058,
      "v": 100
    },
    {
      "midi": 70,
      "hit": false,
      "t": 34813.70635416679,
      "d": 119.04750000000058,
      "v": 100
    },
    {
      "midi": 54,
      "hit": false,
      "t": 34813.70635416679,
      "d": 119.04750000000058,
      "v": 127
    },
    {
      "midi": 42,
      "hit": false,
      "t": 34813.70635416679,
      "d": 119.04750000000058,
      "v": 100
    },
    {
      "midi": 38,
      "hit": false,
      "t": 34813.70635416679,
      "d": 119.04750000000058,
      "v": 115
    },
    {
      "midi": 69,
      "hit": false,
      "t": 35051.80135416679,
      "d": 119.04750000000058,
      "v": 60
    },
    {
      "midi": 42,
      "hit": false,
      "t": 35051.80135416679,
      "d": 119.04750000000058,
      "v": 90
    },
    {
      "midi": 35,
      "hit": false,
      "t": 35051.80135416679,
      "d": 119.04750000000058,
      "v": 100
    },
    {
      "midi": 73,
      "hit": false,
      "t": 35051.80135416679,
      "d": 236.11087500000576,
      "v": 127
    },
    {
      "midi": 35,
      "hit": false,
      "t": 35289.8963541668,
      "d": 75.39674999999988,
      "v": 115
    },
    {
      "midi": 69,
      "hit": false,
      "t": 35289.8963541668,
      "d": 119.04750000000058,
      "v": 100
    },
    {
      "midi": 70,
      "hit": false,
      "t": 35289.8963541668,
      "d": 119.04750000000058,
      "v": 100
    },
    {
      "midi": 54,
      "hit": false,
      "t": 35289.8963541668,
      "d": 119.04750000000058,
      "v": 100
    },
    {
      "midi": 42,
      "hit": false,
      "t": 35289.8963541668,
      "d": 119.04750000000058,
      "v": 115
    },
    {
      "midi": 71,
      "hit": false,
      "t": 35289.8963541668,
      "d": 474.20587499999965,
      "v": 127
    },
    {
      "midi": 50,
      "hit": false,
      "t": 35289.8963541668,
      "d": 476.1900000000023,
      "v": 105
    },
    {
      "midi": 35,
      "hit": false,
      "t": 35527.9913541668,
      "d": 71.4285000000018,
      "v": 90
    },
    {
      "midi": 69,
      "hit": false,
      "t": 35527.9913541668,
      "d": 119.04750000000058,
      "v": 60
    },
    {
      "midi": 42,
      "hit": false,
      "t": 35527.9913541668,
      "d": 119.04750000000058,
      "v": 90
    },
    {
      "midi": 50,
      "hit": false,
      "t": 35766.0863541668,
      "d": 31.745999999999185,
      "v": 38
    },
    {
      "midi": 69,
      "hit": false,
      "t": 35766.0863541668,
      "d": 119.04750000000058,
      "v": 100
    },
    {
      "midi": 70,
      "hit": false,
      "t": 35766.0863541668,
      "d": 119.04750000000058,
      "v": 100
    },
    {
      "midi": 54,
      "hit": false,
      "t": 35766.0863541668,
      "d": 119.04750000000058,
      "v": 127
    },
    {
      "midi": 42,
      "hit": false,
      "t": 35766.0863541668,
      "d": 119.04750000000058,
      "v": 115
    },
    {
      "midi": 38,
      "hit": false,
      "t": 35766.0863541668,
      "d": 119.04750000000058,
      "v": 115
    },
    {
      "midi": 35,
      "hit": false,
      "t": 35766.0863541668,
      "d": 130.9522500000021,
      "v": 100
    },
    {
      "midi": 35,
      "hit": false,
      "t": 36004.1813541668,
      "d": 55.55550000000221,
      "v": 100
    },
    {
      "midi": 69,
      "hit": false,
      "t": 36004.1813541668,
      "d": 119.04750000000786,
      "v": 60
    },
    {
      "midi": 42,
      "hit": false,
      "t": 36004.1813541668,
      "d": 119.04750000000786,
      "v": 90
    },
    {
      "midi": 50,
      "hit": false,
      "t": 36004.1813541668,
      "d": 130.95225000000937,
      "v": 100
    },
    {
      "midi": 23,
      "hit": false,
      "t": 36123.22885416681,
      "d": 67.46025000000373,
      "v": 85
    },
    {
      "midi": 46,
      "hit": false,
      "t": 36123.22885416681,
      "d": 119.04750000000058,
      "v": 100
    },
    {
      "midi": 69,
      "hit": false,
      "t": 36242.27635416681,
      "d": 119.04750000000058,
      "v": 100
    },
    {
      "midi": 70,
      "hit": false,
      "t": 36242.27635416681,
      "d": 119.04750000000058,
      "v": 100
    },
    {
      "midi": 54,
      "hit": false,
      "t": 36242.27635416681,
      "d": 119.04750000000058,
      "v": 100
    },
    {
      "midi": 42,
      "hit": false,
      "t": 36242.27635416681,
      "d": 119.04750000000058,
      "v": 115
    },
    {
      "midi": 35,
      "hit": false,
      "t": 36242.27635416681,
      "d": 119.04750000000058,
      "v": 115
    },
    {
      "midi": 76,
      "hit": false,
      "t": 36242.27635416681,
      "d": 236.1108749999985,
      "v": 127
    },
    {
      "midi": 78,
      "hit": false,
      "t": 36480.37135416681,
      "d": 117.0633749999979,
      "v": 127
    },
    {
      "midi": 69,
      "hit": false,
      "t": 36480.37135416681,
      "d": 119.04750000000058,
      "v": 60
    },
    {
      "midi": 42,
      "hit": false,
      "t": 36480.37135416681,
      "d": 119.04750000000058,
      "v": 90
    },
    {
      "midi": 35,
      "hit": false,
      "t": 36480.37135416681,
      "d": 119.04750000000058,
      "v": 100
    },
    {
      "midi": 50,
      "hit": false,
      "t": 36480.37135416681,
      "d": 182.53949999999895,
      "v": 107
    },
    {
      "midi": 71,
      "hit": false,
      "t": 36599.41885416681,
      "d": 117.0633749999979,
      "v": 127
    },
    {
      "midi": 69,
      "hit": false,
      "t": 36718.46635416681,
      "d": 119.04750000000058,
      "v": 100
    },
    {
      "midi": 70,
      "hit": false,
      "t": 36718.46635416681,
      "d": 119.04750000000058,
      "v": 100
    },
    {
      "midi": 54,
      "hit": false,
      "t": 36718.46635416681,
      "d": 119.04750000000058,
      "v": 127
    },
    {
      "midi": 42,
      "hit": false,
      "t": 36718.46635416681,
      "d": 119.04750000000058,
      "v": 115
    },
    {
      "midi": 38,
      "hit": false,
      "t": 36718.46635416681,
      "d": 119.04750000000058,
      "v": 115
    },
    {
      "midi": 35,
      "hit": false,
      "t": 36718.46635416681,
      "d": 142.8570000000036,
      "v": 113
    },
    {
      "midi": 74,
      "hit": false,
      "t": 36718.46635416681,
      "d": 1246.0305000000226,
      "v": 64
    },
    {
      "midi": 79,
      "hit": false,
      "t": 36837.51385416681,
      "d": 1126.983000000022,
      "v": 29
    },
    {
      "midi": 69,
      "hit": false,
      "t": 36956.56135416681,
      "d": 119.04750000000058,
      "v": 60
    },
    {
      "midi": 42,
      "hit": false,
      "t": 36956.56135416681,
      "d": 119.04750000000058,
      "v": 90
    },
    {
      "midi": 35,
      "hit": false,
      "t": 36956.56135416681,
      "d": 119.04750000000058,
      "v": 100
    },
    {
      "midi": 71,
      "hit": false,
      "t": 36956.56135416681,
      "d": 236.11087500000576,
      "v": 127
    },
    {
      "midi": 83,
      "hit": false,
      "t": 36956.56135416681,
      "d": 1007.9355000000214,
      "v": 70
    },
    {
      "midi": 69,
      "hit": false,
      "t": 37194.65635416682,
      "d": 119.04750000000058,
      "v": 100
    },
    {
      "midi": 70,
      "hit": false,
      "t": 37194.65635416682,
      "d": 119.04750000000058,
      "v": 100
    },
    {
      "midi": 54,
      "hit": false,
      "t": 37194.65635416682,
      "d": 119.04750000000058,
      "v": 100
    },
    {
      "midi": 42,
      "hit": false,
      "t": 37194.65635416682,
      "d": 119.04750000000058,
      "v": 115
    },
    {
      "midi": 35,
      "hit": false,
      "t": 37194.65635416682,
      "d": 119.04750000000058,
      "v": 115
    },
    {
      "midi": 76,
      "hit": false,
      "t": 37194.65635416682,
      "d": 236.1108749999985,
      "v": 127
    },
    {
      "midi": 50,
      "hit": false,
      "t": 37194.65635416682,
      "d": 801.5865000000122,
      "v": 110
    },
    {
      "midi": 78,
      "hit": false,
      "t": 37432.75135416682,
      "d": 117.0633749999979,
      "v": 127
    },
    {
      "midi": 69,
      "hit": false,
      "t": 37432.75135416682,
      "d": 119.04750000000058,
      "v": 60
    },
    {
      "midi": 42,
      "hit": false,
      "t": 37432.75135416682,
      "d": 119.04750000000058,
      "v": 100
    },
    {
      "midi": 35,
      "hit": false,
      "t": 37432.75135416682,
      "d": 119.04750000000058,
      "v": 100
    },
    {
      "midi": 71,
      "hit": false,
      "t": 37551.798854166824,
      "d": 117.06337500000518,
      "v": 127
    },
    {
      "midi": 69,
      "hit": false,
      "t": 37670.84635416683,
      "d": 119.04750000000058,
      "v": 100
    },
    {
      "midi": 70,
      "hit": false,
      "t": 37670.84635416683,
      "d": 119.04750000000058,
      "v": 100
    },
    {
      "midi": 54,
      "hit": false,
      "t": 37670.84635416683,
      "d": 119.04750000000058,
      "v": 127
    },
    {
      "midi": 42,
      "hit": false,
      "t": 37670.84635416683,
      "d": 119.04750000000058,
      "v": 115
    },
    {
      "midi": 38,
      "hit": false,
      "t": 37670.84635416683,
      "d": 119.04750000000058,
      "v": 115
    },
    {
      "midi": 35,
      "hit": false,
      "t": 37670.84635416683,
      "d": 134.92050000000017,
      "v": 105
    },
    {
      "midi": 71,
      "hit": false,
      "t": 37908.94135416683,
      "d": 55.55550000000221,
      "v": 127
    },
    {
      "midi": 35,
      "hit": false,
      "t": 37908.94135416683,
      "d": 107.14274999999907,
      "v": 100
    },
    {
      "midi": 69,
      "hit": false,
      "t": 37908.94135416683,
      "d": 119.04750000000058,
      "v": 60
    },
    {
      "midi": 42,
      "hit": false,
      "t": 37908.94135416683,
      "d": 119.04750000000058,
      "v": 100
    },
    {
      "midi": 35,
      "hit": false,
      "t": 38147.036354166834,
      "d": 111.11099999999715,
      "v": 115
    },
    {
      "midi": 69,
      "hit": false,
      "t": 38147.036354166834,
      "d": 119.04750000000058,
      "v": 100
    },
    {
      "midi": 70,
      "hit": false,
      "t": 38147.036354166834,
      "d": 119.04750000000058,
      "v": 100
    },
    {
      "midi": 54,
      "hit": false,
      "t": 38147.036354166834,
      "d": 119.04750000000058,
      "v": 100
    },
    {
      "midi": 42,
      "hit": false,
      "t": 38147.036354166834,
      "d": 119.04750000000058,
      "v": 115
    },
    {
      "midi": 76,
      "hit": false,
      "t": 38147.036354166834,
      "d": 1134.9195000000036,
      "v": 39
    },
    {
      "midi": 64,
      "hit": false,
      "t": 38147.036354166834,
      "d": 1206.3480000000054,
      "v": 42
    },
    {
      "midi": 35,
      "hit": false,
      "t": 38385.131354166835,
      "d": 87.3015000000014,
      "v": 100
    },
    {
      "midi": 69,
      "hit": false,
      "t": 38385.131354166835,
      "d": 117.0633749999979,
      "v": 60
    },
    {
      "midi": 42,
      "hit": false,
      "t": 38385.131354166835,
      "d": 119.04750000000058,
      "v": 70
    },
    {
      "midi": 52,
      "hit": false,
      "t": 38385.131354166835,
      "d": 182.53949999999895,
      "v": 107
    },
    {
      "midi": 47,
      "hit": false,
      "t": 38385.131354166835,
      "d": 194.44425000000047,
      "v": 110
    },
    {
      "midi": 74,
      "hit": false,
      "t": 38504.178854166836,
      "d": 355.15837499999907,
      "v": 127
    },
    {
      "midi": 35,
      "hit": false,
      "t": 38623.226354166836,
      "d": 79.36499999999796,
      "v": 110
    },
    {
      "midi": 69,
      "hit": false,
      "t": 38623.226354166836,
      "d": 119.04750000000058,
      "v": 100
    },
    {
      "midi": 70,
      "hit": false,
      "t": 38623.226354166836,
      "d": 119.04750000000058,
      "v": 100
    },
    {
      "midi": 54,
      "hit": false,
      "t": 38623.226354166836,
      "d": 119.04750000000058,
      "v": 127
    },
    {
      "midi": 42,
      "hit": false,
      "t": 38623.226354166836,
      "d": 119.04750000000058,
      "v": 100
    },
    {
      "midi": 38,
      "hit": false,
      "t": 38623.226354166836,
      "d": 119.04750000000058,
      "v": 115
    },
    {
      "midi": 69,
      "hit": false,
      "t": 38861.32135416684,
      "d": 119.04750000000058,
      "v": 60
    },
    {
      "midi": 42,
      "hit": false,
      "t": 38861.32135416684,
      "d": 119.04750000000058,
      "v": 90
    },
    {
      "midi": 35,
      "hit": false,
      "t": 38861.32135416684,
      "d": 119.04750000000058,
      "v": 100
    },
    {
      "midi": 73,
      "hit": false,
      "t": 38861.32135416684,
      "d": 408.7297499999986,
      "v": 127
    },
    {
      "midi": 35,
      "hit": false,
      "t": 39099.41635416684,
      "d": 107.14274999999907,
      "v": 115
    },
    {
      "midi": 69,
      "hit": false,
      "t": 39099.41635416684,
      "d": 119.04750000000058,
      "v": 100
    },
    {
      "midi": 70,
      "hit": false,
      "t": 39099.41635416684,
      "d": 119.04750000000058,
      "v": 100
    },
    {
      "midi": 54,
      "hit": false,
      "t": 39099.41635416684,
      "d": 119.04750000000058,
      "v": 100
    },
    {
      "midi": 42,
      "hit": false,
      "t": 39099.41635416684,
      "d": 119.04750000000058,
      "v": 115
    },
    {
      "midi": 52,
      "hit": false,
      "t": 39099.41635416684,
      "d": 801.5865000000049,
      "v": 110
    },
    {
      "midi": 35,
      "hit": false,
      "t": 39337.51135416684,
      "d": 91.26974999999948,
      "v": 90
    },
    {
      "midi": 69,
      "hit": false,
      "t": 39337.51135416684,
      "d": 119.04750000000058,
      "v": 60
    },
    {
      "midi": 42,
      "hit": false,
      "t": 39337.51135416684,
      "d": 119.04750000000058,
      "v": 90
    },
    {
      "midi": 47,
      "hit": false,
      "t": 39353.38435416684,
      "d": 253.96800000000076,
      "v": 59
    },
    {
      "midi": 69,
      "hit": false,
      "t": 39575.60635416684,
      "d": 119.04750000000058,
      "v": 100
    },
    {
      "midi": 70,
      "hit": false,
      "t": 39575.60635416684,
      "d": 119.04750000000058,
      "v": 100
    },
    {
      "midi": 54,
      "hit": false,
      "t": 39575.60635416684,
      "d": 119.04750000000058,
      "v": 127
    },
    {
      "midi": 42,
      "hit": false,
      "t": 39575.60635416684,
      "d": 119.04750000000058,
      "v": 115
    },
    {
      "midi": 38,
      "hit": false,
      "t": 39575.60635416684,
      "d": 119.04750000000058,
      "v": 115
    },
    {
      "midi": 35,
      "hit": false,
      "t": 39575.60635416684,
      "d": 130.9522500000021,
      "v": 122
    },
    {
      "midi": 73,
      "hit": false,
      "t": 39575.60635416684,
      "d": 182.53949999999895,
      "v": 74
    },
    {
      "midi": 76,
      "hit": false,
      "t": 39575.60635416684,
      "d": 202.38074999999662,
      "v": 65
    },
    {
      "midi": 64,
      "hit": false,
      "t": 39575.60635416684,
      "d": 214.28549999999814,
      "v": 51
    },
    {
      "midi": 35,
      "hit": false,
      "t": 39813.70135416684,
      "d": 55.55550000000221,
      "v": 100
    },
    {
      "midi": 66,
      "hit": false,
      "t": 39813.70135416684,
      "d": 117.0633749999979,
      "v": 127
    },
    {
      "midi": 69,
      "hit": false,
      "t": 39813.70135416684,
      "d": 119.04750000000058,
      "v": 60
    },
    {
      "midi": 42,
      "hit": false,
      "t": 39813.70135416684,
      "d": 119.04750000000058,
      "v": 90
    },
    {
      "midi": 23,
      "hit": false,
      "t": 39932.74885416684,
      "d": 67.46024999999645,
      "v": 85
    },
    {
      "midi": 66,
      "hit": false,
      "t": 39932.74885416684,
      "d": 117.0633749999979,
      "v": 127
    },
    {
      "midi": 46,
      "hit": false,
      "t": 39932.74885416684,
      "d": 119.04750000000058,
      "v": 100
    },
    {
      "midi": 69,
      "hit": false,
      "t": 40051.79635416684,
      "d": 119.04750000000058,
      "v": 100
    },
    {
      "midi": 70,
      "hit": false,
      "t": 40051.79635416684,
      "d": 119.04750000000058,
      "v": 100
    },
    {
      "midi": 54,
      "hit": false,
      "t": 40051.79635416684,
      "d": 119.04750000000058,
      "v": 100
    },
    {
      "midi": 42,
      "hit": false,
      "t": 40051.79635416684,
      "d": 119.04750000000058,
      "v": 115
    },
    {
      "midi": 35,
      "hit": false,
      "t": 40051.79635416684,
      "d": 119.04750000000058,
      "v": 115
    },
    {
      "midi": 74,
      "hit": false,
      "t": 40051.79635416684,
      "d": 236.11087500000576,
      "v": 41
    },
    {
      "midi": 78,
      "hit": false,
      "t": 40051.79635416684,
      "d": 1115.0782500000278,
      "v": 43
    },
    {
      "midi": 66,
      "hit": false,
      "t": 40051.79635416684,
      "d": 1896.8235000000204,
      "v": 43
    },
    {
      "midi": 53,
      "hit": false,
      "t": 40289.89135416685,
      "d": 23.809500000003027,
      "v": 52
    },
    {
      "midi": 47,
      "hit": false,
      "t": 40289.89135416685,
      "d": 103.17450000000099,
      "v": 107
    },
    {
      "midi": 69,
      "hit": false,
      "t": 40289.89135416685,
      "d": 119.04750000000058,
      "v": 60
    },
    {
      "midi": 42,
      "hit": false,
      "t": 40289.89135416685,
      "d": 119.04750000000058,
      "v": 90
    },
    {
      "midi": 35,
      "hit": false,
      "t": 40289.89135416685,
      "d": 119.04750000000058,
      "v": 100
    },
    {
      "midi": 54,
      "hit": false,
      "t": 40289.89135416685,
      "d": 134.92050000000017,
      "v": 98
    },
    {
      "midi": 73,
      "hit": false,
      "t": 40289.89135416685,
      "d": 236.1108749999985,
      "v": 127
    },
    {
      "midi": 69,
      "hit": false,
      "t": 40527.98635416685,
      "d": 119.04750000000058,
      "v": 100
    },
    {
      "midi": 70,
      "hit": false,
      "t": 40527.98635416685,
      "d": 119.04750000000058,
      "v": 100
    },
    {
      "midi": 54,
      "hit": false,
      "t": 40527.98635416685,
      "d": 119.04750000000058,
      "v": 127
    },
    {
      "midi": 42,
      "hit": false,
      "t": 40527.98635416685,
      "d": 119.04750000000058,
      "v": 115
    },
    {
      "midi": 38,
      "hit": false,
      "t": 40527.98635416685,
      "d": 119.04750000000058,
      "v": 115
    },
    {
      "midi": 35,
      "hit": false,
      "t": 40527.98635416685,
      "d": 158.7300000000032,
      "v": 105
    },
    {
      "midi": 71,
      "hit": false,
      "t": 40527.98635416685,
      "d": 236.11087500000576,
      "v": 127
    },
    {
      "midi": 69,
      "hit": false,
      "t": 40766.08135416686,
      "d": 119.04750000000058,
      "v": 60
    },
    {
      "midi": 46,
      "hit": false,
      "t": 40766.08135416686,
      "d": 119.04750000000058,
      "v": 100
    },
    {
      "midi": 35,
      "hit": false,
      "t": 40766.08135416686,
      "d": 119.04750000000058,
      "v": 90
    },
    {
      "midi": 73,
      "hit": false,
      "t": 40766.08135416686,
      "d": 236.11087500000576,
      "v": 127
    },
    {
      "midi": 35,
      "hit": false,
      "t": 41004.17635416687,
      "d": 47.61899999999878,
      "v": 115
    },
    {
      "midi": 69,
      "hit": false,
      "t": 41004.17635416687,
      "d": 119.04750000000058,
      "v": 100
    },
    {
      "midi": 70,
      "hit": false,
      "t": 41004.17635416687,
      "d": 119.04750000000058,
      "v": 100
    },
    {
      "midi": 54,
      "hit": false,
      "t": 41004.17635416687,
      "d": 119.04750000000058,
      "v": 100
    },
    {
      "midi": 42,
      "hit": false,
      "t": 41004.17635416687,
      "d": 119.04750000000058,
      "v": 115
    },
    {
      "midi": 74,
      "hit": false,
      "t": 41004.17635416687,
      "d": 236.1108749999985,
      "v": 127
    },
    {
      "midi": 47,
      "hit": false,
      "t": 41004.17635416687,
      "d": 742.0627499999973,
      "v": 107
    },
    {
      "midi": 73,
      "hit": false,
      "t": 41242.27135416687,
      "d": 117.0633749999979,
      "v": 127
    },
    {
      "midi": 69,
      "hit": false,
      "t": 41242.27135416687,
      "d": 119.04750000000058,
      "v": 60
    },
    {
      "midi": 42,
      "hit": false,
      "t": 41242.27135416687,
      "d": 119.04750000000058,
      "v": 100
    },
    {
      "midi": 35,
      "hit": false,
      "t": 41242.27135416687,
      "d": 119.04750000000058,
      "v": 90
    },
    {
      "midi": 78,
      "hit": false,
      "t": 41246.23960416687,
      "d": 234.12675000000309,
      "v": 66
    },
    {
      "midi": 71,
      "hit": false,
      "t": 41361.31885416687,
      "d": 27.777750000001106,
      "v": 127
    },
    {
      "midi": 74,
      "hit": false,
      "t": 41389.09660416687,
      "d": 186.50774999999703,
      "v": 64
    },
    {
      "midi": 69,
      "hit": false,
      "t": 41480.36635416687,
      "d": 119.04750000000058,
      "v": 100
    },
    {
      "midi": 70,
      "hit": false,
      "t": 41480.36635416687,
      "d": 119.04750000000058,
      "v": 100
    },
    {
      "midi": 54,
      "hit": false,
      "t": 41480.36635416687,
      "d": 119.04750000000058,
      "v": 127
    },
    {
      "midi": 42,
      "hit": false,
      "t": 41480.36635416687,
      "d": 119.04750000000058,
      "v": 115
    },
    {
      "midi": 38,
      "hit": false,
      "t": 41480.36635416687,
      "d": 119.04750000000058,
      "v": 115
    },
    {
      "midi": 35,
      "hit": false,
      "t": 41480.36635416687,
      "d": 170.63474999999744,
      "v": 110
    },
    {
      "midi": 71,
      "hit": false,
      "t": 41480.36635416687,
      "d": 202.38074999999662,
      "v": 57
    },
    {
      "midi": 78,
      "hit": false,
      "t": 41599.41385416687,
      "d": 238.0949999999939,
      "v": 72
    },
    {
      "midi": 71,
      "hit": false,
      "t": 41718.461354166866,
      "d": 117.0633749999979,
      "v": 127
    },
    {
      "midi": 69,
      "hit": false,
      "t": 41718.461354166866,
      "d": 119.04750000000058,
      "v": 60
    },
    {
      "midi": 42,
      "hit": false,
      "t": 41718.461354166866,
      "d": 119.04750000000058,
      "v": 100
    },
    {
      "midi": 35,
      "hit": false,
      "t": 41718.461354166866,
      "d": 119.04750000000058,
      "v": 100
    },
    {
      "midi": 74,
      "hit": false,
      "t": 41718.461354166866,
      "d": 154.76174999999785,
      "v": 59
    },
    {
      "midi": 71,
      "hit": false,
      "t": 41837.50885416687,
      "d": 95.23799999999756,
      "v": 64
    },
    {
      "midi": 35,
      "hit": false,
      "t": 41956.55635416687,
      "d": 107.14274999999907,
      "v": 115
    },
    {
      "midi": 69,
      "hit": false,
      "t": 41956.55635416687,
      "d": 119.04750000000058,
      "v": 100
    },
    {
      "midi": 70,
      "hit": false,
      "t": 41956.55635416687,
      "d": 119.04750000000058,
      "v": 100
    },
    {
      "midi": 54,
      "hit": false,
      "t": 41956.55635416687,
      "d": 119.04750000000058,
      "v": 100
    },
    {
      "midi": 42,
      "hit": false,
      "t": 41956.55635416687,
      "d": 119.04750000000058,
      "v": 115
    },
    {
      "midi": 73,
      "hit": false,
      "t": 41956.55635416687,
      "d": 355.15837499999907,
      "v": 47
    },
    {
      "midi": 76,
      "hit": false,
      "t": 41956.55635416687,
      "d": 1134.9195000000254,
      "v": 39
    },
    {
      "midi": 64,
      "hit": false,
      "t": 41956.55635416687,
      "d": 1206.3480000000272,
      "v": 42
    },
    {
      "midi": 69,
      "hit": false,
      "t": 42194.65135416687,
      "d": 119.04750000000058,
      "v": 60
    },
    {
      "midi": 42,
      "hit": false,
      "t": 42194.65135416687,
      "d": 119.04750000000058,
      "v": 70
    },
    {
      "midi": 35,
      "hit": false,
      "t": 42194.65135416687,
      "d": 119.04750000000058,
      "v": 100
    },
    {
      "midi": 47,
      "hit": false,
      "t": 42194.65135416687,
      "d": 130.9522500000021,
      "v": 107
    },
    {
      "midi": 52,
      "hit": false,
      "t": 42194.65135416687,
      "d": 158.7300000000032,
      "v": 100
    },
    {
      "midi": 71,
      "hit": false,
      "t": 42313.69885416687,
      "d": 355.15837500000634,
      "v": 127
    },
    {
      "midi": 69,
      "hit": false,
      "t": 42432.74635416687,
      "d": 119.04750000000058,
      "v": 100
    },
    {
      "midi": 70,
      "hit": false,
      "t": 42432.74635416687,
      "d": 119.04750000000058,
      "v": 100
    },
    {
      "midi": 54,
      "hit": false,
      "t": 42432.74635416687,
      "d": 119.04750000000058,
      "v": 127
    },
    {
      "midi": 42,
      "hit": false,
      "t": 42432.74635416687,
      "d": 119.04750000000058,
      "v": 100
    },
    {
      "midi": 38,
      "hit": false,
      "t": 42432.74635416687,
      "d": 119.04750000000058,
      "v": 115
    },
    {
      "midi": 35,
      "hit": false,
      "t": 42432.74635416687,
      "d": 126.98400000000402,
      "v": 107
    },
    {
      "midi": 69,
      "hit": false,
      "t": 42670.84135416688,
      "d": 119.04750000000058,
      "v": 60
    },
    {
      "midi": 42,
      "hit": false,
      "t": 42670.84135416688,
      "d": 119.04750000000058,
      "v": 90
    },
    {
      "midi": 35,
      "hit": false,
      "t": 42670.84135416688,
      "d": 119.04750000000058,
      "v": 100
    },
    {
      "midi": 35,
      "hit": false,
      "t": 42908.936354166886,
      "d": 75.39674999999988,
      "v": 115
    },
    {
      "midi": 69,
      "hit": false,
      "t": 42908.936354166886,
      "d": 119.04750000000058,
      "v": 100
    },
    {
      "midi": 70,
      "hit": false,
      "t": 42908.936354166886,
      "d": 119.04750000000058,
      "v": 100
    },
    {
      "midi": 54,
      "hit": false,
      "t": 42908.936354166886,
      "d": 119.04750000000058,
      "v": 100
    },
    {
      "midi": 42,
      "hit": false,
      "t": 42908.936354166886,
      "d": 119.04750000000058,
      "v": 115
    },
    {
      "midi": 52,
      "hit": false,
      "t": 42908.936354166886,
      "d": 476.1900000000096,
      "v": 105
    },
    {
      "midi": 69,
      "hit": false,
      "t": 43147.031354166895,
      "d": 119.04750000000058,
      "v": 60
    },
    {
      "midi": 42,
      "hit": false,
      "t": 43147.031354166895,
      "d": 119.04750000000058,
      "v": 90
    },
    {
      "midi": 35,
      "hit": false,
      "t": 43147.031354166895,
      "d": 119.04750000000058,
      "v": 90
    },
    {
      "midi": 47,
      "hit": false,
      "t": 43162.904354166894,
      "d": 55.55550000000221,
      "v": 59
    },
    {
      "midi": 23,
      "hit": false,
      "t": 43266.078854166895,
      "d": 99.20624999999563,
      "v": 72
    },
    {
      "midi": 47,
      "hit": false,
      "t": 43385.126354166896,
      "d": 31.745999999999185,
      "v": 100
    },
    {
      "midi": 52,
      "hit": false,
      "t": 43385.126354166896,
      "d": 31.745999999999185,
      "v": 38
    },
    {
      "midi": 35,
      "hit": false,
      "t": 43385.126354166896,
      "d": 111.11099999999715,
      "v": 127
    },
    {
      "midi": 69,
      "hit": false,
      "t": 43385.126354166896,
      "d": 119.04750000000058,
      "v": 100
    },
    {
      "midi": 70,
      "hit": false,
      "t": 43385.126354166896,
      "d": 119.04750000000058,
      "v": 100
    },
    {
      "midi": 54,
      "hit": false,
      "t": 43385.126354166896,
      "d": 119.04750000000058,
      "v": 127
    },
    {
      "midi": 42,
      "hit": false,
      "t": 43385.126354166896,
      "d": 119.04750000000058,
      "v": 115
    },
    {
      "midi": 38,
      "hit": false,
      "t": 43385.126354166896,
      "d": 119.04750000000058,
      "v": 115
    },
    {
      "midi": 73,
      "hit": false,
      "t": 43385.126354166896,
      "d": 182.53950000000623,
      "v": 74
    },
    {
      "midi": 76,
      "hit": false,
      "t": 43385.126354166896,
      "d": 202.3807500000039,
      "v": 65
    },
    {
      "midi": 64,
      "hit": false,
      "t": 43385.126354166896,
      "d": 214.2855000000054,
      "v": 51
    },
    {
      "midi": 23,
      "hit": false,
      "t": 43504.1738541669,
      "d": 95.23800000000483,
      "v": 76
    },
    {
      "midi": 35,
      "hit": false,
      "t": 43623.221354166904,
      "d": 103.17450000000099,
      "v": 100
    },
    {
      "midi": 69,
      "hit": false,
      "t": 43623.221354166904,
      "d": 119.04750000000058,
      "v": 60
    },
    {
      "midi": 42,
      "hit": false,
      "t": 43623.221354166904,
      "d": 119.04750000000058,
      "v": 90
    },
    {
      "midi": 52,
      "hit": false,
      "t": 43623.221354166904,
      "d": 130.9522500000021,
      "v": 100
    },
    {
      "midi": 35,
      "hit": false,
      "t": 43742.268854166905,
      "d": 0,
      "v": 102
    },
    {
      "midi": 46,
      "hit": false,
      "t": 43742.268854166905,
      "d": 119.04750000000786,
      "v": 100
    },
    {
      "midi": 35,
      "hit": false,
      "t": 43861.31635416691,
      "d": 107.14274999999907,
      "v": 115
    },
    {
      "midi": 69,
      "hit": false,
      "t": 43861.31635416691,
      "d": 119.04750000000058,
      "v": 100
    },
    {
      "midi": 70,
      "hit": false,
      "t": 43861.31635416691,
      "d": 119.04750000000058,
      "v": 100
    },
    {
      "midi": 54,
      "hit": false,
      "t": 43861.31635416691,
      "d": 119.04750000000058,
      "v": 100
    },
    {
      "midi": 42,
      "hit": false,
      "t": 43861.31635416691,
      "d": 119.04750000000058,
      "v": 115
    },
    {
      "midi": 71,
      "hit": false,
      "t": 43861.31635416691,
      "d": 236.1108749999985,
      "v": 43
    },
    {
      "midi": 83,
      "hit": false,
      "t": 43861.31635416691,
      "d": 1115.0782500000278,
      "v": 43
    },
    {
      "midi": 79,
      "hit": false,
      "t": 43861.31635416691,
      "d": 1194.4432500000257,
      "v": 41
    },
    {
      "midi": 69,
      "hit": false,
      "t": 44099.411354166914,
      "d": 119.04750000000058,
      "v": 60
    },
    {
      "midi": 42,
      "hit": false,
      "t": 44099.411354166914,
      "d": 119.04750000000058,
      "v": 100
    },
    {
      "midi": 35,
      "hit": false,
      "t": 44099.411354166914,
      "d": 119.04750000000058,
      "v": 100
    },
    {
      "midi": 50,
      "hit": false,
      "t": 44099.411354166914,
      "d": 158.7300000000032,
      "v": 100
    },
    {
      "midi": 69,
      "hit": false,
      "t": 44337.50635416692,
      "d": 119.04750000000058,
      "v": 100
    },
    {
      "midi": 70,
      "hit": false,
      "t": 44337.50635416692,
      "d": 119.04750000000058,
      "v": 100
    },
    {
      "midi": 54,
      "hit": false,
      "t": 44337.50635416692,
      "d": 119.04750000000058,
      "v": 127
    },
    {
      "midi": 42,
      "hit": false,
      "t": 44337.50635416692,
      "d": 119.04750000000058,
      "v": 115
    },
    {
      "midi": 38,
      "hit": false,
      "t": 44337.50635416692,
      "d": 119.04750000000058,
      "v": 115
    },
    {
      "midi": 35,
      "hit": false,
      "t": 44337.50635416692,
      "d": 126.98400000000402,
      "v": 107
    },
    {
      "midi": 71,
      "hit": false,
      "t": 44337.50635416692,
      "d": 236.11087500000576,
      "v": 127
    },
    {
      "midi": 69,
      "hit": false,
      "t": 44575.60135416693,
      "d": 119.04750000000058,
      "v": 60
    },
    {
      "midi": 42,
      "hit": false,
      "t": 44575.60135416693,
      "d": 119.04750000000058,
      "v": 100
    },
    {
      "midi": 35,
      "hit": false,
      "t": 44575.60135416693,
      "d": 119.04750000000058,
      "v": 100
    },
    {
      "midi": 35,
      "hit": false,
      "t": 44813.69635416694,
      "d": 75.39674999999988,
      "v": 115
    },
    {
      "midi": 69,
      "hit": false,
      "t": 44813.69635416694,
      "d": 119.04750000000058,
      "v": 100
    },
    {
      "midi": 70,
      "hit": false,
      "t": 44813.69635416694,
      "d": 119.04750000000058,
      "v": 100
    },
    {
      "midi": 54,
      "hit": false,
      "t": 44813.69635416694,
      "d": 119.04750000000058,
      "v": 100
    },
    {
      "midi": 42,
      "hit": false,
      "t": 44813.69635416694,
      "d": 119.04750000000058,
      "v": 115
    },
    {
      "midi": 74,
      "hit": false,
      "t": 44813.69635416694,
      "d": 236.1108749999985,
      "v": 127
    },
    {
      "midi": 50,
      "hit": false,
      "t": 44813.69635416694,
      "d": 476.1900000000023,
      "v": 105
    },
    {
      "midi": 35,
      "hit": false,
      "t": 45051.79135416694,
      "d": 71.42849999999453,
      "v": 100
    },
    {
      "midi": 69,
      "hit": false,
      "t": 45051.79135416694,
      "d": 119.0474999999933,
      "v": 60
    },
    {
      "midi": 42,
      "hit": false,
      "t": 45051.79135416694,
      "d": 119.0474999999933,
      "v": 100
    },
    {
      "midi": 73,
      "hit": false,
      "t": 45051.79135416694,
      "d": 236.1108749999985,
      "v": 127
    },
    {
      "midi": 83,
      "hit": false,
      "t": 45055.75960416694,
      "d": 234.12675000000309,
      "v": 66
    },
    {
      "midi": 23,
      "hit": false,
      "t": 45170.838854166934,
      "d": 99.20625000000291,
      "v": 72
    },
    {
      "midi": 79,
      "hit": false,
      "t": 45198.616604166935,
      "d": 186.5077500000043,
      "v": 64
    },
    {
      "midi": 50,
      "hit": false,
      "t": 45289.88635416694,
      "d": 31.745999999999185,
      "v": 38
    },
    {
      "midi": 35,
      "hit": false,
      "t": 45289.88635416694,
      "d": 111.11099999999715,
      "v": 100
    },
    {
      "midi": 69,
      "hit": false,
      "t": 45289.88635416694,
      "d": 119.04750000000058,
      "v": 100
    },
    {
      "midi": 70,
      "hit": false,
      "t": 45289.88635416694,
      "d": 119.04750000000058,
      "v": 100
    },
    {
      "midi": 54,
      "hit": false,
      "t": 45289.88635416694,
      "d": 119.04750000000058,
      "v": 127
    },
    {
      "midi": 42,
      "hit": false,
      "t": 45289.88635416694,
      "d": 119.04750000000058,
      "v": 115
    },
    {
      "midi": 38,
      "hit": false,
      "t": 45289.88635416694,
      "d": 119.04750000000058,
      "v": 115
    },
    {
      "midi": 74,
      "hit": false,
      "t": 45289.88635416694,
      "d": 202.3807500000039,
      "v": 57
    },
    {
      "midi": 71,
      "hit": false,
      "t": 45289.88635416694,
      "d": 236.11087500000576,
      "v": 127
    },
    {
      "midi": 23,
      "hit": false,
      "t": 45408.93385416694,
      "d": 95.23800000000483,
      "v": 76
    },
    {
      "midi": 83,
      "hit": false,
      "t": 45408.93385416694,
      "d": 238.09500000000844,
      "v": 72
    },
    {
      "midi": 35,
      "hit": false,
      "t": 45527.98135416695,
      "d": 103.17450000000099,
      "v": 100
    },
    {
      "midi": 69,
      "hit": false,
      "t": 45527.98135416695,
      "d": 119.04750000000058,
      "v": 60
    },
    {
      "midi": 42,
      "hit": false,
      "t": 45527.98135416695,
      "d": 119.04750000000058,
      "v": 80
    },
    {
      "midi": 50,
      "hit": false,
      "t": 45527.98135416695,
      "d": 130.9522500000021,
      "v": 100
    },
    {
      "midi": 79,
      "hit": false,
      "t": 45527.98135416695,
      "d": 154.76175000000512,
      "v": 59
    },
    {
      "midi": 35,
      "hit": false,
      "t": 45647.02885416695,
      "d": 0,
      "v": 102
    },
    {
      "midi": 74,
      "hit": false,
      "t": 45647.02885416695,
      "d": 95.23800000000483,
      "v": 64
    },
    {
      "midi": 35,
      "hit": false,
      "t": 45766.07635416696,
      "d": 107.14274999999907,
      "v": 115
    },
    {
      "midi": 69,
      "hit": false,
      "t": 45766.07635416696,
      "d": 119.04750000000058,
      "v": 100
    },
    {
      "midi": 70,
      "hit": false,
      "t": 45766.07635416696,
      "d": 119.04750000000058,
      "v": 100
    },
    {
      "midi": 54,
      "hit": false,
      "t": 45766.07635416696,
      "d": 119.04750000000058,
      "v": 100
    },
    {
      "midi": 42,
      "hit": false,
      "t": 45766.07635416696,
      "d": 119.04750000000058,
      "v": 115
    },
    {
      "midi": 66,
      "hit": false,
      "t": 45766.07635416696,
      "d": 712.3008750000081,
      "v": 127
    },
    {
      "midi": 73,
      "hit": false,
      "t": 45766.07635416696,
      "d": 1123.0147500000166,
      "v": 47
    },
    {
      "midi": 76,
      "hit": false,
      "t": 45766.07635416696,
      "d": 1134.9195000000182,
      "v": 39
    },
    {
      "midi": 64,
      "hit": false,
      "t": 45766.07635416696,
      "d": 1206.34800000002,
      "v": 42
    },
    {
      "midi": 69,
      "hit": false,
      "t": 46004.17135416696,
      "d": 119.04750000000058,
      "v": 60
    },
    {
      "midi": 42,
      "hit": false,
      "t": 46004.17135416696,
      "d": 119.04750000000058,
      "v": 90
    },
    {
      "midi": 35,
      "hit": false,
      "t": 46004.17135416696,
      "d": 119.04750000000058,
      "v": 100
    },
    {
      "midi": 47,
      "hit": false,
      "t": 46004.17135416696,
      "d": 130.9522500000021,
      "v": 107
    },
    {
      "midi": 52,
      "hit": false,
      "t": 46004.17135416696,
      "d": 158.7300000000032,
      "v": 100
    },
    {
      "midi": 69,
      "hit": false,
      "t": 46242.26635416696,
      "d": 119.04750000000058,
      "v": 100
    },
    {
      "midi": 70,
      "hit": false,
      "t": 46242.26635416696,
      "d": 119.04750000000058,
      "v": 100
    },
    {
      "midi": 54,
      "hit": false,
      "t": 46242.26635416696,
      "d": 119.04750000000058,
      "v": 127
    },
    {
      "midi": 42,
      "hit": false,
      "t": 46242.26635416696,
      "d": 119.04750000000058,
      "v": 115
    },
    {
      "midi": 38,
      "hit": false,
      "t": 46242.26635416696,
      "d": 119.04750000000058,
      "v": 115
    },
    {
      "midi": 35,
      "hit": false,
      "t": 46242.26635416696,
      "d": 142.8570000000036,
      "v": 113
    },
    {
      "midi": 69,
      "hit": false,
      "t": 46480.36135416697,
      "d": 119.04750000000058,
      "v": 60
    },
    {
      "midi": 46,
      "hit": false,
      "t": 46480.36135416697,
      "d": 119.04750000000058,
      "v": 100
    },
    {
      "midi": 35,
      "hit": false,
      "t": 46480.36135416697,
      "d": 119.04750000000058,
      "v": 90
    },
    {
      "midi": 35,
      "hit": false,
      "t": 46718.45635416698,
      "d": 75.39674999999988,
      "v": 115
    },
    {
      "midi": 69,
      "hit": false,
      "t": 46718.45635416698,
      "d": 119.04750000000058,
      "v": 100
    },
    {
      "midi": 70,
      "hit": false,
      "t": 46718.45635416698,
      "d": 119.04750000000058,
      "v": 100
    },
    {
      "midi": 54,
      "hit": false,
      "t": 46718.45635416698,
      "d": 119.04750000000058,
      "v": 100
    },
    {
      "midi": 42,
      "hit": false,
      "t": 46718.45635416698,
      "d": 119.04750000000058,
      "v": 115
    },
    {
      "midi": 66,
      "hit": false,
      "t": 46718.45635416698,
      "d": 474.2058750000069,
      "v": 127
    },
    {
      "midi": 52,
      "hit": false,
      "t": 46718.45635416698,
      "d": 476.1900000000096,
      "v": 105
    },
    {
      "midi": 69,
      "hit": false,
      "t": 46956.55135416698,
      "d": 119.04750000000058,
      "v": 60
    },
    {
      "midi": 42,
      "hit": false,
      "t": 46956.55135416698,
      "d": 119.04750000000058,
      "v": 100
    },
    {
      "midi": 35,
      "hit": false,
      "t": 46956.55135416698,
      "d": 119.04750000000058,
      "v": 90
    },
    {
      "midi": 47,
      "hit": false,
      "t": 46972.42435416698,
      "d": 55.55550000000221,
      "v": 59
    },
    {
      "midi": 47,
      "hit": false,
      "t": 47194.64635416699,
      "d": 31.745999999999185,
      "v": 100
    },
    {
      "midi": 52,
      "hit": false,
      "t": 47194.64635416699,
      "d": 31.745999999999185,
      "v": 38
    },
    {
      "midi": 69,
      "hit": false,
      "t": 47194.64635416699,
      "d": 119.04750000000058,
      "v": 100
    },
    {
      "midi": 70,
      "hit": false,
      "t": 47194.64635416699,
      "d": 119.04750000000058,
      "v": 100
    },
    {
      "midi": 54,
      "hit": false,
      "t": 47194.64635416699,
      "d": 119.04750000000058,
      "v": 127
    },
    {
      "midi": 42,
      "hit": false,
      "t": 47194.64635416699,
      "d": 119.04750000000058,
      "v": 115
    },
    {
      "midi": 38,
      "hit": false,
      "t": 47194.64635416699,
      "d": 119.04750000000058,
      "v": 115
    },
    {
      "midi": 35,
      "hit": false,
      "t": 47194.64635416699,
      "d": 134.92050000000017,
      "v": 105
    },
    {
      "midi": 73,
      "hit": false,
      "t": 47194.64635416699,
      "d": 182.53950000000623,
      "v": 74
    },
    {
      "midi": 76,
      "hit": false,
      "t": 47194.64635416699,
      "d": 202.3807500000039,
      "v": 65
    },
    {
      "midi": 64,
      "hit": false,
      "t": 47194.64635416699,
      "d": 214.2855000000054,
      "v": 51
    },
    {
      "midi": 66,
      "hit": false,
      "t": 47432.741354166996,
      "d": 117.0633749999979,
      "v": 127
    },
    {
      "midi": 69,
      "hit": false,
      "t": 47432.741354166996,
      "d": 119.04750000000058,
      "v": 60
    },
    {
      "midi": 42,
      "hit": false,
      "t": 47432.741354166996,
      "d": 119.04750000000058,
      "v": 100
    },
    {
      "midi": 35,
      "hit": false,
      "t": 47432.741354166996,
      "d": 119.04750000000058,
      "v": 100
    },
    {
      "midi": 52,
      "hit": false,
      "t": 47432.741354166996,
      "d": 130.9522500000021,
      "v": 100
    },
    {
      "midi": 66,
      "hit": false,
      "t": 47551.788854166996,
      "d": 117.0633749999979,
      "v": 127
    },
    {
      "midi": 69,
      "hit": false,
      "t": 47670.836354167,
      "d": 119.04750000000058,
      "v": 100
    },
    {
      "midi": 70,
      "hit": false,
      "t": 47670.836354167,
      "d": 119.04750000000058,
      "v": 100
    },
    {
      "midi": 54,
      "hit": false,
      "t": 47670.836354167,
      "d": 119.04750000000058,
      "v": 100
    },
    {
      "midi": 42,
      "hit": false,
      "t": 47670.836354167,
      "d": 119.04750000000058,
      "v": 115
    },
    {
      "midi": 35,
      "hit": false,
      "t": 47670.836354167,
      "d": 119.04750000000058,
      "v": 115
    },
    {
      "midi": 74,
      "hit": false,
      "t": 47670.836354167,
      "d": 236.1108749999985,
      "v": 60
    },
    {
      "midi": 66,
      "hit": false,
      "t": 47670.836354167,
      "d": 1761.9030000000203,
      "v": 47
    },
    {
      "midi": 78,
      "hit": false,
      "t": 47670.836354167,
      "d": 1781.7442500000252,
      "v": 57
    },
    {
      "midi": 69,
      "hit": false,
      "t": 47908.931354167,
      "d": 119.04750000000058,
      "v": 60
    },
    {
      "midi": 42,
      "hit": false,
      "t": 47908.931354167,
      "d": 119.04750000000058,
      "v": 100
    },
    {
      "midi": 35,
      "hit": false,
      "t": 47908.931354167,
      "d": 119.04750000000058,
      "v": 100
    },
    {
      "midi": 54,
      "hit": false,
      "t": 47908.931354167,
      "d": 182.53949999999895,
      "v": 107
    },
    {
      "midi": 47,
      "hit": false,
      "t": 47908.931354167,
      "d": 194.44425000000047,
      "v": 110
    },
    {
      "midi": 73,
      "hit": false,
      "t": 47908.931354167,
      "d": 236.1108749999985,
      "v": 127
    },
    {
      "midi": 35,
      "hit": false,
      "t": 48147.026354167,
      "d": 79.36499999999796,
      "v": 119
    },
    {
      "midi": 69,
      "hit": false,
      "t": 48147.026354167,
      "d": 119.04750000000058,
      "v": 100
    },
    {
      "midi": 70,
      "hit": false,
      "t": 48147.026354167,
      "d": 119.04750000000058,
      "v": 100
    },
    {
      "midi": 54,
      "hit": false,
      "t": 48147.026354167,
      "d": 119.04750000000058,
      "v": 127
    },
    {
      "midi": 42,
      "hit": false,
      "t": 48147.026354167,
      "d": 119.04750000000058,
      "v": 115
    },
    {
      "midi": 38,
      "hit": false,
      "t": 48147.026354167,
      "d": 119.04750000000058,
      "v": 115
    },
    {
      "midi": 71,
      "hit": false,
      "t": 48147.026354167,
      "d": 236.1108749999985,
      "v": 127
    },
    {
      "midi": 69,
      "hit": false,
      "t": 48385.121354167,
      "d": 119.04750000000058,
      "v": 60
    },
    {
      "midi": 42,
      "hit": false,
      "t": 48385.121354167,
      "d": 119.04750000000058,
      "v": 100
    },
    {
      "midi": 35,
      "hit": false,
      "t": 48385.121354167,
      "d": 119.04750000000058,
      "v": 100
    },
    {
      "midi": 73,
      "hit": false,
      "t": 48385.121354167,
      "d": 236.1108749999985,
      "v": 127
    },
    {
      "midi": 23,
      "hit": false,
      "t": 48504.168854167,
      "d": 63.49199999999837,
      "v": 93
    },
    {
      "midi": 69,
      "hit": false,
      "t": 48623.216354167,
      "d": 119.04750000000058,
      "v": 100
    },
    {
      "midi": 70,
      "hit": false,
      "t": 48623.216354167,
      "d": 119.04750000000058,
      "v": 100
    },
    {
      "midi": 54,
      "hit": false,
      "t": 48623.216354167,
      "d": 119.04750000000058,
      "v": 100
    },
    {
      "midi": 42,
      "hit": false,
      "t": 48623.216354167,
      "d": 119.04750000000058,
      "v": 115
    },
    {
      "midi": 35,
      "hit": false,
      "t": 48623.216354167,
      "d": 119.04750000000058,
      "v": 115
    },
    {
      "midi": 74,
      "hit": false,
      "t": 48623.216354167,
      "d": 236.1108749999985,
      "v": 127
    },
    {
      "midi": 47,
      "hit": false,
      "t": 48623.216354167,
      "d": 821.4277500000171,
      "v": 110
    },
    {
      "midi": 35,
      "hit": false,
      "t": 48861.311354167,
      "d": 83.33325000000332,
      "v": 100
    },
    {
      "midi": 73,
      "hit": false,
      "t": 48861.311354167,
      "d": 117.06337500000518,
      "v": 127
    },
    {
      "midi": 69,
      "hit": false,
      "t": 48861.311354167,
      "d": 119.04750000000786,
      "v": 60
    },
    {
      "midi": 42,
      "hit": false,
      "t": 48861.311354167,
      "d": 119.04750000000786,
      "v": 100
    },
    {
      "midi": 71,
      "hit": false,
      "t": 48980.35885416701,
      "d": 355.15837499999907,
      "v": 127
    },
    {
      "midi": 69,
      "hit": false,
      "t": 49099.40635416701,
      "d": 119.04750000000058,
      "v": 100
    },
    {
      "midi": 70,
      "hit": false,
      "t": 49099.40635416701,
      "d": 119.04750000000058,
      "v": 100
    },
    {
      "midi": 54,
      "hit": false,
      "t": 49099.40635416701,
      "d": 119.04750000000058,
      "v": 127
    },
    {
      "midi": 42,
      "hit": false,
      "t": 49099.40635416701,
      "d": 119.04750000000058,
      "v": 115
    },
    {
      "midi": 38,
      "hit": false,
      "t": 49099.40635416701,
      "d": 119.04750000000058,
      "v": 115
    },
    {
      "midi": 35,
      "hit": false,
      "t": 49099.40635416701,
      "d": 198.41249999999854,
      "v": 113
    },
    {
      "midi": 42,
      "hit": false,
      "t": 49337.50135416701,
      "d": 75.39674999999988,
      "v": 80
    },
    {
      "midi": 71,
      "hit": false,
      "t": 49337.50135416701,
      "d": 103.17450000000827,
      "v": 127
    },
    {
      "midi": 69,
      "hit": false,
      "t": 49337.50135416701,
      "d": 119.04750000001513,
      "v": 60
    },
    {
      "midi": 35,
      "hit": false,
      "t": 49337.50135416701,
      "d": 119.04750000001513,
      "v": 100
    },
    {
      "midi": 71,
      "hit": false,
      "t": 49456.54885416703,
      "d": 117.0633749999979,
      "v": 127
    },
    {
      "midi": 69,
      "hit": false,
      "t": 49575.59635416703,
      "d": 119.04750000000058,
      "v": 100
    },
    {
      "midi": 70,
      "hit": false,
      "t": 49575.59635416703,
      "d": 119.04750000000058,
      "v": 100
    },
    {
      "midi": 54,
      "hit": false,
      "t": 49575.59635416703,
      "d": 119.04750000000058,
      "v": 100
    },
    {
      "midi": 42,
      "hit": false,
      "t": 49575.59635416703,
      "d": 119.04750000000058,
      "v": 115
    },
    {
      "midi": 35,
      "hit": false,
      "t": 49575.59635416703,
      "d": 119.04750000000058,
      "v": 115
    },
    {
      "midi": 76,
      "hit": false,
      "t": 49575.59635416703,
      "d": 355.15837499999907,
      "v": 127
    },
    {
      "midi": 83,
      "hit": false,
      "t": 49575.59635416703,
      "d": 1115.078250000006,
      "v": 43
    },
    {
      "midi": 79,
      "hit": false,
      "t": 49575.59635416703,
      "d": 1194.443250000004,
      "v": 41
    },
    {
      "midi": 71,
      "hit": false,
      "t": 49575.59635416703,
      "d": 1896.8235000000059,
      "v": 43
    },
    {
      "midi": 69,
      "hit": false,
      "t": 49813.69135416703,
      "d": 119.04750000000058,
      "v": 60
    },
    {
      "midi": 42,
      "hit": false,
      "t": 49813.69135416703,
      "d": 119.04750000000058,
      "v": 70
    },
    {
      "midi": 35,
      "hit": false,
      "t": 49813.69135416703,
      "d": 119.04750000000058,
      "v": 100
    },
    {
      "midi": 50,
      "hit": false,
      "t": 49813.69135416703,
      "d": 154.76174999999785,
      "v": 91
    },
    {
      "midi": 74,
      "hit": false,
      "t": 49932.73885416703,
      "d": 355.15837499999907,
      "v": 127
    },
    {
      "midi": 69,
      "hit": false,
      "t": 50051.78635416703,
      "d": 119.04750000000058,
      "v": 100
    },
    {
      "midi": 70,
      "hit": false,
      "t": 50051.78635416703,
      "d": 119.04750000000058,
      "v": 100
    },
    {
      "midi": 54,
      "hit": false,
      "t": 50051.78635416703,
      "d": 119.04750000000058,
      "v": 127
    },
    {
      "midi": 42,
      "hit": false,
      "t": 50051.78635416703,
      "d": 119.04750000000058,
      "v": 100
    },
    {
      "midi": 38,
      "hit": false,
      "t": 50051.78635416703,
      "d": 119.04750000000058,
      "v": 115
    },
    {
      "midi": 35,
      "hit": false,
      "t": 50051.78635416703,
      "d": 134.92050000000017,
      "v": 119
    },
    {
      "midi": 69,
      "hit": false,
      "t": 50289.88135416703,
      "d": 119.04750000000058,
      "v": 60
    },
    {
      "midi": 42,
      "hit": false,
      "t": 50289.88135416703,
      "d": 119.04750000000058,
      "v": 90
    },
    {
      "midi": 35,
      "hit": false,
      "t": 50289.88135416703,
      "d": 119.04750000000058,
      "v": 100
    },
    {
      "midi": 78,
      "hit": false,
      "t": 50289.88135416703,
      "d": 236.1108749999985,
      "v": 127
    },
    {
      "midi": 23,
      "hit": false,
      "t": 50408.92885416703,
      "d": 63.49199999999837,
      "v": 93
    },
    {
      "midi": 69,
      "hit": false,
      "t": 50527.97635416703,
      "d": 119.04750000000058,
      "v": 100
    },
    {
      "midi": 70,
      "hit": false,
      "t": 50527.97635416703,
      "d": 119.04750000000058,
      "v": 100
    },
    {
      "midi": 54,
      "hit": false,
      "t": 50527.97635416703,
      "d": 119.04750000000058,
      "v": 100
    },
    {
      "midi": 42,
      "hit": false,
      "t": 50527.97635416703,
      "d": 119.04750000000058,
      "v": 115
    },
    {
      "midi": 35,
      "hit": false,
      "t": 50527.97635416703,
      "d": 119.04750000000058,
      "v": 115
    },
    {
      "midi": 78,
      "hit": false,
      "t": 50527.97635416703,
      "d": 474.20587499999965,
      "v": 127
    },
    {
      "midi": 55,
      "hit": false,
      "t": 50527.97635416703,
      "d": 734.1262500000012,
      "v": 100
    },
    {
      "midi": 35,
      "hit": false,
      "t": 50766.071354167034,
      "d": 75.39674999999988,
      "v": 90
    },
    {
      "midi": 69,
      "hit": false,
      "t": 50766.071354167034,
      "d": 119.04750000000058,
      "v": 60
    },
    {
      "midi": 42,
      "hit": false,
      "t": 50766.071354167034,
      "d": 119.04750000000058,
      "v": 90
    },
    {
      "midi": 50,
      "hit": false,
      "t": 50766.071354167034,
      "d": 321.4282500000045,
      "v": 89
    },
    {
      "midi": 83,
      "hit": false,
      "t": 50770.03960416703,
      "d": 234.12675000000309,
      "v": 66
    },
    {
      "midi": 79,
      "hit": false,
      "t": 50912.896604167036,
      "d": 186.5077500000043,
      "v": 64
    },
    {
      "midi": 69,
      "hit": false,
      "t": 51004.166354167035,
      "d": 119.04750000000786,
      "v": 100
    },
    {
      "midi": 70,
      "hit": false,
      "t": 51004.166354167035,
      "d": 119.04750000000786,
      "v": 100
    },
    {
      "midi": 54,
      "hit": false,
      "t": 51004.166354167035,
      "d": 119.04750000000786,
      "v": 127
    },
    {
      "midi": 42,
      "hit": false,
      "t": 51004.166354167035,
      "d": 119.04750000000786,
      "v": 115
    },
    {
      "midi": 38,
      "hit": false,
      "t": 51004.166354167035,
      "d": 119.04750000000786,
      "v": 115
    },
    {
      "midi": 35,
      "hit": false,
      "t": 51004.166354167035,
      "d": 198.41250000000582,
      "v": 102
    },
    {
      "midi": 74,
      "hit": false,
      "t": 51004.166354167035,
      "d": 202.3807500000039,
      "v": 57
    },
    {
      "midi": 83,
      "hit": false,
      "t": 51123.21385416704,
      "d": 238.0949999999939,
      "v": 72
    },
    {
      "midi": 42,
      "hit": false,
      "t": 51242.261354167036,
      "d": 75.39674999999988,
      "v": 90
    },
    {
      "midi": 69,
      "hit": false,
      "t": 51242.261354167036,
      "d": 119.04750000000058,
      "v": 60
    },
    {
      "midi": 35,
      "hit": false,
      "t": 51242.261354167036,
      "d": 119.04750000000058,
      "v": 100
    },
    {
      "midi": 79,
      "hit": false,
      "t": 51242.261354167036,
      "d": 154.76174999999785,
      "v": 59
    },
    {
      "midi": 50,
      "hit": false,
      "t": 51242.261354167036,
      "d": 178.57125000000087,
      "v": 98
    },
    {
      "midi": 74,
      "hit": false,
      "t": 51361.30885416704,
      "d": 95.23799999999756,
      "v": 64
    },
    {
      "midi": 46,
      "hit": false,
      "t": 51361.30885416704,
      "d": 119.04750000000058,
      "v": 100
    },
    {
      "midi": 69,
      "hit": false,
      "t": 51480.35635416704,
      "d": 119.04750000000058,
      "v": 100
    },
    {
      "midi": 70,
      "hit": false,
      "t": 51480.35635416704,
      "d": 119.04750000000058,
      "v": 100
    },
    {
      "midi": 54,
      "hit": false,
      "t": 51480.35635416704,
      "d": 119.04750000000058,
      "v": 100
    },
    {
      "midi": 42,
      "hit": false,
      "t": 51480.35635416704,
      "d": 119.04750000000058,
      "v": 115
    },
    {
      "midi": 35,
      "hit": false,
      "t": 51480.35635416704,
      "d": 119.04750000000058,
      "v": 115
    },
    {
      "midi": 83,
      "hit": false,
      "t": 51480.35635416704,
      "d": 178.57125000000087,
      "v": 57
    },
    {
      "midi": 74,
      "hit": false,
      "t": 51480.35635416704,
      "d": 190.4760000000024,
      "v": 35
    },
    {
      "midi": 79,
      "hit": false,
      "t": 51480.35635416704,
      "d": 190.4760000000024,
      "v": 53
    },
    {
      "midi": 86,
      "hit": false,
      "t": 51480.35635416704,
      "d": 210.31725000000006,
      "v": 55
    },
    {
      "midi": 76,
      "hit": false,
      "t": 51480.35635416704,
      "d": 236.1108749999985,
      "v": 127
    },
    {
      "midi": 78,
      "hit": false,
      "t": 51718.45135416704,
      "d": 117.0633749999979,
      "v": 127
    },
    {
      "midi": 69,
      "hit": false,
      "t": 51718.45135416704,
      "d": 119.04750000000058,
      "v": 60
    },
    {
      "midi": 42,
      "hit": false,
      "t": 51718.45135416704,
      "d": 119.04750000000058,
      "v": 90
    },
    {
      "midi": 35,
      "hit": false,
      "t": 51718.45135416704,
      "d": 119.04750000000058,
      "v": 100
    },
    {
      "midi": 50,
      "hit": false,
      "t": 51718.45135416704,
      "d": 182.53949999999895,
      "v": 107
    },
    {
      "midi": 71,
      "hit": false,
      "t": 51837.49885416704,
      "d": 117.0633749999979,
      "v": 127
    },
    {
      "midi": 69,
      "hit": false,
      "t": 51956.54635416704,
      "d": 119.04750000000058,
      "v": 100
    },
    {
      "midi": 70,
      "hit": false,
      "t": 51956.54635416704,
      "d": 119.04750000000058,
      "v": 100
    },
    {
      "midi": 54,
      "hit": false,
      "t": 51956.54635416704,
      "d": 119.04750000000058,
      "v": 127
    },
    {
      "midi": 42,
      "hit": false,
      "t": 51956.54635416704,
      "d": 119.04750000000058,
      "v": 115
    },
    {
      "midi": 38,
      "hit": false,
      "t": 51956.54635416704,
      "d": 119.04750000000058,
      "v": 115
    },
    {
      "midi": 35,
      "hit": false,
      "t": 51956.54635416704,
      "d": 134.92050000000017,
      "v": 119
    },
    {
      "midi": 69,
      "hit": false,
      "t": 52194.64135416704,
      "d": 119.04750000000058,
      "v": 60
    },
    {
      "midi": 42,
      "hit": false,
      "t": 52194.64135416704,
      "d": 119.04750000000058,
      "v": 90
    },
    {
      "midi": 35,
      "hit": false,
      "t": 52194.64135416704,
      "d": 119.04750000000058,
      "v": 100
    },
    {
      "midi": 71,
      "hit": false,
      "t": 52194.64135416704,
      "d": 236.1108749999985,
      "v": 127
    },
    {
      "midi": 79,
      "hit": false,
      "t": 52194.64135416704,
      "d": 948.4117500000066,
      "v": 62
    },
    {
      "midi": 83,
      "hit": false,
      "t": 52194.64135416704,
      "d": 948.4117500000066,
      "v": 62
    },
    {
      "midi": 86,
      "hit": false,
      "t": 52194.64135416704,
      "d": 952.3800000000047,
      "v": 60
    },
    {
      "midi": 74,
      "hit": false,
      "t": 52194.64135416704,
      "d": 960.3165000000081,
      "v": 60
    },
    {
      "midi": 23,
      "hit": false,
      "t": 52313.68885416704,
      "d": 63.49199999999837,
      "v": 93
    },
    {
      "midi": 69,
      "hit": false,
      "t": 52432.73635416704,
      "d": 119.04750000000058,
      "v": 100
    },
    {
      "midi": 70,
      "hit": false,
      "t": 52432.73635416704,
      "d": 119.04750000000058,
      "v": 100
    },
    {
      "midi": 54,
      "hit": false,
      "t": 52432.73635416704,
      "d": 119.04750000000058,
      "v": 100
    },
    {
      "midi": 42,
      "hit": false,
      "t": 52432.73635416704,
      "d": 119.04750000000058,
      "v": 115
    },
    {
      "midi": 35,
      "hit": false,
      "t": 52432.73635416704,
      "d": 119.04750000000058,
      "v": 115
    },
    {
      "midi": 76,
      "hit": false,
      "t": 52432.73635416704,
      "d": 236.1108749999985,
      "v": 127
    },
    {
      "midi": 50,
      "hit": false,
      "t": 52432.73635416704,
      "d": 801.5865000000049,
      "v": 110
    },
    {
      "midi": 35,
      "hit": false,
      "t": 52670.83135416704,
      "d": 83.33325000000332,
      "v": 100
    },
    {
      "midi": 78,
      "hit": false,
      "t": 52670.83135416704,
      "d": 117.06337500000518,
      "v": 127
    },
    {
      "midi": 69,
      "hit": false,
      "t": 52670.83135416704,
      "d": 119.04750000000786,
      "v": 60
    },
    {
      "midi": 42,
      "hit": false,
      "t": 52670.83135416704,
      "d": 119.04750000000786,
      "v": 100
    },
    {
      "midi": 71,
      "hit": false,
      "t": 52789.87885416705,
      "d": 117.0633749999979,
      "v": 127
    },
    {
      "midi": 69,
      "hit": false,
      "t": 52908.92635416705,
      "d": 119.04750000000058,
      "v": 100
    },
    {
      "midi": 70,
      "hit": false,
      "t": 52908.92635416705,
      "d": 119.04750000000058,
      "v": 100
    },
    {
      "midi": 54,
      "hit": false,
      "t": 52908.92635416705,
      "d": 119.04750000000058,
      "v": 127
    },
    {
      "midi": 42,
      "hit": false,
      "t": 52908.92635416705,
      "d": 119.04750000000058,
      "v": 115
    },
    {
      "midi": 38,
      "hit": false,
      "t": 52908.92635416705,
      "d": 119.04750000000058,
      "v": 115
    },
    {
      "midi": 35,
      "hit": false,
      "t": 52908.92635416705,
      "d": 198.41249999999854,
      "v": 113
    },
    {
      "midi": 32,
      "hit": false,
      "t": 53147.021354167046,
      "d": 75.39674999999988,
      "v": 98
    },
    {
      "midi": 35,
      "hit": false,
      "t": 53147.021354167046,
      "d": 107.14274999999907,
      "v": 100
    },
    {
      "midi": 71,
      "hit": false,
      "t": 53147.021354167046,
      "d": 117.0633749999979,
      "v": 127
    },
    {
      "midi": 69,
      "hit": false,
      "t": 53147.021354167046,
      "d": 119.04750000000058,
      "v": 60
    },
    {
      "midi": 42,
      "hit": false,
      "t": 53147.021354167046,
      "d": 119.04750000000058,
      "v": 100
    },
    {
      "midi": 71,
      "hit": false,
      "t": 53266.068854167046,
      "d": 117.0633749999979,
      "v": 127
    },
    {
      "midi": 69,
      "hit": false,
      "t": 53385.11635416705,
      "d": 119.04750000000058,
      "v": 100
    },
    {
      "midi": 70,
      "hit": false,
      "t": 53385.11635416705,
      "d": 119.04750000000058,
      "v": 100
    },
    {
      "midi": 54,
      "hit": false,
      "t": 53385.11635416705,
      "d": 119.04750000000058,
      "v": 100
    },
    {
      "midi": 42,
      "hit": false,
      "t": 53385.11635416705,
      "d": 119.04750000000058,
      "v": 115
    },
    {
      "midi": 35,
      "hit": false,
      "t": 53385.11635416705,
      "d": 119.04750000000058,
      "v": 115
    },
    {
      "midi": 33,
      "hit": false,
      "t": 53385.11635416705,
      "d": 150.79349999999977,
      "v": 105
    },
    {
      "midi": 73,
      "hit": false,
      "t": 53385.11635416705,
      "d": 857.1420000000071,
      "v": 55
    },
    {
      "midi": 76,
      "hit": false,
      "t": 53385.11635416705,
      "d": 857.1420000000071,
      "v": 48
    },
    {
      "midi": 64,
      "hit": false,
      "t": 53385.11635416705,
      "d": 880.9515000000101,
      "v": 61
    },
    {
      "midi": 69,
      "hit": false,
      "t": 53623.21135416705,
      "d": 117.0633749999979,
      "v": 60
    },
    {
      "midi": 42,
      "hit": false,
      "t": 53623.21135416705,
      "d": 119.04750000000058,
      "v": 100
    },
    {
      "midi": 35,
      "hit": false,
      "t": 53623.21135416705,
      "d": 119.04750000000058,
      "v": 100
    },
    {
      "midi": 33,
      "hit": false,
      "t": 53623.21135416705,
      "d": 190.4760000000024,
      "v": 107
    },
    {
      "midi": 57,
      "hit": false,
      "t": 53623.21135416705,
      "d": 202.3807500000039,
      "v": 100
    },
    {
      "midi": 52,
      "hit": false,
      "t": 53623.21135416705,
      "d": 206.34900000000198,
      "v": 91
    },
    {
      "midi": 45,
      "hit": false,
      "t": 53623.21135416705,
      "d": 210.31725000000006,
      "v": 95
    },
    {
      "midi": 74,
      "hit": false,
      "t": 53742.25885416705,
      "d": 355.15837499999907,
      "v": 127
    },
    {
      "midi": 69,
      "hit": false,
      "t": 53861.30635416705,
      "d": 119.04750000000058,
      "v": 100
    },
    {
      "midi": 70,
      "hit": false,
      "t": 53861.30635416705,
      "d": 119.04750000000058,
      "v": 100
    },
    {
      "midi": 54,
      "hit": false,
      "t": 53861.30635416705,
      "d": 119.04750000000058,
      "v": 127
    },
    {
      "midi": 42,
      "hit": false,
      "t": 53861.30635416705,
      "d": 119.04750000000058,
      "v": 115
    },
    {
      "midi": 38,
      "hit": false,
      "t": 53861.30635416705,
      "d": 119.04750000000058,
      "v": 115
    },
    {
      "midi": 33,
      "hit": false,
      "t": 53861.30635416705,
      "d": 150.79349999999977,
      "v": 102
    },
    {
      "midi": 57,
      "hit": false,
      "t": 54099.40135416705,
      "d": 23.809500000003027,
      "v": 105
    },
    {
      "midi": 33,
      "hit": false,
      "t": 54099.40135416705,
      "d": 67.46025000000373,
      "v": 116
    },
    {
      "midi": 69,
      "hit": false,
      "t": 54099.40135416705,
      "d": 119.04750000000058,
      "v": 60
    },
    {
      "midi": 42,
      "hit": false,
      "t": 54099.40135416705,
      "d": 119.04750000000058,
      "v": 100
    },
    {
      "midi": 35,
      "hit": false,
      "t": 54099.40135416705,
      "d": 119.04750000000058,
      "v": 100
    },
    {
      "midi": 52,
      "hit": false,
      "t": 54099.40135416705,
      "d": 194.44425000000774,
      "v": 110
    },
    {
      "midi": 45,
      "hit": false,
      "t": 54099.40135416705,
      "d": 198.41250000000582,
      "v": 110
    },
    {
      "midi": 71,
      "hit": false,
      "t": 54099.40135416705,
      "d": 712.3008750000154,
      "v": 127
    },
    {
      "midi": 21,
      "hit": false,
      "t": 54218.44885416705,
      "d": 59.52375000000757,
      "v": 80
    },
    {
      "midi": 38,
      "hit": false,
      "t": 54218.44885416705,
      "d": 119.04750000000786,
      "v": 60
    },
    {
      "midi": 59,
      "hit": false,
      "t": 54337.49635416706,
      "d": 31.745999999999185,
      "v": 105
    },
    {
      "midi": 69,
      "hit": false,
      "t": 54337.49635416706,
      "d": 119.04750000000058,
      "v": 100
    },
    {
      "midi": 70,
      "hit": false,
      "t": 54337.49635416706,
      "d": 119.04750000000058,
      "v": 100
    },
    {
      "midi": 54,
      "hit": false,
      "t": 54337.49635416706,
      "d": 119.04750000000058,
      "v": 100
    },
    {
      "midi": 42,
      "hit": false,
      "t": 54337.49635416706,
      "d": 119.04750000000058,
      "v": 115
    },
    {
      "midi": 35,
      "hit": false,
      "t": 54337.49635416706,
      "d": 119.04750000000058,
      "v": 115
    },
    {
      "midi": 47,
      "hit": false,
      "t": 54337.49635416706,
      "d": 158.7300000000032,
      "v": 107
    },
    {
      "midi": 74,
      "hit": false,
      "t": 54337.49635416706,
      "d": 857.1420000000144,
      "v": 55
    },
    {
      "midi": 78,
      "hit": false,
      "t": 54337.49635416706,
      "d": 857.1420000000144,
      "v": 48
    },
    {
      "midi": 66,
      "hit": false,
      "t": 54337.49635416706,
      "d": 880.9515000000174,
      "v": 61
    },
    {
      "midi": 69,
      "hit": false,
      "t": 54575.59135416706,
      "d": 119.04750000000058,
      "v": 60
    },
    {
      "midi": 42,
      "hit": false,
      "t": 54575.59135416706,
      "d": 119.04750000000058,
      "v": 90
    },
    {
      "midi": 35,
      "hit": false,
      "t": 54575.59135416706,
      "d": 119.04750000000058,
      "v": 90
    },
    {
      "midi": 47,
      "hit": false,
      "t": 54575.59135416706,
      "d": 706.3485000000146,
      "v": 107
    },
    {
      "midi": 69,
      "hit": false,
      "t": 54813.68635416707,
      "d": 119.04750000000058,
      "v": 100
    },
    {
      "midi": 70,
      "hit": false,
      "t": 54813.68635416707,
      "d": 119.04750000000058,
      "v": 100
    },
    {
      "midi": 54,
      "hit": false,
      "t": 54813.68635416707,
      "d": 119.04750000000058,
      "v": 127
    },
    {
      "midi": 42,
      "hit": false,
      "t": 54813.68635416707,
      "d": 119.04750000000058,
      "v": 115
    },
    {
      "midi": 38,
      "hit": false,
      "t": 54813.68635416707,
      "d": 119.04750000000058,
      "v": 115
    },
    {
      "midi": 35,
      "hit": false,
      "t": 54813.68635416707,
      "d": 150.79349999999977,
      "v": 102
    },
    {
      "midi": 54,
      "hit": false,
      "t": 55051.78135416707,
      "d": 39.68250000000262,
      "v": 76
    },
    {
      "midi": 35,
      "hit": false,
      "t": 55051.78135416707,
      "d": 67.46025000000373,
      "v": 100
    },
    {
      "midi": 69,
      "hit": false,
      "t": 55051.78135416707,
      "d": 119.04750000000058,
      "v": 60
    },
    {
      "midi": 42,
      "hit": false,
      "t": 55051.78135416707,
      "d": 119.04750000000058,
      "v": 90
    },
    {
      "midi": 59,
      "hit": false,
      "t": 55051.78135416707,
      "d": 238.09500000000844,
      "v": 95
    },
    {
      "midi": 23,
      "hit": false,
      "t": 55170.82885416707,
      "d": 59.52375000000757,
      "v": 80
    },
    {
      "midi": 35,
      "hit": false,
      "t": 55170.82885416707,
      "d": 119.04750000000786,
      "v": 90
    },
    {
      "midi": 60,
      "hit": false,
      "t": 55289.87635416708,
      "d": 31.745999999999185,
      "v": 105
    },
    {
      "midi": 36,
      "hit": false,
      "t": 55289.87635416708,
      "d": 83.33324999999604,
      "v": 105
    },
    {
      "midi": 69,
      "hit": false,
      "t": 55289.87635416708,
      "d": 119.0474999999933,
      "v": 100
    },
    {
      "midi": 70,
      "hit": false,
      "t": 55289.87635416708,
      "d": 119.0474999999933,
      "v": 100
    },
    {
      "midi": 54,
      "hit": false,
      "t": 55289.87635416708,
      "d": 119.0474999999933,
      "v": 100
    },
    {
      "midi": 42,
      "hit": false,
      "t": 55289.87635416708,
      "d": 119.0474999999933,
      "v": 115
    },
    {
      "midi": 35,
      "hit": false,
      "t": 55289.87635416708,
      "d": 119.0474999999933,
      "v": 115
    },
    {
      "midi": 48,
      "hit": false,
      "t": 55289.87635416708,
      "d": 158.72999999999593,
      "v": 107
    },
    {
      "midi": 55,
      "hit": false,
      "t": 55289.87635416708,
      "d": 325.3964999999953,
      "v": 102
    },
    {
      "midi": 76,
      "hit": false,
      "t": 55289.87635416708,
      "d": 474.2058749999924,
      "v": 61
    },
    {
      "midi": 67,
      "hit": false,
      "t": 55289.87635416708,
      "d": 952.3799999999974,
      "v": 50
    },
    {
      "midi": 69,
      "hit": false,
      "t": 55527.97135416707,
      "d": 119.04750000000058,
      "v": 60
    },
    {
      "midi": 42,
      "hit": false,
      "t": 55527.97135416707,
      "d": 119.04750000000058,
      "v": 90
    },
    {
      "midi": 35,
      "hit": false,
      "t": 55527.97135416707,
      "d": 119.04750000000058,
      "v": 100
    },
    {
      "midi": 36,
      "hit": false,
      "t": 55527.97135416707,
      "d": 194.44425000000047,
      "v": 116
    },
    {
      "midi": 48,
      "hit": false,
      "t": 55527.97135416707,
      "d": 706.3485000000001,
      "v": 107
    },
    {
      "midi": 69,
      "hit": false,
      "t": 55766.06635416707,
      "d": 119.04750000000058,
      "v": 100
    },
    {
      "midi": 70,
      "hit": false,
      "t": 55766.06635416707,
      "d": 119.04750000000058,
      "v": 100
    },
    {
      "midi": 54,
      "hit": false,
      "t": 55766.06635416707,
      "d": 119.04750000000058,
      "v": 127
    },
    {
      "midi": 42,
      "hit": false,
      "t": 55766.06635416707,
      "d": 119.04750000000058,
      "v": 115
    },
    {
      "midi": 38,
      "hit": false,
      "t": 55766.06635416707,
      "d": 119.04750000000058,
      "v": 115
    },
    {
      "midi": 36,
      "hit": false,
      "t": 55766.06635416707,
      "d": 123.01574999999866,
      "v": 110
    },
    {
      "midi": 55,
      "hit": false,
      "t": 55766.06635416707,
      "d": 210.31725000000006,
      "v": 100
    },
    {
      "midi": 76,
      "hit": false,
      "t": 55766.06635416707,
      "d": 236.1108749999985,
      "v": 127
    },
    {
      "midi": 55,
      "hit": false,
      "t": 56004.161354167074,
      "d": 39.68250000000262,
      "v": 76
    },
    {
      "midi": 34,
      "hit": false,
      "t": 56004.161354167074,
      "d": 99.20625000000291,
      "v": 110
    },
    {
      "midi": 69,
      "hit": false,
      "t": 56004.161354167074,
      "d": 119.04750000000058,
      "v": 60
    },
    {
      "midi": 42,
      "hit": false,
      "t": 56004.161354167074,
      "d": 119.04750000000058,
      "v": 90
    },
    {
      "midi": 35,
      "hit": false,
      "t": 56004.161354167074,
      "d": 119.04750000000058,
      "v": 100
    },
    {
      "midi": 74,
      "hit": false,
      "t": 56004.161354167074,
      "d": 236.1108749999985,
      "v": 127
    },
    {
      "midi": 60,
      "hit": false,
      "t": 56004.161354167074,
      "d": 238.09500000000116,
      "v": 95
    },
    {
      "midi": 69,
      "hit": false,
      "t": 56242.256354167075,
      "d": 119.04750000000058,
      "v": 100
    },
    {
      "midi": 70,
      "hit": false,
      "t": 56242.256354167075,
      "d": 119.04750000000058,
      "v": 100
    },
    {
      "midi": 54,
      "hit": false,
      "t": 56242.256354167075,
      "d": 119.04750000000058,
      "v": 100
    },
    {
      "midi": 42,
      "hit": false,
      "t": 56242.256354167075,
      "d": 119.04750000000058,
      "v": 115
    },
    {
      "midi": 35,
      "hit": false,
      "t": 56242.256354167075,
      "d": 119.04750000000058,
      "v": 115
    },
    {
      "midi": 78,
      "hit": false,
      "t": 56242.256354167075,
      "d": 474.2058750000069,
      "v": 127
    },
    {
      "midi": 47,
      "hit": false,
      "t": 56242.256354167075,
      "d": 722.2215000000142,
      "v": 105
    },
    {
      "midi": 74,
      "hit": false,
      "t": 56242.256354167075,
      "d": 952.3800000000119,
      "v": 61
    },
    {
      "midi": 66,
      "hit": false,
      "t": 56242.256354167075,
      "d": 952.3800000000119,
      "v": 50
    },
    {
      "midi": 69,
      "hit": false,
      "t": 56480.351354167076,
      "d": 119.04750000000058,
      "v": 60
    },
    {
      "midi": 42,
      "hit": false,
      "t": 56480.351354167076,
      "d": 119.04750000000058,
      "v": 100
    },
    {
      "midi": 35,
      "hit": false,
      "t": 56480.351354167076,
      "d": 119.04750000000058,
      "v": 100
    },
    {
      "midi": 69,
      "hit": false,
      "t": 56718.446354167085,
      "d": 119.04750000000058,
      "v": 100
    },
    {
      "midi": 70,
      "hit": false,
      "t": 56718.446354167085,
      "d": 119.04750000000058,
      "v": 100
    },
    {
      "midi": 54,
      "hit": false,
      "t": 56718.446354167085,
      "d": 119.04750000000058,
      "v": 127
    },
    {
      "midi": 42,
      "hit": false,
      "t": 56718.446354167085,
      "d": 119.04750000000058,
      "v": 115
    },
    {
      "midi": 38,
      "hit": false,
      "t": 56718.446354167085,
      "d": 119.04750000000058,
      "v": 115
    },
    {
      "midi": 35,
      "hit": false,
      "t": 56718.446354167085,
      "d": 150.79349999999977,
      "v": 102
    },
    {
      "midi": 78,
      "hit": false,
      "t": 56718.446354167085,
      "d": 236.1108749999985,
      "v": 127
    },
    {
      "midi": 35,
      "hit": false,
      "t": 56956.541354167086,
      "d": 67.46025000000373,
      "v": 100
    },
    {
      "midi": 69,
      "hit": false,
      "t": 56956.541354167086,
      "d": 119.04750000000058,
      "v": 60
    },
    {
      "midi": 42,
      "hit": false,
      "t": 56956.541354167086,
      "d": 119.04750000000058,
      "v": 100
    },
    {
      "midi": 76,
      "hit": false,
      "t": 56956.541354167086,
      "d": 236.1108749999985,
      "v": 127
    },
    {
      "midi": 23,
      "hit": false,
      "t": 57075.58885416709,
      "d": 59.52375000000029,
      "v": 80
    },
    {
      "midi": 36,
      "hit": false,
      "t": 57194.63635416709,
      "d": 111.11099999999715,
      "v": 56
    },
    {
      "midi": 69,
      "hit": false,
      "t": 57194.63635416709,
      "d": 119.04750000000058,
      "v": 100
    },
    {
      "midi": 70,
      "hit": false,
      "t": 57194.63635416709,
      "d": 119.04750000000058,
      "v": 100
    },
    {
      "midi": 54,
      "hit": false,
      "t": 57194.63635416709,
      "d": 119.04750000000058,
      "v": 100
    },
    {
      "midi": 42,
      "hit": false,
      "t": 57194.63635416709,
      "d": 119.04750000000058,
      "v": 115
    },
    {
      "midi": 35,
      "hit": false,
      "t": 57194.63635416709,
      "d": 119.04750000000058,
      "v": 115
    },
    {
      "midi": 79,
      "hit": false,
      "t": 57194.63635416709,
      "d": 474.20587499999965,
      "v": 127
    },
    {
      "midi": 69,
      "hit": false,
      "t": 57432.73135416709,
      "d": 119.04750000000058,
      "v": 60
    },
    {
      "midi": 42,
      "hit": false,
      "t": 57432.73135416709,
      "d": 119.04750000000058,
      "v": 70
    },
    {
      "midi": 35,
      "hit": false,
      "t": 57432.73135416709,
      "d": 119.04750000000058,
      "v": 100
    },
    {
      "midi": 36,
      "hit": false,
      "t": 57432.73135416709,
      "d": 134.92050000000017,
      "v": 116
    },
    {
      "midi": 55,
      "hit": false,
      "t": 57432.73135416709,
      "d": 182.53949999999895,
      "v": 107
    },
    {
      "midi": 48,
      "hit": false,
      "t": 57432.73135416709,
      "d": 194.44425000000047,
      "v": 110
    },
    {
      "midi": 67,
      "hit": false,
      "t": 57432.73135416709,
      "d": 1484.1255000000165,
      "v": 59
    },
    {
      "midi": 36,
      "hit": false,
      "t": 57670.82635416709,
      "d": 79.36499999999796,
      "v": 107
    },
    {
      "midi": 69,
      "hit": false,
      "t": 57670.82635416709,
      "d": 119.04750000000058,
      "v": 100
    },
    {
      "midi": 70,
      "hit": false,
      "t": 57670.82635416709,
      "d": 119.04750000000058,
      "v": 100
    },
    {
      "midi": 54,
      "hit": false,
      "t": 57670.82635416709,
      "d": 119.04750000000058,
      "v": 127
    },
    {
      "midi": 42,
      "hit": false,
      "t": 57670.82635416709,
      "d": 119.04750000000058,
      "v": 100
    },
    {
      "midi": 38,
      "hit": false,
      "t": 57670.82635416709,
      "d": 119.04750000000058,
      "v": 115
    },
    {
      "midi": 79,
      "hit": false,
      "t": 57670.82635416709,
      "d": 236.11087500000576,
      "v": 127
    },
    {
      "midi": 72,
      "hit": false,
      "t": 57670.82635416709,
      "d": 1246.0305000000153,
      "v": 64
    },
    {
      "midi": 76,
      "hit": false,
      "t": 57789.87385416709,
      "d": 1126.9830000000147,
      "v": 29
    },
    {
      "midi": 69,
      "hit": false,
      "t": 57908.9213541671,
      "d": 119.04750000000058,
      "v": 60
    },
    {
      "midi": 42,
      "hit": false,
      "t": 57908.9213541671,
      "d": 119.04750000000058,
      "v": 90
    },
    {
      "midi": 35,
      "hit": false,
      "t": 57908.9213541671,
      "d": 119.04750000000058,
      "v": 100
    },
    {
      "midi": 36,
      "hit": false,
      "t": 57908.9213541671,
      "d": 142.8570000000036,
      "v": 66
    },
    {
      "midi": 78,
      "hit": false,
      "t": 57908.9213541671,
      "d": 236.11087500000576,
      "v": 127
    },
    {
      "midi": 69,
      "hit": false,
      "t": 58147.016354167106,
      "d": 119.04750000000058,
      "v": 100
    },
    {
      "midi": 70,
      "hit": false,
      "t": 58147.016354167106,
      "d": 119.04750000000058,
      "v": 100
    },
    {
      "midi": 54,
      "hit": false,
      "t": 58147.016354167106,
      "d": 119.04750000000058,
      "v": 100
    },
    {
      "midi": 42,
      "hit": false,
      "t": 58147.016354167106,
      "d": 119.04750000000058,
      "v": 115
    },
    {
      "midi": 35,
      "hit": false,
      "t": 58147.016354167106,
      "d": 119.04750000000058,
      "v": 115
    },
    {
      "midi": 36,
      "hit": false,
      "t": 58147.016354167106,
      "d": 130.9522500000021,
      "v": 107
    },
    {
      "midi": 81,
      "hit": false,
      "t": 58147.016354167106,
      "d": 355.15837499999907,
      "v": 127
    },
    {
      "midi": 55,
      "hit": false,
      "t": 58147.016354167106,
      "d": 801.5864999999976,
      "v": 110
    },
    {
      "midi": 48,
      "hit": false,
      "t": 58147.016354167106,
      "d": 821.4277499999953,
      "v": 110
    },
    {
      "midi": 69,
      "hit": false,
      "t": 58385.11135416711,
      "d": 119.04750000000058,
      "v": 60
    },
    {
      "midi": 42,
      "hit": false,
      "t": 58385.11135416711,
      "d": 119.04750000000058,
      "v": 90
    },
    {
      "midi": 35,
      "hit": false,
      "t": 58385.11135416711,
      "d": 119.04750000000058,
      "v": 90
    },
    {
      "midi": 36,
      "hit": false,
      "t": 58385.11135416711,
      "d": 123.01574999999866,
      "v": 105
    },
    {
      "midi": 24,
      "hit": false,
      "t": 58504.15885416711,
      "d": 99.20624999999563,
      "v": 72
    },
    {
      "midi": 79,
      "hit": false,
      "t": 58504.15885416711,
      "d": 355.1583749999918,
      "v": 127
    },
    {
      "midi": 36,
      "hit": false,
      "t": 58623.2063541671,
      "d": 111.11099999999715,
      "v": 127
    },
    {
      "midi": 69,
      "hit": false,
      "t": 58623.2063541671,
      "d": 119.04750000000058,
      "v": 100
    },
    {
      "midi": 70,
      "hit": false,
      "t": 58623.2063541671,
      "d": 119.04750000000058,
      "v": 100
    },
    {
      "midi": 54,
      "hit": false,
      "t": 58623.2063541671,
      "d": 119.04750000000058,
      "v": 127
    },
    {
      "midi": 42,
      "hit": false,
      "t": 58623.2063541671,
      "d": 119.04750000000058,
      "v": 115
    },
    {
      "midi": 38,
      "hit": false,
      "t": 58623.2063541671,
      "d": 119.04750000000058,
      "v": 115
    },
    {
      "midi": 24,
      "hit": false,
      "t": 58742.2538541671,
      "d": 95.23799999999756,
      "v": 76
    },
    {
      "midi": 36,
      "hit": false,
      "t": 58861.3013541671,
      "d": 103.17450000000099,
      "v": 110
    },
    {
      "midi": 69,
      "hit": false,
      "t": 58861.3013541671,
      "d": 119.04750000000058,
      "v": 60
    },
    {
      "midi": 42,
      "hit": false,
      "t": 58861.3013541671,
      "d": 119.04750000000058,
      "v": 90
    },
    {
      "midi": 35,
      "hit": false,
      "t": 58861.3013541671,
      "d": 119.04750000000058,
      "v": 100
    },
    {
      "midi": 78,
      "hit": false,
      "t": 58861.3013541671,
      "d": 236.11087500000576,
      "v": 127
    },
    {
      "midi": 36,
      "hit": false,
      "t": 58980.3488541671,
      "d": 31.745999999999185,
      "v": 102
    },
    {
      "midi": 46,
      "hit": false,
      "t": 58980.3488541671,
      "d": 119.04750000000786,
      "v": 100
    },
    {
      "midi": 35,
      "hit": false,
      "t": 59099.39635416711,
      "d": 119.04750000000058,
      "v": 115
    },
    {
      "midi": 69,
      "hit": false,
      "t": 59099.39635416711,
      "d": 119.04750000000058,
      "v": 100
    },
    {
      "midi": 70,
      "hit": false,
      "t": 59099.39635416711,
      "d": 119.04750000000058,
      "v": 100
    },
    {
      "midi": 54,
      "hit": false,
      "t": 59099.39635416711,
      "d": 119.04750000000058,
      "v": 100
    },
    {
      "midi": 42,
      "hit": false,
      "t": 59099.39635416711,
      "d": 119.04750000000058,
      "v": 115
    },
    {
      "midi": 75,
      "hit": false,
      "t": 59099.39635416711,
      "d": 2940.473250000032,
      "v": 46
    },
    {
      "midi": 66,
      "hit": false,
      "t": 59099.39635416711,
      "d": 2999.997000000025,
      "v": 29
    },
    {
      "midi": 35,
      "hit": false,
      "t": 59337.49135416711,
      "d": 23.809500000003027,
      "v": 100
    },
    {
      "midi": 53,
      "hit": false,
      "t": 59337.49135416711,
      "d": 23.809500000003027,
      "v": 53
    },
    {
      "midi": 69,
      "hit": false,
      "t": 59337.49135416711,
      "d": 119.04750000000058,
      "v": 60
    },
    {
      "midi": 42,
      "hit": false,
      "t": 59337.49135416711,
      "d": 119.04750000000058,
      "v": 90
    },
    {
      "midi": 54,
      "hit": false,
      "t": 59337.49135416711,
      "d": 146.8252500000017,
      "v": 113
    },
    {
      "midi": 47,
      "hit": false,
      "t": 59337.49135416711,
      "d": 154.76175000000512,
      "v": 107
    },
    {
      "midi": 69,
      "hit": false,
      "t": 59575.58635416712,
      "d": 119.04750000000058,
      "v": 100
    },
    {
      "midi": 70,
      "hit": false,
      "t": 59575.58635416712,
      "d": 119.04750000000058,
      "v": 100
    },
    {
      "midi": 54,
      "hit": false,
      "t": 59575.58635416712,
      "d": 119.04750000000058,
      "v": 127
    },
    {
      "midi": 42,
      "hit": false,
      "t": 59575.58635416712,
      "d": 119.04750000000058,
      "v": 115
    },
    {
      "midi": 38,
      "hit": false,
      "t": 59575.58635416712,
      "d": 119.04750000000058,
      "v": 115
    },
    {
      "midi": 35,
      "hit": false,
      "t": 59575.58635416712,
      "d": 126.98400000000402,
      "v": 107
    },
    {
      "midi": 76,
      "hit": false,
      "t": 59575.58635416712,
      "d": 236.11087500000576,
      "v": 127
    },
    {
      "midi": 78,
      "hit": false,
      "t": 59813.68135416713,
      "d": 117.0633749999979,
      "v": 127
    },
    {
      "midi": 69,
      "hit": false,
      "t": 59813.68135416713,
      "d": 119.04750000000058,
      "v": 60
    },
    {
      "midi": 46,
      "hit": false,
      "t": 59813.68135416713,
      "d": 119.04750000000058,
      "v": 100
    },
    {
      "midi": 35,
      "hit": false,
      "t": 59813.68135416713,
      "d": 119.04750000000058,
      "v": 90
    },
    {
      "midi": 23,
      "hit": false,
      "t": 59932.72885416713,
      "d": 63.49199999999837,
      "v": 72
    },
    {
      "midi": 71,
      "hit": false,
      "t": 59932.72885416713,
      "d": 593.2533750000002,
      "v": 127
    },
    {
      "midi": 35,
      "hit": false,
      "t": 60051.77635416713,
      "d": 107.14274999999907,
      "v": 115
    },
    {
      "midi": 69,
      "hit": false,
      "t": 60051.77635416713,
      "d": 119.04750000000058,
      "v": 100
    },
    {
      "midi": 70,
      "hit": false,
      "t": 60051.77635416713,
      "d": 119.04750000000058,
      "v": 100
    },
    {
      "midi": 54,
      "hit": false,
      "t": 60051.77635416713,
      "d": 119.04750000000058,
      "v": 100
    },
    {
      "midi": 42,
      "hit": false,
      "t": 60051.77635416713,
      "d": 119.04750000000058,
      "v": 115
    },
    {
      "midi": 47,
      "hit": false,
      "t": 60051.77635416713,
      "d": 488.09475000000384,
      "v": 116
    },
    {
      "midi": 35,
      "hit": false,
      "t": 60289.87135416713,
      "d": 111.11099999999715,
      "v": 90
    },
    {
      "midi": 69,
      "hit": false,
      "t": 60289.87135416713,
      "d": 119.04750000000058,
      "v": 60
    },
    {
      "midi": 42,
      "hit": false,
      "t": 60289.87135416713,
      "d": 119.04750000000058,
      "v": 100
    },
    {
      "midi": 54,
      "hit": false,
      "t": 60527.96635416713,
      "d": 3.968249999998079,
      "v": 127
    },
    {
      "midi": 69,
      "hit": false,
      "t": 60527.96635416713,
      "d": 119.04750000000058,
      "v": 100
    },
    {
      "midi": 70,
      "hit": false,
      "t": 60527.96635416713,
      "d": 119.04750000000058,
      "v": 100
    },
    {
      "midi": 42,
      "hit": false,
      "t": 60527.96635416713,
      "d": 119.04750000000058,
      "v": 115
    },
    {
      "midi": 38,
      "hit": false,
      "t": 60527.96635416713,
      "d": 119.04750000000058,
      "v": 115
    },
    {
      "midi": 35,
      "hit": false,
      "t": 60527.96635416713,
      "d": 154.76174999999785,
      "v": 87
    },
    {
      "midi": 71,
      "hit": false,
      "t": 60527.96635416713,
      "d": 236.1108749999985,
      "v": 127
    },
    {
      "midi": 35,
      "hit": false,
      "t": 60766.061354167134,
      "d": 119.04750000000058,
      "v": 100
    },
    {
      "midi": 69,
      "hit": false,
      "t": 60766.061354167134,
      "d": 119.04750000000058,
      "v": 60
    },
    {
      "midi": 42,
      "hit": false,
      "t": 60766.061354167134,
      "d": 119.04750000000058,
      "v": 100
    },
    {
      "midi": 74,
      "hit": false,
      "t": 60766.061354167134,
      "d": 236.1108749999985,
      "v": 127
    },
    {
      "midi": 47,
      "hit": false,
      "t": 60766.061354167134,
      "d": 238.09500000000116,
      "v": 107
    },
    {
      "midi": 54,
      "hit": false,
      "t": 60766.061354167134,
      "d": 238.09500000000116,
      "v": 105
    },
    {
      "midi": 35,
      "hit": false,
      "t": 61004.156354167135,
      "d": 111.11099999999715,
      "v": 115
    },
    {
      "midi": 69,
      "hit": false,
      "t": 61004.156354167135,
      "d": 119.04750000000058,
      "v": 100
    },
    {
      "midi": 70,
      "hit": false,
      "t": 61004.156354167135,
      "d": 119.04750000000058,
      "v": 100
    },
    {
      "midi": 54,
      "hit": false,
      "t": 61004.156354167135,
      "d": 119.04750000000058,
      "v": 100
    },
    {
      "midi": 42,
      "hit": false,
      "t": 61004.156354167135,
      "d": 119.04750000000058,
      "v": 127
    },
    {
      "midi": 76,
      "hit": false,
      "t": 61004.156354167135,
      "d": 474.20587499999965,
      "v": 127
    },
    {
      "midi": 35,
      "hit": false,
      "t": 61242.251354167136,
      "d": 111.11099999999715,
      "v": 100
    },
    {
      "midi": 69,
      "hit": false,
      "t": 61242.251354167136,
      "d": 119.04750000000058,
      "v": 60
    },
    {
      "midi": 42,
      "hit": false,
      "t": 61242.251354167136,
      "d": 119.04750000000058,
      "v": 115
    },
    {
      "midi": 47,
      "hit": false,
      "t": 61242.251354167136,
      "d": 246.0315000000046,
      "v": 110
    },
    {
      "midi": 54,
      "hit": false,
      "t": 61480.34635416714,
      "d": 11.904750000001513,
      "v": 127
    },
    {
      "midi": 69,
      "hit": false,
      "t": 61480.34635416714,
      "d": 119.04750000000058,
      "v": 100
    },
    {
      "midi": 70,
      "hit": false,
      "t": 61480.34635416714,
      "d": 119.04750000000058,
      "v": 100
    },
    {
      "midi": 42,
      "hit": false,
      "t": 61480.34635416714,
      "d": 119.04750000000058,
      "v": 100
    },
    {
      "midi": 38,
      "hit": false,
      "t": 61480.34635416714,
      "d": 119.04750000000058,
      "v": 115
    },
    {
      "midi": 76,
      "hit": false,
      "t": 61480.34635416714,
      "d": 236.1108749999985,
      "v": 127
    },
    {
      "midi": 35,
      "hit": false,
      "t": 61492.25110416714,
      "d": 67.46024999999645,
      "v": 57
    },
    {
      "midi": 78,
      "hit": false,
      "t": 61718.44135416714,
      "d": 117.0633749999979,
      "v": 127
    },
    {
      "midi": 69,
      "hit": false,
      "t": 61718.44135416714,
      "d": 119.04750000000058,
      "v": 60
    },
    {
      "midi": 42,
      "hit": false,
      "t": 61718.44135416714,
      "d": 119.04750000000058,
      "v": 100
    },
    {
      "midi": 35,
      "hit": false,
      "t": 61718.44135416714,
      "d": 119.04750000000058,
      "v": 100
    },
    {
      "midi": 71,
      "hit": false,
      "t": 61837.48885416714,
      "d": 218.2537500000035,
      "v": 127
    },
    {
      "midi": 69,
      "hit": false,
      "t": 61956.53635416714,
      "d": 119.04750000000058,
      "v": 100
    },
    {
      "midi": 70,
      "hit": false,
      "t": 61956.53635416714,
      "d": 119.04750000000058,
      "v": 100
    },
    {
      "midi": 54,
      "hit": false,
      "t": 61956.53635416714,
      "d": 119.04750000000058,
      "v": 100
    },
    {
      "midi": 42,
      "hit": false,
      "t": 61956.53635416714,
      "d": 119.04750000000058,
      "v": 115
    },
    {
      "midi": 35,
      "hit": false,
      "t": 61956.53635416714,
      "d": 119.04750000000058,
      "v": 115
    },
    {
      "midi": 47,
      "hit": false,
      "t": 62194.63135416713,
      "d": 59.52375000000029,
      "v": 52
    },
    {
      "midi": 69,
      "hit": false,
      "t": 62194.63135416713,
      "d": 119.04750000000058,
      "v": 60
    },
    {
      "midi": 42,
      "hit": false,
      "t": 62194.63135416713,
      "d": 119.04750000000058,
      "v": 100
    },
    {
      "midi": 35,
      "hit": false,
      "t": 62194.63135416713,
      "d": 119.04750000000058,
      "v": 100
    },
    {
      "midi": 47,
      "hit": false,
      "t": 62313.678854167134,
      "d": 119.04750000000058,
      "v": 61
    },
    {
      "midi": 35,
      "hit": false,
      "t": 62432.726354167135,
      "d": 79.36499999999796,
      "v": 107
    },
    {
      "midi": 69,
      "hit": false,
      "t": 62432.726354167135,
      "d": 119.04750000000058,
      "v": 100
    },
    {
      "midi": 70,
      "hit": false,
      "t": 62432.726354167135,
      "d": 119.04750000000058,
      "v": 100
    },
    {
      "midi": 54,
      "hit": false,
      "t": 62432.726354167135,
      "d": 119.04750000000058,
      "v": 127
    },
    {
      "midi": 41,
      "hit": false,
      "t": 62432.726354167135,
      "d": 119.04750000000058,
      "v": 100
    },
    {
      "midi": 38,
      "hit": false,
      "t": 62432.726354167135,
      "d": 119.04750000000058,
      "v": 115
    },
    {
      "midi": 47,
      "hit": false,
      "t": 62432.726354167135,
      "d": 214.28549999999814,
      "v": 105
    },
    {
      "midi": 66,
      "hit": false,
      "t": 62432.726354167135,
      "d": 317.4599999999991,
      "v": 61
    },
    {
      "midi": 75,
      "hit": false,
      "t": 62432.726354167135,
      "d": 317.4599999999991,
      "v": 63
    },
    {
      "midi": 78,
      "hit": false,
      "t": 62432.726354167135,
      "d": 317.4599999999991,
      "v": 65
    },
    {
      "midi": 71,
      "hit": false,
      "t": 62432.726354167135,
      "d": 325.39650000000256,
      "v": 67
    },
    {
      "midi": 69,
      "hit": false,
      "t": 62670.821354167136,
      "d": 119.04750000000058,
      "v": 60
    },
    {
      "midi": 49,
      "hit": false,
      "t": 62670.821354167136,
      "d": 119.04750000000058,
      "v": 115
    },
    {
      "midi": 38,
      "hit": false,
      "t": 62670.821354167136,
      "d": 119.04750000000058,
      "v": 127
    },
    {
      "midi": 35,
      "hit": false,
      "t": 62670.821354167136,
      "d": 119.04750000000058,
      "v": 115
    },
    {
      "midi": 54,
      "hit": false,
      "t": 62670.821354167136,
      "d": 182.53949999999895,
      "v": 102
    },
    {
      "midi": 47,
      "hit": false,
      "t": 62670.821354167136,
      "d": 190.4760000000024,
      "v": 74
    },
    {
      "midi": 60,
      "hit": false,
      "t": 62908.916354167144,
      "d": 31.745999999999185,
      "v": 105
    },
    {
      "midi": 36,
      "hit": false,
      "t": 62908.916354167144,
      "d": 83.33324999999604,
      "v": 105
    },
    {
      "midi": 69,
      "hit": false,
      "t": 62908.916354167144,
      "d": 119.0474999999933,
      "v": 100
    },
    {
      "midi": 70,
      "hit": false,
      "t": 62908.916354167144,
      "d": 119.0474999999933,
      "v": 100
    },
    {
      "midi": 54,
      "hit": false,
      "t": 62908.916354167144,
      "d": 119.0474999999933,
      "v": 100
    },
    {
      "midi": 42,
      "hit": false,
      "t": 62908.916354167144,
      "d": 119.0474999999933,
      "v": 115
    },
    {
      "midi": 35,
      "hit": false,
      "t": 62908.916354167144,
      "d": 119.0474999999933,
      "v": 115
    },
    {
      "midi": 48,
      "hit": false,
      "t": 62908.916354167144,
      "d": 158.72999999999593,
      "v": 107
    },
    {
      "midi": 55,
      "hit": false,
      "t": 62908.916354167144,
      "d": 325.3964999999953,
      "v": 102
    },
    {
      "midi": 76,
      "hit": false,
      "t": 62908.916354167144,
      "d": 474.2058749999924,
      "v": 55
    },
    {
      "midi": 79,
      "hit": false,
      "t": 62908.916354167144,
      "d": 857.1419999999998,
      "v": 48
    },
    {
      "midi": 67,
      "hit": false,
      "t": 62908.916354167144,
      "d": 880.9515000000029,
      "v": 61
    },
    {
      "midi": 69,
      "hit": false,
      "t": 63147.01135416714,
      "d": 119.04750000000058,
      "v": 60
    },
    {
      "midi": 42,
      "hit": false,
      "t": 63147.01135416714,
      "d": 119.04750000000058,
      "v": 100
    },
    {
      "midi": 35,
      "hit": false,
      "t": 63147.01135416714,
      "d": 119.04750000000058,
      "v": 100
    },
    {
      "midi": 36,
      "hit": false,
      "t": 63147.01135416714,
      "d": 194.44425000000047,
      "v": 116
    },
    {
      "midi": 48,
      "hit": false,
      "t": 63147.01135416714,
      "d": 706.3485000000073,
      "v": 107
    },
    {
      "midi": 69,
      "hit": false,
      "t": 63385.10635416714,
      "d": 119.04750000000058,
      "v": 100
    },
    {
      "midi": 70,
      "hit": false,
      "t": 63385.10635416714,
      "d": 119.04750000000058,
      "v": 100
    },
    {
      "midi": 54,
      "hit": false,
      "t": 63385.10635416714,
      "d": 119.04750000000058,
      "v": 127
    },
    {
      "midi": 42,
      "hit": false,
      "t": 63385.10635416714,
      "d": 119.04750000000058,
      "v": 115
    },
    {
      "midi": 38,
      "hit": false,
      "t": 63385.10635416714,
      "d": 119.04750000000058,
      "v": 115
    },
    {
      "midi": 36,
      "hit": false,
      "t": 63385.10635416714,
      "d": 123.01574999999866,
      "v": 110
    },
    {
      "midi": 55,
      "hit": false,
      "t": 63385.10635416714,
      "d": 210.31725000000006,
      "v": 100
    },
    {
      "midi": 76,
      "hit": false,
      "t": 63385.10635416714,
      "d": 236.1108749999985,
      "v": 127
    },
    {
      "midi": 55,
      "hit": false,
      "t": 63623.20135416714,
      "d": 39.68250000000262,
      "v": 76
    },
    {
      "midi": 34,
      "hit": false,
      "t": 63623.20135416714,
      "d": 99.20625000000291,
      "v": 110
    },
    {
      "midi": 69,
      "hit": false,
      "t": 63623.20135416714,
      "d": 119.04750000000058,
      "v": 60
    },
    {
      "midi": 42,
      "hit": false,
      "t": 63623.20135416714,
      "d": 119.04750000000058,
      "v": 100
    },
    {
      "midi": 35,
      "hit": false,
      "t": 63623.20135416714,
      "d": 119.04750000000058,
      "v": 100
    },
    {
      "midi": 74,
      "hit": false,
      "t": 63623.20135416714,
      "d": 236.11087500000576,
      "v": 127
    },
    {
      "midi": 60,
      "hit": false,
      "t": 63623.20135416714,
      "d": 238.09500000000844,
      "v": 95
    },
    {
      "midi": 59,
      "hit": false,
      "t": 63861.29635416715,
      "d": 31.745999999999185,
      "v": 105
    },
    {
      "midi": 35,
      "hit": false,
      "t": 63861.29635416715,
      "d": 83.33324999999604,
      "v": 115
    },
    {
      "midi": 69,
      "hit": false,
      "t": 63861.29635416715,
      "d": 119.0474999999933,
      "v": 100
    },
    {
      "midi": 70,
      "hit": false,
      "t": 63861.29635416715,
      "d": 119.0474999999933,
      "v": 100
    },
    {
      "midi": 54,
      "hit": false,
      "t": 63861.29635416715,
      "d": 119.0474999999933,
      "v": 100
    },
    {
      "midi": 42,
      "hit": false,
      "t": 63861.29635416715,
      "d": 119.0474999999933,
      "v": 115
    },
    {
      "midi": 47,
      "hit": false,
      "t": 63861.29635416715,
      "d": 158.72999999999593,
      "v": 107
    },
    {
      "midi": 78,
      "hit": false,
      "t": 63861.29635416715,
      "d": 474.2058749999924,
      "v": 60
    },
    {
      "midi": 75,
      "hit": false,
      "t": 63861.29635416715,
      "d": 952.3799999999974,
      "v": 60
    },
    {
      "midi": 71,
      "hit": false,
      "t": 63861.29635416715,
      "d": 952.3799999999974,
      "v": 45
    },
    {
      "midi": 66,
      "hit": false,
      "t": 63861.29635416715,
      "d": 952.3799999999974,
      "v": 56
    },
    {
      "midi": 69,
      "hit": false,
      "t": 64099.39135416714,
      "d": 119.04750000000058,
      "v": 60
    },
    {
      "midi": 42,
      "hit": false,
      "t": 64099.39135416714,
      "d": 119.04750000000058,
      "v": 100
    },
    {
      "midi": 35,
      "hit": false,
      "t": 64099.39135416714,
      "d": 119.04750000000058,
      "v": 100
    },
    {
      "midi": 47,
      "hit": false,
      "t": 64099.39135416714,
      "d": 706.3485000000001,
      "v": 107
    },
    {
      "midi": 69,
      "hit": false,
      "t": 64337.486354167144,
      "d": 119.04750000000058,
      "v": 100
    },
    {
      "midi": 70,
      "hit": false,
      "t": 64337.486354167144,
      "d": 119.04750000000058,
      "v": 100
    },
    {
      "midi": 54,
      "hit": false,
      "t": 64337.486354167144,
      "d": 119.04750000000058,
      "v": 127
    },
    {
      "midi": 42,
      "hit": false,
      "t": 64337.486354167144,
      "d": 119.04750000000058,
      "v": 115
    },
    {
      "midi": 38,
      "hit": false,
      "t": 64337.486354167144,
      "d": 119.04750000000058,
      "v": 115
    },
    {
      "midi": 35,
      "hit": false,
      "t": 64337.486354167144,
      "d": 123.01574999999866,
      "v": 110
    },
    {
      "midi": 78,
      "hit": false,
      "t": 64337.486354167144,
      "d": 236.1108749999985,
      "v": 127
    },
    {
      "midi": 54,
      "hit": false,
      "t": 64575.581354167145,
      "d": 39.68250000000262,
      "v": 76
    },
    {
      "midi": 35,
      "hit": false,
      "t": 64575.581354167145,
      "d": 99.20625000000291,
      "v": 100
    },
    {
      "midi": 69,
      "hit": false,
      "t": 64575.581354167145,
      "d": 119.04750000000058,
      "v": 60
    },
    {
      "midi": 42,
      "hit": false,
      "t": 64575.581354167145,
      "d": 119.04750000000058,
      "v": 80
    },
    {
      "midi": 76,
      "hit": false,
      "t": 64575.581354167145,
      "d": 236.1108749999985,
      "v": 127
    },
    {
      "midi": 59,
      "hit": false,
      "t": 64575.581354167145,
      "d": 238.09500000000116,
      "v": 95
    },
    {
      "midi": 36,
      "hit": false,
      "t": 64813.676354167146,
      "d": 83.33325000000332,
      "v": 105
    },
    {
      "midi": 69,
      "hit": false,
      "t": 64813.676354167146,
      "d": 119.04750000000058,
      "v": 100
    },
    {
      "midi": 70,
      "hit": false,
      "t": 64813.676354167146,
      "d": 119.04750000000058,
      "v": 100
    },
    {
      "midi": 54,
      "hit": false,
      "t": 64813.676354167146,
      "d": 119.04750000000058,
      "v": 100
    },
    {
      "midi": 42,
      "hit": false,
      "t": 64813.676354167146,
      "d": 119.04750000000058,
      "v": 115
    },
    {
      "midi": 35,
      "hit": false,
      "t": 64813.676354167146,
      "d": 119.04750000000058,
      "v": 115
    },
    {
      "midi": 48,
      "hit": false,
      "t": 64813.676354167146,
      "d": 246.0315000000046,
      "v": 110
    },
    {
      "midi": 55,
      "hit": false,
      "t": 64813.676354167146,
      "d": 257.9362500000061,
      "v": 113
    },
    {
      "midi": 79,
      "hit": false,
      "t": 64813.676354167146,
      "d": 474.2058750000069,
      "v": 127
    },
    {
      "midi": 76,
      "hit": false,
      "t": 64813.676354167146,
      "d": 952.3800000000119,
      "v": 61
    },
    {
      "midi": 67,
      "hit": false,
      "t": 64813.676354167146,
      "d": 952.3800000000119,
      "v": 50
    },
    {
      "midi": 69,
      "hit": false,
      "t": 65051.77135416715,
      "d": 119.04750000000786,
      "v": 60
    },
    {
      "midi": 42,
      "hit": false,
      "t": 65051.77135416715,
      "d": 119.04750000000786,
      "v": 70
    },
    {
      "midi": 35,
      "hit": false,
      "t": 65051.77135416715,
      "d": 119.04750000000786,
      "v": 100
    },
    {
      "midi": 36,
      "hit": false,
      "t": 65170.818854167155,
      "d": 75.39674999999988,
      "v": 26
    },
    {
      "midi": 36,
      "hit": false,
      "t": 65289.866354167156,
      "d": 59.52375000000029,
      "v": 110
    },
    {
      "midi": 69,
      "hit": false,
      "t": 65289.866354167156,
      "d": 119.04750000000058,
      "v": 100
    },
    {
      "midi": 70,
      "hit": false,
      "t": 65289.866354167156,
      "d": 119.04750000000058,
      "v": 100
    },
    {
      "midi": 54,
      "hit": false,
      "t": 65289.866354167156,
      "d": 119.04750000000058,
      "v": 127
    },
    {
      "midi": 42,
      "hit": false,
      "t": 65289.866354167156,
      "d": 119.04750000000058,
      "v": 100
    },
    {
      "midi": 38,
      "hit": false,
      "t": 65289.866354167156,
      "d": 119.04750000000058,
      "v": 115
    },
    {
      "midi": 55,
      "hit": false,
      "t": 65289.866354167156,
      "d": 210.31725000000006,
      "v": 100
    },
    {
      "midi": 48,
      "hit": false,
      "t": 65289.866354167156,
      "d": 234.12675000000309,
      "v": 105
    },
    {
      "midi": 79,
      "hit": false,
      "t": 65289.866354167156,
      "d": 236.11087500000576,
      "v": 127
    },
    {
      "midi": 32,
      "hit": false,
      "t": 65527.961354167164,
      "d": 99.20624999999563,
      "v": 110
    },
    {
      "midi": 69,
      "hit": false,
      "t": 65527.961354167164,
      "d": 119.0474999999933,
      "v": 60
    },
    {
      "midi": 42,
      "hit": false,
      "t": 65527.961354167164,
      "d": 119.0474999999933,
      "v": 90
    },
    {
      "midi": 35,
      "hit": false,
      "t": 65527.961354167164,
      "d": 119.0474999999933,
      "v": 100
    },
    {
      "midi": 78,
      "hit": false,
      "t": 65527.961354167164,
      "d": 236.1108749999912,
      "v": 127
    },
    {
      "midi": 69,
      "hit": false,
      "t": 65766.05635416716,
      "d": 119.04750000000058,
      "v": 100
    },
    {
      "midi": 70,
      "hit": false,
      "t": 65766.05635416716,
      "d": 119.04750000000058,
      "v": 100
    },
    {
      "midi": 54,
      "hit": false,
      "t": 65766.05635416716,
      "d": 119.04750000000058,
      "v": 100
    },
    {
      "midi": 42,
      "hit": false,
      "t": 65766.05635416716,
      "d": 119.04750000000058,
      "v": 115
    },
    {
      "midi": 35,
      "hit": false,
      "t": 65766.05635416716,
      "d": 119.04750000000058,
      "v": 115
    },
    {
      "midi": 37,
      "hit": false,
      "t": 65766.05635416716,
      "d": 150.79349999999977,
      "v": 105
    },
    {
      "midi": 81,
      "hit": false,
      "t": 65766.05635416716,
      "d": 355.15837499999907,
      "v": 127
    },
    {
      "midi": 73,
      "hit": false,
      "t": 65766.05635416716,
      "d": 857.1420000000071,
      "v": 55
    },
    {
      "midi": 76,
      "hit": false,
      "t": 65766.05635416716,
      "d": 857.1420000000071,
      "v": 59
    },
    {
      "midi": 67,
      "hit": false,
      "t": 65766.05635416716,
      "d": 880.9515000000101,
      "v": 61
    },
    {
      "midi": 69,
      "hit": false,
      "t": 66004.15135416716,
      "d": 119.04750000000058,
      "v": 60
    },
    {
      "midi": 42,
      "hit": false,
      "t": 66004.15135416716,
      "d": 119.04750000000058,
      "v": 90
    },
    {
      "midi": 35,
      "hit": false,
      "t": 66004.15135416716,
      "d": 119.04750000000058,
      "v": 90
    },
    {
      "midi": 37,
      "hit": false,
      "t": 66004.15135416716,
      "d": 190.4759999999951,
      "v": 107
    },
    {
      "midi": 57,
      "hit": false,
      "t": 66004.15135416716,
      "d": 202.38074999999662,
      "v": 100
    },
    {
      "midi": 52,
      "hit": false,
      "t": 66004.15135416716,
      "d": 206.34900000000198,
      "v": 91
    },
    {
      "midi": 49,
      "hit": false,
      "t": 66004.15135416716,
      "d": 210.31725000000733,
      "v": 95
    },
    {
      "midi": 79,
      "hit": false,
      "t": 66123.19885416716,
      "d": 355.15837499999907,
      "v": 127
    },
    {
      "midi": 69,
      "hit": false,
      "t": 66242.24635416716,
      "d": 119.04750000000058,
      "v": 100
    },
    {
      "midi": 70,
      "hit": false,
      "t": 66242.24635416716,
      "d": 119.04750000000058,
      "v": 100
    },
    {
      "midi": 54,
      "hit": false,
      "t": 66242.24635416716,
      "d": 119.04750000000058,
      "v": 127
    },
    {
      "midi": 42,
      "hit": false,
      "t": 66242.24635416716,
      "d": 119.04750000000058,
      "v": 115
    },
    {
      "midi": 38,
      "hit": false,
      "t": 66242.24635416716,
      "d": 119.04750000000058,
      "v": 115
    },
    {
      "midi": 37,
      "hit": false,
      "t": 66242.24635416716,
      "d": 150.79349999999977,
      "v": 102
    },
    {
      "midi": 55,
      "hit": false,
      "t": 66480.34135416716,
      "d": 23.809500000003027,
      "v": 68
    },
    {
      "midi": 37,
      "hit": false,
      "t": 66480.34135416716,
      "d": 67.46025000000373,
      "v": 116
    },
    {
      "midi": 69,
      "hit": false,
      "t": 66480.34135416716,
      "d": 119.04750000000058,
      "v": 60
    },
    {
      "midi": 42,
      "hit": false,
      "t": 66480.34135416716,
      "d": 119.04750000000058,
      "v": 90
    },
    {
      "midi": 35,
      "hit": false,
      "t": 66480.34135416716,
      "d": 119.04750000000058,
      "v": 100
    },
    {
      "midi": 57,
      "hit": false,
      "t": 66480.34135416716,
      "d": 174.6030000000028,
      "v": 105
    },
    {
      "midi": 52,
      "hit": false,
      "t": 66480.34135416716,
      "d": 194.44425000001502,
      "v": 110
    },
    {
      "midi": 49,
      "hit": false,
      "t": 66480.34135416716,
      "d": 198.41250000002037,
      "v": 110
    },
    {
      "midi": 78,
      "hit": false,
      "t": 66480.34135416716,
      "d": 236.1108750000276,
      "v": 127
    },
    {
      "midi": 25,
      "hit": false,
      "t": 66599.38885416716,
      "d": 59.52375000000757,
      "v": 80
    },
    {
      "midi": 46,
      "hit": false,
      "t": 66599.38885416716,
      "d": 119.04750000002969,
      "v": 100
    },
    {
      "midi": 69,
      "hit": false,
      "t": 66718.43635416719,
      "d": 119.04750000000058,
      "v": 100
    },
    {
      "midi": 70,
      "hit": false,
      "t": 66718.43635416719,
      "d": 119.04750000000058,
      "v": 100
    },
    {
      "midi": 54,
      "hit": false,
      "t": 66718.43635416719,
      "d": 119.04750000000058,
      "v": 100
    },
    {
      "midi": 42,
      "hit": false,
      "t": 66718.43635416719,
      "d": 119.04750000000058,
      "v": 115
    },
    {
      "midi": 35,
      "hit": false,
      "t": 66718.43635416719,
      "d": 119.04750000000058,
      "v": 115
    },
    {
      "midi": 38,
      "hit": false,
      "t": 66718.43635416719,
      "d": 174.6030000000028,
      "v": 70
    },
    {
      "midi": 69,
      "hit": false,
      "t": 66956.5313541672,
      "d": 119.04750000000058,
      "v": 60
    },
    {
      "midi": 42,
      "hit": false,
      "t": 66956.5313541672,
      "d": 119.04750000000058,
      "v": 100
    },
    {
      "midi": 35,
      "hit": false,
      "t": 66956.5313541672,
      "d": 119.04750000000058,
      "v": 100
    },
    {
      "midi": 38,
      "hit": false,
      "t": 66956.5313541672,
      "d": 130.9522500000021,
      "v": 89
    },
    {
      "midi": 57,
      "hit": false,
      "t": 66956.5313541672,
      "d": 154.76175000000512,
      "v": 91
    },
    {
      "midi": 50,
      "hit": false,
      "t": 66956.5313541672,
      "d": 166.66650000000664,
      "v": 93
    },
    {
      "midi": 69,
      "hit": false,
      "t": 67194.6263541672,
      "d": 119.04750000000058,
      "v": 100
    },
    {
      "midi": 70,
      "hit": false,
      "t": 67194.6263541672,
      "d": 119.04750000000058,
      "v": 100
    },
    {
      "midi": 54,
      "hit": false,
      "t": 67194.6263541672,
      "d": 119.04750000000058,
      "v": 127
    },
    {
      "midi": 42,
      "hit": false,
      "t": 67194.6263541672,
      "d": 119.04750000000058,
      "v": 115
    },
    {
      "midi": 38,
      "hit": false,
      "t": 67194.6263541672,
      "d": 119.04750000000058,
      "v": 115
    },
    {
      "midi": 74,
      "hit": false,
      "t": 67194.6263541672,
      "d": 1246.0305000000226,
      "v": 64
    },
    {
      "midi": 78,
      "hit": false,
      "t": 67313.6738541672,
      "d": 831.348375000016,
      "v": 29
    },
    {
      "midi": 69,
      "hit": false,
      "t": 67432.72135416721,
      "d": 119.04750000000058,
      "v": 60
    },
    {
      "midi": 42,
      "hit": false,
      "t": 67432.72135416721,
      "d": 119.04750000000058,
      "v": 100
    },
    {
      "midi": 35,
      "hit": false,
      "t": 67432.72135416721,
      "d": 119.04750000000058,
      "v": 100
    },
    {
      "midi": 38,
      "hit": false,
      "t": 67432.72135416721,
      "d": 174.6030000000028,
      "v": 89
    },
    {
      "midi": 81,
      "hit": false,
      "t": 67432.72135416721,
      "d": 1007.9355000000069,
      "v": 70
    },
    {
      "midi": 69,
      "hit": false,
      "t": 67670.81635416721,
      "d": 119.04750000000058,
      "v": 100
    },
    {
      "midi": 70,
      "hit": false,
      "t": 67670.81635416721,
      "d": 119.04750000000058,
      "v": 100
    },
    {
      "midi": 54,
      "hit": false,
      "t": 67670.81635416721,
      "d": 119.04750000000058,
      "v": 100
    },
    {
      "midi": 42,
      "hit": false,
      "t": 67670.81635416721,
      "d": 119.04750000000058,
      "v": 115
    },
    {
      "midi": 35,
      "hit": false,
      "t": 67670.81635416721,
      "d": 119.04750000000058,
      "v": 115
    },
    {
      "midi": 38,
      "hit": false,
      "t": 67670.81635416721,
      "d": 142.8570000000036,
      "v": 102
    },
    {
      "midi": 50,
      "hit": false,
      "t": 67670.81635416721,
      "d": 313.49175000000105,
      "v": 107
    },
    {
      "midi": 62,
      "hit": false,
      "t": 67670.81635416721,
      "d": 734.1262500000012,
      "v": 100
    },
    {
      "midi": 69,
      "hit": false,
      "t": 67908.91135416721,
      "d": 119.04750000000058,
      "v": 60
    },
    {
      "midi": 42,
      "hit": false,
      "t": 67908.91135416721,
      "d": 119.04750000000058,
      "v": 100
    },
    {
      "midi": 35,
      "hit": false,
      "t": 67908.91135416721,
      "d": 119.04750000000058,
      "v": 100
    },
    {
      "midi": 38,
      "hit": false,
      "t": 67908.91135416721,
      "d": 146.8252499999944,
      "v": 102
    },
    {
      "midi": 57,
      "hit": false,
      "t": 67908.91135416721,
      "d": 321.4282499999972,
      "v": 89
    },
    {
      "midi": 69,
      "hit": false,
      "t": 68147.00635416721,
      "d": 119.04750000000058,
      "v": 100
    },
    {
      "midi": 70,
      "hit": false,
      "t": 68147.00635416721,
      "d": 119.04750000000058,
      "v": 100
    },
    {
      "midi": 54,
      "hit": false,
      "t": 68147.00635416721,
      "d": 119.04750000000058,
      "v": 127
    },
    {
      "midi": 42,
      "hit": false,
      "t": 68147.00635416721,
      "d": 119.04750000000058,
      "v": 115
    },
    {
      "midi": 38,
      "hit": false,
      "t": 68147.00635416721,
      "d": 119.04750000000058,
      "v": 115
    },
    {
      "midi": 50,
      "hit": false,
      "t": 68147.00635416721,
      "d": 456.3487499999901,
      "v": 102
    },
    {
      "midi": 69,
      "hit": false,
      "t": 68385.10135416721,
      "d": 55.55550000000221,
      "v": 60
    },
    {
      "midi": 76,
      "hit": false,
      "t": 68385.10135416721,
      "d": 117.0633749999979,
      "v": 127
    },
    {
      "midi": 42,
      "hit": false,
      "t": 68385.10135416721,
      "d": 119.04750000000058,
      "v": 80
    },
    {
      "midi": 35,
      "hit": false,
      "t": 68385.10135416721,
      "d": 119.04750000000058,
      "v": 100
    },
    {
      "midi": 57,
      "hit": false,
      "t": 68385.10135416721,
      "d": 178.5712499999936,
      "v": 98
    },
    {
      "midi": 38,
      "hit": false,
      "t": 68385.10135416721,
      "d": 206.34899999998743,
      "v": 98
    },
    {
      "midi": 74,
      "hit": false,
      "t": 68504.14885416722,
      "d": 117.06337499998335,
      "v": 127
    },
    {
      "midi": 69,
      "hit": false,
      "t": 68623.1963541672,
      "d": 119.04750000000058,
      "v": 100
    },
    {
      "midi": 70,
      "hit": false,
      "t": 68623.1963541672,
      "d": 119.04750000000058,
      "v": 100
    },
    {
      "midi": 54,
      "hit": false,
      "t": 68623.1963541672,
      "d": 119.04750000000058,
      "v": 100
    },
    {
      "midi": 42,
      "hit": false,
      "t": 68623.1963541672,
      "d": 119.04750000000058,
      "v": 100
    },
    {
      "midi": 35,
      "hit": false,
      "t": 68623.1963541672,
      "d": 119.04750000000058,
      "v": 115
    },
    {
      "midi": 37,
      "hit": false,
      "t": 68623.1963541672,
      "d": 150.79349999999977,
      "v": 105
    },
    {
      "midi": 49,
      "hit": false,
      "t": 68623.1963541672,
      "d": 246.03149999999732,
      "v": 110
    },
    {
      "midi": 56,
      "hit": false,
      "t": 68623.1963541672,
      "d": 257.93624999999884,
      "v": 113
    },
    {
      "midi": 76,
      "hit": false,
      "t": 68623.1963541672,
      "d": 355.15837499999907,
      "v": 55
    },
    {
      "midi": 80,
      "hit": false,
      "t": 68623.1963541672,
      "d": 857.1419999999925,
      "v": 59
    },
    {
      "midi": 83,
      "hit": false,
      "t": 68623.1963541672,
      "d": 865.0784999999887,
      "v": 48
    },
    {
      "midi": 71,
      "hit": false,
      "t": 68623.1963541672,
      "d": 880.9514999999956,
      "v": 61
    },
    {
      "midi": 69,
      "hit": false,
      "t": 68861.2913541672,
      "d": 119.04750000000058,
      "v": 60
    },
    {
      "midi": 42,
      "hit": false,
      "t": 68861.2913541672,
      "d": 119.04750000000058,
      "v": 90
    },
    {
      "midi": 35,
      "hit": false,
      "t": 68861.2913541672,
      "d": 119.04750000000058,
      "v": 100
    },
    {
      "midi": 37,
      "hit": false,
      "t": 68980.3388541672,
      "d": 71.42849999999453,
      "v": 26
    },
    {
      "midi": 81,
      "hit": false,
      "t": 68980.3388541672,
      "d": 355.1583749999845,
      "v": 127
    },
    {
      "midi": 37,
      "hit": false,
      "t": 69099.3863541672,
      "d": 59.523749999993015,
      "v": 102
    },
    {
      "midi": 69,
      "hit": false,
      "t": 69099.3863541672,
      "d": 119.04749999998603,
      "v": 100
    },
    {
      "midi": 70,
      "hit": false,
      "t": 69099.3863541672,
      "d": 119.04749999998603,
      "v": 100
    },
    {
      "midi": 54,
      "hit": false,
      "t": 69099.3863541672,
      "d": 119.04749999998603,
      "v": 127
    },
    {
      "midi": 46,
      "hit": false,
      "t": 69099.3863541672,
      "d": 119.04749999998603,
      "v": 100
    },
    {
      "midi": 38,
      "hit": false,
      "t": 69099.3863541672,
      "d": 119.04749999998603,
      "v": 120
    },
    {
      "midi": 56,
      "hit": false,
      "t": 69099.3863541672,
      "d": 210.31724999997823,
      "v": 100
    },
    {
      "midi": 49,
      "hit": false,
      "t": 69099.3863541672,
      "d": 234.12674999998126,
      "v": 105
    },
    {
      "midi": 37,
      "hit": false,
      "t": 69337.48135416719,
      "d": 67.46025000000373,
      "v": 116
    },
    {
      "midi": 69,
      "hit": false,
      "t": 69337.48135416719,
      "d": 119.04750000000058,
      "v": 60
    },
    {
      "midi": 35,
      "hit": false,
      "t": 69337.48135416719,
      "d": 119.04750000000058,
      "v": 115
    },
    {
      "midi": 79,
      "hit": false,
      "t": 69337.48135416719,
      "d": 236.11087500001304,
      "v": 127
    },
    {
      "midi": 25,
      "hit": false,
      "t": 69456.52885416719,
      "d": 59.52375000000757,
      "v": 80
    },
    {
      "midi": 69,
      "hit": false,
      "t": 69575.5763541672,
      "d": 119.04750000000058,
      "v": 100
    },
    {
      "midi": 70,
      "hit": false,
      "t": 69575.5763541672,
      "d": 119.04750000000058,
      "v": 100
    },
    {
      "midi": 54,
      "hit": false,
      "t": 69575.5763541672,
      "d": 119.04750000000058,
      "v": 100
    },
    {
      "midi": 38,
      "hit": false,
      "t": 69575.5763541672,
      "d": 119.04750000000058,
      "v": 127
    },
    {
      "midi": 42,
      "hit": false,
      "t": 69575.5763541672,
      "d": 150.79349999999977,
      "v": 110
    },
    {
      "midi": 49,
      "hit": false,
      "t": 69575.5763541672,
      "d": 257.93624999999884,
      "v": 113
    },
    {
      "midi": 78,
      "hit": false,
      "t": 69575.5763541672,
      "d": 857.1419999999925,
      "v": 55
    },
    {
      "midi": 82,
      "hit": false,
      "t": 69575.5763541672,
      "d": 857.1419999999925,
      "v": 48
    },
    {
      "midi": 30,
      "hit": false,
      "t": 69694.6238541672,
      "d": 111.11100000000442,
      "v": 82
    },
    {
      "midi": 42,
      "hit": false,
      "t": 69813.6713541672,
      "d": 7.936499999996158,
      "v": 89
    },
    {
      "midi": 69,
      "hit": false,
      "t": 69813.6713541672,
      "d": 119.04750000000058,
      "v": 60
    },
    {
      "midi": 35,
      "hit": false,
      "t": 69813.6713541672,
      "d": 119.04750000000058,
      "v": 115
    },
    {
      "midi": 42,
      "hit": false,
      "t": 69932.71885416721,
      "d": 7.936499999996158,
      "v": 26
    },
    {
      "midi": 42,
      "hit": false,
      "t": 70051.76635416721,
      "d": 59.523749999993015,
      "v": 107
    },
    {
      "midi": 69,
      "hit": false,
      "t": 70051.76635416721,
      "d": 119.04749999998603,
      "v": 100
    },
    {
      "midi": 70,
      "hit": false,
      "t": 70051.76635416721,
      "d": 119.04749999998603,
      "v": 100
    },
    {
      "midi": 54,
      "hit": false,
      "t": 70051.76635416721,
      "d": 119.04749999998603,
      "v": 127
    },
    {
      "midi": 38,
      "hit": false,
      "t": 70051.76635416721,
      "d": 119.04749999998603,
      "v": 127
    },
    {
      "midi": 49,
      "hit": false,
      "t": 70051.76635416721,
      "d": 210.31724999999278,
      "v": 100
    },
    {
      "midi": 69,
      "hit": false,
      "t": 70289.8613541672,
      "d": 119.04750000000058,
      "v": 60
    },
    {
      "midi": 35,
      "hit": false,
      "t": 70289.8613541672,
      "d": 119.04750000000058,
      "v": 115
    },
    {
      "midi": 42,
      "hit": false,
      "t": 70289.8613541672,
      "d": 170.634750000012,
      "v": 113
    },
    {
      "midi": 53,
      "hit": false,
      "t": 70527.95635416721,
      "d": 27.77774999999383,
      "v": 76
    },
    {
      "midi": 42,
      "hit": false,
      "t": 70527.95635416721,
      "d": 83.33324999999604,
      "v": 100
    },
    {
      "midi": 69,
      "hit": false,
      "t": 70527.95635416721,
      "d": 119.04750000000058,
      "v": 100
    },
    {
      "midi": 70,
      "hit": false,
      "t": 70527.95635416721,
      "d": 119.04750000000058,
      "v": 100
    },
    {
      "midi": 54,
      "hit": false,
      "t": 70527.95635416721,
      "d": 119.04750000000058,
      "v": 100
    },
    {
      "midi": 35,
      "hit": false,
      "t": 70527.95635416721,
      "d": 119.04750000000058,
      "v": 115
    },
    {
      "midi": 49,
      "hit": false,
      "t": 70527.95635416721,
      "d": 198.41249999999127,
      "v": 98
    },
    {
      "midi": 42,
      "hit": false,
      "t": 70766.0513541672,
      "d": 3.968250000005355,
      "v": 90
    },
    {
      "midi": 69,
      "hit": false,
      "t": 70766.0513541672,
      "d": 119.04750000000058,
      "v": 60
    },
    {
      "midi": 35,
      "hit": false,
      "t": 70766.0513541672,
      "d": 119.04750000000058,
      "v": 100
    },
    {
      "midi": 73,
      "hit": false,
      "t": 70766.0513541672,
      "d": 198.41250000000582,
      "v": 58
    },
    {
      "midi": 78,
      "hit": false,
      "t": 70766.0513541672,
      "d": 202.38075000001118,
      "v": 79
    },
    {
      "midi": 42,
      "hit": false,
      "t": 71004.14635416721,
      "d": 43.6507500000007,
      "v": 105
    },
    {
      "midi": 69,
      "hit": false,
      "t": 71004.14635416721,
      "d": 119.04750000000058,
      "v": 100
    },
    {
      "midi": 70,
      "hit": false,
      "t": 71004.14635416721,
      "d": 119.04750000000058,
      "v": 100
    },
    {
      "midi": 54,
      "hit": false,
      "t": 71004.14635416721,
      "d": 119.04750000000058,
      "v": 127
    },
    {
      "midi": 46,
      "hit": false,
      "t": 71004.14635416721,
      "d": 119.04750000000058,
      "v": 100
    },
    {
      "midi": 38,
      "hit": false,
      "t": 71004.14635416721,
      "d": 119.04750000000058,
      "v": 120
    },
    {
      "midi": 49,
      "hit": false,
      "t": 71004.14635416721,
      "d": 246.03150000001187,
      "v": 102
    },
    {
      "midi": 42,
      "hit": false,
      "t": 71242.24135416721,
      "d": 99.20625000001746,
      "v": 110
    },
    {
      "midi": 69,
      "hit": false,
      "t": 71242.24135416721,
      "d": 119.04750000001513,
      "v": 60
    },
    {
      "midi": 35,
      "hit": false,
      "t": 71242.24135416721,
      "d": 119.04750000001513,
      "v": 115
    },
    {
      "midi": 61,
      "hit": false,
      "t": 71242.24135416721,
      "d": 178.57125000000815,
      "v": 30
    },
    {
      "midi": 69,
      "hit": false,
      "t": 71480.33635416722,
      "d": 119.04750000001513,
      "v": 100
    },
    {
      "midi": 70,
      "hit": false,
      "t": 71480.33635416722,
      "d": 119.04750000001513,
      "v": 100
    },
    {
      "midi": 54,
      "hit": false,
      "t": 71480.33635416722,
      "d": 119.04750000001513,
      "v": 100
    },
    {
      "midi": 38,
      "hit": false,
      "t": 71480.33635416722,
      "d": 119.04750000001513,
      "v": 127
    },
    {
      "midi": 79,
      "hit": false,
      "t": 71480.33635416722,
      "d": 476.19000000003143,
      "v": 61
    },
    {
      "midi": 71,
      "hit": false,
      "t": 71480.33635416722,
      "d": 476.19000000003143,
      "v": 50
    },
    {
      "midi": 43,
      "hit": false,
      "t": 71496.20935416722,
      "d": 154.76175000000512,
      "v": 98
    },
    {
      "midi": 55,
      "hit": false,
      "t": 71500.17760416723,
      "d": 369.0472500000178,
      "v": 91
    },
    {
      "midi": 50,
      "hit": false,
      "t": 71504.14585416723,
      "d": 357.14250000000175,
      "v": 100
    },
    {
      "midi": 69,
      "hit": false,
      "t": 71718.43135416723,
      "d": 119.04750000000058,
      "v": 60
    },
    {
      "midi": 35,
      "hit": false,
      "t": 71718.43135416723,
      "d": 119.04750000000058,
      "v": 115
    },
    {
      "midi": 43,
      "hit": false,
      "t": 71718.43135416723,
      "d": 146.82525000000896,
      "v": 85
    },
    {
      "midi": 69,
      "hit": false,
      "t": 71956.52635416725,
      "d": 119.04750000001513,
      "v": 100
    },
    {
      "midi": 70,
      "hit": false,
      "t": 71956.52635416725,
      "d": 119.04750000001513,
      "v": 100
    },
    {
      "midi": 54,
      "hit": false,
      "t": 71956.52635416725,
      "d": 119.04750000001513,
      "v": 127
    },
    {
      "midi": 38,
      "hit": false,
      "t": 71956.52635416725,
      "d": 119.04750000001513,
      "v": 127
    },
    {
      "midi": 33,
      "hit": false,
      "t": 71956.52635416725,
      "d": 170.634750000012,
      "v": 102
    },
    {
      "midi": 73,
      "hit": false,
      "t": 71956.52635416725,
      "d": 476.19000000003143,
      "v": 61
    },
    {
      "midi": 64,
      "hit": false,
      "t": 71956.52635416725,
      "d": 476.19000000003143,
      "v": 50
    },
    {
      "midi": 45,
      "hit": false,
      "t": 71972.39935416725,
      "d": 369.0472500000178,
      "v": 98
    },
    {
      "midi": 57,
      "hit": false,
      "t": 71976.36760416726,
      "d": 369.0472500000178,
      "v": 91
    },
    {
      "midi": 52,
      "hit": false,
      "t": 71980.33585416726,
      "d": 357.14250000000175,
      "v": 100
    },
    {
      "midi": 69,
      "hit": false,
      "t": 72194.62135416726,
      "d": 119.04750000000058,
      "v": 60
    },
    {
      "midi": 35,
      "hit": false,
      "t": 72194.62135416726,
      "d": 119.04750000000058,
      "v": 115
    },
    {
      "midi": 33,
      "hit": false,
      "t": 72194.62135416726,
      "d": 158.73000000001048,
      "v": 85
    },
    {
      "midi": 59,
      "hit": false,
      "t": 72432.71635416728,
      "d": 31.745999999999185,
      "v": 105
    },
    {
      "midi": 69,
      "hit": false,
      "t": 72432.71635416728,
      "d": 119.04750000000058,
      "v": 100
    },
    {
      "midi": 70,
      "hit": false,
      "t": 72432.71635416728,
      "d": 119.04750000000058,
      "v": 100
    },
    {
      "midi": 54,
      "hit": false,
      "t": 72432.71635416728,
      "d": 119.04750000000058,
      "v": 100
    },
    {
      "midi": 49,
      "hit": false,
      "t": 72432.71635416728,
      "d": 119.04750000000058,
      "v": 100
    },
    {
      "midi": 42,
      "hit": false,
      "t": 72432.71635416728,
      "d": 119.04750000000058,
      "v": 115
    },
    {
      "midi": 35,
      "hit": false,
      "t": 72432.71635416728,
      "d": 119.04750000000058,
      "v": 115
    },
    {
      "midi": 47,
      "hit": false,
      "t": 72432.71635416728,
      "d": 158.72999999999593,
      "v": 107
    },
    {
      "midi": 23,
      "hit": false,
      "t": 72551.76385416728,
      "d": 111.11099999998987,
      "v": 82
    },
    {
      "midi": 74,
      "hit": false,
      "t": 72670.81135416726,
      "d": 117.0633749999979,
      "v": 29
    },
    {
      "midi": 69,
      "hit": false,
      "t": 72670.81135416726,
      "d": 119.04750000000058,
      "v": 60
    },
    {
      "midi": 42,
      "hit": false,
      "t": 72670.81135416726,
      "d": 119.04750000000058,
      "v": 100
    },
    {
      "midi": 35,
      "hit": false,
      "t": 72670.81135416726,
      "d": 119.04750000000058,
      "v": 100
    },
    {
      "midi": 71,
      "hit": false,
      "t": 72670.81135416726,
      "d": 198.41249999999127,
      "v": 8
    },
    {
      "midi": 47,
      "hit": false,
      "t": 72670.81135416726,
      "d": 706.3485000000073,
      "v": 107
    },
    {
      "midi": 73,
      "hit": false,
      "t": 72789.85885416727,
      "d": 355.1583750000136,
      "v": 127
    },
    {
      "midi": 69,
      "hit": false,
      "t": 72908.90635416727,
      "d": 119.04750000000058,
      "v": 100
    },
    {
      "midi": 70,
      "hit": false,
      "t": 72908.90635416727,
      "d": 119.04750000000058,
      "v": 100
    },
    {
      "midi": 54,
      "hit": false,
      "t": 72908.90635416727,
      "d": 119.04750000000058,
      "v": 127
    },
    {
      "midi": 42,
      "hit": false,
      "t": 72908.90635416727,
      "d": 119.04750000000058,
      "v": 115
    },
    {
      "midi": 38,
      "hit": false,
      "t": 72908.90635416727,
      "d": 119.04750000000058,
      "v": 115
    },
    {
      "midi": 35,
      "hit": false,
      "t": 72908.90635416727,
      "d": 154.76175000000512,
      "v": 107
    },
    {
      "midi": 54,
      "hit": false,
      "t": 73147.00135416728,
      "d": 39.68249999999534,
      "v": 76
    },
    {
      "midi": 69,
      "hit": false,
      "t": 73147.00135416728,
      "d": 119.04750000000058,
      "v": 60
    },
    {
      "midi": 42,
      "hit": false,
      "t": 73147.00135416728,
      "d": 119.04750000000058,
      "v": 100
    },
    {
      "midi": 35,
      "hit": false,
      "t": 73147.00135416728,
      "d": 119.04750000000058,
      "v": 100
    },
    {
      "midi": 74,
      "hit": false,
      "t": 73147.00135416728,
      "d": 236.11087499998393,
      "v": 127
    },
    {
      "midi": 59,
      "hit": false,
      "t": 73147.00135416728,
      "d": 238.0949999999866,
      "v": 95
    },
    {
      "midi": 69,
      "hit": false,
      "t": 73385.09635416727,
      "d": 119.04750000000058,
      "v": 100
    },
    {
      "midi": 70,
      "hit": false,
      "t": 73385.09635416727,
      "d": 119.04750000000058,
      "v": 100
    },
    {
      "midi": 54,
      "hit": false,
      "t": 73385.09635416727,
      "d": 119.04750000000058,
      "v": 100
    },
    {
      "midi": 42,
      "hit": false,
      "t": 73385.09635416727,
      "d": 119.04750000000058,
      "v": 115
    },
    {
      "midi": 35,
      "hit": false,
      "t": 73385.09635416727,
      "d": 119.04750000000058,
      "v": 115
    },
    {
      "midi": 43,
      "hit": false,
      "t": 73385.09635416727,
      "d": 150.79349999999977,
      "v": 110
    },
    {
      "midi": 76,
      "hit": false,
      "t": 73385.09635416727,
      "d": 236.1108749999985,
      "v": 127
    },
    {
      "midi": 50,
      "hit": false,
      "t": 73385.09635416727,
      "d": 257.93624999999884,
      "v": 113
    },
    {
      "midi": 79,
      "hit": false,
      "t": 73385.09635416727,
      "d": 857.1419999999925,
      "v": 55
    },
    {
      "midi": 83,
      "hit": false,
      "t": 73385.09635416727,
      "d": 857.1419999999925,
      "v": 48
    },
    {
      "midi": 71,
      "hit": false,
      "t": 73385.09635416727,
      "d": 880.9514999999956,
      "v": 61
    },
    {
      "midi": 43,
      "hit": false,
      "t": 73623.19135416727,
      "d": 7.936499999996158,
      "v": 107
    },
    {
      "midi": 69,
      "hit": false,
      "t": 73623.19135416727,
      "d": 119.04750000000058,
      "v": 60
    },
    {
      "midi": 42,
      "hit": false,
      "t": 73623.19135416727,
      "d": 119.04750000000058,
      "v": 100
    },
    {
      "midi": 35,
      "hit": false,
      "t": 73623.19135416727,
      "d": 119.04750000000058,
      "v": 90
    },
    {
      "midi": 74,
      "hit": false,
      "t": 73623.19135416727,
      "d": 236.1108749999985,
      "v": 127
    },
    {
      "midi": 43,
      "hit": false,
      "t": 73742.23885416727,
      "d": 71.42849999999453,
      "v": 26
    },
    {
      "midi": 43,
      "hit": false,
      "t": 73861.28635416727,
      "d": 59.523749999993015,
      "v": 102
    },
    {
      "midi": 69,
      "hit": false,
      "t": 73861.28635416727,
      "d": 119.04749999998603,
      "v": 100
    },
    {
      "midi": 70,
      "hit": false,
      "t": 73861.28635416727,
      "d": 119.04749999998603,
      "v": 100
    },
    {
      "midi": 54,
      "hit": false,
      "t": 73861.28635416727,
      "d": 119.04749999998603,
      "v": 127
    },
    {
      "midi": 42,
      "hit": false,
      "t": 73861.28635416727,
      "d": 119.04749999998603,
      "v": 115
    },
    {
      "midi": 38,
      "hit": false,
      "t": 73861.28635416727,
      "d": 119.04749999998603,
      "v": 115
    },
    {
      "midi": 50,
      "hit": false,
      "t": 73861.28635416727,
      "d": 210.31724999997823,
      "v": 100
    },
    {
      "midi": 73,
      "hit": false,
      "t": 73861.28635416727,
      "d": 236.11087499998393,
      "v": 127
    },
    {
      "midi": 43,
      "hit": false,
      "t": 74099.38135416726,
      "d": 67.46025000000373,
      "v": 116
    },
    {
      "midi": 69,
      "hit": false,
      "t": 74099.38135416726,
      "d": 119.04750000000058,
      "v": 60
    },
    {
      "midi": 42,
      "hit": false,
      "t": 74099.38135416726,
      "d": 119.04750000000058,
      "v": 100
    },
    {
      "midi": 35,
      "hit": false,
      "t": 74099.38135416726,
      "d": 119.04750000000058,
      "v": 100
    },
    {
      "midi": 74,
      "hit": false,
      "t": 74099.38135416726,
      "d": 236.11087500001304,
      "v": 127
    },
    {
      "midi": 31,
      "hit": false,
      "t": 74218.42885416726,
      "d": 59.52375000000757,
      "v": 80
    },
    {
      "midi": 69,
      "hit": false,
      "t": 74337.47635416727,
      "d": 119.04750000000058,
      "v": 100
    },
    {
      "midi": 70,
      "hit": false,
      "t": 74337.47635416727,
      "d": 119.04750000000058,
      "v": 100
    },
    {
      "midi": 54,
      "hit": false,
      "t": 74337.47635416727,
      "d": 119.04750000000058,
      "v": 100
    },
    {
      "midi": 42,
      "hit": false,
      "t": 74337.47635416727,
      "d": 119.04750000000058,
      "v": 115
    },
    {
      "midi": 35,
      "hit": false,
      "t": 74337.47635416727,
      "d": 119.04750000000058,
      "v": 115
    },
    {
      "midi": 33,
      "hit": false,
      "t": 74337.47635416727,
      "d": 150.79349999999977,
      "v": 107
    },
    {
      "midi": 45,
      "hit": false,
      "t": 74337.47635416727,
      "d": 246.03149999999732,
      "v": 110
    },
    {
      "midi": 52,
      "hit": false,
      "t": 74337.47635416727,
      "d": 257.93624999999884,
      "v": 113
    },
    {
      "midi": 76,
      "hit": false,
      "t": 74337.47635416727,
      "d": 355.15837499999907,
      "v": 127
    },
    {
      "midi": 21,
      "hit": false,
      "t": 74456.52385416727,
      "d": 111.11100000000442,
      "v": 82
    },
    {
      "midi": 69,
      "hit": false,
      "t": 74575.57135416727,
      "d": 119.04750000000058,
      "v": 60
    },
    {
      "midi": 42,
      "hit": false,
      "t": 74575.57135416727,
      "d": 119.04750000000058,
      "v": 90
    },
    {
      "midi": 35,
      "hit": false,
      "t": 74575.57135416727,
      "d": 119.04750000000058,
      "v": 100
    },
    {
      "midi": 33,
      "hit": false,
      "t": 74575.57135416727,
      "d": 126.98399999999674,
      "v": 89
    },
    {
      "midi": 73,
      "hit": false,
      "t": 74575.57135416727,
      "d": 202.38074999999662,
      "v": 29
    },
    {
      "midi": 45,
      "hit": false,
      "t": 74694.61885416727,
      "d": 178.5712499999936,
      "v": 26
    },
    {
      "midi": 78,
      "hit": false,
      "t": 74694.61885416727,
      "d": 355.15837499999907,
      "v": 127
    },
    {
      "midi": 69,
      "hit": false,
      "t": 74813.66635416728,
      "d": 119.04749999998603,
      "v": 100
    },
    {
      "midi": 70,
      "hit": false,
      "t": 74813.66635416728,
      "d": 119.04749999998603,
      "v": 100
    },
    {
      "midi": 54,
      "hit": false,
      "t": 74813.66635416728,
      "d": 119.04749999998603,
      "v": 127
    },
    {
      "midi": 42,
      "hit": false,
      "t": 74813.66635416728,
      "d": 119.04749999998603,
      "v": 115
    },
    {
      "midi": 38,
      "hit": false,
      "t": 74813.66635416728,
      "d": 119.04749999998603,
      "v": 115
    },
    {
      "midi": 33,
      "hit": false,
      "t": 74813.66635416728,
      "d": 154.76174999999057,
      "v": 107
    },
    {
      "midi": 52,
      "hit": false,
      "t": 74813.66635416728,
      "d": 210.31724999999278,
      "v": 100
    },
    {
      "midi": 69,
      "hit": false,
      "t": 75051.76135416728,
      "d": 119.04750000000058,
      "v": 60
    },
    {
      "midi": 42,
      "hit": false,
      "t": 75051.76135416728,
      "d": 119.04750000000058,
      "v": 90
    },
    {
      "midi": 35,
      "hit": false,
      "t": 75051.76135416728,
      "d": 119.04750000000058,
      "v": 100
    },
    {
      "midi": 33,
      "hit": false,
      "t": 75051.76135416728,
      "d": 170.63474999999744,
      "v": 113
    },
    {
      "midi": 79,
      "hit": false,
      "t": 75051.76135416728,
      "d": 236.1108749999985,
      "v": 127
    },
    {
      "midi": 69,
      "hit": false,
      "t": 75289.85635416728,
      "d": 119.04750000000058,
      "v": 100
    },
    {
      "midi": 70,
      "hit": false,
      "t": 75289.85635416728,
      "d": 119.04750000000058,
      "v": 100
    },
    {
      "midi": 54,
      "hit": false,
      "t": 75289.85635416728,
      "d": 119.04750000000058,
      "v": 100
    },
    {
      "midi": 42,
      "hit": false,
      "t": 75289.85635416728,
      "d": 119.04750000000058,
      "v": 115
    },
    {
      "midi": 35,
      "hit": false,
      "t": 75289.85635416728,
      "d": 119.04750000000058,
      "v": 115
    },
    {
      "midi": 38,
      "hit": false,
      "t": 75289.85635416728,
      "d": 150.79349999999977,
      "v": 107
    },
    {
      "midi": 79,
      "hit": false,
      "t": 75289.85635416728,
      "d": 236.1108749999985,
      "v": 127
    },
    {
      "midi": 50,
      "hit": false,
      "t": 75289.85635416728,
      "d": 722.2214999999997,
      "v": 105
    },
    {
      "midi": 57,
      "hit": false,
      "t": 75289.85635416728,
      "d": 726.189750000005,
      "v": 102
    },
    {
      "midi": 26,
      "hit": false,
      "t": 75408.90385416728,
      "d": 111.11100000000442,
      "v": 82
    },
    {
      "midi": 69,
      "hit": false,
      "t": 75527.95135416728,
      "d": 119.04750000000058,
      "v": 60
    },
    {
      "midi": 42,
      "hit": false,
      "t": 75527.95135416728,
      "d": 119.04750000000058,
      "v": 100
    },
    {
      "midi": 35,
      "hit": false,
      "t": 75527.95135416728,
      "d": 119.04750000000058,
      "v": 100
    },
    {
      "midi": 38,
      "hit": false,
      "t": 75527.95135416728,
      "d": 126.98399999999674,
      "v": 89
    },
    {
      "midi": 78,
      "hit": false,
      "t": 75527.95135416728,
      "d": 236.1108749999985,
      "v": 127
    },
    {
      "midi": 69,
      "hit": false,
      "t": 75766.04635416728,
      "d": 119.04750000000058,
      "v": 100
    },
    {
      "midi": 70,
      "hit": false,
      "t": 75766.04635416728,
      "d": 119.04750000000058,
      "v": 100
    },
    {
      "midi": 54,
      "hit": false,
      "t": 75766.04635416728,
      "d": 119.04750000000058,
      "v": 127
    },
    {
      "midi": 42,
      "hit": false,
      "t": 75766.04635416728,
      "d": 119.04750000000058,
      "v": 115
    },
    {
      "midi": 38,
      "hit": false,
      "t": 75766.04635416728,
      "d": 119.04750000000058,
      "v": 115
    },
    {
      "midi": 69,
      "hit": false,
      "t": 76004.14135416728,
      "d": 119.04750000000058,
      "v": 60
    },
    {
      "midi": 42,
      "hit": false,
      "t": 76004.14135416728,
      "d": 119.04750000000058,
      "v": 100
    },
    {
      "midi": 35,
      "hit": false,
      "t": 76004.14135416728,
      "d": 119.04750000000058,
      "v": 100
    },
    {
      "midi": 38,
      "hit": false,
      "t": 76004.14135416728,
      "d": 170.63474999999744,
      "v": 82
    },
    {
      "midi": 40,
      "hit": false,
      "t": 76242.23635416728,
      "d": 83.33324999999604,
      "v": 105
    },
    {
      "midi": 69,
      "hit": false,
      "t": 76242.23635416728,
      "d": 119.04750000000058,
      "v": 100
    },
    {
      "midi": 70,
      "hit": false,
      "t": 76242.23635416728,
      "d": 119.04750000000058,
      "v": 100
    },
    {
      "midi": 54,
      "hit": false,
      "t": 76242.23635416728,
      "d": 119.04750000000058,
      "v": 100
    },
    {
      "midi": 42,
      "hit": false,
      "t": 76242.23635416728,
      "d": 119.04750000000058,
      "v": 115
    },
    {
      "midi": 35,
      "hit": false,
      "t": 76242.23635416728,
      "d": 119.04750000000058,
      "v": 115
    },
    {
      "midi": 52,
      "hit": false,
      "t": 76242.23635416728,
      "d": 246.03149999999732,
      "v": 110
    },
    {
      "midi": 59,
      "hit": false,
      "t": 76242.23635416728,
      "d": 257.93624999999884,
      "v": 113
    },
    {
      "midi": 71,
      "hit": false,
      "t": 76242.23635416728,
      "d": 355.15837499999907,
      "v": 45
    },
    {
      "midi": 74,
      "hit": false,
      "t": 76242.23635416728,
      "d": 952.3800000000047,
      "v": 60
    },
    {
      "midi": 67,
      "hit": false,
      "t": 76242.23635416728,
      "d": 952.3800000000047,
      "v": 56
    },
    {
      "midi": 69,
      "hit": false,
      "t": 76480.33135416728,
      "d": 119.04750000000058,
      "v": 60
    },
    {
      "midi": 42,
      "hit": false,
      "t": 76480.33135416728,
      "d": 119.04750000000058,
      "v": 100
    },
    {
      "midi": 35,
      "hit": false,
      "t": 76480.33135416728,
      "d": 119.04750000000058,
      "v": 100
    },
    {
      "midi": 40,
      "hit": false,
      "t": 76599.37885416728,
      "d": 75.39674999999988,
      "v": 26
    },
    {
      "midi": 78,
      "hit": false,
      "t": 76599.37885416728,
      "d": 355.15837499999907,
      "v": 127
    },
    {
      "midi": 40,
      "hit": false,
      "t": 76718.42635416728,
      "d": 59.523749999993015,
      "v": 110
    },
    {
      "midi": 69,
      "hit": false,
      "t": 76718.42635416728,
      "d": 119.04749999998603,
      "v": 100
    },
    {
      "midi": 70,
      "hit": false,
      "t": 76718.42635416728,
      "d": 119.04749999998603,
      "v": 100
    },
    {
      "midi": 54,
      "hit": false,
      "t": 76718.42635416728,
      "d": 119.04749999998603,
      "v": 127
    },
    {
      "midi": 42,
      "hit": false,
      "t": 76718.42635416728,
      "d": 119.04749999998603,
      "v": 115
    },
    {
      "midi": 38,
      "hit": false,
      "t": 76718.42635416728,
      "d": 119.04749999998603,
      "v": 115
    },
    {
      "midi": 59,
      "hit": false,
      "t": 76718.42635416728,
      "d": 210.31724999999278,
      "v": 100
    },
    {
      "midi": 52,
      "hit": false,
      "t": 76718.42635416728,
      "d": 234.1267499999958,
      "v": 105
    },
    {
      "midi": 32,
      "hit": false,
      "t": 76956.52135416729,
      "d": 99.20625000000291,
      "v": 110
    },
    {
      "midi": 69,
      "hit": false,
      "t": 76956.52135416729,
      "d": 119.04750000000058,
      "v": 60
    },
    {
      "midi": 42,
      "hit": false,
      "t": 76956.52135416729,
      "d": 119.04750000000058,
      "v": 100
    },
    {
      "midi": 35,
      "hit": false,
      "t": 76956.52135416729,
      "d": 119.04750000000058,
      "v": 100
    },
    {
      "midi": 76,
      "hit": false,
      "t": 76956.52135416729,
      "d": 236.1108749999985,
      "v": 127
    },
    {
      "midi": 69,
      "hit": false,
      "t": 77194.61635416729,
      "d": 119.04750000000058,
      "v": 100
    },
    {
      "midi": 70,
      "hit": false,
      "t": 77194.61635416729,
      "d": 119.04750000000058,
      "v": 100
    },
    {
      "midi": 54,
      "hit": false,
      "t": 77194.61635416729,
      "d": 119.04750000000058,
      "v": 100
    },
    {
      "midi": 42,
      "hit": false,
      "t": 77194.61635416729,
      "d": 119.04750000000058,
      "v": 115
    },
    {
      "midi": 35,
      "hit": false,
      "t": 77194.61635416729,
      "d": 119.04750000000058,
      "v": 115
    },
    {
      "midi": 33,
      "hit": false,
      "t": 77194.61635416729,
      "d": 150.79349999999977,
      "v": 105
    },
    {
      "midi": 81,
      "hit": false,
      "t": 77194.61635416729,
      "d": 355.15837499999907,
      "v": 127
    },
    {
      "midi": 69,
      "hit": false,
      "t": 77432.71135416729,
      "d": 119.04750000000058,
      "v": 60
    },
    {
      "midi": 42,
      "hit": false,
      "t": 77432.71135416729,
      "d": 119.04750000000058,
      "v": 100
    },
    {
      "midi": 35,
      "hit": false,
      "t": 77432.71135416729,
      "d": 119.04750000000058,
      "v": 100
    },
    {
      "midi": 33,
      "hit": false,
      "t": 77432.71135416729,
      "d": 190.4759999999951,
      "v": 107
    },
    {
      "midi": 67,
      "hit": false,
      "t": 77432.71135416729,
      "d": 198.41249999999127,
      "v": 8
    },
    {
      "midi": 73,
      "hit": false,
      "t": 77432.71135416729,
      "d": 202.38074999999662,
      "v": 29
    },
    {
      "midi": 57,
      "hit": false,
      "t": 77432.71135416729,
      "d": 202.38074999999662,
      "v": 100
    },
    {
      "midi": 52,
      "hit": false,
      "t": 77432.71135416729,
      "d": 206.34900000000198,
      "v": 91
    },
    {
      "midi": 45,
      "hit": false,
      "t": 77432.71135416729,
      "d": 210.31725000000733,
      "v": 95
    },
    {
      "midi": 79,
      "hit": false,
      "t": 77551.75885416729,
      "d": 355.15837499999907,
      "v": 127
    },
    {
      "midi": 69,
      "hit": false,
      "t": 77670.80635416729,
      "d": 119.04750000000058,
      "v": 100
    },
    {
      "midi": 70,
      "hit": false,
      "t": 77670.80635416729,
      "d": 119.04750000000058,
      "v": 100
    },
    {
      "midi": 54,
      "hit": false,
      "t": 77670.80635416729,
      "d": 119.04750000000058,
      "v": 127
    },
    {
      "midi": 42,
      "hit": false,
      "t": 77670.80635416729,
      "d": 119.04750000000058,
      "v": 115
    },
    {
      "midi": 38,
      "hit": false,
      "t": 77670.80635416729,
      "d": 119.04750000000058,
      "v": 115
    },
    {
      "midi": 33,
      "hit": false,
      "t": 77670.80635416729,
      "d": 150.79349999999977,
      "v": 102
    },
    {
      "midi": 55,
      "hit": false,
      "t": 77908.90135416729,
      "d": 23.809500000003027,
      "v": 68
    },
    {
      "midi": 33,
      "hit": false,
      "t": 77908.90135416729,
      "d": 67.46025000000373,
      "v": 116
    },
    {
      "midi": 69,
      "hit": false,
      "t": 77908.90135416729,
      "d": 119.04750000000058,
      "v": 60
    },
    {
      "midi": 42,
      "hit": false,
      "t": 77908.90135416729,
      "d": 119.04750000000058,
      "v": 80
    },
    {
      "midi": 35,
      "hit": false,
      "t": 77908.90135416729,
      "d": 119.04750000000058,
      "v": 100
    },
    {
      "midi": 57,
      "hit": false,
      "t": 77908.90135416729,
      "d": 174.6030000000028,
      "v": 105
    },
    {
      "midi": 52,
      "hit": false,
      "t": 77908.90135416729,
      "d": 194.44425000001502,
      "v": 110
    },
    {
      "midi": 45,
      "hit": false,
      "t": 77908.90135416729,
      "d": 198.41250000002037,
      "v": 110
    },
    {
      "midi": 78,
      "hit": false,
      "t": 77908.90135416729,
      "d": 236.1108750000276,
      "v": 127
    },
    {
      "midi": 21,
      "hit": false,
      "t": 78027.94885416729,
      "d": 59.52375000000757,
      "v": 80
    },
    {
      "midi": 62,
      "hit": false,
      "t": 78146.99635416732,
      "d": 31.745999999999185,
      "v": 105
    },
    {
      "midi": 69,
      "hit": false,
      "t": 78146.99635416732,
      "d": 119.04750000000058,
      "v": 100
    },
    {
      "midi": 70,
      "hit": false,
      "t": 78146.99635416732,
      "d": 119.04750000000058,
      "v": 100
    },
    {
      "midi": 54,
      "hit": false,
      "t": 78146.99635416732,
      "d": 119.04750000000058,
      "v": 100
    },
    {
      "midi": 42,
      "hit": false,
      "t": 78146.99635416732,
      "d": 119.04750000000058,
      "v": 115
    },
    {
      "midi": 35,
      "hit": false,
      "t": 78146.99635416732,
      "d": 119.04750000000058,
      "v": 115
    },
    {
      "midi": 38,
      "hit": false,
      "t": 78146.99635416732,
      "d": 150.79349999999977,
      "v": 107
    },
    {
      "midi": 50,
      "hit": false,
      "t": 78146.99635416732,
      "d": 158.72999999999593,
      "v": 107
    },
    {
      "midi": 57,
      "hit": false,
      "t": 78146.99635416732,
      "d": 325.396499999988,
      "v": 102
    },
    {
      "midi": 76,
      "hit": false,
      "t": 78146.99635416732,
      "d": 355.1583749999845,
      "v": 127
    },
    {
      "midi": 81,
      "hit": false,
      "t": 78146.99635416732,
      "d": 857.1420000000071,
      "v": 48
    },
    {
      "midi": 26,
      "hit": false,
      "t": 78266.04385416732,
      "d": 111.11099999998987,
      "v": 82
    },
    {
      "midi": 69,
      "hit": false,
      "t": 78385.0913541673,
      "d": 119.04750000000058,
      "v": 60
    },
    {
      "midi": 42,
      "hit": false,
      "t": 78385.0913541673,
      "d": 119.04750000000058,
      "v": 90
    },
    {
      "midi": 35,
      "hit": false,
      "t": 78385.0913541673,
      "d": 119.04750000000058,
      "v": 100
    },
    {
      "midi": 38,
      "hit": false,
      "t": 78385.0913541673,
      "d": 126.98399999999674,
      "v": 89
    },
    {
      "midi": 50,
      "hit": false,
      "t": 78385.0913541673,
      "d": 706.3485000000219,
      "v": 107
    },
    {
      "midi": 78,
      "hit": false,
      "t": 78504.13885416731,
      "d": 355.1583750000136,
      "v": 127
    },
    {
      "midi": 69,
      "hit": false,
      "t": 78623.18635416731,
      "d": 119.04750000000058,
      "v": 100
    },
    {
      "midi": 70,
      "hit": false,
      "t": 78623.18635416731,
      "d": 119.04750000000058,
      "v": 100
    },
    {
      "midi": 54,
      "hit": false,
      "t": 78623.18635416731,
      "d": 119.04750000000058,
      "v": 127
    },
    {
      "midi": 42,
      "hit": false,
      "t": 78623.18635416731,
      "d": 119.04750000000058,
      "v": 115
    },
    {
      "midi": 38,
      "hit": false,
      "t": 78623.18635416731,
      "d": 119.04750000000058,
      "v": 115
    },
    {
      "midi": 57,
      "hit": false,
      "t": 78623.18635416731,
      "d": 210.31725000000733,
      "v": 100
    },
    {
      "midi": 57,
      "hit": false,
      "t": 78861.28135416732,
      "d": 39.68249999999534,
      "v": 76
    },
    {
      "midi": 69,
      "hit": false,
      "t": 78861.28135416732,
      "d": 119.04750000000058,
      "v": 60
    },
    {
      "midi": 46,
      "hit": false,
      "t": 78861.28135416732,
      "d": 119.04750000000058,
      "v": 100
    },
    {
      "midi": 35,
      "hit": false,
      "t": 78861.28135416732,
      "d": 119.04750000000058,
      "v": 90
    },
    {
      "midi": 38,
      "hit": false,
      "t": 78861.28135416732,
      "d": 170.634750000012,
      "v": 113
    },
    {
      "midi": 79,
      "hit": false,
      "t": 78861.28135416732,
      "d": 236.1108749999985,
      "v": 127
    },
    {
      "midi": 62,
      "hit": false,
      "t": 78861.28135416732,
      "d": 238.09500000000116,
      "v": 95
    },
    {
      "midi": 42,
      "hit": false,
      "t": 79099.37635416733,
      "d": 83.33324999999604,
      "v": 115
    },
    {
      "midi": 69,
      "hit": false,
      "t": 79099.37635416733,
      "d": 119.04750000000058,
      "v": 100
    },
    {
      "midi": 70,
      "hit": false,
      "t": 79099.37635416733,
      "d": 119.04750000000058,
      "v": 100
    },
    {
      "midi": 54,
      "hit": false,
      "t": 79099.37635416733,
      "d": 119.04750000000058,
      "v": 100
    },
    {
      "midi": 35,
      "hit": false,
      "t": 79099.37635416733,
      "d": 119.04750000000058,
      "v": 115
    },
    {
      "midi": 49,
      "hit": false,
      "t": 79099.37635416733,
      "d": 726.189750000005,
      "v": 102
    },
    {
      "midi": 76,
      "hit": false,
      "t": 79099.37635416733,
      "d": 857.1420000000071,
      "v": 55
    },
    {
      "midi": 78,
      "hit": false,
      "t": 79099.37635416733,
      "d": 857.1420000000071,
      "v": 59
    },
    {
      "midi": 82,
      "hit": false,
      "t": 79099.37635416733,
      "d": 865.0785000000033,
      "v": 48
    },
    {
      "midi": 69,
      "hit": false,
      "t": 79337.47135416733,
      "d": 119.04750000000058,
      "v": 60
    },
    {
      "midi": 42,
      "hit": false,
      "t": 79337.47135416733,
      "d": 119.04750000000058,
      "v": 100
    },
    {
      "midi": 35,
      "hit": false,
      "t": 79337.47135416733,
      "d": 119.04750000000058,
      "v": 90
    },
    {
      "midi": 69,
      "hit": false,
      "t": 79575.56635416733,
      "d": 119.04750000000058,
      "v": 100
    },
    {
      "midi": 70,
      "hit": false,
      "t": 79575.56635416733,
      "d": 119.04750000000058,
      "v": 100
    },
    {
      "midi": 54,
      "hit": false,
      "t": 79575.56635416733,
      "d": 119.04750000000058,
      "v": 127
    },
    {
      "midi": 42,
      "hit": false,
      "t": 79575.56635416733,
      "d": 119.04750000000058,
      "v": 115
    },
    {
      "midi": 38,
      "hit": false,
      "t": 79575.56635416733,
      "d": 119.04750000000058,
      "v": 115
    },
    {
      "midi": 42,
      "hit": false,
      "t": 79813.66135416733,
      "d": 7.936499999996158,
      "v": 100
    },
    {
      "midi": 34,
      "hit": false,
      "t": 79813.66135416733,
      "d": 99.20625000000291,
      "v": 110
    },
    {
      "midi": 69,
      "hit": false,
      "t": 79813.66135416733,
      "d": 119.04750000000058,
      "v": 60
    },
    {
      "midi": 35,
      "hit": false,
      "t": 79813.66135416733,
      "d": 119.04750000000058,
      "v": 100
    },
    {
      "midi": 59,
      "hit": false,
      "t": 80051.75635416734,
      "d": 31.745999999999185,
      "v": 105
    },
    {
      "midi": 69,
      "hit": false,
      "t": 80051.75635416734,
      "d": 119.04750000000058,
      "v": 100
    },
    {
      "midi": 70,
      "hit": false,
      "t": 80051.75635416734,
      "d": 119.04750000000058,
      "v": 100
    },
    {
      "midi": 54,
      "hit": false,
      "t": 80051.75635416734,
      "d": 119.04750000000058,
      "v": 100
    },
    {
      "midi": 42,
      "hit": false,
      "t": 80051.75635416734,
      "d": 119.04750000000058,
      "v": 115
    },
    {
      "midi": 35,
      "hit": false,
      "t": 80051.75635416734,
      "d": 119.04750000000058,
      "v": 115
    },
    {
      "midi": 47,
      "hit": false,
      "t": 80051.75635416734,
      "d": 158.72999999999593,
      "v": 107
    },
    {
      "midi": 74,
      "hit": false,
      "t": 80051.75635416734,
      "d": 355.15837499999907,
      "v": 60
    },
    {
      "midi": 78,
      "hit": false,
      "t": 80051.75635416734,
      "d": 952.3799999999756,
      "v": 60
    },
    {
      "midi": 71,
      "hit": false,
      "t": 80051.75635416734,
      "d": 952.3799999999756,
      "v": 45
    },
    {
      "midi": 66,
      "hit": false,
      "t": 80051.75635416734,
      "d": 952.3799999999756,
      "v": 56
    },
    {
      "midi": 69,
      "hit": false,
      "t": 80289.85135416735,
      "d": 119.04750000000058,
      "v": 60
    },
    {
      "midi": 42,
      "hit": false,
      "t": 80289.85135416735,
      "d": 119.04750000000058,
      "v": 100
    },
    {
      "midi": 35,
      "hit": false,
      "t": 80289.85135416735,
      "d": 119.04750000000058,
      "v": 100
    },
    {
      "midi": 47,
      "hit": false,
      "t": 80289.85135416735,
      "d": 706.3484999999782,
      "v": 107
    },
    {
      "midi": 73,
      "hit": false,
      "t": 80408.89885416735,
      "d": 355.15837499999907,
      "v": 127
    },
    {
      "midi": 69,
      "hit": false,
      "t": 80527.94635416735,
      "d": 119.04750000000058,
      "v": 100
    },
    {
      "midi": 70,
      "hit": false,
      "t": 80527.94635416735,
      "d": 119.04750000000058,
      "v": 100
    },
    {
      "midi": 54,
      "hit": false,
      "t": 80527.94635416735,
      "d": 119.04750000000058,
      "v": 127
    },
    {
      "midi": 42,
      "hit": false,
      "t": 80527.94635416735,
      "d": 119.04750000000058,
      "v": 115
    },
    {
      "midi": 38,
      "hit": false,
      "t": 80527.94635416735,
      "d": 119.04750000000058,
      "v": 115
    },
    {
      "midi": 35,
      "hit": false,
      "t": 80527.94635416735,
      "d": 150.79349999999977,
      "v": 102
    },
    {
      "midi": 54,
      "hit": false,
      "t": 80766.04135416735,
      "d": 39.68249999999534,
      "v": 76
    },
    {
      "midi": 35,
      "hit": false,
      "t": 80766.04135416735,
      "d": 67.46024999998917,
      "v": 100
    },
    {
      "midi": 69,
      "hit": false,
      "t": 80766.04135416735,
      "d": 119.04749999998603,
      "v": 60
    },
    {
      "midi": 42,
      "hit": false,
      "t": 80766.04135416735,
      "d": 119.04749999998603,
      "v": 100
    },
    {
      "midi": 74,
      "hit": false,
      "t": 80766.04135416735,
      "d": 236.11087499996938,
      "v": 127
    },
    {
      "midi": 59,
      "hit": false,
      "t": 80766.04135416735,
      "d": 238.09499999997206,
      "v": 95
    },
    {
      "midi": 23,
      "hit": false,
      "t": 80885.08885416733,
      "d": 59.523749999993015,
      "v": 80
    },
    {
      "midi": 43,
      "hit": false,
      "t": 81004.13635416732,
      "d": 83.33324999999604,
      "v": 105
    },
    {
      "midi": 69,
      "hit": false,
      "t": 81004.13635416732,
      "d": 119.04750000000058,
      "v": 100
    },
    {
      "midi": 70,
      "hit": false,
      "t": 81004.13635416732,
      "d": 119.04750000000058,
      "v": 100
    },
    {
      "midi": 54,
      "hit": false,
      "t": 81004.13635416732,
      "d": 119.04750000000058,
      "v": 100
    },
    {
      "midi": 42,
      "hit": false,
      "t": 81004.13635416732,
      "d": 119.04750000000058,
      "v": 115
    },
    {
      "midi": 35,
      "hit": false,
      "t": 81004.13635416732,
      "d": 119.04750000000058,
      "v": 115
    },
    {
      "midi": 76,
      "hit": false,
      "t": 81004.13635416732,
      "d": 236.1108749999985,
      "v": 127
    },
    {
      "midi": 50,
      "hit": false,
      "t": 81004.13635416732,
      "d": 726.1897500000196,
      "v": 102
    },
    {
      "midi": 79,
      "hit": false,
      "t": 81004.13635416732,
      "d": 857.1420000000217,
      "v": 55
    },
    {
      "midi": 83,
      "hit": false,
      "t": 81004.13635416732,
      "d": 857.1420000000217,
      "v": 48
    },
    {
      "midi": 71,
      "hit": false,
      "t": 81004.13635416732,
      "d": 880.9515000000247,
      "v": 61
    },
    {
      "midi": 69,
      "hit": false,
      "t": 81242.23135416732,
      "d": 119.04750000000058,
      "v": 60
    },
    {
      "midi": 42,
      "hit": false,
      "t": 81242.23135416732,
      "d": 119.04750000000058,
      "v": 100
    },
    {
      "midi": 35,
      "hit": false,
      "t": 81242.23135416732,
      "d": 119.04750000000058,
      "v": 100
    },
    {
      "midi": 43,
      "hit": false,
      "t": 81242.23135416732,
      "d": 194.44425000000047,
      "v": 116
    },
    {
      "midi": 74,
      "hit": false,
      "t": 81242.23135416732,
      "d": 236.1108749999985,
      "v": 127
    },
    {
      "midi": 69,
      "hit": false,
      "t": 81480.32635416732,
      "d": 119.04750000000058,
      "v": 100
    },
    {
      "midi": 70,
      "hit": false,
      "t": 81480.32635416732,
      "d": 119.04750000000058,
      "v": 100
    },
    {
      "midi": 54,
      "hit": false,
      "t": 81480.32635416732,
      "d": 119.04750000000058,
      "v": 127
    },
    {
      "midi": 42,
      "hit": false,
      "t": 81480.32635416732,
      "d": 119.04750000000058,
      "v": 115
    },
    {
      "midi": 38,
      "hit": false,
      "t": 81480.32635416732,
      "d": 119.04750000000058,
      "v": 115
    },
    {
      "midi": 43,
      "hit": false,
      "t": 81480.32635416732,
      "d": 123.01575000000594,
      "v": 110
    },
    {
      "midi": 73,
      "hit": false,
      "t": 81480.32635416732,
      "d": 236.11087500001304,
      "v": 127
    },
    {
      "midi": 32,
      "hit": false,
      "t": 81718.42135416734,
      "d": 99.20625000000291,
      "v": 110
    },
    {
      "midi": 69,
      "hit": false,
      "t": 81718.42135416734,
      "d": 119.04750000000058,
      "v": 60
    },
    {
      "midi": 42,
      "hit": false,
      "t": 81718.42135416734,
      "d": 119.04750000000058,
      "v": 80
    },
    {
      "midi": 35,
      "hit": false,
      "t": 81718.42135416734,
      "d": 119.04750000000058,
      "v": 100
    },
    {
      "midi": 74,
      "hit": false,
      "t": 81718.42135416734,
      "d": 236.11087500001304,
      "v": 127
    },
    {
      "midi": 69,
      "hit": false,
      "t": 81956.51635416735,
      "d": 119.04750000000058,
      "v": 100
    },
    {
      "midi": 70,
      "hit": false,
      "t": 81956.51635416735,
      "d": 119.04750000000058,
      "v": 100
    },
    {
      "midi": 54,
      "hit": false,
      "t": 81956.51635416735,
      "d": 119.04750000000058,
      "v": 100
    },
    {
      "midi": 42,
      "hit": false,
      "t": 81956.51635416735,
      "d": 119.04750000000058,
      "v": 115
    },
    {
      "midi": 35,
      "hit": false,
      "t": 81956.51635416735,
      "d": 119.04750000000058,
      "v": 115
    },
    {
      "midi": 33,
      "hit": false,
      "t": 81956.51635416735,
      "d": 150.79349999999977,
      "v": 107
    },
    {
      "midi": 76,
      "hit": false,
      "t": 81956.51635416735,
      "d": 355.15837499999907,
      "v": 48
    },
    {
      "midi": 73,
      "hit": false,
      "t": 81956.51635416735,
      "d": 857.1420000000071,
      "v": 55
    },
    {
      "midi": 64,
      "hit": false,
      "t": 81956.51635416735,
      "d": 880.9515000000101,
      "v": 61
    },
    {
      "midi": 21,
      "hit": false,
      "t": 82075.56385416735,
      "d": 111.11100000000442,
      "v": 82
    },
    {
      "midi": 69,
      "hit": false,
      "t": 82194.61135416735,
      "d": 119.04750000000058,
      "v": 60
    },
    {
      "midi": 42,
      "hit": false,
      "t": 82194.61135416735,
      "d": 119.04750000000058,
      "v": 100
    },
    {
      "midi": 35,
      "hit": false,
      "t": 82194.61135416735,
      "d": 119.04750000000058,
      "v": 100
    },
    {
      "midi": 33,
      "hit": false,
      "t": 82194.61135416735,
      "d": 126.98399999999674,
      "v": 89
    },
    {
      "midi": 57,
      "hit": false,
      "t": 82194.61135416735,
      "d": 202.38074999999662,
      "v": 100
    },
    {
      "midi": 52,
      "hit": false,
      "t": 82194.61135416735,
      "d": 206.34900000000198,
      "v": 91
    },
    {
      "midi": 45,
      "hit": false,
      "t": 82194.61135416735,
      "d": 210.31725000000733,
      "v": 95
    },
    {
      "midi": 81,
      "hit": false,
      "t": 82313.65885416736,
      "d": 355.15837499999907,
      "v": 127
    },
    {
      "midi": 69,
      "hit": false,
      "t": 82432.70635416736,
      "d": 119.04750000000058,
      "v": 100
    },
    {
      "midi": 70,
      "hit": false,
      "t": 82432.70635416736,
      "d": 119.04750000000058,
      "v": 100
    },
    {
      "midi": 54,
      "hit": false,
      "t": 82432.70635416736,
      "d": 119.04750000000058,
      "v": 127
    },
    {
      "midi": 42,
      "hit": false,
      "t": 82432.70635416736,
      "d": 119.04750000000058,
      "v": 115
    },
    {
      "midi": 38,
      "hit": false,
      "t": 82432.70635416736,
      "d": 119.04750000000058,
      "v": 115
    },
    {
      "midi": 33,
      "hit": false,
      "t": 82432.70635416736,
      "d": 154.76175000000512,
      "v": 107
    },
    {
      "midi": 57,
      "hit": false,
      "t": 82670.80135416736,
      "d": 23.809500000003027,
      "v": 105
    },
    {
      "midi": 69,
      "hit": false,
      "t": 82670.80135416736,
      "d": 119.04750000000058,
      "v": 60
    },
    {
      "midi": 42,
      "hit": false,
      "t": 82670.80135416736,
      "d": 119.04750000000058,
      "v": 100
    },
    {
      "midi": 35,
      "hit": false,
      "t": 82670.80135416736,
      "d": 119.04750000000058,
      "v": 100
    },
    {
      "midi": 76,
      "hit": false,
      "t": 82670.80135416736,
      "d": 142.8570000000036,
      "v": 127
    },
    {
      "midi": 33,
      "hit": false,
      "t": 82670.80135416736,
      "d": 170.634750000012,
      "v": 113
    },
    {
      "midi": 52,
      "hit": false,
      "t": 82670.80135416736,
      "d": 194.44425000001502,
      "v": 110
    },
    {
      "midi": 45,
      "hit": false,
      "t": 82670.80135416736,
      "d": 198.41250000002037,
      "v": 110
    },
    {
      "midi": 62,
      "hit": false,
      "t": 82908.89635416739,
      "d": 31.745999999999185,
      "v": 105
    },
    {
      "midi": 69,
      "hit": false,
      "t": 82908.89635416739,
      "d": 119.04750000000058,
      "v": 100
    },
    {
      "midi": 70,
      "hit": false,
      "t": 82908.89635416739,
      "d": 119.04750000000058,
      "v": 100
    },
    {
      "midi": 54,
      "hit": false,
      "t": 82908.89635416739,
      "d": 119.04750000000058,
      "v": 100
    },
    {
      "midi": 42,
      "hit": false,
      "t": 82908.89635416739,
      "d": 119.04750000000058,
      "v": 115
    },
    {
      "midi": 35,
      "hit": false,
      "t": 82908.89635416739,
      "d": 119.04750000000058,
      "v": 115
    },
    {
      "midi": 38,
      "hit": false,
      "t": 82908.89635416739,
      "d": 150.79349999999977,
      "v": 105
    },
    {
      "midi": 50,
      "hit": false,
      "t": 82908.89635416739,
      "d": 158.72999999999593,
      "v": 107
    },
    {
      "midi": 79,
      "hit": false,
      "t": 82908.89635416739,
      "d": 236.1108749999985,
      "v": 127
    },
    {
      "midi": 57,
      "hit": false,
      "t": 82908.89635416739,
      "d": 325.39650000000256,
      "v": 102
    },
    {
      "midi": 78,
      "hit": false,
      "t": 83146.99135416739,
      "d": 117.0633749999979,
      "v": 127
    },
    {
      "midi": 69,
      "hit": false,
      "t": 83146.99135416739,
      "d": 119.04750000000058,
      "v": 60
    },
    {
      "midi": 42,
      "hit": false,
      "t": 83146.99135416739,
      "d": 119.04750000000058,
      "v": 100
    },
    {
      "midi": 35,
      "hit": false,
      "t": 83146.99135416739,
      "d": 119.04750000000058,
      "v": 100
    },
    {
      "midi": 38,
      "hit": false,
      "t": 83146.99135416739,
      "d": 190.4759999999951,
      "v": 107
    },
    {
      "midi": 50,
      "hit": false,
      "t": 83146.99135416739,
      "d": 706.3484999999637,
      "v": 107
    },
    {
      "midi": 78,
      "hit": false,
      "t": 83266.03885416739,
      "d": 593.2533749999566,
      "v": 127
    },
    {
      "midi": 69,
      "hit": false,
      "t": 83385.08635416739,
      "d": 119.04750000000058,
      "v": 100
    },
    {
      "midi": 70,
      "hit": false,
      "t": 83385.08635416739,
      "d": 119.04750000000058,
      "v": 100
    },
    {
      "midi": 54,
      "hit": false,
      "t": 83385.08635416739,
      "d": 119.04750000000058,
      "v": 127
    },
    {
      "midi": 42,
      "hit": false,
      "t": 83385.08635416739,
      "d": 119.04750000000058,
      "v": 115
    },
    {
      "midi": 38,
      "hit": false,
      "t": 83385.08635416739,
      "d": 119.04750000000058,
      "v": 115
    },
    {
      "midi": 57,
      "hit": false,
      "t": 83385.08635416739,
      "d": 210.31724999999278,
      "v": 100
    },
    {
      "midi": 57,
      "hit": false,
      "t": 83623.18135416738,
      "d": 39.68249999999534,
      "v": 76
    },
    {
      "midi": 38,
      "hit": false,
      "t": 83623.18135416738,
      "d": 67.46024999998917,
      "v": 116
    },
    {
      "midi": 69,
      "hit": false,
      "t": 83623.18135416738,
      "d": 119.04749999998603,
      "v": 60
    },
    {
      "midi": 42,
      "hit": false,
      "t": 83623.18135416738,
      "d": 119.04749999998603,
      "v": 80
    },
    {
      "midi": 35,
      "hit": false,
      "t": 83623.18135416738,
      "d": 119.04749999998603,
      "v": 100
    },
    {
      "midi": 62,
      "hit": false,
      "t": 83623.18135416738,
      "d": 238.09499999997206,
      "v": 95
    },
    {
      "midi": 26,
      "hit": false,
      "t": 83742.22885416736,
      "d": 59.523749999993015,
      "v": 80
    },
    {
      "midi": 69,
      "hit": false,
      "t": 83861.27635416735,
      "d": 119.04750000000058,
      "v": 100
    },
    {
      "midi": 70,
      "hit": false,
      "t": 83861.27635416735,
      "d": 119.04750000000058,
      "v": 100
    },
    {
      "midi": 54,
      "hit": false,
      "t": 83861.27635416735,
      "d": 119.04750000000058,
      "v": 100
    },
    {
      "midi": 42,
      "hit": false,
      "t": 83861.27635416735,
      "d": 119.04750000000058,
      "v": 115
    },
    {
      "midi": 35,
      "hit": false,
      "t": 83861.27635416735,
      "d": 119.04750000000058,
      "v": 115
    },
    {
      "midi": 40,
      "hit": false,
      "t": 83861.27635416735,
      "d": 150.79349999999977,
      "v": 105
    },
    {
      "midi": 52,
      "hit": false,
      "t": 83861.27635416735,
      "d": 246.03149999999732,
      "v": 110
    },
    {
      "midi": 59,
      "hit": false,
      "t": 83861.27635416735,
      "d": 257.93624999999884,
      "v": 113
    },
    {
      "midi": 71,
      "hit": false,
      "t": 83861.27635416735,
      "d": 355.15837499999907,
      "v": 127
    },
    {
      "midi": 74,
      "hit": false,
      "t": 83861.27635416735,
      "d": 952.3799999999901,
      "v": 61
    },
    {
      "midi": 67,
      "hit": false,
      "t": 83861.27635416735,
      "d": 952.3799999999901,
      "v": 50
    },
    {
      "midi": 69,
      "hit": false,
      "t": 84099.37135416735,
      "d": 119.04750000000058,
      "v": 60
    },
    {
      "midi": 42,
      "hit": false,
      "t": 84099.37135416735,
      "d": 119.04750000000058,
      "v": 90
    },
    {
      "midi": 35,
      "hit": false,
      "t": 84099.37135416735,
      "d": 119.04750000000058,
      "v": 100
    },
    {
      "midi": 40,
      "hit": false,
      "t": 84218.41885416735,
      "d": 71.42849999999453,
      "v": 26
    },
    {
      "midi": 78,
      "hit": false,
      "t": 84218.41885416735,
      "d": 355.1583749999845,
      "v": 127
    },
    {
      "midi": 40,
      "hit": false,
      "t": 84337.46635416735,
      "d": 59.523749999993015,
      "v": 102
    },
    {
      "midi": 69,
      "hit": false,
      "t": 84337.46635416735,
      "d": 119.04749999998603,
      "v": 100
    },
    {
      "midi": 70,
      "hit": false,
      "t": 84337.46635416735,
      "d": 119.04749999998603,
      "v": 100
    },
    {
      "midi": 54,
      "hit": false,
      "t": 84337.46635416735,
      "d": 119.04749999998603,
      "v": 127
    },
    {
      "midi": 42,
      "hit": false,
      "t": 84337.46635416735,
      "d": 119.04749999998603,
      "v": 115
    },
    {
      "midi": 38,
      "hit": false,
      "t": 84337.46635416735,
      "d": 119.04749999998603,
      "v": 115
    },
    {
      "midi": 59,
      "hit": false,
      "t": 84337.46635416735,
      "d": 210.31724999997823,
      "v": 100
    },
    {
      "midi": 52,
      "hit": false,
      "t": 84337.46635416735,
      "d": 234.12674999998126,
      "v": 105
    },
    {
      "midi": 40,
      "hit": false,
      "t": 84575.56135416734,
      "d": 67.46025000000373,
      "v": 116
    },
    {
      "midi": 69,
      "hit": false,
      "t": 84575.56135416734,
      "d": 119.04750000000058,
      "v": 60
    },
    {
      "midi": 46,
      "hit": false,
      "t": 84575.56135416734,
      "d": 119.04750000000058,
      "v": 100
    },
    {
      "midi": 35,
      "hit": false,
      "t": 84575.56135416734,
      "d": 119.04750000000058,
      "v": 90
    },
    {
      "midi": 76,
      "hit": false,
      "t": 84575.56135416734,
      "d": 236.1108749999985,
      "v": 127
    },
    {
      "midi": 28,
      "hit": false,
      "t": 84694.60885416734,
      "d": 59.523749999993015,
      "v": 80
    },
    {
      "midi": 52,
      "hit": false,
      "t": 84813.65635416734,
      "d": 31.745999999999185,
      "v": 55
    },
    {
      "midi": 42,
      "hit": false,
      "t": 84813.65635416734,
      "d": 83.33324999999604,
      "v": 115
    },
    {
      "midi": 69,
      "hit": false,
      "t": 84813.65635416734,
      "d": 119.04750000000058,
      "v": 100
    },
    {
      "midi": 70,
      "hit": false,
      "t": 84813.65635416734,
      "d": 119.04750000000058,
      "v": 100
    },
    {
      "midi": 54,
      "hit": false,
      "t": 84813.65635416734,
      "d": 119.04750000000058,
      "v": 100
    },
    {
      "midi": 35,
      "hit": false,
      "t": 84813.65635416734,
      "d": 119.04750000000058,
      "v": 115
    },
    {
      "midi": 49,
      "hit": false,
      "t": 84813.65635416734,
      "d": 325.39650000000256,
      "v": 102
    },
    {
      "midi": 81,
      "hit": false,
      "t": 84813.65635416734,
      "d": 355.15837499999907,
      "v": 127
    },
    {
      "midi": 69,
      "hit": false,
      "t": 85051.75135416734,
      "d": 119.04750000000058,
      "v": 60
    },
    {
      "midi": 42,
      "hit": false,
      "t": 85051.75135416734,
      "d": 119.04750000000058,
      "v": 100
    },
    {
      "midi": 35,
      "hit": false,
      "t": 85051.75135416734,
      "d": 119.04750000000058,
      "v": 90
    },
    {
      "midi": 76,
      "hit": false,
      "t": 85051.75135416734,
      "d": 202.38075000001118,
      "v": 29
    },
    {
      "midi": 79,
      "hit": false,
      "t": 85170.79885416734,
      "d": 355.1583750000282,
      "v": 127
    },
    {
      "midi": 54,
      "hit": false,
      "t": 85289.84635416736,
      "d": 11.904750000001513,
      "v": 127
    },
    {
      "midi": 69,
      "hit": false,
      "t": 85289.84635416736,
      "d": 119.04750000000058,
      "v": 100
    },
    {
      "midi": 70,
      "hit": false,
      "t": 85289.84635416736,
      "d": 119.04750000000058,
      "v": 100
    },
    {
      "midi": 42,
      "hit": false,
      "t": 85289.84635416736,
      "d": 119.04750000000058,
      "v": 115
    },
    {
      "midi": 38,
      "hit": false,
      "t": 85289.84635416736,
      "d": 119.04750000000058,
      "v": 115
    },
    {
      "midi": 49,
      "hit": false,
      "t": 85289.84635416736,
      "d": 210.31725000000733,
      "v": 100
    },
    {
      "midi": 49,
      "hit": false,
      "t": 85527.94135416737,
      "d": 39.68249999999534,
      "v": 76
    },
    {
      "midi": 42,
      "hit": false,
      "t": 85527.94135416737,
      "d": 99.20624999998836,
      "v": 100
    },
    {
      "midi": 69,
      "hit": false,
      "t": 85527.94135416737,
      "d": 119.04749999998603,
      "v": 60
    },
    {
      "midi": 35,
      "hit": false,
      "t": 85527.94135416737,
      "d": 119.04749999998603,
      "v": 100
    },
    {
      "midi": 78,
      "hit": false,
      "t": 85527.94135416737,
      "d": 236.11087499998393,
      "v": 127
    },
    {
      "midi": 54,
      "hit": false,
      "t": 85527.94135416737,
      "d": 238.0949999999866,
      "v": 95
    },
    {
      "midi": 43,
      "hit": false,
      "t": 85766.03635416736,
      "d": 83.33324999999604,
      "v": 105
    },
    {
      "midi": 69,
      "hit": false,
      "t": 85766.03635416736,
      "d": 119.04750000000058,
      "v": 100
    },
    {
      "midi": 70,
      "hit": false,
      "t": 85766.03635416736,
      "d": 119.04750000000058,
      "v": 100
    },
    {
      "midi": 54,
      "hit": false,
      "t": 85766.03635416736,
      "d": 119.04750000000058,
      "v": 100
    },
    {
      "midi": 42,
      "hit": false,
      "t": 85766.03635416736,
      "d": 119.04750000000058,
      "v": 115
    },
    {
      "midi": 35,
      "hit": false,
      "t": 85766.03635416736,
      "d": 119.04750000000058,
      "v": 115
    },
    {
      "midi": 76,
      "hit": false,
      "t": 85766.03635416736,
      "d": 355.15837499999907,
      "v": 127
    },
    {
      "midi": 77,
      "hit": false,
      "t": 85766.03635416736,
      "d": 952.3800000000338,
      "v": 61
    },
    {
      "midi": 69,
      "hit": false,
      "t": 86004.13135416736,
      "d": 119.04750000000058,
      "v": 60
    },
    {
      "midi": 42,
      "hit": false,
      "t": 86004.13135416736,
      "d": 119.04750000000058,
      "v": 70
    },
    {
      "midi": 35,
      "hit": false,
      "t": 86004.13135416736,
      "d": 119.04750000000058,
      "v": 100
    },
    {
      "midi": 43,
      "hit": false,
      "t": 86004.13135416736,
      "d": 194.44425000000047,
      "v": 95
    },
    {
      "midi": 55,
      "hit": false,
      "t": 86004.13135416736,
      "d": 202.38074999999662,
      "v": 100
    },
    {
      "midi": 50,
      "hit": false,
      "t": 86004.13135416736,
      "d": 206.34900000000198,
      "v": 91
    },
    {
      "midi": 78,
      "hit": false,
      "t": 86123.17885416736,
      "d": 355.1583750000136,
      "v": 127
    },
    {
      "midi": 69,
      "hit": false,
      "t": 86242.22635416736,
      "d": 119.04750000000058,
      "v": 100
    },
    {
      "midi": 70,
      "hit": false,
      "t": 86242.22635416736,
      "d": 119.04750000000058,
      "v": 100
    },
    {
      "midi": 54,
      "hit": false,
      "t": 86242.22635416736,
      "d": 119.04750000000058,
      "v": 127
    },
    {
      "midi": 42,
      "hit": false,
      "t": 86242.22635416736,
      "d": 119.04750000000058,
      "v": 100
    },
    {
      "midi": 38,
      "hit": false,
      "t": 86242.22635416736,
      "d": 119.04750000000058,
      "v": 115
    },
    {
      "midi": 43,
      "hit": false,
      "t": 86242.22635416736,
      "d": 123.01575000000594,
      "v": 110
    },
    {
      "midi": 53,
      "hit": false,
      "t": 86480.32135416738,
      "d": 23.809500000003027,
      "v": 68
    },
    {
      "midi": 32,
      "hit": false,
      "t": 86480.32135416738,
      "d": 99.20625000000291,
      "v": 110
    },
    {
      "midi": 69,
      "hit": false,
      "t": 86480.32135416738,
      "d": 119.04750000000058,
      "v": 60
    },
    {
      "midi": 42,
      "hit": false,
      "t": 86480.32135416738,
      "d": 119.04750000000058,
      "v": 90
    },
    {
      "midi": 35,
      "hit": false,
      "t": 86480.32135416738,
      "d": 119.04750000000058,
      "v": 100
    },
    {
      "midi": 55,
      "hit": false,
      "t": 86480.32135416738,
      "d": 174.6030000000028,
      "v": 105
    },
    {
      "midi": 50,
      "hit": false,
      "t": 86480.32135416738,
      "d": 194.44425000000047,
      "v": 110
    },
    {
      "midi": 43,
      "hit": false,
      "t": 86480.32135416738,
      "d": 198.41250000000582,
      "v": 110
    },
    {
      "midi": 79,
      "hit": false,
      "t": 86480.32135416738,
      "d": 236.11087500001304,
      "v": 127
    },
    {
      "midi": 69,
      "hit": false,
      "t": 86718.41635416739,
      "d": 119.04750000001513,
      "v": 100
    },
    {
      "midi": 70,
      "hit": false,
      "t": 86718.41635416739,
      "d": 119.04750000001513,
      "v": 100
    },
    {
      "midi": 54,
      "hit": false,
      "t": 86718.41635416739,
      "d": 119.04750000001513,
      "v": 100
    },
    {
      "midi": 42,
      "hit": false,
      "t": 86718.41635416739,
      "d": 119.04750000001513,
      "v": 115
    },
    {
      "midi": 35,
      "hit": false,
      "t": 86718.41635416739,
      "d": 119.04750000001513,
      "v": 115
    },
    {
      "midi": 33,
      "hit": false,
      "t": 86718.41635416739,
      "d": 170.634750000012,
      "v": 102
    },
    {
      "midi": 78,
      "hit": false,
      "t": 86718.41635416739,
      "d": 474.20587500002875,
      "v": 127
    },
    {
      "midi": 73,
      "hit": false,
      "t": 86718.41635416739,
      "d": 476.19000000003143,
      "v": 11
    },
    {
      "midi": 45,
      "hit": false,
      "t": 86734.2893541674,
      "d": 369.0472500000178,
      "v": 98
    },
    {
      "midi": 57,
      "hit": false,
      "t": 86738.2576041674,
      "d": 369.0472500000178,
      "v": 91
    },
    {
      "midi": 52,
      "hit": false,
      "t": 86742.22585416741,
      "d": 357.14250000000175,
      "v": 100
    },
    {
      "midi": 69,
      "hit": false,
      "t": 86956.5113541674,
      "d": 119.04750000000058,
      "v": 60
    },
    {
      "midi": 42,
      "hit": false,
      "t": 86956.5113541674,
      "d": 119.04750000000058,
      "v": 90
    },
    {
      "midi": 35,
      "hit": false,
      "t": 86956.5113541674,
      "d": 119.04750000000058,
      "v": 90
    },
    {
      "midi": 33,
      "hit": false,
      "t": 86956.5113541674,
      "d": 158.73000000001048,
      "v": 85
    },
    {
      "midi": 69,
      "hit": false,
      "t": 87194.60635416742,
      "d": 119.04750000001513,
      "v": 100
    },
    {
      "midi": 70,
      "hit": false,
      "t": 87194.60635416742,
      "d": 119.04750000001513,
      "v": 100
    },
    {
      "midi": 42,
      "hit": false,
      "t": 87194.60635416742,
      "d": 119.04750000001513,
      "v": 115
    },
    {
      "midi": 38,
      "hit": false,
      "t": 87194.60635416742,
      "d": 119.04750000001513,
      "v": 115
    },
    {
      "midi": 78,
      "hit": false,
      "t": 87194.60635416742,
      "d": 236.11087500001304,
      "v": 127
    },
    {
      "midi": 34,
      "hit": false,
      "t": 87210.47935416743,
      "d": 154.76175000000512,
      "v": 98
    },
    {
      "midi": 54,
      "hit": false,
      "t": 87214.44760416744,
      "d": 99.20625000000291,
      "v": 91
    },
    {
      "midi": 49,
      "hit": false,
      "t": 87218.41585416744,
      "d": 357.14250000000175,
      "v": 100
    },
    {
      "midi": 76,
      "hit": false,
      "t": 87432.70135416744,
      "d": 117.0633749999979,
      "v": 127
    },
    {
      "midi": 69,
      "hit": false,
      "t": 87432.70135416744,
      "d": 119.04750000000058,
      "v": 60
    },
    {
      "midi": 42,
      "hit": false,
      "t": 87432.70135416744,
      "d": 119.04750000000058,
      "v": 90
    },
    {
      "midi": 35,
      "hit": false,
      "t": 87432.70135416744,
      "d": 119.04750000000058,
      "v": 100
    },
    {
      "midi": 34,
      "hit": false,
      "t": 87432.70135416744,
      "d": 146.82525000000896,
      "v": 85
    },
    {
      "midi": 46,
      "hit": false,
      "t": 87551.74885416744,
      "d": 119.04750000001513,
      "v": 100
    },
    {
      "midi": 35,
      "hit": false,
      "t": 87670.79635416745,
      "d": 111.11100000000442,
      "v": 115
    },
    {
      "midi": 69,
      "hit": false,
      "t": 87670.79635416745,
      "d": 119.04750000000058,
      "v": 100
    },
    {
      "midi": 70,
      "hit": false,
      "t": 87670.79635416745,
      "d": 119.04750000000058,
      "v": 100
    },
    {
      "midi": 54,
      "hit": false,
      "t": 87670.79635416745,
      "d": 119.04750000000058,
      "v": 100
    },
    {
      "midi": 42,
      "hit": false,
      "t": 87670.79635416745,
      "d": 119.04750000000058,
      "v": 115
    },
    {
      "midi": 35,
      "hit": false,
      "t": 87908.89135416746,
      "d": 87.3015000000014,
      "v": 100
    },
    {
      "midi": 69,
      "hit": false,
      "t": 87908.89135416746,
      "d": 119.04750000000058,
      "v": 60
    },
    {
      "midi": 42,
      "hit": false,
      "t": 87908.89135416746,
      "d": 119.04750000000058,
      "v": 100
    },
    {
      "midi": 54,
      "hit": false,
      "t": 87908.89135416746,
      "d": 182.53949999999895,
      "v": 107
    },
    {
      "midi": 47,
      "hit": false,
      "t": 87908.89135416746,
      "d": 194.44425000000047,
      "v": 110
    },
    {
      "midi": 66,
      "hit": false,
      "t": 87908.89135416746,
      "d": 1484.1255000000092,
      "v": 59
    },
    {
      "midi": 35,
      "hit": false,
      "t": 88146.98635416746,
      "d": 79.36500000000524,
      "v": 110
    },
    {
      "midi": 69,
      "hit": false,
      "t": 88146.98635416746,
      "d": 119.04750000000058,
      "v": 100
    },
    {
      "midi": 70,
      "hit": false,
      "t": 88146.98635416746,
      "d": 119.04750000000058,
      "v": 100
    },
    {
      "midi": 54,
      "hit": false,
      "t": 88146.98635416746,
      "d": 119.04750000000058,
      "v": 127
    },
    {
      "midi": 42,
      "hit": false,
      "t": 88146.98635416746,
      "d": 119.04750000000058,
      "v": 115
    },
    {
      "midi": 38,
      "hit": false,
      "t": 88146.98635416746,
      "d": 119.04750000000058,
      "v": 115
    },
    {
      "midi": 71,
      "hit": false,
      "t": 88146.98635416746,
      "d": 1246.030500000008,
      "v": 64
    },
    {
      "midi": 74,
      "hit": false,
      "t": 88266.03385416746,
      "d": 1126.9830000000075,
      "v": 29
    },
    {
      "midi": 69,
      "hit": false,
      "t": 88385.08135416746,
      "d": 119.04750000000058,
      "v": 60
    },
    {
      "midi": 42,
      "hit": false,
      "t": 88385.08135416746,
      "d": 119.04750000000058,
      "v": 100
    },
    {
      "midi": 35,
      "hit": false,
      "t": 88385.08135416746,
      "d": 119.04750000000058,
      "v": 100
    },
    {
      "midi": 78,
      "hit": false,
      "t": 88385.08135416746,
      "d": 1007.9355000000069,
      "v": 70
    },
    {
      "midi": 35,
      "hit": false,
      "t": 88623.17635416746,
      "d": 107.14274999999907,
      "v": 115
    },
    {
      "midi": 69,
      "hit": false,
      "t": 88623.17635416746,
      "d": 119.04750000000058,
      "v": 100
    },
    {
      "midi": 70,
      "hit": false,
      "t": 88623.17635416746,
      "d": 119.04750000000058,
      "v": 100
    },
    {
      "midi": 54,
      "hit": false,
      "t": 88623.17635416746,
      "d": 119.04750000000058,
      "v": 100
    },
    {
      "midi": 42,
      "hit": false,
      "t": 88623.17635416746,
      "d": 119.04750000000058,
      "v": 115
    },
    {
      "midi": 47,
      "hit": false,
      "t": 88623.17635416746,
      "d": 821.4277500000026,
      "v": 110
    },
    {
      "midi": 35,
      "hit": false,
      "t": 88861.27135416746,
      "d": 91.26975000000675,
      "v": 100
    },
    {
      "midi": 69,
      "hit": false,
      "t": 88861.27135416746,
      "d": 119.04750000000058,
      "v": 60
    },
    {
      "midi": 42,
      "hit": false,
      "t": 88861.27135416746,
      "d": 119.04750000000058,
      "v": 100
    },
    {
      "midi": 69,
      "hit": false,
      "t": 89099.36635416746,
      "d": 119.04750000000058,
      "v": 100
    },
    {
      "midi": 70,
      "hit": false,
      "t": 89099.36635416746,
      "d": 119.04750000000058,
      "v": 100
    },
    {
      "midi": 54,
      "hit": false,
      "t": 89099.36635416746,
      "d": 119.04750000000058,
      "v": 127
    },
    {
      "midi": 42,
      "hit": false,
      "t": 89099.36635416746,
      "d": 119.04750000000058,
      "v": 115
    },
    {
      "midi": 38,
      "hit": false,
      "t": 89099.36635416746,
      "d": 119.04750000000058,
      "v": 115
    },
    {
      "midi": 35,
      "hit": false,
      "t": 89099.36635416746,
      "d": 130.9522500000021,
      "v": 122
    },
    {
      "midi": 35,
      "hit": false,
      "t": 89337.46135416746,
      "d": 55.55550000000221,
      "v": 100
    },
    {
      "midi": 69,
      "hit": false,
      "t": 89337.46135416746,
      "d": 119.04750000000058,
      "v": 60
    },
    {
      "midi": 42,
      "hit": false,
      "t": 89337.46135416746,
      "d": 119.04750000000058,
      "v": 80
    },
    {
      "midi": 23,
      "hit": false,
      "t": 89456.50885416746,
      "d": 67.46025000000373,
      "v": 85
    },
    {
      "midi": 35,
      "hit": false,
      "t": 89575.55635416746,
      "d": 99.20625000000291,
      "v": 115
    },
    {
      "midi": 69,
      "hit": false,
      "t": 89575.55635416746,
      "d": 119.04750000000058,
      "v": 100
    },
    {
      "midi": 70,
      "hit": false,
      "t": 89575.55635416746,
      "d": 119.04750000000058,
      "v": 100
    },
    {
      "midi": 54,
      "hit": false,
      "t": 89575.55635416746,
      "d": 119.04750000000058,
      "v": 100
    },
    {
      "midi": 42,
      "hit": false,
      "t": 89575.55635416746,
      "d": 119.04750000000058,
      "v": 115
    },
    {
      "midi": 64,
      "hit": false,
      "t": 89575.55635416746,
      "d": 950.395875000002,
      "v": 47
    },
    {
      "midi": 73,
      "hit": false,
      "t": 89575.55635416746,
      "d": 1761.9030000000057,
      "v": 60
    },
    {
      "midi": 76,
      "hit": false,
      "t": 89575.55635416746,
      "d": 1781.7442500000034,
      "v": 57
    },
    {
      "midi": 69,
      "hit": false,
      "t": 89813.65135416746,
      "d": 119.04750000000058,
      "v": 60
    },
    {
      "midi": 42,
      "hit": false,
      "t": 89813.65135416746,
      "d": 119.04750000000058,
      "v": 100
    },
    {
      "midi": 35,
      "hit": false,
      "t": 89813.65135416746,
      "d": 119.04750000000058,
      "v": 100
    },
    {
      "midi": 52,
      "hit": false,
      "t": 89813.65135416746,
      "d": 154.76175000000512,
      "v": 91
    },
    {
      "midi": 47,
      "hit": false,
      "t": 89813.65135416746,
      "d": 166.66650000000664,
      "v": 93
    },
    {
      "midi": 69,
      "hit": false,
      "t": 90051.74635416747,
      "d": 119.04750000000058,
      "v": 100
    },
    {
      "midi": 70,
      "hit": false,
      "t": 90051.74635416747,
      "d": 119.04750000000058,
      "v": 100
    },
    {
      "midi": 54,
      "hit": false,
      "t": 90051.74635416747,
      "d": 119.04750000000058,
      "v": 127
    },
    {
      "midi": 42,
      "hit": false,
      "t": 90051.74635416747,
      "d": 119.04750000000058,
      "v": 115
    },
    {
      "midi": 38,
      "hit": false,
      "t": 90051.74635416747,
      "d": 119.04750000000058,
      "v": 115
    },
    {
      "midi": 35,
      "hit": false,
      "t": 90051.74635416747,
      "d": 123.01575000000594,
      "v": 119
    },
    {
      "midi": 69,
      "hit": false,
      "t": 90289.84135416747,
      "d": 119.04750000000058,
      "v": 60
    },
    {
      "midi": 42,
      "hit": false,
      "t": 90289.84135416747,
      "d": 119.04750000000058,
      "v": 100
    },
    {
      "midi": 35,
      "hit": false,
      "t": 90289.84135416747,
      "d": 119.04750000000058,
      "v": 100
    },
    {
      "midi": 35,
      "hit": false,
      "t": 90527.93635416747,
      "d": 99.20625000000291,
      "v": 115
    },
    {
      "midi": 69,
      "hit": false,
      "t": 90527.93635416747,
      "d": 119.04750000000058,
      "v": 100
    },
    {
      "midi": 70,
      "hit": false,
      "t": 90527.93635416747,
      "d": 119.04750000000058,
      "v": 100
    },
    {
      "midi": 54,
      "hit": false,
      "t": 90527.93635416747,
      "d": 119.04750000000058,
      "v": 100
    },
    {
      "midi": 42,
      "hit": false,
      "t": 90527.93635416747,
      "d": 119.04750000000058,
      "v": 115
    },
    {
      "midi": 47,
      "hit": false,
      "t": 90527.93635416747,
      "d": 313.49175000000105,
      "v": 107
    },
    {
      "midi": 57,
      "hit": false,
      "t": 90527.93635416747,
      "d": 734.1262500000012,
      "v": 100
    },
    {
      "midi": 35,
      "hit": false,
      "t": 90766.03135416747,
      "d": 95.23799999999756,
      "v": 100
    },
    {
      "midi": 69,
      "hit": false,
      "t": 90766.03135416747,
      "d": 119.04750000000058,
      "v": 60
    },
    {
      "midi": 42,
      "hit": false,
      "t": 90766.03135416747,
      "d": 119.04750000000058,
      "v": 100
    },
    {
      "midi": 52,
      "hit": false,
      "t": 90766.03135416747,
      "d": 321.4282499999972,
      "v": 89
    },
    {
      "midi": 69,
      "hit": false,
      "t": 91004.12635416747,
      "d": 119.04750000000058,
      "v": 100
    },
    {
      "midi": 70,
      "hit": false,
      "t": 91004.12635416747,
      "d": 119.04750000000058,
      "v": 100
    },
    {
      "midi": 54,
      "hit": false,
      "t": 91004.12635416747,
      "d": 119.04750000000058,
      "v": 127
    },
    {
      "midi": 42,
      "hit": false,
      "t": 91004.12635416747,
      "d": 119.04750000000058,
      "v": 115
    },
    {
      "midi": 38,
      "hit": false,
      "t": 91004.12635416747,
      "d": 119.04750000000058,
      "v": 115
    },
    {
      "midi": 35,
      "hit": false,
      "t": 91004.12635416747,
      "d": 238.09500000000116,
      "v": 105
    },
    {
      "midi": 47,
      "hit": false,
      "t": 91004.12635416747,
      "d": 456.3487499999901,
      "v": 102
    },
    {
      "midi": 42,
      "hit": false,
      "t": 91242.22135416747,
      "d": 91.2697499999922,
      "v": 80
    },
    {
      "midi": 69,
      "hit": false,
      "t": 91242.22135416747,
      "d": 103.17449999999371,
      "v": 60
    },
    {
      "midi": 35,
      "hit": false,
      "t": 91242.22135416747,
      "d": 119.04750000000058,
      "v": 100
    },
    {
      "midi": 52,
      "hit": false,
      "t": 91242.22135416747,
      "d": 178.5712499999936,
      "v": 98
    },
    {
      "midi": 69,
      "hit": false,
      "t": 91480.31635416746,
      "d": 119.04750000000058,
      "v": 100
    },
    {
      "midi": 70,
      "hit": false,
      "t": 91480.31635416746,
      "d": 119.04750000000058,
      "v": 100
    },
    {
      "midi": 54,
      "hit": false,
      "t": 91480.31635416746,
      "d": 119.04750000000058,
      "v": 100
    },
    {
      "midi": 42,
      "hit": false,
      "t": 91480.31635416746,
      "d": 119.04750000000058,
      "v": 115
    },
    {
      "midi": 35,
      "hit": false,
      "t": 91480.31635416746,
      "d": 119.04750000000058,
      "v": 115
    },
    {
      "midi": 67,
      "hit": false,
      "t": 91480.31635416746,
      "d": 1444.4429999999993,
      "v": 59
    },
    {
      "midi": 62,
      "hit": false,
      "t": 91480.31635416746,
      "d": 1496.0302499999962,
      "v": 55
    },
    {
      "midi": 71,
      "hit": false,
      "t": 91480.31635416746,
      "d": 1515.8714999999938,
      "v": 68
    },
    {
      "midi": 69,
      "hit": false,
      "t": 91718.41135416746,
      "d": 119.04750000000058,
      "v": 60
    },
    {
      "midi": 42,
      "hit": false,
      "t": 91718.41135416746,
      "d": 119.04750000000058,
      "v": 70
    },
    {
      "midi": 35,
      "hit": false,
      "t": 91718.41135416746,
      "d": 119.04750000000058,
      "v": 100
    },
    {
      "midi": 69,
      "hit": false,
      "t": 91956.50635416746,
      "d": 119.04750000000058,
      "v": 100
    },
    {
      "midi": 70,
      "hit": false,
      "t": 91956.50635416746,
      "d": 119.04750000000058,
      "v": 100
    },
    {
      "midi": 54,
      "hit": false,
      "t": 91956.50635416746,
      "d": 119.04750000000058,
      "v": 127
    },
    {
      "midi": 42,
      "hit": false,
      "t": 91956.50635416746,
      "d": 119.04750000000058,
      "v": 100
    },
    {
      "midi": 38,
      "hit": false,
      "t": 91956.50635416746,
      "d": 119.04750000000058,
      "v": 115
    },
    {
      "midi": 35,
      "hit": false,
      "t": 91956.50635416746,
      "d": 162.69825000000128,
      "v": 105
    },
    {
      "midi": 50,
      "hit": false,
      "t": 91956.50635416746,
      "d": 202.38074999999662,
      "v": 102
    },
    {
      "midi": 69,
      "hit": false,
      "t": 92194.60135416745,
      "d": 119.04750000000058,
      "v": 60
    },
    {
      "midi": 42,
      "hit": false,
      "t": 92194.60135416745,
      "d": 119.04750000000058,
      "v": 90
    },
    {
      "midi": 35,
      "hit": false,
      "t": 92194.60135416745,
      "d": 119.04750000000058,
      "v": 100
    },
    {
      "midi": 69,
      "hit": false,
      "t": 92432.69635416745,
      "d": 119.04750000000058,
      "v": 100
    },
    {
      "midi": 70,
      "hit": false,
      "t": 92432.69635416745,
      "d": 119.04750000000058,
      "v": 100
    },
    {
      "midi": 54,
      "hit": false,
      "t": 92432.69635416745,
      "d": 119.04750000000058,
      "v": 100
    },
    {
      "midi": 42,
      "hit": false,
      "t": 92432.69635416745,
      "d": 119.04750000000058,
      "v": 115
    },
    {
      "midi": 35,
      "hit": false,
      "t": 92432.69635416745,
      "d": 119.04750000000058,
      "v": 115
    },
    {
      "midi": 69,
      "hit": false,
      "t": 92670.79135416745,
      "d": 119.04750000000058,
      "v": 60
    },
    {
      "midi": 42,
      "hit": false,
      "t": 92670.79135416745,
      "d": 119.04750000000058,
      "v": 90
    },
    {
      "midi": 35,
      "hit": false,
      "t": 92670.79135416745,
      "d": 119.04750000000058,
      "v": 90
    },
    {
      "midi": 50,
      "hit": false,
      "t": 92670.79135416745,
      "d": 238.09500000000116,
      "v": 100
    },
    {
      "midi": 35,
      "hit": false,
      "t": 92908.88635416745,
      "d": 27.777750000008382,
      "v": 105
    },
    {
      "midi": 69,
      "hit": false,
      "t": 92908.88635416745,
      "d": 119.04750000000058,
      "v": 100
    },
    {
      "midi": 70,
      "hit": false,
      "t": 92908.88635416745,
      "d": 119.04750000000058,
      "v": 100
    },
    {
      "midi": 54,
      "hit": false,
      "t": 92908.88635416745,
      "d": 119.04750000000058,
      "v": 127
    },
    {
      "midi": 42,
      "hit": false,
      "t": 92908.88635416745,
      "d": 119.04750000000058,
      "v": 115
    },
    {
      "midi": 38,
      "hit": false,
      "t": 92908.88635416745,
      "d": 119.04750000000058,
      "v": 115
    },
    {
      "midi": 69,
      "hit": false,
      "t": 93146.98135416745,
      "d": 119.04750000000058,
      "v": 60
    },
    {
      "midi": 42,
      "hit": false,
      "t": 93146.98135416745,
      "d": 119.04750000000058,
      "v": 90
    },
    {
      "midi": 35,
      "hit": false,
      "t": 93146.98135416745,
      "d": 119.04750000000058,
      "v": 100
    },
    {
      "midi": 67,
      "hit": false,
      "t": 93146.98135416745,
      "d": 236.11087500001304,
      "v": 57
    },
    {
      "midi": 50,
      "hit": false,
      "t": 93146.98135416745,
      "d": 535.7137500000099,
      "v": 107
    },
    {
      "midi": 62,
      "hit": false,
      "t": 93146.98135416745,
      "d": 690.4755000000005,
      "v": 45
    },
    {
      "midi": 46,
      "hit": false,
      "t": 93266.02885416745,
      "d": 119.04750000001513,
      "v": 100
    },
    {
      "midi": 23,
      "hit": false,
      "t": 93269.99710416746,
      "d": 75.39674999999988,
      "v": 61
    },
    {
      "midi": 35,
      "hit": false,
      "t": 93385.07635416747,
      "d": 115.07924999999523,
      "v": 115
    },
    {
      "midi": 69,
      "hit": false,
      "t": 93385.07635416747,
      "d": 119.04750000000058,
      "v": 100
    },
    {
      "midi": 70,
      "hit": false,
      "t": 93385.07635416747,
      "d": 119.04750000000058,
      "v": 100
    },
    {
      "midi": 54,
      "hit": false,
      "t": 93385.07635416747,
      "d": 119.04750000000058,
      "v": 100
    },
    {
      "midi": 42,
      "hit": false,
      "t": 93385.07635416747,
      "d": 119.04750000000058,
      "v": 115
    },
    {
      "midi": 69,
      "hit": false,
      "t": 93623.17135416747,
      "d": 119.04749999998603,
      "v": 60
    },
    {
      "midi": 42,
      "hit": false,
      "t": 93623.17135416747,
      "d": 119.04749999998603,
      "v": 90
    },
    {
      "midi": 35,
      "hit": false,
      "t": 93623.17135416747,
      "d": 119.04749999998603,
      "v": 100
    },
    {
      "midi": 69,
      "hit": false,
      "t": 93861.26635416746,
      "d": 35.71425000000454,
      "v": 100
    },
    {
      "midi": 62,
      "hit": false,
      "t": 93861.26635416746,
      "d": 63.49199999999837,
      "v": 41
    },
    {
      "midi": 67,
      "hit": false,
      "t": 93861.26635416746,
      "d": 99.20625000000291,
      "v": 61
    },
    {
      "midi": 35,
      "hit": false,
      "t": 93861.26635416746,
      "d": 119.04750000000058,
      "v": 105
    },
    {
      "midi": 70,
      "hit": false,
      "t": 93861.26635416746,
      "d": 119.04750000000058,
      "v": 100
    },
    {
      "midi": 54,
      "hit": false,
      "t": 93861.26635416746,
      "d": 119.04750000000058,
      "v": 127
    },
    {
      "midi": 42,
      "hit": false,
      "t": 93861.26635416746,
      "d": 119.04750000000058,
      "v": 115
    },
    {
      "midi": 38,
      "hit": false,
      "t": 93861.26635416746,
      "d": 119.04750000000058,
      "v": 115
    },
    {
      "midi": 71,
      "hit": false,
      "t": 93861.26635416746,
      "d": 126.98399999999674,
      "v": 61
    },
    {
      "midi": 50,
      "hit": false,
      "t": 93861.26635416746,
      "d": 527.7772499999992,
      "v": 98
    },
    {
      "midi": 62,
      "hit": false,
      "t": 94099.36135416746,
      "d": 71.42849999999453,
      "v": 53
    },
    {
      "midi": 69,
      "hit": false,
      "t": 94099.36135416746,
      "d": 119.04750000000058,
      "v": 60
    },
    {
      "midi": 42,
      "hit": false,
      "t": 94099.36135416746,
      "d": 119.04750000000058,
      "v": 90
    },
    {
      "midi": 35,
      "hit": false,
      "t": 94099.36135416746,
      "d": 119.04750000000058,
      "v": 100
    },
    {
      "midi": 69,
      "hit": false,
      "t": 94337.45635416746,
      "d": 119.04750000000058,
      "v": 100
    },
    {
      "midi": 70,
      "hit": false,
      "t": 94337.45635416746,
      "d": 119.04750000000058,
      "v": 100
    },
    {
      "midi": 54,
      "hit": false,
      "t": 94337.45635416746,
      "d": 119.04750000000058,
      "v": 100
    },
    {
      "midi": 42,
      "hit": false,
      "t": 94337.45635416746,
      "d": 119.04750000000058,
      "v": 115
    },
    {
      "midi": 35,
      "hit": false,
      "t": 94337.45635416746,
      "d": 119.04750000000058,
      "v": 115
    },
    {
      "midi": 55,
      "hit": false,
      "t": 94337.45635416746,
      "d": 555.554999999993,
      "v": 89
    },
    {
      "midi": 67,
      "hit": false,
      "t": 94337.45635416746,
      "d": 571.4279999999999,
      "v": 59
    },
    {
      "midi": 62,
      "hit": false,
      "t": 94337.45635416746,
      "d": 654.7612500000105,
      "v": 49
    },
    {
      "midi": 35,
      "hit": false,
      "t": 94575.55135416744,
      "d": 67.46025000000373,
      "v": 100
    },
    {
      "midi": 69,
      "hit": false,
      "t": 94575.55135416744,
      "d": 119.04750000000058,
      "v": 60
    },
    {
      "midi": 42,
      "hit": false,
      "t": 94575.55135416744,
      "d": 119.04750000000058,
      "v": 100
    },
    {
      "midi": 35,
      "hit": false,
      "t": 94813.64635416745,
      "d": 99.20625000001746,
      "v": 110
    },
    {
      "midi": 69,
      "hit": false,
      "t": 94813.64635416745,
      "d": 119.04750000001513,
      "v": 100
    },
    {
      "midi": 70,
      "hit": false,
      "t": 94813.64635416745,
      "d": 119.04750000001513,
      "v": 100
    },
    {
      "midi": 54,
      "hit": false,
      "t": 94813.64635416745,
      "d": 119.04750000001513,
      "v": 127
    },
    {
      "midi": 42,
      "hit": false,
      "t": 94813.64635416745,
      "d": 119.04750000001513,
      "v": 115
    },
    {
      "midi": 38,
      "hit": false,
      "t": 94813.64635416745,
      "d": 119.04750000001513,
      "v": 115
    },
    {
      "midi": 71,
      "hit": false,
      "t": 94813.64635416745,
      "d": 150.79350000001432,
      "v": 70
    },
    {
      "midi": 50,
      "hit": false,
      "t": 94813.64635416745,
      "d": 293.6505000000179,
      "v": 100
    },
    {
      "midi": 34,
      "hit": false,
      "t": 95051.74135416746,
      "d": 75.39674999999988,
      "v": 105
    },
    {
      "midi": 66,
      "hit": false,
      "t": 95051.74135416746,
      "d": 117.0633749999979,
      "v": 127
    },
    {
      "midi": 69,
      "hit": false,
      "t": 95051.74135416746,
      "d": 119.04750000000058,
      "v": 60
    },
    {
      "midi": 42,
      "hit": false,
      "t": 95051.74135416746,
      "d": 119.04750000000058,
      "v": 100
    },
    {
      "midi": 35,
      "hit": false,
      "t": 95051.74135416746,
      "d": 119.04750000000058,
      "v": 100
    },
    {
      "midi": 66,
      "hit": false,
      "t": 95170.78885416746,
      "d": 117.06337500001246,
      "v": 127
    },
    {
      "midi": 35,
      "hit": false,
      "t": 95289.83635416748,
      "d": 111.11100000000442,
      "v": 115
    },
    {
      "midi": 69,
      "hit": false,
      "t": 95289.83635416748,
      "d": 119.04750000000058,
      "v": 100
    },
    {
      "midi": 70,
      "hit": false,
      "t": 95289.83635416748,
      "d": 119.04750000000058,
      "v": 100
    },
    {
      "midi": 54,
      "hit": false,
      "t": 95289.83635416748,
      "d": 119.04750000000058,
      "v": 100
    },
    {
      "midi": 42,
      "hit": false,
      "t": 95289.83635416748,
      "d": 119.04750000000058,
      "v": 115
    },
    {
      "midi": 74,
      "hit": false,
      "t": 95289.83635416748,
      "d": 236.1108749999985,
      "v": 47
    },
    {
      "midi": 78,
      "hit": false,
      "t": 95289.83635416748,
      "d": 1134.9195000000327,
      "v": 39
    },
    {
      "midi": 66,
      "hit": false,
      "t": 95289.83635416748,
      "d": 1206.3480000000418,
      "v": 42
    },
    {
      "midi": 53,
      "hit": false,
      "t": 95527.93135416748,
      "d": 23.809500000003027,
      "v": 52
    },
    {
      "midi": 35,
      "hit": false,
      "t": 95527.93135416748,
      "d": 87.3015000000014,
      "v": 100
    },
    {
      "midi": 47,
      "hit": false,
      "t": 95527.93135416748,
      "d": 103.17450000000827,
      "v": 107
    },
    {
      "midi": 69,
      "hit": false,
      "t": 95527.93135416748,
      "d": 119.04750000001513,
      "v": 60
    },
    {
      "midi": 42,
      "hit": false,
      "t": 95527.93135416748,
      "d": 119.04750000001513,
      "v": 70
    },
    {
      "midi": 54,
      "hit": false,
      "t": 95527.93135416748,
      "d": 134.920500000022,
      "v": 98
    },
    {
      "midi": 73,
      "hit": false,
      "t": 95527.93135416748,
      "d": 236.1108750000276,
      "v": 127
    },
    {
      "midi": 35,
      "hit": false,
      "t": 95766.02635416751,
      "d": 91.26975000000675,
      "v": 110
    },
    {
      "midi": 69,
      "hit": false,
      "t": 95766.02635416751,
      "d": 119.04750000000058,
      "v": 100
    },
    {
      "midi": 70,
      "hit": false,
      "t": 95766.02635416751,
      "d": 119.04750000000058,
      "v": 100
    },
    {
      "midi": 54,
      "hit": false,
      "t": 95766.02635416751,
      "d": 119.04750000000058,
      "v": 127
    },
    {
      "midi": 42,
      "hit": false,
      "t": 95766.02635416751,
      "d": 119.04750000000058,
      "v": 100
    },
    {
      "midi": 38,
      "hit": false,
      "t": 95766.02635416751,
      "d": 119.04750000000058,
      "v": 115
    },
    {
      "midi": 71,
      "hit": false,
      "t": 95766.02635416751,
      "d": 236.1108749999985,
      "v": 127
    },
    {
      "midi": 69,
      "hit": false,
      "t": 96004.12135416751,
      "d": 119.04750000000058,
      "v": 60
    },
    {
      "midi": 42,
      "hit": false,
      "t": 96004.12135416751,
      "d": 119.04750000000058,
      "v": 90
    },
    {
      "midi": 35,
      "hit": false,
      "t": 96004.12135416751,
      "d": 119.04750000000058,
      "v": 100
    },
    {
      "midi": 73,
      "hit": false,
      "t": 96004.12135416751,
      "d": 236.1108749999985,
      "v": 127
    },
    {
      "midi": 35,
      "hit": false,
      "t": 96242.21635416751,
      "d": 47.619000000006054,
      "v": 115
    },
    {
      "midi": 69,
      "hit": false,
      "t": 96242.21635416751,
      "d": 119.04750000000058,
      "v": 100
    },
    {
      "midi": 70,
      "hit": false,
      "t": 96242.21635416751,
      "d": 119.04750000000058,
      "v": 100
    },
    {
      "midi": 54,
      "hit": false,
      "t": 96242.21635416751,
      "d": 119.04750000000058,
      "v": 100
    },
    {
      "midi": 42,
      "hit": false,
      "t": 96242.21635416751,
      "d": 119.04750000000058,
      "v": 115
    },
    {
      "midi": 74,
      "hit": false,
      "t": 96242.21635416751,
      "d": 170.63474999999744,
      "v": 127
    },
    {
      "midi": 35,
      "hit": false,
      "t": 96480.31135416751,
      "d": 91.26975000000675,
      "v": 90
    },
    {
      "midi": 73,
      "hit": false,
      "t": 96480.31135416751,
      "d": 117.06337500001246,
      "v": 127
    },
    {
      "midi": 69,
      "hit": false,
      "t": 96480.31135416751,
      "d": 119.04750000001513,
      "v": 60
    },
    {
      "midi": 42,
      "hit": false,
      "t": 96480.31135416751,
      "d": 119.04750000001513,
      "v": 90
    },
    {
      "midi": 47,
      "hit": false,
      "t": 96496.18435416752,
      "d": 253.96800000000803,
      "v": 59
    },
    {
      "midi": 71,
      "hit": false,
      "t": 96599.35885416753,
      "d": 117.0633749999979,
      "v": 127
    },
    {
      "midi": 69,
      "hit": false,
      "t": 96718.40635416753,
      "d": 119.04750000000058,
      "v": 100
    },
    {
      "midi": 70,
      "hit": false,
      "t": 96718.40635416753,
      "d": 119.04750000000058,
      "v": 100
    },
    {
      "midi": 54,
      "hit": false,
      "t": 96718.40635416753,
      "d": 119.04750000000058,
      "v": 127
    },
    {
      "midi": 42,
      "hit": false,
      "t": 96718.40635416753,
      "d": 119.04750000000058,
      "v": 115
    },
    {
      "midi": 38,
      "hit": false,
      "t": 96718.40635416753,
      "d": 119.04750000000058,
      "v": 115
    },
    {
      "midi": 35,
      "hit": false,
      "t": 96718.40635416753,
      "d": 130.9522500000021,
      "v": 122
    },
    {
      "midi": 74,
      "hit": false,
      "t": 96718.40635416753,
      "d": 182.53949999999895,
      "v": 74
    },
    {
      "midi": 71,
      "hit": false,
      "t": 96718.40635416753,
      "d": 202.38074999999662,
      "v": 74
    },
    {
      "midi": 78,
      "hit": false,
      "t": 96718.40635416753,
      "d": 202.38074999999662,
      "v": 65
    },
    {
      "midi": 66,
      "hit": false,
      "t": 96718.40635416753,
      "d": 214.28549999999814,
      "v": 51
    },
    {
      "midi": 35,
      "hit": false,
      "t": 96956.50135416753,
      "d": 55.55549999998766,
      "v": 100
    },
    {
      "midi": 71,
      "hit": false,
      "t": 96956.50135416753,
      "d": 117.06337499998335,
      "v": 127
    },
    {
      "midi": 69,
      "hit": false,
      "t": 96956.50135416753,
      "d": 119.04749999998603,
      "v": 60
    },
    {
      "midi": 42,
      "hit": false,
      "t": 96956.50135416753,
      "d": 119.04749999998603,
      "v": 90
    },
    {
      "midi": 23,
      "hit": false,
      "t": 97075.54885416751,
      "d": 67.46025000000373,
      "v": 85
    },
    {
      "midi": 71,
      "hit": false,
      "t": 97075.54885416751,
      "d": 117.0633749999979,
      "v": 127
    },
    {
      "midi": 46,
      "hit": false,
      "t": 97075.54885416751,
      "d": 119.04750000000058,
      "v": 100
    },
    {
      "midi": 35,
      "hit": false,
      "t": 97194.59635416752,
      "d": 107.14274999999907,
      "v": 115
    },
    {
      "midi": 69,
      "hit": false,
      "t": 97194.59635416752,
      "d": 119.04750000000058,
      "v": 100
    },
    {
      "midi": 70,
      "hit": false,
      "t": 97194.59635416752,
      "d": 119.04750000000058,
      "v": 100
    },
    {
      "midi": 54,
      "hit": false,
      "t": 97194.59635416752,
      "d": 119.04750000000058,
      "v": 100
    },
    {
      "midi": 42,
      "hit": false,
      "t": 97194.59635416752,
      "d": 119.04750000000058,
      "v": 115
    },
    {
      "midi": 73,
      "hit": false,
      "t": 97194.59635416752,
      "d": 355.15837499999907,
      "v": 41
    },
    {
      "midi": 76,
      "hit": false,
      "t": 97194.59635416752,
      "d": 1115.0782500000205,
      "v": 43
    },
    {
      "midi": 64,
      "hit": false,
      "t": 97194.59635416752,
      "d": 1896.8235000000714,
      "v": 43
    },
    {
      "midi": 69,
      "hit": false,
      "t": 97432.69135416752,
      "d": 119.04750000000058,
      "v": 60
    },
    {
      "midi": 42,
      "hit": false,
      "t": 97432.69135416752,
      "d": 119.04750000000058,
      "v": 90
    },
    {
      "midi": 35,
      "hit": false,
      "t": 97432.69135416752,
      "d": 119.04750000000058,
      "v": 100
    },
    {
      "midi": 47,
      "hit": false,
      "t": 97432.69135416752,
      "d": 130.9522500000021,
      "v": 107
    },
    {
      "midi": 52,
      "hit": false,
      "t": 97432.69135416752,
      "d": 158.72999999999593,
      "v": 100
    },
    {
      "midi": 71,
      "hit": false,
      "t": 97551.73885416752,
      "d": 355.1583750000136,
      "v": 127
    },
    {
      "midi": 69,
      "hit": false,
      "t": 97670.78635416752,
      "d": 119.04750000000058,
      "v": 100
    },
    {
      "midi": 70,
      "hit": false,
      "t": 97670.78635416752,
      "d": 119.04750000000058,
      "v": 100
    },
    {
      "midi": 54,
      "hit": false,
      "t": 97670.78635416752,
      "d": 119.04750000000058,
      "v": 127
    },
    {
      "midi": 42,
      "hit": false,
      "t": 97670.78635416752,
      "d": 119.04750000000058,
      "v": 115
    },
    {
      "midi": 38,
      "hit": false,
      "t": 97670.78635416752,
      "d": 119.04750000000058,
      "v": 115
    },
    {
      "midi": 35,
      "hit": false,
      "t": 97670.78635416752,
      "d": 134.92050000000745,
      "v": 119
    },
    {
      "midi": 69,
      "hit": false,
      "t": 97908.88135416753,
      "d": 119.04750000000058,
      "v": 60
    },
    {
      "midi": 46,
      "hit": false,
      "t": 97908.88135416753,
      "d": 119.04750000000058,
      "v": 100
    },
    {
      "midi": 35,
      "hit": false,
      "t": 97908.88135416753,
      "d": 119.04750000000058,
      "v": 90
    },
    {
      "midi": 23,
      "hit": false,
      "t": 98027.92885416753,
      "d": 63.49199999999837,
      "v": 93
    },
    {
      "midi": 35,
      "hit": false,
      "t": 98146.97635416753,
      "d": 75.39674999999988,
      "v": 115
    },
    {
      "midi": 69,
      "hit": false,
      "t": 98146.97635416753,
      "d": 119.04750000000058,
      "v": 100
    },
    {
      "midi": 70,
      "hit": false,
      "t": 98146.97635416753,
      "d": 119.04750000000058,
      "v": 100
    },
    {
      "midi": 54,
      "hit": false,
      "t": 98146.97635416753,
      "d": 119.04750000000058,
      "v": 100
    },
    {
      "midi": 42,
      "hit": false,
      "t": 98146.97635416753,
      "d": 119.04750000000058,
      "v": 115
    },
    {
      "midi": 47,
      "hit": false,
      "t": 98146.97635416753,
      "d": 309.52350000001024,
      "v": 110
    },
    {
      "midi": 52,
      "hit": false,
      "t": 98146.97635416753,
      "d": 476.1900000000169,
      "v": 105
    },
    {
      "midi": 35,
      "hit": false,
      "t": 98385.07135416754,
      "d": 83.3332500000106,
      "v": 90
    },
    {
      "midi": 69,
      "hit": false,
      "t": 98385.07135416754,
      "d": 119.04750000001513,
      "v": 60
    },
    {
      "midi": 42,
      "hit": false,
      "t": 98385.07135416754,
      "d": 119.04750000001513,
      "v": 100
    },
    {
      "midi": 76,
      "hit": false,
      "t": 98389.03960416754,
      "d": 234.12675000001036,
      "v": 66
    },
    {
      "midi": 73,
      "hit": false,
      "t": 98531.89660416754,
      "d": 186.5077500000043,
      "v": 64
    },
    {
      "midi": 52,
      "hit": false,
      "t": 98623.16635416755,
      "d": 31.745999999999185,
      "v": 38
    },
    {
      "midi": 69,
      "hit": false,
      "t": 98623.16635416755,
      "d": 119.04750000000058,
      "v": 100
    },
    {
      "midi": 70,
      "hit": false,
      "t": 98623.16635416755,
      "d": 119.04750000000058,
      "v": 100
    },
    {
      "midi": 54,
      "hit": false,
      "t": 98623.16635416755,
      "d": 119.04750000000058,
      "v": 127
    },
    {
      "midi": 42,
      "hit": false,
      "t": 98623.16635416755,
      "d": 119.04750000000058,
      "v": 115
    },
    {
      "midi": 38,
      "hit": false,
      "t": 98623.16635416755,
      "d": 119.04750000000058,
      "v": 115
    },
    {
      "midi": 35,
      "hit": false,
      "t": 98623.16635416755,
      "d": 174.6030000000028,
      "v": 113
    },
    {
      "midi": 47,
      "hit": false,
      "t": 98623.16635416755,
      "d": 436.50750000002154,
      "v": 100
    },
    {
      "midi": 76,
      "hit": false,
      "t": 98742.21385416755,
      "d": 238.09500000001572,
      "v": 72
    },
    {
      "midi": 42,
      "hit": false,
      "t": 98861.26135416757,
      "d": 75.39674999999988,
      "v": 100
    },
    {
      "midi": 35,
      "hit": false,
      "t": 98861.26135416757,
      "d": 119.04750000000058,
      "v": 100
    },
    {
      "midi": 52,
      "hit": false,
      "t": 98861.26135416757,
      "d": 130.9522500000021,
      "v": 100
    },
    {
      "midi": 73,
      "hit": false,
      "t": 98861.26135416757,
      "d": 154.76175000000512,
      "v": 59
    },
    {
      "midi": 69,
      "hit": false,
      "t": 98980.30885416757,
      "d": 0,
      "v": 64
    },
    {
      "midi": 35,
      "hit": false,
      "t": 99099.35635416758,
      "d": 111.11100000000442,
      "v": 115
    },
    {
      "midi": 69,
      "hit": false,
      "t": 99099.35635416758,
      "d": 119.04750000000058,
      "v": 100
    },
    {
      "midi": 70,
      "hit": false,
      "t": 99099.35635416758,
      "d": 119.04750000000058,
      "v": 100
    },
    {
      "midi": 54,
      "hit": false,
      "t": 99099.35635416758,
      "d": 119.04750000000058,
      "v": 100
    },
    {
      "midi": 42,
      "hit": false,
      "t": 99099.35635416758,
      "d": 119.04750000000058,
      "v": 115
    },
    {
      "midi": 71,
      "hit": false,
      "t": 99099.35635416758,
      "d": 236.1108749999985,
      "v": 47
    },
    {
      "midi": 79,
      "hit": false,
      "t": 99099.35635416758,
      "d": 1761.9030000000057,
      "v": 60
    },
    {
      "midi": 83,
      "hit": false,
      "t": 99099.35635416758,
      "d": 1781.7442500000034,
      "v": 57
    },
    {
      "midi": 35,
      "hit": false,
      "t": 99337.45135416758,
      "d": 87.3015000000014,
      "v": 100
    },
    {
      "midi": 69,
      "hit": false,
      "t": 99337.45135416758,
      "d": 119.04750000000058,
      "v": 60
    },
    {
      "midi": 42,
      "hit": false,
      "t": 99337.45135416758,
      "d": 119.04750000000058,
      "v": 90
    },
    {
      "midi": 50,
      "hit": false,
      "t": 99337.45135416758,
      "d": 182.53949999999895,
      "v": 107
    },
    {
      "midi": 35,
      "hit": false,
      "t": 99575.54635416759,
      "d": 91.26975000000675,
      "v": 110
    },
    {
      "midi": 69,
      "hit": false,
      "t": 99575.54635416759,
      "d": 119.04750000000058,
      "v": 100
    },
    {
      "midi": 70,
      "hit": false,
      "t": 99575.54635416759,
      "d": 119.04750000000058,
      "v": 100
    },
    {
      "midi": 54,
      "hit": false,
      "t": 99575.54635416759,
      "d": 119.04750000000058,
      "v": 127
    },
    {
      "midi": 42,
      "hit": false,
      "t": 99575.54635416759,
      "d": 119.04750000000058,
      "v": 115
    },
    {
      "midi": 38,
      "hit": false,
      "t": 99575.54635416759,
      "d": 119.04750000000058,
      "v": 115
    },
    {
      "midi": 71,
      "hit": false,
      "t": 99575.54635416759,
      "d": 236.1108749999985,
      "v": 127
    },
    {
      "midi": 69,
      "hit": false,
      "t": 99813.64135416759,
      "d": 119.04750000000058,
      "v": 60
    },
    {
      "midi": 46,
      "hit": false,
      "t": 99813.64135416759,
      "d": 119.04750000000058,
      "v": 100
    },
    {
      "midi": 35,
      "hit": false,
      "t": 99813.64135416759,
      "d": 119.04750000000058,
      "v": 90
    },
    {
      "midi": 35,
      "hit": false,
      "t": 100051.73635416759,
      "d": 107.14274999999907,
      "v": 115
    },
    {
      "midi": 69,
      "hit": false,
      "t": 100051.73635416759,
      "d": 119.04750000000058,
      "v": 100
    },
    {
      "midi": 70,
      "hit": false,
      "t": 100051.73635416759,
      "d": 119.04750000000058,
      "v": 100
    },
    {
      "midi": 54,
      "hit": false,
      "t": 100051.73635416759,
      "d": 119.04750000000058,
      "v": 100
    },
    {
      "midi": 42,
      "hit": false,
      "t": 100051.73635416759,
      "d": 119.04750000000058,
      "v": 115
    },
    {
      "midi": 74,
      "hit": false,
      "t": 100051.73635416759,
      "d": 236.1108749999985,
      "v": 127
    },
    {
      "midi": 50,
      "hit": false,
      "t": 100051.73635416759,
      "d": 801.5865000000049,
      "v": 110
    },
    {
      "midi": 35,
      "hit": false,
      "t": 100289.83135416759,
      "d": 91.26975000000675,
      "v": 90
    },
    {
      "midi": 69,
      "hit": false,
      "t": 100289.83135416759,
      "d": 119.04750000000058,
      "v": 60
    },
    {
      "midi": 42,
      "hit": false,
      "t": 100289.83135416759,
      "d": 119.04750000000058,
      "v": 100
    },
    {
      "midi": 73,
      "hit": false,
      "t": 100289.83135416759,
      "d": 236.1108749999985,
      "v": 127
    },
    {
      "midi": 69,
      "hit": false,
      "t": 100527.92635416759,
      "d": 119.04750000000058,
      "v": 100
    },
    {
      "midi": 70,
      "hit": false,
      "t": 100527.92635416759,
      "d": 119.04750000000058,
      "v": 100
    },
    {
      "midi": 54,
      "hit": false,
      "t": 100527.92635416759,
      "d": 119.04750000000058,
      "v": 127
    },
    {
      "midi": 42,
      "hit": false,
      "t": 100527.92635416759,
      "d": 119.04750000000058,
      "v": 115
    },
    {
      "midi": 38,
      "hit": false,
      "t": 100527.92635416759,
      "d": 119.04750000000058,
      "v": 115
    },
    {
      "midi": 35,
      "hit": false,
      "t": 100527.92635416759,
      "d": 130.9522500000021,
      "v": 122
    },
    {
      "midi": 71,
      "hit": false,
      "t": 100527.92635416759,
      "d": 236.1108749999985,
      "v": 127
    },
    {
      "midi": 35,
      "hit": false,
      "t": 100766.02135416759,
      "d": 55.55550000000221,
      "v": 100
    },
    {
      "midi": 69,
      "hit": false,
      "t": 100766.02135416759,
      "d": 119.04750000000058,
      "v": 60
    },
    {
      "midi": 42,
      "hit": false,
      "t": 100766.02135416759,
      "d": 119.04750000000058,
      "v": 100
    },
    {
      "midi": 23,
      "hit": false,
      "t": 100885.06885416759,
      "d": 67.46025000000373,
      "v": 85
    },
    {
      "midi": 35,
      "hit": false,
      "t": 101004.11635416759,
      "d": 99.20625000000291,
      "v": 115
    },
    {
      "midi": 69,
      "hit": false,
      "t": 101004.11635416759,
      "d": 119.04750000000058,
      "v": 100
    },
    {
      "midi": 70,
      "hit": false,
      "t": 101004.11635416759,
      "d": 119.04750000000058,
      "v": 100
    },
    {
      "midi": 54,
      "hit": false,
      "t": 101004.11635416759,
      "d": 119.04750000000058,
      "v": 100
    },
    {
      "midi": 42,
      "hit": false,
      "t": 101004.11635416759,
      "d": 119.04750000000058,
      "v": 115
    },
    {
      "midi": 66,
      "hit": false,
      "t": 101004.11635416759,
      "d": 712.3008750000154,
      "v": 127
    },
    {
      "midi": 76,
      "hit": false,
      "t": 101004.11635416759,
      "d": 1115.0782500000205,
      "v": 43
    },
    {
      "midi": 73,
      "hit": false,
      "t": 101004.11635416759,
      "d": 1194.4432500000257,
      "v": 41
    },
    {
      "midi": 64,
      "hit": false,
      "t": 101004.11635416759,
      "d": 1896.8235000000423,
      "v": 43
    },
    {
      "midi": 69,
      "hit": false,
      "t": 101242.2113541676,
      "d": 119.04750000000058,
      "v": 60
    },
    {
      "midi": 42,
      "hit": false,
      "t": 101242.2113541676,
      "d": 119.04750000000058,
      "v": 100
    },
    {
      "midi": 35,
      "hit": false,
      "t": 101242.2113541676,
      "d": 119.04750000000058,
      "v": 100
    },
    {
      "midi": 52,
      "hit": false,
      "t": 101242.2113541676,
      "d": 154.76175000000512,
      "v": 91
    },
    {
      "midi": 47,
      "hit": false,
      "t": 101242.2113541676,
      "d": 166.66650000000664,
      "v": 93
    },
    {
      "midi": 69,
      "hit": false,
      "t": 101480.3063541676,
      "d": 119.04750000000058,
      "v": 100
    },
    {
      "midi": 70,
      "hit": false,
      "t": 101480.3063541676,
      "d": 119.04750000000058,
      "v": 100
    },
    {
      "midi": 54,
      "hit": false,
      "t": 101480.3063541676,
      "d": 119.04750000000058,
      "v": 127
    },
    {
      "midi": 42,
      "hit": false,
      "t": 101480.3063541676,
      "d": 119.04750000000058,
      "v": 115
    },
    {
      "midi": 38,
      "hit": false,
      "t": 101480.3063541676,
      "d": 119.04750000000058,
      "v": 115
    },
    {
      "midi": 35,
      "hit": false,
      "t": 101480.3063541676,
      "d": 123.01575000000594,
      "v": 119
    },
    {
      "midi": 69,
      "hit": false,
      "t": 101718.40135416761,
      "d": 119.04750000000058,
      "v": 60
    },
    {
      "midi": 42,
      "hit": false,
      "t": 101718.40135416761,
      "d": 119.04750000000058,
      "v": 100
    },
    {
      "midi": 35,
      "hit": false,
      "t": 101718.40135416761,
      "d": 119.04750000000058,
      "v": 100
    },
    {
      "midi": 38,
      "hit": false,
      "t": 101837.44885416761,
      "d": 119.04750000000058,
      "v": 60
    },
    {
      "midi": 35,
      "hit": false,
      "t": 101956.49635416761,
      "d": 99.20625000000291,
      "v": 115
    },
    {
      "midi": 69,
      "hit": false,
      "t": 101956.49635416761,
      "d": 119.04750000000058,
      "v": 100
    },
    {
      "midi": 70,
      "hit": false,
      "t": 101956.49635416761,
      "d": 119.04750000000058,
      "v": 100
    },
    {
      "midi": 54,
      "hit": false,
      "t": 101956.49635416761,
      "d": 119.04750000000058,
      "v": 100
    },
    {
      "midi": 42,
      "hit": false,
      "t": 101956.49635416761,
      "d": 119.04750000000058,
      "v": 115
    },
    {
      "midi": 47,
      "hit": false,
      "t": 101956.49635416761,
      "d": 313.49175000000105,
      "v": 107
    },
    {
      "midi": 66,
      "hit": false,
      "t": 101956.49635416761,
      "d": 474.20587499999965,
      "v": 127
    },
    {
      "midi": 57,
      "hit": false,
      "t": 101956.49635416761,
      "d": 734.1262500000012,
      "v": 100
    },
    {
      "midi": 35,
      "hit": false,
      "t": 102194.59135416761,
      "d": 95.23799999999756,
      "v": 90
    },
    {
      "midi": 69,
      "hit": false,
      "t": 102194.59135416761,
      "d": 119.04750000000058,
      "v": 60
    },
    {
      "midi": 42,
      "hit": false,
      "t": 102194.59135416761,
      "d": 119.04750000000058,
      "v": 90
    },
    {
      "midi": 52,
      "hit": false,
      "t": 102194.59135416761,
      "d": 321.4282499999972,
      "v": 89
    },
    {
      "midi": 76,
      "hit": false,
      "t": 102198.55960416762,
      "d": 234.1267499999958,
      "v": 66
    },
    {
      "midi": 73,
      "hit": false,
      "t": 102341.4166041676,
      "d": 186.5077500000043,
      "v": 64
    },
    {
      "midi": 69,
      "hit": false,
      "t": 102432.68635416761,
      "d": 119.04750000000058,
      "v": 100
    },
    {
      "midi": 70,
      "hit": false,
      "t": 102432.68635416761,
      "d": 119.04750000000058,
      "v": 100
    },
    {
      "midi": 54,
      "hit": false,
      "t": 102432.68635416761,
      "d": 119.04750000000058,
      "v": 127
    },
    {
      "midi": 42,
      "hit": false,
      "t": 102432.68635416761,
      "d": 119.04750000000058,
      "v": 115
    },
    {
      "midi": 38,
      "hit": false,
      "t": 102432.68635416761,
      "d": 119.04750000000058,
      "v": 115
    },
    {
      "midi": 35,
      "hit": false,
      "t": 102432.68635416761,
      "d": 238.09500000000116,
      "v": 105
    },
    {
      "midi": 47,
      "hit": false,
      "t": 102432.68635416761,
      "d": 456.3487500000192,
      "v": 102
    },
    {
      "midi": 76,
      "hit": false,
      "t": 102551.73385416761,
      "d": 238.09500000000116,
      "v": 72
    },
    {
      "midi": 34,
      "hit": false,
      "t": 102670.78135416762,
      "d": 91.2697499999922,
      "v": 89
    },
    {
      "midi": 66,
      "hit": false,
      "t": 102670.78135416762,
      "d": 117.0633749999979,
      "v": 127
    },
    {
      "midi": 42,
      "hit": false,
      "t": 102670.78135416762,
      "d": 119.04750000000058,
      "v": 90
    },
    {
      "midi": 35,
      "hit": false,
      "t": 102670.78135416762,
      "d": 119.04750000000058,
      "v": 100
    },
    {
      "midi": 73,
      "hit": false,
      "t": 102670.78135416762,
      "d": 154.76175000000512,
      "v": 59
    },
    {
      "midi": 52,
      "hit": false,
      "t": 102670.78135416762,
      "d": 178.57125000000815,
      "v": 98
    },
    {
      "midi": 69,
      "hit": false,
      "t": 102789.82885416762,
      "d": 0,
      "v": 64
    },
    {
      "midi": 66,
      "hit": false,
      "t": 102789.82885416762,
      "d": 117.06337500001246,
      "v": 127
    },
    {
      "midi": 35,
      "hit": false,
      "t": 102789.82885416762,
      "d": 119.04750000001513,
      "v": 90
    },
    {
      "midi": 35,
      "hit": false,
      "t": 102908.87635416763,
      "d": 111.11100000000442,
      "v": 115
    },
    {
      "midi": 69,
      "hit": false,
      "t": 102908.87635416763,
      "d": 119.04750000000058,
      "v": 100
    },
    {
      "midi": 70,
      "hit": false,
      "t": 102908.87635416763,
      "d": 119.04750000000058,
      "v": 100
    },
    {
      "midi": 54,
      "hit": false,
      "t": 102908.87635416763,
      "d": 119.04750000000058,
      "v": 100
    },
    {
      "midi": 42,
      "hit": false,
      "t": 102908.87635416763,
      "d": 119.04750000000058,
      "v": 115
    },
    {
      "midi": 74,
      "hit": false,
      "t": 102908.87635416763,
      "d": 236.1108749999985,
      "v": 47
    },
    {
      "midi": 78,
      "hit": false,
      "t": 102908.87635416763,
      "d": 1134.9195000000182,
      "v": 39
    },
    {
      "midi": 66,
      "hit": false,
      "t": 102908.87635416763,
      "d": 1206.3480000000272,
      "v": 42
    },
    {
      "midi": 69,
      "hit": false,
      "t": 103146.97135416763,
      "d": 119.04750000000058,
      "v": 60
    },
    {
      "midi": 42,
      "hit": false,
      "t": 103146.97135416763,
      "d": 119.04750000000058,
      "v": 70
    },
    {
      "midi": 35,
      "hit": false,
      "t": 103146.97135416763,
      "d": 119.04750000000058,
      "v": 100
    },
    {
      "midi": 54,
      "hit": false,
      "t": 103146.97135416763,
      "d": 182.5395000000135,
      "v": 107
    },
    {
      "midi": 47,
      "hit": false,
      "t": 103146.97135416763,
      "d": 194.44425000001502,
      "v": 110
    },
    {
      "midi": 73,
      "hit": false,
      "t": 103146.97135416763,
      "d": 236.11087500001304,
      "v": 127
    },
    {
      "midi": 35,
      "hit": false,
      "t": 103385.06635416765,
      "d": 79.36500000000524,
      "v": 107
    },
    {
      "midi": 69,
      "hit": false,
      "t": 103385.06635416765,
      "d": 119.04750000000058,
      "v": 100
    },
    {
      "midi": 70,
      "hit": false,
      "t": 103385.06635416765,
      "d": 119.04750000000058,
      "v": 100
    },
    {
      "midi": 54,
      "hit": false,
      "t": 103385.06635416765,
      "d": 119.04750000000058,
      "v": 127
    },
    {
      "midi": 42,
      "hit": false,
      "t": 103385.06635416765,
      "d": 119.04750000000058,
      "v": 100
    },
    {
      "midi": 38,
      "hit": false,
      "t": 103385.06635416765,
      "d": 119.04750000000058,
      "v": 115
    },
    {
      "midi": 71,
      "hit": false,
      "t": 103385.06635416765,
      "d": 236.1108749999985,
      "v": 127
    },
    {
      "midi": 69,
      "hit": false,
      "t": 103623.16135416765,
      "d": 119.04750000000058,
      "v": 60
    },
    {
      "midi": 42,
      "hit": false,
      "t": 103623.16135416765,
      "d": 119.04750000000058,
      "v": 90
    },
    {
      "midi": 35,
      "hit": false,
      "t": 103623.16135416765,
      "d": 119.04750000000058,
      "v": 100
    },
    {
      "midi": 73,
      "hit": false,
      "t": 103623.16135416765,
      "d": 236.1108749999985,
      "v": 127
    },
    {
      "midi": 69,
      "hit": false,
      "t": 103861.25635416765,
      "d": 119.04750000000058,
      "v": 100
    },
    {
      "midi": 70,
      "hit": false,
      "t": 103861.25635416765,
      "d": 119.04750000000058,
      "v": 100
    },
    {
      "midi": 54,
      "hit": false,
      "t": 103861.25635416765,
      "d": 119.04750000000058,
      "v": 100
    },
    {
      "midi": 42,
      "hit": false,
      "t": 103861.25635416765,
      "d": 119.04750000000058,
      "v": 115
    },
    {
      "midi": 35,
      "hit": false,
      "t": 103861.25635416765,
      "d": 119.04750000000058,
      "v": 115
    },
    {
      "midi": 74,
      "hit": false,
      "t": 103861.25635416765,
      "d": 170.63474999999744,
      "v": 127
    },
    {
      "midi": 73,
      "hit": false,
      "t": 104099.35135416765,
      "d": 117.06337500001246,
      "v": 127
    },
    {
      "midi": 69,
      "hit": false,
      "t": 104099.35135416765,
      "d": 119.04750000001513,
      "v": 60
    },
    {
      "midi": 42,
      "hit": false,
      "t": 104099.35135416765,
      "d": 119.04750000001513,
      "v": 90
    },
    {
      "midi": 35,
      "hit": false,
      "t": 104099.35135416765,
      "d": 119.04750000001513,
      "v": 90
    },
    {
      "midi": 47,
      "hit": false,
      "t": 104115.22435416766,
      "d": 253.96800000000803,
      "v": 59
    },
    {
      "midi": 23,
      "hit": false,
      "t": 104218.39885416767,
      "d": 99.20625000000291,
      "v": 72
    },
    {
      "midi": 35,
      "hit": false,
      "t": 104337.44635416767,
      "d": 111.11100000000442,
      "v": 127
    },
    {
      "midi": 69,
      "hit": false,
      "t": 104337.44635416767,
      "d": 119.04750000000058,
      "v": 100
    },
    {
      "midi": 70,
      "hit": false,
      "t": 104337.44635416767,
      "d": 119.04750000000058,
      "v": 100
    },
    {
      "midi": 54,
      "hit": false,
      "t": 104337.44635416767,
      "d": 119.04750000000058,
      "v": 127
    },
    {
      "midi": 42,
      "hit": false,
      "t": 104337.44635416767,
      "d": 119.04750000000058,
      "v": 115
    },
    {
      "midi": 38,
      "hit": false,
      "t": 104337.44635416767,
      "d": 119.04750000000058,
      "v": 115
    },
    {
      "midi": 74,
      "hit": false,
      "t": 104337.44635416767,
      "d": 182.53949999999895,
      "v": 74
    },
    {
      "midi": 71,
      "hit": false,
      "t": 104337.44635416767,
      "d": 202.38074999999662,
      "v": 74
    },
    {
      "midi": 78,
      "hit": false,
      "t": 104337.44635416767,
      "d": 202.38074999999662,
      "v": 65
    },
    {
      "midi": 66,
      "hit": false,
      "t": 104337.44635416767,
      "d": 214.28549999999814,
      "v": 51
    },
    {
      "midi": 23,
      "hit": false,
      "t": 104456.49385416767,
      "d": 95.23799999999756,
      "v": 76
    },
    {
      "midi": 35,
      "hit": false,
      "t": 104575.54135416767,
      "d": 103.17450000000827,
      "v": 100
    },
    {
      "midi": 69,
      "hit": false,
      "t": 104575.54135416767,
      "d": 119.04750000001513,
      "v": 60
    },
    {
      "midi": 42,
      "hit": false,
      "t": 104575.54135416767,
      "d": 119.04750000001513,
      "v": 90
    },
    {
      "midi": 71,
      "hit": false,
      "t": 104575.54135416767,
      "d": 236.11087500001304,
      "v": 127
    },
    {
      "midi": 35,
      "hit": false,
      "t": 104694.58885416768,
      "d": 0,
      "v": 102
    },
    {
      "midi": 46,
      "hit": false,
      "t": 104694.58885416768,
      "d": 119.04750000000058,
      "v": 100
    },
    {
      "midi": 69,
      "hit": false,
      "t": 104813.63635416768,
      "d": 119.04750000000058,
      "v": 100
    },
    {
      "midi": 70,
      "hit": false,
      "t": 104813.63635416768,
      "d": 119.04750000000058,
      "v": 100
    },
    {
      "midi": 54,
      "hit": false,
      "t": 104813.63635416768,
      "d": 119.04750000000058,
      "v": 100
    },
    {
      "midi": 42,
      "hit": false,
      "t": 104813.63635416768,
      "d": 119.04750000000058,
      "v": 115
    },
    {
      "midi": 35,
      "hit": false,
      "t": 104813.63635416768,
      "d": 119.04750000000058,
      "v": 115
    },
    {
      "midi": 76,
      "hit": false,
      "t": 104813.63635416768,
      "d": 355.15837499999907,
      "v": 127
    },
    {
      "midi": 79,
      "hit": false,
      "t": 104813.63635416768,
      "d": 1123.014750000002,
      "v": 47
    },
    {
      "midi": 83,
      "hit": false,
      "t": 104813.63635416768,
      "d": 1134.9195000000036,
      "v": 39
    },
    {
      "midi": 71,
      "hit": false,
      "t": 104813.63635416768,
      "d": 1206.3479999999981,
      "v": 42
    },
    {
      "midi": 69,
      "hit": false,
      "t": 105051.73135416768,
      "d": 119.04750000000058,
      "v": 60
    },
    {
      "midi": 42,
      "hit": false,
      "t": 105051.73135416768,
      "d": 119.04750000000058,
      "v": 70
    },
    {
      "midi": 35,
      "hit": false,
      "t": 105051.73135416768,
      "d": 119.04750000000058,
      "v": 100
    },
    {
      "midi": 50,
      "hit": false,
      "t": 105051.73135416768,
      "d": 182.53949999999895,
      "v": 107
    },
    {
      "midi": 74,
      "hit": false,
      "t": 105170.77885416769,
      "d": 355.15837499999907,
      "v": 127
    },
    {
      "midi": 69,
      "hit": false,
      "t": 105289.82635416769,
      "d": 119.04750000000058,
      "v": 100
    },
    {
      "midi": 70,
      "hit": false,
      "t": 105289.82635416769,
      "d": 119.04750000000058,
      "v": 100
    },
    {
      "midi": 54,
      "hit": false,
      "t": 105289.82635416769,
      "d": 119.04750000000058,
      "v": 127
    },
    {
      "midi": 42,
      "hit": false,
      "t": 105289.82635416769,
      "d": 119.04750000000058,
      "v": 100
    },
    {
      "midi": 38,
      "hit": false,
      "t": 105289.82635416769,
      "d": 119.04750000000058,
      "v": 115
    },
    {
      "midi": 35,
      "hit": false,
      "t": 105289.82635416769,
      "d": 158.72999999999593,
      "v": 105
    },
    {
      "midi": 69,
      "hit": false,
      "t": 105527.92135416769,
      "d": 119.04750000000058,
      "v": 60
    },
    {
      "midi": 42,
      "hit": false,
      "t": 105527.92135416769,
      "d": 119.04750000000058,
      "v": 90
    },
    {
      "midi": 35,
      "hit": false,
      "t": 105527.92135416769,
      "d": 119.04750000000058,
      "v": 100
    },
    {
      "midi": 78,
      "hit": false,
      "t": 105527.92135416769,
      "d": 236.1108749999985,
      "v": 127
    },
    {
      "midi": 69,
      "hit": false,
      "t": 105766.01635416769,
      "d": 119.04750000000058,
      "v": 100
    },
    {
      "midi": 70,
      "hit": false,
      "t": 105766.01635416769,
      "d": 119.04750000000058,
      "v": 100
    },
    {
      "midi": 54,
      "hit": false,
      "t": 105766.01635416769,
      "d": 119.04750000000058,
      "v": 100
    },
    {
      "midi": 42,
      "hit": false,
      "t": 105766.01635416769,
      "d": 119.04750000000058,
      "v": 115
    },
    {
      "midi": 35,
      "hit": false,
      "t": 105766.01635416769,
      "d": 119.04750000000058,
      "v": 115
    },
    {
      "midi": 78,
      "hit": false,
      "t": 105766.01635416769,
      "d": 474.2058749999851,
      "v": 127
    },
    {
      "midi": 50,
      "hit": false,
      "t": 105766.01635416769,
      "d": 801.5864999999903,
      "v": 110
    },
    {
      "midi": 69,
      "hit": false,
      "t": 106004.11135416768,
      "d": 119.04750000000058,
      "v": 60
    },
    {
      "midi": 42,
      "hit": false,
      "t": 106004.11135416768,
      "d": 119.04750000000058,
      "v": 90
    },
    {
      "midi": 35,
      "hit": false,
      "t": 106019.98435416768,
      "d": 103.17449999999371,
      "v": 59
    },
    {
      "midi": 35,
      "hit": false,
      "t": 106242.20635416768,
      "d": 31.745999999999185,
      "v": 110
    },
    {
      "midi": 69,
      "hit": false,
      "t": 106242.20635416768,
      "d": 119.04750000000058,
      "v": 100
    },
    {
      "midi": 70,
      "hit": false,
      "t": 106242.20635416768,
      "d": 119.04750000000058,
      "v": 100
    },
    {
      "midi": 54,
      "hit": false,
      "t": 106242.20635416768,
      "d": 119.04750000000058,
      "v": 127
    },
    {
      "midi": 42,
      "hit": false,
      "t": 106242.20635416768,
      "d": 119.04750000000058,
      "v": 115
    },
    {
      "midi": 38,
      "hit": false,
      "t": 106242.20635416768,
      "d": 119.04750000000058,
      "v": 115
    },
    {
      "midi": 79,
      "hit": false,
      "t": 106242.20635416768,
      "d": 182.53949999999895,
      "v": 74
    },
    {
      "midi": 74,
      "hit": false,
      "t": 106242.20635416768,
      "d": 202.38074999999662,
      "v": 74
    },
    {
      "midi": 83,
      "hit": false,
      "t": 106242.20635416768,
      "d": 202.38074999999662,
      "v": 65
    },
    {
      "midi": 71,
      "hit": false,
      "t": 106242.20635416768,
      "d": 214.28549999999814,
      "v": 51
    },
    {
      "midi": 35,
      "hit": false,
      "t": 106480.30135416768,
      "d": 107.14274999999907,
      "v": 100
    },
    {
      "midi": 69,
      "hit": false,
      "t": 106480.30135416768,
      "d": 119.04750000000058,
      "v": 60
    },
    {
      "midi": 42,
      "hit": false,
      "t": 106480.30135416768,
      "d": 119.04750000000058,
      "v": 90
    },
    {
      "midi": 46,
      "hit": false,
      "t": 106599.34885416768,
      "d": 119.04750000000058,
      "v": 100
    },
    {
      "midi": 69,
      "hit": false,
      "t": 106718.39635416768,
      "d": 119.04750000000058,
      "v": 100
    },
    {
      "midi": 70,
      "hit": false,
      "t": 106718.39635416768,
      "d": 119.04750000000058,
      "v": 100
    },
    {
      "midi": 54,
      "hit": false,
      "t": 106718.39635416768,
      "d": 119.04750000000058,
      "v": 100
    },
    {
      "midi": 42,
      "hit": false,
      "t": 106718.39635416768,
      "d": 119.04750000000058,
      "v": 115
    },
    {
      "midi": 35,
      "hit": false,
      "t": 106718.39635416768,
      "d": 119.04750000000058,
      "v": 115
    },
    {
      "midi": 76,
      "hit": false,
      "t": 106718.39635416768,
      "d": 236.1108749999985,
      "v": 127
    },
    {
      "midi": 49,
      "hit": false,
      "t": 106956.49135416768,
      "d": 23.809500000003027,
      "v": 52
    },
    {
      "midi": 35,
      "hit": false,
      "t": 106956.49135416768,
      "d": 103.17450000000827,
      "v": 100
    },
    {
      "midi": 78,
      "hit": false,
      "t": 106956.49135416768,
      "d": 117.06337500001246,
      "v": 127
    },
    {
      "midi": 69,
      "hit": false,
      "t": 106956.49135416768,
      "d": 119.04750000001513,
      "v": 60
    },
    {
      "midi": 42,
      "hit": false,
      "t": 106956.49135416768,
      "d": 119.04750000001513,
      "v": 100
    },
    {
      "midi": 50,
      "hit": false,
      "t": 106956.49135416768,
      "d": 134.920500000022,
      "v": 98
    },
    {
      "midi": 71,
      "hit": false,
      "t": 107075.5388541677,
      "d": 117.06337500001246,
      "v": 127
    },
    {
      "midi": 69,
      "hit": false,
      "t": 107194.58635416771,
      "d": 119.04750000000058,
      "v": 100
    },
    {
      "midi": 70,
      "hit": false,
      "t": 107194.58635416771,
      "d": 119.04750000000058,
      "v": 100
    },
    {
      "midi": 54,
      "hit": false,
      "t": 107194.58635416771,
      "d": 119.04750000000058,
      "v": 127
    },
    {
      "midi": 42,
      "hit": false,
      "t": 107194.58635416771,
      "d": 119.04750000000058,
      "v": 115
    },
    {
      "midi": 38,
      "hit": false,
      "t": 107194.58635416771,
      "d": 119.04750000000058,
      "v": 115
    },
    {
      "midi": 35,
      "hit": false,
      "t": 107194.58635416771,
      "d": 142.8570000000036,
      "v": 113
    },
    {
      "midi": 74,
      "hit": false,
      "t": 107194.58635416771,
      "d": 1246.0305000000226,
      "v": 64
    },
    {
      "midi": 79,
      "hit": false,
      "t": 107313.63385416771,
      "d": 1126.983000000022,
      "v": 29
    },
    {
      "midi": 69,
      "hit": false,
      "t": 107432.68135416771,
      "d": 119.04750000000058,
      "v": 60
    },
    {
      "midi": 42,
      "hit": false,
      "t": 107432.68135416771,
      "d": 119.04750000000058,
      "v": 100
    },
    {
      "midi": 35,
      "hit": false,
      "t": 107432.68135416771,
      "d": 119.04750000000058,
      "v": 100
    },
    {
      "midi": 71,
      "hit": false,
      "t": 107432.68135416771,
      "d": 236.1108749999985,
      "v": 127
    },
    {
      "midi": 83,
      "hit": false,
      "t": 107432.68135416771,
      "d": 1007.9355000000214,
      "v": 70
    },
    {
      "midi": 35,
      "hit": false,
      "t": 107670.77635416771,
      "d": 47.619000000006054,
      "v": 115
    },
    {
      "midi": 69,
      "hit": false,
      "t": 107670.77635416771,
      "d": 119.04750000000058,
      "v": 100
    },
    {
      "midi": 70,
      "hit": false,
      "t": 107670.77635416771,
      "d": 119.04750000000058,
      "v": 100
    },
    {
      "midi": 54,
      "hit": false,
      "t": 107670.77635416771,
      "d": 119.04750000000058,
      "v": 100
    },
    {
      "midi": 42,
      "hit": false,
      "t": 107670.77635416771,
      "d": 119.04750000000058,
      "v": 115
    },
    {
      "midi": 76,
      "hit": false,
      "t": 107670.77635416771,
      "d": 236.11087500001304,
      "v": 127
    },
    {
      "midi": 50,
      "hit": false,
      "t": 107670.77635416771,
      "d": 734.1262500000157,
      "v": 110
    },
    {
      "midi": 78,
      "hit": false,
      "t": 107908.87135416773,
      "d": 117.0633749999979,
      "v": 127
    },
    {
      "midi": 69,
      "hit": false,
      "t": 107908.87135416773,
      "d": 119.04750000000058,
      "v": 60
    },
    {
      "midi": 42,
      "hit": false,
      "t": 107908.87135416773,
      "d": 119.04750000000058,
      "v": 100
    },
    {
      "midi": 35,
      "hit": false,
      "t": 107908.87135416773,
      "d": 119.04750000000058,
      "v": 100
    },
    {
      "midi": 71,
      "hit": false,
      "t": 108027.91885416773,
      "d": 117.0633749999979,
      "v": 127
    },
    {
      "midi": 69,
      "hit": false,
      "t": 108146.96635416773,
      "d": 119.04750000000058,
      "v": 100
    },
    {
      "midi": 70,
      "hit": false,
      "t": 108146.96635416773,
      "d": 119.04750000000058,
      "v": 100
    },
    {
      "midi": 54,
      "hit": false,
      "t": 108146.96635416773,
      "d": 119.04750000000058,
      "v": 127
    },
    {
      "midi": 42,
      "hit": false,
      "t": 108146.96635416773,
      "d": 119.04750000000058,
      "v": 115
    },
    {
      "midi": 38,
      "hit": false,
      "t": 108146.96635416773,
      "d": 119.04750000000058,
      "v": 115
    },
    {
      "midi": 35,
      "hit": false,
      "t": 108146.96635416773,
      "d": 134.92050000000745,
      "v": 105
    },
    {
      "midi": 71,
      "hit": false,
      "t": 108385.06135416773,
      "d": 55.55550000000221,
      "v": 127
    },
    {
      "midi": 69,
      "hit": false,
      "t": 108385.06135416773,
      "d": 119.04750000000058,
      "v": 60
    },
    {
      "midi": 42,
      "hit": false,
      "t": 108385.06135416773,
      "d": 119.04750000000058,
      "v": 80
    },
    {
      "midi": 35,
      "hit": false,
      "t": 108385.06135416773,
      "d": 119.04750000000058,
      "v": 100
    },
    {
      "midi": 71,
      "hit": false,
      "t": 108504.10885416773,
      "d": 117.0633749999979,
      "v": 127
    },
    {
      "midi": 69,
      "hit": false,
      "t": 108623.15635416773,
      "d": 119.04750000000058,
      "v": 100
    },
    {
      "midi": 70,
      "hit": false,
      "t": 108623.15635416773,
      "d": 119.04750000000058,
      "v": 100
    },
    {
      "midi": 54,
      "hit": false,
      "t": 108623.15635416773,
      "d": 119.04750000000058,
      "v": 100
    },
    {
      "midi": 42,
      "hit": false,
      "t": 108623.15635416773,
      "d": 119.04750000000058,
      "v": 115
    },
    {
      "midi": 35,
      "hit": false,
      "t": 108623.15635416773,
      "d": 119.04750000000058,
      "v": 115
    },
    {
      "midi": 33,
      "hit": false,
      "t": 108623.15635416773,
      "d": 150.79349999999977,
      "v": 105
    },
    {
      "midi": 45,
      "hit": false,
      "t": 108623.15635416773,
      "d": 722.2214999999997,
      "v": 105
    },
    {
      "midi": 52,
      "hit": false,
      "t": 108623.15635416773,
      "d": 726.189750000005,
      "v": 102
    },
    {
      "midi": 73,
      "hit": false,
      "t": 108623.15635416773,
      "d": 857.1420000000071,
      "v": 55
    },
    {
      "midi": 76,
      "hit": false,
      "t": 108623.15635416773,
      "d": 857.1420000000071,
      "v": 48
    },
    {
      "midi": 64,
      "hit": false,
      "t": 108623.15635416773,
      "d": 880.9515000000101,
      "v": 61
    },
    {
      "midi": 69,
      "hit": false,
      "t": 108861.25135416773,
      "d": 117.0633749999979,
      "v": 60
    },
    {
      "midi": 42,
      "hit": false,
      "t": 108861.25135416773,
      "d": 119.04750000000058,
      "v": 90
    },
    {
      "midi": 35,
      "hit": false,
      "t": 108861.25135416773,
      "d": 119.04750000000058,
      "v": 100
    },
    {
      "midi": 33,
      "hit": false,
      "t": 108861.25135416773,
      "d": 190.4759999999951,
      "v": 107
    },
    {
      "midi": 74,
      "hit": false,
      "t": 108980.29885416773,
      "d": 355.15837499999907,
      "v": 127
    },
    {
      "midi": 69,
      "hit": false,
      "t": 109099.34635416773,
      "d": 119.04750000000058,
      "v": 100
    },
    {
      "midi": 70,
      "hit": false,
      "t": 109099.34635416773,
      "d": 119.04750000000058,
      "v": 100
    },
    {
      "midi": 54,
      "hit": false,
      "t": 109099.34635416773,
      "d": 119.04750000000058,
      "v": 127
    },
    {
      "midi": 42,
      "hit": false,
      "t": 109099.34635416773,
      "d": 119.04750000000058,
      "v": 115
    },
    {
      "midi": 38,
      "hit": false,
      "t": 109099.34635416773,
      "d": 119.04750000000058,
      "v": 115
    },
    {
      "midi": 33,
      "hit": false,
      "t": 109099.34635416773,
      "d": 150.79349999999977,
      "v": 102
    },
    {
      "midi": 33,
      "hit": false,
      "t": 109337.44135416773,
      "d": 67.46025000000373,
      "v": 116
    },
    {
      "midi": 69,
      "hit": false,
      "t": 109337.44135416773,
      "d": 119.04750000000058,
      "v": 60
    },
    {
      "midi": 46,
      "hit": false,
      "t": 109337.44135416773,
      "d": 119.04750000000058,
      "v": 100
    },
    {
      "midi": 35,
      "hit": false,
      "t": 109337.44135416773,
      "d": 119.04750000000058,
      "v": 90
    },
    {
      "midi": 71,
      "hit": false,
      "t": 109337.44135416773,
      "d": 712.3008750000008,
      "v": 127
    },
    {
      "midi": 21,
      "hit": false,
      "t": 109456.48885416774,
      "d": 59.52375000000757,
      "v": 80
    },
    {
      "midi": 69,
      "hit": false,
      "t": 109575.53635416774,
      "d": 119.04750000000058,
      "v": 100
    },
    {
      "midi": 70,
      "hit": false,
      "t": 109575.53635416774,
      "d": 119.04750000000058,
      "v": 100
    },
    {
      "midi": 54,
      "hit": false,
      "t": 109575.53635416774,
      "d": 119.04750000000058,
      "v": 100
    },
    {
      "midi": 42,
      "hit": false,
      "t": 109575.53635416774,
      "d": 119.04750000000058,
      "v": 115
    },
    {
      "midi": 35,
      "hit": false,
      "t": 109575.53635416774,
      "d": 119.04750000000058,
      "v": 115
    },
    {
      "midi": 47,
      "hit": false,
      "t": 109575.53635416774,
      "d": 722.2214999999997,
      "v": 105
    },
    {
      "midi": 74,
      "hit": false,
      "t": 109575.53635416774,
      "d": 952.3799999999901,
      "v": 61
    },
    {
      "midi": 66,
      "hit": false,
      "t": 109575.53635416774,
      "d": 952.3799999999901,
      "v": 50
    },
    {
      "midi": 69,
      "hit": false,
      "t": 109813.63135416774,
      "d": 119.04750000000058,
      "v": 60
    },
    {
      "midi": 42,
      "hit": false,
      "t": 109813.63135416774,
      "d": 119.04750000000058,
      "v": 100
    },
    {
      "midi": 35,
      "hit": false,
      "t": 109813.63135416774,
      "d": 119.04750000000058,
      "v": 90
    },
    {
      "midi": 69,
      "hit": false,
      "t": 110051.72635416774,
      "d": 119.04750000000058,
      "v": 100
    },
    {
      "midi": 70,
      "hit": false,
      "t": 110051.72635416774,
      "d": 119.04750000000058,
      "v": 100
    },
    {
      "midi": 54,
      "hit": false,
      "t": 110051.72635416774,
      "d": 119.04750000000058,
      "v": 127
    },
    {
      "midi": 42,
      "hit": false,
      "t": 110051.72635416774,
      "d": 119.04750000000058,
      "v": 115
    },
    {
      "midi": 38,
      "hit": false,
      "t": 110051.72635416774,
      "d": 119.04750000000058,
      "v": 115
    },
    {
      "midi": 35,
      "hit": false,
      "t": 110051.72635416774,
      "d": 150.79349999999977,
      "v": 102
    },
    {
      "midi": 35,
      "hit": false,
      "t": 110289.82135416774,
      "d": 67.46025000000373,
      "v": 100
    },
    {
      "midi": 69,
      "hit": false,
      "t": 110289.82135416774,
      "d": 119.04750000000058,
      "v": 60
    },
    {
      "midi": 42,
      "hit": false,
      "t": 110289.82135416774,
      "d": 119.04750000000058,
      "v": 100
    },
    {
      "midi": 23,
      "hit": false,
      "t": 110408.86885416774,
      "d": 59.523749999993015,
      "v": 80
    },
    {
      "midi": 69,
      "hit": false,
      "t": 110527.91635416773,
      "d": 119.04750000000058,
      "v": 100
    },
    {
      "midi": 70,
      "hit": false,
      "t": 110527.91635416773,
      "d": 119.04750000000058,
      "v": 100
    },
    {
      "midi": 54,
      "hit": false,
      "t": 110527.91635416773,
      "d": 119.04750000000058,
      "v": 100
    },
    {
      "midi": 42,
      "hit": false,
      "t": 110527.91635416773,
      "d": 119.04750000000058,
      "v": 115
    },
    {
      "midi": 35,
      "hit": false,
      "t": 110527.91635416773,
      "d": 119.04750000000058,
      "v": 115
    },
    {
      "midi": 36,
      "hit": false,
      "t": 110527.91635416773,
      "d": 150.79349999999977,
      "v": 105
    },
    {
      "midi": 69,
      "hit": false,
      "t": 110766.01135416773,
      "d": 119.04750000000058,
      "v": 60
    },
    {
      "midi": 42,
      "hit": false,
      "t": 110766.01135416773,
      "d": 119.04750000000058,
      "v": 100
    },
    {
      "midi": 35,
      "hit": false,
      "t": 110766.01135416773,
      "d": 119.04750000000058,
      "v": 100
    },
    {
      "midi": 36,
      "hit": false,
      "t": 110766.01135416773,
      "d": 190.4759999999951,
      "v": 107
    },
    {
      "midi": 72,
      "hit": false,
      "t": 110766.01135416773,
      "d": 198.41249999999127,
      "v": 8
    },
    {
      "midi": 76,
      "hit": false,
      "t": 110766.01135416773,
      "d": 202.38074999999662,
      "v": 29
    },
    {
      "midi": 60,
      "hit": false,
      "t": 110766.01135416773,
      "d": 202.38074999999662,
      "v": 100
    },
    {
      "midi": 55,
      "hit": false,
      "t": 110766.01135416773,
      "d": 206.34900000000198,
      "v": 91
    },
    {
      "midi": 48,
      "hit": false,
      "t": 110766.01135416773,
      "d": 210.31725000000733,
      "v": 95
    },
    {
      "midi": 69,
      "hit": false,
      "t": 111004.10635416774,
      "d": 119.04750000000058,
      "v": 100
    },
    {
      "midi": 70,
      "hit": false,
      "t": 111004.10635416774,
      "d": 119.04750000000058,
      "v": 100
    },
    {
      "midi": 54,
      "hit": false,
      "t": 111004.10635416774,
      "d": 119.04750000000058,
      "v": 127
    },
    {
      "midi": 42,
      "hit": false,
      "t": 111004.10635416774,
      "d": 119.04750000000058,
      "v": 115
    },
    {
      "midi": 38,
      "hit": false,
      "t": 111004.10635416774,
      "d": 119.04750000000058,
      "v": 115
    },
    {
      "midi": 36,
      "hit": false,
      "t": 111004.10635416774,
      "d": 150.79349999999977,
      "v": 102
    },
    {
      "midi": 76,
      "hit": false,
      "t": 111004.10635416774,
      "d": 236.1108749999985,
      "v": 127
    },
    {
      "midi": 60,
      "hit": false,
      "t": 111242.20135416774,
      "d": 23.809500000003027,
      "v": 105
    },
    {
      "midi": 36,
      "hit": false,
      "t": 111242.20135416774,
      "d": 67.46025000000373,
      "v": 116
    },
    {
      "midi": 69,
      "hit": false,
      "t": 111242.20135416774,
      "d": 119.04750000000058,
      "v": 60
    },
    {
      "midi": 42,
      "hit": false,
      "t": 111242.20135416774,
      "d": 119.04750000000058,
      "v": 100
    },
    {
      "midi": 35,
      "hit": false,
      "t": 111242.20135416774,
      "d": 119.04750000000058,
      "v": 100
    },
    {
      "midi": 55,
      "hit": false,
      "t": 111242.20135416774,
      "d": 194.44425000000047,
      "v": 110
    },
    {
      "midi": 48,
      "hit": false,
      "t": 111242.20135416774,
      "d": 198.41250000000582,
      "v": 110
    },
    {
      "midi": 74,
      "hit": false,
      "t": 111242.20135416774,
      "d": 236.11087500001304,
      "v": 127
    },
    {
      "midi": 24,
      "hit": false,
      "t": 111361.24885416774,
      "d": 59.523749999993015,
      "v": 80
    },
    {
      "midi": 59,
      "hit": false,
      "t": 111480.29635416776,
      "d": 31.745999999999185,
      "v": 105
    },
    {
      "midi": 35,
      "hit": false,
      "t": 111480.29635416776,
      "d": 83.33324999999604,
      "v": 115
    },
    {
      "midi": 69,
      "hit": false,
      "t": 111480.29635416776,
      "d": 119.04750000000058,
      "v": 100
    },
    {
      "midi": 70,
      "hit": false,
      "t": 111480.29635416776,
      "d": 119.04750000000058,
      "v": 100
    },
    {
      "midi": 54,
      "hit": false,
      "t": 111480.29635416776,
      "d": 119.04750000000058,
      "v": 100
    },
    {
      "midi": 42,
      "hit": false,
      "t": 111480.29635416776,
      "d": 119.04750000000058,
      "v": 115
    },
    {
      "midi": 47,
      "hit": false,
      "t": 111480.29635416776,
      "d": 158.72999999999593,
      "v": 107
    },
    {
      "midi": 78,
      "hit": false,
      "t": 111480.29635416776,
      "d": 474.20587499999965,
      "v": 127
    },
    {
      "midi": 74,
      "hit": false,
      "t": 111480.29635416776,
      "d": 952.3800000000047,
      "v": 61
    },
    {
      "midi": 66,
      "hit": false,
      "t": 111480.29635416776,
      "d": 952.3800000000047,
      "v": 50
    },
    {
      "midi": 69,
      "hit": false,
      "t": 111718.39135416776,
      "d": 119.04750000000058,
      "v": 60
    },
    {
      "midi": 42,
      "hit": false,
      "t": 111718.39135416776,
      "d": 119.04750000000058,
      "v": 100
    },
    {
      "midi": 35,
      "hit": false,
      "t": 111718.39135416776,
      "d": 119.04750000000058,
      "v": 100
    },
    {
      "midi": 47,
      "hit": false,
      "t": 111718.39135416776,
      "d": 706.3485000000073,
      "v": 107
    },
    {
      "midi": 69,
      "hit": false,
      "t": 111956.48635416776,
      "d": 119.04750000000058,
      "v": 100
    },
    {
      "midi": 70,
      "hit": false,
      "t": 111956.48635416776,
      "d": 119.04750000000058,
      "v": 100
    },
    {
      "midi": 54,
      "hit": false,
      "t": 111956.48635416776,
      "d": 119.04750000000058,
      "v": 127
    },
    {
      "midi": 42,
      "hit": false,
      "t": 111956.48635416776,
      "d": 119.04750000000058,
      "v": 115
    },
    {
      "midi": 38,
      "hit": false,
      "t": 111956.48635416776,
      "d": 119.04750000000058,
      "v": 115
    },
    {
      "midi": 35,
      "hit": false,
      "t": 111956.48635416776,
      "d": 123.01575000000594,
      "v": 110
    },
    {
      "midi": 78,
      "hit": false,
      "t": 111956.48635416776,
      "d": 236.11087500001304,
      "v": 127
    },
    {
      "midi": 54,
      "hit": false,
      "t": 112194.58135416778,
      "d": 39.68249999999534,
      "v": 76
    },
    {
      "midi": 35,
      "hit": false,
      "t": 112194.58135416778,
      "d": 99.20624999998836,
      "v": 100
    },
    {
      "midi": 69,
      "hit": false,
      "t": 112194.58135416778,
      "d": 119.04749999998603,
      "v": 60
    },
    {
      "midi": 42,
      "hit": false,
      "t": 112194.58135416778,
      "d": 119.04749999998603,
      "v": 80
    },
    {
      "midi": 76,
      "hit": false,
      "t": 112194.58135416778,
      "d": 236.11087499998393,
      "v": 127
    },
    {
      "midi": 59,
      "hit": false,
      "t": 112194.58135416778,
      "d": 238.0949999999866,
      "v": 95
    },
    {
      "midi": 36,
      "hit": false,
      "t": 112432.67635416776,
      "d": 107.14274999999907,
      "v": 63
    },
    {
      "midi": 69,
      "hit": false,
      "t": 112432.67635416776,
      "d": 119.04750000000058,
      "v": 100
    },
    {
      "midi": 70,
      "hit": false,
      "t": 112432.67635416776,
      "d": 119.04750000000058,
      "v": 100
    },
    {
      "midi": 54,
      "hit": false,
      "t": 112432.67635416776,
      "d": 119.04750000000058,
      "v": 100
    },
    {
      "midi": 42,
      "hit": false,
      "t": 112432.67635416776,
      "d": 119.04750000000058,
      "v": 115
    },
    {
      "midi": 35,
      "hit": false,
      "t": 112432.67635416776,
      "d": 119.04750000000058,
      "v": 115
    },
    {
      "midi": 79,
      "hit": false,
      "t": 112432.67635416776,
      "d": 474.2058750000142,
      "v": 127
    },
    {
      "midi": 69,
      "hit": false,
      "t": 112670.77135416777,
      "d": 119.04750000000058,
      "v": 60
    },
    {
      "midi": 42,
      "hit": false,
      "t": 112670.77135416777,
      "d": 119.04750000000058,
      "v": 100
    },
    {
      "midi": 35,
      "hit": false,
      "t": 112670.77135416777,
      "d": 119.04750000000058,
      "v": 100
    },
    {
      "midi": 48,
      "hit": false,
      "t": 112670.77135416777,
      "d": 130.9522500000021,
      "v": 107
    },
    {
      "midi": 36,
      "hit": false,
      "t": 112670.77135416777,
      "d": 134.92050000000745,
      "v": 116
    },
    {
      "midi": 55,
      "hit": false,
      "t": 112670.77135416777,
      "d": 158.73000000001048,
      "v": 100
    },
    {
      "midi": 67,
      "hit": false,
      "t": 112670.77135416777,
      "d": 1484.1255000000237,
      "v": 59
    },
    {
      "midi": 69,
      "hit": false,
      "t": 112908.86635416778,
      "d": 119.04750000000058,
      "v": 100
    },
    {
      "midi": 70,
      "hit": false,
      "t": 112908.86635416778,
      "d": 119.04750000000058,
      "v": 100
    },
    {
      "midi": 54,
      "hit": false,
      "t": 112908.86635416778,
      "d": 119.04750000000058,
      "v": 127
    },
    {
      "midi": 42,
      "hit": false,
      "t": 112908.86635416778,
      "d": 119.04750000000058,
      "v": 115
    },
    {
      "midi": 38,
      "hit": false,
      "t": 112908.86635416778,
      "d": 119.04750000000058,
      "v": 115
    },
    {
      "midi": 36,
      "hit": false,
      "t": 112908.86635416778,
      "d": 126.98399999999674,
      "v": 107
    },
    {
      "midi": 79,
      "hit": false,
      "t": 112908.86635416778,
      "d": 236.1108749999985,
      "v": 127
    },
    {
      "midi": 72,
      "hit": false,
      "t": 112908.86635416778,
      "d": 1246.030500000008,
      "v": 64
    },
    {
      "midi": 76,
      "hit": false,
      "t": 113027.91385416778,
      "d": 1126.9830000000075,
      "v": 29
    },
    {
      "midi": 69,
      "hit": false,
      "t": 113146.96135416778,
      "d": 119.04750000000058,
      "v": 60
    },
    {
      "midi": 42,
      "hit": false,
      "t": 113146.96135416778,
      "d": 119.04750000000058,
      "v": 100
    },
    {
      "midi": 35,
      "hit": false,
      "t": 113146.96135416778,
      "d": 119.04750000000058,
      "v": 100
    },
    {
      "midi": 36,
      "hit": false,
      "t": 113146.96135416778,
      "d": 142.8570000000036,
      "v": 80
    },
    {
      "midi": 78,
      "hit": false,
      "t": 113146.96135416778,
      "d": 236.1108749999985,
      "v": 127
    },
    {
      "midi": 38,
      "hit": false,
      "t": 113266.00885416778,
      "d": 119.04750000000058,
      "v": 60
    },
    {
      "midi": 36,
      "hit": false,
      "t": 113385.05635416778,
      "d": 75.39674999999988,
      "v": 107
    },
    {
      "midi": 69,
      "hit": false,
      "t": 113385.05635416778,
      "d": 119.04750000000058,
      "v": 100
    },
    {
      "midi": 70,
      "hit": false,
      "t": 113385.05635416778,
      "d": 119.04750000000058,
      "v": 100
    },
    {
      "midi": 54,
      "hit": false,
      "t": 113385.05635416778,
      "d": 119.04750000000058,
      "v": 100
    },
    {
      "midi": 42,
      "hit": false,
      "t": 113385.05635416778,
      "d": 119.04750000000058,
      "v": 115
    },
    {
      "midi": 35,
      "hit": false,
      "t": 113385.05635416778,
      "d": 119.04750000000058,
      "v": 115
    },
    {
      "midi": 48,
      "hit": false,
      "t": 113385.05635416778,
      "d": 309.5234999999957,
      "v": 110
    },
    {
      "midi": 81,
      "hit": false,
      "t": 113385.05635416778,
      "d": 355.15837499999907,
      "v": 127
    },
    {
      "midi": 55,
      "hit": false,
      "t": 113385.05635416778,
      "d": 476.1900000000023,
      "v": 105
    },
    {
      "midi": 69,
      "hit": false,
      "t": 113623.15135416779,
      "d": 119.04750000000058,
      "v": 60
    },
    {
      "midi": 42,
      "hit": false,
      "t": 113623.15135416779,
      "d": 119.04750000000058,
      "v": 90
    },
    {
      "midi": 35,
      "hit": false,
      "t": 113623.15135416779,
      "d": 119.04750000000058,
      "v": 90
    },
    {
      "midi": 36,
      "hit": false,
      "t": 113623.15135416779,
      "d": 123.01575000000594,
      "v": 95
    },
    {
      "midi": 24,
      "hit": false,
      "t": 113742.19885416779,
      "d": 99.20625000000291,
      "v": 72
    },
    {
      "midi": 79,
      "hit": false,
      "t": 113742.19885416779,
      "d": 355.15837499999907,
      "v": 127
    },
    {
      "midi": 55,
      "hit": false,
      "t": 113861.24635416779,
      "d": 31.745999999999185,
      "v": 38
    },
    {
      "midi": 36,
      "hit": false,
      "t": 113861.24635416779,
      "d": 111.11100000000442,
      "v": 127
    },
    {
      "midi": 69,
      "hit": false,
      "t": 113861.24635416779,
      "d": 119.04750000000058,
      "v": 100
    },
    {
      "midi": 70,
      "hit": false,
      "t": 113861.24635416779,
      "d": 119.04750000000058,
      "v": 100
    },
    {
      "midi": 54,
      "hit": false,
      "t": 113861.24635416779,
      "d": 119.04750000000058,
      "v": 127
    },
    {
      "midi": 42,
      "hit": false,
      "t": 113861.24635416779,
      "d": 119.04750000000058,
      "v": 115
    },
    {
      "midi": 38,
      "hit": false,
      "t": 113861.24635416779,
      "d": 119.04750000000058,
      "v": 115
    },
    {
      "midi": 48,
      "hit": false,
      "t": 113861.24635416779,
      "d": 436.507500000007,
      "v": 100
    },
    {
      "midi": 24,
      "hit": false,
      "t": 113980.29385416779,
      "d": 95.23799999999756,
      "v": 76
    },
    {
      "midi": 36,
      "hit": false,
      "t": 114099.34135416779,
      "d": 103.17450000000827,
      "v": 110
    },
    {
      "midi": 69,
      "hit": false,
      "t": 114099.34135416779,
      "d": 119.04750000001513,
      "v": 60
    },
    {
      "midi": 42,
      "hit": false,
      "t": 114099.34135416779,
      "d": 119.04750000001513,
      "v": 90
    },
    {
      "midi": 35,
      "hit": false,
      "t": 114099.34135416779,
      "d": 119.04750000001513,
      "v": 100
    },
    {
      "midi": 55,
      "hit": false,
      "t": 114099.34135416779,
      "d": 130.95225000001665,
      "v": 100
    },
    {
      "midi": 78,
      "hit": false,
      "t": 114099.34135416779,
      "d": 236.11087500001304,
      "v": 127
    },
    {
      "midi": 36,
      "hit": false,
      "t": 114218.3888541678,
      "d": 71.42849999999453,
      "v": 102
    },
    {
      "midi": 35,
      "hit": false,
      "t": 114218.3888541678,
      "d": 119.04750000000058,
      "v": 90
    },
    {
      "midi": 35,
      "hit": false,
      "t": 114337.4363541678,
      "d": 0,
      "v": 64
    },
    {
      "midi": 35,
      "hit": false,
      "t": 114337.4363541678,
      "d": 95.23799999999756,
      "v": 115
    },
    {
      "midi": 69,
      "hit": false,
      "t": 114337.4363541678,
      "d": 119.04750000000058,
      "v": 100
    },
    {
      "midi": 70,
      "hit": false,
      "t": 114337.4363541678,
      "d": 119.04750000000058,
      "v": 100
    },
    {
      "midi": 54,
      "hit": false,
      "t": 114337.4363541678,
      "d": 119.04750000000058,
      "v": 100
    },
    {
      "midi": 42,
      "hit": false,
      "t": 114337.4363541678,
      "d": 119.04750000000058,
      "v": 115
    },
    {
      "midi": 47,
      "hit": false,
      "t": 114337.4363541678,
      "d": 198.41250000000582,
      "v": 107
    },
    {
      "midi": 59,
      "hit": false,
      "t": 114337.4363541678,
      "d": 198.41250000000582,
      "v": 102
    },
    {
      "midi": 75,
      "hit": false,
      "t": 114337.4363541678,
      "d": 3059.520750000025,
      "v": 52
    },
    {
      "midi": 66,
      "hit": false,
      "t": 114337.4363541678,
      "d": 3099.203250000035,
      "v": 37
    },
    {
      "midi": 35,
      "hit": false,
      "t": 114575.5313541678,
      "d": 87.3015000000014,
      "v": 100
    },
    {
      "midi": 69,
      "hit": false,
      "t": 114575.5313541678,
      "d": 119.04750000000058,
      "v": 60
    },
    {
      "midi": 42,
      "hit": false,
      "t": 114575.5313541678,
      "d": 119.04750000000058,
      "v": 90
    },
    {
      "midi": 35,
      "hit": false,
      "t": 114813.6263541678,
      "d": 83.33324999999604,
      "v": 57
    },
    {
      "midi": 69,
      "hit": false,
      "t": 114813.6263541678,
      "d": 119.04750000000058,
      "v": 100
    },
    {
      "midi": 70,
      "hit": false,
      "t": 114813.6263541678,
      "d": 119.04750000000058,
      "v": 100
    },
    {
      "midi": 54,
      "hit": false,
      "t": 114813.6263541678,
      "d": 119.04750000000058,
      "v": 127
    },
    {
      "midi": 42,
      "hit": false,
      "t": 114813.6263541678,
      "d": 119.04750000000058,
      "v": 115
    },
    {
      "midi": 38,
      "hit": false,
      "t": 114813.6263541678,
      "d": 119.04750000000058,
      "v": 115
    },
    {
      "midi": 76,
      "hit": false,
      "t": 114813.6263541678,
      "d": 236.1108749999985,
      "v": 127
    },
    {
      "midi": 78,
      "hit": false,
      "t": 115051.7213541678,
      "d": 117.0633749999979,
      "v": 127
    },
    {
      "midi": 69,
      "hit": false,
      "t": 115051.7213541678,
      "d": 119.04750000000058,
      "v": 60
    },
    {
      "midi": 46,
      "hit": false,
      "t": 115051.7213541678,
      "d": 119.04750000000058,
      "v": 100
    },
    {
      "midi": 35,
      "hit": false,
      "t": 115051.7213541678,
      "d": 119.04750000000058,
      "v": 90
    },
    {
      "midi": 47,
      "hit": false,
      "t": 115051.7213541678,
      "d": 206.34900000000198,
      "v": 105
    },
    {
      "midi": 59,
      "hit": false,
      "t": 115051.7213541678,
      "d": 206.34900000000198,
      "v": 100
    },
    {
      "midi": 54,
      "hit": false,
      "t": 115051.7213541678,
      "d": 206.34900000000198,
      "v": 95
    },
    {
      "midi": 71,
      "hit": false,
      "t": 115170.7688541678,
      "d": 593.2533750000002,
      "v": 127
    },
    {
      "midi": 35,
      "hit": false,
      "t": 115289.81635416781,
      "d": 91.26975000000675,
      "v": 115
    },
    {
      "midi": 69,
      "hit": false,
      "t": 115289.81635416781,
      "d": 119.04750000000058,
      "v": 100
    },
    {
      "midi": 70,
      "hit": false,
      "t": 115289.81635416781,
      "d": 119.04750000000058,
      "v": 100
    },
    {
      "midi": 54,
      "hit": false,
      "t": 115289.81635416781,
      "d": 119.04750000000058,
      "v": 100
    },
    {
      "midi": 42,
      "hit": false,
      "t": 115289.81635416781,
      "d": 119.04750000000058,
      "v": 115
    },
    {
      "midi": 35,
      "hit": false,
      "t": 115527.91135416781,
      "d": 119.04750000000058,
      "v": 90
    },
    {
      "midi": 69,
      "hit": false,
      "t": 115527.91135416781,
      "d": 119.04750000000058,
      "v": 60
    },
    {
      "midi": 42,
      "hit": false,
      "t": 115527.91135416781,
      "d": 119.04750000000058,
      "v": 100
    },
    {
      "midi": 59,
      "hit": false,
      "t": 115527.91135416781,
      "d": 190.4759999999951,
      "v": 105
    },
    {
      "midi": 54,
      "hit": false,
      "t": 115527.91135416781,
      "d": 206.34900000000198,
      "v": 102
    },
    {
      "midi": 47,
      "hit": false,
      "t": 115527.91135416781,
      "d": 257.93624999999884,
      "v": 102
    },
    {
      "midi": 35,
      "hit": false,
      "t": 115766.00635416781,
      "d": 75.39674999999988,
      "v": 78
    },
    {
      "midi": 69,
      "hit": false,
      "t": 115766.00635416781,
      "d": 119.04750000000058,
      "v": 100
    },
    {
      "midi": 70,
      "hit": false,
      "t": 115766.00635416781,
      "d": 119.04750000000058,
      "v": 100
    },
    {
      "midi": 54,
      "hit": false,
      "t": 115766.00635416781,
      "d": 119.04750000000058,
      "v": 127
    },
    {
      "midi": 42,
      "hit": false,
      "t": 115766.00635416781,
      "d": 119.04750000000058,
      "v": 115
    },
    {
      "midi": 38,
      "hit": false,
      "t": 115766.00635416781,
      "d": 119.04750000000058,
      "v": 115
    },
    {
      "midi": 71,
      "hit": false,
      "t": 115766.00635416781,
      "d": 236.1108749999985,
      "v": 127
    },
    {
      "midi": 35,
      "hit": false,
      "t": 116004.10135416781,
      "d": 107.14274999999907,
      "v": 100
    },
    {
      "midi": 69,
      "hit": false,
      "t": 116004.10135416781,
      "d": 119.04750000000058,
      "v": 60
    },
    {
      "midi": 42,
      "hit": false,
      "t": 116004.10135416781,
      "d": 119.04750000000058,
      "v": 100
    },
    {
      "midi": 74,
      "hit": false,
      "t": 116004.10135416781,
      "d": 236.1108749999985,
      "v": 127
    },
    {
      "midi": 47,
      "hit": false,
      "t": 116004.10135416781,
      "d": 507.9360000000015,
      "v": 87
    },
    {
      "midi": 59,
      "hit": false,
      "t": 116004.10135416781,
      "d": 519.840750000003,
      "v": 98
    },
    {
      "midi": 23,
      "hit": false,
      "t": 116123.14885416781,
      "d": 71.42849999999453,
      "v": 91
    },
    {
      "midi": 69,
      "hit": false,
      "t": 116242.19635416781,
      "d": 119.04750000000058,
      "v": 100
    },
    {
      "midi": 70,
      "hit": false,
      "t": 116242.19635416781,
      "d": 119.04750000000058,
      "v": 100
    },
    {
      "midi": 54,
      "hit": false,
      "t": 116242.19635416781,
      "d": 119.04750000000058,
      "v": 100
    },
    {
      "midi": 42,
      "hit": false,
      "t": 116242.19635416781,
      "d": 119.04750000000058,
      "v": 115
    },
    {
      "midi": 35,
      "hit": false,
      "t": 116242.19635416781,
      "d": 119.04750000000058,
      "v": 115
    },
    {
      "midi": 76,
      "hit": false,
      "t": 116242.19635416781,
      "d": 474.20587499999965,
      "v": 127
    },
    {
      "midi": 35,
      "hit": false,
      "t": 116480.29135416781,
      "d": 103.17449999999371,
      "v": 100
    },
    {
      "midi": 69,
      "hit": false,
      "t": 116480.29135416781,
      "d": 119.04750000000058,
      "v": 60
    },
    {
      "midi": 42,
      "hit": false,
      "t": 116480.29135416781,
      "d": 119.04750000000058,
      "v": 90
    },
    {
      "midi": 54,
      "hit": false,
      "t": 116718.38635416781,
      "d": 39.68249999999534,
      "v": 127
    },
    {
      "midi": 69,
      "hit": false,
      "t": 116718.38635416781,
      "d": 119.04750000000058,
      "v": 100
    },
    {
      "midi": 70,
      "hit": false,
      "t": 116718.38635416781,
      "d": 119.04750000000058,
      "v": 100
    },
    {
      "midi": 42,
      "hit": false,
      "t": 116718.38635416781,
      "d": 119.04750000000058,
      "v": 115
    },
    {
      "midi": 38,
      "hit": false,
      "t": 116718.38635416781,
      "d": 119.04750000000058,
      "v": 115
    },
    {
      "midi": 35,
      "hit": false,
      "t": 116718.38635416781,
      "d": 134.92050000000745,
      "v": 116
    },
    {
      "midi": 76,
      "hit": false,
      "t": 116718.38635416781,
      "d": 236.11087500001304,
      "v": 127
    },
    {
      "midi": 47,
      "hit": false,
      "t": 116718.38635416781,
      "d": 269.8410000000149,
      "v": 100
    },
    {
      "midi": 78,
      "hit": false,
      "t": 116956.48135416783,
      "d": 117.0633749999979,
      "v": 127
    },
    {
      "midi": 69,
      "hit": false,
      "t": 116956.48135416783,
      "d": 119.04750000000058,
      "v": 60
    },
    {
      "midi": 46,
      "hit": false,
      "t": 116956.48135416783,
      "d": 119.04750000000058,
      "v": 100
    },
    {
      "midi": 35,
      "hit": false,
      "t": 116956.48135416783,
      "d": 119.04750000000058,
      "v": 90
    },
    {
      "midi": 23,
      "hit": false,
      "t": 117075.52885416783,
      "d": 75.39674999999988,
      "v": 85
    },
    {
      "midi": 71,
      "hit": false,
      "t": 117075.52885416783,
      "d": 329.3647500000079,
      "v": 127
    },
    {
      "midi": 35,
      "hit": false,
      "t": 117194.57635416783,
      "d": 7.936499999996158,
      "v": 115
    },
    {
      "midi": 69,
      "hit": false,
      "t": 117194.57635416783,
      "d": 119.04750000000058,
      "v": 100
    },
    {
      "midi": 70,
      "hit": false,
      "t": 117194.57635416783,
      "d": 119.04750000000058,
      "v": 100
    },
    {
      "midi": 54,
      "hit": false,
      "t": 117194.57635416783,
      "d": 119.04750000000058,
      "v": 100
    },
    {
      "midi": 42,
      "hit": false,
      "t": 117194.57635416783,
      "d": 119.04750000000058,
      "v": 115
    },
    {
      "midi": 59,
      "hit": false,
      "t": 117194.57635416783,
      "d": 246.03150000001187,
      "v": 102
    },
    {
      "midi": 69,
      "hit": false,
      "t": 117432.67135416783,
      "d": 119.04750000001513,
      "v": 60
    },
    {
      "midi": 42,
      "hit": false,
      "t": 117432.67135416783,
      "d": 119.04750000001513,
      "v": 100
    },
    {
      "midi": 47,
      "hit": false,
      "t": 117436.63960416784,
      "d": 15.873000000006869,
      "v": 42
    },
    {
      "midi": 35,
      "hit": false,
      "t": 117440.60785416784,
      "d": 99.20625000000291,
      "v": 66
    },
    {
      "midi": 47,
      "hit": false,
      "t": 117551.71885416785,
      "d": 119.04750000000058,
      "v": 61
    },
    {
      "midi": 35,
      "hit": false,
      "t": 117670.76635416785,
      "d": 47.619000000006054,
      "v": 113
    },
    {
      "midi": 69,
      "hit": false,
      "t": 117670.76635416785,
      "d": 119.04750000000058,
      "v": 100
    },
    {
      "midi": 70,
      "hit": false,
      "t": 117670.76635416785,
      "d": 119.04750000000058,
      "v": 100
    },
    {
      "midi": 54,
      "hit": false,
      "t": 117670.76635416785,
      "d": 119.04750000000058,
      "v": 127
    },
    {
      "midi": 42,
      "hit": false,
      "t": 117670.76635416785,
      "d": 119.04750000000058,
      "v": 115
    },
    {
      "midi": 38,
      "hit": false,
      "t": 117670.76635416785,
      "d": 119.04750000000058,
      "v": 115
    },
    {
      "midi": 75,
      "hit": false,
      "t": 117670.76635416785,
      "d": 281.74575000000186,
      "v": 58
    },
    {
      "midi": 66,
      "hit": false,
      "t": 117670.76635416785,
      "d": 285.7140000000072,
      "v": 48
    },
    {
      "midi": 71,
      "hit": false,
      "t": 117670.76635416785,
      "d": 297.61875000000873,
      "v": 76
    },
    {
      "midi": 35,
      "hit": false,
      "t": 117908.86135416785,
      "d": 71.42850000000908,
      "v": 100
    },
    {
      "midi": 69,
      "hit": false,
      "t": 117908.86135416785,
      "d": 119.04750000001513,
      "v": 60
    },
    {
      "midi": 42,
      "hit": false,
      "t": 117908.86135416785,
      "d": 119.04750000001513,
      "v": 100
    },
    {
      "midi": 54,
      "hit": false,
      "t": 117908.86135416785,
      "d": 126.98400000001129,
      "v": 100
    },
    {
      "midi": 47,
      "hit": false,
      "t": 117908.86135416785,
      "d": 170.634750000012,
      "v": 78
    },
    {
      "midi": 60,
      "hit": false,
      "t": 118146.95635416787,
      "d": 31.745999999999185,
      "v": 105
    },
    {
      "midi": 69,
      "hit": false,
      "t": 118146.95635416787,
      "d": 119.04750000000058,
      "v": 100
    },
    {
      "midi": 70,
      "hit": false,
      "t": 118146.95635416787,
      "d": 119.04750000000058,
      "v": 100
    },
    {
      "midi": 54,
      "hit": false,
      "t": 118146.95635416787,
      "d": 119.04750000000058,
      "v": 100
    },
    {
      "midi": 42,
      "hit": false,
      "t": 118146.95635416787,
      "d": 119.04750000000058,
      "v": 115
    },
    {
      "midi": 35,
      "hit": false,
      "t": 118146.95635416787,
      "d": 119.04750000000058,
      "v": 115
    },
    {
      "midi": 36,
      "hit": false,
      "t": 118146.95635416787,
      "d": 150.79349999999977,
      "v": 107
    },
    {
      "midi": 48,
      "hit": false,
      "t": 118146.95635416787,
      "d": 158.72999999999593,
      "v": 107
    },
    {
      "midi": 55,
      "hit": false,
      "t": 118146.95635416787,
      "d": 325.396499999988,
      "v": 102
    },
    {
      "midi": 76,
      "hit": false,
      "t": 118146.95635416787,
      "d": 474.2058749999851,
      "v": 55
    },
    {
      "midi": 79,
      "hit": false,
      "t": 118146.95635416787,
      "d": 857.1420000000071,
      "v": 48
    },
    {
      "midi": 67,
      "hit": false,
      "t": 118146.95635416787,
      "d": 880.9515000000101,
      "v": 61
    },
    {
      "midi": 24,
      "hit": false,
      "t": 118266.00385416787,
      "d": 111.11099999998987,
      "v": 82
    },
    {
      "midi": 69,
      "hit": false,
      "t": 118385.05135416785,
      "d": 119.04750000000058,
      "v": 60
    },
    {
      "midi": 42,
      "hit": false,
      "t": 118385.05135416785,
      "d": 119.04750000000058,
      "v": 90
    },
    {
      "midi": 35,
      "hit": false,
      "t": 118385.05135416785,
      "d": 119.04750000000058,
      "v": 100
    },
    {
      "midi": 36,
      "hit": false,
      "t": 118385.05135416785,
      "d": 126.98399999999674,
      "v": 89
    },
    {
      "midi": 48,
      "hit": false,
      "t": 118385.05135416785,
      "d": 706.3485000000219,
      "v": 107
    },
    {
      "midi": 69,
      "hit": false,
      "t": 118623.14635416785,
      "d": 119.04750000000058,
      "v": 100
    },
    {
      "midi": 70,
      "hit": false,
      "t": 118623.14635416785,
      "d": 119.04750000000058,
      "v": 100
    },
    {
      "midi": 54,
      "hit": false,
      "t": 118623.14635416785,
      "d": 119.04750000000058,
      "v": 127
    },
    {
      "midi": 42,
      "hit": false,
      "t": 118623.14635416785,
      "d": 119.04750000000058,
      "v": 115
    },
    {
      "midi": 38,
      "hit": false,
      "t": 118623.14635416785,
      "d": 119.04750000000058,
      "v": 115
    },
    {
      "midi": 36,
      "hit": false,
      "t": 118623.14635416785,
      "d": 154.76175000000512,
      "v": 107
    },
    {
      "midi": 55,
      "hit": false,
      "t": 118623.14635416785,
      "d": 210.31725000000733,
      "v": 100
    },
    {
      "midi": 76,
      "hit": false,
      "t": 118623.14635416785,
      "d": 236.11087500001304,
      "v": 127
    },
    {
      "midi": 55,
      "hit": false,
      "t": 118861.24135416787,
      "d": 39.68249999999534,
      "v": 76
    },
    {
      "midi": 69,
      "hit": false,
      "t": 118861.24135416787,
      "d": 119.04750000000058,
      "v": 60
    },
    {
      "midi": 42,
      "hit": false,
      "t": 118861.24135416787,
      "d": 119.04750000000058,
      "v": 90
    },
    {
      "midi": 35,
      "hit": false,
      "t": 118861.24135416787,
      "d": 119.04750000000058,
      "v": 100
    },
    {
      "midi": 36,
      "hit": false,
      "t": 118861.24135416787,
      "d": 170.634750000012,
      "v": 113
    },
    {
      "midi": 74,
      "hit": false,
      "t": 118861.24135416787,
      "d": 236.1108749999985,
      "v": 127
    },
    {
      "midi": 60,
      "hit": false,
      "t": 118861.24135416787,
      "d": 238.09500000000116,
      "v": 95
    },
    {
      "midi": 35,
      "hit": false,
      "t": 119099.33635416787,
      "d": 83.33324999999604,
      "v": 115
    },
    {
      "midi": 69,
      "hit": false,
      "t": 119099.33635416787,
      "d": 119.04750000000058,
      "v": 100
    },
    {
      "midi": 70,
      "hit": false,
      "t": 119099.33635416787,
      "d": 119.04750000000058,
      "v": 100
    },
    {
      "midi": 54,
      "hit": false,
      "t": 119099.33635416787,
      "d": 119.04750000000058,
      "v": 100
    },
    {
      "midi": 42,
      "hit": false,
      "t": 119099.33635416787,
      "d": 119.04750000000058,
      "v": 115
    },
    {
      "midi": 78,
      "hit": false,
      "t": 119099.33635416787,
      "d": 474.20587500002875,
      "v": 127
    },
    {
      "midi": 69,
      "hit": false,
      "t": 119337.43135416787,
      "d": 119.04750000000058,
      "v": 60
    },
    {
      "midi": 42,
      "hit": false,
      "t": 119337.43135416787,
      "d": 119.04750000000058,
      "v": 100
    },
    {
      "midi": 35,
      "hit": false,
      "t": 119337.43135416787,
      "d": 119.04750000000058,
      "v": 100
    },
    {
      "midi": 71,
      "hit": false,
      "t": 119337.43135416787,
      "d": 198.41250000000582,
      "v": 8
    },
    {
      "midi": 75,
      "hit": false,
      "t": 119337.43135416787,
      "d": 202.38075000001118,
      "v": 29
    },
    {
      "midi": 59,
      "hit": false,
      "t": 119337.43135416787,
      "d": 202.38075000001118,
      "v": 100
    },
    {
      "midi": 54,
      "hit": false,
      "t": 119337.43135416787,
      "d": 206.34900000001653,
      "v": 91
    },
    {
      "midi": 47,
      "hit": false,
      "t": 119337.43135416787,
      "d": 210.3172500000219,
      "v": 95
    },
    {
      "midi": 69,
      "hit": false,
      "t": 119575.5263541679,
      "d": 119.04750000000058,
      "v": 100
    },
    {
      "midi": 70,
      "hit": false,
      "t": 119575.5263541679,
      "d": 119.04750000000058,
      "v": 100
    },
    {
      "midi": 54,
      "hit": false,
      "t": 119575.5263541679,
      "d": 119.04750000000058,
      "v": 127
    },
    {
      "midi": 42,
      "hit": false,
      "t": 119575.5263541679,
      "d": 119.04750000000058,
      "v": 115
    },
    {
      "midi": 38,
      "hit": false,
      "t": 119575.5263541679,
      "d": 119.04750000000058,
      "v": 115
    },
    {
      "midi": 35,
      "hit": false,
      "t": 119575.5263541679,
      "d": 123.01575000000594,
      "v": 110
    },
    {
      "midi": 78,
      "hit": false,
      "t": 119575.5263541679,
      "d": 236.11087500001304,
      "v": 127
    },
    {
      "midi": 59,
      "hit": false,
      "t": 119813.62135416792,
      "d": 23.809500000003027,
      "v": 105
    },
    {
      "midi": 35,
      "hit": false,
      "t": 119813.62135416792,
      "d": 99.20625000000291,
      "v": 100
    },
    {
      "midi": 69,
      "hit": false,
      "t": 119813.62135416792,
      "d": 119.04750000000058,
      "v": 60
    },
    {
      "midi": 42,
      "hit": false,
      "t": 119813.62135416792,
      "d": 119.04750000000058,
      "v": 100
    },
    {
      "midi": 54,
      "hit": false,
      "t": 119813.62135416792,
      "d": 194.44425000000047,
      "v": 110
    },
    {
      "midi": 47,
      "hit": false,
      "t": 119813.62135416792,
      "d": 198.41250000000582,
      "v": 110
    },
    {
      "midi": 76,
      "hit": false,
      "t": 119813.62135416792,
      "d": 236.11087500001304,
      "v": 127
    },
    {
      "midi": 60,
      "hit": false,
      "t": 120051.71635416793,
      "d": 31.745999999999185,
      "v": 105
    },
    {
      "midi": 36,
      "hit": false,
      "t": 120051.71635416793,
      "d": 83.33324999999604,
      "v": 105
    },
    {
      "midi": 69,
      "hit": false,
      "t": 120051.71635416793,
      "d": 119.04750000000058,
      "v": 100
    },
    {
      "midi": 70,
      "hit": false,
      "t": 120051.71635416793,
      "d": 119.04750000000058,
      "v": 100
    },
    {
      "midi": 54,
      "hit": false,
      "t": 120051.71635416793,
      "d": 119.04750000000058,
      "v": 100
    },
    {
      "midi": 42,
      "hit": false,
      "t": 120051.71635416793,
      "d": 119.04750000000058,
      "v": 115
    },
    {
      "midi": 35,
      "hit": false,
      "t": 120051.71635416793,
      "d": 119.04750000000058,
      "v": 115
    },
    {
      "midi": 48,
      "hit": false,
      "t": 120051.71635416793,
      "d": 158.72999999999593,
      "v": 107
    },
    {
      "midi": 55,
      "hit": false,
      "t": 120051.71635416793,
      "d": 325.39650000000256,
      "v": 102
    },
    {
      "midi": 79,
      "hit": false,
      "t": 120051.71635416793,
      "d": 474.20587499999965,
      "v": 60
    },
    {
      "midi": 76,
      "hit": false,
      "t": 120051.71635416793,
      "d": 952.3800000000047,
      "v": 60
    },
    {
      "midi": 72,
      "hit": false,
      "t": 120051.71635416793,
      "d": 952.3800000000047,
      "v": 45
    },
    {
      "midi": 67,
      "hit": false,
      "t": 120051.71635416793,
      "d": 952.3800000000047,
      "v": 56
    },
    {
      "midi": 69,
      "hit": false,
      "t": 120289.81135416793,
      "d": 119.04750000000058,
      "v": 60
    },
    {
      "midi": 42,
      "hit": false,
      "t": 120289.81135416793,
      "d": 119.04750000000058,
      "v": 90
    },
    {
      "midi": 35,
      "hit": false,
      "t": 120289.81135416793,
      "d": 119.04750000000058,
      "v": 100
    },
    {
      "midi": 36,
      "hit": false,
      "t": 120289.81135416793,
      "d": 194.44425000000047,
      "v": 116
    },
    {
      "midi": 48,
      "hit": false,
      "t": 120289.81135416793,
      "d": 706.3485000000073,
      "v": 107
    },
    {
      "midi": 69,
      "hit": false,
      "t": 120527.90635416794,
      "d": 119.04750000000058,
      "v": 100
    },
    {
      "midi": 70,
      "hit": false,
      "t": 120527.90635416794,
      "d": 119.04750000000058,
      "v": 100
    },
    {
      "midi": 54,
      "hit": false,
      "t": 120527.90635416794,
      "d": 119.04750000000058,
      "v": 127
    },
    {
      "midi": 42,
      "hit": false,
      "t": 120527.90635416794,
      "d": 119.04750000000058,
      "v": 115
    },
    {
      "midi": 38,
      "hit": false,
      "t": 120527.90635416794,
      "d": 119.04750000000058,
      "v": 115
    },
    {
      "midi": 36,
      "hit": false,
      "t": 120527.90635416794,
      "d": 123.01575000000594,
      "v": 110
    },
    {
      "midi": 55,
      "hit": false,
      "t": 120527.90635416794,
      "d": 210.31725000000733,
      "v": 100
    },
    {
      "midi": 79,
      "hit": false,
      "t": 120527.90635416794,
      "d": 236.11087500001304,
      "v": 127
    },
    {
      "midi": 55,
      "hit": false,
      "t": 120766.00135416795,
      "d": 39.68249999999534,
      "v": 76
    },
    {
      "midi": 32,
      "hit": false,
      "t": 120766.00135416795,
      "d": 99.20624999998836,
      "v": 110
    },
    {
      "midi": 69,
      "hit": false,
      "t": 120766.00135416795,
      "d": 119.04749999998603,
      "v": 60
    },
    {
      "midi": 42,
      "hit": false,
      "t": 120766.00135416795,
      "d": 119.04749999998603,
      "v": 90
    },
    {
      "midi": 35,
      "hit": false,
      "t": 120766.00135416795,
      "d": 119.04749999998603,
      "v": 100
    },
    {
      "midi": 78,
      "hit": false,
      "t": 120766.00135416795,
      "d": 236.11087499998393,
      "v": 127
    },
    {
      "midi": 60,
      "hit": false,
      "t": 120766.00135416795,
      "d": 238.0949999999866,
      "v": 95
    },
    {
      "midi": 69,
      "hit": false,
      "t": 121004.09635416794,
      "d": 119.04750000000058,
      "v": 100
    },
    {
      "midi": 70,
      "hit": false,
      "t": 121004.09635416794,
      "d": 119.04750000000058,
      "v": 100
    },
    {
      "midi": 54,
      "hit": false,
      "t": 121004.09635416794,
      "d": 119.04750000000058,
      "v": 100
    },
    {
      "midi": 42,
      "hit": false,
      "t": 121004.09635416794,
      "d": 119.04750000000058,
      "v": 115
    },
    {
      "midi": 35,
      "hit": false,
      "t": 121004.09635416794,
      "d": 119.04750000000058,
      "v": 115
    },
    {
      "midi": 37,
      "hit": false,
      "t": 121004.09635416794,
      "d": 150.79349999999977,
      "v": 105
    },
    {
      "midi": 81,
      "hit": false,
      "t": 121004.09635416794,
      "d": 355.15837499999907,
      "v": 127
    },
    {
      "midi": 69,
      "hit": false,
      "t": 121242.19135416794,
      "d": 119.04750000000058,
      "v": 60
    },
    {
      "midi": 42,
      "hit": false,
      "t": 121242.19135416794,
      "d": 119.04750000000058,
      "v": 100
    },
    {
      "midi": 35,
      "hit": false,
      "t": 121242.19135416794,
      "d": 119.04750000000058,
      "v": 100
    },
    {
      "midi": 37,
      "hit": false,
      "t": 121242.19135416794,
      "d": 190.4759999999951,
      "v": 107
    },
    {
      "midi": 67,
      "hit": false,
      "t": 121242.19135416794,
      "d": 198.41249999999127,
      "v": 8
    },
    {
      "midi": 73,
      "hit": false,
      "t": 121242.19135416794,
      "d": 202.38074999999662,
      "v": 29
    },
    {
      "midi": 57,
      "hit": false,
      "t": 121242.19135416794,
      "d": 202.38074999999662,
      "v": 100
    },
    {
      "midi": 52,
      "hit": false,
      "t": 121242.19135416794,
      "d": 206.34900000000198,
      "v": 91
    },
    {
      "midi": 49,
      "hit": false,
      "t": 121242.19135416794,
      "d": 210.31725000000733,
      "v": 95
    },
    {
      "midi": 79,
      "hit": false,
      "t": 121361.23885416794,
      "d": 355.15837499999907,
      "v": 127
    },
    {
      "midi": 69,
      "hit": false,
      "t": 121480.28635416794,
      "d": 119.04750000000058,
      "v": 100
    },
    {
      "midi": 70,
      "hit": false,
      "t": 121480.28635416794,
      "d": 119.04750000000058,
      "v": 100
    },
    {
      "midi": 54,
      "hit": false,
      "t": 121480.28635416794,
      "d": 119.04750000000058,
      "v": 127
    },
    {
      "midi": 42,
      "hit": false,
      "t": 121480.28635416794,
      "d": 119.04750000000058,
      "v": 115
    },
    {
      "midi": 38,
      "hit": false,
      "t": 121480.28635416794,
      "d": 119.04750000000058,
      "v": 115
    },
    {
      "midi": 37,
      "hit": false,
      "t": 121480.28635416794,
      "d": 150.79349999999977,
      "v": 102
    },
    {
      "midi": 55,
      "hit": false,
      "t": 121718.38135416794,
      "d": 23.809500000003027,
      "v": 68
    },
    {
      "midi": 37,
      "hit": false,
      "t": 121718.38135416794,
      "d": 67.46025000000373,
      "v": 116
    },
    {
      "midi": 69,
      "hit": false,
      "t": 121718.38135416794,
      "d": 119.04750000000058,
      "v": 60
    },
    {
      "midi": 42,
      "hit": false,
      "t": 121718.38135416794,
      "d": 119.04750000000058,
      "v": 100
    },
    {
      "midi": 35,
      "hit": false,
      "t": 121718.38135416794,
      "d": 119.04750000000058,
      "v": 100
    },
    {
      "midi": 57,
      "hit": false,
      "t": 121718.38135416794,
      "d": 174.6030000000028,
      "v": 105
    },
    {
      "midi": 52,
      "hit": false,
      "t": 121718.38135416794,
      "d": 194.44425000001502,
      "v": 110
    },
    {
      "midi": 49,
      "hit": false,
      "t": 121718.38135416794,
      "d": 198.41250000002037,
      "v": 110
    },
    {
      "midi": 78,
      "hit": false,
      "t": 121718.38135416794,
      "d": 236.1108750000276,
      "v": 127
    },
    {
      "midi": 25,
      "hit": false,
      "t": 121837.42885416794,
      "d": 59.52375000000757,
      "v": 80
    },
    {
      "midi": 69,
      "hit": false,
      "t": 121956.47635416797,
      "d": 119.04750000000058,
      "v": 100
    },
    {
      "midi": 70,
      "hit": false,
      "t": 121956.47635416797,
      "d": 119.04750000000058,
      "v": 100
    },
    {
      "midi": 54,
      "hit": false,
      "t": 121956.47635416797,
      "d": 119.04750000000058,
      "v": 100
    },
    {
      "midi": 42,
      "hit": false,
      "t": 121956.47635416797,
      "d": 119.04750000000058,
      "v": 115
    },
    {
      "midi": 35,
      "hit": false,
      "t": 121956.47635416797,
      "d": 119.04750000000058,
      "v": 115
    },
    {
      "midi": 38,
      "hit": false,
      "t": 121956.47635416797,
      "d": 174.6030000000028,
      "v": 70
    },
    {
      "midi": 81,
      "hit": false,
      "t": 121956.47635416797,
      "d": 178.57125000000815,
      "v": 57
    },
    {
      "midi": 74,
      "hit": false,
      "t": 121956.47635416797,
      "d": 190.47600000000966,
      "v": 35
    },
    {
      "midi": 78,
      "hit": false,
      "t": 121956.47635416797,
      "d": 190.47600000000966,
      "v": 53
    },
    {
      "midi": 86,
      "hit": false,
      "t": 121956.47635416797,
      "d": 210.31725000000733,
      "v": 55
    },
    {
      "midi": 69,
      "hit": false,
      "t": 122194.57135416797,
      "d": 119.04750000000058,
      "v": 60
    },
    {
      "midi": 42,
      "hit": false,
      "t": 122194.57135416797,
      "d": 119.04750000000058,
      "v": 90
    },
    {
      "midi": 35,
      "hit": false,
      "t": 122194.57135416797,
      "d": 119.04750000000058,
      "v": 100
    },
    {
      "midi": 38,
      "hit": false,
      "t": 122194.57135416797,
      "d": 130.9522500000021,
      "v": 89
    },
    {
      "midi": 57,
      "hit": false,
      "t": 122194.57135416797,
      "d": 154.76175000000512,
      "v": 91
    },
    {
      "midi": 50,
      "hit": false,
      "t": 122194.57135416797,
      "d": 166.66650000000664,
      "v": 93
    },
    {
      "midi": 69,
      "hit": false,
      "t": 122432.66635416797,
      "d": 119.04750000000058,
      "v": 100
    },
    {
      "midi": 70,
      "hit": false,
      "t": 122432.66635416797,
      "d": 119.04750000000058,
      "v": 100
    },
    {
      "midi": 54,
      "hit": false,
      "t": 122432.66635416797,
      "d": 119.04750000000058,
      "v": 127
    },
    {
      "midi": 42,
      "hit": false,
      "t": 122432.66635416797,
      "d": 119.04750000000058,
      "v": 115
    },
    {
      "midi": 38,
      "hit": false,
      "t": 122432.66635416797,
      "d": 119.04750000000058,
      "v": 115
    },
    {
      "midi": 69,
      "hit": false,
      "t": 122670.76135416799,
      "d": 119.04750000000058,
      "v": 60
    },
    {
      "midi": 46,
      "hit": false,
      "t": 122670.76135416799,
      "d": 119.04750000000058,
      "v": 100
    },
    {
      "midi": 35,
      "hit": false,
      "t": 122670.76135416799,
      "d": 119.04750000000058,
      "v": 90
    },
    {
      "midi": 38,
      "hit": false,
      "t": 122670.76135416799,
      "d": 174.6030000000028,
      "v": 89
    },
    {
      "midi": 78,
      "hit": false,
      "t": 122670.76135416799,
      "d": 712.3008750000008,
      "v": 62
    },
    {
      "midi": 81,
      "hit": false,
      "t": 122670.76135416799,
      "d": 948.4117499999993,
      "v": 62
    },
    {
      "midi": 86,
      "hit": false,
      "t": 122670.76135416799,
      "d": 952.3800000000047,
      "v": 60
    },
    {
      "midi": 74,
      "hit": false,
      "t": 122670.76135416799,
      "d": 960.3165000000008,
      "v": 60
    },
    {
      "midi": 69,
      "hit": false,
      "t": 122908.85635416799,
      "d": 119.04750000000058,
      "v": 100
    },
    {
      "midi": 70,
      "hit": false,
      "t": 122908.85635416799,
      "d": 119.04750000000058,
      "v": 100
    },
    {
      "midi": 54,
      "hit": false,
      "t": 122908.85635416799,
      "d": 119.04750000000058,
      "v": 100
    },
    {
      "midi": 42,
      "hit": false,
      "t": 122908.85635416799,
      "d": 119.04750000000058,
      "v": 115
    },
    {
      "midi": 35,
      "hit": false,
      "t": 122908.85635416799,
      "d": 119.04750000000058,
      "v": 115
    },
    {
      "midi": 38,
      "hit": false,
      "t": 122908.85635416799,
      "d": 142.8570000000036,
      "v": 102
    },
    {
      "midi": 50,
      "hit": false,
      "t": 122908.85635416799,
      "d": 313.49175000000105,
      "v": 107
    },
    {
      "midi": 62,
      "hit": false,
      "t": 122908.85635416799,
      "d": 734.1262500000012,
      "v": 100
    },
    {
      "midi": 69,
      "hit": false,
      "t": 123146.95135416799,
      "d": 119.04750000000058,
      "v": 60
    },
    {
      "midi": 42,
      "hit": false,
      "t": 123146.95135416799,
      "d": 119.04750000000058,
      "v": 100
    },
    {
      "midi": 35,
      "hit": false,
      "t": 123146.95135416799,
      "d": 119.04750000000058,
      "v": 90
    },
    {
      "midi": 38,
      "hit": false,
      "t": 123146.95135416799,
      "d": 146.8252499999944,
      "v": 102
    },
    {
      "midi": 57,
      "hit": false,
      "t": 123146.95135416799,
      "d": 321.4282499999972,
      "v": 89
    },
    {
      "midi": 69,
      "hit": false,
      "t": 123385.046354168,
      "d": 119.04750000000058,
      "v": 100
    },
    {
      "midi": 70,
      "hit": false,
      "t": 123385.046354168,
      "d": 119.04750000000058,
      "v": 100
    },
    {
      "midi": 54,
      "hit": false,
      "t": 123385.046354168,
      "d": 119.04750000000058,
      "v": 127
    },
    {
      "midi": 42,
      "hit": false,
      "t": 123385.046354168,
      "d": 119.04750000000058,
      "v": 115
    },
    {
      "midi": 38,
      "hit": false,
      "t": 123385.046354168,
      "d": 119.04750000000058,
      "v": 115
    },
    {
      "midi": 50,
      "hit": false,
      "t": 123385.046354168,
      "d": 456.3487499999901,
      "v": 102
    },
    {
      "midi": 76,
      "hit": false,
      "t": 123623.141354168,
      "d": 117.0633749999979,
      "v": 127
    },
    {
      "midi": 69,
      "hit": false,
      "t": 123623.141354168,
      "d": 119.04750000000058,
      "v": 60
    },
    {
      "midi": 42,
      "hit": false,
      "t": 123623.141354168,
      "d": 119.04750000000058,
      "v": 100
    },
    {
      "midi": 35,
      "hit": false,
      "t": 123623.141354168,
      "d": 119.04750000000058,
      "v": 100
    },
    {
      "midi": 57,
      "hit": false,
      "t": 123623.141354168,
      "d": 178.5712499999936,
      "v": 98
    },
    {
      "midi": 38,
      "hit": false,
      "t": 123623.141354168,
      "d": 206.34899999998743,
      "v": 98
    },
    {
      "midi": 74,
      "hit": false,
      "t": 123742.188854168,
      "d": 117.06337499998335,
      "v": 127
    },
    {
      "midi": 69,
      "hit": false,
      "t": 123861.23635416798,
      "d": 119.04750000000058,
      "v": 100
    },
    {
      "midi": 70,
      "hit": false,
      "t": 123861.23635416798,
      "d": 119.04750000000058,
      "v": 100
    },
    {
      "midi": 54,
      "hit": false,
      "t": 123861.23635416798,
      "d": 119.04750000000058,
      "v": 115
    },
    {
      "midi": 38,
      "hit": false,
      "t": 123861.23635416798,
      "d": 119.04750000000058,
      "v": 127
    },
    {
      "midi": 37,
      "hit": false,
      "t": 123861.23635416798,
      "d": 150.79349999999977,
      "v": 105
    },
    {
      "midi": 76,
      "hit": false,
      "t": 123861.23635416798,
      "d": 355.15837499999907,
      "v": 60
    },
    {
      "midi": 49,
      "hit": false,
      "t": 123861.23635416798,
      "d": 722.2214999999997,
      "v": 105
    },
    {
      "midi": 56,
      "hit": false,
      "t": 123861.23635416798,
      "d": 726.189750000005,
      "v": 102
    },
    {
      "midi": 80,
      "hit": false,
      "t": 123861.23635416798,
      "d": 952.3799999999901,
      "v": 60
    },
    {
      "midi": 73,
      "hit": false,
      "t": 123861.23635416798,
      "d": 952.3799999999901,
      "v": 45
    },
    {
      "midi": 71,
      "hit": false,
      "t": 123861.23635416798,
      "d": 952.3799999999901,
      "v": 56
    },
    {
      "midi": 38,
      "hit": false,
      "t": 123980.28385416798,
      "d": 119.04750000000058,
      "v": 115
    },
    {
      "midi": 69,
      "hit": false,
      "t": 124099.33135416798,
      "d": 119.04750000000058,
      "v": 60
    },
    {
      "midi": 54,
      "hit": false,
      "t": 124099.33135416798,
      "d": 119.04750000000058,
      "v": 100
    },
    {
      "midi": 35,
      "hit": false,
      "t": 124099.33135416798,
      "d": 119.04750000000058,
      "v": 100
    },
    {
      "midi": 37,
      "hit": false,
      "t": 124099.33135416798,
      "d": 190.4759999999951,
      "v": 107
    },
    {
      "midi": 35,
      "hit": false,
      "t": 124218.37885416798,
      "d": 119.04750000000058,
      "v": 115
    },
    {
      "midi": 81,
      "hit": false,
      "t": 124218.37885416798,
      "d": 355.15837499999907,
      "v": 127
    },
    {
      "midi": 69,
      "hit": false,
      "t": 124337.42635416798,
      "d": 119.04750000000058,
      "v": 100
    },
    {
      "midi": 70,
      "hit": false,
      "t": 124337.42635416798,
      "d": 119.04750000000058,
      "v": 100
    },
    {
      "midi": 54,
      "hit": false,
      "t": 124337.42635416798,
      "d": 119.04750000000058,
      "v": 127
    },
    {
      "midi": 48,
      "hit": false,
      "t": 124337.42635416798,
      "d": 119.04750000000058,
      "v": 115
    },
    {
      "midi": 37,
      "hit": false,
      "t": 124337.42635416798,
      "d": 150.79349999999977,
      "v": 102
    },
    {
      "midi": 48,
      "hit": false,
      "t": 124456.47385416798,
      "d": 119.04750000000058,
      "v": 100
    },
    {
      "midi": 37,
      "hit": false,
      "t": 124575.52135416798,
      "d": 67.46025000000373,
      "v": 82
    },
    {
      "midi": 69,
      "hit": false,
      "t": 124575.52135416798,
      "d": 119.04750000000058,
      "v": 60
    },
    {
      "midi": 54,
      "hit": false,
      "t": 124575.52135416798,
      "d": 119.04750000000058,
      "v": 100
    },
    {
      "midi": 35,
      "hit": false,
      "t": 124575.52135416798,
      "d": 119.04750000000058,
      "v": 100
    },
    {
      "midi": 79,
      "hit": false,
      "t": 124575.52135416798,
      "d": 236.11087499998393,
      "v": 127
    },
    {
      "midi": 25,
      "hit": false,
      "t": 124694.56885416798,
      "d": 59.523749999993015,
      "v": 80
    },
    {
      "midi": 35,
      "hit": false,
      "t": 124694.56885416798,
      "d": 119.04749999998603,
      "v": 127
    },
    {
      "midi": 42,
      "hit": false,
      "t": 124813.61635416797,
      "d": 83.33324999999604,
      "v": 105
    },
    {
      "midi": 69,
      "hit": false,
      "t": 124813.61635416797,
      "d": 119.04750000000058,
      "v": 100
    },
    {
      "midi": 70,
      "hit": false,
      "t": 124813.61635416797,
      "d": 119.04750000000058,
      "v": 100
    },
    {
      "midi": 54,
      "hit": false,
      "t": 124813.61635416797,
      "d": 119.04750000000058,
      "v": 115
    },
    {
      "midi": 45,
      "hit": false,
      "t": 124813.61635416797,
      "d": 119.04750000000058,
      "v": 115
    },
    {
      "midi": 49,
      "hit": false,
      "t": 124813.61635416797,
      "d": 726.189750000005,
      "v": 102
    },
    {
      "midi": 78,
      "hit": false,
      "t": 124813.61635416797,
      "d": 952.3800000000047,
      "v": 61
    },
    {
      "midi": 45,
      "hit": false,
      "t": 124932.66385416797,
      "d": 119.04750000000058,
      "v": 100
    },
    {
      "midi": 69,
      "hit": false,
      "t": 125051.71135416797,
      "d": 119.04750000000058,
      "v": 60
    },
    {
      "midi": 54,
      "hit": false,
      "t": 125051.71135416797,
      "d": 119.04750000000058,
      "v": 100
    },
    {
      "midi": 35,
      "hit": false,
      "t": 125051.71135416797,
      "d": 119.04750000000058,
      "v": 100
    },
    {
      "midi": 42,
      "hit": false,
      "t": 125051.71135416797,
      "d": 194.44425000000047,
      "v": 116
    },
    {
      "midi": 35,
      "hit": false,
      "t": 125170.75885416797,
      "d": 119.04750000000058,
      "v": 127
    },
    {
      "midi": 69,
      "hit": false,
      "t": 125289.80635416797,
      "d": 119.04750000000058,
      "v": 100
    },
    {
      "midi": 70,
      "hit": false,
      "t": 125289.80635416797,
      "d": 119.04750000000058,
      "v": 100
    },
    {
      "midi": 54,
      "hit": false,
      "t": 125289.80635416797,
      "d": 119.04750000000058,
      "v": 127
    },
    {
      "midi": 41,
      "hit": false,
      "t": 125289.80635416797,
      "d": 119.04750000000058,
      "v": 127
    },
    {
      "midi": 42,
      "hit": false,
      "t": 125289.80635416797,
      "d": 123.01575000000594,
      "v": 110
    },
    {
      "midi": 41,
      "hit": false,
      "t": 125527.90135416797,
      "d": 0,
      "v": 110
    },
    {
      "midi": 41,
      "hit": false,
      "t": 125527.90135416797,
      "d": 99.20625000000291,
      "v": 115
    },
    {
      "midi": 69,
      "hit": false,
      "t": 125527.90135416797,
      "d": 119.04750000000058,
      "v": 60
    },
    {
      "midi": 54,
      "hit": false,
      "t": 125527.90135416797,
      "d": 119.04750000000058,
      "v": 100
    },
    {
      "midi": 41,
      "hit": false,
      "t": 125646.94885416797,
      "d": 119.04750000000058,
      "v": 100
    },
    {
      "midi": 53,
      "hit": false,
      "t": 125765.99635416798,
      "d": 27.77774999999383,
      "v": 76
    },
    {
      "midi": 69,
      "hit": false,
      "t": 125765.99635416798,
      "d": 119.04750000000058,
      "v": 100
    },
    {
      "midi": 70,
      "hit": false,
      "t": 125765.99635416798,
      "d": 119.04750000000058,
      "v": 100
    },
    {
      "midi": 54,
      "hit": false,
      "t": 125765.99635416798,
      "d": 119.04750000000058,
      "v": 100
    },
    {
      "midi": 42,
      "hit": false,
      "t": 125765.99635416798,
      "d": 119.04750000000058,
      "v": 115
    },
    {
      "midi": 35,
      "hit": false,
      "t": 125765.99635416798,
      "d": 119.04750000000058,
      "v": 127
    },
    {
      "midi": 49,
      "hit": false,
      "t": 125765.99635416798,
      "d": 198.41249999999127,
      "v": 98
    },
    {
      "midi": 78,
      "hit": false,
      "t": 125765.99635416798,
      "d": 474.2058749999851,
      "v": 60
    },
    {
      "midi": 82,
      "hit": false,
      "t": 125765.99635416798,
      "d": 952.3799999999756,
      "v": 60
    },
    {
      "midi": 73,
      "hit": false,
      "t": 125765.99635416798,
      "d": 952.3799999999756,
      "v": 45
    },
    {
      "midi": 42,
      "hit": false,
      "t": 126004.09135416796,
      "d": 3.968250000005355,
      "v": 90
    },
    {
      "midi": 69,
      "hit": false,
      "t": 126004.09135416796,
      "d": 119.04750000000058,
      "v": 60
    },
    {
      "midi": 35,
      "hit": false,
      "t": 126004.09135416796,
      "d": 119.04750000000058,
      "v": 115
    },
    {
      "midi": 42,
      "hit": false,
      "t": 126242.18635416796,
      "d": 43.6507500000007,
      "v": 105
    },
    {
      "midi": 69,
      "hit": false,
      "t": 126242.18635416796,
      "d": 119.04750000000058,
      "v": 100
    },
    {
      "midi": 70,
      "hit": false,
      "t": 126242.18635416796,
      "d": 119.04750000000058,
      "v": 100
    },
    {
      "midi": 54,
      "hit": false,
      "t": 126242.18635416796,
      "d": 119.04750000000058,
      "v": 127
    },
    {
      "midi": 46,
      "hit": false,
      "t": 126242.18635416796,
      "d": 119.04750000000058,
      "v": 100
    },
    {
      "midi": 38,
      "hit": false,
      "t": 126242.18635416796,
      "d": 119.04750000000058,
      "v": 127
    },
    {
      "midi": 49,
      "hit": false,
      "t": 126242.18635416796,
      "d": 246.03150000001187,
      "v": 102
    },
    {
      "midi": 42,
      "hit": false,
      "t": 126480.28135416796,
      "d": 67.46025000000373,
      "v": 116
    },
    {
      "midi": 69,
      "hit": false,
      "t": 126480.28135416796,
      "d": 119.04750000000058,
      "v": 60
    },
    {
      "midi": 35,
      "hit": false,
      "t": 126480.28135416796,
      "d": 119.04750000000058,
      "v": 115
    },
    {
      "midi": 30,
      "hit": false,
      "t": 126599.32885416796,
      "d": 59.523749999993015,
      "v": 80
    },
    {
      "midi": 69,
      "hit": false,
      "t": 126718.37635416795,
      "d": 119.04750000001513,
      "v": 100
    },
    {
      "midi": 70,
      "hit": false,
      "t": 126718.37635416795,
      "d": 119.04750000001513,
      "v": 100
    },
    {
      "midi": 54,
      "hit": false,
      "t": 126718.37635416795,
      "d": 119.04750000001513,
      "v": 100
    },
    {
      "midi": 38,
      "hit": false,
      "t": 126718.37635416795,
      "d": 119.04750000001513,
      "v": 127
    },
    {
      "midi": 79,
      "hit": false,
      "t": 126718.37635416795,
      "d": 476.19000000003143,
      "v": 61
    },
    {
      "midi": 71,
      "hit": false,
      "t": 126718.37635416795,
      "d": 476.19000000003143,
      "v": 50
    },
    {
      "midi": 43,
      "hit": false,
      "t": 126734.24935416796,
      "d": 154.76175000000512,
      "v": 98
    },
    {
      "midi": 55,
      "hit": false,
      "t": 126738.21760416796,
      "d": 369.0472500000178,
      "v": 91
    },
    {
      "midi": 50,
      "hit": false,
      "t": 126742.18585416797,
      "d": 357.14250000000175,
      "v": 100
    },
    {
      "midi": 38,
      "hit": false,
      "t": 126837.42385416797,
      "d": 119.04750000000058,
      "v": 90
    },
    {
      "midi": 69,
      "hit": false,
      "t": 126956.47135416797,
      "d": 119.04750000000058,
      "v": 60
    },
    {
      "midi": 35,
      "hit": false,
      "t": 126956.47135416797,
      "d": 119.04750000000058,
      "v": 115
    },
    {
      "midi": 43,
      "hit": false,
      "t": 126956.47135416797,
      "d": 146.82525000000896,
      "v": 85
    },
    {
      "midi": 35,
      "hit": false,
      "t": 127075.51885416797,
      "d": 119.04750000001513,
      "v": 100
    },
    {
      "midi": 69,
      "hit": false,
      "t": 127194.56635416798,
      "d": 119.04750000001513,
      "v": 100
    },
    {
      "midi": 70,
      "hit": false,
      "t": 127194.56635416798,
      "d": 119.04750000001513,
      "v": 100
    },
    {
      "midi": 54,
      "hit": false,
      "t": 127194.56635416798,
      "d": 119.04750000001513,
      "v": 127
    },
    {
      "midi": 46,
      "hit": false,
      "t": 127194.56635416798,
      "d": 119.04750000001513,
      "v": 115
    },
    {
      "midi": 38,
      "hit": false,
      "t": 127194.56635416798,
      "d": 119.04750000001513,
      "v": 115
    },
    {
      "midi": 33,
      "hit": false,
      "t": 127194.56635416798,
      "d": 170.634750000012,
      "v": 102
    },
    {
      "midi": 73,
      "hit": false,
      "t": 127194.56635416798,
      "d": 476.19000000003143,
      "v": 61
    },
    {
      "midi": 64,
      "hit": false,
      "t": 127194.56635416798,
      "d": 476.19000000003143,
      "v": 50
    },
    {
      "midi": 45,
      "hit": false,
      "t": 127210.43935416799,
      "d": 369.0472500000178,
      "v": 98
    },
    {
      "midi": 57,
      "hit": false,
      "t": 127214.407604168,
      "d": 369.0472500000178,
      "v": 91
    },
    {
      "midi": 52,
      "hit": false,
      "t": 127218.375854168,
      "d": 357.14250000000175,
      "v": 100
    },
    {
      "midi": 69,
      "hit": false,
      "t": 127432.661354168,
      "d": 119.04750000000058,
      "v": 60
    },
    {
      "midi": 46,
      "hit": false,
      "t": 127432.661354168,
      "d": 119.04750000000058,
      "v": 100
    },
    {
      "midi": 38,
      "hit": false,
      "t": 127432.661354168,
      "d": 119.04750000000058,
      "v": 100
    },
    {
      "midi": 33,
      "hit": false,
      "t": 127432.661354168,
      "d": 158.73000000001048,
      "v": 85
    },
    {
      "midi": 59,
      "hit": false,
      "t": 127670.75635416801,
      "d": 31.745999999999185,
      "v": 105
    },
    {
      "midi": 69,
      "hit": false,
      "t": 127670.75635416801,
      "d": 119.04750000000058,
      "v": 100
    },
    {
      "midi": 70,
      "hit": false,
      "t": 127670.75635416801,
      "d": 119.04750000000058,
      "v": 100
    },
    {
      "midi": 54,
      "hit": false,
      "t": 127670.75635416801,
      "d": 119.04750000000058,
      "v": 100
    },
    {
      "midi": 49,
      "hit": false,
      "t": 127670.75635416801,
      "d": 119.04750000000058,
      "v": 100
    },
    {
      "midi": 42,
      "hit": false,
      "t": 127670.75635416801,
      "d": 119.04750000000058,
      "v": 115
    },
    {
      "midi": 35,
      "hit": false,
      "t": 127670.75635416801,
      "d": 119.04750000000058,
      "v": 115
    },
    {
      "midi": 47,
      "hit": false,
      "t": 127670.75635416801,
      "d": 158.72999999999593,
      "v": 107
    },
    {
      "midi": 74,
      "hit": false,
      "t": 127670.75635416801,
      "d": 355.1583749999845,
      "v": 61
    },
    {
      "midi": 66,
      "hit": false,
      "t": 127670.75635416801,
      "d": 952.3799999999901,
      "v": 50
    },
    {
      "midi": 23,
      "hit": false,
      "t": 127789.80385416801,
      "d": 111.11099999998987,
      "v": 82
    },
    {
      "midi": 69,
      "hit": false,
      "t": 127908.851354168,
      "d": 119.04750000000058,
      "v": 60
    },
    {
      "midi": 42,
      "hit": false,
      "t": 127908.851354168,
      "d": 119.04750000000058,
      "v": 100
    },
    {
      "midi": 35,
      "hit": false,
      "t": 127908.851354168,
      "d": 119.04750000000058,
      "v": 100
    },
    {
      "midi": 47,
      "hit": false,
      "t": 127908.851354168,
      "d": 706.3485000000073,
      "v": 107
    },
    {
      "midi": 42,
      "hit": false,
      "t": 128027.898854168,
      "d": 119.04750000000058,
      "v": 90
    },
    {
      "midi": 73,
      "hit": false,
      "t": 128027.898854168,
      "d": 355.1583750000136,
      "v": 127
    },
    {
      "midi": 69,
      "hit": false,
      "t": 128146.946354168,
      "d": 119.04750000000058,
      "v": 100
    },
    {
      "midi": 70,
      "hit": false,
      "t": 128146.946354168,
      "d": 119.04750000000058,
      "v": 100
    },
    {
      "midi": 54,
      "hit": false,
      "t": 128146.946354168,
      "d": 119.04750000000058,
      "v": 127
    },
    {
      "midi": 42,
      "hit": false,
      "t": 128146.946354168,
      "d": 119.04750000000058,
      "v": 115
    },
    {
      "midi": 38,
      "hit": false,
      "t": 128146.946354168,
      "d": 119.04750000000058,
      "v": 115
    },
    {
      "midi": 35,
      "hit": false,
      "t": 128146.946354168,
      "d": 154.76175000000512,
      "v": 107
    },
    {
      "midi": 54,
      "hit": false,
      "t": 128385.04135416802,
      "d": 39.68249999999534,
      "v": 76
    },
    {
      "midi": 69,
      "hit": false,
      "t": 128385.04135416802,
      "d": 119.04750000000058,
      "v": 60
    },
    {
      "midi": 42,
      "hit": false,
      "t": 128385.04135416802,
      "d": 119.04750000000058,
      "v": 100
    },
    {
      "midi": 35,
      "hit": false,
      "t": 128385.04135416802,
      "d": 119.04750000000058,
      "v": 100
    },
    {
      "midi": 74,
      "hit": false,
      "t": 128385.04135416802,
      "d": 236.11087499998393,
      "v": 127
    },
    {
      "midi": 59,
      "hit": false,
      "t": 128385.04135416802,
      "d": 238.0949999999866,
      "v": 95
    },
    {
      "midi": 55,
      "hit": false,
      "t": 128623.136354168,
      "d": 31.745999999999185,
      "v": 105
    },
    {
      "midi": 43,
      "hit": false,
      "t": 128623.136354168,
      "d": 83.33324999999604,
      "v": 107
    },
    {
      "midi": 69,
      "hit": false,
      "t": 128623.136354168,
      "d": 119.04750000000058,
      "v": 100
    },
    {
      "midi": 70,
      "hit": false,
      "t": 128623.136354168,
      "d": 119.04750000000058,
      "v": 100
    },
    {
      "midi": 54,
      "hit": false,
      "t": 128623.136354168,
      "d": 119.04750000000058,
      "v": 100
    },
    {
      "midi": 42,
      "hit": false,
      "t": 128623.136354168,
      "d": 119.04750000000058,
      "v": 115
    },
    {
      "midi": 35,
      "hit": false,
      "t": 128623.136354168,
      "d": 119.04750000000058,
      "v": 115
    },
    {
      "midi": 76,
      "hit": false,
      "t": 128623.136354168,
      "d": 236.1108749999985,
      "v": 127
    },
    {
      "midi": 50,
      "hit": false,
      "t": 128623.136354168,
      "d": 325.39650000000256,
      "v": 102
    },
    {
      "midi": 79,
      "hit": false,
      "t": 128623.136354168,
      "d": 857.1420000000071,
      "v": 55
    },
    {
      "midi": 83,
      "hit": false,
      "t": 128623.136354168,
      "d": 857.1420000000071,
      "v": 48
    },
    {
      "midi": 71,
      "hit": false,
      "t": 128623.136354168,
      "d": 880.9515000000101,
      "v": 61
    },
    {
      "midi": 69,
      "hit": false,
      "t": 128861.231354168,
      "d": 119.04750000000058,
      "v": 60
    },
    {
      "midi": 42,
      "hit": false,
      "t": 128861.231354168,
      "d": 119.04750000000058,
      "v": 100
    },
    {
      "midi": 35,
      "hit": false,
      "t": 128861.231354168,
      "d": 119.04750000000058,
      "v": 90
    },
    {
      "midi": 43,
      "hit": false,
      "t": 128861.231354168,
      "d": 194.44425000000047,
      "v": 107
    },
    {
      "midi": 74,
      "hit": false,
      "t": 128861.231354168,
      "d": 236.1108749999985,
      "v": 127
    },
    {
      "midi": 69,
      "hit": false,
      "t": 129099.326354168,
      "d": 119.04750000000058,
      "v": 100
    },
    {
      "midi": 70,
      "hit": false,
      "t": 129099.326354168,
      "d": 119.04750000000058,
      "v": 100
    },
    {
      "midi": 54,
      "hit": false,
      "t": 129099.326354168,
      "d": 119.04750000000058,
      "v": 127
    },
    {
      "midi": 42,
      "hit": false,
      "t": 129099.326354168,
      "d": 119.04750000000058,
      "v": 115
    },
    {
      "midi": 38,
      "hit": false,
      "t": 129099.326354168,
      "d": 119.04750000000058,
      "v": 115
    },
    {
      "midi": 43,
      "hit": false,
      "t": 129099.326354168,
      "d": 123.01575000000594,
      "v": 110
    },
    {
      "midi": 50,
      "hit": false,
      "t": 129099.326354168,
      "d": 210.31725000000733,
      "v": 100
    },
    {
      "midi": 73,
      "hit": false,
      "t": 129099.326354168,
      "d": 236.11087500001304,
      "v": 127
    },
    {
      "midi": 50,
      "hit": false,
      "t": 129337.42135416802,
      "d": 39.68249999999534,
      "v": 76
    },
    {
      "midi": 32,
      "hit": false,
      "t": 129337.42135416802,
      "d": 99.20624999998836,
      "v": 110
    },
    {
      "midi": 69,
      "hit": false,
      "t": 129337.42135416802,
      "d": 119.04749999998603,
      "v": 60
    },
    {
      "midi": 42,
      "hit": false,
      "t": 129337.42135416802,
      "d": 119.04749999998603,
      "v": 100
    },
    {
      "midi": 35,
      "hit": false,
      "t": 129337.42135416802,
      "d": 119.04749999998603,
      "v": 100
    },
    {
      "midi": 74,
      "hit": false,
      "t": 129337.42135416802,
      "d": 236.11087499998393,
      "v": 127
    },
    {
      "midi": 55,
      "hit": false,
      "t": 129337.42135416802,
      "d": 238.0949999999866,
      "v": 95
    },
    {
      "midi": 33,
      "hit": false,
      "t": 129575.51635416801,
      "d": 83.33324999999604,
      "v": 105
    },
    {
      "midi": 69,
      "hit": false,
      "t": 129575.51635416801,
      "d": 119.04750000000058,
      "v": 100
    },
    {
      "midi": 70,
      "hit": false,
      "t": 129575.51635416801,
      "d": 119.04750000000058,
      "v": 100
    },
    {
      "midi": 54,
      "hit": false,
      "t": 129575.51635416801,
      "d": 119.04750000000058,
      "v": 100
    },
    {
      "midi": 42,
      "hit": false,
      "t": 129575.51635416801,
      "d": 119.04750000000058,
      "v": 115
    },
    {
      "midi": 35,
      "hit": false,
      "t": 129575.51635416801,
      "d": 119.04750000000058,
      "v": 115
    },
    {
      "midi": 76,
      "hit": false,
      "t": 129575.51635416801,
      "d": 355.15837499999907,
      "v": 48
    },
    {
      "midi": 45,
      "hit": false,
      "t": 129575.51635416801,
      "d": 722.2215000000142,
      "v": 105
    },
    {
      "midi": 52,
      "hit": false,
      "t": 129575.51635416801,
      "d": 726.1897500000196,
      "v": 102
    },
    {
      "midi": 73,
      "hit": false,
      "t": 129575.51635416801,
      "d": 857.1420000000217,
      "v": 55
    },
    {
      "midi": 64,
      "hit": false,
      "t": 129575.51635416801,
      "d": 880.9515000000247,
      "v": 61
    },
    {
      "midi": 69,
      "hit": false,
      "t": 129813.61135416801,
      "d": 119.04750000000058,
      "v": 60
    },
    {
      "midi": 42,
      "hit": false,
      "t": 129813.61135416801,
      "d": 119.04750000000058,
      "v": 70
    },
    {
      "midi": 35,
      "hit": false,
      "t": 129813.61135416801,
      "d": 119.04750000000058,
      "v": 100
    },
    {
      "midi": 33,
      "hit": false,
      "t": 129813.61135416801,
      "d": 194.44425000000047,
      "v": 116
    },
    {
      "midi": 78,
      "hit": false,
      "t": 129932.65885416801,
      "d": 355.1583750000136,
      "v": 127
    },
    {
      "midi": 69,
      "hit": false,
      "t": 130051.70635416801,
      "d": 119.04750000000058,
      "v": 100
    },
    {
      "midi": 70,
      "hit": false,
      "t": 130051.70635416801,
      "d": 119.04750000000058,
      "v": 100
    },
    {
      "midi": 54,
      "hit": false,
      "t": 130051.70635416801,
      "d": 119.04750000000058,
      "v": 127
    },
    {
      "midi": 42,
      "hit": false,
      "t": 130051.70635416801,
      "d": 119.04750000000058,
      "v": 100
    },
    {
      "midi": 38,
      "hit": false,
      "t": 130051.70635416801,
      "d": 119.04750000000058,
      "v": 115
    },
    {
      "midi": 33,
      "hit": false,
      "t": 130051.70635416801,
      "d": 123.01575000000594,
      "v": 110
    },
    {
      "midi": 37,
      "hit": false,
      "t": 130289.80135416803,
      "d": 99.20625000000291,
      "v": 110
    },
    {
      "midi": 69,
      "hit": false,
      "t": 130289.80135416803,
      "d": 119.04750000000058,
      "v": 60
    },
    {
      "midi": 42,
      "hit": false,
      "t": 130289.80135416803,
      "d": 119.04750000000058,
      "v": 90
    },
    {
      "midi": 35,
      "hit": false,
      "t": 130289.80135416803,
      "d": 119.04750000000058,
      "v": 100
    },
    {
      "midi": 79,
      "hit": false,
      "t": 130289.80135416803,
      "d": 236.11087500001304,
      "v": 127
    },
    {
      "midi": 69,
      "hit": false,
      "t": 130527.89635416804,
      "d": 119.04750000000058,
      "v": 100
    },
    {
      "midi": 70,
      "hit": false,
      "t": 130527.89635416804,
      "d": 119.04750000000058,
      "v": 100
    },
    {
      "midi": 54,
      "hit": false,
      "t": 130527.89635416804,
      "d": 119.04750000000058,
      "v": 100
    },
    {
      "midi": 42,
      "hit": false,
      "t": 130527.89635416804,
      "d": 119.04750000000058,
      "v": 115
    },
    {
      "midi": 35,
      "hit": false,
      "t": 130527.89635416804,
      "d": 119.04750000000058,
      "v": 115
    },
    {
      "midi": 38,
      "hit": false,
      "t": 130527.89635416804,
      "d": 150.79349999999977,
      "v": 107
    },
    {
      "midi": 79,
      "hit": false,
      "t": 130527.89635416804,
      "d": 236.1108749999985,
      "v": 127
    },
    {
      "midi": 50,
      "hit": false,
      "t": 130527.89635416804,
      "d": 722.2214999999851,
      "v": 105
    },
    {
      "midi": 57,
      "hit": false,
      "t": 130527.89635416804,
      "d": 726.1897499999905,
      "v": 102
    },
    {
      "midi": 81,
      "hit": false,
      "t": 130527.89635416804,
      "d": 952.3800000000047,
      "v": 60
    },
    {
      "midi": 74,
      "hit": false,
      "t": 130527.89635416804,
      "d": 952.3800000000047,
      "v": 45
    },
    {
      "midi": 26,
      "hit": false,
      "t": 130646.94385416804,
      "d": 111.11100000000442,
      "v": 82
    },
    {
      "midi": 69,
      "hit": false,
      "t": 130765.99135416804,
      "d": 119.04750000000058,
      "v": 60
    },
    {
      "midi": 42,
      "hit": false,
      "t": 130765.99135416804,
      "d": 119.04750000000058,
      "v": 90
    },
    {
      "midi": 35,
      "hit": false,
      "t": 130765.99135416804,
      "d": 119.04750000000058,
      "v": 90
    },
    {
      "midi": 38,
      "hit": false,
      "t": 130765.99135416804,
      "d": 126.98399999999674,
      "v": 89
    },
    {
      "midi": 78,
      "hit": false,
      "t": 130765.99135416804,
      "d": 236.1108749999985,
      "v": 127
    },
    {
      "midi": 69,
      "hit": false,
      "t": 131004.08635416804,
      "d": 119.04749999998603,
      "v": 100
    },
    {
      "midi": 70,
      "hit": false,
      "t": 131004.08635416804,
      "d": 119.04749999998603,
      "v": 100
    },
    {
      "midi": 54,
      "hit": false,
      "t": 131004.08635416804,
      "d": 119.04749999998603,
      "v": 127
    },
    {
      "midi": 42,
      "hit": false,
      "t": 131004.08635416804,
      "d": 119.04749999998603,
      "v": 115
    },
    {
      "midi": 38,
      "hit": false,
      "t": 131004.08635416804,
      "d": 119.04749999998603,
      "v": 115
    },
    {
      "midi": 69,
      "hit": false,
      "t": 131242.18135416802,
      "d": 119.04750000001513,
      "v": 60
    },
    {
      "midi": 42,
      "hit": false,
      "t": 131242.18135416802,
      "d": 119.04750000001513,
      "v": 90
    },
    {
      "midi": 35,
      "hit": false,
      "t": 131242.18135416802,
      "d": 119.04750000001513,
      "v": 100
    },
    {
      "midi": 38,
      "hit": false,
      "t": 131242.18135416802,
      "d": 170.63475000002654,
      "v": 82
    },
    {
      "midi": 46,
      "hit": false,
      "t": 131361.22885416803,
      "d": 119.04750000001513,
      "v": 100
    },
    {
      "midi": 69,
      "hit": false,
      "t": 131480.27635416805,
      "d": 119.04749999998603,
      "v": 100
    },
    {
      "midi": 70,
      "hit": false,
      "t": 131480.27635416805,
      "d": 119.04749999998603,
      "v": 100
    },
    {
      "midi": 54,
      "hit": false,
      "t": 131480.27635416805,
      "d": 119.04749999998603,
      "v": 100
    },
    {
      "midi": 42,
      "hit": false,
      "t": 131480.27635416805,
      "d": 119.04749999998603,
      "v": 115
    },
    {
      "midi": 35,
      "hit": false,
      "t": 131480.27635416805,
      "d": 119.04749999998603,
      "v": 115
    },
    {
      "midi": 40,
      "hit": false,
      "t": 131480.27635416805,
      "d": 150.79349999999977,
      "v": 105
    },
    {
      "midi": 52,
      "hit": false,
      "t": 131480.27635416805,
      "d": 246.03150000001187,
      "v": 110
    },
    {
      "midi": 59,
      "hit": false,
      "t": 131480.27635416805,
      "d": 257.93624999999884,
      "v": 113
    },
    {
      "midi": 71,
      "hit": false,
      "t": 131480.27635416805,
      "d": 355.15837499999907,
      "v": 45
    },
    {
      "midi": 74,
      "hit": false,
      "t": 131480.27635416805,
      "d": 952.3799999999756,
      "v": 60
    },
    {
      "midi": 67,
      "hit": false,
      "t": 131480.27635416805,
      "d": 952.3799999999756,
      "v": 56
    },
    {
      "midi": 69,
      "hit": false,
      "t": 131718.37135416805,
      "d": 119.04749999998603,
      "v": 60
    },
    {
      "midi": 42,
      "hit": false,
      "t": 131718.37135416805,
      "d": 119.04749999998603,
      "v": 90
    },
    {
      "midi": 35,
      "hit": false,
      "t": 131718.37135416805,
      "d": 119.04749999998603,
      "v": 100
    },
    {
      "midi": 40,
      "hit": false,
      "t": 131837.41885416803,
      "d": 71.42850000000908,
      "v": 26
    },
    {
      "midi": 78,
      "hit": false,
      "t": 131837.41885416803,
      "d": 355.15837499999907,
      "v": 127
    },
    {
      "midi": 40,
      "hit": false,
      "t": 131956.46635416805,
      "d": 59.523749999993015,
      "v": 102
    },
    {
      "midi": 69,
      "hit": false,
      "t": 131956.46635416805,
      "d": 119.04749999998603,
      "v": 100
    },
    {
      "midi": 70,
      "hit": false,
      "t": 131956.46635416805,
      "d": 119.04749999998603,
      "v": 100
    },
    {
      "midi": 54,
      "hit": false,
      "t": 131956.46635416805,
      "d": 119.04749999998603,
      "v": 127
    },
    {
      "midi": 42,
      "hit": false,
      "t": 131956.46635416805,
      "d": 119.04749999998603,
      "v": 115
    },
    {
      "midi": 38,
      "hit": false,
      "t": 131956.46635416805,
      "d": 119.04749999998603,
      "v": 115
    },
    {
      "midi": 59,
      "hit": false,
      "t": 131956.46635416805,
      "d": 210.31724999999278,
      "v": 100
    },
    {
      "midi": 52,
      "hit": false,
      "t": 131956.46635416805,
      "d": 234.1267499999958,
      "v": 105
    },
    {
      "midi": 40,
      "hit": false,
      "t": 132194.56135416802,
      "d": 67.46025000000373,
      "v": 116
    },
    {
      "midi": 69,
      "hit": false,
      "t": 132194.56135416802,
      "d": 119.04750000001513,
      "v": 60
    },
    {
      "midi": 46,
      "hit": false,
      "t": 132194.56135416802,
      "d": 119.04750000001513,
      "v": 100
    },
    {
      "midi": 35,
      "hit": false,
      "t": 132194.56135416802,
      "d": 119.04750000001513,
      "v": 90
    },
    {
      "midi": 76,
      "hit": false,
      "t": 132194.56135416802,
      "d": 236.11087500001304,
      "v": 127
    },
    {
      "midi": 28,
      "hit": false,
      "t": 132313.60885416804,
      "d": 59.523749999993015,
      "v": 80
    },
    {
      "midi": 69,
      "hit": false,
      "t": 132432.65635416802,
      "d": 119.04749999998603,
      "v": 100
    },
    {
      "midi": 70,
      "hit": false,
      "t": 132432.65635416802,
      "d": 119.04749999998603,
      "v": 100
    },
    {
      "midi": 54,
      "hit": false,
      "t": 132432.65635416802,
      "d": 119.04749999998603,
      "v": 100
    },
    {
      "midi": 42,
      "hit": false,
      "t": 132432.65635416802,
      "d": 119.04749999998603,
      "v": 115
    },
    {
      "midi": 35,
      "hit": false,
      "t": 132432.65635416802,
      "d": 119.04749999998603,
      "v": 115
    },
    {
      "midi": 33,
      "hit": false,
      "t": 132432.65635416802,
      "d": 150.79349999999977,
      "v": 105
    },
    {
      "midi": 81,
      "hit": false,
      "t": 132432.65635416802,
      "d": 355.15837499999907,
      "v": 127
    },
    {
      "midi": 45,
      "hit": false,
      "t": 132432.65635416802,
      "d": 722.2215000000142,
      "v": 105
    },
    {
      "midi": 52,
      "hit": false,
      "t": 132432.65635416802,
      "d": 726.1897500000196,
      "v": 102
    },
    {
      "midi": 73,
      "hit": false,
      "t": 132432.65635416802,
      "d": 857.1420000000217,
      "v": 55
    },
    {
      "midi": 76,
      "hit": false,
      "t": 132432.65635416802,
      "d": 857.1420000000217,
      "v": 59
    },
    {
      "midi": 67,
      "hit": false,
      "t": 132432.65635416802,
      "d": 880.9515000000247,
      "v": 61
    },
    {
      "midi": 69,
      "hit": false,
      "t": 132670.75135416802,
      "d": 119.04749999998603,
      "v": 60
    },
    {
      "midi": 42,
      "hit": false,
      "t": 132670.75135416802,
      "d": 119.04749999998603,
      "v": 100
    },
    {
      "midi": 35,
      "hit": false,
      "t": 132670.75135416802,
      "d": 119.04749999998603,
      "v": 90
    },
    {
      "midi": 33,
      "hit": false,
      "t": 132670.75135416802,
      "d": 190.4759999999951,
      "v": 107
    },
    {
      "midi": 79,
      "hit": false,
      "t": 132789.798854168,
      "d": 355.1583750000282,
      "v": 127
    },
    {
      "midi": 69,
      "hit": false,
      "t": 132908.84635416802,
      "d": 119.04749999998603,
      "v": 100
    },
    {
      "midi": 70,
      "hit": false,
      "t": 132908.84635416802,
      "d": 119.04749999998603,
      "v": 100
    },
    {
      "midi": 54,
      "hit": false,
      "t": 132908.84635416802,
      "d": 119.04749999998603,
      "v": 127
    },
    {
      "midi": 42,
      "hit": false,
      "t": 132908.84635416802,
      "d": 119.04749999998603,
      "v": 115
    },
    {
      "midi": 38,
      "hit": false,
      "t": 132908.84635416802,
      "d": 119.04749999998603,
      "v": 115
    },
    {
      "midi": 33,
      "hit": false,
      "t": 132908.84635416802,
      "d": 150.79349999999977,
      "v": 102
    },
    {
      "midi": 33,
      "hit": false,
      "t": 133146.94135416803,
      "d": 67.46025000000373,
      "v": 116
    },
    {
      "midi": 69,
      "hit": false,
      "t": 133146.94135416803,
      "d": 119.04750000001513,
      "v": 60
    },
    {
      "midi": 42,
      "hit": false,
      "t": 133146.94135416803,
      "d": 119.04750000001513,
      "v": 100
    },
    {
      "midi": 35,
      "hit": false,
      "t": 133146.94135416803,
      "d": 119.04750000001513,
      "v": 100
    },
    {
      "midi": 78,
      "hit": false,
      "t": 133146.94135416803,
      "d": 236.11087500001304,
      "v": 127
    },
    {
      "midi": 21,
      "hit": false,
      "t": 133265.98885416804,
      "d": 59.523749999993015,
      "v": 80
    },
    {
      "midi": 62,
      "hit": false,
      "t": 133385.03635416803,
      "d": 31.746000000013737,
      "v": 105
    },
    {
      "midi": 69,
      "hit": false,
      "t": 133385.03635416803,
      "d": 119.04750000001513,
      "v": 100
    },
    {
      "midi": 70,
      "hit": false,
      "t": 133385.03635416803,
      "d": 119.04750000001513,
      "v": 100
    },
    {
      "midi": 54,
      "hit": false,
      "t": 133385.03635416803,
      "d": 119.04750000001513,
      "v": 100
    },
    {
      "midi": 42,
      "hit": false,
      "t": 133385.03635416803,
      "d": 119.04750000001513,
      "v": 115
    },
    {
      "midi": 35,
      "hit": false,
      "t": 133385.03635416803,
      "d": 119.04750000001513,
      "v": 115
    },
    {
      "midi": 38,
      "hit": false,
      "t": 133385.03635416803,
      "d": 150.79350000002887,
      "v": 107
    },
    {
      "midi": 50,
      "hit": false,
      "t": 133385.03635416803,
      "d": 158.73000000003958,
      "v": 107
    },
    {
      "midi": 57,
      "hit": false,
      "t": 133385.03635416803,
      "d": 325.39650000006077,
      "v": 102
    },
    {
      "midi": 76,
      "hit": false,
      "t": 133385.03635416803,
      "d": 355.1583750000573,
      "v": 127
    },
    {
      "midi": 26,
      "hit": false,
      "t": 133504.08385416804,
      "d": 111.11100000003353,
      "v": 82
    },
    {
      "midi": 69,
      "hit": false,
      "t": 133623.1313541681,
      "d": 119.04749999998603,
      "v": 60
    },
    {
      "midi": 42,
      "hit": false,
      "t": 133623.1313541681,
      "d": 119.04749999998603,
      "v": 90
    },
    {
      "midi": 35,
      "hit": false,
      "t": 133623.1313541681,
      "d": 119.04749999998603,
      "v": 100
    },
    {
      "midi": 38,
      "hit": false,
      "t": 133623.1313541681,
      "d": 126.98399999999674,
      "v": 89
    },
    {
      "midi": 74,
      "hit": false,
      "t": 133623.1313541681,
      "d": 198.41250000000582,
      "v": 8
    },
    {
      "midi": 50,
      "hit": false,
      "t": 133623.1313541681,
      "d": 706.3484999999346,
      "v": 107
    },
    {
      "midi": 78,
      "hit": false,
      "t": 133742.17885416807,
      "d": 83.33325000002515,
      "v": 127
    },
    {
      "midi": 69,
      "hit": false,
      "t": 133861.2263541681,
      "d": 119.04749999998603,
      "v": 100
    },
    {
      "midi": 70,
      "hit": false,
      "t": 133861.2263541681,
      "d": 119.04749999998603,
      "v": 100
    },
    {
      "midi": 54,
      "hit": false,
      "t": 133861.2263541681,
      "d": 119.04749999998603,
      "v": 127
    },
    {
      "midi": 42,
      "hit": false,
      "t": 133861.2263541681,
      "d": 119.04749999998603,
      "v": 115
    },
    {
      "midi": 38,
      "hit": false,
      "t": 133861.2263541681,
      "d": 119.04749999998603,
      "v": 115
    },
    {
      "midi": 57,
      "hit": false,
      "t": 133861.2263541681,
      "d": 210.31724999996368,
      "v": 100
    },
    {
      "midi": 57,
      "hit": false,
      "t": 134099.32135416803,
      "d": 39.68249999999534,
      "v": 76
    },
    {
      "midi": 69,
      "hit": false,
      "t": 134099.32135416803,
      "d": 119.04749999998603,
      "v": 60
    },
    {
      "midi": 42,
      "hit": false,
      "t": 134099.32135416803,
      "d": 119.04749999998603,
      "v": 90
    },
    {
      "midi": 35,
      "hit": false,
      "t": 134099.32135416803,
      "d": 119.04749999998603,
      "v": 100
    },
    {
      "midi": 38,
      "hit": false,
      "t": 134099.32135416803,
      "d": 170.63474999999744,
      "v": 113
    },
    {
      "midi": 79,
      "hit": false,
      "t": 134099.32135416803,
      "d": 236.11087499998393,
      "v": 127
    },
    {
      "midi": 62,
      "hit": false,
      "t": 134099.32135416803,
      "d": 238.09499999997206,
      "v": 95
    },
    {
      "midi": 69,
      "hit": false,
      "t": 134337.416354168,
      "d": 119.04749999998603,
      "v": 100
    },
    {
      "midi": 70,
      "hit": false,
      "t": 134337.416354168,
      "d": 119.04749999998603,
      "v": 100
    },
    {
      "midi": 54,
      "hit": false,
      "t": 134337.416354168,
      "d": 119.04749999998603,
      "v": 100
    },
    {
      "midi": 42,
      "hit": false,
      "t": 134337.416354168,
      "d": 119.04749999998603,
      "v": 115
    },
    {
      "midi": 35,
      "hit": false,
      "t": 134337.416354168,
      "d": 119.04749999998603,
      "v": 115
    },
    {
      "midi": 49,
      "hit": false,
      "t": 134337.416354168,
      "d": 257.93624999999884,
      "v": 113
    },
    {
      "midi": 78,
      "hit": false,
      "t": 134337.416354168,
      "d": 950.3958750000165,
      "v": 60
    },
    {
      "midi": 76,
      "hit": false,
      "t": 134337.416354168,
      "d": 952.3800000000047,
      "v": 60
    },
    {
      "midi": 73,
      "hit": false,
      "t": 134337.416354168,
      "d": 952.3800000000047,
      "v": 45
    },
    {
      "midi": 42,
      "hit": false,
      "t": 134575.511354168,
      "d": 7.93650000001071,
      "v": 100
    },
    {
      "midi": 69,
      "hit": false,
      "t": 134575.511354168,
      "d": 119.04749999998603,
      "v": 60
    },
    {
      "midi": 35,
      "hit": false,
      "t": 134575.511354168,
      "d": 119.04749999998603,
      "v": 100
    },
    {
      "midi": 42,
      "hit": false,
      "t": 134694.558854168,
      "d": 0,
      "v": 26
    },
    {
      "midi": 42,
      "hit": false,
      "t": 134813.606354168,
      "d": 59.523749999993015,
      "v": 115
    },
    {
      "midi": 69,
      "hit": false,
      "t": 134813.606354168,
      "d": 119.04749999998603,
      "v": 100
    },
    {
      "midi": 70,
      "hit": false,
      "t": 134813.606354168,
      "d": 119.04749999998603,
      "v": 100
    },
    {
      "midi": 54,
      "hit": false,
      "t": 134813.606354168,
      "d": 119.04749999998603,
      "v": 127
    },
    {
      "midi": 38,
      "hit": false,
      "t": 134813.606354168,
      "d": 119.04749999998603,
      "v": 115
    },
    {
      "midi": 49,
      "hit": false,
      "t": 134813.606354168,
      "d": 210.31724999999278,
      "v": 100
    },
    {
      "midi": 42,
      "hit": false,
      "t": 135051.701354168,
      "d": 67.46025000000373,
      "v": 100
    },
    {
      "midi": 69,
      "hit": false,
      "t": 135051.701354168,
      "d": 119.04750000001513,
      "v": 60
    },
    {
      "midi": 35,
      "hit": false,
      "t": 135051.701354168,
      "d": 119.04750000001513,
      "v": 100
    },
    {
      "midi": 30,
      "hit": false,
      "t": 135170.74885416802,
      "d": 59.523749999993015,
      "v": 80
    },
    {
      "midi": 69,
      "hit": false,
      "t": 135289.796354168,
      "d": 119.04749999998603,
      "v": 100
    },
    {
      "midi": 70,
      "hit": false,
      "t": 135289.796354168,
      "d": 119.04749999998603,
      "v": 100
    },
    {
      "midi": 54,
      "hit": false,
      "t": 135289.796354168,
      "d": 119.04749999998603,
      "v": 100
    },
    {
      "midi": 42,
      "hit": false,
      "t": 135289.796354168,
      "d": 119.04749999998603,
      "v": 115
    },
    {
      "midi": 35,
      "hit": false,
      "t": 135289.796354168,
      "d": 119.04749999998603,
      "v": 115
    },
    {
      "midi": 74,
      "hit": false,
      "t": 135289.796354168,
      "d": 355.15837499999907,
      "v": 55
    },
    {
      "midi": 78,
      "hit": false,
      "t": 135289.796354168,
      "d": 857.1420000000217,
      "v": 48
    },
    {
      "midi": 66,
      "hit": false,
      "t": 135289.796354168,
      "d": 880.9515000000247,
      "v": 61
    },
    {
      "midi": 69,
      "hit": false,
      "t": 135527.891354168,
      "d": 119.04749999998603,
      "v": 60
    },
    {
      "midi": 42,
      "hit": false,
      "t": 135527.891354168,
      "d": 119.04749999998603,
      "v": 90
    },
    {
      "midi": 35,
      "hit": false,
      "t": 135527.891354168,
      "d": 119.04749999998603,
      "v": 100
    },
    {
      "midi": 59,
      "hit": false,
      "t": 135527.891354168,
      "d": 202.38074999998207,
      "v": 100
    },
    {
      "midi": 54,
      "hit": false,
      "t": 135527.891354168,
      "d": 206.34899999998743,
      "v": 91
    },
    {
      "midi": 47,
      "hit": false,
      "t": 135527.891354168,
      "d": 210.31724999999278,
      "v": 95
    },
    {
      "midi": 73,
      "hit": false,
      "t": 135646.938854168,
      "d": 355.1583750000282,
      "v": 127
    },
    {
      "midi": 69,
      "hit": false,
      "t": 135765.986354168,
      "d": 119.04749999998603,
      "v": 100
    },
    {
      "midi": 70,
      "hit": false,
      "t": 135765.986354168,
      "d": 119.04749999998603,
      "v": 100
    },
    {
      "midi": 54,
      "hit": false,
      "t": 135765.986354168,
      "d": 119.04749999998603,
      "v": 127
    },
    {
      "midi": 42,
      "hit": false,
      "t": 135765.986354168,
      "d": 119.04749999998603,
      "v": 115
    },
    {
      "midi": 38,
      "hit": false,
      "t": 135765.986354168,
      "d": 119.04749999998603,
      "v": 115
    },
    {
      "midi": 35,
      "hit": false,
      "t": 135765.986354168,
      "d": 150.79349999999977,
      "v": 102
    },
    {
      "midi": 59,
      "hit": false,
      "t": 136004.081354168,
      "d": 23.809500000003027,
      "v": 105
    },
    {
      "midi": 35,
      "hit": false,
      "t": 136004.081354168,
      "d": 67.46025000000373,
      "v": 100
    },
    {
      "midi": 69,
      "hit": false,
      "t": 136004.081354168,
      "d": 119.04750000001513,
      "v": 60
    },
    {
      "midi": 42,
      "hit": false,
      "t": 136004.081354168,
      "d": 119.04750000001513,
      "v": 90
    },
    {
      "midi": 74,
      "hit": false,
      "t": 136004.081354168,
      "d": 142.85700000001816,
      "v": 127
    },
    {
      "midi": 54,
      "hit": false,
      "t": 136004.081354168,
      "d": 194.44425000000047,
      "v": 110
    },
    {
      "midi": 47,
      "hit": false,
      "t": 136004.081354168,
      "d": 198.41250000000582,
      "v": 110
    },
    {
      "midi": 23,
      "hit": false,
      "t": 136123.12885416803,
      "d": 59.523749999993015,
      "v": 80
    },
    {
      "midi": 43,
      "hit": false,
      "t": 136242.176354168,
      "d": 83.33324999999604,
      "v": 105
    },
    {
      "midi": 69,
      "hit": false,
      "t": 136242.176354168,
      "d": 119.04749999998603,
      "v": 100
    },
    {
      "midi": 70,
      "hit": false,
      "t": 136242.176354168,
      "d": 119.04749999998603,
      "v": 100
    },
    {
      "midi": 54,
      "hit": false,
      "t": 136242.176354168,
      "d": 119.04749999998603,
      "v": 100
    },
    {
      "midi": 42,
      "hit": false,
      "t": 136242.176354168,
      "d": 119.04749999998603,
      "v": 115
    },
    {
      "midi": 35,
      "hit": false,
      "t": 136242.176354168,
      "d": 119.04749999998603,
      "v": 115
    },
    {
      "midi": 76,
      "hit": false,
      "t": 136242.176354168,
      "d": 236.11087499998393,
      "v": 127
    },
    {
      "midi": 79,
      "hit": false,
      "t": 136242.176354168,
      "d": 857.1419999999634,
      "v": 55
    },
    {
      "midi": 83,
      "hit": false,
      "t": 136242.176354168,
      "d": 857.1419999999634,
      "v": 48
    },
    {
      "midi": 71,
      "hit": false,
      "t": 136242.176354168,
      "d": 880.9514999999665,
      "v": 61
    },
    {
      "midi": 69,
      "hit": false,
      "t": 136480.27135416798,
      "d": 119.04749999998603,
      "v": 60
    },
    {
      "midi": 42,
      "hit": false,
      "t": 136480.27135416798,
      "d": 119.04749999998603,
      "v": 100
    },
    {
      "midi": 35,
      "hit": false,
      "t": 136480.27135416798,
      "d": 119.04749999998603,
      "v": 100
    },
    {
      "midi": 43,
      "hit": false,
      "t": 136480.27135416798,
      "d": 194.44425000000047,
      "v": 95
    },
    {
      "midi": 55,
      "hit": false,
      "t": 136480.27135416798,
      "d": 202.38075000001118,
      "v": 100
    },
    {
      "midi": 50,
      "hit": false,
      "t": 136480.27135416798,
      "d": 206.34900000001653,
      "v": 91
    },
    {
      "midi": 74,
      "hit": false,
      "t": 136480.27135416798,
      "d": 236.11087500001304,
      "v": 127
    },
    {
      "midi": 69,
      "hit": false,
      "t": 136718.36635416799,
      "d": 119.04749999998603,
      "v": 100
    },
    {
      "midi": 70,
      "hit": false,
      "t": 136718.36635416799,
      "d": 119.04749999998603,
      "v": 100
    },
    {
      "midi": 54,
      "hit": false,
      "t": 136718.36635416799,
      "d": 119.04749999998603,
      "v": 127
    },
    {
      "midi": 42,
      "hit": false,
      "t": 136718.36635416799,
      "d": 119.04749999998603,
      "v": 115
    },
    {
      "midi": 38,
      "hit": false,
      "t": 136718.36635416799,
      "d": 119.04749999998603,
      "v": 115
    },
    {
      "midi": 43,
      "hit": false,
      "t": 136718.36635416799,
      "d": 123.01574999999139,
      "v": 110
    },
    {
      "midi": 73,
      "hit": false,
      "t": 136718.36635416799,
      "d": 236.11087499998393,
      "v": 127
    },
    {
      "midi": 55,
      "hit": false,
      "t": 136956.46135416796,
      "d": 23.809500000003027,
      "v": 105
    },
    {
      "midi": 32,
      "hit": false,
      "t": 136956.46135416796,
      "d": 99.20625000001746,
      "v": 110
    },
    {
      "midi": 69,
      "hit": false,
      "t": 136956.46135416796,
      "d": 119.04750000001513,
      "v": 60
    },
    {
      "midi": 42,
      "hit": false,
      "t": 136956.46135416796,
      "d": 119.04750000001513,
      "v": 100
    },
    {
      "midi": 35,
      "hit": false,
      "t": 136956.46135416796,
      "d": 119.04750000001513,
      "v": 100
    },
    {
      "midi": 50,
      "hit": false,
      "t": 136956.46135416796,
      "d": 194.44425000002957,
      "v": 110
    },
    {
      "midi": 43,
      "hit": false,
      "t": 136956.46135416796,
      "d": 198.41250000003492,
      "v": 110
    },
    {
      "midi": 74,
      "hit": false,
      "t": 136956.46135416796,
      "d": 236.11087500004214,
      "v": 127
    },
    {
      "midi": 57,
      "hit": false,
      "t": 137194.556354168,
      "d": 31.746000000013737,
      "v": 105
    },
    {
      "midi": 33,
      "hit": false,
      "t": 137194.556354168,
      "d": 83.33325000002515,
      "v": 105
    },
    {
      "midi": 69,
      "hit": false,
      "t": 137194.556354168,
      "d": 119.04750000001513,
      "v": 100
    },
    {
      "midi": 70,
      "hit": false,
      "t": 137194.556354168,
      "d": 119.04750000001513,
      "v": 100
    },
    {
      "midi": 54,
      "hit": false,
      "t": 137194.556354168,
      "d": 119.04750000001513,
      "v": 100
    },
    {
      "midi": 42,
      "hit": false,
      "t": 137194.556354168,
      "d": 119.04750000001513,
      "v": 115
    },
    {
      "midi": 35,
      "hit": false,
      "t": 137194.556354168,
      "d": 119.04750000001513,
      "v": 115
    },
    {
      "midi": 45,
      "hit": false,
      "t": 137194.556354168,
      "d": 158.73000000001048,
      "v": 107
    },
    {
      "midi": 52,
      "hit": false,
      "t": 137194.556354168,
      "d": 325.39650000000256,
      "v": 102
    },
    {
      "midi": 76,
      "hit": false,
      "t": 137194.556354168,
      "d": 355.15837499999907,
      "v": 127
    },
    {
      "midi": 73,
      "hit": false,
      "t": 137194.556354168,
      "d": 952.3799999999464,
      "v": 61
    },
    {
      "midi": 64,
      "hit": false,
      "t": 137194.556354168,
      "d": 952.3799999999464,
      "v": 50
    },
    {
      "midi": 69,
      "hit": false,
      "t": 137432.651354168,
      "d": 119.04749999998603,
      "v": 60
    },
    {
      "midi": 42,
      "hit": false,
      "t": 137432.651354168,
      "d": 119.04749999998603,
      "v": 100
    },
    {
      "midi": 35,
      "hit": false,
      "t": 137432.651354168,
      "d": 119.04749999998603,
      "v": 100
    },
    {
      "midi": 33,
      "hit": false,
      "t": 137432.651354168,
      "d": 194.44425000000047,
      "v": 116
    },
    {
      "midi": 45,
      "hit": false,
      "t": 137432.651354168,
      "d": 706.3484999999637,
      "v": 107
    },
    {
      "midi": 81,
      "hit": false,
      "t": 137551.69885416797,
      "d": 355.15837499999907,
      "v": 127
    },
    {
      "midi": 69,
      "hit": false,
      "t": 137670.746354168,
      "d": 119.04749999998603,
      "v": 100
    },
    {
      "midi": 70,
      "hit": false,
      "t": 137670.746354168,
      "d": 119.04749999998603,
      "v": 100
    },
    {
      "midi": 54,
      "hit": false,
      "t": 137670.746354168,
      "d": 119.04749999998603,
      "v": 127
    },
    {
      "midi": 42,
      "hit": false,
      "t": 137670.746354168,
      "d": 119.04749999998603,
      "v": 115
    },
    {
      "midi": 38,
      "hit": false,
      "t": 137670.746354168,
      "d": 119.04749999998603,
      "v": 115
    },
    {
      "midi": 33,
      "hit": false,
      "t": 137670.746354168,
      "d": 123.01574999999139,
      "v": 110
    },
    {
      "midi": 52,
      "hit": false,
      "t": 137670.746354168,
      "d": 210.31724999999278,
      "v": 100
    },
    {
      "midi": 52,
      "hit": false,
      "t": 137908.84135416796,
      "d": 39.68249999999534,
      "v": 76
    },
    {
      "midi": 37,
      "hit": false,
      "t": 137908.84135416796,
      "d": 99.20624999998836,
      "v": 110
    },
    {
      "midi": 69,
      "hit": false,
      "t": 137908.84135416796,
      "d": 119.04749999998603,
      "v": 60
    },
    {
      "midi": 42,
      "hit": false,
      "t": 137908.84135416796,
      "d": 119.04749999998603,
      "v": 100
    },
    {
      "midi": 35,
      "hit": false,
      "t": 137908.84135416796,
      "d": 119.04749999998603,
      "v": 100
    },
    {
      "midi": 76,
      "hit": false,
      "t": 137908.84135416796,
      "d": 236.11087499998393,
      "v": 127
    },
    {
      "midi": 57,
      "hit": false,
      "t": 137908.84135416796,
      "d": 238.09499999997206,
      "v": 95
    },
    {
      "midi": 69,
      "hit": false,
      "t": 138146.93635416793,
      "d": 119.04749999998603,
      "v": 100
    },
    {
      "midi": 70,
      "hit": false,
      "t": 138146.93635416793,
      "d": 119.04749999998603,
      "v": 100
    },
    {
      "midi": 54,
      "hit": false,
      "t": 138146.93635416793,
      "d": 119.04749999998603,
      "v": 100
    },
    {
      "midi": 42,
      "hit": false,
      "t": 138146.93635416793,
      "d": 119.04749999998603,
      "v": 115
    },
    {
      "midi": 35,
      "hit": false,
      "t": 138146.93635416793,
      "d": 119.04749999998603,
      "v": 115
    },
    {
      "midi": 38,
      "hit": false,
      "t": 138146.93635416793,
      "d": 150.79349999999977,
      "v": 105
    },
    {
      "midi": 79,
      "hit": false,
      "t": 138146.93635416793,
      "d": 236.11087500001304,
      "v": 127
    },
    {
      "midi": 78,
      "hit": false,
      "t": 138385.03135416794,
      "d": 117.0633749999979,
      "v": 127
    },
    {
      "midi": 69,
      "hit": false,
      "t": 138385.03135416794,
      "d": 119.04749999998603,
      "v": 60
    },
    {
      "midi": 42,
      "hit": false,
      "t": 138385.03135416794,
      "d": 119.04749999998603,
      "v": 100
    },
    {
      "midi": 35,
      "hit": false,
      "t": 138385.03135416794,
      "d": 119.04749999998603,
      "v": 100
    },
    {
      "midi": 38,
      "hit": false,
      "t": 138385.03135416794,
      "d": 190.4759999999951,
      "v": 107
    },
    {
      "midi": 62,
      "hit": false,
      "t": 138385.03135416794,
      "d": 202.38074999998207,
      "v": 100
    },
    {
      "midi": 57,
      "hit": false,
      "t": 138385.03135416794,
      "d": 206.34899999998743,
      "v": 91
    },
    {
      "midi": 50,
      "hit": false,
      "t": 138385.03135416794,
      "d": 210.31724999999278,
      "v": 95
    },
    {
      "midi": 78,
      "hit": false,
      "t": 138504.07885416792,
      "d": 593.2533750000293,
      "v": 127
    },
    {
      "midi": 69,
      "hit": false,
      "t": 138623.12635416794,
      "d": 119.04749999998603,
      "v": 100
    },
    {
      "midi": 70,
      "hit": false,
      "t": 138623.12635416794,
      "d": 119.04749999998603,
      "v": 100
    },
    {
      "midi": 54,
      "hit": false,
      "t": 138623.12635416794,
      "d": 119.04749999998603,
      "v": 127
    },
    {
      "midi": 42,
      "hit": false,
      "t": 138623.12635416794,
      "d": 119.04749999998603,
      "v": 115
    },
    {
      "midi": 38,
      "hit": false,
      "t": 138623.12635416794,
      "d": 119.04749999998603,
      "v": 115
    },
    {
      "midi": 62,
      "hit": false,
      "t": 138861.22135416794,
      "d": 23.809500000003027,
      "v": 105
    },
    {
      "midi": 38,
      "hit": false,
      "t": 138861.22135416794,
      "d": 67.46025000000373,
      "v": 116
    },
    {
      "midi": 69,
      "hit": false,
      "t": 138861.22135416794,
      "d": 119.04750000001513,
      "v": 60
    },
    {
      "midi": 42,
      "hit": false,
      "t": 138861.22135416794,
      "d": 119.04750000001513,
      "v": 80
    },
    {
      "midi": 35,
      "hit": false,
      "t": 138861.22135416794,
      "d": 119.04750000001513,
      "v": 100
    },
    {
      "midi": 57,
      "hit": false,
      "t": 138861.22135416794,
      "d": 194.44425000000047,
      "v": 110
    },
    {
      "midi": 50,
      "hit": false,
      "t": 138861.22135416794,
      "d": 198.41250000000582,
      "v": 110
    },
    {
      "midi": 26,
      "hit": false,
      "t": 138980.26885416795,
      "d": 59.523749999993015,
      "v": 80
    },
    {
      "midi": 62,
      "hit": false,
      "t": 139099.31635416794,
      "d": 31.746000000013737,
      "v": 55
    },
    {
      "midi": 69,
      "hit": false,
      "t": 139099.31635416794,
      "d": 119.04750000001513,
      "v": 100
    },
    {
      "midi": 70,
      "hit": false,
      "t": 139099.31635416794,
      "d": 119.04750000001513,
      "v": 100
    },
    {
      "midi": 54,
      "hit": false,
      "t": 139099.31635416794,
      "d": 119.04750000001513,
      "v": 100
    },
    {
      "midi": 42,
      "hit": false,
      "t": 139099.31635416794,
      "d": 119.04750000001513,
      "v": 115
    },
    {
      "midi": 35,
      "hit": false,
      "t": 139099.31635416794,
      "d": 119.04750000001513,
      "v": 115
    },
    {
      "midi": 40,
      "hit": false,
      "t": 139099.31635416794,
      "d": 150.79350000002887,
      "v": 105
    },
    {
      "midi": 52,
      "hit": false,
      "t": 139099.31635416794,
      "d": 158.73000000003958,
      "v": 107
    },
    {
      "midi": 59,
      "hit": false,
      "t": 139099.31635416794,
      "d": 325.39650000003166,
      "v": 102
    },
    {
      "midi": 71,
      "hit": false,
      "t": 139099.31635416794,
      "d": 355.1583750000282,
      "v": 127
    },
    {
      "midi": 64,
      "hit": false,
      "t": 139099.31635416794,
      "d": 488.0947500000184,
      "v": 105
    },
    {
      "midi": 74,
      "hit": false,
      "t": 139099.31635416794,
      "d": 952.3800000000047,
      "v": 61
    },
    {
      "midi": 67,
      "hit": false,
      "t": 139099.31635416794,
      "d": 952.3800000000047,
      "v": 50
    },
    {
      "midi": 69,
      "hit": false,
      "t": 139337.41135416797,
      "d": 119.04749999998603,
      "v": 60
    },
    {
      "midi": 42,
      "hit": false,
      "t": 139337.41135416797,
      "d": 119.04749999998603,
      "v": 90
    },
    {
      "midi": 35,
      "hit": false,
      "t": 139337.41135416797,
      "d": 119.04749999998603,
      "v": 100
    },
    {
      "midi": 40,
      "hit": false,
      "t": 139337.41135416797,
      "d": 190.4759999999951,
      "v": 107
    },
    {
      "midi": 52,
      "hit": false,
      "t": 139337.41135416797,
      "d": 706.3484999999928,
      "v": 107
    },
    {
      "midi": 78,
      "hit": false,
      "t": 139456.45885416795,
      "d": 355.15837499999907,
      "v": 127
    },
    {
      "midi": 69,
      "hit": false,
      "t": 139575.50635416797,
      "d": 119.04749999998603,
      "v": 100
    },
    {
      "midi": 70,
      "hit": false,
      "t": 139575.50635416797,
      "d": 119.04749999998603,
      "v": 100
    },
    {
      "midi": 54,
      "hit": false,
      "t": 139575.50635416797,
      "d": 119.04749999998603,
      "v": 127
    },
    {
      "midi": 42,
      "hit": false,
      "t": 139575.50635416797,
      "d": 119.04749999998603,
      "v": 115
    },
    {
      "midi": 38,
      "hit": false,
      "t": 139575.50635416797,
      "d": 119.04749999998603,
      "v": 115
    },
    {
      "midi": 40,
      "hit": false,
      "t": 139575.50635416797,
      "d": 150.79349999999977,
      "v": 102
    },
    {
      "midi": 59,
      "hit": false,
      "t": 139575.50635416797,
      "d": 210.31724999999278,
      "v": 100
    },
    {
      "midi": 59,
      "hit": false,
      "t": 139813.60135416794,
      "d": 39.68249999999534,
      "v": 76
    },
    {
      "midi": 40,
      "hit": false,
      "t": 139813.60135416794,
      "d": 67.46025000000373,
      "v": 116
    },
    {
      "midi": 69,
      "hit": false,
      "t": 139813.60135416794,
      "d": 119.04750000001513,
      "v": 60
    },
    {
      "midi": 42,
      "hit": false,
      "t": 139813.60135416794,
      "d": 119.04750000001513,
      "v": 90
    },
    {
      "midi": 35,
      "hit": false,
      "t": 139813.60135416794,
      "d": 119.04750000001513,
      "v": 100
    },
    {
      "midi": 76,
      "hit": false,
      "t": 139813.60135416794,
      "d": 236.11087500001304,
      "v": 127
    },
    {
      "midi": 64,
      "hit": false,
      "t": 139813.60135416794,
      "d": 238.09500000000116,
      "v": 95
    },
    {
      "midi": 28,
      "hit": false,
      "t": 139932.64885416796,
      "d": 59.523749999993015,
      "v": 80
    },
    {
      "midi": 69,
      "hit": false,
      "t": 140051.69635416794,
      "d": 119.04749999998603,
      "v": 100
    },
    {
      "midi": 70,
      "hit": false,
      "t": 140051.69635416794,
      "d": 119.04749999998603,
      "v": 100
    },
    {
      "midi": 54,
      "hit": false,
      "t": 140051.69635416794,
      "d": 119.04749999998603,
      "v": 100
    },
    {
      "midi": 42,
      "hit": false,
      "t": 140051.69635416794,
      "d": 119.04749999998603,
      "v": 115
    },
    {
      "midi": 35,
      "hit": false,
      "t": 140051.69635416794,
      "d": 119.04749999998603,
      "v": 115
    },
    {
      "midi": 49,
      "hit": false,
      "t": 140051.69635416794,
      "d": 257.93624999999884,
      "v": 113
    },
    {
      "midi": 81,
      "hit": false,
      "t": 140051.69635416794,
      "d": 355.15837499999907,
      "v": 127
    },
    {
      "midi": 76,
      "hit": false,
      "t": 140051.69635416794,
      "d": 952.3799999999756,
      "v": 60
    },
    {
      "midi": 73,
      "hit": false,
      "t": 140051.69635416794,
      "d": 952.3799999999756,
      "v": 45
    },
    {
      "midi": 42,
      "hit": false,
      "t": 140289.79135416794,
      "d": 7.93650000001071,
      "v": 100
    },
    {
      "midi": 69,
      "hit": false,
      "t": 140289.79135416794,
      "d": 119.04749999998603,
      "v": 60
    },
    {
      "midi": 35,
      "hit": false,
      "t": 140289.79135416794,
      "d": 119.04749999998603,
      "v": 100
    },
    {
      "midi": 42,
      "hit": false,
      "t": 140408.83885416793,
      "d": 0,
      "v": 26
    },
    {
      "midi": 79,
      "hit": false,
      "t": 140408.83885416793,
      "d": 355.15837499999907,
      "v": 127
    },
    {
      "midi": 42,
      "hit": false,
      "t": 140527.88635416795,
      "d": 59.523749999993015,
      "v": 115
    },
    {
      "midi": 69,
      "hit": false,
      "t": 140527.88635416795,
      "d": 119.04749999998603,
      "v": 100
    },
    {
      "midi": 70,
      "hit": false,
      "t": 140527.88635416795,
      "d": 119.04749999998603,
      "v": 100
    },
    {
      "midi": 54,
      "hit": false,
      "t": 140527.88635416795,
      "d": 119.04749999998603,
      "v": 127
    },
    {
      "midi": 38,
      "hit": false,
      "t": 140527.88635416795,
      "d": 119.04749999998603,
      "v": 115
    },
    {
      "midi": 49,
      "hit": false,
      "t": 140527.88635416795,
      "d": 210.31724999999278,
      "v": 100
    },
    {
      "midi": 42,
      "hit": false,
      "t": 140765.98135416792,
      "d": 67.46025000000373,
      "v": 100
    },
    {
      "midi": 69,
      "hit": false,
      "t": 140765.98135416792,
      "d": 119.04750000001513,
      "v": 60
    },
    {
      "midi": 35,
      "hit": false,
      "t": 140765.98135416792,
      "d": 119.04750000001513,
      "v": 100
    },
    {
      "midi": 78,
      "hit": false,
      "t": 140765.98135416792,
      "d": 236.11087500001304,
      "v": 127
    },
    {
      "midi": 30,
      "hit": false,
      "t": 140885.02885416793,
      "d": 59.523749999993015,
      "v": 80
    },
    {
      "midi": 69,
      "hit": false,
      "t": 141004.07635416792,
      "d": 119.04749999998603,
      "v": 100
    },
    {
      "midi": 70,
      "hit": false,
      "t": 141004.07635416792,
      "d": 119.04749999998603,
      "v": 100
    },
    {
      "midi": 54,
      "hit": false,
      "t": 141004.07635416792,
      "d": 119.04749999998603,
      "v": 100
    },
    {
      "midi": 42,
      "hit": false,
      "t": 141004.07635416792,
      "d": 119.04749999998603,
      "v": 115
    },
    {
      "midi": 35,
      "hit": false,
      "t": 141004.07635416792,
      "d": 119.04749999998603,
      "v": 115
    },
    {
      "midi": 43,
      "hit": false,
      "t": 141004.07635416792,
      "d": 150.79349999999977,
      "v": 110
    },
    {
      "midi": 50,
      "hit": false,
      "t": 141004.07635416792,
      "d": 257.93624999999884,
      "v": 113
    },
    {
      "midi": 76,
      "hit": false,
      "t": 141004.07635416792,
      "d": 355.15837499999907,
      "v": 127
    },
    {
      "midi": 77,
      "hit": false,
      "t": 141004.07635416792,
      "d": 952.3799999999756,
      "v": 61
    },
    {
      "midi": 43,
      "hit": false,
      "t": 141242.17135416792,
      "d": 7.93650000001071,
      "v": 107
    },
    {
      "midi": 69,
      "hit": false,
      "t": 141242.17135416792,
      "d": 119.04749999998603,
      "v": 60
    },
    {
      "midi": 42,
      "hit": false,
      "t": 141242.17135416792,
      "d": 119.04749999998603,
      "v": 70
    },
    {
      "midi": 35,
      "hit": false,
      "t": 141242.17135416792,
      "d": 119.04749999998603,
      "v": 100
    },
    {
      "midi": 43,
      "hit": false,
      "t": 141361.2188541679,
      "d": 71.42850000000908,
      "v": 26
    },
    {
      "midi": 78,
      "hit": false,
      "t": 141361.2188541679,
      "d": 355.15837499999907,
      "v": 127
    },
    {
      "midi": 43,
      "hit": false,
      "t": 141480.26635416792,
      "d": 59.523749999993015,
      "v": 102
    },
    {
      "midi": 69,
      "hit": false,
      "t": 141480.26635416792,
      "d": 119.04749999998603,
      "v": 100
    },
    {
      "midi": 70,
      "hit": false,
      "t": 141480.26635416792,
      "d": 119.04749999998603,
      "v": 100
    },
    {
      "midi": 54,
      "hit": false,
      "t": 141480.26635416792,
      "d": 119.04749999998603,
      "v": 127
    },
    {
      "midi": 42,
      "hit": false,
      "t": 141480.26635416792,
      "d": 119.04749999998603,
      "v": 100
    },
    {
      "midi": 38,
      "hit": false,
      "t": 141480.26635416792,
      "d": 119.04749999998603,
      "v": 115
    },
    {
      "midi": 50,
      "hit": false,
      "t": 141480.26635416792,
      "d": 210.31724999999278,
      "v": 100
    },
    {
      "midi": 43,
      "hit": false,
      "t": 141718.3613541679,
      "d": 67.46025000000373,
      "v": 116
    },
    {
      "midi": 69,
      "hit": false,
      "t": 141718.3613541679,
      "d": 119.04750000001513,
      "v": 60
    },
    {
      "midi": 42,
      "hit": false,
      "t": 141718.3613541679,
      "d": 119.04750000001513,
      "v": 90
    },
    {
      "midi": 35,
      "hit": false,
      "t": 141718.3613541679,
      "d": 119.04750000001513,
      "v": 100
    },
    {
      "midi": 79,
      "hit": false,
      "t": 141718.3613541679,
      "d": 236.11087500001304,
      "v": 127
    },
    {
      "midi": 31,
      "hit": false,
      "t": 141837.4088541679,
      "d": 59.523749999993015,
      "v": 80
    },
    {
      "midi": 69,
      "hit": false,
      "t": 141956.4563541679,
      "d": 119.04750000001513,
      "v": 100
    },
    {
      "midi": 70,
      "hit": false,
      "t": 141956.4563541679,
      "d": 119.04750000001513,
      "v": 100
    },
    {
      "midi": 54,
      "hit": false,
      "t": 141956.4563541679,
      "d": 119.04750000001513,
      "v": 100
    },
    {
      "midi": 42,
      "hit": false,
      "t": 141956.4563541679,
      "d": 119.04750000001513,
      "v": 115
    },
    {
      "midi": 35,
      "hit": false,
      "t": 141956.4563541679,
      "d": 119.04750000001513,
      "v": 115
    },
    {
      "midi": 33,
      "hit": false,
      "t": 141956.4563541679,
      "d": 170.63475000002654,
      "v": 102
    },
    {
      "midi": 78,
      "hit": false,
      "t": 141956.4563541679,
      "d": 474.2058750000433,
      "v": 127
    },
    {
      "midi": 73,
      "hit": false,
      "t": 141956.4563541679,
      "d": 476.19000000003143,
      "v": 11
    },
    {
      "midi": 45,
      "hit": false,
      "t": 141972.3293541679,
      "d": 369.04725000003236,
      "v": 98
    },
    {
      "midi": 57,
      "hit": false,
      "t": 141976.2976041679,
      "d": 369.04725000003236,
      "v": 91
    },
    {
      "midi": 52,
      "hit": false,
      "t": 141980.2658541679,
      "d": 357.1425000000163,
      "v": 100
    },
    {
      "midi": 69,
      "hit": false,
      "t": 142194.55135416792,
      "d": 119.04749999998603,
      "v": 60
    },
    {
      "midi": 42,
      "hit": false,
      "t": 142194.55135416792,
      "d": 119.04749999998603,
      "v": 90
    },
    {
      "midi": 35,
      "hit": false,
      "t": 142194.55135416792,
      "d": 119.04749999998603,
      "v": 90
    },
    {
      "midi": 33,
      "hit": false,
      "t": 142194.55135416792,
      "d": 158.73000000001048,
      "v": 85
    },
    {
      "midi": 69,
      "hit": false,
      "t": 142432.64635416793,
      "d": 119.04750000001513,
      "v": 100
    },
    {
      "midi": 70,
      "hit": false,
      "t": 142432.64635416793,
      "d": 119.04750000001513,
      "v": 100
    },
    {
      "midi": 42,
      "hit": false,
      "t": 142432.64635416793,
      "d": 119.04750000001513,
      "v": 115
    },
    {
      "midi": 38,
      "hit": false,
      "t": 142432.64635416793,
      "d": 119.04750000001513,
      "v": 115
    },
    {
      "midi": 78,
      "hit": false,
      "t": 142432.64635416793,
      "d": 236.11087500001304,
      "v": 127
    },
    {
      "midi": 34,
      "hit": false,
      "t": 142448.51935416792,
      "d": 154.76175000003423,
      "v": 98
    },
    {
      "midi": 54,
      "hit": false,
      "t": 142452.48760416792,
      "d": 99.20625000001746,
      "v": 91
    },
    {
      "midi": 49,
      "hit": false,
      "t": 142456.45585416793,
      "d": 357.1424999999872,
      "v": 100
    },
    {
      "midi": 76,
      "hit": false,
      "t": 142670.74135416793,
      "d": 117.0633749999979,
      "v": 127
    },
    {
      "midi": 69,
      "hit": false,
      "t": 142670.74135416793,
      "d": 119.04749999998603,
      "v": 60
    },
    {
      "midi": 42,
      "hit": false,
      "t": 142670.74135416793,
      "d": 119.04749999998603,
      "v": 90
    },
    {
      "midi": 35,
      "hit": false,
      "t": 142670.74135416793,
      "d": 119.04749999998603,
      "v": 100
    },
    {
      "midi": 34,
      "hit": false,
      "t": 142670.74135416793,
      "d": 146.8252499999944,
      "v": 85
    },
    {
      "midi": 46,
      "hit": false,
      "t": 142789.7888541679,
      "d": 119.04750000001513,
      "v": 100
    },
    {
      "midi": 35,
      "hit": false,
      "t": 142908.83635416793,
      "d": 119.04749999998603,
      "v": 115
    },
    {
      "midi": 69,
      "hit": false,
      "t": 142908.83635416793,
      "d": 119.04749999998603,
      "v": 100
    },
    {
      "midi": 70,
      "hit": false,
      "t": 142908.83635416793,
      "d": 119.04749999998603,
      "v": 100
    },
    {
      "midi": 54,
      "hit": false,
      "t": 142908.83635416793,
      "d": 119.04749999998603,
      "v": 100
    },
    {
      "midi": 42,
      "hit": false,
      "t": 142908.83635416793,
      "d": 119.04749999998603,
      "v": 115
    },
    {
      "midi": 35,
      "hit": false,
      "t": 143146.9313541679,
      "d": 119.04749999998603,
      "v": 100
    },
    {
      "midi": 69,
      "hit": false,
      "t": 143146.9313541679,
      "d": 119.04749999998603,
      "v": 60
    },
    {
      "midi": 42,
      "hit": false,
      "t": 143146.9313541679,
      "d": 119.04749999998603,
      "v": 90
    },
    {
      "midi": 35,
      "hit": false,
      "t": 143265.9788541679,
      "d": 0,
      "v": 60
    },
    {
      "midi": 69,
      "hit": false,
      "t": 143385.02635416787,
      "d": 119.04749999998603,
      "v": 100
    },
    {
      "midi": 70,
      "hit": false,
      "t": 143385.02635416787,
      "d": 119.04749999998603,
      "v": 100
    },
    {
      "midi": 54,
      "hit": false,
      "t": 143385.02635416787,
      "d": 119.04749999998603,
      "v": 127
    },
    {
      "midi": 42,
      "hit": false,
      "t": 143385.02635416787,
      "d": 119.04749999998603,
      "v": 115
    },
    {
      "midi": 38,
      "hit": false,
      "t": 143385.02635416787,
      "d": 119.04749999998603,
      "v": 115
    },
    {
      "midi": 35,
      "hit": false,
      "t": 143385.02635416787,
      "d": 126.98399999999674,
      "v": 107
    },
    {
      "midi": 47,
      "hit": false,
      "t": 143385.02635416787,
      "d": 273.80924999999115,
      "v": 110
    },
    {
      "midi": 71,
      "hit": false,
      "t": 143385.02635416787,
      "d": 3099.2032500000496,
      "v": 50
    },
    {
      "midi": 69,
      "hit": false,
      "t": 143623.12135416787,
      "d": 119.04749999998603,
      "v": 60
    },
    {
      "midi": 42,
      "hit": false,
      "t": 143623.12135416787,
      "d": 119.04749999998603,
      "v": 90
    },
    {
      "midi": 35,
      "hit": false,
      "t": 143623.12135416787,
      "d": 119.04749999998603,
      "v": 100
    },
    {
      "midi": 78,
      "hit": false,
      "t": 143623.12135416787,
      "d": 1188.4908750000177,
      "v": 50
    },
    {
      "midi": 74,
      "hit": false,
      "t": 143623.12135416787,
      "d": 2460.3150000000023,
      "v": 46
    },
    {
      "midi": 23,
      "hit": false,
      "t": 143742.16885416786,
      "d": 63.492000000027474,
      "v": 72
    },
    {
      "midi": 35,
      "hit": false,
      "t": 143861.21635416787,
      "d": 67.46025000000373,
      "v": 115
    },
    {
      "midi": 69,
      "hit": false,
      "t": 143861.21635416787,
      "d": 119.04750000001513,
      "v": 100
    },
    {
      "midi": 70,
      "hit": false,
      "t": 143861.21635416787,
      "d": 119.04750000001513,
      "v": 100
    },
    {
      "midi": 54,
      "hit": false,
      "t": 143861.21635416787,
      "d": 119.04750000001513,
      "v": 100
    },
    {
      "midi": 42,
      "hit": false,
      "t": 143861.21635416787,
      "d": 119.04750000001513,
      "v": 115
    },
    {
      "midi": 35,
      "hit": false,
      "t": 144099.31135416788,
      "d": 111.11100000000442,
      "v": 100
    },
    {
      "midi": 69,
      "hit": false,
      "t": 144099.31135416788,
      "d": 119.04750000001513,
      "v": 60
    },
    {
      "midi": 42,
      "hit": false,
      "t": 144099.31135416788,
      "d": 119.04750000001513,
      "v": 100
    },
    {
      "midi": 54,
      "hit": false,
      "t": 144099.31135416788,
      "d": 214.28550000002724,
      "v": 110
    },
    {
      "midi": 47,
      "hit": false,
      "t": 144099.31135416788,
      "d": 230.15850000001956,
      "v": 107
    },
    {
      "midi": 35,
      "hit": false,
      "t": 144337.4063541679,
      "d": 71.42850000000908,
      "v": 47
    },
    {
      "midi": 69,
      "hit": false,
      "t": 144337.4063541679,
      "d": 119.04750000001513,
      "v": 100
    },
    {
      "midi": 70,
      "hit": false,
      "t": 144337.4063541679,
      "d": 119.04750000001513,
      "v": 100
    },
    {
      "midi": 54,
      "hit": false,
      "t": 144337.4063541679,
      "d": 119.04750000001513,
      "v": 127
    },
    {
      "midi": 42,
      "hit": false,
      "t": 144337.4063541679,
      "d": 119.04750000001513,
      "v": 115
    },
    {
      "midi": 38,
      "hit": false,
      "t": 144337.4063541679,
      "d": 119.04750000001513,
      "v": 115
    },
    {
      "midi": 69,
      "hit": false,
      "t": 144575.5013541679,
      "d": 119.04749999998603,
      "v": 60
    },
    {
      "midi": 42,
      "hit": false,
      "t": 144575.5013541679,
      "d": 119.04749999998603,
      "v": 100
    },
    {
      "midi": 35,
      "hit": false,
      "t": 144575.5013541679,
      "d": 119.04749999998603,
      "v": 100
    },
    {
      "midi": 47,
      "hit": false,
      "t": 144575.5013541679,
      "d": 559.5232500000275,
      "v": 105
    },
    {
      "midi": 83,
      "hit": false,
      "t": 144575.5013541679,
      "d": 1464.2842499999679,
      "v": 52
    },
    {
      "midi": 35,
      "hit": false,
      "t": 144813.59635416788,
      "d": 111.11100000000442,
      "v": 115
    },
    {
      "midi": 69,
      "hit": false,
      "t": 144813.59635416788,
      "d": 119.04750000001513,
      "v": 100
    },
    {
      "midi": 70,
      "hit": false,
      "t": 144813.59635416788,
      "d": 119.04750000001513,
      "v": 100
    },
    {
      "midi": 54,
      "hit": false,
      "t": 144813.59635416788,
      "d": 119.04750000001513,
      "v": 100
    },
    {
      "midi": 42,
      "hit": false,
      "t": 144813.59635416788,
      "d": 119.04750000001513,
      "v": 115
    },
    {
      "midi": 66,
      "hit": false,
      "t": 144813.59635416788,
      "d": 1099.205249999999,
      "v": 127
    },
    {
      "midi": 35,
      "hit": false,
      "t": 145051.6913541679,
      "d": 31.746000000013737,
      "v": 100
    },
    {
      "midi": 69,
      "hit": false,
      "t": 145051.6913541679,
      "d": 119.04750000004424,
      "v": 60
    },
    {
      "midi": 42,
      "hit": false,
      "t": 145051.6913541679,
      "d": 119.04750000004424,
      "v": 90
    },
    {
      "midi": 59,
      "hit": false,
      "t": 145051.6913541679,
      "d": 607.1422499999753,
      "v": 107
    },
    {
      "midi": 69,
      "hit": false,
      "t": 145289.78635416794,
      "d": 119.04749999998603,
      "v": 100
    },
    {
      "midi": 70,
      "hit": false,
      "t": 145289.78635416794,
      "d": 119.04749999998603,
      "v": 100
    },
    {
      "midi": 54,
      "hit": false,
      "t": 145289.78635416794,
      "d": 119.04749999998603,
      "v": 127
    },
    {
      "midi": 42,
      "hit": false,
      "t": 145289.78635416794,
      "d": 119.04749999998603,
      "v": 115
    },
    {
      "midi": 38,
      "hit": false,
      "t": 145289.78635416794,
      "d": 119.04749999998603,
      "v": 115
    },
    {
      "midi": 35,
      "hit": false,
      "t": 145289.78635416794,
      "d": 138.8887499999837,
      "v": 110
    },
    {
      "midi": 69,
      "hit": false,
      "t": 145527.8813541679,
      "d": 119.04749999998603,
      "v": 60
    },
    {
      "midi": 42,
      "hit": false,
      "t": 145527.8813541679,
      "d": 119.04749999998603,
      "v": 90
    },
    {
      "midi": 35,
      "hit": false,
      "t": 145527.8813541679,
      "d": 119.04749999998603,
      "v": 100
    },
    {
      "midi": 47,
      "hit": false,
      "t": 145527.8813541679,
      "d": 587.3009999999776,
      "v": 107
    },
    {
      "midi": 69,
      "hit": false,
      "t": 145765.97635416788,
      "d": 119.04749999998603,
      "v": 100
    },
    {
      "midi": 70,
      "hit": false,
      "t": 145765.97635416788,
      "d": 119.04749999998603,
      "v": 100
    },
    {
      "midi": 54,
      "hit": false,
      "t": 145765.97635416788,
      "d": 119.04749999998603,
      "v": 100
    },
    {
      "midi": 42,
      "hit": false,
      "t": 145765.97635416788,
      "d": 119.04749999998603,
      "v": 115
    },
    {
      "midi": 35,
      "hit": false,
      "t": 145765.97635416788,
      "d": 119.04749999998603,
      "v": 115
    },
    {
      "midi": 59,
      "hit": false,
      "t": 145765.97635416788,
      "d": 603.1739999999991,
      "v": 110
    },
    {
      "midi": 69,
      "hit": false,
      "t": 146004.07135416789,
      "d": 119.04750000001513,
      "v": 60
    },
    {
      "midi": 42,
      "hit": false,
      "t": 146004.07135416789,
      "d": 119.04750000001513,
      "v": 100
    },
    {
      "midi": 35,
      "hit": false,
      "t": 146004.07135416789,
      "d": 119.04750000001513,
      "v": 100
    },
    {
      "midi": 66,
      "hit": false,
      "t": 146039.78560416788,
      "d": 472.2217500000552,
      "v": 50
    },
    {
      "midi": 69,
      "hit": false,
      "t": 146242.1663541679,
      "d": 119.04749999998603,
      "v": 100
    },
    {
      "midi": 70,
      "hit": false,
      "t": 146242.1663541679,
      "d": 119.04749999998603,
      "v": 100
    },
    {
      "midi": 54,
      "hit": false,
      "t": 146242.1663541679,
      "d": 119.04749999998603,
      "v": 127
    },
    {
      "midi": 42,
      "hit": false,
      "t": 146242.1663541679,
      "d": 119.04749999998603,
      "v": 115
    },
    {
      "midi": 38,
      "hit": false,
      "t": 146242.1663541679,
      "d": 119.04749999998603,
      "v": 115
    },
    {
      "midi": 35,
      "hit": false,
      "t": 146242.1663541679,
      "d": 138.8887500000128,
      "v": 107
    },
    {
      "midi": 47,
      "hit": false,
      "t": 146242.1663541679,
      "d": 210.3172500000219,
      "v": 102
    },
    {
      "midi": 78,
      "hit": false,
      "t": 146242.1663541679,
      "d": 230.15850000001956,
      "v": 69
    },
    {
      "midi": 83,
      "hit": false,
      "t": 146242.1663541679,
      "d": 242.06325000003562,
      "v": 84
    },
    {
      "midi": 74,
      "hit": false,
      "t": 146242.1663541679,
      "d": 242.06325000003562,
      "v": 48
    },
    {
      "midi": 69,
      "hit": false,
      "t": 146480.26135416792,
      "d": 119.04750000001513,
      "v": 60
    },
    {
      "midi": 42,
      "hit": false,
      "t": 146480.26135416792,
      "d": 119.04750000001513,
      "v": 100
    },
    {
      "midi": 35,
      "hit": false,
      "t": 146480.26135416792,
      "d": 119.04750000001513,
      "v": 100
    },
    {
      "midi": 47,
      "hit": false,
      "t": 146480.26135416792,
      "d": 170.63474999999744,
      "v": 102
    },
    {
      "midi": 54,
      "hit": false,
      "t": 146480.26135416792,
      "d": 182.5394999999844,
      "v": 102
    },
    {
      "midi": 64,
      "hit": false,
      "t": 146718.3563541679,
      "d": 31.746000000013737,
      "v": 105
    },
    {
      "midi": 69,
      "hit": false,
      "t": 146718.3563541679,
      "d": 119.04750000001513,
      "v": 100
    },
    {
      "midi": 70,
      "hit": false,
      "t": 146718.3563541679,
      "d": 119.04750000001513,
      "v": 100
    },
    {
      "midi": 54,
      "hit": false,
      "t": 146718.3563541679,
      "d": 119.04750000001513,
      "v": 100
    },
    {
      "midi": 42,
      "hit": false,
      "t": 146718.3563541679,
      "d": 119.04750000001513,
      "v": 115
    },
    {
      "midi": 35,
      "hit": false,
      "t": 146718.3563541679,
      "d": 119.04750000001513,
      "v": 127
    },
    {
      "midi": 40,
      "hit": false,
      "t": 146718.3563541679,
      "d": 150.79350000002887,
      "v": 105
    },
    {
      "midi": 52,
      "hit": false,
      "t": 146718.3563541679,
      "d": 158.73000000003958,
      "v": 107
    },
    {
      "midi": 59,
      "hit": false,
      "t": 146718.3563541679,
      "d": 325.39650000003166,
      "v": 102
    },
    {
      "midi": 69,
      "hit": false,
      "t": 146956.45135416792,
      "d": 119.04750000001513,
      "v": 60
    },
    {
      "midi": 42,
      "hit": false,
      "t": 146956.45135416792,
      "d": 119.04750000001513,
      "v": 90
    },
    {
      "midi": 35,
      "hit": false,
      "t": 146956.45135416792,
      "d": 119.04750000001513,
      "v": 115
    },
    {
      "midi": 40,
      "hit": false,
      "t": 146956.45135416792,
      "d": 190.47600000002421,
      "v": 107
    },
    {
      "midi": 71,
      "hit": false,
      "t": 146956.45135416792,
      "d": 198.41250000003492,
      "v": 8
    },
    {
      "midi": 76,
      "hit": false,
      "t": 146956.45135416792,
      "d": 202.38075000004028,
      "v": 29
    },
    {
      "midi": 52,
      "hit": false,
      "t": 146956.45135416792,
      "d": 706.348500000051,
      "v": 107
    },
    {
      "midi": 69,
      "hit": false,
      "t": 147194.54635416795,
      "d": 119.04749999998603,
      "v": 100
    },
    {
      "midi": 70,
      "hit": false,
      "t": 147194.54635416795,
      "d": 119.04749999998603,
      "v": 100
    },
    {
      "midi": 54,
      "hit": false,
      "t": 147194.54635416795,
      "d": 119.04749999998603,
      "v": 127
    },
    {
      "midi": 46,
      "hit": false,
      "t": 147194.54635416795,
      "d": 119.04749999998603,
      "v": 100
    },
    {
      "midi": 38,
      "hit": false,
      "t": 147194.54635416795,
      "d": 119.04749999998603,
      "v": 127
    },
    {
      "midi": 40,
      "hit": false,
      "t": 147194.54635416795,
      "d": 150.79349999999977,
      "v": 102
    },
    {
      "midi": 59,
      "hit": false,
      "t": 147194.54635416795,
      "d": 210.31724999999278,
      "v": 100
    },
    {
      "midi": 59,
      "hit": false,
      "t": 147432.64135416795,
      "d": 39.68249999999534,
      "v": 76
    },
    {
      "midi": 40,
      "hit": false,
      "t": 147432.64135416795,
      "d": 67.46025000000373,
      "v": 116
    },
    {
      "midi": 69,
      "hit": false,
      "t": 147432.64135416795,
      "d": 119.04750000001513,
      "v": 60
    },
    {
      "midi": 35,
      "hit": false,
      "t": 147432.64135416795,
      "d": 119.04750000001513,
      "v": 115
    },
    {
      "midi": 64,
      "hit": false,
      "t": 147432.64135416795,
      "d": 238.09500000000116,
      "v": 95
    },
    {
      "midi": 28,
      "hit": false,
      "t": 147551.68885416797,
      "d": 59.523749999993015,
      "v": 80
    },
    {
      "midi": 69,
      "hit": false,
      "t": 147670.73635416795,
      "d": 119.04749999998603,
      "v": 100
    },
    {
      "midi": 70,
      "hit": false,
      "t": 147670.73635416795,
      "d": 119.04749999998603,
      "v": 100
    },
    {
      "midi": 54,
      "hit": false,
      "t": 147670.73635416795,
      "d": 119.04749999998603,
      "v": 100
    },
    {
      "midi": 38,
      "hit": false,
      "t": 147670.73635416795,
      "d": 119.04749999998603,
      "v": 127
    },
    {
      "midi": 42,
      "hit": false,
      "t": 147670.73635416795,
      "d": 150.79349999999977,
      "v": 105
    },
    {
      "midi": 61,
      "hit": false,
      "t": 147670.73635416795,
      "d": 950.3958750000165,
      "v": 127
    },
    {
      "midi": 81,
      "hit": false,
      "t": 147670.73635416795,
      "d": 952.3800000000047,
      "v": 60
    },
    {
      "midi": 78,
      "hit": false,
      "t": 147670.73635416795,
      "d": 952.3800000000047,
      "v": 60
    },
    {
      "midi": 73,
      "hit": false,
      "t": 147670.73635416795,
      "d": 952.3800000000047,
      "v": 45
    },
    {
      "midi": 38,
      "hit": false,
      "t": 147789.78385416794,
      "d": 119.04750000001513,
      "v": 90
    },
    {
      "midi": 69,
      "hit": false,
      "t": 147908.83135416795,
      "d": 119.04749999998603,
      "v": 60
    },
    {
      "midi": 35,
      "hit": false,
      "t": 147908.83135416795,
      "d": 119.04749999998603,
      "v": 115
    },
    {
      "midi": 42,
      "hit": false,
      "t": 147908.83135416795,
      "d": 190.4759999999951,
      "v": 95
    },
    {
      "midi": 54,
      "hit": false,
      "t": 147908.83135416795,
      "d": 202.38074999998207,
      "v": 100
    },
    {
      "midi": 49,
      "hit": false,
      "t": 147908.83135416795,
      "d": 206.34899999998743,
      "v": 91
    },
    {
      "midi": 35,
      "hit": false,
      "t": 148027.87885416794,
      "d": 119.04750000001513,
      "v": 100
    },
    {
      "midi": 69,
      "hit": false,
      "t": 148146.92635416795,
      "d": 119.04749999998603,
      "v": 100
    },
    {
      "midi": 70,
      "hit": false,
      "t": 148146.92635416795,
      "d": 119.04749999998603,
      "v": 100
    },
    {
      "midi": 54,
      "hit": false,
      "t": 148146.92635416795,
      "d": 119.04749999998603,
      "v": 127
    },
    {
      "midi": 46,
      "hit": false,
      "t": 148146.92635416795,
      "d": 119.04749999998603,
      "v": 115
    },
    {
      "midi": 38,
      "hit": false,
      "t": 148146.92635416795,
      "d": 119.04749999998603,
      "v": 115
    },
    {
      "midi": 42,
      "hit": false,
      "t": 148146.92635416795,
      "d": 150.79349999999977,
      "v": 102
    },
    {
      "midi": 54,
      "hit": false,
      "t": 148385.02135416795,
      "d": 23.809500000003027,
      "v": 105
    },
    {
      "midi": 42,
      "hit": false,
      "t": 148385.02135416795,
      "d": 67.46025000000373,
      "v": 110
    },
    {
      "midi": 69,
      "hit": false,
      "t": 148385.02135416795,
      "d": 119.04750000001513,
      "v": 60
    },
    {
      "midi": 46,
      "hit": false,
      "t": 148385.02135416795,
      "d": 119.04750000001513,
      "v": 100
    },
    {
      "midi": 38,
      "hit": false,
      "t": 148385.02135416795,
      "d": 119.04750000001513,
      "v": 100
    },
    {
      "midi": 49,
      "hit": false,
      "t": 148385.02135416795,
      "d": 194.44425000000047,
      "v": 110
    },
    {
      "midi": 30,
      "hit": false,
      "t": 148504.06885416797,
      "d": 59.523749999993015,
      "v": 80
    },
    {
      "midi": 69,
      "hit": false,
      "t": 148623.11635416796,
      "d": 119.04749999998603,
      "v": 100
    },
    {
      "midi": 70,
      "hit": false,
      "t": 148623.11635416796,
      "d": 119.04749999998603,
      "v": 100
    },
    {
      "midi": 54,
      "hit": false,
      "t": 148623.11635416796,
      "d": 119.04749999998603,
      "v": 100
    },
    {
      "midi": 42,
      "hit": false,
      "t": 148623.11635416796,
      "d": 119.04749999998603,
      "v": 100
    },
    {
      "midi": 35,
      "hit": false,
      "t": 148623.11635416796,
      "d": 119.04749999998603,
      "v": 115
    },
    {
      "midi": 43,
      "hit": false,
      "t": 148623.11635416796,
      "d": 150.79349999999977,
      "v": 107
    },
    {
      "midi": 55,
      "hit": false,
      "t": 148623.11635416796,
      "d": 742.0627499999828,
      "v": 98
    },
    {
      "midi": 50,
      "hit": false,
      "t": 148623.11635416796,
      "d": 749.9992499999935,
      "v": 105
    },
    {
      "midi": 83,
      "hit": false,
      "t": 148623.11635416796,
      "d": 952.3800000000338,
      "v": 60
    },
    {
      "midi": 79,
      "hit": false,
      "t": 148623.11635416796,
      "d": 952.3800000000338,
      "v": 60
    },
    {
      "midi": 74,
      "hit": false,
      "t": 148623.11635416796,
      "d": 952.3800000000338,
      "v": 45
    },
    {
      "midi": 71,
      "hit": false,
      "t": 148623.11635416796,
      "d": 952.3800000000338,
      "v": 56
    },
    {
      "midi": 62,
      "hit": false,
      "t": 148623.11635416796,
      "d": 1902.7758750000503,
      "v": 127
    },
    {
      "midi": 31,
      "hit": false,
      "t": 148742.16385416794,
      "d": 111.11100000000442,
      "v": 82
    },
    {
      "midi": 69,
      "hit": false,
      "t": 148861.21135416796,
      "d": 119.04749999998603,
      "v": 60
    },
    {
      "midi": 42,
      "hit": false,
      "t": 148861.21135416796,
      "d": 119.04749999998603,
      "v": 90
    },
    {
      "midi": 35,
      "hit": false,
      "t": 148861.21135416796,
      "d": 119.04749999998603,
      "v": 100
    },
    {
      "midi": 43,
      "hit": false,
      "t": 148861.21135416796,
      "d": 126.98399999999674,
      "v": 89
    },
    {
      "midi": 69,
      "hit": false,
      "t": 149099.30635416796,
      "d": 119.04749999998603,
      "v": 100
    },
    {
      "midi": 70,
      "hit": false,
      "t": 149099.30635416796,
      "d": 119.04749999998603,
      "v": 100
    },
    {
      "midi": 54,
      "hit": false,
      "t": 149099.30635416796,
      "d": 119.04749999998603,
      "v": 127
    },
    {
      "midi": 46,
      "hit": false,
      "t": 149099.30635416796,
      "d": 119.04749999998603,
      "v": 100
    },
    {
      "midi": 38,
      "hit": false,
      "t": 149099.30635416796,
      "d": 119.04749999998603,
      "v": 120
    },
    {
      "midi": 43,
      "hit": false,
      "t": 149099.30635416796,
      "d": 154.76174999997602,
      "v": 107
    },
    {
      "midi": 43,
      "hit": false,
      "t": 149337.40135416793,
      "d": 43.6507500000298,
      "v": 113
    },
    {
      "midi": 69,
      "hit": false,
      "t": 149337.40135416793,
      "d": 119.04750000004424,
      "v": 60
    },
    {
      "midi": 35,
      "hit": false,
      "t": 149337.40135416793,
      "d": 119.04750000004424,
      "v": 115
    },
    {
      "midi": 69,
      "hit": false,
      "t": 149575.496354168,
      "d": 119.04749999998603,
      "v": 100
    },
    {
      "midi": 70,
      "hit": false,
      "t": 149575.496354168,
      "d": 119.04749999998603,
      "v": 100
    },
    {
      "midi": 54,
      "hit": false,
      "t": 149575.496354168,
      "d": 119.04749999998603,
      "v": 100
    },
    {
      "midi": 38,
      "hit": false,
      "t": 149575.496354168,
      "d": 119.04749999998603,
      "v": 127
    },
    {
      "midi": 35,
      "hit": false,
      "t": 149575.496354168,
      "d": 150.79349999999977,
      "v": 105
    },
    {
      "midi": 47,
      "hit": false,
      "t": 149575.496354168,
      "d": 162.69825000001583,
      "v": 105
    },
    {
      "midi": 59,
      "hit": false,
      "t": 149575.496354168,
      "d": 174.6030000000028,
      "v": 93
    },
    {
      "midi": 69,
      "hit": false,
      "t": 149813.591354168,
      "d": 119.04749999998603,
      "v": 60
    },
    {
      "midi": 35,
      "hit": false,
      "t": 149813.591354168,
      "d": 119.04749999998603,
      "v": 115
    },
    {
      "midi": 71,
      "hit": false,
      "t": 149813.591354168,
      "d": 198.41250000000582,
      "v": 58
    },
    {
      "midi": 75,
      "hit": false,
      "t": 149813.591354168,
      "d": 202.38075000001118,
      "v": 79
    },
    {
      "midi": 35,
      "hit": false,
      "t": 150051.686354168,
      "d": 55.55549999998766,
      "v": 102
    },
    {
      "midi": 69,
      "hit": false,
      "t": 150051.686354168,
      "d": 119.04749999998603,
      "v": 100
    },
    {
      "midi": 70,
      "hit": false,
      "t": 150051.686354168,
      "d": 119.04749999998603,
      "v": 100
    },
    {
      "midi": 54,
      "hit": false,
      "t": 150051.686354168,
      "d": 119.04749999998603,
      "v": 127
    },
    {
      "midi": 38,
      "hit": false,
      "t": 150051.686354168,
      "d": 119.04749999998603,
      "v": 127
    },
    {
      "midi": 59,
      "hit": false,
      "t": 150051.686354168,
      "d": 198.41250000000582,
      "v": 95
    },
    {
      "midi": 47,
      "hit": false,
      "t": 150051.686354168,
      "d": 214.28549999999814,
      "v": 102
    },
    {
      "midi": 35,
      "hit": false,
      "t": 150289.781354168,
      "d": 67.46025000000373,
      "v": 115
    },
    {
      "midi": 69,
      "hit": false,
      "t": 150289.781354168,
      "d": 119.04750000001513,
      "v": 60
    },
    {
      "midi": 59,
      "hit": false,
      "t": 150289.781354168,
      "d": 154.76175000000512,
      "v": 102
    },
    {
      "midi": 54,
      "hit": false,
      "t": 150289.781354168,
      "d": 154.76175000000512,
      "v": 100
    },
    {
      "midi": 47,
      "hit": false,
      "t": 150289.781354168,
      "d": 178.57125000000815,
      "v": 102
    },
    {
      "midi": 23,
      "hit": false,
      "t": 150408.828854168,
      "d": 59.523749999993015,
      "v": 80
    },
    {
      "midi": 69,
      "hit": false,
      "t": 150527.876354168,
      "d": 119.04750000001513,
      "v": 100
    },
    {
      "midi": 70,
      "hit": false,
      "t": 150527.876354168,
      "d": 119.04750000001513,
      "v": 100
    },
    {
      "midi": 54,
      "hit": false,
      "t": 150527.876354168,
      "d": 119.04750000001513,
      "v": 100
    },
    {
      "midi": 49,
      "hit": false,
      "t": 150527.876354168,
      "d": 119.04750000001513,
      "v": 100
    },
    {
      "midi": 42,
      "hit": false,
      "t": 150527.876354168,
      "d": 119.04750000001513,
      "v": 115
    },
    {
      "midi": 35,
      "hit": false,
      "t": 150527.876354168,
      "d": 119.04750000001513,
      "v": 115
    },
    {
      "midi": 74,
      "hit": false,
      "t": 150527.876354168,
      "d": 355.1583750000282,
      "v": 127
    },
    {
      "midi": 79,
      "hit": false,
      "t": 150527.876354168,
      "d": 476.19000000003143,
      "v": 11
    },
    {
      "midi": 43,
      "hit": false,
      "t": 150543.749354168,
      "d": 154.76175000003423,
      "v": 98
    },
    {
      "midi": 55,
      "hit": false,
      "t": 150547.717604168,
      "d": 369.04725000003236,
      "v": 91
    },
    {
      "midi": 50,
      "hit": false,
      "t": 150551.685854168,
      "d": 357.1425000000163,
      "v": 100
    },
    {
      "midi": 69,
      "hit": false,
      "t": 150765.97135416802,
      "d": 119.04749999998603,
      "v": 60
    },
    {
      "midi": 42,
      "hit": false,
      "t": 150765.97135416802,
      "d": 119.04749999998603,
      "v": 100
    },
    {
      "midi": 35,
      "hit": false,
      "t": 150765.97135416802,
      "d": 119.04749999998603,
      "v": 100
    },
    {
      "midi": 43,
      "hit": false,
      "t": 150765.97135416802,
      "d": 146.8252499999944,
      "v": 85
    },
    {
      "midi": 73,
      "hit": false,
      "t": 150885.018854168,
      "d": 355.1583750000282,
      "v": 127
    },
    {
      "midi": 69,
      "hit": false,
      "t": 151004.06635416803,
      "d": 119.04750000001513,
      "v": 100
    },
    {
      "midi": 70,
      "hit": false,
      "t": 151004.06635416803,
      "d": 119.04750000001513,
      "v": 100
    },
    {
      "midi": 38,
      "hit": false,
      "t": 151004.06635416803,
      "d": 119.04750000001513,
      "v": 115
    },
    {
      "midi": 78,
      "hit": false,
      "t": 151004.06635416803,
      "d": 476.1900000000023,
      "v": 11
    },
    {
      "midi": 42,
      "hit": false,
      "t": 151019.93935416802,
      "d": 103.17450000002282,
      "v": 98
    },
    {
      "midi": 54,
      "hit": false,
      "t": 151023.90760416802,
      "d": 99.20625000001746,
      "v": 91
    },
    {
      "midi": 49,
      "hit": false,
      "t": 151027.87585416803,
      "d": 357.1424999999872,
      "v": 100
    },
    {
      "midi": 69,
      "hit": false,
      "t": 151242.16135416803,
      "d": 119.04749999998603,
      "v": 60
    },
    {
      "midi": 42,
      "hit": false,
      "t": 151242.16135416803,
      "d": 119.04749999998603,
      "v": 100
    },
    {
      "midi": 35,
      "hit": false,
      "t": 151242.16135416803,
      "d": 119.04749999998603,
      "v": 100
    },
    {
      "midi": 74,
      "hit": false,
      "t": 151242.16135416803,
      "d": 236.11087500001304,
      "v": 127
    },
    {
      "midi": 69,
      "hit": false,
      "t": 151480.25635416803,
      "d": 119.04750000001513,
      "v": 100
    },
    {
      "midi": 70,
      "hit": false,
      "t": 151480.25635416803,
      "d": 119.04750000001513,
      "v": 100
    },
    {
      "midi": 54,
      "hit": false,
      "t": 151480.25635416803,
      "d": 119.04750000001513,
      "v": 100
    },
    {
      "midi": 42,
      "hit": false,
      "t": 151480.25635416803,
      "d": 119.04750000001513,
      "v": 115
    },
    {
      "midi": 35,
      "hit": false,
      "t": 151480.25635416803,
      "d": 119.04750000001513,
      "v": 115
    },
    {
      "midi": 40,
      "hit": false,
      "t": 151480.25635416803,
      "d": 170.63475000002654,
      "v": 102
    },
    {
      "midi": 76,
      "hit": false,
      "t": 151480.25635416803,
      "d": 236.11087500001304,
      "v": 127
    },
    {
      "midi": 52,
      "hit": false,
      "t": 151496.12935416802,
      "d": 369.04725000000326,
      "v": 98
    },
    {
      "midi": 64,
      "hit": false,
      "t": 151500.09760416803,
      "d": 369.04725000000326,
      "v": 91
    },
    {
      "midi": 59,
      "hit": false,
      "t": 151504.06585416803,
      "d": 357.1424999999872,
      "v": 100
    },
    {
      "midi": 69,
      "hit": false,
      "t": 151718.35135416803,
      "d": 119.04749999998603,
      "v": 60
    },
    {
      "midi": 42,
      "hit": false,
      "t": 151718.35135416803,
      "d": 119.04749999998603,
      "v": 100
    },
    {
      "midi": 35,
      "hit": false,
      "t": 151718.35135416803,
      "d": 119.04749999998603,
      "v": 90
    },
    {
      "midi": 40,
      "hit": false,
      "t": 151718.35135416803,
      "d": 158.73000000001048,
      "v": 85
    },
    {
      "midi": 74,
      "hit": false,
      "t": 151718.35135416803,
      "d": 236.11087500001304,
      "v": 127
    },
    {
      "midi": 69,
      "hit": false,
      "t": 151956.44635416803,
      "d": 119.04750000001513,
      "v": 100
    },
    {
      "midi": 70,
      "hit": false,
      "t": 151956.44635416803,
      "d": 119.04750000001513,
      "v": 100
    },
    {
      "midi": 38,
      "hit": false,
      "t": 151956.44635416803,
      "d": 119.04750000001513,
      "v": 115
    },
    {
      "midi": 73,
      "hit": false,
      "t": 151956.44635416803,
      "d": 236.11087500001304,
      "v": 127
    },
    {
      "midi": 76,
      "hit": false,
      "t": 151956.44635416803,
      "d": 476.1900000000023,
      "v": 11
    },
    {
      "midi": 42,
      "hit": false,
      "t": 151972.31935416802,
      "d": 103.17450000002282,
      "v": 98
    },
    {
      "midi": 54,
      "hit": false,
      "t": 151976.28760416803,
      "d": 99.20625000001746,
      "v": 91
    },
    {
      "midi": 49,
      "hit": false,
      "t": 151980.25585416803,
      "d": 357.1424999999872,
      "v": 100
    },
    {
      "midi": 69,
      "hit": false,
      "t": 152194.54135416803,
      "d": 119.04749999998603,
      "v": 60
    },
    {
      "midi": 42,
      "hit": false,
      "t": 152194.54135416803,
      "d": 119.04749999998603,
      "v": 100
    },
    {
      "midi": 35,
      "hit": false,
      "t": 152194.54135416803,
      "d": 119.04749999998603,
      "v": 100
    },
    {
      "midi": 74,
      "hit": false,
      "t": 152194.54135416803,
      "d": 236.11087500001304,
      "v": 127
    },
    {
      "midi": 69,
      "hit": false,
      "t": 152432.63635416803,
      "d": 119.04750000001513,
      "v": 100
    },
    {
      "midi": 70,
      "hit": false,
      "t": 152432.63635416803,
      "d": 119.04750000001513,
      "v": 100
    },
    {
      "midi": 35,
      "hit": false,
      "t": 152432.63635416803,
      "d": 119.04750000001513,
      "v": 115
    },
    {
      "midi": 76,
      "hit": false,
      "t": 152432.63635416803,
      "d": 355.1583750000282,
      "v": 11
    },
    {
      "midi": 42,
      "hit": false,
      "t": 152448.50935416803,
      "d": 103.17450000002282,
      "v": 98
    },
    {
      "midi": 54,
      "hit": false,
      "t": 152452.47760416803,
      "d": 99.20625000001746,
      "v": 91
    },
    {
      "midi": 49,
      "hit": false,
      "t": 152456.44585416804,
      "d": 357.1425000000163,
      "v": 100
    },
    {
      "midi": 69,
      "hit": false,
      "t": 152670.73135416806,
      "d": 119.04749999998603,
      "v": 60
    },
    {
      "midi": 42,
      "hit": false,
      "t": 152670.73135416806,
      "d": 119.04749999998603,
      "v": 90
    },
    {
      "midi": 35,
      "hit": false,
      "t": 152670.73135416806,
      "d": 119.04749999998603,
      "v": 100
    },
    {
      "midi": 78,
      "hit": false,
      "t": 152789.77885416805,
      "d": 355.1583750000282,
      "v": 127
    },
    {
      "midi": 69,
      "hit": false,
      "t": 152908.82635416806,
      "d": 119.04750000001513,
      "v": 100
    },
    {
      "midi": 70,
      "hit": false,
      "t": 152908.82635416806,
      "d": 119.04750000001513,
      "v": 100
    },
    {
      "midi": 54,
      "hit": false,
      "t": 152908.82635416806,
      "d": 119.04750000001513,
      "v": 127
    },
    {
      "midi": 42,
      "hit": false,
      "t": 152908.82635416806,
      "d": 119.04750000001513,
      "v": 115
    },
    {
      "midi": 38,
      "hit": false,
      "t": 152908.82635416806,
      "d": 119.04750000001513,
      "v": 115
    },
    {
      "midi": 37,
      "hit": false,
      "t": 152908.82635416806,
      "d": 170.63475000002654,
      "v": 102
    },
    {
      "midi": 76,
      "hit": false,
      "t": 152908.82635416806,
      "d": 476.1900000000023,
      "v": 11
    },
    {
      "midi": 49,
      "hit": false,
      "t": 152924.69935416806,
      "d": 369.04725000000326,
      "v": 98
    },
    {
      "midi": 61,
      "hit": false,
      "t": 152928.66760416806,
      "d": 369.04725000000326,
      "v": 91
    },
    {
      "midi": 56,
      "hit": false,
      "t": 152932.63585416807,
      "d": 357.1424999999872,
      "v": 100
    },
    {
      "midi": 69,
      "hit": false,
      "t": 153146.92135416807,
      "d": 119.04749999998603,
      "v": 60
    },
    {
      "midi": 42,
      "hit": false,
      "t": 153146.92135416807,
      "d": 119.04749999998603,
      "v": 90
    },
    {
      "midi": 35,
      "hit": false,
      "t": 153146.92135416807,
      "d": 119.04749999998603,
      "v": 100
    },
    {
      "midi": 37,
      "hit": false,
      "t": 153146.92135416807,
      "d": 158.73000000001048,
      "v": 85
    },
    {
      "midi": 79,
      "hit": false,
      "t": 153146.92135416807,
      "d": 238.09500000000116,
      "v": 127
    },
    {
      "midi": 36,
      "hit": false,
      "t": 153385.01635416807,
      "d": 83.33324999999604,
      "v": 105
    },
    {
      "midi": 69,
      "hit": false,
      "t": 153385.01635416807,
      "d": 119.04749999998603,
      "v": 100
    },
    {
      "midi": 70,
      "hit": false,
      "t": 153385.01635416807,
      "d": 119.04749999998603,
      "v": 100
    },
    {
      "midi": 54,
      "hit": false,
      "t": 153385.01635416807,
      "d": 119.04749999998603,
      "v": 100
    },
    {
      "midi": 42,
      "hit": false,
      "t": 153385.01635416807,
      "d": 119.04749999998603,
      "v": 115
    },
    {
      "midi": 35,
      "hit": false,
      "t": 153385.01635416807,
      "d": 119.04749999998603,
      "v": 115
    },
    {
      "midi": 79,
      "hit": false,
      "t": 153385.01635416807,
      "d": 236.11087499998393,
      "v": 60
    },
    {
      "midi": 76,
      "hit": false,
      "t": 153385.01635416807,
      "d": 952.3800000000047,
      "v": 60
    },
    {
      "midi": 72,
      "hit": false,
      "t": 153385.01635416807,
      "d": 952.3800000000047,
      "v": 45
    },
    {
      "midi": 67,
      "hit": false,
      "t": 153385.01635416807,
      "d": 952.3800000000047,
      "v": 56
    },
    {
      "midi": 69,
      "hit": false,
      "t": 153623.11135416804,
      "d": 119.04749999998603,
      "v": 60
    },
    {
      "midi": 42,
      "hit": false,
      "t": 153623.11135416804,
      "d": 119.04749999998603,
      "v": 100
    },
    {
      "midi": 35,
      "hit": false,
      "t": 153623.11135416804,
      "d": 119.04749999998603,
      "v": 100
    },
    {
      "midi": 36,
      "hit": false,
      "t": 153623.11135416804,
      "d": 194.44425000000047,
      "v": 116
    },
    {
      "midi": 60,
      "hit": false,
      "t": 153623.11135416804,
      "d": 202.38075000001118,
      "v": 100
    },
    {
      "midi": 55,
      "hit": false,
      "t": 153623.11135416804,
      "d": 206.34900000001653,
      "v": 91
    },
    {
      "midi": 48,
      "hit": false,
      "t": 153623.11135416804,
      "d": 210.3172500000219,
      "v": 95
    },
    {
      "midi": 78,
      "hit": false,
      "t": 153623.11135416804,
      "d": 236.11087500001304,
      "v": 127
    },
    {
      "midi": 69,
      "hit": false,
      "t": 153861.20635416804,
      "d": 119.04749999998603,
      "v": 100
    },
    {
      "midi": 70,
      "hit": false,
      "t": 153861.20635416804,
      "d": 119.04749999998603,
      "v": 100
    },
    {
      "midi": 54,
      "hit": false,
      "t": 153861.20635416804,
      "d": 119.04749999998603,
      "v": 127
    },
    {
      "midi": 42,
      "hit": false,
      "t": 153861.20635416804,
      "d": 119.04749999998603,
      "v": 115
    },
    {
      "midi": 38,
      "hit": false,
      "t": 153861.20635416804,
      "d": 119.04749999998603,
      "v": 115
    },
    {
      "midi": 36,
      "hit": false,
      "t": 153861.20635416804,
      "d": 123.01574999999139,
      "v": 110
    },
    {
      "midi": 60,
      "hit": false,
      "t": 154099.30135416804,
      "d": 23.809500000003027,
      "v": 105
    },
    {
      "midi": 35,
      "hit": false,
      "t": 154099.30135416804,
      "d": 99.20625000001746,
      "v": 100
    },
    {
      "midi": 69,
      "hit": false,
      "t": 154099.30135416804,
      "d": 119.04750000001513,
      "v": 60
    },
    {
      "midi": 42,
      "hit": false,
      "t": 154099.30135416804,
      "d": 119.04750000001513,
      "v": 100
    },
    {
      "midi": 55,
      "hit": false,
      "t": 154099.30135416804,
      "d": 194.44425000002957,
      "v": 110
    },
    {
      "midi": 48,
      "hit": false,
      "t": 154099.30135416804,
      "d": 198.41250000003492,
      "v": 110
    },
    {
      "midi": 69,
      "hit": false,
      "t": 154337.39635416807,
      "d": 119.04750000001513,
      "v": 100
    },
    {
      "midi": 70,
      "hit": false,
      "t": 154337.39635416807,
      "d": 119.04750000001513,
      "v": 100
    },
    {
      "midi": 54,
      "hit": false,
      "t": 154337.39635416807,
      "d": 119.04750000001513,
      "v": 100
    },
    {
      "midi": 42,
      "hit": false,
      "t": 154337.39635416807,
      "d": 119.04750000001513,
      "v": 115
    },
    {
      "midi": 35,
      "hit": false,
      "t": 154337.39635416807,
      "d": 119.04750000001513,
      "v": 115
    },
    {
      "midi": 36,
      "hit": false,
      "t": 154337.39635416807,
      "d": 170.63475000002654,
      "v": 102
    },
    {
      "midi": 71,
      "hit": false,
      "t": 154337.39635416807,
      "d": 355.1583750000282,
      "v": 127
    },
    {
      "midi": 76,
      "hit": false,
      "t": 154337.39635416807,
      "d": 476.19000000003143,
      "v": 11
    },
    {
      "midi": 48,
      "hit": false,
      "t": 154353.26935416806,
      "d": 369.04725000003236,
      "v": 98
    },
    {
      "midi": 60,
      "hit": false,
      "t": 154357.23760416807,
      "d": 369.04725000003236,
      "v": 91
    },
    {
      "midi": 55,
      "hit": false,
      "t": 154361.20585416807,
      "d": 357.1425000000163,
      "v": 100
    },
    {
      "midi": 69,
      "hit": false,
      "t": 154575.4913541681,
      "d": 119.04749999998603,
      "v": 60
    },
    {
      "midi": 42,
      "hit": false,
      "t": 154575.4913541681,
      "d": 119.04749999998603,
      "v": 90
    },
    {
      "midi": 35,
      "hit": false,
      "t": 154575.4913541681,
      "d": 119.04749999998603,
      "v": 100
    },
    {
      "midi": 36,
      "hit": false,
      "t": 154575.4913541681,
      "d": 158.73000000001048,
      "v": 85
    },
    {
      "midi": 78,
      "hit": false,
      "t": 154694.5388541681,
      "d": 355.15837499999907,
      "v": 127
    },
    {
      "midi": 40,
      "hit": false,
      "t": 154813.5863541681,
      "d": 83.33324999999604,
      "v": 105
    },
    {
      "midi": 69,
      "hit": false,
      "t": 154813.5863541681,
      "d": 119.04749999998603,
      "v": 100
    },
    {
      "midi": 70,
      "hit": false,
      "t": 154813.5863541681,
      "d": 119.04749999998603,
      "v": 100
    },
    {
      "midi": 54,
      "hit": false,
      "t": 154813.5863541681,
      "d": 119.04749999998603,
      "v": 127
    },
    {
      "midi": 42,
      "hit": false,
      "t": 154813.5863541681,
      "d": 119.04749999998603,
      "v": 115
    },
    {
      "midi": 38,
      "hit": false,
      "t": 154813.5863541681,
      "d": 119.04749999998603,
      "v": 115
    },
    {
      "midi": 52,
      "hit": false,
      "t": 154813.5863541681,
      "d": 246.03149999998277,
      "v": 110
    },
    {
      "midi": 59,
      "hit": false,
      "t": 154813.5863541681,
      "d": 257.93624999996973,
      "v": 113
    },
    {
      "midi": 74,
      "hit": false,
      "t": 154813.5863541681,
      "d": 857.1419999999634,
      "v": 55
    },
    {
      "midi": 67,
      "hit": false,
      "t": 154813.5863541681,
      "d": 880.9514999999665,
      "v": 61
    },
    {
      "midi": 69,
      "hit": false,
      "t": 155051.68135416807,
      "d": 119.04749999998603,
      "v": 60
    },
    {
      "midi": 42,
      "hit": false,
      "t": 155051.68135416807,
      "d": 119.04749999998603,
      "v": 90
    },
    {
      "midi": 35,
      "hit": false,
      "t": 155051.68135416807,
      "d": 119.04749999998603,
      "v": 100
    },
    {
      "midi": 76,
      "hit": false,
      "t": 155051.68135416807,
      "d": 236.11087500001304,
      "v": 127
    },
    {
      "midi": 40,
      "hit": false,
      "t": 155170.72885416806,
      "d": 75.39675000001444,
      "v": 26
    },
    {
      "midi": 40,
      "hit": false,
      "t": 155289.77635416808,
      "d": 59.523749999993015,
      "v": 110
    },
    {
      "midi": 69,
      "hit": false,
      "t": 155289.77635416808,
      "d": 119.04749999998603,
      "v": 100
    },
    {
      "midi": 70,
      "hit": false,
      "t": 155289.77635416808,
      "d": 119.04749999998603,
      "v": 100
    },
    {
      "midi": 54,
      "hit": false,
      "t": 155289.77635416808,
      "d": 119.04749999998603,
      "v": 100
    },
    {
      "midi": 42,
      "hit": false,
      "t": 155289.77635416808,
      "d": 119.04749999998603,
      "v": 115
    },
    {
      "midi": 35,
      "hit": false,
      "t": 155289.77635416808,
      "d": 119.04749999998603,
      "v": 115
    },
    {
      "midi": 59,
      "hit": false,
      "t": 155289.77635416808,
      "d": 210.31724999999278,
      "v": 100
    },
    {
      "midi": 52,
      "hit": false,
      "t": 155289.77635416808,
      "d": 234.1267499999958,
      "v": 105
    },
    {
      "midi": 81,
      "hit": false,
      "t": 155289.77635416808,
      "d": 355.15837499999907,
      "v": 127
    },
    {
      "midi": 32,
      "hit": false,
      "t": 155527.87135416808,
      "d": 99.20624999998836,
      "v": 110
    },
    {
      "midi": 69,
      "hit": false,
      "t": 155527.87135416808,
      "d": 119.04749999998603,
      "v": 60
    },
    {
      "midi": 42,
      "hit": false,
      "t": 155527.87135416808,
      "d": 119.04749999998603,
      "v": 100
    },
    {
      "midi": 35,
      "hit": false,
      "t": 155527.87135416808,
      "d": 119.04749999998603,
      "v": 100
    },
    {
      "midi": 79,
      "hit": false,
      "t": 155646.91885416806,
      "d": 31.746000000013737,
      "v": 127
    },
    {
      "midi": 69,
      "hit": false,
      "t": 155765.96635416808,
      "d": 119.04750000001513,
      "v": 100
    },
    {
      "midi": 70,
      "hit": false,
      "t": 155765.96635416808,
      "d": 119.04750000001513,
      "v": 100
    },
    {
      "midi": 54,
      "hit": false,
      "t": 155765.96635416808,
      "d": 119.04750000001513,
      "v": 127
    },
    {
      "midi": 42,
      "hit": false,
      "t": 155765.96635416808,
      "d": 119.04750000001513,
      "v": 115
    },
    {
      "midi": 38,
      "hit": false,
      "t": 155765.96635416808,
      "d": 119.04750000001513,
      "v": 115
    },
    {
      "midi": 33,
      "hit": false,
      "t": 155765.96635416808,
      "d": 170.63475000002654,
      "v": 102
    },
    {
      "midi": 73,
      "hit": false,
      "t": 155765.96635416808,
      "d": 476.1900000000023,
      "v": 11
    },
    {
      "midi": 45,
      "hit": false,
      "t": 155781.83935416807,
      "d": 369.04725000000326,
      "v": 98
    },
    {
      "midi": 57,
      "hit": false,
      "t": 155785.80760416808,
      "d": 369.04725000000326,
      "v": 91
    },
    {
      "midi": 52,
      "hit": false,
      "t": 155789.77585416808,
      "d": 357.1424999999872,
      "v": 100
    },
    {
      "midi": 69,
      "hit": false,
      "t": 156004.06135416808,
      "d": 119.04749999998603,
      "v": 60
    },
    {
      "midi": 42,
      "hit": false,
      "t": 156004.06135416808,
      "d": 119.04749999998603,
      "v": 100
    },
    {
      "midi": 35,
      "hit": false,
      "t": 156004.06135416808,
      "d": 119.04749999998603,
      "v": 100
    },
    {
      "midi": 33,
      "hit": false,
      "t": 156004.06135416808,
      "d": 158.73000000001048,
      "v": 85
    },
    {
      "midi": 78,
      "hit": false,
      "t": 156004.06135416808,
      "d": 236.11087500001304,
      "v": 127
    },
    {
      "midi": 69,
      "hit": false,
      "t": 156242.15635416808,
      "d": 119.04750000001513,
      "v": 100
    },
    {
      "midi": 70,
      "hit": false,
      "t": 156242.15635416808,
      "d": 119.04750000001513,
      "v": 100
    },
    {
      "midi": 54,
      "hit": false,
      "t": 156242.15635416808,
      "d": 119.04750000001513,
      "v": 100
    },
    {
      "midi": 42,
      "hit": false,
      "t": 156242.15635416808,
      "d": 119.04750000001513,
      "v": 115
    },
    {
      "midi": 35,
      "hit": false,
      "t": 156242.15635416808,
      "d": 119.04750000001513,
      "v": 115
    },
    {
      "midi": 36,
      "hit": false,
      "t": 156242.15635416808,
      "d": 170.63475000002654,
      "v": 102
    },
    {
      "midi": 76,
      "hit": false,
      "t": 156242.15635416808,
      "d": 355.1583750000282,
      "v": 11
    },
    {
      "midi": 48,
      "hit": false,
      "t": 156258.02935416807,
      "d": 369.04725000003236,
      "v": 98
    },
    {
      "midi": 60,
      "hit": false,
      "t": 156261.99760416808,
      "d": 369.04725000003236,
      "v": 91
    },
    {
      "midi": 55,
      "hit": false,
      "t": 156265.96585416808,
      "d": 357.1425000000163,
      "v": 100
    },
    {
      "midi": 69,
      "hit": false,
      "t": 156480.2513541681,
      "d": 119.04749999998603,
      "v": 60
    },
    {
      "midi": 42,
      "hit": false,
      "t": 156480.2513541681,
      "d": 119.04749999998603,
      "v": 100
    },
    {
      "midi": 35,
      "hit": false,
      "t": 156480.2513541681,
      "d": 119.04749999998603,
      "v": 100
    },
    {
      "midi": 36,
      "hit": false,
      "t": 156480.2513541681,
      "d": 158.73000000001048,
      "v": 85
    },
    {
      "midi": 69,
      "hit": false,
      "t": 156718.3463541681,
      "d": 119.04750000001513,
      "v": 100
    },
    {
      "midi": 70,
      "hit": false,
      "t": 156718.3463541681,
      "d": 119.04750000001513,
      "v": 100
    },
    {
      "midi": 54,
      "hit": false,
      "t": 156718.3463541681,
      "d": 119.04750000001513,
      "v": 127
    },
    {
      "midi": 42,
      "hit": false,
      "t": 156718.3463541681,
      "d": 119.04750000001513,
      "v": 115
    },
    {
      "midi": 38,
      "hit": false,
      "t": 156718.3463541681,
      "d": 119.04750000001513,
      "v": 115
    },
    {
      "midi": 78,
      "hit": false,
      "t": 156718.3463541681,
      "d": 236.11087500001304,
      "v": 11
    },
    {
      "midi": 50,
      "hit": false,
      "t": 156734.2193541681,
      "d": 369.04725000000326,
      "v": 98
    },
    {
      "midi": 62,
      "hit": false,
      "t": 156738.1876041681,
      "d": 369.04725000000326,
      "v": 91
    },
    {
      "midi": 57,
      "hit": false,
      "t": 156742.15585416812,
      "d": 357.1424999999872,
      "v": 100
    },
    {
      "midi": 69,
      "hit": false,
      "t": 156956.4413541681,
      "d": 119.04749999998603,
      "v": 60
    },
    {
      "midi": 42,
      "hit": false,
      "t": 156956.4413541681,
      "d": 119.04749999998603,
      "v": 100
    },
    {
      "midi": 35,
      "hit": false,
      "t": 156956.4413541681,
      "d": 119.04749999998603,
      "v": 100
    },
    {
      "midi": 38,
      "hit": false,
      "t": 156956.4413541681,
      "d": 158.73000000001048,
      "v": 85
    },
    {
      "midi": 79,
      "hit": false,
      "t": 156956.4413541681,
      "d": 236.11087500001304,
      "v": 127
    },
    {
      "midi": 78,
      "hit": false,
      "t": 157194.5363541681,
      "d": 0,
      "v": 127
    },
    {
      "midi": 69,
      "hit": false,
      "t": 157194.5363541681,
      "d": 119.04750000001513,
      "v": 100
    },
    {
      "midi": 70,
      "hit": false,
      "t": 157194.5363541681,
      "d": 119.04750000001513,
      "v": 100
    },
    {
      "midi": 54,
      "hit": false,
      "t": 157194.5363541681,
      "d": 119.04750000001513,
      "v": 100
    },
    {
      "midi": 42,
      "hit": false,
      "t": 157194.5363541681,
      "d": 119.04750000001513,
      "v": 115
    },
    {
      "midi": 35,
      "hit": false,
      "t": 157194.5363541681,
      "d": 119.04750000001513,
      "v": 115
    },
    {
      "midi": 40,
      "hit": false,
      "t": 157194.5363541681,
      "d": 170.63475000002654,
      "v": 102
    },
    {
      "midi": 76,
      "hit": false,
      "t": 157194.5363541681,
      "d": 476.19000000003143,
      "v": 11
    },
    {
      "midi": 52,
      "hit": false,
      "t": 157210.4093541681,
      "d": 369.04725000003236,
      "v": 98
    },
    {
      "midi": 64,
      "hit": false,
      "t": 157214.3776041681,
      "d": 369.04725000003236,
      "v": 91
    },
    {
      "midi": 59,
      "hit": false,
      "t": 157218.34585416812,
      "d": 357.1425000000163,
      "v": 100
    },
    {
      "midi": 69,
      "hit": false,
      "t": 157432.63135416814,
      "d": 119.04749999998603,
      "v": 60
    },
    {
      "midi": 42,
      "hit": false,
      "t": 157432.63135416814,
      "d": 119.04749999998603,
      "v": 100
    },
    {
      "midi": 35,
      "hit": false,
      "t": 157432.63135416814,
      "d": 119.04749999998603,
      "v": 100
    },
    {
      "midi": 40,
      "hit": false,
      "t": 157432.63135416814,
      "d": 158.73000000001048,
      "v": 85
    },
    {
      "midi": 69,
      "hit": false,
      "t": 157670.72635416815,
      "d": 119.04750000001513,
      "v": 100
    },
    {
      "midi": 70,
      "hit": false,
      "t": 157670.72635416815,
      "d": 119.04750000001513,
      "v": 100
    },
    {
      "midi": 38,
      "hit": false,
      "t": 157670.72635416815,
      "d": 119.04750000001513,
      "v": 115
    },
    {
      "midi": 78,
      "hit": false,
      "t": 157670.72635416815,
      "d": 474.2058750000433,
      "v": 11
    },
    {
      "midi": 42,
      "hit": false,
      "t": 157686.59935416814,
      "d": 103.17450000002282,
      "v": 98
    },
    {
      "midi": 54,
      "hit": false,
      "t": 157690.56760416814,
      "d": 99.20625000001746,
      "v": 91
    },
    {
      "midi": 49,
      "hit": false,
      "t": 157694.53585416815,
      "d": 357.1425000000163,
      "v": 100
    },
    {
      "midi": 69,
      "hit": false,
      "t": 157908.82135416818,
      "d": 119.04749999998603,
      "v": 60
    },
    {
      "midi": 42,
      "hit": false,
      "t": 157908.82135416818,
      "d": 119.04749999998603,
      "v": 80
    },
    {
      "midi": 35,
      "hit": false,
      "t": 157908.82135416818,
      "d": 119.04749999998603,
      "v": 100
    },
    {
      "midi": 69,
      "hit": false,
      "t": 158146.91635416818,
      "d": 119.04749999998603,
      "v": 100
    },
    {
      "midi": 70,
      "hit": false,
      "t": 158146.91635416818,
      "d": 119.04749999998603,
      "v": 100
    },
    {
      "midi": 54,
      "hit": false,
      "t": 158146.91635416818,
      "d": 119.04749999998603,
      "v": 100
    },
    {
      "midi": 42,
      "hit": false,
      "t": 158146.91635416818,
      "d": 119.04749999998603,
      "v": 115
    },
    {
      "midi": 35,
      "hit": false,
      "t": 158146.91635416818,
      "d": 119.04749999998603,
      "v": 115
    },
    {
      "midi": 74,
      "hit": false,
      "t": 158146.91635416818,
      "d": 355.15837499999907,
      "v": 55
    },
    {
      "midi": 47,
      "hit": false,
      "t": 158146.91635416818,
      "d": 722.2214999999851,
      "v": 105
    },
    {
      "midi": 78,
      "hit": false,
      "t": 158146.91635416818,
      "d": 857.1419999999925,
      "v": 48
    },
    {
      "midi": 66,
      "hit": false,
      "t": 158146.91635416818,
      "d": 880.9514999999956,
      "v": 61
    },
    {
      "midi": 23,
      "hit": false,
      "t": 158265.96385416816,
      "d": 111.11100000000442,
      "v": 82
    },
    {
      "midi": 69,
      "hit": false,
      "t": 158385.01135416818,
      "d": 119.04749999998603,
      "v": 60
    },
    {
      "midi": 42,
      "hit": false,
      "t": 158385.01135416818,
      "d": 119.04749999998603,
      "v": 100
    },
    {
      "midi": 35,
      "hit": false,
      "t": 158385.01135416818,
      "d": 119.04749999998603,
      "v": 100
    },
    {
      "midi": 73,
      "hit": false,
      "t": 158504.05885416816,
      "d": 355.15837499999907,
      "v": 127
    },
    {
      "midi": 69,
      "hit": false,
      "t": 158623.10635416818,
      "d": 119.04749999998603,
      "v": 100
    },
    {
      "midi": 70,
      "hit": false,
      "t": 158623.10635416818,
      "d": 119.04749999998603,
      "v": 100
    },
    {
      "midi": 54,
      "hit": false,
      "t": 158623.10635416818,
      "d": 119.04749999998603,
      "v": 127
    },
    {
      "midi": 42,
      "hit": false,
      "t": 158623.10635416818,
      "d": 119.04749999998603,
      "v": 115
    },
    {
      "midi": 38,
      "hit": false,
      "t": 158623.10635416818,
      "d": 119.04749999998603,
      "v": 115
    },
    {
      "midi": 35,
      "hit": false,
      "t": 158623.10635416818,
      "d": 154.76174999997602,
      "v": 107
    },
    {
      "midi": 69,
      "hit": false,
      "t": 158861.20135416815,
      "d": 119.04750000001513,
      "v": 60
    },
    {
      "midi": 42,
      "hit": false,
      "t": 158861.20135416815,
      "d": 119.04750000001513,
      "v": 100
    },
    {
      "midi": 35,
      "hit": false,
      "t": 158861.20135416815,
      "d": 119.04750000001513,
      "v": 100
    },
    {
      "midi": 74,
      "hit": false,
      "t": 158861.20135416815,
      "d": 142.85700000001816,
      "v": 127
    },
    {
      "midi": 69,
      "hit": false,
      "t": 159099.29635416815,
      "d": 119.04749999998603,
      "v": 100
    },
    {
      "midi": 70,
      "hit": false,
      "t": 159099.29635416815,
      "d": 119.04749999998603,
      "v": 100
    },
    {
      "midi": 54,
      "hit": false,
      "t": 159099.29635416815,
      "d": 119.04749999998603,
      "v": 100
    },
    {
      "midi": 42,
      "hit": false,
      "t": 159099.29635416815,
      "d": 119.04749999998603,
      "v": 115
    },
    {
      "midi": 35,
      "hit": false,
      "t": 159099.29635416815,
      "d": 119.04749999998603,
      "v": 115
    },
    {
      "midi": 43,
      "hit": false,
      "t": 159099.29635416815,
      "d": 150.79349999999977,
      "v": 105
    },
    {
      "midi": 76,
      "hit": false,
      "t": 159099.29635416815,
      "d": 236.11087500001304,
      "v": 127
    },
    {
      "midi": 79,
      "hit": false,
      "t": 159099.29635416815,
      "d": 952.3799999999756,
      "v": 61
    },
    {
      "midi": 71,
      "hit": false,
      "t": 159099.29635416815,
      "d": 952.3799999999756,
      "v": 50
    },
    {
      "midi": 69,
      "hit": false,
      "t": 159337.39135416815,
      "d": 119.04749999998603,
      "v": 60
    },
    {
      "midi": 42,
      "hit": false,
      "t": 159337.39135416815,
      "d": 119.04749999998603,
      "v": 100
    },
    {
      "midi": 35,
      "hit": false,
      "t": 159337.39135416815,
      "d": 119.04749999998603,
      "v": 100
    },
    {
      "midi": 43,
      "hit": false,
      "t": 159337.39135416815,
      "d": 190.4759999999951,
      "v": 95
    },
    {
      "midi": 55,
      "hit": false,
      "t": 159337.39135416815,
      "d": 202.38074999998207,
      "v": 100
    },
    {
      "midi": 50,
      "hit": false,
      "t": 159337.39135416815,
      "d": 206.34899999998743,
      "v": 91
    },
    {
      "midi": 74,
      "hit": false,
      "t": 159337.39135416815,
      "d": 236.11087499998393,
      "v": 127
    },
    {
      "midi": 69,
      "hit": false,
      "t": 159575.48635416813,
      "d": 119.04749999998603,
      "v": 100
    },
    {
      "midi": 70,
      "hit": false,
      "t": 159575.48635416813,
      "d": 119.04749999998603,
      "v": 100
    },
    {
      "midi": 54,
      "hit": false,
      "t": 159575.48635416813,
      "d": 119.04749999998603,
      "v": 127
    },
    {
      "midi": 42,
      "hit": false,
      "t": 159575.48635416813,
      "d": 119.04749999998603,
      "v": 115
    },
    {
      "midi": 38,
      "hit": false,
      "t": 159575.48635416813,
      "d": 119.04749999998603,
      "v": 115
    },
    {
      "midi": 43,
      "hit": false,
      "t": 159575.48635416813,
      "d": 150.79349999999977,
      "v": 102
    },
    {
      "midi": 73,
      "hit": false,
      "t": 159575.48635416813,
      "d": 236.11087500001304,
      "v": 127
    },
    {
      "midi": 55,
      "hit": false,
      "t": 159813.58135416813,
      "d": 23.809500000003027,
      "v": 105
    },
    {
      "midi": 43,
      "hit": false,
      "t": 159813.58135416813,
      "d": 67.46025000000373,
      "v": 110
    },
    {
      "midi": 69,
      "hit": false,
      "t": 159813.58135416813,
      "d": 119.04750000001513,
      "v": 60
    },
    {
      "midi": 42,
      "hit": false,
      "t": 159813.58135416813,
      "d": 119.04750000001513,
      "v": 80
    },
    {
      "midi": 35,
      "hit": false,
      "t": 159813.58135416813,
      "d": 119.04750000001513,
      "v": 100
    },
    {
      "midi": 50,
      "hit": false,
      "t": 159813.58135416813,
      "d": 194.44425000000047,
      "v": 110
    },
    {
      "midi": 74,
      "hit": false,
      "t": 159813.58135416813,
      "d": 236.11087500001304,
      "v": 127
    },
    {
      "midi": 31,
      "hit": false,
      "t": 159932.62885416814,
      "d": 59.523749999993015,
      "v": 80
    },
    {
      "midi": 57,
      "hit": false,
      "t": 160051.67635416813,
      "d": 31.746000000013737,
      "v": 105
    },
    {
      "midi": 69,
      "hit": false,
      "t": 160051.67635416813,
      "d": 119.04750000001513,
      "v": 100
    },
    {
      "midi": 70,
      "hit": false,
      "t": 160051.67635416813,
      "d": 119.04750000001513,
      "v": 100
    },
    {
      "midi": 54,
      "hit": false,
      "t": 160051.67635416813,
      "d": 119.04750000001513,
      "v": 100
    },
    {
      "midi": 42,
      "hit": false,
      "t": 160051.67635416813,
      "d": 119.04750000001513,
      "v": 115
    },
    {
      "midi": 35,
      "hit": false,
      "t": 160051.67635416813,
      "d": 119.04750000001513,
      "v": 115
    },
    {
      "midi": 33,
      "hit": false,
      "t": 160051.67635416813,
      "d": 150.79350000002887,
      "v": 107
    },
    {
      "midi": 45,
      "hit": false,
      "t": 160051.67635416813,
      "d": 158.73000000003958,
      "v": 107
    },
    {
      "midi": 52,
      "hit": false,
      "t": 160051.67635416813,
      "d": 325.39650000006077,
      "v": 102
    },
    {
      "midi": 76,
      "hit": false,
      "t": 160051.67635416813,
      "d": 355.1583750000573,
      "v": 48
    },
    {
      "midi": 73,
      "hit": false,
      "t": 160051.67635416813,
      "d": 857.1419999999925,
      "v": 55
    },
    {
      "midi": 64,
      "hit": false,
      "t": 160051.67635416813,
      "d": 880.9514999999956,
      "v": 61
    },
    {
      "midi": 21,
      "hit": false,
      "t": 160170.72385416814,
      "d": 111.11100000003353,
      "v": 82
    },
    {
      "midi": 69,
      "hit": false,
      "t": 160289.7713541682,
      "d": 119.04749999998603,
      "v": 60
    },
    {
      "midi": 42,
      "hit": false,
      "t": 160289.7713541682,
      "d": 119.04749999998603,
      "v": 100
    },
    {
      "midi": 35,
      "hit": false,
      "t": 160289.7713541682,
      "d": 119.04749999998603,
      "v": 100
    },
    {
      "midi": 33,
      "hit": false,
      "t": 160289.7713541682,
      "d": 126.98399999999674,
      "v": 89
    },
    {
      "midi": 45,
      "hit": false,
      "t": 160289.7713541682,
      "d": 706.3484999999346,
      "v": 107
    },
    {
      "midi": 81,
      "hit": false,
      "t": 160408.81885416817,
      "d": 355.15837499996996,
      "v": 127
    },
    {
      "midi": 69,
      "hit": false,
      "t": 160527.8663541682,
      "d": 119.04749999998603,
      "v": 100
    },
    {
      "midi": 70,
      "hit": false,
      "t": 160527.8663541682,
      "d": 119.04749999998603,
      "v": 100
    },
    {
      "midi": 54,
      "hit": false,
      "t": 160527.8663541682,
      "d": 119.04749999998603,
      "v": 127
    },
    {
      "midi": 42,
      "hit": false,
      "t": 160527.8663541682,
      "d": 119.04749999998603,
      "v": 115
    },
    {
      "midi": 38,
      "hit": false,
      "t": 160527.8663541682,
      "d": 119.04749999998603,
      "v": 115
    },
    {
      "midi": 33,
      "hit": false,
      "t": 160527.8663541682,
      "d": 154.76174999997602,
      "v": 107
    },
    {
      "midi": 52,
      "hit": false,
      "t": 160527.8663541682,
      "d": 210.31724999996368,
      "v": 100
    },
    {
      "midi": 52,
      "hit": false,
      "t": 160765.96135416813,
      "d": 39.68249999999534,
      "v": 76
    },
    {
      "midi": 69,
      "hit": false,
      "t": 160765.96135416813,
      "d": 119.04749999998603,
      "v": 60
    },
    {
      "midi": 42,
      "hit": false,
      "t": 160765.96135416813,
      "d": 119.04749999998603,
      "v": 100
    },
    {
      "midi": 35,
      "hit": false,
      "t": 160765.96135416813,
      "d": 119.04749999998603,
      "v": 100
    },
    {
      "midi": 76,
      "hit": false,
      "t": 160765.96135416813,
      "d": 142.85699999998906,
      "v": 127
    },
    {
      "midi": 33,
      "hit": false,
      "t": 160765.96135416813,
      "d": 170.63474999999744,
      "v": 113
    },
    {
      "midi": 57,
      "hit": false,
      "t": 160765.96135416813,
      "d": 238.09499999997206,
      "v": 95
    },
    {
      "midi": 38,
      "hit": false,
      "t": 161004.0563541681,
      "d": 0,
      "v": 107
    },
    {
      "midi": 62,
      "hit": false,
      "t": 161004.0563541681,
      "d": 31.746000000013737,
      "v": 105
    },
    {
      "midi": 69,
      "hit": false,
      "t": 161004.0563541681,
      "d": 119.04750000001513,
      "v": 100
    },
    {
      "midi": 70,
      "hit": false,
      "t": 161004.0563541681,
      "d": 119.04750000001513,
      "v": 100
    },
    {
      "midi": 54,
      "hit": false,
      "t": 161004.0563541681,
      "d": 119.04750000001513,
      "v": 100
    },
    {
      "midi": 42,
      "hit": false,
      "t": 161004.0563541681,
      "d": 119.04750000001513,
      "v": 115
    },
    {
      "midi": 35,
      "hit": false,
      "t": 161004.0563541681,
      "d": 119.04750000001513,
      "v": 115
    },
    {
      "midi": 50,
      "hit": false,
      "t": 161004.0563541681,
      "d": 158.73000000003958,
      "v": 107
    },
    {
      "midi": 79,
      "hit": false,
      "t": 161004.0563541681,
      "d": 236.11087500004214,
      "v": 127
    },
    {
      "midi": 57,
      "hit": false,
      "t": 161004.0563541681,
      "d": 325.39650000003166,
      "v": 102
    },
    {
      "midi": 81,
      "hit": false,
      "t": 161004.0563541681,
      "d": 952.3799999999756,
      "v": 60
    },
    {
      "midi": 74,
      "hit": false,
      "t": 161004.0563541681,
      "d": 952.3799999999756,
      "v": 45
    },
    {
      "midi": 26,
      "hit": false,
      "t": 161123.10385416812,
      "d": 111.11100000003353,
      "v": 82
    },
    {
      "midi": 78,
      "hit": false,
      "t": 161242.15135416813,
      "d": 117.0633749999979,
      "v": 127
    },
    {
      "midi": 69,
      "hit": false,
      "t": 161242.15135416813,
      "d": 119.04749999998603,
      "v": 60
    },
    {
      "midi": 42,
      "hit": false,
      "t": 161242.15135416813,
      "d": 119.04749999998603,
      "v": 90
    },
    {
      "midi": 35,
      "hit": false,
      "t": 161242.15135416813,
      "d": 119.04749999998603,
      "v": 90
    },
    {
      "midi": 38,
      "hit": false,
      "t": 161242.15135416813,
      "d": 126.98399999999674,
      "v": 89
    },
    {
      "midi": 50,
      "hit": false,
      "t": 161242.15135416813,
      "d": 706.3484999999637,
      "v": 107
    },
    {
      "midi": 78,
      "hit": false,
      "t": 161361.19885416812,
      "d": 593.2533749999711,
      "v": 127
    },
    {
      "midi": 69,
      "hit": false,
      "t": 161480.24635416814,
      "d": 119.04749999998603,
      "v": 100
    },
    {
      "midi": 70,
      "hit": false,
      "t": 161480.24635416814,
      "d": 119.04749999998603,
      "v": 100
    },
    {
      "midi": 54,
      "hit": false,
      "t": 161480.24635416814,
      "d": 119.04749999998603,
      "v": 127
    },
    {
      "midi": 42,
      "hit": false,
      "t": 161480.24635416814,
      "d": 119.04749999998603,
      "v": 115
    },
    {
      "midi": 38,
      "hit": false,
      "t": 161480.24635416814,
      "d": 119.04749999998603,
      "v": 115
    },
    {
      "midi": 57,
      "hit": false,
      "t": 161480.24635416814,
      "d": 210.31724999996368,
      "v": 100
    },
    {
      "midi": 57,
      "hit": false,
      "t": 161718.3413541681,
      "d": 39.68249999999534,
      "v": 76
    },
    {
      "midi": 69,
      "hit": false,
      "t": 161718.3413541681,
      "d": 119.04749999998603,
      "v": 60
    },
    {
      "midi": 42,
      "hit": false,
      "t": 161718.3413541681,
      "d": 119.04749999998603,
      "v": 90
    },
    {
      "midi": 35,
      "hit": false,
      "t": 161718.3413541681,
      "d": 119.04749999998603,
      "v": 100
    },
    {
      "midi": 38,
      "hit": false,
      "t": 161718.3413541681,
      "d": 170.63474999999744,
      "v": 113
    },
    {
      "midi": 62,
      "hit": false,
      "t": 161718.3413541681,
      "d": 238.09499999997206,
      "v": 95
    },
    {
      "midi": 35,
      "hit": false,
      "t": 161837.3888541681,
      "d": 119.04749999998603,
      "v": 90
    },
    {
      "midi": 69,
      "hit": false,
      "t": 161956.43635416808,
      "d": 119.04749999998603,
      "v": 100
    },
    {
      "midi": 70,
      "hit": false,
      "t": 161956.43635416808,
      "d": 119.04749999998603,
      "v": 100
    },
    {
      "midi": 54,
      "hit": false,
      "t": 161956.43635416808,
      "d": 119.04749999998603,
      "v": 100
    },
    {
      "midi": 42,
      "hit": false,
      "t": 161956.43635416808,
      "d": 119.04749999998603,
      "v": 115
    },
    {
      "midi": 35,
      "hit": false,
      "t": 161956.43635416808,
      "d": 119.04749999998603,
      "v": 115
    },
    {
      "midi": 40,
      "hit": false,
      "t": 161956.43635416808,
      "d": 150.79349999999977,
      "v": 105
    },
    {
      "midi": 71,
      "hit": false,
      "t": 161956.43635416808,
      "d": 355.15837499999907,
      "v": 127
    },
    {
      "midi": 52,
      "hit": false,
      "t": 161956.43635416808,
      "d": 722.2215000000142,
      "v": 105
    },
    {
      "midi": 59,
      "hit": false,
      "t": 161956.43635416808,
      "d": 726.1897500000196,
      "v": 102
    },
    {
      "midi": 74,
      "hit": false,
      "t": 161956.43635416808,
      "d": 857.1420000000217,
      "v": 55
    },
    {
      "midi": 79,
      "hit": false,
      "t": 161956.43635416808,
      "d": 865.0785000000324,
      "v": 48
    },
    {
      "midi": 67,
      "hit": false,
      "t": 161956.43635416808,
      "d": 880.9515000000247,
      "v": 61
    },
    {
      "midi": 69,
      "hit": false,
      "t": 162194.53135416808,
      "d": 119.04749999998603,
      "v": 60
    },
    {
      "midi": 42,
      "hit": false,
      "t": 162194.53135416808,
      "d": 119.04749999998603,
      "v": 90
    },
    {
      "midi": 35,
      "hit": false,
      "t": 162194.53135416808,
      "d": 119.04749999998603,
      "v": 100
    },
    {
      "midi": 40,
      "hit": false,
      "t": 162194.53135416808,
      "d": 190.4759999999951,
      "v": 107
    },
    {
      "midi": 78,
      "hit": false,
      "t": 162313.57885416807,
      "d": 355.1583750000282,
      "v": 127
    },
    {
      "midi": 69,
      "hit": false,
      "t": 162432.62635416808,
      "d": 119.04749999998603,
      "v": 100
    },
    {
      "midi": 70,
      "hit": false,
      "t": 162432.62635416808,
      "d": 119.04749999998603,
      "v": 100
    },
    {
      "midi": 54,
      "hit": false,
      "t": 162432.62635416808,
      "d": 119.04749999998603,
      "v": 127
    },
    {
      "midi": 42,
      "hit": false,
      "t": 162432.62635416808,
      "d": 119.04749999998603,
      "v": 115
    },
    {
      "midi": 38,
      "hit": false,
      "t": 162432.62635416808,
      "d": 119.04749999998603,
      "v": 115
    },
    {
      "midi": 40,
      "hit": false,
      "t": 162432.62635416808,
      "d": 150.79349999999977,
      "v": 102
    },
    {
      "midi": 40,
      "hit": false,
      "t": 162670.72135416808,
      "d": 67.46025000000373,
      "v": 82
    },
    {
      "midi": 69,
      "hit": false,
      "t": 162670.72135416808,
      "d": 119.04750000001513,
      "v": 60
    },
    {
      "midi": 42,
      "hit": false,
      "t": 162670.72135416808,
      "d": 119.04750000001513,
      "v": 90
    },
    {
      "midi": 35,
      "hit": false,
      "t": 162670.72135416808,
      "d": 119.04750000001513,
      "v": 100
    },
    {
      "midi": 76,
      "hit": false,
      "t": 162670.72135416808,
      "d": 142.85700000001816,
      "v": 127
    },
    {
      "midi": 28,
      "hit": false,
      "t": 162789.7688541681,
      "d": 59.523749999993015,
      "v": 80
    },
    {
      "midi": 52,
      "hit": false,
      "t": 162908.81635416808,
      "d": 31.746000000013737,
      "v": 55
    },
    {
      "midi": 69,
      "hit": false,
      "t": 162908.81635416808,
      "d": 119.04750000001513,
      "v": 100
    },
    {
      "midi": 70,
      "hit": false,
      "t": 162908.81635416808,
      "d": 119.04750000001513,
      "v": 100
    },
    {
      "midi": 54,
      "hit": false,
      "t": 162908.81635416808,
      "d": 119.04750000001513,
      "v": 100
    },
    {
      "midi": 42,
      "hit": false,
      "t": 162908.81635416808,
      "d": 119.04750000001513,
      "v": 115
    },
    {
      "midi": 35,
      "hit": false,
      "t": 162908.81635416808,
      "d": 119.04750000001513,
      "v": 115
    },
    {
      "midi": 49,
      "hit": false,
      "t": 162908.81635416808,
      "d": 325.39650000003166,
      "v": 102
    },
    {
      "midi": 81,
      "hit": false,
      "t": 162908.81635416808,
      "d": 355.1583750000282,
      "v": 127
    },
    {
      "midi": 69,
      "hit": false,
      "t": 163146.9113541681,
      "d": 119.04749999998603,
      "v": 60
    },
    {
      "midi": 42,
      "hit": false,
      "t": 163146.9113541681,
      "d": 119.04749999998603,
      "v": 100
    },
    {
      "midi": 35,
      "hit": false,
      "t": 163146.9113541681,
      "d": 119.04749999998603,
      "v": 100
    },
    {
      "midi": 76,
      "hit": false,
      "t": 163146.9113541681,
      "d": 202.38075000001118,
      "v": 29
    },
    {
      "midi": 79,
      "hit": false,
      "t": 163265.9588541681,
      "d": 355.15837499999907,
      "v": 127
    },
    {
      "midi": 54,
      "hit": false,
      "t": 163385.00635416812,
      "d": 11.904749999986961,
      "v": 127
    },
    {
      "midi": 69,
      "hit": false,
      "t": 163385.00635416812,
      "d": 119.04749999998603,
      "v": 100
    },
    {
      "midi": 70,
      "hit": false,
      "t": 163385.00635416812,
      "d": 119.04749999998603,
      "v": 100
    },
    {
      "midi": 42,
      "hit": false,
      "t": 163385.00635416812,
      "d": 119.04749999998603,
      "v": 115
    },
    {
      "midi": 38,
      "hit": false,
      "t": 163385.00635416812,
      "d": 119.04749999998603,
      "v": 115
    },
    {
      "midi": 49,
      "hit": false,
      "t": 163385.00635416812,
      "d": 210.31724999999278,
      "v": 100
    },
    {
      "midi": 49,
      "hit": false,
      "t": 163623.1013541681,
      "d": 39.68249999999534,
      "v": 76
    },
    {
      "midi": 42,
      "hit": false,
      "t": 163623.1013541681,
      "d": 67.46025000000373,
      "v": 100
    },
    {
      "midi": 69,
      "hit": false,
      "t": 163623.1013541681,
      "d": 119.04750000001513,
      "v": 60
    },
    {
      "midi": 35,
      "hit": false,
      "t": 163623.1013541681,
      "d": 119.04750000001513,
      "v": 100
    },
    {
      "midi": 78,
      "hit": false,
      "t": 163623.1013541681,
      "d": 236.11087500001304,
      "v": 127
    },
    {
      "midi": 54,
      "hit": false,
      "t": 163623.1013541681,
      "d": 238.09500000000116,
      "v": 95
    },
    {
      "midi": 30,
      "hit": false,
      "t": 163742.1488541681,
      "d": 59.523749999993015,
      "v": 80
    },
    {
      "midi": 69,
      "hit": false,
      "t": 163861.1963541681,
      "d": 119.04749999998603,
      "v": 100
    },
    {
      "midi": 70,
      "hit": false,
      "t": 163861.1963541681,
      "d": 119.04749999998603,
      "v": 100
    },
    {
      "midi": 54,
      "hit": false,
      "t": 163861.1963541681,
      "d": 119.04749999998603,
      "v": 100
    },
    {
      "midi": 38,
      "hit": false,
      "t": 163861.1963541681,
      "d": 119.04749999998603,
      "v": 115
    },
    {
      "midi": 43,
      "hit": false,
      "t": 163861.1963541681,
      "d": 150.79349999999977,
      "v": 110
    },
    {
      "midi": 50,
      "hit": false,
      "t": 163861.1963541681,
      "d": 257.93624999999884,
      "v": 113
    },
    {
      "midi": 76,
      "hit": false,
      "t": 163861.1963541681,
      "d": 355.15837499999907,
      "v": 127
    },
    {
      "midi": 31,
      "hit": false,
      "t": 163980.24385416807,
      "d": 111.11100000000442,
      "v": 82
    },
    {
      "midi": 38,
      "hit": false,
      "t": 163980.24385416807,
      "d": 119.04750000001513,
      "v": 100
    },
    {
      "midi": 43,
      "hit": false,
      "t": 164099.2913541681,
      "d": 7.93650000001071,
      "v": 89
    },
    {
      "midi": 69,
      "hit": false,
      "t": 164099.2913541681,
      "d": 119.04749999998603,
      "v": 60
    },
    {
      "midi": 38,
      "hit": false,
      "t": 164099.2913541681,
      "d": 119.04749999998603,
      "v": 115
    },
    {
      "midi": 70,
      "hit": false,
      "t": 164099.2913541681,
      "d": 198.41250000000582,
      "v": 8
    },
    {
      "midi": 77,
      "hit": false,
      "t": 164099.2913541681,
      "d": 202.38075000001118,
      "v": 29
    },
    {
      "midi": 43,
      "hit": false,
      "t": 164218.33885416808,
      "d": 7.93650000001071,
      "v": 26
    },
    {
      "midi": 78,
      "hit": false,
      "t": 164218.33885416808,
      "d": 355.15837499996996,
      "v": 127
    },
    {
      "midi": 43,
      "hit": false,
      "t": 164337.3863541681,
      "d": 59.523749999993015,
      "v": 107
    },
    {
      "midi": 69,
      "hit": false,
      "t": 164337.3863541681,
      "d": 119.04749999998603,
      "v": 100
    },
    {
      "midi": 70,
      "hit": false,
      "t": 164337.3863541681,
      "d": 119.04749999998603,
      "v": 100
    },
    {
      "midi": 54,
      "hit": false,
      "t": 164337.3863541681,
      "d": 119.04749999998603,
      "v": 127
    },
    {
      "midi": 38,
      "hit": false,
      "t": 164337.3863541681,
      "d": 119.04749999998603,
      "v": 115
    },
    {
      "midi": 50,
      "hit": false,
      "t": 164337.3863541681,
      "d": 210.31724999996368,
      "v": 100
    },
    {
      "midi": 69,
      "hit": false,
      "t": 164575.48135416803,
      "d": 119.04749999998603,
      "v": 60
    },
    {
      "midi": 38,
      "hit": false,
      "t": 164575.48135416803,
      "d": 119.04749999998603,
      "v": 100
    },
    {
      "midi": 43,
      "hit": false,
      "t": 164575.48135416803,
      "d": 170.63474999999744,
      "v": 113
    },
    {
      "midi": 79,
      "hit": false,
      "t": 164575.48135416803,
      "d": 236.11087499998393,
      "v": 127
    },
    {
      "midi": 69,
      "hit": false,
      "t": 164813.576354168,
      "d": 119.04750000001513,
      "v": 100
    },
    {
      "midi": 70,
      "hit": false,
      "t": 164813.576354168,
      "d": 119.04750000001513,
      "v": 100
    },
    {
      "midi": 54,
      "hit": false,
      "t": 164813.576354168,
      "d": 119.04750000001513,
      "v": 100
    },
    {
      "midi": 35,
      "hit": false,
      "t": 164813.576354168,
      "d": 119.04750000001513,
      "v": 115
    },
    {
      "midi": 33,
      "hit": false,
      "t": 164813.576354168,
      "d": 170.63475000002654,
      "v": 102
    },
    {
      "midi": 78,
      "hit": false,
      "t": 164813.576354168,
      "d": 474.2058750000433,
      "v": 127
    },
    {
      "midi": 73,
      "hit": false,
      "t": 164813.576354168,
      "d": 476.19000000003143,
      "v": 11
    },
    {
      "midi": 45,
      "hit": false,
      "t": 164829.449354168,
      "d": 369.04725000003236,
      "v": 98
    },
    {
      "midi": 57,
      "hit": false,
      "t": 164833.417604168,
      "d": 369.04725000003236,
      "v": 91
    },
    {
      "midi": 52,
      "hit": false,
      "t": 164837.385854168,
      "d": 357.1425000000163,
      "v": 100
    },
    {
      "midi": 69,
      "hit": false,
      "t": 165051.67135416804,
      "d": 119.04749999998603,
      "v": 60
    },
    {
      "midi": 35,
      "hit": false,
      "t": 165051.67135416804,
      "d": 119.04749999998603,
      "v": 100
    },
    {
      "midi": 33,
      "hit": false,
      "t": 165051.67135416804,
      "d": 158.73000000001048,
      "v": 85
    },
    {
      "midi": 69,
      "hit": false,
      "t": 165289.76635416804,
      "d": 119.04750000001513,
      "v": 100
    },
    {
      "midi": 70,
      "hit": false,
      "t": 165289.76635416804,
      "d": 119.04750000001513,
      "v": 100
    },
    {
      "midi": 38,
      "hit": false,
      "t": 165289.76635416804,
      "d": 119.04750000001513,
      "v": 127
    },
    {
      "midi": 78,
      "hit": false,
      "t": 165289.76635416804,
      "d": 236.11087500001304,
      "v": 127
    },
    {
      "midi": 34,
      "hit": false,
      "t": 165305.63935416803,
      "d": 154.76175000003423,
      "v": 98
    },
    {
      "midi": 54,
      "hit": false,
      "t": 165309.60760416804,
      "d": 99.20625000001746,
      "v": 91
    },
    {
      "midi": 49,
      "hit": false,
      "t": 165313.57585416804,
      "d": 357.1424999999872,
      "v": 100
    },
    {
      "midi": 76,
      "hit": false,
      "t": 165527.86135416804,
      "d": 117.0633749999979,
      "v": 127
    },
    {
      "midi": 69,
      "hit": false,
      "t": 165527.86135416804,
      "d": 119.04749999998603,
      "v": 60
    },
    {
      "midi": 42,
      "hit": false,
      "t": 165527.86135416804,
      "d": 119.04749999998603,
      "v": 100
    },
    {
      "midi": 34,
      "hit": false,
      "t": 165527.86135416804,
      "d": 146.8252499999944,
      "v": 85
    },
    {
      "midi": 46,
      "hit": false,
      "t": 165646.90885416802,
      "d": 119.04750000001513,
      "v": 115
    },
    {
      "midi": 35,
      "hit": false,
      "t": 165765.95635416804,
      "d": 83.33324999999604,
      "v": 115
    },
    {
      "midi": 69,
      "hit": false,
      "t": 165765.95635416804,
      "d": 119.04749999998603,
      "v": 100
    },
    {
      "midi": 70,
      "hit": false,
      "t": 165765.95635416804,
      "d": 119.04749999998603,
      "v": 100
    },
    {
      "midi": 54,
      "hit": false,
      "t": 165765.95635416804,
      "d": 119.04749999998603,
      "v": 100
    },
    {
      "midi": 49,
      "hit": false,
      "t": 165765.95635416804,
      "d": 119.04749999998603,
      "v": 100
    },
    {
      "midi": 42,
      "hit": false,
      "t": 165765.95635416804,
      "d": 119.04749999998603,
      "v": 115
    },
    {
      "midi": 74,
      "hit": false,
      "t": 165765.95635416804,
      "d": 355.15837499996996,
      "v": 55
    },
    {
      "midi": 47,
      "hit": false,
      "t": 165765.95635416804,
      "d": 722.221499999956,
      "v": 105
    },
    {
      "midi": 78,
      "hit": false,
      "t": 165765.95635416804,
      "d": 857.1419999999634,
      "v": 48
    },
    {
      "midi": 66,
      "hit": false,
      "t": 165765.95635416804,
      "d": 880.9514999999665,
      "v": 61
    },
    {
      "midi": 69,
      "hit": false,
      "t": 166004.051354168,
      "d": 119.04749999998603,
      "v": 60
    },
    {
      "midi": 42,
      "hit": false,
      "t": 166004.051354168,
      "d": 119.04749999998603,
      "v": 100
    },
    {
      "midi": 35,
      "hit": false,
      "t": 166004.051354168,
      "d": 119.04749999998603,
      "v": 100
    },
    {
      "midi": 73,
      "hit": false,
      "t": 166123.098854168,
      "d": 355.15837499999907,
      "v": 127
    },
    {
      "midi": 69,
      "hit": false,
      "t": 166242.146354168,
      "d": 119.04749999998603,
      "v": 100
    },
    {
      "midi": 70,
      "hit": false,
      "t": 166242.146354168,
      "d": 119.04749999998603,
      "v": 100
    },
    {
      "midi": 54,
      "hit": false,
      "t": 166242.146354168,
      "d": 119.04749999998603,
      "v": 127
    },
    {
      "midi": 42,
      "hit": false,
      "t": 166242.146354168,
      "d": 119.04749999998603,
      "v": 115
    },
    {
      "midi": 38,
      "hit": false,
      "t": 166242.146354168,
      "d": 119.04749999998603,
      "v": 115
    },
    {
      "midi": 35,
      "hit": false,
      "t": 166242.146354168,
      "d": 123.01574999999139,
      "v": 110
    },
    {
      "midi": 42,
      "hit": false,
      "t": 166480.24135416799,
      "d": 99.20625000001746,
      "v": 100
    },
    {
      "midi": 69,
      "hit": false,
      "t": 166480.24135416799,
      "d": 119.04750000001513,
      "v": 60
    },
    {
      "midi": 35,
      "hit": false,
      "t": 166480.24135416799,
      "d": 119.04750000001513,
      "v": 100
    },
    {
      "midi": 74,
      "hit": false,
      "t": 166480.24135416799,
      "d": 142.85700000001816,
      "v": 127
    },
    {
      "midi": 69,
      "hit": false,
      "t": 166718.336354168,
      "d": 119.04749999998603,
      "v": 100
    },
    {
      "midi": 70,
      "hit": false,
      "t": 166718.336354168,
      "d": 119.04749999998603,
      "v": 100
    },
    {
      "midi": 54,
      "hit": false,
      "t": 166718.336354168,
      "d": 119.04749999998603,
      "v": 100
    },
    {
      "midi": 42,
      "hit": false,
      "t": 166718.336354168,
      "d": 119.04749999998603,
      "v": 115
    },
    {
      "midi": 35,
      "hit": false,
      "t": 166718.336354168,
      "d": 119.04749999998603,
      "v": 115
    },
    {
      "midi": 43,
      "hit": false,
      "t": 166718.336354168,
      "d": 150.79349999999977,
      "v": 105
    },
    {
      "midi": 76,
      "hit": false,
      "t": 166718.336354168,
      "d": 236.11087499998393,
      "v": 127
    },
    {
      "midi": 50,
      "hit": false,
      "t": 166718.336354168,
      "d": 726.1897499999614,
      "v": 102
    },
    {
      "midi": 31,
      "hit": false,
      "t": 166837.38385416797,
      "d": 111.11100000000442,
      "v": 82
    },
    {
      "midi": 69,
      "hit": false,
      "t": 166956.43135416796,
      "d": 119.04749999998603,
      "v": 60
    },
    {
      "midi": 42,
      "hit": false,
      "t": 166956.43135416796,
      "d": 119.04749999998603,
      "v": 100
    },
    {
      "midi": 35,
      "hit": false,
      "t": 166956.43135416796,
      "d": 119.04749999998603,
      "v": 90
    },
    {
      "midi": 43,
      "hit": false,
      "t": 166956.43135416796,
      "d": 126.98399999999674,
      "v": 89
    },
    {
      "midi": 74,
      "hit": false,
      "t": 166956.43135416796,
      "d": 198.41250000000582,
      "v": 8
    },
    {
      "midi": 79,
      "hit": false,
      "t": 166956.43135416796,
      "d": 202.38075000001118,
      "v": 29
    },
    {
      "midi": 69,
      "hit": false,
      "t": 167194.52635416796,
      "d": 119.04749999998603,
      "v": 100
    },
    {
      "midi": 70,
      "hit": false,
      "t": 167194.52635416796,
      "d": 119.04749999998603,
      "v": 100
    },
    {
      "midi": 54,
      "hit": false,
      "t": 167194.52635416796,
      "d": 119.04749999998603,
      "v": 127
    },
    {
      "midi": 42,
      "hit": false,
      "t": 167194.52635416796,
      "d": 119.04749999998603,
      "v": 115
    },
    {
      "midi": 38,
      "hit": false,
      "t": 167194.52635416796,
      "d": 119.04749999998603,
      "v": 115
    },
    {
      "midi": 43,
      "hit": false,
      "t": 167194.52635416796,
      "d": 154.76174999997602,
      "v": 107
    },
    {
      "midi": 73,
      "hit": false,
      "t": 167194.52635416796,
      "d": 236.11087499998393,
      "v": 127
    },
    {
      "midi": 43,
      "hit": false,
      "t": 167432.62135416793,
      "d": 7.93650000001071,
      "v": 113
    },
    {
      "midi": 69,
      "hit": false,
      "t": 167432.62135416793,
      "d": 119.04750000001513,
      "v": 60
    },
    {
      "midi": 42,
      "hit": false,
      "t": 167432.62135416793,
      "d": 119.04750000001513,
      "v": 100
    },
    {
      "midi": 35,
      "hit": false,
      "t": 167432.62135416793,
      "d": 119.04750000001513,
      "v": 100
    },
    {
      "midi": 74,
      "hit": false,
      "t": 167432.62135416793,
      "d": 236.11087500001304,
      "v": 127
    },
    {
      "midi": 69,
      "hit": false,
      "t": 167670.71635416793,
      "d": 119.04749999998603,
      "v": 100
    },
    {
      "midi": 70,
      "hit": false,
      "t": 167670.71635416793,
      "d": 119.04749999998603,
      "v": 100
    },
    {
      "midi": 54,
      "hit": false,
      "t": 167670.71635416793,
      "d": 119.04749999998603,
      "v": 100
    },
    {
      "midi": 42,
      "hit": false,
      "t": 167670.71635416793,
      "d": 119.04749999998603,
      "v": 115
    },
    {
      "midi": 35,
      "hit": false,
      "t": 167670.71635416793,
      "d": 119.04749999998603,
      "v": 115
    },
    {
      "midi": 33,
      "hit": false,
      "t": 167670.71635416793,
      "d": 150.79349999999977,
      "v": 105
    },
    {
      "midi": 45,
      "hit": false,
      "t": 167670.71635416793,
      "d": 246.03150000001187,
      "v": 110
    },
    {
      "midi": 52,
      "hit": false,
      "t": 167670.71635416793,
      "d": 257.93624999999884,
      "v": 113
    },
    {
      "midi": 76,
      "hit": false,
      "t": 167670.71635416793,
      "d": 355.15837499999907,
      "v": 48
    },
    {
      "midi": 73,
      "hit": false,
      "t": 167670.71635416793,
      "d": 857.1419999999925,
      "v": 55
    },
    {
      "midi": 64,
      "hit": false,
      "t": 167670.71635416793,
      "d": 880.9514999999956,
      "v": 61
    },
    {
      "midi": 69,
      "hit": false,
      "t": 167908.81135416793,
      "d": 119.04749999998603,
      "v": 60
    },
    {
      "midi": 42,
      "hit": false,
      "t": 167908.81135416793,
      "d": 119.04749999998603,
      "v": 70
    },
    {
      "midi": 35,
      "hit": false,
      "t": 167908.81135416793,
      "d": 119.04749999998603,
      "v": 100
    },
    {
      "midi": 33,
      "hit": false,
      "t": 167908.81135416793,
      "d": 190.4759999999951,
      "v": 107
    },
    {
      "midi": 45,
      "hit": false,
      "t": 168027.85885416792,
      "d": 178.57125000000815,
      "v": 26
    },
    {
      "midi": 78,
      "hit": false,
      "t": 168027.85885416792,
      "d": 355.15837499999907,
      "v": 127
    },
    {
      "midi": 69,
      "hit": false,
      "t": 168146.90635416794,
      "d": 119.04749999998603,
      "v": 100
    },
    {
      "midi": 70,
      "hit": false,
      "t": 168146.90635416794,
      "d": 119.04749999998603,
      "v": 100
    },
    {
      "midi": 54,
      "hit": false,
      "t": 168146.90635416794,
      "d": 119.04749999998603,
      "v": 127
    },
    {
      "midi": 42,
      "hit": false,
      "t": 168146.90635416794,
      "d": 119.04749999998603,
      "v": 100
    },
    {
      "midi": 38,
      "hit": false,
      "t": 168146.90635416794,
      "d": 119.04749999998603,
      "v": 115
    },
    {
      "midi": 33,
      "hit": false,
      "t": 168146.90635416794,
      "d": 150.79349999999977,
      "v": 102
    },
    {
      "midi": 52,
      "hit": false,
      "t": 168146.90635416794,
      "d": 210.31724999999278,
      "v": 100
    },
    {
      "midi": 33,
      "hit": false,
      "t": 168385.0013541679,
      "d": 67.46025000000373,
      "v": 116
    },
    {
      "midi": 69,
      "hit": false,
      "t": 168385.0013541679,
      "d": 119.04750000001513,
      "v": 60
    },
    {
      "midi": 42,
      "hit": false,
      "t": 168385.0013541679,
      "d": 119.04750000001513,
      "v": 90
    },
    {
      "midi": 35,
      "hit": false,
      "t": 168385.0013541679,
      "d": 119.04750000001513,
      "v": 100
    },
    {
      "midi": 79,
      "hit": false,
      "t": 168385.0013541679,
      "d": 236.11087500001304,
      "v": 127
    },
    {
      "midi": 21,
      "hit": false,
      "t": 168504.04885416792,
      "d": 59.523749999993015,
      "v": 80
    },
    {
      "midi": 69,
      "hit": false,
      "t": 168623.0963541679,
      "d": 119.04749999998603,
      "v": 100
    },
    {
      "midi": 70,
      "hit": false,
      "t": 168623.0963541679,
      "d": 119.04749999998603,
      "v": 100
    },
    {
      "midi": 54,
      "hit": false,
      "t": 168623.0963541679,
      "d": 119.04749999998603,
      "v": 100
    },
    {
      "midi": 42,
      "hit": false,
      "t": 168623.0963541679,
      "d": 119.04749999998603,
      "v": 115
    },
    {
      "midi": 35,
      "hit": false,
      "t": 168623.0963541679,
      "d": 119.04749999998603,
      "v": 115
    },
    {
      "midi": 38,
      "hit": false,
      "t": 168623.0963541679,
      "d": 150.79349999999977,
      "v": 107
    },
    {
      "midi": 79,
      "hit": false,
      "t": 168623.0963541679,
      "d": 236.11087499998393,
      "v": 127
    },
    {
      "midi": 50,
      "hit": false,
      "t": 168623.0963541679,
      "d": 246.03149999998277,
      "v": 110
    },
    {
      "midi": 57,
      "hit": false,
      "t": 168623.0963541679,
      "d": 257.93624999996973,
      "v": 113
    },
    {
      "midi": 26,
      "hit": false,
      "t": 168742.1438541679,
      "d": 111.11100000000442,
      "v": 82
    },
    {
      "midi": 69,
      "hit": false,
      "t": 168861.19135416788,
      "d": 119.04749999998603,
      "v": 60
    },
    {
      "midi": 42,
      "hit": false,
      "t": 168861.19135416788,
      "d": 119.04749999998603,
      "v": 90
    },
    {
      "midi": 35,
      "hit": false,
      "t": 168861.19135416788,
      "d": 119.04749999998603,
      "v": 90
    },
    {
      "midi": 74,
      "hit": false,
      "t": 168861.19135416788,
      "d": 198.41250000000582,
      "v": 8
    },
    {
      "midi": 78,
      "hit": false,
      "t": 168861.19135416788,
      "d": 202.38075000001118,
      "v": 29
    },
    {
      "midi": 38,
      "hit": false,
      "t": 168980.23885416787,
      "d": 7.93650000001071,
      "v": 26
    },
    {
      "midi": 38,
      "hit": false,
      "t": 169099.28635416788,
      "d": 59.523749999993015,
      "v": 115
    },
    {
      "midi": 69,
      "hit": false,
      "t": 169099.28635416788,
      "d": 119.04749999998603,
      "v": 100
    },
    {
      "midi": 70,
      "hit": false,
      "t": 169099.28635416788,
      "d": 119.04749999998603,
      "v": 100
    },
    {
      "midi": 54,
      "hit": false,
      "t": 169099.28635416788,
      "d": 119.04749999998603,
      "v": 127
    },
    {
      "midi": 42,
      "hit": false,
      "t": 169099.28635416788,
      "d": 119.04749999998603,
      "v": 115
    },
    {
      "midi": 57,
      "hit": false,
      "t": 169099.28635416788,
      "d": 210.31724999996368,
      "v": 100
    },
    {
      "midi": 50,
      "hit": false,
      "t": 169099.28635416788,
      "d": 234.1267499999667,
      "v": 105
    },
    {
      "midi": 69,
      "hit": false,
      "t": 169337.38135416785,
      "d": 119.04749999998603,
      "v": 60
    },
    {
      "midi": 42,
      "hit": false,
      "t": 169337.38135416785,
      "d": 119.04749999998603,
      "v": 90
    },
    {
      "midi": 35,
      "hit": false,
      "t": 169337.38135416785,
      "d": 119.04749999998603,
      "v": 100
    },
    {
      "midi": 38,
      "hit": false,
      "t": 169337.38135416785,
      "d": 170.63474999999744,
      "v": 113
    },
    {
      "midi": 46,
      "hit": false,
      "t": 169456.42885416784,
      "d": 119.04750000001513,
      "v": 100
    },
    {
      "midi": 69,
      "hit": false,
      "t": 169575.47635416785,
      "d": 119.04749999998603,
      "v": 100
    },
    {
      "midi": 70,
      "hit": false,
      "t": 169575.47635416785,
      "d": 119.04749999998603,
      "v": 100
    },
    {
      "midi": 54,
      "hit": false,
      "t": 169575.47635416785,
      "d": 119.04749999998603,
      "v": 100
    },
    {
      "midi": 42,
      "hit": false,
      "t": 169575.47635416785,
      "d": 119.04749999998603,
      "v": 115
    },
    {
      "midi": 35,
      "hit": false,
      "t": 169575.47635416785,
      "d": 119.04749999998603,
      "v": 115
    },
    {
      "midi": 40,
      "hit": false,
      "t": 169575.47635416785,
      "d": 150.79349999999977,
      "v": 107
    },
    {
      "midi": 71,
      "hit": false,
      "t": 169575.47635416785,
      "d": 355.15837499999907,
      "v": 127
    },
    {
      "midi": 52,
      "hit": false,
      "t": 169575.47635416785,
      "d": 722.2214999999851,
      "v": 105
    },
    {
      "midi": 59,
      "hit": false,
      "t": 169575.47635416785,
      "d": 726.1897499999905,
      "v": 102
    },
    {
      "midi": 28,
      "hit": false,
      "t": 169694.52385416784,
      "d": 111.11100000000442,
      "v": 82
    },
    {
      "midi": 69,
      "hit": false,
      "t": 169813.57135416786,
      "d": 119.04749999998603,
      "v": 60
    },
    {
      "midi": 42,
      "hit": false,
      "t": 169813.57135416786,
      "d": 119.04749999998603,
      "v": 100
    },
    {
      "midi": 35,
      "hit": false,
      "t": 169813.57135416786,
      "d": 119.04749999998603,
      "v": 100
    },
    {
      "midi": 40,
      "hit": false,
      "t": 169813.57135416786,
      "d": 126.98399999999674,
      "v": 89
    },
    {
      "midi": 67,
      "hit": false,
      "t": 169813.57135416786,
      "d": 198.41250000000582,
      "v": 8
    },
    {
      "midi": 74,
      "hit": false,
      "t": 169813.57135416786,
      "d": 202.38075000001118,
      "v": 29
    },
    {
      "midi": 78,
      "hit": false,
      "t": 169932.61885416784,
      "d": 355.15837499999907,
      "v": 127
    },
    {
      "midi": 69,
      "hit": false,
      "t": 170051.66635416786,
      "d": 119.04749999998603,
      "v": 100
    },
    {
      "midi": 70,
      "hit": false,
      "t": 170051.66635416786,
      "d": 119.04749999998603,
      "v": 100
    },
    {
      "midi": 54,
      "hit": false,
      "t": 170051.66635416786,
      "d": 119.04749999998603,
      "v": 127
    },
    {
      "midi": 42,
      "hit": false,
      "t": 170051.66635416786,
      "d": 119.04749999998603,
      "v": 115
    },
    {
      "midi": 38,
      "hit": false,
      "t": 170051.66635416786,
      "d": 119.04749999998603,
      "v": 115
    },
    {
      "midi": 40,
      "hit": false,
      "t": 170051.66635416786,
      "d": 154.76174999997602,
      "v": 107
    },
    {
      "midi": 69,
      "hit": false,
      "t": 170289.76135416783,
      "d": 119.04750000001513,
      "v": 60
    },
    {
      "midi": 42,
      "hit": false,
      "t": 170289.76135416783,
      "d": 119.04750000001513,
      "v": 100
    },
    {
      "midi": 35,
      "hit": false,
      "t": 170289.76135416783,
      "d": 119.04750000001513,
      "v": 100
    },
    {
      "midi": 40,
      "hit": false,
      "t": 170289.76135416783,
      "d": 170.63475000002654,
      "v": 82
    },
    {
      "midi": 76,
      "hit": false,
      "t": 170289.76135416783,
      "d": 236.11087500001304,
      "v": 127
    },
    {
      "midi": 69,
      "hit": false,
      "t": 170527.85635416783,
      "d": 119.04749999998603,
      "v": 100
    },
    {
      "midi": 70,
      "hit": false,
      "t": 170527.85635416783,
      "d": 119.04749999998603,
      "v": 100
    },
    {
      "midi": 54,
      "hit": false,
      "t": 170527.85635416783,
      "d": 119.04749999998603,
      "v": 100
    },
    {
      "midi": 42,
      "hit": false,
      "t": 170527.85635416783,
      "d": 119.04749999998603,
      "v": 115
    },
    {
      "midi": 35,
      "hit": false,
      "t": 170527.85635416783,
      "d": 119.04749999998603,
      "v": 115
    },
    {
      "midi": 33,
      "hit": false,
      "t": 170527.85635416783,
      "d": 150.79349999999977,
      "v": 107
    },
    {
      "midi": 81,
      "hit": false,
      "t": 170527.85635416783,
      "d": 355.15837499999907,
      "v": 127
    },
    {
      "midi": 45,
      "hit": false,
      "t": 170527.85635416783,
      "d": 722.2214999999851,
      "v": 105
    },
    {
      "midi": 52,
      "hit": false,
      "t": 170527.85635416783,
      "d": 726.1897499999905,
      "v": 102
    },
    {
      "midi": 21,
      "hit": false,
      "t": 170646.90385416782,
      "d": 111.11100000000442,
      "v": 82
    },
    {
      "midi": 69,
      "hit": false,
      "t": 170765.95135416783,
      "d": 119.04749999998603,
      "v": 60
    },
    {
      "midi": 42,
      "hit": false,
      "t": 170765.95135416783,
      "d": 119.04749999998603,
      "v": 100
    },
    {
      "midi": 35,
      "hit": false,
      "t": 170765.95135416783,
      "d": 119.04749999998603,
      "v": 100
    },
    {
      "midi": 33,
      "hit": false,
      "t": 170765.95135416783,
      "d": 126.98399999999674,
      "v": 89
    },
    {
      "midi": 67,
      "hit": false,
      "t": 170765.95135416783,
      "d": 198.41250000000582,
      "v": 8
    },
    {
      "midi": 73,
      "hit": false,
      "t": 170765.95135416783,
      "d": 202.38075000001118,
      "v": 29
    },
    {
      "midi": 79,
      "hit": false,
      "t": 170884.99885416782,
      "d": 355.15837499999907,
      "v": 127
    },
    {
      "midi": 69,
      "hit": false,
      "t": 171004.04635416783,
      "d": 119.04749999998603,
      "v": 100
    },
    {
      "midi": 70,
      "hit": false,
      "t": 171004.04635416783,
      "d": 119.04749999998603,
      "v": 100
    },
    {
      "midi": 54,
      "hit": false,
      "t": 171004.04635416783,
      "d": 119.04749999998603,
      "v": 127
    },
    {
      "midi": 42,
      "hit": false,
      "t": 171004.04635416783,
      "d": 119.04749999998603,
      "v": 115
    },
    {
      "midi": 38,
      "hit": false,
      "t": 171004.04635416783,
      "d": 119.04749999998603,
      "v": 115
    },
    {
      "midi": 33,
      "hit": false,
      "t": 171004.04635416783,
      "d": 154.76174999997602,
      "v": 107
    },
    {
      "midi": 69,
      "hit": false,
      "t": 171242.1413541678,
      "d": 119.04750000001513,
      "v": 60
    },
    {
      "midi": 42,
      "hit": false,
      "t": 171242.1413541678,
      "d": 119.04750000001513,
      "v": 80
    },
    {
      "midi": 35,
      "hit": false,
      "t": 171242.1413541678,
      "d": 119.04750000001513,
      "v": 100
    },
    {
      "midi": 33,
      "hit": false,
      "t": 171242.1413541678,
      "d": 170.63475000002654,
      "v": 113
    },
    {
      "midi": 78,
      "hit": false,
      "t": 171242.1413541678,
      "d": 236.11087500001304,
      "v": 127
    },
    {
      "midi": 62,
      "hit": false,
      "t": 171480.2363541678,
      "d": 31.746000000013737,
      "v": 105
    },
    {
      "midi": 69,
      "hit": false,
      "t": 171480.2363541678,
      "d": 119.04750000001513,
      "v": 100
    },
    {
      "midi": 70,
      "hit": false,
      "t": 171480.2363541678,
      "d": 119.04750000001513,
      "v": 100
    },
    {
      "midi": 54,
      "hit": false,
      "t": 171480.2363541678,
      "d": 119.04750000001513,
      "v": 100
    },
    {
      "midi": 42,
      "hit": false,
      "t": 171480.2363541678,
      "d": 119.04750000001513,
      "v": 115
    },
    {
      "midi": 35,
      "hit": false,
      "t": 171480.2363541678,
      "d": 119.04750000001513,
      "v": 115
    },
    {
      "midi": 38,
      "hit": false,
      "t": 171480.2363541678,
      "d": 150.79350000002887,
      "v": 105
    },
    {
      "midi": 50,
      "hit": false,
      "t": 171480.2363541678,
      "d": 158.73000000003958,
      "v": 107
    },
    {
      "midi": 57,
      "hit": false,
      "t": 171480.2363541678,
      "d": 325.39650000003166,
      "v": 102
    },
    {
      "midi": 76,
      "hit": false,
      "t": 171480.2363541678,
      "d": 355.1583750000282,
      "v": 127
    },
    {
      "midi": 81,
      "hit": false,
      "t": 171480.2363541678,
      "d": 857.1420000000217,
      "v": 48
    },
    {
      "midi": 69,
      "hit": false,
      "t": 171718.33135416784,
      "d": 119.04749999998603,
      "v": 60
    },
    {
      "midi": 42,
      "hit": false,
      "t": 171718.33135416784,
      "d": 119.04749999998603,
      "v": 90
    },
    {
      "midi": 35,
      "hit": false,
      "t": 171718.33135416784,
      "d": 119.04749999998603,
      "v": 100
    },
    {
      "midi": 38,
      "hit": false,
      "t": 171718.33135416784,
      "d": 190.4759999999951,
      "v": 107
    },
    {
      "midi": 50,
      "hit": false,
      "t": 171718.33135416784,
      "d": 706.3484999999928,
      "v": 107
    },
    {
      "midi": 78,
      "hit": false,
      "t": 171837.37885416782,
      "d": 355.15837499999907,
      "v": 127
    },
    {
      "midi": 69,
      "hit": false,
      "t": 171956.42635416784,
      "d": 119.04749999998603,
      "v": 100
    },
    {
      "midi": 70,
      "hit": false,
      "t": 171956.42635416784,
      "d": 119.04749999998603,
      "v": 100
    },
    {
      "midi": 54,
      "hit": false,
      "t": 171956.42635416784,
      "d": 119.04749999998603,
      "v": 127
    },
    {
      "midi": 42,
      "hit": false,
      "t": 171956.42635416784,
      "d": 119.04749999998603,
      "v": 115
    },
    {
      "midi": 38,
      "hit": false,
      "t": 171956.42635416784,
      "d": 119.04749999998603,
      "v": 115
    },
    {
      "midi": 57,
      "hit": false,
      "t": 171956.42635416784,
      "d": 210.31724999999278,
      "v": 100
    },
    {
      "midi": 57,
      "hit": false,
      "t": 172194.5213541678,
      "d": 39.68249999999534,
      "v": 76
    },
    {
      "midi": 38,
      "hit": false,
      "t": 172194.5213541678,
      "d": 67.46025000000373,
      "v": 116
    },
    {
      "midi": 69,
      "hit": false,
      "t": 172194.5213541678,
      "d": 119.04750000001513,
      "v": 60
    },
    {
      "midi": 42,
      "hit": false,
      "t": 172194.5213541678,
      "d": 119.04750000001513,
      "v": 90
    },
    {
      "midi": 35,
      "hit": false,
      "t": 172194.5213541678,
      "d": 119.04750000001513,
      "v": 100
    },
    {
      "midi": 79,
      "hit": false,
      "t": 172194.5213541678,
      "d": 236.11087500001304,
      "v": 127
    },
    {
      "midi": 62,
      "hit": false,
      "t": 172194.5213541678,
      "d": 238.09500000000116,
      "v": 95
    },
    {
      "midi": 26,
      "hit": false,
      "t": 172313.56885416782,
      "d": 59.523749999993015,
      "v": 80
    },
    {
      "midi": 42,
      "hit": false,
      "t": 172432.6163541678,
      "d": 83.33324999999604,
      "v": 115
    },
    {
      "midi": 69,
      "hit": false,
      "t": 172432.6163541678,
      "d": 119.04749999998603,
      "v": 100
    },
    {
      "midi": 70,
      "hit": false,
      "t": 172432.6163541678,
      "d": 119.04749999998603,
      "v": 100
    },
    {
      "midi": 54,
      "hit": false,
      "t": 172432.6163541678,
      "d": 119.04749999998603,
      "v": 100
    },
    {
      "midi": 35,
      "hit": false,
      "t": 172432.6163541678,
      "d": 119.04749999998603,
      "v": 115
    },
    {
      "midi": 49,
      "hit": false,
      "t": 172432.6163541678,
      "d": 257.93624999996973,
      "v": 113
    },
    {
      "midi": 78,
      "hit": false,
      "t": 172432.6163541678,
      "d": 950.3958749999583,
      "v": 127
    },
    {
      "midi": 76,
      "hit": false,
      "t": 172432.6163541678,
      "d": 952.3799999999464,
      "v": 61
    },
    {
      "midi": 42,
      "hit": false,
      "t": 172670.71135416778,
      "d": 7.93650000001071,
      "v": 100
    },
    {
      "midi": 69,
      "hit": false,
      "t": 172670.71135416778,
      "d": 119.04749999998603,
      "v": 60
    },
    {
      "midi": 35,
      "hit": false,
      "t": 172670.71135416778,
      "d": 119.04749999998603,
      "v": 100
    },
    {
      "midi": 42,
      "hit": false,
      "t": 172789.75885416777,
      "d": 0,
      "v": 26
    },
    {
      "midi": 42,
      "hit": false,
      "t": 172908.80635416778,
      "d": 59.523749999993015,
      "v": 115
    },
    {
      "midi": 69,
      "hit": false,
      "t": 172908.80635416778,
      "d": 119.04749999998603,
      "v": 100
    },
    {
      "midi": 70,
      "hit": false,
      "t": 172908.80635416778,
      "d": 119.04749999998603,
      "v": 100
    },
    {
      "midi": 54,
      "hit": false,
      "t": 172908.80635416778,
      "d": 119.04749999998603,
      "v": 127
    },
    {
      "midi": 38,
      "hit": false,
      "t": 172908.80635416778,
      "d": 119.04749999998603,
      "v": 115
    },
    {
      "midi": 49,
      "hit": false,
      "t": 172908.80635416778,
      "d": 210.31724999999278,
      "v": 100
    },
    {
      "midi": 34,
      "hit": false,
      "t": 173146.90135416779,
      "d": 99.20624999998836,
      "v": 110
    },
    {
      "midi": 69,
      "hit": false,
      "t": 173146.90135416779,
      "d": 119.04749999998603,
      "v": 60
    },
    {
      "midi": 42,
      "hit": false,
      "t": 173146.90135416779,
      "d": 119.04749999998603,
      "v": 100
    },
    {
      "midi": 35,
      "hit": false,
      "t": 173146.90135416779,
      "d": 119.04749999998603,
      "v": 100
    },
    {
      "midi": 59,
      "hit": false,
      "t": 173384.99635416776,
      "d": 31.746000000013737,
      "v": 105
    },
    {
      "midi": 69,
      "hit": false,
      "t": 173384.99635416776,
      "d": 119.04750000001513,
      "v": 100
    },
    {
      "midi": 70,
      "hit": false,
      "t": 173384.99635416776,
      "d": 119.04750000001513,
      "v": 100
    },
    {
      "midi": 54,
      "hit": false,
      "t": 173384.99635416776,
      "d": 119.04750000001513,
      "v": 100
    },
    {
      "midi": 42,
      "hit": false,
      "t": 173384.99635416776,
      "d": 119.04750000001513,
      "v": 115
    },
    {
      "midi": 35,
      "hit": false,
      "t": 173384.99635416776,
      "d": 119.04750000001513,
      "v": 115
    },
    {
      "midi": 47,
      "hit": false,
      "t": 173384.99635416776,
      "d": 158.73000000003958,
      "v": 107
    },
    {
      "midi": 74,
      "hit": false,
      "t": 173384.99635416776,
      "d": 355.1583750000573,
      "v": 60
    },
    {
      "midi": 78,
      "hit": false,
      "t": 173384.99635416776,
      "d": 952.3799999999756,
      "v": 60
    },
    {
      "midi": 71,
      "hit": false,
      "t": 173384.99635416776,
      "d": 952.3799999999756,
      "v": 45
    },
    {
      "midi": 66,
      "hit": false,
      "t": 173384.99635416776,
      "d": 952.3799999999756,
      "v": 56
    },
    {
      "midi": 23,
      "hit": false,
      "t": 173504.04385416777,
      "d": 111.11100000003353,
      "v": 82
    },
    {
      "midi": 69,
      "hit": false,
      "t": 173623.09135416782,
      "d": 119.04749999998603,
      "v": 60
    },
    {
      "midi": 42,
      "hit": false,
      "t": 173623.09135416782,
      "d": 119.04749999998603,
      "v": 90
    },
    {
      "midi": 35,
      "hit": false,
      "t": 173623.09135416782,
      "d": 119.04749999998603,
      "v": 100
    },
    {
      "midi": 47,
      "hit": false,
      "t": 173623.09135416782,
      "d": 706.3484999999346,
      "v": 107
    },
    {
      "midi": 73,
      "hit": false,
      "t": 173742.1388541678,
      "d": 355.15837499996996,
      "v": 127
    },
    {
      "midi": 69,
      "hit": false,
      "t": 173861.18635416782,
      "d": 119.04749999998603,
      "v": 100
    },
    {
      "midi": 70,
      "hit": false,
      "t": 173861.18635416782,
      "d": 119.04749999998603,
      "v": 100
    },
    {
      "midi": 54,
      "hit": false,
      "t": 173861.18635416782,
      "d": 119.04749999998603,
      "v": 127
    },
    {
      "midi": 42,
      "hit": false,
      "t": 173861.18635416782,
      "d": 119.04749999998603,
      "v": 115
    },
    {
      "midi": 38,
      "hit": false,
      "t": 173861.18635416782,
      "d": 119.04749999998603,
      "v": 115
    },
    {
      "midi": 35,
      "hit": false,
      "t": 173861.18635416782,
      "d": 154.76174999997602,
      "v": 107
    },
    {
      "midi": 54,
      "hit": false,
      "t": 174099.28135416776,
      "d": 39.68249999999534,
      "v": 76
    },
    {
      "midi": 69,
      "hit": false,
      "t": 174099.28135416776,
      "d": 119.04749999998603,
      "v": 60
    },
    {
      "midi": 46,
      "hit": false,
      "t": 174099.28135416776,
      "d": 119.04749999998603,
      "v": 100
    },
    {
      "midi": 35,
      "hit": false,
      "t": 174099.28135416776,
      "d": 119.04749999998603,
      "v": 90
    },
    {
      "midi": 74,
      "hit": false,
      "t": 174099.28135416776,
      "d": 236.11087499998393,
      "v": 127
    },
    {
      "midi": 59,
      "hit": false,
      "t": 174099.28135416776,
      "d": 238.09499999997206,
      "v": 95
    },
    {
      "midi": 43,
      "hit": false,
      "t": 174337.37635416773,
      "d": 83.33324999999604,
      "v": 110
    },
    {
      "midi": 69,
      "hit": false,
      "t": 174337.37635416773,
      "d": 119.04749999998603,
      "v": 100
    },
    {
      "midi": 70,
      "hit": false,
      "t": 174337.37635416773,
      "d": 119.04749999998603,
      "v": 100
    },
    {
      "midi": 54,
      "hit": false,
      "t": 174337.37635416773,
      "d": 119.04749999998603,
      "v": 100
    },
    {
      "midi": 42,
      "hit": false,
      "t": 174337.37635416773,
      "d": 119.04749999998603,
      "v": 115
    },
    {
      "midi": 35,
      "hit": false,
      "t": 174337.37635416773,
      "d": 119.04749999998603,
      "v": 115
    },
    {
      "midi": 76,
      "hit": false,
      "t": 174337.37635416773,
      "d": 236.11087499998393,
      "v": 127
    },
    {
      "midi": 50,
      "hit": false,
      "t": 174337.37635416773,
      "d": 257.93624999996973,
      "v": 113
    },
    {
      "midi": 79,
      "hit": false,
      "t": 174337.37635416773,
      "d": 952.3799999999173,
      "v": 61
    },
    {
      "midi": 71,
      "hit": false,
      "t": 174337.37635416773,
      "d": 952.3799999999173,
      "v": 50
    },
    {
      "midi": 43,
      "hit": false,
      "t": 174575.4713541677,
      "d": 7.93650000001071,
      "v": 116
    },
    {
      "midi": 69,
      "hit": false,
      "t": 174575.4713541677,
      "d": 119.04749999998603,
      "v": 60
    },
    {
      "midi": 42,
      "hit": false,
      "t": 174575.4713541677,
      "d": 119.04749999998603,
      "v": 100
    },
    {
      "midi": 35,
      "hit": false,
      "t": 174575.4713541677,
      "d": 119.04749999998603,
      "v": 90
    },
    {
      "midi": 74,
      "hit": false,
      "t": 174575.4713541677,
      "d": 236.11087500001304,
      "v": 127
    },
    {
      "midi": 43,
      "hit": false,
      "t": 174694.5188541677,
      "d": 75.39675000001444,
      "v": 26
    },
    {
      "midi": 43,
      "hit": false,
      "t": 174813.5663541677,
      "d": 59.523749999993015,
      "v": 110
    },
    {
      "midi": 69,
      "hit": false,
      "t": 174813.5663541677,
      "d": 119.04749999998603,
      "v": 100
    },
    {
      "midi": 70,
      "hit": false,
      "t": 174813.5663541677,
      "d": 119.04749999998603,
      "v": 100
    },
    {
      "midi": 54,
      "hit": false,
      "t": 174813.5663541677,
      "d": 119.04749999998603,
      "v": 127
    },
    {
      "midi": 42,
      "hit": false,
      "t": 174813.5663541677,
      "d": 119.04749999998603,
      "v": 115
    },
    {
      "midi": 38,
      "hit": false,
      "t": 174813.5663541677,
      "d": 119.04749999998603,
      "v": 115
    },
    {
      "midi": 50,
      "hit": false,
      "t": 174813.5663541677,
      "d": 210.31724999999278,
      "v": 100
    },
    {
      "midi": 73,
      "hit": false,
      "t": 174813.5663541677,
      "d": 236.11087499998393,
      "v": 127
    },
    {
      "midi": 32,
      "hit": false,
      "t": 175051.66135416768,
      "d": 99.20624999998836,
      "v": 110
    },
    {
      "midi": 69,
      "hit": false,
      "t": 175051.66135416768,
      "d": 119.04749999998603,
      "v": 60
    },
    {
      "midi": 42,
      "hit": false,
      "t": 175051.66135416768,
      "d": 119.04749999998603,
      "v": 100
    },
    {
      "midi": 35,
      "hit": false,
      "t": 175051.66135416768,
      "d": 119.04749999998603,
      "v": 100
    },
    {
      "midi": 74,
      "hit": false,
      "t": 175051.66135416768,
      "d": 236.11087499998393,
      "v": 127
    },
    {
      "midi": 33,
      "hit": false,
      "t": 175289.75635416765,
      "d": 83.33324999999604,
      "v": 105
    },
    {
      "midi": 69,
      "hit": false,
      "t": 175289.75635416765,
      "d": 119.04749999998603,
      "v": 100
    },
    {
      "midi": 70,
      "hit": false,
      "t": 175289.75635416765,
      "d": 119.04749999998603,
      "v": 100
    },
    {
      "midi": 54,
      "hit": false,
      "t": 175289.75635416765,
      "d": 119.04749999998603,
      "v": 100
    },
    {
      "midi": 42,
      "hit": false,
      "t": 175289.75635416765,
      "d": 119.04749999998603,
      "v": 115
    },
    {
      "midi": 35,
      "hit": false,
      "t": 175289.75635416765,
      "d": 119.04749999998603,
      "v": 115
    },
    {
      "midi": 76,
      "hit": false,
      "t": 175289.75635416765,
      "d": 355.15837499996996,
      "v": 127
    },
    {
      "midi": 45,
      "hit": false,
      "t": 175289.75635416765,
      "d": 722.221499999956,
      "v": 105
    },
    {
      "midi": 52,
      "hit": false,
      "t": 175289.75635416765,
      "d": 726.1897499999614,
      "v": 102
    },
    {
      "midi": 69,
      "hit": false,
      "t": 175527.85135416762,
      "d": 119.04749999998603,
      "v": 60
    },
    {
      "midi": 42,
      "hit": false,
      "t": 175527.85135416762,
      "d": 119.04749999998603,
      "v": 90
    },
    {
      "midi": 35,
      "hit": false,
      "t": 175527.85135416762,
      "d": 119.04749999998603,
      "v": 100
    },
    {
      "midi": 33,
      "hit": false,
      "t": 175527.85135416762,
      "d": 194.44425000000047,
      "v": 116
    },
    {
      "midi": 73,
      "hit": false,
      "t": 175527.85135416762,
      "d": 202.38075000001118,
      "v": 29
    },
    {
      "midi": 81,
      "hit": false,
      "t": 175646.8988541676,
      "d": 355.15837499999907,
      "v": 127
    },
    {
      "midi": 69,
      "hit": false,
      "t": 175765.94635416762,
      "d": 119.04749999998603,
      "v": 100
    },
    {
      "midi": 70,
      "hit": false,
      "t": 175765.94635416762,
      "d": 119.04749999998603,
      "v": 100
    },
    {
      "midi": 54,
      "hit": false,
      "t": 175765.94635416762,
      "d": 119.04749999998603,
      "v": 127
    },
    {
      "midi": 42,
      "hit": false,
      "t": 175765.94635416762,
      "d": 119.04749999998603,
      "v": 115
    },
    {
      "midi": 38,
      "hit": false,
      "t": 175765.94635416762,
      "d": 119.04749999998603,
      "v": 115
    },
    {
      "midi": 33,
      "hit": false,
      "t": 175765.94635416762,
      "d": 123.01574999999139,
      "v": 110
    },
    {
      "midi": 37,
      "hit": false,
      "t": 176004.0413541676,
      "d": 99.20625000001746,
      "v": 110
    },
    {
      "midi": 69,
      "hit": false,
      "t": 176004.0413541676,
      "d": 119.04750000001513,
      "v": 60
    },
    {
      "midi": 46,
      "hit": false,
      "t": 176004.0413541676,
      "d": 119.04750000001513,
      "v": 100
    },
    {
      "midi": 35,
      "hit": false,
      "t": 176004.0413541676,
      "d": 119.04750000001513,
      "v": 90
    },
    {
      "midi": 76,
      "hit": false,
      "t": 176004.0413541676,
      "d": 236.11087500001304,
      "v": 127
    },
    {
      "midi": 38,
      "hit": false,
      "t": 176242.1363541676,
      "d": 83.33324999999604,
      "v": 105
    },
    {
      "midi": 69,
      "hit": false,
      "t": 176242.1363541676,
      "d": 119.04749999998603,
      "v": 100
    },
    {
      "midi": 70,
      "hit": false,
      "t": 176242.1363541676,
      "d": 119.04749999998603,
      "v": 100
    },
    {
      "midi": 54,
      "hit": false,
      "t": 176242.1363541676,
      "d": 119.04749999998603,
      "v": 100
    },
    {
      "midi": 42,
      "hit": false,
      "t": 176242.1363541676,
      "d": 119.04749999998603,
      "v": 115
    },
    {
      "midi": 35,
      "hit": false,
      "t": 176242.1363541676,
      "d": 119.04749999998603,
      "v": 115
    },
    {
      "midi": 79,
      "hit": false,
      "t": 176242.1363541676,
      "d": 236.11087499998393,
      "v": 127
    },
    {
      "midi": 50,
      "hit": false,
      "t": 176242.1363541676,
      "d": 722.2214999999851,
      "v": 105
    },
    {
      "midi": 57,
      "hit": false,
      "t": 176242.1363541676,
      "d": 726.1897499999905,
      "v": 102
    },
    {
      "midi": 78,
      "hit": false,
      "t": 176480.23135416757,
      "d": 117.0633749999979,
      "v": 127
    },
    {
      "midi": 69,
      "hit": false,
      "t": 176480.23135416757,
      "d": 119.04749999998603,
      "v": 60
    },
    {
      "midi": 42,
      "hit": false,
      "t": 176480.23135416757,
      "d": 119.04749999998603,
      "v": 100
    },
    {
      "midi": 35,
      "hit": false,
      "t": 176480.23135416757,
      "d": 119.04749999998603,
      "v": 90
    },
    {
      "midi": 38,
      "hit": false,
      "t": 176480.23135416757,
      "d": 194.44425000000047,
      "v": 116
    },
    {
      "midi": 78,
      "hit": false,
      "t": 176599.27885416755,
      "d": 593.2533750000293,
      "v": 127
    },
    {
      "midi": 69,
      "hit": false,
      "t": 176718.32635416757,
      "d": 119.04749999998603,
      "v": 100
    },
    {
      "midi": 70,
      "hit": false,
      "t": 176718.32635416757,
      "d": 119.04749999998603,
      "v": 100
    },
    {
      "midi": 54,
      "hit": false,
      "t": 176718.32635416757,
      "d": 119.04749999998603,
      "v": 127
    },
    {
      "midi": 42,
      "hit": false,
      "t": 176718.32635416757,
      "d": 119.04749999998603,
      "v": 115
    },
    {
      "midi": 38,
      "hit": false,
      "t": 176718.32635416757,
      "d": 119.04749999998603,
      "v": 115
    },
    {
      "midi": 39,
      "hit": false,
      "t": 176956.42135416757,
      "d": 99.20625000001746,
      "v": 110
    },
    {
      "midi": 69,
      "hit": false,
      "t": 176956.42135416757,
      "d": 119.04750000001513,
      "v": 60
    },
    {
      "midi": 42,
      "hit": false,
      "t": 176956.42135416757,
      "d": 119.04750000001513,
      "v": 100
    },
    {
      "midi": 35,
      "hit": false,
      "t": 176956.42135416757,
      "d": 119.04750000001513,
      "v": 100
    },
    {
      "midi": 38,
      "hit": false,
      "t": 176956.42135416757,
      "d": 206.34900000001653,
      "v": 82
    },
    {
      "midi": 69,
      "hit": false,
      "t": 177194.51635416757,
      "d": 119.04749999998603,
      "v": 100
    },
    {
      "midi": 70,
      "hit": false,
      "t": 177194.51635416757,
      "d": 119.04749999998603,
      "v": 100
    },
    {
      "midi": 54,
      "hit": false,
      "t": 177194.51635416757,
      "d": 119.04749999998603,
      "v": 100
    },
    {
      "midi": 42,
      "hit": false,
      "t": 177194.51635416757,
      "d": 119.04749999998603,
      "v": 115
    },
    {
      "midi": 35,
      "hit": false,
      "t": 177194.51635416757,
      "d": 119.04749999998603,
      "v": 115
    },
    {
      "midi": 40,
      "hit": false,
      "t": 177194.51635416757,
      "d": 150.79349999999977,
      "v": 105
    },
    {
      "midi": 71,
      "hit": false,
      "t": 177194.51635416757,
      "d": 355.15837499999907,
      "v": 45
    },
    {
      "midi": 52,
      "hit": false,
      "t": 177194.51635416757,
      "d": 722.2215000000142,
      "v": 105
    },
    {
      "midi": 59,
      "hit": false,
      "t": 177194.51635416757,
      "d": 726.1897500000196,
      "v": 102
    },
    {
      "midi": 74,
      "hit": false,
      "t": 177194.51635416757,
      "d": 952.3800000000047,
      "v": 60
    },
    {
      "midi": 67,
      "hit": false,
      "t": 177194.51635416757,
      "d": 952.3800000000047,
      "v": 56
    },
    {
      "midi": 69,
      "hit": false,
      "t": 177432.61135416757,
      "d": 119.04749999998603,
      "v": 60
    },
    {
      "midi": 42,
      "hit": false,
      "t": 177432.61135416757,
      "d": 119.04749999998603,
      "v": 90
    },
    {
      "midi": 35,
      "hit": false,
      "t": 177432.61135416757,
      "d": 119.04749999998603,
      "v": 100
    },
    {
      "midi": 40,
      "hit": false,
      "t": 177432.61135416757,
      "d": 190.4759999999951,
      "v": 107
    },
    {
      "midi": 78,
      "hit": false,
      "t": 177551.65885416756,
      "d": 355.1583750000282,
      "v": 127
    },
    {
      "midi": 69,
      "hit": false,
      "t": 177670.70635416757,
      "d": 119.04749999998603,
      "v": 100
    },
    {
      "midi": 70,
      "hit": false,
      "t": 177670.70635416757,
      "d": 119.04749999998603,
      "v": 100
    },
    {
      "midi": 54,
      "hit": false,
      "t": 177670.70635416757,
      "d": 119.04749999998603,
      "v": 127
    },
    {
      "midi": 42,
      "hit": false,
      "t": 177670.70635416757,
      "d": 119.04749999998603,
      "v": 115
    },
    {
      "midi": 38,
      "hit": false,
      "t": 177670.70635416757,
      "d": 119.04749999998603,
      "v": 115
    },
    {
      "midi": 40,
      "hit": false,
      "t": 177670.70635416757,
      "d": 150.79349999999977,
      "v": 102
    },
    {
      "midi": 40,
      "hit": false,
      "t": 177908.80135416758,
      "d": 67.46025000000373,
      "v": 82
    },
    {
      "midi": 69,
      "hit": false,
      "t": 177908.80135416758,
      "d": 119.04750000001513,
      "v": 60
    },
    {
      "midi": 46,
      "hit": false,
      "t": 177908.80135416758,
      "d": 119.04750000001513,
      "v": 100
    },
    {
      "midi": 35,
      "hit": false,
      "t": 177908.80135416758,
      "d": 119.04750000001513,
      "v": 90
    },
    {
      "midi": 76,
      "hit": false,
      "t": 177908.80135416758,
      "d": 236.11087500001304,
      "v": 127
    },
    {
      "midi": 28,
      "hit": false,
      "t": 178027.8488541676,
      "d": 59.523749999993015,
      "v": 80
    },
    {
      "midi": 52,
      "hit": false,
      "t": 178146.89635416758,
      "d": 31.746000000013737,
      "v": 55
    },
    {
      "midi": 69,
      "hit": false,
      "t": 178146.89635416758,
      "d": 119.04750000001513,
      "v": 100
    },
    {
      "midi": 70,
      "hit": false,
      "t": 178146.89635416758,
      "d": 119.04750000001513,
      "v": 100
    },
    {
      "midi": 54,
      "hit": false,
      "t": 178146.89635416758,
      "d": 119.04750000001513,
      "v": 100
    },
    {
      "midi": 42,
      "hit": false,
      "t": 178146.89635416758,
      "d": 119.04750000001513,
      "v": 115
    },
    {
      "midi": 35,
      "hit": false,
      "t": 178146.89635416758,
      "d": 119.04750000001513,
      "v": 115
    },
    {
      "midi": 49,
      "hit": false,
      "t": 178146.89635416758,
      "d": 325.39650000006077,
      "v": 102
    },
    {
      "midi": 81,
      "hit": false,
      "t": 178146.89635416758,
      "d": 355.1583750000573,
      "v": 127
    },
    {
      "midi": 30,
      "hit": false,
      "t": 178265.9438541676,
      "d": 111.11100000003353,
      "v": 82
    },
    {
      "midi": 69,
      "hit": false,
      "t": 178384.99135416764,
      "d": 119.04749999998603,
      "v": 60
    },
    {
      "midi": 42,
      "hit": false,
      "t": 178384.99135416764,
      "d": 119.04749999998603,
      "v": 100
    },
    {
      "midi": 35,
      "hit": false,
      "t": 178384.99135416764,
      "d": 119.04749999998603,
      "v": 90
    },
    {
      "midi": 76,
      "hit": false,
      "t": 178384.99135416764,
      "d": 202.38075000001118,
      "v": 29
    },
    {
      "midi": 79,
      "hit": false,
      "t": 178504.03885416762,
      "d": 355.15837499996996,
      "v": 127
    },
    {
      "midi": 54,
      "hit": false,
      "t": 178623.08635416764,
      "d": 11.904749999986961,
      "v": 127
    },
    {
      "midi": 69,
      "hit": false,
      "t": 178623.08635416764,
      "d": 119.04749999998603,
      "v": 100
    },
    {
      "midi": 70,
      "hit": false,
      "t": 178623.08635416764,
      "d": 119.04749999998603,
      "v": 100
    },
    {
      "midi": 42,
      "hit": false,
      "t": 178623.08635416764,
      "d": 119.04749999998603,
      "v": 115
    },
    {
      "midi": 38,
      "hit": false,
      "t": 178623.08635416764,
      "d": 119.04749999998603,
      "v": 115
    },
    {
      "midi": 49,
      "hit": false,
      "t": 178623.08635416764,
      "d": 210.31724999996368,
      "v": 100
    },
    {
      "midi": 49,
      "hit": false,
      "t": 178861.18135416758,
      "d": 39.68249999999534,
      "v": 76
    },
    {
      "midi": 69,
      "hit": false,
      "t": 178861.18135416758,
      "d": 119.04749999998603,
      "v": 60
    },
    {
      "midi": 42,
      "hit": false,
      "t": 178861.18135416758,
      "d": 119.04749999998603,
      "v": 100
    },
    {
      "midi": 35,
      "hit": false,
      "t": 178861.18135416758,
      "d": 119.04749999998603,
      "v": 100
    },
    {
      "midi": 78,
      "hit": false,
      "t": 178861.18135416758,
      "d": 236.11087499998393,
      "v": 127
    },
    {
      "midi": 54,
      "hit": false,
      "t": 178861.18135416758,
      "d": 238.09499999997206,
      "v": 95
    },
    {
      "midi": 43,
      "hit": false,
      "t": 179099.27635416755,
      "d": 83.33324999999604,
      "v": 110
    },
    {
      "midi": 69,
      "hit": false,
      "t": 179099.27635416755,
      "d": 119.04749999998603,
      "v": 100
    },
    {
      "midi": 70,
      "hit": false,
      "t": 179099.27635416755,
      "d": 119.04749999998603,
      "v": 100
    },
    {
      "midi": 54,
      "hit": false,
      "t": 179099.27635416755,
      "d": 119.04749999998603,
      "v": 100
    },
    {
      "midi": 42,
      "hit": false,
      "t": 179099.27635416755,
      "d": 119.04749999998603,
      "v": 115
    },
    {
      "midi": 35,
      "hit": false,
      "t": 179099.27635416755,
      "d": 119.04749999998603,
      "v": 115
    },
    {
      "midi": 50,
      "hit": false,
      "t": 179099.27635416755,
      "d": 257.93624999996973,
      "v": 113
    },
    {
      "midi": 76,
      "hit": false,
      "t": 179099.27635416755,
      "d": 355.15837499996996,
      "v": 127
    },
    {
      "midi": 77,
      "hit": false,
      "t": 179099.27635416755,
      "d": 857.1419999999343,
      "v": 55
    },
    {
      "midi": 82,
      "hit": false,
      "t": 179099.27635416755,
      "d": 865.078499999945,
      "v": 48
    },
    {
      "midi": 43,
      "hit": false,
      "t": 179337.37135416752,
      "d": 7.93650000001071,
      "v": 116
    },
    {
      "midi": 69,
      "hit": false,
      "t": 179337.37135416752,
      "d": 119.04749999998603,
      "v": 60
    },
    {
      "midi": 42,
      "hit": false,
      "t": 179337.37135416752,
      "d": 119.04749999998603,
      "v": 90
    },
    {
      "midi": 35,
      "hit": false,
      "t": 179337.37135416752,
      "d": 119.04749999998603,
      "v": 100
    },
    {
      "midi": 43,
      "hit": false,
      "t": 179456.4188541675,
      "d": 75.39675000001444,
      "v": 26
    },
    {
      "midi": 78,
      "hit": false,
      "t": 179456.4188541675,
      "d": 355.15837499999907,
      "v": 127
    },
    {
      "midi": 43,
      "hit": false,
      "t": 179575.46635416753,
      "d": 59.523749999993015,
      "v": 110
    },
    {
      "midi": 69,
      "hit": false,
      "t": 179575.46635416753,
      "d": 119.04749999998603,
      "v": 100
    },
    {
      "midi": 70,
      "hit": false,
      "t": 179575.46635416753,
      "d": 119.04749999998603,
      "v": 100
    },
    {
      "midi": 54,
      "hit": false,
      "t": 179575.46635416753,
      "d": 119.04749999998603,
      "v": 127
    },
    {
      "midi": 42,
      "hit": false,
      "t": 179575.46635416753,
      "d": 119.04749999998603,
      "v": 115
    },
    {
      "midi": 38,
      "hit": false,
      "t": 179575.46635416753,
      "d": 119.04749999998603,
      "v": 115
    },
    {
      "midi": 50,
      "hit": false,
      "t": 179575.46635416753,
      "d": 210.31724999999278,
      "v": 100
    },
    {
      "midi": 32,
      "hit": false,
      "t": 179813.5613541675,
      "d": 99.20624999998836,
      "v": 110
    },
    {
      "midi": 69,
      "hit": false,
      "t": 179813.5613541675,
      "d": 119.04749999998603,
      "v": 60
    },
    {
      "midi": 46,
      "hit": false,
      "t": 179813.5613541675,
      "d": 119.04749999998603,
      "v": 100
    },
    {
      "midi": 35,
      "hit": false,
      "t": 179813.5613541675,
      "d": 119.04749999998603,
      "v": 90
    },
    {
      "midi": 79,
      "hit": false,
      "t": 179813.5613541675,
      "d": 142.85699999998906,
      "v": 127
    },
    {
      "midi": 69,
      "hit": false,
      "t": 180051.65635416747,
      "d": 119.04750000001513,
      "v": 100
    },
    {
      "midi": 70,
      "hit": false,
      "t": 180051.65635416747,
      "d": 119.04750000001513,
      "v": 100
    },
    {
      "midi": 54,
      "hit": false,
      "t": 180051.65635416747,
      "d": 119.04750000001513,
      "v": 100
    },
    {
      "midi": 42,
      "hit": false,
      "t": 180051.65635416747,
      "d": 119.04750000001513,
      "v": 115
    },
    {
      "midi": 35,
      "hit": false,
      "t": 180051.65635416747,
      "d": 119.04750000001513,
      "v": 115
    },
    {
      "midi": 33,
      "hit": false,
      "t": 180051.65635416747,
      "d": 170.63475000002654,
      "v": 102
    },
    {
      "midi": 78,
      "hit": false,
      "t": 180051.65635416747,
      "d": 474.2058750000433,
      "v": 127
    },
    {
      "midi": 73,
      "hit": false,
      "t": 180051.65635416747,
      "d": 476.19000000003143,
      "v": 11
    },
    {
      "midi": 45,
      "hit": false,
      "t": 180067.52935416746,
      "d": 369.04725000003236,
      "v": 98
    },
    {
      "midi": 57,
      "hit": false,
      "t": 180071.49760416747,
      "d": 369.04725000003236,
      "v": 91
    },
    {
      "midi": 52,
      "hit": false,
      "t": 180075.46585416747,
      "d": 357.1425000000163,
      "v": 100
    },
    {
      "midi": 69,
      "hit": false,
      "t": 180289.7513541675,
      "d": 119.04749999998603,
      "v": 60
    },
    {
      "midi": 42,
      "hit": false,
      "t": 180289.7513541675,
      "d": 119.04749999998603,
      "v": 100
    },
    {
      "midi": 35,
      "hit": false,
      "t": 180289.7513541675,
      "d": 119.04749999998603,
      "v": 90
    },
    {
      "midi": 33,
      "hit": false,
      "t": 180289.7513541675,
      "d": 158.73000000001048,
      "v": 85
    },
    {
      "midi": 69,
      "hit": false,
      "t": 180527.8463541675,
      "d": 119.04750000001513,
      "v": 100
    },
    {
      "midi": 70,
      "hit": false,
      "t": 180527.8463541675,
      "d": 119.04750000001513,
      "v": 100
    },
    {
      "midi": 42,
      "hit": false,
      "t": 180527.8463541675,
      "d": 119.04750000001513,
      "v": 115
    },
    {
      "midi": 38,
      "hit": false,
      "t": 180527.8463541675,
      "d": 119.04750000001513,
      "v": 115
    },
    {
      "midi": 78,
      "hit": false,
      "t": 180527.8463541675,
      "d": 236.11087500001304,
      "v": 127
    },
    {
      "midi": 34,
      "hit": false,
      "t": 180543.7193541675,
      "d": 154.76175000003423,
      "v": 98
    },
    {
      "midi": 54,
      "hit": false,
      "t": 180547.6876041675,
      "d": 99.20625000001746,
      "v": 91
    },
    {
      "midi": 49,
      "hit": false,
      "t": 180551.6558541675,
      "d": 357.1424999999872,
      "v": 100
    },
    {
      "midi": 76,
      "hit": false,
      "t": 180765.9413541675,
      "d": 117.0633749999979,
      "v": 127
    },
    {
      "midi": 69,
      "hit": false,
      "t": 180765.9413541675,
      "d": 119.04749999998603,
      "v": 60
    },
    {
      "midi": 42,
      "hit": false,
      "t": 180765.9413541675,
      "d": 119.04749999998603,
      "v": 100
    },
    {
      "midi": 35,
      "hit": false,
      "t": 180765.9413541675,
      "d": 119.04749999998603,
      "v": 100
    },
    {
      "midi": 34,
      "hit": false,
      "t": 180765.9413541675,
      "d": 146.8252499999944,
      "v": 85
    },
    {
      "midi": 35,
      "hit": false,
      "t": 181004.0363541675,
      "d": 107.14274999999907,
      "v": 115
    },
    {
      "midi": 69,
      "hit": false,
      "t": 181004.0363541675,
      "d": 119.04749999998603,
      "v": 100
    },
    {
      "midi": 70,
      "hit": false,
      "t": 181004.0363541675,
      "d": 119.04749999998603,
      "v": 100
    },
    {
      "midi": 54,
      "hit": false,
      "t": 181004.0363541675,
      "d": 119.04749999998603,
      "v": 100
    },
    {
      "midi": 42,
      "hit": false,
      "t": 181004.0363541675,
      "d": 119.04749999998603,
      "v": 115
    },
    {
      "midi": 78,
      "hit": false,
      "t": 181004.0363541675,
      "d": 1115.078249999904,
      "v": 43
    },
    {
      "midi": 74,
      "hit": false,
      "t": 181004.0363541675,
      "d": 1194.4432499999239,
      "v": 41
    },
    {
      "midi": 71,
      "hit": false,
      "t": 181004.0363541675,
      "d": 1337.300249999942,
      "v": 45
    },
    {
      "midi": 66,
      "hit": false,
      "t": 181004.0363541675,
      "d": 1896.8234999999695,
      "v": 43
    },
    {
      "midi": 69,
      "hit": false,
      "t": 181242.13135416748,
      "d": 119.04749999998603,
      "v": 60
    },
    {
      "midi": 42,
      "hit": false,
      "t": 181242.13135416748,
      "d": 119.04749999998603,
      "v": 90
    },
    {
      "midi": 35,
      "hit": false,
      "t": 181242.13135416748,
      "d": 119.04749999998603,
      "v": 100
    },
    {
      "midi": 47,
      "hit": false,
      "t": 181242.13135416748,
      "d": 130.952249999973,
      "v": 107
    },
    {
      "midi": 54,
      "hit": false,
      "t": 181242.13135416748,
      "d": 158.72999999998137,
      "v": 100
    },
    {
      "midi": 69,
      "hit": false,
      "t": 181480.22635416745,
      "d": 119.04749999998603,
      "v": 100
    },
    {
      "midi": 70,
      "hit": false,
      "t": 181480.22635416745,
      "d": 119.04749999998603,
      "v": 100
    },
    {
      "midi": 54,
      "hit": false,
      "t": 181480.22635416745,
      "d": 119.04749999998603,
      "v": 127
    },
    {
      "midi": 42,
      "hit": false,
      "t": 181480.22635416745,
      "d": 119.04749999998603,
      "v": 115
    },
    {
      "midi": 38,
      "hit": false,
      "t": 181480.22635416745,
      "d": 119.04749999998603,
      "v": 115
    },
    {
      "midi": 35,
      "hit": false,
      "t": 181480.22635416745,
      "d": 158.72999999998137,
      "v": 105
    },
    {
      "midi": 69,
      "hit": false,
      "t": 181718.32135416742,
      "d": 119.04749999998603,
      "v": 60
    },
    {
      "midi": 46,
      "hit": false,
      "t": 181718.32135416742,
      "d": 119.04749999998603,
      "v": 100
    },
    {
      "midi": 35,
      "hit": false,
      "t": 181718.32135416742,
      "d": 119.04749999998603,
      "v": 90
    },
    {
      "midi": 35,
      "hit": false,
      "t": 181956.4163541674,
      "d": 75.39675000001444,
      "v": 115
    },
    {
      "midi": 69,
      "hit": false,
      "t": 181956.4163541674,
      "d": 119.04750000001513,
      "v": 100
    },
    {
      "midi": 70,
      "hit": false,
      "t": 181956.4163541674,
      "d": 119.04750000001513,
      "v": 100
    },
    {
      "midi": 54,
      "hit": false,
      "t": 181956.4163541674,
      "d": 119.04750000001513,
      "v": 100
    },
    {
      "midi": 42,
      "hit": false,
      "t": 181956.4163541674,
      "d": 119.04750000001513,
      "v": 115
    },
    {
      "midi": 47,
      "hit": false,
      "t": 181956.4163541674,
      "d": 309.52350000003935,
      "v": 110
    },
    {
      "midi": 69,
      "hit": false,
      "t": 182194.51135416742,
      "d": 119.04750000001513,
      "v": 60
    },
    {
      "midi": 42,
      "hit": false,
      "t": 182194.51135416742,
      "d": 119.04750000001513,
      "v": 100
    },
    {
      "midi": 35,
      "hit": false,
      "t": 182194.51135416742,
      "d": 119.04750000001513,
      "v": 90
    },
    {
      "midi": 78,
      "hit": false,
      "t": 182198.47960416743,
      "d": 234.1267500000249,
      "v": 66
    },
    {
      "midi": 74,
      "hit": false,
      "t": 182341.33660416745,
      "d": 186.50775000001886,
      "v": 64
    },
    {
      "midi": 54,
      "hit": false,
      "t": 182432.60635416745,
      "d": 31.746000000013737,
      "v": 127
    },
    {
      "midi": 69,
      "hit": false,
      "t": 182432.60635416745,
      "d": 119.04750000001513,
      "v": 100
    },
    {
      "midi": 70,
      "hit": false,
      "t": 182432.60635416745,
      "d": 119.04750000001513,
      "v": 100
    },
    {
      "midi": 42,
      "hit": false,
      "t": 182432.60635416745,
      "d": 119.04750000001513,
      "v": 115
    },
    {
      "midi": 38,
      "hit": false,
      "t": 182432.60635416745,
      "d": 119.04750000001513,
      "v": 115
    },
    {
      "midi": 35,
      "hit": false,
      "t": 182432.60635416745,
      "d": 170.63475000002654,
      "v": 110
    },
    {
      "midi": 71,
      "hit": false,
      "t": 182432.60635416745,
      "d": 202.38075000004028,
      "v": 57
    },
    {
      "midi": 47,
      "hit": false,
      "t": 182432.60635416745,
      "d": 436.507500000007,
      "v": 100
    },
    {
      "midi": 78,
      "hit": false,
      "t": 182551.65385416747,
      "d": 238.09500000000116,
      "v": 72
    },
    {
      "midi": 69,
      "hit": false,
      "t": 182670.70135416748,
      "d": 119.04749999998603,
      "v": 60
    },
    {
      "midi": 42,
      "hit": false,
      "t": 182670.70135416748,
      "d": 119.04749999998603,
      "v": 100
    },
    {
      "midi": 35,
      "hit": false,
      "t": 182670.70135416748,
      "d": 119.04749999998603,
      "v": 100
    },
    {
      "midi": 54,
      "hit": false,
      "t": 182670.70135416748,
      "d": 130.952249999973,
      "v": 100
    },
    {
      "midi": 74,
      "hit": false,
      "t": 182670.70135416748,
      "d": 154.76174999997602,
      "v": 59
    },
    {
      "midi": 71,
      "hit": false,
      "t": 182789.74885416747,
      "d": 95.23800000001211,
      "v": 64
    },
    {
      "midi": 59,
      "hit": false,
      "t": 182908.79635416745,
      "d": 31.746000000013737,
      "v": 105
    },
    {
      "midi": 69,
      "hit": false,
      "t": 182908.79635416745,
      "d": 119.04750000001513,
      "v": 100
    },
    {
      "midi": 70,
      "hit": false,
      "t": 182908.79635416745,
      "d": 119.04750000001513,
      "v": 100
    },
    {
      "midi": 54,
      "hit": false,
      "t": 182908.79635416745,
      "d": 119.04750000001513,
      "v": 100
    },
    {
      "midi": 42,
      "hit": false,
      "t": 182908.79635416745,
      "d": 119.04750000001513,
      "v": 115
    },
    {
      "midi": 35,
      "hit": false,
      "t": 182908.79635416745,
      "d": 119.04750000001513,
      "v": 115
    },
    {
      "midi": 47,
      "hit": false,
      "t": 182908.79635416745,
      "d": 158.73000000003958,
      "v": 107
    },
    {
      "midi": 23,
      "hit": false,
      "t": 183027.84385416747,
      "d": 111.11100000003353,
      "v": 82
    },
    {
      "midi": 69,
      "hit": false,
      "t": 183146.8913541675,
      "d": 119.04750000001513,
      "v": 60
    },
    {
      "midi": 42,
      "hit": false,
      "t": 183146.8913541675,
      "d": 119.04750000001513,
      "v": 70
    },
    {
      "midi": 35,
      "hit": false,
      "t": 183146.8913541675,
      "d": 119.04750000001513,
      "v": 100
    },
    {
      "midi": 71,
      "hit": false,
      "t": 183146.8913541675,
      "d": 198.41250000003492,
      "v": 8
    },
    {
      "midi": 74,
      "hit": false,
      "t": 183146.8913541675,
      "d": 202.38075000004028,
      "v": 29
    },
    {
      "midi": 47,
      "hit": false,
      "t": 183146.8913541675,
      "d": 706.3484999999928,
      "v": 107
    },
    {
      "midi": 69,
      "hit": false,
      "t": 183384.98635416754,
      "d": 119.04749999998603,
      "v": 100
    },
    {
      "midi": 70,
      "hit": false,
      "t": 183384.98635416754,
      "d": 119.04749999998603,
      "v": 100
    },
    {
      "midi": 54,
      "hit": false,
      "t": 183384.98635416754,
      "d": 119.04749999998603,
      "v": 127
    },
    {
      "midi": 42,
      "hit": false,
      "t": 183384.98635416754,
      "d": 119.04749999998603,
      "v": 100
    },
    {
      "midi": 38,
      "hit": false,
      "t": 183384.98635416754,
      "d": 119.04749999998603,
      "v": 115
    },
    {
      "midi": 35,
      "hit": false,
      "t": 183384.98635416754,
      "d": 154.76174999997602,
      "v": 107
    },
    {
      "midi": 76,
      "hit": false,
      "t": 183384.98635416754,
      "d": 474.205874999956,
      "v": 127
    },
    {
      "midi": 54,
      "hit": false,
      "t": 183623.08135416752,
      "d": 39.68249999999534,
      "v": 76
    },
    {
      "midi": 69,
      "hit": false,
      "t": 183623.08135416752,
      "d": 119.04749999998603,
      "v": 60
    },
    {
      "midi": 42,
      "hit": false,
      "t": 183623.08135416752,
      "d": 119.04749999998603,
      "v": 90
    },
    {
      "midi": 35,
      "hit": false,
      "t": 183623.08135416752,
      "d": 119.04749999998603,
      "v": 100
    },
    {
      "midi": 59,
      "hit": false,
      "t": 183623.08135416752,
      "d": 238.09499999997206,
      "v": 95
    },
    {
      "midi": 69,
      "hit": false,
      "t": 183861.1763541675,
      "d": 119.04750000001513,
      "v": 100
    },
    {
      "midi": 70,
      "hit": false,
      "t": 183861.1763541675,
      "d": 119.04750000001513,
      "v": 100
    },
    {
      "midi": 42,
      "hit": false,
      "t": 183861.1763541675,
      "d": 119.04750000001513,
      "v": 115
    },
    {
      "midi": 35,
      "hit": false,
      "t": 183861.1763541675,
      "d": 119.04750000001513,
      "v": 115
    },
    {
      "midi": 78,
      "hit": false,
      "t": 183861.1763541675,
      "d": 474.2058750000433,
      "v": 127
    },
    {
      "midi": 74,
      "hit": false,
      "t": 183861.1763541675,
      "d": 476.19000000003143,
      "v": 11
    },
    {
      "midi": 47,
      "hit": false,
      "t": 183877.04935416748,
      "d": 369.04725000003236,
      "v": 98
    },
    {
      "midi": 59,
      "hit": false,
      "t": 183881.0176041675,
      "d": 369.04725000003236,
      "v": 91
    },
    {
      "midi": 54,
      "hit": false,
      "t": 183884.9858541675,
      "d": 95.23800000001211,
      "v": 100
    },
    {
      "midi": 69,
      "hit": false,
      "t": 184099.27135416752,
      "d": 119.04749999998603,
      "v": 60
    },
    {
      "midi": 42,
      "hit": false,
      "t": 184099.27135416752,
      "d": 119.04749999998603,
      "v": 90
    },
    {
      "midi": 35,
      "hit": false,
      "t": 184099.27135416752,
      "d": 119.04749999998603,
      "v": 90
    },
    {
      "midi": 69,
      "hit": false,
      "t": 184337.36635416752,
      "d": 119.04750000001513,
      "v": 100
    },
    {
      "midi": 70,
      "hit": false,
      "t": 184337.36635416752,
      "d": 119.04750000001513,
      "v": 100
    },
    {
      "midi": 54,
      "hit": false,
      "t": 184337.36635416752,
      "d": 119.04750000001513,
      "v": 127
    },
    {
      "midi": 42,
      "hit": false,
      "t": 184337.36635416752,
      "d": 119.04750000001513,
      "v": 115
    },
    {
      "midi": 38,
      "hit": false,
      "t": 184337.36635416752,
      "d": 119.04750000001513,
      "v": 115
    },
    {
      "midi": 81,
      "hit": false,
      "t": 184337.36635416752,
      "d": 355.1583750000282,
      "v": 127
    },
    {
      "midi": 80,
      "hit": false,
      "t": 184337.36635416752,
      "d": 476.19000000003143,
      "v": 11
    },
    {
      "midi": 44,
      "hit": false,
      "t": 184353.2393541675,
      "d": 154.76175000003423,
      "v": 98
    },
    {
      "midi": 56,
      "hit": false,
      "t": 184357.20760416752,
      "d": 369.04725000003236,
      "v": 91
    },
    {
      "midi": 51,
      "hit": false,
      "t": 184361.17585416752,
      "d": 357.1425000000163,
      "v": 100
    },
    {
      "midi": 69,
      "hit": false,
      "t": 184575.46135416755,
      "d": 119.04749999998603,
      "v": 60
    },
    {
      "midi": 42,
      "hit": false,
      "t": 184575.46135416755,
      "d": 119.04749999998603,
      "v": 90
    },
    {
      "midi": 35,
      "hit": false,
      "t": 184575.46135416755,
      "d": 119.04749999998603,
      "v": 100
    },
    {
      "midi": 44,
      "hit": false,
      "t": 184575.46135416755,
      "d": 146.8252499999944,
      "v": 85
    },
    {
      "midi": 83,
      "hit": false,
      "t": 184694.50885416754,
      "d": 117.06337500002701,
      "v": 127
    },
    {
      "midi": 46,
      "hit": false,
      "t": 184694.50885416754,
      "d": 119.04750000001513,
      "v": 100
    },
    {
      "midi": 51,
      "hit": false,
      "t": 184813.55635416755,
      "d": 71.42850000000908,
      "v": 82
    },
    {
      "midi": 56,
      "hit": false,
      "t": 184813.55635416755,
      "d": 71.42850000000908,
      "v": 82
    },
    {
      "midi": 44,
      "hit": false,
      "t": 184813.55635416755,
      "d": 83.33324999999604,
      "v": 72
    },
    {
      "midi": 69,
      "hit": false,
      "t": 184813.55635416755,
      "d": 119.04749999998603,
      "v": 100
    },
    {
      "midi": 70,
      "hit": false,
      "t": 184813.55635416755,
      "d": 119.04749999998603,
      "v": 100
    },
    {
      "midi": 54,
      "hit": false,
      "t": 184813.55635416755,
      "d": 119.04749999998603,
      "v": 100
    },
    {
      "midi": 38,
      "hit": false,
      "t": 184813.55635416755,
      "d": 119.04749999998603,
      "v": 127
    },
    {
      "midi": 80,
      "hit": false,
      "t": 184932.60385416754,
      "d": 87.3015000000014,
      "v": 66
    },
    {
      "midi": 75,
      "hit": false,
      "t": 184932.60385416754,
      "d": 99.20624999998836,
      "v": 62
    },
    {
      "midi": 83,
      "hit": false,
      "t": 184932.60385416754,
      "d": 130.952249999973,
      "v": 66
    },
    {
      "midi": 69,
      "hit": false,
      "t": 185051.65135416752,
      "d": 119.04749999998603,
      "v": 60
    },
    {
      "midi": 45,
      "hit": false,
      "t": 185051.65135416752,
      "d": 119.04749999998603,
      "v": 115
    },
    {
      "midi": 51,
      "hit": false,
      "t": 185051.65135416752,
      "d": 194.44425000000047,
      "v": 85
    },
    {
      "midi": 44,
      "hit": false,
      "t": 185289.74635416752,
      "d": 95.23800000001211,
      "v": 53
    },
    {
      "midi": 69,
      "hit": false,
      "t": 185289.74635416752,
      "d": 119.04750000001513,
      "v": 100
    },
    {
      "midi": 70,
      "hit": false,
      "t": 185289.74635416752,
      "d": 119.04750000001513,
      "v": 100
    },
    {
      "midi": 54,
      "hit": false,
      "t": 185289.74635416752,
      "d": 119.04750000001513,
      "v": 127
    },
    {
      "midi": 41,
      "hit": false,
      "t": 185289.74635416752,
      "d": 119.04750000001513,
      "v": 115
    },
    {
      "midi": 49,
      "hit": false,
      "t": 185289.74635416752,
      "d": 130.9522500000021,
      "v": 91
    },
    {
      "midi": 56,
      "hit": false,
      "t": 185289.74635416752,
      "d": 130.9522500000021,
      "v": 76
    },
    {
      "midi": 42,
      "hit": false,
      "t": 185289.74635416752,
      "d": 154.76175000000512,
      "v": 89
    },
    {
      "midi": 56,
      "hit": false,
      "t": 185527.84135416755,
      "d": 23.809500000003027,
      "v": 85
    },
    {
      "midi": 51,
      "hit": false,
      "t": 185527.84135416755,
      "d": 95.23800000001211,
      "v": 93
    },
    {
      "midi": 44,
      "hit": false,
      "t": 185527.84135416755,
      "d": 95.23800000001211,
      "v": 78
    },
    {
      "midi": 69,
      "hit": false,
      "t": 185527.84135416755,
      "d": 119.04750000001513,
      "v": 60
    },
    {
      "midi": 38,
      "hit": false,
      "t": 185527.84135416755,
      "d": 119.04750000001513,
      "v": 115
    },
    {
      "midi": 80,
      "hit": false,
      "t": 185646.88885416757,
      "d": 126.98399999999674,
      "v": 68
    },
    {
      "midi": 75,
      "hit": false,
      "t": 185646.88885416757,
      "d": 130.9522500000021,
      "v": 62
    },
    {
      "midi": 83,
      "hit": false,
      "t": 185646.88885416757,
      "d": 166.66649999999208,
      "v": 73
    },
    {
      "midi": 69,
      "hit": false,
      "t": 185765.93635416756,
      "d": 119.04750000001513,
      "v": 100
    },
    {
      "midi": 70,
      "hit": false,
      "t": 185765.93635416756,
      "d": 119.04750000001513,
      "v": 100
    },
    {
      "midi": 54,
      "hit": false,
      "t": 185765.93635416756,
      "d": 119.04750000001513,
      "v": 100
    },
    {
      "midi": 35,
      "hit": false,
      "t": 186004.03135416756,
      "d": 119.04749999998603,
      "v": 100
    },
    {
      "midi": 35,
      "hit": false,
      "t": 186123.07885416754,
      "d": 119.04749999998603,
      "v": 115
    },
    {
      "midi": 49,
      "hit": false,
      "t": 186242.12635416753,
      "d": 119.04749999998603,
      "v": 115
    },
    {
      "midi": 38,
      "hit": false,
      "t": 186242.12635416753,
      "d": 119.04749999998603,
      "v": 127
    },
    {
      "midi": 51,
      "hit": false,
      "t": 186242.12635416753,
      "d": 452.3804999999993,
      "v": 102
    },
    {
      "midi": 44,
      "hit": false,
      "t": 186242.12635416753,
      "d": 452.3804999999993,
      "v": 98
    },
    {
      "midi": 56,
      "hit": false,
      "t": 186242.12635416753,
      "d": 456.34875000000466,
      "v": 91
    },
    {
      "midi": 63,
      "hit": false,
      "t": 186242.12635416753,
      "d": 476.1900000000023,
      "v": 73
    }
  ]
}