{
  "jsonPath": "Pop/Classic Italian Pop/Little Tony/la-spada-nel-cuore.json",
  "path": "Pop\\Classic Italian Pop\\Little Tony\\La Spada Nel Cuore.mid",
  "name": "La Spada Nel Cuore",
  "difficulty": "Advanced",
  "bpm": 100,
  "notes": [
    {
      "midi": 57,
      "hit": false,
      "t": 1999.999999999999,
      "d": 1911.458333333333,
      "v": 78
    },
    {
      "midi": 60,
      "hit": false,
      "t": 1999.999999999999,
      "d": 1937.4999999999995,
      "v": 92
    },
    {
      "midi": 64,
      "hit": false,
      "t": 1999.999999999999,
      "d": 1979.166666666666,
      "v": 84
    },
    {
      "midi": 45,
      "hit": false,
      "t": 1999.999999999999,
      "d": 3015.624999999999,
      "v": 122
    },
    {
      "midi": 41,
      "hit": false,
      "t": 20333.333333333332,
      "d": 338.54166666666424,
      "v": 116
    },
    {
      "midi": 40,
      "hit": false,
      "t": 20666.666666666664,
      "d": 333.3333333333321,
      "v": 116
    },
    {
      "midi": 36,
      "hit": false,
      "t": 20999.999999999996,
      "d": 333.3333333333321,
      "v": 110
    },
    {
      "midi": 38,
      "hit": false,
      "t": 21333.33333333333,
      "d": 286.4583333333321,
      "v": 122
    },
    {
      "midi": 41,
      "hit": false,
      "t": 21666.66666666666,
      "d": 161.45833333333212,
      "v": 110
    },
    {
      "midi": 64,
      "hit": false,
      "t": 21999.999999999993,
      "d": 989.5833333333321,
      "v": 116
    },
    {
      "midi": 52,
      "hit": false,
      "t": 21999.999999999993,
      "d": 1557.2916666666679,
      "v": 122
    },
    {
      "midi": 40,
      "hit": false,
      "t": 22999.999999999993,
      "d": 640.625,
      "v": 122
    },
    {
      "midi": 52,
      "hit": false,
      "t": 23749.999999999993,
      "d": 93.75,
      "v": 70
    },
    {
      "midi": 64,
      "hit": false,
      "t": 23999.999999999993,
      "d": 333.3333333333321,
      "v": 100
    },
    {
      "midi": 57,
      "hit": false,
      "t": 23999.999999999993,
      "d": 348.9583333333321,
      "v": 106
    },
    {
      "midi": 60,
      "hit": false,
      "t": 23999.999999999993,
      "d": 354.16666666666424,
      "v": 96
    },
    {
      "midi": 57,
      "hit": false,
      "t": 24499.99999999999,
      "d": 187.5,
      "v": 106
    },
    {
      "midi": 64,
      "hit": false,
      "t": 24499.99999999999,
      "d": 291.6666666666679,
      "v": 96
    },
    {
      "midi": 60,
      "hit": false,
      "t": 24499.99999999999,
      "d": 359.375,
      "v": 92
    },
    {
      "midi": 55,
      "hit": false,
      "t": 24749.99999999999,
      "d": 62.5,
      "v": 70
    },
    {
      "midi": 55,
      "hit": false,
      "t": 24999.99999999999,
      "d": 375,
      "v": 106
    },
    {
      "midi": 59,
      "hit": false,
      "t": 24999.99999999999,
      "d": 484.375,
      "v": 96
    },
    {
      "midi": 62,
      "hit": false,
      "t": 24999.99999999999,
      "d": 588.5416666666679,
      "v": 96
    },
    {
      "midi": 55,
      "hit": false,
      "t": 25499.99999999999,
      "d": 140.625,
      "v": 96
    },
    {
      "midi": 55,
      "hit": false,
      "t": 25749.99999999999,
      "d": 369.7916666666679,
      "v": 110
    },
    {
      "midi": 60,
      "hit": false,
      "t": 25749.99999999999,
      "d": 369.7916666666679,
      "v": 110
    },
    {
      "midi": 64,
      "hit": false,
      "t": 25749.99999999999,
      "d": 380.20833333333576,
      "v": 96
    },
    {
      "midi": 64,
      "hit": false,
      "t": 26249.999999999993,
      "d": 369.7916666666679,
      "v": 88
    },
    {
      "midi": 60,
      "hit": false,
      "t": 26249.999999999993,
      "d": 458.33333333333576,
      "v": 100
    },
    {
      "midi": 55,
      "hit": false,
      "t": 26249.999999999993,
      "d": 500.00000000000364,
      "v": 116
    },
    {
      "midi": 64,
      "hit": false,
      "t": 26749.999999999996,
      "d": 151.04166666666788,
      "v": 74
    },
    {
      "midi": 64,
      "hit": false,
      "t": 26999.999999999996,
      "d": 369.7916666666679,
      "v": 78
    },
    {
      "midi": 56,
      "hit": false,
      "t": 26999.999999999996,
      "d": 645.8333333333321,
      "v": 98
    },
    {
      "midi": 59,
      "hit": false,
      "t": 26999.999999999996,
      "d": 677.0833333333321,
      "v": 96
    },
    {
      "midi": 64,
      "hit": false,
      "t": 27499.999999999996,
      "d": 171.875,
      "v": 96
    },
    {
      "midi": 64,
      "hit": false,
      "t": 27749.999999999996,
      "d": 197.91666666666788,
      "v": 68
    },
    {
      "midi": 64,
      "hit": false,
      "t": 27999.999999999996,
      "d": 343.75,
      "v": 78
    },
    {
      "midi": 60,
      "hit": false,
      "t": 27999.999999999996,
      "d": 354.1666666666679,
      "v": 96
    },
    {
      "midi": 57,
      "hit": false,
      "t": 27999.999999999996,
      "d": 369.7916666666679,
      "v": 92
    },
    {
      "midi": 57,
      "hit": false,
      "t": 28499.999999999996,
      "d": 197.91666666666788,
      "v": 84
    },
    {
      "midi": 64,
      "hit": false,
      "t": 28499.999999999996,
      "d": 307.2916666666679,
      "v": 80
    },
    {
      "midi": 60,
      "hit": false,
      "t": 28499.999999999996,
      "d": 385.4166666666679,
      "v": 78
    },
    {
      "midi": 55,
      "hit": false,
      "t": 28749.999999999996,
      "d": 114.58333333333576,
      "v": 88
    },
    {
      "midi": 55,
      "hit": false,
      "t": 28999.999999999996,
      "d": 359.375,
      "v": 92
    },
    {
      "midi": 59,
      "hit": false,
      "t": 28999.999999999996,
      "d": 395.8333333333321,
      "v": 88
    },
    {
      "midi": 62,
      "hit": false,
      "t": 28999.999999999996,
      "d": 421.875,
      "v": 96
    },
    {
      "midi": 55,
      "hit": false,
      "t": 29499.999999999996,
      "d": 125,
      "v": 92
    },
    {
      "midi": 62,
      "hit": false,
      "t": 29499.999999999996,
      "d": 125,
      "v": 74
    },
    {
      "midi": 59,
      "hit": false,
      "t": 29499.999999999996,
      "d": 130.20833333333212,
      "v": 68
    },
    {
      "midi": 64,
      "hit": false,
      "t": 29749.999999999996,
      "d": 614.5833333333321,
      "v": 96
    },
    {
      "midi": 55,
      "hit": false,
      "t": 29749.999999999996,
      "d": 630.2083333333321,
      "v": 110
    },
    {
      "midi": 60,
      "hit": false,
      "t": 29749.999999999996,
      "d": 635.4166666666642,
      "v": 100
    },
    {
      "midi": 64,
      "hit": false,
      "t": 30499.999999999993,
      "d": 104.16666666666788,
      "v": 70
    },
    {
      "midi": 55,
      "hit": false,
      "t": 30499.999999999993,
      "d": 109.375,
      "v": 74
    },
    {
      "midi": 60,
      "hit": false,
      "t": 30499.999999999993,
      "d": 119.79166666666788,
      "v": 74
    },
    {
      "midi": 55,
      "hit": false,
      "t": 30749.999999999993,
      "d": 281.25,
      "v": 110
    },
    {
      "midi": 64,
      "hit": false,
      "t": 30749.999999999993,
      "d": 281.25,
      "v": 88
    },
    {
      "midi": 60,
      "hit": false,
      "t": 30749.999999999993,
      "d": 307.2916666666679,
      "v": 88
    },
    {
      "midi": 60,
      "hit": false,
      "t": 31249.999999999993,
      "d": 395.8333333333321,
      "v": 110
    },
    {
      "midi": 64,
      "hit": false,
      "t": 31249.999999999993,
      "d": 401.04166666666424,
      "v": 106
    },
    {
      "midi": 55,
      "hit": false,
      "t": 31249.999999999993,
      "d": 406.24999999999636,
      "v": 110
    },
    {
      "midi": 57,
      "hit": false,
      "t": 31999.99999999999,
      "d": 588.5416666666679,
      "v": 106
    },
    {
      "midi": 65,
      "hit": false,
      "t": 31999.99999999999,
      "d": 604.1666666666679,
      "v": 106
    },
    {
      "midi": 60,
      "hit": false,
      "t": 31999.99999999999,
      "d": 630.2083333333358,
      "v": 110
    },
    {
      "midi": 55,
      "hit": false,
      "t": 32749.999999999993,
      "d": 984.375,
      "v": 110
    },
    {
      "midi": 64,
      "hit": false,
      "t": 32749.999999999993,
      "d": 1093.75,
      "v": 110
    },
    {
      "midi": 60,
      "hit": false,
      "t": 32749.999999999993,
      "d": 1098.9583333333358,
      "v": 92
    },
    {
      "midi": 57,
      "hit": false,
      "t": 33999.99999999999,
      "d": 604.1666666666642,
      "v": 110
    },
    {
      "midi": 65,
      "hit": false,
      "t": 33999.99999999999,
      "d": 619.7916666666642,
      "v": 106
    },
    {
      "midi": 60,
      "hit": false,
      "t": 33999.99999999999,
      "d": 651.0416666666642,
      "v": 106
    },
    {
      "midi": 55,
      "hit": false,
      "t": 34749.99999999999,
      "d": 385.41666666666424,
      "v": 100
    },
    {
      "midi": 64,
      "hit": false,
      "t": 34749.99999999999,
      "d": 1114.5833333333358,
      "v": 100
    },
    {
      "midi": 60,
      "hit": false,
      "t": 34749.99999999999,
      "d": 1125,
      "v": 116
    },
    {
      "midi": 55,
      "hit": false,
      "t": 35249.99999999999,
      "d": 213.54166666666424,
      "v": 74
    },
    {
      "midi": 55,
      "hit": false,
      "t": 35499.99999999999,
      "d": 317.70833333333576,
      "v": 66
    },
    {
      "midi": 65,
      "hit": false,
      "t": 35999.99999999999,
      "d": 630.2083333333358,
      "v": 106
    },
    {
      "midi": 57,
      "hit": false,
      "t": 35999.99999999999,
      "d": 635.4166666666715,
      "v": 116
    },
    {
      "midi": 60,
      "hit": false,
      "t": 35999.99999999999,
      "d": 666.6666666666715,
      "v": 96
    },
    {
      "midi": 55,
      "hit": false,
      "t": 36750,
      "d": 1062.5,
      "v": 110
    },
    {
      "midi": 60,
      "hit": false,
      "t": 36750,
      "d": 1109.375,
      "v": 110
    },
    {
      "midi": 64,
      "hit": false,
      "t": 36750,
      "d": 1125,
      "v": 116
    },
    {
      "midi": 57,
      "hit": false,
      "t": 38000,
      "d": 567.7083333333358,
      "v": 116
    },
    {
      "midi": 65,
      "hit": false,
      "t": 38000,
      "d": 598.9583333333358,
      "v": 116
    },
    {
      "midi": 60,
      "hit": false,
      "t": 38000,
      "d": 635.4166666666715,
      "v": 106
    },
    {
      "midi": 55,
      "hit": false,
      "t": 38750.00000000001,
      "d": 1067.7083333333358,
      "v": 116
    },
    {
      "midi": 64,
      "hit": false,
      "t": 38750.00000000001,
      "d": 1078.125,
      "v": 110
    },
    {
      "midi": 60,
      "hit": false,
      "t": 38750.00000000001,
      "d": 1098.9583333333358,
      "v": 96
    },
    {
      "midi": 57,
      "hit": false,
      "t": 40000.00000000001,
      "d": 401.04166666666424,
      "v": 110
    },
    {
      "midi": 64,
      "hit": false,
      "t": 40000.00000000001,
      "d": 411.4583333333285,
      "v": 106
    },
    {
      "midi": 59,
      "hit": false,
      "t": 40000.00000000001,
      "d": 416.66666666666424,
      "v": 106
    },
    {
      "midi": 57,
      "hit": false,
      "t": 40500.00000000001,
      "d": 411.45833333333576,
      "v": 100
    },
    {
      "midi": 59,
      "hit": false,
      "t": 40500.00000000001,
      "d": 421.875,
      "v": 106
    },
    {
      "midi": 64,
      "hit": false,
      "t": 40500.00000000001,
      "d": 421.875,
      "v": 100
    },
    {
      "midi": 64,
      "hit": false,
      "t": 41000.00000000001,
      "d": 380.20833333333576,
      "v": 106
    },
    {
      "midi": 57,
      "hit": false,
      "t": 41000.00000000001,
      "d": 385.4166666666715,
      "v": 106
    },
    {
      "midi": 59,
      "hit": false,
      "t": 41000.00000000001,
      "d": 390.6250000000073,
      "v": 106
    },
    {
      "midi": 57,
      "hit": false,
      "t": 41500.000000000015,
      "d": 401.04166666666424,
      "v": 116
    },
    {
      "midi": 64,
      "hit": false,
      "t": 41500.000000000015,
      "d": 406.25,
      "v": 96
    },
    {
      "midi": 59,
      "hit": false,
      "t": 41500.000000000015,
      "d": 432.29166666666424,
      "v": 116
    },
    {
      "midi": 64,
      "hit": false,
      "t": 42000.000000000015,
      "d": 333.33333333333576,
      "v": 100
    },
    {
      "midi": 56,
      "hit": false,
      "t": 42000.000000000015,
      "d": 348.95833333333576,
      "v": 126
    },
    {
      "midi": 59,
      "hit": false,
      "t": 42000.000000000015,
      "d": 364.58333333333576,
      "v": 110
    },
    {
      "midi": 64,
      "hit": false,
      "t": 42500.000000000015,
      "d": 369.79166666666424,
      "v": 106
    },
    {
      "midi": 56,
      "hit": false,
      "t": 42500.000000000015,
      "d": 390.625,
      "v": 98
    },
    {
      "midi": 59,
      "hit": false,
      "t": 42500.000000000015,
      "d": 401.04166666666424,
      "v": 100
    },
    {
      "midi": 64,
      "hit": false,
      "t": 43000.000000000015,
      "d": 333.33333333333576,
      "v": 100
    },
    {
      "midi": 56,
      "hit": false,
      "t": 43000.000000000015,
      "d": 348.95833333333576,
      "v": 98
    },
    {
      "midi": 59,
      "hit": false,
      "t": 43000.000000000015,
      "d": 364.58333333333576,
      "v": 100
    },
    {
      "midi": 59,
      "hit": false,
      "t": 43500.000000000015,
      "d": 286.45833333333576,
      "v": 100
    },
    {
      "midi": 56,
      "hit": false,
      "t": 43500.000000000015,
      "d": 307.2916666666715,
      "v": 116
    },
    {
      "midi": 64,
      "hit": false,
      "t": 43500.000000000015,
      "d": 307.2916666666715,
      "v": 106
    },
    {
      "midi": 64,
      "hit": false,
      "t": 44000.00000000002,
      "d": 302.08333333333576,
      "v": 110
    },
    {
      "midi": 57,
      "hit": false,
      "t": 44000.00000000002,
      "d": 307.2916666666715,
      "v": 110
    },
    {
      "midi": 60,
      "hit": false,
      "t": 44000.00000000002,
      "d": 312.5000000000073,
      "v": 110
    },
    {
      "midi": 57,
      "hit": false,
      "t": 44500.00000000003,
      "d": 156.25,
      "v": 106
    },
    {
      "midi": 60,
      "hit": false,
      "t": 44500.00000000003,
      "d": 255.20833333333576,
      "v": 116
    },
    {
      "midi": 64,
      "hit": false,
      "t": 44500.00000000003,
      "d": 270.83333333333576,
      "v": 116
    },
    {
      "midi": 57,
      "hit": false,
      "t": 44750.00000000003,
      "d": 119.79166666667152,
      "v": 62
    },
    {
      "midi": 52,
      "hit": false,
      "t": 45000.00000000004,
      "d": 411.45833333333576,
      "v": 110
    },
    {
      "midi": 55,
      "hit": false,
      "t": 45000.00000000004,
      "d": 416.6666666666715,
      "v": 110
    },
    {
      "midi": 59,
      "hit": false,
      "t": 45000.00000000004,
      "d": 437.5000000000073,
      "v": 106
    },
    {
      "midi": 52,
      "hit": false,
      "t": 45500.000000000044,
      "d": 104.16666666666424,
      "v": 70
    },
    {
      "midi": 59,
      "hit": false,
      "t": 45500.000000000044,
      "d": 145.83333333332848,
      "v": 70
    },
    {
      "midi": 55,
      "hit": false,
      "t": 45500.000000000044,
      "d": 156.24999999999272,
      "v": 78
    },
    {
      "midi": 60,
      "hit": false,
      "t": 45750.00000000004,
      "d": 328.125,
      "v": 92
    },
    {
      "midi": 53,
      "hit": false,
      "t": 45750.00000000004,
      "d": 343.75,
      "v": 100
    },
    {
      "midi": 57,
      "hit": false,
      "t": 45750.00000000004,
      "d": 348.95833333333576,
      "v": 106
    },
    {
      "midi": 53,
      "hit": false,
      "t": 46250.00000000004,
      "d": 348.95833333333576,
      "v": 110
    },
    {
      "midi": 60,
      "hit": false,
      "t": 46250.00000000004,
      "d": 401.0416666666715,
      "v": 110
    },
    {
      "midi": 57,
      "hit": false,
      "t": 46250.00000000004,
      "d": 432.2916666666715,
      "v": 106
    },
    {
      "midi": 57,
      "hit": false,
      "t": 46750.000000000044,
      "d": 98.95833333333576,
      "v": 68
    },
    {
      "midi": 60,
      "hit": false,
      "t": 46750.000000000044,
      "d": 104.16666666667152,
      "v": 68
    },
    {
      "midi": 53,
      "hit": false,
      "t": 46750.000000000044,
      "d": 114.58333333333576,
      "v": 70
    },
    {
      "midi": 55,
      "hit": false,
      "t": 47000.000000000044,
      "d": 161.45833333333576,
      "v": 110
    },
    {
      "midi": 62,
      "hit": false,
      "t": 47000.000000000044,
      "d": 359.375,
      "v": 110
    },
    {
      "midi": 59,
      "hit": false,
      "t": 47000.000000000044,
      "d": 369.79166666666424,
      "v": 122
    },
    {
      "midi": 55,
      "hit": false,
      "t": 47250.000000000044,
      "d": 197.91666666666424,
      "v": 50
    },
    {
      "midi": 55,
      "hit": false,
      "t": 47500.000000000044,
      "d": 171.875,
      "v": 106
    },
    {
      "midi": 59,
      "hit": false,
      "t": 47500.000000000044,
      "d": 276.04166666666424,
      "v": 106
    },
    {
      "midi": 62,
      "hit": false,
      "t": 47500.000000000044,
      "d": 286.4583333333285,
      "v": 110
    },
    {
      "midi": 55,
      "hit": false,
      "t": 47750.000000000044,
      "d": 151.04166666666424,
      "v": 58
    },
    {
      "midi": 64,
      "hit": false,
      "t": 48000.000000000044,
      "d": 296.875,
      "v": 110
    },
    {
      "midi": 57,
      "hit": false,
      "t": 48000.000000000044,
      "d": 322.91666666666424,
      "v": 100
    },
    {
      "midi": 60,
      "hit": false,
      "t": 48000.000000000044,
      "d": 328.125,
      "v": 116
    },
    {
      "midi": 57,
      "hit": false,
      "t": 48500.000000000044,
      "d": 151.04166666666424,
      "v": 110
    },
    {
      "midi": 60,
      "hit": false,
      "t": 48500.000000000044,
      "d": 218.75,
      "v": 110
    },
    {
      "midi": 64,
      "hit": false,
      "t": 48500.000000000044,
      "d": 255.20833333333576,
      "v": 110
    },
    {
      "midi": 57,
      "hit": false,
      "t": 48750.000000000044,
      "d": 140.625,
      "v": 40
    },
    {
      "midi": 59,
      "hit": false,
      "t": 49000.000000000044,
      "d": 536.4583333333358,
      "v": 110
    },
    {
      "midi": 52,
      "hit": false,
      "t": 49000.000000000044,
      "d": 609.375,
      "v": 106
    },
    {
      "midi": 55,
      "hit": false,
      "t": 49000.000000000044,
      "d": 645.8333333333358,
      "v": 116
    },
    {
      "midi": 57,
      "hit": false,
      "t": 49750.000000000044,
      "d": 229.16666666666424,
      "v": 116
    },
    {
      "midi": 60,
      "hit": false,
      "t": 49750.000000000044,
      "d": 328.125,
      "v": 100
    },
    {
      "midi": 53,
      "hit": false,
      "t": 49750.000000000044,
      "d": 364.58333333333576,
      "v": 100
    },
    {
      "midi": 53,
      "hit": false,
      "t": 50250.000000000044,
      "d": 286.45833333333576,
      "v": 100
    },
    {
      "midi": 57,
      "hit": false,
      "t": 50250.000000000044,
      "d": 411.45833333333576,
      "v": 110
    },
    {
      "midi": 60,
      "hit": false,
      "t": 50250.000000000044,
      "d": 651.0416666666642,
      "v": 106
    },
    {
      "midi": 53,
      "hit": false,
      "t": 50750.000000000044,
      "d": 98.95833333333576,
      "v": 62
    },
    {
      "midi": 57,
      "hit": false,
      "t": 50750.000000000044,
      "d": 125,
      "v": 60
    },
    {
      "midi": 55,
      "hit": false,
      "t": 51000.000000000044,
      "d": 369.79166666666424,
      "v": 106
    },
    {
      "midi": 62,
      "hit": false,
      "t": 51000.000000000044,
      "d": 380.2083333333285,
      "v": 110
    },
    {
      "midi": 59,
      "hit": false,
      "t": 51000.000000000044,
      "d": 401.04166666666424,
      "v": 110
    },
    {
      "midi": 59,
      "hit": false,
      "t": 51500.000000000044,
      "d": 213.54166666666424,
      "v": 110
    },
    {
      "midi": 62,
      "hit": false,
      "t": 51500.000000000044,
      "d": 218.75,
      "v": 106
    },
    {
      "midi": 55,
      "hit": false,
      "t": 51500.000000000044,
      "d": 286.45833333333576,
      "v": 100
    },
    {
      "midi": 57,
      "hit": false,
      "t": 52000.000000000044,
      "d": 380.20833333333576,
      "v": 106
    },
    {
      "midi": 60,
      "hit": false,
      "t": 52000.000000000044,
      "d": 390.625,
      "v": 106
    },
    {
      "midi": 64,
      "hit": false,
      "t": 52500.000000000044,
      "d": 276.04166666666424,
      "v": 100
    },
    {
      "midi": 60,
      "hit": false,
      "t": 52500.000000000044,
      "d": 281.25,
      "v": 110
    },
    {
      "midi": 57,
      "hit": false,
      "t": 52750.000000000044,
      "d": 151.04166666666424,
      "v": 62
    },
    {
      "midi": 56,
      "hit": false,
      "t": 53000.000000000044,
      "d": 354.16666666666424,
      "v": 98
    },
    {
      "midi": 59,
      "hit": false,
      "t": 53000.000000000044,
      "d": 541.6666666666642,
      "v": 100
    },
    {
      "midi": 64,
      "hit": false,
      "t": 53000.000000000044,
      "d": 541.6666666666642,
      "v": 106
    },
    {
      "midi": 64,
      "hit": false,
      "t": 53750.000000000044,
      "d": 395.83333333333576,
      "v": 110
    },
    {
      "midi": 55,
      "hit": false,
      "t": 53750.000000000044,
      "d": 411.45833333333576,
      "v": 110
    },
    {
      "midi": 60,
      "hit": false,
      "t": 53750.000000000044,
      "d": 427.08333333333576,
      "v": 106
    },
    {
      "midi": 55,
      "hit": false,
      "t": 54250.000000000044,
      "d": 375,
      "v": 100
    },
    {
      "midi": 64,
      "hit": false,
      "t": 54250.000000000044,
      "d": 458.33333333333576,
      "v": 100
    },
    {
      "midi": 60,
      "hit": false,
      "t": 54250.000000000044,
      "d": 473.95833333333576,
      "v": 110
    },
    {
      "midi": 55,
      "hit": false,
      "t": 54750.000000000044,
      "d": 104.16666666666424,
      "v": 70
    },
    {
      "midi": 62,
      "hit": false,
      "t": 55000.000000000044,
      "d": 401.04166666666424,
      "v": 92
    },
    {
      "midi": 54,
      "hit": false,
      "t": 55000.000000000044,
      "d": 427.0833333333285,
      "v": 98
    },
    {
      "midi": 57,
      "hit": false,
      "t": 55000.000000000044,
      "d": 442.7083333333285,
      "v": 92
    },
    {
      "midi": 54,
      "hit": false,
      "t": 55500.00000000004,
      "d": 291.66666666666424,
      "v": 84
    },
    {
      "midi": 62,
      "hit": false,
      "t": 55500.00000000004,
      "d": 317.7083333333285,
      "v": 96
    },
    {
      "midi": 57,
      "hit": false,
      "t": 55500.00000000004,
      "d": 401.04166666666424,
      "v": 100
    },
    {
      "midi": 53,
      "hit": false,
      "t": 56000.00000000004,
      "d": 1859.375,
      "v": 100
    },
    {
      "midi": 60,
      "hit": false,
      "t": 56000.00000000004,
      "d": 1885.4166666666642,
      "v": 110
    },
    {
      "midi": 57,
      "hit": false,
      "t": 56000.00000000004,
      "d": 1927.0833333333285,
      "v": 106
    },
    {
      "midi": 52,
      "hit": false,
      "t": 58000.00000000003,
      "d": 1640.625,
      "v": 78
    },
    {
      "midi": 56,
      "hit": false,
      "t": 58000.00000000003,
      "d": 1687.5,
      "v": 78
    },
    {
      "midi": 59,
      "hit": false,
      "t": 58000.00000000003,
      "d": 1687.5,
      "v": 92
    },
    {
      "midi": 64,
      "hit": false,
      "t": 60000.00000000003,
      "d": 947.9166666666642,
      "v": 110
    },
    {
      "midi": 57,
      "hit": false,
      "t": 60000.00000000003,
      "d": 958.3333333333285,
      "v": 80
    },
    {
      "midi": 60,
      "hit": false,
      "t": 60000.00000000003,
      "d": 968.7499999999927,
      "v": 106
    },
    {
      "midi": 45,
      "hit": false,
      "t": 60000.00000000003,
      "d": 1010.416666666657,
      "v": 110
    },
    {
      "midi": 60,
      "hit": false,
      "t": 61000.00000000002,
      "d": 343.75,
      "v": 84
    },
    {
      "midi": 57,
      "hit": false,
      "t": 61000.00000000002,
      "d": 406.25,
      "v": 80
    },
    {
      "midi": 65,
      "hit": false,
      "t": 61000.00000000002,
      "d": 453.125,
      "v": 100
    },
    {
      "midi": 41,
      "hit": false,
      "t": 61000.00000000002,
      "d": 500,
      "v": 92
    },
    {
      "midi": 62,
      "hit": false,
      "t": 61500.00000000002,
      "d": 395.83333333333576,
      "v": 100
    },
    {
      "midi": 59,
      "hit": false,
      "t": 61500.00000000002,
      "d": 437.5,
      "v": 74
    },
    {
      "midi": 67,
      "hit": false,
      "t": 61500.00000000002,
      "d": 442.70833333333576,
      "v": 88
    },
    {
      "midi": 43,
      "hit": false,
      "t": 61500.00000000002,
      "d": 505.20833333333576,
      "v": 116
    },
    {
      "midi": 57,
      "hit": false,
      "t": 62000.00000000002,
      "d": 880.2083333333358,
      "v": 84
    },
    {
      "midi": 45,
      "hit": false,
      "t": 62000.00000000002,
      "d": 942.7083333333358,
      "v": 116
    },
    {
      "midi": 60,
      "hit": false,
      "t": 62000.00000000002,
      "d": 942.7083333333358,
      "v": 84
    },
    {
      "midi": 64,
      "hit": false,
      "t": 62000.00000000002,
      "d": 942.7083333333358,
      "v": 92
    },
    {
      "midi": 60,
      "hit": false,
      "t": 63000.00000000002,
      "d": 338.54166666666424,
      "v": 70
    },
    {
      "midi": 57,
      "hit": false,
      "t": 63000.00000000002,
      "d": 401.04166666666424,
      "v": 70
    },
    {
      "midi": 65,
      "hit": false,
      "t": 63000.00000000002,
      "d": 453.125,
      "v": 96
    },
    {
      "midi": 41,
      "hit": false,
      "t": 63000.00000000002,
      "d": 458.33333333333576,
      "v": 106
    },
    {
      "midi": 62,
      "hit": false,
      "t": 63500.00000000002,
      "d": 302.08333333333576,
      "v": 84
    },
    {
      "midi": 67,
      "hit": false,
      "t": 63500.00000000002,
      "d": 302.08333333333576,
      "v": 100
    },
    {
      "midi": 59,
      "hit": false,
      "t": 63500.00000000002,
      "d": 364.58333333333576,
      "v": 68
    },
    {
      "midi": 43,
      "hit": false,
      "t": 63500.00000000002,
      "d": 473.95833333333576,
      "v": 106
    },
    {
      "midi": 57,
      "hit": false,
      "t": 64000.00000000002,
      "d": 697.9166666666642,
      "v": 92
    },
    {
      "midi": 60,
      "hit": false,
      "t": 64000.00000000002,
      "d": 1119.7916666666642,
      "v": 84
    },
    {
      "midi": 64,
      "hit": false,
      "t": 64000.00000000002,
      "d": 1260.4166666666642,
      "v": 106
    },
    {
      "midi": 45,
      "hit": false,
      "t": 64000.00000000002,
      "d": 1713.5416666666642,
      "v": 100
    },
    {
      "midi": 57,
      "hit": false,
      "t": 64750.00000000002,
      "d": 994.7916666666642,
      "v": 70
    },
    {
      "midi": 60,
      "hit": false,
      "t": 65250.00000000002,
      "d": 593.7499999999927,
      "v": 78
    },
    {
      "midi": 64,
      "hit": false,
      "t": 65500.00000000002,
      "d": 328.1249999999927,
      "v": 110
    },
    {
      "midi": 57,
      "hit": false,
      "t": 65750.00000000001,
      "d": 145.83333333332848,
      "v": 62
    },
    {
      "midi": 45,
      "hit": false,
      "t": 65750.00000000001,
      "d": 213.54166666665697,
      "v": 96
    },
    {
      "midi": 59,
      "hit": false,
      "t": 66000,
      "d": 671.875,
      "v": 96
    },
    {
      "midi": 62,
      "hit": false,
      "t": 66000,
      "d": 692.7083333333285,
      "v": 106
    },
    {
      "midi": 55,
      "hit": false,
      "t": 66000,
      "d": 1421.875,
      "v": 96
    },
    {
      "midi": 43,
      "hit": false,
      "t": 66000,
      "d": 1968.75,
      "v": 106
    },
    {
      "midi": 57,
      "hit": false,
      "t": 66750,
      "d": 838.5416666666715,
      "v": 84
    },
    {
      "midi": 62,
      "hit": false,
      "t": 66750,
      "d": 1218.75,
      "v": 38
    },
    {
      "midi": 55,
      "hit": false,
      "t": 67500,
      "d": 354.1666666666715,
      "v": 80
    },
    {
      "midi": 64,
      "hit": false,
      "t": 68000,
      "d": 661.4583333333285,
      "v": 100
    },
    {
      "midi": 57,
      "hit": false,
      "t": 68000,
      "d": 1166.6666666666715,
      "v": 78
    },
    {
      "midi": 60,
      "hit": false,
      "t": 68000,
      "d": 1369.7916666666715,
      "v": 96
    },
    {
      "midi": 45,
      "hit": false,
      "t": 68000,
      "d": 1687.5,
      "v": 88
    },
    {
      "midi": 64,
      "hit": false,
      "t": 68750,
      "d": 687.5,
      "v": 100
    },
    {
      "midi": 57,
      "hit": false,
      "t": 69250,
      "d": 208.33333333332848,
      "v": 60
    },
    {
      "midi": 64,
      "hit": false,
      "t": 69500,
      "d": 270.8333333333285,
      "v": 110
    },
    {
      "midi": 60,
      "hit": false,
      "t": 69500,
      "d": 291.66666666665697,
      "v": 116
    },
    {
      "midi": 57,
      "hit": false,
      "t": 69500,
      "d": 328.12499999998545,
      "v": 96
    },
    {
      "midi": 45,
      "hit": false,
      "t": 69750,
      "d": 208.33333333331393,
      "v": 100
    },
    {
      "midi": 55,
      "hit": false,
      "t": 69999.99999999999,
      "d": 416.6666666666715,
      "v": 106
    },
    {
      "midi": 62,
      "hit": false,
      "t": 69999.99999999999,
      "d": 666.6666666666715,
      "v": 106
    },
    {
      "midi": 59,
      "hit": false,
      "t": 69999.99999999999,
      "d": 692.708333333343,
      "v": 106
    },
    {
      "midi": 43,
      "hit": false,
      "t": 69999.99999999999,
      "d": 1671.8750000000146,
      "v": 110
    },
    {
      "midi": 55,
      "hit": false,
      "t": 70499.99999999999,
      "d": 218.75000000001455,
      "v": 78
    },
    {
      "midi": 57,
      "hit": false,
      "t": 70750,
      "d": 1010.4166666666715,
      "v": 96
    },
    {
      "midi": 62,
      "hit": false,
      "t": 70750,
      "d": 1041.6666666666715,
      "v": 92
    },
    {
      "midi": 55,
      "hit": false,
      "t": 71500,
      "d": 276.0416666666715,
      "v": 80
    },
    {
      "midi": 43,
      "hit": false,
      "t": 71750,
      "d": 223.95833333334303,
      "v": 84
    },
    {
      "midi": 57,
      "hit": false,
      "t": 72000.00000000001,
      "d": 901.0416666666715,
      "v": 92
    },
    {
      "midi": 64,
      "hit": false,
      "t": 72000.00000000001,
      "d": 916.6666666666715,
      "v": 96
    },
    {
      "midi": 60,
      "hit": false,
      "t": 72000.00000000001,
      "d": 927.083333333343,
      "v": 96
    },
    {
      "midi": 45,
      "hit": false,
      "t": 72000.00000000001,
      "d": 942.708333333343,
      "v": 110
    },
    {
      "midi": 60,
      "hit": false,
      "t": 73000.00000000003,
      "d": 395.8333333333285,
      "v": 92
    },
    {
      "midi": 57,
      "hit": false,
      "t": 73000.00000000003,
      "d": 421.875,
      "v": 88
    },
    {
      "midi": 65,
      "hit": false,
      "t": 73000.00000000003,
      "d": 453.125,
      "v": 106
    },
    {
      "midi": 41,
      "hit": false,
      "t": 73000.00000000003,
      "d": 484.375,
      "v": 96
    },
    {
      "midi": 59,
      "hit": false,
      "t": 73500.00000000003,
      "d": 432.2916666666715,
      "v": 80
    },
    {
      "midi": 62,
      "hit": false,
      "t": 73500.00000000003,
      "d": 437.5,
      "v": 92
    },
    {
      "midi": 67,
      "hit": false,
      "t": 73500.00000000003,
      "d": 447.9166666666715,
      "v": 100
    },
    {
      "midi": 43,
      "hit": false,
      "t": 73500.00000000003,
      "d": 505.2083333333285,
      "v": 106
    },
    {
      "midi": 57,
      "hit": false,
      "t": 74000.00000000003,
      "d": 859.375,
      "v": 92
    },
    {
      "midi": 64,
      "hit": false,
      "t": 74000.00000000003,
      "d": 895.8333333333285,
      "v": 100
    },
    {
      "midi": 60,
      "hit": false,
      "t": 74000.00000000003,
      "d": 901.041666666657,
      "v": 96
    },
    {
      "midi": 45,
      "hit": false,
      "t": 74000.00000000003,
      "d": 942.7083333333285,
      "v": 88
    },
    {
      "midi": 60,
      "hit": false,
      "t": 75000.00000000003,
      "d": 260.4166666666715,
      "v": 88
    },
    {
      "midi": 57,
      "hit": false,
      "t": 75000.00000000003,
      "d": 328.125,
      "v": 100
    },
    {
      "midi": 65,
      "hit": false,
      "t": 75000.00000000003,
      "d": 421.875,
      "v": 110
    },
    {
      "midi": 41,
      "hit": false,
      "t": 75000.00000000003,
      "d": 463.5416666666715,
      "v": 92
    },
    {
      "midi": 43,
      "hit": false,
      "t": 75500.00000000003,
      "d": 333.3333333333285,
      "v": 116
    },
    {
      "midi": 62,
      "hit": false,
      "t": 75500.00000000003,
      "d": 369.79166666665697,
      "v": 100
    },
    {
      "midi": 67,
      "hit": false,
      "t": 75500.00000000003,
      "d": 390.62499999998545,
      "v": 88
    },
    {
      "midi": 59,
      "hit": false,
      "t": 75500.00000000003,
      "d": 427.08333333331393,
      "v": 92
    },
    {
      "midi": 53,
      "hit": false,
      "t": 76000.00000000001,
      "d": 1875,
      "v": 106
    },
    {
      "midi": 41,
      "hit": false,
      "t": 76000.00000000001,
      "d": 1901.0416666666715,
      "v": 116
    },
    {
      "midi": 40,
      "hit": false,
      "t": 78000.00000000001,
      "d": 385.4166666666715,
      "v": 122
    },
    {
      "midi": 52,
      "hit": false,
      "t": 78000.00000000001,
      "d": 651.0416666666715,
      "v": 70
    },
    {
      "midi": 40,
      "hit": false,
      "t": 78500.00000000001,
      "d": 421.875,
      "v": 116
    },
    {
      "midi": 52,
      "hit": false,
      "t": 78750.00000000001,
      "d": 375,
      "v": 80
    },
    {
      "midi": 40,
      "hit": false,
      "t": 79000.00000000001,
      "d": 432.2916666666715,
      "v": 116
    },
    {
      "midi": 52,
      "hit": false,
      "t": 79250.00000000001,
      "d": 317.7083333333285,
      "v": 74
    },
    {
      "midi": 40,
      "hit": false,
      "t": 79500.00000000001,
      "d": 307.2916666666715,
      "v": 110
    },
    {
      "midi": 52,
      "hit": false,
      "t": 79750.00000000001,
      "d": 125,
      "v": 96
    },
    {
      "midi": 64,
      "hit": false,
      "t": 80000.00000000001,
      "d": 348.9583333333285,
      "v": 116
    },
    {
      "midi": 57,
      "hit": false,
      "t": 80000.00000000001,
      "d": 364.5833333333285,
      "v": 106
    },
    {
      "midi": 60,
      "hit": false,
      "t": 80000.00000000001,
      "d": 380.2083333333285,
      "v": 110
    },
    {
      "midi": 57,
      "hit": false,
      "t": 80500.00000000001,
      "d": 187.5,
      "v": 88
    },
    {
      "midi": 64,
      "hit": false,
      "t": 80500.00000000001,
      "d": 307.2916666666715,
      "v": 100
    },
    {
      "midi": 60,
      "hit": false,
      "t": 80500.00000000001,
      "d": 312.5,
      "v": 100
    },
    {
      "midi": 57,
      "hit": false,
      "t": 80750.00000000001,
      "d": 125,
      "v": 66
    },
    {
      "midi": 55,
      "hit": false,
      "t": 81000.00000000001,
      "d": 171.875,
      "v": 96
    },
    {
      "midi": 59,
      "hit": false,
      "t": 81000.00000000001,
      "d": 401.0416666666715,
      "v": 92
    },
    {
      "midi": 62,
      "hit": false,
      "t": 81000.00000000001,
      "d": 416.6666666666715,
      "v": 100
    },
    {
      "midi": 55,
      "hit": false,
      "t": 81250.00000000001,
      "d": 166.66666666667152,
      "v": 68
    },
    {
      "midi": 55,
      "hit": false,
      "t": 81500.00000000001,
      "d": 145.83333333332848,
      "v": 80
    },
    {
      "midi": 62,
      "hit": false,
      "t": 81500.00000000001,
      "d": 145.83333333332848,
      "v": 70
    },
    {
      "midi": 59,
      "hit": false,
      "t": 81500.00000000001,
      "d": 187.5,
      "v": 78
    },
    {
      "midi": 55,
      "hit": false,
      "t": 81750.00000000001,
      "d": 281.25,
      "v": 80
    },
    {
      "midi": 60,
      "hit": false,
      "t": 81750.00000000001,
      "d": 338.5416666666715,
      "v": 78
    },
    {
      "midi": 64,
      "hit": false,
      "t": 81750.00000000001,
      "d": 338.5416666666715,
      "v": 92
    },
    {
      "midi": 55,
      "hit": false,
      "t": 82250.00000000001,
      "d": 312.5,
      "v": 106
    },
    {
      "midi": 60,
      "hit": false,
      "t": 82250.00000000001,
      "d": 468.75,
      "v": 106
    },
    {
      "midi": 64,
      "hit": false,
      "t": 82250.00000000001,
      "d": 572.9166666666715,
      "v": 110
    },
    {
      "midi": 55,
      "hit": false,
      "t": 82750.00000000001,
      "d": 109.375,
      "v": 74
    },
    {
      "midi": 56,
      "hit": false,
      "t": 83000.00000000001,
      "d": 203.125,
      "v": 98
    },
    {
      "midi": 59,
      "hit": false,
      "t": 83000.00000000001,
      "d": 281.25,
      "v": 84
    },
    {
      "midi": 64,
      "hit": false,
      "t": 83000.00000000001,
      "d": 328.125,
      "v": 74
    },
    {
      "midi": 56,
      "hit": false,
      "t": 83250.00000000001,
      "d": 145.83333333332848,
      "v": 60
    },
    {
      "midi": 56,
      "hit": false,
      "t": 83500.00000000001,
      "d": 187.5,
      "v": 106
    },
    {
      "midi": 64,
      "hit": false,
      "t": 83500.00000000001,
      "d": 213.54166666667152,
      "v": 100
    },
    {
      "midi": 59,
      "hit": false,
      "t": 83500.00000000001,
      "d": 244.79166666667152,
      "v": 100
    },
    {
      "midi": 56,
      "hit": false,
      "t": 83750.00000000001,
      "d": 140.625,
      "v": 70
    },
    {
      "midi": 64,
      "hit": false,
      "t": 84000.00000000001,
      "d": 322.9166666666715,
      "v": 110
    },
    {
      "midi": 57,
      "hit": false,
      "t": 84000.00000000001,
      "d": 333.33333333334303,
      "v": 96
    },
    {
      "midi": 60,
      "hit": false,
      "t": 84000.00000000001,
      "d": 354.1666666666715,
      "v": 100
    },
    {
      "midi": 57,
      "hit": false,
      "t": 84500.00000000001,
      "d": 182.29166666667152,
      "v": 100
    },
    {
      "midi": 60,
      "hit": false,
      "t": 84500.00000000001,
      "d": 317.7083333333285,
      "v": 110
    },
    {
      "midi": 64,
      "hit": false,
      "t": 84500.00000000001,
      "d": 317.7083333333285,
      "v": 106
    },
    {
      "midi": 57,
      "hit": false,
      "t": 84750.00000000001,
      "d": 135.41666666665697,
      "v": 66
    },
    {
      "midi": 55,
      "hit": false,
      "t": 85000,
      "d": 390.625,
      "v": 100
    },
    {
      "midi": 62,
      "hit": false,
      "t": 85000,
      "d": 489.5833333333285,
      "v": 100
    },
    {
      "midi": 59,
      "hit": false,
      "t": 85000,
      "d": 572.9166666666715,
      "v": 106
    },
    {
      "midi": 55,
      "hit": false,
      "t": 85500,
      "d": 104.16666666667152,
      "v": 60
    },
    {
      "midi": 55,
      "hit": false,
      "t": 85750,
      "d": 338.5416666666715,
      "v": 88
    },
    {
      "midi": 60,
      "hit": false,
      "t": 85750,
      "d": 411.45833333334303,
      "v": 110
    },
    {
      "midi": 64,
      "hit": false,
      "t": 85750,
      "d": 442.70833333334303,
      "v": 110
    },
    {
      "midi": 60,
      "hit": false,
      "t": 86250.00000000001,
      "d": 125,
      "v": 74
    },
    {
      "midi": 64,
      "hit": false,
      "t": 86250.00000000001,
      "d": 156.25,
      "v": 70
    },
    {
      "midi": 55,
      "hit": false,
      "t": 86250.00000000001,
      "d": 369.7916666666715,
      "v": 88
    },
    {
      "midi": 60,
      "hit": false,
      "t": 86500.00000000001,
      "d": 88.54166666667152,
      "v": 68
    },
    {
      "midi": 60,
      "hit": false,
      "t": 86750.00000000001,
      "d": 135.41666666667152,
      "v": 100
    },
    {
      "midi": 64,
      "hit": false,
      "t": 86750.00000000001,
      "d": 156.25,
      "v": 106
    },
    {
      "midi": 55,
      "hit": false,
      "t": 86750.00000000001,
      "d": 177.08333333332848,
      "v": 100
    },
    {
      "midi": 55,
      "hit": false,
      "t": 87250.00000000001,
      "d": 333.3333333333285,
      "v": 116
    },
    {
      "midi": 60,
      "hit": false,
      "t": 87250.00000000001,
      "d": 427.0833333333285,
      "v": 106
    },
    {
      "midi": 64,
      "hit": false,
      "t": 87250.00000000001,
      "d": 609.375,
      "v": 106
    },
    {
      "midi": 55,
      "hit": false,
      "t": 87750.00000000001,
      "d": 119.79166666667152,
      "v": 58
    },
    {
      "midi": 57,
      "hit": false,
      "t": 88000.00000000001,
      "d": 541.6666666666715,
      "v": 100
    },
    {
      "midi": 65,
      "hit": false,
      "t": 88000.00000000001,
      "d": 541.6666666666715,
      "v": 110
    },
    {
      "midi": 60,
      "hit": false,
      "t": 88000.00000000001,
      "d": 588.5416666666715,
      "v": 106
    },
    {
      "midi": 55,
      "hit": false,
      "t": 88750.00000000001,
      "d": 411.4583333333285,
      "v": 116
    },
    {
      "midi": 64,
      "hit": false,
      "t": 88750.00000000001,
      "d": 1072.9166666666715,
      "v": 110
    },
    {
      "midi": 60,
      "hit": false,
      "t": 88750.00000000001,
      "d": 1166.6666666666715,
      "v": 110
    },
    {
      "midi": 55,
      "hit": false,
      "t": 89250.00000000001,
      "d": 614.583333333343,
      "v": 78
    },
    {
      "midi": 65,
      "hit": false,
      "t": 90000.00000000001,
      "d": 531.25,
      "v": 100
    },
    {
      "midi": 57,
      "hit": false,
      "t": 90000.00000000001,
      "d": 578.125,
      "v": 100
    },
    {
      "midi": 60,
      "hit": false,
      "t": 90000.00000000001,
      "d": 635.4166666666715,
      "v": 106
    },
    {
      "midi": 55,
      "hit": false,
      "t": 90750.00000000001,
      "d": 411.4583333333285,
      "v": 116
    },
    {
      "midi": 60,
      "hit": false,
      "t": 90750.00000000001,
      "d": 1140.625,
      "v": 80
    },
    {
      "midi": 64,
      "hit": false,
      "t": 90750.00000000001,
      "d": 1145.8333333333285,
      "v": 106
    },
    {
      "midi": 55,
      "hit": false,
      "t": 91250.00000000001,
      "d": 536.4583333333285,
      "v": 88
    },
    {
      "midi": 57,
      "hit": false,
      "t": 92000.00000000001,
      "d": 541.6666666666715,
      "v": 110
    },
    {
      "midi": 65,
      "hit": false,
      "t": 92000.00000000001,
      "d": 567.708333333343,
      "v": 110
    },
    {
      "midi": 60,
      "hit": false,
      "t": 92000.00000000001,
      "d": 572.9166666666715,
      "v": 116
    },
    {
      "midi": 55,
      "hit": false,
      "t": 92750.00000000001,
      "d": 1046.875,
      "v": 116
    },
    {
      "midi": 64,
      "hit": false,
      "t": 92750.00000000001,
      "d": 1109.375,
      "v": 106
    },
    {
      "midi": 60,
      "hit": false,
      "t": 92750.00000000001,
      "d": 1119.7916666666715,
      "v": 106
    },
    {
      "midi": 65,
      "hit": false,
      "t": 94000.00000000001,
      "d": 562.5,
      "v": 100
    },
    {
      "midi": 57,
      "hit": false,
      "t": 94000.00000000001,
      "d": 567.7083333333285,
      "v": 106
    },
    {
      "midi": 60,
      "hit": false,
      "t": 94000.00000000001,
      "d": 604.166666666657,
      "v": 116
    },
    {
      "midi": 55,
      "hit": false,
      "t": 94750,
      "d": 406.25,
      "v": 110
    },
    {
      "midi": 64,
      "hit": false,
      "t": 94750,
      "d": 421.875,
      "v": 100
    },
    {
      "midi": 60,
      "hit": false,
      "t": 94750,
      "d": 453.125,
      "v": 106
    },
    {
      "midi": 55,
      "hit": false,
      "t": 95250,
      "d": 489.5833333333285,
      "v": 80
    },
    {
      "midi": 60,
      "hit": false,
      "t": 95250,
      "d": 536.4583333333285,
      "v": 66
    },
    {
      "midi": 64,
      "hit": false,
      "t": 95250,
      "d": 572.916666666657,
      "v": 92
    },
    {
      "midi": 41,
      "hit": false,
      "t": 96333.33333333333,
      "d": 338.54166666665697,
      "v": 116
    },
    {
      "midi": 40,
      "hit": false,
      "t": 96666.66666666666,
      "d": 333.3333333333285,
      "v": 116
    },
    {
      "midi": 36,
      "hit": false,
      "t": 96999.99999999999,
      "d": 333.3333333333285,
      "v": 110
    },
    {
      "midi": 38,
      "hit": false,
      "t": 97333.33333333331,
      "d": 286.4583333333285,
      "v": 122
    },
    {
      "midi": 41,
      "hit": false,
      "t": 97666.66666666664,
      "d": 161.45833333332848,
      "v": 110
    },
    {
      "midi": 59,
      "hit": false,
      "t": 97999.99999999997,
      "d": 359.375,
      "v": 116
    },
    {
      "midi": 64,
      "hit": false,
      "t": 97999.99999999997,
      "d": 359.375,
      "v": 116
    },
    {
      "midi": 52,
      "hit": false,
      "t": 97999.99999999997,
      "d": 375,
      "v": 100
    },
    {
      "midi": 59,
      "hit": false,
      "t": 98499.99999999997,
      "d": 317.7083333333285,
      "v": 110
    },
    {
      "midi": 64,
      "hit": false,
      "t": 98499.99999999997,
      "d": 333.3333333333285,
      "v": 106
    },
    {
      "midi": 52,
      "hit": false,
      "t": 98499.99999999997,
      "d": 343.75,
      "v": 100
    },
    {
      "midi": 52,
      "hit": false,
      "t": 98999.99999999997,
      "d": 312.5,
      "v": 110
    },
    {
      "midi": 64,
      "hit": false,
      "t": 98999.99999999997,
      "d": 312.5,
      "v": 110
    },
    {
      "midi": 59,
      "hit": false,
      "t": 98999.99999999997,
      "d": 333.3333333333285,
      "v": 122
    },
    {
      "midi": 64,
      "hit": false,
      "t": 99499.99999999997,
      "d": 156.25,
      "v": 110
    },
    {
      "midi": 52,
      "hit": false,
      "t": 99499.99999999997,
      "d": 223.95833333332848,
      "v": 100
    },
    {
      "midi": 59,
      "hit": false,
      "t": 99499.99999999997,
      "d": 265.625,
      "v": 122
    },
    {
      "midi": 57,
      "hit": false,
      "t": 99749.99999999997,
      "d": 78.125,
      "v": 68
    },
    {
      "midi": 64,
      "hit": false,
      "t": 99999.99999999997,
      "d": 276.0416666666715,
      "v": 116
    },
    {
      "midi": 57,
      "hit": false,
      "t": 99999.99999999997,
      "d": 286.45833333334303,
      "v": 110
    },
    {
      "midi": 60,
      "hit": false,
      "t": 99999.99999999997,
      "d": 291.6666666666715,
      "v": 116
    },
    {
      "midi": 57,
      "hit": false,
      "t": 100499.99999999997,
      "d": 182.29166666667152,
      "v": 92
    },
    {
      "midi": 60,
      "hit": false,
      "t": 100499.99999999997,
      "d": 291.6666666666715,
      "v": 116
    },
    {
      "midi": 64,
      "hit": false,
      "t": 100499.99999999997,
      "d": 312.5,
      "v": 116
    },
    {
      "midi": 57,
      "hit": false,
      "t": 100749.99999999997,
      "d": 135.41666666667152,
      "v": 74
    },
    {
      "midi": 59,
      "hit": false,
      "t": 100999.99999999997,
      "d": 359.375,
      "v": 106
    },
    {
      "midi": 62,
      "hit": false,
      "t": 100999.99999999997,
      "d": 375,
      "v": 110
    },
    {
      "midi": 55,
      "hit": false,
      "t": 100999.99999999997,
      "d": 395.8333333333285,
      "v": 96
    },
    {
      "midi": 55,
      "hit": false,
      "t": 101499.99999999997,
      "d": 125,
      "v": 74
    },
    {
      "midi": 62,
      "hit": false,
      "t": 101499.99999999997,
      "d": 145.83333333332848,
      "v": 92
    },
    {
      "midi": 59,
      "hit": false,
      "t": 101499.99999999997,
      "d": 177.08333333332848,
      "v": 78
    },
    {
      "midi": 55,
      "hit": false,
      "t": 101749.99999999997,
      "d": 276.0416666666715,
      "v": 100
    },
    {
      "midi": 64,
      "hit": false,
      "t": 101749.99999999997,
      "d": 286.45833333334303,
      "v": 100
    },
    {
      "midi": 60,
      "hit": false,
      "t": 101749.99999999997,
      "d": 307.2916666666715,
      "v": 100
    },
    {
      "midi": 55,
      "hit": false,
      "t": 102249.99999999997,
      "d": 333.3333333333285,
      "v": 106
    },
    {
      "midi": 60,
      "hit": false,
      "t": 102249.99999999997,
      "d": 447.91666666665697,
      "v": 100
    },
    {
      "midi": 64,
      "hit": false,
      "t": 102249.99999999997,
      "d": 572.916666666657,
      "v": 106
    },
    {
      "midi": 55,
      "hit": false,
      "t": 102749.99999999996,
      "d": 119.79166666667152,
      "v": 110
    },
    {
      "midi": 64,
      "hit": false,
      "t": 102999.99999999996,
      "d": 296.875,
      "v": 110
    },
    {
      "midi": 59,
      "hit": false,
      "t": 102999.99999999996,
      "d": 317.7083333333285,
      "v": 100
    },
    {
      "midi": 56,
      "hit": false,
      "t": 102999.99999999996,
      "d": 375,
      "v": 98
    },
    {
      "midi": 56,
      "hit": false,
      "t": 103499.99999999996,
      "d": 140.625,
      "v": 106
    },
    {
      "midi": 64,
      "hit": false,
      "t": 103499.99999999996,
      "d": 161.45833333332848,
      "v": 110
    },
    {
      "midi": 59,
      "hit": false,
      "t": 103499.99999999996,
      "d": 296.875,
      "v": 110
    },
    {
      "midi": 64,
      "hit": false,
      "t": 103999.99999999996,
      "d": 281.25,
      "v": 110
    },
    {
      "midi": 57,
      "hit": false,
      "t": 103999.99999999996,
      "d": 286.4583333333285,
      "v": 80
    },
    {
      "midi": 60,
      "hit": false,
      "t": 103999.99999999996,
      "d": 307.29166666665697,
      "v": 110
    },
    {
      "midi": 57,
      "hit": false,
      "t": 104499.99999999994,
      "d": 182.29166666667152,
      "v": 110
    },
    {
      "midi": 64,
      "hit": false,
      "t": 104499.99999999994,
      "d": 291.6666666666715,
      "v": 106
    },
    {
      "midi": 60,
      "hit": false,
      "t": 104499.99999999994,
      "d": 375,
      "v": 100
    },
    {
      "midi": 57,
      "hit": false,
      "t": 104749.99999999994,
      "d": 145.83333333332848,
      "v": 74
    },
    {
      "midi": 55,
      "hit": false,
      "t": 104999.99999999994,
      "d": 343.75,
      "v": 110
    },
    {
      "midi": 62,
      "hit": false,
      "t": 104999.99999999994,
      "d": 552.0833333333285,
      "v": 116
    },
    {
      "midi": 59,
      "hit": false,
      "t": 104999.99999999994,
      "d": 630.2083333333285,
      "v": 110
    },
    {
      "midi": 55,
      "hit": false,
      "t": 105499.99999999994,
      "d": 135.41666666665697,
      "v": 62
    },
    {
      "midi": 55,
      "hit": false,
      "t": 105749.99999999993,
      "d": 286.4583333333285,
      "v": 92
    },
    {
      "midi": 64,
      "hit": false,
      "t": 105749.99999999993,
      "d": 312.5,
      "v": 100
    },
    {
      "midi": 60,
      "hit": false,
      "t": 105749.99999999993,
      "d": 338.5416666666715,
      "v": 100
    },
    {
      "midi": 55,
      "hit": false,
      "t": 106249.99999999993,
      "d": 156.25,
      "v": 100
    },
    {
      "midi": 60,
      "hit": false,
      "t": 106249.99999999993,
      "d": 161.45833333332848,
      "v": 100
    },
    {
      "midi": 64,
      "hit": false,
      "t": 106249.99999999993,
      "d": 187.5,
      "v": 110
    },
    {
      "midi": 55,
      "hit": false,
      "t": 106499.99999999993,
      "d": 98.95833333332848,
      "v": 52
    },
    {
      "midi": 64,
      "hit": false,
      "t": 106749.99999999993,
      "d": 98.95833333332848,
      "v": 96
    },
    {
      "midi": 55,
      "hit": false,
      "t": 106749.99999999993,
      "d": 114.58333333332848,
      "v": 106
    },
    {
      "midi": 60,
      "hit": false,
      "t": 106749.99999999993,
      "d": 130.20833333332848,
      "v": 96
    },
    {
      "midi": 64,
      "hit": false,
      "t": 106999.99999999993,
      "d": 385.4166666666715,
      "v": 106
    },
    {
      "midi": 55,
      "hit": false,
      "t": 106999.99999999993,
      "d": 401.0416666666715,
      "v": 122
    },
    {
      "midi": 60,
      "hit": false,
      "t": 106999.99999999993,
      "d": 401.0416666666715,
      "v": 110
    },
    {
      "midi": 55,
      "hit": false,
      "t": 107499.99999999993,
      "d": 83.33333333332848,
      "v": 78
    },
    {
      "midi": 60,
      "hit": false,
      "t": 107499.99999999993,
      "d": 98.95833333332848,
      "v": 78
    },
    {
      "midi": 64,
      "hit": false,
      "t": 107499.99999999993,
      "d": 135.41666666665697,
      "v": 88
    },
    {
      "midi": 65,
      "hit": false,
      "t": 107999.99999999991,
      "d": 520.8333333333285,
      "v": 100
    },
    {
      "midi": 57,
      "hit": false,
      "t": 107999.99999999991,
      "d": 546.875,
      "v": 106
    },
    {
      "midi": 60,
      "hit": false,
      "t": 107999.99999999991,
      "d": 604.1666666666715,
      "v": 110
    },
    {
      "midi": 55,
      "hit": false,
      "t": 108749.99999999991,
      "d": 890.625,
      "v": 116
    },
    {
      "midi": 60,
      "hit": false,
      "t": 108749.99999999991,
      "d": 947.9166666666715,
      "v": 110
    },
    {
      "midi": 64,
      "hit": false,
      "t": 108749.99999999991,
      "d": 979.1666666666715,
      "v": 122
    },
    {
      "midi": 65,
      "hit": false,
      "t": 109999.99999999991,
      "d": 494.7916666666715,
      "v": 100
    },
    {
      "midi": 57,
      "hit": false,
      "t": 109999.99999999991,
      "d": 515.625,
      "v": 88
    },
    {
      "midi": 60,
      "hit": false,
      "t": 109999.99999999991,
      "d": 546.875,
      "v": 116
    },
    {
      "midi": 55,
      "hit": false,
      "t": 110749.99999999991,
      "d": 369.7916666666715,
      "v": 110
    },
    {
      "midi": 60,
      "hit": false,
      "t": 110749.99999999991,
      "d": 1067.7083333333285,
      "v": 110
    },
    {
      "midi": 64,
      "hit": false,
      "t": 110749.99999999991,
      "d": 1093.75,
      "v": 106
    },
    {
      "midi": 55,
      "hit": false,
      "t": 111249.99999999991,
      "d": 145.83333333332848,
      "v": 52
    },
    {
      "midi": 55,
      "hit": false,
      "t": 111499.99999999991,
      "d": 192.70833333332848,
      "v": 60
    },
    {
      "midi": 65,
      "hit": false,
      "t": 111999.99999999991,
      "d": 526.0416666666715,
      "v": 110
    },
    {
      "midi": 57,
      "hit": false,
      "t": 111999.99999999991,
      "d": 567.708333333343,
      "v": 110
    },
    {
      "midi": 60,
      "hit": false,
      "t": 111999.99999999991,
      "d": 578.1250000000146,
      "v": 88
    },
    {
      "midi": 55,
      "hit": false,
      "t": 112749.99999999993,
      "d": 895.8333333333285,
      "v": 100
    },
    {
      "midi": 60,
      "hit": false,
      "t": 112749.99999999993,
      "d": 1088.541666666657,
      "v": 100
    },
    {
      "midi": 64,
      "hit": false,
      "t": 112749.99999999993,
      "d": 1093.7499999999854,
      "v": 110
    },
    {
      "midi": 57,
      "hit": false,
      "t": 113999.99999999991,
      "d": 552.0833333333285,
      "v": 110
    },
    {
      "midi": 65,
      "hit": false,
      "t": 113999.99999999991,
      "d": 557.291666666657,
      "v": 116
    },
    {
      "midi": 60,
      "hit": false,
      "t": 113999.99999999991,
      "d": 572.916666666657,
      "v": 106
    },
    {
      "midi": 60,
      "hit": false,
      "t": 114749.9999999999,
      "d": 338.5416666666715,
      "v": 88
    },
    {
      "midi": 55,
      "hit": false,
      "t": 114749.9999999999,
      "d": 598.9583333333285,
      "v": 116
    },
    {
      "midi": 64,
      "hit": false,
      "t": 114749.9999999999,
      "d": 656.25,
      "v": 100
    },
    {
      "midi": 60,
      "hit": false,
      "t": 115249.9999999999,
      "d": 187.5,
      "v": 60
    },
    {
      "midi": 55,
      "hit": false,
      "t": 115499.9999999999,
      "d": 104.16666666667152,
      "v": 62
    },
    {
      "midi": 64,
      "hit": false,
      "t": 115499.9999999999,
      "d": 182.29166666667152,
      "v": 68
    },
    {
      "midi": 60,
      "hit": false,
      "t": 115499.9999999999,
      "d": 385.41666666665697,
      "v": 68
    },
    {
      "midi": 55,
      "hit": false,
      "t": 115749.9999999999,
      "d": 98.95833333332848,
      "v": 68
    },
    {
      "midi": 57,
      "hit": false,
      "t": 115999.99999999988,
      "d": 322.9166666666715,
      "v": 96
    },
    {
      "midi": 64,
      "hit": false,
      "t": 115999.99999999988,
      "d": 630.2083333333285,
      "v": 116
    },
    {
      "midi": 59,
      "hit": false,
      "t": 115999.99999999988,
      "d": 656.25,
      "v": 106
    },
    {
      "midi": 57,
      "hit": false,
      "t": 116499.99999999988,
      "d": 161.45833333332848,
      "v": 70
    },
    {
      "midi": 57,
      "hit": false,
      "t": 116749.99999999988,
      "d": 281.25,
      "v": 96
    },
    {
      "midi": 64,
      "hit": false,
      "t": 116749.99999999988,
      "d": 296.875,
      "v": 106
    },
    {
      "midi": 59,
      "hit": false,
      "t": 116749.99999999988,
      "d": 328.125,
      "v": 100
    },
    {
      "midi": 57,
      "hit": false,
      "t": 117249.99999999988,
      "d": 203.125,
      "v": 96
    },
    {
      "midi": 59,
      "hit": false,
      "t": 117249.99999999988,
      "d": 468.75,
      "v": 110
    },
    {
      "midi": 64,
      "hit": false,
      "t": 117249.99999999988,
      "d": 593.75,
      "v": 110
    },
    {
      "midi": 57,
      "hit": false,
      "t": 117749.99999999988,
      "d": 135.41666666667152,
      "v": 78
    },
    {
      "midi": 56,
      "hit": false,
      "t": 117999.99999999988,
      "d": 145.83333333332848,
      "v": 90
    },
    {
      "midi": 64,
      "hit": false,
      "t": 117999.99999999988,
      "d": 161.45833333332848,
      "v": 78
    },
    {
      "midi": 59,
      "hit": false,
      "t": 117999.99999999988,
      "d": 208.33333333332848,
      "v": 84
    },
    {
      "midi": 56,
      "hit": false,
      "t": 118249.99999999988,
      "d": 104.16666666667152,
      "v": 72
    },
    {
      "midi": 64,
      "hit": false,
      "t": 118249.99999999988,
      "d": 104.16666666667152,
      "v": 70
    },
    {
      "midi": 59,
      "hit": false,
      "t": 118249.99999999988,
      "d": 140.625,
      "v": 74
    },
    {
      "midi": 56,
      "hit": false,
      "t": 118499.99999999988,
      "d": 109.375,
      "v": 98
    },
    {
      "midi": 64,
      "hit": false,
      "t": 118499.99999999988,
      "d": 125,
      "v": 100
    },
    {
      "midi": 59,
      "hit": false,
      "t": 118499.99999999988,
      "d": 140.625,
      "v": 106
    },
    {
      "midi": 64,
      "hit": false,
      "t": 118749.99999999988,
      "d": 98.95833333332848,
      "v": 78
    },
    {
      "midi": 56,
      "hit": false,
      "t": 118749.99999999988,
      "d": 109.375,
      "v": 84
    },
    {
      "midi": 59,
      "hit": false,
      "t": 118749.99999999988,
      "d": 151.04166666667152,
      "v": 88
    },
    {
      "midi": 56,
      "hit": false,
      "t": 118999.99999999988,
      "d": 145.83333333332848,
      "v": 90
    },
    {
      "midi": 59,
      "hit": false,
      "t": 118999.99999999988,
      "d": 171.875,
      "v": 110
    },
    {
      "midi": 64,
      "hit": false,
      "t": 118999.99999999988,
      "d": 291.6666666666715,
      "v": 106
    },
    {
      "midi": 56,
      "hit": false,
      "t": 119249.99999999988,
      "d": 109.375,
      "v": 66
    },
    {
      "midi": 59,
      "hit": false,
      "t": 119249.99999999988,
      "d": 130.20833333332848,
      "v": 74
    },
    {
      "midi": 56,
      "hit": false,
      "t": 119499.99999999988,
      "d": 161.45833333332848,
      "v": 106
    },
    {
      "midi": 64,
      "hit": false,
      "t": 119499.99999999988,
      "d": 203.125,
      "v": 110
    },
    {
      "midi": 59,
      "hit": false,
      "t": 119499.99999999988,
      "d": 317.7083333333285,
      "v": 106
    },
    {
      "midi": 64,
      "hit": false,
      "t": 119999.99999999988,
      "d": 281.25,
      "v": 116
    },
    {
      "midi": 57,
      "hit": false,
      "t": 119999.99999999988,
      "d": 296.875,
      "v": 96
    },
    {
      "midi": 60,
      "hit": false,
      "t": 119999.99999999988,
      "d": 317.7083333333285,
      "v": 116
    },
    {
      "midi": 57,
      "hit": false,
      "t": 120499.99999999988,
      "d": 109.375,
      "v": 106
    },
    {
      "midi": 64,
      "hit": false,
      "t": 120499.99999999988,
      "d": 234.375,
      "v": 110
    },
    {
      "midi": 60,
      "hit": false,
      "t": 120499.99999999988,
      "d": 244.79166666667152,
      "v": 106
    },
    {
      "midi": 57,
      "hit": false,
      "t": 120749.99999999988,
      "d": 98.95833333332848,
      "v": 74
    },
    {
      "midi": 52,
      "hit": false,
      "t": 120999.99999999988,
      "d": 223.95833333332848,
      "v": 106
    },
    {
      "midi": 59,
      "hit": false,
      "t": 120999.99999999988,
      "d": 390.625,
      "v": 100
    },
    {
      "midi": 55,
      "hit": false,
      "t": 120999.99999999988,
      "d": 609.375,
      "v": 110
    },
    {
      "midi": 52,
      "hit": false,
      "t": 121499.99999999988,
      "d": 93.75,
      "v": 62
    },
    {
      "midi": 59,
      "hit": false,
      "t": 121499.99999999988,
      "d": 104.16666666667152,
      "v": 40
    },
    {
      "midi": 60,
      "hit": false,
      "t": 121749.99999999988,
      "d": 291.6666666666715,
      "v": 106
    },
    {
      "midi": 53,
      "hit": false,
      "t": 121749.99999999988,
      "d": 302.08333333334303,
      "v": 96
    },
    {
      "midi": 57,
      "hit": false,
      "t": 121749.99999999988,
      "d": 317.70833333334303,
      "v": 110
    },
    {
      "midi": 53,
      "hit": false,
      "t": 122249.9999999999,
      "d": 312.5,
      "v": 100
    },
    {
      "midi": 60,
      "hit": false,
      "t": 122249.9999999999,
      "d": 427.0833333333285,
      "v": 100
    },
    {
      "midi": 57,
      "hit": false,
      "t": 122249.9999999999,
      "d": 479.16666666665697,
      "v": 100
    },
    {
      "midi": 57,
      "hit": false,
      "t": 122749.99999999988,
      "d": 88.54166666667152,
      "v": 70
    },
    {
      "midi": 60,
      "hit": false,
      "t": 122749.99999999988,
      "d": 114.58333333334303,
      "v": 70
    },
    {
      "midi": 53,
      "hit": false,
      "t": 122749.99999999988,
      "d": 125.00000000001455,
      "v": 70
    },
    {
      "midi": 55,
      "hit": false,
      "t": 122999.9999999999,
      "d": 151.04166666667152,
      "v": 100
    },
    {
      "midi": 59,
      "hit": false,
      "t": 122999.9999999999,
      "d": 343.75,
      "v": 96
    },
    {
      "midi": 62,
      "hit": false,
      "t": 122999.9999999999,
      "d": 348.9583333333285,
      "v": 96
    },
    {
      "midi": 55,
      "hit": false,
      "t": 123249.9999999999,
      "d": 151.04166666665697,
      "v": 70
    },
    {
      "midi": 55,
      "hit": false,
      "t": 123499.99999999988,
      "d": 135.41666666667152,
      "v": 80
    },
    {
      "midi": 59,
      "hit": false,
      "t": 123499.99999999988,
      "d": 348.9583333333285,
      "v": 106
    },
    {
      "midi": 62,
      "hit": false,
      "t": 123499.99999999988,
      "d": 364.5833333333285,
      "v": 100
    },
    {
      "midi": 55,
      "hit": false,
      "t": 123749.99999999988,
      "d": 104.16666666665697,
      "v": 56
    },
    {
      "midi": 64,
      "hit": false,
      "t": 123999.99999999988,
      "d": 296.875,
      "v": 116
    },
    {
      "midi": 57,
      "hit": false,
      "t": 123999.99999999988,
      "d": 307.2916666666715,
      "v": 100
    },
    {
      "midi": 60,
      "hit": false,
      "t": 123999.99999999988,
      "d": 328.125,
      "v": 110
    },
    {
      "midi": 57,
      "hit": false,
      "t": 124499.99999999988,
      "d": 98.95833333332848,
      "v": 106
    },
    {
      "midi": 60,
      "hit": false,
      "t": 124499.99999999988,
      "d": 229.16666666665697,
      "v": 110
    },
    {
      "midi": 64,
      "hit": false,
      "t": 124499.99999999988,
      "d": 229.16666666665697,
      "v": 116
    },
    {
      "midi": 57,
      "hit": false,
      "t": 124749.99999999987,
      "d": 104.16666666667152,
      "v": 66
    },
    {
      "midi": 52,
      "hit": false,
      "t": 124999.99999999987,
      "d": 218.75,
      "v": 100
    },
    {
      "midi": 59,
      "hit": false,
      "t": 124999.99999999987,
      "d": 526.0416666666715,
      "v": 110
    },
    {
      "midi": 55,
      "hit": false,
      "t": 124999.99999999987,
      "d": 572.9166666666715,
      "v": 116
    },
    {
      "midi": 52,
      "hit": false,
      "t": 125499.99999999987,
      "d": 140.625,
      "v": 68
    },
    {
      "midi": 53,
      "hit": false,
      "t": 125749.99999999987,
      "d": 338.5416666666715,
      "v": 88
    },
    {
      "midi": 60,
      "hit": false,
      "t": 125749.99999999987,
      "d": 338.5416666666715,
      "v": 100
    },
    {
      "midi": 57,
      "hit": false,
      "t": 125749.99999999987,
      "d": 343.75,
      "v": 96
    },
    {
      "midi": 53,
      "hit": false,
      "t": 126249.99999999987,
      "d": 213.54166666667152,
      "v": 106
    },
    {
      "midi": 57,
      "hit": false,
      "t": 126249.99999999987,
      "d": 468.75,
      "v": 100
    },
    {
      "midi": 60,
      "hit": false,
      "t": 126249.99999999987,
      "d": 614.583333333343,
      "v": 106
    },
    {
      "midi": 53,
      "hit": false,
      "t": 126749.99999999987,
      "d": 104.16666666667152,
      "v": 78
    },
    {
      "midi": 57,
      "hit": false,
      "t": 126749.99999999987,
      "d": 104.16666666667152,
      "v": 70
    },
    {
      "midi": 62,
      "hit": false,
      "t": 126999.99999999988,
      "d": 354.1666666666715,
      "v": 116
    },
    {
      "midi": 55,
      "hit": false,
      "t": 126999.99999999988,
      "d": 380.20833333334303,
      "v": 88
    },
    {
      "midi": 59,
      "hit": false,
      "t": 126999.99999999988,
      "d": 385.4166666666715,
      "v": 80
    },
    {
      "midi": 55,
      "hit": false,
      "t": 127499.99999999988,
      "d": 93.75,
      "v": 78
    },
    {
      "midi": 62,
      "hit": false,
      "t": 127499.99999999988,
      "d": 182.29166666667152,
      "v": 100
    },
    {
      "midi": 59,
      "hit": false,
      "t": 127499.99999999988,
      "d": 260.4166666666715,
      "v": 96
    },
    {
      "midi": 55,
      "hit": false,
      "t": 127749.99999999988,
      "d": 72.91666666667152,
      "v": 56
    },
    {
      "midi": 57,
      "hit": false,
      "t": 127999.99999999988,
      "d": 265.625,
      "v": 110
    },
    {
      "midi": 60,
      "hit": false,
      "t": 127999.99999999988,
      "d": 296.875,
      "v": 110
    },
    {
      "midi": 64,
      "hit": false,
      "t": 128499.99999999988,
      "d": 322.9166666666715,
      "v": 116
    },
    {
      "midi": 57,
      "hit": false,
      "t": 128499.99999999988,
      "d": 359.375,
      "v": 106
    },
    {
      "midi": 56,
      "hit": false,
      "t": 128999.99999999988,
      "d": 177.08333333332848,
      "v": 116
    },
    {
      "midi": 64,
      "hit": false,
      "t": 128999.99999999988,
      "d": 369.79166666665697,
      "v": 106
    },
    {
      "midi": 59,
      "hit": false,
      "t": 128999.99999999988,
      "d": 562.4999999999854,
      "v": 100
    },
    {
      "midi": 56,
      "hit": false,
      "t": 129499.99999999987,
      "d": 104.16666666667152,
      "v": 38
    },
    {
      "midi": 55,
      "hit": false,
      "t": 129749.99999999987,
      "d": 276.0416666666715,
      "v": 100
    },
    {
      "midi": 64,
      "hit": false,
      "t": 129749.99999999987,
      "d": 307.2916666666715,
      "v": 116
    },
    {
      "midi": 55,
      "hit": false,
      "t": 130249.99999999987,
      "d": 317.7083333333285,
      "v": 106
    },
    {
      "midi": 64,
      "hit": false,
      "t": 130249.99999999987,
      "d": 385.41666666665697,
      "v": 116
    },
    {
      "midi": 60,
      "hit": false,
      "t": 130249.99999999987,
      "d": 406.24999999998545,
      "v": 110
    },
    {
      "midi": 55,
      "hit": false,
      "t": 130749.99999999985,
      "d": 104.16666666667152,
      "v": 60
    },
    {
      "midi": 54,
      "hit": false,
      "t": 130999.99999999985,
      "d": 291.66666666665697,
      "v": 116
    },
    {
      "midi": 62,
      "hit": false,
      "t": 130999.99999999985,
      "d": 312.5,
      "v": 116
    },
    {
      "midi": 57,
      "hit": false,
      "t": 130999.99999999985,
      "d": 369.79166666665697,
      "v": 100
    },
    {
      "midi": 62,
      "hit": false,
      "t": 131499.99999999985,
      "d": 130.20833333334303,
      "v": 106
    },
    {
      "midi": 57,
      "hit": false,
      "t": 131499.99999999985,
      "d": 145.83333333334303,
      "v": 100
    },
    {
      "midi": 54,
      "hit": false,
      "t": 131499.99999999985,
      "d": 234.375,
      "v": 106
    },
    {
      "midi": 57,
      "hit": false,
      "t": 131999.99999999985,
      "d": 1687.5,
      "v": 116
    },
    {
      "midi": 60,
      "hit": false,
      "t": 131999.99999999985,
      "d": 1734.375,
      "v": 110
    },
    {
      "midi": 53,
      "hit": false,
      "t": 131999.99999999985,
      "d": 1750,
      "v": 110
    },
    {
      "midi": 52,
      "hit": false,
      "t": 133999.99999999985,
      "d": 1937.5,
      "v": 110
    },
    {
      "midi": 59,
      "hit": false,
      "t": 133999.99999999985,
      "d": 1937.5,
      "v": 110
    },
    {
      "midi": 56,
      "hit": false,
      "t": 133999.99999999985,
      "d": 1963.541666666657,
      "v": 116
    },
    {
      "midi": 40,
      "hit": false,
      "t": 135999.99999999985,
      "d": 276.04166666665697,
      "v": 126
    },
    {
      "midi": 59,
      "hit": false,
      "t": 137999.99999999985,
      "d": 2000,
      "v": 116
    },
    {
      "midi": 60,
      "hit": false,
      "t": 137999.99999999985,
      "d": 2000,
      "v": 126
    },
    {
      "midi": 64,
      "hit": false,
      "t": 137999.99999999985,
      "d": 2000,
      "v": 126
    },
    {
      "midi": 67,
      "hit": false,
      "t": 137999.99999999985,
      "d": 2000,
      "v": 116
    }
  ]
}