{
  "jsonPath": "Rock/Spanish Indie Pop/Niño y pistola/cheetah-belt.json",
  "path": "Rock\\Spanish Indie Pop\\Niño y pistola\\Cheetah Belt.mid",
  "name": "Cheetah Belt",
  "difficulty": "Advanced",
  "bpm": 92.00012880018032,
  "notes": [
    {
      "midi": 79,
      "hit": false,
      "t": 2608.692,
      "d": 574.048109375,
      "v": 82
    },
    {
      "midi": 64,
      "hit": false,
      "t": 2608.692,
      "d": 703.1240156249996,
      "v": 68
    },
    {
      "midi": 60,
      "hit": false,
      "t": 2608.692,
      "d": 713.3142187499998,
      "v": 67
    },
    {
      "midi": 67,
      "hit": false,
      "t": 2608.692,
      "d": 2136.545921875,
      "v": 85
    },
    {
      "midi": 72,
      "hit": false,
      "t": 3260.865,
      "d": 271.73875,
      "v": 95
    },
    {
      "midi": 76,
      "hit": false,
      "t": 3260.865,
      "d": 397.41792187500005,
      "v": 85
    },
    {
      "midi": 71,
      "hit": false,
      "t": 3586.9514999999997,
      "d": 1239.8080468750009,
      "v": 95
    },
    {
      "midi": 59,
      "hit": false,
      "t": 3586.9514999999997,
      "d": 1256.791718750001,
      "v": 71
    },
    {
      "midi": 74,
      "hit": false,
      "t": 3586.9514999999997,
      "d": 1260.1884531250012,
      "v": 91
    },
    {
      "midi": 62,
      "hit": false,
      "t": 3586.9514999999997,
      "d": 1273.7753906250014,
      "v": 66
    },
    {
      "midi": 60,
      "hit": false,
      "t": 5217.384000000001,
      "d": 2296.1924375,
      "v": 80
    },
    {
      "midi": 72,
      "hit": false,
      "t": 5217.384000000001,
      "d": 2398.0944687500005,
      "v": 104
    },
    {
      "midi": 79,
      "hit": false,
      "t": 5869.557000000001,
      "d": 394.02118750000045,
      "v": 120
    },
    {
      "midi": 81,
      "hit": false,
      "t": 6195.643500000001,
      "d": 862.7705312500002,
      "v": 104
    },
    {
      "midi": 84,
      "hit": false,
      "t": 6847.816500000001,
      "d": 244.56487500000003,
      "v": 95
    },
    {
      "midi": 65,
      "hit": false,
      "t": 7173.903000000001,
      "d": 411.0048593749998,
      "v": 66
    },
    {
      "midi": 86,
      "hit": false,
      "t": 7173.903000000001,
      "d": 431.3852656250001,
      "v": 98
    },
    {
      "midi": 69,
      "hit": false,
      "t": 7173.903000000001,
      "d": 451.7656718750004,
      "v": 71
    },
    {
      "midi": 81,
      "hit": false,
      "t": 7173.903000000001,
      "d": 451.7656718750004,
      "v": 73
    },
    {
      "midi": 84,
      "hit": false,
      "t": 7826.076000000002,
      "d": 1029.210515624999,
      "v": 85
    },
    {
      "midi": 72,
      "hit": false,
      "t": 7826.076000000002,
      "d": 1032.6072499999982,
      "v": 78
    },
    {
      "midi": 79,
      "hit": false,
      "t": 7826.076000000002,
      "d": 1042.7974531249974,
      "v": 76
    },
    {
      "midi": 67,
      "hit": false,
      "t": 7826.076000000002,
      "d": 1049.5909218749975,
      "v": 78
    },
    {
      "midi": 64,
      "hit": false,
      "t": 7826.076000000002,
      "d": 1052.9876562499967,
      "v": 74
    },
    {
      "midi": 91,
      "hit": false,
      "t": 11739.113999999998,
      "d": 322.6897656250003,
      "v": 95
    },
    {
      "midi": 65,
      "hit": false,
      "t": 11739.113999999998,
      "d": 910.3248124999991,
      "v": 64
    },
    {
      "midi": 67,
      "hit": false,
      "t": 11739.113999999998,
      "d": 910.3248124999991,
      "v": 66
    },
    {
      "midi": 62,
      "hit": false,
      "t": 11739.113999999998,
      "d": 947.6888906249987,
      "v": 64
    },
    {
      "midi": 79,
      "hit": false,
      "t": 12065.200499999997,
      "d": 608.0154531249991,
      "v": 95
    },
    {
      "midi": 69,
      "hit": false,
      "t": 13043.459999999997,
      "d": 621.6023906249993,
      "v": 71
    },
    {
      "midi": 57,
      "hit": false,
      "t": 13043.459999999997,
      "d": 631.7925937499986,
      "v": 73
    },
    {
      "midi": 64,
      "hit": false,
      "t": 13043.459999999997,
      "d": 645.3795312499988,
      "v": 65
    },
    {
      "midi": 60,
      "hit": false,
      "t": 13043.459999999997,
      "d": 665.7599374999991,
      "v": 67
    },
    {
      "midi": 72,
      "hit": false,
      "t": 13043.459999999997,
      "d": 835.5966562499998,
      "v": 98
    },
    {
      "midi": 76,
      "hit": false,
      "t": 13369.546499999997,
      "d": 577.4448437499996,
      "v": 95
    },
    {
      "midi": 84,
      "hit": false,
      "t": 13695.632999999996,
      "d": 241.1681406250009,
      "v": 104
    },
    {
      "midi": 83,
      "hit": false,
      "t": 14021.719499999996,
      "d": 1219.4276406249992,
      "v": 95
    },
    {
      "midi": 67,
      "hit": false,
      "t": 14021.719499999996,
      "d": 1226.2211093749993,
      "v": 66
    },
    {
      "midi": 64,
      "hit": false,
      "t": 14021.719499999996,
      "d": 1233.0145781249994,
      "v": 66
    },
    {
      "midi": 76,
      "hit": false,
      "t": 14021.719499999996,
      "d": 1270.378656249999,
      "v": 85
    },
    {
      "midi": 81,
      "hit": false,
      "t": 15652.151999999995,
      "d": 669.156671875,
      "v": 109
    },
    {
      "midi": 72,
      "hit": false,
      "t": 15652.151999999995,
      "d": 689.5370781250003,
      "v": 98
    },
    {
      "midi": 69,
      "hit": false,
      "t": 15652.151999999995,
      "d": 692.9338124999995,
      "v": 66
    },
    {
      "midi": 60,
      "hit": false,
      "t": 15652.151999999995,
      "d": 716.7109531249989,
      "v": 68
    },
    {
      "midi": 65,
      "hit": false,
      "t": 15652.151999999995,
      "d": 733.6946250000001,
      "v": 62
    },
    {
      "midi": 77,
      "hit": false,
      "t": 16304.324999999995,
      "d": 346.4669062499979,
      "v": 95
    },
    {
      "midi": 79,
      "hit": false,
      "t": 16630.411499999995,
      "d": 672.5534062499974,
      "v": 95
    },
    {
      "midi": 72,
      "hit": false,
      "t": 16630.411499999995,
      "d": 1314.536203124997,
      "v": 91
    },
    {
      "midi": 64,
      "hit": false,
      "t": 16630.411499999995,
      "d": 1379.074156249997,
      "v": 62
    },
    {
      "midi": 67,
      "hit": false,
      "t": 16630.411499999995,
      "d": 1385.8676249999953,
      "v": 73
    },
    {
      "midi": 60,
      "hit": false,
      "t": 16630.411499999995,
      "d": 1389.2643593749963,
      "v": 65
    },
    {
      "midi": 76,
      "hit": false,
      "t": 17282.584499999994,
      "d": 760.8684999999969,
      "v": 88
    },
    {
      "midi": 74,
      "hit": false,
      "t": 18260.84399999999,
      "d": 2088.9916406250013,
      "v": 80
    },
    {
      "midi": 69,
      "hit": false,
      "t": 18260.84399999999,
      "d": 2112.7687812500008,
      "v": 82
    },
    {
      "midi": 65,
      "hit": false,
      "t": 18260.84399999999,
      "d": 2136.545921875,
      "v": 71
    },
    {
      "midi": 62,
      "hit": false,
      "t": 18260.84399999999,
      "d": 2160.3230624999997,
      "v": 76
    },
    {
      "midi": 72,
      "hit": false,
      "t": 20869.53599999999,
      "d": 319.29303124999933,
      "v": 104
    },
    {
      "midi": 69,
      "hit": false,
      "t": 20869.53599999999,
      "d": 339.6734374999978,
      "v": 109
    },
    {
      "midi": 65,
      "hit": false,
      "t": 21195.622499999987,
      "d": 326.08650000000125,
      "v": 88
    },
    {
      "midi": 67,
      "hit": false,
      "t": 21521.708999999988,
      "d": 366.84731250000186,
      "v": 95
    },
    {
      "midi": 71,
      "hit": false,
      "t": 21521.708999999988,
      "d": 366.84731250000186,
      "v": 91
    },
    {
      "midi": 72,
      "hit": false,
      "t": 21847.79549999999,
      "d": 251.35834375000195,
      "v": 88
    },
    {
      "midi": 65,
      "hit": false,
      "t": 21847.79549999999,
      "d": 261.5485468750012,
      "v": 88
    },
    {
      "midi": 69,
      "hit": false,
      "t": 21847.79549999999,
      "d": 275.1354843750014,
      "v": 95
    },
    {
      "midi": 67,
      "hit": false,
      "t": 22499.96849999999,
      "d": 499.3199531249993,
      "v": 76
    },
    {
      "midi": 71,
      "hit": false,
      "t": 22499.96849999999,
      "d": 516.3036250000005,
      "v": 73
    },
    {
      "midi": 74,
      "hit": false,
      "t": 22499.96849999999,
      "d": 519.7003593750014,
      "v": 80
    },
    {
      "midi": 36,
      "hit": false,
      "t": 54782.53199999999,
      "d": 855.9770625000019,
      "v": 95
    },
    {
      "midi": 55,
      "hit": false,
      "t": 54782.53199999999,
      "d": 995.2431718750013,
      "v": 98
    },
    {
      "midi": 67,
      "hit": false,
      "t": 54782.53199999999,
      "d": 1002.0366406250032,
      "v": 95
    },
    {
      "midi": 60,
      "hit": false,
      "t": 54782.53199999999,
      "d": 1012.2268437500024,
      "v": 91
    },
    {
      "midi": 64,
      "hit": false,
      "t": 54782.53199999999,
      "d": 1022.4170468750017,
      "v": 85
    },
    {
      "midi": 48,
      "hit": false,
      "t": 54782.53199999999,
      "d": 1029.2105156250036,
      "v": 82
    },
    {
      "midi": 47,
      "hit": false,
      "t": 56086.878,
      "d": 998.6399062499986,
      "v": 88
    },
    {
      "midi": 67,
      "hit": false,
      "t": 56086.878,
      "d": 1127.7158124999987,
      "v": 109
    },
    {
      "midi": 59,
      "hit": false,
      "t": 56086.878,
      "d": 1168.4766249999957,
      "v": 98
    },
    {
      "midi": 62,
      "hit": false,
      "t": 56086.878,
      "d": 1168.4766249999957,
      "v": 95
    },
    {
      "midi": 57,
      "hit": false,
      "t": 57391.223999999995,
      "d": 1820.6496249999982,
      "v": 104
    },
    {
      "midi": 62,
      "hit": false,
      "t": 57391.223999999995,
      "d": 1841.0300312499967,
      "v": 88
    },
    {
      "midi": 65,
      "hit": false,
      "t": 57391.223999999995,
      "d": 1854.6169687499932,
      "v": 85
    },
    {
      "midi": 50,
      "hit": false,
      "t": 57391.223999999995,
      "d": 2462.632421874994,
      "v": 85
    },
    {
      "midi": 57,
      "hit": false,
      "t": 59347.74299999999,
      "d": 461.95587499999965,
      "v": 109
    },
    {
      "midi": 65,
      "hit": false,
      "t": 59347.74299999999,
      "d": 489.12975000000006,
      "v": 104
    },
    {
      "midi": 62,
      "hit": false,
      "t": 59347.74299999999,
      "d": 506.1134218750012,
      "v": 104
    },
    {
      "midi": 48,
      "hit": false,
      "t": 59999.91599999999,
      "d": 1042.7974531250002,
      "v": 85
    },
    {
      "midi": 60,
      "hit": false,
      "t": 59999.91599999999,
      "d": 1066.5745937500033,
      "v": 98
    },
    {
      "midi": 55,
      "hit": false,
      "t": 59999.91599999999,
      "d": 1083.5582656250044,
      "v": 104
    },
    {
      "midi": 64,
      "hit": false,
      "t": 59999.91599999999,
      "d": 1086.9550000000017,
      "v": 88
    },
    {
      "midi": 67,
      "hit": false,
      "t": 59999.91599999999,
      "d": 1086.9550000000017,
      "v": 104
    },
    {
      "midi": 47,
      "hit": false,
      "t": 61304.261999999995,
      "d": 1046.1941874999975,
      "v": 91
    },
    {
      "midi": 55,
      "hit": false,
      "t": 61304.261999999995,
      "d": 1103.9386718749956,
      "v": 98
    },
    {
      "midi": 67,
      "hit": false,
      "t": 61304.261999999995,
      "d": 1124.3190781249941,
      "v": 95
    },
    {
      "midi": 59,
      "hit": false,
      "t": 61304.261999999995,
      "d": 1161.6831562499938,
      "v": 91
    },
    {
      "midi": 62,
      "hit": false,
      "t": 61304.261999999995,
      "d": 1165.079890624991,
      "v": 82
    },
    {
      "midi": 57,
      "hit": false,
      "t": 62608.607999999986,
      "d": 1837.6332968749994,
      "v": 120
    },
    {
      "midi": 62,
      "hit": false,
      "t": 62608.607999999986,
      "d": 1881.790843750001,
      "v": 104
    },
    {
      "midi": 65,
      "hit": false,
      "t": 62608.607999999986,
      "d": 1881.790843750001,
      "v": 98
    },
    {
      "midi": 50,
      "hit": false,
      "t": 62608.607999999986,
      "d": 2489.806296875002,
      "v": 98
    },
    {
      "midi": 57,
      "hit": false,
      "t": 64565.126999999986,
      "d": 434.78199999999924,
      "v": 114
    },
    {
      "midi": 65,
      "hit": false,
      "t": 64565.126999999986,
      "d": 489.12975000000006,
      "v": 85
    },
    {
      "midi": 62,
      "hit": false,
      "t": 64565.126999999986,
      "d": 506.1134218750012,
      "v": 104
    },
    {
      "midi": 45,
      "hit": false,
      "t": 65217.29999999999,
      "d": 852.5803281249973,
      "v": 109
    },
    {
      "midi": 57,
      "hit": false,
      "t": 65217.29999999999,
      "d": 1199.0472343750007,
      "v": 109
    },
    {
      "midi": 64,
      "hit": false,
      "t": 65217.29999999999,
      "d": 1239.8080468749977,
      "v": 98
    },
    {
      "midi": 60,
      "hit": false,
      "t": 65217.29999999999,
      "d": 1246.6015156249923,
      "v": 104
    },
    {
      "midi": 45,
      "hit": false,
      "t": 66195.55949999999,
      "d": 315.89629687499837,
      "v": 114
    },
    {
      "midi": 55,
      "hit": false,
      "t": 66521.646,
      "d": 1148.0962187499972,
      "v": 104
    },
    {
      "midi": 60,
      "hit": false,
      "t": 66521.646,
      "d": 1158.2864218750037,
      "v": 104
    },
    {
      "midi": 64,
      "hit": false,
      "t": 66521.646,
      "d": 1185.4602968749969,
      "v": 74
    },
    {
      "midi": 43,
      "hit": false,
      "t": 66521.646,
      "d": 1209.2374374999927,
      "v": 120
    },
    {
      "midi": 57,
      "hit": false,
      "t": 67825.99199999998,
      "d": 859.3737968750065,
      "v": 98
    },
    {
      "midi": 60,
      "hit": false,
      "t": 67825.99199999998,
      "d": 869.564000000013,
      "v": 95
    },
    {
      "midi": 65,
      "hit": false,
      "t": 67825.99199999998,
      "d": 879.7542031250196,
      "v": 95
    },
    {
      "midi": 41,
      "hit": false,
      "t": 67825.99199999998,
      "d": 906.9280781250127,
      "v": 120
    },
    {
      "midi": 60,
      "hit": false,
      "t": 68804.2515,
      "d": 614.8089218749956,
      "v": 104
    },
    {
      "midi": 55,
      "hit": false,
      "t": 68804.2515,
      "d": 930.705218749994,
      "v": 91
    },
    {
      "midi": 40,
      "hit": false,
      "t": 68804.2515,
      "d": 1127.7158124999987,
      "v": 120
    },
    {
      "midi": 67,
      "hit": false,
      "t": 68804.2515,
      "d": 1294.1557968749985,
      "v": 109
    },
    {
      "midi": 64,
      "hit": false,
      "t": 69456.4245,
      "d": 954.4823593750189,
      "v": 95
    },
    {
      "midi": 60,
      "hit": false,
      "t": 69782.511,
      "d": 434.7820000000065,
      "v": 120
    },
    {
      "midi": 55,
      "hit": false,
      "t": 70108.5975,
      "d": 197.01059375000477,
      "v": 104
    },
    {
      "midi": 50,
      "hit": false,
      "t": 70434.68400000001,
      "d": 981.6562343749974,
      "v": 114
    },
    {
      "midi": 60,
      "hit": false,
      "t": 70434.68400000001,
      "d": 2387.904265624995,
      "v": 85
    },
    {
      "midi": 57,
      "hit": false,
      "t": 70434.68400000001,
      "d": 2394.6977343749895,
      "v": 109
    },
    {
      "midi": 38,
      "hit": false,
      "t": 71412.94350000001,
      "d": 3.3967343749973224,
      "v": 109
    },
    {
      "midi": 38,
      "hit": false,
      "t": 71739.03,
      "d": 1131.112546874996,
      "v": 120
    },
    {
      "midi": 57,
      "hit": false,
      "t": 73043.37599999999,
      "d": 546.8742343750055,
      "v": 98
    },
    {
      "midi": 60,
      "hit": false,
      "t": 73043.37599999999,
      "d": 557.064437500012,
      "v": 104
    },
    {
      "midi": 65,
      "hit": false,
      "t": 73043.37599999999,
      "d": 570.6513750000158,
      "v": 104
    },
    {
      "midi": 43,
      "hit": false,
      "t": 73043.37599999999,
      "d": 1239.8080468749977,
      "v": 120
    },
    {
      "midi": 55,
      "hit": false,
      "t": 73695.549,
      "d": 74.7281562499993,
      "v": 109
    },
    {
      "midi": 59,
      "hit": false,
      "t": 73695.549,
      "d": 78.12489062499662,
      "v": 114
    },
    {
      "midi": 57,
      "hit": false,
      "t": 74021.63549999999,
      "d": 271.7387500000041,
      "v": 114
    },
    {
      "midi": 60,
      "hit": false,
      "t": 74021.63549999999,
      "d": 275.1354843750014,
      "v": 114
    },
    {
      "midi": 55,
      "hit": false,
      "t": 74673.80849999998,
      "d": 631.7925937499967,
      "v": 109
    },
    {
      "midi": 47,
      "hit": false,
      "t": 74673.80849999998,
      "d": 638.5860624999914,
      "v": 120
    },
    {
      "midi": 59,
      "hit": false,
      "t": 74673.80849999998,
      "d": 655.5697343749925,
      "v": 120
    },
    {
      "midi": 62,
      "hit": false,
      "t": 74673.80849999998,
      "d": 662.3632031249872,
      "v": 109
    },
    {
      "midi": 65,
      "hit": false,
      "t": 79239.01949999997,
      "d": 1606.6553593749995,
      "v": 80
    },
    {
      "midi": 69,
      "hit": false,
      "t": 80217.27899999997,
      "d": 563.8579062500066,
      "v": 114
    },
    {
      "midi": 72,
      "hit": false,
      "t": 80543.36549999997,
      "d": 302.30935937499453,
      "v": 98
    },
    {
      "midi": 64,
      "hit": false,
      "t": 80869.45199999996,
      "d": 991.846437500004,
      "v": 68
    },
    {
      "midi": 67,
      "hit": false,
      "t": 80869.45199999996,
      "d": 1002.0366406250105,
      "v": 109
    },
    {
      "midi": 60,
      "hit": false,
      "t": 80869.45199999996,
      "d": 1005.4333750000078,
      "v": 78
    },
    {
      "midi": 72,
      "hit": false,
      "t": 80869.45199999996,
      "d": 1005.4333750000078,
      "v": 95
    },
    {
      "midi": 79,
      "hit": false,
      "t": 85108.57649999997,
      "d": 394.02118750000955,
      "v": 114
    },
    {
      "midi": 67,
      "hit": false,
      "t": 85434.66299999997,
      "d": 682.7436093750002,
      "v": 114
    },
    {
      "midi": 79,
      "hit": false,
      "t": 85760.74949999998,
      "d": 353.260374999998,
      "v": 124
    },
    {
      "midi": 57,
      "hit": false,
      "t": 86086.83599999998,
      "d": 961.2758281249844,
      "v": 76
    },
    {
      "midi": 72,
      "hit": false,
      "t": 86086.83599999998,
      "d": 1032.6072499999864,
      "v": 109
    },
    {
      "midi": 76,
      "hit": false,
      "t": 86086.83599999998,
      "d": 1032.6072499999864,
      "v": 104
    },
    {
      "midi": 65,
      "hit": false,
      "t": 89021.61449999997,
      "d": 275.1354843750014,
      "v": 109
    },
    {
      "midi": 72,
      "hit": false,
      "t": 89347.70099999997,
      "d": 247.9616093749937,
      "v": 120
    },
    {
      "midi": 69,
      "hit": false,
      "t": 89347.70099999997,
      "d": 271.7387499999895,
      "v": 120
    },
    {
      "midi": 60,
      "hit": false,
      "t": 89673.78749999996,
      "d": 1273.775390625,
      "v": 76
    },
    {
      "midi": 64,
      "hit": false,
      "t": 89673.78749999996,
      "d": 1345.106812500002,
      "v": 78
    },
    {
      "midi": 67,
      "hit": false,
      "t": 89673.78749999996,
      "d": 1593.0684218749957,
      "v": 114
    },
    {
      "midi": 72,
      "hit": false,
      "t": 89673.78749999996,
      "d": 1620.2422968749888,
      "v": 109
    },
    {
      "midi": 57,
      "hit": false,
      "t": 91304.21999999996,
      "d": 2907.604625000007,
      "v": 104
    },
    {
      "midi": 62,
      "hit": false,
      "t": 91630.30649999996,
      "d": 2550.947515625012,
      "v": 95
    },
    {
      "midi": 65,
      "hit": false,
      "t": 91956.39299999997,
      "d": 2207.877343750006,
      "v": 109
    },
    {
      "midi": 69,
      "hit": false,
      "t": 92282.47949999997,
      "d": 1905.5679843749967,
      "v": 109
    },
    {
      "midi": 72,
      "hit": false,
      "t": 92282.47949999997,
      "d": 1922.551656249998,
      "v": 114
    },
    {
      "midi": 67,
      "hit": false,
      "t": 94238.99849999996,
      "d": 512.9068906250031,
      "v": 104
    },
    {
      "midi": 71,
      "hit": false,
      "t": 94238.99849999996,
      "d": 523.0970937500097,
      "v": 104
    },
    {
      "midi": 72,
      "hit": false,
      "t": 94891.17149999997,
      "d": 570.6513750000013,
      "v": 120
    },
    {
      "midi": 65,
      "hit": false,
      "t": 94891.17149999997,
      "d": 614.8089218749956,
      "v": 114
    },
    {
      "midi": 62,
      "hit": false,
      "t": 95543.34449999996,
      "d": 631.7925937499967,
      "v": 88
    },
    {
      "midi": 59,
      "hit": false,
      "t": 95543.34449999996,
      "d": 638.5860624999914,
      "v": 91
    },
    {
      "midi": 67,
      "hit": false,
      "t": 95543.34449999996,
      "d": 648.7762656249979,
      "v": 120
    },
    {
      "midi": 74,
      "hit": false,
      "t": 95543.34449999996,
      "d": 665.7599374999991,
      "v": 114
    },
    {
      "midi": 67,
      "hit": false,
      "t": 96521.60399999996,
      "d": 1093.7484687499964,
      "v": 120
    },
    {
      "midi": 79,
      "hit": false,
      "t": 96521.60399999996,
      "d": 1110.7321406249976,
      "v": 104
    },
    {
      "midi": 72,
      "hit": false,
      "t": 96521.60399999996,
      "d": 1131.112546874996,
      "v": 109
    },
    {
      "midi": 76,
      "hit": false,
      "t": 96521.60399999996,
      "d": 1137.9060156249907,
      "v": 91
    },
    {
      "midi": 64,
      "hit": false,
      "t": 96521.60399999996,
      "d": 1141.302749999988,
      "v": 104
    },
    {
      "midi": 60,
      "hit": false,
      "t": 96521.60399999996,
      "d": 1171.873359374993,
      "v": 114
    },
    {
      "midi": 59,
      "hit": false,
      "t": 97825.94999999995,
      "d": 849.18359375,
      "v": 95
    },
    {
      "midi": 62,
      "hit": false,
      "t": 98152.03649999996,
      "d": 482.33628124999814,
      "v": 95
    },
    {
      "midi": 67,
      "hit": false,
      "t": 98478.12299999996,
      "d": 336.27670312499686,
      "v": 109
    },
    {
      "midi": 74,
      "hit": false,
      "t": 98478.12299999996,
      "d": 339.6734374999942,
      "v": 109
    },
    {
      "midi": 57,
      "hit": false,
      "t": 99456.38249999996,
      "d": 2194.2904062500165,
      "v": 109
    },
    {
      "midi": 62,
      "hit": false,
      "t": 99782.46899999997,
      "d": 1878.3941093750182,
      "v": 85
    },
    {
      "midi": 65,
      "hit": false,
      "t": 100108.55549999997,
      "d": 1531.9272031250002,
      "v": 85
    },
    {
      "midi": 77,
      "hit": false,
      "t": 100108.55549999997,
      "d": 1569.2912812500144,
      "v": 98
    },
    {
      "midi": 72,
      "hit": false,
      "t": 100108.55549999997,
      "d": 1606.655359375014,
      "v": 95
    },
    {
      "midi": 60,
      "hit": false,
      "t": 101738.98799999998,
      "d": 1219.4276406250137,
      "v": 109
    },
    {
      "midi": 64,
      "hit": false,
      "t": 102065.07449999999,
      "d": 906.9280781250127,
      "v": 91
    },
    {
      "midi": 67,
      "hit": false,
      "t": 102391.161,
      "d": 563.8579062500066,
      "v": 95
    },
    {
      "midi": 72,
      "hit": false,
      "t": 102391.161,
      "d": 604.6187187500036,
      "v": 98
    },
    {
      "midi": 76,
      "hit": false,
      "t": 102391.161,
      "d": 618.2056562500075,
      "v": 104
    },
    {
      "midi": 59,
      "hit": false,
      "t": 103043.334,
      "d": 1012.226843750017,
      "v": 98
    },
    {
      "midi": 62,
      "hit": false,
      "t": 103369.42050000001,
      "d": 686.1403437500121,
      "v": 91
    },
    {
      "midi": 79,
      "hit": false,
      "t": 103695.50700000001,
      "d": 370.24404687501374,
      "v": 95
    },
    {
      "midi": 67,
      "hit": false,
      "t": 103695.50700000001,
      "d": 373.64078125001106,
      "v": 95
    },
    {
      "midi": 74,
      "hit": false,
      "t": 103695.50700000001,
      "d": 377.0375156250084,
      "v": 98
    },
    {
      "midi": 57,
      "hit": false,
      "t": 104673.76650000003,
      "d": 1841.030031250004,
      "v": 104
    },
    {
      "midi": 60,
      "hit": false,
      "t": 104999.85300000003,
      "d": 1528.530468750003,
      "v": 104
    },
    {
      "midi": 65,
      "hit": false,
      "t": 105325.93950000004,
      "d": 1542.1174062499922,
      "v": 95
    },
    {
      "midi": 77,
      "hit": false,
      "t": 105325.93950000004,
      "d": 1620.2422968749888,
      "v": 104
    },
    {
      "midi": 72,
      "hit": false,
      "t": 105325.93950000004,
      "d": 1633.8292343749927,
      "v": 98
    },
    {
      "midi": 57,
      "hit": false,
      "t": 106956.37200000003,
      "d": 774.4554375000007,
      "v": 109
    },
    {
      "midi": 64,
      "hit": false,
      "t": 107282.45850000002,
      "d": 455.162406250005,
      "v": 104
    },
    {
      "midi": 76,
      "hit": false,
      "t": 107608.54500000003,
      "d": 288.72242187500524,
      "v": 98
    },
    {
      "midi": 69,
      "hit": false,
      "t": 107608.54500000003,
      "d": 295.5158906249999,
      "v": 98
    },
    {
      "midi": 72,
      "hit": false,
      "t": 107608.54500000003,
      "d": 298.9126249999972,
      "v": 104
    },
    {
      "midi": 55,
      "hit": false,
      "t": 108586.80450000003,
      "d": 709.9174843750079,
      "v": 98
    },
    {
      "midi": 64,
      "hit": false,
      "t": 108912.89100000003,
      "d": 326.0865000000049,
      "v": 98
    },
    {
      "midi": 67,
      "hit": false,
      "t": 108912.89100000003,
      "d": 366.84731250000186,
      "v": 104
    },
    {
      "midi": 72,
      "hit": false,
      "t": 108912.89100000003,
      "d": 380.4342500000057,
      "v": 98
    },
    {
      "midi": 76,
      "hit": false,
      "t": 108912.89100000003,
      "d": 383.830984375003,
      "v": 104
    },
    {
      "midi": 65,
      "hit": false,
      "t": 109891.15050000003,
      "d": 427.9885312500119,
      "v": 104
    },
    {
      "midi": 60,
      "hit": false,
      "t": 109891.15050000003,
      "d": 431.3852656250092,
      "v": 98
    },
    {
      "midi": 77,
      "hit": false,
      "t": 110217.23700000004,
      "d": 224.1844687499979,
      "v": 114
    },
    {
      "midi": 69,
      "hit": false,
      "t": 110217.23700000004,
      "d": 237.77140625000175,
      "v": 104
    },
    {
      "midi": 72,
      "hit": false,
      "t": 110217.23700000004,
      "d": 237.77140625000175,
      "v": 109
    },
    {
      "midi": 67,
      "hit": false,
      "t": 110543.32350000004,
      "d": 512.9068906250031,
      "v": 88
    },
    {
      "midi": 72,
      "hit": false,
      "t": 110543.32350000004,
      "d": 529.8905625000043,
      "v": 95
    },
    {
      "midi": 79,
      "hit": false,
      "t": 110543.32350000004,
      "d": 533.2872968750016,
      "v": 91
    },
    {
      "midi": 60,
      "hit": false,
      "t": 110543.32350000004,
      "d": 1294.1557968749985,
      "v": 91
    },
    {
      "midi": 64,
      "hit": false,
      "t": 110543.32350000004,
      "d": 1297.5525312499958,
      "v": 80
    },
    {
      "midi": 67,
      "hit": false,
      "t": 111195.49650000004,
      "d": 947.6888906249951,
      "v": 82
    },
    {
      "midi": 76,
      "hit": false,
      "t": 111195.49650000004,
      "d": 968.0692968749936,
      "v": 88
    },
    {
      "midi": 72,
      "hit": false,
      "t": 111195.49650000004,
      "d": 985.0529687499948,
      "v": 95
    },
    {
      "midi": 57,
      "hit": false,
      "t": 112173.75600000004,
      "d": 2289.3989687500143,
      "v": 109
    },
    {
      "midi": 62,
      "hit": false,
      "t": 112499.84250000003,
      "d": 1976.8994062500278,
      "v": 98
    },
    {
      "midi": 67,
      "hit": false,
      "t": 112825.92900000003,
      "d": 1728.9377968750196,
      "v": 114
    },
    {
      "midi": 69,
      "hit": false,
      "t": 113152.01550000004,
      "d": 346.4669062500034,
      "v": 120
    },
    {
      "midi": 72,
      "hit": false,
      "t": 113478.10200000004,
      "d": 377.0375156250084,
      "v": 114
    },
    {
      "midi": 74,
      "hit": false,
      "t": 113804.18850000005,
      "d": 652.1730000000098,
      "v": 114
    },
    {
      "midi": 69,
      "hit": false,
      "t": 114782.44800000005,
      "d": 414.4015937499935,
      "v": 109
    },
    {
      "midi": 65,
      "hit": false,
      "t": 114782.44800000005,
      "d": 421.1950624999881,
      "v": 109
    },
    {
      "midi": 71,
      "hit": false,
      "t": 115434.62100000004,
      "d": 227.58120312499523,
      "v": 104
    },
    {
      "midi": 67,
      "hit": false,
      "t": 115434.62100000004,
      "d": 237.77140625000175,
      "v": 109
    },
    {
      "midi": 72,
      "hit": false,
      "t": 115760.70750000005,
      "d": 516.3036250000005,
      "v": 104
    },
    {
      "midi": 69,
      "hit": false,
      "t": 115760.70750000005,
      "d": 519.7003593749978,
      "v": 104
    },
    {
      "midi": 62,
      "hit": false,
      "t": 116412.88050000004,
      "d": 441.57546875000116,
      "v": 78
    },
    {
      "midi": 59,
      "hit": false,
      "t": 116412.88050000004,
      "d": 448.3689374999958,
      "v": 95
    },
    {
      "midi": 67,
      "hit": false,
      "t": 116412.88050000004,
      "d": 461.95587499999965,
      "v": 114
    },
    {
      "midi": 74,
      "hit": false,
      "t": 116412.88050000004,
      "d": 478.9395468750008,
      "v": 120
    },
    {
      "midi": 76,
      "hit": false,
      "t": 117391.14000000004,
      "d": 1151.4929531249945,
      "v": 95
    },
    {
      "midi": 67,
      "hit": false,
      "t": 117391.14000000004,
      "d": 1154.8896874999919,
      "v": 91
    },
    {
      "midi": 72,
      "hit": false,
      "t": 117391.14000000004,
      "d": 1171.873359374993,
      "v": 104
    },
    {
      "midi": 67,
      "hit": false,
      "t": 126847.64850000004,
      "d": 577.4448437500105,
      "v": 98
    },
    {
      "midi": 79,
      "hit": false,
      "t": 127173.73500000004,
      "d": 696.3305468750041,
      "v": 120
    },
    {
      "midi": 67,
      "hit": false,
      "t": 127499.82150000005,
      "d": 346.4669062500034,
      "v": 109
    },
    {
      "midi": 36,
      "hit": false,
      "t": 127825.90800000005,
      "d": 855.9770624999946,
      "v": 95
    },
    {
      "midi": 55,
      "hit": false,
      "t": 127825.90800000005,
      "d": 995.2431718750013,
      "v": 98
    },
    {
      "midi": 60,
      "hit": false,
      "t": 127825.90800000005,
      "d": 1012.2268437500024,
      "v": 91
    },
    {
      "midi": 64,
      "hit": false,
      "t": 127825.90800000005,
      "d": 1022.417046875009,
      "v": 85
    },
    {
      "midi": 48,
      "hit": false,
      "t": 127825.90800000005,
      "d": 1029.2105156250036,
      "v": 82
    },
    {
      "midi": 47,
      "hit": false,
      "t": 129130.25400000006,
      "d": 998.6399062499986,
      "v": 88
    },
    {
      "midi": 67,
      "hit": false,
      "t": 129130.25400000006,
      "d": 1127.7158124999987,
      "v": 109
    },
    {
      "midi": 59,
      "hit": false,
      "t": 129130.25400000006,
      "d": 1168.4766249999957,
      "v": 98
    },
    {
      "midi": 62,
      "hit": false,
      "t": 129130.25400000006,
      "d": 1168.4766249999957,
      "v": 95
    },
    {
      "midi": 57,
      "hit": false,
      "t": 130434.60000000005,
      "d": 1820.6496250000055,
      "v": 104
    },
    {
      "midi": 62,
      "hit": false,
      "t": 130434.60000000005,
      "d": 1841.0300312500185,
      "v": 88
    },
    {
      "midi": 65,
      "hit": false,
      "t": 130434.60000000005,
      "d": 1854.6169687500078,
      "v": 85
    },
    {
      "midi": 50,
      "hit": false,
      "t": 130434.60000000005,
      "d": 2462.632421875038,
      "v": 85
    },
    {
      "midi": 57,
      "hit": false,
      "t": 132391.11900000006,
      "d": 461.9558750000142,
      "v": 109
    },
    {
      "midi": 65,
      "hit": false,
      "t": 132391.11900000006,
      "d": 489.1297500000219,
      "v": 104
    },
    {
      "midi": 62,
      "hit": false,
      "t": 132391.11900000006,
      "d": 506.11342187502305,
      "v": 104
    },
    {
      "midi": 48,
      "hit": false,
      "t": 133043.29200000007,
      "d": 1042.7974531250075,
      "v": 85
    },
    {
      "midi": 60,
      "hit": false,
      "t": 133043.29200000007,
      "d": 1066.5745937500033,
      "v": 98
    },
    {
      "midi": 55,
      "hit": false,
      "t": 133043.29200000007,
      "d": 1083.5582656250044,
      "v": 104
    },
    {
      "midi": 64,
      "hit": false,
      "t": 133043.29200000007,
      "d": 1086.9550000000163,
      "v": 88
    },
    {
      "midi": 67,
      "hit": false,
      "t": 133043.29200000007,
      "d": 1086.9550000000163,
      "v": 104
    },
    {
      "midi": 47,
      "hit": false,
      "t": 134347.6380000001,
      "d": 1046.1941874999902,
      "v": 91
    },
    {
      "midi": 55,
      "hit": false,
      "t": 134347.6380000001,
      "d": 1103.9386718749884,
      "v": 98
    },
    {
      "midi": 67,
      "hit": false,
      "t": 134347.6380000001,
      "d": 1124.3190781250014,
      "v": 95
    },
    {
      "midi": 59,
      "hit": false,
      "t": 134347.6380000001,
      "d": 1161.6831562500156,
      "v": 91
    },
    {
      "midi": 62,
      "hit": false,
      "t": 134347.6380000001,
      "d": 1165.0798906250275,
      "v": 82
    },
    {
      "midi": 57,
      "hit": false,
      "t": 135651.9840000001,
      "d": 1837.633296874992,
      "v": 120
    },
    {
      "midi": 62,
      "hit": false,
      "t": 135651.9840000001,
      "d": 1881.790843750001,
      "v": 104
    },
    {
      "midi": 65,
      "hit": false,
      "t": 135651.9840000001,
      "d": 1881.790843750001,
      "v": 98
    },
    {
      "midi": 50,
      "hit": false,
      "t": 135651.9840000001,
      "d": 2489.806296875002,
      "v": 98
    },
    {
      "midi": 57,
      "hit": false,
      "t": 137608.5030000001,
      "d": 434.7820000000065,
      "v": 114
    },
    {
      "midi": 65,
      "hit": false,
      "t": 137608.5030000001,
      "d": 489.1297499999928,
      "v": 85
    },
    {
      "midi": 62,
      "hit": false,
      "t": 137608.5030000001,
      "d": 506.11342187499395,
      "v": 104
    },
    {
      "midi": 45,
      "hit": false,
      "t": 138260.67600000012,
      "d": 852.5803281250119,
      "v": 109
    },
    {
      "midi": 57,
      "hit": false,
      "t": 138260.67600000012,
      "d": 1199.0472343750007,
      "v": 109
    },
    {
      "midi": 64,
      "hit": false,
      "t": 138260.67600000012,
      "d": 1239.8080468749977,
      "v": 98
    },
    {
      "midi": 60,
      "hit": false,
      "t": 138260.67600000012,
      "d": 1246.6015156249923,
      "v": 104
    },
    {
      "midi": 45,
      "hit": false,
      "t": 139238.93550000014,
      "d": 315.89629687496927,
      "v": 114
    },
    {
      "midi": 55,
      "hit": false,
      "t": 139565.0220000001,
      "d": 1148.0962187499972,
      "v": 104
    },
    {
      "midi": 60,
      "hit": false,
      "t": 139565.0220000001,
      "d": 1158.2864218750037,
      "v": 104
    },
    {
      "midi": 64,
      "hit": false,
      "t": 139565.0220000001,
      "d": 1185.4602968750114,
      "v": 74
    },
    {
      "midi": 43,
      "hit": false,
      "t": 139565.0220000001,
      "d": 1209.2374375000072,
      "v": 120
    },
    {
      "midi": 57,
      "hit": false,
      "t": 140869.36800000013,
      "d": 859.3737968750065,
      "v": 98
    },
    {
      "midi": 60,
      "hit": false,
      "t": 140869.36800000013,
      "d": 869.564000000013,
      "v": 95
    },
    {
      "midi": 65,
      "hit": false,
      "t": 140869.36800000013,
      "d": 879.7542031250196,
      "v": 95
    },
    {
      "midi": 41,
      "hit": false,
      "t": 140869.36800000013,
      "d": 906.9280781250272,
      "v": 120
    },
    {
      "midi": 60,
      "hit": false,
      "t": 141847.62750000015,
      "d": 614.8089218749956,
      "v": 104
    },
    {
      "midi": 55,
      "hit": false,
      "t": 141847.62750000015,
      "d": 930.705218750023,
      "v": 91
    },
    {
      "midi": 40,
      "hit": false,
      "t": 141847.62750000015,
      "d": 1127.7158125000133,
      "v": 120
    },
    {
      "midi": 67,
      "hit": false,
      "t": 141847.62750000015,
      "d": 1294.155796875013,
      "v": 109
    },
    {
      "midi": 64,
      "hit": false,
      "t": 142499.80050000016,
      "d": 954.4823593749898,
      "v": 95
    },
    {
      "midi": 60,
      "hit": false,
      "t": 142825.88700000016,
      "d": 434.7820000000065,
      "v": 120
    },
    {
      "midi": 55,
      "hit": false,
      "t": 143151.97350000017,
      "d": 197.01059374999022,
      "v": 104
    },
    {
      "midi": 50,
      "hit": false,
      "t": 143478.06000000014,
      "d": 981.6562343749974,
      "v": 114
    },
    {
      "midi": 60,
      "hit": false,
      "t": 143478.06000000014,
      "d": 2387.904265624995,
      "v": 85
    },
    {
      "midi": 57,
      "hit": false,
      "t": 143478.06000000014,
      "d": 2394.6977343749895,
      "v": 109
    },
    {
      "midi": 38,
      "hit": false,
      "t": 144456.31950000013,
      "d": 3.3967343750118744,
      "v": 109
    },
    {
      "midi": 38,
      "hit": false,
      "t": 144782.40600000013,
      "d": 1131.112546874996,
      "v": 120
    },
    {
      "midi": 57,
      "hit": false,
      "t": 146086.75200000012,
      "d": 546.8742343749909,
      "v": 98
    },
    {
      "midi": 60,
      "hit": false,
      "t": 146086.75200000012,
      "d": 557.0644374999974,
      "v": 104
    },
    {
      "midi": 65,
      "hit": false,
      "t": 146086.75200000012,
      "d": 570.6513749999867,
      "v": 104
    },
    {
      "midi": 43,
      "hit": false,
      "t": 146086.75200000012,
      "d": 1239.8080468749977,
      "v": 120
    },
    {
      "midi": 55,
      "hit": false,
      "t": 146738.9250000001,
      "d": 74.7281562499993,
      "v": 109
    },
    {
      "midi": 59,
      "hit": false,
      "t": 146738.9250000001,
      "d": 78.12489062501118,
      "v": 114
    },
    {
      "midi": 57,
      "hit": false,
      "t": 147065.0115000001,
      "d": 271.7387500000186,
      "v": 114
    },
    {
      "midi": 60,
      "hit": false,
      "t": 147065.0115000001,
      "d": 275.1354843750305,
      "v": 114
    },
    {
      "midi": 55,
      "hit": false,
      "t": 147717.18450000015,
      "d": 631.7925937499967,
      "v": 109
    },
    {
      "midi": 47,
      "hit": false,
      "t": 147717.18450000015,
      "d": 638.5860624999914,
      "v": 120
    },
    {
      "midi": 59,
      "hit": false,
      "t": 147717.18450000015,
      "d": 655.5697343749925,
      "v": 120
    },
    {
      "midi": 62,
      "hit": false,
      "t": 147717.18450000015,
      "d": 662.3632031249872,
      "v": 109
    },
    {
      "midi": 65,
      "hit": false,
      "t": 152282.39550000013,
      "d": 1606.6553593749704,
      "v": 80
    },
    {
      "midi": 69,
      "hit": false,
      "t": 153260.65500000012,
      "d": 563.8579062499921,
      "v": 114
    },
    {
      "midi": 72,
      "hit": false,
      "t": 153586.74150000012,
      "d": 302.30935937498,
      "v": 98
    },
    {
      "midi": 64,
      "hit": false,
      "t": 153912.8280000001,
      "d": 991.846437500004,
      "v": 68
    },
    {
      "midi": 67,
      "hit": false,
      "t": 153912.8280000001,
      "d": 1002.0366406250105,
      "v": 109
    },
    {
      "midi": 60,
      "hit": false,
      "t": 153912.8280000001,
      "d": 1005.4333750000224,
      "v": 78
    },
    {
      "midi": 72,
      "hit": false,
      "t": 153912.8280000001,
      "d": 1005.4333750000224,
      "v": 95
    },
    {
      "midi": 79,
      "hit": false,
      "t": 158151.95250000013,
      "d": 394.02118750000955,
      "v": 114
    },
    {
      "midi": 67,
      "hit": false,
      "t": 158478.03900000014,
      "d": 682.7436093750293,
      "v": 114
    },
    {
      "midi": 79,
      "hit": false,
      "t": 158804.12550000014,
      "d": 353.2603750000126,
      "v": 124
    },
    {
      "midi": 57,
      "hit": false,
      "t": 159130.21200000015,
      "d": 961.2758281250135,
      "v": 76
    },
    {
      "midi": 72,
      "hit": false,
      "t": 159130.21200000015,
      "d": 1032.607250000001,
      "v": 109
    },
    {
      "midi": 76,
      "hit": false,
      "t": 159130.21200000015,
      "d": 1032.607250000001,
      "v": 104
    },
    {
      "midi": 65,
      "hit": false,
      "t": 162064.99050000016,
      "d": 275.1354843750014,
      "v": 109
    },
    {
      "midi": 72,
      "hit": false,
      "t": 162391.07700000016,
      "d": 247.9616093749937,
      "v": 120
    },
    {
      "midi": 69,
      "hit": false,
      "t": 162391.07700000016,
      "d": 271.7387499999895,
      "v": 120
    },
    {
      "midi": 60,
      "hit": false,
      "t": 162717.16350000014,
      "d": 1273.775390625,
      "v": 76
    },
    {
      "midi": 64,
      "hit": false,
      "t": 162717.16350000014,
      "d": 1345.1068124999874,
      "v": 78
    },
    {
      "midi": 67,
      "hit": false,
      "t": 162717.16350000014,
      "d": 1593.0684218749811,
      "v": 114
    },
    {
      "midi": 72,
      "hit": false,
      "t": 162717.16350000014,
      "d": 1620.2422968749888,
      "v": 109
    },
    {
      "midi": 57,
      "hit": false,
      "t": 164347.59600000014,
      "d": 2907.604625000007,
      "v": 104
    },
    {
      "midi": 62,
      "hit": false,
      "t": 164673.68250000014,
      "d": 2550.947515625012,
      "v": 95
    },
    {
      "midi": 65,
      "hit": false,
      "t": 164999.76900000015,
      "d": 2207.877343750006,
      "v": 109
    },
    {
      "midi": 69,
      "hit": false,
      "t": 165325.85550000015,
      "d": 1905.5679843749967,
      "v": 109
    },
    {
      "midi": 72,
      "hit": false,
      "t": 165325.85550000015,
      "d": 1922.551656249998,
      "v": 114
    },
    {
      "midi": 67,
      "hit": false,
      "t": 167282.37450000015,
      "d": 512.9068906249886,
      "v": 104
    },
    {
      "midi": 71,
      "hit": false,
      "t": 167282.37450000015,
      "d": 523.0970937499951,
      "v": 104
    },
    {
      "midi": 72,
      "hit": false,
      "t": 167934.54750000013,
      "d": 570.6513749999867,
      "v": 120
    },
    {
      "midi": 65,
      "hit": false,
      "t": 167934.54750000013,
      "d": 614.8089218749956,
      "v": 114
    },
    {
      "midi": 62,
      "hit": false,
      "t": 168586.72050000014,
      "d": 631.7925937499967,
      "v": 88
    },
    {
      "midi": 59,
      "hit": false,
      "t": 168586.72050000014,
      "d": 638.5860624999914,
      "v": 91
    },
    {
      "midi": 67,
      "hit": false,
      "t": 168586.72050000014,
      "d": 648.7762656249979,
      "v": 120
    },
    {
      "midi": 74,
      "hit": false,
      "t": 168586.72050000014,
      "d": 665.7599374999991,
      "v": 114
    },
    {
      "midi": 67,
      "hit": false,
      "t": 169564.98000000013,
      "d": 1093.748468750011,
      "v": 120
    },
    {
      "midi": 79,
      "hit": false,
      "t": 169564.98000000013,
      "d": 1110.732140625012,
      "v": 104
    },
    {
      "midi": 72,
      "hit": false,
      "t": 169564.98000000013,
      "d": 1131.1125468750251,
      "v": 109
    },
    {
      "midi": 76,
      "hit": false,
      "t": 169564.98000000013,
      "d": 1137.9060156250198,
      "v": 91
    },
    {
      "midi": 64,
      "hit": false,
      "t": 169564.98000000013,
      "d": 1141.3027500000317,
      "v": 104
    },
    {
      "midi": 60,
      "hit": false,
      "t": 169564.98000000013,
      "d": 1171.8733593750221,
      "v": 114
    },
    {
      "midi": 59,
      "hit": false,
      "t": 170869.32600000015,
      "d": 849.18359375,
      "v": 95
    },
    {
      "midi": 62,
      "hit": false,
      "t": 171195.41250000015,
      "d": 482.33628124999814,
      "v": 95
    },
    {
      "midi": 67,
      "hit": false,
      "t": 171521.49900000016,
      "d": 336.2767031249823,
      "v": 109
    },
    {
      "midi": 74,
      "hit": false,
      "t": 171521.49900000016,
      "d": 339.6734374999942,
      "v": 109
    },
    {
      "midi": 57,
      "hit": false,
      "t": 172499.75850000014,
      "d": 2194.2904062500165,
      "v": 109
    },
    {
      "midi": 62,
      "hit": false,
      "t": 172825.84500000015,
      "d": 1878.3941093750182,
      "v": 85
    },
    {
      "midi": 65,
      "hit": false,
      "t": 173151.93150000015,
      "d": 1531.9272031250002,
      "v": 85
    },
    {
      "midi": 77,
      "hit": false,
      "t": 173151.93150000015,
      "d": 1569.2912812500144,
      "v": 98
    },
    {
      "midi": 72,
      "hit": false,
      "t": 173151.93150000015,
      "d": 1606.6553593750286,
      "v": 95
    },
    {
      "midi": 60,
      "hit": false,
      "t": 174782.36400000018,
      "d": 1219.4276406250137,
      "v": 109
    },
    {
      "midi": 64,
      "hit": false,
      "t": 175108.45050000018,
      "d": 906.9280781249981,
      "v": 91
    },
    {
      "midi": 67,
      "hit": false,
      "t": 175434.5370000002,
      "d": 563.8579062499921,
      "v": 95
    },
    {
      "midi": 72,
      "hit": false,
      "t": 175434.5370000002,
      "d": 604.6187187499891,
      "v": 98
    },
    {
      "midi": 76,
      "hit": false,
      "t": 175434.5370000002,
      "d": 618.2056562499783,
      "v": 104
    },
    {
      "midi": 59,
      "hit": false,
      "t": 176086.71000000017,
      "d": 1012.226843750017,
      "v": 98
    },
    {
      "midi": 62,
      "hit": false,
      "t": 176412.79650000017,
      "d": 686.1403437500121,
      "v": 91
    },
    {
      "midi": 79,
      "hit": false,
      "t": 176738.88300000018,
      "d": 370.24404687501374,
      "v": 95
    },
    {
      "midi": 67,
      "hit": false,
      "t": 176738.88300000018,
      "d": 373.6407812500256,
      "v": 95
    },
    {
      "midi": 74,
      "hit": false,
      "t": 176738.88300000018,
      "d": 377.0375156250375,
      "v": 98
    },
    {
      "midi": 57,
      "hit": false,
      "t": 177717.14250000022,
      "d": 1841.030031250004,
      "v": 104
    },
    {
      "midi": 60,
      "hit": false,
      "t": 178043.22900000022,
      "d": 1528.5304687499884,
      "v": 104
    },
    {
      "midi": 65,
      "hit": false,
      "t": 178369.31550000023,
      "d": 1542.1174062499776,
      "v": 95
    },
    {
      "midi": 77,
      "hit": false,
      "t": 178369.31550000023,
      "d": 1620.2422968749888,
      "v": 104
    },
    {
      "midi": 72,
      "hit": false,
      "t": 178369.31550000023,
      "d": 1633.8292343750072,
      "v": 98
    },
    {
      "midi": 57,
      "hit": false,
      "t": 179999.74800000023,
      "d": 774.4554375000007,
      "v": 109
    },
    {
      "midi": 64,
      "hit": false,
      "t": 180325.83450000023,
      "d": 455.16240624999045,
      "v": 104
    },
    {
      "midi": 76,
      "hit": false,
      "t": 180651.92100000023,
      "d": 288.7224218749907,
      "v": 98
    },
    {
      "midi": 69,
      "hit": false,
      "t": 180651.92100000023,
      "d": 295.51589062498533,
      "v": 98
    },
    {
      "midi": 72,
      "hit": false,
      "t": 180651.92100000023,
      "d": 298.9126249999972,
      "v": 104
    },
    {
      "midi": 55,
      "hit": false,
      "t": 181630.18050000022,
      "d": 709.9174843750079,
      "v": 98
    },
    {
      "midi": 64,
      "hit": false,
      "t": 181956.26700000023,
      "d": 326.0865000000049,
      "v": 98
    },
    {
      "midi": 67,
      "hit": false,
      "t": 181956.26700000023,
      "d": 366.84731250000186,
      "v": 104
    },
    {
      "midi": 72,
      "hit": false,
      "t": 181956.26700000023,
      "d": 380.43424999999115,
      "v": 98
    },
    {
      "midi": 76,
      "hit": false,
      "t": 181956.26700000023,
      "d": 383.830984375003,
      "v": 104
    },
    {
      "midi": 65,
      "hit": false,
      "t": 182934.52650000024,
      "d": 427.9885312500119,
      "v": 104
    },
    {
      "midi": 60,
      "hit": false,
      "t": 182934.52650000024,
      "d": 431.38526562502375,
      "v": 98
    },
    {
      "midi": 77,
      "hit": false,
      "t": 183260.61300000024,
      "d": 224.184468750027,
      "v": 114
    },
    {
      "midi": 69,
      "hit": false,
      "t": 183260.61300000024,
      "d": 237.7714062500163,
      "v": 104
    },
    {
      "midi": 72,
      "hit": false,
      "t": 183260.61300000024,
      "d": 237.7714062500163,
      "v": 109
    },
    {
      "midi": 67,
      "hit": false,
      "t": 183586.69950000025,
      "d": 512.9068906249886,
      "v": 88
    },
    {
      "midi": 72,
      "hit": false,
      "t": 183586.69950000025,
      "d": 529.8905624999898,
      "v": 95
    },
    {
      "midi": 79,
      "hit": false,
      "t": 183586.69950000025,
      "d": 533.2872968750016,
      "v": 91
    },
    {
      "midi": 60,
      "hit": false,
      "t": 183586.69950000025,
      "d": 1294.155796875013,
      "v": 91
    },
    {
      "midi": 64,
      "hit": false,
      "t": 183586.69950000025,
      "d": 1297.552531250025,
      "v": 80
    },
    {
      "midi": 67,
      "hit": false,
      "t": 184238.87250000026,
      "d": 947.6888906250242,
      "v": 82
    },
    {
      "midi": 76,
      "hit": false,
      "t": 184238.87250000026,
      "d": 968.0692968750373,
      "v": 88
    },
    {
      "midi": 72,
      "hit": false,
      "t": 184238.87250000026,
      "d": 985.0529687500384,
      "v": 95
    },
    {
      "midi": 57,
      "hit": false,
      "t": 185217.1320000003,
      "d": 2289.398968750029,
      "v": 109
    },
    {
      "midi": 62,
      "hit": false,
      "t": 185543.2185000003,
      "d": 1976.8994062500133,
      "v": 98
    },
    {
      "midi": 67,
      "hit": false,
      "t": 185869.3050000003,
      "d": 1728.9377968750196,
      "v": 114
    },
    {
      "midi": 69,
      "hit": false,
      "t": 186195.39150000032,
      "d": 346.4669062500179,
      "v": 120
    },
    {
      "midi": 72,
      "hit": false,
      "t": 186521.47800000032,
      "d": 377.0375156250084,
      "v": 114
    },
    {
      "midi": 74,
      "hit": false,
      "t": 186847.56450000033,
      "d": 652.1730000000098,
      "v": 114
    },
    {
      "midi": 69,
      "hit": false,
      "t": 187825.82400000034,
      "d": 414.4015937499935,
      "v": 109
    },
    {
      "midi": 65,
      "hit": false,
      "t": 187825.82400000034,
      "d": 421.1950624999881,
      "v": 109
    },
    {
      "midi": 71,
      "hit": false,
      "t": 188477.99700000032,
      "d": 227.58120312500978,
      "v": 104
    },
    {
      "midi": 67,
      "hit": false,
      "t": 188477.99700000032,
      "d": 237.7714062500163,
      "v": 109
    },
    {
      "midi": 72,
      "hit": false,
      "t": 188804.08350000033,
      "d": 516.3036250000005,
      "v": 104
    },
    {
      "midi": 69,
      "hit": false,
      "t": 188804.08350000033,
      "d": 519.7003593750123,
      "v": 104
    },
    {
      "midi": 62,
      "hit": false,
      "t": 189456.25650000034,
      "d": 441.57546875000116,
      "v": 78
    },
    {
      "midi": 59,
      "hit": false,
      "t": 189456.25650000034,
      "d": 448.3689374999958,
      "v": 95
    },
    {
      "midi": 67,
      "hit": false,
      "t": 189456.25650000034,
      "d": 461.9558749999851,
      "v": 114
    },
    {
      "midi": 74,
      "hit": false,
      "t": 189456.25650000034,
      "d": 478.93954687498626,
      "v": 120
    },
    {
      "midi": 86,
      "hit": false,
      "t": 190434.51600000032,
      "d": 920.5150156249874,
      "v": 88
    },
    {
      "midi": 58,
      "hit": false,
      "t": 190434.51600000032,
      "d": 934.1019531249767,
      "v": 91
    },
    {
      "midi": 70,
      "hit": false,
      "t": 190434.51600000032,
      "d": 937.4986874999886,
      "v": 88
    },
    {
      "midi": 77,
      "hit": false,
      "t": 190434.51600000032,
      "d": 944.2921562499832,
      "v": 95
    },
    {
      "midi": 74,
      "hit": false,
      "t": 190434.51600000032,
      "d": 947.6888906249951,
      "v": 98
    },
    {
      "midi": 65,
      "hit": false,
      "t": 190434.51600000032,
      "d": 954.4823593749898,
      "v": 80
    },
    {
      "midi": 82,
      "hit": false,
      "t": 190434.51600000032,
      "d": 954.4823593749898,
      "v": 80
    },
    {
      "midi": 58,
      "hit": false,
      "t": 191412.7755000003,
      "d": 74.7281562499993,
      "v": 73
    },
    {
      "midi": 77,
      "hit": false,
      "t": 191412.7755000003,
      "d": 74.7281562499993,
      "v": 63
    },
    {
      "midi": 74,
      "hit": false,
      "t": 191412.7755000003,
      "d": 81.52162499999395,
      "v": 76
    },
    {
      "midi": 65,
      "hit": false,
      "t": 191412.7755000003,
      "d": 84.91835937500582,
      "v": 63
    },
    {
      "midi": 70,
      "hit": false,
      "t": 191412.7755000003,
      "d": 88.3150937500177,
      "v": 74
    },
    {
      "midi": 70,
      "hit": false,
      "t": 191738.8620000003,
      "d": 1015.6235781249998,
      "v": 80
    },
    {
      "midi": 65,
      "hit": false,
      "t": 191738.8620000003,
      "d": 1032.607250000001,
      "v": 70
    },
    {
      "midi": 58,
      "hit": false,
      "t": 191738.8620000003,
      "d": 1046.1941874999902,
      "v": 78
    },
    {
      "midi": 77,
      "hit": false,
      "t": 191738.8620000003,
      "d": 1202.4439687499835,
      "v": 82
    },
    {
      "midi": 74,
      "hit": false,
      "t": 191738.8620000003,
      "d": 1205.8407031249953,
      "v": 78
    },
    {
      "midi": 57,
      "hit": false,
      "t": 193369.2945000003,
      "d": 1956.5190000000293,
      "v": 109
    },
    {
      "midi": 65,
      "hit": false,
      "t": 193695.3810000003,
      "d": 1630.4325000000244,
      "v": 95
    },
    {
      "midi": 69,
      "hit": false,
      "t": 194021.46750000032,
      "d": 1341.7100781250338,
      "v": 114
    },
    {
      "midi": 84,
      "hit": false,
      "t": 194347.55400000032,
      "d": 951.085625000007,
      "v": 91
    },
    {
      "midi": 77,
      "hit": false,
      "t": 194347.55400000032,
      "d": 954.4823593750189,
      "v": 82
    },
    {
      "midi": 81,
      "hit": false,
      "t": 194347.55400000032,
      "d": 968.0692968750081,
      "v": 78
    },
    {
      "midi": 72,
      "hit": false,
      "t": 194347.55400000032,
      "d": 971.46603125002,
      "v": 74
    },
    {
      "midi": 64,
      "hit": false,
      "t": 195651.90000000034,
      "d": 1562.4978124999907,
      "v": 82
    },
    {
      "midi": 67,
      "hit": false,
      "t": 195651.90000000034,
      "d": 1593.0684218749811,
      "v": 82
    },
    {
      "midi": 72,
      "hit": false,
      "t": 195651.90000000034,
      "d": 1650.8129062500084,
      "v": 95
    },
    {
      "midi": 84,
      "hit": false,
      "t": 195651.90000000034,
      "d": 1657.606375000003,
      "v": 98
    },
    {
      "midi": 79,
      "hit": false,
      "t": 195651.90000000034,
      "d": 1698.3671875,
      "v": 91
    },
    {
      "midi": 64,
      "hit": false,
      "t": 197282.33250000034,
      "d": 3006.1099218750314,
      "v": 95
    },
    {
      "midi": 67,
      "hit": false,
      "t": 197608.41900000034,
      "d": 550.2709687500028,
      "v": 109
    },
    {
      "midi": 72,
      "hit": false,
      "t": 197934.50550000035,
      "d": 1209.2374375000363,
      "v": 98
    },
    {
      "midi": 76,
      "hit": false,
      "t": 198260.59200000035,
      "d": 842.3901250000054,
      "v": 104
    },
    {
      "midi": 81,
      "hit": false,
      "t": 198260.59200000035,
      "d": 845.7868593750172,
      "v": 109
    },
    {
      "midi": 69,
      "hit": false,
      "t": 198260.59200000035,
      "d": 937.4986875000177,
      "v": 88
    },
    {
      "midi": 74,
      "hit": false,
      "t": 199238.85150000037,
      "d": 309.1028281250037,
      "v": 104
    },
    {
      "midi": 77,
      "hit": false,
      "t": 199238.85150000037,
      "d": 312.4995625000156,
      "v": 95
    },
    {
      "midi": 76,
      "hit": false,
      "t": 199891.02450000038,
      "d": 563.8579062499921,
      "v": 104
    },
    {
      "midi": 72,
      "hit": false,
      "t": 199891.02450000038,
      "d": 570.6513749999867,
      "v": 104
    },
    {
      "midi": 62,
      "hit": false,
      "t": 200869.28400000036,
      "d": 835.5966562500107,
      "v": 91
    },
    {
      "midi": 65,
      "hit": false,
      "t": 201195.37050000037,
      "d": 540.0807656249963,
      "v": 104
    },
    {
      "midi": 69,
      "hit": false,
      "t": 201521.45700000037,
      "d": 438.1787343749893,
      "v": 98
    },
    {
      "midi": 74,
      "hit": false,
      "t": 201521.45700000037,
      "d": 492.52648437497555,
      "v": 98
    },
    {
      "midi": 77,
      "hit": false,
      "t": 201521.45700000037,
      "d": 506.11342187496484,
      "v": 98
    },
    {
      "midi": 60,
      "hit": false,
      "t": 202173.63000000032,
      "d": 893.3411406250088,
      "v": 104
    },
    {
      "midi": 64,
      "hit": false,
      "t": 202499.71650000033,
      "d": 567.254640625004,
      "v": 98
    },
    {
      "midi": 72,
      "hit": false,
      "t": 202825.80300000033,
      "d": 597.8252499999944,
      "v": 95
    },
    {
      "midi": 84,
      "hit": false,
      "t": 202825.80300000033,
      "d": 645.379531249986,
      "v": 98
    },
    {
      "midi": 79,
      "hit": false,
      "t": 202825.80300000033,
      "d": 648.7762656249979,
      "v": 88
    },
    {
      "midi": 58,
      "hit": false,
      "t": 203477.97600000034,
      "d": 1148.0962187499972,
      "v": 104
    },
    {
      "midi": 65,
      "hit": false,
      "t": 203804.06250000035,
      "d": 906.9280781249981,
      "v": 104
    },
    {
      "midi": 86,
      "hit": false,
      "t": 204130.14900000035,
      "d": 512.9068906249886,
      "v": 82
    },
    {
      "midi": 77,
      "hit": false,
      "t": 204130.14900000035,
      "d": 526.4938281249779,
      "v": 91
    },
    {
      "midi": 74,
      "hit": false,
      "t": 204130.14900000035,
      "d": 529.8905624999898,
      "v": 80
    },
    {
      "midi": 82,
      "hit": false,
      "t": 204130.14900000035,
      "d": 529.8905624999898,
      "v": 80
    },
    {
      "midi": 77,
      "hit": false,
      "t": 204782.32200000033,
      "d": 546.8742343749909,
      "v": 88
    },
    {
      "midi": 84,
      "hit": false,
      "t": 204782.32200000033,
      "d": 550.2709687500028,
      "v": 91
    },
    {
      "midi": 65,
      "hit": false,
      "t": 204782.32200000033,
      "d": 1246.6015156250214,
      "v": 54
    },
    {
      "midi": 57,
      "hit": false,
      "t": 204782.32200000033,
      "d": 1304.3460000000196,
      "v": 88
    },
    {
      "midi": 72,
      "hit": false,
      "t": 205434.49500000034,
      "d": 591.0317812499998,
      "v": 98
    },
    {
      "midi": 81,
      "hit": false,
      "t": 205434.49500000034,
      "d": 648.7762656249979,
      "v": 104
    },
    {
      "midi": 71,
      "hit": false,
      "t": 206086.66800000035,
      "d": 1008.8301093750051,
      "v": 104
    },
    {
      "midi": 79,
      "hit": false,
      "t": 206086.66800000035,
      "d": 1032.607250000001,
      "v": 91
    },
    {
      "midi": 67,
      "hit": false,
      "t": 206086.66800000035,
      "d": 1256.7917187499988,
      "v": 88
    },
    {
      "midi": 62,
      "hit": false,
      "t": 206086.66800000035,
      "d": 4755.428125000006,
      "v": 85
    },
    {
      "midi": 91,
      "hit": false,
      "t": 207717.10050000035,
      "d": 336.2767031250114,
      "v": 104
    },
    {
      "midi": 67,
      "hit": false,
      "t": 207717.10050000035,
      "d": 1188.8570312500233,
      "v": 82
    },
    {
      "midi": 79,
      "hit": false,
      "t": 208043.18700000035,
      "d": 1036.0039843750128,
      "v": 104
    },
    {
      "midi": 91,
      "hit": false,
      "t": 208369.27350000036,
      "d": 553.6677031250147,
      "v": 98
    },
    {
      "midi": 91,
      "hit": false,
      "t": 209021.44650000037,
      "d": 523.0970937499951,
      "v": 114
    },
    {
      "midi": 67,
      "hit": false,
      "t": 209021.44650000037,
      "d": 1810.4594218749844,
      "v": 82
    },
    {
      "midi": 79,
      "hit": false,
      "t": 209347.53300000037,
      "d": 1463.9925156249665,
      "v": 91
    },
    {
      "midi": 91,
      "hit": false,
      "t": 209673.61950000035,
      "d": 1175.270093750005,
      "v": 109
    },
    {
      "midi": 67,
      "hit": false,
      "t": 232173.58800000037,
      "d": 1093.748468750011,
      "v": 120
    },
    {
      "midi": 79,
      "hit": false,
      "t": 232173.58800000037,
      "d": 1110.732140625012,
      "v": 104
    },
    {
      "midi": 72,
      "hit": false,
      "t": 232173.58800000037,
      "d": 1131.1125468750251,
      "v": 109
    },
    {
      "midi": 76,
      "hit": false,
      "t": 232173.58800000037,
      "d": 1137.9060156250198,
      "v": 91
    },
    {
      "midi": 64,
      "hit": false,
      "t": 232173.58800000037,
      "d": 1141.3027500000317,
      "v": 104
    },
    {
      "midi": 60,
      "hit": false,
      "t": 232173.58800000037,
      "d": 1171.8733593750221,
      "v": 114
    },
    {
      "midi": 59,
      "hit": false,
      "t": 233477.9340000004,
      "d": 849.18359375,
      "v": 95
    },
    {
      "midi": 62,
      "hit": false,
      "t": 233804.0205000004,
      "d": 482.33628124999814,
      "v": 95
    },
    {
      "midi": 67,
      "hit": false,
      "t": 234130.1070000004,
      "d": 336.2767031249823,
      "v": 109
    },
    {
      "midi": 74,
      "hit": false,
      "t": 234130.1070000004,
      "d": 339.6734374999942,
      "v": 109
    },
    {
      "midi": 57,
      "hit": false,
      "t": 235108.36650000038,
      "d": 2194.2904062500165,
      "v": 109
    },
    {
      "midi": 62,
      "hit": false,
      "t": 235434.4530000004,
      "d": 1878.3941093750182,
      "v": 85
    },
    {
      "midi": 65,
      "hit": false,
      "t": 235760.5395000004,
      "d": 1531.9272031250002,
      "v": 85
    },
    {
      "midi": 77,
      "hit": false,
      "t": 235760.5395000004,
      "d": 1569.2912812500144,
      "v": 98
    },
    {
      "midi": 72,
      "hit": false,
      "t": 235760.5395000004,
      "d": 1606.6553593750286,
      "v": 95
    },
    {
      "midi": 60,
      "hit": false,
      "t": 237390.97200000042,
      "d": 1219.4276406250137,
      "v": 109
    },
    {
      "midi": 64,
      "hit": false,
      "t": 237717.05850000042,
      "d": 906.9280781249981,
      "v": 91
    },
    {
      "midi": 67,
      "hit": false,
      "t": 238043.14500000043,
      "d": 563.8579062499921,
      "v": 95
    },
    {
      "midi": 72,
      "hit": false,
      "t": 238043.14500000043,
      "d": 604.6187187499891,
      "v": 98
    },
    {
      "midi": 76,
      "hit": false,
      "t": 238043.14500000043,
      "d": 618.2056562499783,
      "v": 104
    },
    {
      "midi": 59,
      "hit": false,
      "t": 238695.3180000004,
      "d": 1012.226843750017,
      "v": 98
    },
    {
      "midi": 62,
      "hit": false,
      "t": 239021.4045000004,
      "d": 686.1403437500121,
      "v": 91
    },
    {
      "midi": 79,
      "hit": false,
      "t": 239347.49100000042,
      "d": 370.24404687501374,
      "v": 95
    },
    {
      "midi": 67,
      "hit": false,
      "t": 239347.49100000042,
      "d": 373.6407812500256,
      "v": 95
    },
    {
      "midi": 74,
      "hit": false,
      "t": 239347.49100000042,
      "d": 377.0375156250375,
      "v": 98
    },
    {
      "midi": 57,
      "hit": false,
      "t": 240325.75050000046,
      "d": 1841.030031250004,
      "v": 104
    },
    {
      "midi": 60,
      "hit": false,
      "t": 240651.83700000047,
      "d": 1528.5304687499884,
      "v": 104
    },
    {
      "midi": 65,
      "hit": false,
      "t": 240977.92350000047,
      "d": 1542.1174062499776,
      "v": 95
    },
    {
      "midi": 77,
      "hit": false,
      "t": 240977.92350000047,
      "d": 1620.2422968749888,
      "v": 104
    },
    {
      "midi": 72,
      "hit": false,
      "t": 240977.92350000047,
      "d": 1633.8292343750072,
      "v": 98
    },
    {
      "midi": 57,
      "hit": false,
      "t": 242608.35600000047,
      "d": 774.4554375000007,
      "v": 109
    },
    {
      "midi": 64,
      "hit": false,
      "t": 242934.44250000047,
      "d": 455.16240624999045,
      "v": 104
    },
    {
      "midi": 76,
      "hit": false,
      "t": 243260.52900000048,
      "d": 288.7224218749907,
      "v": 98
    },
    {
      "midi": 69,
      "hit": false,
      "t": 243260.52900000048,
      "d": 295.51589062498533,
      "v": 98
    },
    {
      "midi": 72,
      "hit": false,
      "t": 243260.52900000048,
      "d": 298.9126249999972,
      "v": 104
    },
    {
      "midi": 55,
      "hit": false,
      "t": 244238.78850000046,
      "d": 709.9174843750079,
      "v": 98
    },
    {
      "midi": 64,
      "hit": false,
      "t": 244564.87500000047,
      "d": 326.0865000000049,
      "v": 98
    },
    {
      "midi": 67,
      "hit": false,
      "t": 244564.87500000047,
      "d": 366.84731250000186,
      "v": 104
    },
    {
      "midi": 72,
      "hit": false,
      "t": 244564.87500000047,
      "d": 380.43424999999115,
      "v": 98
    },
    {
      "midi": 76,
      "hit": false,
      "t": 244564.87500000047,
      "d": 383.830984375003,
      "v": 104
    },
    {
      "midi": 65,
      "hit": false,
      "t": 245543.13450000048,
      "d": 427.9885312500119,
      "v": 104
    },
    {
      "midi": 60,
      "hit": false,
      "t": 245543.13450000048,
      "d": 431.38526562502375,
      "v": 98
    },
    {
      "midi": 77,
      "hit": false,
      "t": 245869.22100000049,
      "d": 224.184468750027,
      "v": 114
    },
    {
      "midi": 69,
      "hit": false,
      "t": 245869.22100000049,
      "d": 237.7714062500163,
      "v": 104
    },
    {
      "midi": 72,
      "hit": false,
      "t": 245869.22100000049,
      "d": 237.7714062500163,
      "v": 109
    },
    {
      "midi": 67,
      "hit": false,
      "t": 246195.3075000005,
      "d": 512.9068906249886,
      "v": 88
    },
    {
      "midi": 72,
      "hit": false,
      "t": 246195.3075000005,
      "d": 529.8905624999898,
      "v": 95
    },
    {
      "midi": 79,
      "hit": false,
      "t": 246195.3075000005,
      "d": 533.2872968750016,
      "v": 91
    },
    {
      "midi": 60,
      "hit": false,
      "t": 246195.3075000005,
      "d": 1294.155796875013,
      "v": 91
    },
    {
      "midi": 64,
      "hit": false,
      "t": 246195.3075000005,
      "d": 1297.552531250025,
      "v": 80
    },
    {
      "midi": 67,
      "hit": false,
      "t": 246847.4805000005,
      "d": 947.6888906250242,
      "v": 82
    },
    {
      "midi": 76,
      "hit": false,
      "t": 246847.4805000005,
      "d": 968.0692968750373,
      "v": 88
    },
    {
      "midi": 72,
      "hit": false,
      "t": 246847.4805000005,
      "d": 985.0529687500384,
      "v": 95
    },
    {
      "midi": 57,
      "hit": false,
      "t": 247825.74000000054,
      "d": 2289.398968750029,
      "v": 109
    },
    {
      "midi": 62,
      "hit": false,
      "t": 248151.82650000055,
      "d": 1976.8994062500133,
      "v": 98
    },
    {
      "midi": 67,
      "hit": false,
      "t": 248477.91300000055,
      "d": 1728.9377968750196,
      "v": 114
    },
    {
      "midi": 69,
      "hit": false,
      "t": 248803.99950000056,
      "d": 346.4669062500179,
      "v": 120
    },
    {
      "midi": 72,
      "hit": false,
      "t": 249130.08600000056,
      "d": 377.0375156250084,
      "v": 114
    },
    {
      "midi": 74,
      "hit": false,
      "t": 249456.17250000057,
      "d": 652.1730000000098,
      "v": 114
    },
    {
      "midi": 69,
      "hit": false,
      "t": 250434.43200000058,
      "d": 414.4015937499935,
      "v": 109
    },
    {
      "midi": 65,
      "hit": false,
      "t": 250434.43200000058,
      "d": 421.1950624999881,
      "v": 109
    },
    {
      "midi": 71,
      "hit": false,
      "t": 251086.60500000056,
      "d": 227.58120312500978,
      "v": 104
    },
    {
      "midi": 67,
      "hit": false,
      "t": 251086.60500000056,
      "d": 237.7714062500163,
      "v": 109
    },
    {
      "midi": 72,
      "hit": false,
      "t": 251412.69150000057,
      "d": 516.3036250000005,
      "v": 104
    },
    {
      "midi": 69,
      "hit": false,
      "t": 251412.69150000057,
      "d": 519.7003593750123,
      "v": 104
    },
    {
      "midi": 62,
      "hit": false,
      "t": 252064.86450000058,
      "d": 441.57546875000116,
      "v": 78
    },
    {
      "midi": 59,
      "hit": false,
      "t": 252064.86450000058,
      "d": 448.3689374999958,
      "v": 95
    },
    {
      "midi": 67,
      "hit": false,
      "t": 252064.86450000058,
      "d": 461.9558749999851,
      "v": 114
    },
    {
      "midi": 74,
      "hit": false,
      "t": 252064.86450000058,
      "d": 478.93954687498626,
      "v": 120
    },
    {
      "midi": 67,
      "hit": false,
      "t": 253043.12400000056,
      "d": 1093.748468750011,
      "v": 120
    },
    {
      "midi": 79,
      "hit": false,
      "t": 253043.12400000056,
      "d": 1110.732140625012,
      "v": 104
    },
    {
      "midi": 72,
      "hit": false,
      "t": 253043.12400000056,
      "d": 1131.1125468750251,
      "v": 109
    },
    {
      "midi": 76,
      "hit": false,
      "t": 253043.12400000056,
      "d": 1137.9060156250198,
      "v": 91
    },
    {
      "midi": 64,
      "hit": false,
      "t": 253043.12400000056,
      "d": 1141.3027500000317,
      "v": 104
    },
    {
      "midi": 60,
      "hit": false,
      "t": 253043.12400000056,
      "d": 1171.8733593750221,
      "v": 114
    },
    {
      "midi": 59,
      "hit": false,
      "t": 254347.47000000058,
      "d": 849.18359375,
      "v": 95
    },
    {
      "midi": 62,
      "hit": false,
      "t": 254673.5565000006,
      "d": 482.33628124999814,
      "v": 95
    },
    {
      "midi": 67,
      "hit": false,
      "t": 254999.6430000006,
      "d": 336.2767031249823,
      "v": 109
    },
    {
      "midi": 74,
      "hit": false,
      "t": 254999.6430000006,
      "d": 339.6734374999942,
      "v": 109
    },
    {
      "midi": 57,
      "hit": false,
      "t": 255977.90250000058,
      "d": 2194.2904062500165,
      "v": 109
    },
    {
      "midi": 62,
      "hit": false,
      "t": 256303.98900000058,
      "d": 1878.3941093750182,
      "v": 85
    },
    {
      "midi": 65,
      "hit": false,
      "t": 256630.0755000006,
      "d": 1531.9272031250002,
      "v": 85
    },
    {
      "midi": 77,
      "hit": false,
      "t": 256630.0755000006,
      "d": 1569.2912812500144,
      "v": 98
    },
    {
      "midi": 72,
      "hit": false,
      "t": 256630.0755000006,
      "d": 1606.6553593750286,
      "v": 95
    },
    {
      "midi": 60,
      "hit": false,
      "t": 258260.5080000006,
      "d": 1219.4276406250137,
      "v": 109
    },
    {
      "midi": 64,
      "hit": false,
      "t": 258586.59450000062,
      "d": 906.9280781249981,
      "v": 91
    },
    {
      "midi": 67,
      "hit": false,
      "t": 258912.68100000062,
      "d": 563.8579062499921,
      "v": 95
    },
    {
      "midi": 72,
      "hit": false,
      "t": 258912.68100000062,
      "d": 604.6187187499891,
      "v": 98
    },
    {
      "midi": 76,
      "hit": false,
      "t": 258912.68100000062,
      "d": 618.2056562499783,
      "v": 104
    },
    {
      "midi": 59,
      "hit": false,
      "t": 259564.8540000006,
      "d": 1012.226843750017,
      "v": 98
    },
    {
      "midi": 62,
      "hit": false,
      "t": 259890.9405000006,
      "d": 686.1403437500121,
      "v": 91
    },
    {
      "midi": 79,
      "hit": false,
      "t": 260217.0270000006,
      "d": 370.24404687501374,
      "v": 95
    },
    {
      "midi": 67,
      "hit": false,
      "t": 260217.0270000006,
      "d": 373.6407812500256,
      "v": 95
    },
    {
      "midi": 74,
      "hit": false,
      "t": 260217.0270000006,
      "d": 377.0375156250375,
      "v": 98
    },
    {
      "midi": 57,
      "hit": false,
      "t": 261195.28650000066,
      "d": 1841.030031250004,
      "v": 104
    },
    {
      "midi": 60,
      "hit": false,
      "t": 261521.37300000066,
      "d": 1528.5304687499884,
      "v": 104
    },
    {
      "midi": 65,
      "hit": false,
      "t": 261847.45950000067,
      "d": 1542.1174062500068,
      "v": 95
    },
    {
      "midi": 77,
      "hit": false,
      "t": 261847.45950000067,
      "d": 1620.242296875018,
      "v": 104
    },
    {
      "midi": 72,
      "hit": false,
      "t": 261847.45950000067,
      "d": 1633.8292343750072,
      "v": 98
    },
    {
      "midi": 57,
      "hit": false,
      "t": 263477.8920000007,
      "d": 774.4554374999716,
      "v": 109
    },
    {
      "midi": 64,
      "hit": false,
      "t": 263803.97850000067,
      "d": 455.16240625001956,
      "v": 104
    },
    {
      "midi": 76,
      "hit": false,
      "t": 264130.06500000064,
      "d": 288.7224218750489,
      "v": 98
    },
    {
      "midi": 69,
      "hit": false,
      "t": 264130.06500000064,
      "d": 295.51589062507264,
      "v": 98
    },
    {
      "midi": 72,
      "hit": false,
      "t": 264130.06500000064,
      "d": 298.9126250000554,
      "v": 104
    },
    {
      "midi": 55,
      "hit": false,
      "t": 265108.3245000007,
      "d": 709.9174843749497,
      "v": 98
    },
    {
      "midi": 64,
      "hit": false,
      "t": 265434.41100000066,
      "d": 326.0864999999758,
      "v": 98
    },
    {
      "midi": 67,
      "hit": false,
      "t": 265434.41100000066,
      "d": 366.84731250000186,
      "v": 104
    },
    {
      "midi": 72,
      "hit": false,
      "t": 265434.41100000066,
      "d": 380.43424999999115,
      "v": 98
    },
    {
      "midi": 76,
      "hit": false,
      "t": 265434.41100000066,
      "d": 383.8309843749739,
      "v": 104
    },
    {
      "midi": 65,
      "hit": false,
      "t": 266412.67050000065,
      "d": 427.98853124998277,
      "v": 104
    },
    {
      "midi": 60,
      "hit": false,
      "t": 266412.67050000065,
      "d": 431.38526562496554,
      "v": 98
    },
    {
      "midi": 77,
      "hit": false,
      "t": 266738.7570000006,
      "d": 224.1844687499688,
      "v": 114
    },
    {
      "midi": 69,
      "hit": false,
      "t": 266738.7570000006,
      "d": 237.7714062499581,
      "v": 104
    },
    {
      "midi": 72,
      "hit": false,
      "t": 266738.7570000006,
      "d": 237.7714062499581,
      "v": 109
    },
    {
      "midi": 67,
      "hit": false,
      "t": 267064.8435000006,
      "d": 512.9068906250177,
      "v": 88
    },
    {
      "midi": 72,
      "hit": false,
      "t": 267064.8435000006,
      "d": 529.8905624999898,
      "v": 95
    },
    {
      "midi": 79,
      "hit": false,
      "t": 267064.8435000006,
      "d": 533.2872968749725,
      "v": 91
    },
    {
      "midi": 60,
      "hit": false,
      "t": 267064.8435000006,
      "d": 1294.1557968749548,
      "v": 91
    },
    {
      "midi": 64,
      "hit": false,
      "t": 267064.8435000006,
      "d": 1297.5525312499376,
      "v": 80
    },
    {
      "midi": 67,
      "hit": false,
      "t": 267717.01650000055,
      "d": 947.688890624966,
      "v": 82
    },
    {
      "midi": 76,
      "hit": false,
      "t": 267717.01650000055,
      "d": 968.069296874979,
      "v": 88
    },
    {
      "midi": 72,
      "hit": false,
      "t": 267717.01650000055,
      "d": 985.0529687500093,
      "v": 95
    },
    {
      "midi": 57,
      "hit": false,
      "t": 268695.27600000054,
      "d": 2289.3989687499707,
      "v": 109
    },
    {
      "midi": 62,
      "hit": false,
      "t": 269021.36250000057,
      "d": 1976.899406249926,
      "v": 98
    },
    {
      "midi": 67,
      "hit": false,
      "t": 269347.44900000055,
      "d": 1728.9377968749614,
      "v": 114
    },
    {
      "midi": 69,
      "hit": false,
      "t": 269673.5355000005,
      "d": 346.4669062499888,
      "v": 120
    },
    {
      "midi": 72,
      "hit": false,
      "t": 269999.6220000005,
      "d": 377.0375156250084,
      "v": 114
    },
    {
      "midi": 74,
      "hit": false,
      "t": 270325.70850000053,
      "d": 652.1729999999516,
      "v": 114
    },
    {
      "midi": 69,
      "hit": false,
      "t": 271303.9680000005,
      "d": 414.4015937499935,
      "v": 109
    },
    {
      "midi": 65,
      "hit": false,
      "t": 271303.9680000005,
      "d": 421.19506250001723,
      "v": 109
    },
    {
      "midi": 71,
      "hit": false,
      "t": 271956.1410000005,
      "d": 227.58120312500978,
      "v": 104
    },
    {
      "midi": 67,
      "hit": false,
      "t": 271956.1410000005,
      "d": 237.7714062500163,
      "v": 109
    },
    {
      "midi": 72,
      "hit": false,
      "t": 272282.22750000056,
      "d": 516.3036250000005,
      "v": 104
    },
    {
      "midi": 69,
      "hit": false,
      "t": 272282.22750000056,
      "d": 519.7003593749832,
      "v": 104
    },
    {
      "midi": 62,
      "hit": false,
      "t": 272934.4005000006,
      "d": 441.57546874997206,
      "v": 78
    },
    {
      "midi": 59,
      "hit": false,
      "t": 272934.4005000006,
      "d": 448.3689374999958,
      "v": 95
    },
    {
      "midi": 67,
      "hit": false,
      "t": 272934.4005000006,
      "d": 461.9558749999851,
      "v": 114
    },
    {
      "midi": 74,
      "hit": false,
      "t": 272934.4005000006,
      "d": 478.93954687495716,
      "v": 120
    },
    {
      "midi": 79,
      "hit": false,
      "t": 273912.66000000056,
      "d": 574.0481093749986,
      "v": 82
    },
    {
      "midi": 64,
      "hit": false,
      "t": 273912.66000000056,
      "d": 703.1240156249842,
      "v": 68
    },
    {
      "midi": 60,
      "hit": false,
      "t": 273912.66000000056,
      "d": 713.3142187499907,
      "v": 67
    },
    {
      "midi": 67,
      "hit": false,
      "t": 273912.66000000056,
      "d": 2136.5459218749893,
      "v": 85
    },
    {
      "midi": 72,
      "hit": false,
      "t": 274564.83300000057,
      "d": 271.7387499999604,
      "v": 95
    },
    {
      "midi": 76,
      "hit": false,
      "t": 274564.83300000057,
      "d": 397.4179218749632,
      "v": 85
    },
    {
      "midi": 71,
      "hit": false,
      "t": 274890.91950000054,
      "d": 1239.8080468749977,
      "v": 95
    },
    {
      "midi": 59,
      "hit": false,
      "t": 274890.91950000054,
      "d": 1256.7917187499697,
      "v": 71
    },
    {
      "midi": 74,
      "hit": false,
      "t": 274890.91950000054,
      "d": 1260.1884531249525,
      "v": 91
    },
    {
      "midi": 62,
      "hit": false,
      "t": 274890.91950000054,
      "d": 1273.7753906249418,
      "v": 66
    },
    {
      "midi": 60,
      "hit": false,
      "t": 276521.3520000005,
      "d": 2296.1924374999944,
      "v": 80
    },
    {
      "midi": 72,
      "hit": false,
      "t": 276521.3520000005,
      "d": 2398.0944687500014,
      "v": 104
    },
    {
      "midi": 79,
      "hit": false,
      "t": 277173.5250000005,
      "d": 394.02118749998044,
      "v": 120
    },
    {
      "midi": 81,
      "hit": false,
      "t": 277499.61150000046,
      "d": 862.7705312499893,
      "v": 104
    },
    {
      "midi": 84,
      "hit": false,
      "t": 278151.7845000005,
      "d": 244.56487499998184,
      "v": 95
    },
    {
      "midi": 65,
      "hit": false,
      "t": 278477.87100000045,
      "d": 411.0048593750107,
      "v": 66
    },
    {
      "midi": 86,
      "hit": false,
      "t": 278477.87100000045,
      "d": 431.38526562502375,
      "v": 98
    },
    {
      "midi": 69,
      "hit": false,
      "t": 278477.87100000045,
      "d": 451.7656718750368,
      "v": 71
    },
    {
      "midi": 81,
      "hit": false,
      "t": 278477.87100000045,
      "d": 451.7656718750368,
      "v": 73
    },
    {
      "midi": 84,
      "hit": false,
      "t": 279130.04400000046,
      "d": 1029.2105156250182,
      "v": 85
    },
    {
      "midi": 72,
      "hit": false,
      "t": 279130.04400000046,
      "d": 1032.607250000001,
      "v": 78
    },
    {
      "midi": 79,
      "hit": false,
      "t": 279130.04400000046,
      "d": 1042.7974531250075,
      "v": 76
    },
    {
      "midi": 67,
      "hit": false,
      "t": 279130.04400000046,
      "d": 1049.5909218750312,
      "v": 78
    },
    {
      "midi": 64,
      "hit": false,
      "t": 279130.04400000046,
      "d": 1052.987656250014,
      "v": 74
    },
    {
      "midi": 91,
      "hit": false,
      "t": 283043.08200000046,
      "d": 322.689765624993,
      "v": 95
    },
    {
      "midi": 65,
      "hit": false,
      "t": 283043.08200000046,
      "d": 910.3248124999809,
      "v": 64
    },
    {
      "midi": 67,
      "hit": false,
      "t": 283043.08200000046,
      "d": 910.3248124999809,
      "v": 66
    },
    {
      "midi": 62,
      "hit": false,
      "t": 283043.08200000046,
      "d": 947.688890624966,
      "v": 64
    },
    {
      "midi": 79,
      "hit": false,
      "t": 283369.16850000044,
      "d": 608.0154531250009,
      "v": 95
    },
    {
      "midi": 69,
      "hit": false,
      "t": 284347.4280000004,
      "d": 621.6023906249902,
      "v": 71
    },
    {
      "midi": 57,
      "hit": false,
      "t": 284347.4280000004,
      "d": 631.7925937499967,
      "v": 73
    },
    {
      "midi": 64,
      "hit": false,
      "t": 284347.4280000004,
      "d": 645.379531249986,
      "v": 65
    },
    {
      "midi": 60,
      "hit": false,
      "t": 284347.4280000004,
      "d": 665.7599374999991,
      "v": 67
    },
    {
      "midi": 72,
      "hit": false,
      "t": 284347.4280000004,
      "d": 835.5966562500107,
      "v": 98
    },
    {
      "midi": 76,
      "hit": false,
      "t": 284673.5145000004,
      "d": 577.4448437500396,
      "v": 95
    },
    {
      "midi": 84,
      "hit": false,
      "t": 284999.60100000043,
      "d": 241.16814062499907,
      "v": 104
    },
    {
      "midi": 83,
      "hit": false,
      "t": 285325.68750000047,
      "d": 1219.4276406249846,
      "v": 95
    },
    {
      "midi": 67,
      "hit": false,
      "t": 285325.68750000047,
      "d": 1226.2211093750084,
      "v": 66
    },
    {
      "midi": 64,
      "hit": false,
      "t": 285325.68750000047,
      "d": 1233.0145781250321,
      "v": 66
    },
    {
      "midi": 76,
      "hit": false,
      "t": 285325.68750000047,
      "d": 1270.3786562500172,
      "v": 85
    },
    {
      "midi": 81,
      "hit": false,
      "t": 286956.12000000046,
      "d": 669.1566718749818,
      "v": 109
    },
    {
      "midi": 72,
      "hit": false,
      "t": 286956.12000000046,
      "d": 689.5370781249949,
      "v": 98
    },
    {
      "midi": 69,
      "hit": false,
      "t": 286956.12000000046,
      "d": 692.9338124999776,
      "v": 66
    },
    {
      "midi": 60,
      "hit": false,
      "t": 286956.12000000046,
      "d": 716.7109531249735,
      "v": 68
    },
    {
      "midi": 65,
      "hit": false,
      "t": 286956.12000000046,
      "d": 733.6946249999455,
      "v": 62
    },
    {
      "midi": 77,
      "hit": false,
      "t": 287608.29300000047,
      "d": 346.4669062499306,
      "v": 95
    },
    {
      "midi": 79,
      "hit": false,
      "t": 287934.3795000004,
      "d": 672.5534062500228,
      "v": 95
    },
    {
      "midi": 72,
      "hit": false,
      "t": 287934.3795000004,
      "d": 1314.536203125026,
      "v": 91
    },
    {
      "midi": 64,
      "hit": false,
      "t": 287934.3795000004,
      "d": 1379.074156250048,
      "v": 62
    },
    {
      "midi": 67,
      "hit": false,
      "t": 287934.3795000004,
      "d": 1385.8676250000717,
      "v": 73
    },
    {
      "midi": 60,
      "hit": false,
      "t": 287934.3795000004,
      "d": 1389.2643593750545,
      "v": 65
    },
    {
      "midi": 76,
      "hit": false,
      "t": 288586.5525000004,
      "d": 760.8685000000405,
      "v": 88
    },
    {
      "midi": 74,
      "hit": false,
      "t": 289564.81200000044,
      "d": 2088.9916406249977,
      "v": 80
    },
    {
      "midi": 69,
      "hit": false,
      "t": 289564.81200000044,
      "d": 2112.7687812499935,
      "v": 82
    },
    {
      "midi": 65,
      "hit": false,
      "t": 289564.81200000044,
      "d": 2136.5459218749893,
      "v": 71
    },
    {
      "midi": 62,
      "hit": false,
      "t": 289564.81200000044,
      "d": 2160.323062499985,
      "v": 76
    },
    {
      "midi": 72,
      "hit": false,
      "t": 292173.5040000004,
      "d": 319.29303125001024,
      "v": 104
    },
    {
      "midi": 69,
      "hit": false,
      "t": 292173.5040000004,
      "d": 339.6734375000233,
      "v": 109
    },
    {
      "midi": 65,
      "hit": false,
      "t": 292499.59050000046,
      "d": 326.0864999999758,
      "v": 88
    },
    {
      "midi": 67,
      "hit": false,
      "t": 292825.67700000043,
      "d": 366.84731250000186,
      "v": 95
    },
    {
      "midi": 71,
      "hit": false,
      "t": 292825.67700000043,
      "d": 366.84731250000186,
      "v": 91
    },
    {
      "midi": 72,
      "hit": false,
      "t": 293151.7635000004,
      "d": 251.3583437500056,
      "v": 88
    },
    {
      "midi": 65,
      "hit": false,
      "t": 293151.7635000004,
      "d": 261.5485468750121,
      "v": 88
    },
    {
      "midi": 69,
      "hit": false,
      "t": 293151.7635000004,
      "d": 275.1354843750014,
      "v": 95
    },
    {
      "midi": 67,
      "hit": false,
      "t": 293803.9365000004,
      "d": 499.3199531250284,
      "v": 76
    },
    {
      "midi": 71,
      "hit": false,
      "t": 293803.9365000004,
      "d": 516.3036250000005,
      "v": 73
    },
    {
      "midi": 74,
      "hit": false,
      "t": 293803.9365000004,
      "d": 519.7003593749832,
      "v": 80
    }
  ]
}