{
  "jsonPath": "Soundtracks/Video Game Music/Battle of the Olympus/battle-of-olympus-orpheusjourneyarranged.json",
  "path": "Soundtracks\\Video Game Music\\Battle of the Olympus\\Battle_of_Olympus_OrpheusJourneyArranged.mid",
  "name": "Battle_of_Olympus_OrpheusJourneyArranged",
  "difficulty": "Advanced",
  "bpm": 100,
  "notes": [
    {
      "midi": 64,
      "hit": false,
      "t": 0,
      "d": 600,
      "v": 80
    },
    {
      "midi": 57,
      "hit": false,
      "t": 0,
      "d": 1200,
      "v": 80
    },
    {
      "midi": 60,
      "hit": false,
      "t": 300,
      "d": 600,
      "v": 80
    },
    {
      "midi": 64,
      "hit": false,
      "t": 600,
      "d": 600,
      "v": 80
    },
    {
      "midi": 60,
      "hit": false,
      "t": 900,
      "d": 300,
      "v": 80
    },
    {
      "midi": 65,
      "hit": false,
      "t": 1200,
      "d": 1200,
      "v": 80
    },
    {
      "midi": 62,
      "hit": false,
      "t": 1200,
      "d": 1200,
      "v": 80
    },
    {
      "midi": 57,
      "hit": false,
      "t": 1200,
      "d": 1200,
      "v": 80
    },
    {
      "midi": 59,
      "hit": false,
      "t": 2400,
      "d": 1200,
      "v": 80
    },
    {
      "midi": 65,
      "hit": false,
      "t": 2400,
      "d": 1200,
      "v": 80
    },
    {
      "midi": 56,
      "hit": false,
      "t": 2400,
      "d": 1200,
      "v": 80
    },
    {
      "midi": 62,
      "hit": false,
      "t": 2700,
      "d": 900,
      "v": 80
    },
    {
      "midi": 57,
      "hit": false,
      "t": 3600,
      "d": 1200,
      "v": 80
    },
    {
      "midi": 64,
      "hit": false,
      "t": 3600,
      "d": 1200,
      "v": 80
    },
    {
      "midi": 60,
      "hit": false,
      "t": 3600,
      "d": 1200,
      "v": 80
    },
    {
      "midi": 60,
      "hit": false,
      "t": 4800,
      "d": 600,
      "v": 80
    },
    {
      "midi": 53,
      "hit": false,
      "t": 4800,
      "d": 1200,
      "v": 80
    },
    {
      "midi": 57,
      "hit": false,
      "t": 5100,
      "d": 600,
      "v": 80
    },
    {
      "midi": 60,
      "hit": false,
      "t": 5400,
      "d": 600,
      "v": 80
    },
    {
      "midi": 57,
      "hit": false,
      "t": 5700,
      "d": 300,
      "v": 80
    },
    {
      "midi": 62,
      "hit": false,
      "t": 6000,
      "d": 600,
      "v": 80
    },
    {
      "midi": 59,
      "hit": false,
      "t": 6000,
      "d": 1200,
      "v": 80
    },
    {
      "midi": 55,
      "hit": false,
      "t": 6000,
      "d": 1200,
      "v": 80
    },
    {
      "midi": 64,
      "hit": false,
      "t": 6600,
      "d": 600,
      "v": 80
    },
    {
      "midi": 57,
      "hit": false,
      "t": 7200,
      "d": 2400,
      "v": 80
    },
    {
      "midi": 60,
      "hit": false,
      "t": 7200,
      "d": 2400,
      "v": 80
    },
    {
      "midi": 64,
      "hit": false,
      "t": 7200,
      "d": 2400,
      "v": 80
    },
    {
      "midi": 64,
      "hit": false,
      "t": 9600,
      "d": 600,
      "v": 80
    },
    {
      "midi": 57,
      "hit": false,
      "t": 9600,
      "d": 1200,
      "v": 80
    },
    {
      "midi": 60,
      "hit": false,
      "t": 9900,
      "d": 600,
      "v": 80
    },
    {
      "midi": 81,
      "hit": false,
      "t": 10200,
      "d": 150,
      "v": 65
    },
    {
      "midi": 86,
      "hit": false,
      "t": 10200,
      "d": 150,
      "v": 65
    },
    {
      "midi": 64,
      "hit": false,
      "t": 10200,
      "d": 600,
      "v": 80
    },
    {
      "midi": 60,
      "hit": false,
      "t": 10500,
      "d": 300,
      "v": 80
    },
    {
      "midi": 84,
      "hit": false,
      "t": 10800,
      "d": 150,
      "v": 65
    },
    {
      "midi": 79,
      "hit": false,
      "t": 10800,
      "d": 150,
      "v": 65
    },
    {
      "midi": 65,
      "hit": false,
      "t": 10800,
      "d": 1200,
      "v": 80
    },
    {
      "midi": 62,
      "hit": false,
      "t": 10800,
      "d": 1200,
      "v": 80
    },
    {
      "midi": 57,
      "hit": false,
      "t": 10800,
      "d": 1200,
      "v": 80
    },
    {
      "midi": 81,
      "hit": false,
      "t": 11400,
      "d": 150,
      "v": 65
    },
    {
      "midi": 77,
      "hit": false,
      "t": 11400,
      "d": 150,
      "v": 65
    },
    {
      "midi": 59,
      "hit": false,
      "t": 12000,
      "d": 1200,
      "v": 80
    },
    {
      "midi": 65,
      "hit": false,
      "t": 12000,
      "d": 1200,
      "v": 80
    },
    {
      "midi": 56,
      "hit": false,
      "t": 12000,
      "d": 1200,
      "v": 80
    },
    {
      "midi": 62,
      "hit": false,
      "t": 12300,
      "d": 900,
      "v": 80
    },
    {
      "midi": 57,
      "hit": false,
      "t": 13200,
      "d": 1200,
      "v": 80
    },
    {
      "midi": 64,
      "hit": false,
      "t": 13200,
      "d": 1200,
      "v": 80
    },
    {
      "midi": 60,
      "hit": false,
      "t": 13200,
      "d": 1200,
      "v": 80
    },
    {
      "midi": 60,
      "hit": false,
      "t": 14400,
      "d": 600,
      "v": 80
    },
    {
      "midi": 53,
      "hit": false,
      "t": 14400,
      "d": 1200,
      "v": 80
    },
    {
      "midi": 57,
      "hit": false,
      "t": 14700,
      "d": 600,
      "v": 80
    },
    {
      "midi": 83,
      "hit": false,
      "t": 15000,
      "d": 150,
      "v": 65
    },
    {
      "midi": 77,
      "hit": false,
      "t": 15000,
      "d": 150,
      "v": 65
    },
    {
      "midi": 60,
      "hit": false,
      "t": 15000,
      "d": 600,
      "v": 80
    },
    {
      "midi": 57,
      "hit": false,
      "t": 15300,
      "d": 300,
      "v": 80
    },
    {
      "midi": 76,
      "hit": false,
      "t": 15600,
      "d": 150,
      "v": 65
    },
    {
      "midi": 81,
      "hit": false,
      "t": 15600,
      "d": 150,
      "v": 65
    },
    {
      "midi": 62,
      "hit": false,
      "t": 15600,
      "d": 600,
      "v": 80
    },
    {
      "midi": 59,
      "hit": false,
      "t": 15600,
      "d": 1200,
      "v": 80
    },
    {
      "midi": 55,
      "hit": false,
      "t": 15600,
      "d": 1200,
      "v": 80
    },
    {
      "midi": 79,
      "hit": false,
      "t": 16200,
      "d": 150,
      "v": 65
    },
    {
      "midi": 74,
      "hit": false,
      "t": 16200,
      "d": 150,
      "v": 65
    },
    {
      "midi": 64,
      "hit": false,
      "t": 16200,
      "d": 600,
      "v": 80
    },
    {
      "midi": 85,
      "hit": false,
      "t": 16800,
      "d": 150,
      "v": 63
    },
    {
      "midi": 81,
      "hit": false,
      "t": 16800,
      "d": 150,
      "v": 63
    },
    {
      "midi": 57,
      "hit": false,
      "t": 16800,
      "d": 2400,
      "v": 80
    },
    {
      "midi": 60,
      "hit": false,
      "t": 16800,
      "d": 2400,
      "v": 80
    },
    {
      "midi": 64,
      "hit": false,
      "t": 16800,
      "d": 2400,
      "v": 80
    },
    {
      "midi": 79,
      "hit": false,
      "t": 19200,
      "d": 450,
      "v": 100
    },
    {
      "midi": 64,
      "hit": false,
      "t": 19200,
      "d": 600,
      "v": 80
    },
    {
      "midi": 57,
      "hit": false,
      "t": 19200,
      "d": 1200,
      "v": 80
    },
    {
      "midi": 45,
      "hit": false,
      "t": 19200,
      "d": 450,
      "v": 80
    },
    {
      "midi": 60,
      "hit": false,
      "t": 19500,
      "d": 600,
      "v": 80
    },
    {
      "midi": 81,
      "hit": false,
      "t": 19650,
      "d": 450,
      "v": 100
    },
    {
      "midi": 45,
      "hit": false,
      "t": 19650,
      "d": 450,
      "v": 80
    },
    {
      "midi": 64,
      "hit": false,
      "t": 19800,
      "d": 600,
      "v": 80
    },
    {
      "midi": 79,
      "hit": false,
      "t": 20100,
      "d": 300,
      "v": 100
    },
    {
      "midi": 60,
      "hit": false,
      "t": 20100,
      "d": 300,
      "v": 80
    },
    {
      "midi": 45,
      "hit": false,
      "t": 20100,
      "d": 300,
      "v": 80
    },
    {
      "midi": 77,
      "hit": false,
      "t": 20400,
      "d": 600,
      "v": 100
    },
    {
      "midi": 65,
      "hit": false,
      "t": 20400,
      "d": 1200,
      "v": 80
    },
    {
      "midi": 62,
      "hit": false,
      "t": 20400,
      "d": 1200,
      "v": 80
    },
    {
      "midi": 57,
      "hit": false,
      "t": 20400,
      "d": 1200,
      "v": 80
    },
    {
      "midi": 38,
      "hit": false,
      "t": 20400,
      "d": 450,
      "v": 80
    },
    {
      "midi": 38,
      "hit": false,
      "t": 20850,
      "d": 450,
      "v": 80
    },
    {
      "midi": 81,
      "hit": false,
      "t": 21000,
      "d": 600,
      "v": 100
    },
    {
      "midi": 38,
      "hit": false,
      "t": 21300,
      "d": 300,
      "v": 80
    },
    {
      "midi": 84,
      "hit": false,
      "t": 21600,
      "d": 450,
      "v": 100
    },
    {
      "midi": 56,
      "hit": false,
      "t": 21600,
      "d": 1200,
      "v": 80
    },
    {
      "midi": 65,
      "hit": false,
      "t": 21600,
      "d": 1200,
      "v": 80
    },
    {
      "midi": 59,
      "hit": false,
      "t": 21600,
      "d": 1200,
      "v": 80
    },
    {
      "midi": 40,
      "hit": false,
      "t": 21600,
      "d": 450,
      "v": 80
    },
    {
      "midi": 62,
      "hit": false,
      "t": 21900,
      "d": 600,
      "v": 80
    },
    {
      "midi": 83,
      "hit": false,
      "t": 22050,
      "d": 450,
      "v": 100
    },
    {
      "midi": 40,
      "hit": false,
      "t": 22050,
      "d": 450,
      "v": 80
    },
    {
      "midi": 81,
      "hit": false,
      "t": 22500,
      "d": 300,
      "v": 100
    },
    {
      "midi": 64,
      "hit": false,
      "t": 22500,
      "d": 300,
      "v": 80
    },
    {
      "midi": 40,
      "hit": false,
      "t": 22500,
      "d": 300,
      "v": 80
    },
    {
      "midi": 81,
      "hit": false,
      "t": 22800,
      "d": 600,
      "v": 100
    },
    {
      "midi": 57,
      "hit": false,
      "t": 22800,
      "d": 1200,
      "v": 80
    },
    {
      "midi": 64,
      "hit": false,
      "t": 22800,
      "d": 1200,
      "v": 80
    },
    {
      "midi": 60,
      "hit": false,
      "t": 22800,
      "d": 1200,
      "v": 80
    },
    {
      "midi": 45,
      "hit": false,
      "t": 22800,
      "d": 450,
      "v": 80
    },
    {
      "midi": 45,
      "hit": false,
      "t": 23250,
      "d": 450,
      "v": 80
    },
    {
      "midi": 45,
      "hit": false,
      "t": 23700,
      "d": 300,
      "v": 80
    },
    {
      "midi": 86,
      "hit": false,
      "t": 24000,
      "d": 450,
      "v": 100
    },
    {
      "midi": 60,
      "hit": false,
      "t": 24000,
      "d": 600,
      "v": 80
    },
    {
      "midi": 53,
      "hit": false,
      "t": 24000,
      "d": 1200,
      "v": 80
    },
    {
      "midi": 41,
      "hit": false,
      "t": 24000,
      "d": 450,
      "v": 80
    },
    {
      "midi": 57,
      "hit": false,
      "t": 24300,
      "d": 600,
      "v": 80
    },
    {
      "midi": 84,
      "hit": false,
      "t": 24450,
      "d": 900,
      "v": 100
    },
    {
      "midi": 41,
      "hit": false,
      "t": 24450,
      "d": 450,
      "v": 80
    },
    {
      "midi": 60,
      "hit": false,
      "t": 24600,
      "d": 600,
      "v": 80
    },
    {
      "midi": 81,
      "hit": false,
      "t": 24900,
      "d": 900,
      "v": 100
    },
    {
      "midi": 57,
      "hit": false,
      "t": 24900,
      "d": 300,
      "v": 80
    },
    {
      "midi": 41,
      "hit": false,
      "t": 24900,
      "d": 300,
      "v": 80
    },
    {
      "midi": 79,
      "hit": false,
      "t": 25050,
      "d": 300,
      "v": 100
    },
    {
      "midi": 62,
      "hit": false,
      "t": 25200,
      "d": 600,
      "v": 80
    },
    {
      "midi": 59,
      "hit": false,
      "t": 25200,
      "d": 1200,
      "v": 80
    },
    {
      "midi": 55,
      "hit": false,
      "t": 25200,
      "d": 1200,
      "v": 80
    },
    {
      "midi": 43,
      "hit": false,
      "t": 25200,
      "d": 450,
      "v": 80
    },
    {
      "midi": 79,
      "hit": false,
      "t": 25350,
      "d": 300,
      "v": 100
    },
    {
      "midi": 83,
      "hit": false,
      "t": 25500,
      "d": 300,
      "v": 100
    },
    {
      "midi": 86,
      "hit": false,
      "t": 25650,
      "d": 900,
      "v": 100
    },
    {
      "midi": 43,
      "hit": false,
      "t": 25650,
      "d": 450,
      "v": 80
    },
    {
      "midi": 64,
      "hit": false,
      "t": 25800,
      "d": 600,
      "v": 80
    },
    {
      "midi": 84,
      "hit": false,
      "t": 26100,
      "d": 300,
      "v": 100
    },
    {
      "midi": 43,
      "hit": false,
      "t": 26100,
      "d": 150,
      "v": 80
    },
    {
      "midi": 43,
      "hit": false,
      "t": 26250,
      "d": 150,
      "v": 80
    },
    {
      "midi": 84,
      "hit": false,
      "t": 26400,
      "d": 900,
      "v": 100
    },
    {
      "midi": 57,
      "hit": false,
      "t": 26400,
      "d": 2400,
      "v": 80
    },
    {
      "midi": 60,
      "hit": false,
      "t": 26400,
      "d": 2400,
      "v": 80
    },
    {
      "midi": 64,
      "hit": false,
      "t": 26400,
      "d": 2400,
      "v": 80
    },
    {
      "midi": 45,
      "hit": false,
      "t": 26400,
      "d": 450,
      "v": 80
    },
    {
      "midi": 88,
      "hit": false,
      "t": 26550,
      "d": 300,
      "v": 100
    },
    {
      "midi": 86,
      "hit": false,
      "t": 26850,
      "d": 300,
      "v": 100
    },
    {
      "midi": 45,
      "hit": false,
      "t": 26850,
      "d": 450,
      "v": 80
    },
    {
      "midi": 88,
      "hit": false,
      "t": 27150,
      "d": 300,
      "v": 100
    },
    {
      "midi": 81,
      "hit": false,
      "t": 27300,
      "d": 900,
      "v": 100
    },
    {
      "midi": 45,
      "hit": false,
      "t": 27300,
      "d": 300,
      "v": 80
    },
    {
      "midi": 89,
      "hit": false,
      "t": 27450,
      "d": 300,
      "v": 100
    },
    {
      "midi": 45,
      "hit": false,
      "t": 27600,
      "d": 450,
      "v": 80
    },
    {
      "midi": 88,
      "hit": false,
      "t": 27750,
      "d": 300,
      "v": 100
    },
    {
      "midi": 86,
      "hit": false,
      "t": 27900,
      "d": 300,
      "v": 100
    },
    {
      "midi": 45,
      "hit": false,
      "t": 28050,
      "d": 300,
      "v": 80
    },
    {
      "midi": 84,
      "hit": false,
      "t": 28200,
      "d": 300,
      "v": 100
    },
    {
      "midi": 83,
      "hit": false,
      "t": 28350,
      "d": 300,
      "v": 100
    },
    {
      "midi": 44,
      "hit": false,
      "t": 28350,
      "d": 150,
      "v": 80
    },
    {
      "midi": 84,
      "hit": false,
      "t": 28500,
      "d": 300,
      "v": 100
    },
    {
      "midi": 45,
      "hit": false,
      "t": 28500,
      "d": 300,
      "v": 80
    },
    {
      "midi": 86,
      "hit": false,
      "t": 28800,
      "d": 450,
      "v": 100
    },
    {
      "midi": 60,
      "hit": false,
      "t": 28800,
      "d": 600,
      "v": 80
    },
    {
      "midi": 53,
      "hit": false,
      "t": 28800,
      "d": 1200,
      "v": 80
    },
    {
      "midi": 41,
      "hit": false,
      "t": 28800,
      "d": 450,
      "v": 80
    },
    {
      "midi": 57,
      "hit": false,
      "t": 29100,
      "d": 600,
      "v": 80
    },
    {
      "midi": 84,
      "hit": false,
      "t": 29250,
      "d": 900,
      "v": 100
    },
    {
      "midi": 41,
      "hit": false,
      "t": 29250,
      "d": 450,
      "v": 80
    },
    {
      "midi": 60,
      "hit": false,
      "t": 29400,
      "d": 600,
      "v": 80
    },
    {
      "midi": 81,
      "hit": false,
      "t": 29700,
      "d": 900,
      "v": 100
    },
    {
      "midi": 57,
      "hit": false,
      "t": 29700,
      "d": 300,
      "v": 80
    },
    {
      "midi": 41,
      "hit": false,
      "t": 29700,
      "d": 300,
      "v": 80
    },
    {
      "midi": 79,
      "hit": false,
      "t": 29850,
      "d": 300,
      "v": 100
    },
    {
      "midi": 62,
      "hit": false,
      "t": 30000,
      "d": 600,
      "v": 80
    },
    {
      "midi": 59,
      "hit": false,
      "t": 30000,
      "d": 1200,
      "v": 80
    },
    {
      "midi": 55,
      "hit": false,
      "t": 30000,
      "d": 1200,
      "v": 80
    },
    {
      "midi": 43,
      "hit": false,
      "t": 30000,
      "d": 450,
      "v": 80
    },
    {
      "midi": 79,
      "hit": false,
      "t": 30150,
      "d": 300,
      "v": 100
    },
    {
      "midi": 83,
      "hit": false,
      "t": 30300,
      "d": 300,
      "v": 100
    },
    {
      "midi": 86,
      "hit": false,
      "t": 30450,
      "d": 900,
      "v": 100
    },
    {
      "midi": 43,
      "hit": false,
      "t": 30450,
      "d": 450,
      "v": 80
    },
    {
      "midi": 64,
      "hit": false,
      "t": 30600,
      "d": 600,
      "v": 80
    },
    {
      "midi": 84,
      "hit": false,
      "t": 30900,
      "d": 300,
      "v": 100
    },
    {
      "midi": 43,
      "hit": false,
      "t": 30900,
      "d": 150,
      "v": 80
    },
    {
      "midi": 43,
      "hit": false,
      "t": 31050,
      "d": 150,
      "v": 80
    },
    {
      "midi": 84,
      "hit": false,
      "t": 31200,
      "d": 900,
      "v": 100
    },
    {
      "midi": 60,
      "hit": false,
      "t": 31200,
      "d": 2400,
      "v": 80
    },
    {
      "midi": 57,
      "hit": false,
      "t": 31200,
      "d": 2400,
      "v": 80
    },
    {
      "midi": 64,
      "hit": false,
      "t": 31200,
      "d": 2400,
      "v": 80
    },
    {
      "midi": 45,
      "hit": false,
      "t": 31200,
      "d": 450,
      "v": 80
    },
    {
      "midi": 88,
      "hit": false,
      "t": 31350,
      "d": 300,
      "v": 100
    },
    {
      "midi": 86,
      "hit": false,
      "t": 31650,
      "d": 300,
      "v": 100
    },
    {
      "midi": 45,
      "hit": false,
      "t": 31650,
      "d": 450,
      "v": 80
    },
    {
      "midi": 88,
      "hit": false,
      "t": 31950,
      "d": 300,
      "v": 100
    },
    {
      "midi": 81,
      "hit": false,
      "t": 32100,
      "d": 900,
      "v": 100
    },
    {
      "midi": 45,
      "hit": false,
      "t": 32100,
      "d": 300,
      "v": 80
    },
    {
      "midi": 89,
      "hit": false,
      "t": 32250,
      "d": 300,
      "v": 100
    },
    {
      "midi": 45,
      "hit": false,
      "t": 32400,
      "d": 450,
      "v": 80
    },
    {
      "midi": 88,
      "hit": false,
      "t": 32550,
      "d": 300,
      "v": 100
    },
    {
      "midi": 86,
      "hit": false,
      "t": 32700,
      "d": 300,
      "v": 100
    },
    {
      "midi": 45,
      "hit": false,
      "t": 32850,
      "d": 300,
      "v": 80
    },
    {
      "midi": 84,
      "hit": false,
      "t": 33000,
      "d": 300,
      "v": 100
    },
    {
      "midi": 83,
      "hit": false,
      "t": 33150,
      "d": 300,
      "v": 100
    },
    {
      "midi": 44,
      "hit": false,
      "t": 33150,
      "d": 150,
      "v": 80
    },
    {
      "midi": 84,
      "hit": false,
      "t": 33300,
      "d": 300,
      "v": 100
    },
    {
      "midi": 45,
      "hit": false,
      "t": 33300,
      "d": 300,
      "v": 80
    },
    {
      "midi": 86,
      "hit": false,
      "t": 33600,
      "d": 450,
      "v": 100
    },
    {
      "midi": 60,
      "hit": false,
      "t": 33600,
      "d": 600,
      "v": 80
    },
    {
      "midi": 53,
      "hit": false,
      "t": 33600,
      "d": 1200,
      "v": 80
    },
    {
      "midi": 41,
      "hit": false,
      "t": 33600,
      "d": 450,
      "v": 80
    },
    {
      "midi": 57,
      "hit": false,
      "t": 33900,
      "d": 600,
      "v": 80
    },
    {
      "midi": 84,
      "hit": false,
      "t": 34050,
      "d": 900,
      "v": 100
    },
    {
      "midi": 41,
      "hit": false,
      "t": 34050,
      "d": 450,
      "v": 80
    },
    {
      "midi": 60,
      "hit": false,
      "t": 34200,
      "d": 600,
      "v": 80
    },
    {
      "midi": 81,
      "hit": false,
      "t": 34500,
      "d": 900,
      "v": 100
    },
    {
      "midi": 57,
      "hit": false,
      "t": 34500,
      "d": 300,
      "v": 80
    },
    {
      "midi": 41,
      "hit": false,
      "t": 34500,
      "d": 300,
      "v": 80
    },
    {
      "midi": 79,
      "hit": false,
      "t": 34650,
      "d": 300,
      "v": 100
    },
    {
      "midi": 62,
      "hit": false,
      "t": 34800,
      "d": 600,
      "v": 80
    },
    {
      "midi": 59,
      "hit": false,
      "t": 34800,
      "d": 1200,
      "v": 80
    },
    {
      "midi": 55,
      "hit": false,
      "t": 34800,
      "d": 1200,
      "v": 80
    },
    {
      "midi": 43,
      "hit": false,
      "t": 34800,
      "d": 450,
      "v": 80
    },
    {
      "midi": 79,
      "hit": false,
      "t": 34950,
      "d": 300,
      "v": 100
    },
    {
      "midi": 83,
      "hit": false,
      "t": 35100,
      "d": 300,
      "v": 100
    },
    {
      "midi": 86,
      "hit": false,
      "t": 35250,
      "d": 750,
      "v": 100
    },
    {
      "midi": 43,
      "hit": false,
      "t": 35250,
      "d": 450,
      "v": 80
    },
    {
      "midi": 64,
      "hit": false,
      "t": 35400,
      "d": 600,
      "v": 80
    },
    {
      "midi": 84,
      "hit": false,
      "t": 35700,
      "d": 300,
      "v": 100
    },
    {
      "midi": 43,
      "hit": false,
      "t": 35700,
      "d": 150,
      "v": 80
    },
    {
      "midi": 43,
      "hit": false,
      "t": 35850,
      "d": 150,
      "v": 80
    },
    {
      "midi": 84,
      "hit": false,
      "t": 36000,
      "d": 450,
      "v": 100
    },
    {
      "midi": 88,
      "hit": false,
      "t": 36000,
      "d": 450,
      "v": 100
    },
    {
      "midi": 60,
      "hit": false,
      "t": 36000,
      "d": 2400,
      "v": 80
    },
    {
      "midi": 52,
      "hit": false,
      "t": 36000,
      "d": 2400,
      "v": 80
    },
    {
      "midi": 57,
      "hit": false,
      "t": 36000,
      "d": 2400,
      "v": 80
    },
    {
      "midi": 45,
      "hit": false,
      "t": 36000,
      "d": 450,
      "v": 80
    },
    {
      "midi": 86,
      "hit": false,
      "t": 36450,
      "d": 600,
      "v": 100
    },
    {
      "midi": 83,
      "hit": false,
      "t": 36450,
      "d": 600,
      "v": 100
    },
    {
      "midi": 45,
      "hit": false,
      "t": 36450,
      "d": 450,
      "v": 80
    },
    {
      "midi": 45,
      "hit": false,
      "t": 36900,
      "d": 300,
      "v": 80
    },
    {
      "midi": 81,
      "hit": false,
      "t": 37050,
      "d": 450,
      "v": 100
    },
    {
      "midi": 84,
      "hit": false,
      "t": 37050,
      "d": 450,
      "v": 100
    },
    {
      "midi": 45,
      "hit": false,
      "t": 37200,
      "d": 450,
      "v": 80
    },
    {
      "midi": 79,
      "hit": false,
      "t": 37500,
      "d": 900,
      "v": 100
    },
    {
      "midi": 83,
      "hit": false,
      "t": 37500,
      "d": 900,
      "v": 100
    },
    {
      "midi": 45,
      "hit": false,
      "t": 37650,
      "d": 300,
      "v": 80
    },
    {
      "midi": 44,
      "hit": false,
      "t": 37950,
      "d": 150,
      "v": 80
    },
    {
      "midi": 45,
      "hit": false,
      "t": 38100,
      "d": 300,
      "v": 80
    },
    {
      "midi": 79,
      "hit": false,
      "t": 38400,
      "d": 450,
      "v": 100
    },
    {
      "midi": 83,
      "hit": false,
      "t": 38400,
      "d": 450,
      "v": 100
    },
    {
      "midi": 64,
      "hit": false,
      "t": 38400,
      "d": 600,
      "v": 80
    },
    {
      "midi": 57,
      "hit": false,
      "t": 38400,
      "d": 1200,
      "v": 80
    },
    {
      "midi": 45,
      "hit": false,
      "t": 38400,
      "d": 450,
      "v": 80
    },
    {
      "midi": 60,
      "hit": false,
      "t": 38700,
      "d": 600,
      "v": 80
    },
    {
      "midi": 81,
      "hit": false,
      "t": 38850,
      "d": 450,
      "v": 100
    },
    {
      "midi": 84,
      "hit": false,
      "t": 38850,
      "d": 450,
      "v": 100
    },
    {
      "midi": 45,
      "hit": false,
      "t": 38850,
      "d": 450,
      "v": 80
    },
    {
      "midi": 64,
      "hit": false,
      "t": 39000,
      "d": 600,
      "v": 80
    },
    {
      "midi": 79,
      "hit": false,
      "t": 39300,
      "d": 300,
      "v": 100
    },
    {
      "midi": 83,
      "hit": false,
      "t": 39300,
      "d": 300,
      "v": 100
    },
    {
      "midi": 60,
      "hit": false,
      "t": 39300,
      "d": 300,
      "v": 80
    },
    {
      "midi": 45,
      "hit": false,
      "t": 39300,
      "d": 300,
      "v": 80
    },
    {
      "midi": 77,
      "hit": false,
      "t": 39600,
      "d": 600,
      "v": 100
    },
    {
      "midi": 81,
      "hit": false,
      "t": 39600,
      "d": 600,
      "v": 100
    },
    {
      "midi": 65,
      "hit": false,
      "t": 39600,
      "d": 1200,
      "v": 80
    },
    {
      "midi": 62,
      "hit": false,
      "t": 39600,
      "d": 1200,
      "v": 80
    },
    {
      "midi": 57,
      "hit": false,
      "t": 39600,
      "d": 1200,
      "v": 80
    },
    {
      "midi": 38,
      "hit": false,
      "t": 39600,
      "d": 450,
      "v": 80
    },
    {
      "midi": 38,
      "hit": false,
      "t": 40050,
      "d": 450,
      "v": 80
    },
    {
      "midi": 81,
      "hit": false,
      "t": 40200,
      "d": 600,
      "v": 100
    },
    {
      "midi": 86,
      "hit": false,
      "t": 40200,
      "d": 600,
      "v": 100
    },
    {
      "midi": 38,
      "hit": false,
      "t": 40500,
      "d": 300,
      "v": 80
    },
    {
      "midi": 84,
      "hit": false,
      "t": 40800,
      "d": 450,
      "v": 100
    },
    {
      "midi": 88,
      "hit": false,
      "t": 40800,
      "d": 450,
      "v": 100
    },
    {
      "midi": 56,
      "hit": false,
      "t": 40800,
      "d": 1200,
      "v": 80
    },
    {
      "midi": 65,
      "hit": false,
      "t": 40800,
      "d": 1200,
      "v": 80
    },
    {
      "midi": 59,
      "hit": false,
      "t": 40800,
      "d": 1200,
      "v": 80
    },
    {
      "midi": 40,
      "hit": false,
      "t": 40800,
      "d": 450,
      "v": 80
    },
    {
      "midi": 62,
      "hit": false,
      "t": 41100,
      "d": 600,
      "v": 80
    },
    {
      "midi": 83,
      "hit": false,
      "t": 41250,
      "d": 450,
      "v": 100
    },
    {
      "midi": 86,
      "hit": false,
      "t": 41250,
      "d": 450,
      "v": 100
    },
    {
      "midi": 40,
      "hit": false,
      "t": 41250,
      "d": 450,
      "v": 80
    },
    {
      "midi": 81,
      "hit": false,
      "t": 41700,
      "d": 300,
      "v": 100
    },
    {
      "midi": 84,
      "hit": false,
      "t": 41700,
      "d": 300,
      "v": 100
    },
    {
      "midi": 64,
      "hit": false,
      "t": 41700,
      "d": 300,
      "v": 80
    },
    {
      "midi": 40,
      "hit": false,
      "t": 41700,
      "d": 300,
      "v": 80
    },
    {
      "midi": 81,
      "hit": false,
      "t": 42000,
      "d": 1200,
      "v": 100
    },
    {
      "midi": 84,
      "hit": false,
      "t": 42000,
      "d": 1200,
      "v": 100
    },
    {
      "midi": 57,
      "hit": false,
      "t": 42000,
      "d": 1200,
      "v": 80
    },
    {
      "midi": 64,
      "hit": false,
      "t": 42000,
      "d": 1200,
      "v": 80
    },
    {
      "midi": 60,
      "hit": false,
      "t": 42000,
      "d": 1200,
      "v": 80
    },
    {
      "midi": 45,
      "hit": false,
      "t": 42000,
      "d": 450,
      "v": 80
    },
    {
      "midi": 45,
      "hit": false,
      "t": 42450,
      "d": 450,
      "v": 80
    },
    {
      "midi": 45,
      "hit": false,
      "t": 42900,
      "d": 300,
      "v": 80
    },
    {
      "midi": 89,
      "hit": false,
      "t": 43200,
      "d": 450,
      "v": 100
    },
    {
      "midi": 86,
      "hit": false,
      "t": 43200,
      "d": 450,
      "v": 100
    },
    {
      "midi": 60,
      "hit": false,
      "t": 43200,
      "d": 600,
      "v": 80
    },
    {
      "midi": 53,
      "hit": false,
      "t": 43200,
      "d": 1200,
      "v": 80
    },
    {
      "midi": 41,
      "hit": false,
      "t": 43200,
      "d": 450,
      "v": 80
    },
    {
      "midi": 57,
      "hit": false,
      "t": 43500,
      "d": 600,
      "v": 80
    },
    {
      "midi": 84,
      "hit": false,
      "t": 43650,
      "d": 450,
      "v": 100
    },
    {
      "midi": 88,
      "hit": false,
      "t": 43650,
      "d": 450,
      "v": 100
    },
    {
      "midi": 41,
      "hit": false,
      "t": 43650,
      "d": 450,
      "v": 80
    },
    {
      "midi": 60,
      "hit": false,
      "t": 43800,
      "d": 600,
      "v": 80
    },
    {
      "midi": 84,
      "hit": false,
      "t": 44100,
      "d": 600,
      "v": 100
    },
    {
      "midi": 81,
      "hit": false,
      "t": 44100,
      "d": 900,
      "v": 100
    },
    {
      "midi": 57,
      "hit": false,
      "t": 44100,
      "d": 300,
      "v": 80
    },
    {
      "midi": 41,
      "hit": false,
      "t": 44100,
      "d": 300,
      "v": 80
    },
    {
      "midi": 79,
      "hit": false,
      "t": 44250,
      "d": 300,
      "v": 100
    },
    {
      "midi": 62,
      "hit": false,
      "t": 44400,
      "d": 600,
      "v": 80
    },
    {
      "midi": 59,
      "hit": false,
      "t": 44400,
      "d": 1200,
      "v": 80
    },
    {
      "midi": 55,
      "hit": false,
      "t": 44400,
      "d": 1200,
      "v": 80
    },
    {
      "midi": 43,
      "hit": false,
      "t": 44400,
      "d": 450,
      "v": 80
    },
    {
      "midi": 79,
      "hit": false,
      "t": 44550,
      "d": 300,
      "v": 100
    },
    {
      "midi": 83,
      "hit": false,
      "t": 44700,
      "d": 300,
      "v": 100
    },
    {
      "midi": 86,
      "hit": false,
      "t": 44850,
      "d": 900,
      "v": 100
    },
    {
      "midi": 43,
      "hit": false,
      "t": 44850,
      "d": 450,
      "v": 80
    },
    {
      "midi": 64,
      "hit": false,
      "t": 45000,
      "d": 600,
      "v": 80
    },
    {
      "midi": 84,
      "hit": false,
      "t": 45300,
      "d": 300,
      "v": 100
    },
    {
      "midi": 43,
      "hit": false,
      "t": 45300,
      "d": 150,
      "v": 80
    },
    {
      "midi": 43,
      "hit": false,
      "t": 45450,
      "d": 150,
      "v": 80
    },
    {
      "midi": 84,
      "hit": false,
      "t": 45600,
      "d": 750,
      "v": 100
    },
    {
      "midi": 57,
      "hit": false,
      "t": 45600,
      "d": 2400,
      "v": 80
    },
    {
      "midi": 60,
      "hit": false,
      "t": 45600,
      "d": 2400,
      "v": 80
    },
    {
      "midi": 64,
      "hit": false,
      "t": 45600,
      "d": 2400,
      "v": 80
    },
    {
      "midi": 45,
      "hit": false,
      "t": 45600,
      "d": 450,
      "v": 80
    },
    {
      "midi": 88,
      "hit": false,
      "t": 45750,
      "d": 300,
      "v": 100
    },
    {
      "midi": 86,
      "hit": false,
      "t": 46050,
      "d": 300,
      "v": 100
    },
    {
      "midi": 45,
      "hit": false,
      "t": 46050,
      "d": 450,
      "v": 80
    },
    {
      "midi": 88,
      "hit": false,
      "t": 46350,
      "d": 150,
      "v": 100
    },
    {
      "midi": 84,
      "hit": false,
      "t": 46350,
      "d": 150,
      "v": 100
    },
    {
      "midi": 81,
      "hit": false,
      "t": 46500,
      "d": 900,
      "v": 100
    },
    {
      "midi": 84,
      "hit": false,
      "t": 46500,
      "d": 900,
      "v": 100
    },
    {
      "midi": 45,
      "hit": false,
      "t": 46500,
      "d": 300,
      "v": 80
    },
    {
      "midi": 45,
      "hit": false,
      "t": 46800,
      "d": 450,
      "v": 80
    },
    {
      "midi": 86,
      "hit": false,
      "t": 47100,
      "d": 300,
      "v": 100
    },
    {
      "midi": 45,
      "hit": false,
      "t": 47250,
      "d": 300,
      "v": 80
    },
    {
      "midi": 84,
      "hit": false,
      "t": 47400,
      "d": 300,
      "v": 100
    },
    {
      "midi": 83,
      "hit": false,
      "t": 47550,
      "d": 300,
      "v": 100
    },
    {
      "midi": 44,
      "hit": false,
      "t": 47550,
      "d": 150,
      "v": 80
    },
    {
      "midi": 84,
      "hit": false,
      "t": 47700,
      "d": 300,
      "v": 100
    },
    {
      "midi": 45,
      "hit": false,
      "t": 47700,
      "d": 300,
      "v": 80
    },
    {
      "midi": 86,
      "hit": false,
      "t": 48000,
      "d": 450,
      "v": 100
    },
    {
      "midi": 89,
      "hit": false,
      "t": 48000,
      "d": 450,
      "v": 100
    },
    {
      "midi": 60,
      "hit": false,
      "t": 48000,
      "d": 600,
      "v": 80
    },
    {
      "midi": 53,
      "hit": false,
      "t": 48000,
      "d": 1200,
      "v": 80
    },
    {
      "midi": 41,
      "hit": false,
      "t": 48000,
      "d": 450,
      "v": 80
    },
    {
      "midi": 57,
      "hit": false,
      "t": 48300,
      "d": 600,
      "v": 80
    },
    {
      "midi": 88,
      "hit": false,
      "t": 48450,
      "d": 900,
      "v": 100
    },
    {
      "midi": 84,
      "hit": false,
      "t": 48450,
      "d": 900,
      "v": 100
    },
    {
      "midi": 41,
      "hit": false,
      "t": 48450,
      "d": 450,
      "v": 80
    },
    {
      "midi": 60,
      "hit": false,
      "t": 48600,
      "d": 600,
      "v": 80
    },
    {
      "midi": 81,
      "hit": false,
      "t": 48900,
      "d": 900,
      "v": 100
    },
    {
      "midi": 57,
      "hit": false,
      "t": 48900,
      "d": 300,
      "v": 80
    },
    {
      "midi": 41,
      "hit": false,
      "t": 48900,
      "d": 300,
      "v": 80
    },
    {
      "midi": 79,
      "hit": false,
      "t": 49050,
      "d": 300,
      "v": 100
    },
    {
      "midi": 62,
      "hit": false,
      "t": 49200,
      "d": 600,
      "v": 80
    },
    {
      "midi": 59,
      "hit": false,
      "t": 49200,
      "d": 1200,
      "v": 80
    },
    {
      "midi": 55,
      "hit": false,
      "t": 49200,
      "d": 1200,
      "v": 80
    },
    {
      "midi": 43,
      "hit": false,
      "t": 49200,
      "d": 450,
      "v": 80
    },
    {
      "midi": 79,
      "hit": false,
      "t": 49350,
      "d": 300,
      "v": 100
    },
    {
      "midi": 83,
      "hit": false,
      "t": 49500,
      "d": 300,
      "v": 100
    },
    {
      "midi": 86,
      "hit": false,
      "t": 49650,
      "d": 900,
      "v": 100
    },
    {
      "midi": 43,
      "hit": false,
      "t": 49650,
      "d": 450,
      "v": 80
    },
    {
      "midi": 64,
      "hit": false,
      "t": 49800,
      "d": 600,
      "v": 80
    },
    {
      "midi": 84,
      "hit": false,
      "t": 50100,
      "d": 300,
      "v": 100
    },
    {
      "midi": 43,
      "hit": false,
      "t": 50100,
      "d": 150,
      "v": 80
    },
    {
      "midi": 43,
      "hit": false,
      "t": 50250,
      "d": 150,
      "v": 80
    },
    {
      "midi": 84,
      "hit": false,
      "t": 50400,
      "d": 900,
      "v": 100
    },
    {
      "midi": 60,
      "hit": false,
      "t": 50400,
      "d": 2400,
      "v": 80
    },
    {
      "midi": 57,
      "hit": false,
      "t": 50400,
      "d": 2400,
      "v": 80
    },
    {
      "midi": 64,
      "hit": false,
      "t": 50400,
      "d": 2400,
      "v": 80
    },
    {
      "midi": 45,
      "hit": false,
      "t": 50400,
      "d": 450,
      "v": 80
    },
    {
      "midi": 88,
      "hit": false,
      "t": 50550,
      "d": 300,
      "v": 100
    },
    {
      "midi": 89,
      "hit": false,
      "t": 50850,
      "d": 300,
      "v": 100
    },
    {
      "midi": 45,
      "hit": false,
      "t": 50850,
      "d": 450,
      "v": 80
    },
    {
      "midi": 88,
      "hit": false,
      "t": 51150,
      "d": 300,
      "v": 100
    },
    {
      "midi": 81,
      "hit": false,
      "t": 51300,
      "d": 900,
      "v": 100
    },
    {
      "midi": 45,
      "hit": false,
      "t": 51300,
      "d": 300,
      "v": 80
    },
    {
      "midi": 86,
      "hit": false,
      "t": 51450,
      "d": 450,
      "v": 100
    },
    {
      "midi": 45,
      "hit": false,
      "t": 51600,
      "d": 450,
      "v": 80
    },
    {
      "midi": 86,
      "hit": false,
      "t": 51900,
      "d": 300,
      "v": 100
    },
    {
      "midi": 45,
      "hit": false,
      "t": 52050,
      "d": 300,
      "v": 80
    },
    {
      "midi": 84,
      "hit": false,
      "t": 52200,
      "d": 300,
      "v": 100
    },
    {
      "midi": 83,
      "hit": false,
      "t": 52350,
      "d": 300,
      "v": 100
    },
    {
      "midi": 44,
      "hit": false,
      "t": 52350,
      "d": 150,
      "v": 80
    },
    {
      "midi": 84,
      "hit": false,
      "t": 52500,
      "d": 300,
      "v": 100
    },
    {
      "midi": 45,
      "hit": false,
      "t": 52500,
      "d": 300,
      "v": 80
    },
    {
      "midi": 86,
      "hit": false,
      "t": 52800,
      "d": 450,
      "v": 100
    },
    {
      "midi": 89,
      "hit": false,
      "t": 52800,
      "d": 450,
      "v": 100
    },
    {
      "midi": 60,
      "hit": false,
      "t": 52800,
      "d": 600,
      "v": 80
    },
    {
      "midi": 53,
      "hit": false,
      "t": 52800,
      "d": 1200,
      "v": 80
    },
    {
      "midi": 41,
      "hit": false,
      "t": 52800,
      "d": 450,
      "v": 80
    },
    {
      "midi": 57,
      "hit": false,
      "t": 53100,
      "d": 600,
      "v": 80
    },
    {
      "midi": 88,
      "hit": false,
      "t": 53250,
      "d": 900,
      "v": 100
    },
    {
      "midi": 84,
      "hit": false,
      "t": 53250,
      "d": 900,
      "v": 100
    },
    {
      "midi": 41,
      "hit": false,
      "t": 53250,
      "d": 450,
      "v": 80
    },
    {
      "midi": 60,
      "hit": false,
      "t": 53400,
      "d": 600,
      "v": 80
    },
    {
      "midi": 81,
      "hit": false,
      "t": 53700,
      "d": 900,
      "v": 100
    },
    {
      "midi": 57,
      "hit": false,
      "t": 53700,
      "d": 300,
      "v": 80
    },
    {
      "midi": 41,
      "hit": false,
      "t": 53700,
      "d": 300,
      "v": 80
    },
    {
      "midi": 79,
      "hit": false,
      "t": 53850,
      "d": 300,
      "v": 100
    },
    {
      "midi": 62,
      "hit": false,
      "t": 54000,
      "d": 600,
      "v": 80
    },
    {
      "midi": 59,
      "hit": false,
      "t": 54000,
      "d": 1200,
      "v": 80
    },
    {
      "midi": 55,
      "hit": false,
      "t": 54000,
      "d": 1200,
      "v": 80
    },
    {
      "midi": 43,
      "hit": false,
      "t": 54000,
      "d": 450,
      "v": 80
    },
    {
      "midi": 79,
      "hit": false,
      "t": 54150,
      "d": 300,
      "v": 100
    },
    {
      "midi": 83,
      "hit": false,
      "t": 54300,
      "d": 300,
      "v": 100
    },
    {
      "midi": 86,
      "hit": false,
      "t": 54450,
      "d": 750,
      "v": 100
    },
    {
      "midi": 43,
      "hit": false,
      "t": 54450,
      "d": 450,
      "v": 80
    },
    {
      "midi": 64,
      "hit": false,
      "t": 54600,
      "d": 600,
      "v": 80
    },
    {
      "midi": 84,
      "hit": false,
      "t": 54900,
      "d": 300,
      "v": 100
    },
    {
      "midi": 43,
      "hit": false,
      "t": 54900,
      "d": 150,
      "v": 80
    },
    {
      "midi": 43,
      "hit": false,
      "t": 55050,
      "d": 150,
      "v": 80
    },
    {
      "midi": 88,
      "hit": false,
      "t": 55200,
      "d": 450,
      "v": 100
    },
    {
      "midi": 84,
      "hit": false,
      "t": 55200,
      "d": 450,
      "v": 100
    },
    {
      "midi": 60,
      "hit": false,
      "t": 55200,
      "d": 2400,
      "v": 80
    },
    {
      "midi": 52,
      "hit": false,
      "t": 55200,
      "d": 2400,
      "v": 80
    },
    {
      "midi": 57,
      "hit": false,
      "t": 55200,
      "d": 2400,
      "v": 80
    },
    {
      "midi": 45,
      "hit": false,
      "t": 55200,
      "d": 450,
      "v": 80
    },
    {
      "midi": 86,
      "hit": false,
      "t": 55650,
      "d": 600,
      "v": 100
    },
    {
      "midi": 83,
      "hit": false,
      "t": 55650,
      "d": 600,
      "v": 100
    },
    {
      "midi": 45,
      "hit": false,
      "t": 55650,
      "d": 450,
      "v": 80
    },
    {
      "midi": 45,
      "hit": false,
      "t": 56100,
      "d": 300,
      "v": 80
    },
    {
      "midi": 84,
      "hit": false,
      "t": 56250,
      "d": 450,
      "v": 100
    },
    {
      "midi": 81,
      "hit": false,
      "t": 56250,
      "d": 450,
      "v": 100
    },
    {
      "midi": 45,
      "hit": false,
      "t": 56400,
      "d": 450,
      "v": 80
    },
    {
      "midi": 86,
      "hit": false,
      "t": 56700,
      "d": 900,
      "v": 100
    },
    {
      "midi": 83,
      "hit": false,
      "t": 56700,
      "d": 900,
      "v": 100
    },
    {
      "midi": 45,
      "hit": false,
      "t": 56850,
      "d": 300,
      "v": 80
    },
    {
      "midi": 44,
      "hit": false,
      "t": 57150,
      "d": 150,
      "v": 80
    },
    {
      "midi": 45,
      "hit": false,
      "t": 57300,
      "d": 300,
      "v": 80
    },
    {
      "midi": 93,
      "hit": false,
      "t": 57600,
      "d": 600,
      "v": 100
    },
    {
      "midi": 98,
      "hit": false,
      "t": 57600,
      "d": 600,
      "v": 100
    },
    {
      "midi": 57,
      "hit": false,
      "t": 57600,
      "d": 1200,
      "v": 80
    },
    {
      "midi": 60,
      "hit": false,
      "t": 57900,
      "d": 900,
      "v": 80
    },
    {
      "midi": 64,
      "hit": false,
      "t": 58200,
      "d": 600,
      "v": 100
    },
    {
      "midi": 69,
      "hit": false,
      "t": 58500,
      "d": 300,
      "v": 100
    },
    {
      "midi": 103,
      "hit": false,
      "t": 58800,
      "d": 600,
      "v": 100
    },
    {
      "midi": 57,
      "hit": false,
      "t": 58800,
      "d": 1200,
      "v": 80
    },
    {
      "midi": 62,
      "hit": false,
      "t": 59100,
      "d": 900,
      "v": 80
    },
    {
      "midi": 101,
      "hit": false,
      "t": 59400,
      "d": 600,
      "v": 100
    },
    {
      "midi": 65,
      "hit": false,
      "t": 59400,
      "d": 600,
      "v": 80
    },
    {
      "midi": 69,
      "hit": false,
      "t": 59700,
      "d": 300,
      "v": 80
    },
    {
      "midi": 98,
      "hit": false,
      "t": 60000,
      "d": 600,
      "v": 100
    },
    {
      "midi": 56,
      "hit": false,
      "t": 60000,
      "d": 1200,
      "v": 80
    },
    {
      "midi": 59,
      "hit": false,
      "t": 60300,
      "d": 900,
      "v": 80
    },
    {
      "midi": 62,
      "hit": false,
      "t": 60600,
      "d": 600,
      "v": 80
    },
    {
      "midi": 65,
      "hit": false,
      "t": 60900,
      "d": 300,
      "v": 80
    },
    {
      "midi": 57,
      "hit": false,
      "t": 61200,
      "d": 1200,
      "v": 80
    },
    {
      "midi": 60,
      "hit": false,
      "t": 61500,
      "d": 900,
      "v": 80
    },
    {
      "midi": 64,
      "hit": false,
      "t": 61800,
      "d": 600,
      "v": 80
    },
    {
      "midi": 69,
      "hit": false,
      "t": 62100,
      "d": 300,
      "v": 80
    },
    {
      "midi": 98,
      "hit": false,
      "t": 62400,
      "d": 600,
      "v": 100
    },
    {
      "midi": 93,
      "hit": false,
      "t": 62400,
      "d": 600,
      "v": 100
    },
    {
      "midi": 53,
      "hit": false,
      "t": 62400,
      "d": 1200,
      "v": 80
    },
    {
      "midi": 57,
      "hit": false,
      "t": 62700,
      "d": 900,
      "v": 80
    },
    {
      "midi": 60,
      "hit": false,
      "t": 63000,
      "d": 600,
      "v": 80
    },
    {
      "midi": 65,
      "hit": false,
      "t": 63300,
      "d": 300,
      "v": 80
    },
    {
      "midi": 96,
      "hit": false,
      "t": 63600,
      "d": 600,
      "v": 100
    },
    {
      "midi": 55,
      "hit": false,
      "t": 63600,
      "d": 1200,
      "v": 80
    },
    {
      "midi": 59,
      "hit": false,
      "t": 63900,
      "d": 900,
      "v": 80
    },
    {
      "midi": 95,
      "hit": false,
      "t": 64200,
      "d": 600,
      "v": 100
    },
    {
      "midi": 62,
      "hit": false,
      "t": 64200,
      "d": 600,
      "v": 80
    },
    {
      "midi": 64,
      "hit": false,
      "t": 64500,
      "d": 300,
      "v": 80
    },
    {
      "midi": 96,
      "hit": false,
      "t": 64800,
      "d": 2400,
      "v": 100
    },
    {
      "midi": 57,
      "hit": false,
      "t": 64800,
      "d": 2400,
      "v": 80
    },
    {
      "midi": 60,
      "hit": false,
      "t": 65100,
      "d": 2100,
      "v": 80
    },
    {
      "midi": 64,
      "hit": false,
      "t": 65400,
      "d": 1800,
      "v": 80
    },
    {
      "midi": 69,
      "hit": false,
      "t": 65700,
      "d": 1500,
      "v": 80
    },
    {
      "midi": 72,
      "hit": false,
      "t": 66000,
      "d": 1200,
      "v": 80
    },
    {
      "midi": 76,
      "hit": false,
      "t": 66300,
      "d": 900,
      "v": 80
    },
    {
      "midi": 81,
      "hit": false,
      "t": 66600,
      "d": 600,
      "v": 80
    },
    {
      "midi": 84,
      "hit": false,
      "t": 66900,
      "d": 300,
      "v": 80
    },
    {
      "midi": 93,
      "hit": false,
      "t": 67200,
      "d": 600,
      "v": 100
    },
    {
      "midi": 98,
      "hit": false,
      "t": 67200,
      "d": 600,
      "v": 100
    },
    {
      "midi": 57,
      "hit": false,
      "t": 67200,
      "d": 1200,
      "v": 80
    },
    {
      "midi": 60,
      "hit": false,
      "t": 67500,
      "d": 900,
      "v": 80
    },
    {
      "midi": 64,
      "hit": false,
      "t": 67800,
      "d": 600,
      "v": 100
    },
    {
      "midi": 69,
      "hit": false,
      "t": 68100,
      "d": 300,
      "v": 100
    },
    {
      "midi": 103,
      "hit": false,
      "t": 68400,
      "d": 600,
      "v": 100
    },
    {
      "midi": 57,
      "hit": false,
      "t": 68400,
      "d": 1200,
      "v": 80
    },
    {
      "midi": 62,
      "hit": false,
      "t": 68700,
      "d": 900,
      "v": 80
    },
    {
      "midi": 101,
      "hit": false,
      "t": 69000,
      "d": 600,
      "v": 100
    },
    {
      "midi": 65,
      "hit": false,
      "t": 69000,
      "d": 600,
      "v": 80
    },
    {
      "midi": 69,
      "hit": false,
      "t": 69300,
      "d": 300,
      "v": 80
    },
    {
      "midi": 98,
      "hit": false,
      "t": 69600,
      "d": 600,
      "v": 100
    },
    {
      "midi": 56,
      "hit": false,
      "t": 69600,
      "d": 1200,
      "v": 80
    },
    {
      "midi": 59,
      "hit": false,
      "t": 69900,
      "d": 900,
      "v": 80
    },
    {
      "midi": 62,
      "hit": false,
      "t": 70200,
      "d": 600,
      "v": 80
    },
    {
      "midi": 65,
      "hit": false,
      "t": 70500,
      "d": 300,
      "v": 80
    },
    {
      "midi": 57,
      "hit": false,
      "t": 70800,
      "d": 1200,
      "v": 80
    },
    {
      "midi": 60,
      "hit": false,
      "t": 71100,
      "d": 900,
      "v": 80
    },
    {
      "midi": 64,
      "hit": false,
      "t": 71400,
      "d": 600,
      "v": 80
    },
    {
      "midi": 69,
      "hit": false,
      "t": 71700,
      "d": 300,
      "v": 80
    },
    {
      "midi": 98,
      "hit": false,
      "t": 72000,
      "d": 600,
      "v": 100
    },
    {
      "midi": 93,
      "hit": false,
      "t": 72000,
      "d": 600,
      "v": 100
    },
    {
      "midi": 53,
      "hit": false,
      "t": 72000,
      "d": 1200,
      "v": 80
    },
    {
      "midi": 57,
      "hit": false,
      "t": 72300,
      "d": 900,
      "v": 80
    },
    {
      "midi": 60,
      "hit": false,
      "t": 72600,
      "d": 600,
      "v": 80
    },
    {
      "midi": 65,
      "hit": false,
      "t": 72900,
      "d": 300,
      "v": 80
    },
    {
      "midi": 96,
      "hit": false,
      "t": 73200,
      "d": 600,
      "v": 100
    },
    {
      "midi": 55,
      "hit": false,
      "t": 73200,
      "d": 1200,
      "v": 80
    },
    {
      "midi": 59,
      "hit": false,
      "t": 73500,
      "d": 900,
      "v": 80
    },
    {
      "midi": 95,
      "hit": false,
      "t": 73800,
      "d": 600,
      "v": 100
    },
    {
      "midi": 62,
      "hit": false,
      "t": 73800,
      "d": 600,
      "v": 80
    },
    {
      "midi": 64,
      "hit": false,
      "t": 74100,
      "d": 300,
      "v": 80
    },
    {
      "midi": 96,
      "hit": false,
      "t": 74400,
      "d": 2400,
      "v": 100
    },
    {
      "midi": 57,
      "hit": false,
      "t": 74400,
      "d": 2400,
      "v": 80
    },
    {
      "midi": 60,
      "hit": false,
      "t": 74700,
      "d": 2100,
      "v": 80
    },
    {
      "midi": 64,
      "hit": false,
      "t": 75000,
      "d": 1800,
      "v": 80
    },
    {
      "midi": 69,
      "hit": false,
      "t": 75300,
      "d": 1500,
      "v": 80
    },
    {
      "midi": 95,
      "hit": false,
      "t": 75600,
      "d": 75,
      "v": 100
    },
    {
      "midi": 72,
      "hit": false,
      "t": 75600,
      "d": 1200,
      "v": 80
    },
    {
      "midi": 94,
      "hit": false,
      "t": 75675,
      "d": 75,
      "v": 100
    },
    {
      "midi": 93,
      "hit": false,
      "t": 75750,
      "d": 75,
      "v": 100
    },
    {
      "midi": 92,
      "hit": false,
      "t": 75825,
      "d": 75,
      "v": 100
    },
    {
      "midi": 91,
      "hit": false,
      "t": 75900,
      "d": 75,
      "v": 100
    },
    {
      "midi": 76,
      "hit": false,
      "t": 75900,
      "d": 900,
      "v": 80
    },
    {
      "midi": 90,
      "hit": false,
      "t": 75975,
      "d": 75,
      "v": 100
    },
    {
      "midi": 89,
      "hit": false,
      "t": 76050,
      "d": 75,
      "v": 100
    },
    {
      "midi": 88,
      "hit": false,
      "t": 76125,
      "d": 75,
      "v": 100
    },
    {
      "midi": 87,
      "hit": false,
      "t": 76200,
      "d": 75,
      "v": 100
    },
    {
      "midi": 81,
      "hit": false,
      "t": 76200,
      "d": 600,
      "v": 80
    },
    {
      "midi": 86,
      "hit": false,
      "t": 76275,
      "d": 75,
      "v": 100
    },
    {
      "midi": 85,
      "hit": false,
      "t": 76350,
      "d": 75,
      "v": 100
    },
    {
      "midi": 89,
      "hit": false,
      "t": 76425,
      "d": 75,
      "v": 100
    },
    {
      "midi": 88,
      "hit": false,
      "t": 76500,
      "d": 75,
      "v": 100
    },
    {
      "midi": 84,
      "hit": false,
      "t": 76500,
      "d": 300,
      "v": 80
    },
    {
      "midi": 87,
      "hit": false,
      "t": 76575,
      "d": 75,
      "v": 100
    },
    {
      "midi": 86,
      "hit": false,
      "t": 76650,
      "d": 75,
      "v": 100
    },
    {
      "midi": 85,
      "hit": false,
      "t": 76725,
      "d": 75,
      "v": 100
    },
    {
      "midi": 79,
      "hit": false,
      "t": 76800,
      "d": 450,
      "v": 100
    },
    {
      "midi": 83,
      "hit": false,
      "t": 76800,
      "d": 450,
      "v": 100
    },
    {
      "midi": 64,
      "hit": false,
      "t": 76800,
      "d": 600,
      "v": 80
    },
    {
      "midi": 57,
      "hit": false,
      "t": 76800,
      "d": 1200,
      "v": 80
    },
    {
      "midi": 45,
      "hit": false,
      "t": 76800,
      "d": 450,
      "v": 80
    },
    {
      "midi": 60,
      "hit": false,
      "t": 77100,
      "d": 600,
      "v": 80
    },
    {
      "midi": 81,
      "hit": false,
      "t": 77250,
      "d": 450,
      "v": 100
    },
    {
      "midi": 84,
      "hit": false,
      "t": 77250,
      "d": 450,
      "v": 100
    },
    {
      "midi": 45,
      "hit": false,
      "t": 77250,
      "d": 450,
      "v": 80
    },
    {
      "midi": 64,
      "hit": false,
      "t": 77400,
      "d": 600,
      "v": 80
    },
    {
      "midi": 79,
      "hit": false,
      "t": 77700,
      "d": 300,
      "v": 100
    },
    {
      "midi": 83,
      "hit": false,
      "t": 77700,
      "d": 300,
      "v": 100
    },
    {
      "midi": 60,
      "hit": false,
      "t": 77700,
      "d": 300,
      "v": 80
    },
    {
      "midi": 45,
      "hit": false,
      "t": 77700,
      "d": 300,
      "v": 80
    },
    {
      "midi": 77,
      "hit": false,
      "t": 78000,
      "d": 600,
      "v": 100
    },
    {
      "midi": 81,
      "hit": false,
      "t": 78000,
      "d": 600,
      "v": 100
    },
    {
      "midi": 65,
      "hit": false,
      "t": 78000,
      "d": 1200,
      "v": 80
    },
    {
      "midi": 62,
      "hit": false,
      "t": 78000,
      "d": 1200,
      "v": 80
    },
    {
      "midi": 57,
      "hit": false,
      "t": 78000,
      "d": 1200,
      "v": 80
    },
    {
      "midi": 38,
      "hit": false,
      "t": 78000,
      "d": 450,
      "v": 80
    },
    {
      "midi": 38,
      "hit": false,
      "t": 78450,
      "d": 450,
      "v": 80
    },
    {
      "midi": 81,
      "hit": false,
      "t": 78600,
      "d": 600,
      "v": 100
    },
    {
      "midi": 86,
      "hit": false,
      "t": 78600,
      "d": 600,
      "v": 100
    },
    {
      "midi": 38,
      "hit": false,
      "t": 78900,
      "d": 300,
      "v": 80
    },
    {
      "midi": 84,
      "hit": false,
      "t": 79200,
      "d": 450,
      "v": 100
    },
    {
      "midi": 88,
      "hit": false,
      "t": 79200,
      "d": 450,
      "v": 100
    },
    {
      "midi": 56,
      "hit": false,
      "t": 79200,
      "d": 1200,
      "v": 80
    },
    {
      "midi": 65,
      "hit": false,
      "t": 79200,
      "d": 1200,
      "v": 80
    },
    {
      "midi": 59,
      "hit": false,
      "t": 79200,
      "d": 1200,
      "v": 80
    },
    {
      "midi": 40,
      "hit": false,
      "t": 79200,
      "d": 450,
      "v": 80
    },
    {
      "midi": 62,
      "hit": false,
      "t": 79500,
      "d": 600,
      "v": 80
    },
    {
      "midi": 83,
      "hit": false,
      "t": 79650,
      "d": 450,
      "v": 100
    },
    {
      "midi": 86,
      "hit": false,
      "t": 79650,
      "d": 450,
      "v": 100
    },
    {
      "midi": 40,
      "hit": false,
      "t": 79650,
      "d": 450,
      "v": 80
    },
    {
      "midi": 81,
      "hit": false,
      "t": 80100,
      "d": 300,
      "v": 100
    },
    {
      "midi": 84,
      "hit": false,
      "t": 80100,
      "d": 300,
      "v": 100
    },
    {
      "midi": 64,
      "hit": false,
      "t": 80100,
      "d": 300,
      "v": 80
    },
    {
      "midi": 40,
      "hit": false,
      "t": 80100,
      "d": 300,
      "v": 80
    },
    {
      "midi": 81,
      "hit": false,
      "t": 80400,
      "d": 1200,
      "v": 100
    },
    {
      "midi": 84,
      "hit": false,
      "t": 80400,
      "d": 1200,
      "v": 100
    },
    {
      "midi": 57,
      "hit": false,
      "t": 80400,
      "d": 1200,
      "v": 80
    },
    {
      "midi": 64,
      "hit": false,
      "t": 80400,
      "d": 1200,
      "v": 80
    },
    {
      "midi": 60,
      "hit": false,
      "t": 80400,
      "d": 1200,
      "v": 80
    },
    {
      "midi": 45,
      "hit": false,
      "t": 80400,
      "d": 450,
      "v": 80
    },
    {
      "midi": 45,
      "hit": false,
      "t": 80850,
      "d": 450,
      "v": 80
    },
    {
      "midi": 45,
      "hit": false,
      "t": 81300,
      "d": 300,
      "v": 80
    },
    {
      "midi": 89,
      "hit": false,
      "t": 81600,
      "d": 450,
      "v": 100
    },
    {
      "midi": 86,
      "hit": false,
      "t": 81600,
      "d": 450,
      "v": 100
    },
    {
      "midi": 60,
      "hit": false,
      "t": 81600,
      "d": 600,
      "v": 80
    },
    {
      "midi": 53,
      "hit": false,
      "t": 81600,
      "d": 1200,
      "v": 80
    },
    {
      "midi": 41,
      "hit": false,
      "t": 81600,
      "d": 450,
      "v": 80
    },
    {
      "midi": 57,
      "hit": false,
      "t": 81900,
      "d": 600,
      "v": 80
    },
    {
      "midi": 84,
      "hit": false,
      "t": 82050,
      "d": 450,
      "v": 100
    },
    {
      "midi": 88,
      "hit": false,
      "t": 82050,
      "d": 450,
      "v": 100
    },
    {
      "midi": 41,
      "hit": false,
      "t": 82050,
      "d": 450,
      "v": 80
    },
    {
      "midi": 60,
      "hit": false,
      "t": 82200,
      "d": 600,
      "v": 80
    },
    {
      "midi": 84,
      "hit": false,
      "t": 82500,
      "d": 600,
      "v": 100
    },
    {
      "midi": 81,
      "hit": false,
      "t": 82500,
      "d": 900,
      "v": 100
    },
    {
      "midi": 57,
      "hit": false,
      "t": 82500,
      "d": 300,
      "v": 80
    },
    {
      "midi": 41,
      "hit": false,
      "t": 82500,
      "d": 300,
      "v": 80
    },
    {
      "midi": 79,
      "hit": false,
      "t": 82650,
      "d": 300,
      "v": 100
    },
    {
      "midi": 62,
      "hit": false,
      "t": 82800,
      "d": 600,
      "v": 80
    },
    {
      "midi": 59,
      "hit": false,
      "t": 82800,
      "d": 1200,
      "v": 80
    },
    {
      "midi": 55,
      "hit": false,
      "t": 82800,
      "d": 1200,
      "v": 80
    },
    {
      "midi": 43,
      "hit": false,
      "t": 82800,
      "d": 450,
      "v": 80
    },
    {
      "midi": 79,
      "hit": false,
      "t": 82950,
      "d": 300,
      "v": 100
    },
    {
      "midi": 83,
      "hit": false,
      "t": 83100,
      "d": 300,
      "v": 100
    },
    {
      "midi": 86,
      "hit": false,
      "t": 83250,
      "d": 900,
      "v": 100
    },
    {
      "midi": 43,
      "hit": false,
      "t": 83250,
      "d": 450,
      "v": 80
    },
    {
      "midi": 64,
      "hit": false,
      "t": 83400,
      "d": 600,
      "v": 80
    },
    {
      "midi": 84,
      "hit": false,
      "t": 83700,
      "d": 300,
      "v": 100
    },
    {
      "midi": 43,
      "hit": false,
      "t": 83700,
      "d": 150,
      "v": 80
    },
    {
      "midi": 43,
      "hit": false,
      "t": 83850,
      "d": 150,
      "v": 80
    },
    {
      "midi": 84,
      "hit": false,
      "t": 84000,
      "d": 750,
      "v": 100
    },
    {
      "midi": 57,
      "hit": false,
      "t": 84000,
      "d": 2400,
      "v": 80
    },
    {
      "midi": 60,
      "hit": false,
      "t": 84000,
      "d": 2400,
      "v": 80
    },
    {
      "midi": 64,
      "hit": false,
      "t": 84000,
      "d": 2400,
      "v": 80
    },
    {
      "midi": 45,
      "hit": false,
      "t": 84000,
      "d": 450,
      "v": 80
    },
    {
      "midi": 88,
      "hit": false,
      "t": 84150,
      "d": 300,
      "v": 100
    },
    {
      "midi": 86,
      "hit": false,
      "t": 84450,
      "d": 300,
      "v": 100
    },
    {
      "midi": 45,
      "hit": false,
      "t": 84450,
      "d": 450,
      "v": 80
    },
    {
      "midi": 88,
      "hit": false,
      "t": 84750,
      "d": 150,
      "v": 100
    },
    {
      "midi": 84,
      "hit": false,
      "t": 84750,
      "d": 150,
      "v": 100
    },
    {
      "midi": 81,
      "hit": false,
      "t": 84900,
      "d": 900,
      "v": 100
    },
    {
      "midi": 84,
      "hit": false,
      "t": 84900,
      "d": 900,
      "v": 100
    },
    {
      "midi": 45,
      "hit": false,
      "t": 84900,
      "d": 300,
      "v": 80
    },
    {
      "midi": 45,
      "hit": false,
      "t": 85200,
      "d": 450,
      "v": 80
    },
    {
      "midi": 86,
      "hit": false,
      "t": 85500,
      "d": 300,
      "v": 100
    },
    {
      "midi": 45,
      "hit": false,
      "t": 85650,
      "d": 300,
      "v": 80
    },
    {
      "midi": 84,
      "hit": false,
      "t": 85800,
      "d": 300,
      "v": 100
    },
    {
      "midi": 83,
      "hit": false,
      "t": 85950,
      "d": 300,
      "v": 100
    },
    {
      "midi": 44,
      "hit": false,
      "t": 85950,
      "d": 150,
      "v": 80
    },
    {
      "midi": 84,
      "hit": false,
      "t": 86100,
      "d": 300,
      "v": 100
    },
    {
      "midi": 45,
      "hit": false,
      "t": 86100,
      "d": 300,
      "v": 80
    },
    {
      "midi": 86,
      "hit": false,
      "t": 86400,
      "d": 450,
      "v": 100
    },
    {
      "midi": 89,
      "hit": false,
      "t": 86400,
      "d": 450,
      "v": 100
    },
    {
      "midi": 60,
      "hit": false,
      "t": 86400,
      "d": 600,
      "v": 80
    },
    {
      "midi": 53,
      "hit": false,
      "t": 86400,
      "d": 1200,
      "v": 80
    },
    {
      "midi": 41,
      "hit": false,
      "t": 86400,
      "d": 450,
      "v": 80
    },
    {
      "midi": 57,
      "hit": false,
      "t": 86700,
      "d": 600,
      "v": 80
    },
    {
      "midi": 88,
      "hit": false,
      "t": 86850,
      "d": 900,
      "v": 100
    },
    {
      "midi": 84,
      "hit": false,
      "t": 86850,
      "d": 900,
      "v": 100
    },
    {
      "midi": 41,
      "hit": false,
      "t": 86850,
      "d": 450,
      "v": 80
    },
    {
      "midi": 60,
      "hit": false,
      "t": 87000,
      "d": 600,
      "v": 80
    },
    {
      "midi": 81,
      "hit": false,
      "t": 87300,
      "d": 900,
      "v": 100
    },
    {
      "midi": 57,
      "hit": false,
      "t": 87300,
      "d": 300,
      "v": 80
    },
    {
      "midi": 41,
      "hit": false,
      "t": 87300,
      "d": 300,
      "v": 80
    },
    {
      "midi": 79,
      "hit": false,
      "t": 87450,
      "d": 300,
      "v": 100
    },
    {
      "midi": 62,
      "hit": false,
      "t": 87600,
      "d": 600,
      "v": 80
    },
    {
      "midi": 59,
      "hit": false,
      "t": 87600,
      "d": 1200,
      "v": 80
    },
    {
      "midi": 55,
      "hit": false,
      "t": 87600,
      "d": 1200,
      "v": 80
    },
    {
      "midi": 43,
      "hit": false,
      "t": 87600,
      "d": 450,
      "v": 80
    },
    {
      "midi": 79,
      "hit": false,
      "t": 87750,
      "d": 300,
      "v": 100
    },
    {
      "midi": 83,
      "hit": false,
      "t": 87900,
      "d": 300,
      "v": 100
    },
    {
      "midi": 86,
      "hit": false,
      "t": 88050,
      "d": 900,
      "v": 100
    },
    {
      "midi": 43,
      "hit": false,
      "t": 88050,
      "d": 450,
      "v": 80
    },
    {
      "midi": 64,
      "hit": false,
      "t": 88200,
      "d": 600,
      "v": 80
    },
    {
      "midi": 84,
      "hit": false,
      "t": 88500,
      "d": 300,
      "v": 100
    },
    {
      "midi": 43,
      "hit": false,
      "t": 88500,
      "d": 150,
      "v": 80
    },
    {
      "midi": 43,
      "hit": false,
      "t": 88650,
      "d": 150,
      "v": 80
    },
    {
      "midi": 84,
      "hit": false,
      "t": 88800,
      "d": 900,
      "v": 100
    },
    {
      "midi": 60,
      "hit": false,
      "t": 88800,
      "d": 2400,
      "v": 80
    },
    {
      "midi": 57,
      "hit": false,
      "t": 88800,
      "d": 2400,
      "v": 80
    },
    {
      "midi": 64,
      "hit": false,
      "t": 88800,
      "d": 2400,
      "v": 80
    },
    {
      "midi": 45,
      "hit": false,
      "t": 88800,
      "d": 450,
      "v": 80
    },
    {
      "midi": 88,
      "hit": false,
      "t": 88950,
      "d": 300,
      "v": 100
    },
    {
      "midi": 89,
      "hit": false,
      "t": 89250,
      "d": 300,
      "v": 100
    },
    {
      "midi": 45,
      "hit": false,
      "t": 89250,
      "d": 450,
      "v": 80
    },
    {
      "midi": 88,
      "hit": false,
      "t": 89550,
      "d": 300,
      "v": 100
    },
    {
      "midi": 81,
      "hit": false,
      "t": 89700,
      "d": 900,
      "v": 100
    },
    {
      "midi": 45,
      "hit": false,
      "t": 89700,
      "d": 300,
      "v": 80
    },
    {
      "midi": 86,
      "hit": false,
      "t": 89850,
      "d": 450,
      "v": 100
    },
    {
      "midi": 45,
      "hit": false,
      "t": 90000,
      "d": 450,
      "v": 80
    },
    {
      "midi": 86,
      "hit": false,
      "t": 90300,
      "d": 300,
      "v": 100
    },
    {
      "midi": 45,
      "hit": false,
      "t": 90450,
      "d": 300,
      "v": 80
    },
    {
      "midi": 84,
      "hit": false,
      "t": 90600,
      "d": 300,
      "v": 100
    },
    {
      "midi": 83,
      "hit": false,
      "t": 90750,
      "d": 300,
      "v": 100
    },
    {
      "midi": 44,
      "hit": false,
      "t": 90750,
      "d": 150,
      "v": 80
    },
    {
      "midi": 84,
      "hit": false,
      "t": 90900,
      "d": 300,
      "v": 100
    },
    {
      "midi": 45,
      "hit": false,
      "t": 90900,
      "d": 300,
      "v": 80
    },
    {
      "midi": 86,
      "hit": false,
      "t": 91200,
      "d": 450,
      "v": 100
    },
    {
      "midi": 89,
      "hit": false,
      "t": 91200,
      "d": 450,
      "v": 100
    },
    {
      "midi": 60,
      "hit": false,
      "t": 91200,
      "d": 600,
      "v": 80
    },
    {
      "midi": 53,
      "hit": false,
      "t": 91200,
      "d": 1200,
      "v": 80
    },
    {
      "midi": 41,
      "hit": false,
      "t": 91200,
      "d": 450,
      "v": 80
    },
    {
      "midi": 57,
      "hit": false,
      "t": 91500,
      "d": 600,
      "v": 80
    },
    {
      "midi": 88,
      "hit": false,
      "t": 91650,
      "d": 900,
      "v": 100
    },
    {
      "midi": 84,
      "hit": false,
      "t": 91650,
      "d": 900,
      "v": 100
    },
    {
      "midi": 41,
      "hit": false,
      "t": 91650,
      "d": 450,
      "v": 80
    },
    {
      "midi": 60,
      "hit": false,
      "t": 91800,
      "d": 600,
      "v": 80
    },
    {
      "midi": 81,
      "hit": false,
      "t": 92100,
      "d": 900,
      "v": 100
    },
    {
      "midi": 57,
      "hit": false,
      "t": 92100,
      "d": 300,
      "v": 80
    },
    {
      "midi": 41,
      "hit": false,
      "t": 92100,
      "d": 300,
      "v": 80
    },
    {
      "midi": 79,
      "hit": false,
      "t": 92250,
      "d": 300,
      "v": 100
    },
    {
      "midi": 62,
      "hit": false,
      "t": 92400,
      "d": 600,
      "v": 80
    },
    {
      "midi": 59,
      "hit": false,
      "t": 92400,
      "d": 1200,
      "v": 80
    },
    {
      "midi": 55,
      "hit": false,
      "t": 92400,
      "d": 1200,
      "v": 80
    },
    {
      "midi": 43,
      "hit": false,
      "t": 92400,
      "d": 450,
      "v": 80
    },
    {
      "midi": 79,
      "hit": false,
      "t": 92550,
      "d": 300,
      "v": 100
    },
    {
      "midi": 83,
      "hit": false,
      "t": 92700,
      "d": 300,
      "v": 100
    },
    {
      "midi": 86,
      "hit": false,
      "t": 92850,
      "d": 750,
      "v": 100
    },
    {
      "midi": 43,
      "hit": false,
      "t": 92850,
      "d": 450,
      "v": 80
    },
    {
      "midi": 64,
      "hit": false,
      "t": 93000,
      "d": 600,
      "v": 80
    },
    {
      "midi": 84,
      "hit": false,
      "t": 93300,
      "d": 300,
      "v": 100
    },
    {
      "midi": 43,
      "hit": false,
      "t": 93300,
      "d": 150,
      "v": 80
    },
    {
      "midi": 43,
      "hit": false,
      "t": 93450,
      "d": 150,
      "v": 80
    },
    {
      "midi": 88,
      "hit": false,
      "t": 93600,
      "d": 450,
      "v": 100
    },
    {
      "midi": 84,
      "hit": false,
      "t": 93600,
      "d": 450,
      "v": 100
    },
    {
      "midi": 60,
      "hit": false,
      "t": 93600,
      "d": 2400,
      "v": 80
    },
    {
      "midi": 52,
      "hit": false,
      "t": 93600,
      "d": 2400,
      "v": 80
    },
    {
      "midi": 57,
      "hit": false,
      "t": 93600,
      "d": 2400,
      "v": 80
    },
    {
      "midi": 45,
      "hit": false,
      "t": 93600,
      "d": 450,
      "v": 80
    },
    {
      "midi": 86,
      "hit": false,
      "t": 94050,
      "d": 600,
      "v": 100
    },
    {
      "midi": 83,
      "hit": false,
      "t": 94050,
      "d": 600,
      "v": 100
    },
    {
      "midi": 45,
      "hit": false,
      "t": 94050,
      "d": 450,
      "v": 80
    },
    {
      "midi": 45,
      "hit": false,
      "t": 94500,
      "d": 300,
      "v": 80
    },
    {
      "midi": 84,
      "hit": false,
      "t": 94650,
      "d": 450,
      "v": 100
    },
    {
      "midi": 81,
      "hit": false,
      "t": 94650,
      "d": 450,
      "v": 100
    },
    {
      "midi": 45,
      "hit": false,
      "t": 94800,
      "d": 450,
      "v": 80
    },
    {
      "midi": 86,
      "hit": false,
      "t": 95100,
      "d": 900,
      "v": 100
    },
    {
      "midi": 83,
      "hit": false,
      "t": 95100,
      "d": 900,
      "v": 100
    },
    {
      "midi": 45,
      "hit": false,
      "t": 95250,
      "d": 300,
      "v": 80
    },
    {
      "midi": 44,
      "hit": false,
      "t": 95550,
      "d": 150,
      "v": 80
    },
    {
      "midi": 45,
      "hit": false,
      "t": 95700,
      "d": 300,
      "v": 80
    },
    {
      "midi": 76,
      "hit": false,
      "t": 96000,
      "d": 450,
      "v": 100
    },
    {
      "midi": 79,
      "hit": false,
      "t": 96000,
      "d": 450,
      "v": 100
    },
    {
      "midi": 60,
      "hit": false,
      "t": 96000,
      "d": 600,
      "v": 80
    },
    {
      "midi": 53,
      "hit": false,
      "t": 96000,
      "d": 1200,
      "v": 80
    },
    {
      "midi": 41,
      "hit": false,
      "t": 96000,
      "d": 450,
      "v": 80
    },
    {
      "midi": 57,
      "hit": false,
      "t": 96300,
      "d": 600,
      "v": 80
    },
    {
      "midi": 77,
      "hit": false,
      "t": 96450,
      "d": 450,
      "v": 100
    },
    {
      "midi": 81,
      "hit": false,
      "t": 96450,
      "d": 450,
      "v": 100
    },
    {
      "midi": 41,
      "hit": false,
      "t": 96450,
      "d": 450,
      "v": 80
    },
    {
      "midi": 60,
      "hit": false,
      "t": 96600,
      "d": 600,
      "v": 80
    },
    {
      "midi": 76,
      "hit": false,
      "t": 96900,
      "d": 300,
      "v": 100
    },
    {
      "midi": 79,
      "hit": false,
      "t": 96900,
      "d": 300,
      "v": 100
    },
    {
      "midi": 57,
      "hit": false,
      "t": 96900,
      "d": 300,
      "v": 80
    },
    {
      "midi": 41,
      "hit": false,
      "t": 96900,
      "d": 300,
      "v": 80
    },
    {
      "midi": 74,
      "hit": false,
      "t": 97200,
      "d": 600,
      "v": 100
    },
    {
      "midi": 77,
      "hit": false,
      "t": 97200,
      "d": 600,
      "v": 100
    },
    {
      "midi": 62,
      "hit": false,
      "t": 97200,
      "d": 1200,
      "v": 80
    },
    {
      "midi": 59,
      "hit": false,
      "t": 97200,
      "d": 1200,
      "v": 80
    },
    {
      "midi": 53,
      "hit": false,
      "t": 97200,
      "d": 1200,
      "v": 80
    },
    {
      "midi": 35,
      "hit": false,
      "t": 97200,
      "d": 450,
      "v": 80
    },
    {
      "midi": 35,
      "hit": false,
      "t": 97650,
      "d": 450,
      "v": 80
    },
    {
      "midi": 77,
      "hit": false,
      "t": 97800,
      "d": 600,
      "v": 100
    },
    {
      "midi": 83,
      "hit": false,
      "t": 97800,
      "d": 600,
      "v": 100
    },
    {
      "midi": 35,
      "hit": false,
      "t": 98100,
      "d": 300,
      "v": 80
    },
    {
      "midi": 81,
      "hit": false,
      "t": 98400,
      "d": 450,
      "v": 100
    },
    {
      "midi": 84,
      "hit": false,
      "t": 98400,
      "d": 450,
      "v": 100
    },
    {
      "midi": 52,
      "hit": false,
      "t": 98400,
      "d": 1200,
      "v": 80
    },
    {
      "midi": 62,
      "hit": false,
      "t": 98400,
      "d": 1200,
      "v": 80
    },
    {
      "midi": 55,
      "hit": false,
      "t": 98400,
      "d": 1200,
      "v": 80
    },
    {
      "midi": 36,
      "hit": false,
      "t": 98400,
      "d": 450,
      "v": 80
    },
    {
      "midi": 59,
      "hit": false,
      "t": 98700,
      "d": 600,
      "v": 80
    },
    {
      "midi": 79,
      "hit": false,
      "t": 98850,
      "d": 450,
      "v": 100
    },
    {
      "midi": 83,
      "hit": false,
      "t": 98850,
      "d": 450,
      "v": 100
    },
    {
      "midi": 36,
      "hit": false,
      "t": 98850,
      "d": 450,
      "v": 80
    },
    {
      "midi": 77,
      "hit": false,
      "t": 99300,
      "d": 300,
      "v": 100
    },
    {
      "midi": 81,
      "hit": false,
      "t": 99300,
      "d": 300,
      "v": 100
    },
    {
      "midi": 60,
      "hit": false,
      "t": 99300,
      "d": 300,
      "v": 80
    },
    {
      "midi": 36,
      "hit": false,
      "t": 99300,
      "d": 300,
      "v": 80
    },
    {
      "midi": 77,
      "hit": false,
      "t": 99600,
      "d": 1200,
      "v": 100
    },
    {
      "midi": 81,
      "hit": false,
      "t": 99600,
      "d": 1200,
      "v": 100
    },
    {
      "midi": 53,
      "hit": false,
      "t": 99600,
      "d": 1200,
      "v": 80
    },
    {
      "midi": 60,
      "hit": false,
      "t": 99600,
      "d": 1200,
      "v": 80
    },
    {
      "midi": 57,
      "hit": false,
      "t": 99600,
      "d": 1200,
      "v": 80
    },
    {
      "midi": 41,
      "hit": false,
      "t": 99600,
      "d": 450,
      "v": 80
    },
    {
      "midi": 41,
      "hit": false,
      "t": 100050,
      "d": 450,
      "v": 80
    },
    {
      "midi": 41,
      "hit": false,
      "t": 100500,
      "d": 300,
      "v": 80
    },
    {
      "midi": 86,
      "hit": false,
      "t": 100800,
      "d": 450,
      "v": 100
    },
    {
      "midi": 83,
      "hit": false,
      "t": 100800,
      "d": 450,
      "v": 100
    },
    {
      "midi": 57,
      "hit": false,
      "t": 100800,
      "d": 600,
      "v": 80
    },
    {
      "midi": 50,
      "hit": false,
      "t": 100800,
      "d": 1200,
      "v": 80
    },
    {
      "midi": 38,
      "hit": false,
      "t": 100800,
      "d": 450,
      "v": 80
    },
    {
      "midi": 53,
      "hit": false,
      "t": 101100,
      "d": 600,
      "v": 80
    },
    {
      "midi": 81,
      "hit": false,
      "t": 101250,
      "d": 450,
      "v": 100
    },
    {
      "midi": 84,
      "hit": false,
      "t": 101250,
      "d": 450,
      "v": 100
    },
    {
      "midi": 38,
      "hit": false,
      "t": 101250,
      "d": 450,
      "v": 80
    },
    {
      "midi": 57,
      "hit": false,
      "t": 101400,
      "d": 600,
      "v": 80
    },
    {
      "midi": 81,
      "hit": false,
      "t": 101700,
      "d": 600,
      "v": 100
    },
    {
      "midi": 77,
      "hit": false,
      "t": 101700,
      "d": 900,
      "v": 100
    },
    {
      "midi": 53,
      "hit": false,
      "t": 101700,
      "d": 300,
      "v": 80
    },
    {
      "midi": 38,
      "hit": false,
      "t": 101700,
      "d": 300,
      "v": 80
    },
    {
      "midi": 76,
      "hit": false,
      "t": 101850,
      "d": 300,
      "v": 100
    },
    {
      "midi": 59,
      "hit": false,
      "t": 102000,
      "d": 600,
      "v": 80
    },
    {
      "midi": 55,
      "hit": false,
      "t": 102000,
      "d": 1200,
      "v": 80
    },
    {
      "midi": 52,
      "hit": false,
      "t": 102000,
      "d": 1200,
      "v": 80
    },
    {
      "midi": 40,
      "hit": false,
      "t": 102000,
      "d": 450,
      "v": 80
    },
    {
      "midi": 76,
      "hit": false,
      "t": 102150,
      "d": 300,
      "v": 100
    },
    {
      "midi": 79,
      "hit": false,
      "t": 102300,
      "d": 300,
      "v": 100
    },
    {
      "midi": 83,
      "hit": false,
      "t": 102450,
      "d": 900,
      "v": 100
    },
    {
      "midi": 40,
      "hit": false,
      "t": 102450,
      "d": 450,
      "v": 80
    },
    {
      "midi": 60,
      "hit": false,
      "t": 102600,
      "d": 600,
      "v": 80
    },
    {
      "midi": 81,
      "hit": false,
      "t": 102900,
      "d": 300,
      "v": 100
    },
    {
      "midi": 40,
      "hit": false,
      "t": 102900,
      "d": 150,
      "v": 80
    },
    {
      "midi": 40,
      "hit": false,
      "t": 103050,
      "d": 150,
      "v": 80
    },
    {
      "midi": 81,
      "hit": false,
      "t": 103200,
      "d": 750,
      "v": 100
    },
    {
      "midi": 53,
      "hit": false,
      "t": 103200,
      "d": 2400,
      "v": 80
    },
    {
      "midi": 57,
      "hit": false,
      "t": 103200,
      "d": 2400,
      "v": 80
    },
    {
      "midi": 60,
      "hit": false,
      "t": 103200,
      "d": 2400,
      "v": 80
    },
    {
      "midi": 41,
      "hit": false,
      "t": 103200,
      "d": 450,
      "v": 80
    },
    {
      "midi": 84,
      "hit": false,
      "t": 103350,
      "d": 300,
      "v": 100
    },
    {
      "midi": 83,
      "hit": false,
      "t": 103650,
      "d": 300,
      "v": 100
    },
    {
      "midi": 41,
      "hit": false,
      "t": 103650,
      "d": 450,
      "v": 80
    },
    {
      "midi": 84,
      "hit": false,
      "t": 103950,
      "d": 150,
      "v": 100
    },
    {
      "midi": 81,
      "hit": false,
      "t": 103950,
      "d": 150,
      "v": 100
    },
    {
      "midi": 77,
      "hit": false,
      "t": 104100,
      "d": 900,
      "v": 100
    },
    {
      "midi": 81,
      "hit": false,
      "t": 104100,
      "d": 900,
      "v": 100
    },
    {
      "midi": 41,
      "hit": false,
      "t": 104100,
      "d": 300,
      "v": 80
    },
    {
      "midi": 41,
      "hit": false,
      "t": 104400,
      "d": 450,
      "v": 80
    },
    {
      "midi": 83,
      "hit": false,
      "t": 104700,
      "d": 300,
      "v": 100
    },
    {
      "midi": 41,
      "hit": false,
      "t": 104850,
      "d": 300,
      "v": 80
    },
    {
      "midi": 81,
      "hit": false,
      "t": 105000,
      "d": 300,
      "v": 100
    },
    {
      "midi": 79,
      "hit": false,
      "t": 105150,
      "d": 300,
      "v": 100
    },
    {
      "midi": 40,
      "hit": false,
      "t": 105150,
      "d": 150,
      "v": 80
    },
    {
      "midi": 81,
      "hit": false,
      "t": 105300,
      "d": 300,
      "v": 100
    },
    {
      "midi": 41,
      "hit": false,
      "t": 105300,
      "d": 300,
      "v": 80
    },
    {
      "midi": 86,
      "hit": false,
      "t": 105600,
      "d": 450,
      "v": 100
    },
    {
      "midi": 83,
      "hit": false,
      "t": 105600,
      "d": 450,
      "v": 100
    },
    {
      "midi": 57,
      "hit": false,
      "t": 105600,
      "d": 600,
      "v": 80
    },
    {
      "midi": 50,
      "hit": false,
      "t": 105600,
      "d": 1200,
      "v": 80
    },
    {
      "midi": 38,
      "hit": false,
      "t": 105600,
      "d": 450,
      "v": 80
    },
    {
      "midi": 53,
      "hit": false,
      "t": 105900,
      "d": 600,
      "v": 80
    },
    {
      "midi": 81,
      "hit": false,
      "t": 106050,
      "d": 450,
      "v": 100
    },
    {
      "midi": 84,
      "hit": false,
      "t": 106050,
      "d": 450,
      "v": 100
    },
    {
      "midi": 38,
      "hit": false,
      "t": 106050,
      "d": 450,
      "v": 80
    },
    {
      "midi": 57,
      "hit": false,
      "t": 106200,
      "d": 600,
      "v": 80
    },
    {
      "midi": 81,
      "hit": false,
      "t": 106500,
      "d": 600,
      "v": 100
    },
    {
      "midi": 77,
      "hit": false,
      "t": 106500,
      "d": 900,
      "v": 100
    },
    {
      "midi": 53,
      "hit": false,
      "t": 106500,
      "d": 300,
      "v": 80
    },
    {
      "midi": 38,
      "hit": false,
      "t": 106500,
      "d": 300,
      "v": 80
    },
    {
      "midi": 76,
      "hit": false,
      "t": 106650,
      "d": 300,
      "v": 100
    },
    {
      "midi": 59,
      "hit": false,
      "t": 106800,
      "d": 600,
      "v": 80
    },
    {
      "midi": 55,
      "hit": false,
      "t": 106800,
      "d": 1200,
      "v": 80
    },
    {
      "midi": 52,
      "hit": false,
      "t": 106800,
      "d": 1200,
      "v": 80
    },
    {
      "midi": 40,
      "hit": false,
      "t": 106800,
      "d": 450,
      "v": 80
    },
    {
      "midi": 76,
      "hit": false,
      "t": 106950,
      "d": 300,
      "v": 100
    },
    {
      "midi": 79,
      "hit": false,
      "t": 107100,
      "d": 300,
      "v": 100
    },
    {
      "midi": 83,
      "hit": false,
      "t": 107250,
      "d": 900,
      "v": 100
    },
    {
      "midi": 40,
      "hit": false,
      "t": 107250,
      "d": 450,
      "v": 80
    },
    {
      "midi": 60,
      "hit": false,
      "t": 107400,
      "d": 600,
      "v": 80
    },
    {
      "midi": 81,
      "hit": false,
      "t": 107700,
      "d": 300,
      "v": 100
    },
    {
      "midi": 40,
      "hit": false,
      "t": 107700,
      "d": 150,
      "v": 80
    },
    {
      "midi": 40,
      "hit": false,
      "t": 107850,
      "d": 150,
      "v": 80
    },
    {
      "midi": 81,
      "hit": false,
      "t": 108000,
      "d": 750,
      "v": 100
    },
    {
      "midi": 53,
      "hit": false,
      "t": 108000,
      "d": 2400,
      "v": 80
    },
    {
      "midi": 57,
      "hit": false,
      "t": 108000,
      "d": 2400,
      "v": 80
    },
    {
      "midi": 60,
      "hit": false,
      "t": 108000,
      "d": 2400,
      "v": 80
    },
    {
      "midi": 41,
      "hit": false,
      "t": 108000,
      "d": 450,
      "v": 80
    },
    {
      "midi": 84,
      "hit": false,
      "t": 108150,
      "d": 300,
      "v": 100
    },
    {
      "midi": 83,
      "hit": false,
      "t": 108450,
      "d": 300,
      "v": 100
    },
    {
      "midi": 41,
      "hit": false,
      "t": 108450,
      "d": 450,
      "v": 80
    },
    {
      "midi": 84,
      "hit": false,
      "t": 108750,
      "d": 150,
      "v": 100
    },
    {
      "midi": 81,
      "hit": false,
      "t": 108750,
      "d": 150,
      "v": 100
    },
    {
      "midi": 77,
      "hit": false,
      "t": 108900,
      "d": 900,
      "v": 100
    },
    {
      "midi": 81,
      "hit": false,
      "t": 108900,
      "d": 900,
      "v": 100
    },
    {
      "midi": 41,
      "hit": false,
      "t": 108900,
      "d": 300,
      "v": 80
    },
    {
      "midi": 41,
      "hit": false,
      "t": 109200,
      "d": 450,
      "v": 80
    },
    {
      "midi": 83,
      "hit": false,
      "t": 109500,
      "d": 300,
      "v": 100
    },
    {
      "midi": 41,
      "hit": false,
      "t": 109650,
      "d": 300,
      "v": 80
    },
    {
      "midi": 81,
      "hit": false,
      "t": 109800,
      "d": 300,
      "v": 100
    },
    {
      "midi": 79,
      "hit": false,
      "t": 109950,
      "d": 300,
      "v": 100
    },
    {
      "midi": 40,
      "hit": false,
      "t": 109950,
      "d": 150,
      "v": 80
    },
    {
      "midi": 81,
      "hit": false,
      "t": 110100,
      "d": 300,
      "v": 100
    },
    {
      "midi": 41,
      "hit": false,
      "t": 110100,
      "d": 300,
      "v": 80
    },
    {
      "midi": 86,
      "hit": false,
      "t": 110400,
      "d": 450,
      "v": 100
    },
    {
      "midi": 83,
      "hit": false,
      "t": 110400,
      "d": 450,
      "v": 100
    },
    {
      "midi": 57,
      "hit": false,
      "t": 110400,
      "d": 600,
      "v": 80
    },
    {
      "midi": 50,
      "hit": false,
      "t": 110400,
      "d": 1200,
      "v": 80
    },
    {
      "midi": 38,
      "hit": false,
      "t": 110400,
      "d": 450,
      "v": 80
    },
    {
      "midi": 53,
      "hit": false,
      "t": 110700,
      "d": 600,
      "v": 80
    },
    {
      "midi": 81,
      "hit": false,
      "t": 110850,
      "d": 450,
      "v": 100
    },
    {
      "midi": 84,
      "hit": false,
      "t": 110850,
      "d": 450,
      "v": 100
    },
    {
      "midi": 38,
      "hit": false,
      "t": 110850,
      "d": 450,
      "v": 80
    },
    {
      "midi": 57,
      "hit": false,
      "t": 111000,
      "d": 600,
      "v": 80
    },
    {
      "midi": 81,
      "hit": false,
      "t": 111300,
      "d": 600,
      "v": 100
    },
    {
      "midi": 77,
      "hit": false,
      "t": 111300,
      "d": 900,
      "v": 100
    },
    {
      "midi": 53,
      "hit": false,
      "t": 111300,
      "d": 300,
      "v": 80
    },
    {
      "midi": 38,
      "hit": false,
      "t": 111300,
      "d": 300,
      "v": 80
    },
    {
      "midi": 76,
      "hit": false,
      "t": 111450,
      "d": 300,
      "v": 100
    },
    {
      "midi": 59,
      "hit": false,
      "t": 111600,
      "d": 600,
      "v": 80
    },
    {
      "midi": 55,
      "hit": false,
      "t": 111600,
      "d": 1200,
      "v": 80
    },
    {
      "midi": 52,
      "hit": false,
      "t": 111600,
      "d": 1200,
      "v": 80
    },
    {
      "midi": 40,
      "hit": false,
      "t": 111600,
      "d": 450,
      "v": 80
    },
    {
      "midi": 76,
      "hit": false,
      "t": 111750,
      "d": 300,
      "v": 100
    },
    {
      "midi": 79,
      "hit": false,
      "t": 111900,
      "d": 300,
      "v": 100
    },
    {
      "midi": 83,
      "hit": false,
      "t": 112050,
      "d": 450,
      "v": 100
    },
    {
      "midi": 40,
      "hit": false,
      "t": 112050,
      "d": 450,
      "v": 80
    },
    {
      "midi": 60,
      "hit": false,
      "t": 112200,
      "d": 600,
      "v": 80
    },
    {
      "midi": 86,
      "hit": false,
      "t": 112500,
      "d": 300,
      "v": 100
    },
    {
      "midi": 40,
      "hit": false,
      "t": 112500,
      "d": 150,
      "v": 80
    },
    {
      "midi": 40,
      "hit": false,
      "t": 112650,
      "d": 150,
      "v": 80
    },
    {
      "midi": 81,
      "hit": false,
      "t": 112800,
      "d": 600,
      "v": 100
    },
    {
      "midi": 53,
      "hit": false,
      "t": 112800,
      "d": 2400,
      "v": 80
    },
    {
      "midi": 57,
      "hit": false,
      "t": 112800,
      "d": 2400,
      "v": 80
    },
    {
      "midi": 60,
      "hit": false,
      "t": 112800,
      "d": 2400,
      "v": 80
    },
    {
      "midi": 41,
      "hit": false,
      "t": 112800,
      "d": 450,
      "v": 80
    },
    {
      "midi": 41,
      "hit": false,
      "t": 113250,
      "d": 450,
      "v": 80
    },
    {
      "midi": 79,
      "hit": false,
      "t": 113400,
      "d": 600,
      "v": 100
    },
    {
      "midi": 41,
      "hit": false,
      "t": 113700,
      "d": 300,
      "v": 80
    },
    {
      "midi": 77,
      "hit": false,
      "t": 114000,
      "d": 600,
      "v": 100
    },
    {
      "midi": 41,
      "hit": false,
      "t": 114000,
      "d": 450,
      "v": 80
    },
    {
      "midi": 41,
      "hit": false,
      "t": 114450,
      "d": 300,
      "v": 80
    },
    {
      "midi": 79,
      "hit": false,
      "t": 114600,
      "d": 600,
      "v": 100
    },
    {
      "midi": 40,
      "hit": false,
      "t": 114750,
      "d": 150,
      "v": 80
    },
    {
      "midi": 41,
      "hit": false,
      "t": 114900,
      "d": 300,
      "v": 80
    },
    {
      "midi": 64,
      "hit": false,
      "t": 115200,
      "d": 600,
      "v": 80
    },
    {
      "midi": 57,
      "hit": false,
      "t": 115200,
      "d": 1200,
      "v": 80
    },
    {
      "midi": 60,
      "hit": false,
      "t": 115500,
      "d": 600,
      "v": 80
    },
    {
      "midi": 81,
      "hit": false,
      "t": 115800,
      "d": 150,
      "v": 65
    },
    {
      "midi": 86,
      "hit": false,
      "t": 115800,
      "d": 150,
      "v": 65
    },
    {
      "midi": 64,
      "hit": false,
      "t": 115800,
      "d": 600,
      "v": 80
    },
    {
      "midi": 60,
      "hit": false,
      "t": 116100,
      "d": 300,
      "v": 80
    },
    {
      "midi": 84,
      "hit": false,
      "t": 116400,
      "d": 150,
      "v": 65
    },
    {
      "midi": 79,
      "hit": false,
      "t": 116400,
      "d": 150,
      "v": 65
    },
    {
      "midi": 65,
      "hit": false,
      "t": 116400,
      "d": 1200,
      "v": 80
    },
    {
      "midi": 62,
      "hit": false,
      "t": 116400,
      "d": 1200,
      "v": 80
    },
    {
      "midi": 57,
      "hit": false,
      "t": 116400,
      "d": 1200,
      "v": 80
    },
    {
      "midi": 81,
      "hit": false,
      "t": 117000,
      "d": 150,
      "v": 65
    },
    {
      "midi": 77,
      "hit": false,
      "t": 117000,
      "d": 150,
      "v": 65
    },
    {
      "midi": 59,
      "hit": false,
      "t": 117600,
      "d": 1200,
      "v": 80
    },
    {
      "midi": 65,
      "hit": false,
      "t": 117600,
      "d": 1200,
      "v": 80
    },
    {
      "midi": 56,
      "hit": false,
      "t": 117600,
      "d": 1200,
      "v": 80
    },
    {
      "midi": 62,
      "hit": false,
      "t": 117900,
      "d": 900,
      "v": 80
    },
    {
      "midi": 57,
      "hit": false,
      "t": 118800,
      "d": 1200,
      "v": 80
    },
    {
      "midi": 64,
      "hit": false,
      "t": 118800,
      "d": 1200,
      "v": 80
    },
    {
      "midi": 60,
      "hit": false,
      "t": 118800,
      "d": 1200,
      "v": 80
    },
    {
      "midi": 60,
      "hit": false,
      "t": 120000,
      "d": 600,
      "v": 80
    },
    {
      "midi": 53,
      "hit": false,
      "t": 120000,
      "d": 1200,
      "v": 80
    },
    {
      "midi": 57,
      "hit": false,
      "t": 120300,
      "d": 600,
      "v": 80
    },
    {
      "midi": 83,
      "hit": false,
      "t": 120600,
      "d": 150,
      "v": 65
    },
    {
      "midi": 77,
      "hit": false,
      "t": 120600,
      "d": 150,
      "v": 65
    },
    {
      "midi": 60,
      "hit": false,
      "t": 120600,
      "d": 600,
      "v": 80
    },
    {
      "midi": 57,
      "hit": false,
      "t": 120900,
      "d": 300,
      "v": 80
    },
    {
      "midi": 76,
      "hit": false,
      "t": 121200,
      "d": 150,
      "v": 65
    },
    {
      "midi": 81,
      "hit": false,
      "t": 121200,
      "d": 150,
      "v": 65
    },
    {
      "midi": 62,
      "hit": false,
      "t": 121200,
      "d": 600,
      "v": 80
    },
    {
      "midi": 59,
      "hit": false,
      "t": 121200,
      "d": 1200,
      "v": 80
    },
    {
      "midi": 55,
      "hit": false,
      "t": 121200,
      "d": 1200,
      "v": 80
    },
    {
      "midi": 79,
      "hit": false,
      "t": 121800,
      "d": 150,
      "v": 65
    },
    {
      "midi": 74,
      "hit": false,
      "t": 121800,
      "d": 150,
      "v": 65
    },
    {
      "midi": 64,
      "hit": false,
      "t": 121800,
      "d": 600,
      "v": 80
    },
    {
      "midi": 85,
      "hit": false,
      "t": 122400,
      "d": 150,
      "v": 63
    },
    {
      "midi": 81,
      "hit": false,
      "t": 122400,
      "d": 150,
      "v": 63
    },
    {
      "midi": 57,
      "hit": false,
      "t": 122400,
      "d": 2400,
      "v": 80
    },
    {
      "midi": 60,
      "hit": false,
      "t": 122400,
      "d": 2400,
      "v": 80
    },
    {
      "midi": 64,
      "hit": false,
      "t": 122400,
      "d": 2400,
      "v": 80
    },
    {
      "midi": 64,
      "hit": false,
      "t": 124800,
      "d": 600,
      "v": 80
    },
    {
      "midi": 57,
      "hit": false,
      "t": 124800,
      "d": 1200,
      "v": 80
    },
    {
      "midi": 60,
      "hit": false,
      "t": 125100,
      "d": 600,
      "v": 80
    },
    {
      "midi": 81,
      "hit": false,
      "t": 125400,
      "d": 150,
      "v": 65
    },
    {
      "midi": 86,
      "hit": false,
      "t": 125400,
      "d": 150,
      "v": 65
    },
    {
      "midi": 64,
      "hit": false,
      "t": 125400,
      "d": 600,
      "v": 80
    },
    {
      "midi": 60,
      "hit": false,
      "t": 125700,
      "d": 300,
      "v": 80
    },
    {
      "midi": 84,
      "hit": false,
      "t": 126000,
      "d": 150,
      "v": 65
    },
    {
      "midi": 79,
      "hit": false,
      "t": 126000,
      "d": 150,
      "v": 65
    },
    {
      "midi": 65,
      "hit": false,
      "t": 126000,
      "d": 1200,
      "v": 80
    },
    {
      "midi": 62,
      "hit": false,
      "t": 126000,
      "d": 1200,
      "v": 80
    },
    {
      "midi": 57,
      "hit": false,
      "t": 126000,
      "d": 1200,
      "v": 80
    },
    {
      "midi": 81,
      "hit": false,
      "t": 126600,
      "d": 150,
      "v": 65
    },
    {
      "midi": 77,
      "hit": false,
      "t": 126600,
      "d": 150,
      "v": 65
    },
    {
      "midi": 59,
      "hit": false,
      "t": 127200,
      "d": 1200,
      "v": 80
    },
    {
      "midi": 65,
      "hit": false,
      "t": 127200,
      "d": 1200,
      "v": 80
    },
    {
      "midi": 56,
      "hit": false,
      "t": 127200,
      "d": 1200,
      "v": 80
    },
    {
      "midi": 62,
      "hit": false,
      "t": 127500,
      "d": 900,
      "v": 80
    },
    {
      "midi": 57,
      "hit": false,
      "t": 128400,
      "d": 1200,
      "v": 80
    },
    {
      "midi": 64,
      "hit": false,
      "t": 128400,
      "d": 1200,
      "v": 80
    },
    {
      "midi": 60,
      "hit": false,
      "t": 128400,
      "d": 1200,
      "v": 80
    },
    {
      "midi": 60,
      "hit": false,
      "t": 129600,
      "d": 600,
      "v": 80
    },
    {
      "midi": 53,
      "hit": false,
      "t": 129600,
      "d": 1200,
      "v": 80
    },
    {
      "midi": 57,
      "hit": false,
      "t": 129900,
      "d": 600,
      "v": 80
    },
    {
      "midi": 83,
      "hit": false,
      "t": 130200,
      "d": 150,
      "v": 65
    },
    {
      "midi": 77,
      "hit": false,
      "t": 130200,
      "d": 150,
      "v": 65
    },
    {
      "midi": 60,
      "hit": false,
      "t": 130200,
      "d": 600,
      "v": 80
    },
    {
      "midi": 57,
      "hit": false,
      "t": 130500,
      "d": 300,
      "v": 80
    },
    {
      "midi": 76,
      "hit": false,
      "t": 130800,
      "d": 150,
      "v": 65
    },
    {
      "midi": 81,
      "hit": false,
      "t": 130800,
      "d": 150,
      "v": 65
    },
    {
      "midi": 62,
      "hit": false,
      "t": 130800,
      "d": 600,
      "v": 80
    },
    {
      "midi": 59,
      "hit": false,
      "t": 130800,
      "d": 1200,
      "v": 80
    },
    {
      "midi": 55,
      "hit": false,
      "t": 130800,
      "d": 1200,
      "v": 80
    },
    {
      "midi": 79,
      "hit": false,
      "t": 131400,
      "d": 150,
      "v": 65
    },
    {
      "midi": 74,
      "hit": false,
      "t": 131400,
      "d": 150,
      "v": 65
    },
    {
      "midi": 64,
      "hit": false,
      "t": 131400,
      "d": 600,
      "v": 80
    },
    {
      "midi": 85,
      "hit": false,
      "t": 132000,
      "d": 150,
      "v": 63
    },
    {
      "midi": 81,
      "hit": false,
      "t": 132000,
      "d": 150,
      "v": 63
    },
    {
      "midi": 57,
      "hit": false,
      "t": 132000,
      "d": 6000,
      "v": 80
    },
    {
      "midi": 60,
      "hit": false,
      "t": 132000,
      "d": 6000,
      "v": 80
    },
    {
      "midi": 64,
      "hit": false,
      "t": 132000,
      "d": 6000,
      "v": 80
    }
  ]
}