{
  "jsonPath": "Latin/Spanish Techno/Oscar Mulero/quiet-room.json",
  "path": "Latin\\Spanish Techno\\Oscar Mulero\\Quiet Room.mid",
  "name": "Quiet Room",
  "difficulty": "Advanced",
  "bpm": 109.99990833340972,
  "notes": [
    {
      "midi": 54,
      "hit": false,
      "t": 4363.64,
      "d": 90.90916666666635,
      "v": 74
    },
    {
      "midi": 59,
      "hit": false,
      "t": 4363.64,
      "d": 136.36374999999953,
      "v": 73
    },
    {
      "midi": 64,
      "hit": false,
      "t": 4363.64,
      "d": 136.36374999999953,
      "v": 73
    },
    {
      "midi": 68,
      "hit": false,
      "t": 4375.003645833333,
      "d": 261.3638541666669,
      "v": 44
    },
    {
      "midi": 59,
      "hit": false,
      "t": 4500.00375,
      "d": 22.727291666667043,
      "v": 70
    },
    {
      "midi": 64,
      "hit": false,
      "t": 4500.00375,
      "d": 22.727291666667043,
      "v": 52
    },
    {
      "midi": 56,
      "hit": false,
      "t": 4500.00375,
      "d": 386.36395833333427,
      "v": 44
    },
    {
      "midi": 59,
      "hit": false,
      "t": 4636.3675,
      "d": 22.727291666667043,
      "v": 52
    },
    {
      "midi": 64,
      "hit": false,
      "t": 4636.3675,
      "d": 22.727291666667043,
      "v": 52
    },
    {
      "midi": 59,
      "hit": false,
      "t": 4772.731250000001,
      "d": 90.90916666666635,
      "v": 53
    },
    {
      "midi": 64,
      "hit": false,
      "t": 4772.731250000001,
      "d": 90.90916666666635,
      "v": 73
    },
    {
      "midi": 68,
      "hit": false,
      "t": 4772.731250000001,
      "d": 113.6364583333334,
      "v": 44
    },
    {
      "midi": 59,
      "hit": false,
      "t": 4909.095000000001,
      "d": 102.27281249999942,
      "v": 74
    },
    {
      "midi": 64,
      "hit": false,
      "t": 4909.095000000001,
      "d": 102.27281249999942,
      "v": 74
    },
    {
      "midi": 68,
      "hit": false,
      "t": 4920.458645833334,
      "d": 125.00010416666646,
      "v": 44
    },
    {
      "midi": 59,
      "hit": false,
      "t": 5045.458750000001,
      "d": 22.727291666667043,
      "v": 44
    },
    {
      "midi": 68,
      "hit": false,
      "t": 5045.458750000001,
      "d": 125.00010416666737,
      "v": 44
    },
    {
      "midi": 64,
      "hit": false,
      "t": 5045.458750000001,
      "d": 136.36375000000044,
      "v": 44
    },
    {
      "midi": 64,
      "hit": false,
      "t": 5181.822500000001,
      "d": 136.36375000000044,
      "v": 70
    },
    {
      "midi": 68,
      "hit": false,
      "t": 5181.822500000001,
      "d": 261.3638541666669,
      "v": 70
    },
    {
      "midi": 59,
      "hit": false,
      "t": 5181.822500000001,
      "d": 397.72760416666733,
      "v": 70
    },
    {
      "midi": 56,
      "hit": false,
      "t": 5181.822500000001,
      "d": 534.0913541666669,
      "v": 70
    },
    {
      "midi": 59,
      "hit": false,
      "t": 5590.9137500000015,
      "d": 125.00010416666646,
      "v": 44
    },
    {
      "midi": 64,
      "hit": false,
      "t": 5590.9137500000015,
      "d": 125.00010416666646,
      "v": 44
    },
    {
      "midi": 68,
      "hit": false,
      "t": 5590.9137500000015,
      "d": 125.00010416666646,
      "v": 44
    },
    {
      "midi": 59,
      "hit": false,
      "t": 5727.277500000001,
      "d": 113.6364583333334,
      "v": 44
    },
    {
      "midi": 64,
      "hit": false,
      "t": 5727.277500000001,
      "d": 113.6364583333334,
      "v": 44
    },
    {
      "midi": 68,
      "hit": false,
      "t": 5727.277500000001,
      "d": 113.6364583333334,
      "v": 44
    },
    {
      "midi": 59,
      "hit": false,
      "t": 5863.6412500000015,
      "d": 113.6364583333334,
      "v": 65
    },
    {
      "midi": 64,
      "hit": false,
      "t": 5863.6412500000015,
      "d": 113.6364583333334,
      "v": 65
    },
    {
      "midi": 68,
      "hit": false,
      "t": 5863.6412500000015,
      "d": 113.6364583333334,
      "v": 65
    },
    {
      "midi": 64,
      "hit": false,
      "t": 6000.005000000002,
      "d": 11.363645833333067,
      "v": 74
    },
    {
      "midi": 59,
      "hit": false,
      "t": 6000.005000000002,
      "d": 34.0909374999992,
      "v": 74
    },
    {
      "midi": 68,
      "hit": false,
      "t": 6000.005000000002,
      "d": 34.0909374999992,
      "v": 74
    },
    {
      "midi": 64,
      "hit": false,
      "t": 6011.368645833335,
      "d": 11.363645833333067,
      "v": 61
    },
    {
      "midi": 59,
      "hit": false,
      "t": 6136.3687500000015,
      "d": 45.454583333333176,
      "v": 44
    },
    {
      "midi": 56,
      "hit": false,
      "t": 6136.3687500000015,
      "d": 68.18187500000022,
      "v": 44
    },
    {
      "midi": 59,
      "hit": false,
      "t": 6272.732500000002,
      "d": 90.90916666666635,
      "v": 59
    },
    {
      "midi": 64,
      "hit": false,
      "t": 6272.732500000002,
      "d": 90.90916666666635,
      "v": 59
    },
    {
      "midi": 56,
      "hit": false,
      "t": 6272.732500000002,
      "d": 136.36374999999953,
      "v": 59
    },
    {
      "midi": 59,
      "hit": false,
      "t": 6409.096250000001,
      "d": 90.90916666666635,
      "v": 44
    },
    {
      "midi": 64,
      "hit": false,
      "t": 6409.096250000001,
      "d": 90.90916666666635,
      "v": 44
    },
    {
      "midi": 56,
      "hit": false,
      "t": 6409.096250000001,
      "d": 136.36374999999953,
      "v": 44
    },
    {
      "midi": 59,
      "hit": false,
      "t": 6545.460000000001,
      "d": 136.36375000000044,
      "v": 73
    },
    {
      "midi": 64,
      "hit": false,
      "t": 6545.460000000001,
      "d": 136.36375000000044,
      "v": 73
    },
    {
      "midi": 54,
      "hit": false,
      "t": 6545.460000000001,
      "d": 181.81833333333452,
      "v": 74
    },
    {
      "midi": 68,
      "hit": false,
      "t": 6545.460000000001,
      "d": 250.00020833333474,
      "v": 73
    },
    {
      "midi": 59,
      "hit": false,
      "t": 6681.823750000001,
      "d": 22.727291666667043,
      "v": 52
    },
    {
      "midi": 64,
      "hit": false,
      "t": 6681.823750000001,
      "d": 22.727291666667043,
      "v": 52
    },
    {
      "midi": 56,
      "hit": false,
      "t": 6681.823750000001,
      "d": 386.36395833333427,
      "v": 44
    },
    {
      "midi": 59,
      "hit": false,
      "t": 6818.187500000003,
      "d": 79.54552083333328,
      "v": 52
    },
    {
      "midi": 64,
      "hit": false,
      "t": 6818.187500000003,
      "d": 79.54552083333328,
      "v": 52
    },
    {
      "midi": 68,
      "hit": false,
      "t": 6818.187500000003,
      "d": 79.54552083333328,
      "v": 52
    },
    {
      "midi": 59,
      "hit": false,
      "t": 6954.551250000002,
      "d": 68.18187500000022,
      "v": 73
    },
    {
      "midi": 64,
      "hit": false,
      "t": 6954.551250000002,
      "d": 68.18187500000022,
      "v": 73
    },
    {
      "midi": 68,
      "hit": false,
      "t": 6954.551250000002,
      "d": 68.18187500000022,
      "v": 73
    },
    {
      "midi": 56,
      "hit": false,
      "t": 7090.915000000003,
      "d": 113.6364583333334,
      "v": 52
    },
    {
      "midi": 59,
      "hit": false,
      "t": 7090.915000000003,
      "d": 113.6364583333334,
      "v": 65
    },
    {
      "midi": 64,
      "hit": false,
      "t": 7090.915000000003,
      "d": 113.6364583333334,
      "v": 65
    },
    {
      "midi": 68,
      "hit": false,
      "t": 7090.915000000003,
      "d": 113.6364583333334,
      "v": 65
    },
    {
      "midi": 68,
      "hit": false,
      "t": 7363.642500000003,
      "d": 136.36375000000044,
      "v": 73
    },
    {
      "midi": 59,
      "hit": false,
      "t": 7363.642500000003,
      "d": 159.09104166666748,
      "v": 74
    },
    {
      "midi": 64,
      "hit": false,
      "t": 7363.642500000003,
      "d": 250.00020833333383,
      "v": 73
    },
    {
      "midi": 61,
      "hit": false,
      "t": 7500.006250000003,
      "d": 113.6364583333334,
      "v": 44
    },
    {
      "midi": 69,
      "hit": false,
      "t": 7500.006250000003,
      "d": 113.6364583333334,
      "v": 44
    },
    {
      "midi": 61,
      "hit": false,
      "t": 7636.3700000000035,
      "d": 113.6364583333334,
      "v": 44
    },
    {
      "midi": 64,
      "hit": false,
      "t": 7636.3700000000035,
      "d": 113.6364583333334,
      "v": 44
    },
    {
      "midi": 69,
      "hit": false,
      "t": 7636.3700000000035,
      "d": 113.6364583333334,
      "v": 44
    },
    {
      "midi": 64,
      "hit": false,
      "t": 7772.733750000004,
      "d": 113.6364583333334,
      "v": 74
    },
    {
      "midi": 69,
      "hit": false,
      "t": 7772.733750000004,
      "d": 113.6364583333334,
      "v": 74
    },
    {
      "midi": 61,
      "hit": false,
      "t": 7772.733750000004,
      "d": 238.63656250000076,
      "v": 74
    },
    {
      "midi": 64,
      "hit": false,
      "t": 7909.097500000004,
      "d": 102.27281250000033,
      "v": 52
    },
    {
      "midi": 69,
      "hit": false,
      "t": 7909.097500000004,
      "d": 102.27281250000033,
      "v": 52
    },
    {
      "midi": 61,
      "hit": false,
      "t": 8045.461250000005,
      "d": 113.6364583333334,
      "v": 52
    },
    {
      "midi": 64,
      "hit": false,
      "t": 8045.461250000005,
      "d": 113.6364583333334,
      "v": 52
    },
    {
      "midi": 69,
      "hit": false,
      "t": 8045.461250000005,
      "d": 113.6364583333334,
      "v": 52
    },
    {
      "midi": 61,
      "hit": false,
      "t": 8181.825000000005,
      "d": 136.36374999999953,
      "v": 74
    },
    {
      "midi": 69,
      "hit": false,
      "t": 8181.825000000005,
      "d": 136.36374999999953,
      "v": 74
    },
    {
      "midi": 64,
      "hit": false,
      "t": 8181.825000000005,
      "d": 181.8183333333336,
      "v": 74
    },
    {
      "midi": 59,
      "hit": false,
      "t": 8318.188750000005,
      "d": 113.6364583333343,
      "v": 73
    },
    {
      "midi": 68,
      "hit": false,
      "t": 8318.188750000005,
      "d": 113.6364583333343,
      "v": 73
    },
    {
      "midi": 59,
      "hit": false,
      "t": 8454.552500000005,
      "d": 22.727291666666133,
      "v": 73
    },
    {
      "midi": 64,
      "hit": false,
      "t": 8454.552500000005,
      "d": 22.727291666666133,
      "v": 73
    },
    {
      "midi": 59,
      "hit": false,
      "t": 8590.916250000004,
      "d": 22.727291666666133,
      "v": 52
    },
    {
      "midi": 64,
      "hit": false,
      "t": 8590.916250000004,
      "d": 22.727291666666133,
      "v": 52
    },
    {
      "midi": 40,
      "hit": false,
      "t": 8727.28,
      "d": 534.0913541666669,
      "v": 93
    },
    {
      "midi": 54,
      "hit": false,
      "t": 8727.28,
      "d": 90.90916666666635,
      "v": 63
    },
    {
      "midi": 59,
      "hit": false,
      "t": 8727.28,
      "d": 136.36375000000044,
      "v": 67
    },
    {
      "midi": 64,
      "hit": false,
      "t": 8727.28,
      "d": 136.36375000000044,
      "v": 67
    },
    {
      "midi": 40,
      "hit": false,
      "t": 8727.28,
      "d": 670.4551041666618,
      "v": 76
    },
    {
      "midi": 54,
      "hit": false,
      "t": 8727.280000000002,
      "d": 90.90916666666635,
      "v": 74
    },
    {
      "midi": 59,
      "hit": false,
      "t": 8727.280000000002,
      "d": 136.36375000000044,
      "v": 73
    },
    {
      "midi": 64,
      "hit": false,
      "t": 8727.280000000002,
      "d": 136.36375000000044,
      "v": 73
    },
    {
      "midi": 40,
      "hit": false,
      "t": 8727.280000000002,
      "d": 806.8188541666605,
      "v": 44
    },
    {
      "midi": 68,
      "hit": false,
      "t": 8738.643645833334,
      "d": 261.363854166666,
      "v": 30
    },
    {
      "midi": 68,
      "hit": false,
      "t": 8738.643645833336,
      "d": 261.363854166666,
      "v": 44
    },
    {
      "midi": 59,
      "hit": false,
      "t": 8863.643750000001,
      "d": 22.727291666666133,
      "v": 64
    },
    {
      "midi": 64,
      "hit": false,
      "t": 8863.643750000001,
      "d": 22.727291666666133,
      "v": 46
    },
    {
      "midi": 56,
      "hit": false,
      "t": 8863.643750000001,
      "d": 386.3639583333297,
      "v": 30
    },
    {
      "midi": 59,
      "hit": false,
      "t": 8863.643750000003,
      "d": 22.727291666666133,
      "v": 70
    },
    {
      "midi": 64,
      "hit": false,
      "t": 8863.643750000003,
      "d": 22.727291666666133,
      "v": 52
    },
    {
      "midi": 56,
      "hit": false,
      "t": 8863.643750000003,
      "d": 386.3639583333297,
      "v": 44
    },
    {
      "midi": 59,
      "hit": false,
      "t": 9000.0075,
      "d": 22.727291666666133,
      "v": 46
    },
    {
      "midi": 64,
      "hit": false,
      "t": 9000.0075,
      "d": 22.727291666666133,
      "v": 46
    },
    {
      "midi": 59,
      "hit": false,
      "t": 9000.007500000002,
      "d": 22.727291666666133,
      "v": 52
    },
    {
      "midi": 64,
      "hit": false,
      "t": 9000.007500000002,
      "d": 22.727291666666133,
      "v": 52
    },
    {
      "midi": 59,
      "hit": false,
      "t": 9136.371249999998,
      "d": 90.90916666666635,
      "v": 47
    },
    {
      "midi": 64,
      "hit": false,
      "t": 9136.371249999998,
      "d": 90.90916666666635,
      "v": 67
    },
    {
      "midi": 68,
      "hit": false,
      "t": 9136.371249999998,
      "d": 113.63645833333248,
      "v": 30
    },
    {
      "midi": 59,
      "hit": false,
      "t": 9136.37125,
      "d": 90.90916666666635,
      "v": 53
    },
    {
      "midi": 64,
      "hit": false,
      "t": 9136.37125,
      "d": 90.90916666666635,
      "v": 73
    },
    {
      "midi": 68,
      "hit": false,
      "t": 9136.37125,
      "d": 113.63645833333248,
      "v": 44
    },
    {
      "midi": 59,
      "hit": false,
      "t": 9272.734999999997,
      "d": 102.27281249999942,
      "v": 72
    },
    {
      "midi": 64,
      "hit": false,
      "t": 9272.734999999997,
      "d": 102.27281249999942,
      "v": 72
    },
    {
      "midi": 59,
      "hit": false,
      "t": 9272.734999999999,
      "d": 102.27281249999942,
      "v": 74
    },
    {
      "midi": 64,
      "hit": false,
      "t": 9272.734999999999,
      "d": 102.27281249999942,
      "v": 74
    },
    {
      "midi": 40,
      "hit": false,
      "t": 9272.735,
      "d": 670.4551041666673,
      "v": 93
    },
    {
      "midi": 68,
      "hit": false,
      "t": 9284.09864583333,
      "d": 113.63645833333248,
      "v": 30
    },
    {
      "midi": 68,
      "hit": false,
      "t": 9284.098645833332,
      "d": 125.00010416666555,
      "v": 44
    },
    {
      "midi": 59,
      "hit": false,
      "t": 9409.098749999996,
      "d": 11.363645833333067,
      "v": 30
    },
    {
      "midi": 64,
      "hit": false,
      "t": 9409.098749999996,
      "d": 11.363645833333067,
      "v": 30
    },
    {
      "midi": 68,
      "hit": false,
      "t": 9409.098749999996,
      "d": 34.0909374999992,
      "v": 30
    },
    {
      "midi": 59,
      "hit": false,
      "t": 9409.098749999997,
      "d": 22.727291666666133,
      "v": 44
    },
    {
      "midi": 68,
      "hit": false,
      "t": 9409.098749999997,
      "d": 125.00010416666555,
      "v": 44
    },
    {
      "midi": 64,
      "hit": false,
      "t": 9409.098749999997,
      "d": 136.36374999999862,
      "v": 44
    },
    {
      "midi": 68,
      "hit": false,
      "t": 9545.462499999994,
      "d": 261.363854166666,
      "v": 64
    },
    {
      "midi": 59,
      "hit": false,
      "t": 9545.462499999994,
      "d": 397.7276041666664,
      "v": 64
    },
    {
      "midi": 64,
      "hit": false,
      "t": 9545.462499999994,
      "d": 397.7276041666664,
      "v": 64
    },
    {
      "midi": 56,
      "hit": false,
      "t": 9545.462499999994,
      "d": 534.0913541666669,
      "v": 64
    },
    {
      "midi": 40,
      "hit": false,
      "t": 9545.462499999994,
      "d": 943.1826041666627,
      "v": 76
    },
    {
      "midi": 64,
      "hit": false,
      "t": 9545.462499999996,
      "d": 136.36375000000044,
      "v": 70
    },
    {
      "midi": 68,
      "hit": false,
      "t": 9545.462499999996,
      "d": 261.3638541666678,
      "v": 70
    },
    {
      "midi": 59,
      "hit": false,
      "t": 9545.462499999996,
      "d": 397.72760416666824,
      "v": 70
    },
    {
      "midi": 56,
      "hit": false,
      "t": 9545.462499999996,
      "d": 534.0913541666687,
      "v": 70
    },
    {
      "midi": 40,
      "hit": false,
      "t": 9545.462499999996,
      "d": 1352.273854166664,
      "v": 44
    },
    {
      "midi": 50,
      "hit": false,
      "t": 9818.19,
      "d": 68.18187500000022,
      "v": 93
    },
    {
      "midi": 52,
      "hit": false,
      "t": 9818.19,
      "d": 534.0913541666669,
      "v": 93
    },
    {
      "midi": 59,
      "hit": false,
      "t": 9954.553749999994,
      "d": 125.00010416666737,
      "v": 30
    },
    {
      "midi": 64,
      "hit": false,
      "t": 9954.553749999994,
      "d": 125.00010416666737,
      "v": 30
    },
    {
      "midi": 68,
      "hit": false,
      "t": 9954.553749999994,
      "d": 125.00010416666737,
      "v": 30
    },
    {
      "midi": 59,
      "hit": false,
      "t": 9954.553749999997,
      "d": 125.00010416666737,
      "v": 44
    },
    {
      "midi": 64,
      "hit": false,
      "t": 9954.553749999997,
      "d": 125.00010416666737,
      "v": 44
    },
    {
      "midi": 68,
      "hit": false,
      "t": 9954.553749999997,
      "d": 125.00010416666737,
      "v": 44
    },
    {
      "midi": 59,
      "hit": false,
      "t": 10090.917499999994,
      "d": 113.63645833333248,
      "v": 30
    },
    {
      "midi": 64,
      "hit": false,
      "t": 10090.917499999994,
      "d": 113.63645833333248,
      "v": 30
    },
    {
      "midi": 68,
      "hit": false,
      "t": 10090.917499999994,
      "d": 113.63645833333248,
      "v": 30
    },
    {
      "midi": 59,
      "hit": false,
      "t": 10090.917499999998,
      "d": 113.63645833333248,
      "v": 44
    },
    {
      "midi": 64,
      "hit": false,
      "t": 10090.917499999998,
      "d": 113.63645833333248,
      "v": 44
    },
    {
      "midi": 68,
      "hit": false,
      "t": 10090.917499999998,
      "d": 113.63645833333248,
      "v": 44
    },
    {
      "midi": 59,
      "hit": false,
      "t": 10227.281249999993,
      "d": 113.63645833333248,
      "v": 59
    },
    {
      "midi": 64,
      "hit": false,
      "t": 10227.281249999993,
      "d": 113.63645833333248,
      "v": 59
    },
    {
      "midi": 68,
      "hit": false,
      "t": 10227.281249999993,
      "d": 113.63645833333248,
      "v": 59
    },
    {
      "midi": 59,
      "hit": false,
      "t": 10227.281249999996,
      "d": 113.63645833333248,
      "v": 65
    },
    {
      "midi": 64,
      "hit": false,
      "t": 10227.281249999996,
      "d": 113.63645833333248,
      "v": 65
    },
    {
      "midi": 68,
      "hit": false,
      "t": 10227.281249999996,
      "d": 113.63645833333248,
      "v": 65
    },
    {
      "midi": 64,
      "hit": false,
      "t": 10363.644999999991,
      "d": 11.363645833333067,
      "v": 76
    },
    {
      "midi": 59,
      "hit": false,
      "t": 10363.644999999991,
      "d": 34.0909374999992,
      "v": 76
    },
    {
      "midi": 68,
      "hit": false,
      "t": 10363.644999999991,
      "d": 34.0909374999992,
      "v": 76
    },
    {
      "midi": 64,
      "hit": false,
      "t": 10363.644999999995,
      "d": 11.363645833333067,
      "v": 74
    },
    {
      "midi": 59,
      "hit": false,
      "t": 10363.644999999995,
      "d": 34.0909374999992,
      "v": 74
    },
    {
      "midi": 68,
      "hit": false,
      "t": 10363.644999999995,
      "d": 34.0909374999992,
      "v": 74
    },
    {
      "midi": 52,
      "hit": false,
      "t": 10363.645,
      "d": 1352.2738541666658,
      "v": 93
    },
    {
      "midi": 64,
      "hit": false,
      "t": 10375.008645833324,
      "d": 11.363645833333067,
      "v": 55
    },
    {
      "midi": 64,
      "hit": false,
      "t": 10375.008645833328,
      "d": 11.363645833333067,
      "v": 61
    },
    {
      "midi": 59,
      "hit": false,
      "t": 10500.00874999999,
      "d": 45.454583333334085,
      "v": 30
    },
    {
      "midi": 56,
      "hit": false,
      "t": 10500.00874999999,
      "d": 68.18187500000022,
      "v": 30
    },
    {
      "midi": 59,
      "hit": false,
      "t": 10500.008749999994,
      "d": 45.454583333334085,
      "v": 44
    },
    {
      "midi": 56,
      "hit": false,
      "t": 10500.008749999994,
      "d": 68.18187500000022,
      "v": 44
    },
    {
      "midi": 59,
      "hit": false,
      "t": 10636.37249999999,
      "d": 90.90916666666635,
      "v": 53
    },
    {
      "midi": 64,
      "hit": false,
      "t": 10636.37249999999,
      "d": 90.90916666666635,
      "v": 53
    },
    {
      "midi": 56,
      "hit": false,
      "t": 10636.37249999999,
      "d": 136.36375000000044,
      "v": 53
    },
    {
      "midi": 59,
      "hit": false,
      "t": 10636.372499999994,
      "d": 90.90916666666635,
      "v": 59
    },
    {
      "midi": 64,
      "hit": false,
      "t": 10636.372499999994,
      "d": 90.90916666666635,
      "v": 59
    },
    {
      "midi": 56,
      "hit": false,
      "t": 10636.372499999994,
      "d": 136.36375000000044,
      "v": 59
    },
    {
      "midi": 59,
      "hit": false,
      "t": 10772.73624999999,
      "d": 90.90916666666635,
      "v": 30
    },
    {
      "midi": 64,
      "hit": false,
      "t": 10772.73624999999,
      "d": 90.90916666666635,
      "v": 30
    },
    {
      "midi": 56,
      "hit": false,
      "t": 10772.73624999999,
      "d": 136.36375000000044,
      "v": 30
    },
    {
      "midi": 59,
      "hit": false,
      "t": 10772.736249999994,
      "d": 90.90916666666635,
      "v": 44
    },
    {
      "midi": 64,
      "hit": false,
      "t": 10772.736249999994,
      "d": 90.90916666666635,
      "v": 44
    },
    {
      "midi": 56,
      "hit": false,
      "t": 10772.736249999994,
      "d": 136.36374999999862,
      "v": 44
    },
    {
      "midi": 59,
      "hit": false,
      "t": 10909.099999999991,
      "d": 136.36375000000044,
      "v": 67
    },
    {
      "midi": 64,
      "hit": false,
      "t": 10909.099999999991,
      "d": 136.36375000000044,
      "v": 67
    },
    {
      "midi": 54,
      "hit": false,
      "t": 10909.099999999991,
      "d": 181.8183333333327,
      "v": 57
    },
    {
      "midi": 68,
      "hit": false,
      "t": 10909.099999999991,
      "d": 250.00020833333292,
      "v": 67
    },
    {
      "midi": 40,
      "hit": false,
      "t": 10909.099999999991,
      "d": 659.0914583333324,
      "v": 76
    },
    {
      "midi": 59,
      "hit": false,
      "t": 10909.099999999993,
      "d": 136.36375000000044,
      "v": 73
    },
    {
      "midi": 64,
      "hit": false,
      "t": 10909.099999999993,
      "d": 136.36375000000044,
      "v": 73
    },
    {
      "midi": 54,
      "hit": false,
      "t": 10909.099999999993,
      "d": 181.8183333333327,
      "v": 74
    },
    {
      "midi": 68,
      "hit": false,
      "t": 10909.099999999993,
      "d": 250.00020833333292,
      "v": 73
    },
    {
      "midi": 40,
      "hit": false,
      "t": 10909.099999999993,
      "d": 806.8188541666659,
      "v": 44
    },
    {
      "midi": 59,
      "hit": false,
      "t": 11045.463749999992,
      "d": 22.727291666666133,
      "v": 46
    },
    {
      "midi": 64,
      "hit": false,
      "t": 11045.463749999992,
      "d": 22.727291666666133,
      "v": 46
    },
    {
      "midi": 56,
      "hit": false,
      "t": 11045.463749999992,
      "d": 386.36395833333336,
      "v": 30
    },
    {
      "midi": 59,
      "hit": false,
      "t": 11045.463749999994,
      "d": 22.727291666666133,
      "v": 52
    },
    {
      "midi": 64,
      "hit": false,
      "t": 11045.463749999994,
      "d": 22.727291666666133,
      "v": 52
    },
    {
      "midi": 56,
      "hit": false,
      "t": 11045.463749999994,
      "d": 386.36395833333336,
      "v": 44
    },
    {
      "midi": 59,
      "hit": false,
      "t": 11181.82749999999,
      "d": 79.54552083333328,
      "v": 46
    },
    {
      "midi": 64,
      "hit": false,
      "t": 11181.82749999999,
      "d": 79.54552083333328,
      "v": 46
    },
    {
      "midi": 68,
      "hit": false,
      "t": 11181.82749999999,
      "d": 79.54552083333328,
      "v": 46
    },
    {
      "midi": 59,
      "hit": false,
      "t": 11181.827499999992,
      "d": 79.54552083333328,
      "v": 52
    },
    {
      "midi": 64,
      "hit": false,
      "t": 11181.827499999992,
      "d": 79.54552083333328,
      "v": 52
    },
    {
      "midi": 68,
      "hit": false,
      "t": 11181.827499999992,
      "d": 79.54552083333328,
      "v": 52
    },
    {
      "midi": 59,
      "hit": false,
      "t": 11318.19124999999,
      "d": 68.18187500000022,
      "v": 67
    },
    {
      "midi": 64,
      "hit": false,
      "t": 11318.19124999999,
      "d": 68.18187500000022,
      "v": 67
    },
    {
      "midi": 68,
      "hit": false,
      "t": 11318.19124999999,
      "d": 68.18187500000022,
      "v": 67
    },
    {
      "midi": 59,
      "hit": false,
      "t": 11318.191249999993,
      "d": 68.18187500000022,
      "v": 73
    },
    {
      "midi": 64,
      "hit": false,
      "t": 11318.191249999993,
      "d": 68.18187500000022,
      "v": 73
    },
    {
      "midi": 68,
      "hit": false,
      "t": 11318.191249999993,
      "d": 68.18187500000022,
      "v": 73
    },
    {
      "midi": 56,
      "hit": false,
      "t": 11454.554999999991,
      "d": 113.63645833333248,
      "v": 46
    },
    {
      "midi": 59,
      "hit": false,
      "t": 11454.554999999991,
      "d": 113.63645833333248,
      "v": 59
    },
    {
      "midi": 64,
      "hit": false,
      "t": 11454.554999999991,
      "d": 113.63645833333248,
      "v": 59
    },
    {
      "midi": 68,
      "hit": false,
      "t": 11454.554999999991,
      "d": 113.63645833333248,
      "v": 59
    },
    {
      "midi": 56,
      "hit": false,
      "t": 11454.554999999993,
      "d": 113.63645833333248,
      "v": 52
    },
    {
      "midi": 59,
      "hit": false,
      "t": 11454.554999999993,
      "d": 113.63645833333248,
      "v": 65
    },
    {
      "midi": 64,
      "hit": false,
      "t": 11454.554999999993,
      "d": 113.63645833333248,
      "v": 65
    },
    {
      "midi": 68,
      "hit": false,
      "t": 11454.554999999993,
      "d": 113.63645833333248,
      "v": 65
    },
    {
      "midi": 68,
      "hit": false,
      "t": 11727.28249999999,
      "d": 136.36375000000044,
      "v": 67
    },
    {
      "midi": 59,
      "hit": false,
      "t": 11727.28249999999,
      "d": 159.09104166666657,
      "v": 76
    },
    {
      "midi": 64,
      "hit": false,
      "t": 11727.28249999999,
      "d": 250.00020833333292,
      "v": 67
    },
    {
      "midi": 45,
      "hit": false,
      "t": 11727.28249999999,
      "d": 670.4551041666618,
      "v": 76
    },
    {
      "midi": 68,
      "hit": false,
      "t": 11727.282499999992,
      "d": 136.36375000000044,
      "v": 73
    },
    {
      "midi": 59,
      "hit": false,
      "t": 11727.282499999992,
      "d": 159.09104166666657,
      "v": 74
    },
    {
      "midi": 64,
      "hit": false,
      "t": 11727.282499999992,
      "d": 250.00020833333292,
      "v": 73
    },
    {
      "midi": 45,
      "hit": false,
      "t": 11727.282499999992,
      "d": 1068.1827083333283,
      "v": 44
    },
    {
      "midi": 61,
      "hit": false,
      "t": 11863.64624999999,
      "d": 113.63645833333248,
      "v": 30
    },
    {
      "midi": 69,
      "hit": false,
      "t": 11863.64624999999,
      "d": 113.63645833333248,
      "v": 30
    },
    {
      "midi": 61,
      "hit": false,
      "t": 11863.646249999993,
      "d": 113.63645833333248,
      "v": 44
    },
    {
      "midi": 69,
      "hit": false,
      "t": 11863.646249999993,
      "d": 113.63645833333248,
      "v": 44
    },
    {
      "midi": 28,
      "hit": false,
      "t": 11863.64625,
      "d": 125.00010416666737,
      "v": 93
    },
    {
      "midi": 61,
      "hit": false,
      "t": 12000.00999999999,
      "d": 113.63645833333248,
      "v": 30
    },
    {
      "midi": 64,
      "hit": false,
      "t": 12000.00999999999,
      "d": 113.63645833333248,
      "v": 30
    },
    {
      "midi": 69,
      "hit": false,
      "t": 12000.00999999999,
      "d": 113.63645833333248,
      "v": 30
    },
    {
      "midi": 61,
      "hit": false,
      "t": 12000.009999999991,
      "d": 113.63645833333248,
      "v": 44
    },
    {
      "midi": 64,
      "hit": false,
      "t": 12000.009999999991,
      "d": 113.63645833333248,
      "v": 44
    },
    {
      "midi": 69,
      "hit": false,
      "t": 12000.009999999991,
      "d": 113.63645833333248,
      "v": 44
    },
    {
      "midi": 33,
      "hit": false,
      "t": 12000.01,
      "d": 125.00010416666737,
      "v": 93
    },
    {
      "midi": 64,
      "hit": false,
      "t": 12136.373749999988,
      "d": 113.63645833333248,
      "v": 76
    },
    {
      "midi": 69,
      "hit": false,
      "t": 12136.373749999988,
      "d": 113.63645833333248,
      "v": 76
    },
    {
      "midi": 61,
      "hit": false,
      "t": 12136.373749999988,
      "d": 238.63656249999804,
      "v": 76
    },
    {
      "midi": 64,
      "hit": false,
      "t": 12136.37374999999,
      "d": 113.63645833333248,
      "v": 74
    },
    {
      "midi": 69,
      "hit": false,
      "t": 12136.37374999999,
      "d": 113.63645833333248,
      "v": 74
    },
    {
      "midi": 61,
      "hit": false,
      "t": 12136.37374999999,
      "d": 238.63656249999804,
      "v": 74
    },
    {
      "midi": 64,
      "hit": false,
      "t": 12272.737499999987,
      "d": 102.27281249999942,
      "v": 46
    },
    {
      "midi": 69,
      "hit": false,
      "t": 12272.737499999987,
      "d": 102.27281249999942,
      "v": 46
    },
    {
      "midi": 64,
      "hit": false,
      "t": 12272.737499999988,
      "d": 102.27281249999942,
      "v": 52
    },
    {
      "midi": 69,
      "hit": false,
      "t": 12272.737499999988,
      "d": 102.27281249999942,
      "v": 52
    },
    {
      "midi": 33,
      "hit": false,
      "t": 12272.737500000001,
      "d": 261.363854166666,
      "v": 93
    },
    {
      "midi": 61,
      "hit": false,
      "t": 12409.101249999985,
      "d": 113.63645833333248,
      "v": 46
    },
    {
      "midi": 64,
      "hit": false,
      "t": 12409.101249999985,
      "d": 113.63645833333248,
      "v": 46
    },
    {
      "midi": 69,
      "hit": false,
      "t": 12409.101249999985,
      "d": 113.63645833333248,
      "v": 46
    },
    {
      "midi": 61,
      "hit": false,
      "t": 12409.101249999987,
      "d": 113.63645833333248,
      "v": 52
    },
    {
      "midi": 64,
      "hit": false,
      "t": 12409.101249999987,
      "d": 113.63645833333248,
      "v": 52
    },
    {
      "midi": 69,
      "hit": false,
      "t": 12409.101249999987,
      "d": 113.63645833333248,
      "v": 52
    },
    {
      "midi": 61,
      "hit": false,
      "t": 12545.464999999984,
      "d": 136.36375000000044,
      "v": 76
    },
    {
      "midi": 69,
      "hit": false,
      "t": 12545.464999999984,
      "d": 136.36375000000044,
      "v": 76
    },
    {
      "midi": 64,
      "hit": false,
      "t": 12545.464999999984,
      "d": 181.81833333333452,
      "v": 76
    },
    {
      "midi": 45,
      "hit": false,
      "t": 12545.464999999984,
      "d": 250.00020833333474,
      "v": 76
    },
    {
      "midi": 61,
      "hit": false,
      "t": 12545.464999999986,
      "d": 136.36375000000044,
      "v": 74
    },
    {
      "midi": 69,
      "hit": false,
      "t": 12545.464999999986,
      "d": 136.36375000000044,
      "v": 74
    },
    {
      "midi": 64,
      "hit": false,
      "t": 12545.464999999986,
      "d": 181.81833333333452,
      "v": 74
    },
    {
      "midi": 35,
      "hit": false,
      "t": 12545.465,
      "d": 534.0913541666669,
      "v": 93
    },
    {
      "midi": 59,
      "hit": false,
      "t": 12681.828749999984,
      "d": 113.6364583333343,
      "v": 67
    },
    {
      "midi": 68,
      "hit": false,
      "t": 12681.828749999984,
      "d": 113.6364583333343,
      "v": 67
    },
    {
      "midi": 59,
      "hit": false,
      "t": 12681.828749999986,
      "d": 113.6364583333343,
      "v": 73
    },
    {
      "midi": 68,
      "hit": false,
      "t": 12681.828749999986,
      "d": 113.6364583333343,
      "v": 73
    },
    {
      "midi": 59,
      "hit": false,
      "t": 12818.192499999985,
      "d": 22.727291666666133,
      "v": 67
    },
    {
      "midi": 64,
      "hit": false,
      "t": 12818.192499999985,
      "d": 22.727291666666133,
      "v": 67
    },
    {
      "midi": 59,
      "hit": false,
      "t": 12818.192499999986,
      "d": 22.727291666666133,
      "v": 73
    },
    {
      "midi": 64,
      "hit": false,
      "t": 12818.192499999986,
      "d": 22.727291666666133,
      "v": 73
    },
    {
      "midi": 59,
      "hit": false,
      "t": 12954.556249999983,
      "d": 22.727291666666133,
      "v": 46
    },
    {
      "midi": 64,
      "hit": false,
      "t": 12954.556249999983,
      "d": 22.727291666666133,
      "v": 46
    },
    {
      "midi": 59,
      "hit": false,
      "t": 12954.556249999985,
      "d": 22.727291666666133,
      "v": 52
    },
    {
      "midi": 64,
      "hit": false,
      "t": 12954.556249999985,
      "d": 22.727291666666133,
      "v": 52
    },
    {
      "midi": 54,
      "hit": false,
      "t": 13090.919999999982,
      "d": 90.90916666666635,
      "v": 63
    },
    {
      "midi": 59,
      "hit": false,
      "t": 13090.919999999982,
      "d": 136.36375000000044,
      "v": 67
    },
    {
      "midi": 64,
      "hit": false,
      "t": 13090.919999999982,
      "d": 136.36375000000044,
      "v": 67
    },
    {
      "midi": 40,
      "hit": false,
      "t": 13090.919999999982,
      "d": 670.4551041666618,
      "v": 76
    },
    {
      "midi": 54,
      "hit": false,
      "t": 13090.919999999984,
      "d": 90.90916666666635,
      "v": 74
    },
    {
      "midi": 59,
      "hit": false,
      "t": 13090.919999999984,
      "d": 136.36375000000044,
      "v": 73
    },
    {
      "midi": 64,
      "hit": false,
      "t": 13090.919999999984,
      "d": 136.36375000000044,
      "v": 73
    },
    {
      "midi": 40,
      "hit": false,
      "t": 13090.919999999984,
      "d": 806.8188541666605,
      "v": 44
    },
    {
      "midi": 40,
      "hit": false,
      "t": 13090.92,
      "d": 556.818645833333,
      "v": 93
    },
    {
      "midi": 68,
      "hit": false,
      "t": 13102.283645833315,
      "d": 261.363854166666,
      "v": 30
    },
    {
      "midi": 68,
      "hit": false,
      "t": 13102.283645833317,
      "d": 261.363854166666,
      "v": 44
    },
    {
      "midi": 59,
      "hit": false,
      "t": 13227.283749999982,
      "d": 22.727291666666133,
      "v": 64
    },
    {
      "midi": 64,
      "hit": false,
      "t": 13227.283749999982,
      "d": 22.727291666666133,
      "v": 46
    },
    {
      "midi": 56,
      "hit": false,
      "t": 13227.283749999982,
      "d": 386.3639583333297,
      "v": 30
    },
    {
      "midi": 59,
      "hit": false,
      "t": 13227.283749999984,
      "d": 22.727291666666133,
      "v": 70
    },
    {
      "midi": 64,
      "hit": false,
      "t": 13227.283749999984,
      "d": 22.727291666666133,
      "v": 52
    },
    {
      "midi": 56,
      "hit": false,
      "t": 13227.283749999984,
      "d": 386.3639583333297,
      "v": 44
    },
    {
      "midi": 59,
      "hit": false,
      "t": 13363.647499999981,
      "d": 22.727291666666133,
      "v": 46
    },
    {
      "midi": 64,
      "hit": false,
      "t": 13363.647499999981,
      "d": 22.727291666666133,
      "v": 46
    },
    {
      "midi": 59,
      "hit": false,
      "t": 13363.647499999983,
      "d": 22.727291666666133,
      "v": 52
    },
    {
      "midi": 64,
      "hit": false,
      "t": 13363.647499999983,
      "d": 22.727291666666133,
      "v": 52
    },
    {
      "midi": 59,
      "hit": false,
      "t": 13500.01124999998,
      "d": 90.90916666666635,
      "v": 47
    },
    {
      "midi": 64,
      "hit": false,
      "t": 13500.01124999998,
      "d": 90.90916666666635,
      "v": 67
    },
    {
      "midi": 68,
      "hit": false,
      "t": 13500.01124999998,
      "d": 113.63645833333248,
      "v": 30
    },
    {
      "midi": 59,
      "hit": false,
      "t": 13500.011249999981,
      "d": 90.90916666666635,
      "v": 53
    },
    {
      "midi": 64,
      "hit": false,
      "t": 13500.011249999981,
      "d": 90.90916666666635,
      "v": 73
    },
    {
      "midi": 68,
      "hit": false,
      "t": 13500.011249999981,
      "d": 113.63645833333248,
      "v": 44
    },
    {
      "midi": 59,
      "hit": false,
      "t": 13636.374999999978,
      "d": 102.27281249999942,
      "v": 72
    },
    {
      "midi": 64,
      "hit": false,
      "t": 13636.374999999978,
      "d": 102.27281249999942,
      "v": 72
    },
    {
      "midi": 59,
      "hit": false,
      "t": 13636.37499999998,
      "d": 102.27281249999942,
      "v": 74
    },
    {
      "midi": 64,
      "hit": false,
      "t": 13636.37499999998,
      "d": 102.27281249999942,
      "v": 74
    },
    {
      "midi": 35,
      "hit": false,
      "t": 13636.375,
      "d": 352.27302083333234,
      "v": 93
    },
    {
      "midi": 68,
      "hit": false,
      "t": 13647.738645833311,
      "d": 113.63645833333248,
      "v": 30
    },
    {
      "midi": 68,
      "hit": false,
      "t": 13647.738645833313,
      "d": 125.00010416666555,
      "v": 44
    },
    {
      "midi": 59,
      "hit": false,
      "t": 13772.738749999977,
      "d": 11.363645833333067,
      "v": 30
    },
    {
      "midi": 64,
      "hit": false,
      "t": 13772.738749999977,
      "d": 11.363645833333067,
      "v": 30
    },
    {
      "midi": 68,
      "hit": false,
      "t": 13772.738749999977,
      "d": 34.0909374999992,
      "v": 30
    },
    {
      "midi": 59,
      "hit": false,
      "t": 13772.738749999979,
      "d": 22.727291666666133,
      "v": 44
    },
    {
      "midi": 68,
      "hit": false,
      "t": 13772.738749999979,
      "d": 125.00010416666555,
      "v": 44
    },
    {
      "midi": 64,
      "hit": false,
      "t": 13772.738749999979,
      "d": 136.36374999999862,
      "v": 44
    },
    {
      "midi": 68,
      "hit": false,
      "t": 13909.102499999975,
      "d": 261.363854166666,
      "v": 64
    },
    {
      "midi": 59,
      "hit": false,
      "t": 13909.102499999975,
      "d": 397.7276041666664,
      "v": 64
    },
    {
      "midi": 64,
      "hit": false,
      "t": 13909.102499999975,
      "d": 397.7276041666664,
      "v": 64
    },
    {
      "midi": 56,
      "hit": false,
      "t": 13909.102499999975,
      "d": 534.0913541666669,
      "v": 64
    },
    {
      "midi": 40,
      "hit": false,
      "t": 13909.102499999975,
      "d": 943.1826041666627,
      "v": 76
    },
    {
      "midi": 64,
      "hit": false,
      "t": 13909.102499999977,
      "d": 136.36375000000044,
      "v": 70
    },
    {
      "midi": 68,
      "hit": false,
      "t": 13909.102499999977,
      "d": 261.3638541666678,
      "v": 70
    },
    {
      "midi": 59,
      "hit": false,
      "t": 13909.102499999977,
      "d": 397.72760416666824,
      "v": 70
    },
    {
      "midi": 56,
      "hit": false,
      "t": 13909.102499999977,
      "d": 534.0913541666687,
      "v": 70
    },
    {
      "midi": 40,
      "hit": false,
      "t": 13909.102499999977,
      "d": 1352.273854166664,
      "v": 44
    },
    {
      "midi": 35,
      "hit": false,
      "t": 14045.46625,
      "d": 79.54552083333328,
      "v": 93
    },
    {
      "midi": 40,
      "hit": false,
      "t": 14181.83,
      "d": 136.36375000000044,
      "v": 93
    },
    {
      "midi": 59,
      "hit": false,
      "t": 14318.193749999975,
      "d": 125.00010416666737,
      "v": 30
    },
    {
      "midi": 64,
      "hit": false,
      "t": 14318.193749999975,
      "d": 125.00010416666737,
      "v": 30
    },
    {
      "midi": 68,
      "hit": false,
      "t": 14318.193749999975,
      "d": 125.00010416666737,
      "v": 30
    },
    {
      "midi": 59,
      "hit": false,
      "t": 14318.193749999979,
      "d": 125.00010416666737,
      "v": 44
    },
    {
      "midi": 64,
      "hit": false,
      "t": 14318.193749999979,
      "d": 125.00010416666737,
      "v": 44
    },
    {
      "midi": 68,
      "hit": false,
      "t": 14318.193749999979,
      "d": 125.00010416666737,
      "v": 44
    },
    {
      "midi": 59,
      "hit": false,
      "t": 14454.557499999975,
      "d": 113.63645833333248,
      "v": 30
    },
    {
      "midi": 64,
      "hit": false,
      "t": 14454.557499999975,
      "d": 113.63645833333248,
      "v": 30
    },
    {
      "midi": 68,
      "hit": false,
      "t": 14454.557499999975,
      "d": 113.63645833333248,
      "v": 30
    },
    {
      "midi": 59,
      "hit": false,
      "t": 14454.557499999979,
      "d": 113.63645833333248,
      "v": 44
    },
    {
      "midi": 64,
      "hit": false,
      "t": 14454.557499999979,
      "d": 113.63645833333248,
      "v": 44
    },
    {
      "midi": 68,
      "hit": false,
      "t": 14454.557499999979,
      "d": 113.63645833333248,
      "v": 44
    },
    {
      "midi": 40,
      "hit": false,
      "t": 14454.5575,
      "d": 227.2729166666668,
      "v": 93
    },
    {
      "midi": 59,
      "hit": false,
      "t": 14590.921249999974,
      "d": 113.63645833333248,
      "v": 59
    },
    {
      "midi": 64,
      "hit": false,
      "t": 14590.921249999974,
      "d": 113.63645833333248,
      "v": 59
    },
    {
      "midi": 68,
      "hit": false,
      "t": 14590.921249999974,
      "d": 113.63645833333248,
      "v": 59
    },
    {
      "midi": 59,
      "hit": false,
      "t": 14590.921249999978,
      "d": 113.63645833333248,
      "v": 65
    },
    {
      "midi": 64,
      "hit": false,
      "t": 14590.921249999978,
      "d": 113.63645833333248,
      "v": 65
    },
    {
      "midi": 68,
      "hit": false,
      "t": 14590.921249999978,
      "d": 113.63645833333248,
      "v": 65
    },
    {
      "midi": 64,
      "hit": false,
      "t": 14727.284999999973,
      "d": 11.363645833333067,
      "v": 76
    },
    {
      "midi": 59,
      "hit": false,
      "t": 14727.284999999973,
      "d": 34.0909374999992,
      "v": 76
    },
    {
      "midi": 68,
      "hit": false,
      "t": 14727.284999999973,
      "d": 34.0909374999992,
      "v": 76
    },
    {
      "midi": 64,
      "hit": false,
      "t": 14727.284999999976,
      "d": 11.363645833333067,
      "v": 74
    },
    {
      "midi": 59,
      "hit": false,
      "t": 14727.284999999976,
      "d": 34.0909374999992,
      "v": 74
    },
    {
      "midi": 68,
      "hit": false,
      "t": 14727.284999999976,
      "d": 34.0909374999992,
      "v": 74
    },
    {
      "midi": 35,
      "hit": false,
      "t": 14727.285000000002,
      "d": 363.6366666666672,
      "v": 93
    },
    {
      "midi": 64,
      "hit": false,
      "t": 14738.648645833306,
      "d": 11.363645833333067,
      "v": 55
    },
    {
      "midi": 64,
      "hit": false,
      "t": 14738.64864583331,
      "d": 11.363645833333067,
      "v": 61
    },
    {
      "midi": 59,
      "hit": false,
      "t": 14863.648749999971,
      "d": 45.454583333334085,
      "v": 30
    },
    {
      "midi": 56,
      "hit": false,
      "t": 14863.648749999971,
      "d": 68.18187500000022,
      "v": 30
    },
    {
      "midi": 59,
      "hit": false,
      "t": 14863.648749999975,
      "d": 45.454583333334085,
      "v": 44
    },
    {
      "midi": 56,
      "hit": false,
      "t": 14863.648749999975,
      "d": 68.18187500000022,
      "v": 44
    },
    {
      "midi": 59,
      "hit": false,
      "t": 15000.012499999972,
      "d": 90.90916666666635,
      "v": 53
    },
    {
      "midi": 64,
      "hit": false,
      "t": 15000.012499999972,
      "d": 90.90916666666635,
      "v": 53
    },
    {
      "midi": 56,
      "hit": false,
      "t": 15000.012499999972,
      "d": 136.36375000000044,
      "v": 53
    },
    {
      "midi": 59,
      "hit": false,
      "t": 15000.012499999975,
      "d": 90.90916666666635,
      "v": 59
    },
    {
      "midi": 64,
      "hit": false,
      "t": 15000.012499999975,
      "d": 90.90916666666635,
      "v": 59
    },
    {
      "midi": 56,
      "hit": false,
      "t": 15000.012499999975,
      "d": 136.36375000000044,
      "v": 59
    },
    {
      "midi": 59,
      "hit": false,
      "t": 15136.376249999972,
      "d": 90.90916666666635,
      "v": 30
    },
    {
      "midi": 64,
      "hit": false,
      "t": 15136.376249999972,
      "d": 90.90916666666635,
      "v": 30
    },
    {
      "midi": 56,
      "hit": false,
      "t": 15136.376249999972,
      "d": 136.36375000000044,
      "v": 30
    },
    {
      "midi": 59,
      "hit": false,
      "t": 15136.376249999976,
      "d": 90.90916666666635,
      "v": 44
    },
    {
      "midi": 64,
      "hit": false,
      "t": 15136.376249999976,
      "d": 90.90916666666635,
      "v": 44
    },
    {
      "midi": 56,
      "hit": false,
      "t": 15136.376249999976,
      "d": 136.36374999999862,
      "v": 44
    },
    {
      "midi": 35,
      "hit": false,
      "t": 15136.376250000003,
      "d": 113.63645833333248,
      "v": 93
    },
    {
      "midi": 59,
      "hit": false,
      "t": 15272.739999999972,
      "d": 136.36375000000044,
      "v": 67
    },
    {
      "midi": 64,
      "hit": false,
      "t": 15272.739999999972,
      "d": 136.36375000000044,
      "v": 67
    },
    {
      "midi": 54,
      "hit": false,
      "t": 15272.739999999972,
      "d": 181.8183333333327,
      "v": 57
    },
    {
      "midi": 68,
      "hit": false,
      "t": 15272.739999999972,
      "d": 250.00020833333292,
      "v": 67
    },
    {
      "midi": 40,
      "hit": false,
      "t": 15272.739999999972,
      "d": 522.7277083333338,
      "v": 76
    },
    {
      "midi": 59,
      "hit": false,
      "t": 15272.739999999974,
      "d": 136.36375000000044,
      "v": 73
    },
    {
      "midi": 64,
      "hit": false,
      "t": 15272.739999999974,
      "d": 136.36375000000044,
      "v": 73
    },
    {
      "midi": 54,
      "hit": false,
      "t": 15272.739999999974,
      "d": 181.8183333333327,
      "v": 74
    },
    {
      "midi": 68,
      "hit": false,
      "t": 15272.739999999974,
      "d": 250.00020833333292,
      "v": 73
    },
    {
      "midi": 40,
      "hit": false,
      "t": 15272.739999999974,
      "d": 806.8188541666659,
      "v": 44
    },
    {
      "midi": 40,
      "hit": false,
      "t": 15272.740000000002,
      "d": 511.3640625000007,
      "v": 93
    },
    {
      "midi": 59,
      "hit": false,
      "t": 15409.103749999973,
      "d": 22.727291666666133,
      "v": 46
    },
    {
      "midi": 64,
      "hit": false,
      "t": 15409.103749999973,
      "d": 22.727291666666133,
      "v": 46
    },
    {
      "midi": 56,
      "hit": false,
      "t": 15409.103749999973,
      "d": 386.36395833333336,
      "v": 30
    },
    {
      "midi": 59,
      "hit": false,
      "t": 15409.103749999975,
      "d": 22.727291666666133,
      "v": 52
    },
    {
      "midi": 64,
      "hit": false,
      "t": 15409.103749999975,
      "d": 22.727291666666133,
      "v": 52
    },
    {
      "midi": 56,
      "hit": false,
      "t": 15409.103749999975,
      "d": 386.36395833333336,
      "v": 44
    },
    {
      "midi": 59,
      "hit": false,
      "t": 15545.467499999972,
      "d": 79.54552083333328,
      "v": 46
    },
    {
      "midi": 64,
      "hit": false,
      "t": 15545.467499999972,
      "d": 79.54552083333328,
      "v": 46
    },
    {
      "midi": 68,
      "hit": false,
      "t": 15545.467499999972,
      "d": 79.54552083333328,
      "v": 46
    },
    {
      "midi": 59,
      "hit": false,
      "t": 15545.467499999973,
      "d": 79.54552083333328,
      "v": 52
    },
    {
      "midi": 64,
      "hit": false,
      "t": 15545.467499999973,
      "d": 79.54552083333328,
      "v": 52
    },
    {
      "midi": 68,
      "hit": false,
      "t": 15545.467499999973,
      "d": 79.54552083333328,
      "v": 52
    },
    {
      "midi": 59,
      "hit": false,
      "t": 15681.831249999972,
      "d": 68.18187500000022,
      "v": 67
    },
    {
      "midi": 64,
      "hit": false,
      "t": 15681.831249999972,
      "d": 68.18187500000022,
      "v": 67
    },
    {
      "midi": 68,
      "hit": false,
      "t": 15681.831249999972,
      "d": 68.18187500000022,
      "v": 67
    },
    {
      "midi": 59,
      "hit": false,
      "t": 15681.831249999974,
      "d": 68.18187500000022,
      "v": 73
    },
    {
      "midi": 64,
      "hit": false,
      "t": 15681.831249999974,
      "d": 68.18187500000022,
      "v": 73
    },
    {
      "midi": 68,
      "hit": false,
      "t": 15681.831249999974,
      "d": 68.18187500000022,
      "v": 73
    },
    {
      "midi": 56,
      "hit": false,
      "t": 15818.194999999972,
      "d": 113.63645833333248,
      "v": 46
    },
    {
      "midi": 59,
      "hit": false,
      "t": 15818.194999999972,
      "d": 113.63645833333248,
      "v": 59
    },
    {
      "midi": 64,
      "hit": false,
      "t": 15818.194999999972,
      "d": 113.63645833333248,
      "v": 59
    },
    {
      "midi": 68,
      "hit": false,
      "t": 15818.194999999972,
      "d": 113.63645833333248,
      "v": 59
    },
    {
      "midi": 56,
      "hit": false,
      "t": 15818.194999999974,
      "d": 113.63645833333248,
      "v": 52
    },
    {
      "midi": 59,
      "hit": false,
      "t": 15818.194999999974,
      "d": 113.63645833333248,
      "v": 65
    },
    {
      "midi": 64,
      "hit": false,
      "t": 15818.194999999974,
      "d": 113.63645833333248,
      "v": 65
    },
    {
      "midi": 68,
      "hit": false,
      "t": 15818.194999999974,
      "d": 113.63645833333248,
      "v": 65
    },
    {
      "midi": 35,
      "hit": false,
      "t": 15818.195000000002,
      "d": 352.27302083333416,
      "v": 93
    },
    {
      "midi": 68,
      "hit": false,
      "t": 16090.922499999971,
      "d": 136.36375000000044,
      "v": 67
    },
    {
      "midi": 59,
      "hit": false,
      "t": 16090.922499999971,
      "d": 159.09104166666657,
      "v": 76
    },
    {
      "midi": 64,
      "hit": false,
      "t": 16090.922499999971,
      "d": 250.00020833333292,
      "v": 67
    },
    {
      "midi": 45,
      "hit": false,
      "t": 16090.922499999971,
      "d": 670.4551041666637,
      "v": 76
    },
    {
      "midi": 68,
      "hit": false,
      "t": 16090.922499999973,
      "d": 136.36375000000044,
      "v": 73
    },
    {
      "midi": 59,
      "hit": false,
      "t": 16090.922499999973,
      "d": 159.09104166666657,
      "v": 74
    },
    {
      "midi": 64,
      "hit": false,
      "t": 16090.922499999973,
      "d": 250.00020833333292,
      "v": 73
    },
    {
      "midi": 45,
      "hit": false,
      "t": 16090.922499999973,
      "d": 1215.9101041666636,
      "v": 44
    },
    {
      "midi": 61,
      "hit": false,
      "t": 16227.286249999972,
      "d": 113.63645833333248,
      "v": 30
    },
    {
      "midi": 69,
      "hit": false,
      "t": 16227.286249999972,
      "d": 113.63645833333248,
      "v": 30
    },
    {
      "midi": 61,
      "hit": false,
      "t": 16227.286249999974,
      "d": 113.63645833333248,
      "v": 44
    },
    {
      "midi": 69,
      "hit": false,
      "t": 16227.286249999974,
      "d": 113.63645833333248,
      "v": 44
    },
    {
      "midi": 35,
      "hit": false,
      "t": 16227.286250000003,
      "d": 56.81822916666715,
      "v": 93
    },
    {
      "midi": 61,
      "hit": false,
      "t": 16363.64999999997,
      "d": 113.63645833333248,
      "v": 30
    },
    {
      "midi": 64,
      "hit": false,
      "t": 16363.64999999997,
      "d": 113.63645833333248,
      "v": 30
    },
    {
      "midi": 69,
      "hit": false,
      "t": 16363.64999999997,
      "d": 113.63645833333248,
      "v": 30
    },
    {
      "midi": 61,
      "hit": false,
      "t": 16363.649999999972,
      "d": 113.6364583333343,
      "v": 44
    },
    {
      "midi": 64,
      "hit": false,
      "t": 16363.649999999972,
      "d": 113.6364583333343,
      "v": 44
    },
    {
      "midi": 69,
      "hit": false,
      "t": 16363.649999999972,
      "d": 113.6364583333343,
      "v": 44
    },
    {
      "midi": 40,
      "hit": false,
      "t": 16363.650000000003,
      "d": 181.81833333333452,
      "v": 93
    },
    {
      "midi": 64,
      "hit": false,
      "t": 16500.01374999997,
      "d": 113.6364583333343,
      "v": 76
    },
    {
      "midi": 69,
      "hit": false,
      "t": 16500.01374999997,
      "d": 113.6364583333343,
      "v": 76
    },
    {
      "midi": 61,
      "hit": false,
      "t": 16500.01374999997,
      "d": 238.63656249999985,
      "v": 76
    },
    {
      "midi": 64,
      "hit": false,
      "t": 16500.013749999973,
      "d": 113.6364583333343,
      "v": 74
    },
    {
      "midi": 69,
      "hit": false,
      "t": 16500.013749999973,
      "d": 113.6364583333343,
      "v": 74
    },
    {
      "midi": 61,
      "hit": false,
      "t": 16500.013749999973,
      "d": 238.63656249999985,
      "v": 74
    },
    {
      "midi": 64,
      "hit": false,
      "t": 16636.37749999997,
      "d": 102.27281249999942,
      "v": 46
    },
    {
      "midi": 69,
      "hit": false,
      "t": 16636.37749999997,
      "d": 102.27281249999942,
      "v": 46
    },
    {
      "midi": 64,
      "hit": false,
      "t": 16636.377499999973,
      "d": 102.27281249999942,
      "v": 52
    },
    {
      "midi": 69,
      "hit": false,
      "t": 16636.377499999973,
      "d": 102.27281249999942,
      "v": 52
    },
    {
      "midi": 40,
      "hit": false,
      "t": 16636.377500000006,
      "d": 238.63656249999985,
      "v": 93
    },
    {
      "midi": 61,
      "hit": false,
      "t": 16772.74124999997,
      "d": 113.6364583333343,
      "v": 46
    },
    {
      "midi": 64,
      "hit": false,
      "t": 16772.74124999997,
      "d": 113.6364583333343,
      "v": 46
    },
    {
      "midi": 69,
      "hit": false,
      "t": 16772.74124999997,
      "d": 113.6364583333343,
      "v": 46
    },
    {
      "midi": 61,
      "hit": false,
      "t": 16772.741249999974,
      "d": 113.6364583333343,
      "v": 52
    },
    {
      "midi": 64,
      "hit": false,
      "t": 16772.741249999974,
      "d": 113.6364583333343,
      "v": 52
    },
    {
      "midi": 69,
      "hit": false,
      "t": 16772.741249999974,
      "d": 113.6364583333343,
      "v": 52
    },
    {
      "midi": 61,
      "hit": false,
      "t": 16909.10499999997,
      "d": 136.36375000000044,
      "v": 76
    },
    {
      "midi": 69,
      "hit": false,
      "t": 16909.10499999997,
      "d": 136.36375000000044,
      "v": 76
    },
    {
      "midi": 64,
      "hit": false,
      "t": 16909.10499999997,
      "d": 181.8183333333327,
      "v": 76
    },
    {
      "midi": 45,
      "hit": false,
      "t": 16909.10499999997,
      "d": 250.0002083333311,
      "v": 76
    },
    {
      "midi": 61,
      "hit": false,
      "t": 16909.104999999974,
      "d": 136.36375000000044,
      "v": 74
    },
    {
      "midi": 69,
      "hit": false,
      "t": 16909.104999999974,
      "d": 136.36375000000044,
      "v": 74
    },
    {
      "midi": 64,
      "hit": false,
      "t": 16909.104999999974,
      "d": 181.8183333333327,
      "v": 74
    },
    {
      "midi": 35,
      "hit": false,
      "t": 16909.105000000007,
      "d": 272.7275000000009,
      "v": 93
    },
    {
      "midi": 59,
      "hit": false,
      "t": 17045.46874999997,
      "d": 113.63645833333067,
      "v": 67
    },
    {
      "midi": 68,
      "hit": false,
      "t": 17045.46874999997,
      "d": 113.63645833333067,
      "v": 67
    },
    {
      "midi": 59,
      "hit": false,
      "t": 17045.468749999975,
      "d": 113.63645833333067,
      "v": 73
    },
    {
      "midi": 68,
      "hit": false,
      "t": 17045.468749999975,
      "d": 113.63645833333067,
      "v": 73
    },
    {
      "midi": 59,
      "hit": false,
      "t": 17181.832499999968,
      "d": 22.727291666666133,
      "v": 67
    },
    {
      "midi": 64,
      "hit": false,
      "t": 17181.832499999968,
      "d": 22.727291666666133,
      "v": 67
    },
    {
      "midi": 59,
      "hit": false,
      "t": 17181.83249999997,
      "d": 22.727291666666133,
      "v": 73
    },
    {
      "midi": 64,
      "hit": false,
      "t": 17181.83249999997,
      "d": 22.727291666666133,
      "v": 73
    },
    {
      "midi": 35,
      "hit": false,
      "t": 17181.832500000008,
      "d": 34.09093750000102,
      "v": 93
    },
    {
      "midi": 59,
      "hit": false,
      "t": 17318.196249999968,
      "d": 22.727291666666133,
      "v": 46
    },
    {
      "midi": 64,
      "hit": false,
      "t": 17318.196249999968,
      "d": 22.727291666666133,
      "v": 46
    },
    {
      "midi": 59,
      "hit": false,
      "t": 17318.19624999997,
      "d": 22.727291666666133,
      "v": 52
    },
    {
      "midi": 64,
      "hit": false,
      "t": 17318.19624999997,
      "d": 22.727291666666133,
      "v": 52
    },
    {
      "midi": 35,
      "hit": false,
      "t": 17318.196250000008,
      "d": 79.54552083333328,
      "v": 93
    },
    {
      "midi": 54,
      "hit": false,
      "t": 17454.55999999997,
      "d": 90.90916666666817,
      "v": 63
    },
    {
      "midi": 59,
      "hit": false,
      "t": 17454.55999999997,
      "d": 136.36375000000044,
      "v": 67
    },
    {
      "midi": 64,
      "hit": false,
      "t": 17454.55999999997,
      "d": 136.36375000000044,
      "v": 67
    },
    {
      "midi": 40,
      "hit": false,
      "t": 17454.55999999997,
      "d": 670.4551041666709,
      "v": 76
    },
    {
      "midi": 54,
      "hit": false,
      "t": 17454.559999999972,
      "d": 90.90916666666817,
      "v": 74
    },
    {
      "midi": 59,
      "hit": false,
      "t": 17454.559999999972,
      "d": 136.36375000000044,
      "v": 73
    },
    {
      "midi": 64,
      "hit": false,
      "t": 17454.559999999972,
      "d": 136.36375000000044,
      "v": 73
    },
    {
      "midi": 40,
      "hit": false,
      "t": 17454.559999999972,
      "d": 806.8188541666714,
      "v": 44
    },
    {
      "midi": 40,
      "hit": false,
      "t": 17454.56000000001,
      "d": 568.1822916666679,
      "v": 93
    },
    {
      "midi": 68,
      "hit": false,
      "t": 17465.923645833303,
      "d": 261.363854166666,
      "v": 30
    },
    {
      "midi": 68,
      "hit": false,
      "t": 17465.923645833307,
      "d": 261.363854166666,
      "v": 44
    },
    {
      "midi": 59,
      "hit": false,
      "t": 17590.92374999997,
      "d": 22.727291666666133,
      "v": 64
    },
    {
      "midi": 64,
      "hit": false,
      "t": 17590.92374999997,
      "d": 22.727291666666133,
      "v": 46
    },
    {
      "midi": 56,
      "hit": false,
      "t": 17590.92374999997,
      "d": 386.3639583333352,
      "v": 30
    },
    {
      "midi": 59,
      "hit": false,
      "t": 17590.923749999973,
      "d": 22.727291666666133,
      "v": 70
    },
    {
      "midi": 64,
      "hit": false,
      "t": 17590.923749999973,
      "d": 22.727291666666133,
      "v": 52
    },
    {
      "midi": 56,
      "hit": false,
      "t": 17590.923749999973,
      "d": 386.3639583333352,
      "v": 44
    },
    {
      "midi": 59,
      "hit": false,
      "t": 17727.28749999997,
      "d": 22.727291666666133,
      "v": 46
    },
    {
      "midi": 64,
      "hit": false,
      "t": 17727.28749999997,
      "d": 22.727291666666133,
      "v": 46
    },
    {
      "midi": 59,
      "hit": false,
      "t": 17727.287499999973,
      "d": 22.727291666666133,
      "v": 52
    },
    {
      "midi": 64,
      "hit": false,
      "t": 17727.287499999973,
      "d": 22.727291666666133,
      "v": 52
    },
    {
      "midi": 59,
      "hit": false,
      "t": 17863.65124999997,
      "d": 90.90916666666817,
      "v": 47
    },
    {
      "midi": 64,
      "hit": false,
      "t": 17863.65124999997,
      "d": 90.90916666666817,
      "v": 67
    },
    {
      "midi": 68,
      "hit": false,
      "t": 17863.65124999997,
      "d": 113.6364583333343,
      "v": 30
    },
    {
      "midi": 59,
      "hit": false,
      "t": 17863.651249999974,
      "d": 90.90916666666817,
      "v": 53
    },
    {
      "midi": 64,
      "hit": false,
      "t": 17863.651249999974,
      "d": 90.90916666666817,
      "v": 73
    },
    {
      "midi": 68,
      "hit": false,
      "t": 17863.651249999974,
      "d": 113.6364583333343,
      "v": 44
    },
    {
      "midi": 59,
      "hit": false,
      "t": 18000.01499999997,
      "d": 102.27281250000306,
      "v": 72
    },
    {
      "midi": 64,
      "hit": false,
      "t": 18000.01499999997,
      "d": 102.27281250000306,
      "v": 72
    },
    {
      "midi": 59,
      "hit": false,
      "t": 18000.014999999974,
      "d": 102.27281250000306,
      "v": 74
    },
    {
      "midi": 64,
      "hit": false,
      "t": 18000.014999999974,
      "d": 102.27281250000306,
      "v": 74
    },
    {
      "midi": 35,
      "hit": false,
      "t": 18000.01500000001,
      "d": 340.9093749999993,
      "v": 93
    },
    {
      "midi": 68,
      "hit": false,
      "t": 18011.378645833305,
      "d": 113.6364583333343,
      "v": 30
    },
    {
      "midi": 68,
      "hit": false,
      "t": 18011.37864583331,
      "d": 125.00010416666919,
      "v": 44
    },
    {
      "midi": 59,
      "hit": false,
      "t": 18136.378749999974,
      "d": 11.363645833334886,
      "v": 30
    },
    {
      "midi": 64,
      "hit": false,
      "t": 18136.378749999974,
      "d": 11.363645833334886,
      "v": 30
    },
    {
      "midi": 68,
      "hit": false,
      "t": 18136.378749999974,
      "d": 34.09093750000102,
      "v": 30
    },
    {
      "midi": 59,
      "hit": false,
      "t": 18136.378749999978,
      "d": 22.727291666666133,
      "v": 44
    },
    {
      "midi": 68,
      "hit": false,
      "t": 18136.378749999978,
      "d": 125.00010416666555,
      "v": 44
    },
    {
      "midi": 64,
      "hit": false,
      "t": 18136.378749999978,
      "d": 136.36375000000044,
      "v": 44
    },
    {
      "midi": 68,
      "hit": false,
      "t": 18272.742499999975,
      "d": 261.363854166666,
      "v": 64
    },
    {
      "midi": 59,
      "hit": false,
      "t": 18272.742499999975,
      "d": 397.7276041666664,
      "v": 64
    },
    {
      "midi": 64,
      "hit": false,
      "t": 18272.742499999975,
      "d": 397.7276041666664,
      "v": 64
    },
    {
      "midi": 56,
      "hit": false,
      "t": 18272.742499999975,
      "d": 534.0913541666669,
      "v": 64
    },
    {
      "midi": 40,
      "hit": false,
      "t": 18272.742499999975,
      "d": 943.1826041666754,
      "v": 76
    },
    {
      "midi": 64,
      "hit": false,
      "t": 18272.74249999998,
      "d": 136.36375000000044,
      "v": 70
    },
    {
      "midi": 68,
      "hit": false,
      "t": 18272.74249999998,
      "d": 261.363854166666,
      "v": 70
    },
    {
      "midi": 59,
      "hit": false,
      "t": 18272.74249999998,
      "d": 397.7276041666664,
      "v": 70
    },
    {
      "midi": 56,
      "hit": false,
      "t": 18272.74249999998,
      "d": 534.0913541666669,
      "v": 70
    },
    {
      "midi": 40,
      "hit": false,
      "t": 18272.74249999998,
      "d": 1215.9101041666727,
      "v": 44
    },
    {
      "midi": 35,
      "hit": false,
      "t": 18409.106250000008,
      "d": 90.90916666666817,
      "v": 93
    },
    {
      "midi": 40,
      "hit": false,
      "t": 18545.47000000001,
      "d": 159.09104166666657,
      "v": 93
    },
    {
      "midi": 59,
      "hit": false,
      "t": 18681.833749999976,
      "d": 125.00010416666555,
      "v": 30
    },
    {
      "midi": 64,
      "hit": false,
      "t": 18681.833749999976,
      "d": 125.00010416666555,
      "v": 30
    },
    {
      "midi": 68,
      "hit": false,
      "t": 18681.833749999976,
      "d": 125.00010416666555,
      "v": 30
    },
    {
      "midi": 59,
      "hit": false,
      "t": 18681.83374999998,
      "d": 125.00010416666555,
      "v": 44
    },
    {
      "midi": 64,
      "hit": false,
      "t": 18681.83374999998,
      "d": 125.00010416666555,
      "v": 44
    },
    {
      "midi": 68,
      "hit": false,
      "t": 18681.83374999998,
      "d": 125.00010416666555,
      "v": 44
    },
    {
      "midi": 59,
      "hit": false,
      "t": 18818.197499999977,
      "d": 113.6364583333343,
      "v": 30
    },
    {
      "midi": 64,
      "hit": false,
      "t": 18818.197499999977,
      "d": 113.6364583333343,
      "v": 30
    },
    {
      "midi": 68,
      "hit": false,
      "t": 18818.197499999977,
      "d": 113.6364583333343,
      "v": 30
    },
    {
      "midi": 59,
      "hit": false,
      "t": 18818.19749999998,
      "d": 113.6364583333343,
      "v": 44
    },
    {
      "midi": 64,
      "hit": false,
      "t": 18818.19749999998,
      "d": 113.6364583333343,
      "v": 44
    },
    {
      "midi": 68,
      "hit": false,
      "t": 18818.19749999998,
      "d": 113.6364583333343,
      "v": 44
    },
    {
      "midi": 40,
      "hit": false,
      "t": 18818.19750000001,
      "d": 215.90927083333372,
      "v": 93
    },
    {
      "midi": 59,
      "hit": false,
      "t": 18954.561249999977,
      "d": 113.6364583333343,
      "v": 59
    },
    {
      "midi": 64,
      "hit": false,
      "t": 18954.561249999977,
      "d": 113.6364583333343,
      "v": 59
    },
    {
      "midi": 68,
      "hit": false,
      "t": 18954.561249999977,
      "d": 113.6364583333343,
      "v": 59
    },
    {
      "midi": 59,
      "hit": false,
      "t": 18954.56124999998,
      "d": 113.6364583333343,
      "v": 65
    },
    {
      "midi": 64,
      "hit": false,
      "t": 18954.56124999998,
      "d": 113.6364583333343,
      "v": 65
    },
    {
      "midi": 68,
      "hit": false,
      "t": 18954.56124999998,
      "d": 113.6364583333343,
      "v": 65
    },
    {
      "midi": 64,
      "hit": false,
      "t": 19090.924999999977,
      "d": 11.363645833334886,
      "v": 76
    },
    {
      "midi": 59,
      "hit": false,
      "t": 19090.924999999977,
      "d": 34.09093750000466,
      "v": 76
    },
    {
      "midi": 68,
      "hit": false,
      "t": 19090.924999999977,
      "d": 34.09093750000466,
      "v": 76
    },
    {
      "midi": 64,
      "hit": false,
      "t": 19090.92499999998,
      "d": 11.363645833334886,
      "v": 74
    },
    {
      "midi": 59,
      "hit": false,
      "t": 19090.92499999998,
      "d": 34.09093750000466,
      "v": 74
    },
    {
      "midi": 68,
      "hit": false,
      "t": 19090.92499999998,
      "d": 34.09093750000466,
      "v": 74
    },
    {
      "midi": 35,
      "hit": false,
      "t": 19090.92500000001,
      "d": 329.545729166668,
      "v": 93
    },
    {
      "midi": 64,
      "hit": false,
      "t": 19102.288645833312,
      "d": 11.363645833334886,
      "v": 55
    },
    {
      "midi": 64,
      "hit": false,
      "t": 19102.288645833316,
      "d": 11.363645833334886,
      "v": 61
    },
    {
      "midi": 59,
      "hit": false,
      "t": 19227.288749999985,
      "d": 45.454583333332266,
      "v": 30
    },
    {
      "midi": 56,
      "hit": false,
      "t": 19227.288749999985,
      "d": 68.1818749999984,
      "v": 30
    },
    {
      "midi": 59,
      "hit": false,
      "t": 19227.288749999985,
      "d": 45.454583333332266,
      "v": 44
    },
    {
      "midi": 56,
      "hit": false,
      "t": 19227.288749999985,
      "d": 68.1818749999984,
      "v": 44
    },
    {
      "midi": 59,
      "hit": false,
      "t": 19363.652499999982,
      "d": 90.90916666666817,
      "v": 53
    },
    {
      "midi": 64,
      "hit": false,
      "t": 19363.652499999982,
      "d": 90.90916666666817,
      "v": 53
    },
    {
      "midi": 56,
      "hit": false,
      "t": 19363.652499999982,
      "d": 136.36375000000044,
      "v": 53
    },
    {
      "midi": 59,
      "hit": false,
      "t": 19363.652499999982,
      "d": 90.90916666666817,
      "v": 59
    },
    {
      "midi": 64,
      "hit": false,
      "t": 19363.652499999982,
      "d": 90.90916666666817,
      "v": 59
    },
    {
      "midi": 56,
      "hit": false,
      "t": 19363.652499999982,
      "d": 125.00010416666919,
      "v": 59
    },
    {
      "midi": 59,
      "hit": false,
      "t": 19500.016249999982,
      "d": 90.90916666666817,
      "v": 30
    },
    {
      "midi": 64,
      "hit": false,
      "t": 19500.016249999982,
      "d": 90.90916666666817,
      "v": 30
    },
    {
      "midi": 56,
      "hit": false,
      "t": 19500.016249999982,
      "d": 136.36375000000044,
      "v": 30
    },
    {
      "midi": 56,
      "hit": false,
      "t": 19500.016249999986,
      "d": 90.90916666666817,
      "v": 44
    },
    {
      "midi": 59,
      "hit": false,
      "t": 19500.016249999986,
      "d": 90.90916666666817,
      "v": 44
    },
    {
      "midi": 64,
      "hit": false,
      "t": 19500.016249999986,
      "d": 90.90916666666817,
      "v": 44
    },
    {
      "midi": 35,
      "hit": false,
      "t": 19500.01625000001,
      "d": 90.90916666666817,
      "v": 93
    },
    {
      "midi": 59,
      "hit": false,
      "t": 19636.379999999983,
      "d": 136.36375000000044,
      "v": 67
    },
    {
      "midi": 64,
      "hit": false,
      "t": 19636.379999999983,
      "d": 136.36375000000044,
      "v": 67
    },
    {
      "midi": 54,
      "hit": false,
      "t": 19636.379999999983,
      "d": 181.8183333333327,
      "v": 57
    },
    {
      "midi": 68,
      "hit": false,
      "t": 19636.379999999983,
      "d": 250.0002083333311,
      "v": 67
    },
    {
      "midi": 40,
      "hit": false,
      "t": 19636.379999999983,
      "d": 659.0914583333288,
      "v": 76
    },
    {
      "midi": 59,
      "hit": false,
      "t": 19636.379999999986,
      "d": 136.36375000000044,
      "v": 73
    },
    {
      "midi": 64,
      "hit": false,
      "t": 19636.379999999986,
      "d": 136.36375000000044,
      "v": 73
    },
    {
      "midi": 54,
      "hit": false,
      "t": 19636.379999999986,
      "d": 181.8183333333327,
      "v": 74
    },
    {
      "midi": 68,
      "hit": false,
      "t": 19636.379999999986,
      "d": 250.0002083333311,
      "v": 73
    },
    {
      "midi": 40,
      "hit": false,
      "t": 19636.379999999986,
      "d": 806.8188541666605,
      "v": 44
    },
    {
      "midi": 40,
      "hit": false,
      "t": 19636.380000000012,
      "d": 522.727708333332,
      "v": 93
    },
    {
      "midi": 59,
      "hit": false,
      "t": 19772.743749999983,
      "d": 22.727291666666133,
      "v": 46
    },
    {
      "midi": 64,
      "hit": false,
      "t": 19772.743749999983,
      "d": 22.727291666666133,
      "v": 46
    },
    {
      "midi": 56,
      "hit": false,
      "t": 19772.743749999983,
      "d": 386.3639583333279,
      "v": 30
    },
    {
      "midi": 59,
      "hit": false,
      "t": 19772.743749999987,
      "d": 22.727291666666133,
      "v": 52
    },
    {
      "midi": 64,
      "hit": false,
      "t": 19772.743749999987,
      "d": 22.727291666666133,
      "v": 52
    },
    {
      "midi": 56,
      "hit": false,
      "t": 19772.743749999987,
      "d": 386.3639583333279,
      "v": 44
    },
    {
      "midi": 59,
      "hit": false,
      "t": 19909.10749999998,
      "d": 79.54552083333328,
      "v": 46
    },
    {
      "midi": 64,
      "hit": false,
      "t": 19909.10749999998,
      "d": 79.54552083333328,
      "v": 46
    },
    {
      "midi": 68,
      "hit": false,
      "t": 19909.10749999998,
      "d": 79.54552083333328,
      "v": 46
    },
    {
      "midi": 59,
      "hit": false,
      "t": 19909.107499999984,
      "d": 79.54552083333328,
      "v": 52
    },
    {
      "midi": 64,
      "hit": false,
      "t": 19909.107499999984,
      "d": 79.54552083333328,
      "v": 52
    },
    {
      "midi": 68,
      "hit": false,
      "t": 19909.107499999984,
      "d": 79.54552083333328,
      "v": 52
    },
    {
      "midi": 59,
      "hit": false,
      "t": 20045.47124999998,
      "d": 68.1818749999984,
      "v": 67
    },
    {
      "midi": 64,
      "hit": false,
      "t": 20045.47124999998,
      "d": 68.1818749999984,
      "v": 67
    },
    {
      "midi": 68,
      "hit": false,
      "t": 20045.47124999998,
      "d": 68.1818749999984,
      "v": 67
    },
    {
      "midi": 59,
      "hit": false,
      "t": 20045.471249999984,
      "d": 68.1818749999984,
      "v": 73
    },
    {
      "midi": 64,
      "hit": false,
      "t": 20045.471249999984,
      "d": 68.1818749999984,
      "v": 73
    },
    {
      "midi": 68,
      "hit": false,
      "t": 20045.471249999984,
      "d": 68.1818749999984,
      "v": 73
    },
    {
      "midi": 56,
      "hit": false,
      "t": 20181.834999999977,
      "d": 113.6364583333343,
      "v": 46
    },
    {
      "midi": 59,
      "hit": false,
      "t": 20181.834999999977,
      "d": 113.6364583333343,
      "v": 59
    },
    {
      "midi": 64,
      "hit": false,
      "t": 20181.834999999977,
      "d": 113.6364583333343,
      "v": 59
    },
    {
      "midi": 68,
      "hit": false,
      "t": 20181.834999999977,
      "d": 113.6364583333343,
      "v": 59
    },
    {
      "midi": 56,
      "hit": false,
      "t": 20181.83499999998,
      "d": 113.6364583333343,
      "v": 52
    },
    {
      "midi": 59,
      "hit": false,
      "t": 20181.83499999998,
      "d": 113.6364583333343,
      "v": 65
    },
    {
      "midi": 64,
      "hit": false,
      "t": 20181.83499999998,
      "d": 113.6364583333343,
      "v": 65
    },
    {
      "midi": 68,
      "hit": false,
      "t": 20181.83499999998,
      "d": 113.6364583333343,
      "v": 65
    },
    {
      "midi": 35,
      "hit": false,
      "t": 20181.83500000001,
      "d": 363.6366666666654,
      "v": 93
    },
    {
      "midi": 68,
      "hit": false,
      "t": 20454.562499999978,
      "d": 136.36375000000044,
      "v": 67
    },
    {
      "midi": 59,
      "hit": false,
      "t": 20454.562499999978,
      "d": 159.09104166666657,
      "v": 76
    },
    {
      "midi": 64,
      "hit": false,
      "t": 20454.562499999978,
      "d": 250.00020833333474,
      "v": 67
    },
    {
      "midi": 45,
      "hit": false,
      "t": 20454.562499999978,
      "d": 670.4551041666673,
      "v": 76
    },
    {
      "midi": 68,
      "hit": false,
      "t": 20454.56249999998,
      "d": 136.36375000000044,
      "v": 73
    },
    {
      "midi": 59,
      "hit": false,
      "t": 20454.56249999998,
      "d": 159.09104166666657,
      "v": 74
    },
    {
      "midi": 64,
      "hit": false,
      "t": 20454.56249999998,
      "d": 250.00020833333474,
      "v": 73
    },
    {
      "midi": 45,
      "hit": false,
      "t": 20454.56249999998,
      "d": 1068.1827083333337,
      "v": 44
    },
    {
      "midi": 61,
      "hit": false,
      "t": 20590.92624999998,
      "d": 113.6364583333343,
      "v": 30
    },
    {
      "midi": 69,
      "hit": false,
      "t": 20590.92624999998,
      "d": 113.6364583333343,
      "v": 30
    },
    {
      "midi": 61,
      "hit": false,
      "t": 20590.926249999982,
      "d": 113.6364583333343,
      "v": 44
    },
    {
      "midi": 69,
      "hit": false,
      "t": 20590.926249999982,
      "d": 113.6364583333343,
      "v": 44
    },
    {
      "midi": 35,
      "hit": false,
      "t": 20590.926250000008,
      "d": 68.1818749999984,
      "v": 93
    },
    {
      "midi": 61,
      "hit": false,
      "t": 20727.28999999998,
      "d": 113.6364583333343,
      "v": 30
    },
    {
      "midi": 64,
      "hit": false,
      "t": 20727.28999999998,
      "d": 113.6364583333343,
      "v": 30
    },
    {
      "midi": 69,
      "hit": false,
      "t": 20727.28999999998,
      "d": 113.6364583333343,
      "v": 30
    },
    {
      "midi": 61,
      "hit": false,
      "t": 20727.289999999983,
      "d": 113.6364583333343,
      "v": 44
    },
    {
      "midi": 64,
      "hit": false,
      "t": 20727.289999999983,
      "d": 113.6364583333343,
      "v": 44
    },
    {
      "midi": 69,
      "hit": false,
      "t": 20727.289999999983,
      "d": 113.6364583333343,
      "v": 44
    },
    {
      "midi": 40,
      "hit": false,
      "t": 20727.290000000005,
      "d": 147.72739583333168,
      "v": 93
    },
    {
      "midi": 64,
      "hit": false,
      "t": 20863.65374999998,
      "d": 113.6364583333343,
      "v": 76
    },
    {
      "midi": 69,
      "hit": false,
      "t": 20863.65374999998,
      "d": 113.6364583333343,
      "v": 76
    },
    {
      "midi": 61,
      "hit": false,
      "t": 20863.65374999998,
      "d": 238.63656249999985,
      "v": 76
    },
    {
      "midi": 64,
      "hit": false,
      "t": 20863.653749999983,
      "d": 113.6364583333343,
      "v": 74
    },
    {
      "midi": 69,
      "hit": false,
      "t": 20863.653749999983,
      "d": 113.6364583333343,
      "v": 74
    },
    {
      "midi": 61,
      "hit": false,
      "t": 20863.653749999983,
      "d": 238.63656249999985,
      "v": 74
    },
    {
      "midi": 64,
      "hit": false,
      "t": 21000.01749999998,
      "d": 102.27281249999942,
      "v": 46
    },
    {
      "midi": 69,
      "hit": false,
      "t": 21000.01749999998,
      "d": 102.27281249999942,
      "v": 46
    },
    {
      "midi": 64,
      "hit": false,
      "t": 21000.017499999984,
      "d": 102.27281249999942,
      "v": 52
    },
    {
      "midi": 69,
      "hit": false,
      "t": 21000.017499999984,
      "d": 102.27281249999942,
      "v": 52
    },
    {
      "midi": 40,
      "hit": false,
      "t": 21000.0175,
      "d": 318.18208333333314,
      "v": 93
    },
    {
      "midi": 61,
      "hit": false,
      "t": 21136.38124999998,
      "d": 113.6364583333343,
      "v": 46
    },
    {
      "midi": 64,
      "hit": false,
      "t": 21136.38124999998,
      "d": 113.6364583333343,
      "v": 46
    },
    {
      "midi": 69,
      "hit": false,
      "t": 21136.38124999998,
      "d": 113.6364583333343,
      "v": 46
    },
    {
      "midi": 61,
      "hit": false,
      "t": 21136.381249999984,
      "d": 113.6364583333343,
      "v": 52
    },
    {
      "midi": 64,
      "hit": false,
      "t": 21136.381249999984,
      "d": 113.6364583333343,
      "v": 52
    },
    {
      "midi": 69,
      "hit": false,
      "t": 21136.381249999984,
      "d": 113.6364583333343,
      "v": 52
    },
    {
      "midi": 61,
      "hit": false,
      "t": 21272.74499999998,
      "d": 136.36375000000044,
      "v": 76
    },
    {
      "midi": 69,
      "hit": false,
      "t": 21272.74499999998,
      "d": 136.36375000000044,
      "v": 76
    },
    {
      "midi": 64,
      "hit": false,
      "t": 21272.74499999998,
      "d": 181.8183333333327,
      "v": 76
    },
    {
      "midi": 45,
      "hit": false,
      "t": 21272.74499999998,
      "d": 250.0002083333311,
      "v": 76
    },
    {
      "midi": 61,
      "hit": false,
      "t": 21272.744999999984,
      "d": 136.36375000000044,
      "v": 74
    },
    {
      "midi": 69,
      "hit": false,
      "t": 21272.744999999984,
      "d": 136.36375000000044,
      "v": 74
    },
    {
      "midi": 64,
      "hit": false,
      "t": 21272.744999999984,
      "d": 181.8183333333327,
      "v": 74
    },
    {
      "midi": 35,
      "hit": false,
      "t": 21272.745000000003,
      "d": 204.54562499999884,
      "v": 93
    },
    {
      "midi": 59,
      "hit": false,
      "t": 21409.10874999998,
      "d": 113.63645833333067,
      "v": 67
    },
    {
      "midi": 68,
      "hit": false,
      "t": 21409.10874999998,
      "d": 113.63645833333067,
      "v": 67
    },
    {
      "midi": 59,
      "hit": false,
      "t": 21409.108749999985,
      "d": 113.63645833333067,
      "v": 73
    },
    {
      "midi": 68,
      "hit": false,
      "t": 21409.108749999985,
      "d": 113.63645833333067,
      "v": 73
    },
    {
      "midi": 59,
      "hit": false,
      "t": 21545.472499999978,
      "d": 22.727291666666133,
      "v": 67
    },
    {
      "midi": 64,
      "hit": false,
      "t": 21545.472499999978,
      "d": 22.727291666666133,
      "v": 67
    },
    {
      "midi": 59,
      "hit": false,
      "t": 21545.47249999998,
      "d": 22.727291666666133,
      "v": 73
    },
    {
      "midi": 64,
      "hit": false,
      "t": 21545.47249999998,
      "d": 22.727291666666133,
      "v": 73
    },
    {
      "midi": 35,
      "hit": false,
      "t": 21545.4725,
      "d": 22.727291666666133,
      "v": 93
    },
    {
      "midi": 59,
      "hit": false,
      "t": 21681.83624999998,
      "d": 22.727291666666133,
      "v": 46
    },
    {
      "midi": 64,
      "hit": false,
      "t": 21681.83624999998,
      "d": 22.727291666666133,
      "v": 46
    },
    {
      "midi": 59,
      "hit": false,
      "t": 21681.836249999982,
      "d": 22.727291666666133,
      "v": 52
    },
    {
      "midi": 64,
      "hit": false,
      "t": 21681.836249999982,
      "d": 22.727291666666133,
      "v": 52
    },
    {
      "midi": 35,
      "hit": false,
      "t": 21681.83625,
      "d": 56.81822916666715,
      "v": 93
    },
    {
      "midi": 54,
      "hit": false,
      "t": 21818.19999999998,
      "d": 90.90916666666817,
      "v": 63
    },
    {
      "midi": 59,
      "hit": false,
      "t": 21818.19999999998,
      "d": 136.36375000000044,
      "v": 67
    },
    {
      "midi": 64,
      "hit": false,
      "t": 21818.19999999998,
      "d": 136.36375000000044,
      "v": 67
    },
    {
      "midi": 40,
      "hit": false,
      "t": 21818.19999999998,
      "d": 670.4551041666709,
      "v": 76
    },
    {
      "midi": 54,
      "hit": false,
      "t": 21818.199999999983,
      "d": 90.90916666666817,
      "v": 74
    },
    {
      "midi": 59,
      "hit": false,
      "t": 21818.199999999983,
      "d": 136.36375000000044,
      "v": 73
    },
    {
      "midi": 64,
      "hit": false,
      "t": 21818.199999999983,
      "d": 136.36375000000044,
      "v": 73
    },
    {
      "midi": 40,
      "hit": false,
      "t": 21818.199999999983,
      "d": 670.4551041666709,
      "v": 44
    },
    {
      "midi": 40,
      "hit": false,
      "t": 21818.2,
      "d": 545.4550000000017,
      "v": 93
    },
    {
      "midi": 68,
      "hit": false,
      "t": 21829.563645833314,
      "d": 261.363854166666,
      "v": 30
    },
    {
      "midi": 68,
      "hit": false,
      "t": 21829.563645833317,
      "d": 261.363854166666,
      "v": 44
    },
    {
      "midi": 59,
      "hit": false,
      "t": 21954.56374999998,
      "d": 22.727291666666133,
      "v": 64
    },
    {
      "midi": 64,
      "hit": false,
      "t": 21954.56374999998,
      "d": 22.727291666666133,
      "v": 46
    },
    {
      "midi": 56,
      "hit": false,
      "t": 21954.56374999998,
      "d": 386.3639583333352,
      "v": 30
    },
    {
      "midi": 59,
      "hit": false,
      "t": 21954.563749999983,
      "d": 22.727291666666133,
      "v": 70
    },
    {
      "midi": 64,
      "hit": false,
      "t": 21954.563749999983,
      "d": 22.727291666666133,
      "v": 52
    },
    {
      "midi": 56,
      "hit": false,
      "t": 21954.563749999983,
      "d": 386.3639583333352,
      "v": 44
    },
    {
      "midi": 59,
      "hit": false,
      "t": 22090.92749999998,
      "d": 22.727291666666133,
      "v": 46
    },
    {
      "midi": 64,
      "hit": false,
      "t": 22090.92749999998,
      "d": 22.727291666666133,
      "v": 46
    },
    {
      "midi": 59,
      "hit": false,
      "t": 22090.927499999983,
      "d": 22.727291666666133,
      "v": 52
    },
    {
      "midi": 64,
      "hit": false,
      "t": 22090.927499999983,
      "d": 22.727291666666133,
      "v": 52
    },
    {
      "midi": 59,
      "hit": false,
      "t": 22227.29124999998,
      "d": 90.90916666666817,
      "v": 47
    },
    {
      "midi": 64,
      "hit": false,
      "t": 22227.29124999998,
      "d": 90.90916666666817,
      "v": 67
    },
    {
      "midi": 68,
      "hit": false,
      "t": 22227.29124999998,
      "d": 113.6364583333343,
      "v": 30
    },
    {
      "midi": 59,
      "hit": false,
      "t": 22227.291249999984,
      "d": 90.90916666666817,
      "v": 53
    },
    {
      "midi": 64,
      "hit": false,
      "t": 22227.291249999984,
      "d": 90.90916666666817,
      "v": 73
    },
    {
      "midi": 68,
      "hit": false,
      "t": 22227.291249999984,
      "d": 113.6364583333343,
      "v": 44
    },
    {
      "midi": 59,
      "hit": false,
      "t": 22363.65499999998,
      "d": 102.27281250000306,
      "v": 72
    },
    {
      "midi": 64,
      "hit": false,
      "t": 22363.65499999998,
      "d": 102.27281250000306,
      "v": 72
    },
    {
      "midi": 59,
      "hit": false,
      "t": 22363.654999999984,
      "d": 102.27281250000306,
      "v": 74
    },
    {
      "midi": 64,
      "hit": false,
      "t": 22363.654999999984,
      "d": 102.27281250000306,
      "v": 74
    },
    {
      "midi": 35,
      "hit": false,
      "t": 22363.655000000002,
      "d": 340.9093749999993,
      "v": 93
    },
    {
      "midi": 68,
      "hit": false,
      "t": 22375.018645833316,
      "d": 113.6364583333343,
      "v": 30
    },
    {
      "midi": 68,
      "hit": false,
      "t": 22375.01864583332,
      "d": 113.6364583333343,
      "v": 44
    },
    {
      "midi": 59,
      "hit": false,
      "t": 22500.018749999985,
      "d": 11.363645833334886,
      "v": 30
    },
    {
      "midi": 64,
      "hit": false,
      "t": 22500.018749999985,
      "d": 11.363645833334886,
      "v": 30
    },
    {
      "midi": 68,
      "hit": false,
      "t": 22500.018749999985,
      "d": 34.09093750000102,
      "v": 30
    },
    {
      "midi": 59,
      "hit": false,
      "t": 22500.01874999999,
      "d": 11.363645833334886,
      "v": 44
    },
    {
      "midi": 64,
      "hit": false,
      "t": 22500.01874999999,
      "d": 11.363645833334886,
      "v": 44
    },
    {
      "midi": 68,
      "hit": false,
      "t": 22500.01874999999,
      "d": 34.09093750000102,
      "v": 44
    },
    {
      "midi": 68,
      "hit": false,
      "t": 22636.382499999985,
      "d": 261.363854166666,
      "v": 64
    },
    {
      "midi": 59,
      "hit": false,
      "t": 22636.382499999985,
      "d": 397.7276041666664,
      "v": 64
    },
    {
      "midi": 64,
      "hit": false,
      "t": 22636.382499999985,
      "d": 397.7276041666664,
      "v": 64
    },
    {
      "midi": 56,
      "hit": false,
      "t": 22636.382499999985,
      "d": 534.0913541666669,
      "v": 64
    },
    {
      "midi": 40,
      "hit": false,
      "t": 22636.382499999985,
      "d": 943.1826041666754,
      "v": 76
    },
    {
      "midi": 68,
      "hit": false,
      "t": 22636.38249999999,
      "d": 261.363854166666,
      "v": 70
    },
    {
      "midi": 59,
      "hit": false,
      "t": 22636.38249999999,
      "d": 397.7276041666664,
      "v": 70
    },
    {
      "midi": 64,
      "hit": false,
      "t": 22636.38249999999,
      "d": 397.7276041666664,
      "v": 70
    },
    {
      "midi": 56,
      "hit": false,
      "t": 22636.38249999999,
      "d": 534.0913541666669,
      "v": 70
    },
    {
      "midi": 40,
      "hit": false,
      "t": 22636.38249999999,
      "d": 1215.9101041666727,
      "v": 44
    },
    {
      "midi": 35,
      "hit": false,
      "t": 22772.74625,
      "d": 68.1818749999984,
      "v": 93
    },
    {
      "midi": 40,
      "hit": false,
      "t": 22909.109999999997,
      "d": 147.72739583333168,
      "v": 93
    },
    {
      "midi": 59,
      "hit": false,
      "t": 23045.473749999986,
      "d": 125.00010416666555,
      "v": 30
    },
    {
      "midi": 64,
      "hit": false,
      "t": 23045.473749999986,
      "d": 125.00010416666555,
      "v": 30
    },
    {
      "midi": 68,
      "hit": false,
      "t": 23045.473749999986,
      "d": 125.00010416666555,
      "v": 30
    },
    {
      "midi": 59,
      "hit": false,
      "t": 23045.47374999999,
      "d": 125.00010416666555,
      "v": 44
    },
    {
      "midi": 64,
      "hit": false,
      "t": 23045.47374999999,
      "d": 125.00010416666555,
      "v": 44
    },
    {
      "midi": 68,
      "hit": false,
      "t": 23045.47374999999,
      "d": 125.00010416666555,
      "v": 44
    },
    {
      "midi": 59,
      "hit": false,
      "t": 23181.837499999987,
      "d": 113.6364583333343,
      "v": 30
    },
    {
      "midi": 64,
      "hit": false,
      "t": 23181.837499999987,
      "d": 113.6364583333343,
      "v": 30
    },
    {
      "midi": 68,
      "hit": false,
      "t": 23181.837499999987,
      "d": 113.6364583333343,
      "v": 30
    },
    {
      "midi": 59,
      "hit": false,
      "t": 23181.83749999999,
      "d": 113.6364583333343,
      "v": 44
    },
    {
      "midi": 64,
      "hit": false,
      "t": 23181.83749999999,
      "d": 113.6364583333343,
      "v": 44
    },
    {
      "midi": 68,
      "hit": false,
      "t": 23181.83749999999,
      "d": 113.6364583333343,
      "v": 44
    },
    {
      "midi": 40,
      "hit": false,
      "t": 23181.837499999994,
      "d": 272.7275000000009,
      "v": 93
    },
    {
      "midi": 59,
      "hit": false,
      "t": 23318.201249999987,
      "d": 113.6364583333343,
      "v": 59
    },
    {
      "midi": 64,
      "hit": false,
      "t": 23318.201249999987,
      "d": 113.6364583333343,
      "v": 59
    },
    {
      "midi": 68,
      "hit": false,
      "t": 23318.201249999987,
      "d": 113.6364583333343,
      "v": 59
    },
    {
      "midi": 59,
      "hit": false,
      "t": 23318.20124999999,
      "d": 113.6364583333343,
      "v": 65
    },
    {
      "midi": 64,
      "hit": false,
      "t": 23318.20124999999,
      "d": 113.6364583333343,
      "v": 65
    },
    {
      "midi": 68,
      "hit": false,
      "t": 23318.20124999999,
      "d": 113.6364583333343,
      "v": 65
    },
    {
      "midi": 64,
      "hit": false,
      "t": 23454.564999999988,
      "d": 11.363645833334886,
      "v": 76
    },
    {
      "midi": 59,
      "hit": false,
      "t": 23454.564999999988,
      "d": 34.09093750000466,
      "v": 76
    },
    {
      "midi": 68,
      "hit": false,
      "t": 23454.564999999988,
      "d": 34.09093750000466,
      "v": 76
    },
    {
      "midi": 64,
      "hit": false,
      "t": 23454.56499999999,
      "d": 11.363645833334886,
      "v": 74
    },
    {
      "midi": 59,
      "hit": false,
      "t": 23454.56499999999,
      "d": 34.09093750000466,
      "v": 74
    },
    {
      "midi": 68,
      "hit": false,
      "t": 23454.56499999999,
      "d": 34.09093750000466,
      "v": 74
    },
    {
      "midi": 35,
      "hit": false,
      "t": 23454.564999999995,
      "d": 329.545729166668,
      "v": 93
    },
    {
      "midi": 64,
      "hit": false,
      "t": 23465.928645833323,
      "d": 11.363645833334886,
      "v": 55
    },
    {
      "midi": 64,
      "hit": false,
      "t": 23465.928645833326,
      "d": 11.363645833334886,
      "v": 61
    },
    {
      "midi": 59,
      "hit": false,
      "t": 23590.928749999995,
      "d": 45.454583333332266,
      "v": 30
    },
    {
      "midi": 56,
      "hit": false,
      "t": 23590.928749999995,
      "d": 68.1818749999984,
      "v": 30
    },
    {
      "midi": 59,
      "hit": false,
      "t": 23590.928749999995,
      "d": 45.454583333332266,
      "v": 44
    },
    {
      "midi": 56,
      "hit": false,
      "t": 23590.928749999995,
      "d": 68.1818749999984,
      "v": 44
    },
    {
      "midi": 59,
      "hit": false,
      "t": 23727.292499999992,
      "d": 90.90916666666817,
      "v": 53
    },
    {
      "midi": 64,
      "hit": false,
      "t": 23727.292499999992,
      "d": 90.90916666666817,
      "v": 53
    },
    {
      "midi": 56,
      "hit": false,
      "t": 23727.292499999992,
      "d": 136.36375000000044,
      "v": 53
    },
    {
      "midi": 59,
      "hit": false,
      "t": 23727.292499999992,
      "d": 90.90916666666817,
      "v": 59
    },
    {
      "midi": 64,
      "hit": false,
      "t": 23727.292499999992,
      "d": 90.90916666666817,
      "v": 59
    },
    {
      "midi": 56,
      "hit": false,
      "t": 23727.292499999992,
      "d": 125.00010416666919,
      "v": 59
    },
    {
      "midi": 59,
      "hit": false,
      "t": 23863.656249999993,
      "d": 90.90916666666817,
      "v": 30
    },
    {
      "midi": 64,
      "hit": false,
      "t": 23863.656249999993,
      "d": 90.90916666666817,
      "v": 30
    },
    {
      "midi": 56,
      "hit": false,
      "t": 23863.656249999993,
      "d": 136.36375000000044,
      "v": 30
    },
    {
      "midi": 35,
      "hit": false,
      "t": 23863.656249999996,
      "d": 79.54552083333328,
      "v": 93
    },
    {
      "midi": 56,
      "hit": false,
      "t": 23863.656249999996,
      "d": 90.90916666666817,
      "v": 44
    },
    {
      "midi": 59,
      "hit": false,
      "t": 23863.656249999996,
      "d": 90.90916666666817,
      "v": 44
    },
    {
      "midi": 64,
      "hit": false,
      "t": 23863.656249999996,
      "d": 90.90916666666817,
      "v": 44
    },
    {
      "midi": 59,
      "hit": false,
      "t": 24000.019999999993,
      "d": 136.36375000000044,
      "v": 67
    },
    {
      "midi": 64,
      "hit": false,
      "t": 24000.019999999993,
      "d": 136.36375000000044,
      "v": 67
    },
    {
      "midi": 54,
      "hit": false,
      "t": 24000.019999999993,
      "d": 181.8183333333327,
      "v": 57
    },
    {
      "midi": 68,
      "hit": false,
      "t": 24000.019999999993,
      "d": 250.0002083333311,
      "v": 67
    },
    {
      "midi": 40,
      "hit": false,
      "t": 24000.019999999993,
      "d": 659.0914583333288,
      "v": 76
    },
    {
      "midi": 40,
      "hit": false,
      "t": 24000.019999999997,
      "d": 545.4550000000017,
      "v": 93
    },
    {
      "midi": 59,
      "hit": false,
      "t": 24000.019999999997,
      "d": 136.36375000000044,
      "v": 73
    },
    {
      "midi": 64,
      "hit": false,
      "t": 24000.019999999997,
      "d": 136.36375000000044,
      "v": 73
    },
    {
      "midi": 54,
      "hit": false,
      "t": 24000.019999999997,
      "d": 181.8183333333327,
      "v": 74
    },
    {
      "midi": 68,
      "hit": false,
      "t": 24000.019999999997,
      "d": 250.0002083333311,
      "v": 73
    },
    {
      "midi": 40,
      "hit": false,
      "t": 24000.019999999997,
      "d": 806.8188541666605,
      "v": 44
    },
    {
      "midi": 59,
      "hit": false,
      "t": 24136.383749999994,
      "d": 22.727291666666133,
      "v": 46
    },
    {
      "midi": 64,
      "hit": false,
      "t": 24136.383749999994,
      "d": 22.727291666666133,
      "v": 46
    },
    {
      "midi": 56,
      "hit": false,
      "t": 24136.383749999994,
      "d": 386.3639583333279,
      "v": 30
    },
    {
      "midi": 59,
      "hit": false,
      "t": 24136.383749999997,
      "d": 22.727291666666133,
      "v": 52
    },
    {
      "midi": 64,
      "hit": false,
      "t": 24136.383749999997,
      "d": 22.727291666666133,
      "v": 52
    },
    {
      "midi": 56,
      "hit": false,
      "t": 24136.383749999997,
      "d": 386.3639583333279,
      "v": 44
    },
    {
      "midi": 59,
      "hit": false,
      "t": 24272.74749999999,
      "d": 79.54552083333328,
      "v": 46
    },
    {
      "midi": 64,
      "hit": false,
      "t": 24272.74749999999,
      "d": 79.54552083333328,
      "v": 46
    },
    {
      "midi": 68,
      "hit": false,
      "t": 24272.74749999999,
      "d": 79.54552083333328,
      "v": 46
    },
    {
      "midi": 59,
      "hit": false,
      "t": 24272.747499999994,
      "d": 79.54552083333328,
      "v": 52
    },
    {
      "midi": 64,
      "hit": false,
      "t": 24272.747499999994,
      "d": 79.54552083333328,
      "v": 52
    },
    {
      "midi": 68,
      "hit": false,
      "t": 24272.747499999994,
      "d": 79.54552083333328,
      "v": 52
    },
    {
      "midi": 59,
      "hit": false,
      "t": 24409.11124999999,
      "d": 68.1818749999984,
      "v": 67
    },
    {
      "midi": 64,
      "hit": false,
      "t": 24409.11124999999,
      "d": 68.1818749999984,
      "v": 67
    },
    {
      "midi": 68,
      "hit": false,
      "t": 24409.11124999999,
      "d": 68.1818749999984,
      "v": 67
    },
    {
      "midi": 59,
      "hit": false,
      "t": 24409.111249999994,
      "d": 68.1818749999984,
      "v": 73
    },
    {
      "midi": 64,
      "hit": false,
      "t": 24409.111249999994,
      "d": 68.1818749999984,
      "v": 73
    },
    {
      "midi": 68,
      "hit": false,
      "t": 24409.111249999994,
      "d": 68.1818749999984,
      "v": 73
    },
    {
      "midi": 56,
      "hit": false,
      "t": 24545.474999999988,
      "d": 113.6364583333343,
      "v": 46
    },
    {
      "midi": 59,
      "hit": false,
      "t": 24545.474999999988,
      "d": 113.6364583333343,
      "v": 59
    },
    {
      "midi": 64,
      "hit": false,
      "t": 24545.474999999988,
      "d": 113.6364583333343,
      "v": 59
    },
    {
      "midi": 68,
      "hit": false,
      "t": 24545.474999999988,
      "d": 113.6364583333343,
      "v": 59
    },
    {
      "midi": 56,
      "hit": false,
      "t": 24545.47499999999,
      "d": 113.6364583333343,
      "v": 52
    },
    {
      "midi": 59,
      "hit": false,
      "t": 24545.47499999999,
      "d": 113.6364583333343,
      "v": 65
    },
    {
      "midi": 64,
      "hit": false,
      "t": 24545.47499999999,
      "d": 113.6364583333343,
      "v": 65
    },
    {
      "midi": 68,
      "hit": false,
      "t": 24545.47499999999,
      "d": 113.6364583333343,
      "v": 65
    },
    {
      "midi": 35,
      "hit": false,
      "t": 24545.475,
      "d": 306.81843749999825,
      "v": 93
    },
    {
      "midi": 68,
      "hit": false,
      "t": 24818.20249999999,
      "d": 136.36375000000044,
      "v": 67
    },
    {
      "midi": 59,
      "hit": false,
      "t": 24818.20249999999,
      "d": 159.09104166666657,
      "v": 76
    },
    {
      "midi": 64,
      "hit": false,
      "t": 24818.20249999999,
      "d": 250.00020833333474,
      "v": 67
    },
    {
      "midi": 45,
      "hit": false,
      "t": 24818.20249999999,
      "d": 670.4551041666673,
      "v": 76
    },
    {
      "midi": 68,
      "hit": false,
      "t": 24818.202499999992,
      "d": 136.36375000000044,
      "v": 73
    },
    {
      "midi": 59,
      "hit": false,
      "t": 24818.202499999992,
      "d": 159.09104166666657,
      "v": 74
    },
    {
      "midi": 64,
      "hit": false,
      "t": 24818.202499999992,
      "d": 250.00020833333474,
      "v": 73
    },
    {
      "midi": 45,
      "hit": false,
      "t": 24818.202499999992,
      "d": 1215.9101041666654,
      "v": 44
    },
    {
      "midi": 61,
      "hit": false,
      "t": 24954.56624999999,
      "d": 113.6364583333343,
      "v": 30
    },
    {
      "midi": 69,
      "hit": false,
      "t": 24954.56624999999,
      "d": 113.6364583333343,
      "v": 30
    },
    {
      "midi": 61,
      "hit": false,
      "t": 24954.566249999993,
      "d": 113.6364583333343,
      "v": 44
    },
    {
      "midi": 69,
      "hit": false,
      "t": 24954.566249999993,
      "d": 113.6364583333343,
      "v": 44
    },
    {
      "midi": 35,
      "hit": false,
      "t": 24954.566249999996,
      "d": 102.27281249999942,
      "v": 93
    },
    {
      "midi": 61,
      "hit": false,
      "t": 25090.92999999999,
      "d": 113.6364583333343,
      "v": 30
    },
    {
      "midi": 64,
      "hit": false,
      "t": 25090.92999999999,
      "d": 113.6364583333343,
      "v": 30
    },
    {
      "midi": 69,
      "hit": false,
      "t": 25090.92999999999,
      "d": 113.6364583333343,
      "v": 30
    },
    {
      "midi": 61,
      "hit": false,
      "t": 25090.929999999993,
      "d": 113.6364583333343,
      "v": 44
    },
    {
      "midi": 64,
      "hit": false,
      "t": 25090.929999999993,
      "d": 113.6364583333343,
      "v": 44
    },
    {
      "midi": 69,
      "hit": false,
      "t": 25090.929999999993,
      "d": 113.6364583333343,
      "v": 44
    },
    {
      "midi": 40,
      "hit": false,
      "t": 25090.929999999997,
      "d": 170.45468750000146,
      "v": 93
    },
    {
      "midi": 64,
      "hit": false,
      "t": 25227.29374999999,
      "d": 113.6364583333343,
      "v": 76
    },
    {
      "midi": 69,
      "hit": false,
      "t": 25227.29374999999,
      "d": 113.6364583333343,
      "v": 76
    },
    {
      "midi": 61,
      "hit": false,
      "t": 25227.29374999999,
      "d": 238.63656249999985,
      "v": 76
    },
    {
      "midi": 64,
      "hit": false,
      "t": 25227.293749999993,
      "d": 113.6364583333343,
      "v": 74
    },
    {
      "midi": 69,
      "hit": false,
      "t": 25227.293749999993,
      "d": 113.6364583333343,
      "v": 74
    },
    {
      "midi": 61,
      "hit": false,
      "t": 25227.293749999993,
      "d": 238.63656249999985,
      "v": 74
    },
    {
      "midi": 64,
      "hit": false,
      "t": 25363.65749999999,
      "d": 102.27281249999942,
      "v": 46
    },
    {
      "midi": 69,
      "hit": false,
      "t": 25363.65749999999,
      "d": 102.27281249999942,
      "v": 46
    },
    {
      "midi": 64,
      "hit": false,
      "t": 25363.657499999994,
      "d": 102.27281249999942,
      "v": 52
    },
    {
      "midi": 69,
      "hit": false,
      "t": 25363.657499999994,
      "d": 102.27281249999942,
      "v": 52
    },
    {
      "midi": 40,
      "hit": false,
      "t": 25363.657499999998,
      "d": 284.09114583333576,
      "v": 93
    },
    {
      "midi": 61,
      "hit": false,
      "t": 25500.02124999999,
      "d": 113.6364583333343,
      "v": 46
    },
    {
      "midi": 64,
      "hit": false,
      "t": 25500.02124999999,
      "d": 113.6364583333343,
      "v": 46
    },
    {
      "midi": 69,
      "hit": false,
      "t": 25500.02124999999,
      "d": 113.6364583333343,
      "v": 46
    },
    {
      "midi": 61,
      "hit": false,
      "t": 25500.021249999994,
      "d": 113.6364583333343,
      "v": 52
    },
    {
      "midi": 64,
      "hit": false,
      "t": 25500.021249999994,
      "d": 113.6364583333343,
      "v": 52
    },
    {
      "midi": 69,
      "hit": false,
      "t": 25500.021249999994,
      "d": 113.6364583333343,
      "v": 52
    },
    {
      "midi": 61,
      "hit": false,
      "t": 25636.38499999999,
      "d": 136.36375000000044,
      "v": 76
    },
    {
      "midi": 69,
      "hit": false,
      "t": 25636.38499999999,
      "d": 136.36375000000044,
      "v": 76
    },
    {
      "midi": 64,
      "hit": false,
      "t": 25636.38499999999,
      "d": 181.8183333333327,
      "v": 76
    },
    {
      "midi": 45,
      "hit": false,
      "t": 25636.38499999999,
      "d": 397.7276041666628,
      "v": 76
    },
    {
      "midi": 61,
      "hit": false,
      "t": 25636.384999999995,
      "d": 136.36375000000044,
      "v": 74
    },
    {
      "midi": 69,
      "hit": false,
      "t": 25636.384999999995,
      "d": 136.36375000000044,
      "v": 74
    },
    {
      "midi": 64,
      "hit": false,
      "t": 25636.384999999995,
      "d": 181.8183333333327,
      "v": 74
    },
    {
      "midi": 35,
      "hit": false,
      "t": 25636.385,
      "d": 227.2729166666686,
      "v": 93
    },
    {
      "midi": 59,
      "hit": false,
      "t": 25772.74874999999,
      "d": 113.63645833333067,
      "v": 67
    },
    {
      "midi": 68,
      "hit": false,
      "t": 25772.74874999999,
      "d": 113.63645833333067,
      "v": 67
    },
    {
      "midi": 59,
      "hit": false,
      "t": 25772.748749999995,
      "d": 113.63645833333067,
      "v": 73
    },
    {
      "midi": 68,
      "hit": false,
      "t": 25772.748749999995,
      "d": 113.63645833333067,
      "v": 73
    },
    {
      "midi": 59,
      "hit": false,
      "t": 25909.11249999999,
      "d": 22.727291666666133,
      "v": 67
    },
    {
      "midi": 64,
      "hit": false,
      "t": 25909.11249999999,
      "d": 22.727291666666133,
      "v": 67
    },
    {
      "midi": 59,
      "hit": false,
      "t": 25909.112499999992,
      "d": 22.727291666666133,
      "v": 73
    },
    {
      "midi": 64,
      "hit": false,
      "t": 25909.112499999992,
      "d": 22.727291666666133,
      "v": 73
    },
    {
      "midi": 35,
      "hit": false,
      "t": 25909.1125,
      "d": 45.454583333332266,
      "v": 93
    },
    {
      "midi": 59,
      "hit": false,
      "t": 26045.47624999999,
      "d": 22.727291666666133,
      "v": 46
    },
    {
      "midi": 64,
      "hit": false,
      "t": 26045.47624999999,
      "d": 22.727291666666133,
      "v": 46
    },
    {
      "midi": 59,
      "hit": false,
      "t": 26045.476249999992,
      "d": 22.727291666666133,
      "v": 52
    },
    {
      "midi": 64,
      "hit": false,
      "t": 26045.476249999992,
      "d": 22.727291666666133,
      "v": 52
    },
    {
      "midi": 35,
      "hit": false,
      "t": 26045.47625,
      "d": 79.54552083333328,
      "v": 93
    },
    {
      "midi": 54,
      "hit": false,
      "t": 26181.83999999999,
      "d": 90.90916666666817,
      "v": 63
    },
    {
      "midi": 59,
      "hit": false,
      "t": 26181.83999999999,
      "d": 136.36375000000044,
      "v": 67
    },
    {
      "midi": 64,
      "hit": false,
      "t": 26181.83999999999,
      "d": 136.36375000000044,
      "v": 67
    },
    {
      "midi": 40,
      "hit": false,
      "t": 26181.83999999999,
      "d": 670.4551041666709,
      "v": 76
    },
    {
      "midi": 54,
      "hit": false,
      "t": 26181.839999999993,
      "d": 90.90916666666817,
      "v": 74
    },
    {
      "midi": 59,
      "hit": false,
      "t": 26181.839999999993,
      "d": 136.36375000000044,
      "v": 73
    },
    {
      "midi": 64,
      "hit": false,
      "t": 26181.839999999993,
      "d": 136.36375000000044,
      "v": 73
    },
    {
      "midi": 40,
      "hit": false,
      "t": 26181.839999999993,
      "d": 670.4551041666709,
      "v": 44
    },
    {
      "midi": 40,
      "hit": false,
      "t": 26181.84,
      "d": 556.8186458333366,
      "v": 93
    },
    {
      "midi": 68,
      "hit": false,
      "t": 26193.203645833324,
      "d": 261.363854166666,
      "v": 30
    },
    {
      "midi": 68,
      "hit": false,
      "t": 26193.203645833328,
      "d": 261.363854166666,
      "v": 44
    },
    {
      "midi": 59,
      "hit": false,
      "t": 26318.20374999999,
      "d": 22.727291666666133,
      "v": 64
    },
    {
      "midi": 64,
      "hit": false,
      "t": 26318.20374999999,
      "d": 22.727291666666133,
      "v": 46
    },
    {
      "midi": 56,
      "hit": false,
      "t": 26318.20374999999,
      "d": 386.3639583333352,
      "v": 30
    },
    {
      "midi": 59,
      "hit": false,
      "t": 26318.203749999993,
      "d": 22.727291666666133,
      "v": 70
    },
    {
      "midi": 64,
      "hit": false,
      "t": 26318.203749999993,
      "d": 22.727291666666133,
      "v": 52
    },
    {
      "midi": 56,
      "hit": false,
      "t": 26318.203749999993,
      "d": 386.3639583333352,
      "v": 44
    },
    {
      "midi": 59,
      "hit": false,
      "t": 26454.56749999999,
      "d": 22.727291666666133,
      "v": 46
    },
    {
      "midi": 64,
      "hit": false,
      "t": 26454.56749999999,
      "d": 22.727291666666133,
      "v": 46
    },
    {
      "midi": 59,
      "hit": false,
      "t": 26454.567499999994,
      "d": 22.727291666666133,
      "v": 52
    },
    {
      "midi": 64,
      "hit": false,
      "t": 26454.567499999994,
      "d": 22.727291666666133,
      "v": 52
    },
    {
      "midi": 59,
      "hit": false,
      "t": 26590.93124999999,
      "d": 90.90916666666817,
      "v": 47
    },
    {
      "midi": 64,
      "hit": false,
      "t": 26590.93124999999,
      "d": 90.90916666666817,
      "v": 67
    },
    {
      "midi": 68,
      "hit": false,
      "t": 26590.93124999999,
      "d": 113.6364583333343,
      "v": 30
    },
    {
      "midi": 59,
      "hit": false,
      "t": 26590.931249999994,
      "d": 90.90916666666817,
      "v": 53
    },
    {
      "midi": 64,
      "hit": false,
      "t": 26590.931249999994,
      "d": 90.90916666666817,
      "v": 73
    },
    {
      "midi": 68,
      "hit": false,
      "t": 26590.931249999994,
      "d": 113.6364583333343,
      "v": 44
    },
    {
      "midi": 59,
      "hit": false,
      "t": 26727.29499999999,
      "d": 102.27281250000306,
      "v": 72
    },
    {
      "midi": 64,
      "hit": false,
      "t": 26727.29499999999,
      "d": 102.27281250000306,
      "v": 72
    },
    {
      "midi": 59,
      "hit": false,
      "t": 26727.294999999995,
      "d": 102.27281250000306,
      "v": 74
    },
    {
      "midi": 64,
      "hit": false,
      "t": 26727.294999999995,
      "d": 102.27281250000306,
      "v": 74
    },
    {
      "midi": 35,
      "hit": false,
      "t": 26727.295000000002,
      "d": 318.18208333333314,
      "v": 93
    },
    {
      "midi": 68,
      "hit": false,
      "t": 26738.658645833326,
      "d": 113.6364583333343,
      "v": 30
    },
    {
      "midi": 68,
      "hit": false,
      "t": 26738.65864583333,
      "d": 113.6364583333343,
      "v": 44
    },
    {
      "midi": 59,
      "hit": false,
      "t": 26863.658749999995,
      "d": 11.363645833334886,
      "v": 30
    },
    {
      "midi": 64,
      "hit": false,
      "t": 26863.658749999995,
      "d": 11.363645833334886,
      "v": 30
    },
    {
      "midi": 68,
      "hit": false,
      "t": 26863.658749999995,
      "d": 34.09093750000102,
      "v": 30
    },
    {
      "midi": 59,
      "hit": false,
      "t": 26863.65875,
      "d": 11.363645833334886,
      "v": 44
    },
    {
      "midi": 64,
      "hit": false,
      "t": 26863.65875,
      "d": 11.363645833334886,
      "v": 44
    },
    {
      "midi": 68,
      "hit": false,
      "t": 26863.65875,
      "d": 34.09093750000102,
      "v": 44
    },
    {
      "midi": 68,
      "hit": false,
      "t": 27000.022499999995,
      "d": 261.363854166666,
      "v": 64
    },
    {
      "midi": 59,
      "hit": false,
      "t": 27000.022499999995,
      "d": 397.7276041666664,
      "v": 64
    },
    {
      "midi": 64,
      "hit": false,
      "t": 27000.022499999995,
      "d": 397.7276041666664,
      "v": 64
    },
    {
      "midi": 56,
      "hit": false,
      "t": 27000.022499999995,
      "d": 534.0913541666669,
      "v": 64
    },
    {
      "midi": 40,
      "hit": false,
      "t": 27000.022499999995,
      "d": 795.4552083333365,
      "v": 76
    },
    {
      "midi": 68,
      "hit": false,
      "t": 27000.0225,
      "d": 261.363854166666,
      "v": 70
    },
    {
      "midi": 59,
      "hit": false,
      "t": 27000.0225,
      "d": 397.7276041666664,
      "v": 70
    },
    {
      "midi": 64,
      "hit": false,
      "t": 27000.0225,
      "d": 397.7276041666664,
      "v": 70
    },
    {
      "midi": 56,
      "hit": false,
      "t": 27000.0225,
      "d": 534.0913541666669,
      "v": 70
    },
    {
      "midi": 40,
      "hit": false,
      "t": 27000.0225,
      "d": 1079.5463541666722,
      "v": 44
    },
    {
      "midi": 35,
      "hit": false,
      "t": 27136.386250000003,
      "d": 113.6364583333343,
      "v": 93
    },
    {
      "midi": 40,
      "hit": false,
      "t": 27272.750000000004,
      "d": 204.54562499999884,
      "v": 93
    },
    {
      "midi": 59,
      "hit": false,
      "t": 27409.113749999997,
      "d": 125.00010416666555,
      "v": 30
    },
    {
      "midi": 64,
      "hit": false,
      "t": 27409.113749999997,
      "d": 125.00010416666555,
      "v": 30
    },
    {
      "midi": 68,
      "hit": false,
      "t": 27409.113749999997,
      "d": 125.00010416666555,
      "v": 30
    },
    {
      "midi": 59,
      "hit": false,
      "t": 27409.11375,
      "d": 125.00010416666555,
      "v": 44
    },
    {
      "midi": 64,
      "hit": false,
      "t": 27409.11375,
      "d": 125.00010416666555,
      "v": 44
    },
    {
      "midi": 68,
      "hit": false,
      "t": 27409.11375,
      "d": 125.00010416666555,
      "v": 44
    },
    {
      "midi": 59,
      "hit": false,
      "t": 27545.477499999997,
      "d": 113.6364583333343,
      "v": 30
    },
    {
      "midi": 64,
      "hit": false,
      "t": 27545.477499999997,
      "d": 113.6364583333343,
      "v": 30
    },
    {
      "midi": 68,
      "hit": false,
      "t": 27545.477499999997,
      "d": 113.6364583333343,
      "v": 30
    },
    {
      "midi": 40,
      "hit": false,
      "t": 27545.4775,
      "d": 227.27291666666497,
      "v": 93
    },
    {
      "midi": 59,
      "hit": false,
      "t": 27545.4775,
      "d": 113.6364583333343,
      "v": 44
    },
    {
      "midi": 64,
      "hit": false,
      "t": 27545.4775,
      "d": 113.6364583333343,
      "v": 44
    },
    {
      "midi": 68,
      "hit": false,
      "t": 27545.4775,
      "d": 113.6364583333343,
      "v": 44
    },
    {
      "midi": 59,
      "hit": false,
      "t": 27681.841249999998,
      "d": 113.6364583333343,
      "v": 59
    },
    {
      "midi": 64,
      "hit": false,
      "t": 27681.841249999998,
      "d": 113.6364583333343,
      "v": 59
    },
    {
      "midi": 68,
      "hit": false,
      "t": 27681.841249999998,
      "d": 113.6364583333343,
      "v": 59
    },
    {
      "midi": 59,
      "hit": false,
      "t": 27681.84125,
      "d": 113.6364583333343,
      "v": 65
    },
    {
      "midi": 64,
      "hit": false,
      "t": 27681.84125,
      "d": 113.6364583333343,
      "v": 65
    },
    {
      "midi": 68,
      "hit": false,
      "t": 27681.84125,
      "d": 113.6364583333343,
      "v": 65
    },
    {
      "midi": 39,
      "hit": false,
      "t": 27818.204999999998,
      "d": 522.727708333332,
      "v": 93
    },
    {
      "midi": 64,
      "hit": false,
      "t": 27818.204999999998,
      "d": 11.363645833334886,
      "v": 76
    },
    {
      "midi": 59,
      "hit": false,
      "t": 27818.204999999998,
      "d": 34.09093750000466,
      "v": 76
    },
    {
      "midi": 68,
      "hit": false,
      "t": 27818.204999999998,
      "d": 34.09093750000466,
      "v": 76
    },
    {
      "midi": 64,
      "hit": false,
      "t": 27818.205,
      "d": 11.363645833334886,
      "v": 74
    },
    {
      "midi": 59,
      "hit": false,
      "t": 27818.205,
      "d": 34.09093750000466,
      "v": 74
    },
    {
      "midi": 68,
      "hit": false,
      "t": 27818.205,
      "d": 34.09093750000466,
      "v": 74
    },
    {
      "midi": 64,
      "hit": false,
      "t": 27829.568645833333,
      "d": 11.363645833334886,
      "v": 55
    },
    {
      "midi": 64,
      "hit": false,
      "t": 27829.568645833337,
      "d": 11.363645833334886,
      "v": 61
    },
    {
      "midi": 59,
      "hit": false,
      "t": 27954.568750000002,
      "d": 45.454583333332266,
      "v": 30
    },
    {
      "midi": 56,
      "hit": false,
      "t": 27954.568750000002,
      "d": 68.1818749999984,
      "v": 30
    },
    {
      "midi": 59,
      "hit": false,
      "t": 27954.568750000006,
      "d": 45.454583333332266,
      "v": 44
    },
    {
      "midi": 56,
      "hit": false,
      "t": 27954.568750000006,
      "d": 68.1818749999984,
      "v": 44
    },
    {
      "midi": 59,
      "hit": false,
      "t": 28090.9325,
      "d": 90.90916666666817,
      "v": 53
    },
    {
      "midi": 64,
      "hit": false,
      "t": 28090.9325,
      "d": 90.90916666666817,
      "v": 53
    },
    {
      "midi": 56,
      "hit": false,
      "t": 28090.9325,
      "d": 136.36375000000044,
      "v": 53
    },
    {
      "midi": 59,
      "hit": false,
      "t": 28090.932500000006,
      "d": 90.90916666666817,
      "v": 59
    },
    {
      "midi": 64,
      "hit": false,
      "t": 28090.932500000006,
      "d": 90.90916666666817,
      "v": 59
    },
    {
      "midi": 56,
      "hit": false,
      "t": 28090.932500000006,
      "d": 136.36375000000044,
      "v": 59
    },
    {
      "midi": 59,
      "hit": false,
      "t": 28227.29625,
      "d": 90.90916666666817,
      "v": 30
    },
    {
      "midi": 64,
      "hit": false,
      "t": 28227.29625,
      "d": 90.90916666666817,
      "v": 30
    },
    {
      "midi": 56,
      "hit": false,
      "t": 28227.29625,
      "d": 136.36375000000044,
      "v": 30
    },
    {
      "midi": 59,
      "hit": false,
      "t": 28227.296250000007,
      "d": 90.90916666666817,
      "v": 44
    },
    {
      "midi": 64,
      "hit": false,
      "t": 28227.296250000007,
      "d": 90.90916666666817,
      "v": 44
    },
    {
      "midi": 56,
      "hit": false,
      "t": 28227.296250000007,
      "d": 136.36375000000044,
      "v": 44
    },
    {
      "midi": 37,
      "hit": false,
      "t": 28363.659999999996,
      "d": 545.4550000000017,
      "v": 93
    },
    {
      "midi": 68,
      "hit": false,
      "t": 28363.66,
      "d": 113.6364583333343,
      "v": 68
    },
    {
      "midi": 61,
      "hit": false,
      "t": 28363.66,
      "d": 136.36375000000044,
      "v": 68
    },
    {
      "midi": 64,
      "hit": false,
      "t": 28363.66,
      "d": 136.36375000000044,
      "v": 68
    },
    {
      "midi": 54,
      "hit": false,
      "t": 28363.66,
      "d": 147.72739583333532,
      "v": 55
    },
    {
      "midi": 49,
      "hit": false,
      "t": 28363.66,
      "d": 397.7276041666664,
      "v": 76
    },
    {
      "midi": 68,
      "hit": false,
      "t": 28363.660000000007,
      "d": 113.6364583333343,
      "v": 74
    },
    {
      "midi": 56,
      "hit": false,
      "t": 28363.660000000007,
      "d": 136.36375000000044,
      "v": 44
    },
    {
      "midi": 61,
      "hit": false,
      "t": 28363.660000000007,
      "d": 136.36375000000044,
      "v": 74
    },
    {
      "midi": 64,
      "hit": false,
      "t": 28363.660000000007,
      "d": 136.36375000000044,
      "v": 74
    },
    {
      "midi": 54,
      "hit": false,
      "t": 28363.660000000007,
      "d": 147.72739583333532,
      "v": 74
    },
    {
      "midi": 49,
      "hit": false,
      "t": 28363.660000000007,
      "d": 670.4551041666637,
      "v": 44
    },
    {
      "midi": 61,
      "hit": false,
      "t": 28500.02375,
      "d": 11.363645833334886,
      "v": 68
    },
    {
      "midi": 64,
      "hit": false,
      "t": 28500.02375,
      "d": 11.363645833334886,
      "v": 68
    },
    {
      "midi": 56,
      "hit": false,
      "t": 28500.02375,
      "d": 613.6368749999965,
      "v": 49
    },
    {
      "midi": 61,
      "hit": false,
      "t": 28500.023750000008,
      "d": 11.363645833334886,
      "v": 74
    },
    {
      "midi": 64,
      "hit": false,
      "t": 28500.023750000008,
      "d": 11.363645833334886,
      "v": 74
    },
    {
      "midi": 56,
      "hit": false,
      "t": 28500.023750000008,
      "d": 136.36375000000044,
      "v": 55
    },
    {
      "midi": 61,
      "hit": false,
      "t": 28636.3875,
      "d": 22.727291666666133,
      "v": 68
    },
    {
      "midi": 64,
      "hit": false,
      "t": 28636.3875,
      "d": 22.727291666666133,
      "v": 68
    },
    {
      "midi": 61,
      "hit": false,
      "t": 28636.387500000008,
      "d": 22.727291666666133,
      "v": 74
    },
    {
      "midi": 64,
      "hit": false,
      "t": 28636.387500000008,
      "d": 22.727291666666133,
      "v": 74
    },
    {
      "midi": 68,
      "hit": false,
      "t": 28772.75125,
      "d": 68.1818749999984,
      "v": 68
    },
    {
      "midi": 61,
      "hit": false,
      "t": 28772.75125,
      "d": 90.90916666666453,
      "v": 68
    },
    {
      "midi": 64,
      "hit": false,
      "t": 28772.75125,
      "d": 90.90916666666453,
      "v": 68
    },
    {
      "midi": 68,
      "hit": false,
      "t": 28772.75125000001,
      "d": 68.1818749999984,
      "v": 74
    },
    {
      "midi": 61,
      "hit": false,
      "t": 28772.75125000001,
      "d": 90.90916666666453,
      "v": 74
    },
    {
      "midi": 64,
      "hit": false,
      "t": 28772.75125000001,
      "d": 90.90916666666453,
      "v": 74
    },
    {
      "midi": 32,
      "hit": false,
      "t": 28909.114999999998,
      "d": 363.6366666666654,
      "v": 93
    },
    {
      "midi": 61,
      "hit": false,
      "t": 28909.114999999998,
      "d": 22.727291666666133,
      "v": 68
    },
    {
      "midi": 64,
      "hit": false,
      "t": 28909.114999999998,
      "d": 22.727291666666133,
      "v": 68
    },
    {
      "midi": 61,
      "hit": false,
      "t": 28909.115000000005,
      "d": 22.727291666666133,
      "v": 74
    },
    {
      "midi": 64,
      "hit": false,
      "t": 28909.115000000005,
      "d": 22.727291666666133,
      "v": 74
    },
    {
      "midi": 61,
      "hit": false,
      "t": 29045.47875,
      "d": 22.727291666666133,
      "v": 68
    },
    {
      "midi": 64,
      "hit": false,
      "t": 29045.47875,
      "d": 22.727291666666133,
      "v": 68
    },
    {
      "midi": 61,
      "hit": false,
      "t": 29045.478750000006,
      "d": 22.727291666666133,
      "v": 74
    },
    {
      "midi": 64,
      "hit": false,
      "t": 29045.478750000006,
      "d": 22.727291666666133,
      "v": 74
    },
    {
      "midi": 68,
      "hit": false,
      "t": 29181.842499999995,
      "d": 68.1818749999984,
      "v": 68
    },
    {
      "midi": 61,
      "hit": false,
      "t": 29181.842499999995,
      "d": 250.0002083333311,
      "v": 68
    },
    {
      "midi": 64,
      "hit": false,
      "t": 29181.842499999995,
      "d": 250.0002083333311,
      "v": 68
    },
    {
      "midi": 49,
      "hit": false,
      "t": 29181.842499999995,
      "d": 522.727708333332,
      "v": 76
    },
    {
      "midi": 56,
      "hit": false,
      "t": 29181.842499999995,
      "d": 954.5462499999994,
      "v": 55
    },
    {
      "midi": 68,
      "hit": false,
      "t": 29181.842500000006,
      "d": 68.1818749999984,
      "v": 74
    },
    {
      "midi": 61,
      "hit": false,
      "t": 29181.842500000006,
      "d": 250.0002083333311,
      "v": 74
    },
    {
      "midi": 64,
      "hit": false,
      "t": 29181.842500000006,
      "d": 250.0002083333311,
      "v": 74
    },
    {
      "midi": 49,
      "hit": false,
      "t": 29181.842500000006,
      "d": 386.36395833333154,
      "v": 44
    },
    {
      "midi": 56,
      "hit": false,
      "t": 29181.842500000006,
      "d": 795.4552083333328,
      "v": 61
    },
    {
      "midi": 32,
      "hit": false,
      "t": 29318.206249999996,
      "d": 113.6364583333343,
      "v": 93
    },
    {
      "midi": 61,
      "hit": false,
      "t": 29454.569999999992,
      "d": 113.6364583333343,
      "v": 30
    },
    {
      "midi": 64,
      "hit": false,
      "t": 29454.569999999992,
      "d": 113.6364583333343,
      "v": 30
    },
    {
      "midi": 37,
      "hit": false,
      "t": 29454.569999999996,
      "d": 136.36375000000044,
      "v": 93
    },
    {
      "midi": 61,
      "hit": false,
      "t": 29454.570000000003,
      "d": 113.6364583333343,
      "v": 44
    },
    {
      "midi": 64,
      "hit": false,
      "t": 29454.570000000003,
      "d": 113.6364583333343,
      "v": 44
    },
    {
      "midi": 68,
      "hit": false,
      "t": 29590.933749999993,
      "d": 90.90916666666817,
      "v": 47
    },
    {
      "midi": 64,
      "hit": false,
      "t": 29590.933749999993,
      "d": 113.6364583333343,
      "v": 47
    },
    {
      "midi": 73,
      "hit": false,
      "t": 29590.933749999993,
      "d": 113.6364583333343,
      "v": 47
    },
    {
      "midi": 68,
      "hit": false,
      "t": 29590.933750000004,
      "d": 90.90916666666817,
      "v": 53
    },
    {
      "midi": 64,
      "hit": false,
      "t": 29590.933750000004,
      "d": 113.6364583333343,
      "v": 53
    },
    {
      "midi": 73,
      "hit": false,
      "t": 29590.933750000004,
      "d": 113.6364583333343,
      "v": 53
    },
    {
      "midi": 49,
      "hit": false,
      "t": 29590.933750000004,
      "d": 386.3639583333352,
      "v": 44
    },
    {
      "midi": 64,
      "hit": false,
      "t": 29727.297499999993,
      "d": 113.6364583333343,
      "v": 68
    },
    {
      "midi": 68,
      "hit": false,
      "t": 29727.297499999993,
      "d": 113.6364583333343,
      "v": 68
    },
    {
      "midi": 73,
      "hit": false,
      "t": 29727.297499999993,
      "d": 113.6364583333343,
      "v": 68
    },
    {
      "midi": 37,
      "hit": false,
      "t": 29727.297499999997,
      "d": 272.7275000000009,
      "v": 93
    },
    {
      "midi": 64,
      "hit": false,
      "t": 29727.297500000004,
      "d": 113.6364583333343,
      "v": 74
    },
    {
      "midi": 68,
      "hit": false,
      "t": 29727.297500000004,
      "d": 113.6364583333343,
      "v": 74
    },
    {
      "midi": 73,
      "hit": false,
      "t": 29727.297500000004,
      "d": 113.6364583333343,
      "v": 74
    },
    {
      "midi": 64,
      "hit": false,
      "t": 29863.661249999994,
      "d": 113.6364583333343,
      "v": 43
    },
    {
      "midi": 68,
      "hit": false,
      "t": 29863.661249999994,
      "d": 113.6364583333343,
      "v": 43
    },
    {
      "midi": 73,
      "hit": false,
      "t": 29863.661249999994,
      "d": 136.36375000000044,
      "v": 43
    },
    {
      "midi": 64,
      "hit": false,
      "t": 29863.661250000005,
      "d": 113.6364583333343,
      "v": 49
    },
    {
      "midi": 68,
      "hit": false,
      "t": 29863.661250000005,
      "d": 113.6364583333343,
      "v": 49
    },
    {
      "midi": 73,
      "hit": false,
      "t": 29863.661250000005,
      "d": 136.36375000000044,
      "v": 49
    },
    {
      "midi": 49,
      "hit": false,
      "t": 30000.024999999994,
      "d": 113.6364583333343,
      "v": 76
    },
    {
      "midi": 64,
      "hit": false,
      "t": 30000.024999999994,
      "d": 113.6364583333343,
      "v": 76
    },
    {
      "midi": 68,
      "hit": false,
      "t": 30000.024999999994,
      "d": 113.6364583333343,
      "v": 76
    },
    {
      "midi": 73,
      "hit": false,
      "t": 30000.024999999994,
      "d": 136.36375000000044,
      "v": 76
    },
    {
      "midi": 32,
      "hit": false,
      "t": 30000.024999999998,
      "d": 238.63656249999985,
      "v": 93
    },
    {
      "midi": 49,
      "hit": false,
      "t": 30000.025000000005,
      "d": 113.6364583333343,
      "v": 44
    },
    {
      "midi": 56,
      "hit": false,
      "t": 30000.025000000005,
      "d": 113.6364583333343,
      "v": 44
    },
    {
      "midi": 64,
      "hit": false,
      "t": 30000.025000000005,
      "d": 113.6364583333343,
      "v": 74
    },
    {
      "midi": 68,
      "hit": false,
      "t": 30000.025000000005,
      "d": 113.6364583333343,
      "v": 74
    },
    {
      "midi": 73,
      "hit": false,
      "t": 30000.025000000005,
      "d": 136.36375000000044,
      "v": 74
    },
    {
      "midi": 61,
      "hit": false,
      "t": 30136.388749999995,
      "d": 68.1818749999984,
      "v": 30
    },
    {
      "midi": 64,
      "hit": false,
      "t": 30136.388749999995,
      "d": 68.1818749999984,
      "v": 30
    },
    {
      "midi": 61,
      "hit": false,
      "t": 30136.388750000006,
      "d": 68.1818749999984,
      "v": 44
    },
    {
      "midi": 64,
      "hit": false,
      "t": 30136.388750000006,
      "d": 68.1818749999984,
      "v": 44
    },
    {
      "midi": 61,
      "hit": false,
      "t": 30272.75249999999,
      "d": 113.6364583333343,
      "v": 30
    },
    {
      "midi": 64,
      "hit": false,
      "t": 30272.75249999999,
      "d": 113.6364583333343,
      "v": 30
    },
    {
      "midi": 56,
      "hit": false,
      "t": 30272.75249999999,
      "d": 136.36375000000044,
      "v": 44
    },
    {
      "midi": 32,
      "hit": false,
      "t": 30272.7525,
      "d": 68.1818749999984,
      "v": 93
    },
    {
      "midi": 61,
      "hit": false,
      "t": 30272.752500000002,
      "d": 113.6364583333343,
      "v": 44
    },
    {
      "midi": 64,
      "hit": false,
      "t": 30272.752500000002,
      "d": 113.6364583333343,
      "v": 44
    },
    {
      "midi": 56,
      "hit": false,
      "t": 30272.752500000002,
      "d": 136.36375000000044,
      "v": 50
    },
    {
      "midi": 56,
      "hit": false,
      "t": 30409.116249999992,
      "d": 22.727291666666133,
      "v": 30
    },
    {
      "midi": 61,
      "hit": false,
      "t": 30409.116249999992,
      "d": 113.6364583333343,
      "v": 30
    },
    {
      "midi": 64,
      "hit": false,
      "t": 30409.116249999992,
      "d": 113.6364583333343,
      "v": 30
    },
    {
      "midi": 32,
      "hit": false,
      "t": 30409.116249999995,
      "d": 90.90916666666817,
      "v": 93
    },
    {
      "midi": 56,
      "hit": false,
      "t": 30409.116250000003,
      "d": 22.727291666666133,
      "v": 44
    },
    {
      "midi": 61,
      "hit": false,
      "t": 30409.116250000003,
      "d": 113.6364583333343,
      "v": 44
    },
    {
      "midi": 64,
      "hit": false,
      "t": 30409.116250000003,
      "d": 113.6364583333343,
      "v": 44
    },
    {
      "midi": 47,
      "hit": false,
      "t": 30545.479999999992,
      "d": 534.0913541666669,
      "v": 76
    },
    {
      "midi": 63,
      "hit": false,
      "t": 30545.479999999992,
      "d": 659.0914583333324,
      "v": 68
    },
    {
      "midi": 66,
      "hit": false,
      "t": 30545.479999999992,
      "d": 659.0914583333324,
      "v": 68
    },
    {
      "midi": 71,
      "hit": false,
      "t": 30545.479999999992,
      "d": 659.0914583333324,
      "v": 68
    },
    {
      "midi": 35,
      "hit": false,
      "t": 30545.479999999996,
      "d": 534.0913541666669,
      "v": 93
    },
    {
      "midi": 47,
      "hit": false,
      "t": 30545.480000000003,
      "d": 659.0914583333324,
      "v": 44
    },
    {
      "midi": 54,
      "hit": false,
      "t": 30545.480000000003,
      "d": 659.0914583333324,
      "v": 44
    },
    {
      "midi": 63,
      "hit": false,
      "t": 30545.480000000003,
      "d": 659.0914583333324,
      "v": 74
    },
    {
      "midi": 66,
      "hit": false,
      "t": 30545.480000000003,
      "d": 659.0914583333324,
      "v": 74
    },
    {
      "midi": 71,
      "hit": false,
      "t": 30545.480000000003,
      "d": 659.0914583333324,
      "v": 74
    },
    {
      "midi": 30,
      "hit": false,
      "t": 31090.934999999998,
      "d": 318.18208333333314,
      "v": 93
    },
    {
      "midi": 63,
      "hit": false,
      "t": 31363.66249999999,
      "d": 386.3639583333352,
      "v": 68
    },
    {
      "midi": 66,
      "hit": false,
      "t": 31363.66249999999,
      "d": 386.3639583333352,
      "v": 68
    },
    {
      "midi": 71,
      "hit": false,
      "t": 31363.66249999999,
      "d": 386.3639583333352,
      "v": 68
    },
    {
      "midi": 47,
      "hit": false,
      "t": 31363.66249999999,
      "d": 943.1826041666682,
      "v": 76
    },
    {
      "midi": 63,
      "hit": false,
      "t": 31363.662500000002,
      "d": 386.36395833333154,
      "v": 74
    },
    {
      "midi": 66,
      "hit": false,
      "t": 31363.662500000002,
      "d": 386.36395833333154,
      "v": 74
    },
    {
      "midi": 71,
      "hit": false,
      "t": 31363.662500000002,
      "d": 386.36395833333154,
      "v": 74
    },
    {
      "midi": 47,
      "hit": false,
      "t": 31363.662500000002,
      "d": 659.0914583333324,
      "v": 44
    },
    {
      "midi": 54,
      "hit": false,
      "t": 31363.662500000002,
      "d": 659.0914583333324,
      "v": 44
    },
    {
      "midi": 30,
      "hit": false,
      "t": 31500.02625,
      "d": 102.27281249999942,
      "v": 93
    },
    {
      "midi": 35,
      "hit": false,
      "t": 31636.39,
      "d": 113.6364583333343,
      "v": 93
    },
    {
      "midi": 63,
      "hit": false,
      "t": 31772.753749999993,
      "d": 250.00020833333474,
      "v": 68
    },
    {
      "midi": 66,
      "hit": false,
      "t": 31772.753749999993,
      "d": 250.00020833333474,
      "v": 68
    },
    {
      "midi": 71,
      "hit": false,
      "t": 31772.753749999993,
      "d": 250.00020833333474,
      "v": 68
    },
    {
      "midi": 63,
      "hit": false,
      "t": 31772.75375,
      "d": 250.00020833333474,
      "v": 74
    },
    {
      "midi": 66,
      "hit": false,
      "t": 31772.75375,
      "d": 250.00020833333474,
      "v": 74
    },
    {
      "midi": 71,
      "hit": false,
      "t": 31772.75375,
      "d": 250.00020833333474,
      "v": 74
    },
    {
      "midi": 35,
      "hit": false,
      "t": 31909.1175,
      "d": 284.09114583333576,
      "v": 93
    },
    {
      "midi": 63,
      "hit": false,
      "t": 32045.481249999993,
      "d": 22.727291666666133,
      "v": 68
    },
    {
      "midi": 66,
      "hit": false,
      "t": 32045.481249999993,
      "d": 22.727291666666133,
      "v": 68
    },
    {
      "midi": 71,
      "hit": false,
      "t": 32045.481249999993,
      "d": 22.727291666666133,
      "v": 68
    },
    {
      "midi": 63,
      "hit": false,
      "t": 32045.48125,
      "d": 22.727291666666133,
      "v": 74
    },
    {
      "midi": 66,
      "hit": false,
      "t": 32045.48125,
      "d": 22.727291666666133,
      "v": 74
    },
    {
      "midi": 71,
      "hit": false,
      "t": 32045.48125,
      "d": 22.727291666666133,
      "v": 74
    },
    {
      "midi": 63,
      "hit": false,
      "t": 32181.844999999994,
      "d": 250.0002083333311,
      "v": 68
    },
    {
      "midi": 66,
      "hit": false,
      "t": 32181.844999999994,
      "d": 250.0002083333311,
      "v": 68
    },
    {
      "midi": 71,
      "hit": false,
      "t": 32181.844999999994,
      "d": 250.0002083333311,
      "v": 68
    },
    {
      "midi": 30,
      "hit": false,
      "t": 32181.845,
      "d": 204.54562500000247,
      "v": 93
    },
    {
      "midi": 47,
      "hit": false,
      "t": 32181.845,
      "d": 125.00010416666555,
      "v": 44
    },
    {
      "midi": 54,
      "hit": false,
      "t": 32181.845,
      "d": 125.00010416666555,
      "v": 44
    },
    {
      "midi": 63,
      "hit": false,
      "t": 32181.845,
      "d": 250.0002083333311,
      "v": 74
    },
    {
      "midi": 66,
      "hit": false,
      "t": 32181.845,
      "d": 250.0002083333311,
      "v": 74
    },
    {
      "midi": 71,
      "hit": false,
      "t": 32181.845,
      "d": 250.0002083333311,
      "v": 74
    },
    {
      "midi": 59,
      "hit": false,
      "t": 32454.57249999999,
      "d": 22.727291666666133,
      "v": 68
    },
    {
      "midi": 63,
      "hit": false,
      "t": 32454.57249999999,
      "d": 22.727291666666133,
      "v": 68
    },
    {
      "midi": 66,
      "hit": false,
      "t": 32454.57249999999,
      "d": 22.727291666666133,
      "v": 68
    },
    {
      "midi": 59,
      "hit": false,
      "t": 32454.5725,
      "d": 22.727291666666133,
      "v": 74
    },
    {
      "midi": 63,
      "hit": false,
      "t": 32454.5725,
      "d": 22.727291666666133,
      "v": 74
    },
    {
      "midi": 66,
      "hit": false,
      "t": 32454.5725,
      "d": 22.727291666666133,
      "v": 74
    },
    {
      "midi": 30,
      "hit": false,
      "t": 32454.572500000002,
      "d": 68.1818749999984,
      "v": 93
    },
    {
      "midi": 59,
      "hit": false,
      "t": 32590.93624999999,
      "d": 22.727291666666133,
      "v": 68
    },
    {
      "midi": 63,
      "hit": false,
      "t": 32590.93624999999,
      "d": 22.727291666666133,
      "v": 68
    },
    {
      "midi": 66,
      "hit": false,
      "t": 32590.93624999999,
      "d": 22.727291666666133,
      "v": 68
    },
    {
      "midi": 30,
      "hit": false,
      "t": 32590.93625,
      "d": 90.90916666666817,
      "v": 93
    },
    {
      "midi": 59,
      "hit": false,
      "t": 32590.93625,
      "d": 22.727291666666133,
      "v": 74
    },
    {
      "midi": 63,
      "hit": false,
      "t": 32590.93625,
      "d": 22.727291666666133,
      "v": 74
    },
    {
      "midi": 66,
      "hit": false,
      "t": 32590.93625,
      "d": 22.727291666666133,
      "v": 74
    },
    {
      "midi": 45,
      "hit": false,
      "t": 32727.299999999992,
      "d": 659.0914583333324,
      "v": 76
    },
    {
      "midi": 61,
      "hit": false,
      "t": 32727.299999999992,
      "d": 659.0914583333324,
      "v": 68
    },
    {
      "midi": 64,
      "hit": false,
      "t": 32727.299999999992,
      "d": 659.0914583333324,
      "v": 68
    },
    {
      "midi": 69,
      "hit": false,
      "t": 32727.299999999992,
      "d": 659.0914583333324,
      "v": 68
    },
    {
      "midi": 33,
      "hit": false,
      "t": 32727.3,
      "d": 340.9093749999993,
      "v": 93
    },
    {
      "midi": 45,
      "hit": false,
      "t": 32727.3,
      "d": 659.0914583333324,
      "v": 44
    },
    {
      "midi": 52,
      "hit": false,
      "t": 32727.3,
      "d": 659.0914583333324,
      "v": 44
    },
    {
      "midi": 61,
      "hit": false,
      "t": 32727.3,
      "d": 659.0914583333324,
      "v": 74
    },
    {
      "midi": 64,
      "hit": false,
      "t": 32727.3,
      "d": 659.0914583333324,
      "v": 74
    },
    {
      "midi": 69,
      "hit": false,
      "t": 32727.3,
      "d": 659.0914583333324,
      "v": 74
    },
    {
      "midi": 33,
      "hit": false,
      "t": 33136.39125,
      "d": 68.18187500000204,
      "v": 93
    },
    {
      "midi": 35,
      "hit": false,
      "t": 33272.755000000005,
      "d": 329.545729166668,
      "v": 93
    },
    {
      "midi": 61,
      "hit": false,
      "t": 33545.48249999999,
      "d": 386.3639583333352,
      "v": 68
    },
    {
      "midi": 64,
      "hit": false,
      "t": 33545.48249999999,
      "d": 386.3639583333352,
      "v": 68
    },
    {
      "midi": 69,
      "hit": false,
      "t": 33545.48249999999,
      "d": 386.3639583333352,
      "v": 68
    },
    {
      "midi": 45,
      "hit": false,
      "t": 33545.48249999999,
      "d": 943.1826041666791,
      "v": 76
    },
    {
      "midi": 61,
      "hit": false,
      "t": 33545.4825,
      "d": 386.3639583333352,
      "v": 74
    },
    {
      "midi": 64,
      "hit": false,
      "t": 33545.4825,
      "d": 386.3639583333352,
      "v": 74
    },
    {
      "midi": 69,
      "hit": false,
      "t": 33545.4825,
      "d": 386.3639583333352,
      "v": 74
    },
    {
      "midi": 45,
      "hit": false,
      "t": 33545.4825,
      "d": 943.1826041666791,
      "v": 44
    },
    {
      "midi": 52,
      "hit": false,
      "t": 33545.4825,
      "d": 943.1826041666791,
      "v": 44
    },
    {
      "midi": 35,
      "hit": false,
      "t": 33681.84625000001,
      "d": 68.18187500000204,
      "v": 93
    },
    {
      "midi": 37,
      "hit": false,
      "t": 33818.210000000014,
      "d": 363.6366666666654,
      "v": 93
    },
    {
      "midi": 61,
      "hit": false,
      "t": 33954.573749999996,
      "d": 250.0002083333311,
      "v": 68
    },
    {
      "midi": 64,
      "hit": false,
      "t": 33954.573749999996,
      "d": 250.0002083333311,
      "v": 68
    },
    {
      "midi": 69,
      "hit": false,
      "t": 33954.573749999996,
      "d": 250.0002083333311,
      "v": 68
    },
    {
      "midi": 61,
      "hit": false,
      "t": 33954.57375,
      "d": 250.0002083333311,
      "v": 74
    },
    {
      "midi": 64,
      "hit": false,
      "t": 33954.57375,
      "d": 250.0002083333311,
      "v": 74
    },
    {
      "midi": 69,
      "hit": false,
      "t": 33954.57375,
      "d": 250.0002083333311,
      "v": 74
    },
    {
      "midi": 61,
      "hit": false,
      "t": 34227.30125,
      "d": 22.72729166666977,
      "v": 68
    },
    {
      "midi": 64,
      "hit": false,
      "t": 34227.30125,
      "d": 22.72729166666977,
      "v": 68
    },
    {
      "midi": 69,
      "hit": false,
      "t": 34227.30125,
      "d": 22.72729166666977,
      "v": 68
    },
    {
      "midi": 61,
      "hit": false,
      "t": 34227.301250000004,
      "d": 22.72729166666977,
      "v": 74
    },
    {
      "midi": 64,
      "hit": false,
      "t": 34227.301250000004,
      "d": 22.72729166666977,
      "v": 74
    },
    {
      "midi": 69,
      "hit": false,
      "t": 34227.301250000004,
      "d": 22.72729166666977,
      "v": 74
    },
    {
      "midi": 37,
      "hit": false,
      "t": 34227.30125000001,
      "d": 79.54552083333692,
      "v": 93
    },
    {
      "midi": 61,
      "hit": false,
      "t": 34363.665,
      "d": 250.00020833333838,
      "v": 68
    },
    {
      "midi": 64,
      "hit": false,
      "t": 34363.665,
      "d": 250.00020833333838,
      "v": 68
    },
    {
      "midi": 69,
      "hit": false,
      "t": 34363.665,
      "d": 250.00020833333838,
      "v": 68
    },
    {
      "midi": 61,
      "hit": false,
      "t": 34363.66500000001,
      "d": 250.00020833333838,
      "v": 74
    },
    {
      "midi": 64,
      "hit": false,
      "t": 34363.66500000001,
      "d": 250.00020833333838,
      "v": 74
    },
    {
      "midi": 69,
      "hit": false,
      "t": 34363.66500000001,
      "d": 250.00020833333838,
      "v": 74
    },
    {
      "midi": 38,
      "hit": false,
      "t": 34363.665000000015,
      "d": 386.3639583333352,
      "v": 93
    },
    {
      "midi": 57,
      "hit": false,
      "t": 34636.39250000001,
      "d": 22.72729166666977,
      "v": 68
    },
    {
      "midi": 61,
      "hit": false,
      "t": 34636.39250000001,
      "d": 22.72729166666977,
      "v": 68
    },
    {
      "midi": 64,
      "hit": false,
      "t": 34636.39250000001,
      "d": 22.72729166666977,
      "v": 68
    },
    {
      "midi": 57,
      "hit": false,
      "t": 34636.392500000016,
      "d": 22.72729166666977,
      "v": 74
    },
    {
      "midi": 61,
      "hit": false,
      "t": 34636.392500000016,
      "d": 22.72729166666977,
      "v": 74
    },
    {
      "midi": 64,
      "hit": false,
      "t": 34636.392500000016,
      "d": 22.72729166666977,
      "v": 74
    },
    {
      "midi": 57,
      "hit": false,
      "t": 34772.75625000001,
      "d": 22.72729166666977,
      "v": 68
    },
    {
      "midi": 61,
      "hit": false,
      "t": 34772.75625000001,
      "d": 22.72729166666977,
      "v": 68
    },
    {
      "midi": 64,
      "hit": false,
      "t": 34772.75625000001,
      "d": 22.72729166666977,
      "v": 68
    },
    {
      "midi": 57,
      "hit": false,
      "t": 34772.75625000002,
      "d": 22.72729166666977,
      "v": 74
    },
    {
      "midi": 61,
      "hit": false,
      "t": 34772.75625000002,
      "d": 22.72729166666977,
      "v": 74
    },
    {
      "midi": 64,
      "hit": false,
      "t": 34772.75625000002,
      "d": 22.72729166666977,
      "v": 74
    },
    {
      "midi": 40,
      "hit": false,
      "t": 34909.12000000002,
      "d": 375.0003125000003,
      "v": 93
    },
    {
      "midi": 62,
      "hit": false,
      "t": 34909.12000000002,
      "d": 250.0002083333311,
      "v": 68
    },
    {
      "midi": 64,
      "hit": false,
      "t": 34909.12000000002,
      "d": 250.0002083333311,
      "v": 68
    },
    {
      "midi": 69,
      "hit": false,
      "t": 34909.12000000002,
      "d": 250.0002083333311,
      "v": 68
    },
    {
      "midi": 45,
      "hit": false,
      "t": 34909.12000000002,
      "d": 659.0914583333288,
      "v": 76
    },
    {
      "midi": 45,
      "hit": false,
      "t": 34909.120000000024,
      "d": 250.0002083333311,
      "v": 44
    },
    {
      "midi": 62,
      "hit": false,
      "t": 34909.120000000024,
      "d": 250.0002083333311,
      "v": 74
    },
    {
      "midi": 64,
      "hit": false,
      "t": 34909.120000000024,
      "d": 250.0002083333311,
      "v": 74
    },
    {
      "midi": 69,
      "hit": false,
      "t": 34909.120000000024,
      "d": 250.0002083333311,
      "v": 74
    },
    {
      "midi": 40,
      "hit": false,
      "t": 35318.211250000015,
      "d": 90.90916666666453,
      "v": 93
    },
    {
      "midi": 62,
      "hit": false,
      "t": 35318.211250000015,
      "d": 250.0002083333311,
      "v": 68
    },
    {
      "midi": 64,
      "hit": false,
      "t": 35318.211250000015,
      "d": 250.0002083333311,
      "v": 68
    },
    {
      "midi": 69,
      "hit": false,
      "t": 35318.211250000015,
      "d": 250.0002083333311,
      "v": 68
    },
    {
      "midi": 45,
      "hit": false,
      "t": 35318.21125000002,
      "d": 250.0002083333311,
      "v": 44
    },
    {
      "midi": 62,
      "hit": false,
      "t": 35318.21125000002,
      "d": 250.0002083333311,
      "v": 74
    },
    {
      "midi": 64,
      "hit": false,
      "t": 35318.21125000002,
      "d": 250.0002083333311,
      "v": 74
    },
    {
      "midi": 69,
      "hit": false,
      "t": 35318.21125000002,
      "d": 250.0002083333311,
      "v": 74
    },
    {
      "midi": 42,
      "hit": false,
      "t": 35454.57500000001,
      "d": 352.2730208333305,
      "v": 93
    },
    {
      "midi": 62,
      "hit": false,
      "t": 35727.30250000001,
      "d": 250.0002083333311,
      "v": 68
    },
    {
      "midi": 64,
      "hit": false,
      "t": 35727.30250000001,
      "d": 250.0002083333311,
      "v": 68
    },
    {
      "midi": 69,
      "hit": false,
      "t": 35727.30250000001,
      "d": 250.0002083333311,
      "v": 68
    },
    {
      "midi": 45,
      "hit": false,
      "t": 35727.30250000001,
      "d": 659.0914583333288,
      "v": 76
    },
    {
      "midi": 62,
      "hit": false,
      "t": 35727.30250000002,
      "d": 250.0002083333311,
      "v": 74
    },
    {
      "midi": 64,
      "hit": false,
      "t": 35727.30250000002,
      "d": 250.0002083333311,
      "v": 74
    },
    {
      "midi": 69,
      "hit": false,
      "t": 35727.30250000002,
      "d": 250.0002083333311,
      "v": 74
    },
    {
      "midi": 45,
      "hit": false,
      "t": 35727.30250000002,
      "d": 397.7276041666628,
      "v": 44
    },
    {
      "midi": 42,
      "hit": false,
      "t": 35863.66625000001,
      "d": 147.72739583333168,
      "v": 93
    },
    {
      "midi": 45,
      "hit": false,
      "t": 36000.030000000006,
      "d": 147.72739583333896,
      "v": 93
    },
    {
      "midi": 40,
      "hit": false,
      "t": 36136.39375000001,
      "d": 125.00010416666919,
      "v": 93
    },
    {
      "midi": 62,
      "hit": false,
      "t": 36136.39375000001,
      "d": 250.0002083333311,
      "v": 68
    },
    {
      "midi": 64,
      "hit": false,
      "t": 36136.39375000001,
      "d": 250.0002083333311,
      "v": 68
    },
    {
      "midi": 69,
      "hit": false,
      "t": 36136.39375000001,
      "d": 250.0002083333311,
      "v": 68
    },
    {
      "midi": 45,
      "hit": false,
      "t": 36136.39375000002,
      "d": 250.0002083333311,
      "v": 44
    },
    {
      "midi": 62,
      "hit": false,
      "t": 36136.39375000002,
      "d": 250.0002083333311,
      "v": 74
    },
    {
      "midi": 64,
      "hit": false,
      "t": 36136.39375000002,
      "d": 250.0002083333311,
      "v": 74
    },
    {
      "midi": 69,
      "hit": false,
      "t": 36136.39375000002,
      "d": 250.0002083333311,
      "v": 74
    },
    {
      "midi": 45,
      "hit": false,
      "t": 36272.757500000014,
      "d": 329.545729166668,
      "v": 93
    },
    {
      "midi": 45,
      "hit": false,
      "t": 36545.48500000001,
      "d": 250.0002083333311,
      "v": 76
    },
    {
      "midi": 61,
      "hit": false,
      "t": 36545.48500000001,
      "d": 250.0002083333311,
      "v": 68
    },
    {
      "midi": 64,
      "hit": false,
      "t": 36545.48500000001,
      "d": 250.0002083333311,
      "v": 68
    },
    {
      "midi": 69,
      "hit": false,
      "t": 36545.48500000001,
      "d": 250.0002083333311,
      "v": 68
    },
    {
      "midi": 46,
      "hit": false,
      "t": 36545.485000000015,
      "d": 272.7275000000009,
      "v": 93
    },
    {
      "midi": 45,
      "hit": false,
      "t": 36545.485000000015,
      "d": 250.0002083333311,
      "v": 44
    },
    {
      "midi": 61,
      "hit": false,
      "t": 36545.485000000015,
      "d": 250.0002083333311,
      "v": 74
    },
    {
      "midi": 64,
      "hit": false,
      "t": 36545.485000000015,
      "d": 250.0002083333311,
      "v": 74
    },
    {
      "midi": 69,
      "hit": false,
      "t": 36545.485000000015,
      "d": 250.0002083333311,
      "v": 74
    },
    {
      "midi": 61,
      "hit": false,
      "t": 36818.21250000001,
      "d": 136.3637499999968,
      "v": 68
    },
    {
      "midi": 64,
      "hit": false,
      "t": 36818.21250000001,
      "d": 136.3637499999968,
      "v": 68
    },
    {
      "midi": 69,
      "hit": false,
      "t": 36818.21250000001,
      "d": 250.0002083333311,
      "v": 68
    },
    {
      "midi": 47,
      "hit": false,
      "t": 36818.212500000016,
      "d": 261.363854166666,
      "v": 93
    },
    {
      "midi": 61,
      "hit": false,
      "t": 36818.212500000016,
      "d": 136.3637499999968,
      "v": 74
    },
    {
      "midi": 64,
      "hit": false,
      "t": 36818.212500000016,
      "d": 136.3637499999968,
      "v": 74
    },
    {
      "midi": 69,
      "hit": false,
      "t": 36818.212500000016,
      "d": 250.0002083333311,
      "v": 74
    },
    {
      "midi": 57,
      "hit": false,
      "t": 36954.576250000006,
      "d": 22.72729166666977,
      "v": 68
    },
    {
      "midi": 61,
      "hit": false,
      "t": 36954.576250000006,
      "d": 22.72729166666977,
      "v": 68
    },
    {
      "midi": 64,
      "hit": false,
      "t": 36954.576250000006,
      "d": 22.72729166666977,
      "v": 68
    },
    {
      "midi": 57,
      "hit": false,
      "t": 36954.57625000001,
      "d": 22.72729166666977,
      "v": 74
    },
    {
      "midi": 61,
      "hit": false,
      "t": 36954.57625000001,
      "d": 22.72729166666977,
      "v": 74
    },
    {
      "midi": 64,
      "hit": false,
      "t": 36954.57625000001,
      "d": 22.72729166666977,
      "v": 74
    },
    {
      "midi": 54,
      "hit": false,
      "t": 37090.94000000001,
      "d": 90.90916666667181,
      "v": 63
    },
    {
      "midi": 59,
      "hit": false,
      "t": 37090.94000000001,
      "d": 136.36375000000407,
      "v": 67
    },
    {
      "midi": 64,
      "hit": false,
      "t": 37090.94000000001,
      "d": 136.36375000000407,
      "v": 67
    },
    {
      "midi": 40,
      "hit": false,
      "t": 37090.94000000001,
      "d": 670.4551041666855,
      "v": 76
    },
    {
      "midi": 40,
      "hit": false,
      "t": 37090.94000000002,
      "d": 568.1822916666715,
      "v": 93
    },
    {
      "midi": 54,
      "hit": false,
      "t": 37090.94000000002,
      "d": 90.90916666667181,
      "v": 74
    },
    {
      "midi": 59,
      "hit": false,
      "t": 37090.94000000002,
      "d": 136.36375000000407,
      "v": 73
    },
    {
      "midi": 64,
      "hit": false,
      "t": 37090.94000000002,
      "d": 136.36375000000407,
      "v": 73
    },
    {
      "midi": 40,
      "hit": false,
      "t": 37090.94000000002,
      "d": 670.4551041666855,
      "v": 44
    },
    {
      "midi": 64,
      "hit": false,
      "t": 37102.30364583334,
      "d": 102.27281249999942,
      "v": 76
    },
    {
      "midi": 76,
      "hit": false,
      "t": 37102.30364583334,
      "d": 102.27281249999942,
      "v": 76
    },
    {
      "midi": 68,
      "hit": false,
      "t": 37102.303645833344,
      "d": 261.36385416667326,
      "v": 30
    },
    {
      "midi": 68,
      "hit": false,
      "t": 37102.30364583335,
      "d": 261.36385416667326,
      "v": 44
    },
    {
      "midi": 59,
      "hit": false,
      "t": 37227.303750000014,
      "d": 22.72729166666977,
      "v": 64
    },
    {
      "midi": 64,
      "hit": false,
      "t": 37227.303750000014,
      "d": 22.72729166666977,
      "v": 46
    },
    {
      "midi": 56,
      "hit": false,
      "t": 37227.303750000014,
      "d": 386.36395833334245,
      "v": 30
    },
    {
      "midi": 59,
      "hit": false,
      "t": 37227.30375000002,
      "d": 22.72729166666977,
      "v": 70
    },
    {
      "midi": 64,
      "hit": false,
      "t": 37227.30375000002,
      "d": 22.72729166666977,
      "v": 52
    },
    {
      "midi": 56,
      "hit": false,
      "t": 37227.30375000002,
      "d": 386.36395833334245,
      "v": 44
    },
    {
      "midi": 64,
      "hit": false,
      "t": 37238.667395833334,
      "d": 102.27281249999942,
      "v": 41
    },
    {
      "midi": 76,
      "hit": false,
      "t": 37238.667395833334,
      "d": 102.27281249999942,
      "v": 41
    },
    {
      "midi": 59,
      "hit": false,
      "t": 37363.66750000002,
      "d": 22.72729166666977,
      "v": 46
    },
    {
      "midi": 64,
      "hit": false,
      "t": 37363.66750000002,
      "d": 22.72729166666977,
      "v": 46
    },
    {
      "midi": 59,
      "hit": false,
      "t": 37363.667500000025,
      "d": 22.72729166666977,
      "v": 52
    },
    {
      "midi": 64,
      "hit": false,
      "t": 37363.667500000025,
      "d": 22.72729166666977,
      "v": 52
    },
    {
      "midi": 64,
      "hit": false,
      "t": 37375.03114583333,
      "d": 102.27281249999942,
      "v": 41
    },
    {
      "midi": 76,
      "hit": false,
      "t": 37375.03114583333,
      "d": 102.27281249999942,
      "v": 41
    },
    {
      "midi": 59,
      "hit": false,
      "t": 37500.03125000002,
      "d": 90.90916666666453,
      "v": 47
    },
    {
      "midi": 64,
      "hit": false,
      "t": 37500.03125000002,
      "d": 90.90916666666453,
      "v": 67
    },
    {
      "midi": 68,
      "hit": false,
      "t": 37500.03125000002,
      "d": 113.6364583333343,
      "v": 30
    },
    {
      "midi": 59,
      "hit": false,
      "t": 37500.03125000003,
      "d": 90.90916666666453,
      "v": 53
    },
    {
      "midi": 64,
      "hit": false,
      "t": 37500.03125000003,
      "d": 90.90916666666453,
      "v": 73
    },
    {
      "midi": 68,
      "hit": false,
      "t": 37500.03125000003,
      "d": 113.6364583333343,
      "v": 44
    },
    {
      "midi": 64,
      "hit": false,
      "t": 37511.39489583333,
      "d": 102.27281249999942,
      "v": 41
    },
    {
      "midi": 76,
      "hit": false,
      "t": 37511.39489583333,
      "d": 102.27281249999942,
      "v": 41
    },
    {
      "midi": 35,
      "hit": false,
      "t": 37636.39500000002,
      "d": 340.9093750000029,
      "v": 93
    },
    {
      "midi": 59,
      "hit": false,
      "t": 37636.395000000026,
      "d": 102.27281249999942,
      "v": 72
    },
    {
      "midi": 64,
      "hit": false,
      "t": 37636.395000000026,
      "d": 102.27281249999942,
      "v": 72
    },
    {
      "midi": 59,
      "hit": false,
      "t": 37636.39500000003,
      "d": 102.27281249999942,
      "v": 74
    },
    {
      "midi": 64,
      "hit": false,
      "t": 37636.39500000003,
      "d": 102.27281249999942,
      "v": 74
    },
    {
      "midi": 64,
      "hit": false,
      "t": 37647.758645833324,
      "d": 102.27281249999942,
      "v": 41
    },
    {
      "midi": 76,
      "hit": false,
      "t": 37647.758645833324,
      "d": 102.27281249999942,
      "v": 41
    },
    {
      "midi": 68,
      "hit": false,
      "t": 37647.75864583336,
      "d": 113.6364583333343,
      "v": 30
    },
    {
      "midi": 68,
      "hit": false,
      "t": 37647.75864583337,
      "d": 113.6364583333343,
      "v": 44
    },
    {
      "midi": 59,
      "hit": false,
      "t": 37772.75875000003,
      "d": 11.363645833334886,
      "v": 30
    },
    {
      "midi": 64,
      "hit": false,
      "t": 37772.75875000003,
      "d": 11.363645833334886,
      "v": 30
    },
    {
      "midi": 68,
      "hit": false,
      "t": 37772.75875000003,
      "d": 34.09093750000466,
      "v": 30
    },
    {
      "midi": 59,
      "hit": false,
      "t": 37772.75875000004,
      "d": 11.363645833334886,
      "v": 44
    },
    {
      "midi": 64,
      "hit": false,
      "t": 37772.75875000004,
      "d": 11.363645833334886,
      "v": 44
    },
    {
      "midi": 68,
      "hit": false,
      "t": 37772.75875000004,
      "d": 34.09093750000466,
      "v": 44
    },
    {
      "midi": 64,
      "hit": false,
      "t": 37784.12239583332,
      "d": 102.27281249999942,
      "v": 41
    },
    {
      "midi": 76,
      "hit": false,
      "t": 37784.12239583332,
      "d": 102.27281249999942,
      "v": 41
    },
    {
      "midi": 68,
      "hit": false,
      "t": 37909.122500000034,
      "d": 261.363854166666,
      "v": 64
    },
    {
      "midi": 59,
      "hit": false,
      "t": 37909.122500000034,
      "d": 397.7276041666628,
      "v": 64
    },
    {
      "midi": 64,
      "hit": false,
      "t": 37909.122500000034,
      "d": 397.7276041666628,
      "v": 64
    },
    {
      "midi": 56,
      "hit": false,
      "t": 37909.122500000034,
      "d": 534.0913541666669,
      "v": 64
    },
    {
      "midi": 40,
      "hit": false,
      "t": 37909.122500000034,
      "d": 1079.5463541666832,
      "v": 76
    },
    {
      "midi": 68,
      "hit": false,
      "t": 37909.12250000004,
      "d": 261.363854166666,
      "v": 70
    },
    {
      "midi": 59,
      "hit": false,
      "t": 37909.12250000004,
      "d": 397.7276041666628,
      "v": 70
    },
    {
      "midi": 64,
      "hit": false,
      "t": 37909.12250000004,
      "d": 397.7276041666628,
      "v": 70
    },
    {
      "midi": 56,
      "hit": false,
      "t": 37909.12250000004,
      "d": 534.0913541666669,
      "v": 70
    },
    {
      "midi": 40,
      "hit": false,
      "t": 37909.12250000004,
      "d": 1079.5463541666832,
      "v": 44
    },
    {
      "midi": 64,
      "hit": false,
      "t": 37920.48614583332,
      "d": 102.27281249999942,
      "v": 76
    },
    {
      "midi": 76,
      "hit": false,
      "t": 37920.48614583332,
      "d": 102.27281249999942,
      "v": 76
    },
    {
      "midi": 35,
      "hit": false,
      "t": 38045.48625000002,
      "d": 90.90916666666453,
      "v": 93
    },
    {
      "midi": 64,
      "hit": false,
      "t": 38056.849895833315,
      "d": 102.27281249999942,
      "v": 41
    },
    {
      "midi": 76,
      "hit": false,
      "t": 38056.849895833315,
      "d": 102.27281249999942,
      "v": 41
    },
    {
      "midi": 40,
      "hit": false,
      "t": 38181.85000000002,
      "d": 159.09104166666657,
      "v": 93
    },
    {
      "midi": 64,
      "hit": false,
      "t": 38193.21364583331,
      "d": 102.27281249999942,
      "v": 41
    },
    {
      "midi": 76,
      "hit": false,
      "t": 38193.21364583331,
      "d": 102.27281249999942,
      "v": 41
    },
    {
      "midi": 59,
      "hit": false,
      "t": 38318.21375000003,
      "d": 125.00010416666919,
      "v": 30
    },
    {
      "midi": 64,
      "hit": false,
      "t": 38318.21375000003,
      "d": 125.00010416666919,
      "v": 30
    },
    {
      "midi": 68,
      "hit": false,
      "t": 38318.21375000003,
      "d": 125.00010416666919,
      "v": 30
    },
    {
      "midi": 59,
      "hit": false,
      "t": 38318.21375000004,
      "d": 125.00010416666919,
      "v": 44
    },
    {
      "midi": 64,
      "hit": false,
      "t": 38318.21375000004,
      "d": 125.00010416666919,
      "v": 44
    },
    {
      "midi": 68,
      "hit": false,
      "t": 38318.21375000004,
      "d": 125.00010416666919,
      "v": 44
    },
    {
      "midi": 64,
      "hit": false,
      "t": 38329.57739583331,
      "d": 102.27281249999942,
      "v": 41
    },
    {
      "midi": 76,
      "hit": false,
      "t": 38329.57739583331,
      "d": 102.27281249999942,
      "v": 41
    },
    {
      "midi": 40,
      "hit": false,
      "t": 38454.57750000002,
      "d": 215.90927083333372,
      "v": 93
    },
    {
      "midi": 59,
      "hit": false,
      "t": 38454.577500000036,
      "d": 113.6364583333343,
      "v": 30
    },
    {
      "midi": 64,
      "hit": false,
      "t": 38454.577500000036,
      "d": 113.6364583333343,
      "v": 30
    },
    {
      "midi": 68,
      "hit": false,
      "t": 38454.577500000036,
      "d": 113.6364583333343,
      "v": 30
    },
    {
      "midi": 59,
      "hit": false,
      "t": 38454.57750000004,
      "d": 113.6364583333343,
      "v": 44
    },
    {
      "midi": 64,
      "hit": false,
      "t": 38454.57750000004,
      "d": 113.6364583333343,
      "v": 44
    },
    {
      "midi": 68,
      "hit": false,
      "t": 38454.57750000004,
      "d": 113.6364583333343,
      "v": 44
    },
    {
      "midi": 64,
      "hit": false,
      "t": 38465.941145833305,
      "d": 102.27281249999942,
      "v": 41
    },
    {
      "midi": 76,
      "hit": false,
      "t": 38465.941145833305,
      "d": 102.27281249999942,
      "v": 41
    },
    {
      "midi": 59,
      "hit": false,
      "t": 38590.94125000004,
      "d": 113.6364583333343,
      "v": 59
    },
    {
      "midi": 64,
      "hit": false,
      "t": 38590.94125000004,
      "d": 113.6364583333343,
      "v": 59
    },
    {
      "midi": 68,
      "hit": false,
      "t": 38590.94125000004,
      "d": 113.6364583333343,
      "v": 59
    },
    {
      "midi": 59,
      "hit": false,
      "t": 38590.94125000005,
      "d": 113.6364583333343,
      "v": 65
    },
    {
      "midi": 64,
      "hit": false,
      "t": 38590.94125000005,
      "d": 113.6364583333343,
      "v": 65
    },
    {
      "midi": 68,
      "hit": false,
      "t": 38590.94125000005,
      "d": 113.6364583333343,
      "v": 65
    },
    {
      "midi": 64,
      "hit": false,
      "t": 38602.3048958333,
      "d": 102.27281249999942,
      "v": 41
    },
    {
      "midi": 76,
      "hit": false,
      "t": 38602.3048958333,
      "d": 102.27281249999942,
      "v": 41
    },
    {
      "midi": 35,
      "hit": false,
      "t": 38727.30500000002,
      "d": 329.545729166668,
      "v": 93
    },
    {
      "midi": 64,
      "hit": false,
      "t": 38727.305000000044,
      "d": 11.363645833334886,
      "v": 76
    },
    {
      "midi": 59,
      "hit": false,
      "t": 38727.305000000044,
      "d": 34.09093750000466,
      "v": 76
    },
    {
      "midi": 68,
      "hit": false,
      "t": 38727.305000000044,
      "d": 34.09093750000466,
      "v": 76
    },
    {
      "midi": 64,
      "hit": false,
      "t": 38727.30500000005,
      "d": 11.363645833334886,
      "v": 74
    },
    {
      "midi": 59,
      "hit": false,
      "t": 38727.30500000005,
      "d": 34.09093750000466,
      "v": 74
    },
    {
      "midi": 68,
      "hit": false,
      "t": 38727.30500000005,
      "d": 34.09093750000466,
      "v": 74
    },
    {
      "midi": 64,
      "hit": false,
      "t": 38738.6686458333,
      "d": 102.27281249999942,
      "v": 74
    },
    {
      "midi": 76,
      "hit": false,
      "t": 38738.6686458333,
      "d": 102.27281249999942,
      "v": 74
    },
    {
      "midi": 64,
      "hit": false,
      "t": 38738.66864583338,
      "d": 11.363645833334886,
      "v": 55
    },
    {
      "midi": 64,
      "hit": false,
      "t": 38738.668645833386,
      "d": 11.363645833334886,
      "v": 61
    },
    {
      "midi": 59,
      "hit": false,
      "t": 38863.66875000005,
      "d": 45.454583333332266,
      "v": 30
    },
    {
      "midi": 56,
      "hit": false,
      "t": 38863.66875000005,
      "d": 68.18187500000204,
      "v": 30
    },
    {
      "midi": 59,
      "hit": false,
      "t": 38863.668750000055,
      "d": 45.454583333332266,
      "v": 44
    },
    {
      "midi": 56,
      "hit": false,
      "t": 38863.668750000055,
      "d": 68.18187500000204,
      "v": 44
    },
    {
      "midi": 64,
      "hit": false,
      "t": 38875.032395833296,
      "d": 102.27281249999942,
      "v": 47
    },
    {
      "midi": 76,
      "hit": false,
      "t": 38875.032395833296,
      "d": 102.27281249999942,
      "v": 47
    },
    {
      "midi": 59,
      "hit": false,
      "t": 39000.03250000005,
      "d": 90.90916666666453,
      "v": 53
    },
    {
      "midi": 64,
      "hit": false,
      "t": 39000.03250000005,
      "d": 90.90916666666453,
      "v": 53
    },
    {
      "midi": 56,
      "hit": false,
      "t": 39000.03250000005,
      "d": 136.3637499999968,
      "v": 53
    },
    {
      "midi": 59,
      "hit": false,
      "t": 39000.03250000006,
      "d": 90.90916666666453,
      "v": 59
    },
    {
      "midi": 64,
      "hit": false,
      "t": 39000.03250000006,
      "d": 90.90916666666453,
      "v": 59
    },
    {
      "midi": 56,
      "hit": false,
      "t": 39000.03250000006,
      "d": 136.3637499999968,
      "v": 59
    },
    {
      "midi": 64,
      "hit": false,
      "t": 39011.39614583329,
      "d": 102.27281249999942,
      "v": 47
    },
    {
      "midi": 76,
      "hit": false,
      "t": 39011.39614583329,
      "d": 102.27281249999942,
      "v": 47
    },
    {
      "midi": 35,
      "hit": false,
      "t": 39136.39625000003,
      "d": 90.90916666666453,
      "v": 93
    },
    {
      "midi": 59,
      "hit": false,
      "t": 39136.39625000005,
      "d": 90.90916666666453,
      "v": 30
    },
    {
      "midi": 64,
      "hit": false,
      "t": 39136.39625000005,
      "d": 90.90916666666453,
      "v": 30
    },
    {
      "midi": 56,
      "hit": false,
      "t": 39136.39625000005,
      "d": 136.3637499999968,
      "v": 30
    },
    {
      "midi": 59,
      "hit": false,
      "t": 39136.396250000056,
      "d": 90.90916666666453,
      "v": 44
    },
    {
      "midi": 64,
      "hit": false,
      "t": 39136.396250000056,
      "d": 90.90916666666453,
      "v": 44
    },
    {
      "midi": 56,
      "hit": false,
      "t": 39136.396250000056,
      "d": 136.3637499999968,
      "v": 44
    },
    {
      "midi": 64,
      "hit": false,
      "t": 39147.75989583329,
      "d": 102.27281249999942,
      "v": 47
    },
    {
      "midi": 76,
      "hit": false,
      "t": 39147.75989583329,
      "d": 102.27281249999942,
      "v": 47
    },
    {
      "midi": 40,
      "hit": false,
      "t": 39272.760000000024,
      "d": 522.727708333332,
      "v": 93
    },
    {
      "midi": 59,
      "hit": false,
      "t": 39272.760000000046,
      "d": 136.3637499999968,
      "v": 67
    },
    {
      "midi": 64,
      "hit": false,
      "t": 39272.760000000046,
      "d": 136.3637499999968,
      "v": 67
    },
    {
      "midi": 54,
      "hit": false,
      "t": 39272.760000000046,
      "d": 181.81833333333634,
      "v": 57
    },
    {
      "midi": 68,
      "hit": false,
      "t": 39272.760000000046,
      "d": 250.00020833333838,
      "v": 67
    },
    {
      "midi": 40,
      "hit": false,
      "t": 39272.760000000046,
      "d": 659.0914583333506,
      "v": 76
    },
    {
      "midi": 59,
      "hit": false,
      "t": 39272.76000000005,
      "d": 136.3637499999968,
      "v": 73
    },
    {
      "midi": 64,
      "hit": false,
      "t": 39272.76000000005,
      "d": 136.3637499999968,
      "v": 73
    },
    {
      "midi": 54,
      "hit": false,
      "t": 39272.76000000005,
      "d": 181.81833333333634,
      "v": 74
    },
    {
      "midi": 68,
      "hit": false,
      "t": 39272.76000000005,
      "d": 250.00020833333838,
      "v": 73
    },
    {
      "midi": 40,
      "hit": false,
      "t": 39272.76000000005,
      "d": 522.7277083333465,
      "v": 44
    },
    {
      "midi": 64,
      "hit": false,
      "t": 39284.123645833286,
      "d": 102.27281249999942,
      "v": 76
    },
    {
      "midi": 76,
      "hit": false,
      "t": 39284.123645833286,
      "d": 102.27281249999942,
      "v": 76
    },
    {
      "midi": 59,
      "hit": false,
      "t": 39409.12375000004,
      "d": 22.72729166666977,
      "v": 46
    },
    {
      "midi": 64,
      "hit": false,
      "t": 39409.12375000004,
      "d": 22.72729166666977,
      "v": 46
    },
    {
      "midi": 56,
      "hit": false,
      "t": 39409.12375000004,
      "d": 386.36395833334973,
      "v": 30
    },
    {
      "midi": 59,
      "hit": false,
      "t": 39409.12375000005,
      "d": 22.72729166666977,
      "v": 52
    },
    {
      "midi": 64,
      "hit": false,
      "t": 39409.12375000005,
      "d": 22.72729166666977,
      "v": 52
    },
    {
      "midi": 56,
      "hit": false,
      "t": 39409.12375000005,
      "d": 386.36395833334973,
      "v": 44
    },
    {
      "midi": 64,
      "hit": false,
      "t": 39420.48739583328,
      "d": 102.27281249999942,
      "v": 41
    },
    {
      "midi": 76,
      "hit": false,
      "t": 39420.48739583328,
      "d": 102.27281249999942,
      "v": 41
    },
    {
      "midi": 59,
      "hit": false,
      "t": 39545.487500000054,
      "d": 79.54552083333692,
      "v": 46
    },
    {
      "midi": 64,
      "hit": false,
      "t": 39545.487500000054,
      "d": 79.54552083333692,
      "v": 46
    },
    {
      "midi": 68,
      "hit": false,
      "t": 39545.487500000054,
      "d": 79.54552083333692,
      "v": 46
    },
    {
      "midi": 59,
      "hit": false,
      "t": 39545.48750000006,
      "d": 79.54552083333692,
      "v": 52
    },
    {
      "midi": 64,
      "hit": false,
      "t": 39545.48750000006,
      "d": 79.54552083333692,
      "v": 52
    },
    {
      "midi": 68,
      "hit": false,
      "t": 39545.48750000006,
      "d": 79.54552083333692,
      "v": 52
    },
    {
      "midi": 64,
      "hit": false,
      "t": 39556.85114583328,
      "d": 102.27281249999942,
      "v": 41
    },
    {
      "midi": 76,
      "hit": false,
      "t": 39556.85114583328,
      "d": 102.27281249999942,
      "v": 41
    },
    {
      "midi": 59,
      "hit": false,
      "t": 39681.85125000006,
      "d": 68.18187500000204,
      "v": 67
    },
    {
      "midi": 64,
      "hit": false,
      "t": 39681.85125000006,
      "d": 68.18187500000204,
      "v": 67
    },
    {
      "midi": 68,
      "hit": false,
      "t": 39681.85125000006,
      "d": 68.18187500000204,
      "v": 67
    },
    {
      "midi": 59,
      "hit": false,
      "t": 39681.851250000065,
      "d": 68.18187500000204,
      "v": 73
    },
    {
      "midi": 64,
      "hit": false,
      "t": 39681.851250000065,
      "d": 68.18187500000204,
      "v": 73
    },
    {
      "midi": 68,
      "hit": false,
      "t": 39681.851250000065,
      "d": 68.18187500000204,
      "v": 73
    },
    {
      "midi": 64,
      "hit": false,
      "t": 39693.21489583328,
      "d": 102.27281249999942,
      "v": 41
    },
    {
      "midi": 76,
      "hit": false,
      "t": 39693.21489583328,
      "d": 102.27281249999942,
      "v": 41
    },
    {
      "midi": 35,
      "hit": false,
      "t": 39818.215000000026,
      "d": 363.6366666666654,
      "v": 93
    },
    {
      "midi": 56,
      "hit": false,
      "t": 39818.21500000006,
      "d": 113.6364583333343,
      "v": 46
    },
    {
      "midi": 59,
      "hit": false,
      "t": 39818.21500000006,
      "d": 113.6364583333343,
      "v": 59
    },
    {
      "midi": 64,
      "hit": false,
      "t": 39818.21500000006,
      "d": 113.6364583333343,
      "v": 59
    },
    {
      "midi": 68,
      "hit": false,
      "t": 39818.21500000006,
      "d": 113.6364583333343,
      "v": 59
    },
    {
      "midi": 56,
      "hit": false,
      "t": 39818.21500000007,
      "d": 113.6364583333343,
      "v": 52
    },
    {
      "midi": 59,
      "hit": false,
      "t": 39818.21500000007,
      "d": 113.6364583333343,
      "v": 65
    },
    {
      "midi": 64,
      "hit": false,
      "t": 39818.21500000007,
      "d": 113.6364583333343,
      "v": 65
    },
    {
      "midi": 68,
      "hit": false,
      "t": 39818.21500000007,
      "d": 113.6364583333343,
      "v": 65
    },
    {
      "midi": 64,
      "hit": false,
      "t": 39829.57864583327,
      "d": 102.27281249999942,
      "v": 41
    },
    {
      "midi": 76,
      "hit": false,
      "t": 39829.57864583327,
      "d": 102.27281249999942,
      "v": 41
    },
    {
      "midi": 64,
      "hit": false,
      "t": 39965.94239583327,
      "d": 102.27281249999942,
      "v": 41
    },
    {
      "midi": 76,
      "hit": false,
      "t": 39965.94239583327,
      "d": 102.27281249999942,
      "v": 41
    },
    {
      "midi": 68,
      "hit": false,
      "t": 40090.94250000006,
      "d": 136.3637499999968,
      "v": 67
    },
    {
      "midi": 59,
      "hit": false,
      "t": 40090.94250000006,
      "d": 159.09104166666657,
      "v": 76
    },
    {
      "midi": 64,
      "hit": false,
      "t": 40090.94250000006,
      "d": 250.0002083333311,
      "v": 67
    },
    {
      "midi": 45,
      "hit": false,
      "t": 40090.94250000006,
      "d": 670.4551041666782,
      "v": 76
    },
    {
      "midi": 68,
      "hit": false,
      "t": 40090.94250000007,
      "d": 136.3637499999968,
      "v": 73
    },
    {
      "midi": 59,
      "hit": false,
      "t": 40090.94250000007,
      "d": 159.09104166666657,
      "v": 74
    },
    {
      "midi": 64,
      "hit": false,
      "t": 40090.94250000007,
      "d": 250.0002083333311,
      "v": 73
    },
    {
      "midi": 45,
      "hit": false,
      "t": 40090.94250000007,
      "d": 670.4551041666782,
      "v": 44
    },
    {
      "midi": 64,
      "hit": false,
      "t": 40102.30614583327,
      "d": 102.27281249999942,
      "v": 76
    },
    {
      "midi": 76,
      "hit": false,
      "t": 40102.30614583327,
      "d": 102.27281249999942,
      "v": 76
    },
    {
      "midi": 35,
      "hit": false,
      "t": 40227.30625000002,
      "d": 68.18187500000204,
      "v": 93
    },
    {
      "midi": 61,
      "hit": false,
      "t": 40227.30625000006,
      "d": 113.6364583333343,
      "v": 30
    },
    {
      "midi": 69,
      "hit": false,
      "t": 40227.30625000006,
      "d": 113.6364583333343,
      "v": 30
    },
    {
      "midi": 61,
      "hit": false,
      "t": 40227.30625000007,
      "d": 113.6364583333343,
      "v": 44
    },
    {
      "midi": 69,
      "hit": false,
      "t": 40227.30625000007,
      "d": 113.6364583333343,
      "v": 44
    },
    {
      "midi": 64,
      "hit": false,
      "t": 40238.66989583326,
      "d": 102.27281249999942,
      "v": 41
    },
    {
      "midi": 76,
      "hit": false,
      "t": 40238.66989583326,
      "d": 102.27281249999942,
      "v": 41
    },
    {
      "midi": 40,
      "hit": false,
      "t": 40363.67000000003,
      "d": 147.72739583333168,
      "v": 93
    },
    {
      "midi": 61,
      "hit": false,
      "t": 40363.670000000064,
      "d": 113.6364583333343,
      "v": 30
    },
    {
      "midi": 64,
      "hit": false,
      "t": 40363.670000000064,
      "d": 113.6364583333343,
      "v": 30
    },
    {
      "midi": 69,
      "hit": false,
      "t": 40363.670000000064,
      "d": 113.6364583333343,
      "v": 30
    },
    {
      "midi": 61,
      "hit": false,
      "t": 40363.67000000007,
      "d": 113.6364583333343,
      "v": 44
    },
    {
      "midi": 64,
      "hit": false,
      "t": 40363.67000000007,
      "d": 113.6364583333343,
      "v": 44
    },
    {
      "midi": 69,
      "hit": false,
      "t": 40363.67000000007,
      "d": 113.6364583333343,
      "v": 44
    },
    {
      "midi": 64,
      "hit": false,
      "t": 40375.03364583326,
      "d": 102.27281249999942,
      "v": 41
    },
    {
      "midi": 76,
      "hit": false,
      "t": 40375.03364583326,
      "d": 102.27281249999942,
      "v": 41
    },
    {
      "midi": 64,
      "hit": false,
      "t": 40500.03375000007,
      "d": 113.6364583333343,
      "v": 76
    },
    {
      "midi": 69,
      "hit": false,
      "t": 40500.03375000007,
      "d": 113.6364583333343,
      "v": 76
    },
    {
      "midi": 61,
      "hit": false,
      "t": 40500.03375000007,
      "d": 238.6365625000035,
      "v": 76
    },
    {
      "midi": 64,
      "hit": false,
      "t": 40500.033750000075,
      "d": 113.6364583333343,
      "v": 74
    },
    {
      "midi": 69,
      "hit": false,
      "t": 40500.033750000075,
      "d": 113.6364583333343,
      "v": 74
    },
    {
      "midi": 61,
      "hit": false,
      "t": 40500.033750000075,
      "d": 238.6365625000035,
      "v": 74
    },
    {
      "midi": 64,
      "hit": false,
      "t": 40511.39739583326,
      "d": 102.27281249999942,
      "v": 41
    },
    {
      "midi": 76,
      "hit": false,
      "t": 40511.39739583326,
      "d": 102.27281249999942,
      "v": 41
    },
    {
      "midi": 40,
      "hit": false,
      "t": 40636.39750000003,
      "d": 318.18208333333314,
      "v": 93
    },
    {
      "midi": 64,
      "hit": false,
      "t": 40636.39750000007,
      "d": 102.27281249999942,
      "v": 46
    },
    {
      "midi": 69,
      "hit": false,
      "t": 40636.39750000007,
      "d": 102.27281249999942,
      "v": 46
    },
    {
      "midi": 64,
      "hit": false,
      "t": 40636.39750000008,
      "d": 102.27281249999942,
      "v": 52
    },
    {
      "midi": 69,
      "hit": false,
      "t": 40636.39750000008,
      "d": 102.27281249999942,
      "v": 52
    },
    {
      "midi": 64,
      "hit": false,
      "t": 40647.761145833254,
      "d": 102.27281249999942,
      "v": 41
    },
    {
      "midi": 76,
      "hit": false,
      "t": 40647.761145833254,
      "d": 102.27281249999942,
      "v": 41
    },
    {
      "midi": 61,
      "hit": false,
      "t": 40772.761250000076,
      "d": 113.6364583333343,
      "v": 46
    },
    {
      "midi": 64,
      "hit": false,
      "t": 40772.761250000076,
      "d": 113.6364583333343,
      "v": 46
    },
    {
      "midi": 69,
      "hit": false,
      "t": 40772.761250000076,
      "d": 113.6364583333343,
      "v": 46
    },
    {
      "midi": 61,
      "hit": false,
      "t": 40772.76125000008,
      "d": 113.6364583333343,
      "v": 52
    },
    {
      "midi": 64,
      "hit": false,
      "t": 40772.76125000008,
      "d": 113.6364583333343,
      "v": 52
    },
    {
      "midi": 69,
      "hit": false,
      "t": 40772.76125000008,
      "d": 113.6364583333343,
      "v": 52
    },
    {
      "midi": 64,
      "hit": false,
      "t": 40784.12489583325,
      "d": 102.27281249999942,
      "v": 41
    },
    {
      "midi": 76,
      "hit": false,
      "t": 40784.12489583325,
      "d": 102.27281249999942,
      "v": 41
    },
    {
      "midi": 35,
      "hit": false,
      "t": 40909.12500000003,
      "d": 204.54562499999884,
      "v": 93
    },
    {
      "midi": 61,
      "hit": false,
      "t": 40909.12500000008,
      "d": 136.3637499999968,
      "v": 76
    },
    {
      "midi": 69,
      "hit": false,
      "t": 40909.12500000008,
      "d": 136.3637499999968,
      "v": 76
    },
    {
      "midi": 64,
      "hit": false,
      "t": 40909.12500000008,
      "d": 181.81833333332906,
      "v": 76
    },
    {
      "midi": 45,
      "hit": false,
      "t": 40909.12500000009,
      "d": 125.00010416666919,
      "v": 44
    },
    {
      "midi": 61,
      "hit": false,
      "t": 40909.12500000009,
      "d": 125.00010416666919,
      "v": 74
    },
    {
      "midi": 69,
      "hit": false,
      "t": 40909.12500000009,
      "d": 125.00010416666919,
      "v": 74
    },
    {
      "midi": 64,
      "hit": false,
      "t": 40909.12500000009,
      "d": 181.81833333333634,
      "v": 74
    },
    {
      "midi": 64,
      "hit": false,
      "t": 40920.48864583325,
      "d": 102.27281249999942,
      "v": 74
    },
    {
      "midi": 76,
      "hit": false,
      "t": 40920.48864583325,
      "d": 102.27281249999942,
      "v": 74
    },
    {
      "midi": 59,
      "hit": false,
      "t": 41045.48875000008,
      "d": 113.6364583333343,
      "v": 67
    },
    {
      "midi": 68,
      "hit": false,
      "t": 41045.48875000008,
      "d": 113.6364583333343,
      "v": 67
    },
    {
      "midi": 59,
      "hit": false,
      "t": 41045.48875000009,
      "d": 113.6364583333343,
      "v": 73
    },
    {
      "midi": 68,
      "hit": false,
      "t": 41045.48875000009,
      "d": 113.6364583333343,
      "v": 73
    },
    {
      "midi": 64,
      "hit": false,
      "t": 41056.852395833244,
      "d": 102.27281249999942,
      "v": 47
    },
    {
      "midi": 76,
      "hit": false,
      "t": 41056.852395833244,
      "d": 102.27281249999942,
      "v": 47
    },
    {
      "midi": 35,
      "hit": false,
      "t": 41181.85250000003,
      "d": 22.72729166666977,
      "v": 93
    },
    {
      "midi": 59,
      "hit": false,
      "t": 41181.85250000008,
      "d": 22.72729166666977,
      "v": 67
    },
    {
      "midi": 64,
      "hit": false,
      "t": 41181.85250000008,
      "d": 22.72729166666977,
      "v": 67
    },
    {
      "midi": 59,
      "hit": false,
      "t": 41181.852500000095,
      "d": 22.72729166666977,
      "v": 73
    },
    {
      "midi": 64,
      "hit": false,
      "t": 41181.852500000095,
      "d": 22.72729166666977,
      "v": 73
    },
    {
      "midi": 64,
      "hit": false,
      "t": 41193.21614583324,
      "d": 102.27281249999942,
      "v": 47
    },
    {
      "midi": 76,
      "hit": false,
      "t": 41193.21614583324,
      "d": 102.27281249999942,
      "v": 47
    },
    {
      "midi": 35,
      "hit": false,
      "t": 41318.216250000034,
      "d": 56.81822916666715,
      "v": 93
    },
    {
      "midi": 59,
      "hit": false,
      "t": 41318.216250000085,
      "d": 22.72729166666977,
      "v": 46
    },
    {
      "midi": 64,
      "hit": false,
      "t": 41318.216250000085,
      "d": 22.72729166666977,
      "v": 46
    },
    {
      "midi": 59,
      "hit": false,
      "t": 41318.2162500001,
      "d": 22.72729166666977,
      "v": 52
    },
    {
      "midi": 64,
      "hit": false,
      "t": 41318.2162500001,
      "d": 22.72729166666977,
      "v": 52
    },
    {
      "midi": 64,
      "hit": false,
      "t": 41329.57989583324,
      "d": 102.27281249999942,
      "v": 47
    },
    {
      "midi": 76,
      "hit": false,
      "t": 41329.57989583324,
      "d": 102.27281249999942,
      "v": 47
    },
    {
      "midi": 40,
      "hit": false,
      "t": 41454.58000000004,
      "d": 545.4550000000017,
      "v": 93
    },
    {
      "midi": 54,
      "hit": false,
      "t": 41454.58000000009,
      "d": 90.90916666667181,
      "v": 63
    },
    {
      "midi": 59,
      "hit": false,
      "t": 41454.58000000009,
      "d": 136.36375000000407,
      "v": 67
    },
    {
      "midi": 64,
      "hit": false,
      "t": 41454.58000000009,
      "d": 136.36375000000407,
      "v": 67
    },
    {
      "midi": 40,
      "hit": false,
      "t": 41454.58000000009,
      "d": 670.4551041666855,
      "v": 76
    },
    {
      "midi": 54,
      "hit": false,
      "t": 41454.5800000001,
      "d": 90.90916666667181,
      "v": 74
    },
    {
      "midi": 59,
      "hit": false,
      "t": 41454.5800000001,
      "d": 136.36375000000407,
      "v": 73
    },
    {
      "midi": 64,
      "hit": false,
      "t": 41454.5800000001,
      "d": 136.36375000000407,
      "v": 73
    },
    {
      "midi": 40,
      "hit": false,
      "t": 41454.5800000001,
      "d": 670.4551041666855,
      "v": 44
    },
    {
      "midi": 64,
      "hit": false,
      "t": 41465.943645833235,
      "d": 102.27281249999942,
      "v": 76
    },
    {
      "midi": 76,
      "hit": false,
      "t": 41465.943645833235,
      "d": 102.27281249999942,
      "v": 76
    },
    {
      "midi": 68,
      "hit": false,
      "t": 41465.943645833424,
      "d": 261.36385416667326,
      "v": 30
    },
    {
      "midi": 68,
      "hit": false,
      "t": 41465.94364583344,
      "d": 261.36385416667326,
      "v": 44
    },
    {
      "midi": 59,
      "hit": false,
      "t": 41590.94375000009,
      "d": 22.72729166666977,
      "v": 64
    },
    {
      "midi": 64,
      "hit": false,
      "t": 41590.94375000009,
      "d": 22.72729166666977,
      "v": 46
    },
    {
      "midi": 56,
      "hit": false,
      "t": 41590.94375000009,
      "d": 386.36395833334245,
      "v": 30
    },
    {
      "midi": 59,
      "hit": false,
      "t": 41590.94375000011,
      "d": 22.72729166666977,
      "v": 70
    },
    {
      "midi": 64,
      "hit": false,
      "t": 41590.94375000011,
      "d": 22.72729166666977,
      "v": 52
    },
    {
      "midi": 56,
      "hit": false,
      "t": 41590.94375000011,
      "d": 386.36395833334245,
      "v": 44
    },
    {
      "midi": 64,
      "hit": false,
      "t": 41602.30739583323,
      "d": 102.27281249999942,
      "v": 41
    },
    {
      "midi": 76,
      "hit": false,
      "t": 41602.30739583323,
      "d": 102.27281249999942,
      "v": 41
    },
    {
      "midi": 59,
      "hit": false,
      "t": 41727.3075000001,
      "d": 22.72729166666977,
      "v": 46
    },
    {
      "midi": 64,
      "hit": false,
      "t": 41727.3075000001,
      "d": 22.72729166666977,
      "v": 46
    },
    {
      "midi": 59,
      "hit": false,
      "t": 41727.30750000011,
      "d": 22.72729166666977,
      "v": 52
    },
    {
      "midi": 64,
      "hit": false,
      "t": 41727.30750000011,
      "d": 22.72729166666977,
      "v": 52
    },
    {
      "midi": 64,
      "hit": false,
      "t": 41738.67114583323,
      "d": 102.27281249999942,
      "v": 41
    },
    {
      "midi": 76,
      "hit": false,
      "t": 41738.67114583323,
      "d": 102.27281249999942,
      "v": 41
    },
    {
      "midi": 59,
      "hit": false,
      "t": 41863.6712500001,
      "d": 90.90916666666453,
      "v": 47
    },
    {
      "midi": 64,
      "hit": false,
      "t": 41863.6712500001,
      "d": 90.90916666666453,
      "v": 67
    },
    {
      "midi": 68,
      "hit": false,
      "t": 41863.6712500001,
      "d": 113.6364583333343,
      "v": 30
    },
    {
      "midi": 59,
      "hit": false,
      "t": 41863.671250000116,
      "d": 90.90916666666453,
      "v": 53
    },
    {
      "midi": 64,
      "hit": false,
      "t": 41863.671250000116,
      "d": 90.90916666666453,
      "v": 73
    },
    {
      "midi": 68,
      "hit": false,
      "t": 41863.671250000116,
      "d": 113.6364583333343,
      "v": 44
    },
    {
      "midi": 64,
      "hit": false,
      "t": 41875.034895833225,
      "d": 102.27281249999942,
      "v": 41
    },
    {
      "midi": 76,
      "hit": false,
      "t": 41875.034895833225,
      "d": 102.27281249999942,
      "v": 41
    },
    {
      "midi": 35,
      "hit": false,
      "t": 42000.03500000004,
      "d": 340.9093750000029,
      "v": 93
    },
    {
      "midi": 59,
      "hit": false,
      "t": 42000.035000000105,
      "d": 102.27281249999942,
      "v": 72
    },
    {
      "midi": 64,
      "hit": false,
      "t": 42000.035000000105,
      "d": 102.27281249999942,
      "v": 72
    },
    {
      "midi": 59,
      "hit": false,
      "t": 42000.03500000012,
      "d": 102.27281249999942,
      "v": 74
    },
    {
      "midi": 64,
      "hit": false,
      "t": 42000.03500000012,
      "d": 102.27281249999942,
      "v": 74
    },
    {
      "midi": 64,
      "hit": false,
      "t": 42011.39864583322,
      "d": 102.27281249999942,
      "v": 41
    },
    {
      "midi": 76,
      "hit": false,
      "t": 42011.39864583322,
      "d": 102.27281249999942,
      "v": 41
    },
    {
      "midi": 68,
      "hit": false,
      "t": 42011.39864583344,
      "d": 113.6364583333343,
      "v": 30
    },
    {
      "midi": 68,
      "hit": false,
      "t": 42011.398645833455,
      "d": 113.6364583333343,
      "v": 44
    },
    {
      "midi": 59,
      "hit": false,
      "t": 42136.39875000011,
      "d": 11.363645833334886,
      "v": 30
    },
    {
      "midi": 64,
      "hit": false,
      "t": 42136.39875000011,
      "d": 11.363645833334886,
      "v": 30
    },
    {
      "midi": 68,
      "hit": false,
      "t": 42136.39875000011,
      "d": 34.09093750000466,
      "v": 30
    },
    {
      "midi": 59,
      "hit": false,
      "t": 42136.398750000124,
      "d": 11.363645833334886,
      "v": 44
    },
    {
      "midi": 64,
      "hit": false,
      "t": 42136.398750000124,
      "d": 11.363645833334886,
      "v": 44
    },
    {
      "midi": 68,
      "hit": false,
      "t": 42136.398750000124,
      "d": 34.09093750000466,
      "v": 44
    },
    {
      "midi": 64,
      "hit": false,
      "t": 42147.76239583322,
      "d": 102.27281249999942,
      "v": 41
    },
    {
      "midi": 76,
      "hit": false,
      "t": 42147.76239583322,
      "d": 102.27281249999942,
      "v": 41
    },
    {
      "midi": 68,
      "hit": false,
      "t": 42272.76250000011,
      "d": 261.363854166666,
      "v": 64
    },
    {
      "midi": 59,
      "hit": false,
      "t": 42272.76250000011,
      "d": 397.7276041666628,
      "v": 64
    },
    {
      "midi": 64,
      "hit": false,
      "t": 42272.76250000011,
      "d": 397.7276041666628,
      "v": 64
    },
    {
      "midi": 56,
      "hit": false,
      "t": 42272.76250000011,
      "d": 534.0913541666669,
      "v": 64
    },
    {
      "midi": 40,
      "hit": false,
      "t": 42272.76250000011,
      "d": 943.1826041666791,
      "v": 76
    },
    {
      "midi": 68,
      "hit": false,
      "t": 42272.76250000013,
      "d": 261.363854166666,
      "v": 70
    },
    {
      "midi": 59,
      "hit": false,
      "t": 42272.76250000013,
      "d": 397.7276041666628,
      "v": 70
    },
    {
      "midi": 64,
      "hit": false,
      "t": 42272.76250000013,
      "d": 397.7276041666628,
      "v": 70
    },
    {
      "midi": 56,
      "hit": false,
      "t": 42272.76250000013,
      "d": 534.0913541666669,
      "v": 70
    },
    {
      "midi": 40,
      "hit": false,
      "t": 42272.76250000013,
      "d": 1215.91010416668,
      "v": 44
    },
    {
      "midi": 64,
      "hit": false,
      "t": 42284.126145833216,
      "d": 102.27281249999942,
      "v": 76
    },
    {
      "midi": 76,
      "hit": false,
      "t": 42284.126145833216,
      "d": 102.27281249999942,
      "v": 76
    },
    {
      "midi": 35,
      "hit": false,
      "t": 42409.126250000045,
      "d": 68.18187500000204,
      "v": 93
    },
    {
      "midi": 64,
      "hit": false,
      "t": 42420.48989583321,
      "d": 102.27281249999942,
      "v": 41
    },
    {
      "midi": 76,
      "hit": false,
      "t": 42420.48989583321,
      "d": 102.27281249999942,
      "v": 41
    },
    {
      "midi": 40,
      "hit": false,
      "t": 42545.49000000005,
      "d": 147.72739583333168,
      "v": 93
    },
    {
      "midi": 64,
      "hit": false,
      "t": 42556.85364583321,
      "d": 102.27281249999942,
      "v": 41
    },
    {
      "midi": 76,
      "hit": false,
      "t": 42556.85364583321,
      "d": 102.27281249999942,
      "v": 41
    },
    {
      "midi": 59,
      "hit": false,
      "t": 42681.85375000011,
      "d": 125.00010416666919,
      "v": 30
    },
    {
      "midi": 64,
      "hit": false,
      "t": 42681.85375000011,
      "d": 125.00010416666919,
      "v": 30
    },
    {
      "midi": 68,
      "hit": false,
      "t": 42681.85375000011,
      "d": 125.00010416666919,
      "v": 30
    },
    {
      "midi": 59,
      "hit": false,
      "t": 42681.853750000126,
      "d": 125.00010416666919,
      "v": 44
    },
    {
      "midi": 64,
      "hit": false,
      "t": 42681.853750000126,
      "d": 125.00010416666919,
      "v": 44
    },
    {
      "midi": 68,
      "hit": false,
      "t": 42681.853750000126,
      "d": 125.00010416666919,
      "v": 44
    },
    {
      "midi": 64,
      "hit": false,
      "t": 42693.217395833206,
      "d": 102.27281249999942,
      "v": 41
    },
    {
      "midi": 76,
      "hit": false,
      "t": 42693.217395833206,
      "d": 102.27281249999942,
      "v": 41
    },
    {
      "midi": 40,
      "hit": false,
      "t": 42818.21750000005,
      "d": 272.7275000000009,
      "v": 93
    },
    {
      "midi": 59,
      "hit": false,
      "t": 42818.217500000115,
      "d": 113.6364583333343,
      "v": 30
    },
    {
      "midi": 64,
      "hit": false,
      "t": 42818.217500000115,
      "d": 113.6364583333343,
      "v": 30
    },
    {
      "midi": 68,
      "hit": false,
      "t": 42818.217500000115,
      "d": 113.6364583333343,
      "v": 30
    },
    {
      "midi": 59,
      "hit": false,
      "t": 42818.21750000013,
      "d": 113.6364583333343,
      "v": 44
    },
    {
      "midi": 64,
      "hit": false,
      "t": 42818.21750000013,
      "d": 113.6364583333343,
      "v": 44
    },
    {
      "midi": 68,
      "hit": false,
      "t": 42818.21750000013,
      "d": 113.6364583333343,
      "v": 44
    },
    {
      "midi": 64,
      "hit": false,
      "t": 42829.5811458332,
      "d": 102.27281249999942,
      "v": 41
    },
    {
      "midi": 76,
      "hit": false,
      "t": 42829.5811458332,
      "d": 102.27281249999942,
      "v": 41
    },
    {
      "midi": 59,
      "hit": false,
      "t": 42954.58125000012,
      "d": 113.6364583333343,
      "v": 59
    },
    {
      "midi": 64,
      "hit": false,
      "t": 42954.58125000012,
      "d": 113.6364583333343,
      "v": 59
    },
    {
      "midi": 68,
      "hit": false,
      "t": 42954.58125000012,
      "d": 113.6364583333343,
      "v": 59
    },
    {
      "midi": 59,
      "hit": false,
      "t": 42954.581250000134,
      "d": 113.6364583333343,
      "v": 65
    },
    {
      "midi": 64,
      "hit": false,
      "t": 42954.581250000134,
      "d": 113.6364583333343,
      "v": 65
    },
    {
      "midi": 68,
      "hit": false,
      "t": 42954.581250000134,
      "d": 113.6364583333343,
      "v": 65
    },
    {
      "midi": 64,
      "hit": false,
      "t": 42965.9448958332,
      "d": 102.27281249999942,
      "v": 41
    },
    {
      "midi": 76,
      "hit": false,
      "t": 42965.9448958332,
      "d": 102.27281249999942,
      "v": 41
    },
    {
      "midi": 35,
      "hit": false,
      "t": 43090.94500000005,
      "d": 329.545729166668,
      "v": 93
    },
    {
      "midi": 64,
      "hit": false,
      "t": 43090.94500000012,
      "d": 11.363645833334886,
      "v": 76
    },
    {
      "midi": 59,
      "hit": false,
      "t": 43090.94500000012,
      "d": 34.09093750000466,
      "v": 76
    },
    {
      "midi": 68,
      "hit": false,
      "t": 43090.94500000012,
      "d": 34.09093750000466,
      "v": 76
    },
    {
      "midi": 64,
      "hit": false,
      "t": 43090.94500000014,
      "d": 11.363645833334886,
      "v": 74
    },
    {
      "midi": 59,
      "hit": false,
      "t": 43090.94500000014,
      "d": 34.09093750000466,
      "v": 74
    },
    {
      "midi": 68,
      "hit": false,
      "t": 43090.94500000014,
      "d": 34.09093750000466,
      "v": 74
    },
    {
      "midi": 64,
      "hit": false,
      "t": 43102.308645833196,
      "d": 102.27281249999942,
      "v": 74
    },
    {
      "midi": 76,
      "hit": false,
      "t": 43102.308645833196,
      "d": 102.27281249999942,
      "v": 74
    },
    {
      "midi": 64,
      "hit": false,
      "t": 43102.30864583346,
      "d": 11.363645833334886,
      "v": 55
    },
    {
      "midi": 64,
      "hit": false,
      "t": 43102.30864583347,
      "d": 11.363645833334886,
      "v": 61
    },
    {
      "midi": 59,
      "hit": false,
      "t": 43227.30875000013,
      "d": 45.454583333332266,
      "v": 30
    },
    {
      "midi": 56,
      "hit": false,
      "t": 43227.30875000013,
      "d": 68.18187500000204,
      "v": 30
    },
    {
      "midi": 59,
      "hit": false,
      "t": 43227.30875000014,
      "d": 45.454583333332266,
      "v": 44
    },
    {
      "midi": 56,
      "hit": false,
      "t": 43227.30875000014,
      "d": 68.18187500000204,
      "v": 44
    },
    {
      "midi": 64,
      "hit": false,
      "t": 43238.67239583319,
      "d": 102.27281249999942,
      "v": 47
    },
    {
      "midi": 76,
      "hit": false,
      "t": 43238.67239583319,
      "d": 102.27281249999942,
      "v": 47
    },
    {
      "midi": 59,
      "hit": false,
      "t": 43363.67250000013,
      "d": 90.90916666666453,
      "v": 53
    },
    {
      "midi": 64,
      "hit": false,
      "t": 43363.67250000013,
      "d": 90.90916666666453,
      "v": 53
    },
    {
      "midi": 56,
      "hit": false,
      "t": 43363.67250000013,
      "d": 136.3637499999968,
      "v": 53
    },
    {
      "midi": 59,
      "hit": false,
      "t": 43363.672500000146,
      "d": 90.90916666666453,
      "v": 59
    },
    {
      "midi": 64,
      "hit": false,
      "t": 43363.672500000146,
      "d": 90.90916666666453,
      "v": 59
    },
    {
      "midi": 56,
      "hit": false,
      "t": 43363.672500000146,
      "d": 125.00010416666191,
      "v": 59
    },
    {
      "midi": 64,
      "hit": false,
      "t": 43375.03614583319,
      "d": 102.27281249999942,
      "v": 47
    },
    {
      "midi": 76,
      "hit": false,
      "t": 43375.03614583319,
      "d": 102.27281249999942,
      "v": 47
    },
    {
      "midi": 35,
      "hit": false,
      "t": 43500.036250000056,
      "d": 79.54552083333692,
      "v": 93
    },
    {
      "midi": 59,
      "hit": false,
      "t": 43500.03625000013,
      "d": 90.90916666666453,
      "v": 30
    },
    {
      "midi": 64,
      "hit": false,
      "t": 43500.03625000013,
      "d": 90.90916666666453,
      "v": 30
    },
    {
      "midi": 56,
      "hit": false,
      "t": 43500.03625000013,
      "d": 136.3637499999968,
      "v": 30
    },
    {
      "midi": 56,
      "hit": false,
      "t": 43500.03625000014,
      "d": 90.90916666666453,
      "v": 44
    },
    {
      "midi": 59,
      "hit": false,
      "t": 43500.03625000014,
      "d": 90.90916666666453,
      "v": 44
    },
    {
      "midi": 64,
      "hit": false,
      "t": 43500.03625000014,
      "d": 90.90916666666453,
      "v": 44
    },
    {
      "midi": 64,
      "hit": false,
      "t": 43511.39989583319,
      "d": 102.27281249999942,
      "v": 47
    },
    {
      "midi": 76,
      "hit": false,
      "t": 43511.39989583319,
      "d": 102.27281249999942,
      "v": 47
    },
    {
      "midi": 40,
      "hit": false,
      "t": 43636.40000000006,
      "d": 545.4550000000017,
      "v": 93
    },
    {
      "midi": 59,
      "hit": false,
      "t": 43636.400000000125,
      "d": 136.3637499999968,
      "v": 67
    },
    {
      "midi": 64,
      "hit": false,
      "t": 43636.400000000125,
      "d": 136.3637499999968,
      "v": 67
    },
    {
      "midi": 54,
      "hit": false,
      "t": 43636.400000000125,
      "d": 181.81833333333634,
      "v": 57
    },
    {
      "midi": 68,
      "hit": false,
      "t": 43636.400000000125,
      "d": 250.00020833333838,
      "v": 67
    },
    {
      "midi": 40,
      "hit": false,
      "t": 43636.400000000125,
      "d": 659.0914583333506,
      "v": 76
    },
    {
      "midi": 59,
      "hit": false,
      "t": 43636.40000000014,
      "d": 136.3637499999968,
      "v": 73
    },
    {
      "midi": 64,
      "hit": false,
      "t": 43636.40000000014,
      "d": 136.3637499999968,
      "v": 73
    },
    {
      "midi": 54,
      "hit": false,
      "t": 43636.40000000014,
      "d": 181.81833333333634,
      "v": 74
    },
    {
      "midi": 68,
      "hit": false,
      "t": 43636.40000000014,
      "d": 250.00020833333838,
      "v": 73
    },
    {
      "midi": 40,
      "hit": false,
      "t": 43636.40000000014,
      "d": 806.8188541666823,
      "v": 44
    },
    {
      "midi": 64,
      "hit": false,
      "t": 43647.76364583318,
      "d": 102.27281249999942,
      "v": 76
    },
    {
      "midi": 76,
      "hit": false,
      "t": 43647.76364583318,
      "d": 102.27281249999942,
      "v": 76
    },
    {
      "midi": 59,
      "hit": false,
      "t": 43772.76375000012,
      "d": 22.72729166666977,
      "v": 46
    },
    {
      "midi": 64,
      "hit": false,
      "t": 43772.76375000012,
      "d": 22.72729166666977,
      "v": 46
    },
    {
      "midi": 56,
      "hit": false,
      "t": 43772.76375000012,
      "d": 386.36395833334973,
      "v": 30
    },
    {
      "midi": 59,
      "hit": false,
      "t": 43772.76375000014,
      "d": 22.72729166666977,
      "v": 52
    },
    {
      "midi": 64,
      "hit": false,
      "t": 43772.76375000014,
      "d": 22.72729166666977,
      "v": 52
    },
    {
      "midi": 56,
      "hit": false,
      "t": 43772.76375000014,
      "d": 386.36395833334973,
      "v": 44
    },
    {
      "midi": 64,
      "hit": false,
      "t": 43784.12739583318,
      "d": 102.27281249999942,
      "v": 41
    },
    {
      "midi": 76,
      "hit": false,
      "t": 43784.12739583318,
      "d": 102.27281249999942,
      "v": 41
    },
    {
      "midi": 59,
      "hit": false,
      "t": 43909.12750000013,
      "d": 79.54552083333692,
      "v": 46
    },
    {
      "midi": 64,
      "hit": false,
      "t": 43909.12750000013,
      "d": 79.54552083333692,
      "v": 46
    },
    {
      "midi": 68,
      "hit": false,
      "t": 43909.12750000013,
      "d": 79.54552083333692,
      "v": 46
    },
    {
      "midi": 59,
      "hit": false,
      "t": 43909.12750000015,
      "d": 79.54552083333692,
      "v": 52
    },
    {
      "midi": 64,
      "hit": false,
      "t": 43909.12750000015,
      "d": 79.54552083333692,
      "v": 52
    },
    {
      "midi": 68,
      "hit": false,
      "t": 43909.12750000015,
      "d": 79.54552083333692,
      "v": 52
    },
    {
      "midi": 64,
      "hit": false,
      "t": 43920.49114583318,
      "d": 102.27281249999942,
      "v": 41
    },
    {
      "midi": 76,
      "hit": false,
      "t": 43920.49114583318,
      "d": 102.27281249999942,
      "v": 41
    },
    {
      "midi": 59,
      "hit": false,
      "t": 44045.49125000014,
      "d": 68.18187500000204,
      "v": 67
    },
    {
      "midi": 64,
      "hit": false,
      "t": 44045.49125000014,
      "d": 68.18187500000204,
      "v": 67
    },
    {
      "midi": 68,
      "hit": false,
      "t": 44045.49125000014,
      "d": 68.18187500000204,
      "v": 67
    },
    {
      "midi": 59,
      "hit": false,
      "t": 44045.49125000015,
      "d": 68.18187500000204,
      "v": 73
    },
    {
      "midi": 64,
      "hit": false,
      "t": 44045.49125000015,
      "d": 68.18187500000204,
      "v": 73
    },
    {
      "midi": 68,
      "hit": false,
      "t": 44045.49125000015,
      "d": 68.18187500000204,
      "v": 73
    },
    {
      "midi": 64,
      "hit": false,
      "t": 44056.854895833174,
      "d": 102.27281249999942,
      "v": 41
    },
    {
      "midi": 76,
      "hit": false,
      "t": 44056.854895833174,
      "d": 102.27281249999942,
      "v": 41
    },
    {
      "midi": 35,
      "hit": false,
      "t": 44181.85500000006,
      "d": 306.81843749999825,
      "v": 93
    },
    {
      "midi": 56,
      "hit": false,
      "t": 44181.85500000014,
      "d": 113.6364583333343,
      "v": 46
    },
    {
      "midi": 59,
      "hit": false,
      "t": 44181.85500000014,
      "d": 113.6364583333343,
      "v": 59
    },
    {
      "midi": 64,
      "hit": false,
      "t": 44181.85500000014,
      "d": 113.6364583333343,
      "v": 59
    },
    {
      "midi": 68,
      "hit": false,
      "t": 44181.85500000014,
      "d": 113.6364583333343,
      "v": 59
    },
    {
      "midi": 56,
      "hit": false,
      "t": 44181.855000000156,
      "d": 113.6364583333343,
      "v": 52
    },
    {
      "midi": 59,
      "hit": false,
      "t": 44181.855000000156,
      "d": 113.6364583333343,
      "v": 65
    },
    {
      "midi": 64,
      "hit": false,
      "t": 44181.855000000156,
      "d": 113.6364583333343,
      "v": 65
    },
    {
      "midi": 68,
      "hit": false,
      "t": 44181.855000000156,
      "d": 113.6364583333343,
      "v": 65
    },
    {
      "midi": 64,
      "hit": false,
      "t": 44193.21864583317,
      "d": 102.27281249999942,
      "v": 41
    },
    {
      "midi": 76,
      "hit": false,
      "t": 44193.21864583317,
      "d": 102.27281249999942,
      "v": 41
    },
    {
      "midi": 64,
      "hit": false,
      "t": 44329.58239583317,
      "d": 102.27281249999942,
      "v": 41
    },
    {
      "midi": 76,
      "hit": false,
      "t": 44329.58239583317,
      "d": 102.27281249999942,
      "v": 41
    },
    {
      "midi": 68,
      "hit": false,
      "t": 44454.58250000014,
      "d": 136.3637499999968,
      "v": 67
    },
    {
      "midi": 59,
      "hit": false,
      "t": 44454.58250000014,
      "d": 159.09104166666657,
      "v": 76
    },
    {
      "midi": 64,
      "hit": false,
      "t": 44454.58250000014,
      "d": 250.0002083333311,
      "v": 67
    },
    {
      "midi": 45,
      "hit": false,
      "t": 44454.58250000014,
      "d": 670.4551041666782,
      "v": 76
    },
    {
      "midi": 68,
      "hit": false,
      "t": 44454.58250000016,
      "d": 136.3637499999968,
      "v": 73
    },
    {
      "midi": 59,
      "hit": false,
      "t": 44454.58250000016,
      "d": 159.09104166666657,
      "v": 74
    },
    {
      "midi": 64,
      "hit": false,
      "t": 44454.58250000016,
      "d": 250.0002083333311,
      "v": 73
    },
    {
      "midi": 45,
      "hit": false,
      "t": 44454.58250000016,
      "d": 1215.91010416668,
      "v": 44
    },
    {
      "midi": 64,
      "hit": false,
      "t": 44465.946145833164,
      "d": 102.27281249999942,
      "v": 76
    },
    {
      "midi": 76,
      "hit": false,
      "t": 44465.946145833164,
      "d": 102.27281249999942,
      "v": 76
    },
    {
      "midi": 35,
      "hit": false,
      "t": 44590.94625000006,
      "d": 102.27281249999942,
      "v": 93
    },
    {
      "midi": 61,
      "hit": false,
      "t": 44590.94625000014,
      "d": 113.6364583333343,
      "v": 30
    },
    {
      "midi": 69,
      "hit": false,
      "t": 44590.94625000014,
      "d": 113.6364583333343,
      "v": 30
    },
    {
      "midi": 61,
      "hit": false,
      "t": 44590.946250000154,
      "d": 113.6364583333343,
      "v": 44
    },
    {
      "midi": 69,
      "hit": false,
      "t": 44590.946250000154,
      "d": 113.6364583333343,
      "v": 44
    },
    {
      "midi": 64,
      "hit": false,
      "t": 44602.30989583316,
      "d": 102.27281249999942,
      "v": 41
    },
    {
      "midi": 76,
      "hit": false,
      "t": 44602.30989583316,
      "d": 102.27281249999942,
      "v": 41
    },
    {
      "midi": 40,
      "hit": false,
      "t": 44727.310000000056,
      "d": 170.45468750000146,
      "v": 93
    },
    {
      "midi": 61,
      "hit": false,
      "t": 44727.31000000014,
      "d": 113.6364583333343,
      "v": 30
    },
    {
      "midi": 64,
      "hit": false,
      "t": 44727.31000000014,
      "d": 113.6364583333343,
      "v": 30
    },
    {
      "midi": 69,
      "hit": false,
      "t": 44727.31000000014,
      "d": 113.6364583333343,
      "v": 30
    },
    {
      "midi": 61,
      "hit": false,
      "t": 44727.31000000016,
      "d": 113.6364583333343,
      "v": 44
    },
    {
      "midi": 64,
      "hit": false,
      "t": 44727.31000000016,
      "d": 113.6364583333343,
      "v": 44
    },
    {
      "midi": 69,
      "hit": false,
      "t": 44727.31000000016,
      "d": 113.6364583333343,
      "v": 44
    },
    {
      "midi": 64,
      "hit": false,
      "t": 44738.67364583316,
      "d": 102.27281249999942,
      "v": 41
    },
    {
      "midi": 76,
      "hit": false,
      "t": 44738.67364583316,
      "d": 102.27281249999942,
      "v": 41
    },
    {
      "midi": 64,
      "hit": false,
      "t": 44863.67375000015,
      "d": 113.6364583333343,
      "v": 76
    },
    {
      "midi": 69,
      "hit": false,
      "t": 44863.67375000015,
      "d": 113.6364583333343,
      "v": 76
    },
    {
      "midi": 61,
      "hit": false,
      "t": 44863.67375000015,
      "d": 238.6365625000035,
      "v": 76
    },
    {
      "midi": 64,
      "hit": false,
      "t": 44863.67375000016,
      "d": 113.6364583333343,
      "v": 74
    },
    {
      "midi": 69,
      "hit": false,
      "t": 44863.67375000016,
      "d": 113.6364583333343,
      "v": 74
    },
    {
      "midi": 61,
      "hit": false,
      "t": 44863.67375000016,
      "d": 238.6365625000035,
      "v": 74
    },
    {
      "midi": 64,
      "hit": false,
      "t": 44875.037395833155,
      "d": 102.27281249999942,
      "v": 41
    },
    {
      "midi": 76,
      "hit": false,
      "t": 44875.037395833155,
      "d": 102.27281249999942,
      "v": 41
    },
    {
      "midi": 40,
      "hit": false,
      "t": 45000.03750000006,
      "d": 284.09114583333576,
      "v": 93
    },
    {
      "midi": 64,
      "hit": false,
      "t": 45000.03750000015,
      "d": 102.27281249999942,
      "v": 46
    },
    {
      "midi": 69,
      "hit": false,
      "t": 45000.03750000015,
      "d": 102.27281249999942,
      "v": 46
    },
    {
      "midi": 64,
      "hit": false,
      "t": 45000.037500000166,
      "d": 102.27281249999942,
      "v": 52
    },
    {
      "midi": 69,
      "hit": false,
      "t": 45000.037500000166,
      "d": 102.27281249999942,
      "v": 52
    },
    {
      "midi": 64,
      "hit": false,
      "t": 45011.40114583315,
      "d": 102.27281249999942,
      "v": 41
    },
    {
      "midi": 76,
      "hit": false,
      "t": 45011.40114583315,
      "d": 102.27281249999942,
      "v": 41
    },
    {
      "midi": 61,
      "hit": false,
      "t": 45136.401250000155,
      "d": 113.6364583333343,
      "v": 46
    },
    {
      "midi": 64,
      "hit": false,
      "t": 45136.401250000155,
      "d": 113.6364583333343,
      "v": 46
    },
    {
      "midi": 69,
      "hit": false,
      "t": 45136.401250000155,
      "d": 113.6364583333343,
      "v": 46
    },
    {
      "midi": 61,
      "hit": false,
      "t": 45136.40125000016,
      "d": 113.6364583333343,
      "v": 52
    },
    {
      "midi": 64,
      "hit": false,
      "t": 45136.40125000016,
      "d": 113.6364583333343,
      "v": 52
    },
    {
      "midi": 69,
      "hit": false,
      "t": 45136.40125000016,
      "d": 113.6364583333343,
      "v": 52
    },
    {
      "midi": 64,
      "hit": false,
      "t": 45147.76489583315,
      "d": 102.27281249999942,
      "v": 41
    },
    {
      "midi": 76,
      "hit": false,
      "t": 45147.76489583315,
      "d": 102.27281249999942,
      "v": 41
    },
    {
      "midi": 35,
      "hit": false,
      "t": 45272.76500000006,
      "d": 227.2729166666686,
      "v": 93
    },
    {
      "midi": 61,
      "hit": false,
      "t": 45272.76500000016,
      "d": 136.3637499999968,
      "v": 76
    },
    {
      "midi": 69,
      "hit": false,
      "t": 45272.76500000016,
      "d": 136.3637499999968,
      "v": 76
    },
    {
      "midi": 64,
      "hit": false,
      "t": 45272.76500000016,
      "d": 181.81833333332906,
      "v": 76
    },
    {
      "midi": 45,
      "hit": false,
      "t": 45272.76500000016,
      "d": 397.72760416667006,
      "v": 76
    },
    {
      "midi": 61,
      "hit": false,
      "t": 45272.76500000017,
      "d": 136.3637499999968,
      "v": 74
    },
    {
      "midi": 69,
      "hit": false,
      "t": 45272.76500000017,
      "d": 136.3637499999968,
      "v": 74
    },
    {
      "midi": 64,
      "hit": false,
      "t": 45272.76500000017,
      "d": 181.81833333332906,
      "v": 74
    },
    {
      "midi": 64,
      "hit": false,
      "t": 45284.128645833145,
      "d": 102.27281249999942,
      "v": 74
    },
    {
      "midi": 76,
      "hit": false,
      "t": 45284.128645833145,
      "d": 102.27281249999942,
      "v": 74
    },
    {
      "midi": 59,
      "hit": false,
      "t": 45409.128750000156,
      "d": 113.6364583333343,
      "v": 67
    },
    {
      "midi": 68,
      "hit": false,
      "t": 45409.128750000156,
      "d": 113.6364583333343,
      "v": 67
    },
    {
      "midi": 59,
      "hit": false,
      "t": 45409.12875000016,
      "d": 113.6364583333343,
      "v": 73
    },
    {
      "midi": 68,
      "hit": false,
      "t": 45409.12875000016,
      "d": 113.6364583333343,
      "v": 73
    },
    {
      "midi": 64,
      "hit": false,
      "t": 45420.49239583314,
      "d": 102.27281249999942,
      "v": 47
    },
    {
      "midi": 76,
      "hit": false,
      "t": 45420.49239583314,
      "d": 102.27281249999942,
      "v": 47
    },
    {
      "midi": 35,
      "hit": false,
      "t": 45545.49250000006,
      "d": 45.454583333332266,
      "v": 93
    },
    {
      "midi": 59,
      "hit": false,
      "t": 45545.49250000016,
      "d": 22.72729166666977,
      "v": 67
    },
    {
      "midi": 64,
      "hit": false,
      "t": 45545.49250000016,
      "d": 22.72729166666977,
      "v": 67
    },
    {
      "midi": 59,
      "hit": false,
      "t": 45545.49250000017,
      "d": 22.72729166666977,
      "v": 73
    },
    {
      "midi": 64,
      "hit": false,
      "t": 45545.49250000017,
      "d": 22.72729166666977,
      "v": 73
    },
    {
      "midi": 64,
      "hit": false,
      "t": 45556.85614583314,
      "d": 102.27281249999942,
      "v": 47
    },
    {
      "midi": 76,
      "hit": false,
      "t": 45556.85614583314,
      "d": 102.27281249999942,
      "v": 47
    },
    {
      "midi": 35,
      "hit": false,
      "t": 45681.856250000055,
      "d": 79.54552083333692,
      "v": 93
    },
    {
      "midi": 59,
      "hit": false,
      "t": 45681.856250000164,
      "d": 22.72729166666977,
      "v": 46
    },
    {
      "midi": 64,
      "hit": false,
      "t": 45681.856250000164,
      "d": 22.72729166666977,
      "v": 46
    },
    {
      "midi": 59,
      "hit": false,
      "t": 45681.85625000017,
      "d": 22.72729166666977,
      "v": 52
    },
    {
      "midi": 64,
      "hit": false,
      "t": 45681.85625000017,
      "d": 22.72729166666977,
      "v": 52
    },
    {
      "midi": 64,
      "hit": false,
      "t": 45693.219895833136,
      "d": 102.27281249999942,
      "v": 47
    },
    {
      "midi": 76,
      "hit": false,
      "t": 45693.219895833136,
      "d": 102.27281249999942,
      "v": 47
    },
    {
      "midi": 40,
      "hit": false,
      "t": 45818.22000000006,
      "d": 556.8186458333366,
      "v": 93
    },
    {
      "midi": 54,
      "hit": false,
      "t": 45818.22000000017,
      "d": 90.90916666667181,
      "v": 63
    },
    {
      "midi": 59,
      "hit": false,
      "t": 45818.22000000017,
      "d": 136.36375000000407,
      "v": 67
    },
    {
      "midi": 64,
      "hit": false,
      "t": 45818.22000000017,
      "d": 136.36375000000407,
      "v": 67
    },
    {
      "midi": 40,
      "hit": false,
      "t": 45818.22000000017,
      "d": 670.4551041666855,
      "v": 76
    },
    {
      "midi": 54,
      "hit": false,
      "t": 45818.220000000176,
      "d": 90.90916666667181,
      "v": 74
    },
    {
      "midi": 59,
      "hit": false,
      "t": 45818.220000000176,
      "d": 136.36375000000407,
      "v": 73
    },
    {
      "midi": 64,
      "hit": false,
      "t": 45818.220000000176,
      "d": 136.36375000000407,
      "v": 73
    },
    {
      "midi": 40,
      "hit": false,
      "t": 45818.220000000176,
      "d": 670.4551041666855,
      "v": 44
    },
    {
      "midi": 64,
      "hit": false,
      "t": 45829.58364583313,
      "d": 102.27281249999942,
      "v": 76
    },
    {
      "midi": 76,
      "hit": false,
      "t": 45829.58364583313,
      "d": 102.27281249999942,
      "v": 76
    },
    {
      "midi": 68,
      "hit": false,
      "t": 45829.5836458335,
      "d": 261.36385416667326,
      "v": 30
    },
    {
      "midi": 68,
      "hit": false,
      "t": 45829.58364583351,
      "d": 261.36385416667326,
      "v": 44
    },
    {
      "midi": 59,
      "hit": false,
      "t": 45954.58375000017,
      "d": 22.72729166666977,
      "v": 64
    },
    {
      "midi": 64,
      "hit": false,
      "t": 45954.58375000017,
      "d": 22.72729166666977,
      "v": 46
    },
    {
      "midi": 56,
      "hit": false,
      "t": 45954.58375000017,
      "d": 386.36395833334245,
      "v": 30
    },
    {
      "midi": 59,
      "hit": false,
      "t": 45954.58375000018,
      "d": 22.72729166666977,
      "v": 70
    },
    {
      "midi": 64,
      "hit": false,
      "t": 45954.58375000018,
      "d": 22.72729166666977,
      "v": 52
    },
    {
      "midi": 56,
      "hit": false,
      "t": 45954.58375000018,
      "d": 386.36395833334245,
      "v": 44
    },
    {
      "midi": 64,
      "hit": false,
      "t": 45965.94739583313,
      "d": 102.27281249999942,
      "v": 41
    },
    {
      "midi": 76,
      "hit": false,
      "t": 45965.94739583313,
      "d": 102.27281249999942,
      "v": 41
    },
    {
      "midi": 59,
      "hit": false,
      "t": 46090.94750000018,
      "d": 22.72729166666977,
      "v": 46
    },
    {
      "midi": 64,
      "hit": false,
      "t": 46090.94750000018,
      "d": 22.72729166666977,
      "v": 46
    },
    {
      "midi": 59,
      "hit": false,
      "t": 46090.947500000184,
      "d": 22.72729166666977,
      "v": 52
    },
    {
      "midi": 64,
      "hit": false,
      "t": 46090.947500000184,
      "d": 22.72729166666977,
      "v": 52
    },
    {
      "midi": 64,
      "hit": false,
      "t": 46102.311145833126,
      "d": 102.27281249999942,
      "v": 41
    },
    {
      "midi": 76,
      "hit": false,
      "t": 46102.311145833126,
      "d": 102.27281249999942,
      "v": 41
    },
    {
      "midi": 59,
      "hit": false,
      "t": 46227.31125000018,
      "d": 90.90916666666453,
      "v": 47
    },
    {
      "midi": 64,
      "hit": false,
      "t": 46227.31125000018,
      "d": 90.90916666666453,
      "v": 67
    },
    {
      "midi": 68,
      "hit": false,
      "t": 46227.31125000018,
      "d": 113.6364583333343,
      "v": 30
    },
    {
      "midi": 59,
      "hit": false,
      "t": 46227.31125000019,
      "d": 90.90916666666453,
      "v": 53
    },
    {
      "midi": 64,
      "hit": false,
      "t": 46227.31125000019,
      "d": 90.90916666666453,
      "v": 73
    },
    {
      "midi": 68,
      "hit": false,
      "t": 46227.31125000019,
      "d": 113.6364583333343,
      "v": 44
    },
    {
      "midi": 64,
      "hit": false,
      "t": 46238.67489583312,
      "d": 102.27281249999942,
      "v": 41
    },
    {
      "midi": 76,
      "hit": false,
      "t": 46238.67489583312,
      "d": 102.27281249999942,
      "v": 41
    },
    {
      "midi": 35,
      "hit": false,
      "t": 46363.67500000006,
      "d": 318.18208333333314,
      "v": 93
    },
    {
      "midi": 59,
      "hit": false,
      "t": 46363.675000000185,
      "d": 102.27281249999942,
      "v": 72
    },
    {
      "midi": 64,
      "hit": false,
      "t": 46363.675000000185,
      "d": 102.27281249999942,
      "v": 72
    },
    {
      "midi": 59,
      "hit": false,
      "t": 46363.67500000019,
      "d": 102.27281249999942,
      "v": 74
    },
    {
      "midi": 64,
      "hit": false,
      "t": 46363.67500000019,
      "d": 102.27281249999942,
      "v": 74
    },
    {
      "midi": 64,
      "hit": false,
      "t": 46375.03864583312,
      "d": 102.27281249999942,
      "v": 41
    },
    {
      "midi": 76,
      "hit": false,
      "t": 46375.03864583312,
      "d": 102.27281249999942,
      "v": 41
    },
    {
      "midi": 68,
      "hit": false,
      "t": 46375.03864583352,
      "d": 113.6364583333343,
      "v": 30
    },
    {
      "midi": 68,
      "hit": false,
      "t": 46375.03864583353,
      "d": 113.6364583333343,
      "v": 44
    },
    {
      "midi": 59,
      "hit": false,
      "t": 46500.03875000019,
      "d": 11.363645833334886,
      "v": 30
    },
    {
      "midi": 64,
      "hit": false,
      "t": 46500.03875000019,
      "d": 11.363645833334886,
      "v": 30
    },
    {
      "midi": 68,
      "hit": false,
      "t": 46500.03875000019,
      "d": 34.09093750000466,
      "v": 30
    },
    {
      "midi": 59,
      "hit": false,
      "t": 46500.038750000196,
      "d": 11.363645833334886,
      "v": 44
    },
    {
      "midi": 64,
      "hit": false,
      "t": 46500.038750000196,
      "d": 11.363645833334886,
      "v": 44
    },
    {
      "midi": 68,
      "hit": false,
      "t": 46500.038750000196,
      "d": 34.09093750000466,
      "v": 44
    },
    {
      "midi": 64,
      "hit": false,
      "t": 46511.402395833116,
      "d": 102.27281249999942,
      "v": 41
    },
    {
      "midi": 76,
      "hit": false,
      "t": 46511.402395833116,
      "d": 102.27281249999942,
      "v": 41
    },
    {
      "midi": 68,
      "hit": false,
      "t": 46636.40250000019,
      "d": 261.363854166666,
      "v": 64
    },
    {
      "midi": 59,
      "hit": false,
      "t": 46636.40250000019,
      "d": 397.7276041666628,
      "v": 64
    },
    {
      "midi": 64,
      "hit": false,
      "t": 46636.40250000019,
      "d": 397.7276041666628,
      "v": 64
    },
    {
      "midi": 56,
      "hit": false,
      "t": 46636.40250000019,
      "d": 534.0913541666669,
      "v": 64
    },
    {
      "midi": 40,
      "hit": false,
      "t": 46636.40250000019,
      "d": 795.4552083333401,
      "v": 76
    },
    {
      "midi": 68,
      "hit": false,
      "t": 46636.4025000002,
      "d": 261.363854166666,
      "v": 70
    },
    {
      "midi": 59,
      "hit": false,
      "t": 46636.4025000002,
      "d": 397.7276041666628,
      "v": 70
    },
    {
      "midi": 64,
      "hit": false,
      "t": 46636.4025000002,
      "d": 397.7276041666628,
      "v": 70
    },
    {
      "midi": 56,
      "hit": false,
      "t": 46636.4025000002,
      "d": 534.0913541666669,
      "v": 70
    },
    {
      "midi": 40,
      "hit": false,
      "t": 46636.4025000002,
      "d": 1079.5463541666832,
      "v": 44
    },
    {
      "midi": 64,
      "hit": false,
      "t": 46647.76614583311,
      "d": 102.27281249999942,
      "v": 76
    },
    {
      "midi": 76,
      "hit": false,
      "t": 46647.76614583311,
      "d": 102.27281249999942,
      "v": 76
    },
    {
      "midi": 35,
      "hit": false,
      "t": 46772.76625000006,
      "d": 113.6364583333343,
      "v": 93
    },
    {
      "midi": 64,
      "hit": false,
      "t": 46784.12989583311,
      "d": 102.27281249999942,
      "v": 41
    },
    {
      "midi": 76,
      "hit": false,
      "t": 46784.12989583311,
      "d": 102.27281249999942,
      "v": 41
    },
    {
      "midi": 40,
      "hit": false,
      "t": 46909.13000000006,
      "d": 204.54562499999884,
      "v": 93
    },
    {
      "midi": 64,
      "hit": false,
      "t": 46920.49364583311,
      "d": 102.27281249999942,
      "v": 41
    },
    {
      "midi": 76,
      "hit": false,
      "t": 46920.49364583311,
      "d": 102.27281249999942,
      "v": 41
    },
    {
      "midi": 59,
      "hit": false,
      "t": 47045.49375000019,
      "d": 125.00010416666919,
      "v": 30
    },
    {
      "midi": 64,
      "hit": false,
      "t": 47045.49375000019,
      "d": 125.00010416666919,
      "v": 30
    },
    {
      "midi": 68,
      "hit": false,
      "t": 47045.49375000019,
      "d": 125.00010416666919,
      "v": 30
    },
    {
      "midi": 59,
      "hit": false,
      "t": 47045.4937500002,
      "d": 125.00010416666919,
      "v": 44
    },
    {
      "midi": 64,
      "hit": false,
      "t": 47045.4937500002,
      "d": 125.00010416666919,
      "v": 44
    },
    {
      "midi": 68,
      "hit": false,
      "t": 47045.4937500002,
      "d": 125.00010416666919,
      "v": 44
    },
    {
      "midi": 64,
      "hit": false,
      "t": 47056.8573958331,
      "d": 102.27281249999942,
      "v": 41
    },
    {
      "midi": 76,
      "hit": false,
      "t": 47056.8573958331,
      "d": 102.27281249999942,
      "v": 41
    },
    {
      "midi": 40,
      "hit": false,
      "t": 47181.857500000064,
      "d": 227.2729166666686,
      "v": 93
    },
    {
      "midi": 59,
      "hit": false,
      "t": 47181.857500000195,
      "d": 113.6364583333343,
      "v": 30
    },
    {
      "midi": 64,
      "hit": false,
      "t": 47181.857500000195,
      "d": 113.6364583333343,
      "v": 30
    },
    {
      "midi": 68,
      "hit": false,
      "t": 47181.857500000195,
      "d": 113.6364583333343,
      "v": 30
    },
    {
      "midi": 59,
      "hit": false,
      "t": 47181.8575000002,
      "d": 113.6364583333343,
      "v": 44
    },
    {
      "midi": 64,
      "hit": false,
      "t": 47181.8575000002,
      "d": 113.6364583333343,
      "v": 44
    },
    {
      "midi": 68,
      "hit": false,
      "t": 47181.8575000002,
      "d": 113.6364583333343,
      "v": 44
    },
    {
      "midi": 64,
      "hit": false,
      "t": 47193.2211458331,
      "d": 102.27281249999942,
      "v": 41
    },
    {
      "midi": 76,
      "hit": false,
      "t": 47193.2211458331,
      "d": 102.27281249999942,
      "v": 41
    },
    {
      "midi": 59,
      "hit": false,
      "t": 47318.2212500002,
      "d": 113.6364583333343,
      "v": 59
    },
    {
      "midi": 64,
      "hit": false,
      "t": 47318.2212500002,
      "d": 113.6364583333343,
      "v": 59
    },
    {
      "midi": 68,
      "hit": false,
      "t": 47318.2212500002,
      "d": 113.6364583333343,
      "v": 59
    },
    {
      "midi": 59,
      "hit": false,
      "t": 47318.221250000206,
      "d": 113.6364583333343,
      "v": 65
    },
    {
      "midi": 64,
      "hit": false,
      "t": 47318.221250000206,
      "d": 113.6364583333343,
      "v": 65
    },
    {
      "midi": 68,
      "hit": false,
      "t": 47318.221250000206,
      "d": 113.6364583333343,
      "v": 65
    },
    {
      "midi": 64,
      "hit": false,
      "t": 47329.5848958331,
      "d": 102.27281249999942,
      "v": 41
    },
    {
      "midi": 76,
      "hit": false,
      "t": 47329.5848958331,
      "d": 102.27281249999942,
      "v": 41
    },
    {
      "midi": 39,
      "hit": false,
      "t": 47454.585000000065,
      "d": 522.727708333332,
      "v": 93
    },
    {
      "midi": 64,
      "hit": false,
      "t": 47454.5850000002,
      "d": 11.363645833334886,
      "v": 76
    },
    {
      "midi": 59,
      "hit": false,
      "t": 47454.5850000002,
      "d": 34.09093750000466,
      "v": 76
    },
    {
      "midi": 68,
      "hit": false,
      "t": 47454.5850000002,
      "d": 34.09093750000466,
      "v": 76
    },
    {
      "midi": 64,
      "hit": false,
      "t": 47454.58500000021,
      "d": 11.363645833334886,
      "v": 74
    },
    {
      "midi": 59,
      "hit": false,
      "t": 47454.58500000021,
      "d": 34.09093750000466,
      "v": 74
    },
    {
      "midi": 68,
      "hit": false,
      "t": 47454.58500000021,
      "d": 34.09093750000466,
      "v": 74
    },
    {
      "midi": 64,
      "hit": false,
      "t": 47465.948645833094,
      "d": 102.27281249999942,
      "v": 74
    },
    {
      "midi": 76,
      "hit": false,
      "t": 47465.948645833094,
      "d": 102.27281249999942,
      "v": 74
    },
    {
      "midi": 64,
      "hit": false,
      "t": 47465.94864583354,
      "d": 11.363645833334886,
      "v": 55
    },
    {
      "midi": 64,
      "hit": false,
      "t": 47465.948645833545,
      "d": 11.363645833334886,
      "v": 61
    },
    {
      "midi": 59,
      "hit": false,
      "t": 47590.94875000021,
      "d": 45.454583333332266,
      "v": 30
    },
    {
      "midi": 56,
      "hit": false,
      "t": 47590.94875000021,
      "d": 68.18187500000204,
      "v": 30
    },
    {
      "midi": 59,
      "hit": false,
      "t": 47590.948750000214,
      "d": 45.454583333332266,
      "v": 44
    },
    {
      "midi": 56,
      "hit": false,
      "t": 47590.948750000214,
      "d": 68.18187500000204,
      "v": 44
    },
    {
      "midi": 64,
      "hit": false,
      "t": 47602.31239583309,
      "d": 102.27281249999942,
      "v": 47
    },
    {
      "midi": 76,
      "hit": false,
      "t": 47602.31239583309,
      "d": 102.27281249999942,
      "v": 47
    },
    {
      "midi": 59,
      "hit": false,
      "t": 47727.31250000021,
      "d": 90.90916666666453,
      "v": 53
    },
    {
      "midi": 64,
      "hit": false,
      "t": 47727.31250000021,
      "d": 90.90916666666453,
      "v": 53
    },
    {
      "midi": 56,
      "hit": false,
      "t": 47727.31250000021,
      "d": 136.3637499999968,
      "v": 53
    },
    {
      "midi": 59,
      "hit": false,
      "t": 47727.31250000022,
      "d": 90.90916666666453,
      "v": 59
    },
    {
      "midi": 64,
      "hit": false,
      "t": 47727.31250000022,
      "d": 90.90916666666453,
      "v": 59
    },
    {
      "midi": 56,
      "hit": false,
      "t": 47727.31250000022,
      "d": 136.3637499999968,
      "v": 59
    },
    {
      "midi": 64,
      "hit": false,
      "t": 47738.67614583309,
      "d": 102.27281249999942,
      "v": 47
    },
    {
      "midi": 76,
      "hit": false,
      "t": 47738.67614583309,
      "d": 102.27281249999942,
      "v": 47
    },
    {
      "midi": 59,
      "hit": false,
      "t": 47863.67625000021,
      "d": 90.90916666666453,
      "v": 30
    },
    {
      "midi": 64,
      "hit": false,
      "t": 47863.67625000021,
      "d": 90.90916666666453,
      "v": 30
    },
    {
      "midi": 56,
      "hit": false,
      "t": 47863.67625000021,
      "d": 136.3637499999968,
      "v": 30
    },
    {
      "midi": 59,
      "hit": false,
      "t": 47863.676250000215,
      "d": 90.90916666666453,
      "v": 44
    },
    {
      "midi": 64,
      "hit": false,
      "t": 47863.676250000215,
      "d": 90.90916666666453,
      "v": 44
    },
    {
      "midi": 56,
      "hit": false,
      "t": 47863.676250000215,
      "d": 136.3637499999968,
      "v": 44
    },
    {
      "midi": 64,
      "hit": false,
      "t": 47875.039895833084,
      "d": 102.27281249999942,
      "v": 47
    },
    {
      "midi": 76,
      "hit": false,
      "t": 47875.039895833084,
      "d": 102.27281249999942,
      "v": 47
    },
    {
      "midi": 37,
      "hit": false,
      "t": 48000.040000000066,
      "d": 406.25033854166395,
      "v": 93
    },
    {
      "midi": 68,
      "hit": false,
      "t": 48000.040000000205,
      "d": 113.6364583333343,
      "v": 68
    },
    {
      "midi": 61,
      "hit": false,
      "t": 48000.040000000205,
      "d": 136.36375000000407,
      "v": 68
    },
    {
      "midi": 64,
      "hit": false,
      "t": 48000.040000000205,
      "d": 136.36375000000407,
      "v": 68
    },
    {
      "midi": 54,
      "hit": false,
      "t": 48000.040000000205,
      "d": 147.72739583333896,
      "v": 55
    },
    {
      "midi": 49,
      "hit": false,
      "t": 48000.040000000205,
      "d": 397.72760416667734,
      "v": 76
    },
    {
      "midi": 68,
      "hit": false,
      "t": 48000.04000000021,
      "d": 113.6364583333343,
      "v": 74
    },
    {
      "midi": 56,
      "hit": false,
      "t": 48000.04000000021,
      "d": 136.36375000000407,
      "v": 44
    },
    {
      "midi": 61,
      "hit": false,
      "t": 48000.04000000021,
      "d": 136.36375000000407,
      "v": 74
    },
    {
      "midi": 64,
      "hit": false,
      "t": 48000.04000000021,
      "d": 136.36375000000407,
      "v": 74
    },
    {
      "midi": 54,
      "hit": false,
      "t": 48000.04000000021,
      "d": 147.72739583333896,
      "v": 74
    },
    {
      "midi": 49,
      "hit": false,
      "t": 48000.04000000021,
      "d": 670.4551041666855,
      "v": 44
    },
    {
      "midi": 64,
      "hit": false,
      "t": 48011.40364583308,
      "d": 102.27281249999942,
      "v": 76
    },
    {
      "midi": 76,
      "hit": false,
      "t": 48011.40364583308,
      "d": 102.27281249999942,
      "v": 76
    },
    {
      "midi": 61,
      "hit": false,
      "t": 48136.40375000021,
      "d": 11.363645833334886,
      "v": 68
    },
    {
      "midi": 64,
      "hit": false,
      "t": 48136.40375000021,
      "d": 11.363645833334886,
      "v": 68
    },
    {
      "midi": 56,
      "hit": false,
      "t": 48136.40375000021,
      "d": 613.6368750000183,
      "v": 49
    },
    {
      "midi": 61,
      "hit": false,
      "t": 48136.403750000216,
      "d": 11.363645833334886,
      "v": 74
    },
    {
      "midi": 64,
      "hit": false,
      "t": 48136.403750000216,
      "d": 11.363645833334886,
      "v": 74
    },
    {
      "midi": 56,
      "hit": false,
      "t": 48136.403750000216,
      "d": 136.36375000000407,
      "v": 55
    },
    {
      "midi": 64,
      "hit": false,
      "t": 48147.76739583308,
      "d": 102.27281249999942,
      "v": 41
    },
    {
      "midi": 76,
      "hit": false,
      "t": 48147.76739583308,
      "d": 102.27281249999942,
      "v": 41
    },
    {
      "midi": 61,
      "hit": false,
      "t": 48272.76750000021,
      "d": 22.72729166666977,
      "v": 68
    },
    {
      "midi": 64,
      "hit": false,
      "t": 48272.76750000021,
      "d": 22.72729166666977,
      "v": 68
    },
    {
      "midi": 61,
      "hit": false,
      "t": 48272.76750000022,
      "d": 22.72729166666977,
      "v": 74
    },
    {
      "midi": 64,
      "hit": false,
      "t": 48272.76750000022,
      "d": 22.72729166666977,
      "v": 74
    },
    {
      "midi": 64,
      "hit": false,
      "t": 48284.131145833075,
      "d": 102.27281249999942,
      "v": 41
    },
    {
      "midi": 76,
      "hit": false,
      "t": 48284.131145833075,
      "d": 102.27281249999942,
      "v": 41
    },
    {
      "midi": 37,
      "hit": false,
      "t": 48409.131250000064,
      "d": 125.00010416666919,
      "v": 93
    },
    {
      "midi": 68,
      "hit": false,
      "t": 48409.13125000022,
      "d": 68.18187500000204,
      "v": 68
    },
    {
      "midi": 61,
      "hit": false,
      "t": 48409.13125000022,
      "d": 90.90916666667181,
      "v": 68
    },
    {
      "midi": 64,
      "hit": false,
      "t": 48409.13125000022,
      "d": 90.90916666667181,
      "v": 68
    },
    {
      "midi": 68,
      "hit": false,
      "t": 48409.131250000224,
      "d": 68.18187500000204,
      "v": 74
    },
    {
      "midi": 61,
      "hit": false,
      "t": 48409.131250000224,
      "d": 90.90916666667181,
      "v": 74
    },
    {
      "midi": 64,
      "hit": false,
      "t": 48409.131250000224,
      "d": 90.90916666667181,
      "v": 74
    },
    {
      "midi": 64,
      "hit": false,
      "t": 48420.49489583307,
      "d": 102.27281249999942,
      "v": 41
    },
    {
      "midi": 76,
      "hit": false,
      "t": 48420.49489583307,
      "d": 102.27281249999942,
      "v": 41
    },
    {
      "midi": 39,
      "hit": false,
      "t": 48545.49500000007,
      "d": 397.72760416667006,
      "v": 93
    },
    {
      "midi": 61,
      "hit": false,
      "t": 48545.49500000022,
      "d": 22.72729166666977,
      "v": 68
    },
    {
      "midi": 64,
      "hit": false,
      "t": 48545.49500000022,
      "d": 22.72729166666977,
      "v": 68
    },
    {
      "midi": 61,
      "hit": false,
      "t": 48545.49500000023,
      "d": 22.72729166666977,
      "v": 74
    },
    {
      "midi": 64,
      "hit": false,
      "t": 48545.49500000023,
      "d": 22.72729166666977,
      "v": 74
    },
    {
      "midi": 64,
      "hit": false,
      "t": 48556.85864583307,
      "d": 102.27281249999942,
      "v": 41
    },
    {
      "midi": 76,
      "hit": false,
      "t": 48556.85864583307,
      "d": 102.27281249999942,
      "v": 41
    },
    {
      "midi": 61,
      "hit": false,
      "t": 48681.858750000225,
      "d": 22.72729166666977,
      "v": 68
    },
    {
      "midi": 64,
      "hit": false,
      "t": 48681.858750000225,
      "d": 22.72729166666977,
      "v": 68
    },
    {
      "midi": 61,
      "hit": false,
      "t": 48681.85875000023,
      "d": 22.72729166666977,
      "v": 74
    },
    {
      "midi": 64,
      "hit": false,
      "t": 48681.85875000023,
      "d": 22.72729166666977,
      "v": 74
    },
    {
      "midi": 64,
      "hit": false,
      "t": 48693.222395833065,
      "d": 102.27281249999942,
      "v": 41
    },
    {
      "midi": 76,
      "hit": false,
      "t": 48693.222395833065,
      "d": 102.27281249999942,
      "v": 41
    },
    {
      "midi": 68,
      "hit": false,
      "t": 48818.22250000023,
      "d": 68.18187500000204,
      "v": 68
    },
    {
      "midi": 61,
      "hit": false,
      "t": 48818.22250000023,
      "d": 250.00020833333838,
      "v": 68
    },
    {
      "midi": 64,
      "hit": false,
      "t": 48818.22250000023,
      "d": 250.00020833333838,
      "v": 68
    },
    {
      "midi": 49,
      "hit": false,
      "t": 48818.22250000023,
      "d": 522.7277083333465,
      "v": 76
    },
    {
      "midi": 56,
      "hit": false,
      "t": 48818.22250000023,
      "d": 954.5462500000285,
      "v": 55
    },
    {
      "midi": 68,
      "hit": false,
      "t": 48818.222500000236,
      "d": 68.18187500000204,
      "v": 74
    },
    {
      "midi": 61,
      "hit": false,
      "t": 48818.222500000236,
      "d": 250.00020833333838,
      "v": 74
    },
    {
      "midi": 64,
      "hit": false,
      "t": 48818.222500000236,
      "d": 250.00020833333838,
      "v": 74
    },
    {
      "midi": 49,
      "hit": false,
      "t": 48818.222500000236,
      "d": 386.36395833334245,
      "v": 44
    },
    {
      "midi": 56,
      "hit": false,
      "t": 48818.222500000236,
      "d": 795.4552083333547,
      "v": 61
    },
    {
      "midi": 64,
      "hit": false,
      "t": 48829.58614583306,
      "d": 102.27281249999942,
      "v": 76
    },
    {
      "midi": 76,
      "hit": false,
      "t": 48829.58614583306,
      "d": 102.27281249999942,
      "v": 76
    },
    {
      "midi": 39,
      "hit": false,
      "t": 48954.58625000007,
      "d": 125.00010416666919,
      "v": 93
    },
    {
      "midi": 64,
      "hit": false,
      "t": 48965.94989583306,
      "d": 102.27281249999942,
      "v": 41
    },
    {
      "midi": 76,
      "hit": false,
      "t": 48965.94989583306,
      "d": 102.27281249999942,
      "v": 41
    },
    {
      "midi": 40,
      "hit": false,
      "t": 49090.95000000008,
      "d": 397.72760416667006,
      "v": 93
    },
    {
      "midi": 61,
      "hit": false,
      "t": 49090.95000000024,
      "d": 113.6364583333343,
      "v": 30
    },
    {
      "midi": 64,
      "hit": false,
      "t": 49090.95000000024,
      "d": 113.6364583333343,
      "v": 30
    },
    {
      "midi": 61,
      "hit": false,
      "t": 49090.950000000244,
      "d": 113.6364583333343,
      "v": 44
    },
    {
      "midi": 64,
      "hit": false,
      "t": 49090.950000000244,
      "d": 113.6364583333343,
      "v": 44
    },
    {
      "midi": 64,
      "hit": false,
      "t": 49102.313645833055,
      "d": 102.27281249999942,
      "v": 41
    },
    {
      "midi": 76,
      "hit": false,
      "t": 49102.313645833055,
      "d": 102.27281249999942,
      "v": 41
    },
    {
      "midi": 68,
      "hit": false,
      "t": 49227.31375000024,
      "d": 90.90916666666453,
      "v": 47
    },
    {
      "midi": 64,
      "hit": false,
      "t": 49227.31375000024,
      "d": 113.6364583333343,
      "v": 47
    },
    {
      "midi": 73,
      "hit": false,
      "t": 49227.31375000024,
      "d": 113.6364583333343,
      "v": 47
    },
    {
      "midi": 68,
      "hit": false,
      "t": 49227.31375000025,
      "d": 90.90916666666453,
      "v": 53
    },
    {
      "midi": 64,
      "hit": false,
      "t": 49227.31375000025,
      "d": 113.6364583333343,
      "v": 53
    },
    {
      "midi": 73,
      "hit": false,
      "t": 49227.31375000025,
      "d": 113.6364583333343,
      "v": 53
    },
    {
      "midi": 49,
      "hit": false,
      "t": 49227.31375000025,
      "d": 386.36395833334245,
      "v": 44
    },
    {
      "midi": 64,
      "hit": false,
      "t": 49238.67739583305,
      "d": 102.27281249999942,
      "v": 41
    },
    {
      "midi": 76,
      "hit": false,
      "t": 49238.67739583305,
      "d": 102.27281249999942,
      "v": 41
    },
    {
      "midi": 64,
      "hit": false,
      "t": 49363.677500000245,
      "d": 113.6364583333343,
      "v": 68
    },
    {
      "midi": 68,
      "hit": false,
      "t": 49363.677500000245,
      "d": 113.6364583333343,
      "v": 68
    },
    {
      "midi": 73,
      "hit": false,
      "t": 49363.677500000245,
      "d": 113.6364583333343,
      "v": 68
    },
    {
      "midi": 64,
      "hit": false,
      "t": 49363.67750000025,
      "d": 113.6364583333343,
      "v": 74
    },
    {
      "midi": 68,
      "hit": false,
      "t": 49363.67750000025,
      "d": 113.6364583333343,
      "v": 74
    },
    {
      "midi": 73,
      "hit": false,
      "t": 49363.67750000025,
      "d": 113.6364583333343,
      "v": 74
    },
    {
      "midi": 64,
      "hit": false,
      "t": 49375.04114583305,
      "d": 102.27281249999942,
      "v": 41
    },
    {
      "midi": 76,
      "hit": false,
      "t": 49375.04114583305,
      "d": 102.27281249999942,
      "v": 41
    },
    {
      "midi": 40,
      "hit": false,
      "t": 49500.04125000008,
      "d": 125.00010416666919,
      "v": 93
    },
    {
      "midi": 64,
      "hit": false,
      "t": 49500.04125000025,
      "d": 113.6364583333343,
      "v": 43
    },
    {
      "midi": 68,
      "hit": false,
      "t": 49500.04125000025,
      "d": 113.6364583333343,
      "v": 43
    },
    {
      "midi": 73,
      "hit": false,
      "t": 49500.04125000025,
      "d": 136.36375000000407,
      "v": 43
    },
    {
      "midi": 64,
      "hit": false,
      "t": 49500.04125000026,
      "d": 113.6364583333343,
      "v": 49
    },
    {
      "midi": 68,
      "hit": false,
      "t": 49500.04125000026,
      "d": 113.6364583333343,
      "v": 49
    },
    {
      "midi": 73,
      "hit": false,
      "t": 49500.04125000026,
      "d": 136.36375000000407,
      "v": 49
    },
    {
      "midi": 64,
      "hit": false,
      "t": 49511.404895833046,
      "d": 102.27281249999942,
      "v": 41
    },
    {
      "midi": 76,
      "hit": false,
      "t": 49511.404895833046,
      "d": 102.27281249999942,
      "v": 41
    },
    {
      "midi": 42,
      "hit": false,
      "t": 49636.405000000086,
      "d": 261.363854166666,
      "v": 93
    },
    {
      "midi": 49,
      "hit": false,
      "t": 49636.40500000025,
      "d": 113.6364583333343,
      "v": 76
    },
    {
      "midi": 64,
      "hit": false,
      "t": 49636.40500000025,
      "d": 113.6364583333343,
      "v": 76
    },
    {
      "midi": 68,
      "hit": false,
      "t": 49636.40500000025,
      "d": 113.6364583333343,
      "v": 76
    },
    {
      "midi": 73,
      "hit": false,
      "t": 49636.40500000025,
      "d": 136.36375000000407,
      "v": 76
    },
    {
      "midi": 49,
      "hit": false,
      "t": 49636.40500000026,
      "d": 113.6364583333343,
      "v": 44
    },
    {
      "midi": 56,
      "hit": false,
      "t": 49636.40500000026,
      "d": 113.6364583333343,
      "v": 44
    },
    {
      "midi": 64,
      "hit": false,
      "t": 49636.40500000026,
      "d": 113.6364583333343,
      "v": 74
    },
    {
      "midi": 68,
      "hit": false,
      "t": 49636.40500000026,
      "d": 113.6364583333343,
      "v": 74
    },
    {
      "midi": 73,
      "hit": false,
      "t": 49636.40500000026,
      "d": 136.36375000000407,
      "v": 74
    },
    {
      "midi": 64,
      "hit": false,
      "t": 49647.76864583304,
      "d": 102.27281249999942,
      "v": 74
    },
    {
      "midi": 76,
      "hit": false,
      "t": 49647.76864583304,
      "d": 102.27281249999942,
      "v": 74
    },
    {
      "midi": 61,
      "hit": false,
      "t": 49772.76875000026,
      "d": 68.18187500000204,
      "v": 30
    },
    {
      "midi": 64,
      "hit": false,
      "t": 49772.76875000026,
      "d": 68.18187500000204,
      "v": 30
    },
    {
      "midi": 61,
      "hit": false,
      "t": 49772.768750000265,
      "d": 68.18187500000204,
      "v": 44
    },
    {
      "midi": 64,
      "hit": false,
      "t": 49772.768750000265,
      "d": 68.18187500000204,
      "v": 44
    },
    {
      "midi": 64,
      "hit": false,
      "t": 49784.13239583304,
      "d": 102.27281249999942,
      "v": 47
    },
    {
      "midi": 76,
      "hit": false,
      "t": 49784.13239583304,
      "d": 102.27281249999942,
      "v": 47
    },
    {
      "midi": 44,
      "hit": false,
      "t": 49909.13250000009,
      "d": 261.3638541666587,
      "v": 93
    },
    {
      "midi": 61,
      "hit": false,
      "t": 49909.13250000026,
      "d": 113.6364583333343,
      "v": 30
    },
    {
      "midi": 64,
      "hit": false,
      "t": 49909.13250000026,
      "d": 113.6364583333343,
      "v": 30
    },
    {
      "midi": 56,
      "hit": false,
      "t": 49909.13250000026,
      "d": 136.36375000000407,
      "v": 44
    },
    {
      "midi": 61,
      "hit": false,
      "t": 49909.13250000027,
      "d": 113.6364583333343,
      "v": 44
    },
    {
      "midi": 64,
      "hit": false,
      "t": 49909.13250000027,
      "d": 113.6364583333343,
      "v": 44
    },
    {
      "midi": 56,
      "hit": false,
      "t": 49909.13250000027,
      "d": 136.36375000000407,
      "v": 50
    },
    {
      "midi": 64,
      "hit": false,
      "t": 49920.496145833036,
      "d": 102.27281249999942,
      "v": 47
    },
    {
      "midi": 76,
      "hit": false,
      "t": 49920.496145833036,
      "d": 102.27281249999942,
      "v": 47
    },
    {
      "midi": 32,
      "hit": false,
      "t": 50045.496250000084,
      "d": 90.90916666666453,
      "v": 93
    },
    {
      "midi": 56,
      "hit": false,
      "t": 50045.496250000266,
      "d": 22.72729166666977,
      "v": 30
    },
    {
      "midi": 61,
      "hit": false,
      "t": 50045.496250000266,
      "d": 113.6364583333343,
      "v": 30
    },
    {
      "midi": 64,
      "hit": false,
      "t": 50045.496250000266,
      "d": 113.6364583333343,
      "v": 30
    },
    {
      "midi": 56,
      "hit": false,
      "t": 50045.49625000027,
      "d": 22.72729166666977,
      "v": 44
    },
    {
      "midi": 61,
      "hit": false,
      "t": 50045.49625000027,
      "d": 113.6364583333343,
      "v": 44
    },
    {
      "midi": 64,
      "hit": false,
      "t": 50045.49625000027,
      "d": 113.6364583333343,
      "v": 44
    },
    {
      "midi": 64,
      "hit": false,
      "t": 50056.85989583303,
      "d": 102.27281249999942,
      "v": 47
    },
    {
      "midi": 76,
      "hit": false,
      "t": 50056.85989583303,
      "d": 102.27281249999942,
      "v": 47
    },
    {
      "midi": 35,
      "hit": false,
      "t": 50181.86000000008,
      "d": 534.0913541666669,
      "v": 93
    },
    {
      "midi": 47,
      "hit": false,
      "t": 50181.86000000027,
      "d": 534.0913541666669,
      "v": 76
    },
    {
      "midi": 63,
      "hit": false,
      "t": 50181.86000000027,
      "d": 659.091458333336,
      "v": 68
    },
    {
      "midi": 66,
      "hit": false,
      "t": 50181.86000000027,
      "d": 659.091458333336,
      "v": 68
    },
    {
      "midi": 71,
      "hit": false,
      "t": 50181.86000000027,
      "d": 659.091458333336,
      "v": 68
    },
    {
      "midi": 47,
      "hit": false,
      "t": 50181.86000000028,
      "d": 659.091458333336,
      "v": 44
    },
    {
      "midi": 54,
      "hit": false,
      "t": 50181.86000000028,
      "d": 659.091458333336,
      "v": 44
    },
    {
      "midi": 63,
      "hit": false,
      "t": 50181.86000000028,
      "d": 659.091458333336,
      "v": 74
    },
    {
      "midi": 66,
      "hit": false,
      "t": 50181.86000000028,
      "d": 659.091458333336,
      "v": 74
    },
    {
      "midi": 71,
      "hit": false,
      "t": 50181.86000000028,
      "d": 659.091458333336,
      "v": 74
    },
    {
      "midi": 64,
      "hit": false,
      "t": 50193.22364583303,
      "d": 102.27281249999942,
      "v": 76
    },
    {
      "midi": 76,
      "hit": false,
      "t": 50193.22364583303,
      "d": 102.27281249999942,
      "v": 76
    },
    {
      "midi": 64,
      "hit": false,
      "t": 50329.58739583303,
      "d": 102.27281249999942,
      "v": 41
    },
    {
      "midi": 76,
      "hit": false,
      "t": 50329.58739583303,
      "d": 102.27281249999942,
      "v": 41
    },
    {
      "midi": 64,
      "hit": false,
      "t": 50465.95114583302,
      "d": 102.27281249999942,
      "v": 41
    },
    {
      "midi": 76,
      "hit": false,
      "t": 50465.95114583302,
      "d": 102.27281249999942,
      "v": 41
    },
    {
      "midi": 64,
      "hit": false,
      "t": 50602.31489583302,
      "d": 102.27281249999942,
      "v": 41
    },
    {
      "midi": 76,
      "hit": false,
      "t": 50602.31489583302,
      "d": 102.27281249999942,
      "v": 41
    },
    {
      "midi": 30,
      "hit": false,
      "t": 50727.31500000008,
      "d": 318.18208333333314,
      "v": 93
    },
    {
      "midi": 64,
      "hit": false,
      "t": 50738.67864583302,
      "d": 102.27281249999942,
      "v": 41
    },
    {
      "midi": 76,
      "hit": false,
      "t": 50738.67864583302,
      "d": 102.27281249999942,
      "v": 41
    },
    {
      "midi": 64,
      "hit": false,
      "t": 50875.042395833014,
      "d": 102.27281249999942,
      "v": 41
    },
    {
      "midi": 76,
      "hit": false,
      "t": 50875.042395833014,
      "d": 102.27281249999942,
      "v": 41
    },
    {
      "midi": 63,
      "hit": false,
      "t": 51000.04250000027,
      "d": 386.3639583333352,
      "v": 68
    },
    {
      "midi": 66,
      "hit": false,
      "t": 51000.04250000027,
      "d": 386.3639583333352,
      "v": 68
    },
    {
      "midi": 71,
      "hit": false,
      "t": 51000.04250000027,
      "d": 386.3639583333352,
      "v": 68
    },
    {
      "midi": 47,
      "hit": false,
      "t": 51000.04250000027,
      "d": 943.1826041666791,
      "v": 76
    },
    {
      "midi": 63,
      "hit": false,
      "t": 51000.04250000028,
      "d": 386.3639583333352,
      "v": 74
    },
    {
      "midi": 66,
      "hit": false,
      "t": 51000.04250000028,
      "d": 386.3639583333352,
      "v": 74
    },
    {
      "midi": 71,
      "hit": false,
      "t": 51000.04250000028,
      "d": 386.3639583333352,
      "v": 74
    },
    {
      "midi": 47,
      "hit": false,
      "t": 51000.04250000028,
      "d": 659.091458333336,
      "v": 44
    },
    {
      "midi": 54,
      "hit": false,
      "t": 51000.04250000028,
      "d": 659.091458333336,
      "v": 44
    },
    {
      "midi": 64,
      "hit": false,
      "t": 51011.40614583301,
      "d": 102.27281249999942,
      "v": 76
    },
    {
      "midi": 76,
      "hit": false,
      "t": 51011.40614583301,
      "d": 102.27281249999942,
      "v": 76
    },
    {
      "midi": 30,
      "hit": false,
      "t": 51136.40625000008,
      "d": 102.27281249999942,
      "v": 93
    },
    {
      "midi": 64,
      "hit": false,
      "t": 51147.76989583301,
      "d": 102.27281249999942,
      "v": 41
    },
    {
      "midi": 76,
      "hit": false,
      "t": 51147.76989583301,
      "d": 102.27281249999942,
      "v": 41
    },
    {
      "midi": 35,
      "hit": false,
      "t": 51272.77000000008,
      "d": 113.6364583333343,
      "v": 93
    },
    {
      "midi": 64,
      "hit": false,
      "t": 51284.133645833004,
      "d": 102.27281249999942,
      "v": 41
    },
    {
      "midi": 76,
      "hit": false,
      "t": 51284.133645833004,
      "d": 102.27281249999942,
      "v": 41
    },
    {
      "midi": 63,
      "hit": false,
      "t": 51409.13375000028,
      "d": 250.0002083333311,
      "v": 68
    },
    {
      "midi": 66,
      "hit": false,
      "t": 51409.13375000028,
      "d": 250.0002083333311,
      "v": 68
    },
    {
      "midi": 71,
      "hit": false,
      "t": 51409.13375000028,
      "d": 250.0002083333311,
      "v": 68
    },
    {
      "midi": 63,
      "hit": false,
      "t": 51409.133750000285,
      "d": 250.0002083333311,
      "v": 74
    },
    {
      "midi": 66,
      "hit": false,
      "t": 51409.133750000285,
      "d": 250.0002083333311,
      "v": 74
    },
    {
      "midi": 71,
      "hit": false,
      "t": 51409.133750000285,
      "d": 250.0002083333311,
      "v": 74
    },
    {
      "midi": 64,
      "hit": false,
      "t": 51420.497395833,
      "d": 102.27281249999942,
      "v": 41
    },
    {
      "midi": 76,
      "hit": false,
      "t": 51420.497395833,
      "d": 102.27281249999942,
      "v": 41
    },
    {
      "midi": 35,
      "hit": false,
      "t": 51545.49750000008,
      "d": 284.09114583333576,
      "v": 93
    },
    {
      "midi": 64,
      "hit": false,
      "t": 51556.861145833,
      "d": 102.27281249999942,
      "v": 41
    },
    {
      "midi": 76,
      "hit": false,
      "t": 51556.861145833,
      "d": 102.27281249999942,
      "v": 41
    },
    {
      "midi": 63,
      "hit": false,
      "t": 51681.86125000028,
      "d": 22.72729166666977,
      "v": 68
    },
    {
      "midi": 66,
      "hit": false,
      "t": 51681.86125000028,
      "d": 22.72729166666977,
      "v": 68
    },
    {
      "midi": 71,
      "hit": false,
      "t": 51681.86125000028,
      "d": 22.72729166666977,
      "v": 68
    },
    {
      "midi": 63,
      "hit": false,
      "t": 51681.861250000286,
      "d": 22.72729166666977,
      "v": 74
    },
    {
      "midi": 66,
      "hit": false,
      "t": 51681.861250000286,
      "d": 22.72729166666977,
      "v": 74
    },
    {
      "midi": 71,
      "hit": false,
      "t": 51681.861250000286,
      "d": 22.72729166666977,
      "v": 74
    },
    {
      "midi": 64,
      "hit": false,
      "t": 51693.224895832995,
      "d": 102.27281249999942,
      "v": 41
    },
    {
      "midi": 76,
      "hit": false,
      "t": 51693.224895832995,
      "d": 102.27281249999942,
      "v": 41
    },
    {
      "midi": 30,
      "hit": false,
      "t": 51818.22500000008,
      "d": 204.54562499999884,
      "v": 93
    },
    {
      "midi": 63,
      "hit": false,
      "t": 51818.22500000028,
      "d": 250.00020833333838,
      "v": 68
    },
    {
      "midi": 66,
      "hit": false,
      "t": 51818.22500000028,
      "d": 250.00020833333838,
      "v": 68
    },
    {
      "midi": 71,
      "hit": false,
      "t": 51818.22500000028,
      "d": 250.00020833333838,
      "v": 68
    },
    {
      "midi": 47,
      "hit": false,
      "t": 51818.22500000029,
      "d": 125.00010416666919,
      "v": 44
    },
    {
      "midi": 54,
      "hit": false,
      "t": 51818.22500000029,
      "d": 125.00010416666919,
      "v": 44
    },
    {
      "midi": 63,
      "hit": false,
      "t": 51818.22500000029,
      "d": 250.00020833333838,
      "v": 74
    },
    {
      "midi": 66,
      "hit": false,
      "t": 51818.22500000029,
      "d": 250.00020833333838,
      "v": 74
    },
    {
      "midi": 71,
      "hit": false,
      "t": 51818.22500000029,
      "d": 250.00020833333838,
      "v": 74
    },
    {
      "midi": 64,
      "hit": false,
      "t": 51829.58864583299,
      "d": 102.27281249999942,
      "v": 74
    },
    {
      "midi": 76,
      "hit": false,
      "t": 51829.58864583299,
      "d": 102.27281249999942,
      "v": 74
    },
    {
      "midi": 64,
      "hit": false,
      "t": 51965.95239583299,
      "d": 102.27281249999942,
      "v": 47
    },
    {
      "midi": 76,
      "hit": false,
      "t": 51965.95239583299,
      "d": 102.27281249999942,
      "v": 47
    },
    {
      "midi": 30,
      "hit": false,
      "t": 52090.95250000008,
      "d": 68.18187500000204,
      "v": 93
    },
    {
      "midi": 59,
      "hit": false,
      "t": 52090.95250000029,
      "d": 22.72729166666977,
      "v": 68
    },
    {
      "midi": 63,
      "hit": false,
      "t": 52090.95250000029,
      "d": 22.72729166666977,
      "v": 68
    },
    {
      "midi": 66,
      "hit": false,
      "t": 52090.95250000029,
      "d": 22.72729166666977,
      "v": 68
    },
    {
      "midi": 59,
      "hit": false,
      "t": 52090.9525000003,
      "d": 22.72729166666977,
      "v": 74
    },
    {
      "midi": 63,
      "hit": false,
      "t": 52090.9525000003,
      "d": 22.72729166666977,
      "v": 74
    },
    {
      "midi": 66,
      "hit": false,
      "t": 52090.9525000003,
      "d": 22.72729166666977,
      "v": 74
    },
    {
      "midi": 64,
      "hit": false,
      "t": 52102.316145832985,
      "d": 102.27281249999942,
      "v": 47
    },
    {
      "midi": 76,
      "hit": false,
      "t": 52102.316145832985,
      "d": 102.27281249999942,
      "v": 47
    },
    {
      "midi": 30,
      "hit": false,
      "t": 52227.31625000008,
      "d": 90.90916666666453,
      "v": 93
    },
    {
      "midi": 59,
      "hit": false,
      "t": 52227.316250000295,
      "d": 22.72729166666977,
      "v": 68
    },
    {
      "midi": 63,
      "hit": false,
      "t": 52227.316250000295,
      "d": 22.72729166666977,
      "v": 68
    },
    {
      "midi": 66,
      "hit": false,
      "t": 52227.316250000295,
      "d": 22.72729166666977,
      "v": 68
    },
    {
      "midi": 59,
      "hit": false,
      "t": 52227.3162500003,
      "d": 22.72729166666977,
      "v": 74
    },
    {
      "midi": 63,
      "hit": false,
      "t": 52227.3162500003,
      "d": 22.72729166666977,
      "v": 74
    },
    {
      "midi": 66,
      "hit": false,
      "t": 52227.3162500003,
      "d": 22.72729166666977,
      "v": 74
    },
    {
      "midi": 64,
      "hit": false,
      "t": 52238.67989583298,
      "d": 102.27281249999942,
      "v": 47
    },
    {
      "midi": 76,
      "hit": false,
      "t": 52238.67989583298,
      "d": 102.27281249999942,
      "v": 47
    },
    {
      "midi": 33,
      "hit": false,
      "t": 52363.68000000008,
      "d": 340.9093750000029,
      "v": 93
    },
    {
      "midi": 45,
      "hit": false,
      "t": 52363.6800000003,
      "d": 659.091458333336,
      "v": 76
    },
    {
      "midi": 61,
      "hit": false,
      "t": 52363.6800000003,
      "d": 659.091458333336,
      "v": 68
    },
    {
      "midi": 64,
      "hit": false,
      "t": 52363.6800000003,
      "d": 659.091458333336,
      "v": 68
    },
    {
      "midi": 69,
      "hit": false,
      "t": 52363.6800000003,
      "d": 659.091458333336,
      "v": 68
    },
    {
      "midi": 45,
      "hit": false,
      "t": 52363.680000000306,
      "d": 659.091458333336,
      "v": 44
    },
    {
      "midi": 52,
      "hit": false,
      "t": 52363.680000000306,
      "d": 659.091458333336,
      "v": 44
    },
    {
      "midi": 61,
      "hit": false,
      "t": 52363.680000000306,
      "d": 659.091458333336,
      "v": 74
    },
    {
      "midi": 64,
      "hit": false,
      "t": 52363.680000000306,
      "d": 659.091458333336,
      "v": 74
    },
    {
      "midi": 69,
      "hit": false,
      "t": 52363.680000000306,
      "d": 659.091458333336,
      "v": 74
    },
    {
      "midi": 64,
      "hit": false,
      "t": 52375.04364583298,
      "d": 102.27281249999942,
      "v": 76
    },
    {
      "midi": 76,
      "hit": false,
      "t": 52375.04364583298,
      "d": 102.27281249999942,
      "v": 76
    },
    {
      "midi": 64,
      "hit": false,
      "t": 52511.407395832975,
      "d": 102.27281249999942,
      "v": 41
    },
    {
      "midi": 76,
      "hit": false,
      "t": 52511.407395832975,
      "d": 102.27281249999942,
      "v": 41
    },
    {
      "midi": 64,
      "hit": false,
      "t": 52647.77114583297,
      "d": 102.27281249999942,
      "v": 41
    },
    {
      "midi": 76,
      "hit": false,
      "t": 52647.77114583297,
      "d": 102.27281249999942,
      "v": 41
    },
    {
      "midi": 33,
      "hit": false,
      "t": 52772.771250000085,
      "d": 68.18187500000204,
      "v": 93
    },
    {
      "midi": 64,
      "hit": false,
      "t": 52784.13489583297,
      "d": 102.27281249999942,
      "v": 41
    },
    {
      "midi": 76,
      "hit": false,
      "t": 52784.13489583297,
      "d": 102.27281249999942,
      "v": 41
    },
    {
      "midi": 35,
      "hit": false,
      "t": 52909.13500000009,
      "d": 329.545729166668,
      "v": 93
    },
    {
      "midi": 64,
      "hit": false,
      "t": 52920.498645832966,
      "d": 102.27281249999942,
      "v": 41
    },
    {
      "midi": 76,
      "hit": false,
      "t": 52920.498645832966,
      "d": 102.27281249999942,
      "v": 41
    },
    {
      "midi": 64,
      "hit": false,
      "t": 53056.86239583296,
      "d": 102.27281249999942,
      "v": 41
    },
    {
      "midi": 76,
      "hit": false,
      "t": 53056.86239583296,
      "d": 102.27281249999942,
      "v": 41
    },
    {
      "midi": 61,
      "hit": false,
      "t": 53181.8625000003,
      "d": 386.3639583333352,
      "v": 68
    },
    {
      "midi": 64,
      "hit": false,
      "t": 53181.8625000003,
      "d": 386.3639583333352,
      "v": 68
    },
    {
      "midi": 69,
      "hit": false,
      "t": 53181.8625000003,
      "d": 386.3639583333352,
      "v": 68
    },
    {
      "midi": 45,
      "hit": false,
      "t": 53181.8625000003,
      "d": 943.1826041666791,
      "v": 76
    },
    {
      "midi": 61,
      "hit": false,
      "t": 53181.86250000031,
      "d": 386.3639583333352,
      "v": 74
    },
    {
      "midi": 64,
      "hit": false,
      "t": 53181.86250000031,
      "d": 386.3639583333352,
      "v": 74
    },
    {
      "midi": 69,
      "hit": false,
      "t": 53181.86250000031,
      "d": 386.3639583333352,
      "v": 74
    },
    {
      "midi": 45,
      "hit": false,
      "t": 53181.86250000031,
      "d": 943.1826041666791,
      "v": 44
    },
    {
      "midi": 52,
      "hit": false,
      "t": 53181.86250000031,
      "d": 943.1826041666791,
      "v": 44
    },
    {
      "midi": 64,
      "hit": false,
      "t": 53193.22614583296,
      "d": 102.27281249999942,
      "v": 76
    },
    {
      "midi": 76,
      "hit": false,
      "t": 53193.22614583296,
      "d": 102.27281249999942,
      "v": 76
    },
    {
      "midi": 35,
      "hit": false,
      "t": 53318.226250000094,
      "d": 68.18187500000204,
      "v": 93
    },
    {
      "midi": 64,
      "hit": false,
      "t": 53329.589895832956,
      "d": 102.27281249999942,
      "v": 41
    },
    {
      "midi": 76,
      "hit": false,
      "t": 53329.589895832956,
      "d": 102.27281249999942,
      "v": 41
    },
    {
      "midi": 37,
      "hit": false,
      "t": 53454.5900000001,
      "d": 363.6366666666654,
      "v": 93
    },
    {
      "midi": 64,
      "hit": false,
      "t": 53465.95364583295,
      "d": 102.27281249999942,
      "v": 41
    },
    {
      "midi": 76,
      "hit": false,
      "t": 53465.95364583295,
      "d": 102.27281249999942,
      "v": 41
    },
    {
      "midi": 61,
      "hit": false,
      "t": 53590.953750000306,
      "d": 250.0002083333311,
      "v": 68
    },
    {
      "midi": 64,
      "hit": false,
      "t": 53590.953750000306,
      "d": 250.0002083333311,
      "v": 68
    },
    {
      "midi": 69,
      "hit": false,
      "t": 53590.953750000306,
      "d": 250.0002083333311,
      "v": 68
    },
    {
      "midi": 61,
      "hit": false,
      "t": 53590.95375000031,
      "d": 250.0002083333311,
      "v": 74
    },
    {
      "midi": 64,
      "hit": false,
      "t": 53590.95375000031,
      "d": 250.0002083333311,
      "v": 74
    },
    {
      "midi": 69,
      "hit": false,
      "t": 53590.95375000031,
      "d": 250.0002083333311,
      "v": 74
    },
    {
      "midi": 64,
      "hit": false,
      "t": 53602.31739583295,
      "d": 102.27281249999942,
      "v": 41
    },
    {
      "midi": 76,
      "hit": false,
      "t": 53602.31739583295,
      "d": 102.27281249999942,
      "v": 41
    },
    {
      "midi": 64,
      "hit": false,
      "t": 53738.68114583295,
      "d": 102.27281249999942,
      "v": 41
    },
    {
      "midi": 76,
      "hit": false,
      "t": 53738.68114583295,
      "d": 102.27281249999942,
      "v": 41
    },
    {
      "midi": 37,
      "hit": false,
      "t": 53863.681250000096,
      "d": 79.54552083333692,
      "v": 93
    },
    {
      "midi": 61,
      "hit": false,
      "t": 53863.68125000031,
      "d": 22.72729166666977,
      "v": 68
    },
    {
      "midi": 64,
      "hit": false,
      "t": 53863.68125000031,
      "d": 22.72729166666977,
      "v": 68
    },
    {
      "midi": 69,
      "hit": false,
      "t": 53863.68125000031,
      "d": 22.72729166666977,
      "v": 68
    },
    {
      "midi": 61,
      "hit": false,
      "t": 53863.681250000314,
      "d": 22.72729166666977,
      "v": 74
    },
    {
      "midi": 64,
      "hit": false,
      "t": 53863.681250000314,
      "d": 22.72729166666977,
      "v": 74
    },
    {
      "midi": 69,
      "hit": false,
      "t": 53863.681250000314,
      "d": 22.72729166666977,
      "v": 74
    },
    {
      "midi": 64,
      "hit": false,
      "t": 53875.04489583294,
      "d": 102.27281249999942,
      "v": 41
    },
    {
      "midi": 76,
      "hit": false,
      "t": 53875.04489583294,
      "d": 102.27281249999942,
      "v": 41
    },
    {
      "midi": 38,
      "hit": false,
      "t": 54000.0450000001,
      "d": 386.3639583333352,
      "v": 93
    },
    {
      "midi": 61,
      "hit": false,
      "t": 54000.04500000031,
      "d": 250.00020833333838,
      "v": 68
    },
    {
      "midi": 64,
      "hit": false,
      "t": 54000.04500000031,
      "d": 250.00020833333838,
      "v": 68
    },
    {
      "midi": 69,
      "hit": false,
      "t": 54000.04500000031,
      "d": 250.00020833333838,
      "v": 68
    },
    {
      "midi": 61,
      "hit": false,
      "t": 54000.04500000032,
      "d": 250.00020833333838,
      "v": 74
    },
    {
      "midi": 64,
      "hit": false,
      "t": 54000.04500000032,
      "d": 250.00020833333838,
      "v": 74
    },
    {
      "midi": 69,
      "hit": false,
      "t": 54000.04500000032,
      "d": 250.00020833333838,
      "v": 74
    },
    {
      "midi": 64,
      "hit": false,
      "t": 54011.40864583294,
      "d": 102.27281249999942,
      "v": 74
    },
    {
      "midi": 76,
      "hit": false,
      "t": 54011.40864583294,
      "d": 102.27281249999942,
      "v": 74
    },
    {
      "midi": 64,
      "hit": false,
      "t": 54147.77239583294,
      "d": 102.27281249999942,
      "v": 47
    },
    {
      "midi": 76,
      "hit": false,
      "t": 54147.77239583294,
      "d": 102.27281249999942,
      "v": 47
    },
    {
      "midi": 57,
      "hit": false,
      "t": 54272.77250000032,
      "d": 22.72729166666977,
      "v": 68
    },
    {
      "midi": 61,
      "hit": false,
      "t": 54272.77250000032,
      "d": 22.72729166666977,
      "v": 68
    },
    {
      "midi": 64,
      "hit": false,
      "t": 54272.77250000032,
      "d": 22.72729166666977,
      "v": 68
    },
    {
      "midi": 57,
      "hit": false,
      "t": 54272.77250000033,
      "d": 22.72729166666977,
      "v": 74
    },
    {
      "midi": 61,
      "hit": false,
      "t": 54272.77250000033,
      "d": 22.72729166666977,
      "v": 74
    },
    {
      "midi": 64,
      "hit": false,
      "t": 54272.77250000033,
      "d": 22.72729166666977,
      "v": 74
    },
    {
      "midi": 64,
      "hit": false,
      "t": 54284.136145832934,
      "d": 102.27281249999942,
      "v": 47
    },
    {
      "midi": 76,
      "hit": false,
      "t": 54284.136145832934,
      "d": 102.27281249999942,
      "v": 47
    },
    {
      "midi": 57,
      "hit": false,
      "t": 54409.13625000032,
      "d": 22.72729166666977,
      "v": 68
    },
    {
      "midi": 61,
      "hit": false,
      "t": 54409.13625000032,
      "d": 22.72729166666977,
      "v": 68
    },
    {
      "midi": 64,
      "hit": false,
      "t": 54409.13625000032,
      "d": 22.72729166666977,
      "v": 68
    },
    {
      "midi": 57,
      "hit": false,
      "t": 54409.13625000033,
      "d": 22.72729166666977,
      "v": 74
    },
    {
      "midi": 61,
      "hit": false,
      "t": 54409.13625000033,
      "d": 22.72729166666977,
      "v": 74
    },
    {
      "midi": 64,
      "hit": false,
      "t": 54409.13625000033,
      "d": 22.72729166666977,
      "v": 74
    },
    {
      "midi": 64,
      "hit": false,
      "t": 54420.49989583293,
      "d": 102.27281249999942,
      "v": 47
    },
    {
      "midi": 76,
      "hit": false,
      "t": 54420.49989583293,
      "d": 102.27281249999942,
      "v": 47
    },
    {
      "midi": 40,
      "hit": false,
      "t": 54545.5000000001,
      "d": 375.0003125000003,
      "v": 93
    },
    {
      "midi": 62,
      "hit": false,
      "t": 54545.50000000033,
      "d": 250.0002083333311,
      "v": 68
    },
    {
      "midi": 64,
      "hit": false,
      "t": 54545.50000000033,
      "d": 250.0002083333311,
      "v": 68
    },
    {
      "midi": 69,
      "hit": false,
      "t": 54545.50000000033,
      "d": 250.0002083333311,
      "v": 68
    },
    {
      "midi": 45,
      "hit": false,
      "t": 54545.50000000033,
      "d": 659.0914583333288,
      "v": 76
    },
    {
      "midi": 45,
      "hit": false,
      "t": 54545.500000000335,
      "d": 250.0002083333311,
      "v": 44
    },
    {
      "midi": 62,
      "hit": false,
      "t": 54545.500000000335,
      "d": 250.0002083333311,
      "v": 74
    },
    {
      "midi": 64,
      "hit": false,
      "t": 54545.500000000335,
      "d": 250.0002083333311,
      "v": 74
    },
    {
      "midi": 69,
      "hit": false,
      "t": 54545.500000000335,
      "d": 250.0002083333311,
      "v": 74
    },
    {
      "midi": 64,
      "hit": false,
      "t": 54556.86364583293,
      "d": 102.27281249999942,
      "v": 76
    },
    {
      "midi": 76,
      "hit": false,
      "t": 54556.86364583293,
      "d": 102.27281249999942,
      "v": 76
    },
    {
      "midi": 64,
      "hit": false,
      "t": 54693.227395832924,
      "d": 102.27281249999942,
      "v": 41
    },
    {
      "midi": 76,
      "hit": false,
      "t": 54693.227395832924,
      "d": 102.27281249999942,
      "v": 41
    },
    {
      "midi": 64,
      "hit": false,
      "t": 54829.59114583292,
      "d": 102.27281249999942,
      "v": 41
    },
    {
      "midi": 76,
      "hit": false,
      "t": 54829.59114583292,
      "d": 102.27281249999942,
      "v": 41
    },
    {
      "midi": 40,
      "hit": false,
      "t": 54954.5912500001,
      "d": 90.90916666666453,
      "v": 93
    },
    {
      "midi": 62,
      "hit": false,
      "t": 54954.591250000325,
      "d": 250.0002083333311,
      "v": 68
    },
    {
      "midi": 64,
      "hit": false,
      "t": 54954.591250000325,
      "d": 250.0002083333311,
      "v": 68
    },
    {
      "midi": 69,
      "hit": false,
      "t": 54954.591250000325,
      "d": 250.0002083333311,
      "v": 68
    },
    {
      "midi": 45,
      "hit": false,
      "t": 54954.59125000033,
      "d": 250.0002083333311,
      "v": 44
    },
    {
      "midi": 62,
      "hit": false,
      "t": 54954.59125000033,
      "d": 250.0002083333311,
      "v": 74
    },
    {
      "midi": 64,
      "hit": false,
      "t": 54954.59125000033,
      "d": 250.0002083333311,
      "v": 74
    },
    {
      "midi": 69,
      "hit": false,
      "t": 54954.59125000033,
      "d": 250.0002083333311,
      "v": 74
    },
    {
      "midi": 64,
      "hit": false,
      "t": 54965.95489583292,
      "d": 102.27281249999942,
      "v": 41
    },
    {
      "midi": 76,
      "hit": false,
      "t": 54965.95489583292,
      "d": 102.27281249999942,
      "v": 41
    },
    {
      "midi": 42,
      "hit": false,
      "t": 55090.955000000096,
      "d": 352.2730208333305,
      "v": 93
    },
    {
      "midi": 64,
      "hit": false,
      "t": 55102.318645832915,
      "d": 102.27281249999942,
      "v": 41
    },
    {
      "midi": 76,
      "hit": false,
      "t": 55102.318645832915,
      "d": 102.27281249999942,
      "v": 41
    },
    {
      "midi": 64,
      "hit": false,
      "t": 55238.68239583291,
      "d": 102.27281249999942,
      "v": 41
    },
    {
      "midi": 76,
      "hit": false,
      "t": 55238.68239583291,
      "d": 102.27281249999942,
      "v": 41
    },
    {
      "midi": 62,
      "hit": false,
      "t": 55363.68250000032,
      "d": 250.0002083333311,
      "v": 68
    },
    {
      "midi": 64,
      "hit": false,
      "t": 55363.68250000032,
      "d": 250.0002083333311,
      "v": 68
    },
    {
      "midi": 69,
      "hit": false,
      "t": 55363.68250000032,
      "d": 250.0002083333311,
      "v": 68
    },
    {
      "midi": 45,
      "hit": false,
      "t": 55363.68250000032,
      "d": 659.0914583333288,
      "v": 76
    },
    {
      "midi": 62,
      "hit": false,
      "t": 55363.68250000033,
      "d": 250.0002083333311,
      "v": 74
    },
    {
      "midi": 64,
      "hit": false,
      "t": 55363.68250000033,
      "d": 250.0002083333311,
      "v": 74
    },
    {
      "midi": 69,
      "hit": false,
      "t": 55363.68250000033,
      "d": 250.0002083333311,
      "v": 74
    },
    {
      "midi": 45,
      "hit": false,
      "t": 55363.68250000033,
      "d": 397.7276041666628,
      "v": 44
    },
    {
      "midi": 64,
      "hit": false,
      "t": 55375.04614583291,
      "d": 102.27281249999942,
      "v": 76
    },
    {
      "midi": 76,
      "hit": false,
      "t": 55375.04614583291,
      "d": 102.27281249999942,
      "v": 76
    },
    {
      "midi": 42,
      "hit": false,
      "t": 55500.046250000094,
      "d": 147.72739583333168,
      "v": 93
    },
    {
      "midi": 64,
      "hit": false,
      "t": 55511.409895832905,
      "d": 102.27281249999942,
      "v": 41
    },
    {
      "midi": 76,
      "hit": false,
      "t": 55511.409895832905,
      "d": 102.27281249999942,
      "v": 41
    },
    {
      "midi": 45,
      "hit": false,
      "t": 55636.41000000009,
      "d": 147.72739583333896,
      "v": 93
    },
    {
      "midi": 64,
      "hit": false,
      "t": 55647.7736458329,
      "d": 102.27281249999942,
      "v": 41
    },
    {
      "midi": 76,
      "hit": false,
      "t": 55647.7736458329,
      "d": 102.27281249999942,
      "v": 41
    },
    {
      "midi": 40,
      "hit": false,
      "t": 55772.773750000095,
      "d": 125.00010416666919,
      "v": 93
    },
    {
      "midi": 62,
      "hit": false,
      "t": 55772.77375000032,
      "d": 250.0002083333311,
      "v": 68
    },
    {
      "midi": 64,
      "hit": false,
      "t": 55772.77375000032,
      "d": 250.0002083333311,
      "v": 68
    },
    {
      "midi": 69,
      "hit": false,
      "t": 55772.77375000032,
      "d": 250.0002083333311,
      "v": 68
    },
    {
      "midi": 45,
      "hit": false,
      "t": 55772.77375000033,
      "d": 250.0002083333311,
      "v": 44
    },
    {
      "midi": 62,
      "hit": false,
      "t": 55772.77375000033,
      "d": 250.0002083333311,
      "v": 74
    },
    {
      "midi": 64,
      "hit": false,
      "t": 55772.77375000033,
      "d": 250.0002083333311,
      "v": 74
    },
    {
      "midi": 69,
      "hit": false,
      "t": 55772.77375000033,
      "d": 250.0002083333311,
      "v": 74
    },
    {
      "midi": 64,
      "hit": false,
      "t": 55784.1373958329,
      "d": 102.27281249999942,
      "v": 41
    },
    {
      "midi": 76,
      "hit": false,
      "t": 55784.1373958329,
      "d": 102.27281249999942,
      "v": 41
    },
    {
      "midi": 45,
      "hit": false,
      "t": 55909.1375000001,
      "d": 329.545729166668,
      "v": 93
    },
    {
      "midi": 64,
      "hit": false,
      "t": 55920.501145832895,
      "d": 102.27281249999942,
      "v": 41
    },
    {
      "midi": 76,
      "hit": false,
      "t": 55920.501145832895,
      "d": 102.27281249999942,
      "v": 41
    },
    {
      "midi": 64,
      "hit": false,
      "t": 56056.86489583289,
      "d": 102.27281249999942,
      "v": 41
    },
    {
      "midi": 76,
      "hit": false,
      "t": 56056.86489583289,
      "d": 102.27281249999942,
      "v": 41
    },
    {
      "midi": 46,
      "hit": false,
      "t": 56181.8650000001,
      "d": 272.7275000000009,
      "v": 93
    },
    {
      "midi": 45,
      "hit": false,
      "t": 56181.86500000032,
      "d": 250.0002083333311,
      "v": 76
    },
    {
      "midi": 61,
      "hit": false,
      "t": 56181.86500000032,
      "d": 250.0002083333311,
      "v": 68
    },
    {
      "midi": 64,
      "hit": false,
      "t": 56181.86500000032,
      "d": 250.0002083333311,
      "v": 68
    },
    {
      "midi": 69,
      "hit": false,
      "t": 56181.86500000032,
      "d": 250.0002083333311,
      "v": 68
    },
    {
      "midi": 45,
      "hit": false,
      "t": 56181.865000000325,
      "d": 250.0002083333311,
      "v": 44
    },
    {
      "midi": 61,
      "hit": false,
      "t": 56181.865000000325,
      "d": 250.0002083333311,
      "v": 74
    },
    {
      "midi": 64,
      "hit": false,
      "t": 56181.865000000325,
      "d": 250.0002083333311,
      "v": 74
    },
    {
      "midi": 69,
      "hit": false,
      "t": 56181.865000000325,
      "d": 250.0002083333311,
      "v": 74
    },
    {
      "midi": 64,
      "hit": false,
      "t": 56193.22864583289,
      "d": 102.27281249999942,
      "v": 74
    },
    {
      "midi": 76,
      "hit": false,
      "t": 56193.22864583289,
      "d": 102.27281249999942,
      "v": 74
    },
    {
      "midi": 64,
      "hit": false,
      "t": 56329.592395832886,
      "d": 102.27281249999942,
      "v": 47
    },
    {
      "midi": 76,
      "hit": false,
      "t": 56329.592395832886,
      "d": 102.27281249999942,
      "v": 47
    },
    {
      "midi": 47,
      "hit": false,
      "t": 56454.5925000001,
      "d": 261.363854166666,
      "v": 93
    },
    {
      "midi": 61,
      "hit": false,
      "t": 56454.59250000032,
      "d": 136.3637499999968,
      "v": 68
    },
    {
      "midi": 64,
      "hit": false,
      "t": 56454.59250000032,
      "d": 136.3637499999968,
      "v": 68
    },
    {
      "midi": 69,
      "hit": false,
      "t": 56454.59250000032,
      "d": 250.0002083333311,
      "v": 68
    },
    {
      "midi": 61,
      "hit": false,
      "t": 56454.592500000326,
      "d": 136.3637499999968,
      "v": 74
    },
    {
      "midi": 64,
      "hit": false,
      "t": 56454.592500000326,
      "d": 136.3637499999968,
      "v": 74
    },
    {
      "midi": 69,
      "hit": false,
      "t": 56454.592500000326,
      "d": 250.0002083333311,
      "v": 74
    },
    {
      "midi": 64,
      "hit": false,
      "t": 56465.95614583288,
      "d": 102.27281249999942,
      "v": 47
    },
    {
      "midi": 76,
      "hit": false,
      "t": 56465.95614583288,
      "d": 102.27281249999942,
      "v": 47
    },
    {
      "midi": 57,
      "hit": false,
      "t": 56590.956250000316,
      "d": 22.72729166666977,
      "v": 68
    },
    {
      "midi": 61,
      "hit": false,
      "t": 56590.956250000316,
      "d": 22.72729166666977,
      "v": 68
    },
    {
      "midi": 64,
      "hit": false,
      "t": 56590.956250000316,
      "d": 22.72729166666977,
      "v": 68
    },
    {
      "midi": 57,
      "hit": false,
      "t": 56590.95625000032,
      "d": 22.72729166666977,
      "v": 74
    },
    {
      "midi": 61,
      "hit": false,
      "t": 56590.95625000032,
      "d": 22.72729166666977,
      "v": 74
    },
    {
      "midi": 64,
      "hit": false,
      "t": 56590.95625000032,
      "d": 22.72729166666977,
      "v": 74
    },
    {
      "midi": 64,
      "hit": false,
      "t": 56602.31989583288,
      "d": 102.27281249999942,
      "v": 47
    },
    {
      "midi": 76,
      "hit": false,
      "t": 56602.31989583288,
      "d": 102.27281249999942,
      "v": 47
    },
    {
      "midi": 40,
      "hit": false,
      "t": 56727.3200000001,
      "d": 534.0913541666669,
      "v": 93
    },
    {
      "midi": 54,
      "hit": false,
      "t": 56727.32000000032,
      "d": 90.90916666667181,
      "v": 63
    },
    {
      "midi": 59,
      "hit": false,
      "t": 56727.32000000032,
      "d": 136.36375000000407,
      "v": 67
    },
    {
      "midi": 64,
      "hit": false,
      "t": 56727.32000000032,
      "d": 136.36375000000407,
      "v": 67
    },
    {
      "midi": 40,
      "hit": false,
      "t": 56727.32000000032,
      "d": 670.4551041666855,
      "v": 76
    },
    {
      "midi": 54,
      "hit": false,
      "t": 56727.32000000033,
      "d": 90.90916666667181,
      "v": 74
    },
    {
      "midi": 59,
      "hit": false,
      "t": 56727.32000000033,
      "d": 136.36375000000407,
      "v": 73
    },
    {
      "midi": 64,
      "hit": false,
      "t": 56727.32000000033,
      "d": 136.36375000000407,
      "v": 73
    },
    {
      "midi": 40,
      "hit": false,
      "t": 56727.32000000033,
      "d": 670.4551041666855,
      "v": 44
    },
    {
      "midi": 64,
      "hit": false,
      "t": 56738.683645832876,
      "d": 102.27281249999942,
      "v": 76
    },
    {
      "midi": 76,
      "hit": false,
      "t": 56738.683645832876,
      "d": 102.27281249999942,
      "v": 76
    },
    {
      "midi": 68,
      "hit": false,
      "t": 56738.683645833655,
      "d": 261.36385416667326,
      "v": 30
    },
    {
      "midi": 68,
      "hit": false,
      "t": 56738.68364583366,
      "d": 261.36385416667326,
      "v": 44
    },
    {
      "midi": 59,
      "hit": false,
      "t": 56863.683750000324,
      "d": 22.72729166666977,
      "v": 64
    },
    {
      "midi": 64,
      "hit": false,
      "t": 56863.683750000324,
      "d": 22.72729166666977,
      "v": 46
    },
    {
      "midi": 56,
      "hit": false,
      "t": 56863.683750000324,
      "d": 386.36395833334245,
      "v": 30
    },
    {
      "midi": 59,
      "hit": false,
      "t": 56863.68375000033,
      "d": 22.72729166666977,
      "v": 70
    },
    {
      "midi": 64,
      "hit": false,
      "t": 56863.68375000033,
      "d": 22.72729166666977,
      "v": 52
    },
    {
      "midi": 56,
      "hit": false,
      "t": 56863.68375000033,
      "d": 386.36395833334245,
      "v": 44
    },
    {
      "midi": 64,
      "hit": false,
      "t": 56875.04739583287,
      "d": 102.27281249999942,
      "v": 41
    },
    {
      "midi": 76,
      "hit": false,
      "t": 56875.04739583287,
      "d": 102.27281249999942,
      "v": 41
    },
    {
      "midi": 59,
      "hit": false,
      "t": 57000.04750000033,
      "d": 22.72729166666977,
      "v": 46
    },
    {
      "midi": 64,
      "hit": false,
      "t": 57000.04750000033,
      "d": 22.72729166666977,
      "v": 46
    },
    {
      "midi": 59,
      "hit": false,
      "t": 57000.047500000335,
      "d": 22.72729166666977,
      "v": 52
    },
    {
      "midi": 64,
      "hit": false,
      "t": 57000.047500000335,
      "d": 22.72729166666977,
      "v": 52
    },
    {
      "midi": 64,
      "hit": false,
      "t": 57011.41114583287,
      "d": 102.27281249999942,
      "v": 41
    },
    {
      "midi": 76,
      "hit": false,
      "t": 57011.41114583287,
      "d": 102.27281249999942,
      "v": 41
    },
    {
      "midi": 59,
      "hit": false,
      "t": 57136.41125000033,
      "d": 90.90916666666453,
      "v": 47
    },
    {
      "midi": 64,
      "hit": false,
      "t": 57136.41125000033,
      "d": 90.90916666666453,
      "v": 67
    },
    {
      "midi": 68,
      "hit": false,
      "t": 57136.41125000033,
      "d": 113.6364583333343,
      "v": 30
    },
    {
      "midi": 59,
      "hit": false,
      "t": 57136.41125000034,
      "d": 90.90916666666453,
      "v": 53
    },
    {
      "midi": 64,
      "hit": false,
      "t": 57136.41125000034,
      "d": 90.90916666666453,
      "v": 73
    },
    {
      "midi": 68,
      "hit": false,
      "t": 57136.41125000034,
      "d": 113.6364583333343,
      "v": 44
    },
    {
      "midi": 64,
      "hit": false,
      "t": 57147.77489583287,
      "d": 102.27281249999942,
      "v": 41
    },
    {
      "midi": 76,
      "hit": false,
      "t": 57147.77489583287,
      "d": 102.27281249999942,
      "v": 41
    },
    {
      "midi": 35,
      "hit": false,
      "t": 57272.7750000001,
      "d": 261.363854166666,
      "v": 93
    },
    {
      "midi": 59,
      "hit": false,
      "t": 57272.775000000336,
      "d": 102.27281249999942,
      "v": 72
    },
    {
      "midi": 64,
      "hit": false,
      "t": 57272.775000000336,
      "d": 102.27281249999942,
      "v": 72
    },
    {
      "midi": 59,
      "hit": false,
      "t": 57272.77500000034,
      "d": 102.27281249999942,
      "v": 74
    },
    {
      "midi": 64,
      "hit": false,
      "t": 57272.77500000034,
      "d": 102.27281249999942,
      "v": 74
    },
    {
      "midi": 64,
      "hit": false,
      "t": 57284.13864583286,
      "d": 102.27281249999942,
      "v": 41
    },
    {
      "midi": 76,
      "hit": false,
      "t": 57284.13864583286,
      "d": 102.27281249999942,
      "v": 41
    },
    {
      "midi": 68,
      "hit": false,
      "t": 57284.13864583367,
      "d": 113.6364583333343,
      "v": 30
    },
    {
      "midi": 68,
      "hit": false,
      "t": 57284.13864583368,
      "d": 113.6364583333343,
      "v": 44
    },
    {
      "midi": 59,
      "hit": false,
      "t": 57409.13875000034,
      "d": 11.363645833334886,
      "v": 30
    },
    {
      "midi": 64,
      "hit": false,
      "t": 57409.13875000034,
      "d": 11.363645833334886,
      "v": 30
    },
    {
      "midi": 68,
      "hit": false,
      "t": 57409.13875000034,
      "d": 34.09093750000466,
      "v": 30
    },
    {
      "midi": 59,
      "hit": false,
      "t": 57409.13875000035,
      "d": 11.363645833334886,
      "v": 44
    },
    {
      "midi": 64,
      "hit": false,
      "t": 57409.13875000035,
      "d": 11.363645833334886,
      "v": 44
    },
    {
      "midi": 68,
      "hit": false,
      "t": 57409.13875000035,
      "d": 34.09093750000466,
      "v": 44
    },
    {
      "midi": 64,
      "hit": false,
      "t": 57420.50239583286,
      "d": 102.27281249999942,
      "v": 41
    },
    {
      "midi": 76,
      "hit": false,
      "t": 57420.50239583286,
      "d": 102.27281249999942,
      "v": 41
    },
    {
      "midi": 68,
      "hit": false,
      "t": 57545.502500000344,
      "d": 261.363854166666,
      "v": 64
    },
    {
      "midi": 59,
      "hit": false,
      "t": 57545.502500000344,
      "d": 397.7276041666628,
      "v": 64
    },
    {
      "midi": 64,
      "hit": false,
      "t": 57545.502500000344,
      "d": 397.7276041666628,
      "v": 64
    },
    {
      "midi": 56,
      "hit": false,
      "t": 57545.502500000344,
      "d": 534.0913541666596,
      "v": 64
    },
    {
      "midi": 40,
      "hit": false,
      "t": 57545.502500000344,
      "d": 1079.5463541666686,
      "v": 76
    },
    {
      "midi": 68,
      "hit": false,
      "t": 57545.50250000035,
      "d": 261.363854166666,
      "v": 70
    },
    {
      "midi": 59,
      "hit": false,
      "t": 57545.50250000035,
      "d": 397.7276041666628,
      "v": 70
    },
    {
      "midi": 64,
      "hit": false,
      "t": 57545.50250000035,
      "d": 397.7276041666628,
      "v": 70
    },
    {
      "midi": 56,
      "hit": false,
      "t": 57545.50250000035,
      "d": 534.0913541666596,
      "v": 70
    },
    {
      "midi": 40,
      "hit": false,
      "t": 57545.50250000035,
      "d": 1079.5463541666686,
      "v": 44
    },
    {
      "midi": 64,
      "hit": false,
      "t": 57556.86614583286,
      "d": 102.27281249999942,
      "v": 76
    },
    {
      "midi": 76,
      "hit": false,
      "t": 57556.86614583286,
      "d": 102.27281249999942,
      "v": 76
    },
    {
      "midi": 35,
      "hit": false,
      "t": 57681.8662500001,
      "d": 125.00010416666919,
      "v": 93
    },
    {
      "midi": 64,
      "hit": false,
      "t": 57693.229895832854,
      "d": 102.27281249999942,
      "v": 41
    },
    {
      "midi": 76,
      "hit": false,
      "t": 57693.229895832854,
      "d": 102.27281249999942,
      "v": 41
    },
    {
      "midi": 40,
      "hit": false,
      "t": 57818.230000000105,
      "d": 125.00010416666919,
      "v": 93
    },
    {
      "midi": 64,
      "hit": false,
      "t": 57829.59364583285,
      "d": 102.27281249999942,
      "v": 41
    },
    {
      "midi": 76,
      "hit": false,
      "t": 57829.59364583285,
      "d": 102.27281249999942,
      "v": 41
    },
    {
      "midi": 64,
      "hit": false,
      "t": 57965.95739583285,
      "d": 102.27281249999942,
      "v": 41
    },
    {
      "midi": 76,
      "hit": false,
      "t": 57965.95739583285,
      "d": 102.27281249999942,
      "v": 41
    },
    {
      "midi": 61,
      "hit": false,
      "t": 58068.230208333334,
      "d": 397.72760416667006,
      "v": 64
    },
    {
      "midi": 35,
      "hit": false,
      "t": 58090.957500000106,
      "d": 125.00010416666919,
      "v": 93
    },
    {
      "midi": 59,
      "hit": false,
      "t": 58090.95750000034,
      "d": 125.00010416666919,
      "v": 76
    },
    {
      "midi": 64,
      "hit": false,
      "t": 58090.95750000034,
      "d": 125.00010416666919,
      "v": 76
    },
    {
      "midi": 68,
      "hit": false,
      "t": 58090.95750000034,
      "d": 125.00010416666919,
      "v": 76
    },
    {
      "midi": 59,
      "hit": false,
      "t": 58090.957500000346,
      "d": 125.00010416666919,
      "v": 74
    },
    {
      "midi": 64,
      "hit": false,
      "t": 58090.957500000346,
      "d": 125.00010416666919,
      "v": 74
    },
    {
      "midi": 68,
      "hit": false,
      "t": 58090.957500000346,
      "d": 125.00010416666919,
      "v": 74
    },
    {
      "midi": 64,
      "hit": false,
      "t": 58102.321145832844,
      "d": 102.27281249999942,
      "v": 41
    },
    {
      "midi": 76,
      "hit": false,
      "t": 58102.321145832844,
      "d": 102.27281249999942,
      "v": 41
    },
    {
      "midi": 64,
      "hit": false,
      "t": 58238.68489583284,
      "d": 102.27281249999942,
      "v": 41
    },
    {
      "midi": 76,
      "hit": false,
      "t": 58238.68489583284,
      "d": 102.27281249999942,
      "v": 41
    },
    {
      "midi": 40,
      "hit": false,
      "t": 58363.68500000011,
      "d": 125.00010416666919,
      "v": 93
    },
    {
      "midi": 52,
      "hit": false,
      "t": 58363.68500000034,
      "d": 68.18187500000204,
      "v": 30
    },
    {
      "midi": 59,
      "hit": false,
      "t": 58363.68500000034,
      "d": 68.18187500000204,
      "v": 30
    },
    {
      "midi": 64,
      "hit": false,
      "t": 58363.68500000034,
      "d": 68.18187500000204,
      "v": 30
    },
    {
      "midi": 56,
      "hit": false,
      "t": 58363.68500000034,
      "d": 125.00010416666919,
      "v": 30
    },
    {
      "midi": 52,
      "hit": false,
      "t": 58363.68500000035,
      "d": 68.18187500000204,
      "v": 44
    },
    {
      "midi": 59,
      "hit": false,
      "t": 58363.68500000035,
      "d": 68.18187500000204,
      "v": 44
    },
    {
      "midi": 64,
      "hit": false,
      "t": 58363.68500000035,
      "d": 68.18187500000204,
      "v": 44
    },
    {
      "midi": 56,
      "hit": false,
      "t": 58363.68500000035,
      "d": 125.00010416666919,
      "v": 44
    },
    {
      "midi": 64,
      "hit": false,
      "t": 58375.04864583284,
      "d": 102.27281249999942,
      "v": 74
    },
    {
      "midi": 76,
      "hit": false,
      "t": 58375.04864583284,
      "d": 102.27281249999942,
      "v": 74
    },
    {
      "midi": 64,
      "hit": false,
      "t": 58477.32145833334,
      "d": 397.72760416667006,
      "v": 64
    },
    {
      "midi": 35,
      "hit": false,
      "t": 58500.04875000011,
      "d": 125.00010416666919,
      "v": 93
    },
    {
      "midi": 59,
      "hit": false,
      "t": 58500.048750000344,
      "d": 125.00010416666919,
      "v": 76
    },
    {
      "midi": 64,
      "hit": false,
      "t": 58500.048750000344,
      "d": 125.00010416666919,
      "v": 76
    },
    {
      "midi": 68,
      "hit": false,
      "t": 58500.048750000344,
      "d": 125.00010416666919,
      "v": 76
    },
    {
      "midi": 59,
      "hit": false,
      "t": 58500.04875000035,
      "d": 125.00010416666919,
      "v": 74
    },
    {
      "midi": 64,
      "hit": false,
      "t": 58500.04875000035,
      "d": 125.00010416666919,
      "v": 74
    },
    {
      "midi": 68,
      "hit": false,
      "t": 58500.04875000035,
      "d": 125.00010416666919,
      "v": 74
    },
    {
      "midi": 64,
      "hit": false,
      "t": 58511.412395832835,
      "d": 102.27281249999942,
      "v": 47
    },
    {
      "midi": 76,
      "hit": false,
      "t": 58511.412395832835,
      "d": 102.27281249999942,
      "v": 47
    },
    {
      "midi": 64,
      "hit": false,
      "t": 58647.77614583283,
      "d": 102.27281249999942,
      "v": 47
    },
    {
      "midi": 76,
      "hit": false,
      "t": 58647.77614583283,
      "d": 102.27281249999942,
      "v": 47
    },
    {
      "midi": 37,
      "hit": false,
      "t": 58772.77625000011,
      "d": 68.18187500000204,
      "v": 93
    },
    {
      "midi": 64,
      "hit": false,
      "t": 58784.13989583283,
      "d": 102.27281249999942,
      "v": 47
    },
    {
      "midi": 76,
      "hit": false,
      "t": 58784.13989583283,
      "d": 102.27281249999942,
      "v": 47
    },
    {
      "midi": 64,
      "hit": false,
      "t": 58886.412708333344,
      "d": 1352.2738541666695,
      "v": 64
    },
    {
      "midi": 68,
      "hit": false,
      "t": 58886.412708333344,
      "d": 1352.2738541666695,
      "v": 64
    },
    {
      "midi": 71,
      "hit": false,
      "t": 58886.412708333344,
      "d": 1352.2738541666695,
      "v": 64
    },
    {
      "midi": 37,
      "hit": false,
      "t": 58909.140000000116,
      "d": 397.72760416667006,
      "v": 93
    },
    {
      "midi": 61,
      "hit": false,
      "t": 58909.14000000035,
      "d": 261.363854166666,
      "v": 41
    },
    {
      "midi": 64,
      "hit": false,
      "t": 58909.14000000035,
      "d": 261.363854166666,
      "v": 41
    },
    {
      "midi": 68,
      "hit": false,
      "t": 58909.14000000035,
      "d": 261.363854166666,
      "v": 41
    },
    {
      "midi": 49,
      "hit": false,
      "t": 58909.140000000356,
      "d": 125.00010416666919,
      "v": 59
    },
    {
      "midi": 44,
      "hit": false,
      "t": 58909.140000000356,
      "d": 261.363854166666,
      "v": 59
    },
    {
      "midi": 56,
      "hit": false,
      "t": 58909.140000000356,
      "d": 261.363854166666,
      "v": 59
    },
    {
      "midi": 61,
      "hit": false,
      "t": 58909.140000000356,
      "d": 261.363854166666,
      "v": 47
    },
    {
      "midi": 64,
      "hit": false,
      "t": 58909.140000000356,
      "d": 261.363854166666,
      "v": 47
    },
    {
      "midi": 68,
      "hit": false,
      "t": 58909.140000000356,
      "d": 261.363854166666,
      "v": 47
    },
    {
      "midi": 64,
      "hit": false,
      "t": 58920.503645832825,
      "d": 102.27281249999942,
      "v": 76
    },
    {
      "midi": 76,
      "hit": false,
      "t": 58920.503645832825,
      "d": 102.27281249999942,
      "v": 76
    },
    {
      "midi": 64,
      "hit": false,
      "t": 59056.86739583282,
      "d": 102.27281249999942,
      "v": 41
    },
    {
      "midi": 76,
      "hit": false,
      "t": 59056.86739583282,
      "d": 102.27281249999942,
      "v": 41
    },
    {
      "midi": 56,
      "hit": false,
      "t": 59181.86750000035,
      "d": 261.363854166666,
      "v": 76
    },
    {
      "midi": 61,
      "hit": false,
      "t": 59181.86750000035,
      "d": 261.363854166666,
      "v": 47
    },
    {
      "midi": 64,
      "hit": false,
      "t": 59181.86750000035,
      "d": 261.363854166666,
      "v": 47
    },
    {
      "midi": 68,
      "hit": false,
      "t": 59181.86750000035,
      "d": 261.363854166666,
      "v": 47
    },
    {
      "midi": 49,
      "hit": false,
      "t": 59181.86750000035,
      "d": 534.0913541666741,
      "v": 76
    },
    {
      "midi": 56,
      "hit": false,
      "t": 59181.86750000036,
      "d": 125.00010416666919,
      "v": 59
    },
    {
      "midi": 44,
      "hit": false,
      "t": 59181.86750000036,
      "d": 261.363854166666,
      "v": 59
    },
    {
      "midi": 49,
      "hit": false,
      "t": 59181.86750000036,
      "d": 261.363854166666,
      "v": 59
    },
    {
      "midi": 61,
      "hit": false,
      "t": 59181.86750000036,
      "d": 261.363854166666,
      "v": 53
    },
    {
      "midi": 64,
      "hit": false,
      "t": 59181.86750000036,
      "d": 261.363854166666,
      "v": 53
    },
    {
      "midi": 68,
      "hit": false,
      "t": 59181.86750000036,
      "d": 261.363854166666,
      "v": 53
    },
    {
      "midi": 64,
      "hit": false,
      "t": 59193.23114583282,
      "d": 102.27281249999942,
      "v": 41
    },
    {
      "midi": 76,
      "hit": false,
      "t": 59193.23114583282,
      "d": 102.27281249999942,
      "v": 41
    },
    {
      "midi": 37,
      "hit": false,
      "t": 59318.23125000012,
      "d": 125.00010416666919,
      "v": 93
    },
    {
      "midi": 64,
      "hit": false,
      "t": 59329.594895832815,
      "d": 102.27281249999942,
      "v": 41
    },
    {
      "midi": 76,
      "hit": false,
      "t": 59329.594895832815,
      "d": 102.27281249999942,
      "v": 41
    },
    {
      "midi": 32,
      "hit": false,
      "t": 59454.595000000125,
      "d": 397.72760416667006,
      "v": 93
    },
    {
      "midi": 61,
      "hit": false,
      "t": 59454.59500000035,
      "d": 125.00010416666919,
      "v": 51
    },
    {
      "midi": 64,
      "hit": false,
      "t": 59454.59500000035,
      "d": 125.00010416666919,
      "v": 51
    },
    {
      "midi": 68,
      "hit": false,
      "t": 59454.59500000035,
      "d": 125.00010416666919,
      "v": 51
    },
    {
      "midi": 61,
      "hit": false,
      "t": 59454.59500000036,
      "d": 125.00010416666919,
      "v": 57
    },
    {
      "midi": 64,
      "hit": false,
      "t": 59454.59500000036,
      "d": 125.00010416666919,
      "v": 57
    },
    {
      "midi": 68,
      "hit": false,
      "t": 59454.59500000036,
      "d": 125.00010416666919,
      "v": 57
    },
    {
      "midi": 64,
      "hit": false,
      "t": 59465.95864583281,
      "d": 102.27281249999942,
      "v": 41
    },
    {
      "midi": 76,
      "hit": false,
      "t": 59465.95864583281,
      "d": 102.27281249999942,
      "v": 41
    },
    {
      "midi": 56,
      "hit": false,
      "t": 59590.958750000354,
      "d": 125.00010416666919,
      "v": 76
    },
    {
      "midi": 61,
      "hit": false,
      "t": 59590.958750000354,
      "d": 159.09104166666657,
      "v": 30
    },
    {
      "midi": 64,
      "hit": false,
      "t": 59590.958750000354,
      "d": 159.09104166666657,
      "v": 30
    },
    {
      "midi": 68,
      "hit": false,
      "t": 59590.958750000354,
      "d": 159.09104166666657,
      "v": 30
    },
    {
      "midi": 44,
      "hit": false,
      "t": 59590.95875000036,
      "d": 125.00010416666919,
      "v": 59
    },
    {
      "midi": 49,
      "hit": false,
      "t": 59590.95875000036,
      "d": 125.00010416666919,
      "v": 59
    },
    {
      "midi": 56,
      "hit": false,
      "t": 59590.95875000036,
      "d": 125.00010416666919,
      "v": 59
    },
    {
      "midi": 61,
      "hit": false,
      "t": 59590.95875000036,
      "d": 159.09104166666657,
      "v": 44
    },
    {
      "midi": 64,
      "hit": false,
      "t": 59590.95875000036,
      "d": 159.09104166666657,
      "v": 44
    },
    {
      "midi": 68,
      "hit": false,
      "t": 59590.95875000036,
      "d": 159.09104166666657,
      "v": 44
    },
    {
      "midi": 64,
      "hit": false,
      "t": 59602.32239583281,
      "d": 102.27281249999942,
      "v": 41
    },
    {
      "midi": 76,
      "hit": false,
      "t": 59602.32239583281,
      "d": 102.27281249999942,
      "v": 41
    },
    {
      "midi": 64,
      "hit": false,
      "t": 59738.686145832806,
      "d": 102.27281249999942,
      "v": 76
    },
    {
      "midi": 76,
      "hit": false,
      "t": 59738.686145832806,
      "d": 102.27281249999942,
      "v": 76
    },
    {
      "midi": 32,
      "hit": false,
      "t": 59863.68625000013,
      "d": 125.00010416666919,
      "v": 93
    },
    {
      "midi": 61,
      "hit": false,
      "t": 59863.686250000355,
      "d": 125.00010416666919,
      "v": 30
    },
    {
      "midi": 64,
      "hit": false,
      "t": 59863.686250000355,
      "d": 125.00010416666919,
      "v": 30
    },
    {
      "midi": 68,
      "hit": false,
      "t": 59863.686250000355,
      "d": 125.00010416666919,
      "v": 30
    },
    {
      "midi": 61,
      "hit": false,
      "t": 59863.68625000036,
      "d": 125.00010416666919,
      "v": 44
    },
    {
      "midi": 64,
      "hit": false,
      "t": 59863.68625000036,
      "d": 125.00010416666919,
      "v": 44
    },
    {
      "midi": 68,
      "hit": false,
      "t": 59863.68625000036,
      "d": 125.00010416666919,
      "v": 44
    },
    {
      "midi": 64,
      "hit": false,
      "t": 59875.0498958328,
      "d": 102.27281249999942,
      "v": 41
    },
    {
      "midi": 76,
      "hit": false,
      "t": 59875.0498958328,
      "d": 102.27281249999942,
      "v": 41
    },
    {
      "midi": 37,
      "hit": false,
      "t": 60000.050000000134,
      "d": 397.72760416667006,
      "v": 93
    },
    {
      "midi": 61,
      "hit": false,
      "t": 60000.05000000036,
      "d": 125.00010416666919,
      "v": 51
    },
    {
      "midi": 64,
      "hit": false,
      "t": 60000.05000000036,
      "d": 125.00010416666919,
      "v": 51
    },
    {
      "midi": 68,
      "hit": false,
      "t": 60000.05000000036,
      "d": 125.00010416666919,
      "v": 51
    },
    {
      "midi": 49,
      "hit": false,
      "t": 60000.05000000036,
      "d": 261.36385416667326,
      "v": 76
    },
    {
      "midi": 56,
      "hit": false,
      "t": 60000.05000000036,
      "d": 397.72760416667734,
      "v": 76
    },
    {
      "midi": 61,
      "hit": false,
      "t": 60000.05000000037,
      "d": 125.00010416666919,
      "v": 57
    },
    {
      "midi": 64,
      "hit": false,
      "t": 60000.05000000037,
      "d": 125.00010416666919,
      "v": 57
    },
    {
      "midi": 68,
      "hit": false,
      "t": 60000.05000000037,
      "d": 125.00010416666919,
      "v": 57
    },
    {
      "midi": 44,
      "hit": false,
      "t": 60000.05000000037,
      "d": 261.36385416667326,
      "v": 59
    },
    {
      "midi": 49,
      "hit": false,
      "t": 60000.05000000037,
      "d": 261.36385416667326,
      "v": 59
    },
    {
      "midi": 56,
      "hit": false,
      "t": 60000.05000000037,
      "d": 397.72760416667734,
      "v": 59
    },
    {
      "midi": 64,
      "hit": false,
      "t": 60011.4136458328,
      "d": 102.27281249999942,
      "v": 41
    },
    {
      "midi": 76,
      "hit": false,
      "t": 60011.4136458328,
      "d": 102.27281249999942,
      "v": 41
    },
    {
      "midi": 61,
      "hit": false,
      "t": 60136.41375000036,
      "d": 125.00010416666919,
      "v": 30
    },
    {
      "midi": 64,
      "hit": false,
      "t": 60136.41375000036,
      "d": 125.00010416666919,
      "v": 30
    },
    {
      "midi": 68,
      "hit": false,
      "t": 60136.41375000036,
      "d": 125.00010416666919,
      "v": 30
    },
    {
      "midi": 61,
      "hit": false,
      "t": 60136.41375000037,
      "d": 125.00010416666919,
      "v": 44
    },
    {
      "midi": 64,
      "hit": false,
      "t": 60136.41375000037,
      "d": 125.00010416666919,
      "v": 44
    },
    {
      "midi": 68,
      "hit": false,
      "t": 60136.41375000037,
      "d": 125.00010416666919,
      "v": 44
    },
    {
      "midi": 64,
      "hit": false,
      "t": 60147.777395832796,
      "d": 102.27281249999942,
      "v": 41
    },
    {
      "midi": 76,
      "hit": false,
      "t": 60147.777395832796,
      "d": 102.27281249999942,
      "v": 41
    },
    {
      "midi": 61,
      "hit": false,
      "t": 60272.77750000037,
      "d": 125.00010416666919,
      "v": 30
    },
    {
      "midi": 64,
      "hit": false,
      "t": 60272.77750000037,
      "d": 125.00010416666919,
      "v": 30
    },
    {
      "midi": 68,
      "hit": false,
      "t": 60272.77750000037,
      "d": 125.00010416666919,
      "v": 30
    },
    {
      "midi": 61,
      "hit": false,
      "t": 60272.777500000375,
      "d": 125.00010416666919,
      "v": 44
    },
    {
      "midi": 64,
      "hit": false,
      "t": 60272.777500000375,
      "d": 125.00010416666919,
      "v": 44
    },
    {
      "midi": 68,
      "hit": false,
      "t": 60272.777500000375,
      "d": 125.00010416666919,
      "v": 44
    },
    {
      "midi": 64,
      "hit": false,
      "t": 60284.14114583279,
      "d": 102.27281249999942,
      "v": 41
    },
    {
      "midi": 76,
      "hit": false,
      "t": 60284.14114583279,
      "d": 102.27281249999942,
      "v": 41
    },
    {
      "midi": 64,
      "hit": false,
      "t": 60386.413958333345,
      "d": 261.363854166666,
      "v": 64
    },
    {
      "midi": 68,
      "hit": false,
      "t": 60386.413958333345,
      "d": 261.363854166666,
      "v": 64
    },
    {
      "midi": 71,
      "hit": false,
      "t": 60386.413958333345,
      "d": 261.363854166666,
      "v": 64
    },
    {
      "midi": 32,
      "hit": false,
      "t": 60409.14125000014,
      "d": 125.00010416666919,
      "v": 93
    },
    {
      "midi": 61,
      "hit": false,
      "t": 60409.14125000037,
      "d": 261.363854166666,
      "v": 51
    },
    {
      "midi": 64,
      "hit": false,
      "t": 60409.14125000037,
      "d": 261.363854166666,
      "v": 51
    },
    {
      "midi": 68,
      "hit": false,
      "t": 60409.14125000037,
      "d": 261.363854166666,
      "v": 51
    },
    {
      "midi": 49,
      "hit": false,
      "t": 60409.14125000037,
      "d": 397.72760416667006,
      "v": 76
    },
    {
      "midi": 56,
      "hit": false,
      "t": 60409.14125000037,
      "d": 534.0913541666741,
      "v": 76
    },
    {
      "midi": 44,
      "hit": false,
      "t": 60409.14125000038,
      "d": 125.00010416666919,
      "v": 59
    },
    {
      "midi": 49,
      "hit": false,
      "t": 60409.14125000038,
      "d": 125.00010416666919,
      "v": 59
    },
    {
      "midi": 56,
      "hit": false,
      "t": 60409.14125000038,
      "d": 261.363854166666,
      "v": 59
    },
    {
      "midi": 61,
      "hit": false,
      "t": 60409.14125000038,
      "d": 261.363854166666,
      "v": 57
    },
    {
      "midi": 64,
      "hit": false,
      "t": 60409.14125000038,
      "d": 261.363854166666,
      "v": 57
    },
    {
      "midi": 68,
      "hit": false,
      "t": 60409.14125000038,
      "d": 261.363854166666,
      "v": 57
    },
    {
      "midi": 64,
      "hit": false,
      "t": 60420.50489583279,
      "d": 102.27281249999942,
      "v": 41
    },
    {
      "midi": 76,
      "hit": false,
      "t": 60420.50489583279,
      "d": 102.27281249999942,
      "v": 41
    },
    {
      "midi": 37,
      "hit": false,
      "t": 60545.50500000014,
      "d": 125.00010416666919,
      "v": 93
    },
    {
      "midi": 64,
      "hit": false,
      "t": 60556.86864583279,
      "d": 102.27281249999942,
      "v": 74
    },
    {
      "midi": 76,
      "hit": false,
      "t": 60556.86864583279,
      "d": 102.27281249999942,
      "v": 74
    },
    {
      "midi": 61,
      "hit": false,
      "t": 60659.141458333346,
      "d": 125.00010416666919,
      "v": 64
    },
    {
      "midi": 64,
      "hit": false,
      "t": 60659.141458333346,
      "d": 125.00010416666919,
      "v": 64
    },
    {
      "midi": 68,
      "hit": false,
      "t": 60659.141458333346,
      "d": 125.00010416666919,
      "v": 64
    },
    {
      "midi": 32,
      "hit": false,
      "t": 60681.86875000015,
      "d": 261.363854166666,
      "v": 93
    },
    {
      "midi": 61,
      "hit": false,
      "t": 60681.86875000037,
      "d": 125.00010416666919,
      "v": 30
    },
    {
      "midi": 64,
      "hit": false,
      "t": 60681.86875000037,
      "d": 125.00010416666919,
      "v": 30
    },
    {
      "midi": 68,
      "hit": false,
      "t": 60681.86875000037,
      "d": 125.00010416666919,
      "v": 30
    },
    {
      "midi": 61,
      "hit": false,
      "t": 60681.86875000038,
      "d": 125.00010416666919,
      "v": 44
    },
    {
      "midi": 64,
      "hit": false,
      "t": 60681.86875000038,
      "d": 125.00010416666919,
      "v": 44
    },
    {
      "midi": 68,
      "hit": false,
      "t": 60681.86875000038,
      "d": 125.00010416666919,
      "v": 44
    },
    {
      "midi": 64,
      "hit": false,
      "t": 60693.23239583278,
      "d": 102.27281249999942,
      "v": 47
    },
    {
      "midi": 76,
      "hit": false,
      "t": 60693.23239583278,
      "d": 102.27281249999942,
      "v": 47
    },
    {
      "midi": 63,
      "hit": false,
      "t": 60795.50520833335,
      "d": 125.00010416666919,
      "v": 64
    },
    {
      "midi": 66,
      "hit": false,
      "t": 60795.50520833335,
      "d": 125.00010416666919,
      "v": 64
    },
    {
      "midi": 69,
      "hit": false,
      "t": 60795.50520833335,
      "d": 125.00010416666919,
      "v": 64
    },
    {
      "midi": 61,
      "hit": false,
      "t": 60818.23250000038,
      "d": 125.00010416666919,
      "v": 51
    },
    {
      "midi": 64,
      "hit": false,
      "t": 60818.23250000038,
      "d": 125.00010416666919,
      "v": 51
    },
    {
      "midi": 68,
      "hit": false,
      "t": 60818.23250000038,
      "d": 125.00010416666919,
      "v": 51
    },
    {
      "midi": 61,
      "hit": false,
      "t": 60818.232500000384,
      "d": 125.00010416666919,
      "v": 57
    },
    {
      "midi": 64,
      "hit": false,
      "t": 60818.232500000384,
      "d": 125.00010416666919,
      "v": 57
    },
    {
      "midi": 68,
      "hit": false,
      "t": 60818.232500000384,
      "d": 125.00010416666919,
      "v": 57
    },
    {
      "midi": 64,
      "hit": false,
      "t": 60829.59614583278,
      "d": 102.27281249999942,
      "v": 47
    },
    {
      "midi": 76,
      "hit": false,
      "t": 60829.59614583278,
      "d": 102.27281249999942,
      "v": 47
    },
    {
      "midi": 64,
      "hit": false,
      "t": 60931.868958333354,
      "d": 136.3637499999968,
      "v": 64
    },
    {
      "midi": 68,
      "hit": false,
      "t": 60931.868958333354,
      "d": 261.363854166666,
      "v": 64
    },
    {
      "midi": 71,
      "hit": false,
      "t": 60931.868958333354,
      "d": 261.363854166666,
      "v": 64
    },
    {
      "midi": 61,
      "hit": false,
      "t": 60954.59625000038,
      "d": 125.00010416666919,
      "v": 30
    },
    {
      "midi": 64,
      "hit": false,
      "t": 60954.59625000038,
      "d": 125.00010416666919,
      "v": 30
    },
    {
      "midi": 68,
      "hit": false,
      "t": 60954.59625000038,
      "d": 125.00010416666919,
      "v": 30
    },
    {
      "midi": 44,
      "hit": false,
      "t": 60954.59625000039,
      "d": 125.00010416666919,
      "v": 59
    },
    {
      "midi": 49,
      "hit": false,
      "t": 60954.59625000039,
      "d": 125.00010416666919,
      "v": 59
    },
    {
      "midi": 61,
      "hit": false,
      "t": 60954.59625000039,
      "d": 125.00010416666919,
      "v": 44
    },
    {
      "midi": 64,
      "hit": false,
      "t": 60954.59625000039,
      "d": 125.00010416666919,
      "v": 44
    },
    {
      "midi": 68,
      "hit": false,
      "t": 60954.59625000039,
      "d": 125.00010416666919,
      "v": 44
    },
    {
      "midi": 64,
      "hit": false,
      "t": 60965.95989583278,
      "d": 102.27281249999942,
      "v": 47
    },
    {
      "midi": 76,
      "hit": false,
      "t": 60965.95989583278,
      "d": 102.27281249999942,
      "v": 47
    },
    {
      "midi": 64,
      "hit": false,
      "t": 61068.23270833335,
      "d": 125.00010416666919,
      "v": 64
    },
    {
      "midi": 61,
      "hit": false,
      "t": 61068.23270833335,
      "d": 261.363854166666,
      "v": 64
    },
    {
      "midi": 69,
      "hit": false,
      "t": 61068.23270833335,
      "d": 261.363854166666,
      "v": 64
    },
    {
      "midi": 33,
      "hit": false,
      "t": 61090.960000000145,
      "d": 397.72760416667006,
      "v": 93
    },
    {
      "midi": 61,
      "hit": false,
      "t": 61090.960000000385,
      "d": 261.363854166666,
      "v": 38
    },
    {
      "midi": 64,
      "hit": false,
      "t": 61090.960000000385,
      "d": 261.363854166666,
      "v": 38
    },
    {
      "midi": 69,
      "hit": false,
      "t": 61090.960000000385,
      "d": 261.363854166666,
      "v": 38
    },
    {
      "midi": 45,
      "hit": false,
      "t": 61090.96000000039,
      "d": 261.363854166666,
      "v": 59
    },
    {
      "midi": 52,
      "hit": false,
      "t": 61090.96000000039,
      "d": 261.363854166666,
      "v": 59
    },
    {
      "midi": 57,
      "hit": false,
      "t": 61090.96000000039,
      "d": 261.363854166666,
      "v": 59
    },
    {
      "midi": 61,
      "hit": false,
      "t": 61090.96000000039,
      "d": 261.363854166666,
      "v": 44
    },
    {
      "midi": 64,
      "hit": false,
      "t": 61090.96000000039,
      "d": 261.363854166666,
      "v": 44
    },
    {
      "midi": 69,
      "hit": false,
      "t": 61090.96000000039,
      "d": 261.363854166666,
      "v": 44
    },
    {
      "midi": 61,
      "hit": false,
      "t": 61363.687500000386,
      "d": 261.363854166666,
      "v": 39
    },
    {
      "midi": 64,
      "hit": false,
      "t": 61363.687500000386,
      "d": 261.363854166666,
      "v": 39
    },
    {
      "midi": 69,
      "hit": false,
      "t": 61363.687500000386,
      "d": 261.363854166666,
      "v": 39
    },
    {
      "midi": 57,
      "hit": false,
      "t": 61363.687500000386,
      "d": 397.72760416667006,
      "v": 76
    },
    {
      "midi": 45,
      "hit": false,
      "t": 61363.687500000386,
      "d": 670.4551041666782,
      "v": 76
    },
    {
      "midi": 45,
      "hit": false,
      "t": 61363.68750000039,
      "d": 261.363854166666,
      "v": 59
    },
    {
      "midi": 52,
      "hit": false,
      "t": 61363.68750000039,
      "d": 261.363854166666,
      "v": 59
    },
    {
      "midi": 57,
      "hit": false,
      "t": 61363.68750000039,
      "d": 261.363854166666,
      "v": 59
    },
    {
      "midi": 61,
      "hit": false,
      "t": 61363.68750000039,
      "d": 261.363854166666,
      "v": 45
    },
    {
      "midi": 64,
      "hit": false,
      "t": 61363.68750000039,
      "d": 261.363854166666,
      "v": 45
    },
    {
      "midi": 69,
      "hit": false,
      "t": 61363.68750000039,
      "d": 261.363854166666,
      "v": 45
    },
    {
      "midi": 61,
      "hit": false,
      "t": 61477.32395833335,
      "d": 261.363854166666,
      "v": 64
    },
    {
      "midi": 64,
      "hit": false,
      "t": 61477.32395833335,
      "d": 261.363854166666,
      "v": 64
    },
    {
      "midi": 69,
      "hit": false,
      "t": 61477.32395833335,
      "d": 261.363854166666,
      "v": 64
    },
    {
      "midi": 33,
      "hit": false,
      "t": 61500.05125000015,
      "d": 125.00010416666919,
      "v": 93
    },
    {
      "midi": 35,
      "hit": false,
      "t": 61636.415000000154,
      "d": 397.72760416667006,
      "v": 93
    },
    {
      "midi": 61,
      "hit": false,
      "t": 61636.41500000039,
      "d": 125.00010416666919,
      "v": 49
    },
    {
      "midi": 64,
      "hit": false,
      "t": 61636.41500000039,
      "d": 125.00010416666919,
      "v": 49
    },
    {
      "midi": 69,
      "hit": false,
      "t": 61636.41500000039,
      "d": 125.00010416666919,
      "v": 49
    },
    {
      "midi": 61,
      "hit": false,
      "t": 61636.415000000394,
      "d": 125.00010416666919,
      "v": 55
    },
    {
      "midi": 64,
      "hit": false,
      "t": 61636.415000000394,
      "d": 125.00010416666919,
      "v": 55
    },
    {
      "midi": 69,
      "hit": false,
      "t": 61636.415000000394,
      "d": 125.00010416666919,
      "v": 55
    },
    {
      "midi": 57,
      "hit": false,
      "t": 61772.77875000039,
      "d": 125.00010416666919,
      "v": 76
    },
    {
      "midi": 61,
      "hit": false,
      "t": 61772.77875000039,
      "d": 125.00010416666919,
      "v": 30
    },
    {
      "midi": 69,
      "hit": false,
      "t": 61772.77875000039,
      "d": 125.00010416666919,
      "v": 30
    },
    {
      "midi": 64,
      "hit": false,
      "t": 61772.77875000039,
      "d": 147.72739583333896,
      "v": 30
    },
    {
      "midi": 45,
      "hit": false,
      "t": 61772.7787500004,
      "d": 125.00010416666919,
      "v": 59
    },
    {
      "midi": 52,
      "hit": false,
      "t": 61772.7787500004,
      "d": 125.00010416666919,
      "v": 59
    },
    {
      "midi": 61,
      "hit": false,
      "t": 61772.7787500004,
      "d": 125.00010416666919,
      "v": 44
    },
    {
      "midi": 69,
      "hit": false,
      "t": 61772.7787500004,
      "d": 125.00010416666919,
      "v": 44
    },
    {
      "midi": 64,
      "hit": false,
      "t": 61772.7787500004,
      "d": 147.72739583333896,
      "v": 44
    },
    {
      "midi": 57,
      "hit": false,
      "t": 61772.7787500004,
      "d": 261.36385416667326,
      "v": 59
    },
    {
      "midi": 35,
      "hit": false,
      "t": 62045.50625000016,
      "d": 125.00010416666919,
      "v": 93
    },
    {
      "midi": 61,
      "hit": false,
      "t": 62045.5062500004,
      "d": 125.00010416666919,
      "v": 30
    },
    {
      "midi": 64,
      "hit": false,
      "t": 62045.5062500004,
      "d": 125.00010416666919,
      "v": 30
    },
    {
      "midi": 69,
      "hit": false,
      "t": 62045.5062500004,
      "d": 125.00010416666919,
      "v": 30
    },
    {
      "midi": 61,
      "hit": false,
      "t": 62045.506250000406,
      "d": 125.00010416666919,
      "v": 44
    },
    {
      "midi": 64,
      "hit": false,
      "t": 62045.506250000406,
      "d": 125.00010416666919,
      "v": 44
    },
    {
      "midi": 69,
      "hit": false,
      "t": 62045.506250000406,
      "d": 125.00010416666919,
      "v": 44
    },
    {
      "midi": 37,
      "hit": false,
      "t": 62181.87000000016,
      "d": 125.00010416666919,
      "v": 93
    },
    {
      "midi": 61,
      "hit": false,
      "t": 62181.8700000004,
      "d": 125.00010416666919,
      "v": 59
    },
    {
      "midi": 64,
      "hit": false,
      "t": 62181.8700000004,
      "d": 125.00010416666919,
      "v": 59
    },
    {
      "midi": 69,
      "hit": false,
      "t": 62181.8700000004,
      "d": 125.00010416666919,
      "v": 59
    },
    {
      "midi": 57,
      "hit": false,
      "t": 62181.8700000004,
      "d": 261.36385416667326,
      "v": 76
    },
    {
      "midi": 45,
      "hit": false,
      "t": 62181.8700000004,
      "d": 397.72760416667734,
      "v": 76
    },
    {
      "midi": 61,
      "hit": false,
      "t": 62181.87000000041,
      "d": 125.00010416666919,
      "v": 65
    },
    {
      "midi": 64,
      "hit": false,
      "t": 62181.87000000041,
      "d": 125.00010416666919,
      "v": 65
    },
    {
      "midi": 69,
      "hit": false,
      "t": 62181.87000000041,
      "d": 125.00010416666919,
      "v": 65
    },
    {
      "midi": 45,
      "hit": false,
      "t": 62181.87000000041,
      "d": 261.36385416667326,
      "v": 59
    },
    {
      "midi": 52,
      "hit": false,
      "t": 62181.87000000041,
      "d": 261.36385416667326,
      "v": 59
    },
    {
      "midi": 57,
      "hit": false,
      "t": 62181.87000000041,
      "d": 261.36385416667326,
      "v": 59
    },
    {
      "midi": 61,
      "hit": false,
      "t": 62318.23375000041,
      "d": 125.00010416666919,
      "v": 30
    },
    {
      "midi": 64,
      "hit": false,
      "t": 62318.23375000041,
      "d": 125.00010416666919,
      "v": 30
    },
    {
      "midi": 69,
      "hit": false,
      "t": 62318.23375000041,
      "d": 125.00010416666919,
      "v": 30
    },
    {
      "midi": 61,
      "hit": false,
      "t": 62318.233750000414,
      "d": 125.00010416666919,
      "v": 44
    },
    {
      "midi": 64,
      "hit": false,
      "t": 62318.233750000414,
      "d": 125.00010416666919,
      "v": 44
    },
    {
      "midi": 69,
      "hit": false,
      "t": 62318.233750000414,
      "d": 125.00010416666919,
      "v": 44
    },
    {
      "midi": 37,
      "hit": false,
      "t": 62454.59750000016,
      "d": 261.363854166666,
      "v": 93
    },
    {
      "midi": 61,
      "hit": false,
      "t": 62454.59750000041,
      "d": 125.00010416666919,
      "v": 30
    },
    {
      "midi": 64,
      "hit": false,
      "t": 62454.59750000041,
      "d": 125.00010416666919,
      "v": 30
    },
    {
      "midi": 69,
      "hit": false,
      "t": 62454.59750000041,
      "d": 125.00010416666919,
      "v": 30
    },
    {
      "midi": 61,
      "hit": false,
      "t": 62454.59750000042,
      "d": 125.00010416666919,
      "v": 44
    },
    {
      "midi": 64,
      "hit": false,
      "t": 62454.59750000042,
      "d": 125.00010416666919,
      "v": 44
    },
    {
      "midi": 69,
      "hit": false,
      "t": 62454.59750000042,
      "d": 125.00010416666919,
      "v": 44
    },
    {
      "midi": 61,
      "hit": false,
      "t": 62590.961250000415,
      "d": 261.363854166666,
      "v": 55
    },
    {
      "midi": 64,
      "hit": false,
      "t": 62590.961250000415,
      "d": 261.363854166666,
      "v": 55
    },
    {
      "midi": 69,
      "hit": false,
      "t": 62590.961250000415,
      "d": 261.363854166666,
      "v": 55
    },
    {
      "midi": 57,
      "hit": false,
      "t": 62590.961250000415,
      "d": 397.72760416667006,
      "v": 76
    },
    {
      "midi": 45,
      "hit": false,
      "t": 62590.961250000415,
      "d": 534.0913541666741,
      "v": 76
    },
    {
      "midi": 45,
      "hit": false,
      "t": 62590.96125000042,
      "d": 125.00010416666919,
      "v": 59
    },
    {
      "midi": 52,
      "hit": false,
      "t": 62590.96125000042,
      "d": 125.00010416666919,
      "v": 59
    },
    {
      "midi": 57,
      "hit": false,
      "t": 62590.96125000042,
      "d": 261.363854166666,
      "v": 59
    },
    {
      "midi": 61,
      "hit": false,
      "t": 62590.96125000042,
      "d": 261.363854166666,
      "v": 61
    },
    {
      "midi": 64,
      "hit": false,
      "t": 62590.96125000042,
      "d": 261.363854166666,
      "v": 61
    },
    {
      "midi": 69,
      "hit": false,
      "t": 62590.96125000042,
      "d": 261.363854166666,
      "v": 61
    },
    {
      "midi": 61,
      "hit": false,
      "t": 62704.59770833335,
      "d": 261.363854166666,
      "v": 64
    },
    {
      "midi": 39,
      "hit": false,
      "t": 62727.325000000164,
      "d": 261.363854166666,
      "v": 93
    },
    {
      "midi": 61,
      "hit": false,
      "t": 62863.688750000416,
      "d": 125.00010416666919,
      "v": 30
    },
    {
      "midi": 64,
      "hit": false,
      "t": 62863.688750000416,
      "d": 125.00010416666919,
      "v": 30
    },
    {
      "midi": 69,
      "hit": false,
      "t": 62863.688750000416,
      "d": 125.00010416666919,
      "v": 30
    },
    {
      "midi": 61,
      "hit": false,
      "t": 62863.68875000042,
      "d": 125.00010416666919,
      "v": 44
    },
    {
      "midi": 64,
      "hit": false,
      "t": 62863.68875000042,
      "d": 125.00010416666919,
      "v": 44
    },
    {
      "midi": 69,
      "hit": false,
      "t": 62863.68875000042,
      "d": 125.00010416666919,
      "v": 44
    },
    {
      "midi": 64,
      "hit": false,
      "t": 62977.32520833335,
      "d": 261.363854166666,
      "v": 64
    },
    {
      "midi": 40,
      "hit": false,
      "t": 63000.052500000165,
      "d": 267.04567708333343,
      "v": 93
    },
    {
      "midi": 61,
      "hit": false,
      "t": 63000.05250000042,
      "d": 125.00010416666919,
      "v": 55
    },
    {
      "midi": 64,
      "hit": false,
      "t": 63000.05250000042,
      "d": 125.00010416666919,
      "v": 55
    },
    {
      "midi": 69,
      "hit": false,
      "t": 63000.05250000042,
      "d": 125.00010416666919,
      "v": 55
    },
    {
      "midi": 61,
      "hit": false,
      "t": 63000.05250000043,
      "d": 125.00010416666919,
      "v": 61
    },
    {
      "midi": 64,
      "hit": false,
      "t": 63000.05250000043,
      "d": 125.00010416666919,
      "v": 61
    },
    {
      "midi": 69,
      "hit": false,
      "t": 63000.05250000043,
      "d": 125.00010416666919,
      "v": 61
    },
    {
      "midi": 61,
      "hit": false,
      "t": 63136.416250000424,
      "d": 113.6364583333343,
      "v": 30
    },
    {
      "midi": 64,
      "hit": false,
      "t": 63136.416250000424,
      "d": 113.6364583333343,
      "v": 30
    },
    {
      "midi": 69,
      "hit": false,
      "t": 63136.416250000424,
      "d": 113.6364583333343,
      "v": 30
    },
    {
      "midi": 61,
      "hit": false,
      "t": 63136.41625000043,
      "d": 113.6364583333343,
      "v": 44
    },
    {
      "midi": 64,
      "hit": false,
      "t": 63136.41625000043,
      "d": 113.6364583333343,
      "v": 44
    },
    {
      "midi": 69,
      "hit": false,
      "t": 63136.41625000043,
      "d": 113.6364583333343,
      "v": 44
    },
    {
      "midi": 64,
      "hit": false,
      "t": 63250.05270833335,
      "d": 1352.2738541666695,
      "v": 64
    },
    {
      "midi": 68,
      "hit": false,
      "t": 63250.05270833335,
      "d": 1352.2738541666695,
      "v": 64
    },
    {
      "midi": 71,
      "hit": false,
      "t": 63250.05270833335,
      "d": 1352.2738541666695,
      "v": 64
    },
    {
      "midi": 37,
      "hit": false,
      "t": 63272.780000000166,
      "d": 397.72760416667006,
      "v": 93
    },
    {
      "midi": 61,
      "hit": false,
      "t": 63272.78000000043,
      "d": 261.363854166666,
      "v": 55
    },
    {
      "midi": 64,
      "hit": false,
      "t": 63272.78000000043,
      "d": 261.363854166666,
      "v": 55
    },
    {
      "midi": 68,
      "hit": false,
      "t": 63272.78000000043,
      "d": 261.363854166666,
      "v": 55
    },
    {
      "midi": 49,
      "hit": false,
      "t": 63272.780000000435,
      "d": 125.00010416666919,
      "v": 59
    },
    {
      "midi": 44,
      "hit": false,
      "t": 63272.780000000435,
      "d": 261.363854166666,
      "v": 59
    },
    {
      "midi": 56,
      "hit": false,
      "t": 63272.780000000435,
      "d": 261.363854166666,
      "v": 59
    },
    {
      "midi": 61,
      "hit": false,
      "t": 63272.780000000435,
      "d": 261.363854166666,
      "v": 61
    },
    {
      "midi": 64,
      "hit": false,
      "t": 63272.780000000435,
      "d": 261.363854166666,
      "v": 61
    },
    {
      "midi": 68,
      "hit": false,
      "t": 63272.780000000435,
      "d": 261.363854166666,
      "v": 61
    },
    {
      "midi": 64,
      "hit": false,
      "t": 63284.14364583277,
      "d": 102.27281249999942,
      "v": 76
    },
    {
      "midi": 76,
      "hit": false,
      "t": 63284.14364583277,
      "d": 102.27281249999942,
      "v": 76
    },
    {
      "midi": 64,
      "hit": false,
      "t": 63420.50739583277,
      "d": 102.27281249999942,
      "v": 41
    },
    {
      "midi": 76,
      "hit": false,
      "t": 63420.50739583277,
      "d": 102.27281249999942,
      "v": 41
    },
    {
      "midi": 56,
      "hit": false,
      "t": 63545.50750000043,
      "d": 261.363854166666,
      "v": 76
    },
    {
      "midi": 61,
      "hit": false,
      "t": 63545.50750000043,
      "d": 261.363854166666,
      "v": 34
    },
    {
      "midi": 64,
      "hit": false,
      "t": 63545.50750000043,
      "d": 261.363854166666,
      "v": 34
    },
    {
      "midi": 68,
      "hit": false,
      "t": 63545.50750000043,
      "d": 261.363854166666,
      "v": 34
    },
    {
      "midi": 49,
      "hit": false,
      "t": 63545.50750000043,
      "d": 397.72760416667006,
      "v": 76
    },
    {
      "midi": 56,
      "hit": false,
      "t": 63545.507500000436,
      "d": 125.00010416666919,
      "v": 59
    },
    {
      "midi": 44,
      "hit": false,
      "t": 63545.507500000436,
      "d": 261.363854166666,
      "v": 59
    },
    {
      "midi": 49,
      "hit": false,
      "t": 63545.507500000436,
      "d": 261.363854166666,
      "v": 59
    },
    {
      "midi": 61,
      "hit": false,
      "t": 63545.507500000436,
      "d": 261.363854166666,
      "v": 44
    },
    {
      "midi": 64,
      "hit": false,
      "t": 63545.507500000436,
      "d": 261.363854166666,
      "v": 44
    },
    {
      "midi": 68,
      "hit": false,
      "t": 63545.507500000436,
      "d": 261.363854166666,
      "v": 44
    },
    {
      "midi": 64,
      "hit": false,
      "t": 63556.87114583277,
      "d": 102.27281249999942,
      "v": 41
    },
    {
      "midi": 76,
      "hit": false,
      "t": 63556.87114583277,
      "d": 102.27281249999942,
      "v": 41
    },
    {
      "midi": 37,
      "hit": false,
      "t": 63681.87125000017,
      "d": 125.00010416666919,
      "v": 93
    },
    {
      "midi": 64,
      "hit": false,
      "t": 63693.234895832764,
      "d": 102.27281249999942,
      "v": 41
    },
    {
      "midi": 76,
      "hit": false,
      "t": 63693.234895832764,
      "d": 102.27281249999942,
      "v": 41
    },
    {
      "midi": 32,
      "hit": false,
      "t": 63818.235000000175,
      "d": 397.72760416667006,
      "v": 93
    },
    {
      "midi": 61,
      "hit": false,
      "t": 63818.23500000043,
      "d": 125.00010416666919,
      "v": 49
    },
    {
      "midi": 64,
      "hit": false,
      "t": 63818.23500000043,
      "d": 125.00010416666919,
      "v": 49
    },
    {
      "midi": 68,
      "hit": false,
      "t": 63818.23500000043,
      "d": 125.00010416666919,
      "v": 49
    },
    {
      "midi": 61,
      "hit": false,
      "t": 63818.23500000044,
      "d": 125.00010416666919,
      "v": 55
    },
    {
      "midi": 64,
      "hit": false,
      "t": 63818.23500000044,
      "d": 125.00010416666919,
      "v": 55
    },
    {
      "midi": 68,
      "hit": false,
      "t": 63818.23500000044,
      "d": 125.00010416666919,
      "v": 55
    },
    {
      "midi": 64,
      "hit": false,
      "t": 63829.59864583276,
      "d": 102.27281249999942,
      "v": 41
    },
    {
      "midi": 76,
      "hit": false,
      "t": 63829.59864583276,
      "d": 102.27281249999942,
      "v": 41
    },
    {
      "midi": 49,
      "hit": false,
      "t": 63954.598750000434,
      "d": 125.00010416666919,
      "v": 76
    },
    {
      "midi": 56,
      "hit": false,
      "t": 63954.598750000434,
      "d": 125.00010416666919,
      "v": 76
    },
    {
      "midi": 61,
      "hit": false,
      "t": 63954.598750000434,
      "d": 159.09104166666657,
      "v": 30
    },
    {
      "midi": 64,
      "hit": false,
      "t": 63954.598750000434,
      "d": 159.09104166666657,
      "v": 30
    },
    {
      "midi": 68,
      "hit": false,
      "t": 63954.598750000434,
      "d": 159.09104166666657,
      "v": 30
    },
    {
      "midi": 44,
      "hit": false,
      "t": 63954.59875000044,
      "d": 125.00010416666919,
      "v": 59
    },
    {
      "midi": 49,
      "hit": false,
      "t": 63954.59875000044,
      "d": 125.00010416666919,
      "v": 59
    },
    {
      "midi": 56,
      "hit": false,
      "t": 63954.59875000044,
      "d": 125.00010416666919,
      "v": 59
    },
    {
      "midi": 61,
      "hit": false,
      "t": 63954.59875000044,
      "d": 159.09104166666657,
      "v": 44
    },
    {
      "midi": 64,
      "hit": false,
      "t": 63954.59875000044,
      "d": 159.09104166666657,
      "v": 44
    },
    {
      "midi": 68,
      "hit": false,
      "t": 63954.59875000044,
      "d": 159.09104166666657,
      "v": 44
    },
    {
      "midi": 64,
      "hit": false,
      "t": 63965.96239583276,
      "d": 102.27281249999942,
      "v": 41
    },
    {
      "midi": 76,
      "hit": false,
      "t": 63965.96239583276,
      "d": 102.27281249999942,
      "v": 41
    },
    {
      "midi": 64,
      "hit": false,
      "t": 64102.326145832754,
      "d": 102.27281249999942,
      "v": 76
    },
    {
      "midi": 76,
      "hit": false,
      "t": 64102.326145832754,
      "d": 102.27281249999942,
      "v": 76
    },
    {
      "midi": 32,
      "hit": false,
      "t": 64227.32625000018,
      "d": 125.00010416666919,
      "v": 93
    },
    {
      "midi": 61,
      "hit": false,
      "t": 64227.326250000435,
      "d": 125.00010416666919,
      "v": 30
    },
    {
      "midi": 64,
      "hit": false,
      "t": 64227.326250000435,
      "d": 125.00010416666919,
      "v": 30
    },
    {
      "midi": 68,
      "hit": false,
      "t": 64227.326250000435,
      "d": 125.00010416666919,
      "v": 30
    },
    {
      "midi": 61,
      "hit": false,
      "t": 64227.32625000044,
      "d": 125.00010416666919,
      "v": 44
    },
    {
      "midi": 64,
      "hit": false,
      "t": 64227.32625000044,
      "d": 125.00010416666919,
      "v": 44
    },
    {
      "midi": 68,
      "hit": false,
      "t": 64227.32625000044,
      "d": 125.00010416666919,
      "v": 44
    },
    {
      "midi": 64,
      "hit": false,
      "t": 64238.68989583275,
      "d": 102.27281249999942,
      "v": 41
    },
    {
      "midi": 76,
      "hit": false,
      "t": 64238.68989583275,
      "d": 102.27281249999942,
      "v": 41
    },
    {
      "midi": 37,
      "hit": false,
      "t": 64363.690000000184,
      "d": 397.72760416667006,
      "v": 93
    },
    {
      "midi": 61,
      "hit": false,
      "t": 64363.69000000044,
      "d": 125.00010416666919,
      "v": 51
    },
    {
      "midi": 64,
      "hit": false,
      "t": 64363.69000000044,
      "d": 125.00010416666919,
      "v": 51
    },
    {
      "midi": 68,
      "hit": false,
      "t": 64363.69000000044,
      "d": 125.00010416666919,
      "v": 51
    },
    {
      "midi": 56,
      "hit": false,
      "t": 64363.69000000044,
      "d": 261.36385416667326,
      "v": 76
    },
    {
      "midi": 49,
      "hit": false,
      "t": 64363.69000000044,
      "d": 397.72760416667734,
      "v": 76
    },
    {
      "midi": 61,
      "hit": false,
      "t": 64363.690000000446,
      "d": 125.00010416666919,
      "v": 57
    },
    {
      "midi": 64,
      "hit": false,
      "t": 64363.690000000446,
      "d": 125.00010416666919,
      "v": 57
    },
    {
      "midi": 68,
      "hit": false,
      "t": 64363.690000000446,
      "d": 125.00010416666919,
      "v": 57
    },
    {
      "midi": 44,
      "hit": false,
      "t": 64363.690000000446,
      "d": 261.36385416667326,
      "v": 59
    },
    {
      "midi": 49,
      "hit": false,
      "t": 64363.690000000446,
      "d": 261.36385416667326,
      "v": 59
    },
    {
      "midi": 56,
      "hit": false,
      "t": 64363.690000000446,
      "d": 397.72760416667734,
      "v": 59
    },
    {
      "midi": 64,
      "hit": false,
      "t": 64375.05364583275,
      "d": 102.27281249999942,
      "v": 41
    },
    {
      "midi": 76,
      "hit": false,
      "t": 64375.05364583275,
      "d": 102.27281249999942,
      "v": 41
    },
    {
      "midi": 61,
      "hit": false,
      "t": 64500.05375000044,
      "d": 125.00010416666919,
      "v": 30
    },
    {
      "midi": 64,
      "hit": false,
      "t": 64500.05375000044,
      "d": 125.00010416666919,
      "v": 30
    },
    {
      "midi": 68,
      "hit": false,
      "t": 64500.05375000044,
      "d": 125.00010416666919,
      "v": 30
    },
    {
      "midi": 61,
      "hit": false,
      "t": 64500.05375000045,
      "d": 125.00010416666919,
      "v": 44
    },
    {
      "midi": 64,
      "hit": false,
      "t": 64500.05375000045,
      "d": 125.00010416666919,
      "v": 44
    },
    {
      "midi": 68,
      "hit": false,
      "t": 64500.05375000045,
      "d": 125.00010416666919,
      "v": 44
    },
    {
      "midi": 64,
      "hit": false,
      "t": 64511.417395832745,
      "d": 102.27281249999942,
      "v": 41
    },
    {
      "midi": 76,
      "hit": false,
      "t": 64511.417395832745,
      "d": 102.27281249999942,
      "v": 41
    },
    {
      "midi": 61,
      "hit": false,
      "t": 64636.41750000045,
      "d": 125.00010416666919,
      "v": 30
    },
    {
      "midi": 64,
      "hit": false,
      "t": 64636.41750000045,
      "d": 125.00010416666919,
      "v": 30
    },
    {
      "midi": 68,
      "hit": false,
      "t": 64636.41750000045,
      "d": 125.00010416666919,
      "v": 30
    },
    {
      "midi": 61,
      "hit": false,
      "t": 64636.417500000454,
      "d": 125.00010416666919,
      "v": 44
    },
    {
      "midi": 64,
      "hit": false,
      "t": 64636.417500000454,
      "d": 125.00010416666919,
      "v": 44
    },
    {
      "midi": 68,
      "hit": false,
      "t": 64636.417500000454,
      "d": 125.00010416666919,
      "v": 44
    },
    {
      "midi": 64,
      "hit": false,
      "t": 64647.78114583274,
      "d": 102.27281249999942,
      "v": 41
    },
    {
      "midi": 76,
      "hit": false,
      "t": 64647.78114583274,
      "d": 102.27281249999942,
      "v": 41
    },
    {
      "midi": 64,
      "hit": false,
      "t": 64750.05395833335,
      "d": 261.363854166666,
      "v": 64
    },
    {
      "midi": 68,
      "hit": false,
      "t": 64750.05395833335,
      "d": 261.363854166666,
      "v": 64
    },
    {
      "midi": 71,
      "hit": false,
      "t": 64750.05395833335,
      "d": 261.363854166666,
      "v": 64
    },
    {
      "midi": 32,
      "hit": false,
      "t": 64772.78125000019,
      "d": 125.00010416666919,
      "v": 93
    },
    {
      "midi": 61,
      "hit": false,
      "t": 64772.78125000045,
      "d": 261.363854166666,
      "v": 51
    },
    {
      "midi": 64,
      "hit": false,
      "t": 64772.78125000045,
      "d": 261.363854166666,
      "v": 51
    },
    {
      "midi": 68,
      "hit": false,
      "t": 64772.78125000045,
      "d": 261.363854166666,
      "v": 51
    },
    {
      "midi": 56,
      "hit": false,
      "t": 64772.78125000045,
      "d": 397.72760416667006,
      "v": 76
    },
    {
      "midi": 49,
      "hit": false,
      "t": 64772.78125000045,
      "d": 670.4551041666782,
      "v": 76
    },
    {
      "midi": 44,
      "hit": false,
      "t": 64772.78125000046,
      "d": 125.00010416666919,
      "v": 59
    },
    {
      "midi": 49,
      "hit": false,
      "t": 64772.78125000046,
      "d": 125.00010416666919,
      "v": 59
    },
    {
      "midi": 56,
      "hit": false,
      "t": 64772.78125000046,
      "d": 261.363854166666,
      "v": 59
    },
    {
      "midi": 61,
      "hit": false,
      "t": 64772.78125000046,
      "d": 261.363854166666,
      "v": 57
    },
    {
      "midi": 64,
      "hit": false,
      "t": 64772.78125000046,
      "d": 261.363854166666,
      "v": 57
    },
    {
      "midi": 68,
      "hit": false,
      "t": 64772.78125000046,
      "d": 261.363854166666,
      "v": 57
    },
    {
      "midi": 64,
      "hit": false,
      "t": 64784.14489583274,
      "d": 102.27281249999942,
      "v": 41
    },
    {
      "midi": 76,
      "hit": false,
      "t": 64784.14489583274,
      "d": 102.27281249999942,
      "v": 41
    },
    {
      "midi": 37,
      "hit": false,
      "t": 64909.14500000019,
      "d": 125.00010416666919,
      "v": 93
    },
    {
      "midi": 64,
      "hit": false,
      "t": 64920.508645832735,
      "d": 102.27281249999942,
      "v": 74
    },
    {
      "midi": 76,
      "hit": false,
      "t": 64920.508645832735,
      "d": 102.27281249999942,
      "v": 74
    },
    {
      "midi": 61,
      "hit": false,
      "t": 65022.78145833335,
      "d": 125.00010416666919,
      "v": 64
    },
    {
      "midi": 64,
      "hit": false,
      "t": 65022.78145833335,
      "d": 125.00010416666919,
      "v": 64
    },
    {
      "midi": 68,
      "hit": false,
      "t": 65022.78145833335,
      "d": 125.00010416666919,
      "v": 64
    },
    {
      "midi": 32,
      "hit": false,
      "t": 65045.5087500002,
      "d": 261.363854166666,
      "v": 93
    },
    {
      "midi": 61,
      "hit": false,
      "t": 65045.50875000045,
      "d": 125.00010416666919,
      "v": 30
    },
    {
      "midi": 64,
      "hit": false,
      "t": 65045.50875000045,
      "d": 125.00010416666919,
      "v": 30
    },
    {
      "midi": 68,
      "hit": false,
      "t": 65045.50875000045,
      "d": 125.00010416666919,
      "v": 30
    },
    {
      "midi": 61,
      "hit": false,
      "t": 65045.50875000046,
      "d": 125.00010416666919,
      "v": 44
    },
    {
      "midi": 64,
      "hit": false,
      "t": 65045.50875000046,
      "d": 125.00010416666919,
      "v": 44
    },
    {
      "midi": 68,
      "hit": false,
      "t": 65045.50875000046,
      "d": 125.00010416666919,
      "v": 44
    },
    {
      "midi": 64,
      "hit": false,
      "t": 65056.87239583273,
      "d": 102.27281249999942,
      "v": 47
    },
    {
      "midi": 76,
      "hit": false,
      "t": 65056.87239583273,
      "d": 102.27281249999942,
      "v": 47
    },
    {
      "midi": 63,
      "hit": false,
      "t": 65159.14520833336,
      "d": 125.00010416666919,
      "v": 64
    },
    {
      "midi": 66,
      "hit": false,
      "t": 65159.14520833336,
      "d": 125.00010416666919,
      "v": 64
    },
    {
      "midi": 69,
      "hit": false,
      "t": 65159.14520833336,
      "d": 125.00010416666919,
      "v": 64
    },
    {
      "midi": 61,
      "hit": false,
      "t": 65181.872500000456,
      "d": 125.00010416666919,
      "v": 51
    },
    {
      "midi": 64,
      "hit": false,
      "t": 65181.872500000456,
      "d": 125.00010416666919,
      "v": 51
    },
    {
      "midi": 68,
      "hit": false,
      "t": 65181.872500000456,
      "d": 125.00010416666919,
      "v": 51
    },
    {
      "midi": 61,
      "hit": false,
      "t": 65181.87250000046,
      "d": 125.00010416666919,
      "v": 57
    },
    {
      "midi": 64,
      "hit": false,
      "t": 65181.87250000046,
      "d": 125.00010416666919,
      "v": 57
    },
    {
      "midi": 68,
      "hit": false,
      "t": 65181.87250000046,
      "d": 125.00010416666919,
      "v": 57
    },
    {
      "midi": 64,
      "hit": false,
      "t": 65193.23614583273,
      "d": 102.27281249999942,
      "v": 47
    },
    {
      "midi": 76,
      "hit": false,
      "t": 65193.23614583273,
      "d": 102.27281249999942,
      "v": 47
    },
    {
      "midi": 64,
      "hit": false,
      "t": 65295.50895833336,
      "d": 136.3637499999968,
      "v": 64
    },
    {
      "midi": 68,
      "hit": false,
      "t": 65295.50895833336,
      "d": 261.3638541666587,
      "v": 64
    },
    {
      "midi": 71,
      "hit": false,
      "t": 65295.50895833336,
      "d": 261.3638541666587,
      "v": 64
    },
    {
      "midi": 61,
      "hit": false,
      "t": 65318.23625000046,
      "d": 125.00010416666919,
      "v": 30
    },
    {
      "midi": 64,
      "hit": false,
      "t": 65318.23625000046,
      "d": 125.00010416666919,
      "v": 30
    },
    {
      "midi": 68,
      "hit": false,
      "t": 65318.23625000046,
      "d": 125.00010416666919,
      "v": 30
    },
    {
      "midi": 44,
      "hit": false,
      "t": 65318.23625000047,
      "d": 125.00010416666919,
      "v": 59
    },
    {
      "midi": 49,
      "hit": false,
      "t": 65318.23625000047,
      "d": 125.00010416666919,
      "v": 59
    },
    {
      "midi": 61,
      "hit": false,
      "t": 65318.23625000047,
      "d": 125.00010416666919,
      "v": 44
    },
    {
      "midi": 64,
      "hit": false,
      "t": 65318.23625000047,
      "d": 125.00010416666919,
      "v": 44
    },
    {
      "midi": 68,
      "hit": false,
      "t": 65318.23625000047,
      "d": 125.00010416666919,
      "v": 44
    },
    {
      "midi": 64,
      "hit": false,
      "t": 65329.599895832725,
      "d": 102.27281249999942,
      "v": 47
    },
    {
      "midi": 76,
      "hit": false,
      "t": 65329.599895832725,
      "d": 102.27281249999942,
      "v": 47
    },
    {
      "midi": 64,
      "hit": false,
      "t": 65431.87270833336,
      "d": 125.00010416666191,
      "v": 64
    },
    {
      "midi": 61,
      "hit": false,
      "t": 65431.87270833336,
      "d": 261.363854166666,
      "v": 64
    },
    {
      "midi": 69,
      "hit": false,
      "t": 65431.87270833336,
      "d": 261.363854166666,
      "v": 64
    },
    {
      "midi": 33,
      "hit": false,
      "t": 65454.600000000195,
      "d": 397.7276041666628,
      "v": 93
    },
    {
      "midi": 61,
      "hit": false,
      "t": 65454.600000000464,
      "d": 261.363854166666,
      "v": 59
    },
    {
      "midi": 64,
      "hit": false,
      "t": 65454.600000000464,
      "d": 261.363854166666,
      "v": 59
    },
    {
      "midi": 69,
      "hit": false,
      "t": 65454.600000000464,
      "d": 261.363854166666,
      "v": 59
    },
    {
      "midi": 45,
      "hit": false,
      "t": 65454.60000000047,
      "d": 261.36385416667326,
      "v": 59
    },
    {
      "midi": 52,
      "hit": false,
      "t": 65454.60000000047,
      "d": 261.36385416667326,
      "v": 59
    },
    {
      "midi": 57,
      "hit": false,
      "t": 65454.60000000047,
      "d": 261.36385416667326,
      "v": 59
    },
    {
      "midi": 61,
      "hit": false,
      "t": 65454.60000000047,
      "d": 261.36385416667326,
      "v": 65
    },
    {
      "midi": 64,
      "hit": false,
      "t": 65454.60000000047,
      "d": 261.36385416667326,
      "v": 65
    },
    {
      "midi": 69,
      "hit": false,
      "t": 65454.60000000047,
      "d": 261.36385416667326,
      "v": 65
    },
    {
      "midi": 57,
      "hit": false,
      "t": 65727.32750000047,
      "d": 261.36385416667326,
      "v": 76
    },
    {
      "midi": 61,
      "hit": false,
      "t": 65727.32750000047,
      "d": 261.36385416667326,
      "v": 43
    },
    {
      "midi": 64,
      "hit": false,
      "t": 65727.32750000047,
      "d": 261.36385416667326,
      "v": 43
    },
    {
      "midi": 69,
      "hit": false,
      "t": 65727.32750000047,
      "d": 261.36385416667326,
      "v": 43
    },
    {
      "midi": 45,
      "hit": false,
      "t": 65727.32750000047,
      "d": 534.0913541666814,
      "v": 76
    },
    {
      "midi": 45,
      "hit": false,
      "t": 65727.32750000048,
      "d": 261.36385416667326,
      "v": 59
    },
    {
      "midi": 52,
      "hit": false,
      "t": 65727.32750000048,
      "d": 261.36385416667326,
      "v": 59
    },
    {
      "midi": 57,
      "hit": false,
      "t": 65727.32750000048,
      "d": 261.36385416667326,
      "v": 59
    },
    {
      "midi": 61,
      "hit": false,
      "t": 65727.32750000048,
      "d": 261.36385416667326,
      "v": 49
    },
    {
      "midi": 64,
      "hit": false,
      "t": 65727.32750000048,
      "d": 261.36385416667326,
      "v": 49
    },
    {
      "midi": 69,
      "hit": false,
      "t": 65727.32750000048,
      "d": 261.36385416667326,
      "v": 49
    },
    {
      "midi": 61,
      "hit": false,
      "t": 65840.96395833336,
      "d": 261.36385416667326,
      "v": 64
    },
    {
      "midi": 64,
      "hit": false,
      "t": 65840.96395833336,
      "d": 261.36385416667326,
      "v": 64
    },
    {
      "midi": 69,
      "hit": false,
      "t": 65840.96395833336,
      "d": 261.36385416667326,
      "v": 64
    },
    {
      "midi": 33,
      "hit": false,
      "t": 65863.69125000019,
      "d": 125.00010416666919,
      "v": 93
    },
    {
      "midi": 35,
      "hit": false,
      "t": 66000.0550000002,
      "d": 397.7276041666628,
      "v": 93
    },
    {
      "midi": 61,
      "hit": false,
      "t": 66000.05500000047,
      "d": 125.00010416666919,
      "v": 59
    },
    {
      "midi": 64,
      "hit": false,
      "t": 66000.05500000047,
      "d": 125.00010416666919,
      "v": 59
    },
    {
      "midi": 69,
      "hit": false,
      "t": 66000.05500000047,
      "d": 125.00010416666919,
      "v": 59
    },
    {
      "midi": 61,
      "hit": false,
      "t": 66000.05500000049,
      "d": 125.00010416666919,
      "v": 65
    },
    {
      "midi": 64,
      "hit": false,
      "t": 66000.05500000049,
      "d": 125.00010416666919,
      "v": 65
    },
    {
      "midi": 69,
      "hit": false,
      "t": 66000.05500000049,
      "d": 125.00010416666919,
      "v": 65
    },
    {
      "midi": 61,
      "hit": false,
      "t": 66136.41875000048,
      "d": 125.00010416666919,
      "v": 30
    },
    {
      "midi": 69,
      "hit": false,
      "t": 66136.41875000048,
      "d": 125.00010416666919,
      "v": 30
    },
    {
      "midi": 64,
      "hit": false,
      "t": 66136.41875000048,
      "d": 147.72739583333896,
      "v": 30
    },
    {
      "midi": 57,
      "hit": false,
      "t": 66136.41875000048,
      "d": 261.36385416667326,
      "v": 76
    },
    {
      "midi": 45,
      "hit": false,
      "t": 66136.41875000049,
      "d": 125.00010416666919,
      "v": 59
    },
    {
      "midi": 52,
      "hit": false,
      "t": 66136.41875000049,
      "d": 125.00010416666919,
      "v": 59
    },
    {
      "midi": 61,
      "hit": false,
      "t": 66136.41875000049,
      "d": 125.00010416666919,
      "v": 44
    },
    {
      "midi": 69,
      "hit": false,
      "t": 66136.41875000049,
      "d": 125.00010416666919,
      "v": 44
    },
    {
      "midi": 64,
      "hit": false,
      "t": 66136.41875000049,
      "d": 147.72739583333896,
      "v": 44
    },
    {
      "midi": 57,
      "hit": false,
      "t": 66136.41875000049,
      "d": 261.36385416667326,
      "v": 59
    },
    {
      "midi": 35,
      "hit": false,
      "t": 66409.1462500002,
      "d": 125.00010416666919,
      "v": 93
    },
    {
      "midi": 61,
      "hit": false,
      "t": 66409.14625000049,
      "d": 125.00010416666919,
      "v": 30
    },
    {
      "midi": 64,
      "hit": false,
      "t": 66409.14625000049,
      "d": 125.00010416666919,
      "v": 30
    },
    {
      "midi": 69,
      "hit": false,
      "t": 66409.14625000049,
      "d": 125.00010416666919,
      "v": 30
    },
    {
      "midi": 61,
      "hit": false,
      "t": 66409.1462500005,
      "d": 125.00010416666919,
      "v": 44
    },
    {
      "midi": 64,
      "hit": false,
      "t": 66409.1462500005,
      "d": 125.00010416666919,
      "v": 44
    },
    {
      "midi": 69,
      "hit": false,
      "t": 66409.1462500005,
      "d": 125.00010416666919,
      "v": 44
    },
    {
      "midi": 37,
      "hit": false,
      "t": 66545.5100000002,
      "d": 125.00010416666919,
      "v": 93
    },
    {
      "midi": 61,
      "hit": false,
      "t": 66545.51000000049,
      "d": 125.00010416666919,
      "v": 59
    },
    {
      "midi": 64,
      "hit": false,
      "t": 66545.51000000049,
      "d": 125.00010416666919,
      "v": 59
    },
    {
      "midi": 69,
      "hit": false,
      "t": 66545.51000000049,
      "d": 125.00010416666919,
      "v": 59
    },
    {
      "midi": 57,
      "hit": false,
      "t": 66545.51000000049,
      "d": 261.36385416667326,
      "v": 76
    },
    {
      "midi": 45,
      "hit": false,
      "t": 66545.51000000049,
      "d": 397.72760416667734,
      "v": 76
    },
    {
      "midi": 61,
      "hit": false,
      "t": 66545.5100000005,
      "d": 125.00010416666919,
      "v": 65
    },
    {
      "midi": 64,
      "hit": false,
      "t": 66545.5100000005,
      "d": 125.00010416666919,
      "v": 65
    },
    {
      "midi": 69,
      "hit": false,
      "t": 66545.5100000005,
      "d": 125.00010416666919,
      "v": 65
    },
    {
      "midi": 45,
      "hit": false,
      "t": 66545.5100000005,
      "d": 261.36385416667326,
      "v": 59
    },
    {
      "midi": 52,
      "hit": false,
      "t": 66545.5100000005,
      "d": 261.36385416667326,
      "v": 59
    },
    {
      "midi": 57,
      "hit": false,
      "t": 66545.5100000005,
      "d": 261.36385416667326,
      "v": 59
    },
    {
      "midi": 61,
      "hit": false,
      "t": 66681.8737500005,
      "d": 125.00010416666919,
      "v": 30
    },
    {
      "midi": 64,
      "hit": false,
      "t": 66681.8737500005,
      "d": 125.00010416666919,
      "v": 30
    },
    {
      "midi": 69,
      "hit": false,
      "t": 66681.8737500005,
      "d": 125.00010416666919,
      "v": 30
    },
    {
      "midi": 61,
      "hit": false,
      "t": 66681.87375000051,
      "d": 125.00010416666919,
      "v": 44
    },
    {
      "midi": 64,
      "hit": false,
      "t": 66681.87375000051,
      "d": 125.00010416666919,
      "v": 44
    },
    {
      "midi": 69,
      "hit": false,
      "t": 66681.87375000051,
      "d": 125.00010416666919,
      "v": 44
    },
    {
      "midi": 37,
      "hit": false,
      "t": 66818.2375000002,
      "d": 261.36385416667326,
      "v": 93
    },
    {
      "midi": 61,
      "hit": false,
      "t": 66818.2375000005,
      "d": 125.00010416666919,
      "v": 30
    },
    {
      "midi": 64,
      "hit": false,
      "t": 66818.2375000005,
      "d": 125.00010416666919,
      "v": 30
    },
    {
      "midi": 69,
      "hit": false,
      "t": 66818.2375000005,
      "d": 125.00010416666919,
      "v": 30
    },
    {
      "midi": 61,
      "hit": false,
      "t": 66818.23750000051,
      "d": 125.00010416666919,
      "v": 44
    },
    {
      "midi": 64,
      "hit": false,
      "t": 66818.23750000051,
      "d": 125.00010416666919,
      "v": 44
    },
    {
      "midi": 69,
      "hit": false,
      "t": 66818.23750000051,
      "d": 125.00010416666919,
      "v": 44
    },
    {
      "midi": 61,
      "hit": false,
      "t": 66954.6012500005,
      "d": 261.36385416667326,
      "v": 55
    },
    {
      "midi": 64,
      "hit": false,
      "t": 66954.6012500005,
      "d": 261.36385416667326,
      "v": 55
    },
    {
      "midi": 69,
      "hit": false,
      "t": 66954.6012500005,
      "d": 261.36385416667326,
      "v": 55
    },
    {
      "midi": 57,
      "hit": false,
      "t": 66954.6012500005,
      "d": 397.72760416667734,
      "v": 76
    },
    {
      "midi": 45,
      "hit": false,
      "t": 66954.6012500005,
      "d": 659.0914583333506,
      "v": 76
    },
    {
      "midi": 45,
      "hit": false,
      "t": 66954.60125000052,
      "d": 125.00010416666919,
      "v": 59
    },
    {
      "midi": 52,
      "hit": false,
      "t": 66954.60125000052,
      "d": 125.00010416666919,
      "v": 59
    },
    {
      "midi": 57,
      "hit": false,
      "t": 66954.60125000052,
      "d": 261.36385416667326,
      "v": 59
    },
    {
      "midi": 61,
      "hit": false,
      "t": 66954.60125000052,
      "d": 261.36385416667326,
      "v": 61
    },
    {
      "midi": 64,
      "hit": false,
      "t": 66954.60125000052,
      "d": 261.36385416667326,
      "v": 61
    },
    {
      "midi": 69,
      "hit": false,
      "t": 66954.60125000052,
      "d": 261.36385416667326,
      "v": 61
    },
    {
      "midi": 61,
      "hit": false,
      "t": 67068.23770833337,
      "d": 261.36385416667326,
      "v": 64
    },
    {
      "midi": 39,
      "hit": false,
      "t": 67090.96500000021,
      "d": 261.36385416667326,
      "v": 93
    },
    {
      "midi": 61,
      "hit": false,
      "t": 67227.32875000051,
      "d": 125.00010416666919,
      "v": 30
    },
    {
      "midi": 64,
      "hit": false,
      "t": 67227.32875000051,
      "d": 125.00010416666919,
      "v": 30
    },
    {
      "midi": 69,
      "hit": false,
      "t": 67227.32875000051,
      "d": 125.00010416666919,
      "v": 30
    },
    {
      "midi": 61,
      "hit": false,
      "t": 67227.32875000052,
      "d": 125.00010416666919,
      "v": 44
    },
    {
      "midi": 64,
      "hit": false,
      "t": 67227.32875000052,
      "d": 125.00010416666919,
      "v": 44
    },
    {
      "midi": 69,
      "hit": false,
      "t": 67227.32875000052,
      "d": 125.00010416666919,
      "v": 44
    },
    {
      "midi": 64,
      "hit": false,
      "t": 67340.96520833338,
      "d": 261.36385416667326,
      "v": 64
    },
    {
      "midi": 40,
      "hit": false,
      "t": 67363.69250000022,
      "d": 125.00010416666919,
      "v": 93
    },
    {
      "midi": 61,
      "hit": false,
      "t": 67363.69250000051,
      "d": 125.00010416666919,
      "v": 55
    },
    {
      "midi": 64,
      "hit": false,
      "t": 67363.69250000051,
      "d": 125.00010416666919,
      "v": 55
    },
    {
      "midi": 69,
      "hit": false,
      "t": 67363.69250000051,
      "d": 125.00010416666919,
      "v": 55
    },
    {
      "midi": 61,
      "hit": false,
      "t": 67363.69250000053,
      "d": 125.00010416666919,
      "v": 61
    },
    {
      "midi": 64,
      "hit": false,
      "t": 67363.69250000053,
      "d": 125.00010416666919,
      "v": 61
    },
    {
      "midi": 69,
      "hit": false,
      "t": 67363.69250000053,
      "d": 125.00010416666919,
      "v": 61
    },
    {
      "midi": 61,
      "hit": false,
      "t": 67500.05625000052,
      "d": 113.6364583333343,
      "v": 30
    },
    {
      "midi": 64,
      "hit": false,
      "t": 67500.05625000052,
      "d": 113.6364583333343,
      "v": 30
    },
    {
      "midi": 69,
      "hit": false,
      "t": 67500.05625000052,
      "d": 113.6364583333343,
      "v": 30
    },
    {
      "midi": 61,
      "hit": false,
      "t": 67500.05625000053,
      "d": 113.6364583333343,
      "v": 44
    },
    {
      "midi": 64,
      "hit": false,
      "t": 67500.05625000053,
      "d": 113.6364583333343,
      "v": 44
    },
    {
      "midi": 69,
      "hit": false,
      "t": 67500.05625000053,
      "d": 113.6364583333343,
      "v": 44
    },
    {
      "midi": 64,
      "hit": false,
      "t": 67613.69270833339,
      "d": 1352.2738541666622,
      "v": 64
    },
    {
      "midi": 68,
      "hit": false,
      "t": 67613.69270833339,
      "d": 1352.2738541666622,
      "v": 64
    },
    {
      "midi": 71,
      "hit": false,
      "t": 67613.69270833339,
      "d": 1352.2738541666622,
      "v": 64
    },
    {
      "midi": 37,
      "hit": false,
      "t": 67636.42000000023,
      "d": 397.7276041666628,
      "v": 93
    },
    {
      "midi": 61,
      "hit": false,
      "t": 67636.42000000052,
      "d": 261.36385416667326,
      "v": 55
    },
    {
      "midi": 64,
      "hit": false,
      "t": 67636.42000000052,
      "d": 261.36385416667326,
      "v": 55
    },
    {
      "midi": 68,
      "hit": false,
      "t": 67636.42000000052,
      "d": 261.36385416667326,
      "v": 55
    },
    {
      "midi": 49,
      "hit": false,
      "t": 67636.42000000054,
      "d": 125.00010416666919,
      "v": 59
    },
    {
      "midi": 44,
      "hit": false,
      "t": 67636.42000000054,
      "d": 261.36385416667326,
      "v": 59
    },
    {
      "midi": 56,
      "hit": false,
      "t": 67636.42000000054,
      "d": 261.36385416667326,
      "v": 59
    },
    {
      "midi": 61,
      "hit": false,
      "t": 67636.42000000054,
      "d": 261.36385416667326,
      "v": 61
    },
    {
      "midi": 64,
      "hit": false,
      "t": 67636.42000000054,
      "d": 261.36385416667326,
      "v": 61
    },
    {
      "midi": 68,
      "hit": false,
      "t": 67636.42000000054,
      "d": 261.36385416667326,
      "v": 61
    },
    {
      "midi": 64,
      "hit": false,
      "t": 67647.78364583272,
      "d": 102.27281249999942,
      "v": 76
    },
    {
      "midi": 76,
      "hit": false,
      "t": 67647.78364583272,
      "d": 102.27281249999942,
      "v": 76
    },
    {
      "midi": 64,
      "hit": false,
      "t": 67784.14739583273,
      "d": 102.27281249999942,
      "v": 41
    },
    {
      "midi": 76,
      "hit": false,
      "t": 67784.14739583273,
      "d": 102.27281249999942,
      "v": 41
    },
    {
      "midi": 56,
      "hit": false,
      "t": 67909.14750000053,
      "d": 261.36385416667326,
      "v": 76
    },
    {
      "midi": 61,
      "hit": false,
      "t": 67909.14750000053,
      "d": 261.36385416667326,
      "v": 30
    },
    {
      "midi": 64,
      "hit": false,
      "t": 67909.14750000053,
      "d": 261.36385416667326,
      "v": 30
    },
    {
      "midi": 68,
      "hit": false,
      "t": 67909.14750000053,
      "d": 261.36385416667326,
      "v": 30
    },
    {
      "midi": 49,
      "hit": false,
      "t": 67909.14750000053,
      "d": 670.4551041666855,
      "v": 76
    },
    {
      "midi": 56,
      "hit": false,
      "t": 67909.14750000054,
      "d": 125.00010416666919,
      "v": 59
    },
    {
      "midi": 44,
      "hit": false,
      "t": 67909.14750000054,
      "d": 261.36385416667326,
      "v": 59
    },
    {
      "midi": 49,
      "hit": false,
      "t": 67909.14750000054,
      "d": 261.36385416667326,
      "v": 59
    },
    {
      "midi": 61,
      "hit": false,
      "t": 67909.14750000054,
      "d": 261.36385416667326,
      "v": 44
    },
    {
      "midi": 64,
      "hit": false,
      "t": 67909.14750000054,
      "d": 261.36385416667326,
      "v": 44
    },
    {
      "midi": 68,
      "hit": false,
      "t": 67909.14750000054,
      "d": 261.36385416667326,
      "v": 44
    },
    {
      "midi": 64,
      "hit": false,
      "t": 67920.51114583273,
      "d": 102.27281249999942,
      "v": 41
    },
    {
      "midi": 76,
      "hit": false,
      "t": 67920.51114583273,
      "d": 102.27281249999942,
      "v": 41
    },
    {
      "midi": 37,
      "hit": false,
      "t": 68045.51125000023,
      "d": 125.00010416666919,
      "v": 93
    },
    {
      "midi": 64,
      "hit": false,
      "t": 68056.87489583273,
      "d": 102.27281249999942,
      "v": 41
    },
    {
      "midi": 76,
      "hit": false,
      "t": 68056.87489583273,
      "d": 102.27281249999942,
      "v": 41
    },
    {
      "midi": 32,
      "hit": false,
      "t": 68181.87500000023,
      "d": 397.7276041666628,
      "v": 93
    },
    {
      "midi": 61,
      "hit": false,
      "t": 68181.87500000054,
      "d": 125.00010416666919,
      "v": 51
    },
    {
      "midi": 64,
      "hit": false,
      "t": 68181.87500000054,
      "d": 125.00010416666919,
      "v": 51
    },
    {
      "midi": 68,
      "hit": false,
      "t": 68181.87500000054,
      "d": 125.00010416666919,
      "v": 51
    },
    {
      "midi": 61,
      "hit": false,
      "t": 68181.87500000055,
      "d": 125.00010416666919,
      "v": 57
    },
    {
      "midi": 64,
      "hit": false,
      "t": 68181.87500000055,
      "d": 125.00010416666919,
      "v": 57
    },
    {
      "midi": 68,
      "hit": false,
      "t": 68181.87500000055,
      "d": 125.00010416666919,
      "v": 57
    },
    {
      "midi": 64,
      "hit": false,
      "t": 68193.23864583274,
      "d": 102.27281249999942,
      "v": 41
    },
    {
      "midi": 76,
      "hit": false,
      "t": 68193.23864583274,
      "d": 102.27281249999942,
      "v": 41
    },
    {
      "midi": 56,
      "hit": false,
      "t": 68318.23875000054,
      "d": 125.00010416666919,
      "v": 76
    },
    {
      "midi": 61,
      "hit": false,
      "t": 68318.23875000054,
      "d": 159.09104166667385,
      "v": 30
    },
    {
      "midi": 64,
      "hit": false,
      "t": 68318.23875000054,
      "d": 159.09104166667385,
      "v": 30
    },
    {
      "midi": 68,
      "hit": false,
      "t": 68318.23875000054,
      "d": 159.09104166667385,
      "v": 30
    },
    {
      "midi": 44,
      "hit": false,
      "t": 68318.23875000056,
      "d": 125.00010416666919,
      "v": 59
    },
    {
      "midi": 49,
      "hit": false,
      "t": 68318.23875000056,
      "d": 125.00010416666919,
      "v": 59
    },
    {
      "midi": 56,
      "hit": false,
      "t": 68318.23875000056,
      "d": 125.00010416666919,
      "v": 59
    },
    {
      "midi": 61,
      "hit": false,
      "t": 68318.23875000056,
      "d": 159.09104166667385,
      "v": 44
    },
    {
      "midi": 64,
      "hit": false,
      "t": 68318.23875000056,
      "d": 159.09104166667385,
      "v": 44
    },
    {
      "midi": 68,
      "hit": false,
      "t": 68318.23875000056,
      "d": 159.09104166667385,
      "v": 44
    },
    {
      "midi": 64,
      "hit": false,
      "t": 68329.60239583274,
      "d": 102.27281249999942,
      "v": 41
    },
    {
      "midi": 76,
      "hit": false,
      "t": 68329.60239583274,
      "d": 102.27281249999942,
      "v": 41
    },
    {
      "midi": 64,
      "hit": false,
      "t": 68465.96614583275,
      "d": 102.27281249999942,
      "v": 76
    },
    {
      "midi": 76,
      "hit": false,
      "t": 68465.96614583275,
      "d": 102.27281249999942,
      "v": 76
    },
    {
      "midi": 32,
      "hit": false,
      "t": 68590.96625000023,
      "d": 125.00010416666919,
      "v": 93
    },
    {
      "midi": 61,
      "hit": false,
      "t": 68590.96625000055,
      "d": 125.00010416666919,
      "v": 30
    },
    {
      "midi": 64,
      "hit": false,
      "t": 68590.96625000055,
      "d": 125.00010416666919,
      "v": 30
    },
    {
      "midi": 68,
      "hit": false,
      "t": 68590.96625000055,
      "d": 125.00010416666919,
      "v": 30
    },
    {
      "midi": 61,
      "hit": false,
      "t": 68590.96625000057,
      "d": 125.00010416666919,
      "v": 44
    },
    {
      "midi": 64,
      "hit": false,
      "t": 68590.96625000057,
      "d": 125.00010416666919,
      "v": 44
    },
    {
      "midi": 68,
      "hit": false,
      "t": 68590.96625000057,
      "d": 125.00010416666919,
      "v": 44
    },
    {
      "midi": 64,
      "hit": false,
      "t": 68602.32989583275,
      "d": 102.27281249999942,
      "v": 41
    },
    {
      "midi": 76,
      "hit": false,
      "t": 68602.32989583275,
      "d": 102.27281249999942,
      "v": 41
    },
    {
      "midi": 37,
      "hit": false,
      "t": 68727.33000000023,
      "d": 397.7276041666628,
      "v": 93
    },
    {
      "midi": 61,
      "hit": false,
      "t": 68727.33000000055,
      "d": 125.00010416666919,
      "v": 51
    },
    {
      "midi": 64,
      "hit": false,
      "t": 68727.33000000055,
      "d": 125.00010416666919,
      "v": 51
    },
    {
      "midi": 68,
      "hit": false,
      "t": 68727.33000000055,
      "d": 125.00010416666919,
      "v": 51
    },
    {
      "midi": 56,
      "hit": false,
      "t": 68727.33000000055,
      "d": 261.36385416667326,
      "v": 76
    },
    {
      "midi": 49,
      "hit": false,
      "t": 68727.33000000055,
      "d": 397.72760416667734,
      "v": 76
    },
    {
      "midi": 61,
      "hit": false,
      "t": 68727.33000000057,
      "d": 125.00010416666919,
      "v": 57
    },
    {
      "midi": 64,
      "hit": false,
      "t": 68727.33000000057,
      "d": 125.00010416666919,
      "v": 57
    },
    {
      "midi": 68,
      "hit": false,
      "t": 68727.33000000057,
      "d": 125.00010416666919,
      "v": 57
    },
    {
      "midi": 44,
      "hit": false,
      "t": 68727.33000000057,
      "d": 261.36385416667326,
      "v": 59
    },
    {
      "midi": 49,
      "hit": false,
      "t": 68727.33000000057,
      "d": 261.36385416667326,
      "v": 59
    },
    {
      "midi": 56,
      "hit": false,
      "t": 68727.33000000057,
      "d": 397.72760416667734,
      "v": 59
    },
    {
      "midi": 64,
      "hit": false,
      "t": 68738.69364583275,
      "d": 102.27281249999942,
      "v": 41
    },
    {
      "midi": 76,
      "hit": false,
      "t": 68738.69364583275,
      "d": 102.27281249999942,
      "v": 41
    },
    {
      "midi": 61,
      "hit": false,
      "t": 68863.69375000056,
      "d": 125.00010416666919,
      "v": 30
    },
    {
      "midi": 64,
      "hit": false,
      "t": 68863.69375000056,
      "d": 125.00010416666919,
      "v": 30
    },
    {
      "midi": 68,
      "hit": false,
      "t": 68863.69375000056,
      "d": 125.00010416666919,
      "v": 30
    },
    {
      "midi": 61,
      "hit": false,
      "t": 68863.69375000057,
      "d": 125.00010416666919,
      "v": 44
    },
    {
      "midi": 64,
      "hit": false,
      "t": 68863.69375000057,
      "d": 125.00010416666919,
      "v": 44
    },
    {
      "midi": 68,
      "hit": false,
      "t": 68863.69375000057,
      "d": 125.00010416666919,
      "v": 44
    },
    {
      "midi": 64,
      "hit": false,
      "t": 68875.05739583276,
      "d": 102.27281249999942,
      "v": 41
    },
    {
      "midi": 76,
      "hit": false,
      "t": 68875.05739583276,
      "d": 102.27281249999942,
      "v": 41
    },
    {
      "midi": 61,
      "hit": false,
      "t": 69000.05750000056,
      "d": 125.00010416666919,
      "v": 30
    },
    {
      "midi": 64,
      "hit": false,
      "t": 69000.05750000056,
      "d": 125.00010416666919,
      "v": 30
    },
    {
      "midi": 68,
      "hit": false,
      "t": 69000.05750000056,
      "d": 125.00010416666919,
      "v": 30
    },
    {
      "midi": 61,
      "hit": false,
      "t": 69000.05750000058,
      "d": 125.00010416666919,
      "v": 44
    },
    {
      "midi": 64,
      "hit": false,
      "t": 69000.05750000058,
      "d": 125.00010416666919,
      "v": 44
    },
    {
      "midi": 68,
      "hit": false,
      "t": 69000.05750000058,
      "d": 125.00010416666919,
      "v": 44
    },
    {
      "midi": 64,
      "hit": false,
      "t": 69011.42114583276,
      "d": 102.27281249999942,
      "v": 41
    },
    {
      "midi": 76,
      "hit": false,
      "t": 69011.42114583276,
      "d": 102.27281249999942,
      "v": 41
    },
    {
      "midi": 64,
      "hit": false,
      "t": 69113.69395833339,
      "d": 261.36385416667326,
      "v": 64
    },
    {
      "midi": 68,
      "hit": false,
      "t": 69113.69395833339,
      "d": 261.36385416667326,
      "v": 64
    },
    {
      "midi": 71,
      "hit": false,
      "t": 69113.69395833339,
      "d": 261.36385416667326,
      "v": 64
    },
    {
      "midi": 32,
      "hit": false,
      "t": 69136.42125000023,
      "d": 125.00010416666919,
      "v": 93
    },
    {
      "midi": 56,
      "hit": false,
      "t": 69136.42125000057,
      "d": 261.36385416667326,
      "v": 76
    },
    {
      "midi": 61,
      "hit": false,
      "t": 69136.42125000057,
      "d": 261.36385416667326,
      "v": 51
    },
    {
      "midi": 64,
      "hit": false,
      "t": 69136.42125000057,
      "d": 261.36385416667326,
      "v": 51
    },
    {
      "midi": 68,
      "hit": false,
      "t": 69136.42125000057,
      "d": 261.36385416667326,
      "v": 51
    },
    {
      "midi": 49,
      "hit": false,
      "t": 69136.42125000057,
      "d": 534.0913541666814,
      "v": 76
    },
    {
      "midi": 44,
      "hit": false,
      "t": 69136.42125000058,
      "d": 125.00010416666919,
      "v": 59
    },
    {
      "midi": 49,
      "hit": false,
      "t": 69136.42125000058,
      "d": 125.00010416666919,
      "v": 59
    },
    {
      "midi": 56,
      "hit": false,
      "t": 69136.42125000058,
      "d": 261.36385416667326,
      "v": 59
    },
    {
      "midi": 61,
      "hit": false,
      "t": 69136.42125000058,
      "d": 261.36385416667326,
      "v": 57
    },
    {
      "midi": 64,
      "hit": false,
      "t": 69136.42125000058,
      "d": 261.36385416667326,
      "v": 57
    },
    {
      "midi": 68,
      "hit": false,
      "t": 69136.42125000058,
      "d": 261.36385416667326,
      "v": 57
    },
    {
      "midi": 64,
      "hit": false,
      "t": 69147.78489583277,
      "d": 102.27281249999942,
      "v": 41
    },
    {
      "midi": 76,
      "hit": false,
      "t": 69147.78489583277,
      "d": 102.27281249999942,
      "v": 41
    },
    {
      "midi": 37,
      "hit": false,
      "t": 69272.78500000024,
      "d": 125.00010416666919,
      "v": 93
    },
    {
      "midi": 64,
      "hit": false,
      "t": 69284.14864583277,
      "d": 102.27281249999942,
      "v": 74
    },
    {
      "midi": 76,
      "hit": false,
      "t": 69284.14864583277,
      "d": 102.27281249999942,
      "v": 74
    },
    {
      "midi": 61,
      "hit": false,
      "t": 69386.4214583334,
      "d": 125.00010416666919,
      "v": 64
    },
    {
      "midi": 64,
      "hit": false,
      "t": 69386.4214583334,
      "d": 125.00010416666919,
      "v": 64
    },
    {
      "midi": 68,
      "hit": false,
      "t": 69386.4214583334,
      "d": 125.00010416666919,
      "v": 64
    },
    {
      "midi": 32,
      "hit": false,
      "t": 69409.14875000024,
      "d": 261.36385416667326,
      "v": 93
    },
    {
      "midi": 61,
      "hit": false,
      "t": 69409.14875000058,
      "d": 125.00010416666919,
      "v": 30
    },
    {
      "midi": 64,
      "hit": false,
      "t": 69409.14875000058,
      "d": 125.00010416666919,
      "v": 30
    },
    {
      "midi": 68,
      "hit": false,
      "t": 69409.14875000058,
      "d": 125.00010416666919,
      "v": 30
    },
    {
      "midi": 61,
      "hit": false,
      "t": 69409.14875000059,
      "d": 125.00010416666919,
      "v": 44
    },
    {
      "midi": 64,
      "hit": false,
      "t": 69409.14875000059,
      "d": 125.00010416666919,
      "v": 44
    },
    {
      "midi": 68,
      "hit": false,
      "t": 69409.14875000059,
      "d": 125.00010416666919,
      "v": 44
    },
    {
      "midi": 64,
      "hit": false,
      "t": 69420.51239583277,
      "d": 102.27281249999942,
      "v": 47
    },
    {
      "midi": 76,
      "hit": false,
      "t": 69420.51239583277,
      "d": 102.27281249999942,
      "v": 47
    },
    {
      "midi": 63,
      "hit": false,
      "t": 69522.7852083334,
      "d": 125.00010416666919,
      "v": 64
    },
    {
      "midi": 66,
      "hit": false,
      "t": 69522.7852083334,
      "d": 125.00010416666919,
      "v": 64
    },
    {
      "midi": 69,
      "hit": false,
      "t": 69522.7852083334,
      "d": 125.00010416666919,
      "v": 64
    },
    {
      "midi": 61,
      "hit": false,
      "t": 69545.51250000058,
      "d": 125.00010416666919,
      "v": 51
    },
    {
      "midi": 64,
      "hit": false,
      "t": 69545.51250000058,
      "d": 125.00010416666919,
      "v": 51
    },
    {
      "midi": 68,
      "hit": false,
      "t": 69545.51250000058,
      "d": 125.00010416666919,
      "v": 51
    },
    {
      "midi": 61,
      "hit": false,
      "t": 69545.5125000006,
      "d": 125.00010416666919,
      "v": 57
    },
    {
      "midi": 64,
      "hit": false,
      "t": 69545.5125000006,
      "d": 125.00010416666919,
      "v": 57
    },
    {
      "midi": 68,
      "hit": false,
      "t": 69545.5125000006,
      "d": 125.00010416666919,
      "v": 57
    },
    {
      "midi": 64,
      "hit": false,
      "t": 69556.87614583278,
      "d": 102.27281249999942,
      "v": 47
    },
    {
      "midi": 76,
      "hit": false,
      "t": 69556.87614583278,
      "d": 102.27281249999942,
      "v": 47
    },
    {
      "midi": 64,
      "hit": false,
      "t": 69659.1489583334,
      "d": 136.36375000000407,
      "v": 64
    },
    {
      "midi": 68,
      "hit": false,
      "t": 69659.1489583334,
      "d": 261.36385416667326,
      "v": 64
    },
    {
      "midi": 71,
      "hit": false,
      "t": 69659.1489583334,
      "d": 261.36385416667326,
      "v": 64
    },
    {
      "midi": 61,
      "hit": false,
      "t": 69681.87625000058,
      "d": 113.6364583333343,
      "v": 30
    },
    {
      "midi": 64,
      "hit": false,
      "t": 69681.87625000058,
      "d": 113.6364583333343,
      "v": 30
    },
    {
      "midi": 68,
      "hit": false,
      "t": 69681.87625000058,
      "d": 113.6364583333343,
      "v": 30
    },
    {
      "midi": 44,
      "hit": false,
      "t": 69681.8762500006,
      "d": 113.6364583333343,
      "v": 59
    },
    {
      "midi": 49,
      "hit": false,
      "t": 69681.8762500006,
      "d": 113.6364583333343,
      "v": 59
    },
    {
      "midi": 61,
      "hit": false,
      "t": 69681.8762500006,
      "d": 113.6364583333343,
      "v": 44
    },
    {
      "midi": 64,
      "hit": false,
      "t": 69681.8762500006,
      "d": 113.6364583333343,
      "v": 44
    },
    {
      "midi": 68,
      "hit": false,
      "t": 69681.8762500006,
      "d": 113.6364583333343,
      "v": 44
    },
    {
      "midi": 64,
      "hit": false,
      "t": 69693.23989583278,
      "d": 102.27281249999942,
      "v": 47
    },
    {
      "midi": 76,
      "hit": false,
      "t": 69693.23989583278,
      "d": 102.27281249999942,
      "v": 47
    },
    {
      "midi": 64,
      "hit": false,
      "t": 69795.51270833341,
      "d": 125.00010416666919,
      "v": 64
    },
    {
      "midi": 61,
      "hit": false,
      "t": 69795.51270833341,
      "d": 261.36385416667326,
      "v": 64
    },
    {
      "midi": 69,
      "hit": false,
      "t": 69795.51270833341,
      "d": 261.36385416667326,
      "v": 64
    },
    {
      "midi": 33,
      "hit": false,
      "t": 69818.24000000025,
      "d": 397.7276041666628,
      "v": 93
    },
    {
      "midi": 61,
      "hit": false,
      "t": 69818.24000000059,
      "d": 261.36385416667326,
      "v": 59
    },
    {
      "midi": 64,
      "hit": false,
      "t": 69818.24000000059,
      "d": 261.36385416667326,
      "v": 59
    },
    {
      "midi": 69,
      "hit": false,
      "t": 69818.24000000059,
      "d": 261.36385416667326,
      "v": 59
    },
    {
      "midi": 45,
      "hit": false,
      "t": 69818.2400000006,
      "d": 261.36385416667326,
      "v": 59
    },
    {
      "midi": 52,
      "hit": false,
      "t": 69818.2400000006,
      "d": 261.36385416667326,
      "v": 59
    },
    {
      "midi": 57,
      "hit": false,
      "t": 69818.2400000006,
      "d": 261.36385416667326,
      "v": 59
    },
    {
      "midi": 61,
      "hit": false,
      "t": 69818.2400000006,
      "d": 261.36385416667326,
      "v": 65
    },
    {
      "midi": 64,
      "hit": false,
      "t": 69818.2400000006,
      "d": 261.36385416667326,
      "v": 65
    },
    {
      "midi": 69,
      "hit": false,
      "t": 69818.2400000006,
      "d": 261.36385416667326,
      "v": 65
    },
    {
      "midi": 57,
      "hit": false,
      "t": 70090.9675000006,
      "d": 261.36385416667326,
      "v": 76
    },
    {
      "midi": 61,
      "hit": false,
      "t": 70090.9675000006,
      "d": 261.36385416667326,
      "v": 43
    },
    {
      "midi": 64,
      "hit": false,
      "t": 70090.9675000006,
      "d": 261.36385416667326,
      "v": 43
    },
    {
      "midi": 69,
      "hit": false,
      "t": 70090.9675000006,
      "d": 261.36385416667326,
      "v": 43
    },
    {
      "midi": 45,
      "hit": false,
      "t": 70090.9675000006,
      "d": 397.72760416667734,
      "v": 76
    },
    {
      "midi": 45,
      "hit": false,
      "t": 70090.96750000061,
      "d": 261.36385416667326,
      "v": 59
    },
    {
      "midi": 52,
      "hit": false,
      "t": 70090.96750000061,
      "d": 261.36385416667326,
      "v": 59
    },
    {
      "midi": 57,
      "hit": false,
      "t": 70090.96750000061,
      "d": 261.36385416667326,
      "v": 59
    },
    {
      "midi": 61,
      "hit": false,
      "t": 70090.96750000061,
      "d": 261.36385416667326,
      "v": 49
    },
    {
      "midi": 64,
      "hit": false,
      "t": 70090.96750000061,
      "d": 261.36385416667326,
      "v": 49
    },
    {
      "midi": 69,
      "hit": false,
      "t": 70090.96750000061,
      "d": 261.36385416667326,
      "v": 49
    },
    {
      "midi": 61,
      "hit": false,
      "t": 70204.60395833342,
      "d": 261.36385416667326,
      "v": 64
    },
    {
      "midi": 64,
      "hit": false,
      "t": 70204.60395833342,
      "d": 261.36385416667326,
      "v": 64
    },
    {
      "midi": 69,
      "hit": false,
      "t": 70204.60395833342,
      "d": 261.36385416667326,
      "v": 64
    },
    {
      "midi": 33,
      "hit": false,
      "t": 70227.33125000025,
      "d": 125.00010416666919,
      "v": 93
    },
    {
      "midi": 35,
      "hit": false,
      "t": 70363.69500000025,
      "d": 397.7276041666628,
      "v": 93
    },
    {
      "midi": 61,
      "hit": false,
      "t": 70363.6950000006,
      "d": 125.00010416666919,
      "v": 59
    },
    {
      "midi": 64,
      "hit": false,
      "t": 70363.6950000006,
      "d": 125.00010416666919,
      "v": 59
    },
    {
      "midi": 69,
      "hit": false,
      "t": 70363.6950000006,
      "d": 125.00010416666919,
      "v": 59
    },
    {
      "midi": 61,
      "hit": false,
      "t": 70363.69500000062,
      "d": 125.00010416666919,
      "v": 65
    },
    {
      "midi": 64,
      "hit": false,
      "t": 70363.69500000062,
      "d": 125.00010416666919,
      "v": 65
    },
    {
      "midi": 69,
      "hit": false,
      "t": 70363.69500000062,
      "d": 125.00010416666919,
      "v": 65
    },
    {
      "midi": 57,
      "hit": false,
      "t": 70500.05875000061,
      "d": 125.00010416666919,
      "v": 76
    },
    {
      "midi": 61,
      "hit": false,
      "t": 70500.05875000061,
      "d": 125.00010416666919,
      "v": 30
    },
    {
      "midi": 69,
      "hit": false,
      "t": 70500.05875000061,
      "d": 125.00010416666919,
      "v": 30
    },
    {
      "midi": 64,
      "hit": false,
      "t": 70500.05875000061,
      "d": 147.72739583333896,
      "v": 30
    },
    {
      "midi": 45,
      "hit": false,
      "t": 70500.05875000061,
      "d": 261.36385416667326,
      "v": 76
    },
    {
      "midi": 45,
      "hit": false,
      "t": 70500.05875000062,
      "d": 125.00010416666919,
      "v": 59
    },
    {
      "midi": 52,
      "hit": false,
      "t": 70500.05875000062,
      "d": 125.00010416666919,
      "v": 59
    },
    {
      "midi": 61,
      "hit": false,
      "t": 70500.05875000062,
      "d": 125.00010416666919,
      "v": 44
    },
    {
      "midi": 69,
      "hit": false,
      "t": 70500.05875000062,
      "d": 125.00010416666919,
      "v": 44
    },
    {
      "midi": 64,
      "hit": false,
      "t": 70500.05875000062,
      "d": 147.72739583333896,
      "v": 44
    },
    {
      "midi": 57,
      "hit": false,
      "t": 70500.05875000062,
      "d": 261.36385416667326,
      "v": 59
    },
    {
      "midi": 35,
      "hit": false,
      "t": 70772.78625000025,
      "d": 125.00010416666919,
      "v": 93
    },
    {
      "midi": 61,
      "hit": false,
      "t": 70772.78625000062,
      "d": 125.00010416666919,
      "v": 30
    },
    {
      "midi": 64,
      "hit": false,
      "t": 70772.78625000062,
      "d": 125.00010416666919,
      "v": 30
    },
    {
      "midi": 69,
      "hit": false,
      "t": 70772.78625000062,
      "d": 125.00010416666919,
      "v": 30
    },
    {
      "midi": 61,
      "hit": false,
      "t": 70772.78625000063,
      "d": 125.00010416666919,
      "v": 44
    },
    {
      "midi": 64,
      "hit": false,
      "t": 70772.78625000063,
      "d": 125.00010416666919,
      "v": 44
    },
    {
      "midi": 69,
      "hit": false,
      "t": 70772.78625000063,
      "d": 125.00010416666919,
      "v": 44
    },
    {
      "midi": 37,
      "hit": false,
      "t": 70909.15000000026,
      "d": 125.00010416666919,
      "v": 93
    },
    {
      "midi": 61,
      "hit": false,
      "t": 70909.15000000062,
      "d": 125.00010416666919,
      "v": 59
    },
    {
      "midi": 64,
      "hit": false,
      "t": 70909.15000000062,
      "d": 125.00010416666919,
      "v": 59
    },
    {
      "midi": 69,
      "hit": false,
      "t": 70909.15000000062,
      "d": 125.00010416666919,
      "v": 59
    },
    {
      "midi": 57,
      "hit": false,
      "t": 70909.15000000062,
      "d": 261.36385416667326,
      "v": 76
    },
    {
      "midi": 45,
      "hit": false,
      "t": 70909.15000000062,
      "d": 670.4551041666855,
      "v": 76
    },
    {
      "midi": 61,
      "hit": false,
      "t": 70909.15000000063,
      "d": 125.00010416666919,
      "v": 65
    },
    {
      "midi": 64,
      "hit": false,
      "t": 70909.15000000063,
      "d": 125.00010416666919,
      "v": 65
    },
    {
      "midi": 69,
      "hit": false,
      "t": 70909.15000000063,
      "d": 125.00010416666919,
      "v": 65
    },
    {
      "midi": 45,
      "hit": false,
      "t": 70909.15000000063,
      "d": 261.36385416667326,
      "v": 59
    },
    {
      "midi": 52,
      "hit": false,
      "t": 70909.15000000063,
      "d": 261.36385416667326,
      "v": 59
    },
    {
      "midi": 57,
      "hit": false,
      "t": 70909.15000000063,
      "d": 261.36385416667326,
      "v": 59
    },
    {
      "midi": 61,
      "hit": false,
      "t": 71045.51375000062,
      "d": 125.00010416666919,
      "v": 30
    },
    {
      "midi": 64,
      "hit": false,
      "t": 71045.51375000062,
      "d": 125.00010416666919,
      "v": 30
    },
    {
      "midi": 69,
      "hit": false,
      "t": 71045.51375000062,
      "d": 125.00010416666919,
      "v": 30
    },
    {
      "midi": 61,
      "hit": false,
      "t": 71045.51375000064,
      "d": 125.00010416666919,
      "v": 44
    },
    {
      "midi": 64,
      "hit": false,
      "t": 71045.51375000064,
      "d": 125.00010416666919,
      "v": 44
    },
    {
      "midi": 69,
      "hit": false,
      "t": 71045.51375000064,
      "d": 125.00010416666919,
      "v": 44
    },
    {
      "midi": 37,
      "hit": false,
      "t": 71181.87750000026,
      "d": 261.36385416667326,
      "v": 93
    },
    {
      "midi": 61,
      "hit": false,
      "t": 71181.87750000063,
      "d": 125.00010416666919,
      "v": 30
    },
    {
      "midi": 64,
      "hit": false,
      "t": 71181.87750000063,
      "d": 125.00010416666919,
      "v": 30
    },
    {
      "midi": 69,
      "hit": false,
      "t": 71181.87750000063,
      "d": 125.00010416666919,
      "v": 30
    },
    {
      "midi": 61,
      "hit": false,
      "t": 71181.87750000064,
      "d": 125.00010416666919,
      "v": 44
    },
    {
      "midi": 64,
      "hit": false,
      "t": 71181.87750000064,
      "d": 125.00010416666919,
      "v": 44
    },
    {
      "midi": 69,
      "hit": false,
      "t": 71181.87750000064,
      "d": 125.00010416666919,
      "v": 44
    },
    {
      "midi": 57,
      "hit": false,
      "t": 71318.24125000063,
      "d": 261.36385416667326,
      "v": 76
    },
    {
      "midi": 61,
      "hit": false,
      "t": 71318.24125000063,
      "d": 261.36385416667326,
      "v": 55
    },
    {
      "midi": 64,
      "hit": false,
      "t": 71318.24125000063,
      "d": 261.36385416667326,
      "v": 55
    },
    {
      "midi": 69,
      "hit": false,
      "t": 71318.24125000063,
      "d": 261.36385416667326,
      "v": 55
    },
    {
      "midi": 45,
      "hit": false,
      "t": 71318.24125000065,
      "d": 125.00010416666919,
      "v": 59
    },
    {
      "midi": 52,
      "hit": false,
      "t": 71318.24125000065,
      "d": 125.00010416666919,
      "v": 59
    },
    {
      "midi": 57,
      "hit": false,
      "t": 71318.24125000065,
      "d": 261.36385416667326,
      "v": 59
    },
    {
      "midi": 61,
      "hit": false,
      "t": 71318.24125000065,
      "d": 261.36385416667326,
      "v": 61
    },
    {
      "midi": 64,
      "hit": false,
      "t": 71318.24125000065,
      "d": 261.36385416667326,
      "v": 61
    },
    {
      "midi": 69,
      "hit": false,
      "t": 71318.24125000065,
      "d": 261.36385416667326,
      "v": 61
    },
    {
      "midi": 61,
      "hit": false,
      "t": 71431.87770833343,
      "d": 261.36385416667326,
      "v": 64
    },
    {
      "midi": 69,
      "hit": false,
      "t": 71431.87770833343,
      "d": 261.36385416667326,
      "v": 64
    },
    {
      "midi": 39,
      "hit": false,
      "t": 71454.60500000027,
      "d": 261.36385416667326,
      "v": 93
    },
    {
      "midi": 61,
      "hit": false,
      "t": 71590.96875000064,
      "d": 125.00010416666919,
      "v": 30
    },
    {
      "midi": 64,
      "hit": false,
      "t": 71590.96875000064,
      "d": 125.00010416666919,
      "v": 30
    },
    {
      "midi": 69,
      "hit": false,
      "t": 71590.96875000064,
      "d": 125.00010416666919,
      "v": 30
    },
    {
      "midi": 61,
      "hit": false,
      "t": 71590.96875000065,
      "d": 125.00010416666919,
      "v": 44
    },
    {
      "midi": 64,
      "hit": false,
      "t": 71590.96875000065,
      "d": 125.00010416666919,
      "v": 44
    },
    {
      "midi": 69,
      "hit": false,
      "t": 71590.96875000065,
      "d": 125.00010416666919,
      "v": 44
    },
    {
      "midi": 61,
      "hit": false,
      "t": 71704.60520833344,
      "d": 68.18187499999476,
      "v": 64
    },
    {
      "midi": 64,
      "hit": false,
      "t": 71704.60520833344,
      "d": 125.00010416665464,
      "v": 64
    },
    {
      "midi": 69,
      "hit": false,
      "t": 71704.60520833344,
      "d": 125.00010416665464,
      "v": 64
    },
    {
      "midi": 40,
      "hit": false,
      "t": 71727.33250000028,
      "d": 269.8865885416599,
      "v": 93
    },
    {
      "midi": 61,
      "hit": false,
      "t": 71727.33250000064,
      "d": 125.00010416666919,
      "v": 55
    },
    {
      "midi": 64,
      "hit": false,
      "t": 71727.33250000064,
      "d": 125.00010416666919,
      "v": 55
    },
    {
      "midi": 69,
      "hit": false,
      "t": 71727.33250000064,
      "d": 125.00010416666919,
      "v": 55
    },
    {
      "midi": 61,
      "hit": false,
      "t": 71727.33250000066,
      "d": 125.00010416666919,
      "v": 61
    },
    {
      "midi": 64,
      "hit": false,
      "t": 71727.33250000066,
      "d": 125.00010416666919,
      "v": 61
    },
    {
      "midi": 69,
      "hit": false,
      "t": 71727.33250000066,
      "d": 125.00010416666919,
      "v": 61
    },
    {
      "midi": 66,
      "hit": false,
      "t": 71840.96895833343,
      "d": 1897.728854166664,
      "v": 64
    },
    {
      "midi": 58,
      "hit": false,
      "t": 71840.96895833343,
      "d": 2170.456354166672,
      "v": 64
    },
    {
      "midi": 70,
      "hit": false,
      "t": 71840.96895833343,
      "d": 2306.820104166676,
      "v": 64
    },
    {
      "midi": 61,
      "hit": false,
      "t": 71840.96895833343,
      "d": 4500.003750000018,
      "v": 64
    },
    {
      "midi": 64,
      "hit": false,
      "t": 71863.69625000065,
      "d": 113.6364583333343,
      "v": 30
    },
    {
      "midi": 69,
      "hit": false,
      "t": 71863.69625000065,
      "d": 113.6364583333343,
      "v": 30
    },
    {
      "midi": 61,
      "hit": false,
      "t": 71863.69625000065,
      "d": 136.36375000000407,
      "v": 30
    },
    {
      "midi": 64,
      "hit": false,
      "t": 71863.69625000066,
      "d": 113.6364583333343,
      "v": 44
    },
    {
      "midi": 69,
      "hit": false,
      "t": 71863.69625000066,
      "d": 113.6364583333343,
      "v": 44
    },
    {
      "midi": 61,
      "hit": false,
      "t": 71863.69625000066,
      "d": 136.36375000000407,
      "v": 44
    },
    {
      "midi": 42,
      "hit": false,
      "t": 72000.06000000027,
      "d": 397.7276041666628,
      "v": 93
    },
    {
      "midi": 61,
      "hit": false,
      "t": 72000.06000000065,
      "d": 11.363645833334886,
      "v": 41
    },
    {
      "midi": 66,
      "hit": false,
      "t": 72000.06000000065,
      "d": 261.36385416667326,
      "v": 41
    },
    {
      "midi": 70,
      "hit": false,
      "t": 72000.06000000065,
      "d": 261.36385416667326,
      "v": 41
    },
    {
      "midi": 61,
      "hit": false,
      "t": 72000.06000000067,
      "d": 11.363645833334886,
      "v": 47
    },
    {
      "midi": 66,
      "hit": false,
      "t": 72000.06000000067,
      "d": 261.36385416667326,
      "v": 47
    },
    {
      "midi": 70,
      "hit": false,
      "t": 72000.06000000067,
      "d": 261.36385416667326,
      "v": 47
    },
    {
      "midi": 64,
      "hit": false,
      "t": 72011.42364583278,
      "d": 102.27281249999942,
      "v": 76
    },
    {
      "midi": 76,
      "hit": false,
      "t": 72011.42364583278,
      "d": 102.27281249999942,
      "v": 76
    },
    {
      "midi": 64,
      "hit": false,
      "t": 72147.78739583278,
      "d": 102.27281249999942,
      "v": 41
    },
    {
      "midi": 76,
      "hit": false,
      "t": 72147.78739583278,
      "d": 102.27281249999942,
      "v": 41
    },
    {
      "midi": 58,
      "hit": false,
      "t": 72272.78750000066,
      "d": 261.36385416667326,
      "v": 76
    },
    {
      "midi": 61,
      "hit": false,
      "t": 72272.78750000066,
      "d": 261.36385416667326,
      "v": 47
    },
    {
      "midi": 66,
      "hit": false,
      "t": 72272.78750000066,
      "d": 261.36385416667326,
      "v": 47
    },
    {
      "midi": 70,
      "hit": false,
      "t": 72272.78750000066,
      "d": 261.36385416667326,
      "v": 47
    },
    {
      "midi": 54,
      "hit": false,
      "t": 72272.78750000068,
      "d": 261.36385416667326,
      "v": 59
    },
    {
      "midi": 58,
      "hit": false,
      "t": 72272.78750000068,
      "d": 261.36385416667326,
      "v": 59
    },
    {
      "midi": 61,
      "hit": false,
      "t": 72272.78750000068,
      "d": 261.36385416667326,
      "v": 53
    },
    {
      "midi": 66,
      "hit": false,
      "t": 72272.78750000068,
      "d": 261.36385416667326,
      "v": 53
    },
    {
      "midi": 70,
      "hit": false,
      "t": 72272.78750000068,
      "d": 261.36385416667326,
      "v": 53
    },
    {
      "midi": 64,
      "hit": false,
      "t": 72272.78750000068,
      "d": 397.72760416667734,
      "v": 59
    },
    {
      "midi": 64,
      "hit": false,
      "t": 72284.15114583279,
      "d": 102.27281249999942,
      "v": 41
    },
    {
      "midi": 76,
      "hit": false,
      "t": 72284.15114583279,
      "d": 102.27281249999942,
      "v": 41
    },
    {
      "midi": 42,
      "hit": false,
      "t": 72409.15125000027,
      "d": 125.00010416666919,
      "v": 93
    },
    {
      "midi": 64,
      "hit": false,
      "t": 72420.51489583279,
      "d": 102.27281249999942,
      "v": 41
    },
    {
      "midi": 76,
      "hit": false,
      "t": 72420.51489583279,
      "d": 102.27281249999942,
      "v": 41
    },
    {
      "midi": 37,
      "hit": false,
      "t": 72545.51500000028,
      "d": 261.36385416667326,
      "v": 93
    },
    {
      "midi": 61,
      "hit": false,
      "t": 72545.51500000067,
      "d": 125.00010416666919,
      "v": 51
    },
    {
      "midi": 66,
      "hit": false,
      "t": 72545.51500000067,
      "d": 125.00010416666919,
      "v": 51
    },
    {
      "midi": 70,
      "hit": false,
      "t": 72545.51500000067,
      "d": 125.00010416666919,
      "v": 51
    },
    {
      "midi": 61,
      "hit": false,
      "t": 72545.51500000068,
      "d": 125.00010416666919,
      "v": 57
    },
    {
      "midi": 66,
      "hit": false,
      "t": 72545.51500000068,
      "d": 125.00010416666919,
      "v": 57
    },
    {
      "midi": 70,
      "hit": false,
      "t": 72545.51500000068,
      "d": 125.00010416666919,
      "v": 57
    },
    {
      "midi": 64,
      "hit": false,
      "t": 72556.8786458328,
      "d": 102.27281249999942,
      "v": 41
    },
    {
      "midi": 76,
      "hit": false,
      "t": 72556.8786458328,
      "d": 102.27281249999942,
      "v": 41
    },
    {
      "midi": 58,
      "hit": false,
      "t": 72681.87875000067,
      "d": 125.00010416666919,
      "v": 76
    },
    {
      "midi": 61,
      "hit": false,
      "t": 72681.87875000067,
      "d": 159.09104166667385,
      "v": 30
    },
    {
      "midi": 66,
      "hit": false,
      "t": 72681.87875000067,
      "d": 159.09104166667385,
      "v": 30
    },
    {
      "midi": 70,
      "hit": false,
      "t": 72681.87875000067,
      "d": 159.09104166667385,
      "v": 30
    },
    {
      "midi": 61,
      "hit": false,
      "t": 72681.87875000069,
      "d": 159.09104166667385,
      "v": 44
    },
    {
      "midi": 66,
      "hit": false,
      "t": 72681.87875000069,
      "d": 159.09104166667385,
      "v": 44
    },
    {
      "midi": 70,
      "hit": false,
      "t": 72681.87875000069,
      "d": 159.09104166667385,
      "v": 44
    },
    {
      "midi": 54,
      "hit": false,
      "t": 72681.87875000069,
      "d": 261.36385416667326,
      "v": 59
    },
    {
      "midi": 58,
      "hit": false,
      "t": 72681.87875000069,
      "d": 261.36385416667326,
      "v": 59
    },
    {
      "midi": 64,
      "hit": false,
      "t": 72681.87875000069,
      "d": 397.72760416667734,
      "v": 59
    },
    {
      "midi": 64,
      "hit": false,
      "t": 72693.2423958328,
      "d": 102.27281249999942,
      "v": 41
    },
    {
      "midi": 76,
      "hit": false,
      "t": 72693.2423958328,
      "d": 102.27281249999942,
      "v": 41
    },
    {
      "midi": 64,
      "hit": false,
      "t": 72829.6061458328,
      "d": 102.27281249999942,
      "v": 76
    },
    {
      "midi": 76,
      "hit": false,
      "t": 72829.6061458328,
      "d": 102.27281249999942,
      "v": 76
    },
    {
      "midi": 37,
      "hit": false,
      "t": 72954.60625000029,
      "d": 125.00010416666919,
      "v": 93
    },
    {
      "midi": 61,
      "hit": false,
      "t": 72954.60625000068,
      "d": 125.00010416666919,
      "v": 30
    },
    {
      "midi": 66,
      "hit": false,
      "t": 72954.60625000068,
      "d": 125.00010416666919,
      "v": 30
    },
    {
      "midi": 70,
      "hit": false,
      "t": 72954.60625000068,
      "d": 125.00010416666919,
      "v": 30
    },
    {
      "midi": 61,
      "hit": false,
      "t": 72954.6062500007,
      "d": 125.00010416666919,
      "v": 44
    },
    {
      "midi": 66,
      "hit": false,
      "t": 72954.6062500007,
      "d": 125.00010416666919,
      "v": 44
    },
    {
      "midi": 70,
      "hit": false,
      "t": 72954.6062500007,
      "d": 125.00010416666919,
      "v": 44
    },
    {
      "midi": 64,
      "hit": false,
      "t": 72965.96989583281,
      "d": 102.27281249999942,
      "v": 41
    },
    {
      "midi": 76,
      "hit": false,
      "t": 72965.96989583281,
      "d": 102.27281249999942,
      "v": 41
    },
    {
      "midi": 42,
      "hit": false,
      "t": 73090.97000000029,
      "d": 397.7276041666628,
      "v": 93
    },
    {
      "midi": 61,
      "hit": false,
      "t": 73090.97000000069,
      "d": 125.00010416666919,
      "v": 51
    },
    {
      "midi": 66,
      "hit": false,
      "t": 73090.97000000069,
      "d": 125.00010416666919,
      "v": 51
    },
    {
      "midi": 70,
      "hit": false,
      "t": 73090.97000000069,
      "d": 125.00010416666919,
      "v": 51
    },
    {
      "midi": 58,
      "hit": false,
      "t": 73090.97000000069,
      "d": 261.36385416667326,
      "v": 76
    },
    {
      "midi": 61,
      "hit": false,
      "t": 73090.9700000007,
      "d": 125.00010416666919,
      "v": 57
    },
    {
      "midi": 66,
      "hit": false,
      "t": 73090.9700000007,
      "d": 125.00010416666919,
      "v": 57
    },
    {
      "midi": 70,
      "hit": false,
      "t": 73090.9700000007,
      "d": 125.00010416666919,
      "v": 57
    },
    {
      "midi": 58,
      "hit": false,
      "t": 73090.9700000007,
      "d": 261.36385416667326,
      "v": 59
    },
    {
      "midi": 54,
      "hit": false,
      "t": 73090.9700000007,
      "d": 397.72760416667734,
      "v": 59
    },
    {
      "midi": 64,
      "hit": false,
      "t": 73090.9700000007,
      "d": 397.72760416667734,
      "v": 59
    },
    {
      "midi": 64,
      "hit": false,
      "t": 73102.33364583281,
      "d": 102.27281249999942,
      "v": 41
    },
    {
      "midi": 76,
      "hit": false,
      "t": 73102.33364583281,
      "d": 102.27281249999942,
      "v": 41
    },
    {
      "midi": 61,
      "hit": false,
      "t": 73227.33375000069,
      "d": 125.00010416666919,
      "v": 30
    },
    {
      "midi": 66,
      "hit": false,
      "t": 73227.33375000069,
      "d": 125.00010416666919,
      "v": 30
    },
    {
      "midi": 70,
      "hit": false,
      "t": 73227.33375000069,
      "d": 125.00010416666919,
      "v": 30
    },
    {
      "midi": 61,
      "hit": false,
      "t": 73227.3337500007,
      "d": 125.00010416666919,
      "v": 44
    },
    {
      "midi": 66,
      "hit": false,
      "t": 73227.3337500007,
      "d": 125.00010416666919,
      "v": 44
    },
    {
      "midi": 70,
      "hit": false,
      "t": 73227.3337500007,
      "d": 125.00010416666919,
      "v": 44
    },
    {
      "midi": 64,
      "hit": false,
      "t": 73238.69739583282,
      "d": 102.27281249999942,
      "v": 41
    },
    {
      "midi": 76,
      "hit": false,
      "t": 73238.69739583282,
      "d": 102.27281249999942,
      "v": 41
    },
    {
      "midi": 61,
      "hit": false,
      "t": 73363.6975000007,
      "d": 125.00010416666919,
      "v": 30
    },
    {
      "midi": 66,
      "hit": false,
      "t": 73363.6975000007,
      "d": 125.00010416666919,
      "v": 30
    },
    {
      "midi": 70,
      "hit": false,
      "t": 73363.6975000007,
      "d": 125.00010416666919,
      "v": 30
    },
    {
      "midi": 61,
      "hit": false,
      "t": 73363.69750000071,
      "d": 125.00010416666919,
      "v": 44
    },
    {
      "midi": 66,
      "hit": false,
      "t": 73363.69750000071,
      "d": 125.00010416666919,
      "v": 44
    },
    {
      "midi": 70,
      "hit": false,
      "t": 73363.69750000071,
      "d": 125.00010416666919,
      "v": 44
    },
    {
      "midi": 64,
      "hit": false,
      "t": 73375.06114583282,
      "d": 102.27281249999942,
      "v": 41
    },
    {
      "midi": 76,
      "hit": false,
      "t": 73375.06114583282,
      "d": 102.27281249999942,
      "v": 41
    },
    {
      "midi": 37,
      "hit": false,
      "t": 73500.06125000029,
      "d": 125.00010416666919,
      "v": 93
    },
    {
      "midi": 58,
      "hit": false,
      "t": 73500.0612500007,
      "d": 261.36385416667326,
      "v": 76
    },
    {
      "midi": 61,
      "hit": false,
      "t": 73500.0612500007,
      "d": 261.36385416667326,
      "v": 51
    },
    {
      "midi": 66,
      "hit": false,
      "t": 73500.0612500007,
      "d": 261.36385416667326,
      "v": 51
    },
    {
      "midi": 70,
      "hit": false,
      "t": 73500.0612500007,
      "d": 261.36385416667326,
      "v": 51
    },
    {
      "midi": 52,
      "hit": false,
      "t": 73500.06125000071,
      "d": 261.36385416667326,
      "v": 59
    },
    {
      "midi": 58,
      "hit": false,
      "t": 73500.06125000071,
      "d": 261.36385416667326,
      "v": 59
    },
    {
      "midi": 61,
      "hit": false,
      "t": 73500.06125000071,
      "d": 261.36385416667326,
      "v": 57
    },
    {
      "midi": 64,
      "hit": false,
      "t": 73500.06125000071,
      "d": 261.36385416667326,
      "v": 59
    },
    {
      "midi": 66,
      "hit": false,
      "t": 73500.06125000071,
      "d": 261.36385416667326,
      "v": 57
    },
    {
      "midi": 70,
      "hit": false,
      "t": 73500.06125000071,
      "d": 261.36385416667326,
      "v": 57
    },
    {
      "midi": 64,
      "hit": false,
      "t": 73511.42489583282,
      "d": 102.27281249999942,
      "v": 41
    },
    {
      "midi": 76,
      "hit": false,
      "t": 73511.42489583282,
      "d": 102.27281249999942,
      "v": 41
    },
    {
      "midi": 42,
      "hit": false,
      "t": 73636.4250000003,
      "d": 125.00010416666919,
      "v": 93
    },
    {
      "midi": 64,
      "hit": false,
      "t": 73647.78864583283,
      "d": 102.27281249999942,
      "v": 74
    },
    {
      "midi": 76,
      "hit": false,
      "t": 73647.78864583283,
      "d": 102.27281249999942,
      "v": 74
    },
    {
      "midi": 68,
      "hit": false,
      "t": 73750.06145833342,
      "d": 125.00010416666919,
      "v": 64
    },
    {
      "midi": 37,
      "hit": false,
      "t": 73772.7887500003,
      "d": 125.00010416666919,
      "v": 93
    },
    {
      "midi": 61,
      "hit": false,
      "t": 73772.7887500007,
      "d": 125.00010416666919,
      "v": 30
    },
    {
      "midi": 66,
      "hit": false,
      "t": 73772.7887500007,
      "d": 125.00010416666919,
      "v": 30
    },
    {
      "midi": 70,
      "hit": false,
      "t": 73772.7887500007,
      "d": 125.00010416666919,
      "v": 30
    },
    {
      "midi": 54,
      "hit": false,
      "t": 73772.78875000072,
      "d": 125.00010416666919,
      "v": 59
    },
    {
      "midi": 61,
      "hit": false,
      "t": 73772.78875000072,
      "d": 125.00010416666919,
      "v": 44
    },
    {
      "midi": 66,
      "hit": false,
      "t": 73772.78875000072,
      "d": 125.00010416666919,
      "v": 44
    },
    {
      "midi": 70,
      "hit": false,
      "t": 73772.78875000072,
      "d": 125.00010416666919,
      "v": 44
    },
    {
      "midi": 64,
      "hit": false,
      "t": 73784.15239583283,
      "d": 102.27281249999942,
      "v": 47
    },
    {
      "midi": 76,
      "hit": false,
      "t": 73784.15239583283,
      "d": 102.27281249999942,
      "v": 47
    },
    {
      "midi": 66,
      "hit": false,
      "t": 73886.42520833343,
      "d": 125.00010416666919,
      "v": 64
    },
    {
      "midi": 44,
      "hit": false,
      "t": 73909.1525000003,
      "d": 125.00010416666919,
      "v": 93
    },
    {
      "midi": 58,
      "hit": false,
      "t": 73909.15250000071,
      "d": 125.00010416666919,
      "v": 76
    },
    {
      "midi": 61,
      "hit": false,
      "t": 73909.15250000071,
      "d": 125.00010416666919,
      "v": 51
    },
    {
      "midi": 66,
      "hit": false,
      "t": 73909.15250000071,
      "d": 125.00010416666919,
      "v": 51
    },
    {
      "midi": 70,
      "hit": false,
      "t": 73909.15250000071,
      "d": 125.00010416666919,
      "v": 51
    },
    {
      "midi": 52,
      "hit": false,
      "t": 73909.15250000072,
      "d": 125.00010416666919,
      "v": 59
    },
    {
      "midi": 58,
      "hit": false,
      "t": 73909.15250000072,
      "d": 125.00010416666919,
      "v": 59
    },
    {
      "midi": 61,
      "hit": false,
      "t": 73909.15250000072,
      "d": 125.00010416666919,
      "v": 57
    },
    {
      "midi": 64,
      "hit": false,
      "t": 73909.15250000072,
      "d": 125.00010416666919,
      "v": 59
    },
    {
      "midi": 66,
      "hit": false,
      "t": 73909.15250000072,
      "d": 125.00010416666919,
      "v": 57
    },
    {
      "midi": 70,
      "hit": false,
      "t": 73909.15250000072,
      "d": 125.00010416666919,
      "v": 57
    },
    {
      "midi": 64,
      "hit": false,
      "t": 73920.51614583284,
      "d": 102.27281249999942,
      "v": 47
    },
    {
      "midi": 76,
      "hit": false,
      "t": 73920.51614583284,
      "d": 102.27281249999942,
      "v": 47
    },
    {
      "midi": 57,
      "hit": false,
      "t": 74022.78895833343,
      "d": 2295.4564583333413,
      "v": 64
    },
    {
      "midi": 64,
      "hit": false,
      "t": 74022.78895833343,
      "d": 2318.183750000011,
      "v": 64
    },
    {
      "midi": 61,
      "hit": false,
      "t": 74045.51625000071,
      "d": 125.00010416666919,
      "v": 30
    },
    {
      "midi": 66,
      "hit": false,
      "t": 74045.51625000071,
      "d": 125.00010416666919,
      "v": 30
    },
    {
      "midi": 70,
      "hit": false,
      "t": 74045.51625000071,
      "d": 125.00010416666919,
      "v": 30
    },
    {
      "midi": 61,
      "hit": false,
      "t": 74045.51625000073,
      "d": 125.00010416666919,
      "v": 44
    },
    {
      "midi": 66,
      "hit": false,
      "t": 74045.51625000073,
      "d": 125.00010416666919,
      "v": 44
    },
    {
      "midi": 70,
      "hit": false,
      "t": 74045.51625000073,
      "d": 125.00010416666919,
      "v": 44
    },
    {
      "midi": 64,
      "hit": false,
      "t": 74056.87989583284,
      "d": 102.27281249999942,
      "v": 47
    },
    {
      "midi": 76,
      "hit": false,
      "t": 74056.87989583284,
      "d": 102.27281249999942,
      "v": 47
    },
    {
      "midi": 69,
      "hit": false,
      "t": 74159.15270833344,
      "d": 2159.092708333337,
      "v": 64
    },
    {
      "midi": 45,
      "hit": false,
      "t": 74181.88000000031,
      "d": 261.36385416667326,
      "v": 93
    },
    {
      "midi": 45,
      "hit": false,
      "t": 74181.88000000072,
      "d": 125.00010416666919,
      "v": 48
    },
    {
      "midi": 45,
      "hit": false,
      "t": 74181.88000000073,
      "d": 125.00010416666919,
      "v": 54
    },
    {
      "midi": 64,
      "hit": false,
      "t": 74193.24364583284,
      "d": 102.27281249999942,
      "v": 76
    },
    {
      "midi": 76,
      "hit": false,
      "t": 74193.24364583284,
      "d": 102.27281249999942,
      "v": 76
    },
    {
      "midi": 52,
      "hit": false,
      "t": 74318.24375000072,
      "d": 125.00010416666919,
      "v": 48
    },
    {
      "midi": 52,
      "hit": false,
      "t": 74318.24375000074,
      "d": 125.00010416666919,
      "v": 54
    },
    {
      "midi": 64,
      "hit": false,
      "t": 74329.60739583285,
      "d": 102.27281249999942,
      "v": 41
    },
    {
      "midi": 76,
      "hit": false,
      "t": 74329.60739583285,
      "d": 102.27281249999942,
      "v": 41
    },
    {
      "midi": 52,
      "hit": false,
      "t": 74454.60750000073,
      "d": 261.36385416667326,
      "v": 76
    },
    {
      "midi": 57,
      "hit": false,
      "t": 74454.60750000073,
      "d": 261.36385416667326,
      "v": 76
    },
    {
      "midi": 61,
      "hit": false,
      "t": 74454.60750000073,
      "d": 261.36385416667326,
      "v": 76
    },
    {
      "midi": 64,
      "hit": false,
      "t": 74454.60750000073,
      "d": 261.36385416667326,
      "v": 76
    },
    {
      "midi": 69,
      "hit": false,
      "t": 74454.60750000073,
      "d": 261.36385416667326,
      "v": 76
    },
    {
      "midi": 52,
      "hit": false,
      "t": 74454.60750000074,
      "d": 261.36385416667326,
      "v": 74
    },
    {
      "midi": 57,
      "hit": false,
      "t": 74454.60750000074,
      "d": 261.36385416667326,
      "v": 74
    },
    {
      "midi": 61,
      "hit": false,
      "t": 74454.60750000074,
      "d": 261.36385416667326,
      "v": 74
    },
    {
      "midi": 64,
      "hit": false,
      "t": 74454.60750000074,
      "d": 261.36385416667326,
      "v": 74
    },
    {
      "midi": 69,
      "hit": false,
      "t": 74454.60750000074,
      "d": 261.36385416667326,
      "v": 74
    },
    {
      "midi": 64,
      "hit": false,
      "t": 74465.97114583285,
      "d": 102.27281249999942,
      "v": 41
    },
    {
      "midi": 76,
      "hit": false,
      "t": 74465.97114583285,
      "d": 102.27281249999942,
      "v": 41
    },
    {
      "midi": 45,
      "hit": false,
      "t": 74590.97125000032,
      "d": 125.00010416666919,
      "v": 93
    },
    {
      "midi": 64,
      "hit": false,
      "t": 74602.33489583286,
      "d": 102.27281249999942,
      "v": 41
    },
    {
      "midi": 76,
      "hit": false,
      "t": 74602.33489583286,
      "d": 102.27281249999942,
      "v": 41
    },
    {
      "midi": 44,
      "hit": false,
      "t": 74727.33500000033,
      "d": 261.36385416667326,
      "v": 93
    },
    {
      "midi": 64,
      "hit": false,
      "t": 74727.33500000073,
      "d": 125.00010416666919,
      "v": 48
    },
    {
      "midi": 69,
      "hit": false,
      "t": 74727.33500000073,
      "d": 125.00010416666919,
      "v": 48
    },
    {
      "midi": 64,
      "hit": false,
      "t": 74727.33500000075,
      "d": 125.00010416666919,
      "v": 54
    },
    {
      "midi": 69,
      "hit": false,
      "t": 74727.33500000075,
      "d": 125.00010416666919,
      "v": 54
    },
    {
      "midi": 64,
      "hit": false,
      "t": 74738.69864583286,
      "d": 102.27281249999942,
      "v": 41
    },
    {
      "midi": 76,
      "hit": false,
      "t": 74738.69864583286,
      "d": 102.27281249999942,
      "v": 41
    },
    {
      "midi": 56,
      "hit": false,
      "t": 74863.69875000074,
      "d": 125.00010416666919,
      "v": 76
    },
    {
      "midi": 59,
      "hit": false,
      "t": 74863.69875000074,
      "d": 125.00010416666919,
      "v": 76
    },
    {
      "midi": 64,
      "hit": false,
      "t": 74863.69875000074,
      "d": 125.00010416666919,
      "v": 76
    },
    {
      "midi": 69,
      "hit": false,
      "t": 74863.69875000074,
      "d": 125.00010416666919,
      "v": 76
    },
    {
      "midi": 52,
      "hit": false,
      "t": 74863.69875000074,
      "d": 261.36385416667326,
      "v": 76
    },
    {
      "midi": 52,
      "hit": false,
      "t": 74863.69875000075,
      "d": 125.00010416666919,
      "v": 74
    },
    {
      "midi": 56,
      "hit": false,
      "t": 74863.69875000075,
      "d": 125.00010416666919,
      "v": 74
    },
    {
      "midi": 59,
      "hit": false,
      "t": 74863.69875000075,
      "d": 125.00010416666919,
      "v": 74
    },
    {
      "midi": 64,
      "hit": false,
      "t": 74863.69875000075,
      "d": 125.00010416666919,
      "v": 74
    },
    {
      "midi": 69,
      "hit": false,
      "t": 74863.69875000075,
      "d": 125.00010416666919,
      "v": 74
    },
    {
      "midi": 64,
      "hit": false,
      "t": 74875.06239583287,
      "d": 102.27281249999942,
      "v": 41
    },
    {
      "midi": 76,
      "hit": false,
      "t": 74875.06239583287,
      "d": 102.27281249999942,
      "v": 41
    },
    {
      "midi": 64,
      "hit": false,
      "t": 75011.42614583287,
      "d": 102.27281249999942,
      "v": 76
    },
    {
      "midi": 76,
      "hit": false,
      "t": 75011.42614583287,
      "d": 102.27281249999942,
      "v": 76
    },
    {
      "midi": 44,
      "hit": false,
      "t": 75136.42625000034,
      "d": 68.18187499999476,
      "v": 93
    },
    {
      "midi": 61,
      "hit": false,
      "t": 75136.42625000075,
      "d": 125.00010416666919,
      "v": 76
    },
    {
      "midi": 64,
      "hit": false,
      "t": 75136.42625000075,
      "d": 125.00010416666919,
      "v": 76
    },
    {
      "midi": 69,
      "hit": false,
      "t": 75136.42625000075,
      "d": 125.00010416666919,
      "v": 76
    },
    {
      "midi": 61,
      "hit": false,
      "t": 75136.42625000076,
      "d": 125.00010416666919,
      "v": 74
    },
    {
      "midi": 64,
      "hit": false,
      "t": 75136.42625000076,
      "d": 125.00010416666919,
      "v": 74
    },
    {
      "midi": 69,
      "hit": false,
      "t": 75136.42625000076,
      "d": 125.00010416666919,
      "v": 74
    },
    {
      "midi": 64,
      "hit": false,
      "t": 75147.78989583287,
      "d": 102.27281249999942,
      "v": 41
    },
    {
      "midi": 76,
      "hit": false,
      "t": 75147.78989583287,
      "d": 102.27281249999942,
      "v": 41
    },
    {
      "midi": 42,
      "hit": false,
      "t": 75272.79000000033,
      "d": 261.36385416667326,
      "v": 93
    },
    {
      "midi": 52,
      "hit": false,
      "t": 75272.79000000075,
      "d": 261.36385416667326,
      "v": 76
    },
    {
      "midi": 54,
      "hit": false,
      "t": 75272.79000000075,
      "d": 261.36385416667326,
      "v": 30
    },
    {
      "midi": 59,
      "hit": false,
      "t": 75272.79000000075,
      "d": 261.36385416667326,
      "v": 48
    },
    {
      "midi": 64,
      "hit": false,
      "t": 75272.79000000075,
      "d": 261.36385416667326,
      "v": 48
    },
    {
      "midi": 69,
      "hit": false,
      "t": 75272.79000000075,
      "d": 261.36385416667326,
      "v": 48
    },
    {
      "midi": 54,
      "hit": false,
      "t": 75272.79000000076,
      "d": 261.36385416667326,
      "v": 54
    },
    {
      "midi": 59,
      "hit": false,
      "t": 75272.79000000076,
      "d": 261.36385416667326,
      "v": 54
    },
    {
      "midi": 64,
      "hit": false,
      "t": 75272.79000000076,
      "d": 261.36385416667326,
      "v": 54
    },
    {
      "midi": 69,
      "hit": false,
      "t": 75272.79000000076,
      "d": 261.36385416667326,
      "v": 54
    },
    {
      "midi": 52,
      "hit": false,
      "t": 75272.79000000076,
      "d": 272.72750000000815,
      "v": 74
    },
    {
      "midi": 64,
      "hit": false,
      "t": 75284.15364583288,
      "d": 102.27281249999942,
      "v": 41
    },
    {
      "midi": 76,
      "hit": false,
      "t": 75284.15364583288,
      "d": 102.27281249999942,
      "v": 41
    },
    {
      "midi": 64,
      "hit": false,
      "t": 75420.51739583288,
      "d": 102.27281249999942,
      "v": 41
    },
    {
      "midi": 76,
      "hit": false,
      "t": 75420.51739583288,
      "d": 102.27281249999942,
      "v": 41
    },
    {
      "midi": 52,
      "hit": false,
      "t": 75545.51750000076,
      "d": 68.18187499999476,
      "v": 76
    },
    {
      "midi": 52,
      "hit": false,
      "t": 75545.51750000077,
      "d": 68.18187499999476,
      "v": 74
    },
    {
      "midi": 64,
      "hit": false,
      "t": 75556.88114583289,
      "d": 102.27281249999942,
      "v": 41
    },
    {
      "midi": 76,
      "hit": false,
      "t": 75556.88114583289,
      "d": 102.27281249999942,
      "v": 41
    },
    {
      "midi": 42,
      "hit": false,
      "t": 75681.88125000034,
      "d": 125.00010416666919,
      "v": 93
    },
    {
      "midi": 54,
      "hit": false,
      "t": 75681.88125000075,
      "d": 68.18187499999476,
      "v": 30
    },
    {
      "midi": 59,
      "hit": false,
      "t": 75681.88125000075,
      "d": 125.00010416665464,
      "v": 48
    },
    {
      "midi": 69,
      "hit": false,
      "t": 75681.88125000075,
      "d": 136.36374999998952,
      "v": 48
    },
    {
      "midi": 64,
      "hit": false,
      "t": 75681.88125000075,
      "d": 261.3638541666587,
      "v": 48
    },
    {
      "midi": 54,
      "hit": false,
      "t": 75681.88125000076,
      "d": 68.18187499999476,
      "v": 54
    },
    {
      "midi": 59,
      "hit": false,
      "t": 75681.88125000076,
      "d": 125.00010416665464,
      "v": 54
    },
    {
      "midi": 52,
      "hit": false,
      "t": 75681.88125000076,
      "d": 136.36374999998952,
      "v": 74
    },
    {
      "midi": 69,
      "hit": false,
      "t": 75681.88125000076,
      "d": 136.36374999998952,
      "v": 54
    },
    {
      "midi": 64,
      "hit": false,
      "t": 75681.88125000076,
      "d": 261.3638541666587,
      "v": 54
    },
    {
      "midi": 64,
      "hit": false,
      "t": 75693.24489583289,
      "d": 102.27281249999942,
      "v": 41
    },
    {
      "midi": 76,
      "hit": false,
      "t": 75693.24489583289,
      "d": 102.27281249999942,
      "v": 41
    },
    {
      "midi": 40,
      "hit": false,
      "t": 75818.24500000034,
      "d": 261.36385416667326,
      "v": 93
    },
    {
      "midi": 61,
      "hit": false,
      "t": 75818.24500000074,
      "d": 125.00010416666919,
      "v": 48
    },
    {
      "midi": 69,
      "hit": false,
      "t": 75818.24500000074,
      "d": 125.00010416666919,
      "v": 48
    },
    {
      "midi": 52,
      "hit": false,
      "t": 75818.24500000074,
      "d": 261.36385416667326,
      "v": 48
    },
    {
      "midi": 52,
      "hit": false,
      "t": 75818.24500000075,
      "d": 125.00010416666919,
      "v": 54
    },
    {
      "midi": 61,
      "hit": false,
      "t": 75818.24500000075,
      "d": 125.00010416666919,
      "v": 54
    },
    {
      "midi": 69,
      "hit": false,
      "t": 75818.24500000075,
      "d": 125.00010416666919,
      "v": 54
    },
    {
      "midi": 64,
      "hit": false,
      "t": 75829.6086458329,
      "d": 102.27281249999942,
      "v": 74
    },
    {
      "midi": 76,
      "hit": false,
      "t": 75829.6086458329,
      "d": 102.27281249999942,
      "v": 74
    },
    {
      "midi": 64,
      "hit": false,
      "t": 75965.9723958329,
      "d": 102.27281249999942,
      "v": 47
    },
    {
      "midi": 76,
      "hit": false,
      "t": 75965.9723958329,
      "d": 102.27281249999942,
      "v": 47
    },
    {
      "midi": 61,
      "hit": false,
      "t": 76090.97250000075,
      "d": 125.00010416666919,
      "v": 48
    },
    {
      "midi": 64,
      "hit": false,
      "t": 76090.97250000075,
      "d": 125.00010416666919,
      "v": 48
    },
    {
      "midi": 69,
      "hit": false,
      "t": 76090.97250000075,
      "d": 125.00010416666919,
      "v": 48
    },
    {
      "midi": 52,
      "hit": false,
      "t": 76090.97250000076,
      "d": 125.00010416666919,
      "v": 74
    },
    {
      "midi": 61,
      "hit": false,
      "t": 76090.97250000076,
      "d": 125.00010416666919,
      "v": 54
    },
    {
      "midi": 64,
      "hit": false,
      "t": 76090.97250000076,
      "d": 125.00010416666919,
      "v": 54
    },
    {
      "midi": 69,
      "hit": false,
      "t": 76090.97250000076,
      "d": 125.00010416666919,
      "v": 54
    },
    {
      "midi": 64,
      "hit": false,
      "t": 76102.3361458329,
      "d": 102.27281249999942,
      "v": 47
    },
    {
      "midi": 76,
      "hit": false,
      "t": 76102.3361458329,
      "d": 102.27281249999942,
      "v": 47
    },
    {
      "midi": 40,
      "hit": false,
      "t": 76227.33625000036,
      "d": 125.00010416666919,
      "v": 93
    },
    {
      "midi": 59,
      "hit": false,
      "t": 76227.33625000075,
      "d": 125.00010416666919,
      "v": 48
    },
    {
      "midi": 64,
      "hit": false,
      "t": 76227.33625000075,
      "d": 125.00010416666919,
      "v": 48
    },
    {
      "midi": 59,
      "hit": false,
      "t": 76227.33625000076,
      "d": 125.00010416666919,
      "v": 54
    },
    {
      "midi": 64,
      "hit": false,
      "t": 76227.33625000076,
      "d": 125.00010416666919,
      "v": 54
    },
    {
      "midi": 64,
      "hit": false,
      "t": 76238.6998958329,
      "d": 102.27281249999942,
      "v": 47
    },
    {
      "midi": 76,
      "hit": false,
      "t": 76238.6998958329,
      "d": 102.27281249999942,
      "v": 47
    },
    {
      "midi": 38,
      "hit": false,
      "t": 76363.70000000036,
      "d": 261.36385416667326,
      "v": 93
    },
    {
      "midi": 45,
      "hit": false,
      "t": 76363.70000000075,
      "d": 125.00010416666919,
      "v": 48
    },
    {
      "midi": 45,
      "hit": false,
      "t": 76363.70000000077,
      "d": 125.00010416666919,
      "v": 54
    },
    {
      "midi": 64,
      "hit": false,
      "t": 76375.06364583291,
      "d": 102.27281249999942,
      "v": 76
    },
    {
      "midi": 76,
      "hit": false,
      "t": 76375.06364583291,
      "d": 102.27281249999942,
      "v": 76
    },
    {
      "midi": 52,
      "hit": false,
      "t": 76500.06375000076,
      "d": 125.00010416666919,
      "v": 48
    },
    {
      "midi": 52,
      "hit": false,
      "t": 76500.06375000077,
      "d": 125.00010416666919,
      "v": 54
    },
    {
      "midi": 64,
      "hit": false,
      "t": 76511.42739583291,
      "d": 102.27281249999942,
      "v": 41
    },
    {
      "midi": 76,
      "hit": false,
      "t": 76511.42739583291,
      "d": 102.27281249999942,
      "v": 41
    },
    {
      "midi": 61,
      "hit": false,
      "t": 76636.42750000076,
      "d": 125.00010416666919,
      "v": 76
    },
    {
      "midi": 57,
      "hit": false,
      "t": 76636.42750000076,
      "d": 261.36385416667326,
      "v": 76
    },
    {
      "midi": 64,
      "hit": false,
      "t": 76636.42750000076,
      "d": 363.6366666666727,
      "v": 76
    },
    {
      "midi": 61,
      "hit": false,
      "t": 76636.42750000078,
      "d": 125.00010416666919,
      "v": 74
    },
    {
      "midi": 52,
      "hit": false,
      "t": 76636.42750000078,
      "d": 261.36385416667326,
      "v": 74
    },
    {
      "midi": 57,
      "hit": false,
      "t": 76636.42750000078,
      "d": 261.36385416667326,
      "v": 74
    },
    {
      "midi": 64,
      "hit": false,
      "t": 76636.42750000078,
      "d": 363.6366666666727,
      "v": 74
    },
    {
      "midi": 64,
      "hit": false,
      "t": 76647.79114583292,
      "d": 102.27281249999942,
      "v": 41
    },
    {
      "midi": 76,
      "hit": false,
      "t": 76647.79114583292,
      "d": 102.27281249999942,
      "v": 41
    },
    {
      "midi": 38,
      "hit": false,
      "t": 76772.79125000037,
      "d": 125.00010416666919,
      "v": 93
    },
    {
      "midi": 61,
      "hit": false,
      "t": 76772.79125000077,
      "d": 261.36385416667326,
      "v": 48
    },
    {
      "midi": 61,
      "hit": false,
      "t": 76772.79125000078,
      "d": 261.36385416667326,
      "v": 54
    },
    {
      "midi": 64,
      "hit": false,
      "t": 76784.15489583292,
      "d": 102.27281249999942,
      "v": 41
    },
    {
      "midi": 76,
      "hit": false,
      "t": 76784.15489583292,
      "d": 102.27281249999942,
      "v": 41
    },
    {
      "midi": 37,
      "hit": false,
      "t": 76909.15500000038,
      "d": 261.36385416667326,
      "v": 93
    },
    {
      "midi": 64,
      "hit": false,
      "t": 76920.51864583293,
      "d": 102.27281249999942,
      "v": 41
    },
    {
      "midi": 76,
      "hit": false,
      "t": 76920.51864583293,
      "d": 102.27281249999942,
      "v": 41
    },
    {
      "midi": 59,
      "hit": false,
      "t": 77045.51875000077,
      "d": 125.00010416666919,
      "v": 76
    },
    {
      "midi": 62,
      "hit": false,
      "t": 77045.51875000077,
      "d": 125.00010416666919,
      "v": 76
    },
    {
      "midi": 56,
      "hit": false,
      "t": 77045.51875000077,
      "d": 261.36385416667326,
      "v": 76
    },
    {
      "midi": 64,
      "hit": false,
      "t": 77045.51875000077,
      "d": 318.1820833333477,
      "v": 76
    },
    {
      "midi": 52,
      "hit": false,
      "t": 77045.51875000079,
      "d": 125.00010416666919,
      "v": 74
    },
    {
      "midi": 59,
      "hit": false,
      "t": 77045.51875000079,
      "d": 125.00010416666919,
      "v": 74
    },
    {
      "midi": 62,
      "hit": false,
      "t": 77045.51875000079,
      "d": 125.00010416666919,
      "v": 74
    },
    {
      "midi": 56,
      "hit": false,
      "t": 77045.51875000079,
      "d": 261.36385416667326,
      "v": 74
    },
    {
      "midi": 64,
      "hit": false,
      "t": 77045.51875000079,
      "d": 318.1820833333477,
      "v": 74
    },
    {
      "midi": 64,
      "hit": false,
      "t": 77056.88239583293,
      "d": 102.27281249999942,
      "v": 41
    },
    {
      "midi": 76,
      "hit": false,
      "t": 77056.88239583293,
      "d": 102.27281249999942,
      "v": 41
    },
    {
      "midi": 59,
      "hit": false,
      "t": 77181.88250000078,
      "d": 125.00010416666919,
      "v": 48
    },
    {
      "midi": 59,
      "hit": false,
      "t": 77181.8825000008,
      "d": 125.00010416666919,
      "v": 54
    },
    {
      "midi": 64,
      "hit": false,
      "t": 77193.24614583293,
      "d": 102.27281249999942,
      "v": 76
    },
    {
      "midi": 76,
      "hit": false,
      "t": 77193.24614583293,
      "d": 102.27281249999942,
      "v": 76
    },
    {
      "midi": 37,
      "hit": false,
      "t": 77318.24625000039,
      "d": 125.00010416666919,
      "v": 93
    },
    {
      "midi": 57,
      "hit": false,
      "t": 77318.24625000078,
      "d": 125.00010416666919,
      "v": 48
    },
    {
      "midi": 59,
      "hit": false,
      "t": 77318.24625000078,
      "d": 125.00010416666919,
      "v": 48
    },
    {
      "midi": 57,
      "hit": false,
      "t": 77318.2462500008,
      "d": 125.00010416666919,
      "v": 54
    },
    {
      "midi": 59,
      "hit": false,
      "t": 77318.2462500008,
      "d": 125.00010416666919,
      "v": 54
    },
    {
      "midi": 64,
      "hit": false,
      "t": 77329.60989583294,
      "d": 102.27281249999942,
      "v": 41
    },
    {
      "midi": 76,
      "hit": false,
      "t": 77329.60989583294,
      "d": 102.27281249999942,
      "v": 41
    },
    {
      "midi": 35,
      "hit": false,
      "t": 77454.6100000004,
      "d": 125.00010416666919,
      "v": 93
    },
    {
      "midi": 64,
      "hit": false,
      "t": 77454.61000000079,
      "d": 204.54562499999884,
      "v": 76
    },
    {
      "midi": 54,
      "hit": false,
      "t": 77454.61000000079,
      "d": 261.3638541666587,
      "v": 57
    },
    {
      "midi": 57,
      "hit": false,
      "t": 77454.61000000079,
      "d": 261.3638541666587,
      "v": 76
    },
    {
      "midi": 64,
      "hit": false,
      "t": 77454.6100000008,
      "d": 204.54562499999884,
      "v": 74
    },
    {
      "midi": 54,
      "hit": false,
      "t": 77454.6100000008,
      "d": 261.3638541666587,
      "v": 74
    },
    {
      "midi": 57,
      "hit": false,
      "t": 77454.6100000008,
      "d": 261.3638541666587,
      "v": 74
    },
    {
      "midi": 64,
      "hit": false,
      "t": 77465.97364583294,
      "d": 102.27281249999942,
      "v": 41
    },
    {
      "midi": 76,
      "hit": false,
      "t": 77465.97364583294,
      "d": 102.27281249999942,
      "v": 41
    },
    {
      "midi": 64,
      "hit": false,
      "t": 77602.33739583295,
      "d": 102.27281249999942,
      "v": 41
    },
    {
      "midi": 76,
      "hit": false,
      "t": 77602.33739583295,
      "d": 102.27281249999942,
      "v": 41
    },
    {
      "midi": 35,
      "hit": false,
      "t": 77727.3375000004,
      "d": 261.36385416667326,
      "v": 93
    },
    {
      "midi": 56,
      "hit": false,
      "t": 77727.33750000078,
      "d": 125.00010416666919,
      "v": 48
    },
    {
      "midi": 59,
      "hit": false,
      "t": 77727.33750000078,
      "d": 125.00010416666919,
      "v": 48
    },
    {
      "midi": 64,
      "hit": false,
      "t": 77727.33750000078,
      "d": 534.0913541666814,
      "v": 48
    },
    {
      "midi": 56,
      "hit": false,
      "t": 77727.3375000008,
      "d": 125.00010416666919,
      "v": 54
    },
    {
      "midi": 59,
      "hit": false,
      "t": 77727.3375000008,
      "d": 125.00010416666919,
      "v": 54
    },
    {
      "midi": 64,
      "hit": false,
      "t": 77727.3375000008,
      "d": 534.0913541666814,
      "v": 54
    },
    {
      "midi": 64,
      "hit": false,
      "t": 77738.70114583295,
      "d": 102.27281249999942,
      "v": 41
    },
    {
      "midi": 76,
      "hit": false,
      "t": 77738.70114583295,
      "d": 102.27281249999942,
      "v": 41
    },
    {
      "midi": 56,
      "hit": false,
      "t": 77863.70125000078,
      "d": 125.00010416666919,
      "v": 48
    },
    {
      "midi": 59,
      "hit": false,
      "t": 77863.70125000078,
      "d": 125.00010416666919,
      "v": 48
    },
    {
      "midi": 56,
      "hit": false,
      "t": 77863.7012500008,
      "d": 125.00010416666919,
      "v": 54
    },
    {
      "midi": 59,
      "hit": false,
      "t": 77863.7012500008,
      "d": 125.00010416666919,
      "v": 54
    },
    {
      "midi": 64,
      "hit": false,
      "t": 77875.06489583295,
      "d": 102.27281249999942,
      "v": 41
    },
    {
      "midi": 76,
      "hit": false,
      "t": 77875.06489583295,
      "d": 102.27281249999942,
      "v": 41
    },
    {
      "midi": 37,
      "hit": false,
      "t": 78000.06500000041,
      "d": 261.36385416667326,
      "v": 93
    },
    {
      "midi": 56,
      "hit": false,
      "t": 78000.06500000079,
      "d": 125.00010416666919,
      "v": 76
    },
    {
      "midi": 59,
      "hit": false,
      "t": 78000.06500000079,
      "d": 125.00010416666919,
      "v": 76
    },
    {
      "midi": 56,
      "hit": false,
      "t": 78000.0650000008,
      "d": 125.00010416666919,
      "v": 74
    },
    {
      "midi": 59,
      "hit": false,
      "t": 78000.0650000008,
      "d": 125.00010416666919,
      "v": 74
    },
    {
      "midi": 64,
      "hit": false,
      "t": 78011.42864583296,
      "d": 102.27281249999942,
      "v": 74
    },
    {
      "midi": 76,
      "hit": false,
      "t": 78011.42864583296,
      "d": 102.27281249999942,
      "v": 74
    },
    {
      "midi": 56,
      "hit": false,
      "t": 78136.42875000079,
      "d": 125.00010416666919,
      "v": 48
    },
    {
      "midi": 59,
      "hit": false,
      "t": 78136.42875000079,
      "d": 125.00010416666919,
      "v": 48
    },
    {
      "midi": 56,
      "hit": false,
      "t": 78136.4287500008,
      "d": 125.00010416666919,
      "v": 54
    },
    {
      "midi": 59,
      "hit": false,
      "t": 78136.4287500008,
      "d": 125.00010416666919,
      "v": 54
    },
    {
      "midi": 64,
      "hit": false,
      "t": 78147.79239583296,
      "d": 102.27281249999942,
      "v": 47
    },
    {
      "midi": 76,
      "hit": false,
      "t": 78147.79239583296,
      "d": 102.27281249999942,
      "v": 47
    },
    {
      "midi": 33,
      "hit": false,
      "t": 78272.79250000042,
      "d": 261.36385416667326,
      "v": 93
    },
    {
      "midi": 52,
      "hit": false,
      "t": 78272.7925000008,
      "d": 261.36385416667326,
      "v": 76
    },
    {
      "midi": 56,
      "hit": false,
      "t": 78272.7925000008,
      "d": 261.36385416667326,
      "v": 76
    },
    {
      "midi": 59,
      "hit": false,
      "t": 78272.7925000008,
      "d": 261.36385416667326,
      "v": 76
    },
    {
      "midi": 64,
      "hit": false,
      "t": 78272.7925000008,
      "d": 261.36385416667326,
      "v": 76
    },
    {
      "midi": 52,
      "hit": false,
      "t": 78272.79250000081,
      "d": 125.00010416666919,
      "v": 54
    },
    {
      "midi": 56,
      "hit": false,
      "t": 78272.79250000081,
      "d": 125.00010416666919,
      "v": 54
    },
    {
      "midi": 64,
      "hit": false,
      "t": 78284.15614583297,
      "d": 102.27281249999942,
      "v": 47
    },
    {
      "midi": 76,
      "hit": false,
      "t": 78284.15614583297,
      "d": 102.27281249999942,
      "v": 47
    },
    {
      "midi": 52,
      "hit": false,
      "t": 78409.15625000081,
      "d": 125.00010416666919,
      "v": 54
    },
    {
      "midi": 56,
      "hit": false,
      "t": 78409.15625000081,
      "d": 125.00010416666919,
      "v": 54
    },
    {
      "midi": 64,
      "hit": false,
      "t": 78420.51989583297,
      "d": 102.27281249999942,
      "v": 47
    },
    {
      "midi": 76,
      "hit": false,
      "t": 78420.51989583297,
      "d": 102.27281249999942,
      "v": 47
    },
    {
      "midi": 40,
      "hit": false,
      "t": 78545.52000000043,
      "d": 534.0913541666669,
      "v": 93
    },
    {
      "midi": 54,
      "hit": false,
      "t": 78545.5200000008,
      "d": 90.90916666666453,
      "v": 63
    },
    {
      "midi": 59,
      "hit": false,
      "t": 78545.5200000008,
      "d": 136.36375000000407,
      "v": 67
    },
    {
      "midi": 64,
      "hit": false,
      "t": 78545.5200000008,
      "d": 136.36375000000407,
      "v": 67
    },
    {
      "midi": 40,
      "hit": false,
      "t": 78545.5200000008,
      "d": 670.4551041666855,
      "v": 76
    },
    {
      "midi": 54,
      "hit": false,
      "t": 78545.52000000082,
      "d": 90.90916666666453,
      "v": 74
    },
    {
      "midi": 59,
      "hit": false,
      "t": 78545.52000000082,
      "d": 136.36375000000407,
      "v": 73
    },
    {
      "midi": 64,
      "hit": false,
      "t": 78545.52000000082,
      "d": 136.36375000000407,
      "v": 73
    },
    {
      "midi": 40,
      "hit": false,
      "t": 78545.52000000082,
      "d": 670.4551041666855,
      "v": 44
    },
    {
      "midi": 64,
      "hit": false,
      "t": 78556.88364583298,
      "d": 102.27281249999942,
      "v": 76
    },
    {
      "midi": 76,
      "hit": false,
      "t": 78556.88364583298,
      "d": 102.27281249999942,
      "v": 76
    },
    {
      "midi": 68,
      "hit": false,
      "t": 78556.88364583414,
      "d": 261.36385416667326,
      "v": 30
    },
    {
      "midi": 68,
      "hit": false,
      "t": 78556.88364583415,
      "d": 261.36385416667326,
      "v": 44
    },
    {
      "midi": 59,
      "hit": false,
      "t": 78681.88375000081,
      "d": 22.72729166666977,
      "v": 64
    },
    {
      "midi": 64,
      "hit": false,
      "t": 78681.88375000081,
      "d": 22.72729166666977,
      "v": 46
    },
    {
      "midi": 56,
      "hit": false,
      "t": 78681.88375000081,
      "d": 386.36395833334245,
      "v": 30
    },
    {
      "midi": 59,
      "hit": false,
      "t": 78681.88375000082,
      "d": 22.72729166666977,
      "v": 70
    },
    {
      "midi": 64,
      "hit": false,
      "t": 78681.88375000082,
      "d": 22.72729166666977,
      "v": 52
    },
    {
      "midi": 56,
      "hit": false,
      "t": 78681.88375000082,
      "d": 386.36395833334245,
      "v": 44
    },
    {
      "midi": 64,
      "hit": false,
      "t": 78693.24739583298,
      "d": 102.27281249999942,
      "v": 41
    },
    {
      "midi": 76,
      "hit": false,
      "t": 78693.24739583298,
      "d": 102.27281249999942,
      "v": 41
    },
    {
      "midi": 59,
      "hit": false,
      "t": 78818.24750000081,
      "d": 22.72729166666977,
      "v": 46
    },
    {
      "midi": 64,
      "hit": false,
      "t": 78818.24750000081,
      "d": 22.72729166666977,
      "v": 46
    },
    {
      "midi": 59,
      "hit": false,
      "t": 78818.24750000083,
      "d": 22.72729166666977,
      "v": 52
    },
    {
      "midi": 64,
      "hit": false,
      "t": 78818.24750000083,
      "d": 22.72729166666977,
      "v": 52
    },
    {
      "midi": 64,
      "hit": false,
      "t": 78829.61114583298,
      "d": 102.27281249999942,
      "v": 41
    },
    {
      "midi": 76,
      "hit": false,
      "t": 78829.61114583298,
      "d": 102.27281249999942,
      "v": 41
    },
    {
      "midi": 59,
      "hit": false,
      "t": 78954.61125000082,
      "d": 90.90916666666453,
      "v": 47
    },
    {
      "midi": 64,
      "hit": false,
      "t": 78954.61125000082,
      "d": 90.90916666666453,
      "v": 67
    },
    {
      "midi": 68,
      "hit": false,
      "t": 78954.61125000082,
      "d": 113.6364583333343,
      "v": 30
    },
    {
      "midi": 59,
      "hit": false,
      "t": 78954.61125000083,
      "d": 90.90916666666453,
      "v": 53
    },
    {
      "midi": 64,
      "hit": false,
      "t": 78954.61125000083,
      "d": 90.90916666666453,
      "v": 73
    },
    {
      "midi": 68,
      "hit": false,
      "t": 78954.61125000083,
      "d": 113.6364583333343,
      "v": 44
    },
    {
      "midi": 64,
      "hit": false,
      "t": 78965.97489583299,
      "d": 102.27281249999942,
      "v": 41
    },
    {
      "midi": 76,
      "hit": false,
      "t": 78965.97489583299,
      "d": 102.27281249999942,
      "v": 41
    },
    {
      "midi": 35,
      "hit": false,
      "t": 79090.97500000043,
      "d": 261.36385416667326,
      "v": 93
    },
    {
      "midi": 59,
      "hit": false,
      "t": 79090.97500000082,
      "d": 102.27281249999942,
      "v": 72
    },
    {
      "midi": 64,
      "hit": false,
      "t": 79090.97500000082,
      "d": 102.27281249999942,
      "v": 72
    },
    {
      "midi": 59,
      "hit": false,
      "t": 79090.97500000084,
      "d": 102.27281249999942,
      "v": 74
    },
    {
      "midi": 64,
      "hit": false,
      "t": 79090.97500000084,
      "d": 102.27281249999942,
      "v": 74
    },
    {
      "midi": 64,
      "hit": false,
      "t": 79102.33864583299,
      "d": 102.27281249999942,
      "v": 41
    },
    {
      "midi": 76,
      "hit": false,
      "t": 79102.33864583299,
      "d": 102.27281249999942,
      "v": 41
    },
    {
      "midi": 68,
      "hit": false,
      "t": 79102.33864583416,
      "d": 113.6364583333343,
      "v": 30
    },
    {
      "midi": 68,
      "hit": false,
      "t": 79102.33864583417,
      "d": 113.6364583333343,
      "v": 44
    },
    {
      "midi": 59,
      "hit": false,
      "t": 79227.33875000082,
      "d": 11.363645833334886,
      "v": 30
    },
    {
      "midi": 64,
      "hit": false,
      "t": 79227.33875000082,
      "d": 11.363645833334886,
      "v": 30
    },
    {
      "midi": 68,
      "hit": false,
      "t": 79227.33875000082,
      "d": 34.09093750000466,
      "v": 30
    },
    {
      "midi": 59,
      "hit": false,
      "t": 79227.33875000084,
      "d": 11.363645833334886,
      "v": 44
    },
    {
      "midi": 64,
      "hit": false,
      "t": 79227.33875000084,
      "d": 11.363645833334886,
      "v": 44
    },
    {
      "midi": 68,
      "hit": false,
      "t": 79227.33875000084,
      "d": 34.09093750000466,
      "v": 44
    },
    {
      "midi": 64,
      "hit": false,
      "t": 79238.702395833,
      "d": 102.27281249999942,
      "v": 41
    },
    {
      "midi": 76,
      "hit": false,
      "t": 79238.702395833,
      "d": 102.27281249999942,
      "v": 41
    },
    {
      "midi": 68,
      "hit": false,
      "t": 79363.70250000083,
      "d": 261.36385416667326,
      "v": 64
    },
    {
      "midi": 59,
      "hit": false,
      "t": 79363.70250000083,
      "d": 397.72760416667734,
      "v": 64
    },
    {
      "midi": 64,
      "hit": false,
      "t": 79363.70250000083,
      "d": 397.72760416667734,
      "v": 64
    },
    {
      "midi": 56,
      "hit": false,
      "t": 79363.70250000083,
      "d": 534.0913541666814,
      "v": 64
    },
    {
      "midi": 40,
      "hit": false,
      "t": 79363.70250000083,
      "d": 1079.5463541666977,
      "v": 76
    },
    {
      "midi": 68,
      "hit": false,
      "t": 79363.70250000084,
      "d": 261.36385416667326,
      "v": 70
    },
    {
      "midi": 59,
      "hit": false,
      "t": 79363.70250000084,
      "d": 397.72760416667734,
      "v": 70
    },
    {
      "midi": 64,
      "hit": false,
      "t": 79363.70250000084,
      "d": 397.72760416667734,
      "v": 70
    },
    {
      "midi": 56,
      "hit": false,
      "t": 79363.70250000084,
      "d": 534.0913541666814,
      "v": 70
    },
    {
      "midi": 40,
      "hit": false,
      "t": 79363.70250000084,
      "d": 1079.5463541666977,
      "v": 44
    },
    {
      "midi": 64,
      "hit": false,
      "t": 79375.066145833,
      "d": 102.27281249999942,
      "v": 76
    },
    {
      "midi": 76,
      "hit": false,
      "t": 79375.066145833,
      "d": 102.27281249999942,
      "v": 76
    },
    {
      "midi": 35,
      "hit": false,
      "t": 79500.06625000044,
      "d": 125.00010416666919,
      "v": 93
    },
    {
      "midi": 64,
      "hit": false,
      "t": 79511.429895833,
      "d": 102.27281249999942,
      "v": 41
    },
    {
      "midi": 76,
      "hit": false,
      "t": 79511.429895833,
      "d": 102.27281249999942,
      "v": 41
    },
    {
      "midi": 40,
      "hit": false,
      "t": 79636.43000000044,
      "d": 125.00010416666919,
      "v": 93
    },
    {
      "midi": 64,
      "hit": false,
      "t": 79647.79364583301,
      "d": 102.27281249999942,
      "v": 41
    },
    {
      "midi": 76,
      "hit": false,
      "t": 79647.79364583301,
      "d": 102.27281249999942,
      "v": 41
    },
    {
      "midi": 59,
      "hit": false,
      "t": 79772.79375000084,
      "d": 125.00010416666919,
      "v": 30
    },
    {
      "midi": 64,
      "hit": false,
      "t": 79772.79375000084,
      "d": 125.00010416666919,
      "v": 30
    },
    {
      "midi": 68,
      "hit": false,
      "t": 79772.79375000084,
      "d": 125.00010416666919,
      "v": 30
    },
    {
      "midi": 59,
      "hit": false,
      "t": 79772.79375000086,
      "d": 125.00010416666919,
      "v": 44
    },
    {
      "midi": 64,
      "hit": false,
      "t": 79772.79375000086,
      "d": 125.00010416666919,
      "v": 44
    },
    {
      "midi": 68,
      "hit": false,
      "t": 79772.79375000086,
      "d": 125.00010416666919,
      "v": 44
    },
    {
      "midi": 64,
      "hit": false,
      "t": 79784.15739583301,
      "d": 102.27281249999942,
      "v": 41
    },
    {
      "midi": 76,
      "hit": false,
      "t": 79784.15739583301,
      "d": 102.27281249999942,
      "v": 41
    },
    {
      "midi": 40,
      "hit": false,
      "t": 79909.15750000045,
      "d": 261.36385416667326,
      "v": 93
    },
    {
      "midi": 59,
      "hit": false,
      "t": 79909.15750000085,
      "d": 113.6364583333343,
      "v": 30
    },
    {
      "midi": 64,
      "hit": false,
      "t": 79909.15750000085,
      "d": 113.6364583333343,
      "v": 30
    },
    {
      "midi": 68,
      "hit": false,
      "t": 79909.15750000085,
      "d": 113.6364583333343,
      "v": 30
    },
    {
      "midi": 59,
      "hit": false,
      "t": 79909.15750000086,
      "d": 113.6364583333343,
      "v": 44
    },
    {
      "midi": 64,
      "hit": false,
      "t": 79909.15750000086,
      "d": 113.6364583333343,
      "v": 44
    },
    {
      "midi": 68,
      "hit": false,
      "t": 79909.15750000086,
      "d": 113.6364583333343,
      "v": 44
    },
    {
      "midi": 64,
      "hit": false,
      "t": 79920.52114583302,
      "d": 102.27281249999942,
      "v": 41
    },
    {
      "midi": 76,
      "hit": false,
      "t": 79920.52114583302,
      "d": 102.27281249999942,
      "v": 41
    },
    {
      "midi": 59,
      "hit": false,
      "t": 80045.52125000085,
      "d": 113.6364583333343,
      "v": 59
    },
    {
      "midi": 64,
      "hit": false,
      "t": 80045.52125000085,
      "d": 113.6364583333343,
      "v": 59
    },
    {
      "midi": 68,
      "hit": false,
      "t": 80045.52125000085,
      "d": 113.6364583333343,
      "v": 59
    },
    {
      "midi": 59,
      "hit": false,
      "t": 80045.52125000086,
      "d": 113.6364583333343,
      "v": 65
    },
    {
      "midi": 64,
      "hit": false,
      "t": 80045.52125000086,
      "d": 113.6364583333343,
      "v": 65
    },
    {
      "midi": 68,
      "hit": false,
      "t": 80045.52125000086,
      "d": 113.6364583333343,
      "v": 65
    },
    {
      "midi": 64,
      "hit": false,
      "t": 80056.88489583302,
      "d": 102.27281249999942,
      "v": 41
    },
    {
      "midi": 76,
      "hit": false,
      "t": 80056.88489583302,
      "d": 102.27281249999942,
      "v": 41
    },
    {
      "midi": 35,
      "hit": false,
      "t": 80181.88500000046,
      "d": 261.36385416667326,
      "v": 93
    },
    {
      "midi": 64,
      "hit": false,
      "t": 80181.88500000085,
      "d": 11.363645833334886,
      "v": 76
    },
    {
      "midi": 59,
      "hit": false,
      "t": 80181.88500000085,
      "d": 34.09093750000466,
      "v": 76
    },
    {
      "midi": 68,
      "hit": false,
      "t": 80181.88500000085,
      "d": 34.09093750000466,
      "v": 76
    },
    {
      "midi": 64,
      "hit": false,
      "t": 80181.88500000087,
      "d": 11.363645833334886,
      "v": 74
    },
    {
      "midi": 59,
      "hit": false,
      "t": 80181.88500000087,
      "d": 34.09093750000466,
      "v": 74
    },
    {
      "midi": 68,
      "hit": false,
      "t": 80181.88500000087,
      "d": 34.09093750000466,
      "v": 74
    },
    {
      "midi": 64,
      "hit": false,
      "t": 80193.24864583302,
      "d": 102.27281249999942,
      "v": 74
    },
    {
      "midi": 76,
      "hit": false,
      "t": 80193.24864583302,
      "d": 102.27281249999942,
      "v": 74
    },
    {
      "midi": 64,
      "hit": false,
      "t": 80193.24864583419,
      "d": 11.363645833334886,
      "v": 55
    },
    {
      "midi": 64,
      "hit": false,
      "t": 80193.2486458342,
      "d": 11.363645833334886,
      "v": 61
    },
    {
      "midi": 59,
      "hit": false,
      "t": 80318.24875000086,
      "d": 45.45458333333954,
      "v": 30
    },
    {
      "midi": 56,
      "hit": false,
      "t": 80318.24875000086,
      "d": 68.18187500000931,
      "v": 30
    },
    {
      "midi": 59,
      "hit": false,
      "t": 80318.24875000087,
      "d": 45.45458333333954,
      "v": 44
    },
    {
      "midi": 56,
      "hit": false,
      "t": 80318.24875000087,
      "d": 68.18187500000931,
      "v": 44
    },
    {
      "midi": 64,
      "hit": false,
      "t": 80329.61239583303,
      "d": 102.27281249999942,
      "v": 47
    },
    {
      "midi": 76,
      "hit": false,
      "t": 80329.61239583303,
      "d": 102.27281249999942,
      "v": 47
    },
    {
      "midi": 59,
      "hit": false,
      "t": 80454.61250000086,
      "d": 90.90916666666453,
      "v": 53
    },
    {
      "midi": 64,
      "hit": false,
      "t": 80454.61250000086,
      "d": 90.90916666666453,
      "v": 53
    },
    {
      "midi": 56,
      "hit": false,
      "t": 80454.61250000086,
      "d": 136.36375000000407,
      "v": 53
    },
    {
      "midi": 59,
      "hit": false,
      "t": 80454.61250000088,
      "d": 90.90916666666453,
      "v": 59
    },
    {
      "midi": 64,
      "hit": false,
      "t": 80454.61250000088,
      "d": 90.90916666666453,
      "v": 59
    },
    {
      "midi": 56,
      "hit": false,
      "t": 80454.61250000088,
      "d": 136.36375000000407,
      "v": 59
    },
    {
      "midi": 64,
      "hit": false,
      "t": 80465.97614583303,
      "d": 102.27281249999942,
      "v": 47
    },
    {
      "midi": 76,
      "hit": false,
      "t": 80465.97614583303,
      "d": 102.27281249999942,
      "v": 47
    },
    {
      "midi": 35,
      "hit": false,
      "t": 80590.97625000047,
      "d": 125.00010416666919,
      "v": 93
    },
    {
      "midi": 59,
      "hit": false,
      "t": 80590.97625000087,
      "d": 90.90916666666453,
      "v": 30
    },
    {
      "midi": 64,
      "hit": false,
      "t": 80590.97625000087,
      "d": 90.90916666666453,
      "v": 30
    },
    {
      "midi": 56,
      "hit": false,
      "t": 80590.97625000087,
      "d": 136.36375000000407,
      "v": 30
    },
    {
      "midi": 59,
      "hit": false,
      "t": 80590.97625000088,
      "d": 90.90916666666453,
      "v": 44
    },
    {
      "midi": 64,
      "hit": false,
      "t": 80590.97625000088,
      "d": 90.90916666666453,
      "v": 44
    },
    {
      "midi": 56,
      "hit": false,
      "t": 80590.97625000088,
      "d": 136.36375000000407,
      "v": 44
    },
    {
      "midi": 64,
      "hit": false,
      "t": 80602.33989583304,
      "d": 102.27281249999942,
      "v": 47
    },
    {
      "midi": 76,
      "hit": false,
      "t": 80602.33989583304,
      "d": 102.27281249999942,
      "v": 47
    },
    {
      "midi": 40,
      "hit": false,
      "t": 80727.34000000048,
      "d": 534.0913541666669,
      "v": 93
    },
    {
      "midi": 59,
      "hit": false,
      "t": 80727.34000000087,
      "d": 136.36375000000407,
      "v": 67
    },
    {
      "midi": 64,
      "hit": false,
      "t": 80727.34000000087,
      "d": 136.36375000000407,
      "v": 67
    },
    {
      "midi": 54,
      "hit": false,
      "t": 80727.34000000087,
      "d": 181.81833333334362,
      "v": 57
    },
    {
      "midi": 68,
      "hit": false,
      "t": 80727.34000000087,
      "d": 250.00020833333838,
      "v": 67
    },
    {
      "midi": 40,
      "hit": false,
      "t": 80727.34000000087,
      "d": 659.091458333336,
      "v": 76
    },
    {
      "midi": 59,
      "hit": false,
      "t": 80727.34000000088,
      "d": 136.36375000000407,
      "v": 73
    },
    {
      "midi": 64,
      "hit": false,
      "t": 80727.34000000088,
      "d": 136.36375000000407,
      "v": 73
    },
    {
      "midi": 54,
      "hit": false,
      "t": 80727.34000000088,
      "d": 181.81833333334362,
      "v": 74
    },
    {
      "midi": 68,
      "hit": false,
      "t": 80727.34000000088,
      "d": 250.00020833333838,
      "v": 73
    },
    {
      "midi": 40,
      "hit": false,
      "t": 80727.34000000088,
      "d": 522.727708333332,
      "v": 44
    },
    {
      "midi": 64,
      "hit": false,
      "t": 80738.70364583304,
      "d": 102.27281249999942,
      "v": 76
    },
    {
      "midi": 76,
      "hit": false,
      "t": 80738.70364583304,
      "d": 102.27281249999942,
      "v": 76
    },
    {
      "midi": 59,
      "hit": false,
      "t": 80863.70375000087,
      "d": 22.72729166666977,
      "v": 46
    },
    {
      "midi": 64,
      "hit": false,
      "t": 80863.70375000087,
      "d": 22.72729166666977,
      "v": 46
    },
    {
      "midi": 56,
      "hit": false,
      "t": 80863.70375000087,
      "d": 386.3639583333279,
      "v": 30
    },
    {
      "midi": 59,
      "hit": false,
      "t": 80863.70375000089,
      "d": 22.72729166666977,
      "v": 52
    },
    {
      "midi": 64,
      "hit": false,
      "t": 80863.70375000089,
      "d": 22.72729166666977,
      "v": 52
    },
    {
      "midi": 56,
      "hit": false,
      "t": 80863.70375000089,
      "d": 386.3639583333279,
      "v": 44
    },
    {
      "midi": 64,
      "hit": false,
      "t": 80875.06739583304,
      "d": 102.27281249999942,
      "v": 41
    },
    {
      "midi": 76,
      "hit": false,
      "t": 80875.06739583304,
      "d": 102.27281249999942,
      "v": 41
    },
    {
      "midi": 59,
      "hit": false,
      "t": 81000.06750000088,
      "d": 79.54552083332965,
      "v": 46
    },
    {
      "midi": 64,
      "hit": false,
      "t": 81000.06750000088,
      "d": 79.54552083332965,
      "v": 46
    },
    {
      "midi": 68,
      "hit": false,
      "t": 81000.06750000088,
      "d": 79.54552083332965,
      "v": 46
    },
    {
      "midi": 59,
      "hit": false,
      "t": 81000.06750000089,
      "d": 79.54552083332965,
      "v": 52
    },
    {
      "midi": 64,
      "hit": false,
      "t": 81000.06750000089,
      "d": 79.54552083332965,
      "v": 52
    },
    {
      "midi": 68,
      "hit": false,
      "t": 81000.06750000089,
      "d": 79.54552083332965,
      "v": 52
    },
    {
      "midi": 64,
      "hit": false,
      "t": 81011.43114583305,
      "d": 102.27281249999942,
      "v": 41
    },
    {
      "midi": 76,
      "hit": false,
      "t": 81011.43114583305,
      "d": 102.27281249999942,
      "v": 41
    },
    {
      "midi": 59,
      "hit": false,
      "t": 81136.43125000087,
      "d": 68.18187499999476,
      "v": 67
    },
    {
      "midi": 64,
      "hit": false,
      "t": 81136.43125000087,
      "d": 68.18187499999476,
      "v": 67
    },
    {
      "midi": 68,
      "hit": false,
      "t": 81136.43125000087,
      "d": 68.18187499999476,
      "v": 67
    },
    {
      "midi": 59,
      "hit": false,
      "t": 81136.43125000088,
      "d": 68.18187499999476,
      "v": 73
    },
    {
      "midi": 64,
      "hit": false,
      "t": 81136.43125000088,
      "d": 68.18187499999476,
      "v": 73
    },
    {
      "midi": 68,
      "hit": false,
      "t": 81136.43125000088,
      "d": 68.18187499999476,
      "v": 73
    },
    {
      "midi": 64,
      "hit": false,
      "t": 81147.79489583305,
      "d": 102.27281249999942,
      "v": 41
    },
    {
      "midi": 76,
      "hit": false,
      "t": 81147.79489583305,
      "d": 102.27281249999942,
      "v": 41
    },
    {
      "midi": 35,
      "hit": false,
      "t": 81272.79500000048,
      "d": 261.36385416667326,
      "v": 93
    },
    {
      "midi": 56,
      "hit": false,
      "t": 81272.79500000087,
      "d": 113.6364583333343,
      "v": 46
    },
    {
      "midi": 59,
      "hit": false,
      "t": 81272.79500000087,
      "d": 113.6364583333343,
      "v": 59
    },
    {
      "midi": 64,
      "hit": false,
      "t": 81272.79500000087,
      "d": 113.6364583333343,
      "v": 59
    },
    {
      "midi": 68,
      "hit": false,
      "t": 81272.79500000087,
      "d": 113.6364583333343,
      "v": 59
    },
    {
      "midi": 56,
      "hit": false,
      "t": 81272.79500000089,
      "d": 113.6364583333343,
      "v": 52
    },
    {
      "midi": 59,
      "hit": false,
      "t": 81272.79500000089,
      "d": 113.6364583333343,
      "v": 65
    },
    {
      "midi": 64,
      "hit": false,
      "t": 81272.79500000089,
      "d": 113.6364583333343,
      "v": 65
    },
    {
      "midi": 68,
      "hit": false,
      "t": 81272.79500000089,
      "d": 113.6364583333343,
      "v": 65
    },
    {
      "midi": 64,
      "hit": false,
      "t": 81284.15864583306,
      "d": 102.27281249999942,
      "v": 41
    },
    {
      "midi": 76,
      "hit": false,
      "t": 81284.15864583306,
      "d": 102.27281249999942,
      "v": 41
    },
    {
      "midi": 64,
      "hit": false,
      "t": 81420.52239583306,
      "d": 102.27281249999942,
      "v": 41
    },
    {
      "midi": 76,
      "hit": false,
      "t": 81420.52239583306,
      "d": 102.27281249999942,
      "v": 41
    },
    {
      "midi": 68,
      "hit": false,
      "t": 81545.52250000088,
      "d": 136.36375000000407,
      "v": 67
    },
    {
      "midi": 59,
      "hit": false,
      "t": 81545.52250000088,
      "d": 159.09104166667385,
      "v": 76
    },
    {
      "midi": 64,
      "hit": false,
      "t": 81545.52250000088,
      "d": 250.00020833333838,
      "v": 67
    },
    {
      "midi": 45,
      "hit": false,
      "t": 81545.52250000088,
      "d": 670.4551041666855,
      "v": 76
    },
    {
      "midi": 68,
      "hit": false,
      "t": 81545.5225000009,
      "d": 136.36375000000407,
      "v": 73
    },
    {
      "midi": 59,
      "hit": false,
      "t": 81545.5225000009,
      "d": 159.09104166667385,
      "v": 74
    },
    {
      "midi": 64,
      "hit": false,
      "t": 81545.5225000009,
      "d": 250.00020833333838,
      "v": 73
    },
    {
      "midi": 45,
      "hit": false,
      "t": 81545.5225000009,
      "d": 670.4551041666855,
      "v": 44
    },
    {
      "midi": 64,
      "hit": false,
      "t": 81556.88614583306,
      "d": 102.27281249999942,
      "v": 76
    },
    {
      "midi": 76,
      "hit": false,
      "t": 81556.88614583306,
      "d": 102.27281249999942,
      "v": 76
    },
    {
      "midi": 35,
      "hit": false,
      "t": 81681.88625000049,
      "d": 125.00010416666919,
      "v": 93
    },
    {
      "midi": 61,
      "hit": false,
      "t": 81681.88625000088,
      "d": 113.6364583333343,
      "v": 30
    },
    {
      "midi": 69,
      "hit": false,
      "t": 81681.88625000088,
      "d": 113.6364583333343,
      "v": 30
    },
    {
      "midi": 61,
      "hit": false,
      "t": 81681.8862500009,
      "d": 113.6364583333343,
      "v": 44
    },
    {
      "midi": 69,
      "hit": false,
      "t": 81681.8862500009,
      "d": 113.6364583333343,
      "v": 44
    },
    {
      "midi": 64,
      "hit": false,
      "t": 81693.24989583307,
      "d": 102.27281249999942,
      "v": 41
    },
    {
      "midi": 76,
      "hit": false,
      "t": 81693.24989583307,
      "d": 102.27281249999942,
      "v": 41
    },
    {
      "midi": 40,
      "hit": false,
      "t": 81818.2500000005,
      "d": 125.00010416666919,
      "v": 93
    },
    {
      "midi": 61,
      "hit": false,
      "t": 81818.25000000089,
      "d": 113.6364583333343,
      "v": 30
    },
    {
      "midi": 64,
      "hit": false,
      "t": 81818.25000000089,
      "d": 113.6364583333343,
      "v": 30
    },
    {
      "midi": 69,
      "hit": false,
      "t": 81818.25000000089,
      "d": 113.6364583333343,
      "v": 30
    },
    {
      "midi": 61,
      "hit": false,
      "t": 81818.2500000009,
      "d": 113.6364583333343,
      "v": 44
    },
    {
      "midi": 64,
      "hit": false,
      "t": 81818.2500000009,
      "d": 113.6364583333343,
      "v": 44
    },
    {
      "midi": 69,
      "hit": false,
      "t": 81818.2500000009,
      "d": 113.6364583333343,
      "v": 44
    },
    {
      "midi": 64,
      "hit": false,
      "t": 81829.61364583307,
      "d": 102.27281249999942,
      "v": 41
    },
    {
      "midi": 76,
      "hit": false,
      "t": 81829.61364583307,
      "d": 102.27281249999942,
      "v": 41
    },
    {
      "midi": 64,
      "hit": false,
      "t": 81954.61375000089,
      "d": 113.6364583333343,
      "v": 76
    },
    {
      "midi": 69,
      "hit": false,
      "t": 81954.61375000089,
      "d": 113.6364583333343,
      "v": 76
    },
    {
      "midi": 61,
      "hit": false,
      "t": 81954.61375000089,
      "d": 238.6365625000035,
      "v": 76
    },
    {
      "midi": 64,
      "hit": false,
      "t": 81954.6137500009,
      "d": 113.6364583333343,
      "v": 74
    },
    {
      "midi": 69,
      "hit": false,
      "t": 81954.6137500009,
      "d": 113.6364583333343,
      "v": 74
    },
    {
      "midi": 61,
      "hit": false,
      "t": 81954.6137500009,
      "d": 238.6365625000035,
      "v": 74
    },
    {
      "midi": 64,
      "hit": false,
      "t": 81965.97739583308,
      "d": 102.27281249999942,
      "v": 41
    },
    {
      "midi": 76,
      "hit": false,
      "t": 81965.97739583308,
      "d": 102.27281249999942,
      "v": 41
    },
    {
      "midi": 40,
      "hit": false,
      "t": 82090.9775000005,
      "d": 261.36385416667326,
      "v": 93
    },
    {
      "midi": 64,
      "hit": false,
      "t": 82090.9775000009,
      "d": 102.27281249999942,
      "v": 46
    },
    {
      "midi": 69,
      "hit": false,
      "t": 82090.9775000009,
      "d": 102.27281249999942,
      "v": 46
    },
    {
      "midi": 64,
      "hit": false,
      "t": 82090.97750000091,
      "d": 102.27281249999942,
      "v": 52
    },
    {
      "midi": 69,
      "hit": false,
      "t": 82090.97750000091,
      "d": 102.27281249999942,
      "v": 52
    },
    {
      "midi": 64,
      "hit": false,
      "t": 82102.34114583308,
      "d": 102.27281249999942,
      "v": 41
    },
    {
      "midi": 76,
      "hit": false,
      "t": 82102.34114583308,
      "d": 102.27281249999942,
      "v": 41
    },
    {
      "midi": 61,
      "hit": false,
      "t": 82227.3412500009,
      "d": 113.6364583333343,
      "v": 46
    },
    {
      "midi": 64,
      "hit": false,
      "t": 82227.3412500009,
      "d": 113.6364583333343,
      "v": 46
    },
    {
      "midi": 69,
      "hit": false,
      "t": 82227.3412500009,
      "d": 113.6364583333343,
      "v": 46
    },
    {
      "midi": 61,
      "hit": false,
      "t": 82227.34125000091,
      "d": 113.6364583333343,
      "v": 52
    },
    {
      "midi": 64,
      "hit": false,
      "t": 82227.34125000091,
      "d": 113.6364583333343,
      "v": 52
    },
    {
      "midi": 69,
      "hit": false,
      "t": 82227.34125000091,
      "d": 113.6364583333343,
      "v": 52
    },
    {
      "midi": 64,
      "hit": false,
      "t": 82238.70489583309,
      "d": 102.27281249999942,
      "v": 41
    },
    {
      "midi": 76,
      "hit": false,
      "t": 82238.70489583309,
      "d": 102.27281249999942,
      "v": 41
    },
    {
      "midi": 35,
      "hit": false,
      "t": 82363.70500000051,
      "d": 125.00010416666919,
      "v": 93
    },
    {
      "midi": 61,
      "hit": false,
      "t": 82363.7050000009,
      "d": 136.36375000000407,
      "v": 76
    },
    {
      "midi": 69,
      "hit": false,
      "t": 82363.7050000009,
      "d": 136.36375000000407,
      "v": 76
    },
    {
      "midi": 64,
      "hit": false,
      "t": 82363.7050000009,
      "d": 181.81833333334362,
      "v": 76
    },
    {
      "midi": 45,
      "hit": false,
      "t": 82363.70500000092,
      "d": 125.00010416666919,
      "v": 44
    },
    {
      "midi": 61,
      "hit": false,
      "t": 82363.70500000092,
      "d": 125.00010416666919,
      "v": 74
    },
    {
      "midi": 69,
      "hit": false,
      "t": 82363.70500000092,
      "d": 125.00010416666919,
      "v": 74
    },
    {
      "midi": 64,
      "hit": false,
      "t": 82363.70500000092,
      "d": 181.81833333334362,
      "v": 74
    },
    {
      "midi": 64,
      "hit": false,
      "t": 82375.06864583309,
      "d": 102.27281249999942,
      "v": 74
    },
    {
      "midi": 76,
      "hit": false,
      "t": 82375.06864583309,
      "d": 102.27281249999942,
      "v": 74
    },
    {
      "midi": 59,
      "hit": false,
      "t": 82500.06875000091,
      "d": 113.6364583333343,
      "v": 67
    },
    {
      "midi": 68,
      "hit": false,
      "t": 82500.06875000091,
      "d": 113.6364583333343,
      "v": 67
    },
    {
      "midi": 59,
      "hit": false,
      "t": 82500.06875000092,
      "d": 113.6364583333343,
      "v": 73
    },
    {
      "midi": 68,
      "hit": false,
      "t": 82500.06875000092,
      "d": 113.6364583333343,
      "v": 73
    },
    {
      "midi": 64,
      "hit": false,
      "t": 82511.4323958331,
      "d": 102.27281249999942,
      "v": 47
    },
    {
      "midi": 76,
      "hit": false,
      "t": 82511.4323958331,
      "d": 102.27281249999942,
      "v": 47
    },
    {
      "midi": 35,
      "hit": false,
      "t": 82636.43250000052,
      "d": 68.18187499999476,
      "v": 93
    },
    {
      "midi": 59,
      "hit": false,
      "t": 82636.43250000091,
      "d": 22.72729166666977,
      "v": 67
    },
    {
      "midi": 64,
      "hit": false,
      "t": 82636.43250000091,
      "d": 22.72729166666977,
      "v": 67
    },
    {
      "midi": 59,
      "hit": false,
      "t": 82636.43250000093,
      "d": 22.72729166666977,
      "v": 73
    },
    {
      "midi": 64,
      "hit": false,
      "t": 82636.43250000093,
      "d": 22.72729166666977,
      "v": 73
    },
    {
      "midi": 64,
      "hit": false,
      "t": 82647.7961458331,
      "d": 102.27281249999942,
      "v": 47
    },
    {
      "midi": 76,
      "hit": false,
      "t": 82647.7961458331,
      "d": 102.27281249999942,
      "v": 47
    },
    {
      "midi": 35,
      "hit": false,
      "t": 82772.79625000051,
      "d": 125.00010416666919,
      "v": 93
    },
    {
      "midi": 59,
      "hit": false,
      "t": 82772.79625000092,
      "d": 22.72729166666977,
      "v": 46
    },
    {
      "midi": 64,
      "hit": false,
      "t": 82772.79625000092,
      "d": 22.72729166666977,
      "v": 46
    },
    {
      "midi": 59,
      "hit": false,
      "t": 82772.79625000093,
      "d": 22.72729166666977,
      "v": 52
    },
    {
      "midi": 64,
      "hit": false,
      "t": 82772.79625000093,
      "d": 22.72729166666977,
      "v": 52
    },
    {
      "midi": 64,
      "hit": false,
      "t": 82784.1598958331,
      "d": 102.27281249999942,
      "v": 47
    },
    {
      "midi": 76,
      "hit": false,
      "t": 82784.1598958331,
      "d": 102.27281249999942,
      "v": 47
    },
    {
      "midi": 40,
      "hit": false,
      "t": 82909.16000000051,
      "d": 534.0913541666669,
      "v": 93
    },
    {
      "midi": 54,
      "hit": false,
      "t": 82909.16000000092,
      "d": 90.90916666666453,
      "v": 63
    },
    {
      "midi": 59,
      "hit": false,
      "t": 82909.16000000092,
      "d": 136.36375000000407,
      "v": 67
    },
    {
      "midi": 64,
      "hit": false,
      "t": 82909.16000000092,
      "d": 136.36375000000407,
      "v": 67
    },
    {
      "midi": 40,
      "hit": false,
      "t": 82909.16000000092,
      "d": 670.4551041666855,
      "v": 76
    },
    {
      "midi": 54,
      "hit": false,
      "t": 82909.16000000093,
      "d": 90.90916666666453,
      "v": 74
    },
    {
      "midi": 59,
      "hit": false,
      "t": 82909.16000000093,
      "d": 136.36375000000407,
      "v": 73
    },
    {
      "midi": 64,
      "hit": false,
      "t": 82909.16000000093,
      "d": 136.36375000000407,
      "v": 73
    },
    {
      "midi": 40,
      "hit": false,
      "t": 82909.16000000093,
      "d": 670.4551041666855,
      "v": 44
    },
    {
      "midi": 64,
      "hit": false,
      "t": 82920.5236458331,
      "d": 102.27281249999942,
      "v": 76
    },
    {
      "midi": 76,
      "hit": false,
      "t": 82920.5236458331,
      "d": 102.27281249999942,
      "v": 76
    },
    {
      "midi": 68,
      "hit": false,
      "t": 82920.52364583426,
      "d": 261.36385416667326,
      "v": 30
    },
    {
      "midi": 68,
      "hit": false,
      "t": 82920.52364583427,
      "d": 261.36385416667326,
      "v": 44
    },
    {
      "midi": 59,
      "hit": false,
      "t": 83045.52375000092,
      "d": 22.72729166666977,
      "v": 64
    },
    {
      "midi": 64,
      "hit": false,
      "t": 83045.52375000092,
      "d": 22.72729166666977,
      "v": 46
    },
    {
      "midi": 56,
      "hit": false,
      "t": 83045.52375000092,
      "d": 386.36395833334245,
      "v": 30
    },
    {
      "midi": 59,
      "hit": false,
      "t": 83045.52375000094,
      "d": 22.72729166666977,
      "v": 70
    },
    {
      "midi": 64,
      "hit": false,
      "t": 83045.52375000094,
      "d": 22.72729166666977,
      "v": 52
    },
    {
      "midi": 56,
      "hit": false,
      "t": 83045.52375000094,
      "d": 386.36395833334245,
      "v": 44
    },
    {
      "midi": 64,
      "hit": false,
      "t": 83056.88739583311,
      "d": 102.27281249999942,
      "v": 41
    },
    {
      "midi": 76,
      "hit": false,
      "t": 83056.88739583311,
      "d": 102.27281249999942,
      "v": 41
    },
    {
      "midi": 59,
      "hit": false,
      "t": 83181.88750000093,
      "d": 22.72729166666977,
      "v": 46
    },
    {
      "midi": 64,
      "hit": false,
      "t": 83181.88750000093,
      "d": 22.72729166666977,
      "v": 46
    },
    {
      "midi": 59,
      "hit": false,
      "t": 83181.88750000094,
      "d": 22.72729166666977,
      "v": 52
    },
    {
      "midi": 64,
      "hit": false,
      "t": 83181.88750000094,
      "d": 22.72729166666977,
      "v": 52
    },
    {
      "midi": 64,
      "hit": false,
      "t": 83193.25114583311,
      "d": 102.27281249999942,
      "v": 41
    },
    {
      "midi": 76,
      "hit": false,
      "t": 83193.25114583311,
      "d": 102.27281249999942,
      "v": 41
    },
    {
      "midi": 59,
      "hit": false,
      "t": 83318.25125000093,
      "d": 90.90916666666453,
      "v": 47
    },
    {
      "midi": 64,
      "hit": false,
      "t": 83318.25125000093,
      "d": 90.90916666666453,
      "v": 67
    },
    {
      "midi": 68,
      "hit": false,
      "t": 83318.25125000093,
      "d": 113.6364583333343,
      "v": 30
    },
    {
      "midi": 59,
      "hit": false,
      "t": 83318.25125000095,
      "d": 90.90916666666453,
      "v": 53
    },
    {
      "midi": 64,
      "hit": false,
      "t": 83318.25125000095,
      "d": 90.90916666666453,
      "v": 73
    },
    {
      "midi": 68,
      "hit": false,
      "t": 83318.25125000095,
      "d": 113.6364583333343,
      "v": 44
    },
    {
      "midi": 64,
      "hit": false,
      "t": 83329.61489583312,
      "d": 102.27281249999942,
      "v": 41
    },
    {
      "midi": 76,
      "hit": false,
      "t": 83329.61489583312,
      "d": 102.27281249999942,
      "v": 41
    },
    {
      "midi": 35,
      "hit": false,
      "t": 83454.61500000051,
      "d": 397.7276041666628,
      "v": 93
    },
    {
      "midi": 59,
      "hit": false,
      "t": 83454.61500000094,
      "d": 102.27281249999942,
      "v": 72
    },
    {
      "midi": 64,
      "hit": false,
      "t": 83454.61500000094,
      "d": 102.27281249999942,
      "v": 72
    },
    {
      "midi": 59,
      "hit": false,
      "t": 83454.61500000095,
      "d": 102.27281249999942,
      "v": 74
    },
    {
      "midi": 64,
      "hit": false,
      "t": 83454.61500000095,
      "d": 102.27281249999942,
      "v": 74
    },
    {
      "midi": 64,
      "hit": false,
      "t": 83465.97864583312,
      "d": 102.27281249999942,
      "v": 41
    },
    {
      "midi": 76,
      "hit": false,
      "t": 83465.97864583312,
      "d": 102.27281249999942,
      "v": 41
    },
    {
      "midi": 68,
      "hit": false,
      "t": 83465.97864583427,
      "d": 113.6364583333343,
      "v": 30
    },
    {
      "midi": 68,
      "hit": false,
      "t": 83465.97864583429,
      "d": 113.6364583333343,
      "v": 44
    },
    {
      "midi": 59,
      "hit": false,
      "t": 83590.97875000094,
      "d": 11.363645833334886,
      "v": 30
    },
    {
      "midi": 64,
      "hit": false,
      "t": 83590.97875000094,
      "d": 11.363645833334886,
      "v": 30
    },
    {
      "midi": 68,
      "hit": false,
      "t": 83590.97875000094,
      "d": 34.09093750000466,
      "v": 30
    },
    {
      "midi": 59,
      "hit": false,
      "t": 83590.97875000096,
      "d": 11.363645833334886,
      "v": 44
    },
    {
      "midi": 64,
      "hit": false,
      "t": 83590.97875000096,
      "d": 11.363645833334886,
      "v": 44
    },
    {
      "midi": 68,
      "hit": false,
      "t": 83590.97875000096,
      "d": 34.09093750000466,
      "v": 44
    },
    {
      "midi": 64,
      "hit": false,
      "t": 83602.34239583313,
      "d": 102.27281249999942,
      "v": 41
    },
    {
      "midi": 76,
      "hit": false,
      "t": 83602.34239583313,
      "d": 102.27281249999942,
      "v": 41
    },
    {
      "midi": 68,
      "hit": false,
      "t": 83727.34250000094,
      "d": 261.36385416667326,
      "v": 64
    },
    {
      "midi": 59,
      "hit": false,
      "t": 83727.34250000094,
      "d": 397.72760416667734,
      "v": 64
    },
    {
      "midi": 64,
      "hit": false,
      "t": 83727.34250000094,
      "d": 397.72760416667734,
      "v": 64
    },
    {
      "midi": 56,
      "hit": false,
      "t": 83727.34250000094,
      "d": 534.0913541666814,
      "v": 64
    },
    {
      "midi": 40,
      "hit": false,
      "t": 83727.34250000094,
      "d": 1079.5463541666977,
      "v": 76
    },
    {
      "midi": 68,
      "hit": false,
      "t": 83727.34250000096,
      "d": 261.36385416667326,
      "v": 70
    },
    {
      "midi": 59,
      "hit": false,
      "t": 83727.34250000096,
      "d": 397.72760416667734,
      "v": 70
    },
    {
      "midi": 64,
      "hit": false,
      "t": 83727.34250000096,
      "d": 397.72760416667734,
      "v": 70
    },
    {
      "midi": 56,
      "hit": false,
      "t": 83727.34250000096,
      "d": 534.0913541666814,
      "v": 70
    },
    {
      "midi": 40,
      "hit": false,
      "t": 83727.34250000096,
      "d": 1079.5463541666977,
      "v": 44
    },
    {
      "midi": 64,
      "hit": false,
      "t": 83738.70614583313,
      "d": 102.27281249999942,
      "v": 76
    },
    {
      "midi": 76,
      "hit": false,
      "t": 83738.70614583313,
      "d": 102.27281249999942,
      "v": 76
    },
    {
      "midi": 35,
      "hit": false,
      "t": 83863.70625000051,
      "d": 125.00010416666919,
      "v": 93
    },
    {
      "midi": 64,
      "hit": false,
      "t": 83875.06989583313,
      "d": 102.27281249999942,
      "v": 41
    },
    {
      "midi": 76,
      "hit": false,
      "t": 83875.06989583313,
      "d": 102.27281249999942,
      "v": 41
    },
    {
      "midi": 40,
      "hit": false,
      "t": 84000.07000000052,
      "d": 125.00010416666919,
      "v": 93
    },
    {
      "midi": 64,
      "hit": false,
      "t": 84011.43364583314,
      "d": 102.27281249999942,
      "v": 41
    },
    {
      "midi": 76,
      "hit": false,
      "t": 84011.43364583314,
      "d": 102.27281249999942,
      "v": 41
    },
    {
      "midi": 59,
      "hit": false,
      "t": 84136.43375000096,
      "d": 125.00010416666919,
      "v": 30
    },
    {
      "midi": 64,
      "hit": false,
      "t": 84136.43375000096,
      "d": 125.00010416666919,
      "v": 30
    },
    {
      "midi": 68,
      "hit": false,
      "t": 84136.43375000096,
      "d": 125.00010416666919,
      "v": 30
    },
    {
      "midi": 59,
      "hit": false,
      "t": 84136.43375000097,
      "d": 125.00010416666919,
      "v": 44
    },
    {
      "midi": 64,
      "hit": false,
      "t": 84136.43375000097,
      "d": 125.00010416666919,
      "v": 44
    },
    {
      "midi": 68,
      "hit": false,
      "t": 84136.43375000097,
      "d": 125.00010416666919,
      "v": 44
    },
    {
      "midi": 64,
      "hit": false,
      "t": 84147.79739583314,
      "d": 102.27281249999942,
      "v": 41
    },
    {
      "midi": 76,
      "hit": false,
      "t": 84147.79739583314,
      "d": 102.27281249999942,
      "v": 41
    },
    {
      "midi": 40,
      "hit": false,
      "t": 84272.79750000052,
      "d": 261.36385416667326,
      "v": 93
    },
    {
      "midi": 59,
      "hit": false,
      "t": 84272.79750000096,
      "d": 113.6364583333343,
      "v": 30
    },
    {
      "midi": 64,
      "hit": false,
      "t": 84272.79750000096,
      "d": 113.6364583333343,
      "v": 30
    },
    {
      "midi": 68,
      "hit": false,
      "t": 84272.79750000096,
      "d": 113.6364583333343,
      "v": 30
    },
    {
      "midi": 59,
      "hit": false,
      "t": 84272.79750000098,
      "d": 113.6364583333343,
      "v": 44
    },
    {
      "midi": 64,
      "hit": false,
      "t": 84272.79750000098,
      "d": 113.6364583333343,
      "v": 44
    },
    {
      "midi": 68,
      "hit": false,
      "t": 84272.79750000098,
      "d": 113.6364583333343,
      "v": 44
    },
    {
      "midi": 64,
      "hit": false,
      "t": 84284.16114583315,
      "d": 102.27281249999942,
      "v": 41
    },
    {
      "midi": 76,
      "hit": false,
      "t": 84284.16114583315,
      "d": 102.27281249999942,
      "v": 41
    },
    {
      "midi": 59,
      "hit": false,
      "t": 84409.16125000097,
      "d": 113.6364583333343,
      "v": 59
    },
    {
      "midi": 64,
      "hit": false,
      "t": 84409.16125000097,
      "d": 113.6364583333343,
      "v": 59
    },
    {
      "midi": 68,
      "hit": false,
      "t": 84409.16125000097,
      "d": 113.6364583333343,
      "v": 59
    },
    {
      "midi": 59,
      "hit": false,
      "t": 84409.16125000098,
      "d": 113.6364583333343,
      "v": 65
    },
    {
      "midi": 64,
      "hit": false,
      "t": 84409.16125000098,
      "d": 113.6364583333343,
      "v": 65
    },
    {
      "midi": 68,
      "hit": false,
      "t": 84409.16125000098,
      "d": 113.6364583333343,
      "v": 65
    },
    {
      "midi": 64,
      "hit": false,
      "t": 84420.52489583315,
      "d": 102.27281249999942,
      "v": 41
    },
    {
      "midi": 76,
      "hit": false,
      "t": 84420.52489583315,
      "d": 102.27281249999942,
      "v": 41
    },
    {
      "midi": 35,
      "hit": false,
      "t": 84545.52500000053,
      "d": 261.36385416667326,
      "v": 93
    },
    {
      "midi": 64,
      "hit": false,
      "t": 84545.52500000097,
      "d": 11.363645833334886,
      "v": 76
    },
    {
      "midi": 59,
      "hit": false,
      "t": 84545.52500000097,
      "d": 34.09093750000466,
      "v": 76
    },
    {
      "midi": 68,
      "hit": false,
      "t": 84545.52500000097,
      "d": 34.09093750000466,
      "v": 76
    },
    {
      "midi": 64,
      "hit": false,
      "t": 84545.52500000098,
      "d": 11.363645833334886,
      "v": 74
    },
    {
      "midi": 59,
      "hit": false,
      "t": 84545.52500000098,
      "d": 34.09093750000466,
      "v": 74
    },
    {
      "midi": 68,
      "hit": false,
      "t": 84545.52500000098,
      "d": 34.09093750000466,
      "v": 74
    },
    {
      "midi": 64,
      "hit": false,
      "t": 84556.88864583315,
      "d": 102.27281249999942,
      "v": 74
    },
    {
      "midi": 76,
      "hit": false,
      "t": 84556.88864583315,
      "d": 102.27281249999942,
      "v": 74
    },
    {
      "midi": 64,
      "hit": false,
      "t": 84556.8886458343,
      "d": 11.363645833334886,
      "v": 55
    },
    {
      "midi": 64,
      "hit": false,
      "t": 84556.88864583432,
      "d": 11.363645833334886,
      "v": 61
    },
    {
      "midi": 59,
      "hit": false,
      "t": 84681.88875000097,
      "d": 45.45458333333954,
      "v": 30
    },
    {
      "midi": 56,
      "hit": false,
      "t": 84681.88875000097,
      "d": 68.18187500000931,
      "v": 30
    },
    {
      "midi": 59,
      "hit": false,
      "t": 84681.88875000099,
      "d": 45.45458333333954,
      "v": 44
    },
    {
      "midi": 56,
      "hit": false,
      "t": 84681.88875000099,
      "d": 68.18187500000931,
      "v": 44
    },
    {
      "midi": 64,
      "hit": false,
      "t": 84693.25239583316,
      "d": 102.27281249999942,
      "v": 47
    },
    {
      "midi": 76,
      "hit": false,
      "t": 84693.25239583316,
      "d": 102.27281249999942,
      "v": 47
    },
    {
      "midi": 59,
      "hit": false,
      "t": 84818.25250000098,
      "d": 90.90916666666453,
      "v": 53
    },
    {
      "midi": 64,
      "hit": false,
      "t": 84818.25250000098,
      "d": 90.90916666666453,
      "v": 53
    },
    {
      "midi": 56,
      "hit": false,
      "t": 84818.25250000098,
      "d": 136.36375000000407,
      "v": 53
    },
    {
      "midi": 59,
      "hit": false,
      "t": 84818.25250000099,
      "d": 90.90916666666453,
      "v": 59
    },
    {
      "midi": 64,
      "hit": false,
      "t": 84818.25250000099,
      "d": 90.90916666666453,
      "v": 59
    },
    {
      "midi": 56,
      "hit": false,
      "t": 84818.25250000099,
      "d": 136.36375000000407,
      "v": 59
    },
    {
      "midi": 64,
      "hit": false,
      "t": 84829.61614583316,
      "d": 102.27281249999942,
      "v": 47
    },
    {
      "midi": 76,
      "hit": false,
      "t": 84829.61614583316,
      "d": 102.27281249999942,
      "v": 47
    },
    {
      "midi": 35,
      "hit": false,
      "t": 84954.61625000054,
      "d": 125.00010416666919,
      "v": 93
    },
    {
      "midi": 59,
      "hit": false,
      "t": 84954.61625000098,
      "d": 90.90916666666453,
      "v": 30
    },
    {
      "midi": 64,
      "hit": false,
      "t": 84954.61625000098,
      "d": 90.90916666666453,
      "v": 30
    },
    {
      "midi": 56,
      "hit": false,
      "t": 84954.61625000098,
      "d": 136.36375000000407,
      "v": 30
    },
    {
      "midi": 59,
      "hit": false,
      "t": 84954.616250001,
      "d": 90.90916666666453,
      "v": 44
    },
    {
      "midi": 64,
      "hit": false,
      "t": 84954.616250001,
      "d": 90.90916666666453,
      "v": 44
    },
    {
      "midi": 56,
      "hit": false,
      "t": 84954.616250001,
      "d": 136.36375000000407,
      "v": 44
    },
    {
      "midi": 64,
      "hit": false,
      "t": 84965.97989583317,
      "d": 102.27281249999942,
      "v": 47
    },
    {
      "midi": 76,
      "hit": false,
      "t": 84965.97989583317,
      "d": 102.27281249999942,
      "v": 47
    },
    {
      "midi": 40,
      "hit": false,
      "t": 85090.98000000055,
      "d": 136.36375000000407,
      "v": 93
    },
    {
      "midi": 59,
      "hit": false,
      "t": 85090.98000000099,
      "d": 136.36375000000407,
      "v": 67
    },
    {
      "midi": 64,
      "hit": false,
      "t": 85090.98000000099,
      "d": 136.36375000000407,
      "v": 67
    },
    {
      "midi": 54,
      "hit": false,
      "t": 85090.98000000099,
      "d": 181.81833333334362,
      "v": 57
    },
    {
      "midi": 68,
      "hit": false,
      "t": 85090.98000000099,
      "d": 250.00020833333838,
      "v": 67
    },
    {
      "midi": 40,
      "hit": false,
      "t": 85090.98000000099,
      "d": 659.091458333336,
      "v": 76
    },
    {
      "midi": 59,
      "hit": false,
      "t": 85090.980000001,
      "d": 136.36375000000407,
      "v": 73
    },
    {
      "midi": 64,
      "hit": false,
      "t": 85090.980000001,
      "d": 136.36375000000407,
      "v": 73
    },
    {
      "midi": 54,
      "hit": false,
      "t": 85090.980000001,
      "d": 181.81833333334362,
      "v": 74
    },
    {
      "midi": 68,
      "hit": false,
      "t": 85090.980000001,
      "d": 250.00020833333838,
      "v": 73
    },
    {
      "midi": 40,
      "hit": false,
      "t": 85090.980000001,
      "d": 522.727708333332,
      "v": 44
    },
    {
      "midi": 64,
      "hit": false,
      "t": 85102.34364583317,
      "d": 102.27281249999942,
      "v": 76
    },
    {
      "midi": 76,
      "hit": false,
      "t": 85102.34364583317,
      "d": 102.27281249999942,
      "v": 76
    },
    {
      "midi": 44,
      "hit": false,
      "t": 85227.34375000055,
      "d": 397.7276041666628,
      "v": 86
    },
    {
      "midi": 59,
      "hit": false,
      "t": 85227.34375000099,
      "d": 22.72729166666977,
      "v": 46
    },
    {
      "midi": 64,
      "hit": false,
      "t": 85227.34375000099,
      "d": 22.72729166666977,
      "v": 46
    },
    {
      "midi": 56,
      "hit": false,
      "t": 85227.34375000099,
      "d": 386.3639583333279,
      "v": 30
    },
    {
      "midi": 59,
      "hit": false,
      "t": 85227.343750001,
      "d": 22.72729166666977,
      "v": 52
    },
    {
      "midi": 64,
      "hit": false,
      "t": 85227.343750001,
      "d": 22.72729166666977,
      "v": 52
    },
    {
      "midi": 56,
      "hit": false,
      "t": 85227.343750001,
      "d": 386.3639583333279,
      "v": 44
    },
    {
      "midi": 64,
      "hit": false,
      "t": 85238.70739583317,
      "d": 102.27281249999942,
      "v": 41
    },
    {
      "midi": 76,
      "hit": false,
      "t": 85238.70739583317,
      "d": 102.27281249999942,
      "v": 41
    },
    {
      "midi": 59,
      "hit": false,
      "t": 85363.707500001,
      "d": 79.54552083332965,
      "v": 46
    },
    {
      "midi": 64,
      "hit": false,
      "t": 85363.707500001,
      "d": 79.54552083332965,
      "v": 46
    },
    {
      "midi": 68,
      "hit": false,
      "t": 85363.707500001,
      "d": 79.54552083332965,
      "v": 46
    },
    {
      "midi": 59,
      "hit": false,
      "t": 85363.70750000101,
      "d": 79.54552083332965,
      "v": 52
    },
    {
      "midi": 64,
      "hit": false,
      "t": 85363.70750000101,
      "d": 79.54552083332965,
      "v": 52
    },
    {
      "midi": 68,
      "hit": false,
      "t": 85363.70750000101,
      "d": 79.54552083332965,
      "v": 52
    },
    {
      "midi": 64,
      "hit": false,
      "t": 85375.07114583318,
      "d": 102.27281249999942,
      "v": 41
    },
    {
      "midi": 76,
      "hit": false,
      "t": 85375.07114583318,
      "d": 102.27281249999942,
      "v": 41
    },
    {
      "midi": 59,
      "hit": false,
      "t": 85500.07125000098,
      "d": 68.18187499999476,
      "v": 67
    },
    {
      "midi": 64,
      "hit": false,
      "t": 85500.07125000098,
      "d": 68.18187499999476,
      "v": 67
    },
    {
      "midi": 68,
      "hit": false,
      "t": 85500.07125000098,
      "d": 68.18187499999476,
      "v": 67
    },
    {
      "midi": 59,
      "hit": false,
      "t": 85500.071250001,
      "d": 68.18187499999476,
      "v": 73
    },
    {
      "midi": 64,
      "hit": false,
      "t": 85500.071250001,
      "d": 68.18187499999476,
      "v": 73
    },
    {
      "midi": 68,
      "hit": false,
      "t": 85500.071250001,
      "d": 68.18187499999476,
      "v": 73
    },
    {
      "midi": 64,
      "hit": false,
      "t": 85511.43489583318,
      "d": 102.27281249999942,
      "v": 41
    },
    {
      "midi": 76,
      "hit": false,
      "t": 85511.43489583318,
      "d": 102.27281249999942,
      "v": 41
    },
    {
      "midi": 44,
      "hit": false,
      "t": 85636.43500000055,
      "d": 261.36385416667326,
      "v": 86
    },
    {
      "midi": 56,
      "hit": false,
      "t": 85636.43500000099,
      "d": 113.6364583333343,
      "v": 46
    },
    {
      "midi": 59,
      "hit": false,
      "t": 85636.43500000099,
      "d": 113.6364583333343,
      "v": 59
    },
    {
      "midi": 64,
      "hit": false,
      "t": 85636.43500000099,
      "d": 113.6364583333343,
      "v": 59
    },
    {
      "midi": 68,
      "hit": false,
      "t": 85636.43500000099,
      "d": 113.6364583333343,
      "v": 59
    },
    {
      "midi": 56,
      "hit": false,
      "t": 85636.435000001,
      "d": 113.6364583333343,
      "v": 52
    },
    {
      "midi": 59,
      "hit": false,
      "t": 85636.435000001,
      "d": 113.6364583333343,
      "v": 65
    },
    {
      "midi": 64,
      "hit": false,
      "t": 85636.435000001,
      "d": 113.6364583333343,
      "v": 65
    },
    {
      "midi": 68,
      "hit": false,
      "t": 85636.435000001,
      "d": 113.6364583333343,
      "v": 65
    },
    {
      "midi": 64,
      "hit": false,
      "t": 85647.79864583319,
      "d": 102.27281249999942,
      "v": 41
    },
    {
      "midi": 76,
      "hit": false,
      "t": 85647.79864583319,
      "d": 102.27281249999942,
      "v": 41
    },
    {
      "midi": 64,
      "hit": false,
      "t": 85784.16239583319,
      "d": 102.27281249999942,
      "v": 41
    },
    {
      "midi": 76,
      "hit": false,
      "t": 85784.16239583319,
      "d": 102.27281249999942,
      "v": 41
    },
    {
      "midi": 45,
      "hit": false,
      "t": 85909.16250000056,
      "d": 125.00010416666919,
      "v": 93
    },
    {
      "midi": 68,
      "hit": false,
      "t": 85909.162500001,
      "d": 136.36375000000407,
      "v": 67
    },
    {
      "midi": 59,
      "hit": false,
      "t": 85909.162500001,
      "d": 159.09104166667385,
      "v": 76
    },
    {
      "midi": 64,
      "hit": false,
      "t": 85909.162500001,
      "d": 250.00020833333838,
      "v": 67
    },
    {
      "midi": 45,
      "hit": false,
      "t": 85909.162500001,
      "d": 670.4551041666855,
      "v": 76
    },
    {
      "midi": 68,
      "hit": false,
      "t": 85909.16250000101,
      "d": 136.36375000000407,
      "v": 73
    },
    {
      "midi": 59,
      "hit": false,
      "t": 85909.16250000101,
      "d": 159.09104166667385,
      "v": 74
    },
    {
      "midi": 64,
      "hit": false,
      "t": 85909.16250000101,
      "d": 250.00020833333838,
      "v": 73
    },
    {
      "midi": 45,
      "hit": false,
      "t": 85909.16250000101,
      "d": 670.4551041666855,
      "v": 44
    },
    {
      "midi": 64,
      "hit": false,
      "t": 85920.5261458332,
      "d": 102.27281249999942,
      "v": 76
    },
    {
      "midi": 76,
      "hit": false,
      "t": 85920.5261458332,
      "d": 102.27281249999942,
      "v": 76
    },
    {
      "midi": 35,
      "hit": false,
      "t": 86045.52625000056,
      "d": 125.00010416666919,
      "v": 93
    },
    {
      "midi": 61,
      "hit": false,
      "t": 86045.526250001,
      "d": 113.6364583333343,
      "v": 30
    },
    {
      "midi": 69,
      "hit": false,
      "t": 86045.526250001,
      "d": 113.6364583333343,
      "v": 30
    },
    {
      "midi": 61,
      "hit": false,
      "t": 86045.52625000101,
      "d": 113.6364583333343,
      "v": 44
    },
    {
      "midi": 69,
      "hit": false,
      "t": 86045.52625000101,
      "d": 113.6364583333343,
      "v": 44
    },
    {
      "midi": 64,
      "hit": false,
      "t": 86056.8898958332,
      "d": 102.27281249999942,
      "v": 41
    },
    {
      "midi": 76,
      "hit": false,
      "t": 86056.8898958332,
      "d": 102.27281249999942,
      "v": 41
    },
    {
      "midi": 61,
      "hit": false,
      "t": 86181.890000001,
      "d": 113.6364583333343,
      "v": 30
    },
    {
      "midi": 64,
      "hit": false,
      "t": 86181.890000001,
      "d": 113.6364583333343,
      "v": 30
    },
    {
      "midi": 69,
      "hit": false,
      "t": 86181.890000001,
      "d": 113.6364583333343,
      "v": 30
    },
    {
      "midi": 61,
      "hit": false,
      "t": 86181.89000000102,
      "d": 113.6364583333343,
      "v": 44
    },
    {
      "midi": 64,
      "hit": false,
      "t": 86181.89000000102,
      "d": 113.6364583333343,
      "v": 44
    },
    {
      "midi": 69,
      "hit": false,
      "t": 86181.89000000102,
      "d": 113.6364583333343,
      "v": 44
    },
    {
      "midi": 64,
      "hit": false,
      "t": 86193.2536458332,
      "d": 102.27281249999942,
      "v": 41
    },
    {
      "midi": 76,
      "hit": false,
      "t": 86193.2536458332,
      "d": 102.27281249999942,
      "v": 41
    },
    {
      "midi": 35,
      "hit": false,
      "t": 86318.25375000057,
      "d": 68.18187499999476,
      "v": 93
    },
    {
      "midi": 64,
      "hit": false,
      "t": 86318.25375000101,
      "d": 113.6364583333343,
      "v": 76
    },
    {
      "midi": 69,
      "hit": false,
      "t": 86318.25375000101,
      "d": 113.6364583333343,
      "v": 76
    },
    {
      "midi": 61,
      "hit": false,
      "t": 86318.25375000101,
      "d": 238.6365625000035,
      "v": 76
    },
    {
      "midi": 64,
      "hit": false,
      "t": 86318.25375000102,
      "d": 113.6364583333343,
      "v": 74
    },
    {
      "midi": 69,
      "hit": false,
      "t": 86318.25375000102,
      "d": 113.6364583333343,
      "v": 74
    },
    {
      "midi": 61,
      "hit": false,
      "t": 86318.25375000102,
      "d": 238.6365625000035,
      "v": 74
    },
    {
      "midi": 64,
      "hit": false,
      "t": 86329.61739583321,
      "d": 102.27281249999942,
      "v": 41
    },
    {
      "midi": 76,
      "hit": false,
      "t": 86329.61739583321,
      "d": 102.27281249999942,
      "v": 41
    },
    {
      "midi": 35,
      "hit": false,
      "t": 86454.61750000056,
      "d": 261.36385416667326,
      "v": 93
    },
    {
      "midi": 64,
      "hit": false,
      "t": 86454.61750000101,
      "d": 102.27281249999942,
      "v": 46
    },
    {
      "midi": 69,
      "hit": false,
      "t": 86454.61750000101,
      "d": 102.27281249999942,
      "v": 46
    },
    {
      "midi": 64,
      "hit": false,
      "t": 86454.61750000103,
      "d": 102.27281249999942,
      "v": 52
    },
    {
      "midi": 69,
      "hit": false,
      "t": 86454.61750000103,
      "d": 102.27281249999942,
      "v": 52
    },
    {
      "midi": 64,
      "hit": false,
      "t": 86465.98114583321,
      "d": 102.27281249999942,
      "v": 41
    },
    {
      "midi": 76,
      "hit": false,
      "t": 86465.98114583321,
      "d": 102.27281249999942,
      "v": 41
    },
    {
      "midi": 61,
      "hit": false,
      "t": 86590.98125000102,
      "d": 113.6364583333343,
      "v": 46
    },
    {
      "midi": 64,
      "hit": false,
      "t": 86590.98125000102,
      "d": 113.6364583333343,
      "v": 46
    },
    {
      "midi": 69,
      "hit": false,
      "t": 86590.98125000102,
      "d": 113.6364583333343,
      "v": 46
    },
    {
      "midi": 61,
      "hit": false,
      "t": 86590.98125000103,
      "d": 113.6364583333343,
      "v": 52
    },
    {
      "midi": 64,
      "hit": false,
      "t": 86590.98125000103,
      "d": 113.6364583333343,
      "v": 52
    },
    {
      "midi": 69,
      "hit": false,
      "t": 86590.98125000103,
      "d": 113.6364583333343,
      "v": 52
    },
    {
      "midi": 64,
      "hit": false,
      "t": 86602.34489583322,
      "d": 102.27281249999942,
      "v": 41
    },
    {
      "midi": 76,
      "hit": false,
      "t": 86602.34489583322,
      "d": 102.27281249999942,
      "v": 41
    },
    {
      "midi": 37,
      "hit": false,
      "t": 86727.34500000057,
      "d": 125.00010416666919,
      "v": 93
    },
    {
      "midi": 61,
      "hit": false,
      "t": 86727.34500000102,
      "d": 136.36375000000407,
      "v": 76
    },
    {
      "midi": 69,
      "hit": false,
      "t": 86727.34500000102,
      "d": 136.36375000000407,
      "v": 76
    },
    {
      "midi": 64,
      "hit": false,
      "t": 86727.34500000102,
      "d": 181.81833333334362,
      "v": 76
    },
    {
      "midi": 45,
      "hit": false,
      "t": 86727.34500000103,
      "d": 125.00010416666919,
      "v": 44
    },
    {
      "midi": 61,
      "hit": false,
      "t": 86727.34500000103,
      "d": 125.00010416666919,
      "v": 74
    },
    {
      "midi": 69,
      "hit": false,
      "t": 86727.34500000103,
      "d": 125.00010416666919,
      "v": 74
    },
    {
      "midi": 64,
      "hit": false,
      "t": 86727.34500000103,
      "d": 181.81833333334362,
      "v": 74
    },
    {
      "midi": 64,
      "hit": false,
      "t": 86738.70864583322,
      "d": 102.27281249999942,
      "v": 74
    },
    {
      "midi": 76,
      "hit": false,
      "t": 86738.70864583322,
      "d": 102.27281249999942,
      "v": 74
    },
    {
      "midi": 35,
      "hit": false,
      "t": 86863.70875000057,
      "d": 125.00010416666919,
      "v": 93
    },
    {
      "midi": 59,
      "hit": false,
      "t": 86863.70875000102,
      "d": 113.6364583333343,
      "v": 67
    },
    {
      "midi": 68,
      "hit": false,
      "t": 86863.70875000102,
      "d": 113.6364583333343,
      "v": 67
    },
    {
      "midi": 59,
      "hit": false,
      "t": 86863.70875000104,
      "d": 113.6364583333343,
      "v": 73
    },
    {
      "midi": 68,
      "hit": false,
      "t": 86863.70875000104,
      "d": 113.6364583333343,
      "v": 73
    },
    {
      "midi": 64,
      "hit": false,
      "t": 86875.07239583322,
      "d": 102.27281249999942,
      "v": 47
    },
    {
      "midi": 76,
      "hit": false,
      "t": 86875.07239583322,
      "d": 102.27281249999942,
      "v": 47
    },
    {
      "midi": 37,
      "hit": false,
      "t": 87000.07250000058,
      "d": 261.36385416667326,
      "v": 93
    },
    {
      "midi": 59,
      "hit": false,
      "t": 87000.07250000103,
      "d": 22.72729166666977,
      "v": 67
    },
    {
      "midi": 64,
      "hit": false,
      "t": 87000.07250000103,
      "d": 22.72729166666977,
      "v": 67
    },
    {
      "midi": 59,
      "hit": false,
      "t": 87000.07250000104,
      "d": 22.72729166666977,
      "v": 73
    },
    {
      "midi": 64,
      "hit": false,
      "t": 87000.07250000104,
      "d": 22.72729166666977,
      "v": 73
    },
    {
      "midi": 64,
      "hit": false,
      "t": 87011.43614583323,
      "d": 102.27281249999942,
      "v": 47
    },
    {
      "midi": 76,
      "hit": false,
      "t": 87011.43614583323,
      "d": 102.27281249999942,
      "v": 47
    },
    {
      "midi": 59,
      "hit": false,
      "t": 87136.43625000103,
      "d": 22.72729166666977,
      "v": 46
    },
    {
      "midi": 64,
      "hit": false,
      "t": 87136.43625000103,
      "d": 22.72729166666977,
      "v": 46
    },
    {
      "midi": 59,
      "hit": false,
      "t": 87136.43625000105,
      "d": 22.72729166666977,
      "v": 52
    },
    {
      "midi": 64,
      "hit": false,
      "t": 87136.43625000105,
      "d": 22.72729166666977,
      "v": 52
    },
    {
      "midi": 64,
      "hit": false,
      "t": 87147.79989583323,
      "d": 102.27281249999942,
      "v": 47
    },
    {
      "midi": 76,
      "hit": false,
      "t": 87147.79989583323,
      "d": 102.27281249999942,
      "v": 47
    },
    {
      "midi": 40,
      "hit": false,
      "t": 87272.80000000058,
      "d": 545.4550000000017,
      "v": 93
    },
    {
      "midi": 54,
      "hit": false,
      "t": 87272.80000000104,
      "d": 90.90916666666453,
      "v": 63
    },
    {
      "midi": 59,
      "hit": false,
      "t": 87272.80000000104,
      "d": 136.36375000000407,
      "v": 67
    },
    {
      "midi": 64,
      "hit": false,
      "t": 87272.80000000104,
      "d": 136.36375000000407,
      "v": 67
    },
    {
      "midi": 40,
      "hit": false,
      "t": 87272.80000000104,
      "d": 670.4551041666855,
      "v": 76
    },
    {
      "midi": 54,
      "hit": false,
      "t": 87272.80000000105,
      "d": 90.90916666666453,
      "v": 74
    },
    {
      "midi": 59,
      "hit": false,
      "t": 87272.80000000105,
      "d": 136.36375000000407,
      "v": 73
    },
    {
      "midi": 64,
      "hit": false,
      "t": 87272.80000000105,
      "d": 136.36375000000407,
      "v": 73
    },
    {
      "midi": 40,
      "hit": false,
      "t": 87272.80000000105,
      "d": 670.4551041666855,
      "v": 44
    },
    {
      "midi": 64,
      "hit": false,
      "t": 87284.16364583324,
      "d": 102.27281249999942,
      "v": 76
    },
    {
      "midi": 76,
      "hit": false,
      "t": 87284.16364583324,
      "d": 102.27281249999942,
      "v": 76
    },
    {
      "midi": 68,
      "hit": false,
      "t": 87284.16364583437,
      "d": 261.36385416667326,
      "v": 30
    },
    {
      "midi": 68,
      "hit": false,
      "t": 87284.16364583439,
      "d": 261.36385416667326,
      "v": 44
    },
    {
      "midi": 59,
      "hit": false,
      "t": 87409.16375000104,
      "d": 22.72729166666977,
      "v": 64
    },
    {
      "midi": 64,
      "hit": false,
      "t": 87409.16375000104,
      "d": 22.72729166666977,
      "v": 46
    },
    {
      "midi": 56,
      "hit": false,
      "t": 87409.16375000104,
      "d": 386.36395833334245,
      "v": 30
    },
    {
      "midi": 59,
      "hit": false,
      "t": 87409.16375000105,
      "d": 22.72729166666977,
      "v": 70
    },
    {
      "midi": 64,
      "hit": false,
      "t": 87409.16375000105,
      "d": 22.72729166666977,
      "v": 52
    },
    {
      "midi": 56,
      "hit": false,
      "t": 87409.16375000105,
      "d": 386.36395833334245,
      "v": 44
    },
    {
      "midi": 64,
      "hit": false,
      "t": 87420.52739583324,
      "d": 102.27281249999942,
      "v": 41
    },
    {
      "midi": 76,
      "hit": false,
      "t": 87420.52739583324,
      "d": 102.27281249999942,
      "v": 41
    },
    {
      "midi": 59,
      "hit": false,
      "t": 87545.52750000104,
      "d": 22.72729166666977,
      "v": 46
    },
    {
      "midi": 64,
      "hit": false,
      "t": 87545.52750000104,
      "d": 22.72729166666977,
      "v": 46
    },
    {
      "midi": 59,
      "hit": false,
      "t": 87545.52750000106,
      "d": 22.72729166666977,
      "v": 52
    },
    {
      "midi": 64,
      "hit": false,
      "t": 87545.52750000106,
      "d": 22.72729166666977,
      "v": 52
    },
    {
      "midi": 64,
      "hit": false,
      "t": 87556.89114583324,
      "d": 102.27281249999942,
      "v": 41
    },
    {
      "midi": 76,
      "hit": false,
      "t": 87556.89114583324,
      "d": 102.27281249999942,
      "v": 41
    },
    {
      "midi": 59,
      "hit": false,
      "t": 87681.89125000105,
      "d": 90.90916666666453,
      "v": 47
    },
    {
      "midi": 64,
      "hit": false,
      "t": 87681.89125000105,
      "d": 90.90916666666453,
      "v": 67
    },
    {
      "midi": 68,
      "hit": false,
      "t": 87681.89125000105,
      "d": 113.6364583333343,
      "v": 30
    },
    {
      "midi": 59,
      "hit": false,
      "t": 87681.89125000106,
      "d": 90.90916666666453,
      "v": 53
    },
    {
      "midi": 64,
      "hit": false,
      "t": 87681.89125000106,
      "d": 90.90916666666453,
      "v": 73
    },
    {
      "midi": 68,
      "hit": false,
      "t": 87681.89125000106,
      "d": 113.6364583333343,
      "v": 44
    },
    {
      "midi": 64,
      "hit": false,
      "t": 87693.25489583325,
      "d": 102.27281249999942,
      "v": 41
    },
    {
      "midi": 76,
      "hit": false,
      "t": 87693.25489583325,
      "d": 102.27281249999942,
      "v": 41
    },
    {
      "midi": 35,
      "hit": false,
      "t": 87818.25500000059,
      "d": 340.9093750000029,
      "v": 93
    },
    {
      "midi": 59,
      "hit": false,
      "t": 87818.25500000105,
      "d": 102.27281249999942,
      "v": 72
    },
    {
      "midi": 64,
      "hit": false,
      "t": 87818.25500000105,
      "d": 102.27281249999942,
      "v": 72
    },
    {
      "midi": 59,
      "hit": false,
      "t": 87818.25500000107,
      "d": 102.27281249999942,
      "v": 74
    },
    {
      "midi": 64,
      "hit": false,
      "t": 87818.25500000107,
      "d": 102.27281249999942,
      "v": 74
    },
    {
      "midi": 64,
      "hit": false,
      "t": 87829.61864583325,
      "d": 102.27281249999942,
      "v": 41
    },
    {
      "midi": 76,
      "hit": false,
      "t": 87829.61864583325,
      "d": 102.27281249999942,
      "v": 41
    },
    {
      "midi": 68,
      "hit": false,
      "t": 87829.61864583439,
      "d": 113.6364583333343,
      "v": 30
    },
    {
      "midi": 68,
      "hit": false,
      "t": 87829.6186458344,
      "d": 113.6364583333343,
      "v": 44
    },
    {
      "midi": 59,
      "hit": false,
      "t": 87954.61875000106,
      "d": 11.363645833334886,
      "v": 30
    },
    {
      "midi": 64,
      "hit": false,
      "t": 87954.61875000106,
      "d": 11.363645833334886,
      "v": 30
    },
    {
      "midi": 68,
      "hit": false,
      "t": 87954.61875000106,
      "d": 34.09093750000466,
      "v": 30
    },
    {
      "midi": 59,
      "hit": false,
      "t": 87954.61875000107,
      "d": 11.363645833334886,
      "v": 44
    },
    {
      "midi": 64,
      "hit": false,
      "t": 87954.61875000107,
      "d": 11.363645833334886,
      "v": 44
    },
    {
      "midi": 68,
      "hit": false,
      "t": 87954.61875000107,
      "d": 34.09093750000466,
      "v": 44
    },
    {
      "midi": 64,
      "hit": false,
      "t": 87965.98239583326,
      "d": 102.27281249999942,
      "v": 41
    },
    {
      "midi": 76,
      "hit": false,
      "t": 87965.98239583326,
      "d": 102.27281249999942,
      "v": 41
    },
    {
      "midi": 68,
      "hit": false,
      "t": 88090.98250000106,
      "d": 261.36385416667326,
      "v": 64
    },
    {
      "midi": 59,
      "hit": false,
      "t": 88090.98250000106,
      "d": 397.72760416667734,
      "v": 64
    },
    {
      "midi": 64,
      "hit": false,
      "t": 88090.98250000106,
      "d": 397.72760416667734,
      "v": 64
    },
    {
      "midi": 56,
      "hit": false,
      "t": 88090.98250000106,
      "d": 534.0913541666814,
      "v": 64
    },
    {
      "midi": 40,
      "hit": false,
      "t": 88090.98250000106,
      "d": 943.1826041666936,
      "v": 76
    },
    {
      "midi": 68,
      "hit": false,
      "t": 88090.98250000108,
      "d": 261.36385416667326,
      "v": 70
    },
    {
      "midi": 59,
      "hit": false,
      "t": 88090.98250000108,
      "d": 397.72760416667734,
      "v": 70
    },
    {
      "midi": 64,
      "hit": false,
      "t": 88090.98250000108,
      "d": 397.72760416667734,
      "v": 70
    },
    {
      "midi": 56,
      "hit": false,
      "t": 88090.98250000108,
      "d": 534.0913541666814,
      "v": 70
    },
    {
      "midi": 40,
      "hit": false,
      "t": 88090.98250000108,
      "d": 1215.9101041667018,
      "v": 44
    },
    {
      "midi": 64,
      "hit": false,
      "t": 88102.34614583326,
      "d": 102.27281249999942,
      "v": 76
    },
    {
      "midi": 76,
      "hit": false,
      "t": 88102.34614583326,
      "d": 102.27281249999942,
      "v": 76
    },
    {
      "midi": 35,
      "hit": false,
      "t": 88227.34625000058,
      "d": 68.18187499999476,
      "v": 93
    },
    {
      "midi": 64,
      "hit": false,
      "t": 88238.70989583326,
      "d": 102.27281249999942,
      "v": 41
    },
    {
      "midi": 76,
      "hit": false,
      "t": 88238.70989583326,
      "d": 102.27281249999942,
      "v": 41
    },
    {
      "midi": 40,
      "hit": false,
      "t": 88363.71000000057,
      "d": 147.72739583333896,
      "v": 93
    },
    {
      "midi": 64,
      "hit": false,
      "t": 88375.07364583327,
      "d": 102.27281249999942,
      "v": 41
    },
    {
      "midi": 76,
      "hit": false,
      "t": 88375.07364583327,
      "d": 102.27281249999942,
      "v": 41
    },
    {
      "midi": 59,
      "hit": false,
      "t": 88500.07375000107,
      "d": 125.00010416666919,
      "v": 30
    },
    {
      "midi": 64,
      "hit": false,
      "t": 88500.07375000107,
      "d": 125.00010416666919,
      "v": 30
    },
    {
      "midi": 68,
      "hit": false,
      "t": 88500.07375000107,
      "d": 125.00010416666919,
      "v": 30
    },
    {
      "midi": 59,
      "hit": false,
      "t": 88500.07375000109,
      "d": 125.00010416666919,
      "v": 44
    },
    {
      "midi": 64,
      "hit": false,
      "t": 88500.07375000109,
      "d": 125.00010416666919,
      "v": 44
    },
    {
      "midi": 68,
      "hit": false,
      "t": 88500.07375000109,
      "d": 125.00010416666919,
      "v": 44
    },
    {
      "midi": 64,
      "hit": false,
      "t": 88511.43739583327,
      "d": 102.27281249999942,
      "v": 41
    },
    {
      "midi": 76,
      "hit": false,
      "t": 88511.43739583327,
      "d": 102.27281249999942,
      "v": 41
    },
    {
      "midi": 40,
      "hit": false,
      "t": 88636.43750000058,
      "d": 272.7274999999936,
      "v": 93
    },
    {
      "midi": 59,
      "hit": false,
      "t": 88636.43750000108,
      "d": 113.6364583333343,
      "v": 30
    },
    {
      "midi": 64,
      "hit": false,
      "t": 88636.43750000108,
      "d": 113.6364583333343,
      "v": 30
    },
    {
      "midi": 68,
      "hit": false,
      "t": 88636.43750000108,
      "d": 113.6364583333343,
      "v": 30
    },
    {
      "midi": 59,
      "hit": false,
      "t": 88636.43750000109,
      "d": 113.6364583333343,
      "v": 44
    },
    {
      "midi": 64,
      "hit": false,
      "t": 88636.43750000109,
      "d": 113.6364583333343,
      "v": 44
    },
    {
      "midi": 68,
      "hit": false,
      "t": 88636.43750000109,
      "d": 113.6364583333343,
      "v": 44
    },
    {
      "midi": 64,
      "hit": false,
      "t": 88647.80114583328,
      "d": 102.27281249999942,
      "v": 41
    },
    {
      "midi": 76,
      "hit": false,
      "t": 88647.80114583328,
      "d": 102.27281249999942,
      "v": 41
    },
    {
      "midi": 59,
      "hit": false,
      "t": 88772.80125000108,
      "d": 113.6364583333343,
      "v": 59
    },
    {
      "midi": 64,
      "hit": false,
      "t": 88772.80125000108,
      "d": 113.6364583333343,
      "v": 59
    },
    {
      "midi": 68,
      "hit": false,
      "t": 88772.80125000108,
      "d": 113.6364583333343,
      "v": 59
    },
    {
      "midi": 59,
      "hit": false,
      "t": 88772.8012500011,
      "d": 113.6364583333343,
      "v": 65
    },
    {
      "midi": 64,
      "hit": false,
      "t": 88772.8012500011,
      "d": 113.6364583333343,
      "v": 65
    },
    {
      "midi": 68,
      "hit": false,
      "t": 88772.8012500011,
      "d": 113.6364583333343,
      "v": 65
    },
    {
      "midi": 64,
      "hit": false,
      "t": 88784.16489583328,
      "d": 102.27281249999942,
      "v": 41
    },
    {
      "midi": 76,
      "hit": false,
      "t": 88784.16489583328,
      "d": 102.27281249999942,
      "v": 41
    },
    {
      "midi": 35,
      "hit": false,
      "t": 88909.16500000058,
      "d": 329.545729166668,
      "v": 93
    },
    {
      "midi": 64,
      "hit": false,
      "t": 88909.16500000108,
      "d": 11.363645833334886,
      "v": 76
    },
    {
      "midi": 59,
      "hit": false,
      "t": 88909.16500000108,
      "d": 34.09093750000466,
      "v": 76
    },
    {
      "midi": 68,
      "hit": false,
      "t": 88909.16500000108,
      "d": 34.09093750000466,
      "v": 76
    },
    {
      "midi": 64,
      "hit": false,
      "t": 88909.1650000011,
      "d": 11.363645833334886,
      "v": 74
    },
    {
      "midi": 59,
      "hit": false,
      "t": 88909.1650000011,
      "d": 34.09093750000466,
      "v": 74
    },
    {
      "midi": 68,
      "hit": false,
      "t": 88909.1650000011,
      "d": 34.09093750000466,
      "v": 74
    },
    {
      "midi": 64,
      "hit": false,
      "t": 88920.52864583328,
      "d": 102.27281249999942,
      "v": 74
    },
    {
      "midi": 76,
      "hit": false,
      "t": 88920.52864583328,
      "d": 102.27281249999942,
      "v": 74
    },
    {
      "midi": 64,
      "hit": false,
      "t": 88920.52864583442,
      "d": 11.363645833334886,
      "v": 55
    },
    {
      "midi": 64,
      "hit": false,
      "t": 88920.52864583443,
      "d": 11.363645833334886,
      "v": 61
    },
    {
      "midi": 59,
      "hit": false,
      "t": 89045.52875000109,
      "d": 45.45458333333954,
      "v": 30
    },
    {
      "midi": 56,
      "hit": false,
      "t": 89045.52875000109,
      "d": 68.18187500000931,
      "v": 30
    },
    {
      "midi": 59,
      "hit": false,
      "t": 89045.5287500011,
      "d": 45.45458333333954,
      "v": 44
    },
    {
      "midi": 56,
      "hit": false,
      "t": 89045.5287500011,
      "d": 68.18187500000931,
      "v": 44
    },
    {
      "midi": 64,
      "hit": false,
      "t": 89056.89239583329,
      "d": 102.27281249999942,
      "v": 47
    },
    {
      "midi": 76,
      "hit": false,
      "t": 89056.89239583329,
      "d": 102.27281249999942,
      "v": 47
    },
    {
      "midi": 59,
      "hit": false,
      "t": 89181.8925000011,
      "d": 90.90916666666453,
      "v": 53
    },
    {
      "midi": 64,
      "hit": false,
      "t": 89181.8925000011,
      "d": 90.90916666666453,
      "v": 53
    },
    {
      "midi": 56,
      "hit": false,
      "t": 89181.8925000011,
      "d": 136.36375000000407,
      "v": 53
    },
    {
      "midi": 59,
      "hit": false,
      "t": 89181.89250000111,
      "d": 90.90916666666453,
      "v": 59
    },
    {
      "midi": 64,
      "hit": false,
      "t": 89181.89250000111,
      "d": 90.90916666666453,
      "v": 59
    },
    {
      "midi": 56,
      "hit": false,
      "t": 89181.89250000111,
      "d": 125.00010416666919,
      "v": 59
    },
    {
      "midi": 64,
      "hit": false,
      "t": 89193.2561458333,
      "d": 102.27281249999942,
      "v": 47
    },
    {
      "midi": 76,
      "hit": false,
      "t": 89193.2561458333,
      "d": 102.27281249999942,
      "v": 47
    },
    {
      "midi": 35,
      "hit": false,
      "t": 89318.25625000057,
      "d": 79.54552083332965,
      "v": 93
    },
    {
      "midi": 59,
      "hit": false,
      "t": 89318.2562500011,
      "d": 90.90916666666453,
      "v": 30
    },
    {
      "midi": 64,
      "hit": false,
      "t": 89318.2562500011,
      "d": 90.90916666666453,
      "v": 30
    },
    {
      "midi": 56,
      "hit": false,
      "t": 89318.2562500011,
      "d": 136.36375000000407,
      "v": 30
    },
    {
      "midi": 56,
      "hit": false,
      "t": 89318.25625000111,
      "d": 90.90916666666453,
      "v": 44
    },
    {
      "midi": 59,
      "hit": false,
      "t": 89318.25625000111,
      "d": 90.90916666666453,
      "v": 44
    },
    {
      "midi": 64,
      "hit": false,
      "t": 89318.25625000111,
      "d": 90.90916666666453,
      "v": 44
    },
    {
      "midi": 64,
      "hit": false,
      "t": 89329.6198958333,
      "d": 102.27281249999942,
      "v": 47
    },
    {
      "midi": 76,
      "hit": false,
      "t": 89329.6198958333,
      "d": 102.27281249999942,
      "v": 47
    },
    {
      "midi": 40,
      "hit": false,
      "t": 89454.62000000056,
      "d": 545.4550000000017,
      "v": 93
    },
    {
      "midi": 59,
      "hit": false,
      "t": 89454.6200000011,
      "d": 136.36375000000407,
      "v": 67
    },
    {
      "midi": 64,
      "hit": false,
      "t": 89454.6200000011,
      "d": 136.36375000000407,
      "v": 67
    },
    {
      "midi": 54,
      "hit": false,
      "t": 89454.6200000011,
      "d": 181.81833333334362,
      "v": 57
    },
    {
      "midi": 68,
      "hit": false,
      "t": 89454.6200000011,
      "d": 250.00020833333838,
      "v": 67
    },
    {
      "midi": 40,
      "hit": false,
      "t": 89454.6200000011,
      "d": 659.091458333336,
      "v": 76
    },
    {
      "midi": 59,
      "hit": false,
      "t": 89454.62000000112,
      "d": 136.36375000000407,
      "v": 73
    },
    {
      "midi": 64,
      "hit": false,
      "t": 89454.62000000112,
      "d": 136.36375000000407,
      "v": 73
    },
    {
      "midi": 54,
      "hit": false,
      "t": 89454.62000000112,
      "d": 181.81833333334362,
      "v": 74
    },
    {
      "midi": 68,
      "hit": false,
      "t": 89454.62000000112,
      "d": 250.00020833333838,
      "v": 73
    },
    {
      "midi": 40,
      "hit": false,
      "t": 89454.62000000112,
      "d": 806.818854166675,
      "v": 44
    },
    {
      "midi": 64,
      "hit": false,
      "t": 89465.9836458333,
      "d": 102.27281249999942,
      "v": 76
    },
    {
      "midi": 76,
      "hit": false,
      "t": 89465.9836458333,
      "d": 102.27281249999942,
      "v": 76
    },
    {
      "midi": 59,
      "hit": false,
      "t": 89590.9837500011,
      "d": 22.72729166666977,
      "v": 46
    },
    {
      "midi": 64,
      "hit": false,
      "t": 89590.9837500011,
      "d": 22.72729166666977,
      "v": 46
    },
    {
      "midi": 56,
      "hit": false,
      "t": 89590.9837500011,
      "d": 386.3639583333279,
      "v": 30
    },
    {
      "midi": 59,
      "hit": false,
      "t": 89590.98375000112,
      "d": 22.72729166666977,
      "v": 52
    },
    {
      "midi": 64,
      "hit": false,
      "t": 89590.98375000112,
      "d": 22.72729166666977,
      "v": 52
    },
    {
      "midi": 56,
      "hit": false,
      "t": 89590.98375000112,
      "d": 386.3639583333279,
      "v": 44
    },
    {
      "midi": 64,
      "hit": false,
      "t": 89602.3473958333,
      "d": 102.27281249999942,
      "v": 41
    },
    {
      "midi": 76,
      "hit": false,
      "t": 89602.3473958333,
      "d": 102.27281249999942,
      "v": 41
    },
    {
      "midi": 59,
      "hit": false,
      "t": 89727.34750000111,
      "d": 79.54552083332965,
      "v": 46
    },
    {
      "midi": 64,
      "hit": false,
      "t": 89727.34750000111,
      "d": 79.54552083332965,
      "v": 46
    },
    {
      "midi": 68,
      "hit": false,
      "t": 89727.34750000111,
      "d": 79.54552083332965,
      "v": 46
    },
    {
      "midi": 59,
      "hit": false,
      "t": 89727.34750000112,
      "d": 79.54552083332965,
      "v": 52
    },
    {
      "midi": 64,
      "hit": false,
      "t": 89727.34750000112,
      "d": 79.54552083332965,
      "v": 52
    },
    {
      "midi": 68,
      "hit": false,
      "t": 89727.34750000112,
      "d": 79.54552083332965,
      "v": 52
    },
    {
      "midi": 64,
      "hit": false,
      "t": 89738.71114583331,
      "d": 102.27281249999942,
      "v": 41
    },
    {
      "midi": 76,
      "hit": false,
      "t": 89738.71114583331,
      "d": 102.27281249999942,
      "v": 41
    },
    {
      "midi": 59,
      "hit": false,
      "t": 89863.7112500011,
      "d": 68.18187499999476,
      "v": 67
    },
    {
      "midi": 64,
      "hit": false,
      "t": 89863.7112500011,
      "d": 68.18187499999476,
      "v": 67
    },
    {
      "midi": 68,
      "hit": false,
      "t": 89863.7112500011,
      "d": 68.18187499999476,
      "v": 67
    },
    {
      "midi": 59,
      "hit": false,
      "t": 89863.71125000111,
      "d": 68.18187499999476,
      "v": 73
    },
    {
      "midi": 64,
      "hit": false,
      "t": 89863.71125000111,
      "d": 68.18187499999476,
      "v": 73
    },
    {
      "midi": 68,
      "hit": false,
      "t": 89863.71125000111,
      "d": 68.18187499999476,
      "v": 73
    },
    {
      "midi": 64,
      "hit": false,
      "t": 89875.07489583331,
      "d": 102.27281249999942,
      "v": 41
    },
    {
      "midi": 76,
      "hit": false,
      "t": 89875.07489583331,
      "d": 102.27281249999942,
      "v": 41
    },
    {
      "midi": 35,
      "hit": false,
      "t": 90000.07500000056,
      "d": 306.81843749999825,
      "v": 93
    },
    {
      "midi": 56,
      "hit": false,
      "t": 90000.0750000011,
      "d": 113.6364583333343,
      "v": 46
    },
    {
      "midi": 59,
      "hit": false,
      "t": 90000.0750000011,
      "d": 113.6364583333343,
      "v": 59
    },
    {
      "midi": 64,
      "hit": false,
      "t": 90000.0750000011,
      "d": 113.6364583333343,
      "v": 59
    },
    {
      "midi": 68,
      "hit": false,
      "t": 90000.0750000011,
      "d": 113.6364583333343,
      "v": 59
    },
    {
      "midi": 56,
      "hit": false,
      "t": 90000.07500000112,
      "d": 113.6364583333343,
      "v": 52
    },
    {
      "midi": 59,
      "hit": false,
      "t": 90000.07500000112,
      "d": 113.6364583333343,
      "v": 65
    },
    {
      "midi": 64,
      "hit": false,
      "t": 90000.07500000112,
      "d": 113.6364583333343,
      "v": 65
    },
    {
      "midi": 68,
      "hit": false,
      "t": 90000.07500000112,
      "d": 113.6364583333343,
      "v": 65
    },
    {
      "midi": 64,
      "hit": false,
      "t": 90011.43864583332,
      "d": 102.27281249999942,
      "v": 41
    },
    {
      "midi": 76,
      "hit": false,
      "t": 90011.43864583332,
      "d": 102.27281249999942,
      "v": 41
    },
    {
      "midi": 64,
      "hit": false,
      "t": 90147.80239583332,
      "d": 102.27281249999942,
      "v": 41
    },
    {
      "midi": 76,
      "hit": false,
      "t": 90147.80239583332,
      "d": 102.27281249999942,
      "v": 41
    },
    {
      "midi": 68,
      "hit": false,
      "t": 90272.80250000111,
      "d": 136.36375000000407,
      "v": 67
    },
    {
      "midi": 59,
      "hit": false,
      "t": 90272.80250000111,
      "d": 159.09104166667385,
      "v": 76
    },
    {
      "midi": 64,
      "hit": false,
      "t": 90272.80250000111,
      "d": 250.00020833333838,
      "v": 67
    },
    {
      "midi": 45,
      "hit": false,
      "t": 90272.80250000111,
      "d": 670.4551041666855,
      "v": 76
    },
    {
      "midi": 68,
      "hit": false,
      "t": 90272.80250000113,
      "d": 136.36375000000407,
      "v": 73
    },
    {
      "midi": 59,
      "hit": false,
      "t": 90272.80250000113,
      "d": 159.09104166667385,
      "v": 74
    },
    {
      "midi": 64,
      "hit": false,
      "t": 90272.80250000113,
      "d": 250.00020833333838,
      "v": 73
    },
    {
      "midi": 45,
      "hit": false,
      "t": 90272.80250000113,
      "d": 1215.9101041667018,
      "v": 44
    },
    {
      "midi": 64,
      "hit": false,
      "t": 90284.16614583333,
      "d": 102.27281249999942,
      "v": 76
    },
    {
      "midi": 76,
      "hit": false,
      "t": 90284.16614583333,
      "d": 102.27281249999942,
      "v": 76
    },
    {
      "midi": 35,
      "hit": false,
      "t": 90409.16625000056,
      "d": 102.27281249999942,
      "v": 93
    },
    {
      "midi": 61,
      "hit": false,
      "t": 90409.16625000112,
      "d": 113.6364583333343,
      "v": 30
    },
    {
      "midi": 69,
      "hit": false,
      "t": 90409.16625000112,
      "d": 113.6364583333343,
      "v": 30
    },
    {
      "midi": 61,
      "hit": false,
      "t": 90409.16625000113,
      "d": 113.6364583333343,
      "v": 44
    },
    {
      "midi": 69,
      "hit": false,
      "t": 90409.16625000113,
      "d": 113.6364583333343,
      "v": 44
    },
    {
      "midi": 64,
      "hit": false,
      "t": 90420.52989583333,
      "d": 102.27281249999942,
      "v": 41
    },
    {
      "midi": 76,
      "hit": false,
      "t": 90420.52989583333,
      "d": 102.27281249999942,
      "v": 41
    },
    {
      "midi": 40,
      "hit": false,
      "t": 90545.53000000057,
      "d": 170.45468749999418,
      "v": 93
    },
    {
      "midi": 61,
      "hit": false,
      "t": 90545.53000000112,
      "d": 113.6364583333343,
      "v": 30
    },
    {
      "midi": 64,
      "hit": false,
      "t": 90545.53000000112,
      "d": 113.6364583333343,
      "v": 30
    },
    {
      "midi": 69,
      "hit": false,
      "t": 90545.53000000112,
      "d": 113.6364583333343,
      "v": 30
    },
    {
      "midi": 61,
      "hit": false,
      "t": 90545.53000000113,
      "d": 113.6364583333343,
      "v": 44
    },
    {
      "midi": 64,
      "hit": false,
      "t": 90545.53000000113,
      "d": 113.6364583333343,
      "v": 44
    },
    {
      "midi": 69,
      "hit": false,
      "t": 90545.53000000113,
      "d": 113.6364583333343,
      "v": 44
    },
    {
      "midi": 64,
      "hit": false,
      "t": 90556.89364583333,
      "d": 102.27281249999942,
      "v": 41
    },
    {
      "midi": 76,
      "hit": false,
      "t": 90556.89364583333,
      "d": 102.27281249999942,
      "v": 41
    },
    {
      "midi": 64,
      "hit": false,
      "t": 90681.89375000112,
      "d": 113.6364583333343,
      "v": 76
    },
    {
      "midi": 69,
      "hit": false,
      "t": 90681.89375000112,
      "d": 113.6364583333343,
      "v": 76
    },
    {
      "midi": 61,
      "hit": false,
      "t": 90681.89375000112,
      "d": 238.6365625000035,
      "v": 76
    },
    {
      "midi": 64,
      "hit": false,
      "t": 90681.89375000114,
      "d": 113.6364583333343,
      "v": 74
    },
    {
      "midi": 69,
      "hit": false,
      "t": 90681.89375000114,
      "d": 113.6364583333343,
      "v": 74
    },
    {
      "midi": 61,
      "hit": false,
      "t": 90681.89375000114,
      "d": 238.6365625000035,
      "v": 74
    },
    {
      "midi": 64,
      "hit": false,
      "t": 90693.25739583334,
      "d": 102.27281249999942,
      "v": 41
    },
    {
      "midi": 76,
      "hit": false,
      "t": 90693.25739583334,
      "d": 102.27281249999942,
      "v": 41
    },
    {
      "midi": 40,
      "hit": false,
      "t": 90818.25750000056,
      "d": 284.0911458333285,
      "v": 93
    },
    {
      "midi": 64,
      "hit": false,
      "t": 90818.25750000113,
      "d": 102.27281249999942,
      "v": 46
    },
    {
      "midi": 69,
      "hit": false,
      "t": 90818.25750000113,
      "d": 102.27281249999942,
      "v": 46
    },
    {
      "midi": 64,
      "hit": false,
      "t": 90818.25750000114,
      "d": 102.27281249999942,
      "v": 52
    },
    {
      "midi": 69,
      "hit": false,
      "t": 90818.25750000114,
      "d": 102.27281249999942,
      "v": 52
    },
    {
      "midi": 64,
      "hit": false,
      "t": 90829.62114583334,
      "d": 102.27281249999942,
      "v": 41
    },
    {
      "midi": 76,
      "hit": false,
      "t": 90829.62114583334,
      "d": 102.27281249999942,
      "v": 41
    },
    {
      "midi": 61,
      "hit": false,
      "t": 90954.62125000113,
      "d": 113.6364583333343,
      "v": 46
    },
    {
      "midi": 64,
      "hit": false,
      "t": 90954.62125000113,
      "d": 113.6364583333343,
      "v": 46
    },
    {
      "midi": 69,
      "hit": false,
      "t": 90954.62125000113,
      "d": 113.6364583333343,
      "v": 46
    },
    {
      "midi": 61,
      "hit": false,
      "t": 90954.62125000115,
      "d": 113.6364583333343,
      "v": 52
    },
    {
      "midi": 64,
      "hit": false,
      "t": 90954.62125000115,
      "d": 113.6364583333343,
      "v": 52
    },
    {
      "midi": 69,
      "hit": false,
      "t": 90954.62125000115,
      "d": 113.6364583333343,
      "v": 52
    },
    {
      "midi": 64,
      "hit": false,
      "t": 90965.98489583335,
      "d": 102.27281249999942,
      "v": 41
    },
    {
      "midi": 76,
      "hit": false,
      "t": 90965.98489583335,
      "d": 102.27281249999942,
      "v": 41
    },
    {
      "midi": 35,
      "hit": false,
      "t": 91090.98500000055,
      "d": 227.2729166666686,
      "v": 93
    },
    {
      "midi": 61,
      "hit": false,
      "t": 91090.98500000114,
      "d": 136.36375000000407,
      "v": 76
    },
    {
      "midi": 69,
      "hit": false,
      "t": 91090.98500000114,
      "d": 136.36375000000407,
      "v": 76
    },
    {
      "midi": 64,
      "hit": false,
      "t": 91090.98500000114,
      "d": 181.81833333334362,
      "v": 76
    },
    {
      "midi": 45,
      "hit": false,
      "t": 91090.98500000114,
      "d": 397.72760416667734,
      "v": 76
    },
    {
      "midi": 61,
      "hit": false,
      "t": 91090.98500000115,
      "d": 136.36375000000407,
      "v": 74
    },
    {
      "midi": 69,
      "hit": false,
      "t": 91090.98500000115,
      "d": 136.36375000000407,
      "v": 74
    },
    {
      "midi": 64,
      "hit": false,
      "t": 91090.98500000115,
      "d": 181.81833333334362,
      "v": 74
    },
    {
      "midi": 64,
      "hit": false,
      "t": 91102.34864583335,
      "d": 102.27281249999942,
      "v": 74
    },
    {
      "midi": 76,
      "hit": false,
      "t": 91102.34864583335,
      "d": 102.27281249999942,
      "v": 74
    },
    {
      "midi": 59,
      "hit": false,
      "t": 91227.34875000114,
      "d": 113.6364583333343,
      "v": 67
    },
    {
      "midi": 68,
      "hit": false,
      "t": 91227.34875000114,
      "d": 113.6364583333343,
      "v": 67
    },
    {
      "midi": 59,
      "hit": false,
      "t": 91227.34875000115,
      "d": 113.6364583333343,
      "v": 73
    },
    {
      "midi": 68,
      "hit": false,
      "t": 91227.34875000115,
      "d": 113.6364583333343,
      "v": 73
    },
    {
      "midi": 64,
      "hit": false,
      "t": 91238.71239583335,
      "d": 102.27281249999942,
      "v": 47
    },
    {
      "midi": 76,
      "hit": false,
      "t": 91238.71239583335,
      "d": 102.27281249999942,
      "v": 47
    },
    {
      "midi": 35,
      "hit": false,
      "t": 91363.71250000056,
      "d": 45.45458333333954,
      "v": 93
    },
    {
      "midi": 59,
      "hit": false,
      "t": 91363.71250000114,
      "d": 22.72729166666977,
      "v": 67
    },
    {
      "midi": 64,
      "hit": false,
      "t": 91363.71250000114,
      "d": 22.72729166666977,
      "v": 67
    },
    {
      "midi": 59,
      "hit": false,
      "t": 91363.71250000116,
      "d": 22.72729166666977,
      "v": 73
    },
    {
      "midi": 64,
      "hit": false,
      "t": 91363.71250000116,
      "d": 22.72729166666977,
      "v": 73
    },
    {
      "midi": 64,
      "hit": false,
      "t": 91375.07614583336,
      "d": 102.27281249999942,
      "v": 47
    },
    {
      "midi": 76,
      "hit": false,
      "t": 91375.07614583336,
      "d": 102.27281249999942,
      "v": 47
    },
    {
      "midi": 35,
      "hit": false,
      "t": 91500.07625000057,
      "d": 79.54552083332965,
      "v": 93
    },
    {
      "midi": 59,
      "hit": false,
      "t": 91500.07625000115,
      "d": 22.72729166666977,
      "v": 46
    },
    {
      "midi": 64,
      "hit": false,
      "t": 91500.07625000115,
      "d": 22.72729166666977,
      "v": 46
    },
    {
      "midi": 59,
      "hit": false,
      "t": 91500.07625000116,
      "d": 22.72729166666977,
      "v": 52
    },
    {
      "midi": 64,
      "hit": false,
      "t": 91500.07625000116,
      "d": 22.72729166666977,
      "v": 52
    },
    {
      "midi": 64,
      "hit": false,
      "t": 91511.43989583336,
      "d": 102.27281249999942,
      "v": 47
    },
    {
      "midi": 76,
      "hit": false,
      "t": 91511.43989583336,
      "d": 102.27281249999942,
      "v": 47
    },
    {
      "midi": 40,
      "hit": false,
      "t": 91636.44000000056,
      "d": 556.8186458333366,
      "v": 93
    },
    {
      "midi": 54,
      "hit": false,
      "t": 91636.44000000115,
      "d": 90.90916666666453,
      "v": 63
    },
    {
      "midi": 59,
      "hit": false,
      "t": 91636.44000000115,
      "d": 136.36375000000407,
      "v": 67
    },
    {
      "midi": 64,
      "hit": false,
      "t": 91636.44000000115,
      "d": 136.36375000000407,
      "v": 67
    },
    {
      "midi": 40,
      "hit": false,
      "t": 91636.44000000115,
      "d": 670.4551041666855,
      "v": 76
    },
    {
      "midi": 54,
      "hit": false,
      "t": 91636.44000000117,
      "d": 90.90916666666453,
      "v": 74
    },
    {
      "midi": 59,
      "hit": false,
      "t": 91636.44000000117,
      "d": 136.36375000000407,
      "v": 73
    },
    {
      "midi": 64,
      "hit": false,
      "t": 91636.44000000117,
      "d": 136.36375000000407,
      "v": 73
    },
    {
      "midi": 40,
      "hit": false,
      "t": 91636.44000000117,
      "d": 670.4551041666855,
      "v": 44
    },
    {
      "midi": 64,
      "hit": false,
      "t": 91647.80364583337,
      "d": 102.27281249999942,
      "v": 76
    },
    {
      "midi": 76,
      "hit": false,
      "t": 91647.80364583337,
      "d": 102.27281249999942,
      "v": 76
    },
    {
      "midi": 68,
      "hit": false,
      "t": 91647.80364583449,
      "d": 261.36385416667326,
      "v": 30
    },
    {
      "midi": 68,
      "hit": false,
      "t": 91647.8036458345,
      "d": 261.36385416667326,
      "v": 44
    },
    {
      "midi": 59,
      "hit": false,
      "t": 91772.80375000116,
      "d": 22.72729166666977,
      "v": 64
    },
    {
      "midi": 64,
      "hit": false,
      "t": 91772.80375000116,
      "d": 22.72729166666977,
      "v": 46
    },
    {
      "midi": 56,
      "hit": false,
      "t": 91772.80375000116,
      "d": 386.36395833334245,
      "v": 30
    },
    {
      "midi": 59,
      "hit": false,
      "t": 91772.80375000117,
      "d": 22.72729166666977,
      "v": 70
    },
    {
      "midi": 64,
      "hit": false,
      "t": 91772.80375000117,
      "d": 22.72729166666977,
      "v": 52
    },
    {
      "midi": 56,
      "hit": false,
      "t": 91772.80375000117,
      "d": 386.36395833334245,
      "v": 44
    },
    {
      "midi": 64,
      "hit": false,
      "t": 91784.16739583337,
      "d": 102.27281249999942,
      "v": 41
    },
    {
      "midi": 76,
      "hit": false,
      "t": 91784.16739583337,
      "d": 102.27281249999942,
      "v": 41
    },
    {
      "midi": 59,
      "hit": false,
      "t": 91909.16750000116,
      "d": 22.72729166666977,
      "v": 46
    },
    {
      "midi": 64,
      "hit": false,
      "t": 91909.16750000116,
      "d": 22.72729166666977,
      "v": 46
    },
    {
      "midi": 59,
      "hit": false,
      "t": 91909.16750000117,
      "d": 22.72729166666977,
      "v": 52
    },
    {
      "midi": 64,
      "hit": false,
      "t": 91909.16750000117,
      "d": 22.72729166666977,
      "v": 52
    },
    {
      "midi": 64,
      "hit": false,
      "t": 91920.53114583337,
      "d": 102.27281249999942,
      "v": 41
    },
    {
      "midi": 76,
      "hit": false,
      "t": 91920.53114583337,
      "d": 102.27281249999942,
      "v": 41
    },
    {
      "midi": 59,
      "hit": false,
      "t": 92045.53125000116,
      "d": 90.90916666666453,
      "v": 47
    },
    {
      "midi": 64,
      "hit": false,
      "t": 92045.53125000116,
      "d": 90.90916666666453,
      "v": 67
    },
    {
      "midi": 68,
      "hit": false,
      "t": 92045.53125000116,
      "d": 113.6364583333343,
      "v": 30
    },
    {
      "midi": 59,
      "hit": false,
      "t": 92045.53125000118,
      "d": 90.90916666666453,
      "v": 53
    },
    {
      "midi": 64,
      "hit": false,
      "t": 92045.53125000118,
      "d": 90.90916666666453,
      "v": 73
    },
    {
      "midi": 68,
      "hit": false,
      "t": 92045.53125000118,
      "d": 113.6364583333343,
      "v": 44
    },
    {
      "midi": 64,
      "hit": false,
      "t": 92056.89489583338,
      "d": 102.27281249999942,
      "v": 41
    },
    {
      "midi": 76,
      "hit": false,
      "t": 92056.89489583338,
      "d": 102.27281249999942,
      "v": 41
    },
    {
      "midi": 35,
      "hit": false,
      "t": 92181.89500000056,
      "d": 318.18208333333314,
      "v": 93
    },
    {
      "midi": 59,
      "hit": false,
      "t": 92181.89500000117,
      "d": 102.27281249999942,
      "v": 72
    },
    {
      "midi": 64,
      "hit": false,
      "t": 92181.89500000117,
      "d": 102.27281249999942,
      "v": 72
    },
    {
      "midi": 59,
      "hit": false,
      "t": 92181.89500000118,
      "d": 102.27281249999942,
      "v": 74
    },
    {
      "midi": 64,
      "hit": false,
      "t": 92181.89500000118,
      "d": 102.27281249999942,
      "v": 74
    },
    {
      "midi": 64,
      "hit": false,
      "t": 92193.25864583338,
      "d": 102.27281249999942,
      "v": 41
    },
    {
      "midi": 76,
      "hit": false,
      "t": 92193.25864583338,
      "d": 102.27281249999942,
      "v": 41
    },
    {
      "midi": 68,
      "hit": false,
      "t": 92193.2586458345,
      "d": 113.6364583333343,
      "v": 30
    },
    {
      "midi": 68,
      "hit": false,
      "t": 92193.25864583452,
      "d": 113.6364583333343,
      "v": 44
    },
    {
      "midi": 59,
      "hit": false,
      "t": 92318.25875000117,
      "d": 11.363645833334886,
      "v": 30
    },
    {
      "midi": 64,
      "hit": false,
      "t": 92318.25875000117,
      "d": 11.363645833334886,
      "v": 30
    },
    {
      "midi": 68,
      "hit": false,
      "t": 92318.25875000117,
      "d": 34.09093750000466,
      "v": 30
    },
    {
      "midi": 59,
      "hit": false,
      "t": 92318.25875000119,
      "d": 11.363645833334886,
      "v": 44
    },
    {
      "midi": 64,
      "hit": false,
      "t": 92318.25875000119,
      "d": 11.363645833334886,
      "v": 44
    },
    {
      "midi": 68,
      "hit": false,
      "t": 92318.25875000119,
      "d": 34.09093750000466,
      "v": 44
    },
    {
      "midi": 64,
      "hit": false,
      "t": 92329.62239583339,
      "d": 102.27281249999942,
      "v": 41
    },
    {
      "midi": 76,
      "hit": false,
      "t": 92329.62239583339,
      "d": 102.27281249999942,
      "v": 41
    },
    {
      "midi": 68,
      "hit": false,
      "t": 92454.62250000118,
      "d": 261.36385416667326,
      "v": 64
    },
    {
      "midi": 59,
      "hit": false,
      "t": 92454.62250000118,
      "d": 397.72760416667734,
      "v": 64
    },
    {
      "midi": 64,
      "hit": false,
      "t": 92454.62250000118,
      "d": 397.72760416667734,
      "v": 64
    },
    {
      "midi": 56,
      "hit": false,
      "t": 92454.62250000118,
      "d": 534.0913541666814,
      "v": 64
    },
    {
      "midi": 40,
      "hit": false,
      "t": 92454.62250000118,
      "d": 795.4552083333547,
      "v": 76
    },
    {
      "midi": 68,
      "hit": false,
      "t": 92454.62250000119,
      "d": 261.36385416667326,
      "v": 70
    },
    {
      "midi": 59,
      "hit": false,
      "t": 92454.62250000119,
      "d": 397.72760416667734,
      "v": 70
    },
    {
      "midi": 64,
      "hit": false,
      "t": 92454.62250000119,
      "d": 397.72760416667734,
      "v": 70
    },
    {
      "midi": 56,
      "hit": false,
      "t": 92454.62250000119,
      "d": 534.0913541666814,
      "v": 70
    },
    {
      "midi": 40,
      "hit": false,
      "t": 92454.62250000119,
      "d": 1079.5463541666977,
      "v": 44
    },
    {
      "midi": 64,
      "hit": false,
      "t": 92465.98614583339,
      "d": 102.27281249999942,
      "v": 76
    },
    {
      "midi": 76,
      "hit": false,
      "t": 92465.98614583339,
      "d": 102.27281249999942,
      "v": 76
    },
    {
      "midi": 35,
      "hit": false,
      "t": 92590.98625000055,
      "d": 113.6364583333343,
      "v": 93
    },
    {
      "midi": 64,
      "hit": false,
      "t": 92602.3498958334,
      "d": 102.27281249999942,
      "v": 41
    },
    {
      "midi": 76,
      "hit": false,
      "t": 92602.3498958334,
      "d": 102.27281249999942,
      "v": 41
    },
    {
      "midi": 40,
      "hit": false,
      "t": 92727.35000000056,
      "d": 204.54562499999884,
      "v": 93
    },
    {
      "midi": 64,
      "hit": false,
      "t": 92738.7136458334,
      "d": 102.27281249999942,
      "v": 41
    },
    {
      "midi": 76,
      "hit": false,
      "t": 92738.7136458334,
      "d": 102.27281249999942,
      "v": 41
    },
    {
      "midi": 59,
      "hit": false,
      "t": 92863.71375000119,
      "d": 125.00010416666919,
      "v": 30
    },
    {
      "midi": 64,
      "hit": false,
      "t": 92863.71375000119,
      "d": 125.00010416666919,
      "v": 30
    },
    {
      "midi": 68,
      "hit": false,
      "t": 92863.71375000119,
      "d": 125.00010416666919,
      "v": 30
    },
    {
      "midi": 59,
      "hit": false,
      "t": 92863.7137500012,
      "d": 125.00010416666919,
      "v": 44
    },
    {
      "midi": 64,
      "hit": false,
      "t": 92863.7137500012,
      "d": 125.00010416666919,
      "v": 44
    },
    {
      "midi": 68,
      "hit": false,
      "t": 92863.7137500012,
      "d": 125.00010416666919,
      "v": 44
    },
    {
      "midi": 64,
      "hit": false,
      "t": 92875.0773958334,
      "d": 102.27281249999942,
      "v": 41
    },
    {
      "midi": 76,
      "hit": false,
      "t": 92875.0773958334,
      "d": 102.27281249999942,
      "v": 41
    },
    {
      "midi": 40,
      "hit": false,
      "t": 93000.07750000055,
      "d": 227.2729166666686,
      "v": 93
    },
    {
      "midi": 59,
      "hit": false,
      "t": 93000.07750000119,
      "d": 113.6364583333343,
      "v": 30
    },
    {
      "midi": 64,
      "hit": false,
      "t": 93000.07750000119,
      "d": 113.6364583333343,
      "v": 30
    },
    {
      "midi": 68,
      "hit": false,
      "t": 93000.07750000119,
      "d": 113.6364583333343,
      "v": 30
    },
    {
      "midi": 59,
      "hit": false,
      "t": 93000.0775000012,
      "d": 113.6364583333343,
      "v": 44
    },
    {
      "midi": 64,
      "hit": false,
      "t": 93000.0775000012,
      "d": 113.6364583333343,
      "v": 44
    },
    {
      "midi": 68,
      "hit": false,
      "t": 93000.0775000012,
      "d": 113.6364583333343,
      "v": 44
    },
    {
      "midi": 64,
      "hit": false,
      "t": 93011.4411458334,
      "d": 102.27281249999942,
      "v": 41
    },
    {
      "midi": 76,
      "hit": false,
      "t": 93011.4411458334,
      "d": 102.27281249999942,
      "v": 41
    },
    {
      "midi": 59,
      "hit": false,
      "t": 93136.4412500012,
      "d": 113.6364583333343,
      "v": 59
    },
    {
      "midi": 64,
      "hit": false,
      "t": 93136.4412500012,
      "d": 113.6364583333343,
      "v": 59
    },
    {
      "midi": 68,
      "hit": false,
      "t": 93136.4412500012,
      "d": 113.6364583333343,
      "v": 59
    },
    {
      "midi": 59,
      "hit": false,
      "t": 93136.44125000121,
      "d": 113.6364583333343,
      "v": 65
    },
    {
      "midi": 64,
      "hit": false,
      "t": 93136.44125000121,
      "d": 113.6364583333343,
      "v": 65
    },
    {
      "midi": 68,
      "hit": false,
      "t": 93136.44125000121,
      "d": 113.6364583333343,
      "v": 65
    },
    {
      "midi": 64,
      "hit": false,
      "t": 93147.80489583341,
      "d": 102.27281249999942,
      "v": 41
    },
    {
      "midi": 76,
      "hit": false,
      "t": 93147.80489583341,
      "d": 102.27281249999942,
      "v": 41
    },
    {
      "midi": 39,
      "hit": false,
      "t": 93272.80500000056,
      "d": 522.727708333332,
      "v": 93
    },
    {
      "midi": 64,
      "hit": false,
      "t": 93272.8050000012,
      "d": 11.363645833334886,
      "v": 76
    },
    {
      "midi": 59,
      "hit": false,
      "t": 93272.8050000012,
      "d": 34.09093750000466,
      "v": 76
    },
    {
      "midi": 68,
      "hit": false,
      "t": 93272.8050000012,
      "d": 34.09093750000466,
      "v": 76
    },
    {
      "midi": 64,
      "hit": false,
      "t": 93272.80500000122,
      "d": 11.363645833334886,
      "v": 74
    },
    {
      "midi": 59,
      "hit": false,
      "t": 93272.80500000122,
      "d": 34.09093750000466,
      "v": 74
    },
    {
      "midi": 68,
      "hit": false,
      "t": 93272.80500000122,
      "d": 34.09093750000466,
      "v": 74
    },
    {
      "midi": 64,
      "hit": false,
      "t": 93284.16864583342,
      "d": 102.27281249999942,
      "v": 74
    },
    {
      "midi": 76,
      "hit": false,
      "t": 93284.16864583342,
      "d": 102.27281249999942,
      "v": 74
    },
    {
      "midi": 64,
      "hit": false,
      "t": 93284.16864583454,
      "d": 11.363645833334886,
      "v": 55
    },
    {
      "midi": 64,
      "hit": false,
      "t": 93284.16864583455,
      "d": 11.363645833334886,
      "v": 61
    },
    {
      "midi": 59,
      "hit": false,
      "t": 93409.1687500012,
      "d": 45.45458333333954,
      "v": 30
    },
    {
      "midi": 56,
      "hit": false,
      "t": 93409.1687500012,
      "d": 68.18187500000931,
      "v": 30
    },
    {
      "midi": 59,
      "hit": false,
      "t": 93409.16875000122,
      "d": 45.45458333333954,
      "v": 44
    },
    {
      "midi": 56,
      "hit": false,
      "t": 93409.16875000122,
      "d": 68.18187500000931,
      "v": 44
    },
    {
      "midi": 64,
      "hit": false,
      "t": 93420.53239583342,
      "d": 102.27281249999942,
      "v": 47
    },
    {
      "midi": 76,
      "hit": false,
      "t": 93420.53239583342,
      "d": 102.27281249999942,
      "v": 47
    },
    {
      "midi": 59,
      "hit": false,
      "t": 93545.53250000121,
      "d": 90.90916666666453,
      "v": 53
    },
    {
      "midi": 64,
      "hit": false,
      "t": 93545.53250000121,
      "d": 90.90916666666453,
      "v": 53
    },
    {
      "midi": 56,
      "hit": false,
      "t": 93545.53250000121,
      "d": 136.36375000000407,
      "v": 53
    },
    {
      "midi": 59,
      "hit": false,
      "t": 93545.53250000122,
      "d": 90.90916666666453,
      "v": 59
    },
    {
      "midi": 64,
      "hit": false,
      "t": 93545.53250000122,
      "d": 90.90916666666453,
      "v": 59
    },
    {
      "midi": 56,
      "hit": false,
      "t": 93545.53250000122,
      "d": 136.36375000000407,
      "v": 59
    },
    {
      "midi": 64,
      "hit": false,
      "t": 93556.89614583342,
      "d": 102.27281249999942,
      "v": 47
    },
    {
      "midi": 76,
      "hit": false,
      "t": 93556.89614583342,
      "d": 102.27281249999942,
      "v": 47
    },
    {
      "midi": 59,
      "hit": false,
      "t": 93681.89625000121,
      "d": 90.90916666666453,
      "v": 30
    },
    {
      "midi": 64,
      "hit": false,
      "t": 93681.89625000121,
      "d": 90.90916666666453,
      "v": 30
    },
    {
      "midi": 56,
      "hit": false,
      "t": 93681.89625000121,
      "d": 136.36375000000407,
      "v": 30
    },
    {
      "midi": 59,
      "hit": false,
      "t": 93681.89625000123,
      "d": 90.90916666666453,
      "v": 44
    },
    {
      "midi": 64,
      "hit": false,
      "t": 93681.89625000123,
      "d": 90.90916666666453,
      "v": 44
    },
    {
      "midi": 56,
      "hit": false,
      "t": 93681.89625000123,
      "d": 136.36375000000407,
      "v": 44
    },
    {
      "midi": 64,
      "hit": false,
      "t": 93693.25989583343,
      "d": 102.27281249999942,
      "v": 47
    },
    {
      "midi": 76,
      "hit": false,
      "t": 93693.25989583343,
      "d": 102.27281249999942,
      "v": 47
    },
    {
      "midi": 37,
      "hit": false,
      "t": 93818.26000000056,
      "d": 545.4550000000017,
      "v": 93
    },
    {
      "midi": 68,
      "hit": false,
      "t": 93818.26000000122,
      "d": 113.6364583333343,
      "v": 68
    },
    {
      "midi": 61,
      "hit": false,
      "t": 93818.26000000122,
      "d": 136.36375000000407,
      "v": 68
    },
    {
      "midi": 64,
      "hit": false,
      "t": 93818.26000000122,
      "d": 136.36375000000407,
      "v": 68
    },
    {
      "midi": 54,
      "hit": false,
      "t": 93818.26000000122,
      "d": 147.72739583333896,
      "v": 55
    },
    {
      "midi": 49,
      "hit": false,
      "t": 93818.26000000122,
      "d": 397.72760416667734,
      "v": 76
    },
    {
      "midi": 68,
      "hit": false,
      "t": 93818.26000000123,
      "d": 113.6364583333343,
      "v": 74
    },
    {
      "midi": 56,
      "hit": false,
      "t": 93818.26000000123,
      "d": 136.36375000000407,
      "v": 44
    },
    {
      "midi": 61,
      "hit": false,
      "t": 93818.26000000123,
      "d": 136.36375000000407,
      "v": 74
    },
    {
      "midi": 64,
      "hit": false,
      "t": 93818.26000000123,
      "d": 136.36375000000407,
      "v": 74
    },
    {
      "midi": 54,
      "hit": false,
      "t": 93818.26000000123,
      "d": 147.72739583333896,
      "v": 74
    },
    {
      "midi": 49,
      "hit": false,
      "t": 93818.26000000123,
      "d": 670.4551041666855,
      "v": 44
    },
    {
      "midi": 64,
      "hit": false,
      "t": 93829.62364583343,
      "d": 102.27281249999942,
      "v": 76
    },
    {
      "midi": 76,
      "hit": false,
      "t": 93829.62364583343,
      "d": 102.27281249999942,
      "v": 76
    },
    {
      "midi": 61,
      "hit": false,
      "t": 93954.62375000122,
      "d": 11.363645833334886,
      "v": 68
    },
    {
      "midi": 64,
      "hit": false,
      "t": 93954.62375000122,
      "d": 11.363645833334886,
      "v": 68
    },
    {
      "midi": 56,
      "hit": false,
      "t": 93954.62375000122,
      "d": 613.6368750000256,
      "v": 49
    },
    {
      "midi": 61,
      "hit": false,
      "t": 93954.62375000124,
      "d": 11.363645833334886,
      "v": 74
    },
    {
      "midi": 64,
      "hit": false,
      "t": 93954.62375000124,
      "d": 11.363645833334886,
      "v": 74
    },
    {
      "midi": 56,
      "hit": false,
      "t": 93954.62375000124,
      "d": 136.36375000000407,
      "v": 55
    },
    {
      "midi": 64,
      "hit": false,
      "t": 93965.98739583344,
      "d": 102.27281249999942,
      "v": 41
    },
    {
      "midi": 76,
      "hit": false,
      "t": 93965.98739583344,
      "d": 102.27281249999942,
      "v": 41
    },
    {
      "midi": 61,
      "hit": false,
      "t": 94090.98750000123,
      "d": 22.72729166666977,
      "v": 68
    },
    {
      "midi": 64,
      "hit": false,
      "t": 94090.98750000123,
      "d": 22.72729166666977,
      "v": 68
    },
    {
      "midi": 61,
      "hit": false,
      "t": 94090.98750000124,
      "d": 22.72729166666977,
      "v": 74
    },
    {
      "midi": 64,
      "hit": false,
      "t": 94090.98750000124,
      "d": 22.72729166666977,
      "v": 74
    },
    {
      "midi": 64,
      "hit": false,
      "t": 94102.35114583344,
      "d": 102.27281249999942,
      "v": 41
    },
    {
      "midi": 76,
      "hit": false,
      "t": 94102.35114583344,
      "d": 102.27281249999942,
      "v": 41
    },
    {
      "midi": 68,
      "hit": false,
      "t": 94227.35125000123,
      "d": 68.18187499999476,
      "v": 68
    },
    {
      "midi": 61,
      "hit": false,
      "t": 94227.35125000123,
      "d": 90.90916666666453,
      "v": 68
    },
    {
      "midi": 64,
      "hit": false,
      "t": 94227.35125000123,
      "d": 90.90916666666453,
      "v": 68
    },
    {
      "midi": 68,
      "hit": false,
      "t": 94227.35125000124,
      "d": 68.18187499999476,
      "v": 74
    },
    {
      "midi": 61,
      "hit": false,
      "t": 94227.35125000124,
      "d": 90.90916666666453,
      "v": 74
    },
    {
      "midi": 64,
      "hit": false,
      "t": 94227.35125000124,
      "d": 90.90916666666453,
      "v": 74
    },
    {
      "midi": 64,
      "hit": false,
      "t": 94238.71489583344,
      "d": 102.27281249999942,
      "v": 41
    },
    {
      "midi": 76,
      "hit": false,
      "t": 94238.71489583344,
      "d": 102.27281249999942,
      "v": 41
    },
    {
      "midi": 32,
      "hit": false,
      "t": 94363.71500000056,
      "d": 363.6366666666727,
      "v": 93
    },
    {
      "midi": 61,
      "hit": false,
      "t": 94363.71500000123,
      "d": 22.72729166666977,
      "v": 68
    },
    {
      "midi": 64,
      "hit": false,
      "t": 94363.71500000123,
      "d": 22.72729166666977,
      "v": 68
    },
    {
      "midi": 61,
      "hit": false,
      "t": 94363.71500000125,
      "d": 22.72729166666977,
      "v": 74
    },
    {
      "midi": 64,
      "hit": false,
      "t": 94363.71500000125,
      "d": 22.72729166666977,
      "v": 74
    },
    {
      "midi": 64,
      "hit": false,
      "t": 94375.07864583345,
      "d": 102.27281249999942,
      "v": 41
    },
    {
      "midi": 76,
      "hit": false,
      "t": 94375.07864583345,
      "d": 102.27281249999942,
      "v": 41
    },
    {
      "midi": 61,
      "hit": false,
      "t": 94500.07875000124,
      "d": 22.72729166666977,
      "v": 68
    },
    {
      "midi": 64,
      "hit": false,
      "t": 94500.07875000124,
      "d": 22.72729166666977,
      "v": 68
    },
    {
      "midi": 61,
      "hit": false,
      "t": 94500.07875000125,
      "d": 22.72729166666977,
      "v": 74
    },
    {
      "midi": 64,
      "hit": false,
      "t": 94500.07875000125,
      "d": 22.72729166666977,
      "v": 74
    },
    {
      "midi": 64,
      "hit": false,
      "t": 94511.44239583345,
      "d": 102.27281249999942,
      "v": 41
    },
    {
      "midi": 76,
      "hit": false,
      "t": 94511.44239583345,
      "d": 102.27281249999942,
      "v": 41
    },
    {
      "midi": 68,
      "hit": false,
      "t": 94636.44250000124,
      "d": 68.18187499999476,
      "v": 68
    },
    {
      "midi": 61,
      "hit": false,
      "t": 94636.44250000124,
      "d": 250.00020833332383,
      "v": 68
    },
    {
      "midi": 64,
      "hit": false,
      "t": 94636.44250000124,
      "d": 250.00020833332383,
      "v": 68
    },
    {
      "midi": 49,
      "hit": false,
      "t": 94636.44250000124,
      "d": 522.727708333332,
      "v": 76
    },
    {
      "midi": 56,
      "hit": false,
      "t": 94636.44250000124,
      "d": 954.546250000014,
      "v": 55
    },
    {
      "midi": 68,
      "hit": false,
      "t": 94636.44250000126,
      "d": 68.18187499999476,
      "v": 74
    },
    {
      "midi": 61,
      "hit": false,
      "t": 94636.44250000126,
      "d": 250.00020833332383,
      "v": 74
    },
    {
      "midi": 64,
      "hit": false,
      "t": 94636.44250000126,
      "d": 250.00020833332383,
      "v": 74
    },
    {
      "midi": 49,
      "hit": false,
      "t": 94636.44250000126,
      "d": 386.3639583333279,
      "v": 44
    },
    {
      "midi": 56,
      "hit": false,
      "t": 94636.44250000126,
      "d": 795.4552083333401,
      "v": 61
    },
    {
      "midi": 64,
      "hit": false,
      "t": 94647.80614583346,
      "d": 102.27281249999942,
      "v": 76
    },
    {
      "midi": 76,
      "hit": false,
      "t": 94647.80614583346,
      "d": 102.27281249999942,
      "v": 76
    },
    {
      "midi": 32,
      "hit": false,
      "t": 94772.80625000058,
      "d": 113.6364583333343,
      "v": 93
    },
    {
      "midi": 64,
      "hit": false,
      "t": 94784.16989583346,
      "d": 102.27281249999942,
      "v": 41
    },
    {
      "midi": 76,
      "hit": false,
      "t": 94784.16989583346,
      "d": 102.27281249999942,
      "v": 41
    },
    {
      "midi": 37,
      "hit": false,
      "t": 94909.17000000058,
      "d": 136.36375000000407,
      "v": 93
    },
    {
      "midi": 61,
      "hit": false,
      "t": 94909.17000000124,
      "d": 113.6364583333343,
      "v": 30
    },
    {
      "midi": 64,
      "hit": false,
      "t": 94909.17000000124,
      "d": 113.6364583333343,
      "v": 30
    },
    {
      "midi": 61,
      "hit": false,
      "t": 94909.17000000125,
      "d": 113.6364583333343,
      "v": 44
    },
    {
      "midi": 64,
      "hit": false,
      "t": 94909.17000000125,
      "d": 113.6364583333343,
      "v": 44
    },
    {
      "midi": 64,
      "hit": false,
      "t": 94920.53364583346,
      "d": 102.27281249999942,
      "v": 41
    },
    {
      "midi": 76,
      "hit": false,
      "t": 94920.53364583346,
      "d": 102.27281249999942,
      "v": 41
    },
    {
      "midi": 68,
      "hit": false,
      "t": 95045.53375000124,
      "d": 90.90916666666453,
      "v": 47
    },
    {
      "midi": 64,
      "hit": false,
      "t": 95045.53375000124,
      "d": 113.6364583333343,
      "v": 47
    },
    {
      "midi": 73,
      "hit": false,
      "t": 95045.53375000124,
      "d": 113.6364583333343,
      "v": 47
    },
    {
      "midi": 68,
      "hit": false,
      "t": 95045.53375000125,
      "d": 90.90916666666453,
      "v": 53
    },
    {
      "midi": 64,
      "hit": false,
      "t": 95045.53375000125,
      "d": 113.6364583333343,
      "v": 53
    },
    {
      "midi": 73,
      "hit": false,
      "t": 95045.53375000125,
      "d": 113.6364583333343,
      "v": 53
    },
    {
      "midi": 49,
      "hit": false,
      "t": 95045.53375000125,
      "d": 386.36395833334245,
      "v": 44
    },
    {
      "midi": 64,
      "hit": false,
      "t": 95056.89739583347,
      "d": 102.27281249999942,
      "v": 41
    },
    {
      "midi": 76,
      "hit": false,
      "t": 95056.89739583347,
      "d": 102.27281249999942,
      "v": 41
    },
    {
      "midi": 37,
      "hit": false,
      "t": 95181.89750000059,
      "d": 272.7274999999936,
      "v": 93
    },
    {
      "midi": 64,
      "hit": false,
      "t": 95181.89750000124,
      "d": 113.6364583333343,
      "v": 68
    },
    {
      "midi": 68,
      "hit": false,
      "t": 95181.89750000124,
      "d": 113.6364583333343,
      "v": 68
    },
    {
      "midi": 73,
      "hit": false,
      "t": 95181.89750000124,
      "d": 113.6364583333343,
      "v": 68
    },
    {
      "midi": 64,
      "hit": false,
      "t": 95181.89750000126,
      "d": 113.6364583333343,
      "v": 74
    },
    {
      "midi": 68,
      "hit": false,
      "t": 95181.89750000126,
      "d": 113.6364583333343,
      "v": 74
    },
    {
      "midi": 73,
      "hit": false,
      "t": 95181.89750000126,
      "d": 113.6364583333343,
      "v": 74
    },
    {
      "midi": 64,
      "hit": false,
      "t": 95193.26114583347,
      "d": 102.27281249999942,
      "v": 41
    },
    {
      "midi": 76,
      "hit": false,
      "t": 95193.26114583347,
      "d": 102.27281249999942,
      "v": 41
    },
    {
      "midi": 64,
      "hit": false,
      "t": 95318.26125000125,
      "d": 113.6364583333343,
      "v": 43
    },
    {
      "midi": 68,
      "hit": false,
      "t": 95318.26125000125,
      "d": 113.6364583333343,
      "v": 43
    },
    {
      "midi": 73,
      "hit": false,
      "t": 95318.26125000125,
      "d": 136.36375000000407,
      "v": 43
    },
    {
      "midi": 64,
      "hit": false,
      "t": 95318.26125000126,
      "d": 113.6364583333343,
      "v": 49
    },
    {
      "midi": 68,
      "hit": false,
      "t": 95318.26125000126,
      "d": 113.6364583333343,
      "v": 49
    },
    {
      "midi": 73,
      "hit": false,
      "t": 95318.26125000126,
      "d": 136.36375000000407,
      "v": 49
    },
    {
      "midi": 64,
      "hit": false,
      "t": 95329.62489583348,
      "d": 102.27281249999942,
      "v": 41
    },
    {
      "midi": 76,
      "hit": false,
      "t": 95329.62489583348,
      "d": 102.27281249999942,
      "v": 41
    },
    {
      "midi": 32,
      "hit": false,
      "t": 95454.62500000058,
      "d": 238.6365625000035,
      "v": 93
    },
    {
      "midi": 49,
      "hit": false,
      "t": 95454.62500000125,
      "d": 113.6364583333343,
      "v": 76
    },
    {
      "midi": 64,
      "hit": false,
      "t": 95454.62500000125,
      "d": 113.6364583333343,
      "v": 76
    },
    {
      "midi": 68,
      "hit": false,
      "t": 95454.62500000125,
      "d": 113.6364583333343,
      "v": 76
    },
    {
      "midi": 73,
      "hit": false,
      "t": 95454.62500000125,
      "d": 136.36375000000407,
      "v": 76
    },
    {
      "midi": 49,
      "hit": false,
      "t": 95454.62500000127,
      "d": 113.6364583333343,
      "v": 44
    },
    {
      "midi": 56,
      "hit": false,
      "t": 95454.62500000127,
      "d": 113.6364583333343,
      "v": 44
    },
    {
      "midi": 64,
      "hit": false,
      "t": 95454.62500000127,
      "d": 113.6364583333343,
      "v": 74
    },
    {
      "midi": 68,
      "hit": false,
      "t": 95454.62500000127,
      "d": 113.6364583333343,
      "v": 74
    },
    {
      "midi": 73,
      "hit": false,
      "t": 95454.62500000127,
      "d": 136.36375000000407,
      "v": 74
    },
    {
      "midi": 64,
      "hit": false,
      "t": 95465.98864583348,
      "d": 102.27281249999942,
      "v": 74
    },
    {
      "midi": 76,
      "hit": false,
      "t": 95465.98864583348,
      "d": 102.27281249999942,
      "v": 74
    },
    {
      "midi": 61,
      "hit": false,
      "t": 95590.98875000126,
      "d": 68.18187499999476,
      "v": 30
    },
    {
      "midi": 64,
      "hit": false,
      "t": 95590.98875000126,
      "d": 68.18187499999476,
      "v": 30
    },
    {
      "midi": 61,
      "hit": false,
      "t": 95590.98875000127,
      "d": 68.18187499999476,
      "v": 44
    },
    {
      "midi": 64,
      "hit": false,
      "t": 95590.98875000127,
      "d": 68.18187499999476,
      "v": 44
    },
    {
      "midi": 64,
      "hit": false,
      "t": 95602.35239583348,
      "d": 102.27281249999942,
      "v": 47
    },
    {
      "midi": 76,
      "hit": false,
      "t": 95602.35239583348,
      "d": 102.27281249999942,
      "v": 47
    },
    {
      "midi": 32,
      "hit": false,
      "t": 95727.35250000059,
      "d": 68.18187499999476,
      "v": 93
    },
    {
      "midi": 61,
      "hit": false,
      "t": 95727.35250000125,
      "d": 113.6364583333343,
      "v": 30
    },
    {
      "midi": 64,
      "hit": false,
      "t": 95727.35250000125,
      "d": 113.6364583333343,
      "v": 30
    },
    {
      "midi": 56,
      "hit": false,
      "t": 95727.35250000125,
      "d": 136.36375000000407,
      "v": 44
    },
    {
      "midi": 61,
      "hit": false,
      "t": 95727.35250000126,
      "d": 113.6364583333343,
      "v": 44
    },
    {
      "midi": 64,
      "hit": false,
      "t": 95727.35250000126,
      "d": 113.6364583333343,
      "v": 44
    },
    {
      "midi": 56,
      "hit": false,
      "t": 95727.35250000126,
      "d": 136.36375000000407,
      "v": 50
    },
    {
      "midi": 64,
      "hit": false,
      "t": 95738.71614583349,
      "d": 102.27281249999942,
      "v": 47
    },
    {
      "midi": 76,
      "hit": false,
      "t": 95738.71614583349,
      "d": 102.27281249999942,
      "v": 47
    },
    {
      "midi": 32,
      "hit": false,
      "t": 95863.71625000058,
      "d": 90.90916666666453,
      "v": 93
    },
    {
      "midi": 56,
      "hit": false,
      "t": 95863.71625000125,
      "d": 22.72729166666977,
      "v": 30
    },
    {
      "midi": 61,
      "hit": false,
      "t": 95863.71625000125,
      "d": 113.6364583333343,
      "v": 30
    },
    {
      "midi": 64,
      "hit": false,
      "t": 95863.71625000125,
      "d": 113.6364583333343,
      "v": 30
    },
    {
      "midi": 56,
      "hit": false,
      "t": 95863.71625000126,
      "d": 22.72729166666977,
      "v": 44
    },
    {
      "midi": 61,
      "hit": false,
      "t": 95863.71625000126,
      "d": 113.6364583333343,
      "v": 44
    },
    {
      "midi": 64,
      "hit": false,
      "t": 95863.71625000126,
      "d": 113.6364583333343,
      "v": 44
    },
    {
      "midi": 64,
      "hit": false,
      "t": 95875.07989583349,
      "d": 102.27281249999942,
      "v": 47
    },
    {
      "midi": 76,
      "hit": false,
      "t": 95875.07989583349,
      "d": 102.27281249999942,
      "v": 47
    },
    {
      "midi": 35,
      "hit": false,
      "t": 96000.08000000058,
      "d": 534.0913541666669,
      "v": 93
    },
    {
      "midi": 47,
      "hit": false,
      "t": 96000.08000000125,
      "d": 534.0913541666669,
      "v": 76
    },
    {
      "midi": 63,
      "hit": false,
      "t": 96000.08000000125,
      "d": 659.091458333336,
      "v": 68
    },
    {
      "midi": 66,
      "hit": false,
      "t": 96000.08000000125,
      "d": 659.091458333336,
      "v": 68
    },
    {
      "midi": 71,
      "hit": false,
      "t": 96000.08000000125,
      "d": 659.091458333336,
      "v": 68
    },
    {
      "midi": 47,
      "hit": false,
      "t": 96000.08000000127,
      "d": 659.091458333336,
      "v": 44
    },
    {
      "midi": 54,
      "hit": false,
      "t": 96000.08000000127,
      "d": 659.091458333336,
      "v": 44
    },
    {
      "midi": 63,
      "hit": false,
      "t": 96000.08000000127,
      "d": 659.091458333336,
      "v": 74
    },
    {
      "midi": 66,
      "hit": false,
      "t": 96000.08000000127,
      "d": 659.091458333336,
      "v": 74
    },
    {
      "midi": 71,
      "hit": false,
      "t": 96000.08000000127,
      "d": 659.091458333336,
      "v": 74
    },
    {
      "midi": 64,
      "hit": false,
      "t": 96011.4436458335,
      "d": 102.27281249999942,
      "v": 76
    },
    {
      "midi": 76,
      "hit": false,
      "t": 96011.4436458335,
      "d": 102.27281249999942,
      "v": 76
    },
    {
      "midi": 64,
      "hit": false,
      "t": 96147.8073958335,
      "d": 102.27281249999942,
      "v": 41
    },
    {
      "midi": 76,
      "hit": false,
      "t": 96147.8073958335,
      "d": 102.27281249999942,
      "v": 41
    },
    {
      "midi": 64,
      "hit": false,
      "t": 96284.1711458335,
      "d": 102.27281249999942,
      "v": 41
    },
    {
      "midi": 76,
      "hit": false,
      "t": 96284.1711458335,
      "d": 102.27281249999942,
      "v": 41
    },
    {
      "midi": 64,
      "hit": false,
      "t": 96420.53489583351,
      "d": 102.27281249999942,
      "v": 41
    },
    {
      "midi": 76,
      "hit": false,
      "t": 96420.53489583351,
      "d": 102.27281249999942,
      "v": 41
    },
    {
      "midi": 30,
      "hit": false,
      "t": 96545.53500000059,
      "d": 318.18208333333314,
      "v": 93
    },
    {
      "midi": 64,
      "hit": false,
      "t": 96556.89864583351,
      "d": 102.27281249999942,
      "v": 41
    },
    {
      "midi": 76,
      "hit": false,
      "t": 96556.89864583351,
      "d": 102.27281249999942,
      "v": 41
    },
    {
      "midi": 64,
      "hit": false,
      "t": 96693.26239583352,
      "d": 102.27281249999942,
      "v": 41
    },
    {
      "midi": 76,
      "hit": false,
      "t": 96693.26239583352,
      "d": 102.27281249999942,
      "v": 41
    },
    {
      "midi": 63,
      "hit": false,
      "t": 96818.26250000126,
      "d": 386.3639583333279,
      "v": 68
    },
    {
      "midi": 66,
      "hit": false,
      "t": 96818.26250000126,
      "d": 386.3639583333279,
      "v": 68
    },
    {
      "midi": 71,
      "hit": false,
      "t": 96818.26250000126,
      "d": 386.3639583333279,
      "v": 68
    },
    {
      "midi": 47,
      "hit": false,
      "t": 96818.26250000126,
      "d": 943.1826041666791,
      "v": 76
    },
    {
      "midi": 63,
      "hit": false,
      "t": 96818.26250000128,
      "d": 386.3639583333279,
      "v": 74
    },
    {
      "midi": 66,
      "hit": false,
      "t": 96818.26250000128,
      "d": 386.3639583333279,
      "v": 74
    },
    {
      "midi": 71,
      "hit": false,
      "t": 96818.26250000128,
      "d": 386.3639583333279,
      "v": 74
    },
    {
      "midi": 47,
      "hit": false,
      "t": 96818.26250000128,
      "d": 659.091458333336,
      "v": 44
    },
    {
      "midi": 54,
      "hit": false,
      "t": 96818.26250000128,
      "d": 659.091458333336,
      "v": 44
    },
    {
      "midi": 64,
      "hit": false,
      "t": 96829.62614583352,
      "d": 102.27281249999942,
      "v": 76
    },
    {
      "midi": 76,
      "hit": false,
      "t": 96829.62614583352,
      "d": 102.27281249999942,
      "v": 76
    },
    {
      "midi": 30,
      "hit": false,
      "t": 96954.62625000058,
      "d": 102.27281249999942,
      "v": 93
    },
    {
      "midi": 64,
      "hit": false,
      "t": 96965.98989583353,
      "d": 102.27281249999942,
      "v": 41
    },
    {
      "midi": 76,
      "hit": false,
      "t": 96965.98989583353,
      "d": 102.27281249999942,
      "v": 41
    },
    {
      "midi": 35,
      "hit": false,
      "t": 97090.99000000059,
      "d": 113.6364583333343,
      "v": 93
    },
    {
      "midi": 64,
      "hit": false,
      "t": 97102.35364583353,
      "d": 102.27281249999942,
      "v": 41
    },
    {
      "midi": 76,
      "hit": false,
      "t": 97102.35364583353,
      "d": 102.27281249999942,
      "v": 41
    },
    {
      "midi": 63,
      "hit": false,
      "t": 97227.35375000126,
      "d": 250.00020833333838,
      "v": 68
    },
    {
      "midi": 66,
      "hit": false,
      "t": 97227.35375000126,
      "d": 250.00020833333838,
      "v": 68
    },
    {
      "midi": 71,
      "hit": false,
      "t": 97227.35375000126,
      "d": 250.00020833333838,
      "v": 68
    },
    {
      "midi": 63,
      "hit": false,
      "t": 97227.35375000128,
      "d": 250.00020833333838,
      "v": 74
    },
    {
      "midi": 66,
      "hit": false,
      "t": 97227.35375000128,
      "d": 250.00020833333838,
      "v": 74
    },
    {
      "midi": 71,
      "hit": false,
      "t": 97227.35375000128,
      "d": 250.00020833333838,
      "v": 74
    },
    {
      "midi": 64,
      "hit": false,
      "t": 97238.71739583353,
      "d": 102.27281249999942,
      "v": 41
    },
    {
      "midi": 76,
      "hit": false,
      "t": 97238.71739583353,
      "d": 102.27281249999942,
      "v": 41
    },
    {
      "midi": 35,
      "hit": false,
      "t": 97363.7175000006,
      "d": 284.0911458333285,
      "v": 93
    },
    {
      "midi": 64,
      "hit": false,
      "t": 97375.08114583354,
      "d": 102.27281249999942,
      "v": 41
    },
    {
      "midi": 76,
      "hit": false,
      "t": 97375.08114583354,
      "d": 102.27281249999942,
      "v": 41
    },
    {
      "midi": 63,
      "hit": false,
      "t": 97500.08125000127,
      "d": 22.72729166666977,
      "v": 68
    },
    {
      "midi": 66,
      "hit": false,
      "t": 97500.08125000127,
      "d": 22.72729166666977,
      "v": 68
    },
    {
      "midi": 71,
      "hit": false,
      "t": 97500.08125000127,
      "d": 22.72729166666977,
      "v": 68
    },
    {
      "midi": 63,
      "hit": false,
      "t": 97500.08125000128,
      "d": 22.72729166666977,
      "v": 74
    },
    {
      "midi": 66,
      "hit": false,
      "t": 97500.08125000128,
      "d": 22.72729166666977,
      "v": 74
    },
    {
      "midi": 71,
      "hit": false,
      "t": 97500.08125000128,
      "d": 22.72729166666977,
      "v": 74
    },
    {
      "midi": 64,
      "hit": false,
      "t": 97511.44489583354,
      "d": 102.27281249999942,
      "v": 41
    },
    {
      "midi": 76,
      "hit": false,
      "t": 97511.44489583354,
      "d": 102.27281249999942,
      "v": 41
    },
    {
      "midi": 30,
      "hit": false,
      "t": 97636.44500000059,
      "d": 204.54562499999884,
      "v": 93
    },
    {
      "midi": 63,
      "hit": false,
      "t": 97636.44500000127,
      "d": 250.00020833333838,
      "v": 68
    },
    {
      "midi": 66,
      "hit": false,
      "t": 97636.44500000127,
      "d": 250.00020833333838,
      "v": 68
    },
    {
      "midi": 71,
      "hit": false,
      "t": 97636.44500000127,
      "d": 250.00020833333838,
      "v": 68
    },
    {
      "midi": 47,
      "hit": false,
      "t": 97636.44500000129,
      "d": 125.00010416666919,
      "v": 44
    },
    {
      "midi": 54,
      "hit": false,
      "t": 97636.44500000129,
      "d": 125.00010416666919,
      "v": 44
    },
    {
      "midi": 63,
      "hit": false,
      "t": 97636.44500000129,
      "d": 250.00020833333838,
      "v": 74
    },
    {
      "midi": 66,
      "hit": false,
      "t": 97636.44500000129,
      "d": 250.00020833333838,
      "v": 74
    },
    {
      "midi": 71,
      "hit": false,
      "t": 97636.44500000129,
      "d": 250.00020833333838,
      "v": 74
    },
    {
      "midi": 64,
      "hit": false,
      "t": 97647.80864583355,
      "d": 102.27281249999942,
      "v": 74
    },
    {
      "midi": 76,
      "hit": false,
      "t": 97647.80864583355,
      "d": 102.27281249999942,
      "v": 74
    },
    {
      "midi": 64,
      "hit": false,
      "t": 97784.17239583355,
      "d": 102.27281249999942,
      "v": 47
    },
    {
      "midi": 76,
      "hit": false,
      "t": 97784.17239583355,
      "d": 102.27281249999942,
      "v": 47
    },
    {
      "midi": 30,
      "hit": false,
      "t": 97909.17250000058,
      "d": 68.18187499999476,
      "v": 93
    },
    {
      "midi": 59,
      "hit": false,
      "t": 97909.17250000128,
      "d": 22.72729166666977,
      "v": 68
    },
    {
      "midi": 63,
      "hit": false,
      "t": 97909.17250000128,
      "d": 22.72729166666977,
      "v": 68
    },
    {
      "midi": 66,
      "hit": false,
      "t": 97909.17250000128,
      "d": 22.72729166666977,
      "v": 68
    },
    {
      "midi": 59,
      "hit": false,
      "t": 97909.1725000013,
      "d": 22.72729166666977,
      "v": 74
    },
    {
      "midi": 63,
      "hit": false,
      "t": 97909.1725000013,
      "d": 22.72729166666977,
      "v": 74
    },
    {
      "midi": 66,
      "hit": false,
      "t": 97909.1725000013,
      "d": 22.72729166666977,
      "v": 74
    },
    {
      "midi": 64,
      "hit": false,
      "t": 97920.53614583355,
      "d": 102.27281249999942,
      "v": 47
    },
    {
      "midi": 76,
      "hit": false,
      "t": 97920.53614583355,
      "d": 102.27281249999942,
      "v": 47
    },
    {
      "midi": 30,
      "hit": false,
      "t": 98045.53625000057,
      "d": 90.90916666666453,
      "v": 93
    },
    {
      "midi": 59,
      "hit": false,
      "t": 98045.53625000129,
      "d": 22.72729166666977,
      "v": 68
    },
    {
      "midi": 63,
      "hit": false,
      "t": 98045.53625000129,
      "d": 22.72729166666977,
      "v": 68
    },
    {
      "midi": 66,
      "hit": false,
      "t": 98045.53625000129,
      "d": 22.72729166666977,
      "v": 68
    },
    {
      "midi": 59,
      "hit": false,
      "t": 98045.5362500013,
      "d": 22.72729166666977,
      "v": 74
    },
    {
      "midi": 63,
      "hit": false,
      "t": 98045.5362500013,
      "d": 22.72729166666977,
      "v": 74
    },
    {
      "midi": 66,
      "hit": false,
      "t": 98045.5362500013,
      "d": 22.72729166666977,
      "v": 74
    },
    {
      "midi": 64,
      "hit": false,
      "t": 98056.89989583356,
      "d": 102.27281249999942,
      "v": 47
    },
    {
      "midi": 76,
      "hit": false,
      "t": 98056.89989583356,
      "d": 102.27281249999942,
      "v": 47
    },
    {
      "midi": 33,
      "hit": false,
      "t": 98181.90000000058,
      "d": 340.9093750000029,
      "v": 93
    },
    {
      "midi": 45,
      "hit": false,
      "t": 98181.90000000129,
      "d": 659.091458333336,
      "v": 76
    },
    {
      "midi": 61,
      "hit": false,
      "t": 98181.90000000129,
      "d": 659.091458333336,
      "v": 68
    },
    {
      "midi": 64,
      "hit": false,
      "t": 98181.90000000129,
      "d": 659.091458333336,
      "v": 68
    },
    {
      "midi": 69,
      "hit": false,
      "t": 98181.90000000129,
      "d": 659.091458333336,
      "v": 68
    },
    {
      "midi": 45,
      "hit": false,
      "t": 98181.9000000013,
      "d": 659.091458333336,
      "v": 44
    },
    {
      "midi": 52,
      "hit": false,
      "t": 98181.9000000013,
      "d": 659.091458333336,
      "v": 44
    },
    {
      "midi": 61,
      "hit": false,
      "t": 98181.9000000013,
      "d": 659.091458333336,
      "v": 74
    },
    {
      "midi": 64,
      "hit": false,
      "t": 98181.9000000013,
      "d": 659.091458333336,
      "v": 74
    },
    {
      "midi": 69,
      "hit": false,
      "t": 98181.9000000013,
      "d": 659.091458333336,
      "v": 74
    },
    {
      "midi": 64,
      "hit": false,
      "t": 98193.26364583356,
      "d": 102.27281249999942,
      "v": 76
    },
    {
      "midi": 76,
      "hit": false,
      "t": 98193.26364583356,
      "d": 102.27281249999942,
      "v": 76
    },
    {
      "midi": 64,
      "hit": false,
      "t": 98329.62739583357,
      "d": 102.27281249999942,
      "v": 41
    },
    {
      "midi": 76,
      "hit": false,
      "t": 98329.62739583357,
      "d": 102.27281249999942,
      "v": 41
    },
    {
      "midi": 64,
      "hit": false,
      "t": 98465.99114583357,
      "d": 102.27281249999942,
      "v": 41
    },
    {
      "midi": 76,
      "hit": false,
      "t": 98465.99114583357,
      "d": 102.27281249999942,
      "v": 41
    },
    {
      "midi": 33,
      "hit": false,
      "t": 98590.99125000057,
      "d": 68.18187499999476,
      "v": 93
    },
    {
      "midi": 64,
      "hit": false,
      "t": 98602.35489583357,
      "d": 102.27281249999942,
      "v": 41
    },
    {
      "midi": 76,
      "hit": false,
      "t": 98602.35489583357,
      "d": 102.27281249999942,
      "v": 41
    },
    {
      "midi": 35,
      "hit": false,
      "t": 98727.35500000056,
      "d": 329.545729166668,
      "v": 93
    },
    {
      "midi": 64,
      "hit": false,
      "t": 98738.71864583358,
      "d": 102.27281249999942,
      "v": 41
    },
    {
      "midi": 76,
      "hit": false,
      "t": 98738.71864583358,
      "d": 102.27281249999942,
      "v": 41
    },
    {
      "midi": 64,
      "hit": false,
      "t": 98875.08239583358,
      "d": 102.27281249999942,
      "v": 41
    },
    {
      "midi": 76,
      "hit": false,
      "t": 98875.08239583358,
      "d": 102.27281249999942,
      "v": 41
    },
    {
      "midi": 61,
      "hit": false,
      "t": 99000.0825000013,
      "d": 386.3639583333279,
      "v": 68
    },
    {
      "midi": 64,
      "hit": false,
      "t": 99000.0825000013,
      "d": 386.3639583333279,
      "v": 68
    },
    {
      "midi": 69,
      "hit": false,
      "t": 99000.0825000013,
      "d": 386.3639583333279,
      "v": 68
    },
    {
      "midi": 45,
      "hit": false,
      "t": 99000.0825000013,
      "d": 943.1826041666791,
      "v": 76
    },
    {
      "midi": 61,
      "hit": false,
      "t": 99000.08250000131,
      "d": 386.3639583333279,
      "v": 74
    },
    {
      "midi": 64,
      "hit": false,
      "t": 99000.08250000131,
      "d": 386.3639583333279,
      "v": 74
    },
    {
      "midi": 69,
      "hit": false,
      "t": 99000.08250000131,
      "d": 386.3639583333279,
      "v": 74
    },
    {
      "midi": 45,
      "hit": false,
      "t": 99000.08250000131,
      "d": 943.1826041666791,
      "v": 44
    },
    {
      "midi": 52,
      "hit": false,
      "t": 99000.08250000131,
      "d": 943.1826041666791,
      "v": 44
    },
    {
      "midi": 64,
      "hit": false,
      "t": 99011.44614583359,
      "d": 102.27281249999942,
      "v": 76
    },
    {
      "midi": 76,
      "hit": false,
      "t": 99011.44614583359,
      "d": 102.27281249999942,
      "v": 76
    },
    {
      "midi": 35,
      "hit": false,
      "t": 99136.44625000056,
      "d": 68.18187499999476,
      "v": 93
    },
    {
      "midi": 64,
      "hit": false,
      "t": 99147.80989583359,
      "d": 102.27281249999942,
      "v": 41
    },
    {
      "midi": 76,
      "hit": false,
      "t": 99147.80989583359,
      "d": 102.27281249999942,
      "v": 41
    },
    {
      "midi": 37,
      "hit": false,
      "t": 99272.81000000055,
      "d": 363.6366666666727,
      "v": 93
    },
    {
      "midi": 64,
      "hit": false,
      "t": 99284.1736458336,
      "d": 102.27281249999942,
      "v": 41
    },
    {
      "midi": 76,
      "hit": false,
      "t": 99284.1736458336,
      "d": 102.27281249999942,
      "v": 41
    },
    {
      "midi": 61,
      "hit": false,
      "t": 99409.1737500013,
      "d": 250.00020833333838,
      "v": 68
    },
    {
      "midi": 64,
      "hit": false,
      "t": 99409.1737500013,
      "d": 250.00020833333838,
      "v": 68
    },
    {
      "midi": 69,
      "hit": false,
      "t": 99409.1737500013,
      "d": 250.00020833333838,
      "v": 68
    },
    {
      "midi": 61,
      "hit": false,
      "t": 99409.17375000131,
      "d": 250.00020833333838,
      "v": 74
    },
    {
      "midi": 64,
      "hit": false,
      "t": 99409.17375000131,
      "d": 250.00020833333838,
      "v": 74
    },
    {
      "midi": 69,
      "hit": false,
      "t": 99409.17375000131,
      "d": 250.00020833333838,
      "v": 74
    },
    {
      "midi": 64,
      "hit": false,
      "t": 99420.5373958336,
      "d": 102.27281249999942,
      "v": 41
    },
    {
      "midi": 76,
      "hit": false,
      "t": 99420.5373958336,
      "d": 102.27281249999942,
      "v": 41
    },
    {
      "midi": 64,
      "hit": false,
      "t": 99556.9011458336,
      "d": 102.27281249999942,
      "v": 41
    },
    {
      "midi": 76,
      "hit": false,
      "t": 99556.9011458336,
      "d": 102.27281249999942,
      "v": 41
    },
    {
      "midi": 37,
      "hit": false,
      "t": 99681.90125000056,
      "d": 79.54552083332965,
      "v": 93
    },
    {
      "midi": 61,
      "hit": false,
      "t": 99681.9012500013,
      "d": 22.72729166666977,
      "v": 68
    },
    {
      "midi": 64,
      "hit": false,
      "t": 99681.9012500013,
      "d": 22.72729166666977,
      "v": 68
    },
    {
      "midi": 69,
      "hit": false,
      "t": 99681.9012500013,
      "d": 22.72729166666977,
      "v": 68
    },
    {
      "midi": 61,
      "hit": false,
      "t": 99681.90125000132,
      "d": 22.72729166666977,
      "v": 74
    },
    {
      "midi": 64,
      "hit": false,
      "t": 99681.90125000132,
      "d": 22.72729166666977,
      "v": 74
    },
    {
      "midi": 69,
      "hit": false,
      "t": 99681.90125000132,
      "d": 22.72729166666977,
      "v": 74
    },
    {
      "midi": 64,
      "hit": false,
      "t": 99693.2648958336,
      "d": 102.27281249999942,
      "v": 41
    },
    {
      "midi": 76,
      "hit": false,
      "t": 99693.2648958336,
      "d": 102.27281249999942,
      "v": 41
    },
    {
      "midi": 38,
      "hit": false,
      "t": 99818.26500000055,
      "d": 386.3639583333279,
      "v": 93
    },
    {
      "midi": 61,
      "hit": false,
      "t": 99818.26500000131,
      "d": 250.00020833333838,
      "v": 68
    },
    {
      "midi": 64,
      "hit": false,
      "t": 99818.26500000131,
      "d": 250.00020833333838,
      "v": 68
    },
    {
      "midi": 69,
      "hit": false,
      "t": 99818.26500000131,
      "d": 250.00020833333838,
      "v": 68
    },
    {
      "midi": 61,
      "hit": false,
      "t": 99818.26500000132,
      "d": 250.00020833333838,
      "v": 74
    },
    {
      "midi": 64,
      "hit": false,
      "t": 99818.26500000132,
      "d": 250.00020833333838,
      "v": 74
    },
    {
      "midi": 69,
      "hit": false,
      "t": 99818.26500000132,
      "d": 250.00020833333838,
      "v": 74
    },
    {
      "midi": 64,
      "hit": false,
      "t": 99829.62864583361,
      "d": 102.27281249999942,
      "v": 74
    },
    {
      "midi": 76,
      "hit": false,
      "t": 99829.62864583361,
      "d": 102.27281249999942,
      "v": 74
    },
    {
      "midi": 64,
      "hit": false,
      "t": 99965.99239583361,
      "d": 102.27281249999942,
      "v": 47
    },
    {
      "midi": 76,
      "hit": false,
      "t": 99965.99239583361,
      "d": 102.27281249999942,
      "v": 47
    },
    {
      "midi": 57,
      "hit": false,
      "t": 100090.99250000132,
      "d": 22.72729166666977,
      "v": 68
    },
    {
      "midi": 61,
      "hit": false,
      "t": 100090.99250000132,
      "d": 22.72729166666977,
      "v": 68
    },
    {
      "midi": 64,
      "hit": false,
      "t": 100090.99250000132,
      "d": 22.72729166666977,
      "v": 68
    },
    {
      "midi": 57,
      "hit": false,
      "t": 100090.99250000133,
      "d": 22.72729166666977,
      "v": 74
    },
    {
      "midi": 61,
      "hit": false,
      "t": 100090.99250000133,
      "d": 22.72729166666977,
      "v": 74
    },
    {
      "midi": 64,
      "hit": false,
      "t": 100090.99250000133,
      "d": 22.72729166666977,
      "v": 74
    },
    {
      "midi": 64,
      "hit": false,
      "t": 100102.35614583362,
      "d": 102.27281249999942,
      "v": 47
    },
    {
      "midi": 76,
      "hit": false,
      "t": 100102.35614583362,
      "d": 102.27281249999942,
      "v": 47
    },
    {
      "midi": 57,
      "hit": false,
      "t": 100227.35625000132,
      "d": 22.72729166666977,
      "v": 68
    },
    {
      "midi": 61,
      "hit": false,
      "t": 100227.35625000132,
      "d": 22.72729166666977,
      "v": 68
    },
    {
      "midi": 64,
      "hit": false,
      "t": 100227.35625000132,
      "d": 22.72729166666977,
      "v": 68
    },
    {
      "midi": 57,
      "hit": false,
      "t": 100227.35625000134,
      "d": 22.72729166666977,
      "v": 74
    },
    {
      "midi": 61,
      "hit": false,
      "t": 100227.35625000134,
      "d": 22.72729166666977,
      "v": 74
    },
    {
      "midi": 64,
      "hit": false,
      "t": 100227.35625000134,
      "d": 22.72729166666977,
      "v": 74
    },
    {
      "midi": 64,
      "hit": false,
      "t": 100238.71989583362,
      "d": 102.27281249999942,
      "v": 47
    },
    {
      "midi": 76,
      "hit": false,
      "t": 100238.71989583362,
      "d": 102.27281249999942,
      "v": 47
    },
    {
      "midi": 40,
      "hit": false,
      "t": 100363.72000000055,
      "d": 375.000312499993,
      "v": 93
    },
    {
      "midi": 62,
      "hit": false,
      "t": 100363.72000000133,
      "d": 250.00020833333838,
      "v": 68
    },
    {
      "midi": 64,
      "hit": false,
      "t": 100363.72000000133,
      "d": 250.00020833333838,
      "v": 68
    },
    {
      "midi": 69,
      "hit": false,
      "t": 100363.72000000133,
      "d": 250.00020833333838,
      "v": 68
    },
    {
      "midi": 45,
      "hit": false,
      "t": 100363.72000000133,
      "d": 659.0914583333506,
      "v": 76
    },
    {
      "midi": 45,
      "hit": false,
      "t": 100363.72000000134,
      "d": 250.00020833333838,
      "v": 44
    },
    {
      "midi": 62,
      "hit": false,
      "t": 100363.72000000134,
      "d": 250.00020833333838,
      "v": 74
    },
    {
      "midi": 64,
      "hit": false,
      "t": 100363.72000000134,
      "d": 250.00020833333838,
      "v": 74
    },
    {
      "midi": 69,
      "hit": false,
      "t": 100363.72000000134,
      "d": 250.00020833333838,
      "v": 74
    },
    {
      "midi": 64,
      "hit": false,
      "t": 100375.08364583363,
      "d": 102.27281249999942,
      "v": 76
    },
    {
      "midi": 76,
      "hit": false,
      "t": 100375.08364583363,
      "d": 102.27281249999942,
      "v": 76
    },
    {
      "midi": 64,
      "hit": false,
      "t": 100511.44739583363,
      "d": 102.27281249999942,
      "v": 41
    },
    {
      "midi": 76,
      "hit": false,
      "t": 100511.44739583363,
      "d": 102.27281249999942,
      "v": 41
    },
    {
      "midi": 64,
      "hit": false,
      "t": 100647.81114583364,
      "d": 102.27281249999942,
      "v": 41
    },
    {
      "midi": 76,
      "hit": false,
      "t": 100647.81114583364,
      "d": 102.27281249999942,
      "v": 41
    },
    {
      "midi": 40,
      "hit": false,
      "t": 100772.81125000055,
      "d": 90.90916666666453,
      "v": 93
    },
    {
      "midi": 62,
      "hit": false,
      "t": 100772.81125000134,
      "d": 250.00020833333838,
      "v": 68
    },
    {
      "midi": 64,
      "hit": false,
      "t": 100772.81125000134,
      "d": 250.00020833333838,
      "v": 68
    },
    {
      "midi": 69,
      "hit": false,
      "t": 100772.81125000134,
      "d": 250.00020833333838,
      "v": 68
    },
    {
      "midi": 45,
      "hit": false,
      "t": 100772.81125000135,
      "d": 250.00020833333838,
      "v": 44
    },
    {
      "midi": 62,
      "hit": false,
      "t": 100772.81125000135,
      "d": 250.00020833333838,
      "v": 74
    },
    {
      "midi": 64,
      "hit": false,
      "t": 100772.81125000135,
      "d": 250.00020833333838,
      "v": 74
    },
    {
      "midi": 69,
      "hit": false,
      "t": 100772.81125000135,
      "d": 250.00020833333838,
      "v": 74
    },
    {
      "midi": 64,
      "hit": false,
      "t": 100784.17489583364,
      "d": 102.27281249999942,
      "v": 41
    },
    {
      "midi": 76,
      "hit": false,
      "t": 100784.17489583364,
      "d": 102.27281249999942,
      "v": 41
    },
    {
      "midi": 42,
      "hit": false,
      "t": 100909.17500000056,
      "d": 352.2730208333378,
      "v": 93
    },
    {
      "midi": 64,
      "hit": false,
      "t": 100920.53864583364,
      "d": 102.27281249999942,
      "v": 41
    },
    {
      "midi": 76,
      "hit": false,
      "t": 100920.53864583364,
      "d": 102.27281249999942,
      "v": 41
    },
    {
      "midi": 64,
      "hit": false,
      "t": 101056.90239583365,
      "d": 102.27281249999942,
      "v": 41
    },
    {
      "midi": 76,
      "hit": false,
      "t": 101056.90239583365,
      "d": 102.27281249999942,
      "v": 41
    },
    {
      "midi": 62,
      "hit": false,
      "t": 101181.90250000135,
      "d": 250.00020833333838,
      "v": 68
    },
    {
      "midi": 64,
      "hit": false,
      "t": 101181.90250000135,
      "d": 250.00020833333838,
      "v": 68
    },
    {
      "midi": 69,
      "hit": false,
      "t": 101181.90250000135,
      "d": 250.00020833333838,
      "v": 68
    },
    {
      "midi": 45,
      "hit": false,
      "t": 101181.90250000135,
      "d": 659.0914583333506,
      "v": 76
    },
    {
      "midi": 62,
      "hit": false,
      "t": 101181.90250000136,
      "d": 250.00020833333838,
      "v": 74
    },
    {
      "midi": 64,
      "hit": false,
      "t": 101181.90250000136,
      "d": 250.00020833333838,
      "v": 74
    },
    {
      "midi": 69,
      "hit": false,
      "t": 101181.90250000136,
      "d": 250.00020833333838,
      "v": 74
    },
    {
      "midi": 45,
      "hit": false,
      "t": 101181.90250000136,
      "d": 397.72760416667734,
      "v": 44
    },
    {
      "midi": 64,
      "hit": false,
      "t": 101193.26614583365,
      "d": 102.27281249999942,
      "v": 76
    },
    {
      "midi": 76,
      "hit": false,
      "t": 101193.26614583365,
      "d": 102.27281249999942,
      "v": 76
    },
    {
      "midi": 42,
      "hit": false,
      "t": 101318.26625000055,
      "d": 147.72739583333896,
      "v": 93
    },
    {
      "midi": 64,
      "hit": false,
      "t": 101329.62989583366,
      "d": 102.27281249999942,
      "v": 41
    },
    {
      "midi": 76,
      "hit": false,
      "t": 101329.62989583366,
      "d": 102.27281249999942,
      "v": 41
    },
    {
      "midi": 45,
      "hit": false,
      "t": 101454.63000000056,
      "d": 147.72739583333896,
      "v": 93
    },
    {
      "midi": 64,
      "hit": false,
      "t": 101465.99364583366,
      "d": 102.27281249999942,
      "v": 41
    },
    {
      "midi": 76,
      "hit": false,
      "t": 101465.99364583366,
      "d": 102.27281249999942,
      "v": 41
    },
    {
      "midi": 40,
      "hit": false,
      "t": 101590.99375000056,
      "d": 125.00010416666919,
      "v": 93
    },
    {
      "midi": 62,
      "hit": false,
      "t": 101590.99375000136,
      "d": 250.00020833333838,
      "v": 68
    },
    {
      "midi": 64,
      "hit": false,
      "t": 101590.99375000136,
      "d": 250.00020833333838,
      "v": 68
    },
    {
      "midi": 69,
      "hit": false,
      "t": 101590.99375000136,
      "d": 250.00020833333838,
      "v": 68
    },
    {
      "midi": 45,
      "hit": false,
      "t": 101590.99375000138,
      "d": 250.00020833333838,
      "v": 44
    },
    {
      "midi": 62,
      "hit": false,
      "t": 101590.99375000138,
      "d": 250.00020833333838,
      "v": 74
    },
    {
      "midi": 64,
      "hit": false,
      "t": 101590.99375000138,
      "d": 250.00020833333838,
      "v": 74
    },
    {
      "midi": 69,
      "hit": false,
      "t": 101590.99375000138,
      "d": 250.00020833333838,
      "v": 74
    },
    {
      "midi": 64,
      "hit": false,
      "t": 101602.35739583366,
      "d": 102.27281249999942,
      "v": 41
    },
    {
      "midi": 76,
      "hit": false,
      "t": 101602.35739583366,
      "d": 102.27281249999942,
      "v": 41
    },
    {
      "midi": 45,
      "hit": false,
      "t": 101727.35750000057,
      "d": 329.5457291666535,
      "v": 93
    },
    {
      "midi": 64,
      "hit": false,
      "t": 101738.72114583367,
      "d": 102.27281249999942,
      "v": 41
    },
    {
      "midi": 76,
      "hit": false,
      "t": 101738.72114583367,
      "d": 102.27281249999942,
      "v": 41
    },
    {
      "midi": 64,
      "hit": false,
      "t": 101875.08489583367,
      "d": 102.27281249999942,
      "v": 41
    },
    {
      "midi": 76,
      "hit": false,
      "t": 101875.08489583367,
      "d": 102.27281249999942,
      "v": 41
    },
    {
      "midi": 46,
      "hit": false,
      "t": 102000.08500000056,
      "d": 272.7274999999936,
      "v": 93
    },
    {
      "midi": 45,
      "hit": false,
      "t": 102000.08500000137,
      "d": 250.00020833333838,
      "v": 76
    },
    {
      "midi": 61,
      "hit": false,
      "t": 102000.08500000137,
      "d": 250.00020833333838,
      "v": 68
    },
    {
      "midi": 64,
      "hit": false,
      "t": 102000.08500000137,
      "d": 250.00020833333838,
      "v": 68
    },
    {
      "midi": 69,
      "hit": false,
      "t": 102000.08500000137,
      "d": 250.00020833333838,
      "v": 68
    },
    {
      "midi": 45,
      "hit": false,
      "t": 102000.08500000139,
      "d": 250.00020833333838,
      "v": 44
    },
    {
      "midi": 61,
      "hit": false,
      "t": 102000.08500000139,
      "d": 250.00020833333838,
      "v": 74
    },
    {
      "midi": 64,
      "hit": false,
      "t": 102000.08500000139,
      "d": 250.00020833333838,
      "v": 74
    },
    {
      "midi": 69,
      "hit": false,
      "t": 102000.08500000139,
      "d": 250.00020833333838,
      "v": 74
    },
    {
      "midi": 64,
      "hit": false,
      "t": 102011.44864583368,
      "d": 102.27281249999942,
      "v": 74
    },
    {
      "midi": 76,
      "hit": false,
      "t": 102011.44864583368,
      "d": 102.27281249999942,
      "v": 74
    },
    {
      "midi": 64,
      "hit": false,
      "t": 102147.81239583368,
      "d": 102.27281249999942,
      "v": 47
    },
    {
      "midi": 76,
      "hit": false,
      "t": 102147.81239583368,
      "d": 102.27281249999942,
      "v": 47
    },
    {
      "midi": 47,
      "hit": false,
      "t": 102272.81250000055,
      "d": 261.36385416667326,
      "v": 93
    },
    {
      "midi": 61,
      "hit": false,
      "t": 102272.81250000138,
      "d": 136.36375000000407,
      "v": 68
    },
    {
      "midi": 64,
      "hit": false,
      "t": 102272.81250000138,
      "d": 136.36375000000407,
      "v": 68
    },
    {
      "midi": 69,
      "hit": false,
      "t": 102272.81250000138,
      "d": 250.00020833333838,
      "v": 68
    },
    {
      "midi": 61,
      "hit": false,
      "t": 102272.8125000014,
      "d": 136.36375000000407,
      "v": 74
    },
    {
      "midi": 64,
      "hit": false,
      "t": 102272.8125000014,
      "d": 136.36375000000407,
      "v": 74
    },
    {
      "midi": 69,
      "hit": false,
      "t": 102272.8125000014,
      "d": 250.00020833333838,
      "v": 74
    },
    {
      "midi": 64,
      "hit": false,
      "t": 102284.17614583368,
      "d": 102.27281249999942,
      "v": 47
    },
    {
      "midi": 76,
      "hit": false,
      "t": 102284.17614583368,
      "d": 102.27281249999942,
      "v": 47
    },
    {
      "midi": 57,
      "hit": false,
      "t": 102409.17625000139,
      "d": 22.72729166666977,
      "v": 68
    },
    {
      "midi": 61,
      "hit": false,
      "t": 102409.17625000139,
      "d": 22.72729166666977,
      "v": 68
    },
    {
      "midi": 64,
      "hit": false,
      "t": 102409.17625000139,
      "d": 22.72729166666977,
      "v": 68
    },
    {
      "midi": 57,
      "hit": false,
      "t": 102409.1762500014,
      "d": 22.72729166666977,
      "v": 74
    },
    {
      "midi": 61,
      "hit": false,
      "t": 102409.1762500014,
      "d": 22.72729166666977,
      "v": 74
    },
    {
      "midi": 64,
      "hit": false,
      "t": 102409.1762500014,
      "d": 22.72729166666977,
      "v": 74
    },
    {
      "midi": 64,
      "hit": false,
      "t": 102420.53989583369,
      "d": 102.27281249999942,
      "v": 47
    },
    {
      "midi": 76,
      "hit": false,
      "t": 102420.53989583369,
      "d": 102.27281249999942,
      "v": 47
    },
    {
      "midi": 40,
      "hit": false,
      "t": 102545.54000000056,
      "d": 568.1822916666715,
      "v": 93
    },
    {
      "midi": 54,
      "hit": false,
      "t": 102545.54000000139,
      "d": 90.90916666666453,
      "v": 63
    },
    {
      "midi": 59,
      "hit": false,
      "t": 102545.54000000139,
      "d": 136.36375000000407,
      "v": 67
    },
    {
      "midi": 64,
      "hit": false,
      "t": 102545.54000000139,
      "d": 136.36375000000407,
      "v": 67
    },
    {
      "midi": 40,
      "hit": false,
      "t": 102545.54000000139,
      "d": 670.4551041666855,
      "v": 76
    },
    {
      "midi": 54,
      "hit": false,
      "t": 102545.5400000014,
      "d": 90.90916666666453,
      "v": 74
    },
    {
      "midi": 59,
      "hit": false,
      "t": 102545.5400000014,
      "d": 136.36375000000407,
      "v": 73
    },
    {
      "midi": 64,
      "hit": false,
      "t": 102545.5400000014,
      "d": 136.36375000000407,
      "v": 73
    },
    {
      "midi": 40,
      "hit": false,
      "t": 102545.5400000014,
      "d": 670.4551041666855,
      "v": 44
    },
    {
      "midi": 64,
      "hit": false,
      "t": 102556.90364583369,
      "d": 102.27281249999942,
      "v": 76
    },
    {
      "midi": 76,
      "hit": false,
      "t": 102556.90364583369,
      "d": 102.27281249999942,
      "v": 76
    },
    {
      "midi": 68,
      "hit": false,
      "t": 102556.90364583473,
      "d": 261.36385416667326,
      "v": 30
    },
    {
      "midi": 68,
      "hit": false,
      "t": 102556.90364583474,
      "d": 261.36385416667326,
      "v": 44
    },
    {
      "midi": 59,
      "hit": false,
      "t": 102681.9037500014,
      "d": 22.72729166666977,
      "v": 64
    },
    {
      "midi": 64,
      "hit": false,
      "t": 102681.9037500014,
      "d": 22.72729166666977,
      "v": 46
    },
    {
      "midi": 56,
      "hit": false,
      "t": 102681.9037500014,
      "d": 386.36395833334245,
      "v": 30
    },
    {
      "midi": 59,
      "hit": false,
      "t": 102681.90375000141,
      "d": 22.72729166666977,
      "v": 70
    },
    {
      "midi": 64,
      "hit": false,
      "t": 102681.90375000141,
      "d": 22.72729166666977,
      "v": 52
    },
    {
      "midi": 56,
      "hit": false,
      "t": 102681.90375000141,
      "d": 386.36395833334245,
      "v": 44
    },
    {
      "midi": 64,
      "hit": false,
      "t": 102693.2673958337,
      "d": 102.27281249999942,
      "v": 41
    },
    {
      "midi": 76,
      "hit": false,
      "t": 102693.2673958337,
      "d": 102.27281249999942,
      "v": 41
    },
    {
      "midi": 59,
      "hit": false,
      "t": 102818.2675000014,
      "d": 22.72729166666977,
      "v": 46
    },
    {
      "midi": 64,
      "hit": false,
      "t": 102818.2675000014,
      "d": 22.72729166666977,
      "v": 46
    },
    {
      "midi": 59,
      "hit": false,
      "t": 102818.26750000141,
      "d": 22.72729166666977,
      "v": 52
    },
    {
      "midi": 64,
      "hit": false,
      "t": 102818.26750000141,
      "d": 22.72729166666977,
      "v": 52
    },
    {
      "midi": 64,
      "hit": false,
      "t": 102829.6311458337,
      "d": 102.27281249999942,
      "v": 41
    },
    {
      "midi": 76,
      "hit": false,
      "t": 102829.6311458337,
      "d": 102.27281249999942,
      "v": 41
    },
    {
      "midi": 59,
      "hit": false,
      "t": 102954.6312500014,
      "d": 90.90916666666453,
      "v": 47
    },
    {
      "midi": 64,
      "hit": false,
      "t": 102954.6312500014,
      "d": 90.90916666666453,
      "v": 67
    },
    {
      "midi": 68,
      "hit": false,
      "t": 102954.6312500014,
      "d": 113.6364583333343,
      "v": 30
    },
    {
      "midi": 59,
      "hit": false,
      "t": 102954.63125000142,
      "d": 90.90916666666453,
      "v": 53
    },
    {
      "midi": 64,
      "hit": false,
      "t": 102954.63125000142,
      "d": 90.90916666666453,
      "v": 73
    },
    {
      "midi": 68,
      "hit": false,
      "t": 102954.63125000142,
      "d": 113.6364583333343,
      "v": 44
    },
    {
      "midi": 64,
      "hit": false,
      "t": 102965.9948958337,
      "d": 102.27281249999942,
      "v": 41
    },
    {
      "midi": 76,
      "hit": false,
      "t": 102965.9948958337,
      "d": 102.27281249999942,
      "v": 41
    },
    {
      "midi": 35,
      "hit": false,
      "t": 103090.99500000056,
      "d": 340.9093750000029,
      "v": 93
    },
    {
      "midi": 59,
      "hit": false,
      "t": 103090.9950000014,
      "d": 102.27281249999942,
      "v": 72
    },
    {
      "midi": 64,
      "hit": false,
      "t": 103090.9950000014,
      "d": 102.27281249999942,
      "v": 72
    },
    {
      "midi": 59,
      "hit": false,
      "t": 103090.99500000142,
      "d": 102.27281249999942,
      "v": 74
    },
    {
      "midi": 64,
      "hit": false,
      "t": 103090.99500000142,
      "d": 102.27281249999942,
      "v": 74
    },
    {
      "midi": 64,
      "hit": false,
      "t": 103102.35864583371,
      "d": 102.27281249999942,
      "v": 41
    },
    {
      "midi": 76,
      "hit": false,
      "t": 103102.35864583371,
      "d": 102.27281249999942,
      "v": 41
    },
    {
      "midi": 68,
      "hit": false,
      "t": 103102.35864583474,
      "d": 113.6364583333343,
      "v": 30
    },
    {
      "midi": 68,
      "hit": false,
      "t": 103102.35864583476,
      "d": 113.6364583333343,
      "v": 44
    },
    {
      "midi": 59,
      "hit": false,
      "t": 103227.35875000141,
      "d": 11.363645833334886,
      "v": 30
    },
    {
      "midi": 64,
      "hit": false,
      "t": 103227.35875000141,
      "d": 11.363645833334886,
      "v": 30
    },
    {
      "midi": 68,
      "hit": false,
      "t": 103227.35875000141,
      "d": 34.09093750000466,
      "v": 30
    },
    {
      "midi": 59,
      "hit": false,
      "t": 103227.35875000143,
      "d": 11.363645833334886,
      "v": 44
    },
    {
      "midi": 64,
      "hit": false,
      "t": 103227.35875000143,
      "d": 11.363645833334886,
      "v": 44
    },
    {
      "midi": 68,
      "hit": false,
      "t": 103227.35875000143,
      "d": 34.09093750000466,
      "v": 44
    },
    {
      "midi": 64,
      "hit": false,
      "t": 103238.72239583371,
      "d": 102.27281249999942,
      "v": 41
    },
    {
      "midi": 76,
      "hit": false,
      "t": 103238.72239583371,
      "d": 102.27281249999942,
      "v": 41
    },
    {
      "midi": 68,
      "hit": false,
      "t": 103363.72250000142,
      "d": 261.36385416667326,
      "v": 64
    },
    {
      "midi": 59,
      "hit": false,
      "t": 103363.72250000142,
      "d": 397.72760416667734,
      "v": 64
    },
    {
      "midi": 64,
      "hit": false,
      "t": 103363.72250000142,
      "d": 397.72760416667734,
      "v": 64
    },
    {
      "midi": 56,
      "hit": false,
      "t": 103363.72250000142,
      "d": 534.0913541666814,
      "v": 64
    },
    {
      "midi": 40,
      "hit": false,
      "t": 103363.72250000142,
      "d": 1079.5463541666977,
      "v": 76
    },
    {
      "midi": 68,
      "hit": false,
      "t": 103363.72250000143,
      "d": 261.36385416667326,
      "v": 70
    },
    {
      "midi": 59,
      "hit": false,
      "t": 103363.72250000143,
      "d": 397.72760416667734,
      "v": 70
    },
    {
      "midi": 64,
      "hit": false,
      "t": 103363.72250000143,
      "d": 397.72760416667734,
      "v": 70
    },
    {
      "midi": 56,
      "hit": false,
      "t": 103363.72250000143,
      "d": 534.0913541666814,
      "v": 70
    },
    {
      "midi": 40,
      "hit": false,
      "t": 103363.72250000143,
      "d": 1079.5463541666977,
      "v": 44
    },
    {
      "midi": 64,
      "hit": false,
      "t": 103375.08614583372,
      "d": 102.27281249999942,
      "v": 76
    },
    {
      "midi": 76,
      "hit": false,
      "t": 103375.08614583372,
      "d": 102.27281249999942,
      "v": 76
    },
    {
      "midi": 35,
      "hit": false,
      "t": 103500.08625000056,
      "d": 90.90916666666453,
      "v": 93
    },
    {
      "midi": 64,
      "hit": false,
      "t": 103511.44989583372,
      "d": 102.27281249999942,
      "v": 41
    },
    {
      "midi": 76,
      "hit": false,
      "t": 103511.44989583372,
      "d": 102.27281249999942,
      "v": 41
    },
    {
      "midi": 40,
      "hit": false,
      "t": 103636.45000000056,
      "d": 159.09104166667385,
      "v": 93
    },
    {
      "midi": 64,
      "hit": false,
      "t": 103647.81364583372,
      "d": 102.27281249999942,
      "v": 41
    },
    {
      "midi": 76,
      "hit": false,
      "t": 103647.81364583372,
      "d": 102.27281249999942,
      "v": 41
    },
    {
      "midi": 59,
      "hit": false,
      "t": 103772.81375000143,
      "d": 125.00010416666919,
      "v": 30
    },
    {
      "midi": 64,
      "hit": false,
      "t": 103772.81375000143,
      "d": 125.00010416666919,
      "v": 30
    },
    {
      "midi": 68,
      "hit": false,
      "t": 103772.81375000143,
      "d": 125.00010416666919,
      "v": 30
    },
    {
      "midi": 59,
      "hit": false,
      "t": 103772.81375000144,
      "d": 125.00010416666919,
      "v": 44
    },
    {
      "midi": 64,
      "hit": false,
      "t": 103772.81375000144,
      "d": 125.00010416666919,
      "v": 44
    },
    {
      "midi": 68,
      "hit": false,
      "t": 103772.81375000144,
      "d": 125.00010416666919,
      "v": 44
    },
    {
      "midi": 64,
      "hit": false,
      "t": 103784.17739583373,
      "d": 102.27281249999942,
      "v": 41
    },
    {
      "midi": 76,
      "hit": false,
      "t": 103784.17739583373,
      "d": 102.27281249999942,
      "v": 41
    },
    {
      "midi": 40,
      "hit": false,
      "t": 103909.17750000057,
      "d": 215.90927083333372,
      "v": 93
    },
    {
      "midi": 59,
      "hit": false,
      "t": 103909.17750000143,
      "d": 113.6364583333343,
      "v": 30
    },
    {
      "midi": 64,
      "hit": false,
      "t": 103909.17750000143,
      "d": 113.6364583333343,
      "v": 30
    },
    {
      "midi": 68,
      "hit": false,
      "t": 103909.17750000143,
      "d": 113.6364583333343,
      "v": 30
    },
    {
      "midi": 59,
      "hit": false,
      "t": 103909.17750000145,
      "d": 113.6364583333343,
      "v": 44
    },
    {
      "midi": 64,
      "hit": false,
      "t": 103909.17750000145,
      "d": 113.6364583333343,
      "v": 44
    },
    {
      "midi": 68,
      "hit": false,
      "t": 103909.17750000145,
      "d": 113.6364583333343,
      "v": 44
    },
    {
      "midi": 64,
      "hit": false,
      "t": 103920.54114583373,
      "d": 102.27281249999942,
      "v": 41
    },
    {
      "midi": 76,
      "hit": false,
      "t": 103920.54114583373,
      "d": 102.27281249999942,
      "v": 41
    },
    {
      "midi": 59,
      "hit": false,
      "t": 104045.54125000144,
      "d": 113.6364583333343,
      "v": 59
    },
    {
      "midi": 64,
      "hit": false,
      "t": 104045.54125000144,
      "d": 113.6364583333343,
      "v": 59
    },
    {
      "midi": 68,
      "hit": false,
      "t": 104045.54125000144,
      "d": 113.6364583333343,
      "v": 59
    },
    {
      "midi": 59,
      "hit": false,
      "t": 104045.54125000145,
      "d": 113.6364583333343,
      "v": 65
    },
    {
      "midi": 64,
      "hit": false,
      "t": 104045.54125000145,
      "d": 113.6364583333343,
      "v": 65
    },
    {
      "midi": 68,
      "hit": false,
      "t": 104045.54125000145,
      "d": 113.6364583333343,
      "v": 65
    },
    {
      "midi": 64,
      "hit": false,
      "t": 104056.90489583374,
      "d": 102.27281249999942,
      "v": 41
    },
    {
      "midi": 76,
      "hit": false,
      "t": 104056.90489583374,
      "d": 102.27281249999942,
      "v": 41
    },
    {
      "midi": 35,
      "hit": false,
      "t": 104181.90500000057,
      "d": 329.545729166668,
      "v": 93
    },
    {
      "midi": 64,
      "hit": false,
      "t": 104181.90500000144,
      "d": 11.363645833334886,
      "v": 76
    },
    {
      "midi": 59,
      "hit": false,
      "t": 104181.90500000144,
      "d": 34.09093750000466,
      "v": 76
    },
    {
      "midi": 68,
      "hit": false,
      "t": 104181.90500000144,
      "d": 34.09093750000466,
      "v": 76
    },
    {
      "midi": 64,
      "hit": false,
      "t": 104181.90500000145,
      "d": 11.363645833334886,
      "v": 74
    },
    {
      "midi": 59,
      "hit": false,
      "t": 104181.90500000145,
      "d": 34.09093750000466,
      "v": 74
    },
    {
      "midi": 68,
      "hit": false,
      "t": 104181.90500000145,
      "d": 34.09093750000466,
      "v": 74
    },
    {
      "midi": 64,
      "hit": false,
      "t": 104193.26864583374,
      "d": 102.27281249999942,
      "v": 74
    },
    {
      "midi": 76,
      "hit": false,
      "t": 104193.26864583374,
      "d": 102.27281249999942,
      "v": 74
    },
    {
      "midi": 64,
      "hit": false,
      "t": 104193.26864583477,
      "d": 11.363645833334886,
      "v": 55
    },
    {
      "midi": 64,
      "hit": false,
      "t": 104193.26864583479,
      "d": 11.363645833334886,
      "v": 61
    },
    {
      "midi": 59,
      "hit": false,
      "t": 104318.26875000144,
      "d": 45.45458333333954,
      "v": 30
    },
    {
      "midi": 56,
      "hit": false,
      "t": 104318.26875000144,
      "d": 68.18187500000931,
      "v": 30
    },
    {
      "midi": 59,
      "hit": false,
      "t": 104318.26875000146,
      "d": 45.45458333333954,
      "v": 44
    },
    {
      "midi": 56,
      "hit": false,
      "t": 104318.26875000146,
      "d": 68.18187500000931,
      "v": 44
    },
    {
      "midi": 64,
      "hit": false,
      "t": 104329.63239583375,
      "d": 102.27281249999942,
      "v": 47
    },
    {
      "midi": 76,
      "hit": false,
      "t": 104329.63239583375,
      "d": 102.27281249999942,
      "v": 47
    },
    {
      "midi": 59,
      "hit": false,
      "t": 104454.63250000145,
      "d": 90.90916666666453,
      "v": 53
    },
    {
      "midi": 64,
      "hit": false,
      "t": 104454.63250000145,
      "d": 90.90916666666453,
      "v": 53
    },
    {
      "midi": 56,
      "hit": false,
      "t": 104454.63250000145,
      "d": 136.36375000000407,
      "v": 53
    },
    {
      "midi": 59,
      "hit": false,
      "t": 104454.63250000146,
      "d": 90.90916666666453,
      "v": 59
    },
    {
      "midi": 64,
      "hit": false,
      "t": 104454.63250000146,
      "d": 90.90916666666453,
      "v": 59
    },
    {
      "midi": 56,
      "hit": false,
      "t": 104454.63250000146,
      "d": 136.36375000000407,
      "v": 59
    },
    {
      "midi": 64,
      "hit": false,
      "t": 104465.99614583375,
      "d": 102.27281249999942,
      "v": 47
    },
    {
      "midi": 76,
      "hit": false,
      "t": 104465.99614583375,
      "d": 102.27281249999942,
      "v": 47
    },
    {
      "midi": 35,
      "hit": false,
      "t": 104590.99625000056,
      "d": 90.90916666666453,
      "v": 93
    },
    {
      "midi": 59,
      "hit": false,
      "t": 104590.99625000145,
      "d": 90.90916666666453,
      "v": 30
    },
    {
      "midi": 64,
      "hit": false,
      "t": 104590.99625000145,
      "d": 90.90916666666453,
      "v": 30
    },
    {
      "midi": 56,
      "hit": false,
      "t": 104590.99625000145,
      "d": 136.36375000000407,
      "v": 30
    },
    {
      "midi": 59,
      "hit": false,
      "t": 104590.99625000147,
      "d": 90.90916666666453,
      "v": 44
    },
    {
      "midi": 64,
      "hit": false,
      "t": 104590.99625000147,
      "d": 90.90916666666453,
      "v": 44
    },
    {
      "midi": 56,
      "hit": false,
      "t": 104590.99625000147,
      "d": 136.36375000000407,
      "v": 44
    },
    {
      "midi": 64,
      "hit": false,
      "t": 104602.35989583375,
      "d": 102.27281249999942,
      "v": 47
    },
    {
      "midi": 76,
      "hit": false,
      "t": 104602.35989583375,
      "d": 102.27281249999942,
      "v": 47
    },
    {
      "midi": 40,
      "hit": false,
      "t": 104727.36000000057,
      "d": 522.727708333332,
      "v": 93
    },
    {
      "midi": 59,
      "hit": false,
      "t": 104727.36000000146,
      "d": 136.36375000000407,
      "v": 67
    },
    {
      "midi": 64,
      "hit": false,
      "t": 104727.36000000146,
      "d": 136.36375000000407,
      "v": 67
    },
    {
      "midi": 54,
      "hit": false,
      "t": 104727.36000000146,
      "d": 181.81833333334362,
      "v": 57
    },
    {
      "midi": 68,
      "hit": false,
      "t": 104727.36000000146,
      "d": 250.00020833333838,
      "v": 67
    },
    {
      "midi": 40,
      "hit": false,
      "t": 104727.36000000146,
      "d": 659.091458333336,
      "v": 76
    },
    {
      "midi": 59,
      "hit": false,
      "t": 104727.36000000147,
      "d": 136.36375000000407,
      "v": 73
    },
    {
      "midi": 64,
      "hit": false,
      "t": 104727.36000000147,
      "d": 136.36375000000407,
      "v": 73
    },
    {
      "midi": 54,
      "hit": false,
      "t": 104727.36000000147,
      "d": 181.81833333334362,
      "v": 74
    },
    {
      "midi": 68,
      "hit": false,
      "t": 104727.36000000147,
      "d": 250.00020833333838,
      "v": 73
    },
    {
      "midi": 40,
      "hit": false,
      "t": 104727.36000000147,
      "d": 522.727708333332,
      "v": 44
    },
    {
      "midi": 64,
      "hit": false,
      "t": 104738.72364583376,
      "d": 102.27281249999942,
      "v": 76
    },
    {
      "midi": 76,
      "hit": false,
      "t": 104738.72364583376,
      "d": 102.27281249999942,
      "v": 76
    },
    {
      "midi": 59,
      "hit": false,
      "t": 104863.72375000146,
      "d": 22.72729166666977,
      "v": 46
    },
    {
      "midi": 64,
      "hit": false,
      "t": 104863.72375000146,
      "d": 22.72729166666977,
      "v": 46
    },
    {
      "midi": 56,
      "hit": false,
      "t": 104863.72375000146,
      "d": 386.3639583333279,
      "v": 30
    },
    {
      "midi": 59,
      "hit": false,
      "t": 104863.72375000147,
      "d": 22.72729166666977,
      "v": 52
    },
    {
      "midi": 64,
      "hit": false,
      "t": 104863.72375000147,
      "d": 22.72729166666977,
      "v": 52
    },
    {
      "midi": 56,
      "hit": false,
      "t": 104863.72375000147,
      "d": 386.3639583333279,
      "v": 44
    },
    {
      "midi": 64,
      "hit": false,
      "t": 104875.08739583376,
      "d": 102.27281249999942,
      "v": 41
    },
    {
      "midi": 76,
      "hit": false,
      "t": 104875.08739583376,
      "d": 102.27281249999942,
      "v": 41
    },
    {
      "midi": 59,
      "hit": false,
      "t": 105000.08750000146,
      "d": 79.54552083332965,
      "v": 46
    },
    {
      "midi": 64,
      "hit": false,
      "t": 105000.08750000146,
      "d": 79.54552083332965,
      "v": 46
    },
    {
      "midi": 68,
      "hit": false,
      "t": 105000.08750000146,
      "d": 79.54552083332965,
      "v": 46
    },
    {
      "midi": 59,
      "hit": false,
      "t": 105000.08750000148,
      "d": 79.54552083332965,
      "v": 52
    },
    {
      "midi": 64,
      "hit": false,
      "t": 105000.08750000148,
      "d": 79.54552083332965,
      "v": 52
    },
    {
      "midi": 68,
      "hit": false,
      "t": 105000.08750000148,
      "d": 79.54552083332965,
      "v": 52
    },
    {
      "midi": 64,
      "hit": false,
      "t": 105011.45114583377,
      "d": 102.27281249999942,
      "v": 41
    },
    {
      "midi": 76,
      "hit": false,
      "t": 105011.45114583377,
      "d": 102.27281249999942,
      "v": 41
    },
    {
      "midi": 59,
      "hit": false,
      "t": 105136.45125000145,
      "d": 68.18187499999476,
      "v": 67
    },
    {
      "midi": 64,
      "hit": false,
      "t": 105136.45125000145,
      "d": 68.18187499999476,
      "v": 67
    },
    {
      "midi": 68,
      "hit": false,
      "t": 105136.45125000145,
      "d": 68.18187499999476,
      "v": 67
    },
    {
      "midi": 59,
      "hit": false,
      "t": 105136.45125000147,
      "d": 68.18187499999476,
      "v": 73
    },
    {
      "midi": 64,
      "hit": false,
      "t": 105136.45125000147,
      "d": 68.18187499999476,
      "v": 73
    },
    {
      "midi": 68,
      "hit": false,
      "t": 105136.45125000147,
      "d": 68.18187499999476,
      "v": 73
    },
    {
      "midi": 64,
      "hit": false,
      "t": 105147.81489583377,
      "d": 102.27281249999942,
      "v": 41
    },
    {
      "midi": 76,
      "hit": false,
      "t": 105147.81489583377,
      "d": 102.27281249999942,
      "v": 41
    },
    {
      "midi": 35,
      "hit": false,
      "t": 105272.81500000057,
      "d": 363.6366666666727,
      "v": 93
    },
    {
      "midi": 56,
      "hit": false,
      "t": 105272.81500000146,
      "d": 113.6364583333343,
      "v": 46
    },
    {
      "midi": 59,
      "hit": false,
      "t": 105272.81500000146,
      "d": 113.6364583333343,
      "v": 59
    },
    {
      "midi": 64,
      "hit": false,
      "t": 105272.81500000146,
      "d": 113.6364583333343,
      "v": 59
    },
    {
      "midi": 68,
      "hit": false,
      "t": 105272.81500000146,
      "d": 113.6364583333343,
      "v": 59
    },
    {
      "midi": 56,
      "hit": false,
      "t": 105272.81500000147,
      "d": 113.6364583333343,
      "v": 52
    },
    {
      "midi": 59,
      "hit": false,
      "t": 105272.81500000147,
      "d": 113.6364583333343,
      "v": 65
    },
    {
      "midi": 64,
      "hit": false,
      "t": 105272.81500000147,
      "d": 113.6364583333343,
      "v": 65
    },
    {
      "midi": 68,
      "hit": false,
      "t": 105272.81500000147,
      "d": 113.6364583333343,
      "v": 65
    },
    {
      "midi": 64,
      "hit": false,
      "t": 105284.17864583377,
      "d": 102.27281249999942,
      "v": 41
    },
    {
      "midi": 76,
      "hit": false,
      "t": 105284.17864583377,
      "d": 102.27281249999942,
      "v": 41
    },
    {
      "midi": 64,
      "hit": false,
      "t": 105420.54239583378,
      "d": 102.27281249999942,
      "v": 41
    },
    {
      "midi": 76,
      "hit": false,
      "t": 105420.54239583378,
      "d": 102.27281249999942,
      "v": 41
    },
    {
      "midi": 68,
      "hit": false,
      "t": 105545.54250000147,
      "d": 136.36375000000407,
      "v": 67
    },
    {
      "midi": 59,
      "hit": false,
      "t": 105545.54250000147,
      "d": 159.09104166667385,
      "v": 76
    },
    {
      "midi": 64,
      "hit": false,
      "t": 105545.54250000147,
      "d": 250.00020833333838,
      "v": 67
    },
    {
      "midi": 45,
      "hit": false,
      "t": 105545.54250000147,
      "d": 670.4551041666855,
      "v": 76
    },
    {
      "midi": 68,
      "hit": false,
      "t": 105545.54250000148,
      "d": 136.36375000000407,
      "v": 73
    },
    {
      "midi": 59,
      "hit": false,
      "t": 105545.54250000148,
      "d": 159.09104166667385,
      "v": 74
    },
    {
      "midi": 64,
      "hit": false,
      "t": 105545.54250000148,
      "d": 250.00020833333838,
      "v": 73
    },
    {
      "midi": 45,
      "hit": false,
      "t": 105545.54250000148,
      "d": 670.4551041666855,
      "v": 44
    },
    {
      "midi": 64,
      "hit": false,
      "t": 105556.90614583378,
      "d": 102.27281249999942,
      "v": 76
    },
    {
      "midi": 76,
      "hit": false,
      "t": 105556.90614583378,
      "d": 102.27281249999942,
      "v": 76
    },
    {
      "midi": 35,
      "hit": false,
      "t": 105681.90625000058,
      "d": 68.18187499999476,
      "v": 93
    },
    {
      "midi": 61,
      "hit": false,
      "t": 105681.90625000147,
      "d": 113.6364583333343,
      "v": 30
    },
    {
      "midi": 69,
      "hit": false,
      "t": 105681.90625000147,
      "d": 113.6364583333343,
      "v": 30
    },
    {
      "midi": 61,
      "hit": false,
      "t": 105681.90625000148,
      "d": 113.6364583333343,
      "v": 44
    },
    {
      "midi": 69,
      "hit": false,
      "t": 105681.90625000148,
      "d": 113.6364583333343,
      "v": 44
    },
    {
      "midi": 64,
      "hit": false,
      "t": 105693.26989583379,
      "d": 102.27281249999942,
      "v": 41
    },
    {
      "midi": 76,
      "hit": false,
      "t": 105693.26989583379,
      "d": 102.27281249999942,
      "v": 41
    },
    {
      "midi": 40,
      "hit": false,
      "t": 105818.27000000057,
      "d": 147.72739583333896,
      "v": 93
    },
    {
      "midi": 61,
      "hit": false,
      "t": 105818.27000000147,
      "d": 113.6364583333343,
      "v": 30
    },
    {
      "midi": 64,
      "hit": false,
      "t": 105818.27000000147,
      "d": 113.6364583333343,
      "v": 30
    },
    {
      "midi": 69,
      "hit": false,
      "t": 105818.27000000147,
      "d": 113.6364583333343,
      "v": 30
    },
    {
      "midi": 61,
      "hit": false,
      "t": 105818.27000000149,
      "d": 113.6364583333343,
      "v": 44
    },
    {
      "midi": 64,
      "hit": false,
      "t": 105818.27000000149,
      "d": 113.6364583333343,
      "v": 44
    },
    {
      "midi": 69,
      "hit": false,
      "t": 105818.27000000149,
      "d": 113.6364583333343,
      "v": 44
    },
    {
      "midi": 64,
      "hit": false,
      "t": 105829.63364583379,
      "d": 102.27281249999942,
      "v": 41
    },
    {
      "midi": 76,
      "hit": false,
      "t": 105829.63364583379,
      "d": 102.27281249999942,
      "v": 41
    },
    {
      "midi": 64,
      "hit": false,
      "t": 105954.63375000148,
      "d": 113.6364583333343,
      "v": 76
    },
    {
      "midi": 69,
      "hit": false,
      "t": 105954.63375000148,
      "d": 113.6364583333343,
      "v": 76
    },
    {
      "midi": 61,
      "hit": false,
      "t": 105954.63375000148,
      "d": 238.6365625000035,
      "v": 76
    },
    {
      "midi": 64,
      "hit": false,
      "t": 105954.63375000149,
      "d": 113.6364583333343,
      "v": 74
    },
    {
      "midi": 69,
      "hit": false,
      "t": 105954.63375000149,
      "d": 113.6364583333343,
      "v": 74
    },
    {
      "midi": 61,
      "hit": false,
      "t": 105954.63375000149,
      "d": 238.6365625000035,
      "v": 74
    },
    {
      "midi": 64,
      "hit": false,
      "t": 105965.9973958338,
      "d": 102.27281249999942,
      "v": 41
    },
    {
      "midi": 76,
      "hit": false,
      "t": 105965.9973958338,
      "d": 102.27281249999942,
      "v": 41
    },
    {
      "midi": 40,
      "hit": false,
      "t": 106090.99750000058,
      "d": 318.18208333333314,
      "v": 93
    },
    {
      "midi": 64,
      "hit": false,
      "t": 106090.99750000148,
      "d": 102.27281249999942,
      "v": 46
    },
    {
      "midi": 69,
      "hit": false,
      "t": 106090.99750000148,
      "d": 102.27281249999942,
      "v": 46
    },
    {
      "midi": 64,
      "hit": false,
      "t": 106090.9975000015,
      "d": 102.27281249999942,
      "v": 52
    },
    {
      "midi": 69,
      "hit": false,
      "t": 106090.9975000015,
      "d": 102.27281249999942,
      "v": 52
    },
    {
      "midi": 64,
      "hit": false,
      "t": 106102.3611458338,
      "d": 102.27281249999942,
      "v": 41
    },
    {
      "midi": 76,
      "hit": false,
      "t": 106102.3611458338,
      "d": 102.27281249999942,
      "v": 41
    },
    {
      "midi": 61,
      "hit": false,
      "t": 106227.36125000149,
      "d": 113.6364583333343,
      "v": 46
    },
    {
      "midi": 64,
      "hit": false,
      "t": 106227.36125000149,
      "d": 113.6364583333343,
      "v": 46
    },
    {
      "midi": 69,
      "hit": false,
      "t": 106227.36125000149,
      "d": 113.6364583333343,
      "v": 46
    },
    {
      "midi": 61,
      "hit": false,
      "t": 106227.3612500015,
      "d": 113.6364583333343,
      "v": 52
    },
    {
      "midi": 64,
      "hit": false,
      "t": 106227.3612500015,
      "d": 113.6364583333343,
      "v": 52
    },
    {
      "midi": 69,
      "hit": false,
      "t": 106227.3612500015,
      "d": 113.6364583333343,
      "v": 52
    },
    {
      "midi": 64,
      "hit": false,
      "t": 106238.7248958338,
      "d": 102.27281249999942,
      "v": 41
    },
    {
      "midi": 76,
      "hit": false,
      "t": 106238.7248958338,
      "d": 102.27281249999942,
      "v": 41
    },
    {
      "midi": 35,
      "hit": false,
      "t": 106363.72500000057,
      "d": 204.5456250000134,
      "v": 93
    },
    {
      "midi": 61,
      "hit": false,
      "t": 106363.72500000149,
      "d": 136.36375000000407,
      "v": 76
    },
    {
      "midi": 69,
      "hit": false,
      "t": 106363.72500000149,
      "d": 136.36375000000407,
      "v": 76
    },
    {
      "midi": 64,
      "hit": false,
      "t": 106363.72500000149,
      "d": 181.81833333334362,
      "v": 76
    },
    {
      "midi": 45,
      "hit": false,
      "t": 106363.7250000015,
      "d": 125.00010416666919,
      "v": 44
    },
    {
      "midi": 61,
      "hit": false,
      "t": 106363.7250000015,
      "d": 125.00010416666919,
      "v": 74
    },
    {
      "midi": 69,
      "hit": false,
      "t": 106363.7250000015,
      "d": 125.00010416666919,
      "v": 74
    },
    {
      "midi": 64,
      "hit": false,
      "t": 106363.7250000015,
      "d": 181.81833333334362,
      "v": 74
    },
    {
      "midi": 64,
      "hit": false,
      "t": 106375.0886458338,
      "d": 102.27281249999942,
      "v": 74
    },
    {
      "midi": 76,
      "hit": false,
      "t": 106375.0886458338,
      "d": 102.27281249999942,
      "v": 74
    },
    {
      "midi": 59,
      "hit": false,
      "t": 106500.0887500015,
      "d": 113.6364583333343,
      "v": 67
    },
    {
      "midi": 68,
      "hit": false,
      "t": 106500.0887500015,
      "d": 113.6364583333343,
      "v": 67
    },
    {
      "midi": 59,
      "hit": false,
      "t": 106500.08875000151,
      "d": 113.6364583333343,
      "v": 73
    },
    {
      "midi": 68,
      "hit": false,
      "t": 106500.08875000151,
      "d": 113.6364583333343,
      "v": 73
    },
    {
      "midi": 64,
      "hit": false,
      "t": 106511.45239583381,
      "d": 102.27281249999942,
      "v": 47
    },
    {
      "midi": 76,
      "hit": false,
      "t": 106511.45239583381,
      "d": 102.27281249999942,
      "v": 47
    },
    {
      "midi": 35,
      "hit": false,
      "t": 106636.45250000058,
      "d": 22.72729166666977,
      "v": 93
    },
    {
      "midi": 59,
      "hit": false,
      "t": 106636.4525000015,
      "d": 22.72729166666977,
      "v": 67
    },
    {
      "midi": 64,
      "hit": false,
      "t": 106636.4525000015,
      "d": 22.72729166666977,
      "v": 67
    },
    {
      "midi": 59,
      "hit": false,
      "t": 106636.45250000151,
      "d": 22.72729166666977,
      "v": 73
    },
    {
      "midi": 64,
      "hit": false,
      "t": 106636.45250000151,
      "d": 22.72729166666977,
      "v": 73
    },
    {
      "midi": 64,
      "hit": false,
      "t": 106647.81614583381,
      "d": 102.27281249999942,
      "v": 47
    },
    {
      "midi": 76,
      "hit": false,
      "t": 106647.81614583381,
      "d": 102.27281249999942,
      "v": 47
    },
    {
      "midi": 35,
      "hit": false,
      "t": 106772.81625000059,
      "d": 56.818229166659876,
      "v": 93
    },
    {
      "midi": 59,
      "hit": false,
      "t": 106772.8162500015,
      "d": 22.72729166666977,
      "v": 46
    },
    {
      "midi": 64,
      "hit": false,
      "t": 106772.8162500015,
      "d": 22.72729166666977,
      "v": 46
    },
    {
      "midi": 59,
      "hit": false,
      "t": 106772.81625000152,
      "d": 22.72729166666977,
      "v": 52
    },
    {
      "midi": 64,
      "hit": false,
      "t": 106772.81625000152,
      "d": 22.72729166666977,
      "v": 52
    },
    {
      "midi": 64,
      "hit": false,
      "t": 106784.17989583382,
      "d": 102.27281249999942,
      "v": 47
    },
    {
      "midi": 76,
      "hit": false,
      "t": 106784.17989583382,
      "d": 102.27281249999942,
      "v": 47
    },
    {
      "midi": 40,
      "hit": false,
      "t": 106909.18000000058,
      "d": 545.4550000000017,
      "v": 93
    },
    {
      "midi": 54,
      "hit": false,
      "t": 106909.1800000015,
      "d": 90.90916666666453,
      "v": 63
    },
    {
      "midi": 59,
      "hit": false,
      "t": 106909.1800000015,
      "d": 136.36375000000407,
      "v": 67
    },
    {
      "midi": 64,
      "hit": false,
      "t": 106909.1800000015,
      "d": 136.36375000000407,
      "v": 67
    },
    {
      "midi": 40,
      "hit": false,
      "t": 106909.1800000015,
      "d": 670.4551041666855,
      "v": 76
    },
    {
      "midi": 54,
      "hit": false,
      "t": 106909.18000000152,
      "d": 90.90916666666453,
      "v": 74
    },
    {
      "midi": 59,
      "hit": false,
      "t": 106909.18000000152,
      "d": 136.36375000000407,
      "v": 73
    },
    {
      "midi": 64,
      "hit": false,
      "t": 106909.18000000152,
      "d": 136.36375000000407,
      "v": 73
    },
    {
      "midi": 40,
      "hit": false,
      "t": 106909.18000000152,
      "d": 670.4551041666855,
      "v": 44
    },
    {
      "midi": 64,
      "hit": false,
      "t": 106920.54364583382,
      "d": 102.27281249999942,
      "v": 76
    },
    {
      "midi": 76,
      "hit": false,
      "t": 106920.54364583382,
      "d": 102.27281249999942,
      "v": 76
    },
    {
      "midi": 68,
      "hit": false,
      "t": 106920.54364583484,
      "d": 261.36385416667326,
      "v": 30
    },
    {
      "midi": 68,
      "hit": false,
      "t": 106920.54364583486,
      "d": 261.36385416667326,
      "v": 44
    },
    {
      "midi": 59,
      "hit": false,
      "t": 107045.54375000151,
      "d": 22.72729166666977,
      "v": 64
    },
    {
      "midi": 64,
      "hit": false,
      "t": 107045.54375000151,
      "d": 22.72729166666977,
      "v": 46
    },
    {
      "midi": 56,
      "hit": false,
      "t": 107045.54375000151,
      "d": 386.36395833334245,
      "v": 30
    },
    {
      "midi": 59,
      "hit": false,
      "t": 107045.54375000153,
      "d": 22.72729166666977,
      "v": 70
    },
    {
      "midi": 64,
      "hit": false,
      "t": 107045.54375000153,
      "d": 22.72729166666977,
      "v": 52
    },
    {
      "midi": 56,
      "hit": false,
      "t": 107045.54375000153,
      "d": 386.36395833334245,
      "v": 44
    },
    {
      "midi": 64,
      "hit": false,
      "t": 107056.90739583383,
      "d": 102.27281249999942,
      "v": 41
    },
    {
      "midi": 76,
      "hit": false,
      "t": 107056.90739583383,
      "d": 102.27281249999942,
      "v": 41
    },
    {
      "midi": 59,
      "hit": false,
      "t": 107181.90750000151,
      "d": 22.72729166666977,
      "v": 46
    },
    {
      "midi": 64,
      "hit": false,
      "t": 107181.90750000151,
      "d": 22.72729166666977,
      "v": 46
    },
    {
      "midi": 59,
      "hit": false,
      "t": 107181.90750000153,
      "d": 22.72729166666977,
      "v": 52
    },
    {
      "midi": 64,
      "hit": false,
      "t": 107181.90750000153,
      "d": 22.72729166666977,
      "v": 52
    },
    {
      "midi": 64,
      "hit": false,
      "t": 107193.27114583383,
      "d": 102.27281249999942,
      "v": 41
    },
    {
      "midi": 76,
      "hit": false,
      "t": 107193.27114583383,
      "d": 102.27281249999942,
      "v": 41
    },
    {
      "midi": 59,
      "hit": false,
      "t": 107318.27125000152,
      "d": 90.90916666666453,
      "v": 47
    },
    {
      "midi": 64,
      "hit": false,
      "t": 107318.27125000152,
      "d": 90.90916666666453,
      "v": 67
    },
    {
      "midi": 68,
      "hit": false,
      "t": 107318.27125000152,
      "d": 113.6364583333343,
      "v": 30
    },
    {
      "midi": 59,
      "hit": false,
      "t": 107318.27125000153,
      "d": 90.90916666666453,
      "v": 53
    },
    {
      "midi": 64,
      "hit": false,
      "t": 107318.27125000153,
      "d": 90.90916666666453,
      "v": 73
    },
    {
      "midi": 68,
      "hit": false,
      "t": 107318.27125000153,
      "d": 113.6364583333343,
      "v": 44
    },
    {
      "midi": 64,
      "hit": false,
      "t": 107329.63489583383,
      "d": 102.27281249999942,
      "v": 41
    },
    {
      "midi": 76,
      "hit": false,
      "t": 107329.63489583383,
      "d": 102.27281249999942,
      "v": 41
    },
    {
      "midi": 35,
      "hit": false,
      "t": 107454.63500000058,
      "d": 340.9093750000029,
      "v": 93
    },
    {
      "midi": 59,
      "hit": false,
      "t": 107454.63500000152,
      "d": 102.27281249999942,
      "v": 72
    },
    {
      "midi": 64,
      "hit": false,
      "t": 107454.63500000152,
      "d": 102.27281249999942,
      "v": 72
    },
    {
      "midi": 59,
      "hit": false,
      "t": 107454.63500000154,
      "d": 102.27281249999942,
      "v": 74
    },
    {
      "midi": 64,
      "hit": false,
      "t": 107454.63500000154,
      "d": 102.27281249999942,
      "v": 74
    },
    {
      "midi": 64,
      "hit": false,
      "t": 107465.99864583384,
      "d": 102.27281249999942,
      "v": 41
    },
    {
      "midi": 76,
      "hit": false,
      "t": 107465.99864583384,
      "d": 102.27281249999942,
      "v": 41
    },
    {
      "midi": 68,
      "hit": false,
      "t": 107465.99864583486,
      "d": 113.6364583333343,
      "v": 30
    },
    {
      "midi": 68,
      "hit": false,
      "t": 107465.99864583487,
      "d": 113.6364583333343,
      "v": 44
    },
    {
      "midi": 59,
      "hit": false,
      "t": 107590.99875000153,
      "d": 11.363645833334886,
      "v": 30
    },
    {
      "midi": 64,
      "hit": false,
      "t": 107590.99875000153,
      "d": 11.363645833334886,
      "v": 30
    },
    {
      "midi": 68,
      "hit": false,
      "t": 107590.99875000153,
      "d": 34.09093750000466,
      "v": 30
    },
    {
      "midi": 59,
      "hit": false,
      "t": 107590.99875000154,
      "d": 11.363645833334886,
      "v": 44
    },
    {
      "midi": 64,
      "hit": false,
      "t": 107590.99875000154,
      "d": 11.363645833334886,
      "v": 44
    },
    {
      "midi": 68,
      "hit": false,
      "t": 107590.99875000154,
      "d": 34.09093750000466,
      "v": 44
    },
    {
      "midi": 64,
      "hit": false,
      "t": 107602.36239583384,
      "d": 102.27281249999942,
      "v": 41
    },
    {
      "midi": 76,
      "hit": false,
      "t": 107602.36239583384,
      "d": 102.27281249999942,
      "v": 41
    },
    {
      "midi": 68,
      "hit": false,
      "t": 107727.36250000153,
      "d": 261.36385416667326,
      "v": 64
    },
    {
      "midi": 59,
      "hit": false,
      "t": 107727.36250000153,
      "d": 397.72760416667734,
      "v": 64
    },
    {
      "midi": 64,
      "hit": false,
      "t": 107727.36250000153,
      "d": 397.72760416667734,
      "v": 64
    },
    {
      "midi": 56,
      "hit": false,
      "t": 107727.36250000153,
      "d": 534.0913541666814,
      "v": 64
    },
    {
      "midi": 40,
      "hit": false,
      "t": 107727.36250000153,
      "d": 943.1826041666936,
      "v": 76
    },
    {
      "midi": 68,
      "hit": false,
      "t": 107727.36250000155,
      "d": 261.36385416667326,
      "v": 70
    },
    {
      "midi": 59,
      "hit": false,
      "t": 107727.36250000155,
      "d": 397.72760416667734,
      "v": 70
    },
    {
      "midi": 64,
      "hit": false,
      "t": 107727.36250000155,
      "d": 397.72760416667734,
      "v": 70
    },
    {
      "midi": 56,
      "hit": false,
      "t": 107727.36250000155,
      "d": 534.0913541666814,
      "v": 70
    },
    {
      "midi": 40,
      "hit": false,
      "t": 107727.36250000155,
      "d": 1215.9101041667018,
      "v": 44
    },
    {
      "midi": 64,
      "hit": false,
      "t": 107738.72614583385,
      "d": 102.27281249999942,
      "v": 76
    },
    {
      "midi": 76,
      "hit": false,
      "t": 107738.72614583385,
      "d": 102.27281249999942,
      "v": 76
    },
    {
      "midi": 35,
      "hit": false,
      "t": 107863.72625000057,
      "d": 68.18187499999476,
      "v": 93
    },
    {
      "midi": 64,
      "hit": false,
      "t": 107875.08989583385,
      "d": 102.27281249999942,
      "v": 41
    },
    {
      "midi": 76,
      "hit": false,
      "t": 107875.08989583385,
      "d": 102.27281249999942,
      "v": 41
    },
    {
      "midi": 40,
      "hit": false,
      "t": 108000.09000000056,
      "d": 147.72739583333896,
      "v": 93
    },
    {
      "midi": 64,
      "hit": false,
      "t": 108011.45364583386,
      "d": 102.27281249999942,
      "v": 41
    },
    {
      "midi": 76,
      "hit": false,
      "t": 108011.45364583386,
      "d": 102.27281249999942,
      "v": 41
    },
    {
      "midi": 59,
      "hit": false,
      "t": 108136.45375000154,
      "d": 125.00010416666919,
      "v": 30
    },
    {
      "midi": 64,
      "hit": false,
      "t": 108136.45375000154,
      "d": 125.00010416666919,
      "v": 30
    },
    {
      "midi": 68,
      "hit": false,
      "t": 108136.45375000154,
      "d": 125.00010416666919,
      "v": 30
    },
    {
      "midi": 59,
      "hit": false,
      "t": 108136.45375000156,
      "d": 125.00010416666919,
      "v": 44
    },
    {
      "midi": 64,
      "hit": false,
      "t": 108136.45375000156,
      "d": 125.00010416666919,
      "v": 44
    },
    {
      "midi": 68,
      "hit": false,
      "t": 108136.45375000156,
      "d": 125.00010416666919,
      "v": 44
    },
    {
      "midi": 64,
      "hit": false,
      "t": 108147.81739583386,
      "d": 102.27281249999942,
      "v": 41
    },
    {
      "midi": 76,
      "hit": false,
      "t": 108147.81739583386,
      "d": 102.27281249999942,
      "v": 41
    },
    {
      "midi": 40,
      "hit": false,
      "t": 108272.81750000057,
      "d": 272.7274999999936,
      "v": 93
    },
    {
      "midi": 59,
      "hit": false,
      "t": 108272.81750000155,
      "d": 113.6364583333343,
      "v": 30
    },
    {
      "midi": 64,
      "hit": false,
      "t": 108272.81750000155,
      "d": 113.6364583333343,
      "v": 30
    },
    {
      "midi": 68,
      "hit": false,
      "t": 108272.81750000155,
      "d": 113.6364583333343,
      "v": 30
    },
    {
      "midi": 59,
      "hit": false,
      "t": 108272.81750000156,
      "d": 113.6364583333343,
      "v": 44
    },
    {
      "midi": 64,
      "hit": false,
      "t": 108272.81750000156,
      "d": 113.6364583333343,
      "v": 44
    },
    {
      "midi": 68,
      "hit": false,
      "t": 108272.81750000156,
      "d": 113.6364583333343,
      "v": 44
    },
    {
      "midi": 64,
      "hit": false,
      "t": 108284.18114583386,
      "d": 102.27281249999942,
      "v": 41
    },
    {
      "midi": 76,
      "hit": false,
      "t": 108284.18114583386,
      "d": 102.27281249999942,
      "v": 41
    },
    {
      "midi": 59,
      "hit": false,
      "t": 108409.18125000155,
      "d": 113.6364583333343,
      "v": 59
    },
    {
      "midi": 64,
      "hit": false,
      "t": 108409.18125000155,
      "d": 113.6364583333343,
      "v": 59
    },
    {
      "midi": 68,
      "hit": false,
      "t": 108409.18125000155,
      "d": 113.6364583333343,
      "v": 59
    },
    {
      "midi": 59,
      "hit": false,
      "t": 108409.18125000157,
      "d": 113.6364583333343,
      "v": 65
    },
    {
      "midi": 64,
      "hit": false,
      "t": 108409.18125000157,
      "d": 113.6364583333343,
      "v": 65
    },
    {
      "midi": 68,
      "hit": false,
      "t": 108409.18125000157,
      "d": 113.6364583333343,
      "v": 65
    },
    {
      "midi": 64,
      "hit": false,
      "t": 108420.54489583387,
      "d": 102.27281249999942,
      "v": 41
    },
    {
      "midi": 76,
      "hit": false,
      "t": 108420.54489583387,
      "d": 102.27281249999942,
      "v": 41
    },
    {
      "midi": 35,
      "hit": false,
      "t": 108545.54500000057,
      "d": 329.545729166668,
      "v": 93
    },
    {
      "midi": 64,
      "hit": false,
      "t": 108545.54500000156,
      "d": 11.363645833334886,
      "v": 76
    },
    {
      "midi": 59,
      "hit": false,
      "t": 108545.54500000156,
      "d": 34.09093750000466,
      "v": 76
    },
    {
      "midi": 68,
      "hit": false,
      "t": 108545.54500000156,
      "d": 34.09093750000466,
      "v": 76
    },
    {
      "midi": 64,
      "hit": false,
      "t": 108545.54500000157,
      "d": 11.363645833334886,
      "v": 74
    },
    {
      "midi": 59,
      "hit": false,
      "t": 108545.54500000157,
      "d": 34.09093750000466,
      "v": 74
    },
    {
      "midi": 68,
      "hit": false,
      "t": 108545.54500000157,
      "d": 34.09093750000466,
      "v": 74
    },
    {
      "midi": 64,
      "hit": false,
      "t": 108556.90864583387,
      "d": 102.27281249999942,
      "v": 74
    },
    {
      "midi": 76,
      "hit": false,
      "t": 108556.90864583387,
      "d": 102.27281249999942,
      "v": 74
    },
    {
      "midi": 64,
      "hit": false,
      "t": 108556.90864583489,
      "d": 11.363645833334886,
      "v": 55
    },
    {
      "midi": 64,
      "hit": false,
      "t": 108556.9086458349,
      "d": 11.363645833334886,
      "v": 61
    },
    {
      "midi": 59,
      "hit": false,
      "t": 108681.90875000156,
      "d": 45.45458333333954,
      "v": 30
    },
    {
      "midi": 56,
      "hit": false,
      "t": 108681.90875000156,
      "d": 68.18187500000931,
      "v": 30
    },
    {
      "midi": 59,
      "hit": false,
      "t": 108681.90875000157,
      "d": 45.45458333333954,
      "v": 44
    },
    {
      "midi": 56,
      "hit": false,
      "t": 108681.90875000157,
      "d": 68.18187500000931,
      "v": 44
    },
    {
      "midi": 64,
      "hit": false,
      "t": 108693.27239583388,
      "d": 102.27281249999942,
      "v": 47
    },
    {
      "midi": 76,
      "hit": false,
      "t": 108693.27239583388,
      "d": 102.27281249999942,
      "v": 47
    },
    {
      "midi": 59,
      "hit": false,
      "t": 108818.27250000156,
      "d": 90.90916666666453,
      "v": 53
    },
    {
      "midi": 64,
      "hit": false,
      "t": 108818.27250000156,
      "d": 90.90916666666453,
      "v": 53
    },
    {
      "midi": 56,
      "hit": false,
      "t": 108818.27250000156,
      "d": 136.36375000000407,
      "v": 53
    },
    {
      "midi": 59,
      "hit": false,
      "t": 108818.27250000158,
      "d": 90.90916666666453,
      "v": 59
    },
    {
      "midi": 64,
      "hit": false,
      "t": 108818.27250000158,
      "d": 90.90916666666453,
      "v": 59
    },
    {
      "midi": 56,
      "hit": false,
      "t": 108818.27250000158,
      "d": 125.00010416666919,
      "v": 59
    },
    {
      "midi": 64,
      "hit": false,
      "t": 108829.63614583388,
      "d": 102.27281249999942,
      "v": 47
    },
    {
      "midi": 76,
      "hit": false,
      "t": 108829.63614583388,
      "d": 102.27281249999942,
      "v": 47
    },
    {
      "midi": 35,
      "hit": false,
      "t": 108954.63625000056,
      "d": 79.54552083332965,
      "v": 93
    },
    {
      "midi": 59,
      "hit": false,
      "t": 108954.63625000157,
      "d": 90.90916666666453,
      "v": 30
    },
    {
      "midi": 64,
      "hit": false,
      "t": 108954.63625000157,
      "d": 90.90916666666453,
      "v": 30
    },
    {
      "midi": 56,
      "hit": false,
      "t": 108954.63625000157,
      "d": 136.36375000000407,
      "v": 30
    },
    {
      "midi": 56,
      "hit": false,
      "t": 108954.63625000158,
      "d": 90.90916666666453,
      "v": 44
    },
    {
      "midi": 59,
      "hit": false,
      "t": 108954.63625000158,
      "d": 90.90916666666453,
      "v": 44
    },
    {
      "midi": 64,
      "hit": false,
      "t": 108954.63625000158,
      "d": 90.90916666666453,
      "v": 44
    },
    {
      "midi": 64,
      "hit": false,
      "t": 108965.99989583388,
      "d": 102.27281249999942,
      "v": 47
    },
    {
      "midi": 76,
      "hit": false,
      "t": 108965.99989583388,
      "d": 102.27281249999942,
      "v": 47
    },
    {
      "midi": 40,
      "hit": false,
      "t": 109091.00000000055,
      "d": 545.4550000000017,
      "v": 93
    },
    {
      "midi": 59,
      "hit": false,
      "t": 109091.00000000157,
      "d": 136.36375000000407,
      "v": 67
    },
    {
      "midi": 64,
      "hit": false,
      "t": 109091.00000000157,
      "d": 136.36375000000407,
      "v": 67
    },
    {
      "midi": 54,
      "hit": false,
      "t": 109091.00000000157,
      "d": 181.81833333334362,
      "v": 57
    },
    {
      "midi": 68,
      "hit": false,
      "t": 109091.00000000157,
      "d": 250.00020833333838,
      "v": 67
    },
    {
      "midi": 40,
      "hit": false,
      "t": 109091.00000000157,
      "d": 659.091458333336,
      "v": 76
    },
    {
      "midi": 59,
      "hit": false,
      "t": 109091.00000000159,
      "d": 136.36375000000407,
      "v": 73
    },
    {
      "midi": 64,
      "hit": false,
      "t": 109091.00000000159,
      "d": 136.36375000000407,
      "v": 73
    },
    {
      "midi": 54,
      "hit": false,
      "t": 109091.00000000159,
      "d": 181.81833333334362,
      "v": 74
    },
    {
      "midi": 68,
      "hit": false,
      "t": 109091.00000000159,
      "d": 250.00020833333838,
      "v": 73
    },
    {
      "midi": 40,
      "hit": false,
      "t": 109091.00000000159,
      "d": 806.818854166675,
      "v": 44
    },
    {
      "midi": 64,
      "hit": false,
      "t": 109102.36364583389,
      "d": 102.27281249999942,
      "v": 76
    },
    {
      "midi": 76,
      "hit": false,
      "t": 109102.36364583389,
      "d": 102.27281249999942,
      "v": 76
    },
    {
      "midi": 59,
      "hit": false,
      "t": 109227.36375000158,
      "d": 22.72729166666977,
      "v": 46
    },
    {
      "midi": 64,
      "hit": false,
      "t": 109227.36375000158,
      "d": 22.72729166666977,
      "v": 46
    },
    {
      "midi": 56,
      "hit": false,
      "t": 109227.36375000158,
      "d": 386.3639583333279,
      "v": 30
    },
    {
      "midi": 59,
      "hit": false,
      "t": 109227.36375000159,
      "d": 22.72729166666977,
      "v": 52
    },
    {
      "midi": 64,
      "hit": false,
      "t": 109227.36375000159,
      "d": 22.72729166666977,
      "v": 52
    },
    {
      "midi": 56,
      "hit": false,
      "t": 109227.36375000159,
      "d": 386.3639583333279,
      "v": 44
    },
    {
      "midi": 64,
      "hit": false,
      "t": 109238.72739583389,
      "d": 102.27281249999942,
      "v": 41
    },
    {
      "midi": 76,
      "hit": false,
      "t": 109238.72739583389,
      "d": 102.27281249999942,
      "v": 41
    },
    {
      "midi": 59,
      "hit": false,
      "t": 109363.72750000158,
      "d": 79.54552083332965,
      "v": 46
    },
    {
      "midi": 64,
      "hit": false,
      "t": 109363.72750000158,
      "d": 79.54552083332965,
      "v": 46
    },
    {
      "midi": 68,
      "hit": false,
      "t": 109363.72750000158,
      "d": 79.54552083332965,
      "v": 46
    },
    {
      "midi": 59,
      "hit": false,
      "t": 109363.7275000016,
      "d": 79.54552083332965,
      "v": 52
    },
    {
      "midi": 64,
      "hit": false,
      "t": 109363.7275000016,
      "d": 79.54552083332965,
      "v": 52
    },
    {
      "midi": 68,
      "hit": false,
      "t": 109363.7275000016,
      "d": 79.54552083332965,
      "v": 52
    },
    {
      "midi": 64,
      "hit": false,
      "t": 109375.0911458339,
      "d": 102.27281249999942,
      "v": 41
    },
    {
      "midi": 76,
      "hit": false,
      "t": 109375.0911458339,
      "d": 102.27281249999942,
      "v": 41
    },
    {
      "midi": 59,
      "hit": false,
      "t": 109500.09125000157,
      "d": 68.18187499999476,
      "v": 67
    },
    {
      "midi": 64,
      "hit": false,
      "t": 109500.09125000157,
      "d": 68.18187499999476,
      "v": 67
    },
    {
      "midi": 68,
      "hit": false,
      "t": 109500.09125000157,
      "d": 68.18187499999476,
      "v": 67
    },
    {
      "midi": 59,
      "hit": false,
      "t": 109500.09125000158,
      "d": 68.18187499999476,
      "v": 73
    },
    {
      "midi": 64,
      "hit": false,
      "t": 109500.09125000158,
      "d": 68.18187499999476,
      "v": 73
    },
    {
      "midi": 68,
      "hit": false,
      "t": 109500.09125000158,
      "d": 68.18187499999476,
      "v": 73
    },
    {
      "midi": 64,
      "hit": false,
      "t": 109511.4548958339,
      "d": 102.27281249999942,
      "v": 41
    },
    {
      "midi": 76,
      "hit": false,
      "t": 109511.4548958339,
      "d": 102.27281249999942,
      "v": 41
    },
    {
      "midi": 35,
      "hit": false,
      "t": 109636.45500000055,
      "d": 306.81843749999825,
      "v": 93
    },
    {
      "midi": 56,
      "hit": false,
      "t": 109636.45500000157,
      "d": 113.6364583333343,
      "v": 46
    },
    {
      "midi": 59,
      "hit": false,
      "t": 109636.45500000157,
      "d": 113.6364583333343,
      "v": 59
    },
    {
      "midi": 64,
      "hit": false,
      "t": 109636.45500000157,
      "d": 113.6364583333343,
      "v": 59
    },
    {
      "midi": 68,
      "hit": false,
      "t": 109636.45500000157,
      "d": 113.6364583333343,
      "v": 59
    },
    {
      "midi": 56,
      "hit": false,
      "t": 109636.45500000159,
      "d": 113.6364583333343,
      "v": 52
    },
    {
      "midi": 59,
      "hit": false,
      "t": 109636.45500000159,
      "d": 113.6364583333343,
      "v": 65
    },
    {
      "midi": 64,
      "hit": false,
      "t": 109636.45500000159,
      "d": 113.6364583333343,
      "v": 65
    },
    {
      "midi": 68,
      "hit": false,
      "t": 109636.45500000159,
      "d": 113.6364583333343,
      "v": 65
    },
    {
      "midi": 64,
      "hit": false,
      "t": 109647.8186458339,
      "d": 102.27281249999942,
      "v": 41
    },
    {
      "midi": 76,
      "hit": false,
      "t": 109647.8186458339,
      "d": 102.27281249999942,
      "v": 41
    },
    {
      "midi": 64,
      "hit": false,
      "t": 109784.18239583391,
      "d": 102.27281249999942,
      "v": 41
    },
    {
      "midi": 76,
      "hit": false,
      "t": 109784.18239583391,
      "d": 102.27281249999942,
      "v": 41
    },
    {
      "midi": 68,
      "hit": false,
      "t": 109909.18250000158,
      "d": 136.36375000000407,
      "v": 67
    },
    {
      "midi": 59,
      "hit": false,
      "t": 109909.18250000158,
      "d": 159.09104166667385,
      "v": 76
    },
    {
      "midi": 64,
      "hit": false,
      "t": 109909.18250000158,
      "d": 250.00020833333838,
      "v": 67
    },
    {
      "midi": 45,
      "hit": false,
      "t": 109909.18250000158,
      "d": 670.4551041666855,
      "v": 76
    },
    {
      "midi": 68,
      "hit": false,
      "t": 109909.1825000016,
      "d": 136.36375000000407,
      "v": 73
    },
    {
      "midi": 59,
      "hit": false,
      "t": 109909.1825000016,
      "d": 159.09104166667385,
      "v": 74
    },
    {
      "midi": 64,
      "hit": false,
      "t": 109909.1825000016,
      "d": 250.00020833333838,
      "v": 73
    },
    {
      "midi": 45,
      "hit": false,
      "t": 109909.1825000016,
      "d": 1215.9101041667018,
      "v": 44
    },
    {
      "midi": 64,
      "hit": false,
      "t": 109920.54614583391,
      "d": 102.27281249999942,
      "v": 76
    },
    {
      "midi": 76,
      "hit": false,
      "t": 109920.54614583391,
      "d": 102.27281249999942,
      "v": 76
    },
    {
      "midi": 35,
      "hit": false,
      "t": 110045.54625000055,
      "d": 102.27281249999942,
      "v": 93
    },
    {
      "midi": 61,
      "hit": false,
      "t": 110045.54625000159,
      "d": 113.6364583333343,
      "v": 30
    },
    {
      "midi": 69,
      "hit": false,
      "t": 110045.54625000159,
      "d": 113.6364583333343,
      "v": 30
    },
    {
      "midi": 61,
      "hit": false,
      "t": 110045.5462500016,
      "d": 113.6364583333343,
      "v": 44
    },
    {
      "midi": 69,
      "hit": false,
      "t": 110045.5462500016,
      "d": 113.6364583333343,
      "v": 44
    },
    {
      "midi": 64,
      "hit": false,
      "t": 110056.90989583392,
      "d": 102.27281249999942,
      "v": 41
    },
    {
      "midi": 76,
      "hit": false,
      "t": 110056.90989583392,
      "d": 102.27281249999942,
      "v": 41
    },
    {
      "midi": 40,
      "hit": false,
      "t": 110181.91000000056,
      "d": 170.45468749999418,
      "v": 93
    },
    {
      "midi": 61,
      "hit": false,
      "t": 110181.91000000159,
      "d": 113.6364583333343,
      "v": 30
    },
    {
      "midi": 64,
      "hit": false,
      "t": 110181.91000000159,
      "d": 113.6364583333343,
      "v": 30
    },
    {
      "midi": 69,
      "hit": false,
      "t": 110181.91000000159,
      "d": 113.6364583333343,
      "v": 30
    },
    {
      "midi": 61,
      "hit": false,
      "t": 110181.9100000016,
      "d": 113.6364583333343,
      "v": 44
    },
    {
      "midi": 64,
      "hit": false,
      "t": 110181.9100000016,
      "d": 113.6364583333343,
      "v": 44
    },
    {
      "midi": 69,
      "hit": false,
      "t": 110181.9100000016,
      "d": 113.6364583333343,
      "v": 44
    },
    {
      "midi": 64,
      "hit": false,
      "t": 110193.27364583392,
      "d": 102.27281249999942,
      "v": 41
    },
    {
      "midi": 76,
      "hit": false,
      "t": 110193.27364583392,
      "d": 102.27281249999942,
      "v": 41
    },
    {
      "midi": 64,
      "hit": false,
      "t": 110318.2737500016,
      "d": 113.6364583333343,
      "v": 76
    },
    {
      "midi": 69,
      "hit": false,
      "t": 110318.2737500016,
      "d": 113.6364583333343,
      "v": 76
    },
    {
      "midi": 61,
      "hit": false,
      "t": 110318.2737500016,
      "d": 238.6365625000035,
      "v": 76
    },
    {
      "midi": 64,
      "hit": false,
      "t": 110318.27375000161,
      "d": 113.6364583333343,
      "v": 74
    },
    {
      "midi": 69,
      "hit": false,
      "t": 110318.27375000161,
      "d": 113.6364583333343,
      "v": 74
    },
    {
      "midi": 61,
      "hit": false,
      "t": 110318.27375000161,
      "d": 238.6365625000035,
      "v": 74
    },
    {
      "midi": 64,
      "hit": false,
      "t": 110329.63739583392,
      "d": 102.27281249999942,
      "v": 41
    },
    {
      "midi": 76,
      "hit": false,
      "t": 110329.63739583392,
      "d": 102.27281249999942,
      "v": 41
    },
    {
      "midi": 40,
      "hit": false,
      "t": 110454.63750000055,
      "d": 284.0911458333285,
      "v": 93
    },
    {
      "midi": 64,
      "hit": false,
      "t": 110454.6375000016,
      "d": 102.27281249999942,
      "v": 46
    },
    {
      "midi": 69,
      "hit": false,
      "t": 110454.6375000016,
      "d": 102.27281249999942,
      "v": 46
    },
    {
      "midi": 64,
      "hit": false,
      "t": 110454.63750000161,
      "d": 102.27281249999942,
      "v": 52
    },
    {
      "midi": 69,
      "hit": false,
      "t": 110454.63750000161,
      "d": 102.27281249999942,
      "v": 52
    },
    {
      "midi": 64,
      "hit": false,
      "t": 110466.00114583393,
      "d": 102.27281249999942,
      "v": 41
    },
    {
      "midi": 76,
      "hit": false,
      "t": 110466.00114583393,
      "d": 102.27281249999942,
      "v": 41
    },
    {
      "midi": 61,
      "hit": false,
      "t": 110591.0012500016,
      "d": 113.6364583333343,
      "v": 46
    },
    {
      "midi": 64,
      "hit": false,
      "t": 110591.0012500016,
      "d": 113.6364583333343,
      "v": 46
    },
    {
      "midi": 69,
      "hit": false,
      "t": 110591.0012500016,
      "d": 113.6364583333343,
      "v": 46
    },
    {
      "midi": 61,
      "hit": false,
      "t": 110591.00125000162,
      "d": 113.6364583333343,
      "v": 52
    },
    {
      "midi": 64,
      "hit": false,
      "t": 110591.00125000162,
      "d": 113.6364583333343,
      "v": 52
    },
    {
      "midi": 69,
      "hit": false,
      "t": 110591.00125000162,
      "d": 113.6364583333343,
      "v": 52
    },
    {
      "midi": 64,
      "hit": false,
      "t": 110602.36489583393,
      "d": 102.27281249999942,
      "v": 41
    },
    {
      "midi": 76,
      "hit": false,
      "t": 110602.36489583393,
      "d": 102.27281249999942,
      "v": 41
    },
    {
      "midi": 35,
      "hit": false,
      "t": 110727.36500000054,
      "d": 227.2729166666686,
      "v": 93
    },
    {
      "midi": 61,
      "hit": false,
      "t": 110727.3650000016,
      "d": 136.36375000000407,
      "v": 76
    },
    {
      "midi": 69,
      "hit": false,
      "t": 110727.3650000016,
      "d": 136.36375000000407,
      "v": 76
    },
    {
      "midi": 64,
      "hit": false,
      "t": 110727.3650000016,
      "d": 181.81833333334362,
      "v": 76
    },
    {
      "midi": 45,
      "hit": false,
      "t": 110727.3650000016,
      "d": 397.72760416667734,
      "v": 76
    },
    {
      "midi": 61,
      "hit": false,
      "t": 110727.36500000162,
      "d": 136.36375000000407,
      "v": 74
    },
    {
      "midi": 69,
      "hit": false,
      "t": 110727.36500000162,
      "d": 136.36375000000407,
      "v": 74
    },
    {
      "midi": 64,
      "hit": false,
      "t": 110727.36500000162,
      "d": 181.81833333334362,
      "v": 74
    },
    {
      "midi": 64,
      "hit": false,
      "t": 110738.72864583394,
      "d": 102.27281249999942,
      "v": 74
    },
    {
      "midi": 76,
      "hit": false,
      "t": 110738.72864583394,
      "d": 102.27281249999942,
      "v": 74
    },
    {
      "midi": 59,
      "hit": false,
      "t": 110863.72875000161,
      "d": 113.6364583333343,
      "v": 67
    },
    {
      "midi": 68,
      "hit": false,
      "t": 110863.72875000161,
      "d": 113.6364583333343,
      "v": 67
    },
    {
      "midi": 59,
      "hit": false,
      "t": 110863.72875000162,
      "d": 113.6364583333343,
      "v": 73
    },
    {
      "midi": 68,
      "hit": false,
      "t": 110863.72875000162,
      "d": 113.6364583333343,
      "v": 73
    },
    {
      "midi": 64,
      "hit": false,
      "t": 110875.09239583394,
      "d": 102.27281249999942,
      "v": 47
    },
    {
      "midi": 76,
      "hit": false,
      "t": 110875.09239583394,
      "d": 102.27281249999942,
      "v": 47
    },
    {
      "midi": 35,
      "hit": false,
      "t": 111000.09250000055,
      "d": 45.45458333333954,
      "v": 93
    },
    {
      "midi": 59,
      "hit": false,
      "t": 111000.09250000161,
      "d": 22.72729166666977,
      "v": 67
    },
    {
      "midi": 64,
      "hit": false,
      "t": 111000.09250000161,
      "d": 22.72729166666977,
      "v": 67
    },
    {
      "midi": 59,
      "hit": false,
      "t": 111000.09250000163,
      "d": 22.72729166666977,
      "v": 73
    },
    {
      "midi": 64,
      "hit": false,
      "t": 111000.09250000163,
      "d": 22.72729166666977,
      "v": 73
    },
    {
      "midi": 64,
      "hit": false,
      "t": 111011.45614583394,
      "d": 102.27281249999942,
      "v": 47
    },
    {
      "midi": 76,
      "hit": false,
      "t": 111011.45614583394,
      "d": 102.27281249999942,
      "v": 47
    },
    {
      "midi": 35,
      "hit": false,
      "t": 111136.45625000056,
      "d": 79.54552083332965,
      "v": 93
    },
    {
      "midi": 59,
      "hit": false,
      "t": 111136.45625000162,
      "d": 22.72729166666977,
      "v": 46
    },
    {
      "midi": 64,
      "hit": false,
      "t": 111136.45625000162,
      "d": 22.72729166666977,
      "v": 46
    },
    {
      "midi": 59,
      "hit": false,
      "t": 111136.45625000163,
      "d": 22.72729166666977,
      "v": 52
    },
    {
      "midi": 64,
      "hit": false,
      "t": 111136.45625000163,
      "d": 22.72729166666977,
      "v": 52
    },
    {
      "midi": 64,
      "hit": false,
      "t": 111147.81989583395,
      "d": 102.27281249999942,
      "v": 47
    },
    {
      "midi": 76,
      "hit": false,
      "t": 111147.81989583395,
      "d": 102.27281249999942,
      "v": 47
    },
    {
      "midi": 40,
      "hit": false,
      "t": 111272.82000000055,
      "d": 556.8186458333366,
      "v": 93
    },
    {
      "midi": 54,
      "hit": false,
      "t": 111272.82000000162,
      "d": 90.90916666666453,
      "v": 63
    },
    {
      "midi": 59,
      "hit": false,
      "t": 111272.82000000162,
      "d": 136.36375000000407,
      "v": 67
    },
    {
      "midi": 64,
      "hit": false,
      "t": 111272.82000000162,
      "d": 136.36375000000407,
      "v": 67
    },
    {
      "midi": 40,
      "hit": false,
      "t": 111272.82000000162,
      "d": 670.4551041666855,
      "v": 76
    },
    {
      "midi": 54,
      "hit": false,
      "t": 111272.82000000164,
      "d": 90.90916666666453,
      "v": 74
    },
    {
      "midi": 59,
      "hit": false,
      "t": 111272.82000000164,
      "d": 136.36375000000407,
      "v": 73
    },
    {
      "midi": 64,
      "hit": false,
      "t": 111272.82000000164,
      "d": 136.36375000000407,
      "v": 73
    },
    {
      "midi": 40,
      "hit": false,
      "t": 111272.82000000164,
      "d": 670.4551041666855,
      "v": 44
    },
    {
      "midi": 64,
      "hit": false,
      "t": 111284.18364583395,
      "d": 102.27281249999942,
      "v": 76
    },
    {
      "midi": 76,
      "hit": false,
      "t": 111284.18364583395,
      "d": 102.27281249999942,
      "v": 76
    },
    {
      "midi": 68,
      "hit": false,
      "t": 111284.18364583496,
      "d": 261.36385416667326,
      "v": 30
    },
    {
      "midi": 68,
      "hit": false,
      "t": 111284.18364583497,
      "d": 261.36385416667326,
      "v": 44
    },
    {
      "midi": 59,
      "hit": false,
      "t": 111409.18375000163,
      "d": 22.72729166666977,
      "v": 64
    },
    {
      "midi": 64,
      "hit": false,
      "t": 111409.18375000163,
      "d": 22.72729166666977,
      "v": 46
    },
    {
      "midi": 56,
      "hit": false,
      "t": 111409.18375000163,
      "d": 386.36395833334245,
      "v": 30
    },
    {
      "midi": 59,
      "hit": false,
      "t": 111409.18375000164,
      "d": 22.72729166666977,
      "v": 70
    },
    {
      "midi": 64,
      "hit": false,
      "t": 111409.18375000164,
      "d": 22.72729166666977,
      "v": 52
    },
    {
      "midi": 56,
      "hit": false,
      "t": 111409.18375000164,
      "d": 386.36395833334245,
      "v": 44
    },
    {
      "midi": 64,
      "hit": false,
      "t": 111420.54739583396,
      "d": 102.27281249999942,
      "v": 41
    },
    {
      "midi": 76,
      "hit": false,
      "t": 111420.54739583396,
      "d": 102.27281249999942,
      "v": 41
    },
    {
      "midi": 59,
      "hit": false,
      "t": 111545.54750000163,
      "d": 22.72729166666977,
      "v": 46
    },
    {
      "midi": 64,
      "hit": false,
      "t": 111545.54750000163,
      "d": 22.72729166666977,
      "v": 46
    },
    {
      "midi": 59,
      "hit": false,
      "t": 111545.54750000164,
      "d": 22.72729166666977,
      "v": 52
    },
    {
      "midi": 64,
      "hit": false,
      "t": 111545.54750000164,
      "d": 22.72729166666977,
      "v": 52
    },
    {
      "midi": 64,
      "hit": false,
      "t": 111556.91114583396,
      "d": 102.27281249999942,
      "v": 41
    },
    {
      "midi": 76,
      "hit": false,
      "t": 111556.91114583396,
      "d": 102.27281249999942,
      "v": 41
    },
    {
      "midi": 59,
      "hit": false,
      "t": 111681.91125000163,
      "d": 90.90916666666453,
      "v": 47
    },
    {
      "midi": 64,
      "hit": false,
      "t": 111681.91125000163,
      "d": 90.90916666666453,
      "v": 67
    },
    {
      "midi": 68,
      "hit": false,
      "t": 111681.91125000163,
      "d": 113.6364583333343,
      "v": 30
    },
    {
      "midi": 59,
      "hit": false,
      "t": 111681.91125000165,
      "d": 90.90916666666453,
      "v": 53
    },
    {
      "midi": 64,
      "hit": false,
      "t": 111681.91125000165,
      "d": 90.90916666666453,
      "v": 73
    },
    {
      "midi": 68,
      "hit": false,
      "t": 111681.91125000165,
      "d": 113.6364583333343,
      "v": 44
    },
    {
      "midi": 64,
      "hit": false,
      "t": 111693.27489583397,
      "d": 102.27281249999942,
      "v": 41
    },
    {
      "midi": 76,
      "hit": false,
      "t": 111693.27489583397,
      "d": 102.27281249999942,
      "v": 41
    },
    {
      "midi": 35,
      "hit": false,
      "t": 111818.27500000055,
      "d": 318.18208333333314,
      "v": 93
    },
    {
      "midi": 59,
      "hit": false,
      "t": 111818.27500000164,
      "d": 102.27281249999942,
      "v": 72
    },
    {
      "midi": 64,
      "hit": false,
      "t": 111818.27500000164,
      "d": 102.27281249999942,
      "v": 72
    },
    {
      "midi": 59,
      "hit": false,
      "t": 111818.27500000165,
      "d": 102.27281249999942,
      "v": 74
    },
    {
      "midi": 64,
      "hit": false,
      "t": 111818.27500000165,
      "d": 102.27281249999942,
      "v": 74
    },
    {
      "midi": 64,
      "hit": false,
      "t": 111829.63864583397,
      "d": 102.27281249999942,
      "v": 41
    },
    {
      "midi": 76,
      "hit": false,
      "t": 111829.63864583397,
      "d": 102.27281249999942,
      "v": 41
    },
    {
      "midi": 68,
      "hit": false,
      "t": 111829.63864583497,
      "d": 113.6364583333343,
      "v": 30
    },
    {
      "midi": 68,
      "hit": false,
      "t": 111829.63864583499,
      "d": 113.6364583333343,
      "v": 44
    },
    {
      "midi": 59,
      "hit": false,
      "t": 111954.63875000164,
      "d": 11.363645833334886,
      "v": 30
    },
    {
      "midi": 64,
      "hit": false,
      "t": 111954.63875000164,
      "d": 11.363645833334886,
      "v": 30
    },
    {
      "midi": 68,
      "hit": false,
      "t": 111954.63875000164,
      "d": 34.09093750000466,
      "v": 30
    },
    {
      "midi": 59,
      "hit": false,
      "t": 111954.63875000166,
      "d": 11.363645833334886,
      "v": 44
    },
    {
      "midi": 64,
      "hit": false,
      "t": 111954.63875000166,
      "d": 11.363645833334886,
      "v": 44
    },
    {
      "midi": 68,
      "hit": false,
      "t": 111954.63875000166,
      "d": 34.09093750000466,
      "v": 44
    },
    {
      "midi": 64,
      "hit": false,
      "t": 111966.00239583397,
      "d": 102.27281249999942,
      "v": 41
    },
    {
      "midi": 76,
      "hit": false,
      "t": 111966.00239583397,
      "d": 102.27281249999942,
      "v": 41
    },
    {
      "midi": 68,
      "hit": false,
      "t": 112091.00250000165,
      "d": 261.36385416667326,
      "v": 64
    },
    {
      "midi": 59,
      "hit": false,
      "t": 112091.00250000165,
      "d": 397.72760416667734,
      "v": 64
    },
    {
      "midi": 64,
      "hit": false,
      "t": 112091.00250000165,
      "d": 397.72760416667734,
      "v": 64
    },
    {
      "midi": 56,
      "hit": false,
      "t": 112091.00250000165,
      "d": 534.0913541666814,
      "v": 64
    },
    {
      "midi": 40,
      "hit": false,
      "t": 112091.00250000165,
      "d": 795.4552083333547,
      "v": 76
    },
    {
      "midi": 68,
      "hit": false,
      "t": 112091.00250000166,
      "d": 261.36385416667326,
      "v": 70
    },
    {
      "midi": 59,
      "hit": false,
      "t": 112091.00250000166,
      "d": 397.72760416667734,
      "v": 70
    },
    {
      "midi": 64,
      "hit": false,
      "t": 112091.00250000166,
      "d": 397.72760416667734,
      "v": 70
    },
    {
      "midi": 56,
      "hit": false,
      "t": 112091.00250000166,
      "d": 534.0913541666814,
      "v": 70
    },
    {
      "midi": 40,
      "hit": false,
      "t": 112091.00250000166,
      "d": 1079.5463541666977,
      "v": 44
    },
    {
      "midi": 64,
      "hit": false,
      "t": 112102.36614583398,
      "d": 102.27281249999942,
      "v": 76
    },
    {
      "midi": 76,
      "hit": false,
      "t": 112102.36614583398,
      "d": 102.27281249999942,
      "v": 76
    },
    {
      "midi": 35,
      "hit": false,
      "t": 112227.36625000054,
      "d": 113.6364583333343,
      "v": 93
    },
    {
      "midi": 64,
      "hit": false,
      "t": 112238.72989583398,
      "d": 102.27281249999942,
      "v": 41
    },
    {
      "midi": 76,
      "hit": false,
      "t": 112238.72989583398,
      "d": 102.27281249999942,
      "v": 41
    },
    {
      "midi": 40,
      "hit": false,
      "t": 112363.73000000055,
      "d": 204.54562499999884,
      "v": 93
    },
    {
      "midi": 64,
      "hit": false,
      "t": 112375.09364583399,
      "d": 102.27281249999942,
      "v": 41
    },
    {
      "midi": 76,
      "hit": false,
      "t": 112375.09364583399,
      "d": 102.27281249999942,
      "v": 41
    },
    {
      "midi": 59,
      "hit": false,
      "t": 112500.09375000166,
      "d": 125.00010416666919,
      "v": 30
    },
    {
      "midi": 64,
      "hit": false,
      "t": 112500.09375000166,
      "d": 125.00010416666919,
      "v": 30
    },
    {
      "midi": 68,
      "hit": false,
      "t": 112500.09375000166,
      "d": 125.00010416666919,
      "v": 30
    },
    {
      "midi": 59,
      "hit": false,
      "t": 112500.09375000167,
      "d": 125.00010416666919,
      "v": 44
    },
    {
      "midi": 64,
      "hit": false,
      "t": 112500.09375000167,
      "d": 125.00010416666919,
      "v": 44
    },
    {
      "midi": 68,
      "hit": false,
      "t": 112500.09375000167,
      "d": 125.00010416666919,
      "v": 44
    },
    {
      "midi": 64,
      "hit": false,
      "t": 112511.45739583399,
      "d": 102.27281249999942,
      "v": 41
    },
    {
      "midi": 76,
      "hit": false,
      "t": 112511.45739583399,
      "d": 102.27281249999942,
      "v": 41
    },
    {
      "midi": 40,
      "hit": false,
      "t": 112636.45750000054,
      "d": 227.2729166666686,
      "v": 93
    },
    {
      "midi": 59,
      "hit": false,
      "t": 112636.45750000166,
      "d": 113.6364583333343,
      "v": 30
    },
    {
      "midi": 64,
      "hit": false,
      "t": 112636.45750000166,
      "d": 113.6364583333343,
      "v": 30
    },
    {
      "midi": 68,
      "hit": false,
      "t": 112636.45750000166,
      "d": 113.6364583333343,
      "v": 30
    },
    {
      "midi": 59,
      "hit": false,
      "t": 112636.45750000168,
      "d": 113.6364583333343,
      "v": 44
    },
    {
      "midi": 64,
      "hit": false,
      "t": 112636.45750000168,
      "d": 113.6364583333343,
      "v": 44
    },
    {
      "midi": 68,
      "hit": false,
      "t": 112636.45750000168,
      "d": 113.6364583333343,
      "v": 44
    },
    {
      "midi": 64,
      "hit": false,
      "t": 112647.821145834,
      "d": 102.27281249999942,
      "v": 41
    },
    {
      "midi": 76,
      "hit": false,
      "t": 112647.821145834,
      "d": 102.27281249999942,
      "v": 41
    },
    {
      "midi": 59,
      "hit": false,
      "t": 112772.82125000167,
      "d": 113.6364583333343,
      "v": 59
    },
    {
      "midi": 64,
      "hit": false,
      "t": 112772.82125000167,
      "d": 113.6364583333343,
      "v": 59
    },
    {
      "midi": 68,
      "hit": false,
      "t": 112772.82125000167,
      "d": 113.6364583333343,
      "v": 59
    },
    {
      "midi": 59,
      "hit": false,
      "t": 112772.82125000168,
      "d": 113.6364583333343,
      "v": 65
    },
    {
      "midi": 64,
      "hit": false,
      "t": 112772.82125000168,
      "d": 113.6364583333343,
      "v": 65
    },
    {
      "midi": 68,
      "hit": false,
      "t": 112772.82125000168,
      "d": 113.6364583333343,
      "v": 65
    },
    {
      "midi": 64,
      "hit": false,
      "t": 112784.184895834,
      "d": 102.27281249999942,
      "v": 41
    },
    {
      "midi": 76,
      "hit": false,
      "t": 112784.184895834,
      "d": 102.27281249999942,
      "v": 41
    },
    {
      "midi": 39,
      "hit": false,
      "t": 112909.18500000055,
      "d": 261.36385416667326,
      "v": 93
    },
    {
      "midi": 64,
      "hit": false,
      "t": 112909.18500000167,
      "d": 11.363645833334886,
      "v": 76
    },
    {
      "midi": 59,
      "hit": false,
      "t": 112909.18500000167,
      "d": 34.09093750000466,
      "v": 76
    },
    {
      "midi": 68,
      "hit": false,
      "t": 112909.18500000167,
      "d": 34.09093750000466,
      "v": 76
    },
    {
      "midi": 64,
      "hit": false,
      "t": 112909.18500000169,
      "d": 11.363645833334886,
      "v": 74
    },
    {
      "midi": 59,
      "hit": false,
      "t": 112909.18500000169,
      "d": 34.09093750000466,
      "v": 74
    },
    {
      "midi": 68,
      "hit": false,
      "t": 112909.18500000169,
      "d": 34.09093750000466,
      "v": 74
    },
    {
      "midi": 64,
      "hit": false,
      "t": 112920.548645834,
      "d": 102.27281249999942,
      "v": 74
    },
    {
      "midi": 76,
      "hit": false,
      "t": 112920.548645834,
      "d": 102.27281249999942,
      "v": 74
    },
    {
      "midi": 64,
      "hit": false,
      "t": 112920.548645835,
      "d": 11.363645833334886,
      "v": 55
    },
    {
      "midi": 64,
      "hit": false,
      "t": 112920.54864583502,
      "d": 11.363645833334886,
      "v": 61
    },
    {
      "midi": 59,
      "hit": false,
      "t": 113045.54875000168,
      "d": 45.45458333333954,
      "v": 30
    },
    {
      "midi": 56,
      "hit": false,
      "t": 113045.54875000168,
      "d": 68.18187500000931,
      "v": 30
    },
    {
      "midi": 59,
      "hit": false,
      "t": 113045.54875000169,
      "d": 45.45458333333954,
      "v": 44
    },
    {
      "midi": 56,
      "hit": false,
      "t": 113045.54875000169,
      "d": 68.18187500000931,
      "v": 44
    },
    {
      "midi": 64,
      "hit": false,
      "t": 113056.912395834,
      "d": 102.27281249999942,
      "v": 47
    },
    {
      "midi": 76,
      "hit": false,
      "t": 113056.912395834,
      "d": 102.27281249999942,
      "v": 47
    },
    {
      "midi": 39,
      "hit": false,
      "t": 113181.91250000056,
      "d": 261.36385416667326,
      "v": 93
    },
    {
      "midi": 59,
      "hit": false,
      "t": 113181.91250000168,
      "d": 90.90916666666453,
      "v": 53
    },
    {
      "midi": 64,
      "hit": false,
      "t": 113181.91250000168,
      "d": 90.90916666666453,
      "v": 53
    },
    {
      "midi": 56,
      "hit": false,
      "t": 113181.91250000168,
      "d": 136.36375000000407,
      "v": 53
    },
    {
      "midi": 59,
      "hit": false,
      "t": 113181.9125000017,
      "d": 90.90916666666453,
      "v": 59
    },
    {
      "midi": 64,
      "hit": false,
      "t": 113181.9125000017,
      "d": 90.90916666666453,
      "v": 59
    },
    {
      "midi": 56,
      "hit": false,
      "t": 113181.9125000017,
      "d": 136.36375000000407,
      "v": 59
    },
    {
      "midi": 64,
      "hit": false,
      "t": 113193.27614583401,
      "d": 102.27281249999942,
      "v": 47
    },
    {
      "midi": 76,
      "hit": false,
      "t": 113193.27614583401,
      "d": 102.27281249999942,
      "v": 47
    },
    {
      "midi": 59,
      "hit": false,
      "t": 113318.27625000168,
      "d": 90.90916666666453,
      "v": 30
    },
    {
      "midi": 64,
      "hit": false,
      "t": 113318.27625000168,
      "d": 90.90916666666453,
      "v": 30
    },
    {
      "midi": 56,
      "hit": false,
      "t": 113318.27625000168,
      "d": 136.36375000000407,
      "v": 30
    },
    {
      "midi": 59,
      "hit": false,
      "t": 113318.2762500017,
      "d": 90.90916666666453,
      "v": 44
    },
    {
      "midi": 64,
      "hit": false,
      "t": 113318.2762500017,
      "d": 90.90916666666453,
      "v": 44
    },
    {
      "midi": 56,
      "hit": false,
      "t": 113318.2762500017,
      "d": 136.36375000000407,
      "v": 44
    },
    {
      "midi": 64,
      "hit": false,
      "t": 113329.63989583401,
      "d": 102.27281249999942,
      "v": 47
    },
    {
      "midi": 76,
      "hit": false,
      "t": 113329.63989583401,
      "d": 102.27281249999942,
      "v": 47
    },
    {
      "midi": 37,
      "hit": false,
      "t": 113454.64000000057,
      "d": 409.0912499999977,
      "v": 93
    },
    {
      "midi": 68,
      "hit": false,
      "t": 113454.64000000169,
      "d": 113.6364583333343,
      "v": 68
    },
    {
      "midi": 61,
      "hit": false,
      "t": 113454.64000000169,
      "d": 136.36375000000407,
      "v": 68
    },
    {
      "midi": 64,
      "hit": false,
      "t": 113454.64000000169,
      "d": 136.36375000000407,
      "v": 68
    },
    {
      "midi": 54,
      "hit": false,
      "t": 113454.64000000169,
      "d": 147.72739583333896,
      "v": 55
    },
    {
      "midi": 49,
      "hit": false,
      "t": 113454.64000000169,
      "d": 397.72760416667734,
      "v": 76
    },
    {
      "midi": 68,
      "hit": false,
      "t": 113454.6400000017,
      "d": 113.6364583333343,
      "v": 74
    },
    {
      "midi": 56,
      "hit": false,
      "t": 113454.6400000017,
      "d": 136.36375000000407,
      "v": 44
    },
    {
      "midi": 61,
      "hit": false,
      "t": 113454.6400000017,
      "d": 136.36375000000407,
      "v": 74
    },
    {
      "midi": 64,
      "hit": false,
      "t": 113454.6400000017,
      "d": 136.36375000000407,
      "v": 74
    },
    {
      "midi": 54,
      "hit": false,
      "t": 113454.6400000017,
      "d": 147.72739583333896,
      "v": 74
    },
    {
      "midi": 49,
      "hit": false,
      "t": 113454.6400000017,
      "d": 670.4551041666855,
      "v": 44
    },
    {
      "midi": 64,
      "hit": false,
      "t": 113466.00364583402,
      "d": 102.27281249999942,
      "v": 76
    },
    {
      "midi": 76,
      "hit": false,
      "t": 113466.00364583402,
      "d": 102.27281249999942,
      "v": 76
    },
    {
      "midi": 61,
      "hit": false,
      "t": 113591.00375000169,
      "d": 11.363645833334886,
      "v": 68
    },
    {
      "midi": 64,
      "hit": false,
      "t": 113591.00375000169,
      "d": 11.363645833334886,
      "v": 68
    },
    {
      "midi": 56,
      "hit": false,
      "t": 113591.00375000169,
      "d": 613.6368750000256,
      "v": 49
    },
    {
      "midi": 61,
      "hit": false,
      "t": 113591.0037500017,
      "d": 11.363645833334886,
      "v": 74
    },
    {
      "midi": 64,
      "hit": false,
      "t": 113591.0037500017,
      "d": 11.363645833334886,
      "v": 74
    },
    {
      "midi": 56,
      "hit": false,
      "t": 113591.0037500017,
      "d": 136.36375000000407,
      "v": 55
    },
    {
      "midi": 64,
      "hit": false,
      "t": 113602.36739583402,
      "d": 102.27281249999942,
      "v": 41
    },
    {
      "midi": 76,
      "hit": false,
      "t": 113602.36739583402,
      "d": 102.27281249999942,
      "v": 41
    },
    {
      "midi": 61,
      "hit": false,
      "t": 113727.3675000017,
      "d": 22.72729166666977,
      "v": 68
    },
    {
      "midi": 64,
      "hit": false,
      "t": 113727.3675000017,
      "d": 22.72729166666977,
      "v": 68
    },
    {
      "midi": 61,
      "hit": false,
      "t": 113727.36750000171,
      "d": 22.72729166666977,
      "v": 74
    },
    {
      "midi": 64,
      "hit": false,
      "t": 113727.36750000171,
      "d": 22.72729166666977,
      "v": 74
    },
    {
      "midi": 64,
      "hit": false,
      "t": 113738.73114583403,
      "d": 102.27281249999942,
      "v": 41
    },
    {
      "midi": 76,
      "hit": false,
      "t": 113738.73114583403,
      "d": 102.27281249999942,
      "v": 41
    },
    {
      "midi": 37,
      "hit": false,
      "t": 113863.73125000056,
      "d": 125.00010416666919,
      "v": 93
    },
    {
      "midi": 68,
      "hit": false,
      "t": 113863.7312500017,
      "d": 68.18187499999476,
      "v": 68
    },
    {
      "midi": 61,
      "hit": false,
      "t": 113863.7312500017,
      "d": 90.90916666666453,
      "v": 68
    },
    {
      "midi": 64,
      "hit": false,
      "t": 113863.7312500017,
      "d": 90.90916666666453,
      "v": 68
    },
    {
      "midi": 68,
      "hit": false,
      "t": 113863.73125000171,
      "d": 68.18187499999476,
      "v": 74
    },
    {
      "midi": 61,
      "hit": false,
      "t": 113863.73125000171,
      "d": 90.90916666666453,
      "v": 74
    },
    {
      "midi": 64,
      "hit": false,
      "t": 113863.73125000171,
      "d": 90.90916666666453,
      "v": 74
    },
    {
      "midi": 64,
      "hit": false,
      "t": 113875.09489583403,
      "d": 102.27281249999942,
      "v": 41
    },
    {
      "midi": 76,
      "hit": false,
      "t": 113875.09489583403,
      "d": 102.27281249999942,
      "v": 41
    },
    {
      "midi": 39,
      "hit": false,
      "t": 114000.09500000057,
      "d": 397.7276041666628,
      "v": 93
    },
    {
      "midi": 61,
      "hit": false,
      "t": 114000.0950000017,
      "d": 22.72729166666977,
      "v": 68
    },
    {
      "midi": 64,
      "hit": false,
      "t": 114000.0950000017,
      "d": 22.72729166666977,
      "v": 68
    },
    {
      "midi": 61,
      "hit": false,
      "t": 114000.09500000172,
      "d": 22.72729166666977,
      "v": 74
    },
    {
      "midi": 64,
      "hit": false,
      "t": 114000.09500000172,
      "d": 22.72729166666977,
      "v": 74
    },
    {
      "midi": 64,
      "hit": false,
      "t": 114011.45864583403,
      "d": 102.27281249999942,
      "v": 41
    },
    {
      "midi": 76,
      "hit": false,
      "t": 114011.45864583403,
      "d": 102.27281249999942,
      "v": 41
    },
    {
      "midi": 61,
      "hit": false,
      "t": 114136.45875000171,
      "d": 22.72729166666977,
      "v": 68
    },
    {
      "midi": 64,
      "hit": false,
      "t": 114136.45875000171,
      "d": 22.72729166666977,
      "v": 68
    },
    {
      "midi": 61,
      "hit": false,
      "t": 114136.45875000172,
      "d": 22.72729166666977,
      "v": 74
    },
    {
      "midi": 64,
      "hit": false,
      "t": 114136.45875000172,
      "d": 22.72729166666977,
      "v": 74
    },
    {
      "midi": 64,
      "hit": false,
      "t": 114147.82239583404,
      "d": 102.27281249999942,
      "v": 41
    },
    {
      "midi": 76,
      "hit": false,
      "t": 114147.82239583404,
      "d": 102.27281249999942,
      "v": 41
    },
    {
      "midi": 68,
      "hit": false,
      "t": 114272.82250000171,
      "d": 68.18187499999476,
      "v": 68
    },
    {
      "midi": 61,
      "hit": false,
      "t": 114272.82250000171,
      "d": 250.00020833332383,
      "v": 68
    },
    {
      "midi": 64,
      "hit": false,
      "t": 114272.82250000171,
      "d": 250.00020833332383,
      "v": 68
    },
    {
      "midi": 49,
      "hit": false,
      "t": 114272.82250000171,
      "d": 522.727708333332,
      "v": 76
    },
    {
      "midi": 56,
      "hit": false,
      "t": 114272.82250000171,
      "d": 954.546250000014,
      "v": 55
    },
    {
      "midi": 68,
      "hit": false,
      "t": 114272.82250000173,
      "d": 68.18187499999476,
      "v": 74
    },
    {
      "midi": 61,
      "hit": false,
      "t": 114272.82250000173,
      "d": 250.00020833332383,
      "v": 74
    },
    {
      "midi": 64,
      "hit": false,
      "t": 114272.82250000173,
      "d": 250.00020833332383,
      "v": 74
    },
    {
      "midi": 49,
      "hit": false,
      "t": 114272.82250000173,
      "d": 386.3639583333279,
      "v": 44
    },
    {
      "midi": 56,
      "hit": false,
      "t": 114272.82250000173,
      "d": 795.4552083333401,
      "v": 61
    },
    {
      "midi": 64,
      "hit": false,
      "t": 114284.18614583404,
      "d": 102.27281249999942,
      "v": 76
    },
    {
      "midi": 76,
      "hit": false,
      "t": 114284.18614583404,
      "d": 102.27281249999942,
      "v": 76
    },
    {
      "midi": 39,
      "hit": false,
      "t": 114409.18625000057,
      "d": 125.00010416666919,
      "v": 93
    },
    {
      "midi": 64,
      "hit": false,
      "t": 114420.54989583405,
      "d": 102.27281249999942,
      "v": 41
    },
    {
      "midi": 76,
      "hit": false,
      "t": 114420.54989583405,
      "d": 102.27281249999942,
      "v": 41
    },
    {
      "midi": 40,
      "hit": false,
      "t": 114545.55000000057,
      "d": 397.7276041666628,
      "v": 93
    },
    {
      "midi": 61,
      "hit": false,
      "t": 114545.5500000017,
      "d": 113.6364583333343,
      "v": 30
    },
    {
      "midi": 64,
      "hit": false,
      "t": 114545.5500000017,
      "d": 113.6364583333343,
      "v": 30
    },
    {
      "midi": 61,
      "hit": false,
      "t": 114545.55000000172,
      "d": 113.6364583333343,
      "v": 44
    },
    {
      "midi": 64,
      "hit": false,
      "t": 114545.55000000172,
      "d": 113.6364583333343,
      "v": 44
    },
    {
      "midi": 64,
      "hit": false,
      "t": 114556.91364583405,
      "d": 102.27281249999942,
      "v": 41
    },
    {
      "midi": 76,
      "hit": false,
      "t": 114556.91364583405,
      "d": 102.27281249999942,
      "v": 41
    },
    {
      "midi": 68,
      "hit": false,
      "t": 114681.91375000171,
      "d": 90.90916666666453,
      "v": 47
    },
    {
      "midi": 64,
      "hit": false,
      "t": 114681.91375000171,
      "d": 113.6364583333343,
      "v": 47
    },
    {
      "midi": 73,
      "hit": false,
      "t": 114681.91375000171,
      "d": 113.6364583333343,
      "v": 47
    },
    {
      "midi": 68,
      "hit": false,
      "t": 114681.91375000172,
      "d": 90.90916666666453,
      "v": 53
    },
    {
      "midi": 64,
      "hit": false,
      "t": 114681.91375000172,
      "d": 113.6364583333343,
      "v": 53
    },
    {
      "midi": 73,
      "hit": false,
      "t": 114681.91375000172,
      "d": 113.6364583333343,
      "v": 53
    },
    {
      "midi": 49,
      "hit": false,
      "t": 114681.91375000172,
      "d": 386.36395833334245,
      "v": 44
    },
    {
      "midi": 64,
      "hit": false,
      "t": 114693.27739583405,
      "d": 102.27281249999942,
      "v": 41
    },
    {
      "midi": 76,
      "hit": false,
      "t": 114693.27739583405,
      "d": 102.27281249999942,
      "v": 41
    },
    {
      "midi": 64,
      "hit": false,
      "t": 114818.27750000171,
      "d": 113.6364583333343,
      "v": 68
    },
    {
      "midi": 68,
      "hit": false,
      "t": 114818.27750000171,
      "d": 113.6364583333343,
      "v": 68
    },
    {
      "midi": 73,
      "hit": false,
      "t": 114818.27750000171,
      "d": 113.6364583333343,
      "v": 68
    },
    {
      "midi": 64,
      "hit": false,
      "t": 114818.27750000173,
      "d": 113.6364583333343,
      "v": 74
    },
    {
      "midi": 68,
      "hit": false,
      "t": 114818.27750000173,
      "d": 113.6364583333343,
      "v": 74
    },
    {
      "midi": 73,
      "hit": false,
      "t": 114818.27750000173,
      "d": 113.6364583333343,
      "v": 74
    },
    {
      "midi": 64,
      "hit": false,
      "t": 114829.64114583406,
      "d": 102.27281249999942,
      "v": 41
    },
    {
      "midi": 76,
      "hit": false,
      "t": 114829.64114583406,
      "d": 102.27281249999942,
      "v": 41
    },
    {
      "midi": 40,
      "hit": false,
      "t": 114954.64125000057,
      "d": 125.00010416666919,
      "v": 93
    },
    {
      "midi": 64,
      "hit": false,
      "t": 114954.64125000172,
      "d": 113.6364583333343,
      "v": 43
    },
    {
      "midi": 68,
      "hit": false,
      "t": 114954.64125000172,
      "d": 113.6364583333343,
      "v": 43
    },
    {
      "midi": 73,
      "hit": false,
      "t": 114954.64125000172,
      "d": 136.36375000000407,
      "v": 43
    },
    {
      "midi": 64,
      "hit": false,
      "t": 114954.64125000173,
      "d": 113.6364583333343,
      "v": 49
    },
    {
      "midi": 68,
      "hit": false,
      "t": 114954.64125000173,
      "d": 113.6364583333343,
      "v": 49
    },
    {
      "midi": 73,
      "hit": false,
      "t": 114954.64125000173,
      "d": 136.36375000000407,
      "v": 49
    },
    {
      "midi": 64,
      "hit": false,
      "t": 114966.00489583406,
      "d": 102.27281249999942,
      "v": 41
    },
    {
      "midi": 76,
      "hit": false,
      "t": 114966.00489583406,
      "d": 102.27281249999942,
      "v": 41
    },
    {
      "midi": 42,
      "hit": false,
      "t": 115091.00500000057,
      "d": 261.36385416667326,
      "v": 93
    },
    {
      "midi": 49,
      "hit": false,
      "t": 115091.00500000172,
      "d": 113.6364583333343,
      "v": 76
    },
    {
      "midi": 64,
      "hit": false,
      "t": 115091.00500000172,
      "d": 113.6364583333343,
      "v": 76
    },
    {
      "midi": 68,
      "hit": false,
      "t": 115091.00500000172,
      "d": 113.6364583333343,
      "v": 76
    },
    {
      "midi": 73,
      "hit": false,
      "t": 115091.00500000172,
      "d": 136.36375000000407,
      "v": 76
    },
    {
      "midi": 49,
      "hit": false,
      "t": 115091.00500000174,
      "d": 113.6364583333343,
      "v": 44
    },
    {
      "midi": 56,
      "hit": false,
      "t": 115091.00500000174,
      "d": 113.6364583333343,
      "v": 44
    },
    {
      "midi": 64,
      "hit": false,
      "t": 115091.00500000174,
      "d": 113.6364583333343,
      "v": 74
    },
    {
      "midi": 68,
      "hit": false,
      "t": 115091.00500000174,
      "d": 113.6364583333343,
      "v": 74
    },
    {
      "midi": 73,
      "hit": false,
      "t": 115091.00500000174,
      "d": 136.36375000000407,
      "v": 74
    },
    {
      "midi": 64,
      "hit": false,
      "t": 115102.36864583407,
      "d": 102.27281249999942,
      "v": 74
    },
    {
      "midi": 76,
      "hit": false,
      "t": 115102.36864583407,
      "d": 102.27281249999942,
      "v": 74
    },
    {
      "midi": 61,
      "hit": false,
      "t": 115227.36875000173,
      "d": 68.18187499999476,
      "v": 30
    },
    {
      "midi": 64,
      "hit": false,
      "t": 115227.36875000173,
      "d": 68.18187499999476,
      "v": 30
    },
    {
      "midi": 61,
      "hit": false,
      "t": 115227.36875000174,
      "d": 68.18187499999476,
      "v": 44
    },
    {
      "midi": 64,
      "hit": false,
      "t": 115227.36875000174,
      "d": 68.18187499999476,
      "v": 44
    },
    {
      "midi": 64,
      "hit": false,
      "t": 115238.73239583407,
      "d": 102.27281249999942,
      "v": 47
    },
    {
      "midi": 76,
      "hit": false,
      "t": 115238.73239583407,
      "d": 102.27281249999942,
      "v": 47
    },
    {
      "midi": 44,
      "hit": false,
      "t": 115363.73250000058,
      "d": 261.36385416667326,
      "v": 93
    },
    {
      "midi": 61,
      "hit": false,
      "t": 115363.73250000172,
      "d": 113.6364583333343,
      "v": 30
    },
    {
      "midi": 64,
      "hit": false,
      "t": 115363.73250000172,
      "d": 113.6364583333343,
      "v": 30
    },
    {
      "midi": 56,
      "hit": false,
      "t": 115363.73250000172,
      "d": 136.36375000000407,
      "v": 44
    },
    {
      "midi": 61,
      "hit": false,
      "t": 115363.73250000173,
      "d": 113.6364583333343,
      "v": 44
    },
    {
      "midi": 64,
      "hit": false,
      "t": 115363.73250000173,
      "d": 113.6364583333343,
      "v": 44
    },
    {
      "midi": 56,
      "hit": false,
      "t": 115363.73250000173,
      "d": 136.36375000000407,
      "v": 50
    },
    {
      "midi": 64,
      "hit": false,
      "t": 115375.09614583408,
      "d": 102.27281249999942,
      "v": 47
    },
    {
      "midi": 76,
      "hit": false,
      "t": 115375.09614583408,
      "d": 102.27281249999942,
      "v": 47
    },
    {
      "midi": 32,
      "hit": false,
      "t": 115500.09625000058,
      "d": 90.90916666666453,
      "v": 93
    },
    {
      "midi": 56,
      "hit": false,
      "t": 115500.09625000172,
      "d": 22.72729166666977,
      "v": 30
    },
    {
      "midi": 61,
      "hit": false,
      "t": 115500.09625000172,
      "d": 113.6364583333343,
      "v": 30
    },
    {
      "midi": 64,
      "hit": false,
      "t": 115500.09625000172,
      "d": 113.6364583333343,
      "v": 30
    },
    {
      "midi": 56,
      "hit": false,
      "t": 115500.09625000173,
      "d": 22.72729166666977,
      "v": 44
    },
    {
      "midi": 61,
      "hit": false,
      "t": 115500.09625000173,
      "d": 113.6364583333343,
      "v": 44
    },
    {
      "midi": 64,
      "hit": false,
      "t": 115500.09625000173,
      "d": 113.6364583333343,
      "v": 44
    },
    {
      "midi": 64,
      "hit": false,
      "t": 115511.45989583408,
      "d": 102.27281249999942,
      "v": 47
    },
    {
      "midi": 76,
      "hit": false,
      "t": 115511.45989583408,
      "d": 102.27281249999942,
      "v": 47
    },
    {
      "midi": 35,
      "hit": false,
      "t": 115636.46000000059,
      "d": 534.0913541666669,
      "v": 93
    },
    {
      "midi": 47,
      "hit": false,
      "t": 115636.46000000172,
      "d": 534.0913541666669,
      "v": 76
    },
    {
      "midi": 63,
      "hit": false,
      "t": 115636.46000000172,
      "d": 659.091458333336,
      "v": 68
    },
    {
      "midi": 66,
      "hit": false,
      "t": 115636.46000000172,
      "d": 659.091458333336,
      "v": 68
    },
    {
      "midi": 71,
      "hit": false,
      "t": 115636.46000000172,
      "d": 659.091458333336,
      "v": 68
    },
    {
      "midi": 47,
      "hit": false,
      "t": 115636.46000000174,
      "d": 659.091458333336,
      "v": 44
    },
    {
      "midi": 54,
      "hit": false,
      "t": 115636.46000000174,
      "d": 659.091458333336,
      "v": 44
    },
    {
      "midi": 63,
      "hit": false,
      "t": 115636.46000000174,
      "d": 659.091458333336,
      "v": 74
    },
    {
      "midi": 66,
      "hit": false,
      "t": 115636.46000000174,
      "d": 659.091458333336,
      "v": 74
    },
    {
      "midi": 71,
      "hit": false,
      "t": 115636.46000000174,
      "d": 659.091458333336,
      "v": 74
    },
    {
      "midi": 64,
      "hit": false,
      "t": 115647.82364583408,
      "d": 102.27281249999942,
      "v": 76
    },
    {
      "midi": 76,
      "hit": false,
      "t": 115647.82364583408,
      "d": 102.27281249999942,
      "v": 76
    },
    {
      "midi": 64,
      "hit": false,
      "t": 115784.18739583409,
      "d": 102.27281249999942,
      "v": 41
    },
    {
      "midi": 76,
      "hit": false,
      "t": 115784.18739583409,
      "d": 102.27281249999942,
      "v": 41
    },
    {
      "midi": 64,
      "hit": false,
      "t": 115920.55114583409,
      "d": 102.27281249999942,
      "v": 41
    },
    {
      "midi": 76,
      "hit": false,
      "t": 115920.55114583409,
      "d": 102.27281249999942,
      "v": 41
    },
    {
      "midi": 64,
      "hit": false,
      "t": 116056.9148958341,
      "d": 102.27281249999942,
      "v": 41
    },
    {
      "midi": 76,
      "hit": false,
      "t": 116056.9148958341,
      "d": 102.27281249999942,
      "v": 41
    },
    {
      "midi": 30,
      "hit": false,
      "t": 116181.91500000059,
      "d": 318.18208333333314,
      "v": 93
    },
    {
      "midi": 64,
      "hit": false,
      "t": 116193.2786458341,
      "d": 102.27281249999942,
      "v": 41
    },
    {
      "midi": 76,
      "hit": false,
      "t": 116193.2786458341,
      "d": 102.27281249999942,
      "v": 41
    },
    {
      "midi": 64,
      "hit": false,
      "t": 116329.6423958341,
      "d": 102.27281249999942,
      "v": 41
    },
    {
      "midi": 76,
      "hit": false,
      "t": 116329.6423958341,
      "d": 102.27281249999942,
      "v": 41
    },
    {
      "midi": 63,
      "hit": false,
      "t": 116454.64250000173,
      "d": 386.3639583333279,
      "v": 68
    },
    {
      "midi": 66,
      "hit": false,
      "t": 116454.64250000173,
      "d": 386.3639583333279,
      "v": 68
    },
    {
      "midi": 71,
      "hit": false,
      "t": 116454.64250000173,
      "d": 386.3639583333279,
      "v": 68
    },
    {
      "midi": 47,
      "hit": false,
      "t": 116454.64250000173,
      "d": 943.1826041666791,
      "v": 76
    },
    {
      "midi": 63,
      "hit": false,
      "t": 116454.64250000175,
      "d": 386.3639583333279,
      "v": 74
    },
    {
      "midi": 66,
      "hit": false,
      "t": 116454.64250000175,
      "d": 386.3639583333279,
      "v": 74
    },
    {
      "midi": 71,
      "hit": false,
      "t": 116454.64250000175,
      "d": 386.3639583333279,
      "v": 74
    },
    {
      "midi": 47,
      "hit": false,
      "t": 116454.64250000175,
      "d": 659.091458333336,
      "v": 44
    },
    {
      "midi": 54,
      "hit": false,
      "t": 116454.64250000175,
      "d": 659.091458333336,
      "v": 44
    },
    {
      "midi": 64,
      "hit": false,
      "t": 116466.00614583411,
      "d": 102.27281249999942,
      "v": 76
    },
    {
      "midi": 76,
      "hit": false,
      "t": 116466.00614583411,
      "d": 102.27281249999942,
      "v": 76
    },
    {
      "midi": 30,
      "hit": false,
      "t": 116591.00625000059,
      "d": 102.27281249999942,
      "v": 93
    },
    {
      "midi": 64,
      "hit": false,
      "t": 116602.36989583411,
      "d": 102.27281249999942,
      "v": 41
    },
    {
      "midi": 76,
      "hit": false,
      "t": 116602.36989583411,
      "d": 102.27281249999942,
      "v": 41
    },
    {
      "midi": 35,
      "hit": false,
      "t": 116727.37000000059,
      "d": 113.6364583333343,
      "v": 93
    },
    {
      "midi": 64,
      "hit": false,
      "t": 116738.73364583412,
      "d": 102.27281249999942,
      "v": 41
    },
    {
      "midi": 76,
      "hit": false,
      "t": 116738.73364583412,
      "d": 102.27281249999942,
      "v": 41
    },
    {
      "midi": 63,
      "hit": false,
      "t": 116863.73375000173,
      "d": 250.00020833333838,
      "v": 68
    },
    {
      "midi": 66,
      "hit": false,
      "t": 116863.73375000173,
      "d": 250.00020833333838,
      "v": 68
    },
    {
      "midi": 71,
      "hit": false,
      "t": 116863.73375000173,
      "d": 250.00020833333838,
      "v": 68
    },
    {
      "midi": 63,
      "hit": false,
      "t": 116863.73375000175,
      "d": 250.00020833333838,
      "v": 74
    },
    {
      "midi": 66,
      "hit": false,
      "t": 116863.73375000175,
      "d": 250.00020833333838,
      "v": 74
    },
    {
      "midi": 71,
      "hit": false,
      "t": 116863.73375000175,
      "d": 250.00020833333838,
      "v": 74
    },
    {
      "midi": 64,
      "hit": false,
      "t": 116875.09739583412,
      "d": 102.27281249999942,
      "v": 41
    },
    {
      "midi": 76,
      "hit": false,
      "t": 116875.09739583412,
      "d": 102.27281249999942,
      "v": 41
    },
    {
      "midi": 35,
      "hit": false,
      "t": 117000.0975000006,
      "d": 284.0911458333285,
      "v": 93
    },
    {
      "midi": 64,
      "hit": false,
      "t": 117011.46114583412,
      "d": 102.27281249999942,
      "v": 41
    },
    {
      "midi": 76,
      "hit": false,
      "t": 117011.46114583412,
      "d": 102.27281249999942,
      "v": 41
    },
    {
      "midi": 63,
      "hit": false,
      "t": 117136.46125000174,
      "d": 22.72729166666977,
      "v": 68
    },
    {
      "midi": 66,
      "hit": false,
      "t": 117136.46125000174,
      "d": 22.72729166666977,
      "v": 68
    },
    {
      "midi": 71,
      "hit": false,
      "t": 117136.46125000174,
      "d": 22.72729166666977,
      "v": 68
    },
    {
      "midi": 63,
      "hit": false,
      "t": 117136.46125000175,
      "d": 22.72729166666977,
      "v": 74
    },
    {
      "midi": 66,
      "hit": false,
      "t": 117136.46125000175,
      "d": 22.72729166666977,
      "v": 74
    },
    {
      "midi": 71,
      "hit": false,
      "t": 117136.46125000175,
      "d": 22.72729166666977,
      "v": 74
    },
    {
      "midi": 64,
      "hit": false,
      "t": 117147.82489583413,
      "d": 102.27281249999942,
      "v": 41
    },
    {
      "midi": 76,
      "hit": false,
      "t": 117147.82489583413,
      "d": 102.27281249999942,
      "v": 41
    },
    {
      "midi": 30,
      "hit": false,
      "t": 117272.8250000006,
      "d": 204.54562499999884,
      "v": 93
    },
    {
      "midi": 63,
      "hit": false,
      "t": 117272.82500000174,
      "d": 250.00020833333838,
      "v": 68
    },
    {
      "midi": 66,
      "hit": false,
      "t": 117272.82500000174,
      "d": 250.00020833333838,
      "v": 68
    },
    {
      "midi": 71,
      "hit": false,
      "t": 117272.82500000174,
      "d": 250.00020833333838,
      "v": 68
    },
    {
      "midi": 47,
      "hit": false,
      "t": 117272.82500000176,
      "d": 125.00010416666919,
      "v": 44
    },
    {
      "midi": 54,
      "hit": false,
      "t": 117272.82500000176,
      "d": 125.00010416666919,
      "v": 44
    },
    {
      "midi": 63,
      "hit": false,
      "t": 117272.82500000176,
      "d": 250.00020833333838,
      "v": 74
    },
    {
      "midi": 66,
      "hit": false,
      "t": 117272.82500000176,
      "d": 250.00020833333838,
      "v": 74
    },
    {
      "midi": 71,
      "hit": false,
      "t": 117272.82500000176,
      "d": 250.00020833333838,
      "v": 74
    },
    {
      "midi": 64,
      "hit": false,
      "t": 117284.18864583413,
      "d": 102.27281249999942,
      "v": 74
    },
    {
      "midi": 76,
      "hit": false,
      "t": 117284.18864583413,
      "d": 102.27281249999942,
      "v": 74
    },
    {
      "midi": 64,
      "hit": false,
      "t": 117420.55239583414,
      "d": 102.27281249999942,
      "v": 47
    },
    {
      "midi": 76,
      "hit": false,
      "t": 117420.55239583414,
      "d": 102.27281249999942,
      "v": 47
    },
    {
      "midi": 30,
      "hit": false,
      "t": 117545.55250000059,
      "d": 68.18187499999476,
      "v": 93
    },
    {
      "midi": 59,
      "hit": false,
      "t": 117545.55250000175,
      "d": 22.72729166666977,
      "v": 68
    },
    {
      "midi": 63,
      "hit": false,
      "t": 117545.55250000175,
      "d": 22.72729166666977,
      "v": 68
    },
    {
      "midi": 66,
      "hit": false,
      "t": 117545.55250000175,
      "d": 22.72729166666977,
      "v": 68
    },
    {
      "midi": 59,
      "hit": false,
      "t": 117545.55250000177,
      "d": 22.72729166666977,
      "v": 74
    },
    {
      "midi": 63,
      "hit": false,
      "t": 117545.55250000177,
      "d": 22.72729166666977,
      "v": 74
    },
    {
      "midi": 66,
      "hit": false,
      "t": 117545.55250000177,
      "d": 22.72729166666977,
      "v": 74
    },
    {
      "midi": 64,
      "hit": false,
      "t": 117556.91614583414,
      "d": 102.27281249999942,
      "v": 47
    },
    {
      "midi": 76,
      "hit": false,
      "t": 117556.91614583414,
      "d": 102.27281249999942,
      "v": 47
    },
    {
      "midi": 30,
      "hit": false,
      "t": 117681.91625000058,
      "d": 90.90916666666453,
      "v": 93
    },
    {
      "midi": 59,
      "hit": false,
      "t": 117681.91625000176,
      "d": 22.72729166666977,
      "v": 68
    },
    {
      "midi": 63,
      "hit": false,
      "t": 117681.91625000176,
      "d": 22.72729166666977,
      "v": 68
    },
    {
      "midi": 66,
      "hit": false,
      "t": 117681.91625000176,
      "d": 22.72729166666977,
      "v": 68
    },
    {
      "midi": 59,
      "hit": false,
      "t": 117681.91625000177,
      "d": 22.72729166666977,
      "v": 74
    },
    {
      "midi": 63,
      "hit": false,
      "t": 117681.91625000177,
      "d": 22.72729166666977,
      "v": 74
    },
    {
      "midi": 66,
      "hit": false,
      "t": 117681.91625000177,
      "d": 22.72729166666977,
      "v": 74
    },
    {
      "midi": 64,
      "hit": false,
      "t": 117693.27989583414,
      "d": 102.27281249999942,
      "v": 47
    },
    {
      "midi": 76,
      "hit": false,
      "t": 117693.27989583414,
      "d": 102.27281249999942,
      "v": 47
    },
    {
      "midi": 33,
      "hit": false,
      "t": 117818.28000000058,
      "d": 340.9093750000029,
      "v": 93
    },
    {
      "midi": 45,
      "hit": false,
      "t": 117818.28000000176,
      "d": 659.091458333336,
      "v": 76
    },
    {
      "midi": 61,
      "hit": false,
      "t": 117818.28000000176,
      "d": 659.091458333336,
      "v": 68
    },
    {
      "midi": 64,
      "hit": false,
      "t": 117818.28000000176,
      "d": 659.091458333336,
      "v": 68
    },
    {
      "midi": 69,
      "hit": false,
      "t": 117818.28000000176,
      "d": 659.091458333336,
      "v": 68
    },
    {
      "midi": 45,
      "hit": false,
      "t": 117818.28000000177,
      "d": 659.091458333336,
      "v": 44
    },
    {
      "midi": 52,
      "hit": false,
      "t": 117818.28000000177,
      "d": 659.091458333336,
      "v": 44
    },
    {
      "midi": 61,
      "hit": false,
      "t": 117818.28000000177,
      "d": 659.091458333336,
      "v": 74
    },
    {
      "midi": 64,
      "hit": false,
      "t": 117818.28000000177,
      "d": 659.091458333336,
      "v": 74
    },
    {
      "midi": 69,
      "hit": false,
      "t": 117818.28000000177,
      "d": 659.091458333336,
      "v": 74
    },
    {
      "midi": 64,
      "hit": false,
      "t": 117829.64364583415,
      "d": 102.27281249999942,
      "v": 76
    },
    {
      "midi": 76,
      "hit": false,
      "t": 117829.64364583415,
      "d": 102.27281249999942,
      "v": 76
    },
    {
      "midi": 64,
      "hit": false,
      "t": 117966.00739583415,
      "d": 102.27281249999942,
      "v": 41
    },
    {
      "midi": 76,
      "hit": false,
      "t": 117966.00739583415,
      "d": 102.27281249999942,
      "v": 41
    },
    {
      "midi": 64,
      "hit": false,
      "t": 118102.37114583416,
      "d": 102.27281249999942,
      "v": 41
    },
    {
      "midi": 76,
      "hit": false,
      "t": 118102.37114583416,
      "d": 102.27281249999942,
      "v": 41
    },
    {
      "midi": 33,
      "hit": false,
      "t": 118227.37125000058,
      "d": 68.18187499999476,
      "v": 93
    },
    {
      "midi": 64,
      "hit": false,
      "t": 118238.73489583416,
      "d": 102.27281249999942,
      "v": 41
    },
    {
      "midi": 76,
      "hit": false,
      "t": 118238.73489583416,
      "d": 102.27281249999942,
      "v": 41
    },
    {
      "midi": 35,
      "hit": false,
      "t": 118363.73500000057,
      "d": 329.545729166668,
      "v": 93
    },
    {
      "midi": 64,
      "hit": false,
      "t": 118375.09864583416,
      "d": 102.27281249999942,
      "v": 41
    },
    {
      "midi": 76,
      "hit": false,
      "t": 118375.09864583416,
      "d": 102.27281249999942,
      "v": 41
    },
    {
      "midi": 64,
      "hit": false,
      "t": 118511.46239583417,
      "d": 102.27281249999942,
      "v": 41
    },
    {
      "midi": 76,
      "hit": false,
      "t": 118511.46239583417,
      "d": 102.27281249999942,
      "v": 41
    },
    {
      "midi": 61,
      "hit": false,
      "t": 118636.46250000177,
      "d": 386.3639583333279,
      "v": 68
    },
    {
      "midi": 64,
      "hit": false,
      "t": 118636.46250000177,
      "d": 386.3639583333279,
      "v": 68
    },
    {
      "midi": 69,
      "hit": false,
      "t": 118636.46250000177,
      "d": 386.3639583333279,
      "v": 68
    },
    {
      "midi": 45,
      "hit": false,
      "t": 118636.46250000177,
      "d": 943.1826041666791,
      "v": 76
    },
    {
      "midi": 61,
      "hit": false,
      "t": 118636.46250000178,
      "d": 386.3639583333279,
      "v": 74
    },
    {
      "midi": 64,
      "hit": false,
      "t": 118636.46250000178,
      "d": 386.3639583333279,
      "v": 74
    },
    {
      "midi": 69,
      "hit": false,
      "t": 118636.46250000178,
      "d": 386.3639583333279,
      "v": 74
    },
    {
      "midi": 45,
      "hit": false,
      "t": 118636.46250000178,
      "d": 943.1826041666791,
      "v": 44
    },
    {
      "midi": 52,
      "hit": false,
      "t": 118636.46250000178,
      "d": 943.1826041666791,
      "v": 44
    },
    {
      "midi": 64,
      "hit": false,
      "t": 118647.82614583417,
      "d": 102.27281249999942,
      "v": 76
    },
    {
      "midi": 76,
      "hit": false,
      "t": 118647.82614583417,
      "d": 102.27281249999942,
      "v": 76
    },
    {
      "midi": 35,
      "hit": false,
      "t": 118772.82625000057,
      "d": 68.18187499999476,
      "v": 93
    },
    {
      "midi": 64,
      "hit": false,
      "t": 118784.18989583418,
      "d": 102.27281249999942,
      "v": 41
    },
    {
      "midi": 76,
      "hit": false,
      "t": 118784.18989583418,
      "d": 102.27281249999942,
      "v": 41
    },
    {
      "midi": 37,
      "hit": false,
      "t": 118909.19000000056,
      "d": 363.6366666666727,
      "v": 93
    },
    {
      "midi": 64,
      "hit": false,
      "t": 118920.55364583418,
      "d": 102.27281249999942,
      "v": 41
    },
    {
      "midi": 76,
      "hit": false,
      "t": 118920.55364583418,
      "d": 102.27281249999942,
      "v": 41
    },
    {
      "midi": 61,
      "hit": false,
      "t": 119045.55375000177,
      "d": 250.00020833333838,
      "v": 68
    },
    {
      "midi": 64,
      "hit": false,
      "t": 119045.55375000177,
      "d": 250.00020833333838,
      "v": 68
    },
    {
      "midi": 69,
      "hit": false,
      "t": 119045.55375000177,
      "d": 250.00020833333838,
      "v": 68
    },
    {
      "midi": 61,
      "hit": false,
      "t": 119045.55375000178,
      "d": 250.00020833333838,
      "v": 74
    },
    {
      "midi": 64,
      "hit": false,
      "t": 119045.55375000178,
      "d": 250.00020833333838,
      "v": 74
    },
    {
      "midi": 69,
      "hit": false,
      "t": 119045.55375000178,
      "d": 250.00020833333838,
      "v": 74
    },
    {
      "midi": 64,
      "hit": false,
      "t": 119056.91739583419,
      "d": 102.27281249999942,
      "v": 41
    },
    {
      "midi": 76,
      "hit": false,
      "t": 119056.91739583419,
      "d": 102.27281249999942,
      "v": 41
    },
    {
      "midi": 64,
      "hit": false,
      "t": 119193.28114583419,
      "d": 102.27281249999942,
      "v": 41
    },
    {
      "midi": 76,
      "hit": false,
      "t": 119193.28114583419,
      "d": 102.27281249999942,
      "v": 41
    },
    {
      "midi": 37,
      "hit": false,
      "t": 119318.28125000057,
      "d": 79.54552083332965,
      "v": 93
    },
    {
      "midi": 61,
      "hit": false,
      "t": 119318.28125000178,
      "d": 22.72729166666977,
      "v": 68
    },
    {
      "midi": 64,
      "hit": false,
      "t": 119318.28125000178,
      "d": 22.72729166666977,
      "v": 68
    },
    {
      "midi": 69,
      "hit": false,
      "t": 119318.28125000178,
      "d": 22.72729166666977,
      "v": 68
    },
    {
      "midi": 61,
      "hit": false,
      "t": 119318.28125000179,
      "d": 22.72729166666977,
      "v": 74
    },
    {
      "midi": 64,
      "hit": false,
      "t": 119318.28125000179,
      "d": 22.72729166666977,
      "v": 74
    },
    {
      "midi": 69,
      "hit": false,
      "t": 119318.28125000179,
      "d": 22.72729166666977,
      "v": 74
    },
    {
      "midi": 64,
      "hit": false,
      "t": 119329.6448958342,
      "d": 102.27281249999942,
      "v": 41
    },
    {
      "midi": 76,
      "hit": false,
      "t": 119329.6448958342,
      "d": 102.27281249999942,
      "v": 41
    },
    {
      "midi": 38,
      "hit": false,
      "t": 119454.64500000056,
      "d": 386.3639583333279,
      "v": 93
    },
    {
      "midi": 61,
      "hit": false,
      "t": 119454.64500000178,
      "d": 250.00020833333838,
      "v": 68
    },
    {
      "midi": 64,
      "hit": false,
      "t": 119454.64500000178,
      "d": 250.00020833333838,
      "v": 68
    },
    {
      "midi": 69,
      "hit": false,
      "t": 119454.64500000178,
      "d": 250.00020833333838,
      "v": 68
    },
    {
      "midi": 61,
      "hit": false,
      "t": 119454.6450000018,
      "d": 250.00020833333838,
      "v": 74
    },
    {
      "midi": 64,
      "hit": false,
      "t": 119454.6450000018,
      "d": 250.00020833333838,
      "v": 74
    },
    {
      "midi": 69,
      "hit": false,
      "t": 119454.6450000018,
      "d": 250.00020833333838,
      "v": 74
    },
    {
      "midi": 64,
      "hit": false,
      "t": 119466.0086458342,
      "d": 102.27281249999942,
      "v": 74
    },
    {
      "midi": 76,
      "hit": false,
      "t": 119466.0086458342,
      "d": 102.27281249999942,
      "v": 74
    },
    {
      "midi": 64,
      "hit": false,
      "t": 119602.3723958342,
      "d": 102.27281249999942,
      "v": 47
    },
    {
      "midi": 76,
      "hit": false,
      "t": 119602.3723958342,
      "d": 102.27281249999942,
      "v": 47
    },
    {
      "midi": 57,
      "hit": false,
      "t": 119727.37250000179,
      "d": 22.72729166666977,
      "v": 68
    },
    {
      "midi": 61,
      "hit": false,
      "t": 119727.37250000179,
      "d": 22.72729166666977,
      "v": 68
    },
    {
      "midi": 64,
      "hit": false,
      "t": 119727.37250000179,
      "d": 22.72729166666977,
      "v": 68
    },
    {
      "midi": 57,
      "hit": false,
      "t": 119727.3725000018,
      "d": 22.72729166666977,
      "v": 74
    },
    {
      "midi": 61,
      "hit": false,
      "t": 119727.3725000018,
      "d": 22.72729166666977,
      "v": 74
    },
    {
      "midi": 64,
      "hit": false,
      "t": 119727.3725000018,
      "d": 22.72729166666977,
      "v": 74
    },
    {
      "midi": 64,
      "hit": false,
      "t": 119738.7361458342,
      "d": 102.27281249999942,
      "v": 47
    },
    {
      "midi": 76,
      "hit": false,
      "t": 119738.7361458342,
      "d": 102.27281249999942,
      "v": 47
    },
    {
      "midi": 57,
      "hit": false,
      "t": 119863.73625000179,
      "d": 22.72729166666977,
      "v": 68
    },
    {
      "midi": 61,
      "hit": false,
      "t": 119863.73625000179,
      "d": 22.72729166666977,
      "v": 68
    },
    {
      "midi": 64,
      "hit": false,
      "t": 119863.73625000179,
      "d": 22.72729166666977,
      "v": 68
    },
    {
      "midi": 57,
      "hit": false,
      "t": 119863.7362500018,
      "d": 22.72729166666977,
      "v": 74
    },
    {
      "midi": 61,
      "hit": false,
      "t": 119863.7362500018,
      "d": 22.72729166666977,
      "v": 74
    },
    {
      "midi": 64,
      "hit": false,
      "t": 119863.7362500018,
      "d": 22.72729166666977,
      "v": 74
    },
    {
      "midi": 64,
      "hit": false,
      "t": 119875.09989583421,
      "d": 102.27281249999942,
      "v": 47
    },
    {
      "midi": 76,
      "hit": false,
      "t": 119875.09989583421,
      "d": 102.27281249999942,
      "v": 47
    },
    {
      "midi": 40,
      "hit": false,
      "t": 120000.10000000056,
      "d": 375.000312499993,
      "v": 93
    },
    {
      "midi": 62,
      "hit": false,
      "t": 120000.1000000018,
      "d": 250.00020833333838,
      "v": 68
    },
    {
      "midi": 64,
      "hit": false,
      "t": 120000.1000000018,
      "d": 250.00020833333838,
      "v": 68
    },
    {
      "midi": 69,
      "hit": false,
      "t": 120000.1000000018,
      "d": 250.00020833333838,
      "v": 68
    },
    {
      "midi": 45,
      "hit": false,
      "t": 120000.1000000018,
      "d": 659.0914583333506,
      "v": 76
    },
    {
      "midi": 45,
      "hit": false,
      "t": 120000.10000000181,
      "d": 250.00020833333838,
      "v": 44
    },
    {
      "midi": 62,
      "hit": false,
      "t": 120000.10000000181,
      "d": 250.00020833333838,
      "v": 74
    },
    {
      "midi": 64,
      "hit": false,
      "t": 120000.10000000181,
      "d": 250.00020833333838,
      "v": 74
    },
    {
      "midi": 69,
      "hit": false,
      "t": 120000.10000000181,
      "d": 250.00020833333838,
      "v": 74
    },
    {
      "midi": 64,
      "hit": false,
      "t": 120011.46364583421,
      "d": 102.27281249999942,
      "v": 76
    },
    {
      "midi": 76,
      "hit": false,
      "t": 120011.46364583421,
      "d": 102.27281249999942,
      "v": 76
    },
    {
      "midi": 64,
      "hit": false,
      "t": 120147.82739583422,
      "d": 102.27281249999942,
      "v": 41
    },
    {
      "midi": 76,
      "hit": false,
      "t": 120147.82739583422,
      "d": 102.27281249999942,
      "v": 41
    },
    {
      "midi": 64,
      "hit": false,
      "t": 120284.19114583422,
      "d": 102.27281249999942,
      "v": 41
    },
    {
      "midi": 76,
      "hit": false,
      "t": 120284.19114583422,
      "d": 102.27281249999942,
      "v": 41
    },
    {
      "midi": 40,
      "hit": false,
      "t": 120409.19125000056,
      "d": 90.90916666666453,
      "v": 93
    },
    {
      "midi": 62,
      "hit": false,
      "t": 120409.19125000181,
      "d": 250.00020833333838,
      "v": 68
    },
    {
      "midi": 64,
      "hit": false,
      "t": 120409.19125000181,
      "d": 250.00020833333838,
      "v": 68
    },
    {
      "midi": 69,
      "hit": false,
      "t": 120409.19125000181,
      "d": 250.00020833333838,
      "v": 68
    },
    {
      "midi": 45,
      "hit": false,
      "t": 120409.19125000182,
      "d": 250.00020833333838,
      "v": 44
    },
    {
      "midi": 62,
      "hit": false,
      "t": 120409.19125000182,
      "d": 250.00020833333838,
      "v": 74
    },
    {
      "midi": 64,
      "hit": false,
      "t": 120409.19125000182,
      "d": 250.00020833333838,
      "v": 74
    },
    {
      "midi": 69,
      "hit": false,
      "t": 120409.19125000182,
      "d": 250.00020833333838,
      "v": 74
    },
    {
      "midi": 64,
      "hit": false,
      "t": 120420.55489583423,
      "d": 102.27281249999942,
      "v": 41
    },
    {
      "midi": 76,
      "hit": false,
      "t": 120420.55489583423,
      "d": 102.27281249999942,
      "v": 41
    },
    {
      "midi": 42,
      "hit": false,
      "t": 120545.55500000056,
      "d": 352.2730208333378,
      "v": 93
    },
    {
      "midi": 64,
      "hit": false,
      "t": 120556.91864583423,
      "d": 102.27281249999942,
      "v": 41
    },
    {
      "midi": 76,
      "hit": false,
      "t": 120556.91864583423,
      "d": 102.27281249999942,
      "v": 41
    },
    {
      "midi": 64,
      "hit": false,
      "t": 120693.28239583423,
      "d": 102.27281249999942,
      "v": 41
    },
    {
      "midi": 76,
      "hit": false,
      "t": 120693.28239583423,
      "d": 102.27281249999942,
      "v": 41
    },
    {
      "midi": 62,
      "hit": false,
      "t": 120818.28250000182,
      "d": 250.00020833333838,
      "v": 68
    },
    {
      "midi": 64,
      "hit": false,
      "t": 120818.28250000182,
      "d": 250.00020833333838,
      "v": 68
    },
    {
      "midi": 69,
      "hit": false,
      "t": 120818.28250000182,
      "d": 250.00020833333838,
      "v": 68
    },
    {
      "midi": 45,
      "hit": false,
      "t": 120818.28250000182,
      "d": 659.0914583333506,
      "v": 76
    },
    {
      "midi": 62,
      "hit": false,
      "t": 120818.28250000183,
      "d": 250.00020833333838,
      "v": 74
    },
    {
      "midi": 64,
      "hit": false,
      "t": 120818.28250000183,
      "d": 250.00020833333838,
      "v": 74
    },
    {
      "midi": 69,
      "hit": false,
      "t": 120818.28250000183,
      "d": 250.00020833333838,
      "v": 74
    },
    {
      "midi": 45,
      "hit": false,
      "t": 120818.28250000183,
      "d": 397.72760416667734,
      "v": 44
    },
    {
      "midi": 64,
      "hit": false,
      "t": 120829.64614583424,
      "d": 102.27281249999942,
      "v": 76
    },
    {
      "midi": 76,
      "hit": false,
      "t": 120829.64614583424,
      "d": 102.27281249999942,
      "v": 76
    },
    {
      "midi": 42,
      "hit": false,
      "t": 120954.64625000056,
      "d": 147.72739583333896,
      "v": 93
    },
    {
      "midi": 64,
      "hit": false,
      "t": 120966.00989583424,
      "d": 102.27281249999942,
      "v": 41
    },
    {
      "midi": 76,
      "hit": false,
      "t": 120966.00989583424,
      "d": 102.27281249999942,
      "v": 41
    },
    {
      "midi": 45,
      "hit": false,
      "t": 121091.01000000056,
      "d": 147.72739583333896,
      "v": 93
    },
    {
      "midi": 64,
      "hit": false,
      "t": 121102.37364583425,
      "d": 102.27281249999942,
      "v": 41
    },
    {
      "midi": 76,
      "hit": false,
      "t": 121102.37364583425,
      "d": 102.27281249999942,
      "v": 41
    },
    {
      "midi": 40,
      "hit": false,
      "t": 121227.37375000057,
      "d": 125.00010416666919,
      "v": 93
    },
    {
      "midi": 62,
      "hit": false,
      "t": 121227.37375000183,
      "d": 250.00020833333838,
      "v": 68
    },
    {
      "midi": 64,
      "hit": false,
      "t": 121227.37375000183,
      "d": 250.00020833333838,
      "v": 68
    },
    {
      "midi": 69,
      "hit": false,
      "t": 121227.37375000183,
      "d": 250.00020833333838,
      "v": 68
    },
    {
      "midi": 45,
      "hit": false,
      "t": 121227.37375000185,
      "d": 250.00020833333838,
      "v": 44
    },
    {
      "midi": 62,
      "hit": false,
      "t": 121227.37375000185,
      "d": 250.00020833333838,
      "v": 74
    },
    {
      "midi": 64,
      "hit": false,
      "t": 121227.37375000185,
      "d": 250.00020833333838,
      "v": 74
    },
    {
      "midi": 69,
      "hit": false,
      "t": 121227.37375000185,
      "d": 250.00020833333838,
      "v": 74
    },
    {
      "midi": 64,
      "hit": false,
      "t": 121238.73739583425,
      "d": 102.27281249999942,
      "v": 41
    },
    {
      "midi": 76,
      "hit": false,
      "t": 121238.73739583425,
      "d": 102.27281249999942,
      "v": 41
    },
    {
      "midi": 45,
      "hit": false,
      "t": 121363.73750000057,
      "d": 329.5457291666535,
      "v": 93
    },
    {
      "midi": 64,
      "hit": false,
      "t": 121375.10114583425,
      "d": 102.27281249999942,
      "v": 41
    },
    {
      "midi": 76,
      "hit": false,
      "t": 121375.10114583425,
      "d": 102.27281249999942,
      "v": 41
    },
    {
      "midi": 64,
      "hit": false,
      "t": 121511.46489583426,
      "d": 102.27281249999942,
      "v": 41
    },
    {
      "midi": 76,
      "hit": false,
      "t": 121511.46489583426,
      "d": 102.27281249999942,
      "v": 41
    },
    {
      "midi": 46,
      "hit": false,
      "t": 121636.46500000056,
      "d": 272.7274999999936,
      "v": 93
    },
    {
      "midi": 45,
      "hit": false,
      "t": 121636.46500000184,
      "d": 250.00020833333838,
      "v": 76
    },
    {
      "midi": 61,
      "hit": false,
      "t": 121636.46500000184,
      "d": 250.00020833333838,
      "v": 68
    },
    {
      "midi": 64,
      "hit": false,
      "t": 121636.46500000184,
      "d": 250.00020833333838,
      "v": 68
    },
    {
      "midi": 69,
      "hit": false,
      "t": 121636.46500000184,
      "d": 250.00020833333838,
      "v": 68
    },
    {
      "midi": 45,
      "hit": false,
      "t": 121636.46500000186,
      "d": 250.00020833333838,
      "v": 44
    },
    {
      "midi": 61,
      "hit": false,
      "t": 121636.46500000186,
      "d": 250.00020833333838,
      "v": 74
    },
    {
      "midi": 64,
      "hit": false,
      "t": 121636.46500000186,
      "d": 250.00020833333838,
      "v": 74
    },
    {
      "midi": 69,
      "hit": false,
      "t": 121636.46500000186,
      "d": 250.00020833333838,
      "v": 74
    },
    {
      "midi": 64,
      "hit": false,
      "t": 121647.82864583426,
      "d": 102.27281249999942,
      "v": 74
    },
    {
      "midi": 76,
      "hit": false,
      "t": 121647.82864583426,
      "d": 102.27281249999942,
      "v": 74
    },
    {
      "midi": 64,
      "hit": false,
      "t": 121784.19239583427,
      "d": 102.27281249999942,
      "v": 47
    },
    {
      "midi": 76,
      "hit": false,
      "t": 121784.19239583427,
      "d": 102.27281249999942,
      "v": 47
    },
    {
      "midi": 47,
      "hit": false,
      "t": 121909.19250000056,
      "d": 261.36385416667326,
      "v": 93
    },
    {
      "midi": 61,
      "hit": false,
      "t": 121909.19250000185,
      "d": 136.36375000000407,
      "v": 68
    },
    {
      "midi": 64,
      "hit": false,
      "t": 121909.19250000185,
      "d": 136.36375000000407,
      "v": 68
    },
    {
      "midi": 69,
      "hit": false,
      "t": 121909.19250000185,
      "d": 250.00020833333838,
      "v": 68
    },
    {
      "midi": 61,
      "hit": false,
      "t": 121909.19250000187,
      "d": 136.36375000000407,
      "v": 74
    },
    {
      "midi": 64,
      "hit": false,
      "t": 121909.19250000187,
      "d": 136.36375000000407,
      "v": 74
    },
    {
      "midi": 69,
      "hit": false,
      "t": 121909.19250000187,
      "d": 250.00020833333838,
      "v": 74
    },
    {
      "midi": 64,
      "hit": false,
      "t": 121920.55614583427,
      "d": 102.27281249999942,
      "v": 47
    },
    {
      "midi": 76,
      "hit": false,
      "t": 121920.55614583427,
      "d": 102.27281249999942,
      "v": 47
    },
    {
      "midi": 57,
      "hit": false,
      "t": 122045.55625000186,
      "d": 22.72729166666977,
      "v": 68
    },
    {
      "midi": 61,
      "hit": false,
      "t": 122045.55625000186,
      "d": 22.72729166666977,
      "v": 68
    },
    {
      "midi": 64,
      "hit": false,
      "t": 122045.55625000186,
      "d": 22.72729166666977,
      "v": 68
    },
    {
      "midi": 57,
      "hit": false,
      "t": 122045.55625000187,
      "d": 22.72729166666977,
      "v": 74
    },
    {
      "midi": 61,
      "hit": false,
      "t": 122045.55625000187,
      "d": 22.72729166666977,
      "v": 74
    },
    {
      "midi": 64,
      "hit": false,
      "t": 122045.55625000187,
      "d": 22.72729166666977,
      "v": 74
    },
    {
      "midi": 64,
      "hit": false,
      "t": 122056.91989583427,
      "d": 102.27281249999942,
      "v": 47
    },
    {
      "midi": 76,
      "hit": false,
      "t": 122056.91989583427,
      "d": 102.27281249999942,
      "v": 47
    },
    {
      "midi": 40,
      "hit": false,
      "t": 122181.92000000057,
      "d": 534.0913541666669,
      "v": 93
    },
    {
      "midi": 54,
      "hit": false,
      "t": 122181.92000000186,
      "d": 90.90916666666453,
      "v": 63
    },
    {
      "midi": 59,
      "hit": false,
      "t": 122181.92000000186,
      "d": 136.36375000000407,
      "v": 67
    },
    {
      "midi": 64,
      "hit": false,
      "t": 122181.92000000186,
      "d": 136.36375000000407,
      "v": 67
    },
    {
      "midi": 40,
      "hit": false,
      "t": 122181.92000000186,
      "d": 670.4551041666855,
      "v": 76
    },
    {
      "midi": 54,
      "hit": false,
      "t": 122181.92000000188,
      "d": 90.90916666666453,
      "v": 74
    },
    {
      "midi": 59,
      "hit": false,
      "t": 122181.92000000188,
      "d": 136.36375000000407,
      "v": 73
    },
    {
      "midi": 64,
      "hit": false,
      "t": 122181.92000000188,
      "d": 136.36375000000407,
      "v": 73
    },
    {
      "midi": 40,
      "hit": false,
      "t": 122181.92000000188,
      "d": 670.4551041666855,
      "v": 44
    },
    {
      "midi": 64,
      "hit": false,
      "t": 122193.28364583428,
      "d": 102.27281249999942,
      "v": 76
    },
    {
      "midi": 76,
      "hit": false,
      "t": 122193.28364583428,
      "d": 102.27281249999942,
      "v": 76
    },
    {
      "midi": 68,
      "hit": false,
      "t": 122193.2836458352,
      "d": 261.36385416667326,
      "v": 30
    },
    {
      "midi": 68,
      "hit": false,
      "t": 122193.28364583521,
      "d": 261.36385416667326,
      "v": 44
    },
    {
      "midi": 59,
      "hit": false,
      "t": 122318.28375000186,
      "d": 22.72729166666977,
      "v": 64
    },
    {
      "midi": 64,
      "hit": false,
      "t": 122318.28375000186,
      "d": 22.72729166666977,
      "v": 46
    },
    {
      "midi": 56,
      "hit": false,
      "t": 122318.28375000186,
      "d": 386.36395833334245,
      "v": 30
    },
    {
      "midi": 59,
      "hit": false,
      "t": 122318.28375000188,
      "d": 22.72729166666977,
      "v": 70
    },
    {
      "midi": 64,
      "hit": false,
      "t": 122318.28375000188,
      "d": 22.72729166666977,
      "v": 52
    },
    {
      "midi": 56,
      "hit": false,
      "t": 122318.28375000188,
      "d": 386.36395833334245,
      "v": 44
    },
    {
      "midi": 64,
      "hit": false,
      "t": 122329.64739583428,
      "d": 102.27281249999942,
      "v": 41
    },
    {
      "midi": 76,
      "hit": false,
      "t": 122329.64739583428,
      "d": 102.27281249999942,
      "v": 41
    },
    {
      "midi": 59,
      "hit": false,
      "t": 122454.64750000187,
      "d": 22.72729166666977,
      "v": 46
    },
    {
      "midi": 64,
      "hit": false,
      "t": 122454.64750000187,
      "d": 22.72729166666977,
      "v": 46
    },
    {
      "midi": 59,
      "hit": false,
      "t": 122454.64750000188,
      "d": 22.72729166666977,
      "v": 52
    },
    {
      "midi": 64,
      "hit": false,
      "t": 122454.64750000188,
      "d": 22.72729166666977,
      "v": 52
    },
    {
      "midi": 64,
      "hit": false,
      "t": 122466.01114583429,
      "d": 102.27281249999942,
      "v": 41
    },
    {
      "midi": 76,
      "hit": false,
      "t": 122466.01114583429,
      "d": 102.27281249999942,
      "v": 41
    },
    {
      "midi": 59,
      "hit": false,
      "t": 122591.01125000187,
      "d": 90.90916666666453,
      "v": 47
    },
    {
      "midi": 64,
      "hit": false,
      "t": 122591.01125000187,
      "d": 90.90916666666453,
      "v": 67
    },
    {
      "midi": 68,
      "hit": false,
      "t": 122591.01125000187,
      "d": 113.6364583333343,
      "v": 30
    },
    {
      "midi": 59,
      "hit": false,
      "t": 122591.01125000189,
      "d": 90.90916666666453,
      "v": 53
    },
    {
      "midi": 64,
      "hit": false,
      "t": 122591.01125000189,
      "d": 90.90916666666453,
      "v": 73
    },
    {
      "midi": 68,
      "hit": false,
      "t": 122591.01125000189,
      "d": 113.6364583333343,
      "v": 44
    },
    {
      "midi": 64,
      "hit": false,
      "t": 122602.37489583429,
      "d": 102.27281249999942,
      "v": 41
    },
    {
      "midi": 76,
      "hit": false,
      "t": 122602.37489583429,
      "d": 102.27281249999942,
      "v": 41
    },
    {
      "midi": 35,
      "hit": false,
      "t": 122727.37500000057,
      "d": 261.36385416667326,
      "v": 93
    },
    {
      "midi": 59,
      "hit": false,
      "t": 122727.37500000188,
      "d": 102.27281249999942,
      "v": 72
    },
    {
      "midi": 64,
      "hit": false,
      "t": 122727.37500000188,
      "d": 102.27281249999942,
      "v": 72
    },
    {
      "midi": 59,
      "hit": false,
      "t": 122727.37500000189,
      "d": 102.27281249999942,
      "v": 74
    },
    {
      "midi": 64,
      "hit": false,
      "t": 122727.37500000189,
      "d": 102.27281249999942,
      "v": 74
    },
    {
      "midi": 64,
      "hit": false,
      "t": 122738.7386458343,
      "d": 102.27281249999942,
      "v": 41
    },
    {
      "midi": 76,
      "hit": false,
      "t": 122738.7386458343,
      "d": 102.27281249999942,
      "v": 41
    },
    {
      "midi": 68,
      "hit": false,
      "t": 122738.73864583521,
      "d": 113.6364583333343,
      "v": 30
    },
    {
      "midi": 68,
      "hit": false,
      "t": 122738.73864583523,
      "d": 113.6364583333343,
      "v": 44
    },
    {
      "midi": 59,
      "hit": false,
      "t": 122863.73875000188,
      "d": 11.363645833334886,
      "v": 30
    },
    {
      "midi": 64,
      "hit": false,
      "t": 122863.73875000188,
      "d": 11.363645833334886,
      "v": 30
    },
    {
      "midi": 68,
      "hit": false,
      "t": 122863.73875000188,
      "d": 34.09093750000466,
      "v": 30
    },
    {
      "midi": 59,
      "hit": false,
      "t": 122863.7387500019,
      "d": 11.363645833334886,
      "v": 44
    },
    {
      "midi": 64,
      "hit": false,
      "t": 122863.7387500019,
      "d": 11.363645833334886,
      "v": 44
    },
    {
      "midi": 68,
      "hit": false,
      "t": 122863.7387500019,
      "d": 34.09093750000466,
      "v": 44
    },
    {
      "midi": 64,
      "hit": false,
      "t": 122875.1023958343,
      "d": 102.27281249999942,
      "v": 41
    },
    {
      "midi": 76,
      "hit": false,
      "t": 122875.1023958343,
      "d": 102.27281249999942,
      "v": 41
    },
    {
      "midi": 68,
      "hit": false,
      "t": 123000.10250000189,
      "d": 261.36385416667326,
      "v": 64
    },
    {
      "midi": 59,
      "hit": false,
      "t": 123000.10250000189,
      "d": 397.72760416667734,
      "v": 64
    },
    {
      "midi": 64,
      "hit": false,
      "t": 123000.10250000189,
      "d": 397.72760416667734,
      "v": 64
    },
    {
      "midi": 56,
      "hit": false,
      "t": 123000.10250000189,
      "d": 534.0913541666814,
      "v": 64
    },
    {
      "midi": 40,
      "hit": false,
      "t": 123000.10250000189,
      "d": 1079.5463541666832,
      "v": 76
    },
    {
      "midi": 68,
      "hit": false,
      "t": 123000.1025000019,
      "d": 261.36385416667326,
      "v": 70
    },
    {
      "midi": 59,
      "hit": false,
      "t": 123000.1025000019,
      "d": 397.72760416667734,
      "v": 70
    },
    {
      "midi": 64,
      "hit": false,
      "t": 123000.1025000019,
      "d": 397.72760416667734,
      "v": 70
    },
    {
      "midi": 56,
      "hit": false,
      "t": 123000.1025000019,
      "d": 534.0913541666814,
      "v": 70
    },
    {
      "midi": 40,
      "hit": false,
      "t": 123000.1025000019,
      "d": 1079.5463541666832,
      "v": 44
    },
    {
      "midi": 64,
      "hit": false,
      "t": 123011.4661458343,
      "d": 102.27281249999942,
      "v": 76
    },
    {
      "midi": 76,
      "hit": false,
      "t": 123011.4661458343,
      "d": 102.27281249999942,
      "v": 76
    },
    {
      "midi": 35,
      "hit": false,
      "t": 123136.46625000058,
      "d": 125.00010416666919,
      "v": 93
    },
    {
      "midi": 64,
      "hit": false,
      "t": 123147.82989583431,
      "d": 102.27281249999942,
      "v": 41
    },
    {
      "midi": 76,
      "hit": false,
      "t": 123147.82989583431,
      "d": 102.27281249999942,
      "v": 41
    },
    {
      "midi": 40,
      "hit": false,
      "t": 123272.83000000058,
      "d": 125.00010416666919,
      "v": 93
    },
    {
      "midi": 64,
      "hit": false,
      "t": 123284.19364583431,
      "d": 102.27281249999942,
      "v": 41
    },
    {
      "midi": 76,
      "hit": false,
      "t": 123284.19364583431,
      "d": 102.27281249999942,
      "v": 41
    },
    {
      "midi": 64,
      "hit": false,
      "t": 123420.55739583432,
      "d": 102.27281249999942,
      "v": 41
    },
    {
      "midi": 76,
      "hit": false,
      "t": 123420.55739583432,
      "d": 102.27281249999942,
      "v": 41
    },
    {
      "midi": 61,
      "hit": false,
      "t": 123522.83020833344,
      "d": 397.7276041666628,
      "v": 64
    },
    {
      "midi": 35,
      "hit": false,
      "t": 123545.55750000059,
      "d": 125.00010416666919,
      "v": 93
    },
    {
      "midi": 59,
      "hit": false,
      "t": 123545.5575000019,
      "d": 125.00010416666919,
      "v": 76
    },
    {
      "midi": 64,
      "hit": false,
      "t": 123545.5575000019,
      "d": 125.00010416666919,
      "v": 76
    },
    {
      "midi": 68,
      "hit": false,
      "t": 123545.5575000019,
      "d": 125.00010416666919,
      "v": 76
    },
    {
      "midi": 59,
      "hit": false,
      "t": 123545.55750000192,
      "d": 125.00010416666919,
      "v": 74
    },
    {
      "midi": 64,
      "hit": false,
      "t": 123545.55750000192,
      "d": 125.00010416666919,
      "v": 74
    },
    {
      "midi": 68,
      "hit": false,
      "t": 123545.55750000192,
      "d": 125.00010416666919,
      "v": 74
    },
    {
      "midi": 64,
      "hit": false,
      "t": 123556.92114583432,
      "d": 102.27281249999942,
      "v": 41
    },
    {
      "midi": 76,
      "hit": false,
      "t": 123556.92114583432,
      "d": 102.27281249999942,
      "v": 41
    },
    {
      "midi": 64,
      "hit": false,
      "t": 123693.28489583432,
      "d": 102.27281249999942,
      "v": 41
    },
    {
      "midi": 76,
      "hit": false,
      "t": 123693.28489583432,
      "d": 102.27281249999942,
      "v": 41
    },
    {
      "midi": 40,
      "hit": false,
      "t": 123818.2850000006,
      "d": 125.00010416666919,
      "v": 93
    },
    {
      "midi": 52,
      "hit": false,
      "t": 123818.28500000191,
      "d": 68.18187499999476,
      "v": 30
    },
    {
      "midi": 59,
      "hit": false,
      "t": 123818.28500000191,
      "d": 68.18187499999476,
      "v": 30
    },
    {
      "midi": 64,
      "hit": false,
      "t": 123818.28500000191,
      "d": 68.18187499999476,
      "v": 30
    },
    {
      "midi": 56,
      "hit": false,
      "t": 123818.28500000191,
      "d": 125.00010416665464,
      "v": 30
    },
    {
      "midi": 52,
      "hit": false,
      "t": 123818.28500000192,
      "d": 68.18187499999476,
      "v": 44
    },
    {
      "midi": 59,
      "hit": false,
      "t": 123818.28500000192,
      "d": 68.18187499999476,
      "v": 44
    },
    {
      "midi": 64,
      "hit": false,
      "t": 123818.28500000192,
      "d": 68.18187499999476,
      "v": 44
    },
    {
      "midi": 56,
      "hit": false,
      "t": 123818.28500000192,
      "d": 125.00010416665464,
      "v": 44
    },
    {
      "midi": 64,
      "hit": false,
      "t": 123829.64864583433,
      "d": 102.27281249999942,
      "v": 74
    },
    {
      "midi": 76,
      "hit": false,
      "t": 123829.64864583433,
      "d": 102.27281249999942,
      "v": 74
    },
    {
      "midi": 64,
      "hit": false,
      "t": 123931.92145833344,
      "d": 397.7276041666628,
      "v": 64
    },
    {
      "midi": 35,
      "hit": false,
      "t": 123954.6487500006,
      "d": 125.00010416666919,
      "v": 93
    },
    {
      "midi": 59,
      "hit": false,
      "t": 123954.6487500019,
      "d": 125.00010416666919,
      "v": 76
    },
    {
      "midi": 64,
      "hit": false,
      "t": 123954.6487500019,
      "d": 125.00010416666919,
      "v": 76
    },
    {
      "midi": 68,
      "hit": false,
      "t": 123954.6487500019,
      "d": 125.00010416666919,
      "v": 76
    },
    {
      "midi": 59,
      "hit": false,
      "t": 123954.64875000191,
      "d": 125.00010416666919,
      "v": 74
    },
    {
      "midi": 64,
      "hit": false,
      "t": 123954.64875000191,
      "d": 125.00010416666919,
      "v": 74
    },
    {
      "midi": 68,
      "hit": false,
      "t": 123954.64875000191,
      "d": 125.00010416666919,
      "v": 74
    },
    {
      "midi": 64,
      "hit": false,
      "t": 123966.01239583433,
      "d": 102.27281249999942,
      "v": 47
    },
    {
      "midi": 76,
      "hit": false,
      "t": 123966.01239583433,
      "d": 102.27281249999942,
      "v": 47
    },
    {
      "midi": 64,
      "hit": false,
      "t": 124102.37614583434,
      "d": 102.27281249999942,
      "v": 47
    },
    {
      "midi": 76,
      "hit": false,
      "t": 124102.37614583434,
      "d": 102.27281249999942,
      "v": 47
    },
    {
      "midi": 37,
      "hit": false,
      "t": 124227.37625000061,
      "d": 68.18187499999476,
      "v": 93
    },
    {
      "midi": 64,
      "hit": false,
      "t": 124238.73989583434,
      "d": 102.27281249999942,
      "v": 47
    },
    {
      "midi": 76,
      "hit": false,
      "t": 124238.73989583434,
      "d": 102.27281249999942,
      "v": 47
    },
    {
      "midi": 64,
      "hit": false,
      "t": 124341.01270833344,
      "d": 1352.2738541666622,
      "v": 64
    },
    {
      "midi": 68,
      "hit": false,
      "t": 124341.01270833344,
      "d": 1352.2738541666622,
      "v": 64
    },
    {
      "midi": 71,
      "hit": false,
      "t": 124341.01270833344,
      "d": 1352.2738541666622,
      "v": 64
    },
    {
      "midi": 37,
      "hit": false,
      "t": 124363.7400000006,
      "d": 397.7276041666628,
      "v": 93
    },
    {
      "midi": 61,
      "hit": false,
      "t": 124363.7400000019,
      "d": 261.36385416667326,
      "v": 41
    },
    {
      "midi": 64,
      "hit": false,
      "t": 124363.7400000019,
      "d": 261.36385416667326,
      "v": 41
    },
    {
      "midi": 68,
      "hit": false,
      "t": 124363.7400000019,
      "d": 261.36385416667326,
      "v": 41
    },
    {
      "midi": 49,
      "hit": false,
      "t": 124363.74000000191,
      "d": 125.00010416666919,
      "v": 59
    },
    {
      "midi": 44,
      "hit": false,
      "t": 124363.74000000191,
      "d": 261.36385416667326,
      "v": 59
    },
    {
      "midi": 56,
      "hit": false,
      "t": 124363.74000000191,
      "d": 261.36385416667326,
      "v": 59
    },
    {
      "midi": 61,
      "hit": false,
      "t": 124363.74000000191,
      "d": 261.36385416667326,
      "v": 47
    },
    {
      "midi": 64,
      "hit": false,
      "t": 124363.74000000191,
      "d": 261.36385416667326,
      "v": 47
    },
    {
      "midi": 68,
      "hit": false,
      "t": 124363.74000000191,
      "d": 261.36385416667326,
      "v": 47
    },
    {
      "midi": 64,
      "hit": false,
      "t": 124375.10364583434,
      "d": 102.27281249999942,
      "v": 76
    },
    {
      "midi": 76,
      "hit": false,
      "t": 124375.10364583434,
      "d": 102.27281249999942,
      "v": 76
    },
    {
      "midi": 64,
      "hit": false,
      "t": 124511.46739583435,
      "d": 102.27281249999942,
      "v": 41
    },
    {
      "midi": 76,
      "hit": false,
      "t": 124511.46739583435,
      "d": 102.27281249999942,
      "v": 41
    },
    {
      "midi": 56,
      "hit": false,
      "t": 124636.4675000019,
      "d": 261.36385416667326,
      "v": 76
    },
    {
      "midi": 61,
      "hit": false,
      "t": 124636.4675000019,
      "d": 261.36385416667326,
      "v": 47
    },
    {
      "midi": 64,
      "hit": false,
      "t": 124636.4675000019,
      "d": 261.36385416667326,
      "v": 47
    },
    {
      "midi": 68,
      "hit": false,
      "t": 124636.4675000019,
      "d": 261.36385416667326,
      "v": 47
    },
    {
      "midi": 49,
      "hit": false,
      "t": 124636.4675000019,
      "d": 534.0913541666814,
      "v": 76
    },
    {
      "midi": 56,
      "hit": false,
      "t": 124636.46750000192,
      "d": 125.00010416666919,
      "v": 59
    },
    {
      "midi": 44,
      "hit": false,
      "t": 124636.46750000192,
      "d": 261.36385416667326,
      "v": 59
    },
    {
      "midi": 49,
      "hit": false,
      "t": 124636.46750000192,
      "d": 261.36385416667326,
      "v": 59
    },
    {
      "midi": 61,
      "hit": false,
      "t": 124636.46750000192,
      "d": 261.36385416667326,
      "v": 53
    },
    {
      "midi": 64,
      "hit": false,
      "t": 124636.46750000192,
      "d": 261.36385416667326,
      "v": 53
    },
    {
      "midi": 68,
      "hit": false,
      "t": 124636.46750000192,
      "d": 261.36385416667326,
      "v": 53
    },
    {
      "midi": 64,
      "hit": false,
      "t": 124647.83114583435,
      "d": 102.27281249999942,
      "v": 41
    },
    {
      "midi": 76,
      "hit": false,
      "t": 124647.83114583435,
      "d": 102.27281249999942,
      "v": 41
    },
    {
      "midi": 37,
      "hit": false,
      "t": 124772.8312500006,
      "d": 125.00010416666919,
      "v": 93
    },
    {
      "midi": 64,
      "hit": false,
      "t": 124784.19489583436,
      "d": 102.27281249999942,
      "v": 41
    },
    {
      "midi": 76,
      "hit": false,
      "t": 124784.19489583436,
      "d": 102.27281249999942,
      "v": 41
    },
    {
      "midi": 32,
      "hit": false,
      "t": 124909.1950000006,
      "d": 397.7276041666628,
      "v": 93
    },
    {
      "midi": 61,
      "hit": false,
      "t": 124909.19500000191,
      "d": 125.00010416666919,
      "v": 51
    },
    {
      "midi": 64,
      "hit": false,
      "t": 124909.19500000191,
      "d": 125.00010416666919,
      "v": 51
    },
    {
      "midi": 68,
      "hit": false,
      "t": 124909.19500000191,
      "d": 125.00010416666919,
      "v": 51
    },
    {
      "midi": 61,
      "hit": false,
      "t": 124909.19500000193,
      "d": 125.00010416666919,
      "v": 57
    },
    {
      "midi": 64,
      "hit": false,
      "t": 124909.19500000193,
      "d": 125.00010416666919,
      "v": 57
    },
    {
      "midi": 68,
      "hit": false,
      "t": 124909.19500000193,
      "d": 125.00010416666919,
      "v": 57
    },
    {
      "midi": 64,
      "hit": false,
      "t": 124920.55864583436,
      "d": 102.27281249999942,
      "v": 41
    },
    {
      "midi": 76,
      "hit": false,
      "t": 124920.55864583436,
      "d": 102.27281249999942,
      "v": 41
    },
    {
      "midi": 56,
      "hit": false,
      "t": 125045.55875000192,
      "d": 125.00010416666919,
      "v": 76
    },
    {
      "midi": 61,
      "hit": false,
      "t": 125045.55875000192,
      "d": 159.09104166667385,
      "v": 30
    },
    {
      "midi": 64,
      "hit": false,
      "t": 125045.55875000192,
      "d": 159.09104166667385,
      "v": 30
    },
    {
      "midi": 68,
      "hit": false,
      "t": 125045.55875000192,
      "d": 159.09104166667385,
      "v": 30
    },
    {
      "midi": 44,
      "hit": false,
      "t": 125045.55875000193,
      "d": 125.00010416666919,
      "v": 59
    },
    {
      "midi": 49,
      "hit": false,
      "t": 125045.55875000193,
      "d": 125.00010416666919,
      "v": 59
    },
    {
      "midi": 56,
      "hit": false,
      "t": 125045.55875000193,
      "d": 125.00010416666919,
      "v": 59
    },
    {
      "midi": 61,
      "hit": false,
      "t": 125045.55875000193,
      "d": 159.09104166667385,
      "v": 44
    },
    {
      "midi": 64,
      "hit": false,
      "t": 125045.55875000193,
      "d": 159.09104166667385,
      "v": 44
    },
    {
      "midi": 68,
      "hit": false,
      "t": 125045.55875000193,
      "d": 159.09104166667385,
      "v": 44
    },
    {
      "midi": 64,
      "hit": false,
      "t": 125056.92239583436,
      "d": 102.27281249999942,
      "v": 41
    },
    {
      "midi": 76,
      "hit": false,
      "t": 125056.92239583436,
      "d": 102.27281249999942,
      "v": 41
    },
    {
      "midi": 64,
      "hit": false,
      "t": 125193.28614583437,
      "d": 102.27281249999942,
      "v": 76
    },
    {
      "midi": 76,
      "hit": false,
      "t": 125193.28614583437,
      "d": 102.27281249999942,
      "v": 76
    },
    {
      "midi": 32,
      "hit": false,
      "t": 125318.2862500006,
      "d": 125.00010416666919,
      "v": 93
    },
    {
      "midi": 61,
      "hit": false,
      "t": 125318.28625000193,
      "d": 125.00010416666919,
      "v": 30
    },
    {
      "midi": 64,
      "hit": false,
      "t": 125318.28625000193,
      "d": 125.00010416666919,
      "v": 30
    },
    {
      "midi": 68,
      "hit": false,
      "t": 125318.28625000193,
      "d": 125.00010416666919,
      "v": 30
    },
    {
      "midi": 61,
      "hit": false,
      "t": 125318.28625000194,
      "d": 125.00010416666919,
      "v": 44
    },
    {
      "midi": 64,
      "hit": false,
      "t": 125318.28625000194,
      "d": 125.00010416666919,
      "v": 44
    },
    {
      "midi": 68,
      "hit": false,
      "t": 125318.28625000194,
      "d": 125.00010416666919,
      "v": 44
    },
    {
      "midi": 64,
      "hit": false,
      "t": 125329.64989583437,
      "d": 102.27281249999942,
      "v": 41
    },
    {
      "midi": 76,
      "hit": false,
      "t": 125329.64989583437,
      "d": 102.27281249999942,
      "v": 41
    },
    {
      "midi": 37,
      "hit": false,
      "t": 125454.6500000006,
      "d": 397.7276041666628,
      "v": 93
    },
    {
      "midi": 61,
      "hit": false,
      "t": 125454.65000000193,
      "d": 125.00010416666919,
      "v": 51
    },
    {
      "midi": 64,
      "hit": false,
      "t": 125454.65000000193,
      "d": 125.00010416666919,
      "v": 51
    },
    {
      "midi": 68,
      "hit": false,
      "t": 125454.65000000193,
      "d": 125.00010416666919,
      "v": 51
    },
    {
      "midi": 49,
      "hit": false,
      "t": 125454.65000000193,
      "d": 261.36385416667326,
      "v": 76
    },
    {
      "midi": 56,
      "hit": false,
      "t": 125454.65000000193,
      "d": 397.72760416667734,
      "v": 76
    },
    {
      "midi": 61,
      "hit": false,
      "t": 125454.65000000194,
      "d": 125.00010416666919,
      "v": 57
    },
    {
      "midi": 64,
      "hit": false,
      "t": 125454.65000000194,
      "d": 125.00010416666919,
      "v": 57
    },
    {
      "midi": 68,
      "hit": false,
      "t": 125454.65000000194,
      "d": 125.00010416666919,
      "v": 57
    },
    {
      "midi": 44,
      "hit": false,
      "t": 125454.65000000194,
      "d": 261.36385416667326,
      "v": 59
    },
    {
      "midi": 49,
      "hit": false,
      "t": 125454.65000000194,
      "d": 261.36385416667326,
      "v": 59
    },
    {
      "midi": 56,
      "hit": false,
      "t": 125454.65000000194,
      "d": 397.72760416667734,
      "v": 59
    },
    {
      "midi": 64,
      "hit": false,
      "t": 125466.01364583438,
      "d": 102.27281249999942,
      "v": 41
    },
    {
      "midi": 76,
      "hit": false,
      "t": 125466.01364583438,
      "d": 102.27281249999942,
      "v": 41
    },
    {
      "midi": 61,
      "hit": false,
      "t": 125591.01375000193,
      "d": 125.00010416666919,
      "v": 30
    },
    {
      "midi": 64,
      "hit": false,
      "t": 125591.01375000193,
      "d": 125.00010416666919,
      "v": 30
    },
    {
      "midi": 68,
      "hit": false,
      "t": 125591.01375000193,
      "d": 125.00010416666919,
      "v": 30
    },
    {
      "midi": 61,
      "hit": false,
      "t": 125591.01375000195,
      "d": 125.00010416666919,
      "v": 44
    },
    {
      "midi": 64,
      "hit": false,
      "t": 125591.01375000195,
      "d": 125.00010416666919,
      "v": 44
    },
    {
      "midi": 68,
      "hit": false,
      "t": 125591.01375000195,
      "d": 125.00010416666919,
      "v": 44
    },
    {
      "midi": 64,
      "hit": false,
      "t": 125602.37739583438,
      "d": 102.27281249999942,
      "v": 41
    },
    {
      "midi": 76,
      "hit": false,
      "t": 125602.37739583438,
      "d": 102.27281249999942,
      "v": 41
    },
    {
      "midi": 61,
      "hit": false,
      "t": 125727.37750000194,
      "d": 125.00010416666919,
      "v": 30
    },
    {
      "midi": 64,
      "hit": false,
      "t": 125727.37750000194,
      "d": 125.00010416666919,
      "v": 30
    },
    {
      "midi": 68,
      "hit": false,
      "t": 125727.37750000194,
      "d": 125.00010416666919,
      "v": 30
    },
    {
      "midi": 61,
      "hit": false,
      "t": 125727.37750000195,
      "d": 125.00010416666919,
      "v": 44
    },
    {
      "midi": 64,
      "hit": false,
      "t": 125727.37750000195,
      "d": 125.00010416666919,
      "v": 44
    },
    {
      "midi": 68,
      "hit": false,
      "t": 125727.37750000195,
      "d": 125.00010416666919,
      "v": 44
    },
    {
      "midi": 64,
      "hit": false,
      "t": 125738.74114583438,
      "d": 102.27281249999942,
      "v": 41
    },
    {
      "midi": 76,
      "hit": false,
      "t": 125738.74114583438,
      "d": 102.27281249999942,
      "v": 41
    },
    {
      "midi": 64,
      "hit": false,
      "t": 125841.01395833344,
      "d": 261.36385416667326,
      "v": 64
    },
    {
      "midi": 68,
      "hit": false,
      "t": 125841.01395833344,
      "d": 261.36385416667326,
      "v": 64
    },
    {
      "midi": 71,
      "hit": false,
      "t": 125841.01395833344,
      "d": 261.36385416667326,
      "v": 64
    },
    {
      "midi": 32,
      "hit": false,
      "t": 125863.7412500006,
      "d": 125.00010416666919,
      "v": 93
    },
    {
      "midi": 61,
      "hit": false,
      "t": 125863.74125000194,
      "d": 261.36385416667326,
      "v": 51
    },
    {
      "midi": 64,
      "hit": false,
      "t": 125863.74125000194,
      "d": 261.36385416667326,
      "v": 51
    },
    {
      "midi": 68,
      "hit": false,
      "t": 125863.74125000194,
      "d": 261.36385416667326,
      "v": 51
    },
    {
      "midi": 49,
      "hit": false,
      "t": 125863.74125000194,
      "d": 397.72760416667734,
      "v": 76
    },
    {
      "midi": 56,
      "hit": false,
      "t": 125863.74125000194,
      "d": 534.0913541666814,
      "v": 76
    },
    {
      "midi": 44,
      "hit": false,
      "t": 125863.74125000196,
      "d": 125.00010416666919,
      "v": 59
    },
    {
      "midi": 49,
      "hit": false,
      "t": 125863.74125000196,
      "d": 125.00010416666919,
      "v": 59
    },
    {
      "midi": 56,
      "hit": false,
      "t": 125863.74125000196,
      "d": 261.36385416667326,
      "v": 59
    },
    {
      "midi": 61,
      "hit": false,
      "t": 125863.74125000196,
      "d": 261.36385416667326,
      "v": 57
    },
    {
      "midi": 64,
      "hit": false,
      "t": 125863.74125000196,
      "d": 261.36385416667326,
      "v": 57
    },
    {
      "midi": 68,
      "hit": false,
      "t": 125863.74125000196,
      "d": 261.36385416667326,
      "v": 57
    },
    {
      "midi": 64,
      "hit": false,
      "t": 125875.10489583439,
      "d": 102.27281249999942,
      "v": 41
    },
    {
      "midi": 76,
      "hit": false,
      "t": 125875.10489583439,
      "d": 102.27281249999942,
      "v": 41
    },
    {
      "midi": 37,
      "hit": false,
      "t": 126000.1050000006,
      "d": 125.00010416666919,
      "v": 93
    },
    {
      "midi": 64,
      "hit": false,
      "t": 126011.4686458344,
      "d": 102.27281249999942,
      "v": 74
    },
    {
      "midi": 76,
      "hit": false,
      "t": 126011.4686458344,
      "d": 102.27281249999942,
      "v": 74
    },
    {
      "midi": 61,
      "hit": false,
      "t": 126113.74145833345,
      "d": 125.00010416666919,
      "v": 64
    },
    {
      "midi": 64,
      "hit": false,
      "t": 126113.74145833345,
      "d": 125.00010416666919,
      "v": 64
    },
    {
      "midi": 68,
      "hit": false,
      "t": 126113.74145833345,
      "d": 125.00010416666919,
      "v": 64
    },
    {
      "midi": 32,
      "hit": false,
      "t": 126136.46875000061,
      "d": 261.36385416667326,
      "v": 93
    },
    {
      "midi": 61,
      "hit": false,
      "t": 126136.46875000195,
      "d": 125.00010416666919,
      "v": 30
    },
    {
      "midi": 64,
      "hit": false,
      "t": 126136.46875000195,
      "d": 125.00010416666919,
      "v": 30
    },
    {
      "midi": 68,
      "hit": false,
      "t": 126136.46875000195,
      "d": 125.00010416666919,
      "v": 30
    },
    {
      "midi": 61,
      "hit": false,
      "t": 126136.46875000196,
      "d": 125.00010416666919,
      "v": 44
    },
    {
      "midi": 64,
      "hit": false,
      "t": 126136.46875000196,
      "d": 125.00010416666919,
      "v": 44
    },
    {
      "midi": 68,
      "hit": false,
      "t": 126136.46875000196,
      "d": 125.00010416666919,
      "v": 44
    },
    {
      "midi": 64,
      "hit": false,
      "t": 126147.8323958344,
      "d": 102.27281249999942,
      "v": 47
    },
    {
      "midi": 76,
      "hit": false,
      "t": 126147.8323958344,
      "d": 102.27281249999942,
      "v": 47
    },
    {
      "midi": 63,
      "hit": false,
      "t": 126250.10520833345,
      "d": 125.00010416666919,
      "v": 64
    },
    {
      "midi": 66,
      "hit": false,
      "t": 126250.10520833345,
      "d": 125.00010416666919,
      "v": 64
    },
    {
      "midi": 69,
      "hit": false,
      "t": 126250.10520833345,
      "d": 125.00010416666919,
      "v": 64
    },
    {
      "midi": 61,
      "hit": false,
      "t": 126272.83250000195,
      "d": 125.00010416666919,
      "v": 51
    },
    {
      "midi": 64,
      "hit": false,
      "t": 126272.83250000195,
      "d": 125.00010416666919,
      "v": 51
    },
    {
      "midi": 68,
      "hit": false,
      "t": 126272.83250000195,
      "d": 125.00010416666919,
      "v": 51
    },
    {
      "midi": 61,
      "hit": false,
      "t": 126272.83250000197,
      "d": 125.00010416666919,
      "v": 57
    },
    {
      "midi": 64,
      "hit": false,
      "t": 126272.83250000197,
      "d": 125.00010416666919,
      "v": 57
    },
    {
      "midi": 68,
      "hit": false,
      "t": 126272.83250000197,
      "d": 125.00010416666919,
      "v": 57
    },
    {
      "midi": 64,
      "hit": false,
      "t": 126284.1961458344,
      "d": 102.27281249999942,
      "v": 47
    },
    {
      "midi": 76,
      "hit": false,
      "t": 126284.1961458344,
      "d": 102.27281249999942,
      "v": 47
    },
    {
      "midi": 64,
      "hit": false,
      "t": 126386.46895833345,
      "d": 136.36375000000407,
      "v": 64
    },
    {
      "midi": 68,
      "hit": false,
      "t": 126386.46895833345,
      "d": 261.36385416667326,
      "v": 64
    },
    {
      "midi": 71,
      "hit": false,
      "t": 126386.46895833345,
      "d": 261.36385416667326,
      "v": 64
    },
    {
      "midi": 61,
      "hit": false,
      "t": 126409.19625000196,
      "d": 125.00010416666919,
      "v": 30
    },
    {
      "midi": 64,
      "hit": false,
      "t": 126409.19625000196,
      "d": 125.00010416666919,
      "v": 30
    },
    {
      "midi": 68,
      "hit": false,
      "t": 126409.19625000196,
      "d": 125.00010416666919,
      "v": 30
    },
    {
      "midi": 44,
      "hit": false,
      "t": 126409.19625000197,
      "d": 125.00010416666919,
      "v": 59
    },
    {
      "midi": 49,
      "hit": false,
      "t": 126409.19625000197,
      "d": 125.00010416666919,
      "v": 59
    },
    {
      "midi": 61,
      "hit": false,
      "t": 126409.19625000197,
      "d": 125.00010416666919,
      "v": 44
    },
    {
      "midi": 64,
      "hit": false,
      "t": 126409.19625000197,
      "d": 125.00010416666919,
      "v": 44
    },
    {
      "midi": 68,
      "hit": false,
      "t": 126409.19625000197,
      "d": 125.00010416666919,
      "v": 44
    },
    {
      "midi": 64,
      "hit": false,
      "t": 126420.5598958344,
      "d": 102.27281249999942,
      "v": 47
    },
    {
      "midi": 76,
      "hit": false,
      "t": 126420.5598958344,
      "d": 102.27281249999942,
      "v": 47
    },
    {
      "midi": 64,
      "hit": false,
      "t": 126522.83270833346,
      "d": 125.00010416666919,
      "v": 64
    },
    {
      "midi": 61,
      "hit": false,
      "t": 126522.83270833346,
      "d": 261.36385416667326,
      "v": 64
    },
    {
      "midi": 69,
      "hit": false,
      "t": 126522.83270833346,
      "d": 261.36385416667326,
      "v": 64
    },
    {
      "midi": 33,
      "hit": false,
      "t": 126545.56000000062,
      "d": 397.7276041666628,
      "v": 93
    },
    {
      "midi": 61,
      "hit": false,
      "t": 126545.56000000196,
      "d": 261.36385416667326,
      "v": 38
    },
    {
      "midi": 64,
      "hit": false,
      "t": 126545.56000000196,
      "d": 261.36385416667326,
      "v": 38
    },
    {
      "midi": 69,
      "hit": false,
      "t": 126545.56000000196,
      "d": 261.36385416667326,
      "v": 38
    },
    {
      "midi": 45,
      "hit": false,
      "t": 126545.56000000198,
      "d": 261.36385416667326,
      "v": 59
    },
    {
      "midi": 52,
      "hit": false,
      "t": 126545.56000000198,
      "d": 261.36385416667326,
      "v": 59
    },
    {
      "midi": 57,
      "hit": false,
      "t": 126545.56000000198,
      "d": 261.36385416667326,
      "v": 59
    },
    {
      "midi": 61,
      "hit": false,
      "t": 126545.56000000198,
      "d": 261.36385416667326,
      "v": 44
    },
    {
      "midi": 64,
      "hit": false,
      "t": 126545.56000000198,
      "d": 261.36385416667326,
      "v": 44
    },
    {
      "midi": 69,
      "hit": false,
      "t": 126545.56000000198,
      "d": 261.36385416667326,
      "v": 44
    },
    {
      "midi": 61,
      "hit": false,
      "t": 126818.28750000197,
      "d": 261.36385416667326,
      "v": 39
    },
    {
      "midi": 64,
      "hit": false,
      "t": 126818.28750000197,
      "d": 261.36385416667326,
      "v": 39
    },
    {
      "midi": 69,
      "hit": false,
      "t": 126818.28750000197,
      "d": 261.36385416667326,
      "v": 39
    },
    {
      "midi": 57,
      "hit": false,
      "t": 126818.28750000197,
      "d": 397.72760416667734,
      "v": 76
    },
    {
      "midi": 45,
      "hit": false,
      "t": 126818.28750000197,
      "d": 670.4551041666855,
      "v": 76
    },
    {
      "midi": 45,
      "hit": false,
      "t": 126818.28750000198,
      "d": 261.36385416667326,
      "v": 59
    },
    {
      "midi": 52,
      "hit": false,
      "t": 126818.28750000198,
      "d": 261.36385416667326,
      "v": 59
    },
    {
      "midi": 57,
      "hit": false,
      "t": 126818.28750000198,
      "d": 261.36385416667326,
      "v": 59
    },
    {
      "midi": 61,
      "hit": false,
      "t": 126818.28750000198,
      "d": 261.36385416667326,
      "v": 45
    },
    {
      "midi": 64,
      "hit": false,
      "t": 126818.28750000198,
      "d": 261.36385416667326,
      "v": 45
    },
    {
      "midi": 69,
      "hit": false,
      "t": 126818.28750000198,
      "d": 261.36385416667326,
      "v": 45
    },
    {
      "midi": 61,
      "hit": false,
      "t": 126931.92395833347,
      "d": 261.36385416667326,
      "v": 64
    },
    {
      "midi": 64,
      "hit": false,
      "t": 126931.92395833347,
      "d": 261.36385416667326,
      "v": 64
    },
    {
      "midi": 69,
      "hit": false,
      "t": 126931.92395833347,
      "d": 261.36385416667326,
      "v": 64
    },
    {
      "midi": 33,
      "hit": false,
      "t": 126954.65125000062,
      "d": 125.00010416666919,
      "v": 93
    },
    {
      "midi": 35,
      "hit": false,
      "t": 127091.01500000063,
      "d": 397.7276041666628,
      "v": 93
    },
    {
      "midi": 61,
      "hit": false,
      "t": 127091.01500000198,
      "d": 125.00010416666919,
      "v": 49
    },
    {
      "midi": 64,
      "hit": false,
      "t": 127091.01500000198,
      "d": 125.00010416666919,
      "v": 49
    },
    {
      "midi": 69,
      "hit": false,
      "t": 127091.01500000198,
      "d": 125.00010416666919,
      "v": 49
    },
    {
      "midi": 61,
      "hit": false,
      "t": 127091.015000002,
      "d": 125.00010416666919,
      "v": 55
    },
    {
      "midi": 64,
      "hit": false,
      "t": 127091.015000002,
      "d": 125.00010416666919,
      "v": 55
    },
    {
      "midi": 69,
      "hit": false,
      "t": 127091.015000002,
      "d": 125.00010416666919,
      "v": 55
    },
    {
      "midi": 57,
      "hit": false,
      "t": 127227.37875000198,
      "d": 125.00010416666919,
      "v": 76
    },
    {
      "midi": 61,
      "hit": false,
      "t": 127227.37875000198,
      "d": 125.00010416666919,
      "v": 30
    },
    {
      "midi": 69,
      "hit": false,
      "t": 127227.37875000198,
      "d": 125.00010416666919,
      "v": 30
    },
    {
      "midi": 64,
      "hit": false,
      "t": 127227.37875000198,
      "d": 147.72739583333896,
      "v": 30
    },
    {
      "midi": 45,
      "hit": false,
      "t": 127227.378750002,
      "d": 125.00010416666919,
      "v": 59
    },
    {
      "midi": 52,
      "hit": false,
      "t": 127227.378750002,
      "d": 125.00010416666919,
      "v": 59
    },
    {
      "midi": 61,
      "hit": false,
      "t": 127227.378750002,
      "d": 125.00010416666919,
      "v": 44
    },
    {
      "midi": 69,
      "hit": false,
      "t": 127227.378750002,
      "d": 125.00010416666919,
      "v": 44
    },
    {
      "midi": 64,
      "hit": false,
      "t": 127227.378750002,
      "d": 147.72739583333896,
      "v": 44
    },
    {
      "midi": 57,
      "hit": false,
      "t": 127227.378750002,
      "d": 261.36385416667326,
      "v": 59
    },
    {
      "midi": 35,
      "hit": false,
      "t": 127500.10625000062,
      "d": 125.00010416666919,
      "v": 93
    },
    {
      "midi": 61,
      "hit": false,
      "t": 127500.10625000199,
      "d": 125.00010416666919,
      "v": 30
    },
    {
      "midi": 64,
      "hit": false,
      "t": 127500.10625000199,
      "d": 125.00010416666919,
      "v": 30
    },
    {
      "midi": 69,
      "hit": false,
      "t": 127500.10625000199,
      "d": 125.00010416666919,
      "v": 30
    },
    {
      "midi": 61,
      "hit": false,
      "t": 127500.106250002,
      "d": 125.00010416666919,
      "v": 44
    },
    {
      "midi": 64,
      "hit": false,
      "t": 127500.106250002,
      "d": 125.00010416666919,
      "v": 44
    },
    {
      "midi": 69,
      "hit": false,
      "t": 127500.106250002,
      "d": 125.00010416666919,
      "v": 44
    },
    {
      "midi": 37,
      "hit": false,
      "t": 127636.47000000063,
      "d": 125.00010416666919,
      "v": 93
    },
    {
      "midi": 61,
      "hit": false,
      "t": 127636.470000002,
      "d": 125.00010416666919,
      "v": 59
    },
    {
      "midi": 64,
      "hit": false,
      "t": 127636.470000002,
      "d": 125.00010416666919,
      "v": 59
    },
    {
      "midi": 69,
      "hit": false,
      "t": 127636.470000002,
      "d": 125.00010416666919,
      "v": 59
    },
    {
      "midi": 57,
      "hit": false,
      "t": 127636.470000002,
      "d": 261.36385416667326,
      "v": 76
    },
    {
      "midi": 45,
      "hit": false,
      "t": 127636.470000002,
      "d": 397.72760416667734,
      "v": 76
    },
    {
      "midi": 61,
      "hit": false,
      "t": 127636.47000000201,
      "d": 125.00010416666919,
      "v": 65
    },
    {
      "midi": 64,
      "hit": false,
      "t": 127636.47000000201,
      "d": 125.00010416666919,
      "v": 65
    },
    {
      "midi": 69,
      "hit": false,
      "t": 127636.47000000201,
      "d": 125.00010416666919,
      "v": 65
    },
    {
      "midi": 45,
      "hit": false,
      "t": 127636.47000000201,
      "d": 261.36385416667326,
      "v": 59
    },
    {
      "midi": 52,
      "hit": false,
      "t": 127636.47000000201,
      "d": 261.36385416667326,
      "v": 59
    },
    {
      "midi": 57,
      "hit": false,
      "t": 127636.47000000201,
      "d": 261.36385416667326,
      "v": 59
    },
    {
      "midi": 61,
      "hit": false,
      "t": 127772.833750002,
      "d": 125.00010416666919,
      "v": 30
    },
    {
      "midi": 64,
      "hit": false,
      "t": 127772.833750002,
      "d": 125.00010416666919,
      "v": 30
    },
    {
      "midi": 69,
      "hit": false,
      "t": 127772.833750002,
      "d": 125.00010416666919,
      "v": 30
    },
    {
      "midi": 61,
      "hit": false,
      "t": 127772.83375000201,
      "d": 125.00010416666919,
      "v": 44
    },
    {
      "midi": 64,
      "hit": false,
      "t": 127772.83375000201,
      "d": 125.00010416666919,
      "v": 44
    },
    {
      "midi": 69,
      "hit": false,
      "t": 127772.83375000201,
      "d": 125.00010416666919,
      "v": 44
    },
    {
      "midi": 37,
      "hit": false,
      "t": 127909.19750000064,
      "d": 261.36385416667326,
      "v": 93
    },
    {
      "midi": 61,
      "hit": false,
      "t": 127909.197500002,
      "d": 125.00010416666919,
      "v": 30
    },
    {
      "midi": 64,
      "hit": false,
      "t": 127909.197500002,
      "d": 125.00010416666919,
      "v": 30
    },
    {
      "midi": 69,
      "hit": false,
      "t": 127909.197500002,
      "d": 125.00010416666919,
      "v": 30
    },
    {
      "midi": 61,
      "hit": false,
      "t": 127909.19750000202,
      "d": 125.00010416666919,
      "v": 44
    },
    {
      "midi": 64,
      "hit": false,
      "t": 127909.19750000202,
      "d": 125.00010416666919,
      "v": 44
    },
    {
      "midi": 69,
      "hit": false,
      "t": 127909.19750000202,
      "d": 125.00010416666919,
      "v": 44
    },
    {
      "midi": 61,
      "hit": false,
      "t": 128045.561250002,
      "d": 261.36385416667326,
      "v": 55
    },
    {
      "midi": 64,
      "hit": false,
      "t": 128045.561250002,
      "d": 261.36385416667326,
      "v": 55
    },
    {
      "midi": 69,
      "hit": false,
      "t": 128045.561250002,
      "d": 261.36385416667326,
      "v": 55
    },
    {
      "midi": 57,
      "hit": false,
      "t": 128045.561250002,
      "d": 397.72760416667734,
      "v": 76
    },
    {
      "midi": 45,
      "hit": false,
      "t": 128045.561250002,
      "d": 534.0913541666814,
      "v": 76
    },
    {
      "midi": 45,
      "hit": false,
      "t": 128045.56125000202,
      "d": 125.00010416666919,
      "v": 59
    },
    {
      "midi": 52,
      "hit": false,
      "t": 128045.56125000202,
      "d": 125.00010416666919,
      "v": 59
    },
    {
      "midi": 57,
      "hit": false,
      "t": 128045.56125000202,
      "d": 261.36385416667326,
      "v": 59
    },
    {
      "midi": 61,
      "hit": false,
      "t": 128045.56125000202,
      "d": 261.36385416667326,
      "v": 61
    },
    {
      "midi": 64,
      "hit": false,
      "t": 128045.56125000202,
      "d": 261.36385416667326,
      "v": 61
    },
    {
      "midi": 69,
      "hit": false,
      "t": 128045.56125000202,
      "d": 261.36385416667326,
      "v": 61
    },
    {
      "midi": 61,
      "hit": false,
      "t": 128159.19770833348,
      "d": 261.36385416667326,
      "v": 64
    },
    {
      "midi": 39,
      "hit": false,
      "t": 128181.92500000064,
      "d": 261.36385416667326,
      "v": 93
    },
    {
      "midi": 61,
      "hit": false,
      "t": 128318.28875000202,
      "d": 125.00010416666919,
      "v": 30
    },
    {
      "midi": 64,
      "hit": false,
      "t": 128318.28875000202,
      "d": 125.00010416666919,
      "v": 30
    },
    {
      "midi": 69,
      "hit": false,
      "t": 128318.28875000202,
      "d": 125.00010416666919,
      "v": 30
    },
    {
      "midi": 61,
      "hit": false,
      "t": 128318.28875000203,
      "d": 125.00010416666919,
      "v": 44
    },
    {
      "midi": 64,
      "hit": false,
      "t": 128318.28875000203,
      "d": 125.00010416666919,
      "v": 44
    },
    {
      "midi": 69,
      "hit": false,
      "t": 128318.28875000203,
      "d": 125.00010416666919,
      "v": 44
    },
    {
      "midi": 64,
      "hit": false,
      "t": 128431.92520833349,
      "d": 261.36385416667326,
      "v": 64
    },
    {
      "midi": 40,
      "hit": false,
      "t": 128454.65250000065,
      "d": 125.00010416666919,
      "v": 93
    },
    {
      "midi": 61,
      "hit": false,
      "t": 128454.65250000202,
      "d": 125.00010416666919,
      "v": 55
    },
    {
      "midi": 64,
      "hit": false,
      "t": 128454.65250000202,
      "d": 125.00010416666919,
      "v": 55
    },
    {
      "midi": 69,
      "hit": false,
      "t": 128454.65250000202,
      "d": 125.00010416666919,
      "v": 55
    },
    {
      "midi": 61,
      "hit": false,
      "t": 128454.65250000203,
      "d": 125.00010416666919,
      "v": 61
    },
    {
      "midi": 64,
      "hit": false,
      "t": 128454.65250000203,
      "d": 125.00010416666919,
      "v": 61
    },
    {
      "midi": 69,
      "hit": false,
      "t": 128454.65250000203,
      "d": 125.00010416666919,
      "v": 61
    },
    {
      "midi": 61,
      "hit": false,
      "t": 128591.01625000202,
      "d": 113.6364583333343,
      "v": 30
    },
    {
      "midi": 64,
      "hit": false,
      "t": 128591.01625000202,
      "d": 113.6364583333343,
      "v": 30
    },
    {
      "midi": 69,
      "hit": false,
      "t": 128591.01625000202,
      "d": 113.6364583333343,
      "v": 30
    },
    {
      "midi": 61,
      "hit": false,
      "t": 128591.01625000204,
      "d": 113.6364583333343,
      "v": 44
    },
    {
      "midi": 64,
      "hit": false,
      "t": 128591.01625000204,
      "d": 113.6364583333343,
      "v": 44
    },
    {
      "midi": 69,
      "hit": false,
      "t": 128591.01625000204,
      "d": 113.6364583333343,
      "v": 44
    },
    {
      "midi": 64,
      "hit": false,
      "t": 128704.6527083335,
      "d": 1352.2738541666622,
      "v": 64
    },
    {
      "midi": 68,
      "hit": false,
      "t": 128704.6527083335,
      "d": 1352.2738541666622,
      "v": 64
    },
    {
      "midi": 71,
      "hit": false,
      "t": 128704.6527083335,
      "d": 1352.2738541666622,
      "v": 64
    },
    {
      "midi": 37,
      "hit": false,
      "t": 128727.38000000066,
      "d": 397.7276041666628,
      "v": 93
    },
    {
      "midi": 61,
      "hit": false,
      "t": 128727.38000000203,
      "d": 261.36385416667326,
      "v": 55
    },
    {
      "midi": 64,
      "hit": false,
      "t": 128727.38000000203,
      "d": 261.36385416667326,
      "v": 55
    },
    {
      "midi": 68,
      "hit": false,
      "t": 128727.38000000203,
      "d": 261.36385416667326,
      "v": 55
    },
    {
      "midi": 49,
      "hit": false,
      "t": 128727.38000000204,
      "d": 125.00010416666919,
      "v": 59
    },
    {
      "midi": 44,
      "hit": false,
      "t": 128727.38000000204,
      "d": 261.36385416667326,
      "v": 59
    },
    {
      "midi": 56,
      "hit": false,
      "t": 128727.38000000204,
      "d": 261.36385416667326,
      "v": 59
    },
    {
      "midi": 61,
      "hit": false,
      "t": 128727.38000000204,
      "d": 261.36385416667326,
      "v": 61
    },
    {
      "midi": 64,
      "hit": false,
      "t": 128727.38000000204,
      "d": 261.36385416667326,
      "v": 61
    },
    {
      "midi": 68,
      "hit": false,
      "t": 128727.38000000204,
      "d": 261.36385416667326,
      "v": 61
    },
    {
      "midi": 64,
      "hit": false,
      "t": 128738.7436458344,
      "d": 102.27281249999942,
      "v": 76
    },
    {
      "midi": 76,
      "hit": false,
      "t": 128738.7436458344,
      "d": 102.27281249999942,
      "v": 76
    },
    {
      "midi": 64,
      "hit": false,
      "t": 128875.1073958344,
      "d": 102.27281249999942,
      "v": 41
    },
    {
      "midi": 76,
      "hit": false,
      "t": 128875.1073958344,
      "d": 102.27281249999942,
      "v": 41
    },
    {
      "midi": 56,
      "hit": false,
      "t": 129000.10750000204,
      "d": 261.36385416667326,
      "v": 76
    },
    {
      "midi": 61,
      "hit": false,
      "t": 129000.10750000204,
      "d": 261.36385416667326,
      "v": 34
    },
    {
      "midi": 64,
      "hit": false,
      "t": 129000.10750000204,
      "d": 261.36385416667326,
      "v": 34
    },
    {
      "midi": 68,
      "hit": false,
      "t": 129000.10750000204,
      "d": 261.36385416667326,
      "v": 34
    },
    {
      "midi": 49,
      "hit": false,
      "t": 129000.10750000204,
      "d": 397.72760416667734,
      "v": 76
    },
    {
      "midi": 56,
      "hit": false,
      "t": 129000.10750000205,
      "d": 125.00010416666919,
      "v": 59
    },
    {
      "midi": 44,
      "hit": false,
      "t": 129000.10750000205,
      "d": 261.36385416667326,
      "v": 59
    },
    {
      "midi": 49,
      "hit": false,
      "t": 129000.10750000205,
      "d": 261.36385416667326,
      "v": 59
    },
    {
      "midi": 61,
      "hit": false,
      "t": 129000.10750000205,
      "d": 261.36385416667326,
      "v": 44
    },
    {
      "midi": 64,
      "hit": false,
      "t": 129000.10750000205,
      "d": 261.36385416667326,
      "v": 44
    },
    {
      "midi": 68,
      "hit": false,
      "t": 129000.10750000205,
      "d": 261.36385416667326,
      "v": 44
    },
    {
      "midi": 64,
      "hit": false,
      "t": 129011.47114583441,
      "d": 102.27281249999942,
      "v": 41
    },
    {
      "midi": 76,
      "hit": false,
      "t": 129011.47114583441,
      "d": 102.27281249999942,
      "v": 41
    },
    {
      "midi": 37,
      "hit": false,
      "t": 129136.47125000066,
      "d": 125.00010416666919,
      "v": 93
    },
    {
      "midi": 64,
      "hit": false,
      "t": 129147.83489583441,
      "d": 102.27281249999942,
      "v": 41
    },
    {
      "midi": 76,
      "hit": false,
      "t": 129147.83489583441,
      "d": 102.27281249999942,
      "v": 41
    },
    {
      "midi": 32,
      "hit": false,
      "t": 129272.83500000066,
      "d": 397.7276041666628,
      "v": 93
    },
    {
      "midi": 61,
      "hit": false,
      "t": 129272.83500000204,
      "d": 125.00010416666919,
      "v": 49
    },
    {
      "midi": 64,
      "hit": false,
      "t": 129272.83500000204,
      "d": 125.00010416666919,
      "v": 49
    },
    {
      "midi": 68,
      "hit": false,
      "t": 129272.83500000204,
      "d": 125.00010416666919,
      "v": 49
    },
    {
      "midi": 61,
      "hit": false,
      "t": 129272.83500000206,
      "d": 125.00010416666919,
      "v": 55
    },
    {
      "midi": 64,
      "hit": false,
      "t": 129272.83500000206,
      "d": 125.00010416666919,
      "v": 55
    },
    {
      "midi": 68,
      "hit": false,
      "t": 129272.83500000206,
      "d": 125.00010416666919,
      "v": 55
    },
    {
      "midi": 64,
      "hit": false,
      "t": 129284.19864583442,
      "d": 102.27281249999942,
      "v": 41
    },
    {
      "midi": 76,
      "hit": false,
      "t": 129284.19864583442,
      "d": 102.27281249999942,
      "v": 41
    },
    {
      "midi": 49,
      "hit": false,
      "t": 129409.19875000205,
      "d": 125.00010416666919,
      "v": 76
    },
    {
      "midi": 56,
      "hit": false,
      "t": 129409.19875000205,
      "d": 125.00010416666919,
      "v": 76
    },
    {
      "midi": 61,
      "hit": false,
      "t": 129409.19875000205,
      "d": 159.09104166667385,
      "v": 30
    },
    {
      "midi": 64,
      "hit": false,
      "t": 129409.19875000205,
      "d": 159.09104166667385,
      "v": 30
    },
    {
      "midi": 68,
      "hit": false,
      "t": 129409.19875000205,
      "d": 159.09104166667385,
      "v": 30
    },
    {
      "midi": 44,
      "hit": false,
      "t": 129409.19875000206,
      "d": 125.00010416666919,
      "v": 59
    },
    {
      "midi": 49,
      "hit": false,
      "t": 129409.19875000206,
      "d": 125.00010416666919,
      "v": 59
    },
    {
      "midi": 56,
      "hit": false,
      "t": 129409.19875000206,
      "d": 125.00010416666919,
      "v": 59
    },
    {
      "midi": 61,
      "hit": false,
      "t": 129409.19875000206,
      "d": 159.09104166667385,
      "v": 44
    },
    {
      "midi": 64,
      "hit": false,
      "t": 129409.19875000206,
      "d": 159.09104166667385,
      "v": 44
    },
    {
      "midi": 68,
      "hit": false,
      "t": 129409.19875000206,
      "d": 159.09104166667385,
      "v": 44
    },
    {
      "midi": 64,
      "hit": false,
      "t": 129420.56239583442,
      "d": 102.27281249999942,
      "v": 41
    },
    {
      "midi": 76,
      "hit": false,
      "t": 129420.56239583442,
      "d": 102.27281249999942,
      "v": 41
    },
    {
      "midi": 64,
      "hit": false,
      "t": 129556.92614583443,
      "d": 102.27281249999942,
      "v": 76
    },
    {
      "midi": 76,
      "hit": false,
      "t": 129556.92614583443,
      "d": 102.27281249999942,
      "v": 76
    },
    {
      "midi": 32,
      "hit": false,
      "t": 129681.92625000066,
      "d": 125.00010416666919,
      "v": 93
    },
    {
      "midi": 61,
      "hit": false,
      "t": 129681.92625000206,
      "d": 125.00010416666919,
      "v": 30
    },
    {
      "midi": 64,
      "hit": false,
      "t": 129681.92625000206,
      "d": 125.00010416666919,
      "v": 30
    },
    {
      "midi": 68,
      "hit": false,
      "t": 129681.92625000206,
      "d": 125.00010416666919,
      "v": 30
    },
    {
      "midi": 61,
      "hit": false,
      "t": 129681.92625000207,
      "d": 125.00010416666919,
      "v": 44
    },
    {
      "midi": 64,
      "hit": false,
      "t": 129681.92625000207,
      "d": 125.00010416666919,
      "v": 44
    },
    {
      "midi": 68,
      "hit": false,
      "t": 129681.92625000207,
      "d": 125.00010416666919,
      "v": 44
    },
    {
      "midi": 64,
      "hit": false,
      "t": 129693.28989583443,
      "d": 102.27281249999942,
      "v": 41
    },
    {
      "midi": 76,
      "hit": false,
      "t": 129693.28989583443,
      "d": 102.27281249999942,
      "v": 41
    },
    {
      "midi": 37,
      "hit": false,
      "t": 129818.29000000066,
      "d": 397.7276041666628,
      "v": 93
    },
    {
      "midi": 61,
      "hit": false,
      "t": 129818.29000000206,
      "d": 125.00010416666919,
      "v": 51
    },
    {
      "midi": 64,
      "hit": false,
      "t": 129818.29000000206,
      "d": 125.00010416666919,
      "v": 51
    },
    {
      "midi": 68,
      "hit": false,
      "t": 129818.29000000206,
      "d": 125.00010416666919,
      "v": 51
    },
    {
      "midi": 56,
      "hit": false,
      "t": 129818.29000000206,
      "d": 261.36385416667326,
      "v": 76
    },
    {
      "midi": 49,
      "hit": false,
      "t": 129818.29000000206,
      "d": 397.72760416667734,
      "v": 76
    },
    {
      "midi": 61,
      "hit": false,
      "t": 129818.29000000207,
      "d": 125.00010416666919,
      "v": 57
    },
    {
      "midi": 64,
      "hit": false,
      "t": 129818.29000000207,
      "d": 125.00010416666919,
      "v": 57
    },
    {
      "midi": 68,
      "hit": false,
      "t": 129818.29000000207,
      "d": 125.00010416666919,
      "v": 57
    },
    {
      "midi": 44,
      "hit": false,
      "t": 129818.29000000207,
      "d": 261.36385416667326,
      "v": 59
    },
    {
      "midi": 49,
      "hit": false,
      "t": 129818.29000000207,
      "d": 261.36385416667326,
      "v": 59
    },
    {
      "midi": 56,
      "hit": false,
      "t": 129818.29000000207,
      "d": 397.72760416667734,
      "v": 59
    },
    {
      "midi": 64,
      "hit": false,
      "t": 129829.65364583443,
      "d": 102.27281249999942,
      "v": 41
    },
    {
      "midi": 76,
      "hit": false,
      "t": 129829.65364583443,
      "d": 102.27281249999942,
      "v": 41
    },
    {
      "midi": 61,
      "hit": false,
      "t": 129954.65375000206,
      "d": 125.00010416666919,
      "v": 30
    },
    {
      "midi": 64,
      "hit": false,
      "t": 129954.65375000206,
      "d": 125.00010416666919,
      "v": 30
    },
    {
      "midi": 68,
      "hit": false,
      "t": 129954.65375000206,
      "d": 125.00010416666919,
      "v": 30
    },
    {
      "midi": 61,
      "hit": false,
      "t": 129954.65375000208,
      "d": 125.00010416666919,
      "v": 44
    },
    {
      "midi": 64,
      "hit": false,
      "t": 129954.65375000208,
      "d": 125.00010416666919,
      "v": 44
    },
    {
      "midi": 68,
      "hit": false,
      "t": 129954.65375000208,
      "d": 125.00010416666919,
      "v": 44
    },
    {
      "midi": 64,
      "hit": false,
      "t": 129966.01739583444,
      "d": 102.27281249999942,
      "v": 41
    },
    {
      "midi": 76,
      "hit": false,
      "t": 129966.01739583444,
      "d": 102.27281249999942,
      "v": 41
    },
    {
      "midi": 61,
      "hit": false,
      "t": 130091.01750000207,
      "d": 125.00010416666919,
      "v": 30
    },
    {
      "midi": 64,
      "hit": false,
      "t": 130091.01750000207,
      "d": 125.00010416666919,
      "v": 30
    },
    {
      "midi": 68,
      "hit": false,
      "t": 130091.01750000207,
      "d": 125.00010416666919,
      "v": 30
    },
    {
      "midi": 61,
      "hit": false,
      "t": 130091.01750000208,
      "d": 125.00010416666919,
      "v": 44
    },
    {
      "midi": 64,
      "hit": false,
      "t": 130091.01750000208,
      "d": 125.00010416666919,
      "v": 44
    },
    {
      "midi": 68,
      "hit": false,
      "t": 130091.01750000208,
      "d": 125.00010416666919,
      "v": 44
    },
    {
      "midi": 64,
      "hit": false,
      "t": 130102.38114583444,
      "d": 102.27281249999942,
      "v": 41
    },
    {
      "midi": 76,
      "hit": false,
      "t": 130102.38114583444,
      "d": 102.27281249999942,
      "v": 41
    },
    {
      "midi": 64,
      "hit": false,
      "t": 130204.6539583335,
      "d": 261.36385416667326,
      "v": 64
    },
    {
      "midi": 68,
      "hit": false,
      "t": 130204.6539583335,
      "d": 261.36385416667326,
      "v": 64
    },
    {
      "midi": 71,
      "hit": false,
      "t": 130204.6539583335,
      "d": 261.36385416667326,
      "v": 64
    },
    {
      "midi": 32,
      "hit": false,
      "t": 130227.38125000066,
      "d": 125.00010416666919,
      "v": 93
    },
    {
      "midi": 61,
      "hit": false,
      "t": 130227.38125000207,
      "d": 261.36385416667326,
      "v": 51
    },
    {
      "midi": 64,
      "hit": false,
      "t": 130227.38125000207,
      "d": 261.36385416667326,
      "v": 51
    },
    {
      "midi": 68,
      "hit": false,
      "t": 130227.38125000207,
      "d": 261.36385416667326,
      "v": 51
    },
    {
      "midi": 56,
      "hit": false,
      "t": 130227.38125000207,
      "d": 397.72760416667734,
      "v": 76
    },
    {
      "midi": 49,
      "hit": false,
      "t": 130227.38125000207,
      "d": 670.4551041666855,
      "v": 76
    },
    {
      "midi": 44,
      "hit": false,
      "t": 130227.38125000209,
      "d": 125.00010416666919,
      "v": 59
    },
    {
      "midi": 49,
      "hit": false,
      "t": 130227.38125000209,
      "d": 125.00010416666919,
      "v": 59
    },
    {
      "midi": 56,
      "hit": false,
      "t": 130227.38125000209,
      "d": 261.36385416667326,
      "v": 59
    },
    {
      "midi": 61,
      "hit": false,
      "t": 130227.38125000209,
      "d": 261.36385416667326,
      "v": 57
    },
    {
      "midi": 64,
      "hit": false,
      "t": 130227.38125000209,
      "d": 261.36385416667326,
      "v": 57
    },
    {
      "midi": 68,
      "hit": false,
      "t": 130227.38125000209,
      "d": 261.36385416667326,
      "v": 57
    },
    {
      "midi": 64,
      "hit": false,
      "t": 130238.74489583445,
      "d": 102.27281249999942,
      "v": 41
    },
    {
      "midi": 76,
      "hit": false,
      "t": 130238.74489583445,
      "d": 102.27281249999942,
      "v": 41
    },
    {
      "midi": 37,
      "hit": false,
      "t": 130363.74500000066,
      "d": 125.00010416666919,
      "v": 93
    },
    {
      "midi": 64,
      "hit": false,
      "t": 130375.10864583445,
      "d": 102.27281249999942,
      "v": 74
    },
    {
      "midi": 76,
      "hit": false,
      "t": 130375.10864583445,
      "d": 102.27281249999942,
      "v": 74
    },
    {
      "midi": 61,
      "hit": false,
      "t": 130477.3814583335,
      "d": 125.00010416666919,
      "v": 64
    },
    {
      "midi": 64,
      "hit": false,
      "t": 130477.3814583335,
      "d": 125.00010416666919,
      "v": 64
    },
    {
      "midi": 68,
      "hit": false,
      "t": 130477.3814583335,
      "d": 125.00010416666919,
      "v": 64
    },
    {
      "midi": 32,
      "hit": false,
      "t": 130500.10875000067,
      "d": 261.36385416667326,
      "v": 93
    },
    {
      "midi": 61,
      "hit": false,
      "t": 130500.10875000208,
      "d": 125.00010416666919,
      "v": 30
    },
    {
      "midi": 64,
      "hit": false,
      "t": 130500.10875000208,
      "d": 125.00010416666919,
      "v": 30
    },
    {
      "midi": 68,
      "hit": false,
      "t": 130500.10875000208,
      "d": 125.00010416666919,
      "v": 30
    },
    {
      "midi": 61,
      "hit": false,
      "t": 130500.1087500021,
      "d": 125.00010416666919,
      "v": 44
    },
    {
      "midi": 64,
      "hit": false,
      "t": 130500.1087500021,
      "d": 125.00010416666919,
      "v": 44
    },
    {
      "midi": 68,
      "hit": false,
      "t": 130500.1087500021,
      "d": 125.00010416666919,
      "v": 44
    },
    {
      "midi": 64,
      "hit": false,
      "t": 130511.47239583445,
      "d": 102.27281249999942,
      "v": 47
    },
    {
      "midi": 76,
      "hit": false,
      "t": 130511.47239583445,
      "d": 102.27281249999942,
      "v": 47
    },
    {
      "midi": 63,
      "hit": false,
      "t": 130613.74520833351,
      "d": 125.00010416666919,
      "v": 64
    },
    {
      "midi": 66,
      "hit": false,
      "t": 130613.74520833351,
      "d": 125.00010416666919,
      "v": 64
    },
    {
      "midi": 69,
      "hit": false,
      "t": 130613.74520833351,
      "d": 125.00010416666919,
      "v": 64
    },
    {
      "midi": 61,
      "hit": false,
      "t": 130636.47250000208,
      "d": 125.00010416666919,
      "v": 51
    },
    {
      "midi": 64,
      "hit": false,
      "t": 130636.47250000208,
      "d": 125.00010416666919,
      "v": 51
    },
    {
      "midi": 68,
      "hit": false,
      "t": 130636.47250000208,
      "d": 125.00010416666919,
      "v": 51
    },
    {
      "midi": 61,
      "hit": false,
      "t": 130636.4725000021,
      "d": 125.00010416666919,
      "v": 57
    },
    {
      "midi": 64,
      "hit": false,
      "t": 130636.4725000021,
      "d": 125.00010416666919,
      "v": 57
    },
    {
      "midi": 68,
      "hit": false,
      "t": 130636.4725000021,
      "d": 125.00010416666919,
      "v": 57
    },
    {
      "midi": 64,
      "hit": false,
      "t": 130647.83614583446,
      "d": 102.27281249999942,
      "v": 47
    },
    {
      "midi": 76,
      "hit": false,
      "t": 130647.83614583446,
      "d": 102.27281249999942,
      "v": 47
    },
    {
      "midi": 64,
      "hit": false,
      "t": 130750.10895833351,
      "d": 136.36375000000407,
      "v": 64
    },
    {
      "midi": 68,
      "hit": false,
      "t": 130750.10895833351,
      "d": 261.36385416667326,
      "v": 64
    },
    {
      "midi": 71,
      "hit": false,
      "t": 130750.10895833351,
      "d": 261.36385416667326,
      "v": 64
    },
    {
      "midi": 61,
      "hit": false,
      "t": 130772.83625000209,
      "d": 125.00010416666919,
      "v": 30
    },
    {
      "midi": 64,
      "hit": false,
      "t": 130772.83625000209,
      "d": 125.00010416666919,
      "v": 30
    },
    {
      "midi": 68,
      "hit": false,
      "t": 130772.83625000209,
      "d": 125.00010416666919,
      "v": 30
    },
    {
      "midi": 44,
      "hit": false,
      "t": 130772.8362500021,
      "d": 125.00010416666919,
      "v": 59
    },
    {
      "midi": 49,
      "hit": false,
      "t": 130772.8362500021,
      "d": 125.00010416666919,
      "v": 59
    },
    {
      "midi": 61,
      "hit": false,
      "t": 130772.8362500021,
      "d": 125.00010416666919,
      "v": 44
    },
    {
      "midi": 64,
      "hit": false,
      "t": 130772.8362500021,
      "d": 125.00010416666919,
      "v": 44
    },
    {
      "midi": 68,
      "hit": false,
      "t": 130772.8362500021,
      "d": 125.00010416666919,
      "v": 44
    },
    {
      "midi": 64,
      "hit": false,
      "t": 130784.19989583446,
      "d": 102.27281249999942,
      "v": 47
    },
    {
      "midi": 76,
      "hit": false,
      "t": 130784.19989583446,
      "d": 102.27281249999942,
      "v": 47
    },
    {
      "midi": 64,
      "hit": false,
      "t": 130886.47270833352,
      "d": 125.00010416666919,
      "v": 64
    },
    {
      "midi": 61,
      "hit": false,
      "t": 130886.47270833352,
      "d": 261.36385416667326,
      "v": 64
    },
    {
      "midi": 69,
      "hit": false,
      "t": 130886.47270833352,
      "d": 261.36385416667326,
      "v": 64
    },
    {
      "midi": 33,
      "hit": false,
      "t": 130909.20000000068,
      "d": 397.7276041666628,
      "v": 93
    },
    {
      "midi": 61,
      "hit": false,
      "t": 130909.20000000209,
      "d": 261.3638541666587,
      "v": 59
    },
    {
      "midi": 64,
      "hit": false,
      "t": 130909.20000000209,
      "d": 261.3638541666587,
      "v": 59
    },
    {
      "midi": 69,
      "hit": false,
      "t": 130909.20000000209,
      "d": 261.3638541666587,
      "v": 59
    },
    {
      "midi": 45,
      "hit": false,
      "t": 130909.2000000021,
      "d": 261.36385416667326,
      "v": 59
    },
    {
      "midi": 52,
      "hit": false,
      "t": 130909.2000000021,
      "d": 261.36385416667326,
      "v": 59
    },
    {
      "midi": 57,
      "hit": false,
      "t": 130909.2000000021,
      "d": 261.36385416667326,
      "v": 59
    },
    {
      "midi": 61,
      "hit": false,
      "t": 130909.2000000021,
      "d": 261.36385416667326,
      "v": 65
    },
    {
      "midi": 64,
      "hit": false,
      "t": 130909.2000000021,
      "d": 261.36385416667326,
      "v": 65
    },
    {
      "midi": 69,
      "hit": false,
      "t": 130909.2000000021,
      "d": 261.36385416667326,
      "v": 65
    },
    {
      "midi": 57,
      "hit": false,
      "t": 131181.9275000021,
      "d": 261.36385416667326,
      "v": 76
    },
    {
      "midi": 61,
      "hit": false,
      "t": 131181.9275000021,
      "d": 261.36385416667326,
      "v": 43
    },
    {
      "midi": 64,
      "hit": false,
      "t": 131181.9275000021,
      "d": 261.36385416667326,
      "v": 43
    },
    {
      "midi": 69,
      "hit": false,
      "t": 131181.9275000021,
      "d": 261.36385416667326,
      "v": 43
    },
    {
      "midi": 45,
      "hit": false,
      "t": 131181.9275000021,
      "d": 534.0913541666523,
      "v": 76
    },
    {
      "midi": 45,
      "hit": false,
      "t": 131181.92750000212,
      "d": 261.36385416667326,
      "v": 59
    },
    {
      "midi": 52,
      "hit": false,
      "t": 131181.92750000212,
      "d": 261.36385416667326,
      "v": 59
    },
    {
      "midi": 57,
      "hit": false,
      "t": 131181.92750000212,
      "d": 261.36385416667326,
      "v": 59
    },
    {
      "midi": 61,
      "hit": false,
      "t": 131181.92750000212,
      "d": 261.36385416667326,
      "v": 49
    },
    {
      "midi": 64,
      "hit": false,
      "t": 131181.92750000212,
      "d": 261.36385416667326,
      "v": 49
    },
    {
      "midi": 69,
      "hit": false,
      "t": 131181.92750000212,
      "d": 261.36385416667326,
      "v": 49
    },
    {
      "midi": 61,
      "hit": false,
      "t": 131295.5639583335,
      "d": 261.36385416667326,
      "v": 64
    },
    {
      "midi": 64,
      "hit": false,
      "t": 131295.5639583335,
      "d": 261.36385416667326,
      "v": 64
    },
    {
      "midi": 69,
      "hit": false,
      "t": 131295.5639583335,
      "d": 261.36385416667326,
      "v": 64
    },
    {
      "midi": 33,
      "hit": false,
      "t": 131318.29125000068,
      "d": 125.00010416665464,
      "v": 93
    },
    {
      "midi": 35,
      "hit": false,
      "t": 131454.65500000067,
      "d": 397.7276041666628,
      "v": 93
    },
    {
      "midi": 61,
      "hit": false,
      "t": 131454.6550000021,
      "d": 125.00010416665464,
      "v": 59
    },
    {
      "midi": 64,
      "hit": false,
      "t": 131454.6550000021,
      "d": 125.00010416665464,
      "v": 59
    },
    {
      "midi": 69,
      "hit": false,
      "t": 131454.6550000021,
      "d": 125.00010416665464,
      "v": 59
    },
    {
      "midi": 61,
      "hit": false,
      "t": 131454.65500000212,
      "d": 125.00010416665464,
      "v": 65
    },
    {
      "midi": 64,
      "hit": false,
      "t": 131454.65500000212,
      "d": 125.00010416665464,
      "v": 65
    },
    {
      "midi": 69,
      "hit": false,
      "t": 131454.65500000212,
      "d": 125.00010416665464,
      "v": 65
    },
    {
      "midi": 61,
      "hit": false,
      "t": 131591.01875000208,
      "d": 125.00010416665464,
      "v": 30
    },
    {
      "midi": 69,
      "hit": false,
      "t": 131591.01875000208,
      "d": 125.00010416665464,
      "v": 30
    },
    {
      "midi": 64,
      "hit": false,
      "t": 131591.01875000208,
      "d": 147.7273958333244,
      "v": 30
    },
    {
      "midi": 57,
      "hit": false,
      "t": 131591.01875000208,
      "d": 261.36385416664416,
      "v": 76
    },
    {
      "midi": 45,
      "hit": false,
      "t": 131591.0187500021,
      "d": 125.00010416665464,
      "v": 59
    },
    {
      "midi": 52,
      "hit": false,
      "t": 131591.0187500021,
      "d": 125.00010416665464,
      "v": 59
    },
    {
      "midi": 61,
      "hit": false,
      "t": 131591.0187500021,
      "d": 125.00010416665464,
      "v": 44
    },
    {
      "midi": 69,
      "hit": false,
      "t": 131591.0187500021,
      "d": 125.00010416665464,
      "v": 44
    },
    {
      "midi": 64,
      "hit": false,
      "t": 131591.0187500021,
      "d": 147.7273958333244,
      "v": 44
    },
    {
      "midi": 57,
      "hit": false,
      "t": 131591.0187500021,
      "d": 261.36385416664416,
      "v": 59
    },
    {
      "midi": 35,
      "hit": false,
      "t": 131863.74625000067,
      "d": 125.00010416665464,
      "v": 93
    },
    {
      "midi": 61,
      "hit": false,
      "t": 131863.74625000206,
      "d": 125.00010416665464,
      "v": 30
    },
    {
      "midi": 64,
      "hit": false,
      "t": 131863.74625000206,
      "d": 125.00010416665464,
      "v": 30
    },
    {
      "midi": 69,
      "hit": false,
      "t": 131863.74625000206,
      "d": 125.00010416665464,
      "v": 30
    },
    {
      "midi": 61,
      "hit": false,
      "t": 131863.7462500021,
      "d": 125.00010416665464,
      "v": 44
    },
    {
      "midi": 64,
      "hit": false,
      "t": 131863.7462500021,
      "d": 125.00010416665464,
      "v": 44
    },
    {
      "midi": 69,
      "hit": false,
      "t": 131863.7462500021,
      "d": 125.00010416665464,
      "v": 44
    },
    {
      "midi": 37,
      "hit": false,
      "t": 132000.11000000066,
      "d": 125.00010416665464,
      "v": 93
    },
    {
      "midi": 61,
      "hit": false,
      "t": 132000.11000000205,
      "d": 125.00010416665464,
      "v": 59
    },
    {
      "midi": 64,
      "hit": false,
      "t": 132000.11000000205,
      "d": 125.00010416665464,
      "v": 59
    },
    {
      "midi": 69,
      "hit": false,
      "t": 132000.11000000205,
      "d": 125.00010416665464,
      "v": 59
    },
    {
      "midi": 57,
      "hit": false,
      "t": 132000.11000000205,
      "d": 261.36385416664416,
      "v": 76
    },
    {
      "midi": 45,
      "hit": false,
      "t": 132000.11000000205,
      "d": 397.7276041666337,
      "v": 76
    },
    {
      "midi": 61,
      "hit": false,
      "t": 132000.11000000208,
      "d": 125.00010416665464,
      "v": 65
    },
    {
      "midi": 64,
      "hit": false,
      "t": 132000.11000000208,
      "d": 125.00010416665464,
      "v": 65
    },
    {
      "midi": 69,
      "hit": false,
      "t": 132000.11000000208,
      "d": 125.00010416665464,
      "v": 65
    },
    {
      "midi": 45,
      "hit": false,
      "t": 132000.11000000208,
      "d": 261.36385416664416,
      "v": 59
    },
    {
      "midi": 52,
      "hit": false,
      "t": 132000.11000000208,
      "d": 261.36385416664416,
      "v": 59
    },
    {
      "midi": 57,
      "hit": false,
      "t": 132000.11000000208,
      "d": 261.36385416664416,
      "v": 59
    },
    {
      "midi": 61,
      "hit": false,
      "t": 132136.47375000204,
      "d": 125.00010416665464,
      "v": 30
    },
    {
      "midi": 64,
      "hit": false,
      "t": 132136.47375000204,
      "d": 125.00010416665464,
      "v": 30
    },
    {
      "midi": 69,
      "hit": false,
      "t": 132136.47375000204,
      "d": 125.00010416665464,
      "v": 30
    },
    {
      "midi": 61,
      "hit": false,
      "t": 132136.47375000207,
      "d": 125.00010416665464,
      "v": 44
    },
    {
      "midi": 64,
      "hit": false,
      "t": 132136.47375000207,
      "d": 125.00010416665464,
      "v": 44
    },
    {
      "midi": 69,
      "hit": false,
      "t": 132136.47375000207,
      "d": 125.00010416665464,
      "v": 44
    },
    {
      "midi": 37,
      "hit": false,
      "t": 132272.83750000063,
      "d": 261.36385416667326,
      "v": 93
    },
    {
      "midi": 61,
      "hit": false,
      "t": 132272.83750000203,
      "d": 125.00010416665464,
      "v": 30
    },
    {
      "midi": 64,
      "hit": false,
      "t": 132272.83750000203,
      "d": 125.00010416665464,
      "v": 30
    },
    {
      "midi": 69,
      "hit": false,
      "t": 132272.83750000203,
      "d": 125.00010416665464,
      "v": 30
    },
    {
      "midi": 61,
      "hit": false,
      "t": 132272.83750000206,
      "d": 125.00010416665464,
      "v": 44
    },
    {
      "midi": 64,
      "hit": false,
      "t": 132272.83750000206,
      "d": 125.00010416665464,
      "v": 44
    },
    {
      "midi": 69,
      "hit": false,
      "t": 132272.83750000206,
      "d": 125.00010416665464,
      "v": 44
    },
    {
      "midi": 61,
      "hit": false,
      "t": 132409.20125000202,
      "d": 261.36385416667326,
      "v": 55
    },
    {
      "midi": 64,
      "hit": false,
      "t": 132409.20125000202,
      "d": 261.36385416667326,
      "v": 55
    },
    {
      "midi": 69,
      "hit": false,
      "t": 132409.20125000202,
      "d": 261.36385416667326,
      "v": 55
    },
    {
      "midi": 57,
      "hit": false,
      "t": 132409.20125000202,
      "d": 397.7276041666628,
      "v": 76
    },
    {
      "midi": 45,
      "hit": false,
      "t": 132409.20125000202,
      "d": 659.091458333307,
      "v": 76
    },
    {
      "midi": 45,
      "hit": false,
      "t": 132409.20125000205,
      "d": 125.00010416665464,
      "v": 59
    },
    {
      "midi": 52,
      "hit": false,
      "t": 132409.20125000205,
      "d": 125.00010416665464,
      "v": 59
    },
    {
      "midi": 57,
      "hit": false,
      "t": 132409.20125000205,
      "d": 261.36385416664416,
      "v": 59
    },
    {
      "midi": 61,
      "hit": false,
      "t": 132409.20125000205,
      "d": 261.36385416664416,
      "v": 61
    },
    {
      "midi": 64,
      "hit": false,
      "t": 132409.20125000205,
      "d": 261.36385416664416,
      "v": 61
    },
    {
      "midi": 69,
      "hit": false,
      "t": 132409.20125000205,
      "d": 261.36385416664416,
      "v": 61
    },
    {
      "midi": 61,
      "hit": false,
      "t": 132522.8377083335,
      "d": 261.36385416667326,
      "v": 64
    },
    {
      "midi": 39,
      "hit": false,
      "t": 132545.56500000064,
      "d": 261.36385416667326,
      "v": 93
    },
    {
      "midi": 61,
      "hit": false,
      "t": 132681.92875000203,
      "d": 125.00010416665464,
      "v": 30
    },
    {
      "midi": 64,
      "hit": false,
      "t": 132681.92875000203,
      "d": 125.00010416665464,
      "v": 30
    },
    {
      "midi": 69,
      "hit": false,
      "t": 132681.92875000203,
      "d": 125.00010416665464,
      "v": 30
    },
    {
      "midi": 61,
      "hit": false,
      "t": 132681.92875000203,
      "d": 125.00010416665464,
      "v": 44
    },
    {
      "midi": 64,
      "hit": false,
      "t": 132681.92875000203,
      "d": 125.00010416665464,
      "v": 44
    },
    {
      "midi": 69,
      "hit": false,
      "t": 132681.92875000203,
      "d": 125.00010416665464,
      "v": 44
    },
    {
      "midi": 64,
      "hit": false,
      "t": 132795.56520833352,
      "d": 261.36385416667326,
      "v": 64
    },
    {
      "midi": 40,
      "hit": false,
      "t": 132818.29250000065,
      "d": 125.00010416665464,
      "v": 93
    },
    {
      "midi": 61,
      "hit": false,
      "t": 132818.29250000202,
      "d": 125.00010416665464,
      "v": 55
    },
    {
      "midi": 64,
      "hit": false,
      "t": 132818.29250000202,
      "d": 125.00010416665464,
      "v": 55
    },
    {
      "midi": 69,
      "hit": false,
      "t": 132818.29250000202,
      "d": 125.00010416665464,
      "v": 55
    },
    {
      "midi": 61,
      "hit": false,
      "t": 132818.29250000202,
      "d": 125.00010416665464,
      "v": 61
    },
    {
      "midi": 64,
      "hit": false,
      "t": 132818.29250000202,
      "d": 125.00010416665464,
      "v": 61
    },
    {
      "midi": 69,
      "hit": false,
      "t": 132818.29250000202,
      "d": 125.00010416665464,
      "v": 61
    },
    {
      "midi": 61,
      "hit": false,
      "t": 132954.656250002,
      "d": 113.63645833331975,
      "v": 30
    },
    {
      "midi": 64,
      "hit": false,
      "t": 132954.656250002,
      "d": 113.63645833331975,
      "v": 30
    },
    {
      "midi": 69,
      "hit": false,
      "t": 132954.656250002,
      "d": 113.63645833331975,
      "v": 30
    },
    {
      "midi": 61,
      "hit": false,
      "t": 132954.656250002,
      "d": 113.63645833331975,
      "v": 44
    },
    {
      "midi": 64,
      "hit": false,
      "t": 132954.656250002,
      "d": 113.63645833331975,
      "v": 44
    },
    {
      "midi": 69,
      "hit": false,
      "t": 132954.656250002,
      "d": 113.63645833331975,
      "v": 44
    },
    {
      "midi": 64,
      "hit": false,
      "t": 133068.29270833352,
      "d": 1352.2738541666768,
      "v": 64
    },
    {
      "midi": 68,
      "hit": false,
      "t": 133068.29270833352,
      "d": 1352.2738541666768,
      "v": 64
    },
    {
      "midi": 71,
      "hit": false,
      "t": 133068.29270833352,
      "d": 1352.2738541666768,
      "v": 64
    },
    {
      "midi": 37,
      "hit": false,
      "t": 133091.02000000063,
      "d": 397.7276041666628,
      "v": 93
    },
    {
      "midi": 61,
      "hit": false,
      "t": 133091.020000002,
      "d": 261.36385416667326,
      "v": 55
    },
    {
      "midi": 64,
      "hit": false,
      "t": 133091.020000002,
      "d": 261.36385416667326,
      "v": 55
    },
    {
      "midi": 68,
      "hit": false,
      "t": 133091.020000002,
      "d": 261.36385416667326,
      "v": 55
    },
    {
      "midi": 49,
      "hit": false,
      "t": 133091.020000002,
      "d": 125.00010416665464,
      "v": 59
    },
    {
      "midi": 44,
      "hit": false,
      "t": 133091.020000002,
      "d": 261.36385416664416,
      "v": 59
    },
    {
      "midi": 56,
      "hit": false,
      "t": 133091.020000002,
      "d": 261.36385416664416,
      "v": 59
    },
    {
      "midi": 61,
      "hit": false,
      "t": 133091.020000002,
      "d": 261.36385416664416,
      "v": 61
    },
    {
      "midi": 64,
      "hit": false,
      "t": 133091.020000002,
      "d": 261.36385416664416,
      "v": 61
    },
    {
      "midi": 68,
      "hit": false,
      "t": 133091.020000002,
      "d": 261.36385416664416,
      "v": 61
    },
    {
      "midi": 64,
      "hit": false,
      "t": 133102.38364583446,
      "d": 102.27281250001397,
      "v": 76
    },
    {
      "midi": 76,
      "hit": false,
      "t": 133102.38364583446,
      "d": 102.27281250001397,
      "v": 76
    },
    {
      "midi": 64,
      "hit": false,
      "t": 133238.74739583448,
      "d": 102.27281250001397,
      "v": 41
    },
    {
      "midi": 76,
      "hit": false,
      "t": 133238.74739583448,
      "d": 102.27281250001397,
      "v": 41
    },
    {
      "midi": 56,
      "hit": false,
      "t": 133363.74750000198,
      "d": 125.00010416665464,
      "v": 59
    },
    {
      "midi": 44,
      "hit": false,
      "t": 133363.74750000198,
      "d": 261.36385416664416,
      "v": 59
    },
    {
      "midi": 49,
      "hit": false,
      "t": 133363.74750000198,
      "d": 261.36385416664416,
      "v": 59
    },
    {
      "midi": 61,
      "hit": false,
      "t": 133363.74750000198,
      "d": 261.36385416664416,
      "v": 44
    },
    {
      "midi": 64,
      "hit": false,
      "t": 133363.74750000198,
      "d": 261.36385416664416,
      "v": 44
    },
    {
      "midi": 68,
      "hit": false,
      "t": 133363.74750000198,
      "d": 261.36385416664416,
      "v": 44
    },
    {
      "midi": 56,
      "hit": false,
      "t": 133363.747500002,
      "d": 261.36385416667326,
      "v": 76
    },
    {
      "midi": 61,
      "hit": false,
      "t": 133363.747500002,
      "d": 261.36385416667326,
      "v": 30
    },
    {
      "midi": 64,
      "hit": false,
      "t": 133363.747500002,
      "d": 261.36385416667326,
      "v": 30
    },
    {
      "midi": 68,
      "hit": false,
      "t": 133363.747500002,
      "d": 261.36385416667326,
      "v": 30
    },
    {
      "midi": 49,
      "hit": false,
      "t": 133363.747500002,
      "d": 670.4551041666709,
      "v": 76
    },
    {
      "midi": 64,
      "hit": false,
      "t": 133375.1111458345,
      "d": 102.27281250001397,
      "v": 41
    },
    {
      "midi": 76,
      "hit": false,
      "t": 133375.1111458345,
      "d": 102.27281250001397,
      "v": 41
    },
    {
      "midi": 37,
      "hit": false,
      "t": 133500.11125000063,
      "d": 125.00010416665464,
      "v": 93
    },
    {
      "midi": 64,
      "hit": false,
      "t": 133511.47489583452,
      "d": 102.27281250001397,
      "v": 41
    },
    {
      "midi": 76,
      "hit": false,
      "t": 133511.47489583452,
      "d": 102.27281250001397,
      "v": 41
    },
    {
      "midi": 32,
      "hit": false,
      "t": 133636.47500000062,
      "d": 397.7276041666628,
      "v": 93
    },
    {
      "midi": 61,
      "hit": false,
      "t": 133636.47500000196,
      "d": 125.00010416665464,
      "v": 57
    },
    {
      "midi": 64,
      "hit": false,
      "t": 133636.47500000196,
      "d": 125.00010416665464,
      "v": 57
    },
    {
      "midi": 68,
      "hit": false,
      "t": 133636.47500000196,
      "d": 125.00010416665464,
      "v": 57
    },
    {
      "midi": 61,
      "hit": false,
      "t": 133636.475000002,
      "d": 125.00010416665464,
      "v": 51
    },
    {
      "midi": 64,
      "hit": false,
      "t": 133636.475000002,
      "d": 125.00010416665464,
      "v": 51
    },
    {
      "midi": 68,
      "hit": false,
      "t": 133636.475000002,
      "d": 125.00010416665464,
      "v": 51
    },
    {
      "midi": 64,
      "hit": false,
      "t": 133647.83864583453,
      "d": 102.27281250001397,
      "v": 41
    },
    {
      "midi": 76,
      "hit": false,
      "t": 133647.83864583453,
      "d": 102.27281250001397,
      "v": 41
    },
    {
      "midi": 44,
      "hit": false,
      "t": 133772.83875000195,
      "d": 125.00010416665464,
      "v": 59
    },
    {
      "midi": 49,
      "hit": false,
      "t": 133772.83875000195,
      "d": 125.00010416665464,
      "v": 59
    },
    {
      "midi": 56,
      "hit": false,
      "t": 133772.83875000195,
      "d": 125.00010416665464,
      "v": 59
    },
    {
      "midi": 61,
      "hit": false,
      "t": 133772.83875000195,
      "d": 159.0910416666593,
      "v": 44
    },
    {
      "midi": 64,
      "hit": false,
      "t": 133772.83875000195,
      "d": 159.0910416666593,
      "v": 44
    },
    {
      "midi": 68,
      "hit": false,
      "t": 133772.83875000195,
      "d": 159.0910416666593,
      "v": 44
    },
    {
      "midi": 56,
      "hit": false,
      "t": 133772.838750002,
      "d": 125.00010416665464,
      "v": 76
    },
    {
      "midi": 61,
      "hit": false,
      "t": 133772.838750002,
      "d": 159.0910416666593,
      "v": 30
    },
    {
      "midi": 64,
      "hit": false,
      "t": 133772.838750002,
      "d": 159.0910416666593,
      "v": 30
    },
    {
      "midi": 68,
      "hit": false,
      "t": 133772.838750002,
      "d": 159.0910416666593,
      "v": 30
    },
    {
      "midi": 64,
      "hit": false,
      "t": 133784.20239583455,
      "d": 102.27281250001397,
      "v": 41
    },
    {
      "midi": 76,
      "hit": false,
      "t": 133784.20239583455,
      "d": 102.27281250001397,
      "v": 41
    },
    {
      "midi": 64,
      "hit": false,
      "t": 133920.56614583457,
      "d": 102.27281250001397,
      "v": 76
    },
    {
      "midi": 76,
      "hit": false,
      "t": 133920.56614583457,
      "d": 102.27281250001397,
      "v": 76
    },
    {
      "midi": 32,
      "hit": false,
      "t": 134045.56625000061,
      "d": 125.00010416665464,
      "v": 93
    },
    {
      "midi": 61,
      "hit": false,
      "t": 134045.56625000192,
      "d": 125.00010416665464,
      "v": 44
    },
    {
      "midi": 64,
      "hit": false,
      "t": 134045.56625000192,
      "d": 125.00010416665464,
      "v": 44
    },
    {
      "midi": 68,
      "hit": false,
      "t": 134045.56625000192,
      "d": 125.00010416665464,
      "v": 44
    },
    {
      "midi": 61,
      "hit": false,
      "t": 134045.566250002,
      "d": 125.00010416665464,
      "v": 30
    },
    {
      "midi": 64,
      "hit": false,
      "t": 134045.566250002,
      "d": 125.00010416665464,
      "v": 30
    },
    {
      "midi": 68,
      "hit": false,
      "t": 134045.566250002,
      "d": 125.00010416665464,
      "v": 30
    },
    {
      "midi": 64,
      "hit": false,
      "t": 134056.9298958346,
      "d": 102.27281250001397,
      "v": 41
    },
    {
      "midi": 76,
      "hit": false,
      "t": 134056.9298958346,
      "d": 102.27281250001397,
      "v": 41
    },
    {
      "midi": 37,
      "hit": false,
      "t": 134181.9300000006,
      "d": 397.7276041666628,
      "v": 93
    },
    {
      "midi": 61,
      "hit": false,
      "t": 134181.9300000019,
      "d": 125.00010416665464,
      "v": 57
    },
    {
      "midi": 64,
      "hit": false,
      "t": 134181.9300000019,
      "d": 125.00010416665464,
      "v": 57
    },
    {
      "midi": 68,
      "hit": false,
      "t": 134181.9300000019,
      "d": 125.00010416665464,
      "v": 57
    },
    {
      "midi": 44,
      "hit": false,
      "t": 134181.9300000019,
      "d": 261.36385416664416,
      "v": 59
    },
    {
      "midi": 49,
      "hit": false,
      "t": 134181.9300000019,
      "d": 261.36385416664416,
      "v": 59
    },
    {
      "midi": 56,
      "hit": false,
      "t": 134181.9300000019,
      "d": 397.7276041666337,
      "v": 59
    },
    {
      "midi": 61,
      "hit": false,
      "t": 134181.930000002,
      "d": 125.00010416665464,
      "v": 51
    },
    {
      "midi": 64,
      "hit": false,
      "t": 134181.930000002,
      "d": 125.00010416665464,
      "v": 51
    },
    {
      "midi": 68,
      "hit": false,
      "t": 134181.930000002,
      "d": 125.00010416665464,
      "v": 51
    },
    {
      "midi": 56,
      "hit": false,
      "t": 134181.930000002,
      "d": 261.36385416664416,
      "v": 76
    },
    {
      "midi": 49,
      "hit": false,
      "t": 134181.930000002,
      "d": 397.7276041666337,
      "v": 76
    },
    {
      "midi": 64,
      "hit": false,
      "t": 134193.2936458346,
      "d": 102.27281250001397,
      "v": 41
    },
    {
      "midi": 76,
      "hit": false,
      "t": 134193.2936458346,
      "d": 102.27281250001397,
      "v": 41
    },
    {
      "midi": 61,
      "hit": false,
      "t": 134318.2937500019,
      "d": 125.00010416665464,
      "v": 44
    },
    {
      "midi": 64,
      "hit": false,
      "t": 134318.2937500019,
      "d": 125.00010416665464,
      "v": 44
    },
    {
      "midi": 68,
      "hit": false,
      "t": 134318.2937500019,
      "d": 125.00010416665464,
      "v": 44
    },
    {
      "midi": 61,
      "hit": false,
      "t": 134318.293750002,
      "d": 125.00010416665464,
      "v": 30
    },
    {
      "midi": 64,
      "hit": false,
      "t": 134318.293750002,
      "d": 125.00010416665464,
      "v": 30
    },
    {
      "midi": 68,
      "hit": false,
      "t": 134318.293750002,
      "d": 125.00010416665464,
      "v": 30
    },
    {
      "midi": 64,
      "hit": false,
      "t": 134329.65739583463,
      "d": 102.27281250001397,
      "v": 41
    },
    {
      "midi": 76,
      "hit": false,
      "t": 134329.65739583463,
      "d": 102.27281250001397,
      "v": 41
    },
    {
      "midi": 61,
      "hit": false,
      "t": 134454.6575000019,
      "d": 125.00010416665464,
      "v": 44
    },
    {
      "midi": 64,
      "hit": false,
      "t": 134454.6575000019,
      "d": 125.00010416665464,
      "v": 44
    },
    {
      "midi": 68,
      "hit": false,
      "t": 134454.6575000019,
      "d": 125.00010416665464,
      "v": 44
    },
    {
      "midi": 61,
      "hit": false,
      "t": 134454.65750000198,
      "d": 125.00010416665464,
      "v": 30
    },
    {
      "midi": 64,
      "hit": false,
      "t": 134454.65750000198,
      "d": 125.00010416665464,
      "v": 30
    },
    {
      "midi": 68,
      "hit": false,
      "t": 134454.65750000198,
      "d": 125.00010416665464,
      "v": 30
    },
    {
      "midi": 64,
      "hit": false,
      "t": 134466.02114583465,
      "d": 102.27281250001397,
      "v": 41
    },
    {
      "midi": 76,
      "hit": false,
      "t": 134466.02114583465,
      "d": 102.27281250001397,
      "v": 41
    },
    {
      "midi": 64,
      "hit": false,
      "t": 134568.29395833352,
      "d": 261.36385416667326,
      "v": 64
    },
    {
      "midi": 68,
      "hit": false,
      "t": 134568.29395833352,
      "d": 261.36385416667326,
      "v": 64
    },
    {
      "midi": 71,
      "hit": false,
      "t": 134568.29395833352,
      "d": 261.36385416667326,
      "v": 64
    },
    {
      "midi": 32,
      "hit": false,
      "t": 134591.0212500006,
      "d": 125.00010416665464,
      "v": 93
    },
    {
      "midi": 44,
      "hit": false,
      "t": 134591.02125000188,
      "d": 125.00010416665464,
      "v": 59
    },
    {
      "midi": 49,
      "hit": false,
      "t": 134591.02125000188,
      "d": 125.00010416665464,
      "v": 59
    },
    {
      "midi": 56,
      "hit": false,
      "t": 134591.02125000188,
      "d": 261.36385416664416,
      "v": 59
    },
    {
      "midi": 61,
      "hit": false,
      "t": 134591.02125000188,
      "d": 261.36385416664416,
      "v": 57
    },
    {
      "midi": 64,
      "hit": false,
      "t": 134591.02125000188,
      "d": 261.36385416664416,
      "v": 57
    },
    {
      "midi": 68,
      "hit": false,
      "t": 134591.02125000188,
      "d": 261.36385416664416,
      "v": 57
    },
    {
      "midi": 56,
      "hit": false,
      "t": 134591.02125000197,
      "d": 261.36385416667326,
      "v": 76
    },
    {
      "midi": 61,
      "hit": false,
      "t": 134591.02125000197,
      "d": 261.36385416667326,
      "v": 51
    },
    {
      "midi": 64,
      "hit": false,
      "t": 134591.02125000197,
      "d": 261.36385416667326,
      "v": 51
    },
    {
      "midi": 68,
      "hit": false,
      "t": 134591.02125000197,
      "d": 261.36385416667326,
      "v": 51
    },
    {
      "midi": 49,
      "hit": false,
      "t": 134591.02125000197,
      "d": 534.0913541666523,
      "v": 76
    },
    {
      "midi": 64,
      "hit": false,
      "t": 134602.38489583466,
      "d": 102.27281250001397,
      "v": 41
    },
    {
      "midi": 76,
      "hit": false,
      "t": 134602.38489583466,
      "d": 102.27281250001397,
      "v": 41
    },
    {
      "midi": 37,
      "hit": false,
      "t": 134727.3850000006,
      "d": 125.00010416665464,
      "v": 93
    },
    {
      "midi": 64,
      "hit": false,
      "t": 134738.74864583468,
      "d": 102.27281250001397,
      "v": 74
    },
    {
      "midi": 76,
      "hit": false,
      "t": 134738.74864583468,
      "d": 102.27281250001397,
      "v": 74
    },
    {
      "midi": 61,
      "hit": false,
      "t": 134841.02145833353,
      "d": 125.00010416665464,
      "v": 64
    },
    {
      "midi": 64,
      "hit": false,
      "t": 134841.02145833353,
      "d": 125.00010416665464,
      "v": 64
    },
    {
      "midi": 68,
      "hit": false,
      "t": 134841.02145833353,
      "d": 125.00010416665464,
      "v": 64
    },
    {
      "midi": 32,
      "hit": false,
      "t": 134863.74875000058,
      "d": 261.36385416667326,
      "v": 93
    },
    {
      "midi": 61,
      "hit": false,
      "t": 134863.74875000186,
      "d": 125.00010416665464,
      "v": 44
    },
    {
      "midi": 64,
      "hit": false,
      "t": 134863.74875000186,
      "d": 125.00010416665464,
      "v": 44
    },
    {
      "midi": 68,
      "hit": false,
      "t": 134863.74875000186,
      "d": 125.00010416665464,
      "v": 44
    },
    {
      "midi": 61,
      "hit": false,
      "t": 134863.74875000198,
      "d": 125.00010416665464,
      "v": 30
    },
    {
      "midi": 64,
      "hit": false,
      "t": 134863.74875000198,
      "d": 125.00010416665464,
      "v": 30
    },
    {
      "midi": 68,
      "hit": false,
      "t": 134863.74875000198,
      "d": 125.00010416665464,
      "v": 30
    },
    {
      "midi": 64,
      "hit": false,
      "t": 134875.1123958347,
      "d": 102.27281250001397,
      "v": 47
    },
    {
      "midi": 76,
      "hit": false,
      "t": 134875.1123958347,
      "d": 102.27281250001397,
      "v": 47
    },
    {
      "midi": 63,
      "hit": false,
      "t": 134977.38520833352,
      "d": 125.00010416665464,
      "v": 64
    },
    {
      "midi": 66,
      "hit": false,
      "t": 134977.38520833352,
      "d": 125.00010416665464,
      "v": 64
    },
    {
      "midi": 69,
      "hit": false,
      "t": 134977.38520833352,
      "d": 125.00010416665464,
      "v": 64
    },
    {
      "midi": 61,
      "hit": false,
      "t": 135000.11250000185,
      "d": 125.00010416665464,
      "v": 57
    },
    {
      "midi": 64,
      "hit": false,
      "t": 135000.11250000185,
      "d": 125.00010416665464,
      "v": 57
    },
    {
      "midi": 68,
      "hit": false,
      "t": 135000.11250000185,
      "d": 125.00010416665464,
      "v": 57
    },
    {
      "midi": 61,
      "hit": false,
      "t": 135000.11250000197,
      "d": 125.00010416665464,
      "v": 51
    },
    {
      "midi": 64,
      "hit": false,
      "t": 135000.11250000197,
      "d": 125.00010416665464,
      "v": 51
    },
    {
      "midi": 68,
      "hit": false,
      "t": 135000.11250000197,
      "d": 125.00010416665464,
      "v": 51
    },
    {
      "midi": 64,
      "hit": false,
      "t": 135011.47614583472,
      "d": 102.27281250001397,
      "v": 47
    },
    {
      "midi": 76,
      "hit": false,
      "t": 135011.47614583472,
      "d": 102.27281250001397,
      "v": 47
    },
    {
      "midi": 64,
      "hit": false,
      "t": 135113.7489583335,
      "d": 136.36374999998952,
      "v": 64
    },
    {
      "midi": 68,
      "hit": false,
      "t": 135113.7489583335,
      "d": 261.36385416664416,
      "v": 64
    },
    {
      "midi": 71,
      "hit": false,
      "t": 135113.7489583335,
      "d": 261.36385416664416,
      "v": 64
    },
    {
      "midi": 44,
      "hit": false,
      "t": 135136.47625000184,
      "d": 113.63645833331975,
      "v": 59
    },
    {
      "midi": 49,
      "hit": false,
      "t": 135136.47625000184,
      "d": 113.63645833331975,
      "v": 59
    },
    {
      "midi": 61,
      "hit": false,
      "t": 135136.47625000184,
      "d": 113.63645833331975,
      "v": 44
    },
    {
      "midi": 64,
      "hit": false,
      "t": 135136.47625000184,
      "d": 113.63645833331975,
      "v": 44
    },
    {
      "midi": 68,
      "hit": false,
      "t": 135136.47625000184,
      "d": 113.63645833331975,
      "v": 44
    },
    {
      "midi": 61,
      "hit": false,
      "t": 135136.47625000196,
      "d": 113.63645833331975,
      "v": 30
    },
    {
      "midi": 64,
      "hit": false,
      "t": 135136.47625000196,
      "d": 113.63645833331975,
      "v": 30
    },
    {
      "midi": 68,
      "hit": false,
      "t": 135136.47625000196,
      "d": 113.63645833331975,
      "v": 30
    },
    {
      "midi": 64,
      "hit": false,
      "t": 135147.83989583474,
      "d": 102.27281250001397,
      "v": 47
    },
    {
      "midi": 76,
      "hit": false,
      "t": 135147.83989583474,
      "d": 102.27281250001397,
      "v": 47
    },
    {
      "midi": 64,
      "hit": false,
      "t": 135250.1127083335,
      "d": 125.00010416665464,
      "v": 64
    },
    {
      "midi": 61,
      "hit": false,
      "t": 135250.1127083335,
      "d": 261.36385416664416,
      "v": 64
    },
    {
      "midi": 69,
      "hit": false,
      "t": 135250.1127083335,
      "d": 261.36385416664416,
      "v": 64
    },
    {
      "midi": 33,
      "hit": false,
      "t": 135272.84000000058,
      "d": 397.7276041666628,
      "v": 93
    },
    {
      "midi": 45,
      "hit": false,
      "t": 135272.84000000183,
      "d": 261.36385416667326,
      "v": 59
    },
    {
      "midi": 52,
      "hit": false,
      "t": 135272.84000000183,
      "d": 261.36385416667326,
      "v": 59
    },
    {
      "midi": 57,
      "hit": false,
      "t": 135272.84000000183,
      "d": 261.36385416667326,
      "v": 59
    },
    {
      "midi": 61,
      "hit": false,
      "t": 135272.84000000183,
      "d": 261.36385416667326,
      "v": 65
    },
    {
      "midi": 64,
      "hit": false,
      "t": 135272.84000000183,
      "d": 261.36385416667326,
      "v": 65
    },
    {
      "midi": 69,
      "hit": false,
      "t": 135272.84000000183,
      "d": 261.36385416667326,
      "v": 65
    },
    {
      "midi": 61,
      "hit": false,
      "t": 135272.84000000195,
      "d": 261.36385416667326,
      "v": 59
    },
    {
      "midi": 64,
      "hit": false,
      "t": 135272.84000000195,
      "d": 261.36385416667326,
      "v": 59
    },
    {
      "midi": 69,
      "hit": false,
      "t": 135272.84000000195,
      "d": 261.36385416667326,
      "v": 59
    },
    {
      "midi": 45,
      "hit": false,
      "t": 135545.56750000184,
      "d": 261.36385416667326,
      "v": 59
    },
    {
      "midi": 52,
      "hit": false,
      "t": 135545.56750000184,
      "d": 261.36385416667326,
      "v": 59
    },
    {
      "midi": 57,
      "hit": false,
      "t": 135545.56750000184,
      "d": 261.36385416667326,
      "v": 59
    },
    {
      "midi": 61,
      "hit": false,
      "t": 135545.56750000184,
      "d": 261.36385416667326,
      "v": 49
    },
    {
      "midi": 64,
      "hit": false,
      "t": 135545.56750000184,
      "d": 261.36385416667326,
      "v": 49
    },
    {
      "midi": 69,
      "hit": false,
      "t": 135545.56750000184,
      "d": 261.36385416667326,
      "v": 49
    },
    {
      "midi": 57,
      "hit": false,
      "t": 135545.56750000195,
      "d": 261.36385416667326,
      "v": 76
    },
    {
      "midi": 61,
      "hit": false,
      "t": 135545.56750000195,
      "d": 261.36385416667326,
      "v": 43
    },
    {
      "midi": 64,
      "hit": false,
      "t": 135545.56750000195,
      "d": 261.36385416667326,
      "v": 43
    },
    {
      "midi": 69,
      "hit": false,
      "t": 135545.56750000195,
      "d": 261.36385416667326,
      "v": 43
    },
    {
      "midi": 45,
      "hit": false,
      "t": 135545.56750000195,
      "d": 397.7276041666628,
      "v": 76
    },
    {
      "midi": 61,
      "hit": false,
      "t": 135659.20395833347,
      "d": 261.36385416667326,
      "v": 64
    },
    {
      "midi": 64,
      "hit": false,
      "t": 135659.20395833347,
      "d": 261.36385416667326,
      "v": 64
    },
    {
      "midi": 69,
      "hit": false,
      "t": 135659.20395833347,
      "d": 261.36385416667326,
      "v": 64
    },
    {
      "midi": 33,
      "hit": false,
      "t": 135681.93125000058,
      "d": 125.00010416665464,
      "v": 93
    },
    {
      "midi": 35,
      "hit": false,
      "t": 135818.29500000057,
      "d": 397.7276041666628,
      "v": 93
    },
    {
      "midi": 61,
      "hit": false,
      "t": 135818.29500000185,
      "d": 125.00010416665464,
      "v": 65
    },
    {
      "midi": 64,
      "hit": false,
      "t": 135818.29500000185,
      "d": 125.00010416665464,
      "v": 65
    },
    {
      "midi": 69,
      "hit": false,
      "t": 135818.29500000185,
      "d": 125.00010416665464,
      "v": 65
    },
    {
      "midi": 61,
      "hit": false,
      "t": 135818.29500000196,
      "d": 125.00010416665464,
      "v": 59
    },
    {
      "midi": 64,
      "hit": false,
      "t": 135818.29500000196,
      "d": 125.00010416665464,
      "v": 59
    },
    {
      "midi": 69,
      "hit": false,
      "t": 135818.29500000196,
      "d": 125.00010416665464,
      "v": 59
    },
    {
      "midi": 45,
      "hit": false,
      "t": 135954.65875000184,
      "d": 125.00010416665464,
      "v": 59
    },
    {
      "midi": 52,
      "hit": false,
      "t": 135954.65875000184,
      "d": 125.00010416665464,
      "v": 59
    },
    {
      "midi": 61,
      "hit": false,
      "t": 135954.65875000184,
      "d": 125.00010416665464,
      "v": 44
    },
    {
      "midi": 69,
      "hit": false,
      "t": 135954.65875000184,
      "d": 125.00010416665464,
      "v": 44
    },
    {
      "midi": 64,
      "hit": false,
      "t": 135954.65875000184,
      "d": 147.7273958333244,
      "v": 44
    },
    {
      "midi": 57,
      "hit": false,
      "t": 135954.65875000184,
      "d": 261.36385416664416,
      "v": 59
    },
    {
      "midi": 57,
      "hit": false,
      "t": 135954.65875000195,
      "d": 125.00010416665464,
      "v": 76
    },
    {
      "midi": 61,
      "hit": false,
      "t": 135954.65875000195,
      "d": 125.00010416665464,
      "v": 30
    },
    {
      "midi": 69,
      "hit": false,
      "t": 135954.65875000195,
      "d": 125.00010416665464,
      "v": 30
    },
    {
      "midi": 64,
      "hit": false,
      "t": 135954.65875000195,
      "d": 147.7273958333244,
      "v": 30
    },
    {
      "midi": 45,
      "hit": false,
      "t": 135954.65875000195,
      "d": 261.36385416664416,
      "v": 76
    },
    {
      "midi": 35,
      "hit": false,
      "t": 136227.38625000056,
      "d": 125.00010416665464,
      "v": 93
    },
    {
      "midi": 61,
      "hit": false,
      "t": 136227.38625000181,
      "d": 125.00010416665464,
      "v": 44
    },
    {
      "midi": 64,
      "hit": false,
      "t": 136227.38625000181,
      "d": 125.00010416665464,
      "v": 44
    },
    {
      "midi": 69,
      "hit": false,
      "t": 136227.38625000181,
      "d": 125.00010416665464,
      "v": 44
    },
    {
      "midi": 61,
      "hit": false,
      "t": 136227.38625000193,
      "d": 125.00010416665464,
      "v": 30
    },
    {
      "midi": 64,
      "hit": false,
      "t": 136227.38625000193,
      "d": 125.00010416665464,
      "v": 30
    },
    {
      "midi": 69,
      "hit": false,
      "t": 136227.38625000193,
      "d": 125.00010416665464,
      "v": 30
    },
    {
      "midi": 37,
      "hit": false,
      "t": 136363.75000000055,
      "d": 125.00010416665464,
      "v": 93
    },
    {
      "midi": 61,
      "hit": false,
      "t": 136363.7500000018,
      "d": 125.00010416665464,
      "v": 65
    },
    {
      "midi": 64,
      "hit": false,
      "t": 136363.7500000018,
      "d": 125.00010416665464,
      "v": 65
    },
    {
      "midi": 69,
      "hit": false,
      "t": 136363.7500000018,
      "d": 125.00010416665464,
      "v": 65
    },
    {
      "midi": 45,
      "hit": false,
      "t": 136363.7500000018,
      "d": 261.36385416664416,
      "v": 59
    },
    {
      "midi": 52,
      "hit": false,
      "t": 136363.7500000018,
      "d": 261.36385416664416,
      "v": 59
    },
    {
      "midi": 57,
      "hit": false,
      "t": 136363.7500000018,
      "d": 261.36385416664416,
      "v": 59
    },
    {
      "midi": 61,
      "hit": false,
      "t": 136363.75000000192,
      "d": 125.00010416665464,
      "v": 59
    },
    {
      "midi": 64,
      "hit": false,
      "t": 136363.75000000192,
      "d": 125.00010416665464,
      "v": 59
    },
    {
      "midi": 69,
      "hit": false,
      "t": 136363.75000000192,
      "d": 125.00010416665464,
      "v": 59
    },
    {
      "midi": 57,
      "hit": false,
      "t": 136363.75000000192,
      "d": 261.36385416664416,
      "v": 76
    },
    {
      "midi": 45,
      "hit": false,
      "t": 136363.75000000192,
      "d": 670.4551041666418,
      "v": 76
    },
    {
      "midi": 61,
      "hit": false,
      "t": 136500.1137500018,
      "d": 125.00010416665464,
      "v": 44
    },
    {
      "midi": 64,
      "hit": false,
      "t": 136500.1137500018,
      "d": 125.00010416665464,
      "v": 44
    },
    {
      "midi": 69,
      "hit": false,
      "t": 136500.1137500018,
      "d": 125.00010416665464,
      "v": 44
    },
    {
      "midi": 61,
      "hit": false,
      "t": 136500.1137500019,
      "d": 125.00010416665464,
      "v": 30
    },
    {
      "midi": 64,
      "hit": false,
      "t": 136500.1137500019,
      "d": 125.00010416665464,
      "v": 30
    },
    {
      "midi": 69,
      "hit": false,
      "t": 136500.1137500019,
      "d": 125.00010416665464,
      "v": 30
    },
    {
      "midi": 37,
      "hit": false,
      "t": 136636.47750000053,
      "d": 261.36385416667326,
      "v": 93
    },
    {
      "midi": 61,
      "hit": false,
      "t": 136636.47750000178,
      "d": 125.00010416665464,
      "v": 44
    },
    {
      "midi": 64,
      "hit": false,
      "t": 136636.47750000178,
      "d": 125.00010416665464,
      "v": 44
    },
    {
      "midi": 69,
      "hit": false,
      "t": 136636.47750000178,
      "d": 125.00010416665464,
      "v": 44
    },
    {
      "midi": 61,
      "hit": false,
      "t": 136636.4775000019,
      "d": 125.00010416665464,
      "v": 30
    },
    {
      "midi": 64,
      "hit": false,
      "t": 136636.4775000019,
      "d": 125.00010416665464,
      "v": 30
    },
    {
      "midi": 69,
      "hit": false,
      "t": 136636.4775000019,
      "d": 125.00010416665464,
      "v": 30
    },
    {
      "midi": 45,
      "hit": false,
      "t": 136772.84125000177,
      "d": 125.00010416665464,
      "v": 59
    },
    {
      "midi": 52,
      "hit": false,
      "t": 136772.84125000177,
      "d": 125.00010416665464,
      "v": 59
    },
    {
      "midi": 57,
      "hit": false,
      "t": 136772.84125000177,
      "d": 261.36385416664416,
      "v": 59
    },
    {
      "midi": 61,
      "hit": false,
      "t": 136772.84125000177,
      "d": 261.36385416664416,
      "v": 61
    },
    {
      "midi": 64,
      "hit": false,
      "t": 136772.84125000177,
      "d": 261.36385416664416,
      "v": 61
    },
    {
      "midi": 69,
      "hit": false,
      "t": 136772.84125000177,
      "d": 261.36385416664416,
      "v": 61
    },
    {
      "midi": 57,
      "hit": false,
      "t": 136772.8412500019,
      "d": 261.36385416667326,
      "v": 76
    },
    {
      "midi": 61,
      "hit": false,
      "t": 136772.8412500019,
      "d": 261.36385416667326,
      "v": 55
    },
    {
      "midi": 64,
      "hit": false,
      "t": 136772.8412500019,
      "d": 261.36385416667326,
      "v": 55
    },
    {
      "midi": 69,
      "hit": false,
      "t": 136772.8412500019,
      "d": 261.36385416667326,
      "v": 55
    },
    {
      "midi": 61,
      "hit": false,
      "t": 136886.47770833346,
      "d": 261.36385416667326,
      "v": 64
    },
    {
      "midi": 69,
      "hit": false,
      "t": 136886.47770833346,
      "d": 261.36385416667326,
      "v": 64
    },
    {
      "midi": 39,
      "hit": false,
      "t": 136909.20500000054,
      "d": 261.36385416667326,
      "v": 93
    },
    {
      "midi": 61,
      "hit": false,
      "t": 137045.56875000175,
      "d": 125.00010416665464,
      "v": 44
    },
    {
      "midi": 64,
      "hit": false,
      "t": 137045.56875000175,
      "d": 125.00010416665464,
      "v": 44
    },
    {
      "midi": 69,
      "hit": false,
      "t": 137045.56875000175,
      "d": 125.00010416665464,
      "v": 44
    },
    {
      "midi": 61,
      "hit": false,
      "t": 137045.5687500019,
      "d": 125.00010416665464,
      "v": 30
    },
    {
      "midi": 64,
      "hit": false,
      "t": 137045.5687500019,
      "d": 125.00010416665464,
      "v": 30
    },
    {
      "midi": 69,
      "hit": false,
      "t": 137045.5687500019,
      "d": 125.00010416665464,
      "v": 30
    },
    {
      "midi": 61,
      "hit": false,
      "t": 137159.20520833347,
      "d": 68.18187500000931,
      "v": 64
    },
    {
      "midi": 64,
      "hit": false,
      "t": 137159.20520833347,
      "d": 125.00010416668374,
      "v": 64
    },
    {
      "midi": 69,
      "hit": false,
      "t": 137159.20520833347,
      "d": 125.00010416668374,
      "v": 64
    },
    {
      "midi": 40,
      "hit": false,
      "t": 137181.93250000055,
      "d": 125.00010416665464,
      "v": 93
    },
    {
      "midi": 61,
      "hit": false,
      "t": 137181.93250000174,
      "d": 125.00010416665464,
      "v": 61
    },
    {
      "midi": 64,
      "hit": false,
      "t": 137181.93250000174,
      "d": 125.00010416665464,
      "v": 61
    },
    {
      "midi": 69,
      "hit": false,
      "t": 137181.93250000174,
      "d": 125.00010416665464,
      "v": 61
    },
    {
      "midi": 61,
      "hit": false,
      "t": 137181.9325000019,
      "d": 125.00010416665464,
      "v": 55
    },
    {
      "midi": 64,
      "hit": false,
      "t": 137181.9325000019,
      "d": 125.00010416665464,
      "v": 55
    },
    {
      "midi": 69,
      "hit": false,
      "t": 137181.9325000019,
      "d": 125.00010416665464,
      "v": 55
    },
    {
      "midi": 66,
      "hit": false,
      "t": 137295.5689583335,
      "d": 1897.728854166664,
      "v": 64
    },
    {
      "midi": 58,
      "hit": false,
      "t": 137295.5689583335,
      "d": 2170.456354166643,
      "v": 64
    },
    {
      "midi": 70,
      "hit": false,
      "t": 137295.5689583335,
      "d": 2306.8201041666325,
      "v": 64
    },
    {
      "midi": 61,
      "hit": false,
      "t": 137295.5689583335,
      "d": 4500.003749999974,
      "v": 64
    },
    {
      "midi": 64,
      "hit": false,
      "t": 137318.29625000173,
      "d": 113.63645833331975,
      "v": 44
    },
    {
      "midi": 69,
      "hit": false,
      "t": 137318.29625000173,
      "d": 113.63645833331975,
      "v": 44
    },
    {
      "midi": 61,
      "hit": false,
      "t": 137318.29625000173,
      "d": 136.36374999998952,
      "v": 44
    },
    {
      "midi": 64,
      "hit": false,
      "t": 137318.29625000188,
      "d": 113.63645833331975,
      "v": 30
    },
    {
      "midi": 69,
      "hit": false,
      "t": 137318.29625000188,
      "d": 113.63645833331975,
      "v": 30
    },
    {
      "midi": 61,
      "hit": false,
      "t": 137318.29625000188,
      "d": 136.36374999998952,
      "v": 30
    },
    {
      "midi": 42,
      "hit": false,
      "t": 137454.66000000053,
      "d": 397.7276041666628,
      "v": 93
    },
    {
      "midi": 61,
      "hit": false,
      "t": 137454.66000000172,
      "d": 11.363645833334886,
      "v": 47
    },
    {
      "midi": 66,
      "hit": false,
      "t": 137454.66000000172,
      "d": 261.36385416667326,
      "v": 47
    },
    {
      "midi": 70,
      "hit": false,
      "t": 137454.66000000172,
      "d": 261.36385416667326,
      "v": 47
    },
    {
      "midi": 61,
      "hit": false,
      "t": 137454.66000000187,
      "d": 11.363645833334886,
      "v": 41
    },
    {
      "midi": 66,
      "hit": false,
      "t": 137454.66000000187,
      "d": 261.36385416667326,
      "v": 41
    },
    {
      "midi": 70,
      "hit": false,
      "t": 137454.66000000187,
      "d": 261.36385416667326,
      "v": 41
    },
    {
      "midi": 64,
      "hit": false,
      "t": 137466.02364583476,
      "d": 102.27281250001397,
      "v": 76
    },
    {
      "midi": 76,
      "hit": false,
      "t": 137466.02364583476,
      "d": 102.27281250001397,
      "v": 76
    },
    {
      "midi": 64,
      "hit": false,
      "t": 137602.38739583478,
      "d": 102.27281250001397,
      "v": 41
    },
    {
      "midi": 76,
      "hit": false,
      "t": 137602.38739583478,
      "d": 102.27281250001397,
      "v": 41
    },
    {
      "midi": 54,
      "hit": false,
      "t": 137727.38750000173,
      "d": 261.36385416667326,
      "v": 59
    },
    {
      "midi": 58,
      "hit": false,
      "t": 137727.38750000173,
      "d": 261.36385416667326,
      "v": 59
    },
    {
      "midi": 61,
      "hit": false,
      "t": 137727.38750000173,
      "d": 261.36385416667326,
      "v": 53
    },
    {
      "midi": 66,
      "hit": false,
      "t": 137727.38750000173,
      "d": 261.36385416667326,
      "v": 53
    },
    {
      "midi": 70,
      "hit": false,
      "t": 137727.38750000173,
      "d": 261.36385416667326,
      "v": 53
    },
    {
      "midi": 64,
      "hit": false,
      "t": 137727.38750000173,
      "d": 397.7276041666628,
      "v": 59
    },
    {
      "midi": 58,
      "hit": false,
      "t": 137727.38750000187,
      "d": 261.36385416667326,
      "v": 76
    },
    {
      "midi": 61,
      "hit": false,
      "t": 137727.38750000187,
      "d": 261.36385416667326,
      "v": 47
    },
    {
      "midi": 66,
      "hit": false,
      "t": 137727.38750000187,
      "d": 261.36385416667326,
      "v": 47
    },
    {
      "midi": 70,
      "hit": false,
      "t": 137727.38750000187,
      "d": 261.36385416667326,
      "v": 47
    },
    {
      "midi": 64,
      "hit": false,
      "t": 137738.7511458348,
      "d": 102.27281250001397,
      "v": 41
    },
    {
      "midi": 76,
      "hit": false,
      "t": 137738.7511458348,
      "d": 102.27281250001397,
      "v": 41
    },
    {
      "midi": 42,
      "hit": false,
      "t": 137863.75125000053,
      "d": 125.00010416665464,
      "v": 93
    },
    {
      "midi": 64,
      "hit": false,
      "t": 137875.11489583482,
      "d": 102.27281250001397,
      "v": 41
    },
    {
      "midi": 76,
      "hit": false,
      "t": 137875.11489583482,
      "d": 102.27281250001397,
      "v": 41
    },
    {
      "midi": 37,
      "hit": false,
      "t": 138000.11500000051,
      "d": 261.36385416667326,
      "v": 93
    },
    {
      "midi": 61,
      "hit": false,
      "t": 138000.11500000174,
      "d": 125.00010416665464,
      "v": 57
    },
    {
      "midi": 66,
      "hit": false,
      "t": 138000.11500000174,
      "d": 125.00010416665464,
      "v": 57
    },
    {
      "midi": 70,
      "hit": false,
      "t": 138000.11500000174,
      "d": 125.00010416665464,
      "v": 57
    },
    {
      "midi": 61,
      "hit": false,
      "t": 138000.11500000188,
      "d": 125.00010416665464,
      "v": 51
    },
    {
      "midi": 66,
      "hit": false,
      "t": 138000.11500000188,
      "d": 125.00010416665464,
      "v": 51
    },
    {
      "midi": 70,
      "hit": false,
      "t": 138000.11500000188,
      "d": 125.00010416665464,
      "v": 51
    },
    {
      "midi": 64,
      "hit": false,
      "t": 138011.47864583484,
      "d": 102.27281250001397,
      "v": 41
    },
    {
      "midi": 76,
      "hit": false,
      "t": 138011.47864583484,
      "d": 102.27281250001397,
      "v": 41
    },
    {
      "midi": 61,
      "hit": false,
      "t": 138136.47875000173,
      "d": 159.0910416666593,
      "v": 44
    },
    {
      "midi": 66,
      "hit": false,
      "t": 138136.47875000173,
      "d": 159.0910416666593,
      "v": 44
    },
    {
      "midi": 70,
      "hit": false,
      "t": 138136.47875000173,
      "d": 159.0910416666593,
      "v": 44
    },
    {
      "midi": 54,
      "hit": false,
      "t": 138136.47875000173,
      "d": 261.36385416667326,
      "v": 59
    },
    {
      "midi": 58,
      "hit": false,
      "t": 138136.47875000173,
      "d": 261.36385416667326,
      "v": 59
    },
    {
      "midi": 64,
      "hit": false,
      "t": 138136.47875000173,
      "d": 397.7276041666628,
      "v": 59
    },
    {
      "midi": 58,
      "hit": false,
      "t": 138136.47875000187,
      "d": 125.00010416665464,
      "v": 76
    },
    {
      "midi": 61,
      "hit": false,
      "t": 138136.47875000187,
      "d": 159.0910416666593,
      "v": 30
    },
    {
      "midi": 66,
      "hit": false,
      "t": 138136.47875000187,
      "d": 159.0910416666593,
      "v": 30
    },
    {
      "midi": 70,
      "hit": false,
      "t": 138136.47875000187,
      "d": 159.0910416666593,
      "v": 30
    },
    {
      "midi": 64,
      "hit": false,
      "t": 138147.84239583486,
      "d": 102.27281250001397,
      "v": 41
    },
    {
      "midi": 76,
      "hit": false,
      "t": 138147.84239583486,
      "d": 102.27281250001397,
      "v": 41
    },
    {
      "midi": 64,
      "hit": false,
      "t": 138284.20614583488,
      "d": 102.27281250001397,
      "v": 76
    },
    {
      "midi": 76,
      "hit": false,
      "t": 138284.20614583488,
      "d": 102.27281250001397,
      "v": 76
    },
    {
      "midi": 37,
      "hit": false,
      "t": 138409.2062500005,
      "d": 125.00010416665464,
      "v": 93
    },
    {
      "midi": 61,
      "hit": false,
      "t": 138409.20625000173,
      "d": 125.00010416665464,
      "v": 44
    },
    {
      "midi": 66,
      "hit": false,
      "t": 138409.20625000173,
      "d": 125.00010416665464,
      "v": 44
    },
    {
      "midi": 70,
      "hit": false,
      "t": 138409.20625000173,
      "d": 125.00010416665464,
      "v": 44
    },
    {
      "midi": 61,
      "hit": false,
      "t": 138409.20625000185,
      "d": 125.00010416665464,
      "v": 30
    },
    {
      "midi": 66,
      "hit": false,
      "t": 138409.20625000185,
      "d": 125.00010416665464,
      "v": 30
    },
    {
      "midi": 70,
      "hit": false,
      "t": 138409.20625000185,
      "d": 125.00010416665464,
      "v": 30
    },
    {
      "midi": 64,
      "hit": false,
      "t": 138420.5698958349,
      "d": 102.27281250001397,
      "v": 41
    },
    {
      "midi": 76,
      "hit": false,
      "t": 138420.5698958349,
      "d": 102.27281250001397,
      "v": 41
    },
    {
      "midi": 42,
      "hit": false,
      "t": 138545.5700000005,
      "d": 397.7276041666628,
      "v": 93
    },
    {
      "midi": 61,
      "hit": false,
      "t": 138545.57000000172,
      "d": 125.00010416665464,
      "v": 57
    },
    {
      "midi": 66,
      "hit": false,
      "t": 138545.57000000172,
      "d": 125.00010416665464,
      "v": 57
    },
    {
      "midi": 70,
      "hit": false,
      "t": 138545.57000000172,
      "d": 125.00010416665464,
      "v": 57
    },
    {
      "midi": 58,
      "hit": false,
      "t": 138545.57000000172,
      "d": 261.36385416664416,
      "v": 59
    },
    {
      "midi": 54,
      "hit": false,
      "t": 138545.57000000172,
      "d": 397.7276041666337,
      "v": 59
    },
    {
      "midi": 64,
      "hit": false,
      "t": 138545.57000000172,
      "d": 397.7276041666337,
      "v": 59
    },
    {
      "midi": 61,
      "hit": false,
      "t": 138545.57000000184,
      "d": 125.00010416665464,
      "v": 51
    },
    {
      "midi": 66,
      "hit": false,
      "t": 138545.57000000184,
      "d": 125.00010416665464,
      "v": 51
    },
    {
      "midi": 70,
      "hit": false,
      "t": 138545.57000000184,
      "d": 125.00010416665464,
      "v": 51
    },
    {
      "midi": 58,
      "hit": false,
      "t": 138545.57000000184,
      "d": 261.36385416664416,
      "v": 76
    },
    {
      "midi": 64,
      "hit": false,
      "t": 138556.9336458349,
      "d": 102.27281250001397,
      "v": 41
    },
    {
      "midi": 76,
      "hit": false,
      "t": 138556.9336458349,
      "d": 102.27281250001397,
      "v": 41
    },
    {
      "midi": 61,
      "hit": false,
      "t": 138681.9337500017,
      "d": 125.00010416665464,
      "v": 44
    },
    {
      "midi": 66,
      "hit": false,
      "t": 138681.9337500017,
      "d": 125.00010416665464,
      "v": 44
    },
    {
      "midi": 70,
      "hit": false,
      "t": 138681.9337500017,
      "d": 125.00010416665464,
      "v": 44
    },
    {
      "midi": 61,
      "hit": false,
      "t": 138681.93375000183,
      "d": 125.00010416665464,
      "v": 30
    },
    {
      "midi": 66,
      "hit": false,
      "t": 138681.93375000183,
      "d": 125.00010416665464,
      "v": 30
    },
    {
      "midi": 70,
      "hit": false,
      "t": 138681.93375000183,
      "d": 125.00010416665464,
      "v": 30
    },
    {
      "midi": 64,
      "hit": false,
      "t": 138693.29739583493,
      "d": 102.27281250001397,
      "v": 41
    },
    {
      "midi": 76,
      "hit": false,
      "t": 138693.29739583493,
      "d": 102.27281250001397,
      "v": 41
    },
    {
      "midi": 61,
      "hit": false,
      "t": 138818.2975000017,
      "d": 125.00010416665464,
      "v": 44
    },
    {
      "midi": 66,
      "hit": false,
      "t": 138818.2975000017,
      "d": 125.00010416665464,
      "v": 44
    },
    {
      "midi": 70,
      "hit": false,
      "t": 138818.2975000017,
      "d": 125.00010416665464,
      "v": 44
    },
    {
      "midi": 61,
      "hit": false,
      "t": 138818.29750000182,
      "d": 125.00010416665464,
      "v": 30
    },
    {
      "midi": 66,
      "hit": false,
      "t": 138818.29750000182,
      "d": 125.00010416665464,
      "v": 30
    },
    {
      "midi": 70,
      "hit": false,
      "t": 138818.29750000182,
      "d": 125.00010416665464,
      "v": 30
    },
    {
      "midi": 64,
      "hit": false,
      "t": 138829.66114583495,
      "d": 102.27281250001397,
      "v": 41
    },
    {
      "midi": 76,
      "hit": false,
      "t": 138829.66114583495,
      "d": 102.27281250001397,
      "v": 41
    },
    {
      "midi": 37,
      "hit": false,
      "t": 138954.6612500005,
      "d": 125.00010416665464,
      "v": 93
    },
    {
      "midi": 52,
      "hit": false,
      "t": 138954.6612500017,
      "d": 261.36385416667326,
      "v": 59
    },
    {
      "midi": 58,
      "hit": false,
      "t": 138954.6612500017,
      "d": 261.36385416667326,
      "v": 59
    },
    {
      "midi": 61,
      "hit": false,
      "t": 138954.6612500017,
      "d": 261.36385416667326,
      "v": 57
    },
    {
      "midi": 64,
      "hit": false,
      "t": 138954.6612500017,
      "d": 261.36385416667326,
      "v": 59
    },
    {
      "midi": 66,
      "hit": false,
      "t": 138954.6612500017,
      "d": 261.36385416667326,
      "v": 57
    },
    {
      "midi": 70,
      "hit": false,
      "t": 138954.6612500017,
      "d": 261.36385416667326,
      "v": 57
    },
    {
      "midi": 58,
      "hit": false,
      "t": 138954.6612500018,
      "d": 261.36385416667326,
      "v": 76
    },
    {
      "midi": 61,
      "hit": false,
      "t": 138954.6612500018,
      "d": 261.36385416667326,
      "v": 51
    },
    {
      "midi": 66,
      "hit": false,
      "t": 138954.6612500018,
      "d": 261.36385416667326,
      "v": 51
    },
    {
      "midi": 70,
      "hit": false,
      "t": 138954.6612500018,
      "d": 261.36385416667326,
      "v": 51
    },
    {
      "midi": 64,
      "hit": false,
      "t": 138966.02489583497,
      "d": 102.27281250001397,
      "v": 41
    },
    {
      "midi": 76,
      "hit": false,
      "t": 138966.02489583497,
      "d": 102.27281250001397,
      "v": 41
    },
    {
      "midi": 42,
      "hit": false,
      "t": 139091.0250000005,
      "d": 125.00010416665464,
      "v": 93
    },
    {
      "midi": 64,
      "hit": false,
      "t": 139102.388645835,
      "d": 102.27281250001397,
      "v": 74
    },
    {
      "midi": 76,
      "hit": false,
      "t": 139102.388645835,
      "d": 102.27281250001397,
      "v": 74
    },
    {
      "midi": 68,
      "hit": false,
      "t": 139204.6614583335,
      "d": 125.00010416665464,
      "v": 64
    },
    {
      "midi": 37,
      "hit": false,
      "t": 139227.38875000048,
      "d": 125.00010416665464,
      "v": 93
    },
    {
      "midi": 54,
      "hit": false,
      "t": 139227.3887500017,
      "d": 125.00010416665464,
      "v": 59
    },
    {
      "midi": 61,
      "hit": false,
      "t": 139227.3887500017,
      "d": 125.00010416665464,
      "v": 44
    },
    {
      "midi": 66,
      "hit": false,
      "t": 139227.3887500017,
      "d": 125.00010416665464,
      "v": 44
    },
    {
      "midi": 70,
      "hit": false,
      "t": 139227.3887500017,
      "d": 125.00010416665464,
      "v": 44
    },
    {
      "midi": 61,
      "hit": false,
      "t": 139227.38875000182,
      "d": 125.00010416665464,
      "v": 30
    },
    {
      "midi": 66,
      "hit": false,
      "t": 139227.38875000182,
      "d": 125.00010416665464,
      "v": 30
    },
    {
      "midi": 70,
      "hit": false,
      "t": 139227.38875000182,
      "d": 125.00010416665464,
      "v": 30
    },
    {
      "midi": 64,
      "hit": false,
      "t": 139238.752395835,
      "d": 102.27281250001397,
      "v": 47
    },
    {
      "midi": 76,
      "hit": false,
      "t": 139238.752395835,
      "d": 102.27281250001397,
      "v": 47
    },
    {
      "midi": 66,
      "hit": false,
      "t": 139341.02520833348,
      "d": 125.00010416665464,
      "v": 64
    },
    {
      "midi": 44,
      "hit": false,
      "t": 139363.75250000047,
      "d": 125.00010416665464,
      "v": 93
    },
    {
      "midi": 52,
      "hit": false,
      "t": 139363.7525000017,
      "d": 125.00010416665464,
      "v": 59
    },
    {
      "midi": 58,
      "hit": false,
      "t": 139363.7525000017,
      "d": 125.00010416665464,
      "v": 59
    },
    {
      "midi": 61,
      "hit": false,
      "t": 139363.7525000017,
      "d": 125.00010416665464,
      "v": 57
    },
    {
      "midi": 64,
      "hit": false,
      "t": 139363.7525000017,
      "d": 125.00010416665464,
      "v": 59
    },
    {
      "midi": 66,
      "hit": false,
      "t": 139363.7525000017,
      "d": 125.00010416665464,
      "v": 57
    },
    {
      "midi": 70,
      "hit": false,
      "t": 139363.7525000017,
      "d": 125.00010416665464,
      "v": 57
    },
    {
      "midi": 58,
      "hit": false,
      "t": 139363.7525000018,
      "d": 125.00010416665464,
      "v": 76
    },
    {
      "midi": 61,
      "hit": false,
      "t": 139363.7525000018,
      "d": 125.00010416665464,
      "v": 51
    },
    {
      "midi": 66,
      "hit": false,
      "t": 139363.7525000018,
      "d": 125.00010416665464,
      "v": 51
    },
    {
      "midi": 70,
      "hit": false,
      "t": 139363.7525000018,
      "d": 125.00010416665464,
      "v": 51
    },
    {
      "midi": 64,
      "hit": false,
      "t": 139375.11614583503,
      "d": 102.27281250001397,
      "v": 47
    },
    {
      "midi": 76,
      "hit": false,
      "t": 139375.11614583503,
      "d": 102.27281250001397,
      "v": 47
    },
    {
      "midi": 57,
      "hit": false,
      "t": 139477.38895833347,
      "d": 2295.4564583333267,
      "v": 64
    },
    {
      "midi": 64,
      "hit": false,
      "t": 139477.38895833347,
      "d": 2318.1837499999965,
      "v": 64
    },
    {
      "midi": 61,
      "hit": false,
      "t": 139500.11625000168,
      "d": 125.00010416665464,
      "v": 44
    },
    {
      "midi": 66,
      "hit": false,
      "t": 139500.11625000168,
      "d": 125.00010416665464,
      "v": 44
    },
    {
      "midi": 70,
      "hit": false,
      "t": 139500.11625000168,
      "d": 125.00010416665464,
      "v": 44
    },
    {
      "midi": 61,
      "hit": false,
      "t": 139500.1162500018,
      "d": 125.00010416665464,
      "v": 30
    },
    {
      "midi": 66,
      "hit": false,
      "t": 139500.1162500018,
      "d": 125.00010416665464,
      "v": 30
    },
    {
      "midi": 70,
      "hit": false,
      "t": 139500.1162500018,
      "d": 125.00010416665464,
      "v": 30
    },
    {
      "midi": 64,
      "hit": false,
      "t": 139511.47989583504,
      "d": 102.27281250001397,
      "v": 47
    },
    {
      "midi": 76,
      "hit": false,
      "t": 139511.47989583504,
      "d": 102.27281250001397,
      "v": 47
    },
    {
      "midi": 69,
      "hit": false,
      "t": 139613.75270833346,
      "d": 2159.092708333337,
      "v": 64
    },
    {
      "midi": 45,
      "hit": false,
      "t": 139636.48000000045,
      "d": 261.36385416667326,
      "v": 93
    },
    {
      "midi": 45,
      "hit": false,
      "t": 139636.48000000167,
      "d": 125.00010416665464,
      "v": 44
    },
    {
      "midi": 45,
      "hit": false,
      "t": 139636.4800000018,
      "d": 125.00010416665464,
      "v": 30
    },
    {
      "midi": 64,
      "hit": false,
      "t": 139647.84364583506,
      "d": 102.27281250001397,
      "v": 76
    },
    {
      "midi": 76,
      "hit": false,
      "t": 139647.84364583506,
      "d": 102.27281250001397,
      "v": 76
    },
    {
      "midi": 45,
      "hit": false,
      "t": 139681.93458333335,
      "d": 125.00010416665464,
      "v": 39
    },
    {
      "midi": 52,
      "hit": false,
      "t": 139772.84375000166,
      "d": 125.00010416665464,
      "v": 44
    },
    {
      "midi": 52,
      "hit": false,
      "t": 139772.84375000178,
      "d": 125.00010416665464,
      "v": 30
    },
    {
      "midi": 64,
      "hit": false,
      "t": 139784.20739583508,
      "d": 102.27281250001397,
      "v": 41
    },
    {
      "midi": 76,
      "hit": false,
      "t": 139784.20739583508,
      "d": 102.27281250001397,
      "v": 41
    },
    {
      "midi": 52,
      "hit": false,
      "t": 139818.29833333334,
      "d": 125.00010416665464,
      "v": 39
    },
    {
      "midi": 52,
      "hit": false,
      "t": 139909.20750000165,
      "d": 261.36385416667326,
      "v": 59
    },
    {
      "midi": 57,
      "hit": false,
      "t": 139909.20750000165,
      "d": 261.36385416667326,
      "v": 61
    },
    {
      "midi": 61,
      "hit": false,
      "t": 139909.20750000165,
      "d": 261.36385416667326,
      "v": 61
    },
    {
      "midi": 64,
      "hit": false,
      "t": 139909.20750000165,
      "d": 261.36385416667326,
      "v": 61
    },
    {
      "midi": 69,
      "hit": false,
      "t": 139909.20750000165,
      "d": 261.36385416667326,
      "v": 61
    },
    {
      "midi": 52,
      "hit": false,
      "t": 139909.20750000176,
      "d": 261.36385416667326,
      "v": 76
    },
    {
      "midi": 57,
      "hit": false,
      "t": 139909.20750000176,
      "d": 261.36385416667326,
      "v": 55
    },
    {
      "midi": 61,
      "hit": false,
      "t": 139909.20750000176,
      "d": 261.36385416667326,
      "v": 55
    },
    {
      "midi": 64,
      "hit": false,
      "t": 139909.20750000176,
      "d": 261.36385416667326,
      "v": 55
    },
    {
      "midi": 69,
      "hit": false,
      "t": 139909.20750000176,
      "d": 261.36385416667326,
      "v": 55
    },
    {
      "midi": 64,
      "hit": false,
      "t": 139920.5711458351,
      "d": 102.27281250001397,
      "v": 41
    },
    {
      "midi": 76,
      "hit": false,
      "t": 139920.5711458351,
      "d": 102.27281250001397,
      "v": 41
    },
    {
      "midi": 52,
      "hit": false,
      "t": 139954.66208333333,
      "d": 261.36385416667326,
      "v": 66
    },
    {
      "midi": 57,
      "hit": false,
      "t": 139954.66208333333,
      "d": 261.36385416667326,
      "v": 68
    },
    {
      "midi": 61,
      "hit": false,
      "t": 139954.66208333333,
      "d": 261.36385416667326,
      "v": 68
    },
    {
      "midi": 64,
      "hit": false,
      "t": 139954.66208333333,
      "d": 261.36385416667326,
      "v": 68
    },
    {
      "midi": 69,
      "hit": false,
      "t": 139954.66208333333,
      "d": 261.36385416667326,
      "v": 68
    },
    {
      "midi": 45,
      "hit": false,
      "t": 140045.57125000044,
      "d": 125.00010416665464,
      "v": 93
    },
    {
      "midi": 64,
      "hit": false,
      "t": 140056.93489583512,
      "d": 102.27281250001397,
      "v": 41
    },
    {
      "midi": 76,
      "hit": false,
      "t": 140056.93489583512,
      "d": 102.27281250001397,
      "v": 41
    },
    {
      "midi": 44,
      "hit": false,
      "t": 140181.93500000043,
      "d": 261.36385416667326,
      "v": 93
    },
    {
      "midi": 64,
      "hit": false,
      "t": 140181.93500000166,
      "d": 125.00010416665464,
      "v": 44
    },
    {
      "midi": 69,
      "hit": false,
      "t": 140181.93500000166,
      "d": 125.00010416665464,
      "v": 44
    },
    {
      "midi": 64,
      "hit": false,
      "t": 140181.93500000177,
      "d": 125.00010416665464,
      "v": 30
    },
    {
      "midi": 69,
      "hit": false,
      "t": 140181.93500000177,
      "d": 125.00010416665464,
      "v": 30
    },
    {
      "midi": 64,
      "hit": false,
      "t": 140193.29864583514,
      "d": 102.27281250001397,
      "v": 41
    },
    {
      "midi": 76,
      "hit": false,
      "t": 140193.29864583514,
      "d": 102.27281250001397,
      "v": 41
    },
    {
      "midi": 64,
      "hit": false,
      "t": 140227.38958333334,
      "d": 125.00010416665464,
      "v": 39
    },
    {
      "midi": 69,
      "hit": false,
      "t": 140227.38958333334,
      "d": 125.00010416665464,
      "v": 39
    },
    {
      "midi": 52,
      "hit": false,
      "t": 140318.29875000165,
      "d": 125.00010416665464,
      "v": 59
    },
    {
      "midi": 56,
      "hit": false,
      "t": 140318.29875000165,
      "d": 125.00010416665464,
      "v": 61
    },
    {
      "midi": 59,
      "hit": false,
      "t": 140318.29875000165,
      "d": 125.00010416665464,
      "v": 61
    },
    {
      "midi": 64,
      "hit": false,
      "t": 140318.29875000165,
      "d": 125.00010416665464,
      "v": 61
    },
    {
      "midi": 69,
      "hit": false,
      "t": 140318.29875000165,
      "d": 125.00010416665464,
      "v": 61
    },
    {
      "midi": 56,
      "hit": false,
      "t": 140318.29875000176,
      "d": 125.00010416665464,
      "v": 55
    },
    {
      "midi": 59,
      "hit": false,
      "t": 140318.29875000176,
      "d": 125.00010416665464,
      "v": 55
    },
    {
      "midi": 64,
      "hit": false,
      "t": 140318.29875000176,
      "d": 125.00010416665464,
      "v": 55
    },
    {
      "midi": 69,
      "hit": false,
      "t": 140318.29875000176,
      "d": 125.00010416665464,
      "v": 55
    },
    {
      "midi": 52,
      "hit": false,
      "t": 140318.29875000176,
      "d": 261.36385416664416,
      "v": 76
    },
    {
      "midi": 64,
      "hit": false,
      "t": 140329.66239583516,
      "d": 102.27281250001397,
      "v": 41
    },
    {
      "midi": 76,
      "hit": false,
      "t": 140329.66239583516,
      "d": 102.27281250001397,
      "v": 41
    },
    {
      "midi": 52,
      "hit": false,
      "t": 140363.75333333333,
      "d": 125.00010416665464,
      "v": 66
    },
    {
      "midi": 56,
      "hit": false,
      "t": 140363.75333333333,
      "d": 125.00010416665464,
      "v": 68
    },
    {
      "midi": 59,
      "hit": false,
      "t": 140363.75333333333,
      "d": 125.00010416665464,
      "v": 68
    },
    {
      "midi": 64,
      "hit": false,
      "t": 140363.75333333333,
      "d": 125.00010416665464,
      "v": 68
    },
    {
      "midi": 69,
      "hit": false,
      "t": 140363.75333333333,
      "d": 125.00010416665464,
      "v": 68
    },
    {
      "midi": 64,
      "hit": false,
      "t": 140466.02614583517,
      "d": 102.27281250001397,
      "v": 76
    },
    {
      "midi": 76,
      "hit": false,
      "t": 140466.02614583517,
      "d": 102.27281250001397,
      "v": 76
    },
    {
      "midi": 44,
      "hit": false,
      "t": 140591.02625000043,
      "d": 68.18187500000931,
      "v": 93
    },
    {
      "midi": 61,
      "hit": false,
      "t": 140591.02625000163,
      "d": 125.00010416665464,
      "v": 61
    },
    {
      "midi": 64,
      "hit": false,
      "t": 140591.02625000163,
      "d": 125.00010416665464,
      "v": 61
    },
    {
      "midi": 69,
      "hit": false,
      "t": 140591.02625000163,
      "d": 125.00010416665464,
      "v": 61
    },
    {
      "midi": 61,
      "hit": false,
      "t": 140591.02625000174,
      "d": 125.00010416665464,
      "v": 55
    },
    {
      "midi": 64,
      "hit": false,
      "t": 140591.02625000174,
      "d": 125.00010416665464,
      "v": 55
    },
    {
      "midi": 69,
      "hit": false,
      "t": 140591.02625000174,
      "d": 125.00010416665464,
      "v": 55
    },
    {
      "midi": 64,
      "hit": false,
      "t": 140602.3898958352,
      "d": 102.27281250001397,
      "v": 41
    },
    {
      "midi": 76,
      "hit": false,
      "t": 140602.3898958352,
      "d": 102.27281250001397,
      "v": 41
    },
    {
      "midi": 61,
      "hit": false,
      "t": 140636.4808333333,
      "d": 125.00010416665464,
      "v": 68
    },
    {
      "midi": 64,
      "hit": false,
      "t": 140636.4808333333,
      "d": 125.00010416665464,
      "v": 68
    },
    {
      "midi": 69,
      "hit": false,
      "t": 140636.4808333333,
      "d": 125.00010416665464,
      "v": 68
    },
    {
      "midi": 42,
      "hit": false,
      "t": 140727.39000000045,
      "d": 261.36385416667326,
      "v": 93
    },
    {
      "midi": 54,
      "hit": false,
      "t": 140727.39000000161,
      "d": 261.36385416667326,
      "v": 44
    },
    {
      "midi": 59,
      "hit": false,
      "t": 140727.39000000161,
      "d": 261.36385416667326,
      "v": 44
    },
    {
      "midi": 64,
      "hit": false,
      "t": 140727.39000000161,
      "d": 261.36385416667326,
      "v": 44
    },
    {
      "midi": 69,
      "hit": false,
      "t": 140727.39000000161,
      "d": 261.36385416667326,
      "v": 44
    },
    {
      "midi": 52,
      "hit": false,
      "t": 140727.39000000161,
      "d": 272.72750000000815,
      "v": 59
    },
    {
      "midi": 52,
      "hit": false,
      "t": 140727.39000000173,
      "d": 261.36385416667326,
      "v": 76
    },
    {
      "midi": 54,
      "hit": false,
      "t": 140727.39000000173,
      "d": 261.36385416667326,
      "v": 30
    },
    {
      "midi": 59,
      "hit": false,
      "t": 140727.39000000173,
      "d": 261.36385416667326,
      "v": 30
    },
    {
      "midi": 64,
      "hit": false,
      "t": 140727.39000000173,
      "d": 261.36385416667326,
      "v": 30
    },
    {
      "midi": 69,
      "hit": false,
      "t": 140727.39000000173,
      "d": 261.36385416667326,
      "v": 30
    },
    {
      "midi": 64,
      "hit": false,
      "t": 140738.7536458352,
      "d": 102.27281250001397,
      "v": 41
    },
    {
      "midi": 76,
      "hit": false,
      "t": 140738.7536458352,
      "d": 102.27281250001397,
      "v": 41
    },
    {
      "midi": 54,
      "hit": false,
      "t": 140772.8445833333,
      "d": 261.36385416667326,
      "v": 39
    },
    {
      "midi": 59,
      "hit": false,
      "t": 140772.8445833333,
      "d": 261.36385416667326,
      "v": 39
    },
    {
      "midi": 64,
      "hit": false,
      "t": 140772.8445833333,
      "d": 261.36385416667326,
      "v": 39
    },
    {
      "midi": 69,
      "hit": false,
      "t": 140772.8445833333,
      "d": 261.36385416667326,
      "v": 39
    },
    {
      "midi": 52,
      "hit": false,
      "t": 140772.8445833333,
      "d": 272.72750000000815,
      "v": 66
    },
    {
      "midi": 64,
      "hit": false,
      "t": 140875.11739583523,
      "d": 102.27281250001397,
      "v": 41
    },
    {
      "midi": 76,
      "hit": false,
      "t": 140875.11739583523,
      "d": 102.27281250001397,
      "v": 41
    },
    {
      "midi": 52,
      "hit": false,
      "t": 141000.11750000162,
      "d": 68.18187500000931,
      "v": 61
    },
    {
      "midi": 52,
      "hit": false,
      "t": 141000.11750000174,
      "d": 68.18187500000931,
      "v": 55
    },
    {
      "midi": 64,
      "hit": false,
      "t": 141011.48114583525,
      "d": 102.27281250001397,
      "v": 41
    },
    {
      "midi": 76,
      "hit": false,
      "t": 141011.48114583525,
      "d": 102.27281250001397,
      "v": 41
    },
    {
      "midi": 52,
      "hit": false,
      "t": 141045.5720833333,
      "d": 68.18187500000931,
      "v": 68
    },
    {
      "midi": 42,
      "hit": false,
      "t": 141136.48125000045,
      "d": 125.00010416665464,
      "v": 93
    },
    {
      "midi": 54,
      "hit": false,
      "t": 141136.48125000164,
      "d": 68.18187500000931,
      "v": 44
    },
    {
      "midi": 59,
      "hit": false,
      "t": 141136.48125000164,
      "d": 125.00010416668374,
      "v": 44
    },
    {
      "midi": 52,
      "hit": false,
      "t": 141136.48125000164,
      "d": 136.36375000001863,
      "v": 59
    },
    {
      "midi": 69,
      "hit": false,
      "t": 141136.48125000164,
      "d": 136.36375000001863,
      "v": 44
    },
    {
      "midi": 64,
      "hit": false,
      "t": 141136.48125000164,
      "d": 261.36385416667326,
      "v": 44
    },
    {
      "midi": 54,
      "hit": false,
      "t": 141136.48125000176,
      "d": 68.18187500000931,
      "v": 30
    },
    {
      "midi": 59,
      "hit": false,
      "t": 141136.48125000176,
      "d": 125.00010416668374,
      "v": 30
    },
    {
      "midi": 69,
      "hit": false,
      "t": 141136.48125000176,
      "d": 136.36375000001863,
      "v": 30
    },
    {
      "midi": 64,
      "hit": false,
      "t": 141136.48125000176,
      "d": 261.36385416667326,
      "v": 30
    },
    {
      "midi": 64,
      "hit": false,
      "t": 141147.84489583527,
      "d": 102.27281250001397,
      "v": 41
    },
    {
      "midi": 76,
      "hit": false,
      "t": 141147.84489583527,
      "d": 102.27281250001397,
      "v": 41
    },
    {
      "midi": 54,
      "hit": false,
      "t": 141181.93583333332,
      "d": 68.18187500000931,
      "v": 39
    },
    {
      "midi": 59,
      "hit": false,
      "t": 141181.93583333332,
      "d": 125.00010416668374,
      "v": 39
    },
    {
      "midi": 52,
      "hit": false,
      "t": 141181.93583333332,
      "d": 136.36375000001863,
      "v": 66
    },
    {
      "midi": 69,
      "hit": false,
      "t": 141181.93583333332,
      "d": 136.36375000001863,
      "v": 39
    },
    {
      "midi": 64,
      "hit": false,
      "t": 141181.93583333332,
      "d": 261.36385416667326,
      "v": 39
    },
    {
      "midi": 40,
      "hit": false,
      "t": 141272.84500000044,
      "d": 261.36385416667326,
      "v": 93
    },
    {
      "midi": 52,
      "hit": false,
      "t": 141272.84500000166,
      "d": 125.00010416665464,
      "v": 44
    },
    {
      "midi": 61,
      "hit": false,
      "t": 141272.84500000166,
      "d": 125.00010416665464,
      "v": 44
    },
    {
      "midi": 69,
      "hit": false,
      "t": 141272.84500000166,
      "d": 125.00010416665464,
      "v": 44
    },
    {
      "midi": 61,
      "hit": false,
      "t": 141272.84500000178,
      "d": 125.00010416665464,
      "v": 30
    },
    {
      "midi": 69,
      "hit": false,
      "t": 141272.84500000178,
      "d": 125.00010416665464,
      "v": 30
    },
    {
      "midi": 52,
      "hit": false,
      "t": 141272.84500000178,
      "d": 261.36385416664416,
      "v": 30
    },
    {
      "midi": 64,
      "hit": false,
      "t": 141284.2086458353,
      "d": 102.27281250001397,
      "v": 74
    },
    {
      "midi": 76,
      "hit": false,
      "t": 141284.2086458353,
      "d": 102.27281250001397,
      "v": 74
    },
    {
      "midi": 52,
      "hit": false,
      "t": 141318.29958333334,
      "d": 125.00010416665464,
      "v": 39
    },
    {
      "midi": 61,
      "hit": false,
      "t": 141318.29958333334,
      "d": 125.00010416665464,
      "v": 39
    },
    {
      "midi": 69,
      "hit": false,
      "t": 141318.29958333334,
      "d": 125.00010416665464,
      "v": 39
    },
    {
      "midi": 64,
      "hit": false,
      "t": 141420.5723958353,
      "d": 102.27281250001397,
      "v": 47
    },
    {
      "midi": 76,
      "hit": false,
      "t": 141420.5723958353,
      "d": 102.27281250001397,
      "v": 47
    },
    {
      "midi": 52,
      "hit": false,
      "t": 141545.57250000164,
      "d": 125.00010416665464,
      "v": 59
    },
    {
      "midi": 61,
      "hit": false,
      "t": 141545.57250000164,
      "d": 125.00010416665464,
      "v": 44
    },
    {
      "midi": 64,
      "hit": false,
      "t": 141545.57250000164,
      "d": 125.00010416665464,
      "v": 44
    },
    {
      "midi": 69,
      "hit": false,
      "t": 141545.57250000164,
      "d": 125.00010416665464,
      "v": 44
    },
    {
      "midi": 61,
      "hit": false,
      "t": 141545.57250000176,
      "d": 125.00010416665464,
      "v": 30
    },
    {
      "midi": 64,
      "hit": false,
      "t": 141545.57250000176,
      "d": 125.00010416665464,
      "v": 30
    },
    {
      "midi": 69,
      "hit": false,
      "t": 141545.57250000176,
      "d": 125.00010416665464,
      "v": 30
    },
    {
      "midi": 64,
      "hit": false,
      "t": 141556.93614583532,
      "d": 102.27281250001397,
      "v": 47
    },
    {
      "midi": 76,
      "hit": false,
      "t": 141556.93614583532,
      "d": 102.27281250001397,
      "v": 47
    },
    {
      "midi": 52,
      "hit": false,
      "t": 141591.02708333332,
      "d": 125.00010416665464,
      "v": 66
    },
    {
      "midi": 61,
      "hit": false,
      "t": 141591.02708333332,
      "d": 125.00010416665464,
      "v": 39
    },
    {
      "midi": 64,
      "hit": false,
      "t": 141591.02708333332,
      "d": 125.00010416665464,
      "v": 39
    },
    {
      "midi": 69,
      "hit": false,
      "t": 141591.02708333332,
      "d": 125.00010416665464,
      "v": 39
    },
    {
      "midi": 40,
      "hit": false,
      "t": 141681.93625000044,
      "d": 125.00010416665464,
      "v": 93
    },
    {
      "midi": 59,
      "hit": false,
      "t": 141681.93625000163,
      "d": 125.00010416665464,
      "v": 44
    },
    {
      "midi": 64,
      "hit": false,
      "t": 141681.93625000163,
      "d": 125.00010416665464,
      "v": 44
    },
    {
      "midi": 59,
      "hit": false,
      "t": 141681.93625000175,
      "d": 125.00010416665464,
      "v": 30
    },
    {
      "midi": 64,
      "hit": false,
      "t": 141681.93625000175,
      "d": 125.00010416665464,
      "v": 30
    },
    {
      "midi": 64,
      "hit": false,
      "t": 141693.29989583534,
      "d": 102.27281250001397,
      "v": 47
    },
    {
      "midi": 76,
      "hit": false,
      "t": 141693.29989583534,
      "d": 102.27281250001397,
      "v": 47
    },
    {
      "midi": 59,
      "hit": false,
      "t": 141727.3908333333,
      "d": 125.00010416665464,
      "v": 39
    },
    {
      "midi": 64,
      "hit": false,
      "t": 141727.3908333333,
      "d": 125.00010416665464,
      "v": 39
    },
    {
      "midi": 38,
      "hit": false,
      "t": 141818.30000000042,
      "d": 261.36385416667326,
      "v": 93
    },
    {
      "midi": 45,
      "hit": false,
      "t": 141818.30000000162,
      "d": 125.00010416665464,
      "v": 44
    },
    {
      "midi": 45,
      "hit": false,
      "t": 141818.30000000173,
      "d": 125.00010416665464,
      "v": 30
    },
    {
      "midi": 64,
      "hit": false,
      "t": 141829.66364583536,
      "d": 102.27281250001397,
      "v": 76
    },
    {
      "midi": 76,
      "hit": false,
      "t": 141829.66364583536,
      "d": 102.27281250001397,
      "v": 76
    },
    {
      "midi": 45,
      "hit": false,
      "t": 141863.7545833333,
      "d": 125.00010416665464,
      "v": 39
    },
    {
      "midi": 52,
      "hit": false,
      "t": 141954.6637500016,
      "d": 125.00010416665464,
      "v": 44
    },
    {
      "midi": 52,
      "hit": false,
      "t": 141954.66375000172,
      "d": 125.00010416665464,
      "v": 30
    },
    {
      "midi": 64,
      "hit": false,
      "t": 141966.02739583538,
      "d": 102.27281250001397,
      "v": 41
    },
    {
      "midi": 76,
      "hit": false,
      "t": 141966.02739583538,
      "d": 102.27281250001397,
      "v": 41
    },
    {
      "midi": 52,
      "hit": false,
      "t": 142000.1183333333,
      "d": 125.00010416665464,
      "v": 39
    },
    {
      "midi": 61,
      "hit": false,
      "t": 142091.0275000016,
      "d": 125.00010416665464,
      "v": 61
    },
    {
      "midi": 52,
      "hit": false,
      "t": 142091.0275000016,
      "d": 261.36385416664416,
      "v": 59
    },
    {
      "midi": 57,
      "hit": false,
      "t": 142091.0275000016,
      "d": 261.36385416664416,
      "v": 61
    },
    {
      "midi": 64,
      "hit": false,
      "t": 142091.0275000016,
      "d": 363.63666666665813,
      "v": 61
    },
    {
      "midi": 61,
      "hit": false,
      "t": 142091.0275000017,
      "d": 125.00010416665464,
      "v": 55
    },
    {
      "midi": 57,
      "hit": false,
      "t": 142091.0275000017,
      "d": 261.36385416664416,
      "v": 55
    },
    {
      "midi": 64,
      "hit": false,
      "t": 142091.0275000017,
      "d": 363.63666666665813,
      "v": 55
    },
    {
      "midi": 64,
      "hit": false,
      "t": 142102.3911458354,
      "d": 102.27281250001397,
      "v": 41
    },
    {
      "midi": 76,
      "hit": false,
      "t": 142102.3911458354,
      "d": 102.27281250001397,
      "v": 41
    },
    {
      "midi": 61,
      "hit": false,
      "t": 142136.48208333328,
      "d": 125.00010416665464,
      "v": 68
    },
    {
      "midi": 52,
      "hit": false,
      "t": 142136.48208333328,
      "d": 261.36385416664416,
      "v": 66
    },
    {
      "midi": 57,
      "hit": false,
      "t": 142136.48208333328,
      "d": 261.36385416664416,
      "v": 68
    },
    {
      "midi": 64,
      "hit": false,
      "t": 142136.48208333328,
      "d": 363.63666666665813,
      "v": 68
    },
    {
      "midi": 38,
      "hit": false,
      "t": 142227.39125000042,
      "d": 125.00010416665464,
      "v": 93
    },
    {
      "midi": 61,
      "hit": false,
      "t": 142227.3912500016,
      "d": 261.36385416667326,
      "v": 44
    },
    {
      "midi": 61,
      "hit": false,
      "t": 142227.3912500017,
      "d": 261.36385416667326,
      "v": 30
    },
    {
      "midi": 64,
      "hit": false,
      "t": 142238.75489583542,
      "d": 102.27281250001397,
      "v": 41
    },
    {
      "midi": 76,
      "hit": false,
      "t": 142238.75489583542,
      "d": 102.27281250001397,
      "v": 41
    },
    {
      "midi": 61,
      "hit": false,
      "t": 142272.84583333327,
      "d": 261.36385416667326,
      "v": 39
    },
    {
      "midi": 37,
      "hit": false,
      "t": 142363.7550000004,
      "d": 261.36385416667326,
      "v": 93
    },
    {
      "midi": 64,
      "hit": false,
      "t": 142375.11864583544,
      "d": 102.27281250001397,
      "v": 41
    },
    {
      "midi": 76,
      "hit": false,
      "t": 142375.11864583544,
      "d": 102.27281250001397,
      "v": 41
    },
    {
      "midi": 52,
      "hit": false,
      "t": 142500.1187500016,
      "d": 125.00010416665464,
      "v": 59
    },
    {
      "midi": 59,
      "hit": false,
      "t": 142500.1187500016,
      "d": 125.00010416665464,
      "v": 61
    },
    {
      "midi": 62,
      "hit": false,
      "t": 142500.1187500016,
      "d": 125.00010416665464,
      "v": 61
    },
    {
      "midi": 56,
      "hit": false,
      "t": 142500.1187500016,
      "d": 261.36385416664416,
      "v": 61
    },
    {
      "midi": 64,
      "hit": false,
      "t": 142500.1187500016,
      "d": 318.1820833333186,
      "v": 61
    },
    {
      "midi": 59,
      "hit": false,
      "t": 142500.1187500017,
      "d": 125.00010416665464,
      "v": 55
    },
    {
      "midi": 62,
      "hit": false,
      "t": 142500.1187500017,
      "d": 125.00010416665464,
      "v": 55
    },
    {
      "midi": 56,
      "hit": false,
      "t": 142500.1187500017,
      "d": 261.36385416664416,
      "v": 55
    },
    {
      "midi": 64,
      "hit": false,
      "t": 142500.1187500017,
      "d": 318.1820833333186,
      "v": 55
    },
    {
      "midi": 64,
      "hit": false,
      "t": 142511.48239583545,
      "d": 102.27281250001397,
      "v": 41
    },
    {
      "midi": 76,
      "hit": false,
      "t": 142511.48239583545,
      "d": 102.27281250001397,
      "v": 41
    },
    {
      "midi": 52,
      "hit": false,
      "t": 142545.57333333328,
      "d": 125.00010416665464,
      "v": 66
    },
    {
      "midi": 59,
      "hit": false,
      "t": 142545.57333333328,
      "d": 125.00010416665464,
      "v": 68
    },
    {
      "midi": 62,
      "hit": false,
      "t": 142545.57333333328,
      "d": 125.00010416665464,
      "v": 68
    },
    {
      "midi": 56,
      "hit": false,
      "t": 142545.57333333328,
      "d": 261.36385416664416,
      "v": 68
    },
    {
      "midi": 64,
      "hit": false,
      "t": 142545.57333333328,
      "d": 318.1820833333186,
      "v": 68
    },
    {
      "midi": 59,
      "hit": false,
      "t": 142636.48250000158,
      "d": 125.00010416665464,
      "v": 44
    },
    {
      "midi": 59,
      "hit": false,
      "t": 142636.4825000017,
      "d": 125.00010416665464,
      "v": 30
    },
    {
      "midi": 64,
      "hit": false,
      "t": 142647.84614583547,
      "d": 102.27281250001397,
      "v": 76
    },
    {
      "midi": 76,
      "hit": false,
      "t": 142647.84614583547,
      "d": 102.27281250001397,
      "v": 76
    },
    {
      "midi": 59,
      "hit": false,
      "t": 142681.93708333327,
      "d": 125.00010416665464,
      "v": 39
    },
    {
      "midi": 37,
      "hit": false,
      "t": 142772.8462500004,
      "d": 125.00010416665464,
      "v": 93
    },
    {
      "midi": 57,
      "hit": false,
      "t": 142772.84625000157,
      "d": 125.00010416668374,
      "v": 44
    },
    {
      "midi": 59,
      "hit": false,
      "t": 142772.84625000157,
      "d": 125.00010416668374,
      "v": 44
    },
    {
      "midi": 57,
      "hit": false,
      "t": 142772.8462500017,
      "d": 125.00010416668374,
      "v": 30
    },
    {
      "midi": 59,
      "hit": false,
      "t": 142772.8462500017,
      "d": 125.00010416668374,
      "v": 30
    },
    {
      "midi": 64,
      "hit": false,
      "t": 142784.2098958355,
      "d": 102.27281250001397,
      "v": 41
    },
    {
      "midi": 76,
      "hit": false,
      "t": 142784.2098958355,
      "d": 102.27281250001397,
      "v": 41
    },
    {
      "midi": 57,
      "hit": false,
      "t": 142818.30083333325,
      "d": 125.00010416668374,
      "v": 39
    },
    {
      "midi": 59,
      "hit": false,
      "t": 142818.30083333325,
      "d": 125.00010416668374,
      "v": 39
    },
    {
      "midi": 35,
      "hit": false,
      "t": 142909.2100000004,
      "d": 125.00010416665464,
      "v": 93
    },
    {
      "midi": 64,
      "hit": false,
      "t": 142909.2100000016,
      "d": 204.54562499999884,
      "v": 61
    },
    {
      "midi": 54,
      "hit": false,
      "t": 142909.2100000016,
      "d": 261.36385416667326,
      "v": 61
    },
    {
      "midi": 57,
      "hit": false,
      "t": 142909.2100000016,
      "d": 261.36385416667326,
      "v": 61
    },
    {
      "midi": 64,
      "hit": false,
      "t": 142909.2100000017,
      "d": 204.54562499999884,
      "v": 55
    },
    {
      "midi": 54,
      "hit": false,
      "t": 142909.2100000017,
      "d": 261.36385416667326,
      "v": 35
    },
    {
      "midi": 57,
      "hit": false,
      "t": 142909.2100000017,
      "d": 261.36385416667326,
      "v": 55
    },
    {
      "midi": 64,
      "hit": false,
      "t": 142920.5736458355,
      "d": 102.27281250001397,
      "v": 41
    },
    {
      "midi": 76,
      "hit": false,
      "t": 142920.5736458355,
      "d": 102.27281250001397,
      "v": 41
    },
    {
      "midi": 64,
      "hit": false,
      "t": 142954.66458333327,
      "d": 204.54562499999884,
      "v": 68
    },
    {
      "midi": 54,
      "hit": false,
      "t": 142954.66458333327,
      "d": 261.36385416667326,
      "v": 68
    },
    {
      "midi": 57,
      "hit": false,
      "t": 142954.66458333327,
      "d": 261.36385416667326,
      "v": 68
    },
    {
      "midi": 64,
      "hit": false,
      "t": 143056.93739583553,
      "d": 102.27281250001397,
      "v": 41
    },
    {
      "midi": 76,
      "hit": false,
      "t": 143056.93739583553,
      "d": 102.27281250001397,
      "v": 41
    },
    {
      "midi": 35,
      "hit": false,
      "t": 143181.93750000038,
      "d": 261.36385416667326,
      "v": 93
    },
    {
      "midi": 56,
      "hit": false,
      "t": 143181.9375000016,
      "d": 125.00010416665464,
      "v": 44
    },
    {
      "midi": 59,
      "hit": false,
      "t": 143181.9375000016,
      "d": 125.00010416665464,
      "v": 44
    },
    {
      "midi": 64,
      "hit": false,
      "t": 143181.9375000016,
      "d": 534.0913541666232,
      "v": 44
    },
    {
      "midi": 56,
      "hit": false,
      "t": 143181.93750000172,
      "d": 125.00010416665464,
      "v": 30
    },
    {
      "midi": 59,
      "hit": false,
      "t": 143181.93750000172,
      "d": 125.00010416665464,
      "v": 30
    },
    {
      "midi": 64,
      "hit": false,
      "t": 143181.93750000172,
      "d": 534.0913541666232,
      "v": 30
    },
    {
      "midi": 64,
      "hit": false,
      "t": 143193.30114583555,
      "d": 102.27281250001397,
      "v": 41
    },
    {
      "midi": 76,
      "hit": false,
      "t": 143193.30114583555,
      "d": 102.27281250001397,
      "v": 41
    },
    {
      "midi": 56,
      "hit": false,
      "t": 143227.39208333328,
      "d": 125.00010416665464,
      "v": 39
    },
    {
      "midi": 59,
      "hit": false,
      "t": 143227.39208333328,
      "d": 125.00010416665464,
      "v": 39
    },
    {
      "midi": 64,
      "hit": false,
      "t": 143227.39208333328,
      "d": 534.0913541666232,
      "v": 39
    },
    {
      "midi": 56,
      "hit": false,
      "t": 143318.3012500016,
      "d": 125.00010416665464,
      "v": 44
    },
    {
      "midi": 59,
      "hit": false,
      "t": 143318.3012500016,
      "d": 125.00010416665464,
      "v": 44
    },
    {
      "midi": 56,
      "hit": false,
      "t": 143318.3012500017,
      "d": 125.00010416665464,
      "v": 30
    },
    {
      "midi": 59,
      "hit": false,
      "t": 143318.3012500017,
      "d": 125.00010416665464,
      "v": 30
    },
    {
      "midi": 64,
      "hit": false,
      "t": 143329.66489583557,
      "d": 102.27281250001397,
      "v": 41
    },
    {
      "midi": 76,
      "hit": false,
      "t": 143329.66489583557,
      "d": 102.27281250001397,
      "v": 41
    },
    {
      "midi": 56,
      "hit": false,
      "t": 143363.75583333327,
      "d": 125.00010416665464,
      "v": 39
    },
    {
      "midi": 59,
      "hit": false,
      "t": 143363.75583333327,
      "d": 125.00010416665464,
      "v": 39
    },
    {
      "midi": 37,
      "hit": false,
      "t": 143454.6650000004,
      "d": 261.36385416667326,
      "v": 93
    },
    {
      "midi": 56,
      "hit": false,
      "t": 143454.66500000158,
      "d": 125.00010416665464,
      "v": 61
    },
    {
      "midi": 59,
      "hit": false,
      "t": 143454.66500000158,
      "d": 125.00010416665464,
      "v": 61
    },
    {
      "midi": 56,
      "hit": false,
      "t": 143454.6650000017,
      "d": 125.00010416665464,
      "v": 55
    },
    {
      "midi": 59,
      "hit": false,
      "t": 143454.6650000017,
      "d": 125.00010416665464,
      "v": 55
    },
    {
      "midi": 64,
      "hit": false,
      "t": 143466.02864583558,
      "d": 102.27281250001397,
      "v": 74
    },
    {
      "midi": 76,
      "hit": false,
      "t": 143466.02864583558,
      "d": 102.27281250001397,
      "v": 74
    },
    {
      "midi": 56,
      "hit": false,
      "t": 143500.11958333326,
      "d": 125.00010416665464,
      "v": 68
    },
    {
      "midi": 59,
      "hit": false,
      "t": 143500.11958333326,
      "d": 125.00010416665464,
      "v": 68
    },
    {
      "midi": 56,
      "hit": false,
      "t": 143591.02875000157,
      "d": 125.00010416665464,
      "v": 44
    },
    {
      "midi": 59,
      "hit": false,
      "t": 143591.02875000157,
      "d": 125.00010416665464,
      "v": 44
    },
    {
      "midi": 56,
      "hit": false,
      "t": 143591.0287500017,
      "d": 125.00010416665464,
      "v": 30
    },
    {
      "midi": 59,
      "hit": false,
      "t": 143591.0287500017,
      "d": 125.00010416665464,
      "v": 30
    },
    {
      "midi": 64,
      "hit": false,
      "t": 143602.3923958356,
      "d": 102.27281250001397,
      "v": 47
    },
    {
      "midi": 76,
      "hit": false,
      "t": 143602.3923958356,
      "d": 102.27281250001397,
      "v": 47
    },
    {
      "midi": 56,
      "hit": false,
      "t": 143636.48333333325,
      "d": 125.00010416665464,
      "v": 39
    },
    {
      "midi": 59,
      "hit": false,
      "t": 143636.48333333325,
      "d": 125.00010416665464,
      "v": 39
    },
    {
      "midi": 71,
      "hit": false,
      "t": 143727.39250000002,
      "d": 2159.0927083333663,
      "v": 80
    },
    {
      "midi": 40,
      "hit": false,
      "t": 143727.3925000004,
      "d": 261.36385416667326,
      "v": 93
    },
    {
      "midi": 52,
      "hit": false,
      "t": 143727.39250000156,
      "d": 125.00010416665464,
      "v": 44
    },
    {
      "midi": 56,
      "hit": false,
      "t": 143727.39250000156,
      "d": 125.00010416665464,
      "v": 44
    },
    {
      "midi": 52,
      "hit": false,
      "t": 143727.39250000168,
      "d": 261.36385416667326,
      "v": 76
    },
    {
      "midi": 56,
      "hit": false,
      "t": 143727.39250000168,
      "d": 261.36385416667326,
      "v": 76
    },
    {
      "midi": 59,
      "hit": false,
      "t": 143727.39250000168,
      "d": 261.36385416667326,
      "v": 76
    },
    {
      "midi": 64,
      "hit": false,
      "t": 143727.39250000168,
      "d": 261.36385416667326,
      "v": 76
    },
    {
      "midi": 64,
      "hit": false,
      "t": 143738.75614583562,
      "d": 102.27281250001397,
      "v": 47
    },
    {
      "midi": 76,
      "hit": false,
      "t": 143738.75614583562,
      "d": 102.27281250001397,
      "v": 47
    },
    {
      "midi": 52,
      "hit": false,
      "t": 143772.84708333324,
      "d": 125.00010416665464,
      "v": 39
    },
    {
      "midi": 56,
      "hit": false,
      "t": 143772.84708333324,
      "d": 125.00010416665464,
      "v": 39
    },
    {
      "midi": 52,
      "hit": false,
      "t": 143863.75625000155,
      "d": 125.00010416665464,
      "v": 44
    },
    {
      "midi": 56,
      "hit": false,
      "t": 143863.75625000155,
      "d": 125.00010416665464,
      "v": 44
    },
    {
      "midi": 64,
      "hit": false,
      "t": 143875.11989583564,
      "d": 102.27281250001397,
      "v": 47
    },
    {
      "midi": 76,
      "hit": false,
      "t": 143875.11989583564,
      "d": 102.27281250001397,
      "v": 47
    },
    {
      "midi": 52,
      "hit": false,
      "t": 143909.21083333323,
      "d": 125.00010416665464,
      "v": 39
    },
    {
      "midi": 56,
      "hit": false,
      "t": 143909.21083333323,
      "d": 125.00010416665464,
      "v": 39
    },
    {
      "midi": 40,
      "hit": false,
      "t": 144000.1200000004,
      "d": 806.8188541666605,
      "v": 93
    },
    {
      "midi": 54,
      "hit": false,
      "t": 144000.12000000154,
      "d": 113.63645833334886,
      "v": 74
    },
    {
      "midi": 40,
      "hit": false,
      "t": 144000.12000000154,
      "d": 1488.6376041666663,
      "v": 74
    },
    {
      "midi": 59,
      "hit": false,
      "t": 144000.12000000154,
      "d": 1636.3649999999907,
      "v": 74
    },
    {
      "midi": 64,
      "hit": false,
      "t": 144000.12000000154,
      "d": 1636.3649999999907,
      "v": 74
    },
    {
      "midi": 54,
      "hit": false,
      "t": 144000.12000000168,
      "d": 113.63645833334886,
      "v": 76
    },
    {
      "midi": 40,
      "hit": false,
      "t": 144000.12000000168,
      "d": 1488.6376041666954,
      "v": 76
    },
    {
      "midi": 59,
      "hit": false,
      "t": 144000.12000000168,
      "d": 2022.7289583333477,
      "v": 72
    },
    {
      "midi": 64,
      "hit": false,
      "t": 144000.12000000168,
      "d": 2022.7289583333477,
      "v": 72
    },
    {
      "midi": 54,
      "hit": false,
      "t": 144045.57458333322,
      "d": 113.63645833334886,
      "v": 72
    },
    {
      "midi": 40,
      "hit": false,
      "t": 144045.57458333322,
      "d": 1488.6376041666663,
      "v": 72
    },
    {
      "midi": 59,
      "hit": false,
      "t": 144045.57458333322,
      "d": 1636.3649999999907,
      "v": 72
    },
    {
      "midi": 64,
      "hit": false,
      "t": 144045.57458333322,
      "d": 1636.3649999999907,
      "v": 72
    },
    {
      "midi": 56,
      "hit": false,
      "t": 144091.02916666822,
      "d": 1272.7283333333326,
      "v": 73
    },
    {
      "midi": 56,
      "hit": false,
      "t": 144091.02916666836,
      "d": 2022.7289583333477,
      "v": 67
    },
    {
      "midi": 56,
      "hit": false,
      "t": 144136.4837499999,
      "d": 1272.7283333333326,
      "v": 72
    },
    {
      "midi": 28,
      "hit": false,
      "t": 144818.3025000004,
      "d": 125.00010416665464,
      "v": 60
    },
    {
      "midi": 28,
      "hit": false,
      "t": 145091.03000000038,
      "d": 125.00010416665464,
      "v": 60
    },
    {
      "midi": 28,
      "hit": false,
      "t": 145363.75750000036,
      "d": 806.8188541666605,
      "v": 60
    },
    {
      "midi": 56,
      "hit": false,
      "t": 145363.75750000155,
      "d": 261.36385416664416,
      "v": 74
    },
    {
      "midi": 56,
      "hit": false,
      "t": 145409.21208333323,
      "d": 261.36385416664416,
      "v": 72
    },
    {
      "midi": 59,
      "hit": false,
      "t": 145636.48500000153,
      "d": 250.00020833333838,
      "v": 74
    },
    {
      "midi": 64,
      "hit": false,
      "t": 145636.48500000153,
      "d": 250.00020833333838,
      "v": 74
    },
    {
      "midi": 68,
      "hit": false,
      "t": 145636.48500000153,
      "d": 250.00020833333838,
      "v": 74
    },
    {
      "midi": 59,
      "hit": false,
      "t": 145681.9395833332,
      "d": 250.00020833333838,
      "v": 72
    },
    {
      "midi": 64,
      "hit": false,
      "t": 145681.9395833332,
      "d": 250.00020833333838,
      "v": 72
    },
    {
      "midi": 68,
      "hit": false,
      "t": 145681.9395833332,
      "d": 250.00020833333838,
      "v": 72
    },
    {
      "midi": 66,
      "hit": false,
      "t": 145909.21250000005,
      "d": 2159.0927083333663,
      "v": 80
    },
    {
      "midi": 40,
      "hit": false,
      "t": 146181.94000000035,
      "d": 806.8188541666605,
      "v": 60
    },
    {
      "midi": 52,
      "hit": false,
      "t": 146181.94000000154,
      "d": 113.63645833331975,
      "v": 74
    },
    {
      "midi": 66,
      "hit": false,
      "t": 146181.94000000154,
      "d": 795.4552083333256,
      "v": 68
    },
    {
      "midi": 57,
      "hit": false,
      "t": 146181.94000000154,
      "d": 1045.455416666664,
      "v": 74
    },
    {
      "midi": 62,
      "hit": false,
      "t": 146181.94000000154,
      "d": 1045.455416666664,
      "v": 74
    },
    {
      "midi": 52,
      "hit": false,
      "t": 146227.39458333323,
      "d": 113.63645833331975,
      "v": 72
    },
    {
      "midi": 66,
      "hit": false,
      "t": 146227.39458333323,
      "d": 795.4552083333256,
      "v": 72
    },
    {
      "midi": 57,
      "hit": false,
      "t": 146227.39458333323,
      "d": 1045.455416666664,
      "v": 72
    },
    {
      "midi": 62,
      "hit": false,
      "t": 146227.39458333323,
      "d": 1045.455416666664,
      "v": 72
    },
    {
      "midi": 54,
      "hit": false,
      "t": 146318.30375000153,
      "d": 1488.6376041667245,
      "v": 44
    },
    {
      "midi": 54,
      "hit": false,
      "t": 146363.75833333321,
      "d": 1488.6376041667245,
      "v": 51
    },
    {
      "midi": 28,
      "hit": false,
      "t": 147000.12250000035,
      "d": 125.00010416665464,
      "v": 60
    },
    {
      "midi": 28,
      "hit": false,
      "t": 147272.85000000033,
      "d": 125.00010416665464,
      "v": 60
    },
    {
      "midi": 57,
      "hit": false,
      "t": 147272.85000000155,
      "d": 90.90916666667908,
      "v": 74
    },
    {
      "midi": 62,
      "hit": false,
      "t": 147272.85000000155,
      "d": 250.00020833336748,
      "v": 74
    },
    {
      "midi": 57,
      "hit": false,
      "t": 147318.30458333323,
      "d": 90.90916666667908,
      "v": 72
    },
    {
      "midi": 62,
      "hit": false,
      "t": 147318.30458333323,
      "d": 250.00020833336748,
      "v": 72
    },
    {
      "midi": 59,
      "hit": false,
      "t": 147318.3045833349,
      "d": 181.81833333335817,
      "v": 50
    },
    {
      "midi": 66,
      "hit": false,
      "t": 147352.3955208349,
      "d": 113.63645833334886,
      "v": 44
    },
    {
      "midi": 59,
      "hit": false,
      "t": 147363.75916666657,
      "d": 181.81833333335817,
      "v": 57
    },
    {
      "midi": 66,
      "hit": false,
      "t": 147397.85010416657,
      "d": 113.63645833334886,
      "v": 49
    },
    {
      "midi": 28,
      "hit": false,
      "t": 147545.5775000003,
      "d": 1943.1834375000035,
      "v": 60
    },
    {
      "midi": 57,
      "hit": false,
      "t": 147545.5775000016,
      "d": 79.5455208333442,
      "v": 74
    },
    {
      "midi": 62,
      "hit": false,
      "t": 147545.5775000016,
      "d": 238.6365625000035,
      "v": 74
    },
    {
      "midi": 57,
      "hit": false,
      "t": 147591.03208333327,
      "d": 79.5455208333442,
      "v": 72
    },
    {
      "midi": 62,
      "hit": false,
      "t": 147591.03208333327,
      "d": 238.6365625000035,
      "v": 72
    },
    {
      "midi": 59,
      "hit": false,
      "t": 147591.03208333493,
      "d": 250.00020833333838,
      "v": 50
    },
    {
      "midi": 66,
      "hit": false,
      "t": 147625.12302083493,
      "d": 113.63645833331975,
      "v": 44
    },
    {
      "midi": 59,
      "hit": false,
      "t": 147636.4866666666,
      "d": 250.00020833333838,
      "v": 57
    },
    {
      "midi": 66,
      "hit": false,
      "t": 147670.5776041666,
      "d": 113.63645833331975,
      "v": 49
    },
    {
      "midi": 54,
      "hit": false,
      "t": 147829.66864583493,
      "d": 272.72750000000815,
      "v": 44
    },
    {
      "midi": 57,
      "hit": false,
      "t": 147829.66864583493,
      "d": 272.72750000000815,
      "v": 74
    },
    {
      "midi": 62,
      "hit": false,
      "t": 147829.66864583493,
      "d": 272.72750000000815,
      "v": 74
    },
    {
      "midi": 66,
      "hit": false,
      "t": 147829.66864583493,
      "d": 272.72750000000815,
      "v": 44
    },
    {
      "midi": 54,
      "hit": false,
      "t": 147875.1232291666,
      "d": 272.72750000000815,
      "v": 39
    },
    {
      "midi": 57,
      "hit": false,
      "t": 147875.1232291666,
      "d": 272.72750000000815,
      "v": 72
    },
    {
      "midi": 62,
      "hit": false,
      "t": 147875.1232291666,
      "d": 272.72750000000815,
      "v": 72
    },
    {
      "midi": 66,
      "hit": false,
      "t": 147875.1232291666,
      "d": 272.72750000000815,
      "v": 49
    },
    {
      "midi": 76,
      "hit": false,
      "t": 148091.0325000001,
      "d": 2159.0927083333663,
      "v": 80
    },
    {
      "midi": 52,
      "hit": false,
      "t": 148318.30541666827,
      "d": 852.2734375,
      "v": 74
    },
    {
      "midi": 57,
      "hit": false,
      "t": 148318.30541666827,
      "d": 965.9098958333489,
      "v": 74
    },
    {
      "midi": 61,
      "hit": false,
      "t": 148341.03270833494,
      "d": 1000.0008333333535,
      "v": 74
    },
    {
      "midi": 52,
      "hit": false,
      "t": 148363.75999999995,
      "d": 852.2734375,
      "v": 72
    },
    {
      "midi": 57,
      "hit": false,
      "t": 148363.75999999995,
      "d": 965.9098958333489,
      "v": 72
    },
    {
      "midi": 64,
      "hit": false,
      "t": 148363.7600000016,
      "d": 1000.0008333333535,
      "v": 74
    },
    {
      "midi": 61,
      "hit": false,
      "t": 148386.48729166662,
      "d": 1000.0008333333535,
      "v": 72
    },
    {
      "midi": 69,
      "hit": false,
      "t": 148386.48729166828,
      "d": 1000.0008333333535,
      "v": 74
    },
    {
      "midi": 64,
      "hit": false,
      "t": 148409.2145833333,
      "d": 1000.0008333333535,
      "v": 72
    },
    {
      "midi": 69,
      "hit": false,
      "t": 148431.94187499996,
      "d": 1000.0008333333535,
      "v": 72
    },
    {
      "midi": 52,
      "hit": false,
      "t": 149193.30614583494,
      "d": 90.90916666667908,
      "v": 50
    },
    {
      "midi": 52,
      "hit": false,
      "t": 149238.76072916662,
      "d": 90.90916666667908,
      "v": 57
    },
    {
      "midi": 57,
      "hit": false,
      "t": 149318.30625000162,
      "d": 113.63645833334886,
      "v": 50
    },
    {
      "midi": 57,
      "hit": false,
      "t": 149363.7608333333,
      "d": 113.63645833334886,
      "v": 57
    },
    {
      "midi": 57,
      "hit": false,
      "t": 149454.67000000164,
      "d": 113.63645833331975,
      "v": 74
    },
    {
      "midi": 59,
      "hit": false,
      "t": 149454.67000000164,
      "d": 170.45468749999418,
      "v": 74
    },
    {
      "midi": 64,
      "hit": false,
      "t": 149454.67000000164,
      "d": 250.00020833333838,
      "v": 74
    },
    {
      "midi": 57,
      "hit": false,
      "t": 149500.12458333332,
      "d": 113.63645833331975,
      "v": 72
    },
    {
      "midi": 59,
      "hit": false,
      "t": 149500.12458333332,
      "d": 170.45468749999418,
      "v": 72
    },
    {
      "midi": 64,
      "hit": false,
      "t": 149500.12458333332,
      "d": 250.00020833333838,
      "v": 72
    },
    {
      "midi": 61,
      "hit": false,
      "t": 149591.03375000163,
      "d": 113.63645833334886,
      "v": 44
    },
    {
      "midi": 61,
      "hit": false,
      "t": 149636.4883333333,
      "d": 113.63645833334886,
      "v": 49
    },
    {
      "midi": 59,
      "hit": false,
      "t": 149727.39750000165,
      "d": 147.7273958333535,
      "v": 53
    },
    {
      "midi": 64,
      "hit": false,
      "t": 149727.39750000165,
      "d": 284.09114583337214,
      "v": 74
    },
    {
      "midi": 59,
      "hit": false,
      "t": 149772.85208333333,
      "d": 147.7273958333535,
      "v": 60
    },
    {
      "midi": 64,
      "hit": false,
      "t": 149772.85208333333,
      "d": 284.09114583337214,
      "v": 72
    },
    {
      "midi": 61,
      "hit": false,
      "t": 149772.852083335,
      "d": 159.0910416666884,
      "v": 44
    },
    {
      "midi": 61,
      "hit": false,
      "t": 149818.30666666667,
      "d": 159.0910416666884,
      "v": 49
    },
    {
      "midi": 54,
      "hit": false,
      "t": 150000.1250000017,
      "d": 125.00010416668374,
      "v": 74
    },
    {
      "midi": 40,
      "hit": false,
      "t": 150000.1250000017,
      "d": 1079.5463541667268,
      "v": 44
    },
    {
      "midi": 47,
      "hit": false,
      "t": 150000.1250000017,
      "d": 1079.5463541667268,
      "v": 44
    },
    {
      "midi": 59,
      "hit": false,
      "t": 150022.85229166836,
      "d": 943.1826041667082,
      "v": 74
    },
    {
      "midi": 64,
      "hit": false,
      "t": 150034.2159375017,
      "d": 977.2735416667128,
      "v": 74
    },
    {
      "midi": 54,
      "hit": false,
      "t": 150045.57958333337,
      "d": 125.00010416668374,
      "v": 72
    },
    {
      "midi": 40,
      "hit": false,
      "t": 150045.57958333337,
      "d": 1079.5463541667268,
      "v": 39
    },
    {
      "midi": 47,
      "hit": false,
      "t": 150045.57958333337,
      "d": 1079.5463541667268,
      "v": 39
    },
    {
      "midi": 59,
      "hit": false,
      "t": 150068.30687500004,
      "d": 943.1826041667082,
      "v": 72
    },
    {
      "midi": 64,
      "hit": false,
      "t": 150079.67052083337,
      "d": 977.2735416667128,
      "v": 72
    },
    {
      "midi": 56,
      "hit": false,
      "t": 150091.03416666837,
      "d": 250.00020833333838,
      "v": 48
    },
    {
      "midi": 56,
      "hit": false,
      "t": 150136.48875000005,
      "d": 250.00020833333838,
      "v": 55
    },
    {
      "midi": 54,
      "hit": false,
      "t": 150272.8525000017,
      "d": 113.63645833334886,
      "v": 66
    },
    {
      "midi": 54,
      "hit": false,
      "t": 150318.30708333338,
      "d": 113.63645833334886,
      "v": 72
    },
    {
      "midi": 56,
      "hit": false,
      "t": 150363.76166666838,
      "d": 522.7277083333465,
      "v": 44
    },
    {
      "midi": 56,
      "hit": false,
      "t": 150409.21625000006,
      "d": 522.7277083333465,
      "v": 43
    },
    {
      "midi": 71,
      "hit": false,
      "t": 150545.58000000013,
      "d": 1704.546875,
      "v": 56
    },
    {
      "midi": 83,
      "hit": false,
      "t": 150545.58000000013,
      "d": 1704.546875,
      "v": 49
    },
    {
      "midi": 54,
      "hit": false,
      "t": 151091.03500000175,
      "d": 170.45468749999418,
      "v": 74
    },
    {
      "midi": 64,
      "hit": false,
      "t": 151091.03500000175,
      "d": 409.0912499999977,
      "v": 74
    },
    {
      "midi": 59,
      "hit": false,
      "t": 151091.03500000175,
      "d": 522.7277083333174,
      "v": 74
    },
    {
      "midi": 54,
      "hit": false,
      "t": 151136.48958333343,
      "d": 170.45468749999418,
      "v": 72
    },
    {
      "midi": 64,
      "hit": false,
      "t": 151136.48958333343,
      "d": 409.0912499999977,
      "v": 72
    },
    {
      "midi": 59,
      "hit": false,
      "t": 151136.48958333343,
      "d": 522.7277083333174,
      "v": 72
    },
    {
      "midi": 56,
      "hit": false,
      "t": 151227.39875000174,
      "d": 250.00020833333838,
      "v": 66
    },
    {
      "midi": 56,
      "hit": false,
      "t": 151272.85333333342,
      "d": 250.00020833333838,
      "v": 72
    },
    {
      "midi": 64,
      "hit": false,
      "t": 151500.12625000175,
      "d": 113.63645833331975,
      "v": 74
    },
    {
      "midi": 64,
      "hit": false,
      "t": 151545.58083333343,
      "d": 113.63645833331975,
      "v": 72
    },
    {
      "midi": 61,
      "hit": false,
      "t": 151636.49000000174,
      "d": 113.63645833331975,
      "v": 74
    },
    {
      "midi": 64,
      "hit": false,
      "t": 151636.49000000174,
      "d": 113.63645833331975,
      "v": 74
    },
    {
      "midi": 61,
      "hit": false,
      "t": 151681.94458333342,
      "d": 113.63645833331975,
      "v": 72
    },
    {
      "midi": 64,
      "hit": false,
      "t": 151681.94458333342,
      "d": 113.63645833331975,
      "v": 72
    },
    {
      "midi": 59,
      "hit": false,
      "t": 151772.85375000173,
      "d": 113.63645833331975,
      "v": 44
    },
    {
      "midi": 59,
      "hit": false,
      "t": 151818.3083333334,
      "d": 113.63645833331975,
      "v": 25
    },
    {
      "midi": 56,
      "hit": false,
      "t": 151909.21750000172,
      "d": 113.63645833331975,
      "v": 74
    },
    {
      "midi": 59,
      "hit": false,
      "t": 151909.21750000172,
      "d": 113.63645833331975,
      "v": 74
    },
    {
      "midi": 64,
      "hit": false,
      "t": 151909.21750000172,
      "d": 113.63645833331975,
      "v": 44
    },
    {
      "midi": 56,
      "hit": false,
      "t": 151954.6720833334,
      "d": 113.63645833331975,
      "v": 72
    },
    {
      "midi": 59,
      "hit": false,
      "t": 151954.6720833334,
      "d": 113.63645833331975,
      "v": 72
    },
    {
      "midi": 64,
      "hit": false,
      "t": 151954.6720833334,
      "d": 113.63645833331975,
      "v": 37
    },
    {
      "midi": 54,
      "hit": false,
      "t": 152181.9450000017,
      "d": 113.63645833334886,
      "v": 74
    },
    {
      "midi": 59,
      "hit": false,
      "t": 152181.9450000017,
      "d": 147.7273958333535,
      "v": 44
    },
    {
      "midi": 40,
      "hit": false,
      "t": 152181.9450000017,
      "d": 329.5457291666826,
      "v": 62
    },
    {
      "midi": 47,
      "hit": false,
      "t": 152181.9450000017,
      "d": 329.5457291666826,
      "v": 62
    },
    {
      "midi": 54,
      "hit": false,
      "t": 152227.39958333338,
      "d": 113.63645833334886,
      "v": 72
    },
    {
      "midi": 59,
      "hit": false,
      "t": 152227.39958333338,
      "d": 147.7273958333535,
      "v": 39
    },
    {
      "midi": 40,
      "hit": false,
      "t": 152227.39958333338,
      "d": 329.5457291666826,
      "v": 69
    },
    {
      "midi": 47,
      "hit": false,
      "t": 152227.39958333338,
      "d": 329.5457291666826,
      "v": 69
    },
    {
      "midi": 56,
      "hit": false,
      "t": 152272.85416666837,
      "d": 238.6365625000035,
      "v": 57
    },
    {
      "midi": 56,
      "hit": false,
      "t": 152318.30875000005,
      "d": 238.6365625000035,
      "v": 64
    },
    {
      "midi": 71,
      "hit": false,
      "t": 152454.67250000013,
      "d": 2159.0927083333663,
      "v": 80
    },
    {
      "midi": 59,
      "hit": false,
      "t": 152454.6725000017,
      "d": 250.00020833333838,
      "v": 74
    },
    {
      "midi": 64,
      "hit": false,
      "t": 152454.6725000017,
      "d": 250.00020833333838,
      "v": 74
    },
    {
      "midi": 59,
      "hit": false,
      "t": 152500.12708333338,
      "d": 250.00020833333838,
      "v": 72
    },
    {
      "midi": 64,
      "hit": false,
      "t": 152500.12708333338,
      "d": 250.00020833333838,
      "v": 72
    },
    {
      "midi": 54,
      "hit": false,
      "t": 152727.4000000017,
      "d": 147.7273958333244,
      "v": 74
    },
    {
      "midi": 59,
      "hit": false,
      "t": 152727.4000000017,
      "d": 931.8189583333151,
      "v": 74
    },
    {
      "midi": 64,
      "hit": false,
      "t": 152727.4000000017,
      "d": 931.8189583333151,
      "v": 74
    },
    {
      "midi": 40,
      "hit": false,
      "t": 152727.4000000017,
      "d": 1045.4554166666348,
      "v": 44
    },
    {
      "midi": 47,
      "hit": false,
      "t": 152727.4000000017,
      "d": 1136.364583333314,
      "v": 44
    },
    {
      "midi": 54,
      "hit": false,
      "t": 152772.8545833334,
      "d": 147.7273958333244,
      "v": 72
    },
    {
      "midi": 59,
      "hit": false,
      "t": 152772.8545833334,
      "d": 931.8189583333151,
      "v": 72
    },
    {
      "midi": 64,
      "hit": false,
      "t": 152772.8545833334,
      "d": 931.8189583333151,
      "v": 72
    },
    {
      "midi": 40,
      "hit": false,
      "t": 152772.8545833334,
      "d": 1045.4554166666348,
      "v": 39
    },
    {
      "midi": 47,
      "hit": false,
      "t": 152772.8545833334,
      "d": 1136.364583333314,
      "v": 39
    },
    {
      "midi": 56,
      "hit": false,
      "t": 152863.7637500017,
      "d": 931.8189583333151,
      "v": 60
    },
    {
      "midi": 56,
      "hit": false,
      "t": 152909.21833333338,
      "d": 931.8189583333151,
      "v": 67
    },
    {
      "midi": 40,
      "hit": false,
      "t": 153818.3100000017,
      "d": 113.63645833334886,
      "v": 44
    },
    {
      "midi": 56,
      "hit": false,
      "t": 153818.3100000017,
      "d": 113.63645833334886,
      "v": 74
    },
    {
      "midi": 59,
      "hit": false,
      "t": 153818.3100000017,
      "d": 113.63645833334886,
      "v": 74
    },
    {
      "midi": 64,
      "hit": false,
      "t": 153818.3100000017,
      "d": 113.63645833334886,
      "v": 74
    },
    {
      "midi": 66,
      "hit": false,
      "t": 153818.3100000017,
      "d": 250.00020833333838,
      "v": 74
    },
    {
      "midi": 40,
      "hit": false,
      "t": 153863.76458333337,
      "d": 113.63645833334886,
      "v": 39
    },
    {
      "midi": 56,
      "hit": false,
      "t": 153863.76458333337,
      "d": 113.63645833334886,
      "v": 72
    },
    {
      "midi": 59,
      "hit": false,
      "t": 153863.76458333337,
      "d": 113.63645833334886,
      "v": 72
    },
    {
      "midi": 64,
      "hit": false,
      "t": 153863.76458333337,
      "d": 113.63645833334886,
      "v": 72
    },
    {
      "midi": 66,
      "hit": false,
      "t": 153863.76458333337,
      "d": 250.00020833333838,
      "v": 72
    },
    {
      "midi": 40,
      "hit": false,
      "t": 154091.0375000017,
      "d": 113.63645833331975,
      "v": 44
    },
    {
      "midi": 56,
      "hit": false,
      "t": 154091.0375000017,
      "d": 113.63645833331975,
      "v": 74
    },
    {
      "midi": 59,
      "hit": false,
      "t": 154091.0375000017,
      "d": 113.63645833331975,
      "v": 74
    },
    {
      "midi": 61,
      "hit": false,
      "t": 154091.0375000017,
      "d": 113.63645833331975,
      "v": 74
    },
    {
      "midi": 64,
      "hit": false,
      "t": 154091.0375000017,
      "d": 250.00020833330927,
      "v": 74
    },
    {
      "midi": 40,
      "hit": false,
      "t": 154136.49208333337,
      "d": 113.63645833331975,
      "v": 39
    },
    {
      "midi": 56,
      "hit": false,
      "t": 154136.49208333337,
      "d": 113.63645833331975,
      "v": 72
    },
    {
      "midi": 59,
      "hit": false,
      "t": 154136.49208333337,
      "d": 113.63645833331975,
      "v": 72
    },
    {
      "midi": 61,
      "hit": false,
      "t": 154136.49208333337,
      "d": 113.63645833331975,
      "v": 72
    },
    {
      "midi": 64,
      "hit": false,
      "t": 154136.49208333337,
      "d": 250.00020833330927,
      "v": 72
    },
    {
      "midi": 54,
      "hit": false,
      "t": 154363.76500000167,
      "d": 193.18197916666395,
      "v": 74
    },
    {
      "midi": 59,
      "hit": false,
      "t": 154363.76500000167,
      "d": 522.7277083333465,
      "v": 74
    },
    {
      "midi": 64,
      "hit": false,
      "t": 154363.76500000167,
      "d": 522.7277083333465,
      "v": 74
    },
    {
      "midi": 54,
      "hit": false,
      "t": 154409.21958333335,
      "d": 193.18197916666395,
      "v": 72
    },
    {
      "midi": 59,
      "hit": false,
      "t": 154409.21958333335,
      "d": 522.7277083333174,
      "v": 72
    },
    {
      "midi": 64,
      "hit": false,
      "t": 154409.21958333335,
      "d": 522.7277083333174,
      "v": 72
    },
    {
      "midi": 56,
      "hit": false,
      "t": 154500.12875000166,
      "d": 386.363958333357,
      "v": 66
    },
    {
      "midi": 56,
      "hit": false,
      "t": 154545.58333333334,
      "d": 386.3639583333279,
      "v": 72
    },
    {
      "midi": 66,
      "hit": false,
      "t": 154636.49250000017,
      "d": 2159.0927083333663,
      "v": 80
    },
    {
      "midi": 40,
      "hit": false,
      "t": 154909.2200000017,
      "d": 1045.455416666693,
      "v": 44
    },
    {
      "midi": 54,
      "hit": false,
      "t": 154909.2200000017,
      "d": 1068.1827083333628,
      "v": 74
    },
    {
      "midi": 57,
      "hit": false,
      "t": 154920.58364583502,
      "d": 977.2735416666837,
      "v": 74
    },
    {
      "midi": 59,
      "hit": false,
      "t": 154931.94729166836,
      "d": 965.9098958333489,
      "v": 74
    },
    {
      "midi": 62,
      "hit": false,
      "t": 154943.3109375017,
      "d": 977.2735416666837,
      "v": 74
    },
    {
      "midi": 40,
      "hit": false,
      "t": 154954.67458333334,
      "d": 1045.455416666693,
      "v": 39
    },
    {
      "midi": 54,
      "hit": false,
      "t": 154954.67458333334,
      "d": 1068.1827083333628,
      "v": 72
    },
    {
      "midi": 66,
      "hit": false,
      "t": 154954.67458333503,
      "d": 965.9098958333489,
      "v": 66
    },
    {
      "midi": 57,
      "hit": false,
      "t": 154966.03822916668,
      "d": 977.2735416666837,
      "v": 72
    },
    {
      "midi": 59,
      "hit": false,
      "t": 154977.401875,
      "d": 965.9098958333489,
      "v": 72
    },
    {
      "midi": 62,
      "hit": false,
      "t": 154988.76552083335,
      "d": 977.2735416666837,
      "v": 72
    },
    {
      "midi": 66,
      "hit": false,
      "t": 155000.12916666668,
      "d": 965.9098958333489,
      "v": 72
    },
    {
      "midi": 59,
      "hit": false,
      "t": 156000.13000000172,
      "d": 125.00010416668374,
      "v": 44
    },
    {
      "midi": 62,
      "hit": false,
      "t": 156000.13000000172,
      "d": 250.00020833336748,
      "v": 74
    },
    {
      "midi": 66,
      "hit": false,
      "t": 156000.13000000172,
      "d": 250.00020833336748,
      "v": 74
    },
    {
      "midi": 71,
      "hit": false,
      "t": 156000.13000000172,
      "d": 250.00020833336748,
      "v": 74
    },
    {
      "midi": 59,
      "hit": false,
      "t": 156045.58458333337,
      "d": 125.00010416665464,
      "v": 39
    },
    {
      "midi": 62,
      "hit": false,
      "t": 156045.58458333337,
      "d": 250.00020833333838,
      "v": 72
    },
    {
      "midi": 66,
      "hit": false,
      "t": 156045.58458333337,
      "d": 250.00020833333838,
      "v": 72
    },
    {
      "midi": 71,
      "hit": false,
      "t": 156045.58458333337,
      "d": 250.00020833333838,
      "v": 72
    },
    {
      "midi": 57,
      "hit": false,
      "t": 156147.85739583508,
      "d": 102.27281250001397,
      "v": 44
    },
    {
      "midi": 57,
      "hit": false,
      "t": 156193.3119791667,
      "d": 102.27281250001397,
      "v": 39
    },
    {
      "midi": 54,
      "hit": false,
      "t": 156272.85750000176,
      "d": 113.63645833331975,
      "v": 74
    },
    {
      "midi": 57,
      "hit": false,
      "t": 156272.85750000176,
      "d": 113.63645833331975,
      "v": 74
    },
    {
      "midi": 62,
      "hit": false,
      "t": 156272.85750000176,
      "d": 113.63645833331975,
      "v": 74
    },
    {
      "midi": 54,
      "hit": false,
      "t": 156318.31208333338,
      "d": 113.63645833331975,
      "v": 72
    },
    {
      "midi": 57,
      "hit": false,
      "t": 156318.31208333338,
      "d": 113.63645833331975,
      "v": 72
    },
    {
      "midi": 62,
      "hit": false,
      "t": 156318.31208333338,
      "d": 113.63645833331975,
      "v": 72
    },
    {
      "midi": 66,
      "hit": false,
      "t": 156545.58500000174,
      "d": 261.36385416667326,
      "v": 74
    },
    {
      "midi": 59,
      "hit": false,
      "t": 156545.58500000174,
      "d": 284.09114583334303,
      "v": 74
    },
    {
      "midi": 62,
      "hit": false,
      "t": 156545.58500000174,
      "d": 284.09114583334303,
      "v": 74
    },
    {
      "midi": 57,
      "hit": false,
      "t": 156545.58500000174,
      "d": 522.7277083333465,
      "v": 74
    },
    {
      "midi": 66,
      "hit": false,
      "t": 156591.03958333336,
      "d": 261.36385416667326,
      "v": 72
    },
    {
      "midi": 59,
      "hit": false,
      "t": 156591.03958333336,
      "d": 284.09114583334303,
      "v": 72
    },
    {
      "midi": 62,
      "hit": false,
      "t": 156591.03958333336,
      "d": 284.09114583334303,
      "v": 72
    },
    {
      "midi": 57,
      "hit": false,
      "t": 156591.03958333336,
      "d": 522.7277083333465,
      "v": 72
    },
    {
      "midi": 76,
      "hit": false,
      "t": 156818.3125000002,
      "d": 2159.0927083333663,
      "v": 80
    },
    {
      "midi": 38,
      "hit": false,
      "t": 156818.31250000175,
      "d": 227.2729166666686,
      "v": 44
    },
    {
      "midi": 38,
      "hit": false,
      "t": 156863.76708333337,
      "d": 227.2729166666686,
      "v": 39
    },
    {
      "midi": 59,
      "hit": false,
      "t": 157091.04000000175,
      "d": 113.63645833334886,
      "v": 74
    },
    {
      "midi": 64,
      "hit": false,
      "t": 157091.04000000175,
      "d": 522.7277083333465,
      "v": 74
    },
    {
      "midi": 69,
      "hit": false,
      "t": 157091.04000000175,
      "d": 659.0914583333652,
      "v": 74
    },
    {
      "midi": 59,
      "hit": false,
      "t": 157136.49458333338,
      "d": 113.63645833334886,
      "v": 72
    },
    {
      "midi": 64,
      "hit": false,
      "t": 157136.49458333338,
      "d": 522.7277083333465,
      "v": 72
    },
    {
      "midi": 69,
      "hit": false,
      "t": 157136.49458333338,
      "d": 659.0914583333652,
      "v": 72
    },
    {
      "midi": 61,
      "hit": false,
      "t": 157181.94916666843,
      "d": 386.3639583333279,
      "v": 54
    },
    {
      "midi": 61,
      "hit": false,
      "t": 157227.40375000006,
      "d": 386.3639583333279,
      "v": 61
    },
    {
      "midi": 61,
      "hit": false,
      "t": 157636.49500000177,
      "d": 68.18187500000931,
      "v": 54
    },
    {
      "midi": 64,
      "hit": false,
      "t": 157636.49500000177,
      "d": 68.18187500000931,
      "v": 74
    },
    {
      "midi": 45,
      "hit": false,
      "t": 157636.49500000177,
      "d": 795.4552083333547,
      "v": 59
    },
    {
      "midi": 61,
      "hit": false,
      "t": 157681.9495833334,
      "d": 68.18187500000931,
      "v": 61
    },
    {
      "midi": 64,
      "hit": false,
      "t": 157681.9495833334,
      "d": 68.18187500000931,
      "v": 72
    },
    {
      "midi": 45,
      "hit": false,
      "t": 157681.9495833334,
      "d": 795.4552083333547,
      "v": 66
    },
    {
      "midi": 61,
      "hit": false,
      "t": 157772.8587500018,
      "d": 68.18187500000931,
      "v": 54
    },
    {
      "midi": 64,
      "hit": false,
      "t": 157772.8587500018,
      "d": 68.18187500000931,
      "v": 74
    },
    {
      "midi": 61,
      "hit": false,
      "t": 157818.3133333334,
      "d": 68.18187500000931,
      "v": 61
    },
    {
      "midi": 64,
      "hit": false,
      "t": 157818.3133333334,
      "d": 68.18187500000931,
      "v": 72
    },
    {
      "midi": 59,
      "hit": false,
      "t": 158181.9500000018,
      "d": 113.63645833334886,
      "v": 74
    },
    {
      "midi": 64,
      "hit": false,
      "t": 158181.9500000018,
      "d": 250.00020833333838,
      "v": 74
    },
    {
      "midi": 69,
      "hit": false,
      "t": 158181.9500000018,
      "d": 250.00020833333838,
      "v": 74
    },
    {
      "midi": 59,
      "hit": false,
      "t": 158227.4045833334,
      "d": 113.63645833334886,
      "v": 72
    },
    {
      "midi": 64,
      "hit": false,
      "t": 158227.4045833334,
      "d": 250.00020833333838,
      "v": 72
    },
    {
      "midi": 69,
      "hit": false,
      "t": 158227.4045833334,
      "d": 250.00020833333838,
      "v": 72
    },
    {
      "midi": 61,
      "hit": false,
      "t": 158272.85916666847,
      "d": 272.72750000000815,
      "v": 54
    },
    {
      "midi": 61,
      "hit": false,
      "t": 158318.3137500001,
      "d": 272.72750000000815,
      "v": 61
    },
    {
      "midi": 59,
      "hit": false,
      "t": 158454.6775000018,
      "d": 113.63645833334886,
      "v": 74
    },
    {
      "midi": 45,
      "hit": false,
      "t": 158454.6775000018,
      "d": 250.00020833336748,
      "v": 59
    },
    {
      "midi": 64,
      "hit": false,
      "t": 158454.6775000018,
      "d": 250.00020833336748,
      "v": 74
    },
    {
      "midi": 69,
      "hit": false,
      "t": 158454.6775000018,
      "d": 250.00020833336748,
      "v": 74
    },
    {
      "midi": 59,
      "hit": false,
      "t": 158500.13208333342,
      "d": 113.63645833334886,
      "v": 72
    },
    {
      "midi": 45,
      "hit": false,
      "t": 158500.13208333342,
      "d": 250.00020833336748,
      "v": 66
    },
    {
      "midi": 64,
      "hit": false,
      "t": 158500.13208333342,
      "d": 250.00020833336748,
      "v": 72
    },
    {
      "midi": 69,
      "hit": false,
      "t": 158500.13208333342,
      "d": 250.00020833336748,
      "v": 72
    },
    {
      "midi": 61,
      "hit": false,
      "t": 158545.58666666847,
      "d": 113.63645833334886,
      "v": 54
    },
    {
      "midi": 61,
      "hit": false,
      "t": 158591.0412500001,
      "d": 113.63645833334886,
      "v": 61
    },
    {
      "midi": 61,
      "hit": false,
      "t": 158727.40500000183,
      "d": 34.09093750000466,
      "v": 59
    },
    {
      "midi": 64,
      "hit": false,
      "t": 158727.40500000183,
      "d": 34.09093750000466,
      "v": 59
    },
    {
      "midi": 69,
      "hit": false,
      "t": 158727.40500000183,
      "d": 34.09093750000466,
      "v": 59
    },
    {
      "midi": 61,
      "hit": false,
      "t": 158772.85958333345,
      "d": 34.09093750000466,
      "v": 66
    },
    {
      "midi": 64,
      "hit": false,
      "t": 158772.85958333345,
      "d": 34.09093750000466,
      "v": 66
    },
    {
      "midi": 69,
      "hit": false,
      "t": 158772.85958333345,
      "d": 34.09093750000466,
      "v": 66
    },
    {
      "midi": 61,
      "hit": false,
      "t": 158863.76875000185,
      "d": 34.09093750000466,
      "v": 59
    },
    {
      "midi": 64,
      "hit": false,
      "t": 158863.76875000185,
      "d": 34.09093750000466,
      "v": 59
    },
    {
      "midi": 61,
      "hit": false,
      "t": 158909.22333333347,
      "d": 34.09093750000466,
      "v": 66
    },
    {
      "midi": 64,
      "hit": false,
      "t": 158909.22333333347,
      "d": 34.09093750000466,
      "v": 66
    },
    {
      "midi": 78,
      "hit": false,
      "t": 159000.13250000024,
      "d": 750.0006250000442,
      "v": 80
    },
    {
      "midi": 90,
      "hit": false,
      "t": 159000.13250000024,
      "d": 750.0006250000442,
      "v": 80
    },
    {
      "midi": 61,
      "hit": false,
      "t": 159000.13250000187,
      "d": 34.09093750000466,
      "v": 59
    },
    {
      "midi": 64,
      "hit": false,
      "t": 159000.13250000187,
      "d": 34.09093750000466,
      "v": 59
    },
    {
      "midi": 69,
      "hit": false,
      "t": 159000.13250000187,
      "d": 34.09093750000466,
      "v": 59
    },
    {
      "midi": 61,
      "hit": false,
      "t": 159045.5870833335,
      "d": 34.09093750000466,
      "v": 66
    },
    {
      "midi": 64,
      "hit": false,
      "t": 159045.5870833335,
      "d": 34.09093750000466,
      "v": 66
    },
    {
      "midi": 69,
      "hit": false,
      "t": 159045.5870833335,
      "d": 34.09093750000466,
      "v": 66
    },
    {
      "midi": 61,
      "hit": false,
      "t": 159136.4962500019,
      "d": 34.09093750000466,
      "v": 59
    },
    {
      "midi": 64,
      "hit": false,
      "t": 159136.4962500019,
      "d": 34.09093750000466,
      "v": 59
    },
    {
      "midi": 61,
      "hit": false,
      "t": 159181.9508333335,
      "d": 34.09093750000466,
      "v": 66
    },
    {
      "midi": 64,
      "hit": false,
      "t": 159181.9508333335,
      "d": 34.09093750000466,
      "v": 66
    },
    {
      "midi": 59,
      "hit": false,
      "t": 159272.8600000019,
      "d": 113.63645833334886,
      "v": 74
    },
    {
      "midi": 64,
      "hit": false,
      "t": 159272.8600000019,
      "d": 250.00020833333838,
      "v": 74
    },
    {
      "midi": 69,
      "hit": false,
      "t": 159272.8600000019,
      "d": 250.00020833333838,
      "v": 74
    },
    {
      "midi": 45,
      "hit": false,
      "t": 159272.8600000019,
      "d": 670.4551041667,
      "v": 59
    },
    {
      "midi": 52,
      "hit": false,
      "t": 159272.8600000019,
      "d": 670.4551041667,
      "v": 59
    },
    {
      "midi": 59,
      "hit": false,
      "t": 159318.31458333353,
      "d": 113.63645833334886,
      "v": 72
    },
    {
      "midi": 64,
      "hit": false,
      "t": 159318.31458333353,
      "d": 250.00020833333838,
      "v": 72
    },
    {
      "midi": 69,
      "hit": false,
      "t": 159318.31458333353,
      "d": 250.00020833333838,
      "v": 72
    },
    {
      "midi": 45,
      "hit": false,
      "t": 159318.31458333353,
      "d": 670.4551041667,
      "v": 66
    },
    {
      "midi": 52,
      "hit": false,
      "t": 159318.31458333353,
      "d": 670.4551041667,
      "v": 66
    },
    {
      "midi": 61,
      "hit": false,
      "t": 159363.7691666686,
      "d": 295.4547916666488,
      "v": 54
    },
    {
      "midi": 61,
      "hit": false,
      "t": 159409.2237500002,
      "d": 295.4547916666488,
      "v": 61
    },
    {
      "midi": 61,
      "hit": false,
      "t": 159681.9512500019,
      "d": 68.18187500000931,
      "v": 54
    },
    {
      "midi": 64,
      "hit": false,
      "t": 159681.9512500019,
      "d": 68.18187500000931,
      "v": 74
    },
    {
      "midi": 61,
      "hit": false,
      "t": 159727.40583333353,
      "d": 68.18187500000931,
      "v": 61
    },
    {
      "midi": 64,
      "hit": false,
      "t": 159727.40583333353,
      "d": 68.18187500000931,
      "v": 72
    },
    {
      "midi": 78,
      "hit": false,
      "t": 159772.86041666695,
      "d": 500.00041666667676,
      "v": 80
    },
    {
      "midi": 90,
      "hit": false,
      "t": 159772.86041666695,
      "d": 500.00041666667676,
      "v": 80
    },
    {
      "midi": 61,
      "hit": false,
      "t": 159818.31500000192,
      "d": 68.18187500000931,
      "v": 54
    },
    {
      "midi": 64,
      "hit": false,
      "t": 159818.31500000192,
      "d": 68.18187500000931,
      "v": 74
    },
    {
      "midi": 61,
      "hit": false,
      "t": 159863.76958333355,
      "d": 68.18187500000931,
      "v": 61
    },
    {
      "midi": 64,
      "hit": false,
      "t": 159863.76958333355,
      "d": 68.18187500000931,
      "v": 72
    },
    {
      "midi": 45,
      "hit": false,
      "t": 160091.04250000193,
      "d": 113.63645833334886,
      "v": 59
    },
    {
      "midi": 59,
      "hit": false,
      "t": 160091.04250000193,
      "d": 113.63645833334886,
      "v": 74
    },
    {
      "midi": 64,
      "hit": false,
      "t": 160091.04250000193,
      "d": 250.00020833333838,
      "v": 74
    },
    {
      "midi": 69,
      "hit": false,
      "t": 160091.04250000193,
      "d": 250.00020833333838,
      "v": 74
    },
    {
      "midi": 45,
      "hit": false,
      "t": 160136.49708333355,
      "d": 113.63645833334886,
      "v": 66
    },
    {
      "midi": 59,
      "hit": false,
      "t": 160136.49708333355,
      "d": 113.63645833334886,
      "v": 72
    },
    {
      "midi": 64,
      "hit": false,
      "t": 160136.49708333355,
      "d": 250.00020833333838,
      "v": 72
    },
    {
      "midi": 69,
      "hit": false,
      "t": 160136.49708333355,
      "d": 250.00020833333838,
      "v": 72
    },
    {
      "midi": 61,
      "hit": false,
      "t": 160181.9516666686,
      "d": 386.3639583333279,
      "v": 54
    },
    {
      "midi": 61,
      "hit": false,
      "t": 160227.40625000023,
      "d": 386.3639583333279,
      "v": 61
    },
    {
      "midi": 78,
      "hit": false,
      "t": 160318.31541666697,
      "d": 500.00041666667676,
      "v": 80
    },
    {
      "midi": 90,
      "hit": false,
      "t": 160318.31541666697,
      "d": 500.00041666667676,
      "v": 80
    },
    {
      "midi": 45,
      "hit": false,
      "t": 160363.77000000194,
      "d": 113.63645833331975,
      "v": 59
    },
    {
      "midi": 52,
      "hit": false,
      "t": 160363.77000000194,
      "d": 113.63645833331975,
      "v": 59
    },
    {
      "midi": 59,
      "hit": false,
      "t": 160363.77000000194,
      "d": 113.63645833331975,
      "v": 74
    },
    {
      "midi": 64,
      "hit": false,
      "t": 160363.77000000194,
      "d": 250.00020833333838,
      "v": 74
    },
    {
      "midi": 69,
      "hit": false,
      "t": 160363.77000000194,
      "d": 250.00020833333838,
      "v": 74
    },
    {
      "midi": 45,
      "hit": false,
      "t": 160409.22458333356,
      "d": 113.63645833331975,
      "v": 66
    },
    {
      "midi": 52,
      "hit": false,
      "t": 160409.22458333356,
      "d": 113.63645833331975,
      "v": 66
    },
    {
      "midi": 59,
      "hit": false,
      "t": 160409.22458333356,
      "d": 113.63645833331975,
      "v": 72
    },
    {
      "midi": 64,
      "hit": false,
      "t": 160409.22458333356,
      "d": 250.00020833333838,
      "v": 72
    },
    {
      "midi": 69,
      "hit": false,
      "t": 160409.22458333356,
      "d": 250.00020833333838,
      "v": 72
    },
    {
      "midi": 61,
      "hit": false,
      "t": 160613.77020833347,
      "d": 397.7276041666628,
      "v": 64
    },
    {
      "midi": 59,
      "hit": false,
      "t": 160636.49750000195,
      "d": 113.63645833334886,
      "v": 74
    },
    {
      "midi": 64,
      "hit": false,
      "t": 160636.49750000195,
      "d": 272.72750000000815,
      "v": 74
    },
    {
      "midi": 69,
      "hit": false,
      "t": 160636.49750000195,
      "d": 409.0912500000268,
      "v": 74
    },
    {
      "midi": 45,
      "hit": false,
      "t": 160636.49750000195,
      "d": 534.0913541667105,
      "v": 59
    },
    {
      "midi": 52,
      "hit": false,
      "t": 160636.49750000195,
      "d": 534.0913541667105,
      "v": 59
    },
    {
      "midi": 59,
      "hit": false,
      "t": 160681.95208333357,
      "d": 113.63645833334886,
      "v": 72
    },
    {
      "midi": 64,
      "hit": false,
      "t": 160681.95208333357,
      "d": 272.72750000000815,
      "v": 72
    },
    {
      "midi": 69,
      "hit": false,
      "t": 160681.95208333357,
      "d": 409.0912500000268,
      "v": 72
    },
    {
      "midi": 45,
      "hit": false,
      "t": 160681.95208333357,
      "d": 534.0913541667105,
      "v": 66
    },
    {
      "midi": 52,
      "hit": false,
      "t": 160681.95208333357,
      "d": 534.0913541667105,
      "v": 66
    },
    {
      "midi": 61,
      "hit": false,
      "t": 160727.40666666863,
      "d": 181.81833333332906,
      "v": 54
    },
    {
      "midi": 61,
      "hit": false,
      "t": 160772.86125000025,
      "d": 181.81833333332906,
      "v": 61
    },
    {
      "midi": 78,
      "hit": false,
      "t": 160863.770416667,
      "d": 500.00041666667676,
      "v": 80
    },
    {
      "midi": 90,
      "hit": false,
      "t": 160863.770416667,
      "d": 500.00041666667676,
      "v": 80
    },
    {
      "midi": 61,
      "hit": false,
      "t": 160909.22500000196,
      "d": 68.18187500000931,
      "v": 59
    },
    {
      "midi": 64,
      "hit": false,
      "t": 160909.22500000196,
      "d": 68.18187500000931,
      "v": 59
    },
    {
      "midi": 61,
      "hit": false,
      "t": 160954.67958333358,
      "d": 68.18187500000931,
      "v": 66
    },
    {
      "midi": 64,
      "hit": false,
      "t": 160954.67958333358,
      "d": 68.18187500000931,
      "v": 66
    },
    {
      "midi": 64,
      "hit": false,
      "t": 161022.86145833347,
      "d": 397.7276041666628,
      "v": 64
    },
    {
      "midi": 61,
      "hit": false,
      "t": 161045.58875000197,
      "d": 45.45458333333954,
      "v": 59
    },
    {
      "midi": 64,
      "hit": false,
      "t": 161045.58875000197,
      "d": 136.36375000001863,
      "v": 59
    },
    {
      "midi": 61,
      "hit": false,
      "t": 161091.0433333336,
      "d": 45.45458333333954,
      "v": 66
    },
    {
      "midi": 64,
      "hit": false,
      "t": 161091.0433333336,
      "d": 136.36375000001863,
      "v": 66
    },
    {
      "midi": 61,
      "hit": false,
      "t": 161181.952500002,
      "d": 68.18187500000931,
      "v": 59
    },
    {
      "midi": 64,
      "hit": false,
      "t": 161181.952500002,
      "d": 68.18187500000931,
      "v": 59
    },
    {
      "midi": 61,
      "hit": false,
      "t": 161227.40708333362,
      "d": 68.18187500000931,
      "v": 66
    },
    {
      "midi": 64,
      "hit": false,
      "t": 161227.40708333362,
      "d": 68.18187500000931,
      "v": 66
    },
    {
      "midi": 61,
      "hit": false,
      "t": 161318.316250002,
      "d": 68.18187500000931,
      "v": 59
    },
    {
      "midi": 64,
      "hit": false,
      "t": 161318.316250002,
      "d": 68.18187500000931,
      "v": 59
    },
    {
      "midi": 61,
      "hit": false,
      "t": 161363.77083333363,
      "d": 68.18187500000931,
      "v": 66
    },
    {
      "midi": 64,
      "hit": false,
      "t": 161363.77083333363,
      "d": 68.18187500000931,
      "v": 66
    },
    {
      "midi": 64,
      "hit": false,
      "t": 161431.95270833347,
      "d": 1352.2738541666768,
      "v": 64
    },
    {
      "midi": 68,
      "hit": false,
      "t": 161431.95270833347,
      "d": 1352.2738541666768,
      "v": 64
    },
    {
      "midi": 71,
      "hit": false,
      "t": 161431.95270833347,
      "d": 1352.2738541666768,
      "v": 64
    },
    {
      "midi": 37,
      "hit": false,
      "t": 161454.6800000003,
      "d": 397.7276041666628,
      "v": 93
    },
    {
      "midi": 61,
      "hit": false,
      "t": 161454.6800000017,
      "d": 261.36385416667326,
      "v": 41
    },
    {
      "midi": 64,
      "hit": false,
      "t": 161454.6800000017,
      "d": 261.36385416667326,
      "v": 41
    },
    {
      "midi": 68,
      "hit": false,
      "t": 161454.6800000017,
      "d": 261.36385416667326,
      "v": 41
    },
    {
      "midi": 49,
      "hit": false,
      "t": 161454.68000000203,
      "d": 125.00010416665464,
      "v": 59
    },
    {
      "midi": 44,
      "hit": false,
      "t": 161454.68000000203,
      "d": 261.36385416664416,
      "v": 59
    },
    {
      "midi": 56,
      "hit": false,
      "t": 161454.68000000203,
      "d": 261.36385416664416,
      "v": 59
    },
    {
      "midi": 61,
      "hit": false,
      "t": 161454.68000000203,
      "d": 261.36385416664416,
      "v": 47
    },
    {
      "midi": 64,
      "hit": false,
      "t": 161454.68000000203,
      "d": 261.36385416664416,
      "v": 47
    },
    {
      "midi": 68,
      "hit": false,
      "t": 161454.68000000203,
      "d": 261.36385416664416,
      "v": 47
    },
    {
      "midi": 64,
      "hit": false,
      "t": 161466.04364583566,
      "d": 102.27281250001397,
      "v": 76
    },
    {
      "midi": 76,
      "hit": false,
      "t": 161466.04364583566,
      "d": 102.27281250001397,
      "v": 76
    },
    {
      "midi": 64,
      "hit": false,
      "t": 161602.40739583567,
      "d": 102.27281250001397,
      "v": 41
    },
    {
      "midi": 76,
      "hit": false,
      "t": 161602.40739583567,
      "d": 102.27281250001397,
      "v": 41
    },
    {
      "midi": 68,
      "hit": false,
      "t": 161716.04385416702,
      "d": 1897.7288541666348,
      "v": 84
    },
    {
      "midi": 56,
      "hit": false,
      "t": 161727.40750000172,
      "d": 261.36385416667326,
      "v": 76
    },
    {
      "midi": 61,
      "hit": false,
      "t": 161727.40750000172,
      "d": 261.36385416667326,
      "v": 47
    },
    {
      "midi": 64,
      "hit": false,
      "t": 161727.40750000172,
      "d": 261.36385416667326,
      "v": 47
    },
    {
      "midi": 68,
      "hit": false,
      "t": 161727.40750000172,
      "d": 261.36385416667326,
      "v": 47
    },
    {
      "midi": 49,
      "hit": false,
      "t": 161727.40750000172,
      "d": 534.0913541666523,
      "v": 76
    },
    {
      "midi": 56,
      "hit": false,
      "t": 161727.407500002,
      "d": 125.00010416665464,
      "v": 59
    },
    {
      "midi": 44,
      "hit": false,
      "t": 161727.407500002,
      "d": 261.36385416664416,
      "v": 59
    },
    {
      "midi": 49,
      "hit": false,
      "t": 161727.407500002,
      "d": 261.36385416664416,
      "v": 59
    },
    {
      "midi": 61,
      "hit": false,
      "t": 161727.407500002,
      "d": 261.36385416664416,
      "v": 53
    },
    {
      "midi": 64,
      "hit": false,
      "t": 161727.407500002,
      "d": 261.36385416664416,
      "v": 53
    },
    {
      "midi": 68,
      "hit": false,
      "t": 161727.407500002,
      "d": 261.36385416664416,
      "v": 53
    },
    {
      "midi": 64,
      "hit": false,
      "t": 161738.7711458357,
      "d": 102.27281250001397,
      "v": 41
    },
    {
      "midi": 76,
      "hit": false,
      "t": 161738.7711458357,
      "d": 102.27281250001397,
      "v": 41
    },
    {
      "midi": 37,
      "hit": false,
      "t": 161863.7712500003,
      "d": 125.00010416665464,
      "v": 93
    },
    {
      "midi": 64,
      "hit": false,
      "t": 161875.1348958357,
      "d": 102.27281250001397,
      "v": 41
    },
    {
      "midi": 76,
      "hit": false,
      "t": 161875.1348958357,
      "d": 102.27281250001397,
      "v": 41
    },
    {
      "midi": 32,
      "hit": false,
      "t": 162000.1350000003,
      "d": 397.7276041666628,
      "v": 93
    },
    {
      "midi": 61,
      "hit": false,
      "t": 162000.13500000173,
      "d": 125.00010416665464,
      "v": 51
    },
    {
      "midi": 64,
      "hit": false,
      "t": 162000.13500000173,
      "d": 125.00010416665464,
      "v": 51
    },
    {
      "midi": 68,
      "hit": false,
      "t": 162000.13500000173,
      "d": 125.00010416665464,
      "v": 51
    },
    {
      "midi": 61,
      "hit": false,
      "t": 162000.135000002,
      "d": 125.00010416665464,
      "v": 57
    },
    {
      "midi": 64,
      "hit": false,
      "t": 162000.135000002,
      "d": 125.00010416665464,
      "v": 57
    },
    {
      "midi": 68,
      "hit": false,
      "t": 162000.135000002,
      "d": 125.00010416665464,
      "v": 57
    },
    {
      "midi": 64,
      "hit": false,
      "t": 162011.49864583573,
      "d": 102.27281250001397,
      "v": 41
    },
    {
      "midi": 76,
      "hit": false,
      "t": 162011.49864583573,
      "d": 102.27281250001397,
      "v": 41
    },
    {
      "midi": 56,
      "hit": false,
      "t": 162136.49875000172,
      "d": 125.00010416665464,
      "v": 76
    },
    {
      "midi": 61,
      "hit": false,
      "t": 162136.49875000172,
      "d": 159.0910416666593,
      "v": 30
    },
    {
      "midi": 64,
      "hit": false,
      "t": 162136.49875000172,
      "d": 159.0910416666593,
      "v": 30
    },
    {
      "midi": 68,
      "hit": false,
      "t": 162136.49875000172,
      "d": 159.0910416666593,
      "v": 30
    },
    {
      "midi": 44,
      "hit": false,
      "t": 162136.49875000198,
      "d": 125.00010416665464,
      "v": 59
    },
    {
      "midi": 49,
      "hit": false,
      "t": 162136.49875000198,
      "d": 125.00010416665464,
      "v": 59
    },
    {
      "midi": 56,
      "hit": false,
      "t": 162136.49875000198,
      "d": 125.00010416665464,
      "v": 59
    },
    {
      "midi": 61,
      "hit": false,
      "t": 162136.49875000198,
      "d": 159.0910416666593,
      "v": 44
    },
    {
      "midi": 64,
      "hit": false,
      "t": 162136.49875000198,
      "d": 159.0910416666593,
      "v": 44
    },
    {
      "midi": 68,
      "hit": false,
      "t": 162136.49875000198,
      "d": 159.0910416666593,
      "v": 44
    },
    {
      "midi": 64,
      "hit": false,
      "t": 162147.86239583575,
      "d": 102.27281250001397,
      "v": 41
    },
    {
      "midi": 76,
      "hit": false,
      "t": 162147.86239583575,
      "d": 102.27281250001397,
      "v": 41
    },
    {
      "midi": 64,
      "hit": false,
      "t": 162284.22614583577,
      "d": 102.27281250001397,
      "v": 76
    },
    {
      "midi": 76,
      "hit": false,
      "t": 162284.22614583577,
      "d": 102.27281250001397,
      "v": 76
    },
    {
      "midi": 32,
      "hit": false,
      "t": 162409.2262500003,
      "d": 125.00010416665464,
      "v": 93
    },
    {
      "midi": 61,
      "hit": false,
      "t": 162409.2262500017,
      "d": 125.00010416665464,
      "v": 30
    },
    {
      "midi": 64,
      "hit": false,
      "t": 162409.2262500017,
      "d": 125.00010416665464,
      "v": 30
    },
    {
      "midi": 68,
      "hit": false,
      "t": 162409.2262500017,
      "d": 125.00010416665464,
      "v": 30
    },
    {
      "midi": 61,
      "hit": false,
      "t": 162409.22625000196,
      "d": 125.00010416665464,
      "v": 44
    },
    {
      "midi": 64,
      "hit": false,
      "t": 162409.22625000196,
      "d": 125.00010416665464,
      "v": 44
    },
    {
      "midi": 68,
      "hit": false,
      "t": 162409.22625000196,
      "d": 125.00010416665464,
      "v": 44
    },
    {
      "midi": 64,
      "hit": false,
      "t": 162420.5898958358,
      "d": 102.27281250001397,
      "v": 41
    },
    {
      "midi": 76,
      "hit": false,
      "t": 162420.5898958358,
      "d": 102.27281250001397,
      "v": 41
    },
    {
      "midi": 37,
      "hit": false,
      "t": 162545.5900000003,
      "d": 397.7276041666628,
      "v": 93
    },
    {
      "midi": 61,
      "hit": false,
      "t": 162545.59000000168,
      "d": 125.00010416665464,
      "v": 51
    },
    {
      "midi": 64,
      "hit": false,
      "t": 162545.59000000168,
      "d": 125.00010416665464,
      "v": 51
    },
    {
      "midi": 68,
      "hit": false,
      "t": 162545.59000000168,
      "d": 125.00010416665464,
      "v": 51
    },
    {
      "midi": 49,
      "hit": false,
      "t": 162545.59000000168,
      "d": 261.36385416664416,
      "v": 76
    },
    {
      "midi": 56,
      "hit": false,
      "t": 162545.59000000168,
      "d": 397.7276041666337,
      "v": 76
    },
    {
      "midi": 61,
      "hit": false,
      "t": 162545.59000000195,
      "d": 125.00010416665464,
      "v": 57
    },
    {
      "midi": 64,
      "hit": false,
      "t": 162545.59000000195,
      "d": 125.00010416665464,
      "v": 57
    },
    {
      "midi": 68,
      "hit": false,
      "t": 162545.59000000195,
      "d": 125.00010416665464,
      "v": 57
    },
    {
      "midi": 44,
      "hit": false,
      "t": 162545.59000000195,
      "d": 261.36385416664416,
      "v": 59
    },
    {
      "midi": 49,
      "hit": false,
      "t": 162545.59000000195,
      "d": 261.36385416664416,
      "v": 59
    },
    {
      "midi": 56,
      "hit": false,
      "t": 162545.59000000195,
      "d": 397.7276041666337,
      "v": 59
    },
    {
      "midi": 64,
      "hit": false,
      "t": 162556.9536458358,
      "d": 102.27281250001397,
      "v": 41
    },
    {
      "midi": 76,
      "hit": false,
      "t": 162556.9536458358,
      "d": 102.27281250001397,
      "v": 41
    },
    {
      "midi": 61,
      "hit": false,
      "t": 162681.95375000167,
      "d": 125.00010416665464,
      "v": 30
    },
    {
      "midi": 64,
      "hit": false,
      "t": 162681.95375000167,
      "d": 125.00010416665464,
      "v": 30
    },
    {
      "midi": 68,
      "hit": false,
      "t": 162681.95375000167,
      "d": 125.00010416665464,
      "v": 30
    },
    {
      "midi": 61,
      "hit": false,
      "t": 162681.95375000194,
      "d": 125.00010416665464,
      "v": 44
    },
    {
      "midi": 64,
      "hit": false,
      "t": 162681.95375000194,
      "d": 125.00010416665464,
      "v": 44
    },
    {
      "midi": 68,
      "hit": false,
      "t": 162681.95375000194,
      "d": 125.00010416665464,
      "v": 44
    },
    {
      "midi": 64,
      "hit": false,
      "t": 162693.31739583582,
      "d": 102.27281250001397,
      "v": 41
    },
    {
      "midi": 76,
      "hit": false,
      "t": 162693.31739583582,
      "d": 102.27281250001397,
      "v": 41
    },
    {
      "midi": 61,
      "hit": false,
      "t": 162818.31750000166,
      "d": 125.00010416665464,
      "v": 30
    },
    {
      "midi": 64,
      "hit": false,
      "t": 162818.31750000166,
      "d": 125.00010416665464,
      "v": 30
    },
    {
      "midi": 68,
      "hit": false,
      "t": 162818.31750000166,
      "d": 125.00010416665464,
      "v": 30
    },
    {
      "midi": 61,
      "hit": false,
      "t": 162818.31750000193,
      "d": 125.00010416665464,
      "v": 44
    },
    {
      "midi": 64,
      "hit": false,
      "t": 162818.31750000193,
      "d": 125.00010416665464,
      "v": 44
    },
    {
      "midi": 68,
      "hit": false,
      "t": 162818.31750000193,
      "d": 125.00010416665464,
      "v": 44
    },
    {
      "midi": 64,
      "hit": false,
      "t": 162829.68114583584,
      "d": 102.27281250001397,
      "v": 41
    },
    {
      "midi": 76,
      "hit": false,
      "t": 162829.68114583584,
      "d": 102.27281250001397,
      "v": 41
    },
    {
      "midi": 64,
      "hit": false,
      "t": 162931.95395833347,
      "d": 261.36385416667326,
      "v": 64
    },
    {
      "midi": 68,
      "hit": false,
      "t": 162931.95395833347,
      "d": 261.36385416667326,
      "v": 64
    },
    {
      "midi": 71,
      "hit": false,
      "t": 162931.95395833347,
      "d": 261.36385416667326,
      "v": 64
    },
    {
      "midi": 32,
      "hit": false,
      "t": 162954.68125000029,
      "d": 125.00010416665464,
      "v": 93
    },
    {
      "midi": 61,
      "hit": false,
      "t": 162954.68125000165,
      "d": 261.36385416667326,
      "v": 51
    },
    {
      "midi": 64,
      "hit": false,
      "t": 162954.68125000165,
      "d": 261.36385416667326,
      "v": 51
    },
    {
      "midi": 68,
      "hit": false,
      "t": 162954.68125000165,
      "d": 261.36385416667326,
      "v": 51
    },
    {
      "midi": 49,
      "hit": false,
      "t": 162954.68125000165,
      "d": 397.7276041666628,
      "v": 76
    },
    {
      "midi": 56,
      "hit": false,
      "t": 162954.68125000165,
      "d": 534.0913541666523,
      "v": 76
    },
    {
      "midi": 44,
      "hit": false,
      "t": 162954.68125000192,
      "d": 125.00010416665464,
      "v": 59
    },
    {
      "midi": 49,
      "hit": false,
      "t": 162954.68125000192,
      "d": 125.00010416665464,
      "v": 59
    },
    {
      "midi": 56,
      "hit": false,
      "t": 162954.68125000192,
      "d": 261.36385416664416,
      "v": 59
    },
    {
      "midi": 61,
      "hit": false,
      "t": 162954.68125000192,
      "d": 261.36385416664416,
      "v": 57
    },
    {
      "midi": 64,
      "hit": false,
      "t": 162954.68125000192,
      "d": 261.36385416664416,
      "v": 57
    },
    {
      "midi": 68,
      "hit": false,
      "t": 162954.68125000192,
      "d": 261.36385416664416,
      "v": 57
    },
    {
      "midi": 64,
      "hit": false,
      "t": 162966.04489583586,
      "d": 102.27281250001397,
      "v": 41
    },
    {
      "midi": 76,
      "hit": false,
      "t": 162966.04489583586,
      "d": 102.27281250001397,
      "v": 41
    },
    {
      "midi": 37,
      "hit": false,
      "t": 163091.04500000027,
      "d": 125.00010416665464,
      "v": 93
    },
    {
      "midi": 64,
      "hit": false,
      "t": 163102.40864583588,
      "d": 102.27281250001397,
      "v": 74
    },
    {
      "midi": 76,
      "hit": false,
      "t": 163102.40864583588,
      "d": 102.27281250001397,
      "v": 74
    },
    {
      "midi": 61,
      "hit": false,
      "t": 163204.68145833348,
      "d": 125.00010416665464,
      "v": 64
    },
    {
      "midi": 64,
      "hit": false,
      "t": 163204.68145833348,
      "d": 125.00010416665464,
      "v": 64
    },
    {
      "midi": 68,
      "hit": false,
      "t": 163204.68145833348,
      "d": 125.00010416665464,
      "v": 64
    },
    {
      "midi": 32,
      "hit": false,
      "t": 163227.40875000026,
      "d": 261.36385416667326,
      "v": 93
    },
    {
      "midi": 61,
      "hit": false,
      "t": 163227.40875000166,
      "d": 125.00010416665464,
      "v": 30
    },
    {
      "midi": 64,
      "hit": false,
      "t": 163227.40875000166,
      "d": 125.00010416665464,
      "v": 30
    },
    {
      "midi": 68,
      "hit": false,
      "t": 163227.40875000166,
      "d": 125.00010416665464,
      "v": 30
    },
    {
      "midi": 61,
      "hit": false,
      "t": 163227.4087500019,
      "d": 125.00010416665464,
      "v": 44
    },
    {
      "midi": 64,
      "hit": false,
      "t": 163227.4087500019,
      "d": 125.00010416665464,
      "v": 44
    },
    {
      "midi": 68,
      "hit": false,
      "t": 163227.4087500019,
      "d": 125.00010416665464,
      "v": 44
    },
    {
      "midi": 64,
      "hit": false,
      "t": 163238.7723958359,
      "d": 102.27281250001397,
      "v": 47
    },
    {
      "midi": 76,
      "hit": false,
      "t": 163238.7723958359,
      "d": 102.27281250001397,
      "v": 47
    },
    {
      "midi": 63,
      "hit": false,
      "t": 163341.04520833347,
      "d": 125.00010416665464,
      "v": 64
    },
    {
      "midi": 66,
      "hit": false,
      "t": 163341.04520833347,
      "d": 125.00010416665464,
      "v": 64
    },
    {
      "midi": 69,
      "hit": false,
      "t": 163341.04520833347,
      "d": 125.00010416665464,
      "v": 64
    },
    {
      "midi": 61,
      "hit": false,
      "t": 163363.77250000165,
      "d": 125.00010416665464,
      "v": 51
    },
    {
      "midi": 64,
      "hit": false,
      "t": 163363.77250000165,
      "d": 125.00010416665464,
      "v": 51
    },
    {
      "midi": 68,
      "hit": false,
      "t": 163363.77250000165,
      "d": 125.00010416665464,
      "v": 51
    },
    {
      "midi": 61,
      "hit": false,
      "t": 163363.77250000188,
      "d": 125.00010416665464,
      "v": 57
    },
    {
      "midi": 64,
      "hit": false,
      "t": 163363.77250000188,
      "d": 125.00010416665464,
      "v": 57
    },
    {
      "midi": 68,
      "hit": false,
      "t": 163363.77250000188,
      "d": 125.00010416665464,
      "v": 57
    },
    {
      "midi": 64,
      "hit": false,
      "t": 163375.13614583592,
      "d": 102.27281250001397,
      "v": 47
    },
    {
      "midi": 76,
      "hit": false,
      "t": 163375.13614583592,
      "d": 102.27281250001397,
      "v": 47
    },
    {
      "midi": 64,
      "hit": false,
      "t": 163477.40895833346,
      "d": 136.36374999998952,
      "v": 64
    },
    {
      "midi": 68,
      "hit": false,
      "t": 163477.40895833346,
      "d": 261.36385416664416,
      "v": 64
    },
    {
      "midi": 71,
      "hit": false,
      "t": 163477.40895833346,
      "d": 261.36385416664416,
      "v": 64
    },
    {
      "midi": 61,
      "hit": false,
      "t": 163500.13625000164,
      "d": 125.00010416665464,
      "v": 30
    },
    {
      "midi": 64,
      "hit": false,
      "t": 163500.13625000164,
      "d": 125.00010416665464,
      "v": 30
    },
    {
      "midi": 68,
      "hit": false,
      "t": 163500.13625000164,
      "d": 125.00010416665464,
      "v": 30
    },
    {
      "midi": 44,
      "hit": false,
      "t": 163500.13625000187,
      "d": 125.00010416665464,
      "v": 59
    },
    {
      "midi": 49,
      "hit": false,
      "t": 163500.13625000187,
      "d": 125.00010416665464,
      "v": 59
    },
    {
      "midi": 61,
      "hit": false,
      "t": 163500.13625000187,
      "d": 125.00010416665464,
      "v": 44
    },
    {
      "midi": 64,
      "hit": false,
      "t": 163500.13625000187,
      "d": 125.00010416665464,
      "v": 44
    },
    {
      "midi": 68,
      "hit": false,
      "t": 163500.13625000187,
      "d": 125.00010416665464,
      "v": 44
    },
    {
      "midi": 64,
      "hit": false,
      "t": 163511.49989583594,
      "d": 102.27281250001397,
      "v": 47
    },
    {
      "midi": 76,
      "hit": false,
      "t": 163511.49989583594,
      "d": 102.27281250001397,
      "v": 47
    },
    {
      "midi": 64,
      "hit": false,
      "t": 163613.77270833345,
      "d": 125.00010416665464,
      "v": 64
    },
    {
      "midi": 61,
      "hit": false,
      "t": 163613.77270833345,
      "d": 261.36385416664416,
      "v": 64
    },
    {
      "midi": 69,
      "hit": false,
      "t": 163613.77270833345,
      "d": 261.36385416664416,
      "v": 64
    },
    {
      "midi": 64,
      "hit": false,
      "t": 163625.13635416699,
      "d": 1215.9101041666581,
      "v": 84
    },
    {
      "midi": 33,
      "hit": false,
      "t": 163636.50000000026,
      "d": 397.7276041666628,
      "v": 93
    },
    {
      "midi": 61,
      "hit": false,
      "t": 163636.50000000163,
      "d": 261.36385416667326,
      "v": 38
    },
    {
      "midi": 64,
      "hit": false,
      "t": 163636.50000000163,
      "d": 261.36385416667326,
      "v": 38
    },
    {
      "midi": 69,
      "hit": false,
      "t": 163636.50000000163,
      "d": 261.36385416667326,
      "v": 38
    },
    {
      "midi": 45,
      "hit": false,
      "t": 163636.50000000186,
      "d": 261.36385416667326,
      "v": 59
    },
    {
      "midi": 52,
      "hit": false,
      "t": 163636.50000000186,
      "d": 261.36385416667326,
      "v": 59
    },
    {
      "midi": 57,
      "hit": false,
      "t": 163636.50000000186,
      "d": 261.36385416667326,
      "v": 59
    },
    {
      "midi": 61,
      "hit": false,
      "t": 163636.50000000186,
      "d": 261.36385416667326,
      "v": 44
    },
    {
      "midi": 64,
      "hit": false,
      "t": 163636.50000000186,
      "d": 261.36385416667326,
      "v": 44
    },
    {
      "midi": 69,
      "hit": false,
      "t": 163636.50000000186,
      "d": 261.36385416667326,
      "v": 44
    },
    {
      "midi": 61,
      "hit": false,
      "t": 163909.22750000164,
      "d": 261.36385416667326,
      "v": 39
    },
    {
      "midi": 64,
      "hit": false,
      "t": 163909.22750000164,
      "d": 261.36385416667326,
      "v": 39
    },
    {
      "midi": 69,
      "hit": false,
      "t": 163909.22750000164,
      "d": 261.36385416667326,
      "v": 39
    },
    {
      "midi": 57,
      "hit": false,
      "t": 163909.22750000164,
      "d": 397.7276041666628,
      "v": 76
    },
    {
      "midi": 45,
      "hit": false,
      "t": 163909.22750000164,
      "d": 670.4551041666418,
      "v": 76
    },
    {
      "midi": 45,
      "hit": false,
      "t": 163909.22750000187,
      "d": 261.36385416667326,
      "v": 59
    },
    {
      "midi": 52,
      "hit": false,
      "t": 163909.22750000187,
      "d": 261.36385416667326,
      "v": 59
    },
    {
      "midi": 57,
      "hit": false,
      "t": 163909.22750000187,
      "d": 261.36385416667326,
      "v": 59
    },
    {
      "midi": 61,
      "hit": false,
      "t": 163909.22750000187,
      "d": 261.36385416667326,
      "v": 45
    },
    {
      "midi": 64,
      "hit": false,
      "t": 163909.22750000187,
      "d": 261.36385416667326,
      "v": 45
    },
    {
      "midi": 69,
      "hit": false,
      "t": 163909.22750000187,
      "d": 261.36385416667326,
      "v": 45
    },
    {
      "midi": 61,
      "hit": false,
      "t": 164022.86395833342,
      "d": 261.36385416667326,
      "v": 64
    },
    {
      "midi": 64,
      "hit": false,
      "t": 164022.86395833342,
      "d": 261.36385416667326,
      "v": 64
    },
    {
      "midi": 69,
      "hit": false,
      "t": 164022.86395833342,
      "d": 261.36385416667326,
      "v": 64
    },
    {
      "midi": 33,
      "hit": false,
      "t": 164045.59125000026,
      "d": 125.00010416665464,
      "v": 93
    },
    {
      "midi": 35,
      "hit": false,
      "t": 164181.95500000025,
      "d": 397.7276041666628,
      "v": 93
    },
    {
      "midi": 61,
      "hit": false,
      "t": 164181.95500000165,
      "d": 125.00010416665464,
      "v": 49
    },
    {
      "midi": 64,
      "hit": false,
      "t": 164181.95500000165,
      "d": 125.00010416665464,
      "v": 49
    },
    {
      "midi": 69,
      "hit": false,
      "t": 164181.95500000165,
      "d": 125.00010416665464,
      "v": 49
    },
    {
      "midi": 61,
      "hit": false,
      "t": 164181.95500000188,
      "d": 125.00010416665464,
      "v": 55
    },
    {
      "midi": 64,
      "hit": false,
      "t": 164181.95500000188,
      "d": 125.00010416665464,
      "v": 55
    },
    {
      "midi": 69,
      "hit": false,
      "t": 164181.95500000188,
      "d": 125.00010416665464,
      "v": 55
    },
    {
      "midi": 57,
      "hit": false,
      "t": 164318.31875000164,
      "d": 125.00010416665464,
      "v": 76
    },
    {
      "midi": 61,
      "hit": false,
      "t": 164318.31875000164,
      "d": 125.00010416665464,
      "v": 30
    },
    {
      "midi": 69,
      "hit": false,
      "t": 164318.31875000164,
      "d": 125.00010416665464,
      "v": 30
    },
    {
      "midi": 64,
      "hit": false,
      "t": 164318.31875000164,
      "d": 147.7273958333244,
      "v": 30
    },
    {
      "midi": 45,
      "hit": false,
      "t": 164318.31875000187,
      "d": 125.00010416665464,
      "v": 59
    },
    {
      "midi": 52,
      "hit": false,
      "t": 164318.31875000187,
      "d": 125.00010416665464,
      "v": 59
    },
    {
      "midi": 61,
      "hit": false,
      "t": 164318.31875000187,
      "d": 125.00010416665464,
      "v": 44
    },
    {
      "midi": 69,
      "hit": false,
      "t": 164318.31875000187,
      "d": 125.00010416665464,
      "v": 44
    },
    {
      "midi": 64,
      "hit": false,
      "t": 164318.31875000187,
      "d": 147.7273958333244,
      "v": 44
    },
    {
      "midi": 57,
      "hit": false,
      "t": 164318.31875000187,
      "d": 261.36385416664416,
      "v": 59
    },
    {
      "midi": 35,
      "hit": false,
      "t": 164591.04625000025,
      "d": 125.00010416665464,
      "v": 93
    },
    {
      "midi": 61,
      "hit": false,
      "t": 164591.04625000161,
      "d": 125.00010416665464,
      "v": 30
    },
    {
      "midi": 64,
      "hit": false,
      "t": 164591.04625000161,
      "d": 125.00010416665464,
      "v": 30
    },
    {
      "midi": 69,
      "hit": false,
      "t": 164591.04625000161,
      "d": 125.00010416665464,
      "v": 30
    },
    {
      "midi": 61,
      "hit": false,
      "t": 164591.04625000185,
      "d": 125.00010416665464,
      "v": 44
    },
    {
      "midi": 64,
      "hit": false,
      "t": 164591.04625000185,
      "d": 125.00010416665464,
      "v": 44
    },
    {
      "midi": 69,
      "hit": false,
      "t": 164591.04625000185,
      "d": 125.00010416665464,
      "v": 44
    },
    {
      "midi": 37,
      "hit": false,
      "t": 164727.41000000024,
      "d": 125.00010416665464,
      "v": 93
    },
    {
      "midi": 61,
      "hit": false,
      "t": 164727.4100000016,
      "d": 125.00010416665464,
      "v": 59
    },
    {
      "midi": 64,
      "hit": false,
      "t": 164727.4100000016,
      "d": 125.00010416665464,
      "v": 59
    },
    {
      "midi": 69,
      "hit": false,
      "t": 164727.4100000016,
      "d": 125.00010416665464,
      "v": 59
    },
    {
      "midi": 57,
      "hit": false,
      "t": 164727.4100000016,
      "d": 261.36385416664416,
      "v": 76
    },
    {
      "midi": 45,
      "hit": false,
      "t": 164727.4100000016,
      "d": 397.7276041666337,
      "v": 76
    },
    {
      "midi": 61,
      "hit": false,
      "t": 164727.41000000184,
      "d": 125.00010416665464,
      "v": 65
    },
    {
      "midi": 64,
      "hit": false,
      "t": 164727.41000000184,
      "d": 125.00010416665464,
      "v": 65
    },
    {
      "midi": 69,
      "hit": false,
      "t": 164727.41000000184,
      "d": 125.00010416665464,
      "v": 65
    },
    {
      "midi": 45,
      "hit": false,
      "t": 164727.41000000184,
      "d": 261.36385416664416,
      "v": 59
    },
    {
      "midi": 52,
      "hit": false,
      "t": 164727.41000000184,
      "d": 261.36385416664416,
      "v": 59
    },
    {
      "midi": 57,
      "hit": false,
      "t": 164727.41000000184,
      "d": 261.36385416664416,
      "v": 59
    },
    {
      "midi": 61,
      "hit": false,
      "t": 164863.7737500016,
      "d": 125.00010416665464,
      "v": 30
    },
    {
      "midi": 64,
      "hit": false,
      "t": 164863.7737500016,
      "d": 125.00010416665464,
      "v": 30
    },
    {
      "midi": 69,
      "hit": false,
      "t": 164863.7737500016,
      "d": 125.00010416665464,
      "v": 30
    },
    {
      "midi": 61,
      "hit": false,
      "t": 164863.77375000183,
      "d": 125.00010416665464,
      "v": 44
    },
    {
      "midi": 64,
      "hit": false,
      "t": 164863.77375000183,
      "d": 125.00010416665464,
      "v": 44
    },
    {
      "midi": 69,
      "hit": false,
      "t": 164863.77375000183,
      "d": 125.00010416665464,
      "v": 44
    },
    {
      "midi": 64,
      "hit": false,
      "t": 164988.77385416697,
      "d": 534.0913541666523,
      "v": 84
    },
    {
      "midi": 37,
      "hit": false,
      "t": 165000.13750000022,
      "d": 261.36385416667326,
      "v": 93
    },
    {
      "midi": 61,
      "hit": false,
      "t": 165000.13750000158,
      "d": 125.00010416665464,
      "v": 30
    },
    {
      "midi": 64,
      "hit": false,
      "t": 165000.13750000158,
      "d": 125.00010416665464,
      "v": 30
    },
    {
      "midi": 69,
      "hit": false,
      "t": 165000.13750000158,
      "d": 125.00010416665464,
      "v": 30
    },
    {
      "midi": 61,
      "hit": false,
      "t": 165000.13750000182,
      "d": 125.00010416665464,
      "v": 44
    },
    {
      "midi": 64,
      "hit": false,
      "t": 165000.13750000182,
      "d": 125.00010416665464,
      "v": 44
    },
    {
      "midi": 69,
      "hit": false,
      "t": 165000.13750000182,
      "d": 125.00010416665464,
      "v": 44
    },
    {
      "midi": 61,
      "hit": false,
      "t": 165136.50125000157,
      "d": 261.36385416667326,
      "v": 55
    },
    {
      "midi": 64,
      "hit": false,
      "t": 165136.50125000157,
      "d": 261.36385416667326,
      "v": 55
    },
    {
      "midi": 69,
      "hit": false,
      "t": 165136.50125000157,
      "d": 261.36385416667326,
      "v": 55
    },
    {
      "midi": 57,
      "hit": false,
      "t": 165136.50125000157,
      "d": 397.7276041666628,
      "v": 76
    },
    {
      "midi": 45,
      "hit": false,
      "t": 165136.50125000157,
      "d": 534.0913541666523,
      "v": 76
    },
    {
      "midi": 45,
      "hit": false,
      "t": 165136.5012500018,
      "d": 125.00010416665464,
      "v": 59
    },
    {
      "midi": 52,
      "hit": false,
      "t": 165136.5012500018,
      "d": 125.00010416665464,
      "v": 59
    },
    {
      "midi": 57,
      "hit": false,
      "t": 165136.5012500018,
      "d": 261.36385416664416,
      "v": 59
    },
    {
      "midi": 61,
      "hit": false,
      "t": 165136.5012500018,
      "d": 261.36385416664416,
      "v": 61
    },
    {
      "midi": 64,
      "hit": false,
      "t": 165136.5012500018,
      "d": 261.36385416664416,
      "v": 61
    },
    {
      "midi": 69,
      "hit": false,
      "t": 165136.5012500018,
      "d": 261.36385416664416,
      "v": 61
    },
    {
      "midi": 61,
      "hit": false,
      "t": 165250.1377083334,
      "d": 261.36385416667326,
      "v": 64
    },
    {
      "midi": 39,
      "hit": false,
      "t": 165272.86500000022,
      "d": 261.36385416667326,
      "v": 93
    },
    {
      "midi": 61,
      "hit": false,
      "t": 165409.22875000158,
      "d": 125.00010416665464,
      "v": 30
    },
    {
      "midi": 64,
      "hit": false,
      "t": 165409.22875000158,
      "d": 125.00010416665464,
      "v": 30
    },
    {
      "midi": 69,
      "hit": false,
      "t": 165409.22875000158,
      "d": 125.00010416665464,
      "v": 30
    },
    {
      "midi": 61,
      "hit": false,
      "t": 165409.22875000178,
      "d": 125.00010416665464,
      "v": 44
    },
    {
      "midi": 64,
      "hit": false,
      "t": 165409.22875000178,
      "d": 125.00010416665464,
      "v": 44
    },
    {
      "midi": 69,
      "hit": false,
      "t": 165409.22875000178,
      "d": 125.00010416665464,
      "v": 44
    },
    {
      "midi": 64,
      "hit": false,
      "t": 165522.86520833342,
      "d": 261.36385416667326,
      "v": 64
    },
    {
      "midi": 64,
      "hit": false,
      "t": 165534.22885416695,
      "d": 125.00010416665464,
      "v": 84
    },
    {
      "midi": 40,
      "hit": false,
      "t": 165545.59250000023,
      "d": 125.00010416665464,
      "v": 93
    },
    {
      "midi": 61,
      "hit": false,
      "t": 165545.59250000157,
      "d": 125.00010416665464,
      "v": 55
    },
    {
      "midi": 64,
      "hit": false,
      "t": 165545.59250000157,
      "d": 125.00010416665464,
      "v": 55
    },
    {
      "midi": 69,
      "hit": false,
      "t": 165545.59250000157,
      "d": 125.00010416665464,
      "v": 55
    },
    {
      "midi": 61,
      "hit": false,
      "t": 165545.59250000177,
      "d": 125.00010416665464,
      "v": 61
    },
    {
      "midi": 64,
      "hit": false,
      "t": 165545.59250000177,
      "d": 125.00010416665464,
      "v": 61
    },
    {
      "midi": 69,
      "hit": false,
      "t": 165545.59250000177,
      "d": 125.00010416665464,
      "v": 61
    },
    {
      "midi": 61,
      "hit": false,
      "t": 165681.95625000156,
      "d": 113.63645833331975,
      "v": 30
    },
    {
      "midi": 64,
      "hit": false,
      "t": 165681.95625000156,
      "d": 113.63645833331975,
      "v": 30
    },
    {
      "midi": 69,
      "hit": false,
      "t": 165681.95625000156,
      "d": 113.63645833331975,
      "v": 30
    },
    {
      "midi": 61,
      "hit": false,
      "t": 165681.95625000176,
      "d": 113.63645833331975,
      "v": 44
    },
    {
      "midi": 64,
      "hit": false,
      "t": 165681.95625000176,
      "d": 113.63645833331975,
      "v": 44
    },
    {
      "midi": 69,
      "hit": false,
      "t": 165681.95625000176,
      "d": 113.63645833331975,
      "v": 44
    },
    {
      "midi": 64,
      "hit": false,
      "t": 165795.59270833342,
      "d": 1352.2738541666768,
      "v": 64
    },
    {
      "midi": 68,
      "hit": false,
      "t": 165795.59270833342,
      "d": 1352.2738541666768,
      "v": 64
    },
    {
      "midi": 71,
      "hit": false,
      "t": 165795.59270833342,
      "d": 1352.2738541666768,
      "v": 64
    },
    {
      "midi": 68,
      "hit": false,
      "t": 165806.95635416693,
      "d": 534.0913541666814,
      "v": 84
    },
    {
      "midi": 37,
      "hit": false,
      "t": 165818.3200000002,
      "d": 397.7276041666628,
      "v": 93
    },
    {
      "midi": 61,
      "hit": false,
      "t": 165818.32000000155,
      "d": 261.36385416667326,
      "v": 55
    },
    {
      "midi": 64,
      "hit": false,
      "t": 165818.32000000155,
      "d": 261.36385416667326,
      "v": 55
    },
    {
      "midi": 68,
      "hit": false,
      "t": 165818.32000000155,
      "d": 261.36385416667326,
      "v": 55
    },
    {
      "midi": 49,
      "hit": false,
      "t": 165818.32000000175,
      "d": 125.00010416665464,
      "v": 59
    },
    {
      "midi": 44,
      "hit": false,
      "t": 165818.32000000175,
      "d": 261.36385416664416,
      "v": 59
    },
    {
      "midi": 56,
      "hit": false,
      "t": 165818.32000000175,
      "d": 261.36385416664416,
      "v": 59
    },
    {
      "midi": 61,
      "hit": false,
      "t": 165818.32000000175,
      "d": 261.36385416664416,
      "v": 61
    },
    {
      "midi": 64,
      "hit": false,
      "t": 165818.32000000175,
      "d": 261.36385416664416,
      "v": 61
    },
    {
      "midi": 68,
      "hit": false,
      "t": 165818.32000000175,
      "d": 261.36385416664416,
      "v": 61
    },
    {
      "midi": 64,
      "hit": false,
      "t": 165829.68364583596,
      "d": 102.27281250001397,
      "v": 76
    },
    {
      "midi": 76,
      "hit": false,
      "t": 165829.68364583596,
      "d": 102.27281250001397,
      "v": 76
    },
    {
      "midi": 64,
      "hit": false,
      "t": 165966.04739583598,
      "d": 102.27281250001397,
      "v": 41
    },
    {
      "midi": 76,
      "hit": false,
      "t": 165966.04739583598,
      "d": 102.27281250001397,
      "v": 41
    },
    {
      "midi": 56,
      "hit": false,
      "t": 166091.04750000156,
      "d": 261.36385416667326,
      "v": 76
    },
    {
      "midi": 61,
      "hit": false,
      "t": 166091.04750000156,
      "d": 261.36385416667326,
      "v": 34
    },
    {
      "midi": 64,
      "hit": false,
      "t": 166091.04750000156,
      "d": 261.36385416667326,
      "v": 34
    },
    {
      "midi": 68,
      "hit": false,
      "t": 166091.04750000156,
      "d": 261.36385416667326,
      "v": 34
    },
    {
      "midi": 49,
      "hit": false,
      "t": 166091.04750000156,
      "d": 397.7276041666628,
      "v": 76
    },
    {
      "midi": 56,
      "hit": false,
      "t": 166091.04750000173,
      "d": 125.00010416665464,
      "v": 59
    },
    {
      "midi": 44,
      "hit": false,
      "t": 166091.04750000173,
      "d": 261.36385416664416,
      "v": 59
    },
    {
      "midi": 49,
      "hit": false,
      "t": 166091.04750000173,
      "d": 261.36385416664416,
      "v": 59
    },
    {
      "midi": 61,
      "hit": false,
      "t": 166091.04750000173,
      "d": 261.36385416664416,
      "v": 44
    },
    {
      "midi": 64,
      "hit": false,
      "t": 166091.04750000173,
      "d": 261.36385416664416,
      "v": 44
    },
    {
      "midi": 68,
      "hit": false,
      "t": 166091.04750000173,
      "d": 261.36385416664416,
      "v": 44
    },
    {
      "midi": 64,
      "hit": false,
      "t": 166102.411145836,
      "d": 102.27281250001397,
      "v": 41
    },
    {
      "midi": 76,
      "hit": false,
      "t": 166102.411145836,
      "d": 102.27281250001397,
      "v": 41
    },
    {
      "midi": 37,
      "hit": false,
      "t": 166227.4112500002,
      "d": 125.00010416665464,
      "v": 93
    },
    {
      "midi": 64,
      "hit": false,
      "t": 166238.77489583602,
      "d": 102.27281250001397,
      "v": 41
    },
    {
      "midi": 76,
      "hit": false,
      "t": 166238.77489583602,
      "d": 102.27281250001397,
      "v": 41
    },
    {
      "midi": 68,
      "hit": false,
      "t": 166352.41135416695,
      "d": 534.0913541666814,
      "v": 84
    },
    {
      "midi": 32,
      "hit": false,
      "t": 166363.7750000002,
      "d": 397.7276041666628,
      "v": 93
    },
    {
      "midi": 61,
      "hit": false,
      "t": 166363.77500000157,
      "d": 125.00010416665464,
      "v": 49
    },
    {
      "midi": 64,
      "hit": false,
      "t": 166363.77500000157,
      "d": 125.00010416665464,
      "v": 49
    },
    {
      "midi": 68,
      "hit": false,
      "t": 166363.77500000157,
      "d": 125.00010416665464,
      "v": 49
    },
    {
      "midi": 61,
      "hit": false,
      "t": 166363.7750000017,
      "d": 125.00010416665464,
      "v": 55
    },
    {
      "midi": 64,
      "hit": false,
      "t": 166363.7750000017,
      "d": 125.00010416665464,
      "v": 55
    },
    {
      "midi": 68,
      "hit": false,
      "t": 166363.7750000017,
      "d": 125.00010416665464,
      "v": 55
    },
    {
      "midi": 64,
      "hit": false,
      "t": 166375.13864583604,
      "d": 102.27281250001397,
      "v": 41
    },
    {
      "midi": 76,
      "hit": false,
      "t": 166375.13864583604,
      "d": 102.27281250001397,
      "v": 41
    },
    {
      "midi": 49,
      "hit": false,
      "t": 166500.13875000156,
      "d": 125.00010416665464,
      "v": 76
    },
    {
      "midi": 56,
      "hit": false,
      "t": 166500.13875000156,
      "d": 125.00010416665464,
      "v": 76
    },
    {
      "midi": 61,
      "hit": false,
      "t": 166500.13875000156,
      "d": 159.0910416666593,
      "v": 30
    },
    {
      "midi": 64,
      "hit": false,
      "t": 166500.13875000156,
      "d": 159.0910416666593,
      "v": 30
    },
    {
      "midi": 68,
      "hit": false,
      "t": 166500.13875000156,
      "d": 159.0910416666593,
      "v": 30
    },
    {
      "midi": 44,
      "hit": false,
      "t": 166500.1387500017,
      "d": 125.00010416665464,
      "v": 59
    },
    {
      "midi": 49,
      "hit": false,
      "t": 166500.1387500017,
      "d": 125.00010416665464,
      "v": 59
    },
    {
      "midi": 56,
      "hit": false,
      "t": 166500.1387500017,
      "d": 125.00010416665464,
      "v": 59
    },
    {
      "midi": 61,
      "hit": false,
      "t": 166500.1387500017,
      "d": 159.0910416666593,
      "v": 44
    },
    {
      "midi": 64,
      "hit": false,
      "t": 166500.1387500017,
      "d": 159.0910416666593,
      "v": 44
    },
    {
      "midi": 68,
      "hit": false,
      "t": 166500.1387500017,
      "d": 159.0910416666593,
      "v": 44
    },
    {
      "midi": 64,
      "hit": false,
      "t": 166511.50239583605,
      "d": 102.27281250001397,
      "v": 41
    },
    {
      "midi": 76,
      "hit": false,
      "t": 166511.50239583605,
      "d": 102.27281250001397,
      "v": 41
    },
    {
      "midi": 64,
      "hit": false,
      "t": 166647.86614583607,
      "d": 102.27281250001397,
      "v": 76
    },
    {
      "midi": 76,
      "hit": false,
      "t": 166647.86614583607,
      "d": 102.27281250001397,
      "v": 76
    },
    {
      "midi": 32,
      "hit": false,
      "t": 166772.8662500002,
      "d": 125.00010416665464,
      "v": 93
    },
    {
      "midi": 61,
      "hit": false,
      "t": 166772.86625000153,
      "d": 125.00010416665464,
      "v": 30
    },
    {
      "midi": 64,
      "hit": false,
      "t": 166772.86625000153,
      "d": 125.00010416665464,
      "v": 30
    },
    {
      "midi": 68,
      "hit": false,
      "t": 166772.86625000153,
      "d": 125.00010416665464,
      "v": 30
    },
    {
      "midi": 61,
      "hit": false,
      "t": 166772.86625000168,
      "d": 125.00010416665464,
      "v": 44
    },
    {
      "midi": 64,
      "hit": false,
      "t": 166772.86625000168,
      "d": 125.00010416665464,
      "v": 44
    },
    {
      "midi": 68,
      "hit": false,
      "t": 166772.86625000168,
      "d": 125.00010416665464,
      "v": 44
    },
    {
      "midi": 64,
      "hit": false,
      "t": 166784.2298958361,
      "d": 102.27281250001397,
      "v": 41
    },
    {
      "midi": 76,
      "hit": false,
      "t": 166784.2298958361,
      "d": 102.27281250001397,
      "v": 41
    },
    {
      "midi": 68,
      "hit": false,
      "t": 166897.86635416697,
      "d": 545.4550000000163,
      "v": 84
    },
    {
      "midi": 37,
      "hit": false,
      "t": 166909.23000000019,
      "d": 397.7276041666628,
      "v": 93
    },
    {
      "midi": 61,
      "hit": false,
      "t": 166909.23000000152,
      "d": 125.00010416665464,
      "v": 51
    },
    {
      "midi": 64,
      "hit": false,
      "t": 166909.23000000152,
      "d": 125.00010416665464,
      "v": 51
    },
    {
      "midi": 68,
      "hit": false,
      "t": 166909.23000000152,
      "d": 125.00010416665464,
      "v": 51
    },
    {
      "midi": 56,
      "hit": false,
      "t": 166909.23000000152,
      "d": 261.36385416664416,
      "v": 76
    },
    {
      "midi": 49,
      "hit": false,
      "t": 166909.23000000152,
      "d": 397.7276041666337,
      "v": 76
    },
    {
      "midi": 61,
      "hit": false,
      "t": 166909.23000000167,
      "d": 125.00010416665464,
      "v": 57
    },
    {
      "midi": 64,
      "hit": false,
      "t": 166909.23000000167,
      "d": 125.00010416665464,
      "v": 57
    },
    {
      "midi": 68,
      "hit": false,
      "t": 166909.23000000167,
      "d": 125.00010416665464,
      "v": 57
    },
    {
      "midi": 44,
      "hit": false,
      "t": 166909.23000000167,
      "d": 261.36385416664416,
      "v": 59
    },
    {
      "midi": 49,
      "hit": false,
      "t": 166909.23000000167,
      "d": 261.36385416664416,
      "v": 59
    },
    {
      "midi": 56,
      "hit": false,
      "t": 166909.23000000167,
      "d": 397.7276041666337,
      "v": 59
    },
    {
      "midi": 64,
      "hit": false,
      "t": 166920.5936458361,
      "d": 102.27281250001397,
      "v": 41
    },
    {
      "midi": 76,
      "hit": false,
      "t": 166920.5936458361,
      "d": 102.27281250001397,
      "v": 41
    },
    {
      "midi": 61,
      "hit": false,
      "t": 167045.5937500015,
      "d": 125.00010416665464,
      "v": 30
    },
    {
      "midi": 64,
      "hit": false,
      "t": 167045.5937500015,
      "d": 125.00010416665464,
      "v": 30
    },
    {
      "midi": 68,
      "hit": false,
      "t": 167045.5937500015,
      "d": 125.00010416665464,
      "v": 30
    },
    {
      "midi": 61,
      "hit": false,
      "t": 167045.59375000166,
      "d": 125.00010416665464,
      "v": 44
    },
    {
      "midi": 64,
      "hit": false,
      "t": 167045.59375000166,
      "d": 125.00010416665464,
      "v": 44
    },
    {
      "midi": 68,
      "hit": false,
      "t": 167045.59375000166,
      "d": 125.00010416665464,
      "v": 44
    },
    {
      "midi": 64,
      "hit": false,
      "t": 167056.95739583613,
      "d": 102.27281250001397,
      "v": 41
    },
    {
      "midi": 76,
      "hit": false,
      "t": 167056.95739583613,
      "d": 102.27281250001397,
      "v": 41
    },
    {
      "midi": 61,
      "hit": false,
      "t": 167181.9575000015,
      "d": 125.00010416665464,
      "v": 30
    },
    {
      "midi": 64,
      "hit": false,
      "t": 167181.9575000015,
      "d": 125.00010416665464,
      "v": 30
    },
    {
      "midi": 68,
      "hit": false,
      "t": 167181.9575000015,
      "d": 125.00010416665464,
      "v": 30
    },
    {
      "midi": 61,
      "hit": false,
      "t": 167181.95750000165,
      "d": 125.00010416665464,
      "v": 44
    },
    {
      "midi": 64,
      "hit": false,
      "t": 167181.95750000165,
      "d": 125.00010416665464,
      "v": 44
    },
    {
      "midi": 68,
      "hit": false,
      "t": 167181.95750000165,
      "d": 125.00010416665464,
      "v": 44
    },
    {
      "midi": 64,
      "hit": false,
      "t": 167193.32114583615,
      "d": 102.27281250001397,
      "v": 41
    },
    {
      "midi": 76,
      "hit": false,
      "t": 167193.32114583615,
      "d": 102.27281250001397,
      "v": 41
    },
    {
      "midi": 64,
      "hit": false,
      "t": 167295.59395833343,
      "d": 261.36385416667326,
      "v": 64
    },
    {
      "midi": 68,
      "hit": false,
      "t": 167295.59395833343,
      "d": 261.36385416667326,
      "v": 64
    },
    {
      "midi": 71,
      "hit": false,
      "t": 167295.59395833343,
      "d": 261.36385416667326,
      "v": 64
    },
    {
      "midi": 32,
      "hit": false,
      "t": 167318.32125000018,
      "d": 125.00010416665464,
      "v": 93
    },
    {
      "midi": 61,
      "hit": false,
      "t": 167318.3212500015,
      "d": 261.36385416667326,
      "v": 51
    },
    {
      "midi": 64,
      "hit": false,
      "t": 167318.3212500015,
      "d": 261.36385416667326,
      "v": 51
    },
    {
      "midi": 68,
      "hit": false,
      "t": 167318.3212500015,
      "d": 261.36385416667326,
      "v": 51
    },
    {
      "midi": 56,
      "hit": false,
      "t": 167318.3212500015,
      "d": 397.7276041666628,
      "v": 76
    },
    {
      "midi": 49,
      "hit": false,
      "t": 167318.3212500015,
      "d": 670.4551041666418,
      "v": 76
    },
    {
      "midi": 44,
      "hit": false,
      "t": 167318.32125000164,
      "d": 125.00010416665464,
      "v": 59
    },
    {
      "midi": 49,
      "hit": false,
      "t": 167318.32125000164,
      "d": 125.00010416665464,
      "v": 59
    },
    {
      "midi": 56,
      "hit": false,
      "t": 167318.32125000164,
      "d": 261.36385416664416,
      "v": 59
    },
    {
      "midi": 61,
      "hit": false,
      "t": 167318.32125000164,
      "d": 261.36385416664416,
      "v": 57
    },
    {
      "midi": 64,
      "hit": false,
      "t": 167318.32125000164,
      "d": 261.36385416664416,
      "v": 57
    },
    {
      "midi": 68,
      "hit": false,
      "t": 167318.32125000164,
      "d": 261.36385416664416,
      "v": 57
    },
    {
      "midi": 64,
      "hit": false,
      "t": 167329.68489583617,
      "d": 102.27281250001397,
      "v": 41
    },
    {
      "midi": 76,
      "hit": false,
      "t": 167329.68489583617,
      "d": 102.27281250001397,
      "v": 41
    },
    {
      "midi": 68,
      "hit": false,
      "t": 167443.32135416698,
      "d": 534.0913541666814,
      "v": 84
    },
    {
      "midi": 37,
      "hit": false,
      "t": 167454.68500000017,
      "d": 125.00010416665464,
      "v": 93
    },
    {
      "midi": 64,
      "hit": false,
      "t": 167466.04864583618,
      "d": 102.27281250001397,
      "v": 74
    },
    {
      "midi": 76,
      "hit": false,
      "t": 167466.04864583618,
      "d": 102.27281250001397,
      "v": 74
    },
    {
      "midi": 61,
      "hit": false,
      "t": 167568.32145833343,
      "d": 125.00010416665464,
      "v": 64
    },
    {
      "midi": 64,
      "hit": false,
      "t": 167568.32145833343,
      "d": 125.00010416665464,
      "v": 64
    },
    {
      "midi": 68,
      "hit": false,
      "t": 167568.32145833343,
      "d": 125.00010416665464,
      "v": 64
    },
    {
      "midi": 32,
      "hit": false,
      "t": 167591.04875000016,
      "d": 261.36385416667326,
      "v": 93
    },
    {
      "midi": 61,
      "hit": false,
      "t": 167591.0487500015,
      "d": 125.00010416665464,
      "v": 30
    },
    {
      "midi": 64,
      "hit": false,
      "t": 167591.0487500015,
      "d": 125.00010416665464,
      "v": 30
    },
    {
      "midi": 68,
      "hit": false,
      "t": 167591.0487500015,
      "d": 125.00010416665464,
      "v": 30
    },
    {
      "midi": 61,
      "hit": false,
      "t": 167591.04875000162,
      "d": 125.00010416665464,
      "v": 44
    },
    {
      "midi": 64,
      "hit": false,
      "t": 167591.04875000162,
      "d": 125.00010416665464,
      "v": 44
    },
    {
      "midi": 68,
      "hit": false,
      "t": 167591.04875000162,
      "d": 125.00010416665464,
      "v": 44
    },
    {
      "midi": 64,
      "hit": false,
      "t": 167602.4123958362,
      "d": 102.27281250001397,
      "v": 47
    },
    {
      "midi": 76,
      "hit": false,
      "t": 167602.4123958362,
      "d": 102.27281250001397,
      "v": 47
    },
    {
      "midi": 63,
      "hit": false,
      "t": 167704.68520833342,
      "d": 125.00010416665464,
      "v": 64
    },
    {
      "midi": 66,
      "hit": false,
      "t": 167704.68520833342,
      "d": 125.00010416665464,
      "v": 64
    },
    {
      "midi": 69,
      "hit": false,
      "t": 167704.68520833342,
      "d": 125.00010416665464,
      "v": 64
    },
    {
      "midi": 61,
      "hit": false,
      "t": 167727.4125000015,
      "d": 125.00010416665464,
      "v": 51
    },
    {
      "midi": 64,
      "hit": false,
      "t": 167727.4125000015,
      "d": 125.00010416665464,
      "v": 51
    },
    {
      "midi": 68,
      "hit": false,
      "t": 167727.4125000015,
      "d": 125.00010416665464,
      "v": 51
    },
    {
      "midi": 61,
      "hit": false,
      "t": 167727.4125000016,
      "d": 125.00010416665464,
      "v": 57
    },
    {
      "midi": 64,
      "hit": false,
      "t": 167727.4125000016,
      "d": 125.00010416665464,
      "v": 57
    },
    {
      "midi": 68,
      "hit": false,
      "t": 167727.4125000016,
      "d": 125.00010416665464,
      "v": 57
    },
    {
      "midi": 64,
      "hit": false,
      "t": 167738.77614583622,
      "d": 102.27281250001397,
      "v": 47
    },
    {
      "midi": 76,
      "hit": false,
      "t": 167738.77614583622,
      "d": 102.27281250001397,
      "v": 47
    },
    {
      "midi": 64,
      "hit": false,
      "t": 167841.0489583334,
      "d": 136.36374999998952,
      "v": 64
    },
    {
      "midi": 68,
      "hit": false,
      "t": 167841.0489583334,
      "d": 261.36385416664416,
      "v": 64
    },
    {
      "midi": 71,
      "hit": false,
      "t": 167841.0489583334,
      "d": 261.36385416664416,
      "v": 64
    },
    {
      "midi": 61,
      "hit": false,
      "t": 167863.77625000148,
      "d": 125.00010416665464,
      "v": 30
    },
    {
      "midi": 64,
      "hit": false,
      "t": 167863.77625000148,
      "d": 125.00010416665464,
      "v": 30
    },
    {
      "midi": 68,
      "hit": false,
      "t": 167863.77625000148,
      "d": 125.00010416665464,
      "v": 30
    },
    {
      "midi": 44,
      "hit": false,
      "t": 167863.7762500016,
      "d": 125.00010416665464,
      "v": 59
    },
    {
      "midi": 49,
      "hit": false,
      "t": 167863.7762500016,
      "d": 125.00010416665464,
      "v": 59
    },
    {
      "midi": 61,
      "hit": false,
      "t": 167863.7762500016,
      "d": 125.00010416665464,
      "v": 44
    },
    {
      "midi": 64,
      "hit": false,
      "t": 167863.7762500016,
      "d": 125.00010416665464,
      "v": 44
    },
    {
      "midi": 68,
      "hit": false,
      "t": 167863.7762500016,
      "d": 125.00010416665464,
      "v": 44
    },
    {
      "midi": 64,
      "hit": false,
      "t": 167875.13989583624,
      "d": 102.27281250001397,
      "v": 47
    },
    {
      "midi": 76,
      "hit": false,
      "t": 167875.13989583624,
      "d": 102.27281250001397,
      "v": 47
    },
    {
      "midi": 64,
      "hit": false,
      "t": 167977.4127083334,
      "d": 125.00010416665464,
      "v": 64
    },
    {
      "midi": 61,
      "hit": false,
      "t": 167977.4127083334,
      "d": 261.36385416664416,
      "v": 64
    },
    {
      "midi": 69,
      "hit": false,
      "t": 167977.4127083334,
      "d": 261.36385416664416,
      "v": 64
    },
    {
      "midi": 64,
      "hit": false,
      "t": 167988.776354167,
      "d": 1897.728854166664,
      "v": 84
    },
    {
      "midi": 33,
      "hit": false,
      "t": 168000.14000000016,
      "d": 397.7276041666628,
      "v": 93
    },
    {
      "midi": 61,
      "hit": false,
      "t": 168000.14000000147,
      "d": 261.36385416667326,
      "v": 59
    },
    {
      "midi": 64,
      "hit": false,
      "t": 168000.14000000147,
      "d": 261.36385416667326,
      "v": 59
    },
    {
      "midi": 69,
      "hit": false,
      "t": 168000.14000000147,
      "d": 261.36385416667326,
      "v": 59
    },
    {
      "midi": 45,
      "hit": false,
      "t": 168000.1400000016,
      "d": 261.36385416667326,
      "v": 59
    },
    {
      "midi": 52,
      "hit": false,
      "t": 168000.1400000016,
      "d": 261.36385416667326,
      "v": 59
    },
    {
      "midi": 57,
      "hit": false,
      "t": 168000.1400000016,
      "d": 261.36385416667326,
      "v": 59
    },
    {
      "midi": 61,
      "hit": false,
      "t": 168000.1400000016,
      "d": 261.36385416667326,
      "v": 65
    },
    {
      "midi": 64,
      "hit": false,
      "t": 168000.1400000016,
      "d": 261.36385416667326,
      "v": 65
    },
    {
      "midi": 69,
      "hit": false,
      "t": 168000.1400000016,
      "d": 261.36385416667326,
      "v": 65
    },
    {
      "midi": 57,
      "hit": false,
      "t": 168272.86750000148,
      "d": 261.36385416667326,
      "v": 76
    },
    {
      "midi": 61,
      "hit": false,
      "t": 168272.86750000148,
      "d": 261.36385416667326,
      "v": 43
    },
    {
      "midi": 64,
      "hit": false,
      "t": 168272.86750000148,
      "d": 261.36385416667326,
      "v": 43
    },
    {
      "midi": 69,
      "hit": false,
      "t": 168272.86750000148,
      "d": 261.36385416667326,
      "v": 43
    },
    {
      "midi": 45,
      "hit": false,
      "t": 168272.86750000148,
      "d": 534.0913541666523,
      "v": 76
    },
    {
      "midi": 45,
      "hit": false,
      "t": 168272.8675000016,
      "d": 261.36385416667326,
      "v": 59
    },
    {
      "midi": 52,
      "hit": false,
      "t": 168272.8675000016,
      "d": 261.36385416667326,
      "v": 59
    },
    {
      "midi": 57,
      "hit": false,
      "t": 168272.8675000016,
      "d": 261.36385416667326,
      "v": 59
    },
    {
      "midi": 61,
      "hit": false,
      "t": 168272.8675000016,
      "d": 261.36385416667326,
      "v": 49
    },
    {
      "midi": 64,
      "hit": false,
      "t": 168272.8675000016,
      "d": 261.36385416667326,
      "v": 49
    },
    {
      "midi": 69,
      "hit": false,
      "t": 168272.8675000016,
      "d": 261.36385416667326,
      "v": 49
    },
    {
      "midi": 61,
      "hit": false,
      "t": 168386.50395833337,
      "d": 261.36385416667326,
      "v": 64
    },
    {
      "midi": 64,
      "hit": false,
      "t": 168386.50395833337,
      "d": 261.36385416667326,
      "v": 64
    },
    {
      "midi": 69,
      "hit": false,
      "t": 168386.50395833337,
      "d": 261.36385416667326,
      "v": 64
    },
    {
      "midi": 33,
      "hit": false,
      "t": 168409.23125000016,
      "d": 125.00010416665464,
      "v": 93
    },
    {
      "midi": 35,
      "hit": false,
      "t": 168545.59500000015,
      "d": 397.7276041666628,
      "v": 93
    },
    {
      "midi": 61,
      "hit": false,
      "t": 168545.5950000015,
      "d": 125.00010416665464,
      "v": 59
    },
    {
      "midi": 64,
      "hit": false,
      "t": 168545.5950000015,
      "d": 125.00010416665464,
      "v": 59
    },
    {
      "midi": 69,
      "hit": false,
      "t": 168545.5950000015,
      "d": 125.00010416665464,
      "v": 59
    },
    {
      "midi": 61,
      "hit": false,
      "t": 168545.5950000016,
      "d": 125.00010416665464,
      "v": 65
    },
    {
      "midi": 64,
      "hit": false,
      "t": 168545.5950000016,
      "d": 125.00010416665464,
      "v": 65
    },
    {
      "midi": 69,
      "hit": false,
      "t": 168545.5950000016,
      "d": 125.00010416665464,
      "v": 65
    },
    {
      "midi": 61,
      "hit": false,
      "t": 168681.95875000147,
      "d": 125.00010416665464,
      "v": 30
    },
    {
      "midi": 69,
      "hit": false,
      "t": 168681.95875000147,
      "d": 125.00010416665464,
      "v": 30
    },
    {
      "midi": 64,
      "hit": false,
      "t": 168681.95875000147,
      "d": 147.7273958333244,
      "v": 30
    },
    {
      "midi": 57,
      "hit": false,
      "t": 168681.95875000147,
      "d": 261.36385416664416,
      "v": 76
    },
    {
      "midi": 45,
      "hit": false,
      "t": 168681.9587500016,
      "d": 125.00010416665464,
      "v": 59
    },
    {
      "midi": 52,
      "hit": false,
      "t": 168681.9587500016,
      "d": 125.00010416665464,
      "v": 59
    },
    {
      "midi": 61,
      "hit": false,
      "t": 168681.9587500016,
      "d": 125.00010416665464,
      "v": 44
    },
    {
      "midi": 69,
      "hit": false,
      "t": 168681.9587500016,
      "d": 125.00010416665464,
      "v": 44
    },
    {
      "midi": 64,
      "hit": false,
      "t": 168681.9587500016,
      "d": 147.7273958333244,
      "v": 44
    },
    {
      "midi": 57,
      "hit": false,
      "t": 168681.9587500016,
      "d": 261.36385416664416,
      "v": 59
    },
    {
      "midi": 35,
      "hit": false,
      "t": 168954.68625000014,
      "d": 125.00010416665464,
      "v": 93
    },
    {
      "midi": 61,
      "hit": false,
      "t": 168954.68625000145,
      "d": 125.00010416665464,
      "v": 30
    },
    {
      "midi": 64,
      "hit": false,
      "t": 168954.68625000145,
      "d": 125.00010416665464,
      "v": 30
    },
    {
      "midi": 69,
      "hit": false,
      "t": 168954.68625000145,
      "d": 125.00010416665464,
      "v": 30
    },
    {
      "midi": 61,
      "hit": false,
      "t": 168954.68625000157,
      "d": 125.00010416665464,
      "v": 44
    },
    {
      "midi": 64,
      "hit": false,
      "t": 168954.68625000157,
      "d": 125.00010416665464,
      "v": 44
    },
    {
      "midi": 69,
      "hit": false,
      "t": 168954.68625000157,
      "d": 125.00010416665464,
      "v": 44
    },
    {
      "midi": 37,
      "hit": false,
      "t": 169091.05000000013,
      "d": 125.00010416665464,
      "v": 93
    },
    {
      "midi": 61,
      "hit": false,
      "t": 169091.05000000144,
      "d": 125.00010416665464,
      "v": 59
    },
    {
      "midi": 64,
      "hit": false,
      "t": 169091.05000000144,
      "d": 125.00010416665464,
      "v": 59
    },
    {
      "midi": 69,
      "hit": false,
      "t": 169091.05000000144,
      "d": 125.00010416665464,
      "v": 59
    },
    {
      "midi": 57,
      "hit": false,
      "t": 169091.05000000144,
      "d": 261.36385416664416,
      "v": 76
    },
    {
      "midi": 45,
      "hit": false,
      "t": 169091.05000000144,
      "d": 397.7276041666337,
      "v": 76
    },
    {
      "midi": 61,
      "hit": false,
      "t": 169091.05000000156,
      "d": 125.00010416665464,
      "v": 65
    },
    {
      "midi": 64,
      "hit": false,
      "t": 169091.05000000156,
      "d": 125.00010416665464,
      "v": 65
    },
    {
      "midi": 69,
      "hit": false,
      "t": 169091.05000000156,
      "d": 125.00010416665464,
      "v": 65
    },
    {
      "midi": 45,
      "hit": false,
      "t": 169091.05000000156,
      "d": 261.36385416664416,
      "v": 59
    },
    {
      "midi": 52,
      "hit": false,
      "t": 169091.05000000156,
      "d": 261.36385416664416,
      "v": 59
    },
    {
      "midi": 57,
      "hit": false,
      "t": 169091.05000000156,
      "d": 261.36385416664416,
      "v": 59
    },
    {
      "midi": 61,
      "hit": false,
      "t": 169227.41375000143,
      "d": 125.00010416665464,
      "v": 30
    },
    {
      "midi": 64,
      "hit": false,
      "t": 169227.41375000143,
      "d": 125.00010416665464,
      "v": 30
    },
    {
      "midi": 69,
      "hit": false,
      "t": 169227.41375000143,
      "d": 125.00010416665464,
      "v": 30
    },
    {
      "midi": 61,
      "hit": false,
      "t": 169227.41375000155,
      "d": 125.00010416665464,
      "v": 44
    },
    {
      "midi": 64,
      "hit": false,
      "t": 169227.41375000155,
      "d": 125.00010416665464,
      "v": 44
    },
    {
      "midi": 69,
      "hit": false,
      "t": 169227.41375000155,
      "d": 125.00010416665464,
      "v": 44
    },
    {
      "midi": 37,
      "hit": false,
      "t": 169363.7775000001,
      "d": 261.36385416667326,
      "v": 93
    },
    {
      "midi": 61,
      "hit": false,
      "t": 169363.77750000142,
      "d": 125.00010416665464,
      "v": 30
    },
    {
      "midi": 64,
      "hit": false,
      "t": 169363.77750000142,
      "d": 125.00010416665464,
      "v": 30
    },
    {
      "midi": 69,
      "hit": false,
      "t": 169363.77750000142,
      "d": 125.00010416665464,
      "v": 30
    },
    {
      "midi": 61,
      "hit": false,
      "t": 169363.77750000154,
      "d": 125.00010416665464,
      "v": 44
    },
    {
      "midi": 64,
      "hit": false,
      "t": 169363.77750000154,
      "d": 125.00010416665464,
      "v": 44
    },
    {
      "midi": 69,
      "hit": false,
      "t": 169363.77750000154,
      "d": 125.00010416665464,
      "v": 44
    },
    {
      "midi": 61,
      "hit": false,
      "t": 169500.1412500014,
      "d": 261.36385416667326,
      "v": 55
    },
    {
      "midi": 64,
      "hit": false,
      "t": 169500.1412500014,
      "d": 261.36385416667326,
      "v": 55
    },
    {
      "midi": 69,
      "hit": false,
      "t": 169500.1412500014,
      "d": 261.36385416667326,
      "v": 55
    },
    {
      "midi": 57,
      "hit": false,
      "t": 169500.1412500014,
      "d": 397.7276041666628,
      "v": 76
    },
    {
      "midi": 45,
      "hit": false,
      "t": 169500.1412500014,
      "d": 659.091458333307,
      "v": 76
    },
    {
      "midi": 45,
      "hit": false,
      "t": 169500.14125000153,
      "d": 125.00010416665464,
      "v": 59
    },
    {
      "midi": 52,
      "hit": false,
      "t": 169500.14125000153,
      "d": 125.00010416665464,
      "v": 59
    },
    {
      "midi": 57,
      "hit": false,
      "t": 169500.14125000153,
      "d": 261.36385416664416,
      "v": 59
    },
    {
      "midi": 61,
      "hit": false,
      "t": 169500.14125000153,
      "d": 261.36385416664416,
      "v": 61
    },
    {
      "midi": 64,
      "hit": false,
      "t": 169500.14125000153,
      "d": 261.36385416664416,
      "v": 61
    },
    {
      "midi": 69,
      "hit": false,
      "t": 169500.14125000153,
      "d": 261.36385416664416,
      "v": 61
    },
    {
      "midi": 61,
      "hit": false,
      "t": 169613.77770833336,
      "d": 261.36385416667326,
      "v": 64
    },
    {
      "midi": 39,
      "hit": false,
      "t": 169636.50500000012,
      "d": 261.36385416667326,
      "v": 93
    },
    {
      "midi": 61,
      "hit": false,
      "t": 169772.86875000142,
      "d": 125.00010416665464,
      "v": 30
    },
    {
      "midi": 64,
      "hit": false,
      "t": 169772.86875000142,
      "d": 125.00010416665464,
      "v": 30
    },
    {
      "midi": 69,
      "hit": false,
      "t": 169772.86875000142,
      "d": 125.00010416665464,
      "v": 30
    },
    {
      "midi": 61,
      "hit": false,
      "t": 169772.8687500015,
      "d": 125.00010416665464,
      "v": 44
    },
    {
      "midi": 64,
      "hit": false,
      "t": 169772.8687500015,
      "d": 125.00010416665464,
      "v": 44
    },
    {
      "midi": 69,
      "hit": false,
      "t": 169772.8687500015,
      "d": 125.00010416665464,
      "v": 44
    },
    {
      "midi": 64,
      "hit": false,
      "t": 169886.50520833337,
      "d": 261.36385416667326,
      "v": 64
    },
    {
      "midi": 40,
      "hit": false,
      "t": 169909.23250000013,
      "d": 125.00010416665464,
      "v": 93
    },
    {
      "midi": 61,
      "hit": false,
      "t": 169909.2325000014,
      "d": 125.00010416665464,
      "v": 55
    },
    {
      "midi": 64,
      "hit": false,
      "t": 169909.2325000014,
      "d": 125.00010416665464,
      "v": 55
    },
    {
      "midi": 69,
      "hit": false,
      "t": 169909.2325000014,
      "d": 125.00010416665464,
      "v": 55
    },
    {
      "midi": 61,
      "hit": false,
      "t": 169909.2325000015,
      "d": 125.00010416665464,
      "v": 61
    },
    {
      "midi": 64,
      "hit": false,
      "t": 169909.2325000015,
      "d": 125.00010416665464,
      "v": 61
    },
    {
      "midi": 69,
      "hit": false,
      "t": 169909.2325000015,
      "d": 125.00010416665464,
      "v": 61
    },
    {
      "midi": 61,
      "hit": false,
      "t": 170045.5962500014,
      "d": 113.63645833331975,
      "v": 30
    },
    {
      "midi": 64,
      "hit": false,
      "t": 170045.5962500014,
      "d": 113.63645833331975,
      "v": 30
    },
    {
      "midi": 69,
      "hit": false,
      "t": 170045.5962500014,
      "d": 113.63645833331975,
      "v": 30
    },
    {
      "midi": 61,
      "hit": false,
      "t": 170045.5962500015,
      "d": 113.63645833331975,
      "v": 44
    },
    {
      "midi": 64,
      "hit": false,
      "t": 170045.5962500015,
      "d": 113.63645833331975,
      "v": 44
    },
    {
      "midi": 69,
      "hit": false,
      "t": 170045.5962500015,
      "d": 113.63645833331975,
      "v": 44
    },
    {
      "midi": 64,
      "hit": false,
      "t": 170159.23270833338,
      "d": 1352.2738541666768,
      "v": 64
    },
    {
      "midi": 68,
      "hit": false,
      "t": 170159.23270833338,
      "d": 1352.2738541666768,
      "v": 64
    },
    {
      "midi": 71,
      "hit": false,
      "t": 170159.23270833338,
      "d": 1352.2738541666768,
      "v": 64
    },
    {
      "midi": 73,
      "hit": false,
      "t": 170170.596354167,
      "d": 261.36385416667326,
      "v": 84
    },
    {
      "midi": 37,
      "hit": false,
      "t": 170181.9600000001,
      "d": 397.7276041666628,
      "v": 93
    },
    {
      "midi": 61,
      "hit": false,
      "t": 170181.9600000014,
      "d": 261.36385416667326,
      "v": 55
    },
    {
      "midi": 64,
      "hit": false,
      "t": 170181.9600000014,
      "d": 261.36385416667326,
      "v": 55
    },
    {
      "midi": 68,
      "hit": false,
      "t": 170181.9600000014,
      "d": 261.36385416667326,
      "v": 55
    },
    {
      "midi": 49,
      "hit": false,
      "t": 170181.96000000148,
      "d": 125.00010416665464,
      "v": 59
    },
    {
      "midi": 44,
      "hit": false,
      "t": 170181.96000000148,
      "d": 261.36385416664416,
      "v": 59
    },
    {
      "midi": 56,
      "hit": false,
      "t": 170181.96000000148,
      "d": 261.36385416664416,
      "v": 59
    },
    {
      "midi": 61,
      "hit": false,
      "t": 170181.96000000148,
      "d": 261.36385416664416,
      "v": 61
    },
    {
      "midi": 64,
      "hit": false,
      "t": 170181.96000000148,
      "d": 261.36385416664416,
      "v": 61
    },
    {
      "midi": 68,
      "hit": false,
      "t": 170181.96000000148,
      "d": 261.36385416664416,
      "v": 61
    },
    {
      "midi": 64,
      "hit": false,
      "t": 170193.32364583627,
      "d": 102.27281250001397,
      "v": 76
    },
    {
      "midi": 76,
      "hit": false,
      "t": 170193.32364583627,
      "d": 102.27281250001397,
      "v": 76
    },
    {
      "midi": 64,
      "hit": false,
      "t": 170329.68739583628,
      "d": 102.27281250001397,
      "v": 41
    },
    {
      "midi": 76,
      "hit": false,
      "t": 170329.68739583628,
      "d": 102.27281250001397,
      "v": 41
    },
    {
      "midi": 71,
      "hit": false,
      "t": 170443.323854167,
      "d": 272.72750000000815,
      "v": 84
    },
    {
      "midi": 56,
      "hit": false,
      "t": 170454.6875000014,
      "d": 261.36385416667326,
      "v": 76
    },
    {
      "midi": 61,
      "hit": false,
      "t": 170454.6875000014,
      "d": 261.36385416667326,
      "v": 30
    },
    {
      "midi": 64,
      "hit": false,
      "t": 170454.6875000014,
      "d": 261.36385416667326,
      "v": 30
    },
    {
      "midi": 68,
      "hit": false,
      "t": 170454.6875000014,
      "d": 261.36385416667326,
      "v": 30
    },
    {
      "midi": 49,
      "hit": false,
      "t": 170454.6875000014,
      "d": 670.4551041666709,
      "v": 76
    },
    {
      "midi": 56,
      "hit": false,
      "t": 170454.68750000146,
      "d": 125.00010416665464,
      "v": 59
    },
    {
      "midi": 44,
      "hit": false,
      "t": 170454.68750000146,
      "d": 261.36385416664416,
      "v": 59
    },
    {
      "midi": 49,
      "hit": false,
      "t": 170454.68750000146,
      "d": 261.36385416664416,
      "v": 59
    },
    {
      "midi": 61,
      "hit": false,
      "t": 170454.68750000146,
      "d": 261.36385416664416,
      "v": 44
    },
    {
      "midi": 64,
      "hit": false,
      "t": 170454.68750000146,
      "d": 261.36385416664416,
      "v": 44
    },
    {
      "midi": 68,
      "hit": false,
      "t": 170454.68750000146,
      "d": 261.36385416664416,
      "v": 44
    },
    {
      "midi": 64,
      "hit": false,
      "t": 170466.0511458363,
      "d": 102.27281250001397,
      "v": 41
    },
    {
      "midi": 76,
      "hit": false,
      "t": 170466.0511458363,
      "d": 102.27281250001397,
      "v": 41
    },
    {
      "midi": 37,
      "hit": false,
      "t": 170591.0512500001,
      "d": 125.00010416665464,
      "v": 93
    },
    {
      "midi": 64,
      "hit": false,
      "t": 170602.41489583632,
      "d": 102.27281250001397,
      "v": 41
    },
    {
      "midi": 76,
      "hit": false,
      "t": 170602.41489583632,
      "d": 102.27281250001397,
      "v": 41
    },
    {
      "midi": 73,
      "hit": false,
      "t": 170716.05135416702,
      "d": 272.72750000000815,
      "v": 84
    },
    {
      "midi": 32,
      "hit": false,
      "t": 170727.4150000001,
      "d": 397.7276041666628,
      "v": 93
    },
    {
      "midi": 61,
      "hit": false,
      "t": 170727.4150000014,
      "d": 125.00010416665464,
      "v": 51
    },
    {
      "midi": 64,
      "hit": false,
      "t": 170727.4150000014,
      "d": 125.00010416665464,
      "v": 51
    },
    {
      "midi": 68,
      "hit": false,
      "t": 170727.4150000014,
      "d": 125.00010416665464,
      "v": 51
    },
    {
      "midi": 61,
      "hit": false,
      "t": 170727.41500000143,
      "d": 125.00010416665464,
      "v": 57
    },
    {
      "midi": 64,
      "hit": false,
      "t": 170727.41500000143,
      "d": 125.00010416665464,
      "v": 57
    },
    {
      "midi": 68,
      "hit": false,
      "t": 170727.41500000143,
      "d": 125.00010416665464,
      "v": 57
    },
    {
      "midi": 64,
      "hit": false,
      "t": 170738.77864583634,
      "d": 102.27281250001397,
      "v": 41
    },
    {
      "midi": 76,
      "hit": false,
      "t": 170738.77864583634,
      "d": 102.27281250001397,
      "v": 41
    },
    {
      "midi": 56,
      "hit": false,
      "t": 170863.7787500014,
      "d": 125.00010416665464,
      "v": 76
    },
    {
      "midi": 61,
      "hit": false,
      "t": 170863.7787500014,
      "d": 159.0910416666593,
      "v": 30
    },
    {
      "midi": 64,
      "hit": false,
      "t": 170863.7787500014,
      "d": 159.0910416666593,
      "v": 30
    },
    {
      "midi": 68,
      "hit": false,
      "t": 170863.7787500014,
      "d": 159.0910416666593,
      "v": 30
    },
    {
      "midi": 44,
      "hit": false,
      "t": 170863.77875000142,
      "d": 125.00010416665464,
      "v": 59
    },
    {
      "midi": 49,
      "hit": false,
      "t": 170863.77875000142,
      "d": 125.00010416665464,
      "v": 59
    },
    {
      "midi": 56,
      "hit": false,
      "t": 170863.77875000142,
      "d": 125.00010416665464,
      "v": 59
    },
    {
      "midi": 61,
      "hit": false,
      "t": 170863.77875000142,
      "d": 159.0910416666593,
      "v": 44
    },
    {
      "midi": 64,
      "hit": false,
      "t": 170863.77875000142,
      "d": 159.0910416666593,
      "v": 44
    },
    {
      "midi": 68,
      "hit": false,
      "t": 170863.77875000142,
      "d": 159.0910416666593,
      "v": 44
    },
    {
      "midi": 64,
      "hit": false,
      "t": 170875.14239583636,
      "d": 102.27281250001397,
      "v": 41
    },
    {
      "midi": 76,
      "hit": false,
      "t": 170875.14239583636,
      "d": 102.27281250001397,
      "v": 41
    },
    {
      "midi": 71,
      "hit": false,
      "t": 170988.77885416703,
      "d": 136.36374999998952,
      "v": 84
    },
    {
      "midi": 64,
      "hit": false,
      "t": 171011.50614583638,
      "d": 102.27281250001397,
      "v": 76
    },
    {
      "midi": 76,
      "hit": false,
      "t": 171011.50614583638,
      "d": 102.27281250001397,
      "v": 76
    },
    {
      "midi": 73,
      "hit": false,
      "t": 171125.14260416702,
      "d": 125.00010416665464,
      "v": 84
    },
    {
      "midi": 32,
      "hit": false,
      "t": 171136.5062500001,
      "d": 125.00010416665464,
      "v": 93
    },
    {
      "midi": 61,
      "hit": false,
      "t": 171136.5062500014,
      "d": 125.00010416665464,
      "v": 30
    },
    {
      "midi": 64,
      "hit": false,
      "t": 171136.5062500014,
      "d": 125.00010416665464,
      "v": 30
    },
    {
      "midi": 68,
      "hit": false,
      "t": 171136.5062500014,
      "d": 125.00010416665464,
      "v": 30
    },
    {
      "midi": 61,
      "hit": false,
      "t": 171136.5062500014,
      "d": 125.00010416665464,
      "v": 44
    },
    {
      "midi": 64,
      "hit": false,
      "t": 171136.5062500014,
      "d": 125.00010416665464,
      "v": 44
    },
    {
      "midi": 68,
      "hit": false,
      "t": 171136.5062500014,
      "d": 125.00010416665464,
      "v": 44
    },
    {
      "midi": 64,
      "hit": false,
      "t": 171147.8698958364,
      "d": 102.27281250001397,
      "v": 41
    },
    {
      "midi": 76,
      "hit": false,
      "t": 171147.8698958364,
      "d": 102.27281250001397,
      "v": 41
    },
    {
      "midi": 73,
      "hit": false,
      "t": 171261.506354167,
      "d": 136.36375000001863,
      "v": 84
    },
    {
      "midi": 37,
      "hit": false,
      "t": 171272.87000000008,
      "d": 397.7276041666628,
      "v": 93
    },
    {
      "midi": 61,
      "hit": false,
      "t": 171272.8700000014,
      "d": 125.00010416665464,
      "v": 51
    },
    {
      "midi": 64,
      "hit": false,
      "t": 171272.8700000014,
      "d": 125.00010416665464,
      "v": 51
    },
    {
      "midi": 68,
      "hit": false,
      "t": 171272.8700000014,
      "d": 125.00010416665464,
      "v": 51
    },
    {
      "midi": 56,
      "hit": false,
      "t": 171272.8700000014,
      "d": 261.36385416664416,
      "v": 76
    },
    {
      "midi": 49,
      "hit": false,
      "t": 171272.8700000014,
      "d": 397.7276041666337,
      "v": 76
    },
    {
      "midi": 61,
      "hit": false,
      "t": 171272.8700000014,
      "d": 125.00010416665464,
      "v": 57
    },
    {
      "midi": 64,
      "hit": false,
      "t": 171272.8700000014,
      "d": 125.00010416665464,
      "v": 57
    },
    {
      "midi": 68,
      "hit": false,
      "t": 171272.8700000014,
      "d": 125.00010416665464,
      "v": 57
    },
    {
      "midi": 44,
      "hit": false,
      "t": 171272.8700000014,
      "d": 261.36385416664416,
      "v": 59
    },
    {
      "midi": 49,
      "hit": false,
      "t": 171272.8700000014,
      "d": 261.36385416664416,
      "v": 59
    },
    {
      "midi": 56,
      "hit": false,
      "t": 171272.8700000014,
      "d": 397.7276041666337,
      "v": 59
    },
    {
      "midi": 64,
      "hit": false,
      "t": 171284.23364583642,
      "d": 102.27281250001397,
      "v": 41
    },
    {
      "midi": 76,
      "hit": false,
      "t": 171284.23364583642,
      "d": 102.27281250001397,
      "v": 41
    },
    {
      "midi": 71,
      "hit": false,
      "t": 171397.87010416703,
      "d": 136.36374999998952,
      "v": 84
    },
    {
      "midi": 61,
      "hit": false,
      "t": 171409.23375000138,
      "d": 125.00010416665464,
      "v": 30
    },
    {
      "midi": 64,
      "hit": false,
      "t": 171409.23375000138,
      "d": 125.00010416665464,
      "v": 30
    },
    {
      "midi": 68,
      "hit": false,
      "t": 171409.23375000138,
      "d": 125.00010416665464,
      "v": 30
    },
    {
      "midi": 61,
      "hit": false,
      "t": 171409.23375000138,
      "d": 125.00010416665464,
      "v": 44
    },
    {
      "midi": 64,
      "hit": false,
      "t": 171409.23375000138,
      "d": 125.00010416665464,
      "v": 44
    },
    {
      "midi": 68,
      "hit": false,
      "t": 171409.23375000138,
      "d": 125.00010416665464,
      "v": 44
    },
    {
      "midi": 64,
      "hit": false,
      "t": 171420.59739583643,
      "d": 102.27281250001397,
      "v": 41
    },
    {
      "midi": 76,
      "hit": false,
      "t": 171420.59739583643,
      "d": 102.27281250001397,
      "v": 41
    },
    {
      "midi": 73,
      "hit": false,
      "t": 171534.23385416702,
      "d": 136.36374999998952,
      "v": 84
    },
    {
      "midi": 61,
      "hit": false,
      "t": 171545.59750000137,
      "d": 125.00010416665464,
      "v": 30
    },
    {
      "midi": 64,
      "hit": false,
      "t": 171545.59750000137,
      "d": 125.00010416665464,
      "v": 30
    },
    {
      "midi": 68,
      "hit": false,
      "t": 171545.59750000137,
      "d": 125.00010416665464,
      "v": 30
    },
    {
      "midi": 61,
      "hit": false,
      "t": 171545.59750000137,
      "d": 125.00010416665464,
      "v": 44
    },
    {
      "midi": 64,
      "hit": false,
      "t": 171545.59750000137,
      "d": 125.00010416665464,
      "v": 44
    },
    {
      "midi": 68,
      "hit": false,
      "t": 171545.59750000137,
      "d": 125.00010416665464,
      "v": 44
    },
    {
      "midi": 64,
      "hit": false,
      "t": 171556.96114583645,
      "d": 102.27281250001397,
      "v": 41
    },
    {
      "midi": 76,
      "hit": false,
      "t": 171556.96114583645,
      "d": 102.27281250001397,
      "v": 41
    },
    {
      "midi": 64,
      "hit": false,
      "t": 171659.23395833338,
      "d": 261.36385416667326,
      "v": 64
    },
    {
      "midi": 68,
      "hit": false,
      "t": 171659.23395833338,
      "d": 261.36385416667326,
      "v": 64
    },
    {
      "midi": 71,
      "hit": false,
      "t": 171659.23395833338,
      "d": 261.36385416667326,
      "v": 64
    },
    {
      "midi": 71,
      "hit": false,
      "t": 171670.597604167,
      "d": 125.00010416665464,
      "v": 84
    },
    {
      "midi": 32,
      "hit": false,
      "t": 171681.96125000008,
      "d": 125.00010416665464,
      "v": 93
    },
    {
      "midi": 56,
      "hit": false,
      "t": 171681.96125000136,
      "d": 261.36385416667326,
      "v": 76
    },
    {
      "midi": 61,
      "hit": false,
      "t": 171681.96125000136,
      "d": 261.36385416667326,
      "v": 51
    },
    {
      "midi": 64,
      "hit": false,
      "t": 171681.96125000136,
      "d": 261.36385416667326,
      "v": 51
    },
    {
      "midi": 68,
      "hit": false,
      "t": 171681.96125000136,
      "d": 261.36385416667326,
      "v": 51
    },
    {
      "midi": 49,
      "hit": false,
      "t": 171681.96125000136,
      "d": 534.0913541666523,
      "v": 76
    },
    {
      "midi": 44,
      "hit": false,
      "t": 171681.96125000136,
      "d": 125.00010416665464,
      "v": 59
    },
    {
      "midi": 49,
      "hit": false,
      "t": 171681.96125000136,
      "d": 125.00010416665464,
      "v": 59
    },
    {
      "midi": 56,
      "hit": false,
      "t": 171681.96125000136,
      "d": 261.36385416664416,
      "v": 59
    },
    {
      "midi": 61,
      "hit": false,
      "t": 171681.96125000136,
      "d": 261.36385416664416,
      "v": 57
    },
    {
      "midi": 64,
      "hit": false,
      "t": 171681.96125000136,
      "d": 261.36385416664416,
      "v": 57
    },
    {
      "midi": 68,
      "hit": false,
      "t": 171681.96125000136,
      "d": 261.36385416664416,
      "v": 57
    },
    {
      "midi": 64,
      "hit": false,
      "t": 171693.32489583647,
      "d": 102.27281250001397,
      "v": 41
    },
    {
      "midi": 76,
      "hit": false,
      "t": 171693.32489583647,
      "d": 102.27281250001397,
      "v": 41
    },
    {
      "midi": 71,
      "hit": false,
      "t": 171806.961354167,
      "d": 136.36374999998952,
      "v": 84
    },
    {
      "midi": 37,
      "hit": false,
      "t": 171818.32500000007,
      "d": 125.00010416665464,
      "v": 93
    },
    {
      "midi": 64,
      "hit": false,
      "t": 171829.6886458365,
      "d": 102.27281250001397,
      "v": 74
    },
    {
      "midi": 76,
      "hit": false,
      "t": 171829.6886458365,
      "d": 102.27281250001397,
      "v": 74
    },
    {
      "midi": 61,
      "hit": false,
      "t": 171931.9614583334,
      "d": 125.00010416665464,
      "v": 64
    },
    {
      "midi": 64,
      "hit": false,
      "t": 171931.9614583334,
      "d": 125.00010416665464,
      "v": 64
    },
    {
      "midi": 68,
      "hit": false,
      "t": 171931.9614583334,
      "d": 125.00010416665464,
      "v": 64
    },
    {
      "midi": 73,
      "hit": false,
      "t": 171943.325104167,
      "d": 136.36374999998952,
      "v": 84
    },
    {
      "midi": 32,
      "hit": false,
      "t": 171954.68875000006,
      "d": 261.36385416667326,
      "v": 93
    },
    {
      "midi": 61,
      "hit": false,
      "t": 171954.68875000134,
      "d": 125.00010416665464,
      "v": 44
    },
    {
      "midi": 64,
      "hit": false,
      "t": 171954.68875000134,
      "d": 125.00010416665464,
      "v": 44
    },
    {
      "midi": 68,
      "hit": false,
      "t": 171954.68875000134,
      "d": 125.00010416665464,
      "v": 44
    },
    {
      "midi": 61,
      "hit": false,
      "t": 171954.68875000137,
      "d": 125.00010416665464,
      "v": 30
    },
    {
      "midi": 64,
      "hit": false,
      "t": 171954.68875000137,
      "d": 125.00010416665464,
      "v": 30
    },
    {
      "midi": 68,
      "hit": false,
      "t": 171954.68875000137,
      "d": 125.00010416665464,
      "v": 30
    },
    {
      "midi": 64,
      "hit": false,
      "t": 171966.0523958365,
      "d": 102.27281250001397,
      "v": 47
    },
    {
      "midi": 76,
      "hit": false,
      "t": 171966.0523958365,
      "d": 102.27281250001397,
      "v": 47
    },
    {
      "midi": 63,
      "hit": false,
      "t": 172068.32520833338,
      "d": 125.00010416665464,
      "v": 64
    },
    {
      "midi": 66,
      "hit": false,
      "t": 172068.32520833338,
      "d": 125.00010416665464,
      "v": 64
    },
    {
      "midi": 69,
      "hit": false,
      "t": 172068.32520833338,
      "d": 125.00010416665464,
      "v": 64
    },
    {
      "midi": 76,
      "hit": false,
      "t": 172079.68885416698,
      "d": 136.36374999998952,
      "v": 84
    },
    {
      "midi": 61,
      "hit": false,
      "t": 172091.05250000133,
      "d": 125.00010416665464,
      "v": 57
    },
    {
      "midi": 64,
      "hit": false,
      "t": 172091.05250000133,
      "d": 125.00010416665464,
      "v": 57
    },
    {
      "midi": 68,
      "hit": false,
      "t": 172091.05250000133,
      "d": 125.00010416665464,
      "v": 57
    },
    {
      "midi": 61,
      "hit": false,
      "t": 172091.05250000136,
      "d": 125.00010416665464,
      "v": 51
    },
    {
      "midi": 64,
      "hit": false,
      "t": 172091.05250000136,
      "d": 125.00010416665464,
      "v": 51
    },
    {
      "midi": 68,
      "hit": false,
      "t": 172091.05250000136,
      "d": 125.00010416665464,
      "v": 51
    },
    {
      "midi": 64,
      "hit": false,
      "t": 172102.41614583653,
      "d": 102.27281250001397,
      "v": 47
    },
    {
      "midi": 76,
      "hit": false,
      "t": 172102.41614583653,
      "d": 102.27281250001397,
      "v": 47
    },
    {
      "midi": 64,
      "hit": false,
      "t": 172204.68895833337,
      "d": 136.36374999998952,
      "v": 64
    },
    {
      "midi": 68,
      "hit": false,
      "t": 172204.68895833337,
      "d": 261.36385416664416,
      "v": 64
    },
    {
      "midi": 71,
      "hit": false,
      "t": 172204.68895833337,
      "d": 261.36385416664416,
      "v": 64
    },
    {
      "midi": 71,
      "hit": false,
      "t": 172216.05260416697,
      "d": 136.36374999998952,
      "v": 84
    },
    {
      "midi": 44,
      "hit": false,
      "t": 172227.41625000132,
      "d": 113.63645833331975,
      "v": 59
    },
    {
      "midi": 49,
      "hit": false,
      "t": 172227.41625000132,
      "d": 113.63645833331975,
      "v": 59
    },
    {
      "midi": 61,
      "hit": false,
      "t": 172227.41625000132,
      "d": 113.63645833331975,
      "v": 44
    },
    {
      "midi": 64,
      "hit": false,
      "t": 172227.41625000132,
      "d": 113.63645833331975,
      "v": 44
    },
    {
      "midi": 68,
      "hit": false,
      "t": 172227.41625000132,
      "d": 113.63645833331975,
      "v": 44
    },
    {
      "midi": 61,
      "hit": false,
      "t": 172227.41625000135,
      "d": 113.63645833331975,
      "v": 30
    },
    {
      "midi": 64,
      "hit": false,
      "t": 172227.41625000135,
      "d": 113.63645833331975,
      "v": 30
    },
    {
      "midi": 68,
      "hit": false,
      "t": 172227.41625000135,
      "d": 113.63645833331975,
      "v": 30
    },
    {
      "midi": 64,
      "hit": false,
      "t": 172238.77989583655,
      "d": 102.27281250001397,
      "v": 47
    },
    {
      "midi": 76,
      "hit": false,
      "t": 172238.77989583655,
      "d": 102.27281250001397,
      "v": 47
    },
    {
      "midi": 64,
      "hit": false,
      "t": 172341.05270833336,
      "d": 125.00010416665464,
      "v": 64
    },
    {
      "midi": 61,
      "hit": false,
      "t": 172341.05270833336,
      "d": 261.36385416664416,
      "v": 64
    },
    {
      "midi": 69,
      "hit": false,
      "t": 172341.05270833336,
      "d": 261.36385416664416,
      "v": 64
    },
    {
      "midi": 73,
      "hit": false,
      "t": 172352.41635416695,
      "d": 136.36374999998952,
      "v": 84
    },
    {
      "midi": 33,
      "hit": false,
      "t": 172363.78000000006,
      "d": 397.7276041666628,
      "v": 93
    },
    {
      "midi": 45,
      "hit": false,
      "t": 172363.7800000013,
      "d": 261.36385416667326,
      "v": 59
    },
    {
      "midi": 52,
      "hit": false,
      "t": 172363.7800000013,
      "d": 261.36385416667326,
      "v": 59
    },
    {
      "midi": 57,
      "hit": false,
      "t": 172363.7800000013,
      "d": 261.36385416667326,
      "v": 59
    },
    {
      "midi": 61,
      "hit": false,
      "t": 172363.7800000013,
      "d": 261.36385416667326,
      "v": 65
    },
    {
      "midi": 64,
      "hit": false,
      "t": 172363.7800000013,
      "d": 261.36385416667326,
      "v": 65
    },
    {
      "midi": 69,
      "hit": false,
      "t": 172363.7800000013,
      "d": 261.36385416667326,
      "v": 65
    },
    {
      "midi": 61,
      "hit": false,
      "t": 172363.78000000134,
      "d": 261.36385416667326,
      "v": 59
    },
    {
      "midi": 64,
      "hit": false,
      "t": 172363.78000000134,
      "d": 261.36385416667326,
      "v": 59
    },
    {
      "midi": 69,
      "hit": false,
      "t": 172363.78000000134,
      "d": 261.36385416667326,
      "v": 59
    },
    {
      "midi": 76,
      "hit": false,
      "t": 172488.78010416694,
      "d": 136.36374999998952,
      "v": 84
    },
    {
      "midi": 71,
      "hit": false,
      "t": 172625.14385416693,
      "d": 136.36374999998952,
      "v": 84
    },
    {
      "midi": 45,
      "hit": false,
      "t": 172636.50750000132,
      "d": 261.36385416667326,
      "v": 59
    },
    {
      "midi": 52,
      "hit": false,
      "t": 172636.50750000132,
      "d": 261.36385416667326,
      "v": 59
    },
    {
      "midi": 57,
      "hit": false,
      "t": 172636.50750000132,
      "d": 261.36385416667326,
      "v": 59
    },
    {
      "midi": 61,
      "hit": false,
      "t": 172636.50750000132,
      "d": 261.36385416667326,
      "v": 49
    },
    {
      "midi": 64,
      "hit": false,
      "t": 172636.50750000132,
      "d": 261.36385416667326,
      "v": 49
    },
    {
      "midi": 69,
      "hit": false,
      "t": 172636.50750000132,
      "d": 261.36385416667326,
      "v": 49
    },
    {
      "midi": 57,
      "hit": false,
      "t": 172636.50750000135,
      "d": 261.36385416667326,
      "v": 76
    },
    {
      "midi": 61,
      "hit": false,
      "t": 172636.50750000135,
      "d": 261.36385416667326,
      "v": 43
    },
    {
      "midi": 64,
      "hit": false,
      "t": 172636.50750000135,
      "d": 261.36385416667326,
      "v": 43
    },
    {
      "midi": 69,
      "hit": false,
      "t": 172636.50750000135,
      "d": 261.36385416667326,
      "v": 43
    },
    {
      "midi": 45,
      "hit": false,
      "t": 172636.50750000135,
      "d": 397.7276041666628,
      "v": 76
    },
    {
      "midi": 61,
      "hit": false,
      "t": 172750.14395833333,
      "d": 261.36385416667326,
      "v": 64
    },
    {
      "midi": 64,
      "hit": false,
      "t": 172750.14395833333,
      "d": 261.36385416667326,
      "v": 64
    },
    {
      "midi": 69,
      "hit": false,
      "t": 172750.14395833333,
      "d": 261.36385416667326,
      "v": 64
    },
    {
      "midi": 73,
      "hit": false,
      "t": 172761.50760416692,
      "d": 136.36374999998952,
      "v": 84
    },
    {
      "midi": 33,
      "hit": false,
      "t": 172772.87125000005,
      "d": 125.00010416665464,
      "v": 93
    },
    {
      "midi": 76,
      "hit": false,
      "t": 172897.8713541669,
      "d": 136.36374999998952,
      "v": 84
    },
    {
      "midi": 35,
      "hit": false,
      "t": 172909.23500000004,
      "d": 397.7276041666628,
      "v": 93
    },
    {
      "midi": 61,
      "hit": false,
      "t": 172909.23500000132,
      "d": 125.00010416665464,
      "v": 65
    },
    {
      "midi": 64,
      "hit": false,
      "t": 172909.23500000132,
      "d": 125.00010416665464,
      "v": 65
    },
    {
      "midi": 69,
      "hit": false,
      "t": 172909.23500000132,
      "d": 125.00010416665464,
      "v": 65
    },
    {
      "midi": 61,
      "hit": false,
      "t": 172909.23500000135,
      "d": 125.00010416665464,
      "v": 59
    },
    {
      "midi": 64,
      "hit": false,
      "t": 172909.23500000135,
      "d": 125.00010416665464,
      "v": 59
    },
    {
      "midi": 69,
      "hit": false,
      "t": 172909.23500000135,
      "d": 125.00010416665464,
      "v": 59
    },
    {
      "midi": 71,
      "hit": false,
      "t": 173034.2351041669,
      "d": 136.36374999998952,
      "v": 84
    },
    {
      "midi": 45,
      "hit": false,
      "t": 173045.5987500013,
      "d": 125.00010416665464,
      "v": 59
    },
    {
      "midi": 52,
      "hit": false,
      "t": 173045.5987500013,
      "d": 125.00010416665464,
      "v": 59
    },
    {
      "midi": 61,
      "hit": false,
      "t": 173045.5987500013,
      "d": 125.00010416665464,
      "v": 44
    },
    {
      "midi": 69,
      "hit": false,
      "t": 173045.5987500013,
      "d": 125.00010416665464,
      "v": 44
    },
    {
      "midi": 64,
      "hit": false,
      "t": 173045.5987500013,
      "d": 147.7273958333244,
      "v": 44
    },
    {
      "midi": 57,
      "hit": false,
      "t": 173045.5987500013,
      "d": 261.36385416664416,
      "v": 59
    },
    {
      "midi": 57,
      "hit": false,
      "t": 173045.59875000134,
      "d": 125.00010416665464,
      "v": 76
    },
    {
      "midi": 61,
      "hit": false,
      "t": 173045.59875000134,
      "d": 125.00010416665464,
      "v": 30
    },
    {
      "midi": 69,
      "hit": false,
      "t": 173045.59875000134,
      "d": 125.00010416665464,
      "v": 30
    },
    {
      "midi": 64,
      "hit": false,
      "t": 173045.59875000134,
      "d": 147.7273958333244,
      "v": 30
    },
    {
      "midi": 45,
      "hit": false,
      "t": 173045.59875000134,
      "d": 261.36385416664416,
      "v": 76
    },
    {
      "midi": 73,
      "hit": false,
      "t": 173170.5988541669,
      "d": 136.36374999998952,
      "v": 84
    },
    {
      "midi": 76,
      "hit": false,
      "t": 173306.96260416688,
      "d": 136.36374999998952,
      "v": 84
    },
    {
      "midi": 35,
      "hit": false,
      "t": 173318.32625000004,
      "d": 125.00010416665464,
      "v": 93
    },
    {
      "midi": 61,
      "hit": false,
      "t": 173318.3262500013,
      "d": 125.00010416665464,
      "v": 44
    },
    {
      "midi": 64,
      "hit": false,
      "t": 173318.3262500013,
      "d": 125.00010416665464,
      "v": 44
    },
    {
      "midi": 69,
      "hit": false,
      "t": 173318.3262500013,
      "d": 125.00010416665464,
      "v": 44
    },
    {
      "midi": 61,
      "hit": false,
      "t": 173318.32625000132,
      "d": 125.00010416665464,
      "v": 30
    },
    {
      "midi": 64,
      "hit": false,
      "t": 173318.32625000132,
      "d": 125.00010416665464,
      "v": 30
    },
    {
      "midi": 69,
      "hit": false,
      "t": 173318.32625000132,
      "d": 125.00010416665464,
      "v": 30
    },
    {
      "midi": 71,
      "hit": false,
      "t": 173443.32635416687,
      "d": 136.36374999998952,
      "v": 84
    },
    {
      "midi": 37,
      "hit": false,
      "t": 173454.69000000003,
      "d": 125.00010416665464,
      "v": 93
    },
    {
      "midi": 61,
      "hit": false,
      "t": 173454.69000000128,
      "d": 125.00010416665464,
      "v": 65
    },
    {
      "midi": 64,
      "hit": false,
      "t": 173454.69000000128,
      "d": 125.00010416665464,
      "v": 65
    },
    {
      "midi": 69,
      "hit": false,
      "t": 173454.69000000128,
      "d": 125.00010416665464,
      "v": 65
    },
    {
      "midi": 45,
      "hit": false,
      "t": 173454.69000000128,
      "d": 261.36385416664416,
      "v": 59
    },
    {
      "midi": 52,
      "hit": false,
      "t": 173454.69000000128,
      "d": 261.36385416664416,
      "v": 59
    },
    {
      "midi": 57,
      "hit": false,
      "t": 173454.69000000128,
      "d": 261.36385416664416,
      "v": 59
    },
    {
      "midi": 61,
      "hit": false,
      "t": 173454.6900000013,
      "d": 125.00010416665464,
      "v": 59
    },
    {
      "midi": 64,
      "hit": false,
      "t": 173454.6900000013,
      "d": 125.00010416665464,
      "v": 59
    },
    {
      "midi": 69,
      "hit": false,
      "t": 173454.6900000013,
      "d": 125.00010416665464,
      "v": 59
    },
    {
      "midi": 57,
      "hit": false,
      "t": 173454.6900000013,
      "d": 261.36385416664416,
      "v": 76
    },
    {
      "midi": 45,
      "hit": false,
      "t": 173454.6900000013,
      "d": 670.4551041666418,
      "v": 76
    },
    {
      "midi": 73,
      "hit": false,
      "t": 173579.69010416686,
      "d": 136.36374999998952,
      "v": 84
    },
    {
      "midi": 61,
      "hit": false,
      "t": 173591.05375000127,
      "d": 125.00010416665464,
      "v": 44
    },
    {
      "midi": 64,
      "hit": false,
      "t": 173591.05375000127,
      "d": 125.00010416665464,
      "v": 44
    },
    {
      "midi": 69,
      "hit": false,
      "t": 173591.05375000127,
      "d": 125.00010416665464,
      "v": 44
    },
    {
      "midi": 61,
      "hit": false,
      "t": 173591.0537500013,
      "d": 125.00010416665464,
      "v": 30
    },
    {
      "midi": 64,
      "hit": false,
      "t": 173591.0537500013,
      "d": 125.00010416665464,
      "v": 30
    },
    {
      "midi": 69,
      "hit": false,
      "t": 173591.0537500013,
      "d": 125.00010416665464,
      "v": 30
    },
    {
      "midi": 76,
      "hit": false,
      "t": 173716.05385416685,
      "d": 136.36374999998952,
      "v": 84
    },
    {
      "midi": 37,
      "hit": false,
      "t": 173727.4175,
      "d": 261.36385416667326,
      "v": 93
    },
    {
      "midi": 61,
      "hit": false,
      "t": 173727.41750000126,
      "d": 125.00010416665464,
      "v": 44
    },
    {
      "midi": 64,
      "hit": false,
      "t": 173727.41750000126,
      "d": 125.00010416665464,
      "v": 44
    },
    {
      "midi": 69,
      "hit": false,
      "t": 173727.41750000126,
      "d": 125.00010416665464,
      "v": 44
    },
    {
      "midi": 61,
      "hit": false,
      "t": 173727.4175000013,
      "d": 125.00010416665464,
      "v": 30
    },
    {
      "midi": 64,
      "hit": false,
      "t": 173727.4175000013,
      "d": 125.00010416665464,
      "v": 30
    },
    {
      "midi": 69,
      "hit": false,
      "t": 173727.4175000013,
      "d": 125.00010416665464,
      "v": 30
    },
    {
      "midi": 71,
      "hit": false,
      "t": 173852.41760416684,
      "d": 136.36374999998952,
      "v": 84
    },
    {
      "midi": 45,
      "hit": false,
      "t": 173863.78125000125,
      "d": 125.00010416665464,
      "v": 59
    },
    {
      "midi": 52,
      "hit": false,
      "t": 173863.78125000125,
      "d": 125.00010416665464,
      "v": 59
    },
    {
      "midi": 57,
      "hit": false,
      "t": 173863.78125000125,
      "d": 261.36385416664416,
      "v": 59
    },
    {
      "midi": 61,
      "hit": false,
      "t": 173863.78125000125,
      "d": 261.36385416664416,
      "v": 61
    },
    {
      "midi": 64,
      "hit": false,
      "t": 173863.78125000125,
      "d": 261.36385416664416,
      "v": 61
    },
    {
      "midi": 69,
      "hit": false,
      "t": 173863.78125000125,
      "d": 261.36385416664416,
      "v": 61
    },
    {
      "midi": 57,
      "hit": false,
      "t": 173863.78125000128,
      "d": 261.36385416667326,
      "v": 76
    },
    {
      "midi": 61,
      "hit": false,
      "t": 173863.78125000128,
      "d": 261.36385416667326,
      "v": 55
    },
    {
      "midi": 64,
      "hit": false,
      "t": 173863.78125000128,
      "d": 261.36385416667326,
      "v": 55
    },
    {
      "midi": 69,
      "hit": false,
      "t": 173863.78125000128,
      "d": 261.36385416667326,
      "v": 55
    },
    {
      "midi": 61,
      "hit": false,
      "t": 173977.41770833332,
      "d": 261.36385416667326,
      "v": 64
    },
    {
      "midi": 69,
      "hit": false,
      "t": 173977.41770833332,
      "d": 261.36385416667326,
      "v": 64
    },
    {
      "midi": 73,
      "hit": false,
      "t": 173988.78135416683,
      "d": 136.36374999998952,
      "v": 84
    },
    {
      "midi": 39,
      "hit": false,
      "t": 174000.14500000002,
      "d": 261.36385416667326,
      "v": 93
    },
    {
      "midi": 76,
      "hit": false,
      "t": 174125.14510416682,
      "d": 125.00010416665464,
      "v": 84
    },
    {
      "midi": 61,
      "hit": false,
      "t": 174136.50875000123,
      "d": 125.00010416665464,
      "v": 44
    },
    {
      "midi": 64,
      "hit": false,
      "t": 174136.50875000123,
      "d": 125.00010416665464,
      "v": 44
    },
    {
      "midi": 69,
      "hit": false,
      "t": 174136.50875000123,
      "d": 125.00010416665464,
      "v": 44
    },
    {
      "midi": 61,
      "hit": false,
      "t": 174136.5087500013,
      "d": 125.00010416665464,
      "v": 30
    },
    {
      "midi": 64,
      "hit": false,
      "t": 174136.5087500013,
      "d": 125.00010416665464,
      "v": 30
    },
    {
      "midi": 69,
      "hit": false,
      "t": 174136.5087500013,
      "d": 125.00010416665464,
      "v": 30
    },
    {
      "midi": 61,
      "hit": false,
      "t": 174250.14520833333,
      "d": 68.18187500000931,
      "v": 64
    },
    {
      "midi": 64,
      "hit": false,
      "t": 174250.14520833333,
      "d": 125.00010416668374,
      "v": 64
    },
    {
      "midi": 69,
      "hit": false,
      "t": 174250.14520833333,
      "d": 125.00010416668374,
      "v": 64
    },
    {
      "midi": 78,
      "hit": false,
      "t": 174261.5088541668,
      "d": 534.0913541666523,
      "v": 84
    },
    {
      "midi": 40,
      "hit": false,
      "t": 174272.87250000003,
      "d": 125.00010416665464,
      "v": 93
    },
    {
      "midi": 61,
      "hit": false,
      "t": 174272.87250000122,
      "d": 125.00010416665464,
      "v": 61
    },
    {
      "midi": 64,
      "hit": false,
      "t": 174272.87250000122,
      "d": 125.00010416665464,
      "v": 61
    },
    {
      "midi": 69,
      "hit": false,
      "t": 174272.87250000122,
      "d": 125.00010416665464,
      "v": 61
    },
    {
      "midi": 61,
      "hit": false,
      "t": 174272.87250000128,
      "d": 125.00010416665464,
      "v": 55
    },
    {
      "midi": 64,
      "hit": false,
      "t": 174272.87250000128,
      "d": 125.00010416665464,
      "v": 55
    },
    {
      "midi": 69,
      "hit": false,
      "t": 174272.87250000128,
      "d": 125.00010416665464,
      "v": 55
    },
    {
      "midi": 66,
      "hit": false,
      "t": 174386.50895833335,
      "d": 1897.728854166664,
      "v": 64
    },
    {
      "midi": 58,
      "hit": false,
      "t": 174386.50895833335,
      "d": 2170.456354166643,
      "v": 64
    },
    {
      "midi": 70,
      "hit": false,
      "t": 174386.50895833335,
      "d": 2306.8201041666325,
      "v": 64
    },
    {
      "midi": 61,
      "hit": false,
      "t": 174386.50895833335,
      "d": 4500.003749999974,
      "v": 64
    },
    {
      "midi": 64,
      "hit": false,
      "t": 174409.2362500012,
      "d": 113.63645833331975,
      "v": 44
    },
    {
      "midi": 69,
      "hit": false,
      "t": 174409.2362500012,
      "d": 113.63645833331975,
      "v": 44
    },
    {
      "midi": 61,
      "hit": false,
      "t": 174409.2362500012,
      "d": 136.36374999998952,
      "v": 44
    },
    {
      "midi": 64,
      "hit": false,
      "t": 174409.23625000127,
      "d": 113.63645833331975,
      "v": 30
    },
    {
      "midi": 69,
      "hit": false,
      "t": 174409.23625000127,
      "d": 113.63645833331975,
      "v": 30
    },
    {
      "midi": 61,
      "hit": false,
      "t": 174409.23625000127,
      "d": 136.36374999998952,
      "v": 30
    },
    {
      "midi": 42,
      "hit": false,
      "t": 174545.6,
      "d": 397.7276041666628,
      "v": 93
    },
    {
      "midi": 61,
      "hit": false,
      "t": 174545.6000000012,
      "d": 11.363645833334886,
      "v": 47
    },
    {
      "midi": 66,
      "hit": false,
      "t": 174545.6000000012,
      "d": 261.36385416667326,
      "v": 47
    },
    {
      "midi": 70,
      "hit": false,
      "t": 174545.6000000012,
      "d": 261.36385416667326,
      "v": 47
    },
    {
      "midi": 61,
      "hit": false,
      "t": 174545.60000000126,
      "d": 11.363645833334886,
      "v": 41
    },
    {
      "midi": 66,
      "hit": false,
      "t": 174545.60000000126,
      "d": 261.36385416667326,
      "v": 41
    },
    {
      "midi": 70,
      "hit": false,
      "t": 174545.60000000126,
      "d": 261.36385416667326,
      "v": 41
    },
    {
      "midi": 64,
      "hit": false,
      "t": 174556.96364583657,
      "d": 102.27281250001397,
      "v": 76
    },
    {
      "midi": 76,
      "hit": false,
      "t": 174556.96364583657,
      "d": 102.27281250001397,
      "v": 76
    },
    {
      "midi": 64,
      "hit": false,
      "t": 174693.3273958366,
      "d": 102.27281250001397,
      "v": 41
    },
    {
      "midi": 76,
      "hit": false,
      "t": 174693.3273958366,
      "d": 102.27281250001397,
      "v": 41
    },
    {
      "midi": 80,
      "hit": false,
      "t": 174806.9638541668,
      "d": 397.7276041666628,
      "v": 84
    },
    {
      "midi": 54,
      "hit": false,
      "t": 174818.3275000012,
      "d": 261.36385416667326,
      "v": 59
    },
    {
      "midi": 58,
      "hit": false,
      "t": 174818.3275000012,
      "d": 261.36385416667326,
      "v": 59
    },
    {
      "midi": 61,
      "hit": false,
      "t": 174818.3275000012,
      "d": 261.36385416667326,
      "v": 53
    },
    {
      "midi": 66,
      "hit": false,
      "t": 174818.3275000012,
      "d": 261.36385416667326,
      "v": 53
    },
    {
      "midi": 70,
      "hit": false,
      "t": 174818.3275000012,
      "d": 261.36385416667326,
      "v": 53
    },
    {
      "midi": 64,
      "hit": false,
      "t": 174818.3275000012,
      "d": 397.7276041666628,
      "v": 59
    },
    {
      "midi": 58,
      "hit": false,
      "t": 174818.32750000127,
      "d": 261.36385416667326,
      "v": 76
    },
    {
      "midi": 61,
      "hit": false,
      "t": 174818.32750000127,
      "d": 261.36385416667326,
      "v": 47
    },
    {
      "midi": 66,
      "hit": false,
      "t": 174818.32750000127,
      "d": 261.36385416667326,
      "v": 47
    },
    {
      "midi": 70,
      "hit": false,
      "t": 174818.32750000127,
      "d": 261.36385416667326,
      "v": 47
    },
    {
      "midi": 64,
      "hit": false,
      "t": 174829.6911458366,
      "d": 102.27281250001397,
      "v": 41
    },
    {
      "midi": 76,
      "hit": false,
      "t": 174829.6911458366,
      "d": 102.27281250001397,
      "v": 41
    },
    {
      "midi": 42,
      "hit": false,
      "t": 174954.69125,
      "d": 125.00010416665464,
      "v": 93
    },
    {
      "midi": 64,
      "hit": false,
      "t": 174966.05489583663,
      "d": 102.27281250001397,
      "v": 41
    },
    {
      "midi": 76,
      "hit": false,
      "t": 174966.05489583663,
      "d": 102.27281250001397,
      "v": 41
    },
    {
      "midi": 78,
      "hit": false,
      "t": 175079.6913541668,
      "d": 534.0913541666523,
      "v": 84
    },
    {
      "midi": 37,
      "hit": false,
      "t": 175091.055,
      "d": 261.36385416667326,
      "v": 93
    },
    {
      "midi": 61,
      "hit": false,
      "t": 175091.05500000122,
      "d": 125.00010416665464,
      "v": 57
    },
    {
      "midi": 66,
      "hit": false,
      "t": 175091.05500000122,
      "d": 125.00010416665464,
      "v": 57
    },
    {
      "midi": 70,
      "hit": false,
      "t": 175091.05500000122,
      "d": 125.00010416665464,
      "v": 57
    },
    {
      "midi": 61,
      "hit": false,
      "t": 175091.05500000127,
      "d": 125.00010416665464,
      "v": 51
    },
    {
      "midi": 66,
      "hit": false,
      "t": 175091.05500000127,
      "d": 125.00010416665464,
      "v": 51
    },
    {
      "midi": 70,
      "hit": false,
      "t": 175091.05500000127,
      "d": 125.00010416665464,
      "v": 51
    },
    {
      "midi": 64,
      "hit": false,
      "t": 175102.41864583665,
      "d": 102.27281250001397,
      "v": 41
    },
    {
      "midi": 76,
      "hit": false,
      "t": 175102.41864583665,
      "d": 102.27281250001397,
      "v": 41
    },
    {
      "midi": 61,
      "hit": false,
      "t": 175227.4187500012,
      "d": 159.0910416666593,
      "v": 44
    },
    {
      "midi": 66,
      "hit": false,
      "t": 175227.4187500012,
      "d": 159.0910416666593,
      "v": 44
    },
    {
      "midi": 70,
      "hit": false,
      "t": 175227.4187500012,
      "d": 159.0910416666593,
      "v": 44
    },
    {
      "midi": 54,
      "hit": false,
      "t": 175227.4187500012,
      "d": 261.36385416667326,
      "v": 59
    },
    {
      "midi": 58,
      "hit": false,
      "t": 175227.4187500012,
      "d": 261.36385416667326,
      "v": 59
    },
    {
      "midi": 64,
      "hit": false,
      "t": 175227.4187500012,
      "d": 397.7276041666628,
      "v": 59
    },
    {
      "midi": 58,
      "hit": false,
      "t": 175227.41875000126,
      "d": 125.00010416665464,
      "v": 76
    },
    {
      "midi": 61,
      "hit": false,
      "t": 175227.41875000126,
      "d": 159.0910416666593,
      "v": 30
    },
    {
      "midi": 66,
      "hit": false,
      "t": 175227.41875000126,
      "d": 159.0910416666593,
      "v": 30
    },
    {
      "midi": 70,
      "hit": false,
      "t": 175227.41875000126,
      "d": 159.0910416666593,
      "v": 30
    },
    {
      "midi": 64,
      "hit": false,
      "t": 175238.78239583666,
      "d": 102.27281250001397,
      "v": 41
    },
    {
      "midi": 76,
      "hit": false,
      "t": 175238.78239583666,
      "d": 102.27281250001397,
      "v": 41
    },
    {
      "midi": 64,
      "hit": false,
      "t": 175375.14614583668,
      "d": 102.27281250001397,
      "v": 76
    },
    {
      "midi": 76,
      "hit": false,
      "t": 175375.14614583668,
      "d": 102.27281250001397,
      "v": 76
    },
    {
      "midi": 37,
      "hit": false,
      "t": 175500.14625,
      "d": 125.00010416665464,
      "v": 93
    },
    {
      "midi": 61,
      "hit": false,
      "t": 175500.1462500012,
      "d": 125.00010416665464,
      "v": 44
    },
    {
      "midi": 66,
      "hit": false,
      "t": 175500.1462500012,
      "d": 125.00010416665464,
      "v": 44
    },
    {
      "midi": 70,
      "hit": false,
      "t": 175500.1462500012,
      "d": 125.00010416665464,
      "v": 44
    },
    {
      "midi": 61,
      "hit": false,
      "t": 175500.14625000124,
      "d": 125.00010416665464,
      "v": 30
    },
    {
      "midi": 66,
      "hit": false,
      "t": 175500.14625000124,
      "d": 125.00010416665464,
      "v": 30
    },
    {
      "midi": 70,
      "hit": false,
      "t": 175500.14625000124,
      "d": 125.00010416665464,
      "v": 30
    },
    {
      "midi": 64,
      "hit": false,
      "t": 175511.5098958367,
      "d": 102.27281250001397,
      "v": 41
    },
    {
      "midi": 76,
      "hit": false,
      "t": 175511.5098958367,
      "d": 102.27281250001397,
      "v": 41
    },
    {
      "midi": 76,
      "hit": false,
      "t": 175625.1463541668,
      "d": 397.7276041666628,
      "v": 84
    },
    {
      "midi": 42,
      "hit": false,
      "t": 175636.50999999998,
      "d": 397.7276041666628,
      "v": 93
    },
    {
      "midi": 61,
      "hit": false,
      "t": 175636.5100000012,
      "d": 125.00010416665464,
      "v": 57
    },
    {
      "midi": 66,
      "hit": false,
      "t": 175636.5100000012,
      "d": 125.00010416665464,
      "v": 57
    },
    {
      "midi": 70,
      "hit": false,
      "t": 175636.5100000012,
      "d": 125.00010416665464,
      "v": 57
    },
    {
      "midi": 58,
      "hit": false,
      "t": 175636.5100000012,
      "d": 261.36385416664416,
      "v": 59
    },
    {
      "midi": 54,
      "hit": false,
      "t": 175636.5100000012,
      "d": 397.7276041666337,
      "v": 59
    },
    {
      "midi": 64,
      "hit": false,
      "t": 175636.5100000012,
      "d": 397.7276041666337,
      "v": 59
    },
    {
      "midi": 61,
      "hit": false,
      "t": 175636.51000000123,
      "d": 125.00010416665464,
      "v": 51
    },
    {
      "midi": 66,
      "hit": false,
      "t": 175636.51000000123,
      "d": 125.00010416665464,
      "v": 51
    },
    {
      "midi": 70,
      "hit": false,
      "t": 175636.51000000123,
      "d": 125.00010416665464,
      "v": 51
    },
    {
      "midi": 58,
      "hit": false,
      "t": 175636.51000000123,
      "d": 261.36385416664416,
      "v": 76
    },
    {
      "midi": 64,
      "hit": false,
      "t": 175647.87364583672,
      "d": 102.27281250001397,
      "v": 41
    },
    {
      "midi": 76,
      "hit": false,
      "t": 175647.87364583672,
      "d": 102.27281250001397,
      "v": 41
    },
    {
      "midi": 61,
      "hit": false,
      "t": 175772.8737500012,
      "d": 125.00010416665464,
      "v": 44
    },
    {
      "midi": 66,
      "hit": false,
      "t": 175772.8737500012,
      "d": 125.00010416665464,
      "v": 44
    },
    {
      "midi": 70,
      "hit": false,
      "t": 175772.8737500012,
      "d": 125.00010416665464,
      "v": 44
    },
    {
      "midi": 61,
      "hit": false,
      "t": 175772.87375000122,
      "d": 125.00010416665464,
      "v": 30
    },
    {
      "midi": 66,
      "hit": false,
      "t": 175772.87375000122,
      "d": 125.00010416665464,
      "v": 30
    },
    {
      "midi": 70,
      "hit": false,
      "t": 175772.87375000122,
      "d": 125.00010416665464,
      "v": 30
    },
    {
      "midi": 64,
      "hit": false,
      "t": 175784.23739583674,
      "d": 102.27281250001397,
      "v": 41
    },
    {
      "midi": 76,
      "hit": false,
      "t": 175784.23739583674,
      "d": 102.27281250001397,
      "v": 41
    },
    {
      "midi": 61,
      "hit": false,
      "t": 175909.23750000118,
      "d": 125.00010416665464,
      "v": 44
    },
    {
      "midi": 66,
      "hit": false,
      "t": 175909.23750000118,
      "d": 125.00010416665464,
      "v": 44
    },
    {
      "midi": 70,
      "hit": false,
      "t": 175909.23750000118,
      "d": 125.00010416665464,
      "v": 44
    },
    {
      "midi": 61,
      "hit": false,
      "t": 175909.2375000012,
      "d": 125.00010416665464,
      "v": 30
    },
    {
      "midi": 66,
      "hit": false,
      "t": 175909.2375000012,
      "d": 125.00010416665464,
      "v": 30
    },
    {
      "midi": 70,
      "hit": false,
      "t": 175909.2375000012,
      "d": 125.00010416665464,
      "v": 30
    },
    {
      "midi": 64,
      "hit": false,
      "t": 175920.60114583676,
      "d": 102.27281250001397,
      "v": 41
    },
    {
      "midi": 76,
      "hit": false,
      "t": 175920.60114583676,
      "d": 102.27281250001397,
      "v": 41
    },
    {
      "midi": 73,
      "hit": false,
      "t": 176034.2376041668,
      "d": 272.72750000000815,
      "v": 84
    },
    {
      "midi": 37,
      "hit": false,
      "t": 176045.60124999998,
      "d": 125.00010416665464,
      "v": 93
    },
    {
      "midi": 52,
      "hit": false,
      "t": 176045.60125000117,
      "d": 261.36385416667326,
      "v": 59
    },
    {
      "midi": 58,
      "hit": false,
      "t": 176045.60125000117,
      "d": 261.36385416667326,
      "v": 59
    },
    {
      "midi": 61,
      "hit": false,
      "t": 176045.60125000117,
      "d": 261.36385416667326,
      "v": 57
    },
    {
      "midi": 64,
      "hit": false,
      "t": 176045.60125000117,
      "d": 261.36385416667326,
      "v": 59
    },
    {
      "midi": 66,
      "hit": false,
      "t": 176045.60125000117,
      "d": 261.36385416667326,
      "v": 57
    },
    {
      "midi": 70,
      "hit": false,
      "t": 176045.60125000117,
      "d": 261.36385416667326,
      "v": 57
    },
    {
      "midi": 58,
      "hit": false,
      "t": 176045.6012500012,
      "d": 261.36385416667326,
      "v": 76
    },
    {
      "midi": 61,
      "hit": false,
      "t": 176045.6012500012,
      "d": 261.36385416667326,
      "v": 51
    },
    {
      "midi": 66,
      "hit": false,
      "t": 176045.6012500012,
      "d": 261.36385416667326,
      "v": 51
    },
    {
      "midi": 70,
      "hit": false,
      "t": 176045.6012500012,
      "d": 261.36385416667326,
      "v": 51
    },
    {
      "midi": 64,
      "hit": false,
      "t": 176056.96489583678,
      "d": 102.27281250001397,
      "v": 41
    },
    {
      "midi": 76,
      "hit": false,
      "t": 176056.96489583678,
      "d": 102.27281250001397,
      "v": 41
    },
    {
      "midi": 42,
      "hit": false,
      "t": 176181.96499999997,
      "d": 125.00010416665464,
      "v": 93
    },
    {
      "midi": 64,
      "hit": false,
      "t": 176193.3286458368,
      "d": 102.27281250001397,
      "v": 74
    },
    {
      "midi": 76,
      "hit": false,
      "t": 176193.3286458368,
      "d": 102.27281250001397,
      "v": 74
    },
    {
      "midi": 68,
      "hit": false,
      "t": 176295.60145833335,
      "d": 125.00010416665464,
      "v": 64
    },
    {
      "midi": 76,
      "hit": false,
      "t": 176306.9651041668,
      "d": 125.00010416665464,
      "v": 84
    },
    {
      "midi": 37,
      "hit": false,
      "t": 176318.32874999996,
      "d": 125.00010416665464,
      "v": 93
    },
    {
      "midi": 54,
      "hit": false,
      "t": 176318.32875000118,
      "d": 125.00010416665464,
      "v": 59
    },
    {
      "midi": 61,
      "hit": false,
      "t": 176318.32875000118,
      "d": 125.00010416665464,
      "v": 44
    },
    {
      "midi": 66,
      "hit": false,
      "t": 176318.32875000118,
      "d": 125.00010416665464,
      "v": 44
    },
    {
      "midi": 70,
      "hit": false,
      "t": 176318.32875000118,
      "d": 125.00010416665464,
      "v": 44
    },
    {
      "midi": 61,
      "hit": false,
      "t": 176318.3287500012,
      "d": 125.00010416665464,
      "v": 30
    },
    {
      "midi": 66,
      "hit": false,
      "t": 176318.3287500012,
      "d": 125.00010416665464,
      "v": 30
    },
    {
      "midi": 70,
      "hit": false,
      "t": 176318.3287500012,
      "d": 125.00010416665464,
      "v": 30
    },
    {
      "midi": 64,
      "hit": false,
      "t": 176329.6923958368,
      "d": 102.27281250001397,
      "v": 47
    },
    {
      "midi": 76,
      "hit": false,
      "t": 176329.6923958368,
      "d": 102.27281250001397,
      "v": 47
    },
    {
      "midi": 66,
      "hit": false,
      "t": 176431.96520833333,
      "d": 125.00010416665464,
      "v": 64
    },
    {
      "midi": 76,
      "hit": false,
      "t": 176443.3288541668,
      "d": 125.00010416665464,
      "v": 84
    },
    {
      "midi": 44,
      "hit": false,
      "t": 176454.69249999995,
      "d": 125.00010416665464,
      "v": 93
    },
    {
      "midi": 52,
      "hit": false,
      "t": 176454.69250000117,
      "d": 125.00010416665464,
      "v": 59
    },
    {
      "midi": 58,
      "hit": false,
      "t": 176454.69250000117,
      "d": 125.00010416665464,
      "v": 59
    },
    {
      "midi": 61,
      "hit": false,
      "t": 176454.69250000117,
      "d": 125.00010416665464,
      "v": 57
    },
    {
      "midi": 64,
      "hit": false,
      "t": 176454.69250000117,
      "d": 125.00010416665464,
      "v": 59
    },
    {
      "midi": 66,
      "hit": false,
      "t": 176454.69250000117,
      "d": 125.00010416665464,
      "v": 57
    },
    {
      "midi": 70,
      "hit": false,
      "t": 176454.69250000117,
      "d": 125.00010416665464,
      "v": 57
    },
    {
      "midi": 58,
      "hit": false,
      "t": 176454.6925000012,
      "d": 125.00010416665464,
      "v": 76
    },
    {
      "midi": 61,
      "hit": false,
      "t": 176454.6925000012,
      "d": 125.00010416665464,
      "v": 51
    },
    {
      "midi": 66,
      "hit": false,
      "t": 176454.6925000012,
      "d": 125.00010416665464,
      "v": 51
    },
    {
      "midi": 70,
      "hit": false,
      "t": 176454.6925000012,
      "d": 125.00010416665464,
      "v": 51
    },
    {
      "midi": 64,
      "hit": false,
      "t": 176466.05614583683,
      "d": 102.27281250001397,
      "v": 47
    },
    {
      "midi": 76,
      "hit": false,
      "t": 176466.05614583683,
      "d": 102.27281250001397,
      "v": 47
    },
    {
      "midi": 57,
      "hit": false,
      "t": 176568.32895833332,
      "d": 2295.4564583333267,
      "v": 64
    },
    {
      "midi": 64,
      "hit": false,
      "t": 176568.32895833332,
      "d": 2318.1837499999965,
      "v": 64
    },
    {
      "midi": 61,
      "hit": false,
      "t": 176591.05625000116,
      "d": 125.00010416665464,
      "v": 44
    },
    {
      "midi": 66,
      "hit": false,
      "t": 176591.05625000116,
      "d": 125.00010416665464,
      "v": 44
    },
    {
      "midi": 70,
      "hit": false,
      "t": 176591.05625000116,
      "d": 125.00010416665464,
      "v": 44
    },
    {
      "midi": 61,
      "hit": false,
      "t": 176591.0562500012,
      "d": 125.00010416665464,
      "v": 30
    },
    {
      "midi": 66,
      "hit": false,
      "t": 176591.0562500012,
      "d": 125.00010416665464,
      "v": 30
    },
    {
      "midi": 70,
      "hit": false,
      "t": 176591.0562500012,
      "d": 125.00010416665464,
      "v": 30
    },
    {
      "midi": 64,
      "hit": false,
      "t": 176602.41989583685,
      "d": 102.27281250001397,
      "v": 47
    },
    {
      "midi": 76,
      "hit": false,
      "t": 176602.41989583685,
      "d": 102.27281250001397,
      "v": 47
    },
    {
      "midi": 69,
      "hit": false,
      "t": 176704.6927083333,
      "d": 2159.092708333337,
      "v": 64
    },
    {
      "midi": 80,
      "hit": false,
      "t": 176716.05635416677,
      "d": 806.8188541666896,
      "v": 84
    },
    {
      "midi": 45,
      "hit": false,
      "t": 176727.41999999993,
      "d": 261.36385416667326,
      "v": 93
    },
    {
      "midi": 45,
      "hit": false,
      "t": 176727.42000000115,
      "d": 125.00010416665464,
      "v": 44
    },
    {
      "midi": 45,
      "hit": false,
      "t": 176727.42000000118,
      "d": 125.00010416665464,
      "v": 30
    },
    {
      "midi": 64,
      "hit": false,
      "t": 176738.78364583687,
      "d": 102.27281250001397,
      "v": 76
    },
    {
      "midi": 76,
      "hit": false,
      "t": 176738.78364583687,
      "d": 102.27281250001397,
      "v": 76
    },
    {
      "midi": 52,
      "hit": false,
      "t": 176863.78375000114,
      "d": 125.00010416665464,
      "v": 44
    },
    {
      "midi": 52,
      "hit": false,
      "t": 176863.78375000117,
      "d": 125.00010416665464,
      "v": 30
    },
    {
      "midi": 64,
      "hit": false,
      "t": 176875.1473958369,
      "d": 102.27281250001397,
      "v": 41
    },
    {
      "midi": 76,
      "hit": false,
      "t": 176875.1473958369,
      "d": 102.27281250001397,
      "v": 41
    },
    {
      "midi": 52,
      "hit": false,
      "t": 177000.14750000113,
      "d": 261.36385416667326,
      "v": 59
    },
    {
      "midi": 57,
      "hit": false,
      "t": 177000.14750000113,
      "d": 261.36385416667326,
      "v": 61
    },
    {
      "midi": 61,
      "hit": false,
      "t": 177000.14750000113,
      "d": 261.36385416667326,
      "v": 61
    },
    {
      "midi": 64,
      "hit": false,
      "t": 177000.14750000113,
      "d": 261.36385416667326,
      "v": 61
    },
    {
      "midi": 69,
      "hit": false,
      "t": 177000.14750000113,
      "d": 261.36385416667326,
      "v": 61
    },
    {
      "midi": 52,
      "hit": false,
      "t": 177000.14750000116,
      "d": 261.36385416667326,
      "v": 76
    },
    {
      "midi": 57,
      "hit": false,
      "t": 177000.14750000116,
      "d": 261.36385416667326,
      "v": 55
    },
    {
      "midi": 61,
      "hit": false,
      "t": 177000.14750000116,
      "d": 261.36385416667326,
      "v": 55
    },
    {
      "midi": 64,
      "hit": false,
      "t": 177000.14750000116,
      "d": 261.36385416667326,
      "v": 55
    },
    {
      "midi": 69,
      "hit": false,
      "t": 177000.14750000116,
      "d": 261.36385416667326,
      "v": 55
    },
    {
      "midi": 64,
      "hit": false,
      "t": 177011.5111458369,
      "d": 102.27281250001397,
      "v": 41
    },
    {
      "midi": 76,
      "hit": false,
      "t": 177011.5111458369,
      "d": 102.27281250001397,
      "v": 41
    },
    {
      "midi": 45,
      "hit": false,
      "t": 177136.51124999992,
      "d": 125.00010416665464,
      "v": 93
    },
    {
      "midi": 64,
      "hit": false,
      "t": 177147.87489583693,
      "d": 102.27281250001397,
      "v": 41
    },
    {
      "midi": 76,
      "hit": false,
      "t": 177147.87489583693,
      "d": 102.27281250001397,
      "v": 41
    },
    {
      "midi": 44,
      "hit": false,
      "t": 177272.8749999999,
      "d": 261.36385416667326,
      "v": 93
    },
    {
      "midi": 64,
      "hit": false,
      "t": 177272.87500000114,
      "d": 125.00010416665464,
      "v": 44
    },
    {
      "midi": 69,
      "hit": false,
      "t": 177272.87500000114,
      "d": 125.00010416665464,
      "v": 44
    },
    {
      "midi": 64,
      "hit": false,
      "t": 177272.87500000116,
      "d": 125.00010416665464,
      "v": 30
    },
    {
      "midi": 69,
      "hit": false,
      "t": 177272.87500000116,
      "d": 125.00010416665464,
      "v": 30
    },
    {
      "midi": 64,
      "hit": false,
      "t": 177284.23864583694,
      "d": 102.27281250001397,
      "v": 41
    },
    {
      "midi": 76,
      "hit": false,
      "t": 177284.23864583694,
      "d": 102.27281250001397,
      "v": 41
    },
    {
      "midi": 52,
      "hit": false,
      "t": 177409.23875000112,
      "d": 125.00010416665464,
      "v": 59
    },
    {
      "midi": 56,
      "hit": false,
      "t": 177409.23875000112,
      "d": 125.00010416665464,
      "v": 61
    },
    {
      "midi": 59,
      "hit": false,
      "t": 177409.23875000112,
      "d": 125.00010416665464,
      "v": 61
    },
    {
      "midi": 64,
      "hit": false,
      "t": 177409.23875000112,
      "d": 125.00010416665464,
      "v": 61
    },
    {
      "midi": 69,
      "hit": false,
      "t": 177409.23875000112,
      "d": 125.00010416665464,
      "v": 61
    },
    {
      "midi": 56,
      "hit": false,
      "t": 177409.23875000115,
      "d": 125.00010416665464,
      "v": 55
    },
    {
      "midi": 59,
      "hit": false,
      "t": 177409.23875000115,
      "d": 125.00010416665464,
      "v": 55
    },
    {
      "midi": 64,
      "hit": false,
      "t": 177409.23875000115,
      "d": 125.00010416665464,
      "v": 55
    },
    {
      "midi": 69,
      "hit": false,
      "t": 177409.23875000115,
      "d": 125.00010416665464,
      "v": 55
    },
    {
      "midi": 52,
      "hit": false,
      "t": 177409.23875000115,
      "d": 261.36385416664416,
      "v": 76
    },
    {
      "midi": 64,
      "hit": false,
      "t": 177420.60239583696,
      "d": 102.27281250001397,
      "v": 41
    },
    {
      "midi": 76,
      "hit": false,
      "t": 177420.60239583696,
      "d": 102.27281250001397,
      "v": 41
    },
    {
      "midi": 80,
      "hit": false,
      "t": 177534.2388541668,
      "d": 806.8188541666896,
      "v": 84
    },
    {
      "midi": 64,
      "hit": false,
      "t": 177556.96614583698,
      "d": 102.27281250001397,
      "v": 76
    },
    {
      "midi": 76,
      "hit": false,
      "t": 177556.96614583698,
      "d": 102.27281250001397,
      "v": 76
    },
    {
      "midi": 44,
      "hit": false,
      "t": 177681.9662499999,
      "d": 68.18187500000931,
      "v": 93
    },
    {
      "midi": 61,
      "hit": false,
      "t": 177681.9662500011,
      "d": 125.00010416665464,
      "v": 61
    },
    {
      "midi": 64,
      "hit": false,
      "t": 177681.9662500011,
      "d": 125.00010416665464,
      "v": 61
    },
    {
      "midi": 69,
      "hit": false,
      "t": 177681.9662500011,
      "d": 125.00010416665464,
      "v": 61
    },
    {
      "midi": 61,
      "hit": false,
      "t": 177681.96625000113,
      "d": 125.00010416665464,
      "v": 55
    },
    {
      "midi": 64,
      "hit": false,
      "t": 177681.96625000113,
      "d": 125.00010416665464,
      "v": 55
    },
    {
      "midi": 69,
      "hit": false,
      "t": 177681.96625000113,
      "d": 125.00010416665464,
      "v": 55
    },
    {
      "midi": 64,
      "hit": false,
      "t": 177693.329895837,
      "d": 102.27281250001397,
      "v": 41
    },
    {
      "midi": 76,
      "hit": false,
      "t": 177693.329895837,
      "d": 102.27281250001397,
      "v": 41
    },
    {
      "midi": 42,
      "hit": false,
      "t": 177818.32999999993,
      "d": 261.36385416667326,
      "v": 93
    },
    {
      "midi": 54,
      "hit": false,
      "t": 177818.3300000011,
      "d": 261.36385416667326,
      "v": 44
    },
    {
      "midi": 59,
      "hit": false,
      "t": 177818.3300000011,
      "d": 261.36385416667326,
      "v": 44
    },
    {
      "midi": 64,
      "hit": false,
      "t": 177818.3300000011,
      "d": 261.36385416667326,
      "v": 44
    },
    {
      "midi": 69,
      "hit": false,
      "t": 177818.3300000011,
      "d": 261.36385416667326,
      "v": 44
    },
    {
      "midi": 52,
      "hit": false,
      "t": 177818.3300000011,
      "d": 272.72750000000815,
      "v": 59
    },
    {
      "midi": 52,
      "hit": false,
      "t": 177818.33000000112,
      "d": 261.36385416667326,
      "v": 76
    },
    {
      "midi": 54,
      "hit": false,
      "t": 177818.33000000112,
      "d": 261.36385416667326,
      "v": 30
    },
    {
      "midi": 59,
      "hit": false,
      "t": 177818.33000000112,
      "d": 261.36385416667326,
      "v": 30
    },
    {
      "midi": 64,
      "hit": false,
      "t": 177818.33000000112,
      "d": 261.36385416667326,
      "v": 30
    },
    {
      "midi": 69,
      "hit": false,
      "t": 177818.33000000112,
      "d": 261.36385416667326,
      "v": 30
    },
    {
      "midi": 64,
      "hit": false,
      "t": 177829.69364583702,
      "d": 102.27281250001397,
      "v": 41
    },
    {
      "midi": 76,
      "hit": false,
      "t": 177829.69364583702,
      "d": 102.27281250001397,
      "v": 41
    },
    {
      "midi": 64,
      "hit": false,
      "t": 177966.05739583704,
      "d": 102.27281250001397,
      "v": 41
    },
    {
      "midi": 76,
      "hit": false,
      "t": 177966.05739583704,
      "d": 102.27281250001397,
      "v": 41
    },
    {
      "midi": 52,
      "hit": false,
      "t": 178091.0575000011,
      "d": 68.18187500000931,
      "v": 61
    },
    {
      "midi": 52,
      "hit": false,
      "t": 178091.05750000113,
      "d": 68.18187500000931,
      "v": 55
    },
    {
      "midi": 64,
      "hit": false,
      "t": 178102.42114583706,
      "d": 102.27281250001397,
      "v": 41
    },
    {
      "midi": 76,
      "hit": false,
      "t": 178102.42114583706,
      "d": 102.27281250001397,
      "v": 41
    },
    {
      "midi": 42,
      "hit": false,
      "t": 178227.42124999993,
      "d": 125.00010416665464,
      "v": 93
    },
    {
      "midi": 54,
      "hit": false,
      "t": 178227.42125000112,
      "d": 68.18187500000931,
      "v": 44
    },
    {
      "midi": 59,
      "hit": false,
      "t": 178227.42125000112,
      "d": 125.00010416668374,
      "v": 44
    },
    {
      "midi": 52,
      "hit": false,
      "t": 178227.42125000112,
      "d": 136.36375000001863,
      "v": 59
    },
    {
      "midi": 69,
      "hit": false,
      "t": 178227.42125000112,
      "d": 136.36375000001863,
      "v": 44
    },
    {
      "midi": 64,
      "hit": false,
      "t": 178227.42125000112,
      "d": 261.36385416667326,
      "v": 44
    },
    {
      "midi": 54,
      "hit": false,
      "t": 178227.42125000115,
      "d": 68.18187500000931,
      "v": 30
    },
    {
      "midi": 59,
      "hit": false,
      "t": 178227.42125000115,
      "d": 125.00010416668374,
      "v": 30
    },
    {
      "midi": 69,
      "hit": false,
      "t": 178227.42125000115,
      "d": 136.36375000001863,
      "v": 30
    },
    {
      "midi": 64,
      "hit": false,
      "t": 178227.42125000115,
      "d": 261.36385416667326,
      "v": 30
    },
    {
      "midi": 64,
      "hit": false,
      "t": 178238.78489583707,
      "d": 102.27281250001397,
      "v": 41
    },
    {
      "midi": 76,
      "hit": false,
      "t": 178238.78489583707,
      "d": 102.27281250001397,
      "v": 41
    },
    {
      "midi": 80,
      "hit": false,
      "t": 178352.4213541668,
      "d": 806.8188541666896,
      "v": 84
    },
    {
      "midi": 40,
      "hit": false,
      "t": 178363.78499999992,
      "d": 261.36385416667326,
      "v": 93
    },
    {
      "midi": 52,
      "hit": false,
      "t": 178363.78500000114,
      "d": 125.00010416665464,
      "v": 44
    },
    {
      "midi": 61,
      "hit": false,
      "t": 178363.78500000114,
      "d": 125.00010416665464,
      "v": 44
    },
    {
      "midi": 69,
      "hit": false,
      "t": 178363.78500000114,
      "d": 125.00010416665464,
      "v": 44
    },
    {
      "midi": 61,
      "hit": false,
      "t": 178363.78500000117,
      "d": 125.00010416665464,
      "v": 30
    },
    {
      "midi": 69,
      "hit": false,
      "t": 178363.78500000117,
      "d": 125.00010416665464,
      "v": 30
    },
    {
      "midi": 52,
      "hit": false,
      "t": 178363.78500000117,
      "d": 261.36385416664416,
      "v": 30
    },
    {
      "midi": 64,
      "hit": false,
      "t": 178375.1486458371,
      "d": 102.27281250001397,
      "v": 74
    },
    {
      "midi": 76,
      "hit": false,
      "t": 178375.1486458371,
      "d": 102.27281250001397,
      "v": 74
    },
    {
      "midi": 64,
      "hit": false,
      "t": 178511.5123958371,
      "d": 102.27281250001397,
      "v": 47
    },
    {
      "midi": 76,
      "hit": false,
      "t": 178511.5123958371,
      "d": 102.27281250001397,
      "v": 47
    },
    {
      "midi": 52,
      "hit": false,
      "t": 178636.51250000112,
      "d": 125.00010416665464,
      "v": 59
    },
    {
      "midi": 61,
      "hit": false,
      "t": 178636.51250000112,
      "d": 125.00010416665464,
      "v": 44
    },
    {
      "midi": 64,
      "hit": false,
      "t": 178636.51250000112,
      "d": 125.00010416665464,
      "v": 44
    },
    {
      "midi": 69,
      "hit": false,
      "t": 178636.51250000112,
      "d": 125.00010416665464,
      "v": 44
    },
    {
      "midi": 61,
      "hit": false,
      "t": 178636.51250000115,
      "d": 125.00010416665464,
      "v": 30
    },
    {
      "midi": 64,
      "hit": false,
      "t": 178636.51250000115,
      "d": 125.00010416665464,
      "v": 30
    },
    {
      "midi": 69,
      "hit": false,
      "t": 178636.51250000115,
      "d": 125.00010416665464,
      "v": 30
    },
    {
      "midi": 64,
      "hit": false,
      "t": 178647.87614583713,
      "d": 102.27281250001397,
      "v": 47
    },
    {
      "midi": 76,
      "hit": false,
      "t": 178647.87614583713,
      "d": 102.27281250001397,
      "v": 47
    },
    {
      "midi": 40,
      "hit": false,
      "t": 178772.8762499999,
      "d": 125.00010416665464,
      "v": 93
    },
    {
      "midi": 59,
      "hit": false,
      "t": 178772.8762500011,
      "d": 125.00010416665464,
      "v": 44
    },
    {
      "midi": 64,
      "hit": false,
      "t": 178772.8762500011,
      "d": 125.00010416665464,
      "v": 44
    },
    {
      "midi": 59,
      "hit": false,
      "t": 178772.87625000114,
      "d": 125.00010416665464,
      "v": 30
    },
    {
      "midi": 64,
      "hit": false,
      "t": 178772.87625000114,
      "d": 125.00010416665464,
      "v": 30
    },
    {
      "midi": 64,
      "hit": false,
      "t": 178784.23989583715,
      "d": 102.27281250001397,
      "v": 47
    },
    {
      "midi": 76,
      "hit": false,
      "t": 178784.23989583715,
      "d": 102.27281250001397,
      "v": 47
    },
    {
      "midi": 38,
      "hit": false,
      "t": 178909.2399999999,
      "d": 261.36385416667326,
      "v": 93
    },
    {
      "midi": 45,
      "hit": false,
      "t": 178909.2400000011,
      "d": 125.00010416665464,
      "v": 44
    },
    {
      "midi": 45,
      "hit": false,
      "t": 178909.24000000113,
      "d": 125.00010416665464,
      "v": 30
    },
    {
      "midi": 64,
      "hit": false,
      "t": 178920.60364583717,
      "d": 102.27281250001397,
      "v": 76
    },
    {
      "midi": 76,
      "hit": false,
      "t": 178920.60364583717,
      "d": 102.27281250001397,
      "v": 76
    },
    {
      "midi": 52,
      "hit": false,
      "t": 179045.6037500011,
      "d": 125.00010416665464,
      "v": 44
    },
    {
      "midi": 52,
      "hit": false,
      "t": 179045.60375000112,
      "d": 125.00010416665464,
      "v": 30
    },
    {
      "midi": 64,
      "hit": false,
      "t": 179056.9673958372,
      "d": 102.27281250001397,
      "v": 41
    },
    {
      "midi": 76,
      "hit": false,
      "t": 179056.9673958372,
      "d": 102.27281250001397,
      "v": 41
    },
    {
      "midi": 80,
      "hit": false,
      "t": 179170.60385416684,
      "d": 806.8188541666896,
      "v": 84
    },
    {
      "midi": 61,
      "hit": false,
      "t": 179181.96750000108,
      "d": 125.00010416665464,
      "v": 61
    },
    {
      "midi": 52,
      "hit": false,
      "t": 179181.96750000108,
      "d": 261.36385416664416,
      "v": 59
    },
    {
      "midi": 57,
      "hit": false,
      "t": 179181.96750000108,
      "d": 261.36385416664416,
      "v": 61
    },
    {
      "midi": 64,
      "hit": false,
      "t": 179181.96750000108,
      "d": 363.63666666665813,
      "v": 61
    },
    {
      "midi": 61,
      "hit": false,
      "t": 179181.9675000011,
      "d": 125.00010416665464,
      "v": 55
    },
    {
      "midi": 57,
      "hit": false,
      "t": 179181.9675000011,
      "d": 261.36385416664416,
      "v": 55
    },
    {
      "midi": 64,
      "hit": false,
      "t": 179181.9675000011,
      "d": 363.63666666665813,
      "v": 55
    },
    {
      "midi": 64,
      "hit": false,
      "t": 179193.3311458372,
      "d": 102.27281250001397,
      "v": 41
    },
    {
      "midi": 76,
      "hit": false,
      "t": 179193.3311458372,
      "d": 102.27281250001397,
      "v": 41
    },
    {
      "midi": 38,
      "hit": false,
      "t": 179318.3312499999,
      "d": 125.00010416665464,
      "v": 93
    },
    {
      "midi": 61,
      "hit": false,
      "t": 179318.33125000107,
      "d": 261.36385416667326,
      "v": 44
    },
    {
      "midi": 61,
      "hit": false,
      "t": 179318.3312500011,
      "d": 261.36385416667326,
      "v": 30
    },
    {
      "midi": 64,
      "hit": false,
      "t": 179329.69489583722,
      "d": 102.27281250001397,
      "v": 41
    },
    {
      "midi": 76,
      "hit": false,
      "t": 179329.69489583722,
      "d": 102.27281250001397,
      "v": 41
    },
    {
      "midi": 37,
      "hit": false,
      "t": 179454.6949999999,
      "d": 261.36385416667326,
      "v": 93
    },
    {
      "midi": 64,
      "hit": false,
      "t": 179466.05864583724,
      "d": 102.27281250001397,
      "v": 41
    },
    {
      "midi": 76,
      "hit": false,
      "t": 179466.05864583724,
      "d": 102.27281250001397,
      "v": 41
    },
    {
      "midi": 52,
      "hit": false,
      "t": 179591.05875000107,
      "d": 125.00010416665464,
      "v": 59
    },
    {
      "midi": 59,
      "hit": false,
      "t": 179591.05875000107,
      "d": 125.00010416665464,
      "v": 61
    },
    {
      "midi": 62,
      "hit": false,
      "t": 179591.05875000107,
      "d": 125.00010416665464,
      "v": 61
    },
    {
      "midi": 56,
      "hit": false,
      "t": 179591.05875000107,
      "d": 261.36385416664416,
      "v": 61
    },
    {
      "midi": 64,
      "hit": false,
      "t": 179591.05875000107,
      "d": 318.1820833333186,
      "v": 61
    },
    {
      "midi": 59,
      "hit": false,
      "t": 179591.0587500011,
      "d": 125.00010416665464,
      "v": 55
    },
    {
      "midi": 62,
      "hit": false,
      "t": 179591.0587500011,
      "d": 125.00010416665464,
      "v": 55
    },
    {
      "midi": 56,
      "hit": false,
      "t": 179591.0587500011,
      "d": 261.36385416664416,
      "v": 55
    },
    {
      "midi": 64,
      "hit": false,
      "t": 179591.0587500011,
      "d": 318.1820833333186,
      "v": 55
    },
    {
      "midi": 64,
      "hit": false,
      "t": 179602.42239583726,
      "d": 102.27281250001397,
      "v": 41
    },
    {
      "midi": 76,
      "hit": false,
      "t": 179602.42239583726,
      "d": 102.27281250001397,
      "v": 41
    },
    {
      "midi": 59,
      "hit": false,
      "t": 179727.42250000106,
      "d": 125.00010416665464,
      "v": 44
    },
    {
      "midi": 59,
      "hit": false,
      "t": 179727.4225000011,
      "d": 125.00010416665464,
      "v": 30
    },
    {
      "midi": 64,
      "hit": false,
      "t": 179738.78614583728,
      "d": 102.27281250001397,
      "v": 76
    },
    {
      "midi": 76,
      "hit": false,
      "t": 179738.78614583728,
      "d": 102.27281250001397,
      "v": 76
    },
    {
      "midi": 37,
      "hit": false,
      "t": 179863.7862499999,
      "d": 125.00010416665464,
      "v": 93
    },
    {
      "midi": 57,
      "hit": false,
      "t": 179863.78625000105,
      "d": 125.00010416668374,
      "v": 44
    },
    {
      "midi": 59,
      "hit": false,
      "t": 179863.78625000105,
      "d": 125.00010416668374,
      "v": 44
    },
    {
      "midi": 57,
      "hit": false,
      "t": 179863.78625000108,
      "d": 125.00010416668374,
      "v": 30
    },
    {
      "midi": 59,
      "hit": false,
      "t": 179863.78625000108,
      "d": 125.00010416668374,
      "v": 30
    },
    {
      "midi": 64,
      "hit": false,
      "t": 179875.1498958373,
      "d": 102.27281250001397,
      "v": 41
    },
    {
      "midi": 76,
      "hit": false,
      "t": 179875.1498958373,
      "d": 102.27281250001397,
      "v": 41
    },
    {
      "midi": 76,
      "hit": false,
      "t": 179988.78635416686,
      "d": 136.36374999998952,
      "v": 84
    },
    {
      "midi": 35,
      "hit": false,
      "t": 180000.14999999988,
      "d": 125.00010416665464,
      "v": 93
    },
    {
      "midi": 64,
      "hit": false,
      "t": 180000.15000000107,
      "d": 204.54562499999884,
      "v": 61
    },
    {
      "midi": 54,
      "hit": false,
      "t": 180000.15000000107,
      "d": 261.36385416667326,
      "v": 61
    },
    {
      "midi": 57,
      "hit": false,
      "t": 180000.15000000107,
      "d": 261.36385416667326,
      "v": 61
    },
    {
      "midi": 64,
      "hit": false,
      "t": 180000.1500000011,
      "d": 204.54562499999884,
      "v": 55
    },
    {
      "midi": 54,
      "hit": false,
      "t": 180000.1500000011,
      "d": 261.36385416667326,
      "v": 35
    },
    {
      "midi": 57,
      "hit": false,
      "t": 180000.1500000011,
      "d": 261.36385416667326,
      "v": 55
    },
    {
      "midi": 64,
      "hit": false,
      "t": 180011.51364583732,
      "d": 102.27281250001397,
      "v": 41
    },
    {
      "midi": 76,
      "hit": false,
      "t": 180011.51364583732,
      "d": 102.27281250001397,
      "v": 41
    },
    {
      "midi": 78,
      "hit": false,
      "t": 180125.15010416685,
      "d": 136.36374999998952,
      "v": 84
    },
    {
      "midi": 64,
      "hit": false,
      "t": 180147.87739583733,
      "d": 102.27281250001397,
      "v": 41
    },
    {
      "midi": 76,
      "hit": false,
      "t": 180147.87739583733,
      "d": 102.27281250001397,
      "v": 41
    },
    {
      "midi": 61,
      "hit": false,
      "t": 180250.15020833333,
      "d": 397.7276041666628,
      "v": 64
    },
    {
      "midi": 76,
      "hit": false,
      "t": 180261.51385416684,
      "d": 136.36374999998952,
      "v": 84
    },
    {
      "midi": 35,
      "hit": false,
      "t": 180272.87749999986,
      "d": 261.36385416667326,
      "v": 93
    },
    {
      "midi": 56,
      "hit": false,
      "t": 180272.87750000108,
      "d": 125.00010416665464,
      "v": 44
    },
    {
      "midi": 59,
      "hit": false,
      "t": 180272.87750000108,
      "d": 125.00010416665464,
      "v": 44
    },
    {
      "midi": 64,
      "hit": false,
      "t": 180272.87750000108,
      "d": 534.0913541666232,
      "v": 44
    },
    {
      "midi": 56,
      "hit": false,
      "t": 180272.8775000011,
      "d": 125.00010416665464,
      "v": 30
    },
    {
      "midi": 59,
      "hit": false,
      "t": 180272.8775000011,
      "d": 125.00010416665464,
      "v": 30
    },
    {
      "midi": 64,
      "hit": false,
      "t": 180272.8775000011,
      "d": 534.0913541666232,
      "v": 30
    },
    {
      "midi": 64,
      "hit": false,
      "t": 180284.24114583735,
      "d": 102.27281250001397,
      "v": 41
    },
    {
      "midi": 76,
      "hit": false,
      "t": 180284.24114583735,
      "d": 102.27281250001397,
      "v": 41
    },
    {
      "midi": 73,
      "hit": false,
      "t": 180397.87760416683,
      "d": 125.00010416665464,
      "v": 84
    },
    {
      "midi": 56,
      "hit": false,
      "t": 180409.24125000107,
      "d": 125.00010416665464,
      "v": 44
    },
    {
      "midi": 59,
      "hit": false,
      "t": 180409.24125000107,
      "d": 125.00010416665464,
      "v": 44
    },
    {
      "midi": 56,
      "hit": false,
      "t": 180409.2412500011,
      "d": 125.00010416665464,
      "v": 30
    },
    {
      "midi": 59,
      "hit": false,
      "t": 180409.2412500011,
      "d": 125.00010416665464,
      "v": 30
    },
    {
      "midi": 64,
      "hit": false,
      "t": 180420.60489583737,
      "d": 102.27281250001397,
      "v": 41
    },
    {
      "midi": 76,
      "hit": false,
      "t": 180420.60489583737,
      "d": 102.27281250001397,
      "v": 41
    },
    {
      "midi": 76,
      "hit": false,
      "t": 180534.24135416682,
      "d": 125.00010416665464,
      "v": 84
    },
    {
      "midi": 37,
      "hit": false,
      "t": 180545.60499999986,
      "d": 261.36385416667326,
      "v": 93
    },
    {
      "midi": 56,
      "hit": false,
      "t": 180545.60500000106,
      "d": 125.00010416665464,
      "v": 61
    },
    {
      "midi": 59,
      "hit": false,
      "t": 180545.60500000106,
      "d": 125.00010416665464,
      "v": 61
    },
    {
      "midi": 56,
      "hit": false,
      "t": 180545.6050000011,
      "d": 125.00010416665464,
      "v": 55
    },
    {
      "midi": 59,
      "hit": false,
      "t": 180545.6050000011,
      "d": 125.00010416665464,
      "v": 55
    },
    {
      "midi": 64,
      "hit": false,
      "t": 180556.9686458374,
      "d": 102.27281250001397,
      "v": 74
    },
    {
      "midi": 76,
      "hit": false,
      "t": 180556.9686458374,
      "d": 102.27281250001397,
      "v": 74
    },
    {
      "midi": 64,
      "hit": false,
      "t": 180659.24145833333,
      "d": 397.7276041666628,
      "v": 64
    },
    {
      "midi": 56,
      "hit": false,
      "t": 180681.96875000105,
      "d": 125.00010416665464,
      "v": 44
    },
    {
      "midi": 59,
      "hit": false,
      "t": 180681.96875000105,
      "d": 125.00010416665464,
      "v": 44
    },
    {
      "midi": 56,
      "hit": false,
      "t": 180681.96875000108,
      "d": 125.00010416665464,
      "v": 30
    },
    {
      "midi": 59,
      "hit": false,
      "t": 180681.96875000108,
      "d": 125.00010416665464,
      "v": 30
    },
    {
      "midi": 64,
      "hit": false,
      "t": 180693.3323958374,
      "d": 102.27281250001397,
      "v": 47
    },
    {
      "midi": 76,
      "hit": false,
      "t": 180693.3323958374,
      "d": 102.27281250001397,
      "v": 47
    },
    {
      "midi": 71,
      "hit": false,
      "t": 180806.9688541668,
      "d": 136.36374999998952,
      "v": 84
    },
    {
      "midi": 33,
      "hit": false,
      "t": 180818.33249999987,
      "d": 261.36385416667326,
      "v": 93
    },
    {
      "midi": 52,
      "hit": false,
      "t": 180818.33250000104,
      "d": 125.00010416665464,
      "v": 44
    },
    {
      "midi": 56,
      "hit": false,
      "t": 180818.33250000104,
      "d": 125.00010416665464,
      "v": 44
    },
    {
      "midi": 52,
      "hit": false,
      "t": 180818.33250000107,
      "d": 261.36385416667326,
      "v": 76
    },
    {
      "midi": 56,
      "hit": false,
      "t": 180818.33250000107,
      "d": 261.36385416667326,
      "v": 76
    },
    {
      "midi": 59,
      "hit": false,
      "t": 180818.33250000107,
      "d": 261.36385416667326,
      "v": 76
    },
    {
      "midi": 64,
      "hit": false,
      "t": 180818.33250000107,
      "d": 261.36385416667326,
      "v": 76
    },
    {
      "midi": 64,
      "hit": false,
      "t": 180829.69614583743,
      "d": 102.27281250001397,
      "v": 47
    },
    {
      "midi": 76,
      "hit": false,
      "t": 180829.69614583743,
      "d": 102.27281250001397,
      "v": 47
    },
    {
      "midi": 73,
      "hit": false,
      "t": 180943.3326041668,
      "d": 125.00010416665464,
      "v": 84
    },
    {
      "midi": 52,
      "hit": false,
      "t": 180954.69625000103,
      "d": 125.00010416665464,
      "v": 44
    },
    {
      "midi": 56,
      "hit": false,
      "t": 180954.69625000103,
      "d": 125.00010416665464,
      "v": 44
    },
    {
      "midi": 64,
      "hit": false,
      "t": 180966.05989583745,
      "d": 102.27281250001397,
      "v": 47
    },
    {
      "midi": 76,
      "hit": false,
      "t": 180966.05989583745,
      "d": 102.27281250001397,
      "v": 47
    },
    {
      "midi": 64,
      "hit": false,
      "t": 181068.33270833333,
      "d": 1352.2738541666768,
      "v": 64
    },
    {
      "midi": 68,
      "hit": false,
      "t": 181068.33270833333,
      "d": 1352.2738541666768,
      "v": 64
    },
    {
      "midi": 71,
      "hit": false,
      "t": 181068.33270833333,
      "d": 1352.2738541666768,
      "v": 64
    },
    {
      "midi": 73,
      "hit": false,
      "t": 181079.69635416678,
      "d": 1352.2738541666768,
      "v": 84
    },
    {
      "midi": 37,
      "hit": false,
      "t": 181091.05999999988,
      "d": 397.7276041666628,
      "v": 93
    },
    {
      "midi": 49,
      "hit": false,
      "t": 181091.06000000102,
      "d": 125.00010416665464,
      "v": 59
    },
    {
      "midi": 44,
      "hit": false,
      "t": 181091.06000000102,
      "d": 261.36385416664416,
      "v": 59
    },
    {
      "midi": 56,
      "hit": false,
      "t": 181091.06000000102,
      "d": 261.36385416664416,
      "v": 59
    },
    {
      "midi": 61,
      "hit": false,
      "t": 181091.06000000102,
      "d": 261.36385416664416,
      "v": 47
    },
    {
      "midi": 64,
      "hit": false,
      "t": 181091.06000000102,
      "d": 261.36385416664416,
      "v": 47
    },
    {
      "midi": 68,
      "hit": false,
      "t": 181091.06000000102,
      "d": 261.36385416664416,
      "v": 47
    },
    {
      "midi": 61,
      "hit": false,
      "t": 181091.06000000107,
      "d": 261.36385416667326,
      "v": 41
    },
    {
      "midi": 64,
      "hit": false,
      "t": 181091.06000000107,
      "d": 261.36385416667326,
      "v": 41
    },
    {
      "midi": 68,
      "hit": false,
      "t": 181091.06000000107,
      "d": 261.36385416667326,
      "v": 41
    },
    {
      "midi": 64,
      "hit": false,
      "t": 181102.42364583747,
      "d": 102.27281250001397,
      "v": 76
    },
    {
      "midi": 76,
      "hit": false,
      "t": 181102.42364583747,
      "d": 102.27281250001397,
      "v": 76
    },
    {
      "midi": 64,
      "hit": false,
      "t": 181238.78739583748,
      "d": 102.27281250001397,
      "v": 41
    },
    {
      "midi": 76,
      "hit": false,
      "t": 181238.78739583748,
      "d": 102.27281250001397,
      "v": 41
    },
    {
      "midi": 56,
      "hit": false,
      "t": 181363.787500001,
      "d": 125.00010416665464,
      "v": 59
    },
    {
      "midi": 44,
      "hit": false,
      "t": 181363.787500001,
      "d": 261.36385416664416,
      "v": 59
    },
    {
      "midi": 49,
      "hit": false,
      "t": 181363.787500001,
      "d": 261.36385416664416,
      "v": 59
    },
    {
      "midi": 61,
      "hit": false,
      "t": 181363.787500001,
      "d": 261.36385416664416,
      "v": 53
    },
    {
      "midi": 64,
      "hit": false,
      "t": 181363.787500001,
      "d": 261.36385416664416,
      "v": 53
    },
    {
      "midi": 68,
      "hit": false,
      "t": 181363.787500001,
      "d": 261.36385416664416,
      "v": 53
    },
    {
      "midi": 56,
      "hit": false,
      "t": 181363.78750000108,
      "d": 261.36385416667326,
      "v": 76
    },
    {
      "midi": 61,
      "hit": false,
      "t": 181363.78750000108,
      "d": 261.36385416667326,
      "v": 47
    },
    {
      "midi": 64,
      "hit": false,
      "t": 181363.78750000108,
      "d": 261.36385416667326,
      "v": 47
    },
    {
      "midi": 68,
      "hit": false,
      "t": 181363.78750000108,
      "d": 261.36385416667326,
      "v": 47
    },
    {
      "midi": 49,
      "hit": false,
      "t": 181363.78750000108,
      "d": 534.0913541666523,
      "v": 76
    },
    {
      "midi": 64,
      "hit": false,
      "t": 181375.1511458375,
      "d": 102.27281250001397,
      "v": 41
    },
    {
      "midi": 76,
      "hit": false,
      "t": 181375.1511458375,
      "d": 102.27281250001397,
      "v": 41
    },
    {
      "midi": 37,
      "hit": false,
      "t": 181500.15124999988,
      "d": 125.00010416665464,
      "v": 93
    },
    {
      "midi": 64,
      "hit": false,
      "t": 181511.51489583752,
      "d": 102.27281250001397,
      "v": 41
    },
    {
      "midi": 76,
      "hit": false,
      "t": 181511.51489583752,
      "d": 102.27281250001397,
      "v": 41
    },
    {
      "midi": 32,
      "hit": false,
      "t": 181636.51499999987,
      "d": 397.7276041666628,
      "v": 93
    },
    {
      "midi": 61,
      "hit": false,
      "t": 181636.51500000097,
      "d": 125.00010416665464,
      "v": 57
    },
    {
      "midi": 64,
      "hit": false,
      "t": 181636.51500000097,
      "d": 125.00010416665464,
      "v": 57
    },
    {
      "midi": 68,
      "hit": false,
      "t": 181636.51500000097,
      "d": 125.00010416665464,
      "v": 57
    },
    {
      "midi": 61,
      "hit": false,
      "t": 181636.5150000011,
      "d": 125.00010416665464,
      "v": 51
    },
    {
      "midi": 64,
      "hit": false,
      "t": 181636.5150000011,
      "d": 125.00010416665464,
      "v": 51
    },
    {
      "midi": 68,
      "hit": false,
      "t": 181636.5150000011,
      "d": 125.00010416665464,
      "v": 51
    },
    {
      "midi": 64,
      "hit": false,
      "t": 181647.87864583754,
      "d": 102.27281250001397,
      "v": 41
    },
    {
      "midi": 76,
      "hit": false,
      "t": 181647.87864583754,
      "d": 102.27281250001397,
      "v": 41
    },
    {
      "midi": 44,
      "hit": false,
      "t": 181772.87875000096,
      "d": 125.00010416665464,
      "v": 59
    },
    {
      "midi": 49,
      "hit": false,
      "t": 181772.87875000096,
      "d": 125.00010416665464,
      "v": 59
    },
    {
      "midi": 56,
      "hit": false,
      "t": 181772.87875000096,
      "d": 125.00010416665464,
      "v": 59
    },
    {
      "midi": 61,
      "hit": false,
      "t": 181772.87875000096,
      "d": 159.0910416666593,
      "v": 44
    },
    {
      "midi": 64,
      "hit": false,
      "t": 181772.87875000096,
      "d": 159.0910416666593,
      "v": 44
    },
    {
      "midi": 68,
      "hit": false,
      "t": 181772.87875000096,
      "d": 159.0910416666593,
      "v": 44
    },
    {
      "midi": 56,
      "hit": false,
      "t": 181772.87875000108,
      "d": 125.00010416665464,
      "v": 76
    },
    {
      "midi": 61,
      "hit": false,
      "t": 181772.87875000108,
      "d": 159.0910416666593,
      "v": 30
    },
    {
      "midi": 64,
      "hit": false,
      "t": 181772.87875000108,
      "d": 159.0910416666593,
      "v": 30
    },
    {
      "midi": 68,
      "hit": false,
      "t": 181772.87875000108,
      "d": 159.0910416666593,
      "v": 30
    },
    {
      "midi": 64,
      "hit": false,
      "t": 181784.24239583756,
      "d": 102.27281250001397,
      "v": 41
    },
    {
      "midi": 76,
      "hit": false,
      "t": 181784.24239583756,
      "d": 102.27281250001397,
      "v": 41
    },
    {
      "midi": 64,
      "hit": false,
      "t": 181920.60614583758,
      "d": 102.27281250001397,
      "v": 76
    },
    {
      "midi": 76,
      "hit": false,
      "t": 181920.60614583758,
      "d": 102.27281250001397,
      "v": 76
    },
    {
      "midi": 32,
      "hit": false,
      "t": 182045.60624999987,
      "d": 125.00010416665464,
      "v": 93
    },
    {
      "midi": 61,
      "hit": false,
      "t": 182045.60625000094,
      "d": 125.00010416665464,
      "v": 44
    },
    {
      "midi": 64,
      "hit": false,
      "t": 182045.60625000094,
      "d": 125.00010416665464,
      "v": 44
    },
    {
      "midi": 68,
      "hit": false,
      "t": 182045.60625000094,
      "d": 125.00010416665464,
      "v": 44
    },
    {
      "midi": 61,
      "hit": false,
      "t": 182045.60625000106,
      "d": 125.00010416665464,
      "v": 30
    },
    {
      "midi": 64,
      "hit": false,
      "t": 182045.60625000106,
      "d": 125.00010416665464,
      "v": 30
    },
    {
      "midi": 68,
      "hit": false,
      "t": 182045.60625000106,
      "d": 125.00010416665464,
      "v": 30
    },
    {
      "midi": 64,
      "hit": false,
      "t": 182056.9698958376,
      "d": 102.27281250001397,
      "v": 41
    },
    {
      "midi": 76,
      "hit": false,
      "t": 182056.9698958376,
      "d": 102.27281250001397,
      "v": 41
    },
    {
      "midi": 37,
      "hit": false,
      "t": 182181.96999999986,
      "d": 397.7276041666628,
      "v": 93
    },
    {
      "midi": 61,
      "hit": false,
      "t": 182181.97000000093,
      "d": 125.00010416665464,
      "v": 57
    },
    {
      "midi": 64,
      "hit": false,
      "t": 182181.97000000093,
      "d": 125.00010416665464,
      "v": 57
    },
    {
      "midi": 68,
      "hit": false,
      "t": 182181.97000000093,
      "d": 125.00010416665464,
      "v": 57
    },
    {
      "midi": 44,
      "hit": false,
      "t": 182181.97000000093,
      "d": 261.36385416664416,
      "v": 59
    },
    {
      "midi": 49,
      "hit": false,
      "t": 182181.97000000093,
      "d": 261.36385416664416,
      "v": 59
    },
    {
      "midi": 56,
      "hit": false,
      "t": 182181.97000000093,
      "d": 397.7276041666337,
      "v": 59
    },
    {
      "midi": 61,
      "hit": false,
      "t": 182181.97000000105,
      "d": 125.00010416665464,
      "v": 51
    },
    {
      "midi": 64,
      "hit": false,
      "t": 182181.97000000105,
      "d": 125.00010416665464,
      "v": 51
    },
    {
      "midi": 68,
      "hit": false,
      "t": 182181.97000000105,
      "d": 125.00010416665464,
      "v": 51
    },
    {
      "midi": 49,
      "hit": false,
      "t": 182181.97000000105,
      "d": 261.36385416664416,
      "v": 76
    },
    {
      "midi": 56,
      "hit": false,
      "t": 182181.97000000105,
      "d": 397.7276041666337,
      "v": 76
    },
    {
      "midi": 64,
      "hit": false,
      "t": 182193.3336458376,
      "d": 102.27281250001397,
      "v": 41
    },
    {
      "midi": 76,
      "hit": false,
      "t": 182193.3336458376,
      "d": 102.27281250001397,
      "v": 41
    },
    {
      "midi": 61,
      "hit": false,
      "t": 182318.33375000092,
      "d": 125.00010416665464,
      "v": 44
    },
    {
      "midi": 64,
      "hit": false,
      "t": 182318.33375000092,
      "d": 125.00010416665464,
      "v": 44
    },
    {
      "midi": 68,
      "hit": false,
      "t": 182318.33375000092,
      "d": 125.00010416665464,
      "v": 44
    },
    {
      "midi": 61,
      "hit": false,
      "t": 182318.33375000104,
      "d": 125.00010416665464,
      "v": 30
    },
    {
      "midi": 64,
      "hit": false,
      "t": 182318.33375000104,
      "d": 125.00010416665464,
      "v": 30
    },
    {
      "midi": 68,
      "hit": false,
      "t": 182318.33375000104,
      "d": 125.00010416665464,
      "v": 30
    },
    {
      "midi": 64,
      "hit": false,
      "t": 182329.69739583763,
      "d": 102.27281250001397,
      "v": 41
    },
    {
      "midi": 76,
      "hit": false,
      "t": 182329.69739583763,
      "d": 102.27281250001397,
      "v": 41
    },
    {
      "midi": 76,
      "hit": false,
      "t": 182443.3338541668,
      "d": 397.7276041666337,
      "v": 84
    },
    {
      "midi": 61,
      "hit": false,
      "t": 182454.6975000009,
      "d": 125.00010416665464,
      "v": 44
    },
    {
      "midi": 64,
      "hit": false,
      "t": 182454.6975000009,
      "d": 125.00010416665464,
      "v": 44
    },
    {
      "midi": 68,
      "hit": false,
      "t": 182454.6975000009,
      "d": 125.00010416665464,
      "v": 44
    },
    {
      "midi": 61,
      "hit": false,
      "t": 182454.69750000103,
      "d": 125.00010416665464,
      "v": 30
    },
    {
      "midi": 64,
      "hit": false,
      "t": 182454.69750000103,
      "d": 125.00010416665464,
      "v": 30
    },
    {
      "midi": 68,
      "hit": false,
      "t": 182454.69750000103,
      "d": 125.00010416665464,
      "v": 30
    },
    {
      "midi": 64,
      "hit": false,
      "t": 182466.06114583765,
      "d": 102.27281250001397,
      "v": 41
    },
    {
      "midi": 76,
      "hit": false,
      "t": 182466.06114583765,
      "d": 102.27281250001397,
      "v": 41
    },
    {
      "midi": 64,
      "hit": false,
      "t": 182568.33395833333,
      "d": 261.36385416667326,
      "v": 64
    },
    {
      "midi": 68,
      "hit": false,
      "t": 182568.33395833333,
      "d": 261.36385416667326,
      "v": 64
    },
    {
      "midi": 71,
      "hit": false,
      "t": 182568.33395833333,
      "d": 261.36385416667326,
      "v": 64
    },
    {
      "midi": 32,
      "hit": false,
      "t": 182591.06124999985,
      "d": 125.00010416665464,
      "v": 93
    },
    {
      "midi": 44,
      "hit": false,
      "t": 182591.0612500009,
      "d": 125.00010416665464,
      "v": 59
    },
    {
      "midi": 49,
      "hit": false,
      "t": 182591.0612500009,
      "d": 125.00010416665464,
      "v": 59
    },
    {
      "midi": 56,
      "hit": false,
      "t": 182591.0612500009,
      "d": 261.36385416664416,
      "v": 59
    },
    {
      "midi": 61,
      "hit": false,
      "t": 182591.0612500009,
      "d": 261.36385416664416,
      "v": 57
    },
    {
      "midi": 64,
      "hit": false,
      "t": 182591.0612500009,
      "d": 261.36385416664416,
      "v": 57
    },
    {
      "midi": 68,
      "hit": false,
      "t": 182591.0612500009,
      "d": 261.36385416664416,
      "v": 57
    },
    {
      "midi": 61,
      "hit": false,
      "t": 182591.06125000102,
      "d": 261.36385416667326,
      "v": 51
    },
    {
      "midi": 64,
      "hit": false,
      "t": 182591.06125000102,
      "d": 261.36385416667326,
      "v": 51
    },
    {
      "midi": 68,
      "hit": false,
      "t": 182591.06125000102,
      "d": 261.36385416667326,
      "v": 51
    },
    {
      "midi": 49,
      "hit": false,
      "t": 182591.06125000102,
      "d": 397.7276041666628,
      "v": 76
    },
    {
      "midi": 56,
      "hit": false,
      "t": 182591.06125000102,
      "d": 534.0913541666523,
      "v": 76
    },
    {
      "midi": 64,
      "hit": false,
      "t": 182602.42489583767,
      "d": 102.27281250001397,
      "v": 41
    },
    {
      "midi": 76,
      "hit": false,
      "t": 182602.42489583767,
      "d": 102.27281250001397,
      "v": 41
    },
    {
      "midi": 37,
      "hit": false,
      "t": 182727.42499999984,
      "d": 125.00010416665464,
      "v": 93
    },
    {
      "midi": 64,
      "hit": false,
      "t": 182738.7886458377,
      "d": 102.27281250001397,
      "v": 74
    },
    {
      "midi": 76,
      "hit": false,
      "t": 182738.7886458377,
      "d": 102.27281250001397,
      "v": 74
    },
    {
      "midi": 61,
      "hit": false,
      "t": 182841.06145833334,
      "d": 125.00010416665464,
      "v": 64
    },
    {
      "midi": 64,
      "hit": false,
      "t": 182841.06145833334,
      "d": 125.00010416665464,
      "v": 64
    },
    {
      "midi": 68,
      "hit": false,
      "t": 182841.06145833334,
      "d": 125.00010416665464,
      "v": 64
    },
    {
      "midi": 73,
      "hit": false,
      "t": 182852.42510416676,
      "d": 125.00010416665464,
      "v": 84
    },
    {
      "midi": 32,
      "hit": false,
      "t": 182863.78874999983,
      "d": 261.36385416667326,
      "v": 93
    },
    {
      "midi": 61,
      "hit": false,
      "t": 182863.78875000088,
      "d": 125.00010416665464,
      "v": 44
    },
    {
      "midi": 64,
      "hit": false,
      "t": 182863.78875000088,
      "d": 125.00010416665464,
      "v": 44
    },
    {
      "midi": 68,
      "hit": false,
      "t": 182863.78875000088,
      "d": 125.00010416665464,
      "v": 44
    },
    {
      "midi": 61,
      "hit": false,
      "t": 182863.78875000103,
      "d": 125.00010416665464,
      "v": 30
    },
    {
      "midi": 64,
      "hit": false,
      "t": 182863.78875000103,
      "d": 125.00010416665464,
      "v": 30
    },
    {
      "midi": 68,
      "hit": false,
      "t": 182863.78875000103,
      "d": 125.00010416665464,
      "v": 30
    },
    {
      "midi": 64,
      "hit": false,
      "t": 182875.1523958377,
      "d": 102.27281250001397,
      "v": 47
    },
    {
      "midi": 76,
      "hit": false,
      "t": 182875.1523958377,
      "d": 102.27281250001397,
      "v": 47
    },
    {
      "midi": 63,
      "hit": false,
      "t": 182977.42520833333,
      "d": 125.00010416665464,
      "v": 64
    },
    {
      "midi": 66,
      "hit": false,
      "t": 182977.42520833333,
      "d": 125.00010416665464,
      "v": 64
    },
    {
      "midi": 69,
      "hit": false,
      "t": 182977.42520833333,
      "d": 125.00010416665464,
      "v": 64
    },
    {
      "midi": 76,
      "hit": false,
      "t": 182988.78885416675,
      "d": 125.00010416665464,
      "v": 84
    },
    {
      "midi": 61,
      "hit": false,
      "t": 183000.15250000087,
      "d": 125.00010416665464,
      "v": 57
    },
    {
      "midi": 64,
      "hit": false,
      "t": 183000.15250000087,
      "d": 125.00010416665464,
      "v": 57
    },
    {
      "midi": 68,
      "hit": false,
      "t": 183000.15250000087,
      "d": 125.00010416665464,
      "v": 57
    },
    {
      "midi": 61,
      "hit": false,
      "t": 183000.15250000102,
      "d": 125.00010416665464,
      "v": 51
    },
    {
      "midi": 64,
      "hit": false,
      "t": 183000.15250000102,
      "d": 125.00010416665464,
      "v": 51
    },
    {
      "midi": 68,
      "hit": false,
      "t": 183000.15250000102,
      "d": 125.00010416665464,
      "v": 51
    },
    {
      "midi": 64,
      "hit": false,
      "t": 183011.51614583773,
      "d": 102.27281250001397,
      "v": 47
    },
    {
      "midi": 76,
      "hit": false,
      "t": 183011.51614583773,
      "d": 102.27281250001397,
      "v": 47
    },
    {
      "midi": 64,
      "hit": false,
      "t": 183113.78895833332,
      "d": 136.36374999998952,
      "v": 64
    },
    {
      "midi": 68,
      "hit": false,
      "t": 183113.78895833332,
      "d": 261.36385416664416,
      "v": 64
    },
    {
      "midi": 71,
      "hit": false,
      "t": 183113.78895833332,
      "d": 261.36385416664416,
      "v": 64
    },
    {
      "midi": 80,
      "hit": false,
      "t": 183125.15260416674,
      "d": 670.4551041666418,
      "v": 84
    },
    {
      "midi": 44,
      "hit": false,
      "t": 183136.51625000086,
      "d": 125.00010416665464,
      "v": 59
    },
    {
      "midi": 49,
      "hit": false,
      "t": 183136.51625000086,
      "d": 125.00010416665464,
      "v": 59
    },
    {
      "midi": 61,
      "hit": false,
      "t": 183136.51625000086,
      "d": 125.00010416665464,
      "v": 44
    },
    {
      "midi": 64,
      "hit": false,
      "t": 183136.51625000086,
      "d": 125.00010416665464,
      "v": 44
    },
    {
      "midi": 68,
      "hit": false,
      "t": 183136.51625000086,
      "d": 125.00010416665464,
      "v": 44
    },
    {
      "midi": 61,
      "hit": false,
      "t": 183136.516250001,
      "d": 125.00010416665464,
      "v": 30
    },
    {
      "midi": 64,
      "hit": false,
      "t": 183136.516250001,
      "d": 125.00010416665464,
      "v": 30
    },
    {
      "midi": 68,
      "hit": false,
      "t": 183136.516250001,
      "d": 125.00010416665464,
      "v": 30
    },
    {
      "midi": 64,
      "hit": false,
      "t": 183147.87989583774,
      "d": 102.27281250001397,
      "v": 47
    },
    {
      "midi": 76,
      "hit": false,
      "t": 183147.87989583774,
      "d": 102.27281250001397,
      "v": 47
    },
    {
      "midi": 64,
      "hit": false,
      "t": 183250.1527083333,
      "d": 125.00010416665464,
      "v": 64
    },
    {
      "midi": 61,
      "hit": false,
      "t": 183250.1527083333,
      "d": 261.36385416664416,
      "v": 64
    },
    {
      "midi": 69,
      "hit": false,
      "t": 183250.1527083333,
      "d": 261.36385416664416,
      "v": 64
    },
    {
      "midi": 33,
      "hit": false,
      "t": 183272.87999999983,
      "d": 397.7276041666628,
      "v": 93
    },
    {
      "midi": 45,
      "hit": false,
      "t": 183272.88000000085,
      "d": 261.36385416667326,
      "v": 59
    },
    {
      "midi": 52,
      "hit": false,
      "t": 183272.88000000085,
      "d": 261.36385416667326,
      "v": 59
    },
    {
      "midi": 57,
      "hit": false,
      "t": 183272.88000000085,
      "d": 261.36385416667326,
      "v": 59
    },
    {
      "midi": 61,
      "hit": false,
      "t": 183272.88000000085,
      "d": 261.36385416667326,
      "v": 44
    },
    {
      "midi": 64,
      "hit": false,
      "t": 183272.88000000085,
      "d": 261.36385416667326,
      "v": 44
    },
    {
      "midi": 69,
      "hit": false,
      "t": 183272.88000000085,
      "d": 261.36385416667326,
      "v": 44
    },
    {
      "midi": 61,
      "hit": false,
      "t": 183272.880000001,
      "d": 261.36385416667326,
      "v": 38
    },
    {
      "midi": 64,
      "hit": false,
      "t": 183272.880000001,
      "d": 261.36385416667326,
      "v": 38
    },
    {
      "midi": 69,
      "hit": false,
      "t": 183272.880000001,
      "d": 261.36385416667326,
      "v": 38
    },
    {
      "midi": 45,
      "hit": false,
      "t": 183545.60750000086,
      "d": 261.36385416667326,
      "v": 59
    },
    {
      "midi": 52,
      "hit": false,
      "t": 183545.60750000086,
      "d": 261.36385416667326,
      "v": 59
    },
    {
      "midi": 57,
      "hit": false,
      "t": 183545.60750000086,
      "d": 261.36385416667326,
      "v": 59
    },
    {
      "midi": 61,
      "hit": false,
      "t": 183545.60750000086,
      "d": 261.36385416667326,
      "v": 45
    },
    {
      "midi": 64,
      "hit": false,
      "t": 183545.60750000086,
      "d": 261.36385416667326,
      "v": 45
    },
    {
      "midi": 69,
      "hit": false,
      "t": 183545.60750000086,
      "d": 261.36385416667326,
      "v": 45
    },
    {
      "midi": 61,
      "hit": false,
      "t": 183545.607500001,
      "d": 261.36385416667326,
      "v": 39
    },
    {
      "midi": 64,
      "hit": false,
      "t": 183545.607500001,
      "d": 261.36385416667326,
      "v": 39
    },
    {
      "midi": 69,
      "hit": false,
      "t": 183545.607500001,
      "d": 261.36385416667326,
      "v": 39
    },
    {
      "midi": 57,
      "hit": false,
      "t": 183545.607500001,
      "d": 397.7276041666628,
      "v": 76
    },
    {
      "midi": 45,
      "hit": false,
      "t": 183545.607500001,
      "d": 670.4551041666418,
      "v": 76
    },
    {
      "midi": 61,
      "hit": false,
      "t": 183659.24395833327,
      "d": 261.36385416667326,
      "v": 64
    },
    {
      "midi": 64,
      "hit": false,
      "t": 183659.24395833327,
      "d": 261.36385416667326,
      "v": 64
    },
    {
      "midi": 69,
      "hit": false,
      "t": 183659.24395833327,
      "d": 261.36385416667326,
      "v": 64
    },
    {
      "midi": 33,
      "hit": false,
      "t": 183681.97124999983,
      "d": 125.00010416665464,
      "v": 93
    },
    {
      "midi": 80,
      "hit": false,
      "t": 183806.97135416672,
      "d": 511.36406250004075,
      "v": 84
    },
    {
      "midi": 35,
      "hit": false,
      "t": 183818.33499999982,
      "d": 397.7276041666628,
      "v": 93
    },
    {
      "midi": 61,
      "hit": false,
      "t": 183818.33500000086,
      "d": 125.00010416665464,
      "v": 55
    },
    {
      "midi": 64,
      "hit": false,
      "t": 183818.33500000086,
      "d": 125.00010416665464,
      "v": 55
    },
    {
      "midi": 69,
      "hit": false,
      "t": 183818.33500000086,
      "d": 125.00010416665464,
      "v": 55
    },
    {
      "midi": 61,
      "hit": false,
      "t": 183818.335000001,
      "d": 125.00010416665464,
      "v": 49
    },
    {
      "midi": 64,
      "hit": false,
      "t": 183818.335000001,
      "d": 125.00010416665464,
      "v": 49
    },
    {
      "midi": 69,
      "hit": false,
      "t": 183818.335000001,
      "d": 125.00010416665464,
      "v": 49
    },
    {
      "midi": 45,
      "hit": false,
      "t": 183954.69875000085,
      "d": 125.00010416665464,
      "v": 59
    },
    {
      "midi": 52,
      "hit": false,
      "t": 183954.69875000085,
      "d": 125.00010416665464,
      "v": 59
    },
    {
      "midi": 61,
      "hit": false,
      "t": 183954.69875000085,
      "d": 125.00010416665464,
      "v": 44
    },
    {
      "midi": 69,
      "hit": false,
      "t": 183954.69875000085,
      "d": 125.00010416665464,
      "v": 44
    },
    {
      "midi": 64,
      "hit": false,
      "t": 183954.69875000085,
      "d": 147.7273958333244,
      "v": 44
    },
    {
      "midi": 57,
      "hit": false,
      "t": 183954.69875000085,
      "d": 261.36385416664416,
      "v": 59
    },
    {
      "midi": 57,
      "hit": false,
      "t": 183954.698750001,
      "d": 125.00010416665464,
      "v": 76
    },
    {
      "midi": 61,
      "hit": false,
      "t": 183954.698750001,
      "d": 125.00010416665464,
      "v": 30
    },
    {
      "midi": 69,
      "hit": false,
      "t": 183954.698750001,
      "d": 125.00010416665464,
      "v": 30
    },
    {
      "midi": 64,
      "hit": false,
      "t": 183954.698750001,
      "d": 147.7273958333244,
      "v": 30
    },
    {
      "midi": 83,
      "hit": false,
      "t": 184216.06260416674,
      "d": 125.00010416668374,
      "v": 84
    },
    {
      "midi": 35,
      "hit": false,
      "t": 184227.42624999981,
      "d": 125.00010416665464,
      "v": 93
    },
    {
      "midi": 61,
      "hit": false,
      "t": 184227.42625000083,
      "d": 125.00010416665464,
      "v": 44
    },
    {
      "midi": 64,
      "hit": false,
      "t": 184227.42625000083,
      "d": 125.00010416665464,
      "v": 44
    },
    {
      "midi": 69,
      "hit": false,
      "t": 184227.42625000083,
      "d": 125.00010416665464,
      "v": 44
    },
    {
      "midi": 61,
      "hit": false,
      "t": 184227.42625000098,
      "d": 125.00010416665464,
      "v": 30
    },
    {
      "midi": 64,
      "hit": false,
      "t": 184227.42625000098,
      "d": 125.00010416665464,
      "v": 30
    },
    {
      "midi": 69,
      "hit": false,
      "t": 184227.42625000098,
      "d": 125.00010416665464,
      "v": 30
    },
    {
      "midi": 80,
      "hit": false,
      "t": 184352.42635416676,
      "d": 534.0913541666814,
      "v": 84
    },
    {
      "midi": 37,
      "hit": false,
      "t": 184363.7899999998,
      "d": 125.00010416665464,
      "v": 93
    },
    {
      "midi": 61,
      "hit": false,
      "t": 184363.79000000082,
      "d": 125.00010416665464,
      "v": 65
    },
    {
      "midi": 64,
      "hit": false,
      "t": 184363.79000000082,
      "d": 125.00010416665464,
      "v": 65
    },
    {
      "midi": 69,
      "hit": false,
      "t": 184363.79000000082,
      "d": 125.00010416665464,
      "v": 65
    },
    {
      "midi": 45,
      "hit": false,
      "t": 184363.79000000082,
      "d": 261.36385416664416,
      "v": 59
    },
    {
      "midi": 52,
      "hit": false,
      "t": 184363.79000000082,
      "d": 261.36385416664416,
      "v": 59
    },
    {
      "midi": 57,
      "hit": false,
      "t": 184363.79000000082,
      "d": 261.36385416664416,
      "v": 59
    },
    {
      "midi": 61,
      "hit": false,
      "t": 184363.79000000097,
      "d": 125.00010416665464,
      "v": 59
    },
    {
      "midi": 64,
      "hit": false,
      "t": 184363.79000000097,
      "d": 125.00010416665464,
      "v": 59
    },
    {
      "midi": 69,
      "hit": false,
      "t": 184363.79000000097,
      "d": 125.00010416665464,
      "v": 59
    },
    {
      "midi": 57,
      "hit": false,
      "t": 184363.79000000097,
      "d": 261.36385416664416,
      "v": 76
    },
    {
      "midi": 45,
      "hit": false,
      "t": 184363.79000000097,
      "d": 397.7276041666337,
      "v": 76
    },
    {
      "midi": 61,
      "hit": false,
      "t": 184500.1537500008,
      "d": 125.00010416665464,
      "v": 44
    },
    {
      "midi": 64,
      "hit": false,
      "t": 184500.1537500008,
      "d": 125.00010416665464,
      "v": 44
    },
    {
      "midi": 69,
      "hit": false,
      "t": 184500.1537500008,
      "d": 125.00010416665464,
      "v": 44
    },
    {
      "midi": 61,
      "hit": false,
      "t": 184500.15375000096,
      "d": 125.00010416665464,
      "v": 30
    },
    {
      "midi": 64,
      "hit": false,
      "t": 184500.15375000096,
      "d": 125.00010416665464,
      "v": 30
    },
    {
      "midi": 69,
      "hit": false,
      "t": 184500.15375000096,
      "d": 125.00010416665464,
      "v": 30
    },
    {
      "midi": 37,
      "hit": false,
      "t": 184636.51749999978,
      "d": 261.36385416667326,
      "v": 93
    },
    {
      "midi": 61,
      "hit": false,
      "t": 184636.5175000008,
      "d": 125.00010416665464,
      "v": 44
    },
    {
      "midi": 64,
      "hit": false,
      "t": 184636.5175000008,
      "d": 125.00010416665464,
      "v": 44
    },
    {
      "midi": 69,
      "hit": false,
      "t": 184636.5175000008,
      "d": 125.00010416665464,
      "v": 44
    },
    {
      "midi": 61,
      "hit": false,
      "t": 184636.51750000095,
      "d": 125.00010416665464,
      "v": 30
    },
    {
      "midi": 64,
      "hit": false,
      "t": 184636.51750000095,
      "d": 125.00010416665464,
      "v": 30
    },
    {
      "midi": 69,
      "hit": false,
      "t": 184636.51750000095,
      "d": 125.00010416665464,
      "v": 30
    },
    {
      "midi": 83,
      "hit": false,
      "t": 184761.5176041668,
      "d": 125.00010416665464,
      "v": 84
    },
    {
      "midi": 45,
      "hit": false,
      "t": 184772.8812500008,
      "d": 125.00010416665464,
      "v": 59
    },
    {
      "midi": 52,
      "hit": false,
      "t": 184772.8812500008,
      "d": 125.00010416665464,
      "v": 59
    },
    {
      "midi": 57,
      "hit": false,
      "t": 184772.8812500008,
      "d": 261.36385416664416,
      "v": 59
    },
    {
      "midi": 61,
      "hit": false,
      "t": 184772.8812500008,
      "d": 261.36385416664416,
      "v": 61
    },
    {
      "midi": 64,
      "hit": false,
      "t": 184772.8812500008,
      "d": 261.36385416664416,
      "v": 61
    },
    {
      "midi": 69,
      "hit": false,
      "t": 184772.8812500008,
      "d": 261.36385416664416,
      "v": 61
    },
    {
      "midi": 61,
      "hit": false,
      "t": 184772.88125000094,
      "d": 261.36385416667326,
      "v": 55
    },
    {
      "midi": 64,
      "hit": false,
      "t": 184772.88125000094,
      "d": 261.36385416667326,
      "v": 55
    },
    {
      "midi": 69,
      "hit": false,
      "t": 184772.88125000094,
      "d": 261.36385416667326,
      "v": 55
    },
    {
      "midi": 57,
      "hit": false,
      "t": 184772.88125000094,
      "d": 397.7276041666628,
      "v": 76
    },
    {
      "midi": 45,
      "hit": false,
      "t": 184772.88125000094,
      "d": 534.0913541666523,
      "v": 76
    },
    {
      "midi": 61,
      "hit": false,
      "t": 184886.51770833327,
      "d": 261.36385416667326,
      "v": 64
    },
    {
      "midi": 80,
      "hit": false,
      "t": 184897.88135416678,
      "d": 534.0913541666814,
      "v": 84
    },
    {
      "midi": 39,
      "hit": false,
      "t": 184909.2449999998,
      "d": 261.36385416667326,
      "v": 93
    },
    {
      "midi": 61,
      "hit": false,
      "t": 185045.60875000077,
      "d": 125.00010416665464,
      "v": 44
    },
    {
      "midi": 64,
      "hit": false,
      "t": 185045.60875000077,
      "d": 125.00010416665464,
      "v": 44
    },
    {
      "midi": 69,
      "hit": false,
      "t": 185045.60875000077,
      "d": 125.00010416665464,
      "v": 44
    },
    {
      "midi": 61,
      "hit": false,
      "t": 185045.60875000095,
      "d": 125.00010416665464,
      "v": 30
    },
    {
      "midi": 64,
      "hit": false,
      "t": 185045.60875000095,
      "d": 125.00010416665464,
      "v": 30
    },
    {
      "midi": 69,
      "hit": false,
      "t": 185045.60875000095,
      "d": 125.00010416665464,
      "v": 30
    },
    {
      "midi": 64,
      "hit": false,
      "t": 185159.24520833328,
      "d": 261.36385416667326,
      "v": 64
    },
    {
      "midi": 40,
      "hit": false,
      "t": 185181.9724999998,
      "d": 125.00010416665464,
      "v": 93
    },
    {
      "midi": 61,
      "hit": false,
      "t": 185181.97250000076,
      "d": 125.00010416665464,
      "v": 61
    },
    {
      "midi": 64,
      "hit": false,
      "t": 185181.97250000076,
      "d": 125.00010416665464,
      "v": 61
    },
    {
      "midi": 69,
      "hit": false,
      "t": 185181.97250000076,
      "d": 125.00010416665464,
      "v": 61
    },
    {
      "midi": 61,
      "hit": false,
      "t": 185181.97250000093,
      "d": 125.00010416665464,
      "v": 55
    },
    {
      "midi": 64,
      "hit": false,
      "t": 185181.97250000093,
      "d": 125.00010416665464,
      "v": 55
    },
    {
      "midi": 69,
      "hit": false,
      "t": 185181.97250000093,
      "d": 125.00010416665464,
      "v": 55
    },
    {
      "midi": 83,
      "hit": false,
      "t": 185306.9726041668,
      "d": 125.00010416665464,
      "v": 84
    },
    {
      "midi": 61,
      "hit": false,
      "t": 185318.33625000075,
      "d": 113.63645833331975,
      "v": 44
    },
    {
      "midi": 64,
      "hit": false,
      "t": 185318.33625000075,
      "d": 113.63645833331975,
      "v": 44
    },
    {
      "midi": 69,
      "hit": false,
      "t": 185318.33625000075,
      "d": 113.63645833331975,
      "v": 44
    },
    {
      "midi": 61,
      "hit": false,
      "t": 185318.33625000092,
      "d": 113.63645833331975,
      "v": 30
    },
    {
      "midi": 64,
      "hit": false,
      "t": 185318.33625000092,
      "d": 113.63645833331975,
      "v": 30
    },
    {
      "midi": 69,
      "hit": false,
      "t": 185318.33625000092,
      "d": 113.63645833331975,
      "v": 30
    },
    {
      "midi": 64,
      "hit": false,
      "t": 185431.97270833328,
      "d": 1352.2738541666768,
      "v": 64
    },
    {
      "midi": 68,
      "hit": false,
      "t": 185431.97270833328,
      "d": 1352.2738541666768,
      "v": 64
    },
    {
      "midi": 71,
      "hit": false,
      "t": 185431.97270833328,
      "d": 1352.2738541666768,
      "v": 64
    },
    {
      "midi": 80,
      "hit": false,
      "t": 185443.3363541668,
      "d": 534.0913541666814,
      "v": 84
    },
    {
      "midi": 37,
      "hit": false,
      "t": 185454.69999999978,
      "d": 397.7276041666628,
      "v": 93
    },
    {
      "midi": 49,
      "hit": false,
      "t": 185454.70000000074,
      "d": 125.00010416665464,
      "v": 59
    },
    {
      "midi": 44,
      "hit": false,
      "t": 185454.70000000074,
      "d": 261.36385416664416,
      "v": 59
    },
    {
      "midi": 56,
      "hit": false,
      "t": 185454.70000000074,
      "d": 261.36385416664416,
      "v": 59
    },
    {
      "midi": 61,
      "hit": false,
      "t": 185454.70000000074,
      "d": 261.36385416664416,
      "v": 61
    },
    {
      "midi": 64,
      "hit": false,
      "t": 185454.70000000074,
      "d": 261.36385416664416,
      "v": 61
    },
    {
      "midi": 68,
      "hit": false,
      "t": 185454.70000000074,
      "d": 261.36385416664416,
      "v": 61
    },
    {
      "midi": 61,
      "hit": false,
      "t": 185454.7000000009,
      "d": 261.36385416667326,
      "v": 55
    },
    {
      "midi": 64,
      "hit": false,
      "t": 185454.7000000009,
      "d": 261.36385416667326,
      "v": 55
    },
    {
      "midi": 68,
      "hit": false,
      "t": 185454.7000000009,
      "d": 261.36385416667326,
      "v": 55
    },
    {
      "midi": 64,
      "hit": false,
      "t": 185466.06364583777,
      "d": 102.27281250001397,
      "v": 76
    },
    {
      "midi": 76,
      "hit": false,
      "t": 185466.06364583777,
      "d": 102.27281250001397,
      "v": 76
    },
    {
      "midi": 64,
      "hit": false,
      "t": 185602.4273958378,
      "d": 102.27281250001397,
      "v": 41
    },
    {
      "midi": 76,
      "hit": false,
      "t": 185602.4273958378,
      "d": 102.27281250001397,
      "v": 41
    },
    {
      "midi": 56,
      "hit": false,
      "t": 185727.42750000072,
      "d": 125.00010416665464,
      "v": 59
    },
    {
      "midi": 44,
      "hit": false,
      "t": 185727.42750000072,
      "d": 261.36385416664416,
      "v": 59
    },
    {
      "midi": 49,
      "hit": false,
      "t": 185727.42750000072,
      "d": 261.36385416664416,
      "v": 59
    },
    {
      "midi": 61,
      "hit": false,
      "t": 185727.42750000072,
      "d": 261.36385416664416,
      "v": 44
    },
    {
      "midi": 64,
      "hit": false,
      "t": 185727.42750000072,
      "d": 261.36385416664416,
      "v": 44
    },
    {
      "midi": 68,
      "hit": false,
      "t": 185727.42750000072,
      "d": 261.36385416664416,
      "v": 44
    },
    {
      "midi": 56,
      "hit": false,
      "t": 185727.42750000092,
      "d": 261.36385416667326,
      "v": 76
    },
    {
      "midi": 61,
      "hit": false,
      "t": 185727.42750000092,
      "d": 261.36385416667326,
      "v": 34
    },
    {
      "midi": 64,
      "hit": false,
      "t": 185727.42750000092,
      "d": 261.36385416667326,
      "v": 34
    },
    {
      "midi": 68,
      "hit": false,
      "t": 185727.42750000092,
      "d": 261.36385416667326,
      "v": 34
    },
    {
      "midi": 49,
      "hit": false,
      "t": 185727.42750000092,
      "d": 397.7276041666628,
      "v": 76
    },
    {
      "midi": 64,
      "hit": false,
      "t": 185738.7911458378,
      "d": 102.27281250001397,
      "v": 41
    },
    {
      "midi": 76,
      "hit": false,
      "t": 185738.7911458378,
      "d": 102.27281250001397,
      "v": 41
    },
    {
      "midi": 83,
      "hit": false,
      "t": 185852.42760416682,
      "d": 125.00010416665464,
      "v": 84
    },
    {
      "midi": 37,
      "hit": false,
      "t": 185863.79124999978,
      "d": 125.00010416665464,
      "v": 93
    },
    {
      "midi": 64,
      "hit": false,
      "t": 185875.15489583783,
      "d": 102.27281250001397,
      "v": 41
    },
    {
      "midi": 76,
      "hit": false,
      "t": 185875.15489583783,
      "d": 102.27281250001397,
      "v": 41
    },
    {
      "midi": 80,
      "hit": false,
      "t": 185988.7913541668,
      "d": 125.00010416668374,
      "v": 84
    },
    {
      "midi": 32,
      "hit": false,
      "t": 186000.15499999977,
      "d": 397.7276041666628,
      "v": 93
    },
    {
      "midi": 61,
      "hit": false,
      "t": 186000.1550000007,
      "d": 125.00010416665464,
      "v": 55
    },
    {
      "midi": 64,
      "hit": false,
      "t": 186000.1550000007,
      "d": 125.00010416665464,
      "v": 55
    },
    {
      "midi": 68,
      "hit": false,
      "t": 186000.1550000007,
      "d": 125.00010416665464,
      "v": 55
    },
    {
      "midi": 61,
      "hit": false,
      "t": 186000.15500000093,
      "d": 125.00010416665464,
      "v": 49
    },
    {
      "midi": 64,
      "hit": false,
      "t": 186000.15500000093,
      "d": 125.00010416665464,
      "v": 49
    },
    {
      "midi": 68,
      "hit": false,
      "t": 186000.15500000093,
      "d": 125.00010416665464,
      "v": 49
    },
    {
      "midi": 64,
      "hit": false,
      "t": 186011.51864583784,
      "d": 102.27281250001397,
      "v": 41
    },
    {
      "midi": 76,
      "hit": false,
      "t": 186011.51864583784,
      "d": 102.27281250001397,
      "v": 41
    },
    {
      "midi": 76,
      "hit": false,
      "t": 186125.15510416683,
      "d": 261.36385416664416,
      "v": 84
    },
    {
      "midi": 44,
      "hit": false,
      "t": 186136.5187500007,
      "d": 125.00010416665464,
      "v": 59
    },
    {
      "midi": 49,
      "hit": false,
      "t": 186136.5187500007,
      "d": 125.00010416665464,
      "v": 59
    },
    {
      "midi": 56,
      "hit": false,
      "t": 186136.5187500007,
      "d": 125.00010416665464,
      "v": 59
    },
    {
      "midi": 61,
      "hit": false,
      "t": 186136.5187500007,
      "d": 159.0910416666593,
      "v": 44
    },
    {
      "midi": 64,
      "hit": false,
      "t": 186136.5187500007,
      "d": 159.0910416666593,
      "v": 44
    },
    {
      "midi": 68,
      "hit": false,
      "t": 186136.5187500007,
      "d": 159.0910416666593,
      "v": 44
    },
    {
      "midi": 49,
      "hit": false,
      "t": 186136.51875000092,
      "d": 125.00010416665464,
      "v": 76
    },
    {
      "midi": 56,
      "hit": false,
      "t": 186136.51875000092,
      "d": 125.00010416665464,
      "v": 76
    },
    {
      "midi": 61,
      "hit": false,
      "t": 186136.51875000092,
      "d": 159.0910416666593,
      "v": 30
    },
    {
      "midi": 64,
      "hit": false,
      "t": 186136.51875000092,
      "d": 159.0910416666593,
      "v": 30
    },
    {
      "midi": 68,
      "hit": false,
      "t": 186136.51875000092,
      "d": 159.0910416666593,
      "v": 30
    },
    {
      "midi": 64,
      "hit": false,
      "t": 186147.88239583786,
      "d": 102.27281250001397,
      "v": 41
    },
    {
      "midi": 76,
      "hit": false,
      "t": 186147.88239583786,
      "d": 102.27281250001397,
      "v": 41
    },
    {
      "midi": 64,
      "hit": false,
      "t": 186284.24614583788,
      "d": 102.27281250001397,
      "v": 76
    },
    {
      "midi": 76,
      "hit": false,
      "t": 186284.24614583788,
      "d": 102.27281250001397,
      "v": 76
    },
    {
      "midi": 73,
      "hit": false,
      "t": 186397.8826041668,
      "d": 261.36385416664416,
      "v": 84
    },
    {
      "midi": 32,
      "hit": false,
      "t": 186409.24624999976,
      "d": 125.00010416665464,
      "v": 93
    },
    {
      "midi": 61,
      "hit": false,
      "t": 186409.24625000067,
      "d": 125.00010416665464,
      "v": 44
    },
    {
      "midi": 64,
      "hit": false,
      "t": 186409.24625000067,
      "d": 125.00010416665464,
      "v": 44
    },
    {
      "midi": 68,
      "hit": false,
      "t": 186409.24625000067,
      "d": 125.00010416665464,
      "v": 44
    },
    {
      "midi": 61,
      "hit": false,
      "t": 186409.2462500009,
      "d": 125.00010416665464,
      "v": 30
    },
    {
      "midi": 64,
      "hit": false,
      "t": 186409.2462500009,
      "d": 125.00010416665464,
      "v": 30
    },
    {
      "midi": 68,
      "hit": false,
      "t": 186409.2462500009,
      "d": 125.00010416665464,
      "v": 30
    },
    {
      "midi": 64,
      "hit": false,
      "t": 186420.6098958379,
      "d": 102.27281250001397,
      "v": 41
    },
    {
      "midi": 76,
      "hit": false,
      "t": 186420.6098958379,
      "d": 102.27281250001397,
      "v": 41
    },
    {
      "midi": 76,
      "hit": false,
      "t": 186534.2463541668,
      "d": 397.7276041666628,
      "v": 84
    },
    {
      "midi": 37,
      "hit": false,
      "t": 186545.60999999975,
      "d": 397.7276041666628,
      "v": 93
    },
    {
      "midi": 61,
      "hit": false,
      "t": 186545.61000000066,
      "d": 125.00010416665464,
      "v": 57
    },
    {
      "midi": 64,
      "hit": false,
      "t": 186545.61000000066,
      "d": 125.00010416665464,
      "v": 57
    },
    {
      "midi": 68,
      "hit": false,
      "t": 186545.61000000066,
      "d": 125.00010416665464,
      "v": 57
    },
    {
      "midi": 44,
      "hit": false,
      "t": 186545.61000000066,
      "d": 261.36385416664416,
      "v": 59
    },
    {
      "midi": 49,
      "hit": false,
      "t": 186545.61000000066,
      "d": 261.36385416664416,
      "v": 59
    },
    {
      "midi": 56,
      "hit": false,
      "t": 186545.61000000066,
      "d": 397.7276041666337,
      "v": 59
    },
    {
      "midi": 61,
      "hit": false,
      "t": 186545.6100000009,
      "d": 125.00010416665464,
      "v": 51
    },
    {
      "midi": 64,
      "hit": false,
      "t": 186545.6100000009,
      "d": 125.00010416665464,
      "v": 51
    },
    {
      "midi": 68,
      "hit": false,
      "t": 186545.6100000009,
      "d": 125.00010416665464,
      "v": 51
    },
    {
      "midi": 56,
      "hit": false,
      "t": 186545.6100000009,
      "d": 261.36385416664416,
      "v": 76
    },
    {
      "midi": 49,
      "hit": false,
      "t": 186545.6100000009,
      "d": 397.7276041666337,
      "v": 76
    },
    {
      "midi": 64,
      "hit": false,
      "t": 186556.97364583792,
      "d": 102.27281250001397,
      "v": 41
    },
    {
      "midi": 76,
      "hit": false,
      "t": 186556.97364583792,
      "d": 102.27281250001397,
      "v": 41
    },
    {
      "midi": 61,
      "hit": false,
      "t": 186681.97375000064,
      "d": 125.00010416665464,
      "v": 44
    },
    {
      "midi": 64,
      "hit": false,
      "t": 186681.97375000064,
      "d": 125.00010416665464,
      "v": 44
    },
    {
      "midi": 68,
      "hit": false,
      "t": 186681.97375000064,
      "d": 125.00010416665464,
      "v": 44
    },
    {
      "midi": 61,
      "hit": false,
      "t": 186681.97375000088,
      "d": 125.00010416665464,
      "v": 30
    },
    {
      "midi": 64,
      "hit": false,
      "t": 186681.97375000088,
      "d": 125.00010416665464,
      "v": 30
    },
    {
      "midi": 68,
      "hit": false,
      "t": 186681.97375000088,
      "d": 125.00010416665464,
      "v": 30
    },
    {
      "midi": 64,
      "hit": false,
      "t": 186693.33739583794,
      "d": 102.27281250001397,
      "v": 41
    },
    {
      "midi": 76,
      "hit": false,
      "t": 186693.33739583794,
      "d": 102.27281250001397,
      "v": 41
    },
    {
      "midi": 61,
      "hit": false,
      "t": 186818.33750000063,
      "d": 125.00010416665464,
      "v": 44
    },
    {
      "midi": 64,
      "hit": false,
      "t": 186818.33750000063,
      "d": 125.00010416665464,
      "v": 44
    },
    {
      "midi": 68,
      "hit": false,
      "t": 186818.33750000063,
      "d": 125.00010416665464,
      "v": 44
    },
    {
      "midi": 61,
      "hit": false,
      "t": 186818.33750000087,
      "d": 125.00010416665464,
      "v": 30
    },
    {
      "midi": 64,
      "hit": false,
      "t": 186818.33750000087,
      "d": 125.00010416665464,
      "v": 30
    },
    {
      "midi": 68,
      "hit": false,
      "t": 186818.33750000087,
      "d": 125.00010416665464,
      "v": 30
    },
    {
      "midi": 64,
      "hit": false,
      "t": 186829.70114583796,
      "d": 102.27281250001397,
      "v": 41
    },
    {
      "midi": 76,
      "hit": false,
      "t": 186829.70114583796,
      "d": 102.27281250001397,
      "v": 41
    },
    {
      "midi": 64,
      "hit": false,
      "t": 186931.97395833328,
      "d": 261.36385416667326,
      "v": 64
    },
    {
      "midi": 68,
      "hit": false,
      "t": 186931.97395833328,
      "d": 261.36385416667326,
      "v": 64
    },
    {
      "midi": 71,
      "hit": false,
      "t": 186931.97395833328,
      "d": 261.36385416667326,
      "v": 64
    },
    {
      "midi": 32,
      "hit": false,
      "t": 186954.70124999975,
      "d": 125.00010416665464,
      "v": 93
    },
    {
      "midi": 44,
      "hit": false,
      "t": 186954.70125000062,
      "d": 125.00010416665464,
      "v": 59
    },
    {
      "midi": 49,
      "hit": false,
      "t": 186954.70125000062,
      "d": 125.00010416665464,
      "v": 59
    },
    {
      "midi": 56,
      "hit": false,
      "t": 186954.70125000062,
      "d": 261.36385416664416,
      "v": 59
    },
    {
      "midi": 61,
      "hit": false,
      "t": 186954.70125000062,
      "d": 261.36385416664416,
      "v": 57
    },
    {
      "midi": 64,
      "hit": false,
      "t": 186954.70125000062,
      "d": 261.36385416664416,
      "v": 57
    },
    {
      "midi": 68,
      "hit": false,
      "t": 186954.70125000062,
      "d": 261.36385416664416,
      "v": 57
    },
    {
      "midi": 61,
      "hit": false,
      "t": 186954.70125000086,
      "d": 261.36385416667326,
      "v": 51
    },
    {
      "midi": 64,
      "hit": false,
      "t": 186954.70125000086,
      "d": 261.36385416667326,
      "v": 51
    },
    {
      "midi": 68,
      "hit": false,
      "t": 186954.70125000086,
      "d": 261.36385416667326,
      "v": 51
    },
    {
      "midi": 56,
      "hit": false,
      "t": 186954.70125000086,
      "d": 397.7276041666628,
      "v": 76
    },
    {
      "midi": 49,
      "hit": false,
      "t": 186954.70125000086,
      "d": 670.4551041666418,
      "v": 76
    },
    {
      "midi": 64,
      "hit": false,
      "t": 186966.06489583798,
      "d": 102.27281250001397,
      "v": 41
    },
    {
      "midi": 76,
      "hit": false,
      "t": 186966.06489583798,
      "d": 102.27281250001397,
      "v": 41
    },
    {
      "midi": 80,
      "hit": false,
      "t": 187079.70135416678,
      "d": 397.7276041666919,
      "v": 84
    },
    {
      "midi": 37,
      "hit": false,
      "t": 187091.06499999974,
      "d": 125.00010416665464,
      "v": 93
    },
    {
      "midi": 64,
      "hit": false,
      "t": 187102.428645838,
      "d": 102.27281250001397,
      "v": 74
    },
    {
      "midi": 76,
      "hit": false,
      "t": 187102.428645838,
      "d": 102.27281250001397,
      "v": 74
    },
    {
      "midi": 61,
      "hit": false,
      "t": 187204.7014583333,
      "d": 125.00010416665464,
      "v": 64
    },
    {
      "midi": 64,
      "hit": false,
      "t": 187204.7014583333,
      "d": 125.00010416665464,
      "v": 64
    },
    {
      "midi": 68,
      "hit": false,
      "t": 187204.7014583333,
      "d": 125.00010416665464,
      "v": 64
    },
    {
      "midi": 32,
      "hit": false,
      "t": 187227.42874999973,
      "d": 261.36385416667326,
      "v": 93
    },
    {
      "midi": 61,
      "hit": false,
      "t": 187227.4287500006,
      "d": 125.00010416665464,
      "v": 44
    },
    {
      "midi": 64,
      "hit": false,
      "t": 187227.4287500006,
      "d": 125.00010416665464,
      "v": 44
    },
    {
      "midi": 68,
      "hit": false,
      "t": 187227.4287500006,
      "d": 125.00010416665464,
      "v": 44
    },
    {
      "midi": 61,
      "hit": false,
      "t": 187227.42875000086,
      "d": 125.00010416665464,
      "v": 30
    },
    {
      "midi": 64,
      "hit": false,
      "t": 187227.42875000086,
      "d": 125.00010416665464,
      "v": 30
    },
    {
      "midi": 68,
      "hit": false,
      "t": 187227.42875000086,
      "d": 125.00010416665464,
      "v": 30
    },
    {
      "midi": 64,
      "hit": false,
      "t": 187238.792395838,
      "d": 102.27281250001397,
      "v": 47
    },
    {
      "midi": 76,
      "hit": false,
      "t": 187238.792395838,
      "d": 102.27281250001397,
      "v": 47
    },
    {
      "midi": 63,
      "hit": false,
      "t": 187341.06520833328,
      "d": 125.00010416665464,
      "v": 64
    },
    {
      "midi": 66,
      "hit": false,
      "t": 187341.06520833328,
      "d": 125.00010416665464,
      "v": 64
    },
    {
      "midi": 69,
      "hit": false,
      "t": 187341.06520833328,
      "d": 125.00010416665464,
      "v": 64
    },
    {
      "midi": 61,
      "hit": false,
      "t": 187363.7925000006,
      "d": 125.00010416665464,
      "v": 57
    },
    {
      "midi": 64,
      "hit": false,
      "t": 187363.7925000006,
      "d": 125.00010416665464,
      "v": 57
    },
    {
      "midi": 68,
      "hit": false,
      "t": 187363.7925000006,
      "d": 125.00010416665464,
      "v": 57
    },
    {
      "midi": 61,
      "hit": false,
      "t": 187363.79250000085,
      "d": 125.00010416665464,
      "v": 51
    },
    {
      "midi": 64,
      "hit": false,
      "t": 187363.79250000085,
      "d": 125.00010416665464,
      "v": 51
    },
    {
      "midi": 68,
      "hit": false,
      "t": 187363.79250000085,
      "d": 125.00010416665464,
      "v": 51
    },
    {
      "midi": 64,
      "hit": false,
      "t": 187375.15614583803,
      "d": 102.27281250001397,
      "v": 47
    },
    {
      "midi": 76,
      "hit": false,
      "t": 187375.15614583803,
      "d": 102.27281250001397,
      "v": 47
    },
    {
      "midi": 64,
      "hit": false,
      "t": 187477.42895833327,
      "d": 136.36374999998952,
      "v": 64
    },
    {
      "midi": 68,
      "hit": false,
      "t": 187477.42895833327,
      "d": 261.36385416664416,
      "v": 64
    },
    {
      "midi": 71,
      "hit": false,
      "t": 187477.42895833327,
      "d": 261.36385416664416,
      "v": 64
    },
    {
      "midi": 83,
      "hit": false,
      "t": 187488.7926041668,
      "d": 125.00010416665464,
      "v": 84
    },
    {
      "midi": 44,
      "hit": false,
      "t": 187500.15625000058,
      "d": 125.00010416665464,
      "v": 59
    },
    {
      "midi": 49,
      "hit": false,
      "t": 187500.15625000058,
      "d": 125.00010416665464,
      "v": 59
    },
    {
      "midi": 61,
      "hit": false,
      "t": 187500.15625000058,
      "d": 125.00010416665464,
      "v": 44
    },
    {
      "midi": 64,
      "hit": false,
      "t": 187500.15625000058,
      "d": 125.00010416665464,
      "v": 44
    },
    {
      "midi": 68,
      "hit": false,
      "t": 187500.15625000058,
      "d": 125.00010416665464,
      "v": 44
    },
    {
      "midi": 61,
      "hit": false,
      "t": 187500.15625000084,
      "d": 125.00010416665464,
      "v": 30
    },
    {
      "midi": 64,
      "hit": false,
      "t": 187500.15625000084,
      "d": 125.00010416665464,
      "v": 30
    },
    {
      "midi": 68,
      "hit": false,
      "t": 187500.15625000084,
      "d": 125.00010416665464,
      "v": 30
    },
    {
      "midi": 64,
      "hit": false,
      "t": 187511.51989583805,
      "d": 102.27281250001397,
      "v": 47
    },
    {
      "midi": 76,
      "hit": false,
      "t": 187511.51989583805,
      "d": 102.27281250001397,
      "v": 47
    },
    {
      "midi": 64,
      "hit": false,
      "t": 187613.79270833326,
      "d": 125.00010416665464,
      "v": 64
    },
    {
      "midi": 61,
      "hit": false,
      "t": 187613.79270833326,
      "d": 261.36385416664416,
      "v": 64
    },
    {
      "midi": 69,
      "hit": false,
      "t": 187613.79270833326,
      "d": 261.36385416664416,
      "v": 64
    },
    {
      "midi": 80,
      "hit": false,
      "t": 187625.1563541668,
      "d": 670.4551041666709,
      "v": 84
    },
    {
      "midi": 33,
      "hit": false,
      "t": 187636.51999999973,
      "d": 397.7276041666628,
      "v": 93
    },
    {
      "midi": 45,
      "hit": false,
      "t": 187636.52000000057,
      "d": 261.36385416667326,
      "v": 59
    },
    {
      "midi": 52,
      "hit": false,
      "t": 187636.52000000057,
      "d": 261.36385416667326,
      "v": 59
    },
    {
      "midi": 57,
      "hit": false,
      "t": 187636.52000000057,
      "d": 261.36385416667326,
      "v": 59
    },
    {
      "midi": 61,
      "hit": false,
      "t": 187636.52000000057,
      "d": 261.36385416667326,
      "v": 65
    },
    {
      "midi": 64,
      "hit": false,
      "t": 187636.52000000057,
      "d": 261.36385416667326,
      "v": 65
    },
    {
      "midi": 69,
      "hit": false,
      "t": 187636.52000000057,
      "d": 261.36385416667326,
      "v": 65
    },
    {
      "midi": 61,
      "hit": false,
      "t": 187636.52000000083,
      "d": 261.36385416667326,
      "v": 59
    },
    {
      "midi": 64,
      "hit": false,
      "t": 187636.52000000083,
      "d": 261.36385416667326,
      "v": 59
    },
    {
      "midi": 69,
      "hit": false,
      "t": 187636.52000000083,
      "d": 261.36385416667326,
      "v": 59
    },
    {
      "midi": 45,
      "hit": false,
      "t": 187909.24750000058,
      "d": 261.36385416667326,
      "v": 59
    },
    {
      "midi": 52,
      "hit": false,
      "t": 187909.24750000058,
      "d": 261.36385416667326,
      "v": 59
    },
    {
      "midi": 57,
      "hit": false,
      "t": 187909.24750000058,
      "d": 261.36385416667326,
      "v": 59
    },
    {
      "midi": 61,
      "hit": false,
      "t": 187909.24750000058,
      "d": 261.36385416667326,
      "v": 49
    },
    {
      "midi": 64,
      "hit": false,
      "t": 187909.24750000058,
      "d": 261.36385416667326,
      "v": 49
    },
    {
      "midi": 69,
      "hit": false,
      "t": 187909.24750000058,
      "d": 261.36385416667326,
      "v": 49
    },
    {
      "midi": 57,
      "hit": false,
      "t": 187909.24750000084,
      "d": 261.36385416667326,
      "v": 76
    },
    {
      "midi": 61,
      "hit": false,
      "t": 187909.24750000084,
      "d": 261.36385416667326,
      "v": 43
    },
    {
      "midi": 64,
      "hit": false,
      "t": 187909.24750000084,
      "d": 261.36385416667326,
      "v": 43
    },
    {
      "midi": 69,
      "hit": false,
      "t": 187909.24750000084,
      "d": 261.36385416667326,
      "v": 43
    },
    {
      "midi": 45,
      "hit": false,
      "t": 187909.24750000084,
      "d": 534.0913541666523,
      "v": 76
    },
    {
      "midi": 61,
      "hit": false,
      "t": 188022.88395833323,
      "d": 261.36385416667326,
      "v": 64
    },
    {
      "midi": 64,
      "hit": false,
      "t": 188022.88395833323,
      "d": 261.36385416667326,
      "v": 64
    },
    {
      "midi": 69,
      "hit": false,
      "t": 188022.88395833323,
      "d": 261.36385416667326,
      "v": 64
    },
    {
      "midi": 33,
      "hit": false,
      "t": 188045.61124999973,
      "d": 125.00010416665464,
      "v": 93
    },
    {
      "midi": 76,
      "hit": false,
      "t": 188170.61135416682,
      "d": 125.00010416665464,
      "v": 69
    },
    {
      "midi": 35,
      "hit": false,
      "t": 188181.97499999971,
      "d": 397.7276041666628,
      "v": 93
    },
    {
      "midi": 61,
      "hit": false,
      "t": 188181.9750000006,
      "d": 125.00010416665464,
      "v": 65
    },
    {
      "midi": 64,
      "hit": false,
      "t": 188181.9750000006,
      "d": 125.00010416665464,
      "v": 65
    },
    {
      "midi": 69,
      "hit": false,
      "t": 188181.9750000006,
      "d": 125.00010416665464,
      "v": 65
    },
    {
      "midi": 61,
      "hit": false,
      "t": 188181.97500000085,
      "d": 125.00010416665464,
      "v": 59
    },
    {
      "midi": 64,
      "hit": false,
      "t": 188181.97500000085,
      "d": 125.00010416665464,
      "v": 59
    },
    {
      "midi": 69,
      "hit": false,
      "t": 188181.97500000085,
      "d": 125.00010416665464,
      "v": 59
    },
    {
      "midi": 78,
      "hit": false,
      "t": 188306.9751041668,
      "d": 136.36374999998952,
      "v": 84
    },
    {
      "midi": 45,
      "hit": false,
      "t": 188318.33875000058,
      "d": 125.00010416665464,
      "v": 59
    },
    {
      "midi": 52,
      "hit": false,
      "t": 188318.33875000058,
      "d": 125.00010416665464,
      "v": 59
    },
    {
      "midi": 61,
      "hit": false,
      "t": 188318.33875000058,
      "d": 125.00010416665464,
      "v": 44
    },
    {
      "midi": 69,
      "hit": false,
      "t": 188318.33875000058,
      "d": 125.00010416665464,
      "v": 44
    },
    {
      "midi": 64,
      "hit": false,
      "t": 188318.33875000058,
      "d": 147.7273958333244,
      "v": 44
    },
    {
      "midi": 57,
      "hit": false,
      "t": 188318.33875000058,
      "d": 261.36385416664416,
      "v": 59
    },
    {
      "midi": 61,
      "hit": false,
      "t": 188318.33875000084,
      "d": 125.00010416665464,
      "v": 30
    },
    {
      "midi": 69,
      "hit": false,
      "t": 188318.33875000084,
      "d": 125.00010416665464,
      "v": 30
    },
    {
      "midi": 64,
      "hit": false,
      "t": 188318.33875000084,
      "d": 147.7273958333244,
      "v": 30
    },
    {
      "midi": 57,
      "hit": false,
      "t": 188318.33875000084,
      "d": 261.36385416664416,
      "v": 76
    },
    {
      "midi": 76,
      "hit": false,
      "t": 188443.3388541668,
      "d": 136.36374999998952,
      "v": 69
    },
    {
      "midi": 73,
      "hit": false,
      "t": 188579.70260416679,
      "d": 136.36374999998952,
      "v": 49
    },
    {
      "midi": 35,
      "hit": false,
      "t": 188591.0662499997,
      "d": 125.00010416665464,
      "v": 93
    },
    {
      "midi": 61,
      "hit": false,
      "t": 188591.06625000056,
      "d": 125.00010416665464,
      "v": 44
    },
    {
      "midi": 64,
      "hit": false,
      "t": 188591.06625000056,
      "d": 125.00010416665464,
      "v": 44
    },
    {
      "midi": 69,
      "hit": false,
      "t": 188591.06625000056,
      "d": 125.00010416665464,
      "v": 44
    },
    {
      "midi": 61,
      "hit": false,
      "t": 188591.06625000082,
      "d": 125.00010416665464,
      "v": 30
    },
    {
      "midi": 64,
      "hit": false,
      "t": 188591.06625000082,
      "d": 125.00010416665464,
      "v": 30
    },
    {
      "midi": 69,
      "hit": false,
      "t": 188591.06625000082,
      "d": 125.00010416665464,
      "v": 30
    },
    {
      "midi": 76,
      "hit": false,
      "t": 188716.06635416677,
      "d": 136.36374999998952,
      "v": 69
    },
    {
      "midi": 37,
      "hit": false,
      "t": 188727.4299999997,
      "d": 125.00010416665464,
      "v": 93
    },
    {
      "midi": 61,
      "hit": false,
      "t": 188727.43000000055,
      "d": 125.00010416665464,
      "v": 65
    },
    {
      "midi": 64,
      "hit": false,
      "t": 188727.43000000055,
      "d": 125.00010416665464,
      "v": 65
    },
    {
      "midi": 69,
      "hit": false,
      "t": 188727.43000000055,
      "d": 125.00010416665464,
      "v": 65
    },
    {
      "midi": 45,
      "hit": false,
      "t": 188727.43000000055,
      "d": 261.36385416664416,
      "v": 59
    },
    {
      "midi": 52,
      "hit": false,
      "t": 188727.43000000055,
      "d": 261.36385416664416,
      "v": 59
    },
    {
      "midi": 57,
      "hit": false,
      "t": 188727.43000000055,
      "d": 261.36385416664416,
      "v": 59
    },
    {
      "midi": 61,
      "hit": false,
      "t": 188727.4300000008,
      "d": 125.00010416665464,
      "v": 59
    },
    {
      "midi": 64,
      "hit": false,
      "t": 188727.4300000008,
      "d": 125.00010416665464,
      "v": 59
    },
    {
      "midi": 69,
      "hit": false,
      "t": 188727.4300000008,
      "d": 125.00010416665464,
      "v": 59
    },
    {
      "midi": 57,
      "hit": false,
      "t": 188727.4300000008,
      "d": 261.36385416664416,
      "v": 76
    },
    {
      "midi": 45,
      "hit": false,
      "t": 188727.4300000008,
      "d": 397.7276041666337,
      "v": 76
    },
    {
      "midi": 78,
      "hit": false,
      "t": 188852.43010416676,
      "d": 136.36374999998952,
      "v": 84
    },
    {
      "midi": 61,
      "hit": false,
      "t": 188863.79375000054,
      "d": 125.00010416665464,
      "v": 44
    },
    {
      "midi": 64,
      "hit": false,
      "t": 188863.79375000054,
      "d": 125.00010416665464,
      "v": 44
    },
    {
      "midi": 69,
      "hit": false,
      "t": 188863.79375000054,
      "d": 125.00010416665464,
      "v": 44
    },
    {
      "midi": 61,
      "hit": false,
      "t": 188863.7937500008,
      "d": 125.00010416665464,
      "v": 30
    },
    {
      "midi": 64,
      "hit": false,
      "t": 188863.7937500008,
      "d": 125.00010416665464,
      "v": 30
    },
    {
      "midi": 69,
      "hit": false,
      "t": 188863.7937500008,
      "d": 125.00010416665464,
      "v": 30
    },
    {
      "midi": 76,
      "hit": false,
      "t": 188988.79385416675,
      "d": 136.36374999998952,
      "v": 69
    },
    {
      "midi": 37,
      "hit": false,
      "t": 189000.15749999968,
      "d": 261.36385416667326,
      "v": 93
    },
    {
      "midi": 61,
      "hit": false,
      "t": 189000.15750000053,
      "d": 125.00010416665464,
      "v": 44
    },
    {
      "midi": 64,
      "hit": false,
      "t": 189000.15750000053,
      "d": 125.00010416665464,
      "v": 44
    },
    {
      "midi": 69,
      "hit": false,
      "t": 189000.15750000053,
      "d": 125.00010416665464,
      "v": 44
    },
    {
      "midi": 61,
      "hit": false,
      "t": 189000.1575000008,
      "d": 125.00010416665464,
      "v": 30
    },
    {
      "midi": 64,
      "hit": false,
      "t": 189000.1575000008,
      "d": 125.00010416665464,
      "v": 30
    },
    {
      "midi": 69,
      "hit": false,
      "t": 189000.1575000008,
      "d": 125.00010416665464,
      "v": 30
    },
    {
      "midi": 73,
      "hit": false,
      "t": 189125.15760416674,
      "d": 136.36374999998952,
      "v": 49
    },
    {
      "midi": 45,
      "hit": false,
      "t": 189136.52125000051,
      "d": 125.00010416665464,
      "v": 59
    },
    {
      "midi": 52,
      "hit": false,
      "t": 189136.52125000051,
      "d": 125.00010416665464,
      "v": 59
    },
    {
      "midi": 57,
      "hit": false,
      "t": 189136.52125000051,
      "d": 261.36385416664416,
      "v": 59
    },
    {
      "midi": 61,
      "hit": false,
      "t": 189136.52125000051,
      "d": 261.36385416664416,
      "v": 61
    },
    {
      "midi": 64,
      "hit": false,
      "t": 189136.52125000051,
      "d": 261.36385416664416,
      "v": 61
    },
    {
      "midi": 69,
      "hit": false,
      "t": 189136.52125000051,
      "d": 261.36385416664416,
      "v": 61
    },
    {
      "midi": 61,
      "hit": false,
      "t": 189136.52125000078,
      "d": 261.36385416667326,
      "v": 55
    },
    {
      "midi": 64,
      "hit": false,
      "t": 189136.52125000078,
      "d": 261.36385416667326,
      "v": 55
    },
    {
      "midi": 69,
      "hit": false,
      "t": 189136.52125000078,
      "d": 261.36385416667326,
      "v": 55
    },
    {
      "midi": 57,
      "hit": false,
      "t": 189136.52125000078,
      "d": 397.7276041666628,
      "v": 76
    },
    {
      "midi": 45,
      "hit": false,
      "t": 189136.52125000078,
      "d": 659.091458333307,
      "v": 76
    },
    {
      "midi": 61,
      "hit": false,
      "t": 189250.15770833322,
      "d": 261.36385416667326,
      "v": 64
    },
    {
      "midi": 76,
      "hit": false,
      "t": 189261.52135416673,
      "d": 136.36374999998952,
      "v": 69
    },
    {
      "midi": 39,
      "hit": false,
      "t": 189272.8849999997,
      "d": 261.36385416667326,
      "v": 93
    },
    {
      "midi": 78,
      "hit": false,
      "t": 189397.88510416672,
      "d": 136.36374999998952,
      "v": 84
    },
    {
      "midi": 61,
      "hit": false,
      "t": 189409.2487500005,
      "d": 125.00010416665464,
      "v": 44
    },
    {
      "midi": 64,
      "hit": false,
      "t": 189409.2487500005,
      "d": 125.00010416665464,
      "v": 44
    },
    {
      "midi": 69,
      "hit": false,
      "t": 189409.2487500005,
      "d": 125.00010416665464,
      "v": 44
    },
    {
      "midi": 61,
      "hit": false,
      "t": 189409.24875000078,
      "d": 125.00010416665464,
      "v": 30
    },
    {
      "midi": 64,
      "hit": false,
      "t": 189409.24875000078,
      "d": 125.00010416665464,
      "v": 30
    },
    {
      "midi": 69,
      "hit": false,
      "t": 189409.24875000078,
      "d": 125.00010416665464,
      "v": 30
    },
    {
      "midi": 64,
      "hit": false,
      "t": 189522.88520833323,
      "d": 261.36385416667326,
      "v": 64
    },
    {
      "midi": 76,
      "hit": false,
      "t": 189534.2488541667,
      "d": 136.36374999998952,
      "v": 69
    },
    {
      "midi": 40,
      "hit": false,
      "t": 189545.6124999997,
      "d": 125.00010416665464,
      "v": 93
    },
    {
      "midi": 61,
      "hit": false,
      "t": 189545.61250000048,
      "d": 125.00010416665464,
      "v": 61
    },
    {
      "midi": 64,
      "hit": false,
      "t": 189545.61250000048,
      "d": 125.00010416665464,
      "v": 61
    },
    {
      "midi": 69,
      "hit": false,
      "t": 189545.61250000048,
      "d": 125.00010416665464,
      "v": 61
    },
    {
      "midi": 61,
      "hit": false,
      "t": 189545.61250000077,
      "d": 125.00010416665464,
      "v": 55
    },
    {
      "midi": 64,
      "hit": false,
      "t": 189545.61250000077,
      "d": 125.00010416665464,
      "v": 55
    },
    {
      "midi": 69,
      "hit": false,
      "t": 189545.61250000077,
      "d": 125.00010416665464,
      "v": 55
    },
    {
      "midi": 73,
      "hit": false,
      "t": 189670.6126041667,
      "d": 136.36374999998952,
      "v": 49
    },
    {
      "midi": 61,
      "hit": false,
      "t": 189681.97625000047,
      "d": 113.63645833331975,
      "v": 44
    },
    {
      "midi": 64,
      "hit": false,
      "t": 189681.97625000047,
      "d": 113.63645833331975,
      "v": 44
    },
    {
      "midi": 69,
      "hit": false,
      "t": 189681.97625000047,
      "d": 113.63645833331975,
      "v": 44
    },
    {
      "midi": 61,
      "hit": false,
      "t": 189681.97625000076,
      "d": 113.63645833331975,
      "v": 30
    },
    {
      "midi": 64,
      "hit": false,
      "t": 189681.97625000076,
      "d": 113.63645833331975,
      "v": 30
    },
    {
      "midi": 69,
      "hit": false,
      "t": 189681.97625000076,
      "d": 113.63645833331975,
      "v": 30
    },
    {
      "midi": 64,
      "hit": false,
      "t": 189795.61270833324,
      "d": 1352.2738541666768,
      "v": 64
    },
    {
      "midi": 68,
      "hit": false,
      "t": 189795.61270833324,
      "d": 1352.2738541666768,
      "v": 64
    },
    {
      "midi": 71,
      "hit": false,
      "t": 189795.61270833324,
      "d": 1352.2738541666768,
      "v": 64
    },
    {
      "midi": 76,
      "hit": false,
      "t": 189806.9763541667,
      "d": 136.36374999998952,
      "v": 69
    },
    {
      "midi": 37,
      "hit": false,
      "t": 189818.33999999968,
      "d": 397.7276041666628,
      "v": 93
    },
    {
      "midi": 49,
      "hit": false,
      "t": 189818.34000000046,
      "d": 125.00010416665464,
      "v": 59
    },
    {
      "midi": 44,
      "hit": false,
      "t": 189818.34000000046,
      "d": 261.36385416664416,
      "v": 59
    },
    {
      "midi": 56,
      "hit": false,
      "t": 189818.34000000046,
      "d": 261.36385416664416,
      "v": 59
    },
    {
      "midi": 61,
      "hit": false,
      "t": 189818.34000000046,
      "d": 261.36385416664416,
      "v": 61
    },
    {
      "midi": 64,
      "hit": false,
      "t": 189818.34000000046,
      "d": 261.36385416664416,
      "v": 61
    },
    {
      "midi": 68,
      "hit": false,
      "t": 189818.34000000046,
      "d": 261.36385416664416,
      "v": 61
    },
    {
      "midi": 61,
      "hit": false,
      "t": 189818.34000000075,
      "d": 261.36385416667326,
      "v": 55
    },
    {
      "midi": 64,
      "hit": false,
      "t": 189818.34000000075,
      "d": 261.36385416667326,
      "v": 55
    },
    {
      "midi": 68,
      "hit": false,
      "t": 189818.34000000075,
      "d": 261.36385416667326,
      "v": 55
    },
    {
      "midi": 64,
      "hit": false,
      "t": 189829.70364583808,
      "d": 102.27281250001397,
      "v": 76
    },
    {
      "midi": 76,
      "hit": false,
      "t": 189829.70364583808,
      "d": 102.27281250001397,
      "v": 76
    },
    {
      "midi": 78,
      "hit": false,
      "t": 189943.34010416668,
      "d": 136.36374999998952,
      "v": 84
    },
    {
      "midi": 64,
      "hit": false,
      "t": 189966.0673958381,
      "d": 102.27281250001397,
      "v": 41
    },
    {
      "midi": 76,
      "hit": false,
      "t": 189966.0673958381,
      "d": 102.27281250001397,
      "v": 41
    },
    {
      "midi": 76,
      "hit": false,
      "t": 190079.70385416667,
      "d": 136.36374999998952,
      "v": 69
    },
    {
      "midi": 56,
      "hit": false,
      "t": 190091.06750000044,
      "d": 125.00010416665464,
      "v": 59
    },
    {
      "midi": 44,
      "hit": false,
      "t": 190091.06750000044,
      "d": 261.36385416664416,
      "v": 59
    },
    {
      "midi": 49,
      "hit": false,
      "t": 190091.06750000044,
      "d": 261.36385416664416,
      "v": 59
    },
    {
      "midi": 61,
      "hit": false,
      "t": 190091.06750000044,
      "d": 261.36385416664416,
      "v": 44
    },
    {
      "midi": 64,
      "hit": false,
      "t": 190091.06750000044,
      "d": 261.36385416664416,
      "v": 44
    },
    {
      "midi": 68,
      "hit": false,
      "t": 190091.06750000044,
      "d": 261.36385416664416,
      "v": 44
    },
    {
      "midi": 56,
      "hit": false,
      "t": 190091.06750000076,
      "d": 261.36385416667326,
      "v": 76
    },
    {
      "midi": 61,
      "hit": false,
      "t": 190091.06750000076,
      "d": 261.36385416667326,
      "v": 30
    },
    {
      "midi": 64,
      "hit": false,
      "t": 190091.06750000076,
      "d": 261.36385416667326,
      "v": 30
    },
    {
      "midi": 68,
      "hit": false,
      "t": 190091.06750000076,
      "d": 261.36385416667326,
      "v": 30
    },
    {
      "midi": 49,
      "hit": false,
      "t": 190091.06750000076,
      "d": 670.4551041666709,
      "v": 76
    },
    {
      "midi": 64,
      "hit": false,
      "t": 190102.4311458381,
      "d": 102.27281250001397,
      "v": 41
    },
    {
      "midi": 76,
      "hit": false,
      "t": 190102.4311458381,
      "d": 102.27281250001397,
      "v": 41
    },
    {
      "midi": 73,
      "hit": false,
      "t": 190216.06760416666,
      "d": 136.36374999998952,
      "v": 49
    },
    {
      "midi": 37,
      "hit": false,
      "t": 190227.43124999967,
      "d": 125.00010416665464,
      "v": 93
    },
    {
      "midi": 64,
      "hit": false,
      "t": 190238.79489583813,
      "d": 102.27281250001397,
      "v": 41
    },
    {
      "midi": 76,
      "hit": false,
      "t": 190238.79489583813,
      "d": 102.27281250001397,
      "v": 41
    },
    {
      "midi": 76,
      "hit": false,
      "t": 190352.43135416665,
      "d": 136.36374999998952,
      "v": 69
    },
    {
      "midi": 32,
      "hit": false,
      "t": 190363.79499999966,
      "d": 397.7276041666628,
      "v": 93
    },
    {
      "midi": 61,
      "hit": false,
      "t": 190363.79500000042,
      "d": 125.00010416665464,
      "v": 57
    },
    {
      "midi": 64,
      "hit": false,
      "t": 190363.79500000042,
      "d": 125.00010416665464,
      "v": 57
    },
    {
      "midi": 68,
      "hit": false,
      "t": 190363.79500000042,
      "d": 125.00010416665464,
      "v": 57
    },
    {
      "midi": 61,
      "hit": false,
      "t": 190363.79500000077,
      "d": 125.00010416665464,
      "v": 51
    },
    {
      "midi": 64,
      "hit": false,
      "t": 190363.79500000077,
      "d": 125.00010416665464,
      "v": 51
    },
    {
      "midi": 68,
      "hit": false,
      "t": 190363.79500000077,
      "d": 125.00010416665464,
      "v": 51
    },
    {
      "midi": 64,
      "hit": false,
      "t": 190375.15864583815,
      "d": 102.27281250001397,
      "v": 41
    },
    {
      "midi": 76,
      "hit": false,
      "t": 190375.15864583815,
      "d": 102.27281250001397,
      "v": 41
    },
    {
      "midi": 78,
      "hit": false,
      "t": 190488.79510416664,
      "d": 136.36374999998952,
      "v": 84
    },
    {
      "midi": 44,
      "hit": false,
      "t": 190500.1587500004,
      "d": 125.00010416665464,
      "v": 59
    },
    {
      "midi": 49,
      "hit": false,
      "t": 190500.1587500004,
      "d": 125.00010416665464,
      "v": 59
    },
    {
      "midi": 56,
      "hit": false,
      "t": 190500.1587500004,
      "d": 125.00010416665464,
      "v": 59
    },
    {
      "midi": 61,
      "hit": false,
      "t": 190500.1587500004,
      "d": 159.0910416666593,
      "v": 44
    },
    {
      "midi": 64,
      "hit": false,
      "t": 190500.1587500004,
      "d": 159.0910416666593,
      "v": 44
    },
    {
      "midi": 68,
      "hit": false,
      "t": 190500.1587500004,
      "d": 159.0910416666593,
      "v": 44
    },
    {
      "midi": 56,
      "hit": false,
      "t": 190500.15875000076,
      "d": 125.00010416665464,
      "v": 76
    },
    {
      "midi": 61,
      "hit": false,
      "t": 190500.15875000076,
      "d": 159.0910416666593,
      "v": 30
    },
    {
      "midi": 64,
      "hit": false,
      "t": 190500.15875000076,
      "d": 159.0910416666593,
      "v": 30
    },
    {
      "midi": 68,
      "hit": false,
      "t": 190500.15875000076,
      "d": 159.0910416666593,
      "v": 30
    },
    {
      "midi": 64,
      "hit": false,
      "t": 190511.52239583817,
      "d": 102.27281250001397,
      "v": 41
    },
    {
      "midi": 76,
      "hit": false,
      "t": 190511.52239583817,
      "d": 102.27281250001397,
      "v": 41
    },
    {
      "midi": 76,
      "hit": false,
      "t": 190625.15885416663,
      "d": 136.36374999998952,
      "v": 69
    },
    {
      "midi": 64,
      "hit": false,
      "t": 190647.8861458382,
      "d": 102.27281250001397,
      "v": 76
    },
    {
      "midi": 76,
      "hit": false,
      "t": 190647.8861458382,
      "d": 102.27281250001397,
      "v": 76
    },
    {
      "midi": 73,
      "hit": false,
      "t": 190761.52260416662,
      "d": 136.36374999998952,
      "v": 49
    },
    {
      "midi": 32,
      "hit": false,
      "t": 190772.88624999966,
      "d": 125.00010416665464,
      "v": 93
    },
    {
      "midi": 61,
      "hit": false,
      "t": 190772.8862500004,
      "d": 125.00010416665464,
      "v": 44
    },
    {
      "midi": 64,
      "hit": false,
      "t": 190772.8862500004,
      "d": 125.00010416665464,
      "v": 44
    },
    {
      "midi": 68,
      "hit": false,
      "t": 190772.8862500004,
      "d": 125.00010416665464,
      "v": 44
    },
    {
      "midi": 61,
      "hit": false,
      "t": 190772.88625000077,
      "d": 125.00010416665464,
      "v": 30
    },
    {
      "midi": 64,
      "hit": false,
      "t": 190772.88625000077,
      "d": 125.00010416665464,
      "v": 30
    },
    {
      "midi": 68,
      "hit": false,
      "t": 190772.88625000077,
      "d": 125.00010416665464,
      "v": 30
    },
    {
      "midi": 64,
      "hit": false,
      "t": 190784.2498958382,
      "d": 102.27281250001397,
      "v": 41
    },
    {
      "midi": 76,
      "hit": false,
      "t": 190784.2498958382,
      "d": 102.27281250001397,
      "v": 41
    },
    {
      "midi": 76,
      "hit": false,
      "t": 190897.8863541666,
      "d": 136.36374999998952,
      "v": 69
    },
    {
      "midi": 37,
      "hit": false,
      "t": 190909.24999999965,
      "d": 397.7276041666628,
      "v": 93
    },
    {
      "midi": 61,
      "hit": false,
      "t": 190909.25000000038,
      "d": 125.00010416665464,
      "v": 57
    },
    {
      "midi": 64,
      "hit": false,
      "t": 190909.25000000038,
      "d": 125.00010416665464,
      "v": 57
    },
    {
      "midi": 68,
      "hit": false,
      "t": 190909.25000000038,
      "d": 125.00010416665464,
      "v": 57
    },
    {
      "midi": 44,
      "hit": false,
      "t": 190909.25000000038,
      "d": 261.36385416664416,
      "v": 59
    },
    {
      "midi": 49,
      "hit": false,
      "t": 190909.25000000038,
      "d": 261.36385416664416,
      "v": 59
    },
    {
      "midi": 56,
      "hit": false,
      "t": 190909.25000000038,
      "d": 397.7276041666337,
      "v": 59
    },
    {
      "midi": 61,
      "hit": false,
      "t": 190909.25000000076,
      "d": 125.00010416665464,
      "v": 51
    },
    {
      "midi": 64,
      "hit": false,
      "t": 190909.25000000076,
      "d": 125.00010416665464,
      "v": 51
    },
    {
      "midi": 68,
      "hit": false,
      "t": 190909.25000000076,
      "d": 125.00010416665464,
      "v": 51
    },
    {
      "midi": 56,
      "hit": false,
      "t": 190909.25000000076,
      "d": 261.36385416664416,
      "v": 76
    },
    {
      "midi": 49,
      "hit": false,
      "t": 190909.25000000076,
      "d": 397.7276041666337,
      "v": 76
    },
    {
      "midi": 64,
      "hit": false,
      "t": 190920.61364583822,
      "d": 102.27281250001397,
      "v": 41
    },
    {
      "midi": 76,
      "hit": false,
      "t": 190920.61364583822,
      "d": 102.27281250001397,
      "v": 41
    },
    {
      "midi": 78,
      "hit": false,
      "t": 191034.2501041666,
      "d": 136.36374999998952,
      "v": 84
    },
    {
      "midi": 61,
      "hit": false,
      "t": 191045.61375000037,
      "d": 125.00010416665464,
      "v": 44
    },
    {
      "midi": 64,
      "hit": false,
      "t": 191045.61375000037,
      "d": 125.00010416665464,
      "v": 44
    },
    {
      "midi": 68,
      "hit": false,
      "t": 191045.61375000037,
      "d": 125.00010416665464,
      "v": 44
    },
    {
      "midi": 61,
      "hit": false,
      "t": 191045.61375000075,
      "d": 125.00010416665464,
      "v": 30
    },
    {
      "midi": 64,
      "hit": false,
      "t": 191045.61375000075,
      "d": 125.00010416665464,
      "v": 30
    },
    {
      "midi": 68,
      "hit": false,
      "t": 191045.61375000075,
      "d": 125.00010416665464,
      "v": 30
    },
    {
      "midi": 64,
      "hit": false,
      "t": 191056.97739583824,
      "d": 102.27281250001397,
      "v": 41
    },
    {
      "midi": 76,
      "hit": false,
      "t": 191056.97739583824,
      "d": 102.27281250001397,
      "v": 41
    },
    {
      "midi": 76,
      "hit": false,
      "t": 191170.6138541666,
      "d": 136.36374999998952,
      "v": 69
    },
    {
      "midi": 61,
      "hit": false,
      "t": 191181.97750000036,
      "d": 125.00010416665464,
      "v": 44
    },
    {
      "midi": 64,
      "hit": false,
      "t": 191181.97750000036,
      "d": 125.00010416665464,
      "v": 44
    },
    {
      "midi": 68,
      "hit": false,
      "t": 191181.97750000036,
      "d": 125.00010416665464,
      "v": 44
    },
    {
      "midi": 61,
      "hit": false,
      "t": 191181.97750000074,
      "d": 125.00010416665464,
      "v": 30
    },
    {
      "midi": 64,
      "hit": false,
      "t": 191181.97750000074,
      "d": 125.00010416665464,
      "v": 30
    },
    {
      "midi": 68,
      "hit": false,
      "t": 191181.97750000074,
      "d": 125.00010416665464,
      "v": 30
    },
    {
      "midi": 64,
      "hit": false,
      "t": 191193.34114583826,
      "d": 102.27281250001397,
      "v": 41
    },
    {
      "midi": 76,
      "hit": false,
      "t": 191193.34114583826,
      "d": 102.27281250001397,
      "v": 41
    },
    {
      "midi": 64,
      "hit": false,
      "t": 191295.61395833324,
      "d": 261.36385416667326,
      "v": 64
    },
    {
      "midi": 68,
      "hit": false,
      "t": 191295.61395833324,
      "d": 261.36385416667326,
      "v": 64
    },
    {
      "midi": 71,
      "hit": false,
      "t": 191295.61395833324,
      "d": 261.36385416667326,
      "v": 64
    },
    {
      "midi": 73,
      "hit": false,
      "t": 191306.97760416658,
      "d": 136.36374999998952,
      "v": 49
    },
    {
      "midi": 32,
      "hit": false,
      "t": 191318.34124999965,
      "d": 125.00010416665464,
      "v": 93
    },
    {
      "midi": 44,
      "hit": false,
      "t": 191318.34125000035,
      "d": 125.00010416665464,
      "v": 59
    },
    {
      "midi": 49,
      "hit": false,
      "t": 191318.34125000035,
      "d": 125.00010416665464,
      "v": 59
    },
    {
      "midi": 56,
      "hit": false,
      "t": 191318.34125000035,
      "d": 261.36385416664416,
      "v": 59
    },
    {
      "midi": 61,
      "hit": false,
      "t": 191318.34125000035,
      "d": 261.36385416664416,
      "v": 57
    },
    {
      "midi": 64,
      "hit": false,
      "t": 191318.34125000035,
      "d": 261.36385416664416,
      "v": 57
    },
    {
      "midi": 68,
      "hit": false,
      "t": 191318.34125000035,
      "d": 261.36385416664416,
      "v": 57
    },
    {
      "midi": 56,
      "hit": false,
      "t": 191318.34125000073,
      "d": 261.36385416667326,
      "v": 76
    },
    {
      "midi": 61,
      "hit": false,
      "t": 191318.34125000073,
      "d": 261.36385416667326,
      "v": 51
    },
    {
      "midi": 64,
      "hit": false,
      "t": 191318.34125000073,
      "d": 261.36385416667326,
      "v": 51
    },
    {
      "midi": 68,
      "hit": false,
      "t": 191318.34125000073,
      "d": 261.36385416667326,
      "v": 51
    },
    {
      "midi": 49,
      "hit": false,
      "t": 191318.34125000073,
      "d": 534.0913541666523,
      "v": 76
    },
    {
      "midi": 64,
      "hit": false,
      "t": 191329.70489583828,
      "d": 102.27281250001397,
      "v": 41
    },
    {
      "midi": 76,
      "hit": false,
      "t": 191329.70489583828,
      "d": 102.27281250001397,
      "v": 41
    },
    {
      "midi": 76,
      "hit": false,
      "t": 191443.34135416656,
      "d": 136.36374999998952,
      "v": 69
    },
    {
      "midi": 37,
      "hit": false,
      "t": 191454.70499999964,
      "d": 125.00010416665464,
      "v": 93
    },
    {
      "midi": 64,
      "hit": false,
      "t": 191466.0686458383,
      "d": 102.27281250001397,
      "v": 74
    },
    {
      "midi": 76,
      "hit": false,
      "t": 191466.0686458383,
      "d": 102.27281250001397,
      "v": 74
    },
    {
      "midi": 61,
      "hit": false,
      "t": 191568.34145833325,
      "d": 125.00010416665464,
      "v": 64
    },
    {
      "midi": 64,
      "hit": false,
      "t": 191568.34145833325,
      "d": 125.00010416665464,
      "v": 64
    },
    {
      "midi": 68,
      "hit": false,
      "t": 191568.34145833325,
      "d": 125.00010416665464,
      "v": 64
    },
    {
      "midi": 78,
      "hit": false,
      "t": 191579.70510416655,
      "d": 136.36374999998952,
      "v": 84
    },
    {
      "midi": 32,
      "hit": false,
      "t": 191591.06874999963,
      "d": 261.36385416667326,
      "v": 93
    },
    {
      "midi": 61,
      "hit": false,
      "t": 191591.06875000033,
      "d": 125.00010416665464,
      "v": 44
    },
    {
      "midi": 64,
      "hit": false,
      "t": 191591.06875000033,
      "d": 125.00010416665464,
      "v": 44
    },
    {
      "midi": 68,
      "hit": false,
      "t": 191591.06875000033,
      "d": 125.00010416665464,
      "v": 44
    },
    {
      "midi": 61,
      "hit": false,
      "t": 191591.06875000073,
      "d": 125.00010416665464,
      "v": 30
    },
    {
      "midi": 64,
      "hit": false,
      "t": 191591.06875000073,
      "d": 125.00010416665464,
      "v": 30
    },
    {
      "midi": 68,
      "hit": false,
      "t": 191591.06875000073,
      "d": 125.00010416665464,
      "v": 30
    },
    {
      "midi": 64,
      "hit": false,
      "t": 191602.43239583832,
      "d": 102.27281250001397,
      "v": 47
    },
    {
      "midi": 76,
      "hit": false,
      "t": 191602.43239583832,
      "d": 102.27281250001397,
      "v": 47
    },
    {
      "midi": 63,
      "hit": false,
      "t": 191704.70520833324,
      "d": 125.00010416665464,
      "v": 64
    },
    {
      "midi": 66,
      "hit": false,
      "t": 191704.70520833324,
      "d": 125.00010416665464,
      "v": 64
    },
    {
      "midi": 69,
      "hit": false,
      "t": 191704.70520833324,
      "d": 125.00010416665464,
      "v": 64
    },
    {
      "midi": 76,
      "hit": false,
      "t": 191716.06885416654,
      "d": 136.36374999998952,
      "v": 69
    },
    {
      "midi": 61,
      "hit": false,
      "t": 191727.43250000032,
      "d": 125.00010416665464,
      "v": 57
    },
    {
      "midi": 64,
      "hit": false,
      "t": 191727.43250000032,
      "d": 125.00010416665464,
      "v": 57
    },
    {
      "midi": 68,
      "hit": false,
      "t": 191727.43250000032,
      "d": 125.00010416665464,
      "v": 57
    },
    {
      "midi": 61,
      "hit": false,
      "t": 191727.43250000072,
      "d": 125.00010416665464,
      "v": 51
    },
    {
      "midi": 64,
      "hit": false,
      "t": 191727.43250000072,
      "d": 125.00010416665464,
      "v": 51
    },
    {
      "midi": 68,
      "hit": false,
      "t": 191727.43250000072,
      "d": 125.00010416665464,
      "v": 51
    },
    {
      "midi": 64,
      "hit": false,
      "t": 191738.79614583834,
      "d": 102.27281250001397,
      "v": 47
    },
    {
      "midi": 76,
      "hit": false,
      "t": 191738.79614583834,
      "d": 102.27281250001397,
      "v": 47
    },
    {
      "midi": 64,
      "hit": false,
      "t": 191841.06895833323,
      "d": 136.36374999998952,
      "v": 64
    },
    {
      "midi": 68,
      "hit": false,
      "t": 191841.06895833323,
      "d": 261.36385416664416,
      "v": 64
    },
    {
      "midi": 71,
      "hit": false,
      "t": 191841.06895833323,
      "d": 261.36385416664416,
      "v": 64
    },
    {
      "midi": 73,
      "hit": false,
      "t": 191852.43260416653,
      "d": 136.36374999998952,
      "v": 49
    },
    {
      "midi": 44,
      "hit": false,
      "t": 191863.7962500003,
      "d": 113.63645833331975,
      "v": 59
    },
    {
      "midi": 49,
      "hit": false,
      "t": 191863.7962500003,
      "d": 113.63645833331975,
      "v": 59
    },
    {
      "midi": 61,
      "hit": false,
      "t": 191863.7962500003,
      "d": 113.63645833331975,
      "v": 44
    },
    {
      "midi": 64,
      "hit": false,
      "t": 191863.7962500003,
      "d": 113.63645833331975,
      "v": 44
    },
    {
      "midi": 68,
      "hit": false,
      "t": 191863.7962500003,
      "d": 113.63645833331975,
      "v": 44
    },
    {
      "midi": 61,
      "hit": false,
      "t": 191863.7962500007,
      "d": 113.63645833331975,
      "v": 30
    },
    {
      "midi": 64,
      "hit": false,
      "t": 191863.7962500007,
      "d": 113.63645833331975,
      "v": 30
    },
    {
      "midi": 68,
      "hit": false,
      "t": 191863.7962500007,
      "d": 113.63645833331975,
      "v": 30
    },
    {
      "midi": 64,
      "hit": false,
      "t": 191875.15989583835,
      "d": 102.27281250001397,
      "v": 47
    },
    {
      "midi": 76,
      "hit": false,
      "t": 191875.15989583835,
      "d": 102.27281250001397,
      "v": 47
    },
    {
      "midi": 64,
      "hit": false,
      "t": 191977.43270833322,
      "d": 125.00010416665464,
      "v": 64
    },
    {
      "midi": 61,
      "hit": false,
      "t": 191977.43270833322,
      "d": 261.36385416664416,
      "v": 64
    },
    {
      "midi": 69,
      "hit": false,
      "t": 191977.43270833322,
      "d": 261.36385416664416,
      "v": 64
    },
    {
      "midi": 76,
      "hit": false,
      "t": 191988.79635416652,
      "d": 136.36374999998952,
      "v": 69
    },
    {
      "midi": 33,
      "hit": false,
      "t": 192000.15999999963,
      "d": 397.7276041666628,
      "v": 93
    },
    {
      "midi": 45,
      "hit": false,
      "t": 192000.1600000003,
      "d": 261.36385416667326,
      "v": 59
    },
    {
      "midi": 52,
      "hit": false,
      "t": 192000.1600000003,
      "d": 261.36385416667326,
      "v": 59
    },
    {
      "midi": 57,
      "hit": false,
      "t": 192000.1600000003,
      "d": 261.36385416667326,
      "v": 59
    },
    {
      "midi": 61,
      "hit": false,
      "t": 192000.1600000003,
      "d": 261.36385416667326,
      "v": 65
    },
    {
      "midi": 64,
      "hit": false,
      "t": 192000.1600000003,
      "d": 261.36385416667326,
      "v": 65
    },
    {
      "midi": 69,
      "hit": false,
      "t": 192000.1600000003,
      "d": 261.36385416667326,
      "v": 65
    },
    {
      "midi": 61,
      "hit": false,
      "t": 192000.1600000007,
      "d": 261.36385416667326,
      "v": 59
    },
    {
      "midi": 64,
      "hit": false,
      "t": 192000.1600000007,
      "d": 261.36385416667326,
      "v": 59
    },
    {
      "midi": 69,
      "hit": false,
      "t": 192000.1600000007,
      "d": 261.36385416667326,
      "v": 59
    },
    {
      "midi": 78,
      "hit": false,
      "t": 192125.1601041665,
      "d": 136.36374999998952,
      "v": 84
    },
    {
      "midi": 76,
      "hit": false,
      "t": 192261.5238541665,
      "d": 136.36374999998952,
      "v": 69
    },
    {
      "midi": 45,
      "hit": false,
      "t": 192272.8875000003,
      "d": 261.36385416667326,
      "v": 59
    },
    {
      "midi": 52,
      "hit": false,
      "t": 192272.8875000003,
      "d": 261.36385416667326,
      "v": 59
    },
    {
      "midi": 57,
      "hit": false,
      "t": 192272.8875000003,
      "d": 261.36385416667326,
      "v": 59
    },
    {
      "midi": 61,
      "hit": false,
      "t": 192272.8875000003,
      "d": 261.36385416667326,
      "v": 49
    },
    {
      "midi": 64,
      "hit": false,
      "t": 192272.8875000003,
      "d": 261.36385416667326,
      "v": 49
    },
    {
      "midi": 69,
      "hit": false,
      "t": 192272.8875000003,
      "d": 261.36385416667326,
      "v": 49
    },
    {
      "midi": 57,
      "hit": false,
      "t": 192272.8875000007,
      "d": 261.36385416667326,
      "v": 76
    },
    {
      "midi": 61,
      "hit": false,
      "t": 192272.8875000007,
      "d": 261.36385416667326,
      "v": 43
    },
    {
      "midi": 64,
      "hit": false,
      "t": 192272.8875000007,
      "d": 261.36385416667326,
      "v": 43
    },
    {
      "midi": 69,
      "hit": false,
      "t": 192272.8875000007,
      "d": 261.36385416667326,
      "v": 43
    },
    {
      "midi": 45,
      "hit": false,
      "t": 192272.8875000007,
      "d": 397.7276041666628,
      "v": 76
    },
    {
      "midi": 61,
      "hit": false,
      "t": 192386.5239583332,
      "d": 261.36385416667326,
      "v": 64
    },
    {
      "midi": 64,
      "hit": false,
      "t": 192386.5239583332,
      "d": 261.36385416667326,
      "v": 64
    },
    {
      "midi": 69,
      "hit": false,
      "t": 192386.5239583332,
      "d": 261.36385416667326,
      "v": 64
    },
    {
      "midi": 73,
      "hit": false,
      "t": 192397.8876041665,
      "d": 136.36374999998952,
      "v": 49
    },
    {
      "midi": 33,
      "hit": false,
      "t": 192409.25124999962,
      "d": 125.00010416665464,
      "v": 93
    },
    {
      "midi": 76,
      "hit": false,
      "t": 192534.25135416648,
      "d": 136.36374999998952,
      "v": 69
    },
    {
      "midi": 35,
      "hit": false,
      "t": 192545.6149999996,
      "d": 397.7276041666628,
      "v": 93
    },
    {
      "midi": 61,
      "hit": false,
      "t": 192545.6150000003,
      "d": 125.00010416665464,
      "v": 65
    },
    {
      "midi": 64,
      "hit": false,
      "t": 192545.6150000003,
      "d": 125.00010416665464,
      "v": 65
    },
    {
      "midi": 69,
      "hit": false,
      "t": 192545.6150000003,
      "d": 125.00010416665464,
      "v": 65
    },
    {
      "midi": 61,
      "hit": false,
      "t": 192545.61500000072,
      "d": 125.00010416665464,
      "v": 59
    },
    {
      "midi": 64,
      "hit": false,
      "t": 192545.61500000072,
      "d": 125.00010416665464,
      "v": 59
    },
    {
      "midi": 69,
      "hit": false,
      "t": 192545.61500000072,
      "d": 125.00010416665464,
      "v": 59
    },
    {
      "midi": 78,
      "hit": false,
      "t": 192670.61510416647,
      "d": 136.36374999998952,
      "v": 84
    },
    {
      "midi": 45,
      "hit": false,
      "t": 192681.9787500003,
      "d": 125.00010416665464,
      "v": 59
    },
    {
      "midi": 52,
      "hit": false,
      "t": 192681.9787500003,
      "d": 125.00010416665464,
      "v": 59
    },
    {
      "midi": 61,
      "hit": false,
      "t": 192681.9787500003,
      "d": 125.00010416665464,
      "v": 44
    },
    {
      "midi": 69,
      "hit": false,
      "t": 192681.9787500003,
      "d": 125.00010416665464,
      "v": 44
    },
    {
      "midi": 64,
      "hit": false,
      "t": 192681.9787500003,
      "d": 147.7273958333244,
      "v": 44
    },
    {
      "midi": 57,
      "hit": false,
      "t": 192681.9787500003,
      "d": 261.36385416664416,
      "v": 59
    },
    {
      "midi": 57,
      "hit": false,
      "t": 192681.9787500007,
      "d": 125.00010416665464,
      "v": 76
    },
    {
      "midi": 61,
      "hit": false,
      "t": 192681.9787500007,
      "d": 125.00010416665464,
      "v": 30
    },
    {
      "midi": 69,
      "hit": false,
      "t": 192681.9787500007,
      "d": 125.00010416665464,
      "v": 30
    },
    {
      "midi": 64,
      "hit": false,
      "t": 192681.9787500007,
      "d": 147.7273958333244,
      "v": 30
    },
    {
      "midi": 45,
      "hit": false,
      "t": 192681.9787500007,
      "d": 261.36385416664416,
      "v": 76
    },
    {
      "midi": 76,
      "hit": false,
      "t": 192806.97885416646,
      "d": 136.36374999998952,
      "v": 69
    },
    {
      "midi": 73,
      "hit": false,
      "t": 192943.34260416645,
      "d": 136.36374999998952,
      "v": 49
    },
    {
      "midi": 35,
      "hit": false,
      "t": 192954.7062499996,
      "d": 125.00010416665464,
      "v": 93
    },
    {
      "midi": 61,
      "hit": false,
      "t": 192954.70625000028,
      "d": 125.00010416665464,
      "v": 44
    },
    {
      "midi": 64,
      "hit": false,
      "t": 192954.70625000028,
      "d": 125.00010416665464,
      "v": 44
    },
    {
      "midi": 69,
      "hit": false,
      "t": 192954.70625000028,
      "d": 125.00010416665464,
      "v": 44
    },
    {
      "midi": 61,
      "hit": false,
      "t": 192954.7062500007,
      "d": 125.00010416665464,
      "v": 30
    },
    {
      "midi": 64,
      "hit": false,
      "t": 192954.7062500007,
      "d": 125.00010416665464,
      "v": 30
    },
    {
      "midi": 69,
      "hit": false,
      "t": 192954.7062500007,
      "d": 125.00010416665464,
      "v": 30
    },
    {
      "midi": 76,
      "hit": false,
      "t": 193079.70635416644,
      "d": 136.36374999998952,
      "v": 69
    },
    {
      "midi": 37,
      "hit": false,
      "t": 193091.0699999996,
      "d": 125.00010416665464,
      "v": 93
    },
    {
      "midi": 61,
      "hit": false,
      "t": 193091.07000000027,
      "d": 125.00010416665464,
      "v": 65
    },
    {
      "midi": 64,
      "hit": false,
      "t": 193091.07000000027,
      "d": 125.00010416665464,
      "v": 65
    },
    {
      "midi": 69,
      "hit": false,
      "t": 193091.07000000027,
      "d": 125.00010416665464,
      "v": 65
    },
    {
      "midi": 45,
      "hit": false,
      "t": 193091.07000000027,
      "d": 261.36385416664416,
      "v": 59
    },
    {
      "midi": 52,
      "hit": false,
      "t": 193091.07000000027,
      "d": 261.36385416664416,
      "v": 59
    },
    {
      "midi": 57,
      "hit": false,
      "t": 193091.07000000027,
      "d": 261.36385416664416,
      "v": 59
    },
    {
      "midi": 61,
      "hit": false,
      "t": 193091.07000000068,
      "d": 125.00010416665464,
      "v": 59
    },
    {
      "midi": 64,
      "hit": false,
      "t": 193091.07000000068,
      "d": 125.00010416665464,
      "v": 59
    },
    {
      "midi": 69,
      "hit": false,
      "t": 193091.07000000068,
      "d": 125.00010416665464,
      "v": 59
    },
    {
      "midi": 57,
      "hit": false,
      "t": 193091.07000000068,
      "d": 261.36385416664416,
      "v": 76
    },
    {
      "midi": 45,
      "hit": false,
      "t": 193091.07000000068,
      "d": 670.4551041666418,
      "v": 76
    },
    {
      "midi": 78,
      "hit": false,
      "t": 193216.07010416643,
      "d": 136.36374999998952,
      "v": 84
    },
    {
      "midi": 61,
      "hit": false,
      "t": 193227.43375000026,
      "d": 125.00010416665464,
      "v": 44
    },
    {
      "midi": 64,
      "hit": false,
      "t": 193227.43375000026,
      "d": 125.00010416665464,
      "v": 44
    },
    {
      "midi": 69,
      "hit": false,
      "t": 193227.43375000026,
      "d": 125.00010416665464,
      "v": 44
    },
    {
      "midi": 61,
      "hit": false,
      "t": 193227.43375000067,
      "d": 125.00010416665464,
      "v": 30
    },
    {
      "midi": 64,
      "hit": false,
      "t": 193227.43375000067,
      "d": 125.00010416665464,
      "v": 30
    },
    {
      "midi": 69,
      "hit": false,
      "t": 193227.43375000067,
      "d": 125.00010416665464,
      "v": 30
    },
    {
      "midi": 76,
      "hit": false,
      "t": 193352.43385416642,
      "d": 136.36374999998952,
      "v": 69
    },
    {
      "midi": 37,
      "hit": false,
      "t": 193363.79749999958,
      "d": 261.36385416667326,
      "v": 93
    },
    {
      "midi": 61,
      "hit": false,
      "t": 193363.79750000025,
      "d": 125.00010416665464,
      "v": 44
    },
    {
      "midi": 64,
      "hit": false,
      "t": 193363.79750000025,
      "d": 125.00010416665464,
      "v": 44
    },
    {
      "midi": 69,
      "hit": false,
      "t": 193363.79750000025,
      "d": 125.00010416665464,
      "v": 44
    },
    {
      "midi": 61,
      "hit": false,
      "t": 193363.79750000066,
      "d": 125.00010416665464,
      "v": 30
    },
    {
      "midi": 64,
      "hit": false,
      "t": 193363.79750000066,
      "d": 125.00010416665464,
      "v": 30
    },
    {
      "midi": 69,
      "hit": false,
      "t": 193363.79750000066,
      "d": 125.00010416665464,
      "v": 30
    },
    {
      "midi": 73,
      "hit": false,
      "t": 193488.7976041664,
      "d": 136.36374999998952,
      "v": 49
    },
    {
      "midi": 45,
      "hit": false,
      "t": 193500.16125000024,
      "d": 125.00010416665464,
      "v": 59
    },
    {
      "midi": 52,
      "hit": false,
      "t": 193500.16125000024,
      "d": 125.00010416665464,
      "v": 59
    },
    {
      "midi": 57,
      "hit": false,
      "t": 193500.16125000024,
      "d": 261.36385416664416,
      "v": 59
    },
    {
      "midi": 61,
      "hit": false,
      "t": 193500.16125000024,
      "d": 261.36385416664416,
      "v": 61
    },
    {
      "midi": 64,
      "hit": false,
      "t": 193500.16125000024,
      "d": 261.36385416664416,
      "v": 61
    },
    {
      "midi": 69,
      "hit": false,
      "t": 193500.16125000024,
      "d": 261.36385416664416,
      "v": 61
    },
    {
      "midi": 57,
      "hit": false,
      "t": 193500.16125000064,
      "d": 261.36385416667326,
      "v": 76
    },
    {
      "midi": 61,
      "hit": false,
      "t": 193500.16125000064,
      "d": 261.36385416667326,
      "v": 55
    },
    {
      "midi": 64,
      "hit": false,
      "t": 193500.16125000064,
      "d": 261.36385416667326,
      "v": 55
    },
    {
      "midi": 69,
      "hit": false,
      "t": 193500.16125000064,
      "d": 261.36385416667326,
      "v": 55
    },
    {
      "midi": 61,
      "hit": false,
      "t": 193613.79770833318,
      "d": 261.36385416667326,
      "v": 64
    },
    {
      "midi": 69,
      "hit": false,
      "t": 193613.79770833318,
      "d": 261.36385416667326,
      "v": 64
    },
    {
      "midi": 76,
      "hit": false,
      "t": 193625.1613541664,
      "d": 136.36374999998952,
      "v": 69
    },
    {
      "midi": 39,
      "hit": false,
      "t": 193636.5249999996,
      "d": 261.36385416667326,
      "v": 93
    },
    {
      "midi": 78,
      "hit": false,
      "t": 193761.5251041664,
      "d": 136.36374999998952,
      "v": 84
    },
    {
      "midi": 61,
      "hit": false,
      "t": 193772.88875000022,
      "d": 125.00010416665464,
      "v": 44
    },
    {
      "midi": 64,
      "hit": false,
      "t": 193772.88875000022,
      "d": 125.00010416665464,
      "v": 44
    },
    {
      "midi": 69,
      "hit": false,
      "t": 193772.88875000022,
      "d": 125.00010416665464,
      "v": 44
    },
    {
      "midi": 61,
      "hit": false,
      "t": 193772.88875000065,
      "d": 125.00010416665464,
      "v": 30
    },
    {
      "midi": 64,
      "hit": false,
      "t": 193772.88875000065,
      "d": 125.00010416665464,
      "v": 30
    },
    {
      "midi": 69,
      "hit": false,
      "t": 193772.88875000065,
      "d": 125.00010416665464,
      "v": 30
    },
    {
      "midi": 61,
      "hit": false,
      "t": 193886.5252083332,
      "d": 68.18187500000931,
      "v": 64
    },
    {
      "midi": 64,
      "hit": false,
      "t": 193886.5252083332,
      "d": 125.00010416668374,
      "v": 64
    },
    {
      "midi": 69,
      "hit": false,
      "t": 193886.5252083332,
      "d": 125.00010416668374,
      "v": 64
    },
    {
      "midi": 76,
      "hit": false,
      "t": 193897.88885416638,
      "d": 136.36374999998952,
      "v": 69
    },
    {
      "midi": 40,
      "hit": false,
      "t": 193909.2524999996,
      "d": 125.00010416665464,
      "v": 93
    },
    {
      "midi": 61,
      "hit": false,
      "t": 193909.2525000002,
      "d": 125.00010416665464,
      "v": 61
    },
    {
      "midi": 64,
      "hit": false,
      "t": 193909.2525000002,
      "d": 125.00010416665464,
      "v": 61
    },
    {
      "midi": 69,
      "hit": false,
      "t": 193909.2525000002,
      "d": 125.00010416665464,
      "v": 61
    },
    {
      "midi": 61,
      "hit": false,
      "t": 193909.25250000064,
      "d": 125.00010416665464,
      "v": 55
    },
    {
      "midi": 64,
      "hit": false,
      "t": 193909.25250000064,
      "d": 125.00010416665464,
      "v": 55
    },
    {
      "midi": 69,
      "hit": false,
      "t": 193909.25250000064,
      "d": 125.00010416665464,
      "v": 55
    },
    {
      "midi": 66,
      "hit": false,
      "t": 194022.8889583332,
      "d": 1897.728854166664,
      "v": 64
    },
    {
      "midi": 58,
      "hit": false,
      "t": 194022.8889583332,
      "d": 2170.456354166643,
      "v": 64
    },
    {
      "midi": 70,
      "hit": false,
      "t": 194022.8889583332,
      "d": 2306.8201041666325,
      "v": 64
    },
    {
      "midi": 61,
      "hit": false,
      "t": 194022.8889583332,
      "d": 4500.003749999974,
      "v": 64
    },
    {
      "midi": 73,
      "hit": false,
      "t": 194034.25260416637,
      "d": 136.36374999998952,
      "v": 49
    },
    {
      "midi": 64,
      "hit": false,
      "t": 194045.6162500002,
      "d": 113.63645833331975,
      "v": 44
    },
    {
      "midi": 69,
      "hit": false,
      "t": 194045.6162500002,
      "d": 113.63645833331975,
      "v": 44
    },
    {
      "midi": 61,
      "hit": false,
      "t": 194045.6162500002,
      "d": 136.36374999998952,
      "v": 44
    },
    {
      "midi": 64,
      "hit": false,
      "t": 194045.61625000063,
      "d": 113.63645833331975,
      "v": 30
    },
    {
      "midi": 69,
      "hit": false,
      "t": 194045.61625000063,
      "d": 113.63645833331975,
      "v": 30
    },
    {
      "midi": 61,
      "hit": false,
      "t": 194045.61625000063,
      "d": 136.36374999998952,
      "v": 30
    },
    {
      "midi": 42,
      "hit": false,
      "t": 194181.97999999957,
      "d": 397.7276041666628,
      "v": 93
    },
    {
      "midi": 61,
      "hit": false,
      "t": 194181.98000000019,
      "d": 11.363645833334886,
      "v": 47
    },
    {
      "midi": 66,
      "hit": false,
      "t": 194181.98000000019,
      "d": 261.36385416667326,
      "v": 47
    },
    {
      "midi": 70,
      "hit": false,
      "t": 194181.98000000019,
      "d": 261.36385416667326,
      "v": 47
    },
    {
      "midi": 61,
      "hit": false,
      "t": 194181.98000000062,
      "d": 11.363645833334886,
      "v": 41
    },
    {
      "midi": 66,
      "hit": false,
      "t": 194181.98000000062,
      "d": 261.36385416667326,
      "v": 41
    },
    {
      "midi": 70,
      "hit": false,
      "t": 194181.98000000062,
      "d": 261.36385416667326,
      "v": 41
    },
    {
      "midi": 64,
      "hit": false,
      "t": 194193.34364583838,
      "d": 102.27281250001397,
      "v": 76
    },
    {
      "midi": 76,
      "hit": false,
      "t": 194193.34364583838,
      "d": 102.27281250001397,
      "v": 76
    },
    {
      "midi": 64,
      "hit": false,
      "t": 194329.7073958384,
      "d": 102.27281250001397,
      "v": 41
    },
    {
      "midi": 76,
      "hit": false,
      "t": 194329.7073958384,
      "d": 102.27281250001397,
      "v": 41
    },
    {
      "midi": 76,
      "hit": false,
      "t": 194443.34385416636,
      "d": 397.7276041666919,
      "v": 84
    },
    {
      "midi": 54,
      "hit": false,
      "t": 194454.7075000002,
      "d": 261.36385416667326,
      "v": 59
    },
    {
      "midi": 58,
      "hit": false,
      "t": 194454.7075000002,
      "d": 261.36385416667326,
      "v": 59
    },
    {
      "midi": 61,
      "hit": false,
      "t": 194454.7075000002,
      "d": 261.36385416667326,
      "v": 53
    },
    {
      "midi": 66,
      "hit": false,
      "t": 194454.7075000002,
      "d": 261.36385416667326,
      "v": 53
    },
    {
      "midi": 70,
      "hit": false,
      "t": 194454.7075000002,
      "d": 261.36385416667326,
      "v": 53
    },
    {
      "midi": 64,
      "hit": false,
      "t": 194454.7075000002,
      "d": 397.7276041666628,
      "v": 59
    },
    {
      "midi": 58,
      "hit": false,
      "t": 194454.70750000063,
      "d": 261.36385416667326,
      "v": 76
    },
    {
      "midi": 61,
      "hit": false,
      "t": 194454.70750000063,
      "d": 261.36385416667326,
      "v": 47
    },
    {
      "midi": 66,
      "hit": false,
      "t": 194454.70750000063,
      "d": 261.36385416667326,
      "v": 47
    },
    {
      "midi": 70,
      "hit": false,
      "t": 194454.70750000063,
      "d": 261.36385416667326,
      "v": 47
    },
    {
      "midi": 64,
      "hit": false,
      "t": 194466.07114583842,
      "d": 102.27281250001397,
      "v": 41
    },
    {
      "midi": 76,
      "hit": false,
      "t": 194466.07114583842,
      "d": 102.27281250001397,
      "v": 41
    },
    {
      "midi": 42,
      "hit": false,
      "t": 194591.07124999957,
      "d": 125.00010416665464,
      "v": 93
    },
    {
      "midi": 64,
      "hit": false,
      "t": 194602.43489583844,
      "d": 102.27281250001397,
      "v": 41
    },
    {
      "midi": 76,
      "hit": false,
      "t": 194602.43489583844,
      "d": 102.27281250001397,
      "v": 41
    },
    {
      "midi": 37,
      "hit": false,
      "t": 194727.43499999956,
      "d": 261.36385416667326,
      "v": 93
    },
    {
      "midi": 61,
      "hit": false,
      "t": 194727.4350000002,
      "d": 125.00010416665464,
      "v": 57
    },
    {
      "midi": 66,
      "hit": false,
      "t": 194727.4350000002,
      "d": 125.00010416665464,
      "v": 57
    },
    {
      "midi": 70,
      "hit": false,
      "t": 194727.4350000002,
      "d": 125.00010416665464,
      "v": 57
    },
    {
      "midi": 61,
      "hit": false,
      "t": 194727.43500000064,
      "d": 125.00010416665464,
      "v": 51
    },
    {
      "midi": 66,
      "hit": false,
      "t": 194727.43500000064,
      "d": 125.00010416665464,
      "v": 51
    },
    {
      "midi": 70,
      "hit": false,
      "t": 194727.43500000064,
      "d": 125.00010416665464,
      "v": 51
    },
    {
      "midi": 64,
      "hit": false,
      "t": 194738.79864583845,
      "d": 102.27281250001397,
      "v": 41
    },
    {
      "midi": 76,
      "hit": false,
      "t": 194738.79864583845,
      "d": 102.27281250001397,
      "v": 41
    },
    {
      "midi": 76,
      "hit": false,
      "t": 194852.4351041664,
      "d": 397.7276041666628,
      "v": 84
    },
    {
      "midi": 61,
      "hit": false,
      "t": 194863.7987500002,
      "d": 159.0910416666593,
      "v": 44
    },
    {
      "midi": 66,
      "hit": false,
      "t": 194863.7987500002,
      "d": 159.0910416666593,
      "v": 44
    },
    {
      "midi": 70,
      "hit": false,
      "t": 194863.7987500002,
      "d": 159.0910416666593,
      "v": 44
    },
    {
      "midi": 54,
      "hit": false,
      "t": 194863.7987500002,
      "d": 261.36385416667326,
      "v": 59
    },
    {
      "midi": 58,
      "hit": false,
      "t": 194863.7987500002,
      "d": 261.36385416667326,
      "v": 59
    },
    {
      "midi": 64,
      "hit": false,
      "t": 194863.7987500002,
      "d": 397.7276041666628,
      "v": 59
    },
    {
      "midi": 58,
      "hit": false,
      "t": 194863.79875000063,
      "d": 125.00010416665464,
      "v": 76
    },
    {
      "midi": 61,
      "hit": false,
      "t": 194863.79875000063,
      "d": 159.0910416666593,
      "v": 30
    },
    {
      "midi": 66,
      "hit": false,
      "t": 194863.79875000063,
      "d": 159.0910416666593,
      "v": 30
    },
    {
      "midi": 70,
      "hit": false,
      "t": 194863.79875000063,
      "d": 159.0910416666593,
      "v": 30
    },
    {
      "midi": 64,
      "hit": false,
      "t": 194875.16239583847,
      "d": 102.27281250001397,
      "v": 41
    },
    {
      "midi": 76,
      "hit": false,
      "t": 194875.16239583847,
      "d": 102.27281250001397,
      "v": 41
    },
    {
      "midi": 64,
      "hit": false,
      "t": 195011.5261458385,
      "d": 102.27281250001397,
      "v": 76
    },
    {
      "midi": 76,
      "hit": false,
      "t": 195011.5261458385,
      "d": 102.27281250001397,
      "v": 76
    },
    {
      "midi": 37,
      "hit": false,
      "t": 195136.52624999956,
      "d": 125.00010416665464,
      "v": 93
    },
    {
      "midi": 61,
      "hit": false,
      "t": 195136.5262500002,
      "d": 125.00010416665464,
      "v": 44
    },
    {
      "midi": 66,
      "hit": false,
      "t": 195136.5262500002,
      "d": 125.00010416665464,
      "v": 44
    },
    {
      "midi": 70,
      "hit": false,
      "t": 195136.5262500002,
      "d": 125.00010416665464,
      "v": 44
    },
    {
      "midi": 61,
      "hit": false,
      "t": 195136.5262500006,
      "d": 125.00010416665464,
      "v": 30
    },
    {
      "midi": 66,
      "hit": false,
      "t": 195136.5262500006,
      "d": 125.00010416665464,
      "v": 30
    },
    {
      "midi": 70,
      "hit": false,
      "t": 195136.5262500006,
      "d": 125.00010416665464,
      "v": 30
    },
    {
      "midi": 64,
      "hit": false,
      "t": 195147.8898958385,
      "d": 102.27281250001397,
      "v": 41
    },
    {
      "midi": 76,
      "hit": false,
      "t": 195147.8898958385,
      "d": 102.27281250001397,
      "v": 41
    },
    {
      "midi": 76,
      "hit": false,
      "t": 195261.5263541664,
      "d": 397.727604166721,
      "v": 84
    },
    {
      "midi": 42,
      "hit": false,
      "t": 195272.88999999955,
      "d": 397.7276041666628,
      "v": 93
    },
    {
      "midi": 61,
      "hit": false,
      "t": 195272.8900000002,
      "d": 125.00010416665464,
      "v": 57
    },
    {
      "midi": 66,
      "hit": false,
      "t": 195272.8900000002,
      "d": 125.00010416665464,
      "v": 57
    },
    {
      "midi": 70,
      "hit": false,
      "t": 195272.8900000002,
      "d": 125.00010416665464,
      "v": 57
    },
    {
      "midi": 58,
      "hit": false,
      "t": 195272.8900000002,
      "d": 261.36385416664416,
      "v": 59
    },
    {
      "midi": 54,
      "hit": false,
      "t": 195272.8900000002,
      "d": 397.7276041666337,
      "v": 59
    },
    {
      "midi": 64,
      "hit": false,
      "t": 195272.8900000002,
      "d": 397.7276041666337,
      "v": 59
    },
    {
      "midi": 61,
      "hit": false,
      "t": 195272.8900000006,
      "d": 125.00010416665464,
      "v": 51
    },
    {
      "midi": 66,
      "hit": false,
      "t": 195272.8900000006,
      "d": 125.00010416665464,
      "v": 51
    },
    {
      "midi": 70,
      "hit": false,
      "t": 195272.8900000006,
      "d": 125.00010416665464,
      "v": 51
    },
    {
      "midi": 58,
      "hit": false,
      "t": 195272.8900000006,
      "d": 261.36385416664416,
      "v": 76
    },
    {
      "midi": 64,
      "hit": false,
      "t": 195284.25364583853,
      "d": 102.27281250001397,
      "v": 41
    },
    {
      "midi": 76,
      "hit": false,
      "t": 195284.25364583853,
      "d": 102.27281250001397,
      "v": 41
    },
    {
      "midi": 61,
      "hit": false,
      "t": 195409.25375000018,
      "d": 125.00010416665464,
      "v": 44
    },
    {
      "midi": 66,
      "hit": false,
      "t": 195409.25375000018,
      "d": 125.00010416665464,
      "v": 44
    },
    {
      "midi": 70,
      "hit": false,
      "t": 195409.25375000018,
      "d": 125.00010416665464,
      "v": 44
    },
    {
      "midi": 61,
      "hit": false,
      "t": 195409.2537500006,
      "d": 125.00010416665464,
      "v": 30
    },
    {
      "midi": 66,
      "hit": false,
      "t": 195409.2537500006,
      "d": 125.00010416665464,
      "v": 30
    },
    {
      "midi": 70,
      "hit": false,
      "t": 195409.2537500006,
      "d": 125.00010416665464,
      "v": 30
    },
    {
      "midi": 64,
      "hit": false,
      "t": 195420.61739583855,
      "d": 102.27281250001397,
      "v": 41
    },
    {
      "midi": 76,
      "hit": false,
      "t": 195420.61739583855,
      "d": 102.27281250001397,
      "v": 41
    },
    {
      "midi": 61,
      "hit": false,
      "t": 195545.61750000017,
      "d": 125.00010416665464,
      "v": 44
    },
    {
      "midi": 66,
      "hit": false,
      "t": 195545.61750000017,
      "d": 125.00010416665464,
      "v": 44
    },
    {
      "midi": 70,
      "hit": false,
      "t": 195545.61750000017,
      "d": 125.00010416665464,
      "v": 44
    },
    {
      "midi": 61,
      "hit": false,
      "t": 195545.61750000058,
      "d": 125.00010416665464,
      "v": 30
    },
    {
      "midi": 66,
      "hit": false,
      "t": 195545.61750000058,
      "d": 125.00010416665464,
      "v": 30
    },
    {
      "midi": 70,
      "hit": false,
      "t": 195545.61750000058,
      "d": 125.00010416665464,
      "v": 30
    },
    {
      "midi": 64,
      "hit": false,
      "t": 195556.98114583857,
      "d": 102.27281250001397,
      "v": 41
    },
    {
      "midi": 76,
      "hit": false,
      "t": 195556.98114583857,
      "d": 102.27281250001397,
      "v": 41
    },
    {
      "midi": 76,
      "hit": false,
      "t": 195670.61760416644,
      "d": 261.36385416664416,
      "v": 84
    },
    {
      "midi": 37,
      "hit": false,
      "t": 195681.98124999955,
      "d": 125.00010416665464,
      "v": 93
    },
    {
      "midi": 52,
      "hit": false,
      "t": 195681.98125000016,
      "d": 261.36385416667326,
      "v": 59
    },
    {
      "midi": 58,
      "hit": false,
      "t": 195681.98125000016,
      "d": 261.36385416667326,
      "v": 59
    },
    {
      "midi": 61,
      "hit": false,
      "t": 195681.98125000016,
      "d": 261.36385416667326,
      "v": 57
    },
    {
      "midi": 64,
      "hit": false,
      "t": 195681.98125000016,
      "d": 261.36385416667326,
      "v": 59
    },
    {
      "midi": 66,
      "hit": false,
      "t": 195681.98125000016,
      "d": 261.36385416667326,
      "v": 57
    },
    {
      "midi": 70,
      "hit": false,
      "t": 195681.98125000016,
      "d": 261.36385416667326,
      "v": 57
    },
    {
      "midi": 58,
      "hit": false,
      "t": 195681.98125000056,
      "d": 261.36385416667326,
      "v": 76
    },
    {
      "midi": 61,
      "hit": false,
      "t": 195681.98125000056,
      "d": 261.36385416667326,
      "v": 51
    },
    {
      "midi": 66,
      "hit": false,
      "t": 195681.98125000056,
      "d": 261.36385416667326,
      "v": 51
    },
    {
      "midi": 70,
      "hit": false,
      "t": 195681.98125000056,
      "d": 261.36385416667326,
      "v": 51
    },
    {
      "midi": 64,
      "hit": false,
      "t": 195693.34489583859,
      "d": 102.27281250001397,
      "v": 41
    },
    {
      "midi": 76,
      "hit": false,
      "t": 195693.34489583859,
      "d": 102.27281250001397,
      "v": 41
    },
    {
      "midi": 42,
      "hit": false,
      "t": 195818.34499999954,
      "d": 125.00010416665464,
      "v": 93
    },
    {
      "midi": 64,
      "hit": false,
      "t": 195829.7086458386,
      "d": 102.27281250001397,
      "v": 74
    },
    {
      "midi": 76,
      "hit": false,
      "t": 195829.7086458386,
      "d": 102.27281250001397,
      "v": 74
    },
    {
      "midi": 68,
      "hit": false,
      "t": 195931.9814583332,
      "d": 125.00010416665464,
      "v": 64
    },
    {
      "midi": 73,
      "hit": false,
      "t": 195943.34510416642,
      "d": 125.00010416665464,
      "v": 84
    },
    {
      "midi": 37,
      "hit": false,
      "t": 195954.70874999953,
      "d": 125.00010416665464,
      "v": 93
    },
    {
      "midi": 54,
      "hit": false,
      "t": 195954.70875000017,
      "d": 125.00010416665464,
      "v": 59
    },
    {
      "midi": 61,
      "hit": false,
      "t": 195954.70875000017,
      "d": 125.00010416665464,
      "v": 44
    },
    {
      "midi": 66,
      "hit": false,
      "t": 195954.70875000017,
      "d": 125.00010416665464,
      "v": 44
    },
    {
      "midi": 70,
      "hit": false,
      "t": 195954.70875000017,
      "d": 125.00010416665464,
      "v": 44
    },
    {
      "midi": 61,
      "hit": false,
      "t": 195954.70875000057,
      "d": 125.00010416665464,
      "v": 30
    },
    {
      "midi": 66,
      "hit": false,
      "t": 195954.70875000057,
      "d": 125.00010416665464,
      "v": 30
    },
    {
      "midi": 70,
      "hit": false,
      "t": 195954.70875000057,
      "d": 125.00010416665464,
      "v": 30
    },
    {
      "midi": 64,
      "hit": false,
      "t": 195966.07239583862,
      "d": 102.27281250001397,
      "v": 47
    },
    {
      "midi": 76,
      "hit": false,
      "t": 195966.07239583862,
      "d": 102.27281250001397,
      "v": 47
    },
    {
      "midi": 66,
      "hit": false,
      "t": 196068.3452083332,
      "d": 125.00010416665464,
      "v": 64
    },
    {
      "midi": 76,
      "hit": false,
      "t": 196079.7088541664,
      "d": 125.00010416665464,
      "v": 84
    },
    {
      "midi": 44,
      "hit": false,
      "t": 196091.0724999995,
      "d": 125.00010416665464,
      "v": 93
    },
    {
      "midi": 52,
      "hit": false,
      "t": 196091.07250000015,
      "d": 125.00010416665464,
      "v": 59
    },
    {
      "midi": 58,
      "hit": false,
      "t": 196091.07250000015,
      "d": 125.00010416665464,
      "v": 59
    },
    {
      "midi": 61,
      "hit": false,
      "t": 196091.07250000015,
      "d": 125.00010416665464,
      "v": 57
    },
    {
      "midi": 64,
      "hit": false,
      "t": 196091.07250000015,
      "d": 125.00010416665464,
      "v": 59
    },
    {
      "midi": 66,
      "hit": false,
      "t": 196091.07250000015,
      "d": 125.00010416665464,
      "v": 57
    },
    {
      "midi": 70,
      "hit": false,
      "t": 196091.07250000015,
      "d": 125.00010416665464,
      "v": 57
    },
    {
      "midi": 58,
      "hit": false,
      "t": 196091.07250000056,
      "d": 125.00010416665464,
      "v": 76
    },
    {
      "midi": 61,
      "hit": false,
      "t": 196091.07250000056,
      "d": 125.00010416665464,
      "v": 51
    },
    {
      "midi": 66,
      "hit": false,
      "t": 196091.07250000056,
      "d": 125.00010416665464,
      "v": 51
    },
    {
      "midi": 70,
      "hit": false,
      "t": 196091.07250000056,
      "d": 125.00010416665464,
      "v": 51
    },
    {
      "midi": 64,
      "hit": false,
      "t": 196102.43614583864,
      "d": 102.27281250001397,
      "v": 47
    },
    {
      "midi": 76,
      "hit": false,
      "t": 196102.43614583864,
      "d": 102.27281250001397,
      "v": 47
    },
    {
      "midi": 57,
      "hit": false,
      "t": 196204.70895833318,
      "d": 2295.4564583333267,
      "v": 64
    },
    {
      "midi": 64,
      "hit": false,
      "t": 196204.70895833318,
      "d": 2318.1837499999965,
      "v": 64
    },
    {
      "midi": 61,
      "hit": false,
      "t": 196227.43625000014,
      "d": 125.00010416665464,
      "v": 44
    },
    {
      "midi": 66,
      "hit": false,
      "t": 196227.43625000014,
      "d": 125.00010416665464,
      "v": 44
    },
    {
      "midi": 70,
      "hit": false,
      "t": 196227.43625000014,
      "d": 125.00010416665464,
      "v": 44
    },
    {
      "midi": 61,
      "hit": false,
      "t": 196227.43625000055,
      "d": 125.00010416665464,
      "v": 30
    },
    {
      "midi": 66,
      "hit": false,
      "t": 196227.43625000055,
      "d": 125.00010416665464,
      "v": 30
    },
    {
      "midi": 70,
      "hit": false,
      "t": 196227.43625000055,
      "d": 125.00010416665464,
      "v": 30
    },
    {
      "midi": 64,
      "hit": false,
      "t": 196238.79989583866,
      "d": 102.27281250001397,
      "v": 47
    },
    {
      "midi": 76,
      "hit": false,
      "t": 196238.79989583866,
      "d": 102.27281250001397,
      "v": 47
    },
    {
      "midi": 69,
      "hit": false,
      "t": 196341.07270833317,
      "d": 2159.092708333337,
      "v": 64
    },
    {
      "midi": 45,
      "hit": false,
      "t": 196363.7999999995,
      "d": 261.36385416667326,
      "v": 93
    },
    {
      "midi": 45,
      "hit": false,
      "t": 196363.80000000013,
      "d": 125.00010416665464,
      "v": 44
    },
    {
      "midi": 45,
      "hit": false,
      "t": 196363.80000000054,
      "d": 125.00010416665464,
      "v": 30
    },
    {
      "midi": 64,
      "hit": false,
      "t": 196375.16364583868,
      "d": 102.27281250001397,
      "v": 76
    },
    {
      "midi": 76,
      "hit": false,
      "t": 196375.16364583868,
      "d": 102.27281250001397,
      "v": 76
    },
    {
      "midi": 52,
      "hit": false,
      "t": 196500.16375000012,
      "d": 125.00010416665464,
      "v": 44
    },
    {
      "midi": 52,
      "hit": false,
      "t": 196500.16375000053,
      "d": 125.00010416665464,
      "v": 30
    },
    {
      "midi": 64,
      "hit": false,
      "t": 196511.5273958387,
      "d": 102.27281250001397,
      "v": 41
    },
    {
      "midi": 76,
      "hit": false,
      "t": 196511.5273958387,
      "d": 102.27281250001397,
      "v": 41
    },
    {
      "midi": 80,
      "hit": false,
      "t": 196625.1638541664,
      "d": 397.7276041666919,
      "v": 84
    },
    {
      "midi": 52,
      "hit": false,
      "t": 196636.5275000001,
      "d": 261.36385416667326,
      "v": 59
    },
    {
      "midi": 57,
      "hit": false,
      "t": 196636.5275000001,
      "d": 261.36385416667326,
      "v": 61
    },
    {
      "midi": 61,
      "hit": false,
      "t": 196636.5275000001,
      "d": 261.36385416667326,
      "v": 61
    },
    {
      "midi": 64,
      "hit": false,
      "t": 196636.5275000001,
      "d": 261.36385416667326,
      "v": 61
    },
    {
      "midi": 69,
      "hit": false,
      "t": 196636.5275000001,
      "d": 261.36385416667326,
      "v": 61
    },
    {
      "midi": 52,
      "hit": false,
      "t": 196636.52750000052,
      "d": 261.36385416667326,
      "v": 76
    },
    {
      "midi": 57,
      "hit": false,
      "t": 196636.52750000052,
      "d": 261.36385416667326,
      "v": 55
    },
    {
      "midi": 61,
      "hit": false,
      "t": 196636.52750000052,
      "d": 261.36385416667326,
      "v": 55
    },
    {
      "midi": 64,
      "hit": false,
      "t": 196636.52750000052,
      "d": 261.36385416667326,
      "v": 55
    },
    {
      "midi": 69,
      "hit": false,
      "t": 196636.52750000052,
      "d": 261.36385416667326,
      "v": 55
    },
    {
      "midi": 64,
      "hit": false,
      "t": 196647.89114583872,
      "d": 102.27281250001397,
      "v": 41
    },
    {
      "midi": 76,
      "hit": false,
      "t": 196647.89114583872,
      "d": 102.27281250001397,
      "v": 41
    },
    {
      "midi": 45,
      "hit": false,
      "t": 196772.8912499995,
      "d": 125.00010416665464,
      "v": 93
    },
    {
      "midi": 64,
      "hit": false,
      "t": 196784.25489583873,
      "d": 102.27281250001397,
      "v": 41
    },
    {
      "midi": 76,
      "hit": false,
      "t": 196784.25489583873,
      "d": 102.27281250001397,
      "v": 41
    },
    {
      "midi": 44,
      "hit": false,
      "t": 196909.25499999948,
      "d": 261.36385416667326,
      "v": 93
    },
    {
      "midi": 64,
      "hit": false,
      "t": 196909.25500000012,
      "d": 125.00010416665464,
      "v": 44
    },
    {
      "midi": 69,
      "hit": false,
      "t": 196909.25500000012,
      "d": 125.00010416665464,
      "v": 44
    },
    {
      "midi": 64,
      "hit": false,
      "t": 196909.25500000053,
      "d": 125.00010416665464,
      "v": 30
    },
    {
      "midi": 69,
      "hit": false,
      "t": 196909.25500000053,
      "d": 125.00010416665464,
      "v": 30
    },
    {
      "midi": 64,
      "hit": false,
      "t": 196920.61864583875,
      "d": 102.27281250001397,
      "v": 41
    },
    {
      "midi": 76,
      "hit": false,
      "t": 196920.61864583875,
      "d": 102.27281250001397,
      "v": 41
    },
    {
      "midi": 78,
      "hit": false,
      "t": 197034.25510416643,
      "d": 261.36385416667326,
      "v": 84
    },
    {
      "midi": 52,
      "hit": false,
      "t": 197045.6187500001,
      "d": 125.00010416665464,
      "v": 59
    },
    {
      "midi": 56,
      "hit": false,
      "t": 197045.6187500001,
      "d": 125.00010416665464,
      "v": 61
    },
    {
      "midi": 59,
      "hit": false,
      "t": 197045.6187500001,
      "d": 125.00010416665464,
      "v": 61
    },
    {
      "midi": 64,
      "hit": false,
      "t": 197045.6187500001,
      "d": 125.00010416665464,
      "v": 61
    },
    {
      "midi": 69,
      "hit": false,
      "t": 197045.6187500001,
      "d": 125.00010416665464,
      "v": 61
    },
    {
      "midi": 56,
      "hit": false,
      "t": 197045.61875000052,
      "d": 125.00010416665464,
      "v": 55
    },
    {
      "midi": 59,
      "hit": false,
      "t": 197045.61875000052,
      "d": 125.00010416665464,
      "v": 55
    },
    {
      "midi": 64,
      "hit": false,
      "t": 197045.61875000052,
      "d": 125.00010416665464,
      "v": 55
    },
    {
      "midi": 69,
      "hit": false,
      "t": 197045.61875000052,
      "d": 125.00010416665464,
      "v": 55
    },
    {
      "midi": 52,
      "hit": false,
      "t": 197045.61875000052,
      "d": 261.36385416664416,
      "v": 76
    },
    {
      "midi": 64,
      "hit": false,
      "t": 197056.98239583877,
      "d": 102.27281250001397,
      "v": 41
    },
    {
      "midi": 76,
      "hit": false,
      "t": 197056.98239583877,
      "d": 102.27281250001397,
      "v": 41
    },
    {
      "midi": 64,
      "hit": false,
      "t": 197193.3461458388,
      "d": 102.27281250001397,
      "v": 76
    },
    {
      "midi": 76,
      "hit": false,
      "t": 197193.3461458388,
      "d": 102.27281250001397,
      "v": 76
    },
    {
      "midi": 44,
      "hit": false,
      "t": 197318.34624999948,
      "d": 68.18187500000931,
      "v": 93
    },
    {
      "midi": 61,
      "hit": false,
      "t": 197318.3462500001,
      "d": 125.00010416665464,
      "v": 61
    },
    {
      "midi": 64,
      "hit": false,
      "t": 197318.3462500001,
      "d": 125.00010416665464,
      "v": 61
    },
    {
      "midi": 69,
      "hit": false,
      "t": 197318.3462500001,
      "d": 125.00010416665464,
      "v": 61
    },
    {
      "midi": 61,
      "hit": false,
      "t": 197318.3462500005,
      "d": 125.00010416665464,
      "v": 55
    },
    {
      "midi": 64,
      "hit": false,
      "t": 197318.3462500005,
      "d": 125.00010416665464,
      "v": 55
    },
    {
      "midi": 69,
      "hit": false,
      "t": 197318.3462500005,
      "d": 125.00010416665464,
      "v": 55
    },
    {
      "midi": 64,
      "hit": false,
      "t": 197329.7098958388,
      "d": 102.27281250001397,
      "v": 41
    },
    {
      "midi": 76,
      "hit": false,
      "t": 197329.7098958388,
      "d": 102.27281250001397,
      "v": 41
    },
    {
      "midi": 76,
      "hit": false,
      "t": 197443.34635416642,
      "d": 534.0913541666814,
      "v": 84
    },
    {
      "midi": 42,
      "hit": false,
      "t": 197454.7099999995,
      "d": 261.36385416667326,
      "v": 93
    },
    {
      "midi": 54,
      "hit": false,
      "t": 197454.71000000008,
      "d": 261.36385416667326,
      "v": 44
    },
    {
      "midi": 59,
      "hit": false,
      "t": 197454.71000000008,
      "d": 261.36385416667326,
      "v": 44
    },
    {
      "midi": 64,
      "hit": false,
      "t": 197454.71000000008,
      "d": 261.36385416667326,
      "v": 44
    },
    {
      "midi": 69,
      "hit": false,
      "t": 197454.71000000008,
      "d": 261.36385416667326,
      "v": 44
    },
    {
      "midi": 52,
      "hit": false,
      "t": 197454.71000000008,
      "d": 272.72750000000815,
      "v": 59
    },
    {
      "midi": 52,
      "hit": false,
      "t": 197454.7100000005,
      "d": 261.36385416667326,
      "v": 76
    },
    {
      "midi": 54,
      "hit": false,
      "t": 197454.7100000005,
      "d": 261.36385416667326,
      "v": 30
    },
    {
      "midi": 59,
      "hit": false,
      "t": 197454.7100000005,
      "d": 261.36385416667326,
      "v": 30
    },
    {
      "midi": 64,
      "hit": false,
      "t": 197454.7100000005,
      "d": 261.36385416667326,
      "v": 30
    },
    {
      "midi": 69,
      "hit": false,
      "t": 197454.7100000005,
      "d": 261.36385416667326,
      "v": 30
    },
    {
      "midi": 64,
      "hit": false,
      "t": 197466.07364583883,
      "d": 102.27281250001397,
      "v": 41
    },
    {
      "midi": 76,
      "hit": false,
      "t": 197466.07364583883,
      "d": 102.27281250001397,
      "v": 41
    },
    {
      "midi": 64,
      "hit": false,
      "t": 197602.43739583885,
      "d": 102.27281250001397,
      "v": 41
    },
    {
      "midi": 76,
      "hit": false,
      "t": 197602.43739583885,
      "d": 102.27281250001397,
      "v": 41
    },
    {
      "midi": 52,
      "hit": false,
      "t": 197727.4375000001,
      "d": 68.18187500000931,
      "v": 61
    },
    {
      "midi": 52,
      "hit": false,
      "t": 197727.4375000005,
      "d": 68.18187500000931,
      "v": 55
    },
    {
      "midi": 64,
      "hit": false,
      "t": 197738.80114583886,
      "d": 102.27281250001397,
      "v": 41
    },
    {
      "midi": 76,
      "hit": false,
      "t": 197738.80114583886,
      "d": 102.27281250001397,
      "v": 41
    },
    {
      "midi": 73,
      "hit": false,
      "t": 197852.43760416645,
      "d": 397.7276041666628,
      "v": 84
    },
    {
      "midi": 42,
      "hit": false,
      "t": 197863.8012499995,
      "d": 125.00010416665464,
      "v": 93
    },
    {
      "midi": 54,
      "hit": false,
      "t": 197863.8012500001,
      "d": 68.18187500000931,
      "v": 44
    },
    {
      "midi": 59,
      "hit": false,
      "t": 197863.8012500001,
      "d": 125.00010416668374,
      "v": 44
    },
    {
      "midi": 52,
      "hit": false,
      "t": 197863.8012500001,
      "d": 136.36375000001863,
      "v": 59
    },
    {
      "midi": 69,
      "hit": false,
      "t": 197863.8012500001,
      "d": 136.36375000001863,
      "v": 44
    },
    {
      "midi": 64,
      "hit": false,
      "t": 197863.8012500001,
      "d": 261.36385416667326,
      "v": 44
    },
    {
      "midi": 54,
      "hit": false,
      "t": 197863.8012500005,
      "d": 68.18187500000931,
      "v": 30
    },
    {
      "midi": 59,
      "hit": false,
      "t": 197863.8012500005,
      "d": 125.00010416668374,
      "v": 30
    },
    {
      "midi": 69,
      "hit": false,
      "t": 197863.8012500005,
      "d": 136.36375000001863,
      "v": 30
    },
    {
      "midi": 64,
      "hit": false,
      "t": 197863.8012500005,
      "d": 261.36385416667326,
      "v": 30
    },
    {
      "midi": 64,
      "hit": false,
      "t": 197875.16489583888,
      "d": 102.27281250001397,
      "v": 41
    },
    {
      "midi": 76,
      "hit": false,
      "t": 197875.16489583888,
      "d": 102.27281250001397,
      "v": 41
    },
    {
      "midi": 40,
      "hit": false,
      "t": 198000.16499999948,
      "d": 261.36385416667326,
      "v": 93
    },
    {
      "midi": 52,
      "hit": false,
      "t": 198000.16500000012,
      "d": 125.00010416665464,
      "v": 44
    },
    {
      "midi": 61,
      "hit": false,
      "t": 198000.16500000012,
      "d": 125.00010416665464,
      "v": 44
    },
    {
      "midi": 69,
      "hit": false,
      "t": 198000.16500000012,
      "d": 125.00010416665464,
      "v": 44
    },
    {
      "midi": 61,
      "hit": false,
      "t": 198000.16500000053,
      "d": 125.00010416665464,
      "v": 30
    },
    {
      "midi": 69,
      "hit": false,
      "t": 198000.16500000053,
      "d": 125.00010416665464,
      "v": 30
    },
    {
      "midi": 52,
      "hit": false,
      "t": 198000.16500000053,
      "d": 261.36385416664416,
      "v": 30
    },
    {
      "midi": 64,
      "hit": false,
      "t": 198011.5286458389,
      "d": 102.27281250001397,
      "v": 74
    },
    {
      "midi": 76,
      "hit": false,
      "t": 198011.5286458389,
      "d": 102.27281250001397,
      "v": 74
    },
    {
      "midi": 64,
      "hit": false,
      "t": 198147.89239583892,
      "d": 102.27281250001397,
      "v": 47
    },
    {
      "midi": 76,
      "hit": false,
      "t": 198147.89239583892,
      "d": 102.27281250001397,
      "v": 47
    },
    {
      "midi": 76,
      "hit": false,
      "t": 198261.52885416645,
      "d": 125.00010416665464,
      "v": 84
    },
    {
      "midi": 52,
      "hit": false,
      "t": 198272.8925000001,
      "d": 125.00010416665464,
      "v": 59
    },
    {
      "midi": 61,
      "hit": false,
      "t": 198272.8925000001,
      "d": 125.00010416665464,
      "v": 44
    },
    {
      "midi": 64,
      "hit": false,
      "t": 198272.8925000001,
      "d": 125.00010416665464,
      "v": 44
    },
    {
      "midi": 69,
      "hit": false,
      "t": 198272.8925000001,
      "d": 125.00010416665464,
      "v": 44
    },
    {
      "midi": 61,
      "hit": false,
      "t": 198272.8925000005,
      "d": 125.00010416665464,
      "v": 30
    },
    {
      "midi": 64,
      "hit": false,
      "t": 198272.8925000005,
      "d": 125.00010416665464,
      "v": 30
    },
    {
      "midi": 69,
      "hit": false,
      "t": 198272.8925000005,
      "d": 125.00010416665464,
      "v": 30
    },
    {
      "midi": 64,
      "hit": false,
      "t": 198284.25614583894,
      "d": 102.27281250001397,
      "v": 47
    },
    {
      "midi": 76,
      "hit": false,
      "t": 198284.25614583894,
      "d": 102.27281250001397,
      "v": 47
    },
    {
      "midi": 40,
      "hit": false,
      "t": 198409.25624999948,
      "d": 125.00010416665464,
      "v": 93
    },
    {
      "midi": 59,
      "hit": false,
      "t": 198409.2562500001,
      "d": 125.00010416665464,
      "v": 44
    },
    {
      "midi": 64,
      "hit": false,
      "t": 198409.2562500001,
      "d": 125.00010416665464,
      "v": 44
    },
    {
      "midi": 59,
      "hit": false,
      "t": 198409.2562500005,
      "d": 125.00010416665464,
      "v": 30
    },
    {
      "midi": 64,
      "hit": false,
      "t": 198409.2562500005,
      "d": 125.00010416665464,
      "v": 30
    },
    {
      "midi": 64,
      "hit": false,
      "t": 198420.61989583896,
      "d": 102.27281250001397,
      "v": 47
    },
    {
      "midi": 76,
      "hit": false,
      "t": 198420.61989583896,
      "d": 102.27281250001397,
      "v": 47
    },
    {
      "midi": 38,
      "hit": false,
      "t": 198545.61999999947,
      "d": 261.36385416667326,
      "v": 93
    },
    {
      "midi": 45,
      "hit": false,
      "t": 198545.62000000008,
      "d": 125.00010416665464,
      "v": 44
    },
    {
      "midi": 45,
      "hit": false,
      "t": 198545.6200000005,
      "d": 125.00010416665464,
      "v": 30
    },
    {
      "midi": 64,
      "hit": false,
      "t": 198556.98364583898,
      "d": 102.27281250001397,
      "v": 76
    },
    {
      "midi": 76,
      "hit": false,
      "t": 198556.98364583898,
      "d": 102.27281250001397,
      "v": 76
    },
    {
      "midi": 52,
      "hit": false,
      "t": 198681.98375000007,
      "d": 125.00010416665464,
      "v": 44
    },
    {
      "midi": 52,
      "hit": false,
      "t": 198681.98375000048,
      "d": 125.00010416665464,
      "v": 30
    },
    {
      "midi": 64,
      "hit": false,
      "t": 198693.347395839,
      "d": 102.27281250001397,
      "v": 41
    },
    {
      "midi": 76,
      "hit": false,
      "t": 198693.347395839,
      "d": 102.27281250001397,
      "v": 41
    },
    {
      "midi": 80,
      "hit": false,
      "t": 198806.98385416644,
      "d": 397.7276041666919,
      "v": 84
    },
    {
      "midi": 61,
      "hit": false,
      "t": 198818.34750000006,
      "d": 125.00010416665464,
      "v": 61
    },
    {
      "midi": 52,
      "hit": false,
      "t": 198818.34750000006,
      "d": 261.36385416664416,
      "v": 59
    },
    {
      "midi": 57,
      "hit": false,
      "t": 198818.34750000006,
      "d": 261.36385416664416,
      "v": 61
    },
    {
      "midi": 64,
      "hit": false,
      "t": 198818.34750000006,
      "d": 363.63666666665813,
      "v": 61
    },
    {
      "midi": 61,
      "hit": false,
      "t": 198818.34750000047,
      "d": 125.00010416665464,
      "v": 55
    },
    {
      "midi": 57,
      "hit": false,
      "t": 198818.34750000047,
      "d": 261.36385416664416,
      "v": 55
    },
    {
      "midi": 64,
      "hit": false,
      "t": 198818.34750000047,
      "d": 363.63666666665813,
      "v": 55
    },
    {
      "midi": 64,
      "hit": false,
      "t": 198829.711145839,
      "d": 102.27281250001397,
      "v": 41
    },
    {
      "midi": 76,
      "hit": false,
      "t": 198829.711145839,
      "d": 102.27281250001397,
      "v": 41
    },
    {
      "midi": 38,
      "hit": false,
      "t": 198954.71124999947,
      "d": 125.00010416665464,
      "v": 93
    },
    {
      "midi": 61,
      "hit": false,
      "t": 198954.71125000005,
      "d": 261.36385416667326,
      "v": 44
    },
    {
      "midi": 61,
      "hit": false,
      "t": 198954.71125000046,
      "d": 261.36385416667326,
      "v": 30
    },
    {
      "midi": 64,
      "hit": false,
      "t": 198966.07489583903,
      "d": 102.27281250001397,
      "v": 41
    },
    {
      "midi": 76,
      "hit": false,
      "t": 198966.07489583903,
      "d": 102.27281250001397,
      "v": 41
    },
    {
      "midi": 37,
      "hit": false,
      "t": 199091.07499999946,
      "d": 261.36385416667326,
      "v": 93
    },
    {
      "midi": 64,
      "hit": false,
      "t": 199102.43864583905,
      "d": 102.27281250001397,
      "v": 41
    },
    {
      "midi": 76,
      "hit": false,
      "t": 199102.43864583905,
      "d": 102.27281250001397,
      "v": 41
    },
    {
      "midi": 78,
      "hit": false,
      "t": 199216.07510416646,
      "d": 125.00010416665464,
      "v": 84
    },
    {
      "midi": 52,
      "hit": false,
      "t": 199227.43875000006,
      "d": 125.00010416665464,
      "v": 59
    },
    {
      "midi": 59,
      "hit": false,
      "t": 199227.43875000006,
      "d": 125.00010416665464,
      "v": 61
    },
    {
      "midi": 62,
      "hit": false,
      "t": 199227.43875000006,
      "d": 125.00010416665464,
      "v": 61
    },
    {
      "midi": 56,
      "hit": false,
      "t": 199227.43875000006,
      "d": 261.36385416664416,
      "v": 61
    },
    {
      "midi": 64,
      "hit": false,
      "t": 199227.43875000006,
      "d": 318.1820833333186,
      "v": 61
    },
    {
      "midi": 59,
      "hit": false,
      "t": 199227.43875000047,
      "d": 125.00010416665464,
      "v": 55
    },
    {
      "midi": 62,
      "hit": false,
      "t": 199227.43875000047,
      "d": 125.00010416665464,
      "v": 55
    },
    {
      "midi": 56,
      "hit": false,
      "t": 199227.43875000047,
      "d": 261.36385416664416,
      "v": 55
    },
    {
      "midi": 64,
      "hit": false,
      "t": 199227.43875000047,
      "d": 318.1820833333186,
      "v": 55
    },
    {
      "midi": 64,
      "hit": false,
      "t": 199238.80239583907,
      "d": 102.27281250001397,
      "v": 41
    },
    {
      "midi": 76,
      "hit": false,
      "t": 199238.80239583907,
      "d": 102.27281250001397,
      "v": 41
    },
    {
      "midi": 59,
      "hit": false,
      "t": 199363.80250000005,
      "d": 125.00010416665464,
      "v": 44
    },
    {
      "midi": 59,
      "hit": false,
      "t": 199363.80250000046,
      "d": 125.00010416665464,
      "v": 30
    },
    {
      "midi": 64,
      "hit": false,
      "t": 199375.1661458391,
      "d": 102.27281250001397,
      "v": 76
    },
    {
      "midi": 76,
      "hit": false,
      "t": 199375.1661458391,
      "d": 102.27281250001397,
      "v": 76
    },
    {
      "midi": 37,
      "hit": false,
      "t": 199500.16624999946,
      "d": 125.00010416665464,
      "v": 93
    },
    {
      "midi": 57,
      "hit": false,
      "t": 199500.16625000004,
      "d": 125.00010416668374,
      "v": 44
    },
    {
      "midi": 59,
      "hit": false,
      "t": 199500.16625000004,
      "d": 125.00010416668374,
      "v": 44
    },
    {
      "midi": 57,
      "hit": false,
      "t": 199500.16625000045,
      "d": 125.00010416668374,
      "v": 30
    },
    {
      "midi": 59,
      "hit": false,
      "t": 199500.16625000045,
      "d": 125.00010416668374,
      "v": 30
    },
    {
      "midi": 64,
      "hit": false,
      "t": 199511.5298958391,
      "d": 102.27281250001397,
      "v": 41
    },
    {
      "midi": 76,
      "hit": false,
      "t": 199511.5298958391,
      "d": 102.27281250001397,
      "v": 41
    },
    {
      "midi": 76,
      "hit": false,
      "t": 199625.16635416646,
      "d": 534.0913541666814,
      "v": 84
    },
    {
      "midi": 35,
      "hit": false,
      "t": 199636.52999999945,
      "d": 125.00010416665464,
      "v": 93
    },
    {
      "midi": 64,
      "hit": false,
      "t": 199636.53000000006,
      "d": 204.54562499999884,
      "v": 61
    },
    {
      "midi": 54,
      "hit": false,
      "t": 199636.53000000006,
      "d": 261.36385416667326,
      "v": 61
    },
    {
      "midi": 57,
      "hit": false,
      "t": 199636.53000000006,
      "d": 261.36385416667326,
      "v": 61
    },
    {
      "midi": 64,
      "hit": false,
      "t": 199636.53000000046,
      "d": 204.54562499999884,
      "v": 55
    },
    {
      "midi": 54,
      "hit": false,
      "t": 199636.53000000046,
      "d": 261.36385416667326,
      "v": 35
    },
    {
      "midi": 57,
      "hit": false,
      "t": 199636.53000000046,
      "d": 261.36385416667326,
      "v": 55
    },
    {
      "midi": 64,
      "hit": false,
      "t": 199647.89364583913,
      "d": 102.27281250001397,
      "v": 41
    },
    {
      "midi": 76,
      "hit": false,
      "t": 199647.89364583913,
      "d": 102.27281250001397,
      "v": 41
    },
    {
      "midi": 64,
      "hit": false,
      "t": 199784.25739583914,
      "d": 102.27281250001397,
      "v": 41
    },
    {
      "midi": 76,
      "hit": false,
      "t": 199784.25739583914,
      "d": 102.27281250001397,
      "v": 41
    },
    {
      "midi": 61,
      "hit": false,
      "t": 199886.5302083332,
      "d": 397.7276041666628,
      "v": 64
    },
    {
      "midi": 35,
      "hit": false,
      "t": 199909.25749999942,
      "d": 261.36385416667326,
      "v": 93
    },
    {
      "midi": 56,
      "hit": false,
      "t": 199909.25750000007,
      "d": 125.00010416665464,
      "v": 44
    },
    {
      "midi": 59,
      "hit": false,
      "t": 199909.25750000007,
      "d": 125.00010416665464,
      "v": 44
    },
    {
      "midi": 64,
      "hit": false,
      "t": 199909.25750000007,
      "d": 534.0913541666232,
      "v": 44
    },
    {
      "midi": 56,
      "hit": false,
      "t": 199909.25750000047,
      "d": 125.00010416665464,
      "v": 30
    },
    {
      "midi": 59,
      "hit": false,
      "t": 199909.25750000047,
      "d": 125.00010416665464,
      "v": 30
    },
    {
      "midi": 64,
      "hit": false,
      "t": 199909.25750000047,
      "d": 534.0913541666232,
      "v": 30
    },
    {
      "midi": 64,
      "hit": false,
      "t": 199920.62114583916,
      "d": 102.27281250001397,
      "v": 41
    },
    {
      "midi": 76,
      "hit": false,
      "t": 199920.62114583916,
      "d": 102.27281250001397,
      "v": 41
    },
    {
      "midi": 73,
      "hit": false,
      "t": 200034.2576041665,
      "d": 397.7276041666628,
      "v": 84
    },
    {
      "midi": 56,
      "hit": false,
      "t": 200045.62125000005,
      "d": 125.00010416665464,
      "v": 44
    },
    {
      "midi": 59,
      "hit": false,
      "t": 200045.62125000005,
      "d": 125.00010416665464,
      "v": 44
    },
    {
      "midi": 56,
      "hit": false,
      "t": 200045.62125000046,
      "d": 125.00010416665464,
      "v": 30
    },
    {
      "midi": 59,
      "hit": false,
      "t": 200045.62125000046,
      "d": 125.00010416665464,
      "v": 30
    },
    {
      "midi": 64,
      "hit": false,
      "t": 200056.98489583918,
      "d": 102.27281250001397,
      "v": 41
    },
    {
      "midi": 76,
      "hit": false,
      "t": 200056.98489583918,
      "d": 102.27281250001397,
      "v": 41
    },
    {
      "midi": 37,
      "hit": false,
      "t": 200181.98499999943,
      "d": 261.36385416667326,
      "v": 93
    },
    {
      "midi": 56,
      "hit": false,
      "t": 200181.98500000004,
      "d": 125.00010416665464,
      "v": 61
    },
    {
      "midi": 59,
      "hit": false,
      "t": 200181.98500000004,
      "d": 125.00010416665464,
      "v": 61
    },
    {
      "midi": 56,
      "hit": false,
      "t": 200181.98500000045,
      "d": 125.00010416665464,
      "v": 55
    },
    {
      "midi": 59,
      "hit": false,
      "t": 200181.98500000045,
      "d": 125.00010416665464,
      "v": 55
    },
    {
      "midi": 64,
      "hit": false,
      "t": 200193.3486458392,
      "d": 102.27281250001397,
      "v": 74
    },
    {
      "midi": 76,
      "hit": false,
      "t": 200193.3486458392,
      "d": 102.27281250001397,
      "v": 74
    },
    {
      "midi": 64,
      "hit": false,
      "t": 200295.6214583332,
      "d": 397.7276041666628,
      "v": 64
    },
    {
      "midi": 56,
      "hit": false,
      "t": 200318.34875000003,
      "d": 125.00010416665464,
      "v": 44
    },
    {
      "midi": 59,
      "hit": false,
      "t": 200318.34875000003,
      "d": 125.00010416665464,
      "v": 44
    },
    {
      "midi": 56,
      "hit": false,
      "t": 200318.34875000044,
      "d": 125.00010416665464,
      "v": 30
    },
    {
      "midi": 59,
      "hit": false,
      "t": 200318.34875000044,
      "d": 125.00010416665464,
      "v": 30
    },
    {
      "midi": 64,
      "hit": false,
      "t": 200329.71239583922,
      "d": 102.27281250001397,
      "v": 47
    },
    {
      "midi": 76,
      "hit": false,
      "t": 200329.71239583922,
      "d": 102.27281250001397,
      "v": 47
    },
    {
      "midi": 76,
      "hit": false,
      "t": 200443.34885416648,
      "d": 125.00010416665464,
      "v": 84
    },
    {
      "midi": 33,
      "hit": false,
      "t": 200454.71249999944,
      "d": 261.36385416667326,
      "v": 93
    },
    {
      "midi": 52,
      "hit": false,
      "t": 200454.71250000002,
      "d": 125.00010416665464,
      "v": 44
    },
    {
      "midi": 56,
      "hit": false,
      "t": 200454.71250000002,
      "d": 125.00010416665464,
      "v": 44
    },
    {
      "midi": 52,
      "hit": false,
      "t": 200454.71250000043,
      "d": 261.36385416667326,
      "v": 76
    },
    {
      "midi": 56,
      "hit": false,
      "t": 200454.71250000043,
      "d": 261.36385416667326,
      "v": 76
    },
    {
      "midi": 59,
      "hit": false,
      "t": 200454.71250000043,
      "d": 261.36385416667326,
      "v": 76
    },
    {
      "midi": 64,
      "hit": false,
      "t": 200454.71250000043,
      "d": 261.36385416667326,
      "v": 76
    },
    {
      "midi": 64,
      "hit": false,
      "t": 200466.07614583924,
      "d": 102.27281250001397,
      "v": 47
    },
    {
      "midi": 76,
      "hit": false,
      "t": 200466.07614583924,
      "d": 102.27281250001397,
      "v": 47
    },
    {
      "midi": 52,
      "hit": false,
      "t": 200591.07625,
      "d": 125.00010416665464,
      "v": 44
    },
    {
      "midi": 56,
      "hit": false,
      "t": 200591.07625,
      "d": 125.00010416665464,
      "v": 44
    },
    {
      "midi": 64,
      "hit": false,
      "t": 200602.43989583926,
      "d": 102.27281250001397,
      "v": 47
    },
    {
      "midi": 76,
      "hit": false,
      "t": 200602.43989583926,
      "d": 102.27281250001397,
      "v": 47
    },
    {
      "midi": 64,
      "hit": false,
      "t": 200704.7127083332,
      "d": 1352.2738541666768,
      "v": 64
    },
    {
      "midi": 68,
      "hit": false,
      "t": 200704.7127083332,
      "d": 1352.2738541666768,
      "v": 64
    },
    {
      "midi": 71,
      "hit": false,
      "t": 200704.7127083332,
      "d": 1352.2738541666768,
      "v": 64
    },
    {
      "midi": 37,
      "hit": false,
      "t": 200727.43999999945,
      "d": 397.7276041666628,
      "v": 93
    },
    {
      "midi": 49,
      "hit": false,
      "t": 200727.44,
      "d": 125.00010416665464,
      "v": 59
    },
    {
      "midi": 44,
      "hit": false,
      "t": 200727.44,
      "d": 261.36385416664416,
      "v": 59
    },
    {
      "midi": 56,
      "hit": false,
      "t": 200727.44,
      "d": 261.36385416664416,
      "v": 59
    },
    {
      "midi": 61,
      "hit": false,
      "t": 200727.44,
      "d": 261.36385416664416,
      "v": 47
    },
    {
      "midi": 64,
      "hit": false,
      "t": 200727.44,
      "d": 261.36385416664416,
      "v": 47
    },
    {
      "midi": 68,
      "hit": false,
      "t": 200727.44,
      "d": 261.36385416664416,
      "v": 47
    },
    {
      "midi": 61,
      "hit": false,
      "t": 200727.44000000044,
      "d": 261.36385416667326,
      "v": 41
    },
    {
      "midi": 64,
      "hit": false,
      "t": 200727.44000000044,
      "d": 261.36385416667326,
      "v": 41
    },
    {
      "midi": 68,
      "hit": false,
      "t": 200727.44000000044,
      "d": 261.36385416667326,
      "v": 41
    },
    {
      "midi": 64,
      "hit": false,
      "t": 200738.80364583927,
      "d": 102.27281250001397,
      "v": 76
    },
    {
      "midi": 76,
      "hit": false,
      "t": 200738.80364583927,
      "d": 102.27281250001397,
      "v": 76
    },
    {
      "midi": 64,
      "hit": false,
      "t": 200875.1673958393,
      "d": 102.27281250001397,
      "v": 41
    },
    {
      "midi": 76,
      "hit": false,
      "t": 200875.1673958393,
      "d": 102.27281250001397,
      "v": 41
    },
    {
      "midi": 85,
      "hit": false,
      "t": 200988.80385416647,
      "d": 125.00010416668374,
      "v": 84
    },
    {
      "midi": 56,
      "hit": false,
      "t": 201000.16749999998,
      "d": 125.00010416665464,
      "v": 59
    },
    {
      "midi": 44,
      "hit": false,
      "t": 201000.16749999998,
      "d": 261.36385416664416,
      "v": 59
    },
    {
      "midi": 49,
      "hit": false,
      "t": 201000.16749999998,
      "d": 261.36385416664416,
      "v": 59
    },
    {
      "midi": 61,
      "hit": false,
      "t": 201000.16749999998,
      "d": 261.36385416664416,
      "v": 53
    },
    {
      "midi": 64,
      "hit": false,
      "t": 201000.16749999998,
      "d": 261.36385416664416,
      "v": 53
    },
    {
      "midi": 68,
      "hit": false,
      "t": 201000.16749999998,
      "d": 261.36385416664416,
      "v": 53
    },
    {
      "midi": 56,
      "hit": false,
      "t": 201000.16750000045,
      "d": 261.36385416667326,
      "v": 76
    },
    {
      "midi": 61,
      "hit": false,
      "t": 201000.16750000045,
      "d": 261.36385416667326,
      "v": 47
    },
    {
      "midi": 64,
      "hit": false,
      "t": 201000.16750000045,
      "d": 261.36385416667326,
      "v": 47
    },
    {
      "midi": 68,
      "hit": false,
      "t": 201000.16750000045,
      "d": 261.36385416667326,
      "v": 47
    },
    {
      "midi": 49,
      "hit": false,
      "t": 201000.16750000045,
      "d": 534.0913541666523,
      "v": 76
    },
    {
      "midi": 64,
      "hit": false,
      "t": 201011.5311458393,
      "d": 102.27281250001397,
      "v": 41
    },
    {
      "midi": 76,
      "hit": false,
      "t": 201011.5311458393,
      "d": 102.27281250001397,
      "v": 41
    },
    {
      "midi": 37,
      "hit": false,
      "t": 201136.53124999945,
      "d": 125.00010416665464,
      "v": 93
    },
    {
      "midi": 64,
      "hit": false,
      "t": 201147.89489583933,
      "d": 102.27281250001397,
      "v": 41
    },
    {
      "midi": 76,
      "hit": false,
      "t": 201147.89489583933,
      "d": 102.27281250001397,
      "v": 41
    },
    {
      "midi": 85,
      "hit": false,
      "t": 201261.53135416648,
      "d": 647.7278125000012,
      "v": 84
    },
    {
      "midi": 32,
      "hit": false,
      "t": 201272.89499999944,
      "d": 397.7276041666628,
      "v": 93
    },
    {
      "midi": 61,
      "hit": false,
      "t": 201272.89499999996,
      "d": 125.00010416665464,
      "v": 57
    },
    {
      "midi": 64,
      "hit": false,
      "t": 201272.89499999996,
      "d": 125.00010416665464,
      "v": 57
    },
    {
      "midi": 68,
      "hit": false,
      "t": 201272.89499999996,
      "d": 125.00010416665464,
      "v": 57
    },
    {
      "midi": 61,
      "hit": false,
      "t": 201272.89500000046,
      "d": 125.00010416665464,
      "v": 51
    },
    {
      "midi": 64,
      "hit": false,
      "t": 201272.89500000046,
      "d": 125.00010416665464,
      "v": 51
    },
    {
      "midi": 68,
      "hit": false,
      "t": 201272.89500000046,
      "d": 125.00010416665464,
      "v": 51
    },
    {
      "midi": 64,
      "hit": false,
      "t": 201284.25864583935,
      "d": 102.27281250001397,
      "v": 41
    },
    {
      "midi": 76,
      "hit": false,
      "t": 201284.25864583935,
      "d": 102.27281250001397,
      "v": 41
    },
    {
      "midi": 44,
      "hit": false,
      "t": 201409.25874999995,
      "d": 125.00010416665464,
      "v": 59
    },
    {
      "midi": 49,
      "hit": false,
      "t": 201409.25874999995,
      "d": 125.00010416665464,
      "v": 59
    },
    {
      "midi": 56,
      "hit": false,
      "t": 201409.25874999995,
      "d": 125.00010416665464,
      "v": 59
    },
    {
      "midi": 61,
      "hit": false,
      "t": 201409.25874999995,
      "d": 159.0910416666593,
      "v": 44
    },
    {
      "midi": 64,
      "hit": false,
      "t": 201409.25874999995,
      "d": 159.0910416666593,
      "v": 44
    },
    {
      "midi": 68,
      "hit": false,
      "t": 201409.25874999995,
      "d": 159.0910416666593,
      "v": 44
    },
    {
      "midi": 56,
      "hit": false,
      "t": 201409.25875000044,
      "d": 125.00010416665464,
      "v": 76
    },
    {
      "midi": 61,
      "hit": false,
      "t": 201409.25875000044,
      "d": 159.0910416666593,
      "v": 30
    },
    {
      "midi": 64,
      "hit": false,
      "t": 201409.25875000044,
      "d": 159.0910416666593,
      "v": 30
    },
    {
      "midi": 68,
      "hit": false,
      "t": 201409.25875000044,
      "d": 159.0910416666593,
      "v": 30
    },
    {
      "midi": 64,
      "hit": false,
      "t": 201420.62239583937,
      "d": 102.27281250001397,
      "v": 41
    },
    {
      "midi": 76,
      "hit": false,
      "t": 201420.62239583937,
      "d": 102.27281250001397,
      "v": 41
    },
    {
      "midi": 64,
      "hit": false,
      "t": 201556.9861458394,
      "d": 102.27281250001397,
      "v": 76
    },
    {
      "midi": 76,
      "hit": false,
      "t": 201556.9861458394,
      "d": 102.27281250001397,
      "v": 76
    },
    {
      "midi": 32,
      "hit": false,
      "t": 201681.98624999943,
      "d": 125.00010416665464,
      "v": 93
    },
    {
      "midi": 61,
      "hit": false,
      "t": 201681.98624999993,
      "d": 125.00010416665464,
      "v": 44
    },
    {
      "midi": 64,
      "hit": false,
      "t": 201681.98624999993,
      "d": 125.00010416665464,
      "v": 44
    },
    {
      "midi": 68,
      "hit": false,
      "t": 201681.98624999993,
      "d": 125.00010416665464,
      "v": 44
    },
    {
      "midi": 61,
      "hit": false,
      "t": 201681.98625000042,
      "d": 125.00010416665464,
      "v": 30
    },
    {
      "midi": 64,
      "hit": false,
      "t": 201681.98625000042,
      "d": 125.00010416665464,
      "v": 30
    },
    {
      "midi": 68,
      "hit": false,
      "t": 201681.98625000042,
      "d": 125.00010416665464,
      "v": 30
    },
    {
      "midi": 64,
      "hit": false,
      "t": 201693.3498958394,
      "d": 102.27281250001397,
      "v": 41
    },
    {
      "midi": 76,
      "hit": false,
      "t": 201693.3498958394,
      "d": 102.27281250001397,
      "v": 41
    },
    {
      "midi": 37,
      "hit": false,
      "t": 201818.34999999942,
      "d": 397.7276041666628,
      "v": 93
    },
    {
      "midi": 61,
      "hit": false,
      "t": 201818.34999999992,
      "d": 125.00010416665464,
      "v": 57
    },
    {
      "midi": 64,
      "hit": false,
      "t": 201818.34999999992,
      "d": 125.00010416665464,
      "v": 57
    },
    {
      "midi": 68,
      "hit": false,
      "t": 201818.34999999992,
      "d": 125.00010416665464,
      "v": 57
    },
    {
      "midi": 44,
      "hit": false,
      "t": 201818.34999999992,
      "d": 261.36385416664416,
      "v": 59
    },
    {
      "midi": 49,
      "hit": false,
      "t": 201818.34999999992,
      "d": 261.36385416664416,
      "v": 59
    },
    {
      "midi": 56,
      "hit": false,
      "t": 201818.34999999992,
      "d": 397.7276041666337,
      "v": 59
    },
    {
      "midi": 61,
      "hit": false,
      "t": 201818.3500000004,
      "d": 125.00010416665464,
      "v": 51
    },
    {
      "midi": 64,
      "hit": false,
      "t": 201818.3500000004,
      "d": 125.00010416665464,
      "v": 51
    },
    {
      "midi": 68,
      "hit": false,
      "t": 201818.3500000004,
      "d": 125.00010416665464,
      "v": 51
    },
    {
      "midi": 49,
      "hit": false,
      "t": 201818.3500000004,
      "d": 261.36385416664416,
      "v": 76
    },
    {
      "midi": 56,
      "hit": false,
      "t": 201818.3500000004,
      "d": 397.7276041666337,
      "v": 76
    },
    {
      "midi": 64,
      "hit": false,
      "t": 201829.71364583942,
      "d": 102.27281250001397,
      "v": 41
    },
    {
      "midi": 76,
      "hit": false,
      "t": 201829.71364583942,
      "d": 102.27281250001397,
      "v": 41
    },
    {
      "midi": 61,
      "hit": false,
      "t": 201954.7137499999,
      "d": 125.00010416665464,
      "v": 44
    },
    {
      "midi": 64,
      "hit": false,
      "t": 201954.7137499999,
      "d": 125.00010416665464,
      "v": 44
    },
    {
      "midi": 68,
      "hit": false,
      "t": 201954.7137499999,
      "d": 125.00010416665464,
      "v": 44
    },
    {
      "midi": 61,
      "hit": false,
      "t": 201954.7137500004,
      "d": 125.00010416665464,
      "v": 30
    },
    {
      "midi": 64,
      "hit": false,
      "t": 201954.7137500004,
      "d": 125.00010416665464,
      "v": 30
    },
    {
      "midi": 68,
      "hit": false,
      "t": 201954.7137500004,
      "d": 125.00010416665464,
      "v": 30
    },
    {
      "midi": 64,
      "hit": false,
      "t": 201966.07739583944,
      "d": 102.27281250001397,
      "v": 41
    },
    {
      "midi": 76,
      "hit": false,
      "t": 201966.07739583944,
      "d": 102.27281250001397,
      "v": 41
    },
    {
      "midi": 85,
      "hit": false,
      "t": 202079.71385416648,
      "d": 125.00010416668374,
      "v": 84
    },
    {
      "midi": 61,
      "hit": false,
      "t": 202091.0774999999,
      "d": 125.00010416665464,
      "v": 44
    },
    {
      "midi": 64,
      "hit": false,
      "t": 202091.0774999999,
      "d": 125.00010416665464,
      "v": 44
    },
    {
      "midi": 68,
      "hit": false,
      "t": 202091.0774999999,
      "d": 125.00010416665464,
      "v": 44
    },
    {
      "midi": 61,
      "hit": false,
      "t": 202091.0775000004,
      "d": 125.00010416665464,
      "v": 30
    },
    {
      "midi": 64,
      "hit": false,
      "t": 202091.0775000004,
      "d": 125.00010416665464,
      "v": 30
    },
    {
      "midi": 68,
      "hit": false,
      "t": 202091.0775000004,
      "d": 125.00010416665464,
      "v": 30
    },
    {
      "midi": 64,
      "hit": false,
      "t": 202102.44114583946,
      "d": 102.27281250001397,
      "v": 41
    },
    {
      "midi": 76,
      "hit": false,
      "t": 202102.44114583946,
      "d": 102.27281250001397,
      "v": 41
    },
    {
      "midi": 64,
      "hit": false,
      "t": 202204.7139583332,
      "d": 261.36385416667326,
      "v": 64
    },
    {
      "midi": 68,
      "hit": false,
      "t": 202204.7139583332,
      "d": 261.36385416667326,
      "v": 64
    },
    {
      "midi": 71,
      "hit": false,
      "t": 202204.7139583332,
      "d": 261.36385416667326,
      "v": 64
    },
    {
      "midi": 32,
      "hit": false,
      "t": 202227.44124999942,
      "d": 125.00010416665464,
      "v": 93
    },
    {
      "midi": 44,
      "hit": false,
      "t": 202227.4412499999,
      "d": 125.00010416665464,
      "v": 59
    },
    {
      "midi": 49,
      "hit": false,
      "t": 202227.4412499999,
      "d": 125.00010416665464,
      "v": 59
    },
    {
      "midi": 56,
      "hit": false,
      "t": 202227.4412499999,
      "d": 261.36385416664416,
      "v": 59
    },
    {
      "midi": 61,
      "hit": false,
      "t": 202227.4412499999,
      "d": 261.36385416664416,
      "v": 57
    },
    {
      "midi": 64,
      "hit": false,
      "t": 202227.4412499999,
      "d": 261.36385416664416,
      "v": 57
    },
    {
      "midi": 68,
      "hit": false,
      "t": 202227.4412499999,
      "d": 261.36385416664416,
      "v": 57
    },
    {
      "midi": 61,
      "hit": false,
      "t": 202227.44125000038,
      "d": 261.36385416667326,
      "v": 51
    },
    {
      "midi": 64,
      "hit": false,
      "t": 202227.44125000038,
      "d": 261.36385416667326,
      "v": 51
    },
    {
      "midi": 68,
      "hit": false,
      "t": 202227.44125000038,
      "d": 261.36385416667326,
      "v": 51
    },
    {
      "midi": 49,
      "hit": false,
      "t": 202227.44125000038,
      "d": 397.7276041666628,
      "v": 76
    },
    {
      "midi": 56,
      "hit": false,
      "t": 202227.44125000038,
      "d": 534.0913541666523,
      "v": 76
    },
    {
      "midi": 64,
      "hit": false,
      "t": 202238.80489583948,
      "d": 102.27281250001397,
      "v": 41
    },
    {
      "midi": 76,
      "hit": false,
      "t": 202238.80489583948,
      "d": 102.27281250001397,
      "v": 41
    },
    {
      "midi": 85,
      "hit": false,
      "t": 202352.44135416648,
      "d": 397.7276041666628,
      "v": 84
    },
    {
      "midi": 37,
      "hit": false,
      "t": 202363.8049999994,
      "d": 125.00010416665464,
      "v": 93
    },
    {
      "midi": 64,
      "hit": false,
      "t": 202375.1686458395,
      "d": 102.27281250001397,
      "v": 74
    },
    {
      "midi": 76,
      "hit": false,
      "t": 202375.1686458395,
      "d": 102.27281250001397,
      "v": 74
    },
    {
      "midi": 61,
      "hit": false,
      "t": 202477.4414583332,
      "d": 125.00010416665464,
      "v": 64
    },
    {
      "midi": 64,
      "hit": false,
      "t": 202477.4414583332,
      "d": 125.00010416665464,
      "v": 64
    },
    {
      "midi": 68,
      "hit": false,
      "t": 202477.4414583332,
      "d": 125.00010416665464,
      "v": 64
    },
    {
      "midi": 32,
      "hit": false,
      "t": 202500.1687499994,
      "d": 261.36385416667326,
      "v": 93
    },
    {
      "midi": 61,
      "hit": false,
      "t": 202500.16874999987,
      "d": 125.00010416665464,
      "v": 44
    },
    {
      "midi": 64,
      "hit": false,
      "t": 202500.16874999987,
      "d": 125.00010416665464,
      "v": 44
    },
    {
      "midi": 68,
      "hit": false,
      "t": 202500.16874999987,
      "d": 125.00010416665464,
      "v": 44
    },
    {
      "midi": 61,
      "hit": false,
      "t": 202500.1687500004,
      "d": 125.00010416665464,
      "v": 30
    },
    {
      "midi": 64,
      "hit": false,
      "t": 202500.1687500004,
      "d": 125.00010416665464,
      "v": 30
    },
    {
      "midi": 68,
      "hit": false,
      "t": 202500.1687500004,
      "d": 125.00010416665464,
      "v": 30
    },
    {
      "midi": 64,
      "hit": false,
      "t": 202511.53239583952,
      "d": 102.27281250001397,
      "v": 47
    },
    {
      "midi": 76,
      "hit": false,
      "t": 202511.53239583952,
      "d": 102.27281250001397,
      "v": 47
    },
    {
      "midi": 63,
      "hit": false,
      "t": 202613.8052083332,
      "d": 125.00010416665464,
      "v": 64
    },
    {
      "midi": 66,
      "hit": false,
      "t": 202613.8052083332,
      "d": 125.00010416665464,
      "v": 64
    },
    {
      "midi": 69,
      "hit": false,
      "t": 202613.8052083332,
      "d": 125.00010416665464,
      "v": 64
    },
    {
      "midi": 61,
      "hit": false,
      "t": 202636.53249999986,
      "d": 125.00010416665464,
      "v": 57
    },
    {
      "midi": 64,
      "hit": false,
      "t": 202636.53249999986,
      "d": 125.00010416665464,
      "v": 57
    },
    {
      "midi": 68,
      "hit": false,
      "t": 202636.53249999986,
      "d": 125.00010416665464,
      "v": 57
    },
    {
      "midi": 61,
      "hit": false,
      "t": 202636.53250000038,
      "d": 125.00010416665464,
      "v": 51
    },
    {
      "midi": 64,
      "hit": false,
      "t": 202636.53250000038,
      "d": 125.00010416665464,
      "v": 51
    },
    {
      "midi": 68,
      "hit": false,
      "t": 202636.53250000038,
      "d": 125.00010416665464,
      "v": 51
    },
    {
      "midi": 64,
      "hit": false,
      "t": 202647.89614583954,
      "d": 102.27281250001397,
      "v": 47
    },
    {
      "midi": 76,
      "hit": false,
      "t": 202647.89614583954,
      "d": 102.27281250001397,
      "v": 47
    },
    {
      "midi": 64,
      "hit": false,
      "t": 202750.16895833318,
      "d": 136.36374999998952,
      "v": 64
    },
    {
      "midi": 68,
      "hit": false,
      "t": 202750.16895833318,
      "d": 261.36385416664416,
      "v": 64
    },
    {
      "midi": 71,
      "hit": false,
      "t": 202750.16895833318,
      "d": 261.36385416664416,
      "v": 64
    },
    {
      "midi": 44,
      "hit": false,
      "t": 202772.89624999985,
      "d": 125.00010416665464,
      "v": 59
    },
    {
      "midi": 49,
      "hit": false,
      "t": 202772.89624999985,
      "d": 125.00010416665464,
      "v": 59
    },
    {
      "midi": 61,
      "hit": false,
      "t": 202772.89624999985,
      "d": 125.00010416665464,
      "v": 44
    },
    {
      "midi": 64,
      "hit": false,
      "t": 202772.89624999985,
      "d": 125.00010416665464,
      "v": 44
    },
    {
      "midi": 68,
      "hit": false,
      "t": 202772.89624999985,
      "d": 125.00010416665464,
      "v": 44
    },
    {
      "midi": 61,
      "hit": false,
      "t": 202772.89625000037,
      "d": 125.00010416665464,
      "v": 30
    },
    {
      "midi": 64,
      "hit": false,
      "t": 202772.89625000037,
      "d": 125.00010416665464,
      "v": 30
    },
    {
      "midi": 68,
      "hit": false,
      "t": 202772.89625000037,
      "d": 125.00010416665464,
      "v": 30
    },
    {
      "midi": 64,
      "hit": false,
      "t": 202784.25989583955,
      "d": 102.27281250001397,
      "v": 47
    },
    {
      "midi": 76,
      "hit": false,
      "t": 202784.25989583955,
      "d": 102.27281250001397,
      "v": 47
    },
    {
      "midi": 64,
      "hit": false,
      "t": 202886.53270833316,
      "d": 125.00010416665464,
      "v": 64
    },
    {
      "midi": 61,
      "hit": false,
      "t": 202886.53270833316,
      "d": 261.36385416664416,
      "v": 64
    },
    {
      "midi": 69,
      "hit": false,
      "t": 202886.53270833316,
      "d": 261.36385416664416,
      "v": 64
    },
    {
      "midi": 76,
      "hit": false,
      "t": 202897.89635416647,
      "d": 943.1826041666791,
      "v": 84
    },
    {
      "midi": 33,
      "hit": false,
      "t": 202909.2599999994,
      "d": 397.7276041666628,
      "v": 93
    },
    {
      "midi": 45,
      "hit": false,
      "t": 202909.25999999983,
      "d": 261.36385416667326,
      "v": 59
    },
    {
      "midi": 52,
      "hit": false,
      "t": 202909.25999999983,
      "d": 261.36385416667326,
      "v": 59
    },
    {
      "midi": 57,
      "hit": false,
      "t": 202909.25999999983,
      "d": 261.36385416667326,
      "v": 59
    },
    {
      "midi": 61,
      "hit": false,
      "t": 202909.25999999983,
      "d": 261.36385416667326,
      "v": 44
    },
    {
      "midi": 64,
      "hit": false,
      "t": 202909.25999999983,
      "d": 261.36385416667326,
      "v": 44
    },
    {
      "midi": 69,
      "hit": false,
      "t": 202909.25999999983,
      "d": 261.36385416667326,
      "v": 44
    },
    {
      "midi": 61,
      "hit": false,
      "t": 202909.26000000036,
      "d": 261.36385416667326,
      "v": 38
    },
    {
      "midi": 64,
      "hit": false,
      "t": 202909.26000000036,
      "d": 261.36385416667326,
      "v": 38
    },
    {
      "midi": 69,
      "hit": false,
      "t": 202909.26000000036,
      "d": 261.36385416667326,
      "v": 38
    },
    {
      "midi": 45,
      "hit": false,
      "t": 203181.98749999984,
      "d": 261.36385416667326,
      "v": 59
    },
    {
      "midi": 52,
      "hit": false,
      "t": 203181.98749999984,
      "d": 261.36385416667326,
      "v": 59
    },
    {
      "midi": 57,
      "hit": false,
      "t": 203181.98749999984,
      "d": 261.36385416667326,
      "v": 59
    },
    {
      "midi": 61,
      "hit": false,
      "t": 203181.98749999984,
      "d": 261.36385416667326,
      "v": 45
    },
    {
      "midi": 64,
      "hit": false,
      "t": 203181.98749999984,
      "d": 261.36385416667326,
      "v": 45
    },
    {
      "midi": 69,
      "hit": false,
      "t": 203181.98749999984,
      "d": 261.36385416667326,
      "v": 45
    },
    {
      "midi": 61,
      "hit": false,
      "t": 203181.98750000037,
      "d": 261.36385416667326,
      "v": 39
    },
    {
      "midi": 64,
      "hit": false,
      "t": 203181.98750000037,
      "d": 261.36385416667326,
      "v": 39
    },
    {
      "midi": 69,
      "hit": false,
      "t": 203181.98750000037,
      "d": 261.36385416667326,
      "v": 39
    },
    {
      "midi": 57,
      "hit": false,
      "t": 203181.98750000037,
      "d": 397.7276041666628,
      "v": 76
    },
    {
      "midi": 45,
      "hit": false,
      "t": 203181.98750000037,
      "d": 670.4551041666418,
      "v": 76
    },
    {
      "midi": 61,
      "hit": false,
      "t": 203295.62395833313,
      "d": 261.36385416667326,
      "v": 64
    },
    {
      "midi": 64,
      "hit": false,
      "t": 203295.62395833313,
      "d": 261.36385416667326,
      "v": 64
    },
    {
      "midi": 69,
      "hit": false,
      "t": 203295.62395833313,
      "d": 261.36385416667326,
      "v": 64
    },
    {
      "midi": 33,
      "hit": false,
      "t": 203318.3512499994,
      "d": 125.00010416665464,
      "v": 93
    },
    {
      "midi": 35,
      "hit": false,
      "t": 203454.71499999939,
      "d": 397.7276041666628,
      "v": 93
    },
    {
      "midi": 61,
      "hit": false,
      "t": 203454.71499999985,
      "d": 125.00010416665464,
      "v": 55
    },
    {
      "midi": 64,
      "hit": false,
      "t": 203454.71499999985,
      "d": 125.00010416665464,
      "v": 55
    },
    {
      "midi": 69,
      "hit": false,
      "t": 203454.71499999985,
      "d": 125.00010416665464,
      "v": 55
    },
    {
      "midi": 61,
      "hit": false,
      "t": 203454.71500000037,
      "d": 125.00010416665464,
      "v": 49
    },
    {
      "midi": 64,
      "hit": false,
      "t": 203454.71500000037,
      "d": 125.00010416665464,
      "v": 49
    },
    {
      "midi": 69,
      "hit": false,
      "t": 203454.71500000037,
      "d": 125.00010416665464,
      "v": 49
    },
    {
      "midi": 45,
      "hit": false,
      "t": 203591.07874999984,
      "d": 125.00010416665464,
      "v": 59
    },
    {
      "midi": 52,
      "hit": false,
      "t": 203591.07874999984,
      "d": 125.00010416665464,
      "v": 59
    },
    {
      "midi": 61,
      "hit": false,
      "t": 203591.07874999984,
      "d": 125.00010416665464,
      "v": 44
    },
    {
      "midi": 69,
      "hit": false,
      "t": 203591.07874999984,
      "d": 125.00010416665464,
      "v": 44
    },
    {
      "midi": 64,
      "hit": false,
      "t": 203591.07874999984,
      "d": 147.7273958333244,
      "v": 44
    },
    {
      "midi": 57,
      "hit": false,
      "t": 203591.07874999984,
      "d": 261.36385416664416,
      "v": 59
    },
    {
      "midi": 57,
      "hit": false,
      "t": 203591.07875000036,
      "d": 125.00010416665464,
      "v": 76
    },
    {
      "midi": 61,
      "hit": false,
      "t": 203591.07875000036,
      "d": 125.00010416665464,
      "v": 30
    },
    {
      "midi": 69,
      "hit": false,
      "t": 203591.07875000036,
      "d": 125.00010416665464,
      "v": 30
    },
    {
      "midi": 64,
      "hit": false,
      "t": 203591.07875000036,
      "d": 147.7273958333244,
      "v": 30
    },
    {
      "midi": 35,
      "hit": false,
      "t": 203863.80624999938,
      "d": 125.00010416665464,
      "v": 93
    },
    {
      "midi": 61,
      "hit": false,
      "t": 203863.80624999982,
      "d": 125.00010416665464,
      "v": 44
    },
    {
      "midi": 64,
      "hit": false,
      "t": 203863.80624999982,
      "d": 125.00010416665464,
      "v": 44
    },
    {
      "midi": 69,
      "hit": false,
      "t": 203863.80624999982,
      "d": 125.00010416665464,
      "v": 44
    },
    {
      "midi": 61,
      "hit": false,
      "t": 203863.80625000034,
      "d": 125.00010416665464,
      "v": 30
    },
    {
      "midi": 64,
      "hit": false,
      "t": 203863.80625000034,
      "d": 125.00010416665464,
      "v": 30
    },
    {
      "midi": 69,
      "hit": false,
      "t": 203863.80625000034,
      "d": 125.00010416665464,
      "v": 30
    },
    {
      "midi": 76,
      "hit": false,
      "t": 203988.80635416647,
      "d": 136.36374999998952,
      "v": 84
    },
    {
      "midi": 37,
      "hit": false,
      "t": 204000.16999999937,
      "d": 125.00010416665464,
      "v": 93
    },
    {
      "midi": 61,
      "hit": false,
      "t": 204000.1699999998,
      "d": 125.00010416665464,
      "v": 65
    },
    {
      "midi": 64,
      "hit": false,
      "t": 204000.1699999998,
      "d": 125.00010416665464,
      "v": 65
    },
    {
      "midi": 69,
      "hit": false,
      "t": 204000.1699999998,
      "d": 125.00010416665464,
      "v": 65
    },
    {
      "midi": 45,
      "hit": false,
      "t": 204000.1699999998,
      "d": 261.36385416664416,
      "v": 59
    },
    {
      "midi": 52,
      "hit": false,
      "t": 204000.1699999998,
      "d": 261.36385416664416,
      "v": 59
    },
    {
      "midi": 57,
      "hit": false,
      "t": 204000.1699999998,
      "d": 261.36385416664416,
      "v": 59
    },
    {
      "midi": 61,
      "hit": false,
      "t": 204000.17000000033,
      "d": 125.00010416665464,
      "v": 59
    },
    {
      "midi": 64,
      "hit": false,
      "t": 204000.17000000033,
      "d": 125.00010416665464,
      "v": 59
    },
    {
      "midi": 69,
      "hit": false,
      "t": 204000.17000000033,
      "d": 125.00010416665464,
      "v": 59
    },
    {
      "midi": 57,
      "hit": false,
      "t": 204000.17000000033,
      "d": 261.36385416664416,
      "v": 76
    },
    {
      "midi": 45,
      "hit": false,
      "t": 204000.17000000033,
      "d": 397.7276041666337,
      "v": 76
    },
    {
      "midi": 78,
      "hit": false,
      "t": 204125.17010416646,
      "d": 136.36374999998952,
      "v": 59
    },
    {
      "midi": 61,
      "hit": false,
      "t": 204136.5337499998,
      "d": 125.00010416665464,
      "v": 44
    },
    {
      "midi": 64,
      "hit": false,
      "t": 204136.5337499998,
      "d": 125.00010416665464,
      "v": 44
    },
    {
      "midi": 69,
      "hit": false,
      "t": 204136.5337499998,
      "d": 125.00010416665464,
      "v": 44
    },
    {
      "midi": 61,
      "hit": false,
      "t": 204136.53375000032,
      "d": 125.00010416665464,
      "v": 30
    },
    {
      "midi": 64,
      "hit": false,
      "t": 204136.53375000032,
      "d": 125.00010416665464,
      "v": 30
    },
    {
      "midi": 69,
      "hit": false,
      "t": 204136.53375000032,
      "d": 125.00010416665464,
      "v": 30
    },
    {
      "midi": 76,
      "hit": false,
      "t": 204261.53385416645,
      "d": 136.36374999998952,
      "v": 84
    },
    {
      "midi": 37,
      "hit": false,
      "t": 204272.89749999935,
      "d": 261.36385416667326,
      "v": 93
    },
    {
      "midi": 61,
      "hit": false,
      "t": 204272.8974999998,
      "d": 125.00010416665464,
      "v": 44
    },
    {
      "midi": 64,
      "hit": false,
      "t": 204272.8974999998,
      "d": 125.00010416665464,
      "v": 44
    },
    {
      "midi": 69,
      "hit": false,
      "t": 204272.8974999998,
      "d": 125.00010416665464,
      "v": 44
    },
    {
      "midi": 61,
      "hit": false,
      "t": 204272.8975000003,
      "d": 125.00010416665464,
      "v": 30
    },
    {
      "midi": 64,
      "hit": false,
      "t": 204272.8975000003,
      "d": 125.00010416665464,
      "v": 30
    },
    {
      "midi": 69,
      "hit": false,
      "t": 204272.8975000003,
      "d": 125.00010416665464,
      "v": 30
    },
    {
      "midi": 73,
      "hit": false,
      "t": 204397.89760416644,
      "d": 125.00010416665464,
      "v": 59
    },
    {
      "midi": 45,
      "hit": false,
      "t": 204409.26124999978,
      "d": 125.00010416665464,
      "v": 59
    },
    {
      "midi": 52,
      "hit": false,
      "t": 204409.26124999978,
      "d": 125.00010416665464,
      "v": 59
    },
    {
      "midi": 57,
      "hit": false,
      "t": 204409.26124999978,
      "d": 261.36385416664416,
      "v": 59
    },
    {
      "midi": 61,
      "hit": false,
      "t": 204409.26124999978,
      "d": 261.36385416664416,
      "v": 61
    },
    {
      "midi": 64,
      "hit": false,
      "t": 204409.26124999978,
      "d": 261.36385416664416,
      "v": 61
    },
    {
      "midi": 69,
      "hit": false,
      "t": 204409.26124999978,
      "d": 261.36385416664416,
      "v": 61
    },
    {
      "midi": 61,
      "hit": false,
      "t": 204409.2612500003,
      "d": 261.36385416667326,
      "v": 55
    },
    {
      "midi": 64,
      "hit": false,
      "t": 204409.2612500003,
      "d": 261.36385416667326,
      "v": 55
    },
    {
      "midi": 69,
      "hit": false,
      "t": 204409.2612500003,
      "d": 261.36385416667326,
      "v": 55
    },
    {
      "midi": 57,
      "hit": false,
      "t": 204409.2612500003,
      "d": 397.7276041666628,
      "v": 76
    },
    {
      "midi": 45,
      "hit": false,
      "t": 204409.2612500003,
      "d": 534.0913541666523,
      "v": 76
    },
    {
      "midi": 61,
      "hit": false,
      "t": 204522.89770833313,
      "d": 261.36385416667326,
      "v": 64
    },
    {
      "midi": 73,
      "hit": false,
      "t": 204534.26135416643,
      "d": 261.36385416667326,
      "v": 84
    },
    {
      "midi": 39,
      "hit": false,
      "t": 204545.62499999936,
      "d": 261.36385416667326,
      "v": 93
    },
    {
      "midi": 61,
      "hit": false,
      "t": 204681.98874999976,
      "d": 125.00010416665464,
      "v": 44
    },
    {
      "midi": 64,
      "hit": false,
      "t": 204681.98874999976,
      "d": 125.00010416665464,
      "v": 44
    },
    {
      "midi": 69,
      "hit": false,
      "t": 204681.98874999976,
      "d": 125.00010416665464,
      "v": 44
    },
    {
      "midi": 61,
      "hit": false,
      "t": 204681.9887500003,
      "d": 125.00010416665464,
      "v": 30
    },
    {
      "midi": 64,
      "hit": false,
      "t": 204681.9887500003,
      "d": 125.00010416665464,
      "v": 30
    },
    {
      "midi": 69,
      "hit": false,
      "t": 204681.9887500003,
      "d": 125.00010416665464,
      "v": 30
    },
    {
      "midi": 64,
      "hit": false,
      "t": 204795.62520833313,
      "d": 261.36385416667326,
      "v": 64
    },
    {
      "midi": 76,
      "hit": false,
      "t": 204806.98885416644,
      "d": 125.00010416665464,
      "v": 84
    },
    {
      "midi": 40,
      "hit": false,
      "t": 204818.35249999937,
      "d": 125.00010416665464,
      "v": 93
    },
    {
      "midi": 61,
      "hit": false,
      "t": 204818.35249999975,
      "d": 125.00010416665464,
      "v": 61
    },
    {
      "midi": 64,
      "hit": false,
      "t": 204818.35249999975,
      "d": 125.00010416665464,
      "v": 61
    },
    {
      "midi": 69,
      "hit": false,
      "t": 204818.35249999975,
      "d": 125.00010416665464,
      "v": 61
    },
    {
      "midi": 61,
      "hit": false,
      "t": 204818.3525000003,
      "d": 125.00010416665464,
      "v": 55
    },
    {
      "midi": 64,
      "hit": false,
      "t": 204818.3525000003,
      "d": 125.00010416665464,
      "v": 55
    },
    {
      "midi": 69,
      "hit": false,
      "t": 204818.3525000003,
      "d": 125.00010416665464,
      "v": 55
    },
    {
      "midi": 61,
      "hit": false,
      "t": 204954.71624999974,
      "d": 113.63645833331975,
      "v": 44
    },
    {
      "midi": 64,
      "hit": false,
      "t": 204954.71624999974,
      "d": 113.63645833331975,
      "v": 44
    },
    {
      "midi": 69,
      "hit": false,
      "t": 204954.71624999974,
      "d": 113.63645833331975,
      "v": 44
    },
    {
      "midi": 61,
      "hit": false,
      "t": 204954.7162500003,
      "d": 113.63645833331975,
      "v": 30
    },
    {
      "midi": 64,
      "hit": false,
      "t": 204954.7162500003,
      "d": 113.63645833331975,
      "v": 30
    },
    {
      "midi": 69,
      "hit": false,
      "t": 204954.7162500003,
      "d": 113.63645833331975,
      "v": 30
    },
    {
      "midi": 64,
      "hit": false,
      "t": 205068.35270833314,
      "d": 1352.2738541666768,
      "v": 64
    },
    {
      "midi": 68,
      "hit": false,
      "t": 205068.35270833314,
      "d": 1352.2738541666768,
      "v": 64
    },
    {
      "midi": 71,
      "hit": false,
      "t": 205068.35270833314,
      "d": 1352.2738541666768,
      "v": 64
    },
    {
      "midi": 37,
      "hit": false,
      "t": 205091.07999999935,
      "d": 397.7276041666628,
      "v": 93
    },
    {
      "midi": 49,
      "hit": false,
      "t": 205091.07999999973,
      "d": 125.00010416665464,
      "v": 59
    },
    {
      "midi": 44,
      "hit": false,
      "t": 205091.07999999973,
      "d": 261.36385416664416,
      "v": 59
    },
    {
      "midi": 56,
      "hit": false,
      "t": 205091.07999999973,
      "d": 261.36385416664416,
      "v": 59
    },
    {
      "midi": 61,
      "hit": false,
      "t": 205091.07999999973,
      "d": 261.36385416664416,
      "v": 61
    },
    {
      "midi": 64,
      "hit": false,
      "t": 205091.07999999973,
      "d": 261.36385416664416,
      "v": 61
    },
    {
      "midi": 68,
      "hit": false,
      "t": 205091.07999999973,
      "d": 261.36385416664416,
      "v": 61
    },
    {
      "midi": 61,
      "hit": false,
      "t": 205091.08000000028,
      "d": 261.36385416667326,
      "v": 55
    },
    {
      "midi": 64,
      "hit": false,
      "t": 205091.08000000028,
      "d": 261.36385416667326,
      "v": 55
    },
    {
      "midi": 68,
      "hit": false,
      "t": 205091.08000000028,
      "d": 261.36385416667326,
      "v": 55
    },
    {
      "midi": 64,
      "hit": false,
      "t": 205102.44364583958,
      "d": 102.27281250001397,
      "v": 76
    },
    {
      "midi": 76,
      "hit": false,
      "t": 205102.44364583958,
      "d": 102.27281250001397,
      "v": 76
    },
    {
      "midi": 64,
      "hit": false,
      "t": 205238.8073958396,
      "d": 102.27281250001397,
      "v": 41
    },
    {
      "midi": 76,
      "hit": false,
      "t": 205238.8073958396,
      "d": 102.27281250001397,
      "v": 41
    },
    {
      "midi": 85,
      "hit": false,
      "t": 205352.44385416643,
      "d": 125.00010416668374,
      "v": 84
    },
    {
      "midi": 56,
      "hit": false,
      "t": 205363.8074999997,
      "d": 125.00010416665464,
      "v": 59
    },
    {
      "midi": 44,
      "hit": false,
      "t": 205363.8074999997,
      "d": 261.36385416664416,
      "v": 59
    },
    {
      "midi": 49,
      "hit": false,
      "t": 205363.8074999997,
      "d": 261.36385416664416,
      "v": 59
    },
    {
      "midi": 61,
      "hit": false,
      "t": 205363.8074999997,
      "d": 261.36385416664416,
      "v": 44
    },
    {
      "midi": 64,
      "hit": false,
      "t": 205363.8074999997,
      "d": 261.36385416664416,
      "v": 44
    },
    {
      "midi": 68,
      "hit": false,
      "t": 205363.8074999997,
      "d": 261.36385416664416,
      "v": 44
    },
    {
      "midi": 56,
      "hit": false,
      "t": 205363.8075000003,
      "d": 261.36385416667326,
      "v": 76
    },
    {
      "midi": 61,
      "hit": false,
      "t": 205363.8075000003,
      "d": 261.36385416667326,
      "v": 34
    },
    {
      "midi": 64,
      "hit": false,
      "t": 205363.8075000003,
      "d": 261.36385416667326,
      "v": 34
    },
    {
      "midi": 68,
      "hit": false,
      "t": 205363.8075000003,
      "d": 261.36385416667326,
      "v": 34
    },
    {
      "midi": 49,
      "hit": false,
      "t": 205363.8075000003,
      "d": 397.7276041666628,
      "v": 76
    },
    {
      "midi": 64,
      "hit": false,
      "t": 205375.17114583962,
      "d": 102.27281250001397,
      "v": 41
    },
    {
      "midi": 76,
      "hit": false,
      "t": 205375.17114583962,
      "d": 102.27281250001397,
      "v": 41
    },
    {
      "midi": 37,
      "hit": false,
      "t": 205500.17124999934,
      "d": 125.00010416665464,
      "v": 93
    },
    {
      "midi": 64,
      "hit": false,
      "t": 205511.53489583964,
      "d": 102.27281250001397,
      "v": 41
    },
    {
      "midi": 76,
      "hit": false,
      "t": 205511.53489583964,
      "d": 102.27281250001397,
      "v": 41
    },
    {
      "midi": 85,
      "hit": false,
      "t": 205625.17135416644,
      "d": 647.7278125000012,
      "v": 84
    },
    {
      "midi": 32,
      "hit": false,
      "t": 205636.53499999933,
      "d": 397.7276041666628,
      "v": 93
    },
    {
      "midi": 61,
      "hit": false,
      "t": 205636.53499999968,
      "d": 125.00010416665464,
      "v": 55
    },
    {
      "midi": 64,
      "hit": false,
      "t": 205636.53499999968,
      "d": 125.00010416665464,
      "v": 55
    },
    {
      "midi": 68,
      "hit": false,
      "t": 205636.53499999968,
      "d": 125.00010416665464,
      "v": 55
    },
    {
      "midi": 61,
      "hit": false,
      "t": 205636.5350000003,
      "d": 125.00010416665464,
      "v": 49
    },
    {
      "midi": 64,
      "hit": false,
      "t": 205636.5350000003,
      "d": 125.00010416665464,
      "v": 49
    },
    {
      "midi": 68,
      "hit": false,
      "t": 205636.5350000003,
      "d": 125.00010416665464,
      "v": 49
    },
    {
      "midi": 64,
      "hit": false,
      "t": 205647.89864583965,
      "d": 102.27281250001397,
      "v": 41
    },
    {
      "midi": 76,
      "hit": false,
      "t": 205647.89864583965,
      "d": 102.27281250001397,
      "v": 41
    },
    {
      "midi": 44,
      "hit": false,
      "t": 205772.89874999967,
      "d": 125.00010416665464,
      "v": 59
    },
    {
      "midi": 49,
      "hit": false,
      "t": 205772.89874999967,
      "d": 125.00010416665464,
      "v": 59
    },
    {
      "midi": 56,
      "hit": false,
      "t": 205772.89874999967,
      "d": 125.00010416665464,
      "v": 59
    },
    {
      "midi": 61,
      "hit": false,
      "t": 205772.89874999967,
      "d": 159.0910416666593,
      "v": 44
    },
    {
      "midi": 64,
      "hit": false,
      "t": 205772.89874999967,
      "d": 159.0910416666593,
      "v": 44
    },
    {
      "midi": 68,
      "hit": false,
      "t": 205772.89874999967,
      "d": 159.0910416666593,
      "v": 44
    },
    {
      "midi": 49,
      "hit": false,
      "t": 205772.89875000028,
      "d": 125.00010416665464,
      "v": 76
    },
    {
      "midi": 56,
      "hit": false,
      "t": 205772.89875000028,
      "d": 125.00010416665464,
      "v": 76
    },
    {
      "midi": 61,
      "hit": false,
      "t": 205772.89875000028,
      "d": 159.0910416666593,
      "v": 30
    },
    {
      "midi": 64,
      "hit": false,
      "t": 205772.89875000028,
      "d": 159.0910416666593,
      "v": 30
    },
    {
      "midi": 68,
      "hit": false,
      "t": 205772.89875000028,
      "d": 159.0910416666593,
      "v": 30
    },
    {
      "midi": 64,
      "hit": false,
      "t": 205784.26239583967,
      "d": 102.27281250001397,
      "v": 41
    },
    {
      "midi": 76,
      "hit": false,
      "t": 205784.26239583967,
      "d": 102.27281250001397,
      "v": 41
    },
    {
      "midi": 64,
      "hit": false,
      "t": 205920.6261458397,
      "d": 102.27281250001397,
      "v": 76
    },
    {
      "midi": 76,
      "hit": false,
      "t": 205920.6261458397,
      "d": 102.27281250001397,
      "v": 76
    },
    {
      "midi": 32,
      "hit": false,
      "t": 206045.62624999933,
      "d": 125.00010416665464,
      "v": 93
    },
    {
      "midi": 61,
      "hit": false,
      "t": 206045.62624999965,
      "d": 125.00010416665464,
      "v": 44
    },
    {
      "midi": 64,
      "hit": false,
      "t": 206045.62624999965,
      "d": 125.00010416665464,
      "v": 44
    },
    {
      "midi": 68,
      "hit": false,
      "t": 206045.62624999965,
      "d": 125.00010416665464,
      "v": 44
    },
    {
      "midi": 61,
      "hit": false,
      "t": 206045.62625000026,
      "d": 125.00010416665464,
      "v": 30
    },
    {
      "midi": 64,
      "hit": false,
      "t": 206045.62625000026,
      "d": 125.00010416665464,
      "v": 30
    },
    {
      "midi": 68,
      "hit": false,
      "t": 206045.62625000026,
      "d": 125.00010416665464,
      "v": 30
    },
    {
      "midi": 64,
      "hit": false,
      "t": 206056.9898958397,
      "d": 102.27281250001397,
      "v": 41
    },
    {
      "midi": 76,
      "hit": false,
      "t": 206056.9898958397,
      "d": 102.27281250001397,
      "v": 41
    },
    {
      "midi": 37,
      "hit": false,
      "t": 206181.98999999932,
      "d": 397.7276041666628,
      "v": 93
    },
    {
      "midi": 61,
      "hit": false,
      "t": 206181.98999999964,
      "d": 125.00010416665464,
      "v": 57
    },
    {
      "midi": 64,
      "hit": false,
      "t": 206181.98999999964,
      "d": 125.00010416665464,
      "v": 57
    },
    {
      "midi": 68,
      "hit": false,
      "t": 206181.98999999964,
      "d": 125.00010416665464,
      "v": 57
    },
    {
      "midi": 44,
      "hit": false,
      "t": 206181.98999999964,
      "d": 261.36385416664416,
      "v": 59
    },
    {
      "midi": 49,
      "hit": false,
      "t": 206181.98999999964,
      "d": 261.36385416664416,
      "v": 59
    },
    {
      "midi": 56,
      "hit": false,
      "t": 206181.98999999964,
      "d": 397.7276041666337,
      "v": 59
    },
    {
      "midi": 61,
      "hit": false,
      "t": 206181.99000000025,
      "d": 125.00010416665464,
      "v": 51
    },
    {
      "midi": 64,
      "hit": false,
      "t": 206181.99000000025,
      "d": 125.00010416665464,
      "v": 51
    },
    {
      "midi": 68,
      "hit": false,
      "t": 206181.99000000025,
      "d": 125.00010416665464,
      "v": 51
    },
    {
      "midi": 56,
      "hit": false,
      "t": 206181.99000000025,
      "d": 261.36385416664416,
      "v": 76
    },
    {
      "midi": 49,
      "hit": false,
      "t": 206181.99000000025,
      "d": 397.7276041666337,
      "v": 76
    },
    {
      "midi": 64,
      "hit": false,
      "t": 206193.35364583973,
      "d": 102.27281250001397,
      "v": 41
    },
    {
      "midi": 76,
      "hit": false,
      "t": 206193.35364583973,
      "d": 102.27281250001397,
      "v": 41
    },
    {
      "midi": 61,
      "hit": false,
      "t": 206318.35374999963,
      "d": 125.00010416665464,
      "v": 44
    },
    {
      "midi": 64,
      "hit": false,
      "t": 206318.35374999963,
      "d": 125.00010416665464,
      "v": 44
    },
    {
      "midi": 68,
      "hit": false,
      "t": 206318.35374999963,
      "d": 125.00010416665464,
      "v": 44
    },
    {
      "midi": 61,
      "hit": false,
      "t": 206318.35375000024,
      "d": 125.00010416665464,
      "v": 30
    },
    {
      "midi": 64,
      "hit": false,
      "t": 206318.35375000024,
      "d": 125.00010416665464,
      "v": 30
    },
    {
      "midi": 68,
      "hit": false,
      "t": 206318.35375000024,
      "d": 125.00010416665464,
      "v": 30
    },
    {
      "midi": 64,
      "hit": false,
      "t": 206329.71739583975,
      "d": 102.27281250001397,
      "v": 41
    },
    {
      "midi": 76,
      "hit": false,
      "t": 206329.71739583975,
      "d": 102.27281250001397,
      "v": 41
    },
    {
      "midi": 85,
      "hit": false,
      "t": 206443.35385416643,
      "d": 125.00010416668374,
      "v": 84
    },
    {
      "midi": 61,
      "hit": false,
      "t": 206454.71749999962,
      "d": 125.00010416665464,
      "v": 44
    },
    {
      "midi": 64,
      "hit": false,
      "t": 206454.71749999962,
      "d": 125.00010416665464,
      "v": 44
    },
    {
      "midi": 68,
      "hit": false,
      "t": 206454.71749999962,
      "d": 125.00010416665464,
      "v": 44
    },
    {
      "midi": 61,
      "hit": false,
      "t": 206454.71750000023,
      "d": 125.00010416665464,
      "v": 30
    },
    {
      "midi": 64,
      "hit": false,
      "t": 206454.71750000023,
      "d": 125.00010416665464,
      "v": 30
    },
    {
      "midi": 68,
      "hit": false,
      "t": 206454.71750000023,
      "d": 125.00010416665464,
      "v": 30
    },
    {
      "midi": 64,
      "hit": false,
      "t": 206466.08114583977,
      "d": 102.27281250001397,
      "v": 41
    },
    {
      "midi": 76,
      "hit": false,
      "t": 206466.08114583977,
      "d": 102.27281250001397,
      "v": 41
    },
    {
      "midi": 64,
      "hit": false,
      "t": 206568.35395833314,
      "d": 261.36385416667326,
      "v": 64
    },
    {
      "midi": 68,
      "hit": false,
      "t": 206568.35395833314,
      "d": 261.36385416667326,
      "v": 64
    },
    {
      "midi": 71,
      "hit": false,
      "t": 206568.35395833314,
      "d": 261.36385416667326,
      "v": 64
    },
    {
      "midi": 32,
      "hit": false,
      "t": 206591.08124999932,
      "d": 125.00010416665464,
      "v": 93
    },
    {
      "midi": 44,
      "hit": false,
      "t": 206591.0812499996,
      "d": 125.00010416665464,
      "v": 59
    },
    {
      "midi": 49,
      "hit": false,
      "t": 206591.0812499996,
      "d": 125.00010416665464,
      "v": 59
    },
    {
      "midi": 56,
      "hit": false,
      "t": 206591.0812499996,
      "d": 261.36385416664416,
      "v": 59
    },
    {
      "midi": 61,
      "hit": false,
      "t": 206591.0812499996,
      "d": 261.36385416664416,
      "v": 57
    },
    {
      "midi": 64,
      "hit": false,
      "t": 206591.0812499996,
      "d": 261.36385416664416,
      "v": 57
    },
    {
      "midi": 68,
      "hit": false,
      "t": 206591.0812499996,
      "d": 261.36385416664416,
      "v": 57
    },
    {
      "midi": 61,
      "hit": false,
      "t": 206591.08125000022,
      "d": 261.36385416667326,
      "v": 51
    },
    {
      "midi": 64,
      "hit": false,
      "t": 206591.08125000022,
      "d": 261.36385416667326,
      "v": 51
    },
    {
      "midi": 68,
      "hit": false,
      "t": 206591.08125000022,
      "d": 261.36385416667326,
      "v": 51
    },
    {
      "midi": 56,
      "hit": false,
      "t": 206591.08125000022,
      "d": 397.7276041666628,
      "v": 76
    },
    {
      "midi": 49,
      "hit": false,
      "t": 206591.08125000022,
      "d": 670.4551041666418,
      "v": 76
    },
    {
      "midi": 64,
      "hit": false,
      "t": 206602.44489583978,
      "d": 102.27281250001397,
      "v": 41
    },
    {
      "midi": 76,
      "hit": false,
      "t": 206602.44489583978,
      "d": 102.27281250001397,
      "v": 41
    },
    {
      "midi": 85,
      "hit": false,
      "t": 206716.08135416644,
      "d": 397.7276041666628,
      "v": 84
    },
    {
      "midi": 37,
      "hit": false,
      "t": 206727.4449999993,
      "d": 125.00010416665464,
      "v": 93
    },
    {
      "midi": 64,
      "hit": false,
      "t": 206738.8086458398,
      "d": 102.27281250001397,
      "v": 74
    },
    {
      "midi": 76,
      "hit": false,
      "t": 206738.8086458398,
      "d": 102.27281250001397,
      "v": 74
    },
    {
      "midi": 61,
      "hit": false,
      "t": 206841.08145833315,
      "d": 125.00010416665464,
      "v": 64
    },
    {
      "midi": 64,
      "hit": false,
      "t": 206841.08145833315,
      "d": 125.00010416665464,
      "v": 64
    },
    {
      "midi": 68,
      "hit": false,
      "t": 206841.08145833315,
      "d": 125.00010416665464,
      "v": 64
    },
    {
      "midi": 32,
      "hit": false,
      "t": 206863.8087499993,
      "d": 261.36385416667326,
      "v": 93
    },
    {
      "midi": 61,
      "hit": false,
      "t": 206863.8087499996,
      "d": 125.00010416665464,
      "v": 44
    },
    {
      "midi": 64,
      "hit": false,
      "t": 206863.8087499996,
      "d": 125.00010416665464,
      "v": 44
    },
    {
      "midi": 68,
      "hit": false,
      "t": 206863.8087499996,
      "d": 125.00010416665464,
      "v": 44
    },
    {
      "midi": 61,
      "hit": false,
      "t": 206863.80875000023,
      "d": 125.00010416665464,
      "v": 30
    },
    {
      "midi": 64,
      "hit": false,
      "t": 206863.80875000023,
      "d": 125.00010416665464,
      "v": 30
    },
    {
      "midi": 68,
      "hit": false,
      "t": 206863.80875000023,
      "d": 125.00010416665464,
      "v": 30
    },
    {
      "midi": 64,
      "hit": false,
      "t": 206875.17239583982,
      "d": 102.27281250001397,
      "v": 47
    },
    {
      "midi": 76,
      "hit": false,
      "t": 206875.17239583982,
      "d": 102.27281250001397,
      "v": 47
    },
    {
      "midi": 63,
      "hit": false,
      "t": 206977.44520833314,
      "d": 125.00010416665464,
      "v": 64
    },
    {
      "midi": 66,
      "hit": false,
      "t": 206977.44520833314,
      "d": 125.00010416665464,
      "v": 64
    },
    {
      "midi": 69,
      "hit": false,
      "t": 206977.44520833314,
      "d": 125.00010416665464,
      "v": 64
    },
    {
      "midi": 61,
      "hit": false,
      "t": 207000.17249999958,
      "d": 125.00010416665464,
      "v": 57
    },
    {
      "midi": 64,
      "hit": false,
      "t": 207000.17249999958,
      "d": 125.00010416665464,
      "v": 57
    },
    {
      "midi": 68,
      "hit": false,
      "t": 207000.17249999958,
      "d": 125.00010416665464,
      "v": 57
    },
    {
      "midi": 61,
      "hit": false,
      "t": 207000.17250000022,
      "d": 125.00010416665464,
      "v": 51
    },
    {
      "midi": 64,
      "hit": false,
      "t": 207000.17250000022,
      "d": 125.00010416665464,
      "v": 51
    },
    {
      "midi": 68,
      "hit": false,
      "t": 207000.17250000022,
      "d": 125.00010416665464,
      "v": 51
    },
    {
      "midi": 64,
      "hit": false,
      "t": 207011.53614583984,
      "d": 102.27281250001397,
      "v": 47
    },
    {
      "midi": 76,
      "hit": false,
      "t": 207011.53614583984,
      "d": 102.27281250001397,
      "v": 47
    },
    {
      "midi": 64,
      "hit": false,
      "t": 207113.80895833313,
      "d": 136.36374999998952,
      "v": 64
    },
    {
      "midi": 68,
      "hit": false,
      "t": 207113.80895833313,
      "d": 261.36385416664416,
      "v": 64
    },
    {
      "midi": 71,
      "hit": false,
      "t": 207113.80895833313,
      "d": 261.36385416664416,
      "v": 64
    },
    {
      "midi": 44,
      "hit": false,
      "t": 207136.53624999957,
      "d": 125.00010416665464,
      "v": 59
    },
    {
      "midi": 49,
      "hit": false,
      "t": 207136.53624999957,
      "d": 125.00010416665464,
      "v": 59
    },
    {
      "midi": 61,
      "hit": false,
      "t": 207136.53624999957,
      "d": 125.00010416665464,
      "v": 44
    },
    {
      "midi": 64,
      "hit": false,
      "t": 207136.53624999957,
      "d": 125.00010416665464,
      "v": 44
    },
    {
      "midi": 68,
      "hit": false,
      "t": 207136.53624999957,
      "d": 125.00010416665464,
      "v": 44
    },
    {
      "midi": 61,
      "hit": false,
      "t": 207136.5362500002,
      "d": 125.00010416665464,
      "v": 30
    },
    {
      "midi": 64,
      "hit": false,
      "t": 207136.5362500002,
      "d": 125.00010416665464,
      "v": 30
    },
    {
      "midi": 68,
      "hit": false,
      "t": 207136.5362500002,
      "d": 125.00010416665464,
      "v": 30
    },
    {
      "midi": 64,
      "hit": false,
      "t": 207147.89989583986,
      "d": 102.27281250001397,
      "v": 47
    },
    {
      "midi": 76,
      "hit": false,
      "t": 207147.89989583986,
      "d": 102.27281250001397,
      "v": 47
    },
    {
      "midi": 64,
      "hit": false,
      "t": 207250.17270833312,
      "d": 125.00010416665464,
      "v": 64
    },
    {
      "midi": 61,
      "hit": false,
      "t": 207250.17270833312,
      "d": 261.36385416664416,
      "v": 64
    },
    {
      "midi": 69,
      "hit": false,
      "t": 207250.17270833312,
      "d": 261.36385416664416,
      "v": 64
    },
    {
      "midi": 76,
      "hit": false,
      "t": 207261.53635416643,
      "d": 545.4550000000163,
      "v": 84
    },
    {
      "midi": 33,
      "hit": false,
      "t": 207272.8999999993,
      "d": 397.7276041666628,
      "v": 93
    },
    {
      "midi": 45,
      "hit": false,
      "t": 207272.89999999956,
      "d": 261.36385416667326,
      "v": 59
    },
    {
      "midi": 52,
      "hit": false,
      "t": 207272.89999999956,
      "d": 261.36385416667326,
      "v": 59
    },
    {
      "midi": 57,
      "hit": false,
      "t": 207272.89999999956,
      "d": 261.36385416667326,
      "v": 59
    },
    {
      "midi": 61,
      "hit": false,
      "t": 207272.89999999956,
      "d": 261.36385416667326,
      "v": 65
    },
    {
      "midi": 64,
      "hit": false,
      "t": 207272.89999999956,
      "d": 261.36385416667326,
      "v": 65
    },
    {
      "midi": 69,
      "hit": false,
      "t": 207272.89999999956,
      "d": 261.36385416667326,
      "v": 65
    },
    {
      "midi": 61,
      "hit": false,
      "t": 207272.9000000002,
      "d": 261.36385416667326,
      "v": 59
    },
    {
      "midi": 64,
      "hit": false,
      "t": 207272.9000000002,
      "d": 261.36385416667326,
      "v": 59
    },
    {
      "midi": 69,
      "hit": false,
      "t": 207272.9000000002,
      "d": 261.36385416667326,
      "v": 59
    },
    {
      "midi": 45,
      "hit": false,
      "t": 207545.62749999957,
      "d": 261.36385416667326,
      "v": 59
    },
    {
      "midi": 52,
      "hit": false,
      "t": 207545.62749999957,
      "d": 261.36385416667326,
      "v": 59
    },
    {
      "midi": 57,
      "hit": false,
      "t": 207545.62749999957,
      "d": 261.36385416667326,
      "v": 59
    },
    {
      "midi": 61,
      "hit": false,
      "t": 207545.62749999957,
      "d": 261.36385416667326,
      "v": 49
    },
    {
      "midi": 64,
      "hit": false,
      "t": 207545.62749999957,
      "d": 261.36385416667326,
      "v": 49
    },
    {
      "midi": 69,
      "hit": false,
      "t": 207545.62749999957,
      "d": 261.36385416667326,
      "v": 49
    },
    {
      "midi": 57,
      "hit": false,
      "t": 207545.6275000002,
      "d": 261.36385416667326,
      "v": 76
    },
    {
      "midi": 61,
      "hit": false,
      "t": 207545.6275000002,
      "d": 261.36385416667326,
      "v": 43
    },
    {
      "midi": 64,
      "hit": false,
      "t": 207545.6275000002,
      "d": 261.36385416667326,
      "v": 43
    },
    {
      "midi": 69,
      "hit": false,
      "t": 207545.6275000002,
      "d": 261.36385416667326,
      "v": 43
    },
    {
      "midi": 45,
      "hit": false,
      "t": 207545.6275000002,
      "d": 534.0913541666523,
      "v": 76
    },
    {
      "midi": 61,
      "hit": false,
      "t": 207659.2639583331,
      "d": 261.36385416667326,
      "v": 64
    },
    {
      "midi": 64,
      "hit": false,
      "t": 207659.2639583331,
      "d": 261.36385416667326,
      "v": 64
    },
    {
      "midi": 69,
      "hit": false,
      "t": 207659.2639583331,
      "d": 261.36385416667326,
      "v": 64
    },
    {
      "midi": 33,
      "hit": false,
      "t": 207681.9912499993,
      "d": 125.00010416665464,
      "v": 93
    },
    {
      "midi": 76,
      "hit": false,
      "t": 207806.99135416644,
      "d": 136.36374999998952,
      "v": 84
    },
    {
      "midi": 35,
      "hit": false,
      "t": 207818.35499999928,
      "d": 397.7276041666628,
      "v": 93
    },
    {
      "midi": 61,
      "hit": false,
      "t": 207818.35499999957,
      "d": 125.00010416665464,
      "v": 65
    },
    {
      "midi": 64,
      "hit": false,
      "t": 207818.35499999957,
      "d": 125.00010416665464,
      "v": 65
    },
    {
      "midi": 69,
      "hit": false,
      "t": 207818.35499999957,
      "d": 125.00010416665464,
      "v": 65
    },
    {
      "midi": 61,
      "hit": false,
      "t": 207818.3550000002,
      "d": 125.00010416665464,
      "v": 59
    },
    {
      "midi": 64,
      "hit": false,
      "t": 207818.3550000002,
      "d": 125.00010416665464,
      "v": 59
    },
    {
      "midi": 69,
      "hit": false,
      "t": 207818.3550000002,
      "d": 125.00010416665464,
      "v": 59
    },
    {
      "midi": 78,
      "hit": false,
      "t": 207943.35510416643,
      "d": 136.36374999998952,
      "v": 59
    },
    {
      "midi": 45,
      "hit": false,
      "t": 207954.71874999956,
      "d": 125.00010416665464,
      "v": 59
    },
    {
      "midi": 52,
      "hit": false,
      "t": 207954.71874999956,
      "d": 125.00010416665464,
      "v": 59
    },
    {
      "midi": 61,
      "hit": false,
      "t": 207954.71874999956,
      "d": 125.00010416665464,
      "v": 44
    },
    {
      "midi": 69,
      "hit": false,
      "t": 207954.71874999956,
      "d": 125.00010416665464,
      "v": 44
    },
    {
      "midi": 64,
      "hit": false,
      "t": 207954.71874999956,
      "d": 147.7273958333244,
      "v": 44
    },
    {
      "midi": 57,
      "hit": false,
      "t": 207954.71874999956,
      "d": 261.36385416664416,
      "v": 59
    },
    {
      "midi": 61,
      "hit": false,
      "t": 207954.7187500002,
      "d": 125.00010416665464,
      "v": 30
    },
    {
      "midi": 69,
      "hit": false,
      "t": 207954.7187500002,
      "d": 125.00010416665464,
      "v": 30
    },
    {
      "midi": 64,
      "hit": false,
      "t": 207954.7187500002,
      "d": 147.7273958333244,
      "v": 30
    },
    {
      "midi": 57,
      "hit": false,
      "t": 207954.7187500002,
      "d": 261.36385416664416,
      "v": 76
    },
    {
      "midi": 76,
      "hit": false,
      "t": 208079.71885416642,
      "d": 125.00010416665464,
      "v": 84
    },
    {
      "midi": 73,
      "hit": false,
      "t": 208216.0826041664,
      "d": 125.00010416665464,
      "v": 59
    },
    {
      "midi": 35,
      "hit": false,
      "t": 208227.44624999928,
      "d": 125.00010416665464,
      "v": 93
    },
    {
      "midi": 61,
      "hit": false,
      "t": 208227.44624999954,
      "d": 125.00010416665464,
      "v": 44
    },
    {
      "midi": 64,
      "hit": false,
      "t": 208227.44624999954,
      "d": 125.00010416665464,
      "v": 44
    },
    {
      "midi": 69,
      "hit": false,
      "t": 208227.44624999954,
      "d": 125.00010416665464,
      "v": 44
    },
    {
      "midi": 61,
      "hit": false,
      "t": 208227.44625000018,
      "d": 125.00010416665464,
      "v": 30
    },
    {
      "midi": 64,
      "hit": false,
      "t": 208227.44625000018,
      "d": 125.00010416665464,
      "v": 30
    },
    {
      "midi": 69,
      "hit": false,
      "t": 208227.44625000018,
      "d": 125.00010416665464,
      "v": 30
    },
    {
      "midi": 76,
      "hit": false,
      "t": 208352.4463541664,
      "d": 136.36374999998952,
      "v": 84
    },
    {
      "midi": 37,
      "hit": false,
      "t": 208363.80999999927,
      "d": 125.00010416665464,
      "v": 93
    },
    {
      "midi": 61,
      "hit": false,
      "t": 208363.80999999953,
      "d": 125.00010416665464,
      "v": 65
    },
    {
      "midi": 64,
      "hit": false,
      "t": 208363.80999999953,
      "d": 125.00010416665464,
      "v": 65
    },
    {
      "midi": 69,
      "hit": false,
      "t": 208363.80999999953,
      "d": 125.00010416665464,
      "v": 65
    },
    {
      "midi": 45,
      "hit": false,
      "t": 208363.80999999953,
      "d": 261.36385416664416,
      "v": 59
    },
    {
      "midi": 52,
      "hit": false,
      "t": 208363.80999999953,
      "d": 261.36385416664416,
      "v": 59
    },
    {
      "midi": 57,
      "hit": false,
      "t": 208363.80999999953,
      "d": 261.36385416664416,
      "v": 59
    },
    {
      "midi": 61,
      "hit": false,
      "t": 208363.81000000017,
      "d": 125.00010416665464,
      "v": 59
    },
    {
      "midi": 64,
      "hit": false,
      "t": 208363.81000000017,
      "d": 125.00010416665464,
      "v": 59
    },
    {
      "midi": 69,
      "hit": false,
      "t": 208363.81000000017,
      "d": 125.00010416665464,
      "v": 59
    },
    {
      "midi": 57,
      "hit": false,
      "t": 208363.81000000017,
      "d": 261.36385416664416,
      "v": 76
    },
    {
      "midi": 45,
      "hit": false,
      "t": 208363.81000000017,
      "d": 397.7276041666337,
      "v": 76
    },
    {
      "midi": 78,
      "hit": false,
      "t": 208488.8101041664,
      "d": 136.36374999998952,
      "v": 59
    },
    {
      "midi": 61,
      "hit": false,
      "t": 208500.17374999952,
      "d": 125.00010416665464,
      "v": 44
    },
    {
      "midi": 64,
      "hit": false,
      "t": 208500.17374999952,
      "d": 125.00010416665464,
      "v": 44
    },
    {
      "midi": 69,
      "hit": false,
      "t": 208500.17374999952,
      "d": 125.00010416665464,
      "v": 44
    },
    {
      "midi": 61,
      "hit": false,
      "t": 208500.17375000016,
      "d": 125.00010416665464,
      "v": 30
    },
    {
      "midi": 64,
      "hit": false,
      "t": 208500.17375000016,
      "d": 125.00010416665464,
      "v": 30
    },
    {
      "midi": 69,
      "hit": false,
      "t": 208500.17375000016,
      "d": 125.00010416665464,
      "v": 30
    },
    {
      "midi": 76,
      "hit": false,
      "t": 208625.17385416638,
      "d": 136.36374999998952,
      "v": 84
    },
    {
      "midi": 37,
      "hit": false,
      "t": 208636.53749999925,
      "d": 261.36385416667326,
      "v": 93
    },
    {
      "midi": 61,
      "hit": false,
      "t": 208636.5374999995,
      "d": 125.00010416665464,
      "v": 44
    },
    {
      "midi": 64,
      "hit": false,
      "t": 208636.5374999995,
      "d": 125.00010416665464,
      "v": 44
    },
    {
      "midi": 69,
      "hit": false,
      "t": 208636.5374999995,
      "d": 125.00010416665464,
      "v": 44
    },
    {
      "midi": 61,
      "hit": false,
      "t": 208636.53750000015,
      "d": 125.00010416665464,
      "v": 30
    },
    {
      "midi": 64,
      "hit": false,
      "t": 208636.53750000015,
      "d": 125.00010416665464,
      "v": 30
    },
    {
      "midi": 69,
      "hit": false,
      "t": 208636.53750000015,
      "d": 125.00010416665464,
      "v": 30
    },
    {
      "midi": 73,
      "hit": false,
      "t": 208761.53760416637,
      "d": 125.00010416665464,
      "v": 59
    },
    {
      "midi": 45,
      "hit": false,
      "t": 208772.9012499995,
      "d": 125.00010416665464,
      "v": 59
    },
    {
      "midi": 52,
      "hit": false,
      "t": 208772.9012499995,
      "d": 125.00010416665464,
      "v": 59
    },
    {
      "midi": 57,
      "hit": false,
      "t": 208772.9012499995,
      "d": 261.36385416664416,
      "v": 59
    },
    {
      "midi": 61,
      "hit": false,
      "t": 208772.9012499995,
      "d": 261.36385416664416,
      "v": 61
    },
    {
      "midi": 64,
      "hit": false,
      "t": 208772.9012499995,
      "d": 261.36385416664416,
      "v": 61
    },
    {
      "midi": 69,
      "hit": false,
      "t": 208772.9012499995,
      "d": 261.36385416664416,
      "v": 61
    },
    {
      "midi": 61,
      "hit": false,
      "t": 208772.90125000014,
      "d": 261.36385416667326,
      "v": 55
    },
    {
      "midi": 64,
      "hit": false,
      "t": 208772.90125000014,
      "d": 261.36385416667326,
      "v": 55
    },
    {
      "midi": 69,
      "hit": false,
      "t": 208772.90125000014,
      "d": 261.36385416667326,
      "v": 55
    },
    {
      "midi": 57,
      "hit": false,
      "t": 208772.90125000014,
      "d": 397.7276041666628,
      "v": 76
    },
    {
      "midi": 45,
      "hit": false,
      "t": 208772.90125000014,
      "d": 659.091458333307,
      "v": 76
    },
    {
      "midi": 61,
      "hit": false,
      "t": 208886.53770833308,
      "d": 261.36385416667326,
      "v": 64
    },
    {
      "midi": 73,
      "hit": false,
      "t": 208897.90135416636,
      "d": 261.36385416667326,
      "v": 84
    },
    {
      "midi": 39,
      "hit": false,
      "t": 208909.26499999926,
      "d": 261.36385416667326,
      "v": 93
    },
    {
      "midi": 61,
      "hit": false,
      "t": 209045.62874999948,
      "d": 125.00010416665464,
      "v": 44
    },
    {
      "midi": 64,
      "hit": false,
      "t": 209045.62874999948,
      "d": 125.00010416665464,
      "v": 44
    },
    {
      "midi": 69,
      "hit": false,
      "t": 209045.62874999948,
      "d": 125.00010416665464,
      "v": 44
    },
    {
      "midi": 61,
      "hit": false,
      "t": 209045.62875000015,
      "d": 125.00010416665464,
      "v": 30
    },
    {
      "midi": 64,
      "hit": false,
      "t": 209045.62875000015,
      "d": 125.00010416665464,
      "v": 30
    },
    {
      "midi": 69,
      "hit": false,
      "t": 209045.62875000015,
      "d": 125.00010416665464,
      "v": 30
    },
    {
      "midi": 64,
      "hit": false,
      "t": 209159.2652083331,
      "d": 261.36385416667326,
      "v": 64
    },
    {
      "midi": 76,
      "hit": false,
      "t": 209170.62885416637,
      "d": 125.00010416665464,
      "v": 84
    },
    {
      "midi": 40,
      "hit": false,
      "t": 209181.99249999927,
      "d": 125.00010416665464,
      "v": 93
    },
    {
      "midi": 61,
      "hit": false,
      "t": 209181.99249999947,
      "d": 125.00010416665464,
      "v": 61
    },
    {
      "midi": 64,
      "hit": false,
      "t": 209181.99249999947,
      "d": 125.00010416665464,
      "v": 61
    },
    {
      "midi": 69,
      "hit": false,
      "t": 209181.99249999947,
      "d": 125.00010416665464,
      "v": 61
    },
    {
      "midi": 61,
      "hit": false,
      "t": 209181.99250000014,
      "d": 125.00010416665464,
      "v": 55
    },
    {
      "midi": 64,
      "hit": false,
      "t": 209181.99250000014,
      "d": 125.00010416665464,
      "v": 55
    },
    {
      "midi": 69,
      "hit": false,
      "t": 209181.99250000014,
      "d": 125.00010416665464,
      "v": 55
    },
    {
      "midi": 61,
      "hit": false,
      "t": 209318.35624999946,
      "d": 113.63645833331975,
      "v": 44
    },
    {
      "midi": 64,
      "hit": false,
      "t": 209318.35624999946,
      "d": 113.63645833331975,
      "v": 44
    },
    {
      "midi": 69,
      "hit": false,
      "t": 209318.35624999946,
      "d": 113.63645833331975,
      "v": 44
    },
    {
      "midi": 61,
      "hit": false,
      "t": 209318.35625000013,
      "d": 113.63645833331975,
      "v": 30
    },
    {
      "midi": 64,
      "hit": false,
      "t": 209318.35625000013,
      "d": 113.63645833331975,
      "v": 30
    },
    {
      "midi": 69,
      "hit": false,
      "t": 209318.35625000013,
      "d": 113.63645833331975,
      "v": 30
    },
    {
      "midi": 64,
      "hit": false,
      "t": 209431.9927083331,
      "d": 1352.2738541666768,
      "v": 64
    },
    {
      "midi": 68,
      "hit": false,
      "t": 209431.9927083331,
      "d": 1352.2738541666768,
      "v": 64
    },
    {
      "midi": 71,
      "hit": false,
      "t": 209431.9927083331,
      "d": 1352.2738541666768,
      "v": 64
    },
    {
      "midi": 85,
      "hit": false,
      "t": 209443.35635416635,
      "d": 261.36385416667326,
      "v": 84
    },
    {
      "midi": 37,
      "hit": false,
      "t": 209454.71999999924,
      "d": 397.7276041666628,
      "v": 93
    },
    {
      "midi": 49,
      "hit": false,
      "t": 209454.71999999945,
      "d": 125.00010416665464,
      "v": 59
    },
    {
      "midi": 44,
      "hit": false,
      "t": 209454.71999999945,
      "d": 261.36385416664416,
      "v": 59
    },
    {
      "midi": 56,
      "hit": false,
      "t": 209454.71999999945,
      "d": 261.36385416664416,
      "v": 59
    },
    {
      "midi": 61,
      "hit": false,
      "t": 209454.71999999945,
      "d": 261.36385416664416,
      "v": 61
    },
    {
      "midi": 64,
      "hit": false,
      "t": 209454.71999999945,
      "d": 261.36385416664416,
      "v": 61
    },
    {
      "midi": 68,
      "hit": false,
      "t": 209454.71999999945,
      "d": 261.36385416664416,
      "v": 61
    },
    {
      "midi": 61,
      "hit": false,
      "t": 209454.72000000012,
      "d": 261.36385416667326,
      "v": 55
    },
    {
      "midi": 64,
      "hit": false,
      "t": 209454.72000000012,
      "d": 261.36385416667326,
      "v": 55
    },
    {
      "midi": 68,
      "hit": false,
      "t": 209454.72000000012,
      "d": 261.36385416667326,
      "v": 55
    },
    {
      "midi": 64,
      "hit": false,
      "t": 209466.08364583988,
      "d": 102.27281250001397,
      "v": 76
    },
    {
      "midi": 76,
      "hit": false,
      "t": 209466.08364583988,
      "d": 102.27281250001397,
      "v": 76
    },
    {
      "midi": 64,
      "hit": false,
      "t": 209602.4473958399,
      "d": 102.27281250001397,
      "v": 41
    },
    {
      "midi": 76,
      "hit": false,
      "t": 209602.4473958399,
      "d": 102.27281250001397,
      "v": 41
    },
    {
      "midi": 56,
      "hit": false,
      "t": 209727.44749999943,
      "d": 125.00010416665464,
      "v": 59
    },
    {
      "midi": 44,
      "hit": false,
      "t": 209727.44749999943,
      "d": 261.36385416664416,
      "v": 59
    },
    {
      "midi": 49,
      "hit": false,
      "t": 209727.44749999943,
      "d": 261.36385416664416,
      "v": 59
    },
    {
      "midi": 61,
      "hit": false,
      "t": 209727.44749999943,
      "d": 261.36385416664416,
      "v": 44
    },
    {
      "midi": 64,
      "hit": false,
      "t": 209727.44749999943,
      "d": 261.36385416664416,
      "v": 44
    },
    {
      "midi": 68,
      "hit": false,
      "t": 209727.44749999943,
      "d": 261.36385416664416,
      "v": 44
    },
    {
      "midi": 56,
      "hit": false,
      "t": 209727.44750000013,
      "d": 261.36385416667326,
      "v": 76
    },
    {
      "midi": 61,
      "hit": false,
      "t": 209727.44750000013,
      "d": 261.36385416667326,
      "v": 30
    },
    {
      "midi": 64,
      "hit": false,
      "t": 209727.44750000013,
      "d": 261.36385416667326,
      "v": 30
    },
    {
      "midi": 68,
      "hit": false,
      "t": 209727.44750000013,
      "d": 261.36385416667326,
      "v": 30
    },
    {
      "midi": 49,
      "hit": false,
      "t": 209727.44750000013,
      "d": 670.4551041666709,
      "v": 76
    },
    {
      "midi": 64,
      "hit": false,
      "t": 209738.81114583992,
      "d": 102.27281250001397,
      "v": 41
    },
    {
      "midi": 76,
      "hit": false,
      "t": 209738.81114583992,
      "d": 102.27281250001397,
      "v": 41
    },
    {
      "midi": 37,
      "hit": false,
      "t": 209863.81124999924,
      "d": 125.00010416665464,
      "v": 93
    },
    {
      "midi": 64,
      "hit": false,
      "t": 209875.17489583994,
      "d": 102.27281250001397,
      "v": 41
    },
    {
      "midi": 76,
      "hit": false,
      "t": 209875.17489583994,
      "d": 102.27281250001397,
      "v": 41
    },
    {
      "midi": 85,
      "hit": false,
      "t": 209988.81135416636,
      "d": 647.7278125000012,
      "v": 84
    },
    {
      "midi": 32,
      "hit": false,
      "t": 210000.17499999923,
      "d": 397.7276041666628,
      "v": 93
    },
    {
      "midi": 61,
      "hit": false,
      "t": 210000.1749999994,
      "d": 125.00010416665464,
      "v": 57
    },
    {
      "midi": 64,
      "hit": false,
      "t": 210000.1749999994,
      "d": 125.00010416665464,
      "v": 57
    },
    {
      "midi": 68,
      "hit": false,
      "t": 210000.1749999994,
      "d": 125.00010416665464,
      "v": 57
    },
    {
      "midi": 61,
      "hit": false,
      "t": 210000.17500000013,
      "d": 125.00010416665464,
      "v": 51
    },
    {
      "midi": 64,
      "hit": false,
      "t": 210000.17500000013,
      "d": 125.00010416665464,
      "v": 51
    },
    {
      "midi": 68,
      "hit": false,
      "t": 210000.17500000013,
      "d": 125.00010416665464,
      "v": 51
    },
    {
      "midi": 64,
      "hit": false,
      "t": 210011.53864583996,
      "d": 102.27281250001397,
      "v": 41
    },
    {
      "midi": 76,
      "hit": false,
      "t": 210011.53864583996,
      "d": 102.27281250001397,
      "v": 41
    },
    {
      "midi": 44,
      "hit": false,
      "t": 210136.5387499994,
      "d": 125.00010416665464,
      "v": 59
    },
    {
      "midi": 49,
      "hit": false,
      "t": 210136.5387499994,
      "d": 125.00010416665464,
      "v": 59
    },
    {
      "midi": 56,
      "hit": false,
      "t": 210136.5387499994,
      "d": 125.00010416665464,
      "v": 59
    },
    {
      "midi": 61,
      "hit": false,
      "t": 210136.5387499994,
      "d": 159.0910416666593,
      "v": 44
    },
    {
      "midi": 64,
      "hit": false,
      "t": 210136.5387499994,
      "d": 159.0910416666593,
      "v": 44
    },
    {
      "midi": 68,
      "hit": false,
      "t": 210136.5387499994,
      "d": 159.0910416666593,
      "v": 44
    },
    {
      "midi": 56,
      "hit": false,
      "t": 210136.53875000012,
      "d": 125.00010416665464,
      "v": 76
    },
    {
      "midi": 61,
      "hit": false,
      "t": 210136.53875000012,
      "d": 159.0910416666593,
      "v": 30
    },
    {
      "midi": 64,
      "hit": false,
      "t": 210136.53875000012,
      "d": 159.0910416666593,
      "v": 30
    },
    {
      "midi": 68,
      "hit": false,
      "t": 210136.53875000012,
      "d": 159.0910416666593,
      "v": 30
    },
    {
      "midi": 64,
      "hit": false,
      "t": 210147.90239583998,
      "d": 102.27281250001397,
      "v": 41
    },
    {
      "midi": 76,
      "hit": false,
      "t": 210147.90239583998,
      "d": 102.27281250001397,
      "v": 41
    },
    {
      "midi": 64,
      "hit": false,
      "t": 210284.26614584,
      "d": 102.27281250001397,
      "v": 76
    },
    {
      "midi": 76,
      "hit": false,
      "t": 210284.26614584,
      "d": 102.27281250001397,
      "v": 76
    },
    {
      "midi": 32,
      "hit": false,
      "t": 210409.26624999923,
      "d": 125.00010416665464,
      "v": 93
    },
    {
      "midi": 61,
      "hit": false,
      "t": 210409.26624999937,
      "d": 125.00010416665464,
      "v": 44
    },
    {
      "midi": 64,
      "hit": false,
      "t": 210409.26624999937,
      "d": 125.00010416665464,
      "v": 44
    },
    {
      "midi": 68,
      "hit": false,
      "t": 210409.26624999937,
      "d": 125.00010416665464,
      "v": 44
    },
    {
      "midi": 61,
      "hit": false,
      "t": 210409.26625000013,
      "d": 125.00010416665464,
      "v": 30
    },
    {
      "midi": 64,
      "hit": false,
      "t": 210409.26625000013,
      "d": 125.00010416665464,
      "v": 30
    },
    {
      "midi": 68,
      "hit": false,
      "t": 210409.26625000013,
      "d": 125.00010416665464,
      "v": 30
    },
    {
      "midi": 64,
      "hit": false,
      "t": 210420.62989584001,
      "d": 102.27281250001397,
      "v": 41
    },
    {
      "midi": 76,
      "hit": false,
      "t": 210420.62989584001,
      "d": 102.27281250001397,
      "v": 41
    },
    {
      "midi": 37,
      "hit": false,
      "t": 210545.62999999922,
      "d": 397.7276041666628,
      "v": 93
    },
    {
      "midi": 61,
      "hit": false,
      "t": 210545.62999999936,
      "d": 125.00010416665464,
      "v": 57
    },
    {
      "midi": 64,
      "hit": false,
      "t": 210545.62999999936,
      "d": 125.00010416665464,
      "v": 57
    },
    {
      "midi": 68,
      "hit": false,
      "t": 210545.62999999936,
      "d": 125.00010416665464,
      "v": 57
    },
    {
      "midi": 44,
      "hit": false,
      "t": 210545.62999999936,
      "d": 261.36385416664416,
      "v": 59
    },
    {
      "midi": 49,
      "hit": false,
      "t": 210545.62999999936,
      "d": 261.36385416664416,
      "v": 59
    },
    {
      "midi": 56,
      "hit": false,
      "t": 210545.62999999936,
      "d": 397.7276041666337,
      "v": 59
    },
    {
      "midi": 61,
      "hit": false,
      "t": 210545.63000000012,
      "d": 125.00010416665464,
      "v": 51
    },
    {
      "midi": 64,
      "hit": false,
      "t": 210545.63000000012,
      "d": 125.00010416665464,
      "v": 51
    },
    {
      "midi": 68,
      "hit": false,
      "t": 210545.63000000012,
      "d": 125.00010416665464,
      "v": 51
    },
    {
      "midi": 56,
      "hit": false,
      "t": 210545.63000000012,
      "d": 261.36385416664416,
      "v": 76
    },
    {
      "midi": 49,
      "hit": false,
      "t": 210545.63000000012,
      "d": 397.7276041666337,
      "v": 76
    },
    {
      "midi": 64,
      "hit": false,
      "t": 210556.99364584003,
      "d": 102.27281250001397,
      "v": 41
    },
    {
      "midi": 76,
      "hit": false,
      "t": 210556.99364584003,
      "d": 102.27281250001397,
      "v": 41
    },
    {
      "midi": 61,
      "hit": false,
      "t": 210681.99374999935,
      "d": 125.00010416665464,
      "v": 44
    },
    {
      "midi": 64,
      "hit": false,
      "t": 210681.99374999935,
      "d": 125.00010416665464,
      "v": 44
    },
    {
      "midi": 68,
      "hit": false,
      "t": 210681.99374999935,
      "d": 125.00010416665464,
      "v": 44
    },
    {
      "midi": 61,
      "hit": false,
      "t": 210681.9937500001,
      "d": 125.00010416665464,
      "v": 30
    },
    {
      "midi": 64,
      "hit": false,
      "t": 210681.9937500001,
      "d": 125.00010416665464,
      "v": 30
    },
    {
      "midi": 68,
      "hit": false,
      "t": 210681.9937500001,
      "d": 125.00010416665464,
      "v": 30
    },
    {
      "midi": 64,
      "hit": false,
      "t": 210693.35739584005,
      "d": 102.27281250001397,
      "v": 41
    },
    {
      "midi": 76,
      "hit": false,
      "t": 210693.35739584005,
      "d": 102.27281250001397,
      "v": 41
    },
    {
      "midi": 85,
      "hit": false,
      "t": 210806.99385416636,
      "d": 125.00010416668374,
      "v": 84
    },
    {
      "midi": 61,
      "hit": false,
      "t": 210818.35749999934,
      "d": 125.00010416665464,
      "v": 44
    },
    {
      "midi": 64,
      "hit": false,
      "t": 210818.35749999934,
      "d": 125.00010416665464,
      "v": 44
    },
    {
      "midi": 68,
      "hit": false,
      "t": 210818.35749999934,
      "d": 125.00010416665464,
      "v": 44
    },
    {
      "midi": 61,
      "hit": false,
      "t": 210818.3575000001,
      "d": 125.00010416665464,
      "v": 30
    },
    {
      "midi": 64,
      "hit": false,
      "t": 210818.3575000001,
      "d": 125.00010416665464,
      "v": 30
    },
    {
      "midi": 68,
      "hit": false,
      "t": 210818.3575000001,
      "d": 125.00010416665464,
      "v": 30
    },
    {
      "midi": 64,
      "hit": false,
      "t": 210829.72114584007,
      "d": 102.27281250001397,
      "v": 41
    },
    {
      "midi": 76,
      "hit": false,
      "t": 210829.72114584007,
      "d": 102.27281250001397,
      "v": 41
    },
    {
      "midi": 64,
      "hit": false,
      "t": 210931.9939583331,
      "d": 261.36385416667326,
      "v": 64
    },
    {
      "midi": 68,
      "hit": false,
      "t": 210931.9939583331,
      "d": 261.36385416667326,
      "v": 64
    },
    {
      "midi": 71,
      "hit": false,
      "t": 210931.9939583331,
      "d": 261.36385416667326,
      "v": 64
    },
    {
      "midi": 32,
      "hit": false,
      "t": 210954.72124999922,
      "d": 125.00010416665464,
      "v": 93
    },
    {
      "midi": 44,
      "hit": false,
      "t": 210954.72124999933,
      "d": 125.00010416665464,
      "v": 59
    },
    {
      "midi": 49,
      "hit": false,
      "t": 210954.72124999933,
      "d": 125.00010416665464,
      "v": 59
    },
    {
      "midi": 56,
      "hit": false,
      "t": 210954.72124999933,
      "d": 261.36385416664416,
      "v": 59
    },
    {
      "midi": 61,
      "hit": false,
      "t": 210954.72124999933,
      "d": 261.36385416664416,
      "v": 57
    },
    {
      "midi": 64,
      "hit": false,
      "t": 210954.72124999933,
      "d": 261.36385416664416,
      "v": 57
    },
    {
      "midi": 68,
      "hit": false,
      "t": 210954.72124999933,
      "d": 261.36385416664416,
      "v": 57
    },
    {
      "midi": 56,
      "hit": false,
      "t": 210954.7212500001,
      "d": 261.36385416667326,
      "v": 76
    },
    {
      "midi": 61,
      "hit": false,
      "t": 210954.7212500001,
      "d": 261.36385416667326,
      "v": 51
    },
    {
      "midi": 64,
      "hit": false,
      "t": 210954.7212500001,
      "d": 261.36385416667326,
      "v": 51
    },
    {
      "midi": 68,
      "hit": false,
      "t": 210954.7212500001,
      "d": 261.36385416667326,
      "v": 51
    },
    {
      "midi": 49,
      "hit": false,
      "t": 210954.7212500001,
      "d": 534.0913541666523,
      "v": 76
    },
    {
      "midi": 64,
      "hit": false,
      "t": 210966.0848958401,
      "d": 102.27281250001397,
      "v": 41
    },
    {
      "midi": 76,
      "hit": false,
      "t": 210966.0848958401,
      "d": 102.27281250001397,
      "v": 41
    },
    {
      "midi": 85,
      "hit": false,
      "t": 211079.72135416637,
      "d": 397.7276041666628,
      "v": 84
    },
    {
      "midi": 37,
      "hit": false,
      "t": 211091.0849999992,
      "d": 125.00010416665464,
      "v": 93
    },
    {
      "midi": 64,
      "hit": false,
      "t": 211102.4486458401,
      "d": 102.27281250001397,
      "v": 74
    },
    {
      "midi": 76,
      "hit": false,
      "t": 211102.4486458401,
      "d": 102.27281250001397,
      "v": 74
    },
    {
      "midi": 61,
      "hit": false,
      "t": 211204.7214583331,
      "d": 125.00010416665464,
      "v": 64
    },
    {
      "midi": 64,
      "hit": false,
      "t": 211204.7214583331,
      "d": 125.00010416665464,
      "v": 64
    },
    {
      "midi": 68,
      "hit": false,
      "t": 211204.7214583331,
      "d": 125.00010416665464,
      "v": 64
    },
    {
      "midi": 32,
      "hit": false,
      "t": 211227.4487499992,
      "d": 261.36385416667326,
      "v": 93
    },
    {
      "midi": 61,
      "hit": false,
      "t": 211227.4487499993,
      "d": 125.00010416665464,
      "v": 44
    },
    {
      "midi": 64,
      "hit": false,
      "t": 211227.4487499993,
      "d": 125.00010416665464,
      "v": 44
    },
    {
      "midi": 68,
      "hit": false,
      "t": 211227.4487499993,
      "d": 125.00010416665464,
      "v": 44
    },
    {
      "midi": 61,
      "hit": false,
      "t": 211227.4487500001,
      "d": 125.00010416665464,
      "v": 30
    },
    {
      "midi": 64,
      "hit": false,
      "t": 211227.4487500001,
      "d": 125.00010416665464,
      "v": 30
    },
    {
      "midi": 68,
      "hit": false,
      "t": 211227.4487500001,
      "d": 125.00010416665464,
      "v": 30
    },
    {
      "midi": 64,
      "hit": false,
      "t": 211238.81239584013,
      "d": 102.27281250001397,
      "v": 47
    },
    {
      "midi": 76,
      "hit": false,
      "t": 211238.81239584013,
      "d": 102.27281250001397,
      "v": 47
    },
    {
      "midi": 63,
      "hit": false,
      "t": 211341.0852083331,
      "d": 125.00010416665464,
      "v": 64
    },
    {
      "midi": 66,
      "hit": false,
      "t": 211341.0852083331,
      "d": 125.00010416665464,
      "v": 64
    },
    {
      "midi": 69,
      "hit": false,
      "t": 211341.0852083331,
      "d": 125.00010416665464,
      "v": 64
    },
    {
      "midi": 61,
      "hit": false,
      "t": 211363.8124999993,
      "d": 125.00010416665464,
      "v": 57
    },
    {
      "midi": 64,
      "hit": false,
      "t": 211363.8124999993,
      "d": 125.00010416665464,
      "v": 57
    },
    {
      "midi": 68,
      "hit": false,
      "t": 211363.8124999993,
      "d": 125.00010416665464,
      "v": 57
    },
    {
      "midi": 61,
      "hit": false,
      "t": 211363.8125000001,
      "d": 125.00010416665464,
      "v": 51
    },
    {
      "midi": 64,
      "hit": false,
      "t": 211363.8125000001,
      "d": 125.00010416665464,
      "v": 51
    },
    {
      "midi": 68,
      "hit": false,
      "t": 211363.8125000001,
      "d": 125.00010416665464,
      "v": 51
    },
    {
      "midi": 64,
      "hit": false,
      "t": 211375.17614584015,
      "d": 102.27281250001397,
      "v": 47
    },
    {
      "midi": 76,
      "hit": false,
      "t": 211375.17614584015,
      "d": 102.27281250001397,
      "v": 47
    },
    {
      "midi": 64,
      "hit": false,
      "t": 211477.4489583331,
      "d": 136.36374999998952,
      "v": 64
    },
    {
      "midi": 68,
      "hit": false,
      "t": 211477.4489583331,
      "d": 261.36385416664416,
      "v": 64
    },
    {
      "midi": 71,
      "hit": false,
      "t": 211477.4489583331,
      "d": 261.36385416664416,
      "v": 64
    },
    {
      "midi": 44,
      "hit": false,
      "t": 211500.1762499993,
      "d": 113.63645833331975,
      "v": 59
    },
    {
      "midi": 49,
      "hit": false,
      "t": 211500.1762499993,
      "d": 113.63645833331975,
      "v": 59
    },
    {
      "midi": 61,
      "hit": false,
      "t": 211500.1762499993,
      "d": 113.63645833331975,
      "v": 44
    },
    {
      "midi": 64,
      "hit": false,
      "t": 211500.1762499993,
      "d": 113.63645833331975,
      "v": 44
    },
    {
      "midi": 68,
      "hit": false,
      "t": 211500.1762499993,
      "d": 113.63645833331975,
      "v": 44
    },
    {
      "midi": 61,
      "hit": false,
      "t": 211500.17625000008,
      "d": 113.63645833331975,
      "v": 30
    },
    {
      "midi": 64,
      "hit": false,
      "t": 211500.17625000008,
      "d": 113.63645833331975,
      "v": 30
    },
    {
      "midi": 68,
      "hit": false,
      "t": 211500.17625000008,
      "d": 113.63645833331975,
      "v": 30
    },
    {
      "midi": 64,
      "hit": false,
      "t": 211511.53989584016,
      "d": 102.27281250001397,
      "v": 47
    },
    {
      "midi": 76,
      "hit": false,
      "t": 211511.53989584016,
      "d": 102.27281250001397,
      "v": 47
    },
    {
      "midi": 64,
      "hit": false,
      "t": 211613.81270833308,
      "d": 125.00010416665464,
      "v": 64
    },
    {
      "midi": 61,
      "hit": false,
      "t": 211613.81270833308,
      "d": 261.36385416664416,
      "v": 64
    },
    {
      "midi": 69,
      "hit": false,
      "t": 211613.81270833308,
      "d": 261.36385416664416,
      "v": 64
    },
    {
      "midi": 76,
      "hit": false,
      "t": 211625.17635416635,
      "d": 943.1826041666791,
      "v": 84
    },
    {
      "midi": 33,
      "hit": false,
      "t": 211636.5399999992,
      "d": 397.7276041666628,
      "v": 93
    },
    {
      "midi": 45,
      "hit": false,
      "t": 211636.53999999928,
      "d": 261.36385416667326,
      "v": 59
    },
    {
      "midi": 52,
      "hit": false,
      "t": 211636.53999999928,
      "d": 261.36385416667326,
      "v": 59
    },
    {
      "midi": 57,
      "hit": false,
      "t": 211636.53999999928,
      "d": 261.36385416667326,
      "v": 59
    },
    {
      "midi": 61,
      "hit": false,
      "t": 211636.53999999928,
      "d": 261.36385416667326,
      "v": 65
    },
    {
      "midi": 64,
      "hit": false,
      "t": 211636.53999999928,
      "d": 261.36385416667326,
      "v": 65
    },
    {
      "midi": 69,
      "hit": false,
      "t": 211636.53999999928,
      "d": 261.36385416667326,
      "v": 65
    },
    {
      "midi": 61,
      "hit": false,
      "t": 211636.54000000007,
      "d": 261.36385416667326,
      "v": 59
    },
    {
      "midi": 64,
      "hit": false,
      "t": 211636.54000000007,
      "d": 261.36385416667326,
      "v": 59
    },
    {
      "midi": 69,
      "hit": false,
      "t": 211636.54000000007,
      "d": 261.36385416667326,
      "v": 59
    },
    {
      "midi": 45,
      "hit": false,
      "t": 211909.2674999993,
      "d": 261.36385416667326,
      "v": 59
    },
    {
      "midi": 52,
      "hit": false,
      "t": 211909.2674999993,
      "d": 261.36385416667326,
      "v": 59
    },
    {
      "midi": 57,
      "hit": false,
      "t": 211909.2674999993,
      "d": 261.36385416667326,
      "v": 59
    },
    {
      "midi": 61,
      "hit": false,
      "t": 211909.2674999993,
      "d": 261.36385416667326,
      "v": 49
    },
    {
      "midi": 64,
      "hit": false,
      "t": 211909.2674999993,
      "d": 261.36385416667326,
      "v": 49
    },
    {
      "midi": 69,
      "hit": false,
      "t": 211909.2674999993,
      "d": 261.36385416667326,
      "v": 49
    },
    {
      "midi": 57,
      "hit": false,
      "t": 211909.26750000007,
      "d": 261.36385416667326,
      "v": 76
    },
    {
      "midi": 61,
      "hit": false,
      "t": 211909.26750000007,
      "d": 261.36385416667326,
      "v": 43
    },
    {
      "midi": 64,
      "hit": false,
      "t": 211909.26750000007,
      "d": 261.36385416667326,
      "v": 43
    },
    {
      "midi": 69,
      "hit": false,
      "t": 211909.26750000007,
      "d": 261.36385416667326,
      "v": 43
    },
    {
      "midi": 45,
      "hit": false,
      "t": 211909.26750000007,
      "d": 397.7276041666628,
      "v": 76
    },
    {
      "midi": 61,
      "hit": false,
      "t": 212022.90395833305,
      "d": 261.36385416667326,
      "v": 64
    },
    {
      "midi": 64,
      "hit": false,
      "t": 212022.90395833305,
      "d": 261.36385416667326,
      "v": 64
    },
    {
      "midi": 69,
      "hit": false,
      "t": 212022.90395833305,
      "d": 261.36385416667326,
      "v": 64
    },
    {
      "midi": 33,
      "hit": false,
      "t": 212045.6312499992,
      "d": 125.00010416665464,
      "v": 93
    },
    {
      "midi": 35,
      "hit": false,
      "t": 212181.99499999918,
      "d": 397.7276041666628,
      "v": 93
    },
    {
      "midi": 61,
      "hit": false,
      "t": 212181.9949999993,
      "d": 125.00010416665464,
      "v": 65
    },
    {
      "midi": 64,
      "hit": false,
      "t": 212181.9949999993,
      "d": 125.00010416665464,
      "v": 65
    },
    {
      "midi": 69,
      "hit": false,
      "t": 212181.9949999993,
      "d": 125.00010416665464,
      "v": 65
    },
    {
      "midi": 61,
      "hit": false,
      "t": 212181.99500000008,
      "d": 125.00010416665464,
      "v": 59
    },
    {
      "midi": 64,
      "hit": false,
      "t": 212181.99500000008,
      "d": 125.00010416665464,
      "v": 59
    },
    {
      "midi": 69,
      "hit": false,
      "t": 212181.99500000008,
      "d": 125.00010416665464,
      "v": 59
    },
    {
      "midi": 45,
      "hit": false,
      "t": 212318.3587499993,
      "d": 125.00010416665464,
      "v": 59
    },
    {
      "midi": 52,
      "hit": false,
      "t": 212318.3587499993,
      "d": 125.00010416665464,
      "v": 59
    },
    {
      "midi": 61,
      "hit": false,
      "t": 212318.3587499993,
      "d": 125.00010416665464,
      "v": 44
    },
    {
      "midi": 69,
      "hit": false,
      "t": 212318.3587499993,
      "d": 125.00010416665464,
      "v": 44
    },
    {
      "midi": 64,
      "hit": false,
      "t": 212318.3587499993,
      "d": 147.7273958333244,
      "v": 44
    },
    {
      "midi": 57,
      "hit": false,
      "t": 212318.3587499993,
      "d": 261.36385416664416,
      "v": 59
    },
    {
      "midi": 57,
      "hit": false,
      "t": 212318.35875000007,
      "d": 125.00010416665464,
      "v": 76
    },
    {
      "midi": 61,
      "hit": false,
      "t": 212318.35875000007,
      "d": 125.00010416665464,
      "v": 30
    },
    {
      "midi": 69,
      "hit": false,
      "t": 212318.35875000007,
      "d": 125.00010416665464,
      "v": 30
    },
    {
      "midi": 64,
      "hit": false,
      "t": 212318.35875000007,
      "d": 147.7273958333244,
      "v": 30
    },
    {
      "midi": 45,
      "hit": false,
      "t": 212318.35875000007,
      "d": 261.36385416664416,
      "v": 76
    },
    {
      "midi": 35,
      "hit": false,
      "t": 212591.08624999918,
      "d": 125.00010416665464,
      "v": 93
    },
    {
      "midi": 61,
      "hit": false,
      "t": 212591.08624999927,
      "d": 125.00010416665464,
      "v": 44
    },
    {
      "midi": 64,
      "hit": false,
      "t": 212591.08624999927,
      "d": 125.00010416665464,
      "v": 44
    },
    {
      "midi": 69,
      "hit": false,
      "t": 212591.08624999927,
      "d": 125.00010416665464,
      "v": 44
    },
    {
      "midi": 61,
      "hit": false,
      "t": 212591.08625000005,
      "d": 125.00010416665464,
      "v": 30
    },
    {
      "midi": 64,
      "hit": false,
      "t": 212591.08625000005,
      "d": 125.00010416665464,
      "v": 30
    },
    {
      "midi": 69,
      "hit": false,
      "t": 212591.08625000005,
      "d": 125.00010416665464,
      "v": 30
    },
    {
      "midi": 76,
      "hit": false,
      "t": 212716.08635416636,
      "d": 534.0913541667396,
      "v": 84
    },
    {
      "midi": 37,
      "hit": false,
      "t": 212727.44999999917,
      "d": 125.00010416665464,
      "v": 93
    },
    {
      "midi": 61,
      "hit": false,
      "t": 212727.44999999925,
      "d": 125.00010416665464,
      "v": 65
    },
    {
      "midi": 64,
      "hit": false,
      "t": 212727.44999999925,
      "d": 125.00010416665464,
      "v": 65
    },
    {
      "midi": 69,
      "hit": false,
      "t": 212727.44999999925,
      "d": 125.00010416665464,
      "v": 65
    },
    {
      "midi": 45,
      "hit": false,
      "t": 212727.44999999925,
      "d": 261.36385416664416,
      "v": 59
    },
    {
      "midi": 52,
      "hit": false,
      "t": 212727.44999999925,
      "d": 261.36385416664416,
      "v": 59
    },
    {
      "midi": 57,
      "hit": false,
      "t": 212727.44999999925,
      "d": 261.36385416664416,
      "v": 59
    },
    {
      "midi": 61,
      "hit": false,
      "t": 212727.45000000004,
      "d": 125.00010416665464,
      "v": 59
    },
    {
      "midi": 64,
      "hit": false,
      "t": 212727.45000000004,
      "d": 125.00010416665464,
      "v": 59
    },
    {
      "midi": 69,
      "hit": false,
      "t": 212727.45000000004,
      "d": 125.00010416665464,
      "v": 59
    },
    {
      "midi": 57,
      "hit": false,
      "t": 212727.45000000004,
      "d": 261.36385416664416,
      "v": 76
    },
    {
      "midi": 45,
      "hit": false,
      "t": 212727.45000000004,
      "d": 670.4551041666418,
      "v": 76
    },
    {
      "midi": 61,
      "hit": false,
      "t": 212863.81374999924,
      "d": 125.00010416665464,
      "v": 44
    },
    {
      "midi": 64,
      "hit": false,
      "t": 212863.81374999924,
      "d": 125.00010416665464,
      "v": 44
    },
    {
      "midi": 69,
      "hit": false,
      "t": 212863.81374999924,
      "d": 125.00010416665464,
      "v": 44
    },
    {
      "midi": 61,
      "hit": false,
      "t": 212863.81375000003,
      "d": 125.00010416665464,
      "v": 30
    },
    {
      "midi": 64,
      "hit": false,
      "t": 212863.81375000003,
      "d": 125.00010416665464,
      "v": 30
    },
    {
      "midi": 69,
      "hit": false,
      "t": 212863.81375000003,
      "d": 125.00010416665464,
      "v": 30
    },
    {
      "midi": 37,
      "hit": false,
      "t": 213000.17749999915,
      "d": 261.36385416667326,
      "v": 93
    },
    {
      "midi": 61,
      "hit": false,
      "t": 213000.17749999923,
      "d": 125.00010416665464,
      "v": 44
    },
    {
      "midi": 64,
      "hit": false,
      "t": 213000.17749999923,
      "d": 125.00010416665464,
      "v": 44
    },
    {
      "midi": 69,
      "hit": false,
      "t": 213000.17749999923,
      "d": 125.00010416665464,
      "v": 44
    },
    {
      "midi": 61,
      "hit": false,
      "t": 213000.17750000002,
      "d": 125.00010416665464,
      "v": 30
    },
    {
      "midi": 64,
      "hit": false,
      "t": 213000.17750000002,
      "d": 125.00010416665464,
      "v": 30
    },
    {
      "midi": 69,
      "hit": false,
      "t": 213000.17750000002,
      "d": 125.00010416665464,
      "v": 30
    },
    {
      "midi": 45,
      "hit": false,
      "t": 213136.54124999922,
      "d": 125.00010416665464,
      "v": 59
    },
    {
      "midi": 52,
      "hit": false,
      "t": 213136.54124999922,
      "d": 125.00010416665464,
      "v": 59
    },
    {
      "midi": 57,
      "hit": false,
      "t": 213136.54124999922,
      "d": 261.36385416664416,
      "v": 59
    },
    {
      "midi": 61,
      "hit": false,
      "t": 213136.54124999922,
      "d": 261.36385416664416,
      "v": 61
    },
    {
      "midi": 64,
      "hit": false,
      "t": 213136.54124999922,
      "d": 261.36385416664416,
      "v": 61
    },
    {
      "midi": 69,
      "hit": false,
      "t": 213136.54124999922,
      "d": 261.36385416664416,
      "v": 61
    },
    {
      "midi": 57,
      "hit": false,
      "t": 213136.54125,
      "d": 261.36385416667326,
      "v": 76
    },
    {
      "midi": 61,
      "hit": false,
      "t": 213136.54125,
      "d": 261.36385416667326,
      "v": 55
    },
    {
      "midi": 64,
      "hit": false,
      "t": 213136.54125,
      "d": 261.36385416667326,
      "v": 55
    },
    {
      "midi": 69,
      "hit": false,
      "t": 213136.54125,
      "d": 261.36385416667326,
      "v": 55
    },
    {
      "midi": 61,
      "hit": false,
      "t": 213250.17770833304,
      "d": 261.36385416667326,
      "v": 64
    },
    {
      "midi": 69,
      "hit": false,
      "t": 213250.17770833304,
      "d": 261.36385416667326,
      "v": 64
    },
    {
      "midi": 76,
      "hit": false,
      "t": 213261.54135416643,
      "d": 534.0913541667105,
      "v": 84
    },
    {
      "midi": 39,
      "hit": false,
      "t": 213272.90499999915,
      "d": 261.36385416667326,
      "v": 93
    },
    {
      "midi": 61,
      "hit": false,
      "t": 213409.2687499992,
      "d": 125.00010416665464,
      "v": 44
    },
    {
      "midi": 64,
      "hit": false,
      "t": 213409.2687499992,
      "d": 125.00010416665464,
      "v": 44
    },
    {
      "midi": 69,
      "hit": false,
      "t": 213409.2687499992,
      "d": 125.00010416665464,
      "v": 44
    },
    {
      "midi": 61,
      "hit": false,
      "t": 213409.26875000002,
      "d": 125.00010416665464,
      "v": 30
    },
    {
      "midi": 64,
      "hit": false,
      "t": 213409.26875000002,
      "d": 125.00010416665464,
      "v": 30
    },
    {
      "midi": 69,
      "hit": false,
      "t": 213409.26875000002,
      "d": 125.00010416665464,
      "v": 30
    },
    {
      "midi": 61,
      "hit": false,
      "t": 213522.90520833305,
      "d": 68.18187500000931,
      "v": 64
    },
    {
      "midi": 64,
      "hit": false,
      "t": 213522.90520833305,
      "d": 125.00010416668374,
      "v": 64
    },
    {
      "midi": 69,
      "hit": false,
      "t": 213522.90520833305,
      "d": 125.00010416668374,
      "v": 64
    },
    {
      "midi": 40,
      "hit": false,
      "t": 213545.63249999916,
      "d": 125.00010416665464,
      "v": 93
    },
    {
      "midi": 61,
      "hit": false,
      "t": 213545.6324999992,
      "d": 125.00010416665464,
      "v": 61
    },
    {
      "midi": 64,
      "hit": false,
      "t": 213545.6324999992,
      "d": 125.00010416665464,
      "v": 61
    },
    {
      "midi": 69,
      "hit": false,
      "t": 213545.6324999992,
      "d": 125.00010416665464,
      "v": 61
    },
    {
      "midi": 61,
      "hit": false,
      "t": 213545.6325,
      "d": 125.00010416665464,
      "v": 55
    },
    {
      "midi": 64,
      "hit": false,
      "t": 213545.6325,
      "d": 125.00010416665464,
      "v": 55
    },
    {
      "midi": 69,
      "hit": false,
      "t": 213545.6325,
      "d": 125.00010416665464,
      "v": 55
    },
    {
      "midi": 66,
      "hit": false,
      "t": 213659.26895833306,
      "d": 1897.728854166664,
      "v": 64
    },
    {
      "midi": 58,
      "hit": false,
      "t": 213659.26895833306,
      "d": 2170.456354166643,
      "v": 64
    },
    {
      "midi": 70,
      "hit": false,
      "t": 213659.26895833306,
      "d": 2306.8201041666325,
      "v": 64
    },
    {
      "midi": 61,
      "hit": false,
      "t": 213659.26895833306,
      "d": 4500.003749999974,
      "v": 64
    },
    {
      "midi": 64,
      "hit": false,
      "t": 213681.99624999918,
      "d": 113.63645833331975,
      "v": 44
    },
    {
      "midi": 69,
      "hit": false,
      "t": 213681.99624999918,
      "d": 113.63645833331975,
      "v": 44
    },
    {
      "midi": 61,
      "hit": false,
      "t": 213681.99624999918,
      "d": 136.36374999998952,
      "v": 44
    },
    {
      "midi": 64,
      "hit": false,
      "t": 213681.99625,
      "d": 113.63645833331975,
      "v": 30
    },
    {
      "midi": 69,
      "hit": false,
      "t": 213681.99625,
      "d": 113.63645833331975,
      "v": 30
    },
    {
      "midi": 61,
      "hit": false,
      "t": 213681.99625,
      "d": 136.36374999998952,
      "v": 30
    },
    {
      "midi": 71,
      "hit": false,
      "t": 213806.99635416648,
      "d": 136.36374999998952,
      "v": 69
    },
    {
      "midi": 42,
      "hit": false,
      "t": 213818.35999999914,
      "d": 397.7276041666628,
      "v": 93
    },
    {
      "midi": 61,
      "hit": false,
      "t": 213818.35999999917,
      "d": 11.363645833334886,
      "v": 47
    },
    {
      "midi": 66,
      "hit": false,
      "t": 213818.35999999917,
      "d": 261.36385416667326,
      "v": 47
    },
    {
      "midi": 70,
      "hit": false,
      "t": 213818.35999999917,
      "d": 261.36385416667326,
      "v": 47
    },
    {
      "midi": 61,
      "hit": false,
      "t": 213818.36,
      "d": 11.363645833334886,
      "v": 41
    },
    {
      "midi": 66,
      "hit": false,
      "t": 213818.36,
      "d": 261.36385416667326,
      "v": 41
    },
    {
      "midi": 70,
      "hit": false,
      "t": 213818.36,
      "d": 261.36385416667326,
      "v": 41
    },
    {
      "midi": 64,
      "hit": false,
      "t": 213829.7236458402,
      "d": 102.27281250001397,
      "v": 76
    },
    {
      "midi": 76,
      "hit": false,
      "t": 213829.7236458402,
      "d": 102.27281250001397,
      "v": 76
    },
    {
      "midi": 73,
      "hit": false,
      "t": 213943.36010416647,
      "d": 136.36374999998952,
      "v": 84
    },
    {
      "midi": 64,
      "hit": false,
      "t": 213966.0873958402,
      "d": 102.27281250001397,
      "v": 41
    },
    {
      "midi": 76,
      "hit": false,
      "t": 213966.0873958402,
      "d": 102.27281250001397,
      "v": 41
    },
    {
      "midi": 76,
      "hit": false,
      "t": 214079.72385416646,
      "d": 102.27281250001397,
      "v": 79
    },
    {
      "midi": 54,
      "hit": false,
      "t": 214091.08749999918,
      "d": 261.36385416667326,
      "v": 59
    },
    {
      "midi": 58,
      "hit": false,
      "t": 214091.08749999918,
      "d": 261.36385416667326,
      "v": 59
    },
    {
      "midi": 61,
      "hit": false,
      "t": 214091.08749999918,
      "d": 261.36385416667326,
      "v": 53
    },
    {
      "midi": 66,
      "hit": false,
      "t": 214091.08749999918,
      "d": 261.36385416667326,
      "v": 53
    },
    {
      "midi": 70,
      "hit": false,
      "t": 214091.08749999918,
      "d": 261.36385416667326,
      "v": 53
    },
    {
      "midi": 64,
      "hit": false,
      "t": 214091.08749999918,
      "d": 397.7276041666628,
      "v": 59
    },
    {
      "midi": 58,
      "hit": false,
      "t": 214091.0875,
      "d": 261.36385416667326,
      "v": 76
    },
    {
      "midi": 61,
      "hit": false,
      "t": 214091.0875,
      "d": 261.36385416667326,
      "v": 47
    },
    {
      "midi": 66,
      "hit": false,
      "t": 214091.0875,
      "d": 261.36385416667326,
      "v": 47
    },
    {
      "midi": 70,
      "hit": false,
      "t": 214091.0875,
      "d": 261.36385416667326,
      "v": 47
    },
    {
      "midi": 64,
      "hit": false,
      "t": 214102.45114584023,
      "d": 102.27281250001397,
      "v": 41
    },
    {
      "midi": 76,
      "hit": false,
      "t": 214102.45114584023,
      "d": 102.27281250001397,
      "v": 41
    },
    {
      "midi": 71,
      "hit": false,
      "t": 214216.08760416647,
      "d": 136.36374999998952,
      "v": 69
    },
    {
      "midi": 42,
      "hit": false,
      "t": 214227.45124999914,
      "d": 125.00010416665464,
      "v": 93
    },
    {
      "midi": 64,
      "hit": false,
      "t": 214238.81489584025,
      "d": 102.27281250001397,
      "v": 41
    },
    {
      "midi": 76,
      "hit": false,
      "t": 214238.81489584025,
      "d": 102.27281250001397,
      "v": 41
    },
    {
      "midi": 73,
      "hit": false,
      "t": 214352.45135416646,
      "d": 136.36374999998952,
      "v": 84
    },
    {
      "midi": 37,
      "hit": false,
      "t": 214363.81499999913,
      "d": 261.36385416667326,
      "v": 93
    },
    {
      "midi": 61,
      "hit": false,
      "t": 214363.8149999992,
      "d": 125.00010416665464,
      "v": 57
    },
    {
      "midi": 66,
      "hit": false,
      "t": 214363.8149999992,
      "d": 125.00010416665464,
      "v": 57
    },
    {
      "midi": 70,
      "hit": false,
      "t": 214363.8149999992,
      "d": 125.00010416665464,
      "v": 57
    },
    {
      "midi": 61,
      "hit": false,
      "t": 214363.815,
      "d": 125.00010416665464,
      "v": 51
    },
    {
      "midi": 66,
      "hit": false,
      "t": 214363.815,
      "d": 125.00010416665464,
      "v": 51
    },
    {
      "midi": 70,
      "hit": false,
      "t": 214363.815,
      "d": 125.00010416665464,
      "v": 51
    },
    {
      "midi": 64,
      "hit": false,
      "t": 214375.17864584026,
      "d": 102.27281250001397,
      "v": 41
    },
    {
      "midi": 76,
      "hit": false,
      "t": 214375.17864584026,
      "d": 102.27281250001397,
      "v": 41
    },
    {
      "midi": 76,
      "hit": false,
      "t": 214488.81510416645,
      "d": 102.27281250001397,
      "v": 79
    },
    {
      "midi": 61,
      "hit": false,
      "t": 214500.17874999918,
      "d": 159.0910416666593,
      "v": 44
    },
    {
      "midi": 66,
      "hit": false,
      "t": 214500.17874999918,
      "d": 159.0910416666593,
      "v": 44
    },
    {
      "midi": 70,
      "hit": false,
      "t": 214500.17874999918,
      "d": 159.0910416666593,
      "v": 44
    },
    {
      "midi": 54,
      "hit": false,
      "t": 214500.17874999918,
      "d": 261.36385416667326,
      "v": 59
    },
    {
      "midi": 58,
      "hit": false,
      "t": 214500.17874999918,
      "d": 261.36385416667326,
      "v": 59
    },
    {
      "midi": 64,
      "hit": false,
      "t": 214500.17874999918,
      "d": 397.7276041666628,
      "v": 59
    },
    {
      "midi": 58,
      "hit": false,
      "t": 214500.17875,
      "d": 125.00010416665464,
      "v": 76
    },
    {
      "midi": 61,
      "hit": false,
      "t": 214500.17875,
      "d": 159.0910416666593,
      "v": 30
    },
    {
      "midi": 66,
      "hit": false,
      "t": 214500.17875,
      "d": 159.0910416666593,
      "v": 30
    },
    {
      "midi": 70,
      "hit": false,
      "t": 214500.17875,
      "d": 159.0910416666593,
      "v": 30
    },
    {
      "midi": 64,
      "hit": false,
      "t": 214511.54239584028,
      "d": 102.27281250001397,
      "v": 41
    },
    {
      "midi": 76,
      "hit": false,
      "t": 214511.54239584028,
      "d": 102.27281250001397,
      "v": 41
    },
    {
      "midi": 71,
      "hit": false,
      "t": 214625.17885416647,
      "d": 136.36374999998952,
      "v": 69
    },
    {
      "midi": 64,
      "hit": false,
      "t": 214647.9061458403,
      "d": 102.27281250001397,
      "v": 76
    },
    {
      "midi": 76,
      "hit": false,
      "t": 214647.9061458403,
      "d": 102.27281250001397,
      "v": 76
    },
    {
      "midi": 73,
      "hit": false,
      "t": 214761.54260416646,
      "d": 136.36374999998952,
      "v": 84
    },
    {
      "midi": 37,
      "hit": false,
      "t": 214772.90624999913,
      "d": 125.00010416665464,
      "v": 93
    },
    {
      "midi": 61,
      "hit": false,
      "t": 214772.90624999919,
      "d": 125.00010416665464,
      "v": 44
    },
    {
      "midi": 66,
      "hit": false,
      "t": 214772.90624999919,
      "d": 125.00010416665464,
      "v": 44
    },
    {
      "midi": 70,
      "hit": false,
      "t": 214772.90624999919,
      "d": 125.00010416665464,
      "v": 44
    },
    {
      "midi": 61,
      "hit": false,
      "t": 214772.90624999997,
      "d": 125.00010416665464,
      "v": 30
    },
    {
      "midi": 66,
      "hit": false,
      "t": 214772.90624999997,
      "d": 125.00010416665464,
      "v": 30
    },
    {
      "midi": 70,
      "hit": false,
      "t": 214772.90624999997,
      "d": 125.00010416665464,
      "v": 30
    },
    {
      "midi": 64,
      "hit": false,
      "t": 214784.26989584032,
      "d": 102.27281250001397,
      "v": 41
    },
    {
      "midi": 76,
      "hit": false,
      "t": 214784.26989584032,
      "d": 102.27281250001397,
      "v": 41
    },
    {
      "midi": 76,
      "hit": false,
      "t": 214897.90635416645,
      "d": 102.27281250001397,
      "v": 79
    },
    {
      "midi": 42,
      "hit": false,
      "t": 214909.26999999912,
      "d": 397.7276041666628,
      "v": 93
    },
    {
      "midi": 61,
      "hit": false,
      "t": 214909.26999999917,
      "d": 125.00010416665464,
      "v": 57
    },
    {
      "midi": 66,
      "hit": false,
      "t": 214909.26999999917,
      "d": 125.00010416665464,
      "v": 57
    },
    {
      "midi": 70,
      "hit": false,
      "t": 214909.26999999917,
      "d": 125.00010416665464,
      "v": 57
    },
    {
      "midi": 58,
      "hit": false,
      "t": 214909.26999999917,
      "d": 261.36385416664416,
      "v": 59
    },
    {
      "midi": 54,
      "hit": false,
      "t": 214909.26999999917,
      "d": 397.7276041666337,
      "v": 59
    },
    {
      "midi": 64,
      "hit": false,
      "t": 214909.26999999917,
      "d": 397.7276041666337,
      "v": 59
    },
    {
      "midi": 61,
      "hit": false,
      "t": 214909.26999999996,
      "d": 125.00010416665464,
      "v": 51
    },
    {
      "midi": 66,
      "hit": false,
      "t": 214909.26999999996,
      "d": 125.00010416665464,
      "v": 51
    },
    {
      "midi": 70,
      "hit": false,
      "t": 214909.26999999996,
      "d": 125.00010416665464,
      "v": 51
    },
    {
      "midi": 58,
      "hit": false,
      "t": 214909.26999999996,
      "d": 261.36385416664416,
      "v": 76
    },
    {
      "midi": 64,
      "hit": false,
      "t": 214920.63364584034,
      "d": 102.27281250001397,
      "v": 41
    },
    {
      "midi": 76,
      "hit": false,
      "t": 214920.63364584034,
      "d": 102.27281250001397,
      "v": 41
    },
    {
      "midi": 71,
      "hit": false,
      "t": 215034.27010416647,
      "d": 136.36374999998952,
      "v": 69
    },
    {
      "midi": 61,
      "hit": false,
      "t": 215045.63374999916,
      "d": 125.00010416665464,
      "v": 44
    },
    {
      "midi": 66,
      "hit": false,
      "t": 215045.63374999916,
      "d": 125.00010416665464,
      "v": 44
    },
    {
      "midi": 70,
      "hit": false,
      "t": 215045.63374999916,
      "d": 125.00010416665464,
      "v": 44
    },
    {
      "midi": 61,
      "hit": false,
      "t": 215045.63374999995,
      "d": 125.00010416665464,
      "v": 30
    },
    {
      "midi": 66,
      "hit": false,
      "t": 215045.63374999995,
      "d": 125.00010416665464,
      "v": 30
    },
    {
      "midi": 70,
      "hit": false,
      "t": 215045.63374999995,
      "d": 125.00010416665464,
      "v": 30
    },
    {
      "midi": 64,
      "hit": false,
      "t": 215056.99739584036,
      "d": 102.27281250001397,
      "v": 41
    },
    {
      "midi": 76,
      "hit": false,
      "t": 215056.99739584036,
      "d": 102.27281250001397,
      "v": 41
    },
    {
      "midi": 73,
      "hit": false,
      "t": 215170.63385416646,
      "d": 136.36374999998952,
      "v": 84
    },
    {
      "midi": 61,
      "hit": false,
      "t": 215181.99749999915,
      "d": 125.00010416665464,
      "v": 44
    },
    {
      "midi": 66,
      "hit": false,
      "t": 215181.99749999915,
      "d": 125.00010416665464,
      "v": 44
    },
    {
      "midi": 70,
      "hit": false,
      "t": 215181.99749999915,
      "d": 125.00010416665464,
      "v": 44
    },
    {
      "midi": 61,
      "hit": false,
      "t": 215181.99749999994,
      "d": 125.00010416665464,
      "v": 30
    },
    {
      "midi": 66,
      "hit": false,
      "t": 215181.99749999994,
      "d": 125.00010416665464,
      "v": 30
    },
    {
      "midi": 70,
      "hit": false,
      "t": 215181.99749999994,
      "d": 125.00010416665464,
      "v": 30
    },
    {
      "midi": 64,
      "hit": false,
      "t": 215193.36114584038,
      "d": 102.27281250001397,
      "v": 41
    },
    {
      "midi": 76,
      "hit": false,
      "t": 215193.36114584038,
      "d": 102.27281250001397,
      "v": 41
    },
    {
      "midi": 76,
      "hit": false,
      "t": 215306.99760416645,
      "d": 102.27281250001397,
      "v": 79
    },
    {
      "midi": 37,
      "hit": false,
      "t": 215318.3612499991,
      "d": 125.00010416665464,
      "v": 93
    },
    {
      "midi": 52,
      "hit": false,
      "t": 215318.36124999914,
      "d": 261.36385416667326,
      "v": 59
    },
    {
      "midi": 58,
      "hit": false,
      "t": 215318.36124999914,
      "d": 261.36385416667326,
      "v": 59
    },
    {
      "midi": 61,
      "hit": false,
      "t": 215318.36124999914,
      "d": 261.36385416667326,
      "v": 57
    },
    {
      "midi": 64,
      "hit": false,
      "t": 215318.36124999914,
      "d": 261.36385416667326,
      "v": 59
    },
    {
      "midi": 66,
      "hit": false,
      "t": 215318.36124999914,
      "d": 261.36385416667326,
      "v": 57
    },
    {
      "midi": 70,
      "hit": false,
      "t": 215318.36124999914,
      "d": 261.36385416667326,
      "v": 57
    },
    {
      "midi": 58,
      "hit": false,
      "t": 215318.36124999993,
      "d": 261.36385416667326,
      "v": 76
    },
    {
      "midi": 61,
      "hit": false,
      "t": 215318.36124999993,
      "d": 261.36385416667326,
      "v": 51
    },
    {
      "midi": 66,
      "hit": false,
      "t": 215318.36124999993,
      "d": 261.36385416667326,
      "v": 51
    },
    {
      "midi": 70,
      "hit": false,
      "t": 215318.36124999993,
      "d": 261.36385416667326,
      "v": 51
    },
    {
      "midi": 64,
      "hit": false,
      "t": 215329.7248958404,
      "d": 102.27281250001397,
      "v": 41
    },
    {
      "midi": 76,
      "hit": false,
      "t": 215329.7248958404,
      "d": 102.27281250001397,
      "v": 41
    },
    {
      "midi": 71,
      "hit": false,
      "t": 215443.36135416647,
      "d": 136.36374999998952,
      "v": 69
    },
    {
      "midi": 42,
      "hit": false,
      "t": 215454.7249999991,
      "d": 125.00010416665464,
      "v": 93
    },
    {
      "midi": 64,
      "hit": false,
      "t": 215466.0886458404,
      "d": 102.27281250001397,
      "v": 74
    },
    {
      "midi": 76,
      "hit": false,
      "t": 215466.0886458404,
      "d": 102.27281250001397,
      "v": 74
    },
    {
      "midi": 68,
      "hit": false,
      "t": 215568.36145833306,
      "d": 125.00010416665464,
      "v": 64
    },
    {
      "midi": 73,
      "hit": false,
      "t": 215579.72510416646,
      "d": 136.36374999998952,
      "v": 84
    },
    {
      "midi": 37,
      "hit": false,
      "t": 215591.0887499991,
      "d": 125.00010416665464,
      "v": 93
    },
    {
      "midi": 54,
      "hit": false,
      "t": 215591.08874999915,
      "d": 125.00010416665464,
      "v": 59
    },
    {
      "midi": 61,
      "hit": false,
      "t": 215591.08874999915,
      "d": 125.00010416665464,
      "v": 44
    },
    {
      "midi": 66,
      "hit": false,
      "t": 215591.08874999915,
      "d": 125.00010416665464,
      "v": 44
    },
    {
      "midi": 70,
      "hit": false,
      "t": 215591.08874999915,
      "d": 125.00010416665464,
      "v": 44
    },
    {
      "midi": 61,
      "hit": false,
      "t": 215591.08874999994,
      "d": 125.00010416665464,
      "v": 30
    },
    {
      "midi": 66,
      "hit": false,
      "t": 215591.08874999994,
      "d": 125.00010416665464,
      "v": 30
    },
    {
      "midi": 70,
      "hit": false,
      "t": 215591.08874999994,
      "d": 125.00010416665464,
      "v": 30
    },
    {
      "midi": 64,
      "hit": false,
      "t": 215602.45239584043,
      "d": 102.27281250001397,
      "v": 47
    },
    {
      "midi": 76,
      "hit": false,
      "t": 215602.45239584043,
      "d": 102.27281250001397,
      "v": 47
    },
    {
      "midi": 66,
      "hit": false,
      "t": 215704.72520833305,
      "d": 125.00010416665464,
      "v": 64
    },
    {
      "midi": 76,
      "hit": false,
      "t": 215716.08885416645,
      "d": 102.27281250001397,
      "v": 79
    },
    {
      "midi": 44,
      "hit": false,
      "t": 215727.45249999908,
      "d": 125.00010416665464,
      "v": 93
    },
    {
      "midi": 52,
      "hit": false,
      "t": 215727.45249999914,
      "d": 125.00010416665464,
      "v": 59
    },
    {
      "midi": 58,
      "hit": false,
      "t": 215727.45249999914,
      "d": 125.00010416665464,
      "v": 59
    },
    {
      "midi": 61,
      "hit": false,
      "t": 215727.45249999914,
      "d": 125.00010416665464,
      "v": 57
    },
    {
      "midi": 64,
      "hit": false,
      "t": 215727.45249999914,
      "d": 125.00010416665464,
      "v": 59
    },
    {
      "midi": 66,
      "hit": false,
      "t": 215727.45249999914,
      "d": 125.00010416665464,
      "v": 57
    },
    {
      "midi": 70,
      "hit": false,
      "t": 215727.45249999914,
      "d": 125.00010416665464,
      "v": 57
    },
    {
      "midi": 58,
      "hit": false,
      "t": 215727.45249999993,
      "d": 125.00010416665464,
      "v": 76
    },
    {
      "midi": 61,
      "hit": false,
      "t": 215727.45249999993,
      "d": 125.00010416665464,
      "v": 51
    },
    {
      "midi": 66,
      "hit": false,
      "t": 215727.45249999993,
      "d": 125.00010416665464,
      "v": 51
    },
    {
      "midi": 70,
      "hit": false,
      "t": 215727.45249999993,
      "d": 125.00010416665464,
      "v": 51
    },
    {
      "midi": 64,
      "hit": false,
      "t": 215738.81614584045,
      "d": 102.27281250001397,
      "v": 47
    },
    {
      "midi": 76,
      "hit": false,
      "t": 215738.81614584045,
      "d": 102.27281250001397,
      "v": 47
    },
    {
      "midi": 57,
      "hit": false,
      "t": 215841.08895833304,
      "d": 2295.4564583333267,
      "v": 64
    },
    {
      "midi": 64,
      "hit": false,
      "t": 215841.08895833304,
      "d": 2318.1837499999965,
      "v": 64
    },
    {
      "midi": 71,
      "hit": false,
      "t": 215852.45260416646,
      "d": 136.36374999998952,
      "v": 69
    },
    {
      "midi": 61,
      "hit": false,
      "t": 215863.81624999913,
      "d": 125.00010416665464,
      "v": 44
    },
    {
      "midi": 66,
      "hit": false,
      "t": 215863.81624999913,
      "d": 125.00010416665464,
      "v": 44
    },
    {
      "midi": 70,
      "hit": false,
      "t": 215863.81624999913,
      "d": 125.00010416665464,
      "v": 44
    },
    {
      "midi": 61,
      "hit": false,
      "t": 215863.81624999992,
      "d": 125.00010416665464,
      "v": 30
    },
    {
      "midi": 66,
      "hit": false,
      "t": 215863.81624999992,
      "d": 125.00010416665464,
      "v": 30
    },
    {
      "midi": 70,
      "hit": false,
      "t": 215863.81624999992,
      "d": 125.00010416665464,
      "v": 30
    },
    {
      "midi": 64,
      "hit": false,
      "t": 215875.17989584047,
      "d": 102.27281250001397,
      "v": 47
    },
    {
      "midi": 76,
      "hit": false,
      "t": 215875.17989584047,
      "d": 102.27281250001397,
      "v": 47
    },
    {
      "midi": 69,
      "hit": false,
      "t": 215977.45270833303,
      "d": 2159.092708333337,
      "v": 64
    },
    {
      "midi": 73,
      "hit": false,
      "t": 215988.81635416645,
      "d": 136.36374999998952,
      "v": 84
    },
    {
      "midi": 45,
      "hit": false,
      "t": 216000.17999999906,
      "d": 261.36385416667326,
      "v": 93
    },
    {
      "midi": 45,
      "hit": false,
      "t": 216000.17999999912,
      "d": 125.00010416665464,
      "v": 44
    },
    {
      "midi": 45,
      "hit": false,
      "t": 216000.1799999999,
      "d": 125.00010416665464,
      "v": 30
    },
    {
      "midi": 64,
      "hit": false,
      "t": 216011.5436458405,
      "d": 102.27281250001397,
      "v": 76
    },
    {
      "midi": 76,
      "hit": false,
      "t": 216011.5436458405,
      "d": 102.27281250001397,
      "v": 76
    },
    {
      "midi": 76,
      "hit": false,
      "t": 216125.18010416644,
      "d": 102.27281250001397,
      "v": 79
    },
    {
      "midi": 52,
      "hit": false,
      "t": 216136.5437499991,
      "d": 125.00010416665464,
      "v": 44
    },
    {
      "midi": 52,
      "hit": false,
      "t": 216136.5437499999,
      "d": 125.00010416665464,
      "v": 30
    },
    {
      "midi": 64,
      "hit": false,
      "t": 216147.9073958405,
      "d": 102.27281250001397,
      "v": 41
    },
    {
      "midi": 76,
      "hit": false,
      "t": 216147.9073958405,
      "d": 102.27281250001397,
      "v": 41
    },
    {
      "midi": 71,
      "hit": false,
      "t": 216261.54385416646,
      "d": 136.36374999998952,
      "v": 69
    },
    {
      "midi": 52,
      "hit": false,
      "t": 216272.9074999991,
      "d": 261.36385416667326,
      "v": 59
    },
    {
      "midi": 57,
      "hit": false,
      "t": 216272.9074999991,
      "d": 261.36385416667326,
      "v": 61
    },
    {
      "midi": 61,
      "hit": false,
      "t": 216272.9074999991,
      "d": 261.36385416667326,
      "v": 61
    },
    {
      "midi": 64,
      "hit": false,
      "t": 216272.9074999991,
      "d": 261.36385416667326,
      "v": 61
    },
    {
      "midi": 69,
      "hit": false,
      "t": 216272.9074999991,
      "d": 261.36385416667326,
      "v": 61
    },
    {
      "midi": 52,
      "hit": false,
      "t": 216272.90749999988,
      "d": 261.36385416667326,
      "v": 76
    },
    {
      "midi": 57,
      "hit": false,
      "t": 216272.90749999988,
      "d": 261.36385416667326,
      "v": 55
    },
    {
      "midi": 61,
      "hit": false,
      "t": 216272.90749999988,
      "d": 261.36385416667326,
      "v": 55
    },
    {
      "midi": 64,
      "hit": false,
      "t": 216272.90749999988,
      "d": 261.36385416667326,
      "v": 55
    },
    {
      "midi": 69,
      "hit": false,
      "t": 216272.90749999988,
      "d": 261.36385416667326,
      "v": 55
    },
    {
      "midi": 64,
      "hit": false,
      "t": 216284.27114584052,
      "d": 102.27281250001397,
      "v": 41
    },
    {
      "midi": 76,
      "hit": false,
      "t": 216284.27114584052,
      "d": 102.27281250001397,
      "v": 41
    },
    {
      "midi": 73,
      "hit": false,
      "t": 216397.90760416645,
      "d": 136.36374999998952,
      "v": 84
    },
    {
      "midi": 45,
      "hit": false,
      "t": 216409.27124999906,
      "d": 125.00010416665464,
      "v": 93
    },
    {
      "midi": 64,
      "hit": false,
      "t": 216420.63489584054,
      "d": 102.27281250001397,
      "v": 41
    },
    {
      "midi": 76,
      "hit": false,
      "t": 216420.63489584054,
      "d": 102.27281250001397,
      "v": 41
    },
    {
      "midi": 76,
      "hit": false,
      "t": 216534.27135416644,
      "d": 102.27281250001397,
      "v": 79
    },
    {
      "midi": 44,
      "hit": false,
      "t": 216545.63499999905,
      "d": 261.36385416667326,
      "v": 93
    },
    {
      "midi": 64,
      "hit": false,
      "t": 216545.6349999991,
      "d": 125.00010416665464,
      "v": 44
    },
    {
      "midi": 69,
      "hit": false,
      "t": 216545.6349999991,
      "d": 125.00010416665464,
      "v": 44
    },
    {
      "midi": 64,
      "hit": false,
      "t": 216545.6349999999,
      "d": 125.00010416665464,
      "v": 30
    },
    {
      "midi": 69,
      "hit": false,
      "t": 216545.6349999999,
      "d": 125.00010416665464,
      "v": 30
    },
    {
      "midi": 64,
      "hit": false,
      "t": 216556.99864584056,
      "d": 102.27281250001397,
      "v": 41
    },
    {
      "midi": 76,
      "hit": false,
      "t": 216556.99864584056,
      "d": 102.27281250001397,
      "v": 41
    },
    {
      "midi": 71,
      "hit": false,
      "t": 216670.63510416646,
      "d": 136.36374999998952,
      "v": 69
    },
    {
      "midi": 52,
      "hit": false,
      "t": 216681.9987499991,
      "d": 125.00010416665464,
      "v": 59
    },
    {
      "midi": 56,
      "hit": false,
      "t": 216681.9987499991,
      "d": 125.00010416665464,
      "v": 61
    },
    {
      "midi": 59,
      "hit": false,
      "t": 216681.9987499991,
      "d": 125.00010416665464,
      "v": 61
    },
    {
      "midi": 64,
      "hit": false,
      "t": 216681.9987499991,
      "d": 125.00010416665464,
      "v": 61
    },
    {
      "midi": 69,
      "hit": false,
      "t": 216681.9987499991,
      "d": 125.00010416665464,
      "v": 61
    },
    {
      "midi": 56,
      "hit": false,
      "t": 216681.99874999988,
      "d": 125.00010416665464,
      "v": 55
    },
    {
      "midi": 59,
      "hit": false,
      "t": 216681.99874999988,
      "d": 125.00010416665464,
      "v": 55
    },
    {
      "midi": 64,
      "hit": false,
      "t": 216681.99874999988,
      "d": 125.00010416665464,
      "v": 55
    },
    {
      "midi": 69,
      "hit": false,
      "t": 216681.99874999988,
      "d": 125.00010416665464,
      "v": 55
    },
    {
      "midi": 52,
      "hit": false,
      "t": 216681.99874999988,
      "d": 261.36385416664416,
      "v": 76
    },
    {
      "midi": 64,
      "hit": false,
      "t": 216693.36239584058,
      "d": 102.27281250001397,
      "v": 41
    },
    {
      "midi": 76,
      "hit": false,
      "t": 216693.36239584058,
      "d": 102.27281250001397,
      "v": 41
    },
    {
      "midi": 73,
      "hit": false,
      "t": 216806.99885416645,
      "d": 136.36374999998952,
      "v": 84
    },
    {
      "midi": 64,
      "hit": false,
      "t": 216829.7261458406,
      "d": 102.27281250001397,
      "v": 76
    },
    {
      "midi": 76,
      "hit": false,
      "t": 216829.7261458406,
      "d": 102.27281250001397,
      "v": 76
    },
    {
      "midi": 76,
      "hit": false,
      "t": 216943.36260416644,
      "d": 102.27281250001397,
      "v": 79
    },
    {
      "midi": 44,
      "hit": false,
      "t": 216954.72624999905,
      "d": 68.18187500000931,
      "v": 93
    },
    {
      "midi": 61,
      "hit": false,
      "t": 216954.72624999908,
      "d": 125.00010416665464,
      "v": 61
    },
    {
      "midi": 64,
      "hit": false,
      "t": 216954.72624999908,
      "d": 125.00010416665464,
      "v": 61
    },
    {
      "midi": 69,
      "hit": false,
      "t": 216954.72624999908,
      "d": 125.00010416665464,
      "v": 61
    },
    {
      "midi": 61,
      "hit": false,
      "t": 216954.72624999986,
      "d": 125.00010416665464,
      "v": 55
    },
    {
      "midi": 64,
      "hit": false,
      "t": 216954.72624999986,
      "d": 125.00010416665464,
      "v": 55
    },
    {
      "midi": 69,
      "hit": false,
      "t": 216954.72624999986,
      "d": 125.00010416665464,
      "v": 55
    },
    {
      "midi": 64,
      "hit": false,
      "t": 216966.08989584062,
      "d": 102.27281250001397,
      "v": 41
    },
    {
      "midi": 76,
      "hit": false,
      "t": 216966.08989584062,
      "d": 102.27281250001397,
      "v": 41
    },
    {
      "midi": 71,
      "hit": false,
      "t": 217079.72635416646,
      "d": 136.36374999998952,
      "v": 69
    },
    {
      "midi": 42,
      "hit": false,
      "t": 217091.08999999907,
      "d": 261.36385416667326,
      "v": 93
    },
    {
      "midi": 54,
      "hit": false,
      "t": 217091.08999999907,
      "d": 261.36385416667326,
      "v": 44
    },
    {
      "midi": 59,
      "hit": false,
      "t": 217091.08999999907,
      "d": 261.36385416667326,
      "v": 44
    },
    {
      "midi": 64,
      "hit": false,
      "t": 217091.08999999907,
      "d": 261.36385416667326,
      "v": 44
    },
    {
      "midi": 69,
      "hit": false,
      "t": 217091.08999999907,
      "d": 261.36385416667326,
      "v": 44
    },
    {
      "midi": 52,
      "hit": false,
      "t": 217091.08999999907,
      "d": 272.72750000000815,
      "v": 59
    },
    {
      "midi": 52,
      "hit": false,
      "t": 217091.08999999985,
      "d": 261.36385416667326,
      "v": 76
    },
    {
      "midi": 54,
      "hit": false,
      "t": 217091.08999999985,
      "d": 261.36385416667326,
      "v": 30
    },
    {
      "midi": 59,
      "hit": false,
      "t": 217091.08999999985,
      "d": 261.36385416667326,
      "v": 30
    },
    {
      "midi": 64,
      "hit": false,
      "t": 217091.08999999985,
      "d": 261.36385416667326,
      "v": 30
    },
    {
      "midi": 69,
      "hit": false,
      "t": 217091.08999999985,
      "d": 261.36385416667326,
      "v": 30
    },
    {
      "midi": 64,
      "hit": false,
      "t": 217102.45364584064,
      "d": 102.27281250001397,
      "v": 41
    },
    {
      "midi": 76,
      "hit": false,
      "t": 217102.45364584064,
      "d": 102.27281250001397,
      "v": 41
    },
    {
      "midi": 73,
      "hit": false,
      "t": 217216.09010416645,
      "d": 136.36374999998952,
      "v": 84
    },
    {
      "midi": 64,
      "hit": false,
      "t": 217238.81739584066,
      "d": 102.27281250001397,
      "v": 41
    },
    {
      "midi": 76,
      "hit": false,
      "t": 217238.81739584066,
      "d": 102.27281250001397,
      "v": 41
    },
    {
      "midi": 76,
      "hit": false,
      "t": 217352.45385416644,
      "d": 102.27281250001397,
      "v": 79
    },
    {
      "midi": 52,
      "hit": false,
      "t": 217363.81749999907,
      "d": 68.18187500000931,
      "v": 61
    },
    {
      "midi": 52,
      "hit": false,
      "t": 217363.81749999986,
      "d": 68.18187500000931,
      "v": 55
    },
    {
      "midi": 64,
      "hit": false,
      "t": 217375.18114584067,
      "d": 102.27281250001397,
      "v": 41
    },
    {
      "midi": 76,
      "hit": false,
      "t": 217375.18114584067,
      "d": 102.27281250001397,
      "v": 41
    },
    {
      "midi": 71,
      "hit": false,
      "t": 217488.81760416646,
      "d": 136.36374999998952,
      "v": 69
    },
    {
      "midi": 42,
      "hit": false,
      "t": 217500.18124999906,
      "d": 125.00010416665464,
      "v": 93
    },
    {
      "midi": 54,
      "hit": false,
      "t": 217500.1812499991,
      "d": 68.18187500000931,
      "v": 44
    },
    {
      "midi": 59,
      "hit": false,
      "t": 217500.1812499991,
      "d": 125.00010416668374,
      "v": 44
    },
    {
      "midi": 52,
      "hit": false,
      "t": 217500.1812499991,
      "d": 136.36375000001863,
      "v": 59
    },
    {
      "midi": 69,
      "hit": false,
      "t": 217500.1812499991,
      "d": 136.36375000001863,
      "v": 44
    },
    {
      "midi": 64,
      "hit": false,
      "t": 217500.1812499991,
      "d": 261.36385416667326,
      "v": 44
    },
    {
      "midi": 54,
      "hit": false,
      "t": 217500.18124999988,
      "d": 68.18187500000931,
      "v": 30
    },
    {
      "midi": 59,
      "hit": false,
      "t": 217500.18124999988,
      "d": 125.00010416668374,
      "v": 30
    },
    {
      "midi": 69,
      "hit": false,
      "t": 217500.18124999988,
      "d": 136.36375000001863,
      "v": 30
    },
    {
      "midi": 64,
      "hit": false,
      "t": 217500.18124999988,
      "d": 261.36385416667326,
      "v": 30
    },
    {
      "midi": 64,
      "hit": false,
      "t": 217511.5448958407,
      "d": 102.27281250001397,
      "v": 41
    },
    {
      "midi": 76,
      "hit": false,
      "t": 217511.5448958407,
      "d": 102.27281250001397,
      "v": 41
    },
    {
      "midi": 73,
      "hit": false,
      "t": 217625.18135416645,
      "d": 136.36374999998952,
      "v": 84
    },
    {
      "midi": 40,
      "hit": false,
      "t": 217636.54499999905,
      "d": 261.36385416667326,
      "v": 93
    },
    {
      "midi": 52,
      "hit": false,
      "t": 217636.5449999991,
      "d": 125.00010416665464,
      "v": 44
    },
    {
      "midi": 61,
      "hit": false,
      "t": 217636.5449999991,
      "d": 125.00010416665464,
      "v": 44
    },
    {
      "midi": 69,
      "hit": false,
      "t": 217636.5449999991,
      "d": 125.00010416665464,
      "v": 44
    },
    {
      "midi": 61,
      "hit": false,
      "t": 217636.5449999999,
      "d": 125.00010416665464,
      "v": 30
    },
    {
      "midi": 69,
      "hit": false,
      "t": 217636.5449999999,
      "d": 125.00010416665464,
      "v": 30
    },
    {
      "midi": 52,
      "hit": false,
      "t": 217636.5449999999,
      "d": 261.36385416664416,
      "v": 30
    },
    {
      "midi": 64,
      "hit": false,
      "t": 217647.9086458407,
      "d": 102.27281250001397,
      "v": 74
    },
    {
      "midi": 76,
      "hit": false,
      "t": 217647.9086458407,
      "d": 102.27281250001397,
      "v": 74
    },
    {
      "midi": 76,
      "hit": false,
      "t": 217761.54510416643,
      "d": 102.27281250001397,
      "v": 79
    },
    {
      "midi": 64,
      "hit": false,
      "t": 217784.27239584073,
      "d": 102.27281250001397,
      "v": 47
    },
    {
      "midi": 76,
      "hit": false,
      "t": 217784.27239584073,
      "d": 102.27281250001397,
      "v": 47
    },
    {
      "midi": 71,
      "hit": false,
      "t": 217897.90885416645,
      "d": 136.36374999998952,
      "v": 69
    },
    {
      "midi": 52,
      "hit": false,
      "t": 217909.2724999991,
      "d": 125.00010416665464,
      "v": 59
    },
    {
      "midi": 61,
      "hit": false,
      "t": 217909.2724999991,
      "d": 125.00010416665464,
      "v": 44
    },
    {
      "midi": 64,
      "hit": false,
      "t": 217909.2724999991,
      "d": 125.00010416665464,
      "v": 44
    },
    {
      "midi": 69,
      "hit": false,
      "t": 217909.2724999991,
      "d": 125.00010416665464,
      "v": 44
    },
    {
      "midi": 61,
      "hit": false,
      "t": 217909.27249999988,
      "d": 125.00010416665464,
      "v": 30
    },
    {
      "midi": 64,
      "hit": false,
      "t": 217909.27249999988,
      "d": 125.00010416665464,
      "v": 30
    },
    {
      "midi": 69,
      "hit": false,
      "t": 217909.27249999988,
      "d": 125.00010416665464,
      "v": 30
    },
    {
      "midi": 64,
      "hit": false,
      "t": 217920.63614584075,
      "d": 102.27281250001397,
      "v": 47
    },
    {
      "midi": 76,
      "hit": false,
      "t": 217920.63614584075,
      "d": 102.27281250001397,
      "v": 47
    },
    {
      "midi": 73,
      "hit": false,
      "t": 218034.27260416644,
      "d": 136.36374999998952,
      "v": 84
    },
    {
      "midi": 40,
      "hit": false,
      "t": 218045.63624999905,
      "d": 125.00010416665464,
      "v": 93
    },
    {
      "midi": 59,
      "hit": false,
      "t": 218045.63624999908,
      "d": 125.00010416665464,
      "v": 44
    },
    {
      "midi": 64,
      "hit": false,
      "t": 218045.63624999908,
      "d": 125.00010416665464,
      "v": 44
    },
    {
      "midi": 59,
      "hit": false,
      "t": 218045.63624999986,
      "d": 125.00010416665464,
      "v": 30
    },
    {
      "midi": 64,
      "hit": false,
      "t": 218045.63624999986,
      "d": 125.00010416665464,
      "v": 30
    },
    {
      "midi": 64,
      "hit": false,
      "t": 218056.99989584077,
      "d": 102.27281250001397,
      "v": 47
    },
    {
      "midi": 76,
      "hit": false,
      "t": 218056.99989584077,
      "d": 102.27281250001397,
      "v": 47
    },
    {
      "midi": 76,
      "hit": false,
      "t": 218170.63635416643,
      "d": 102.27281250001397,
      "v": 79
    },
    {
      "midi": 38,
      "hit": false,
      "t": 218181.99999999904,
      "d": 261.36385416667326,
      "v": 93
    },
    {
      "midi": 45,
      "hit": false,
      "t": 218181.99999999907,
      "d": 125.00010416665464,
      "v": 44
    },
    {
      "midi": 45,
      "hit": false,
      "t": 218181.99999999985,
      "d": 125.00010416665464,
      "v": 30
    },
    {
      "midi": 64,
      "hit": false,
      "t": 218193.3636458408,
      "d": 102.27281250001397,
      "v": 76
    },
    {
      "midi": 76,
      "hit": false,
      "t": 218193.3636458408,
      "d": 102.27281250001397,
      "v": 76
    },
    {
      "midi": 52,
      "hit": false,
      "t": 218318.36374999906,
      "d": 125.00010416665464,
      "v": 44
    },
    {
      "midi": 52,
      "hit": false,
      "t": 218318.36374999984,
      "d": 125.00010416665464,
      "v": 30
    },
    {
      "midi": 64,
      "hit": false,
      "t": 218329.7273958408,
      "d": 102.27281250001397,
      "v": 41
    },
    {
      "midi": 76,
      "hit": false,
      "t": 218329.7273958408,
      "d": 102.27281250001397,
      "v": 41
    },
    {
      "midi": 80,
      "hit": false,
      "t": 218443.36385416644,
      "d": 397.7276041666919,
      "v": 84
    },
    {
      "midi": 61,
      "hit": false,
      "t": 218454.72749999905,
      "d": 125.00010416665464,
      "v": 61
    },
    {
      "midi": 52,
      "hit": false,
      "t": 218454.72749999905,
      "d": 261.36385416664416,
      "v": 59
    },
    {
      "midi": 57,
      "hit": false,
      "t": 218454.72749999905,
      "d": 261.36385416664416,
      "v": 61
    },
    {
      "midi": 64,
      "hit": false,
      "t": 218454.72749999905,
      "d": 363.63666666665813,
      "v": 61
    },
    {
      "midi": 61,
      "hit": false,
      "t": 218454.72749999983,
      "d": 125.00010416665464,
      "v": 55
    },
    {
      "midi": 57,
      "hit": false,
      "t": 218454.72749999983,
      "d": 261.36385416664416,
      "v": 55
    },
    {
      "midi": 64,
      "hit": false,
      "t": 218454.72749999983,
      "d": 363.63666666665813,
      "v": 55
    },
    {
      "midi": 64,
      "hit": false,
      "t": 218466.09114584082,
      "d": 102.27281250001397,
      "v": 41
    },
    {
      "midi": 76,
      "hit": false,
      "t": 218466.09114584082,
      "d": 102.27281250001397,
      "v": 41
    },
    {
      "midi": 38,
      "hit": false,
      "t": 218591.09124999904,
      "d": 125.00010416665464,
      "v": 93
    },
    {
      "midi": 61,
      "hit": false,
      "t": 218591.09124999904,
      "d": 261.36385416667326,
      "v": 44
    },
    {
      "midi": 61,
      "hit": false,
      "t": 218591.09124999982,
      "d": 261.36385416667326,
      "v": 30
    },
    {
      "midi": 64,
      "hit": false,
      "t": 218602.45489584084,
      "d": 102.27281250001397,
      "v": 41
    },
    {
      "midi": 76,
      "hit": false,
      "t": 218602.45489584084,
      "d": 102.27281250001397,
      "v": 41
    },
    {
      "midi": 37,
      "hit": false,
      "t": 218727.45499999903,
      "d": 261.36385416667326,
      "v": 93
    },
    {
      "midi": 64,
      "hit": false,
      "t": 218738.81864584086,
      "d": 102.27281250001397,
      "v": 41
    },
    {
      "midi": 76,
      "hit": false,
      "t": 218738.81864584086,
      "d": 102.27281250001397,
      "v": 41
    },
    {
      "midi": 78,
      "hit": false,
      "t": 218852.45510416647,
      "d": 397.7276041666628,
      "v": 84
    },
    {
      "midi": 52,
      "hit": false,
      "t": 218863.81874999905,
      "d": 125.00010416665464,
      "v": 59
    },
    {
      "midi": 59,
      "hit": false,
      "t": 218863.81874999905,
      "d": 125.00010416665464,
      "v": 61
    },
    {
      "midi": 62,
      "hit": false,
      "t": 218863.81874999905,
      "d": 125.00010416665464,
      "v": 61
    },
    {
      "midi": 56,
      "hit": false,
      "t": 218863.81874999905,
      "d": 261.36385416664416,
      "v": 61
    },
    {
      "midi": 64,
      "hit": false,
      "t": 218863.81874999905,
      "d": 318.1820833333186,
      "v": 61
    },
    {
      "midi": 59,
      "hit": false,
      "t": 218863.81874999983,
      "d": 125.00010416665464,
      "v": 55
    },
    {
      "midi": 62,
      "hit": false,
      "t": 218863.81874999983,
      "d": 125.00010416665464,
      "v": 55
    },
    {
      "midi": 56,
      "hit": false,
      "t": 218863.81874999983,
      "d": 261.36385416664416,
      "v": 55
    },
    {
      "midi": 64,
      "hit": false,
      "t": 218863.81874999983,
      "d": 318.1820833333186,
      "v": 55
    },
    {
      "midi": 64,
      "hit": false,
      "t": 218875.18239584088,
      "d": 102.27281250001397,
      "v": 41
    },
    {
      "midi": 76,
      "hit": false,
      "t": 218875.18239584088,
      "d": 102.27281250001397,
      "v": 41
    },
    {
      "midi": 59,
      "hit": false,
      "t": 219000.18249999903,
      "d": 125.00010416665464,
      "v": 44
    },
    {
      "midi": 59,
      "hit": false,
      "t": 219000.18249999982,
      "d": 125.00010416665464,
      "v": 30
    },
    {
      "midi": 64,
      "hit": false,
      "t": 219011.5461458409,
      "d": 102.27281250001397,
      "v": 76
    },
    {
      "midi": 76,
      "hit": false,
      "t": 219011.5461458409,
      "d": 102.27281250001397,
      "v": 76
    },
    {
      "midi": 37,
      "hit": false,
      "t": 219136.54624999902,
      "d": 125.00010416665464,
      "v": 93
    },
    {
      "midi": 57,
      "hit": false,
      "t": 219136.54624999902,
      "d": 125.00010416668374,
      "v": 44
    },
    {
      "midi": 59,
      "hit": false,
      "t": 219136.54624999902,
      "d": 125.00010416668374,
      "v": 44
    },
    {
      "midi": 57,
      "hit": false,
      "t": 219136.5462499998,
      "d": 125.00010416668374,
      "v": 30
    },
    {
      "midi": 59,
      "hit": false,
      "t": 219136.5462499998,
      "d": 125.00010416668374,
      "v": 30
    },
    {
      "midi": 64,
      "hit": false,
      "t": 219147.90989584092,
      "d": 102.27281250001397,
      "v": 41
    },
    {
      "midi": 76,
      "hit": false,
      "t": 219147.90989584092,
      "d": 102.27281250001397,
      "v": 41
    },
    {
      "midi": 76,
      "hit": false,
      "t": 219261.54635416646,
      "d": 147.7273958333244,
      "v": 84
    },
    {
      "midi": 35,
      "hit": false,
      "t": 219272.909999999,
      "d": 125.00010416665464,
      "v": 93
    },
    {
      "midi": 64,
      "hit": false,
      "t": 219272.90999999904,
      "d": 204.54562499999884,
      "v": 61
    },
    {
      "midi": 54,
      "hit": false,
      "t": 219272.90999999904,
      "d": 261.36385416667326,
      "v": 61
    },
    {
      "midi": 57,
      "hit": false,
      "t": 219272.90999999904,
      "d": 261.36385416667326,
      "v": 61
    },
    {
      "midi": 64,
      "hit": false,
      "t": 219272.90999999983,
      "d": 204.54562499999884,
      "v": 55
    },
    {
      "midi": 54,
      "hit": false,
      "t": 219272.90999999983,
      "d": 261.36385416667326,
      "v": 35
    },
    {
      "midi": 57,
      "hit": false,
      "t": 219272.90999999983,
      "d": 261.36385416667326,
      "v": 55
    },
    {
      "midi": 64,
      "hit": false,
      "t": 219284.27364584093,
      "d": 102.27281250001397,
      "v": 41
    },
    {
      "midi": 76,
      "hit": false,
      "t": 219284.27364584093,
      "d": 102.27281250001397,
      "v": 41
    },
    {
      "midi": 78,
      "hit": false,
      "t": 219397.91010416645,
      "d": 261.36385416667326,
      "v": 84
    },
    {
      "midi": 64,
      "hit": false,
      "t": 219420.63739584095,
      "d": 102.27281250001397,
      "v": 41
    },
    {
      "midi": 76,
      "hit": false,
      "t": 219420.63739584095,
      "d": 102.27281250001397,
      "v": 41
    },
    {
      "midi": 35,
      "hit": false,
      "t": 219545.637499999,
      "d": 261.36385416667326,
      "v": 93
    },
    {
      "midi": 56,
      "hit": false,
      "t": 219545.63749999905,
      "d": 125.00010416665464,
      "v": 44
    },
    {
      "midi": 59,
      "hit": false,
      "t": 219545.63749999905,
      "d": 125.00010416665464,
      "v": 44
    },
    {
      "midi": 64,
      "hit": false,
      "t": 219545.63749999905,
      "d": 534.0913541666232,
      "v": 44
    },
    {
      "midi": 56,
      "hit": false,
      "t": 219545.63749999984,
      "d": 125.00010416665464,
      "v": 30
    },
    {
      "midi": 59,
      "hit": false,
      "t": 219545.63749999984,
      "d": 125.00010416665464,
      "v": 30
    },
    {
      "midi": 64,
      "hit": false,
      "t": 219545.63749999984,
      "d": 534.0913541666232,
      "v": 30
    },
    {
      "midi": 64,
      "hit": false,
      "t": 219557.00114584097,
      "d": 102.27281250001397,
      "v": 41
    },
    {
      "midi": 76,
      "hit": false,
      "t": 219557.00114584097,
      "d": 102.27281250001397,
      "v": 41
    },
    {
      "midi": 76,
      "hit": false,
      "t": 219670.63760416646,
      "d": 2068.183541666658,
      "v": 84
    },
    {
      "midi": 56,
      "hit": false,
      "t": 219682.00124999904,
      "d": 125.00010416665464,
      "v": 44
    },
    {
      "midi": 59,
      "hit": false,
      "t": 219682.00124999904,
      "d": 125.00010416665464,
      "v": 44
    },
    {
      "midi": 56,
      "hit": false,
      "t": 219682.00124999983,
      "d": 125.00010416665464,
      "v": 30
    },
    {
      "midi": 59,
      "hit": false,
      "t": 219682.00124999983,
      "d": 125.00010416665464,
      "v": 30
    },
    {
      "midi": 64,
      "hit": false,
      "t": 219693.364895841,
      "d": 102.27281250001397,
      "v": 41
    },
    {
      "midi": 76,
      "hit": false,
      "t": 219693.364895841,
      "d": 102.27281250001397,
      "v": 41
    },
    {
      "midi": 37,
      "hit": false,
      "t": 219818.364999999,
      "d": 261.36385416667326,
      "v": 93
    },
    {
      "midi": 56,
      "hit": false,
      "t": 219818.36499999903,
      "d": 125.00010416665464,
      "v": 61
    },
    {
      "midi": 59,
      "hit": false,
      "t": 219818.36499999903,
      "d": 125.00010416665464,
      "v": 61
    },
    {
      "midi": 56,
      "hit": false,
      "t": 219818.36499999982,
      "d": 125.00010416665464,
      "v": 55
    },
    {
      "midi": 59,
      "hit": false,
      "t": 219818.36499999982,
      "d": 125.00010416665464,
      "v": 55
    },
    {
      "midi": 64,
      "hit": false,
      "t": 219829.728645841,
      "d": 102.27281250001397,
      "v": 74
    },
    {
      "midi": 76,
      "hit": false,
      "t": 219829.728645841,
      "d": 102.27281250001397,
      "v": 74
    },
    {
      "midi": 56,
      "hit": false,
      "t": 219954.72874999902,
      "d": 125.00010416665464,
      "v": 44
    },
    {
      "midi": 59,
      "hit": false,
      "t": 219954.72874999902,
      "d": 125.00010416665464,
      "v": 44
    },
    {
      "midi": 56,
      "hit": false,
      "t": 219954.7287499998,
      "d": 125.00010416665464,
      "v": 30
    },
    {
      "midi": 59,
      "hit": false,
      "t": 219954.7287499998,
      "d": 125.00010416665464,
      "v": 30
    },
    {
      "midi": 64,
      "hit": false,
      "t": 219966.09239584103,
      "d": 102.27281250001397,
      "v": 47
    },
    {
      "midi": 76,
      "hit": false,
      "t": 219966.09239584103,
      "d": 102.27281250001397,
      "v": 47
    },
    {
      "midi": 33,
      "hit": false,
      "t": 220091.092499999,
      "d": 261.36385416667326,
      "v": 93
    },
    {
      "midi": 52,
      "hit": false,
      "t": 220091.092499999,
      "d": 125.00010416665464,
      "v": 44
    },
    {
      "midi": 56,
      "hit": false,
      "t": 220091.092499999,
      "d": 125.00010416665464,
      "v": 44
    },
    {
      "midi": 52,
      "hit": false,
      "t": 220091.0924999998,
      "d": 261.36385416667326,
      "v": 76
    },
    {
      "midi": 56,
      "hit": false,
      "t": 220091.0924999998,
      "d": 261.36385416667326,
      "v": 76
    },
    {
      "midi": 59,
      "hit": false,
      "t": 220091.0924999998,
      "d": 261.36385416667326,
      "v": 76
    },
    {
      "midi": 64,
      "hit": false,
      "t": 220091.0924999998,
      "d": 261.36385416667326,
      "v": 76
    },
    {
      "midi": 64,
      "hit": false,
      "t": 220102.45614584105,
      "d": 102.27281250001397,
      "v": 47
    },
    {
      "midi": 76,
      "hit": false,
      "t": 220102.45614584105,
      "d": 102.27281250001397,
      "v": 47
    },
    {
      "midi": 52,
      "hit": false,
      "t": 220227.456249999,
      "d": 125.00010416665464,
      "v": 44
    },
    {
      "midi": 56,
      "hit": false,
      "t": 220227.456249999,
      "d": 125.00010416665464,
      "v": 44
    },
    {
      "midi": 64,
      "hit": false,
      "t": 220238.81989584106,
      "d": 136.36374999998952,
      "v": 47
    },
    {
      "midi": 54,
      "hit": false,
      "t": 220363.819999999,
      "d": 113.63645833334886,
      "v": 74
    },
    {
      "midi": 59,
      "hit": false,
      "t": 220363.819999999,
      "d": 4329.549062500009,
      "v": 74
    },
    {
      "midi": 40,
      "hit": false,
      "t": 220363.819999999,
      "d": 4340.912708333344,
      "v": 74
    },
    {
      "midi": 64,
      "hit": false,
      "t": 220363.819999999,
      "d": 4340.912708333344,
      "v": 74
    },
    {
      "midi": 40,
      "hit": false,
      "t": 220363.81999999902,
      "d": 4227.276249999995,
      "v": 93
    },
    {
      "midi": 54,
      "hit": false,
      "t": 220363.8199999998,
      "d": 113.63645833334886,
      "v": 76
    },
    {
      "midi": 59,
      "hit": false,
      "t": 220363.8199999998,
      "d": 4227.276250000024,
      "v": 72
    },
    {
      "midi": 47,
      "hit": false,
      "t": 220363.8199999998,
      "d": 4295.458125000034,
      "v": 76
    },
    {
      "midi": 40,
      "hit": false,
      "t": 220363.8199999998,
      "d": 4363.640000000043,
      "v": 76
    },
    {
      "midi": 64,
      "hit": false,
      "t": 220363.8199999998,
      "d": 4363.640000000043,
      "v": 72
    },
    {
      "midi": 54,
      "hit": false,
      "t": 220409.27458333364,
      "d": 113.63645833334886,
      "v": 72
    },
    {
      "midi": 59,
      "hit": false,
      "t": 220409.27458333364,
      "d": 4272.730833333335,
      "v": 72
    },
    {
      "midi": 64,
      "hit": false,
      "t": 220409.27458333364,
      "d": 4272.730833333335,
      "v": 72
    },
    {
      "midi": 40,
      "hit": false,
      "t": 220409.27458333364,
      "d": 4295.458125000005,
      "v": 72
    },
    {
      "midi": 56,
      "hit": false,
      "t": 220454.72916666567,
      "d": 4250.003541666665,
      "v": 73
    },
    {
      "midi": 56,
      "hit": false,
      "t": 220454.72916666648,
      "d": 4272.730833333364,
      "v": 67
    },
    {
      "midi": 56,
      "hit": false,
      "t": 220500.18375000032,
      "d": 4181.821666666656,
      "v": 72
    }
  ]
}