{
  "jsonPath": "Rock/Progressive Bluegrass/Nickel Creek/jealous-of-the-moon.json",
  "path": "Rock\\Progressive Bluegrass\\Nickel Creek\\Jealous Of The Moon.mid",
  "name": "Jealous Of The Moon",
  "difficulty": "Advanced",
  "bpm": 72.00002880001152,
  "notes": [
    {
      "midi": 55,
      "hit": false,
      "t": 0,
      "d": 1041.66625,
      "v": 66
    },
    {
      "midi": 48,
      "hit": false,
      "t": 0,
      "d": 3124.998749999999,
      "v": 74
    },
    {
      "midi": 60,
      "hit": false,
      "t": 0,
      "d": 3333.3319999999985,
      "v": 65
    },
    {
      "midi": 43,
      "hit": false,
      "t": 208.33325,
      "d": 3090.2765416666653,
      "v": 66
    },
    {
      "midi": 52,
      "hit": false,
      "t": 416.6665,
      "d": 2465.2767916666658,
      "v": 58
    },
    {
      "midi": 62,
      "hit": false,
      "t": 624.99975,
      "d": 1631.9437916666661,
      "v": 59
    },
    {
      "midi": 55,
      "hit": false,
      "t": 1041.66625,
      "d": 1006.9440416666664,
      "v": 19
    },
    {
      "midi": 64,
      "hit": false,
      "t": 1249.9995,
      "d": 1215.2772916666659,
      "v": 70
    },
    {
      "midi": 55,
      "hit": false,
      "t": 2083.3324999999995,
      "d": 798.610791666666,
      "v": 24
    },
    {
      "midi": 62,
      "hit": false,
      "t": 2291.665749999999,
      "d": 381.94429166666623,
      "v": 5
    },
    {
      "midi": 67,
      "hit": false,
      "t": 2499.998999999999,
      "d": 798.6107916666665,
      "v": 50
    },
    {
      "midi": 55,
      "hit": false,
      "t": 2916.6654999999987,
      "d": 381.9442916666667,
      "v": 41
    },
    {
      "midi": 59,
      "hit": false,
      "t": 3333.3319999999985,
      "d": 590.2775416666664,
      "v": 29
    },
    {
      "midi": 48,
      "hit": false,
      "t": 3333.3319999999985,
      "d": 1423.610541666667,
      "v": 41
    },
    {
      "midi": 64,
      "hit": false,
      "t": 3333.3319999999985,
      "d": 2673.6100416666677,
      "v": 53
    },
    {
      "midi": 55,
      "hit": false,
      "t": 3749.9984999999983,
      "d": 1215.2772916666668,
      "v": 54
    },
    {
      "midi": 67,
      "hit": false,
      "t": 3958.331749999998,
      "d": 2256.943541666669,
      "v": 70
    },
    {
      "midi": 59,
      "hit": false,
      "t": 4374.998249999998,
      "d": 173.611041666667,
      "v": 27
    },
    {
      "midi": 60,
      "hit": false,
      "t": 4583.331499999998,
      "d": 798.610791666667,
      "v": 51
    },
    {
      "midi": 48,
      "hit": false,
      "t": 4999.997999999999,
      "d": 1631.9437916666693,
      "v": 60
    },
    {
      "midi": 59,
      "hit": false,
      "t": 5416.664499999999,
      "d": 1006.9440416666685,
      "v": 48
    },
    {
      "midi": 55,
      "hit": false,
      "t": 5833.330999999999,
      "d": 798.6107916666688,
      "v": 35
    },
    {
      "midi": 64,
      "hit": false,
      "t": 6041.66425,
      "d": 381.9442916666676,
      "v": 47
    },
    {
      "midi": 67,
      "hit": false,
      "t": 6249.9975,
      "d": 173.611041666667,
      "v": 46
    },
    {
      "midi": 71,
      "hit": false,
      "t": 6458.330750000001,
      "d": 173.611041666667,
      "v": 71
    },
    {
      "midi": 69,
      "hit": false,
      "t": 6666.664000000002,
      "d": 1215.2772916666663,
      "v": 70
    },
    {
      "midi": 72,
      "hit": false,
      "t": 6666.664000000002,
      "d": 1215.2772916666663,
      "v": 66
    },
    {
      "midi": 64,
      "hit": false,
      "t": 6666.664000000002,
      "d": 1631.9437916666657,
      "v": 46
    },
    {
      "midi": 42,
      "hit": false,
      "t": 6666.664000000002,
      "d": 2673.610041666664,
      "v": 58
    },
    {
      "midi": 48,
      "hit": false,
      "t": 7083.330500000002,
      "d": 2673.610041666665,
      "v": 57
    },
    {
      "midi": 57,
      "hit": false,
      "t": 7291.6637500000015,
      "d": 2673.610041666665,
      "v": 63
    },
    {
      "midi": 67,
      "hit": false,
      "t": 7916.6635000000015,
      "d": 381.9442916666658,
      "v": 58
    },
    {
      "midi": 71,
      "hit": false,
      "t": 7916.6635000000015,
      "d": 381.9442916666658,
      "v": 66
    },
    {
      "midi": 66,
      "hit": false,
      "t": 8333.33,
      "d": 798.610791666666,
      "v": 59
    },
    {
      "midi": 69,
      "hit": false,
      "t": 8333.33,
      "d": 1666.6659999999993,
      "v": 56
    },
    {
      "midi": 60,
      "hit": false,
      "t": 8749.9965,
      "d": 1215.2772916666672,
      "v": 51
    },
    {
      "midi": 64,
      "hit": false,
      "t": 9166.662999999999,
      "d": 798.6107916666679,
      "v": 58
    },
    {
      "midi": 42,
      "hit": false,
      "t": 9583.3295,
      "d": 381.9442916666667,
      "v": 58
    },
    {
      "midi": 66,
      "hit": false,
      "t": 9583.3295,
      "d": 381.9442916666667,
      "v": 22
    },
    {
      "midi": 55,
      "hit": false,
      "t": 9999.996,
      "d": 1423.610541666665,
      "v": 66
    },
    {
      "midi": 58,
      "hit": false,
      "t": 9999.996,
      "d": 1423.610541666665,
      "v": 56
    },
    {
      "midi": 63,
      "hit": false,
      "t": 9999.996,
      "d": 1631.9437916666648,
      "v": 56
    },
    {
      "midi": 48,
      "hit": false,
      "t": 10416.662499999999,
      "d": 173.611041666667,
      "v": 38
    },
    {
      "midi": 41,
      "hit": false,
      "t": 10624.995749999998,
      "d": 590.2775416666664,
      "v": 90
    },
    {
      "midi": 51,
      "hit": false,
      "t": 11041.662249999998,
      "d": 381.9442916666667,
      "v": 58
    },
    {
      "midi": 58,
      "hit": false,
      "t": 11458.328749999997,
      "d": 173.611041666667,
      "v": 58
    },
    {
      "midi": 41,
      "hit": false,
      "t": 11666.661999999997,
      "d": 1423.610541666665,
      "v": 65
    },
    {
      "midi": 48,
      "hit": false,
      "t": 11666.661999999997,
      "d": 1423.610541666665,
      "v": 70
    },
    {
      "midi": 57,
      "hit": false,
      "t": 11666.661999999997,
      "d": 1631.9437916666648,
      "v": 71
    },
    {
      "midi": 53,
      "hit": false,
      "t": 12083.328499999996,
      "d": 1215.2772916666654,
      "v": 30
    },
    {
      "midi": 65,
      "hit": false,
      "t": 12291.661749999996,
      "d": 798.610791666666,
      "v": 48
    },
    {
      "midi": 79,
      "hit": false,
      "t": 15833.327,
      "d": 208.33324999999968,
      "v": 89
    },
    {
      "midi": 67,
      "hit": false,
      "t": 15833.327,
      "d": 208.33324999999968,
      "v": 100
    },
    {
      "midi": 81,
      "hit": false,
      "t": 16041.660249999999,
      "d": 208.33324999999968,
      "v": 89
    },
    {
      "midi": 69,
      "hit": false,
      "t": 16041.660249999999,
      "d": 208.33324999999968,
      "v": 100
    },
    {
      "midi": 79,
      "hit": false,
      "t": 16249.993499999999,
      "d": 416.6665000000012,
      "v": 95
    },
    {
      "midi": 67,
      "hit": false,
      "t": 16249.993499999999,
      "d": 416.6665000000012,
      "v": 99
    },
    {
      "midi": 91,
      "hit": false,
      "t": 16666.66,
      "d": 416.66649999999936,
      "v": 99
    },
    {
      "midi": 79,
      "hit": false,
      "t": 16666.66,
      "d": 416.66649999999936,
      "v": 99
    },
    {
      "midi": 88,
      "hit": false,
      "t": 17083.3265,
      "d": 1666.666000000001,
      "v": 99
    },
    {
      "midi": 76,
      "hit": false,
      "t": 17083.3265,
      "d": 1666.666000000001,
      "v": 99
    },
    {
      "midi": 86,
      "hit": false,
      "t": 18749.9925,
      "d": 208.33324999999968,
      "v": 90
    },
    {
      "midi": 74,
      "hit": false,
      "t": 18749.9925,
      "d": 208.33324999999968,
      "v": 99
    },
    {
      "midi": 86,
      "hit": false,
      "t": 18958.32575,
      "d": 208.33324999999968,
      "v": 96
    },
    {
      "midi": 74,
      "hit": false,
      "t": 18958.32575,
      "d": 208.33324999999968,
      "v": 99
    },
    {
      "midi": 86,
      "hit": false,
      "t": 19166.659,
      "d": 416.66649999999936,
      "v": 99
    },
    {
      "midi": 74,
      "hit": false,
      "t": 19166.659,
      "d": 416.66649999999936,
      "v": 99
    },
    {
      "midi": 88,
      "hit": false,
      "t": 19583.3255,
      "d": 416.66649999999936,
      "v": 99
    },
    {
      "midi": 76,
      "hit": false,
      "t": 19583.3255,
      "d": 416.66649999999936,
      "v": 99
    },
    {
      "midi": 86,
      "hit": false,
      "t": 19999.992,
      "d": 416.66649999999936,
      "v": 99
    },
    {
      "midi": 74,
      "hit": false,
      "t": 19999.992,
      "d": 416.66649999999936,
      "v": 99
    },
    {
      "midi": 84,
      "hit": false,
      "t": 20416.658499999998,
      "d": 2083.3325000000004,
      "v": 99
    },
    {
      "midi": 72,
      "hit": false,
      "t": 20416.658499999998,
      "d": 2083.3325000000004,
      "v": 99
    },
    {
      "midi": 84,
      "hit": false,
      "t": 22499.990999999998,
      "d": 208.33324999999968,
      "v": 99
    },
    {
      "midi": 72,
      "hit": false,
      "t": 22499.990999999998,
      "d": 208.33324999999968,
      "v": 99
    },
    {
      "midi": 86,
      "hit": false,
      "t": 22708.324249999998,
      "d": 208.33324999999968,
      "v": 99
    },
    {
      "midi": 74,
      "hit": false,
      "t": 22708.324249999998,
      "d": 208.33324999999968,
      "v": 99
    },
    {
      "midi": 84,
      "hit": false,
      "t": 22916.657499999998,
      "d": 416.66649999999936,
      "v": 99
    },
    {
      "midi": 72,
      "hit": false,
      "t": 22916.657499999998,
      "d": 416.66649999999936,
      "v": 99
    },
    {
      "midi": 96,
      "hit": false,
      "t": 23333.323999999997,
      "d": 416.66649999999936,
      "v": 99
    },
    {
      "midi": 84,
      "hit": false,
      "t": 23333.323999999997,
      "d": 416.66649999999936,
      "v": 99
    },
    {
      "midi": 93,
      "hit": false,
      "t": 23749.990499999996,
      "d": 1666.666000000001,
      "v": 92
    },
    {
      "midi": 81,
      "hit": false,
      "t": 23749.990499999996,
      "d": 1666.666000000001,
      "v": 99
    },
    {
      "midi": 93,
      "hit": false,
      "t": 25416.656499999997,
      "d": 208.33324999999968,
      "v": 80
    },
    {
      "midi": 81,
      "hit": false,
      "t": 25416.656499999997,
      "d": 208.33324999999968,
      "v": 99
    },
    {
      "midi": 93,
      "hit": false,
      "t": 25624.989749999997,
      "d": 208.33324999999968,
      "v": 82
    },
    {
      "midi": 81,
      "hit": false,
      "t": 25624.989749999997,
      "d": 208.33324999999968,
      "v": 99
    },
    {
      "midi": 93,
      "hit": false,
      "t": 25833.322999999997,
      "d": 208.33324999999968,
      "v": 87
    },
    {
      "midi": 81,
      "hit": false,
      "t": 25833.322999999997,
      "d": 208.33324999999968,
      "v": 99
    },
    {
      "midi": 93,
      "hit": false,
      "t": 26041.656249999996,
      "d": 208.33324999999968,
      "v": 94
    },
    {
      "midi": 81,
      "hit": false,
      "t": 26041.656249999996,
      "d": 208.33324999999968,
      "v": 99
    },
    {
      "midi": 96,
      "hit": false,
      "t": 26249.989499999996,
      "d": 416.66649999999936,
      "v": 99
    },
    {
      "midi": 84,
      "hit": false,
      "t": 26249.989499999996,
      "d": 416.66649999999936,
      "v": 99
    },
    {
      "midi": 93,
      "hit": false,
      "t": 26666.655999999995,
      "d": 416.66649999999936,
      "v": 99
    },
    {
      "midi": 81,
      "hit": false,
      "t": 26666.655999999995,
      "d": 416.66649999999936,
      "v": 99
    },
    {
      "midi": 91,
      "hit": false,
      "t": 27083.322499999995,
      "d": 2083.3325000000004,
      "v": 99
    },
    {
      "midi": 79,
      "hit": false,
      "t": 27083.322499999995,
      "d": 2083.3325000000004,
      "v": 99
    },
    {
      "midi": 84,
      "hit": false,
      "t": 29166.654999999995,
      "d": 208.33324999999968,
      "v": 99
    },
    {
      "midi": 72,
      "hit": false,
      "t": 29166.654999999995,
      "d": 208.33324999999968,
      "v": 99
    },
    {
      "midi": 86,
      "hit": false,
      "t": 29374.988249999995,
      "d": 208.33324999999968,
      "v": 99
    },
    {
      "midi": 74,
      "hit": false,
      "t": 29374.988249999995,
      "d": 208.33324999999968,
      "v": 99
    },
    {
      "midi": 84,
      "hit": false,
      "t": 29583.321499999995,
      "d": 416.66649999999936,
      "v": 99
    },
    {
      "midi": 72,
      "hit": false,
      "t": 29583.321499999995,
      "d": 416.66649999999936,
      "v": 99
    },
    {
      "midi": 96,
      "hit": false,
      "t": 29999.987999999994,
      "d": 416.66649999999936,
      "v": 99
    },
    {
      "midi": 84,
      "hit": false,
      "t": 29999.987999999994,
      "d": 416.66649999999936,
      "v": 99
    },
    {
      "midi": 93,
      "hit": false,
      "t": 30416.654499999993,
      "d": 1666.666000000001,
      "v": 99
    },
    {
      "midi": 81,
      "hit": false,
      "t": 30416.654499999993,
      "d": 1666.666000000001,
      "v": 99
    },
    {
      "midi": 93,
      "hit": false,
      "t": 32083.320499999994,
      "d": 138.88883333333433,
      "v": 76
    },
    {
      "midi": 81,
      "hit": false,
      "t": 32083.320499999994,
      "d": 138.88883333333433,
      "v": 80
    },
    {
      "midi": 93,
      "hit": false,
      "t": 32222.20933333333,
      "d": 138.88883333333433,
      "v": 85
    },
    {
      "midi": 81,
      "hit": false,
      "t": 32222.20933333333,
      "d": 138.88883333333433,
      "v": 85
    },
    {
      "midi": 93,
      "hit": false,
      "t": 32361.098166666663,
      "d": 138.88883333333433,
      "v": 99
    },
    {
      "midi": 81,
      "hit": false,
      "t": 32361.098166666663,
      "d": 138.88883333333433,
      "v": 88
    },
    {
      "midi": 93,
      "hit": false,
      "t": 32499.986999999997,
      "d": 208.33324999999968,
      "v": 99
    },
    {
      "midi": 81,
      "hit": false,
      "t": 32499.986999999997,
      "d": 208.33324999999968,
      "v": 95
    },
    {
      "midi": 93,
      "hit": false,
      "t": 32708.320249999997,
      "d": 208.33325000000332,
      "v": 99
    },
    {
      "midi": 81,
      "hit": false,
      "t": 32708.320249999997,
      "d": 208.33325000000332,
      "v": 100
    },
    {
      "midi": 88,
      "hit": false,
      "t": 32916.6535,
      "d": 208.33325000000332,
      "v": 99
    },
    {
      "midi": 76,
      "hit": false,
      "t": 32916.6535,
      "d": 208.33325000000332,
      "v": 99
    },
    {
      "midi": 88,
      "hit": false,
      "t": 33124.986750000004,
      "d": 208.33325000000332,
      "v": 99
    },
    {
      "midi": 76,
      "hit": false,
      "t": 33124.986750000004,
      "d": 208.33325000000332,
      "v": 99
    },
    {
      "midi": 91,
      "hit": false,
      "t": 33333.32000000001,
      "d": 416.66649999999936,
      "v": 99
    },
    {
      "midi": 79,
      "hit": false,
      "t": 33333.32000000001,
      "d": 416.66649999999936,
      "v": 99
    },
    {
      "midi": 93,
      "hit": false,
      "t": 33749.986500000006,
      "d": 833.3329999999987,
      "v": 99
    },
    {
      "midi": 81,
      "hit": false,
      "t": 33749.986500000006,
      "d": 833.3329999999987,
      "v": 99
    },
    {
      "midi": 88,
      "hit": false,
      "t": 34583.319500000005,
      "d": 208.33325000000332,
      "v": 99
    },
    {
      "midi": 76,
      "hit": false,
      "t": 34583.319500000005,
      "d": 208.33325000000332,
      "v": 99
    },
    {
      "midi": 86,
      "hit": false,
      "t": 34791.65275000001,
      "d": 208.33325000000332,
      "v": 99
    },
    {
      "midi": 74,
      "hit": false,
      "t": 34791.65275000001,
      "d": 208.33325000000332,
      "v": 99
    },
    {
      "midi": 84,
      "hit": false,
      "t": 34999.98600000001,
      "d": 833.3329999999987,
      "v": 99
    },
    {
      "midi": 84,
      "hit": false,
      "t": 35833.31900000001,
      "d": 208.33325000000332,
      "v": 99
    },
    {
      "midi": 72,
      "hit": false,
      "t": 35833.31900000001,
      "d": 208.33325000000332,
      "v": 99
    },
    {
      "midi": 86,
      "hit": false,
      "t": 36041.652250000014,
      "d": 208.33325000000332,
      "v": 99
    },
    {
      "midi": 74,
      "hit": false,
      "t": 36041.652250000014,
      "d": 208.33325000000332,
      "v": 99
    },
    {
      "midi": 88,
      "hit": false,
      "t": 36249.98550000002,
      "d": 416.66649999999936,
      "v": 99
    },
    {
      "midi": 76,
      "hit": false,
      "t": 36249.98550000002,
      "d": 416.66649999999936,
      "v": 99
    },
    {
      "midi": 81,
      "hit": false,
      "t": 36666.65200000002,
      "d": 833.3329999999987,
      "v": 99
    },
    {
      "midi": 69,
      "hit": false,
      "t": 36666.65200000002,
      "d": 833.3329999999987,
      "v": 99
    },
    {
      "midi": 84,
      "hit": false,
      "t": 37499.985000000015,
      "d": 208.33325000000332,
      "v": 99
    },
    {
      "midi": 72,
      "hit": false,
      "t": 37499.985000000015,
      "d": 208.33325000000332,
      "v": 99
    },
    {
      "midi": 86,
      "hit": false,
      "t": 37708.31825000002,
      "d": 208.33325000000332,
      "v": 99
    },
    {
      "midi": 74,
      "hit": false,
      "t": 37708.31825000002,
      "d": 208.33325000000332,
      "v": 99
    },
    {
      "midi": 88,
      "hit": false,
      "t": 37916.65150000002,
      "d": 208.33325000000332,
      "v": 99
    },
    {
      "midi": 76,
      "hit": false,
      "t": 37916.65150000002,
      "d": 208.33325000000332,
      "v": 99
    },
    {
      "midi": 81,
      "hit": false,
      "t": 38124.984750000025,
      "d": 624.9997500000027,
      "v": 99
    },
    {
      "midi": 69,
      "hit": false,
      "t": 38124.984750000025,
      "d": 624.9997500000027,
      "v": 99
    },
    {
      "midi": 88,
      "hit": false,
      "t": 38749.98450000003,
      "d": 416.66649999999936,
      "v": 99
    },
    {
      "midi": 76,
      "hit": false,
      "t": 38749.98450000003,
      "d": 416.66649999999936,
      "v": 99
    },
    {
      "midi": 86,
      "hit": false,
      "t": 39166.65100000003,
      "d": 416.66649999999936,
      "v": 99
    },
    {
      "midi": 74,
      "hit": false,
      "t": 39166.65100000003,
      "d": 416.66649999999936,
      "v": 99
    },
    {
      "midi": 84,
      "hit": false,
      "t": 39583.31750000003,
      "d": 416.66649999999936,
      "v": 99
    },
    {
      "midi": 72,
      "hit": false,
      "t": 39583.31750000003,
      "d": 416.66649999999936,
      "v": 99
    },
    {
      "midi": 55,
      "hit": false,
      "t": 39999.984,
      "d": 416.66649999999936,
      "v": 12
    },
    {
      "midi": 59,
      "hit": false,
      "t": 39999.984,
      "d": 624.9997500000027,
      "v": 54
    },
    {
      "midi": 62,
      "hit": false,
      "t": 39999.984,
      "d": 1041.666250000002,
      "v": 45
    },
    {
      "midi": 86,
      "hit": false,
      "t": 39999.984000000026,
      "d": 1666.6659999999974,
      "v": 99
    },
    {
      "midi": 74,
      "hit": false,
      "t": 39999.984000000026,
      "d": 1666.6659999999974,
      "v": 88
    },
    {
      "midi": 55,
      "hit": false,
      "t": 40416.650499999996,
      "d": 1041.6662500000093,
      "v": 13
    },
    {
      "midi": 59,
      "hit": false,
      "t": 40624.98375,
      "d": 624.9997500000027,
      "v": 56
    },
    {
      "midi": 62,
      "hit": false,
      "t": 41041.65025,
      "d": 624.99975000001,
      "v": 53
    },
    {
      "midi": 59,
      "hit": false,
      "t": 41249.9835,
      "d": 624.99975000001,
      "v": 70
    },
    {
      "midi": 55,
      "hit": false,
      "t": 41458.316750000005,
      "d": 1666.666000000012,
      "v": 70
    },
    {
      "midi": 62,
      "hit": false,
      "t": 41666.65000000001,
      "d": 416.66650000000664,
      "v": 68
    },
    {
      "midi": 59,
      "hit": false,
      "t": 41874.98325000001,
      "d": 833.333000000006,
      "v": 70
    },
    {
      "midi": 67,
      "hit": false,
      "t": 42083.316500000015,
      "d": 208.33325000000332,
      "v": 53
    },
    {
      "midi": 62,
      "hit": false,
      "t": 42291.64975000002,
      "d": 833.3329999999987,
      "v": 63
    },
    {
      "midi": 79,
      "hit": false,
      "t": 42291.649750000026,
      "d": 208.33325000000332,
      "v": 99
    },
    {
      "midi": 67,
      "hit": false,
      "t": 42291.649750000026,
      "d": 208.33325000000332,
      "v": 99
    },
    {
      "midi": 79,
      "hit": false,
      "t": 42499.98300000003,
      "d": 208.33325000000332,
      "v": 99
    },
    {
      "midi": 67,
      "hit": false,
      "t": 42499.98300000003,
      "d": 208.33325000000332,
      "v": 99
    },
    {
      "midi": 59,
      "hit": false,
      "t": 42708.31625000002,
      "d": 590.2775416666627,
      "v": 70
    },
    {
      "midi": 81,
      "hit": false,
      "t": 42708.31625000003,
      "d": 208.33325000000332,
      "v": 99
    },
    {
      "midi": 69,
      "hit": false,
      "t": 42708.31625000003,
      "d": 208.33325000000332,
      "v": 99
    },
    {
      "midi": 79,
      "hit": false,
      "t": 42916.649500000036,
      "d": 416.66649999999936,
      "v": 99
    },
    {
      "midi": 67,
      "hit": false,
      "t": 42916.649500000036,
      "d": 416.66649999999936,
      "v": 99
    },
    {
      "midi": 55,
      "hit": false,
      "t": 43124.98275000002,
      "d": 173.61104166666337,
      "v": 13
    },
    {
      "midi": 62,
      "hit": false,
      "t": 43124.98275000002,
      "d": 208.33324999999604,
      "v": 74
    },
    {
      "midi": 55,
      "hit": false,
      "t": 43333.31600000001,
      "d": 381.9442916666667,
      "v": 13
    },
    {
      "midi": 60,
      "hit": false,
      "t": 43333.31600000001,
      "d": 1006.9440416666694,
      "v": 70
    },
    {
      "midi": 64,
      "hit": false,
      "t": 43333.31600000001,
      "d": 1666.6660000000047,
      "v": 74
    },
    {
      "midi": 91,
      "hit": false,
      "t": 43333.316000000035,
      "d": 416.66649999999936,
      "v": 99
    },
    {
      "midi": 79,
      "hit": false,
      "t": 43333.316000000035,
      "d": 416.66649999999936,
      "v": 99
    },
    {
      "midi": 55,
      "hit": false,
      "t": 43749.98250000001,
      "d": 1041.666250000002,
      "v": 64
    },
    {
      "midi": 88,
      "hit": false,
      "t": 43749.982500000035,
      "d": 1666.6659999999974,
      "v": 99
    },
    {
      "midi": 76,
      "hit": false,
      "t": 43749.982500000035,
      "d": 1666.6659999999974,
      "v": 87
    },
    {
      "midi": 60,
      "hit": false,
      "t": 44374.982250000015,
      "d": 624.9997500000027,
      "v": 74
    },
    {
      "midi": 55,
      "hit": false,
      "t": 44791.648750000015,
      "d": 208.33325000000332,
      "v": 25
    },
    {
      "midi": 55,
      "hit": false,
      "t": 44999.98200000002,
      "d": 416.66649999999936,
      "v": 25
    },
    {
      "midi": 64,
      "hit": false,
      "t": 44999.98200000002,
      "d": 624.9997500000027,
      "v": 40
    },
    {
      "midi": 59,
      "hit": false,
      "t": 44999.98200000002,
      "d": 1249.9995000000054,
      "v": 74
    },
    {
      "midi": 55,
      "hit": false,
      "t": 45416.64850000002,
      "d": 1041.6662500000093,
      "v": 53
    },
    {
      "midi": 86,
      "hit": false,
      "t": 45416.64850000003,
      "d": 208.33325000000332,
      "v": 99
    },
    {
      "midi": 74,
      "hit": false,
      "t": 45416.64850000003,
      "d": 208.33325000000332,
      "v": 85
    },
    {
      "midi": 67,
      "hit": false,
      "t": 45624.98175000002,
      "d": 416.66649999999936,
      "v": 61
    },
    {
      "midi": 86,
      "hit": false,
      "t": 45624.981750000035,
      "d": 208.33325000000332,
      "v": 99
    },
    {
      "midi": 74,
      "hit": false,
      "t": 45624.981750000035,
      "d": 208.33325000000332,
      "v": 90
    },
    {
      "midi": 86,
      "hit": false,
      "t": 45833.31500000004,
      "d": 416.66649999999936,
      "v": 99
    },
    {
      "midi": 74,
      "hit": false,
      "t": 45833.31500000004,
      "d": 416.66649999999936,
      "v": 95
    },
    {
      "midi": 64,
      "hit": false,
      "t": 46041.64825000002,
      "d": 624.99975000001,
      "v": 63
    },
    {
      "midi": 59,
      "hit": false,
      "t": 46249.98150000002,
      "d": 416.66650000000664,
      "v": 58
    },
    {
      "midi": 88,
      "hit": false,
      "t": 46249.98150000004,
      "d": 416.66649999999936,
      "v": 99
    },
    {
      "midi": 76,
      "hit": false,
      "t": 46249.98150000004,
      "d": 416.66649999999936,
      "v": 99
    },
    {
      "midi": 55,
      "hit": false,
      "t": 46458.31475000003,
      "d": 208.33325000000332,
      "v": 37
    },
    {
      "midi": 57,
      "hit": false,
      "t": 46666.64800000003,
      "d": 416.66649999999936,
      "v": 37
    },
    {
      "midi": 60,
      "hit": false,
      "t": 46666.64800000003,
      "d": 624.9997500000027,
      "v": 68
    },
    {
      "midi": 64,
      "hit": false,
      "t": 46666.64800000003,
      "d": 1041.666250000002,
      "v": 70
    },
    {
      "midi": 86,
      "hit": false,
      "t": 46666.64800000004,
      "d": 416.66649999999936,
      "v": 99
    },
    {
      "midi": 74,
      "hit": false,
      "t": 46666.64800000004,
      "d": 416.66649999999936,
      "v": 99
    },
    {
      "midi": 57,
      "hit": false,
      "t": 47083.31450000003,
      "d": 1041.6662500000093,
      "v": 58
    },
    {
      "midi": 84,
      "hit": false,
      "t": 47083.31450000004,
      "d": 2083.332499999997,
      "v": 99
    },
    {
      "midi": 72,
      "hit": false,
      "t": 47083.31450000004,
      "d": 2083.332499999997,
      "v": 99
    },
    {
      "midi": 60,
      "hit": false,
      "t": 47291.64775000003,
      "d": 624.9997500000027,
      "v": 64
    },
    {
      "midi": 64,
      "hit": false,
      "t": 47708.31425000003,
      "d": 624.99975000001,
      "v": 63
    },
    {
      "midi": 60,
      "hit": false,
      "t": 47916.647500000036,
      "d": 624.99975000001,
      "v": 57
    },
    {
      "midi": 57,
      "hit": false,
      "t": 48124.98075000004,
      "d": 1041.6662500000166,
      "v": 42
    },
    {
      "midi": 64,
      "hit": false,
      "t": 48333.31400000004,
      "d": 416.66650000000664,
      "v": 61
    },
    {
      "midi": 60,
      "hit": false,
      "t": 48541.647250000045,
      "d": 624.99975000001,
      "v": 43
    },
    {
      "midi": 69,
      "hit": false,
      "t": 48749.98050000005,
      "d": 208.33325000000332,
      "v": 40
    },
    {
      "midi": 64,
      "hit": false,
      "t": 48958.31375000005,
      "d": 208.33325000000332,
      "v": 70
    },
    {
      "midi": 84,
      "hit": false,
      "t": 49166.64700000003,
      "d": 208.33325000000332,
      "v": 99
    },
    {
      "midi": 72,
      "hit": false,
      "t": 49166.64700000003,
      "d": 208.33325000000332,
      "v": 99
    },
    {
      "midi": 55,
      "hit": false,
      "t": 49166.647000000055,
      "d": 416.66649999999936,
      "v": 42
    },
    {
      "midi": 60,
      "hit": false,
      "t": 49166.647000000055,
      "d": 798.610791666666,
      "v": 37
    },
    {
      "midi": 64,
      "hit": false,
      "t": 49166.647000000055,
      "d": 798.610791666666,
      "v": 70
    },
    {
      "midi": 86,
      "hit": false,
      "t": 49374.98025000004,
      "d": 208.33325000000332,
      "v": 99
    },
    {
      "midi": 74,
      "hit": false,
      "t": 49374.98025000004,
      "d": 208.33325000000332,
      "v": 99
    },
    {
      "midi": 84,
      "hit": false,
      "t": 49583.31350000004,
      "d": 416.66649999999936,
      "v": 99
    },
    {
      "midi": 72,
      "hit": false,
      "t": 49583.31350000004,
      "d": 416.66649999999936,
      "v": 99
    },
    {
      "midi": 55,
      "hit": false,
      "t": 49583.313500000055,
      "d": 381.9442916666667,
      "v": 37
    },
    {
      "midi": 96,
      "hit": false,
      "t": 49999.98000000004,
      "d": 416.66649999999936,
      "v": 99
    },
    {
      "midi": 84,
      "hit": false,
      "t": 49999.98000000004,
      "d": 416.66649999999936,
      "v": 99
    },
    {
      "midi": 57,
      "hit": false,
      "t": 49999.980000000054,
      "d": 416.66649999999936,
      "v": 12
    },
    {
      "midi": 60,
      "hit": false,
      "t": 49999.980000000054,
      "d": 624.9997500000027,
      "v": 54
    },
    {
      "midi": 65,
      "hit": false,
      "t": 49999.980000000054,
      "d": 1041.666250000002,
      "v": 45
    },
    {
      "midi": 93,
      "hit": false,
      "t": 50416.64650000004,
      "d": 1666.6659999999974,
      "v": 99
    },
    {
      "midi": 81,
      "hit": false,
      "t": 50416.64650000004,
      "d": 1666.6659999999974,
      "v": 99
    },
    {
      "midi": 57,
      "hit": false,
      "t": 50416.64650000005,
      "d": 1041.6662500000093,
      "v": 13
    },
    {
      "midi": 60,
      "hit": false,
      "t": 50624.97975000006,
      "d": 624.9997500000027,
      "v": 56
    },
    {
      "midi": 65,
      "hit": false,
      "t": 51041.646250000056,
      "d": 624.99975000001,
      "v": 53
    },
    {
      "midi": 60,
      "hit": false,
      "t": 51249.97950000006,
      "d": 416.66650000000664,
      "v": 70
    },
    {
      "midi": 57,
      "hit": false,
      "t": 51458.31275000006,
      "d": 208.33325000000332,
      "v": 70
    },
    {
      "midi": 59,
      "hit": false,
      "t": 51666.646000000066,
      "d": 208.33325000000332,
      "v": 70
    },
    {
      "midi": 62,
      "hit": false,
      "t": 51666.646000000066,
      "d": 416.66650000000664,
      "v": 68
    },
    {
      "midi": 55,
      "hit": false,
      "t": 51666.646000000066,
      "d": 1458.3327500000087,
      "v": 70
    },
    {
      "midi": 59,
      "hit": false,
      "t": 51874.97925000007,
      "d": 833.333000000006,
      "v": 70
    },
    {
      "midi": 93,
      "hit": false,
      "t": 52083.31250000004,
      "d": 208.33325000000332,
      "v": 80
    },
    {
      "midi": 81,
      "hit": false,
      "t": 52083.31250000004,
      "d": 208.33325000000332,
      "v": 84
    },
    {
      "midi": 67,
      "hit": false,
      "t": 52083.31250000007,
      "d": 208.33325000000332,
      "v": 53
    },
    {
      "midi": 93,
      "hit": false,
      "t": 52291.64575000004,
      "d": 208.33325000000332,
      "v": 87
    },
    {
      "midi": 81,
      "hit": false,
      "t": 52291.64575000004,
      "d": 208.33325000000332,
      "v": 89
    },
    {
      "midi": 62,
      "hit": false,
      "t": 52291.645750000076,
      "d": 833.3329999999987,
      "v": 63
    },
    {
      "midi": 93,
      "hit": false,
      "t": 52499.97900000004,
      "d": 208.33325000000332,
      "v": 94
    },
    {
      "midi": 81,
      "hit": false,
      "t": 52499.97900000004,
      "d": 208.33325000000332,
      "v": 96
    },
    {
      "midi": 93,
      "hit": false,
      "t": 52708.312250000046,
      "d": 208.33325000000332,
      "v": 97
    },
    {
      "midi": 81,
      "hit": false,
      "t": 52708.312250000046,
      "d": 208.33325000000332,
      "v": 97
    },
    {
      "midi": 59,
      "hit": false,
      "t": 52708.312250000075,
      "d": 590.2775416666627,
      "v": 70
    },
    {
      "midi": 96,
      "hit": false,
      "t": 52916.64550000005,
      "d": 416.66649999999936,
      "v": 96
    },
    {
      "midi": 84,
      "hit": false,
      "t": 52916.64550000005,
      "d": 416.66649999999936,
      "v": 99
    },
    {
      "midi": 55,
      "hit": false,
      "t": 53124.978750000075,
      "d": 173.61104166666337,
      "v": 13
    },
    {
      "midi": 62,
      "hit": false,
      "t": 53124.978750000075,
      "d": 208.33324999999604,
      "v": 74
    },
    {
      "midi": 93,
      "hit": false,
      "t": 53333.31200000005,
      "d": 416.66649999999936,
      "v": 99
    },
    {
      "midi": 81,
      "hit": false,
      "t": 53333.31200000005,
      "d": 416.66649999999936,
      "v": 99
    },
    {
      "midi": 55,
      "hit": false,
      "t": 53333.31200000007,
      "d": 381.9442916666667,
      "v": 13
    },
    {
      "midi": 60,
      "hit": false,
      "t": 53333.31200000007,
      "d": 1006.9440416666694,
      "v": 70
    },
    {
      "midi": 64,
      "hit": false,
      "t": 53333.31200000007,
      "d": 1666.6660000000047,
      "v": 74
    },
    {
      "midi": 91,
      "hit": false,
      "t": 53749.97850000005,
      "d": 2083.332499999997,
      "v": 99
    },
    {
      "midi": 79,
      "hit": false,
      "t": 53749.97850000005,
      "d": 2083.332499999997,
      "v": 89
    },
    {
      "midi": 55,
      "hit": false,
      "t": 53749.97850000007,
      "d": 1041.666250000002,
      "v": 64
    },
    {
      "midi": 60,
      "hit": false,
      "t": 54374.97825000007,
      "d": 1874.999250000008,
      "v": 74
    },
    {
      "midi": 55,
      "hit": false,
      "t": 54791.64475000007,
      "d": 624.9997500000027,
      "v": 25
    },
    {
      "midi": 64,
      "hit": false,
      "t": 54999.978000000076,
      "d": 624.9997500000027,
      "v": 40
    },
    {
      "midi": 55,
      "hit": false,
      "t": 55416.644500000075,
      "d": 1041.6662500000093,
      "v": 53
    },
    {
      "midi": 67,
      "hit": false,
      "t": 55624.97775000008,
      "d": 416.66649999999936,
      "v": 61
    },
    {
      "midi": 84,
      "hit": false,
      "t": 55833.311000000045,
      "d": 208.33325000000332,
      "v": 99
    },
    {
      "midi": 72,
      "hit": false,
      "t": 55833.311000000045,
      "d": 208.33325000000332,
      "v": 99
    },
    {
      "midi": 86,
      "hit": false,
      "t": 56041.64425000005,
      "d": 208.33325000000332,
      "v": 99
    },
    {
      "midi": 74,
      "hit": false,
      "t": 56041.64425000005,
      "d": 208.33325000000332,
      "v": 99
    },
    {
      "midi": 64,
      "hit": false,
      "t": 56041.64425000008,
      "d": 624.99975000001,
      "v": 63
    },
    {
      "midi": 84,
      "hit": false,
      "t": 56249.97750000005,
      "d": 416.66649999999936,
      "v": 99
    },
    {
      "midi": 72,
      "hit": false,
      "t": 56249.97750000005,
      "d": 416.66649999999936,
      "v": 99
    },
    {
      "midi": 60,
      "hit": false,
      "t": 56249.97750000008,
      "d": 416.66650000000664,
      "v": 58
    },
    {
      "midi": 55,
      "hit": false,
      "t": 56458.310750000084,
      "d": 208.33325000000332,
      "v": 37
    },
    {
      "midi": 96,
      "hit": false,
      "t": 56666.64400000005,
      "d": 416.66649999999936,
      "v": 99
    },
    {
      "midi": 84,
      "hit": false,
      "t": 56666.64400000005,
      "d": 416.66649999999936,
      "v": 99
    },
    {
      "midi": 57,
      "hit": false,
      "t": 56666.64400000009,
      "d": 416.66649999999936,
      "v": 37
    },
    {
      "midi": 60,
      "hit": false,
      "t": 56666.64400000009,
      "d": 624.9997500000027,
      "v": 68
    },
    {
      "midi": 65,
      "hit": false,
      "t": 56666.64400000009,
      "d": 1041.666250000002,
      "v": 70
    },
    {
      "midi": 93,
      "hit": false,
      "t": 57083.31050000005,
      "d": 1666.6659999999974,
      "v": 99
    },
    {
      "midi": 81,
      "hit": false,
      "t": 57083.31050000005,
      "d": 1666.6659999999974,
      "v": 99
    },
    {
      "midi": 57,
      "hit": false,
      "t": 57083.31050000009,
      "d": 1041.6662500000093,
      "v": 58
    },
    {
      "midi": 60,
      "hit": false,
      "t": 57291.64375000009,
      "d": 624.9997500000027,
      "v": 64
    },
    {
      "midi": 65,
      "hit": false,
      "t": 57708.31025000009,
      "d": 624.99975000001,
      "v": 63
    },
    {
      "midi": 60,
      "hit": false,
      "t": 57916.64350000009,
      "d": 624.99975000001,
      "v": 57
    },
    {
      "midi": 57,
      "hit": false,
      "t": 58124.976750000096,
      "d": 1458.332750000016,
      "v": 42
    },
    {
      "midi": 65,
      "hit": false,
      "t": 58333.3100000001,
      "d": 416.66650000000664,
      "v": 61
    },
    {
      "midi": 60,
      "hit": false,
      "t": 58541.6432500001,
      "d": 624.99975000001,
      "v": 43
    },
    {
      "midi": 93,
      "hit": false,
      "t": 58749.97650000005,
      "d": 138.8888333333307,
      "v": 76
    },
    {
      "midi": 81,
      "hit": false,
      "t": 58749.97650000005,
      "d": 138.8888333333307,
      "v": 76
    },
    {
      "midi": 69,
      "hit": false,
      "t": 58749.976500000106,
      "d": 208.33325000000332,
      "v": 40
    },
    {
      "midi": 93,
      "hit": false,
      "t": 58888.86533333338,
      "d": 138.8888333333307,
      "v": 85
    },
    {
      "midi": 81,
      "hit": false,
      "t": 58888.86533333338,
      "d": 138.8888333333307,
      "v": 85
    },
    {
      "midi": 65,
      "hit": false,
      "t": 58958.30975000011,
      "d": 1006.9440416666694,
      "v": 70
    },
    {
      "midi": 93,
      "hit": false,
      "t": 59027.75416666671,
      "d": 138.8888333333307,
      "v": 99
    },
    {
      "midi": 81,
      "hit": false,
      "t": 59027.75416666671,
      "d": 138.8888333333307,
      "v": 99
    },
    {
      "midi": 93,
      "hit": false,
      "t": 59166.64300000004,
      "d": 208.33325000000332,
      "v": 99
    },
    {
      "midi": 81,
      "hit": false,
      "t": 59166.64300000004,
      "d": 208.33325000000332,
      "v": 99
    },
    {
      "midi": 60,
      "hit": false,
      "t": 59166.64300000011,
      "d": 798.610791666666,
      "v": 37
    },
    {
      "midi": 93,
      "hit": false,
      "t": 59374.97625000004,
      "d": 208.33325000000332,
      "v": 99
    },
    {
      "midi": 81,
      "hit": false,
      "t": 59374.97625000004,
      "d": 208.33325000000332,
      "v": 99
    },
    {
      "midi": 88,
      "hit": false,
      "t": 59583.30950000005,
      "d": 208.33325000000332,
      "v": 99
    },
    {
      "midi": 76,
      "hit": false,
      "t": 59583.30950000005,
      "d": 208.33325000000332,
      "v": 99
    },
    {
      "midi": 57,
      "hit": false,
      "t": 59583.30950000011,
      "d": 381.9442916666667,
      "v": 37
    },
    {
      "midi": 88,
      "hit": false,
      "t": 59791.64275000005,
      "d": 208.33325000000332,
      "v": 99
    },
    {
      "midi": 76,
      "hit": false,
      "t": 59791.64275000005,
      "d": 208.33325000000332,
      "v": 99
    },
    {
      "midi": 91,
      "hit": false,
      "t": 59999.97600000005,
      "d": 416.66649999999936,
      "v": 99
    },
    {
      "midi": 79,
      "hit": false,
      "t": 59999.97600000005,
      "d": 416.66649999999936,
      "v": 99
    },
    {
      "midi": 55,
      "hit": false,
      "t": 59999.97600000011,
      "d": 416.66649999999936,
      "v": 12
    },
    {
      "midi": 59,
      "hit": false,
      "t": 59999.97600000011,
      "d": 624.9997500000027,
      "v": 54
    },
    {
      "midi": 64,
      "hit": false,
      "t": 59999.97600000011,
      "d": 1041.666250000002,
      "v": 45
    },
    {
      "midi": 93,
      "hit": false,
      "t": 60416.64250000005,
      "d": 833.3329999999987,
      "v": 99
    },
    {
      "midi": 81,
      "hit": false,
      "t": 60416.64250000005,
      "d": 833.3329999999987,
      "v": 99
    },
    {
      "midi": 55,
      "hit": false,
      "t": 60416.64250000011,
      "d": 1041.6662500000093,
      "v": 13
    },
    {
      "midi": 59,
      "hit": false,
      "t": 60624.975750000114,
      "d": 624.9997500000027,
      "v": 56
    },
    {
      "midi": 64,
      "hit": false,
      "t": 61041.64225000011,
      "d": 624.99975000001,
      "v": 53
    },
    {
      "midi": 88,
      "hit": false,
      "t": 61249.97550000005,
      "d": 208.33325000000332,
      "v": 99
    },
    {
      "midi": 76,
      "hit": false,
      "t": 61249.97550000005,
      "d": 208.33325000000332,
      "v": 99
    },
    {
      "midi": 59,
      "hit": false,
      "t": 61249.97550000012,
      "d": 416.66650000000664,
      "v": 70
    },
    {
      "midi": 86,
      "hit": false,
      "t": 61458.308750000055,
      "d": 208.33325000000332,
      "v": 99
    },
    {
      "midi": 74,
      "hit": false,
      "t": 61458.308750000055,
      "d": 208.33325000000332,
      "v": 99
    },
    {
      "midi": 55,
      "hit": false,
      "t": 61458.30875000012,
      "d": 208.33325000000332,
      "v": 70
    },
    {
      "midi": 84,
      "hit": false,
      "t": 61666.64200000006,
      "d": 833.3329999999987,
      "v": 99
    },
    {
      "midi": 72,
      "hit": false,
      "t": 61666.64200000006,
      "d": 833.3329999999987,
      "v": 99
    },
    {
      "midi": 60,
      "hit": false,
      "t": 61666.64200000012,
      "d": 208.33325000000332,
      "v": 70
    },
    {
      "midi": 64,
      "hit": false,
      "t": 61666.64200000012,
      "d": 416.66650000000664,
      "v": 68
    },
    {
      "midi": 57,
      "hit": false,
      "t": 61666.64200000012,
      "d": 1458.3327500000087,
      "v": 70
    },
    {
      "midi": 60,
      "hit": false,
      "t": 61874.97525000013,
      "d": 833.333000000006,
      "v": 70
    },
    {
      "midi": 69,
      "hit": false,
      "t": 62083.30850000013,
      "d": 208.33325000000332,
      "v": 53
    },
    {
      "midi": 64,
      "hit": false,
      "t": 62291.64175000013,
      "d": 833.3329999999987,
      "v": 63
    },
    {
      "midi": 84,
      "hit": false,
      "t": 62499.97500000006,
      "d": 208.33325000000332,
      "v": 99
    },
    {
      "midi": 72,
      "hit": false,
      "t": 62499.97500000006,
      "d": 208.33325000000332,
      "v": 99
    },
    {
      "midi": 86,
      "hit": false,
      "t": 62708.30825000006,
      "d": 208.33325000000332,
      "v": 99
    },
    {
      "midi": 74,
      "hit": false,
      "t": 62708.30825000006,
      "d": 208.33325000000332,
      "v": 99
    },
    {
      "midi": 60,
      "hit": false,
      "t": 62708.30825000013,
      "d": 590.2775416666627,
      "v": 70
    },
    {
      "midi": 88,
      "hit": false,
      "t": 62916.64150000006,
      "d": 416.66649999999936,
      "v": 99
    },
    {
      "midi": 76,
      "hit": false,
      "t": 62916.64150000006,
      "d": 416.66649999999936,
      "v": 99
    },
    {
      "midi": 57,
      "hit": false,
      "t": 63124.97475000013,
      "d": 173.61104166666337,
      "v": 13
    },
    {
      "midi": 64,
      "hit": false,
      "t": 63124.97475000013,
      "d": 208.33324999999604,
      "v": 74
    },
    {
      "midi": 81,
      "hit": false,
      "t": 63333.30800000006,
      "d": 833.3329999999987,
      "v": 99
    },
    {
      "midi": 69,
      "hit": false,
      "t": 63333.30800000006,
      "d": 833.3329999999987,
      "v": 92
    },
    {
      "midi": 57,
      "hit": false,
      "t": 63333.30800000013,
      "d": 381.9442916666667,
      "v": 13
    },
    {
      "midi": 62,
      "hit": false,
      "t": 63333.30800000013,
      "d": 1006.9440416666694,
      "v": 70
    },
    {
      "midi": 65,
      "hit": false,
      "t": 63333.30800000013,
      "d": 1666.6660000000047,
      "v": 74
    },
    {
      "midi": 57,
      "hit": false,
      "t": 63749.97450000013,
      "d": 1041.666250000002,
      "v": 64
    },
    {
      "midi": 84,
      "hit": false,
      "t": 64166.64100000006,
      "d": 208.33325000000332,
      "v": 99
    },
    {
      "midi": 72,
      "hit": false,
      "t": 64166.64100000006,
      "d": 208.33325000000332,
      "v": 99
    },
    {
      "midi": 86,
      "hit": false,
      "t": 64374.974250000065,
      "d": 208.33325000000332,
      "v": 99
    },
    {
      "midi": 74,
      "hit": false,
      "t": 64374.974250000065,
      "d": 208.33325000000332,
      "v": 99
    },
    {
      "midi": 62,
      "hit": false,
      "t": 64374.97425000013,
      "d": 624.9997500000027,
      "v": 74
    },
    {
      "midi": 88,
      "hit": false,
      "t": 64583.30750000007,
      "d": 416.66649999999936,
      "v": 99
    },
    {
      "midi": 76,
      "hit": false,
      "t": 64583.30750000007,
      "d": 416.66649999999936,
      "v": 99
    },
    {
      "midi": 57,
      "hit": false,
      "t": 64791.64075000013,
      "d": 208.33325000000332,
      "v": 25
    },
    {
      "midi": 81,
      "hit": false,
      "t": 64999.97400000007,
      "d": 833.333000000006,
      "v": 99
    },
    {
      "midi": 69,
      "hit": false,
      "t": 64999.97400000007,
      "d": 833.333000000006,
      "v": 89
    },
    {
      "midi": 56,
      "hit": false,
      "t": 64999.97400000013,
      "d": 416.66649999999936,
      "v": 25
    },
    {
      "midi": 65,
      "hit": false,
      "t": 64999.97400000013,
      "d": 624.9997500000027,
      "v": 40
    },
    {
      "midi": 60,
      "hit": false,
      "t": 64999.97400000013,
      "d": 1249.9995000000054,
      "v": 74
    },
    {
      "midi": 56,
      "hit": false,
      "t": 65416.64050000013,
      "d": 1041.666250000002,
      "v": 53
    },
    {
      "midi": 68,
      "hit": false,
      "t": 65624.97375000014,
      "d": 416.66650000000664,
      "v": 61
    },
    {
      "midi": 88,
      "hit": false,
      "t": 65833.30700000007,
      "d": 208.33324999999604,
      "v": 99
    },
    {
      "midi": 76,
      "hit": false,
      "t": 65833.30700000007,
      "d": 208.33324999999604,
      "v": 99
    },
    {
      "midi": 86,
      "hit": false,
      "t": 66041.64025000007,
      "d": 208.33324999999604,
      "v": 99
    },
    {
      "midi": 74,
      "hit": false,
      "t": 66041.64025000007,
      "d": 208.33324999999604,
      "v": 99
    },
    {
      "midi": 65,
      "hit": false,
      "t": 66041.64025000014,
      "d": 590.2775416666555,
      "v": 63
    },
    {
      "midi": 84,
      "hit": false,
      "t": 66249.97350000007,
      "d": 416.66650000000664,
      "v": 99
    },
    {
      "midi": 72,
      "hit": false,
      "t": 66249.97350000007,
      "d": 416.66650000000664,
      "v": 99
    },
    {
      "midi": 60,
      "hit": false,
      "t": 66249.97350000014,
      "d": 381.9442916666594,
      "v": 58
    },
    {
      "midi": 56,
      "hit": false,
      "t": 66458.30675000013,
      "d": 173.61104166666337,
      "v": 37
    },
    {
      "midi": 84,
      "hit": false,
      "t": 66666.64000000007,
      "d": 2499.998999999996,
      "v": 99
    },
    {
      "midi": 72,
      "hit": false,
      "t": 66666.64000000007,
      "d": 2499.998999999996,
      "v": 87
    },
    {
      "midi": 55,
      "hit": false,
      "t": 66666.64000000013,
      "d": 590.27754166667,
      "v": 41
    },
    {
      "midi": 60,
      "hit": false,
      "t": 66666.64000000013,
      "d": 590.27754166667,
      "v": 68
    },
    {
      "midi": 64,
      "hit": false,
      "t": 66666.64000000013,
      "d": 624.9997500000027,
      "v": 70
    },
    {
      "midi": 55,
      "hit": false,
      "t": 67291.63975000013,
      "d": 590.27754166667,
      "v": 41
    },
    {
      "midi": 60,
      "hit": false,
      "t": 67291.63975000013,
      "d": 590.27754166667,
      "v": 68
    },
    {
      "midi": 64,
      "hit": false,
      "t": 67291.63975000013,
      "d": 590.27754166667,
      "v": 70
    },
    {
      "midi": 55,
      "hit": false,
      "t": 67916.63950000014,
      "d": 590.27754166667,
      "v": 41
    },
    {
      "midi": 60,
      "hit": false,
      "t": 67916.63950000014,
      "d": 590.27754166667,
      "v": 68
    },
    {
      "midi": 64,
      "hit": false,
      "t": 67916.63950000014,
      "d": 590.27754166667,
      "v": 70
    },
    {
      "midi": 55,
      "hit": false,
      "t": 68541.63925000014,
      "d": 590.27754166667,
      "v": 41
    },
    {
      "midi": 60,
      "hit": false,
      "t": 68541.63925000014,
      "d": 590.27754166667,
      "v": 68
    },
    {
      "midi": 64,
      "hit": false,
      "t": 68541.63925000014,
      "d": 590.27754166667,
      "v": 70
    },
    {
      "midi": 96,
      "hit": false,
      "t": 69166.63900000007,
      "d": 416.66650000000664,
      "v": 99
    },
    {
      "midi": 84,
      "hit": false,
      "t": 69166.63900000007,
      "d": 416.66650000000664,
      "v": 99
    },
    {
      "midi": 55,
      "hit": false,
      "t": 69166.63900000014,
      "d": 798.610791666666,
      "v": 41
    },
    {
      "midi": 60,
      "hit": false,
      "t": 69166.63900000014,
      "d": 798.610791666666,
      "v": 68
    },
    {
      "midi": 65,
      "hit": false,
      "t": 69166.63900000014,
      "d": 798.610791666666,
      "v": 70
    },
    {
      "midi": 95,
      "hit": false,
      "t": 69583.30550000007,
      "d": 416.66650000000664,
      "v": 99
    },
    {
      "midi": 83,
      "hit": false,
      "t": 69583.30550000007,
      "d": 416.66650000000664,
      "v": 99
    },
    {
      "midi": 93,
      "hit": false,
      "t": 69999.97200000008,
      "d": 208.33324999999604,
      "v": 99
    },
    {
      "midi": 81,
      "hit": false,
      "t": 69999.97200000008,
      "d": 208.33324999999604,
      "v": 99
    },
    {
      "midi": 60,
      "hit": false,
      "t": 69999.97200000014,
      "d": 173.61104166666337,
      "v": 15
    },
    {
      "midi": 64,
      "hit": false,
      "t": 69999.97200000014,
      "d": 416.6664999999921,
      "v": 74
    },
    {
      "midi": 55,
      "hit": false,
      "t": 69999.97200000014,
      "d": 1631.9437916666648,
      "v": 76
    },
    {
      "midi": 91,
      "hit": false,
      "t": 70208.30525000008,
      "d": 208.33324999999604,
      "v": 99
    },
    {
      "midi": 79,
      "hit": false,
      "t": 70208.30525000008,
      "d": 208.33324999999604,
      "v": 99
    },
    {
      "midi": 60,
      "hit": false,
      "t": 70208.30525000014,
      "d": 833.3329999999987,
      "v": 76
    },
    {
      "midi": 91,
      "hit": false,
      "t": 70416.63850000007,
      "d": 208.33324999999604,
      "v": 99
    },
    {
      "midi": 79,
      "hit": false,
      "t": 70416.63850000007,
      "d": 208.33324999999604,
      "v": 99
    },
    {
      "midi": 67,
      "hit": false,
      "t": 70416.63850000013,
      "d": 208.33324999999604,
      "v": 58
    },
    {
      "midi": 88,
      "hit": false,
      "t": 70624.97175000007,
      "d": 208.33324999999604,
      "v": 99
    },
    {
      "midi": 76,
      "hit": false,
      "t": 70624.97175000007,
      "d": 208.33324999999604,
      "v": 99
    },
    {
      "midi": 64,
      "hit": false,
      "t": 70624.97175000013,
      "d": 833.3330000000133,
      "v": 70
    },
    {
      "midi": 91,
      "hit": false,
      "t": 70833.30500000007,
      "d": 208.33324999999604,
      "v": 99
    },
    {
      "midi": 79,
      "hit": false,
      "t": 70833.30500000007,
      "d": 208.33324999999604,
      "v": 99
    },
    {
      "midi": 91,
      "hit": false,
      "t": 71041.63825000006,
      "d": 208.33324999999604,
      "v": 99
    },
    {
      "midi": 79,
      "hit": false,
      "t": 71041.63825000006,
      "d": 208.33324999999604,
      "v": 99
    },
    {
      "midi": 60,
      "hit": false,
      "t": 71041.63825000013,
      "d": 590.27754166667,
      "v": 76
    },
    {
      "midi": 91,
      "hit": false,
      "t": 71249.97150000006,
      "d": 208.33324999999604,
      "v": 99
    },
    {
      "midi": 79,
      "hit": false,
      "t": 71249.97150000006,
      "d": 208.33324999999604,
      "v": 99
    },
    {
      "midi": 88,
      "hit": false,
      "t": 71458.30475000005,
      "d": 208.33324999999604,
      "v": 99
    },
    {
      "midi": 76,
      "hit": false,
      "t": 71458.30475000005,
      "d": 208.33324999999604,
      "v": 99
    },
    {
      "midi": 64,
      "hit": false,
      "t": 71458.30475000014,
      "d": 1874.9992499999935,
      "v": 81
    },
    {
      "midi": 91,
      "hit": false,
      "t": 71666.63800000005,
      "d": 208.33324999999604,
      "v": 99
    },
    {
      "midi": 79,
      "hit": false,
      "t": 71666.63800000005,
      "d": 208.33324999999604,
      "v": 99
    },
    {
      "midi": 55,
      "hit": false,
      "t": 71666.63800000014,
      "d": 381.9442916666594,
      "v": 15
    },
    {
      "midi": 60,
      "hit": false,
      "t": 71666.63800000014,
      "d": 1006.9440416666621,
      "v": 76
    },
    {
      "midi": 93,
      "hit": false,
      "t": 71874.97125000005,
      "d": 208.33324999999604,
      "v": 99
    },
    {
      "midi": 81,
      "hit": false,
      "t": 71874.97125000005,
      "d": 208.33324999999604,
      "v": 99
    },
    {
      "midi": 91,
      "hit": false,
      "t": 72083.30450000004,
      "d": 208.33324999999604,
      "v": 99
    },
    {
      "midi": 79,
      "hit": false,
      "t": 72083.30450000004,
      "d": 208.33324999999604,
      "v": 99
    },
    {
      "midi": 55,
      "hit": false,
      "t": 72083.30450000013,
      "d": 1041.6662500000093,
      "v": 70
    },
    {
      "midi": 91,
      "hit": false,
      "t": 72291.63775000004,
      "d": 416.66650000000664,
      "v": 99
    },
    {
      "midi": 79,
      "hit": false,
      "t": 72291.63775000004,
      "d": 416.66650000000664,
      "v": 99
    },
    {
      "midi": 96,
      "hit": false,
      "t": 72708.30425000004,
      "d": 416.66650000000664,
      "v": 99
    },
    {
      "midi": 84,
      "hit": false,
      "t": 72708.30425000004,
      "d": 416.66650000000664,
      "v": 99
    },
    {
      "midi": 60,
      "hit": false,
      "t": 72708.30425000013,
      "d": 624.9997500000027,
      "v": 81
    },
    {
      "midi": 95,
      "hit": false,
      "t": 73124.97075000005,
      "d": 208.33324999999604,
      "v": 99
    },
    {
      "midi": 83,
      "hit": false,
      "t": 73124.97075000005,
      "d": 208.33324999999604,
      "v": 99
    },
    {
      "midi": 55,
      "hit": false,
      "t": 73124.97075000014,
      "d": 208.33324999999604,
      "v": 30
    },
    {
      "midi": 93,
      "hit": false,
      "t": 73333.30400000005,
      "d": 208.33324999999604,
      "v": 99
    },
    {
      "midi": 81,
      "hit": false,
      "t": 73333.30400000005,
      "d": 208.33324999999604,
      "v": 99
    },
    {
      "midi": 55,
      "hit": false,
      "t": 73333.30400000013,
      "d": 416.66650000000664,
      "v": 30
    },
    {
      "midi": 64,
      "hit": false,
      "t": 73333.30400000013,
      "d": 624.9997500000027,
      "v": 43
    },
    {
      "midi": 59,
      "hit": false,
      "t": 73333.30400000013,
      "d": 1249.9995000000054,
      "v": 81
    },
    {
      "midi": 79,
      "hit": false,
      "t": 73541.63725000004,
      "d": 208.33324999999604,
      "v": 99
    },
    {
      "midi": 91,
      "hit": false,
      "t": 73749.97050000004,
      "d": 208.33324999999604,
      "v": 99
    },
    {
      "midi": 79,
      "hit": false,
      "t": 73749.97050000004,
      "d": 208.33324999999604,
      "v": 99
    },
    {
      "midi": 55,
      "hit": false,
      "t": 73749.97050000014,
      "d": 1041.6662499999948,
      "v": 58
    },
    {
      "midi": 88,
      "hit": false,
      "t": 73958.30375000004,
      "d": 208.33324999999604,
      "v": 99
    },
    {
      "midi": 76,
      "hit": false,
      "t": 73958.30375000004,
      "d": 208.33324999999604,
      "v": 99
    },
    {
      "midi": 67,
      "hit": false,
      "t": 73958.30375000014,
      "d": 416.66650000000664,
      "v": 69
    },
    {
      "midi": 91,
      "hit": false,
      "t": 74166.63700000003,
      "d": 208.33324999999604,
      "v": 99
    },
    {
      "midi": 79,
      "hit": false,
      "t": 74166.63700000003,
      "d": 208.33324999999604,
      "v": 99
    },
    {
      "midi": 91,
      "hit": false,
      "t": 74374.97025000003,
      "d": 208.33324999999604,
      "v": 99
    },
    {
      "midi": 79,
      "hit": false,
      "t": 74374.97025000003,
      "d": 208.33324999999604,
      "v": 99
    },
    {
      "midi": 64,
      "hit": false,
      "t": 74374.97025000014,
      "d": 624.9997499999881,
      "v": 70
    },
    {
      "midi": 88,
      "hit": false,
      "t": 74583.30350000002,
      "d": 416.66650000000664,
      "v": 99
    },
    {
      "midi": 76,
      "hit": false,
      "t": 74583.30350000002,
      "d": 416.66650000000664,
      "v": 99
    },
    {
      "midi": 59,
      "hit": false,
      "t": 74583.30350000014,
      "d": 416.6664999999921,
      "v": 65
    },
    {
      "midi": 55,
      "hit": false,
      "t": 74791.63675000014,
      "d": 208.33324999999604,
      "v": 41
    },
    {
      "midi": 93,
      "hit": false,
      "t": 74999.97000000003,
      "d": 208.33324999999604,
      "v": 99
    },
    {
      "midi": 81,
      "hit": false,
      "t": 74999.97000000003,
      "d": 208.33324999999604,
      "v": 99
    },
    {
      "midi": 57,
      "hit": false,
      "t": 74999.97000000013,
      "d": 416.66650000000664,
      "v": 41
    },
    {
      "midi": 60,
      "hit": false,
      "t": 74999.97000000013,
      "d": 624.9997500000027,
      "v": 74
    },
    {
      "midi": 64,
      "hit": false,
      "t": 74999.97000000013,
      "d": 1041.6662500000093,
      "v": 76
    },
    {
      "midi": 88,
      "hit": false,
      "t": 75208.30325000003,
      "d": 208.33324999999604,
      "v": 99
    },
    {
      "midi": 76,
      "hit": false,
      "t": 75208.30325000003,
      "d": 208.33324999999604,
      "v": 99
    },
    {
      "midi": 86,
      "hit": false,
      "t": 75416.63650000002,
      "d": 208.33324999999604,
      "v": 99
    },
    {
      "midi": 74,
      "hit": false,
      "t": 75416.63650000002,
      "d": 208.33324999999604,
      "v": 99
    },
    {
      "midi": 57,
      "hit": false,
      "t": 75416.63650000014,
      "d": 1041.6662499999948,
      "v": 65
    },
    {
      "midi": 84,
      "hit": false,
      "t": 75624.96975000002,
      "d": 624.9997500000027,
      "v": 99
    },
    {
      "midi": 72,
      "hit": false,
      "t": 75624.96975000002,
      "d": 624.9997500000027,
      "v": 99
    },
    {
      "midi": 60,
      "hit": false,
      "t": 75624.96975000013,
      "d": 624.9997500000027,
      "v": 70
    },
    {
      "midi": 64,
      "hit": false,
      "t": 76041.63625000014,
      "d": 624.9997499999881,
      "v": 70
    },
    {
      "midi": 84,
      "hit": false,
      "t": 76249.96950000002,
      "d": 208.33324999999604,
      "v": 99
    },
    {
      "midi": 72,
      "hit": false,
      "t": 76249.96950000002,
      "d": 208.33324999999604,
      "v": 99
    },
    {
      "midi": 60,
      "hit": false,
      "t": 76249.96950000014,
      "d": 416.6664999999921,
      "v": 64
    },
    {
      "midi": 86,
      "hit": false,
      "t": 76458.30275000002,
      "d": 208.33324999999604,
      "v": 99
    },
    {
      "midi": 74,
      "hit": false,
      "t": 76458.30275000002,
      "d": 208.33324999999604,
      "v": 99
    },
    {
      "midi": 57,
      "hit": false,
      "t": 76458.30275000013,
      "d": 208.33324999999604,
      "v": 48
    },
    {
      "midi": 88,
      "hit": false,
      "t": 76666.63600000001,
      "d": 208.33324999999604,
      "v": 99
    },
    {
      "midi": 76,
      "hit": false,
      "t": 76666.63600000001,
      "d": 208.33324999999604,
      "v": 99
    },
    {
      "midi": 60,
      "hit": false,
      "t": 76666.63600000013,
      "d": 208.33324999999604,
      "v": 64
    },
    {
      "midi": 65,
      "hit": false,
      "t": 76666.63600000013,
      "d": 416.6664999999921,
      "v": 69
    },
    {
      "midi": 57,
      "hit": false,
      "t": 76666.63600000013,
      "d": 1249.9994999999908,
      "v": 48
    },
    {
      "midi": 86,
      "hit": false,
      "t": 76874.96925000001,
      "d": 208.33324999999604,
      "v": 99
    },
    {
      "midi": 74,
      "hit": false,
      "t": 76874.96925000001,
      "d": 208.33324999999604,
      "v": 99
    },
    {
      "midi": 60,
      "hit": false,
      "t": 76874.96925000013,
      "d": 624.9997499999881,
      "v": 49
    },
    {
      "midi": 84,
      "hit": false,
      "t": 77083.3025,
      "d": 208.33324999999604,
      "v": 99
    },
    {
      "midi": 72,
      "hit": false,
      "t": 77083.3025,
      "d": 208.33324999999604,
      "v": 99
    },
    {
      "midi": 69,
      "hit": false,
      "t": 77083.30250000012,
      "d": 208.33324999999604,
      "v": 43
    },
    {
      "midi": 84,
      "hit": false,
      "t": 77291.63575,
      "d": 624.9997500000027,
      "v": 99
    },
    {
      "midi": 72,
      "hit": false,
      "t": 77291.63575,
      "d": 624.9997500000027,
      "v": 99
    },
    {
      "midi": 65,
      "hit": false,
      "t": 77291.63575000012,
      "d": 1041.6662500000093,
      "v": 76
    },
    {
      "midi": 60,
      "hit": false,
      "t": 77499.96900000011,
      "d": 833.3330000000133,
      "v": 41
    },
    {
      "midi": 84,
      "hit": false,
      "t": 77916.6355,
      "d": 208.33324999999604,
      "v": 99
    },
    {
      "midi": 72,
      "hit": false,
      "t": 77916.6355,
      "d": 208.33324999999604,
      "v": 99
    },
    {
      "midi": 57,
      "hit": false,
      "t": 77916.63550000012,
      "d": 416.66650000000664,
      "v": 41
    },
    {
      "midi": 93,
      "hit": false,
      "t": 78124.96875,
      "d": 208.33324999999604,
      "v": 99
    },
    {
      "midi": 81,
      "hit": false,
      "t": 78124.96875,
      "d": 208.33324999999604,
      "v": 99
    },
    {
      "midi": 91,
      "hit": false,
      "t": 78333.302,
      "d": 208.33324999999604,
      "v": 99
    },
    {
      "midi": 79,
      "hit": false,
      "t": 78333.302,
      "d": 208.33324999999604,
      "v": 99
    },
    {
      "midi": 64,
      "hit": false,
      "t": 78333.30200000013,
      "d": 1006.9440416666621,
      "v": 50
    },
    {
      "midi": 88,
      "hit": false,
      "t": 78541.63524999999,
      "d": 208.33324999999604,
      "v": 99
    },
    {
      "midi": 76,
      "hit": false,
      "t": 78541.63524999999,
      "d": 208.33324999999604,
      "v": 99
    },
    {
      "midi": 86,
      "hit": false,
      "t": 78749.96849999999,
      "d": 208.33324999999604,
      "v": 99
    },
    {
      "midi": 74,
      "hit": false,
      "t": 78749.96849999999,
      "d": 208.33324999999604,
      "v": 99
    },
    {
      "midi": 55,
      "hit": false,
      "t": 78749.96850000013,
      "d": 1215.2772916666436,
      "v": 15
    },
    {
      "midi": 84,
      "hit": false,
      "t": 78958.30174999998,
      "d": 624.9997500000027,
      "v": 99
    },
    {
      "midi": 72,
      "hit": false,
      "t": 78958.30174999998,
      "d": 624.9997500000027,
      "v": 99
    },
    {
      "midi": 59,
      "hit": false,
      "t": 78958.30175000013,
      "d": 590.2775416666555,
      "v": 63
    },
    {
      "midi": 64,
      "hit": false,
      "t": 79374.96825000012,
      "d": 590.2775416666555,
      "v": 58
    },
    {
      "midi": 84,
      "hit": false,
      "t": 79583.30149999999,
      "d": 208.33324999999604,
      "v": 99
    },
    {
      "midi": 72,
      "hit": false,
      "t": 79583.30149999999,
      "d": 208.33324999999604,
      "v": 99
    },
    {
      "midi": 59,
      "hit": false,
      "t": 79583.30150000012,
      "d": 381.9442916666594,
      "v": 76
    },
    {
      "midi": 86,
      "hit": false,
      "t": 79791.63474999998,
      "d": 208.33324999999604,
      "v": 99
    },
    {
      "midi": 74,
      "hit": false,
      "t": 79791.63474999998,
      "d": 208.33324999999604,
      "v": 99
    },
    {
      "midi": 88,
      "hit": false,
      "t": 79999.96799999998,
      "d": 208.33324999999604,
      "v": 99
    },
    {
      "midi": 76,
      "hit": false,
      "t": 79999.96799999998,
      "d": 208.33324999999604,
      "v": 99
    },
    {
      "midi": 62,
      "hit": false,
      "t": 79999.96800000011,
      "d": 173.61104166666337,
      "v": 15
    },
    {
      "midi": 65,
      "hit": false,
      "t": 79999.96800000011,
      "d": 416.6664999999921,
      "v": 74
    },
    {
      "midi": 57,
      "hit": false,
      "t": 79999.96800000011,
      "d": 1631.9437916666648,
      "v": 76
    },
    {
      "midi": 86,
      "hit": false,
      "t": 80208.30124999997,
      "d": 208.33324999999604,
      "v": 99
    },
    {
      "midi": 74,
      "hit": false,
      "t": 80208.30124999997,
      "d": 208.33324999999604,
      "v": 99
    },
    {
      "midi": 62,
      "hit": false,
      "t": 80208.3012500001,
      "d": 833.3329999999987,
      "v": 76
    },
    {
      "midi": 86,
      "hit": false,
      "t": 80416.63449999997,
      "d": 208.33324999999604,
      "v": 99
    },
    {
      "midi": 74,
      "hit": false,
      "t": 80416.63449999997,
      "d": 208.33324999999604,
      "v": 99
    },
    {
      "midi": 69,
      "hit": false,
      "t": 80416.6345000001,
      "d": 208.33324999999604,
      "v": 58
    },
    {
      "midi": 84,
      "hit": false,
      "t": 80624.96774999997,
      "d": 208.33324999999604,
      "v": 99
    },
    {
      "midi": 72,
      "hit": false,
      "t": 80624.96774999997,
      "d": 208.33324999999604,
      "v": 99
    },
    {
      "midi": 65,
      "hit": false,
      "t": 80624.9677500001,
      "d": 833.3330000000133,
      "v": 70
    },
    {
      "midi": 84,
      "hit": false,
      "t": 80833.30099999996,
      "d": 208.33324999999604,
      "v": 99
    },
    {
      "midi": 72,
      "hit": false,
      "t": 80833.30099999996,
      "d": 208.33324999999604,
      "v": 99
    },
    {
      "midi": 62,
      "hit": false,
      "t": 81041.6342500001,
      "d": 590.27754166667,
      "v": 76
    },
    {
      "midi": 81,
      "hit": false,
      "t": 81249.96749999996,
      "d": 208.33324999999604,
      "v": 99
    },
    {
      "midi": 69,
      "hit": false,
      "t": 81249.96749999996,
      "d": 208.33324999999604,
      "v": 99
    },
    {
      "midi": 84,
      "hit": false,
      "t": 81458.30074999995,
      "d": 208.33324999999604,
      "v": 99
    },
    {
      "midi": 72,
      "hit": false,
      "t": 81458.30074999995,
      "d": 208.33324999999604,
      "v": 99
    },
    {
      "midi": 65,
      "hit": false,
      "t": 81458.30075000011,
      "d": 208.33324999999604,
      "v": 81
    },
    {
      "midi": 93,
      "hit": false,
      "t": 81666.63399999995,
      "d": 416.66650000000664,
      "v": 99
    },
    {
      "midi": 81,
      "hit": false,
      "t": 81666.63399999995,
      "d": 416.66650000000664,
      "v": 99
    },
    {
      "midi": 55,
      "hit": false,
      "t": 81666.63400000011,
      "d": 381.9442916666594,
      "v": 15
    },
    {
      "midi": 58,
      "hit": false,
      "t": 81666.63400000011,
      "d": 1006.9440416666621,
      "v": 76
    },
    {
      "midi": 62,
      "hit": false,
      "t": 81666.63400000011,
      "d": 1666.6659999999974,
      "v": 81
    },
    {
      "midi": 95,
      "hit": false,
      "t": 82083.30049999995,
      "d": 208.33324999999604,
      "v": 99
    },
    {
      "midi": 83,
      "hit": false,
      "t": 82083.30049999995,
      "d": 208.33324999999604,
      "v": 99
    },
    {
      "midi": 55,
      "hit": false,
      "t": 82083.3005000001,
      "d": 1041.6662500000093,
      "v": 70
    },
    {
      "midi": 91,
      "hit": false,
      "t": 82291.63374999995,
      "d": 208.33324999999604,
      "v": 99
    },
    {
      "midi": 79,
      "hit": false,
      "t": 82291.63374999995,
      "d": 208.33324999999604,
      "v": 99
    },
    {
      "midi": 91,
      "hit": false,
      "t": 82499.96699999995,
      "d": 208.33324999999604,
      "v": 99
    },
    {
      "midi": 79,
      "hit": false,
      "t": 82499.96699999995,
      "d": 208.33324999999604,
      "v": 99
    },
    {
      "midi": 96,
      "hit": false,
      "t": 82708.30024999994,
      "d": 416.66650000000664,
      "v": 99
    },
    {
      "midi": 84,
      "hit": false,
      "t": 82708.30024999994,
      "d": 416.66650000000664,
      "v": 99
    },
    {
      "midi": 58,
      "hit": false,
      "t": 82708.3002500001,
      "d": 624.9997500000027,
      "v": 81
    },
    {
      "midi": 95,
      "hit": false,
      "t": 83124.96674999995,
      "d": 208.33324999999604,
      "v": 99
    },
    {
      "midi": 83,
      "hit": false,
      "t": 83124.96674999995,
      "d": 208.33324999999604,
      "v": 99
    },
    {
      "midi": 55,
      "hit": false,
      "t": 83124.96675000011,
      "d": 208.33324999999604,
      "v": 30
    },
    {
      "midi": 93,
      "hit": false,
      "t": 83333.29999999994,
      "d": 208.33324999999604,
      "v": 99
    },
    {
      "midi": 81,
      "hit": false,
      "t": 83333.29999999994,
      "d": 208.33324999999604,
      "v": 99
    },
    {
      "midi": 55,
      "hit": false,
      "t": 83333.3000000001,
      "d": 416.66650000000664,
      "v": 30
    },
    {
      "midi": 64,
      "hit": false,
      "t": 83333.3000000001,
      "d": 624.9997500000027,
      "v": 43
    },
    {
      "midi": 60,
      "hit": false,
      "t": 83333.3000000001,
      "d": 1249.9995000000054,
      "v": 81
    },
    {
      "midi": 91,
      "hit": false,
      "t": 83541.63324999994,
      "d": 208.33324999999604,
      "v": 99
    },
    {
      "midi": 79,
      "hit": false,
      "t": 83541.63324999994,
      "d": 208.33324999999604,
      "v": 99
    },
    {
      "midi": 91,
      "hit": false,
      "t": 83749.96649999994,
      "d": 208.33324999999604,
      "v": 99
    },
    {
      "midi": 79,
      "hit": false,
      "t": 83749.96649999994,
      "d": 208.33324999999604,
      "v": 99
    },
    {
      "midi": 55,
      "hit": false,
      "t": 83749.96650000011,
      "d": 1041.6662499999948,
      "v": 58
    },
    {
      "midi": 88,
      "hit": false,
      "t": 83958.29974999993,
      "d": 208.33324999999604,
      "v": 99
    },
    {
      "midi": 76,
      "hit": false,
      "t": 83958.29974999993,
      "d": 208.33324999999604,
      "v": 99
    },
    {
      "midi": 67,
      "hit": false,
      "t": 83958.29975000011,
      "d": 416.66650000000664,
      "v": 69
    },
    {
      "midi": 91,
      "hit": false,
      "t": 84166.63299999993,
      "d": 208.33324999999604,
      "v": 99
    },
    {
      "midi": 79,
      "hit": false,
      "t": 84166.63299999993,
      "d": 208.33324999999604,
      "v": 99
    },
    {
      "midi": 91,
      "hit": false,
      "t": 84374.96624999992,
      "d": 208.33324999999604,
      "v": 99
    },
    {
      "midi": 79,
      "hit": false,
      "t": 84374.96624999992,
      "d": 208.33324999999604,
      "v": 99
    },
    {
      "midi": 64,
      "hit": false,
      "t": 84374.96625000011,
      "d": 624.9997499999881,
      "v": 70
    },
    {
      "midi": 91,
      "hit": false,
      "t": 84583.29949999992,
      "d": 208.33324999999604,
      "v": 99
    },
    {
      "midi": 79,
      "hit": false,
      "t": 84583.29949999992,
      "d": 208.33324999999604,
      "v": 99
    },
    {
      "midi": 60,
      "hit": false,
      "t": 84583.29950000011,
      "d": 416.6664999999921,
      "v": 65
    },
    {
      "midi": 88,
      "hit": false,
      "t": 84791.63274999992,
      "d": 208.33324999999604,
      "v": 99
    },
    {
      "midi": 76,
      "hit": false,
      "t": 84791.63274999992,
      "d": 208.33324999999604,
      "v": 99
    },
    {
      "midi": 55,
      "hit": false,
      "t": 84791.6327500001,
      "d": 624.9997500000027,
      "v": 41
    },
    {
      "midi": 91,
      "hit": false,
      "t": 84999.96599999991,
      "d": 208.33324999999604,
      "v": 99
    },
    {
      "midi": 79,
      "hit": false,
      "t": 84999.96599999991,
      "d": 208.33324999999604,
      "v": 99
    },
    {
      "midi": 60,
      "hit": false,
      "t": 84999.9660000001,
      "d": 624.9997500000027,
      "v": 74
    },
    {
      "midi": 64,
      "hit": false,
      "t": 84999.9660000001,
      "d": 1041.6662500000093,
      "v": 76
    },
    {
      "midi": 93,
      "hit": false,
      "t": 85208.29924999991,
      "d": 208.33324999999604,
      "v": 99
    },
    {
      "midi": 81,
      "hit": false,
      "t": 85208.29924999991,
      "d": 208.33324999999604,
      "v": 99
    },
    {
      "midi": 91,
      "hit": false,
      "t": 85416.6324999999,
      "d": 624.9997500000027,
      "v": 99
    },
    {
      "midi": 79,
      "hit": false,
      "t": 85416.6324999999,
      "d": 624.9997500000027,
      "v": 99
    },
    {
      "midi": 55,
      "hit": false,
      "t": 85416.63250000011,
      "d": 1041.6662499999948,
      "v": 65
    },
    {
      "midi": 60,
      "hit": false,
      "t": 85624.9657500001,
      "d": 624.9997500000027,
      "v": 70
    },
    {
      "midi": 96,
      "hit": false,
      "t": 86041.63224999991,
      "d": 416.66650000000664,
      "v": 99
    },
    {
      "midi": 84,
      "hit": false,
      "t": 86041.63224999991,
      "d": 416.66650000000664,
      "v": 99
    },
    {
      "midi": 64,
      "hit": false,
      "t": 86041.63225000011,
      "d": 624.9997499999881,
      "v": 70
    },
    {
      "midi": 60,
      "hit": false,
      "t": 86249.96550000011,
      "d": 416.6664999999921,
      "v": 64
    },
    {
      "midi": 98,
      "hit": false,
      "t": 86458.29874999991,
      "d": 208.33324999999604,
      "v": 99
    },
    {
      "midi": 86,
      "hit": false,
      "t": 86458.29874999991,
      "d": 208.33324999999604,
      "v": 99
    },
    {
      "midi": 55,
      "hit": false,
      "t": 86458.2987500001,
      "d": 208.33324999999604,
      "v": 48
    },
    {
      "midi": 95,
      "hit": false,
      "t": 86666.63199999991,
      "d": 208.33324999999604,
      "v": 99
    },
    {
      "midi": 83,
      "hit": false,
      "t": 86666.63199999991,
      "d": 208.33324999999604,
      "v": 99
    },
    {
      "midi": 59,
      "hit": false,
      "t": 86666.6320000001,
      "d": 208.33324999999604,
      "v": 64
    },
    {
      "midi": 64,
      "hit": false,
      "t": 86666.6320000001,
      "d": 416.6664999999921,
      "v": 69
    },
    {
      "midi": 55,
      "hit": false,
      "t": 86666.6320000001,
      "d": 1249.9994999999908,
      "v": 48
    },
    {
      "midi": 91,
      "hit": false,
      "t": 86874.9652499999,
      "d": 208.33324999999604,
      "v": 99
    },
    {
      "midi": 79,
      "hit": false,
      "t": 86874.9652499999,
      "d": 208.33324999999604,
      "v": 99
    },
    {
      "midi": 59,
      "hit": false,
      "t": 86874.9652500001,
      "d": 624.9997499999881,
      "v": 49
    },
    {
      "midi": 91,
      "hit": false,
      "t": 87083.2984999999,
      "d": 208.33324999999604,
      "v": 99
    },
    {
      "midi": 79,
      "hit": false,
      "t": 87083.2984999999,
      "d": 208.33324999999604,
      "v": 99
    },
    {
      "midi": 67,
      "hit": false,
      "t": 87083.29850000009,
      "d": 208.33324999999604,
      "v": 43
    },
    {
      "midi": 88,
      "hit": false,
      "t": 87291.6317499999,
      "d": 208.33324999999604,
      "v": 99
    },
    {
      "midi": 76,
      "hit": false,
      "t": 87291.6317499999,
      "d": 208.33324999999604,
      "v": 99
    },
    {
      "midi": 64,
      "hit": false,
      "t": 87291.63175000009,
      "d": 1041.6662500000093,
      "v": 76
    },
    {
      "midi": 91,
      "hit": false,
      "t": 87499.9649999999,
      "d": 208.33324999999604,
      "v": 99
    },
    {
      "midi": 79,
      "hit": false,
      "t": 87499.9649999999,
      "d": 208.33324999999604,
      "v": 99
    },
    {
      "midi": 59,
      "hit": false,
      "t": 87499.96500000008,
      "d": 833.3330000000133,
      "v": 41
    },
    {
      "midi": 93,
      "hit": false,
      "t": 87708.29824999989,
      "d": 208.33324999999604,
      "v": 99
    },
    {
      "midi": 81,
      "hit": false,
      "t": 87708.29824999989,
      "d": 208.33324999999604,
      "v": 99
    },
    {
      "midi": 96,
      "hit": false,
      "t": 87916.63149999989,
      "d": 416.66650000000664,
      "v": 99
    },
    {
      "midi": 84,
      "hit": false,
      "t": 87916.63149999989,
      "d": 416.66650000000664,
      "v": 99
    },
    {
      "midi": 55,
      "hit": false,
      "t": 87916.63150000009,
      "d": 416.66650000000664,
      "v": 41
    },
    {
      "midi": 98,
      "hit": false,
      "t": 88333.2979999999,
      "d": 416.66650000000664,
      "v": 99
    },
    {
      "midi": 86,
      "hit": false,
      "t": 88333.2979999999,
      "d": 416.66650000000664,
      "v": 99
    },
    {
      "midi": 64,
      "hit": false,
      "t": 88333.2980000001,
      "d": 1006.9440416666621,
      "v": 50
    },
    {
      "midi": 93,
      "hit": false,
      "t": 88749.9644999999,
      "d": 208.33324999999604,
      "v": 99
    },
    {
      "midi": 81,
      "hit": false,
      "t": 88749.9644999999,
      "d": 208.33324999999604,
      "v": 99
    },
    {
      "midi": 57,
      "hit": false,
      "t": 88749.9645000001,
      "d": 1215.2772916666436,
      "v": 15
    },
    {
      "midi": 96,
      "hit": false,
      "t": 88958.2977499999,
      "d": 624.9997500000027,
      "v": 99
    },
    {
      "midi": 84,
      "hit": false,
      "t": 88958.2977499999,
      "d": 624.9997500000027,
      "v": 99
    },
    {
      "midi": 60,
      "hit": false,
      "t": 88958.2977500001,
      "d": 590.2775416666555,
      "v": 63
    },
    {
      "midi": 64,
      "hit": false,
      "t": 89374.96425000009,
      "d": 590.2775416666555,
      "v": 58
    },
    {
      "midi": 96,
      "hit": false,
      "t": 89583.2974999999,
      "d": 208.33324999999604,
      "v": 99
    },
    {
      "midi": 84,
      "hit": false,
      "t": 89583.2974999999,
      "d": 208.33324999999604,
      "v": 99
    },
    {
      "midi": 60,
      "hit": false,
      "t": 89583.29750000009,
      "d": 381.9442916666594,
      "v": 76
    },
    {
      "midi": 98,
      "hit": false,
      "t": 89791.6307499999,
      "d": 208.33324999999604,
      "v": 99
    },
    {
      "midi": 86,
      "hit": false,
      "t": 89791.6307499999,
      "d": 208.33324999999604,
      "v": 99
    },
    {
      "midi": 100,
      "hit": false,
      "t": 89999.96399999989,
      "d": 416.66650000000664,
      "v": 99
    },
    {
      "midi": 88,
      "hit": false,
      "t": 89999.96399999989,
      "d": 416.66650000000664,
      "v": 99
    },
    {
      "midi": 60,
      "hit": false,
      "t": 89999.96400000008,
      "d": 173.61104166666337,
      "v": 15
    },
    {
      "midi": 65,
      "hit": false,
      "t": 89999.96400000008,
      "d": 416.6664999999921,
      "v": 74
    },
    {
      "midi": 57,
      "hit": false,
      "t": 89999.96400000008,
      "d": 1631.9437916666648,
      "v": 76
    },
    {
      "midi": 60,
      "hit": false,
      "t": 90208.29725000008,
      "d": 833.3329999999987,
      "v": 76
    },
    {
      "midi": 98,
      "hit": false,
      "t": 90416.6304999999,
      "d": 208.33324999999604,
      "v": 99
    },
    {
      "midi": 86,
      "hit": false,
      "t": 90416.6304999999,
      "d": 208.33324999999604,
      "v": 99
    },
    {
      "midi": 69,
      "hit": false,
      "t": 90416.63050000007,
      "d": 208.33324999999604,
      "v": 58
    },
    {
      "midi": 96,
      "hit": false,
      "t": 90624.9637499999,
      "d": 208.33324999999604,
      "v": 99
    },
    {
      "midi": 84,
      "hit": false,
      "t": 90624.9637499999,
      "d": 208.33324999999604,
      "v": 99
    },
    {
      "midi": 65,
      "hit": false,
      "t": 90624.96375000007,
      "d": 833.3330000000133,
      "v": 70
    },
    {
      "midi": 93,
      "hit": false,
      "t": 90833.29699999989,
      "d": 416.66650000000664,
      "v": 99
    },
    {
      "midi": 81,
      "hit": false,
      "t": 90833.29699999989,
      "d": 416.66650000000664,
      "v": 99
    },
    {
      "midi": 60,
      "hit": false,
      "t": 91041.63025000007,
      "d": 590.27754166667,
      "v": 76
    },
    {
      "midi": 96,
      "hit": false,
      "t": 91249.9634999999,
      "d": 208.33324999999604,
      "v": 99
    },
    {
      "midi": 84,
      "hit": false,
      "t": 91249.9634999999,
      "d": 208.33324999999604,
      "v": 99
    },
    {
      "midi": 98,
      "hit": false,
      "t": 91458.29674999989,
      "d": 208.33324999999604,
      "v": 99
    },
    {
      "midi": 86,
      "hit": false,
      "t": 91458.29674999989,
      "d": 208.33324999999604,
      "v": 99
    },
    {
      "midi": 65,
      "hit": false,
      "t": 91458.29675000008,
      "d": 208.33324999999604,
      "v": 81
    },
    {
      "midi": 95,
      "hit": false,
      "t": 91666.62999999989,
      "d": 208.33324999999604,
      "v": 99
    },
    {
      "midi": 83,
      "hit": false,
      "t": 91666.62999999989,
      "d": 208.33324999999604,
      "v": 99
    },
    {
      "midi": 55,
      "hit": false,
      "t": 91666.63000000008,
      "d": 381.9442916666594,
      "v": 15
    },
    {
      "midi": 59,
      "hit": false,
      "t": 91666.63000000008,
      "d": 833.3329999999987,
      "v": 76
    },
    {
      "midi": 64,
      "hit": false,
      "t": 91666.63000000008,
      "d": 833.3329999999987,
      "v": 81
    },
    {
      "midi": 91,
      "hit": false,
      "t": 91874.96324999988,
      "d": 208.33324999999604,
      "v": 99
    },
    {
      "midi": 79,
      "hit": false,
      "t": 91874.96324999988,
      "d": 208.33324999999604,
      "v": 99
    },
    {
      "midi": 88,
      "hit": false,
      "t": 92083.29649999988,
      "d": 416.66650000000664,
      "v": 99
    },
    {
      "midi": 76,
      "hit": false,
      "t": 92083.29649999988,
      "d": 416.66650000000664,
      "v": 99
    },
    {
      "midi": 55,
      "hit": false,
      "t": 92083.29650000007,
      "d": 416.66650000000664,
      "v": 70
    },
    {
      "midi": 96,
      "hit": false,
      "t": 92499.96299999989,
      "d": 416.66650000000664,
      "v": 99
    },
    {
      "midi": 84,
      "hit": false,
      "t": 92499.96299999989,
      "d": 416.66650000000664,
      "v": 99
    },
    {
      "midi": 60,
      "hit": false,
      "t": 92499.96300000008,
      "d": 173.61104166666337,
      "v": 76
    },
    {
      "midi": 57,
      "hit": false,
      "t": 92499.96300000008,
      "d": 624.9997500000027,
      "v": 70
    },
    {
      "midi": 64,
      "hit": false,
      "t": 92499.96300000008,
      "d": 833.3329999999987,
      "v": 81
    },
    {
      "midi": 60,
      "hit": false,
      "t": 92708.29625000007,
      "d": 624.9997500000027,
      "v": 81
    },
    {
      "midi": 91,
      "hit": false,
      "t": 92916.6294999999,
      "d": 208.33324999999604,
      "v": 99
    },
    {
      "midi": 79,
      "hit": false,
      "t": 92916.6294999999,
      "d": 208.33324999999604,
      "v": 99
    },
    {
      "midi": 93,
      "hit": false,
      "t": 93124.96274999989,
      "d": 208.33324999999604,
      "v": 99
    },
    {
      "midi": 81,
      "hit": false,
      "t": 93124.96274999989,
      "d": 208.33324999999604,
      "v": 99
    },
    {
      "midi": 57,
      "hit": false,
      "t": 93124.96275000008,
      "d": 208.33324999999604,
      "v": 30
    },
    {
      "midi": 96,
      "hit": false,
      "t": 93333.29599999989,
      "d": 208.33324999999604,
      "v": 99
    },
    {
      "midi": 84,
      "hit": false,
      "t": 93333.29599999989,
      "d": 208.33324999999604,
      "v": 99
    },
    {
      "midi": 57,
      "hit": false,
      "t": 93333.29600000007,
      "d": 416.66650000000664,
      "v": 30
    },
    {
      "midi": 65,
      "hit": false,
      "t": 93333.29600000007,
      "d": 624.9997500000027,
      "v": 43
    },
    {
      "midi": 62,
      "hit": false,
      "t": 93333.29600000007,
      "d": 1249.9995000000054,
      "v": 81
    },
    {
      "midi": 93,
      "hit": false,
      "t": 93541.62924999988,
      "d": 208.33324999999604,
      "v": 99
    },
    {
      "midi": 81,
      "hit": false,
      "t": 93541.62924999988,
      "d": 208.33324999999604,
      "v": 99
    },
    {
      "midi": 93,
      "hit": false,
      "t": 93749.96249999988,
      "d": 208.33324999999604,
      "v": 99
    },
    {
      "midi": 81,
      "hit": false,
      "t": 93749.96249999988,
      "d": 208.33324999999604,
      "v": 99
    },
    {
      "midi": 57,
      "hit": false,
      "t": 93749.96250000008,
      "d": 1041.6662499999948,
      "v": 58
    },
    {
      "midi": 91,
      "hit": false,
      "t": 93958.29574999987,
      "d": 208.33324999999604,
      "v": 99
    },
    {
      "midi": 79,
      "hit": false,
      "t": 93958.29574999987,
      "d": 208.33324999999604,
      "v": 99
    },
    {
      "midi": 69,
      "hit": false,
      "t": 93958.29575000008,
      "d": 416.66650000000664,
      "v": 69
    },
    {
      "midi": 93,
      "hit": false,
      "t": 94166.62899999987,
      "d": 208.33324999999604,
      "v": 99
    },
    {
      "midi": 81,
      "hit": false,
      "t": 94166.62899999987,
      "d": 208.33324999999604,
      "v": 99
    },
    {
      "midi": 96,
      "hit": false,
      "t": 94374.96224999987,
      "d": 624.9997500000027,
      "v": 99
    },
    {
      "midi": 84,
      "hit": false,
      "t": 94374.96224999987,
      "d": 624.9997500000027,
      "v": 99
    },
    {
      "midi": 65,
      "hit": false,
      "t": 94374.96225000008,
      "d": 624.9997499999881,
      "v": 70
    },
    {
      "midi": 62,
      "hit": false,
      "t": 94583.29550000008,
      "d": 416.6664999999921,
      "v": 65
    },
    {
      "midi": 57,
      "hit": false,
      "t": 94791.62875000008,
      "d": 208.33324999999604,
      "v": 41
    },
    {
      "midi": 100,
      "hit": false,
      "t": 94999.96199999987,
      "d": 416.66650000000664,
      "v": 99
    },
    {
      "midi": 88,
      "hit": false,
      "t": 94999.96199999987,
      "d": 416.66650000000664,
      "v": 99
    },
    {
      "midi": 55,
      "hit": false,
      "t": 94999.96200000007,
      "d": 416.66650000000664,
      "v": 41
    },
    {
      "midi": 58,
      "hit": false,
      "t": 94999.96200000007,
      "d": 624.9997500000027,
      "v": 74
    },
    {
      "midi": 62,
      "hit": false,
      "t": 94999.96200000007,
      "d": 1041.6662500000093,
      "v": 76
    },
    {
      "midi": 98,
      "hit": false,
      "t": 95416.62849999988,
      "d": 833.3329999999987,
      "v": 99
    },
    {
      "midi": 86,
      "hit": false,
      "t": 95416.62849999988,
      "d": 833.3329999999987,
      "v": 99
    },
    {
      "midi": 55,
      "hit": false,
      "t": 95416.62850000008,
      "d": 1041.6662499999948,
      "v": 65
    },
    {
      "midi": 58,
      "hit": false,
      "t": 95624.96175000007,
      "d": 624.9997500000027,
      "v": 70
    },
    {
      "midi": 62,
      "hit": false,
      "t": 96041.62825000008,
      "d": 624.9997499999881,
      "v": 70
    },
    {
      "midi": 96,
      "hit": false,
      "t": 96249.96149999987,
      "d": 208.33324999999604,
      "v": 99
    },
    {
      "midi": 84,
      "hit": false,
      "t": 96249.96149999987,
      "d": 208.33324999999604,
      "v": 99
    },
    {
      "midi": 58,
      "hit": false,
      "t": 96249.96150000008,
      "d": 416.6664999999921,
      "v": 64
    },
    {
      "midi": 98,
      "hit": false,
      "t": 96458.29474999987,
      "d": 208.33324999999604,
      "v": 99
    },
    {
      "midi": 86,
      "hit": false,
      "t": 96458.29474999987,
      "d": 208.33324999999604,
      "v": 99
    },
    {
      "midi": 55,
      "hit": false,
      "t": 96458.29475000007,
      "d": 208.33324999999604,
      "v": 48
    },
    {
      "midi": 96,
      "hit": false,
      "t": 96666.62799999987,
      "d": 5833.331000000006,
      "v": 99
    },
    {
      "midi": 84,
      "hit": false,
      "t": 96666.62799999987,
      "d": 5833.331000000006,
      "v": 99
    },
    {
      "midi": 60,
      "hit": false,
      "t": 96666.62800000007,
      "d": 208.33324999999604,
      "v": 64
    },
    {
      "midi": 64,
      "hit": false,
      "t": 96666.62800000007,
      "d": 416.6664999999921,
      "v": 69
    },
    {
      "midi": 55,
      "hit": false,
      "t": 96666.62800000007,
      "d": 1249.9994999999908,
      "v": 48
    },
    {
      "midi": 60,
      "hit": false,
      "t": 96874.96125000007,
      "d": 624.9997499999881,
      "v": 49
    },
    {
      "midi": 67,
      "hit": false,
      "t": 97083.29450000006,
      "d": 208.33324999999604,
      "v": 43
    },
    {
      "midi": 64,
      "hit": false,
      "t": 97291.62775000006,
      "d": 1041.6662500000093,
      "v": 76
    },
    {
      "midi": 60,
      "hit": false,
      "t": 97499.96100000005,
      "d": 833.3330000000133,
      "v": 41
    },
    {
      "midi": 55,
      "hit": false,
      "t": 97916.62750000006,
      "d": 416.66650000000664,
      "v": 41
    },
    {
      "midi": 64,
      "hit": false,
      "t": 98333.29400000007,
      "d": 1006.9440416666621,
      "v": 50
    },
    {
      "midi": 55,
      "hit": false,
      "t": 98749.96050000007,
      "d": 1215.2772916666436,
      "v": 15
    },
    {
      "midi": 60,
      "hit": false,
      "t": 98958.29375000007,
      "d": 590.2775416666555,
      "v": 63
    },
    {
      "midi": 64,
      "hit": false,
      "t": 99374.96025000006,
      "d": 590.2775416666555,
      "v": 58
    },
    {
      "midi": 60,
      "hit": false,
      "t": 99583.29350000006,
      "d": 381.9442916666594,
      "v": 76
    },
    {
      "midi": 55,
      "hit": false,
      "t": 99999.96000000005,
      "d": 69.44441666666535,
      "v": 49
    },
    {
      "midi": 60,
      "hit": false,
      "t": 99999.96000000005,
      "d": 69.44441666666535,
      "v": 82
    },
    {
      "midi": 64,
      "hit": false,
      "t": 99999.96000000005,
      "d": 69.44441666666535,
      "v": 84
    },
    {
      "midi": 55,
      "hit": false,
      "t": 100416.62650000004,
      "d": 2881.94329166667,
      "v": 41
    },
    {
      "midi": 60,
      "hit": false,
      "t": 100416.62650000004,
      "d": 2881.94329166667,
      "v": 74
    },
    {
      "midi": 64,
      "hit": false,
      "t": 100416.62650000004,
      "d": 2881.94329166667,
      "v": 76
    },
    {
      "midi": 97,
      "hit": false,
      "t": 102499.95899999987,
      "d": 416.66650000000664,
      "v": 99
    },
    {
      "midi": 85,
      "hit": false,
      "t": 102499.95899999987,
      "d": 416.66650000000664,
      "v": 99
    },
    {
      "midi": 96,
      "hit": false,
      "t": 102916.62549999988,
      "d": 416.66650000000664,
      "v": 99
    },
    {
      "midi": 84,
      "hit": false,
      "t": 102916.62549999988,
      "d": 416.66650000000664,
      "v": 99
    },
    {
      "midi": 94,
      "hit": false,
      "t": 103333.29199999988,
      "d": 208.33324999999604,
      "v": 99
    },
    {
      "midi": 82,
      "hit": false,
      "t": 103333.29199999988,
      "d": 208.33324999999604,
      "v": 99
    },
    {
      "midi": 61,
      "hit": false,
      "t": 103333.29200000004,
      "d": 173.61104166666337,
      "v": 15
    },
    {
      "midi": 65,
      "hit": false,
      "t": 103333.29200000004,
      "d": 416.6664999999921,
      "v": 74
    },
    {
      "midi": 56,
      "hit": false,
      "t": 103333.29200000004,
      "d": 1631.9437916666648,
      "v": 76
    },
    {
      "midi": 92,
      "hit": false,
      "t": 103541.62524999988,
      "d": 208.33324999999604,
      "v": 99
    },
    {
      "midi": 80,
      "hit": false,
      "t": 103541.62524999988,
      "d": 208.33324999999604,
      "v": 99
    },
    {
      "midi": 61,
      "hit": false,
      "t": 103541.62525000004,
      "d": 833.3329999999987,
      "v": 76
    },
    {
      "midi": 92,
      "hit": false,
      "t": 103749.95849999988,
      "d": 208.33324999999604,
      "v": 99
    },
    {
      "midi": 80,
      "hit": false,
      "t": 103749.95849999988,
      "d": 208.33324999999604,
      "v": 99
    },
    {
      "midi": 68,
      "hit": false,
      "t": 103749.95850000004,
      "d": 208.33324999999604,
      "v": 58
    },
    {
      "midi": 89,
      "hit": false,
      "t": 103958.29174999987,
      "d": 208.33324999999604,
      "v": 99
    },
    {
      "midi": 77,
      "hit": false,
      "t": 103958.29174999987,
      "d": 208.33324999999604,
      "v": 99
    },
    {
      "midi": 65,
      "hit": false,
      "t": 103958.29175000003,
      "d": 833.3330000000133,
      "v": 70
    },
    {
      "midi": 92,
      "hit": false,
      "t": 104166.62499999987,
      "d": 208.33324999999604,
      "v": 99
    },
    {
      "midi": 80,
      "hit": false,
      "t": 104166.62499999987,
      "d": 208.33324999999604,
      "v": 99
    },
    {
      "midi": 92,
      "hit": false,
      "t": 104374.95824999987,
      "d": 208.33324999999604,
      "v": 99
    },
    {
      "midi": 80,
      "hit": false,
      "t": 104374.95824999987,
      "d": 208.33324999999604,
      "v": 99
    },
    {
      "midi": 61,
      "hit": false,
      "t": 104374.95825000004,
      "d": 590.27754166667,
      "v": 76
    },
    {
      "midi": 92,
      "hit": false,
      "t": 104583.29149999986,
      "d": 208.33324999999604,
      "v": 99
    },
    {
      "midi": 80,
      "hit": false,
      "t": 104583.29149999986,
      "d": 208.33324999999604,
      "v": 99
    },
    {
      "midi": 89,
      "hit": false,
      "t": 104791.62474999986,
      "d": 208.33324999999604,
      "v": 99
    },
    {
      "midi": 77,
      "hit": false,
      "t": 104791.62474999986,
      "d": 208.33324999999604,
      "v": 99
    },
    {
      "midi": 65,
      "hit": false,
      "t": 104791.62475000005,
      "d": 1874.9992499999935,
      "v": 81
    },
    {
      "midi": 92,
      "hit": false,
      "t": 104999.95799999985,
      "d": 208.33324999999604,
      "v": 99
    },
    {
      "midi": 80,
      "hit": false,
      "t": 104999.95799999985,
      "d": 208.33324999999604,
      "v": 99
    },
    {
      "midi": 56,
      "hit": false,
      "t": 104999.95800000004,
      "d": 381.9442916666594,
      "v": 15
    },
    {
      "midi": 61,
      "hit": false,
      "t": 104999.95800000004,
      "d": 1006.9440416666621,
      "v": 76
    },
    {
      "midi": 94,
      "hit": false,
      "t": 105208.29124999985,
      "d": 208.33324999999604,
      "v": 99
    },
    {
      "midi": 82,
      "hit": false,
      "t": 105208.29124999985,
      "d": 208.33324999999604,
      "v": 99
    },
    {
      "midi": 92,
      "hit": false,
      "t": 105416.62449999985,
      "d": 624.9997500000027,
      "v": 99
    },
    {
      "midi": 80,
      "hit": false,
      "t": 105416.62449999985,
      "d": 624.9997500000027,
      "v": 99
    },
    {
      "midi": 56,
      "hit": false,
      "t": 105416.62450000003,
      "d": 1041.6662500000093,
      "v": 70
    },
    {
      "midi": 97,
      "hit": false,
      "t": 106041.62424999985,
      "d": 416.66650000000664,
      "v": 99
    },
    {
      "midi": 85,
      "hit": false,
      "t": 106041.62424999985,
      "d": 416.66650000000664,
      "v": 99
    },
    {
      "midi": 61,
      "hit": false,
      "t": 106041.62425000004,
      "d": 624.9997500000027,
      "v": 81
    },
    {
      "midi": 96,
      "hit": false,
      "t": 106458.29074999985,
      "d": 208.33324999999604,
      "v": 99
    },
    {
      "midi": 84,
      "hit": false,
      "t": 106458.29074999985,
      "d": 208.33324999999604,
      "v": 99
    },
    {
      "midi": 56,
      "hit": false,
      "t": 106458.29075000004,
      "d": 208.33324999999604,
      "v": 30
    },
    {
      "midi": 94,
      "hit": false,
      "t": 106666.62399999985,
      "d": 208.33324999999604,
      "v": 99
    },
    {
      "midi": 82,
      "hit": false,
      "t": 106666.62399999985,
      "d": 208.33324999999604,
      "v": 99
    },
    {
      "midi": 56,
      "hit": false,
      "t": 106666.62400000004,
      "d": 416.66650000000664,
      "v": 30
    },
    {
      "midi": 65,
      "hit": false,
      "t": 106666.62400000004,
      "d": 624.9997500000027,
      "v": 43
    },
    {
      "midi": 60,
      "hit": false,
      "t": 106666.62400000004,
      "d": 1249.9995000000054,
      "v": 81
    },
    {
      "midi": 80,
      "hit": false,
      "t": 106874.95724999985,
      "d": 208.33324999999604,
      "v": 99
    },
    {
      "midi": 92,
      "hit": false,
      "t": 107083.29049999984,
      "d": 208.33324999999604,
      "v": 99
    },
    {
      "midi": 80,
      "hit": false,
      "t": 107083.29049999984,
      "d": 208.33324999999604,
      "v": 99
    },
    {
      "midi": 56,
      "hit": false,
      "t": 107083.29050000005,
      "d": 1041.6662499999948,
      "v": 58
    },
    {
      "midi": 89,
      "hit": false,
      "t": 107291.62374999984,
      "d": 208.33324999999604,
      "v": 99
    },
    {
      "midi": 77,
      "hit": false,
      "t": 107291.62374999984,
      "d": 208.33324999999604,
      "v": 99
    },
    {
      "midi": 68,
      "hit": false,
      "t": 107291.62375000004,
      "d": 416.66650000000664,
      "v": 69
    },
    {
      "midi": 92,
      "hit": false,
      "t": 107499.95699999983,
      "d": 208.33324999999604,
      "v": 99
    },
    {
      "midi": 80,
      "hit": false,
      "t": 107499.95699999983,
      "d": 208.33324999999604,
      "v": 99
    },
    {
      "midi": 92,
      "hit": false,
      "t": 107708.29024999983,
      "d": 208.33324999999604,
      "v": 99
    },
    {
      "midi": 80,
      "hit": false,
      "t": 107708.29024999983,
      "d": 208.33324999999604,
      "v": 99
    },
    {
      "midi": 65,
      "hit": false,
      "t": 107708.29025000005,
      "d": 624.9997499999881,
      "v": 70
    },
    {
      "midi": 89,
      "hit": false,
      "t": 107916.62349999983,
      "d": 416.66650000000664,
      "v": 99
    },
    {
      "midi": 77,
      "hit": false,
      "t": 107916.62349999983,
      "d": 416.66650000000664,
      "v": 99
    },
    {
      "midi": 60,
      "hit": false,
      "t": 107916.62350000005,
      "d": 416.6664999999921,
      "v": 65
    },
    {
      "midi": 56,
      "hit": false,
      "t": 108124.95675000004,
      "d": 208.33324999999604,
      "v": 41
    },
    {
      "midi": 94,
      "hit": false,
      "t": 108333.28999999983,
      "d": 208.33324999999604,
      "v": 99
    },
    {
      "midi": 82,
      "hit": false,
      "t": 108333.28999999983,
      "d": 208.33324999999604,
      "v": 99
    },
    {
      "midi": 58,
      "hit": false,
      "t": 108333.29000000004,
      "d": 416.66650000000664,
      "v": 41
    },
    {
      "midi": 61,
      "hit": false,
      "t": 108333.29000000004,
      "d": 624.9997500000027,
      "v": 74
    },
    {
      "midi": 65,
      "hit": false,
      "t": 108333.29000000004,
      "d": 1041.6662500000093,
      "v": 76
    },
    {
      "midi": 89,
      "hit": false,
      "t": 108541.62324999983,
      "d": 208.33324999999604,
      "v": 99
    },
    {
      "midi": 77,
      "hit": false,
      "t": 108541.62324999983,
      "d": 208.33324999999604,
      "v": 99
    },
    {
      "midi": 87,
      "hit": false,
      "t": 108749.95649999983,
      "d": 208.33324999999604,
      "v": 99
    },
    {
      "midi": 75,
      "hit": false,
      "t": 108749.95649999983,
      "d": 208.33324999999604,
      "v": 99
    },
    {
      "midi": 58,
      "hit": false,
      "t": 108749.95650000004,
      "d": 1041.6662499999948,
      "v": 65
    },
    {
      "midi": 85,
      "hit": false,
      "t": 108958.28974999982,
      "d": 624.9997500000027,
      "v": 99
    },
    {
      "midi": 73,
      "hit": false,
      "t": 108958.28974999982,
      "d": 624.9997500000027,
      "v": 99
    },
    {
      "midi": 61,
      "hit": false,
      "t": 108958.28975000004,
      "d": 624.9997500000027,
      "v": 70
    },
    {
      "midi": 65,
      "hit": false,
      "t": 109374.95625000005,
      "d": 624.9997499999881,
      "v": 70
    },
    {
      "midi": 85,
      "hit": false,
      "t": 109583.28949999982,
      "d": 208.33324999999604,
      "v": 99
    },
    {
      "midi": 73,
      "hit": false,
      "t": 109583.28949999982,
      "d": 208.33324999999604,
      "v": 99
    },
    {
      "midi": 61,
      "hit": false,
      "t": 109583.28950000004,
      "d": 416.6664999999921,
      "v": 64
    },
    {
      "midi": 87,
      "hit": false,
      "t": 109791.62274999982,
      "d": 208.33324999999604,
      "v": 99
    },
    {
      "midi": 75,
      "hit": false,
      "t": 109791.62274999982,
      "d": 208.33324999999604,
      "v": 99
    },
    {
      "midi": 58,
      "hit": false,
      "t": 109791.62275000004,
      "d": 208.33324999999604,
      "v": 48
    },
    {
      "midi": 89,
      "hit": false,
      "t": 109999.95599999982,
      "d": 208.33324999999604,
      "v": 99
    },
    {
      "midi": 77,
      "hit": false,
      "t": 109999.95599999982,
      "d": 208.33324999999604,
      "v": 99
    },
    {
      "midi": 61,
      "hit": false,
      "t": 109999.95600000003,
      "d": 208.33324999999604,
      "v": 64
    },
    {
      "midi": 66,
      "hit": false,
      "t": 109999.95600000003,
      "d": 416.6664999999921,
      "v": 69
    },
    {
      "midi": 58,
      "hit": false,
      "t": 109999.95600000003,
      "d": 1249.9994999999908,
      "v": 48
    },
    {
      "midi": 87,
      "hit": false,
      "t": 110208.28924999981,
      "d": 208.33324999999604,
      "v": 99
    },
    {
      "midi": 75,
      "hit": false,
      "t": 110208.28924999981,
      "d": 208.33324999999604,
      "v": 99
    },
    {
      "midi": 61,
      "hit": false,
      "t": 110208.28925000003,
      "d": 624.9997499999881,
      "v": 49
    },
    {
      "midi": 85,
      "hit": false,
      "t": 110416.62249999981,
      "d": 208.33324999999604,
      "v": 99
    },
    {
      "midi": 73,
      "hit": false,
      "t": 110416.62249999981,
      "d": 208.33324999999604,
      "v": 99
    },
    {
      "midi": 70,
      "hit": false,
      "t": 110416.62250000003,
      "d": 208.33324999999604,
      "v": 43
    },
    {
      "midi": 85,
      "hit": false,
      "t": 110624.9557499998,
      "d": 624.9997500000027,
      "v": 99
    },
    {
      "midi": 73,
      "hit": false,
      "t": 110624.9557499998,
      "d": 624.9997500000027,
      "v": 99
    },
    {
      "midi": 66,
      "hit": false,
      "t": 110624.95575000002,
      "d": 1041.6662500000093,
      "v": 76
    },
    {
      "midi": 61,
      "hit": false,
      "t": 110833.28900000002,
      "d": 833.3330000000133,
      "v": 41
    },
    {
      "midi": 85,
      "hit": false,
      "t": 111249.9554999998,
      "d": 208.33324999999604,
      "v": 99
    },
    {
      "midi": 73,
      "hit": false,
      "t": 111249.9554999998,
      "d": 208.33324999999604,
      "v": 99
    },
    {
      "midi": 58,
      "hit": false,
      "t": 111249.95550000003,
      "d": 416.66650000000664,
      "v": 41
    },
    {
      "midi": 94,
      "hit": false,
      "t": 111458.2887499998,
      "d": 208.33324999999604,
      "v": 99
    },
    {
      "midi": 82,
      "hit": false,
      "t": 111458.2887499998,
      "d": 208.33324999999604,
      "v": 99
    },
    {
      "midi": 92,
      "hit": false,
      "t": 111666.6219999998,
      "d": 208.33324999999604,
      "v": 99
    },
    {
      "midi": 80,
      "hit": false,
      "t": 111666.6219999998,
      "d": 208.33324999999604,
      "v": 99
    },
    {
      "midi": 65,
      "hit": false,
      "t": 111666.62200000003,
      "d": 1006.9440416666621,
      "v": 50
    },
    {
      "midi": 89,
      "hit": false,
      "t": 111874.9552499998,
      "d": 208.33324999999604,
      "v": 99
    },
    {
      "midi": 77,
      "hit": false,
      "t": 111874.9552499998,
      "d": 208.33324999999604,
      "v": 99
    },
    {
      "midi": 87,
      "hit": false,
      "t": 112083.28849999979,
      "d": 208.33324999999604,
      "v": 99
    },
    {
      "midi": 75,
      "hit": false,
      "t": 112083.28849999979,
      "d": 208.33324999999604,
      "v": 99
    },
    {
      "midi": 56,
      "hit": false,
      "t": 112083.28850000004,
      "d": 1215.2772916666436,
      "v": 15
    },
    {
      "midi": 85,
      "hit": false,
      "t": 112291.62174999979,
      "d": 624.9997500000027,
      "v": 99
    },
    {
      "midi": 73,
      "hit": false,
      "t": 112291.62174999979,
      "d": 624.9997500000027,
      "v": 99
    },
    {
      "midi": 60,
      "hit": false,
      "t": 112291.62175000003,
      "d": 590.2775416666555,
      "v": 63
    },
    {
      "midi": 65,
      "hit": false,
      "t": 112708.28825000003,
      "d": 590.2775416666555,
      "v": 58
    },
    {
      "midi": 85,
      "hit": false,
      "t": 112916.62149999979,
      "d": 208.33324999999604,
      "v": 99
    },
    {
      "midi": 73,
      "hit": false,
      "t": 112916.62149999979,
      "d": 208.33324999999604,
      "v": 99
    },
    {
      "midi": 60,
      "hit": false,
      "t": 112916.62150000002,
      "d": 381.9442916666594,
      "v": 76
    },
    {
      "midi": 87,
      "hit": false,
      "t": 113124.95474999979,
      "d": 208.33324999999604,
      "v": 99
    },
    {
      "midi": 75,
      "hit": false,
      "t": 113124.95474999979,
      "d": 208.33324999999604,
      "v": 99
    },
    {
      "midi": 89,
      "hit": false,
      "t": 113333.28799999978,
      "d": 208.33324999999604,
      "v": 99
    },
    {
      "midi": 77,
      "hit": false,
      "t": 113333.28799999978,
      "d": 208.33324999999604,
      "v": 99
    },
    {
      "midi": 63,
      "hit": false,
      "t": 113333.28800000002,
      "d": 173.61104166666337,
      "v": 15
    },
    {
      "midi": 66,
      "hit": false,
      "t": 113333.28800000002,
      "d": 416.6664999999921,
      "v": 74
    },
    {
      "midi": 58,
      "hit": false,
      "t": 113333.28800000002,
      "d": 1631.9437916666648,
      "v": 76
    },
    {
      "midi": 87,
      "hit": false,
      "t": 113541.62124999978,
      "d": 208.33324999999604,
      "v": 99
    },
    {
      "midi": 75,
      "hit": false,
      "t": 113541.62124999978,
      "d": 208.33324999999604,
      "v": 99
    },
    {
      "midi": 63,
      "hit": false,
      "t": 113541.62125000001,
      "d": 833.3329999999987,
      "v": 76
    },
    {
      "midi": 87,
      "hit": false,
      "t": 113749.95449999977,
      "d": 208.33324999999604,
      "v": 99
    },
    {
      "midi": 75,
      "hit": false,
      "t": 113749.95449999977,
      "d": 208.33324999999604,
      "v": 99
    },
    {
      "midi": 70,
      "hit": false,
      "t": 113749.9545,
      "d": 208.33324999999604,
      "v": 58
    },
    {
      "midi": 85,
      "hit": false,
      "t": 113958.28774999977,
      "d": 208.33324999999604,
      "v": 99
    },
    {
      "midi": 73,
      "hit": false,
      "t": 113958.28774999977,
      "d": 208.33324999999604,
      "v": 99
    },
    {
      "midi": 66,
      "hit": false,
      "t": 113958.28775,
      "d": 833.3330000000133,
      "v": 70
    },
    {
      "midi": 85,
      "hit": false,
      "t": 114166.62099999977,
      "d": 208.33324999999604,
      "v": 99
    },
    {
      "midi": 73,
      "hit": false,
      "t": 114166.62099999977,
      "d": 208.33324999999604,
      "v": 99
    },
    {
      "midi": 70,
      "hit": false,
      "t": 114374.95424999976,
      "d": 208.33324999999604,
      "v": 99
    },
    {
      "midi": 63,
      "hit": false,
      "t": 114374.95425000001,
      "d": 590.27754166667,
      "v": 76
    },
    {
      "midi": 82,
      "hit": false,
      "t": 114583.28749999976,
      "d": 208.33324999999604,
      "v": 99
    },
    {
      "midi": 70,
      "hit": false,
      "t": 114583.28749999976,
      "d": 208.33324999999604,
      "v": 99
    },
    {
      "midi": 85,
      "hit": false,
      "t": 114791.62074999975,
      "d": 208.33324999999604,
      "v": 99
    },
    {
      "midi": 73,
      "hit": false,
      "t": 114791.62074999975,
      "d": 208.33324999999604,
      "v": 99
    },
    {
      "midi": 66,
      "hit": false,
      "t": 114791.62075000002,
      "d": 208.33324999999604,
      "v": 81
    },
    {
      "midi": 94,
      "hit": false,
      "t": 114999.95399999975,
      "d": 416.66650000000664,
      "v": 99
    },
    {
      "midi": 82,
      "hit": false,
      "t": 114999.95399999975,
      "d": 416.66650000000664,
      "v": 99
    },
    {
      "midi": 56,
      "hit": false,
      "t": 114999.95400000001,
      "d": 381.9442916666594,
      "v": 15
    },
    {
      "midi": 59,
      "hit": false,
      "t": 114999.95400000001,
      "d": 1006.9440416666621,
      "v": 76
    },
    {
      "midi": 63,
      "hit": false,
      "t": 114999.95400000001,
      "d": 1666.6659999999974,
      "v": 81
    },
    {
      "midi": 96,
      "hit": false,
      "t": 115416.62049999976,
      "d": 208.33324999999604,
      "v": 99
    },
    {
      "midi": 84,
      "hit": false,
      "t": 115416.62049999976,
      "d": 208.33324999999604,
      "v": 99
    },
    {
      "midi": 56,
      "hit": false,
      "t": 115416.6205,
      "d": 1041.6662500000093,
      "v": 70
    },
    {
      "midi": 92,
      "hit": false,
      "t": 115624.95374999975,
      "d": 208.33324999999604,
      "v": 99
    },
    {
      "midi": 80,
      "hit": false,
      "t": 115624.95374999975,
      "d": 208.33324999999604,
      "v": 99
    },
    {
      "midi": 92,
      "hit": false,
      "t": 115833.28699999975,
      "d": 208.33324999999604,
      "v": 99
    },
    {
      "midi": 80,
      "hit": false,
      "t": 115833.28699999975,
      "d": 208.33324999999604,
      "v": 99
    },
    {
      "midi": 97,
      "hit": false,
      "t": 116041.62024999975,
      "d": 416.66650000000664,
      "v": 99
    },
    {
      "midi": 85,
      "hit": false,
      "t": 116041.62024999975,
      "d": 416.66650000000664,
      "v": 99
    },
    {
      "midi": 59,
      "hit": false,
      "t": 116041.62025,
      "d": 624.9997500000027,
      "v": 81
    },
    {
      "midi": 96,
      "hit": false,
      "t": 116458.28674999975,
      "d": 208.33324999999604,
      "v": 99
    },
    {
      "midi": 84,
      "hit": false,
      "t": 116458.28674999975,
      "d": 208.33324999999604,
      "v": 99
    },
    {
      "midi": 56,
      "hit": false,
      "t": 116458.28675000001,
      "d": 208.33324999999604,
      "v": 30
    },
    {
      "midi": 94,
      "hit": false,
      "t": 116666.61999999975,
      "d": 208.33324999999604,
      "v": 99
    },
    {
      "midi": 82,
      "hit": false,
      "t": 116666.61999999975,
      "d": 208.33324999999604,
      "v": 99
    },
    {
      "midi": 56,
      "hit": false,
      "t": 116666.62000000001,
      "d": 416.66650000000664,
      "v": 30
    },
    {
      "midi": 65,
      "hit": false,
      "t": 116666.62000000001,
      "d": 624.9997500000027,
      "v": 43
    },
    {
      "midi": 61,
      "hit": false,
      "t": 116666.62000000001,
      "d": 1249.9995000000054,
      "v": 81
    },
    {
      "midi": 92,
      "hit": false,
      "t": 116874.95324999974,
      "d": 208.33324999999604,
      "v": 99
    },
    {
      "midi": 80,
      "hit": false,
      "t": 116874.95324999974,
      "d": 208.33324999999604,
      "v": 99
    },
    {
      "midi": 92,
      "hit": false,
      "t": 117083.28649999974,
      "d": 208.33324999999604,
      "v": 99
    },
    {
      "midi": 80,
      "hit": false,
      "t": 117083.28649999974,
      "d": 208.33324999999604,
      "v": 99
    },
    {
      "midi": 56,
      "hit": false,
      "t": 117083.28650000002,
      "d": 1041.6662499999948,
      "v": 58
    },
    {
      "midi": 89,
      "hit": false,
      "t": 117291.61974999974,
      "d": 208.33324999999604,
      "v": 99
    },
    {
      "midi": 77,
      "hit": false,
      "t": 117291.61974999974,
      "d": 208.33324999999604,
      "v": 99
    },
    {
      "midi": 68,
      "hit": false,
      "t": 117291.61975000001,
      "d": 416.66650000000664,
      "v": 69
    },
    {
      "midi": 92,
      "hit": false,
      "t": 117499.95299999973,
      "d": 208.33324999999604,
      "v": 99
    },
    {
      "midi": 80,
      "hit": false,
      "t": 117499.95299999973,
      "d": 208.33324999999604,
      "v": 99
    },
    {
      "midi": 92,
      "hit": false,
      "t": 117708.28624999973,
      "d": 208.33324999999604,
      "v": 99
    },
    {
      "midi": 80,
      "hit": false,
      "t": 117708.28624999973,
      "d": 208.33324999999604,
      "v": 99
    },
    {
      "midi": 65,
      "hit": false,
      "t": 117708.28625000002,
      "d": 624.9997499999881,
      "v": 70
    },
    {
      "midi": 92,
      "hit": false,
      "t": 117916.61949999972,
      "d": 208.33324999999604,
      "v": 99
    },
    {
      "midi": 80,
      "hit": false,
      "t": 117916.61949999972,
      "d": 208.33324999999604,
      "v": 99
    },
    {
      "midi": 61,
      "hit": false,
      "t": 117916.61950000002,
      "d": 416.6664999999921,
      "v": 65
    },
    {
      "midi": 89,
      "hit": false,
      "t": 118124.95274999972,
      "d": 208.33324999999604,
      "v": 99
    },
    {
      "midi": 77,
      "hit": false,
      "t": 118124.95274999972,
      "d": 208.33324999999604,
      "v": 99
    },
    {
      "midi": 56,
      "hit": false,
      "t": 118124.95275000001,
      "d": 624.9997500000027,
      "v": 41
    },
    {
      "midi": 92,
      "hit": false,
      "t": 118333.28599999972,
      "d": 208.33324999999604,
      "v": 99
    },
    {
      "midi": 80,
      "hit": false,
      "t": 118333.28599999972,
      "d": 208.33324999999604,
      "v": 99
    },
    {
      "midi": 61,
      "hit": false,
      "t": 118333.28600000001,
      "d": 624.9997500000027,
      "v": 74
    },
    {
      "midi": 65,
      "hit": false,
      "t": 118333.28600000001,
      "d": 1041.6662500000093,
      "v": 76
    },
    {
      "midi": 94,
      "hit": false,
      "t": 118541.61924999971,
      "d": 208.33324999999604,
      "v": 99
    },
    {
      "midi": 82,
      "hit": false,
      "t": 118541.61924999971,
      "d": 208.33324999999604,
      "v": 99
    },
    {
      "midi": 92,
      "hit": false,
      "t": 118749.95249999971,
      "d": 624.9997500000027,
      "v": 99
    },
    {
      "midi": 80,
      "hit": false,
      "t": 118749.95249999971,
      "d": 624.9997500000027,
      "v": 99
    },
    {
      "midi": 56,
      "hit": false,
      "t": 118749.95250000001,
      "d": 1041.6662499999948,
      "v": 65
    },
    {
      "midi": 61,
      "hit": false,
      "t": 118958.28575000001,
      "d": 624.9997500000027,
      "v": 70
    },
    {
      "midi": 97,
      "hit": false,
      "t": 119374.95224999971,
      "d": 416.66650000000664,
      "v": 99
    },
    {
      "midi": 85,
      "hit": false,
      "t": 119374.95224999971,
      "d": 416.66650000000664,
      "v": 99
    },
    {
      "midi": 65,
      "hit": false,
      "t": 119374.95225000002,
      "d": 624.9997499999881,
      "v": 70
    },
    {
      "midi": 61,
      "hit": false,
      "t": 119583.28550000001,
      "d": 416.6664999999921,
      "v": 64
    },
    {
      "midi": 99,
      "hit": false,
      "t": 119791.61874999972,
      "d": 208.33324999999604,
      "v": 99
    },
    {
      "midi": 87,
      "hit": false,
      "t": 119791.61874999972,
      "d": 208.33324999999604,
      "v": 99
    },
    {
      "midi": 56,
      "hit": false,
      "t": 119791.61875000001,
      "d": 208.33324999999604,
      "v": 48
    },
    {
      "midi": 96,
      "hit": false,
      "t": 119999.95199999971,
      "d": 208.33324999999604,
      "v": 99
    },
    {
      "midi": 84,
      "hit": false,
      "t": 119999.95199999971,
      "d": 208.33324999999604,
      "v": 99
    },
    {
      "midi": 60,
      "hit": false,
      "t": 119999.952,
      "d": 208.33324999999604,
      "v": 64
    },
    {
      "midi": 65,
      "hit": false,
      "t": 119999.952,
      "d": 416.6664999999921,
      "v": 69
    },
    {
      "midi": 56,
      "hit": false,
      "t": 119999.952,
      "d": 1249.9994999999908,
      "v": 48
    },
    {
      "midi": 92,
      "hit": false,
      "t": 120208.28524999971,
      "d": 208.33324999999604,
      "v": 99
    },
    {
      "midi": 80,
      "hit": false,
      "t": 120208.28524999971,
      "d": 208.33324999999604,
      "v": 99
    },
    {
      "midi": 60,
      "hit": false,
      "t": 120208.28525,
      "d": 624.9997499999881,
      "v": 49
    },
    {
      "midi": 92,
      "hit": false,
      "t": 120416.6184999997,
      "d": 208.33324999999604,
      "v": 99
    },
    {
      "midi": 80,
      "hit": false,
      "t": 120416.6184999997,
      "d": 208.33324999999604,
      "v": 99
    },
    {
      "midi": 68,
      "hit": false,
      "t": 120416.6185,
      "d": 208.33324999999604,
      "v": 43
    },
    {
      "midi": 89,
      "hit": false,
      "t": 120624.9517499997,
      "d": 208.33324999999604,
      "v": 99
    },
    {
      "midi": 77,
      "hit": false,
      "t": 120624.9517499997,
      "d": 208.33324999999604,
      "v": 99
    },
    {
      "midi": 65,
      "hit": false,
      "t": 120624.95175,
      "d": 1041.6662500000093,
      "v": 76
    },
    {
      "midi": 92,
      "hit": false,
      "t": 120833.2849999997,
      "d": 208.33324999999604,
      "v": 99
    },
    {
      "midi": 80,
      "hit": false,
      "t": 120833.2849999997,
      "d": 208.33324999999604,
      "v": 99
    },
    {
      "midi": 60,
      "hit": false,
      "t": 120833.28499999999,
      "d": 833.3330000000133,
      "v": 41
    },
    {
      "midi": 94,
      "hit": false,
      "t": 121041.6182499997,
      "d": 208.33324999999604,
      "v": 99
    },
    {
      "midi": 82,
      "hit": false,
      "t": 121041.6182499997,
      "d": 208.33324999999604,
      "v": 99
    },
    {
      "midi": 97,
      "hit": false,
      "t": 121249.95149999969,
      "d": 416.66650000000664,
      "v": 99
    },
    {
      "midi": 85,
      "hit": false,
      "t": 121249.95149999969,
      "d": 416.66650000000664,
      "v": 99
    },
    {
      "midi": 56,
      "hit": false,
      "t": 121249.9515,
      "d": 416.66650000000664,
      "v": 41
    },
    {
      "midi": 99,
      "hit": false,
      "t": 121666.6179999997,
      "d": 416.66650000000664,
      "v": 99
    },
    {
      "midi": 87,
      "hit": false,
      "t": 121666.6179999997,
      "d": 416.66650000000664,
      "v": 99
    },
    {
      "midi": 65,
      "hit": false,
      "t": 121666.618,
      "d": 1006.9440416666621,
      "v": 50
    },
    {
      "midi": 94,
      "hit": false,
      "t": 122083.2844999997,
      "d": 208.33324999999604,
      "v": 99
    },
    {
      "midi": 82,
      "hit": false,
      "t": 122083.2844999997,
      "d": 208.33324999999604,
      "v": 99
    },
    {
      "midi": 58,
      "hit": false,
      "t": 122083.28450000001,
      "d": 1215.2772916666436,
      "v": 15
    },
    {
      "midi": 97,
      "hit": false,
      "t": 122291.6177499997,
      "d": 624.9997500000027,
      "v": 99
    },
    {
      "midi": 85,
      "hit": false,
      "t": 122291.6177499997,
      "d": 624.9997500000027,
      "v": 99
    },
    {
      "midi": 61,
      "hit": false,
      "t": 122291.61775,
      "d": 590.2775416666555,
      "v": 63
    },
    {
      "midi": 65,
      "hit": false,
      "t": 122708.28425,
      "d": 590.2775416666555,
      "v": 58
    },
    {
      "midi": 97,
      "hit": false,
      "t": 122916.6174999997,
      "d": 208.33324999999604,
      "v": 99
    },
    {
      "midi": 85,
      "hit": false,
      "t": 122916.6174999997,
      "d": 208.33324999999604,
      "v": 99
    },
    {
      "midi": 61,
      "hit": false,
      "t": 122916.6175,
      "d": 381.9442916666594,
      "v": 76
    },
    {
      "midi": 99,
      "hit": false,
      "t": 123124.9507499997,
      "d": 208.33324999999604,
      "v": 99
    },
    {
      "midi": 87,
      "hit": false,
      "t": 123124.9507499997,
      "d": 208.33324999999604,
      "v": 99
    },
    {
      "midi": 101,
      "hit": false,
      "t": 123333.2839999997,
      "d": 416.66650000000664,
      "v": 99
    },
    {
      "midi": 89,
      "hit": false,
      "t": 123333.2839999997,
      "d": 416.66650000000664,
      "v": 99
    },
    {
      "midi": 61,
      "hit": false,
      "t": 123333.28399999999,
      "d": 173.61104166666337,
      "v": 15
    },
    {
      "midi": 66,
      "hit": false,
      "t": 123333.28399999999,
      "d": 416.6664999999921,
      "v": 74
    },
    {
      "midi": 58,
      "hit": false,
      "t": 123333.28399999999,
      "d": 1631.9437916666648,
      "v": 76
    },
    {
      "midi": 61,
      "hit": false,
      "t": 123541.61724999998,
      "d": 833.3329999999987,
      "v": 76
    },
    {
      "midi": 99,
      "hit": false,
      "t": 123749.9504999997,
      "d": 208.33324999999604,
      "v": 99
    },
    {
      "midi": 87,
      "hit": false,
      "t": 123749.9504999997,
      "d": 208.33324999999604,
      "v": 99
    },
    {
      "midi": 70,
      "hit": false,
      "t": 123749.95049999998,
      "d": 208.33324999999604,
      "v": 58
    },
    {
      "midi": 97,
      "hit": false,
      "t": 123958.2837499997,
      "d": 208.33324999999604,
      "v": 99
    },
    {
      "midi": 85,
      "hit": false,
      "t": 123958.2837499997,
      "d": 208.33324999999604,
      "v": 99
    },
    {
      "midi": 66,
      "hit": false,
      "t": 123958.28374999997,
      "d": 833.3330000000133,
      "v": 70
    },
    {
      "midi": 94,
      "hit": false,
      "t": 124166.6169999997,
      "d": 416.66650000000664,
      "v": 99
    },
    {
      "midi": 82,
      "hit": false,
      "t": 124166.6169999997,
      "d": 416.66650000000664,
      "v": 99
    },
    {
      "midi": 61,
      "hit": false,
      "t": 124374.95024999998,
      "d": 590.27754166667,
      "v": 76
    },
    {
      "midi": 97,
      "hit": false,
      "t": 124583.2834999997,
      "d": 208.33324999999604,
      "v": 99
    },
    {
      "midi": 85,
      "hit": false,
      "t": 124583.2834999997,
      "d": 208.33324999999604,
      "v": 99
    },
    {
      "midi": 99,
      "hit": false,
      "t": 124791.6167499997,
      "d": 208.33324999999604,
      "v": 99
    },
    {
      "midi": 87,
      "hit": false,
      "t": 124791.6167499997,
      "d": 208.33324999999604,
      "v": 99
    },
    {
      "midi": 66,
      "hit": false,
      "t": 124791.61674999999,
      "d": 208.33324999999604,
      "v": 81
    },
    {
      "midi": 96,
      "hit": false,
      "t": 124999.94999999969,
      "d": 208.33324999999604,
      "v": 99
    },
    {
      "midi": 84,
      "hit": false,
      "t": 124999.94999999969,
      "d": 208.33324999999604,
      "v": 99
    },
    {
      "midi": 56,
      "hit": false,
      "t": 124999.94999999998,
      "d": 381.9442916666594,
      "v": 15
    },
    {
      "midi": 60,
      "hit": false,
      "t": 124999.94999999998,
      "d": 833.3329999999987,
      "v": 76
    },
    {
      "midi": 65,
      "hit": false,
      "t": 124999.94999999998,
      "d": 833.3329999999987,
      "v": 81
    },
    {
      "midi": 92,
      "hit": false,
      "t": 125208.28324999969,
      "d": 208.33324999999604,
      "v": 99
    },
    {
      "midi": 80,
      "hit": false,
      "t": 125208.28324999969,
      "d": 208.33324999999604,
      "v": 99
    },
    {
      "midi": 89,
      "hit": false,
      "t": 125416.61649999968,
      "d": 416.66650000000664,
      "v": 99
    },
    {
      "midi": 77,
      "hit": false,
      "t": 125416.61649999968,
      "d": 416.66650000000664,
      "v": 99
    },
    {
      "midi": 56,
      "hit": false,
      "t": 125416.61649999997,
      "d": 416.66650000000664,
      "v": 70
    },
    {
      "midi": 97,
      "hit": false,
      "t": 125833.28299999969,
      "d": 416.66650000000664,
      "v": 99
    },
    {
      "midi": 85,
      "hit": false,
      "t": 125833.28299999969,
      "d": 416.66650000000664,
      "v": 99
    },
    {
      "midi": 61,
      "hit": false,
      "t": 125833.28299999998,
      "d": 173.61104166666337,
      "v": 76
    },
    {
      "midi": 58,
      "hit": false,
      "t": 125833.28299999998,
      "d": 624.9997500000027,
      "v": 70
    },
    {
      "midi": 65,
      "hit": false,
      "t": 125833.28299999998,
      "d": 833.3329999999987,
      "v": 81
    },
    {
      "midi": 61,
      "hit": false,
      "t": 126041.61624999998,
      "d": 624.9997500000027,
      "v": 81
    },
    {
      "midi": 92,
      "hit": false,
      "t": 126249.9494999997,
      "d": 208.33324999999604,
      "v": 99
    },
    {
      "midi": 80,
      "hit": false,
      "t": 126249.9494999997,
      "d": 208.33324999999604,
      "v": 99
    },
    {
      "midi": 94,
      "hit": false,
      "t": 126458.2827499997,
      "d": 208.33324999999604,
      "v": 99
    },
    {
      "midi": 82,
      "hit": false,
      "t": 126458.2827499997,
      "d": 208.33324999999604,
      "v": 99
    },
    {
      "midi": 58,
      "hit": false,
      "t": 126458.28274999998,
      "d": 208.33324999999604,
      "v": 30
    },
    {
      "midi": 97,
      "hit": false,
      "t": 126666.61599999969,
      "d": 208.33324999999604,
      "v": 99
    },
    {
      "midi": 85,
      "hit": false,
      "t": 126666.61599999969,
      "d": 208.33324999999604,
      "v": 99
    },
    {
      "midi": 58,
      "hit": false,
      "t": 126666.61599999998,
      "d": 416.66650000000664,
      "v": 30
    },
    {
      "midi": 66,
      "hit": false,
      "t": 126666.61599999998,
      "d": 624.9997500000027,
      "v": 43
    },
    {
      "midi": 63,
      "hit": false,
      "t": 126666.61599999998,
      "d": 1249.9995000000054,
      "v": 81
    },
    {
      "midi": 94,
      "hit": false,
      "t": 126874.94924999968,
      "d": 208.33324999999604,
      "v": 99
    },
    {
      "midi": 82,
      "hit": false,
      "t": 126874.94924999968,
      "d": 208.33324999999604,
      "v": 99
    },
    {
      "midi": 94,
      "hit": false,
      "t": 127083.28249999968,
      "d": 208.33324999999604,
      "v": 99
    },
    {
      "midi": 82,
      "hit": false,
      "t": 127083.28249999968,
      "d": 208.33324999999604,
      "v": 99
    },
    {
      "midi": 58,
      "hit": false,
      "t": 127083.28249999999,
      "d": 1041.6662499999948,
      "v": 58
    },
    {
      "midi": 92,
      "hit": false,
      "t": 127291.61574999968,
      "d": 208.33324999999604,
      "v": 99
    },
    {
      "midi": 80,
      "hit": false,
      "t": 127291.61574999968,
      "d": 208.33324999999604,
      "v": 99
    },
    {
      "midi": 70,
      "hit": false,
      "t": 127291.61574999998,
      "d": 416.66650000000664,
      "v": 69
    },
    {
      "midi": 94,
      "hit": false,
      "t": 127499.94899999967,
      "d": 208.33324999999604,
      "v": 99
    },
    {
      "midi": 82,
      "hit": false,
      "t": 127499.94899999967,
      "d": 208.33324999999604,
      "v": 99
    },
    {
      "midi": 97,
      "hit": false,
      "t": 127708.28224999967,
      "d": 624.9997500000027,
      "v": 99
    },
    {
      "midi": 85,
      "hit": false,
      "t": 127708.28224999967,
      "d": 624.9997500000027,
      "v": 99
    },
    {
      "midi": 66,
      "hit": false,
      "t": 127708.28224999999,
      "d": 624.9997499999881,
      "v": 70
    },
    {
      "midi": 63,
      "hit": false,
      "t": 127916.61549999999,
      "d": 416.6664999999921,
      "v": 65
    },
    {
      "midi": 58,
      "hit": false,
      "t": 128124.94874999998,
      "d": 208.33324999999604,
      "v": 41
    },
    {
      "midi": 101,
      "hit": false,
      "t": 128333.28199999967,
      "d": 416.66650000000664,
      "v": 99
    },
    {
      "midi": 89,
      "hit": false,
      "t": 128333.28199999967,
      "d": 416.66650000000664,
      "v": 99
    },
    {
      "midi": 56,
      "hit": false,
      "t": 128333.28199999998,
      "d": 416.66650000000664,
      "v": 41
    },
    {
      "midi": 59,
      "hit": false,
      "t": 128333.28199999998,
      "d": 624.9997500000027,
      "v": 74
    },
    {
      "midi": 63,
      "hit": false,
      "t": 128333.28199999998,
      "d": 1041.6662500000093,
      "v": 76
    },
    {
      "midi": 99,
      "hit": false,
      "t": 128749.94849999968,
      "d": 833.3329999999987,
      "v": 99
    },
    {
      "midi": 87,
      "hit": false,
      "t": 128749.94849999968,
      "d": 833.3329999999987,
      "v": 99
    },
    {
      "midi": 56,
      "hit": false,
      "t": 128749.94849999998,
      "d": 1041.6662499999948,
      "v": 65
    },
    {
      "midi": 59,
      "hit": false,
      "t": 128958.28174999998,
      "d": 624.9997500000027,
      "v": 70
    },
    {
      "midi": 63,
      "hit": false,
      "t": 129374.94824999999,
      "d": 624.9997499999881,
      "v": 70
    },
    {
      "midi": 97,
      "hit": false,
      "t": 129583.28149999968,
      "d": 208.33324999999604,
      "v": 99
    },
    {
      "midi": 85,
      "hit": false,
      "t": 129583.28149999968,
      "d": 208.33324999999604,
      "v": 99
    },
    {
      "midi": 59,
      "hit": false,
      "t": 129583.28149999998,
      "d": 416.6664999999921,
      "v": 64
    },
    {
      "midi": 99,
      "hit": false,
      "t": 129791.61474999967,
      "d": 208.33324999999604,
      "v": 99
    },
    {
      "midi": 87,
      "hit": false,
      "t": 129791.61474999967,
      "d": 208.33324999999604,
      "v": 99
    },
    {
      "midi": 56,
      "hit": false,
      "t": 129791.61474999998,
      "d": 208.33324999999604,
      "v": 48
    },
    {
      "midi": 97,
      "hit": false,
      "t": 129999.94799999967,
      "d": 5833.330999999991,
      "v": 99
    },
    {
      "midi": 85,
      "hit": false,
      "t": 129999.94799999967,
      "d": 5833.330999999991,
      "v": 99
    },
    {
      "midi": 61,
      "hit": false,
      "t": 129999.94799999997,
      "d": 208.33324999999604,
      "v": 64
    },
    {
      "midi": 65,
      "hit": false,
      "t": 129999.94799999997,
      "d": 416.6664999999921,
      "v": 69
    },
    {
      "midi": 56,
      "hit": false,
      "t": 129999.94799999997,
      "d": 1249.9994999999763,
      "v": 48
    },
    {
      "midi": 61,
      "hit": false,
      "t": 130208.28124999997,
      "d": 624.9997499999881,
      "v": 49
    },
    {
      "midi": 68,
      "hit": false,
      "t": 130416.61449999997,
      "d": 208.33324999999604,
      "v": 43
    },
    {
      "midi": 65,
      "hit": false,
      "t": 130624.94774999996,
      "d": 1041.6662499999802,
      "v": 76
    },
    {
      "midi": 61,
      "hit": false,
      "t": 130833.28099999996,
      "d": 833.3329999999842,
      "v": 41
    },
    {
      "midi": 56,
      "hit": false,
      "t": 131249.94749999995,
      "d": 416.6664999999921,
      "v": 41
    },
    {
      "midi": 65,
      "hit": false,
      "t": 131666.61399999994,
      "d": 1006.9440416666621,
      "v": 50
    },
    {
      "midi": 56,
      "hit": false,
      "t": 132083.28049999994,
      "d": 1215.2772916667163,
      "v": 15
    },
    {
      "midi": 61,
      "hit": false,
      "t": 132291.61374999993,
      "d": 590.2775416666991,
      "v": 63
    },
    {
      "midi": 65,
      "hit": false,
      "t": 132708.28024999995,
      "d": 590.2775416666991,
      "v": 58
    },
    {
      "midi": 61,
      "hit": false,
      "t": 132916.61349999998,
      "d": 381.94429166667396,
      "v": 76
    },
    {
      "midi": 56,
      "hit": false,
      "t": 133333.28,
      "d": 590.27754166667,
      "v": 61
    },
    {
      "midi": 49,
      "hit": false,
      "t": 133333.28,
      "d": 2708.332250000036,
      "v": 74
    },
    {
      "midi": 61,
      "hit": false,
      "t": 133333.28,
      "d": 2916.665500000061,
      "v": 61
    },
    {
      "midi": 44,
      "hit": false,
      "t": 133541.61325,
      "d": 2291.6657500000438,
      "v": 69
    },
    {
      "midi": 53,
      "hit": false,
      "t": 133749.9465,
      "d": 2465.2767916667217,
      "v": 58
    },
    {
      "midi": 63,
      "hit": false,
      "t": 133958.27975000002,
      "d": 590.27754166667,
      "v": 59
    },
    {
      "midi": 56,
      "hit": false,
      "t": 134374.94625,
      "d": 1666.6660000000265,
      "v": 38
    },
    {
      "midi": 65,
      "hit": false,
      "t": 134583.27950000003,
      "d": 1249.9995000000054,
      "v": 66
    },
    {
      "midi": 68,
      "hit": false,
      "t": 135833.27900000004,
      "d": 798.6107916666951,
      "v": 74
    },
    {
      "midi": 55,
      "hit": false,
      "t": 136249.94550000006,
      "d": 381.94429166667396,
      "v": 57
    },
    {
      "midi": 39,
      "hit": false,
      "t": 136666.61200000008,
      "d": 1631.9437916666502,
      "v": 74
    },
    {
      "midi": 63,
      "hit": false,
      "t": 136666.61200000008,
      "d": 2048.6102916666423,
      "v": 58
    },
    {
      "midi": 66,
      "hit": false,
      "t": 136666.61200000008,
      "d": 2048.6102916666423,
      "v": 65
    },
    {
      "midi": 57,
      "hit": false,
      "t": 137083.27850000007,
      "d": 1423.6105416666542,
      "v": 50
    },
    {
      "midi": 69,
      "hit": false,
      "t": 137291.61175000007,
      "d": 1423.6105416666542,
      "v": 54
    },
    {
      "midi": 72,
      "hit": false,
      "t": 137916.61150000006,
      "d": 798.610791666666,
      "v": 70
    },
    {
      "midi": 69,
      "hit": false,
      "t": 138749.94450000007,
      "d": 1215.2772916666581,
      "v": 66
    },
    {
      "midi": 72,
      "hit": false,
      "t": 139166.61100000006,
      "d": 798.610791666666,
      "v": 46
    },
    {
      "midi": 65,
      "hit": false,
      "t": 139583.27750000005,
      "d": 381.94429166667396,
      "v": 52
    },
    {
      "midi": 65,
      "hit": false,
      "t": 139999.94400000008,
      "d": 1215.2772916666581,
      "v": 66
    },
    {
      "midi": 69,
      "hit": false,
      "t": 139999.94400000008,
      "d": 1215.2772916666581,
      "v": 61
    },
    {
      "midi": 60,
      "hit": false,
      "t": 139999.94400000008,
      "d": 1631.9437916666793,
      "v": 52
    },
    {
      "midi": 38,
      "hit": false,
      "t": 139999.94400000008,
      "d": 1840.2770416667045,
      "v": 65
    },
    {
      "midi": 45,
      "hit": false,
      "t": 140416.61050000007,
      "d": 2673.610041666747,
      "v": 63
    },
    {
      "midi": 53,
      "hit": false,
      "t": 140624.94375000006,
      "d": 2673.610041666747,
      "v": 60
    },
    {
      "midi": 64,
      "hit": false,
      "t": 141249.94350000008,
      "d": 381.94429166667396,
      "v": 58
    },
    {
      "midi": 67,
      "hit": false,
      "t": 141249.94350000008,
      "d": 381.94429166667396,
      "v": 61
    },
    {
      "midi": 62,
      "hit": false,
      "t": 141666.6100000001,
      "d": 798.6107916666951,
      "v": 59
    },
    {
      "midi": 65,
      "hit": false,
      "t": 141666.6100000001,
      "d": 1631.9437916667084,
      "v": 57
    },
    {
      "midi": 57,
      "hit": false,
      "t": 142083.27650000012,
      "d": 1215.2772916666872,
      "v": 55
    },
    {
      "midi": 60,
      "hit": false,
      "t": 142499.94300000014,
      "d": 590.27754166667,
      "v": 58
    },
    {
      "midi": 38,
      "hit": false,
      "t": 142916.60950000014,
      "d": 381.94429166667396,
      "v": 65
    },
    {
      "midi": 62,
      "hit": false,
      "t": 142916.60950000014,
      "d": 381.94429166667396,
      "v": 41
    },
    {
      "midi": 55,
      "hit": false,
      "t": 143333.27600000016,
      "d": 1458.3327500000014,
      "v": 63
    },
    {
      "midi": 60,
      "hit": false,
      "t": 143333.27600000016,
      "d": 3298.6097916666768,
      "v": 57
    },
    {
      "midi": 64,
      "hit": false,
      "t": 143333.27600000016,
      "d": 3298.6097916666768,
      "v": 45
    },
    {
      "midi": 53,
      "hit": false,
      "t": 144374.94225000017,
      "d": 590.27754166667,
      "v": 39
    },
    {
      "midi": 48,
      "hit": false,
      "t": 144999.94200000018,
      "d": 1631.9437916666502,
      "v": 38
    },
    {
      "midi": 52,
      "hit": false,
      "t": 144999.94200000018,
      "d": 1631.9437916666502,
      "v": 36
    },
    {
      "midi": 55,
      "hit": false,
      "t": 145416.60850000018,
      "d": 1215.2772916666581,
      "v": 25
    }
  ]
}