{
  "jsonPath": "Classical/Classical/Pyotr Ilyich Tchaikovsky/in-church.json",
  "path": "Classical\\Classical\\Pyotr Ilyich Tchaikovsky\\In Church.mid",
  "name": "In Church",
  "difficulty": "Advanced",
  "bpm": 100,
  "notes": [
    {
      "midi": 59,
      "hit": false,
      "t": 0,
      "d": 300,
      "v": 67
    },
    {
      "midi": 64,
      "hit": false,
      "t": 0,
      "d": 300,
      "v": 67
    },
    {
      "midi": 52,
      "hit": false,
      "t": 0,
      "d": 300,
      "v": 65
    },
    {
      "midi": 55,
      "hit": false,
      "t": 0,
      "d": 300,
      "v": 65
    },
    {
      "midi": 59,
      "hit": false,
      "t": 300,
      "d": 300,
      "v": 74
    },
    {
      "midi": 64,
      "hit": false,
      "t": 300,
      "d": 300,
      "v": 74
    },
    {
      "midi": 52,
      "hit": false,
      "t": 300,
      "d": 300,
      "v": 71
    },
    {
      "midi": 55,
      "hit": false,
      "t": 300,
      "d": 300,
      "v": 71
    },
    {
      "midi": 59,
      "hit": false,
      "t": 600,
      "d": 300,
      "v": 76
    },
    {
      "midi": 64,
      "hit": false,
      "t": 600,
      "d": 300,
      "v": 76
    },
    {
      "midi": 52,
      "hit": false,
      "t": 600,
      "d": 300,
      "v": 78
    },
    {
      "midi": 55,
      "hit": false,
      "t": 600,
      "d": 300,
      "v": 78
    },
    {
      "midi": 59,
      "hit": false,
      "t": 900,
      "d": 300,
      "v": 78
    },
    {
      "midi": 64,
      "hit": false,
      "t": 900,
      "d": 300,
      "v": 78
    },
    {
      "midi": 52,
      "hit": false,
      "t": 900,
      "d": 300,
      "v": 76
    },
    {
      "midi": 55,
      "hit": false,
      "t": 900,
      "d": 300,
      "v": 76
    },
    {
      "midi": 59,
      "hit": false,
      "t": 1200,
      "d": 600,
      "v": 67
    },
    {
      "midi": 63,
      "hit": false,
      "t": 1200,
      "d": 600,
      "v": 75
    },
    {
      "midi": 47,
      "hit": false,
      "t": 1200,
      "d": 600,
      "v": 71
    },
    {
      "midi": 54,
      "hit": false,
      "t": 1200,
      "d": 600,
      "v": 71
    },
    {
      "midi": 64,
      "hit": false,
      "t": 1800,
      "d": 600,
      "v": 83
    },
    {
      "midi": 52,
      "hit": false,
      "t": 1800,
      "d": 600,
      "v": 78
    },
    {
      "midi": 55,
      "hit": false,
      "t": 1800,
      "d": 600,
      "v": 78
    },
    {
      "midi": 62,
      "hit": false,
      "t": 2400,
      "d": 300,
      "v": 78
    },
    {
      "midi": 66,
      "hit": false,
      "t": 2400,
      "d": 300,
      "v": 78
    },
    {
      "midi": 50,
      "hit": false,
      "t": 2400,
      "d": 300,
      "v": 76
    },
    {
      "midi": 57,
      "hit": false,
      "t": 2400,
      "d": 300,
      "v": 76
    },
    {
      "midi": 62,
      "hit": false,
      "t": 2700,
      "d": 300,
      "v": 80
    },
    {
      "midi": 66,
      "hit": false,
      "t": 2700,
      "d": 300,
      "v": 80
    },
    {
      "midi": 50,
      "hit": false,
      "t": 2700,
      "d": 300,
      "v": 80
    },
    {
      "midi": 57,
      "hit": false,
      "t": 2700,
      "d": 300,
      "v": 80
    },
    {
      "midi": 62,
      "hit": false,
      "t": 3000,
      "d": 300,
      "v": 75
    },
    {
      "midi": 66,
      "hit": false,
      "t": 3000,
      "d": 300,
      "v": 75
    },
    {
      "midi": 50,
      "hit": false,
      "t": 3000,
      "d": 300,
      "v": 80
    },
    {
      "midi": 57,
      "hit": false,
      "t": 3000,
      "d": 300,
      "v": 80
    },
    {
      "midi": 62,
      "hit": false,
      "t": 3300,
      "d": 300,
      "v": 76
    },
    {
      "midi": 66,
      "hit": false,
      "t": 3300,
      "d": 300,
      "v": 76
    },
    {
      "midi": 50,
      "hit": false,
      "t": 3300,
      "d": 300,
      "v": 73
    },
    {
      "midi": 57,
      "hit": false,
      "t": 3300,
      "d": 300,
      "v": 73
    },
    {
      "midi": 62,
      "hit": false,
      "t": 3600,
      "d": 900,
      "v": 76
    },
    {
      "midi": 66,
      "hit": false,
      "t": 3600,
      "d": 900,
      "v": 76
    },
    {
      "midi": 50,
      "hit": false,
      "t": 3600,
      "d": 900,
      "v": 78
    },
    {
      "midi": 57,
      "hit": false,
      "t": 3600,
      "d": 900,
      "v": 78
    },
    {
      "midi": 59,
      "hit": false,
      "t": 4500,
      "d": 300,
      "v": 72
    },
    {
      "midi": 64,
      "hit": false,
      "t": 4500,
      "d": 300,
      "v": 72
    },
    {
      "midi": 52,
      "hit": false,
      "t": 4500,
      "d": 300,
      "v": 73
    },
    {
      "midi": 55,
      "hit": false,
      "t": 4500,
      "d": 300,
      "v": 73
    },
    {
      "midi": 62,
      "hit": false,
      "t": 4800,
      "d": 1200,
      "v": 86
    },
    {
      "midi": 66,
      "hit": false,
      "t": 4800,
      "d": 1200,
      "v": 86
    },
    {
      "midi": 50,
      "hit": false,
      "t": 4800,
      "d": 1200,
      "v": 82
    },
    {
      "midi": 57,
      "hit": false,
      "t": 4800,
      "d": 1200,
      "v": 82
    },
    {
      "midi": 62,
      "hit": false,
      "t": 6000,
      "d": 300,
      "v": 80
    },
    {
      "midi": 67,
      "hit": false,
      "t": 6000,
      "d": 300,
      "v": 80
    },
    {
      "midi": 55,
      "hit": false,
      "t": 6000,
      "d": 300,
      "v": 83
    },
    {
      "midi": 59,
      "hit": false,
      "t": 6000,
      "d": 300,
      "v": 83
    },
    {
      "midi": 62,
      "hit": false,
      "t": 6300,
      "d": 300,
      "v": 75
    },
    {
      "midi": 67,
      "hit": false,
      "t": 6300,
      "d": 300,
      "v": 75
    },
    {
      "midi": 55,
      "hit": false,
      "t": 6300,
      "d": 300,
      "v": 78
    },
    {
      "midi": 59,
      "hit": false,
      "t": 6300,
      "d": 300,
      "v": 78
    },
    {
      "midi": 62,
      "hit": false,
      "t": 6600,
      "d": 300,
      "v": 74
    },
    {
      "midi": 67,
      "hit": false,
      "t": 6600,
      "d": 300,
      "v": 74
    },
    {
      "midi": 55,
      "hit": false,
      "t": 6600,
      "d": 300,
      "v": 78
    },
    {
      "midi": 59,
      "hit": false,
      "t": 6600,
      "d": 300,
      "v": 78
    },
    {
      "midi": 62,
      "hit": false,
      "t": 6900,
      "d": 300,
      "v": 75
    },
    {
      "midi": 67,
      "hit": false,
      "t": 6900,
      "d": 300,
      "v": 75
    },
    {
      "midi": 55,
      "hit": false,
      "t": 6900,
      "d": 300,
      "v": 76
    },
    {
      "midi": 59,
      "hit": false,
      "t": 6900,
      "d": 300,
      "v": 76
    },
    {
      "midi": 62,
      "hit": false,
      "t": 7200,
      "d": 900,
      "v": 78
    },
    {
      "midi": 66,
      "hit": false,
      "t": 7200,
      "d": 900,
      "v": 78
    },
    {
      "midi": 50,
      "hit": false,
      "t": 7200,
      "d": 900,
      "v": 80
    },
    {
      "midi": 57,
      "hit": false,
      "t": 7200,
      "d": 900,
      "v": 80
    },
    {
      "midi": 59,
      "hit": false,
      "t": 8100,
      "d": 300,
      "v": 66
    },
    {
      "midi": 64,
      "hit": false,
      "t": 8100,
      "d": 300,
      "v": 66
    },
    {
      "midi": 52,
      "hit": false,
      "t": 8100,
      "d": 300,
      "v": 76
    },
    {
      "midi": 55,
      "hit": false,
      "t": 8100,
      "d": 300,
      "v": 76
    },
    {
      "midi": 59,
      "hit": false,
      "t": 8400,
      "d": 1200,
      "v": 70
    },
    {
      "midi": 63,
      "hit": false,
      "t": 8400,
      "d": 1200,
      "v": 70
    },
    {
      "midi": 47,
      "hit": false,
      "t": 8400,
      "d": 1200,
      "v": 72
    },
    {
      "midi": 54,
      "hit": false,
      "t": 8400,
      "d": 1200,
      "v": 72
    },
    {
      "midi": 59,
      "hit": false,
      "t": 9600,
      "d": 600,
      "v": 75
    },
    {
      "midi": 64,
      "hit": false,
      "t": 9600,
      "d": 600,
      "v": 75
    },
    {
      "midi": 52,
      "hit": false,
      "t": 9600,
      "d": 600,
      "v": 79
    },
    {
      "midi": 55,
      "hit": false,
      "t": 9600,
      "d": 600,
      "v": 79
    },
    {
      "midi": 59,
      "hit": false,
      "t": 10200,
      "d": 300,
      "v": 78
    },
    {
      "midi": 64,
      "hit": false,
      "t": 10200,
      "d": 300,
      "v": 78
    },
    {
      "midi": 52,
      "hit": false,
      "t": 10200,
      "d": 300,
      "v": 79
    },
    {
      "midi": 55,
      "hit": false,
      "t": 10200,
      "d": 300,
      "v": 79
    },
    {
      "midi": 62,
      "hit": false,
      "t": 10500,
      "d": 300,
      "v": 88
    },
    {
      "midi": 66,
      "hit": false,
      "t": 10500,
      "d": 300,
      "v": 88
    },
    {
      "midi": 50,
      "hit": false,
      "t": 10500,
      "d": 300,
      "v": 76
    },
    {
      "midi": 57,
      "hit": false,
      "t": 10500,
      "d": 300,
      "v": 76
    },
    {
      "midi": 59,
      "hit": false,
      "t": 10800,
      "d": 900,
      "v": 80
    },
    {
      "midi": 62,
      "hit": false,
      "t": 10800,
      "d": 900,
      "v": 80
    },
    {
      "midi": 67,
      "hit": false,
      "t": 10800,
      "d": 900,
      "v": 80
    },
    {
      "midi": 43,
      "hit": false,
      "t": 10800,
      "d": 900,
      "v": 67
    },
    {
      "midi": 57,
      "hit": false,
      "t": 11700,
      "d": 300,
      "v": 74
    },
    {
      "midi": 60,
      "hit": false,
      "t": 11700,
      "d": 300,
      "v": 74
    },
    {
      "midi": 66,
      "hit": false,
      "t": 11700,
      "d": 300,
      "v": 74
    },
    {
      "midi": 45,
      "hit": false,
      "t": 11700,
      "d": 300,
      "v": 76
    },
    {
      "midi": 59,
      "hit": false,
      "t": 12000,
      "d": 600,
      "v": 73
    },
    {
      "midi": 64,
      "hit": false,
      "t": 12000,
      "d": 600,
      "v": 73
    },
    {
      "midi": 47,
      "hit": false,
      "t": 12000,
      "d": 600,
      "v": 86
    },
    {
      "midi": 55,
      "hit": false,
      "t": 12000,
      "d": 600,
      "v": 86
    },
    {
      "midi": 59,
      "hit": false,
      "t": 12600,
      "d": 600,
      "v": 72
    },
    {
      "midi": 63,
      "hit": false,
      "t": 12600,
      "d": 600,
      "v": 72
    },
    {
      "midi": 47,
      "hit": false,
      "t": 12600,
      "d": 600,
      "v": 76
    },
    {
      "midi": 54,
      "hit": false,
      "t": 12600,
      "d": 600,
      "v": 76
    },
    {
      "midi": 59,
      "hit": false,
      "t": 13200,
      "d": 1200,
      "v": 75
    },
    {
      "midi": 64,
      "hit": false,
      "t": 13200,
      "d": 1200,
      "v": 75
    },
    {
      "midi": 52,
      "hit": false,
      "t": 13200,
      "d": 1200,
      "v": 80
    },
    {
      "midi": 55,
      "hit": false,
      "t": 13200,
      "d": 1200,
      "v": 80
    },
    {
      "midi": 59,
      "hit": false,
      "t": 14400,
      "d": 300,
      "v": 73
    },
    {
      "midi": 64,
      "hit": false,
      "t": 14400,
      "d": 300,
      "v": 73
    },
    {
      "midi": 52,
      "hit": false,
      "t": 14400,
      "d": 300,
      "v": 78
    },
    {
      "midi": 55,
      "hit": false,
      "t": 14400,
      "d": 300,
      "v": 78
    },
    {
      "midi": 59,
      "hit": false,
      "t": 14700,
      "d": 300,
      "v": 80
    },
    {
      "midi": 64,
      "hit": false,
      "t": 14700,
      "d": 300,
      "v": 80
    },
    {
      "midi": 52,
      "hit": false,
      "t": 14700,
      "d": 300,
      "v": 77
    },
    {
      "midi": 55,
      "hit": false,
      "t": 14700,
      "d": 300,
      "v": 77
    },
    {
      "midi": 59,
      "hit": false,
      "t": 15000,
      "d": 300,
      "v": 79
    },
    {
      "midi": 64,
      "hit": false,
      "t": 15000,
      "d": 300,
      "v": 79
    },
    {
      "midi": 52,
      "hit": false,
      "t": 15000,
      "d": 300,
      "v": 78
    },
    {
      "midi": 55,
      "hit": false,
      "t": 15000,
      "d": 300,
      "v": 78
    },
    {
      "midi": 59,
      "hit": false,
      "t": 15300,
      "d": 300,
      "v": 77
    },
    {
      "midi": 64,
      "hit": false,
      "t": 15300,
      "d": 300,
      "v": 77
    },
    {
      "midi": 52,
      "hit": false,
      "t": 15300,
      "d": 300,
      "v": 79
    },
    {
      "midi": 55,
      "hit": false,
      "t": 15300,
      "d": 300,
      "v": 79
    },
    {
      "midi": 59,
      "hit": false,
      "t": 15600,
      "d": 600,
      "v": 80
    },
    {
      "midi": 63,
      "hit": false,
      "t": 15600,
      "d": 600,
      "v": 74
    },
    {
      "midi": 47,
      "hit": false,
      "t": 15600,
      "d": 600,
      "v": 73
    },
    {
      "midi": 54,
      "hit": false,
      "t": 15600,
      "d": 600,
      "v": 73
    },
    {
      "midi": 64,
      "hit": false,
      "t": 16200,
      "d": 600,
      "v": 82
    },
    {
      "midi": 52,
      "hit": false,
      "t": 16200,
      "d": 600,
      "v": 76
    },
    {
      "midi": 55,
      "hit": false,
      "t": 16200,
      "d": 600,
      "v": 76
    },
    {
      "midi": 62,
      "hit": false,
      "t": 16800,
      "d": 300,
      "v": 81
    },
    {
      "midi": 66,
      "hit": false,
      "t": 16800,
      "d": 300,
      "v": 81
    },
    {
      "midi": 50,
      "hit": false,
      "t": 16800,
      "d": 300,
      "v": 81
    },
    {
      "midi": 57,
      "hit": false,
      "t": 16800,
      "d": 300,
      "v": 81
    },
    {
      "midi": 62,
      "hit": false,
      "t": 17100,
      "d": 300,
      "v": 75
    },
    {
      "midi": 66,
      "hit": false,
      "t": 17100,
      "d": 300,
      "v": 75
    },
    {
      "midi": 50,
      "hit": false,
      "t": 17100,
      "d": 300,
      "v": 77
    },
    {
      "midi": 57,
      "hit": false,
      "t": 17100,
      "d": 300,
      "v": 77
    },
    {
      "midi": 62,
      "hit": false,
      "t": 17400,
      "d": 300,
      "v": 77
    },
    {
      "midi": 66,
      "hit": false,
      "t": 17400,
      "d": 300,
      "v": 77
    },
    {
      "midi": 50,
      "hit": false,
      "t": 17400,
      "d": 300,
      "v": 74
    },
    {
      "midi": 57,
      "hit": false,
      "t": 17400,
      "d": 300,
      "v": 74
    },
    {
      "midi": 62,
      "hit": false,
      "t": 17700,
      "d": 300,
      "v": 77
    },
    {
      "midi": 66,
      "hit": false,
      "t": 17700,
      "d": 300,
      "v": 77
    },
    {
      "midi": 50,
      "hit": false,
      "t": 17700,
      "d": 300,
      "v": 75
    },
    {
      "midi": 57,
      "hit": false,
      "t": 17700,
      "d": 300,
      "v": 75
    },
    {
      "midi": 62,
      "hit": false,
      "t": 18000,
      "d": 900,
      "v": 76
    },
    {
      "midi": 66,
      "hit": false,
      "t": 18000,
      "d": 900,
      "v": 76
    },
    {
      "midi": 50,
      "hit": false,
      "t": 18000,
      "d": 900,
      "v": 74
    },
    {
      "midi": 57,
      "hit": false,
      "t": 18000,
      "d": 900,
      "v": 74
    },
    {
      "midi": 59,
      "hit": false,
      "t": 18900,
      "d": 300,
      "v": 69
    },
    {
      "midi": 64,
      "hit": false,
      "t": 18900,
      "d": 300,
      "v": 69
    },
    {
      "midi": 52,
      "hit": false,
      "t": 18900,
      "d": 300,
      "v": 75
    },
    {
      "midi": 55,
      "hit": false,
      "t": 18900,
      "d": 300,
      "v": 75
    },
    {
      "midi": 62,
      "hit": false,
      "t": 19200,
      "d": 1200,
      "v": 83
    },
    {
      "midi": 66,
      "hit": false,
      "t": 19200,
      "d": 1200,
      "v": 83
    },
    {
      "midi": 50,
      "hit": false,
      "t": 19200,
      "d": 1200,
      "v": 77
    },
    {
      "midi": 57,
      "hit": false,
      "t": 19200,
      "d": 1200,
      "v": 77
    },
    {
      "midi": 62,
      "hit": false,
      "t": 20400,
      "d": 300,
      "v": 82
    },
    {
      "midi": 67,
      "hit": false,
      "t": 20400,
      "d": 300,
      "v": 82
    },
    {
      "midi": 55,
      "hit": false,
      "t": 20400,
      "d": 300,
      "v": 83
    },
    {
      "midi": 59,
      "hit": false,
      "t": 20400,
      "d": 300,
      "v": 83
    },
    {
      "midi": 62,
      "hit": false,
      "t": 20700,
      "d": 300,
      "v": 76
    },
    {
      "midi": 67,
      "hit": false,
      "t": 20700,
      "d": 300,
      "v": 76
    },
    {
      "midi": 55,
      "hit": false,
      "t": 20700,
      "d": 300,
      "v": 79
    },
    {
      "midi": 59,
      "hit": false,
      "t": 20700,
      "d": 300,
      "v": 79
    },
    {
      "midi": 62,
      "hit": false,
      "t": 21000,
      "d": 300,
      "v": 71
    },
    {
      "midi": 67,
      "hit": false,
      "t": 21000,
      "d": 300,
      "v": 71
    },
    {
      "midi": 55,
      "hit": false,
      "t": 21000,
      "d": 300,
      "v": 80
    },
    {
      "midi": 59,
      "hit": false,
      "t": 21000,
      "d": 300,
      "v": 80
    },
    {
      "midi": 62,
      "hit": false,
      "t": 21300,
      "d": 300,
      "v": 75
    },
    {
      "midi": 67,
      "hit": false,
      "t": 21300,
      "d": 300,
      "v": 75
    },
    {
      "midi": 55,
      "hit": false,
      "t": 21300,
      "d": 300,
      "v": 78
    },
    {
      "midi": 59,
      "hit": false,
      "t": 21300,
      "d": 300,
      "v": 78
    },
    {
      "midi": 62,
      "hit": false,
      "t": 21600,
      "d": 900,
      "v": 76
    },
    {
      "midi": 66,
      "hit": false,
      "t": 21600,
      "d": 900,
      "v": 76
    },
    {
      "midi": 50,
      "hit": false,
      "t": 21600,
      "d": 900,
      "v": 74
    },
    {
      "midi": 57,
      "hit": false,
      "t": 21600,
      "d": 900,
      "v": 74
    },
    {
      "midi": 59,
      "hit": false,
      "t": 22500,
      "d": 300,
      "v": 69
    },
    {
      "midi": 64,
      "hit": false,
      "t": 22500,
      "d": 300,
      "v": 69
    },
    {
      "midi": 52,
      "hit": false,
      "t": 22500,
      "d": 300,
      "v": 75
    },
    {
      "midi": 55,
      "hit": false,
      "t": 22500,
      "d": 300,
      "v": 75
    },
    {
      "midi": 59,
      "hit": false,
      "t": 22800,
      "d": 1200,
      "v": 73
    },
    {
      "midi": 63,
      "hit": false,
      "t": 22800,
      "d": 1200,
      "v": 73
    },
    {
      "midi": 47,
      "hit": false,
      "t": 22800,
      "d": 1200,
      "v": 74
    },
    {
      "midi": 54,
      "hit": false,
      "t": 22800,
      "d": 1200,
      "v": 74
    },
    {
      "midi": 59,
      "hit": false,
      "t": 24000,
      "d": 600,
      "v": 83
    },
    {
      "midi": 64,
      "hit": false,
      "t": 24000,
      "d": 600,
      "v": 83
    },
    {
      "midi": 52,
      "hit": false,
      "t": 24000,
      "d": 600,
      "v": 71
    },
    {
      "midi": 55,
      "hit": false,
      "t": 24000,
      "d": 600,
      "v": 71
    },
    {
      "midi": 59,
      "hit": false,
      "t": 24600,
      "d": 300,
      "v": 74
    },
    {
      "midi": 64,
      "hit": false,
      "t": 24600,
      "d": 300,
      "v": 74
    },
    {
      "midi": 52,
      "hit": false,
      "t": 24600,
      "d": 300,
      "v": 79
    },
    {
      "midi": 55,
      "hit": false,
      "t": 24600,
      "d": 300,
      "v": 79
    },
    {
      "midi": 62,
      "hit": false,
      "t": 24900,
      "d": 300,
      "v": 81
    },
    {
      "midi": 66,
      "hit": false,
      "t": 24900,
      "d": 300,
      "v": 81
    },
    {
      "midi": 50,
      "hit": false,
      "t": 24900,
      "d": 300,
      "v": 76
    },
    {
      "midi": 57,
      "hit": false,
      "t": 24900,
      "d": 300,
      "v": 76
    },
    {
      "midi": 59,
      "hit": false,
      "t": 25200,
      "d": 900,
      "v": 83
    },
    {
      "midi": 62,
      "hit": false,
      "t": 25200,
      "d": 900,
      "v": 83
    },
    {
      "midi": 67,
      "hit": false,
      "t": 25200,
      "d": 900,
      "v": 83
    },
    {
      "midi": 43,
      "hit": false,
      "t": 25200,
      "d": 900,
      "v": 68
    },
    {
      "midi": 57,
      "hit": false,
      "t": 26100,
      "d": 300,
      "v": 74
    },
    {
      "midi": 60,
      "hit": false,
      "t": 26100,
      "d": 300,
      "v": 74
    },
    {
      "midi": 66,
      "hit": false,
      "t": 26100,
      "d": 300,
      "v": 74
    },
    {
      "midi": 45,
      "hit": false,
      "t": 26100,
      "d": 300,
      "v": 77
    },
    {
      "midi": 59,
      "hit": false,
      "t": 26400,
      "d": 600,
      "v": 70
    },
    {
      "midi": 64,
      "hit": false,
      "t": 26400,
      "d": 600,
      "v": 70
    },
    {
      "midi": 47,
      "hit": false,
      "t": 26400,
      "d": 600,
      "v": 86
    },
    {
      "midi": 55,
      "hit": false,
      "t": 26400,
      "d": 600,
      "v": 86
    },
    {
      "midi": 59,
      "hit": false,
      "t": 27000,
      "d": 600,
      "v": 71
    },
    {
      "midi": 63,
      "hit": false,
      "t": 27000,
      "d": 600,
      "v": 71
    },
    {
      "midi": 47,
      "hit": false,
      "t": 27000,
      "d": 600,
      "v": 75
    },
    {
      "midi": 54,
      "hit": false,
      "t": 27000,
      "d": 600,
      "v": 75
    },
    {
      "midi": 59,
      "hit": false,
      "t": 27600,
      "d": 1200,
      "v": 80
    },
    {
      "midi": 64,
      "hit": false,
      "t": 27600,
      "d": 1200,
      "v": 80
    },
    {
      "midi": 52,
      "hit": false,
      "t": 27600,
      "d": 1200,
      "v": 79
    },
    {
      "midi": 55,
      "hit": false,
      "t": 27600,
      "d": 1200,
      "v": 79
    },
    {
      "midi": 59,
      "hit": false,
      "t": 28800,
      "d": 600,
      "v": 76
    },
    {
      "midi": 64,
      "hit": false,
      "t": 28800,
      "d": 600,
      "v": 76
    },
    {
      "midi": 52,
      "hit": false,
      "t": 28800,
      "d": 600,
      "v": 77
    },
    {
      "midi": 55,
      "hit": false,
      "t": 28800,
      "d": 600,
      "v": 77
    },
    {
      "midi": 59,
      "hit": false,
      "t": 29400,
      "d": 300,
      "v": 79
    },
    {
      "midi": 64,
      "hit": false,
      "t": 29400,
      "d": 300,
      "v": 79
    },
    {
      "midi": 52,
      "hit": false,
      "t": 29400,
      "d": 300,
      "v": 75
    },
    {
      "midi": 55,
      "hit": false,
      "t": 29400,
      "d": 300,
      "v": 75
    },
    {
      "midi": 59,
      "hit": false,
      "t": 29700,
      "d": 300,
      "v": 77
    },
    {
      "midi": 64,
      "hit": false,
      "t": 29700,
      "d": 300,
      "v": 77
    },
    {
      "midi": 52,
      "hit": false,
      "t": 29700,
      "d": 300,
      "v": 78
    },
    {
      "midi": 55,
      "hit": false,
      "t": 29700,
      "d": 300,
      "v": 78
    },
    {
      "midi": 60,
      "hit": false,
      "t": 30000,
      "d": 1200,
      "v": 76
    },
    {
      "midi": 64,
      "hit": false,
      "t": 30000,
      "d": 1200,
      "v": 76
    },
    {
      "midi": 45,
      "hit": false,
      "t": 30000,
      "d": 1200,
      "v": 71
    },
    {
      "midi": 54,
      "hit": false,
      "t": 30000,
      "d": 1200,
      "v": 71
    },
    {
      "midi": 59,
      "hit": false,
      "t": 31200,
      "d": 1200,
      "v": 74
    },
    {
      "midi": 63,
      "hit": false,
      "t": 31200,
      "d": 1200,
      "v": 74
    },
    {
      "midi": 47,
      "hit": false,
      "t": 31200,
      "d": 1200,
      "v": 73
    },
    {
      "midi": 54,
      "hit": false,
      "t": 31200,
      "d": 1200,
      "v": 73
    },
    {
      "midi": 59,
      "hit": false,
      "t": 32400,
      "d": 1200,
      "v": 80
    },
    {
      "midi": 64,
      "hit": false,
      "t": 32400,
      "d": 1200,
      "v": 80
    },
    {
      "midi": 52,
      "hit": false,
      "t": 32400,
      "d": 1200,
      "v": 75
    },
    {
      "midi": 55,
      "hit": false,
      "t": 32400,
      "d": 1200,
      "v": 75
    },
    {
      "midi": 59,
      "hit": false,
      "t": 33600,
      "d": 600,
      "v": 77
    },
    {
      "midi": 64,
      "hit": false,
      "t": 33600,
      "d": 600,
      "v": 77
    },
    {
      "midi": 52,
      "hit": false,
      "t": 33600,
      "d": 600,
      "v": 75
    },
    {
      "midi": 55,
      "hit": false,
      "t": 33600,
      "d": 600,
      "v": 75
    },
    {
      "midi": 59,
      "hit": false,
      "t": 34200,
      "d": 300,
      "v": 78
    },
    {
      "midi": 64,
      "hit": false,
      "t": 34200,
      "d": 300,
      "v": 78
    },
    {
      "midi": 52,
      "hit": false,
      "t": 34200,
      "d": 300,
      "v": 78
    },
    {
      "midi": 55,
      "hit": false,
      "t": 34200,
      "d": 300,
      "v": 78
    },
    {
      "midi": 59,
      "hit": false,
      "t": 34500,
      "d": 300,
      "v": 75
    },
    {
      "midi": 64,
      "hit": false,
      "t": 34500,
      "d": 300,
      "v": 75
    },
    {
      "midi": 52,
      "hit": false,
      "t": 34500,
      "d": 300,
      "v": 75
    },
    {
      "midi": 55,
      "hit": false,
      "t": 34500,
      "d": 300,
      "v": 75
    },
    {
      "midi": 60,
      "hit": false,
      "t": 34800,
      "d": 1200,
      "v": 83
    },
    {
      "midi": 64,
      "hit": false,
      "t": 34800,
      "d": 1200,
      "v": 83
    },
    {
      "midi": 45,
      "hit": false,
      "t": 34800,
      "d": 1200,
      "v": 79
    },
    {
      "midi": 54,
      "hit": false,
      "t": 34800,
      "d": 1200,
      "v": 79
    },
    {
      "midi": 59,
      "hit": false,
      "t": 36000,
      "d": 1200,
      "v": 70
    },
    {
      "midi": 63,
      "hit": false,
      "t": 36000,
      "d": 1200,
      "v": 70
    },
    {
      "midi": 47,
      "hit": false,
      "t": 36000,
      "d": 1200,
      "v": 78
    },
    {
      "midi": 54,
      "hit": false,
      "t": 36000,
      "d": 1200,
      "v": 78
    },
    {
      "midi": 55,
      "hit": false,
      "t": 37200,
      "d": 1200,
      "v": 79
    },
    {
      "midi": 59,
      "hit": false,
      "t": 37200,
      "d": 1200,
      "v": 79
    },
    {
      "midi": 64,
      "hit": false,
      "t": 37200,
      "d": 1200,
      "v": 79
    },
    {
      "midi": 52,
      "hit": false,
      "t": 37200,
      "d": 600,
      "v": 72
    },
    {
      "midi": 40,
      "hit": false,
      "t": 37800,
      "d": 300,
      "v": 63
    },
    {
      "midi": 40,
      "hit": false,
      "t": 38100,
      "d": 300,
      "v": 74
    },
    {
      "midi": 79,
      "hit": false,
      "t": 38400,
      "d": 1200,
      "v": 99
    },
    {
      "midi": 83,
      "hit": false,
      "t": 38400,
      "d": 1200,
      "v": 99
    },
    {
      "midi": 88,
      "hit": false,
      "t": 38400,
      "d": 1200,
      "v": 99
    },
    {
      "midi": 40,
      "hit": false,
      "t": 38400,
      "d": 600,
      "v": 79
    },
    {
      "midi": 40,
      "hit": false,
      "t": 39000,
      "d": 300,
      "v": 78
    },
    {
      "midi": 40,
      "hit": false,
      "t": 39300,
      "d": 300,
      "v": 74
    },
    {
      "midi": 78,
      "hit": false,
      "t": 39600,
      "d": 1200,
      "v": 76
    },
    {
      "midi": 83,
      "hit": false,
      "t": 39600,
      "d": 1200,
      "v": 76
    },
    {
      "midi": 86,
      "hit": false,
      "t": 39600,
      "d": 1200,
      "v": 76
    },
    {
      "midi": 40,
      "hit": false,
      "t": 39600,
      "d": 600,
      "v": 81
    },
    {
      "midi": 40,
      "hit": false,
      "t": 40200,
      "d": 300,
      "v": 74
    },
    {
      "midi": 40,
      "hit": false,
      "t": 40500,
      "d": 300,
      "v": 80
    },
    {
      "midi": 77,
      "hit": false,
      "t": 40800,
      "d": 1200,
      "v": 76
    },
    {
      "midi": 80,
      "hit": false,
      "t": 40800,
      "d": 1200,
      "v": 76
    },
    {
      "midi": 86,
      "hit": false,
      "t": 40800,
      "d": 1200,
      "v": 76
    },
    {
      "midi": 40,
      "hit": false,
      "t": 40800,
      "d": 600,
      "v": 76
    },
    {
      "midi": 40,
      "hit": false,
      "t": 41400,
      "d": 300,
      "v": 73
    },
    {
      "midi": 40,
      "hit": false,
      "t": 41700,
      "d": 300,
      "v": 82
    },
    {
      "midi": 76,
      "hit": false,
      "t": 42000,
      "d": 1200,
      "v": 72
    },
    {
      "midi": 81,
      "hit": false,
      "t": 42000,
      "d": 1200,
      "v": 72
    },
    {
      "midi": 84,
      "hit": false,
      "t": 42000,
      "d": 1200,
      "v": 72
    },
    {
      "midi": 40,
      "hit": false,
      "t": 42000,
      "d": 600,
      "v": 79
    },
    {
      "midi": 40,
      "hit": false,
      "t": 42600,
      "d": 300,
      "v": 71
    },
    {
      "midi": 40,
      "hit": false,
      "t": 42900,
      "d": 300,
      "v": 75
    },
    {
      "midi": 72,
      "hit": false,
      "t": 43200,
      "d": 600,
      "v": 69
    },
    {
      "midi": 76,
      "hit": false,
      "t": 43200,
      "d": 600,
      "v": 69
    },
    {
      "midi": 81,
      "hit": false,
      "t": 43200,
      "d": 600,
      "v": 69
    },
    {
      "midi": 40,
      "hit": false,
      "t": 43200,
      "d": 600,
      "v": 69
    },
    {
      "midi": 42,
      "hit": false,
      "t": 43200,
      "d": 600,
      "v": 78
    },
    {
      "midi": 71,
      "hit": false,
      "t": 43800,
      "d": 600,
      "v": 74
    },
    {
      "midi": 76,
      "hit": false,
      "t": 43800,
      "d": 600,
      "v": 74
    },
    {
      "midi": 79,
      "hit": false,
      "t": 43800,
      "d": 600,
      "v": 74
    },
    {
      "midi": 40,
      "hit": false,
      "t": 43800,
      "d": 300,
      "v": 75
    },
    {
      "midi": 43,
      "hit": false,
      "t": 43800,
      "d": 300,
      "v": 74
    },
    {
      "midi": 40,
      "hit": false,
      "t": 44100,
      "d": 300,
      "v": 75
    },
    {
      "midi": 72,
      "hit": false,
      "t": 44400,
      "d": 1200,
      "v": 72
    },
    {
      "midi": 76,
      "hit": false,
      "t": 44400,
      "d": 1200,
      "v": 72
    },
    {
      "midi": 78,
      "hit": false,
      "t": 44400,
      "d": 1200,
      "v": 72
    },
    {
      "midi": 40,
      "hit": false,
      "t": 44400,
      "d": 600,
      "v": 81
    },
    {
      "midi": 45,
      "hit": false,
      "t": 44400,
      "d": 600,
      "v": 79
    },
    {
      "midi": 40,
      "hit": false,
      "t": 45000,
      "d": 300,
      "v": 78
    },
    {
      "midi": 40,
      "hit": false,
      "t": 45300,
      "d": 300,
      "v": 74
    },
    {
      "midi": 72,
      "hit": false,
      "t": 45600,
      "d": 600,
      "v": 74
    },
    {
      "midi": 76,
      "hit": false,
      "t": 45600,
      "d": 600,
      "v": 74
    },
    {
      "midi": 78,
      "hit": false,
      "t": 45600,
      "d": 600,
      "v": 74
    },
    {
      "midi": 40,
      "hit": false,
      "t": 45600,
      "d": 600,
      "v": 79
    },
    {
      "midi": 46,
      "hit": false,
      "t": 45600,
      "d": 600,
      "v": 80
    },
    {
      "midi": 71,
      "hit": false,
      "t": 46200,
      "d": 600,
      "v": 72
    },
    {
      "midi": 75,
      "hit": false,
      "t": 46200,
      "d": 600,
      "v": 72
    },
    {
      "midi": 78,
      "hit": false,
      "t": 46200,
      "d": 600,
      "v": 72
    },
    {
      "midi": 40,
      "hit": false,
      "t": 46200,
      "d": 300,
      "v": 75
    },
    {
      "midi": 47,
      "hit": false,
      "t": 46200,
      "d": 300,
      "v": 76
    },
    {
      "midi": 40,
      "hit": false,
      "t": 46500,
      "d": 300,
      "v": 72
    },
    {
      "midi": 67,
      "hit": false,
      "t": 46800,
      "d": 1200,
      "v": 73
    },
    {
      "midi": 76,
      "hit": false,
      "t": 46800,
      "d": 1200,
      "v": 73
    },
    {
      "midi": 40,
      "hit": false,
      "t": 46800,
      "d": 600,
      "v": 77
    },
    {
      "midi": 48,
      "hit": false,
      "t": 46800,
      "d": 600,
      "v": 78
    },
    {
      "midi": 40,
      "hit": false,
      "t": 47400,
      "d": 300,
      "v": 78
    },
    {
      "midi": 40,
      "hit": false,
      "t": 47700,
      "d": 300,
      "v": 78
    },
    {
      "midi": 68,
      "hit": false,
      "t": 48000,
      "d": 1200,
      "v": 74
    },
    {
      "midi": 74,
      "hit": false,
      "t": 48000,
      "d": 1200,
      "v": 74
    },
    {
      "midi": 76,
      "hit": false,
      "t": 48000,
      "d": 1200,
      "v": 74
    },
    {
      "midi": 40,
      "hit": false,
      "t": 48000,
      "d": 600,
      "v": 77
    },
    {
      "midi": 47,
      "hit": false,
      "t": 48000,
      "d": 600,
      "v": 76
    },
    {
      "midi": 40,
      "hit": false,
      "t": 48600,
      "d": 300,
      "v": 76
    },
    {
      "midi": 40,
      "hit": false,
      "t": 48900,
      "d": 300,
      "v": 78
    },
    {
      "midi": 69,
      "hit": false,
      "t": 49200,
      "d": 1200,
      "v": 79
    },
    {
      "midi": 72,
      "hit": false,
      "t": 49200,
      "d": 1200,
      "v": 79
    },
    {
      "midi": 76,
      "hit": false,
      "t": 49200,
      "d": 1200,
      "v": 79
    },
    {
      "midi": 40,
      "hit": false,
      "t": 49200,
      "d": 600,
      "v": 80
    },
    {
      "midi": 45,
      "hit": false,
      "t": 49200,
      "d": 600,
      "v": 76
    },
    {
      "midi": 40,
      "hit": false,
      "t": 49800,
      "d": 300,
      "v": 80
    },
    {
      "midi": 40,
      "hit": false,
      "t": 50100,
      "d": 300,
      "v": 76
    },
    {
      "midi": 64,
      "hit": false,
      "t": 50400,
      "d": 1200,
      "v": 71
    },
    {
      "midi": 67,
      "hit": false,
      "t": 50400,
      "d": 1200,
      "v": 71
    },
    {
      "midi": 72,
      "hit": false,
      "t": 50400,
      "d": 1200,
      "v": 71
    },
    {
      "midi": 40,
      "hit": false,
      "t": 50400,
      "d": 600,
      "v": 78
    },
    {
      "midi": 46,
      "hit": false,
      "t": 50400,
      "d": 600,
      "v": 77
    },
    {
      "midi": 40,
      "hit": false,
      "t": 51000,
      "d": 300,
      "v": 74
    },
    {
      "midi": 40,
      "hit": false,
      "t": 51300,
      "d": 300,
      "v": 75
    },
    {
      "midi": 71,
      "hit": false,
      "t": 51600,
      "d": 1200,
      "v": 67
    },
    {
      "midi": 40,
      "hit": false,
      "t": 51600,
      "d": 600,
      "v": 77
    },
    {
      "midi": 47,
      "hit": false,
      "t": 51600,
      "d": 600,
      "v": 76
    },
    {
      "midi": 40,
      "hit": false,
      "t": 52200,
      "d": 300,
      "v": 78
    },
    {
      "midi": 40,
      "hit": false,
      "t": 52500,
      "d": 300,
      "v": 74
    },
    {
      "midi": 60,
      "hit": false,
      "t": 52800,
      "d": 600,
      "v": 67
    },
    {
      "midi": 64,
      "hit": false,
      "t": 52800,
      "d": 600,
      "v": 67
    },
    {
      "midi": 69,
      "hit": false,
      "t": 52800,
      "d": 600,
      "v": 67
    },
    {
      "midi": 40,
      "hit": false,
      "t": 52800,
      "d": 600,
      "v": 77
    },
    {
      "midi": 42,
      "hit": false,
      "t": 52800,
      "d": 600,
      "v": 73
    },
    {
      "midi": 59,
      "hit": false,
      "t": 53400,
      "d": 600,
      "v": 71
    },
    {
      "midi": 64,
      "hit": false,
      "t": 53400,
      "d": 600,
      "v": 71
    },
    {
      "midi": 67,
      "hit": false,
      "t": 53400,
      "d": 600,
      "v": 71
    },
    {
      "midi": 40,
      "hit": false,
      "t": 53400,
      "d": 300,
      "v": 74
    },
    {
      "midi": 43,
      "hit": false,
      "t": 53400,
      "d": 300,
      "v": 79
    },
    {
      "midi": 40,
      "hit": false,
      "t": 53700,
      "d": 300,
      "v": 75
    },
    {
      "midi": 60,
      "hit": false,
      "t": 54000,
      "d": 1200,
      "v": 71
    },
    {
      "midi": 64,
      "hit": false,
      "t": 54000,
      "d": 1200,
      "v": 71
    },
    {
      "midi": 66,
      "hit": false,
      "t": 54000,
      "d": 1200,
      "v": 71
    },
    {
      "midi": 40,
      "hit": false,
      "t": 54000,
      "d": 600,
      "v": 80
    },
    {
      "midi": 45,
      "hit": false,
      "t": 54000,
      "d": 600,
      "v": 81
    },
    {
      "midi": 40,
      "hit": false,
      "t": 54600,
      "d": 300,
      "v": 77
    },
    {
      "midi": 40,
      "hit": false,
      "t": 54900,
      "d": 300,
      "v": 79
    },
    {
      "midi": 59,
      "hit": false,
      "t": 55200,
      "d": 600,
      "v": 72
    },
    {
      "midi": 63,
      "hit": false,
      "t": 55200,
      "d": 600,
      "v": 75
    },
    {
      "midi": 66,
      "hit": false,
      "t": 55200,
      "d": 600,
      "v": 75
    },
    {
      "midi": 40,
      "hit": false,
      "t": 55200,
      "d": 600,
      "v": 77
    },
    {
      "midi": 47,
      "hit": false,
      "t": 55200,
      "d": 600,
      "v": 82
    },
    {
      "midi": 57,
      "hit": false,
      "t": 55800,
      "d": 600,
      "v": 74
    },
    {
      "midi": 40,
      "hit": false,
      "t": 55800,
      "d": 300,
      "v": 76
    },
    {
      "midi": 40,
      "hit": false,
      "t": 56100,
      "d": 300,
      "v": 76
    },
    {
      "midi": 55,
      "hit": false,
      "t": 56400,
      "d": 2400,
      "v": 73
    },
    {
      "midi": 64,
      "hit": false,
      "t": 56400,
      "d": 2400,
      "v": 73
    },
    {
      "midi": 40,
      "hit": false,
      "t": 56400,
      "d": 600,
      "v": 79
    },
    {
      "midi": 47,
      "hit": false,
      "t": 56400,
      "d": 600,
      "v": 77
    },
    {
      "midi": 40,
      "hit": false,
      "t": 57000,
      "d": 300,
      "v": 79
    },
    {
      "midi": 40,
      "hit": false,
      "t": 57300,
      "d": 300,
      "v": 75
    },
    {
      "midi": 40,
      "hit": false,
      "t": 57600,
      "d": 600,
      "v": 76
    },
    {
      "midi": 40,
      "hit": false,
      "t": 58200,
      "d": 300,
      "v": 76
    },
    {
      "midi": 40,
      "hit": false,
      "t": 58500,
      "d": 300,
      "v": 77
    },
    {
      "midi": 55,
      "hit": false,
      "t": 58800,
      "d": 1200,
      "v": 76
    },
    {
      "midi": 64,
      "hit": false,
      "t": 58800,
      "d": 1200,
      "v": 76
    },
    {
      "midi": 40,
      "hit": false,
      "t": 58800,
      "d": 600,
      "v": 74
    },
    {
      "midi": 47,
      "hit": false,
      "t": 58800,
      "d": 600,
      "v": 75
    },
    {
      "midi": 40,
      "hit": false,
      "t": 59400,
      "d": 300,
      "v": 76
    },
    {
      "midi": 40,
      "hit": false,
      "t": 59700,
      "d": 300,
      "v": 78
    },
    {
      "midi": 55,
      "hit": false,
      "t": 60000,
      "d": 1200,
      "v": 83
    },
    {
      "midi": 64,
      "hit": false,
      "t": 60000,
      "d": 1200,
      "v": 83
    },
    {
      "midi": 40,
      "hit": false,
      "t": 60000,
      "d": 600,
      "v": 77
    },
    {
      "midi": 47,
      "hit": false,
      "t": 60000,
      "d": 600,
      "v": 78
    },
    {
      "midi": 40,
      "hit": false,
      "t": 60600,
      "d": 300,
      "v": 75
    },
    {
      "midi": 40,
      "hit": false,
      "t": 60900,
      "d": 300,
      "v": 73
    },
    {
      "midi": 55,
      "hit": false,
      "t": 61200,
      "d": 1200,
      "v": 76
    },
    {
      "midi": 64,
      "hit": false,
      "t": 61200,
      "d": 1200,
      "v": 76
    },
    {
      "midi": 40,
      "hit": false,
      "t": 61200,
      "d": 1200,
      "v": 74
    },
    {
      "midi": 47,
      "hit": false,
      "t": 61200,
      "d": 1200,
      "v": 74
    }
  ]
}