{
  "jsonPath": "Classical/Classical/Pyotr Ilyich Tchaikovsky/march-of-the-wooden-soldiers.json",
  "path": "Classical\\Classical\\Pyotr Ilyich Tchaikovsky\\March of the Wooden Soldiers.mid",
  "name": "March of the Wooden Soldiers",
  "difficulty": "Intermediate",
  "bpm": 140.00014000014,
  "notes": [
    {
      "midi": 69,
      "hit": false,
      "t": 0,
      "d": 428.571,
      "v": 90
    },
    {
      "midi": 74,
      "hit": false,
      "t": 0,
      "d": 428.571,
      "v": 90
    },
    {
      "midi": 74,
      "hit": false,
      "t": 428.571,
      "d": 428.571,
      "v": 90
    },
    {
      "midi": 71,
      "hit": false,
      "t": 857.142,
      "d": 321.42824999999993,
      "v": 90
    },
    {
      "midi": 70,
      "hit": false,
      "t": 1178.57025,
      "d": 107.14274999999998,
      "v": 90
    },
    {
      "midi": 71,
      "hit": false,
      "t": 1285.713,
      "d": 321.42824999999993,
      "v": 90
    },
    {
      "midi": 73,
      "hit": false,
      "t": 1607.14125,
      "d": 107.14274999999998,
      "v": 90
    },
    {
      "midi": 69,
      "hit": false,
      "t": 1714.2839999999999,
      "d": 428.57100000000014,
      "v": 90
    },
    {
      "midi": 74,
      "hit": false,
      "t": 1714.2839999999999,
      "d": 428.57100000000014,
      "v": 90
    },
    {
      "midi": 74,
      "hit": false,
      "t": 2142.855,
      "d": 428.5709999999999,
      "v": 90
    },
    {
      "midi": 71,
      "hit": false,
      "t": 2571.426,
      "d": 321.42824999999993,
      "v": 90
    },
    {
      "midi": 70,
      "hit": false,
      "t": 2892.85425,
      "d": 107.14274999999998,
      "v": 90
    },
    {
      "midi": 71,
      "hit": false,
      "t": 2999.997,
      "d": 321.42824999999993,
      "v": 90
    },
    {
      "midi": 73,
      "hit": false,
      "t": 3321.42525,
      "d": 107.14274999999998,
      "v": 90
    },
    {
      "midi": 69,
      "hit": false,
      "t": 3428.5679999999998,
      "d": 428.5709999999999,
      "v": 90
    },
    {
      "midi": 74,
      "hit": false,
      "t": 3428.5679999999998,
      "d": 428.5709999999999,
      "v": 90
    },
    {
      "midi": 73,
      "hit": false,
      "t": 3857.1389999999997,
      "d": 428.57100000000037,
      "v": 90
    },
    {
      "midi": 76,
      "hit": false,
      "t": 3857.1389999999997,
      "d": 428.57100000000037,
      "v": 90
    },
    {
      "midi": 78,
      "hit": false,
      "t": 4285.71,
      "d": 428.5709999999999,
      "v": 90
    },
    {
      "midi": 74,
      "hit": false,
      "t": 4714.281,
      "d": 428.5709999999999,
      "v": 90
    },
    {
      "midi": 78,
      "hit": false,
      "t": 4714.281,
      "d": 428.5709999999999,
      "v": 90
    },
    {
      "midi": 76,
      "hit": false,
      "t": 5142.852,
      "d": 321.42824999999993,
      "v": 90
    },
    {
      "midi": 79,
      "hit": false,
      "t": 5142.852,
      "d": 321.42824999999993,
      "v": 90
    },
    {
      "midi": 74,
      "hit": false,
      "t": 5464.28025,
      "d": 107.14274999999998,
      "v": 90
    },
    {
      "midi": 78,
      "hit": false,
      "t": 5464.28025,
      "d": 107.14274999999998,
      "v": 90
    },
    {
      "midi": 73,
      "hit": false,
      "t": 5571.423,
      "d": 321.42824999999993,
      "v": 90
    },
    {
      "midi": 76,
      "hit": false,
      "t": 5571.423,
      "d": 321.42824999999993,
      "v": 90
    },
    {
      "midi": 71,
      "hit": false,
      "t": 5892.85125,
      "d": 107.14274999999998,
      "v": 90
    },
    {
      "midi": 74,
      "hit": false,
      "t": 5892.85125,
      "d": 107.14274999999998,
      "v": 90
    },
    {
      "midi": 73,
      "hit": false,
      "t": 5999.994,
      "d": 428.5709999999999,
      "v": 90
    },
    {
      "midi": 76,
      "hit": false,
      "t": 5999.994,
      "d": 428.5709999999999,
      "v": 90
    },
    {
      "midi": 69,
      "hit": false,
      "t": 6857.1359999999995,
      "d": 428.5709999999999,
      "v": 90
    },
    {
      "midi": 74,
      "hit": false,
      "t": 6857.1359999999995,
      "d": 428.5709999999999,
      "v": 90
    },
    {
      "midi": 74,
      "hit": false,
      "t": 7285.706999999999,
      "d": 428.5709999999999,
      "v": 90
    },
    {
      "midi": 71,
      "hit": false,
      "t": 7714.277999999999,
      "d": 321.42824999999993,
      "v": 90
    },
    {
      "midi": 70,
      "hit": false,
      "t": 8035.706249999999,
      "d": 107.14274999999998,
      "v": 90
    },
    {
      "midi": 71,
      "hit": false,
      "t": 8142.848999999999,
      "d": 321.42824999999993,
      "v": 90
    },
    {
      "midi": 73,
      "hit": false,
      "t": 8464.27725,
      "d": 107.14275000000089,
      "v": 90
    },
    {
      "midi": 69,
      "hit": false,
      "t": 8571.42,
      "d": 428.5709999999999,
      "v": 90
    },
    {
      "midi": 74,
      "hit": false,
      "t": 8571.42,
      "d": 428.5709999999999,
      "v": 90
    },
    {
      "midi": 74,
      "hit": false,
      "t": 8999.991,
      "d": 428.5709999999999,
      "v": 90
    },
    {
      "midi": 71,
      "hit": false,
      "t": 9428.562,
      "d": 321.42825000000084,
      "v": 90
    },
    {
      "midi": 70,
      "hit": false,
      "t": 9749.99025,
      "d": 107.14275000000089,
      "v": 90
    },
    {
      "midi": 71,
      "hit": false,
      "t": 9857.133000000002,
      "d": 321.42825000000084,
      "v": 90
    },
    {
      "midi": 73,
      "hit": false,
      "t": 10178.561250000002,
      "d": 107.14275000000089,
      "v": 90
    },
    {
      "midi": 69,
      "hit": false,
      "t": 10285.704000000003,
      "d": 428.5709999999999,
      "v": 90
    },
    {
      "midi": 74,
      "hit": false,
      "t": 10285.704000000003,
      "d": 428.5709999999999,
      "v": 90
    },
    {
      "midi": 73,
      "hit": false,
      "t": 10714.275000000003,
      "d": 428.5709999999999,
      "v": 90
    },
    {
      "midi": 76,
      "hit": false,
      "t": 10714.275000000003,
      "d": 428.5709999999999,
      "v": 90
    },
    {
      "midi": 78,
      "hit": false,
      "t": 11142.846000000003,
      "d": 428.5709999999999,
      "v": 90
    },
    {
      "midi": 74,
      "hit": false,
      "t": 11571.417000000003,
      "d": 428.5709999999999,
      "v": 90
    },
    {
      "midi": 78,
      "hit": false,
      "t": 11571.417000000003,
      "d": 428.5709999999999,
      "v": 90
    },
    {
      "midi": 73,
      "hit": false,
      "t": 11999.988000000003,
      "d": 321.42825000000084,
      "v": 90
    },
    {
      "midi": 76,
      "hit": false,
      "t": 11999.988000000003,
      "d": 321.42825000000084,
      "v": 90
    },
    {
      "midi": 71,
      "hit": false,
      "t": 12321.416250000004,
      "d": 107.14275000000089,
      "v": 90
    },
    {
      "midi": 74,
      "hit": false,
      "t": 12321.416250000004,
      "d": 107.14275000000089,
      "v": 90
    },
    {
      "midi": 69,
      "hit": false,
      "t": 12428.559000000005,
      "d": 321.42825000000084,
      "v": 90
    },
    {
      "midi": 73,
      "hit": false,
      "t": 12428.559000000005,
      "d": 321.42825000000084,
      "v": 90
    },
    {
      "midi": 68,
      "hit": false,
      "t": 12749.987250000006,
      "d": 107.14275000000089,
      "v": 90
    },
    {
      "midi": 71,
      "hit": false,
      "t": 12749.987250000006,
      "d": 107.14275000000089,
      "v": 90
    },
    {
      "midi": 69,
      "hit": false,
      "t": 12857.130000000006,
      "d": 428.5709999999999,
      "v": 90
    },
    {
      "midi": 64,
      "hit": false,
      "t": 13714.272000000006,
      "d": 428.5709999999999,
      "v": 90
    },
    {
      "midi": 69,
      "hit": false,
      "t": 13714.272000000006,
      "d": 428.5709999999999,
      "v": 90
    },
    {
      "midi": 69,
      "hit": false,
      "t": 14142.843000000006,
      "d": 428.5709999999999,
      "v": 90
    },
    {
      "midi": 70,
      "hit": false,
      "t": 14571.414000000006,
      "d": 321.42825000000084,
      "v": 90
    },
    {
      "midi": 69,
      "hit": false,
      "t": 14892.842250000007,
      "d": 107.14275000000089,
      "v": 90
    },
    {
      "midi": 70,
      "hit": false,
      "t": 14999.985000000008,
      "d": 321.42825000000084,
      "v": 90
    },
    {
      "midi": 68,
      "hit": false,
      "t": 15321.413250000009,
      "d": 107.14275000000089,
      "v": 90
    },
    {
      "midi": 69,
      "hit": false,
      "t": 15428.55600000001,
      "d": 428.5709999999999,
      "v": 90
    },
    {
      "midi": 69,
      "hit": false,
      "t": 15857.12700000001,
      "d": 428.5709999999999,
      "v": 90
    },
    {
      "midi": 70,
      "hit": false,
      "t": 16285.69800000001,
      "d": 321.428249999999,
      "v": 90
    },
    {
      "midi": 69,
      "hit": false,
      "t": 16607.12625000001,
      "d": 107.14274999999907,
      "v": 90
    },
    {
      "midi": 70,
      "hit": false,
      "t": 16714.269000000008,
      "d": 321.42825000000084,
      "v": 90
    },
    {
      "midi": 68,
      "hit": false,
      "t": 17035.69725000001,
      "d": 107.14274999999907,
      "v": 90
    },
    {
      "midi": 69,
      "hit": false,
      "t": 17142.840000000007,
      "d": 428.5709999999999,
      "v": 90
    },
    {
      "midi": 71,
      "hit": false,
      "t": 17571.411000000007,
      "d": 428.5709999999999,
      "v": 90
    },
    {
      "midi": 68,
      "hit": false,
      "t": 17999.982000000007,
      "d": 428.5709999999999,
      "v": 90
    },
    {
      "midi": 73,
      "hit": false,
      "t": 17999.982000000007,
      "d": 428.5709999999999,
      "v": 90
    },
    {
      "midi": 69,
      "hit": false,
      "t": 18428.553000000007,
      "d": 428.5709999999999,
      "v": 90
    },
    {
      "midi": 73,
      "hit": false,
      "t": 18428.553000000007,
      "d": 428.5709999999999,
      "v": 90
    },
    {
      "midi": 71,
      "hit": false,
      "t": 18857.124000000007,
      "d": 321.42825000000084,
      "v": 90
    },
    {
      "midi": 74,
      "hit": false,
      "t": 18857.124000000007,
      "d": 321.42825000000084,
      "v": 90
    },
    {
      "midi": 73,
      "hit": false,
      "t": 19178.552250000008,
      "d": 107.14274999999907,
      "v": 90
    },
    {
      "midi": 71,
      "hit": false,
      "t": 19285.695000000007,
      "d": 321.42825000000084,
      "v": 90
    },
    {
      "midi": 69,
      "hit": false,
      "t": 19607.123250000008,
      "d": 107.14274999999907,
      "v": 90
    },
    {
      "midi": 68,
      "hit": false,
      "t": 19714.266000000007,
      "d": 428.5709999999999,
      "v": 90
    },
    {
      "midi": 64,
      "hit": false,
      "t": 20571.408000000007,
      "d": 428.5709999999999,
      "v": 90
    },
    {
      "midi": 69,
      "hit": false,
      "t": 20571.408000000007,
      "d": 428.5709999999999,
      "v": 90
    },
    {
      "midi": 69,
      "hit": false,
      "t": 20999.979000000007,
      "d": 428.5709999999999,
      "v": 90
    },
    {
      "midi": 70,
      "hit": false,
      "t": 21428.550000000007,
      "d": 321.42825000000084,
      "v": 90
    },
    {
      "midi": 69,
      "hit": false,
      "t": 21749.978250000007,
      "d": 107.14274999999907,
      "v": 90
    },
    {
      "midi": 70,
      "hit": false,
      "t": 21857.121000000006,
      "d": 321.42825000000084,
      "v": 90
    },
    {
      "midi": 68,
      "hit": false,
      "t": 22178.549250000007,
      "d": 107.14274999999907,
      "v": 90
    },
    {
      "midi": 69,
      "hit": false,
      "t": 22285.692000000006,
      "d": 428.5709999999999,
      "v": 90
    },
    {
      "midi": 69,
      "hit": false,
      "t": 22714.263000000006,
      "d": 428.5709999999999,
      "v": 90
    },
    {
      "midi": 70,
      "hit": false,
      "t": 23142.834000000006,
      "d": 321.42825000000084,
      "v": 90
    },
    {
      "midi": 69,
      "hit": false,
      "t": 23464.262250000007,
      "d": 107.14274999999907,
      "v": 90
    },
    {
      "midi": 70,
      "hit": false,
      "t": 23571.405000000006,
      "d": 321.42825000000084,
      "v": 90
    },
    {
      "midi": 68,
      "hit": false,
      "t": 23892.833250000007,
      "d": 107.14274999999907,
      "v": 90
    },
    {
      "midi": 69,
      "hit": false,
      "t": 23999.976000000006,
      "d": 428.5709999999999,
      "v": 90
    },
    {
      "midi": 71,
      "hit": false,
      "t": 24428.547000000006,
      "d": 428.5709999999999,
      "v": 90
    },
    {
      "midi": 68,
      "hit": false,
      "t": 24857.118000000006,
      "d": 428.5709999999999,
      "v": 90
    },
    {
      "midi": 73,
      "hit": false,
      "t": 24857.118000000006,
      "d": 428.5709999999999,
      "v": 90
    },
    {
      "midi": 69,
      "hit": false,
      "t": 25285.689000000006,
      "d": 428.5709999999999,
      "v": 90
    },
    {
      "midi": 73,
      "hit": false,
      "t": 25285.689000000006,
      "d": 428.5709999999999,
      "v": 90
    },
    {
      "midi": 71,
      "hit": false,
      "t": 25714.260000000006,
      "d": 321.42825000000084,
      "v": 90
    },
    {
      "midi": 74,
      "hit": false,
      "t": 25714.260000000006,
      "d": 321.42825000000084,
      "v": 90
    },
    {
      "midi": 73,
      "hit": false,
      "t": 26035.688250000007,
      "d": 107.14274999999907,
      "v": 90
    },
    {
      "midi": 71,
      "hit": false,
      "t": 26142.831000000006,
      "d": 321.42825000000084,
      "v": 90
    },
    {
      "midi": 73,
      "hit": false,
      "t": 26464.259250000006,
      "d": 107.14274999999907,
      "v": 90
    },
    {
      "midi": 69,
      "hit": false,
      "t": 26571.402000000006,
      "d": 428.5709999999999,
      "v": 90
    },
    {
      "midi": 69,
      "hit": false,
      "t": 27428.544000000005,
      "d": 428.5709999999999,
      "v": 90
    },
    {
      "midi": 74,
      "hit": false,
      "t": 27428.544000000005,
      "d": 428.5709999999999,
      "v": 90
    },
    {
      "midi": 74,
      "hit": false,
      "t": 27857.115000000005,
      "d": 428.5709999999999,
      "v": 90
    },
    {
      "midi": 71,
      "hit": false,
      "t": 28285.686000000005,
      "d": 321.42825000000084,
      "v": 90
    },
    {
      "midi": 70,
      "hit": false,
      "t": 28607.114250000006,
      "d": 107.14274999999907,
      "v": 90
    },
    {
      "midi": 71,
      "hit": false,
      "t": 28714.257000000005,
      "d": 321.42825000000084,
      "v": 90
    },
    {
      "midi": 73,
      "hit": false,
      "t": 29035.685250000006,
      "d": 107.14274999999907,
      "v": 90
    },
    {
      "midi": 69,
      "hit": false,
      "t": 29142.828000000005,
      "d": 428.5709999999999,
      "v": 90
    },
    {
      "midi": 74,
      "hit": false,
      "t": 29142.828000000005,
      "d": 428.5709999999999,
      "v": 90
    },
    {
      "midi": 74,
      "hit": false,
      "t": 29571.399000000005,
      "d": 428.5709999999999,
      "v": 90
    },
    {
      "midi": 71,
      "hit": false,
      "t": 29999.970000000005,
      "d": 321.42825000000084,
      "v": 90
    },
    {
      "midi": 70,
      "hit": false,
      "t": 30321.398250000006,
      "d": 107.14274999999907,
      "v": 90
    },
    {
      "midi": 71,
      "hit": false,
      "t": 30428.541000000005,
      "d": 321.42825000000084,
      "v": 90
    },
    {
      "midi": 73,
      "hit": false,
      "t": 30749.969250000006,
      "d": 107.14274999999907,
      "v": 90
    },
    {
      "midi": 69,
      "hit": false,
      "t": 30857.112000000005,
      "d": 428.5709999999999,
      "v": 90
    },
    {
      "midi": 74,
      "hit": false,
      "t": 30857.112000000005,
      "d": 428.5709999999999,
      "v": 90
    },
    {
      "midi": 73,
      "hit": false,
      "t": 31285.683000000005,
      "d": 428.5709999999999,
      "v": 90
    },
    {
      "midi": 76,
      "hit": false,
      "t": 31285.683000000005,
      "d": 428.5709999999999,
      "v": 90
    },
    {
      "midi": 78,
      "hit": false,
      "t": 31714.254000000004,
      "d": 428.5709999999999,
      "v": 90
    },
    {
      "midi": 74,
      "hit": false,
      "t": 32142.825000000004,
      "d": 428.5709999999999,
      "v": 90
    },
    {
      "midi": 78,
      "hit": false,
      "t": 32142.825000000004,
      "d": 428.5709999999999,
      "v": 90
    },
    {
      "midi": 76,
      "hit": false,
      "t": 32571.396000000004,
      "d": 321.42825000000084,
      "v": 90
    },
    {
      "midi": 79,
      "hit": false,
      "t": 32571.396000000004,
      "d": 321.42825000000084,
      "v": 90
    },
    {
      "midi": 74,
      "hit": false,
      "t": 32892.824250000005,
      "d": 107.14274999999907,
      "v": 90
    },
    {
      "midi": 78,
      "hit": false,
      "t": 32892.824250000005,
      "d": 107.14274999999907,
      "v": 90
    },
    {
      "midi": 73,
      "hit": false,
      "t": 32999.967000000004,
      "d": 321.4282499999972,
      "v": 90
    },
    {
      "midi": 76,
      "hit": false,
      "t": 32999.967000000004,
      "d": 321.4282499999972,
      "v": 90
    },
    {
      "midi": 71,
      "hit": false,
      "t": 33321.39525,
      "d": 107.14274999999907,
      "v": 90
    },
    {
      "midi": 74,
      "hit": false,
      "t": 33321.39525,
      "d": 107.14274999999907,
      "v": 90
    },
    {
      "midi": 73,
      "hit": false,
      "t": 33428.538,
      "d": 428.57100000000355,
      "v": 90
    },
    {
      "midi": 76,
      "hit": false,
      "t": 33428.538,
      "d": 428.57100000000355,
      "v": 90
    },
    {
      "midi": 69,
      "hit": false,
      "t": 34285.68000000001,
      "d": 428.57100000000355,
      "v": 90
    },
    {
      "midi": 74,
      "hit": false,
      "t": 34285.68000000001,
      "d": 428.57100000000355,
      "v": 90
    },
    {
      "midi": 74,
      "hit": false,
      "t": 34714.25100000001,
      "d": 428.57100000000355,
      "v": 90
    },
    {
      "midi": 71,
      "hit": false,
      "t": 35142.822000000015,
      "d": 321.4282499999972,
      "v": 90
    },
    {
      "midi": 70,
      "hit": false,
      "t": 35464.25025000001,
      "d": 107.14274999999907,
      "v": 90
    },
    {
      "midi": 71,
      "hit": false,
      "t": 35571.39300000001,
      "d": 321.4282499999972,
      "v": 90
    },
    {
      "midi": 73,
      "hit": false,
      "t": 35892.82125000001,
      "d": 107.14274999999907,
      "v": 90
    },
    {
      "midi": 74,
      "hit": false,
      "t": 35999.96400000001,
      "d": 428.57100000000355,
      "v": 90
    },
    {
      "midi": 74,
      "hit": false,
      "t": 36428.53500000001,
      "d": 428.57100000000355,
      "v": 90
    },
    {
      "midi": 71,
      "hit": false,
      "t": 36857.106000000014,
      "d": 321.4282499999972,
      "v": 90
    },
    {
      "midi": 70,
      "hit": false,
      "t": 37178.53425000001,
      "d": 107.14274999999907,
      "v": 90
    },
    {
      "midi": 71,
      "hit": false,
      "t": 37285.67700000001,
      "d": 321.4282499999972,
      "v": 90
    },
    {
      "midi": 73,
      "hit": false,
      "t": 37607.10525000001,
      "d": 107.14274999999907,
      "v": 90
    },
    {
      "midi": 69,
      "hit": false,
      "t": 37714.24800000001,
      "d": 428.57100000000355,
      "v": 90
    },
    {
      "midi": 74,
      "hit": false,
      "t": 37714.24800000001,
      "d": 428.57100000000355,
      "v": 90
    },
    {
      "midi": 73,
      "hit": false,
      "t": 38142.81900000001,
      "d": 428.57100000000355,
      "v": 90
    },
    {
      "midi": 76,
      "hit": false,
      "t": 38142.81900000001,
      "d": 428.57100000000355,
      "v": 90
    },
    {
      "midi": 78,
      "hit": false,
      "t": 38571.390000000014,
      "d": 428.57100000000355,
      "v": 90
    },
    {
      "midi": 74,
      "hit": false,
      "t": 38999.96100000002,
      "d": 428.57100000000355,
      "v": 90
    },
    {
      "midi": 78,
      "hit": false,
      "t": 38999.96100000002,
      "d": 428.57100000000355,
      "v": 90
    },
    {
      "midi": 76,
      "hit": false,
      "t": 39428.53200000002,
      "d": 321.4282499999972,
      "v": 90
    },
    {
      "midi": 75,
      "hit": false,
      "t": 39749.96025000002,
      "d": 107.14274999999907,
      "v": 90
    },
    {
      "midi": 76,
      "hit": false,
      "t": 39857.10300000002,
      "d": 321.4282499999972,
      "v": 90
    },
    {
      "midi": 78,
      "hit": false,
      "t": 40178.531250000015,
      "d": 107.14274999999907,
      "v": 90
    },
    {
      "midi": 74,
      "hit": false,
      "t": 40285.67400000001,
      "d": 428.57100000000355,
      "v": 90
    }
  ]
}