{
  "jsonPath": "Classical/Classical/Pyotr Ilyich Tchaikovsky/symphony-no6.json",
  "path": "Classical\\Classical\\Pyotr Ilyich Tchaikovsky\\Symphony No6.mid",
  "name": "Symphony No6",
  "difficulty": "Advanced",
  "bpm": 69.00001725000432,
  "notes": [
    {
      "midi": 76,
      "hit": false,
      "t": 2173.9124999999995,
      "d": 434.7824999999998,
      "v": 100
    },
    {
      "midi": 74,
      "hit": false,
      "t": 2608.6949999999993,
      "d": 434.7824999999998,
      "v": 100
    },
    {
      "midi": 72,
      "hit": false,
      "t": 3043.477499999999,
      "d": 434.7824999999998,
      "v": 100
    },
    {
      "midi": 64,
      "hit": false,
      "t": 3478.259999999999,
      "d": 434.7824999999998,
      "v": 100
    },
    {
      "midi": 69,
      "hit": false,
      "t": 3478.259999999999,
      "d": 434.7824999999998,
      "v": 100
    },
    {
      "midi": 48,
      "hit": false,
      "t": 3478.2599999999993,
      "d": 1739.13,
      "v": 100
    },
    {
      "midi": 55,
      "hit": false,
      "t": 3478.2599999999993,
      "d": 1739.13,
      "v": 100
    },
    {
      "midi": 67,
      "hit": false,
      "t": 3913.0424999999987,
      "d": 434.78250000000025,
      "v": 100
    },
    {
      "midi": 64,
      "hit": false,
      "t": 4347.824999999999,
      "d": 434.78250000000025,
      "v": 100
    },
    {
      "midi": 67,
      "hit": false,
      "t": 4782.607499999999,
      "d": 434.78250000000025,
      "v": 100
    },
    {
      "midi": 63,
      "hit": false,
      "t": 5217.389999999999,
      "d": 1304.3474999999999,
      "v": 100
    },
    {
      "midi": 66,
      "hit": false,
      "t": 5217.389999999999,
      "d": 1304.3474999999999,
      "v": 100
    },
    {
      "midi": 72,
      "hit": false,
      "t": 5217.389999999999,
      "d": 1304.3474999999999,
      "v": 100
    },
    {
      "midi": 48,
      "hit": false,
      "t": 5217.389999999999,
      "d": 1739.1299999999992,
      "v": 100
    },
    {
      "midi": 57,
      "hit": false,
      "t": 5217.389999999999,
      "d": 1739.1299999999992,
      "v": 100
    },
    {
      "midi": 69,
      "hit": false,
      "t": 6521.737499999999,
      "d": 434.78250000000025,
      "v": 100
    },
    {
      "midi": 48,
      "hit": false,
      "t": 6956.519999999999,
      "d": 434.78250000000025,
      "v": 100
    },
    {
      "midi": 60,
      "hit": false,
      "t": 6956.519999999999,
      "d": 434.78250000000025,
      "v": 100
    },
    {
      "midi": 64,
      "hit": false,
      "t": 6956.5199999999995,
      "d": 1739.13,
      "v": 100
    },
    {
      "midi": 67,
      "hit": false,
      "t": 6956.5199999999995,
      "d": 1739.13,
      "v": 100
    },
    {
      "midi": 48,
      "hit": false,
      "t": 7391.302499999999,
      "d": 869.5649999999996,
      "v": 100
    },
    {
      "midi": 60,
      "hit": false,
      "t": 7391.302499999999,
      "d": 869.5649999999996,
      "v": 100
    },
    {
      "midi": 48,
      "hit": false,
      "t": 8260.867499999998,
      "d": 434.78249999999935,
      "v": 100
    },
    {
      "midi": 60,
      "hit": false,
      "t": 8260.867499999998,
      "d": 434.78249999999935,
      "v": 100
    },
    {
      "midi": 48,
      "hit": false,
      "t": 8695.649999999998,
      "d": 1739.1299999999992,
      "v": 100
    },
    {
      "midi": 60,
      "hit": false,
      "t": 8695.649999999998,
      "d": 1739.1299999999992,
      "v": 100
    },
    {
      "midi": 67,
      "hit": false,
      "t": 8695.65,
      "d": 434.78249999999935,
      "v": 100
    },
    {
      "midi": 76,
      "hit": false,
      "t": 9130.432499999999,
      "d": 434.78249999999935,
      "v": 100
    },
    {
      "midi": 74,
      "hit": false,
      "t": 9565.214999999998,
      "d": 434.78249999999935,
      "v": 100
    },
    {
      "midi": 72,
      "hit": false,
      "t": 9999.997499999998,
      "d": 434.78249999999935,
      "v": 100
    },
    {
      "midi": 64,
      "hit": false,
      "t": 10434.779999999997,
      "d": 434.78249999999935,
      "v": 100
    },
    {
      "midi": 67,
      "hit": false,
      "t": 10434.779999999997,
      "d": 434.78249999999935,
      "v": 100
    },
    {
      "midi": 48,
      "hit": false,
      "t": 10434.779999999997,
      "d": 1739.1299999999992,
      "v": 100
    },
    {
      "midi": 55,
      "hit": false,
      "t": 10434.779999999997,
      "d": 1739.1299999999992,
      "v": 100
    },
    {
      "midi": 64,
      "hit": false,
      "t": 10869.562499999996,
      "d": 434.78249999999935,
      "v": 100
    },
    {
      "midi": 60,
      "hit": false,
      "t": 11304.344999999996,
      "d": 434.78249999999935,
      "v": 100
    },
    {
      "midi": 64,
      "hit": false,
      "t": 11739.127499999995,
      "d": 434.78249999999935,
      "v": 100
    },
    {
      "midi": 65,
      "hit": false,
      "t": 12173.909999999994,
      "d": 1304.3474999999999,
      "v": 100
    },
    {
      "midi": 69,
      "hit": false,
      "t": 12173.909999999994,
      "d": 1304.3474999999999,
      "v": 100
    },
    {
      "midi": 48,
      "hit": false,
      "t": 12173.909999999996,
      "d": 1739.1299999999992,
      "v": 100
    },
    {
      "midi": 59,
      "hit": false,
      "t": 12173.909999999996,
      "d": 1739.1299999999992,
      "v": 100
    },
    {
      "midi": 67,
      "hit": false,
      "t": 13478.257499999994,
      "d": 434.78249999999935,
      "v": 100
    },
    {
      "midi": 64,
      "hit": false,
      "t": 13913.039999999994,
      "d": 1739.1299999999992,
      "v": 100
    },
    {
      "midi": 67,
      "hit": false,
      "t": 13913.039999999994,
      "d": 1739.1299999999992,
      "v": 100
    },
    {
      "midi": 48,
      "hit": false,
      "t": 13913.039999999995,
      "d": 434.78249999999935,
      "v": 100
    },
    {
      "midi": 60,
      "hit": false,
      "t": 13913.039999999995,
      "d": 434.78249999999935,
      "v": 100
    },
    {
      "midi": 48,
      "hit": false,
      "t": 14347.822499999995,
      "d": 869.5650000000005,
      "v": 100
    },
    {
      "midi": 60,
      "hit": false,
      "t": 14347.822499999995,
      "d": 869.5650000000005,
      "v": 100
    },
    {
      "midi": 48,
      "hit": false,
      "t": 15217.387499999995,
      "d": 434.78249999999935,
      "v": 100
    },
    {
      "midi": 60,
      "hit": false,
      "t": 15217.387499999995,
      "d": 434.78249999999935,
      "v": 100
    },
    {
      "midi": 73,
      "hit": false,
      "t": 15652.169999999993,
      "d": 869.5650000000005,
      "v": 100
    },
    {
      "midi": 79,
      "hit": false,
      "t": 15652.169999999993,
      "d": 869.5650000000005,
      "v": 100
    },
    {
      "midi": 48,
      "hit": false,
      "t": 15652.169999999995,
      "d": 1739.130000000001,
      "v": 100
    },
    {
      "midi": 58,
      "hit": false,
      "t": 15652.169999999995,
      "d": 1739.130000000001,
      "v": 100
    },
    {
      "midi": 77,
      "hit": false,
      "t": 16521.734999999993,
      "d": 434.78250000000116,
      "v": 100
    },
    {
      "midi": 76,
      "hit": false,
      "t": 16956.517499999994,
      "d": 434.78250000000116,
      "v": 100
    },
    {
      "midi": 69,
      "hit": false,
      "t": 17391.299999999996,
      "d": 869.5649999999987,
      "v": 100
    },
    {
      "midi": 76,
      "hit": false,
      "t": 17391.299999999996,
      "d": 869.5649999999987,
      "v": 100
    },
    {
      "midi": 53,
      "hit": false,
      "t": 17391.299999999996,
      "d": 1739.130000000001,
      "v": 100
    },
    {
      "midi": 60,
      "hit": false,
      "t": 17391.299999999996,
      "d": 1739.130000000001,
      "v": 100
    },
    {
      "midi": 74,
      "hit": false,
      "t": 18260.864999999994,
      "d": 869.5649999999987,
      "v": 100
    },
    {
      "midi": 68,
      "hit": false,
      "t": 19130.429999999993,
      "d": 869.5649999999987,
      "v": 100
    },
    {
      "midi": 77,
      "hit": false,
      "t": 19130.429999999993,
      "d": 869.5649999999987,
      "v": 100
    },
    {
      "midi": 53,
      "hit": false,
      "t": 19130.429999999997,
      "d": 1739.130000000001,
      "v": 100
    },
    {
      "midi": 60,
      "hit": false,
      "t": 19130.429999999997,
      "d": 1739.130000000001,
      "v": 100
    },
    {
      "midi": 76,
      "hit": false,
      "t": 19999.99499999999,
      "d": 434.78250000000116,
      "v": 100
    },
    {
      "midi": 74,
      "hit": false,
      "t": 20434.777499999993,
      "d": 434.78250000000116,
      "v": 100
    },
    {
      "midi": 67,
      "hit": false,
      "t": 20869.559999999994,
      "d": 869.5649999999987,
      "v": 100
    },
    {
      "midi": 74,
      "hit": false,
      "t": 20869.559999999994,
      "d": 869.5649999999987,
      "v": 100
    },
    {
      "midi": 55,
      "hit": false,
      "t": 20869.559999999998,
      "d": 1739.130000000001,
      "v": 100
    },
    {
      "midi": 64,
      "hit": false,
      "t": 20869.559999999998,
      "d": 1739.130000000001,
      "v": 100
    },
    {
      "midi": 72,
      "hit": false,
      "t": 21739.124999999993,
      "d": 869.5649999999987,
      "v": 100
    },
    {
      "midi": 42,
      "hit": false,
      "t": 22608.69,
      "d": 1739.130000000001,
      "v": 100
    },
    {
      "midi": 52,
      "hit": false,
      "t": 22608.69,
      "d": 1739.130000000001,
      "v": 100
    },
    {
      "midi": 76,
      "hit": false,
      "t": 23043.472499999993,
      "d": 434.78250000000116,
      "v": 100
    },
    {
      "midi": 74,
      "hit": false,
      "t": 23478.254999999994,
      "d": 434.78250000000116,
      "v": 100
    },
    {
      "midi": 72,
      "hit": false,
      "t": 23913.037499999995,
      "d": 434.78250000000116,
      "v": 100
    },
    {
      "midi": 60,
      "hit": false,
      "t": 24347.819999999996,
      "d": 434.78250000000116,
      "v": 100
    },
    {
      "midi": 67,
      "hit": false,
      "t": 24347.819999999996,
      "d": 434.78250000000116,
      "v": 100
    },
    {
      "midi": 43,
      "hit": false,
      "t": 24347.82,
      "d": 1739.130000000001,
      "v": 100
    },
    {
      "midi": 52,
      "hit": false,
      "t": 24347.82,
      "d": 1739.130000000001,
      "v": 100
    },
    {
      "midi": 64,
      "hit": false,
      "t": 24782.602499999997,
      "d": 434.78250000000116,
      "v": 100
    },
    {
      "midi": 60,
      "hit": false,
      "t": 25217.385,
      "d": 434.78250000000116,
      "v": 100
    },
    {
      "midi": 64,
      "hit": false,
      "t": 25652.1675,
      "d": 434.78250000000116,
      "v": 100
    },
    {
      "midi": 61,
      "hit": false,
      "t": 26086.95,
      "d": 869.5649999999987,
      "v": 100
    },
    {
      "midi": 69,
      "hit": false,
      "t": 26086.95,
      "d": 869.5649999999987,
      "v": 100
    },
    {
      "midi": 43,
      "hit": false,
      "t": 26086.95,
      "d": 1739.130000000001,
      "v": 100
    },
    {
      "midi": 53,
      "hit": false,
      "t": 26086.95,
      "d": 1739.130000000001,
      "v": 100
    },
    {
      "midi": 62,
      "hit": false,
      "t": 26956.515,
      "d": 434.78250000000116,
      "v": 100
    },
    {
      "midi": 67,
      "hit": false,
      "t": 27391.2975,
      "d": 434.78250000000116,
      "v": 100
    },
    {
      "midi": 64,
      "hit": false,
      "t": 27826.08,
      "d": 1739.130000000001,
      "v": 100
    },
    {
      "midi": 67,
      "hit": false,
      "t": 27826.08,
      "d": 1739.130000000001,
      "v": 100
    },
    {
      "midi": 48,
      "hit": false,
      "t": 27826.08,
      "d": 434.78250000000116,
      "v": 100
    },
    {
      "midi": 60,
      "hit": false,
      "t": 27826.08,
      "d": 434.78250000000116,
      "v": 100
    },
    {
      "midi": 48,
      "hit": false,
      "t": 28260.862500000003,
      "d": 869.5649999999987,
      "v": 100
    },
    {
      "midi": 60,
      "hit": false,
      "t": 28260.862500000003,
      "d": 869.5649999999987,
      "v": 100
    },
    {
      "midi": 48,
      "hit": false,
      "t": 29130.4275,
      "d": 434.78250000000116,
      "v": 100
    },
    {
      "midi": 60,
      "hit": false,
      "t": 29130.4275,
      "d": 434.78250000000116,
      "v": 100
    },
    {
      "midi": 73,
      "hit": false,
      "t": 29565.210000000003,
      "d": 869.5649999999987,
      "v": 100
    },
    {
      "midi": 79,
      "hit": false,
      "t": 29565.210000000003,
      "d": 869.5649999999987,
      "v": 100
    },
    {
      "midi": 48,
      "hit": false,
      "t": 29565.210000000003,
      "d": 1739.130000000001,
      "v": 100
    },
    {
      "midi": 58,
      "hit": false,
      "t": 29565.210000000003,
      "d": 1739.130000000001,
      "v": 100
    },
    {
      "midi": 77,
      "hit": false,
      "t": 30434.775,
      "d": 434.78250000000116,
      "v": 100
    },
    {
      "midi": 76,
      "hit": false,
      "t": 30869.557500000003,
      "d": 434.78250000000116,
      "v": 100
    },
    {
      "midi": 69,
      "hit": false,
      "t": 31304.340000000004,
      "d": 869.5649999999987,
      "v": 100
    },
    {
      "midi": 76,
      "hit": false,
      "t": 31304.340000000004,
      "d": 869.5649999999987,
      "v": 100
    },
    {
      "midi": 53,
      "hit": false,
      "t": 31304.340000000004,
      "d": 1739.1299999999974,
      "v": 100
    },
    {
      "midi": 60,
      "hit": false,
      "t": 31304.340000000004,
      "d": 1739.1299999999974,
      "v": 100
    },
    {
      "midi": 74,
      "hit": false,
      "t": 32173.905000000002,
      "d": 869.5649999999987,
      "v": 100
    },
    {
      "midi": 68,
      "hit": false,
      "t": 33043.47,
      "d": 869.5650000000023,
      "v": 100
    },
    {
      "midi": 77,
      "hit": false,
      "t": 33043.47,
      "d": 869.5650000000023,
      "v": 100
    },
    {
      "midi": 53,
      "hit": false,
      "t": 33043.47,
      "d": 1739.1299999999974,
      "v": 100
    },
    {
      "midi": 60,
      "hit": false,
      "t": 33043.47,
      "d": 1739.1299999999974,
      "v": 100
    },
    {
      "midi": 76,
      "hit": false,
      "t": 33913.035,
      "d": 434.78250000000116,
      "v": 100
    },
    {
      "midi": 74,
      "hit": false,
      "t": 34347.817500000005,
      "d": 434.78250000000116,
      "v": 100
    },
    {
      "midi": 55,
      "hit": false,
      "t": 34782.6,
      "d": 1739.1299999999974,
      "v": 100
    },
    {
      "midi": 64,
      "hit": false,
      "t": 34782.6,
      "d": 1739.1299999999974,
      "v": 100
    },
    {
      "midi": 67,
      "hit": false,
      "t": 34782.600000000006,
      "d": 869.5650000000023,
      "v": 100
    },
    {
      "midi": 74,
      "hit": false,
      "t": 34782.600000000006,
      "d": 869.5650000000023,
      "v": 100
    },
    {
      "midi": 72,
      "hit": false,
      "t": 35652.16500000001,
      "d": 869.5650000000023,
      "v": 100
    },
    {
      "midi": 42,
      "hit": false,
      "t": 36521.729999999996,
      "d": 1739.1299999999974,
      "v": 100
    },
    {
      "midi": 52,
      "hit": false,
      "t": 36521.729999999996,
      "d": 1739.1299999999974,
      "v": 100
    },
    {
      "midi": 76,
      "hit": false,
      "t": 36956.51250000001,
      "d": 434.78250000000116,
      "v": 100
    },
    {
      "midi": 74,
      "hit": false,
      "t": 37391.29500000001,
      "d": 434.78250000000116,
      "v": 100
    },
    {
      "midi": 72,
      "hit": false,
      "t": 37826.077500000014,
      "d": 434.78250000000116,
      "v": 100
    },
    {
      "midi": 43,
      "hit": false,
      "t": 38260.85999999999,
      "d": 1739.1299999999974,
      "v": 100
    },
    {
      "midi": 52,
      "hit": false,
      "t": 38260.85999999999,
      "d": 1739.1299999999974,
      "v": 100
    },
    {
      "midi": 60,
      "hit": false,
      "t": 38260.860000000015,
      "d": 434.78250000000116,
      "v": 100
    },
    {
      "midi": 67,
      "hit": false,
      "t": 38260.860000000015,
      "d": 434.78250000000116,
      "v": 100
    },
    {
      "midi": 64,
      "hit": false,
      "t": 38695.642500000016,
      "d": 434.78250000000116,
      "v": 100
    },
    {
      "midi": 60,
      "hit": false,
      "t": 39130.42500000002,
      "d": 434.78250000000116,
      "v": 100
    },
    {
      "midi": 64,
      "hit": false,
      "t": 39565.20750000002,
      "d": 434.78250000000116,
      "v": 100
    },
    {
      "midi": 43,
      "hit": false,
      "t": 39999.98999999999,
      "d": 1739.1299999999974,
      "v": 100
    },
    {
      "midi": 53,
      "hit": false,
      "t": 39999.98999999999,
      "d": 1739.1299999999974,
      "v": 100
    },
    {
      "midi": 61,
      "hit": false,
      "t": 39999.99000000002,
      "d": 869.5650000000023,
      "v": 100
    },
    {
      "midi": 69,
      "hit": false,
      "t": 39999.99000000002,
      "d": 869.5650000000023,
      "v": 100
    },
    {
      "midi": 62,
      "hit": false,
      "t": 40869.55500000002,
      "d": 434.78250000000116,
      "v": 100
    },
    {
      "midi": 67,
      "hit": false,
      "t": 41304.33750000002,
      "d": 434.78250000000116,
      "v": 100
    },
    {
      "midi": 48,
      "hit": false,
      "t": 41739.11999999999,
      "d": 434.78250000000116,
      "v": 100
    },
    {
      "midi": 52,
      "hit": false,
      "t": 41739.11999999999,
      "d": 434.78250000000116,
      "v": 100
    },
    {
      "midi": 60,
      "hit": false,
      "t": 41739.120000000024,
      "d": 1739.1299999999974,
      "v": 100
    },
    {
      "midi": 48,
      "hit": false,
      "t": 42173.90249999999,
      "d": 869.5650000000023,
      "v": 100
    },
    {
      "midi": 52,
      "hit": false,
      "t": 42173.90249999999,
      "d": 869.5650000000023,
      "v": 100
    },
    {
      "midi": 48,
      "hit": false,
      "t": 43043.46749999999,
      "d": 434.78250000000116,
      "v": 100
    },
    {
      "midi": 52,
      "hit": false,
      "t": 43043.46749999999,
      "d": 434.78250000000116,
      "v": 100
    },
    {
      "midi": 48,
      "hit": false,
      "t": 43478.24999999999,
      "d": 1739.1299999999974,
      "v": 100
    },
    {
      "midi": 52,
      "hit": false,
      "t": 43478.24999999999,
      "d": 1739.1299999999974,
      "v": 100
    },
    {
      "midi": 64,
      "hit": false,
      "t": 43913.03250000002,
      "d": 434.78250000000116,
      "v": 100
    },
    {
      "midi": 62,
      "hit": false,
      "t": 44347.815000000024,
      "d": 434.78250000000116,
      "v": 100
    },
    {
      "midi": 60,
      "hit": false,
      "t": 44782.597500000025,
      "d": 434.78250000000116,
      "v": 100
    },
    {
      "midi": 48,
      "hit": false,
      "t": 45217.37999999999,
      "d": 434.78250000000116,
      "v": 100
    },
    {
      "midi": 52,
      "hit": false,
      "t": 45217.37999999999,
      "d": 434.78250000000116,
      "v": 100
    },
    {
      "midi": 55,
      "hit": false,
      "t": 45217.38000000003,
      "d": 1739.1299999999974,
      "v": 100
    },
    {
      "midi": 48,
      "hit": false,
      "t": 45652.16249999999,
      "d": 869.5650000000023,
      "v": 100
    },
    {
      "midi": 52,
      "hit": false,
      "t": 45652.16249999999,
      "d": 869.5650000000023,
      "v": 100
    },
    {
      "midi": 48,
      "hit": false,
      "t": 46521.72749999999,
      "d": 434.78250000000116,
      "v": 100
    },
    {
      "midi": 52,
      "hit": false,
      "t": 46521.72749999999,
      "d": 434.78250000000116,
      "v": 100
    },
    {
      "midi": 48,
      "hit": false,
      "t": 46956.509999999995,
      "d": 1739.1299999999974,
      "v": 100
    },
    {
      "midi": 52,
      "hit": false,
      "t": 46956.509999999995,
      "d": 1739.1299999999974,
      "v": 100
    },
    {
      "midi": 64,
      "hit": false,
      "t": 47391.292500000025,
      "d": 434.78250000000116,
      "v": 100
    },
    {
      "midi": 62,
      "hit": false,
      "t": 47826.075000000026,
      "d": 434.78250000000116,
      "v": 100
    },
    {
      "midi": 60,
      "hit": false,
      "t": 48260.85750000003,
      "d": 434.78250000000116,
      "v": 100
    },
    {
      "midi": 48,
      "hit": false,
      "t": 48695.63999999999,
      "d": 434.78250000000116,
      "v": 100
    },
    {
      "midi": 52,
      "hit": false,
      "t": 48695.63999999999,
      "d": 434.78250000000116,
      "v": 100
    },
    {
      "midi": 55,
      "hit": false,
      "t": 48695.64000000003,
      "d": 1739.1299999999974,
      "v": 100
    },
    {
      "midi": 48,
      "hit": false,
      "t": 49130.42249999999,
      "d": 869.5650000000023,
      "v": 100
    },
    {
      "midi": 52,
      "hit": false,
      "t": 49130.42249999999,
      "d": 869.5650000000023,
      "v": 100
    },
    {
      "midi": 48,
      "hit": false,
      "t": 49999.987499999996,
      "d": 434.78250000000116,
      "v": 100
    },
    {
      "midi": 52,
      "hit": false,
      "t": 49999.987499999996,
      "d": 434.78250000000116,
      "v": 100
    },
    {
      "midi": 48,
      "hit": false,
      "t": 50434.77,
      "d": 1739.1299999999974,
      "v": 100
    },
    {
      "midi": 52,
      "hit": false,
      "t": 50434.77,
      "d": 1739.1299999999974,
      "v": 100
    },
    {
      "midi": 64,
      "hit": false,
      "t": 50869.55250000003,
      "d": 434.78250000000116,
      "v": 100
    },
    {
      "midi": 62,
      "hit": false,
      "t": 51304.33500000003,
      "d": 434.78250000000116,
      "v": 100
    },
    {
      "midi": 60,
      "hit": false,
      "t": 51739.11750000003,
      "d": 434.78250000000116,
      "v": 100
    },
    {
      "midi": 48,
      "hit": false,
      "t": 52173.899999999994,
      "d": 3478.260000000002,
      "v": 100
    },
    {
      "midi": 55,
      "hit": false,
      "t": 52173.899999999994,
      "d": 3478.260000000002,
      "v": 100
    },
    {
      "midi": 64,
      "hit": false,
      "t": 52173.90000000003,
      "d": 3478.260000000002,
      "v": 100
    },
    {
      "midi": 72,
      "hit": false,
      "t": 52173.90000000003,
      "d": 3478.260000000002,
      "v": 100
    }
  ]
}