{
  "jsonPath": "Classical/Classical/Khachaturian/the-onedin-line.json",
  "path": "Classical\\Classical\\Khachaturian\\The Onedin Line.mid",
  "name": "The Onedin Line",
  "difficulty": "Advanced",
  "bpm": 100,
  "notes": [
    {
      "midi": 55,
      "hit": false,
      "t": 0,
      "d": 2400,
      "v": 68
    },
    {
      "midi": 67,
      "hit": false,
      "t": 300,
      "d": 300,
      "v": 67
    },
    {
      "midi": 71,
      "hit": false,
      "t": 600,
      "d": 300,
      "v": 88
    },
    {
      "midi": 74,
      "hit": false,
      "t": 600,
      "d": 300,
      "v": 88
    },
    {
      "midi": 67,
      "hit": false,
      "t": 900,
      "d": 600,
      "v": 63
    },
    {
      "midi": 67,
      "hit": false,
      "t": 1500,
      "d": 300,
      "v": 70
    },
    {
      "midi": 71,
      "hit": false,
      "t": 1800,
      "d": 300,
      "v": 86
    },
    {
      "midi": 74,
      "hit": false,
      "t": 1800,
      "d": 300,
      "v": 86
    },
    {
      "midi": 67,
      "hit": false,
      "t": 2100,
      "d": 300,
      "v": 65
    },
    {
      "midi": 54,
      "hit": false,
      "t": 2400,
      "d": 2400,
      "v": 100
    },
    {
      "midi": 67,
      "hit": false,
      "t": 2700,
      "d": 300,
      "v": 69
    },
    {
      "midi": 71,
      "hit": false,
      "t": 3000,
      "d": 300,
      "v": 92
    },
    {
      "midi": 74,
      "hit": false,
      "t": 3000,
      "d": 300,
      "v": 92
    },
    {
      "midi": 67,
      "hit": false,
      "t": 3300,
      "d": 600,
      "v": 66
    },
    {
      "midi": 67,
      "hit": false,
      "t": 3900,
      "d": 300,
      "v": 69
    },
    {
      "midi": 71,
      "hit": false,
      "t": 4200,
      "d": 300,
      "v": 88
    },
    {
      "midi": 74,
      "hit": false,
      "t": 4200,
      "d": 300,
      "v": 88
    },
    {
      "midi": 67,
      "hit": false,
      "t": 4500,
      "d": 300,
      "v": 67
    },
    {
      "midi": 60,
      "hit": false,
      "t": 4800,
      "d": 2400,
      "v": 78
    },
    {
      "midi": 63,
      "hit": false,
      "t": 4800,
      "d": 2400,
      "v": 78
    },
    {
      "midi": 68,
      "hit": false,
      "t": 4800,
      "d": 2400,
      "v": 78
    },
    {
      "midi": 43,
      "hit": false,
      "t": 5100,
      "d": 300,
      "v": 71
    },
    {
      "midi": 44,
      "hit": false,
      "t": 5400,
      "d": 300,
      "v": 74
    },
    {
      "midi": 47,
      "hit": false,
      "t": 5700,
      "d": 300,
      "v": 81
    },
    {
      "midi": 48,
      "hit": false,
      "t": 6000,
      "d": 300,
      "v": 74
    },
    {
      "midi": 51,
      "hit": false,
      "t": 6300,
      "d": 300,
      "v": 80
    },
    {
      "midi": 54,
      "hit": false,
      "t": 6600,
      "d": 300,
      "v": 86
    },
    {
      "midi": 55,
      "hit": false,
      "t": 6900,
      "d": 300,
      "v": 79
    },
    {
      "midi": 56,
      "hit": false,
      "t": 7200,
      "d": 300,
      "v": 64
    },
    {
      "midi": 59,
      "hit": false,
      "t": 7500,
      "d": 300,
      "v": 77
    },
    {
      "midi": 60,
      "hit": false,
      "t": 7800,
      "d": 300,
      "v": 76
    },
    {
      "midi": 63,
      "hit": false,
      "t": 8100,
      "d": 1500,
      "v": 82
    },
    {
      "midi": 66,
      "hit": false,
      "t": 8400,
      "d": 300,
      "v": 65
    },
    {
      "midi": 67,
      "hit": false,
      "t": 8700,
      "d": 300,
      "v": 81
    },
    {
      "midi": 70,
      "hit": false,
      "t": 9000,
      "d": 300,
      "v": 86
    },
    {
      "midi": 71,
      "hit": false,
      "t": 9300,
      "d": 300,
      "v": 79
    },
    {
      "midi": 74,
      "hit": false,
      "t": 9600,
      "d": 300,
      "v": 82
    },
    {
      "midi": 55,
      "hit": false,
      "t": 9600,
      "d": 2400,
      "v": 68
    },
    {
      "midi": 59,
      "hit": false,
      "t": 9600,
      "d": 2400,
      "v": 68
    },
    {
      "midi": 67,
      "hit": false,
      "t": 9900,
      "d": 300,
      "v": 70
    },
    {
      "midi": 71,
      "hit": false,
      "t": 10200,
      "d": 300,
      "v": 83
    },
    {
      "midi": 67,
      "hit": false,
      "t": 10500,
      "d": 600,
      "v": 70
    },
    {
      "midi": 67,
      "hit": false,
      "t": 11100,
      "d": 300,
      "v": 63
    },
    {
      "midi": 70,
      "hit": false,
      "t": 11400,
      "d": 300,
      "v": 81
    },
    {
      "midi": 71,
      "hit": false,
      "t": 11700,
      "d": 300,
      "v": 76
    },
    {
      "midi": 74,
      "hit": false,
      "t": 12000,
      "d": 300,
      "v": 81
    },
    {
      "midi": 55,
      "hit": false,
      "t": 12000,
      "d": 2400,
      "v": 100
    },
    {
      "midi": 58,
      "hit": false,
      "t": 12000,
      "d": 2400,
      "v": 100
    },
    {
      "midi": 66,
      "hit": false,
      "t": 12300,
      "d": 300,
      "v": 68
    },
    {
      "midi": 71,
      "hit": false,
      "t": 12600,
      "d": 300,
      "v": 83
    },
    {
      "midi": 66,
      "hit": false,
      "t": 12900,
      "d": 600,
      "v": 60
    },
    {
      "midi": 66,
      "hit": false,
      "t": 13500,
      "d": 300,
      "v": 73
    },
    {
      "midi": 70,
      "hit": false,
      "t": 13800,
      "d": 300,
      "v": 83
    },
    {
      "midi": 71,
      "hit": false,
      "t": 14100,
      "d": 300,
      "v": 76
    },
    {
      "midi": 74,
      "hit": false,
      "t": 14400,
      "d": 300,
      "v": 80
    },
    {
      "midi": 57,
      "hit": false,
      "t": 14400,
      "d": 2400,
      "v": 100
    },
    {
      "midi": 65,
      "hit": false,
      "t": 14700,
      "d": 300,
      "v": 66
    },
    {
      "midi": 71,
      "hit": false,
      "t": 15000,
      "d": 300,
      "v": 88
    },
    {
      "midi": 65,
      "hit": false,
      "t": 15300,
      "d": 600,
      "v": 64
    },
    {
      "midi": 65,
      "hit": false,
      "t": 15900,
      "d": 300,
      "v": 67
    },
    {
      "midi": 76,
      "hit": false,
      "t": 16200,
      "d": 300,
      "v": 84
    },
    {
      "midi": 74,
      "hit": false,
      "t": 16500,
      "d": 150,
      "v": 69
    },
    {
      "midi": 76,
      "hit": false,
      "t": 16650,
      "d": 150,
      "v": 73
    },
    {
      "midi": 74,
      "hit": false,
      "t": 16800,
      "d": 300,
      "v": 73
    },
    {
      "midi": 60,
      "hit": false,
      "t": 16800,
      "d": 2400,
      "v": 68
    },
    {
      "midi": 67,
      "hit": false,
      "t": 17100,
      "d": 300,
      "v": 72
    },
    {
      "midi": 72,
      "hit": false,
      "t": 17400,
      "d": 300,
      "v": 68
    },
    {
      "midi": 67,
      "hit": false,
      "t": 17700,
      "d": 600,
      "v": 69
    },
    {
      "midi": 67,
      "hit": false,
      "t": 18300,
      "d": 300,
      "v": 72
    },
    {
      "midi": 72,
      "hit": false,
      "t": 18600,
      "d": 300,
      "v": 76
    },
    {
      "midi": 67,
      "hit": false,
      "t": 18900,
      "d": 300,
      "v": 73
    },
    {
      "midi": 74,
      "hit": false,
      "t": 19200,
      "d": 300,
      "v": 83
    },
    {
      "midi": 55,
      "hit": false,
      "t": 19200,
      "d": 2400,
      "v": 76
    },
    {
      "midi": 60,
      "hit": false,
      "t": 19200,
      "d": 2400,
      "v": 76
    },
    {
      "midi": 63,
      "hit": false,
      "t": 19500,
      "d": 300,
      "v": 65
    },
    {
      "midi": 72,
      "hit": false,
      "t": 19800,
      "d": 300,
      "v": 75
    },
    {
      "midi": 63,
      "hit": false,
      "t": 20100,
      "d": 600,
      "v": 66
    },
    {
      "midi": 63,
      "hit": false,
      "t": 20700,
      "d": 300,
      "v": 67
    },
    {
      "midi": 74,
      "hit": false,
      "t": 20700,
      "d": 300,
      "v": 81
    },
    {
      "midi": 68,
      "hit": false,
      "t": 21000,
      "d": 300,
      "v": 83
    },
    {
      "midi": 72,
      "hit": false,
      "t": 21300,
      "d": 300,
      "v": 74
    },
    {
      "midi": 71,
      "hit": false,
      "t": 21600,
      "d": 300,
      "v": 75
    },
    {
      "midi": 55,
      "hit": false,
      "t": 21600,
      "d": 2400,
      "v": 78
    },
    {
      "midi": 59,
      "hit": false,
      "t": 21600,
      "d": 2400,
      "v": 78
    },
    {
      "midi": 62,
      "hit": false,
      "t": 21900,
      "d": 300,
      "v": 70
    },
    {
      "midi": 66,
      "hit": false,
      "t": 22200,
      "d": 300,
      "v": 84
    },
    {
      "midi": 62,
      "hit": false,
      "t": 22500,
      "d": 300,
      "v": 72
    },
    {
      "midi": 66,
      "hit": false,
      "t": 22800,
      "d": 300,
      "v": 84
    },
    {
      "midi": 71,
      "hit": false,
      "t": 23100,
      "d": 300,
      "v": 68
    },
    {
      "midi": 72,
      "hit": false,
      "t": 23400,
      "d": 150,
      "v": 78
    },
    {
      "midi": 71,
      "hit": false,
      "t": 23550,
      "d": 150,
      "v": 73
    },
    {
      "midi": 70,
      "hit": false,
      "t": 23700,
      "d": 150,
      "v": 68
    },
    {
      "midi": 71,
      "hit": false,
      "t": 23850,
      "d": 150,
      "v": 81
    },
    {
      "midi": 70,
      "hit": false,
      "t": 24000,
      "d": 300,
      "v": 72
    },
    {
      "midi": 55,
      "hit": false,
      "t": 24000,
      "d": 2400,
      "v": 72
    },
    {
      "midi": 58,
      "hit": false,
      "t": 24000,
      "d": 2400,
      "v": 72
    },
    {
      "midi": 61,
      "hit": false,
      "t": 24300,
      "d": 300,
      "v": 66
    },
    {
      "midi": 77,
      "hit": false,
      "t": 24600,
      "d": 300,
      "v": 92
    },
    {
      "midi": 65,
      "hit": false,
      "t": 24900,
      "d": 600,
      "v": 67
    },
    {
      "midi": 70,
      "hit": false,
      "t": 25500,
      "d": 300,
      "v": 67
    },
    {
      "midi": 79,
      "hit": false,
      "t": 25800,
      "d": 300,
      "v": 82
    },
    {
      "midi": 77,
      "hit": false,
      "t": 26100,
      "d": 300,
      "v": 72
    },
    {
      "midi": 76,
      "hit": false,
      "t": 26400,
      "d": 300,
      "v": 75
    },
    {
      "midi": 57,
      "hit": false,
      "t": 26400,
      "d": 1200,
      "v": 78
    },
    {
      "midi": 73,
      "hit": false,
      "t": 26700,
      "d": 600,
      "v": 66
    },
    {
      "midi": 73,
      "hit": false,
      "t": 27300,
      "d": 600,
      "v": 77
    },
    {
      "midi": 49,
      "hit": false,
      "t": 27600,
      "d": 600,
      "v": 69
    },
    {
      "midi": 67,
      "hit": false,
      "t": 27900,
      "d": 300,
      "v": 70
    },
    {
      "midi": 73,
      "hit": false,
      "t": 27900,
      "d": 300,
      "v": 70
    },
    {
      "midi": 76,
      "hit": false,
      "t": 27900,
      "d": 300,
      "v": 69
    },
    {
      "midi": 77,
      "hit": false,
      "t": 28200,
      "d": 150,
      "v": 77
    },
    {
      "midi": 46,
      "hit": false,
      "t": 28200,
      "d": 300,
      "v": 75
    },
    {
      "midi": 76,
      "hit": false,
      "t": 28350,
      "d": 150,
      "v": 72
    },
    {
      "midi": 73,
      "hit": false,
      "t": 28500,
      "d": 150,
      "v": 80
    },
    {
      "midi": 75,
      "hit": false,
      "t": 28500,
      "d": 150,
      "v": 72
    },
    {
      "midi": 45,
      "hit": false,
      "t": 28500,
      "d": 300,
      "v": 74
    },
    {
      "midi": 76,
      "hit": false,
      "t": 28650,
      "d": 150,
      "v": 81
    },
    {
      "midi": 75,
      "hit": false,
      "t": 28800,
      "d": 600,
      "v": 75
    },
    {
      "midi": 44,
      "hit": false,
      "t": 28800,
      "d": 2400,
      "v": 84
    },
    {
      "midi": 51,
      "hit": false,
      "t": 28800,
      "d": 2400,
      "v": 84
    },
    {
      "midi": 55,
      "hit": false,
      "t": 28800,
      "d": 2400,
      "v": 84
    },
    {
      "midi": 72,
      "hit": false,
      "t": 29400,
      "d": 300,
      "v": 66
    },
    {
      "midi": 75,
      "hit": false,
      "t": 29700,
      "d": 300,
      "v": 79
    },
    {
      "midi": 79,
      "hit": false,
      "t": 30000,
      "d": 600,
      "v": 87
    },
    {
      "midi": 77,
      "hit": false,
      "t": 30600,
      "d": 300,
      "v": 73
    },
    {
      "midi": 75,
      "hit": false,
      "t": 30900,
      "d": 300,
      "v": 69
    },
    {
      "midi": 74,
      "hit": false,
      "t": 31200,
      "d": 300,
      "v": 74
    },
    {
      "midi": 59,
      "hit": false,
      "t": 31200,
      "d": 2400,
      "v": 87
    },
    {
      "midi": 62,
      "hit": false,
      "t": 31200,
      "d": 2400,
      "v": 87
    },
    {
      "midi": 71,
      "hit": false,
      "t": 31500,
      "d": 300,
      "v": 67
    },
    {
      "midi": 66,
      "hit": false,
      "t": 31800,
      "d": 300,
      "v": 63
    },
    {
      "midi": 71,
      "hit": false,
      "t": 32100,
      "d": 600,
      "v": 81
    },
    {
      "midi": 74,
      "hit": false,
      "t": 32700,
      "d": 300,
      "v": 66
    },
    {
      "midi": 74,
      "hit": false,
      "t": 33000,
      "d": 98.4375,
      "v": 100
    },
    {
      "midi": 75,
      "hit": false,
      "t": 33098.4375,
      "d": 100.78125,
      "v": 100
    },
    {
      "midi": 74,
      "hit": false,
      "t": 33199.21875,
      "d": 100.78125,
      "v": 100
    },
    {
      "midi": 73,
      "hit": false,
      "t": 33300,
      "d": 150,
      "v": 79
    },
    {
      "midi": 74,
      "hit": false,
      "t": 33450,
      "d": 150,
      "v": 73
    },
    {
      "midi": 75,
      "hit": false,
      "t": 33600,
      "d": 300,
      "v": 79
    },
    {
      "midi": 55,
      "hit": false,
      "t": 33600,
      "d": 300,
      "v": 69
    },
    {
      "midi": 67,
      "hit": false,
      "t": 33900,
      "d": 150,
      "v": 58
    },
    {
      "midi": 60,
      "hit": false,
      "t": 33900,
      "d": 600,
      "v": 90
    },
    {
      "midi": 63,
      "hit": false,
      "t": 33900,
      "d": 600,
      "v": 90
    },
    {
      "midi": 68,
      "hit": false,
      "t": 34050,
      "d": 150,
      "v": 78
    },
    {
      "midi": 71,
      "hit": false,
      "t": 34200,
      "d": 150,
      "v": 85
    },
    {
      "midi": 72,
      "hit": false,
      "t": 34350,
      "d": 150,
      "v": 76
    },
    {
      "midi": 75,
      "hit": false,
      "t": 34500,
      "d": 150,
      "v": 82
    },
    {
      "midi": 60,
      "hit": false,
      "t": 34500,
      "d": 300,
      "v": 79
    },
    {
      "midi": 63,
      "hit": false,
      "t": 34500,
      "d": 300,
      "v": 79
    },
    {
      "midi": 79,
      "hit": false,
      "t": 34650,
      "d": 750,
      "v": 86
    },
    {
      "midi": 55,
      "hit": false,
      "t": 34800,
      "d": 300,
      "v": 74
    },
    {
      "midi": 60,
      "hit": false,
      "t": 35100,
      "d": 600,
      "v": 89
    },
    {
      "midi": 63,
      "hit": false,
      "t": 35100,
      "d": 600,
      "v": 89
    },
    {
      "midi": 78,
      "hit": false,
      "t": 35400,
      "d": 300,
      "v": 79
    },
    {
      "midi": 75,
      "hit": false,
      "t": 35700,
      "d": 300,
      "v": 67
    },
    {
      "midi": 60,
      "hit": false,
      "t": 35700,
      "d": 300,
      "v": 73
    },
    {
      "midi": 63,
      "hit": false,
      "t": 35700,
      "d": 300,
      "v": 73
    },
    {
      "midi": 74,
      "hit": false,
      "t": 36000,
      "d": 600,
      "v": 74
    },
    {
      "midi": 55,
      "hit": false,
      "t": 36000,
      "d": 2400,
      "v": 74
    },
    {
      "midi": 59,
      "hit": false,
      "t": 36000,
      "d": 2400,
      "v": 74
    },
    {
      "midi": 71,
      "hit": false,
      "t": 36600,
      "d": 300,
      "v": 68
    },
    {
      "midi": 67,
      "hit": false,
      "t": 36900,
      "d": 300,
      "v": 68
    },
    {
      "midi": 66,
      "hit": false,
      "t": 37200,
      "d": 300,
      "v": 70
    },
    {
      "midi": 71,
      "hit": false,
      "t": 37500,
      "d": 300,
      "v": 86
    },
    {
      "midi": 74,
      "hit": false,
      "t": 37800,
      "d": 600,
      "v": 79
    },
    {
      "midi": 74,
      "hit": false,
      "t": 38400,
      "d": 300,
      "v": 76
    },
    {
      "midi": 43,
      "hit": false,
      "t": 38400,
      "d": 2400,
      "v": 69
    },
    {
      "midi": 53,
      "hit": false,
      "t": 38400,
      "d": 2400,
      "v": 69
    },
    {
      "midi": 65,
      "hit": false,
      "t": 38700,
      "d": 300,
      "v": 68
    },
    {
      "midi": 67,
      "hit": false,
      "t": 39000,
      "d": 300,
      "v": 80
    },
    {
      "midi": 71,
      "hit": false,
      "t": 39300,
      "d": 300,
      "v": 87
    },
    {
      "midi": 67,
      "hit": false,
      "t": 39600,
      "d": 300,
      "v": 67
    },
    {
      "midi": 62,
      "hit": false,
      "t": 39900,
      "d": 300,
      "v": 71
    },
    {
      "midi": 64,
      "hit": false,
      "t": 40200,
      "d": 300,
      "v": 80
    },
    {
      "midi": 65,
      "hit": false,
      "t": 40500,
      "d": 300,
      "v": 82
    },
    {
      "midi": 67,
      "hit": false,
      "t": 40800,
      "d": 199.21875,
      "v": 100
    },
    {
      "midi": 68,
      "hit": false,
      "t": 40999.21875,
      "d": 199.21875,
      "v": 100
    },
    {
      "midi": 71,
      "hit": false,
      "t": 41198.4375,
      "d": 201.5625,
      "v": 100
    },
    {
      "midi": 71,
      "hit": false,
      "t": 41400,
      "d": 300,
      "v": 81
    },
    {
      "midi": 43,
      "hit": false,
      "t": 41400,
      "d": 1200,
      "v": 78
    },
    {
      "midi": 54,
      "hit": false,
      "t": 41400,
      "d": 1200,
      "v": 78
    },
    {
      "midi": 72,
      "hit": false,
      "t": 41700,
      "d": 300,
      "v": 77
    },
    {
      "midi": 74,
      "hit": false,
      "t": 42000,
      "d": 300,
      "v": 77
    },
    {
      "midi": 75,
      "hit": false,
      "t": 42300,
      "d": 300,
      "v": 85
    },
    {
      "midi": 72,
      "hit": false,
      "t": 42600,
      "d": 1800,
      "v": 85
    },
    {
      "midi": 76,
      "hit": false,
      "t": 42600,
      "d": 1800,
      "v": 85
    },
    {
      "midi": 79,
      "hit": false,
      "t": 42600,
      "d": 1800,
      "v": 85
    },
    {
      "midi": 48,
      "hit": false,
      "t": 42600,
      "d": 300,
      "v": 66
    },
    {
      "midi": 55,
      "hit": false,
      "t": 42900,
      "d": 300,
      "v": 81
    },
    {
      "midi": 64,
      "hit": false,
      "t": 43200,
      "d": 300,
      "v": 87
    },
    {
      "midi": 55,
      "hit": false,
      "t": 43500,
      "d": 300,
      "v": 74
    },
    {
      "midi": 60,
      "hit": false,
      "t": 43800,
      "d": 1200,
      "v": 70
    },
    {
      "midi": 75,
      "hit": false,
      "t": 44400,
      "d": 300,
      "v": 70
    },
    {
      "midi": 76,
      "hit": false,
      "t": 44700,
      "d": 300,
      "v": 77
    },
    {
      "midi": 71,
      "hit": false,
      "t": 45000,
      "d": 1800,
      "v": 86
    },
    {
      "midi": 76,
      "hit": false,
      "t": 45000,
      "d": 1800,
      "v": 86
    },
    {
      "midi": 79,
      "hit": false,
      "t": 45000,
      "d": 1800,
      "v": 86
    },
    {
      "midi": 48,
      "hit": false,
      "t": 45000,
      "d": 300,
      "v": 72
    },
    {
      "midi": 55,
      "hit": false,
      "t": 45300,
      "d": 300,
      "v": 86
    },
    {
      "midi": 64,
      "hit": false,
      "t": 45600,
      "d": 300,
      "v": 85
    },
    {
      "midi": 55,
      "hit": false,
      "t": 45900,
      "d": 300,
      "v": 74
    },
    {
      "midi": 60,
      "hit": false,
      "t": 46200,
      "d": 1200,
      "v": 69
    },
    {
      "midi": 75,
      "hit": false,
      "t": 46800,
      "d": 300,
      "v": 70
    },
    {
      "midi": 76,
      "hit": false,
      "t": 47100,
      "d": 300,
      "v": 75
    },
    {
      "midi": 70,
      "hit": false,
      "t": 47400,
      "d": 1800,
      "v": 80
    },
    {
      "midi": 76,
      "hit": false,
      "t": 47400,
      "d": 1800,
      "v": 80
    },
    {
      "midi": 79,
      "hit": false,
      "t": 47400,
      "d": 1800,
      "v": 80
    },
    {
      "midi": 48,
      "hit": false,
      "t": 47400,
      "d": 300,
      "v": 76
    },
    {
      "midi": 55,
      "hit": false,
      "t": 47700,
      "d": 300,
      "v": 83
    },
    {
      "midi": 64,
      "hit": false,
      "t": 48000,
      "d": 300,
      "v": 84
    },
    {
      "midi": 55,
      "hit": false,
      "t": 48300,
      "d": 300,
      "v": 74
    },
    {
      "midi": 60,
      "hit": false,
      "t": 48600,
      "d": 1200,
      "v": 65
    },
    {
      "midi": 81,
      "hit": false,
      "t": 49200,
      "d": 300,
      "v": 82
    },
    {
      "midi": 79,
      "hit": false,
      "t": 49500,
      "d": 150,
      "v": 70
    },
    {
      "midi": 81,
      "hit": false,
      "t": 49650,
      "d": 150,
      "v": 80
    },
    {
      "midi": 79,
      "hit": false,
      "t": 49800,
      "d": 600,
      "v": 70
    },
    {
      "midi": 41,
      "hit": false,
      "t": 49800,
      "d": 300,
      "v": 66
    },
    {
      "midi": 48,
      "hit": false,
      "t": 50100,
      "d": 300,
      "v": 79
    },
    {
      "midi": 69,
      "hit": false,
      "t": 50400,
      "d": 1200,
      "v": 74
    },
    {
      "midi": 74,
      "hit": false,
      "t": 50400,
      "d": 1200,
      "v": 74
    },
    {
      "midi": 77,
      "hit": false,
      "t": 50400,
      "d": 1200,
      "v": 74
    },
    {
      "midi": 53,
      "hit": false,
      "t": 50400,
      "d": 300,
      "v": 82
    },
    {
      "midi": 48,
      "hit": false,
      "t": 50700,
      "d": 300,
      "v": 79
    },
    {
      "midi": 57,
      "hit": false,
      "t": 51000,
      "d": 1200,
      "v": 76
    },
    {
      "midi": 77,
      "hit": false,
      "t": 51600,
      "d": 600,
      "v": 79
    },
    {
      "midi": 79,
      "hit": false,
      "t": 52200,
      "d": 600,
      "v": 79
    },
    {
      "midi": 48,
      "hit": false,
      "t": 52200,
      "d": 300,
      "v": 69
    },
    {
      "midi": 56,
      "hit": false,
      "t": 52500,
      "d": 300,
      "v": 77
    },
    {
      "midi": 67,
      "hit": false,
      "t": 52800,
      "d": 600,
      "v": 72
    },
    {
      "midi": 73,
      "hit": false,
      "t": 52800,
      "d": 600,
      "v": 72
    },
    {
      "midi": 77,
      "hit": false,
      "t": 52800,
      "d": 600,
      "v": 72
    },
    {
      "midi": 61,
      "hit": false,
      "t": 52800,
      "d": 300,
      "v": 88
    },
    {
      "midi": 56,
      "hit": false,
      "t": 53100,
      "d": 300,
      "v": 75
    },
    {
      "midi": 67,
      "hit": false,
      "t": 53400,
      "d": 300,
      "v": 77
    },
    {
      "midi": 73,
      "hit": false,
      "t": 53400,
      "d": 300,
      "v": 77
    },
    {
      "midi": 77,
      "hit": false,
      "t": 53400,
      "d": 300,
      "v": 77
    },
    {
      "midi": 56,
      "hit": false,
      "t": 53400,
      "d": 1200,
      "v": 74
    },
    {
      "midi": 70,
      "hit": false,
      "t": 53700,
      "d": 600,
      "v": 78
    },
    {
      "midi": 73,
      "hit": false,
      "t": 53700,
      "d": 600,
      "v": 78
    },
    {
      "midi": 79,
      "hit": false,
      "t": 53700,
      "d": 600,
      "v": 78
    },
    {
      "midi": 77,
      "hit": false,
      "t": 54300,
      "d": 300,
      "v": 70
    },
    {
      "midi": 67,
      "hit": false,
      "t": 54600,
      "d": 1500,
      "v": 74
    },
    {
      "midi": 72,
      "hit": false,
      "t": 54600,
      "d": 1500,
      "v": 74
    },
    {
      "midi": 76,
      "hit": false,
      "t": 54600,
      "d": 1500,
      "v": 74
    },
    {
      "midi": 48,
      "hit": false,
      "t": 54600,
      "d": 300,
      "v": 67
    },
    {
      "midi": 55,
      "hit": false,
      "t": 54900,
      "d": 300,
      "v": 82
    },
    {
      "midi": 60,
      "hit": false,
      "t": 55200,
      "d": 300,
      "v": 88
    },
    {
      "midi": 62,
      "hit": false,
      "t": 55500,
      "d": 300,
      "v": 70
    },
    {
      "midi": 64,
      "hit": false,
      "t": 55800,
      "d": 1200,
      "v": 70
    },
    {
      "midi": 76,
      "hit": false,
      "t": 56100,
      "d": 300,
      "v": 82
    },
    {
      "midi": 77,
      "hit": false,
      "t": 56400,
      "d": 150,
      "v": 80
    },
    {
      "midi": 76,
      "hit": false,
      "t": 56550,
      "d": 150,
      "v": 72
    },
    {
      "midi": 75,
      "hit": false,
      "t": 56700,
      "d": 150,
      "v": 72
    },
    {
      "midi": 76,
      "hit": false,
      "t": 56850,
      "d": 150,
      "v": 80
    },
    {
      "midi": 75,
      "hit": false,
      "t": 57000,
      "d": 600,
      "v": 68
    },
    {
      "midi": 36,
      "hit": false,
      "t": 57000,
      "d": 300,
      "v": 63
    },
    {
      "midi": 46,
      "hit": false,
      "t": 57300,
      "d": 300,
      "v": 86
    },
    {
      "midi": 82,
      "hit": false,
      "t": 57600,
      "d": 1200,
      "v": 90
    },
    {
      "midi": 51,
      "hit": false,
      "t": 57600,
      "d": 300,
      "v": 85
    },
    {
      "midi": 54,
      "hit": false,
      "t": 57900,
      "d": 300,
      "v": 79
    },
    {
      "midi": 58,
      "hit": false,
      "t": 58200,
      "d": 1200,
      "v": 81
    },
    {
      "midi": 84,
      "hit": false,
      "t": 58800,
      "d": 300,
      "v": 84
    },
    {
      "midi": 82,
      "hit": false,
      "t": 59100,
      "d": 300,
      "v": 71
    },
    {
      "midi": 74,
      "hit": false,
      "t": 59400,
      "d": 1200,
      "v": 68
    },
    {
      "midi": 78,
      "hit": false,
      "t": 59400,
      "d": 1200,
      "v": 68
    },
    {
      "midi": 81,
      "hit": false,
      "t": 59400,
      "d": 1200,
      "v": 68
    },
    {
      "midi": 48,
      "hit": false,
      "t": 59400,
      "d": 300,
      "v": 66
    },
    {
      "midi": 57,
      "hit": false,
      "t": 59700,
      "d": 300,
      "v": 82
    },
    {
      "midi": 62,
      "hit": false,
      "t": 60000,
      "d": 300,
      "v": 82
    },
    {
      "midi": 57,
      "hit": false,
      "t": 60300,
      "d": 300,
      "v": 72
    },
    {
      "midi": 81,
      "hit": false,
      "t": 60600,
      "d": 300,
      "v": 76
    },
    {
      "midi": 64,
      "hit": false,
      "t": 60600,
      "d": 1200,
      "v": 70
    },
    {
      "midi": 81,
      "hit": false,
      "t": 60900,
      "d": 300,
      "v": 71
    },
    {
      "midi": 82,
      "hit": false,
      "t": 61200,
      "d": 150,
      "v": 80
    },
    {
      "midi": 81,
      "hit": false,
      "t": 61350,
      "d": 150,
      "v": 76
    },
    {
      "midi": 80,
      "hit": false,
      "t": 61500,
      "d": 150,
      "v": 71
    },
    {
      "midi": 81,
      "hit": false,
      "t": 61650,
      "d": 150,
      "v": 81
    },
    {
      "midi": 73,
      "hit": false,
      "t": 61800,
      "d": 600,
      "v": 70
    },
    {
      "midi": 77,
      "hit": false,
      "t": 61800,
      "d": 600,
      "v": 70
    },
    {
      "midi": 80,
      "hit": false,
      "t": 61800,
      "d": 600,
      "v": 70
    },
    {
      "midi": 48,
      "hit": false,
      "t": 61800,
      "d": 300,
      "v": 68
    },
    {
      "midi": 56,
      "hit": false,
      "t": 62100,
      "d": 300,
      "v": 80
    },
    {
      "midi": 77,
      "hit": false,
      "t": 62400,
      "d": 300,
      "v": 70
    },
    {
      "midi": 61,
      "hit": false,
      "t": 62400,
      "d": 300,
      "v": 89
    },
    {
      "midi": 80,
      "hit": false,
      "t": 62700,
      "d": 300,
      "v": 87
    },
    {
      "midi": 56,
      "hit": false,
      "t": 62700,
      "d": 300,
      "v": 76
    },
    {
      "midi": 84,
      "hit": false,
      "t": 63000,
      "d": 600,
      "v": 88
    },
    {
      "midi": 64,
      "hit": false,
      "t": 63000,
      "d": 1200,
      "v": 70
    },
    {
      "midi": 82,
      "hit": false,
      "t": 63600,
      "d": 300,
      "v": 78
    },
    {
      "midi": 80,
      "hit": false,
      "t": 63900,
      "d": 300,
      "v": 69
    },
    {
      "midi": 72,
      "hit": false,
      "t": 64200,
      "d": 1500,
      "v": 75
    },
    {
      "midi": 76,
      "hit": false,
      "t": 64200,
      "d": 1500,
      "v": 75
    },
    {
      "midi": 79,
      "hit": false,
      "t": 64200,
      "d": 1500,
      "v": 75
    },
    {
      "midi": 48,
      "hit": false,
      "t": 64200,
      "d": 300,
      "v": 77
    },
    {
      "midi": 52,
      "hit": false,
      "t": 64500,
      "d": 300,
      "v": 77
    },
    {
      "midi": 55,
      "hit": false,
      "t": 64800,
      "d": 300,
      "v": 79
    },
    {
      "midi": 52,
      "hit": false,
      "t": 65100,
      "d": 300,
      "v": 73
    },
    {
      "midi": 59,
      "hit": false,
      "t": 65400,
      "d": 300,
      "v": 82
    },
    {
      "midi": 79,
      "hit": false,
      "t": 65700,
      "d": 300,
      "v": 79
    },
    {
      "midi": 55,
      "hit": false,
      "t": 65700,
      "d": 300,
      "v": 71
    },
    {
      "midi": 79,
      "hit": false,
      "t": 66000,
      "d": 199.21875,
      "v": 100
    },
    {
      "midi": 48,
      "hit": false,
      "t": 66000,
      "d": 600,
      "v": 73
    },
    {
      "midi": 78,
      "hit": false,
      "t": 66199.21875,
      "d": 199.21875,
      "v": 100
    },
    {
      "midi": 79,
      "hit": false,
      "t": 66398.4375,
      "d": 201.5625,
      "v": 100
    },
    {
      "midi": 80,
      "hit": false,
      "t": 66600,
      "d": 300,
      "v": 80
    },
    {
      "midi": 48,
      "hit": false,
      "t": 66600,
      "d": 300,
      "v": 72
    },
    {
      "midi": 72,
      "hit": false,
      "t": 66900,
      "d": 150,
      "v": 60
    },
    {
      "midi": 54,
      "hit": false,
      "t": 66900,
      "d": 300,
      "v": 80
    },
    {
      "midi": 73,
      "hit": false,
      "t": 67050,
      "d": 150,
      "v": 74
    },
    {
      "midi": 76,
      "hit": false,
      "t": 67200,
      "d": 199.21875,
      "v": 100
    },
    {
      "midi": 56,
      "hit": false,
      "t": 67200,
      "d": 600,
      "v": 76
    },
    {
      "midi": 77,
      "hit": false,
      "t": 67399.21875,
      "d": 199.21875,
      "v": 100
    },
    {
      "midi": 80,
      "hit": false,
      "t": 67598.4375,
      "d": 201.5625,
      "v": 100
    },
    {
      "midi": 84,
      "hit": false,
      "t": 67800,
      "d": 300,
      "v": 84
    },
    {
      "midi": 49,
      "hit": false,
      "t": 67800,
      "d": 300,
      "v": 75
    },
    {
      "midi": 83,
      "hit": false,
      "t": 68100,
      "d": 300,
      "v": 84
    },
    {
      "midi": 54,
      "hit": false,
      "t": 68100,
      "d": 300,
      "v": 83
    },
    {
      "midi": 82,
      "hit": false,
      "t": 68400,
      "d": 300,
      "v": 74
    },
    {
      "midi": 56,
      "hit": false,
      "t": 68400,
      "d": 300,
      "v": 76
    },
    {
      "midi": 81,
      "hit": false,
      "t": 68700,
      "d": 300,
      "v": 74
    },
    {
      "midi": 54,
      "hit": false,
      "t": 68700,
      "d": 300,
      "v": 77
    },
    {
      "midi": 79,
      "hit": false,
      "t": 69000,
      "d": 1650,
      "v": 67
    },
    {
      "midi": 48,
      "hit": false,
      "t": 69000,
      "d": 300,
      "v": 71
    },
    {
      "midi": 52,
      "hit": false,
      "t": 69300,
      "d": 300,
      "v": 79
    },
    {
      "midi": 55,
      "hit": false,
      "t": 69600,
      "d": 300,
      "v": 83
    },
    {
      "midi": 59,
      "hit": false,
      "t": 69900,
      "d": 300,
      "v": 81
    },
    {
      "midi": 60,
      "hit": false,
      "t": 70200,
      "d": 1200,
      "v": 70
    },
    {
      "midi": 79,
      "hit": false,
      "t": 70650,
      "d": 150,
      "v": 76
    },
    {
      "midi": 79,
      "hit": false,
      "t": 70800,
      "d": 450,
      "v": 72
    },
    {
      "midi": 79,
      "hit": false,
      "t": 71250,
      "d": 150,
      "v": 77
    },
    {
      "midi": 70,
      "hit": false,
      "t": 71400,
      "d": 398.4375,
      "v": 100
    },
    {
      "midi": 74,
      "hit": false,
      "t": 71400,
      "d": 398.4375,
      "v": 100
    },
    {
      "midi": 79,
      "hit": false,
      "t": 71400,
      "d": 398.4375,
      "v": 100
    },
    {
      "midi": 51,
      "hit": false,
      "t": 71400,
      "d": 300,
      "v": 76
    },
    {
      "midi": 55,
      "hit": false,
      "t": 71700,
      "d": 300,
      "v": 78
    },
    {
      "midi": 78,
      "hit": false,
      "t": 71798.4375,
      "d": 201.5625,
      "v": 100
    },
    {
      "midi": 70,
      "hit": false,
      "t": 72000,
      "d": 398.4375,
      "v": 100
    },
    {
      "midi": 74,
      "hit": false,
      "t": 72000,
      "d": 398.4375,
      "v": 100
    },
    {
      "midi": 79,
      "hit": false,
      "t": 72000,
      "d": 398.4375,
      "v": 100
    },
    {
      "midi": 58,
      "hit": false,
      "t": 72000,
      "d": 300,
      "v": 76
    },
    {
      "midi": 55,
      "hit": false,
      "t": 72300,
      "d": 300,
      "v": 71
    },
    {
      "midi": 81,
      "hit": false,
      "t": 72398.4375,
      "d": 201.5625,
      "v": 100
    },
    {
      "midi": 84,
      "hit": false,
      "t": 72600,
      "d": 199.21875,
      "v": 100
    },
    {
      "midi": 51,
      "hit": false,
      "t": 72600,
      "d": 300,
      "v": 77
    },
    {
      "midi": 82,
      "hit": false,
      "t": 72799.21875,
      "d": 199.21875,
      "v": 100
    },
    {
      "midi": 55,
      "hit": false,
      "t": 72900,
      "d": 300,
      "v": 78
    },
    {
      "midi": 81,
      "hit": false,
      "t": 72998.4375,
      "d": 201.5625,
      "v": 100
    },
    {
      "midi": 79,
      "hit": false,
      "t": 73200,
      "d": 199.21875,
      "v": 100
    },
    {
      "midi": 58,
      "hit": false,
      "t": 73200,
      "d": 300,
      "v": 76
    },
    {
      "midi": 78,
      "hit": false,
      "t": 73399.21875,
      "d": 199.21875,
      "v": 100
    },
    {
      "midi": 51,
      "hit": false,
      "t": 73500,
      "d": 300,
      "v": 71
    },
    {
      "midi": 77,
      "hit": false,
      "t": 73598.4375,
      "d": 201.5625,
      "v": 100
    },
    {
      "midi": 67,
      "hit": false,
      "t": 73800,
      "d": 199.21875,
      "v": 100
    },
    {
      "midi": 71,
      "hit": false,
      "t": 73800,
      "d": 199.21875,
      "v": 100
    },
    {
      "midi": 76,
      "hit": false,
      "t": 73800,
      "d": 199.21875,
      "v": 100
    },
    {
      "midi": 50,
      "hit": false,
      "t": 73800,
      "d": 900,
      "v": 70
    },
    {
      "midi": 74,
      "hit": false,
      "t": 73999.21875,
      "d": 199.21875,
      "v": 100
    },
    {
      "midi": 76,
      "hit": false,
      "t": 74198.4375,
      "d": 201.5625,
      "v": 100
    },
    {
      "midi": 71,
      "hit": false,
      "t": 74400,
      "d": 199.21875,
      "v": 100
    },
    {
      "midi": 74,
      "hit": false,
      "t": 74400,
      "d": 199.21875,
      "v": 100
    },
    {
      "midi": 79,
      "hit": false,
      "t": 74400,
      "d": 199.21875,
      "v": 100
    },
    {
      "midi": 79,
      "hit": false,
      "t": 74599.21875,
      "d": 199.21875,
      "v": 100
    },
    {
      "midi": 50,
      "hit": false,
      "t": 74700,
      "d": 300,
      "v": 76
    },
    {
      "midi": 82,
      "hit": false,
      "t": 74798.4375,
      "d": 201.5625,
      "v": 100
    },
    {
      "midi": 74,
      "hit": false,
      "t": 75000,
      "d": 199.21875,
      "v": 100
    },
    {
      "midi": 79,
      "hit": false,
      "t": 75000,
      "d": 199.21875,
      "v": 100
    },
    {
      "midi": 82,
      "hit": false,
      "t": 75000,
      "d": 199.21875,
      "v": 100
    },
    {
      "midi": 50,
      "hit": false,
      "t": 75000,
      "d": 300,
      "v": 78
    },
    {
      "midi": 79,
      "hit": false,
      "t": 75199.21875,
      "d": 199.21875,
      "v": 100
    },
    {
      "midi": 50,
      "hit": false,
      "t": 75300,
      "d": 900,
      "v": 72
    },
    {
      "midi": 82,
      "hit": false,
      "t": 75398.4375,
      "d": 201.5625,
      "v": 100
    },
    {
      "midi": 79,
      "hit": false,
      "t": 75600,
      "d": 199.21875,
      "v": 100
    },
    {
      "midi": 82,
      "hit": false,
      "t": 75600,
      "d": 199.21875,
      "v": 100
    },
    {
      "midi": 86,
      "hit": false,
      "t": 75600,
      "d": 199.21875,
      "v": 100
    },
    {
      "midi": 82,
      "hit": false,
      "t": 75799.21875,
      "d": 199.21875,
      "v": 100
    },
    {
      "midi": 86,
      "hit": false,
      "t": 75998.4375,
      "d": 201.5625,
      "v": 100
    },
    {
      "midi": 79,
      "hit": false,
      "t": 76200,
      "d": 2400,
      "v": 93
    },
    {
      "midi": 82,
      "hit": false,
      "t": 76200,
      "d": 2400,
      "v": 93
    },
    {
      "midi": 88,
      "hit": false,
      "t": 76200,
      "d": 2400,
      "v": 93
    },
    {
      "midi": 50,
      "hit": false,
      "t": 76200,
      "d": 600,
      "v": 76
    },
    {
      "midi": 43,
      "hit": false,
      "t": 76800,
      "d": 600,
      "v": 68
    },
    {
      "midi": 50,
      "hit": false,
      "t": 77400,
      "d": 600,
      "v": 86
    },
    {
      "midi": 43,
      "hit": false,
      "t": 78000,
      "d": 600,
      "v": 71
    },
    {
      "midi": 42,
      "hit": false,
      "t": 78600,
      "d": 2400,
      "v": 75
    },
    {
      "midi": 54,
      "hit": false,
      "t": 79200,
      "d": 600,
      "v": 69
    },
    {
      "midi": 54,
      "hit": false,
      "t": 79800,
      "d": 600,
      "v": 75
    },
    {
      "midi": 54,
      "hit": false,
      "t": 80400,
      "d": 600,
      "v": 77
    },
    {
      "midi": 59,
      "hit": false,
      "t": 81000,
      "d": 900,
      "v": 81
    },
    {
      "midi": 42,
      "hit": false,
      "t": 81000,
      "d": 2400,
      "v": 73
    },
    {
      "midi": 60,
      "hit": false,
      "t": 81900,
      "d": 300,
      "v": 75
    },
    {
      "midi": 62,
      "hit": false,
      "t": 82200,
      "d": 900,
      "v": 82
    },
    {
      "midi": 60,
      "hit": false,
      "t": 83100,
      "d": 300,
      "v": 72
    },
    {
      "midi": 59,
      "hit": false,
      "t": 83400,
      "d": 450,
      "v": 67
    },
    {
      "midi": 42,
      "hit": false,
      "t": 83400,
      "d": 2400,
      "v": 77
    },
    {
      "midi": 66,
      "hit": false,
      "t": 83850,
      "d": 150,
      "v": 66
    },
    {
      "midi": 66,
      "hit": false,
      "t": 84000,
      "d": 300,
      "v": 73
    },
    {
      "midi": 66,
      "hit": false,
      "t": 84300,
      "d": 300,
      "v": 75
    },
    {
      "midi": 66,
      "hit": false,
      "t": 84600,
      "d": 300,
      "v": 75
    },
    {
      "midi": 70,
      "hit": false,
      "t": 84900,
      "d": 300,
      "v": 86
    },
    {
      "midi": 70,
      "hit": false,
      "t": 85200,
      "d": 300,
      "v": 76
    },
    {
      "midi": 66,
      "hit": false,
      "t": 85500,
      "d": 300,
      "v": 66
    },
    {
      "midi": 59,
      "hit": false,
      "t": 85800,
      "d": 300,
      "v": 68
    },
    {
      "midi": 42,
      "hit": false,
      "t": 85800,
      "d": 2400,
      "v": 77
    },
    {
      "midi": 60,
      "hit": false,
      "t": 86100,
      "d": 300,
      "v": 76
    },
    {
      "midi": 59,
      "hit": false,
      "t": 86400,
      "d": 300,
      "v": 77
    },
    {
      "midi": 60,
      "hit": false,
      "t": 86700,
      "d": 300,
      "v": 81
    },
    {
      "midi": 62,
      "hit": false,
      "t": 87000,
      "d": 300,
      "v": 83
    },
    {
      "midi": 63,
      "hit": false,
      "t": 87300,
      "d": 300,
      "v": 80
    },
    {
      "midi": 62,
      "hit": false,
      "t": 87600,
      "d": 300,
      "v": 71
    },
    {
      "midi": 60,
      "hit": false,
      "t": 87900,
      "d": 300,
      "v": 74
    },
    {
      "midi": 59,
      "hit": false,
      "t": 88200,
      "d": 450,
      "v": 69
    },
    {
      "midi": 42,
      "hit": false,
      "t": 88200,
      "d": 2400,
      "v": 77
    },
    {
      "midi": 66,
      "hit": false,
      "t": 88650,
      "d": 150,
      "v": 69
    },
    {
      "midi": 66,
      "hit": false,
      "t": 88800,
      "d": 300,
      "v": 78
    },
    {
      "midi": 66,
      "hit": false,
      "t": 89100,
      "d": 300,
      "v": 80
    },
    {
      "midi": 66,
      "hit": false,
      "t": 89400,
      "d": 300,
      "v": 74
    },
    {
      "midi": 70,
      "hit": false,
      "t": 89700,
      "d": 300,
      "v": 84
    },
    {
      "midi": 70,
      "hit": false,
      "t": 90000,
      "d": 300,
      "v": 78
    },
    {
      "midi": 66,
      "hit": false,
      "t": 90300,
      "d": 300,
      "v": 68
    },
    {
      "midi": 61,
      "hit": false,
      "t": 90600,
      "d": 1050,
      "v": 63
    },
    {
      "midi": 47,
      "hit": false,
      "t": 90600,
      "d": 600,
      "v": 85
    },
    {
      "midi": 47,
      "hit": false,
      "t": 91200,
      "d": 600,
      "v": 76
    },
    {
      "midi": 62,
      "hit": false,
      "t": 91650,
      "d": 150,
      "v": 81
    },
    {
      "midi": 64,
      "hit": false,
      "t": 91800,
      "d": 1050,
      "v": 83
    },
    {
      "midi": 47,
      "hit": false,
      "t": 91800,
      "d": 600,
      "v": 75
    },
    {
      "midi": 47,
      "hit": false,
      "t": 92400,
      "d": 600,
      "v": 77
    },
    {
      "midi": 62,
      "hit": false,
      "t": 92850,
      "d": 150,
      "v": 74
    },
    {
      "midi": 61,
      "hit": false,
      "t": 93000,
      "d": 450,
      "v": 81
    },
    {
      "midi": 47,
      "hit": false,
      "t": 93000,
      "d": 600,
      "v": 77
    },
    {
      "midi": 66,
      "hit": false,
      "t": 93450,
      "d": 150,
      "v": 67
    },
    {
      "midi": 66,
      "hit": false,
      "t": 93600,
      "d": 300,
      "v": 77
    },
    {
      "midi": 47,
      "hit": false,
      "t": 93600,
      "d": 600,
      "v": 74
    },
    {
      "midi": 66,
      "hit": false,
      "t": 93900,
      "d": 300,
      "v": 81
    },
    {
      "midi": 66,
      "hit": false,
      "t": 94200,
      "d": 300,
      "v": 75
    },
    {
      "midi": 47,
      "hit": false,
      "t": 94200,
      "d": 600,
      "v": 76
    },
    {
      "midi": 70,
      "hit": false,
      "t": 94500,
      "d": 300,
      "v": 87
    },
    {
      "midi": 70,
      "hit": false,
      "t": 94800,
      "d": 300,
      "v": 80
    },
    {
      "midi": 47,
      "hit": false,
      "t": 94800,
      "d": 600,
      "v": 74
    },
    {
      "midi": 66,
      "hit": false,
      "t": 95100,
      "d": 300,
      "v": 69
    },
    {
      "midi": 61,
      "hit": false,
      "t": 95400,
      "d": 300,
      "v": 66
    },
    {
      "midi": 47,
      "hit": false,
      "t": 95400,
      "d": 600,
      "v": 82
    },
    {
      "midi": 61,
      "hit": false,
      "t": 95700,
      "d": 300,
      "v": 72
    },
    {
      "midi": 61,
      "hit": false,
      "t": 96000,
      "d": 300,
      "v": 76
    },
    {
      "midi": 47,
      "hit": false,
      "t": 96000,
      "d": 600,
      "v": 75
    },
    {
      "midi": 62,
      "hit": false,
      "t": 96300,
      "d": 300,
      "v": 82
    },
    {
      "midi": 64,
      "hit": false,
      "t": 96600,
      "d": 300,
      "v": 82
    },
    {
      "midi": 47,
      "hit": false,
      "t": 96600,
      "d": 600,
      "v": 86
    },
    {
      "midi": 66,
      "hit": false,
      "t": 96900,
      "d": 300,
      "v": 83
    },
    {
      "midi": 64,
      "hit": false,
      "t": 97200,
      "d": 300,
      "v": 75
    },
    {
      "midi": 47,
      "hit": false,
      "t": 97200,
      "d": 600,
      "v": 80
    },
    {
      "midi": 62,
      "hit": false,
      "t": 97500,
      "d": 300,
      "v": 72
    },
    {
      "midi": 61,
      "hit": false,
      "t": 97800,
      "d": 450,
      "v": 78
    },
    {
      "midi": 47,
      "hit": false,
      "t": 97800,
      "d": 600,
      "v": 74
    },
    {
      "midi": 66,
      "hit": false,
      "t": 98250,
      "d": 150,
      "v": 70
    },
    {
      "midi": 66,
      "hit": false,
      "t": 98400,
      "d": 300,
      "v": 75
    },
    {
      "midi": 47,
      "hit": false,
      "t": 98400,
      "d": 600,
      "v": 74
    },
    {
      "midi": 66,
      "hit": false,
      "t": 98700,
      "d": 300,
      "v": 77
    },
    {
      "midi": 66,
      "hit": false,
      "t": 99000,
      "d": 300,
      "v": 77
    },
    {
      "midi": 47,
      "hit": false,
      "t": 99000,
      "d": 600,
      "v": 78
    },
    {
      "midi": 70,
      "hit": false,
      "t": 99300,
      "d": 300,
      "v": 89
    },
    {
      "midi": 70,
      "hit": false,
      "t": 99600,
      "d": 300,
      "v": 76
    },
    {
      "midi": 47,
      "hit": false,
      "t": 99600,
      "d": 600,
      "v": 82
    },
    {
      "midi": 66,
      "hit": false,
      "t": 99900,
      "d": 300,
      "v": 69
    },
    {
      "midi": 54,
      "hit": false,
      "t": 100200,
      "d": 900,
      "v": 65
    },
    {
      "midi": 60,
      "hit": false,
      "t": 100200,
      "d": 900,
      "v": 65
    },
    {
      "midi": 62,
      "hit": false,
      "t": 100200,
      "d": 900,
      "v": 65
    },
    {
      "midi": 47,
      "hit": false,
      "t": 100200,
      "d": 600,
      "v": 76
    },
    {
      "midi": 47,
      "hit": false,
      "t": 100800,
      "d": 600,
      "v": 79
    },
    {
      "midi": 55,
      "hit": false,
      "t": 101100,
      "d": 300,
      "v": 81
    },
    {
      "midi": 61,
      "hit": false,
      "t": 101100,
      "d": 300,
      "v": 81
    },
    {
      "midi": 64,
      "hit": false,
      "t": 101100,
      "d": 300,
      "v": 81
    },
    {
      "midi": 56,
      "hit": false,
      "t": 101400,
      "d": 900,
      "v": 79
    },
    {
      "midi": 62,
      "hit": false,
      "t": 101400,
      "d": 900,
      "v": 79
    },
    {
      "midi": 66,
      "hit": false,
      "t": 101400,
      "d": 900,
      "v": 79
    },
    {
      "midi": 47,
      "hit": false,
      "t": 101400,
      "d": 600,
      "v": 80
    },
    {
      "midi": 47,
      "hit": false,
      "t": 102000,
      "d": 600,
      "v": 74
    },
    {
      "midi": 55,
      "hit": false,
      "t": 102300,
      "d": 300,
      "v": 74
    },
    {
      "midi": 61,
      "hit": false,
      "t": 102300,
      "d": 300,
      "v": 74
    },
    {
      "midi": 64,
      "hit": false,
      "t": 102300,
      "d": 300,
      "v": 74
    },
    {
      "midi": 54,
      "hit": false,
      "t": 102600,
      "d": 300,
      "v": 70
    },
    {
      "midi": 60,
      "hit": false,
      "t": 102600,
      "d": 300,
      "v": 70
    },
    {
      "midi": 62,
      "hit": false,
      "t": 102600,
      "d": 300,
      "v": 70
    },
    {
      "midi": 47,
      "hit": false,
      "t": 102600,
      "d": 600,
      "v": 76
    },
    {
      "midi": 55,
      "hit": false,
      "t": 102900,
      "d": 300,
      "v": 79
    },
    {
      "midi": 61,
      "hit": false,
      "t": 102900,
      "d": 300,
      "v": 79
    },
    {
      "midi": 64,
      "hit": false,
      "t": 102900,
      "d": 300,
      "v": 79
    },
    {
      "midi": 54,
      "hit": false,
      "t": 103200,
      "d": 300,
      "v": 72
    },
    {
      "midi": 60,
      "hit": false,
      "t": 103200,
      "d": 300,
      "v": 72
    },
    {
      "midi": 62,
      "hit": false,
      "t": 103200,
      "d": 300,
      "v": 72
    },
    {
      "midi": 47,
      "hit": false,
      "t": 103200,
      "d": 600,
      "v": 77
    },
    {
      "midi": 55,
      "hit": false,
      "t": 103500,
      "d": 300,
      "v": 81
    },
    {
      "midi": 61,
      "hit": false,
      "t": 103500,
      "d": 300,
      "v": 81
    },
    {
      "midi": 64,
      "hit": false,
      "t": 103500,
      "d": 300,
      "v": 81
    },
    {
      "midi": 56,
      "hit": false,
      "t": 103800,
      "d": 900,
      "v": 84
    },
    {
      "midi": 62,
      "hit": false,
      "t": 103800,
      "d": 900,
      "v": 84
    },
    {
      "midi": 66,
      "hit": false,
      "t": 103800,
      "d": 900,
      "v": 84
    },
    {
      "midi": 47,
      "hit": false,
      "t": 103800,
      "d": 600,
      "v": 76
    },
    {
      "midi": 47,
      "hit": false,
      "t": 104400,
      "d": 600,
      "v": 81
    },
    {
      "midi": 55,
      "hit": false,
      "t": 104700,
      "d": 300,
      "v": 74
    },
    {
      "midi": 61,
      "hit": false,
      "t": 104700,
      "d": 300,
      "v": 74
    },
    {
      "midi": 64,
      "hit": false,
      "t": 104700,
      "d": 300,
      "v": 74
    },
    {
      "midi": 62,
      "hit": false,
      "t": 105000,
      "d": 450,
      "v": 70
    },
    {
      "midi": 47,
      "hit": false,
      "t": 105000,
      "d": 600,
      "v": 72
    },
    {
      "midi": 66,
      "hit": false,
      "t": 105450,
      "d": 150,
      "v": 71
    },
    {
      "midi": 66,
      "hit": false,
      "t": 105600,
      "d": 300,
      "v": 77
    },
    {
      "midi": 47,
      "hit": false,
      "t": 105600,
      "d": 600,
      "v": 76
    },
    {
      "midi": 66,
      "hit": false,
      "t": 105900,
      "d": 300,
      "v": 76
    },
    {
      "midi": 66,
      "hit": false,
      "t": 106200,
      "d": 300,
      "v": 78
    },
    {
      "midi": 47,
      "hit": false,
      "t": 106200,
      "d": 600,
      "v": 77
    },
    {
      "midi": 70,
      "hit": false,
      "t": 106500,
      "d": 300,
      "v": 87
    },
    {
      "midi": 70,
      "hit": false,
      "t": 106800,
      "d": 300,
      "v": 77
    },
    {
      "midi": 47,
      "hit": false,
      "t": 106800,
      "d": 600,
      "v": 76
    },
    {
      "midi": 66,
      "hit": false,
      "t": 107100,
      "d": 300,
      "v": 71
    },
    {
      "midi": 55,
      "hit": false,
      "t": 107400,
      "d": 900,
      "v": 67
    },
    {
      "midi": 61,
      "hit": false,
      "t": 107400,
      "d": 900,
      "v": 67
    },
    {
      "midi": 64,
      "hit": false,
      "t": 107400,
      "d": 900,
      "v": 67
    },
    {
      "midi": 47,
      "hit": false,
      "t": 107400,
      "d": 600,
      "v": 83
    },
    {
      "midi": 47,
      "hit": false,
      "t": 108000,
      "d": 600,
      "v": 78
    },
    {
      "midi": 57,
      "hit": false,
      "t": 108300,
      "d": 300,
      "v": 81
    },
    {
      "midi": 63,
      "hit": false,
      "t": 108300,
      "d": 300,
      "v": 81
    },
    {
      "midi": 66,
      "hit": false,
      "t": 108300,
      "d": 300,
      "v": 81
    },
    {
      "midi": 58,
      "hit": false,
      "t": 108600,
      "d": 900,
      "v": 82
    },
    {
      "midi": 64,
      "hit": false,
      "t": 108600,
      "d": 900,
      "v": 82
    },
    {
      "midi": 67,
      "hit": false,
      "t": 108600,
      "d": 900,
      "v": 82
    },
    {
      "midi": 47,
      "hit": false,
      "t": 108600,
      "d": 600,
      "v": 73
    },
    {
      "midi": 47,
      "hit": false,
      "t": 109200,
      "d": 600,
      "v": 79
    },
    {
      "midi": 57,
      "hit": false,
      "t": 109500,
      "d": 300,
      "v": 73
    },
    {
      "midi": 63,
      "hit": false,
      "t": 109500,
      "d": 300,
      "v": 73
    },
    {
      "midi": 66,
      "hit": false,
      "t": 109500,
      "d": 300,
      "v": 73
    },
    {
      "midi": 55,
      "hit": false,
      "t": 109800,
      "d": 300,
      "v": 70
    },
    {
      "midi": 61,
      "hit": false,
      "t": 109800,
      "d": 300,
      "v": 70
    },
    {
      "midi": 64,
      "hit": false,
      "t": 109800,
      "d": 300,
      "v": 70
    },
    {
      "midi": 47,
      "hit": false,
      "t": 109800,
      "d": 600,
      "v": 74
    },
    {
      "midi": 57,
      "hit": false,
      "t": 110100,
      "d": 300,
      "v": 80
    },
    {
      "midi": 62,
      "hit": false,
      "t": 110100,
      "d": 300,
      "v": 80
    },
    {
      "midi": 66,
      "hit": false,
      "t": 110100,
      "d": 300,
      "v": 80
    },
    {
      "midi": 55,
      "hit": false,
      "t": 110400,
      "d": 300,
      "v": 70
    },
    {
      "midi": 61,
      "hit": false,
      "t": 110400,
      "d": 300,
      "v": 70
    },
    {
      "midi": 64,
      "hit": false,
      "t": 110400,
      "d": 300,
      "v": 70
    },
    {
      "midi": 47,
      "hit": false,
      "t": 110400,
      "d": 600,
      "v": 79
    },
    {
      "midi": 57,
      "hit": false,
      "t": 110700,
      "d": 300,
      "v": 80
    },
    {
      "midi": 62,
      "hit": false,
      "t": 110700,
      "d": 300,
      "v": 80
    },
    {
      "midi": 66,
      "hit": false,
      "t": 110700,
      "d": 300,
      "v": 80
    },
    {
      "midi": 58,
      "hit": false,
      "t": 111000,
      "d": 900,
      "v": 76
    },
    {
      "midi": 64,
      "hit": false,
      "t": 111000,
      "d": 900,
      "v": 76
    },
    {
      "midi": 67,
      "hit": false,
      "t": 111000,
      "d": 900,
      "v": 76
    },
    {
      "midi": 47,
      "hit": false,
      "t": 111000,
      "d": 600,
      "v": 72
    },
    {
      "midi": 47,
      "hit": false,
      "t": 111600,
      "d": 600,
      "v": 77
    },
    {
      "midi": 57,
      "hit": false,
      "t": 111900,
      "d": 300,
      "v": 72
    },
    {
      "midi": 62,
      "hit": false,
      "t": 111900,
      "d": 300,
      "v": 72
    },
    {
      "midi": 66,
      "hit": false,
      "t": 111900,
      "d": 300,
      "v": 72
    },
    {
      "midi": 55,
      "hit": false,
      "t": 112200,
      "d": 600,
      "v": 71
    },
    {
      "midi": 61,
      "hit": false,
      "t": 112200,
      "d": 600,
      "v": 71
    },
    {
      "midi": 64,
      "hit": false,
      "t": 112200,
      "d": 600,
      "v": 71
    },
    {
      "midi": 47,
      "hit": false,
      "t": 112200,
      "d": 600,
      "v": 73
    },
    {
      "midi": 57,
      "hit": false,
      "t": 112800,
      "d": 600,
      "v": 80
    },
    {
      "midi": 63,
      "hit": false,
      "t": 112800,
      "d": 600,
      "v": 80
    },
    {
      "midi": 66,
      "hit": false,
      "t": 112800,
      "d": 600,
      "v": 80
    },
    {
      "midi": 47,
      "hit": false,
      "t": 112800,
      "d": 600,
      "v": 72
    },
    {
      "midi": 58,
      "hit": false,
      "t": 113400,
      "d": 600,
      "v": 84
    },
    {
      "midi": 64,
      "hit": false,
      "t": 113400,
      "d": 600,
      "v": 84
    },
    {
      "midi": 67,
      "hit": false,
      "t": 113400,
      "d": 600,
      "v": 84
    },
    {
      "midi": 47,
      "hit": false,
      "t": 113400,
      "d": 600,
      "v": 71
    },
    {
      "midi": 59,
      "hit": false,
      "t": 114000,
      "d": 600,
      "v": 81
    },
    {
      "midi": 65,
      "hit": false,
      "t": 114000,
      "d": 600,
      "v": 81
    },
    {
      "midi": 68,
      "hit": false,
      "t": 114000,
      "d": 600,
      "v": 81
    },
    {
      "midi": 47,
      "hit": false,
      "t": 114000,
      "d": 600,
      "v": 75
    },
    {
      "midi": 60,
      "hit": false,
      "t": 114600,
      "d": 300,
      "v": 77
    },
    {
      "midi": 66,
      "hit": false,
      "t": 114600,
      "d": 300,
      "v": 77
    },
    {
      "midi": 69,
      "hit": false,
      "t": 114600,
      "d": 300,
      "v": 77
    },
    {
      "midi": 48,
      "hit": false,
      "t": 114600,
      "d": 300,
      "v": 76
    },
    {
      "midi": 63,
      "hit": false,
      "t": 114900,
      "d": 300,
      "v": 80
    },
    {
      "midi": 67,
      "hit": false,
      "t": 114900,
      "d": 300,
      "v": 80
    },
    {
      "midi": 70,
      "hit": false,
      "t": 114900,
      "d": 300,
      "v": 80
    },
    {
      "midi": 49,
      "hit": false,
      "t": 114900,
      "d": 300,
      "v": 79
    },
    {
      "midi": 63,
      "hit": false,
      "t": 115200,
      "d": 300,
      "v": 74
    },
    {
      "midi": 67,
      "hit": false,
      "t": 115200,
      "d": 300,
      "v": 74
    },
    {
      "midi": 70,
      "hit": false,
      "t": 115200,
      "d": 300,
      "v": 74
    },
    {
      "midi": 49,
      "hit": false,
      "t": 115200,
      "d": 300,
      "v": 80
    },
    {
      "midi": 64,
      "hit": false,
      "t": 115500,
      "d": 300,
      "v": 80
    },
    {
      "midi": 68,
      "hit": false,
      "t": 115500,
      "d": 300,
      "v": 80
    },
    {
      "midi": 71,
      "hit": false,
      "t": 115500,
      "d": 300,
      "v": 80
    },
    {
      "midi": 50,
      "hit": false,
      "t": 115500,
      "d": 300,
      "v": 78
    },
    {
      "midi": 64,
      "hit": false,
      "t": 115800,
      "d": 300,
      "v": 76
    },
    {
      "midi": 68,
      "hit": false,
      "t": 115800,
      "d": 300,
      "v": 76
    },
    {
      "midi": 71,
      "hit": false,
      "t": 115800,
      "d": 300,
      "v": 76
    },
    {
      "midi": 50,
      "hit": false,
      "t": 115800,
      "d": 300,
      "v": 74
    },
    {
      "midi": 65,
      "hit": false,
      "t": 116100,
      "d": 300,
      "v": 79
    },
    {
      "midi": 69,
      "hit": false,
      "t": 116100,
      "d": 300,
      "v": 79
    },
    {
      "midi": 72,
      "hit": false,
      "t": 116100,
      "d": 300,
      "v": 79
    },
    {
      "midi": 51,
      "hit": false,
      "t": 116100,
      "d": 300,
      "v": 81
    },
    {
      "midi": 65,
      "hit": false,
      "t": 116400,
      "d": 300,
      "v": 77
    },
    {
      "midi": 69,
      "hit": false,
      "t": 116400,
      "d": 300,
      "v": 77
    },
    {
      "midi": 72,
      "hit": false,
      "t": 116400,
      "d": 300,
      "v": 77
    },
    {
      "midi": 51,
      "hit": false,
      "t": 116400,
      "d": 300,
      "v": 73
    },
    {
      "midi": 66,
      "hit": false,
      "t": 116700,
      "d": 300,
      "v": 80
    },
    {
      "midi": 70,
      "hit": false,
      "t": 116700,
      "d": 300,
      "v": 80
    },
    {
      "midi": 73,
      "hit": false,
      "t": 116700,
      "d": 300,
      "v": 80
    },
    {
      "midi": 52,
      "hit": false,
      "t": 116700,
      "d": 300,
      "v": 79
    },
    {
      "midi": 64,
      "hit": false,
      "t": 117000,
      "d": 2400,
      "v": 80
    },
    {
      "midi": 70,
      "hit": false,
      "t": 117000,
      "d": 2400,
      "v": 80
    },
    {
      "midi": 74,
      "hit": false,
      "t": 117000,
      "d": 2400,
      "v": 80
    },
    {
      "midi": 52,
      "hit": false,
      "t": 117000,
      "d": 300,
      "v": 78
    },
    {
      "midi": 54,
      "hit": false,
      "t": 117300,
      "d": 300,
      "v": 84
    },
    {
      "midi": 55,
      "hit": false,
      "t": 117600,
      "d": 300,
      "v": 84
    },
    {
      "midi": 57,
      "hit": false,
      "t": 117900,
      "d": 300,
      "v": 82
    },
    {
      "midi": 58,
      "hit": false,
      "t": 118200,
      "d": 300,
      "v": 78
    },
    {
      "midi": 59,
      "hit": false,
      "t": 118500,
      "d": 300,
      "v": 80
    },
    {
      "midi": 60,
      "hit": false,
      "t": 118800,
      "d": 300,
      "v": 73
    },
    {
      "midi": 62,
      "hit": false,
      "t": 119100,
      "d": 300,
      "v": 81
    },
    {
      "midi": 64,
      "hit": false,
      "t": 119400,
      "d": 300,
      "v": 66
    },
    {
      "midi": 76,
      "hit": false,
      "t": 119400,
      "d": 300,
      "v": 66
    },
    {
      "midi": 52,
      "hit": false,
      "t": 119400,
      "d": 300,
      "v": 72
    },
    {
      "midi": 66,
      "hit": false,
      "t": 119700,
      "d": 300,
      "v": 78
    },
    {
      "midi": 78,
      "hit": false,
      "t": 119700,
      "d": 300,
      "v": 78
    },
    {
      "midi": 54,
      "hit": false,
      "t": 119700,
      "d": 300,
      "v": 80
    },
    {
      "midi": 61,
      "hit": false,
      "t": 120000,
      "d": 300,
      "v": 61
    },
    {
      "midi": 73,
      "hit": false,
      "t": 120000,
      "d": 300,
      "v": 61
    },
    {
      "midi": 49,
      "hit": false,
      "t": 120000,
      "d": 300,
      "v": 70
    },
    {
      "midi": 62,
      "hit": false,
      "t": 120300,
      "d": 300,
      "v": 76
    },
    {
      "midi": 74,
      "hit": false,
      "t": 120300,
      "d": 300,
      "v": 76
    },
    {
      "midi": 50,
      "hit": false,
      "t": 120300,
      "d": 300,
      "v": 75
    },
    {
      "midi": 59,
      "hit": false,
      "t": 120600,
      "d": 300,
      "v": 71
    },
    {
      "midi": 71,
      "hit": false,
      "t": 120600,
      "d": 300,
      "v": 71
    },
    {
      "midi": 47,
      "hit": false,
      "t": 120600,
      "d": 300,
      "v": 75
    },
    {
      "midi": 60,
      "hit": false,
      "t": 120900,
      "d": 300,
      "v": 78
    },
    {
      "midi": 72,
      "hit": false,
      "t": 120900,
      "d": 300,
      "v": 78
    },
    {
      "midi": 48,
      "hit": false,
      "t": 120900,
      "d": 300,
      "v": 77
    },
    {
      "midi": 56,
      "hit": false,
      "t": 121200,
      "d": 300,
      "v": 65
    },
    {
      "midi": 68,
      "hit": false,
      "t": 121200,
      "d": 300,
      "v": 65
    },
    {
      "midi": 44,
      "hit": false,
      "t": 121200,
      "d": 300,
      "v": 76
    },
    {
      "midi": 57,
      "hit": false,
      "t": 121500,
      "d": 300,
      "v": 79
    },
    {
      "midi": 69,
      "hit": false,
      "t": 121500,
      "d": 300,
      "v": 79
    },
    {
      "midi": 45,
      "hit": false,
      "t": 121500,
      "d": 300,
      "v": 77
    },
    {
      "midi": 61,
      "hit": false,
      "t": 121800,
      "d": 300,
      "v": 88
    },
    {
      "midi": 73,
      "hit": false,
      "t": 121800,
      "d": 300,
      "v": 88
    },
    {
      "midi": 49,
      "hit": false,
      "t": 121800,
      "d": 300,
      "v": 80
    },
    {
      "midi": 62,
      "hit": false,
      "t": 122100,
      "d": 300,
      "v": 78
    },
    {
      "midi": 74,
      "hit": false,
      "t": 122100,
      "d": 300,
      "v": 78
    },
    {
      "midi": 50,
      "hit": false,
      "t": 122100,
      "d": 300,
      "v": 79
    },
    {
      "midi": 59,
      "hit": false,
      "t": 122400,
      "d": 300,
      "v": 71
    },
    {
      "midi": 71,
      "hit": false,
      "t": 122400,
      "d": 300,
      "v": 71
    },
    {
      "midi": 47,
      "hit": false,
      "t": 122400,
      "d": 300,
      "v": 80
    },
    {
      "midi": 60,
      "hit": false,
      "t": 122700,
      "d": 300,
      "v": 83
    },
    {
      "midi": 72,
      "hit": false,
      "t": 122700,
      "d": 300,
      "v": 83
    },
    {
      "midi": 48,
      "hit": false,
      "t": 122700,
      "d": 300,
      "v": 75
    },
    {
      "midi": 56,
      "hit": false,
      "t": 123000,
      "d": 300,
      "v": 70
    },
    {
      "midi": 68,
      "hit": false,
      "t": 123000,
      "d": 300,
      "v": 70
    },
    {
      "midi": 44,
      "hit": false,
      "t": 123000,
      "d": 300,
      "v": 68
    },
    {
      "midi": 57,
      "hit": false,
      "t": 123300,
      "d": 300,
      "v": 80
    },
    {
      "midi": 69,
      "hit": false,
      "t": 123300,
      "d": 300,
      "v": 80
    },
    {
      "midi": 45,
      "hit": false,
      "t": 123300,
      "d": 300,
      "v": 81
    },
    {
      "midi": 54,
      "hit": false,
      "t": 123600,
      "d": 300,
      "v": 71
    },
    {
      "midi": 66,
      "hit": false,
      "t": 123600,
      "d": 300,
      "v": 71
    },
    {
      "midi": 42,
      "hit": false,
      "t": 123600,
      "d": 300,
      "v": 68
    },
    {
      "midi": 55,
      "hit": false,
      "t": 123900,
      "d": 300,
      "v": 78
    },
    {
      "midi": 67,
      "hit": false,
      "t": 123900,
      "d": 300,
      "v": 78
    },
    {
      "midi": 43,
      "hit": false,
      "t": 123900,
      "d": 300,
      "v": 79
    },
    {
      "midi": 61,
      "hit": false,
      "t": 124200,
      "d": 300,
      "v": 67
    },
    {
      "midi": 49,
      "hit": false,
      "t": 124200,
      "d": 1200,
      "v": 85
    },
    {
      "midi": 53,
      "hit": false,
      "t": 124200,
      "d": 1200,
      "v": 85
    },
    {
      "midi": 66,
      "hit": false,
      "t": 124500,
      "d": 300,
      "v": 69
    },
    {
      "midi": 66,
      "hit": false,
      "t": 124800,
      "d": 300,
      "v": 74
    },
    {
      "midi": 66,
      "hit": false,
      "t": 125100,
      "d": 300,
      "v": 80
    },
    {
      "midi": 60,
      "hit": false,
      "t": 125400,
      "d": 300,
      "v": 72
    },
    {
      "midi": 48,
      "hit": false,
      "t": 125400,
      "d": 1200,
      "v": 75
    },
    {
      "midi": 52,
      "hit": false,
      "t": 125400,
      "d": 1200,
      "v": 75
    },
    {
      "midi": 66,
      "hit": false,
      "t": 125700,
      "d": 300,
      "v": 69
    },
    {
      "midi": 66,
      "hit": false,
      "t": 126000,
      "d": 300,
      "v": 78
    },
    {
      "midi": 66,
      "hit": false,
      "t": 126300,
      "d": 300,
      "v": 77
    },
    {
      "midi": 59,
      "hit": false,
      "t": 126600,
      "d": 300,
      "v": 71
    },
    {
      "midi": 47,
      "hit": false,
      "t": 126600,
      "d": 2400,
      "v": 79
    },
    {
      "midi": 51,
      "hit": false,
      "t": 126600,
      "d": 2400,
      "v": 79
    },
    {
      "midi": 66,
      "hit": false,
      "t": 126900,
      "d": 300,
      "v": 65
    },
    {
      "midi": 66,
      "hit": false,
      "t": 127200,
      "d": 300,
      "v": 77
    },
    {
      "midi": 66,
      "hit": false,
      "t": 127500,
      "d": 300,
      "v": 76
    },
    {
      "midi": 66,
      "hit": false,
      "t": 127800,
      "d": 300,
      "v": 76
    },
    {
      "midi": 66,
      "hit": false,
      "t": 128100,
      "d": 300,
      "v": 72
    },
    {
      "midi": 66,
      "hit": false,
      "t": 128400,
      "d": 300,
      "v": 72
    },
    {
      "midi": 66,
      "hit": false,
      "t": 128700,
      "d": 300,
      "v": 75
    },
    {
      "midi": 62,
      "hit": false,
      "t": 129000,
      "d": 300,
      "v": 83
    },
    {
      "midi": 46,
      "hit": false,
      "t": 129000,
      "d": 1200,
      "v": 72
    },
    {
      "midi": 54,
      "hit": false,
      "t": 129000,
      "d": 1200,
      "v": 73
    },
    {
      "midi": 66,
      "hit": false,
      "t": 129300,
      "d": 300,
      "v": 70
    },
    {
      "midi": 66,
      "hit": false,
      "t": 129600,
      "d": 300,
      "v": 72
    },
    {
      "midi": 66,
      "hit": false,
      "t": 129900,
      "d": 300,
      "v": 77
    },
    {
      "midi": 61,
      "hit": false,
      "t": 130200,
      "d": 300,
      "v": 73
    },
    {
      "midi": 45,
      "hit": false,
      "t": 130200,
      "d": 1200,
      "v": 75
    },
    {
      "midi": 66,
      "hit": false,
      "t": 130500,
      "d": 300,
      "v": 65
    },
    {
      "midi": 66,
      "hit": false,
      "t": 130800,
      "d": 300,
      "v": 74
    },
    {
      "midi": 66,
      "hit": false,
      "t": 131100,
      "d": 300,
      "v": 79
    },
    {
      "midi": 60,
      "hit": false,
      "t": 131400,
      "d": 300,
      "v": 75
    },
    {
      "midi": 44,
      "hit": false,
      "t": 131400,
      "d": 2400,
      "v": 77
    },
    {
      "midi": 54,
      "hit": false,
      "t": 131400,
      "d": 2400,
      "v": 77
    },
    {
      "midi": 66,
      "hit": false,
      "t": 131700,
      "d": 300,
      "v": 70
    },
    {
      "midi": 66,
      "hit": false,
      "t": 132000,
      "d": 300,
      "v": 74
    },
    {
      "midi": 66,
      "hit": false,
      "t": 132300,
      "d": 300,
      "v": 77
    },
    {
      "midi": 66,
      "hit": false,
      "t": 132600,
      "d": 300,
      "v": 79
    },
    {
      "midi": 66,
      "hit": false,
      "t": 132900,
      "d": 300,
      "v": 71
    },
    {
      "midi": 66,
      "hit": false,
      "t": 133200,
      "d": 300,
      "v": 79
    },
    {
      "midi": 66,
      "hit": false,
      "t": 133500,
      "d": 300,
      "v": 76
    },
    {
      "midi": 61,
      "hit": false,
      "t": 133800,
      "d": 300,
      "v": 81
    },
    {
      "midi": 45,
      "hit": false,
      "t": 133800,
      "d": 1200,
      "v": 71
    },
    {
      "midi": 54,
      "hit": false,
      "t": 133800,
      "d": 1200,
      "v": 74
    },
    {
      "midi": 66,
      "hit": false,
      "t": 134100,
      "d": 300,
      "v": 63
    },
    {
      "midi": 66,
      "hit": false,
      "t": 134400,
      "d": 300,
      "v": 74
    },
    {
      "midi": 66,
      "hit": false,
      "t": 134700,
      "d": 300,
      "v": 74
    },
    {
      "midi": 60,
      "hit": false,
      "t": 135000,
      "d": 300,
      "v": 74
    },
    {
      "midi": 44,
      "hit": false,
      "t": 135000,
      "d": 1200,
      "v": 77
    },
    {
      "midi": 66,
      "hit": false,
      "t": 135300,
      "d": 300,
      "v": 69
    },
    {
      "midi": 66,
      "hit": false,
      "t": 135600,
      "d": 300,
      "v": 75
    },
    {
      "midi": 66,
      "hit": false,
      "t": 135900,
      "d": 300,
      "v": 83
    },
    {
      "midi": 61,
      "hit": false,
      "t": 136200,
      "d": 300,
      "v": 78
    },
    {
      "midi": 45,
      "hit": false,
      "t": 136200,
      "d": 1200,
      "v": 78
    },
    {
      "midi": 66,
      "hit": false,
      "t": 136500,
      "d": 300,
      "v": 66
    },
    {
      "midi": 66,
      "hit": false,
      "t": 136800,
      "d": 300,
      "v": 76
    },
    {
      "midi": 66,
      "hit": false,
      "t": 137100,
      "d": 300,
      "v": 74
    },
    {
      "midi": 60,
      "hit": false,
      "t": 137400,
      "d": 300,
      "v": 68
    },
    {
      "midi": 44,
      "hit": false,
      "t": 137400,
      "d": 1200,
      "v": 74
    },
    {
      "midi": 66,
      "hit": false,
      "t": 137700,
      "d": 300,
      "v": 71
    },
    {
      "midi": 66,
      "hit": false,
      "t": 138000,
      "d": 300,
      "v": 78
    },
    {
      "midi": 66,
      "hit": false,
      "t": 138300,
      "d": 300,
      "v": 76
    },
    {
      "midi": 66,
      "hit": false,
      "t": 138600,
      "d": 300,
      "v": 77
    },
    {
      "midi": 44,
      "hit": false,
      "t": 138600,
      "d": 1800,
      "v": 75
    },
    {
      "midi": 48,
      "hit": false,
      "t": 138600,
      "d": 1800,
      "v": 75
    },
    {
      "midi": 54,
      "hit": false,
      "t": 138600,
      "d": 1800,
      "v": 75
    },
    {
      "midi": 63,
      "hit": false,
      "t": 138900,
      "d": 300,
      "v": 67
    },
    {
      "midi": 64,
      "hit": false,
      "t": 139200,
      "d": 300,
      "v": 79
    },
    {
      "midi": 66,
      "hit": false,
      "t": 139500,
      "d": 300,
      "v": 84
    },
    {
      "midi": 66,
      "hit": false,
      "t": 139800,
      "d": 300,
      "v": 78
    },
    {
      "midi": 67,
      "hit": false,
      "t": 140100,
      "d": 300,
      "v": 84
    },
    {
      "midi": 68,
      "hit": false,
      "t": 140400,
      "d": 300,
      "v": 75
    },
    {
      "midi": 44,
      "hit": false,
      "t": 140400,
      "d": 600,
      "v": 72
    },
    {
      "midi": 48,
      "hit": false,
      "t": 140400,
      "d": 600,
      "v": 72
    },
    {
      "midi": 54,
      "hit": false,
      "t": 140400,
      "d": 600,
      "v": 72
    },
    {
      "midi": 69,
      "hit": false,
      "t": 140700,
      "d": 300,
      "v": 77
    },
    {
      "midi": 67,
      "hit": false,
      "t": 141000,
      "d": 300,
      "v": 72
    },
    {
      "midi": 44,
      "hit": false,
      "t": 141000,
      "d": 1800,
      "v": 74
    },
    {
      "midi": 48,
      "hit": false,
      "t": 141000,
      "d": 1800,
      "v": 74
    },
    {
      "midi": 54,
      "hit": false,
      "t": 141000,
      "d": 1800,
      "v": 74
    },
    {
      "midi": 68,
      "hit": false,
      "t": 141300,
      "d": 300,
      "v": 79
    },
    {
      "midi": 68,
      "hit": false,
      "t": 141600,
      "d": 300,
      "v": 76
    },
    {
      "midi": 69,
      "hit": false,
      "t": 141900,
      "d": 300,
      "v": 78
    },
    {
      "midi": 69,
      "hit": false,
      "t": 142200,
      "d": 300,
      "v": 80
    },
    {
      "midi": 70,
      "hit": false,
      "t": 142500,
      "d": 300,
      "v": 83
    },
    {
      "midi": 70,
      "hit": false,
      "t": 142800,
      "d": 300,
      "v": 76
    },
    {
      "midi": 44,
      "hit": false,
      "t": 142800,
      "d": 600,
      "v": 80
    },
    {
      "midi": 48,
      "hit": false,
      "t": 142800,
      "d": 600,
      "v": 80
    },
    {
      "midi": 54,
      "hit": false,
      "t": 142800,
      "d": 600,
      "v": 80
    },
    {
      "midi": 71,
      "hit": false,
      "t": 143100,
      "d": 300,
      "v": 85
    },
    {
      "midi": 72,
      "hit": false,
      "t": 143400,
      "d": 300,
      "v": 78
    },
    {
      "midi": 56,
      "hit": false,
      "t": 143400,
      "d": 600,
      "v": 92
    },
    {
      "midi": 60,
      "hit": false,
      "t": 143400,
      "d": 600,
      "v": 92
    },
    {
      "midi": 66,
      "hit": false,
      "t": 143400,
      "d": 600,
      "v": 92
    },
    {
      "midi": 73,
      "hit": false,
      "t": 143700,
      "d": 300,
      "v": 83
    },
    {
      "midi": 75,
      "hit": false,
      "t": 144000,
      "d": 300,
      "v": 80
    },
    {
      "midi": 56,
      "hit": false,
      "t": 144000,
      "d": 1200,
      "v": 83
    },
    {
      "midi": 60,
      "hit": false,
      "t": 144000,
      "d": 1200,
      "v": 83
    },
    {
      "midi": 66,
      "hit": false,
      "t": 144000,
      "d": 1200,
      "v": 83
    },
    {
      "midi": 76,
      "hit": false,
      "t": 144300,
      "d": 300,
      "v": 84
    },
    {
      "midi": 78,
      "hit": false,
      "t": 144600,
      "d": 300,
      "v": 87
    },
    {
      "midi": 76,
      "hit": false,
      "t": 144900,
      "d": 300,
      "v": 74
    },
    {
      "midi": 75,
      "hit": false,
      "t": 145200,
      "d": 300,
      "v": 72
    },
    {
      "midi": 56,
      "hit": false,
      "t": 145200,
      "d": 600,
      "v": 74
    },
    {
      "midi": 60,
      "hit": false,
      "t": 145200,
      "d": 600,
      "v": 74
    },
    {
      "midi": 66,
      "hit": false,
      "t": 145200,
      "d": 600,
      "v": 74
    },
    {
      "midi": 73,
      "hit": false,
      "t": 145500,
      "d": 300,
      "v": 72
    },
    {
      "midi": 72,
      "hit": false,
      "t": 145800,
      "d": 300,
      "v": 67
    },
    {
      "midi": 56,
      "hit": false,
      "t": 145800,
      "d": 600,
      "v": 76
    },
    {
      "midi": 60,
      "hit": false,
      "t": 145800,
      "d": 600,
      "v": 76
    },
    {
      "midi": 66,
      "hit": false,
      "t": 145800,
      "d": 600,
      "v": 76
    },
    {
      "midi": 73,
      "hit": false,
      "t": 146100,
      "d": 300,
      "v": 80
    },
    {
      "midi": 75,
      "hit": false,
      "t": 146400,
      "d": 300,
      "v": 81
    },
    {
      "midi": 56,
      "hit": false,
      "t": 146400,
      "d": 1200,
      "v": 70
    },
    {
      "midi": 60,
      "hit": false,
      "t": 146400,
      "d": 1200,
      "v": 70
    },
    {
      "midi": 66,
      "hit": false,
      "t": 146400,
      "d": 1200,
      "v": 70
    },
    {
      "midi": 76,
      "hit": false,
      "t": 146700,
      "d": 300,
      "v": 79
    },
    {
      "midi": 75,
      "hit": false,
      "t": 147000,
      "d": 300,
      "v": 74
    },
    {
      "midi": 76,
      "hit": false,
      "t": 147300,
      "d": 300,
      "v": 80
    },
    {
      "midi": 75,
      "hit": false,
      "t": 147600,
      "d": 300,
      "v": 70
    },
    {
      "midi": 56,
      "hit": false,
      "t": 147600,
      "d": 600,
      "v": 75
    },
    {
      "midi": 60,
      "hit": false,
      "t": 147600,
      "d": 600,
      "v": 75
    },
    {
      "midi": 66,
      "hit": false,
      "t": 147600,
      "d": 600,
      "v": 75
    },
    {
      "midi": 76,
      "hit": false,
      "t": 147900,
      "d": 300,
      "v": 77
    },
    {
      "midi": 75,
      "hit": false,
      "t": 148200,
      "d": 300,
      "v": 72
    },
    {
      "midi": 56,
      "hit": false,
      "t": 148200,
      "d": 600,
      "v": 76
    },
    {
      "midi": 60,
      "hit": false,
      "t": 148200,
      "d": 600,
      "v": 76
    },
    {
      "midi": 66,
      "hit": false,
      "t": 148200,
      "d": 600,
      "v": 76
    },
    {
      "midi": 76,
      "hit": false,
      "t": 148500,
      "d": 300,
      "v": 81
    },
    {
      "midi": 75,
      "hit": false,
      "t": 148800,
      "d": 300,
      "v": 74
    },
    {
      "midi": 56,
      "hit": false,
      "t": 148800,
      "d": 600,
      "v": 80
    },
    {
      "midi": 60,
      "hit": false,
      "t": 148800,
      "d": 600,
      "v": 80
    },
    {
      "midi": 66,
      "hit": false,
      "t": 148800,
      "d": 600,
      "v": 80
    },
    {
      "midi": 76,
      "hit": false,
      "t": 149100,
      "d": 300,
      "v": 77
    },
    {
      "midi": 75,
      "hit": false,
      "t": 149400,
      "d": 300,
      "v": 71
    },
    {
      "midi": 56,
      "hit": false,
      "t": 149400,
      "d": 300,
      "v": 77
    },
    {
      "midi": 60,
      "hit": false,
      "t": 149400,
      "d": 300,
      "v": 77
    },
    {
      "midi": 66,
      "hit": false,
      "t": 149400,
      "d": 300,
      "v": 77
    },
    {
      "midi": 76,
      "hit": false,
      "t": 149700,
      "d": 300,
      "v": 79
    },
    {
      "midi": 56,
      "hit": false,
      "t": 149700,
      "d": 300,
      "v": 76
    },
    {
      "midi": 60,
      "hit": false,
      "t": 149700,
      "d": 300,
      "v": 76
    },
    {
      "midi": 66,
      "hit": false,
      "t": 149700,
      "d": 300,
      "v": 76
    },
    {
      "midi": 75,
      "hit": false,
      "t": 150000,
      "d": 300,
      "v": 75
    },
    {
      "midi": 56,
      "hit": false,
      "t": 150000,
      "d": 300,
      "v": 78
    },
    {
      "midi": 60,
      "hit": false,
      "t": 150000,
      "d": 300,
      "v": 78
    },
    {
      "midi": 66,
      "hit": false,
      "t": 150000,
      "d": 300,
      "v": 78
    },
    {
      "midi": 76,
      "hit": false,
      "t": 150300,
      "d": 300,
      "v": 80
    },
    {
      "midi": 56,
      "hit": false,
      "t": 150300,
      "d": 300,
      "v": 72
    },
    {
      "midi": 60,
      "hit": false,
      "t": 150300,
      "d": 300,
      "v": 72
    },
    {
      "midi": 66,
      "hit": false,
      "t": 150300,
      "d": 300,
      "v": 72
    },
    {
      "midi": 72,
      "hit": false,
      "t": 150600,
      "d": 1800,
      "v": 87
    },
    {
      "midi": 76,
      "hit": false,
      "t": 150600,
      "d": 1800,
      "v": 87
    },
    {
      "midi": 79,
      "hit": false,
      "t": 150600,
      "d": 1800,
      "v": 87
    },
    {
      "midi": 48,
      "hit": false,
      "t": 150600,
      "d": 300,
      "v": 66
    },
    {
      "midi": 55,
      "hit": false,
      "t": 150900,
      "d": 300,
      "v": 81
    },
    {
      "midi": 64,
      "hit": false,
      "t": 151200,
      "d": 300,
      "v": 87
    },
    {
      "midi": 55,
      "hit": false,
      "t": 151500,
      "d": 300,
      "v": 74
    },
    {
      "midi": 60,
      "hit": false,
      "t": 151800,
      "d": 1200,
      "v": 70
    },
    {
      "midi": 75,
      "hit": false,
      "t": 152400,
      "d": 300,
      "v": 67
    },
    {
      "midi": 76,
      "hit": false,
      "t": 152700,
      "d": 300,
      "v": 78
    },
    {
      "midi": 71,
      "hit": false,
      "t": 153000,
      "d": 1800,
      "v": 84
    },
    {
      "midi": 76,
      "hit": false,
      "t": 153000,
      "d": 1800,
      "v": 84
    },
    {
      "midi": 79,
      "hit": false,
      "t": 153000,
      "d": 1800,
      "v": 84
    },
    {
      "midi": 48,
      "hit": false,
      "t": 153000,
      "d": 300,
      "v": 72
    },
    {
      "midi": 55,
      "hit": false,
      "t": 153300,
      "d": 300,
      "v": 86
    },
    {
      "midi": 64,
      "hit": false,
      "t": 153600,
      "d": 300,
      "v": 85
    },
    {
      "midi": 55,
      "hit": false,
      "t": 153900,
      "d": 300,
      "v": 74
    },
    {
      "midi": 60,
      "hit": false,
      "t": 154200,
      "d": 1200,
      "v": 69
    },
    {
      "midi": 75,
      "hit": false,
      "t": 154800,
      "d": 300,
      "v": 68
    },
    {
      "midi": 76,
      "hit": false,
      "t": 155100,
      "d": 300,
      "v": 79
    },
    {
      "midi": 70,
      "hit": false,
      "t": 155400,
      "d": 1800,
      "v": 81
    },
    {
      "midi": 76,
      "hit": false,
      "t": 155400,
      "d": 1800,
      "v": 81
    },
    {
      "midi": 79,
      "hit": false,
      "t": 155400,
      "d": 1800,
      "v": 81
    },
    {
      "midi": 48,
      "hit": false,
      "t": 155400,
      "d": 300,
      "v": 76
    },
    {
      "midi": 55,
      "hit": false,
      "t": 155700,
      "d": 300,
      "v": 83
    },
    {
      "midi": 64,
      "hit": false,
      "t": 156000,
      "d": 300,
      "v": 84
    },
    {
      "midi": 55,
      "hit": false,
      "t": 156300,
      "d": 300,
      "v": 74
    },
    {
      "midi": 60,
      "hit": false,
      "t": 156600,
      "d": 1200,
      "v": 65
    },
    {
      "midi": 81,
      "hit": false,
      "t": 157200,
      "d": 300,
      "v": 80
    },
    {
      "midi": 79,
      "hit": false,
      "t": 157500,
      "d": 150,
      "v": 75
    },
    {
      "midi": 81,
      "hit": false,
      "t": 157650,
      "d": 150,
      "v": 82
    },
    {
      "midi": 69,
      "hit": false,
      "t": 157800,
      "d": 600,
      "v": 70
    },
    {
      "midi": 74,
      "hit": false,
      "t": 157800,
      "d": 600,
      "v": 70
    },
    {
      "midi": 79,
      "hit": false,
      "t": 157800,
      "d": 600,
      "v": 70
    },
    {
      "midi": 41,
      "hit": false,
      "t": 157800,
      "d": 300,
      "v": 66
    },
    {
      "midi": 48,
      "hit": false,
      "t": 158100,
      "d": 300,
      "v": 79
    },
    {
      "midi": 69,
      "hit": false,
      "t": 158400,
      "d": 1200,
      "v": 76
    },
    {
      "midi": 74,
      "hit": false,
      "t": 158400,
      "d": 1200,
      "v": 76
    },
    {
      "midi": 77,
      "hit": false,
      "t": 158400,
      "d": 1200,
      "v": 76
    },
    {
      "midi": 53,
      "hit": false,
      "t": 158400,
      "d": 300,
      "v": 82
    },
    {
      "midi": 48,
      "hit": false,
      "t": 158700,
      "d": 300,
      "v": 79
    },
    {
      "midi": 57,
      "hit": false,
      "t": 159000,
      "d": 1200,
      "v": 76
    },
    {
      "midi": 69,
      "hit": false,
      "t": 159600,
      "d": 600,
      "v": 75
    },
    {
      "midi": 74,
      "hit": false,
      "t": 159600,
      "d": 600,
      "v": 75
    },
    {
      "midi": 77,
      "hit": false,
      "t": 159600,
      "d": 600,
      "v": 75
    },
    {
      "midi": 67,
      "hit": false,
      "t": 160200,
      "d": 600,
      "v": 79
    },
    {
      "midi": 73,
      "hit": false,
      "t": 160200,
      "d": 600,
      "v": 79
    },
    {
      "midi": 79,
      "hit": false,
      "t": 160200,
      "d": 600,
      "v": 79
    },
    {
      "midi": 48,
      "hit": false,
      "t": 160200,
      "d": 300,
      "v": 67
    },
    {
      "midi": 56,
      "hit": false,
      "t": 160500,
      "d": 300,
      "v": 80
    },
    {
      "midi": 66,
      "hit": false,
      "t": 160800,
      "d": 900,
      "v": 72
    },
    {
      "midi": 73,
      "hit": false,
      "t": 160800,
      "d": 900,
      "v": 72
    },
    {
      "midi": 78,
      "hit": false,
      "t": 160800,
      "d": 900,
      "v": 72
    },
    {
      "midi": 61,
      "hit": false,
      "t": 160800,
      "d": 300,
      "v": 88
    },
    {
      "midi": 56,
      "hit": false,
      "t": 161100,
      "d": 300,
      "v": 71
    },
    {
      "midi": 49,
      "hit": false,
      "t": 161400,
      "d": 300,
      "v": 70
    },
    {
      "midi": 67,
      "hit": false,
      "t": 161700,
      "d": 900,
      "v": 78
    },
    {
      "midi": 73,
      "hit": false,
      "t": 161700,
      "d": 900,
      "v": 78
    },
    {
      "midi": 79,
      "hit": false,
      "t": 161700,
      "d": 900,
      "v": 78
    },
    {
      "midi": 56,
      "hit": false,
      "t": 161700,
      "d": 300,
      "v": 77
    },
    {
      "midi": 61,
      "hit": false,
      "t": 162000,
      "d": 300,
      "v": 86
    },
    {
      "midi": 49,
      "hit": false,
      "t": 162300,
      "d": 300,
      "v": 66
    },
    {
      "midi": 67,
      "hit": false,
      "t": 162600,
      "d": 1200,
      "v": 71
    },
    {
      "midi": 71,
      "hit": false,
      "t": 162600,
      "d": 1200,
      "v": 71
    },
    {
      "midi": 76,
      "hit": false,
      "t": 162600,
      "d": 1200,
      "v": 71
    },
    {
      "midi": 48,
      "hit": false,
      "t": 162600,
      "d": 300,
      "v": 72
    },
    {
      "midi": 55,
      "hit": false,
      "t": 162900,
      "d": 300,
      "v": 83
    },
    {
      "midi": 60,
      "hit": false,
      "t": 163200,
      "d": 300,
      "v": 86
    },
    {
      "midi": 55,
      "hit": false,
      "t": 163500,
      "d": 300,
      "v": 72
    },
    {
      "midi": 72,
      "hit": false,
      "t": 163800,
      "d": 300,
      "v": 78
    },
    {
      "midi": 48,
      "hit": false,
      "t": 163800,
      "d": 1200,
      "v": 69
    },
    {
      "midi": 76,
      "hit": false,
      "t": 164100,
      "d": 300,
      "v": 75
    },
    {
      "midi": 78,
      "hit": false,
      "t": 164400,
      "d": 150,
      "v": 83
    },
    {
      "midi": 76,
      "hit": false,
      "t": 164550,
      "d": 150,
      "v": 71
    },
    {
      "midi": 75,
      "hit": false,
      "t": 164700,
      "d": 150,
      "v": 73
    },
    {
      "midi": 76,
      "hit": false,
      "t": 164850,
      "d": 150,
      "v": 75
    },
    {
      "midi": 66,
      "hit": false,
      "t": 165000,
      "d": 600,
      "v": 78
    },
    {
      "midi": 71,
      "hit": false,
      "t": 165000,
      "d": 600,
      "v": 78
    },
    {
      "midi": 76,
      "hit": false,
      "t": 165000,
      "d": 600,
      "v": 78
    },
    {
      "midi": 36,
      "hit": false,
      "t": 165000,
      "d": 300,
      "v": 63
    },
    {
      "midi": 46,
      "hit": false,
      "t": 165300,
      "d": 300,
      "v": 86
    },
    {
      "midi": 63,
      "hit": false,
      "t": 165600,
      "d": 1200,
      "v": 63
    },
    {
      "midi": 66,
      "hit": false,
      "t": 165600,
      "d": 1200,
      "v": 63
    },
    {
      "midi": 71,
      "hit": false,
      "t": 165600,
      "d": 1200,
      "v": 63
    },
    {
      "midi": 51,
      "hit": false,
      "t": 165600,
      "d": 300,
      "v": 85
    },
    {
      "midi": 54,
      "hit": false,
      "t": 165900,
      "d": 300,
      "v": 79
    },
    {
      "midi": 58,
      "hit": false,
      "t": 166200,
      "d": 1200,
      "v": 81
    },
    {
      "midi": 72,
      "hit": false,
      "t": 166800,
      "d": 300,
      "v": 78
    },
    {
      "midi": 71,
      "hit": false,
      "t": 167100,
      "d": 300,
      "v": 73
    },
    {
      "midi": 62,
      "hit": false,
      "t": 167400,
      "d": 1800,
      "v": 70
    },
    {
      "midi": 66,
      "hit": false,
      "t": 167400,
      "d": 1800,
      "v": 70
    },
    {
      "midi": 69,
      "hit": false,
      "t": 167400,
      "d": 1800,
      "v": 70
    },
    {
      "midi": 36,
      "hit": false,
      "t": 167400,
      "d": 300,
      "v": 66
    },
    {
      "midi": 45,
      "hit": false,
      "t": 167700,
      "d": 300,
      "v": 82
    },
    {
      "midi": 50,
      "hit": false,
      "t": 168000,
      "d": 300,
      "v": 82
    },
    {
      "midi": 45,
      "hit": false,
      "t": 168300,
      "d": 300,
      "v": 72
    },
    {
      "midi": 52,
      "hit": false,
      "t": 168600,
      "d": 1200,
      "v": 70
    },
    {
      "midi": 69,
      "hit": false,
      "t": 169200,
      "d": 98.4375,
      "v": 100
    },
    {
      "midi": 70,
      "hit": false,
      "t": 169298.4375,
      "d": 100.78125,
      "v": 100
    },
    {
      "midi": 69,
      "hit": false,
      "t": 169399.21875,
      "d": 100.78125,
      "v": 100
    },
    {
      "midi": 68,
      "hit": false,
      "t": 169500,
      "d": 150,
      "v": 74
    },
    {
      "midi": 69,
      "hit": false,
      "t": 169650,
      "d": 150,
      "v": 75
    },
    {
      "midi": 62,
      "hit": false,
      "t": 169800,
      "d": 199.21875,
      "v": 100
    },
    {
      "midi": 36,
      "hit": false,
      "t": 169800,
      "d": 300,
      "v": 68
    },
    {
      "midi": 66,
      "hit": false,
      "t": 169999.21875,
      "d": 199.21875,
      "v": 100
    },
    {
      "midi": 44,
      "hit": false,
      "t": 170100,
      "d": 300,
      "v": 80
    },
    {
      "midi": 67,
      "hit": false,
      "t": 170198.4375,
      "d": 201.5625,
      "v": 100
    },
    {
      "midi": 69,
      "hit": false,
      "t": 170400,
      "d": 199.21875,
      "v": 100
    },
    {
      "midi": 49,
      "hit": false,
      "t": 170400,
      "d": 300,
      "v": 89
    },
    {
      "midi": 70,
      "hit": false,
      "t": 170599.21875,
      "d": 199.21875,
      "v": 100
    },
    {
      "midi": 44,
      "hit": false,
      "t": 170700,
      "d": 300,
      "v": 76
    },
    {
      "midi": 72,
      "hit": false,
      "t": 170798.4375,
      "d": 201.5625,
      "v": 100
    },
    {
      "midi": 74,
      "hit": false,
      "t": 171000,
      "d": 300,
      "v": 82
    },
    {
      "midi": 52,
      "hit": false,
      "t": 171000,
      "d": 1200,
      "v": 70
    },
    {
      "midi": 73,
      "hit": false,
      "t": 171300,
      "d": 300,
      "v": 80
    },
    {
      "midi": 72,
      "hit": false,
      "t": 171600,
      "d": 150,
      "v": 88
    },
    {
      "midi": 74,
      "hit": false,
      "t": 171750,
      "d": 150,
      "v": 73
    },
    {
      "midi": 72,
      "hit": false,
      "t": 171900,
      "d": 150,
      "v": 100
    },
    {
      "midi": 70,
      "hit": false,
      "t": 172050,
      "d": 150,
      "v": 100
    },
    {
      "midi": 62,
      "hit": false,
      "t": 172200,
      "d": 1500,
      "v": 66
    },
    {
      "midi": 66,
      "hit": false,
      "t": 172200,
      "d": 1500,
      "v": 66
    },
    {
      "midi": 69,
      "hit": false,
      "t": 172200,
      "d": 1500,
      "v": 66
    },
    {
      "midi": 48,
      "hit": false,
      "t": 172200,
      "d": 2400,
      "v": 70
    },
    {
      "midi": 62,
      "hit": false,
      "t": 173700,
      "d": 300,
      "v": 77
    },
    {
      "midi": 66,
      "hit": false,
      "t": 173700,
      "d": 300,
      "v": 77
    },
    {
      "midi": 69,
      "hit": false,
      "t": 173700,
      "d": 300,
      "v": 77
    },
    {
      "midi": 62,
      "hit": false,
      "t": 174000,
      "d": 300,
      "v": 83
    },
    {
      "midi": 66,
      "hit": false,
      "t": 174000,
      "d": 300,
      "v": 83
    },
    {
      "midi": 70,
      "hit": false,
      "t": 174000,
      "d": 300,
      "v": 83
    },
    {
      "midi": 62,
      "hit": false,
      "t": 174300,
      "d": 300,
      "v": 69
    },
    {
      "midi": 66,
      "hit": false,
      "t": 174300,
      "d": 300,
      "v": 69
    },
    {
      "midi": 69,
      "hit": false,
      "t": 174300,
      "d": 300,
      "v": 69
    },
    {
      "midi": 68,
      "hit": false,
      "t": 174600,
      "d": 600,
      "v": 72
    },
    {
      "midi": 53,
      "hit": false,
      "t": 174600,
      "d": 2400,
      "v": 92
    },
    {
      "midi": 56,
      "hit": false,
      "t": 174600,
      "d": 2400,
      "v": 92
    },
    {
      "midi": 61,
      "hit": false,
      "t": 174600,
      "d": 2400,
      "v": 92
    },
    {
      "midi": 65,
      "hit": false,
      "t": 175200,
      "d": 300,
      "v": 72
    },
    {
      "midi": 68,
      "hit": false,
      "t": 175500,
      "d": 300,
      "v": 83
    },
    {
      "midi": 72,
      "hit": false,
      "t": 175800,
      "d": 600,
      "v": 81
    },
    {
      "midi": 70,
      "hit": false,
      "t": 176400,
      "d": 300,
      "v": 74
    },
    {
      "midi": 68,
      "hit": false,
      "t": 176700,
      "d": 300,
      "v": 70
    },
    {
      "midi": 76,
      "hit": false,
      "t": 177000,
      "d": 600,
      "v": 87
    },
    {
      "midi": 48,
      "hit": false,
      "t": 177000,
      "d": 2400,
      "v": 78
    },
    {
      "midi": 52,
      "hit": false,
      "t": 177000,
      "d": 2400,
      "v": 78
    },
    {
      "midi": 55,
      "hit": false,
      "t": 177000,
      "d": 2400,
      "v": 78
    },
    {
      "midi": 71,
      "hit": false,
      "t": 177600,
      "d": 900,
      "v": 66
    },
    {
      "midi": 67,
      "hit": false,
      "t": 178500,
      "d": 300,
      "v": 70
    },
    {
      "midi": 67,
      "hit": false,
      "t": 178800,
      "d": 300,
      "v": 75
    },
    {
      "midi": 67,
      "hit": false,
      "t": 179100,
      "d": 300,
      "v": 74
    },
    {
      "midi": 68,
      "hit": false,
      "t": 179400,
      "d": 300,
      "v": 76
    },
    {
      "midi": 48,
      "hit": false,
      "t": 179400,
      "d": 600,
      "v": 70
    },
    {
      "midi": 60,
      "hit": false,
      "t": 179700,
      "d": 300,
      "v": 60
    },
    {
      "midi": 61,
      "hit": false,
      "t": 180000,
      "d": 199.21875,
      "v": 100
    },
    {
      "midi": 54,
      "hit": false,
      "t": 180000,
      "d": 1800,
      "v": 71
    },
    {
      "midi": 56,
      "hit": false,
      "t": 180000,
      "d": 1800,
      "v": 71
    },
    {
      "midi": 65,
      "hit": false,
      "t": 180199.21875,
      "d": 199.21875,
      "v": 100
    },
    {
      "midi": 68,
      "hit": false,
      "t": 180398.4375,
      "d": 201.5625,
      "v": 100
    },
    {
      "midi": 72,
      "hit": false,
      "t": 180600,
      "d": 300,
      "v": 79
    },
    {
      "midi": 73,
      "hit": false,
      "t": 180900,
      "d": 300,
      "v": 86
    },
    {
      "midi": 77,
      "hit": false,
      "t": 181200,
      "d": 300,
      "v": 79
    },
    {
      "midi": 80,
      "hit": false,
      "t": 181500,
      "d": 300,
      "v": 88
    },
    {
      "midi": 84,
      "hit": false,
      "t": 181800,
      "d": 1800,
      "v": 100
    },
    {
      "midi": 54,
      "hit": false,
      "t": 181800,
      "d": 2400,
      "v": 84
    },
    {
      "midi": 56,
      "hit": false,
      "t": 181800,
      "d": 2400,
      "v": 84
    },
    {
      "midi": 60,
      "hit": false,
      "t": 181800,
      "d": 2400,
      "v": 84
    },
    {
      "midi": 82,
      "hit": false,
      "t": 183600,
      "d": 300,
      "v": 81
    },
    {
      "midi": 80,
      "hit": false,
      "t": 183900,
      "d": 300,
      "v": 73
    },
    {
      "midi": 63,
      "hit": false,
      "t": 184800,
      "d": 300,
      "v": 69
    },
    {
      "midi": 64,
      "hit": false,
      "t": 185100,
      "d": 300,
      "v": 78
    },
    {
      "midi": 67,
      "hit": false,
      "t": 185400,
      "d": 600,
      "v": 80
    },
    {
      "midi": 75,
      "hit": false,
      "t": 186000,
      "d": 300,
      "v": 66
    },
    {
      "midi": 76,
      "hit": false,
      "t": 186300,
      "d": 300,
      "v": 76
    },
    {
      "midi": 79,
      "hit": false,
      "t": 186600,
      "d": 1200,
      "v": 82
    },
    {
      "midi": 87,
      "hit": false,
      "t": 187800,
      "d": 300,
      "v": 93
    },
    {
      "midi": 60,
      "hit": false,
      "t": 187800,
      "d": 1200,
      "v": 71
    },
    {
      "midi": 64,
      "hit": false,
      "t": 187800,
      "d": 1200,
      "v": 71
    },
    {
      "midi": 67,
      "hit": false,
      "t": 187800,
      "d": 1200,
      "v": 71
    },
    {
      "midi": 72,
      "hit": false,
      "t": 187800,
      "d": 1200,
      "v": 71
    },
    {
      "midi": 88,
      "hit": false,
      "t": 188100,
      "d": 300,
      "v": 82
    },
    {
      "midi": 72,
      "hit": false,
      "t": 188400,
      "d": 600,
      "v": 56
    },
    {
      "midi": 76,
      "hit": false,
      "t": 188400,
      "d": 600,
      "v": 56
    },
    {
      "midi": 79,
      "hit": false,
      "t": 188400,
      "d": 600,
      "v": 56
    }
  ]
}