{
  "jsonPath": "Rock/Spanish Pop Rock/David Bisbal/quiero-perderme-en-tu-cuerpo.json",
  "path": "Rock\\Spanish Pop Rock\\David Bisbal\\Quiero Perderme En Tu Cuerpo.mid",
  "name": "Quiero Perderme En Tu Cuerpo",
  "difficulty": "Advanced",
  "bpm": 63.000129150264755,
  "notes": [
    {
      "midi": 70,
      "hit": false,
      "t": 3809.5160000000005,
      "d": 639.8796406250003,
      "v": 66
    },
    {
      "midi": 70,
      "hit": false,
      "t": 4523.800250000001,
      "d": 567.9551848958336,
      "v": 62
    },
    {
      "midi": 70,
      "hit": false,
      "t": 5238.084500000002,
      "d": 386.9039687499999,
      "v": 62
    },
    {
      "midi": 72,
      "hit": false,
      "t": 5714.274000000001,
      "d": 1480.6517265624998,
      "v": 60
    },
    {
      "midi": 69,
      "hit": false,
      "t": 7619.032000000001,
      "d": 669.6414843750008,
      "v": 73
    },
    {
      "midi": 70,
      "hit": false,
      "t": 8333.316250000002,
      "d": 706.843789062501,
      "v": 64
    },
    {
      "midi": 62,
      "hit": false,
      "t": 9047.600500000002,
      "d": 468.74903906250074,
      "v": 76
    },
    {
      "midi": 69,
      "hit": false,
      "t": 9523.790000000003,
      "d": 714.2842500000006,
      "v": 68
    },
    {
      "midi": 70,
      "hit": false,
      "t": 10238.074250000003,
      "d": 649.8002552083326,
      "v": 56
    },
    {
      "midi": 62,
      "hit": false,
      "t": 10952.358500000002,
      "d": 446.4276562499999,
      "v": 64
    },
    {
      "midi": 65,
      "hit": false,
      "t": 11428.548000000003,
      "d": 644.8399479166674,
      "v": 68
    },
    {
      "midi": 65,
      "hit": false,
      "t": 12142.832250000003,
      "d": 540.6734947916666,
      "v": 76
    },
    {
      "midi": 65,
      "hit": false,
      "t": 12857.116500000004,
      "d": 421.6261197916665,
      "v": 71
    },
    {
      "midi": 67,
      "hit": false,
      "t": 13333.306000000004,
      "d": 1604.659408854166,
      "v": 73
    },
    {
      "midi": 72,
      "hit": false,
      "t": 15238.064000000004,
      "d": 654.7605624999997,
      "v": 79
    },
    {
      "midi": 74,
      "hit": false,
      "t": 15952.348250000003,
      "d": 672.1216380208316,
      "v": 63
    },
    {
      "midi": 67,
      "hit": false,
      "t": 16666.6325,
      "d": 438.98719531250026,
      "v": 62
    },
    {
      "midi": 72,
      "hit": false,
      "t": 17142.822,
      "d": 664.6811770833338,
      "v": 68
    },
    {
      "midi": 74,
      "hit": false,
      "t": 17857.10625,
      "d": 667.1613307291664,
      "v": 68
    },
    {
      "midi": 65,
      "hit": false,
      "t": 18571.3905,
      "d": 443.9475026041655,
      "v": 68
    },
    {
      "midi": 70,
      "hit": false,
      "t": 19047.58,
      "d": 639.8796406250003,
      "v": 66
    },
    {
      "midi": 70,
      "hit": false,
      "t": 19761.864250000002,
      "d": 567.9551848958326,
      "v": 62
    },
    {
      "midi": 70,
      "hit": false,
      "t": 20476.148500000003,
      "d": 386.9039687500008,
      "v": 62
    },
    {
      "midi": 72,
      "hit": false,
      "t": 20952.338000000003,
      "d": 1480.6517265625007,
      "v": 60
    },
    {
      "midi": 69,
      "hit": false,
      "t": 22857.096000000005,
      "d": 669.641484374999,
      "v": 73
    },
    {
      "midi": 70,
      "hit": false,
      "t": 23571.380250000006,
      "d": 706.8437890624991,
      "v": 64
    },
    {
      "midi": 62,
      "hit": false,
      "t": 24285.664500000006,
      "d": 468.7490390624989,
      "v": 76
    },
    {
      "midi": 69,
      "hit": false,
      "t": 24761.854000000007,
      "d": 714.2842500000006,
      "v": 68
    },
    {
      "midi": 70,
      "hit": false,
      "t": 25476.138250000007,
      "d": 649.8002552083344,
      "v": 56
    },
    {
      "midi": 62,
      "hit": false,
      "t": 26190.422500000008,
      "d": 446.42765625000175,
      "v": 64
    },
    {
      "midi": 65,
      "hit": false,
      "t": 26666.61200000001,
      "d": 644.8399479166656,
      "v": 68
    },
    {
      "midi": 65,
      "hit": false,
      "t": 27380.89625000001,
      "d": 540.6734947916666,
      "v": 76
    },
    {
      "midi": 65,
      "hit": false,
      "t": 28095.18050000001,
      "d": 421.6261197916683,
      "v": 71
    },
    {
      "midi": 67,
      "hit": false,
      "t": 28571.37000000001,
      "d": 1604.6594088541679,
      "v": 73
    },
    {
      "midi": 72,
      "hit": false,
      "t": 30476.12800000001,
      "d": 654.7605624999997,
      "v": 79
    },
    {
      "midi": 74,
      "hit": false,
      "t": 31190.412250000012,
      "d": 672.1216380208316,
      "v": 63
    },
    {
      "midi": 67,
      "hit": false,
      "t": 31904.69650000001,
      "d": 438.98719531250026,
      "v": 62
    },
    {
      "midi": 72,
      "hit": false,
      "t": 32380.88600000001,
      "d": 664.6811770833338,
      "v": 68
    },
    {
      "midi": 74,
      "hit": false,
      "t": 33095.17025000001,
      "d": 667.16133072917,
      "v": 68
    },
    {
      "midi": 65,
      "hit": false,
      "t": 33809.454500000014,
      "d": 443.94750260416913,
      "v": 68
    },
    {
      "midi": 70,
      "hit": false,
      "t": 34285.644000000015,
      "d": 639.8796406249967,
      "v": 66
    },
    {
      "midi": 70,
      "hit": false,
      "t": 34999.92825000001,
      "d": 567.9551848958363,
      "v": 62
    },
    {
      "midi": 70,
      "hit": false,
      "t": 35714.212500000016,
      "d": 386.90396874999715,
      "v": 62
    },
    {
      "midi": 72,
      "hit": false,
      "t": 36190.40200000002,
      "d": 1480.6517265625007,
      "v": 60
    },
    {
      "midi": 69,
      "hit": false,
      "t": 38095.16000000002,
      "d": 669.6414843750026,
      "v": 73
    },
    {
      "midi": 70,
      "hit": false,
      "t": 38809.44425000002,
      "d": 706.8437890624991,
      "v": 64
    },
    {
      "midi": 62,
      "hit": false,
      "t": 39523.72850000002,
      "d": 468.74903906250256,
      "v": 76
    },
    {
      "midi": 69,
      "hit": false,
      "t": 39999.91800000002,
      "d": 714.284249999997,
      "v": 68
    },
    {
      "midi": 70,
      "hit": false,
      "t": 40714.20225000002,
      "d": 649.8002552083344,
      "v": 56
    },
    {
      "midi": 62,
      "hit": false,
      "t": 41428.48650000002,
      "d": 446.42765625000175,
      "v": 64
    },
    {
      "midi": 65,
      "hit": false,
      "t": 41904.67600000002,
      "d": 644.8399479166692,
      "v": 68
    },
    {
      "midi": 65,
      "hit": false,
      "t": 42618.960250000026,
      "d": 540.673494791663,
      "v": 76
    },
    {
      "midi": 65,
      "hit": false,
      "t": 43333.24450000002,
      "d": 421.6261197916683,
      "v": 71
    },
    {
      "midi": 67,
      "hit": false,
      "t": 43809.43400000002,
      "d": 1604.6594088541679,
      "v": 73
    },
    {
      "midi": 72,
      "hit": false,
      "t": 45714.192000000025,
      "d": 654.7605624999997,
      "v": 79
    },
    {
      "midi": 74,
      "hit": false,
      "t": 46428.47625000002,
      "d": 672.1216380208352,
      "v": 63
    },
    {
      "midi": 67,
      "hit": false,
      "t": 47142.760500000026,
      "d": 438.9871953124966,
      "v": 62
    },
    {
      "midi": 72,
      "hit": false,
      "t": 47618.95000000002,
      "d": 664.6811770833301,
      "v": 68
    },
    {
      "midi": 74,
      "hit": false,
      "t": 48333.234250000016,
      "d": 667.16133072917,
      "v": 68
    },
    {
      "midi": 65,
      "hit": false,
      "t": 49047.51850000002,
      "d": 443.94750260416913,
      "v": 68
    },
    {
      "midi": 77,
      "hit": false,
      "t": 49523.70800000002,
      "d": 473.7093463541678,
      "v": 64
    },
    {
      "midi": 70,
      "hit": false,
      "t": 49999.89750000002,
      "d": 300.0985911458265,
      "v": 52
    },
    {
      "midi": 77,
      "hit": false,
      "t": 50237.99225000002,
      "d": 491.0704218749961,
      "v": 64
    },
    {
      "midi": 70,
      "hit": false,
      "t": 50714.18175000001,
      "d": 500.99103645833384,
      "v": 50
    },
    {
      "midi": 72,
      "hit": false,
      "t": 51190.37125000001,
      "d": 726.68501822916,
      "v": 64
    },
    {
      "midi": 70,
      "hit": false,
      "t": 51904.65550000001,
      "d": 302.5787447916664,
      "v": 36
    },
    {
      "midi": 72,
      "hit": false,
      "t": 52142.750250000005,
      "d": 493.550575520836,
      "v": 62
    },
    {
      "midi": 77,
      "hit": false,
      "t": 52618.939750000005,
      "d": 590.2765677083371,
      "v": 58
    },
    {
      "midi": 77,
      "hit": false,
      "t": 53333.22400000001,
      "d": 476.1895000000004,
      "v": 56
    },
    {
      "midi": 70,
      "hit": false,
      "t": 53809.41350000001,
      "d": 277.77720833333296,
      "v": 45
    },
    {
      "midi": 77,
      "hit": false,
      "t": 54047.508250000006,
      "d": 488.5902682291635,
      "v": 55
    },
    {
      "midi": 70,
      "hit": false,
      "t": 54523.69775000001,
      "d": 530.7528802083252,
      "v": 55
    },
    {
      "midi": 72,
      "hit": false,
      "t": 54999.88725,
      "d": 386.90396874999715,
      "v": 61
    },
    {
      "midi": 74,
      "hit": false,
      "t": 55714.1715,
      "d": 260.4161328124974,
      "v": 63
    },
    {
      "midi": 75,
      "hit": false,
      "t": 55952.26624999999,
      "d": 463.78873177083733,
      "v": 58
    },
    {
      "midi": 77,
      "hit": false,
      "t": 56428.455749999994,
      "d": 600.1971822916676,
      "v": 58
    },
    {
      "midi": 77,
      "hit": false,
      "t": 57142.74,
      "d": 481.14980729166564,
      "v": 60
    },
    {
      "midi": 70,
      "hit": false,
      "t": 57618.9295,
      "d": 275.2970546874931,
      "v": 46
    },
    {
      "midi": 77,
      "hit": false,
      "t": 57857.024249999995,
      "d": 491.0704218749961,
      "v": 55
    },
    {
      "midi": 70,
      "hit": false,
      "t": 58333.21374999999,
      "d": 441.4673489583365,
      "v": 46
    },
    {
      "midi": 77,
      "hit": false,
      "t": 58809.40324999999,
      "d": 691.9628671875034,
      "v": 66
    },
    {
      "midi": 70,
      "hit": false,
      "t": 59523.68749999999,
      "d": 262.89628645833,
      "v": 46
    },
    {
      "midi": 72,
      "hit": false,
      "t": 59761.78224999999,
      "d": 505.95134374999907,
      "v": 64
    },
    {
      "midi": 74,
      "hit": false,
      "t": 60237.97174999999,
      "d": 736.6056328124978,
      "v": 67
    },
    {
      "midi": 75,
      "hit": false,
      "t": 60952.25599999999,
      "d": 505.95134374999907,
      "v": 47
    },
    {
      "midi": 74,
      "hit": false,
      "t": 61428.44549999999,
      "d": 225.6939817708335,
      "v": 46
    },
    {
      "midi": 75,
      "hit": false,
      "t": 61666.540249999984,
      "d": 515.8719583333368,
      "v": 53
    },
    {
      "midi": 74,
      "hit": false,
      "t": 62142.729749999984,
      "d": 456.3482708333395,
      "v": 63
    },
    {
      "midi": 75,
      "hit": false,
      "t": 62618.91924999999,
      "d": 441.4673489583365,
      "v": 55
    },
    {
      "midi": 74,
      "hit": false,
      "t": 63333.203499999996,
      "d": 248.01536458332703,
      "v": 62
    },
    {
      "midi": 75,
      "hit": false,
      "t": 63571.29824999999,
      "d": 448.9078098958271,
      "v": 55
    },
    {
      "midi": 77,
      "hit": false,
      "t": 64047.487749999986,
      "d": 575.3956458333341,
      "v": 62
    },
    {
      "midi": 77,
      "hit": false,
      "t": 64761.77199999999,
      "d": 510.9116510416643,
      "v": 61
    },
    {
      "midi": 70,
      "hit": false,
      "t": 65237.96149999999,
      "d": 280.2573619791656,
      "v": 46
    },
    {
      "midi": 77,
      "hit": false,
      "t": 65476.05624999999,
      "d": 488.59026822917076,
      "v": 63
    },
    {
      "midi": 70,
      "hit": false,
      "t": 65952.24574999999,
      "d": 525.7925729166745,
      "v": 58
    },
    {
      "midi": 72,
      "hit": false,
      "t": 66428.43525,
      "d": 724.2048645833274,
      "v": 67
    },
    {
      "midi": 70,
      "hit": false,
      "t": 67142.71949999999,
      "d": 319.939820312502,
      "v": 48
    },
    {
      "midi": 72,
      "hit": false,
      "t": 67380.81425,
      "d": 503.4711901041592,
      "v": 60
    },
    {
      "midi": 77,
      "hit": false,
      "t": 67857.00374999999,
      "d": 508.43149739583896,
      "v": 61
    },
    {
      "midi": 77,
      "hit": false,
      "t": 68571.288,
      "d": 503.4711901041592,
      "v": 62
    },
    {
      "midi": 70,
      "hit": false,
      "t": 69047.4775,
      "d": 277.77720833334024,
      "v": 50
    },
    {
      "midi": 77,
      "hit": false,
      "t": 69285.57225,
      "d": 500.99103645833384,
      "v": 63
    },
    {
      "midi": 70,
      "hit": false,
      "t": 69761.76175,
      "d": 510.9116510416643,
      "v": 56
    },
    {
      "midi": 72,
      "hit": false,
      "t": 70237.95125,
      "d": 709.3239427083317,
      "v": 62
    },
    {
      "midi": 74,
      "hit": false,
      "t": 70952.2355,
      "d": 287.6978229166707,
      "v": 61
    },
    {
      "midi": 75,
      "hit": false,
      "t": 71190.33025,
      "d": 528.2727265624999,
      "v": 52
    },
    {
      "midi": 77,
      "hit": false,
      "t": 71666.51974999999,
      "d": 483.6299609375128,
      "v": 64
    },
    {
      "midi": 77,
      "hit": false,
      "t": 72380.804,
      "d": 496.03072916665406,
      "v": 62
    },
    {
      "midi": 70,
      "hit": false,
      "t": 72856.9935,
      "d": 257.9359791666502,
      "v": 46
    },
    {
      "midi": 77,
      "hit": false,
      "t": 73095.08824999999,
      "d": 513.3918046874896,
      "v": 58
    },
    {
      "midi": 70,
      "hit": false,
      "t": 73571.27774999998,
      "d": 505.95134374999907,
      "v": 55
    },
    {
      "midi": 77,
      "hit": false,
      "t": 74047.46724999997,
      "d": 481.1498072916729,
      "v": 63
    },
    {
      "midi": 70,
      "hit": false,
      "t": 74761.75149999998,
      "d": 275.29705468750035,
      "v": 45
    },
    {
      "midi": 72,
      "hit": false,
      "t": 74999.84624999999,
      "d": 486.1101145833236,
      "v": 63
    },
    {
      "midi": 74,
      "hit": false,
      "t": 75476.03574999998,
      "d": 741.565940104163,
      "v": 71
    },
    {
      "midi": 75,
      "hit": false,
      "t": 76190.31999999998,
      "d": 491.0704218749888,
      "v": 52
    },
    {
      "midi": 74,
      "hit": false,
      "t": 76666.50949999997,
      "d": 270.33674739582057,
      "v": 63
    },
    {
      "midi": 75,
      "hit": false,
      "t": 76904.60424999996,
      "d": 486.1101145833236,
      "v": 52
    },
    {
      "midi": 74,
      "hit": false,
      "t": 77380.79374999995,
      "d": 488.5902682291635,
      "v": 63
    },
    {
      "midi": 75,
      "hit": false,
      "t": 77856.98324999995,
      "d": 711.8040963541716,
      "v": 48
    },
    {
      "midi": 74,
      "hit": false,
      "t": 78571.26749999996,
      "d": 262.89628645833,
      "v": 57
    },
    {
      "midi": 75,
      "hit": false,
      "t": 78809.36224999996,
      "d": 533.2330338541651,
      "v": 55
    },
    {
      "midi": 77,
      "hit": false,
      "t": 79285.55174999996,
      "d": 642.3597942708438,
      "v": 64
    },
    {
      "midi": 74,
      "hit": false,
      "t": 82380.78349999996,
      "d": 255.45582552083943,
      "v": 82
    },
    {
      "midi": 75,
      "hit": false,
      "t": 82618.87824999997,
      "d": 446.42765625000175,
      "v": 68
    },
    {
      "midi": 77,
      "hit": false,
      "t": 83095.06774999997,
      "d": 736.6056328124978,
      "v": 73
    },
    {
      "midi": 72,
      "hit": false,
      "t": 83809.35199999997,
      "d": 476.1895000000077,
      "v": 62
    },
    {
      "midi": 70,
      "hit": false,
      "t": 84285.54149999998,
      "d": 143.84891145833535,
      "v": 60
    },
    {
      "midi": 70,
      "hit": false,
      "t": 84523.63624999998,
      "d": 1215.2752864583308,
      "v": 64
    },
    {
      "midi": 74,
      "hit": false,
      "t": 86190.29949999998,
      "d": 290.1779765625106,
      "v": 79
    },
    {
      "midi": 75,
      "hit": false,
      "t": 86428.39424999998,
      "d": 446.42765625000175,
      "v": 66
    },
    {
      "midi": 77,
      "hit": false,
      "t": 87618.86799999999,
      "d": 215.77336718750303,
      "v": 68
    },
    {
      "midi": 70,
      "hit": false,
      "t": 88095.0575,
      "d": 297.61843750000116,
      "v": 67
    },
    {
      "midi": 77,
      "hit": false,
      "t": 88333.15225,
      "d": 533.2330338541651,
      "v": 66
    },
    {
      "midi": 70,
      "hit": false,
      "t": 88809.34174999999,
      "d": 486.11011458333815,
      "v": 76
    },
    {
      "midi": 72,
      "hit": false,
      "t": 89285.53125,
      "d": 634.9193333333242,
      "v": 67
    },
    {
      "midi": 74,
      "hit": false,
      "t": 89999.8155,
      "d": 223.2138281249936,
      "v": 73
    },
    {
      "midi": 75,
      "hit": false,
      "t": 90237.91024999999,
      "d": 463.78873177083733,
      "v": 69
    },
    {
      "midi": 77,
      "hit": false,
      "t": 90714.09975,
      "d": 580.3559531250066,
      "v": 64
    },
    {
      "midi": 77,
      "hit": false,
      "t": 91428.384,
      "d": 510.9116510416643,
      "v": 66
    },
    {
      "midi": 70,
      "hit": false,
      "t": 91904.5735,
      "d": 292.65813020833593,
      "v": 71
    },
    {
      "midi": 77,
      "hit": false,
      "t": 92142.66825,
      "d": 486.1101145833236,
      "v": 66
    },
    {
      "midi": 70,
      "hit": false,
      "t": 92618.85775,
      "d": 404.26504427082546,
      "v": 79
    },
    {
      "midi": 56,
      "hit": false,
      "t": 93047.92433072915,
      "d": 1996.5236848958593,
      "v": 50
    },
    {
      "midi": 63,
      "hit": false,
      "t": 93149.61063020832,
      "d": 1870.0358489583305,
      "v": 66
    },
    {
      "midi": 70,
      "hit": false,
      "t": 93219.05493229165,
      "d": 1803.0717005208426,
      "v": 63
    },
    {
      "midi": 66,
      "hit": false,
      "t": 93228.97554687498,
      "d": 1783.230471354167,
      "v": 62
    },
    {
      "midi": 73,
      "hit": false,
      "t": 93305.86030989581,
      "d": 1718.746476562519,
      "v": 79
    },
    {
      "midi": 78,
      "hit": false,
      "t": 93340.58246093748,
      "d": 1696.4250937500183,
      "v": 62
    },
    {
      "midi": 61,
      "hit": false,
      "t": 95237.90000000001,
      "d": 1723.7067838541698,
      "v": 68
    },
    {
      "midi": 37,
      "hit": false,
      "t": 95237.90000000001,
      "d": 1743.5480130208307,
      "v": 69
    },
    {
      "midi": 49,
      "hit": false,
      "t": 95237.90000000001,
      "d": 1746.0281666666706,
      "v": 82
    },
    {
      "midi": 56,
      "hit": false,
      "t": 95237.90000000001,
      "d": 1748.5083203125105,
      "v": 91
    },
    {
      "midi": 63,
      "hit": false,
      "t": 95237.90000000001,
      "d": 1748.5083203125105,
      "v": 67
    },
    {
      "midi": 65,
      "hit": false,
      "t": 95237.90000000001,
      "d": 1760.9090885416808,
      "v": 76
    },
    {
      "midi": 46,
      "hit": false,
      "t": 99047.41600000003,
      "d": 828.3713177083409,
      "v": 82
    },
    {
      "midi": 61,
      "hit": false,
      "t": 99047.41600000003,
      "d": 853.1728541666671,
      "v": 67
    },
    {
      "midi": 56,
      "hit": false,
      "t": 99047.41600000003,
      "d": 858.1331614583323,
      "v": 73
    },
    {
      "midi": 60,
      "hit": false,
      "t": 99047.41600000003,
      "d": 860.6133151041722,
      "v": 73
    },
    {
      "midi": 65,
      "hit": false,
      "t": 99047.41600000003,
      "d": 885.4148515624984,
      "v": 71
    },
    {
      "midi": 42,
      "hit": false,
      "t": 102856.93200000002,
      "d": 585.3162604166573,
      "v": 87
    },
    {
      "midi": 58,
      "hit": false,
      "t": 102856.93200000002,
      "d": 610.1177968749835,
      "v": 68
    },
    {
      "midi": 54,
      "hit": false,
      "t": 102856.93200000002,
      "d": 622.5185651041538,
      "v": 69
    },
    {
      "midi": 56,
      "hit": false,
      "t": 102856.93200000002,
      "d": 624.9987187499937,
      "v": 67
    },
    {
      "midi": 61,
      "hit": false,
      "t": 102856.93200000002,
      "d": 637.3994869791641,
      "v": 64
    },
    {
      "midi": 34,
      "hit": false,
      "t": 106666.44800000002,
      "d": 431.54673437500605,
      "v": 66
    },
    {
      "midi": 46,
      "hit": false,
      "t": 106666.44800000002,
      "d": 458.8284244791721,
      "v": 66
    },
    {
      "midi": 58,
      "hit": false,
      "t": 106666.44800000002,
      "d": 458.8284244791721,
      "v": 71
    },
    {
      "midi": 61,
      "hit": false,
      "t": 106666.44800000002,
      "d": 458.8284244791721,
      "v": 68
    },
    {
      "midi": 65,
      "hit": false,
      "t": 106666.44800000002,
      "d": 473.7093463541678,
      "v": 62
    },
    {
      "midi": 63,
      "hit": false,
      "t": 106666.44800000002,
      "d": 496.0307291666686,
      "v": 63
    },
    {
      "midi": 37,
      "hit": false,
      "t": 110475.96400000002,
      "d": 1741.0678593749908,
      "v": 68
    },
    {
      "midi": 49,
      "hit": false,
      "t": 110475.96400000002,
      "d": 1750.9884739583213,
      "v": 66
    },
    {
      "midi": 56,
      "hit": false,
      "t": 110475.96400000002,
      "d": 1755.9487812499865,
      "v": 91
    },
    {
      "midi": 65,
      "hit": false,
      "t": 110475.96400000002,
      "d": 1760.9090885416517,
      "v": 73
    },
    {
      "midi": 63,
      "hit": false,
      "t": 110475.96400000002,
      "d": 1775.7900104166474,
      "v": 63
    },
    {
      "midi": 46,
      "hit": false,
      "t": 114285.48,
      "d": 895.3354661458288,
      "v": 91
    },
    {
      "midi": 60,
      "hit": false,
      "t": 114285.48,
      "d": 912.6965416666644,
      "v": 82
    },
    {
      "midi": 61,
      "hit": false,
      "t": 114285.48,
      "d": 915.1766953125043,
      "v": 68
    },
    {
      "midi": 56,
      "hit": false,
      "t": 114285.48,
      "d": 925.0973098958348,
      "v": 82
    },
    {
      "midi": 65,
      "hit": false,
      "t": 114285.48,
      "d": 925.0973098958348,
      "v": 82
    },
    {
      "midi": 42,
      "hit": false,
      "t": 118094.996,
      "d": 684.522406249991,
      "v": 82
    },
    {
      "midi": 54,
      "hit": false,
      "t": 118094.996,
      "d": 709.3239427083172,
      "v": 69
    },
    {
      "midi": 58,
      "hit": false,
      "t": 118094.996,
      "d": 714.2842499999824,
      "v": 66
    },
    {
      "midi": 56,
      "hit": false,
      "t": 118094.996,
      "d": 719.2445572916477,
      "v": 67
    },
    {
      "midi": 61,
      "hit": false,
      "t": 118094.996,
      "d": 719.2445572916477,
      "v": 66
    },
    {
      "midi": 66,
      "hit": false,
      "t": 121904.51199999997,
      "d": 979.6606901041669,
      "v": 68
    },
    {
      "midi": 61,
      "hit": false,
      "t": 121904.51199999997,
      "d": 984.6209973958321,
      "v": 91
    },
    {
      "midi": 58,
      "hit": false,
      "t": 121904.51199999997,
      "d": 1006.9423802083329,
      "v": 95
    },
    {
      "midi": 44,
      "hit": false,
      "t": 121904.51199999997,
      "d": 1088.787450520831,
      "v": 99
    },
    {
      "midi": 54,
      "hit": false,
      "t": 123809.26999999997,
      "d": 553.0742630208406,
      "v": 79
    },
    {
      "midi": 44,
      "hit": false,
      "t": 123809.26999999997,
      "d": 562.994877604171,
      "v": 71
    },
    {
      "midi": 61,
      "hit": false,
      "t": 123809.26999999997,
      "d": 567.9551848958363,
      "v": 68
    },
    {
      "midi": 58,
      "hit": false,
      "t": 123809.26999999997,
      "d": 575.3956458333414,
      "v": 67
    },
    {
      "midi": 49,
      "hit": false,
      "t": 125714.02799999998,
      "d": 322.4199739583273,
      "v": 68
    },
    {
      "midi": 37,
      "hit": false,
      "t": 125714.02799999998,
      "d": 451.3879635416524,
      "v": 67
    },
    {
      "midi": 56,
      "hit": false,
      "t": 125714.02799999998,
      "d": 461.3085781249829,
      "v": 82
    },
    {
      "midi": 65,
      "hit": false,
      "t": 125714.02799999998,
      "d": 491.0704218749743,
      "v": 73
    },
    {
      "midi": 61,
      "hit": false,
      "t": 125714.02799999998,
      "d": 523.3124192708055,
      "v": 71
    },
    {
      "midi": 49,
      "hit": false,
      "t": 126190.21749999996,
      "d": 466.2688854166481,
      "v": 73
    },
    {
      "midi": 56,
      "hit": false,
      "t": 126428.31224999994,
      "d": 131.448143229165,
      "v": 64
    },
    {
      "midi": 56,
      "hit": false,
      "t": 126666.40699999993,
      "d": 52.08322656250675,
      "v": 14
    },
    {
      "midi": 61,
      "hit": false,
      "t": 126666.40699999993,
      "d": 124.00768229167443,
      "v": 43
    },
    {
      "midi": 56,
      "hit": false,
      "t": 126904.50174999994,
      "d": 250.4955182291742,
      "v": 84
    },
    {
      "midi": 65,
      "hit": false,
      "t": 126904.50174999994,
      "d": 270.3367473958351,
      "v": 67
    },
    {
      "midi": 61,
      "hit": false,
      "t": 126904.50174999994,
      "d": 310.0192057291715,
      "v": 67
    },
    {
      "midi": 49,
      "hit": false,
      "t": 127142.59649999994,
      "d": 131.448143229165,
      "v": 58
    },
    {
      "midi": 56,
      "hit": false,
      "t": 127380.69124999995,
      "d": 153.7695260416658,
      "v": 52
    },
    {
      "midi": 48,
      "hit": false,
      "t": 127618.78599999995,
      "d": 233.13444270832406,
      "v": 67
    },
    {
      "midi": 56,
      "hit": false,
      "t": 127618.78599999995,
      "d": 496.03072916665406,
      "v": 82
    },
    {
      "midi": 63,
      "hit": false,
      "t": 127618.78599999995,
      "d": 530.7528802083252,
      "v": 63
    },
    {
      "midi": 60,
      "hit": false,
      "t": 127618.78599999995,
      "d": 582.836106770832,
      "v": 76
    },
    {
      "midi": 48,
      "hit": false,
      "t": 128094.97549999994,
      "d": 741.5659401041776,
      "v": 68
    },
    {
      "midi": 56,
      "hit": false,
      "t": 128333.07024999995,
      "d": 138.88860416667012,
      "v": 56
    },
    {
      "midi": 60,
      "hit": false,
      "t": 128571.16499999995,
      "d": 104.16645312499895,
      "v": 51
    },
    {
      "midi": 63,
      "hit": false,
      "t": 128809.25974999995,
      "d": 230.65428906249872,
      "v": 62
    },
    {
      "midi": 60,
      "hit": false,
      "t": 128809.25974999995,
      "d": 238.09475000000384,
      "v": 69
    },
    {
      "midi": 56,
      "hit": false,
      "t": 128809.25974999995,
      "d": 248.0153645833343,
      "v": 84
    },
    {
      "midi": 48,
      "hit": false,
      "t": 129047.35449999996,
      "d": 168.6504479166615,
      "v": 62
    },
    {
      "midi": 58,
      "hit": false,
      "t": 129285.44924999995,
      "d": 104.16645312499895,
      "v": 24
    },
    {
      "midi": 46,
      "hit": false,
      "t": 129523.54399999995,
      "d": 250.4955182291742,
      "v": 71
    },
    {
      "midi": 65,
      "hit": false,
      "t": 129523.54399999995,
      "d": 478.6696536458476,
      "v": 67
    },
    {
      "midi": 58,
      "hit": false,
      "t": 129523.54399999995,
      "d": 491.0704218750179,
      "v": 76
    },
    {
      "midi": 61,
      "hit": false,
      "t": 129523.54399999995,
      "d": 513.3918046875187,
      "v": 67
    },
    {
      "midi": 46,
      "hit": false,
      "t": 129999.73349999996,
      "d": 471.22919270834245,
      "v": 62
    },
    {
      "midi": 58,
      "hit": false,
      "t": 130237.82824999996,
      "d": 131.448143229165,
      "v": 53
    },
    {
      "midi": 58,
      "hit": false,
      "t": 130475.92299999997,
      "d": 131.448143229165,
      "v": 55
    },
    {
      "midi": 61,
      "hit": false,
      "t": 130475.92299999997,
      "d": 138.88860416667012,
      "v": 52
    },
    {
      "midi": 65,
      "hit": false,
      "t": 130714.01774999997,
      "d": 287.6978229166707,
      "v": 69
    },
    {
      "midi": 58,
      "hit": false,
      "t": 130714.01774999997,
      "d": 310.0192057291715,
      "v": 84
    },
    {
      "midi": 61,
      "hit": false,
      "t": 130714.01774999997,
      "d": 329.86043489583244,
      "v": 69
    },
    {
      "midi": 46,
      "hit": false,
      "t": 130952.11249999997,
      "d": 183.53136979167175,
      "v": 47
    },
    {
      "midi": 56,
      "hit": false,
      "t": 131190.20724999998,
      "d": 69.44430208334234,
      "v": 8
    },
    {
      "midi": 44,
      "hit": false,
      "t": 131428.302,
      "d": 168.65044791664695,
      "v": 68
    },
    {
      "midi": 56,
      "hit": false,
      "t": 131428.302,
      "d": 515.8719583333004,
      "v": 82
    },
    {
      "midi": 65,
      "hit": false,
      "t": 131428.302,
      "d": 515.8719583333004,
      "v": 69
    },
    {
      "midi": 61,
      "hit": false,
      "t": 131428.302,
      "d": 565.4750312499527,
      "v": 64
    },
    {
      "midi": 44,
      "hit": false,
      "t": 131904.49149999997,
      "d": 617.5582578124304,
      "v": 62
    },
    {
      "midi": 56,
      "hit": false,
      "t": 132142.58624999993,
      "d": 153.7695260416658,
      "v": 56
    },
    {
      "midi": 56,
      "hit": false,
      "t": 132380.68099999992,
      "d": 94.24583854165394,
      "v": 41
    },
    {
      "midi": 61,
      "hit": false,
      "t": 132380.68099999992,
      "d": 116.5672213541402,
      "v": 51
    },
    {
      "midi": 56,
      "hit": false,
      "t": 132618.7757499999,
      "d": 228.17413541665883,
      "v": 82
    },
    {
      "midi": 65,
      "hit": false,
      "t": 132618.7757499999,
      "d": 245.5352109374944,
      "v": 68
    },
    {
      "midi": 61,
      "hit": false,
      "t": 132618.7757499999,
      "d": 260.41613281250466,
      "v": 64
    },
    {
      "midi": 44,
      "hit": false,
      "t": 132856.8704999999,
      "d": 94.24583854168304,
      "v": 47
    },
    {
      "midi": 42,
      "hit": false,
      "t": 133333.0599999999,
      "d": 1334.32266145834,
      "v": 60
    },
    {
      "midi": 54,
      "hit": false,
      "t": 133571.15474999993,
      "d": 587.7964140624681,
      "v": 82
    },
    {
      "midi": 58,
      "hit": false,
      "t": 133809.24949999992,
      "d": 181.05121614583186,
      "v": 79
    },
    {
      "midi": 58,
      "hit": false,
      "t": 134047.3442499999,
      "d": 317.4596666666621,
      "v": 63
    },
    {
      "midi": 66,
      "hit": false,
      "t": 134047.3442499999,
      "d": 324.9001276041672,
      "v": 57
    },
    {
      "midi": 61,
      "hit": false,
      "t": 134047.3442499999,
      "d": 384.4238151041791,
      "v": 73
    },
    {
      "midi": 54,
      "hit": false,
      "t": 134285.4389999999,
      "d": 290.17797656252515,
      "v": 64
    },
    {
      "midi": 58,
      "hit": false,
      "t": 134523.53374999992,
      "d": 225.6939817708335,
      "v": 73
    },
    {
      "midi": 61,
      "hit": false,
      "t": 134523.53374999992,
      "d": 248.01536458331975,
      "v": 64
    },
    {
      "midi": 66,
      "hit": false,
      "t": 134523.53374999992,
      "d": 257.9359791666502,
      "v": 62
    },
    {
      "midi": 42,
      "hit": false,
      "t": 134761.6284999999,
      "d": 81.84507031249814,
      "v": 9
    },
    {
      "midi": 54,
      "hit": false,
      "t": 134761.6284999999,
      "d": 121.52752864581998,
      "v": 45
    },
    {
      "midi": 61,
      "hit": false,
      "t": 135237.81799999988,
      "d": 523.3124192708347,
      "v": 76
    },
    {
      "midi": 68,
      "hit": false,
      "t": 135237.81799999988,
      "d": 543.1536484374956,
      "v": 66
    },
    {
      "midi": 65,
      "hit": false,
      "t": 135237.81799999988,
      "d": 567.9551848958363,
      "v": 71
    },
    {
      "midi": 41,
      "hit": false,
      "t": 135237.81799999988,
      "d": 1254.9577447916672,
      "v": 58
    },
    {
      "midi": 53,
      "hit": false,
      "t": 135714.00749999986,
      "d": 756.4468619792024,
      "v": 67
    },
    {
      "midi": 61,
      "hit": false,
      "t": 135952.10224999988,
      "d": 156.24967968749115,
      "v": 62
    },
    {
      "midi": 65,
      "hit": false,
      "t": 136190.19699999987,
      "d": 133.9282968750049,
      "v": 55
    },
    {
      "midi": 65,
      "hit": false,
      "t": 136428.2917499999,
      "d": 235.61459635416395,
      "v": 69
    },
    {
      "midi": 68,
      "hit": false,
      "t": 136428.2917499999,
      "d": 260.41613281247555,
      "v": 66
    },
    {
      "midi": 61,
      "hit": false,
      "t": 136428.2917499999,
      "d": 280.2573619791365,
      "v": 84
    },
    {
      "midi": 41,
      "hit": false,
      "t": 136666.38649999988,
      "d": 84.32522395832348,
      "v": 57
    },
    {
      "midi": 58,
      "hit": false,
      "t": 136904.48124999987,
      "d": 183.5313697916572,
      "v": 33
    },
    {
      "midi": 58,
      "hit": false,
      "t": 137142.57599999986,
      "d": 471.2291927083279,
      "v": 76
    },
    {
      "midi": 66,
      "hit": false,
      "t": 137142.57599999986,
      "d": 493.55057552084327,
      "v": 58
    },
    {
      "midi": 63,
      "hit": false,
      "t": 137142.57599999986,
      "d": 525.7925729166891,
      "v": 63
    },
    {
      "midi": 61,
      "hit": false,
      "t": 137142.57599999986,
      "d": 538.1933411458449,
      "v": 64
    },
    {
      "midi": 39,
      "hit": false,
      "t": 137142.57599999986,
      "d": 1329.3623541666893,
      "v": 56
    },
    {
      "midi": 51,
      "hit": false,
      "t": 137618.76549999986,
      "d": 828.3713177083409,
      "v": 71
    },
    {
      "midi": 58,
      "hit": false,
      "t": 137856.86024999988,
      "d": 163.69014062499627,
      "v": 64
    },
    {
      "midi": 61,
      "hit": false,
      "t": 138094.95499999987,
      "d": 128.9679895833251,
      "v": 45
    },
    {
      "midi": 58,
      "hit": false,
      "t": 138333.04974999986,
      "d": 332.34058854167233,
      "v": 82
    },
    {
      "midi": 63,
      "hit": false,
      "t": 138333.04974999986,
      "d": 349.7016640625079,
      "v": 69
    },
    {
      "midi": 66,
      "hit": false,
      "t": 138333.04974999986,
      "d": 359.6222786458384,
      "v": 60
    },
    {
      "midi": 61,
      "hit": false,
      "t": 138333.04974999986,
      "d": 369.54289322916884,
      "v": 79
    },
    {
      "midi": 51,
      "hit": false,
      "t": 138571.14449999988,
      "d": 171.1306015624723,
      "v": 55
    },
    {
      "midi": 56,
      "hit": false,
      "t": 138809.23924999984,
      "d": 126.48783593749977,
      "v": 52
    },
    {
      "midi": 44,
      "hit": false,
      "t": 139047.33399999983,
      "d": 119.04737499999464,
      "v": 56
    },
    {
      "midi": 56,
      "hit": false,
      "t": 139047.33399999983,
      "d": 339.78104947914835,
      "v": 71
    },
    {
      "midi": 68,
      "hit": false,
      "t": 139047.33399999983,
      "d": 349.7016640624788,
      "v": 68
    },
    {
      "midi": 63,
      "hit": false,
      "t": 139047.33399999983,
      "d": 438.9871953124821,
      "v": 63
    },
    {
      "midi": 61,
      "hit": false,
      "t": 139047.33399999983,
      "d": 446.4276562499872,
      "v": 64
    },
    {
      "midi": 44,
      "hit": false,
      "t": 139285.42874999982,
      "d": 771.3277838541253,
      "v": 68
    },
    {
      "midi": 56,
      "hit": false,
      "t": 139523.5234999998,
      "d": 121.52752864581998,
      "v": 69
    },
    {
      "midi": 56,
      "hit": false,
      "t": 139761.6182499998,
      "d": 69.44430208334234,
      "v": 45
    },
    {
      "midi": 61,
      "hit": false,
      "t": 139761.6182499998,
      "d": 163.69014062499627,
      "v": 55
    },
    {
      "midi": 56,
      "hit": false,
      "t": 139999.71299999979,
      "d": 148.80921874998603,
      "v": 60
    },
    {
      "midi": 44,
      "hit": false,
      "t": 140237.80774999977,
      "d": 71.92445572916768,
      "v": 11
    },
    {
      "midi": 63,
      "hit": false,
      "t": 140237.80774999977,
      "d": 183.5313697916572,
      "v": 64
    },
    {
      "midi": 68,
      "hit": false,
      "t": 140237.80774999977,
      "d": 183.5313697916572,
      "v": 67
    },
    {
      "midi": 56,
      "hit": false,
      "t": 140237.80774999977,
      "d": 220.7336744791537,
      "v": 79
    },
    {
      "midi": 61,
      "hit": false,
      "t": 140237.80774999977,
      "d": 220.7336744791537,
      "v": 64
    },
    {
      "midi": 44,
      "hit": false,
      "t": 140475.90249999976,
      "d": 116.5672213541693,
      "v": 46
    },
    {
      "midi": 56,
      "hit": false,
      "t": 140713.99724999975,
      "d": 133.9282968750049,
      "v": 5
    },
    {
      "midi": 49,
      "hit": false,
      "t": 140952.09199999977,
      "d": 205.85275260417257,
      "v": 67
    },
    {
      "midi": 65,
      "hit": false,
      "t": 140952.09199999977,
      "d": 446.4276562499872,
      "v": 76
    },
    {
      "midi": 56,
      "hit": false,
      "t": 140952.09199999977,
      "d": 453.8681171874923,
      "v": 91
    },
    {
      "midi": 61,
      "hit": false,
      "t": 140952.09199999977,
      "d": 553.074263020826,
      "v": 76
    },
    {
      "midi": 37,
      "hit": false,
      "t": 140952.09199999977,
      "d": 1165.672213541664,
      "v": 67
    },
    {
      "midi": 49,
      "hit": false,
      "t": 141428.28149999975,
      "d": 731.6453255208617,
      "v": 71
    },
    {
      "midi": 56,
      "hit": false,
      "t": 141666.37624999977,
      "d": 146.3290651041607,
      "v": 61
    },
    {
      "midi": 56,
      "hit": false,
      "t": 141904.47099999976,
      "d": 34.72215104167117,
      "v": 11
    },
    {
      "midi": 61,
      "hit": false,
      "t": 141904.47099999976,
      "d": 131.44814322917955,
      "v": 50
    },
    {
      "midi": 56,
      "hit": false,
      "t": 142142.56574999978,
      "d": 255.45582552082487,
      "v": 91
    },
    {
      "midi": 65,
      "hit": false,
      "t": 142142.56574999978,
      "d": 260.41613281250466,
      "v": 79
    },
    {
      "midi": 61,
      "hit": false,
      "t": 142142.56574999978,
      "d": 359.6222786458384,
      "v": 79
    },
    {
      "midi": 49,
      "hit": false,
      "t": 142380.66049999977,
      "d": 114.08706770834397,
      "v": 43
    },
    {
      "midi": 37,
      "hit": false,
      "t": 142380.66049999977,
      "d": 121.52752864584909,
      "v": 45
    },
    {
      "midi": 56,
      "hit": false,
      "t": 142618.75524999978,
      "d": 161.20998697917094,
      "v": 52
    },
    {
      "midi": 48,
      "hit": false,
      "t": 142856.8499999998,
      "d": 52.08322656250675,
      "v": 26
    },
    {
      "midi": 56,
      "hit": false,
      "t": 142856.8499999998,
      "d": 540.6734947916702,
      "v": 71
    },
    {
      "midi": 63,
      "hit": false,
      "t": 142856.8499999998,
      "d": 543.1536484374956,
      "v": 60
    },
    {
      "midi": 60,
      "hit": false,
      "t": 142856.8499999998,
      "d": 595.2368750000023,
      "v": 68
    },
    {
      "midi": 36,
      "hit": false,
      "t": 142856.8499999998,
      "d": 1369.0448125000112,
      "v": 62
    },
    {
      "midi": 48,
      "hit": false,
      "t": 143333.0394999998,
      "d": 766.3674765625037,
      "v": 71
    },
    {
      "midi": 56,
      "hit": false,
      "t": 143571.1342499998,
      "d": 161.20998697917094,
      "v": 60
    },
    {
      "midi": 60,
      "hit": false,
      "t": 143809.22899999982,
      "d": 126.48783593749977,
      "v": 46
    },
    {
      "midi": 60,
      "hit": false,
      "t": 144047.3237499998,
      "d": 252.97567187502864,
      "v": 69
    },
    {
      "midi": 56,
      "hit": false,
      "t": 144047.3237499998,
      "d": 260.41613281253376,
      "v": 82
    },
    {
      "midi": 63,
      "hit": false,
      "t": 144047.3237499998,
      "d": 275.297054687544,
      "v": 63
    },
    {
      "midi": 48,
      "hit": false,
      "t": 144285.41849999983,
      "d": 193.45198437501676,
      "v": 62
    },
    {
      "midi": 58,
      "hit": false,
      "t": 144523.51324999984,
      "d": 141.36875781251,
      "v": 32
    },
    {
      "midi": 46,
      "hit": false,
      "t": 144761.60799999986,
      "d": 238.0947499999893,
      "v": 76
    },
    {
      "midi": 65,
      "hit": false,
      "t": 144761.60799999986,
      "d": 446.4276562499872,
      "v": 71
    },
    {
      "midi": 58,
      "hit": false,
      "t": 144761.60799999986,
      "d": 481.14980729165836,
      "v": 82
    },
    {
      "midi": 61,
      "hit": false,
      "t": 144761.60799999986,
      "d": 513.3918046875042,
      "v": 71
    },
    {
      "midi": 46,
      "hit": false,
      "t": 145237.79749999984,
      "d": 739.0857864583668,
      "v": 71
    },
    {
      "midi": 58,
      "hit": false,
      "t": 145475.89224999986,
      "d": 136.40845052083023,
      "v": 52
    },
    {
      "midi": 58,
      "hit": false,
      "t": 145713.98699999985,
      "d": 96.72599218750838,
      "v": 34
    },
    {
      "midi": 61,
      "hit": false,
      "t": 145713.98699999985,
      "d": 114.08706770834397,
      "v": 48
    },
    {
      "midi": 65,
      "hit": false,
      "t": 145952.08174999987,
      "d": 305.0588984375063,
      "v": 76
    },
    {
      "midi": 58,
      "hit": false,
      "t": 145952.08174999987,
      "d": 379.4635078124993,
      "v": 87
    },
    {
      "midi": 61,
      "hit": false,
      "t": 145952.08174999987,
      "d": 396.8245833333349,
      "v": 73
    },
    {
      "midi": 46,
      "hit": false,
      "t": 146190.17649999988,
      "d": 389.38412239582976,
      "v": 64
    },
    {
      "midi": 44,
      "hit": false,
      "t": 146666.3659999999,
      "d": 193.45198437501676,
      "v": 63
    },
    {
      "midi": 65,
      "hit": false,
      "t": 146666.3659999999,
      "d": 515.8719583333295,
      "v": 67
    },
    {
      "midi": 56,
      "hit": false,
      "t": 146666.3659999999,
      "d": 520.8322656250093,
      "v": 82
    },
    {
      "midi": 61,
      "hit": false,
      "t": 146666.3659999999,
      "d": 587.7964140624972,
      "v": 64
    },
    {
      "midi": 44,
      "hit": false,
      "t": 147142.5554999999,
      "d": 669.6414843749662,
      "v": 68
    },
    {
      "midi": 56,
      "hit": false,
      "t": 147380.6502499999,
      "d": 126.48783593749977,
      "v": 64
    },
    {
      "midi": 56,
      "hit": false,
      "t": 147618.74499999988,
      "d": 84.32522395832348,
      "v": 27
    },
    {
      "midi": 61,
      "hit": false,
      "t": 147618.74499999988,
      "d": 133.92829687497579,
      "v": 55
    },
    {
      "midi": 65,
      "hit": false,
      "t": 147856.83974999987,
      "d": 208.3329062499979,
      "v": 63
    },
    {
      "midi": 56,
      "hit": false,
      "t": 147856.83974999987,
      "d": 230.65428906248417,
      "v": 82
    },
    {
      "midi": 61,
      "hit": false,
      "t": 147856.83974999987,
      "d": 275.2970546874858,
      "v": 64
    },
    {
      "midi": 44,
      "hit": false,
      "t": 148094.93449999986,
      "d": 133.9282968750049,
      "v": 66
    },
    {
      "midi": 58,
      "hit": false,
      "t": 148333.02924999988,
      "d": 133.9282968750049,
      "v": 37
    },
    {
      "midi": 42,
      "hit": false,
      "t": 148571.1239999999,
      "d": 248.01536458331975,
      "v": 69
    },
    {
      "midi": 58,
      "hit": false,
      "t": 148571.1239999999,
      "d": 505.95134374999907,
      "v": 73
    },
    {
      "midi": 66,
      "hit": false,
      "t": 148571.1239999999,
      "d": 555.5544166666514,
      "v": 60
    },
    {
      "midi": 61,
      "hit": false,
      "t": 148571.1239999999,
      "d": 585.3162604166428,
      "v": 67
    },
    {
      "midi": 42,
      "hit": false,
      "t": 149047.3134999999,
      "d": 689.4827135416272,
      "v": 62
    },
    {
      "midi": 58,
      "hit": false,
      "t": 149285.40824999986,
      "d": 133.9282968750049,
      "v": 56
    },
    {
      "midi": 61,
      "hit": false,
      "t": 149523.50299999988,
      "d": 119.04737499999464,
      "v": 47
    },
    {
      "midi": 58,
      "hit": false,
      "t": 149761.59774999987,
      "d": 218.25352083332837,
      "v": 79
    },
    {
      "midi": 61,
      "hit": false,
      "t": 149761.59774999987,
      "d": 230.65428906248417,
      "v": 76
    },
    {
      "midi": 66,
      "hit": false,
      "t": 149761.59774999987,
      "d": 265.37644010415534,
      "v": 63
    },
    {
      "midi": 42,
      "hit": false,
      "t": 149999.69249999986,
      "d": 124.00768229167443,
      "v": 33
    },
    {
      "midi": 65,
      "hit": false,
      "t": 150475.88199999987,
      "d": 518.352111979184,
      "v": 71
    },
    {
      "midi": 68,
      "hit": false,
      "t": 150475.88199999987,
      "d": 523.3124192708638,
      "v": 68
    },
    {
      "midi": 63,
      "hit": false,
      "t": 150475.88199999987,
      "d": 558.0345703125349,
      "v": 67
    },
    {
      "midi": 53,
      "hit": false,
      "t": 150952.07149999987,
      "d": 344.74135677085724,
      "v": 53
    },
    {
      "midi": 68,
      "hit": false,
      "t": 151190.1662499999,
      "d": 181.05121614583186,
      "v": 45
    },
    {
      "midi": 61,
      "hit": false,
      "t": 151190.1662499999,
      "d": 257.9359791666502,
      "v": 66
    },
    {
      "midi": 53,
      "hit": false,
      "t": 151428.26099999988,
      "d": 220.7336744791537,
      "v": 55
    },
    {
      "midi": 65,
      "hit": false,
      "t": 151666.35574999987,
      "d": 190.97183072916232,
      "v": 66
    },
    {
      "midi": 68,
      "hit": false,
      "t": 151666.35574999987,
      "d": 208.3329062499979,
      "v": 53
    },
    {
      "midi": 61,
      "hit": false,
      "t": 151666.35574999987,
      "d": 218.25352083332837,
      "v": 68
    },
    {
      "midi": 53,
      "hit": false,
      "t": 151904.45049999986,
      "d": 173.61075520832674,
      "v": 64
    },
    {
      "midi": 58,
      "hit": false,
      "t": 152142.54524999985,
      "d": 168.65044791667606,
      "v": 46
    },
    {
      "midi": 51,
      "hit": false,
      "t": 152380.63999999987,
      "d": 210.81305989585235,
      "v": 67
    },
    {
      "midi": 58,
      "hit": false,
      "t": 152380.63999999987,
      "d": 523.3124192708347,
      "v": 76
    },
    {
      "midi": 66,
      "hit": false,
      "t": 152380.63999999987,
      "d": 562.9948776041565,
      "v": 58
    },
    {
      "midi": 63,
      "hit": false,
      "t": 152380.63999999987,
      "d": 565.4750312499818,
      "v": 64
    },
    {
      "midi": 61,
      "hit": false,
      "t": 152380.63999999987,
      "d": 585.3162604166428,
      "v": 67
    },
    {
      "midi": 51,
      "hit": false,
      "t": 152856.82949999988,
      "d": 543.1536484374956,
      "v": 71
    },
    {
      "midi": 58,
      "hit": false,
      "t": 153094.92424999984,
      "d": 133.9282968750049,
      "v": 63
    },
    {
      "midi": 66,
      "hit": false,
      "t": 153333.01899999985,
      "d": 42.16261197917629,
      "v": 26
    },
    {
      "midi": 61,
      "hit": false,
      "t": 153333.01899999985,
      "d": 74.40460937502212,
      "v": 41
    },
    {
      "midi": 58,
      "hit": false,
      "t": 153333.01899999985,
      "d": 91.7656848958577,
      "v": 52
    },
    {
      "midi": 58,
      "hit": false,
      "t": 153571.11374999987,
      "d": 260.41613281247555,
      "v": 76
    },
    {
      "midi": 66,
      "hit": false,
      "t": 153571.11374999987,
      "d": 260.41613281247555,
      "v": 57
    },
    {
      "midi": 61,
      "hit": false,
      "t": 153571.11374999987,
      "d": 270.336747395806,
      "v": 79
    },
    {
      "midi": 51,
      "hit": false,
      "t": 153809.20849999986,
      "d": 158.7298333333165,
      "v": 53
    },
    {
      "midi": 56,
      "hit": false,
      "t": 154047.30324999985,
      "d": 124.00768229167443,
      "v": 63
    },
    {
      "midi": 44,
      "hit": false,
      "t": 154285.39799999984,
      "d": 538.1933411458449,
      "v": 62
    },
    {
      "midi": 63,
      "hit": false,
      "t": 154523.49274999983,
      "d": 131.44814322917955,
      "v": 46
    },
    {
      "midi": 68,
      "hit": false,
      "t": 154523.49274999983,
      "d": 146.3290651041898,
      "v": 62
    },
    {
      "midi": 61,
      "hit": false,
      "t": 154523.49274999983,
      "d": 148.80921875001513,
      "v": 55
    },
    {
      "midi": 56,
      "hit": false,
      "t": 154523.49274999983,
      "d": 151.28937239584047,
      "v": 67
    },
    {
      "midi": 68,
      "hit": false,
      "t": 154761.58749999985,
      "d": 119.04737499999464,
      "v": 50
    },
    {
      "midi": 56,
      "hit": false,
      "t": 154761.58749999985,
      "d": 176.09090885415208,
      "v": 63
    },
    {
      "midi": 44,
      "hit": false,
      "t": 154999.68224999984,
      "d": 362.1024322916637,
      "v": 55
    },
    {
      "midi": 56,
      "hit": false,
      "t": 155237.77699999983,
      "d": 166.17029427085072,
      "v": 82
    },
    {
      "midi": 68,
      "hit": false,
      "t": 155237.77699999983,
      "d": 193.45198437501676,
      "v": 82
    },
    {
      "midi": 63,
      "hit": false,
      "t": 155237.77699999983,
      "d": 203.37259895834723,
      "v": 56
    },
    {
      "midi": 61,
      "hit": false,
      "t": 155237.77699999983,
      "d": 205.85275260417257,
      "v": 66
    },
    {
      "midi": 44,
      "hit": false,
      "t": 155475.87174999985,
      "d": 215.77336718750303,
      "v": 66
    },
    {
      "midi": 56,
      "hit": false,
      "t": 155713.96649999983,
      "d": 96.72599218750838,
      "v": 56
    },
    {
      "midi": 54,
      "hit": false,
      "t": 155952.06124999985,
      "d": 57.04353385415743,
      "v": 21
    },
    {
      "midi": 42,
      "hit": false,
      "t": 156190.15599999984,
      "d": 307.5390520833316,
      "v": 73
    },
    {
      "midi": 54,
      "hit": false,
      "t": 156190.15599999984,
      "d": 543.1536484374665,
      "v": 91
    },
    {
      "midi": 61,
      "hit": false,
      "t": 156190.15599999984,
      "d": 585.3162604166428,
      "v": 67
    },
    {
      "midi": 58,
      "hit": false,
      "t": 156190.15599999984,
      "d": 637.3994869791495,
      "v": 84
    },
    {
      "midi": 42,
      "hit": false,
      "t": 156666.34549999982,
      "d": 746.5262473958428,
      "v": 68
    },
    {
      "midi": 54,
      "hit": false,
      "t": 156904.44024999984,
      "d": 116.5672213541693,
      "v": 53
    },
    {
      "midi": 58,
      "hit": false,
      "t": 157142.53499999983,
      "d": 119.04737499999464,
      "v": 46
    },
    {
      "midi": 61,
      "hit": false,
      "t": 157380.62974999982,
      "d": 272.81690104168956,
      "v": 62
    },
    {
      "midi": 54,
      "hit": false,
      "t": 157380.62974999982,
      "d": 275.2970546875149,
      "v": 82
    },
    {
      "midi": 58,
      "hit": false,
      "t": 157380.62974999982,
      "d": 352.18181770836236,
      "v": 84
    },
    {
      "midi": 42,
      "hit": false,
      "t": 157618.72449999984,
      "d": 151.28937239584047,
      "v": 51
    },
    {
      "midi": 53,
      "hit": false,
      "t": 157856.81924999985,
      "d": 136.40845052083023,
      "v": 45
    },
    {
      "midi": 41,
      "hit": false,
      "t": 158094.91399999984,
      "d": 238.0947499999893,
      "v": 64
    },
    {
      "midi": 53,
      "hit": false,
      "t": 158094.91399999984,
      "d": 483.6299609375128,
      "v": 76
    },
    {
      "midi": 61,
      "hit": false,
      "t": 158094.91399999984,
      "d": 545.63380208335,
      "v": 61
    },
    {
      "midi": 56,
      "hit": false,
      "t": 158094.91399999984,
      "d": 610.1177968750126,
      "v": 71
    },
    {
      "midi": 41,
      "hit": false,
      "t": 158571.10349999985,
      "d": 587.7964140624972,
      "v": 63
    },
    {
      "midi": 53,
      "hit": false,
      "t": 158809.19824999987,
      "d": 126.48783593749977,
      "v": 55
    },
    {
      "midi": 53,
      "hit": false,
      "t": 159047.29299999986,
      "d": 317.4596666666621,
      "v": 69
    },
    {
      "midi": 56,
      "hit": false,
      "t": 159047.29299999986,
      "d": 406.74519791666535,
      "v": 67
    },
    {
      "midi": 61,
      "hit": false,
      "t": 159047.29299999986,
      "d": 419.14596614582115,
      "v": 60
    },
    {
      "midi": 41,
      "hit": false,
      "t": 159523.48249999984,
      "d": 114.08706770834397,
      "v": 53
    },
    {
      "midi": 58,
      "hit": false,
      "t": 159999.67199999985,
      "d": 508.4314973958535,
      "v": 73
    },
    {
      "midi": 66,
      "hit": false,
      "t": 159999.67199999985,
      "d": 555.5544166666805,
      "v": 61
    },
    {
      "midi": 63,
      "hit": false,
      "t": 159999.67199999985,
      "d": 575.3956458333414,
      "v": 61
    },
    {
      "midi": 61,
      "hit": false,
      "t": 159999.67199999985,
      "d": 577.8757994791667,
      "v": 68
    },
    {
      "midi": 39,
      "hit": false,
      "t": 159999.67199999985,
      "d": 1227.6760546875012,
      "v": 58
    },
    {
      "midi": 51,
      "hit": false,
      "t": 160475.86149999985,
      "d": 751.4865546874935,
      "v": 76
    },
    {
      "midi": 58,
      "hit": false,
      "t": 160713.95624999984,
      "d": 146.3290651041607,
      "v": 63
    },
    {
      "midi": 61,
      "hit": false,
      "t": 160952.05099999983,
      "d": 114.08706770834397,
      "v": 38
    },
    {
      "midi": 61,
      "hit": false,
      "t": 161190.14574999985,
      "d": 235.61459635416395,
      "v": 64
    },
    {
      "midi": 58,
      "hit": false,
      "t": 161190.14574999985,
      "d": 243.05505729166907,
      "v": 73
    },
    {
      "midi": 63,
      "hit": false,
      "t": 161190.14574999985,
      "d": 248.01536458334886,
      "v": 62
    },
    {
      "midi": 66,
      "hit": false,
      "t": 161190.14574999985,
      "d": 252.97567187502864,
      "v": 53
    },
    {
      "midi": 39,
      "hit": false,
      "t": 161428.24049999984,
      "d": 89.28553125003236,
      "v": 35
    },
    {
      "midi": 51,
      "hit": false,
      "t": 161428.24049999984,
      "d": 114.08706770837307,
      "v": 43
    },
    {
      "midi": 68,
      "hit": false,
      "t": 161904.42999999988,
      "d": 565.4750312500109,
      "v": 69
    },
    {
      "midi": 65,
      "hit": false,
      "t": 161904.42999999988,
      "d": 575.3956458333414,
      "v": 69
    },
    {
      "midi": 63,
      "hit": false,
      "t": 161904.42999999988,
      "d": 597.7170286458277,
      "v": 67
    },
    {
      "midi": 41,
      "hit": false,
      "t": 161904.42999999988,
      "d": 1354.163890625001,
      "v": 63
    },
    {
      "midi": 53,
      "hit": false,
      "t": 162380.61949999988,
      "d": 317.4596666666621,
      "v": 64
    },
    {
      "midi": 61,
      "hit": false,
      "t": 162618.71424999987,
      "d": 372.0230468750233,
      "v": 91
    },
    {
      "midi": 68,
      "hit": false,
      "t": 162618.71424999987,
      "d": 620.038411458343,
      "v": 64
    },
    {
      "midi": 53,
      "hit": false,
      "t": 162856.8089999999,
      "d": 188.49167708333698,
      "v": 58
    },
    {
      "midi": 61,
      "hit": false,
      "t": 163094.90374999988,
      "d": 240.57490364581463,
      "v": 57
    },
    {
      "midi": 53,
      "hit": false,
      "t": 163332.99849999987,
      "d": 84.32522395832348,
      "v": 46
    },
    {
      "midi": 42,
      "hit": false,
      "t": 163809.18799999985,
      "d": 1279.7592812499497,
      "v": 67
    },
    {
      "midi": 49,
      "hit": false,
      "t": 164047.28274999984,
      "d": 632.4391796874697,
      "v": 71
    },
    {
      "midi": 54,
      "hit": false,
      "t": 164285.37749999983,
      "d": 198.41229166666744,
      "v": 67
    },
    {
      "midi": 54,
      "hit": false,
      "t": 164523.47224999982,
      "d": 347.2215104166535,
      "v": 55
    },
    {
      "midi": 56,
      "hit": false,
      "t": 164523.47224999982,
      "d": 364.58258593748906,
      "v": 79
    },
    {
      "midi": 49,
      "hit": false,
      "t": 164761.5669999998,
      "d": 329.8604348958179,
      "v": 48
    },
    {
      "midi": 54,
      "hit": false,
      "t": 164999.6617499998,
      "d": 193.45198437498766,
      "v": 67
    },
    {
      "midi": 61,
      "hit": false,
      "t": 164999.6617499998,
      "d": 233.1344427083095,
      "v": 55
    },
    {
      "midi": 58,
      "hit": false,
      "t": 164999.6617499998,
      "d": 245.5352109374944,
      "v": 63
    },
    {
      "midi": 49,
      "hit": false,
      "t": 165237.75649999978,
      "d": 126.48783593749977,
      "v": 45
    },
    {
      "midi": 65,
      "hit": false,
      "t": 165713.94599999976,
      "d": 476.1895000000077,
      "v": 69
    },
    {
      "midi": 63,
      "hit": false,
      "t": 165713.94599999976,
      "d": 505.95134374999907,
      "v": 67
    },
    {
      "midi": 68,
      "hit": false,
      "t": 165713.94599999976,
      "d": 505.95134374999907,
      "v": 68
    },
    {
      "midi": 53,
      "hit": false,
      "t": 165713.94599999976,
      "d": 942.4583854166558,
      "v": 68
    },
    {
      "midi": 61,
      "hit": false,
      "t": 166190.13549999977,
      "d": 54.56338020833209,
      "v": 18
    },
    {
      "midi": 61,
      "hit": false,
      "t": 166428.23024999976,
      "d": 116.5672213541693,
      "v": 42
    },
    {
      "midi": 68,
      "hit": false,
      "t": 166666.32499999975,
      "d": 290.17797656249604,
      "v": 62
    },
    {
      "midi": 65,
      "hit": false,
      "t": 166666.32499999975,
      "d": 332.34058854167233,
      "v": 66
    },
    {
      "midi": 61,
      "hit": false,
      "t": 166666.32499999975,
      "d": 354.6619713541586,
      "v": 79
    },
    {
      "midi": 53,
      "hit": false,
      "t": 167142.51449999973,
      "d": 181.05121614583186,
      "v": 61
    },
    {
      "midi": 58,
      "hit": false,
      "t": 167380.60924999972,
      "d": 166.1702942708216,
      "v": 35
    },
    {
      "midi": 51,
      "hit": false,
      "t": 167618.7039999997,
      "d": 238.0947499999893,
      "v": 66
    },
    {
      "midi": 58,
      "hit": false,
      "t": 167618.7039999997,
      "d": 513.3918046874751,
      "v": 79
    },
    {
      "midi": 66,
      "hit": false,
      "t": 167618.7039999997,
      "d": 543.1536484374665,
      "v": 62
    },
    {
      "midi": 63,
      "hit": false,
      "t": 167618.7039999997,
      "d": 570.4353385416325,
      "v": 64
    },
    {
      "midi": 61,
      "hit": false,
      "t": 167618.7039999997,
      "d": 572.9154921874579,
      "v": 68
    },
    {
      "midi": 51,
      "hit": false,
      "t": 168094.89349999969,
      "d": 662.2010234374902,
      "v": 66
    },
    {
      "midi": 58,
      "hit": false,
      "t": 168332.98824999967,
      "d": 148.80921874998603,
      "v": 61
    },
    {
      "midi": 66,
      "hit": false,
      "t": 168571.08299999966,
      "d": 448.90780989584164,
      "v": 58
    },
    {
      "midi": 58,
      "hit": false,
      "t": 168571.08299999966,
      "d": 471.2291927083279,
      "v": 79
    },
    {
      "midi": 63,
      "hit": false,
      "t": 168571.08299999966,
      "d": 505.95134374999907,
      "v": 64
    },
    {
      "midi": 61,
      "hit": false,
      "t": 168571.08299999966,
      "d": 515.8719583333295,
      "v": 67
    },
    {
      "midi": 51,
      "hit": false,
      "t": 169047.27249999967,
      "d": 114.08706770831486,
      "v": 46
    },
    {
      "midi": 44,
      "hit": false,
      "t": 169523.46199999965,
      "d": 158.7298333333165,
      "v": 57
    },
    {
      "midi": 68,
      "hit": false,
      "t": 169523.46199999965,
      "d": 339.78104947917745,
      "v": 68
    },
    {
      "midi": 56,
      "hit": false,
      "t": 169523.46199999965,
      "d": 342.2612031250028,
      "v": 82
    },
    {
      "midi": 63,
      "hit": false,
      "t": 169523.46199999965,
      "d": 381.94366145832464,
      "v": 66
    },
    {
      "midi": 61,
      "hit": false,
      "t": 169523.46199999965,
      "d": 394.34442968748044,
      "v": 67
    },
    {
      "midi": 44,
      "hit": false,
      "t": 169761.55674999964,
      "d": 567.9551848958072,
      "v": 60
    },
    {
      "midi": 56,
      "hit": false,
      "t": 169999.65149999963,
      "d": 128.9679895833251,
      "v": 61
    },
    {
      "midi": 68,
      "hit": false,
      "t": 170237.74624999962,
      "d": 168.65044791667606,
      "v": 58
    },
    {
      "midi": 61,
      "hit": false,
      "t": 170237.74624999962,
      "d": 190.97183072916232,
      "v": 56
    },
    {
      "midi": 63,
      "hit": false,
      "t": 170237.74624999962,
      "d": 200.89244531249278,
      "v": 55
    },
    {
      "midi": 56,
      "hit": false,
      "t": 170237.74624999962,
      "d": 250.4955182291451,
      "v": 66
    },
    {
      "midi": 44,
      "hit": false,
      "t": 170475.8409999996,
      "d": 200.89244531249278,
      "v": 37
    },
    {
      "midi": 68,
      "hit": false,
      "t": 170713.9357499996,
      "d": 235.61459635416395,
      "v": 63
    },
    {
      "midi": 63,
      "hit": false,
      "t": 170713.9357499996,
      "d": 257.9359791666502,
      "v": 52
    },
    {
      "midi": 61,
      "hit": false,
      "t": 170713.9357499996,
      "d": 292.6581302083214,
      "v": 55
    },
    {
      "midi": 56,
      "hit": false,
      "t": 170713.9357499996,
      "d": 302.57874479165184,
      "v": 66
    },
    {
      "midi": 44,
      "hit": false,
      "t": 170952.0304999996,
      "d": 124.00768229167443,
      "v": 21
    },
    {
      "midi": 49,
      "hit": false,
      "t": 171428.2199999996,
      "d": 342.2612031250028,
      "v": 76
    },
    {
      "midi": 61,
      "hit": false,
      "t": 171428.2199999996,
      "d": 513.3918046875042,
      "v": 79
    },
    {
      "midi": 68,
      "hit": false,
      "t": 171428.2199999996,
      "d": 520.8322656250093,
      "v": 64
    },
    {
      "midi": 65,
      "hit": false,
      "t": 171428.2199999996,
      "d": 555.5544166666805,
      "v": 68
    },
    {
      "midi": 49,
      "hit": false,
      "t": 171904.4094999996,
      "d": 694.4430208333943,
      "v": 58
    },
    {
      "midi": 61,
      "hit": false,
      "t": 172142.50424999962,
      "d": 131.44814322917955,
      "v": 58
    },
    {
      "midi": 65,
      "hit": false,
      "t": 172380.59899999964,
      "d": 104.1664531250135,
      "v": 45
    },
    {
      "midi": 68,
      "hit": false,
      "t": 172618.69374999966,
      "d": 272.81690104166046,
      "v": 64
    },
    {
      "midi": 61,
      "hit": false,
      "t": 172618.69374999966,
      "d": 280.2573619791656,
      "v": 84
    },
    {
      "midi": 65,
      "hit": false,
      "t": 172618.69374999966,
      "d": 305.0588984375063,
      "v": 69
    },
    {
      "midi": 49,
      "hit": false,
      "t": 172856.78849999965,
      "d": 151.28937239584047,
      "v": 61
    },
    {
      "midi": 60,
      "hit": false,
      "t": 173094.88324999966,
      "d": 133.9282968750049,
      "v": 38
    },
    {
      "midi": 48,
      "hit": false,
      "t": 173332.97799999968,
      "d": 183.5313697916863,
      "v": 67
    },
    {
      "midi": 60,
      "hit": false,
      "t": 173332.97799999968,
      "d": 488.5902682291635,
      "v": 69
    },
    {
      "midi": 68,
      "hit": false,
      "t": 173332.97799999968,
      "d": 545.6338020833209,
      "v": 63
    },
    {
      "midi": 63,
      "hit": false,
      "t": 173332.97799999968,
      "d": 592.7567213541479,
      "v": 71
    },
    {
      "midi": 48,
      "hit": false,
      "t": 173809.1674999997,
      "d": 528.2727265624853,
      "v": 66
    },
    {
      "midi": 60,
      "hit": false,
      "t": 174047.26224999965,
      "d": 131.44814322917955,
      "v": 61
    },
    {
      "midi": 63,
      "hit": false,
      "t": 174285.35699999967,
      "d": 66.964148437517,
      "v": 18
    },
    {
      "midi": 60,
      "hit": false,
      "t": 174523.4517499997,
      "d": 233.1344427083386,
      "v": 84
    },
    {
      "midi": 63,
      "hit": false,
      "t": 174523.4517499997,
      "d": 233.1344427083386,
      "v": 76
    },
    {
      "midi": 68,
      "hit": false,
      "t": 174523.4517499997,
      "d": 233.1344427083386,
      "v": 64
    },
    {
      "midi": 48,
      "hit": false,
      "t": 174761.5464999997,
      "d": 300.0985911458265,
      "v": 52
    },
    {
      "midi": 58,
      "hit": false,
      "t": 174999.6412499997,
      "d": 148.80921875001513,
      "v": 28
    },
    {
      "midi": 46,
      "hit": false,
      "t": 175237.7359999997,
      "d": 280.2573619791656,
      "v": 76
    },
    {
      "midi": 65,
      "hit": false,
      "t": 175237.7359999997,
      "d": 411.705505208316,
      "v": 66
    },
    {
      "midi": 61,
      "hit": false,
      "t": 175237.7359999997,
      "d": 473.70934635415324,
      "v": 64
    },
    {
      "midi": 58,
      "hit": false,
      "t": 175237.7359999997,
      "d": 481.14980729165836,
      "v": 82
    },
    {
      "midi": 46,
      "hit": false,
      "t": 175713.9254999997,
      "d": 672.1216380208498,
      "v": 58
    },
    {
      "midi": 58,
      "hit": false,
      "t": 175952.0202499997,
      "d": 148.80921874998603,
      "v": 43
    },
    {
      "midi": 58,
      "hit": false,
      "t": 176190.1149999997,
      "d": 126.48783593749977,
      "v": 35
    },
    {
      "midi": 65,
      "hit": false,
      "t": 176428.20974999972,
      "d": 354.6619713541586,
      "v": 67
    },
    {
      "midi": 58,
      "hit": false,
      "t": 176428.20974999972,
      "d": 411.705505208316,
      "v": 79
    },
    {
      "midi": 61,
      "hit": false,
      "t": 176428.20974999972,
      "d": 431.54673437497695,
      "v": 71
    },
    {
      "midi": 46,
      "hit": false,
      "t": 176666.3044999997,
      "d": 302.57874479165184,
      "v": 61
    },
    {
      "midi": 44,
      "hit": false,
      "t": 177142.4939999997,
      "d": 240.57490364584373,
      "v": 68
    },
    {
      "midi": 65,
      "hit": false,
      "t": 177142.4939999997,
      "d": 476.1895000000077,
      "v": 69
    },
    {
      "midi": 56,
      "hit": false,
      "t": 177142.4939999997,
      "d": 510.91165104167885,
      "v": 79
    },
    {
      "midi": 61,
      "hit": false,
      "t": 177142.4939999997,
      "d": 555.5544166666805,
      "v": 64
    },
    {
      "midi": 44,
      "hit": false,
      "t": 177618.6834999997,
      "d": 525.7925729166891,
      "v": 57
    },
    {
      "midi": 56,
      "hit": false,
      "t": 177856.7782499997,
      "d": 151.28937239584047,
      "v": 42
    },
    {
      "midi": 56,
      "hit": false,
      "t": 178094.87299999973,
      "d": 119.04737499999464,
      "v": 48
    },
    {
      "midi": 65,
      "hit": false,
      "t": 178332.96774999972,
      "d": 213.2932135416777,
      "v": 64
    },
    {
      "midi": 56,
      "hit": false,
      "t": 178332.96774999972,
      "d": 225.6939817708335,
      "v": 68
    },
    {
      "midi": 61,
      "hit": false,
      "t": 178332.96774999972,
      "d": 248.01536458331975,
      "v": 61
    },
    {
      "midi": 44,
      "hit": false,
      "t": 178571.0624999997,
      "d": 128.9679895833251,
      "v": 42
    },
    {
      "midi": 58,
      "hit": false,
      "t": 179047.2519999997,
      "d": 478.669653645833,
      "v": 76
    },
    {
      "midi": 66,
      "hit": false,
      "t": 179047.2519999997,
      "d": 528.2727265624853,
      "v": 63
    },
    {
      "midi": 61,
      "hit": false,
      "t": 179047.2519999997,
      "d": 567.9551848958072,
      "v": 68
    },
    {
      "midi": 42,
      "hit": false,
      "t": 179047.2519999997,
      "d": 1205.3546718749567,
      "v": 58
    },
    {
      "midi": 54,
      "hit": false,
      "t": 179523.4414999997,
      "d": 719.2445572916185,
      "v": 64
    },
    {
      "midi": 58,
      "hit": false,
      "t": 179761.53624999966,
      "d": 138.88860416665557,
      "v": 64
    },
    {
      "midi": 61,
      "hit": false,
      "t": 179999.63099999964,
      "d": 121.52752864581998,
      "v": 50
    },
    {
      "midi": 58,
      "hit": false,
      "t": 180237.72574999963,
      "d": 257.9359791666793,
      "v": 79
    },
    {
      "midi": 61,
      "hit": false,
      "t": 180237.72574999963,
      "d": 270.3367473958351,
      "v": 82
    },
    {
      "midi": 66,
      "hit": false,
      "t": 180237.72574999963,
      "d": 290.17797656249604,
      "v": 58
    },
    {
      "midi": 54,
      "hit": false,
      "t": 180475.82049999965,
      "d": 57.04353385415743,
      "v": 33
    },
    {
      "midi": 42,
      "hit": false,
      "t": 180475.82049999965,
      "d": 126.48783593749977,
      "v": 47
    },
    {
      "midi": 61,
      "hit": false,
      "t": 180952.00999999966,
      "d": 520.8322656249802,
      "v": 79
    },
    {
      "midi": 68,
      "hit": false,
      "t": 180952.00999999966,
      "d": 627.478872395819,
      "v": 67
    },
    {
      "midi": 65,
      "hit": false,
      "t": 180952.00999999966,
      "d": 701.8834817708412,
      "v": 76
    },
    {
      "midi": 63,
      "hit": false,
      "t": 180952.00999999966,
      "d": 721.7247109375021,
      "v": 62
    },
    {
      "midi": 41,
      "hit": false,
      "t": 180952.00999999966,
      "d": 1210.3149791666365,
      "v": 62
    },
    {
      "midi": 53,
      "hit": false,
      "t": 181428.19949999964,
      "d": 696.9231744791614,
      "v": 67
    },
    {
      "midi": 61,
      "hit": false,
      "t": 181666.29424999966,
      "d": 109.12676041666418,
      "v": 38
    },
    {
      "midi": 61,
      "hit": false,
      "t": 181904.38899999965,
      "d": 126.48783593749977,
      "v": 40
    },
    {
      "midi": 65,
      "hit": false,
      "t": 182142.48374999964,
      "d": 213.29321354164858,
      "v": 68
    },
    {
      "midi": 68,
      "hit": false,
      "t": 182142.48374999964,
      "d": 218.25352083332837,
      "v": 64
    },
    {
      "midi": 61,
      "hit": false,
      "t": 182142.48374999964,
      "d": 245.5352109374944,
      "v": 87
    },
    {
      "midi": 58,
      "hit": false,
      "t": 182856.76799999963,
      "d": 518.352111979184,
      "v": 76
    },
    {
      "midi": 66,
      "hit": false,
      "t": 182856.76799999963,
      "d": 545.63380208335,
      "v": 58
    },
    {
      "midi": 63,
      "hit": false,
      "t": 182856.76799999963,
      "d": 565.4750312500109,
      "v": 60
    },
    {
      "midi": 61,
      "hit": false,
      "t": 182856.76799999963,
      "d": 582.8361067708465,
      "v": 68
    },
    {
      "midi": 39,
      "hit": false,
      "t": 182856.76799999963,
      "d": 1316.9615859375044,
      "v": 56
    },
    {
      "midi": 51,
      "hit": false,
      "t": 183332.95749999964,
      "d": 773.8079375000088,
      "v": 64
    },
    {
      "midi": 58,
      "hit": false,
      "t": 183571.05224999966,
      "d": 128.9679895833251,
      "v": 64
    },
    {
      "midi": 61,
      "hit": false,
      "t": 183809.14699999965,
      "d": 128.9679895833251,
      "v": 41
    },
    {
      "midi": 66,
      "hit": false,
      "t": 184047.24174999964,
      "d": 297.61843750000116,
      "v": 60
    },
    {
      "midi": 63,
      "hit": false,
      "t": 184047.24174999964,
      "d": 300.0985911458265,
      "v": 64
    },
    {
      "midi": 58,
      "hit": false,
      "t": 184047.24174999964,
      "d": 305.0588984375063,
      "v": 82
    },
    {
      "midi": 61,
      "hit": false,
      "t": 184047.24174999964,
      "d": 329.860434895847,
      "v": 69
    },
    {
      "midi": 51,
      "hit": false,
      "t": 184285.33649999963,
      "d": 205.85275260420167,
      "v": 53
    },
    {
      "midi": 56,
      "hit": false,
      "t": 184523.43124999967,
      "d": 131.44814322917955,
      "v": 55
    },
    {
      "midi": 44,
      "hit": false,
      "t": 184761.5259999997,
      "d": 133.9282968750049,
      "v": 55
    },
    {
      "midi": 56,
      "hit": false,
      "t": 184761.5259999997,
      "d": 324.9001276041963,
      "v": 73
    },
    {
      "midi": 68,
      "hit": false,
      "t": 184761.5259999997,
      "d": 324.9001276041963,
      "v": 67
    },
    {
      "midi": 63,
      "hit": false,
      "t": 184761.5259999997,
      "d": 367.0627395833726,
      "v": 57
    },
    {
      "midi": 61,
      "hit": false,
      "t": 184761.5259999997,
      "d": 389.38412239585887,
      "v": 62
    },
    {
      "midi": 44,
      "hit": false,
      "t": 184999.6207499997,
      "d": 548.1139557291754,
      "v": 66
    },
    {
      "midi": 56,
      "hit": false,
      "t": 185237.71549999973,
      "d": 121.52752864581998,
      "v": 64
    },
    {
      "midi": 68,
      "hit": false,
      "t": 185475.81024999972,
      "d": 302.57874479165184,
      "v": 68
    },
    {
      "midi": 56,
      "hit": false,
      "t": 185475.81024999972,
      "d": 305.0588984374772,
      "v": 82
    },
    {
      "midi": 61,
      "hit": false,
      "t": 185475.81024999972,
      "d": 324.9001276041381,
      "v": 66
    },
    {
      "midi": 63,
      "hit": false,
      "t": 185475.81024999972,
      "d": 334.82074218746857,
      "v": 63
    },
    {
      "midi": 44,
      "hit": false,
      "t": 185713.9049999997,
      "d": 376.98335416667396,
      "v": 68
    },
    {
      "midi": 68,
      "hit": false,
      "t": 185951.9997499997,
      "d": 24.801536458340706,
      "v": 15
    },
    {
      "midi": 56,
      "hit": false,
      "t": 185951.9997499997,
      "d": 133.9282968750049,
      "v": 61
    },
    {
      "midi": 68,
      "hit": false,
      "t": 186190.09449999972,
      "d": 104.1664531250135,
      "v": 61
    },
    {
      "midi": 63,
      "hit": false,
      "t": 186190.09449999972,
      "d": 114.08706770834397,
      "v": 42
    },
    {
      "midi": 44,
      "hit": false,
      "t": 186190.09449999972,
      "d": 133.9282968750049,
      "v": 8
    },
    {
      "midi": 61,
      "hit": false,
      "t": 186190.09449999972,
      "d": 138.88860416668467,
      "v": 43
    },
    {
      "midi": 56,
      "hit": false,
      "t": 186190.09449999972,
      "d": 166.17029427085072,
      "v": 60
    },
    {
      "midi": 49,
      "hit": false,
      "t": 186666.28399999972,
      "d": 260.41613281250466,
      "v": 66
    },
    {
      "midi": 65,
      "hit": false,
      "t": 186666.28399999972,
      "d": 416.6658124999958,
      "v": 79
    },
    {
      "midi": 56,
      "hit": false,
      "t": 186666.28399999972,
      "d": 448.90780989584164,
      "v": 84
    },
    {
      "midi": 61,
      "hit": false,
      "t": 186666.28399999972,
      "d": 488.5902682291635,
      "v": 69
    },
    {
      "midi": 37,
      "hit": false,
      "t": 186666.28399999972,
      "d": 1207.8348255208111,
      "v": 64
    },
    {
      "midi": 49,
      "hit": false,
      "t": 187142.47349999973,
      "d": 761.4071692707948,
      "v": 63
    },
    {
      "midi": 56,
      "hit": false,
      "t": 187380.56824999972,
      "d": 143.84891145833535,
      "v": 55
    },
    {
      "midi": 56,
      "hit": false,
      "t": 187618.6629999997,
      "d": 47.12291927082697,
      "v": 6
    },
    {
      "midi": 61,
      "hit": false,
      "t": 187618.6629999997,
      "d": 131.44814322915045,
      "v": 52
    },
    {
      "midi": 56,
      "hit": false,
      "t": 187856.7577499997,
      "d": 265.37644010415534,
      "v": 79
    },
    {
      "midi": 65,
      "hit": false,
      "t": 187856.7577499997,
      "d": 280.2573619791656,
      "v": 68
    },
    {
      "midi": 61,
      "hit": false,
      "t": 187856.7577499997,
      "d": 339.78104947917745,
      "v": 66
    },
    {
      "midi": 49,
      "hit": false,
      "t": 188094.8524999997,
      "d": 173.61075520835584,
      "v": 55
    },
    {
      "midi": 56,
      "hit": false,
      "t": 188332.9472499997,
      "d": 168.65044791667606,
      "v": 48
    },
    {
      "midi": 48,
      "hit": false,
      "t": 188571.04199999972,
      "d": 203.37259895834723,
      "v": 64
    },
    {
      "midi": 56,
      "hit": false,
      "t": 188571.04199999972,
      "d": 498.51088281249395,
      "v": 71
    },
    {
      "midi": 63,
      "hit": false,
      "t": 188571.04199999972,
      "d": 520.8322656249802,
      "v": 62
    },
    {
      "midi": 60,
      "hit": false,
      "t": 188571.04199999972,
      "d": 572.915492187487,
      "v": 69
    },
    {
      "midi": 48,
      "hit": false,
      "t": 189047.23149999973,
      "d": 751.4865546874935,
      "v": 67
    },
    {
      "midi": 56,
      "hit": false,
      "t": 189285.32624999972,
      "d": 141.36875781251,
      "v": 55
    },
    {
      "midi": 60,
      "hit": false,
      "t": 189523.42099999974,
      "d": 138.88860416665557,
      "v": 45
    },
    {
      "midi": 56,
      "hit": false,
      "t": 189761.51574999973,
      "d": 314.97951302083675,
      "v": 84
    },
    {
      "midi": 60,
      "hit": false,
      "t": 189761.51574999973,
      "d": 322.41997395834187,
      "v": 71
    },
    {
      "midi": 63,
      "hit": false,
      "t": 189761.51574999973,
      "d": 347.2215104166826,
      "v": 63
    },
    {
      "midi": 48,
      "hit": false,
      "t": 189999.61049999972,
      "d": 195.9321380208712,
      "v": 64
    },
    {
      "midi": 58,
      "hit": false,
      "t": 190237.70524999977,
      "d": 138.88860416665557,
      "v": 36
    },
    {
      "midi": 46,
      "hit": false,
      "t": 190475.79999999976,
      "d": 218.25352083332837,
      "v": 66
    },
    {
      "midi": 65,
      "hit": false,
      "t": 190475.79999999976,
      "d": 429.0665807291516,
      "v": 68
    },
    {
      "midi": 58,
      "hit": false,
      "t": 190475.79999999976,
      "d": 481.14980729165836,
      "v": 76
    },
    {
      "midi": 61,
      "hit": false,
      "t": 190475.79999999976,
      "d": 493.55057552081416,
      "v": 66
    },
    {
      "midi": 46,
      "hit": false,
      "t": 190951.98949999973,
      "d": 744.0460937499593,
      "v": 68
    },
    {
      "midi": 58,
      "hit": false,
      "t": 191190.08424999972,
      "d": 121.52752864581998,
      "v": 52
    },
    {
      "midi": 58,
      "hit": false,
      "t": 191428.1789999997,
      "d": 66.96414843748789,
      "v": 10
    },
    {
      "midi": 61,
      "hit": false,
      "t": 191428.1789999997,
      "d": 131.44814322915045,
      "v": 43
    },
    {
      "midi": 65,
      "hit": false,
      "t": 191666.2737499997,
      "d": 384.42381510415,
      "v": 71
    },
    {
      "midi": 61,
      "hit": false,
      "t": 191666.2737499997,
      "d": 424.1062734374718,
      "v": 69
    },
    {
      "midi": 58,
      "hit": false,
      "t": 191666.2737499997,
      "d": 429.0665807291516,
      "v": 82
    },
    {
      "midi": 46,
      "hit": false,
      "t": 191904.3684999997,
      "d": 357.14212499998393,
      "v": 64
    },
    {
      "midi": 44,
      "hit": false,
      "t": 192380.55799999967,
      "d": 193.45198437498766,
      "v": 68
    },
    {
      "midi": 65,
      "hit": false,
      "t": 192380.55799999967,
      "d": 461.30857812499744,
      "v": 69
    },
    {
      "midi": 56,
      "hit": false,
      "t": 192380.55799999967,
      "d": 503.47119010417373,
      "v": 82
    },
    {
      "midi": 61,
      "hit": false,
      "t": 192380.55799999967,
      "d": 548.1139557291754,
      "v": 69
    },
    {
      "midi": 44,
      "hit": false,
      "t": 192856.74749999968,
      "d": 813.4903958333307,
      "v": 68
    },
    {
      "midi": 56,
      "hit": false,
      "t": 193094.84224999967,
      "d": 146.3290651041607,
      "v": 53
    },
    {
      "midi": 56,
      "hit": false,
      "t": 193332.93699999966,
      "d": 141.36875781251,
      "v": 40
    },
    {
      "midi": 56,
      "hit": false,
      "t": 193571.03174999967,
      "d": 186.01152343751164,
      "v": 68
    },
    {
      "midi": 65,
      "hit": false,
      "t": 193571.03174999967,
      "d": 188.49167708333698,
      "v": 63
    },
    {
      "midi": 61,
      "hit": false,
      "t": 193571.03174999967,
      "d": 220.7336744791828,
      "v": 64
    },
    {
      "midi": 54,
      "hit": false,
      "t": 194285.3159999997,
      "d": 188.49167708333698,
      "v": 58
    },
    {
      "midi": 70,
      "hit": false,
      "t": 194285.3159999997,
      "d": 438.9871953125112,
      "v": 66
    },
    {
      "midi": 61,
      "hit": false,
      "t": 194285.3159999997,
      "d": 473.70934635418234,
      "v": 82
    },
    {
      "midi": 66,
      "hit": false,
      "t": 194285.3159999997,
      "d": 515.8719583333295,
      "v": 68
    },
    {
      "midi": 42,
      "hit": false,
      "t": 194285.3159999997,
      "d": 1195.4340572916553,
      "v": 53
    },
    {
      "midi": 54,
      "hit": false,
      "t": 194761.5054999997,
      "d": 788.68885937499,
      "v": 64
    },
    {
      "midi": 61,
      "hit": false,
      "t": 194999.6002499997,
      "d": 121.52752864581998,
      "v": 60
    },
    {
      "midi": 61,
      "hit": false,
      "t": 195237.6949999997,
      "d": 66.96414843748789,
      "v": 25
    },
    {
      "midi": 66,
      "hit": false,
      "t": 195237.6949999997,
      "d": 106.64660677080974,
      "v": 42
    },
    {
      "midi": 61,
      "hit": false,
      "t": 195475.78974999968,
      "d": 223.21382812500815,
      "v": 84
    },
    {
      "midi": 70,
      "hit": false,
      "t": 195475.78974999968,
      "d": 223.21382812500815,
      "v": 67
    },
    {
      "midi": 66,
      "hit": false,
      "t": 195475.78974999968,
      "d": 265.37644010418444,
      "v": 76
    },
    {
      "midi": 54,
      "hit": false,
      "t": 195713.8844999997,
      "d": 52.08322656250675,
      "v": 17
    },
    {
      "midi": 42,
      "hit": false,
      "t": 195713.8844999997,
      "d": 141.36875781251,
      "v": 42
    },
    {
      "midi": 61,
      "hit": false,
      "t": 195951.9792499997,
      "d": 133.9282968750049,
      "v": 42
    },
    {
      "midi": 65,
      "hit": false,
      "t": 196190.07399999973,
      "d": 510.91165104167885,
      "v": 71
    },
    {
      "midi": 61,
      "hit": false,
      "t": 196190.07399999973,
      "d": 523.3124192708347,
      "v": 87
    },
    {
      "midi": 68,
      "hit": false,
      "t": 196190.07399999973,
      "d": 538.1933411458449,
      "v": 66
    },
    {
      "midi": 41,
      "hit": false,
      "t": 196190.07399999973,
      "d": 1257.4378984374925,
      "v": 58
    },
    {
      "midi": 53,
      "hit": false,
      "t": 196666.26349999974,
      "d": 781.2483984374849,
      "v": 61
    },
    {
      "midi": 61,
      "hit": false,
      "t": 196904.35824999976,
      "d": 138.88860416665557,
      "v": 53
    },
    {
      "midi": 65,
      "hit": false,
      "t": 197142.45299999975,
      "d": 101.68629947915906,
      "v": 33
    },
    {
      "midi": 65,
      "hit": false,
      "t": 197380.54774999974,
      "d": 205.85275260414346,
      "v": 69
    },
    {
      "midi": 68,
      "hit": false,
      "t": 197380.54774999974,
      "d": 215.77336718747392,
      "v": 63
    },
    {
      "midi": 61,
      "hit": false,
      "t": 197380.54774999974,
      "d": 240.57490364578553,
      "v": 82
    },
    {
      "midi": 41,
      "hit": false,
      "t": 197618.6424999997,
      "d": 111.60691406248952,
      "v": 50
    },
    {
      "midi": 58,
      "hit": false,
      "t": 197856.73724999969,
      "d": 111.60691406248952,
      "v": 19
    },
    {
      "midi": 51,
      "hit": false,
      "t": 198094.83199999967,
      "d": 156.24967968749115,
      "v": 55
    },
    {
      "midi": 58,
      "hit": false,
      "t": 198094.83199999967,
      "d": 491.0704218749888,
      "v": 84
    },
    {
      "midi": 63,
      "hit": false,
      "t": 198094.83199999967,
      "d": 505.95134374999907,
      "v": 67
    },
    {
      "midi": 66,
      "hit": false,
      "t": 198094.83199999967,
      "d": 513.3918046875042,
      "v": 61
    },
    {
      "midi": 61,
      "hit": false,
      "t": 198094.83199999967,
      "d": 530.7528802083398,
      "v": 76
    },
    {
      "midi": 39,
      "hit": false,
      "t": 198094.83199999967,
      "d": 1557.5364895833482,
      "v": 61
    },
    {
      "midi": 51,
      "hit": false,
      "t": 198571.02149999965,
      "d": 773.807937500038,
      "v": 64
    },
    {
      "midi": 58,
      "hit": false,
      "t": 198809.11624999967,
      "d": 141.36875781251,
      "v": 56
    },
    {
      "midi": 63,
      "hit": false,
      "t": 199285.30574999968,
      "d": 228.17413541668793,
      "v": 64
    },
    {
      "midi": 66,
      "hit": false,
      "t": 199285.30574999968,
      "d": 233.13444270836771,
      "v": 60
    },
    {
      "midi": 61,
      "hit": false,
      "t": 199285.30574999968,
      "d": 235.61459635419305,
      "v": 64
    },
    {
      "midi": 58,
      "hit": false,
      "t": 199285.30574999968,
      "d": 238.0947500000184,
      "v": 73
    },
    {
      "midi": 51,
      "hit": false,
      "t": 199523.4004999997,
      "d": 186.01152343748254,
      "v": 53
    },
    {
      "midi": 56,
      "hit": false,
      "t": 199761.4952499997,
      "d": 121.52752864581998,
      "v": 21
    },
    {
      "midi": 44,
      "hit": false,
      "t": 199999.58999999968,
      "d": 131.44814322915045,
      "v": 66
    },
    {
      "midi": 68,
      "hit": false,
      "t": 199999.58999999968,
      "d": 332.3405885416432,
      "v": 67
    },
    {
      "midi": 56,
      "hit": false,
      "t": 199999.58999999968,
      "d": 339.78104947914835,
      "v": 79
    },
    {
      "midi": 63,
      "hit": false,
      "t": 199999.58999999968,
      "d": 394.34442968748044,
      "v": 61
    },
    {
      "midi": 61,
      "hit": false,
      "t": 199999.58999999968,
      "d": 429.0665807291516,
      "v": 62
    },
    {
      "midi": 44,
      "hit": false,
      "t": 200237.68474999967,
      "d": 984.6209973958321,
      "v": 64
    },
    {
      "midi": 56,
      "hit": false,
      "t": 200475.77949999965,
      "d": 131.44814322917955,
      "v": 64
    },
    {
      "midi": 56,
      "hit": false,
      "t": 200713.87424999967,
      "d": 89.28553125000326,
      "v": 45
    },
    {
      "midi": 61,
      "hit": false,
      "t": 200713.87424999967,
      "d": 116.5672213541693,
      "v": 47
    },
    {
      "midi": 56,
      "hit": false,
      "t": 200951.96899999966,
      "d": 49.60307291665231,
      "v": 25
    },
    {
      "midi": 68,
      "hit": false,
      "t": 201190.06374999965,
      "d": 183.5313697916863,
      "v": 67
    },
    {
      "midi": 63,
      "hit": false,
      "t": 201190.06374999965,
      "d": 200.8924453125219,
      "v": 64
    },
    {
      "midi": 61,
      "hit": false,
      "t": 201190.06374999965,
      "d": 223.21382812500815,
      "v": 64
    },
    {
      "midi": 56,
      "hit": false,
      "t": 201190.06374999965,
      "d": 243.05505729169818,
      "v": 69
    },
    {
      "midi": 44,
      "hit": false,
      "t": 201428.15849999967,
      "d": 101.68629947918816,
      "v": 35
    },
    {
      "midi": 49,
      "hit": false,
      "t": 201904.34799999968,
      "d": 860.6133151041286,
      "v": 62
    },
    {
      "midi": 37,
      "hit": false,
      "t": 201904.34799999968,
      "d": 1564.9769505208242,
      "v": 66
    },
    {
      "midi": 56,
      "hit": false,
      "t": 202142.44274999967,
      "d": 181.05121614583186,
      "v": 64
    },
    {
      "midi": 56,
      "hit": false,
      "t": 202380.53749999966,
      "d": 86.80537760417792,
      "v": 45
    },
    {
      "midi": 61,
      "hit": false,
      "t": 202380.53749999966,
      "d": 208.3329062499979,
      "v": 67
    },
    {
      "midi": 63,
      "hit": false,
      "t": 202618.63224999965,
      "d": 153.7695260416658,
      "v": 56
    },
    {
      "midi": 56,
      "hit": false,
      "t": 202618.63224999965,
      "d": 295.1382838541467,
      "v": 43
    },
    {
      "midi": 61,
      "hit": false,
      "t": 202618.63224999965,
      "d": 339.78104947914835,
      "v": 21
    },
    {
      "midi": 49,
      "hit": false,
      "t": 202856.72699999964,
      "d": 324.9001276041672,
      "v": 69
    },
    {
      "midi": 65,
      "hit": false,
      "t": 203094.82174999962,
      "d": 228.17413541668793,
      "v": 66
    },
    {
      "midi": 56,
      "hit": false,
      "t": 203094.82174999962,
      "d": 233.13444270836771,
      "v": 73
    },
    {
      "midi": 61,
      "hit": false,
      "t": 203094.82174999962,
      "d": 248.01536458337796,
      "v": 64
    },
    {
      "midi": 49,
      "hit": false,
      "t": 203332.91649999967,
      "d": 138.88860416665557,
      "v": 52
    },
    {
      "midi": 56,
      "hit": false,
      "t": 203571.01124999966,
      "d": 176.09090885418118,
      "v": 22
    },
    {
      "midi": 56,
      "hit": false,
      "t": 203809.10599999968,
      "d": 505.95134374999907,
      "v": 69
    },
    {
      "midi": 60,
      "hit": false,
      "t": 203809.10599999968,
      "d": 523.3124192708347,
      "v": 66
    },
    {
      "midi": 63,
      "hit": false,
      "t": 203809.10599999968,
      "d": 543.1536484374956,
      "v": 56
    },
    {
      "midi": 48,
      "hit": false,
      "t": 203809.10599999968,
      "d": 711.8040963541716,
      "v": 64
    },
    {
      "midi": 56,
      "hit": false,
      "t": 204523.39024999968,
      "d": 181.05121614583186,
      "v": 62
    },
    {
      "midi": 48,
      "hit": false,
      "t": 204761.48499999967,
      "d": 138.88860416665557,
      "v": 28
    },
    {
      "midi": 60,
      "hit": false,
      "t": 204999.57974999966,
      "d": 267.8565937499807,
      "v": 68
    },
    {
      "midi": 63,
      "hit": false,
      "t": 204999.57974999966,
      "d": 280.2573619791365,
      "v": 63
    },
    {
      "midi": 56,
      "hit": false,
      "t": 204999.57974999966,
      "d": 285.21766927081626,
      "v": 79
    },
    {
      "midi": 48,
      "hit": false,
      "t": 205237.67449999964,
      "d": 228.17413541665883,
      "v": 52
    },
    {
      "midi": 58,
      "hit": false,
      "t": 205475.76924999963,
      "d": 146.3290651041607,
      "v": 28
    },
    {
      "midi": 46,
      "hit": false,
      "t": 205713.86399999962,
      "d": 233.1344427083386,
      "v": 67
    },
    {
      "midi": 65,
      "hit": false,
      "t": 205713.86399999962,
      "d": 451.387963541667,
      "v": 67
    },
    {
      "midi": 58,
      "hit": false,
      "t": 205713.86399999962,
      "d": 466.2688854166772,
      "v": 69
    },
    {
      "midi": 61,
      "hit": false,
      "t": 205713.86399999962,
      "d": 488.5902682291635,
      "v": 61
    },
    {
      "midi": 46,
      "hit": false,
      "t": 206190.05349999963,
      "d": 751.4865546874935,
      "v": 64
    },
    {
      "midi": 58,
      "hit": false,
      "t": 206428.14824999962,
      "d": 128.9679895833251,
      "v": 46
    },
    {
      "midi": 58,
      "hit": false,
      "t": 206666.2429999996,
      "d": 131.44814322917955,
      "v": 38
    },
    {
      "midi": 65,
      "hit": false,
      "t": 206904.33774999963,
      "d": 337.300895833323,
      "v": 71
    },
    {
      "midi": 61,
      "hit": false,
      "t": 206904.33774999963,
      "d": 364.58258593748906,
      "v": 67
    },
    {
      "midi": 58,
      "hit": false,
      "t": 206904.33774999963,
      "d": 379.4635078124993,
      "v": 71
    },
    {
      "midi": 46,
      "hit": false,
      "t": 207142.43249999962,
      "d": 109.12676041666418,
      "v": 29
    },
    {
      "midi": 46,
      "hit": false,
      "t": 207380.52724999964,
      "d": 168.65044791667606,
      "v": 42
    },
    {
      "midi": 44,
      "hit": false,
      "t": 207618.62199999965,
      "d": 168.65044791664695,
      "v": 64
    },
    {
      "midi": 65,
      "hit": false,
      "t": 207618.62199999965,
      "d": 528.2727265624562,
      "v": 68
    },
    {
      "midi": 56,
      "hit": false,
      "t": 207618.62199999965,
      "d": 540.673494791612,
      "v": 76
    },
    {
      "midi": 61,
      "hit": false,
      "t": 207618.62199999965,
      "d": 572.9154921874579,
      "v": 67
    },
    {
      "midi": 44,
      "hit": false,
      "t": 208094.81149999963,
      "d": 714.2842499999679,
      "v": 71
    },
    {
      "midi": 56,
      "hit": false,
      "t": 208332.90624999962,
      "d": 163.69014062499627,
      "v": 52
    },
    {
      "midi": 56,
      "hit": false,
      "t": 208571.0009999996,
      "d": 126.48783593749977,
      "v": 33
    },
    {
      "midi": 65,
      "hit": false,
      "t": 208809.0957499996,
      "d": 198.41229166666744,
      "v": 66
    },
    {
      "midi": 56,
      "hit": false,
      "t": 208809.0957499996,
      "d": 215.77336718750303,
      "v": 73
    },
    {
      "midi": 61,
      "hit": false,
      "t": 208809.0957499996,
      "d": 235.61459635416395,
      "v": 67
    },
    {
      "midi": 44,
      "hit": false,
      "t": 209047.1904999996,
      "d": 141.36875781251,
      "v": 42
    },
    {
      "midi": 54,
      "hit": false,
      "t": 209523.3799999996,
      "d": 225.6939817708335,
      "v": 56
    },
    {
      "midi": 70,
      "hit": false,
      "t": 209523.3799999996,
      "d": 453.8681171874923,
      "v": 66
    },
    {
      "midi": 61,
      "hit": false,
      "t": 209523.3799999996,
      "d": 463.7887317708228,
      "v": 76
    },
    {
      "midi": 66,
      "hit": false,
      "t": 209523.3799999996,
      "d": 523.3124192708055,
      "v": 67
    },
    {
      "midi": 42,
      "hit": false,
      "t": 209523.3799999996,
      "d": 1232.6363619791518,
      "v": 56
    },
    {
      "midi": 54,
      "hit": false,
      "t": 209999.56949999958,
      "d": 801.0896276041749,
      "v": 62
    },
    {
      "midi": 61,
      "hit": false,
      "t": 210237.66424999957,
      "d": 121.52752864581998,
      "v": 63
    },
    {
      "midi": 66,
      "hit": false,
      "t": 210475.75899999955,
      "d": 114.08706770834397,
      "v": 43
    },
    {
      "midi": 61,
      "hit": false,
      "t": 210713.85374999957,
      "d": 240.57490364584373,
      "v": 79
    },
    {
      "midi": 70,
      "hit": false,
      "t": 210713.85374999957,
      "d": 250.4955182291742,
      "v": 66
    },
    {
      "midi": 66,
      "hit": false,
      "t": 210713.85374999957,
      "d": 314.97951302083675,
      "v": 79
    },
    {
      "midi": 54,
      "hit": false,
      "t": 210951.9484999996,
      "d": 74.40460937499302,
      "v": 27
    },
    {
      "midi": 42,
      "hit": false,
      "t": 210951.9484999996,
      "d": 141.3687578124809,
      "v": 46
    },
    {
      "midi": 61,
      "hit": false,
      "t": 211190.04324999958,
      "d": 163.69014062499627,
      "v": 47
    },
    {
      "midi": 61,
      "hit": false,
      "t": 211428.13799999957,
      "d": 491.0704218749888,
      "v": 76
    },
    {
      "midi": 68,
      "hit": false,
      "t": 211428.13799999957,
      "d": 493.55057552081416,
      "v": 67
    },
    {
      "midi": 65,
      "hit": false,
      "t": 211428.13799999957,
      "d": 530.7528802083107,
      "v": 68
    },
    {
      "midi": 41,
      "hit": false,
      "t": 211428.13799999957,
      "d": 1289.6798958333093,
      "v": 61
    },
    {
      "midi": 53,
      "hit": false,
      "t": 211904.32749999955,
      "d": 806.0499348958256,
      "v": 64
    },
    {
      "midi": 61,
      "hit": false,
      "t": 212142.42224999954,
      "d": 148.80921874998603,
      "v": 55
    },
    {
      "midi": 65,
      "hit": false,
      "t": 212380.51699999953,
      "d": 141.36875781251,
      "v": 46
    },
    {
      "midi": 65,
      "hit": false,
      "t": 212618.61174999955,
      "d": 220.7336744791537,
      "v": 68
    },
    {
      "midi": 68,
      "hit": false,
      "t": 212618.61174999955,
      "d": 225.6939817708335,
      "v": 61
    },
    {
      "midi": 61,
      "hit": false,
      "t": 212618.61174999955,
      "d": 262.89628645833,
      "v": 84
    },
    {
      "midi": 53,
      "hit": false,
      "t": 212856.70649999953,
      "d": 71.92445572916768,
      "v": 13
    },
    {
      "midi": 41,
      "hit": false,
      "t": 212856.70649999953,
      "d": 233.1344427083386,
      "v": 50
    },
    {
      "midi": 58,
      "hit": false,
      "t": 213332.89599999954,
      "d": 558.0345703125058,
      "v": 73
    },
    {
      "midi": 66,
      "hit": false,
      "t": 213332.89599999954,
      "d": 585.3162604166719,
      "v": 61
    },
    {
      "midi": 63,
      "hit": false,
      "t": 213332.89599999954,
      "d": 642.3597942708293,
      "v": 66
    },
    {
      "midi": 61,
      "hit": false,
      "t": 213332.89599999954,
      "d": 647.3201015625091,
      "v": 69
    },
    {
      "midi": 39,
      "hit": false,
      "t": 213332.89599999954,
      "d": 1326.8822005208349,
      "v": 63
    },
    {
      "midi": 51,
      "hit": false,
      "t": 213809.08549999955,
      "d": 788.68885937499,
      "v": 82
    },
    {
      "midi": 58,
      "hit": false,
      "t": 214047.18024999954,
      "d": 171.1306015625014,
      "v": 66
    },
    {
      "midi": 61,
      "hit": false,
      "t": 214285.27499999953,
      "d": 131.44814322917955,
      "v": 42
    },
    {
      "midi": 58,
      "hit": false,
      "t": 214523.36974999955,
      "d": 238.0947499999893,
      "v": 95
    },
    {
      "midi": 66,
      "hit": false,
      "t": 214523.36974999955,
      "d": 245.5352109374944,
      "v": 68
    },
    {
      "midi": 61,
      "hit": false,
      "t": 214523.36974999955,
      "d": 255.45582552082487,
      "v": 84
    },
    {
      "midi": 63,
      "hit": false,
      "t": 214523.36974999955,
      "d": 255.45582552082487,
      "v": 82
    },
    {
      "midi": 51,
      "hit": false,
      "t": 214761.46449999954,
      "d": 59.523687500011874,
      "v": 5
    },
    {
      "midi": 39,
      "hit": false,
      "t": 214761.46449999954,
      "d": 168.65044791667606,
      "v": 17
    },
    {
      "midi": 44,
      "hit": false,
      "t": 215237.65399999954,
      "d": 148.80921874998603,
      "v": 66
    },
    {
      "midi": 56,
      "hit": false,
      "t": 215237.65399999954,
      "d": 342.2612031249737,
      "v": 87
    },
    {
      "midi": 68,
      "hit": false,
      "t": 215237.65399999954,
      "d": 414.18565885414137,
      "v": 73
    },
    {
      "midi": 61,
      "hit": false,
      "t": 215237.65399999954,
      "d": 461.30857812496834,
      "v": 67
    },
    {
      "midi": 63,
      "hit": false,
      "t": 215237.65399999954,
      "d": 461.30857812496834,
      "v": 66
    },
    {
      "midi": 44,
      "hit": false,
      "t": 215475.74874999953,
      "d": 572.915492187487,
      "v": 64
    },
    {
      "midi": 56,
      "hit": false,
      "t": 215713.84349999952,
      "d": 128.9679895833251,
      "v": 69
    },
    {
      "midi": 56,
      "hit": false,
      "t": 215951.9382499995,
      "d": 109.12676041666418,
      "v": 61
    },
    {
      "midi": 61,
      "hit": false,
      "t": 215951.9382499995,
      "d": 156.24967968749115,
      "v": 55
    },
    {
      "midi": 44,
      "hit": false,
      "t": 216190.0329999995,
      "d": 200.89244531249278,
      "v": 46
    },
    {
      "midi": 63,
      "hit": false,
      "t": 216428.1277499995,
      "d": 181.05121614583186,
      "v": 62
    },
    {
      "midi": 56,
      "hit": false,
      "t": 216428.1277499995,
      "d": 190.97183072916232,
      "v": 79
    },
    {
      "midi": 61,
      "hit": false,
      "t": 216428.1277499995,
      "d": 195.9321380208421,
      "v": 63
    },
    {
      "midi": 44,
      "hit": false,
      "t": 216666.2224999995,
      "d": 94.24583854165394,
      "v": 43
    },
    {
      "midi": 49,
      "hit": false,
      "t": 217142.4119999995,
      "d": 250.4955182291742,
      "v": 71
    },
    {
      "midi": 65,
      "hit": false,
      "t": 217142.4119999995,
      "d": 458.8284244791721,
      "v": 71
    },
    {
      "midi": 56,
      "hit": false,
      "t": 217142.4119999995,
      "d": 481.14980729168747,
      "v": 91
    },
    {
      "midi": 61,
      "hit": false,
      "t": 217142.4119999995,
      "d": 538.1933411458449,
      "v": 76
    },
    {
      "midi": 37,
      "hit": false,
      "t": 217142.4119999995,
      "d": 1232.63636197921,
      "v": 67
    },
    {
      "midi": 49,
      "hit": false,
      "t": 217618.6014999995,
      "d": 768.8476302083582,
      "v": 71
    },
    {
      "midi": 56,
      "hit": false,
      "t": 217856.6962499995,
      "d": 153.7695260416658,
      "v": 61
    },
    {
      "midi": 56,
      "hit": false,
      "t": 218332.88574999952,
      "d": 205.85275260417257,
      "v": 73
    },
    {
      "midi": 65,
      "hit": false,
      "t": 218332.88574999952,
      "d": 250.4955182291742,
      "v": 67
    },
    {
      "midi": 61,
      "hit": false,
      "t": 218332.88574999952,
      "d": 265.37644010418444,
      "v": 66
    },
    {
      "midi": 49,
      "hit": false,
      "t": 218570.98049999954,
      "d": 133.9282968750049,
      "v": 47
    },
    {
      "midi": 37,
      "hit": false,
      "t": 218570.98049999954,
      "d": 141.36875781251,
      "v": 50
    },
    {
      "midi": 56,
      "hit": false,
      "t": 218809.07524999956,
      "d": 146.3290651041607,
      "v": 33
    },
    {
      "midi": 48,
      "hit": false,
      "t": 219047.16999999955,
      "d": 158.7298333333456,
      "v": 67
    },
    {
      "midi": 63,
      "hit": false,
      "t": 219047.16999999955,
      "d": 463.7887317708519,
      "v": 63
    },
    {
      "midi": 56,
      "hit": false,
      "t": 219047.16999999955,
      "d": 466.2688854166772,
      "v": 84
    },
    {
      "midi": 60,
      "hit": false,
      "t": 219047.16999999955,
      "d": 548.1139557291754,
      "v": 82
    },
    {
      "midi": 36,
      "hit": false,
      "t": 219047.16999999955,
      "d": 1334.32266145834,
      "v": 61
    },
    {
      "midi": 48,
      "hit": false,
      "t": 219523.35949999955,
      "d": 753.9667083333188,
      "v": 64
    },
    {
      "midi": 56,
      "hit": false,
      "t": 219761.45424999954,
      "d": 158.7298333333456,
      "v": 60
    },
    {
      "midi": 60,
      "hit": false,
      "t": 219999.54899999956,
      "d": 126.48783593749977,
      "v": 46
    },
    {
      "midi": 56,
      "hit": false,
      "t": 220237.64374999955,
      "d": 295.1382838541467,
      "v": 73
    },
    {
      "midi": 60,
      "hit": false,
      "t": 220237.64374999955,
      "d": 302.57874479165184,
      "v": 71
    },
    {
      "midi": 63,
      "hit": false,
      "t": 220237.64374999955,
      "d": 310.01920572915697,
      "v": 62
    },
    {
      "midi": 48,
      "hit": false,
      "t": 220475.73849999954,
      "d": 225.6939817708335,
      "v": 64
    },
    {
      "midi": 58,
      "hit": false,
      "t": 220713.83324999953,
      "d": 136.40845052083023,
      "v": 40
    },
    {
      "midi": 46,
      "hit": false,
      "t": 220951.92799999952,
      "d": 267.8565937499807,
      "v": 76
    },
    {
      "midi": 65,
      "hit": false,
      "t": 220951.92799999952,
      "d": 468.74903906247346,
      "v": 71
    },
    {
      "midi": 58,
      "hit": false,
      "t": 220951.92799999952,
      "d": 483.6299609374837,
      "v": 82
    },
    {
      "midi": 61,
      "hit": false,
      "t": 220951.92799999952,
      "d": 491.0704218749888,
      "v": 68
    },
    {
      "midi": 46,
      "hit": false,
      "t": 221428.1174999995,
      "d": 729.1651718750363,
      "v": 69
    },
    {
      "midi": 58,
      "hit": false,
      "t": 221666.21224999952,
      "d": 131.44814322917955,
      "v": 51
    },
    {
      "midi": 58,
      "hit": false,
      "t": 221904.30699999954,
      "d": 148.80921874998603,
      "v": 38
    },
    {
      "midi": 65,
      "hit": false,
      "t": 222142.40174999952,
      "d": 364.58258593751816,
      "v": 67
    },
    {
      "midi": 61,
      "hit": false,
      "t": 222142.40174999952,
      "d": 391.8642760416842,
      "v": 69
    },
    {
      "midi": 58,
      "hit": false,
      "t": 222142.40174999952,
      "d": 399.30473697918933,
      "v": 82
    },
    {
      "midi": 46,
      "hit": false,
      "t": 222380.49649999954,
      "d": 344.74135677082813,
      "v": 62
    },
    {
      "midi": 44,
      "hit": false,
      "t": 222856.68599999955,
      "d": 210.81305989585235,
      "v": 69
    },
    {
      "midi": 65,
      "hit": false,
      "t": 222856.68599999955,
      "d": 468.74903906250256,
      "v": 79
    },
    {
      "midi": 56,
      "hit": false,
      "t": 222856.68599999955,
      "d": 500.9910364583484,
      "v": 91
    },
    {
      "midi": 61,
      "hit": false,
      "t": 222856.68599999955,
      "d": 548.1139557291754,
      "v": 67
    },
    {
      "midi": 44,
      "hit": false,
      "t": 223332.87549999956,
      "d": 751.4865546874644,
      "v": 66
    },
    {
      "midi": 56,
      "hit": false,
      "t": 223570.97024999955,
      "d": 148.80921874998603,
      "v": 60
    },
    {
      "midi": 65,
      "hit": false,
      "t": 224047.15974999953,
      "d": 183.5313697916572,
      "v": 66
    },
    {
      "midi": 61,
      "hit": false,
      "t": 224047.15974999953,
      "d": 223.21382812497905,
      "v": 64
    },
    {
      "midi": 56,
      "hit": false,
      "t": 224047.15974999953,
      "d": 255.45582552082487,
      "v": 69
    },
    {
      "midi": 44,
      "hit": false,
      "t": 224285.25449999952,
      "d": 121.52752864584909,
      "v": 66
    },
    {
      "midi": 54,
      "hit": false,
      "t": 224523.34924999953,
      "d": 168.65044791667606,
      "v": 41
    },
    {
      "midi": 42,
      "hit": false,
      "t": 224761.44399999955,
      "d": 173.61075520832674,
      "v": 79
    },
    {
      "midi": 54,
      "hit": false,
      "t": 224761.44399999955,
      "d": 503.4711901041446,
      "v": 91
    },
    {
      "midi": 61,
      "hit": false,
      "t": 224761.44399999955,
      "d": 543.1536484374665,
      "v": 64
    },
    {
      "midi": 58,
      "hit": false,
      "t": 224761.44399999955,
      "d": 553.0742630207969,
      "v": 79
    },
    {
      "midi": 56,
      "hit": false,
      "t": 224761.44399999955,
      "d": 577.8757994791376,
      "v": 82
    },
    {
      "midi": 42,
      "hit": false,
      "t": 225237.63349999953,
      "d": 664.6811770833156,
      "v": 68
    },
    {
      "midi": 54,
      "hit": false,
      "t": 225475.72824999952,
      "d": 146.3290651041607,
      "v": 63
    },
    {
      "midi": 54,
      "hit": false,
      "t": 225951.9177499995,
      "d": 138.88860416665557,
      "v": 66
    },
    {
      "midi": 58,
      "hit": false,
      "t": 225951.9177499995,
      "d": 166.1702942708216,
      "v": 55
    },
    {
      "midi": 56,
      "hit": false,
      "t": 225951.9177499995,
      "d": 168.65044791664695,
      "v": 66
    },
    {
      "midi": 61,
      "hit": false,
      "t": 225951.9177499995,
      "d": 178.57106249997742,
      "v": 60
    },
    {
      "midi": 42,
      "hit": false,
      "t": 226190.0124999995,
      "d": 99.20614583333372,
      "v": 35
    },
    {
      "midi": 61,
      "hit": false,
      "t": 226666.2019999995,
      "d": 520.8322656250093,
      "v": 82
    },
    {
      "midi": 65,
      "hit": false,
      "t": 226666.2019999995,
      "d": 548.1139557291754,
      "v": 73
    },
    {
      "midi": 68,
      "hit": false,
      "t": 226666.2019999995,
      "d": 550.5941093750007,
      "v": 67
    },
    {
      "midi": 41,
      "hit": false,
      "t": 226666.2019999995,
      "d": 1249.9974375000165,
      "v": 58
    },
    {
      "midi": 53,
      "hit": false,
      "t": 227142.3914999995,
      "d": 798.6094739583496,
      "v": 55
    },
    {
      "midi": 61,
      "hit": false,
      "t": 227380.4862499995,
      "d": 193.45198437498766,
      "v": 56
    },
    {
      "midi": 65,
      "hit": false,
      "t": 227618.58099999948,
      "d": 106.64660677083884,
      "v": 45
    },
    {
      "midi": 65,
      "hit": false,
      "t": 227856.6757499995,
      "d": 208.332906250027,
      "v": 68
    },
    {
      "midi": 68,
      "hit": false,
      "t": 227856.6757499995,
      "d": 218.25352083335747,
      "v": 66
    },
    {
      "midi": 61,
      "hit": false,
      "t": 227856.6757499995,
      "d": 238.0947500000184,
      "v": 79
    },
    {
      "midi": 41,
      "hit": false,
      "t": 228094.77049999952,
      "d": 69.44430208334234,
      "v": 30
    },
    {
      "midi": 51,
      "hit": false,
      "t": 228570.95999999953,
      "d": 116.5672213541693,
      "v": 58
    },
    {
      "midi": 58,
      "hit": false,
      "t": 228570.95999999953,
      "d": 461.30857812499744,
      "v": 82
    },
    {
      "midi": 63,
      "hit": false,
      "t": 228570.95999999953,
      "d": 515.8719583333295,
      "v": 64
    },
    {
      "midi": 66,
      "hit": false,
      "t": 228570.95999999953,
      "d": 518.3521119791549,
      "v": 61
    },
    {
      "midi": 61,
      "hit": false,
      "t": 228570.95999999953,
      "d": 528.2727265624853,
      "v": 66
    },
    {
      "midi": 39,
      "hit": false,
      "t": 228570.95999999953,
      "d": 1401.2868098957988,
      "v": 60
    },
    {
      "midi": 51,
      "hit": false,
      "t": 229047.14949999953,
      "d": 835.8117786457879,
      "v": 64
    },
    {
      "midi": 58,
      "hit": false,
      "t": 229285.24424999952,
      "d": 148.80921874998603,
      "v": 62
    },
    {
      "midi": 61,
      "hit": false,
      "t": 229523.3389999995,
      "d": 91.7656848958286,
      "v": 19
    },
    {
      "midi": 63,
      "hit": false,
      "t": 229761.4337499995,
      "d": 228.17413541665883,
      "v": 56
    },
    {
      "midi": 61,
      "hit": false,
      "t": 229761.4337499995,
      "d": 250.4955182291451,
      "v": 62
    },
    {
      "midi": 58,
      "hit": false,
      "t": 229761.4337499995,
      "d": 270.336747395806,
      "v": 73
    },
    {
      "midi": 66,
      "hit": false,
      "t": 229761.4337499995,
      "d": 285.21766927081626,
      "v": 60
    },
    {
      "midi": 51,
      "hit": false,
      "t": 229999.5284999995,
      "d": 265.37644010415534,
      "v": 58
    },
    {
      "midi": 44,
      "hit": false,
      "t": 230475.71799999947,
      "d": 168.65044791667606,
      "v": 55
    },
    {
      "midi": 56,
      "hit": false,
      "t": 230475.71799999947,
      "d": 354.6619713541586,
      "v": 71
    },
    {
      "midi": 68,
      "hit": false,
      "t": 230475.71799999947,
      "d": 466.2688854166481,
      "v": 66
    },
    {
      "midi": 63,
      "hit": false,
      "t": 230475.71799999947,
      "d": 476.1894999999786,
      "v": 58
    },
    {
      "midi": 61,
      "hit": false,
      "t": 230475.71799999947,
      "d": 491.0704218749888,
      "v": 62
    },
    {
      "midi": 44,
      "hit": false,
      "t": 230713.8127499995,
      "d": 126.48783593747066,
      "v": 56
    },
    {
      "midi": 44,
      "hit": false,
      "t": 230951.90749999945,
      "d": 463.7887317708519,
      "v": 63
    },
    {
      "midi": 56,
      "hit": false,
      "t": 231190.00224999947,
      "d": 121.52752864581998,
      "v": 69
    },
    {
      "midi": 61,
      "hit": false,
      "t": 231428.09699999946,
      "d": 106.64660677083884,
      "v": 47
    },
    {
      "midi": 68,
      "hit": false,
      "t": 231666.19174999947,
      "d": 302.57874479165184,
      "v": 71
    },
    {
      "midi": 63,
      "hit": false,
      "t": 231666.19174999947,
      "d": 314.97951302080764,
      "v": 66
    },
    {
      "midi": 61,
      "hit": false,
      "t": 231666.19174999947,
      "d": 337.300895833323,
      "v": 67
    },
    {
      "midi": 56,
      "hit": false,
      "t": 231666.19174999947,
      "d": 342.2612031250028,
      "v": 73
    },
    {
      "midi": 44,
      "hit": false,
      "t": 231904.28649999946,
      "d": 91.7656848958286,
      "v": 53
    },
    {
      "midi": 80,
      "hit": false,
      "t": 232380.47599999947,
      "d": 262.89628645833,
      "v": 76
    },
    {
      "midi": 70,
      "hit": false,
      "t": 232380.47599999947,
      "d": 305.0588984375063,
      "v": 82
    },
    {
      "midi": 42,
      "hit": false,
      "t": 232380.47599999947,
      "d": 1113.5889869791863,
      "v": 64
    },
    {
      "midi": 49,
      "hit": false,
      "t": 232618.57074999946,
      "d": 374.5032005208486,
      "v": 46
    },
    {
      "midi": 70,
      "hit": false,
      "t": 232856.66549999948,
      "d": 121.52752864581998,
      "v": 64
    },
    {
      "midi": 73,
      "hit": false,
      "t": 232856.66549999948,
      "d": 128.9679895833251,
      "v": 58
    },
    {
      "midi": 70,
      "hit": false,
      "t": 233094.76024999947,
      "d": 225.6939817708335,
      "v": 67
    },
    {
      "midi": 73,
      "hit": false,
      "t": 233094.76024999947,
      "d": 233.1344427083386,
      "v": 66
    },
    {
      "midi": 54,
      "hit": false,
      "t": 233332.8549999995,
      "d": 126.48783593749977,
      "v": 22
    },
    {
      "midi": 80,
      "hit": false,
      "t": 233570.9497499995,
      "d": 109.12676041666418,
      "v": 79
    },
    {
      "midi": 70,
      "hit": false,
      "t": 233570.9497499995,
      "d": 121.52752864581998,
      "v": 79
    },
    {
      "midi": 61,
      "hit": false,
      "t": 234285.23399999947,
      "d": 190.97183072916232,
      "v": 53
    },
    {
      "midi": 58,
      "hit": false,
      "t": 234285.23399999947,
      "d": 230.65428906248417,
      "v": 67
    },
    {
      "midi": 68,
      "hit": false,
      "t": 234285.23399999947,
      "d": 235.61459635416395,
      "v": 62
    },
    {
      "midi": 46,
      "hit": false,
      "t": 234285.23399999947,
      "d": 592.756721354177,
      "v": 43
    },
    {
      "midi": 58,
      "hit": false,
      "t": 234761.42349999948,
      "d": 84.32522395832348,
      "v": 28
    },
    {
      "midi": 61,
      "hit": false,
      "t": 234761.42349999948,
      "d": 101.68629947915906,
      "v": 55
    },
    {
      "midi": 53,
      "hit": false,
      "t": 234761.42349999948,
      "d": 111.60691406248952,
      "v": 46
    },
    {
      "midi": 46,
      "hit": false,
      "t": 234999.51824999947,
      "d": 238.0947499999893,
      "v": 62
    },
    {
      "midi": 53,
      "hit": false,
      "t": 234999.51824999947,
      "d": 252.97567187499953,
      "v": 66
    },
    {
      "midi": 61,
      "hit": false,
      "t": 234999.51824999947,
      "d": 260.41613281250466,
      "v": 82
    },
    {
      "midi": 58,
      "hit": false,
      "t": 234999.51824999947,
      "d": 275.2970546875149,
      "v": 67
    },
    {
      "midi": 46,
      "hit": false,
      "t": 235951.89724999949,
      "d": 297.61843750000116,
      "v": 55
    },
    {
      "midi": 51,
      "hit": false,
      "t": 236189.99199999947,
      "d": 319.93982031251653,
      "v": 42
    },
    {
      "midi": 68,
      "hit": false,
      "t": 236189.99199999947,
      "d": 409.2253515625198,
      "v": 60
    },
    {
      "midi": 58,
      "hit": false,
      "t": 236189.99199999947,
      "d": 419.14596614585025,
      "v": 63
    },
    {
      "midi": 61,
      "hit": false,
      "t": 236189.99199999947,
      "d": 431.54673437500605,
      "v": 60
    },
    {
      "midi": 39,
      "hit": false,
      "t": 236189.99199999947,
      "d": 1510.413570312492,
      "v": 57
    },
    {
      "midi": 51,
      "hit": false,
      "t": 236666.18149999948,
      "d": 270.3367473958351,
      "v": 48
    },
    {
      "midi": 61,
      "hit": false,
      "t": 236904.27624999947,
      "d": 225.6939817708335,
      "v": 56
    },
    {
      "midi": 58,
      "hit": false,
      "t": 236904.27624999947,
      "d": 270.3367473958351,
      "v": 62
    },
    {
      "midi": 66,
      "hit": false,
      "t": 236904.27624999947,
      "d": 290.17797656249604,
      "v": 63
    },
    {
      "midi": 51,
      "hit": false,
      "t": 237142.37099999946,
      "d": 515.8719583333295,
      "v": 32
    },
    {
      "midi": 65,
      "hit": false,
      "t": 237618.56049999947,
      "d": 156.24967968749115,
      "v": 66
    },
    {
      "midi": 58,
      "hit": false,
      "t": 237618.56049999947,
      "d": 173.61075520832674,
      "v": 55
    },
    {
      "midi": 61,
      "hit": false,
      "t": 238094.74999999948,
      "d": 342.2612031250028,
      "v": 61
    },
    {
      "midi": 66,
      "hit": false,
      "t": 238094.74999999948,
      "d": 374.5032005208486,
      "v": 53
    },
    {
      "midi": 58,
      "hit": false,
      "t": 238094.74999999948,
      "d": 376.98335416667396,
      "v": 63
    },
    {
      "midi": 44,
      "hit": false,
      "t": 238094.74999999948,
      "d": 1388.886041666672,
      "v": 52
    },
    {
      "midi": 65,
      "hit": false,
      "t": 238809.03424999947,
      "d": 203.37259895834723,
      "v": 58
    },
    {
      "midi": 58,
      "hit": false,
      "t": 238809.03424999947,
      "d": 292.6581302083505,
      "v": 42
    },
    {
      "midi": 61,
      "hit": false,
      "t": 239285.22374999948,
      "d": 124.00768229167443,
      "v": 55
    },
    {
      "midi": 58,
      "hit": false,
      "t": 239285.22374999948,
      "d": 210.81305989582324,
      "v": 46
    },
    {
      "midi": 53,
      "hit": false,
      "t": 239999.50799999948,
      "d": 605.1574895833328,
      "v": 48
    },
    {
      "midi": 61,
      "hit": false,
      "t": 239999.50799999948,
      "d": 654.7605624999851,
      "v": 62
    },
    {
      "midi": 56,
      "hit": false,
      "t": 239999.50799999948,
      "d": 679.5620989583258,
      "v": 50
    },
    {
      "midi": 37,
      "hit": false,
      "t": 239999.50799999948,
      "d": 1143.3508307291777,
      "v": 36
    },
    {
      "midi": 49,
      "hit": false,
      "t": 240475.69749999949,
      "d": 587.7964140624972,
      "v": 35
    },
    {
      "midi": 53,
      "hit": false,
      "t": 240713.79224999947,
      "d": 141.36875781251,
      "v": 43
    },
    {
      "midi": 56,
      "hit": false,
      "t": 240951.8869999995,
      "d": 156.24967968749115,
      "v": 32
    },
    {
      "midi": 54,
      "hit": false,
      "t": 241189.98174999948,
      "d": 302.57874479165184,
      "v": 82
    },
    {
      "midi": 61,
      "hit": false,
      "t": 241189.98174999948,
      "d": 305.0588984374772,
      "v": 61
    },
    {
      "midi": 58,
      "hit": false,
      "t": 241189.98174999948,
      "d": 307.5390520833025,
      "v": 67
    },
    {
      "midi": 42,
      "hit": false,
      "t": 241189.98174999948,
      "d": 367.0627395833144,
      "v": 53
    },
    {
      "midi": 49,
      "hit": false,
      "t": 241859.62323437448,
      "d": 3943.444296874979,
      "v": 34
    },
    {
      "midi": 53,
      "hit": false,
      "t": 241869.5438489578,
      "d": 3906.2419921874825,
      "v": 37
    },
    {
      "midi": 37,
      "hit": false,
      "t": 241904.26599999948,
      "d": 4002.967984374991,
      "v": 28
    },
    {
      "midi": 56,
      "hit": false,
      "t": 241958.8293802078,
      "d": 3826.8770755208097,
      "v": 46
    },
    {
      "midi": 61,
      "hit": false,
      "t": 241998.51183854113,
      "d": 3802.075539062498,
      "v": 53
    }
  ]
}