{
  "jsonPath": "Latin/Latin/Enrique Iglesias/do-you-know-the-ping-pong-song.json",
  "path": "Latin\\Latin\\Enrique Iglesias\\Do You Know (The Ping Pong Song).mid",
  "name": "Do You Know (The Ping Pong Song)",
  "difficulty": "Advanced",
  "bpm": 132.000132000132,
  "notes": [
    {
      "midi": 57,
      "hit": false,
      "t": 59999.94,
      "d": 108.90140624999913,
      "v": 127
    },
    {
      "midi": 64,
      "hit": false,
      "t": 59999.94,
      "d": 108.90140624999913,
      "v": 127
    },
    {
      "midi": 69,
      "hit": false,
      "t": 59999.94,
      "d": 108.90140624999913,
      "v": 127
    },
    {
      "midi": 57,
      "hit": false,
      "t": 67272.66,
      "d": 108.9014062500064,
      "v": 127
    },
    {
      "midi": 64,
      "hit": false,
      "t": 67272.66,
      "d": 108.9014062500064,
      "v": 127
    },
    {
      "midi": 69,
      "hit": false,
      "t": 67272.66,
      "d": 108.9014062500064,
      "v": 127
    },
    {
      "midi": 57,
      "hit": false,
      "t": 74545.38,
      "d": 108.9014062500064,
      "v": 127
    },
    {
      "midi": 64,
      "hit": false,
      "t": 74545.38,
      "d": 108.9014062500064,
      "v": 127
    },
    {
      "midi": 69,
      "hit": false,
      "t": 74545.38,
      "d": 108.9014062500064,
      "v": 127
    },
    {
      "midi": 57,
      "hit": false,
      "t": 110908.98000000001,
      "d": 1482.0060937499948,
      "v": 127
    },
    {
      "midi": 69,
      "hit": false,
      "t": 110908.98000000001,
      "d": 1482.0060937499948,
      "v": 127
    },
    {
      "midi": 64,
      "hit": false,
      "t": 110908.98000000001,
      "d": 1491.4757812499884,
      "v": 127
    },
    {
      "midi": 76,
      "hit": false,
      "t": 110908.98000000001,
      "d": 1491.4757812499884,
      "v": 127
    },
    {
      "midi": 56,
      "hit": false,
      "t": 112727.16,
      "d": 1273.6729687500047,
      "v": 127
    },
    {
      "midi": 68,
      "hit": false,
      "t": 112727.16,
      "d": 1273.6729687500047,
      "v": 127
    },
    {
      "midi": 64,
      "hit": false,
      "t": 112727.16,
      "d": 1292.6123437500064,
      "v": 127
    },
    {
      "midi": 76,
      "hit": false,
      "t": 112727.16,
      "d": 1292.6123437500064,
      "v": 127
    },
    {
      "midi": 54,
      "hit": false,
      "t": 114545.34000000001,
      "d": 1283.1426562499983,
      "v": 127
    },
    {
      "midi": 66,
      "hit": false,
      "t": 114545.34000000001,
      "d": 1283.1426562499983,
      "v": 127
    },
    {
      "midi": 61,
      "hit": false,
      "t": 114545.34000000001,
      "d": 1292.6123437499919,
      "v": 127
    },
    {
      "midi": 73,
      "hit": false,
      "t": 114545.34000000001,
      "d": 1292.6123437499919,
      "v": 127
    },
    {
      "midi": 54,
      "hit": false,
      "t": 116363.52,
      "d": 1373.104687500003,
      "v": 127
    },
    {
      "midi": 66,
      "hit": false,
      "t": 116363.52,
      "d": 1373.104687500003,
      "v": 127
    },
    {
      "midi": 62,
      "hit": false,
      "t": 116363.52,
      "d": 1396.7789062500087,
      "v": 127
    },
    {
      "midi": 74,
      "hit": false,
      "t": 116363.52,
      "d": 1396.7789062500087,
      "v": 127
    },
    {
      "midi": 57,
      "hit": false,
      "t": 118181.70000000001,
      "d": 1482.0060937499948,
      "v": 127
    },
    {
      "midi": 69,
      "hit": false,
      "t": 118181.70000000001,
      "d": 1482.0060937499948,
      "v": 127
    },
    {
      "midi": 64,
      "hit": false,
      "t": 118181.70000000001,
      "d": 1491.4757812499884,
      "v": 127
    },
    {
      "midi": 76,
      "hit": false,
      "t": 118181.70000000001,
      "d": 1491.4757812499884,
      "v": 127
    },
    {
      "midi": 65,
      "hit": false,
      "t": 119999.88,
      "d": 1273.6729687500047,
      "v": 127
    },
    {
      "midi": 77,
      "hit": false,
      "t": 119999.88,
      "d": 1273.6729687500047,
      "v": 127
    },
    {
      "midi": 73,
      "hit": false,
      "t": 119999.88,
      "d": 1292.6123437500064,
      "v": 127
    },
    {
      "midi": 61,
      "hit": false,
      "t": 119999.88,
      "d": 1373.104687500003,
      "v": 127
    },
    {
      "midi": 54,
      "hit": false,
      "t": 121818.06000000001,
      "d": 1283.1426562499983,
      "v": 127
    },
    {
      "midi": 66,
      "hit": false,
      "t": 121818.06000000001,
      "d": 1283.1426562499983,
      "v": 127
    },
    {
      "midi": 61,
      "hit": false,
      "t": 121818.06000000001,
      "d": 1292.6123437499919,
      "v": 127
    },
    {
      "midi": 73,
      "hit": false,
      "t": 121818.06000000001,
      "d": 1292.6123437499919,
      "v": 127
    },
    {
      "midi": 54,
      "hit": false,
      "t": 123636.24,
      "d": 1373.104687500003,
      "v": 127
    },
    {
      "midi": 66,
      "hit": false,
      "t": 123636.24,
      "d": 1373.104687500003,
      "v": 127
    },
    {
      "midi": 62,
      "hit": false,
      "t": 123636.24,
      "d": 1396.7789062500087,
      "v": 127
    },
    {
      "midi": 74,
      "hit": false,
      "t": 123636.24,
      "d": 1396.7789062500087,
      "v": 127
    },
    {
      "midi": 57,
      "hit": false,
      "t": 125454.42000000001,
      "d": 1482.0060937499948,
      "v": 127
    },
    {
      "midi": 69,
      "hit": false,
      "t": 125454.42000000001,
      "d": 1482.0060937499948,
      "v": 127
    },
    {
      "midi": 64,
      "hit": false,
      "t": 125454.42000000001,
      "d": 1491.4757812499884,
      "v": 127
    },
    {
      "midi": 76,
      "hit": false,
      "t": 125454.42000000001,
      "d": 1491.4757812499884,
      "v": 127
    },
    {
      "midi": 56,
      "hit": false,
      "t": 127272.6,
      "d": 1273.6729687500047,
      "v": 127
    },
    {
      "midi": 68,
      "hit": false,
      "t": 127272.6,
      "d": 1273.6729687500047,
      "v": 127
    },
    {
      "midi": 64,
      "hit": false,
      "t": 127272.6,
      "d": 1292.6123437500064,
      "v": 127
    },
    {
      "midi": 76,
      "hit": false,
      "t": 127272.6,
      "d": 1292.6123437500064,
      "v": 127
    },
    {
      "midi": 54,
      "hit": false,
      "t": 129090.78000000001,
      "d": 1283.1426562499983,
      "v": 127
    },
    {
      "midi": 66,
      "hit": false,
      "t": 129090.78000000001,
      "d": 1283.1426562499983,
      "v": 127
    },
    {
      "midi": 61,
      "hit": false,
      "t": 129090.78000000001,
      "d": 1292.6123437499919,
      "v": 127
    },
    {
      "midi": 73,
      "hit": false,
      "t": 129090.78000000001,
      "d": 1292.6123437499919,
      "v": 127
    },
    {
      "midi": 54,
      "hit": false,
      "t": 130908.96,
      "d": 1373.104687500003,
      "v": 127
    },
    {
      "midi": 66,
      "hit": false,
      "t": 130908.96,
      "d": 1373.104687500003,
      "v": 127
    },
    {
      "midi": 62,
      "hit": false,
      "t": 130908.96,
      "d": 1396.7789062500087,
      "v": 127
    },
    {
      "midi": 74,
      "hit": false,
      "t": 130908.96,
      "d": 1396.7789062500087,
      "v": 127
    },
    {
      "midi": 57,
      "hit": false,
      "t": 161818.02000000002,
      "d": 1482.0060937500093,
      "v": 127
    },
    {
      "midi": 69,
      "hit": false,
      "t": 161818.02000000002,
      "d": 1482.0060937500093,
      "v": 127
    },
    {
      "midi": 64,
      "hit": false,
      "t": 161818.02000000002,
      "d": 1491.4757812500175,
      "v": 127
    },
    {
      "midi": 76,
      "hit": false,
      "t": 161818.02000000002,
      "d": 1491.4757812500175,
      "v": 127
    },
    {
      "midi": 56,
      "hit": false,
      "t": 163636.20000000004,
      "d": 1273.6729687500047,
      "v": 127
    },
    {
      "midi": 68,
      "hit": false,
      "t": 163636.20000000004,
      "d": 1273.6729687500047,
      "v": 127
    },
    {
      "midi": 64,
      "hit": false,
      "t": 163636.20000000004,
      "d": 1292.6123437499919,
      "v": 127
    },
    {
      "midi": 76,
      "hit": false,
      "t": 163636.20000000004,
      "d": 1292.6123437499919,
      "v": 127
    },
    {
      "midi": 54,
      "hit": false,
      "t": 165454.38000000003,
      "d": 1283.1426562500128,
      "v": 127
    },
    {
      "midi": 66,
      "hit": false,
      "t": 165454.38000000003,
      "d": 1283.1426562500128,
      "v": 127
    },
    {
      "midi": 61,
      "hit": false,
      "t": 165454.38000000003,
      "d": 1292.612343750021,
      "v": 127
    },
    {
      "midi": 73,
      "hit": false,
      "t": 165454.38000000003,
      "d": 1292.612343750021,
      "v": 127
    },
    {
      "midi": 54,
      "hit": false,
      "t": 167272.56000000006,
      "d": 1373.1046874999884,
      "v": 127
    },
    {
      "midi": 66,
      "hit": false,
      "t": 167272.56000000006,
      "d": 1373.1046874999884,
      "v": 127
    },
    {
      "midi": 62,
      "hit": false,
      "t": 167272.56000000006,
      "d": 1396.7789062499942,
      "v": 127
    },
    {
      "midi": 74,
      "hit": false,
      "t": 167272.56000000006,
      "d": 1396.7789062499942,
      "v": 127
    },
    {
      "midi": 57,
      "hit": false,
      "t": 169090.74000000005,
      "d": 1482.0060937500093,
      "v": 127
    },
    {
      "midi": 69,
      "hit": false,
      "t": 169090.74000000005,
      "d": 1482.0060937500093,
      "v": 127
    },
    {
      "midi": 64,
      "hit": false,
      "t": 169090.74000000005,
      "d": 1491.4757812500175,
      "v": 127
    },
    {
      "midi": 76,
      "hit": false,
      "t": 169090.74000000005,
      "d": 1491.4757812500175,
      "v": 127
    },
    {
      "midi": 61,
      "hit": false,
      "t": 170908.92000000007,
      "d": 1373.1046874999884,
      "v": 127
    },
    {
      "midi": 65,
      "hit": false,
      "t": 170908.92000000007,
      "d": 1818.179999999993,
      "v": 127
    },
    {
      "midi": 73,
      "hit": false,
      "t": 170908.92000000007,
      "d": 1818.179999999993,
      "v": 127
    },
    {
      "midi": 77,
      "hit": false,
      "t": 170908.92000000007,
      "d": 1818.179999999993,
      "v": 127
    },
    {
      "midi": 54,
      "hit": false,
      "t": 172727.10000000006,
      "d": 1283.1426562500128,
      "v": 127
    },
    {
      "midi": 66,
      "hit": false,
      "t": 172727.10000000006,
      "d": 1283.1426562500128,
      "v": 127
    },
    {
      "midi": 61,
      "hit": false,
      "t": 172727.10000000006,
      "d": 1292.612343750021,
      "v": 127
    },
    {
      "midi": 73,
      "hit": false,
      "t": 172727.10000000006,
      "d": 1292.612343750021,
      "v": 127
    },
    {
      "midi": 54,
      "hit": false,
      "t": 174545.2800000001,
      "d": 1373.1046874999884,
      "v": 127
    },
    {
      "midi": 66,
      "hit": false,
      "t": 174545.2800000001,
      "d": 1373.1046874999884,
      "v": 127
    },
    {
      "midi": 62,
      "hit": false,
      "t": 174545.2800000001,
      "d": 1396.7789062499942,
      "v": 127
    },
    {
      "midi": 74,
      "hit": false,
      "t": 174545.2800000001,
      "d": 1396.7789062499942,
      "v": 127
    },
    {
      "midi": 57,
      "hit": false,
      "t": 176363.46000000008,
      "d": 1482.0060937500093,
      "v": 127
    },
    {
      "midi": 69,
      "hit": false,
      "t": 176363.46000000008,
      "d": 1482.0060937500093,
      "v": 127
    },
    {
      "midi": 64,
      "hit": false,
      "t": 176363.46000000008,
      "d": 1491.4757812500175,
      "v": 127
    },
    {
      "midi": 76,
      "hit": false,
      "t": 176363.46000000008,
      "d": 1491.4757812500175,
      "v": 127
    },
    {
      "midi": 56,
      "hit": false,
      "t": 178181.6400000001,
      "d": 1273.6729687500047,
      "v": 127
    },
    {
      "midi": 68,
      "hit": false,
      "t": 178181.6400000001,
      "d": 1273.6729687500047,
      "v": 127
    },
    {
      "midi": 64,
      "hit": false,
      "t": 178181.6400000001,
      "d": 1292.6123437499919,
      "v": 127
    },
    {
      "midi": 76,
      "hit": false,
      "t": 178181.6400000001,
      "d": 1292.6123437499919,
      "v": 127
    },
    {
      "midi": 54,
      "hit": false,
      "t": 179999.8200000001,
      "d": 1283.1426562500128,
      "v": 127
    },
    {
      "midi": 66,
      "hit": false,
      "t": 179999.8200000001,
      "d": 1283.1426562500128,
      "v": 127
    },
    {
      "midi": 61,
      "hit": false,
      "t": 179999.8200000001,
      "d": 1292.612343750021,
      "v": 127
    },
    {
      "midi": 73,
      "hit": false,
      "t": 179999.8200000001,
      "d": 1292.612343750021,
      "v": 127
    },
    {
      "midi": 54,
      "hit": false,
      "t": 181818.00000000012,
      "d": 1373.1046874999884,
      "v": 127
    },
    {
      "midi": 66,
      "hit": false,
      "t": 181818.00000000012,
      "d": 1373.1046874999884,
      "v": 127
    },
    {
      "midi": 62,
      "hit": false,
      "t": 181818.00000000012,
      "d": 1396.7789062499942,
      "v": 127
    },
    {
      "midi": 74,
      "hit": false,
      "t": 181818.00000000012,
      "d": 1396.7789062499942,
      "v": 127
    },
    {
      "midi": 57,
      "hit": false,
      "t": 183636.1800000001,
      "d": 1482.0060937500093,
      "v": 127
    },
    {
      "midi": 69,
      "hit": false,
      "t": 183636.1800000001,
      "d": 1482.0060937500093,
      "v": 127
    },
    {
      "midi": 64,
      "hit": false,
      "t": 183636.1800000001,
      "d": 1491.4757812500175,
      "v": 127
    },
    {
      "midi": 76,
      "hit": false,
      "t": 183636.1800000001,
      "d": 1491.4757812500175,
      "v": 127
    },
    {
      "midi": 56,
      "hit": false,
      "t": 185454.36000000013,
      "d": 1273.6729687500047,
      "v": 127
    },
    {
      "midi": 68,
      "hit": false,
      "t": 185454.36000000013,
      "d": 1273.6729687500047,
      "v": 127
    },
    {
      "midi": 64,
      "hit": false,
      "t": 185454.36000000013,
      "d": 1292.6123437499919,
      "v": 127
    },
    {
      "midi": 76,
      "hit": false,
      "t": 185454.36000000013,
      "d": 1292.6123437499919,
      "v": 127
    },
    {
      "midi": 54,
      "hit": false,
      "t": 187272.54000000012,
      "d": 1283.1426562500128,
      "v": 127
    },
    {
      "midi": 66,
      "hit": false,
      "t": 187272.54000000012,
      "d": 1283.1426562500128,
      "v": 127
    },
    {
      "midi": 61,
      "hit": false,
      "t": 187272.54000000012,
      "d": 1292.612343750021,
      "v": 127
    },
    {
      "midi": 73,
      "hit": false,
      "t": 187272.54000000012,
      "d": 1292.612343750021,
      "v": 127
    },
    {
      "midi": 54,
      "hit": false,
      "t": 189090.72000000015,
      "d": 1373.1046874999884,
      "v": 127
    },
    {
      "midi": 66,
      "hit": false,
      "t": 189090.72000000015,
      "d": 1373.1046874999884,
      "v": 127
    },
    {
      "midi": 62,
      "hit": false,
      "t": 189090.72000000015,
      "d": 1396.7789062499942,
      "v": 127
    },
    {
      "midi": 74,
      "hit": false,
      "t": 189090.72000000015,
      "d": 1396.7789062499942,
      "v": 127
    },
    {
      "midi": 57,
      "hit": false,
      "t": 190908.90000000014,
      "d": 1482.0060937500093,
      "v": 127
    },
    {
      "midi": 69,
      "hit": false,
      "t": 190908.90000000014,
      "d": 1482.0060937500093,
      "v": 127
    },
    {
      "midi": 64,
      "hit": false,
      "t": 190908.90000000014,
      "d": 1491.4757812500175,
      "v": 127
    },
    {
      "midi": 76,
      "hit": false,
      "t": 190908.90000000014,
      "d": 1491.4757812500175,
      "v": 127
    },
    {
      "midi": 61,
      "hit": false,
      "t": 192727.08000000016,
      "d": 1373.1046874999884,
      "v": 127
    },
    {
      "midi": 65,
      "hit": false,
      "t": 192727.08000000016,
      "d": 1818.179999999993,
      "v": 127
    },
    {
      "midi": 73,
      "hit": false,
      "t": 192727.08000000016,
      "d": 1818.179999999993,
      "v": 127
    },
    {
      "midi": 77,
      "hit": false,
      "t": 192727.08000000016,
      "d": 1818.179999999993,
      "v": 127
    },
    {
      "midi": 54,
      "hit": false,
      "t": 194545.26000000015,
      "d": 1283.1426562500128,
      "v": 127
    },
    {
      "midi": 66,
      "hit": false,
      "t": 194545.26000000015,
      "d": 1283.1426562500128,
      "v": 127
    },
    {
      "midi": 61,
      "hit": false,
      "t": 194545.26000000015,
      "d": 1292.612343750021,
      "v": 127
    },
    {
      "midi": 73,
      "hit": false,
      "t": 194545.26000000015,
      "d": 1292.612343750021,
      "v": 127
    },
    {
      "midi": 54,
      "hit": false,
      "t": 196363.44000000018,
      "d": 1373.1046874999884,
      "v": 127
    },
    {
      "midi": 66,
      "hit": false,
      "t": 196363.44000000018,
      "d": 1373.1046874999884,
      "v": 127
    },
    {
      "midi": 62,
      "hit": false,
      "t": 196363.44000000018,
      "d": 1396.7789062499942,
      "v": 127
    },
    {
      "midi": 74,
      "hit": false,
      "t": 196363.44000000018,
      "d": 1396.7789062499942,
      "v": 127
    },
    {
      "midi": 57,
      "hit": false,
      "t": 198181.62000000017,
      "d": 1482.0060937500093,
      "v": 127
    },
    {
      "midi": 69,
      "hit": false,
      "t": 198181.62000000017,
      "d": 1482.0060937500093,
      "v": 127
    },
    {
      "midi": 64,
      "hit": false,
      "t": 198181.62000000017,
      "d": 1491.4757812500175,
      "v": 127
    },
    {
      "midi": 76,
      "hit": false,
      "t": 198181.62000000017,
      "d": 1491.4757812500175,
      "v": 127
    },
    {
      "midi": 56,
      "hit": false,
      "t": 199999.8000000002,
      "d": 1273.6729687500047,
      "v": 127
    },
    {
      "midi": 68,
      "hit": false,
      "t": 199999.8000000002,
      "d": 1273.6729687500047,
      "v": 127
    },
    {
      "midi": 64,
      "hit": false,
      "t": 199999.8000000002,
      "d": 1292.6123437499919,
      "v": 127
    },
    {
      "midi": 76,
      "hit": false,
      "t": 199999.8000000002,
      "d": 1292.6123437499919,
      "v": 127
    },
    {
      "midi": 54,
      "hit": false,
      "t": 201817.98000000019,
      "d": 1283.1426562500128,
      "v": 127
    },
    {
      "midi": 66,
      "hit": false,
      "t": 201817.98000000019,
      "d": 1283.1426562500128,
      "v": 127
    },
    {
      "midi": 61,
      "hit": false,
      "t": 201817.98000000019,
      "d": 1292.612343750021,
      "v": 127
    },
    {
      "midi": 73,
      "hit": false,
      "t": 201817.98000000019,
      "d": 1292.612343750021,
      "v": 127
    },
    {
      "midi": 54,
      "hit": false,
      "t": 203636.1600000002,
      "d": 1373.1046874999884,
      "v": 127
    },
    {
      "midi": 66,
      "hit": false,
      "t": 203636.1600000002,
      "d": 1373.1046874999884,
      "v": 127
    },
    {
      "midi": 62,
      "hit": false,
      "t": 203636.1600000002,
      "d": 1396.7789062499942,
      "v": 127
    },
    {
      "midi": 74,
      "hit": false,
      "t": 203636.1600000002,
      "d": 1396.7789062499942,
      "v": 127
    },
    {
      "midi": 54,
      "hit": false,
      "t": 205468.5445312502,
      "d": 1818.179999999993,
      "v": 127
    },
    {
      "midi": 66,
      "hit": false,
      "t": 205468.5445312502,
      "d": 1818.179999999993,
      "v": 127
    },
    {
      "midi": 78,
      "hit": false,
      "t": 205468.5445312502,
      "d": 1818.179999999993,
      "v": 127
    },
    {
      "midi": 50,
      "hit": false,
      "t": 207267.7851562502,
      "d": 1818.179999999993,
      "v": 127
    },
    {
      "midi": 62,
      "hit": false,
      "t": 207267.7851562502,
      "d": 1818.179999999993,
      "v": 127
    },
    {
      "midi": 74,
      "hit": false,
      "t": 207267.7851562502,
      "d": 1818.179999999993,
      "v": 127
    },
    {
      "midi": 57,
      "hit": false,
      "t": 209085.9651562502,
      "d": 1818.179999999993,
      "v": 127
    },
    {
      "midi": 69,
      "hit": false,
      "t": 209085.9651562502,
      "d": 1818.179999999993,
      "v": 127
    },
    {
      "midi": 81,
      "hit": false,
      "t": 209085.9651562502,
      "d": 1818.179999999993,
      "v": 127
    },
    {
      "midi": 52,
      "hit": false,
      "t": 210908.88000000018,
      "d": 1818.179999999993,
      "v": 127
    },
    {
      "midi": 64,
      "hit": false,
      "t": 210908.88000000018,
      "d": 1818.179999999993,
      "v": 127
    },
    {
      "midi": 76,
      "hit": false,
      "t": 210908.88000000018,
      "d": 1818.179999999993,
      "v": 127
    },
    {
      "midi": 57,
      "hit": false,
      "t": 234545.22000000018,
      "d": 1482.0060937500093,
      "v": 127
    },
    {
      "midi": 69,
      "hit": false,
      "t": 234545.22000000018,
      "d": 1482.0060937500093,
      "v": 127
    },
    {
      "midi": 64,
      "hit": false,
      "t": 234545.22000000018,
      "d": 1491.4757812500175,
      "v": 127
    },
    {
      "midi": 76,
      "hit": false,
      "t": 234545.22000000018,
      "d": 1491.4757812500175,
      "v": 127
    },
    {
      "midi": 56,
      "hit": false,
      "t": 236363.4000000002,
      "d": 1273.6729687500047,
      "v": 127
    },
    {
      "midi": 68,
      "hit": false,
      "t": 236363.4000000002,
      "d": 1273.6729687500047,
      "v": 127
    },
    {
      "midi": 64,
      "hit": false,
      "t": 236363.4000000002,
      "d": 1292.6123437499919,
      "v": 127
    },
    {
      "midi": 76,
      "hit": false,
      "t": 236363.4000000002,
      "d": 1292.6123437499919,
      "v": 127
    },
    {
      "midi": 54,
      "hit": false,
      "t": 238181.5800000002,
      "d": 1283.1426562500128,
      "v": 127
    },
    {
      "midi": 66,
      "hit": false,
      "t": 238181.5800000002,
      "d": 1283.1426562500128,
      "v": 127
    },
    {
      "midi": 61,
      "hit": false,
      "t": 238181.5800000002,
      "d": 1292.612343750021,
      "v": 127
    },
    {
      "midi": 73,
      "hit": false,
      "t": 238181.5800000002,
      "d": 1292.612343750021,
      "v": 127
    },
    {
      "midi": 54,
      "hit": false,
      "t": 239999.7600000002,
      "d": 1373.1046874999884,
      "v": 127
    },
    {
      "midi": 66,
      "hit": false,
      "t": 239999.7600000002,
      "d": 1373.1046874999884,
      "v": 127
    },
    {
      "midi": 62,
      "hit": false,
      "t": 239999.7600000002,
      "d": 1396.7789062499942,
      "v": 127
    },
    {
      "midi": 74,
      "hit": false,
      "t": 239999.7600000002,
      "d": 1396.7789062499942,
      "v": 127
    },
    {
      "midi": 57,
      "hit": false,
      "t": 241817.9400000002,
      "d": 1482.0060937500093,
      "v": 127
    },
    {
      "midi": 69,
      "hit": false,
      "t": 241817.9400000002,
      "d": 1482.0060937500093,
      "v": 127
    },
    {
      "midi": 64,
      "hit": false,
      "t": 241817.9400000002,
      "d": 1491.4757812500175,
      "v": 127
    },
    {
      "midi": 76,
      "hit": false,
      "t": 241817.9400000002,
      "d": 1491.4757812500175,
      "v": 127
    },
    {
      "midi": 56,
      "hit": false,
      "t": 243636.12000000023,
      "d": 1273.6729687500047,
      "v": 127
    },
    {
      "midi": 68,
      "hit": false,
      "t": 243636.12000000023,
      "d": 1273.6729687500047,
      "v": 127
    },
    {
      "midi": 64,
      "hit": false,
      "t": 243636.12000000023,
      "d": 1292.6123437499919,
      "v": 127
    },
    {
      "midi": 76,
      "hit": false,
      "t": 243636.12000000023,
      "d": 1292.6123437499919,
      "v": 127
    },
    {
      "midi": 54,
      "hit": false,
      "t": 245454.30000000022,
      "d": 1283.1426562500128,
      "v": 127
    },
    {
      "midi": 66,
      "hit": false,
      "t": 245454.30000000022,
      "d": 1283.1426562500128,
      "v": 127
    },
    {
      "midi": 61,
      "hit": false,
      "t": 245454.30000000022,
      "d": 1292.612343750021,
      "v": 127
    },
    {
      "midi": 73,
      "hit": false,
      "t": 245454.30000000022,
      "d": 1292.612343750021,
      "v": 127
    },
    {
      "midi": 54,
      "hit": false,
      "t": 247272.48000000024,
      "d": 1373.1046874999884,
      "v": 127
    },
    {
      "midi": 66,
      "hit": false,
      "t": 247272.48000000024,
      "d": 1373.1046874999884,
      "v": 127
    },
    {
      "midi": 62,
      "hit": false,
      "t": 247272.48000000024,
      "d": 1396.7789062499942,
      "v": 127
    },
    {
      "midi": 74,
      "hit": false,
      "t": 247272.48000000024,
      "d": 1396.7789062499942,
      "v": 127
    },
    {
      "midi": 57,
      "hit": false,
      "t": 249090.66000000024,
      "d": 1482.0060937500093,
      "v": 127
    },
    {
      "midi": 69,
      "hit": false,
      "t": 249090.66000000024,
      "d": 1482.0060937500093,
      "v": 127
    },
    {
      "midi": 64,
      "hit": false,
      "t": 249090.66000000024,
      "d": 1491.4757812500175,
      "v": 127
    },
    {
      "midi": 76,
      "hit": false,
      "t": 249090.66000000024,
      "d": 1491.4757812500175,
      "v": 127
    },
    {
      "midi": 56,
      "hit": false,
      "t": 250908.84000000026,
      "d": 1273.6729687500047,
      "v": 127
    },
    {
      "midi": 68,
      "hit": false,
      "t": 250908.84000000026,
      "d": 1273.6729687500047,
      "v": 127
    },
    {
      "midi": 64,
      "hit": false,
      "t": 250908.84000000026,
      "d": 1292.6123437499919,
      "v": 127
    },
    {
      "midi": 76,
      "hit": false,
      "t": 250908.84000000026,
      "d": 1292.6123437499919,
      "v": 127
    },
    {
      "midi": 54,
      "hit": false,
      "t": 252727.02000000025,
      "d": 1283.1426562500128,
      "v": 127
    },
    {
      "midi": 66,
      "hit": false,
      "t": 252727.02000000025,
      "d": 1283.1426562500128,
      "v": 127
    },
    {
      "midi": 61,
      "hit": false,
      "t": 252727.02000000025,
      "d": 1292.612343750021,
      "v": 127
    },
    {
      "midi": 73,
      "hit": false,
      "t": 252727.02000000025,
      "d": 1292.612343750021,
      "v": 127
    },
    {
      "midi": 54,
      "hit": false,
      "t": 254545.20000000027,
      "d": 1373.1046874999884,
      "v": 127
    },
    {
      "midi": 66,
      "hit": false,
      "t": 254545.20000000027,
      "d": 1373.1046874999884,
      "v": 127
    },
    {
      "midi": 62,
      "hit": false,
      "t": 254545.20000000027,
      "d": 1396.7789062499942,
      "v": 127
    },
    {
      "midi": 74,
      "hit": false,
      "t": 254545.20000000027,
      "d": 1396.7789062499942,
      "v": 127
    },
    {
      "midi": 59,
      "hit": false,
      "t": 256363.38000000027,
      "d": 1482.0060937500093,
      "v": 127
    },
    {
      "midi": 71,
      "hit": false,
      "t": 256363.38000000027,
      "d": 1482.0060937500093,
      "v": 127
    },
    {
      "midi": 66,
      "hit": false,
      "t": 256363.38000000027,
      "d": 1491.4757812500175,
      "v": 127
    },
    {
      "midi": 78,
      "hit": false,
      "t": 256363.38000000027,
      "d": 1491.4757812500175,
      "v": 127
    },
    {
      "midi": 58,
      "hit": false,
      "t": 258181.5600000003,
      "d": 1273.6729687500047,
      "v": 127
    },
    {
      "midi": 70,
      "hit": false,
      "t": 258181.5600000003,
      "d": 1273.6729687500047,
      "v": 127
    },
    {
      "midi": 66,
      "hit": false,
      "t": 258181.5600000003,
      "d": 1292.6123437499919,
      "v": 127
    },
    {
      "midi": 78,
      "hit": false,
      "t": 258181.5600000003,
      "d": 1292.6123437499919,
      "v": 127
    },
    {
      "midi": 56,
      "hit": false,
      "t": 259999.74000000028,
      "d": 1283.1426562500128,
      "v": 127
    },
    {
      "midi": 68,
      "hit": false,
      "t": 259999.74000000028,
      "d": 1283.1426562500128,
      "v": 127
    },
    {
      "midi": 63,
      "hit": false,
      "t": 259999.74000000028,
      "d": 1292.612343750021,
      "v": 127
    },
    {
      "midi": 75,
      "hit": false,
      "t": 259999.74000000028,
      "d": 1292.612343750021,
      "v": 127
    },
    {
      "midi": 56,
      "hit": false,
      "t": 261817.9200000003,
      "d": 1373.1046875000175,
      "v": 127
    },
    {
      "midi": 68,
      "hit": false,
      "t": 261817.9200000003,
      "d": 1373.1046875000175,
      "v": 127
    },
    {
      "midi": 64,
      "hit": false,
      "t": 261817.9200000003,
      "d": 1396.7789062499942,
      "v": 127
    },
    {
      "midi": 76,
      "hit": false,
      "t": 261817.9200000003,
      "d": 1396.7789062499942,
      "v": 127
    },
    {
      "midi": 59,
      "hit": false,
      "t": 263636.1000000003,
      "d": 1482.0060937500093,
      "v": 127
    },
    {
      "midi": 71,
      "hit": false,
      "t": 263636.1000000003,
      "d": 1482.0060937500093,
      "v": 127
    },
    {
      "midi": 66,
      "hit": false,
      "t": 263636.1000000003,
      "d": 1491.4757812499884,
      "v": 127
    },
    {
      "midi": 78,
      "hit": false,
      "t": 263636.1000000003,
      "d": 1491.4757812499884,
      "v": 127
    },
    {
      "midi": 58,
      "hit": false,
      "t": 265454.2800000003,
      "d": 1273.6729687500047,
      "v": 127
    },
    {
      "midi": 70,
      "hit": false,
      "t": 265454.2800000003,
      "d": 1273.6729687500047,
      "v": 127
    },
    {
      "midi": 66,
      "hit": false,
      "t": 265454.2800000003,
      "d": 1292.612343750021,
      "v": 127
    },
    {
      "midi": 78,
      "hit": false,
      "t": 265454.2800000003,
      "d": 1292.612343750021,
      "v": 127
    },
    {
      "midi": 56,
      "hit": false,
      "t": 267272.4600000003,
      "d": 1283.1426562499837,
      "v": 127
    },
    {
      "midi": 68,
      "hit": false,
      "t": 267272.4600000003,
      "d": 1283.1426562499837,
      "v": 127
    },
    {
      "midi": 63,
      "hit": false,
      "t": 267272.4600000003,
      "d": 1292.6123437499627,
      "v": 127
    },
    {
      "midi": 75,
      "hit": false,
      "t": 267272.4600000003,
      "d": 1292.6123437499627,
      "v": 127
    },
    {
      "midi": 56,
      "hit": false,
      "t": 269090.64000000025,
      "d": 1373.1046874999884,
      "v": 127
    },
    {
      "midi": 68,
      "hit": false,
      "t": 269090.64000000025,
      "d": 1373.1046874999884,
      "v": 127
    },
    {
      "midi": 64,
      "hit": false,
      "t": 269090.64000000025,
      "d": 1396.778906249965,
      "v": 127
    },
    {
      "midi": 76,
      "hit": false,
      "t": 269090.64000000025,
      "d": 1396.778906249965,
      "v": 127
    },
    {
      "midi": 59,
      "hit": false,
      "t": 270908.82000000024,
      "d": 1482.0060937500093,
      "v": 127
    },
    {
      "midi": 71,
      "hit": false,
      "t": 270908.82000000024,
      "d": 1482.0060937500093,
      "v": 127
    },
    {
      "midi": 66,
      "hit": false,
      "t": 270908.82000000024,
      "d": 1491.4757812499884,
      "v": 127
    },
    {
      "midi": 78,
      "hit": false,
      "t": 270908.82000000024,
      "d": 1491.4757812499884,
      "v": 127
    },
    {
      "midi": 58,
      "hit": false,
      "t": 272727.00000000023,
      "d": 1273.6729687500047,
      "v": 127
    },
    {
      "midi": 70,
      "hit": false,
      "t": 272727.00000000023,
      "d": 1273.6729687500047,
      "v": 127
    },
    {
      "midi": 66,
      "hit": false,
      "t": 272727.00000000023,
      "d": 1292.612343750021,
      "v": 127
    },
    {
      "midi": 78,
      "hit": false,
      "t": 272727.00000000023,
      "d": 1292.612343750021,
      "v": 127
    },
    {
      "midi": 56,
      "hit": false,
      "t": 274545.1800000002,
      "d": 1283.1426562499837,
      "v": 127
    },
    {
      "midi": 68,
      "hit": false,
      "t": 274545.1800000002,
      "d": 1283.1426562499837,
      "v": 127
    },
    {
      "midi": 63,
      "hit": false,
      "t": 274545.1800000002,
      "d": 1292.6123437499627,
      "v": 127
    },
    {
      "midi": 75,
      "hit": false,
      "t": 274545.1800000002,
      "d": 1292.6123437499627,
      "v": 127
    },
    {
      "midi": 56,
      "hit": false,
      "t": 276363.36000000016,
      "d": 1373.1046874999884,
      "v": 127
    },
    {
      "midi": 68,
      "hit": false,
      "t": 276363.36000000016,
      "d": 1373.1046874999884,
      "v": 127
    },
    {
      "midi": 64,
      "hit": false,
      "t": 276363.36000000016,
      "d": 1396.778906249965,
      "v": 127
    },
    {
      "midi": 76,
      "hit": false,
      "t": 276363.36000000016,
      "d": 1396.778906249965,
      "v": 127
    }
  ]
}