{
  "jsonPath": "Latin/Latin/Enrique Iglesias/no-llores-por-mi.json",
  "path": "Latin\\Latin\\Enrique Iglesias\\No Llores Por Mi.mid",
  "name": "No Llores Por Mi",
  "difficulty": "Advanced",
  "bpm": 75,
  "notes": [
    {
      "midi": 59,
      "hit": false,
      "t": 3200,
      "d": 406.6666666666665,
      "v": 109
    },
    {
      "midi": 63,
      "hit": false,
      "t": 3200,
      "d": 1640,
      "v": 109
    },
    {
      "midi": 66,
      "hit": false,
      "t": 3200,
      "d": 1740,
      "v": 109
    },
    {
      "midi": 47,
      "hit": false,
      "t": 3200,
      "d": 2839.999999999999,
      "v": 109
    },
    {
      "midi": 59,
      "hit": false,
      "t": 3973.333333333333,
      "d": 700,
      "v": 110
    },
    {
      "midi": 71,
      "hit": false,
      "t": 4373.333333333333,
      "d": 700,
      "v": 110
    },
    {
      "midi": 51,
      "hit": false,
      "t": 4373.333333333333,
      "d": 1833.3333333333321,
      "v": 110
    },
    {
      "midi": 54,
      "hit": false,
      "t": 4773.333333333333,
      "d": 633.333333333333,
      "v": 110
    },
    {
      "midi": 59,
      "hit": false,
      "t": 5166.666666666666,
      "d": 573.3333333333339,
      "v": 110
    },
    {
      "midi": 71,
      "hit": false,
      "t": 5373.333333333333,
      "d": 633.333333333333,
      "v": 111
    },
    {
      "midi": 54,
      "hit": false,
      "t": 5573.333333333333,
      "d": 566.6666666666661,
      "v": 111
    },
    {
      "midi": 73,
      "hit": false,
      "t": 5573.333333333333,
      "d": 766.6666666666652,
      "v": 111
    },
    {
      "midi": 59,
      "hit": false,
      "t": 5973.333333333333,
      "d": 166.66666666666606,
      "v": 111
    },
    {
      "midi": 75,
      "hit": false,
      "t": 6173.333333333332,
      "d": 233.33333333333212,
      "v": 111
    },
    {
      "midi": 40,
      "hit": false,
      "t": 6373.333333333331,
      "d": 2400.000000000001,
      "v": 111
    },
    {
      "midi": 68,
      "hit": false,
      "t": 6373.333333333331,
      "d": 2426.666666666667,
      "v": 111
    },
    {
      "midi": 52,
      "hit": false,
      "t": 6773.333333333331,
      "d": 966.666666666667,
      "v": 111
    },
    {
      "midi": 64,
      "hit": false,
      "t": 7173.333333333331,
      "d": 733.3333333333339,
      "v": 112
    },
    {
      "midi": 71,
      "hit": false,
      "t": 7573.333333333331,
      "d": 900.0000000000009,
      "v": 112
    },
    {
      "midi": 64,
      "hit": false,
      "t": 8373.333333333332,
      "d": 1166.666666666666,
      "v": 112
    },
    {
      "midi": 71,
      "hit": false,
      "t": 8573.333333333332,
      "d": 200,
      "v": 113
    },
    {
      "midi": 52,
      "hit": false,
      "t": 8573.333333333332,
      "d": 1000,
      "v": 113
    },
    {
      "midi": 73,
      "hit": false,
      "t": 8773.333333333332,
      "d": 700,
      "v": 113
    },
    {
      "midi": 75,
      "hit": false,
      "t": 9373.333333333332,
      "d": 266.66666666666606,
      "v": 113
    },
    {
      "midi": 49,
      "hit": false,
      "t": 9573.333333333332,
      "d": 1000.0000000000018,
      "v": 113
    },
    {
      "midi": 68,
      "hit": false,
      "t": 9573.333333333332,
      "d": 2366.6666666666697,
      "v": 113
    },
    {
      "midi": 56,
      "hit": false,
      "t": 9973.333333333332,
      "d": 526.6666666666679,
      "v": 113
    },
    {
      "midi": 64,
      "hit": false,
      "t": 10366.666666666666,
      "d": 1000.0000000000018,
      "v": 105
    },
    {
      "midi": 56,
      "hit": false,
      "t": 10773.333333333334,
      "d": 433.33333333333394,
      "v": 105
    },
    {
      "midi": 49,
      "hit": false,
      "t": 11173.333333333334,
      "d": 1333.3333333333376,
      "v": 105
    },
    {
      "midi": 61,
      "hit": false,
      "t": 11573.333333333334,
      "d": 566.6666666666697,
      "v": 105
    },
    {
      "midi": 71,
      "hit": false,
      "t": 11766.666666666668,
      "d": 273.33333333333576,
      "v": 105
    },
    {
      "midi": 56,
      "hit": false,
      "t": 11973.333333333336,
      "d": 33.33333333333394,
      "v": 105
    },
    {
      "midi": 73,
      "hit": false,
      "t": 11973.333333333336,
      "d": 700.0000000000018,
      "v": 105
    },
    {
      "midi": 61,
      "hit": false,
      "t": 12373.333333333338,
      "d": 133.33333333333394,
      "v": 105
    },
    {
      "midi": 75,
      "hit": false,
      "t": 12573.333333333338,
      "d": 266.66666666666606,
      "v": 105
    },
    {
      "midi": 42,
      "hit": false,
      "t": 12766.666666666672,
      "d": 1340,
      "v": 105
    },
    {
      "midi": 66,
      "hit": false,
      "t": 12773.333333333338,
      "d": 1766.666666666666,
      "v": 105
    },
    {
      "midi": 54,
      "hit": false,
      "t": 13173.333333333338,
      "d": 1000,
      "v": 105
    },
    {
      "midi": 61,
      "hit": false,
      "t": 13966.666666666672,
      "d": 400,
      "v": 105
    },
    {
      "midi": 42,
      "hit": false,
      "t": 14373.333333333338,
      "d": 1199.9999999999982,
      "v": 105
    },
    {
      "midi": 54,
      "hit": false,
      "t": 14766.66666666667,
      "d": 306.66666666666606,
      "v": 105
    },
    {
      "midi": 66,
      "hit": false,
      "t": 14766.66666666667,
      "d": 606.6666666666661,
      "v": 105
    },
    {
      "midi": 68,
      "hit": false,
      "t": 14973.333333333336,
      "d": 226.66666666666606,
      "v": 105
    },
    {
      "midi": 49,
      "hit": false,
      "t": 15173.333333333336,
      "d": 433.33333333333394,
      "v": 101
    },
    {
      "midi": 71,
      "hit": false,
      "t": 15173.333333333336,
      "d": 633.3333333333339,
      "v": 101
    },
    {
      "midi": 54,
      "hit": false,
      "t": 15573.333333333336,
      "d": 366.6666666666679,
      "v": 101
    },
    {
      "midi": 73,
      "hit": false,
      "t": 15773.333333333336,
      "d": 200.00000000000182,
      "v": 100
    },
    {
      "midi": 66,
      "hit": false,
      "t": 15973.333333333338,
      "d": 1933.3333333333376,
      "v": 100
    },
    {
      "midi": 47,
      "hit": false,
      "t": 15973.333333333338,
      "d": 2966.6666666666733,
      "v": 100
    },
    {
      "midi": 54,
      "hit": false,
      "t": 16373.333333333338,
      "d": 600.0000000000018,
      "v": 99
    },
    {
      "midi": 59,
      "hit": false,
      "t": 16766.66666666667,
      "d": 473.33333333333576,
      "v": 98
    },
    {
      "midi": 63,
      "hit": false,
      "t": 17173.33333333334,
      "d": 666.6666666666679,
      "v": 98
    },
    {
      "midi": 51,
      "hit": false,
      "t": 17173.33333333334,
      "d": 1133.3333333333358,
      "v": 98
    },
    {
      "midi": 54,
      "hit": false,
      "t": 17566.666666666675,
      "d": 506.6666666666679,
      "v": 97
    },
    {
      "midi": 59,
      "hit": false,
      "t": 17973.333333333343,
      "d": 500,
      "v": 83
    },
    {
      "midi": 71,
      "hit": false,
      "t": 18173.333333333343,
      "d": 533.3333333333321,
      "v": 83
    },
    {
      "midi": 73,
      "hit": false,
      "t": 18366.666666666675,
      "d": 773.3333333333358,
      "v": 83
    },
    {
      "midi": 54,
      "hit": false,
      "t": 18373.333333333343,
      "d": 600,
      "v": 83
    },
    {
      "midi": 59,
      "hit": false,
      "t": 18773.333333333343,
      "d": 200,
      "v": 83
    },
    {
      "midi": 75,
      "hit": false,
      "t": 18973.333333333343,
      "d": 200,
      "v": 83
    },
    {
      "midi": 68,
      "hit": false,
      "t": 19173.333333333343,
      "d": 1966.6666666666679,
      "v": 83
    },
    {
      "midi": 52,
      "hit": false,
      "t": 19573.333333333343,
      "d": 800,
      "v": 83
    },
    {
      "midi": 64,
      "hit": false,
      "t": 19973.333333333343,
      "d": 866.6666666666679,
      "v": 83
    },
    {
      "midi": 71,
      "hit": false,
      "t": 20373.333333333343,
      "d": 733.3333333333358,
      "v": 83
    },
    {
      "midi": 71,
      "hit": false,
      "t": 21373.333333333343,
      "d": 726.6666666666679,
      "v": 84
    },
    {
      "midi": 52,
      "hit": false,
      "t": 21573.333333333343,
      "d": 626.6666666666679,
      "v": 84
    },
    {
      "midi": 73,
      "hit": false,
      "t": 21573.333333333343,
      "d": 733.3333333333358,
      "v": 84
    },
    {
      "midi": 75,
      "hit": false,
      "t": 22173.333333333343,
      "d": 200.00000000000364,
      "v": 84
    },
    {
      "midi": 49,
      "hit": false,
      "t": 22373.333333333347,
      "d": 1000,
      "v": 84
    },
    {
      "midi": 68,
      "hit": false,
      "t": 22373.333333333347,
      "d": 2066.666666666668,
      "v": 84
    },
    {
      "midi": 61,
      "hit": false,
      "t": 22773.333333333347,
      "d": 600,
      "v": 84
    },
    {
      "midi": 64,
      "hit": false,
      "t": 23173.333333333347,
      "d": 1033.3333333333321,
      "v": 84
    },
    {
      "midi": 56,
      "hit": false,
      "t": 23566.66666666668,
      "d": 906.6666666666679,
      "v": 84
    },
    {
      "midi": 71,
      "hit": false,
      "t": 23573.333333333347,
      "d": 800,
      "v": 84
    },
    {
      "midi": 49,
      "hit": false,
      "t": 24373.333333333347,
      "d": 933.3333333333358,
      "v": 84
    },
    {
      "midi": 71,
      "hit": false,
      "t": 24573.333333333347,
      "d": 766.6666666666679,
      "v": 84
    },
    {
      "midi": 61,
      "hit": false,
      "t": 24773.333333333347,
      "d": 466.6666666666679,
      "v": 84
    },
    {
      "midi": 73,
      "hit": false,
      "t": 24773.333333333347,
      "d": 733.3333333333321,
      "v": 84
    },
    {
      "midi": 56,
      "hit": false,
      "t": 25173.333333333347,
      "d": 133.33333333333576,
      "v": 84
    },
    {
      "midi": 75,
      "hit": false,
      "t": 25373.333333333347,
      "d": 200,
      "v": 84
    },
    {
      "midi": 66,
      "hit": false,
      "t": 25573.333333333347,
      "d": 953.3333333333321,
      "v": 84
    },
    {
      "midi": 42,
      "hit": false,
      "t": 25573.333333333347,
      "d": 1300,
      "v": 84
    },
    {
      "midi": 54,
      "hit": false,
      "t": 25973.333333333347,
      "d": 933.3333333333321,
      "v": 84
    },
    {
      "midi": 78,
      "hit": false,
      "t": 26366.66666666668,
      "d": 606.6666666666679,
      "v": 84
    },
    {
      "midi": 66,
      "hit": false,
      "t": 26773.333333333347,
      "d": 633.3333333333321,
      "v": 85
    },
    {
      "midi": 70,
      "hit": false,
      "t": 26773.333333333347,
      "d": 800,
      "v": 85
    },
    {
      "midi": 73,
      "hit": false,
      "t": 26773.333333333347,
      "d": 833.3333333333321,
      "v": 85
    },
    {
      "midi": 42,
      "hit": false,
      "t": 27173.333333333347,
      "d": 1200,
      "v": 85
    },
    {
      "midi": 66,
      "hit": false,
      "t": 27573.333333333347,
      "d": 400,
      "v": 85
    },
    {
      "midi": 68,
      "hit": false,
      "t": 27766.66666666668,
      "d": 206.66666666666788,
      "v": 85
    },
    {
      "midi": 49,
      "hit": false,
      "t": 27973.333333333347,
      "d": 433.3333333333321,
      "v": 85
    },
    {
      "midi": 71,
      "hit": false,
      "t": 27973.333333333347,
      "d": 633.3333333333321,
      "v": 85
    },
    {
      "midi": 54,
      "hit": false,
      "t": 28373.333333333347,
      "d": 366.66666666666424,
      "v": 85
    },
    {
      "midi": 73,
      "hit": false,
      "t": 28573.333333333347,
      "d": 233.33333333333212,
      "v": 85
    },
    {
      "midi": 66,
      "hit": false,
      "t": 28766.66666666668,
      "d": 2000.0000000000036,
      "v": 85
    },
    {
      "midi": 47,
      "hit": false,
      "t": 28773.333333333347,
      "d": 966.6666666666679,
      "v": 85
    },
    {
      "midi": 54,
      "hit": false,
      "t": 29166.66666666668,
      "d": 606.6666666666679,
      "v": 85
    },
    {
      "midi": 59,
      "hit": false,
      "t": 29573.333333333347,
      "d": 1026.6666666666679,
      "v": 85
    },
    {
      "midi": 63,
      "hit": false,
      "t": 29573.333333333347,
      "d": 1133.3333333333358,
      "v": 85
    },
    {
      "midi": 54,
      "hit": false,
      "t": 29966.66666666668,
      "d": 473.33333333333576,
      "v": 85
    },
    {
      "midi": 47,
      "hit": false,
      "t": 30373.333333333347,
      "d": 1366.6666666666715,
      "v": 85
    },
    {
      "midi": 54,
      "hit": false,
      "t": 30773.33333333335,
      "d": 466.6666666666679,
      "v": 85
    },
    {
      "midi": 71,
      "hit": false,
      "t": 30973.33333333335,
      "d": 766.6666666666679,
      "v": 85
    },
    {
      "midi": 59,
      "hit": false,
      "t": 31173.33333333335,
      "d": 500,
      "v": 85
    },
    {
      "midi": 73,
      "hit": false,
      "t": 31173.33333333335,
      "d": 733.3333333333321,
      "v": 85
    },
    {
      "midi": 54,
      "hit": false,
      "t": 31573.33333333335,
      "d": 200,
      "v": 85
    },
    {
      "midi": 75,
      "hit": false,
      "t": 31773.33333333335,
      "d": 226.66666666666788,
      "v": 85
    },
    {
      "midi": 68,
      "hit": false,
      "t": 31973.33333333335,
      "d": 1926.6666666666715,
      "v": 86
    },
    {
      "midi": 52,
      "hit": false,
      "t": 32373.33333333335,
      "d": 633.3333333333358,
      "v": 86
    },
    {
      "midi": 64,
      "hit": false,
      "t": 32773.33333333335,
      "d": 933.3333333333358,
      "v": 86
    },
    {
      "midi": 71,
      "hit": false,
      "t": 33173.33333333335,
      "d": 733.3333333333358,
      "v": 86
    },
    {
      "midi": 71,
      "hit": false,
      "t": 34173.33333333335,
      "d": 766.6666666666642,
      "v": 86
    },
    {
      "midi": 52,
      "hit": false,
      "t": 34373.33333333335,
      "d": 600,
      "v": 86
    },
    {
      "midi": 73,
      "hit": false,
      "t": 34373.33333333335,
      "d": 666.6666666666642,
      "v": 86
    },
    {
      "midi": 75,
      "hit": false,
      "t": 34973.33333333335,
      "d": 233.33333333333576,
      "v": 86
    },
    {
      "midi": 49,
      "hit": false,
      "t": 35173.33333333335,
      "d": 1000,
      "v": 86
    },
    {
      "midi": 68,
      "hit": false,
      "t": 35173.33333333335,
      "d": 1933.3333333333285,
      "v": 86
    },
    {
      "midi": 61,
      "hit": false,
      "t": 35573.33333333335,
      "d": 600,
      "v": 86
    },
    {
      "midi": 64,
      "hit": false,
      "t": 35966.666666666686,
      "d": 1039.9999999999927,
      "v": 86
    },
    {
      "midi": 71,
      "hit": false,
      "t": 35973.33333333335,
      "d": 1133.3333333333285,
      "v": 86
    },
    {
      "midi": 56,
      "hit": false,
      "t": 36373.33333333335,
      "d": 466.66666666666424,
      "v": 86
    },
    {
      "midi": 49,
      "hit": false,
      "t": 36773.33333333335,
      "d": 1326.6666666666642,
      "v": 86
    },
    {
      "midi": 56,
      "hit": false,
      "t": 37173.33333333334,
      "d": 433.33333333333576,
      "v": 87
    },
    {
      "midi": 71,
      "hit": false,
      "t": 37373.33333333334,
      "d": 833.333333333343,
      "v": 87
    },
    {
      "midi": 61,
      "hit": false,
      "t": 37573.33333333334,
      "d": 600.0000000000073,
      "v": 87
    },
    {
      "midi": 73,
      "hit": false,
      "t": 37573.33333333334,
      "d": 733.333333333343,
      "v": 87
    },
    {
      "midi": 56,
      "hit": false,
      "t": 37966.66666666668,
      "d": 173.33333333333576,
      "v": 87
    },
    {
      "midi": 75,
      "hit": false,
      "t": 38173.33333333335,
      "d": 233.33333333333576,
      "v": 87
    },
    {
      "midi": 42,
      "hit": false,
      "t": 38373.33333333335,
      "d": 1100,
      "v": 87
    },
    {
      "midi": 66,
      "hit": false,
      "t": 38373.33333333335,
      "d": 1733.3333333333358,
      "v": 87
    },
    {
      "midi": 54,
      "hit": false,
      "t": 38766.666666666686,
      "d": 706.6666666666642,
      "v": 87
    },
    {
      "midi": 70,
      "hit": false,
      "t": 39173.33333333335,
      "d": 933.3333333333358,
      "v": 87
    },
    {
      "midi": 73,
      "hit": false,
      "t": 39173.33333333335,
      "d": 966.6666666666715,
      "v": 87
    },
    {
      "midi": 49,
      "hit": false,
      "t": 39573.33333333335,
      "d": 400,
      "v": 87
    },
    {
      "midi": 42,
      "hit": false,
      "t": 39973.33333333335,
      "d": 1266.6666666666715,
      "v": 87
    },
    {
      "midi": 54,
      "hit": false,
      "t": 40373.33333333336,
      "d": 466.66666666666424,
      "v": 87
    },
    {
      "midi": 66,
      "hit": false,
      "t": 40373.33333333336,
      "d": 993.3333333333285,
      "v": 87
    },
    {
      "midi": 49,
      "hit": false,
      "t": 40773.33333333336,
      "d": 400,
      "v": 87
    },
    {
      "midi": 71,
      "hit": false,
      "t": 40773.33333333336,
      "d": 633.3333333333285,
      "v": 87
    },
    {
      "midi": 54,
      "hit": false,
      "t": 41173.33333333336,
      "d": 366.66666666666424,
      "v": 87
    },
    {
      "midi": 73,
      "hit": false,
      "t": 41366.666666666686,
      "d": 240,
      "v": 87
    },
    {
      "midi": 62,
      "hit": false,
      "t": 41600.00000000002,
      "d": 1326.6666666666642,
      "v": 87
    },
    {
      "midi": 43,
      "hit": false,
      "t": 41600.00000000002,
      "d": 3206.6666666666715,
      "v": 87
    },
    {
      "midi": 59,
      "hit": false,
      "t": 41613.33333333335,
      "d": 1013.3333333333358,
      "v": 87
    },
    {
      "midi": 55,
      "hit": false,
      "t": 41613.33333333335,
      "d": 2193.3333333333358,
      "v": 87
    },
    {
      "midi": 59,
      "hit": false,
      "t": 42786.666666666686,
      "d": 240,
      "v": 88
    },
    {
      "midi": 61,
      "hit": false,
      "t": 42960.00000000002,
      "d": 266.66666666666424,
      "v": 88
    },
    {
      "midi": 62,
      "hit": false,
      "t": 43166.666666666686,
      "d": 426.66666666666424,
      "v": 88
    },
    {
      "midi": 64,
      "hit": false,
      "t": 43573.33333333335,
      "d": 1206.6666666666715,
      "v": 88
    },
    {
      "midi": 55,
      "hit": false,
      "t": 44006.666666666686,
      "d": 546.6666666666642,
      "v": 88
    },
    {
      "midi": 59,
      "hit": false,
      "t": 44006.666666666686,
      "d": 760,
      "v": 88
    },
    {
      "midi": 57,
      "hit": false,
      "t": 44780.00000000002,
      "d": 1426.6666666666715,
      "v": 88
    },
    {
      "midi": 45,
      "hit": false,
      "t": 44793.33333333336,
      "d": 1400,
      "v": 88
    },
    {
      "midi": 61,
      "hit": false,
      "t": 44793.33333333336,
      "d": 1533.3333333333358,
      "v": 88
    },
    {
      "midi": 45,
      "hit": false,
      "t": 46366.66666666669,
      "d": 1026.6666666666642,
      "v": 88
    },
    {
      "midi": 57,
      "hit": false,
      "t": 46373.33333333336,
      "d": 680,
      "v": 88
    },
    {
      "midi": 62,
      "hit": false,
      "t": 46373.33333333336,
      "d": 786.6666666666642,
      "v": 88
    },
    {
      "midi": 57,
      "hit": false,
      "t": 47193.33333333336,
      "d": 600,
      "v": 88
    },
    {
      "midi": 64,
      "hit": false,
      "t": 47193.33333333336,
      "d": 760,
      "v": 88
    },
    {
      "midi": 52,
      "hit": false,
      "t": 47573.33333333336,
      "d": 400,
      "v": 88
    },
    {
      "midi": 64,
      "hit": false,
      "t": 47986.66666666669,
      "d": 786.666666666657,
      "v": 89
    },
    {
      "midi": 57,
      "hit": false,
      "t": 47993.33333333336,
      "d": 646.6666666666642,
      "v": 89
    },
    {
      "midi": 45,
      "hit": false,
      "t": 47993.33333333336,
      "d": 1526.666666666657,
      "v": 89
    },
    {
      "midi": 61,
      "hit": false,
      "t": 48006.66666666669,
      "d": 739.9999999999927,
      "v": 89
    },
    {
      "midi": 52,
      "hit": false,
      "t": 48373.33333333336,
      "d": 539.9999999999927,
      "v": 89
    },
    {
      "midi": 64,
      "hit": false,
      "t": 48806.666666666686,
      "d": 333.3333333333285,
      "v": 89
    },
    {
      "midi": 57,
      "hit": false,
      "t": 48813.33333333335,
      "d": 340,
      "v": 89
    },
    {
      "midi": 61,
      "hit": false,
      "t": 48813.33333333335,
      "d": 426.66666666666424,
      "v": 89
    },
    {
      "midi": 69,
      "hit": false,
      "t": 48820.000000000015,
      "d": 766.6666666666642,
      "v": 89
    },
    {
      "midi": 52,
      "hit": false,
      "t": 49200.000000000015,
      "d": 340,
      "v": 89
    },
    {
      "midi": 62,
      "hit": false,
      "t": 49593.33333333334,
      "d": 346.6666666666715,
      "v": 58
    },
    {
      "midi": 66,
      "hit": false,
      "t": 49593.33333333334,
      "d": 1986.6666666666715,
      "v": 58
    },
    {
      "midi": 50,
      "hit": false,
      "t": 49606.66666666668,
      "d": 960,
      "v": 58
    },
    {
      "midi": 62,
      "hit": false,
      "t": 50020.000000000015,
      "d": 233.33333333333576,
      "v": 58
    },
    {
      "midi": 62,
      "hit": false,
      "t": 50413.33333333335,
      "d": 1133.3333333333285,
      "v": 58
    },
    {
      "midi": 57,
      "hit": false,
      "t": 50420.000000000015,
      "d": 1060,
      "v": 58
    },
    {
      "midi": 50,
      "hit": false,
      "t": 50800.000000000015,
      "d": 1059.9999999999927,
      "v": 58
    },
    {
      "midi": 66,
      "hit": false,
      "t": 51606.66666666668,
      "d": 1946.666666666657,
      "v": 59
    },
    {
      "midi": 57,
      "hit": false,
      "t": 51613.33333333334,
      "d": 506.66666666666424,
      "v": 59
    },
    {
      "midi": 62,
      "hit": false,
      "t": 51620.00000000001,
      "d": 366.66666666666424,
      "v": 59
    },
    {
      "midi": 69,
      "hit": false,
      "t": 51620.00000000001,
      "d": 1153.3333333333285,
      "v": 59
    },
    {
      "midi": 50,
      "hit": false,
      "t": 51966.66666666667,
      "d": 780,
      "v": 59
    },
    {
      "midi": 57,
      "hit": false,
      "t": 52360.00000000001,
      "d": 140,
      "v": 59
    },
    {
      "midi": 62,
      "hit": false,
      "t": 52360.00000000001,
      "d": 380,
      "v": 59
    },
    {
      "midi": 47,
      "hit": false,
      "t": 52760.00000000001,
      "d": 906.6666666666642,
      "v": 59
    },
    {
      "midi": 59,
      "hit": false,
      "t": 52766.66666666667,
      "d": 720,
      "v": 59
    },
    {
      "midi": 62,
      "hit": false,
      "t": 52766.66666666667,
      "d": 746.6666666666642,
      "v": 59
    },
    {
      "midi": 66,
      "hit": false,
      "t": 53573.333333333336,
      "d": 1213.3333333333285,
      "v": 60
    },
    {
      "midi": 59,
      "hit": false,
      "t": 53586.66666666667,
      "d": 1146.6666666666642,
      "v": 60
    },
    {
      "midi": 62,
      "hit": false,
      "t": 53586.66666666667,
      "d": 1173.3333333333285,
      "v": 60
    },
    {
      "midi": 54,
      "hit": false,
      "t": 53946.66666666667,
      "d": 420,
      "v": 60
    },
    {
      "midi": 47,
      "hit": false,
      "t": 54353.333333333336,
      "d": 1206.666666666657,
      "v": 60
    },
    {
      "midi": 54,
      "hit": false,
      "t": 54740,
      "d": 519.9999999999927,
      "v": 60
    },
    {
      "midi": 62,
      "hit": false,
      "t": 55173.33333333333,
      "d": 600,
      "v": 61
    },
    {
      "midi": 66,
      "hit": false,
      "t": 55173.33333333333,
      "d": 760,
      "v": 61
    },
    {
      "midi": 59,
      "hit": false,
      "t": 55179.99999999999,
      "d": 286.66666666666424,
      "v": 61
    },
    {
      "midi": 54,
      "hit": false,
      "t": 55499.99999999999,
      "d": 426.6666666666715,
      "v": 61
    },
    {
      "midi": 67,
      "hit": false,
      "t": 55953.33333333333,
      "d": 1546.6666666666715,
      "v": 61
    },
    {
      "midi": 52,
      "hit": false,
      "t": 55966.666666666664,
      "d": 986.6666666666642,
      "v": 61
    },
    {
      "midi": 64,
      "hit": false,
      "t": 55966.666666666664,
      "d": 1513.3333333333358,
      "v": 61
    },
    {
      "midi": 71,
      "hit": false,
      "t": 57186.666666666664,
      "d": 1973.3333333333285,
      "v": 62
    },
    {
      "midi": 59,
      "hit": false,
      "t": 57206.666666666664,
      "d": 340,
      "v": 62
    },
    {
      "midi": 60,
      "hit": false,
      "t": 57220,
      "d": 160,
      "v": 62
    },
    {
      "midi": 67,
      "hit": false,
      "t": 57586.666666666664,
      "d": 486.66666666666424,
      "v": 62
    },
    {
      "midi": 64,
      "hit": false,
      "t": 57586.666666666664,
      "d": 533.3333333333285,
      "v": 62
    },
    {
      "midi": 52,
      "hit": false,
      "t": 57586.666666666664,
      "d": 1026.6666666666642,
      "v": 62
    },
    {
      "midi": 59,
      "hit": false,
      "t": 57993.33333333333,
      "d": 586.6666666666642,
      "v": 62
    },
    {
      "midi": 67,
      "hit": false,
      "t": 58393.33333333333,
      "d": 346.66666666666424,
      "v": 71
    },
    {
      "midi": 64,
      "hit": false,
      "t": 58393.33333333333,
      "d": 406.66666666666424,
      "v": 71
    },
    {
      "midi": 59,
      "hit": false,
      "t": 58773.33333333333,
      "d": 153.33333333332848,
      "v": 71
    },
    {
      "midi": 61,
      "hit": false,
      "t": 59179.99999999999,
      "d": 466.6666666666715,
      "v": 70
    },
    {
      "midi": 64,
      "hit": false,
      "t": 59179.99999999999,
      "d": 2806.6666666666642,
      "v": 70
    },
    {
      "midi": 45,
      "hit": false,
      "t": 59193.33333333333,
      "d": 913.3333333333285,
      "v": 70
    },
    {
      "midi": 61,
      "hit": false,
      "t": 59973.33333333333,
      "d": 1306.6666666666642,
      "v": 69
    },
    {
      "midi": 57,
      "hit": false,
      "t": 59979.99999999999,
      "d": 1040,
      "v": 69
    },
    {
      "midi": 52,
      "hit": false,
      "t": 60366.66666666666,
      "d": 273.33333333333576,
      "v": 68
    },
    {
      "midi": 45,
      "hit": false,
      "t": 60779.99999999999,
      "d": 920,
      "v": 68
    },
    {
      "midi": 57,
      "hit": false,
      "t": 61179.99999999999,
      "d": 240,
      "v": 67
    },
    {
      "midi": 57,
      "hit": false,
      "t": 61573.33333333333,
      "d": 706.6666666666642,
      "v": 67
    },
    {
      "midi": 61,
      "hit": false,
      "t": 61579.99999999999,
      "d": 380,
      "v": 67
    },
    {
      "midi": 52,
      "hit": false,
      "t": 61939.99999999999,
      "d": 240,
      "v": 66
    },
    {
      "midi": 58,
      "hit": false,
      "t": 62379.99999999999,
      "d": 706.6666666666715,
      "v": 66
    },
    {
      "midi": 61,
      "hit": false,
      "t": 62379.99999999999,
      "d": 773.3333333333358,
      "v": 66
    },
    {
      "midi": 42,
      "hit": false,
      "t": 62393.33333333333,
      "d": 906.6666666666642,
      "v": 66
    },
    {
      "midi": 54,
      "hit": false,
      "t": 63213.33333333333,
      "d": 266.66666666666424,
      "v": 64
    },
    {
      "midi": 58,
      "hit": false,
      "t": 63213.33333333333,
      "d": 286.66666666666424,
      "v": 64
    },
    {
      "midi": 61,
      "hit": false,
      "t": 63213.33333333333,
      "d": 373.3333333333285,
      "v": 64
    },
    {
      "midi": 49,
      "hit": false,
      "t": 63593.33333333332,
      "d": 326.6666666666715,
      "v": 64
    },
    {
      "midi": 61,
      "hit": false,
      "t": 63599.999999999985,
      "d": 353.33333333333576,
      "v": 64
    },
    {
      "midi": 54,
      "hit": false,
      "t": 63613.33333333332,
      "d": 273.33333333333576,
      "v": 64
    },
    {
      "midi": 58,
      "hit": false,
      "t": 63613.33333333332,
      "d": 313.33333333333576,
      "v": 64
    },
    {
      "midi": 54,
      "hit": false,
      "t": 64013.33333333332,
      "d": 200,
      "v": 63
    },
    {
      "midi": 42,
      "hit": false,
      "t": 64013.33333333332,
      "d": 206.66666666666424,
      "v": 63
    },
    {
      "midi": 58,
      "hit": false,
      "t": 64013.33333333332,
      "d": 206.66666666666424,
      "v": 63
    },
    {
      "midi": 61,
      "hit": false,
      "t": 64013.33333333332,
      "d": 220,
      "v": 63
    },
    {
      "midi": 59,
      "hit": false,
      "t": 65573.33333333331,
      "d": 693.333333333343,
      "v": 92
    },
    {
      "midi": 63,
      "hit": false,
      "t": 65579.99999999999,
      "d": 713.333333333343,
      "v": 92
    },
    {
      "midi": 47,
      "hit": false,
      "t": 65579.99999999999,
      "d": 900.0000000000146,
      "v": 92
    },
    {
      "midi": 66,
      "hit": false,
      "t": 65579.99999999999,
      "d": 2260.0000000000146,
      "v": 92
    },
    {
      "midi": 59,
      "hit": false,
      "t": 66406.66666666666,
      "d": 1266.666666666686,
      "v": 69
    },
    {
      "midi": 63,
      "hit": false,
      "t": 66413.33333333333,
      "d": 1353.333333333343,
      "v": 69
    },
    {
      "midi": 54,
      "hit": false,
      "t": 66786.66666666667,
      "d": 340,
      "v": 69
    },
    {
      "midi": 47,
      "hit": false,
      "t": 67186.66666666667,
      "d": 1186.6666666666715,
      "v": 69
    },
    {
      "midi": 54,
      "hit": false,
      "t": 67593.33333333334,
      "d": 513.3333333333285,
      "v": 69
    },
    {
      "midi": 59,
      "hit": false,
      "t": 67946.66666666667,
      "d": 840.0000000000146,
      "v": 69
    },
    {
      "midi": 63,
      "hit": false,
      "t": 67980,
      "d": 860.0000000000146,
      "v": 69
    },
    {
      "midi": 66,
      "hit": false,
      "t": 68006.66666666667,
      "d": 846.6666666666715,
      "v": 69
    },
    {
      "midi": 71,
      "hit": false,
      "t": 68026.66666666667,
      "d": 933.333333333343,
      "v": 69
    },
    {
      "midi": 54,
      "hit": false,
      "t": 68373.33333333334,
      "d": 240,
      "v": 69
    },
    {
      "midi": 52,
      "hit": false,
      "t": 68780.00000000001,
      "d": 933.3333333333285,
      "v": 69
    },
    {
      "midi": 59,
      "hit": false,
      "t": 69146.66666666669,
      "d": 553.3333333333285,
      "v": 69
    },
    {
      "midi": 64,
      "hit": false,
      "t": 69586.66666666669,
      "d": 480,
      "v": 69
    },
    {
      "midi": 68,
      "hit": false,
      "t": 69586.66666666669,
      "d": 526.6666666666715,
      "v": 69
    },
    {
      "midi": 71,
      "hit": false,
      "t": 69973.33333333334,
      "d": 1933.333333333314,
      "v": 69
    },
    {
      "midi": 59,
      "hit": false,
      "t": 69980.00000000001,
      "d": 273.33333333334303,
      "v": 69
    },
    {
      "midi": 64,
      "hit": false,
      "t": 70160.00000000003,
      "d": 626.666666666657,
      "v": 69
    },
    {
      "midi": 52,
      "hit": false,
      "t": 70366.66666666669,
      "d": 526.6666666666715,
      "v": 69
    },
    {
      "midi": 59,
      "hit": false,
      "t": 70766.66666666669,
      "d": 320,
      "v": 69
    },
    {
      "midi": 51,
      "hit": false,
      "t": 71160.00000000001,
      "d": 466.6666666666424,
      "v": 69
    },
    {
      "midi": 68,
      "hit": false,
      "t": 71173.33333333334,
      "d": 406.66666666665697,
      "v": 69
    },
    {
      "midi": 64,
      "hit": false,
      "t": 71173.33333333334,
      "d": 419.99999999998545,
      "v": 69
    },
    {
      "midi": 76,
      "hit": false,
      "t": 71186.66666666667,
      "d": 419.99999999998545,
      "v": 69
    },
    {
      "midi": 58,
      "hit": false,
      "t": 71566.66666666667,
      "d": 353.33333333331393,
      "v": 69
    },
    {
      "midi": 64,
      "hit": false,
      "t": 71966.66666666666,
      "d": 640,
      "v": 69
    },
    {
      "midi": 68,
      "hit": false,
      "t": 71966.66666666666,
      "d": 706.6666666666715,
      "v": 69
    },
    {
      "midi": 73,
      "hit": false,
      "t": 71966.66666666666,
      "d": 773.333333333343,
      "v": 69
    },
    {
      "midi": 49,
      "hit": false,
      "t": 71986.66666666666,
      "d": 980,
      "v": 69
    },
    {
      "midi": 61,
      "hit": false,
      "t": 72359.99999999999,
      "d": 593.333333333343,
      "v": 73
    },
    {
      "midi": 73,
      "hit": false,
      "t": 72793.33333333333,
      "d": 1233.333333333314,
      "v": 72
    },
    {
      "midi": 68,
      "hit": false,
      "t": 72800,
      "d": 1233.333333333314,
      "v": 72
    },
    {
      "midi": 64,
      "hit": false,
      "t": 72800,
      "d": 1246.6666666666424,
      "v": 72
    },
    {
      "midi": 56,
      "hit": false,
      "t": 73179.99999999999,
      "d": 266.6666666666715,
      "v": 72
    },
    {
      "midi": 49,
      "hit": false,
      "t": 73579.99999999999,
      "d": 1006.666666666657,
      "v": 71
    },
    {
      "midi": 61,
      "hit": false,
      "t": 73993.33333333331,
      "d": 566.666666666657,
      "v": 71
    },
    {
      "midi": 64,
      "hit": false,
      "t": 74386.66666666664,
      "d": 813.3333333333285,
      "v": 70
    },
    {
      "midi": 68,
      "hit": false,
      "t": 74386.66666666664,
      "d": 820,
      "v": 70
    },
    {
      "midi": 73,
      "hit": false,
      "t": 74386.66666666664,
      "d": 1046.666666666657,
      "v": 70
    },
    {
      "midi": 76,
      "hit": false,
      "t": 74406.66666666664,
      "d": 893.3333333333285,
      "v": 70
    },
    {
      "midi": 49,
      "hit": false,
      "t": 74779.99999999997,
      "d": 133.33333333332848,
      "v": 70
    },
    {
      "midi": 54,
      "hit": false,
      "t": 75179.99999999997,
      "d": 960,
      "v": 69
    },
    {
      "midi": 42,
      "hit": false,
      "t": 75186.66666666664,
      "d": 946.666666666657,
      "v": 69
    },
    {
      "midi": 66,
      "hit": false,
      "t": 76006.66666666663,
      "d": 1213.333333333343,
      "v": 68
    },
    {
      "midi": 73,
      "hit": false,
      "t": 76006.66666666663,
      "d": 1226.666666666686,
      "v": 68
    },
    {
      "midi": 70,
      "hit": false,
      "t": 76013.3333333333,
      "d": 1213.333333333343,
      "v": 68
    },
    {
      "midi": 49,
      "hit": false,
      "t": 76406.66666666664,
      "d": 200,
      "v": 67
    },
    {
      "midi": 42,
      "hit": false,
      "t": 76813.33333333331,
      "d": 1219.9999999999854,
      "v": 67
    },
    {
      "midi": 54,
      "hit": false,
      "t": 77206.66666666664,
      "d": 513.3333333333285,
      "v": 66
    },
    {
      "midi": 73,
      "hit": false,
      "t": 77606.66666666664,
      "d": 306.66666666665697,
      "v": 66
    },
    {
      "midi": 66,
      "hit": false,
      "t": 77606.66666666664,
      "d": 313.3333333333285,
      "v": 66
    },
    {
      "midi": 70,
      "hit": false,
      "t": 77606.66666666664,
      "d": 313.3333333333285,
      "v": 66
    },
    {
      "midi": 54,
      "hit": false,
      "t": 77993.3333333333,
      "d": 373.3333333333285,
      "v": 65
    },
    {
      "midi": 59,
      "hit": false,
      "t": 78379.99999999996,
      "d": 706.6666666666715,
      "v": 73
    },
    {
      "midi": 63,
      "hit": false,
      "t": 78379.99999999996,
      "d": 733.333333333343,
      "v": 73
    },
    {
      "midi": 66,
      "hit": false,
      "t": 78379.99999999996,
      "d": 746.6666666666715,
      "v": 73
    },
    {
      "midi": 47,
      "hit": false,
      "t": 78406.66666666663,
      "d": 893.3333333333285,
      "v": 73
    },
    {
      "midi": 59,
      "hit": false,
      "t": 79206.66666666663,
      "d": 1273.3333333333285,
      "v": 73
    },
    {
      "midi": 63,
      "hit": false,
      "t": 79206.66666666663,
      "d": 1426.666666666657,
      "v": 73
    },
    {
      "midi": 66,
      "hit": false,
      "t": 79206.66666666663,
      "d": 1533.3333333333285,
      "v": 73
    },
    {
      "midi": 54,
      "hit": false,
      "t": 79613.33333333328,
      "d": 260,
      "v": 72
    },
    {
      "midi": 47,
      "hit": false,
      "t": 80006.66666666661,
      "d": 1146.666666666686,
      "v": 72
    },
    {
      "midi": 71,
      "hit": false,
      "t": 80039.99999999994,
      "d": 106.66666666667152,
      "v": 72
    },
    {
      "midi": 54,
      "hit": false,
      "t": 80413.33333333328,
      "d": 760.0000000000146,
      "v": 71
    },
    {
      "midi": 59,
      "hit": false,
      "t": 80766.66666666663,
      "d": 186.66666666667152,
      "v": 71
    },
    {
      "midi": 71,
      "hit": false,
      "t": 80799.99999999996,
      "d": 3840,
      "v": 71
    },
    {
      "midi": 63,
      "hit": false,
      "t": 80806.66666666663,
      "d": 213.33333333334303,
      "v": 71
    },
    {
      "midi": 66,
      "hit": false,
      "t": 80826.66666666663,
      "d": 253.33333333334303,
      "v": 71
    },
    {
      "midi": 59,
      "hit": false,
      "t": 81186.66666666663,
      "d": 393.3333333333285,
      "v": 71
    },
    {
      "midi": 64,
      "hit": false,
      "t": 81579.99999999996,
      "d": 626.6666666666715,
      "v": 70
    },
    {
      "midi": 68,
      "hit": false,
      "t": 81579.99999999996,
      "d": 673.333333333343,
      "v": 70
    },
    {
      "midi": 52,
      "hit": false,
      "t": 81579.99999999996,
      "d": 940.0000000000146,
      "v": 70
    },
    {
      "midi": 68,
      "hit": false,
      "t": 82439.99999999997,
      "d": 466.66666666665697,
      "v": 70
    },
    {
      "midi": 64,
      "hit": false,
      "t": 82439.99999999997,
      "d": 599.9999999999854,
      "v": 70
    },
    {
      "midi": 59,
      "hit": false,
      "t": 82813.3333333333,
      "d": 253.33333333332848,
      "v": 69
    },
    {
      "midi": 76,
      "hit": false,
      "t": 82826.66666666663,
      "d": 1366.666666666657,
      "v": 69
    },
    {
      "midi": 64,
      "hit": false,
      "t": 83219.99999999996,
      "d": 693.3333333333285,
      "v": 69
    },
    {
      "midi": 68,
      "hit": false,
      "t": 83219.99999999996,
      "d": 1100,
      "v": 69
    },
    {
      "midi": 52,
      "hit": false,
      "t": 83233.33333333328,
      "d": 493.3333333333285,
      "v": 69
    },
    {
      "midi": 51,
      "hit": false,
      "t": 83979.99999999996,
      "d": 640,
      "v": 68
    },
    {
      "midi": 64,
      "hit": false,
      "t": 84006.66666666663,
      "d": 53.33333333332848,
      "v": 68
    },
    {
      "midi": 68,
      "hit": false,
      "t": 84766.66666666663,
      "d": 533.3333333333576,
      "v": 68
    },
    {
      "midi": 73,
      "hit": false,
      "t": 84766.66666666663,
      "d": 766.6666666666861,
      "v": 68
    },
    {
      "midi": 64,
      "hit": false,
      "t": 84773.3333333333,
      "d": 460.00000000001455,
      "v": 68
    },
    {
      "midi": 49,
      "hit": false,
      "t": 84779.99999999997,
      "d": 946.6666666666861,
      "v": 68
    },
    {
      "midi": 61,
      "hit": false,
      "t": 85146.66666666664,
      "d": 580.0000000000146,
      "v": 67
    },
    {
      "midi": 68,
      "hit": false,
      "t": 85559.99999999999,
      "d": 1220,
      "v": 67
    },
    {
      "midi": 73,
      "hit": false,
      "t": 85559.99999999999,
      "d": 1240,
      "v": 67
    },
    {
      "midi": 64,
      "hit": false,
      "t": 85566.66666666666,
      "d": 1200,
      "v": 67
    },
    {
      "midi": 56,
      "hit": false,
      "t": 85959.99999999999,
      "d": 226.66666666667152,
      "v": 67
    },
    {
      "midi": 49,
      "hit": false,
      "t": 86366.66666666666,
      "d": 1026.666666666657,
      "v": 66
    },
    {
      "midi": 61,
      "hit": false,
      "t": 86779.99999999999,
      "d": 613.3333333333285,
      "v": 66
    },
    {
      "midi": 68,
      "hit": false,
      "t": 87193.33333333331,
      "d": 426.6666666666715,
      "v": 66
    },
    {
      "midi": 64,
      "hit": false,
      "t": 87193.33333333331,
      "d": 433.33333333334303,
      "v": 66
    },
    {
      "midi": 73,
      "hit": false,
      "t": 87193.33333333331,
      "d": 1553.3333333333285,
      "v": 66
    },
    {
      "midi": 49,
      "hit": false,
      "t": 87593.33333333331,
      "d": 166.66666666667152,
      "v": 74
    },
    {
      "midi": 66,
      "hit": false,
      "t": 87979.99999999999,
      "d": 693.3333333333285,
      "v": 74
    },
    {
      "midi": 70,
      "hit": false,
      "t": 87993.33333333331,
      "d": 713.3333333333285,
      "v": 74
    },
    {
      "midi": 42,
      "hit": false,
      "t": 88006.66666666664,
      "d": 980,
      "v": 74
    },
    {
      "midi": 54,
      "hit": false,
      "t": 88386.66666666664,
      "d": 566.6666666666715,
      "v": 73
    },
    {
      "midi": 66,
      "hit": false,
      "t": 88813.33333333331,
      "d": 1426.666666666657,
      "v": 73
    },
    {
      "midi": 70,
      "hit": false,
      "t": 88813.33333333331,
      "d": 1439.9999999999854,
      "v": 73
    },
    {
      "midi": 73,
      "hit": false,
      "t": 88813.33333333331,
      "d": 1479.9999999999854,
      "v": 73
    },
    {
      "midi": 49,
      "hit": false,
      "t": 89213.33333333331,
      "d": 213.33333333332848,
      "v": 72
    },
    {
      "midi": 42,
      "hit": false,
      "t": 89619.99999999997,
      "d": 986.666666666657,
      "v": 72
    },
    {
      "midi": 54,
      "hit": false,
      "t": 90006.66666666664,
      "d": 599.9999999999854,
      "v": 71
    },
    {
      "midi": 66,
      "hit": false,
      "t": 90426.66666666663,
      "d": 813.333333333343,
      "v": 70
    },
    {
      "midi": 73,
      "hit": false,
      "t": 90426.66666666663,
      "d": 846.6666666666861,
      "v": 70
    },
    {
      "midi": 70,
      "hit": false,
      "t": 90433.3333333333,
      "d": 813.333333333343,
      "v": 70
    },
    {
      "midi": 54,
      "hit": false,
      "t": 90793.3333333333,
      "d": 386.6666666666715,
      "v": 70
    },
    {
      "midi": 47,
      "hit": false,
      "t": 91199.99999999997,
      "d": 900,
      "v": 69
    },
    {
      "midi": 59,
      "hit": false,
      "t": 91626.66666666664,
      "d": 1020,
      "v": 69
    },
    {
      "midi": 63,
      "hit": false,
      "t": 92006.66666666664,
      "d": 673.3333333333285,
      "v": 68
    },
    {
      "midi": 66,
      "hit": false,
      "t": 92386.66666666664,
      "d": 320,
      "v": 68
    },
    {
      "midi": 54,
      "hit": false,
      "t": 92393.33333333331,
      "d": 346.66666666665697,
      "v": 68
    },
    {
      "midi": 59,
      "hit": false,
      "t": 92759.99999999997,
      "d": 566.666666666657,
      "v": 67
    },
    {
      "midi": 47,
      "hit": false,
      "t": 92786.66666666664,
      "d": 1093.3333333332994,
      "v": 67
    },
    {
      "midi": 63,
      "hit": false,
      "t": 92799.99999999997,
      "d": 686.666666666657,
      "v": 67
    },
    {
      "midi": 66,
      "hit": false,
      "t": 92813.3333333333,
      "d": 686.666666666657,
      "v": 67
    },
    {
      "midi": 71,
      "hit": false,
      "t": 92839.99999999997,
      "d": 693.3333333333139,
      "v": 67
    },
    {
      "midi": 54,
      "hit": false,
      "t": 93173.3333333333,
      "d": 526.6666666666424,
      "v": 67
    },
    {
      "midi": 59,
      "hit": false,
      "t": 93586.66666666661,
      "d": 800.0000000000146,
      "v": 66
    },
    {
      "midi": 63,
      "hit": false,
      "t": 93606.66666666661,
      "d": 820.0000000000146,
      "v": 66
    },
    {
      "midi": 66,
      "hit": false,
      "t": 93619.99999999994,
      "d": 860.0000000000146,
      "v": 66
    },
    {
      "midi": 71,
      "hit": false,
      "t": 93646.66666666661,
      "d": 933.333333333343,
      "v": 66
    },
    {
      "midi": 54,
      "hit": false,
      "t": 93966.66666666661,
      "d": 186.66666666667152,
      "v": 66
    },
    {
      "midi": 52,
      "hit": false,
      "t": 94379.99999999996,
      "d": 980,
      "v": 65
    },
    {
      "midi": 59,
      "hit": false,
      "t": 94766.66666666663,
      "d": 560,
      "v": 65
    },
    {
      "midi": 64,
      "hit": false,
      "t": 95206.66666666663,
      "d": 599.9999999999854,
      "v": 64
    },
    {
      "midi": 68,
      "hit": false,
      "t": 95206.66666666663,
      "d": 693.3333333333285,
      "v": 64
    },
    {
      "midi": 71,
      "hit": false,
      "t": 95579.99999999996,
      "d": 326.6666666666715,
      "v": 64
    },
    {
      "midi": 59,
      "hit": false,
      "t": 95593.33333333328,
      "d": 300,
      "v": 64
    },
    {
      "midi": 64,
      "hit": false,
      "t": 95959.99999999996,
      "d": 1106.666666666657,
      "v": 63
    },
    {
      "midi": 68,
      "hit": false,
      "t": 95966.66666666663,
      "d": 1166.666666666657,
      "v": 63
    },
    {
      "midi": 71,
      "hit": false,
      "t": 95966.66666666663,
      "d": 1533.333333333343,
      "v": 63
    },
    {
      "midi": 52,
      "hit": false,
      "t": 95979.99999999996,
      "d": 566.666666666657,
      "v": 63
    },
    {
      "midi": 76,
      "hit": false,
      "t": 95993.33333333328,
      "d": 1413.333333333343,
      "v": 63
    },
    {
      "midi": 51,
      "hit": false,
      "t": 96773.33333333328,
      "d": 566.6666666666715,
      "v": 66
    },
    {
      "midi": 58,
      "hit": false,
      "t": 97313.33333333328,
      "d": 120.00000000001455,
      "v": 66
    },
    {
      "midi": 68,
      "hit": false,
      "t": 97599.99999999997,
      "d": 706.6666666666715,
      "v": 66
    },
    {
      "midi": 49,
      "hit": false,
      "t": 97599.99999999997,
      "d": 1013.3333333333285,
      "v": 66
    },
    {
      "midi": 64,
      "hit": false,
      "t": 97606.66666666664,
      "d": 686.6666666666715,
      "v": 66
    },
    {
      "midi": 73,
      "hit": false,
      "t": 97613.33333333331,
      "d": 746.666666666657,
      "v": 66
    },
    {
      "midi": 61,
      "hit": false,
      "t": 97926.66666666664,
      "d": 646.666666666657,
      "v": 66
    },
    {
      "midi": 64,
      "hit": false,
      "t": 98379.99999999997,
      "d": 1379.9999999999854,
      "v": 65
    },
    {
      "midi": 68,
      "hit": false,
      "t": 98379.99999999997,
      "d": 1466.666666666657,
      "v": 65
    },
    {
      "midi": 73,
      "hit": false,
      "t": 98379.99999999997,
      "d": 1493.3333333333285,
      "v": 65
    },
    {
      "midi": 56,
      "hit": false,
      "t": 98766.66666666663,
      "d": 273.3333333333285,
      "v": 65
    },
    {
      "midi": 49,
      "hit": false,
      "t": 99193.33333333328,
      "d": 1073.3333333333576,
      "v": 65
    },
    {
      "midi": 61,
      "hit": false,
      "t": 99573.33333333328,
      "d": 720.0000000000291,
      "v": 64
    },
    {
      "midi": 64,
      "hit": false,
      "t": 99999.99999999997,
      "d": 786.6666666666715,
      "v": 64
    },
    {
      "midi": 68,
      "hit": false,
      "t": 99999.99999999997,
      "d": 813.333333333343,
      "v": 64
    },
    {
      "midi": 73,
      "hit": false,
      "t": 99999.99999999997,
      "d": 1100.0000000000146,
      "v": 64
    },
    {
      "midi": 49,
      "hit": false,
      "t": 100406.66666666664,
      "d": 160,
      "v": 64
    },
    {
      "midi": 42,
      "hit": false,
      "t": 100813.33333333331,
      "d": 906.6666666666715,
      "v": 64
    },
    {
      "midi": 54,
      "hit": false,
      "t": 100813.33333333331,
      "d": 906.6666666666715,
      "v": 64
    },
    {
      "midi": 66,
      "hit": false,
      "t": 101599.99999999999,
      "d": 1193.333333333343,
      "v": 63
    },
    {
      "midi": 70,
      "hit": false,
      "t": 101613.33333333331,
      "d": 1206.666666666686,
      "v": 63
    },
    {
      "midi": 73,
      "hit": false,
      "t": 101613.33333333331,
      "d": 1233.3333333333576,
      "v": 63
    },
    {
      "midi": 49,
      "hit": false,
      "t": 101979.99999999999,
      "d": 186.66666666667152,
      "v": 63
    },
    {
      "midi": 42,
      "hit": false,
      "t": 102406.66666666666,
      "d": 1020.0000000000146,
      "v": 63
    },
    {
      "midi": 54,
      "hit": false,
      "t": 102800,
      "d": 553.333333333343,
      "v": 62
    },
    {
      "midi": 73,
      "hit": false,
      "t": 103220,
      "d": 260,
      "v": 62
    },
    {
      "midi": 78,
      "hit": false,
      "t": 103226.66666666667,
      "d": 220,
      "v": 62
    },
    {
      "midi": 70,
      "hit": false,
      "t": 103226.66666666667,
      "d": 260,
      "v": 62
    },
    {
      "midi": 66,
      "hit": false,
      "t": 103226.66666666667,
      "d": 280,
      "v": 62
    },
    {
      "midi": 54,
      "hit": false,
      "t": 103600,
      "d": 286.6666666666715,
      "v": 62
    },
    {
      "midi": 62,
      "hit": false,
      "t": 103980,
      "d": 1326.666666666657,
      "v": 87
    },
    {
      "midi": 43,
      "hit": false,
      "t": 103980,
      "d": 3206.6666666666424,
      "v": 87
    },
    {
      "midi": 59,
      "hit": false,
      "t": 103993.33333333333,
      "d": 1013.3333333333285,
      "v": 87
    },
    {
      "midi": 55,
      "hit": false,
      "t": 103993.33333333333,
      "d": 2193.3333333333285,
      "v": 87
    },
    {
      "midi": 59,
      "hit": false,
      "t": 105166.66666666666,
      "d": 240,
      "v": 88
    },
    {
      "midi": 61,
      "hit": false,
      "t": 105339.99999999999,
      "d": 266.6666666666715,
      "v": 88
    },
    {
      "midi": 62,
      "hit": false,
      "t": 105546.66666666666,
      "d": 426.6666666666715,
      "v": 88
    },
    {
      "midi": 64,
      "hit": false,
      "t": 105953.33333333333,
      "d": 1206.666666666657,
      "v": 88
    },
    {
      "midi": 55,
      "hit": false,
      "t": 106386.66666666666,
      "d": 546.6666666666715,
      "v": 88
    },
    {
      "midi": 59,
      "hit": false,
      "t": 106386.66666666666,
      "d": 760,
      "v": 88
    },
    {
      "midi": 57,
      "hit": false,
      "t": 107159.99999999999,
      "d": 1426.666666666657,
      "v": 88
    },
    {
      "midi": 45,
      "hit": false,
      "t": 107173.33333333331,
      "d": 1400,
      "v": 88
    },
    {
      "midi": 61,
      "hit": false,
      "t": 107173.33333333331,
      "d": 1533.3333333333285,
      "v": 88
    },
    {
      "midi": 45,
      "hit": false,
      "t": 108746.66666666664,
      "d": 1026.6666666666715,
      "v": 88
    },
    {
      "midi": 57,
      "hit": false,
      "t": 108753.33333333331,
      "d": 680,
      "v": 88
    },
    {
      "midi": 62,
      "hit": false,
      "t": 108753.33333333331,
      "d": 786.6666666666715,
      "v": 88
    },
    {
      "midi": 57,
      "hit": false,
      "t": 109573.33333333331,
      "d": 600,
      "v": 88
    },
    {
      "midi": 64,
      "hit": false,
      "t": 109573.33333333331,
      "d": 760,
      "v": 88
    },
    {
      "midi": 52,
      "hit": false,
      "t": 109953.33333333331,
      "d": 400,
      "v": 88
    },
    {
      "midi": 64,
      "hit": false,
      "t": 110366.66666666664,
      "d": 786.6666666666861,
      "v": 89
    },
    {
      "midi": 57,
      "hit": false,
      "t": 110373.33333333331,
      "d": 646.6666666666715,
      "v": 89
    },
    {
      "midi": 45,
      "hit": false,
      "t": 110373.33333333331,
      "d": 1526.666666666686,
      "v": 89
    },
    {
      "midi": 61,
      "hit": false,
      "t": 110386.66666666664,
      "d": 740.0000000000146,
      "v": 89
    },
    {
      "midi": 52,
      "hit": false,
      "t": 110753.33333333331,
      "d": 540.0000000000146,
      "v": 89
    },
    {
      "midi": 64,
      "hit": false,
      "t": 111186.66666666666,
      "d": 333.33333333334303,
      "v": 89
    },
    {
      "midi": 57,
      "hit": false,
      "t": 111193.33333333333,
      "d": 340,
      "v": 89
    },
    {
      "midi": 61,
      "hit": false,
      "t": 111193.33333333333,
      "d": 426.6666666666715,
      "v": 89
    },
    {
      "midi": 69,
      "hit": false,
      "t": 111200,
      "d": 766.6666666666715,
      "v": 89
    },
    {
      "midi": 52,
      "hit": false,
      "t": 111580,
      "d": 340,
      "v": 89
    },
    {
      "midi": 62,
      "hit": false,
      "t": 111973.33333333334,
      "d": 346.66666666665697,
      "v": 58
    },
    {
      "midi": 66,
      "hit": false,
      "t": 111973.33333333334,
      "d": 1986.666666666657,
      "v": 58
    },
    {
      "midi": 50,
      "hit": false,
      "t": 111986.66666666667,
      "d": 960,
      "v": 58
    },
    {
      "midi": 62,
      "hit": false,
      "t": 112400,
      "d": 233.33333333332848,
      "v": 58
    },
    {
      "midi": 62,
      "hit": false,
      "t": 112793.33333333333,
      "d": 1133.333333333343,
      "v": 58
    },
    {
      "midi": 57,
      "hit": false,
      "t": 112800,
      "d": 1060,
      "v": 58
    },
    {
      "midi": 50,
      "hit": false,
      "t": 113180,
      "d": 1060.0000000000146,
      "v": 58
    },
    {
      "midi": 66,
      "hit": false,
      "t": 113986.66666666667,
      "d": 1946.666666666686,
      "v": 59
    },
    {
      "midi": 57,
      "hit": false,
      "t": 113993.33333333334,
      "d": 506.6666666666715,
      "v": 59
    },
    {
      "midi": 62,
      "hit": false,
      "t": 114000.00000000001,
      "d": 366.6666666666715,
      "v": 59
    },
    {
      "midi": 69,
      "hit": false,
      "t": 114000.00000000001,
      "d": 1153.333333333343,
      "v": 59
    },
    {
      "midi": 50,
      "hit": false,
      "t": 114346.66666666669,
      "d": 780,
      "v": 59
    },
    {
      "midi": 57,
      "hit": false,
      "t": 114740.00000000001,
      "d": 140,
      "v": 59
    },
    {
      "midi": 62,
      "hit": false,
      "t": 114740.00000000001,
      "d": 380,
      "v": 59
    },
    {
      "midi": 47,
      "hit": false,
      "t": 115140.00000000001,
      "d": 906.6666666666715,
      "v": 59
    },
    {
      "midi": 59,
      "hit": false,
      "t": 115146.66666666669,
      "d": 720,
      "v": 59
    },
    {
      "midi": 62,
      "hit": false,
      "t": 115146.66666666669,
      "d": 746.6666666666715,
      "v": 59
    },
    {
      "midi": 66,
      "hit": false,
      "t": 115953.33333333336,
      "d": 1213.333333333343,
      "v": 60
    },
    {
      "midi": 59,
      "hit": false,
      "t": 115966.66666666669,
      "d": 1146.6666666666715,
      "v": 60
    },
    {
      "midi": 62,
      "hit": false,
      "t": 115966.66666666669,
      "d": 1173.333333333343,
      "v": 60
    },
    {
      "midi": 54,
      "hit": false,
      "t": 116326.66666666669,
      "d": 420,
      "v": 60
    },
    {
      "midi": 47,
      "hit": false,
      "t": 116733.33333333336,
      "d": 1206.666666666686,
      "v": 60
    },
    {
      "midi": 54,
      "hit": false,
      "t": 117120.00000000003,
      "d": 520.0000000000146,
      "v": 60
    },
    {
      "midi": 62,
      "hit": false,
      "t": 117553.33333333337,
      "d": 600,
      "v": 61
    },
    {
      "midi": 66,
      "hit": false,
      "t": 117553.33333333337,
      "d": 760,
      "v": 61
    },
    {
      "midi": 59,
      "hit": false,
      "t": 117560.00000000004,
      "d": 286.6666666666715,
      "v": 61
    },
    {
      "midi": 54,
      "hit": false,
      "t": 117880.00000000004,
      "d": 426.66666666665697,
      "v": 61
    },
    {
      "midi": 67,
      "hit": false,
      "t": 118333.33333333337,
      "d": 1546.666666666657,
      "v": 61
    },
    {
      "midi": 52,
      "hit": false,
      "t": 118346.6666666667,
      "d": 986.6666666666715,
      "v": 61
    },
    {
      "midi": 64,
      "hit": false,
      "t": 118346.6666666667,
      "d": 1513.3333333333285,
      "v": 61
    },
    {
      "midi": 71,
      "hit": false,
      "t": 119566.6666666667,
      "d": 1973.333333333343,
      "v": 62
    },
    {
      "midi": 59,
      "hit": false,
      "t": 119586.6666666667,
      "d": 340,
      "v": 62
    },
    {
      "midi": 60,
      "hit": false,
      "t": 119600.00000000003,
      "d": 160,
      "v": 62
    },
    {
      "midi": 67,
      "hit": false,
      "t": 119966.6666666667,
      "d": 486.6666666666715,
      "v": 62
    },
    {
      "midi": 64,
      "hit": false,
      "t": 119966.6666666667,
      "d": 533.333333333343,
      "v": 62
    },
    {
      "midi": 52,
      "hit": false,
      "t": 119966.6666666667,
      "d": 1026.6666666666715,
      "v": 62
    },
    {
      "midi": 59,
      "hit": false,
      "t": 120373.33333333337,
      "d": 586.6666666666715,
      "v": 62
    },
    {
      "midi": 67,
      "hit": false,
      "t": 120773.33333333337,
      "d": 346.6666666666715,
      "v": 71
    },
    {
      "midi": 64,
      "hit": false,
      "t": 120773.33333333337,
      "d": 406.6666666666715,
      "v": 71
    },
    {
      "midi": 59,
      "hit": false,
      "t": 121153.33333333337,
      "d": 153.33333333334303,
      "v": 71
    },
    {
      "midi": 61,
      "hit": false,
      "t": 121560.00000000004,
      "d": 466.66666666665697,
      "v": 70
    },
    {
      "midi": 64,
      "hit": false,
      "t": 121560.00000000004,
      "d": 2806.6666666666715,
      "v": 70
    },
    {
      "midi": 45,
      "hit": false,
      "t": 121573.33333333337,
      "d": 913.333333333343,
      "v": 70
    },
    {
      "midi": 61,
      "hit": false,
      "t": 122353.33333333337,
      "d": 1306.6666666666715,
      "v": 69
    },
    {
      "midi": 57,
      "hit": false,
      "t": 122360.00000000004,
      "d": 1040,
      "v": 69
    },
    {
      "midi": 52,
      "hit": false,
      "t": 122746.66666666672,
      "d": 273.3333333333285,
      "v": 68
    },
    {
      "midi": 45,
      "hit": false,
      "t": 123160.00000000004,
      "d": 920,
      "v": 68
    },
    {
      "midi": 57,
      "hit": false,
      "t": 123560.00000000004,
      "d": 240,
      "v": 67
    },
    {
      "midi": 57,
      "hit": false,
      "t": 123953.33333333337,
      "d": 706.6666666666715,
      "v": 67
    },
    {
      "midi": 61,
      "hit": false,
      "t": 123960.00000000004,
      "d": 380,
      "v": 67
    },
    {
      "midi": 52,
      "hit": false,
      "t": 124320.00000000004,
      "d": 240,
      "v": 66
    },
    {
      "midi": 58,
      "hit": false,
      "t": 124760.00000000004,
      "d": 706.666666666657,
      "v": 66
    },
    {
      "midi": 61,
      "hit": false,
      "t": 124760.00000000004,
      "d": 773.3333333333285,
      "v": 66
    },
    {
      "midi": 42,
      "hit": false,
      "t": 124773.33333333337,
      "d": 906.6666666666715,
      "v": 66
    },
    {
      "midi": 54,
      "hit": false,
      "t": 125593.33333333337,
      "d": 266.6666666666715,
      "v": 64
    },
    {
      "midi": 58,
      "hit": false,
      "t": 125593.33333333337,
      "d": 286.6666666666715,
      "v": 64
    },
    {
      "midi": 61,
      "hit": false,
      "t": 125593.33333333337,
      "d": 373.33333333334303,
      "v": 64
    },
    {
      "midi": 49,
      "hit": false,
      "t": 125973.33333333339,
      "d": 326.66666666665697,
      "v": 64
    },
    {
      "midi": 61,
      "hit": false,
      "t": 125980.00000000006,
      "d": 353.3333333333285,
      "v": 64
    },
    {
      "midi": 54,
      "hit": false,
      "t": 125993.33333333339,
      "d": 273.3333333333285,
      "v": 64
    },
    {
      "midi": 58,
      "hit": false,
      "t": 125993.33333333339,
      "d": 313.3333333333285,
      "v": 64
    },
    {
      "midi": 54,
      "hit": false,
      "t": 126393.33333333339,
      "d": 200,
      "v": 63
    },
    {
      "midi": 42,
      "hit": false,
      "t": 126393.33333333339,
      "d": 206.66666666667152,
      "v": 63
    },
    {
      "midi": 58,
      "hit": false,
      "t": 126393.33333333339,
      "d": 206.66666666667152,
      "v": 63
    },
    {
      "midi": 61,
      "hit": false,
      "t": 126393.33333333339,
      "d": 220,
      "v": 63
    },
    {
      "midi": 63,
      "hit": false,
      "t": 127986.66666666672,
      "d": 740,
      "v": 79
    },
    {
      "midi": 66,
      "hit": false,
      "t": 127986.66666666672,
      "d": 760,
      "v": 84
    },
    {
      "midi": 59,
      "hit": false,
      "t": 127993.33333333339,
      "d": 700,
      "v": 84
    },
    {
      "midi": 47,
      "hit": false,
      "t": 128006.66666666672,
      "d": 933.333333333343,
      "v": 73
    },
    {
      "midi": 66,
      "hit": false,
      "t": 128813.33333333339,
      "d": 366.6666666666715,
      "v": 87
    },
    {
      "midi": 59,
      "hit": false,
      "t": 128820.00000000006,
      "d": 300,
      "v": 84
    },
    {
      "midi": 63,
      "hit": false,
      "t": 128820.00000000006,
      "d": 326.6666666666715,
      "v": 87
    },
    {
      "midi": 54,
      "hit": false,
      "t": 129180.00000000006,
      "d": 373.3333333333285,
      "v": 66
    },
    {
      "midi": 48,
      "hit": false,
      "t": 129553.33333333339,
      "d": 940.0000000000146,
      "v": 79
    },
    {
      "midi": 72,
      "hit": false,
      "t": 129560.00000000006,
      "d": 773.333333333343,
      "v": 99
    },
    {
      "midi": 76,
      "hit": false,
      "t": 129560.00000000006,
      "d": 773.333333333343,
      "v": 84
    },
    {
      "midi": 67,
      "hit": false,
      "t": 129566.66666666673,
      "d": 720,
      "v": 76
    },
    {
      "midi": 72,
      "hit": false,
      "t": 130380.00000000007,
      "d": 300,
      "v": 87
    },
    {
      "midi": 67,
      "hit": false,
      "t": 130380.00000000007,
      "d": 433.3333333333285,
      "v": 76
    },
    {
      "midi": 76,
      "hit": false,
      "t": 130380.00000000007,
      "d": 799.9999999999854,
      "v": 82
    },
    {
      "midi": 48,
      "hit": false,
      "t": 130780.00000000007,
      "d": 226.66666666665697,
      "v": 66
    },
    {
      "midi": 69,
      "hit": false,
      "t": 131166.66666666674,
      "d": 753.3333333333139,
      "v": 76
    },
    {
      "midi": 65,
      "hit": false,
      "t": 131173.3333333334,
      "d": 720,
      "v": 76
    },
    {
      "midi": 72,
      "hit": false,
      "t": 131173.3333333334,
      "d": 773.3333333333139,
      "v": 82
    },
    {
      "midi": 41,
      "hit": false,
      "t": 131180.00000000006,
      "d": 1239.999999999971,
      "v": 87
    },
    {
      "midi": 53,
      "hit": false,
      "t": 131593.3333333334,
      "d": 519.9999999999709,
      "v": 64
    },
    {
      "midi": 69,
      "hit": false,
      "t": 132013.33333333337,
      "d": 440,
      "v": 82
    },
    {
      "midi": 65,
      "hit": false,
      "t": 132013.33333333337,
      "d": 620,
      "v": 82
    },
    {
      "midi": 72,
      "hit": false,
      "t": 132013.33333333337,
      "d": 740,
      "v": 84
    },
    {
      "midi": 53,
      "hit": false,
      "t": 132420.00000000003,
      "d": 393.33333333334303,
      "v": 69
    },
    {
      "midi": 67,
      "hit": false,
      "t": 132793.33333333337,
      "d": 686.666666666657,
      "v": 82
    },
    {
      "midi": 71,
      "hit": false,
      "t": 132793.33333333337,
      "d": 713.3333333333139,
      "v": 76
    },
    {
      "midi": 74,
      "hit": false,
      "t": 132793.33333333337,
      "d": 746.666666666657,
      "v": 69
    },
    {
      "midi": 43,
      "hit": false,
      "t": 132793.33333333337,
      "d": 1019.9999999999709,
      "v": 76
    },
    {
      "midi": 55,
      "hit": false,
      "t": 133200.00000000003,
      "d": 519.9999999999709,
      "v": 62
    },
    {
      "midi": 71,
      "hit": false,
      "t": 133606.6666666667,
      "d": 1486.6666666665988,
      "v": 82
    },
    {
      "midi": 74,
      "hit": false,
      "t": 133606.6666666667,
      "d": 1506.6666666665988,
      "v": 82
    },
    {
      "midi": 67,
      "hit": false,
      "t": 133613.33333333334,
      "d": 1453.3333333332848,
      "v": 73
    },
    {
      "midi": 48,
      "hit": false,
      "t": 134020,
      "d": 206.66666666665697,
      "v": 79
    },
    {
      "midi": 50,
      "hit": false,
      "t": 134020,
      "d": 246.66666666665697,
      "v": 66
    },
    {
      "midi": 43,
      "hit": false,
      "t": 134413.3333333333,
      "d": 1153.3333333332848,
      "v": 82
    },
    {
      "midi": 55,
      "hit": false,
      "t": 134819.99999999997,
      "d": 499.9999999999709,
      "v": 79
    },
    {
      "midi": 74,
      "hit": false,
      "t": 135213.33333333328,
      "d": 706.6666666666279,
      "v": 91
    },
    {
      "midi": 71,
      "hit": false,
      "t": 135219.99999999994,
      "d": 286.66666666665697,
      "v": 95
    },
    {
      "midi": 67,
      "hit": false,
      "t": 135219.99999999994,
      "d": 306.66666666665697,
      "v": 91
    },
    {
      "midi": 55,
      "hit": false,
      "t": 135593.33333333326,
      "d": 366.66666666665697,
      "v": 68
    },
    {
      "midi": 64,
      "hit": false,
      "t": 135966.66666666657,
      "d": 700,
      "v": 79
    },
    {
      "midi": 67,
      "hit": false,
      "t": 135966.66666666657,
      "d": 720,
      "v": 82
    },
    {
      "midi": 72,
      "hit": false,
      "t": 135966.66666666657,
      "d": 740,
      "v": 87
    },
    {
      "midi": 48,
      "hit": false,
      "t": 135979.9999999999,
      "d": 1066.666666666657,
      "v": 79
    },
    {
      "midi": 60,
      "hit": false,
      "t": 136406.66666666657,
      "d": 493.33333333334303,
      "v": 55
    },
    {
      "midi": 64,
      "hit": false,
      "t": 136786.66666666657,
      "d": 619.9999999999709,
      "v": 84
    },
    {
      "midi": 67,
      "hit": false,
      "t": 136786.66666666657,
      "d": 653.3333333333139,
      "v": 87
    },
    {
      "midi": 72,
      "hit": false,
      "t": 136786.66666666657,
      "d": 739.9999999999709,
      "v": 91
    },
    {
      "midi": 55,
      "hit": false,
      "t": 137186.66666666657,
      "d": 213.33333333331393,
      "v": 52
    },
    {
      "midi": 53,
      "hit": false,
      "t": 137193.33333333323,
      "d": 66.66666666665697,
      "v": 52
    },
    {
      "midi": 69,
      "hit": false,
      "t": 137579.99999999988,
      "d": 726.666666666657,
      "v": 87
    },
    {
      "midi": 72,
      "hit": false,
      "t": 137579.99999999988,
      "d": 746.666666666657,
      "v": 91
    },
    {
      "midi": 41,
      "hit": false,
      "t": 137579.99999999988,
      "d": 1219.999999999971,
      "v": 87
    },
    {
      "midi": 65,
      "hit": false,
      "t": 137586.66666666654,
      "d": 680,
      "v": 76
    },
    {
      "midi": 53,
      "hit": false,
      "t": 137979.99999999988,
      "d": 513.3333333333139,
      "v": 57
    },
    {
      "midi": 65,
      "hit": false,
      "t": 138386.66666666654,
      "d": 479.9999999999709,
      "v": 82
    },
    {
      "midi": 69,
      "hit": false,
      "t": 138386.66666666654,
      "d": 719.9999999999709,
      "v": 87
    },
    {
      "midi": 72,
      "hit": false,
      "t": 138386.66666666654,
      "d": 739.9999999999709,
      "v": 76
    },
    {
      "midi": 53,
      "hit": false,
      "t": 138799.99999999985,
      "d": 366.66666666665697,
      "v": 64
    },
    {
      "midi": 71,
      "hit": false,
      "t": 139166.6666666665,
      "d": 279.9999999999709,
      "v": 69
    },
    {
      "midi": 74,
      "hit": false,
      "t": 139173.33333333317,
      "d": 766.666666666657,
      "v": 79
    },
    {
      "midi": 43,
      "hit": false,
      "t": 139173.33333333317,
      "d": 960,
      "v": 79
    },
    {
      "midi": 67,
      "hit": false,
      "t": 139179.99999999983,
      "d": 680,
      "v": 79
    },
    {
      "midi": 71,
      "hit": false,
      "t": 139566.66666666648,
      "d": 346.66666666668607,
      "v": 29
    },
    {
      "midi": 55,
      "hit": false,
      "t": 139599.99999999983,
      "d": 473.33333333334303,
      "v": 64
    },
    {
      "midi": 74,
      "hit": false,
      "t": 139993.33333333317,
      "d": 873.333333333343,
      "v": 79
    },
    {
      "midi": 67,
      "hit": false,
      "t": 139999.99999999983,
      "d": 340,
      "v": 91
    },
    {
      "midi": 71,
      "hit": false,
      "t": 139999.99999999983,
      "d": 853.333333333343,
      "v": 79
    },
    {
      "midi": 50,
      "hit": false,
      "t": 140379.99999999983,
      "d": 246.66666666665697,
      "v": 79
    },
    {
      "midi": 67,
      "hit": false,
      "t": 140559.99999999983,
      "d": 280,
      "v": 73
    },
    {
      "midi": 43,
      "hit": false,
      "t": 140766.66666666648,
      "d": 606.6666666666861,
      "v": 76
    },
    {
      "midi": 67,
      "hit": false,
      "t": 140973.33333333317,
      "d": 293.33333333334303,
      "v": 79
    },
    {
      "midi": 71,
      "hit": false,
      "t": 140973.33333333317,
      "d": 313.33333333334303,
      "v": 79
    },
    {
      "midi": 74,
      "hit": false,
      "t": 140973.33333333317,
      "d": 320,
      "v": 79
    },
    {
      "midi": 67,
      "hit": false,
      "t": 141353.33333333317,
      "d": 513.333333333343,
      "v": 84
    },
    {
      "midi": 71,
      "hit": false,
      "t": 141366.6666666665,
      "d": 700,
      "v": 95
    },
    {
      "midi": 74,
      "hit": false,
      "t": 141366.6666666665,
      "d": 940,
      "v": 95
    },
    {
      "midi": 50,
      "hit": false,
      "t": 141586.6666666665,
      "d": 360,
      "v": 87
    },
    {
      "midi": 55,
      "hit": false,
      "t": 141973.33333333317,
      "d": 380,
      "v": 79
    },
    {
      "midi": 60,
      "hit": false,
      "t": 142366.6666666665,
      "d": 693.3333333333139,
      "v": 92
    },
    {
      "midi": 64,
      "hit": false,
      "t": 142373.33333333317,
      "d": 713.3333333333139,
      "v": 92
    },
    {
      "midi": 48,
      "hit": false,
      "t": 142373.33333333317,
      "d": 899.9999999999709,
      "v": 92
    },
    {
      "midi": 67,
      "hit": false,
      "t": 142373.33333333317,
      "d": 2259.999999999971,
      "v": 92
    },
    {
      "midi": 60,
      "hit": false,
      "t": 143199.99999999983,
      "d": 1266.6666666666279,
      "v": 69
    },
    {
      "midi": 64,
      "hit": false,
      "t": 143206.66666666648,
      "d": 1353.333333333314,
      "v": 69
    },
    {
      "midi": 55,
      "hit": false,
      "t": 143579.9999999998,
      "d": 340,
      "v": 69
    },
    {
      "midi": 48,
      "hit": false,
      "t": 143979.9999999998,
      "d": 1186.666666666657,
      "v": 69
    },
    {
      "midi": 55,
      "hit": false,
      "t": 144386.66666666645,
      "d": 513.333333333343,
      "v": 69
    },
    {
      "midi": 60,
      "hit": false,
      "t": 144739.9999999998,
      "d": 839.9999999999709,
      "v": 69
    },
    {
      "midi": 64,
      "hit": false,
      "t": 144773.33333333314,
      "d": 859.9999999999709,
      "v": 69
    },
    {
      "midi": 67,
      "hit": false,
      "t": 144799.9999999998,
      "d": 846.666666666657,
      "v": 69
    },
    {
      "midi": 72,
      "hit": false,
      "t": 144819.9999999998,
      "d": 933.3333333333139,
      "v": 69
    },
    {
      "midi": 55,
      "hit": false,
      "t": 145166.66666666645,
      "d": 240,
      "v": 69
    },
    {
      "midi": 53,
      "hit": false,
      "t": 145573.3333333331,
      "d": 933.333333333343,
      "v": 69
    },
    {
      "midi": 60,
      "hit": false,
      "t": 145939.99999999977,
      "d": 553.333333333343,
      "v": 69
    },
    {
      "midi": 65,
      "hit": false,
      "t": 146379.99999999977,
      "d": 480,
      "v": 69
    },
    {
      "midi": 69,
      "hit": false,
      "t": 146379.99999999977,
      "d": 526.666666666657,
      "v": 69
    },
    {
      "midi": 72,
      "hit": false,
      "t": 146766.66666666645,
      "d": 1933.3333333333721,
      "v": 69
    },
    {
      "midi": 60,
      "hit": false,
      "t": 146773.3333333331,
      "d": 273.33333333331393,
      "v": 69
    },
    {
      "midi": 65,
      "hit": false,
      "t": 146953.33333333308,
      "d": 626.6666666666861,
      "v": 69
    },
    {
      "midi": 53,
      "hit": false,
      "t": 147159.99999999977,
      "d": 526.666666666657,
      "v": 69
    },
    {
      "midi": 60,
      "hit": false,
      "t": 147559.99999999977,
      "d": 320,
      "v": 69
    },
    {
      "midi": 52,
      "hit": false,
      "t": 147953.3333333331,
      "d": 466.6666666667152,
      "v": 69
    },
    {
      "midi": 69,
      "hit": false,
      "t": 147966.66666666645,
      "d": 406.66666666668607,
      "v": 69
    },
    {
      "midi": 65,
      "hit": false,
      "t": 147966.66666666645,
      "d": 420.0000000000291,
      "v": 69
    },
    {
      "midi": 77,
      "hit": false,
      "t": 147979.9999999998,
      "d": 420.0000000000291,
      "v": 69
    },
    {
      "midi": 59,
      "hit": false,
      "t": 148359.9999999998,
      "d": 353.33333333337214,
      "v": 69
    },
    {
      "midi": 65,
      "hit": false,
      "t": 148759.99999999983,
      "d": 640,
      "v": 69
    },
    {
      "midi": 69,
      "hit": false,
      "t": 148759.99999999983,
      "d": 706.666666666657,
      "v": 69
    },
    {
      "midi": 74,
      "hit": false,
      "t": 148759.99999999983,
      "d": 773.3333333333139,
      "v": 69
    },
    {
      "midi": 50,
      "hit": false,
      "t": 148779.99999999983,
      "d": 980,
      "v": 69
    },
    {
      "midi": 62,
      "hit": false,
      "t": 149153.33333333317,
      "d": 593.3333333333139,
      "v": 73
    },
    {
      "midi": 74,
      "hit": false,
      "t": 149586.66666666648,
      "d": 1233.3333333333721,
      "v": 72
    },
    {
      "midi": 69,
      "hit": false,
      "t": 149593.33333333314,
      "d": 1233.3333333333721,
      "v": 72
    },
    {
      "midi": 65,
      "hit": false,
      "t": 149593.33333333314,
      "d": 1246.6666666667152,
      "v": 72
    },
    {
      "midi": 57,
      "hit": false,
      "t": 149973.33333333317,
      "d": 266.66666666665697,
      "v": 72
    },
    {
      "midi": 50,
      "hit": false,
      "t": 150373.33333333317,
      "d": 1006.6666666666861,
      "v": 71
    },
    {
      "midi": 62,
      "hit": false,
      "t": 150786.6666666665,
      "d": 566.6666666666861,
      "v": 71
    },
    {
      "midi": 65,
      "hit": false,
      "t": 151179.99999999985,
      "d": 813.333333333343,
      "v": 70
    },
    {
      "midi": 69,
      "hit": false,
      "t": 151179.99999999985,
      "d": 820,
      "v": 70
    },
    {
      "midi": 74,
      "hit": false,
      "t": 151179.99999999985,
      "d": 1046.666666666686,
      "v": 70
    },
    {
      "midi": 77,
      "hit": false,
      "t": 151199.99999999985,
      "d": 893.333333333343,
      "v": 70
    },
    {
      "midi": 50,
      "hit": false,
      "t": 151573.3333333332,
      "d": 133.33333333334303,
      "v": 70
    },
    {
      "midi": 55,
      "hit": false,
      "t": 151973.3333333332,
      "d": 960,
      "v": 69
    },
    {
      "midi": 43,
      "hit": false,
      "t": 151979.99999999985,
      "d": 946.6666666666861,
      "v": 69
    },
    {
      "midi": 67,
      "hit": false,
      "t": 152799.99999999988,
      "d": 1213.333333333314,
      "v": 68
    },
    {
      "midi": 74,
      "hit": false,
      "t": 152799.99999999988,
      "d": 1226.6666666666279,
      "v": 68
    },
    {
      "midi": 71,
      "hit": false,
      "t": 152806.66666666654,
      "d": 1213.333333333314,
      "v": 68
    },
    {
      "midi": 50,
      "hit": false,
      "t": 153199.99999999985,
      "d": 200,
      "v": 67
    },
    {
      "midi": 43,
      "hit": false,
      "t": 153606.6666666665,
      "d": 1220.000000000029,
      "v": 67
    },
    {
      "midi": 55,
      "hit": false,
      "t": 153999.99999999985,
      "d": 513.333333333343,
      "v": 66
    },
    {
      "midi": 74,
      "hit": false,
      "t": 154399.99999999985,
      "d": 306.66666666668607,
      "v": 66
    },
    {
      "midi": 67,
      "hit": false,
      "t": 154399.99999999985,
      "d": 313.33333333334303,
      "v": 66
    },
    {
      "midi": 71,
      "hit": false,
      "t": 154399.99999999985,
      "d": 313.33333333334303,
      "v": 66
    },
    {
      "midi": 55,
      "hit": false,
      "t": 154786.66666666654,
      "d": 373.33333333334303,
      "v": 65
    },
    {
      "midi": 60,
      "hit": false,
      "t": 155173.33333333323,
      "d": 706.666666666657,
      "v": 73
    },
    {
      "midi": 64,
      "hit": false,
      "t": 155173.33333333323,
      "d": 733.3333333333139,
      "v": 73
    },
    {
      "midi": 67,
      "hit": false,
      "t": 155173.33333333323,
      "d": 746.666666666657,
      "v": 73
    },
    {
      "midi": 48,
      "hit": false,
      "t": 155199.99999999988,
      "d": 893.333333333343,
      "v": 73
    },
    {
      "midi": 60,
      "hit": false,
      "t": 155999.99999999988,
      "d": 1273.333333333343,
      "v": 73
    },
    {
      "midi": 64,
      "hit": false,
      "t": 155999.99999999988,
      "d": 1426.666666666686,
      "v": 73
    },
    {
      "midi": 67,
      "hit": false,
      "t": 155999.99999999988,
      "d": 1533.333333333343,
      "v": 73
    },
    {
      "midi": 55,
      "hit": false,
      "t": 156406.66666666657,
      "d": 260,
      "v": 72
    },
    {
      "midi": 48,
      "hit": false,
      "t": 156799.9999999999,
      "d": 1146.6666666666279,
      "v": 72
    },
    {
      "midi": 72,
      "hit": false,
      "t": 156833.33333333326,
      "d": 106.66666666665697,
      "v": 72
    },
    {
      "midi": 55,
      "hit": false,
      "t": 157206.66666666657,
      "d": 759.9999999999709,
      "v": 71
    },
    {
      "midi": 60,
      "hit": false,
      "t": 157559.99999999988,
      "d": 186.66666666665697,
      "v": 71
    },
    {
      "midi": 72,
      "hit": false,
      "t": 157593.33333333323,
      "d": 3840,
      "v": 71
    },
    {
      "midi": 64,
      "hit": false,
      "t": 157599.99999999988,
      "d": 213.33333333331393,
      "v": 71
    },
    {
      "midi": 67,
      "hit": false,
      "t": 157619.99999999988,
      "d": 253.33333333331393,
      "v": 71
    },
    {
      "midi": 60,
      "hit": false,
      "t": 157979.99999999988,
      "d": 393.33333333334303,
      "v": 71
    },
    {
      "midi": 65,
      "hit": false,
      "t": 158373.33333333323,
      "d": 626.666666666657,
      "v": 70
    },
    {
      "midi": 69,
      "hit": false,
      "t": 158373.33333333323,
      "d": 673.3333333333139,
      "v": 70
    },
    {
      "midi": 53,
      "hit": false,
      "t": 158373.33333333323,
      "d": 939.9999999999709,
      "v": 70
    },
    {
      "midi": 69,
      "hit": false,
      "t": 159233.3333333332,
      "d": 466.66666666668607,
      "v": 70
    },
    {
      "midi": 65,
      "hit": false,
      "t": 159233.3333333332,
      "d": 600.0000000000291,
      "v": 70
    },
    {
      "midi": 60,
      "hit": false,
      "t": 159606.66666666654,
      "d": 253.33333333334303,
      "v": 69
    },
    {
      "midi": 77,
      "hit": false,
      "t": 159619.99999999988,
      "d": 1366.666666666686,
      "v": 69
    },
    {
      "midi": 65,
      "hit": false,
      "t": 160013.33333333323,
      "d": 693.333333333343,
      "v": 69
    },
    {
      "midi": 69,
      "hit": false,
      "t": 160013.33333333323,
      "d": 1100,
      "v": 69
    },
    {
      "midi": 53,
      "hit": false,
      "t": 160026.66666666657,
      "d": 493.33333333334303,
      "v": 69
    },
    {
      "midi": 52,
      "hit": false,
      "t": 160773.33333333323,
      "d": 640,
      "v": 68
    },
    {
      "midi": 65,
      "hit": false,
      "t": 160799.99999999988,
      "d": 53.333333333343035,
      "v": 68
    },
    {
      "midi": 69,
      "hit": false,
      "t": 161559.99999999988,
      "d": 533.3333333332848,
      "v": 68
    },
    {
      "midi": 74,
      "hit": false,
      "t": 161559.99999999988,
      "d": 766.6666666666279,
      "v": 68
    },
    {
      "midi": 65,
      "hit": false,
      "t": 161566.66666666654,
      "d": 459.9999999999709,
      "v": 68
    },
    {
      "midi": 50,
      "hit": false,
      "t": 161573.3333333332,
      "d": 946.6666666666279,
      "v": 68
    },
    {
      "midi": 62,
      "hit": false,
      "t": 161939.99999999985,
      "d": 579.9999999999709,
      "v": 67
    },
    {
      "midi": 69,
      "hit": false,
      "t": 162353.33333333317,
      "d": 1220,
      "v": 67
    },
    {
      "midi": 74,
      "hit": false,
      "t": 162353.33333333317,
      "d": 1240,
      "v": 67
    },
    {
      "midi": 65,
      "hit": false,
      "t": 162359.99999999983,
      "d": 1200,
      "v": 67
    },
    {
      "midi": 57,
      "hit": false,
      "t": 162753.33333333317,
      "d": 226.66666666665697,
      "v": 67
    },
    {
      "midi": 50,
      "hit": false,
      "t": 163159.99999999983,
      "d": 1026.666666666686,
      "v": 66
    },
    {
      "midi": 62,
      "hit": false,
      "t": 163573.33333333317,
      "d": 613.333333333343,
      "v": 66
    },
    {
      "midi": 69,
      "hit": false,
      "t": 163986.6666666665,
      "d": 426.66666666665697,
      "v": 66
    },
    {
      "midi": 65,
      "hit": false,
      "t": 163986.6666666665,
      "d": 433.33333333331393,
      "v": 66
    },
    {
      "midi": 74,
      "hit": false,
      "t": 163986.6666666665,
      "d": 1553.333333333343,
      "v": 66
    },
    {
      "midi": 50,
      "hit": false,
      "t": 164386.6666666665,
      "d": 166.66666666665697,
      "v": 74
    },
    {
      "midi": 67,
      "hit": false,
      "t": 164773.33333333317,
      "d": 693.333333333343,
      "v": 74
    },
    {
      "midi": 71,
      "hit": false,
      "t": 164786.6666666665,
      "d": 713.333333333343,
      "v": 74
    },
    {
      "midi": 43,
      "hit": false,
      "t": 164799.99999999985,
      "d": 980,
      "v": 74
    },
    {
      "midi": 55,
      "hit": false,
      "t": 165179.99999999985,
      "d": 566.666666666657,
      "v": 73
    },
    {
      "midi": 67,
      "hit": false,
      "t": 165606.6666666665,
      "d": 1426.666666666686,
      "v": 73
    },
    {
      "midi": 71,
      "hit": false,
      "t": 165606.6666666665,
      "d": 1440.000000000029,
      "v": 73
    },
    {
      "midi": 74,
      "hit": false,
      "t": 165606.6666666665,
      "d": 1480.000000000029,
      "v": 73
    },
    {
      "midi": 50,
      "hit": false,
      "t": 166006.6666666665,
      "d": 213.33333333334303,
      "v": 72
    },
    {
      "midi": 43,
      "hit": false,
      "t": 166413.3333333332,
      "d": 986.6666666666861,
      "v": 72
    },
    {
      "midi": 55,
      "hit": false,
      "t": 166799.99999999985,
      "d": 600.0000000000291,
      "v": 71
    },
    {
      "midi": 67,
      "hit": false,
      "t": 167219.99999999988,
      "d": 813.3333333333139,
      "v": 70
    },
    {
      "midi": 74,
      "hit": false,
      "t": 167219.99999999988,
      "d": 846.6666666666279,
      "v": 70
    },
    {
      "midi": 71,
      "hit": false,
      "t": 167226.66666666654,
      "d": 813.3333333333139,
      "v": 70
    },
    {
      "midi": 55,
      "hit": false,
      "t": 167586.66666666654,
      "d": 386.66666666665697,
      "v": 70
    },
    {
      "midi": 48,
      "hit": false,
      "t": 167993.3333333332,
      "d": 900,
      "v": 69
    },
    {
      "midi": 60,
      "hit": false,
      "t": 168419.99999999985,
      "d": 1020,
      "v": 69
    },
    {
      "midi": 64,
      "hit": false,
      "t": 168799.99999999985,
      "d": 673.333333333343,
      "v": 68
    },
    {
      "midi": 67,
      "hit": false,
      "t": 169179.99999999985,
      "d": 320,
      "v": 68
    },
    {
      "midi": 55,
      "hit": false,
      "t": 169186.6666666665,
      "d": 346.66666666668607,
      "v": 68
    },
    {
      "midi": 60,
      "hit": false,
      "t": 169553.3333333332,
      "d": 566.6666666666861,
      "v": 67
    },
    {
      "midi": 48,
      "hit": false,
      "t": 169579.99999999985,
      "d": 1093.3333333334012,
      "v": 67
    },
    {
      "midi": 64,
      "hit": false,
      "t": 169593.3333333332,
      "d": 686.6666666666861,
      "v": 67
    },
    {
      "midi": 67,
      "hit": false,
      "t": 169606.66666666654,
      "d": 686.6666666666861,
      "v": 67
    },
    {
      "midi": 72,
      "hit": false,
      "t": 169633.3333333332,
      "d": 693.3333333333721,
      "v": 67
    },
    {
      "midi": 55,
      "hit": false,
      "t": 169966.66666666654,
      "d": 526.6666666667152,
      "v": 67
    },
    {
      "midi": 60,
      "hit": false,
      "t": 170379.9999999999,
      "d": 799.9999999999709,
      "v": 66
    },
    {
      "midi": 64,
      "hit": false,
      "t": 170399.9999999999,
      "d": 819.9999999999709,
      "v": 66
    },
    {
      "midi": 67,
      "hit": false,
      "t": 170413.33333333326,
      "d": 859.9999999999709,
      "v": 66
    },
    {
      "midi": 72,
      "hit": false,
      "t": 170439.9999999999,
      "d": 933.3333333333139,
      "v": 66
    },
    {
      "midi": 55,
      "hit": false,
      "t": 170759.9999999999,
      "d": 186.66666666665697,
      "v": 66
    },
    {
      "midi": 53,
      "hit": false,
      "t": 171173.33333333323,
      "d": 980,
      "v": 65
    },
    {
      "midi": 60,
      "hit": false,
      "t": 171559.99999999988,
      "d": 560,
      "v": 65
    },
    {
      "midi": 65,
      "hit": false,
      "t": 171999.99999999988,
      "d": 600.0000000000291,
      "v": 64
    },
    {
      "midi": 69,
      "hit": false,
      "t": 171999.99999999988,
      "d": 693.333333333343,
      "v": 64
    },
    {
      "midi": 72,
      "hit": false,
      "t": 172373.33333333323,
      "d": 326.66666666665697,
      "v": 64
    },
    {
      "midi": 60,
      "hit": false,
      "t": 172386.66666666657,
      "d": 300,
      "v": 64
    },
    {
      "midi": 65,
      "hit": false,
      "t": 172753.33333333323,
      "d": 1106.666666666686,
      "v": 63
    },
    {
      "midi": 69,
      "hit": false,
      "t": 172759.99999999988,
      "d": 1166.666666666686,
      "v": 63
    },
    {
      "midi": 72,
      "hit": false,
      "t": 172759.99999999988,
      "d": 1533.333333333314,
      "v": 63
    },
    {
      "midi": 53,
      "hit": false,
      "t": 172773.33333333323,
      "d": 566.6666666666861,
      "v": 63
    },
    {
      "midi": 77,
      "hit": false,
      "t": 172786.66666666657,
      "d": 1413.333333333314,
      "v": 63
    },
    {
      "midi": 52,
      "hit": false,
      "t": 173566.66666666657,
      "d": 566.666666666657,
      "v": 66
    },
    {
      "midi": 59,
      "hit": false,
      "t": 174106.66666666657,
      "d": 119.9999999999709,
      "v": 66
    },
    {
      "midi": 69,
      "hit": false,
      "t": 174393.3333333332,
      "d": 706.666666666657,
      "v": 66
    },
    {
      "midi": 50,
      "hit": false,
      "t": 174393.3333333332,
      "d": 1013.333333333343,
      "v": 66
    },
    {
      "midi": 65,
      "hit": false,
      "t": 174399.99999999985,
      "d": 686.666666666657,
      "v": 66
    },
    {
      "midi": 74,
      "hit": false,
      "t": 174406.6666666665,
      "d": 746.6666666666861,
      "v": 66
    },
    {
      "midi": 62,
      "hit": false,
      "t": 174719.99999999985,
      "d": 646.6666666666861,
      "v": 66
    },
    {
      "midi": 65,
      "hit": false,
      "t": 175173.3333333332,
      "d": 1380.000000000029,
      "v": 65
    },
    {
      "midi": 69,
      "hit": false,
      "t": 175173.3333333332,
      "d": 1466.666666666686,
      "v": 65
    },
    {
      "midi": 74,
      "hit": false,
      "t": 175173.3333333332,
      "d": 1493.333333333343,
      "v": 65
    },
    {
      "midi": 57,
      "hit": false,
      "t": 175559.99999999988,
      "d": 273.33333333334303,
      "v": 65
    },
    {
      "midi": 50,
      "hit": false,
      "t": 175986.66666666657,
      "d": 1073.3333333332848,
      "v": 65
    },
    {
      "midi": 62,
      "hit": false,
      "t": 176366.66666666657,
      "d": 719.9999999999418,
      "v": 64
    },
    {
      "midi": 65,
      "hit": false,
      "t": 176793.3333333332,
      "d": 786.666666666657,
      "v": 64
    },
    {
      "midi": 69,
      "hit": false,
      "t": 176793.3333333332,
      "d": 813.3333333333139,
      "v": 64
    },
    {
      "midi": 74,
      "hit": false,
      "t": 176793.3333333332,
      "d": 1099.999999999971,
      "v": 64
    },
    {
      "midi": 50,
      "hit": false,
      "t": 177199.99999999985,
      "d": 160,
      "v": 64
    },
    {
      "midi": 43,
      "hit": false,
      "t": 177606.6666666665,
      "d": 906.666666666657,
      "v": 64
    },
    {
      "midi": 55,
      "hit": false,
      "t": 177606.6666666665,
      "d": 906.666666666657,
      "v": 64
    },
    {
      "midi": 67,
      "hit": false,
      "t": 178393.33333333317,
      "d": 1193.333333333314,
      "v": 63
    },
    {
      "midi": 71,
      "hit": false,
      "t": 178406.6666666665,
      "d": 1206.6666666666279,
      "v": 63
    },
    {
      "midi": 74,
      "hit": false,
      "t": 178406.6666666665,
      "d": 1233.3333333332848,
      "v": 63
    },
    {
      "midi": 50,
      "hit": false,
      "t": 178773.33333333317,
      "d": 186.66666666665697,
      "v": 63
    },
    {
      "midi": 43,
      "hit": false,
      "t": 179199.99999999983,
      "d": 1019.9999999999709,
      "v": 63
    },
    {
      "midi": 55,
      "hit": false,
      "t": 179593.33333333314,
      "d": 553.3333333333139,
      "v": 62
    },
    {
      "midi": 74,
      "hit": false,
      "t": 180013.33333333314,
      "d": 260,
      "v": 62
    },
    {
      "midi": 79,
      "hit": false,
      "t": 180019.9999999998,
      "d": 220,
      "v": 62
    },
    {
      "midi": 71,
      "hit": false,
      "t": 180019.9999999998,
      "d": 260,
      "v": 62
    },
    {
      "midi": 67,
      "hit": false,
      "t": 180019.9999999998,
      "d": 280,
      "v": 62
    },
    {
      "midi": 55,
      "hit": false,
      "t": 180393.33333333314,
      "d": 286.66666666665697,
      "v": 62
    },
    {
      "midi": 60,
      "hit": false,
      "t": 180806.66666666645,
      "d": 693.3333333333139,
      "v": 92
    },
    {
      "midi": 64,
      "hit": false,
      "t": 180813.3333333331,
      "d": 713.3333333333139,
      "v": 92
    },
    {
      "midi": 48,
      "hit": false,
      "t": 180813.3333333331,
      "d": 899.9999999999709,
      "v": 92
    },
    {
      "midi": 67,
      "hit": false,
      "t": 180813.3333333331,
      "d": 2259.999999999971,
      "v": 92
    },
    {
      "midi": 60,
      "hit": false,
      "t": 181639.99999999977,
      "d": 1266.6666666666279,
      "v": 69
    },
    {
      "midi": 64,
      "hit": false,
      "t": 181646.66666666642,
      "d": 1353.333333333314,
      "v": 69
    },
    {
      "midi": 55,
      "hit": false,
      "t": 182019.99999999974,
      "d": 340,
      "v": 69
    },
    {
      "midi": 48,
      "hit": false,
      "t": 182419.99999999974,
      "d": 1186.666666666657,
      "v": 69
    },
    {
      "midi": 55,
      "hit": false,
      "t": 182826.6666666664,
      "d": 513.333333333343,
      "v": 69
    },
    {
      "midi": 60,
      "hit": false,
      "t": 183179.99999999974,
      "d": 839.9999999999709,
      "v": 69
    },
    {
      "midi": 64,
      "hit": false,
      "t": 183213.33333333308,
      "d": 859.9999999999709,
      "v": 69
    },
    {
      "midi": 67,
      "hit": false,
      "t": 183239.99999999974,
      "d": 846.666666666657,
      "v": 69
    },
    {
      "midi": 72,
      "hit": false,
      "t": 183259.99999999974,
      "d": 933.3333333333139,
      "v": 69
    },
    {
      "midi": 55,
      "hit": false,
      "t": 183606.6666666664,
      "d": 240,
      "v": 69
    },
    {
      "midi": 53,
      "hit": false,
      "t": 184013.33333333305,
      "d": 933.333333333343,
      "v": 69
    },
    {
      "midi": 60,
      "hit": false,
      "t": 184379.9999999997,
      "d": 553.333333333343,
      "v": 69
    },
    {
      "midi": 65,
      "hit": false,
      "t": 184819.9999999997,
      "d": 480,
      "v": 69
    },
    {
      "midi": 69,
      "hit": false,
      "t": 184819.9999999997,
      "d": 526.666666666657,
      "v": 69
    },
    {
      "midi": 72,
      "hit": false,
      "t": 185206.6666666664,
      "d": 1933.3333333333721,
      "v": 69
    },
    {
      "midi": 60,
      "hit": false,
      "t": 185213.33333333305,
      "d": 273.33333333331393,
      "v": 69
    },
    {
      "midi": 65,
      "hit": false,
      "t": 185393.33333333302,
      "d": 626.6666666666861,
      "v": 69
    },
    {
      "midi": 53,
      "hit": false,
      "t": 185599.9999999997,
      "d": 526.666666666657,
      "v": 69
    },
    {
      "midi": 60,
      "hit": false,
      "t": 185999.9999999997,
      "d": 320,
      "v": 69
    },
    {
      "midi": 52,
      "hit": false,
      "t": 186393.33333333305,
      "d": 466.6666666667152,
      "v": 69
    },
    {
      "midi": 69,
      "hit": false,
      "t": 186406.6666666664,
      "d": 406.66666666668607,
      "v": 69
    },
    {
      "midi": 65,
      "hit": false,
      "t": 186406.6666666664,
      "d": 420.0000000000291,
      "v": 69
    },
    {
      "midi": 77,
      "hit": false,
      "t": 186419.99999999974,
      "d": 420.0000000000291,
      "v": 69
    },
    {
      "midi": 59,
      "hit": false,
      "t": 186799.99999999974,
      "d": 353.33333333337214,
      "v": 69
    },
    {
      "midi": 65,
      "hit": false,
      "t": 187199.99999999977,
      "d": 640,
      "v": 69
    },
    {
      "midi": 69,
      "hit": false,
      "t": 187199.99999999977,
      "d": 706.666666666657,
      "v": 69
    },
    {
      "midi": 74,
      "hit": false,
      "t": 187199.99999999977,
      "d": 773.3333333333139,
      "v": 69
    },
    {
      "midi": 50,
      "hit": false,
      "t": 187219.99999999977,
      "d": 980,
      "v": 69
    },
    {
      "midi": 62,
      "hit": false,
      "t": 187593.3333333331,
      "d": 593.3333333333139,
      "v": 73
    },
    {
      "midi": 74,
      "hit": false,
      "t": 188026.66666666642,
      "d": 1233.3333333333721,
      "v": 72
    },
    {
      "midi": 69,
      "hit": false,
      "t": 188033.33333333308,
      "d": 1233.3333333333721,
      "v": 72
    },
    {
      "midi": 65,
      "hit": false,
      "t": 188033.33333333308,
      "d": 1246.6666666667152,
      "v": 72
    },
    {
      "midi": 57,
      "hit": false,
      "t": 188413.3333333331,
      "d": 266.66666666665697,
      "v": 72
    },
    {
      "midi": 50,
      "hit": false,
      "t": 188813.3333333331,
      "d": 1006.6666666666861,
      "v": 71
    },
    {
      "midi": 62,
      "hit": false,
      "t": 189226.66666666645,
      "d": 566.6666666666861,
      "v": 71
    },
    {
      "midi": 65,
      "hit": false,
      "t": 189619.9999999998,
      "d": 813.333333333343,
      "v": 70
    },
    {
      "midi": 69,
      "hit": false,
      "t": 189619.9999999998,
      "d": 820,
      "v": 70
    },
    {
      "midi": 74,
      "hit": false,
      "t": 189619.9999999998,
      "d": 1046.666666666686,
      "v": 70
    },
    {
      "midi": 77,
      "hit": false,
      "t": 189639.9999999998,
      "d": 893.333333333343,
      "v": 70
    },
    {
      "midi": 50,
      "hit": false,
      "t": 190013.33333333314,
      "d": 133.33333333334303,
      "v": 70
    },
    {
      "midi": 55,
      "hit": false,
      "t": 190413.33333333314,
      "d": 960,
      "v": 69
    },
    {
      "midi": 43,
      "hit": false,
      "t": 190419.9999999998,
      "d": 946.6666666666861,
      "v": 69
    },
    {
      "midi": 67,
      "hit": false,
      "t": 191239.99999999983,
      "d": 1213.333333333314,
      "v": 68
    },
    {
      "midi": 74,
      "hit": false,
      "t": 191239.99999999983,
      "d": 1226.6666666666279,
      "v": 68
    },
    {
      "midi": 71,
      "hit": false,
      "t": 191246.66666666648,
      "d": 1213.333333333314,
      "v": 68
    },
    {
      "midi": 50,
      "hit": false,
      "t": 191639.9999999998,
      "d": 200,
      "v": 67
    },
    {
      "midi": 43,
      "hit": false,
      "t": 192046.66666666645,
      "d": 1220.000000000029,
      "v": 67
    },
    {
      "midi": 55,
      "hit": false,
      "t": 192439.9999999998,
      "d": 513.333333333343,
      "v": 66
    },
    {
      "midi": 74,
      "hit": false,
      "t": 192839.9999999998,
      "d": 306.66666666668607,
      "v": 66
    },
    {
      "midi": 67,
      "hit": false,
      "t": 192839.9999999998,
      "d": 313.33333333334303,
      "v": 66
    },
    {
      "midi": 71,
      "hit": false,
      "t": 192839.9999999998,
      "d": 313.33333333334303,
      "v": 66
    },
    {
      "midi": 55,
      "hit": false,
      "t": 193226.66666666648,
      "d": 373.33333333334303,
      "v": 65
    },
    {
      "midi": 60,
      "hit": false,
      "t": 193613.33333333317,
      "d": 706.666666666657,
      "v": 73
    },
    {
      "midi": 64,
      "hit": false,
      "t": 193613.33333333317,
      "d": 733.3333333333139,
      "v": 73
    },
    {
      "midi": 67,
      "hit": false,
      "t": 193613.33333333317,
      "d": 746.666666666657,
      "v": 73
    },
    {
      "midi": 48,
      "hit": false,
      "t": 193639.99999999983,
      "d": 893.333333333343,
      "v": 73
    },
    {
      "midi": 60,
      "hit": false,
      "t": 194439.99999999983,
      "d": 1273.333333333343,
      "v": 73
    },
    {
      "midi": 64,
      "hit": false,
      "t": 194439.99999999983,
      "d": 1426.666666666686,
      "v": 73
    },
    {
      "midi": 67,
      "hit": false,
      "t": 194439.99999999983,
      "d": 1533.333333333343,
      "v": 73
    },
    {
      "midi": 55,
      "hit": false,
      "t": 194846.6666666665,
      "d": 260,
      "v": 72
    },
    {
      "midi": 48,
      "hit": false,
      "t": 195239.99999999985,
      "d": 1146.6666666666279,
      "v": 72
    },
    {
      "midi": 72,
      "hit": false,
      "t": 195273.3333333332,
      "d": 106.66666666665697,
      "v": 72
    },
    {
      "midi": 55,
      "hit": false,
      "t": 195646.6666666665,
      "d": 759.9999999999709,
      "v": 71
    },
    {
      "midi": 60,
      "hit": false,
      "t": 195999.99999999983,
      "d": 186.66666666665697,
      "v": 71
    },
    {
      "midi": 72,
      "hit": false,
      "t": 196033.33333333317,
      "d": 3840,
      "v": 71
    },
    {
      "midi": 64,
      "hit": false,
      "t": 196039.99999999983,
      "d": 213.33333333331393,
      "v": 71
    },
    {
      "midi": 67,
      "hit": false,
      "t": 196059.99999999983,
      "d": 253.33333333331393,
      "v": 71
    },
    {
      "midi": 60,
      "hit": false,
      "t": 196419.99999999983,
      "d": 393.33333333334303,
      "v": 71
    },
    {
      "midi": 65,
      "hit": false,
      "t": 196813.33333333317,
      "d": 626.666666666657,
      "v": 70
    },
    {
      "midi": 69,
      "hit": false,
      "t": 196813.33333333317,
      "d": 673.3333333333139,
      "v": 70
    },
    {
      "midi": 53,
      "hit": false,
      "t": 196813.33333333317,
      "d": 939.9999999999709,
      "v": 70
    },
    {
      "midi": 69,
      "hit": false,
      "t": 197673.33333333314,
      "d": 466.66666666668607,
      "v": 70
    },
    {
      "midi": 65,
      "hit": false,
      "t": 197673.33333333314,
      "d": 600.0000000000291,
      "v": 70
    },
    {
      "midi": 60,
      "hit": false,
      "t": 198046.66666666648,
      "d": 253.33333333334303,
      "v": 69
    },
    {
      "midi": 77,
      "hit": false,
      "t": 198059.99999999983,
      "d": 1366.666666666686,
      "v": 69
    },
    {
      "midi": 65,
      "hit": false,
      "t": 198453.33333333317,
      "d": 693.333333333343,
      "v": 69
    },
    {
      "midi": 69,
      "hit": false,
      "t": 198453.33333333317,
      "d": 1100,
      "v": 69
    },
    {
      "midi": 53,
      "hit": false,
      "t": 198466.6666666665,
      "d": 493.33333333334303,
      "v": 69
    },
    {
      "midi": 52,
      "hit": false,
      "t": 199213.33333333317,
      "d": 640,
      "v": 68
    },
    {
      "midi": 65,
      "hit": false,
      "t": 199239.99999999983,
      "d": 53.333333333343035,
      "v": 68
    },
    {
      "midi": 69,
      "hit": false,
      "t": 199999.99999999983,
      "d": 533.3333333332848,
      "v": 68
    },
    {
      "midi": 74,
      "hit": false,
      "t": 199999.99999999983,
      "d": 766.6666666666279,
      "v": 68
    },
    {
      "midi": 65,
      "hit": false,
      "t": 200006.66666666648,
      "d": 459.9999999999709,
      "v": 68
    },
    {
      "midi": 50,
      "hit": false,
      "t": 200013.33333333314,
      "d": 946.6666666666279,
      "v": 68
    },
    {
      "midi": 62,
      "hit": false,
      "t": 200379.9999999998,
      "d": 579.9999999999709,
      "v": 67
    },
    {
      "midi": 69,
      "hit": false,
      "t": 200793.3333333331,
      "d": 1220,
      "v": 67
    },
    {
      "midi": 74,
      "hit": false,
      "t": 200793.3333333331,
      "d": 1240,
      "v": 67
    },
    {
      "midi": 65,
      "hit": false,
      "t": 200799.99999999977,
      "d": 1200,
      "v": 67
    },
    {
      "midi": 57,
      "hit": false,
      "t": 201193.3333333331,
      "d": 226.66666666665697,
      "v": 67
    },
    {
      "midi": 50,
      "hit": false,
      "t": 201599.99999999977,
      "d": 1026.666666666686,
      "v": 66
    },
    {
      "midi": 62,
      "hit": false,
      "t": 202013.3333333331,
      "d": 613.333333333343,
      "v": 66
    },
    {
      "midi": 69,
      "hit": false,
      "t": 202426.66666666645,
      "d": 426.66666666665697,
      "v": 66
    },
    {
      "midi": 65,
      "hit": false,
      "t": 202426.66666666645,
      "d": 433.33333333331393,
      "v": 66
    },
    {
      "midi": 74,
      "hit": false,
      "t": 202426.66666666645,
      "d": 1553.333333333343,
      "v": 66
    },
    {
      "midi": 50,
      "hit": false,
      "t": 202826.66666666645,
      "d": 166.66666666665697,
      "v": 74
    },
    {
      "midi": 67,
      "hit": false,
      "t": 203213.3333333331,
      "d": 693.333333333343,
      "v": 74
    },
    {
      "midi": 71,
      "hit": false,
      "t": 203226.66666666645,
      "d": 713.333333333343,
      "v": 74
    },
    {
      "midi": 43,
      "hit": false,
      "t": 203239.9999999998,
      "d": 980,
      "v": 74
    },
    {
      "midi": 55,
      "hit": false,
      "t": 203619.9999999998,
      "d": 566.666666666657,
      "v": 73
    },
    {
      "midi": 67,
      "hit": false,
      "t": 204046.66666666645,
      "d": 1426.666666666686,
      "v": 73
    },
    {
      "midi": 71,
      "hit": false,
      "t": 204046.66666666645,
      "d": 1440.000000000029,
      "v": 73
    },
    {
      "midi": 74,
      "hit": false,
      "t": 204046.66666666645,
      "d": 1480.000000000029,
      "v": 73
    },
    {
      "midi": 50,
      "hit": false,
      "t": 204446.66666666645,
      "d": 213.33333333334303,
      "v": 72
    },
    {
      "midi": 43,
      "hit": false,
      "t": 204853.33333333314,
      "d": 986.6666666666861,
      "v": 72
    },
    {
      "midi": 55,
      "hit": false,
      "t": 205239.9999999998,
      "d": 600.0000000000291,
      "v": 71
    },
    {
      "midi": 67,
      "hit": false,
      "t": 205659.99999999983,
      "d": 813.3333333333139,
      "v": 70
    },
    {
      "midi": 74,
      "hit": false,
      "t": 205659.99999999983,
      "d": 846.6666666666279,
      "v": 70
    },
    {
      "midi": 71,
      "hit": false,
      "t": 205666.66666666648,
      "d": 813.3333333333139,
      "v": 70
    },
    {
      "midi": 55,
      "hit": false,
      "t": 206026.66666666648,
      "d": 386.66666666665697,
      "v": 70
    },
    {
      "midi": 48,
      "hit": false,
      "t": 206433.33333333314,
      "d": 900,
      "v": 69
    },
    {
      "midi": 60,
      "hit": false,
      "t": 206859.9999999998,
      "d": 1020,
      "v": 69
    },
    {
      "midi": 64,
      "hit": false,
      "t": 207239.9999999998,
      "d": 673.333333333343,
      "v": 68
    },
    {
      "midi": 67,
      "hit": false,
      "t": 207619.9999999998,
      "d": 320,
      "v": 68
    },
    {
      "midi": 55,
      "hit": false,
      "t": 207626.66666666645,
      "d": 346.66666666668607,
      "v": 68
    },
    {
      "midi": 60,
      "hit": false,
      "t": 207993.33333333314,
      "d": 566.6666666666861,
      "v": 67
    },
    {
      "midi": 48,
      "hit": false,
      "t": 208019.9999999998,
      "d": 1093.3333333334012,
      "v": 67
    },
    {
      "midi": 64,
      "hit": false,
      "t": 208033.33333333314,
      "d": 686.6666666666861,
      "v": 67
    },
    {
      "midi": 67,
      "hit": false,
      "t": 208046.66666666648,
      "d": 686.6666666666861,
      "v": 67
    },
    {
      "midi": 72,
      "hit": false,
      "t": 208073.33333333314,
      "d": 693.3333333333721,
      "v": 67
    },
    {
      "midi": 55,
      "hit": false,
      "t": 208406.66666666648,
      "d": 526.6666666667152,
      "v": 67
    },
    {
      "midi": 60,
      "hit": false,
      "t": 208819.99999999985,
      "d": 799.9999999999709,
      "v": 66
    },
    {
      "midi": 64,
      "hit": false,
      "t": 208839.99999999985,
      "d": 819.9999999999709,
      "v": 66
    },
    {
      "midi": 67,
      "hit": false,
      "t": 208853.3333333332,
      "d": 859.9999999999709,
      "v": 66
    },
    {
      "midi": 72,
      "hit": false,
      "t": 208879.99999999985,
      "d": 933.3333333333139,
      "v": 66
    },
    {
      "midi": 55,
      "hit": false,
      "t": 209199.99999999985,
      "d": 186.66666666665697,
      "v": 66
    },
    {
      "midi": 53,
      "hit": false,
      "t": 209613.33333333317,
      "d": 980,
      "v": 65
    },
    {
      "midi": 60,
      "hit": false,
      "t": 209999.99999999983,
      "d": 560,
      "v": 65
    },
    {
      "midi": 65,
      "hit": false,
      "t": 210439.99999999983,
      "d": 600.0000000000291,
      "v": 64
    },
    {
      "midi": 69,
      "hit": false,
      "t": 210439.99999999983,
      "d": 693.333333333343,
      "v": 64
    },
    {
      "midi": 72,
      "hit": false,
      "t": 210813.33333333317,
      "d": 326.66666666665697,
      "v": 64
    },
    {
      "midi": 60,
      "hit": false,
      "t": 210826.6666666665,
      "d": 300,
      "v": 64
    },
    {
      "midi": 65,
      "hit": false,
      "t": 211193.33333333317,
      "d": 1106.666666666686,
      "v": 63
    },
    {
      "midi": 69,
      "hit": false,
      "t": 211199.99999999983,
      "d": 1166.666666666686,
      "v": 63
    },
    {
      "midi": 72,
      "hit": false,
      "t": 211199.99999999983,
      "d": 1533.333333333314,
      "v": 63
    },
    {
      "midi": 53,
      "hit": false,
      "t": 211213.33333333317,
      "d": 566.6666666666861,
      "v": 63
    },
    {
      "midi": 77,
      "hit": false,
      "t": 211226.6666666665,
      "d": 1413.333333333314,
      "v": 63
    },
    {
      "midi": 52,
      "hit": false,
      "t": 212006.6666666665,
      "d": 566.666666666657,
      "v": 66
    },
    {
      "midi": 59,
      "hit": false,
      "t": 212546.6666666665,
      "d": 119.9999999999709,
      "v": 66
    },
    {
      "midi": 69,
      "hit": false,
      "t": 212833.33333333314,
      "d": 706.666666666657,
      "v": 66
    },
    {
      "midi": 50,
      "hit": false,
      "t": 212833.33333333314,
      "d": 1013.333333333343,
      "v": 66
    },
    {
      "midi": 65,
      "hit": false,
      "t": 212839.9999999998,
      "d": 686.666666666657,
      "v": 66
    },
    {
      "midi": 74,
      "hit": false,
      "t": 212846.66666666645,
      "d": 746.6666666666861,
      "v": 66
    },
    {
      "midi": 62,
      "hit": false,
      "t": 213159.9999999998,
      "d": 646.6666666666861,
      "v": 66
    },
    {
      "midi": 65,
      "hit": false,
      "t": 213613.33333333314,
      "d": 1380.000000000029,
      "v": 65
    },
    {
      "midi": 69,
      "hit": false,
      "t": 213613.33333333314,
      "d": 1466.666666666686,
      "v": 65
    },
    {
      "midi": 74,
      "hit": false,
      "t": 213613.33333333314,
      "d": 1493.333333333343,
      "v": 65
    },
    {
      "midi": 57,
      "hit": false,
      "t": 213999.99999999983,
      "d": 273.33333333334303,
      "v": 65
    },
    {
      "midi": 50,
      "hit": false,
      "t": 214426.6666666665,
      "d": 1073.3333333332848,
      "v": 65
    },
    {
      "midi": 62,
      "hit": false,
      "t": 214806.6666666665,
      "d": 719.9999999999418,
      "v": 64
    },
    {
      "midi": 65,
      "hit": false,
      "t": 215233.33333333314,
      "d": 786.666666666657,
      "v": 64
    },
    {
      "midi": 69,
      "hit": false,
      "t": 215233.33333333314,
      "d": 813.3333333333139,
      "v": 64
    },
    {
      "midi": 74,
      "hit": false,
      "t": 215233.33333333314,
      "d": 1099.999999999971,
      "v": 64
    },
    {
      "midi": 50,
      "hit": false,
      "t": 215639.9999999998,
      "d": 160,
      "v": 64
    },
    {
      "midi": 43,
      "hit": false,
      "t": 216046.66666666645,
      "d": 906.666666666657,
      "v": 64
    },
    {
      "midi": 55,
      "hit": false,
      "t": 216046.66666666645,
      "d": 906.666666666657,
      "v": 64
    },
    {
      "midi": 67,
      "hit": false,
      "t": 216833.3333333331,
      "d": 1193.333333333314,
      "v": 63
    },
    {
      "midi": 71,
      "hit": false,
      "t": 216846.66666666645,
      "d": 1206.6666666666279,
      "v": 63
    },
    {
      "midi": 74,
      "hit": false,
      "t": 216846.66666666645,
      "d": 1233.3333333332848,
      "v": 63
    },
    {
      "midi": 50,
      "hit": false,
      "t": 217213.3333333331,
      "d": 186.66666666665697,
      "v": 63
    },
    {
      "midi": 43,
      "hit": false,
      "t": 217639.99999999977,
      "d": 1019.9999999999709,
      "v": 63
    },
    {
      "midi": 55,
      "hit": false,
      "t": 218033.33333333308,
      "d": 553.3333333333139,
      "v": 62
    },
    {
      "midi": 74,
      "hit": false,
      "t": 218453.33333333308,
      "d": 260,
      "v": 62
    },
    {
      "midi": 79,
      "hit": false,
      "t": 218459.99999999974,
      "d": 220,
      "v": 62
    },
    {
      "midi": 71,
      "hit": false,
      "t": 218459.99999999974,
      "d": 260,
      "v": 62
    },
    {
      "midi": 67,
      "hit": false,
      "t": 218459.99999999974,
      "d": 280,
      "v": 62
    },
    {
      "midi": 55,
      "hit": false,
      "t": 218833.33333333308,
      "d": 286.66666666665697,
      "v": 62
    }
  ]
}