{
  "jsonPath": "Latin/Latin/Enrique Iglesias/not-in-love.json",
  "path": "Latin\\Latin\\Enrique Iglesias\\Not In Love.mid",
  "name": "Not In Love",
  "difficulty": "Advanced",
  "bpm": 122.0000691333725,
  "notes": [
    {
      "midi": 65,
      "hit": false,
      "t": 8893.437583333332,
      "d": 978.483052083333,
      "v": 1
    },
    {
      "midi": 67,
      "hit": false,
      "t": 9877.043583333332,
      "d": 978.483052083333,
      "v": 1
    },
    {
      "midi": 65,
      "hit": false,
      "t": 10860.649583333332,
      "d": 978.483052083333,
      "v": 1
    },
    {
      "midi": 70,
      "hit": false,
      "t": 11844.255583333332,
      "d": 240.77855208333312,
      "v": 1
    },
    {
      "midi": 65,
      "hit": false,
      "t": 12090.157083333332,
      "d": 240.77855208333312,
      "v": 1
    },
    {
      "midi": 67,
      "hit": false,
      "t": 12336.058583333332,
      "d": 240.77855208333312,
      "v": 1
    },
    {
      "midi": 65,
      "hit": false,
      "t": 12581.960083333332,
      "d": 240.77855208333312,
      "v": 1
    },
    {
      "midi": 70,
      "hit": false,
      "t": 12827.861583333332,
      "d": 240.77855208333312,
      "v": 1
    },
    {
      "midi": 65,
      "hit": false,
      "t": 13073.763083333331,
      "d": 251.02444791666676,
      "v": 1
    },
    {
      "midi": 67,
      "hit": false,
      "t": 13319.664583333331,
      "d": 240.77855208333312,
      "v": 1
    },
    {
      "midi": 65,
      "hit": false,
      "t": 13565.566083333331,
      "d": 240.77855208333312,
      "v": 1
    },
    {
      "midi": 69,
      "hit": false,
      "t": 13811.467583333331,
      "d": 486.68005208333307,
      "v": 1
    },
    {
      "midi": 65,
      "hit": false,
      "t": 14303.270583333331,
      "d": 363.7293020833331,
      "v": 1
    },
    {
      "midi": 63,
      "hit": false,
      "t": 14672.122833333331,
      "d": 1101.433802083333,
      "v": 1
    },
    {
      "midi": 69,
      "hit": false,
      "t": 15778.67958333333,
      "d": 486.68005208333307,
      "v": 1
    },
    {
      "midi": 65,
      "hit": false,
      "t": 16270.48258333333,
      "d": 363.7293020833349,
      "v": 1
    },
    {
      "midi": 63,
      "hit": false,
      "t": 16639.33483333333,
      "d": 1101.4338020833347,
      "v": 1
    },
    {
      "midi": 70,
      "hit": false,
      "t": 17745.89158333333,
      "d": 486.6800520833349,
      "v": 1
    },
    {
      "midi": 65,
      "hit": false,
      "t": 18237.69458333333,
      "d": 363.7293020833349,
      "v": 1
    },
    {
      "midi": 62,
      "hit": false,
      "t": 18606.54683333333,
      "d": 363.7293020833349,
      "v": 1
    },
    {
      "midi": 65,
      "hit": false,
      "t": 18975.39908333333,
      "d": 240.77855208333494,
      "v": 1
    },
    {
      "midi": 67,
      "hit": false,
      "t": 19221.30058333333,
      "d": 240.77855208333494,
      "v": 1
    },
    {
      "midi": 65,
      "hit": false,
      "t": 19467.20208333333,
      "d": 240.77855208333494,
      "v": 1
    },
    {
      "midi": 70,
      "hit": false,
      "t": 19713.10358333333,
      "d": 240.77855208333494,
      "v": 1
    },
    {
      "midi": 65,
      "hit": false,
      "t": 19959.00508333333,
      "d": 240.77855208333494,
      "v": 1
    },
    {
      "midi": 67,
      "hit": false,
      "t": 20204.90658333333,
      "d": 240.77855208333494,
      "v": 1
    },
    {
      "midi": 65,
      "hit": false,
      "t": 20450.80808333333,
      "d": 240.77855208333494,
      "v": 1
    },
    {
      "midi": 70,
      "hit": false,
      "t": 20696.70958333333,
      "d": 240.77855208333494,
      "v": 1
    },
    {
      "midi": 65,
      "hit": false,
      "t": 20942.61108333333,
      "d": 240.77855208333494,
      "v": 1
    },
    {
      "midi": 67,
      "hit": false,
      "t": 21188.51258333333,
      "d": 240.77855208333494,
      "v": 1
    },
    {
      "midi": 65,
      "hit": false,
      "t": 21434.41408333333,
      "d": 240.77855208333494,
      "v": 1
    },
    {
      "midi": 69,
      "hit": false,
      "t": 21680.31558333333,
      "d": 486.6800520833349,
      "v": 1
    },
    {
      "midi": 65,
      "hit": false,
      "t": 22172.11858333333,
      "d": 363.7293020833349,
      "v": 1
    },
    {
      "midi": 63,
      "hit": false,
      "t": 22540.97083333333,
      "d": 1101.4338020833347,
      "v": 1
    },
    {
      "midi": 69,
      "hit": false,
      "t": 23647.52758333333,
      "d": 486.6800520833349,
      "v": 1
    },
    {
      "midi": 65,
      "hit": false,
      "t": 24139.33058333333,
      "d": 363.7293020833349,
      "v": 1
    },
    {
      "midi": 63,
      "hit": false,
      "t": 24508.18283333333,
      "d": 363.7293020833349,
      "v": 1
    },
    {
      "midi": 65,
      "hit": false,
      "t": 24877.03508333333,
      "d": 240.77855208333494,
      "v": 1
    },
    {
      "midi": 74,
      "hit": false,
      "t": 25122.93658333333,
      "d": 240.77855208333494,
      "v": 1
    },
    {
      "midi": 72,
      "hit": false,
      "t": 25368.83808333333,
      "d": 240.77855208333494,
      "v": 1
    },
    {
      "midi": 70,
      "hit": false,
      "t": 25614.73958333333,
      "d": 1224.3845520833347,
      "v": 1
    },
    {
      "midi": 70,
      "hit": false,
      "t": 26844.24708333333,
      "d": 240.77855208333494,
      "v": 1
    },
    {
      "midi": 72,
      "hit": false,
      "t": 27090.148583333328,
      "d": 240.77855208333494,
      "v": 1
    },
    {
      "midi": 70,
      "hit": false,
      "t": 27336.050083333328,
      "d": 240.77855208333494,
      "v": 1
    },
    {
      "midi": 67,
      "hit": false,
      "t": 27581.951583333328,
      "d": 1224.3845520833347,
      "v": 1
    },
    {
      "midi": 75,
      "hit": false,
      "t": 27581.951583333328,
      "d": 1224.3845520833347,
      "v": 1
    },
    {
      "midi": 39,
      "hit": false,
      "t": 27581.951583333335,
      "d": 225.40970833333267,
      "v": 81
    },
    {
      "midi": 63,
      "hit": false,
      "t": 27827.853083333335,
      "d": 179.30317708333314,
      "v": 81
    },
    {
      "midi": 67,
      "hit": false,
      "t": 27827.853083333335,
      "d": 179.30317708333314,
      "v": 80
    },
    {
      "midi": 34,
      "hit": false,
      "t": 28073.754583333335,
      "d": 253.58592187500108,
      "v": 83
    },
    {
      "midi": 63,
      "hit": false,
      "t": 28319.656083333335,
      "d": 176.74170312500064,
      "v": 80
    },
    {
      "midi": 67,
      "hit": false,
      "t": 28319.656083333335,
      "d": 179.30317708333314,
      "v": 87
    },
    {
      "midi": 39,
      "hit": false,
      "t": 28565.557583333335,
      "d": 184.42612500000178,
      "v": 80
    },
    {
      "midi": 70,
      "hit": false,
      "t": 28811.459083333328,
      "d": 240.77855208333494,
      "v": 1
    },
    {
      "midi": 63,
      "hit": false,
      "t": 28811.45908333334,
      "d": 151.12696354166837,
      "v": 81
    },
    {
      "midi": 67,
      "hit": false,
      "t": 28811.45908333334,
      "d": 151.12696354166837,
      "v": 81
    },
    {
      "midi": 72,
      "hit": false,
      "t": 29057.360583333328,
      "d": 240.77855208333494,
      "v": 1
    },
    {
      "midi": 39,
      "hit": false,
      "t": 29057.36058333334,
      "d": 199.7949687500004,
      "v": 86
    },
    {
      "midi": 70,
      "hit": false,
      "t": 29303.262083333328,
      "d": 240.77855208333494,
      "v": 1
    },
    {
      "midi": 63,
      "hit": false,
      "t": 29303.26208333334,
      "d": 148.56548958333224,
      "v": 88
    },
    {
      "midi": 67,
      "hit": false,
      "t": 29303.26208333334,
      "d": 153.68843749999724,
      "v": 80
    },
    {
      "midi": 65,
      "hit": false,
      "t": 29549.163583333328,
      "d": 1224.3845520833347,
      "v": 1
    },
    {
      "midi": 74,
      "hit": false,
      "t": 29549.163583333328,
      "d": 1224.3845520833347,
      "v": 1
    },
    {
      "midi": 46,
      "hit": false,
      "t": 29549.163583333335,
      "d": 263.8318177083347,
      "v": 84
    },
    {
      "midi": 62,
      "hit": false,
      "t": 29795.065083333335,
      "d": 133.1966458333336,
      "v": 85
    },
    {
      "midi": 65,
      "hit": false,
      "t": 29795.065083333335,
      "d": 143.44254166666724,
      "v": 80
    },
    {
      "midi": 41,
      "hit": false,
      "t": 30040.966583333335,
      "d": 253.58592187500108,
      "v": 81
    },
    {
      "midi": 62,
      "hit": false,
      "t": 30286.868083333335,
      "d": 105.02043229166884,
      "v": 82
    },
    {
      "midi": 65,
      "hit": false,
      "t": 30286.868083333335,
      "d": 115.26632812500247,
      "v": 84
    },
    {
      "midi": 38,
      "hit": false,
      "t": 30532.76958333334,
      "d": 263.8318177083347,
      "v": 79
    },
    {
      "midi": 70,
      "hit": false,
      "t": 30778.671083333327,
      "d": 240.77855208333494,
      "v": 1
    },
    {
      "midi": 62,
      "hit": false,
      "t": 30778.671083333338,
      "d": 158.8113854166695,
      "v": 83
    },
    {
      "midi": 65,
      "hit": false,
      "t": 30778.671083333338,
      "d": 166.49580729167064,
      "v": 87
    },
    {
      "midi": 72,
      "hit": false,
      "t": 31024.572583333327,
      "d": 240.77855208333494,
      "v": 1
    },
    {
      "midi": 34,
      "hit": false,
      "t": 31024.57258333334,
      "d": 256.1473958333336,
      "v": 80
    },
    {
      "midi": 70,
      "hit": false,
      "t": 31270.474083333327,
      "d": 240.77855208333494,
      "v": 1
    },
    {
      "midi": 62,
      "hit": false,
      "t": 31270.47408333334,
      "d": 130.6351718750011,
      "v": 81
    },
    {
      "midi": 65,
      "hit": false,
      "t": 31270.47408333334,
      "d": 146.00401562499974,
      "v": 81
    },
    {
      "midi": 64,
      "hit": false,
      "t": 31516.375583333327,
      "d": 1224.3845520833347,
      "v": 1
    },
    {
      "midi": 74,
      "hit": false,
      "t": 31516.375583333327,
      "d": 1224.3845520833347,
      "v": 1
    },
    {
      "midi": 36,
      "hit": false,
      "t": 31516.37558333334,
      "d": 248.46297395833244,
      "v": 82
    },
    {
      "midi": 60,
      "hit": false,
      "t": 31762.27708333334,
      "d": 169.0572812499995,
      "v": 83
    },
    {
      "midi": 64,
      "hit": false,
      "t": 31762.27708333334,
      "d": 184.42612499999814,
      "v": 80
    },
    {
      "midi": 38,
      "hit": false,
      "t": 32008.17858333334,
      "d": 253.58592187500108,
      "v": 81
    },
    {
      "midi": 60,
      "hit": false,
      "t": 32254.08008333334,
      "d": 143.44254166666724,
      "v": 88
    },
    {
      "midi": 64,
      "hit": false,
      "t": 32254.08008333334,
      "d": 156.24991145833337,
      "v": 79
    },
    {
      "midi": 40,
      "hit": false,
      "t": 32499.98158333334,
      "d": 199.7949687500004,
      "v": 82
    },
    {
      "midi": 74,
      "hit": false,
      "t": 32745.883083333327,
      "d": 240.77855208333494,
      "v": 1
    },
    {
      "midi": 60,
      "hit": false,
      "t": 32745.88308333334,
      "d": 115.26632812499884,
      "v": 79
    },
    {
      "midi": 64,
      "hit": false,
      "t": 32745.88308333334,
      "d": 120.38927604166383,
      "v": 88
    },
    {
      "midi": 72,
      "hit": false,
      "t": 32991.78458333333,
      "d": 240.77855208333494,
      "v": 1
    },
    {
      "midi": 36,
      "hit": false,
      "t": 32991.78458333334,
      "d": 233.09413020833017,
      "v": 79
    },
    {
      "midi": 70,
      "hit": false,
      "t": 33237.68608333333,
      "d": 240.77855208333494,
      "v": 1
    },
    {
      "midi": 60,
      "hit": false,
      "t": 33237.68608333334,
      "d": 110.14338020833384,
      "v": 80
    },
    {
      "midi": 64,
      "hit": false,
      "t": 33237.68608333334,
      "d": 128.0736979166686,
      "v": 82
    },
    {
      "midi": 63,
      "hit": false,
      "t": 33483.58758333333,
      "d": 1224.3845520833347,
      "v": 1
    },
    {
      "midi": 69,
      "hit": false,
      "t": 33483.58758333333,
      "d": 1224.3845520833347,
      "v": 1
    },
    {
      "midi": 72,
      "hit": false,
      "t": 33483.58758333333,
      "d": 1224.3845520833347,
      "v": 1
    },
    {
      "midi": 41,
      "hit": false,
      "t": 33483.58758333334,
      "d": 79.40569270833657,
      "v": 83
    },
    {
      "midi": 29,
      "hit": false,
      "t": 33729.48908333334,
      "d": 135.7581197916661,
      "v": 79
    },
    {
      "midi": 60,
      "hit": false,
      "t": 33729.48908333334,
      "d": 179.30317708333314,
      "v": 80
    },
    {
      "midi": 65,
      "hit": false,
      "t": 33729.48908333334,
      "d": 184.42612499999814,
      "v": 83
    },
    {
      "midi": 31,
      "hit": false,
      "t": 33975.39058333334,
      "d": 107.58190625000134,
      "v": 88
    },
    {
      "midi": 60,
      "hit": false,
      "t": 34221.29208333334,
      "d": 97.33601041666407,
      "v": 85
    },
    {
      "midi": 65,
      "hit": false,
      "t": 34221.29208333334,
      "d": 99.89748437499657,
      "v": 82
    },
    {
      "midi": 32,
      "hit": false,
      "t": 34221.29208333334,
      "d": 143.4425416666636,
      "v": 80
    },
    {
      "midi": 60,
      "hit": false,
      "t": 34467.19358333334,
      "d": 79.40569270833657,
      "v": 88
    },
    {
      "midi": 65,
      "hit": false,
      "t": 34467.19358333334,
      "d": 94.77453645833884,
      "v": 82
    },
    {
      "midi": 33,
      "hit": false,
      "t": 34467.19358333334,
      "d": 135.75811979167338,
      "v": 81
    },
    {
      "midi": 65,
      "hit": false,
      "t": 34713.095083333326,
      "d": 240.77855208333494,
      "v": 1
    },
    {
      "midi": 67,
      "hit": false,
      "t": 34958.996583333326,
      "d": 240.77855208333494,
      "v": 1
    },
    {
      "midi": 41,
      "hit": false,
      "t": 34958.99658333335,
      "d": 266.3932916666672,
      "v": 81
    },
    {
      "midi": 65,
      "hit": false,
      "t": 35204.898083333326,
      "d": 240.77855208333494,
      "v": 1
    },
    {
      "midi": 70,
      "hit": false,
      "t": 35450.799583333326,
      "d": 240.77855208333494,
      "v": 1
    },
    {
      "midi": 65,
      "hit": false,
      "t": 35696.701083333326,
      "d": 240.77855208333494,
      "v": 1
    },
    {
      "midi": 67,
      "hit": false,
      "t": 35942.602583333326,
      "d": 240.77855208333494,
      "v": 1
    },
    {
      "midi": 65,
      "hit": false,
      "t": 36188.504083333326,
      "d": 240.77855208333494,
      "v": 1
    },
    {
      "midi": 70,
      "hit": false,
      "t": 36434.405583333326,
      "d": 240.77855208333494,
      "v": 1
    },
    {
      "midi": 65,
      "hit": false,
      "t": 36680.307083333326,
      "d": 240.77855208333494,
      "v": 1
    },
    {
      "midi": 67,
      "hit": false,
      "t": 36926.208583333326,
      "d": 240.77855208333494,
      "v": 1
    },
    {
      "midi": 65,
      "hit": false,
      "t": 37172.110083333326,
      "d": 251.02444791666494,
      "v": 1
    },
    {
      "midi": 69,
      "hit": false,
      "t": 37418.011583333326,
      "d": 486.6800520833349,
      "v": 1
    },
    {
      "midi": 65,
      "hit": false,
      "t": 37909.814583333326,
      "d": 363.7293020833313,
      "v": 1
    },
    {
      "midi": 63,
      "hit": false,
      "t": 38278.66683333332,
      "d": 1101.433802083331,
      "v": 1
    },
    {
      "midi": 69,
      "hit": false,
      "t": 39385.22358333332,
      "d": 486.6800520833349,
      "v": 1
    },
    {
      "midi": 65,
      "hit": false,
      "t": 39877.02658333332,
      "d": 363.7293020833313,
      "v": 1
    },
    {
      "midi": 63,
      "hit": false,
      "t": 40245.878833333314,
      "d": 1101.433802083331,
      "v": 1
    },
    {
      "midi": 70,
      "hit": false,
      "t": 41352.43558333331,
      "d": 486.6800520833349,
      "v": 1
    },
    {
      "midi": 65,
      "hit": false,
      "t": 41844.23858333331,
      "d": 363.7293020833313,
      "v": 1
    },
    {
      "midi": 62,
      "hit": false,
      "t": 42213.09083333331,
      "d": 363.7293020833313,
      "v": 1
    },
    {
      "midi": 65,
      "hit": false,
      "t": 42581.9430833333,
      "d": 240.77855208333494,
      "v": 1
    },
    {
      "midi": 67,
      "hit": false,
      "t": 42827.8445833333,
      "d": 240.77855208333494,
      "v": 1
    },
    {
      "midi": 65,
      "hit": false,
      "t": 43073.7460833333,
      "d": 245.90149999999994,
      "v": 1
    },
    {
      "midi": 70,
      "hit": false,
      "t": 43319.6475833333,
      "d": 240.77855208333494,
      "v": 1
    },
    {
      "midi": 65,
      "hit": false,
      "t": 43565.5490833333,
      "d": 240.77855208333494,
      "v": 1
    },
    {
      "midi": 67,
      "hit": false,
      "t": 43811.4505833333,
      "d": 240.77855208333494,
      "v": 1
    },
    {
      "midi": 65,
      "hit": false,
      "t": 44057.3520833333,
      "d": 245.90149999999994,
      "v": 1
    },
    {
      "midi": 70,
      "hit": false,
      "t": 44303.2535833333,
      "d": 240.77855208333494,
      "v": 1
    },
    {
      "midi": 65,
      "hit": false,
      "t": 44549.1550833333,
      "d": 266.3932916666672,
      "v": 1
    },
    {
      "midi": 67,
      "hit": false,
      "t": 44795.0565833333,
      "d": 253.58592187499744,
      "v": 1
    },
    {
      "midi": 65,
      "hit": false,
      "t": 45040.9580833333,
      "d": 253.58592187499744,
      "v": 1
    },
    {
      "midi": 69,
      "hit": false,
      "t": 45286.8595833333,
      "d": 486.6800520833276,
      "v": 1
    },
    {
      "midi": 65,
      "hit": false,
      "t": 45778.662583333295,
      "d": 363.7293020833313,
      "v": 1
    },
    {
      "midi": 63,
      "hit": false,
      "t": 46147.51483333329,
      "d": 1101.433802083331,
      "v": 1
    },
    {
      "midi": 69,
      "hit": false,
      "t": 47254.07158333329,
      "d": 486.6800520833349,
      "v": 1
    },
    {
      "midi": 65,
      "hit": false,
      "t": 47745.87458333329,
      "d": 363.7293020833313,
      "v": 1
    },
    {
      "midi": 63,
      "hit": false,
      "t": 48114.72683333328,
      "d": 363.7293020833313,
      "v": 1
    },
    {
      "midi": 65,
      "hit": false,
      "t": 48483.57908333328,
      "d": 240.77855208333494,
      "v": 1
    },
    {
      "midi": 74,
      "hit": false,
      "t": 48729.48058333328,
      "d": 240.77855208333494,
      "v": 1
    },
    {
      "midi": 72,
      "hit": false,
      "t": 48975.38208333328,
      "d": 240.77855208333494,
      "v": 1
    },
    {
      "midi": 70,
      "hit": false,
      "t": 49221.28358333328,
      "d": 1470.2860520833347,
      "v": 1
    },
    {
      "midi": 70,
      "hit": false,
      "t": 50696.69258333328,
      "d": 486.6800520833349,
      "v": 1
    },
    {
      "midi": 68,
      "hit": false,
      "t": 51188.49558333328,
      "d": 486.6800520833349,
      "v": 1
    },
    {
      "midi": 72,
      "hit": false,
      "t": 51188.49558333328,
      "d": 486.6800520833349,
      "v": 1
    },
    {
      "midi": 70,
      "hit": false,
      "t": 51680.29858333328,
      "d": 486.6800520833349,
      "v": 1
    },
    {
      "midi": 74,
      "hit": false,
      "t": 51680.29858333328,
      "d": 486.6800520833349,
      "v": 1
    },
    {
      "midi": 67,
      "hit": false,
      "t": 52172.10158333328,
      "d": 1470.2860520833347,
      "v": 1
    },
    {
      "midi": 75,
      "hit": false,
      "t": 52172.10158333328,
      "d": 1470.2860520833347,
      "v": 1
    },
    {
      "midi": 39,
      "hit": false,
      "t": 52172.10158333335,
      "d": 427.7661510416656,
      "v": 69
    },
    {
      "midi": 63,
      "hit": false,
      "t": 52418.00308333335,
      "d": 87.09011458333407,
      "v": 74
    },
    {
      "midi": 67,
      "hit": false,
      "t": 52418.00308333335,
      "d": 115.26632812499884,
      "v": 73
    },
    {
      "midi": 34,
      "hit": false,
      "t": 52663.90458333335,
      "d": 473.8726822916651,
      "v": 69
    },
    {
      "midi": 63,
      "hit": false,
      "t": 52909.80608333335,
      "d": 69.1597968749993,
      "v": 69
    },
    {
      "midi": 67,
      "hit": false,
      "t": 52909.80608333335,
      "d": 74.2827447916643,
      "v": 73
    },
    {
      "midi": 39,
      "hit": false,
      "t": 53155.70758333335,
      "d": 412.3973072916633,
      "v": 76
    },
    {
      "midi": 63,
      "hit": false,
      "t": 53401.60908333335,
      "d": 74.2827447916643,
      "v": 69
    },
    {
      "midi": 67,
      "hit": false,
      "t": 53401.60908333335,
      "d": 76.8442187499968,
      "v": 78
    },
    {
      "midi": 67,
      "hit": false,
      "t": 53647.51058333328,
      "d": 486.6800520833349,
      "v": 1
    },
    {
      "midi": 74,
      "hit": false,
      "t": 53647.51058333328,
      "d": 486.6800520833349,
      "v": 1
    },
    {
      "midi": 43,
      "hit": false,
      "t": 53647.51058333335,
      "d": 366.2907760416638,
      "v": 78
    },
    {
      "midi": 63,
      "hit": false,
      "t": 53893.41208333335,
      "d": 71.7212708333318,
      "v": 72
    },
    {
      "midi": 67,
      "hit": false,
      "t": 53893.41208333335,
      "d": 79.4056927083293,
      "v": 70
    },
    {
      "midi": 68,
      "hit": false,
      "t": 54139.31358333328,
      "d": 1962.0890520833345,
      "v": 1
    },
    {
      "midi": 72,
      "hit": false,
      "t": 54139.31358333328,
      "d": 1962.0890520833345,
      "v": 1
    },
    {
      "midi": 44,
      "hit": false,
      "t": 54139.31358333335,
      "d": 394.46698958332854,
      "v": 75
    },
    {
      "midi": 68,
      "hit": false,
      "t": 54385.21508333335,
      "d": 71.7212708333318,
      "v": 69
    },
    {
      "midi": 63,
      "hit": false,
      "t": 54385.21508333335,
      "d": 76.8442187499968,
      "v": 73
    },
    {
      "midi": 43,
      "hit": false,
      "t": 54631.11658333334,
      "d": 407.2743593749983,
      "v": 76
    },
    {
      "midi": 63,
      "hit": false,
      "t": 54877.01808333334,
      "d": 69.1597968749993,
      "v": 74
    },
    {
      "midi": 68,
      "hit": false,
      "t": 54877.01808333334,
      "d": 76.8442187499968,
      "v": 70
    },
    {
      "midi": 41,
      "hit": false,
      "t": 55122.91958333334,
      "d": 440.57352083333535,
      "v": 69
    },
    {
      "midi": 63,
      "hit": false,
      "t": 55368.82108333334,
      "d": 69.1597968749993,
      "v": 74
    },
    {
      "midi": 68,
      "hit": false,
      "t": 55368.82108333334,
      "d": 71.7212708333318,
      "v": 75
    },
    {
      "midi": 39,
      "hit": false,
      "t": 55614.72258333334,
      "d": 376.5366718749938,
      "v": 74
    },
    {
      "midi": 63,
      "hit": false,
      "t": 55860.62408333334,
      "d": 71.7212708333318,
      "v": 69
    },
    {
      "midi": 68,
      "hit": false,
      "t": 55860.62408333334,
      "d": 79.4056927083293,
      "v": 79
    },
    {
      "midi": 70,
      "hit": false,
      "t": 56106.52558333328,
      "d": 1470.2860520833347,
      "v": 1
    },
    {
      "midi": 74,
      "hit": false,
      "t": 56106.52558333328,
      "d": 1470.2860520833347,
      "v": 1
    },
    {
      "midi": 41,
      "hit": false,
      "t": 56106.525583333336,
      "d": 350.9219322916688,
      "v": 73
    },
    {
      "midi": 65,
      "hit": false,
      "t": 56352.427083333336,
      "d": 163.93433333333815,
      "v": 77
    },
    {
      "midi": 70,
      "hit": false,
      "t": 56352.427083333336,
      "d": 166.49580729167064,
      "v": 71
    },
    {
      "midi": 34,
      "hit": false,
      "t": 56598.32858333334,
      "d": 438.01204687500285,
      "v": 77
    },
    {
      "midi": 70,
      "hit": false,
      "t": 56844.23008333334,
      "d": 153.68843750000087,
      "v": 74
    },
    {
      "midi": 65,
      "hit": false,
      "t": 56844.23008333334,
      "d": 169.05728125000314,
      "v": 78
    },
    {
      "midi": 36,
      "hit": false,
      "t": 57090.13158333334,
      "d": 412.3973072916633,
      "v": 73
    },
    {
      "midi": 70,
      "hit": false,
      "t": 57336.03308333334,
      "d": 135.7581197916661,
      "v": 74
    },
    {
      "midi": 65,
      "hit": false,
      "t": 57336.03308333334,
      "d": 138.3195937499986,
      "v": 74
    },
    {
      "midi": 68,
      "hit": false,
      "t": 57581.93458333328,
      "d": 486.6800520833349,
      "v": 1
    },
    {
      "midi": 72,
      "hit": false,
      "t": 57581.93458333328,
      "d": 486.6800520833349,
      "v": 1
    },
    {
      "midi": 38,
      "hit": false,
      "t": 57581.93458333334,
      "d": 386.78256770833104,
      "v": 77
    },
    {
      "midi": 65,
      "hit": false,
      "t": 57827.83608333334,
      "d": 138.3195937499986,
      "v": 77
    },
    {
      "midi": 70,
      "hit": false,
      "t": 57827.83608333334,
      "d": 153.68843750000087,
      "v": 78
    },
    {
      "midi": 67,
      "hit": false,
      "t": 58073.73758333328,
      "d": 1962.0890520833345,
      "v": 1
    },
    {
      "midi": 70,
      "hit": false,
      "t": 58073.73758333328,
      "d": 1962.0890520833345,
      "v": 1
    },
    {
      "midi": 39,
      "hit": false,
      "t": 58073.73758333334,
      "d": 274.0777135416647,
      "v": 70
    },
    {
      "midi": 67,
      "hit": false,
      "t": 58319.63908333334,
      "d": 148.5654895833286,
      "v": 71
    },
    {
      "midi": 70,
      "hit": false,
      "t": 58319.63908333334,
      "d": 156.2499114583261,
      "v": 69
    },
    {
      "midi": 39,
      "hit": false,
      "t": 58565.540583333335,
      "d": 455.94236458333035,
      "v": 71
    },
    {
      "midi": 67,
      "hit": false,
      "t": 58811.442083333335,
      "d": 166.49580729166337,
      "v": 73
    },
    {
      "midi": 70,
      "hit": false,
      "t": 58811.442083333335,
      "d": 186.98759895833064,
      "v": 77
    },
    {
      "midi": 38,
      "hit": false,
      "t": 59057.343583333335,
      "d": 391.90551562499604,
      "v": 73
    },
    {
      "midi": 67,
      "hit": false,
      "t": 59303.245083333335,
      "d": 120.38927604166383,
      "v": 73
    },
    {
      "midi": 70,
      "hit": false,
      "t": 59303.245083333335,
      "d": 143.4425416666636,
      "v": 70
    },
    {
      "midi": 37,
      "hit": false,
      "t": 59549.14658333333,
      "d": 340.6760364583315,
      "v": 71
    },
    {
      "midi": 67,
      "hit": false,
      "t": 60040.94958333328,
      "d": 1470.2860520833347,
      "v": 1
    },
    {
      "midi": 72,
      "hit": false,
      "t": 60040.94958333328,
      "d": 1470.2860520833347,
      "v": 1
    },
    {
      "midi": 36,
      "hit": false,
      "t": 60040.94958333333,
      "d": 399.5899375000008,
      "v": 75
    },
    {
      "midi": 38,
      "hit": false,
      "t": 60532.75258333333,
      "d": 409.8358333333308,
      "v": 77
    },
    {
      "midi": 40,
      "hit": false,
      "t": 61024.55558333333,
      "d": 399.5899375000008,
      "v": 78
    },
    {
      "midi": 67,
      "hit": false,
      "t": 61516.358583333276,
      "d": 855.5323020833312,
      "v": 1
    },
    {
      "midi": 70,
      "hit": false,
      "t": 61516.358583333276,
      "d": 855.5323020833312,
      "v": 1
    },
    {
      "midi": 36,
      "hit": false,
      "t": 61516.35858333333,
      "d": 368.85225000000355,
      "v": 75
    },
    {
      "midi": 41,
      "hit": false,
      "t": 62008.161583333334,
      "d": 353.4834062500013,
      "v": 77
    },
    {
      "midi": 65,
      "hit": false,
      "t": 62377.01383333327,
      "d": 1101.433802083331,
      "v": 1
    },
    {
      "midi": 68,
      "hit": false,
      "t": 62377.01383333327,
      "d": 1101.433802083331,
      "v": 1
    },
    {
      "midi": 39,
      "hit": false,
      "t": 62499.964583333334,
      "d": 386.78256770833104,
      "v": 70
    },
    {
      "midi": 38,
      "hit": false,
      "t": 62991.767583333334,
      "d": 373.97519791666855,
      "v": 76
    },
    {
      "midi": 63,
      "hit": false,
      "t": 63483.57058333327,
      "d": 486.6800520833349,
      "v": 1
    },
    {
      "midi": 72,
      "hit": false,
      "t": 63483.57058333327,
      "d": 486.6800520833349,
      "v": 1
    },
    {
      "midi": 32,
      "hit": false,
      "t": 63483.570583333334,
      "d": 399.5899375000008,
      "v": 73
    },
    {
      "midi": 62,
      "hit": false,
      "t": 63975.37358333327,
      "d": 1470.2860520833347,
      "v": 1
    },
    {
      "midi": 70,
      "hit": false,
      "t": 63975.37358333327,
      "d": 1470.2860520833347,
      "v": 1
    },
    {
      "midi": 34,
      "hit": false,
      "t": 63975.373583333334,
      "d": 391.90551562499604,
      "v": 77
    },
    {
      "midi": 65,
      "hit": false,
      "t": 64221.275083333334,
      "d": 97.33601041666407,
      "v": 78
    },
    {
      "midi": 70,
      "hit": false,
      "t": 64221.275083333334,
      "d": 112.70485416666634,
      "v": 77
    },
    {
      "midi": 36,
      "hit": false,
      "t": 64467.17658333333,
      "d": 404.7128854166658,
      "v": 78
    },
    {
      "midi": 70,
      "hit": false,
      "t": 64713.07808333333,
      "d": 97.33601041666407,
      "v": 77
    },
    {
      "midi": 65,
      "hit": false,
      "t": 64713.07808333333,
      "d": 110.14338020833384,
      "v": 76
    },
    {
      "midi": 38,
      "hit": false,
      "t": 64958.97958333333,
      "d": 361.1678281249915,
      "v": 73
    },
    {
      "midi": 70,
      "hit": false,
      "t": 65204.88108333333,
      "d": 76.8442187499968,
      "v": 73
    },
    {
      "midi": 65,
      "hit": false,
      "t": 65204.88108333333,
      "d": 84.5286406249943,
      "v": 74
    },
    {
      "midi": 62,
      "hit": false,
      "t": 65450.78258333327,
      "d": 486.6800520833276,
      "v": 1
    },
    {
      "midi": 68,
      "hit": false,
      "t": 65450.78258333327,
      "d": 486.6800520833276,
      "v": 1
    },
    {
      "midi": 34,
      "hit": false,
      "t": 65450.78258333332,
      "d": 307.37687500000175,
      "v": 72
    },
    {
      "midi": 65,
      "hit": false,
      "t": 65696.68408333333,
      "d": 81.96716666665452,
      "v": 77
    },
    {
      "midi": 70,
      "hit": false,
      "t": 65696.68408333333,
      "d": 92.21306249998452,
      "v": 74
    },
    {
      "midi": 63,
      "hit": false,
      "t": 65942.58558333326,
      "d": 486.6800520833349,
      "v": 1
    },
    {
      "midi": 67,
      "hit": false,
      "t": 65942.58558333326,
      "d": 486.6800520833349,
      "v": 1
    },
    {
      "midi": 27,
      "hit": false,
      "t": 65942.5855833333,
      "d": 215.16381250000268,
      "v": 69
    },
    {
      "midi": 63,
      "hit": false,
      "t": 66188.48708333331,
      "d": 122.95075000000361,
      "v": 71
    },
    {
      "midi": 67,
      "hit": false,
      "t": 66188.48708333331,
      "d": 138.3195937499986,
      "v": 70
    },
    {
      "midi": 70,
      "hit": false,
      "t": 66434.38858333326,
      "d": 486.6800520833349,
      "v": 1
    },
    {
      "midi": 34,
      "hit": false,
      "t": 66434.3885833333,
      "d": 412.3973072916706,
      "v": 72
    },
    {
      "midi": 63,
      "hit": false,
      "t": 66680.29008333331,
      "d": 107.58190624999406,
      "v": 71
    },
    {
      "midi": 67,
      "hit": false,
      "t": 66680.29008333331,
      "d": 107.58190624999406,
      "v": 77
    },
    {
      "midi": 68,
      "hit": false,
      "t": 66926.19158333326,
      "d": 486.6800520833349,
      "v": 1
    },
    {
      "midi": 72,
      "hit": false,
      "t": 66926.19158333326,
      "d": 486.6800520833349,
      "v": 1
    },
    {
      "midi": 32,
      "hit": false,
      "t": 66926.1915833333,
      "d": 389.3440416666708,
      "v": 76
    },
    {
      "midi": 63,
      "hit": false,
      "t": 67172.09308333331,
      "d": 81.96716666666907,
      "v": 70
    },
    {
      "midi": 67,
      "hit": false,
      "t": 67172.09308333331,
      "d": 87.09011458333407,
      "v": 72
    },
    {
      "midi": 70,
      "hit": false,
      "t": 67417.99458333326,
      "d": 486.6800520833349,
      "v": 1
    },
    {
      "midi": 74,
      "hit": false,
      "t": 67417.99458333326,
      "d": 486.6800520833349,
      "v": 1
    },
    {
      "midi": 29,
      "hit": false,
      "t": 67417.9945833333,
      "d": 427.76615104168013,
      "v": 69
    },
    {
      "midi": 63,
      "hit": false,
      "t": 67663.89608333331,
      "d": 71.72127083333908,
      "v": 75
    },
    {
      "midi": 67,
      "hit": false,
      "t": 67663.89608333331,
      "d": 76.84421875000407,
      "v": 73
    },
    {
      "midi": 67,
      "hit": false,
      "t": 67909.79758333326,
      "d": 1470.2860520833347,
      "v": 1
    },
    {
      "midi": 75,
      "hit": false,
      "t": 67909.79758333326,
      "d": 1470.2860520833347,
      "v": 1
    },
    {
      "midi": 39,
      "hit": false,
      "t": 67909.79758333332,
      "d": 427.7661510416656,
      "v": 69
    },
    {
      "midi": 63,
      "hit": false,
      "t": 68155.69908333333,
      "d": 87.09011458333407,
      "v": 71
    },
    {
      "midi": 67,
      "hit": false,
      "t": 68155.69908333333,
      "d": 115.26632812499884,
      "v": 71
    },
    {
      "midi": 34,
      "hit": false,
      "t": 68401.60058333332,
      "d": 473.8726822916651,
      "v": 73
    },
    {
      "midi": 63,
      "hit": false,
      "t": 68647.50208333333,
      "d": 69.1597968749993,
      "v": 73
    },
    {
      "midi": 67,
      "hit": false,
      "t": 68647.50208333333,
      "d": 74.2827447916643,
      "v": 70
    },
    {
      "midi": 39,
      "hit": false,
      "t": 68893.40358333332,
      "d": 412.39730729168514,
      "v": 75
    },
    {
      "midi": 63,
      "hit": false,
      "t": 69139.30508333333,
      "d": 74.2827447916643,
      "v": 76
    },
    {
      "midi": 67,
      "hit": false,
      "t": 69139.30508333333,
      "d": 76.84421875000407,
      "v": 73
    },
    {
      "midi": 67,
      "hit": false,
      "t": 69385.20658333326,
      "d": 486.6800520833349,
      "v": 1
    },
    {
      "midi": 74,
      "hit": false,
      "t": 69385.20658333326,
      "d": 486.6800520833349,
      "v": 1
    },
    {
      "midi": 43,
      "hit": false,
      "t": 69385.20658333333,
      "d": 366.2907760416856,
      "v": 70
    },
    {
      "midi": 63,
      "hit": false,
      "t": 69631.10808333334,
      "d": 71.72127083333908,
      "v": 70
    },
    {
      "midi": 67,
      "hit": false,
      "t": 69631.10808333334,
      "d": 79.40569270834385,
      "v": 72
    },
    {
      "midi": 68,
      "hit": false,
      "t": 69877.00958333326,
      "d": 1962.0890520833345,
      "v": 1
    },
    {
      "midi": 72,
      "hit": false,
      "t": 69877.00958333326,
      "d": 1962.0890520833345,
      "v": 1
    },
    {
      "midi": 44,
      "hit": false,
      "t": 69877.00958333335,
      "d": 394.46698958335037,
      "v": 70
    },
    {
      "midi": 68,
      "hit": false,
      "t": 70122.91108333335,
      "d": 71.72127083333908,
      "v": 77
    },
    {
      "midi": 63,
      "hit": false,
      "t": 70122.91108333335,
      "d": 76.84421875000407,
      "v": 70
    },
    {
      "midi": 43,
      "hit": false,
      "t": 70368.81258333336,
      "d": 407.2743593750056,
      "v": 78
    },
    {
      "midi": 63,
      "hit": false,
      "t": 70614.71408333337,
      "d": 69.1597968749993,
      "v": 72
    },
    {
      "midi": 68,
      "hit": false,
      "t": 70614.71408333337,
      "d": 76.84421875000407,
      "v": 73
    },
    {
      "midi": 41,
      "hit": false,
      "t": 70860.61558333336,
      "d": 440.5735208333499,
      "v": 70
    },
    {
      "midi": 63,
      "hit": false,
      "t": 71106.51708333337,
      "d": 69.1597968749993,
      "v": 74
    },
    {
      "midi": 68,
      "hit": false,
      "t": 71106.51708333337,
      "d": 71.72127083333908,
      "v": 70
    },
    {
      "midi": 39,
      "hit": false,
      "t": 71352.41858333338,
      "d": 376.5366718750156,
      "v": 78
    },
    {
      "midi": 63,
      "hit": false,
      "t": 71598.32008333338,
      "d": 71.72127083333908,
      "v": 69
    },
    {
      "midi": 68,
      "hit": false,
      "t": 71598.32008333338,
      "d": 79.40569270834385,
      "v": 77
    },
    {
      "midi": 70,
      "hit": false,
      "t": 71844.22158333326,
      "d": 1470.2860520833347,
      "v": 1
    },
    {
      "midi": 74,
      "hit": false,
      "t": 71844.22158333326,
      "d": 1470.2860520833347,
      "v": 1
    },
    {
      "midi": 41,
      "hit": false,
      "t": 71844.22158333339,
      "d": 350.92193229167606,
      "v": 72
    },
    {
      "midi": 65,
      "hit": false,
      "t": 72090.1230833334,
      "d": 163.93433333333815,
      "v": 77
    },
    {
      "midi": 70,
      "hit": false,
      "t": 72090.1230833334,
      "d": 166.49580729167792,
      "v": 69
    },
    {
      "midi": 34,
      "hit": false,
      "t": 72336.0245833334,
      "d": 438.0120468749956,
      "v": 76
    },
    {
      "midi": 70,
      "hit": false,
      "t": 72581.92608333341,
      "d": 153.6884374999936,
      "v": 70
    },
    {
      "midi": 65,
      "hit": false,
      "t": 72581.92608333341,
      "d": 169.0572812499886,
      "v": 70
    },
    {
      "midi": 36,
      "hit": false,
      "t": 72827.8275833334,
      "d": 412.39730729168514,
      "v": 79
    },
    {
      "midi": 70,
      "hit": false,
      "t": 73073.72908333341,
      "d": 135.75811979167338,
      "v": 72
    },
    {
      "midi": 65,
      "hit": false,
      "t": 73073.72908333341,
      "d": 138.31959375001315,
      "v": 69
    },
    {
      "midi": 68,
      "hit": false,
      "t": 73319.63058333326,
      "d": 486.6800520833349,
      "v": 1
    },
    {
      "midi": 72,
      "hit": false,
      "t": 73319.63058333326,
      "d": 486.6800520833349,
      "v": 1
    },
    {
      "midi": 38,
      "hit": false,
      "t": 73319.63058333342,
      "d": 386.7825677083456,
      "v": 69
    },
    {
      "midi": 65,
      "hit": false,
      "t": 73565.53208333343,
      "d": 138.3195937499986,
      "v": 73
    },
    {
      "midi": 70,
      "hit": false,
      "t": 73565.53208333343,
      "d": 153.68843750000815,
      "v": 76
    },
    {
      "midi": 67,
      "hit": false,
      "t": 73811.43358333326,
      "d": 1962.0890520833345,
      "v": 1
    },
    {
      "midi": 70,
      "hit": false,
      "t": 73811.43358333326,
      "d": 1962.0890520833345,
      "v": 1
    },
    {
      "midi": 39,
      "hit": false,
      "t": 73811.43358333343,
      "d": 274.077713541672,
      "v": 69
    },
    {
      "midi": 67,
      "hit": false,
      "t": 74057.33508333344,
      "d": 148.5654895833286,
      "v": 74
    },
    {
      "midi": 70,
      "hit": false,
      "t": 74057.33508333344,
      "d": 156.24991145833337,
      "v": 73
    },
    {
      "midi": 39,
      "hit": false,
      "t": 74303.23658333345,
      "d": 455.94236458333035,
      "v": 73
    },
    {
      "midi": 67,
      "hit": false,
      "t": 74549.13808333346,
      "d": 166.49580729166337,
      "v": 78
    },
    {
      "midi": 70,
      "hit": false,
      "t": 74549.13808333346,
      "d": 186.98759895832336,
      "v": 77
    },
    {
      "midi": 38,
      "hit": false,
      "t": 74795.03958333345,
      "d": 391.9055156250106,
      "v": 72
    },
    {
      "midi": 67,
      "hit": false,
      "t": 75040.94108333346,
      "d": 120.38927604166383,
      "v": 71
    },
    {
      "midi": 70,
      "hit": false,
      "t": 75040.94108333346,
      "d": 143.4425416666636,
      "v": 73
    },
    {
      "midi": 37,
      "hit": false,
      "t": 75286.84258333346,
      "d": 340.6760364583315,
      "v": 77
    },
    {
      "midi": 67,
      "hit": false,
      "t": 75778.64558333326,
      "d": 1470.2860520833347,
      "v": 1
    },
    {
      "midi": 72,
      "hit": false,
      "t": 75778.64558333326,
      "d": 1470.2860520833347,
      "v": 1
    },
    {
      "midi": 36,
      "hit": false,
      "t": 75778.64558333346,
      "d": 399.5899375000008,
      "v": 70
    },
    {
      "midi": 38,
      "hit": false,
      "t": 76270.44858333346,
      "d": 409.8358333333308,
      "v": 76
    },
    {
      "midi": 40,
      "hit": false,
      "t": 76762.25158333346,
      "d": 399.5899375000008,
      "v": 69
    },
    {
      "midi": 67,
      "hit": false,
      "t": 77254.05458333326,
      "d": 855.5323020833312,
      "v": 1
    },
    {
      "midi": 70,
      "hit": false,
      "t": 77254.05458333326,
      "d": 855.5323020833312,
      "v": 1
    },
    {
      "midi": 36,
      "hit": false,
      "t": 77254.05458333346,
      "d": 368.8522499999963,
      "v": 78
    },
    {
      "midi": 41,
      "hit": false,
      "t": 77745.85758333346,
      "d": 353.4834062500013,
      "v": 71
    },
    {
      "midi": 65,
      "hit": false,
      "t": 78114.70983333325,
      "d": 1101.4338020833384,
      "v": 1
    },
    {
      "midi": 68,
      "hit": false,
      "t": 78114.70983333325,
      "d": 1101.4338020833384,
      "v": 1
    },
    {
      "midi": 39,
      "hit": false,
      "t": 78237.66058333346,
      "d": 386.78256770833104,
      "v": 79
    },
    {
      "midi": 38,
      "hit": false,
      "t": 78729.46358333346,
      "d": 373.9751979166613,
      "v": 70
    },
    {
      "midi": 63,
      "hit": false,
      "t": 79221.26658333326,
      "d": 486.6800520833349,
      "v": 1
    },
    {
      "midi": 72,
      "hit": false,
      "t": 79221.26658333326,
      "d": 486.6800520833349,
      "v": 1
    },
    {
      "midi": 32,
      "hit": false,
      "t": 79221.26658333346,
      "d": 399.5899375000008,
      "v": 78
    },
    {
      "midi": 62,
      "hit": false,
      "t": 79713.06958333326,
      "d": 1470.2860520833347,
      "v": 1
    },
    {
      "midi": 70,
      "hit": false,
      "t": 79713.06958333326,
      "d": 1470.2860520833347,
      "v": 1
    },
    {
      "midi": 34,
      "hit": false,
      "t": 79713.06958333346,
      "d": 391.90551562499604,
      "v": 76
    },
    {
      "midi": 65,
      "hit": false,
      "t": 79958.97108333347,
      "d": 97.33601041666407,
      "v": 75
    },
    {
      "midi": 70,
      "hit": false,
      "t": 79958.97108333347,
      "d": 112.70485416665906,
      "v": 71
    },
    {
      "midi": 36,
      "hit": false,
      "t": 80204.87258333346,
      "d": 404.71288541668036,
      "v": 70
    },
    {
      "midi": 70,
      "hit": false,
      "t": 80450.77408333347,
      "d": 97.33601041666407,
      "v": 76
    },
    {
      "midi": 65,
      "hit": false,
      "t": 80450.77408333347,
      "d": 110.14338020833384,
      "v": 70
    },
    {
      "midi": 38,
      "hit": false,
      "t": 80696.67558333348,
      "d": 361.1678281250206,
      "v": 77
    },
    {
      "midi": 70,
      "hit": false,
      "t": 80942.57708333348,
      "d": 76.84421875000407,
      "v": 70
    },
    {
      "midi": 65,
      "hit": false,
      "t": 80942.57708333348,
      "d": 84.52864062500885,
      "v": 74
    },
    {
      "midi": 62,
      "hit": false,
      "t": 81188.47858333326,
      "d": 486.6800520833349,
      "v": 1
    },
    {
      "midi": 77,
      "hit": false,
      "t": 81188.47858333326,
      "d": 486.6800520833349,
      "v": 1
    },
    {
      "midi": 34,
      "hit": false,
      "t": 81188.47858333349,
      "d": 307.37687500000175,
      "v": 78
    },
    {
      "midi": 65,
      "hit": false,
      "t": 81434.3800833335,
      "d": 81.96716666665452,
      "v": 73
    },
    {
      "midi": 70,
      "hit": false,
      "t": 81434.3800833335,
      "d": 92.21306249998452,
      "v": 71
    },
    {
      "midi": 63,
      "hit": false,
      "t": 81680.28158333326,
      "d": 855.5323020833312,
      "v": 1
    },
    {
      "midi": 75,
      "hit": false,
      "t": 81680.28158333326,
      "d": 978.4830520833348,
      "v": 1
    },
    {
      "midi": 69,
      "hit": false,
      "t": 89549.12958333326,
      "d": 363.7293020833313,
      "v": 1
    },
    {
      "midi": 67,
      "hit": false,
      "t": 89917.98183333325,
      "d": 117.82780208333861,
      "v": 1
    },
    {
      "midi": 65,
      "hit": false,
      "t": 90040.93258333326,
      "d": 240.77855208332767,
      "v": 1
    },
    {
      "midi": 62,
      "hit": false,
      "t": 90286.83408333325,
      "d": 240.77855208332767,
      "v": 1
    },
    {
      "midi": 60,
      "hit": false,
      "t": 90532.73558333324,
      "d": 122.95075000000361,
      "v": 1
    },
    {
      "midi": 62,
      "hit": false,
      "t": 90655.68633333324,
      "d": 240.77855208332767,
      "v": 1
    },
    {
      "midi": 60,
      "hit": false,
      "t": 90901.58783333324,
      "d": 609.6308020833385,
      "v": 1
    },
    {
      "midi": 69,
      "hit": false,
      "t": 93483.55358333324,
      "d": 363.7293020833313,
      "v": 1
    },
    {
      "midi": 67,
      "hit": false,
      "t": 93852.40583333324,
      "d": 117.82780208333861,
      "v": 1
    },
    {
      "midi": 65,
      "hit": false,
      "t": 93975.35658333324,
      "d": 240.77855208332767,
      "v": 1
    },
    {
      "midi": 62,
      "hit": false,
      "t": 94221.25808333323,
      "d": 240.77855208332767,
      "v": 1
    },
    {
      "midi": 60,
      "hit": false,
      "t": 94467.15958333322,
      "d": 158.81138541667315,
      "v": 1
    },
    {
      "midi": 62,
      "hit": false,
      "t": 94590.11033333323,
      "d": 240.77855208334222,
      "v": 1
    },
    {
      "midi": 60,
      "hit": false,
      "t": 94836.01183333324,
      "d": 609.6308020833385,
      "v": 1
    },
    {
      "midi": 67,
      "hit": false,
      "t": 97417.97758333324,
      "d": 2453.8920520833344,
      "v": 1
    },
    {
      "midi": 69,
      "hit": false,
      "t": 99876.99258333324,
      "d": 240.77855208332767,
      "v": 1
    },
    {
      "midi": 71,
      "hit": false,
      "t": 100122.89408333323,
      "d": 240.77855208332767,
      "v": 1
    },
    {
      "midi": 72,
      "hit": false,
      "t": 100368.79558333322,
      "d": 732.5815520833276,
      "v": 1
    },
    {
      "midi": 70,
      "hit": false,
      "t": 101106.50008333322,
      "d": 240.77855208332767,
      "v": 1
    },
    {
      "midi": 65,
      "hit": false,
      "t": 101352.40158333321,
      "d": 1224.3845520833274,
      "v": 1
    },
    {
      "midi": 69,
      "hit": false,
      "t": 101352.40158333321,
      "d": 1224.3845520833274,
      "v": 1
    },
    {
      "midi": 69,
      "hit": false,
      "t": 102581.9090833332,
      "d": 978.4830520833348,
      "v": 1
    },
    {
      "midi": 72,
      "hit": false,
      "t": 102581.9090833332,
      "d": 978.4830520833348,
      "v": 1
    },
    {
      "midi": 67,
      "hit": false,
      "t": 103565.5150833332,
      "d": 732.5815520833276,
      "v": 1
    },
    {
      "midi": 70,
      "hit": false,
      "t": 103565.5150833332,
      "d": 732.5815520833276,
      "v": 1
    },
    {
      "midi": 70,
      "hit": false,
      "t": 104303.2195833332,
      "d": 240.77855208332767,
      "v": 1
    },
    {
      "midi": 74,
      "hit": false,
      "t": 104303.2195833332,
      "d": 240.77855208332767,
      "v": 1
    },
    {
      "midi": 69,
      "hit": false,
      "t": 104549.12108333319,
      "d": 732.5815520833276,
      "v": 1
    },
    {
      "midi": 72,
      "hit": false,
      "t": 104549.12108333319,
      "d": 732.5815520833276,
      "v": 1
    },
    {
      "midi": 65,
      "hit": false,
      "t": 105286.82558333318,
      "d": 1224.3845520833274,
      "v": 1
    },
    {
      "midi": 69,
      "hit": false,
      "t": 105286.82558333318,
      "d": 1224.3845520833274,
      "v": 1
    },
    {
      "midi": 69,
      "hit": false,
      "t": 106516.33308333317,
      "d": 978.4830520833348,
      "v": 1
    },
    {
      "midi": 72,
      "hit": false,
      "t": 106516.33308333317,
      "d": 978.4830520833348,
      "v": 1
    },
    {
      "midi": 67,
      "hit": false,
      "t": 107499.93908333317,
      "d": 363.7293020833313,
      "v": 1
    },
    {
      "midi": 70,
      "hit": false,
      "t": 107499.93908333317,
      "d": 363.7293020833313,
      "v": 1
    },
    {
      "midi": 64,
      "hit": false,
      "t": 107868.79133333317,
      "d": 240.77855208332767,
      "v": 1
    },
    {
      "midi": 72,
      "hit": false,
      "t": 107868.79133333317,
      "d": 240.77855208332767,
      "v": 1
    },
    {
      "midi": 65,
      "hit": false,
      "t": 108114.69283333316,
      "d": 855.5323020833312,
      "v": 1
    },
    {
      "midi": 69,
      "hit": false,
      "t": 108114.69283333316,
      "d": 855.5323020833312,
      "v": 1
    },
    {
      "midi": 66,
      "hit": false,
      "t": 122991.73358333316,
      "d": 240.77855208332767,
      "v": 1
    },
    {
      "midi": 73,
      "hit": false,
      "t": 122991.73358333316,
      "d": 240.77855208332767,
      "v": 1
    },
    {
      "midi": 65,
      "hit": false,
      "t": 123237.63508333315,
      "d": 732.5815520833276,
      "v": 1
    },
    {
      "midi": 71,
      "hit": false,
      "t": 123237.63508333315,
      "d": 732.5815520833276,
      "v": 1
    },
    {
      "midi": 68,
      "hit": false,
      "t": 123975.33958333315,
      "d": 130.63517187500838,
      "v": 1
    },
    {
      "midi": 75,
      "hit": false,
      "t": 123975.33958333315,
      "d": 130.63517187500838,
      "v": 1
    },
    {
      "midi": 66,
      "hit": false,
      "t": 124098.29033333315,
      "d": 855.5323020833312,
      "v": 1
    },
    {
      "midi": 73,
      "hit": false,
      "t": 124098.29033333315,
      "d": 855.5323020833312,
      "v": 1
    },
    {
      "midi": 66,
      "hit": false,
      "t": 126926.15758333314,
      "d": 240.77855208332767,
      "v": 1
    },
    {
      "midi": 73,
      "hit": false,
      "t": 126926.15758333314,
      "d": 240.77855208332767,
      "v": 1
    },
    {
      "midi": 65,
      "hit": false,
      "t": 127172.05908333314,
      "d": 363.7293020833313,
      "v": 1
    },
    {
      "midi": 71,
      "hit": false,
      "t": 127172.05908333314,
      "d": 363.7293020833313,
      "v": 1
    },
    {
      "midi": 65,
      "hit": false,
      "t": 127540.91133333313,
      "d": 240.77855208332767,
      "v": 1
    },
    {
      "midi": 73,
      "hit": false,
      "t": 127540.91133333313,
      "d": 240.77855208332767,
      "v": 1
    },
    {
      "midi": 66,
      "hit": false,
      "t": 127786.81283333313,
      "d": 486.6800520833349,
      "v": 1
    },
    {
      "midi": 70,
      "hit": false,
      "t": 127786.81283333313,
      "d": 609.6308020833385,
      "v": 1
    },
    {
      "midi": 38,
      "hit": false,
      "t": 128893.3695833335,
      "d": 133.1966458333336,
      "v": 74
    },
    {
      "midi": 38,
      "hit": false,
      "t": 129139.2710833335,
      "d": 174.18022916666814,
      "v": 72
    },
    {
      "midi": 40,
      "hit": false,
      "t": 129385.17258333351,
      "d": 107.58190624999406,
      "v": 73
    },
    {
      "midi": 42,
      "hit": false,
      "t": 129508.1233333335,
      "d": 110.14338020833384,
      "v": 71
    },
    {
      "midi": 43,
      "hit": false,
      "t": 129754.0248333335,
      "d": 317.62277083333174,
      "v": 70
    },
    {
      "midi": 62,
      "hit": false,
      "t": 130122.8770833335,
      "d": 94.77453645833884,
      "v": 73
    },
    {
      "midi": 67,
      "hit": false,
      "t": 130122.8770833335,
      "d": 97.33601041667862,
      "v": 72
    },
    {
      "midi": 43,
      "hit": false,
      "t": 130245.82783333352,
      "d": 71.72127083333908,
      "v": 77
    },
    {
      "midi": 38,
      "hit": false,
      "t": 130368.77858333352,
      "d": 307.37687500000175,
      "v": 72
    },
    {
      "midi": 62,
      "hit": false,
      "t": 130614.68008333353,
      "d": 94.77453645832429,
      "v": 73
    },
    {
      "midi": 67,
      "hit": false,
      "t": 130614.68008333353,
      "d": 102.45895833332906,
      "v": 74
    },
    {
      "midi": 43,
      "hit": false,
      "t": 130860.58158333352,
      "d": 251.02444791668677,
      "v": 78
    },
    {
      "midi": 62,
      "hit": false,
      "t": 131106.48308333353,
      "d": 138.3195937500277,
      "v": 71
    },
    {
      "midi": 67,
      "hit": false,
      "t": 131106.48308333353,
      "d": 146.00401562501793,
      "v": 77
    },
    {
      "midi": 43,
      "hit": false,
      "t": 131229.43383333355,
      "d": 46.106531249999534,
      "v": 75
    },
    {
      "midi": 38,
      "hit": false,
      "t": 131352.38458333354,
      "d": 332.99161458335584,
      "v": 77
    },
    {
      "midi": 62,
      "hit": false,
      "t": 131598.28608333354,
      "d": 81.96716666666907,
      "v": 71
    },
    {
      "midi": 67,
      "hit": false,
      "t": 131598.28608333354,
      "d": 102.45895833335817,
      "v": 77
    },
    {
      "midi": 43,
      "hit": false,
      "t": 131844.18758333358,
      "d": 266.3932916666672,
      "v": 78
    },
    {
      "midi": 62,
      "hit": false,
      "t": 132090.0890833336,
      "d": 102.45895833332906,
      "v": 72
    },
    {
      "midi": 67,
      "hit": false,
      "t": 132090.0890833336,
      "d": 115.26632812499884,
      "v": 73
    },
    {
      "midi": 43,
      "hit": false,
      "t": 132213.03983333358,
      "d": 120.38927604167839,
      "v": 77
    },
    {
      "midi": 38,
      "hit": false,
      "t": 132335.9905833336,
      "d": 274.07771354168653,
      "v": 70
    },
    {
      "midi": 62,
      "hit": false,
      "t": 132581.8920833336,
      "d": 94.77453645833884,
      "v": 78
    },
    {
      "midi": 67,
      "hit": false,
      "t": 132581.8920833336,
      "d": 107.58190625000861,
      "v": 69
    },
    {
      "midi": 43,
      "hit": false,
      "t": 132827.7935833336,
      "d": 266.3932916666672,
      "v": 70
    },
    {
      "midi": 62,
      "hit": false,
      "t": 133073.69508333362,
      "d": 102.45895833332906,
      "v": 73
    },
    {
      "midi": 67,
      "hit": false,
      "t": 133073.69508333362,
      "d": 117.82780208333861,
      "v": 71
    },
    {
      "midi": 43,
      "hit": false,
      "t": 133196.64583333363,
      "d": 120.38927604167839,
      "v": 71
    },
    {
      "midi": 38,
      "hit": false,
      "t": 133319.59658333365,
      "d": 274.07771354168653,
      "v": 72
    },
    {
      "midi": 62,
      "hit": false,
      "t": 133565.49808333366,
      "d": 97.33601041667862,
      "v": 74
    },
    {
      "midi": 67,
      "hit": false,
      "t": 133565.49808333366,
      "d": 107.58190625000861,
      "v": 77
    },
    {
      "midi": 62,
      "hit": false,
      "t": 133811.39958333314,
      "d": 486.6800520833349,
      "v": 1
    },
    {
      "midi": 59,
      "hit": false,
      "t": 133811.39958333314,
      "d": 1962.0890520833782,
      "v": 1
    },
    {
      "midi": 43,
      "hit": false,
      "t": 133811.39958333367,
      "d": 238.2170781249879,
      "v": 73
    },
    {
      "midi": 62,
      "hit": false,
      "t": 134057.30108333364,
      "d": 133.19664583331905,
      "v": 72
    },
    {
      "midi": 67,
      "hit": false,
      "t": 134057.30108333364,
      "d": 135.75811979165883,
      "v": 76
    },
    {
      "midi": 43,
      "hit": false,
      "t": 134180.25183333363,
      "d": 43.54505729165976,
      "v": 72
    },
    {
      "midi": 67,
      "hit": false,
      "t": 134303.20258333316,
      "d": 240.77855208332767,
      "v": 1
    },
    {
      "midi": 38,
      "hit": false,
      "t": 134303.20258333362,
      "d": 315.0612968750065,
      "v": 75
    },
    {
      "midi": 62,
      "hit": false,
      "t": 134549.10408333316,
      "d": 240.77855208332767,
      "v": 1
    },
    {
      "midi": 62,
      "hit": false,
      "t": 134549.10408333363,
      "d": 89.6515885416593,
      "v": 77
    },
    {
      "midi": 67,
      "hit": false,
      "t": 134549.10408333363,
      "d": 102.45895833332906,
      "v": 75
    },
    {
      "midi": 64,
      "hit": false,
      "t": 134795.00558333317,
      "d": 486.6800520833349,
      "v": 1
    },
    {
      "midi": 43,
      "hit": false,
      "t": 134795.00558333364,
      "d": 243.34002604166744,
      "v": 71
    },
    {
      "midi": 67,
      "hit": false,
      "t": 135040.90708333364,
      "d": 122.95074999998906,
      "v": 69
    },
    {
      "midi": 62,
      "hit": false,
      "t": 135040.90708333364,
      "d": 130.63517187497928,
      "v": 71
    },
    {
      "midi": 43,
      "hit": false,
      "t": 135163.85783333363,
      "d": 51.22947916664998,
      "v": 74
    },
    {
      "midi": 67,
      "hit": false,
      "t": 135286.8085833332,
      "d": 486.6800520833349,
      "v": 1
    },
    {
      "midi": 38,
      "hit": false,
      "t": 135286.80858333362,
      "d": 289.446557291667,
      "v": 73
    },
    {
      "midi": 62,
      "hit": false,
      "t": 135532.71008333363,
      "d": 107.58190624997951,
      "v": 71
    },
    {
      "midi": 67,
      "hit": false,
      "t": 135532.71008333363,
      "d": 112.70485416665906,
      "v": 72
    },
    {
      "midi": 66,
      "hit": false,
      "t": 135778.6115833332,
      "d": 978.4830520833202,
      "v": 1
    },
    {
      "midi": 60,
      "hit": false,
      "t": 135778.6115833332,
      "d": 1962.08905208332,
      "v": 1
    },
    {
      "midi": 45,
      "hit": false,
      "t": 135778.6115833336,
      "d": 258.708869791677,
      "v": 70
    },
    {
      "midi": 69,
      "hit": false,
      "t": 136024.51308333362,
      "d": 102.45895833332906,
      "v": 70
    },
    {
      "midi": 66,
      "hit": false,
      "t": 136024.51308333362,
      "d": 128.0736979166686,
      "v": 70
    },
    {
      "midi": 45,
      "hit": false,
      "t": 136147.4638333336,
      "d": 66.59832291668863,
      "v": 78
    },
    {
      "midi": 38,
      "hit": false,
      "t": 136270.41458333362,
      "d": 353.48340625001583,
      "v": 75
    },
    {
      "midi": 66,
      "hit": false,
      "t": 136516.31608333363,
      "d": 97.33601041667862,
      "v": 70
    },
    {
      "midi": 69,
      "hit": false,
      "t": 136516.31608333363,
      "d": 97.33601041667862,
      "v": 77
    },
    {
      "midi": 72,
      "hit": false,
      "t": 136762.2175833332,
      "d": 978.4830520833202,
      "v": 1
    },
    {
      "midi": 45,
      "hit": false,
      "t": 136762.21758333364,
      "d": 225.40970833334723,
      "v": 73
    },
    {
      "midi": 66,
      "hit": false,
      "t": 137008.11908333364,
      "d": 84.52864062500885,
      "v": 77
    },
    {
      "midi": 69,
      "hit": false,
      "t": 137008.11908333364,
      "d": 87.09011458334862,
      "v": 69
    },
    {
      "midi": 45,
      "hit": false,
      "t": 137131.06983333366,
      "d": 74.28274479167885,
      "v": 78
    },
    {
      "midi": 38,
      "hit": false,
      "t": 137254.02058333368,
      "d": 297.1309791666863,
      "v": 78
    },
    {
      "midi": 66,
      "hit": false,
      "t": 137499.9220833337,
      "d": 81.96716666666907,
      "v": 77
    },
    {
      "midi": 69,
      "hit": false,
      "t": 137499.9220833337,
      "d": 87.09011458334862,
      "v": 73
    },
    {
      "midi": 62,
      "hit": false,
      "t": 137745.8235833332,
      "d": 486.6800520833349,
      "v": 1
    },
    {
      "midi": 60,
      "hit": false,
      "t": 137745.8235833332,
      "d": 1962.0890520833782,
      "v": 1
    },
    {
      "midi": 45,
      "hit": false,
      "t": 137745.8235833337,
      "d": 245.90150000000722,
      "v": 71
    },
    {
      "midi": 66,
      "hit": false,
      "t": 137991.7250833337,
      "d": 87.09011458331952,
      "v": 69
    },
    {
      "midi": 69,
      "hit": false,
      "t": 137991.7250833337,
      "d": 92.21306249999907,
      "v": 73
    },
    {
      "midi": 45,
      "hit": false,
      "t": 138114.6758333337,
      "d": 61.47537500000908,
      "v": 76
    },
    {
      "midi": 66,
      "hit": false,
      "t": 138237.6265833332,
      "d": 240.77855208332767,
      "v": 1
    },
    {
      "midi": 38,
      "hit": false,
      "t": 138237.6265833337,
      "d": 327.8686666666763,
      "v": 72
    },
    {
      "midi": 62,
      "hit": false,
      "t": 138483.52808333322,
      "d": 240.77855208332767,
      "v": 1
    },
    {
      "midi": 66,
      "hit": false,
      "t": 138483.52808333372,
      "d": 81.96716666666907,
      "v": 76
    },
    {
      "midi": 69,
      "hit": false,
      "t": 138483.52808333372,
      "d": 84.52864062500885,
      "v": 77
    },
    {
      "midi": 64,
      "hit": false,
      "t": 138729.42958333323,
      "d": 486.6800520833349,
      "v": 1
    },
    {
      "midi": 45,
      "hit": false,
      "t": 138729.42958333372,
      "d": 235.65560416667722,
      "v": 77
    },
    {
      "midi": 66,
      "hit": false,
      "t": 138975.33108333373,
      "d": 94.77453645833884,
      "v": 69
    },
    {
      "midi": 69,
      "hit": false,
      "t": 138975.33108333373,
      "d": 94.77453645833884,
      "v": 75
    },
    {
      "midi": 45,
      "hit": false,
      "t": 139098.28183333375,
      "d": 89.6515885416593,
      "v": 76
    },
    {
      "midi": 66,
      "hit": false,
      "t": 139221.23258333324,
      "d": 486.6800520833349,
      "v": 1
    },
    {
      "midi": 38,
      "hit": false,
      "t": 139221.23258333374,
      "d": 302.25392708333675,
      "v": 69
    },
    {
      "midi": 66,
      "hit": false,
      "t": 139467.13408333375,
      "d": 84.52864062500885,
      "v": 69
    },
    {
      "midi": 69,
      "hit": false,
      "t": 139467.13408333375,
      "d": 84.52864062500885,
      "v": 79
    },
    {
      "midi": 62,
      "hit": false,
      "t": 139713.03558333326,
      "d": 732.5815520833421,
      "v": 1
    },
    {
      "midi": 59,
      "hit": false,
      "t": 139713.03558333326,
      "d": 1962.089052083349,
      "v": 1
    },
    {
      "midi": 43,
      "hit": false,
      "t": 139713.03558333375,
      "d": 251.02444791668677,
      "v": 73
    },
    {
      "midi": 62,
      "hit": false,
      "t": 139958.93708333376,
      "d": 117.82780208333861,
      "v": 71
    },
    {
      "midi": 67,
      "hit": false,
      "t": 139958.93708333376,
      "d": 133.19664583334816,
      "v": 70
    },
    {
      "midi": 43,
      "hit": false,
      "t": 140081.88783333378,
      "d": 66.59832291665953,
      "v": 71
    },
    {
      "midi": 38,
      "hit": false,
      "t": 140204.83858333377,
      "d": 307.3768750000163,
      "v": 73
    },
    {
      "midi": 71,
      "hit": false,
      "t": 140450.74008333328,
      "d": 1224.3845520833274,
      "v": 1
    },
    {
      "midi": 62,
      "hit": false,
      "t": 140450.74008333377,
      "d": 97.33601041667862,
      "v": 76
    },
    {
      "midi": 67,
      "hit": false,
      "t": 140450.74008333377,
      "d": 97.33601041667862,
      "v": 78
    },
    {
      "midi": 43,
      "hit": false,
      "t": 140696.64158333378,
      "d": 245.90150000000722,
      "v": 74
    },
    {
      "midi": 67,
      "hit": false,
      "t": 140942.5430833338,
      "d": 94.77453645833884,
      "v": 72
    },
    {
      "midi": 62,
      "hit": false,
      "t": 140942.5430833338,
      "d": 110.14338020834839,
      "v": 71
    },
    {
      "midi": 43,
      "hit": false,
      "t": 141065.4938333338,
      "d": 66.59832291665953,
      "v": 71
    },
    {
      "midi": 38,
      "hit": false,
      "t": 141188.4445833338,
      "d": 268.954765625007,
      "v": 73
    },
    {
      "midi": 62,
      "hit": false,
      "t": 141434.3460833338,
      "d": 87.09011458331952,
      "v": 73
    },
    {
      "midi": 67,
      "hit": false,
      "t": 141434.3460833338,
      "d": 92.21306249999907,
      "v": 73
    },
    {
      "midi": 43,
      "hit": false,
      "t": 141680.2475833338,
      "d": 345.7989843750256,
      "v": 75
    },
    {
      "midi": 62,
      "hit": false,
      "t": 141926.14908333382,
      "d": 66.59832291665953,
      "v": 70
    },
    {
      "midi": 67,
      "hit": false,
      "t": 141926.14908333382,
      "d": 71.72127083333908,
      "v": 70
    },
    {
      "midi": 38,
      "hit": false,
      "t": 142172.05058333382,
      "d": 338.1145625000063,
      "v": 78
    },
    {
      "midi": 62,
      "hit": false,
      "t": 142417.95208333383,
      "d": 66.59832291665953,
      "v": 69
    },
    {
      "midi": 67,
      "hit": false,
      "t": 142417.95208333383,
      "d": 81.96716666666907,
      "v": 69
    },
    {
      "midi": 43,
      "hit": false,
      "t": 142663.85358333384,
      "d": 332.99161458332674,
      "v": 71
    },
    {
      "midi": 62,
      "hit": false,
      "t": 142909.75508333385,
      "d": 87.09011458331952,
      "v": 69
    },
    {
      "midi": 67,
      "hit": false,
      "t": 142909.75508333385,
      "d": 94.77453645830974,
      "v": 69
    },
    {
      "midi": 38,
      "hit": false,
      "t": 143155.65658333382,
      "d": 348.3604583333654,
      "v": 73
    },
    {
      "midi": 62,
      "hit": false,
      "t": 143401.55808333383,
      "d": 97.33601041667862,
      "v": 77
    },
    {
      "midi": 67,
      "hit": false,
      "t": 143401.55808333383,
      "d": 102.45895833335817,
      "v": 76
    },
    {
      "midi": 45,
      "hit": false,
      "t": 143647.45958333387,
      "d": 343.23751041668584,
      "v": 72
    },
    {
      "midi": 69,
      "hit": false,
      "t": 143893.36108333388,
      "d": 92.21306249999907,
      "v": 76
    },
    {
      "midi": 66,
      "hit": false,
      "t": 143893.36108333388,
      "d": 97.33601041667862,
      "v": 77
    },
    {
      "midi": 38,
      "hit": false,
      "t": 144139.26258333388,
      "d": 330.43014062501607,
      "v": 71
    },
    {
      "midi": 66,
      "hit": false,
      "t": 144385.1640833339,
      "d": 87.09011458334862,
      "v": 76
    },
    {
      "midi": 69,
      "hit": false,
      "t": 144385.1640833339,
      "d": 92.21306250002817,
      "v": 72
    },
    {
      "midi": 45,
      "hit": false,
      "t": 144631.06558333393,
      "d": 335.5530885416956,
      "v": 70
    },
    {
      "midi": 69,
      "hit": false,
      "t": 144876.96708333393,
      "d": 84.52864062500885,
      "v": 78
    },
    {
      "midi": 66,
      "hit": false,
      "t": 144876.96708333393,
      "d": 89.6515885416884,
      "v": 73
    },
    {
      "midi": 38,
      "hit": false,
      "t": 145122.86858333394,
      "d": 345.7989843749965,
      "v": 74
    },
    {
      "midi": 66,
      "hit": false,
      "t": 145368.77008333395,
      "d": 87.09011458331952,
      "v": 76
    },
    {
      "midi": 69,
      "hit": false,
      "t": 145368.77008333395,
      "d": 87.09011458331952,
      "v": 76
    },
    {
      "midi": 45,
      "hit": false,
      "t": 145614.67158333393,
      "d": 343.23751041665673,
      "v": 74
    },
    {
      "midi": 69,
      "hit": false,
      "t": 145860.57308333393,
      "d": 81.96716666666907,
      "v": 76
    },
    {
      "midi": 66,
      "hit": false,
      "t": 145860.57308333393,
      "d": 89.6515885416593,
      "v": 73
    },
    {
      "midi": 38,
      "hit": false,
      "t": 146106.4745833339,
      "d": 356.0448802083556,
      "v": 78
    },
    {
      "midi": 69,
      "hit": false,
      "t": 146352.37608333392,
      "d": 76.84421874998952,
      "v": 77
    },
    {
      "midi": 66,
      "hit": false,
      "t": 146352.37608333392,
      "d": 81.96716666666907,
      "v": 74
    },
    {
      "midi": 45,
      "hit": false,
      "t": 146598.27758333393,
      "d": 332.99161458335584,
      "v": 77
    },
    {
      "midi": 69,
      "hit": false,
      "t": 146844.17908333393,
      "d": 76.84421874998952,
      "v": 71
    },
    {
      "midi": 66,
      "hit": false,
      "t": 146844.17908333393,
      "d": 81.96716666666907,
      "v": 72
    },
    {
      "midi": 38,
      "hit": false,
      "t": 147090.08058333394,
      "d": 317.6227708333463,
      "v": 75
    },
    {
      "midi": 69,
      "hit": false,
      "t": 147335.98208333395,
      "d": 74.28274479167885,
      "v": 77
    },
    {
      "midi": 66,
      "hit": false,
      "t": 147335.98208333395,
      "d": 84.52864062500885,
      "v": 72
    },
    {
      "midi": 43,
      "hit": false,
      "t": 147581.88358333395,
      "d": 307.3768750000163,
      "v": 76
    },
    {
      "midi": 62,
      "hit": false,
      "t": 147827.78508333396,
      "d": 74.28274479167885,
      "v": 74
    },
    {
      "midi": 67,
      "hit": false,
      "t": 147827.78508333396,
      "d": 84.52864062500885,
      "v": 78
    },
    {
      "midi": 38,
      "hit": false,
      "t": 148073.68658333397,
      "d": 312.49982291666674,
      "v": 76
    },
    {
      "midi": 62,
      "hit": false,
      "t": 148319.58808333398,
      "d": 87.09011458331952,
      "v": 74
    },
    {
      "midi": 67,
      "hit": false,
      "t": 148319.58808333398,
      "d": 89.6515885416593,
      "v": 74
    },
    {
      "midi": 43,
      "hit": false,
      "t": 148565.48958333395,
      "d": 174.18022916666814,
      "v": 76
    },
    {
      "midi": 62,
      "hit": false,
      "t": 148811.39108333396,
      "d": 81.96716666666907,
      "v": 74
    },
    {
      "midi": 67,
      "hit": false,
      "t": 148811.39108333396,
      "d": 81.96716666666907,
      "v": 72
    },
    {
      "midi": 38,
      "hit": false,
      "t": 148811.39108333396,
      "d": 194.67202083332813,
      "v": 78
    },
    {
      "midi": 40,
      "hit": false,
      "t": 149057.29258333397,
      "d": 225.40970833334723,
      "v": 75
    },
    {
      "midi": 62,
      "hit": false,
      "t": 149303.19408333398,
      "d": 69.1597968749993,
      "v": 71
    },
    {
      "midi": 67,
      "hit": false,
      "t": 149303.19408333398,
      "d": 81.96716666666907,
      "v": 69
    },
    {
      "midi": 42,
      "hit": false,
      "t": 149303.19408333398,
      "d": 163.93433333333815,
      "v": 76
    },
    {
      "midi": 62,
      "hit": false,
      "t": 149549.09558333328,
      "d": 486.6800520833349,
      "v": 1
    },
    {
      "midi": 59,
      "hit": false,
      "t": 149549.09558333328,
      "d": 1962.0890520833782,
      "v": 1
    },
    {
      "midi": 43,
      "hit": false,
      "t": 149549.09558333398,
      "d": 258.708869791677,
      "v": 76
    },
    {
      "midi": 62,
      "hit": false,
      "t": 149794.997083334,
      "d": 71.72127083333908,
      "v": 69
    },
    {
      "midi": 67,
      "hit": false,
      "t": 149794.997083334,
      "d": 79.4056927083293,
      "v": 74
    },
    {
      "midi": 43,
      "hit": false,
      "t": 149917.94783333398,
      "d": 71.72127083333908,
      "v": 70
    },
    {
      "midi": 67,
      "hit": false,
      "t": 150040.8985833333,
      "d": 240.77855208332767,
      "v": 1
    },
    {
      "midi": 38,
      "hit": false,
      "t": 150040.898583334,
      "d": 309.93834895832697,
      "v": 77
    },
    {
      "midi": 62,
      "hit": false,
      "t": 150286.8000833333,
      "d": 240.77855208332767,
      "v": 1
    },
    {
      "midi": 62,
      "hit": false,
      "t": 150286.800083334,
      "d": 76.84421874998952,
      "v": 70
    },
    {
      "midi": 67,
      "hit": false,
      "t": 150286.800083334,
      "d": 87.09011458331952,
      "v": 69
    },
    {
      "midi": 64,
      "hit": false,
      "t": 150532.7015833333,
      "d": 486.6800520833349,
      "v": 1
    },
    {
      "midi": 43,
      "hit": false,
      "t": 150532.70158333398,
      "d": 258.708869791677,
      "v": 76
    },
    {
      "midi": 62,
      "hit": false,
      "t": 150778.603083334,
      "d": 69.1597968749993,
      "v": 69
    },
    {
      "midi": 67,
      "hit": false,
      "t": 150778.603083334,
      "d": 76.84421874998952,
      "v": 77
    },
    {
      "midi": 43,
      "hit": false,
      "t": 150901.55383333398,
      "d": 112.70485416665906,
      "v": 75
    },
    {
      "midi": 67,
      "hit": false,
      "t": 151024.50458333333,
      "d": 486.6800520833349,
      "v": 1
    },
    {
      "midi": 38,
      "hit": false,
      "t": 151024.50458333397,
      "d": 338.1145625000063,
      "v": 74
    },
    {
      "midi": 62,
      "hit": false,
      "t": 151270.40608333398,
      "d": 71.72127083333908,
      "v": 70
    },
    {
      "midi": 67,
      "hit": false,
      "t": 151270.40608333398,
      "d": 79.4056927083293,
      "v": 74
    },
    {
      "midi": 66,
      "hit": false,
      "t": 151516.30758333334,
      "d": 978.4830520833202,
      "v": 1
    },
    {
      "midi": 60,
      "hit": false,
      "t": 151516.30758333334,
      "d": 1962.08905208332,
      "v": 1
    },
    {
      "midi": 45,
      "hit": false,
      "t": 151516.30758333398,
      "d": 261.27034375001676,
      "v": 76
    },
    {
      "midi": 69,
      "hit": false,
      "t": 151762.209083334,
      "d": 81.96716666666907,
      "v": 73
    },
    {
      "midi": 66,
      "hit": false,
      "t": 151762.209083334,
      "d": 89.6515885416593,
      "v": 74
    },
    {
      "midi": 45,
      "hit": false,
      "t": 151885.15983333398,
      "d": 69.1597968749993,
      "v": 69
    },
    {
      "midi": 38,
      "hit": false,
      "t": 152008.11058333397,
      "d": 325.3071927083365,
      "v": 72
    },
    {
      "midi": 69,
      "hit": false,
      "t": 152254.01208333398,
      "d": 81.96716666666907,
      "v": 73
    },
    {
      "midi": 66,
      "hit": false,
      "t": 152254.01208333398,
      "d": 87.09011458334862,
      "v": 72
    },
    {
      "midi": 72,
      "hit": false,
      "t": 152499.91358333334,
      "d": 978.4830520833202,
      "v": 1
    },
    {
      "midi": 45,
      "hit": false,
      "t": 152499.91358333398,
      "d": 235.65560416667722,
      "v": 77
    },
    {
      "midi": 66,
      "hit": false,
      "t": 152745.815083334,
      "d": 79.4056927083293,
      "v": 69
    },
    {
      "midi": 69,
      "hit": false,
      "t": 152745.815083334,
      "d": 79.4056927083293,
      "v": 69
    },
    {
      "midi": 45,
      "hit": false,
      "t": 152868.76583333398,
      "d": 71.72127083333908,
      "v": 74
    },
    {
      "midi": 38,
      "hit": false,
      "t": 152991.716583334,
      "d": 332.99161458332674,
      "v": 74
    },
    {
      "midi": 69,
      "hit": false,
      "t": 153237.618083334,
      "d": 61.47537500000908,
      "v": 72
    },
    {
      "midi": 66,
      "hit": false,
      "t": 153237.618083334,
      "d": 79.4056927083293,
      "v": 75
    },
    {
      "midi": 62,
      "hit": false,
      "t": 153483.51958333334,
      "d": 486.6800520833349,
      "v": 1
    },
    {
      "midi": 60,
      "hit": false,
      "t": 153483.51958333334,
      "d": 1962.0890520833782,
      "v": 1
    },
    {
      "midi": 45,
      "hit": false,
      "t": 153483.51958333398,
      "d": 253.58592187499744,
      "v": 73
    },
    {
      "midi": 69,
      "hit": false,
      "t": 153729.421083334,
      "d": 81.96716666666907,
      "v": 75
    },
    {
      "midi": 66,
      "hit": false,
      "t": 153729.421083334,
      "d": 84.52864062500885,
      "v": 75
    },
    {
      "midi": 45,
      "hit": false,
      "t": 153852.371833334,
      "d": 66.59832291665953,
      "v": 70
    },
    {
      "midi": 66,
      "hit": false,
      "t": 153975.32258333336,
      "d": 240.77855208332767,
      "v": 1
    },
    {
      "midi": 38,
      "hit": false,
      "t": 153975.322583334,
      "d": 327.8686666666763,
      "v": 71
    },
    {
      "midi": 62,
      "hit": false,
      "t": 154221.22408333336,
      "d": 240.77855208332767,
      "v": 1
    },
    {
      "midi": 66,
      "hit": false,
      "t": 154221.224083334,
      "d": 81.96716666666907,
      "v": 79
    },
    {
      "midi": 69,
      "hit": false,
      "t": 154221.224083334,
      "d": 81.96716666666907,
      "v": 70
    },
    {
      "midi": 64,
      "hit": false,
      "t": 154467.12558333337,
      "d": 486.6800520833349,
      "v": 1
    },
    {
      "midi": 45,
      "hit": false,
      "t": 154467.125583334,
      "d": 240.77855208332767,
      "v": 70
    },
    {
      "midi": 69,
      "hit": false,
      "t": 154713.02708333402,
      "d": 71.72127083333908,
      "v": 77
    },
    {
      "midi": 66,
      "hit": false,
      "t": 154713.02708333402,
      "d": 81.96716666666907,
      "v": 77
    },
    {
      "midi": 45,
      "hit": false,
      "t": 154835.977833334,
      "d": 61.47537500000908,
      "v": 73
    },
    {
      "midi": 66,
      "hit": false,
      "t": 154958.92858333339,
      "d": 486.6800520833349,
      "v": 1
    },
    {
      "midi": 38,
      "hit": false,
      "t": 154958.92858333403,
      "d": 294.5695052083465,
      "v": 73
    },
    {
      "midi": 69,
      "hit": false,
      "t": 155204.83008333403,
      "d": 71.72127083333908,
      "v": 70
    },
    {
      "midi": 66,
      "hit": false,
      "t": 155204.83008333403,
      "d": 76.84421875001863,
      "v": 71
    },
    {
      "midi": 62,
      "hit": false,
      "t": 155450.7315833334,
      "d": 732.5815520833421,
      "v": 1
    },
    {
      "midi": 59,
      "hit": false,
      "t": 155450.7315833334,
      "d": 1962.089052083349,
      "v": 1
    },
    {
      "midi": 43,
      "hit": false,
      "t": 155450.73158333404,
      "d": 251.02444791668677,
      "v": 75
    },
    {
      "midi": 67,
      "hit": false,
      "t": 155696.63308333405,
      "d": 81.96716666666907,
      "v": 72
    },
    {
      "midi": 62,
      "hit": false,
      "t": 155696.63308333405,
      "d": 84.52864062500885,
      "v": 75
    },
    {
      "midi": 43,
      "hit": false,
      "t": 155819.58383333407,
      "d": 81.96716666666907,
      "v": 70
    },
    {
      "midi": 38,
      "hit": false,
      "t": 155942.53458333405,
      "d": 307.3768750000163,
      "v": 69
    },
    {
      "midi": 71,
      "hit": false,
      "t": 156188.43608333342,
      "d": 1224.3845520833274,
      "v": 1
    },
    {
      "midi": 62,
      "hit": false,
      "t": 156188.43608333406,
      "d": 61.47537500000908,
      "v": 77
    },
    {
      "midi": 67,
      "hit": false,
      "t": 156188.43608333406,
      "d": 76.84421875001863,
      "v": 72
    },
    {
      "midi": 43,
      "hit": false,
      "t": 156434.33758333407,
      "d": 238.2170781249879,
      "v": 76
    },
    {
      "midi": 62,
      "hit": false,
      "t": 156680.23908333405,
      "d": 66.59832291665953,
      "v": 77
    },
    {
      "midi": 67,
      "hit": false,
      "t": 156680.23908333405,
      "d": 76.84421874998952,
      "v": 74
    },
    {
      "midi": 43,
      "hit": false,
      "t": 156803.18983333404,
      "d": 76.84421874998952,
      "v": 77
    },
    {
      "midi": 38,
      "hit": false,
      "t": 156926.14058333402,
      "d": 276.6391874999972,
      "v": 71
    },
    {
      "midi": 62,
      "hit": false,
      "t": 157172.04208333403,
      "d": 53.790953124989755,
      "v": 72
    },
    {
      "midi": 67,
      "hit": false,
      "t": 157172.04208333403,
      "d": 69.1597968749993,
      "v": 78
    },
    {
      "midi": 62,
      "hit": false,
      "t": 157663.84508333402,
      "d": 64.03684895831975,
      "v": 71
    },
    {
      "midi": 67,
      "hit": false,
      "t": 157663.84508333402,
      "d": 74.28274479164975,
      "v": 74
    },
    {
      "midi": 62,
      "hit": false,
      "t": 158155.648083334,
      "d": 71.72127083333908,
      "v": 74
    },
    {
      "midi": 67,
      "hit": false,
      "t": 158155.648083334,
      "d": 71.72127083333908,
      "v": 75
    },
    {
      "midi": 62,
      "hit": false,
      "t": 165286.79158333343,
      "d": 486.6800520833349,
      "v": 1
    },
    {
      "midi": 59,
      "hit": false,
      "t": 165286.79158333343,
      "d": 1962.0890520833782,
      "v": 1
    },
    {
      "midi": 62,
      "hit": false,
      "t": 165532.69308333402,
      "d": 61.47537500000908,
      "v": 69
    },
    {
      "midi": 67,
      "hit": false,
      "t": 165532.69308333402,
      "d": 71.72127083333908,
      "v": 78
    },
    {
      "midi": 67,
      "hit": false,
      "t": 165778.59458333344,
      "d": 240.77855208332767,
      "v": 1
    },
    {
      "midi": 62,
      "hit": false,
      "t": 166024.49608333345,
      "d": 240.77855208332767,
      "v": 1
    },
    {
      "midi": 67,
      "hit": false,
      "t": 166024.49608333403,
      "d": 74.28274479167885,
      "v": 75
    },
    {
      "midi": 62,
      "hit": false,
      "t": 166024.49608333403,
      "d": 76.84421875001863,
      "v": 78
    },
    {
      "midi": 64,
      "hit": false,
      "t": 166270.39758333346,
      "d": 486.6800520833349,
      "v": 1
    },
    {
      "midi": 62,
      "hit": false,
      "t": 166516.29908333404,
      "d": 76.84421874998952,
      "v": 75
    },
    {
      "midi": 67,
      "hit": false,
      "t": 166516.29908333404,
      "d": 81.96716666666907,
      "v": 72
    },
    {
      "midi": 67,
      "hit": false,
      "t": 166762.20058333347,
      "d": 486.6800520833349,
      "v": 1
    },
    {
      "midi": 62,
      "hit": false,
      "t": 167008.10208333406,
      "d": 79.4056927083293,
      "v": 74
    },
    {
      "midi": 67,
      "hit": false,
      "t": 167008.10208333406,
      "d": 102.45895833332906,
      "v": 74
    },
    {
      "midi": 66,
      "hit": false,
      "t": 167254.00358333348,
      "d": 978.4830520833202,
      "v": 1
    },
    {
      "midi": 60,
      "hit": false,
      "t": 167254.00358333348,
      "d": 1962.08905208332,
      "v": 1
    },
    {
      "midi": 66,
      "hit": false,
      "t": 167499.90508333404,
      "d": 84.52864062500885,
      "v": 75
    },
    {
      "midi": 69,
      "hit": false,
      "t": 167499.90508333404,
      "d": 87.09011458334862,
      "v": 79
    },
    {
      "midi": 69,
      "hit": false,
      "t": 167991.70808333406,
      "d": 74.28274479167885,
      "v": 74
    },
    {
      "midi": 66,
      "hit": false,
      "t": 167991.70808333406,
      "d": 87.09011458334862,
      "v": 76
    },
    {
      "midi": 72,
      "hit": false,
      "t": 168237.60958333348,
      "d": 978.4830520833202,
      "v": 1
    },
    {
      "midi": 69,
      "hit": false,
      "t": 168483.51108333407,
      "d": 79.4056927083293,
      "v": 77
    },
    {
      "midi": 66,
      "hit": false,
      "t": 168483.51108333407,
      "d": 87.09011458331952,
      "v": 72
    },
    {
      "midi": 69,
      "hit": false,
      "t": 168975.31408333406,
      "d": 74.28274479167885,
      "v": 70
    },
    {
      "midi": 66,
      "hit": false,
      "t": 168975.31408333406,
      "d": 84.52864062500885,
      "v": 73
    },
    {
      "midi": 62,
      "hit": false,
      "t": 169221.21558333348,
      "d": 486.6800520833349,
      "v": 1
    },
    {
      "midi": 60,
      "hit": false,
      "t": 169221.21558333348,
      "d": 1962.0890520833782,
      "v": 1
    },
    {
      "midi": 69,
      "hit": false,
      "t": 169467.11708333407,
      "d": 71.72127083333908,
      "v": 70
    },
    {
      "midi": 66,
      "hit": false,
      "t": 169467.11708333407,
      "d": 87.09011458334862,
      "v": 73
    },
    {
      "midi": 66,
      "hit": false,
      "t": 169713.0185833335,
      "d": 240.77855208332767,
      "v": 1
    },
    {
      "midi": 62,
      "hit": false,
      "t": 169958.9200833335,
      "d": 240.77855208332767,
      "v": 1
    },
    {
      "midi": 69,
      "hit": false,
      "t": 169958.9200833341,
      "d": 76.84421874998952,
      "v": 73
    },
    {
      "midi": 66,
      "hit": false,
      "t": 169958.9200833341,
      "d": 89.6515885416593,
      "v": 72
    },
    {
      "midi": 64,
      "hit": false,
      "t": 170204.8215833335,
      "d": 486.6800520833349,
      "v": 1
    },
    {
      "midi": 69,
      "hit": false,
      "t": 170450.72308333407,
      "d": 76.84421874998952,
      "v": 76
    },
    {
      "midi": 66,
      "hit": false,
      "t": 170450.72308333407,
      "d": 79.4056927083293,
      "v": 70
    },
    {
      "midi": 66,
      "hit": false,
      "t": 170696.62458333353,
      "d": 486.6800520833349,
      "v": 1
    },
    {
      "midi": 66,
      "hit": false,
      "t": 170942.52608333406,
      "d": 64.03684895831975,
      "v": 70
    },
    {
      "midi": 69,
      "hit": false,
      "t": 170942.52608333406,
      "d": 81.96716666663997,
      "v": 70
    },
    {
      "midi": 62,
      "hit": false,
      "t": 171188.42758333354,
      "d": 732.5815520833421,
      "v": 1
    },
    {
      "midi": 59,
      "hit": false,
      "t": 171188.42758333354,
      "d": 1962.089052083349,
      "v": 1
    },
    {
      "midi": 62,
      "hit": false,
      "t": 171434.32908333404,
      "d": 71.72127083333908,
      "v": 70
    },
    {
      "midi": 67,
      "hit": false,
      "t": 171434.32908333404,
      "d": 92.21306249999907,
      "v": 69
    },
    {
      "midi": 71,
      "hit": false,
      "t": 171926.13208333356,
      "d": 1224.3845520833274,
      "v": 1
    },
    {
      "midi": 62,
      "hit": false,
      "t": 171926.13208333403,
      "d": 66.59832291665953,
      "v": 74
    },
    {
      "midi": 67,
      "hit": false,
      "t": 171926.13208333403,
      "d": 81.96716666666907,
      "v": 70
    },
    {
      "midi": 62,
      "hit": false,
      "t": 172417.93508333404,
      "d": 64.03684895831975,
      "v": 76
    },
    {
      "midi": 67,
      "hit": false,
      "t": 172417.93508333404,
      "d": 71.72127083330997,
      "v": 78
    },
    {
      "midi": 67,
      "hit": false,
      "t": 172909.73808333403,
      "d": 61.47537500000908,
      "v": 71
    },
    {
      "midi": 62,
      "hit": false,
      "t": 172909.73808333403,
      "d": 66.59832291668863,
      "v": 72
    },
    {
      "midi": 62,
      "hit": false,
      "t": 173401.54108333404,
      "d": 71.72127083333908,
      "v": 74
    },
    {
      "midi": 67,
      "hit": false,
      "t": 173401.54108333404,
      "d": 87.09011458334862,
      "v": 75
    },
    {
      "midi": 62,
      "hit": false,
      "t": 173893.34408333406,
      "d": 74.28274479167885,
      "v": 70
    },
    {
      "midi": 67,
      "hit": false,
      "t": 173893.34408333406,
      "d": 87.09011458334862,
      "v": 73
    },
    {
      "midi": 62,
      "hit": false,
      "t": 174385.14708333407,
      "d": 87.09011458331952,
      "v": 77
    },
    {
      "midi": 67,
      "hit": false,
      "t": 174385.14708333407,
      "d": 94.77453645830974,
      "v": 69
    },
    {
      "midi": 62,
      "hit": false,
      "t": 174876.95008333406,
      "d": 76.84421874998952,
      "v": 76
    },
    {
      "midi": 67,
      "hit": false,
      "t": 174876.95008333406,
      "d": 76.84421874998952,
      "v": 72
    },
    {
      "midi": 69,
      "hit": false,
      "t": 175368.75308333404,
      "d": 76.84421874998952,
      "v": 74
    },
    {
      "midi": 66,
      "hit": false,
      "t": 175368.75308333404,
      "d": 84.52864062497974,
      "v": 73
    },
    {
      "midi": 69,
      "hit": false,
      "t": 175860.55608333403,
      "d": 71.72127083333908,
      "v": 78
    },
    {
      "midi": 66,
      "hit": false,
      "t": 175860.55608333403,
      "d": 87.09011458334862,
      "v": 77
    },
    {
      "midi": 69,
      "hit": false,
      "t": 176352.35908333404,
      "d": 79.4056927083293,
      "v": 77
    },
    {
      "midi": 66,
      "hit": false,
      "t": 176352.35908333404,
      "d": 87.09011458331952,
      "v": 72
    },
    {
      "midi": 66,
      "hit": false,
      "t": 176844.16208333403,
      "d": 81.96716666666907,
      "v": 71
    },
    {
      "midi": 69,
      "hit": false,
      "t": 176844.16208333403,
      "d": 87.09011458334862,
      "v": 79
    },
    {
      "midi": 66,
      "hit": false,
      "t": 177335.96508333404,
      "d": 79.4056927083293,
      "v": 73
    },
    {
      "midi": 69,
      "hit": false,
      "t": 177335.96508333404,
      "d": 84.52864062500885,
      "v": 73
    },
    {
      "midi": 66,
      "hit": false,
      "t": 177827.76808333406,
      "d": 66.59832291665953,
      "v": 73
    },
    {
      "midi": 69,
      "hit": false,
      "t": 177827.76808333406,
      "d": 84.52864062497974,
      "v": 74
    },
    {
      "midi": 69,
      "hit": false,
      "t": 178319.57108333404,
      "d": 74.28274479167885,
      "v": 70
    },
    {
      "midi": 66,
      "hit": false,
      "t": 178319.57108333404,
      "d": 76.84421875001863,
      "v": 77
    },
    {
      "midi": 69,
      "hit": false,
      "t": 178811.37408333406,
      "d": 71.72127083333908,
      "v": 69
    },
    {
      "midi": 66,
      "hit": false,
      "t": 178811.37408333406,
      "d": 76.84421875001863,
      "v": 72
    },
    {
      "midi": 62,
      "hit": false,
      "t": 179303.17708333407,
      "d": 56.35242708332953,
      "v": 72
    },
    {
      "midi": 67,
      "hit": false,
      "t": 179303.17708333407,
      "d": 74.28274479164975,
      "v": 71
    },
    {
      "midi": 62,
      "hit": false,
      "t": 179794.98008333406,
      "d": 69.1597968749993,
      "v": 75
    },
    {
      "midi": 67,
      "hit": false,
      "t": 179794.98008333406,
      "d": 71.72127083333908,
      "v": 77
    },
    {
      "midi": 67,
      "hit": false,
      "t": 180286.78308333407,
      "d": 53.790953124989755,
      "v": 75
    },
    {
      "midi": 62,
      "hit": false,
      "t": 180286.78308333407,
      "d": 61.47537499997998,
      "v": 70
    },
    {
      "midi": 62,
      "hit": false,
      "t": 180778.58608333406,
      "d": 61.47537500000908,
      "v": 69
    },
    {
      "midi": 67,
      "hit": false,
      "t": 180778.58608333406,
      "d": 61.47537500000908,
      "v": 72
    },
    {
      "midi": 62,
      "hit": false,
      "t": 181024.48758333357,
      "d": 486.6800520833349,
      "v": 1
    },
    {
      "midi": 59,
      "hit": false,
      "t": 181024.48758333357,
      "d": 1962.0890520833782,
      "v": 1
    },
    {
      "midi": 67,
      "hit": false,
      "t": 181270.38908333407,
      "d": 56.35242708332953,
      "v": 75
    },
    {
      "midi": 62,
      "hit": false,
      "t": 181270.38908333407,
      "d": 61.47537500000908,
      "v": 78
    },
    {
      "midi": 67,
      "hit": false,
      "t": 181516.29058333358,
      "d": 240.77855208332767,
      "v": 1
    },
    {
      "midi": 62,
      "hit": false,
      "t": 181762.1920833336,
      "d": 240.77855208332767,
      "v": 1
    },
    {
      "midi": 62,
      "hit": false,
      "t": 181762.19208333408,
      "d": 48.66800520833931,
      "v": 70
    },
    {
      "midi": 67,
      "hit": false,
      "t": 181762.19208333408,
      "d": 61.47537500000908,
      "v": 75
    },
    {
      "midi": 64,
      "hit": false,
      "t": 182008.0935833336,
      "d": 486.6800520833349,
      "v": 1
    },
    {
      "midi": 62,
      "hit": false,
      "t": 182253.9950833341,
      "d": 46.106531249999534,
      "v": 69
    },
    {
      "midi": 67,
      "hit": false,
      "t": 182253.9950833341,
      "d": 66.59832291665953,
      "v": 70
    },
    {
      "midi": 67,
      "hit": false,
      "t": 182499.8965833336,
      "d": 486.6800520833349,
      "v": 1
    },
    {
      "midi": 62,
      "hit": false,
      "t": 182745.79808333408,
      "d": 56.35242708332953,
      "v": 78
    },
    {
      "midi": 67,
      "hit": false,
      "t": 182745.79808333408,
      "d": 56.35242708332953,
      "v": 73
    },
    {
      "midi": 66,
      "hit": false,
      "t": 182991.69958333363,
      "d": 978.4830520833202,
      "v": 1
    },
    {
      "midi": 60,
      "hit": false,
      "t": 182991.69958333363,
      "d": 1962.08905208332,
      "v": 1
    },
    {
      "midi": 69,
      "hit": false,
      "t": 183237.60108333407,
      "d": 74.28274479167885,
      "v": 72
    },
    {
      "midi": 66,
      "hit": false,
      "t": 183237.60108333407,
      "d": 76.84421875001863,
      "v": 69
    },
    {
      "midi": 69,
      "hit": false,
      "t": 183729.40408333408,
      "d": 74.28274479167885,
      "v": 76
    },
    {
      "midi": 66,
      "hit": false,
      "t": 183729.40408333408,
      "d": 84.52864062500885,
      "v": 77
    },
    {
      "midi": 72,
      "hit": false,
      "t": 183975.30558333363,
      "d": 978.4830520833202,
      "v": 1
    },
    {
      "midi": 66,
      "hit": false,
      "t": 184221.2070833341,
      "d": 74.28274479167885,
      "v": 70
    },
    {
      "midi": 69,
      "hit": false,
      "t": 184221.2070833341,
      "d": 81.96716666666907,
      "v": 71
    },
    {
      "midi": 69,
      "hit": false,
      "t": 184713.0100833341,
      "d": 69.1597968749993,
      "v": 71
    },
    {
      "midi": 66,
      "hit": false,
      "t": 184713.0100833341,
      "d": 74.28274479167885,
      "v": 77
    },
    {
      "midi": 62,
      "hit": false,
      "t": 184958.91158333363,
      "d": 486.6800520833349,
      "v": 1
    },
    {
      "midi": 60,
      "hit": false,
      "t": 184958.91158333363,
      "d": 1962.0890520833782,
      "v": 1
    },
    {
      "midi": 69,
      "hit": false,
      "t": 185204.81308333413,
      "d": 71.72127083333908,
      "v": 70
    },
    {
      "midi": 66,
      "hit": false,
      "t": 185204.81308333413,
      "d": 81.96716666666907,
      "v": 71
    },
    {
      "midi": 66,
      "hit": false,
      "t": 185450.71458333364,
      "d": 240.77855208332767,
      "v": 1
    },
    {
      "midi": 62,
      "hit": false,
      "t": 185696.61608333365,
      "d": 240.77855208332767,
      "v": 1
    },
    {
      "midi": 69,
      "hit": false,
      "t": 185696.61608333414,
      "d": 74.28274479167885,
      "v": 78
    },
    {
      "midi": 66,
      "hit": false,
      "t": 185696.61608333414,
      "d": 81.96716666666907,
      "v": 72
    },
    {
      "midi": 64,
      "hit": false,
      "t": 185942.51758333365,
      "d": 486.6800520833349,
      "v": 1
    },
    {
      "midi": 66,
      "hit": false,
      "t": 186188.41908333416,
      "d": 64.03684895831975,
      "v": 73
    },
    {
      "midi": 69,
      "hit": false,
      "t": 186188.41908333416,
      "d": 84.52864062497974,
      "v": 78
    },
    {
      "midi": 66,
      "hit": false,
      "t": 186434.32058333367,
      "d": 486.6800520833349,
      "v": 1
    },
    {
      "midi": 66,
      "hit": false,
      "t": 186680.22208333414,
      "d": 61.47537500000908,
      "v": 73
    },
    {
      "midi": 69,
      "hit": false,
      "t": 186680.22208333414,
      "d": 74.28274479167885,
      "v": 73
    },
    {
      "midi": 62,
      "hit": false,
      "t": 186926.12358333368,
      "d": 732.5815520833421,
      "v": 1
    },
    {
      "midi": 59,
      "hit": false,
      "t": 186926.12358333368,
      "d": 1962.089052083349,
      "v": 1
    },
    {
      "midi": 62,
      "hit": false,
      "t": 187172.02508333416,
      "d": 58.913901041669305,
      "v": 73
    },
    {
      "midi": 67,
      "hit": false,
      "t": 187172.02508333416,
      "d": 76.84421874998952,
      "v": 77
    },
    {
      "midi": 71,
      "hit": false,
      "t": 187663.8280833337,
      "d": 1224.3845520833274,
      "v": 1
    },
    {
      "midi": 67,
      "hit": false,
      "t": 187663.82808333414,
      "d": 46.106531249999534,
      "v": 77
    },
    {
      "midi": 62,
      "hit": false,
      "t": 187663.82808333414,
      "d": 66.59832291665953,
      "v": 74
    },
    {
      "midi": 67,
      "hit": false,
      "t": 188155.63108333413,
      "d": 48.66800520833931,
      "v": 76
    },
    {
      "midi": 62,
      "hit": false,
      "t": 188155.63108333413,
      "d": 64.03684895834886,
      "v": 73
    },
    {
      "midi": 67,
      "hit": false,
      "t": 188647.43408333414,
      "d": 46.106531249999534,
      "v": 76
    },
    {
      "midi": 62,
      "hit": false,
      "t": 188647.43408333414,
      "d": 61.47537500000908,
      "v": 74
    },
    {
      "midi": 67,
      "hit": false,
      "t": 188893.3355833337,
      "d": 978.4830520833202,
      "v": 1
    },
    {
      "midi": 71,
      "hit": false,
      "t": 188893.3355833337,
      "d": 1470.2860520833347,
      "v": 1
    },
    {
      "midi": 65,
      "hit": false,
      "t": 189876.9415833337,
      "d": 978.4830520833493,
      "v": 1
    },
    {
      "midi": 70,
      "hit": false,
      "t": 190368.74458333373,
      "d": 240.77855208332767,
      "v": 1
    },
    {
      "midi": 71,
      "hit": false,
      "t": 190614.64608333373,
      "d": 240.77855208332767,
      "v": 1
    },
    {
      "midi": 74,
      "hit": false,
      "t": 190860.54758333374,
      "d": 240.77855208332767,
      "v": 1
    },
    {
      "midi": 64,
      "hit": false,
      "t": 190860.54758333374,
      "d": 978.4830520833493,
      "v": 1
    },
    {
      "midi": 74,
      "hit": false,
      "t": 191106.44908333375,
      "d": 486.6800520833349,
      "v": 1
    },
    {
      "midi": 72,
      "hit": false,
      "t": 191598.25208333376,
      "d": 1224.3845520833274,
      "v": 1
    },
    {
      "midi": 63,
      "hit": false,
      "t": 191844.15358333377,
      "d": 978.4830520833202,
      "v": 1
    },
    {
      "midi": 62,
      "hit": false,
      "t": 192827.75958333377,
      "d": 978.4830520833202,
      "v": 1
    },
    {
      "midi": 71,
      "hit": false,
      "t": 192827.75958333377,
      "d": 978.4830520833202,
      "v": 1
    },
    {
      "midi": 60,
      "hit": false,
      "t": 193811.36558333377,
      "d": 978.4830520833202,
      "v": 1
    },
    {
      "midi": 69,
      "hit": false,
      "t": 193811.36558333377,
      "d": 978.4830520833202,
      "v": 1
    },
    {
      "midi": 59,
      "hit": false,
      "t": 194794.97158333377,
      "d": 1962.08905208332,
      "v": 1
    },
    {
      "midi": 67,
      "hit": false,
      "t": 194794.97158333377,
      "d": 1962.08905208332,
      "v": 1
    },
    {
      "midi": 56,
      "hit": false,
      "t": 196762.18358333415,
      "d": 133.19664583331905,
      "v": 71
    },
    {
      "midi": 68,
      "hit": false,
      "t": 197008.08508333412,
      "d": 102.45895833332906,
      "v": 69
    },
    {
      "midi": 63,
      "hit": false,
      "t": 197008.08508333412,
      "d": 110.14338020831929,
      "v": 69
    },
    {
      "midi": 51,
      "hit": false,
      "t": 197253.9865833341,
      "d": 169.0572812499886,
      "v": 71
    },
    {
      "midi": 68,
      "hit": false,
      "t": 197499.88808333408,
      "d": 115.26632812499884,
      "v": 74
    },
    {
      "midi": 63,
      "hit": false,
      "t": 197499.88808333408,
      "d": 117.82780208333861,
      "v": 69
    },
    {
      "midi": 56,
      "hit": false,
      "t": 197745.7895833341,
      "d": 202.35644270834746,
      "v": 78
    },
    {
      "midi": 68,
      "hit": false,
      "t": 197991.6910833341,
      "d": 133.19664583331905,
      "v": 74
    },
    {
      "midi": 63,
      "hit": false,
      "t": 197991.6910833341,
      "d": 135.75811979165883,
      "v": 78
    },
    {
      "midi": 60,
      "hit": false,
      "t": 198237.59258333375,
      "d": 486.6800520833349,
      "v": 1
    },
    {
      "midi": 63,
      "hit": false,
      "t": 198237.59258333375,
      "d": 486.6800520833349,
      "v": 1
    },
    {
      "midi": 51,
      "hit": false,
      "t": 198237.59258333407,
      "d": 210.04086458333768,
      "v": 75
    },
    {
      "midi": 63,
      "hit": false,
      "t": 198483.49408333408,
      "d": 76.84421874998952,
      "v": 76
    },
    {
      "midi": 68,
      "hit": false,
      "t": 198483.49408333408,
      "d": 94.77453645830974,
      "v": 78
    },
    {
      "midi": 61,
      "hit": false,
      "t": 198729.39558333377,
      "d": 978.4830520833202,
      "v": 1
    },
    {
      "midi": 65,
      "hit": false,
      "t": 198729.39558333377,
      "d": 978.4830520833202,
      "v": 1
    },
    {
      "midi": 65,
      "hit": false,
      "t": 199713.00158333377,
      "d": 978.4830520833202,
      "v": 1
    },
    {
      "midi": 73,
      "hit": false,
      "t": 199713.00158333377,
      "d": 978.4830520833202,
      "v": 1
    },
    {
      "midi": 63,
      "hit": false,
      "t": 200696.60758333377,
      "d": 978.4830520833202,
      "v": 1
    },
    {
      "midi": 72,
      "hit": false,
      "t": 200696.60758333377,
      "d": 978.4830520833202,
      "v": 1
    },
    {
      "midi": 60,
      "hit": false,
      "t": 201680.21358333377,
      "d": 732.5815520833421,
      "v": 1
    },
    {
      "midi": 68,
      "hit": false,
      "t": 201680.21358333377,
      "d": 978.4830520833493,
      "v": 1
    },
    {
      "midi": 58,
      "hit": false,
      "t": 202417.9180833338,
      "d": 240.77855208332767,
      "v": 1
    },
    {
      "midi": 63,
      "hit": false,
      "t": 202663.8195833338,
      "d": 978.4830520833202,
      "v": 1
    },
    {
      "midi": 70,
      "hit": false,
      "t": 202663.8195833338,
      "d": 978.4830520833202,
      "v": 1
    },
    {
      "midi": 58,
      "hit": false,
      "t": 203647.4255833338,
      "d": 732.5815520833421,
      "v": 1
    },
    {
      "midi": 67,
      "hit": false,
      "t": 203647.4255833338,
      "d": 732.5815520833421,
      "v": 1
    },
    {
      "midi": 56,
      "hit": false,
      "t": 204385.13008333382,
      "d": 240.77855208332767,
      "v": 1
    },
    {
      "midi": 63,
      "hit": false,
      "t": 204385.13008333382,
      "d": 240.77855208332767,
      "v": 1
    },
    {
      "midi": 63,
      "hit": false,
      "t": 204631.03158333382,
      "d": 978.4830520833202,
      "v": 1
    },
    {
      "midi": 72,
      "hit": false,
      "t": 204631.03158333382,
      "d": 978.4830520833202,
      "v": 1
    },
    {
      "midi": 68,
      "hit": false,
      "t": 205614.63758333382,
      "d": 486.6800520833349,
      "v": 1
    },
    {
      "midi": 60,
      "hit": false,
      "t": 205614.63758333382,
      "d": 978.4830520833493,
      "v": 1
    },
    {
      "midi": 63,
      "hit": false,
      "t": 206106.44058333384,
      "d": 486.6800520833349,
      "v": 1
    },
    {
      "midi": 61,
      "hit": false,
      "t": 206598.24358333385,
      "d": 978.4830520833202,
      "v": 1
    },
    {
      "midi": 65,
      "hit": false,
      "t": 206598.24358333385,
      "d": 978.4830520833202,
      "v": 1
    },
    {
      "midi": 65,
      "hit": false,
      "t": 207581.84958333385,
      "d": 978.4830520833202,
      "v": 1
    },
    {
      "midi": 73,
      "hit": false,
      "t": 207581.84958333385,
      "d": 978.4830520833202,
      "v": 1
    },
    {
      "midi": 63,
      "hit": false,
      "t": 208565.45558333385,
      "d": 978.4830520833202,
      "v": 1
    },
    {
      "midi": 72,
      "hit": false,
      "t": 208565.45558333385,
      "d": 978.4830520833202,
      "v": 1
    },
    {
      "midi": 60,
      "hit": false,
      "t": 209549.06158333385,
      "d": 978.4830520833202,
      "v": 1
    },
    {
      "midi": 68,
      "hit": false,
      "t": 209549.06158333385,
      "d": 978.4830520833202,
      "v": 1
    },
    {
      "midi": 58,
      "hit": false,
      "t": 210532.66758333385,
      "d": 978.4830520833202,
      "v": 1
    },
    {
      "midi": 70,
      "hit": false,
      "t": 210532.66758333385,
      "d": 978.4830520833202,
      "v": 1
    },
    {
      "midi": 72,
      "hit": false,
      "t": 211516.27358333385,
      "d": 732.5815520833421,
      "v": 1
    },
    {
      "midi": 63,
      "hit": false,
      "t": 211516.27358333385,
      "d": 2453.8920520833635,
      "v": 1
    },
    {
      "midi": 70,
      "hit": false,
      "t": 212253.97808333387,
      "d": 240.77855208332767,
      "v": 1
    },
    {
      "midi": 68,
      "hit": false,
      "t": 212499.87958333388,
      "d": 1470.2860520833347,
      "v": 1
    },
    {
      "midi": 60,
      "hit": false,
      "t": 213975.2885833339,
      "d": 486.6800520833349,
      "v": 1
    },
    {
      "midi": 63,
      "hit": false,
      "t": 213975.2885833339,
      "d": 486.6800520833349,
      "v": 1
    },
    {
      "midi": 61,
      "hit": false,
      "t": 214467.0915833339,
      "d": 978.4830520833202,
      "v": 1
    },
    {
      "midi": 65,
      "hit": false,
      "t": 214467.0915833339,
      "d": 978.4830520833202,
      "v": 1
    },
    {
      "midi": 65,
      "hit": false,
      "t": 215450.6975833339,
      "d": 978.4830520833202,
      "v": 1
    },
    {
      "midi": 73,
      "hit": false,
      "t": 215450.6975833339,
      "d": 978.4830520833202,
      "v": 1
    },
    {
      "midi": 63,
      "hit": false,
      "t": 216434.3035833339,
      "d": 978.4830520833202,
      "v": 1
    },
    {
      "midi": 72,
      "hit": false,
      "t": 216434.3035833339,
      "d": 978.4830520833202,
      "v": 1
    },
    {
      "midi": 60,
      "hit": false,
      "t": 217417.9095833339,
      "d": 732.5815520833421,
      "v": 1
    },
    {
      "midi": 68,
      "hit": false,
      "t": 217417.9095833339,
      "d": 732.5815520833421,
      "v": 1
    },
    {
      "midi": 58,
      "hit": false,
      "t": 218155.61408333393,
      "d": 240.77855208332767,
      "v": 1
    },
    {
      "midi": 67,
      "hit": false,
      "t": 218155.61408333393,
      "d": 240.77855208332767,
      "v": 1
    },
    {
      "midi": 63,
      "hit": false,
      "t": 218401.51558333394,
      "d": 978.4830520833202,
      "v": 1
    },
    {
      "midi": 70,
      "hit": false,
      "t": 218401.51558333394,
      "d": 978.4830520833202,
      "v": 1
    },
    {
      "midi": 58,
      "hit": false,
      "t": 219385.12158333394,
      "d": 732.5815520833421,
      "v": 1
    },
    {
      "midi": 67,
      "hit": false,
      "t": 219385.12158333394,
      "d": 732.5815520833421,
      "v": 1
    },
    {
      "midi": 56,
      "hit": false,
      "t": 220122.82608333396,
      "d": 240.77855208332767,
      "v": 1
    },
    {
      "midi": 63,
      "hit": false,
      "t": 220122.82608333396,
      "d": 240.77855208332767,
      "v": 1
    },
    {
      "midi": 63,
      "hit": false,
      "t": 220368.72758333397,
      "d": 978.4830520833202,
      "v": 1
    },
    {
      "midi": 72,
      "hit": false,
      "t": 220368.72758333397,
      "d": 978.4830520833202,
      "v": 1
    },
    {
      "midi": 68,
      "hit": false,
      "t": 221352.33358333397,
      "d": 486.6800520833349,
      "v": 1
    },
    {
      "midi": 60,
      "hit": false,
      "t": 221352.33358333397,
      "d": 978.4830520833493,
      "v": 1
    },
    {
      "midi": 63,
      "hit": false,
      "t": 221844.13658333398,
      "d": 486.6800520833349,
      "v": 1
    },
    {
      "midi": 61,
      "hit": false,
      "t": 222335.939583334,
      "d": 978.4830520833202,
      "v": 1
    },
    {
      "midi": 65,
      "hit": false,
      "t": 222335.939583334,
      "d": 978.4830520833202,
      "v": 1
    },
    {
      "midi": 65,
      "hit": false,
      "t": 223319.545583334,
      "d": 978.4830520833202,
      "v": 1
    },
    {
      "midi": 73,
      "hit": false,
      "t": 223319.545583334,
      "d": 978.4830520833202,
      "v": 1
    },
    {
      "midi": 63,
      "hit": false,
      "t": 224303.151583334,
      "d": 978.4830520833202,
      "v": 1
    },
    {
      "midi": 72,
      "hit": false,
      "t": 224303.151583334,
      "d": 978.4830520833202,
      "v": 1
    },
    {
      "midi": 60,
      "hit": false,
      "t": 225286.757583334,
      "d": 732.5815520833421,
      "v": 1
    },
    {
      "midi": 68,
      "hit": false,
      "t": 225286.757583334,
      "d": 732.5815520833421,
      "v": 1
    },
    {
      "midi": 67,
      "hit": false,
      "t": 226024.46208333402,
      "d": 240.77855208332767,
      "v": 1
    },
    {
      "midi": 58,
      "hit": false,
      "t": 226024.46208333402,
      "d": 1224.3845520833274,
      "v": 1
    },
    {
      "midi": 70,
      "hit": false,
      "t": 226270.36358333402,
      "d": 978.4830520833202,
      "v": 1
    },
    {
      "midi": 72,
      "hit": false,
      "t": 227253.96958333402,
      "d": 732.5815520833421,
      "v": 1
    },
    {
      "midi": 63,
      "hit": false,
      "t": 227253.96958333402,
      "d": 978.4830520833493,
      "v": 1
    },
    {
      "midi": 70,
      "hit": false,
      "t": 227991.67408333404,
      "d": 240.77855208332767,
      "v": 1
    },
    {
      "midi": 60,
      "hit": false,
      "t": 228237.57558333405,
      "d": 1839.138302083331,
      "v": 1
    },
    {
      "midi": 68,
      "hit": false,
      "t": 228237.57558333405,
      "d": 1962.08905208332,
      "v": 1
    },
    {
      "midi": 56,
      "hit": false,
      "t": 237090.02958333405,
      "d": 855.5323020833312,
      "v": 1
    },
    {
      "midi": 63,
      "hit": false,
      "t": 237090.02958333405,
      "d": 855.5323020833312,
      "v": 1
    },
    {
      "midi": 68,
      "hit": false,
      "t": 237090.02958333405,
      "d": 855.5323020833312,
      "v": 1
    }
  ]
}