{
  "jsonPath": "World/Vintage Chinese Pop/Sally Yeh/xian-shi-jiu-shi-xian-shi.json",
  "path": "World\\Vintage Chinese Pop\\Sally Yeh\\Xian Shi Jiu Shi Xian Shi.mid",
  "name": "Xian Shi Jiu Shi Xian Shi",
  "difficulty": "Advanced",
  "bpm": 100,
  "notes": [
    {
      "midi": 48,
      "hit": false,
      "t": 7200,
      "d": 4746.875,
      "v": 59
    },
    {
      "midi": 55,
      "hit": false,
      "t": 7200,
      "d": 4746.875,
      "v": 59
    },
    {
      "midi": 60,
      "hit": false,
      "t": 7200,
      "d": 4750,
      "v": 59
    },
    {
      "midi": 62,
      "hit": false,
      "t": 7200,
      "d": 4750,
      "v": 59
    },
    {
      "midi": 64,
      "hit": false,
      "t": 7200,
      "d": 4753.125,
      "v": 59
    },
    {
      "midi": 67,
      "hit": false,
      "t": 7200,
      "d": 4756.25,
      "v": 59
    },
    {
      "midi": 45,
      "hit": false,
      "t": 12009.375,
      "d": 4740.625,
      "v": 59
    },
    {
      "midi": 59,
      "hit": false,
      "t": 12009.375,
      "d": 4740.625,
      "v": 59
    },
    {
      "midi": 60,
      "hit": false,
      "t": 12009.375,
      "d": 4740.625,
      "v": 59
    },
    {
      "midi": 64,
      "hit": false,
      "t": 12009.375,
      "d": 4740.625,
      "v": 59
    },
    {
      "midi": 67,
      "hit": false,
      "t": 12012.5,
      "d": 4737.5,
      "v": 59
    },
    {
      "midi": 50,
      "hit": false,
      "t": 16803.125,
      "d": 4743.75,
      "v": 59
    },
    {
      "midi": 57,
      "hit": false,
      "t": 16803.125,
      "d": 4743.75,
      "v": 59
    },
    {
      "midi": 60,
      "hit": false,
      "t": 16806.25,
      "d": 4743.75,
      "v": 59
    },
    {
      "midi": 62,
      "hit": false,
      "t": 16806.25,
      "d": 4743.75,
      "v": 59
    },
    {
      "midi": 65,
      "hit": false,
      "t": 16806.25,
      "d": 4746.875,
      "v": 59
    },
    {
      "midi": 60,
      "hit": false,
      "t": 21600,
      "d": 900,
      "v": 59
    },
    {
      "midi": 43,
      "hit": false,
      "t": 21600,
      "d": 4746.875,
      "v": 59
    },
    {
      "midi": 57,
      "hit": false,
      "t": 21600,
      "d": 4746.875,
      "v": 59
    },
    {
      "midi": 65,
      "hit": false,
      "t": 21600,
      "d": 4750,
      "v": 59
    },
    {
      "midi": 67,
      "hit": false,
      "t": 21600,
      "d": 4750,
      "v": 59
    },
    {
      "midi": 59,
      "hit": false,
      "t": 22500,
      "d": 3903.125,
      "v": 59
    },
    {
      "midi": 48,
      "hit": false,
      "t": 26406.25,
      "d": 568.75,
      "v": 63
    },
    {
      "midi": 60,
      "hit": false,
      "t": 26409.375,
      "d": 262.5,
      "v": 59
    },
    {
      "midi": 64,
      "hit": false,
      "t": 26409.375,
      "d": 362.5,
      "v": 63
    },
    {
      "midi": 62,
      "hit": false,
      "t": 26428.125,
      "d": 268.75,
      "v": 63
    },
    {
      "midi": 55,
      "hit": false,
      "t": 26700,
      "d": 300,
      "v": 47
    },
    {
      "midi": 67,
      "hit": false,
      "t": 27003.125,
      "d": 1168.75,
      "v": 67
    },
    {
      "midi": 55,
      "hit": false,
      "t": 27300,
      "d": 621.875,
      "v": 59
    },
    {
      "midi": 60,
      "hit": false,
      "t": 27300,
      "d": 850,
      "v": 63
    },
    {
      "midi": 62,
      "hit": false,
      "t": 27303.125,
      "d": 793.75,
      "v": 63
    },
    {
      "midi": 48,
      "hit": false,
      "t": 28200,
      "d": 2621.875,
      "v": 59
    },
    {
      "midi": 55,
      "hit": false,
      "t": 28503.125,
      "d": 671.875,
      "v": 59
    },
    {
      "midi": 60,
      "hit": false,
      "t": 28806.25,
      "d": 390.625,
      "v": 63
    },
    {
      "midi": 67,
      "hit": false,
      "t": 29096.875,
      "d": 1350,
      "v": 67
    },
    {
      "midi": 55,
      "hit": false,
      "t": 29403.125,
      "d": 421.875,
      "v": 51
    },
    {
      "midi": 60,
      "hit": false,
      "t": 29700,
      "d": 371.875,
      "v": 63
    },
    {
      "midi": 62,
      "hit": false,
      "t": 29700,
      "d": 396.875,
      "v": 63
    },
    {
      "midi": 55,
      "hit": false,
      "t": 30000,
      "d": 846.875,
      "v": 47
    },
    {
      "midi": 60,
      "hit": false,
      "t": 30300,
      "d": 446.875,
      "v": 55
    },
    {
      "midi": 62,
      "hit": false,
      "t": 30600,
      "d": 503.125,
      "v": 63
    },
    {
      "midi": 67,
      "hit": false,
      "t": 30903.125,
      "d": 268.75,
      "v": 59
    },
    {
      "midi": 45,
      "hit": false,
      "t": 31206.25,
      "d": 4590.625,
      "v": 63
    },
    {
      "midi": 59,
      "hit": false,
      "t": 31228.125,
      "d": 518.75,
      "v": 63
    },
    {
      "midi": 64,
      "hit": false,
      "t": 31228.125,
      "d": 543.75,
      "v": 63
    },
    {
      "midi": 67,
      "hit": false,
      "t": 31228.125,
      "d": 568.75,
      "v": 55
    },
    {
      "midi": 60,
      "hit": false,
      "t": 31228.125,
      "d": 618.75,
      "v": 63
    },
    {
      "midi": 57,
      "hit": false,
      "t": 32100,
      "d": 475,
      "v": 23
    },
    {
      "midi": 57,
      "hit": false,
      "t": 32700,
      "d": 1846.875,
      "v": 51
    },
    {
      "midi": 64,
      "hit": false,
      "t": 33000,
      "d": 446.875,
      "v": 55
    },
    {
      "midi": 67,
      "hit": false,
      "t": 33300,
      "d": 146.875,
      "v": 35
    },
    {
      "midi": 71,
      "hit": false,
      "t": 33606.25,
      "d": 240.625,
      "v": 63
    },
    {
      "midi": 72,
      "hit": false,
      "t": 33900,
      "d": 421.875,
      "v": 51
    },
    {
      "midi": 64,
      "hit": false,
      "t": 34200,
      "d": 196.875,
      "v": 51
    },
    {
      "midi": 71,
      "hit": false,
      "t": 34496.875,
      "d": 631.25,
      "v": 67
    },
    {
      "midi": 57,
      "hit": false,
      "t": 34796.875,
      "d": 400,
      "v": 55
    },
    {
      "midi": 72,
      "hit": false,
      "t": 35100,
      "d": 175,
      "v": 55
    },
    {
      "midi": 57,
      "hit": false,
      "t": 35400,
      "d": 175,
      "v": 51
    },
    {
      "midi": 57,
      "hit": false,
      "t": 35696.875,
      "d": 175,
      "v": 55
    },
    {
      "midi": 50,
      "hit": false,
      "t": 36000,
      "d": 321.875,
      "v": 63
    },
    {
      "midi": 57,
      "hit": false,
      "t": 36000,
      "d": 371.875,
      "v": 59
    },
    {
      "midi": 60,
      "hit": false,
      "t": 36000,
      "d": 446.875,
      "v": 63
    },
    {
      "midi": 65,
      "hit": false,
      "t": 36000,
      "d": 471.875,
      "v": 59
    },
    {
      "midi": 62,
      "hit": false,
      "t": 36000,
      "d": 475,
      "v": 59
    },
    {
      "midi": 50,
      "hit": false,
      "t": 36903.125,
      "d": 1471.875,
      "v": 7
    },
    {
      "midi": 57,
      "hit": false,
      "t": 36906.25,
      "d": 1040.625,
      "v": 55
    },
    {
      "midi": 62,
      "hit": false,
      "t": 37200,
      "d": 146.875,
      "v": 51
    },
    {
      "midi": 69,
      "hit": false,
      "t": 37500,
      "d": 928.125,
      "v": 63
    },
    {
      "midi": 65,
      "hit": false,
      "t": 37800,
      "d": 450,
      "v": 63
    },
    {
      "midi": 64,
      "hit": false,
      "t": 37800,
      "d": 475,
      "v": 63
    },
    {
      "midi": 50,
      "hit": false,
      "t": 38406.25,
      "d": 990.625,
      "v": 59
    },
    {
      "midi": 57,
      "hit": false,
      "t": 38700,
      "d": 653.125,
      "v": 47
    },
    {
      "midi": 60,
      "hit": false,
      "t": 39000,
      "d": 450,
      "v": 63
    },
    {
      "midi": 65,
      "hit": false,
      "t": 39300,
      "d": 1225,
      "v": 63
    },
    {
      "midi": 50,
      "hit": false,
      "t": 39600,
      "d": 625,
      "v": 55
    },
    {
      "midi": 57,
      "hit": false,
      "t": 39900,
      "d": 271.875,
      "v": 51
    },
    {
      "midi": 60,
      "hit": false,
      "t": 40203.125,
      "d": 321.875,
      "v": 47
    },
    {
      "midi": 57,
      "hit": false,
      "t": 40503.125,
      "d": 343.75,
      "v": 55
    },
    {
      "midi": 60,
      "hit": false,
      "t": 41100,
      "d": 596.875,
      "v": 67
    },
    {
      "midi": 59,
      "hit": false,
      "t": 41700,
      "d": 550,
      "v": 71
    },
    {
      "midi": 55,
      "hit": false,
      "t": 42000,
      "d": 300,
      "v": 63
    },
    {
      "midi": 65,
      "hit": false,
      "t": 42300,
      "d": 496.875,
      "v": 51
    },
    {
      "midi": 55,
      "hit": false,
      "t": 42603.125,
      "d": 243.75,
      "v": 51
    },
    {
      "midi": 67,
      "hit": false,
      "t": 42900,
      "d": 146.875,
      "v": 59
    },
    {
      "midi": 57,
      "hit": false,
      "t": 43200,
      "d": 575,
      "v": 59
    },
    {
      "midi": 60,
      "hit": false,
      "t": 43200,
      "d": 600,
      "v": 63
    },
    {
      "midi": 65,
      "hit": false,
      "t": 43200,
      "d": 625,
      "v": 63
    },
    {
      "midi": 67,
      "hit": false,
      "t": 43200,
      "d": 625,
      "v": 55
    },
    {
      "midi": 55,
      "hit": false,
      "t": 43200,
      "d": 646.875,
      "v": 67
    },
    {
      "midi": 67,
      "hit": false,
      "t": 43850,
      "d": 196.875,
      "v": 119
    },
    {
      "midi": 67,
      "hit": false,
      "t": 44125,
      "d": 325,
      "v": 115
    },
    {
      "midi": 68,
      "hit": false,
      "t": 44425,
      "d": 46.875,
      "v": 123
    },
    {
      "midi": 69,
      "hit": false,
      "t": 44475,
      "d": 246.875,
      "v": 119
    },
    {
      "midi": 72,
      "hit": false,
      "t": 44725,
      "d": 96.875,
      "v": 115
    },
    {
      "midi": 72,
      "hit": false,
      "t": 45000,
      "d": 325,
      "v": 119
    },
    {
      "midi": 69,
      "hit": false,
      "t": 45325,
      "d": 100,
      "v": 79
    },
    {
      "midi": 64,
      "hit": false,
      "t": 45603.125,
      "d": 318.75,
      "v": 71
    },
    {
      "midi": 72,
      "hit": false,
      "t": 45603.125,
      "d": 2868.75,
      "v": 127
    },
    {
      "midi": 62,
      "hit": false,
      "t": 45628.125,
      "d": 268.75,
      "v": 71
    },
    {
      "midi": 60,
      "hit": false,
      "t": 45628.125,
      "d": 271.875,
      "v": 71
    },
    {
      "midi": 67,
      "hit": false,
      "t": 45628.125,
      "d": 318.75,
      "v": 71
    },
    {
      "midi": 48,
      "hit": false,
      "t": 45628.125,
      "d": 2543.75,
      "v": 71
    },
    {
      "midi": 55,
      "hit": false,
      "t": 46221.875,
      "d": 400,
      "v": 63
    },
    {
      "midi": 62,
      "hit": false,
      "t": 46500,
      "d": 396.875,
      "v": 79
    },
    {
      "midi": 55,
      "hit": false,
      "t": 46778.125,
      "d": 418.75,
      "v": 63
    },
    {
      "midi": 67,
      "hit": false,
      "t": 47078.125,
      "d": 768.75,
      "v": 79
    },
    {
      "midi": 55,
      "hit": false,
      "t": 47400,
      "d": 721.875,
      "v": 71
    },
    {
      "midi": 62,
      "hit": false,
      "t": 47700,
      "d": 246.875,
      "v": 83
    },
    {
      "midi": 60,
      "hit": false,
      "t": 48000,
      "d": 471.875,
      "v": 67
    },
    {
      "midi": 64,
      "hit": false,
      "t": 48325,
      "d": 246.875,
      "v": 63
    },
    {
      "midi": 55,
      "hit": false,
      "t": 48325,
      "d": 446.875,
      "v": 71
    },
    {
      "midi": 67,
      "hit": false,
      "t": 48600,
      "d": 421.875,
      "v": 71
    },
    {
      "midi": 48,
      "hit": false,
      "t": 48600,
      "d": 1371.875,
      "v": 67
    },
    {
      "midi": 71,
      "hit": false,
      "t": 48600,
      "d": 346.875,
      "v": 127
    },
    {
      "midi": 60,
      "hit": false,
      "t": 48896.875,
      "d": 350,
      "v": 67
    },
    {
      "midi": 55,
      "hit": false,
      "t": 48925,
      "d": 400,
      "v": 71
    },
    {
      "midi": 69,
      "hit": false,
      "t": 48925,
      "d": 196.875,
      "v": 119
    },
    {
      "midi": 62,
      "hit": false,
      "t": 49200,
      "d": 550,
      "v": 71
    },
    {
      "midi": 71,
      "hit": false,
      "t": 49225,
      "d": 603.125,
      "v": 127
    },
    {
      "midi": 55,
      "hit": false,
      "t": 49475,
      "d": 400,
      "v": 71
    },
    {
      "midi": 67,
      "hit": false,
      "t": 49775,
      "d": 650,
      "v": 75
    },
    {
      "midi": 72,
      "hit": false,
      "t": 49850,
      "d": 421.875,
      "v": 115
    },
    {
      "midi": 60,
      "hit": false,
      "t": 50100,
      "d": 96.875,
      "v": 43
    },
    {
      "midi": 71,
      "hit": false,
      "t": 50246.875,
      "d": 100,
      "v": 75
    },
    {
      "midi": 70,
      "hit": false,
      "t": 50321.875,
      "d": 78.125,
      "v": 95
    },
    {
      "midi": 69,
      "hit": false,
      "t": 50371.875,
      "d": 378.125,
      "v": 103
    },
    {
      "midi": 60,
      "hit": false,
      "t": 50400,
      "d": 250,
      "v": 63
    },
    {
      "midi": 64,
      "hit": false,
      "t": 50403.125,
      "d": 268.75,
      "v": 71
    },
    {
      "midi": 45,
      "hit": false,
      "t": 50403.125,
      "d": 1875,
      "v": 75
    },
    {
      "midi": 52,
      "hit": false,
      "t": 50675,
      "d": 1600,
      "v": 71
    },
    {
      "midi": 69,
      "hit": false,
      "t": 50821.875,
      "d": 1803.125,
      "v": 115
    },
    {
      "midi": 57,
      "hit": false,
      "t": 50971.875,
      "d": 503.125,
      "v": 71
    },
    {
      "midi": 60,
      "hit": false,
      "t": 50975,
      "d": 821.875,
      "v": 63
    },
    {
      "midi": 69,
      "hit": false,
      "t": 51271.875,
      "d": 650,
      "v": 75
    },
    {
      "midi": 57,
      "hit": false,
      "t": 51575,
      "d": 400,
      "v": 67
    },
    {
      "midi": 71,
      "hit": false,
      "t": 51875,
      "d": 321.875,
      "v": 75
    },
    {
      "midi": 57,
      "hit": false,
      "t": 52200,
      "d": 325,
      "v": 75
    },
    {
      "midi": 72,
      "hit": false,
      "t": 52425,
      "d": 275,
      "v": 67
    },
    {
      "midi": 65,
      "hit": false,
      "t": 52746.875,
      "d": 525,
      "v": 71
    },
    {
      "midi": 60,
      "hit": false,
      "t": 52750,
      "d": 571.875,
      "v": 67
    },
    {
      "midi": 69,
      "hit": false,
      "t": 52775,
      "d": 471.875,
      "v": 75
    },
    {
      "midi": 50,
      "hit": false,
      "t": 52775,
      "d": 1771.875,
      "v": 75
    },
    {
      "midi": 57,
      "hit": false,
      "t": 53371.875,
      "d": 528.125,
      "v": 67
    },
    {
      "midi": 65,
      "hit": false,
      "t": 53421.875,
      "d": 525,
      "v": 127
    },
    {
      "midi": 57,
      "hit": false,
      "t": 54025,
      "d": 175,
      "v": 63
    },
    {
      "midi": 67,
      "hit": false,
      "t": 54025,
      "d": 721.875,
      "v": 127
    },
    {
      "midi": 57,
      "hit": false,
      "t": 54325,
      "d": 496.875,
      "v": 55
    },
    {
      "midi": 69,
      "hit": false,
      "t": 54600,
      "d": 71.875,
      "v": 59
    },
    {
      "midi": 65,
      "hit": false,
      "t": 54625,
      "d": 271.875,
      "v": 63
    },
    {
      "midi": 50,
      "hit": false,
      "t": 54846.875,
      "d": 125,
      "v": 63
    },
    {
      "midi": 71,
      "hit": false,
      "t": 54896.875,
      "d": 303.125,
      "v": 119
    },
    {
      "midi": 55,
      "hit": false,
      "t": 55025,
      "d": 600,
      "v": 63
    },
    {
      "midi": 70,
      "hit": false,
      "t": 55175,
      "d": 71.875,
      "v": 99
    },
    {
      "midi": 62,
      "hit": false,
      "t": 55200,
      "d": 396.875,
      "v": 67
    },
    {
      "midi": 67,
      "hit": false,
      "t": 55200,
      "d": 525,
      "v": 71
    },
    {
      "midi": 71,
      "hit": false,
      "t": 55200,
      "d": 571.875,
      "v": 71
    },
    {
      "midi": 71,
      "hit": false,
      "t": 55200,
      "d": 296.875,
      "v": 115
    },
    {
      "midi": 43,
      "hit": false,
      "t": 55228.125,
      "d": 268.75,
      "v": 71
    },
    {
      "midi": 71,
      "hit": false,
      "t": 55646.875,
      "d": 2378.125,
      "v": 111
    },
    {
      "midi": 55,
      "hit": false,
      "t": 56071.875,
      "d": 1175,
      "v": 63
    },
    {
      "midi": 62,
      "hit": false,
      "t": 56375,
      "d": 871.875,
      "v": 67
    },
    {
      "midi": 67,
      "hit": false,
      "t": 56671.875,
      "d": 1525,
      "v": 79
    },
    {
      "midi": 69,
      "hit": false,
      "t": 57003.125,
      "d": 1143.75,
      "v": 75
    },
    {
      "midi": 74,
      "hit": false,
      "t": 57271.875,
      "d": 1075,
      "v": 71
    },
    {
      "midi": 71,
      "hit": false,
      "t": 57571.875,
      "d": 553.125,
      "v": 67
    },
    {
      "midi": 55,
      "hit": false,
      "t": 57575,
      "d": 453.125,
      "v": 71
    },
    {
      "midi": 62,
      "hit": false,
      "t": 57600,
      "d": 428.125,
      "v": 71
    },
    {
      "midi": 62,
      "hit": false,
      "t": 58175,
      "d": 296.875,
      "v": 67
    },
    {
      "midi": 55,
      "hit": false,
      "t": 58175,
      "d": 1321.875,
      "v": 71
    },
    {
      "midi": 69,
      "hit": false,
      "t": 58175,
      "d": 346.875,
      "v": 127
    },
    {
      "midi": 67,
      "hit": false,
      "t": 58446.875,
      "d": 875,
      "v": 63
    },
    {
      "midi": 67,
      "hit": false,
      "t": 58475,
      "d": 275,
      "v": 115
    },
    {
      "midi": 62,
      "hit": false,
      "t": 58775,
      "d": 625,
      "v": 67
    },
    {
      "midi": 69,
      "hit": false,
      "t": 58775,
      "d": 678.125,
      "v": 111
    },
    {
      "midi": 67,
      "hit": false,
      "t": 59350,
      "d": 71.875,
      "v": 59
    },
    {
      "midi": 70,
      "hit": false,
      "t": 59371.875,
      "d": 28.125,
      "v": 103
    },
    {
      "midi": 69,
      "hit": false,
      "t": 59375,
      "d": 121.875,
      "v": 71
    },
    {
      "midi": 71,
      "hit": false,
      "t": 59400,
      "d": 575,
      "v": 111
    },
    {
      "midi": 69,
      "hit": false,
      "t": 59921.875,
      "d": 106.25,
      "v": 75
    },
    {
      "midi": 72,
      "hit": false,
      "t": 59975,
      "d": 471.875,
      "v": 71
    },
    {
      "midi": 48,
      "hit": false,
      "t": 59975,
      "d": 500,
      "v": 71
    },
    {
      "midi": 64,
      "hit": false,
      "t": 59975,
      "d": 571.875,
      "v": 71
    },
    {
      "midi": 67,
      "hit": false,
      "t": 59978.125,
      "d": 443.75,
      "v": 71
    },
    {
      "midi": 55,
      "hit": false,
      "t": 59981.25,
      "d": 415.625,
      "v": 67
    },
    {
      "midi": 68,
      "hit": false,
      "t": 60003.125,
      "d": 71.875,
      "v": 107
    },
    {
      "midi": 67,
      "hit": false,
      "t": 60046.875,
      "d": 350,
      "v": 103
    },
    {
      "midi": 67,
      "hit": false,
      "t": 60425,
      "d": 1946.875,
      "v": 115
    },
    {
      "midi": 48,
      "hit": false,
      "t": 60600,
      "d": 500,
      "v": 63
    },
    {
      "midi": 55,
      "hit": false,
      "t": 60603.125,
      "d": 421.875,
      "v": 71
    },
    {
      "midi": 60,
      "hit": false,
      "t": 60900,
      "d": 278.125,
      "v": 75
    },
    {
      "midi": 55,
      "hit": false,
      "t": 61203.125,
      "d": 418.75,
      "v": 71
    },
    {
      "midi": 48,
      "hit": false,
      "t": 61203.125,
      "d": 443.75,
      "v": 43
    },
    {
      "midi": 62,
      "hit": false,
      "t": 61500,
      "d": 450,
      "v": 83
    },
    {
      "midi": 48,
      "hit": false,
      "t": 61800,
      "d": 100,
      "v": 51
    },
    {
      "midi": 55,
      "hit": false,
      "t": 61800,
      "d": 271.875,
      "v": 71
    },
    {
      "midi": 64,
      "hit": false,
      "t": 62100,
      "d": 146.875,
      "v": 79
    },
    {
      "midi": 48,
      "hit": false,
      "t": 62100,
      "d": 150,
      "v": 55
    },
    {
      "midi": 58,
      "hit": false,
      "t": 62403.125,
      "d": 318.75,
      "v": 83
    },
    {
      "midi": 65,
      "hit": false,
      "t": 62403.125,
      "d": 368.75,
      "v": 75
    },
    {
      "midi": 55,
      "hit": false,
      "t": 62406.25,
      "d": 143.75,
      "v": 71
    },
    {
      "midi": 48,
      "hit": false,
      "t": 62406.25,
      "d": 296.875,
      "v": 79
    },
    {
      "midi": 62,
      "hit": false,
      "t": 62471.875,
      "d": 378.125,
      "v": 55
    },
    {
      "midi": 64,
      "hit": false,
      "t": 62971.875,
      "d": 253.125,
      "v": 75
    },
    {
      "midi": 67,
      "hit": false,
      "t": 62975,
      "d": 296.875,
      "v": 75
    },
    {
      "midi": 60,
      "hit": false,
      "t": 62975,
      "d": 496.875,
      "v": 75
    },
    {
      "midi": 48,
      "hit": false,
      "t": 62978.125,
      "d": 418.75,
      "v": 75
    },
    {
      "midi": 67,
      "hit": false,
      "t": 63046.875,
      "d": 650,
      "v": 123
    },
    {
      "midi": 60,
      "hit": false,
      "t": 63575,
      "d": 153.125,
      "v": 71
    },
    {
      "midi": 65,
      "hit": false,
      "t": 63575,
      "d": 153.125,
      "v": 71
    },
    {
      "midi": 69,
      "hit": false,
      "t": 63575,
      "d": 200,
      "v": 75
    },
    {
      "midi": 48,
      "hit": false,
      "t": 63575,
      "d": 996.875,
      "v": 71
    },
    {
      "midi": 65,
      "hit": false,
      "t": 63675,
      "d": 721.875,
      "v": 127
    },
    {
      "midi": 67,
      "hit": false,
      "t": 64175,
      "d": 546.875,
      "v": 75
    },
    {
      "midi": 70,
      "hit": false,
      "t": 64175,
      "d": 546.875,
      "v": 83
    },
    {
      "midi": 64,
      "hit": false,
      "t": 64421.875,
      "d": 406.25,
      "v": 119
    },
    {
      "midi": 55,
      "hit": false,
      "t": 64450,
      "d": 221.875,
      "v": 59
    },
    {
      "midi": 53,
      "hit": false,
      "t": 64800,
      "d": 300,
      "v": 75
    },
    {
      "midi": 69,
      "hit": false,
      "t": 64800,
      "d": 575,
      "v": 71
    },
    {
      "midi": 65,
      "hit": false,
      "t": 64800,
      "d": 921.875,
      "v": 67
    },
    {
      "midi": 67,
      "hit": false,
      "t": 64831.25,
      "d": 21.875,
      "v": 59
    },
    {
      "midi": 68,
      "hit": false,
      "t": 64834.375,
      "d": 62.5,
      "v": 119
    },
    {
      "midi": 69,
      "hit": false,
      "t": 64871.875,
      "d": 803.125,
      "v": 123
    },
    {
      "midi": 53,
      "hit": false,
      "t": 65400,
      "d": 271.875,
      "v": 67
    },
    {
      "midi": 72,
      "hit": false,
      "t": 65675,
      "d": 125,
      "v": 71
    },
    {
      "midi": 69,
      "hit": false,
      "t": 65725,
      "d": 2346.875,
      "v": 115
    },
    {
      "midi": 69,
      "hit": false,
      "t": 65975,
      "d": 521.875,
      "v": 71
    },
    {
      "midi": 53,
      "hit": false,
      "t": 65975,
      "d": 821.875,
      "v": 71
    },
    {
      "midi": 73,
      "hit": false,
      "t": 65978.125,
      "d": 468.75,
      "v": 75
    },
    {
      "midi": 65,
      "hit": false,
      "t": 65978.125,
      "d": 543.75,
      "v": 63
    },
    {
      "midi": 61,
      "hit": false,
      "t": 66600,
      "d": 346.875,
      "v": 71
    },
    {
      "midi": 73,
      "hit": false,
      "t": 66878.125,
      "d": 243.75,
      "v": 71
    },
    {
      "midi": 65,
      "hit": false,
      "t": 66896.875,
      "d": 128.125,
      "v": 59
    },
    {
      "midi": 69,
      "hit": false,
      "t": 66900,
      "d": 100,
      "v": 63
    },
    {
      "midi": 65,
      "hit": false,
      "t": 67200,
      "d": 521.875,
      "v": 67
    },
    {
      "midi": 69,
      "hit": false,
      "t": 67200,
      "d": 646.875,
      "v": 71
    },
    {
      "midi": 74,
      "hit": false,
      "t": 67200,
      "d": 746.875,
      "v": 71
    },
    {
      "midi": 53,
      "hit": false,
      "t": 67200,
      "d": 850,
      "v": 71
    },
    {
      "midi": 62,
      "hit": false,
      "t": 67771.875,
      "d": 378.125,
      "v": 67
    },
    {
      "midi": 67,
      "hit": false,
      "t": 68371.875,
      "d": 303.125,
      "v": 123
    },
    {
      "midi": 69,
      "hit": false,
      "t": 68403.125,
      "d": 243.75,
      "v": 75
    },
    {
      "midi": 57,
      "hit": false,
      "t": 68403.125,
      "d": 343.75,
      "v": 71
    },
    {
      "midi": 65,
      "hit": false,
      "t": 68650,
      "d": 346.875,
      "v": 107
    },
    {
      "midi": 67,
      "hit": false,
      "t": 68675,
      "d": 100,
      "v": 71
    },
    {
      "midi": 61,
      "hit": false,
      "t": 69000,
      "d": 275,
      "v": 79
    },
    {
      "midi": 64,
      "hit": false,
      "t": 69000,
      "d": 275,
      "v": 111
    },
    {
      "midi": 64,
      "hit": false,
      "t": 69028.125,
      "d": 346.875,
      "v": 63
    },
    {
      "midi": 65,
      "hit": false,
      "t": 69246.875,
      "d": 150,
      "v": 107
    },
    {
      "midi": 67,
      "hit": false,
      "t": 69275,
      "d": 200,
      "v": 71
    },
    {
      "midi": 66,
      "hit": false,
      "t": 69275,
      "d": 71.875,
      "v": 111
    },
    {
      "midi": 67,
      "hit": false,
      "t": 69350,
      "d": 275,
      "v": 111
    },
    {
      "midi": 62,
      "hit": false,
      "t": 69600,
      "d": 396.875,
      "v": 71
    },
    {
      "midi": 65,
      "hit": false,
      "t": 69600,
      "d": 471.875,
      "v": 71
    },
    {
      "midi": 50,
      "hit": false,
      "t": 69609.375,
      "d": 2115.625,
      "v": 75
    },
    {
      "midi": 65,
      "hit": false,
      "t": 69625,
      "d": 1621.875,
      "v": 119
    },
    {
      "midi": 57,
      "hit": false,
      "t": 70121.875,
      "d": 803.125,
      "v": 71
    },
    {
      "midi": 62,
      "hit": false,
      "t": 70471.875,
      "d": 428.125,
      "v": 67
    },
    {
      "midi": 65,
      "hit": false,
      "t": 70800,
      "d": 546.875,
      "v": 59
    },
    {
      "midi": 69,
      "hit": false,
      "t": 71400,
      "d": 121.875,
      "v": 71
    },
    {
      "midi": 65,
      "hit": false,
      "t": 71400,
      "d": 221.875,
      "v": 51
    },
    {
      "midi": 57,
      "hit": false,
      "t": 71425,
      "d": 125,
      "v": 67
    },
    {
      "midi": 55,
      "hit": false,
      "t": 72000,
      "d": 375,
      "v": 71
    },
    {
      "midi": 67,
      "hit": false,
      "t": 72000,
      "d": 446.875,
      "v": 71
    },
    {
      "midi": 71,
      "hit": false,
      "t": 72000,
      "d": 496.875,
      "v": 71
    },
    {
      "midi": 62,
      "hit": false,
      "t": 72000,
      "d": 525,
      "v": 71
    },
    {
      "midi": 65,
      "hit": false,
      "t": 72603.125,
      "d": 596.875,
      "v": 127
    },
    {
      "midi": 55,
      "hit": false,
      "t": 72628.125,
      "d": 443.75,
      "v": 63
    },
    {
      "midi": 62,
      "hit": false,
      "t": 72871.875,
      "d": 800,
      "v": 63
    },
    {
      "midi": 55,
      "hit": false,
      "t": 73203.125,
      "d": 118.75,
      "v": 59
    },
    {
      "midi": 67,
      "hit": false,
      "t": 73203.125,
      "d": 621.875,
      "v": 127
    },
    {
      "midi": 55,
      "hit": false,
      "t": 73471.875,
      "d": 478.125,
      "v": 63
    },
    {
      "midi": 71,
      "hit": false,
      "t": 73771.875,
      "d": 200,
      "v": 75
    },
    {
      "midi": 67,
      "hit": false,
      "t": 73803.125,
      "d": 21.875,
      "v": 55
    },
    {
      "midi": 68,
      "hit": false,
      "t": 74071.875,
      "d": 75,
      "v": 115
    },
    {
      "midi": 69,
      "hit": false,
      "t": 74103.125,
      "d": 296.875,
      "v": 115
    },
    {
      "midi": 60,
      "hit": false,
      "t": 74375,
      "d": 425,
      "v": 71
    },
    {
      "midi": 69,
      "hit": false,
      "t": 74375,
      "d": 521.875,
      "v": 71
    },
    {
      "midi": 66,
      "hit": false,
      "t": 74375,
      "d": 575,
      "v": 71
    },
    {
      "midi": 50,
      "hit": false,
      "t": 74375,
      "d": 4396.875,
      "v": 75
    },
    {
      "midi": 69,
      "hit": false,
      "t": 74406.25,
      "d": 818.75,
      "v": 115
    },
    {
      "midi": 57,
      "hit": false,
      "t": 74975,
      "d": 1096.875,
      "v": 71
    },
    {
      "midi": 60,
      "hit": false,
      "t": 75275,
      "d": 725,
      "v": 59
    },
    {
      "midi": 69,
      "hit": false,
      "t": 75275,
      "d": 2571.875,
      "v": 111
    },
    {
      "midi": 66,
      "hit": false,
      "t": 75300,
      "d": 196.875,
      "v": 63
    },
    {
      "midi": 69,
      "hit": false,
      "t": 75600,
      "d": 271.875,
      "v": 71
    },
    {
      "midi": 76,
      "hit": false,
      "t": 75900,
      "d": 621.875,
      "v": 71
    },
    {
      "midi": 60,
      "hit": false,
      "t": 76200,
      "d": 421.875,
      "v": 59
    },
    {
      "midi": 57,
      "hit": false,
      "t": 76200,
      "d": 450,
      "v": 47
    },
    {
      "midi": 74,
      "hit": false,
      "t": 76500,
      "d": 153.125,
      "v": 75
    },
    {
      "midi": 57,
      "hit": false,
      "t": 76821.875,
      "d": 675,
      "v": 67
    },
    {
      "midi": 60,
      "hit": false,
      "t": 77100,
      "d": 978.125,
      "v": 71
    },
    {
      "midi": 64,
      "hit": false,
      "t": 77400,
      "d": 496.875,
      "v": 67
    },
    {
      "midi": 57,
      "hit": false,
      "t": 77675,
      "d": 403.125,
      "v": 67
    },
    {
      "midi": 66,
      "hit": false,
      "t": 77978.125,
      "d": 593.75,
      "v": 79
    },
    {
      "midi": 69,
      "hit": false,
      "t": 78003.125,
      "d": 318.75,
      "v": 119
    },
    {
      "midi": 57,
      "hit": false,
      "t": 78278.125,
      "d": 368.75,
      "v": 67
    },
    {
      "midi": 71,
      "hit": false,
      "t": 78300,
      "d": 300,
      "v": 107
    },
    {
      "midi": 69,
      "hit": false,
      "t": 78575,
      "d": 150,
      "v": 71
    },
    {
      "midi": 72,
      "hit": false,
      "t": 78575,
      "d": 525,
      "v": 115
    },
    {
      "midi": 57,
      "hit": false,
      "t": 78900,
      "d": 250,
      "v": 71
    },
    {
      "midi": 69,
      "hit": false,
      "t": 79150,
      "d": 121.875,
      "v": 115
    },
    {
      "midi": 67,
      "hit": false,
      "t": 79200,
      "d": 150,
      "v": 75
    },
    {
      "midi": 55,
      "hit": false,
      "t": 79200,
      "d": 550,
      "v": 79
    },
    {
      "midi": 71,
      "hit": false,
      "t": 79250,
      "d": 150,
      "v": 111
    },
    {
      "midi": 69,
      "hit": false,
      "t": 79371.875,
      "d": 150,
      "v": 107
    },
    {
      "midi": 67,
      "hit": false,
      "t": 79471.875,
      "d": 1225,
      "v": 71
    },
    {
      "midi": 67,
      "hit": false,
      "t": 79550,
      "d": 2050,
      "v": 115
    },
    {
      "midi": 69,
      "hit": false,
      "t": 80071.875,
      "d": 653.125,
      "v": 71
    },
    {
      "midi": 55,
      "hit": false,
      "t": 80400,
      "d": 475,
      "v": 71
    },
    {
      "midi": 74,
      "hit": false,
      "t": 80671.875,
      "d": 500,
      "v": 71
    },
    {
      "midi": 67,
      "hit": false,
      "t": 80975,
      "d": 475,
      "v": 71
    },
    {
      "midi": 55,
      "hit": false,
      "t": 81000,
      "d": 75,
      "v": 63
    },
    {
      "midi": 62,
      "hit": false,
      "t": 81000,
      "d": 96.875,
      "v": 59
    },
    {
      "midi": 55,
      "hit": false,
      "t": 81296.875,
      "d": 125,
      "v": 59
    },
    {
      "midi": 75,
      "hit": false,
      "t": 81571.875,
      "d": 253.125,
      "v": 67
    },
    {
      "midi": 71,
      "hit": false,
      "t": 81575,
      "d": 275,
      "v": 71
    },
    {
      "midi": 63,
      "hit": false,
      "t": 81575,
      "d": 375,
      "v": 63
    },
    {
      "midi": 55,
      "hit": false,
      "t": 81600,
      "d": 496.875,
      "v": 71
    },
    {
      "midi": 67,
      "hit": false,
      "t": 81850,
      "d": 200,
      "v": 55
    },
    {
      "midi": 79,
      "hit": false,
      "t": 82171.875,
      "d": 150,
      "v": 67
    },
    {
      "midi": 67,
      "hit": false,
      "t": 82200,
      "d": 200,
      "v": 127
    },
    {
      "midi": 67,
      "hit": false,
      "t": 82500,
      "d": 300,
      "v": 119
    },
    {
      "midi": 75,
      "hit": false,
      "t": 82775,
      "d": 71.875,
      "v": 71
    },
    {
      "midi": 67,
      "hit": false,
      "t": 82775,
      "d": 75,
      "v": 67
    },
    {
      "midi": 71,
      "hit": false,
      "t": 82775,
      "d": 75,
      "v": 75
    },
    {
      "midi": 68,
      "hit": false,
      "t": 82778.125,
      "d": 75,
      "v": 127
    },
    {
      "midi": 69,
      "hit": false,
      "t": 82825,
      "d": 225,
      "v": 127
    },
    {
      "midi": 72,
      "hit": false,
      "t": 83100,
      "d": 175,
      "v": 107
    },
    {
      "midi": 72,
      "hit": false,
      "t": 83400,
      "d": 296.875,
      "v": 123
    },
    {
      "midi": 69,
      "hit": false,
      "t": 83696.875,
      "d": 150,
      "v": 67
    },
    {
      "midi": 64,
      "hit": false,
      "t": 84000,
      "d": 700,
      "v": 71
    },
    {
      "midi": 62,
      "hit": false,
      "t": 84003.125,
      "d": 668.75,
      "v": 71
    },
    {
      "midi": 60,
      "hit": false,
      "t": 84028.125,
      "d": 618.75,
      "v": 71
    },
    {
      "midi": 67,
      "hit": false,
      "t": 84028.125,
      "d": 671.875,
      "v": 71
    },
    {
      "midi": 48,
      "hit": false,
      "t": 84028.125,
      "d": 4043.75,
      "v": 75
    },
    {
      "midi": 72,
      "hit": false,
      "t": 84028.125,
      "d": 1818.75,
      "v": 119
    },
    {
      "midi": 55,
      "hit": false,
      "t": 85175,
      "d": 571.875,
      "v": 63
    },
    {
      "midi": 64,
      "hit": false,
      "t": 85500,
      "d": 121.875,
      "v": 47
    },
    {
      "midi": 67,
      "hit": false,
      "t": 85800,
      "d": 246.875,
      "v": 71
    },
    {
      "midi": 72,
      "hit": false,
      "t": 86071.875,
      "d": 200,
      "v": 75
    },
    {
      "midi": 55,
      "hit": false,
      "t": 86400,
      "d": 796.875,
      "v": 67
    },
    {
      "midi": 62,
      "hit": false,
      "t": 86675,
      "d": 250,
      "v": 67
    },
    {
      "midi": 62,
      "hit": false,
      "t": 87000,
      "d": 1053.125,
      "v": 71
    },
    {
      "midi": 67,
      "hit": false,
      "t": 87000,
      "d": 1225,
      "v": 67
    },
    {
      "midi": 64,
      "hit": false,
      "t": 87025,
      "d": 1175,
      "v": 71
    },
    {
      "midi": 71,
      "hit": false,
      "t": 87025,
      "d": 325,
      "v": 119
    },
    {
      "midi": 55,
      "hit": false,
      "t": 87325,
      "d": 396.875,
      "v": 63
    },
    {
      "midi": 69,
      "hit": false,
      "t": 87325,
      "d": 275,
      "v": 115
    },
    {
      "midi": 60,
      "hit": false,
      "t": 87600,
      "d": 475,
      "v": 75
    },
    {
      "midi": 71,
      "hit": false,
      "t": 87625,
      "d": 628.125,
      "v": 111
    },
    {
      "midi": 48,
      "hit": false,
      "t": 88171.875,
      "d": 175,
      "v": 67
    },
    {
      "midi": 55,
      "hit": false,
      "t": 88175,
      "d": 146.875,
      "v": 71
    },
    {
      "midi": 72,
      "hit": false,
      "t": 88228.125,
      "d": 446.875,
      "v": 115
    },
    {
      "midi": 71,
      "hit": false,
      "t": 88625,
      "d": 121.875,
      "v": 79
    },
    {
      "midi": 70,
      "hit": false,
      "t": 88721.875,
      "d": 103.125,
      "v": 99
    },
    {
      "midi": 69,
      "hit": false,
      "t": 88775,
      "d": 671.875,
      "v": 67
    },
    {
      "midi": 60,
      "hit": false,
      "t": 88775,
      "d": 750,
      "v": 67
    },
    {
      "midi": 64,
      "hit": false,
      "t": 88778.125,
      "d": 671.875,
      "v": 71
    },
    {
      "midi": 57,
      "hit": false,
      "t": 88778.125,
      "d": 721.875,
      "v": 63
    },
    {
      "midi": 45,
      "hit": false,
      "t": 88778.125,
      "d": 1896.875,
      "v": 75
    },
    {
      "midi": 69,
      "hit": false,
      "t": 88828.125,
      "d": 671.875,
      "v": 115
    },
    {
      "midi": 69,
      "hit": false,
      "t": 89575,
      "d": 1671.875,
      "v": 107
    },
    {
      "midi": 57,
      "hit": false,
      "t": 89700,
      "d": 1150,
      "v": 75
    },
    {
      "midi": 60,
      "hit": false,
      "t": 89996.875,
      "d": 278.125,
      "v": 79
    },
    {
      "midi": 64,
      "hit": false,
      "t": 90275,
      "d": 325,
      "v": 75
    },
    {
      "midi": 69,
      "hit": false,
      "t": 90603.125,
      "d": 1168.75,
      "v": 79
    },
    {
      "midi": 64,
      "hit": false,
      "t": 90850,
      "d": 300,
      "v": 67
    },
    {
      "midi": 65,
      "hit": false,
      "t": 91203.125,
      "d": 596.875,
      "v": 75
    },
    {
      "midi": 50,
      "hit": false,
      "t": 91203.125,
      "d": 2168.75,
      "v": 75
    },
    {
      "midi": 64,
      "hit": false,
      "t": 91206.25,
      "d": 40.625,
      "v": 59
    },
    {
      "midi": 57,
      "hit": false,
      "t": 91746.875,
      "d": 781.25,
      "v": 75
    },
    {
      "midi": 65,
      "hit": false,
      "t": 91803.125,
      "d": 543.75,
      "v": 127
    },
    {
      "midi": 62,
      "hit": false,
      "t": 92071.875,
      "d": 203.125,
      "v": 59
    },
    {
      "midi": 65,
      "hit": false,
      "t": 92396.875,
      "d": 628.125,
      "v": 71
    },
    {
      "midi": 67,
      "hit": false,
      "t": 92400,
      "d": 550,
      "v": 127
    },
    {
      "midi": 57,
      "hit": false,
      "t": 92700,
      "d": 250,
      "v": 67
    },
    {
      "midi": 71,
      "hit": false,
      "t": 92971.875,
      "d": 153.125,
      "v": 71
    },
    {
      "midi": 71,
      "hit": false,
      "t": 93025,
      "d": 528.125,
      "v": 115
    },
    {
      "midi": 57,
      "hit": false,
      "t": 93300,
      "d": 171.875,
      "v": 59
    },
    {
      "midi": 67,
      "hit": false,
      "t": 93575,
      "d": 496.875,
      "v": 71
    },
    {
      "midi": 71,
      "hit": false,
      "t": 93575,
      "d": 521.875,
      "v": 71
    },
    {
      "midi": 70,
      "hit": false,
      "t": 93575,
      "d": 50,
      "v": 103
    },
    {
      "midi": 55,
      "hit": false,
      "t": 93578.125,
      "d": 418.75,
      "v": 75
    },
    {
      "midi": 62,
      "hit": false,
      "t": 93578.125,
      "d": 468.75,
      "v": 67
    },
    {
      "midi": 71,
      "hit": false,
      "t": 93628.125,
      "d": 718.75,
      "v": 111
    },
    {
      "midi": 71,
      "hit": false,
      "t": 94421.875,
      "d": 2081.25,
      "v": 107
    },
    {
      "midi": 55,
      "hit": false,
      "t": 94471.875,
      "d": 875,
      "v": 67
    },
    {
      "midi": 67,
      "hit": false,
      "t": 94803.125,
      "d": 171.875,
      "v": 55
    },
    {
      "midi": 62,
      "hit": false,
      "t": 94825,
      "d": 471.875,
      "v": 67
    },
    {
      "midi": 67,
      "hit": false,
      "t": 95096.875,
      "d": 103.125,
      "v": 39
    },
    {
      "midi": 69,
      "hit": false,
      "t": 95100,
      "d": 300,
      "v": 71
    },
    {
      "midi": 71,
      "hit": false,
      "t": 95421.875,
      "d": 125,
      "v": 51
    },
    {
      "midi": 62,
      "hit": false,
      "t": 95471.875,
      "d": 100,
      "v": 59
    },
    {
      "midi": 65,
      "hit": false,
      "t": 95725,
      "d": 375,
      "v": 71
    },
    {
      "midi": 69,
      "hit": false,
      "t": 95725,
      "d": 546.875,
      "v": 71
    },
    {
      "midi": 55,
      "hit": false,
      "t": 95728.125,
      "d": 271.875,
      "v": 71
    },
    {
      "midi": 72,
      "hit": false,
      "t": 95728.125,
      "d": 546.875,
      "v": 75
    },
    {
      "midi": 62,
      "hit": false,
      "t": 95731.25,
      "d": 190.625,
      "v": 71
    },
    {
      "midi": 55,
      "hit": false,
      "t": 96275,
      "d": 1800,
      "v": 71
    },
    {
      "midi": 71,
      "hit": false,
      "t": 96300,
      "d": 625,
      "v": 71
    },
    {
      "midi": 67,
      "hit": false,
      "t": 96303.125,
      "d": 500,
      "v": 63
    },
    {
      "midi": 74,
      "hit": false,
      "t": 96303.125,
      "d": 596.875,
      "v": 71
    },
    {
      "midi": 62,
      "hit": false,
      "t": 96606.25,
      "d": 443.75,
      "v": 67
    },
    {
      "midi": 69,
      "hit": false,
      "t": 96628.125,
      "d": 296.875,
      "v": 123
    },
    {
      "midi": 69,
      "hit": false,
      "t": 96875,
      "d": 850,
      "v": 71
    },
    {
      "midi": 72,
      "hit": false,
      "t": 96875,
      "d": 900,
      "v": 71
    },
    {
      "midi": 67,
      "hit": false,
      "t": 96900,
      "d": 396.875,
      "v": 95
    },
    {
      "midi": 62,
      "hit": false,
      "t": 97178.125,
      "d": 221.875,
      "v": 71
    },
    {
      "midi": 69,
      "hit": false,
      "t": 97246.875,
      "d": 528.125,
      "v": 103
    },
    {
      "midi": 62,
      "hit": false,
      "t": 97475,
      "d": 525,
      "v": 71
    },
    {
      "midi": 71,
      "hit": false,
      "t": 97778.125,
      "d": 268.75,
      "v": 75
    },
    {
      "midi": 67,
      "hit": false,
      "t": 97778.125,
      "d": 296.875,
      "v": 71
    },
    {
      "midi": 71,
      "hit": false,
      "t": 97800,
      "d": 446.875,
      "v": 111
    },
    {
      "midi": 69,
      "hit": false,
      "t": 98196.875,
      "d": 100,
      "v": 75
    },
    {
      "midi": 68,
      "hit": false,
      "t": 98246.875,
      "d": 100,
      "v": 91
    },
    {
      "midi": 67,
      "hit": false,
      "t": 98321.875,
      "d": 400,
      "v": 107
    },
    {
      "midi": 64,
      "hit": false,
      "t": 98346.875,
      "d": 703.125,
      "v": 71
    },
    {
      "midi": 48,
      "hit": false,
      "t": 98350,
      "d": 1975,
      "v": 71
    },
    {
      "midi": 67,
      "hit": false,
      "t": 98353.125,
      "d": 518.75,
      "v": 75
    },
    {
      "midi": 67,
      "hit": false,
      "t": 98771.875,
      "d": 2500,
      "v": 119
    },
    {
      "midi": 55,
      "hit": false,
      "t": 99000,
      "d": 453.125,
      "v": 67
    },
    {
      "midi": 55,
      "hit": false,
      "t": 99575,
      "d": 471.875,
      "v": 71
    },
    {
      "midi": 62,
      "hit": false,
      "t": 99875,
      "d": 421.875,
      "v": 79
    },
    {
      "midi": 55,
      "hit": false,
      "t": 100200,
      "d": 246.875,
      "v": 71
    },
    {
      "midi": 64,
      "hit": false,
      "t": 100246.875,
      "d": 150,
      "v": 75
    },
    {
      "midi": 48,
      "hit": false,
      "t": 100496.875,
      "d": 100,
      "v": 67
    },
    {
      "midi": 55,
      "hit": false,
      "t": 100496.875,
      "d": 228.125,
      "v": 71
    },
    {
      "midi": 58,
      "hit": false,
      "t": 100800,
      "d": 271.875,
      "v": 83
    },
    {
      "midi": 67,
      "hit": false,
      "t": 100803.125,
      "d": 296.875,
      "v": 83
    },
    {
      "midi": 48,
      "hit": false,
      "t": 100803.125,
      "d": 418.75,
      "v": 71
    },
    {
      "midi": 55,
      "hit": false,
      "t": 100803.125,
      "d": 443.75,
      "v": 71
    },
    {
      "midi": 64,
      "hit": false,
      "t": 100825,
      "d": 175,
      "v": 71
    },
    {
      "midi": 48,
      "hit": false,
      "t": 101403.125,
      "d": 100,
      "v": 67
    },
    {
      "midi": 55,
      "hit": false,
      "t": 101406.25,
      "d": 96.875,
      "v": 71
    },
    {
      "midi": 67,
      "hit": false,
      "t": 101425,
      "d": 600,
      "v": 123
    },
    {
      "midi": 48,
      "hit": false,
      "t": 101671.875,
      "d": 178.125,
      "v": 71
    },
    {
      "midi": 55,
      "hit": false,
      "t": 101675,
      "d": 196.875,
      "v": 71
    },
    {
      "midi": 55,
      "hit": false,
      "t": 101975,
      "d": 228.125,
      "v": 71
    },
    {
      "midi": 48,
      "hit": false,
      "t": 101975,
      "d": 825,
      "v": 71
    },
    {
      "midi": 65,
      "hit": false,
      "t": 102003.125,
      "d": 168.75,
      "v": 79
    },
    {
      "midi": 69,
      "hit": false,
      "t": 102006.25,
      "d": 168.75,
      "v": 83
    },
    {
      "midi": 65,
      "hit": false,
      "t": 102050,
      "d": 553.125,
      "v": 127
    },
    {
      "midi": 55,
      "hit": false,
      "t": 102271.875,
      "d": 528.125,
      "v": 67
    },
    {
      "midi": 60,
      "hit": false,
      "t": 102571.875,
      "d": 378.125,
      "v": 71
    },
    {
      "midi": 67,
      "hit": false,
      "t": 102609.375,
      "d": 287.5,
      "v": 71
    },
    {
      "midi": 70,
      "hit": false,
      "t": 102612.5,
      "d": 287.5,
      "v": 83
    },
    {
      "midi": 64,
      "hit": false,
      "t": 102628.125,
      "d": 543.75,
      "v": 119
    },
    {
      "midi": 68,
      "hit": false,
      "t": 103171.875,
      "d": 81.25,
      "v": 123
    },
    {
      "midi": 69,
      "hit": false,
      "t": 103231.25,
      "d": 443.75,
      "v": 75
    },
    {
      "midi": 65,
      "hit": false,
      "t": 103231.25,
      "d": 640.625,
      "v": 71
    },
    {
      "midi": 53,
      "hit": false,
      "t": 103231.25,
      "d": 768.75,
      "v": 75
    },
    {
      "midi": 69,
      "hit": false,
      "t": 103231.25,
      "d": 768.75,
      "v": 119
    },
    {
      "midi": 60,
      "hit": false,
      "t": 103800,
      "d": 300,
      "v": 71
    },
    {
      "midi": 72,
      "hit": false,
      "t": 104075,
      "d": 125,
      "v": 71
    },
    {
      "midi": 69,
      "hit": false,
      "t": 104075,
      "d": 2603.125,
      "v": 127
    },
    {
      "midi": 53,
      "hit": false,
      "t": 104403.125,
      "d": 921.875,
      "v": 71
    },
    {
      "midi": 65,
      "hit": false,
      "t": 104425,
      "d": 446.875,
      "v": 59
    },
    {
      "midi": 69,
      "hit": false,
      "t": 104425,
      "d": 525,
      "v": 71
    },
    {
      "midi": 73,
      "hit": false,
      "t": 104425,
      "d": 525,
      "v": 83
    },
    {
      "midi": 61,
      "hit": false,
      "t": 104675,
      "d": 578.125,
      "v": 63
    },
    {
      "midi": 65,
      "hit": false,
      "t": 104971.875,
      "d": 281.25,
      "v": 71
    },
    {
      "midi": 69,
      "hit": false,
      "t": 105171.875,
      "d": 225,
      "v": 75
    },
    {
      "midi": 73,
      "hit": false,
      "t": 105325,
      "d": 221.875,
      "v": 75
    },
    {
      "midi": 65,
      "hit": false,
      "t": 105575,
      "d": 546.875,
      "v": 71
    },
    {
      "midi": 74,
      "hit": false,
      "t": 105575,
      "d": 700,
      "v": 79
    },
    {
      "midi": 69,
      "hit": false,
      "t": 105575,
      "d": 750,
      "v": 71
    },
    {
      "midi": 53,
      "hit": false,
      "t": 105578.125,
      "d": 1018.75,
      "v": 71
    },
    {
      "midi": 62,
      "hit": false,
      "t": 106175,
      "d": 271.875,
      "v": 71
    },
    {
      "midi": 65,
      "hit": false,
      "t": 106450,
      "d": 128.125,
      "v": 67
    },
    {
      "midi": 74,
      "hit": false,
      "t": 106475,
      "d": 71.875,
      "v": 71
    },
    {
      "midi": 67,
      "hit": false,
      "t": 106781.25,
      "d": 165.625,
      "v": 71
    },
    {
      "midi": 73,
      "hit": false,
      "t": 106781.25,
      "d": 290.625,
      "v": 63
    },
    {
      "midi": 69,
      "hit": false,
      "t": 106781.25,
      "d": 340.625,
      "v": 71
    },
    {
      "midi": 67,
      "hit": false,
      "t": 106781.25,
      "d": 315.625,
      "v": 127
    },
    {
      "midi": 57,
      "hit": false,
      "t": 106803.125,
      "d": 343.75,
      "v": 75
    },
    {
      "midi": 67,
      "hit": false,
      "t": 107075,
      "d": 196.875,
      "v": 63
    },
    {
      "midi": 65,
      "hit": false,
      "t": 107096.875,
      "d": 250,
      "v": 115
    },
    {
      "midi": 76,
      "hit": false,
      "t": 107371.875,
      "d": 300,
      "v": 71
    },
    {
      "midi": 64,
      "hit": false,
      "t": 107371.875,
      "d": 250,
      "v": 119
    },
    {
      "midi": 65,
      "hit": false,
      "t": 107621.875,
      "d": 78.125,
      "v": 111
    },
    {
      "midi": 66,
      "hit": false,
      "t": 107646.875,
      "d": 25,
      "v": 111
    },
    {
      "midi": 67,
      "hit": false,
      "t": 107671.875,
      "d": 278.125,
      "v": 111
    },
    {
      "midi": 69,
      "hit": false,
      "t": 107750,
      "d": 53.125,
      "v": 47
    },
    {
      "midi": 50,
      "hit": false,
      "t": 107971.875,
      "d": 1725,
      "v": 71
    },
    {
      "midi": 69,
      "hit": false,
      "t": 108003.125,
      "d": 496.875,
      "v": 67
    },
    {
      "midi": 74,
      "hit": false,
      "t": 108006.25,
      "d": 518.75,
      "v": 71
    },
    {
      "midi": 77,
      "hit": false,
      "t": 108006.25,
      "d": 543.75,
      "v": 67
    },
    {
      "midi": 65,
      "hit": false,
      "t": 108006.25,
      "d": 1521.875,
      "v": 115
    },
    {
      "midi": 57,
      "hit": false,
      "t": 108550,
      "d": 825,
      "v": 71
    },
    {
      "midi": 62,
      "hit": false,
      "t": 108846.875,
      "d": 531.25,
      "v": 71
    },
    {
      "midi": 69,
      "hit": false,
      "t": 109175,
      "d": 571.875,
      "v": 67
    },
    {
      "midi": 74,
      "hit": false,
      "t": 109446.875,
      "d": 525,
      "v": 67
    },
    {
      "midi": 57,
      "hit": false,
      "t": 109496.875,
      "d": 400,
      "v": 59
    },
    {
      "midi": 50,
      "hit": false,
      "t": 109750,
      "d": 121.875,
      "v": 67
    },
    {
      "midi": 77,
      "hit": false,
      "t": 109750,
      "d": 296.875,
      "v": 67
    },
    {
      "midi": 69,
      "hit": false,
      "t": 110071.875,
      "d": 100,
      "v": 55
    },
    {
      "midi": 79,
      "hit": false,
      "t": 110375,
      "d": 296.875,
      "v": 63
    },
    {
      "midi": 71,
      "hit": false,
      "t": 110375,
      "d": 350,
      "v": 71
    },
    {
      "midi": 55,
      "hit": false,
      "t": 110375,
      "d": 2050,
      "v": 71
    },
    {
      "midi": 74,
      "hit": false,
      "t": 110400,
      "d": 325,
      "v": 75
    },
    {
      "midi": 67,
      "hit": false,
      "t": 110675,
      "d": 478.125,
      "v": 35
    },
    {
      "midi": 65,
      "hit": false,
      "t": 110975,
      "d": 571.875,
      "v": 127
    },
    {
      "midi": 62,
      "hit": false,
      "t": 111000,
      "d": 396.875,
      "v": 71
    },
    {
      "midi": 69,
      "hit": false,
      "t": 111275,
      "d": 575,
      "v": 79
    },
    {
      "midi": 67,
      "hit": false,
      "t": 111596.875,
      "d": 628.125,
      "v": 119
    },
    {
      "midi": 62,
      "hit": false,
      "t": 111606.25,
      "d": 368.75,
      "v": 71
    },
    {
      "midi": 71,
      "hit": false,
      "t": 111900,
      "d": 578.125,
      "v": 75
    },
    {
      "midi": 65,
      "hit": false,
      "t": 112200,
      "d": 631.25,
      "v": 127
    },
    {
      "midi": 62,
      "hit": false,
      "t": 112203.125,
      "d": 175,
      "v": 71
    },
    {
      "midi": 72,
      "hit": false,
      "t": 112771.875,
      "d": 653.125,
      "v": 71
    },
    {
      "midi": 67,
      "hit": false,
      "t": 112803.125,
      "d": 593.75,
      "v": 63
    },
    {
      "midi": 76,
      "hit": false,
      "t": 112803.125,
      "d": 668.75,
      "v": 67
    },
    {
      "midi": 48,
      "hit": false,
      "t": 112806.25,
      "d": 715.625,
      "v": 71
    },
    {
      "midi": 64,
      "hit": false,
      "t": 112831.25,
      "d": 318.75,
      "v": 119
    },
    {
      "midi": 64,
      "hit": false,
      "t": 113196.875,
      "d": 425,
      "v": 115
    },
    {
      "midi": 67,
      "hit": false,
      "t": 113671.875,
      "d": 100,
      "v": 55
    },
    {
      "midi": 64,
      "hit": false,
      "t": 113753.125,
      "d": 246.875,
      "v": 115
    },
    {
      "midi": 55,
      "hit": false,
      "t": 113975,
      "d": 396.875,
      "v": 75
    },
    {
      "midi": 67,
      "hit": false,
      "t": 114003.125,
      "d": 343.75,
      "v": 71
    },
    {
      "midi": 74,
      "hit": false,
      "t": 114003.125,
      "d": 346.875,
      "v": 71
    },
    {
      "midi": 71,
      "hit": false,
      "t": 114003.125,
      "d": 350,
      "v": 71
    },
    {
      "midi": 62,
      "hit": false,
      "t": 114025,
      "d": 271.875,
      "v": 127
    },
    {
      "midi": 60,
      "hit": false,
      "t": 114321.875,
      "d": 275,
      "v": 111
    },
    {
      "midi": 61,
      "hit": false,
      "t": 114596.875,
      "d": 53.125,
      "v": 123
    },
    {
      "midi": 62,
      "hit": false,
      "t": 114650,
      "d": 525,
      "v": 111
    },
    {
      "midi": 72,
      "hit": false,
      "t": 115200,
      "d": 246.875,
      "v": 71
    },
    {
      "midi": 67,
      "hit": false,
      "t": 115200,
      "d": 250,
      "v": 75
    },
    {
      "midi": 64,
      "hit": false,
      "t": 115228.125,
      "d": 268.75,
      "v": 71
    },
    {
      "midi": 60,
      "hit": false,
      "t": 115231.25,
      "d": 240.625,
      "v": 75
    },
    {
      "midi": 48,
      "hit": false,
      "t": 115231.25,
      "d": 318.75,
      "v": 79
    },
    {
      "midi": 60,
      "hit": false,
      "t": 115234.375,
      "d": 1365.625,
      "v": 127
    },
    {
      "midi": 62,
      "hit": false,
      "t": 115771.875,
      "d": 178.125,
      "v": 75
    },
    {
      "midi": 67,
      "hit": false,
      "t": 115771.875,
      "d": 250,
      "v": 71
    },
    {
      "midi": 64,
      "hit": false,
      "t": 115925,
      "d": 121.875,
      "v": 75
    },
    {
      "midi": 60,
      "hit": false,
      "t": 116071.875,
      "d": 103.125,
      "v": 75
    },
    {
      "midi": 67,
      "hit": false,
      "t": 116125,
      "d": 50,
      "v": 59
    },
    {
      "midi": 65,
      "hit": false,
      "t": 116403.125,
      "d": 568.75,
      "v": 67
    },
    {
      "midi": 67,
      "hit": false,
      "t": 116406.25,
      "d": 568.75,
      "v": 67
    },
    {
      "midi": 43,
      "hit": false,
      "t": 116409.375,
      "d": 537.5,
      "v": 79
    },
    {
      "midi": 57,
      "hit": false,
      "t": 116409.375,
      "d": 537.5,
      "v": 75
    },
    {
      "midi": 55,
      "hit": false,
      "t": 116409.375,
      "d": 565.625,
      "v": 75
    },
    {
      "midi": 60,
      "hit": false,
      "t": 116412.5,
      "d": 534.375,
      "v": 59
    },
    {
      "midi": 48,
      "hit": false,
      "t": 117600,
      "d": 571.875,
      "v": 79
    },
    {
      "midi": 64,
      "hit": false,
      "t": 117625,
      "d": 353.125,
      "v": 75
    },
    {
      "midi": 60,
      "hit": false,
      "t": 117628.125,
      "d": 250,
      "v": 71
    },
    {
      "midi": 62,
      "hit": false,
      "t": 117631.25,
      "d": 268.75,
      "v": 75
    },
    {
      "midi": 55,
      "hit": false,
      "t": 117900,
      "d": 328.125,
      "v": 59
    },
    {
      "midi": 67,
      "hit": false,
      "t": 118200,
      "d": 1175,
      "v": 79
    },
    {
      "midi": 55,
      "hit": false,
      "t": 118503.125,
      "d": 621.875,
      "v": 71
    },
    {
      "midi": 60,
      "hit": false,
      "t": 118503.125,
      "d": 846.875,
      "v": 79
    },
    {
      "midi": 62,
      "hit": false,
      "t": 118506.25,
      "d": 796.875,
      "v": 79
    },
    {
      "midi": 48,
      "hit": false,
      "t": 119406.25,
      "d": 2615.625,
      "v": 71
    },
    {
      "midi": 55,
      "hit": false,
      "t": 119706.25,
      "d": 668.75,
      "v": 71
    },
    {
      "midi": 60,
      "hit": false,
      "t": 119996.875,
      "d": 400,
      "v": 79
    },
    {
      "midi": 67,
      "hit": false,
      "t": 120300,
      "d": 1350,
      "v": 83
    },
    {
      "midi": 55,
      "hit": false,
      "t": 120600,
      "d": 428.125,
      "v": 67
    },
    {
      "midi": 60,
      "hit": false,
      "t": 120896.875,
      "d": 378.125,
      "v": 79
    },
    {
      "midi": 62,
      "hit": false,
      "t": 120896.875,
      "d": 400,
      "v": 75
    },
    {
      "midi": 55,
      "hit": false,
      "t": 121200,
      "d": 850,
      "v": 59
    },
    {
      "midi": 60,
      "hit": false,
      "t": 121500,
      "d": 450,
      "v": 71
    },
    {
      "midi": 62,
      "hit": false,
      "t": 121800,
      "d": 500,
      "v": 79
    },
    {
      "midi": 67,
      "hit": false,
      "t": 122103.125,
      "d": 268.75,
      "v": 75
    },
    {
      "midi": 45,
      "hit": false,
      "t": 122400,
      "d": 4596.875,
      "v": 75
    },
    {
      "midi": 67,
      "hit": false,
      "t": 122403.125,
      "d": 596.875,
      "v": 67
    },
    {
      "midi": 59,
      "hit": false,
      "t": 122406.25,
      "d": 543.75,
      "v": 75
    },
    {
      "midi": 60,
      "hit": false,
      "t": 122406.25,
      "d": 643.75,
      "v": 75
    },
    {
      "midi": 64,
      "hit": false,
      "t": 122431.25,
      "d": 543.75,
      "v": 75
    },
    {
      "midi": 57,
      "hit": false,
      "t": 123296.875,
      "d": 478.125,
      "v": 39
    },
    {
      "midi": 57,
      "hit": false,
      "t": 123900,
      "d": 1850,
      "v": 63
    },
    {
      "midi": 64,
      "hit": false,
      "t": 124203.125,
      "d": 443.75,
      "v": 67
    },
    {
      "midi": 67,
      "hit": false,
      "t": 124500,
      "d": 146.875,
      "v": 47
    },
    {
      "midi": 71,
      "hit": false,
      "t": 124800,
      "d": 250,
      "v": 75
    },
    {
      "midi": 72,
      "hit": false,
      "t": 125103.125,
      "d": 418.75,
      "v": 63
    },
    {
      "midi": 64,
      "hit": false,
      "t": 125400,
      "d": 196.875,
      "v": 67
    },
    {
      "midi": 71,
      "hit": false,
      "t": 125700,
      "d": 625,
      "v": 79
    },
    {
      "midi": 57,
      "hit": false,
      "t": 126000,
      "d": 396.875,
      "v": 67
    },
    {
      "midi": 72,
      "hit": false,
      "t": 126300,
      "d": 175,
      "v": 71
    },
    {
      "midi": 57,
      "hit": false,
      "t": 126600,
      "d": 175,
      "v": 63
    },
    {
      "midi": 57,
      "hit": false,
      "t": 126900,
      "d": 171.875,
      "v": 67
    },
    {
      "midi": 50,
      "hit": false,
      "t": 127200,
      "d": 321.875,
      "v": 79
    },
    {
      "midi": 57,
      "hit": false,
      "t": 127200,
      "d": 371.875,
      "v": 75
    },
    {
      "midi": 60,
      "hit": false,
      "t": 127200,
      "d": 446.875,
      "v": 75
    },
    {
      "midi": 62,
      "hit": false,
      "t": 127200,
      "d": 471.875,
      "v": 75
    },
    {
      "midi": 65,
      "hit": false,
      "t": 127200,
      "d": 471.875,
      "v": 71
    },
    {
      "midi": 50,
      "hit": false,
      "t": 128100,
      "d": 1478.125,
      "v": 19
    },
    {
      "midi": 57,
      "hit": false,
      "t": 128103.125,
      "d": 1043.75,
      "v": 71
    },
    {
      "midi": 62,
      "hit": false,
      "t": 128403.125,
      "d": 146.875,
      "v": 67
    },
    {
      "midi": 69,
      "hit": false,
      "t": 128700,
      "d": 925,
      "v": 75
    },
    {
      "midi": 65,
      "hit": false,
      "t": 129000,
      "d": 446.875,
      "v": 75
    },
    {
      "midi": 64,
      "hit": false,
      "t": 129000,
      "d": 475,
      "v": 75
    },
    {
      "midi": 50,
      "hit": false,
      "t": 129596.875,
      "d": 1006.25,
      "v": 71
    },
    {
      "midi": 57,
      "hit": false,
      "t": 129900,
      "d": 650,
      "v": 59
    },
    {
      "midi": 60,
      "hit": false,
      "t": 130200,
      "d": 450,
      "v": 75
    },
    {
      "midi": 65,
      "hit": false,
      "t": 130503.125,
      "d": 1225,
      "v": 79
    },
    {
      "midi": 50,
      "hit": false,
      "t": 130803.125,
      "d": 596.875,
      "v": 71
    },
    {
      "midi": 57,
      "hit": false,
      "t": 131100,
      "d": 271.875,
      "v": 67
    },
    {
      "midi": 60,
      "hit": false,
      "t": 131406.25,
      "d": 321.875,
      "v": 59
    },
    {
      "midi": 57,
      "hit": false,
      "t": 131700,
      "d": 350,
      "v": 71
    },
    {
      "midi": 60,
      "hit": false,
      "t": 132300,
      "d": 600,
      "v": 83
    },
    {
      "midi": 59,
      "hit": false,
      "t": 132903.125,
      "d": 546.875,
      "v": 83
    },
    {
      "midi": 55,
      "hit": false,
      "t": 133200,
      "d": 296.875,
      "v": 67
    },
    {
      "midi": 65,
      "hit": false,
      "t": 133500,
      "d": 496.875,
      "v": 75
    },
    {
      "midi": 55,
      "hit": false,
      "t": 133800,
      "d": 250,
      "v": 63
    },
    {
      "midi": 67,
      "hit": false,
      "t": 134100,
      "d": 146.875,
      "v": 75
    },
    {
      "midi": 67,
      "hit": false,
      "t": 134975,
      "d": 150,
      "v": 127
    },
    {
      "midi": 67,
      "hit": false,
      "t": 135275,
      "d": 300,
      "v": 127
    },
    {
      "midi": 68,
      "hit": false,
      "t": 135575,
      "d": 50,
      "v": 127
    },
    {
      "midi": 69,
      "hit": false,
      "t": 135628.125,
      "d": 243.75,
      "v": 127
    },
    {
      "midi": 72,
      "hit": false,
      "t": 135875,
      "d": 96.875,
      "v": 127
    },
    {
      "midi": 72,
      "hit": false,
      "t": 136150,
      "d": 321.875,
      "v": 127
    },
    {
      "midi": 69,
      "hit": false,
      "t": 136475,
      "d": 221.875,
      "v": 115
    },
    {
      "midi": 72,
      "hit": false,
      "t": 136771.875,
      "d": 1925,
      "v": 127
    },
    {
      "midi": 55,
      "hit": false,
      "t": 137675,
      "d": 2021.875,
      "v": 63
    },
    {
      "midi": 62,
      "hit": false,
      "t": 138003.125,
      "d": 243.75,
      "v": 75
    },
    {
      "midi": 64,
      "hit": false,
      "t": 138275,
      "d": 71.875,
      "v": 67
    },
    {
      "midi": 67,
      "hit": false,
      "t": 138628.125,
      "d": 571.875,
      "v": 47
    },
    {
      "midi": 74,
      "hit": false,
      "t": 138875,
      "d": 346.875,
      "v": 67
    },
    {
      "midi": 72,
      "hit": false,
      "t": 139200,
      "d": 250,
      "v": 59
    },
    {
      "midi": 76,
      "hit": false,
      "t": 139200,
      "d": 421.875,
      "v": 63
    },
    {
      "midi": 67,
      "hit": false,
      "t": 139471.875,
      "d": 250,
      "v": 43
    },
    {
      "midi": 74,
      "hit": false,
      "t": 139771.875,
      "d": 275,
      "v": 63
    },
    {
      "midi": 71,
      "hit": false,
      "t": 139775,
      "d": 296.875,
      "v": 127
    },
    {
      "midi": 69,
      "hit": false,
      "t": 140075,
      "d": 300,
      "v": 119
    },
    {
      "midi": 67,
      "hit": false,
      "t": 140096.875,
      "d": 100,
      "v": 47
    },
    {
      "midi": 55,
      "hit": false,
      "t": 140400,
      "d": 771.875,
      "v": 63
    },
    {
      "midi": 69,
      "hit": false,
      "t": 140400,
      "d": 78.125,
      "v": 67
    },
    {
      "midi": 70,
      "hit": false,
      "t": 140425,
      "d": 25,
      "v": 127
    },
    {
      "midi": 71,
      "hit": false,
      "t": 140450,
      "d": 546.875,
      "v": 119
    },
    {
      "midi": 62,
      "hit": false,
      "t": 140700,
      "d": 275,
      "v": 67
    },
    {
      "midi": 64,
      "hit": false,
      "t": 140978.125,
      "d": 268.75,
      "v": 75
    },
    {
      "midi": 72,
      "hit": false,
      "t": 141025,
      "d": 471.875,
      "v": 123
    },
    {
      "midi": 67,
      "hit": false,
      "t": 141271.875,
      "d": 175,
      "v": 59
    },
    {
      "midi": 71,
      "hit": false,
      "t": 141450,
      "d": 121.875,
      "v": 91
    },
    {
      "midi": 70,
      "hit": false,
      "t": 141546.875,
      "d": 75,
      "v": 107
    },
    {
      "midi": 64,
      "hit": false,
      "t": 141575,
      "d": 325,
      "v": 63
    },
    {
      "midi": 67,
      "hit": false,
      "t": 141575,
      "d": 350,
      "v": 59
    },
    {
      "midi": 45,
      "hit": false,
      "t": 141575,
      "d": 1996.875,
      "v": 67
    },
    {
      "midi": 59,
      "hit": false,
      "t": 141578.125,
      "d": 268.75,
      "v": 63
    },
    {
      "midi": 60,
      "hit": false,
      "t": 141578.125,
      "d": 268.75,
      "v": 63
    },
    {
      "midi": 69,
      "hit": false,
      "t": 141621.875,
      "d": 800,
      "v": 115
    },
    {
      "midi": 52,
      "hit": false,
      "t": 142175,
      "d": 1421.875,
      "v": 63
    },
    {
      "midi": 57,
      "hit": false,
      "t": 142446.875,
      "d": 1278.125,
      "v": 67
    },
    {
      "midi": 69,
      "hit": false,
      "t": 142471.875,
      "d": 2078.125,
      "v": 123
    },
    {
      "midi": 71,
      "hit": false,
      "t": 142800,
      "d": 846.875,
      "v": 67
    },
    {
      "midi": 72,
      "hit": false,
      "t": 143071.875,
      "d": 553.125,
      "v": 59
    },
    {
      "midi": 76,
      "hit": false,
      "t": 143371.875,
      "d": 525,
      "v": 63
    },
    {
      "midi": 79,
      "hit": false,
      "t": 143671.875,
      "d": 125,
      "v": 59
    },
    {
      "midi": 74,
      "hit": false,
      "t": 143975,
      "d": 396.875,
      "v": 67
    },
    {
      "midi": 72,
      "hit": false,
      "t": 143978.125,
      "d": 371.875,
      "v": 63
    },
    {
      "midi": 77,
      "hit": false,
      "t": 143978.125,
      "d": 396.875,
      "v": 59
    },
    {
      "midi": 69,
      "hit": false,
      "t": 143978.125,
      "d": 493.75,
      "v": 59
    },
    {
      "midi": 50,
      "hit": false,
      "t": 143981.25,
      "d": 1893.75,
      "v": 63
    },
    {
      "midi": 57,
      "hit": false,
      "t": 144550,
      "d": 846.875,
      "v": 63
    },
    {
      "midi": 65,
      "hit": false,
      "t": 144600,
      "d": 571.875,
      "v": 127
    },
    {
      "midi": 64,
      "hit": false,
      "t": 144871.875,
      "d": 281.25,
      "v": 63
    },
    {
      "midi": 65,
      "hit": false,
      "t": 145171.875,
      "d": 550,
      "v": 59
    },
    {
      "midi": 67,
      "hit": false,
      "t": 145225,
      "d": 546.875,
      "v": 127
    },
    {
      "midi": 57,
      "hit": false,
      "t": 145446.875,
      "d": 578.125,
      "v": 59
    },
    {
      "midi": 71,
      "hit": false,
      "t": 145775,
      "d": 200,
      "v": 59
    },
    {
      "midi": 71,
      "hit": false,
      "t": 145825,
      "d": 550,
      "v": 127
    },
    {
      "midi": 50,
      "hit": false,
      "t": 146025,
      "d": 150,
      "v": 59
    },
    {
      "midi": 55,
      "hit": false,
      "t": 146196.875,
      "d": 625,
      "v": 47
    },
    {
      "midi": 43,
      "hit": false,
      "t": 146378.125,
      "d": 346.875,
      "v": 63
    },
    {
      "midi": 67,
      "hit": false,
      "t": 146378.125,
      "d": 793.75,
      "v": 55
    },
    {
      "midi": 69,
      "hit": false,
      "t": 146378.125,
      "d": 821.875,
      "v": 59
    },
    {
      "midi": 71,
      "hit": false,
      "t": 146378.125,
      "d": 893.75,
      "v": 59
    },
    {
      "midi": 74,
      "hit": false,
      "t": 146378.125,
      "d": 896.875,
      "v": 59
    },
    {
      "midi": 70,
      "hit": false,
      "t": 146400,
      "d": 25,
      "v": 111
    },
    {
      "midi": 71,
      "hit": false,
      "t": 146428.125,
      "d": 771.875,
      "v": 115
    },
    {
      "midi": 71,
      "hit": false,
      "t": 147275,
      "d": 1571.875,
      "v": 107
    },
    {
      "midi": 55,
      "hit": false,
      "t": 147278.125,
      "d": 3493.75,
      "v": 63
    },
    {
      "midi": 62,
      "hit": false,
      "t": 147571.875,
      "d": 475,
      "v": 55
    },
    {
      "midi": 74,
      "hit": false,
      "t": 147925,
      "d": 300,
      "v": 63
    },
    {
      "midi": 62,
      "hit": false,
      "t": 148203.125,
      "d": 993.75,
      "v": 63
    },
    {
      "midi": 69,
      "hit": false,
      "t": 148496.875,
      "d": 100,
      "v": 59
    },
    {
      "midi": 74,
      "hit": false,
      "t": 148500,
      "d": 2125,
      "v": 67
    },
    {
      "midi": 71,
      "hit": false,
      "t": 148521.875,
      "d": 325,
      "v": 55
    },
    {
      "midi": 69,
      "hit": false,
      "t": 148828.125,
      "d": 618.75,
      "v": 55
    },
    {
      "midi": 69,
      "hit": false,
      "t": 149428.125,
      "d": 318.75,
      "v": 127
    },
    {
      "midi": 67,
      "hit": false,
      "t": 149450,
      "d": 571.875,
      "v": 75
    },
    {
      "midi": 67,
      "hit": false,
      "t": 149725,
      "d": 225,
      "v": 115
    },
    {
      "midi": 69,
      "hit": false,
      "t": 149996.875,
      "d": 553.125,
      "v": 67
    },
    {
      "midi": 69,
      "hit": false,
      "t": 150000,
      "d": 671.875,
      "v": 127
    },
    {
      "midi": 62,
      "hit": false,
      "t": 150271.875,
      "d": 350,
      "v": 59
    },
    {
      "midi": 71,
      "hit": false,
      "t": 150571.875,
      "d": 150,
      "v": 67
    },
    {
      "midi": 70,
      "hit": false,
      "t": 150600,
      "d": 25,
      "v": 111
    },
    {
      "midi": 71,
      "hit": false,
      "t": 150625,
      "d": 428.125,
      "v": 115
    },
    {
      "midi": 55,
      "hit": false,
      "t": 151000,
      "d": 100,
      "v": 47
    },
    {
      "midi": 69,
      "hit": false,
      "t": 151000,
      "d": 100,
      "v": 71
    },
    {
      "midi": 68,
      "hit": false,
      "t": 151071.875,
      "d": 75,
      "v": 87
    },
    {
      "midi": 67,
      "hit": false,
      "t": 151150,
      "d": 400,
      "v": 111
    },
    {
      "midi": 72,
      "hit": false,
      "t": 151171.875,
      "d": 550,
      "v": 59
    },
    {
      "midi": 64,
      "hit": false,
      "t": 151175,
      "d": 471.875,
      "v": 59
    },
    {
      "midi": 67,
      "hit": false,
      "t": 151175,
      "d": 496.875,
      "v": 59
    },
    {
      "midi": 48,
      "hit": false,
      "t": 151196.875,
      "d": 1903.125,
      "v": 63
    },
    {
      "midi": 55,
      "hit": false,
      "t": 151200,
      "d": 1671.875,
      "v": 59
    },
    {
      "midi": 67,
      "hit": false,
      "t": 151596.875,
      "d": 1453.125,
      "v": 115
    },
    {
      "midi": 60,
      "hit": false,
      "t": 151796.875,
      "d": 725,
      "v": 59
    },
    {
      "midi": 72,
      "hit": false,
      "t": 152075,
      "d": 200,
      "v": 63
    },
    {
      "midi": 74,
      "hit": false,
      "t": 152378.125,
      "d": 368.75,
      "v": 75
    },
    {
      "midi": 76,
      "hit": false,
      "t": 152771.875,
      "d": 450,
      "v": 67
    },
    {
      "midi": 55,
      "hit": false,
      "t": 152946.875,
      "d": 325,
      "v": 55
    },
    {
      "midi": 77,
      "hit": false,
      "t": 153171.875,
      "d": 178.125,
      "v": 67
    },
    {
      "midi": 48,
      "hit": false,
      "t": 153271.875,
      "d": 100,
      "v": 15
    },
    {
      "midi": 55,
      "hit": false,
      "t": 153450,
      "d": 921.875,
      "v": 51
    },
    {
      "midi": 81,
      "hit": false,
      "t": 153571.875,
      "d": 475,
      "v": 59
    },
    {
      "midi": 77,
      "hit": false,
      "t": 153571.875,
      "d": 525,
      "v": 55
    },
    {
      "midi": 70,
      "hit": false,
      "t": 153575,
      "d": 396.875,
      "v": 63
    },
    {
      "midi": 48,
      "hit": false,
      "t": 153575,
      "d": 1850,
      "v": 55
    },
    {
      "midi": 79,
      "hit": false,
      "t": 154171.875,
      "d": 175,
      "v": 63
    },
    {
      "midi": 67,
      "hit": false,
      "t": 154171.875,
      "d": 575,
      "v": 127
    },
    {
      "midi": 70,
      "hit": false,
      "t": 154175,
      "d": 71.875,
      "v": 63
    },
    {
      "midi": 70,
      "hit": false,
      "t": 154371.875,
      "d": 75,
      "v": 15
    },
    {
      "midi": 55,
      "hit": false,
      "t": 154528.125,
      "d": 268.75,
      "v": 47
    },
    {
      "midi": 70,
      "hit": false,
      "t": 154771.875,
      "d": 325,
      "v": 75
    },
    {
      "midi": 77,
      "hit": false,
      "t": 154771.875,
      "d": 378.125,
      "v": 63
    },
    {
      "midi": 65,
      "hit": false,
      "t": 154800,
      "d": 596.875,
      "v": 127
    },
    {
      "midi": 70,
      "hit": false,
      "t": 155400,
      "d": 250,
      "v": 75
    },
    {
      "midi": 64,
      "hit": false,
      "t": 155400,
      "d": 625,
      "v": 115
    },
    {
      "midi": 76,
      "hit": false,
      "t": 155425,
      "d": 96.875,
      "v": 63
    },
    {
      "midi": 72,
      "hit": false,
      "t": 155996.875,
      "d": 503.125,
      "v": 63
    },
    {
      "midi": 69,
      "hit": false,
      "t": 155996.875,
      "d": 600,
      "v": 59
    },
    {
      "midi": 53,
      "hit": false,
      "t": 156031.25,
      "d": 893.75,
      "v": 55
    },
    {
      "midi": 68,
      "hit": false,
      "t": 156031.25,
      "d": 21.875,
      "v": 123
    },
    {
      "midi": 69,
      "hit": false,
      "t": 156053.125,
      "d": 718.75,
      "v": 127
    },
    {
      "midi": 60,
      "hit": false,
      "t": 156600,
      "d": 296.875,
      "v": 59
    },
    {
      "midi": 69,
      "hit": false,
      "t": 156846.875,
      "d": 275,
      "v": 63
    },
    {
      "midi": 69,
      "hit": false,
      "t": 156846.875,
      "d": 2575,
      "v": 115
    },
    {
      "midi": 53,
      "hit": false,
      "t": 157196.875,
      "d": 1050,
      "v": 59
    },
    {
      "midi": 73,
      "hit": false,
      "t": 157200,
      "d": 496.875,
      "v": 71
    },
    {
      "midi": 69,
      "hit": false,
      "t": 157225,
      "d": 500,
      "v": 47
    },
    {
      "midi": 61,
      "hit": false,
      "t": 157800,
      "d": 321.875,
      "v": 63
    },
    {
      "midi": 65,
      "hit": false,
      "t": 157975,
      "d": 321.875,
      "v": 63
    },
    {
      "midi": 69,
      "hit": false,
      "t": 158100,
      "d": 221.875,
      "v": 63
    },
    {
      "midi": 73,
      "hit": false,
      "t": 158246.875,
      "d": 175,
      "v": 71
    },
    {
      "midi": 65,
      "hit": false,
      "t": 158425,
      "d": 575,
      "v": 51
    },
    {
      "midi": 69,
      "hit": false,
      "t": 158425,
      "d": 621.875,
      "v": 63
    },
    {
      "midi": 74,
      "hit": false,
      "t": 158425,
      "d": 646.875,
      "v": 67
    },
    {
      "midi": 53,
      "hit": false,
      "t": 158425,
      "d": 846.875,
      "v": 59
    },
    {
      "midi": 62,
      "hit": false,
      "t": 158971.875,
      "d": 431.25,
      "v": 63
    },
    {
      "midi": 65,
      "hit": false,
      "t": 159250,
      "d": 221.875,
      "v": 59
    },
    {
      "midi": 65,
      "hit": false,
      "t": 159546.875,
      "d": 81.25,
      "v": 103
    },
    {
      "midi": 67,
      "hit": false,
      "t": 159571.875,
      "d": 325,
      "v": 127
    },
    {
      "midi": 57,
      "hit": false,
      "t": 159575,
      "d": 750,
      "v": 63
    },
    {
      "midi": 76,
      "hit": false,
      "t": 159600,
      "d": 246.875,
      "v": 59
    },
    {
      "midi": 69,
      "hit": false,
      "t": 159846.875,
      "d": 728.125,
      "v": 59
    },
    {
      "midi": 65,
      "hit": false,
      "t": 159871.875,
      "d": 300,
      "v": 111
    },
    {
      "midi": 73,
      "hit": false,
      "t": 160171.875,
      "d": 356.25,
      "v": 59
    },
    {
      "midi": 64,
      "hit": false,
      "t": 160200,
      "d": 246.875,
      "v": 119
    },
    {
      "midi": 64,
      "hit": false,
      "t": 160231.25,
      "d": 40.625,
      "v": 39
    },
    {
      "midi": 65,
      "hit": false,
      "t": 160425,
      "d": 103.125,
      "v": 107
    },
    {
      "midi": 66,
      "hit": false,
      "t": 160446.875,
      "d": 50,
      "v": 115
    },
    {
      "midi": 76,
      "hit": false,
      "t": 160475,
      "d": 346.875,
      "v": 59
    },
    {
      "midi": 67,
      "hit": false,
      "t": 160496.875,
      "d": 278.125,
      "v": 123
    },
    {
      "midi": 69,
      "hit": false,
      "t": 160775,
      "d": 675,
      "v": 55
    },
    {
      "midi": 77,
      "hit": false,
      "t": 160775,
      "d": 775,
      "v": 55
    },
    {
      "midi": 74,
      "hit": false,
      "t": 160775,
      "d": 875,
      "v": 63
    },
    {
      "midi": 50,
      "hit": false,
      "t": 160775,
      "d": 2125,
      "v": 63
    },
    {
      "midi": 65,
      "hit": false,
      "t": 160800,
      "d": 1225,
      "v": 127
    },
    {
      "midi": 57,
      "hit": false,
      "t": 161400,
      "d": 753.125,
      "v": 59
    },
    {
      "midi": 62,
      "hit": false,
      "t": 161650,
      "d": 471.875,
      "v": 59
    },
    {
      "midi": 69,
      "hit": false,
      "t": 161975,
      "d": 596.875,
      "v": 63
    },
    {
      "midi": 57,
      "hit": false,
      "t": 162275,
      "d": 371.875,
      "v": 55
    },
    {
      "midi": 77,
      "hit": false,
      "t": 162571.875,
      "d": 328.125,
      "v": 59
    },
    {
      "midi": 57,
      "hit": false,
      "t": 162871.875,
      "d": 53.125,
      "v": 39
    },
    {
      "midi": 67,
      "hit": false,
      "t": 162928.125,
      "d": 68.75,
      "v": 35
    },
    {
      "midi": 79,
      "hit": false,
      "t": 163178.125,
      "d": 550,
      "v": 59
    },
    {
      "midi": 71,
      "hit": false,
      "t": 163196.875,
      "d": 500,
      "v": 59
    },
    {
      "midi": 55,
      "hit": false,
      "t": 163200,
      "d": 275,
      "v": 59
    },
    {
      "midi": 74,
      "hit": false,
      "t": 163200,
      "d": 546.875,
      "v": 63
    },
    {
      "midi": 67,
      "hit": false,
      "t": 163200,
      "d": 696.875,
      "v": 51
    },
    {
      "midi": 55,
      "hit": false,
      "t": 163771.875,
      "d": 1381.25,
      "v": 63
    },
    {
      "midi": 65,
      "hit": false,
      "t": 163771.875,
      "d": 550,
      "v": 127
    },
    {
      "midi": 67,
      "hit": false,
      "t": 164096.875,
      "d": 275,
      "v": 63
    },
    {
      "midi": 67,
      "hit": false,
      "t": 164375,
      "d": 625,
      "v": 127
    },
    {
      "midi": 69,
      "hit": false,
      "t": 164396.875,
      "d": 175,
      "v": 55
    },
    {
      "midi": 62,
      "hit": false,
      "t": 164671.875,
      "d": 200,
      "v": 63
    },
    {
      "midi": 62,
      "hit": false,
      "t": 165003.125,
      "d": 118.75,
      "v": 59
    },
    {
      "midi": 65,
      "hit": false,
      "t": 165006.25,
      "d": 540.625,
      "v": 127
    },
    {
      "midi": 77,
      "hit": false,
      "t": 165221.875,
      "d": 75,
      "v": 59
    },
    {
      "midi": 64,
      "hit": false,
      "t": 165571.875,
      "d": 300,
      "v": 115
    },
    {
      "midi": 48,
      "hit": false,
      "t": 165600,
      "d": 625,
      "v": 63
    },
    {
      "midi": 76,
      "hit": false,
      "t": 165631.25,
      "d": 596.875,
      "v": 63
    },
    {
      "midi": 67,
      "hit": false,
      "t": 165631.25,
      "d": 643.75,
      "v": 55
    },
    {
      "midi": 72,
      "hit": false,
      "t": 165631.25,
      "d": 643.75,
      "v": 63
    },
    {
      "midi": 65,
      "hit": false,
      "t": 165634.375,
      "d": 87.5,
      "v": 59
    },
    {
      "midi": 64,
      "hit": false,
      "t": 165946.875,
      "d": 450,
      "v": 115
    },
    {
      "midi": 60,
      "hit": false,
      "t": 166175,
      "d": 221.875,
      "v": 63
    },
    {
      "midi": 67,
      "hit": false,
      "t": 166475,
      "d": 103.125,
      "v": 55
    },
    {
      "midi": 64,
      "hit": false,
      "t": 166503.125,
      "d": 271.875,
      "v": 123
    },
    {
      "midi": 55,
      "hit": false,
      "t": 166775,
      "d": 421.875,
      "v": 63
    },
    {
      "midi": 71,
      "hit": false,
      "t": 166775,
      "d": 446.875,
      "v": 55
    },
    {
      "midi": 67,
      "hit": false,
      "t": 166775,
      "d": 650,
      "v": 51
    },
    {
      "midi": 74,
      "hit": false,
      "t": 166800,
      "d": 550,
      "v": 59
    },
    {
      "midi": 62,
      "hit": false,
      "t": 166828.125,
      "d": 243.75,
      "v": 127
    },
    {
      "midi": 60,
      "hit": false,
      "t": 167100,
      "d": 271.875,
      "v": 115
    },
    {
      "midi": 55,
      "hit": false,
      "t": 167353.125,
      "d": 118.75,
      "v": 43
    },
    {
      "midi": 61,
      "hit": false,
      "t": 167371.875,
      "d": 50,
      "v": 127
    },
    {
      "midi": 62,
      "hit": false,
      "t": 167425,
      "d": 546.875,
      "v": 123
    },
    {
      "midi": 60,
      "hit": false,
      "t": 167646.875,
      "d": 725,
      "v": 51
    },
    {
      "midi": 72,
      "hit": false,
      "t": 167950,
      "d": 446.875,
      "v": 59
    },
    {
      "midi": 64,
      "hit": false,
      "t": 167975,
      "d": 296.875,
      "v": 59
    },
    {
      "midi": 67,
      "hit": false,
      "t": 167975,
      "d": 346.875,
      "v": 59
    },
    {
      "midi": 48,
      "hit": false,
      "t": 167975,
      "d": 3096.875,
      "v": 63
    },
    {
      "midi": 60,
      "hit": false,
      "t": 168003.125,
      "d": 1293.75,
      "v": 127
    },
    {
      "midi": 91,
      "hit": false,
      "t": 168871.875,
      "d": 153.125,
      "v": 59
    },
    {
      "midi": 84,
      "hit": false,
      "t": 169175,
      "d": 153.125,
      "v": 47
    },
    {
      "midi": 86,
      "hit": false,
      "t": 169175,
      "d": 171.875,
      "v": 43
    },
    {
      "midi": 88,
      "hit": false,
      "t": 169196.875,
      "d": 200,
      "v": 51
    },
    {
      "midi": 60,
      "hit": false,
      "t": 169746.875,
      "d": 503.125,
      "v": 59
    },
    {
      "midi": 79,
      "hit": false,
      "t": 170071.875,
      "d": 250,
      "v": 59
    },
    {
      "midi": 72,
      "hit": false,
      "t": 170371.875,
      "d": 125,
      "v": 51
    },
    {
      "midi": 74,
      "hit": false,
      "t": 170400,
      "d": 221.875,
      "v": 59
    },
    {
      "midi": 76,
      "hit": false,
      "t": 170400,
      "d": 253.125,
      "v": 51
    },
    {
      "midi": 55,
      "hit": false,
      "t": 171003.125,
      "d": 371.875,
      "v": 63
    },
    {
      "midi": 67,
      "hit": false,
      "t": 171296.875,
      "d": 125,
      "v": 75
    },
    {
      "midi": 55,
      "hit": false,
      "t": 171578.125,
      "d": 468.75,
      "v": 63
    },
    {
      "midi": 67,
      "hit": false,
      "t": 171875,
      "d": 221.875,
      "v": 59
    },
    {
      "midi": 62,
      "hit": false,
      "t": 172178.125,
      "d": 100,
      "v": 63
    },
    {
      "midi": 67,
      "hit": false,
      "t": 172178.125,
      "d": 168.75,
      "v": 55
    },
    {
      "midi": 64,
      "hit": false,
      "t": 172225,
      "d": 153.125,
      "v": 67
    },
    {
      "midi": 67,
      "hit": false,
      "t": 172425,
      "d": 196.875,
      "v": 51
    },
    {
      "midi": 48,
      "hit": false,
      "t": 172800,
      "d": 71.875,
      "v": 63
    },
    {
      "midi": 62,
      "hit": false,
      "t": 172803.125,
      "d": 68.75,
      "v": 63
    },
    {
      "midi": 60,
      "hit": false,
      "t": 172831.25,
      "d": 40.625,
      "v": 59
    },
    {
      "midi": 55,
      "hit": false,
      "t": 172831.25,
      "d": 46.875,
      "v": 55
    },
    {
      "midi": 67,
      "hit": false,
      "t": 172831.25,
      "d": 46.875,
      "v": 55
    },
    {
      "midi": 64,
      "hit": false,
      "t": 172834.375,
      "d": 43.75,
      "v": 63
    }
  ]
}