{
  "jsonPath": "Unknown/Unknown/West End Orchestra  Singers/memory-sound-a-like-cover.json",
  "path": "Unknown\\Unknown\\West End Orchestra  Singers\\Memory - Sound-a-like Cover.mid",
  "name": "Memory - Sound-a-like Cover",
  "difficulty": "Advanced",
  "bpm": 86.00017486702222,
  "notes": [
    {
      "midi": 38,
      "hit": false,
      "t": 100344.75400000002,
      "d": 1934.26582291667,
      "v": 111
    },
    {
      "midi": 53,
      "hit": false,
      "t": 100689.58133333335,
      "d": 1007.5423645833362,
      "v": 99
    },
    {
      "midi": 57,
      "hit": false,
      "t": 101034.40866666668,
      "d": 393.31867708334175,
      "v": 101
    },
    {
      "midi": 62,
      "hit": false,
      "t": 101379.23600000002,
      "d": 980.6027291666687,
      "v": 110
    },
    {
      "midi": 57,
      "hit": false,
      "t": 101724.06333333335,
      "d": 668.1029583333293,
      "v": 103
    },
    {
      "midi": 53,
      "hit": false,
      "t": 102068.89066666669,
      "d": 339.4394062499923,
      "v": 99
    },
    {
      "midi": 48,
      "hit": false,
      "t": 102413.71800000001,
      "d": 2090.515708333347,
      "v": 101
    },
    {
      "midi": 51,
      "hit": false,
      "t": 102758.54533333334,
      "d": 996.7665104166663,
      "v": 100
    },
    {
      "midi": 55,
      "hit": false,
      "t": 103103.37266666668,
      "d": 350.2152604166622,
      "v": 101
    },
    {
      "midi": 60,
      "hit": false,
      "t": 103448.20000000001,
      "d": 818.9649166666641,
      "v": 107
    },
    {
      "midi": 55,
      "hit": false,
      "t": 103793.02733333335,
      "d": 592.6719791666692,
      "v": 98
    },
    {
      "midi": 51,
      "hit": false,
      "t": 104137.85466666668,
      "d": 334.05147916666465,
      "v": 98
    },
    {
      "midi": 38,
      "hit": false,
      "t": 104482.68200000002,
      "d": 2106.67948958333,
      "v": 101
    },
    {
      "midi": 57,
      "hit": false,
      "t": 104827.50933333335,
      "d": 1034.4820000000036,
      "v": 96
    },
    {
      "midi": 62,
      "hit": false,
      "t": 105172.33666666668,
      "d": 371.766968750002,
      "v": 101
    },
    {
      "midi": 65,
      "hit": false,
      "t": 105517.16400000002,
      "d": 1066.8095624999987,
      "v": 108
    },
    {
      "midi": 62,
      "hit": false,
      "t": 105861.99133333335,
      "d": 721.9822291666642,
      "v": 103
    },
    {
      "midi": 57,
      "hit": false,
      "t": 106206.81866666669,
      "d": 404.0945312499971,
      "v": 102
    },
    {
      "midi": 48,
      "hit": false,
      "t": 106551.64600000002,
      "d": 2042.0243645833398,
      "v": 108
    },
    {
      "midi": 55,
      "hit": false,
      "t": 106896.47333333336,
      "d": 1045.2578541666735,
      "v": 101
    },
    {
      "midi": 60,
      "hit": false,
      "t": 107241.30066666669,
      "d": 377.15489583332965,
      "v": 103
    },
    {
      "midi": 63,
      "hit": false,
      "t": 107586.12800000003,
      "d": 732.7580833333341,
      "v": 105
    },
    {
      "midi": 60,
      "hit": false,
      "t": 107930.95533333336,
      "d": 436.42209375000675,
      "v": 102
    },
    {
      "midi": 55,
      "hit": false,
      "t": 108275.7826666667,
      "d": 188.5774479166721,
      "v": 99
    },
    {
      "midi": 38,
      "hit": false,
      "t": 108620.61000000003,
      "d": 2106.67948958333,
      "v": 101
    },
    {
      "midi": 57,
      "hit": false,
      "t": 108965.43733333336,
      "d": 1034.4820000000036,
      "v": 96
    },
    {
      "midi": 62,
      "hit": false,
      "t": 109310.2646666667,
      "d": 371.766968750002,
      "v": 101
    },
    {
      "midi": 65,
      "hit": false,
      "t": 109655.09200000003,
      "d": 1066.8095624999987,
      "v": 108
    },
    {
      "midi": 62,
      "hit": false,
      "t": 109999.91933333337,
      "d": 721.9822291666642,
      "v": 103
    },
    {
      "midi": 57,
      "hit": false,
      "t": 110344.7466666667,
      "d": 404.0945312499971,
      "v": 102
    },
    {
      "midi": 46,
      "hit": false,
      "t": 110689.57400000004,
      "d": 1007.5423645833362,
      "v": 108
    },
    {
      "midi": 58,
      "hit": false,
      "t": 111034.40133333337,
      "d": 792.0252812499966,
      "v": 101
    },
    {
      "midi": 62,
      "hit": false,
      "t": 111379.2286666667,
      "d": 377.15489583332965,
      "v": 103
    },
    {
      "midi": 64,
      "hit": false,
      "t": 111724.05600000004,
      "d": 732.7580833333341,
      "v": 105
    },
    {
      "midi": 48,
      "hit": false,
      "t": 111724.05600000004,
      "d": 1007.5423645833362,
      "v": 108
    },
    {
      "midi": 60,
      "hit": false,
      "t": 112068.88333333338,
      "d": 436.42209375000675,
      "v": 102
    },
    {
      "midi": 55,
      "hit": false,
      "t": 112413.71066666671,
      "d": 188.5774479166721,
      "v": 99
    },
    {
      "midi": 53,
      "hit": false,
      "t": 113103.36533333338,
      "d": 1406.2489687500056,
      "v": 96
    },
    {
      "midi": 57,
      "hit": false,
      "t": 113448.19266666671,
      "d": 371.766968750002,
      "v": 101
    },
    {
      "midi": 60,
      "hit": false,
      "t": 113793.02000000005,
      "d": 673.4908854166715,
      "v": 96
    },
    {
      "midi": 57,
      "hit": false,
      "t": 114137.84733333338,
      "d": 517.2410000000091,
      "v": 101
    },
    {
      "midi": 60,
      "hit": false,
      "t": 114482.67466666672,
      "d": 404.09453125001164,
      "v": 102
    },
    {
      "midi": 41,
      "hit": false,
      "t": 114827.50200000005,
      "d": 37.71548958333733,
      "v": 101
    },
    {
      "midi": 64,
      "hit": false,
      "t": 114827.50200000005,
      "d": 641.1633229166764,
      "v": 108
    },
    {
      "midi": 65,
      "hit": false,
      "t": 115517.15666666673,
      "d": 204.74122916666965,
      "v": 103
    },
    {
      "midi": 69,
      "hit": false,
      "t": 115861.98400000007,
      "d": 1309.2662812499475,
      "v": 109
    },
    {
      "midi": 65,
      "hit": false,
      "t": 116034.39766666673,
      "d": 1131.4646874999598,
      "v": 106
    },
    {
      "midi": 64,
      "hit": false,
      "t": 116206.81133333339,
      "d": 932.1113854166324,
      "v": 101
    },
    {
      "midi": 60,
      "hit": false,
      "t": 116379.22500000005,
      "d": 781.2494270833122,
      "v": 101
    },
    {
      "midi": 53,
      "hit": false,
      "t": 116551.63866666671,
      "d": 414.8703854166524,
      "v": 97
    },
    {
      "midi": 52,
      "hit": false,
      "t": 116724.05233333337,
      "d": 237.06879166666477,
      "v": 104
    },
    {
      "midi": 50,
      "hit": false,
      "t": 116896.46600000003,
      "d": 1287.7145729166514,
      "v": 103
    },
    {
      "midi": 53,
      "hit": false,
      "t": 117413.70700000002,
      "d": 840.5166249999893,
      "v": 109
    },
    {
      "midi": 57,
      "hit": false,
      "t": 117930.94800000002,
      "d": 468.74965625000186,
      "v": 101
    },
    {
      "midi": 65,
      "hit": false,
      "t": 118448.18900000003,
      "d": 1012.9302916666638,
      "v": 109
    },
    {
      "midi": 62,
      "hit": false,
      "t": 118965.43000000002,
      "d": 818.9649166666786,
      "v": 126
    },
    {
      "midi": 60,
      "hit": false,
      "t": 119482.67100000003,
      "d": 404.0945312499971,
      "v": 109
    },
    {
      "midi": 58,
      "hit": false,
      "t": 119999.91200000003,
      "d": 985.9906562499964,
      "v": 105
    },
    {
      "midi": 62,
      "hit": false,
      "t": 119999.91200000003,
      "d": 985.9906562499964,
      "v": 121
    },
    {
      "midi": 58,
      "hit": false,
      "t": 121034.39400000003,
      "d": 985.9906562499964,
      "v": 103
    },
    {
      "midi": 65,
      "hit": false,
      "t": 121034.39400000003,
      "d": 985.9906562499964,
      "v": 103
    },
    {
      "midi": 53,
      "hit": false,
      "t": 122068.87600000003,
      "d": 985.9906562499964,
      "v": 103
    },
    {
      "midi": 58,
      "hit": false,
      "t": 122068.87600000003,
      "d": 985.9906562499964,
      "v": 103
    },
    {
      "midi": 64,
      "hit": false,
      "t": 123103.35800000004,
      "d": 985.9906562499964,
      "v": 105
    },
    {
      "midi": 67,
      "hit": false,
      "t": 123103.35800000004,
      "d": 985.9906562499964,
      "v": 105
    },
    {
      "midi": 64,
      "hit": false,
      "t": 124137.84000000004,
      "d": 2020.47265625,
      "v": 105
    },
    {
      "midi": 60,
      "hit": false,
      "t": 124137.84000000004,
      "d": 2047.4122916666674,
      "v": 109
    },
    {
      "midi": 58,
      "hit": false,
      "t": 125689.56300000004,
      "d": 484.9134374999994,
      "v": 109
    },
    {
      "midi": 57,
      "hit": false,
      "t": 126206.80400000005,
      "d": 985.9906562499964,
      "v": 105
    },
    {
      "midi": 60,
      "hit": false,
      "t": 126206.80400000005,
      "d": 985.9906562499964,
      "v": 105
    },
    {
      "midi": 57,
      "hit": false,
      "t": 127241.28600000005,
      "d": 985.9906562499964,
      "v": 103
    },
    {
      "midi": 64,
      "hit": false,
      "t": 127241.28600000005,
      "d": 985.9906562499964,
      "v": 103
    },
    {
      "midi": 57,
      "hit": false,
      "t": 128275.76800000005,
      "d": 818.9649166666641,
      "v": 110
    },
    {
      "midi": 64,
      "hit": false,
      "t": 128793.00900000005,
      "d": 404.0945312499971,
      "v": 109
    },
    {
      "midi": 57,
      "hit": false,
      "t": 129310.25000000004,
      "d": 2537.7136562499945,
      "v": 105
    },
    {
      "midi": 65,
      "hit": false,
      "t": 129310.25000000004,
      "d": 2537.7136562499945,
      "v": 105
    },
    {
      "midi": 57,
      "hit": false,
      "t": 131896.45500000005,
      "d": 2020.47265625,
      "v": 105
    },
    {
      "midi": 65,
      "hit": false,
      "t": 131896.45500000005,
      "d": 2020.47265625,
      "v": 105
    },
    {
      "midi": 57,
      "hit": false,
      "t": 133965.41900000005,
      "d": 985.9906562500109,
      "v": 103
    },
    {
      "midi": 65,
      "hit": false,
      "t": 133965.41900000005,
      "d": 985.9906562500109,
      "v": 103
    },
    {
      "midi": 57,
      "hit": false,
      "t": 134999.90100000007,
      "d": 468.74965625000186,
      "v": 103
    },
    {
      "midi": 65,
      "hit": false,
      "t": 134999.90100000007,
      "d": 468.74965625000186,
      "v": 103
    },
    {
      "midi": 60,
      "hit": false,
      "t": 135517.14200000008,
      "d": 1535.559218749986,
      "v": 109
    },
    {
      "midi": 64,
      "hit": false,
      "t": 135517.14200000008,
      "d": 1535.559218749986,
      "v": 109
    },
    {
      "midi": 64,
      "hit": false,
      "t": 137068.86500000008,
      "d": 1535.559218749986,
      "v": 109
    },
    {
      "midi": 72,
      "hit": false,
      "t": 137068.86500000008,
      "d": 1535.559218749986,
      "v": 109
    },
    {
      "midi": 60,
      "hit": false,
      "t": 138620.58800000008,
      "d": 3087.2822187500133,
      "v": 109
    },
    {
      "midi": 64,
      "hit": false,
      "t": 138620.58800000008,
      "d": 3087.2822187500133,
      "v": 109
    },
    {
      "midi": 58,
      "hit": false,
      "t": 184655.0370000001,
      "d": 404.09453125001164,
      "v": 100
    },
    {
      "midi": 70,
      "hit": false,
      "t": 184655.0370000001,
      "d": 404.09453125001164,
      "v": 100
    },
    {
      "midi": 58,
      "hit": false,
      "t": 185172.2780000001,
      "d": 425.6462395833223,
      "v": 97
    },
    {
      "midi": 72,
      "hit": false,
      "t": 185172.2780000001,
      "d": 425.6462395833223,
      "v": 97
    },
    {
      "midi": 56,
      "hit": false,
      "t": 185689.5190000001,
      "d": 409.4824583333393,
      "v": 100
    },
    {
      "midi": 74,
      "hit": false,
      "t": 185689.5190000001,
      "d": 409.4824583333393,
      "v": 100
    },
    {
      "midi": 56,
      "hit": false,
      "t": 186206.7600000001,
      "d": 382.54282291667187,
      "v": 100
    },
    {
      "midi": 75,
      "hit": false,
      "t": 186206.7600000001,
      "d": 382.54282291667187,
      "v": 100
    },
    {
      "midi": 56,
      "hit": false,
      "t": 186724.0010000001,
      "d": 387.93074999999953,
      "v": 97
    },
    {
      "midi": 77,
      "hit": false,
      "t": 186724.0010000001,
      "d": 387.93074999999953,
      "v": 97
    },
    {
      "midi": 70,
      "hit": false,
      "t": 187241.24200000011,
      "d": 1287.7145729166514,
      "v": 117
    },
    {
      "midi": 61,
      "hit": false,
      "t": 187241.24200000011,
      "d": 1341.5938437499863,
      "v": 117
    },
    {
      "midi": 66,
      "hit": false,
      "t": 187252.01785416677,
      "d": 1282.3266458333237,
      "v": 117
    },
    {
      "midi": 66,
      "hit": false,
      "t": 188782.18914583343,
      "d": 1487.067875000008,
      "v": 113
    },
    {
      "midi": 61,
      "hit": false,
      "t": 188787.57707291676,
      "d": 1249.9990833333577,
      "v": 113
    },
    {
      "midi": 70,
      "hit": false,
      "t": 188803.74085416677,
      "d": 1573.274708333338,
      "v": 114
    },
    {
      "midi": 61,
      "hit": false,
      "t": 190344.6880000001,
      "d": 2015.0847291666723,
      "v": 118
    },
    {
      "midi": 66,
      "hit": false,
      "t": 190867.31692708345,
      "d": 2052.800218749995,
      "v": 116
    },
    {
      "midi": 70,
      "hit": false,
      "t": 191363.00621875012,
      "d": 565.7323437499872,
      "v": 116
    },
    {
      "midi": 73,
      "hit": false,
      "t": 191901.79892708344,
      "d": 1702.5849583333766,
      "v": 116
    },
    {
      "midi": 70,
      "hit": false,
      "t": 192419.03992708345,
      "d": 1034.4820000000182,
      "v": 116
    },
    {
      "midi": 61,
      "hit": false,
      "t": 192914.72921875012,
      "d": 614.2236875000235,
      "v": 116
    },
    {
      "midi": 66,
      "hit": false,
      "t": 193437.35814583345,
      "d": 1535.5592187500442,
      "v": 113
    },
    {
      "midi": 58,
      "hit": false,
      "t": 193453.52192708346,
      "d": 1503.23165625002,
      "v": 112
    },
    {
      "midi": 58,
      "hit": false,
      "t": 195005.2449270835,
      "d": 1298.4904270833358,
      "v": 112
    },
    {
      "midi": 66,
      "hit": false,
      "t": 195005.2449270835,
      "d": 1314.654208333348,
      "v": 106
    },
    {
      "midi": 75,
      "hit": false,
      "t": 195005.2449270835,
      "d": 1330.81798958336,
      "v": 112
    },
    {
      "midi": 75,
      "hit": false,
      "t": 196540.8041458335,
      "d": 1524.7833645833016,
      "v": 113
    },
    {
      "midi": 58,
      "hit": false,
      "t": 196551.58000000016,
      "d": 1293.102499999979,
      "v": 115
    },
    {
      "midi": 66,
      "hit": false,
      "t": 196562.35585416682,
      "d": 1783.4038645833207,
      "v": 113
    },
    {
      "midi": 58,
      "hit": false,
      "t": 198092.52714583348,
      "d": 1530.1712916666584,
      "v": 117
    },
    {
      "midi": 75,
      "hit": false,
      "t": 198625.93192708347,
      "d": 1039.8699270833458,
      "v": 116
    },
    {
      "midi": 66,
      "hit": false,
      "t": 199121.62121875014,
      "d": 280.17220833332976,
      "v": 114
    },
    {
      "midi": 59,
      "hit": false,
      "t": 199671.18978125014,
      "d": 1815.731427083345,
      "v": 112
    },
    {
      "midi": 66,
      "hit": false,
      "t": 200156.10321875016,
      "d": 2095.9036354166747,
      "v": 108
    },
    {
      "midi": 71,
      "hit": false,
      "t": 200700.28385416683,
      "d": 1713.3608125000028,
      "v": 113
    },
    {
      "midi": 75,
      "hit": false,
      "t": 201201.36107291683,
      "d": 1099.1371250000084,
      "v": 116
    },
    {
      "midi": 75,
      "hit": false,
      "t": 202747.6961458335,
      "d": 1147.6284687499865,
      "v": 114
    },
    {
      "midi": 66,
      "hit": false,
      "t": 202753.08407291683,
      "d": 1266.1628645833116,
      "v": 116
    },
    {
      "midi": 59,
      "hit": false,
      "t": 202763.85992708348,
      "d": 1293.102499999979,
      "v": 116
    },
    {
      "midi": 71,
      "hit": false,
      "t": 202763.85992708348,
      "d": 1325.4300624999742,
      "v": 116
    },
    {
      "midi": 59,
      "hit": false,
      "t": 204294.0312187501,
      "d": 862.0683333333291,
      "v": 113
    },
    {
      "midi": 63,
      "hit": false,
      "t": 204294.0312187501,
      "d": 862.0683333333291,
      "v": 116
    },
    {
      "midi": 54,
      "hit": false,
      "t": 204320.97085416678,
      "d": 1341.5938437499863,
      "v": 107
    },
    {
      "midi": 66,
      "hit": false,
      "t": 205344.6770000001,
      "d": 409.4824583333102,
      "v": 116
    },
    {
      "midi": 63,
      "hit": false,
      "t": 205344.6770000001,
      "d": 425.6462395833223,
      "v": 112
    },
    {
      "midi": 54,
      "hit": false,
      "t": 205845.7542187501,
      "d": 1637.929833333299,
      "v": 112
    },
    {
      "midi": 61,
      "hit": false,
      "t": 205851.14214583344,
      "d": 1535.559218749986,
      "v": 116
    },
    {
      "midi": 66,
      "hit": false,
      "t": 205856.53007291676,
      "d": 1567.8867812499811,
      "v": 116
    },
    {
      "midi": 58,
      "hit": false,
      "t": 205867.30592708342,
      "d": 1605.602270833333,
      "v": 111
    },
    {
      "midi": 34,
      "hit": false,
      "t": 208965.3640000001,
      "d": 1934.265822916641,
      "v": 111
    },
    {
      "midi": 49,
      "hit": false,
      "t": 209310.1913333334,
      "d": 1007.5423645833216,
      "v": 99
    },
    {
      "midi": 53,
      "hit": false,
      "t": 209655.01866666673,
      "d": 393.3186770833272,
      "v": 101
    },
    {
      "midi": 58,
      "hit": false,
      "t": 209999.84600000005,
      "d": 980.6027291666833,
      "v": 110
    },
    {
      "midi": 53,
      "hit": false,
      "t": 210344.6733333334,
      "d": 684.2667395833414,
      "v": 103
    },
    {
      "midi": 49,
      "hit": false,
      "t": 210689.50066666672,
      "d": 323.2756250000093,
      "v": 99
    },
    {
      "midi": 44,
      "hit": false,
      "t": 211034.32800000007,
      "d": 2090.5157083332597,
      "v": 101
    },
    {
      "midi": 47,
      "hit": false,
      "t": 211379.1553333334,
      "d": 996.7665104166372,
      "v": 100
    },
    {
      "midi": 51,
      "hit": false,
      "t": 211723.9826666667,
      "d": 350.21526041664765,
      "v": 101
    },
    {
      "midi": 56,
      "hit": false,
      "t": 212068.81000000003,
      "d": 818.9649166666495,
      "v": 107
    },
    {
      "midi": 51,
      "hit": false,
      "t": 212413.63733333335,
      "d": 678.8788124999846,
      "v": 98
    },
    {
      "midi": 47,
      "hit": false,
      "t": 212758.46466666667,
      "d": 247.84464583333465,
      "v": 98
    },
    {
      "midi": 34,
      "hit": false,
      "t": 213103.292,
      "d": 2106.679489583272,
      "v": 101
    },
    {
      "midi": 53,
      "hit": false,
      "t": 213448.11933333334,
      "d": 1034.48199999996,
      "v": 96
    },
    {
      "midi": 58,
      "hit": false,
      "t": 213792.94666666666,
      "d": 371.7669687499874,
      "v": 101
    },
    {
      "midi": 61,
      "hit": false,
      "t": 214137.77399999998,
      "d": 1066.809562499955,
      "v": 108
    },
    {
      "midi": 58,
      "hit": false,
      "t": 214482.6013333333,
      "d": 721.9822291666351,
      "v": 103
    },
    {
      "midi": 53,
      "hit": false,
      "t": 214827.42866666662,
      "d": 404.09453124998254,
      "v": 102
    },
    {
      "midi": 44,
      "hit": false,
      "t": 215172.25599999994,
      "d": 2042.0243645833107,
      "v": 108
    },
    {
      "midi": 51,
      "hit": false,
      "t": 215517.08333333326,
      "d": 1045.2578541666153,
      "v": 101
    },
    {
      "midi": 56,
      "hit": false,
      "t": 215861.91066666658,
      "d": 377.1548958333151,
      "v": 103
    },
    {
      "midi": 59,
      "hit": false,
      "t": 216206.7379999999,
      "d": 732.7580833333195,
      "v": 105
    },
    {
      "midi": 56,
      "hit": false,
      "t": 216551.56533333322,
      "d": 436.42209375000675,
      "v": 102
    },
    {
      "midi": 51,
      "hit": false,
      "t": 216896.39266666654,
      "d": 188.5774479167012,
      "v": 99
    },
    {
      "midi": 34,
      "hit": false,
      "t": 217241.2199999999,
      "d": 2106.6794895832427,
      "v": 101
    },
    {
      "midi": 53,
      "hit": false,
      "t": 217586.04733333323,
      "d": 1034.48199999996,
      "v": 96
    },
    {
      "midi": 58,
      "hit": false,
      "t": 217930.87466666655,
      "d": 371.7669687499874,
      "v": 101
    },
    {
      "midi": 61,
      "hit": false,
      "t": 218275.70199999987,
      "d": 1066.809562499955,
      "v": 108
    },
    {
      "midi": 58,
      "hit": false,
      "t": 218620.5293333332,
      "d": 721.9822291666351,
      "v": 103
    },
    {
      "midi": 53,
      "hit": false,
      "t": 218965.3566666665,
      "d": 404.09453124998254,
      "v": 102
    },
    {
      "midi": 42,
      "hit": false,
      "t": 219310.18399999983,
      "d": 1007.5423645832925,
      "v": 108
    },
    {
      "midi": 54,
      "hit": false,
      "t": 219655.01133333315,
      "d": 792.0252812499821,
      "v": 101
    },
    {
      "midi": 58,
      "hit": false,
      "t": 219999.83866666647,
      "d": 377.1548958333151,
      "v": 103
    },
    {
      "midi": 60,
      "hit": false,
      "t": 220344.6659999998,
      "d": 781.2494270833558,
      "v": 105
    },
    {
      "midi": 44,
      "hit": false,
      "t": 220344.6659999998,
      "d": 1007.5423645833798,
      "v": 108
    },
    {
      "midi": 56,
      "hit": false,
      "t": 220689.49333333314,
      "d": 387.93074999999953,
      "v": 102
    },
    {
      "midi": 51,
      "hit": false,
      "t": 221034.32066666646,
      "d": 188.5774479167012,
      "v": 99
    },
    {
      "midi": 49,
      "hit": false,
      "t": 221723.97533333316,
      "d": 1406.2489687499765,
      "v": 96
    },
    {
      "midi": 53,
      "hit": false,
      "t": 222068.80266666648,
      "d": 371.7669687499874,
      "v": 101
    },
    {
      "midi": 56,
      "hit": false,
      "t": 222413.6299999998,
      "d": 673.490885416657,
      "v": 96
    },
    {
      "midi": 53,
      "hit": false,
      "t": 222758.45733333312,
      "d": 517.2410000000091,
      "v": 101
    },
    {
      "midi": 56,
      "hit": false,
      "t": 223103.28466666647,
      "d": 404.09453124998254,
      "v": 102
    },
    {
      "midi": 37,
      "hit": false,
      "t": 223448.1119999998,
      "d": 37.71548958332278,
      "v": 101
    },
    {
      "midi": 60,
      "hit": false,
      "t": 223448.1119999998,
      "d": 641.1633229166619,
      "v": 108
    },
    {
      "midi": 61,
      "hit": false,
      "t": 224137.76666666646,
      "d": 204.7412291666551,
      "v": 103
    },
    {
      "midi": 65,
      "hit": false,
      "t": 224482.59399999978,
      "d": 1309.266281249933,
      "v": 109
    },
    {
      "midi": 61,
      "hit": false,
      "t": 224655.00766666644,
      "d": 1131.4646874999453,
      "v": 106
    },
    {
      "midi": 60,
      "hit": false,
      "t": 224827.4213333331,
      "d": 953.6630937499576,
      "v": 101
    },
    {
      "midi": 56,
      "hit": false,
      "t": 224999.83499999976,
      "d": 759.6977187499579,
      "v": 101
    },
    {
      "midi": 49,
      "hit": false,
      "t": 225172.24866666642,
      "d": 414.8703854166379,
      "v": 97
    },
    {
      "midi": 48,
      "hit": false,
      "t": 225344.66233333308,
      "d": 237.0687916666502,
      "v": 104
    },
    {
      "midi": 46,
      "hit": false,
      "t": 225517.07599999974,
      "d": 1287.7145729166514,
      "v": 103
    },
    {
      "midi": 49,
      "hit": false,
      "t": 226034.31699999972,
      "d": 840.5166250000184,
      "v": 109
    },
    {
      "midi": 53,
      "hit": false,
      "t": 226551.55799999973,
      "d": 468.74965625000186,
      "v": 101
    },
    {
      "midi": 61,
      "hit": false,
      "t": 227068.79899999974,
      "d": 1012.9302916666784,
      "v": 109
    },
    {
      "midi": 58,
      "hit": false,
      "t": 227586.03999999975,
      "d": 818.9649166666786,
      "v": 110
    },
    {
      "midi": 56,
      "hit": false,
      "t": 228103.28099999976,
      "d": 404.09453125001164,
      "v": 109
    },
    {
      "midi": 54,
      "hit": false,
      "t": 228620.52199999976,
      "d": 985.9906562500109,
      "v": 105
    },
    {
      "midi": 58,
      "hit": false,
      "t": 228620.52199999976,
      "d": 985.9906562500109,
      "v": 105
    },
    {
      "midi": 54,
      "hit": false,
      "t": 229655.00399999978,
      "d": 985.9906562500109,
      "v": 103
    },
    {
      "midi": 61,
      "hit": false,
      "t": 229655.00399999978,
      "d": 985.9906562500109,
      "v": 103
    },
    {
      "midi": 49,
      "hit": false,
      "t": 230689.4859999998,
      "d": 985.9906562500109,
      "v": 103
    },
    {
      "midi": 54,
      "hit": false,
      "t": 230689.4859999998,
      "d": 985.9906562500109,
      "v": 103
    },
    {
      "midi": 60,
      "hit": false,
      "t": 231723.96799999982,
      "d": 985.9906562500109,
      "v": 105
    },
    {
      "midi": 63,
      "hit": false,
      "t": 231723.96799999982,
      "d": 985.9906562500109,
      "v": 105
    },
    {
      "midi": 60,
      "hit": false,
      "t": 232758.44999999984,
      "d": 2020.47265625,
      "v": 105
    },
    {
      "midi": 56,
      "hit": false,
      "t": 232758.44999999984,
      "d": 2047.4122916666674,
      "v": 109
    },
    {
      "midi": 54,
      "hit": false,
      "t": 234310.17299999984,
      "d": 484.91343750001397,
      "v": 109
    },
    {
      "midi": 53,
      "hit": false,
      "t": 234827.41399999984,
      "d": 985.9906562500109,
      "v": 105
    },
    {
      "midi": 56,
      "hit": false,
      "t": 234827.41399999984,
      "d": 985.9906562500109,
      "v": 105
    },
    {
      "midi": 53,
      "hit": false,
      "t": 235861.89599999986,
      "d": 985.9906562500109,
      "v": 103
    },
    {
      "midi": 60,
      "hit": false,
      "t": 235861.89599999986,
      "d": 985.9906562500109,
      "v": 103
    },
    {
      "midi": 53,
      "hit": false,
      "t": 236896.37799999988,
      "d": 818.9649166666786,
      "v": 110
    },
    {
      "midi": 60,
      "hit": false,
      "t": 237413.6189999999,
      "d": 404.09453125001164,
      "v": 109
    },
    {
      "midi": 53,
      "hit": false,
      "t": 237930.8599999999,
      "d": 2537.713656250009,
      "v": 105
    },
    {
      "midi": 61,
      "hit": false,
      "t": 237930.8599999999,
      "d": 2537.713656250009,
      "v": 105
    },
    {
      "midi": 53,
      "hit": false,
      "t": 240517.06499999992,
      "d": 2020.47265625,
      "v": 105
    },
    {
      "midi": 61,
      "hit": false,
      "t": 240517.06499999992,
      "d": 2020.47265625,
      "v": 105
    },
    {
      "midi": 53,
      "hit": false,
      "t": 242586.02899999992,
      "d": 985.9906562500109,
      "v": 103
    },
    {
      "midi": 61,
      "hit": false,
      "t": 242586.02899999992,
      "d": 985.9906562500109,
      "v": 103
    },
    {
      "midi": 53,
      "hit": false,
      "t": 243620.51099999994,
      "d": 468.74965625000186,
      "v": 103
    },
    {
      "midi": 61,
      "hit": false,
      "t": 243620.51099999994,
      "d": 468.74965625000186,
      "v": 103
    },
    {
      "midi": 56,
      "hit": false,
      "t": 244137.75199999995,
      "d": 1535.559218749986,
      "v": 109
    },
    {
      "midi": 60,
      "hit": false,
      "t": 244137.75199999995,
      "d": 1535.559218749986,
      "v": 109
    },
    {
      "midi": 60,
      "hit": false,
      "t": 245689.47499999995,
      "d": 1535.559218749986,
      "v": 109
    },
    {
      "midi": 68,
      "hit": false,
      "t": 245689.47499999995,
      "d": 1535.559218749986,
      "v": 109
    },
    {
      "midi": 56,
      "hit": false,
      "t": 247241.19799999995,
      "d": 3087.282218749984,
      "v": 109
    },
    {
      "midi": 60,
      "hit": false,
      "t": 247241.19799999995,
      "d": 3087.282218749984,
      "v": 109
    },
    {
      "midi": 66,
      "hit": false,
      "t": 248792.92099999994,
      "d": 167.02573958333232,
      "v": 102
    },
    {
      "midi": 78,
      "hit": false,
      "t": 248798.30892708327,
      "d": 167.02573958333232,
      "v": 102
    },
    {
      "midi": 77,
      "hit": false,
      "t": 249040.76564583328,
      "d": 210.12915625001187,
      "v": 93
    },
    {
      "midi": 65,
      "hit": false,
      "t": 249056.9294270833,
      "d": 210.12915625001187,
      "v": 93
    },
    {
      "midi": 78,
      "hit": false,
      "t": 249293.99821874997,
      "d": 183.18952083331533,
      "v": 108
    },
    {
      "midi": 66,
      "hit": false,
      "t": 249304.77407291663,
      "d": 183.18952083331533,
      "v": 108
    },
    {
      "midi": 68,
      "hit": false,
      "t": 249579.5583541666,
      "d": 172.41366666666,
      "v": 102
    },
    {
      "midi": 80,
      "hit": false,
      "t": 249579.5583541666,
      "d": 172.41366666666,
      "v": 102
    },
    {
      "midi": 70,
      "hit": false,
      "t": 249811.23921874992,
      "d": 156.249885416677,
      "v": 95
    },
    {
      "midi": 82,
      "hit": false,
      "t": 249838.1788541666,
      "d": 156.249885416677,
      "v": 95
    },
    {
      "midi": 84,
      "hit": false,
      "t": 250069.85971874994,
      "d": 253.23257291666232,
      "v": 108
    },
    {
      "midi": 72,
      "hit": false,
      "t": 250096.7993541666,
      "d": 253.23257291666232,
      "v": 108
    },
    {
      "midi": 85,
      "hit": false,
      "t": 250344.64399999994,
      "d": 1287.7145729166514,
      "v": 121
    },
    {
      "midi": 73,
      "hit": false,
      "t": 250344.64399999994,
      "d": 1341.5938437499863,
      "v": 121
    },
    {
      "midi": 77,
      "hit": false,
      "t": 250355.4198541666,
      "d": 1282.3266458333237,
      "v": 121
    },
    {
      "midi": 73,
      "hit": false,
      "t": 251885.59114583326,
      "d": 1487.067875000008,
      "v": 117
    },
    {
      "midi": 68,
      "hit": false,
      "t": 251890.97907291658,
      "d": 1249.9990833333577,
      "v": 117
    },
    {
      "midi": 77,
      "hit": false,
      "t": 251907.1428541666,
      "d": 1573.274708333338,
      "v": 118
    },
    {
      "midi": 68,
      "hit": false,
      "t": 253448.08999999994,
      "d": 2015.0847291666723,
      "v": 122
    },
    {
      "midi": 73,
      "hit": false,
      "t": 253970.71892708328,
      "d": 2052.800218749995,
      "v": 120
    },
    {
      "midi": 77,
      "hit": false,
      "t": 254466.40821874994,
      "d": 565.7323437499872,
      "v": 120
    },
    {
      "midi": 80,
      "hit": false,
      "t": 255005.20092708326,
      "d": 1702.5849583333766,
      "v": 120
    },
    {
      "midi": 77,
      "hit": false,
      "t": 255522.44192708327,
      "d": 1034.4820000000182,
      "v": 120
    },
    {
      "midi": 68,
      "hit": false,
      "t": 256018.13121874994,
      "d": 614.2236875000235,
      "v": 120
    },
    {
      "midi": 73,
      "hit": false,
      "t": 256540.76014583328,
      "d": 1535.5592187500442,
      "v": 117
    },
    {
      "midi": 65,
      "hit": false,
      "t": 256556.9239270833,
      "d": 1503.23165625002,
      "v": 116
    },
    {
      "midi": 65,
      "hit": false,
      "t": 258108.64692708332,
      "d": 1298.4904270833358,
      "v": 116
    },
    {
      "midi": 73,
      "hit": false,
      "t": 258108.64692708332,
      "d": 1314.654208333348,
      "v": 110
    },
    {
      "midi": 82,
      "hit": false,
      "t": 258108.64692708332,
      "d": 1330.81798958336,
      "v": 116
    },
    {
      "midi": 82,
      "hit": false,
      "t": 259644.20614583333,
      "d": 1524.7833645833016,
      "v": 117
    },
    {
      "midi": 65,
      "hit": false,
      "t": 259654.982,
      "d": 1293.102499999979,
      "v": 119
    },
    {
      "midi": 73,
      "hit": false,
      "t": 259665.75785416664,
      "d": 1783.4038645833207,
      "v": 117
    },
    {
      "midi": 65,
      "hit": false,
      "t": 261195.9291458333,
      "d": 1530.1712916666293,
      "v": 121
    },
    {
      "midi": 82,
      "hit": false,
      "t": 261729.3339270833,
      "d": 1039.8699270833167,
      "v": 120
    },
    {
      "midi": 73,
      "hit": false,
      "t": 262225.02321874996,
      "d": 280.17220833332976,
      "v": 118
    },
    {
      "midi": 66,
      "hit": false,
      "t": 262774.59178124997,
      "d": 1815.731427083374,
      "v": 116
    },
    {
      "midi": 73,
      "hit": false,
      "t": 263259.50521875,
      "d": 2095.9036354167038,
      "v": 112
    },
    {
      "midi": 78,
      "hit": false,
      "t": 263803.68585416663,
      "d": 1713.360812500061,
      "v": 117
    },
    {
      "midi": 82,
      "hit": false,
      "t": 264304.76307291666,
      "d": 1099.1371250000084,
      "v": 120
    },
    {
      "midi": 82,
      "hit": false,
      "t": 265851.09814583336,
      "d": 1147.6284687499865,
      "v": 118
    },
    {
      "midi": 73,
      "hit": false,
      "t": 265856.4860729167,
      "d": 1266.1628645833116,
      "v": 120
    },
    {
      "midi": 66,
      "hit": false,
      "t": 265867.26192708337,
      "d": 1293.102499999979,
      "v": 120
    },
    {
      "midi": 78,
      "hit": false,
      "t": 265867.26192708337,
      "d": 1325.4300625000033,
      "v": 120
    },
    {
      "midi": 66,
      "hit": false,
      "t": 267397.43321875005,
      "d": 862.0683333333582,
      "v": 117
    },
    {
      "midi": 70,
      "hit": false,
      "t": 267397.43321875005,
      "d": 862.0683333333582,
      "v": 120
    },
    {
      "midi": 61,
      "hit": false,
      "t": 267424.3728541667,
      "d": 1341.5938437500154,
      "v": 111
    },
    {
      "midi": 73,
      "hit": false,
      "t": 268448.0790000001,
      "d": 409.4824583333102,
      "v": 120
    },
    {
      "midi": 70,
      "hit": false,
      "t": 268448.0790000001,
      "d": 425.6462395833223,
      "v": 116
    },
    {
      "midi": 61,
      "hit": false,
      "t": 268949.15621875005,
      "d": 1637.9298333334154,
      "v": 116
    },
    {
      "midi": 68,
      "hit": false,
      "t": 268954.5441458334,
      "d": 1535.5592187500442,
      "v": 120
    },
    {
      "midi": 73,
      "hit": false,
      "t": 268959.93207291677,
      "d": 1567.8867812500102,
      "v": 120
    },
    {
      "midi": 68,
      "hit": false,
      "t": 300015.94378125004,
      "d": 2079.7398541666334,
      "v": 82
    },
    {
      "midi": 73,
      "hit": false,
      "t": 300500.85721875005,
      "d": 560.3444166666595,
      "v": 86
    },
    {
      "midi": 80,
      "hit": false,
      "t": 301039.6499270834,
      "d": 425.6462395833223,
      "v": 80
    },
    {
      "midi": 80,
      "hit": false,
      "t": 301567.66678125004,
      "d": 619.611614583293,
      "v": 96
    },
    {
      "midi": 73,
      "hit": false,
      "t": 302074.13192708336,
      "d": 1104.525052083307,
      "v": 82
    },
    {
      "midi": 68,
      "hit": false,
      "t": 302569.82121875,
      "d": 463.3617291666451,
      "v": 69
    },
    {
      "midi": 68,
      "hit": false,
      "t": 303119.38978125,
      "d": 1713.3608125000028,
      "v": 88
    },
    {
      "midi": 73,
      "hit": false,
      "t": 303631.24285416666,
      "d": 511.8530729166814,
      "v": 82
    },
    {
      "midi": 80,
      "hit": false,
      "t": 304153.87178125,
      "d": 414.870385416667,
      "v": 88
    },
    {
      "midi": 80,
      "hit": false,
      "t": 304649.56107291667,
      "d": 554.9564895833028,
      "v": 94
    },
    {
      "midi": 73,
      "hit": false,
      "t": 305156.02621875,
      "d": 684.2667395833414,
      "v": 84
    },
    {
      "midi": 68,
      "hit": false,
      "t": 305673.26721874997,
      "d": 468.74965625000186,
      "v": 69
    },
    {
      "midi": 68,
      "hit": false,
      "t": 306190.50821874995,
      "d": 851.2924791666446,
      "v": 77
    },
    {
      "midi": 73,
      "hit": false,
      "t": 306723.91299999994,
      "d": 985.9906562499818,
      "v": 77
    },
    {
      "midi": 80,
      "hit": false,
      "t": 307251.9298541666,
      "d": 441.8100208333344,
      "v": 73
    },
    {
      "midi": 80,
      "hit": false,
      "t": 307742.23121874995,
      "d": 1605.602270833333,
      "v": 92
    },
    {
      "midi": 68,
      "hit": false,
      "t": 309293.95421874995,
      "d": 1637.9298333332408,
      "v": 76
    },
    {
      "midi": 73,
      "hit": false,
      "t": 309816.5831458333,
      "d": 808.1890624999651,
      "v": 80
    },
    {
      "midi": 80,
      "hit": false,
      "t": 310360.76378124993,
      "d": 393.3186770832981,
      "v": 73
    },
    {
      "midi": 80,
      "hit": false,
      "t": 310856.45307291654,
      "d": 948.2751666666591,
      "v": 96
    },
    {
      "midi": 73,
      "hit": false,
      "t": 311389.85785416653,
      "d": 1147.6284687499865,
      "v": 80
    },
    {
      "midi": 68,
      "hit": false,
      "t": 311912.48678124987,
      "d": 452.58587499998976,
      "v": 65
    },
    {
      "midi": 68,
      "hit": false,
      "t": 312418.9519270832,
      "d": 1670.257395833265,
      "v": 88
    },
    {
      "midi": 73,
      "hit": false,
      "t": 312930.8049999999,
      "d": 592.6719791666255,
      "v": 80
    },
    {
      "midi": 80,
      "hit": false,
      "t": 313448.04599999986,
      "d": 404.09453124995343,
      "v": 73
    },
    {
      "midi": 80,
      "hit": false,
      "t": 313954.5111458331,
      "d": 996.7665104166372,
      "v": 99
    },
    {
      "midi": 73,
      "hit": false,
      "t": 314487.9159270831,
      "d": 1077.5854166666977,
      "v": 77
    },
    {
      "midi": 68,
      "hit": false,
      "t": 315005.1569270831,
      "d": 420.25831250002375,
      "v": 71
    },
    {
      "midi": 68,
      "hit": false,
      "t": 315511.6220729165,
      "d": 1788.7917916667066,
      "v": 86
    },
    {
      "midi": 73,
      "hit": false,
      "t": 316039.6389270832,
      "d": 538.7927083333489,
      "v": 71
    },
    {
      "midi": 80,
      "hit": false,
      "t": 316551.49199999985,
      "d": 414.870385416667,
      "v": 74
    },
    {
      "midi": 80,
      "hit": false,
      "t": 317084.89678124984,
      "d": 1379.3093333333381,
      "v": 99
    },
    {
      "midi": 73,
      "hit": false,
      "t": 317591.36192708317,
      "d": 996.7665104166954,
      "v": 69
    },
    {
      "midi": 68,
      "hit": false,
      "t": 318119.37878124986,
      "d": 436.42209374997765,
      "v": 71
    },
    {
      "midi": 73,
      "hit": false,
      "t": 318625.8439270832,
      "d": 2068.96399999992,
      "v": 90
    },
    {
      "midi": 61,
      "hit": false,
      "t": 319649.5500729165,
      "d": 463.3617291666451,
      "v": 99
    },
    {
      "midi": 61,
      "hit": false,
      "t": 320188.3427812498,
      "d": 818.9649166666786,
      "v": 80
    }
  ]
}