{
  "jsonPath": "Rock/Pop Rock/Blessid Union Of Souls/i-believe.json",
  "path": "Rock\\Pop Rock\\Blessid Union Of Souls\\I Believe.mid",
  "name": "I Believe",
  "difficulty": "Advanced",
  "bpm": 140.00014000014,
  "notes": [
    {
      "midi": 59,
      "hit": false,
      "t": 1285.7130000000002,
      "d": 214.28549999999996,
      "v": 96
    },
    {
      "midi": 58,
      "hit": false,
      "t": 1499.9985000000001,
      "d": 214.28549999999996,
      "v": 96
    },
    {
      "midi": 56,
      "hit": false,
      "t": 1714.284,
      "d": 214.28549999999996,
      "v": 96
    },
    {
      "midi": 44,
      "hit": false,
      "t": 1714.284,
      "d": 1714.2839999999997,
      "v": 96
    },
    {
      "midi": 58,
      "hit": false,
      "t": 1928.5695,
      "d": 214.28549999999996,
      "v": 96
    },
    {
      "midi": 59,
      "hit": false,
      "t": 2142.855,
      "d": 214.28549999999996,
      "v": 96
    },
    {
      "midi": 66,
      "hit": false,
      "t": 2357.1405,
      "d": 428.5709999999999,
      "v": 96
    },
    {
      "midi": 56,
      "hit": false,
      "t": 2785.7115,
      "d": 214.28549999999996,
      "v": 96
    },
    {
      "midi": 59,
      "hit": false,
      "t": 2999.997,
      "d": 214.28549999999996,
      "v": 96
    },
    {
      "midi": 66,
      "hit": false,
      "t": 3214.2825,
      "d": 428.5709999999999,
      "v": 96
    },
    {
      "midi": 42,
      "hit": false,
      "t": 3428.5679999999998,
      "d": 1714.284,
      "v": 96
    },
    {
      "midi": 61,
      "hit": false,
      "t": 3642.8534999999997,
      "d": 428.5709999999999,
      "v": 96
    },
    {
      "midi": 58,
      "hit": false,
      "t": 4071.4244999999996,
      "d": 428.57100000000037,
      "v": 96
    },
    {
      "midi": 54,
      "hit": false,
      "t": 4499.9955,
      "d": 214.28549999999996,
      "v": 96
    },
    {
      "midi": 66,
      "hit": false,
      "t": 4714.281,
      "d": 214.28549999999996,
      "v": 96
    },
    {
      "midi": 54,
      "hit": false,
      "t": 4928.5665,
      "d": 214.28549999999996,
      "v": 96
    },
    {
      "midi": 59,
      "hit": false,
      "t": 5142.852,
      "d": 214.28549999999996,
      "v": 96
    },
    {
      "midi": 40,
      "hit": false,
      "t": 5142.852,
      "d": 1285.7129999999997,
      "v": 96
    },
    {
      "midi": 52,
      "hit": false,
      "t": 5357.1375,
      "d": 214.28549999999996,
      "v": 96
    },
    {
      "midi": 56,
      "hit": false,
      "t": 5571.423,
      "d": 214.28549999999996,
      "v": 96
    },
    {
      "midi": 66,
      "hit": false,
      "t": 5785.7085,
      "d": 428.5709999999999,
      "v": 96
    },
    {
      "midi": 54,
      "hit": false,
      "t": 6214.2795,
      "d": 214.28549999999996,
      "v": 96
    },
    {
      "midi": 63,
      "hit": false,
      "t": 6428.565,
      "d": 857.1419999999998,
      "v": 96
    },
    {
      "midi": 47,
      "hit": false,
      "t": 6428.565,
      "d": 2142.8550000000005,
      "v": 96
    },
    {
      "midi": 63,
      "hit": false,
      "t": 7285.706999999999,
      "d": 214.28549999999996,
      "v": 96
    },
    {
      "midi": 64,
      "hit": false,
      "t": 7499.992499999999,
      "d": 214.28549999999996,
      "v": 96
    },
    {
      "midi": 63,
      "hit": false,
      "t": 7714.277999999999,
      "d": 214.28549999999996,
      "v": 96
    },
    {
      "midi": 61,
      "hit": false,
      "t": 7928.563499999999,
      "d": 214.28549999999996,
      "v": 96
    },
    {
      "midi": 59,
      "hit": false,
      "t": 8142.848999999999,
      "d": 214.28550000000087,
      "v": 96
    },
    {
      "midi": 58,
      "hit": false,
      "t": 8357.1345,
      "d": 214.28549999999996,
      "v": 96
    },
    {
      "midi": 56,
      "hit": false,
      "t": 8571.42,
      "d": 214.28549999999996,
      "v": 96
    },
    {
      "midi": 44,
      "hit": false,
      "t": 8571.42,
      "d": 1714.2839999999997,
      "v": 96
    },
    {
      "midi": 58,
      "hit": false,
      "t": 8785.7055,
      "d": 214.28549999999996,
      "v": 96
    },
    {
      "midi": 59,
      "hit": false,
      "t": 8999.991,
      "d": 214.28549999999996,
      "v": 96
    },
    {
      "midi": 66,
      "hit": false,
      "t": 9214.2765,
      "d": 428.5709999999999,
      "v": 96
    },
    {
      "midi": 56,
      "hit": false,
      "t": 9642.8475,
      "d": 214.28549999999996,
      "v": 96
    },
    {
      "midi": 59,
      "hit": false,
      "t": 9857.133,
      "d": 214.28549999999996,
      "v": 96
    },
    {
      "midi": 66,
      "hit": false,
      "t": 10071.4185,
      "d": 428.5709999999999,
      "v": 96
    },
    {
      "midi": 42,
      "hit": false,
      "t": 10285.704,
      "d": 1714.2839999999997,
      "v": 96
    },
    {
      "midi": 61,
      "hit": false,
      "t": 10499.9895,
      "d": 428.5709999999999,
      "v": 96
    },
    {
      "midi": 58,
      "hit": false,
      "t": 10928.5605,
      "d": 428.5709999999999,
      "v": 96
    },
    {
      "midi": 54,
      "hit": false,
      "t": 11357.1315,
      "d": 214.28549999999996,
      "v": 96
    },
    {
      "midi": 58,
      "hit": false,
      "t": 11571.417,
      "d": 214.28549999999996,
      "v": 96
    },
    {
      "midi": 59,
      "hit": false,
      "t": 11785.7025,
      "d": 214.28549999999996,
      "v": 96
    },
    {
      "midi": 59,
      "hit": false,
      "t": 11999.988,
      "d": 214.28549999999996,
      "v": 96
    },
    {
      "midi": 40,
      "hit": false,
      "t": 11999.988,
      "d": 1285.7129999999997,
      "v": 96
    },
    {
      "midi": 54,
      "hit": false,
      "t": 12214.2735,
      "d": 214.28549999999996,
      "v": 96
    },
    {
      "midi": 56,
      "hit": false,
      "t": 12428.559,
      "d": 214.28549999999996,
      "v": 96
    },
    {
      "midi": 63,
      "hit": false,
      "t": 12642.8445,
      "d": 428.5709999999999,
      "v": 96
    },
    {
      "midi": 54,
      "hit": false,
      "t": 13071.4155,
      "d": 214.28549999999996,
      "v": 96
    },
    {
      "midi": 54,
      "hit": false,
      "t": 13285.701,
      "d": 857.1419999999998,
      "v": 96
    },
    {
      "midi": 59,
      "hit": false,
      "t": 13285.701,
      "d": 857.1419999999998,
      "v": 96
    },
    {
      "midi": 63,
      "hit": false,
      "t": 13285.701,
      "d": 857.1419999999998,
      "v": 96
    },
    {
      "midi": 35,
      "hit": false,
      "t": 13285.701,
      "d": 2142.8549999999996,
      "v": 96
    },
    {
      "midi": 66,
      "hit": false,
      "t": 14142.842999999999,
      "d": 214.28549999999996,
      "v": 96
    },
    {
      "midi": 64,
      "hit": false,
      "t": 14357.128499999999,
      "d": 214.28549999999996,
      "v": 96
    },
    {
      "midi": 63,
      "hit": false,
      "t": 14571.413999999999,
      "d": 214.28549999999996,
      "v": 96
    },
    {
      "midi": 61,
      "hit": false,
      "t": 14785.699499999999,
      "d": 214.28549999999996,
      "v": 96
    },
    {
      "midi": 59,
      "hit": false,
      "t": 14999.984999999999,
      "d": 214.28549999999996,
      "v": 96
    },
    {
      "midi": 58,
      "hit": false,
      "t": 15214.270499999999,
      "d": 214.28549999999996,
      "v": 96
    },
    {
      "midi": 56,
      "hit": false,
      "t": 15428.555999999999,
      "d": 214.28549999999996,
      "v": 96
    },
    {
      "midi": 44,
      "hit": false,
      "t": 15428.555999999999,
      "d": 1714.284000000005,
      "v": 96
    },
    {
      "midi": 58,
      "hit": false,
      "t": 15642.841499999999,
      "d": 214.28549999999996,
      "v": 96
    },
    {
      "midi": 59,
      "hit": false,
      "t": 15857.126999999999,
      "d": 214.28549999999996,
      "v": 96
    },
    {
      "midi": 66,
      "hit": false,
      "t": 16071.412499999999,
      "d": 428.5709999999999,
      "v": 96
    },
    {
      "midi": 56,
      "hit": false,
      "t": 16499.9835,
      "d": 214.28550000000178,
      "v": 96
    },
    {
      "midi": 59,
      "hit": false,
      "t": 16714.269,
      "d": 214.28550000000178,
      "v": 96
    },
    {
      "midi": 66,
      "hit": false,
      "t": 16928.554500000002,
      "d": 428.57100000000355,
      "v": 96
    },
    {
      "midi": 42,
      "hit": false,
      "t": 17142.840000000004,
      "d": 1714.284000000007,
      "v": 96
    },
    {
      "midi": 61,
      "hit": false,
      "t": 17357.125500000006,
      "d": 428.5709999999999,
      "v": 96
    },
    {
      "midi": 58,
      "hit": false,
      "t": 17785.696500000005,
      "d": 428.5709999999999,
      "v": 96
    },
    {
      "midi": 54,
      "hit": false,
      "t": 18214.267500000005,
      "d": 214.28550000000178,
      "v": 96
    },
    {
      "midi": 66,
      "hit": false,
      "t": 18428.553000000007,
      "d": 214.28550000000178,
      "v": 96
    },
    {
      "midi": 54,
      "hit": false,
      "t": 18642.83850000001,
      "d": 214.28550000000178,
      "v": 96
    },
    {
      "midi": 59,
      "hit": false,
      "t": 18857.12400000001,
      "d": 214.28550000000178,
      "v": 96
    },
    {
      "midi": 40,
      "hit": false,
      "t": 18857.12400000001,
      "d": 1285.713000000007,
      "v": 96
    },
    {
      "midi": 52,
      "hit": false,
      "t": 19071.409500000012,
      "d": 214.28550000000178,
      "v": 96
    },
    {
      "midi": 56,
      "hit": false,
      "t": 19285.695000000014,
      "d": 214.28550000000178,
      "v": 96
    },
    {
      "midi": 66,
      "hit": false,
      "t": 19499.980500000016,
      "d": 428.5709999999999,
      "v": 96
    },
    {
      "midi": 54,
      "hit": false,
      "t": 19928.551500000016,
      "d": 214.28550000000178,
      "v": 96
    },
    {
      "midi": 63,
      "hit": false,
      "t": 20142.837000000018,
      "d": 857.1419999999998,
      "v": 96
    },
    {
      "midi": 47,
      "hit": false,
      "t": 20142.837000000018,
      "d": 2142.8550000000105,
      "v": 96
    },
    {
      "midi": 63,
      "hit": false,
      "t": 20999.979000000018,
      "d": 214.28550000000178,
      "v": 96
    },
    {
      "midi": 64,
      "hit": false,
      "t": 21214.26450000002,
      "d": 214.28550000000178,
      "v": 96
    },
    {
      "midi": 63,
      "hit": false,
      "t": 21428.55000000002,
      "d": 214.28550000000178,
      "v": 96
    },
    {
      "midi": 61,
      "hit": false,
      "t": 21642.835500000023,
      "d": 214.28550000000178,
      "v": 96
    },
    {
      "midi": 59,
      "hit": false,
      "t": 21857.121000000025,
      "d": 214.28550000000178,
      "v": 96
    },
    {
      "midi": 58,
      "hit": false,
      "t": 22071.406500000026,
      "d": 214.28550000000178,
      "v": 96
    },
    {
      "midi": 56,
      "hit": false,
      "t": 22285.69200000003,
      "d": 214.28550000000178,
      "v": 96
    },
    {
      "midi": 44,
      "hit": false,
      "t": 22285.69200000003,
      "d": 1714.2840000000106,
      "v": 96
    },
    {
      "midi": 58,
      "hit": false,
      "t": 22499.97750000003,
      "d": 214.28550000000178,
      "v": 96
    },
    {
      "midi": 59,
      "hit": false,
      "t": 22714.26300000003,
      "d": 214.28550000000178,
      "v": 96
    },
    {
      "midi": 66,
      "hit": false,
      "t": 22928.548500000034,
      "d": 428.5709999999999,
      "v": 96
    },
    {
      "midi": 56,
      "hit": false,
      "t": 23357.119500000033,
      "d": 214.28550000000178,
      "v": 96
    },
    {
      "midi": 59,
      "hit": false,
      "t": 23571.405000000035,
      "d": 214.28550000000178,
      "v": 96
    },
    {
      "midi": 66,
      "hit": false,
      "t": 23785.690500000037,
      "d": 428.57100000000355,
      "v": 96
    },
    {
      "midi": 42,
      "hit": false,
      "t": 23999.97600000004,
      "d": 1714.284000000007,
      "v": 96
    },
    {
      "midi": 61,
      "hit": false,
      "t": 24214.26150000004,
      "d": 428.5709999999999,
      "v": 96
    },
    {
      "midi": 58,
      "hit": false,
      "t": 24642.83250000004,
      "d": 428.5709999999999,
      "v": 96
    },
    {
      "midi": 54,
      "hit": false,
      "t": 25071.40350000004,
      "d": 214.28550000000178,
      "v": 96
    },
    {
      "midi": 58,
      "hit": false,
      "t": 25285.689000000042,
      "d": 214.28550000000178,
      "v": 96
    },
    {
      "midi": 59,
      "hit": false,
      "t": 25499.974500000044,
      "d": 214.28550000000178,
      "v": 96
    },
    {
      "midi": 59,
      "hit": false,
      "t": 25714.260000000046,
      "d": 214.28550000000178,
      "v": 96
    },
    {
      "midi": 40,
      "hit": false,
      "t": 25714.260000000046,
      "d": 1285.713000000007,
      "v": 96
    },
    {
      "midi": 52,
      "hit": false,
      "t": 25928.545500000047,
      "d": 214.28550000000178,
      "v": 96
    },
    {
      "midi": 56,
      "hit": false,
      "t": 26142.83100000005,
      "d": 214.28550000000178,
      "v": 96
    },
    {
      "midi": 52,
      "hit": false,
      "t": 26357.11650000005,
      "d": 642.8565000000017,
      "v": 96
    },
    {
      "midi": 56,
      "hit": false,
      "t": 26357.11650000005,
      "d": 642.8565000000017,
      "v": 96
    },
    {
      "midi": 59,
      "hit": false,
      "t": 26357.11650000005,
      "d": 642.8565000000017,
      "v": 96
    },
    {
      "midi": 35,
      "hit": false,
      "t": 26999.973000000053,
      "d": 2142.8549999999996,
      "v": 96
    },
    {
      "midi": 51,
      "hit": false,
      "t": 26999.973000000053,
      "d": 2142.8549999999996,
      "v": 96
    },
    {
      "midi": 54,
      "hit": false,
      "t": 26999.973000000053,
      "d": 2142.8549999999996,
      "v": 96
    },
    {
      "midi": 59,
      "hit": false,
      "t": 26999.973000000053,
      "d": 2142.8549999999996,
      "v": 96
    },
    {
      "midi": 59,
      "hit": false,
      "t": 29142.828000000052,
      "d": 642.8565000000017,
      "v": 96
    },
    {
      "midi": 63,
      "hit": false,
      "t": 29142.828000000052,
      "d": 642.8565000000017,
      "v": 96
    },
    {
      "midi": 68,
      "hit": false,
      "t": 29142.828000000052,
      "d": 642.8565000000017,
      "v": 96
    },
    {
      "midi": 44,
      "hit": false,
      "t": 29142.828000000052,
      "d": 1285.7130000000034,
      "v": 96
    },
    {
      "midi": 59,
      "hit": false,
      "t": 29785.684500000054,
      "d": 642.8565000000017,
      "v": 96
    },
    {
      "midi": 63,
      "hit": false,
      "t": 29785.684500000054,
      "d": 642.8565000000017,
      "v": 96
    },
    {
      "midi": 68,
      "hit": false,
      "t": 29785.684500000054,
      "d": 642.8565000000017,
      "v": 96
    },
    {
      "midi": 68,
      "hit": false,
      "t": 30428.541000000056,
      "d": 214.28550000000178,
      "v": 96
    },
    {
      "midi": 44,
      "hit": false,
      "t": 30428.541000000056,
      "d": 428.57100000000355,
      "v": 96
    },
    {
      "midi": 58,
      "hit": false,
      "t": 30642.826500000057,
      "d": 642.8565000000017,
      "v": 96
    },
    {
      "midi": 61,
      "hit": false,
      "t": 30642.826500000057,
      "d": 642.8565000000017,
      "v": 96
    },
    {
      "midi": 68,
      "hit": false,
      "t": 30642.826500000057,
      "d": 642.8565000000017,
      "v": 96
    },
    {
      "midi": 42,
      "hit": false,
      "t": 30857.11200000006,
      "d": 1285.7130000000034,
      "v": 96
    },
    {
      "midi": 66,
      "hit": false,
      "t": 31285.68300000006,
      "d": 214.28550000000178,
      "v": 96
    },
    {
      "midi": 58,
      "hit": false,
      "t": 31499.96850000006,
      "d": 428.5709999999999,
      "v": 96
    },
    {
      "midi": 61,
      "hit": false,
      "t": 31499.96850000006,
      "d": 428.5709999999999,
      "v": 96
    },
    {
      "midi": 66,
      "hit": false,
      "t": 31499.96850000006,
      "d": 428.5709999999999,
      "v": 96
    },
    {
      "midi": 58,
      "hit": false,
      "t": 31928.53950000006,
      "d": 642.8565000000017,
      "v": 96
    },
    {
      "midi": 61,
      "hit": false,
      "t": 31928.53950000006,
      "d": 642.8565000000017,
      "v": 96
    },
    {
      "midi": 66,
      "hit": false,
      "t": 31928.53950000006,
      "d": 642.8565000000017,
      "v": 96
    },
    {
      "midi": 42,
      "hit": false,
      "t": 32142.825000000063,
      "d": 428.5709999999999,
      "v": 96
    },
    {
      "midi": 64,
      "hit": false,
      "t": 32571.396000000062,
      "d": 214.28550000000178,
      "v": 96
    },
    {
      "midi": 68,
      "hit": false,
      "t": 32571.396000000062,
      "d": 214.28550000000178,
      "v": 96
    },
    {
      "midi": 71,
      "hit": false,
      "t": 32571.396000000062,
      "d": 214.28550000000178,
      "v": 96
    },
    {
      "midi": 40,
      "hit": false,
      "t": 32571.396000000062,
      "d": 1285.713000000007,
      "v": 96
    },
    {
      "midi": 71,
      "hit": false,
      "t": 32785.681500000064,
      "d": 428.57100000000355,
      "v": 96
    },
    {
      "midi": 64,
      "hit": false,
      "t": 33214.25250000007,
      "d": 428.57100000000355,
      "v": 96
    },
    {
      "midi": 68,
      "hit": false,
      "t": 33214.25250000007,
      "d": 428.57100000000355,
      "v": 96
    },
    {
      "midi": 71,
      "hit": false,
      "t": 33214.25250000007,
      "d": 428.57100000000355,
      "v": 96
    },
    {
      "midi": 75,
      "hit": false,
      "t": 33642.82350000007,
      "d": 214.28549999999814,
      "v": 96
    },
    {
      "midi": 66,
      "hit": false,
      "t": 33857.10900000007,
      "d": 1285.7130000000034,
      "v": 96
    },
    {
      "midi": 71,
      "hit": false,
      "t": 33857.10900000007,
      "d": 1285.7130000000034,
      "v": 96
    },
    {
      "midi": 75,
      "hit": false,
      "t": 33857.10900000007,
      "d": 1285.7130000000034,
      "v": 96
    },
    {
      "midi": 47,
      "hit": false,
      "t": 33857.10900000007,
      "d": 2142.855000000003,
      "v": 96
    },
    {
      "midi": 63,
      "hit": false,
      "t": 35142.82200000007,
      "d": 857.1419999999998,
      "v": 96
    },
    {
      "midi": 66,
      "hit": false,
      "t": 35142.82200000007,
      "d": 857.1419999999998,
      "v": 96
    },
    {
      "midi": 71,
      "hit": false,
      "t": 35142.82200000007,
      "d": 857.1419999999998,
      "v": 96
    },
    {
      "midi": 63,
      "hit": false,
      "t": 35999.96400000007,
      "d": 214.28549999999814,
      "v": 96
    },
    {
      "midi": 68,
      "hit": false,
      "t": 35999.96400000007,
      "d": 214.28549999999814,
      "v": 96
    },
    {
      "midi": 73,
      "hit": false,
      "t": 35999.96400000007,
      "d": 214.28549999999814,
      "v": 96
    },
    {
      "midi": 44,
      "hit": false,
      "t": 35999.96400000007,
      "d": 1285.7130000000034,
      "v": 96
    },
    {
      "midi": 73,
      "hit": false,
      "t": 36214.24950000007,
      "d": 428.57100000000355,
      "v": 96
    },
    {
      "midi": 63,
      "hit": false,
      "t": 36642.820500000074,
      "d": 642.8565000000017,
      "v": 96
    },
    {
      "midi": 68,
      "hit": false,
      "t": 36642.820500000074,
      "d": 642.8565000000017,
      "v": 96
    },
    {
      "midi": 73,
      "hit": false,
      "t": 36642.820500000074,
      "d": 642.8565000000017,
      "v": 96
    },
    {
      "midi": 73,
      "hit": false,
      "t": 37285.677000000076,
      "d": 214.28549999999814,
      "v": 96
    },
    {
      "midi": 44,
      "hit": false,
      "t": 37285.677000000076,
      "d": 428.5709999999963,
      "v": 96
    },
    {
      "midi": 66,
      "hit": false,
      "t": 37499.962500000074,
      "d": 428.5709999999963,
      "v": 96
    },
    {
      "midi": 70,
      "hit": false,
      "t": 37499.962500000074,
      "d": 428.5709999999963,
      "v": 96
    },
    {
      "midi": 73,
      "hit": false,
      "t": 37499.962500000074,
      "d": 428.5709999999963,
      "v": 96
    },
    {
      "midi": 42,
      "hit": false,
      "t": 37714.24800000007,
      "d": 1285.7130000000034,
      "v": 96
    },
    {
      "midi": 71,
      "hit": false,
      "t": 37928.53350000007,
      "d": 428.57100000000355,
      "v": 96
    },
    {
      "midi": 66,
      "hit": false,
      "t": 38357.104500000074,
      "d": 642.8565000000017,
      "v": 96
    },
    {
      "midi": 71,
      "hit": false,
      "t": 38357.104500000074,
      "d": 642.8565000000017,
      "v": 96
    },
    {
      "midi": 42,
      "hit": false,
      "t": 38999.961000000076,
      "d": 428.57100000000355,
      "v": 96
    },
    {
      "midi": 68,
      "hit": false,
      "t": 38999.961000000076,
      "d": 428.57100000000355,
      "v": 96
    },
    {
      "midi": 64,
      "hit": false,
      "t": 39428.53200000008,
      "d": 428.57100000000355,
      "v": 96
    },
    {
      "midi": 68,
      "hit": false,
      "t": 39428.53200000008,
      "d": 428.57100000000355,
      "v": 96
    },
    {
      "midi": 71,
      "hit": false,
      "t": 39428.53200000008,
      "d": 428.57100000000355,
      "v": 96
    },
    {
      "midi": 40,
      "hit": false,
      "t": 39428.53200000008,
      "d": 1285.7130000000034,
      "v": 96
    },
    {
      "midi": 71,
      "hit": false,
      "t": 39857.10300000008,
      "d": 214.28549999999814,
      "v": 96
    },
    {
      "midi": 64,
      "hit": false,
      "t": 40071.38850000008,
      "d": 428.57100000000355,
      "v": 96
    },
    {
      "midi": 68,
      "hit": false,
      "t": 40071.38850000008,
      "d": 428.57100000000355,
      "v": 96
    },
    {
      "midi": 71,
      "hit": false,
      "t": 40071.38850000008,
      "d": 428.57100000000355,
      "v": 96
    },
    {
      "midi": 71,
      "hit": false,
      "t": 40499.959500000085,
      "d": 214.28549999999814,
      "v": 96
    },
    {
      "midi": 63,
      "hit": false,
      "t": 40714.24500000008,
      "d": 1714.2839999999997,
      "v": 96
    },
    {
      "midi": 66,
      "hit": false,
      "t": 40714.24500000008,
      "d": 1714.2839999999997,
      "v": 96
    },
    {
      "midi": 71,
      "hit": false,
      "t": 40714.24500000008,
      "d": 1714.2839999999997,
      "v": 96
    },
    {
      "midi": 47,
      "hit": false,
      "t": 40714.24500000008,
      "d": 2142.854999999996,
      "v": 96
    },
    {
      "midi": 68,
      "hit": false,
      "t": 42428.52900000008,
      "d": 214.28549999999814,
      "v": 96
    },
    {
      "midi": 70,
      "hit": false,
      "t": 42642.81450000008,
      "d": 214.28549999999814,
      "v": 96
    },
    {
      "midi": 68,
      "hit": false,
      "t": 42857.10000000008,
      "d": 428.57100000000355,
      "v": 96
    },
    {
      "midi": 71,
      "hit": false,
      "t": 42857.10000000008,
      "d": 428.57100000000355,
      "v": 96
    },
    {
      "midi": 78,
      "hit": false,
      "t": 42857.10000000008,
      "d": 428.57100000000355,
      "v": 96
    },
    {
      "midi": 44,
      "hit": false,
      "t": 42857.10000000008,
      "d": 1285.7130000000034,
      "v": 96
    },
    {
      "midi": 73,
      "hit": false,
      "t": 43285.67100000008,
      "d": 214.28549999999814,
      "v": 96
    },
    {
      "midi": 68,
      "hit": false,
      "t": 43499.95650000008,
      "d": 642.8565000000017,
      "v": 96
    },
    {
      "midi": 73,
      "hit": false,
      "t": 43499.95650000008,
      "d": 642.8565000000017,
      "v": 96
    },
    {
      "midi": 73,
      "hit": false,
      "t": 44142.81300000008,
      "d": 214.28549999999814,
      "v": 96
    },
    {
      "midi": 44,
      "hit": false,
      "t": 44142.81300000008,
      "d": 428.5709999999963,
      "v": 96
    },
    {
      "midi": 66,
      "hit": false,
      "t": 44357.09850000008,
      "d": 642.8565000000017,
      "v": 96
    },
    {
      "midi": 70,
      "hit": false,
      "t": 44357.09850000008,
      "d": 642.8565000000017,
      "v": 96
    },
    {
      "midi": 75,
      "hit": false,
      "t": 44357.09850000008,
      "d": 857.1419999999998,
      "v": 96
    },
    {
      "midi": 42,
      "hit": false,
      "t": 44571.38400000008,
      "d": 1285.7130000000034,
      "v": 96
    },
    {
      "midi": 66,
      "hit": false,
      "t": 45214.24050000008,
      "d": 214.28549999999814,
      "v": 96
    },
    {
      "midi": 73,
      "hit": false,
      "t": 45214.24050000008,
      "d": 214.28549999999814,
      "v": 96
    },
    {
      "midi": 66,
      "hit": false,
      "t": 45428.52600000008,
      "d": 857.1420000000071,
      "v": 96
    },
    {
      "midi": 71,
      "hit": false,
      "t": 45428.52600000008,
      "d": 857.1420000000071,
      "v": 96
    },
    {
      "midi": 42,
      "hit": false,
      "t": 45857.09700000008,
      "d": 428.57100000000355,
      "v": 96
    },
    {
      "midi": 64,
      "hit": false,
      "t": 46285.668000000085,
      "d": 214.28549999999814,
      "v": 96
    },
    {
      "midi": 68,
      "hit": false,
      "t": 46285.668000000085,
      "d": 214.28549999999814,
      "v": 96
    },
    {
      "midi": 71,
      "hit": false,
      "t": 46285.668000000085,
      "d": 214.28549999999814,
      "v": 96
    },
    {
      "midi": 40,
      "hit": false,
      "t": 46285.668000000085,
      "d": 1285.7130000000034,
      "v": 96
    },
    {
      "midi": 71,
      "hit": false,
      "t": 46499.95350000008,
      "d": 428.57100000000355,
      "v": 96
    },
    {
      "midi": 64,
      "hit": false,
      "t": 46928.52450000009,
      "d": 428.57100000000355,
      "v": 96
    },
    {
      "midi": 68,
      "hit": false,
      "t": 46928.52450000009,
      "d": 428.57100000000355,
      "v": 96
    },
    {
      "midi": 71,
      "hit": false,
      "t": 46928.52450000009,
      "d": 428.57100000000355,
      "v": 96
    },
    {
      "midi": 71,
      "hit": false,
      "t": 47357.09550000009,
      "d": 214.28549999999814,
      "v": 96
    },
    {
      "midi": 63,
      "hit": false,
      "t": 47571.38100000009,
      "d": 1285.7130000000034,
      "v": 96
    },
    {
      "midi": 66,
      "hit": false,
      "t": 47571.38100000009,
      "d": 1285.7130000000034,
      "v": 96
    },
    {
      "midi": 71,
      "hit": false,
      "t": 47571.38100000009,
      "d": 1285.7130000000034,
      "v": 96
    },
    {
      "midi": 47,
      "hit": false,
      "t": 47571.38100000009,
      "d": 2142.855000000003,
      "v": 96
    },
    {
      "midi": 63,
      "hit": false,
      "t": 48857.09400000009,
      "d": 642.8565000000017,
      "v": 96
    },
    {
      "midi": 66,
      "hit": false,
      "t": 48857.09400000009,
      "d": 642.8565000000017,
      "v": 96
    },
    {
      "midi": 71,
      "hit": false,
      "t": 48857.09400000009,
      "d": 642.8565000000017,
      "v": 96
    },
    {
      "midi": 66,
      "hit": false,
      "t": 49499.95050000009,
      "d": 214.28549999999814,
      "v": 96
    },
    {
      "midi": 63,
      "hit": false,
      "t": 49714.23600000009,
      "d": 428.57100000000355,
      "v": 96
    },
    {
      "midi": 68,
      "hit": false,
      "t": 49714.23600000009,
      "d": 428.57100000000355,
      "v": 96
    },
    {
      "midi": 73,
      "hit": false,
      "t": 49714.23600000009,
      "d": 428.57100000000355,
      "v": 96
    },
    {
      "midi": 44,
      "hit": false,
      "t": 49714.23600000009,
      "d": 1285.7130000000034,
      "v": 96
    },
    {
      "midi": 73,
      "hit": false,
      "t": 50142.807000000095,
      "d": 214.28549999999814,
      "v": 96
    },
    {
      "midi": 63,
      "hit": false,
      "t": 50357.09250000009,
      "d": 642.8565000000017,
      "v": 96
    },
    {
      "midi": 68,
      "hit": false,
      "t": 50357.09250000009,
      "d": 642.8565000000017,
      "v": 96
    },
    {
      "midi": 73,
      "hit": false,
      "t": 50357.09250000009,
      "d": 642.8565000000017,
      "v": 96
    },
    {
      "midi": 73,
      "hit": false,
      "t": 50999.949000000095,
      "d": 214.28549999999814,
      "v": 96
    },
    {
      "midi": 44,
      "hit": false,
      "t": 50999.949000000095,
      "d": 428.5709999999963,
      "v": 96
    },
    {
      "midi": 66,
      "hit": false,
      "t": 51214.23450000009,
      "d": 428.5709999999963,
      "v": 96
    },
    {
      "midi": 70,
      "hit": false,
      "t": 51214.23450000009,
      "d": 428.5709999999963,
      "v": 96
    },
    {
      "midi": 73,
      "hit": false,
      "t": 51214.23450000009,
      "d": 428.5709999999963,
      "v": 96
    },
    {
      "midi": 42,
      "hit": false,
      "t": 51428.52000000009,
      "d": 1285.7130000000034,
      "v": 96
    },
    {
      "midi": 71,
      "hit": false,
      "t": 51642.80550000009,
      "d": 428.57100000000355,
      "v": 96
    },
    {
      "midi": 66,
      "hit": false,
      "t": 52071.37650000009,
      "d": 428.57100000000355,
      "v": 96
    },
    {
      "midi": 71,
      "hit": false,
      "t": 52071.37650000009,
      "d": 428.57100000000355,
      "v": 96
    },
    {
      "midi": 66,
      "hit": false,
      "t": 52499.9475000001,
      "d": 642.8565000000017,
      "v": 96
    },
    {
      "midi": 71,
      "hit": false,
      "t": 52499.9475000001,
      "d": 642.8565000000017,
      "v": 96
    },
    {
      "midi": 42,
      "hit": false,
      "t": 52714.233000000095,
      "d": 428.57100000000355,
      "v": 96
    },
    {
      "midi": 68,
      "hit": false,
      "t": 53142.8040000001,
      "d": 428.57100000000355,
      "v": 96
    },
    {
      "midi": 71,
      "hit": false,
      "t": 53142.8040000001,
      "d": 428.57100000000355,
      "v": 96
    },
    {
      "midi": 76,
      "hit": false,
      "t": 53142.8040000001,
      "d": 428.57100000000355,
      "v": 96
    },
    {
      "midi": 40,
      "hit": false,
      "t": 53142.8040000001,
      "d": 1285.7130000000034,
      "v": 96
    },
    {
      "midi": 76,
      "hit": false,
      "t": 53571.3750000001,
      "d": 214.28549999999814,
      "v": 96
    },
    {
      "midi": 68,
      "hit": false,
      "t": 53785.6605000001,
      "d": 428.57100000000355,
      "v": 96
    },
    {
      "midi": 71,
      "hit": false,
      "t": 53785.6605000001,
      "d": 428.57100000000355,
      "v": 96
    },
    {
      "midi": 76,
      "hit": false,
      "t": 53785.6605000001,
      "d": 428.57100000000355,
      "v": 96
    },
    {
      "midi": 75,
      "hit": false,
      "t": 54214.2315000001,
      "d": 214.28549999999814,
      "v": 96
    },
    {
      "midi": 75,
      "hit": false,
      "t": 54428.5170000001,
      "d": 214.28549999999814,
      "v": 96
    },
    {
      "midi": 47,
      "hit": false,
      "t": 54428.5170000001,
      "d": 1285.712999999996,
      "v": 96
    },
    {
      "midi": 73,
      "hit": false,
      "t": 54642.8025000001,
      "d": 214.28549999999814,
      "v": 96
    },
    {
      "midi": 63,
      "hit": false,
      "t": 54857.0880000001,
      "d": 428.57100000000355,
      "v": 96
    },
    {
      "midi": 66,
      "hit": false,
      "t": 54857.0880000001,
      "d": 428.57100000000355,
      "v": 96
    },
    {
      "midi": 71,
      "hit": false,
      "t": 54857.0880000001,
      "d": 428.57100000000355,
      "v": 96
    },
    {
      "midi": 71,
      "hit": false,
      "t": 55499.9445000001,
      "d": 214.28549999999814,
      "v": 96
    },
    {
      "midi": 71,
      "hit": false,
      "t": 55714.2300000001,
      "d": 428.57100000000355,
      "v": 96
    },
    {
      "midi": 75,
      "hit": false,
      "t": 55714.2300000001,
      "d": 428.57100000000355,
      "v": 96
    },
    {
      "midi": 78,
      "hit": false,
      "t": 55714.2300000001,
      "d": 428.57100000000355,
      "v": 96
    },
    {
      "midi": 47,
      "hit": false,
      "t": 55714.2300000001,
      "d": 857.1419999999998,
      "v": 96
    },
    {
      "midi": 75,
      "hit": false,
      "t": 56142.8010000001,
      "d": 214.28549999999814,
      "v": 96
    },
    {
      "midi": 68,
      "hit": false,
      "t": 56357.0865000001,
      "d": 857.1419999999998,
      "v": 96
    },
    {
      "midi": 71,
      "hit": false,
      "t": 56357.0865000001,
      "d": 857.1419999999998,
      "v": 96
    },
    {
      "midi": 75,
      "hit": false,
      "t": 56357.0865000001,
      "d": 857.1419999999998,
      "v": 96
    },
    {
      "midi": 44,
      "hit": false,
      "t": 56571.3720000001,
      "d": 1285.7130000000034,
      "v": 96
    },
    {
      "midi": 63,
      "hit": false,
      "t": 57214.2285000001,
      "d": 1071.4275000000052,
      "v": 96
    },
    {
      "midi": 68,
      "hit": false,
      "t": 57214.2285000001,
      "d": 1071.4275000000052,
      "v": 96
    },
    {
      "midi": 71,
      "hit": false,
      "t": 57214.2285000001,
      "d": 1071.4275000000052,
      "v": 96
    },
    {
      "midi": 44,
      "hit": false,
      "t": 57857.0850000001,
      "d": 428.57100000000355,
      "v": 96
    },
    {
      "midi": 42,
      "hit": false,
      "t": 58285.656000000105,
      "d": 1285.7130000000034,
      "v": 96
    },
    {
      "midi": 58,
      "hit": false,
      "t": 58285.656000000105,
      "d": 1285.7130000000034,
      "v": 96
    },
    {
      "midi": 61,
      "hit": false,
      "t": 58285.656000000105,
      "d": 1285.7130000000034,
      "v": 96
    },
    {
      "midi": 66,
      "hit": false,
      "t": 58285.656000000105,
      "d": 1285.7130000000034,
      "v": 96
    },
    {
      "midi": 42,
      "hit": false,
      "t": 59571.36900000011,
      "d": 428.5709999999963,
      "v": 96
    },
    {
      "midi": 71,
      "hit": false,
      "t": 59785.654500000106,
      "d": 214.28549999999814,
      "v": 96
    },
    {
      "midi": 68,
      "hit": false,
      "t": 59999.940000000104,
      "d": 642.8565000000017,
      "v": 96
    },
    {
      "midi": 71,
      "hit": false,
      "t": 59999.940000000104,
      "d": 642.8565000000017,
      "v": 96
    },
    {
      "midi": 76,
      "hit": false,
      "t": 59999.940000000104,
      "d": 642.8565000000017,
      "v": 96
    },
    {
      "midi": 40,
      "hit": false,
      "t": 59999.940000000104,
      "d": 1285.7130000000034,
      "v": 96
    },
    {
      "midi": 68,
      "hit": false,
      "t": 60642.796500000106,
      "d": 428.57100000000355,
      "v": 96
    },
    {
      "midi": 71,
      "hit": false,
      "t": 60642.796500000106,
      "d": 428.57100000000355,
      "v": 96
    },
    {
      "midi": 75,
      "hit": false,
      "t": 60642.796500000106,
      "d": 428.57100000000355,
      "v": 96
    },
    {
      "midi": 73,
      "hit": false,
      "t": 61071.36750000011,
      "d": 214.28549999999814,
      "v": 96
    },
    {
      "midi": 63,
      "hit": false,
      "t": 61285.65300000011,
      "d": 642.8565000000017,
      "v": 96
    },
    {
      "midi": 66,
      "hit": false,
      "t": 61285.65300000011,
      "d": 642.8565000000017,
      "v": 96
    },
    {
      "midi": 73,
      "hit": false,
      "t": 61285.65300000011,
      "d": 642.8565000000017,
      "v": 96
    },
    {
      "midi": 47,
      "hit": false,
      "t": 61285.65300000011,
      "d": 1285.7130000000034,
      "v": 96
    },
    {
      "midi": 63,
      "hit": false,
      "t": 61928.50950000011,
      "d": 642.8565000000017,
      "v": 96
    },
    {
      "midi": 66,
      "hit": false,
      "t": 61928.50950000011,
      "d": 642.8565000000017,
      "v": 96
    },
    {
      "midi": 71,
      "hit": false,
      "t": 61928.50950000011,
      "d": 642.8565000000017,
      "v": 96
    },
    {
      "midi": 71,
      "hit": false,
      "t": 62571.36600000011,
      "d": 428.57100000000355,
      "v": 96
    },
    {
      "midi": 75,
      "hit": false,
      "t": 62571.36600000011,
      "d": 428.57100000000355,
      "v": 96
    },
    {
      "midi": 78,
      "hit": false,
      "t": 62571.36600000011,
      "d": 428.57100000000355,
      "v": 96
    },
    {
      "midi": 47,
      "hit": false,
      "t": 62571.36600000011,
      "d": 857.1419999999998,
      "v": 96
    },
    {
      "midi": 75,
      "hit": false,
      "t": 62999.937000000114,
      "d": 214.28549999999814,
      "v": 96
    },
    {
      "midi": 68,
      "hit": false,
      "t": 63214.22250000011,
      "d": 857.1419999999998,
      "v": 96
    },
    {
      "midi": 71,
      "hit": false,
      "t": 63214.22250000011,
      "d": 857.1419999999998,
      "v": 96
    },
    {
      "midi": 75,
      "hit": false,
      "t": 63214.22250000011,
      "d": 857.1419999999998,
      "v": 96
    },
    {
      "midi": 44,
      "hit": false,
      "t": 63428.50800000011,
      "d": 1285.7130000000034,
      "v": 96
    },
    {
      "midi": 63,
      "hit": false,
      "t": 64071.36450000011,
      "d": 1071.4275000000052,
      "v": 96
    },
    {
      "midi": 68,
      "hit": false,
      "t": 64071.36450000011,
      "d": 1071.4275000000052,
      "v": 96
    },
    {
      "midi": 71,
      "hit": false,
      "t": 64071.36450000011,
      "d": 1071.4275000000052,
      "v": 96
    },
    {
      "midi": 44,
      "hit": false,
      "t": 64714.221000000114,
      "d": 428.57100000000355,
      "v": 96
    },
    {
      "midi": 42,
      "hit": false,
      "t": 65142.79200000012,
      "d": 1285.7130000000034,
      "v": 96
    },
    {
      "midi": 58,
      "hit": false,
      "t": 65142.79200000012,
      "d": 1285.7130000000034,
      "v": 96
    },
    {
      "midi": 61,
      "hit": false,
      "t": 65142.79200000012,
      "d": 1285.7130000000034,
      "v": 96
    },
    {
      "midi": 66,
      "hit": false,
      "t": 65142.79200000012,
      "d": 1285.7130000000034,
      "v": 96
    },
    {
      "midi": 42,
      "hit": false,
      "t": 66428.50500000012,
      "d": 428.5709999999963,
      "v": 96
    },
    {
      "midi": 66,
      "hit": false,
      "t": 66642.79050000012,
      "d": 214.28549999999814,
      "v": 96
    },
    {
      "midi": 64,
      "hit": false,
      "t": 66857.07600000012,
      "d": 428.5709999999963,
      "v": 96
    },
    {
      "midi": 68,
      "hit": false,
      "t": 66857.07600000012,
      "d": 428.5709999999963,
      "v": 96
    },
    {
      "midi": 71,
      "hit": false,
      "t": 66857.07600000012,
      "d": 428.5709999999963,
      "v": 96
    },
    {
      "midi": 40,
      "hit": false,
      "t": 66857.07600000012,
      "d": 1285.7129999999888,
      "v": 96
    },
    {
      "midi": 71,
      "hit": false,
      "t": 67285.64700000011,
      "d": 214.28549999999814,
      "v": 96
    },
    {
      "midi": 64,
      "hit": false,
      "t": 67499.93250000011,
      "d": 428.5709999999963,
      "v": 96
    },
    {
      "midi": 68,
      "hit": false,
      "t": 67499.93250000011,
      "d": 428.5709999999963,
      "v": 96
    },
    {
      "midi": 71,
      "hit": false,
      "t": 67499.93250000011,
      "d": 428.5709999999963,
      "v": 96
    },
    {
      "midi": 71,
      "hit": false,
      "t": 67928.50350000011,
      "d": 214.28549999999814,
      "v": 96
    },
    {
      "midi": 63,
      "hit": false,
      "t": 68142.7890000001,
      "d": 1714.2839999999997,
      "v": 96
    },
    {
      "midi": 66,
      "hit": false,
      "t": 68142.7890000001,
      "d": 1714.2839999999997,
      "v": 96
    },
    {
      "midi": 71,
      "hit": false,
      "t": 68142.7890000001,
      "d": 1714.2839999999997,
      "v": 96
    },
    {
      "midi": 47,
      "hit": false,
      "t": 68142.7890000001,
      "d": 2142.854999999996,
      "v": 96
    },
    {
      "midi": 68,
      "hit": false,
      "t": 69857.0730000001,
      "d": 214.28549999999814,
      "v": 96
    },
    {
      "midi": 70,
      "hit": false,
      "t": 70071.3585000001,
      "d": 214.28549999999814,
      "v": 96
    },
    {
      "midi": 59,
      "hit": false,
      "t": 70285.6440000001,
      "d": 642.8564999999944,
      "v": 96
    },
    {
      "midi": 63,
      "hit": false,
      "t": 70285.6440000001,
      "d": 642.8564999999944,
      "v": 96
    },
    {
      "midi": 68,
      "hit": false,
      "t": 70285.6440000001,
      "d": 642.8564999999944,
      "v": 96
    },
    {
      "midi": 44,
      "hit": false,
      "t": 70285.6440000001,
      "d": 1285.7129999999888,
      "v": 96
    },
    {
      "midi": 68,
      "hit": false,
      "t": 70928.5005000001,
      "d": 214.28549999999814,
      "v": 96
    },
    {
      "midi": 59,
      "hit": false,
      "t": 70928.5005000001,
      "d": 642.8564999999944,
      "v": 96
    },
    {
      "midi": 63,
      "hit": false,
      "t": 70928.5005000001,
      "d": 642.8564999999944,
      "v": 96
    },
    {
      "midi": 68,
      "hit": false,
      "t": 71142.7860000001,
      "d": 428.5709999999963,
      "v": 96
    },
    {
      "midi": 68,
      "hit": false,
      "t": 71571.35700000009,
      "d": 214.28549999999814,
      "v": 96
    },
    {
      "midi": 44,
      "hit": false,
      "t": 71571.35700000009,
      "d": 428.5709999999963,
      "v": 96
    },
    {
      "midi": 58,
      "hit": false,
      "t": 71785.64250000009,
      "d": 642.8564999999944,
      "v": 96
    },
    {
      "midi": 61,
      "hit": false,
      "t": 71785.64250000009,
      "d": 642.8564999999944,
      "v": 96
    },
    {
      "midi": 68,
      "hit": false,
      "t": 71785.64250000009,
      "d": 642.8564999999944,
      "v": 96
    },
    {
      "midi": 42,
      "hit": false,
      "t": 71999.92800000009,
      "d": 1285.7129999999888,
      "v": 96
    },
    {
      "midi": 66,
      "hit": false,
      "t": 72428.49900000008,
      "d": 214.28549999999814,
      "v": 96
    },
    {
      "midi": 66,
      "hit": false,
      "t": 72642.78450000008,
      "d": 214.28549999999814,
      "v": 96
    },
    {
      "midi": 58,
      "hit": false,
      "t": 72642.78450000008,
      "d": 428.5709999999963,
      "v": 96
    },
    {
      "midi": 61,
      "hit": false,
      "t": 72642.78450000008,
      "d": 428.5709999999963,
      "v": 96
    },
    {
      "midi": 66,
      "hit": false,
      "t": 72857.07000000008,
      "d": 214.28549999999814,
      "v": 96
    },
    {
      "midi": 58,
      "hit": false,
      "t": 73071.35550000008,
      "d": 642.8564999999944,
      "v": 96
    },
    {
      "midi": 61,
      "hit": false,
      "t": 73071.35550000008,
      "d": 642.8564999999944,
      "v": 96
    },
    {
      "midi": 66,
      "hit": false,
      "t": 73071.35550000008,
      "d": 642.8564999999944,
      "v": 96
    },
    {
      "midi": 42,
      "hit": false,
      "t": 73285.64100000008,
      "d": 428.5709999999963,
      "v": 96
    },
    {
      "midi": 64,
      "hit": false,
      "t": 73714.21200000007,
      "d": 214.28549999999814,
      "v": 96
    },
    {
      "midi": 68,
      "hit": false,
      "t": 73714.21200000007,
      "d": 214.28549999999814,
      "v": 96
    },
    {
      "midi": 71,
      "hit": false,
      "t": 73714.21200000007,
      "d": 214.28549999999814,
      "v": 96
    },
    {
      "midi": 40,
      "hit": false,
      "t": 73714.21200000007,
      "d": 1285.7129999999888,
      "v": 96
    },
    {
      "midi": 71,
      "hit": false,
      "t": 73928.49750000007,
      "d": 428.5709999999963,
      "v": 96
    },
    {
      "midi": 64,
      "hit": false,
      "t": 74357.06850000007,
      "d": 428.5709999999963,
      "v": 96
    },
    {
      "midi": 68,
      "hit": false,
      "t": 74357.06850000007,
      "d": 428.5709999999963,
      "v": 96
    },
    {
      "midi": 71,
      "hit": false,
      "t": 74357.06850000007,
      "d": 428.5709999999963,
      "v": 96
    },
    {
      "midi": 75,
      "hit": false,
      "t": 74785.63950000006,
      "d": 214.28549999999814,
      "v": 96
    },
    {
      "midi": 66,
      "hit": false,
      "t": 74999.92500000006,
      "d": 1285.7130000000034,
      "v": 96
    },
    {
      "midi": 71,
      "hit": false,
      "t": 74999.92500000006,
      "d": 1285.7130000000034,
      "v": 96
    },
    {
      "midi": 75,
      "hit": false,
      "t": 74999.92500000006,
      "d": 1285.7130000000034,
      "v": 96
    },
    {
      "midi": 47,
      "hit": false,
      "t": 74999.92500000006,
      "d": 2142.8550000000105,
      "v": 96
    },
    {
      "midi": 63,
      "hit": false,
      "t": 76285.63800000006,
      "d": 857.1420000000071,
      "v": 96
    },
    {
      "midi": 66,
      "hit": false,
      "t": 76285.63800000006,
      "d": 857.1420000000071,
      "v": 96
    },
    {
      "midi": 71,
      "hit": false,
      "t": 76285.63800000006,
      "d": 857.1420000000071,
      "v": 96
    },
    {
      "midi": 63,
      "hit": false,
      "t": 77142.78000000007,
      "d": 214.28549999999814,
      "v": 96
    },
    {
      "midi": 68,
      "hit": false,
      "t": 77142.78000000007,
      "d": 214.28549999999814,
      "v": 96
    },
    {
      "midi": 73,
      "hit": false,
      "t": 77142.78000000007,
      "d": 214.28549999999814,
      "v": 96
    },
    {
      "midi": 44,
      "hit": false,
      "t": 77142.78000000007,
      "d": 1285.7129999999888,
      "v": 96
    },
    {
      "midi": 73,
      "hit": false,
      "t": 77357.06550000007,
      "d": 428.5709999999963,
      "v": 96
    },
    {
      "midi": 63,
      "hit": false,
      "t": 77785.63650000007,
      "d": 642.8564999999944,
      "v": 96
    },
    {
      "midi": 68,
      "hit": false,
      "t": 77785.63650000007,
      "d": 642.8564999999944,
      "v": 96
    },
    {
      "midi": 73,
      "hit": false,
      "t": 77785.63650000007,
      "d": 642.8564999999944,
      "v": 96
    },
    {
      "midi": 73,
      "hit": false,
      "t": 78428.49300000006,
      "d": 214.28549999999814,
      "v": 96
    },
    {
      "midi": 44,
      "hit": false,
      "t": 78428.49300000006,
      "d": 428.5709999999963,
      "v": 96
    },
    {
      "midi": 66,
      "hit": false,
      "t": 78642.77850000006,
      "d": 428.5709999999963,
      "v": 96
    },
    {
      "midi": 70,
      "hit": false,
      "t": 78642.77850000006,
      "d": 428.5709999999963,
      "v": 96
    },
    {
      "midi": 73,
      "hit": false,
      "t": 78642.77850000006,
      "d": 428.5709999999963,
      "v": 96
    },
    {
      "midi": 42,
      "hit": false,
      "t": 78857.06400000006,
      "d": 1285.7129999999888,
      "v": 96
    },
    {
      "midi": 71,
      "hit": false,
      "t": 79071.34950000005,
      "d": 428.5709999999963,
      "v": 96
    },
    {
      "midi": 66,
      "hit": false,
      "t": 79499.92050000005,
      "d": 642.8564999999944,
      "v": 96
    },
    {
      "midi": 71,
      "hit": false,
      "t": 79499.92050000005,
      "d": 642.8564999999944,
      "v": 96
    },
    {
      "midi": 42,
      "hit": false,
      "t": 80142.77700000005,
      "d": 428.5709999999963,
      "v": 96
    },
    {
      "midi": 68,
      "hit": false,
      "t": 80142.77700000005,
      "d": 428.5709999999963,
      "v": 96
    },
    {
      "midi": 64,
      "hit": false,
      "t": 80571.34800000004,
      "d": 428.5709999999963,
      "v": 96
    },
    {
      "midi": 68,
      "hit": false,
      "t": 80571.34800000004,
      "d": 428.5709999999963,
      "v": 96
    },
    {
      "midi": 76,
      "hit": false,
      "t": 80571.34800000004,
      "d": 428.5709999999963,
      "v": 96
    },
    {
      "midi": 40,
      "hit": false,
      "t": 80571.34800000004,
      "d": 1285.7129999999888,
      "v": 96
    },
    {
      "midi": 76,
      "hit": false,
      "t": 80999.91900000004,
      "d": 214.28549999999814,
      "v": 96
    },
    {
      "midi": 64,
      "hit": false,
      "t": 81214.20450000004,
      "d": 428.5709999999963,
      "v": 96
    },
    {
      "midi": 68,
      "hit": false,
      "t": 81214.20450000004,
      "d": 428.5709999999963,
      "v": 96
    },
    {
      "midi": 76,
      "hit": false,
      "t": 81214.20450000004,
      "d": 428.5709999999963,
      "v": 96
    },
    {
      "midi": 75,
      "hit": false,
      "t": 81642.77550000003,
      "d": 214.28549999999814,
      "v": 96
    },
    {
      "midi": 63,
      "hit": false,
      "t": 81857.06100000003,
      "d": 1714.2839999999997,
      "v": 96
    },
    {
      "midi": 66,
      "hit": false,
      "t": 81857.06100000003,
      "d": 1714.2839999999997,
      "v": 96
    },
    {
      "midi": 75,
      "hit": false,
      "t": 81857.06100000003,
      "d": 1714.2839999999997,
      "v": 96
    },
    {
      "midi": 47,
      "hit": false,
      "t": 81857.06100000003,
      "d": 2142.854999999996,
      "v": 96
    },
    {
      "midi": 68,
      "hit": false,
      "t": 82928.48850000004,
      "d": 214.28549999999814,
      "v": 96
    },
    {
      "midi": 78,
      "hit": false,
      "t": 83142.77400000003,
      "d": 428.5709999999963,
      "v": 96
    },
    {
      "midi": 68,
      "hit": false,
      "t": 83571.34500000003,
      "d": 214.28549999999814,
      "v": 96
    },
    {
      "midi": 78,
      "hit": false,
      "t": 83571.34500000003,
      "d": 214.28549999999814,
      "v": 96
    },
    {
      "midi": 70,
      "hit": false,
      "t": 83785.63050000003,
      "d": 214.28549999999814,
      "v": 96
    },
    {
      "midi": 78,
      "hit": false,
      "t": 83785.63050000003,
      "d": 642.8564999999944,
      "v": 96
    },
    {
      "midi": 68,
      "hit": false,
      "t": 83999.91600000003,
      "d": 428.5709999999963,
      "v": 96
    },
    {
      "midi": 71,
      "hit": false,
      "t": 83999.91600000003,
      "d": 428.5709999999963,
      "v": 96
    },
    {
      "midi": 44,
      "hit": false,
      "t": 83999.91600000003,
      "d": 1285.7129999999888,
      "v": 96
    },
    {
      "midi": 73,
      "hit": false,
      "t": 84428.48700000002,
      "d": 214.28549999999814,
      "v": 96
    },
    {
      "midi": 68,
      "hit": false,
      "t": 84642.77250000002,
      "d": 642.8564999999944,
      "v": 96
    },
    {
      "midi": 73,
      "hit": false,
      "t": 84642.77250000002,
      "d": 642.8564999999944,
      "v": 96
    },
    {
      "midi": 73,
      "hit": false,
      "t": 85285.62900000002,
      "d": 214.28549999999814,
      "v": 96
    },
    {
      "midi": 44,
      "hit": false,
      "t": 85285.62900000002,
      "d": 428.5709999999963,
      "v": 96
    },
    {
      "midi": 66,
      "hit": false,
      "t": 85499.91450000001,
      "d": 642.8564999999944,
      "v": 96
    },
    {
      "midi": 70,
      "hit": false,
      "t": 85499.91450000001,
      "d": 642.8564999999944,
      "v": 96
    },
    {
      "midi": 73,
      "hit": false,
      "t": 85499.91450000001,
      "d": 857.1419999999925,
      "v": 96
    },
    {
      "midi": 42,
      "hit": false,
      "t": 85714.20000000001,
      "d": 1285.7129999999888,
      "v": 96
    },
    {
      "midi": 66,
      "hit": false,
      "t": 86357.0565,
      "d": 214.28549999999814,
      "v": 96
    },
    {
      "midi": 73,
      "hit": false,
      "t": 86357.0565,
      "d": 214.28549999999814,
      "v": 96
    },
    {
      "midi": 66,
      "hit": false,
      "t": 86571.342,
      "d": 642.8564999999944,
      "v": 96
    },
    {
      "midi": 71,
      "hit": false,
      "t": 86571.342,
      "d": 857.1419999999925,
      "v": 96
    },
    {
      "midi": 42,
      "hit": false,
      "t": 86999.913,
      "d": 428.5709999999963,
      "v": 96
    },
    {
      "midi": 66,
      "hit": false,
      "t": 87214.1985,
      "d": 214.28549999999814,
      "v": 96
    },
    {
      "midi": 64,
      "hit": false,
      "t": 87428.484,
      "d": 214.28549999999814,
      "v": 96
    },
    {
      "midi": 68,
      "hit": false,
      "t": 87428.484,
      "d": 214.28549999999814,
      "v": 96
    },
    {
      "midi": 71,
      "hit": false,
      "t": 87428.484,
      "d": 214.28549999999814,
      "v": 96
    },
    {
      "midi": 40,
      "hit": false,
      "t": 87428.484,
      "d": 1285.7129999999888,
      "v": 96
    },
    {
      "midi": 71,
      "hit": false,
      "t": 87642.7695,
      "d": 428.5709999999963,
      "v": 96
    },
    {
      "midi": 64,
      "hit": false,
      "t": 88071.34049999999,
      "d": 428.5709999999963,
      "v": 96
    },
    {
      "midi": 68,
      "hit": false,
      "t": 88071.34049999999,
      "d": 428.5709999999963,
      "v": 96
    },
    {
      "midi": 71,
      "hit": false,
      "t": 88071.34049999999,
      "d": 428.5709999999963,
      "v": 96
    },
    {
      "midi": 71,
      "hit": false,
      "t": 88499.91149999999,
      "d": 214.28549999999814,
      "v": 96
    },
    {
      "midi": 63,
      "hit": false,
      "t": 88714.19699999999,
      "d": 1285.7130000000034,
      "v": 96
    },
    {
      "midi": 66,
      "hit": false,
      "t": 88714.19699999999,
      "d": 1285.7130000000034,
      "v": 96
    },
    {
      "midi": 71,
      "hit": false,
      "t": 88714.19699999999,
      "d": 1285.7130000000034,
      "v": 96
    },
    {
      "midi": 47,
      "hit": false,
      "t": 88714.19699999999,
      "d": 2142.854999999996,
      "v": 96
    },
    {
      "midi": 63,
      "hit": false,
      "t": 89999.90999999999,
      "d": 642.8564999999944,
      "v": 96
    },
    {
      "midi": 66,
      "hit": false,
      "t": 89999.90999999999,
      "d": 642.8564999999944,
      "v": 96
    },
    {
      "midi": 71,
      "hit": false,
      "t": 89999.90999999999,
      "d": 642.8564999999944,
      "v": 96
    },
    {
      "midi": 66,
      "hit": false,
      "t": 90642.76649999998,
      "d": 214.28549999999814,
      "v": 96
    },
    {
      "midi": 63,
      "hit": false,
      "t": 90857.05199999998,
      "d": 428.5709999999963,
      "v": 96
    },
    {
      "midi": 68,
      "hit": false,
      "t": 90857.05199999998,
      "d": 428.5709999999963,
      "v": 96
    },
    {
      "midi": 73,
      "hit": false,
      "t": 90857.05199999998,
      "d": 428.5709999999963,
      "v": 96
    },
    {
      "midi": 44,
      "hit": false,
      "t": 90857.05199999998,
      "d": 1285.7129999999888,
      "v": 96
    },
    {
      "midi": 73,
      "hit": false,
      "t": 91285.62299999998,
      "d": 214.28549999999814,
      "v": 96
    },
    {
      "midi": 63,
      "hit": false,
      "t": 91499.90849999998,
      "d": 642.8564999999944,
      "v": 96
    },
    {
      "midi": 68,
      "hit": false,
      "t": 91499.90849999998,
      "d": 642.8564999999944,
      "v": 96
    },
    {
      "midi": 73,
      "hit": false,
      "t": 91499.90849999998,
      "d": 642.8564999999944,
      "v": 96
    },
    {
      "midi": 73,
      "hit": false,
      "t": 92142.76499999997,
      "d": 214.28549999999814,
      "v": 96
    },
    {
      "midi": 44,
      "hit": false,
      "t": 92142.76499999997,
      "d": 428.5709999999963,
      "v": 96
    },
    {
      "midi": 66,
      "hit": false,
      "t": 92357.05049999997,
      "d": 428.5709999999963,
      "v": 96
    },
    {
      "midi": 70,
      "hit": false,
      "t": 92357.05049999997,
      "d": 428.5709999999963,
      "v": 96
    },
    {
      "midi": 73,
      "hit": false,
      "t": 92357.05049999997,
      "d": 428.5709999999963,
      "v": 96
    },
    {
      "midi": 42,
      "hit": false,
      "t": 92571.33599999997,
      "d": 1285.7129999999888,
      "v": 96
    },
    {
      "midi": 71,
      "hit": false,
      "t": 92785.62149999996,
      "d": 428.5709999999963,
      "v": 96
    },
    {
      "midi": 66,
      "hit": false,
      "t": 93214.19249999996,
      "d": 428.5709999999963,
      "v": 96
    },
    {
      "midi": 71,
      "hit": false,
      "t": 93214.19249999996,
      "d": 428.5709999999963,
      "v": 96
    },
    {
      "midi": 66,
      "hit": false,
      "t": 93642.76349999996,
      "d": 642.8564999999944,
      "v": 96
    },
    {
      "midi": 71,
      "hit": false,
      "t": 93642.76349999996,
      "d": 642.8564999999944,
      "v": 96
    },
    {
      "midi": 42,
      "hit": false,
      "t": 93857.04899999996,
      "d": 428.5709999999963,
      "v": 96
    },
    {
      "midi": 68,
      "hit": false,
      "t": 94285.61999999995,
      "d": 428.5709999999963,
      "v": 96
    },
    {
      "midi": 71,
      "hit": false,
      "t": 94285.61999999995,
      "d": 428.5709999999963,
      "v": 96
    },
    {
      "midi": 76,
      "hit": false,
      "t": 94285.61999999995,
      "d": 428.5709999999963,
      "v": 96
    },
    {
      "midi": 40,
      "hit": false,
      "t": 94285.61999999995,
      "d": 1285.7129999999888,
      "v": 96
    },
    {
      "midi": 76,
      "hit": false,
      "t": 94714.19099999995,
      "d": 214.28549999999814,
      "v": 96
    },
    {
      "midi": 68,
      "hit": false,
      "t": 94928.47649999995,
      "d": 428.5709999999963,
      "v": 96
    },
    {
      "midi": 71,
      "hit": false,
      "t": 94928.47649999995,
      "d": 428.5709999999963,
      "v": 96
    },
    {
      "midi": 76,
      "hit": false,
      "t": 94928.47649999995,
      "d": 428.5709999999963,
      "v": 96
    },
    {
      "midi": 75,
      "hit": false,
      "t": 95357.04749999994,
      "d": 214.28549999999814,
      "v": 96
    },
    {
      "midi": 75,
      "hit": false,
      "t": 95571.33299999994,
      "d": 214.28549999999814,
      "v": 96
    },
    {
      "midi": 47,
      "hit": false,
      "t": 95571.33299999994,
      "d": 1285.7129999999888,
      "v": 96
    },
    {
      "midi": 73,
      "hit": false,
      "t": 95785.61849999994,
      "d": 214.28549999999814,
      "v": 96
    },
    {
      "midi": 63,
      "hit": false,
      "t": 95999.90399999994,
      "d": 428.5709999999963,
      "v": 96
    },
    {
      "midi": 66,
      "hit": false,
      "t": 95999.90399999994,
      "d": 428.5709999999963,
      "v": 96
    },
    {
      "midi": 71,
      "hit": false,
      "t": 95999.90399999994,
      "d": 428.5709999999963,
      "v": 96
    },
    {
      "midi": 71,
      "hit": false,
      "t": 96642.76049999993,
      "d": 214.28549999999814,
      "v": 96
    },
    {
      "midi": 71,
      "hit": false,
      "t": 96857.04599999993,
      "d": 428.5709999999963,
      "v": 96
    },
    {
      "midi": 75,
      "hit": false,
      "t": 96857.04599999993,
      "d": 428.5709999999963,
      "v": 96
    },
    {
      "midi": 78,
      "hit": false,
      "t": 96857.04599999993,
      "d": 428.5709999999963,
      "v": 96
    },
    {
      "midi": 47,
      "hit": false,
      "t": 96857.04599999993,
      "d": 857.1419999999925,
      "v": 96
    },
    {
      "midi": 75,
      "hit": false,
      "t": 97285.61699999993,
      "d": 214.28549999999814,
      "v": 96
    },
    {
      "midi": 68,
      "hit": false,
      "t": 97499.90249999992,
      "d": 857.1419999999925,
      "v": 96
    },
    {
      "midi": 71,
      "hit": false,
      "t": 97499.90249999992,
      "d": 857.1419999999925,
      "v": 96
    },
    {
      "midi": 75,
      "hit": false,
      "t": 97499.90249999992,
      "d": 857.1419999999925,
      "v": 96
    },
    {
      "midi": 44,
      "hit": false,
      "t": 97714.18799999992,
      "d": 1285.7129999999888,
      "v": 96
    },
    {
      "midi": 63,
      "hit": false,
      "t": 98357.04449999992,
      "d": 1071.4274999999907,
      "v": 96
    },
    {
      "midi": 68,
      "hit": false,
      "t": 98357.04449999992,
      "d": 1071.4274999999907,
      "v": 96
    },
    {
      "midi": 71,
      "hit": false,
      "t": 98357.04449999992,
      "d": 1071.4274999999907,
      "v": 96
    },
    {
      "midi": 44,
      "hit": false,
      "t": 98999.90099999991,
      "d": 428.5709999999963,
      "v": 96
    },
    {
      "midi": 42,
      "hit": false,
      "t": 99428.4719999999,
      "d": 1285.7130000000034,
      "v": 96
    },
    {
      "midi": 58,
      "hit": false,
      "t": 99428.4719999999,
      "d": 1285.7130000000034,
      "v": 96
    },
    {
      "midi": 61,
      "hit": false,
      "t": 99428.4719999999,
      "d": 1285.7130000000034,
      "v": 96
    },
    {
      "midi": 66,
      "hit": false,
      "t": 99428.4719999999,
      "d": 1285.7130000000034,
      "v": 96
    },
    {
      "midi": 42,
      "hit": false,
      "t": 100714.18499999991,
      "d": 428.5709999999963,
      "v": 96
    },
    {
      "midi": 71,
      "hit": false,
      "t": 100928.47049999991,
      "d": 214.28549999999814,
      "v": 96
    },
    {
      "midi": 68,
      "hit": false,
      "t": 101142.7559999999,
      "d": 642.8564999999944,
      "v": 96
    },
    {
      "midi": 71,
      "hit": false,
      "t": 101142.7559999999,
      "d": 642.8564999999944,
      "v": 96
    },
    {
      "midi": 76,
      "hit": false,
      "t": 101142.7559999999,
      "d": 642.8564999999944,
      "v": 96
    },
    {
      "midi": 40,
      "hit": false,
      "t": 101142.7559999999,
      "d": 1285.7129999999888,
      "v": 96
    },
    {
      "midi": 68,
      "hit": false,
      "t": 101785.6124999999,
      "d": 428.5709999999963,
      "v": 96
    },
    {
      "midi": 71,
      "hit": false,
      "t": 101785.6124999999,
      "d": 428.5709999999963,
      "v": 96
    },
    {
      "midi": 75,
      "hit": false,
      "t": 101785.6124999999,
      "d": 428.5709999999963,
      "v": 96
    },
    {
      "midi": 73,
      "hit": false,
      "t": 102214.1834999999,
      "d": 214.28549999999814,
      "v": 96
    },
    {
      "midi": 63,
      "hit": false,
      "t": 102428.4689999999,
      "d": 642.8564999999944,
      "v": 96
    },
    {
      "midi": 66,
      "hit": false,
      "t": 102428.4689999999,
      "d": 642.8564999999944,
      "v": 96
    },
    {
      "midi": 73,
      "hit": false,
      "t": 102428.4689999999,
      "d": 642.8564999999944,
      "v": 96
    },
    {
      "midi": 47,
      "hit": false,
      "t": 102428.4689999999,
      "d": 1285.7129999999888,
      "v": 96
    },
    {
      "midi": 63,
      "hit": false,
      "t": 103071.32549999989,
      "d": 642.8564999999944,
      "v": 96
    },
    {
      "midi": 66,
      "hit": false,
      "t": 103071.32549999989,
      "d": 642.8564999999944,
      "v": 96
    },
    {
      "midi": 71,
      "hit": false,
      "t": 103071.32549999989,
      "d": 642.8564999999944,
      "v": 96
    },
    {
      "midi": 71,
      "hit": false,
      "t": 103714.18199999988,
      "d": 428.5709999999963,
      "v": 96
    },
    {
      "midi": 75,
      "hit": false,
      "t": 103714.18199999988,
      "d": 428.5709999999963,
      "v": 96
    },
    {
      "midi": 78,
      "hit": false,
      "t": 103714.18199999988,
      "d": 428.5709999999963,
      "v": 96
    },
    {
      "midi": 47,
      "hit": false,
      "t": 103714.18199999988,
      "d": 857.1419999999925,
      "v": 96
    },
    {
      "midi": 75,
      "hit": false,
      "t": 104142.75299999988,
      "d": 214.28549999999814,
      "v": 96
    },
    {
      "midi": 68,
      "hit": false,
      "t": 104357.03849999988,
      "d": 857.1419999999925,
      "v": 96
    },
    {
      "midi": 71,
      "hit": false,
      "t": 104357.03849999988,
      "d": 857.1419999999925,
      "v": 96
    },
    {
      "midi": 75,
      "hit": false,
      "t": 104357.03849999988,
      "d": 857.1419999999925,
      "v": 96
    },
    {
      "midi": 44,
      "hit": false,
      "t": 104571.32399999988,
      "d": 1285.7129999999888,
      "v": 96
    },
    {
      "midi": 63,
      "hit": false,
      "t": 105214.18049999987,
      "d": 1071.4274999999907,
      "v": 96
    },
    {
      "midi": 68,
      "hit": false,
      "t": 105214.18049999987,
      "d": 1071.4274999999907,
      "v": 96
    },
    {
      "midi": 71,
      "hit": false,
      "t": 105214.18049999987,
      "d": 1071.4274999999907,
      "v": 96
    },
    {
      "midi": 44,
      "hit": false,
      "t": 105857.03699999987,
      "d": 428.5709999999963,
      "v": 96
    },
    {
      "midi": 42,
      "hit": false,
      "t": 106285.60799999986,
      "d": 1285.7130000000034,
      "v": 96
    },
    {
      "midi": 58,
      "hit": false,
      "t": 106285.60799999986,
      "d": 1285.7130000000034,
      "v": 96
    },
    {
      "midi": 61,
      "hit": false,
      "t": 106285.60799999986,
      "d": 1285.7130000000034,
      "v": 96
    },
    {
      "midi": 66,
      "hit": false,
      "t": 106285.60799999986,
      "d": 1285.7130000000034,
      "v": 96
    },
    {
      "midi": 42,
      "hit": false,
      "t": 107571.32099999987,
      "d": 428.5709999999963,
      "v": 96
    },
    {
      "midi": 66,
      "hit": false,
      "t": 107785.60649999986,
      "d": 214.28549999999814,
      "v": 96
    },
    {
      "midi": 64,
      "hit": false,
      "t": 107999.89199999986,
      "d": 428.5709999999963,
      "v": 96
    },
    {
      "midi": 68,
      "hit": false,
      "t": 107999.89199999986,
      "d": 428.5709999999963,
      "v": 96
    },
    {
      "midi": 71,
      "hit": false,
      "t": 107999.89199999986,
      "d": 428.5709999999963,
      "v": 96
    },
    {
      "midi": 40,
      "hit": false,
      "t": 107999.89199999986,
      "d": 1285.7129999999888,
      "v": 96
    },
    {
      "midi": 71,
      "hit": false,
      "t": 108428.46299999986,
      "d": 214.28549999999814,
      "v": 96
    },
    {
      "midi": 64,
      "hit": false,
      "t": 108642.74849999986,
      "d": 428.5709999999963,
      "v": 96
    },
    {
      "midi": 68,
      "hit": false,
      "t": 108642.74849999986,
      "d": 428.5709999999963,
      "v": 96
    },
    {
      "midi": 71,
      "hit": false,
      "t": 108642.74849999986,
      "d": 428.5709999999963,
      "v": 96
    },
    {
      "midi": 71,
      "hit": false,
      "t": 109071.31949999985,
      "d": 214.28549999999814,
      "v": 96
    },
    {
      "midi": 63,
      "hit": false,
      "t": 109285.60499999985,
      "d": 1285.7130000000034,
      "v": 96
    },
    {
      "midi": 66,
      "hit": false,
      "t": 109285.60499999985,
      "d": 1285.7130000000034,
      "v": 96
    },
    {
      "midi": 71,
      "hit": false,
      "t": 109285.60499999985,
      "d": 1285.7130000000034,
      "v": 96
    },
    {
      "midi": 71,
      "hit": false,
      "t": 110571.31799999985,
      "d": 214.28549999999814,
      "v": 96
    },
    {
      "midi": 47,
      "hit": false,
      "t": 110571.31799999985,
      "d": 857.1419999999925,
      "v": 96
    },
    {
      "midi": 73,
      "hit": false,
      "t": 110785.60349999985,
      "d": 214.28549999999814,
      "v": 96
    },
    {
      "midi": 75,
      "hit": false,
      "t": 110999.88899999985,
      "d": 214.28549999999814,
      "v": 96
    },
    {
      "midi": 75,
      "hit": false,
      "t": 111214.17449999985,
      "d": 214.28549999999814,
      "v": 96
    },
    {
      "midi": 76,
      "hit": false,
      "t": 111214.17449999985,
      "d": 642.8564999999944,
      "v": 96
    },
    {
      "midi": 68,
      "hit": false,
      "t": 111214.17449999985,
      "d": 857.1419999999925,
      "v": 96
    },
    {
      "midi": 71,
      "hit": false,
      "t": 111214.17449999985,
      "d": 857.1419999999925,
      "v": 96
    },
    {
      "midi": 44,
      "hit": false,
      "t": 111428.45999999985,
      "d": 1285.7129999999888,
      "v": 96
    },
    {
      "midi": 75,
      "hit": false,
      "t": 111857.03099999984,
      "d": 214.28549999999814,
      "v": 96
    },
    {
      "midi": 68,
      "hit": false,
      "t": 112071.31649999984,
      "d": 214.28549999999814,
      "v": 96
    },
    {
      "midi": 71,
      "hit": false,
      "t": 112071.31649999984,
      "d": 214.28549999999814,
      "v": 96
    },
    {
      "midi": 63,
      "hit": false,
      "t": 112071.31649999984,
      "d": 1071.4274999999907,
      "v": 96
    },
    {
      "midi": 68,
      "hit": false,
      "t": 112285.60199999984,
      "d": 857.1419999999925,
      "v": 96
    },
    {
      "midi": 71,
      "hit": false,
      "t": 112285.60199999984,
      "d": 857.1419999999925,
      "v": 96
    },
    {
      "midi": 44,
      "hit": false,
      "t": 112714.17299999984,
      "d": 428.5709999999963,
      "v": 96
    },
    {
      "midi": 42,
      "hit": false,
      "t": 113142.74399999983,
      "d": 1285.7130000000034,
      "v": 96
    },
    {
      "midi": 58,
      "hit": false,
      "t": 113142.74399999983,
      "d": 1285.7130000000034,
      "v": 96
    },
    {
      "midi": 61,
      "hit": false,
      "t": 113142.74399999983,
      "d": 1285.7130000000034,
      "v": 96
    },
    {
      "midi": 66,
      "hit": false,
      "t": 113142.74399999983,
      "d": 1285.7130000000034,
      "v": 96
    },
    {
      "midi": 42,
      "hit": false,
      "t": 114428.45699999983,
      "d": 428.5709999999963,
      "v": 96
    },
    {
      "midi": 71,
      "hit": false,
      "t": 114642.74249999983,
      "d": 214.28549999999814,
      "v": 96
    },
    {
      "midi": 68,
      "hit": false,
      "t": 114857.02799999983,
      "d": 642.8564999999944,
      "v": 96
    },
    {
      "midi": 71,
      "hit": false,
      "t": 114857.02799999983,
      "d": 642.8564999999944,
      "v": 96
    },
    {
      "midi": 76,
      "hit": false,
      "t": 114857.02799999983,
      "d": 642.8564999999944,
      "v": 96
    },
    {
      "midi": 40,
      "hit": false,
      "t": 114857.02799999983,
      "d": 1285.7129999999888,
      "v": 96
    },
    {
      "midi": 68,
      "hit": false,
      "t": 115499.88449999983,
      "d": 214.28549999999814,
      "v": 96
    },
    {
      "midi": 71,
      "hit": false,
      "t": 115499.88449999983,
      "d": 214.28549999999814,
      "v": 96
    },
    {
      "midi": 75,
      "hit": false,
      "t": 115499.88449999983,
      "d": 214.28549999999814,
      "v": 96
    },
    {
      "midi": 68,
      "hit": false,
      "t": 115714.16999999982,
      "d": 214.28549999999814,
      "v": 96
    },
    {
      "midi": 71,
      "hit": false,
      "t": 115714.16999999982,
      "d": 214.28549999999814,
      "v": 96
    },
    {
      "midi": 75,
      "hit": false,
      "t": 115714.16999999982,
      "d": 214.28549999999814,
      "v": 96
    },
    {
      "midi": 73,
      "hit": false,
      "t": 115928.45549999982,
      "d": 214.28549999999814,
      "v": 96
    },
    {
      "midi": 66,
      "hit": false,
      "t": 116142.74099999982,
      "d": 428.5709999999963,
      "v": 96
    },
    {
      "midi": 73,
      "hit": false,
      "t": 116142.74099999982,
      "d": 428.5709999999963,
      "v": 96
    },
    {
      "midi": 63,
      "hit": false,
      "t": 116142.74099999982,
      "d": 642.8564999999944,
      "v": 96
    },
    {
      "midi": 47,
      "hit": false,
      "t": 116142.74099999982,
      "d": 1285.7129999999888,
      "v": 96
    },
    {
      "midi": 66,
      "hit": false,
      "t": 116571.31199999982,
      "d": 214.28549999999814,
      "v": 96
    },
    {
      "midi": 73,
      "hit": false,
      "t": 116571.31199999982,
      "d": 214.28549999999814,
      "v": 96
    },
    {
      "midi": 63,
      "hit": false,
      "t": 116785.59749999981,
      "d": 642.8564999999944,
      "v": 96
    },
    {
      "midi": 66,
      "hit": false,
      "t": 116785.59749999981,
      "d": 642.8564999999944,
      "v": 96
    },
    {
      "midi": 71,
      "hit": false,
      "t": 116785.59749999981,
      "d": 642.8564999999944,
      "v": 96
    },
    {
      "midi": 71,
      "hit": false,
      "t": 117428.45399999981,
      "d": 428.5709999999963,
      "v": 96
    },
    {
      "midi": 75,
      "hit": false,
      "t": 117428.45399999981,
      "d": 428.5709999999963,
      "v": 96
    },
    {
      "midi": 78,
      "hit": false,
      "t": 117428.45399999981,
      "d": 428.5709999999963,
      "v": 96
    },
    {
      "midi": 47,
      "hit": false,
      "t": 117428.45399999981,
      "d": 857.1419999999925,
      "v": 96
    },
    {
      "midi": 75,
      "hit": false,
      "t": 117857.0249999998,
      "d": 214.28549999999814,
      "v": 96
    },
    {
      "midi": 68,
      "hit": false,
      "t": 118071.3104999998,
      "d": 857.1419999999925,
      "v": 96
    },
    {
      "midi": 71,
      "hit": false,
      "t": 118071.3104999998,
      "d": 857.1419999999925,
      "v": 96
    },
    {
      "midi": 75,
      "hit": false,
      "t": 118071.3104999998,
      "d": 857.1419999999925,
      "v": 96
    },
    {
      "midi": 44,
      "hit": false,
      "t": 118285.5959999998,
      "d": 1285.7129999999888,
      "v": 96
    },
    {
      "midi": 63,
      "hit": false,
      "t": 118928.4524999998,
      "d": 1071.4274999999907,
      "v": 96
    },
    {
      "midi": 68,
      "hit": false,
      "t": 118928.4524999998,
      "d": 1071.4274999999907,
      "v": 96
    },
    {
      "midi": 71,
      "hit": false,
      "t": 118928.4524999998,
      "d": 1071.4274999999907,
      "v": 96
    },
    {
      "midi": 44,
      "hit": false,
      "t": 119571.30899999979,
      "d": 428.5709999999963,
      "v": 96
    },
    {
      "midi": 42,
      "hit": false,
      "t": 119999.87999999979,
      "d": 1285.7130000000034,
      "v": 96
    },
    {
      "midi": 58,
      "hit": false,
      "t": 119999.87999999979,
      "d": 1285.7130000000034,
      "v": 96
    },
    {
      "midi": 61,
      "hit": false,
      "t": 119999.87999999979,
      "d": 1285.7130000000034,
      "v": 96
    },
    {
      "midi": 66,
      "hit": false,
      "t": 119999.87999999979,
      "d": 1285.7130000000034,
      "v": 96
    },
    {
      "midi": 42,
      "hit": false,
      "t": 121285.59299999979,
      "d": 428.5709999999963,
      "v": 96
    },
    {
      "midi": 66,
      "hit": false,
      "t": 121499.87849999979,
      "d": 214.28549999999814,
      "v": 96
    },
    {
      "midi": 64,
      "hit": false,
      "t": 121714.16399999979,
      "d": 428.5709999999963,
      "v": 96
    },
    {
      "midi": 68,
      "hit": false,
      "t": 121714.16399999979,
      "d": 428.5709999999963,
      "v": 96
    },
    {
      "midi": 71,
      "hit": false,
      "t": 121714.16399999979,
      "d": 428.5709999999963,
      "v": 96
    },
    {
      "midi": 40,
      "hit": false,
      "t": 121714.16399999979,
      "d": 1285.7129999999888,
      "v": 96
    },
    {
      "midi": 71,
      "hit": false,
      "t": 122142.73499999978,
      "d": 214.28549999999814,
      "v": 96
    },
    {
      "midi": 64,
      "hit": false,
      "t": 122357.02049999978,
      "d": 428.5709999999963,
      "v": 96
    },
    {
      "midi": 68,
      "hit": false,
      "t": 122357.02049999978,
      "d": 428.5709999999963,
      "v": 96
    },
    {
      "midi": 71,
      "hit": false,
      "t": 122357.02049999978,
      "d": 428.5709999999963,
      "v": 96
    },
    {
      "midi": 71,
      "hit": false,
      "t": 122785.59149999978,
      "d": 214.28549999999814,
      "v": 96
    },
    {
      "midi": 63,
      "hit": false,
      "t": 122999.87699999977,
      "d": 1714.2839999999997,
      "v": 96
    },
    {
      "midi": 66,
      "hit": false,
      "t": 122999.87699999977,
      "d": 1714.2839999999997,
      "v": 96
    },
    {
      "midi": 71,
      "hit": false,
      "t": 122999.87699999977,
      "d": 1714.2839999999997,
      "v": 96
    },
    {
      "midi": 47,
      "hit": false,
      "t": 122999.87699999977,
      "d": 2142.854999999996,
      "v": 96
    },
    {
      "midi": 71,
      "hit": false,
      "t": 124714.16099999977,
      "d": 214.28549999999814,
      "v": 96
    },
    {
      "midi": 70,
      "hit": false,
      "t": 124928.44649999977,
      "d": 214.28549999999814,
      "v": 96
    },
    {
      "midi": 68,
      "hit": false,
      "t": 125142.73199999977,
      "d": 214.28549999999814,
      "v": 96
    },
    {
      "midi": 56,
      "hit": false,
      "t": 125142.73199999977,
      "d": 1714.283999999985,
      "v": 96
    },
    {
      "midi": 70,
      "hit": false,
      "t": 125357.01749999977,
      "d": 214.28549999999814,
      "v": 96
    },
    {
      "midi": 71,
      "hit": false,
      "t": 125571.30299999977,
      "d": 214.28549999999814,
      "v": 96
    },
    {
      "midi": 78,
      "hit": false,
      "t": 125785.58849999977,
      "d": 428.5709999999963,
      "v": 96
    },
    {
      "midi": 68,
      "hit": false,
      "t": 126214.15949999976,
      "d": 214.28549999999814,
      "v": 96
    },
    {
      "midi": 71,
      "hit": false,
      "t": 126428.44499999976,
      "d": 214.28549999999814,
      "v": 96
    },
    {
      "midi": 78,
      "hit": false,
      "t": 126642.73049999976,
      "d": 428.5709999999963,
      "v": 96
    },
    {
      "midi": 54,
      "hit": false,
      "t": 126857.01599999976,
      "d": 1714.283999999985,
      "v": 96
    },
    {
      "midi": 73,
      "hit": false,
      "t": 127071.30149999975,
      "d": 428.5709999999963,
      "v": 96
    },
    {
      "midi": 70,
      "hit": false,
      "t": 127499.87249999975,
      "d": 428.5709999999963,
      "v": 96
    },
    {
      "midi": 66,
      "hit": false,
      "t": 127928.44349999975,
      "d": 214.28549999999814,
      "v": 96
    },
    {
      "midi": 78,
      "hit": false,
      "t": 128142.72899999974,
      "d": 214.28549999999814,
      "v": 96
    },
    {
      "midi": 66,
      "hit": false,
      "t": 128357.01449999974,
      "d": 214.28549999999814,
      "v": 96
    },
    {
      "midi": 68,
      "hit": false,
      "t": 128571.29999999974,
      "d": 214.28549999999814,
      "v": 96
    },
    {
      "midi": 71,
      "hit": false,
      "t": 128571.29999999974,
      "d": 214.28549999999814,
      "v": 96
    },
    {
      "midi": 52,
      "hit": false,
      "t": 128571.29999999974,
      "d": 1285.7129999999888,
      "v": 96
    },
    {
      "midi": 64,
      "hit": false,
      "t": 128785.58549999974,
      "d": 214.28549999999814,
      "v": 96
    },
    {
      "midi": 68,
      "hit": false,
      "t": 128999.87099999974,
      "d": 214.28549999999814,
      "v": 96
    },
    {
      "midi": 76,
      "hit": false,
      "t": 129214.15649999974,
      "d": 642.8564999999944,
      "v": 96
    },
    {
      "midi": 66,
      "hit": false,
      "t": 129857.01299999973,
      "d": 642.8564999999944,
      "v": 96
    },
    {
      "midi": 75,
      "hit": false,
      "t": 129857.01299999973,
      "d": 642.8564999999944,
      "v": 96
    },
    {
      "midi": 59,
      "hit": false,
      "t": 129857.01299999973,
      "d": 2142.854999999996,
      "v": 96
    },
    {
      "midi": 66,
      "hit": false,
      "t": 130499.86949999972,
      "d": 214.28549999999814,
      "v": 96
    },
    {
      "midi": 75,
      "hit": false,
      "t": 130714.15499999972,
      "d": 214.28549999999814,
      "v": 96
    },
    {
      "midi": 76,
      "hit": false,
      "t": 130928.44049999972,
      "d": 214.2855000000127,
      "v": 96
    },
    {
      "midi": 75,
      "hit": false,
      "t": 131142.72599999973,
      "d": 214.28549999999814,
      "v": 96
    },
    {
      "midi": 73,
      "hit": false,
      "t": 131357.01149999973,
      "d": 214.28549999999814,
      "v": 96
    },
    {
      "midi": 71,
      "hit": false,
      "t": 131571.29699999973,
      "d": 214.28549999999814,
      "v": 96
    },
    {
      "midi": 70,
      "hit": false,
      "t": 131785.58249999973,
      "d": 214.28549999999814,
      "v": 96
    },
    {
      "midi": 68,
      "hit": false,
      "t": 131999.86799999973,
      "d": 214.28549999999814,
      "v": 96
    },
    {
      "midi": 56,
      "hit": false,
      "t": 131999.86799999973,
      "d": 1714.283999999985,
      "v": 96
    },
    {
      "midi": 70,
      "hit": false,
      "t": 132214.15349999972,
      "d": 214.28549999999814,
      "v": 96
    },
    {
      "midi": 71,
      "hit": false,
      "t": 132428.43899999972,
      "d": 214.28549999999814,
      "v": 96
    },
    {
      "midi": 78,
      "hit": false,
      "t": 132642.72449999972,
      "d": 428.5709999999963,
      "v": 96
    },
    {
      "midi": 68,
      "hit": false,
      "t": 133071.29549999972,
      "d": 214.28549999999814,
      "v": 96
    },
    {
      "midi": 80,
      "hit": false,
      "t": 133285.5809999997,
      "d": 214.28549999999814,
      "v": 96
    },
    {
      "midi": 78,
      "hit": false,
      "t": 133499.8664999997,
      "d": 428.5709999999963,
      "v": 96
    },
    {
      "midi": 52,
      "hit": false,
      "t": 133714.1519999997,
      "d": 1714.283999999985,
      "v": 96
    },
    {
      "midi": 71,
      "hit": false,
      "t": 133928.4374999997,
      "d": 428.5709999999963,
      "v": 96
    },
    {
      "midi": 80,
      "hit": false,
      "t": 134357.0084999997,
      "d": 428.5709999999963,
      "v": 96
    },
    {
      "midi": 78,
      "hit": false,
      "t": 134785.5794999997,
      "d": 428.5709999999963,
      "v": 96
    },
    {
      "midi": 71,
      "hit": false,
      "t": 135214.1504999997,
      "d": 428.5709999999963,
      "v": 96
    },
    {
      "midi": 59,
      "hit": false,
      "t": 135428.4359999997,
      "d": 1714.283999999985,
      "v": 96
    },
    {
      "midi": 66,
      "hit": false,
      "t": 135642.7214999997,
      "d": 214.28549999999814,
      "v": 96
    },
    {
      "midi": 71,
      "hit": false,
      "t": 135857.0069999997,
      "d": 428.5709999999963,
      "v": 96
    },
    {
      "midi": 75,
      "hit": false,
      "t": 135857.0069999997,
      "d": 428.5709999999963,
      "v": 96
    },
    {
      "midi": 71,
      "hit": false,
      "t": 136285.5779999997,
      "d": 214.28549999999814,
      "v": 96
    },
    {
      "midi": 75,
      "hit": false,
      "t": 136285.5779999997,
      "d": 214.28549999999814,
      "v": 96
    },
    {
      "midi": 76,
      "hit": false,
      "t": 136499.8634999997,
      "d": 214.28549999999814,
      "v": 96
    },
    {
      "midi": 78,
      "hit": false,
      "t": 136714.14899999968,
      "d": 214.28549999999814,
      "v": 96
    },
    {
      "midi": 66,
      "hit": false,
      "t": 136928.43449999968,
      "d": 428.5709999999963,
      "v": 96
    },
    {
      "midi": 70,
      "hit": false,
      "t": 136928.43449999968,
      "d": 428.5709999999963,
      "v": 96
    },
    {
      "midi": 73,
      "hit": false,
      "t": 136928.43449999968,
      "d": 428.5709999999963,
      "v": 96
    },
    {
      "midi": 54,
      "hit": false,
      "t": 137142.71999999968,
      "d": 1714.283999999985,
      "v": 96
    },
    {
      "midi": 66,
      "hit": false,
      "t": 137357.00549999968,
      "d": 214.28549999999814,
      "v": 96
    },
    {
      "midi": 63,
      "hit": false,
      "t": 137571.29099999968,
      "d": 214.28549999999814,
      "v": 96
    },
    {
      "midi": 64,
      "hit": false,
      "t": 137785.57649999968,
      "d": 214.28549999999814,
      "v": 96
    },
    {
      "midi": 63,
      "hit": false,
      "t": 137999.86199999967,
      "d": 214.28549999999814,
      "v": 96
    },
    {
      "midi": 61,
      "hit": false,
      "t": 138214.14749999967,
      "d": 214.28549999999814,
      "v": 96
    },
    {
      "midi": 59,
      "hit": false,
      "t": 138428.43299999967,
      "d": 214.28549999999814,
      "v": 96
    },
    {
      "midi": 58,
      "hit": false,
      "t": 138642.71849999967,
      "d": 214.28549999999814,
      "v": 96
    },
    {
      "midi": 56,
      "hit": false,
      "t": 138857.00399999967,
      "d": 214.28549999999814,
      "v": 96
    },
    {
      "midi": 44,
      "hit": false,
      "t": 138857.00399999967,
      "d": 1714.283999999985,
      "v": 96
    },
    {
      "midi": 58,
      "hit": false,
      "t": 139071.28949999966,
      "d": 214.28549999999814,
      "v": 96
    },
    {
      "midi": 59,
      "hit": false,
      "t": 139285.57499999966,
      "d": 214.28549999999814,
      "v": 96
    },
    {
      "midi": 66,
      "hit": false,
      "t": 139499.86049999966,
      "d": 428.5709999999963,
      "v": 96
    },
    {
      "midi": 56,
      "hit": false,
      "t": 139928.43149999966,
      "d": 214.28549999999814,
      "v": 96
    },
    {
      "midi": 59,
      "hit": false,
      "t": 140142.71699999965,
      "d": 214.28549999999814,
      "v": 96
    },
    {
      "midi": 66,
      "hit": false,
      "t": 140357.00249999965,
      "d": 428.5709999999963,
      "v": 96
    },
    {
      "midi": 40,
      "hit": false,
      "t": 140571.28799999965,
      "d": 1714.283999999985,
      "v": 96
    },
    {
      "midi": 59,
      "hit": false,
      "t": 140785.57349999965,
      "d": 428.5709999999963,
      "v": 96
    },
    {
      "midi": 56,
      "hit": false,
      "t": 141214.14449999965,
      "d": 428.5709999999963,
      "v": 96
    },
    {
      "midi": 59,
      "hit": false,
      "t": 141642.71549999964,
      "d": 214.28549999999814,
      "v": 96
    },
    {
      "midi": 68,
      "hit": false,
      "t": 141857.00099999964,
      "d": 214.28549999999814,
      "v": 96
    },
    {
      "midi": 66,
      "hit": false,
      "t": 142071.28649999964,
      "d": 428.5709999999963,
      "v": 96
    },
    {
      "midi": 47,
      "hit": false,
      "t": 142285.57199999964,
      "d": 1714.283999999985,
      "v": 96
    },
    {
      "midi": 59,
      "hit": false,
      "t": 142499.85749999963,
      "d": 428.5709999999963,
      "v": 96
    },
    {
      "midi": 54,
      "hit": false,
      "t": 142928.42849999963,
      "d": 428.5709999999963,
      "v": 96
    },
    {
      "midi": 59,
      "hit": false,
      "t": 143356.99949999963,
      "d": 428.5709999999963,
      "v": 96
    },
    {
      "midi": 61,
      "hit": false,
      "t": 143785.57049999962,
      "d": 642.8564999999944,
      "v": 96
    },
    {
      "midi": 63,
      "hit": false,
      "t": 144428.42699999962,
      "d": 214.28549999999814,
      "v": 96
    },
    {
      "midi": 64,
      "hit": false,
      "t": 144642.71249999962,
      "d": 214.28549999999814,
      "v": 96
    },
    {
      "midi": 63,
      "hit": false,
      "t": 144856.9979999996,
      "d": 214.28549999999814,
      "v": 96
    },
    {
      "midi": 61,
      "hit": false,
      "t": 145071.2834999996,
      "d": 214.28549999999814,
      "v": 96
    },
    {
      "midi": 59,
      "hit": false,
      "t": 145285.5689999996,
      "d": 214.28549999999814,
      "v": 96
    },
    {
      "midi": 58,
      "hit": false,
      "t": 145499.8544999996,
      "d": 214.28549999999814,
      "v": 96
    },
    {
      "midi": 56,
      "hit": false,
      "t": 145714.1399999996,
      "d": 214.28549999999814,
      "v": 96
    },
    {
      "midi": 58,
      "hit": false,
      "t": 145928.4254999996,
      "d": 214.28549999999814,
      "v": 96
    },
    {
      "midi": 59,
      "hit": false,
      "t": 146142.7109999996,
      "d": 214.28549999999814,
      "v": 96
    },
    {
      "midi": 66,
      "hit": false,
      "t": 146356.9964999996,
      "d": 428.5709999999963,
      "v": 96
    },
    {
      "midi": 56,
      "hit": false,
      "t": 146785.5674999996,
      "d": 214.28549999999814,
      "v": 96
    },
    {
      "midi": 59,
      "hit": false,
      "t": 146999.8529999996,
      "d": 214.28549999999814,
      "v": 96
    },
    {
      "midi": 66,
      "hit": false,
      "t": 147214.1384999996,
      "d": 428.5709999999963,
      "v": 96
    },
    {
      "midi": 42,
      "hit": false,
      "t": 147428.4239999996,
      "d": 1714.283999999985,
      "v": 96
    },
    {
      "midi": 61,
      "hit": false,
      "t": 147642.7094999996,
      "d": 428.5709999999963,
      "v": 96
    },
    {
      "midi": 58,
      "hit": false,
      "t": 148071.2804999996,
      "d": 428.5709999999963,
      "v": 96
    },
    {
      "midi": 54,
      "hit": false,
      "t": 148499.85149999958,
      "d": 214.28549999999814,
      "v": 96
    },
    {
      "midi": 54,
      "hit": false,
      "t": 148714.13699999958,
      "d": 428.5709999999963,
      "v": 96
    },
    {
      "midi": 58,
      "hit": false,
      "t": 148714.13699999958,
      "d": 428.5709999999963,
      "v": 96
    },
    {
      "midi": 61,
      "hit": false,
      "t": 148714.13699999958,
      "d": 428.5709999999963,
      "v": 96
    },
    {
      "midi": 52,
      "hit": false,
      "t": 149142.70799999958,
      "d": 642.8564999999944,
      "v": 96
    },
    {
      "midi": 56,
      "hit": false,
      "t": 149142.70799999958,
      "d": 642.8564999999944,
      "v": 96
    },
    {
      "midi": 59,
      "hit": false,
      "t": 149142.70799999958,
      "d": 642.8564999999944,
      "v": 96
    },
    {
      "midi": 40,
      "hit": false,
      "t": 149142.70799999958,
      "d": 1285.7129999999888,
      "v": 96
    },
    {
      "midi": 52,
      "hit": false,
      "t": 149785.56449999957,
      "d": 642.8564999999944,
      "v": 96
    },
    {
      "midi": 56,
      "hit": false,
      "t": 149785.56449999957,
      "d": 642.8564999999944,
      "v": 96
    },
    {
      "midi": 59,
      "hit": false,
      "t": 149785.56449999957,
      "d": 642.8564999999944,
      "v": 96
    },
    {
      "midi": 35,
      "hit": false,
      "t": 150428.42099999957,
      "d": 2142.8550000000105,
      "v": 96
    },
    {
      "midi": 51,
      "hit": false,
      "t": 150428.42099999957,
      "d": 2142.8550000000105,
      "v": 96
    },
    {
      "midi": 54,
      "hit": false,
      "t": 150428.42099999957,
      "d": 2142.8550000000105,
      "v": 96
    },
    {
      "midi": 59,
      "hit": false,
      "t": 150428.42099999957,
      "d": 2142.8550000000105,
      "v": 96
    },
    {
      "midi": 68,
      "hit": false,
      "t": 152142.70499999958,
      "d": 214.28549999999814,
      "v": 96
    },
    {
      "midi": 70,
      "hit": false,
      "t": 152356.99049999958,
      "d": 214.28549999999814,
      "v": 96
    },
    {
      "midi": 59,
      "hit": false,
      "t": 152571.27599999958,
      "d": 642.8564999999944,
      "v": 96
    },
    {
      "midi": 63,
      "hit": false,
      "t": 152571.27599999958,
      "d": 642.8564999999944,
      "v": 96
    },
    {
      "midi": 68,
      "hit": false,
      "t": 152571.27599999958,
      "d": 642.8564999999944,
      "v": 96
    },
    {
      "midi": 44,
      "hit": false,
      "t": 152571.27599999958,
      "d": 1285.7129999999888,
      "v": 96
    },
    {
      "midi": 68,
      "hit": false,
      "t": 153214.13249999957,
      "d": 214.28549999999814,
      "v": 96
    },
    {
      "midi": 59,
      "hit": false,
      "t": 153214.13249999957,
      "d": 642.8564999999944,
      "v": 96
    },
    {
      "midi": 63,
      "hit": false,
      "t": 153214.13249999957,
      "d": 642.8564999999944,
      "v": 96
    },
    {
      "midi": 68,
      "hit": false,
      "t": 153428.41799999957,
      "d": 428.5709999999963,
      "v": 96
    },
    {
      "midi": 68,
      "hit": false,
      "t": 153856.98899999956,
      "d": 214.28549999999814,
      "v": 96
    },
    {
      "midi": 44,
      "hit": false,
      "t": 153856.98899999956,
      "d": 428.5709999999963,
      "v": 96
    },
    {
      "midi": 58,
      "hit": false,
      "t": 154071.27449999956,
      "d": 642.8564999999944,
      "v": 96
    },
    {
      "midi": 61,
      "hit": false,
      "t": 154071.27449999956,
      "d": 642.8564999999944,
      "v": 96
    },
    {
      "midi": 68,
      "hit": false,
      "t": 154071.27449999956,
      "d": 642.8564999999944,
      "v": 96
    },
    {
      "midi": 42,
      "hit": false,
      "t": 154285.55999999956,
      "d": 1285.7129999999888,
      "v": 96
    },
    {
      "midi": 66,
      "hit": false,
      "t": 154714.13099999956,
      "d": 214.28549999999814,
      "v": 96
    },
    {
      "midi": 66,
      "hit": false,
      "t": 154928.41649999956,
      "d": 214.28549999999814,
      "v": 96
    },
    {
      "midi": 58,
      "hit": false,
      "t": 154928.41649999956,
      "d": 428.5709999999963,
      "v": 96
    },
    {
      "midi": 61,
      "hit": false,
      "t": 154928.41649999956,
      "d": 428.5709999999963,
      "v": 96
    },
    {
      "midi": 66,
      "hit": false,
      "t": 155142.70199999955,
      "d": 214.28549999999814,
      "v": 96
    },
    {
      "midi": 58,
      "hit": false,
      "t": 155356.98749999955,
      "d": 642.8564999999944,
      "v": 96
    },
    {
      "midi": 61,
      "hit": false,
      "t": 155356.98749999955,
      "d": 642.8564999999944,
      "v": 96
    },
    {
      "midi": 66,
      "hit": false,
      "t": 155356.98749999955,
      "d": 642.8564999999944,
      "v": 96
    },
    {
      "midi": 42,
      "hit": false,
      "t": 155571.27299999955,
      "d": 428.5709999999963,
      "v": 96
    },
    {
      "midi": 64,
      "hit": false,
      "t": 155999.84399999955,
      "d": 214.28549999999814,
      "v": 96
    },
    {
      "midi": 68,
      "hit": false,
      "t": 155999.84399999955,
      "d": 214.28549999999814,
      "v": 96
    },
    {
      "midi": 71,
      "hit": false,
      "t": 155999.84399999955,
      "d": 214.28549999999814,
      "v": 96
    },
    {
      "midi": 40,
      "hit": false,
      "t": 155999.84399999955,
      "d": 1285.7129999999888,
      "v": 96
    },
    {
      "midi": 71,
      "hit": false,
      "t": 156214.12949999954,
      "d": 428.5709999999963,
      "v": 96
    },
    {
      "midi": 64,
      "hit": false,
      "t": 156642.70049999954,
      "d": 428.5709999999963,
      "v": 96
    },
    {
      "midi": 68,
      "hit": false,
      "t": 156642.70049999954,
      "d": 428.5709999999963,
      "v": 96
    },
    {
      "midi": 71,
      "hit": false,
      "t": 156642.70049999954,
      "d": 428.5709999999963,
      "v": 96
    },
    {
      "midi": 75,
      "hit": false,
      "t": 157071.27149999954,
      "d": 214.28549999999814,
      "v": 96
    },
    {
      "midi": 66,
      "hit": false,
      "t": 157285.55699999954,
      "d": 1285.7129999999888,
      "v": 96
    },
    {
      "midi": 71,
      "hit": false,
      "t": 157285.55699999954,
      "d": 1285.7129999999888,
      "v": 96
    },
    {
      "midi": 75,
      "hit": false,
      "t": 157285.55699999954,
      "d": 1285.7129999999888,
      "v": 96
    },
    {
      "midi": 47,
      "hit": false,
      "t": 157285.55699999954,
      "d": 2142.8549999999814,
      "v": 96
    },
    {
      "midi": 63,
      "hit": false,
      "t": 158571.26999999952,
      "d": 857.1419999999925,
      "v": 96
    },
    {
      "midi": 66,
      "hit": false,
      "t": 158571.26999999952,
      "d": 857.1419999999925,
      "v": 96
    },
    {
      "midi": 71,
      "hit": false,
      "t": 158571.26999999952,
      "d": 857.1419999999925,
      "v": 96
    },
    {
      "midi": 63,
      "hit": false,
      "t": 159428.41199999952,
      "d": 214.28549999999814,
      "v": 96
    },
    {
      "midi": 68,
      "hit": false,
      "t": 159428.41199999952,
      "d": 214.28549999999814,
      "v": 96
    },
    {
      "midi": 73,
      "hit": false,
      "t": 159428.41199999952,
      "d": 214.28549999999814,
      "v": 96
    },
    {
      "midi": 44,
      "hit": false,
      "t": 159428.41199999952,
      "d": 1285.7129999999888,
      "v": 96
    },
    {
      "midi": 73,
      "hit": false,
      "t": 159642.6974999995,
      "d": 428.5709999999963,
      "v": 96
    },
    {
      "midi": 63,
      "hit": false,
      "t": 160071.2684999995,
      "d": 642.8564999999944,
      "v": 96
    },
    {
      "midi": 68,
      "hit": false,
      "t": 160071.2684999995,
      "d": 642.8564999999944,
      "v": 96
    },
    {
      "midi": 73,
      "hit": false,
      "t": 160071.2684999995,
      "d": 642.8564999999944,
      "v": 96
    },
    {
      "midi": 73,
      "hit": false,
      "t": 160714.1249999995,
      "d": 214.28549999999814,
      "v": 96
    },
    {
      "midi": 44,
      "hit": false,
      "t": 160714.1249999995,
      "d": 428.5709999999963,
      "v": 96
    },
    {
      "midi": 66,
      "hit": false,
      "t": 160928.4104999995,
      "d": 428.5709999999963,
      "v": 96
    },
    {
      "midi": 70,
      "hit": false,
      "t": 160928.4104999995,
      "d": 428.5709999999963,
      "v": 96
    },
    {
      "midi": 73,
      "hit": false,
      "t": 160928.4104999995,
      "d": 428.5709999999963,
      "v": 96
    },
    {
      "midi": 42,
      "hit": false,
      "t": 161142.6959999995,
      "d": 1285.7129999999888,
      "v": 96
    },
    {
      "midi": 71,
      "hit": false,
      "t": 161356.9814999995,
      "d": 428.5709999999963,
      "v": 96
    },
    {
      "midi": 66,
      "hit": false,
      "t": 161785.5524999995,
      "d": 642.8564999999944,
      "v": 96
    },
    {
      "midi": 71,
      "hit": false,
      "t": 161785.5524999995,
      "d": 642.8564999999944,
      "v": 96
    },
    {
      "midi": 42,
      "hit": false,
      "t": 162428.4089999995,
      "d": 428.5709999999963,
      "v": 96
    },
    {
      "midi": 68,
      "hit": false,
      "t": 162428.4089999995,
      "d": 428.5709999999963,
      "v": 96
    },
    {
      "midi": 64,
      "hit": false,
      "t": 162856.9799999995,
      "d": 428.5709999999963,
      "v": 96
    },
    {
      "midi": 68,
      "hit": false,
      "t": 162856.9799999995,
      "d": 428.5709999999963,
      "v": 96
    },
    {
      "midi": 76,
      "hit": false,
      "t": 162856.9799999995,
      "d": 428.5709999999963,
      "v": 96
    },
    {
      "midi": 40,
      "hit": false,
      "t": 162856.9799999995,
      "d": 1285.7129999999888,
      "v": 96
    },
    {
      "midi": 76,
      "hit": false,
      "t": 163285.55099999948,
      "d": 214.28549999999814,
      "v": 96
    },
    {
      "midi": 64,
      "hit": false,
      "t": 163499.83649999948,
      "d": 428.5709999999963,
      "v": 96
    },
    {
      "midi": 68,
      "hit": false,
      "t": 163499.83649999948,
      "d": 428.5709999999963,
      "v": 96
    },
    {
      "midi": 76,
      "hit": false,
      "t": 163499.83649999948,
      "d": 428.5709999999963,
      "v": 96
    },
    {
      "midi": 75,
      "hit": false,
      "t": 163928.40749999948,
      "d": 214.28549999999814,
      "v": 96
    },
    {
      "midi": 63,
      "hit": false,
      "t": 164142.69299999948,
      "d": 1714.283999999985,
      "v": 96
    },
    {
      "midi": 66,
      "hit": false,
      "t": 164142.69299999948,
      "d": 1714.283999999985,
      "v": 96
    },
    {
      "midi": 75,
      "hit": false,
      "t": 164142.69299999948,
      "d": 1714.283999999985,
      "v": 96
    },
    {
      "midi": 47,
      "hit": false,
      "t": 164142.69299999948,
      "d": 2142.8549999999814,
      "v": 96
    },
    {
      "midi": 68,
      "hit": false,
      "t": 165214.12049999947,
      "d": 214.28549999999814,
      "v": 96
    },
    {
      "midi": 78,
      "hit": false,
      "t": 165428.40599999946,
      "d": 214.28549999999814,
      "v": 96
    },
    {
      "midi": 78,
      "hit": false,
      "t": 165642.69149999946,
      "d": 428.5709999999963,
      "v": 96
    },
    {
      "midi": 68,
      "hit": false,
      "t": 165856.97699999946,
      "d": 214.28549999999814,
      "v": 96
    },
    {
      "midi": 70,
      "hit": false,
      "t": 166071.26249999946,
      "d": 214.28549999999814,
      "v": 96
    },
    {
      "midi": 78,
      "hit": false,
      "t": 166071.26249999946,
      "d": 642.8564999999944,
      "v": 96
    },
    {
      "midi": 68,
      "hit": false,
      "t": 166285.54799999946,
      "d": 428.5709999999963,
      "v": 96
    },
    {
      "midi": 71,
      "hit": false,
      "t": 166285.54799999946,
      "d": 428.5709999999963,
      "v": 96
    },
    {
      "midi": 44,
      "hit": false,
      "t": 166285.54799999946,
      "d": 1285.7129999999888,
      "v": 96
    },
    {
      "midi": 73,
      "hit": false,
      "t": 166714.11899999945,
      "d": 214.28549999999814,
      "v": 96
    },
    {
      "midi": 68,
      "hit": false,
      "t": 166928.40449999945,
      "d": 642.8564999999944,
      "v": 96
    },
    {
      "midi": 73,
      "hit": false,
      "t": 166928.40449999945,
      "d": 642.8564999999944,
      "v": 96
    },
    {
      "midi": 73,
      "hit": false,
      "t": 167571.26099999945,
      "d": 214.28549999999814,
      "v": 96
    },
    {
      "midi": 44,
      "hit": false,
      "t": 167571.26099999945,
      "d": 428.5709999999963,
      "v": 96
    },
    {
      "midi": 66,
      "hit": false,
      "t": 167785.54649999944,
      "d": 642.8564999999944,
      "v": 96
    },
    {
      "midi": 70,
      "hit": false,
      "t": 167785.54649999944,
      "d": 642.8564999999944,
      "v": 96
    },
    {
      "midi": 73,
      "hit": false,
      "t": 167785.54649999944,
      "d": 857.1419999999925,
      "v": 96
    },
    {
      "midi": 42,
      "hit": false,
      "t": 167999.83199999944,
      "d": 1285.7129999999888,
      "v": 96
    },
    {
      "midi": 66,
      "hit": false,
      "t": 168642.68849999944,
      "d": 214.28549999999814,
      "v": 96
    },
    {
      "midi": 73,
      "hit": false,
      "t": 168642.68849999944,
      "d": 214.28549999999814,
      "v": 96
    },
    {
      "midi": 66,
      "hit": false,
      "t": 168856.97399999943,
      "d": 642.8564999999944,
      "v": 96
    },
    {
      "midi": 71,
      "hit": false,
      "t": 168856.97399999943,
      "d": 857.1419999999925,
      "v": 96
    },
    {
      "midi": 42,
      "hit": false,
      "t": 169285.54499999943,
      "d": 428.5709999999963,
      "v": 96
    },
    {
      "midi": 66,
      "hit": false,
      "t": 169499.83049999943,
      "d": 214.28549999999814,
      "v": 96
    },
    {
      "midi": 64,
      "hit": false,
      "t": 169714.11599999943,
      "d": 214.28549999999814,
      "v": 96
    },
    {
      "midi": 68,
      "hit": false,
      "t": 169714.11599999943,
      "d": 214.28549999999814,
      "v": 96
    },
    {
      "midi": 71,
      "hit": false,
      "t": 169714.11599999943,
      "d": 214.28549999999814,
      "v": 96
    },
    {
      "midi": 40,
      "hit": false,
      "t": 169714.11599999943,
      "d": 1285.7129999999888,
      "v": 96
    },
    {
      "midi": 71,
      "hit": false,
      "t": 169928.40149999943,
      "d": 428.5709999999963,
      "v": 96
    },
    {
      "midi": 64,
      "hit": false,
      "t": 170356.97249999942,
      "d": 428.5709999999963,
      "v": 96
    },
    {
      "midi": 68,
      "hit": false,
      "t": 170356.97249999942,
      "d": 428.5709999999963,
      "v": 96
    },
    {
      "midi": 71,
      "hit": false,
      "t": 170356.97249999942,
      "d": 428.5709999999963,
      "v": 96
    },
    {
      "midi": 71,
      "hit": false,
      "t": 170785.54349999942,
      "d": 214.28549999999814,
      "v": 96
    },
    {
      "midi": 63,
      "hit": false,
      "t": 170999.82899999942,
      "d": 1285.7129999999888,
      "v": 96
    },
    {
      "midi": 66,
      "hit": false,
      "t": 170999.82899999942,
      "d": 1285.7129999999888,
      "v": 96
    },
    {
      "midi": 71,
      "hit": false,
      "t": 170999.82899999942,
      "d": 1285.7129999999888,
      "v": 96
    },
    {
      "midi": 47,
      "hit": false,
      "t": 170999.82899999942,
      "d": 2142.8549999999814,
      "v": 96
    },
    {
      "midi": 63,
      "hit": false,
      "t": 172285.5419999994,
      "d": 642.8564999999944,
      "v": 96
    },
    {
      "midi": 66,
      "hit": false,
      "t": 172285.5419999994,
      "d": 642.8564999999944,
      "v": 96
    },
    {
      "midi": 71,
      "hit": false,
      "t": 172285.5419999994,
      "d": 642.8564999999944,
      "v": 96
    },
    {
      "midi": 66,
      "hit": false,
      "t": 172928.3984999994,
      "d": 214.28549999999814,
      "v": 96
    },
    {
      "midi": 63,
      "hit": false,
      "t": 173142.6839999994,
      "d": 428.5709999999963,
      "v": 96
    },
    {
      "midi": 68,
      "hit": false,
      "t": 173142.6839999994,
      "d": 428.5709999999963,
      "v": 96
    },
    {
      "midi": 73,
      "hit": false,
      "t": 173142.6839999994,
      "d": 428.5709999999963,
      "v": 96
    },
    {
      "midi": 44,
      "hit": false,
      "t": 173142.6839999994,
      "d": 1285.7129999999888,
      "v": 96
    },
    {
      "midi": 73,
      "hit": false,
      "t": 173571.2549999994,
      "d": 214.28549999999814,
      "v": 96
    },
    {
      "midi": 63,
      "hit": false,
      "t": 173785.5404999994,
      "d": 642.8564999999944,
      "v": 96
    },
    {
      "midi": 68,
      "hit": false,
      "t": 173785.5404999994,
      "d": 642.8564999999944,
      "v": 96
    },
    {
      "midi": 73,
      "hit": false,
      "t": 173785.5404999994,
      "d": 642.8564999999944,
      "v": 96
    },
    {
      "midi": 73,
      "hit": false,
      "t": 174428.3969999994,
      "d": 214.28549999999814,
      "v": 96
    },
    {
      "midi": 44,
      "hit": false,
      "t": 174428.3969999994,
      "d": 428.5709999999963,
      "v": 96
    },
    {
      "midi": 66,
      "hit": false,
      "t": 174642.68249999938,
      "d": 428.5709999999963,
      "v": 96
    },
    {
      "midi": 70,
      "hit": false,
      "t": 174642.68249999938,
      "d": 428.5709999999963,
      "v": 96
    },
    {
      "midi": 73,
      "hit": false,
      "t": 174642.68249999938,
      "d": 428.5709999999963,
      "v": 96
    },
    {
      "midi": 42,
      "hit": false,
      "t": 174856.96799999938,
      "d": 1285.7129999999888,
      "v": 96
    },
    {
      "midi": 71,
      "hit": false,
      "t": 175071.25349999938,
      "d": 428.5709999999963,
      "v": 96
    },
    {
      "midi": 66,
      "hit": false,
      "t": 175499.82449999938,
      "d": 428.5709999999963,
      "v": 96
    },
    {
      "midi": 71,
      "hit": false,
      "t": 175499.82449999938,
      "d": 428.5709999999963,
      "v": 96
    },
    {
      "midi": 66,
      "hit": false,
      "t": 175928.39549999937,
      "d": 642.8564999999944,
      "v": 96
    },
    {
      "midi": 71,
      "hit": false,
      "t": 175928.39549999937,
      "d": 642.8564999999944,
      "v": 96
    },
    {
      "midi": 42,
      "hit": false,
      "t": 176142.68099999937,
      "d": 428.5709999999963,
      "v": 96
    },
    {
      "midi": 68,
      "hit": false,
      "t": 176571.25199999937,
      "d": 428.5709999999963,
      "v": 96
    },
    {
      "midi": 71,
      "hit": false,
      "t": 176571.25199999937,
      "d": 428.5709999999963,
      "v": 96
    },
    {
      "midi": 76,
      "hit": false,
      "t": 176571.25199999937,
      "d": 428.5709999999963,
      "v": 96
    },
    {
      "midi": 40,
      "hit": false,
      "t": 176571.25199999937,
      "d": 1285.7129999999888,
      "v": 96
    },
    {
      "midi": 76,
      "hit": false,
      "t": 176999.82299999936,
      "d": 214.28549999999814,
      "v": 96
    },
    {
      "midi": 68,
      "hit": false,
      "t": 177214.10849999936,
      "d": 428.5709999999963,
      "v": 96
    },
    {
      "midi": 71,
      "hit": false,
      "t": 177214.10849999936,
      "d": 428.5709999999963,
      "v": 96
    },
    {
      "midi": 76,
      "hit": false,
      "t": 177214.10849999936,
      "d": 428.5709999999963,
      "v": 96
    },
    {
      "midi": 75,
      "hit": false,
      "t": 177642.67949999936,
      "d": 214.28549999999814,
      "v": 96
    },
    {
      "midi": 75,
      "hit": false,
      "t": 177856.96499999936,
      "d": 214.28549999999814,
      "v": 96
    },
    {
      "midi": 47,
      "hit": false,
      "t": 177856.96499999936,
      "d": 1285.7129999999888,
      "v": 96
    },
    {
      "midi": 73,
      "hit": false,
      "t": 178071.25049999935,
      "d": 214.28549999999814,
      "v": 96
    },
    {
      "midi": 63,
      "hit": false,
      "t": 178285.53599999935,
      "d": 428.5709999999963,
      "v": 96
    },
    {
      "midi": 66,
      "hit": false,
      "t": 178285.53599999935,
      "d": 428.5709999999963,
      "v": 96
    },
    {
      "midi": 71,
      "hit": false,
      "t": 178285.53599999935,
      "d": 428.5709999999963,
      "v": 96
    },
    {
      "midi": 68,
      "hit": false,
      "t": 178928.39249999935,
      "d": 214.28549999999814,
      "v": 96
    },
    {
      "midi": 71,
      "hit": false,
      "t": 179142.67799999935,
      "d": 428.5709999999963,
      "v": 96
    },
    {
      "midi": 75,
      "hit": false,
      "t": 179142.67799999935,
      "d": 428.5709999999963,
      "v": 96
    },
    {
      "midi": 78,
      "hit": false,
      "t": 179142.67799999935,
      "d": 428.5709999999963,
      "v": 96
    },
    {
      "midi": 47,
      "hit": false,
      "t": 179142.67799999935,
      "d": 857.1419999999925,
      "v": 96
    },
    {
      "midi": 78,
      "hit": false,
      "t": 179571.24899999934,
      "d": 214.28549999999814,
      "v": 96
    },
    {
      "midi": 71,
      "hit": false,
      "t": 179785.53449999934,
      "d": 214.28549999999814,
      "v": 96
    },
    {
      "midi": 75,
      "hit": false,
      "t": 179785.53449999934,
      "d": 214.28549999999814,
      "v": 96
    },
    {
      "midi": 78,
      "hit": false,
      "t": 179785.53449999934,
      "d": 214.28549999999814,
      "v": 96
    },
    {
      "midi": 71,
      "hit": false,
      "t": 179999.81999999934,
      "d": 428.5709999999963,
      "v": 96
    },
    {
      "midi": 75,
      "hit": false,
      "t": 179999.81999999934,
      "d": 428.5709999999963,
      "v": 96
    },
    {
      "midi": 78,
      "hit": false,
      "t": 179999.81999999934,
      "d": 428.5709999999963,
      "v": 96
    },
    {
      "midi": 44,
      "hit": false,
      "t": 179999.81999999934,
      "d": 857.1419999999925,
      "v": 96
    },
    {
      "midi": 75,
      "hit": false,
      "t": 180428.39099999933,
      "d": 214.28549999999814,
      "v": 96
    },
    {
      "midi": 68,
      "hit": false,
      "t": 180642.67649999933,
      "d": 642.8564999999944,
      "v": 96
    },
    {
      "midi": 73,
      "hit": false,
      "t": 180642.67649999933,
      "d": 642.8564999999944,
      "v": 96
    },
    {
      "midi": 44,
      "hit": false,
      "t": 180856.96199999933,
      "d": 857.1419999999925,
      "v": 96
    },
    {
      "midi": 73,
      "hit": false,
      "t": 181285.53299999933,
      "d": 214.28549999999814,
      "v": 96
    },
    {
      "midi": 66,
      "hit": false,
      "t": 181499.81849999932,
      "d": 428.5709999999963,
      "v": 96
    },
    {
      "midi": 70,
      "hit": false,
      "t": 181499.81849999932,
      "d": 428.5709999999963,
      "v": 96
    },
    {
      "midi": 73,
      "hit": false,
      "t": 181499.81849999932,
      "d": 428.5709999999963,
      "v": 96
    },
    {
      "midi": 42,
      "hit": false,
      "t": 181714.10399999932,
      "d": 857.1419999999925,
      "v": 96
    },
    {
      "midi": 73,
      "hit": false,
      "t": 181928.38949999932,
      "d": 428.5709999999963,
      "v": 96
    },
    {
      "midi": 66,
      "hit": false,
      "t": 182356.96049999932,
      "d": 642.8564999999944,
      "v": 96
    },
    {
      "midi": 71,
      "hit": false,
      "t": 182356.96049999932,
      "d": 642.8564999999944,
      "v": 96
    },
    {
      "midi": 42,
      "hit": false,
      "t": 182571.24599999932,
      "d": 857.1419999999925,
      "v": 96
    },
    {
      "midi": 68,
      "hit": false,
      "t": 183214.1024999993,
      "d": 214.28549999999814,
      "v": 96
    },
    {
      "midi": 64,
      "hit": false,
      "t": 183428.3879999993,
      "d": 642.8564999999944,
      "v": 96
    },
    {
      "midi": 68,
      "hit": false,
      "t": 183428.3879999993,
      "d": 642.8564999999944,
      "v": 96
    },
    {
      "midi": 71,
      "hit": false,
      "t": 183428.3879999993,
      "d": 642.8564999999944,
      "v": 96
    },
    {
      "midi": 40,
      "hit": false,
      "t": 183428.3879999993,
      "d": 857.1419999999925,
      "v": 96
    },
    {
      "midi": 64,
      "hit": false,
      "t": 184071.2444999993,
      "d": 428.5709999999963,
      "v": 96
    },
    {
      "midi": 68,
      "hit": false,
      "t": 184071.2444999993,
      "d": 428.5709999999963,
      "v": 96
    },
    {
      "midi": 71,
      "hit": false,
      "t": 184071.2444999993,
      "d": 428.5709999999963,
      "v": 96
    },
    {
      "midi": 40,
      "hit": false,
      "t": 184285.5299999993,
      "d": 428.5709999999963,
      "v": 96
    },
    {
      "midi": 71,
      "hit": false,
      "t": 184499.8154999993,
      "d": 214.28549999999814,
      "v": 96
    },
    {
      "midi": 47,
      "hit": false,
      "t": 184714.1009999993,
      "d": 1285.7129999999888,
      "v": 96
    },
    {
      "midi": 63,
      "hit": false,
      "t": 184714.1009999993,
      "d": 2142.8549999999814,
      "v": 96
    },
    {
      "midi": 66,
      "hit": false,
      "t": 184714.1009999993,
      "d": 2142.8549999999814,
      "v": 96
    },
    {
      "midi": 71,
      "hit": false,
      "t": 184714.1009999993,
      "d": 2142.8549999999814,
      "v": 96
    },
    {
      "midi": 47,
      "hit": false,
      "t": 185999.81399999929,
      "d": 857.1419999999925,
      "v": 96
    },
    {
      "midi": 63,
      "hit": false,
      "t": 186856.95599999928,
      "d": 214.28549999999814,
      "v": 96
    },
    {
      "midi": 68,
      "hit": false,
      "t": 186856.95599999928,
      "d": 214.28549999999814,
      "v": 96
    },
    {
      "midi": 73,
      "hit": false,
      "t": 186856.95599999928,
      "d": 214.28549999999814,
      "v": 96
    },
    {
      "midi": 44,
      "hit": false,
      "t": 186856.95599999928,
      "d": 857.1419999999925,
      "v": 96
    },
    {
      "midi": 73,
      "hit": false,
      "t": 187071.24149999928,
      "d": 428.5709999999963,
      "v": 96
    },
    {
      "midi": 63,
      "hit": false,
      "t": 187499.81249999927,
      "d": 428.5709999999963,
      "v": 96
    },
    {
      "midi": 68,
      "hit": false,
      "t": 187499.81249999927,
      "d": 428.5709999999963,
      "v": 96
    },
    {
      "midi": 73,
      "hit": false,
      "t": 187499.81249999927,
      "d": 428.5709999999963,
      "v": 96
    },
    {
      "midi": 44,
      "hit": false,
      "t": 187714.09799999927,
      "d": 857.1419999999925,
      "v": 96
    },
    {
      "midi": 73,
      "hit": false,
      "t": 187928.38349999927,
      "d": 214.28549999999814,
      "v": 96
    },
    {
      "midi": 73,
      "hit": false,
      "t": 188142.66899999927,
      "d": 214.28549999999814,
      "v": 96
    },
    {
      "midi": 66,
      "hit": false,
      "t": 188356.95449999926,
      "d": 428.5709999999963,
      "v": 96
    },
    {
      "midi": 70,
      "hit": false,
      "t": 188356.95449999926,
      "d": 428.5709999999963,
      "v": 96
    },
    {
      "midi": 73,
      "hit": false,
      "t": 188356.95449999926,
      "d": 428.5709999999963,
      "v": 96
    },
    {
      "midi": 42,
      "hit": false,
      "t": 188571.23999999926,
      "d": 857.1419999999925,
      "v": 96
    },
    {
      "midi": 66,
      "hit": false,
      "t": 188785.52549999926,
      "d": 1071.4274999999907,
      "v": 96
    },
    {
      "midi": 71,
      "hit": false,
      "t": 188785.52549999926,
      "d": 1071.4274999999907,
      "v": 96
    },
    {
      "midi": 42,
      "hit": false,
      "t": 189428.38199999926,
      "d": 857.1419999999925,
      "v": 96
    },
    {
      "midi": 68,
      "hit": false,
      "t": 190071.23849999925,
      "d": 214.28549999999814,
      "v": 96
    },
    {
      "midi": 40,
      "hit": false,
      "t": 190285.52399999925,
      "d": 857.1419999999925,
      "v": 96
    },
    {
      "midi": 64,
      "hit": false,
      "t": 190285.52399999925,
      "d": 857.1419999999925,
      "v": 96
    },
    {
      "midi": 68,
      "hit": false,
      "t": 190285.52399999925,
      "d": 857.1419999999925,
      "v": 96
    },
    {
      "midi": 71,
      "hit": false,
      "t": 190285.52399999925,
      "d": 857.1419999999925,
      "v": 96
    },
    {
      "midi": 40,
      "hit": false,
      "t": 191142.66599999924,
      "d": 428.5709999999963,
      "v": 96
    },
    {
      "midi": 64,
      "hit": false,
      "t": 191142.66599999924,
      "d": 428.5709999999963,
      "v": 96
    },
    {
      "midi": 68,
      "hit": false,
      "t": 191142.66599999924,
      "d": 428.5709999999963,
      "v": 96
    },
    {
      "midi": 71,
      "hit": false,
      "t": 191142.66599999924,
      "d": 428.5709999999963,
      "v": 96
    },
    {
      "midi": 71,
      "hit": false,
      "t": 191571.23699999924,
      "d": 214.28549999999814,
      "v": 96
    },
    {
      "midi": 47,
      "hit": false,
      "t": 191571.23699999924,
      "d": 1285.7129999999888,
      "v": 96
    },
    {
      "midi": 63,
      "hit": false,
      "t": 191785.52249999924,
      "d": 428.5709999999963,
      "v": 96
    },
    {
      "midi": 66,
      "hit": false,
      "t": 191785.52249999924,
      "d": 428.5709999999963,
      "v": 96
    },
    {
      "midi": 73,
      "hit": false,
      "t": 191785.52249999924,
      "d": 428.5709999999963,
      "v": 96
    },
    {
      "midi": 63,
      "hit": false,
      "t": 192214.09349999923,
      "d": 428.5709999999963,
      "v": 96
    },
    {
      "midi": 66,
      "hit": false,
      "t": 192214.09349999923,
      "d": 428.5709999999963,
      "v": 96
    },
    {
      "midi": 71,
      "hit": false,
      "t": 192214.09349999923,
      "d": 428.5709999999963,
      "v": 96
    },
    {
      "midi": 71,
      "hit": false,
      "t": 192642.66449999923,
      "d": 214.28549999999814,
      "v": 96
    },
    {
      "midi": 71,
      "hit": false,
      "t": 192856.94999999923,
      "d": 428.5709999999963,
      "v": 96
    },
    {
      "midi": 75,
      "hit": false,
      "t": 192856.94999999923,
      "d": 428.5709999999963,
      "v": 96
    },
    {
      "midi": 78,
      "hit": false,
      "t": 192856.94999999923,
      "d": 428.5709999999963,
      "v": 96
    },
    {
      "midi": 47,
      "hit": false,
      "t": 192856.94999999923,
      "d": 857.1419999999925,
      "v": 96
    },
    {
      "midi": 75,
      "hit": false,
      "t": 193285.52099999922,
      "d": 214.28549999999814,
      "v": 96
    },
    {
      "midi": 68,
      "hit": false,
      "t": 193499.80649999922,
      "d": 857.1419999999925,
      "v": 96
    },
    {
      "midi": 71,
      "hit": false,
      "t": 193499.80649999922,
      "d": 857.1419999999925,
      "v": 96
    },
    {
      "midi": 75,
      "hit": false,
      "t": 193499.80649999922,
      "d": 857.1419999999925,
      "v": 96
    },
    {
      "midi": 44,
      "hit": false,
      "t": 193714.09199999922,
      "d": 1285.7129999999888,
      "v": 96
    },
    {
      "midi": 63,
      "hit": false,
      "t": 194356.9484999992,
      "d": 1071.4274999999907,
      "v": 96
    },
    {
      "midi": 68,
      "hit": false,
      "t": 194356.9484999992,
      "d": 1071.4274999999907,
      "v": 96
    },
    {
      "midi": 71,
      "hit": false,
      "t": 194356.9484999992,
      "d": 1071.4274999999907,
      "v": 96
    },
    {
      "midi": 44,
      "hit": false,
      "t": 194999.8049999992,
      "d": 428.5709999999963,
      "v": 96
    },
    {
      "midi": 42,
      "hit": false,
      "t": 195428.3759999992,
      "d": 1285.7129999999888,
      "v": 96
    },
    {
      "midi": 58,
      "hit": false,
      "t": 195428.3759999992,
      "d": 1285.7129999999888,
      "v": 96
    },
    {
      "midi": 61,
      "hit": false,
      "t": 195428.3759999992,
      "d": 1285.7129999999888,
      "v": 96
    },
    {
      "midi": 66,
      "hit": false,
      "t": 195428.3759999992,
      "d": 1285.7129999999888,
      "v": 96
    },
    {
      "midi": 42,
      "hit": false,
      "t": 196714.0889999992,
      "d": 428.5709999999963,
      "v": 96
    },
    {
      "midi": 71,
      "hit": false,
      "t": 196928.3744999992,
      "d": 214.28549999999814,
      "v": 96
    },
    {
      "midi": 68,
      "hit": false,
      "t": 197142.6599999992,
      "d": 642.8564999999944,
      "v": 96
    },
    {
      "midi": 71,
      "hit": false,
      "t": 197142.6599999992,
      "d": 642.8564999999944,
      "v": 96
    },
    {
      "midi": 76,
      "hit": false,
      "t": 197142.6599999992,
      "d": 642.8564999999944,
      "v": 96
    },
    {
      "midi": 40,
      "hit": false,
      "t": 197142.6599999992,
      "d": 1285.7129999999888,
      "v": 96
    },
    {
      "midi": 68,
      "hit": false,
      "t": 197785.51649999918,
      "d": 428.5709999999963,
      "v": 96
    },
    {
      "midi": 71,
      "hit": false,
      "t": 197785.51649999918,
      "d": 428.5709999999963,
      "v": 96
    },
    {
      "midi": 75,
      "hit": false,
      "t": 197785.51649999918,
      "d": 428.5709999999963,
      "v": 96
    },
    {
      "midi": 73,
      "hit": false,
      "t": 198214.08749999918,
      "d": 214.28549999999814,
      "v": 96
    },
    {
      "midi": 63,
      "hit": false,
      "t": 198428.37299999918,
      "d": 642.8564999999944,
      "v": 96
    },
    {
      "midi": 66,
      "hit": false,
      "t": 198428.37299999918,
      "d": 642.8564999999944,
      "v": 96
    },
    {
      "midi": 73,
      "hit": false,
      "t": 198428.37299999918,
      "d": 642.8564999999944,
      "v": 96
    },
    {
      "midi": 47,
      "hit": false,
      "t": 198428.37299999918,
      "d": 1285.7129999999888,
      "v": 96
    },
    {
      "midi": 63,
      "hit": false,
      "t": 199071.22949999917,
      "d": 642.8564999999944,
      "v": 96
    },
    {
      "midi": 66,
      "hit": false,
      "t": 199071.22949999917,
      "d": 642.8564999999944,
      "v": 96
    },
    {
      "midi": 71,
      "hit": false,
      "t": 199071.22949999917,
      "d": 642.8564999999944,
      "v": 96
    },
    {
      "midi": 71,
      "hit": false,
      "t": 199714.08599999917,
      "d": 428.5709999999963,
      "v": 96
    },
    {
      "midi": 75,
      "hit": false,
      "t": 199714.08599999917,
      "d": 428.5709999999963,
      "v": 96
    },
    {
      "midi": 78,
      "hit": false,
      "t": 199714.08599999917,
      "d": 428.5709999999963,
      "v": 96
    },
    {
      "midi": 47,
      "hit": false,
      "t": 199714.08599999917,
      "d": 857.1419999999925,
      "v": 96
    },
    {
      "midi": 75,
      "hit": false,
      "t": 200142.65699999916,
      "d": 214.28549999999814,
      "v": 96
    },
    {
      "midi": 68,
      "hit": false,
      "t": 200356.94249999916,
      "d": 857.1419999999925,
      "v": 96
    },
    {
      "midi": 71,
      "hit": false,
      "t": 200356.94249999916,
      "d": 857.1419999999925,
      "v": 96
    },
    {
      "midi": 75,
      "hit": false,
      "t": 200356.94249999916,
      "d": 857.1419999999925,
      "v": 96
    },
    {
      "midi": 44,
      "hit": false,
      "t": 200571.22799999916,
      "d": 1285.7129999999888,
      "v": 96
    },
    {
      "midi": 63,
      "hit": false,
      "t": 201214.08449999915,
      "d": 1071.4274999999907,
      "v": 96
    },
    {
      "midi": 68,
      "hit": false,
      "t": 201214.08449999915,
      "d": 1071.4274999999907,
      "v": 96
    },
    {
      "midi": 71,
      "hit": false,
      "t": 201214.08449999915,
      "d": 1071.4274999999907,
      "v": 96
    },
    {
      "midi": 44,
      "hit": false,
      "t": 201856.94099999915,
      "d": 428.5709999999963,
      "v": 96
    },
    {
      "midi": 42,
      "hit": false,
      "t": 202285.51199999914,
      "d": 1285.7129999999888,
      "v": 96
    },
    {
      "midi": 58,
      "hit": false,
      "t": 202285.51199999914,
      "d": 1285.7129999999888,
      "v": 96
    },
    {
      "midi": 61,
      "hit": false,
      "t": 202285.51199999914,
      "d": 1285.7129999999888,
      "v": 96
    },
    {
      "midi": 66,
      "hit": false,
      "t": 202285.51199999914,
      "d": 1285.7129999999888,
      "v": 96
    },
    {
      "midi": 42,
      "hit": false,
      "t": 203571.22499999913,
      "d": 428.5709999999963,
      "v": 96
    },
    {
      "midi": 66,
      "hit": false,
      "t": 203785.51049999913,
      "d": 214.28549999999814,
      "v": 96
    },
    {
      "midi": 64,
      "hit": false,
      "t": 203999.79599999913,
      "d": 428.5709999999963,
      "v": 96
    },
    {
      "midi": 68,
      "hit": false,
      "t": 203999.79599999913,
      "d": 428.5709999999963,
      "v": 96
    },
    {
      "midi": 71,
      "hit": false,
      "t": 203999.79599999913,
      "d": 428.5709999999963,
      "v": 96
    },
    {
      "midi": 40,
      "hit": false,
      "t": 203999.79599999913,
      "d": 1285.7129999999888,
      "v": 96
    },
    {
      "midi": 71,
      "hit": false,
      "t": 204428.36699999913,
      "d": 214.28549999999814,
      "v": 96
    },
    {
      "midi": 64,
      "hit": false,
      "t": 204642.65249999912,
      "d": 428.5709999999963,
      "v": 96
    },
    {
      "midi": 68,
      "hit": false,
      "t": 204642.65249999912,
      "d": 428.5709999999963,
      "v": 96
    },
    {
      "midi": 71,
      "hit": false,
      "t": 204642.65249999912,
      "d": 428.5709999999963,
      "v": 96
    },
    {
      "midi": 71,
      "hit": false,
      "t": 205071.22349999912,
      "d": 214.28549999999814,
      "v": 96
    },
    {
      "midi": 47,
      "hit": false,
      "t": 205285.50899999912,
      "d": 1285.7129999999888,
      "v": 96
    },
    {
      "midi": 63,
      "hit": false,
      "t": 205285.50899999912,
      "d": 1285.7129999999888,
      "v": 96
    },
    {
      "midi": 66,
      "hit": false,
      "t": 205285.50899999912,
      "d": 1285.7129999999888,
      "v": 96
    },
    {
      "midi": 71,
      "hit": false,
      "t": 205285.50899999912,
      "d": 1285.7129999999888,
      "v": 96
    },
    {
      "midi": 71,
      "hit": false,
      "t": 206571.2219999991,
      "d": 428.5709999999963,
      "v": 96
    },
    {
      "midi": 75,
      "hit": false,
      "t": 206571.2219999991,
      "d": 428.5709999999963,
      "v": 96
    },
    {
      "midi": 78,
      "hit": false,
      "t": 206571.2219999991,
      "d": 428.5709999999963,
      "v": 96
    },
    {
      "midi": 47,
      "hit": false,
      "t": 206571.2219999991,
      "d": 857.1419999999925,
      "v": 96
    },
    {
      "midi": 78,
      "hit": false,
      "t": 206999.7929999991,
      "d": 214.28549999999814,
      "v": 96
    },
    {
      "midi": 71,
      "hit": false,
      "t": 207214.0784999991,
      "d": 428.5709999999963,
      "v": 96
    },
    {
      "midi": 75,
      "hit": false,
      "t": 207214.0784999991,
      "d": 428.5709999999963,
      "v": 96
    },
    {
      "midi": 78,
      "hit": false,
      "t": 207214.0784999991,
      "d": 428.5709999999963,
      "v": 96
    },
    {
      "midi": 44,
      "hit": false,
      "t": 207428.3639999991,
      "d": 1285.7129999999888,
      "v": 96
    },
    {
      "midi": 78,
      "hit": false,
      "t": 207642.6494999991,
      "d": 214.28549999999814,
      "v": 96
    },
    {
      "midi": 78,
      "hit": false,
      "t": 207856.9349999991,
      "d": 214.28549999999814,
      "v": 96
    },
    {
      "midi": 71,
      "hit": false,
      "t": 208071.2204999991,
      "d": 428.5709999999963,
      "v": 96
    },
    {
      "midi": 75,
      "hit": false,
      "t": 208071.2204999991,
      "d": 428.5709999999963,
      "v": 96
    },
    {
      "midi": 78,
      "hit": false,
      "t": 208071.2204999991,
      "d": 428.5709999999963,
      "v": 96
    },
    {
      "midi": 78,
      "hit": false,
      "t": 208499.7914999991,
      "d": 214.28549999999814,
      "v": 96
    },
    {
      "midi": 78,
      "hit": false,
      "t": 208714.0769999991,
      "d": 214.28549999999814,
      "v": 96
    },
    {
      "midi": 44,
      "hit": false,
      "t": 208714.0769999991,
      "d": 428.5709999999963,
      "v": 96
    },
    {
      "midi": 70,
      "hit": false,
      "t": 208928.3624999991,
      "d": 428.5709999999963,
      "v": 96
    },
    {
      "midi": 73,
      "hit": false,
      "t": 208928.3624999991,
      "d": 428.5709999999963,
      "v": 96
    },
    {
      "midi": 78,
      "hit": false,
      "t": 208928.3624999991,
      "d": 428.5709999999963,
      "v": 96
    },
    {
      "midi": 42,
      "hit": false,
      "t": 209142.64799999908,
      "d": 1285.7129999999888,
      "v": 96
    },
    {
      "midi": 75,
      "hit": false,
      "t": 209356.93349999908,
      "d": 214.28549999999814,
      "v": 96
    },
    {
      "midi": 75,
      "hit": false,
      "t": 209571.21899999908,
      "d": 214.28549999999814,
      "v": 96
    },
    {
      "midi": 66,
      "hit": false,
      "t": 209785.50449999908,
      "d": 642.8564999999944,
      "v": 96
    },
    {
      "midi": 70,
      "hit": false,
      "t": 209785.50449999908,
      "d": 642.8564999999944,
      "v": 96
    },
    {
      "midi": 73,
      "hit": false,
      "t": 209785.50449999908,
      "d": 642.8564999999944,
      "v": 96
    },
    {
      "midi": 42,
      "hit": false,
      "t": 210428.36099999907,
      "d": 428.5709999999963,
      "v": 96
    },
    {
      "midi": 71,
      "hit": false,
      "t": 210642.64649999907,
      "d": 214.28549999999814,
      "v": 96
    },
    {
      "midi": 68,
      "hit": false,
      "t": 210856.93199999907,
      "d": 642.8564999999944,
      "v": 96
    },
    {
      "midi": 71,
      "hit": false,
      "t": 210856.93199999907,
      "d": 642.8564999999944,
      "v": 96
    },
    {
      "midi": 78,
      "hit": false,
      "t": 210856.93199999907,
      "d": 642.8564999999944,
      "v": 96
    },
    {
      "midi": 40,
      "hit": false,
      "t": 210856.93199999907,
      "d": 1285.7129999999888,
      "v": 96
    },
    {
      "midi": 68,
      "hit": false,
      "t": 211499.78849999906,
      "d": 428.5709999999963,
      "v": 96
    },
    {
      "midi": 71,
      "hit": false,
      "t": 211499.78849999906,
      "d": 428.5709999999963,
      "v": 96
    },
    {
      "midi": 78,
      "hit": false,
      "t": 211499.78849999906,
      "d": 428.5709999999963,
      "v": 96
    },
    {
      "midi": 75,
      "hit": false,
      "t": 211928.35949999906,
      "d": 214.28549999999814,
      "v": 96
    },
    {
      "midi": 71,
      "hit": false,
      "t": 212142.64499999906,
      "d": 642.8564999999944,
      "v": 96
    },
    {
      "midi": 75,
      "hit": false,
      "t": 212142.64499999906,
      "d": 642.8564999999944,
      "v": 96
    },
    {
      "midi": 78,
      "hit": false,
      "t": 212142.64499999906,
      "d": 642.8564999999944,
      "v": 96
    },
    {
      "midi": 47,
      "hit": false,
      "t": 212142.64499999906,
      "d": 1285.7129999999888,
      "v": 96
    },
    {
      "midi": 66,
      "hit": false,
      "t": 212785.50149999905,
      "d": 642.8564999999944,
      "v": 96
    },
    {
      "midi": 71,
      "hit": false,
      "t": 212785.50149999905,
      "d": 642.8564999999944,
      "v": 96
    },
    {
      "midi": 75,
      "hit": false,
      "t": 212785.50149999905,
      "d": 642.8564999999944,
      "v": 96
    },
    {
      "midi": 71,
      "hit": false,
      "t": 213428.35799999905,
      "d": 214.28549999999814,
      "v": 96
    },
    {
      "midi": 47,
      "hit": false,
      "t": 213428.35799999905,
      "d": 857.1419999999925,
      "v": 96
    },
    {
      "midi": 73,
      "hit": false,
      "t": 213642.64349999905,
      "d": 214.28549999999814,
      "v": 96
    },
    {
      "midi": 75,
      "hit": false,
      "t": 213856.92899999904,
      "d": 214.28549999999814,
      "v": 96
    },
    {
      "midi": 68,
      "hit": false,
      "t": 214071.21449999904,
      "d": 857.1419999999925,
      "v": 96
    },
    {
      "midi": 71,
      "hit": false,
      "t": 214071.21449999904,
      "d": 857.1419999999925,
      "v": 96
    },
    {
      "midi": 75,
      "hit": false,
      "t": 214071.21449999904,
      "d": 857.1419999999925,
      "v": 96
    },
    {
      "midi": 44,
      "hit": false,
      "t": 214285.49999999904,
      "d": 1285.7129999999888,
      "v": 96
    },
    {
      "midi": 63,
      "hit": false,
      "t": 214928.35649999903,
      "d": 1071.4274999999907,
      "v": 96
    },
    {
      "midi": 68,
      "hit": false,
      "t": 214928.35649999903,
      "d": 1071.4274999999907,
      "v": 96
    },
    {
      "midi": 71,
      "hit": false,
      "t": 214928.35649999903,
      "d": 1071.4274999999907,
      "v": 96
    },
    {
      "midi": 44,
      "hit": false,
      "t": 215571.21299999903,
      "d": 428.5709999999963,
      "v": 96
    },
    {
      "midi": 42,
      "hit": false,
      "t": 215999.78399999902,
      "d": 1285.7129999999888,
      "v": 96
    },
    {
      "midi": 58,
      "hit": false,
      "t": 215999.78399999902,
      "d": 1714.283999999985,
      "v": 96
    },
    {
      "midi": 61,
      "hit": false,
      "t": 215999.78399999902,
      "d": 1714.283999999985,
      "v": 96
    },
    {
      "midi": 66,
      "hit": false,
      "t": 215999.78399999902,
      "d": 1714.283999999985,
      "v": 96
    },
    {
      "midi": 42,
      "hit": false,
      "t": 217285.496999999,
      "d": 428.5709999999963,
      "v": 96
    },
    {
      "midi": 64,
      "hit": false,
      "t": 217714.067999999,
      "d": 428.5709999999963,
      "v": 96
    },
    {
      "midi": 68,
      "hit": false,
      "t": 217714.067999999,
      "d": 428.5709999999963,
      "v": 96
    },
    {
      "midi": 71,
      "hit": false,
      "t": 217714.067999999,
      "d": 428.5709999999963,
      "v": 96
    },
    {
      "midi": 40,
      "hit": false,
      "t": 217714.067999999,
      "d": 1285.7129999999888,
      "v": 96
    },
    {
      "midi": 71,
      "hit": false,
      "t": 218142.638999999,
      "d": 214.28549999999814,
      "v": 96
    },
    {
      "midi": 64,
      "hit": false,
      "t": 218356.924499999,
      "d": 428.5709999999963,
      "v": 96
    },
    {
      "midi": 68,
      "hit": false,
      "t": 218356.924499999,
      "d": 428.5709999999963,
      "v": 96
    },
    {
      "midi": 71,
      "hit": false,
      "t": 218356.924499999,
      "d": 428.5709999999963,
      "v": 96
    },
    {
      "midi": 71,
      "hit": false,
      "t": 218785.495499999,
      "d": 214.28549999999814,
      "v": 96
    },
    {
      "midi": 63,
      "hit": false,
      "t": 218999.780999999,
      "d": 1285.7129999999888,
      "v": 96
    },
    {
      "midi": 66,
      "hit": false,
      "t": 218999.780999999,
      "d": 1285.7129999999888,
      "v": 96
    },
    {
      "midi": 71,
      "hit": false,
      "t": 218999.780999999,
      "d": 1285.7129999999888,
      "v": 96
    },
    {
      "midi": 35,
      "hit": false,
      "t": 218999.780999999,
      "d": 2142.8549999999814,
      "v": 96
    },
    {
      "midi": 59,
      "hit": false,
      "t": 220285.493999999,
      "d": 428.5709999999963,
      "v": 96
    },
    {
      "midi": 63,
      "hit": false,
      "t": 220714.06499999898,
      "d": 428.5709999999963,
      "v": 96
    },
    {
      "midi": 64,
      "hit": false,
      "t": 221142.63599999898,
      "d": 428.5709999999963,
      "v": 96
    },
    {
      "midi": 68,
      "hit": false,
      "t": 221142.63599999898,
      "d": 428.5709999999963,
      "v": 96
    },
    {
      "midi": 71,
      "hit": false,
      "t": 221142.63599999898,
      "d": 428.5709999999963,
      "v": 96
    },
    {
      "midi": 40,
      "hit": false,
      "t": 221142.63599999898,
      "d": 1285.7129999999888,
      "v": 96
    },
    {
      "midi": 71,
      "hit": false,
      "t": 221571.20699999898,
      "d": 214.28549999999814,
      "v": 96
    },
    {
      "midi": 64,
      "hit": false,
      "t": 221785.49249999897,
      "d": 428.5709999999963,
      "v": 96
    },
    {
      "midi": 68,
      "hit": false,
      "t": 221785.49249999897,
      "d": 428.5709999999963,
      "v": 96
    },
    {
      "midi": 71,
      "hit": false,
      "t": 221785.49249999897,
      "d": 428.5709999999963,
      "v": 96
    },
    {
      "midi": 71,
      "hit": false,
      "t": 222214.06349999897,
      "d": 214.28549999999814,
      "v": 96
    },
    {
      "midi": 66,
      "hit": false,
      "t": 222428.34899999897,
      "d": 1285.7129999999888,
      "v": 96
    },
    {
      "midi": 71,
      "hit": false,
      "t": 222428.34899999897,
      "d": 1285.7129999999888,
      "v": 96
    },
    {
      "midi": 35,
      "hit": false,
      "t": 222428.34899999897,
      "d": 2142.8549999999814,
      "v": 96
    },
    {
      "midi": 63,
      "hit": false,
      "t": 223071.20549999896,
      "d": 642.8564999999944,
      "v": 96
    },
    {
      "midi": 73,
      "hit": false,
      "t": 223285.49099999896,
      "d": 428.5709999999963,
      "v": 96
    },
    {
      "midi": 71,
      "hit": false,
      "t": 223714.06199999896,
      "d": 428.5709999999963,
      "v": 96
    },
    {
      "midi": 70,
      "hit": false,
      "t": 224142.63299999895,
      "d": 428.5709999999963,
      "v": 96
    },
    {
      "midi": 66,
      "hit": false,
      "t": 224571.20399999895,
      "d": 214.28549999999814,
      "v": 96
    },
    {
      "midi": 64,
      "hit": false,
      "t": 224571.20399999895,
      "d": 428.5709999999963,
      "v": 96
    },
    {
      "midi": 68,
      "hit": false,
      "t": 224571.20399999895,
      "d": 428.5709999999963,
      "v": 96
    },
    {
      "midi": 71,
      "hit": false,
      "t": 224571.20399999895,
      "d": 428.5709999999963,
      "v": 96
    },
    {
      "midi": 40,
      "hit": false,
      "t": 224571.20399999895,
      "d": 1285.7129999999888,
      "v": 96
    },
    {
      "midi": 71,
      "hit": false,
      "t": 224999.77499999895,
      "d": 214.28549999999814,
      "v": 96
    },
    {
      "midi": 64,
      "hit": false,
      "t": 225214.06049999894,
      "d": 428.5709999999963,
      "v": 96
    },
    {
      "midi": 68,
      "hit": false,
      "t": 225214.06049999894,
      "d": 428.5709999999963,
      "v": 96
    },
    {
      "midi": 71,
      "hit": false,
      "t": 225214.06049999894,
      "d": 428.5709999999963,
      "v": 96
    },
    {
      "midi": 71,
      "hit": false,
      "t": 225642.63149999894,
      "d": 214.28549999999814,
      "v": 96
    },
    {
      "midi": 63,
      "hit": false,
      "t": 225856.91699999894,
      "d": 1285.7129999999888,
      "v": 96
    },
    {
      "midi": 71,
      "hit": false,
      "t": 225856.91699999894,
      "d": 1285.7129999999888,
      "v": 96
    },
    {
      "midi": 35,
      "hit": false,
      "t": 225856.91699999894,
      "d": 2142.8549999999814,
      "v": 96
    },
    {
      "midi": 66,
      "hit": false,
      "t": 226499.77349999893,
      "d": 428.5709999999963,
      "v": 96
    },
    {
      "midi": 68,
      "hit": false,
      "t": 226928.34449999893,
      "d": 428.5709999999963,
      "v": 96
    },
    {
      "midi": 70,
      "hit": false,
      "t": 227356.91549999893,
      "d": 428.5709999999963,
      "v": 96
    },
    {
      "midi": 71,
      "hit": false,
      "t": 227785.48649999892,
      "d": 214.28549999999814,
      "v": 96
    },
    {
      "midi": 64,
      "hit": false,
      "t": 227999.77199999892,
      "d": 428.5709999999963,
      "v": 96
    },
    {
      "midi": 68,
      "hit": false,
      "t": 227999.77199999892,
      "d": 428.5709999999963,
      "v": 96
    },
    {
      "midi": 71,
      "hit": false,
      "t": 227999.77199999892,
      "d": 428.5709999999963,
      "v": 96
    },
    {
      "midi": 40,
      "hit": false,
      "t": 227999.77199999892,
      "d": 1285.7129999999888,
      "v": 96
    },
    {
      "midi": 71,
      "hit": false,
      "t": 228428.34299999892,
      "d": 214.28549999999814,
      "v": 96
    },
    {
      "midi": 64,
      "hit": false,
      "t": 228642.62849999891,
      "d": 428.5709999999963,
      "v": 96
    },
    {
      "midi": 68,
      "hit": false,
      "t": 228642.62849999891,
      "d": 428.5709999999963,
      "v": 96
    },
    {
      "midi": 71,
      "hit": false,
      "t": 228642.62849999891,
      "d": 428.5709999999963,
      "v": 96
    },
    {
      "midi": 71,
      "hit": false,
      "t": 229071.1994999989,
      "d": 214.28549999999814,
      "v": 96
    },
    {
      "midi": 63,
      "hit": false,
      "t": 229285.4849999989,
      "d": 1285.7129999999888,
      "v": 96
    },
    {
      "midi": 71,
      "hit": false,
      "t": 229285.4849999989,
      "d": 1285.7129999999888,
      "v": 96
    },
    {
      "midi": 35,
      "hit": false,
      "t": 229285.4849999989,
      "d": 2142.8549999999814,
      "v": 96
    },
    {
      "midi": 66,
      "hit": false,
      "t": 229928.3414999989,
      "d": 428.5709999999963,
      "v": 96
    },
    {
      "midi": 68,
      "hit": false,
      "t": 230356.9124999989,
      "d": 428.5709999999963,
      "v": 96
    },
    {
      "midi": 61,
      "hit": false,
      "t": 230785.4834999989,
      "d": 428.5709999999963,
      "v": 96
    },
    {
      "midi": 63,
      "hit": false,
      "t": 231214.0544999989,
      "d": 214.28549999999814,
      "v": 96
    },
    {
      "midi": 64,
      "hit": false,
      "t": 231428.3399999989,
      "d": 428.5709999999963,
      "v": 96
    },
    {
      "midi": 68,
      "hit": false,
      "t": 231428.3399999989,
      "d": 428.5709999999963,
      "v": 96
    },
    {
      "midi": 71,
      "hit": false,
      "t": 231428.3399999989,
      "d": 428.5709999999963,
      "v": 96
    },
    {
      "midi": 40,
      "hit": false,
      "t": 231428.3399999989,
      "d": 1285.7129999999888,
      "v": 96
    },
    {
      "midi": 71,
      "hit": false,
      "t": 231856.9109999989,
      "d": 214.28549999999814,
      "v": 96
    },
    {
      "midi": 64,
      "hit": false,
      "t": 232071.19649999888,
      "d": 428.5709999999963,
      "v": 96
    },
    {
      "midi": 68,
      "hit": false,
      "t": 232071.19649999888,
      "d": 428.5709999999963,
      "v": 96
    },
    {
      "midi": 71,
      "hit": false,
      "t": 232071.19649999888,
      "d": 428.5709999999963,
      "v": 96
    },
    {
      "midi": 71,
      "hit": false,
      "t": 232499.76749999888,
      "d": 214.28549999999814,
      "v": 96
    },
    {
      "midi": 63,
      "hit": false,
      "t": 232714.05299999888,
      "d": 1285.7129999999888,
      "v": 96
    },
    {
      "midi": 71,
      "hit": false,
      "t": 232714.05299999888,
      "d": 1285.7129999999888,
      "v": 96
    },
    {
      "midi": 35,
      "hit": false,
      "t": 232714.05299999888,
      "d": 2142.8549999999814,
      "v": 96
    },
    {
      "midi": 66,
      "hit": false,
      "t": 233356.90949999887,
      "d": 428.5709999999963,
      "v": 96
    },
    {
      "midi": 68,
      "hit": false,
      "t": 233785.48049999887,
      "d": 428.5709999999963,
      "v": 96
    },
    {
      "midi": 70,
      "hit": false,
      "t": 234214.05149999887,
      "d": 428.5709999999963,
      "v": 96
    },
    {
      "midi": 71,
      "hit": false,
      "t": 234642.62249999886,
      "d": 214.28549999999814,
      "v": 96
    },
    {
      "midi": 64,
      "hit": false,
      "t": 234856.90799999886,
      "d": 428.5709999999963,
      "v": 96
    },
    {
      "midi": 68,
      "hit": false,
      "t": 234856.90799999886,
      "d": 428.5709999999963,
      "v": 96
    },
    {
      "midi": 71,
      "hit": false,
      "t": 234856.90799999886,
      "d": 428.5709999999963,
      "v": 96
    },
    {
      "midi": 40,
      "hit": false,
      "t": 234856.90799999886,
      "d": 1285.7129999999888,
      "v": 96
    },
    {
      "midi": 71,
      "hit": false,
      "t": 235285.47899999886,
      "d": 214.28549999999814,
      "v": 96
    },
    {
      "midi": 64,
      "hit": false,
      "t": 235499.76449999886,
      "d": 428.5709999999963,
      "v": 96
    },
    {
      "midi": 68,
      "hit": false,
      "t": 235499.76449999886,
      "d": 428.5709999999963,
      "v": 96
    },
    {
      "midi": 71,
      "hit": false,
      "t": 235499.76449999886,
      "d": 428.5709999999963,
      "v": 96
    },
    {
      "midi": 71,
      "hit": false,
      "t": 235928.33549999885,
      "d": 214.28549999999814,
      "v": 96
    },
    {
      "midi": 63,
      "hit": false,
      "t": 236142.62099999885,
      "d": 1285.7129999999888,
      "v": 96
    },
    {
      "midi": 66,
      "hit": false,
      "t": 236142.62099999885,
      "d": 1285.7129999999888,
      "v": 96
    },
    {
      "midi": 35,
      "hit": false,
      "t": 236142.62099999885,
      "d": 2142.8549999999814,
      "v": 96
    },
    {
      "midi": 73,
      "hit": false,
      "t": 236785.47749999884,
      "d": 428.5709999999963,
      "v": 96
    },
    {
      "midi": 71,
      "hit": false,
      "t": 237214.04849999884,
      "d": 214.28549999999814,
      "v": 96
    },
    {
      "midi": 70,
      "hit": false,
      "t": 237642.61949999884,
      "d": 428.5709999999963,
      "v": 96
    },
    {
      "midi": 52,
      "hit": false,
      "t": 238285.47599999883,
      "d": 214.28549999999814,
      "v": 96
    },
    {
      "midi": 56,
      "hit": false,
      "t": 238285.47599999883,
      "d": 214.28549999999814,
      "v": 96
    },
    {
      "midi": 59,
      "hit": false,
      "t": 238285.47599999883,
      "d": 214.28549999999814,
      "v": 96
    },
    {
      "midi": 40,
      "hit": false,
      "t": 238285.47599999883,
      "d": 1285.7129999999888,
      "v": 96
    },
    {
      "midi": 52,
      "hit": false,
      "t": 238499.76149999883,
      "d": 214.28549999999814,
      "v": 96
    },
    {
      "midi": 56,
      "hit": false,
      "t": 238714.04699999883,
      "d": 214.28549999999814,
      "v": 96
    },
    {
      "midi": 59,
      "hit": false,
      "t": 238928.33249999883,
      "d": 642.8564999999944,
      "v": 96
    },
    {
      "midi": 35,
      "hit": false,
      "t": 239571.18899999882,
      "d": 2142.8549999999814,
      "v": 96
    },
    {
      "midi": 51,
      "hit": false,
      "t": 239571.18899999882,
      "d": 2142.8549999999814,
      "v": 96
    },
    {
      "midi": 54,
      "hit": false,
      "t": 239571.18899999882,
      "d": 2142.8549999999814,
      "v": 96
    },
    {
      "midi": 59,
      "hit": false,
      "t": 239571.18899999882,
      "d": 2142.8549999999814,
      "v": 96
    },
    {
      "midi": 66,
      "hit": false,
      "t": 240214.0454999988,
      "d": 428.5709999999963,
      "v": 96
    },
    {
      "midi": 68,
      "hit": false,
      "t": 240642.6164999988,
      "d": 428.5709999999963,
      "v": 96
    },
    {
      "midi": 70,
      "hit": false,
      "t": 241071.1874999988,
      "d": 428.5709999999963,
      "v": 96
    },
    {
      "midi": 71,
      "hit": false,
      "t": 241499.7584999988,
      "d": 214.28549999999814,
      "v": 96
    },
    {
      "midi": 59,
      "hit": false,
      "t": 241714.0439999988,
      "d": 214.28549999999814,
      "v": 96
    },
    {
      "midi": 40,
      "hit": false,
      "t": 241714.0439999988,
      "d": 1285.7129999999888,
      "v": 96
    },
    {
      "midi": 52,
      "hit": false,
      "t": 241928.3294999988,
      "d": 214.28549999999814,
      "v": 96
    },
    {
      "midi": 56,
      "hit": false,
      "t": 242142.6149999988,
      "d": 214.28549999999814,
      "v": 96
    },
    {
      "midi": 59,
      "hit": false,
      "t": 242356.9004999988,
      "d": 642.8564999999944,
      "v": 96
    },
    {
      "midi": 35,
      "hit": false,
      "t": 242999.7569999988,
      "d": 428.5709999999963,
      "v": 96
    },
    {
      "midi": 54,
      "hit": false,
      "t": 242999.7569999988,
      "d": 2142.8549999999814,
      "v": 96
    },
    {
      "midi": 59,
      "hit": false,
      "t": 242999.7569999988,
      "d": 2142.8549999999814,
      "v": 96
    },
    {
      "midi": 63,
      "hit": false,
      "t": 242999.7569999988,
      "d": 2142.8549999999814,
      "v": 96
    },
    {
      "midi": 35,
      "hit": false,
      "t": 243428.3279999988,
      "d": 1714.283999999985,
      "v": 96
    },
    {
      "midi": 73,
      "hit": false,
      "t": 243642.61349999878,
      "d": 428.5709999999963,
      "v": 96
    },
    {
      "midi": 71,
      "hit": false,
      "t": 244071.18449999878,
      "d": 428.5709999999963,
      "v": 96
    },
    {
      "midi": 70,
      "hit": false,
      "t": 244499.75549999878,
      "d": 428.5709999999963,
      "v": 96
    },
    {
      "midi": 66,
      "hit": false,
      "t": 244928.32649999877,
      "d": 214.28549999999814,
      "v": 96
    },
    {
      "midi": 59,
      "hit": false,
      "t": 245142.61199999877,
      "d": 214.28549999999814,
      "v": 96
    },
    {
      "midi": 40,
      "hit": false,
      "t": 245142.61199999877,
      "d": 1285.7129999999888,
      "v": 96
    },
    {
      "midi": 52,
      "hit": false,
      "t": 245356.89749999877,
      "d": 214.28549999999814,
      "v": 96
    },
    {
      "midi": 56,
      "hit": false,
      "t": 245571.18299999877,
      "d": 214.28549999999814,
      "v": 96
    },
    {
      "midi": 59,
      "hit": false,
      "t": 245785.46849999877,
      "d": 642.8564999999944,
      "v": 96
    },
    {
      "midi": 35,
      "hit": false,
      "t": 246428.32499999876,
      "d": 428.5709999999963,
      "v": 96
    },
    {
      "midi": 54,
      "hit": false,
      "t": 246428.32499999876,
      "d": 2142.8549999999814,
      "v": 96
    },
    {
      "midi": 59,
      "hit": false,
      "t": 246428.32499999876,
      "d": 2142.8549999999814,
      "v": 96
    },
    {
      "midi": 35,
      "hit": false,
      "t": 246856.89599999876,
      "d": 1714.283999999985,
      "v": 96
    },
    {
      "midi": 66,
      "hit": false,
      "t": 247071.18149999875,
      "d": 428.5709999999963,
      "v": 96
    },
    {
      "midi": 68,
      "hit": false,
      "t": 247499.75249999875,
      "d": 428.5709999999963,
      "v": 96
    },
    {
      "midi": 61,
      "hit": false,
      "t": 247928.32349999875,
      "d": 428.5709999999963,
      "v": 96
    },
    {
      "midi": 63,
      "hit": false,
      "t": 248356.89449999874,
      "d": 214.28549999999814,
      "v": 96
    },
    {
      "midi": 59,
      "hit": false,
      "t": 248571.17999999874,
      "d": 214.28549999999814,
      "v": 96
    },
    {
      "midi": 40,
      "hit": false,
      "t": 248571.17999999874,
      "d": 1285.7129999999888,
      "v": 96
    },
    {
      "midi": 52,
      "hit": false,
      "t": 248785.46549999874,
      "d": 214.28549999999814,
      "v": 96
    },
    {
      "midi": 56,
      "hit": false,
      "t": 248999.75099999874,
      "d": 214.28549999999814,
      "v": 96
    },
    {
      "midi": 59,
      "hit": false,
      "t": 249214.03649999874,
      "d": 642.8564999999944,
      "v": 96
    },
    {
      "midi": 35,
      "hit": false,
      "t": 249856.89299999873,
      "d": 428.5709999999963,
      "v": 96
    },
    {
      "midi": 54,
      "hit": false,
      "t": 249856.89299999873,
      "d": 2142.8550000000105,
      "v": 96
    },
    {
      "midi": 59,
      "hit": false,
      "t": 249856.89299999873,
      "d": 2142.8550000000105,
      "v": 96
    },
    {
      "midi": 63,
      "hit": false,
      "t": 249856.89299999873,
      "d": 2142.8550000000105,
      "v": 96
    },
    {
      "midi": 35,
      "hit": false,
      "t": 250285.46399999873,
      "d": 1714.2840000000142,
      "v": 96
    },
    {
      "midi": 52,
      "hit": false,
      "t": 251999.74799999874,
      "d": 214.28549999999814,
      "v": 96
    },
    {
      "midi": 56,
      "hit": false,
      "t": 251999.74799999874,
      "d": 214.28549999999814,
      "v": 96
    },
    {
      "midi": 59,
      "hit": false,
      "t": 251999.74799999874,
      "d": 214.28549999999814,
      "v": 96
    },
    {
      "midi": 40,
      "hit": false,
      "t": 251999.74799999874,
      "d": 1285.7129999999888,
      "v": 96
    },
    {
      "midi": 52,
      "hit": false,
      "t": 252214.03349999874,
      "d": 214.28549999999814,
      "v": 96
    },
    {
      "midi": 56,
      "hit": false,
      "t": 252428.31899999874,
      "d": 214.28549999999814,
      "v": 96
    },
    {
      "midi": 59,
      "hit": false,
      "t": 252642.60449999874,
      "d": 642.8564999999944,
      "v": 96
    },
    {
      "midi": 35,
      "hit": false,
      "t": 253285.46099999873,
      "d": 2142.8550000000105,
      "v": 96
    },
    {
      "midi": 51,
      "hit": false,
      "t": 253285.46099999873,
      "d": 2142.8550000000105,
      "v": 96
    },
    {
      "midi": 54,
      "hit": false,
      "t": 253285.46099999873,
      "d": 2142.8550000000105,
      "v": 96
    },
    {
      "midi": 59,
      "hit": false,
      "t": 253285.46099999873,
      "d": 2142.8550000000105,
      "v": 96
    },
    {
      "midi": 52,
      "hit": false,
      "t": 255428.31599999874,
      "d": 214.28549999999814,
      "v": 96
    },
    {
      "midi": 56,
      "hit": false,
      "t": 255428.31599999874,
      "d": 214.28549999999814,
      "v": 96
    },
    {
      "midi": 59,
      "hit": false,
      "t": 255428.31599999874,
      "d": 214.28549999999814,
      "v": 96
    },
    {
      "midi": 40,
      "hit": false,
      "t": 255428.31599999874,
      "d": 1285.7129999999888,
      "v": 96
    },
    {
      "midi": 52,
      "hit": false,
      "t": 255642.60149999874,
      "d": 214.28549999999814,
      "v": 96
    },
    {
      "midi": 56,
      "hit": false,
      "t": 255856.88699999874,
      "d": 214.28549999999814,
      "v": 96
    },
    {
      "midi": 59,
      "hit": false,
      "t": 256071.17249999873,
      "d": 642.8564999999944,
      "v": 96
    },
    {
      "midi": 35,
      "hit": false,
      "t": 256714.02899999873,
      "d": 3857.1389999999956,
      "v": 96
    },
    {
      "midi": 51,
      "hit": false,
      "t": 256714.02899999873,
      "d": 3857.1389999999956,
      "v": 96
    },
    {
      "midi": 54,
      "hit": false,
      "t": 256714.02899999873,
      "d": 3857.1389999999956,
      "v": 96
    },
    {
      "midi": 59,
      "hit": false,
      "t": 256714.02899999873,
      "d": 3857.1389999999956,
      "v": 96
    }
  ]
}