{
  "jsonPath": "World/Classic Swedish Pop/Jessica Andersson/the-end-of-the-world.json",
  "path": "World\\Classic Swedish Pop\\Jessica Andersson\\The End Of The World.mid",
  "name": "The End Of The World",
  "difficulty": "Advanced",
  "bpm": 66.000066000066,
  "notes": [
    {
      "midi": 62,
      "hit": false,
      "t": 5918.5546875,
      "d": 544.5070312499993,
      "v": 80
    },
    {
      "midi": 66,
      "hit": false,
      "t": 6387.30421875,
      "d": 487.6889062499995,
      "v": 67
    },
    {
      "midi": 69,
      "hit": false,
      "t": 6803.970468749999,
      "d": 345.64359375000004,
      "v": 79
    },
    {
      "midi": 69,
      "hit": false,
      "t": 7230.106406249999,
      "d": 232.00734375000047,
      "v": 91
    },
    {
      "midi": 62,
      "hit": false,
      "t": 7230.106406249999,
      "d": 752.8401562500012,
      "v": 87
    },
    {
      "midi": 59,
      "hit": false,
      "t": 7234.8412499999995,
      "d": 1425.1879687500004,
      "v": 67
    },
    {
      "midi": 71,
      "hit": false,
      "t": 7447.909218749999,
      "d": 274.62093750000076,
      "v": 87
    },
    {
      "midi": 67,
      "hit": false,
      "t": 7689.38625,
      "d": 326.704218750001,
      "v": 71
    },
    {
      "midi": 67,
      "hit": false,
      "t": 8172.3403125,
      "d": 497.15859375000036,
      "v": 75
    },
    {
      "midi": 62,
      "hit": false,
      "t": 8172.3403125,
      "d": 553.9767187500001,
      "v": 71
    },
    {
      "midi": 66,
      "hit": false,
      "t": 8607.9459375,
      "d": 241.47703125000044,
      "v": 71
    },
    {
      "midi": 58,
      "hit": false,
      "t": 9076.69546875,
      "d": 577.6509375000005,
      "v": 64
    },
    {
      "midi": 64,
      "hit": false,
      "t": 9086.165156250001,
      "d": 1373.1046874999993,
      "v": 75
    },
    {
      "midi": 62,
      "hit": false,
      "t": 10440.33046875,
      "d": 85.22718750000058,
      "v": 67
    },
    {
      "midi": 64,
      "hit": false,
      "t": 10880.670937500001,
      "d": 203.5982812500024,
      "v": 87
    },
    {
      "midi": 57,
      "hit": false,
      "t": 10885.405781250001,
      "d": 724.4310937500013,
      "v": 71
    },
    {
      "midi": 62,
      "hit": false,
      "t": 10890.140625000002,
      "d": 681.817500000001,
      "v": 87
    },
    {
      "midi": 50,
      "hit": false,
      "t": 10899.610312500003,
      "d": 563.446406250001,
      "v": 67
    },
    {
      "midi": 66,
      "hit": false,
      "t": 11084.269218750003,
      "d": 667.6129687499997,
      "v": 58
    },
    {
      "midi": 64,
      "hit": false,
      "t": 11832.374531250003,
      "d": 298.2951562500002,
      "v": 69
    },
    {
      "midi": 57,
      "hit": false,
      "t": 11851.313906250003,
      "d": 355.11328125,
      "v": 61
    },
    {
      "midi": 49,
      "hit": false,
      "t": 11856.048750000004,
      "d": 392.99203124999985,
      "v": 58
    },
    {
      "midi": 59,
      "hit": false,
      "t": 12727.260000000004,
      "d": 170.45437500000116,
      "v": 52
    },
    {
      "midi": 54,
      "hit": false,
      "t": 12727.260000000004,
      "d": 189.3937500000011,
      "v": 61
    },
    {
      "midi": 47,
      "hit": false,
      "t": 12727.260000000004,
      "d": 1368.3698437500025,
      "v": 51
    },
    {
      "midi": 62,
      "hit": false,
      "t": 12741.464531250005,
      "d": 227.27249999999913,
      "v": 71
    },
    {
      "midi": 62,
      "hit": false,
      "t": 13172.335312500005,
      "d": 473.484375,
      "v": 71
    },
    {
      "midi": 66,
      "hit": false,
      "t": 13631.615156250005,
      "d": 492.42375000000175,
      "v": 75
    },
    {
      "midi": 69,
      "hit": false,
      "t": 14086.160156250005,
      "d": 288.82546875000116,
      "v": 87
    },
    {
      "midi": 67,
      "hit": false,
      "t": 14540.705156250007,
      "d": 539.7721875000007,
      "v": 96
    },
    {
      "midi": 62,
      "hit": false,
      "t": 14540.705156250007,
      "d": 1482.0060937500002,
      "v": 91
    },
    {
      "midi": 52,
      "hit": false,
      "t": 14540.705156250007,
      "d": 1486.7409375000007,
      "v": 79
    },
    {
      "midi": 59,
      "hit": false,
      "t": 14550.174843750008,
      "d": 1458.3318749999999,
      "v": 79
    },
    {
      "midi": 69,
      "hit": false,
      "t": 15023.659218750008,
      "d": 411.9314062499998,
      "v": 61
    },
    {
      "midi": 71,
      "hit": false,
      "t": 15445.060312500009,
      "d": 468.74953124999956,
      "v": 75
    },
    {
      "midi": 67,
      "hit": false,
      "t": 15899.605312500009,
      "d": 123.10593749999862,
      "v": 46
    },
    {
      "midi": 45,
      "hit": false,
      "t": 16321.006406250008,
      "d": 1633.521093750007,
      "v": 71
    },
    {
      "midi": 62,
      "hit": false,
      "t": 16325.741250000008,
      "d": 468.7495312500014,
      "v": 83
    },
    {
      "midi": 57,
      "hit": false,
      "t": 16330.476093750009,
      "d": 274.6209375000017,
      "v": 75
    },
    {
      "midi": 64,
      "hit": false,
      "t": 16330.476093750009,
      "d": 1401.5137500000037,
      "v": 75
    },
    {
      "midi": 57,
      "hit": false,
      "t": 16799.22562500001,
      "d": 980.112656250003,
      "v": 35
    },
    {
      "midi": 61,
      "hit": false,
      "t": 17244.30093750001,
      "d": 506.62828125000306,
      "v": 67
    },
    {
      "midi": 62,
      "hit": false,
      "t": 17689.376250000012,
      "d": 89.96203125000102,
      "v": 83
    },
    {
      "midi": 62,
      "hit": false,
      "t": 18143.921250000014,
      "d": 1117.4231250000048,
      "v": 87
    },
    {
      "midi": 57,
      "hit": false,
      "t": 18148.656093750014,
      "d": 984.8475000000035,
      "v": 75
    },
    {
      "midi": 54,
      "hit": false,
      "t": 18162.860625000016,
      "d": 165.71953125000073,
      "v": 75
    },
    {
      "midi": 50,
      "hit": false,
      "t": 18167.595468750016,
      "d": 710.2265625,
      "v": 71
    },
    {
      "midi": 54,
      "hit": false,
      "t": 18882.556875000017,
      "d": 222.5376562499987,
      "v": 44
    },
    {
      "midi": 50,
      "hit": false,
      "t": 19119.299062500017,
      "d": 392.9920312500035,
      "v": 83
    },
    {
      "midi": 54,
      "hit": false,
      "t": 19308.69281250002,
      "d": 236.74218750000364,
      "v": 79
    },
    {
      "midi": 57,
      "hit": false,
      "t": 19526.49562500002,
      "d": 241.47703125000044,
      "v": 87
    },
    {
      "midi": 62,
      "hit": false,
      "t": 19725.35906250002,
      "d": 108.90140624999913,
      "v": 87
    },
    {
      "midi": 58,
      "hit": false,
      "t": 19990.51031250002,
      "d": 208.33312500000102,
      "v": 91
    },
    {
      "midi": 54,
      "hit": false,
      "t": 19990.51031250002,
      "d": 530.3025000000016,
      "v": 71
    },
    {
      "midi": 61,
      "hit": false,
      "t": 19995.24515625002,
      "d": 359.84812500000044,
      "v": 91
    },
    {
      "midi": 64,
      "hit": false,
      "t": 19995.24515625002,
      "d": 468.74953124999956,
      "v": 83
    },
    {
      "midi": 58,
      "hit": false,
      "t": 20430.85078125002,
      "d": 250.9467187500013,
      "v": 61
    },
    {
      "midi": 58,
      "hit": false,
      "t": 20913.804843750022,
      "d": 194.1285937499997,
      "v": 46
    },
    {
      "midi": 61,
      "hit": false,
      "t": 20913.804843750022,
      "d": 904.3551562500033,
      "v": 71
    },
    {
      "midi": 66,
      "hit": false,
      "t": 20937.47906250002,
      "d": 880.6809375000048,
      "v": 61
    },
    {
      "midi": 54,
      "hit": false,
      "t": 20946.94875000002,
      "d": 871.2112500000039,
      "v": 33
    },
    {
      "midi": 58,
      "hit": false,
      "t": 21325.736250000024,
      "d": 492.42375000000175,
      "v": 37
    },
    {
      "midi": 59,
      "hit": false,
      "t": 21818.160000000025,
      "d": 260.41640624999854,
      "v": 63
    },
    {
      "midi": 62,
      "hit": false,
      "t": 21818.160000000025,
      "d": 340.9087499999987,
      "v": 54
    },
    {
      "midi": 66,
      "hit": false,
      "t": 21818.160000000025,
      "d": 340.9087499999987,
      "v": 84
    },
    {
      "midi": 47,
      "hit": false,
      "t": 21818.160000000025,
      "d": 1339.9607812499999,
      "v": 54
    },
    {
      "midi": 59,
      "hit": false,
      "t": 22684.636406250025,
      "d": 241.47703125000044,
      "v": 57
    },
    {
      "midi": 66,
      "hit": false,
      "t": 22689.371250000026,
      "d": 497.15859374999854,
      "v": 66
    },
    {
      "midi": 62,
      "hit": false,
      "t": 22689.371250000026,
      "d": 591.85546875,
      "v": 66
    },
    {
      "midi": 59,
      "hit": false,
      "t": 23186.529843750024,
      "d": 170.45437500000116,
      "v": 59
    },
    {
      "midi": 59,
      "hit": false,
      "t": 23631.605156250025,
      "d": 255.68156250000175,
      "v": 63
    },
    {
      "midi": 64,
      "hit": false,
      "t": 23636.340000000026,
      "d": 535.037343750002,
      "v": 66
    },
    {
      "midi": 52,
      "hit": false,
      "t": 23636.340000000026,
      "d": 1434.6576562500013,
      "v": 57
    },
    {
      "midi": 67,
      "hit": false,
      "t": 23641.074843750026,
      "d": 539.7721875000025,
      "v": 84
    },
    {
      "midi": 59,
      "hit": false,
      "t": 24071.94562500003,
      "d": 198.86343750000015,
      "v": 57
    },
    {
      "midi": 59,
      "hit": false,
      "t": 24535.96031250003,
      "d": 269.8860937499994,
      "v": 76
    },
    {
      "midi": 64,
      "hit": false,
      "t": 24540.69515625003,
      "d": 459.2798437499987,
      "v": 69
    },
    {
      "midi": 67,
      "hit": false,
      "t": 24545.43000000003,
      "d": 501.893437499999,
      "v": 92
    },
    {
      "midi": 59,
      "hit": false,
      "t": 24995.240156250027,
      "d": 151.51499999999942,
      "v": 72
    },
    {
      "midi": 57,
      "hit": false,
      "t": 25459.254843750026,
      "d": 265.1512500000026,
      "v": 66
    },
    {
      "midi": 61,
      "hit": false,
      "t": 25459.254843750026,
      "d": 492.42375000000175,
      "v": 76
    },
    {
      "midi": 64,
      "hit": false,
      "t": 25463.989687500027,
      "d": 464.01468750000276,
      "v": 66
    },
    {
      "midi": 45,
      "hit": false,
      "t": 25463.989687500027,
      "d": 1415.7182812500068,
      "v": 76
    },
    {
      "midi": 57,
      "hit": false,
      "t": 25894.86046875003,
      "d": 146.78015624999898,
      "v": 51
    },
    {
      "midi": 57,
      "hit": false,
      "t": 26358.87515625003,
      "d": 250.9467187500013,
      "v": 76
    },
    {
      "midi": 64,
      "hit": false,
      "t": 26358.87515625003,
      "d": 549.2418750000033,
      "v": 80
    },
    {
      "midi": 61,
      "hit": false,
      "t": 26358.87515625003,
      "d": 568.1812500000051,
      "v": 76
    },
    {
      "midi": 57,
      "hit": false,
      "t": 26822.889843750032,
      "d": 142.04531250000218,
      "v": 72
    },
    {
      "midi": 62,
      "hit": false,
      "t": 27277.434843750034,
      "d": 487.68890625000495,
      "v": 63
    },
    {
      "midi": 47,
      "hit": false,
      "t": 27277.434843750034,
      "d": 1387.3092187500115,
      "v": 72
    },
    {
      "midi": 59,
      "hit": false,
      "t": 27282.169687500034,
      "d": 255.68156250000175,
      "v": 57
    },
    {
      "midi": 66,
      "hit": false,
      "t": 27282.169687500034,
      "d": 482.9540625000045,
      "v": 80
    },
    {
      "midi": 59,
      "hit": false,
      "t": 27750.919218750038,
      "d": 151.51500000000306,
      "v": 18
    },
    {
      "midi": 59,
      "hit": false,
      "t": 28186.52484375004,
      "d": 250.9467187500013,
      "v": 66
    },
    {
      "midi": 62,
      "hit": false,
      "t": 28186.52484375004,
      "d": 558.7115625000042,
      "v": 69
    },
    {
      "midi": 66,
      "hit": false,
      "t": 28191.25968750004,
      "d": 520.8328125000044,
      "v": 76
    },
    {
      "midi": 59,
      "hit": false,
      "t": 28650.539531250044,
      "d": 194.1285937499997,
      "v": 69
    },
    {
      "midi": 59,
      "hit": false,
      "t": 29081.410312500044,
      "d": 293.5603125000016,
      "v": 72
    },
    {
      "midi": 64,
      "hit": false,
      "t": 29086.145156250044,
      "d": 539.7721875000025,
      "v": 84
    },
    {
      "midi": 52,
      "hit": false,
      "t": 29086.145156250044,
      "d": 1444.1273437499985,
      "v": 59
    },
    {
      "midi": 67,
      "hit": false,
      "t": 29095.614843750045,
      "d": 553.9767187500001,
      "v": 88
    },
    {
      "midi": 59,
      "hit": false,
      "t": 29535.955312500046,
      "d": 184.65890624999884,
      "v": 44
    },
    {
      "midi": 59,
      "hit": false,
      "t": 29995.235156250044,
      "d": 250.9467187500013,
      "v": 76
    },
    {
      "midi": 64,
      "hit": false,
      "t": 29995.235156250044,
      "d": 440.3404687500006,
      "v": 80
    },
    {
      "midi": 67,
      "hit": false,
      "t": 30004.704843750045,
      "d": 501.893437499999,
      "v": 92
    },
    {
      "midi": 59,
      "hit": false,
      "t": 30445.045312500046,
      "d": 137.3104687499981,
      "v": 63
    },
    {
      "midi": 57,
      "hit": false,
      "t": 30899.590312500044,
      "d": 250.94671874999767,
      "v": 80
    },
    {
      "midi": 61,
      "hit": false,
      "t": 30899.590312500044,
      "d": 445.0753124999974,
      "v": 72
    },
    {
      "midi": 64,
      "hit": false,
      "t": 30899.590312500044,
      "d": 459.2798437499987,
      "v": 72
    },
    {
      "midi": 45,
      "hit": false,
      "t": 30899.590312500044,
      "d": 1207.3851562499985,
      "v": 69
    },
    {
      "midi": 57,
      "hit": false,
      "t": 31349.400468750042,
      "d": 156.24984374999985,
      "v": 36
    },
    {
      "midi": 57,
      "hit": false,
      "t": 31794.475781250043,
      "d": 222.5376562499987,
      "v": 88
    },
    {
      "midi": 61,
      "hit": false,
      "t": 31799.210625000043,
      "d": 449.81015625000146,
      "v": 84
    },
    {
      "midi": 64,
      "hit": false,
      "t": 31799.210625000043,
      "d": 464.01468750000276,
      "v": 84
    },
    {
      "midi": 57,
      "hit": false,
      "t": 32244.285937500044,
      "d": 198.86343750000015,
      "v": 69
    },
    {
      "midi": 57,
      "hit": false,
      "t": 32698.830937500046,
      "d": 265.1512500000026,
      "v": 96
    },
    {
      "midi": 64,
      "hit": false,
      "t": 32698.830937500046,
      "d": 317.2345312500038,
      "v": 88
    },
    {
      "midi": 61,
      "hit": false,
      "t": 32698.830937500046,
      "d": 331.43906250000146,
      "v": 96
    },
    {
      "midi": 47,
      "hit": false,
      "t": 32703.565781250047,
      "d": 1065.3398437499964,
      "v": 88
    },
    {
      "midi": 59,
      "hit": false,
      "t": 33399.587812500045,
      "d": 1131.6276562499988,
      "v": 92
    },
    {
      "midi": 62,
      "hit": false,
      "t": 33399.587812500045,
      "d": 1292.6123437499991,
      "v": 96
    },
    {
      "midi": 66,
      "hit": false,
      "t": 33404.32265625004,
      "d": 1515.1500000000015,
      "v": 96
    },
    {
      "midi": 42,
      "hit": false,
      "t": 33868.33734375004,
      "d": 203.59828125000058,
      "v": 76
    },
    {
      "midi": 35,
      "hit": false,
      "t": 34090.875000000044,
      "d": 1794.5057812500017,
      "v": 76
    },
    {
      "midi": 59,
      "hit": false,
      "t": 34777.427343750045,
      "d": 355.11328125,
      "v": 51
    },
    {
      "midi": 62,
      "hit": false,
      "t": 35004.699843750044,
      "d": 108.90140624999913,
      "v": 51
    },
    {
      "midi": 59,
      "hit": false,
      "t": 35203.56328125005,
      "d": 317.2345312499965,
      "v": 49
    },
    {
      "midi": 62,
      "hit": false,
      "t": 35208.298125000045,
      "d": 416.66625000000204,
      "v": 88
    },
    {
      "midi": 66,
      "hit": false,
      "t": 35213.03296875004,
      "d": 681.8175000000047,
      "v": 80
    },
    {
      "midi": 47,
      "hit": false,
      "t": 35449.77515625004,
      "d": 487.68890625000495,
      "v": 80
    },
    {
      "midi": 59,
      "hit": false,
      "t": 35691.252187500046,
      "d": 416.66625000000204,
      "v": 28
    },
    {
      "midi": 62,
      "hit": false,
      "t": 35923.25953125005,
      "d": 236.7421875,
      "v": 63
    },
    {
      "midi": 66,
      "hit": false,
      "t": 36126.85781250005,
      "d": 146.78015625000262,
      "v": 66
    },
    {
      "midi": 59,
      "hit": false,
      "t": 36368.33484375005,
      "d": 260.41640624999127,
      "v": 80
    },
    {
      "midi": 62,
      "hit": false,
      "t": 36373.06968750005,
      "d": 421.40109374999156,
      "v": 76
    },
    {
      "midi": 67,
      "hit": false,
      "t": 36377.80453125005,
      "d": 459.27984374999505,
      "v": 96
    },
    {
      "midi": 43,
      "hit": false,
      "t": 36382.539375000044,
      "d": 1368.3698437499916,
      "v": 88
    },
    {
      "midi": 59,
      "hit": false,
      "t": 36808.67531250004,
      "d": 151.51499999999942,
      "v": 36
    },
    {
      "midi": 59,
      "hit": false,
      "t": 37263.22031250004,
      "d": 189.39374999999563,
      "v": 88
    },
    {
      "midi": 62,
      "hit": false,
      "t": 37263.22031250004,
      "d": 464.0146874999991,
      "v": 84
    },
    {
      "midi": 67,
      "hit": false,
      "t": 37267.955156250035,
      "d": 492.42375000000175,
      "v": 101
    },
    {
      "midi": 59,
      "hit": false,
      "t": 37717.765312500036,
      "d": 123.1059374999968,
      "v": 72
    },
    {
      "midi": 57,
      "hit": false,
      "t": 38167.57546875003,
      "d": 265.15124999999534,
      "v": 69
    },
    {
      "midi": 45,
      "hit": false,
      "t": 38167.57546875003,
      "d": 416.66624999999476,
      "v": 80
    },
    {
      "midi": 62,
      "hit": false,
      "t": 38172.31031250003,
      "d": 454.54499999999825,
      "v": 80
    },
    {
      "midi": 64,
      "hit": false,
      "t": 38172.31031250003,
      "d": 459.27984374999505,
      "v": 69
    },
    {
      "midi": 57,
      "hit": false,
      "t": 38626.855312500025,
      "d": 113.63624999999593,
      "v": 40
    },
    {
      "midi": 64,
      "hit": false,
      "t": 39071.93062500002,
      "d": 459.27984374999505,
      "v": 80
    },
    {
      "midi": 49,
      "hit": false,
      "t": 39071.93062500002,
      "d": 563.4464062499974,
      "v": 92
    },
    {
      "midi": 57,
      "hit": false,
      "t": 39076.66546875002,
      "d": 227.27249999999913,
      "v": 76
    },
    {
      "midi": 61,
      "hit": false,
      "t": 39076.66546875002,
      "d": 473.484375,
      "v": 80
    },
    {
      "midi": 57,
      "hit": false,
      "t": 39512.271093750016,
      "d": 127.84078125000087,
      "v": 63
    },
    {
      "midi": 57,
      "hit": false,
      "t": 39976.285781250015,
      "d": 213.06796874999418,
      "v": 84
    },
    {
      "midi": 62,
      "hit": false,
      "t": 39976.285781250015,
      "d": 274.62093749998894,
      "v": 96
    },
    {
      "midi": 66,
      "hit": false,
      "t": 39981.02062500001,
      "d": 265.15124999999534,
      "v": 88
    },
    {
      "midi": 50,
      "hit": false,
      "t": 39981.02062500001,
      "d": 1051.1353124999805,
      "v": 84
    },
    {
      "midi": 57,
      "hit": false,
      "t": 40662.838125,
      "d": 274.6209374999962,
      "v": 76
    },
    {
      "midi": 54,
      "hit": false,
      "t": 40662.838125,
      "d": 279.355781249993,
      "v": 46
    },
    {
      "midi": 62,
      "hit": false,
      "t": 40667.57296875,
      "d": 265.1512500000026,
      "v": 88
    },
    {
      "midi": 55,
      "hit": false,
      "t": 41358.86015624999,
      "d": 634.4690625000003,
      "v": 76
    },
    {
      "midi": 62,
      "hit": false,
      "t": 41358.86015624999,
      "d": 1169.5064062500023,
      "v": 88
    },
    {
      "midi": 43,
      "hit": false,
      "t": 41358.86015624999,
      "d": 1860.7935937500006,
      "v": 80
    },
    {
      "midi": 59,
      "hit": false,
      "t": 41368.32984374999,
      "d": 1126.892812500002,
      "v": 88
    },
    {
      "midi": 50,
      "hit": false,
      "t": 42736.69968749999,
      "d": 501.8934375000026,
      "v": 54
    },
    {
      "midi": 59,
      "hit": false,
      "t": 42959.23734374999,
      "d": 374.05265625000175,
      "v": 66
    },
    {
      "midi": 62,
      "hit": false,
      "t": 43177.04015624999,
      "d": 255.68156250000175,
      "v": 80
    },
    {
      "midi": 67,
      "hit": false,
      "t": 43399.57781249999,
      "d": 222.53765625000233,
      "v": 88
    },
    {
      "midi": 57,
      "hit": false,
      "t": 43631.585156249996,
      "d": 293.56031249999796,
      "v": 92
    },
    {
      "midi": 50,
      "hit": false,
      "t": 43631.585156249996,
      "d": 1354.165312499994,
      "v": 76
    },
    {
      "midi": 62,
      "hit": false,
      "t": 43641.05484375,
      "d": 416.66624999999476,
      "v": 88
    },
    {
      "midi": 66,
      "hit": false,
      "t": 43641.05484375,
      "d": 426.13593749999563,
      "v": 92
    },
    {
      "midi": 57,
      "hit": false,
      "t": 44095.599843749995,
      "d": 194.1285937499997,
      "v": 19
    },
    {
      "midi": 57,
      "hit": false,
      "t": 44559.614531249994,
      "d": 208.33312499999738,
      "v": 57
    },
    {
      "midi": 62,
      "hit": false,
      "t": 44559.614531249994,
      "d": 383.52234374999534,
      "v": 76
    },
    {
      "midi": 66,
      "hit": false,
      "t": 44564.34937499999,
      "d": 388.2571874999994,
      "v": 76
    },
    {
      "midi": 57,
      "hit": false,
      "t": 44990.485312499986,
      "d": 189.3937500000029,
      "v": 80
    },
    {
      "midi": 57,
      "hit": false,
      "t": 45440.29546874999,
      "d": 274.6209374999962,
      "v": 80
    },
    {
      "midi": 62,
      "hit": false,
      "t": 45440.29546874999,
      "d": 482.9540624999936,
      "v": 92
    },
    {
      "midi": 64,
      "hit": false,
      "t": 45445.030312499985,
      "d": 506.62828124999214,
      "v": 80
    },
    {
      "midi": 45,
      "hit": false,
      "t": 45445.030312499985,
      "d": 1363.6349999999802,
      "v": 80
    },
    {
      "midi": 57,
      "hit": false,
      "t": 45927.98437499998,
      "d": 156.24984374999622,
      "v": 27
    },
    {
      "midi": 57,
      "hit": false,
      "t": 46349.38546874998,
      "d": 260.41640624999127,
      "v": 76
    },
    {
      "midi": 64,
      "hit": false,
      "t": 46354.120312499974,
      "d": 430.87078124999243,
      "v": 80
    },
    {
      "midi": 61,
      "hit": false,
      "t": 46358.85515624997,
      "d": 459.27984374999505,
      "v": 76
    },
    {
      "midi": 57,
      "hit": false,
      "t": 46808.665312499965,
      "d": 108.90140624999913,
      "v": 51
    },
    {
      "midi": 55,
      "hit": false,
      "t": 47263.21031249996,
      "d": 179.92406250000204,
      "v": 69
    },
    {
      "midi": 57,
      "hit": false,
      "t": 47263.21031249996,
      "d": 407.19656250000116,
      "v": 72
    },
    {
      "midi": 62,
      "hit": false,
      "t": 47263.21031249996,
      "d": 1231.0593750000044,
      "v": 76
    },
    {
      "midi": 38,
      "hit": false,
      "t": 47267.94515624996,
      "d": 1377.839531250007,
      "v": 80
    },
    {
      "midi": 55,
      "hit": false,
      "t": 47935.55812499997,
      "d": 71.02265625000291,
      "v": 27
    },
    {
      "midi": 50,
      "hit": false,
      "t": 48172.30031249997,
      "d": 624.9993749999994,
      "v": 51
    },
    {
      "midi": 55,
      "hit": false,
      "t": 48181.76999999997,
      "d": 288.82546875000116,
      "v": 80
    },
    {
      "midi": 57,
      "hit": false,
      "t": 48484.79999999997,
      "d": 194.1285937499997,
      "v": 84
    },
    {
      "midi": 62,
      "hit": false,
      "t": 48787.829999999965,
      "d": 184.65890624999884,
      "v": 84
    },
    {
      "midi": 38,
      "hit": false,
      "t": 49086.12515624997,
      "d": 411.93140624999796,
      "v": 80
    },
    {
      "midi": 62,
      "hit": false,
      "t": 49090.859999999964,
      "d": 397.7268750000003,
      "v": 73
    },
    {
      "midi": 54,
      "hit": false,
      "t": 49095.59484374996,
      "d": 321.9693750000006,
      "v": 82
    },
    {
      "midi": 57,
      "hit": false,
      "t": 49095.59484374996,
      "d": 350.3784375000032,
      "v": 82
    },
    {
      "midi": 52,
      "hit": false,
      "t": 49995.215156249964,
      "d": 397.726874999993,
      "v": 77
    },
    {
      "midi": 57,
      "hit": false,
      "t": 49995.215156249964,
      "d": 397.726874999993,
      "v": 77
    },
    {
      "midi": 61,
      "hit": false,
      "t": 49999.94999999996,
      "d": 411.93140624999796,
      "v": 77
    },
    {
      "midi": 45,
      "hit": false,
      "t": 50004.68484374996,
      "d": 388.2571874999994,
      "v": 77
    },
    {
      "midi": 54,
      "hit": false,
      "t": 50909.039999999964,
      "d": 388.2571874999994,
      "v": 49
    },
    {
      "midi": 62,
      "hit": false,
      "t": 50909.039999999964,
      "d": 454.54499999999825,
      "v": 75
    },
    {
      "midi": 57,
      "hit": false,
      "t": 50909.039999999964,
      "d": 459.27984374999505,
      "v": 75
    },
    {
      "midi": 50,
      "hit": false,
      "t": 50909.039999999964,
      "d": 1344.695624999993,
      "v": 64
    },
    {
      "midi": 57,
      "hit": false,
      "t": 51808.66031249996,
      "d": 402.4617187499971,
      "v": 75
    },
    {
      "midi": 54,
      "hit": false,
      "t": 51813.39515624996,
      "d": 227.27249999999913,
      "v": 58
    },
    {
      "midi": 62,
      "hit": false,
      "t": 51813.39515624996,
      "d": 374.05265625000175,
      "v": 71
    },
    {
      "midi": 54,
      "hit": false,
      "t": 52263.20531249996,
      "d": 142.04531249999854,
      "v": 52
    },
    {
      "midi": 43,
      "hit": false,
      "t": 52713.01546874996,
      "d": 1420.4531249999927,
      "v": 75
    },
    {
      "midi": 55,
      "hit": false,
      "t": 52717.75031249996,
      "d": 350.3784375000032,
      "v": 75
    },
    {
      "midi": 59,
      "hit": false,
      "t": 52717.75031249996,
      "d": 478.2192187500041,
      "v": 79
    },
    {
      "midi": 62,
      "hit": false,
      "t": 52717.75031249996,
      "d": 482.9540625000009,
      "v": 64
    },
    {
      "midi": 55,
      "hit": false,
      "t": 53603.166093749955,
      "d": 284.0906249999971,
      "v": 87
    },
    {
      "midi": 62,
      "hit": false,
      "t": 53603.166093749955,
      "d": 449.8101562499942,
      "v": 87
    },
    {
      "midi": 59,
      "hit": false,
      "t": 53603.166093749955,
      "d": 487.6889062499977,
      "v": 83
    },
    {
      "midi": 62,
      "hit": false,
      "t": 54081.38531249995,
      "d": 71.02265625000291,
      "v": 35
    },
    {
      "midi": 55,
      "hit": false,
      "t": 54081.38531249995,
      "d": 94.69687500000146,
      "v": 41
    },
    {
      "midi": 57,
      "hit": false,
      "t": 54531.19546874995,
      "d": 421.4010937499843,
      "v": 79
    },
    {
      "midi": 52,
      "hit": false,
      "t": 54535.93031249995,
      "d": 255.68156249999447,
      "v": 71
    },
    {
      "midi": 45,
      "hit": false,
      "t": 54535.93031249995,
      "d": 1302.0820312499854,
      "v": 64
    },
    {
      "midi": 62,
      "hit": false,
      "t": 54540.66515624995,
      "d": 397.726874999993,
      "v": 83
    },
    {
      "midi": 52,
      "hit": false,
      "t": 55004.67984374994,
      "d": 94.69687500000146,
      "v": 15
    },
    {
      "midi": 52,
      "hit": false,
      "t": 55435.55062499994,
      "d": 250.94671874999767,
      "v": 67
    },
    {
      "midi": 57,
      "hit": false,
      "t": 55435.55062499994,
      "d": 430.87078124999243,
      "v": 64
    },
    {
      "midi": 61,
      "hit": false,
      "t": 55445.02031249994,
      "d": 416.66624999999476,
      "v": 71
    },
    {
      "midi": 52,
      "hit": false,
      "t": 55885.36078124993,
      "d": 113.6362500000032,
      "v": 61
    },
    {
      "midi": 54,
      "hit": false,
      "t": 56349.37546874994,
      "d": 293.56031249999796,
      "v": 64
    },
    {
      "midi": 57,
      "hit": false,
      "t": 56349.37546874994,
      "d": 572.9160937500055,
      "v": 75
    },
    {
      "midi": 62,
      "hit": false,
      "t": 56349.37546874994,
      "d": 681.8175000000047,
      "v": 71
    },
    {
      "midi": 50,
      "hit": false,
      "t": 56349.37546874994,
      "d": 1500.945468750011,
      "v": 64
    },
    {
      "midi": 54,
      "hit": false,
      "t": 56818.12499999994,
      "d": 160.9846875000003,
      "v": 46
    },
    {
      "midi": 54,
      "hit": false,
      "t": 57263.20031249995,
      "d": 236.7421875,
      "v": 58
    },
    {
      "midi": 57,
      "hit": false,
      "t": 57263.20031249995,
      "d": 440.3404687500006,
      "v": 75
    },
    {
      "midi": 62,
      "hit": false,
      "t": 57272.66999999995,
      "d": 549.2418749999997,
      "v": 67
    },
    {
      "midi": 54,
      "hit": false,
      "t": 57713.01046874995,
      "d": 156.2498437500035,
      "v": 61
    },
    {
      "midi": 54,
      "hit": false,
      "t": 58186.49484374995,
      "d": 250.94671874999767,
      "v": 75
    },
    {
      "midi": 59,
      "hit": false,
      "t": 58186.49484374995,
      "d": 468.7495312499959,
      "v": 79
    },
    {
      "midi": 47,
      "hit": false,
      "t": 58186.49484374995,
      "d": 1444.127343749984,
      "v": 75
    },
    {
      "midi": 62,
      "hit": false,
      "t": 58191.229687499945,
      "d": 473.484375,
      "v": 87
    },
    {
      "midi": 59,
      "hit": false,
      "t": 59081.38031249995,
      "d": 473.48437499998545,
      "v": 83
    },
    {
      "midi": 54,
      "hit": false,
      "t": 59086.11515624994,
      "d": 255.68156249999447,
      "v": 71
    },
    {
      "midi": 62,
      "hit": false,
      "t": 59090.84999999994,
      "d": 572.916093749991,
      "v": 87
    },
    {
      "midi": 54,
      "hit": false,
      "t": 59540.660156249935,
      "d": 132.57562499999767,
      "v": 58
    },
    {
      "midi": 55,
      "hit": false,
      "t": 59990.47031249993,
      "d": 255.68156249999447,
      "v": 79
    },
    {
      "midi": 59,
      "hit": false,
      "t": 59990.47031249993,
      "d": 464.01468749999185,
      "v": 67
    },
    {
      "midi": 62,
      "hit": false,
      "t": 59990.47031249993,
      "d": 572.916093749991,
      "v": 71
    },
    {
      "midi": 43,
      "hit": false,
      "t": 59990.47031249993,
      "d": 1467.801562499997,
      "v": 64
    },
    {
      "midi": 55,
      "hit": false,
      "t": 60904.29515624992,
      "d": 227.27249999999913,
      "v": 71
    },
    {
      "midi": 59,
      "hit": false,
      "t": 60909.02999999992,
      "d": 464.0146875000064,
      "v": 75
    },
    {
      "midi": 62,
      "hit": false,
      "t": 60909.02999999992,
      "d": 487.68890625000495,
      "v": 75
    },
    {
      "midi": 55,
      "hit": false,
      "t": 61363.574999999924,
      "d": 142.04531249999854,
      "v": 49
    },
    {
      "midi": 52,
      "hit": false,
      "t": 61799.18062499992,
      "d": 1283.142656249991,
      "v": 67
    },
    {
      "midi": 59,
      "hit": false,
      "t": 61803.91546874992,
      "d": 397.7268750000003,
      "v": 79
    },
    {
      "midi": 56,
      "hit": false,
      "t": 61808.650312499914,
      "d": 364.5829687500009,
      "v": 58
    },
    {
      "midi": 64,
      "hit": false,
      "t": 61808.650312499914,
      "d": 397.7268750000003,
      "v": 71
    },
    {
      "midi": 59,
      "hit": false,
      "t": 62703.53578124991,
      "d": 378.78749999999854,
      "v": 83
    },
    {
      "midi": 56,
      "hit": false,
      "t": 62708.27062499991,
      "d": 364.5829687500009,
      "v": 71
    },
    {
      "midi": 64,
      "hit": false,
      "t": 62708.27062499991,
      "d": 435.6056250000038,
      "v": 75
    },
    {
      "midi": 52,
      "hit": false,
      "t": 63607.89093749991,
      "d": 255.68156249999447,
      "v": 71
    },
    {
      "midi": 57,
      "hit": false,
      "t": 63607.89093749991,
      "d": 392.9920312499962,
      "v": 75
    },
    {
      "midi": 62,
      "hit": false,
      "t": 63612.62578124991,
      "d": 464.0146874999991,
      "v": 87
    },
    {
      "midi": 45,
      "hit": false,
      "t": 63612.62578124991,
      "d": 1548.2939062499936,
      "v": 67
    },
    {
      "midi": 52,
      "hit": false,
      "t": 64057.70109374991,
      "d": 170.45437500000116,
      "v": 46
    },
    {
      "midi": 52,
      "hit": false,
      "t": 64521.715781249906,
      "d": 274.6209374999962,
      "v": 75
    },
    {
      "midi": 57,
      "hit": false,
      "t": 64521.715781249906,
      "d": 445.0753124999974,
      "v": 79
    },
    {
      "midi": 61,
      "hit": false,
      "t": 64531.18546874991,
      "d": 449.8101562499942,
      "v": 71
    },
    {
      "midi": 52,
      "hit": false,
      "t": 64985.7304687499,
      "d": 104.16656250000233,
      "v": 67
    },
    {
      "midi": 54,
      "hit": false,
      "t": 65449.745156249905,
      "d": 369.3178124999977,
      "v": 67
    },
    {
      "midi": 59,
      "hit": false,
      "t": 65449.745156249905,
      "d": 435.6056249999965,
      "v": 87
    },
    {
      "midi": 62,
      "hit": false,
      "t": 65459.214843749905,
      "d": 430.8707812499997,
      "v": 87
    },
    {
      "midi": 47,
      "hit": false,
      "t": 65463.9496874999,
      "d": 1297.3471875000105,
      "v": 71
    },
    {
      "midi": 54,
      "hit": false,
      "t": 66354.10031249991,
      "d": 232.00734374999593,
      "v": 49
    },
    {
      "midi": 59,
      "hit": false,
      "t": 66354.10031249991,
      "d": 449.8101562499942,
      "v": 75
    },
    {
      "midi": 62,
      "hit": false,
      "t": 66354.10031249991,
      "d": 530.3024999999907,
      "v": 75
    },
    {
      "midi": 54,
      "hit": false,
      "t": 66794.44078124991,
      "d": 170.4543749999866,
      "v": 54
    },
    {
      "midi": 42,
      "hit": false,
      "t": 67248.9857812499,
      "d": 1458.3318750000326,
      "v": 83
    },
    {
      "midi": 54,
      "hit": false,
      "t": 67258.45546874989,
      "d": 303.0300000000134,
      "v": 58
    },
    {
      "midi": 57,
      "hit": false,
      "t": 67258.45546874989,
      "d": 478.2192187500186,
      "v": 64
    },
    {
      "midi": 61,
      "hit": false,
      "t": 67263.1903124999,
      "d": 416.6662500000093,
      "v": 67
    },
    {
      "midi": 54,
      "hit": false,
      "t": 67717.7353124999,
      "d": 137.31046875000175,
      "v": 29
    },
    {
      "midi": 57,
      "hit": false,
      "t": 68162.81062499991,
      "d": 435.60562500001106,
      "v": 79
    },
    {
      "midi": 54,
      "hit": false,
      "t": 68167.54546874992,
      "d": 189.3937500000029,
      "v": 67
    },
    {
      "midi": 61,
      "hit": false,
      "t": 68167.54546874992,
      "d": 482.95406250000815,
      "v": 67
    },
    {
      "midi": 54,
      "hit": false,
      "t": 68626.82531249992,
      "d": 89.96203125000466,
      "v": 46
    },
    {
      "midi": 59,
      "hit": false,
      "t": 69076.63546874993,
      "d": 388.25718749998487,
      "v": 79
    },
    {
      "midi": 52,
      "hit": false,
      "t": 69081.37031249993,
      "d": 241.47703124997497,
      "v": 67
    },
    {
      "midi": 55,
      "hit": false,
      "t": 69081.37031249993,
      "d": 359.84812499997497,
      "v": 75
    },
    {
      "midi": 40,
      "hit": false,
      "t": 69090.83999999992,
      "d": 1098.4837499999703,
      "v": 61
    },
    {
      "midi": 59,
      "hit": false,
      "t": 69990.46031249991,
      "d": 113.63624999999593,
      "v": 33
    },
    {
      "midi": 52,
      "hit": false,
      "t": 69990.46031249991,
      "d": 156.24984374998894,
      "v": 54
    },
    {
      "midi": 55,
      "hit": false,
      "t": 69990.46031249991,
      "d": 189.39374999998836,
      "v": 61
    },
    {
      "midi": 45,
      "hit": false,
      "t": 70454.47499999989,
      "d": 838.0673437500081,
      "v": 83
    },
    {
      "midi": 57,
      "hit": false,
      "t": 70454.47499999989,
      "d": 975.3778125000099,
      "v": 83
    },
    {
      "midi": 52,
      "hit": false,
      "t": 70459.2098437499,
      "d": 312.49968749999243,
      "v": 79
    },
    {
      "midi": 61,
      "hit": false,
      "t": 70463.9446874999,
      "d": 956.4384375000081,
      "v": 79
    },
    {
      "midi": 52,
      "hit": false,
      "t": 71368.2998437499,
      "d": 213.06796874999418,
      "v": 49
    },
    {
      "midi": 45,
      "hit": false,
      "t": 71595.5723437499,
      "d": 648.6735937500052,
      "v": 64
    },
    {
      "midi": 52,
      "hit": false,
      "t": 71818.1099999999,
      "d": 383.5223437500099,
      "v": 75
    },
    {
      "midi": 61,
      "hit": false,
      "t": 71822.8448437499,
      "d": 241.47703125000407,
      "v": 87
    },
    {
      "midi": 59,
      "hit": false,
      "t": 72040.6476562499,
      "d": 250.94671874999767,
      "v": 67
    },
    {
      "midi": 57,
      "hit": false,
      "t": 72277.3898437499,
      "d": 123.10593750000407,
      "v": 79
    },
    {
      "midi": 57,
      "hit": false,
      "t": 72731.9348437499,
      "d": 378.7875000000058,
      "v": 77
    },
    {
      "midi": 54,
      "hit": false,
      "t": 72736.6696874999,
      "d": 232.00734374999593,
      "v": 64
    },
    {
      "midi": 50,
      "hit": false,
      "t": 72736.6696874999,
      "d": 1306.8168749999895,
      "v": 61
    },
    {
      "midi": 54,
      "hit": false,
      "t": 73162.8056249999,
      "d": 284.0906249999971,
      "v": 31
    },
    {
      "midi": 54,
      "hit": false,
      "t": 73626.8203124999,
      "d": 236.7421875,
      "v": 44
    },
    {
      "midi": 57,
      "hit": false,
      "t": 73626.8203124999,
      "d": 482.9540624999936,
      "v": 61
    },
    {
      "midi": 62,
      "hit": false,
      "t": 73631.5551562499,
      "d": 577.6509374999878,
      "v": 64
    },
    {
      "midi": 54,
      "hit": false,
      "t": 74071.89562499989,
      "d": 184.65890624999884,
      "v": 37
    },
    {
      "midi": 45,
      "hit": false,
      "t": 74550.11484374989,
      "d": 1415.718281249996,
      "v": 61
    },
    {
      "midi": 52,
      "hit": false,
      "t": 74554.8496874999,
      "d": 250.94671874999767,
      "v": 58
    },
    {
      "midi": 57,
      "hit": false,
      "t": 74554.8496874999,
      "d": 407.19656250000116,
      "v": 71
    },
    {
      "midi": 61,
      "hit": false,
      "t": 74554.8496874999,
      "d": 416.66624999999476,
      "v": 61
    },
    {
      "midi": 52,
      "hit": false,
      "t": 74976.2507812499,
      "d": 132.57562499999767,
      "v": 37
    },
    {
      "midi": 52,
      "hit": false,
      "t": 75445.00031249989,
      "d": 246.2118749999936,
      "v": 61
    },
    {
      "midi": 57,
      "hit": false,
      "t": 75445.00031249989,
      "d": 497.15859374999127,
      "v": 67
    },
    {
      "midi": 61,
      "hit": false,
      "t": 75445.00031249989,
      "d": 539.7721874999988,
      "v": 61
    },
    {
      "midi": 52,
      "hit": false,
      "t": 75894.81046874989,
      "d": 99.43171874999825,
      "v": 44
    },
    {
      "midi": 55,
      "hit": false,
      "t": 76358.82515624988,
      "d": 369.3178124999977,
      "v": 64
    },
    {
      "midi": 57,
      "hit": false,
      "t": 76358.82515624988,
      "d": 392.9920312500035,
      "v": 75
    },
    {
      "midi": 62,
      "hit": false,
      "t": 76358.82515624988,
      "d": 402.4617187499971,
      "v": 83
    },
    {
      "midi": 50,
      "hit": false,
      "t": 76358.82515624988,
      "d": 1392.0440625000047,
      "v": 75
    },
    {
      "midi": 57,
      "hit": false,
      "t": 77291.58937499988,
      "d": 411.93140625000524,
      "v": 46
    },
    {
      "midi": 62,
      "hit": false,
      "t": 77291.58937499988,
      "d": 430.870781250007,
      "v": 64
    },
    {
      "midi": 55,
      "hit": false,
      "t": 77296.32421874988,
      "d": 194.12859375000698,
      "v": 37
    },
    {
      "midi": 55,
      "hit": false,
      "t": 77731.92984374988,
      "d": 118.37109375,
      "v": 58
    },
    {
      "midi": 62,
      "hit": false,
      "t": 78167.53546874988,
      "d": 250.94671875001222,
      "v": 87
    },
    {
      "midi": 57,
      "hit": false,
      "t": 78167.53546874988,
      "d": 307.76484375001746,
      "v": 79
    },
    {
      "midi": 50,
      "hit": false,
      "t": 78167.53546874988,
      "d": 767.0446875000198,
      "v": 71
    },
    {
      "midi": 54,
      "hit": false,
      "t": 78172.27031249988,
      "d": 359.8481250000186,
      "v": 71
    },
    {
      "midi": 64,
      "hit": false,
      "t": 79086.0951562499,
      "d": 350.3784374999959,
      "v": 93
    },
    {
      "midi": 59,
      "hit": false,
      "t": 79389.1251562499,
      "d": 321.96937499998603,
      "v": 96
    },
    {
      "midi": 56,
      "hit": false,
      "t": 79701.62484374989,
      "d": 284.0906249999971,
      "v": 96
    },
    {
      "midi": 57,
      "hit": false,
      "t": 79999.91999999988,
      "d": 255.68156250000175,
      "v": 75
    },
    {
      "midi": 61,
      "hit": false,
      "t": 79999.91999999988,
      "d": 525.5676562500157,
      "v": 87
    },
    {
      "midi": 64,
      "hit": false,
      "t": 79999.91999999988,
      "d": 710.2265625000146,
      "v": 91
    },
    {
      "midi": 45,
      "hit": false,
      "t": 80004.65484374989,
      "d": 1832.3845312499761,
      "v": 79
    },
    {
      "midi": 57,
      "hit": false,
      "t": 80449.73015624989,
      "d": 340.9087500000023,
      "v": 26
    },
    {
      "midi": 57,
      "hit": false,
      "t": 80875.8660937499,
      "d": 298.29515624999476,
      "v": 37
    },
    {
      "midi": 61,
      "hit": false,
      "t": 80885.33578124989,
      "d": 511.36312499998894,
      "v": 87
    },
    {
      "midi": 64,
      "hit": false,
      "t": 80885.33578124989,
      "d": 606.0599999999831,
      "v": 87
    },
    {
      "midi": 57,
      "hit": false,
      "t": 81354.08531249988,
      "d": 785.9840624999779,
      "v": 52
    },
    {
      "midi": 62,
      "hit": false,
      "t": 81808.63031249987,
      "d": 364.5829687499936,
      "v": 87
    },
    {
      "midi": 66,
      "hit": false,
      "t": 81808.63031249987,
      "d": 388.2571874999994,
      "v": 79
    },
    {
      "midi": 50,
      "hit": false,
      "t": 81808.63031249987,
      "d": 880.6809375000012,
      "v": 87
    },
    {
      "midi": 57,
      "hit": false,
      "t": 82708.25062499987,
      "d": 189.3937500000029,
      "v": 71
    },
    {
      "midi": 62,
      "hit": false,
      "t": 82708.25062499987,
      "d": 364.58296875000815,
      "v": 87
    },
    {
      "midi": 66,
      "hit": false,
      "t": 82708.25062499987,
      "d": 440.34046875001513,
      "v": 83
    },
    {
      "midi": 57,
      "hit": false,
      "t": 83186.46984374989,
      "d": 94.69687499999418,
      "v": 67
    },
    {
      "midi": 56,
      "hit": false,
      "t": 83622.07546874988,
      "d": 222.53765625000233,
      "v": 83
    },
    {
      "midi": 59,
      "hit": false,
      "t": 83622.07546874988,
      "d": 331.43906250000873,
      "v": 79
    },
    {
      "midi": 64,
      "hit": false,
      "t": 83622.07546874988,
      "d": 350.3784375000105,
      "v": 87
    },
    {
      "midi": 52,
      "hit": false,
      "t": 83631.54515624988,
      "d": 1103.218593750018,
      "v": 64
    },
    {
      "midi": 56,
      "hit": false,
      "t": 84086.09015624989,
      "d": 71.02265625000291,
      "v": 10
    },
    {
      "midi": 56,
      "hit": false,
      "t": 84526.43062499989,
      "d": 194.12859375000698,
      "v": 79
    },
    {
      "midi": 59,
      "hit": false,
      "t": 84526.43062499989,
      "d": 814.3931250000023,
      "v": 87
    },
    {
      "midi": 64,
      "hit": false,
      "t": 84526.43062499989,
      "d": 814.3931250000023,
      "v": 96
    },
    {
      "midi": 56,
      "hit": false,
      "t": 84985.7104687499,
      "d": 468.7495312500105,
      "v": 28
    },
    {
      "midi": 57,
      "hit": false,
      "t": 85430.7857812499,
      "d": 213.06796875000873,
      "v": 75
    },
    {
      "midi": 64,
      "hit": false,
      "t": 85430.7857812499,
      "d": 511.3631250000035,
      "v": 87
    },
    {
      "midi": 61,
      "hit": false,
      "t": 85435.5206249999,
      "d": 426.1359375000029,
      "v": 83
    },
    {
      "midi": 45,
      "hit": false,
      "t": 85440.2554687499,
      "d": 1619.3165624999965,
      "v": 64
    },
    {
      "midi": 57,
      "hit": false,
      "t": 85880.59593749991,
      "d": 80.49234374999651,
      "v": 22
    },
    {
      "midi": 57,
      "hit": false,
      "t": 86145.7471874999,
      "d": 274.6209375000035,
      "v": 83
    },
    {
      "midi": 64,
      "hit": false,
      "t": 86145.7471874999,
      "d": 667.612968750007,
      "v": 96
    },
    {
      "midi": 61,
      "hit": false,
      "t": 86164.6865624999,
      "d": 279.35578125000757,
      "v": 54
    },
    {
      "midi": 52,
      "hit": false,
      "t": 86401.4287499999,
      "d": 842.8021874999977,
      "v": 54
    },
    {
      "midi": 57,
      "hit": false,
      "t": 86576.61796874991,
      "d": 535.0373437499948,
      "v": 52
    },
    {
      "midi": 61,
      "hit": false,
      "t": 86808.6253124999,
      "d": 288.82546875000116,
      "v": 52
    },
    {
      "midi": 64,
      "hit": false,
      "t": 87031.16296874991,
      "d": 142.04531249999127,
      "v": 64
    },
    {
      "midi": 57,
      "hit": false,
      "t": 87263.1703124999,
      "d": 232.00734374999593,
      "v": 64
    },
    {
      "midi": 64,
      "hit": false,
      "t": 87263.1703124999,
      "d": 539.7721874999843,
      "v": 83
    },
    {
      "midi": 61,
      "hit": false,
      "t": 87267.90515624991,
      "d": 397.726874999993,
      "v": 75
    },
    {
      "midi": 45,
      "hit": false,
      "t": 87272.63999999991,
      "d": 1500.9454687499965,
      "v": 61
    },
    {
      "midi": 57,
      "hit": false,
      "t": 87708.2456249999,
      "d": 165.7195312499971,
      "v": 39
    },
    {
      "midi": 57,
      "hit": false,
      "t": 88167.5254687499,
      "d": 208.33312500000466,
      "v": 75
    },
    {
      "midi": 61,
      "hit": false,
      "t": 88167.5254687499,
      "d": 449.81015625000873,
      "v": 83
    },
    {
      "midi": 64,
      "hit": false,
      "t": 88167.5254687499,
      "d": 568.1812500000087,
      "v": 91
    },
    {
      "midi": 57,
      "hit": false,
      "t": 88617.3356249999,
      "d": 151.51499999999942,
      "v": 37
    },
    {
      "midi": 50,
      "hit": false,
      "t": 89071.8806249999,
      "d": 743.3704687499994,
      "v": 87
    },
    {
      "midi": 57,
      "hit": false,
      "t": 89076.61546874991,
      "d": 345.64359374999185,
      "v": 79
    },
    {
      "midi": 54,
      "hit": false,
      "t": 89081.35031249991,
      "d": 175.18921875000524,
      "v": 75
    },
    {
      "midi": 62,
      "hit": false,
      "t": 89081.35031249991,
      "d": 331.4390624999942,
      "v": 91
    },
    {
      "midi": 54,
      "hit": false,
      "t": 89739.4935937499,
      "d": 303.0300000000134,
      "v": 87
    },
    {
      "midi": 62,
      "hit": false,
      "t": 89744.2284374999,
      "d": 497.1585937500204,
      "v": 96
    },
    {
      "midi": 50,
      "hit": false,
      "t": 89985.7054687499,
      "d": 918.5596875000338,
      "v": 71
    },
    {
      "midi": 54,
      "hit": false,
      "t": 90217.71281249991,
      "d": 378.7875000000204,
      "v": 49
    },
    {
      "midi": 57,
      "hit": false,
      "t": 90463.92468749992,
      "d": 265.1512500000099,
      "v": 64
    },
    {
      "midi": 62,
      "hit": false,
      "t": 90686.46234374994,
      "d": 189.39374999998836,
      "v": 75
    },
    {
      "midi": 64,
      "hit": false,
      "t": 90899.53031249993,
      "d": 624.999375000014,
      "v": 87
    },
    {
      "midi": 56,
      "hit": false,
      "t": 90904.26515624994,
      "d": 265.1512500000099,
      "v": 75
    },
    {
      "midi": 52,
      "hit": false,
      "t": 90904.26515624994,
      "d": 1406.2485937500169,
      "v": 67
    },
    {
      "midi": 59,
      "hit": false,
      "t": 90913.73484374995,
      "d": 388.2571874999994,
      "v": 64
    },
    {
      "midi": 56,
      "hit": false,
      "t": 91354.07531249995,
      "d": 203.59828125000058,
      "v": 28
    },
    {
      "midi": 56,
      "hit": false,
      "t": 91799.15062499995,
      "d": 260.4164062500058,
      "v": 71
    },
    {
      "midi": 59,
      "hit": false,
      "t": 91799.15062499995,
      "d": 435.60562500001106,
      "v": 91
    },
    {
      "midi": 64,
      "hit": false,
      "t": 91799.15062499995,
      "d": 501.8934375000099,
      "v": 87
    },
    {
      "midi": 56,
      "hit": false,
      "t": 92248.96078124996,
      "d": 151.51499999999942,
      "v": 49
    },
    {
      "midi": 57,
      "hit": false,
      "t": 92708.24062499995,
      "d": 222.53765625000233,
      "v": 75
    },
    {
      "midi": 61,
      "hit": false,
      "t": 92708.24062499995,
      "d": 402.4617187499971,
      "v": 79
    },
    {
      "midi": 45,
      "hit": false,
      "t": 92708.24062499995,
      "d": 819.1279687499919,
      "v": 71
    },
    {
      "midi": 64,
      "hit": false,
      "t": 92712.97546874995,
      "d": 464.01468749999185,
      "v": 83
    },
    {
      "midi": 45,
      "hit": false,
      "t": 93617.33062499994,
      "d": 530.3025000000052,
      "v": 96
    },
    {
      "midi": 57,
      "hit": false,
      "t": 93854.07281249994,
      "d": 279.35578125000757,
      "v": 91
    },
    {
      "midi": 64,
      "hit": false,
      "t": 93854.07281249994,
      "d": 321.96937500001513,
      "v": 91
    },
    {
      "midi": 61,
      "hit": false,
      "t": 93858.80765624995,
      "d": 312.499687500007,
      "v": 91
    },
    {
      "midi": 57,
      "hit": false,
      "t": 94540.62515624995,
      "d": 269.8860937499994,
      "v": 83
    },
    {
      "midi": 62,
      "hit": false,
      "t": 94540.62515624995,
      "d": 307.7648437500029,
      "v": 96
    },
    {
      "midi": 66,
      "hit": false,
      "t": 94540.62515624995,
      "d": 421.40109374999884,
      "v": 91
    },
    {
      "midi": 50,
      "hit": false,
      "t": 94540.62515624995,
      "d": 804.9234375000087,
      "v": 96
    },
    {
      "midi": 57,
      "hit": false,
      "t": 95236.64718749996,
      "d": 331.43906250000873,
      "v": 67
    },
    {
      "midi": 62,
      "hit": false,
      "t": 95236.64718749996,
      "d": 378.7875000000058,
      "v": 91
    },
    {
      "midi": 66,
      "hit": false,
      "t": 95236.64718749996,
      "d": 563.4464062500047,
      "v": 83
    },
    {
      "midi": 50,
      "hit": false,
      "t": 95492.32874999996,
      "d": 733.9007812500058,
      "v": 71
    },
    {
      "midi": 57,
      "hit": false,
      "t": 95686.45734374996,
      "d": 511.3631250000035,
      "v": 54
    },
    {
      "midi": 62,
      "hit": false,
      "t": 95908.99499999997,
      "d": 392.9920312500035,
      "v": 71
    },
    {
      "midi": 66,
      "hit": false,
      "t": 96141.00234374996,
      "d": 194.12859375000698,
      "v": 64
    },
    {
      "midi": 62,
      "hit": false,
      "t": 96368.27484374997,
      "d": 151.51499999999942,
      "v": 41
    },
    {
      "midi": 52,
      "hit": false,
      "t": 96368.27484374997,
      "d": 724.4310937500122,
      "v": 79
    },
    {
      "midi": 59,
      "hit": false,
      "t": 96373.00968749997,
      "d": 241.47703125000407,
      "v": 61
    },
    {
      "midi": 68,
      "hit": false,
      "t": 96373.00968749997,
      "d": 378.7875000000058,
      "v": 67
    },
    {
      "midi": 64,
      "hit": false,
      "t": 96377.74453124998,
      "d": 374.05265625000175,
      "v": 83
    },
    {
      "midi": 59,
      "hit": false,
      "t": 97031.15296874997,
      "d": 265.1512500000099,
      "v": 71
    },
    {
      "midi": 64,
      "hit": false,
      "t": 97035.88781249998,
      "d": 402.46171875001164,
      "v": 83
    },
    {
      "midi": 52,
      "hit": false,
      "t": 97282.09968749998,
      "d": 464.0146875000064,
      "v": 79
    },
    {
      "midi": 59,
      "hit": false,
      "t": 97476.22828124999,
      "d": 388.2571874999994,
      "v": 39
    },
    {
      "midi": 64,
      "hit": false,
      "t": 97712.97046874999,
      "d": 241.47703125000407,
      "v": 71
    },
    {
      "midi": 57,
      "hit": false,
      "t": 98162.780625,
      "d": 582.3857812500064,
      "v": 87
    },
    {
      "midi": 64,
      "hit": false,
      "t": 98167.51546875,
      "d": 511.3631250000035,
      "v": 91
    },
    {
      "midi": 61,
      "hit": false,
      "t": 98167.51546875,
      "d": 525.5676562500012,
      "v": 71
    },
    {
      "midi": 49,
      "hit": false,
      "t": 98172.25031250001,
      "d": 1581.4378125000076,
      "v": 71
    },
    {
      "midi": 57,
      "hit": false,
      "t": 99081.3403125,
      "d": 227.2725000000064,
      "v": 79
    },
    {
      "midi": 61,
      "hit": false,
      "t": 99081.3403125,
      "d": 435.60562500001106,
      "v": 75
    },
    {
      "midi": 64,
      "hit": false,
      "t": 99081.3403125,
      "d": 468.7495312500105,
      "v": 87
    },
    {
      "midi": 57,
      "hit": false,
      "t": 99531.15046875001,
      "d": 142.04531250000582,
      "v": 49
    },
    {
      "midi": 57,
      "hit": false,
      "t": 99985.69546875001,
      "d": 307.7648437500029,
      "v": 75
    },
    {
      "midi": 62,
      "hit": false,
      "t": 99990.43031250002,
      "d": 317.2345312499965,
      "v": 87
    },
    {
      "midi": 50,
      "hit": false,
      "t": 99990.43031250002,
      "d": 606.0599999999977,
      "v": 83
    },
    {
      "midi": 54,
      "hit": false,
      "t": 99995.16515625002,
      "d": 203.59828125000058,
      "v": 54
    },
    {
      "midi": 54,
      "hit": false,
      "t": 100700.65687500002,
      "d": 75.75750000000698,
      "v": 13
    },
    {
      "midi": 50,
      "hit": false,
      "t": 100894.78546875002,
      "d": 468.7495312499959,
      "v": 87
    },
    {
      "midi": 54,
      "hit": false,
      "t": 101140.99734375002,
      "d": 241.47703125000407,
      "v": 91
    },
    {
      "midi": 62,
      "hit": false,
      "t": 101145.73218750002,
      "d": 260.4164062500058,
      "v": 87
    },
    {
      "midi": 57,
      "hit": false,
      "t": 101145.73218750002,
      "d": 279.35578125000757,
      "v": 87
    },
    {
      "midi": 57,
      "hit": false,
      "t": 101818.08000000003,
      "d": 250.94671874999767,
      "v": 71
    },
    {
      "midi": 61,
      "hit": false,
      "t": 101822.81484375003,
      "d": 445.0753124999901,
      "v": 79
    },
    {
      "midi": 64,
      "hit": false,
      "t": 101822.81484375003,
      "d": 445.0753124999901,
      "v": 91
    },
    {
      "midi": 45,
      "hit": false,
      "t": 101827.54968750004,
      "d": 696.0220312499878,
      "v": 67
    },
    {
      "midi": 57,
      "hit": false,
      "t": 102282.09468750002,
      "d": 89.96203125000466,
      "v": 10
    },
    {
      "midi": 57,
      "hit": false,
      "t": 102736.63968750002,
      "d": 232.00734375001048,
      "v": 64
    },
    {
      "midi": 61,
      "hit": false,
      "t": 102736.63968750002,
      "d": 388.25718750001397,
      "v": 71
    },
    {
      "midi": 64,
      "hit": false,
      "t": 102736.63968750002,
      "d": 435.60562500001106,
      "v": 83
    },
    {
      "midi": 45,
      "hit": false,
      "t": 102741.37453125003,
      "d": 672.3478125000111,
      "v": 61
    },
    {
      "midi": 57,
      "hit": false,
      "t": 103167.51046875003,
      "d": 213.06796875000873,
      "v": 61
    },
    {
      "midi": 59,
      "hit": false,
      "t": 103612.58578125003,
      "d": 222.53765625001688,
      "v": 75
    },
    {
      "midi": 62,
      "hit": false,
      "t": 103617.32062500004,
      "d": 307.76484375001746,
      "v": 87
    },
    {
      "midi": 66,
      "hit": false,
      "t": 103617.32062500004,
      "d": 378.7875000000204,
      "v": 87
    },
    {
      "midi": 47,
      "hit": false,
      "t": 103622.05546875004,
      "d": 1439.3925000000163,
      "v": 79
    },
    {
      "midi": 59,
      "hit": false,
      "t": 104062.39593750006,
      "d": 274.6209375000035,
      "v": 64
    },
    {
      "midi": 64,
      "hit": false,
      "t": 104067.13078125006,
      "d": 298.29515624999476,
      "v": 83
    },
    {
      "midi": 59,
      "hit": false,
      "t": 104526.41062500005,
      "d": 246.21187500000815,
      "v": 87
    },
    {
      "midi": 66,
      "hit": false,
      "t": 104526.41062500005,
      "d": 435.60562500001106,
      "v": 91
    },
    {
      "midi": 54,
      "hit": false,
      "t": 104550.08484375005,
      "d": 132.57562499999767,
      "v": 61
    },
    {
      "midi": 59,
      "hit": false,
      "t": 104976.22078125006,
      "d": 137.31046875000175,
      "v": 39
    },
    {
      "midi": 52,
      "hit": false,
      "t": 105430.76578125005,
      "d": 1410.9834375000064,
      "v": 91
    },
    {
      "midi": 57,
      "hit": false,
      "t": 105454.44000000006,
      "d": 113.63624999999593,
      "v": 68
    },
    {
      "midi": 59,
      "hit": false,
      "t": 105454.44000000006,
      "d": 113.63624999999593,
      "v": 68
    },
    {
      "midi": 64,
      "hit": false,
      "t": 105454.44000000006,
      "d": 113.63624999999593,
      "v": 68
    },
    {
      "midi": 57,
      "hit": false,
      "t": 105913.71984375005,
      "d": 132.57562499999767,
      "v": 52
    },
    {
      "midi": 64,
      "hit": false,
      "t": 105913.71984375005,
      "d": 165.7195312499971,
      "v": 67
    },
    {
      "midi": 59,
      "hit": false,
      "t": 105918.45468750005,
      "d": 142.04531249999127,
      "v": 67
    },
    {
      "midi": 59,
      "hit": false,
      "t": 106354.06031250005,
      "d": 691.2871875000128,
      "v": 87
    },
    {
      "midi": 56,
      "hit": false,
      "t": 106358.79515625005,
      "d": 222.53765625000233,
      "v": 87
    },
    {
      "midi": 64,
      "hit": false,
      "t": 106358.79515625005,
      "d": 686.5523437500087,
      "v": 96
    },
    {
      "midi": 56,
      "hit": false,
      "t": 106803.87046875006,
      "d": 355.11328125,
      "v": 55
    },
    {
      "midi": 57,
      "hit": false,
      "t": 107267.88515625006,
      "d": 303.02999999999884,
      "v": 79
    },
    {
      "midi": 64,
      "hit": false,
      "t": 107267.88515625006,
      "d": 710.2265625,
      "v": 87
    },
    {
      "midi": 45,
      "hit": false,
      "t": 107267.88515625006,
      "d": 1453.5970312499994,
      "v": 71
    },
    {
      "midi": 61,
      "hit": false,
      "t": 107272.62000000007,
      "d": 430.87078124999243,
      "v": 75
    },
    {
      "midi": 57,
      "hit": false,
      "t": 108181.71000000006,
      "d": 227.2725000000064,
      "v": 71
    },
    {
      "midi": 64,
      "hit": false,
      "t": 108181.71000000006,
      "d": 1202.6503124999872,
      "v": 79
    },
    {
      "midi": 61,
      "hit": false,
      "t": 108186.44484375007,
      "d": 1131.6276562499843,
      "v": 71
    },
    {
      "midi": 52,
      "hit": false,
      "t": 108191.17968750007,
      "d": 828.5976562499854,
      "v": 35
    },
    {
      "midi": 57,
      "hit": false,
      "t": 108622.05046875007,
      "d": 634.469062499993,
      "v": 39
    },
    {
      "midi": 45,
      "hit": false,
      "t": 109076.59546875006,
      "d": 1642.9907812499878,
      "v": 83
    },
    {
      "midi": 57,
      "hit": false,
      "t": 109535.87531250005,
      "d": 1202.6503125000017,
      "v": 115
    },
    {
      "midi": 52,
      "hit": false,
      "t": 110004.62484375005,
      "d": 677.0826562500006,
      "v": 61
    },
    {
      "midi": 61,
      "hit": false,
      "t": 110009.35968750005,
      "d": 426.1359375000029,
      "v": 110
    },
    {
      "midi": 64,
      "hit": false,
      "t": 110449.70015625005,
      "d": 293.56031250000524,
      "v": 100
    },
    {
      "midi": 66,
      "hit": false,
      "t": 110908.98000000005,
      "d": 501.8934375000099,
      "v": 105
    },
    {
      "midi": 57,
      "hit": false,
      "t": 110908.98000000005,
      "d": 1235.7942187500157,
      "v": 100
    },
    {
      "midi": 62,
      "hit": false,
      "t": 111372.99468750006,
      "d": 364.58296875000815,
      "v": 100
    },
    {
      "midi": 62,
      "hit": false,
      "t": 111837.00937500007,
      "d": 293.56031250000524,
      "v": 105
    },
    {
      "midi": 61,
      "hit": false,
      "t": 112073.75156250007,
      "d": 246.2118749999936,
      "v": 75
    },
    {
      "midi": 59,
      "hit": false,
      "t": 112277.34984375007,
      "d": 1874.9981249999983,
      "v": 96
    },
    {
      "midi": 64,
      "hit": false,
      "t": 114100.26468750006,
      "d": 473.484375,
      "v": 91
    },
    {
      "midi": 61,
      "hit": false,
      "t": 114540.60515625007,
      "d": 2253.785625000004,
      "v": 83
    },
    {
      "midi": 57,
      "hit": false,
      "t": 114545.34000000007,
      "d": 1122.1579687499907,
      "v": 79
    },
    {
      "midi": 52,
      "hit": false,
      "t": 114545.34000000007,
      "d": 3480.1101562500116,
      "v": 58
    },
    {
      "midi": 57,
      "hit": false,
      "t": 115861.62656250007,
      "d": 705.4917187499959,
      "v": 64
    },
    {
      "midi": 45,
      "hit": false,
      "t": 116335.11093750007,
      "d": 1732.952812500007,
      "v": 67
    },
    {
      "midi": 57,
      "hit": false,
      "t": 116789.65593750007,
      "d": 975.3778125000099,
      "v": 67
    },
    {
      "midi": 61,
      "hit": false,
      "t": 117258.40546875008,
      "d": 497.1585937500058,
      "v": 100
    },
    {
      "midi": 64,
      "hit": false,
      "t": 117717.68531250008,
      "d": 426.1359375000029,
      "v": 100
    },
    {
      "midi": 62,
      "hit": false,
      "t": 118195.90453125008,
      "d": 506.6282812499994,
      "v": 100
    },
    {
      "midi": 47,
      "hit": false,
      "t": 118195.90453125008,
      "d": 1770.831562499996,
      "v": 71
    },
    {
      "midi": 64,
      "hit": false,
      "t": 118640.97984375009,
      "d": 511.36312499998894,
      "v": 83
    },
    {
      "midi": 54,
      "hit": false,
      "t": 119086.05515625008,
      "d": 795.4537500000006,
      "v": 61
    },
    {
      "midi": 66,
      "hit": false,
      "t": 119104.99453125008,
      "d": 525.5676562500012,
      "v": 91
    },
    {
      "midi": 62,
      "hit": false,
      "t": 119559.53953125008,
      "d": 397.72687500000757,
      "v": 96
    },
    {
      "midi": 59,
      "hit": false,
      "t": 119976.20578125007,
      "d": 1453.597031250014,
      "v": 105
    },
    {
      "midi": 52,
      "hit": false,
      "t": 119980.94062500008,
      "d": 1751.8921875000087,
      "v": 83
    },
    {
      "midi": 57,
      "hit": false,
      "t": 121372.98468750008,
      "d": 326.70421875000466,
      "v": 91
    },
    {
      "midi": 45,
      "hit": false,
      "t": 121808.59031250009,
      "d": 1576.702968749989,
      "v": 71
    },
    {
      "midi": 52,
      "hit": false,
      "t": 121818.06000000008,
      "d": 1145.8321874999965,
      "v": 87
    },
    {
      "midi": 57,
      "hit": false,
      "t": 121818.06000000008,
      "d": 2760.4139062500035,
      "v": 91
    },
    {
      "midi": 52,
      "hit": false,
      "t": 123176.96015625008,
      "d": 1032.1959375000006,
      "v": 22
    },
    {
      "midi": 45,
      "hit": false,
      "t": 123603.09609375008,
      "d": 928.0293749999983,
      "v": 61
    },
    {
      "midi": 46,
      "hit": false,
      "t": 124521.65578125008,
      "d": 752.8401562500076,
      "v": 75
    },
    {
      "midi": 53,
      "hit": false,
      "t": 124535.86031250008,
      "d": 776.5143750000134,
      "v": 87
    },
    {
      "midi": 58,
      "hit": false,
      "t": 124540.59515625008,
      "d": 800.1885937500047,
      "v": 91
    },
    {
      "midi": 55,
      "hit": false,
      "t": 125454.42000000009,
      "d": 388.2571874999994,
      "v": 49
    },
    {
      "midi": 63,
      "hit": false,
      "t": 125454.42000000009,
      "d": 454.54499999999825,
      "v": 75
    },
    {
      "midi": 58,
      "hit": false,
      "t": 125454.42000000009,
      "d": 459.2798437500023,
      "v": 75
    },
    {
      "midi": 51,
      "hit": false,
      "t": 125454.42000000009,
      "d": 1344.6956250000076,
      "v": 64
    },
    {
      "midi": 58,
      "hit": false,
      "t": 126354.04031250009,
      "d": 402.46171875001164,
      "v": 75
    },
    {
      "midi": 55,
      "hit": false,
      "t": 126358.77515625009,
      "d": 227.2725000000064,
      "v": 58
    },
    {
      "midi": 63,
      "hit": false,
      "t": 126358.77515625009,
      "d": 374.05265625000175,
      "v": 71
    },
    {
      "midi": 55,
      "hit": false,
      "t": 126808.58531250009,
      "d": 142.04531250000582,
      "v": 52
    },
    {
      "midi": 44,
      "hit": false,
      "t": 127258.3954687501,
      "d": 1420.453124999971,
      "v": 75
    },
    {
      "midi": 56,
      "hit": false,
      "t": 127263.1303125001,
      "d": 350.3784374999959,
      "v": 75
    },
    {
      "midi": 60,
      "hit": false,
      "t": 127263.1303125001,
      "d": 478.2192187499895,
      "v": 79
    },
    {
      "midi": 63,
      "hit": false,
      "t": 127263.1303125001,
      "d": 482.9540624999936,
      "v": 64
    },
    {
      "midi": 56,
      "hit": false,
      "t": 128148.54609375009,
      "d": 284.0906249999971,
      "v": 87
    },
    {
      "midi": 63,
      "hit": false,
      "t": 128148.54609375009,
      "d": 449.8101562499942,
      "v": 87
    },
    {
      "midi": 60,
      "hit": false,
      "t": 128148.54609375009,
      "d": 487.6889062499831,
      "v": 83
    },
    {
      "midi": 63,
      "hit": false,
      "t": 128626.76531250008,
      "d": 71.02265624998836,
      "v": 35
    },
    {
      "midi": 56,
      "hit": false,
      "t": 128626.76531250008,
      "d": 94.69687499999418,
      "v": 41
    },
    {
      "midi": 58,
      "hit": false,
      "t": 129076.57546875007,
      "d": 421.40109375002794,
      "v": 79
    },
    {
      "midi": 53,
      "hit": false,
      "t": 129081.31031250008,
      "d": 255.6815625000163,
      "v": 71
    },
    {
      "midi": 46,
      "hit": false,
      "t": 129081.31031250008,
      "d": 1302.08203125,
      "v": 64
    },
    {
      "midi": 63,
      "hit": false,
      "t": 129086.04515625008,
      "d": 397.7268750000221,
      "v": 83
    },
    {
      "midi": 53,
      "hit": false,
      "t": 129550.0598437501,
      "d": 94.69687499999418,
      "v": 15
    },
    {
      "midi": 53,
      "hit": false,
      "t": 129980.9306250001,
      "d": 250.94671874998312,
      "v": 67
    },
    {
      "midi": 58,
      "hit": false,
      "t": 129980.9306250001,
      "d": 430.87078124999243,
      "v": 64
    },
    {
      "midi": 62,
      "hit": false,
      "t": 129990.40031250009,
      "d": 416.66624999999476,
      "v": 71
    },
    {
      "midi": 53,
      "hit": false,
      "t": 130430.74078125009,
      "d": 113.63624999999593,
      "v": 61
    },
    {
      "midi": 55,
      "hit": false,
      "t": 130894.75546875008,
      "d": 293.5603124999907,
      "v": 64
    },
    {
      "midi": 58,
      "hit": false,
      "t": 130894.75546875008,
      "d": 572.9160937499837,
      "v": 75
    },
    {
      "midi": 63,
      "hit": false,
      "t": 130894.75546875008,
      "d": 681.8174999999756,
      "v": 71
    },
    {
      "midi": 51,
      "hit": false,
      "t": 130894.75546875008,
      "d": 1500.9454687499674,
      "v": 64
    },
    {
      "midi": 55,
      "hit": false,
      "t": 131363.50500000006,
      "d": 160.98468749999302,
      "v": 46
    },
    {
      "midi": 55,
      "hit": false,
      "t": 131808.58031250007,
      "d": 236.7421875,
      "v": 58
    },
    {
      "midi": 58,
      "hit": false,
      "t": 131808.58031250007,
      "d": 440.34046874998603,
      "v": 75
    },
    {
      "midi": 63,
      "hit": false,
      "t": 131818.05000000008,
      "d": 549.2418749999779,
      "v": 67
    },
    {
      "midi": 55,
      "hit": false,
      "t": 132258.39046875006,
      "d": 156.2498437499744,
      "v": 61
    },
    {
      "midi": 55,
      "hit": false,
      "t": 132731.87484375003,
      "d": 250.94671874999767,
      "v": 75
    },
    {
      "midi": 60,
      "hit": false,
      "t": 132731.87484375003,
      "d": 468.7495312500105,
      "v": 79
    },
    {
      "midi": 48,
      "hit": false,
      "t": 132731.87484375003,
      "d": 1444.1273437500058,
      "v": 75
    },
    {
      "midi": 63,
      "hit": false,
      "t": 132736.60968750002,
      "d": 473.4843750000291,
      "v": 87
    },
    {
      "midi": 60,
      "hit": false,
      "t": 133626.76031250006,
      "d": 473.4843749999709,
      "v": 83
    },
    {
      "midi": 55,
      "hit": false,
      "t": 133631.49515625005,
      "d": 255.6815624999872,
      "v": 71
    },
    {
      "midi": 63,
      "hit": false,
      "t": 133636.23000000004,
      "d": 572.9160937500128,
      "v": 87
    },
    {
      "midi": 55,
      "hit": false,
      "t": 134086.04015625003,
      "d": 132.57562500002678,
      "v": 58
    },
    {
      "midi": 56,
      "hit": false,
      "t": 134535.85031250006,
      "d": 255.6815625000163,
      "v": 79
    },
    {
      "midi": 60,
      "hit": false,
      "t": 134535.85031250006,
      "d": 464.01468750002095,
      "v": 67
    },
    {
      "midi": 63,
      "hit": false,
      "t": 134535.85031250006,
      "d": 572.9160937500128,
      "v": 71
    },
    {
      "midi": 44,
      "hit": false,
      "t": 134535.85031250006,
      "d": 1467.8015625000407,
      "v": 64
    },
    {
      "midi": 56,
      "hit": false,
      "t": 135449.67515625007,
      "d": 227.27249999999185,
      "v": 71
    },
    {
      "midi": 60,
      "hit": false,
      "t": 135454.41000000006,
      "d": 464.01468750002095,
      "v": 75
    },
    {
      "midi": 63,
      "hit": false,
      "t": 135454.41000000006,
      "d": 487.6889062500268,
      "v": 75
    },
    {
      "midi": 56,
      "hit": false,
      "t": 135908.95500000007,
      "d": 142.04531250003492,
      "v": 49
    },
    {
      "midi": 53,
      "hit": false,
      "t": 136344.5606250001,
      "d": 1283.1426562499837,
      "v": 67
    },
    {
      "midi": 60,
      "hit": false,
      "t": 136349.2954687501,
      "d": 397.726874999993,
      "v": 79
    },
    {
      "midi": 57,
      "hit": false,
      "t": 136354.03031250008,
      "d": 364.58296875000815,
      "v": 58
    },
    {
      "midi": 65,
      "hit": false,
      "t": 136354.03031250008,
      "d": 397.726874999993,
      "v": 71
    },
    {
      "midi": 60,
      "hit": false,
      "t": 137248.91578125008,
      "d": 378.7875000000058,
      "v": 83
    },
    {
      "midi": 57,
      "hit": false,
      "t": 137253.65062500007,
      "d": 364.58296875000815,
      "v": 71
    },
    {
      "midi": 65,
      "hit": false,
      "t": 137253.65062500007,
      "d": 435.6056250000256,
      "v": 75
    },
    {
      "midi": 53,
      "hit": false,
      "t": 138153.27093750008,
      "d": 255.6815624999872,
      "v": 71
    },
    {
      "midi": 58,
      "hit": false,
      "t": 138153.27093750008,
      "d": 392.9920312499744,
      "v": 75
    },
    {
      "midi": 63,
      "hit": false,
      "t": 138158.00578125007,
      "d": 464.01468749996275,
      "v": 87
    },
    {
      "midi": 46,
      "hit": false,
      "t": 138158.00578125007,
      "d": 1548.293906249979,
      "v": 67
    },
    {
      "midi": 53,
      "hit": false,
      "t": 138603.08109375005,
      "d": 170.45437500000116,
      "v": 46
    },
    {
      "midi": 53,
      "hit": false,
      "t": 139067.09578125004,
      "d": 274.6209375000326,
      "v": 75
    },
    {
      "midi": 58,
      "hit": false,
      "t": 139067.09578125004,
      "d": 445.07531250003376,
      "v": 79
    },
    {
      "midi": 62,
      "hit": false,
      "t": 139076.56546875005,
      "d": 449.8101562500233,
      "v": 71
    },
    {
      "midi": 53,
      "hit": false,
      "t": 139531.11046875006,
      "d": 104.16656250000233,
      "v": 67
    },
    {
      "midi": 55,
      "hit": false,
      "t": 139995.12515625005,
      "d": 369.3178124999977,
      "v": 67
    },
    {
      "midi": 60,
      "hit": false,
      "t": 139995.12515625005,
      "d": 435.6056249999965,
      "v": 87
    },
    {
      "midi": 63,
      "hit": false,
      "t": 140004.59484375006,
      "d": 430.8707812499779,
      "v": 87
    },
    {
      "midi": 48,
      "hit": false,
      "t": 140009.32968750005,
      "d": 1297.3471874999814,
      "v": 71
    },
    {
      "midi": 55,
      "hit": false,
      "t": 140899.48031250003,
      "d": 232.00734375001048,
      "v": 49
    },
    {
      "midi": 60,
      "hit": false,
      "t": 140899.48031250003,
      "d": 449.8101562500233,
      "v": 75
    },
    {
      "midi": 63,
      "hit": false,
      "t": 140899.48031250003,
      "d": 530.3025000000198,
      "v": 75
    },
    {
      "midi": 55,
      "hit": false,
      "t": 141339.82078125005,
      "d": 170.45437500000116,
      "v": 54
    },
    {
      "midi": 43,
      "hit": false,
      "t": 141794.36578125006,
      "d": 1458.3318749999453,
      "v": 83
    },
    {
      "midi": 55,
      "hit": false,
      "t": 141803.83546875007,
      "d": 303.02999999999884,
      "v": 58
    },
    {
      "midi": 58,
      "hit": false,
      "t": 141803.83546875007,
      "d": 478.2192187499895,
      "v": 64
    },
    {
      "midi": 62,
      "hit": false,
      "t": 141808.57031250006,
      "d": 416.6662500000093,
      "v": 67
    },
    {
      "midi": 55,
      "hit": false,
      "t": 142263.11531250007,
      "d": 137.3104687499872,
      "v": 29
    },
    {
      "midi": 58,
      "hit": false,
      "t": 142708.19062500005,
      "d": 435.6056249999674,
      "v": 79
    },
    {
      "midi": 55,
      "hit": false,
      "t": 142712.92546875004,
      "d": 189.39374999998836,
      "v": 67
    },
    {
      "midi": 62,
      "hit": false,
      "t": 142712.92546875004,
      "d": 482.95406249997905,
      "v": 67
    },
    {
      "midi": 55,
      "hit": false,
      "t": 143172.2053125,
      "d": 89.96203125000466,
      "v": 46
    },
    {
      "midi": 60,
      "hit": false,
      "t": 143622.01546875,
      "d": 388.25718750001397,
      "v": 79
    },
    {
      "midi": 53,
      "hit": false,
      "t": 143626.7503125,
      "d": 241.47703125001863,
      "v": 67
    },
    {
      "midi": 56,
      "hit": false,
      "t": 143626.7503125,
      "d": 359.8481250000186,
      "v": 75
    },
    {
      "midi": 41,
      "hit": false,
      "t": 143636.22,
      "d": 1098.483750000043,
      "v": 61
    },
    {
      "midi": 60,
      "hit": false,
      "t": 144535.84031250002,
      "d": 113.63625000001048,
      "v": 33
    },
    {
      "midi": 53,
      "hit": false,
      "t": 144535.84031250002,
      "d": 156.2498437500035,
      "v": 54
    },
    {
      "midi": 56,
      "hit": false,
      "t": 144535.84031250002,
      "d": 189.39375000001746,
      "v": 61
    },
    {
      "midi": 46,
      "hit": false,
      "t": 144999.85500000004,
      "d": 838.0673437500081,
      "v": 83
    },
    {
      "midi": 58,
      "hit": false,
      "t": 144999.85500000004,
      "d": 975.3778125000244,
      "v": 83
    },
    {
      "midi": 53,
      "hit": false,
      "t": 145004.58984375003,
      "d": 312.499687500007,
      "v": 79
    },
    {
      "midi": 62,
      "hit": false,
      "t": 145009.32468750002,
      "d": 956.4384375000373,
      "v": 79
    },
    {
      "midi": 53,
      "hit": false,
      "t": 145913.67984375005,
      "d": 213.06796875002328,
      "v": 49
    },
    {
      "midi": 46,
      "hit": false,
      "t": 146140.95234375008,
      "d": 648.6735937499907,
      "v": 64
    },
    {
      "midi": 53,
      "hit": false,
      "t": 146363.49000000008,
      "d": 383.52234374999534,
      "v": 75
    },
    {
      "midi": 62,
      "hit": false,
      "t": 146368.22484375007,
      "d": 241.47703125001863,
      "v": 87
    },
    {
      "midi": 60,
      "hit": false,
      "t": 146586.02765625008,
      "d": 250.94671874999767,
      "v": 67
    },
    {
      "midi": 58,
      "hit": false,
      "t": 146822.76984375008,
      "d": 123.10593749998952,
      "v": 79
    },
    {
      "midi": 58,
      "hit": false,
      "t": 147277.31484375006,
      "d": 378.7874999999767,
      "v": 77
    },
    {
      "midi": 55,
      "hit": false,
      "t": 147282.04968750005,
      "d": 232.00734374998137,
      "v": 64
    },
    {
      "midi": 51,
      "hit": false,
      "t": 147282.04968750005,
      "d": 1306.8168750000186,
      "v": 61
    },
    {
      "midi": 55,
      "hit": false,
      "t": 147708.18562500004,
      "d": 284.09062500001164,
      "v": 31
    },
    {
      "midi": 55,
      "hit": false,
      "t": 148172.20031250006,
      "d": 236.7421875,
      "v": 44
    },
    {
      "midi": 58,
      "hit": false,
      "t": 148172.20031250006,
      "d": 482.95406250000815,
      "v": 61
    },
    {
      "midi": 63,
      "hit": false,
      "t": 148176.93515625005,
      "d": 577.6509375000314,
      "v": 64
    },
    {
      "midi": 55,
      "hit": false,
      "t": 148617.27562500007,
      "d": 184.65890625002794,
      "v": 37
    },
    {
      "midi": 46,
      "hit": false,
      "t": 149095.4948437501,
      "d": 1415.7182812500105,
      "v": 61
    },
    {
      "midi": 53,
      "hit": false,
      "t": 149100.22968750008,
      "d": 250.94671874999767,
      "v": 58
    },
    {
      "midi": 58,
      "hit": false,
      "t": 149100.22968750008,
      "d": 407.19656250000116,
      "v": 71
    },
    {
      "midi": 62,
      "hit": false,
      "t": 149100.22968750008,
      "d": 416.6662500000093,
      "v": 61
    },
    {
      "midi": 53,
      "hit": false,
      "t": 149521.63078125007,
      "d": 132.57562499999767,
      "v": 37
    },
    {
      "midi": 53,
      "hit": false,
      "t": 149990.38031250008,
      "d": 246.21187500000815,
      "v": 61
    },
    {
      "midi": 58,
      "hit": false,
      "t": 149990.38031250008,
      "d": 497.1585937500058,
      "v": 67
    },
    {
      "midi": 62,
      "hit": false,
      "t": 149990.38031250008,
      "d": 539.7721874999988,
      "v": 61
    },
    {
      "midi": 53,
      "hit": false,
      "t": 150440.19046875008,
      "d": 99.4317187500128,
      "v": 44
    },
    {
      "midi": 56,
      "hit": false,
      "t": 150904.2051562501,
      "d": 369.3178124999977,
      "v": 64
    },
    {
      "midi": 58,
      "hit": false,
      "t": 150904.2051562501,
      "d": 392.9920312500035,
      "v": 75
    },
    {
      "midi": 63,
      "hit": false,
      "t": 150904.2051562501,
      "d": 402.46171875001164,
      "v": 83
    },
    {
      "midi": 51,
      "hit": false,
      "t": 150904.2051562501,
      "d": 1392.0440624999756,
      "v": 75
    },
    {
      "midi": 58,
      "hit": false,
      "t": 151836.9693750001,
      "d": 411.9314062499907,
      "v": 46
    },
    {
      "midi": 63,
      "hit": false,
      "t": 151836.9693750001,
      "d": 430.8707812499779,
      "v": 64
    },
    {
      "midi": 56,
      "hit": false,
      "t": 151841.7042187501,
      "d": 194.12859375000698,
      "v": 37
    },
    {
      "midi": 56,
      "hit": false,
      "t": 152277.3098437501,
      "d": 118.37109375,
      "v": 58
    },
    {
      "midi": 63,
      "hit": false,
      "t": 152712.91546875008,
      "d": 250.94671874999767,
      "v": 87
    },
    {
      "midi": 58,
      "hit": false,
      "t": 152712.91546875008,
      "d": 307.76484374998836,
      "v": 79
    },
    {
      "midi": 51,
      "hit": false,
      "t": 152712.91546875008,
      "d": 767.0446874999907,
      "v": 71
    },
    {
      "midi": 55,
      "hit": false,
      "t": 152717.65031250007,
      "d": 359.8481249999895,
      "v": 71
    },
    {
      "midi": 65,
      "hit": false,
      "t": 153631.4751562501,
      "d": 350.3784375000105,
      "v": 93
    },
    {
      "midi": 60,
      "hit": false,
      "t": 153934.5051562501,
      "d": 321.96937500001513,
      "v": 96
    },
    {
      "midi": 57,
      "hit": false,
      "t": 154247.0048437501,
      "d": 284.09062499998254,
      "v": 96
    },
    {
      "midi": 58,
      "hit": false,
      "t": 154545.30000000008,
      "d": 255.6815624999872,
      "v": 75
    },
    {
      "midi": 62,
      "hit": false,
      "t": 154545.30000000008,
      "d": 525.5676562500012,
      "v": 87
    },
    {
      "midi": 65,
      "hit": false,
      "t": 154545.30000000008,
      "d": 710.2265625,
      "v": 91
    },
    {
      "midi": 46,
      "hit": false,
      "t": 154550.03484375007,
      "d": 1832.3845312499907,
      "v": 79
    },
    {
      "midi": 58,
      "hit": false,
      "t": 154995.11015625007,
      "d": 340.9087500000023,
      "v": 26
    },
    {
      "midi": 58,
      "hit": false,
      "t": 155421.24609375006,
      "d": 298.2951562500093,
      "v": 37
    },
    {
      "midi": 62,
      "hit": false,
      "t": 155430.71578125007,
      "d": 511.3631250000035,
      "v": 87
    },
    {
      "midi": 65,
      "hit": false,
      "t": 155430.71578125007,
      "d": 606.0599999999977,
      "v": 87
    },
    {
      "midi": 58,
      "hit": false,
      "t": 155899.46531250008,
      "d": 785.9840624999779,
      "v": 52
    },
    {
      "midi": 63,
      "hit": false,
      "t": 156354.01031250006,
      "d": 364.58296875000815,
      "v": 87
    },
    {
      "midi": 67,
      "hit": false,
      "t": 156354.01031250006,
      "d": 388.25718750001397,
      "v": 79
    },
    {
      "midi": 51,
      "hit": false,
      "t": 156354.01031250006,
      "d": 880.6809375000012,
      "v": 87
    },
    {
      "midi": 58,
      "hit": false,
      "t": 157253.63062500005,
      "d": 189.39374999998836,
      "v": 71
    },
    {
      "midi": 63,
      "hit": false,
      "t": 157253.63062500005,
      "d": 364.58296874997905,
      "v": 87
    },
    {
      "midi": 67,
      "hit": false,
      "t": 157253.63062500005,
      "d": 440.34046874998603,
      "v": 83
    },
    {
      "midi": 58,
      "hit": false,
      "t": 157731.84984375004,
      "d": 94.69687499999418,
      "v": 67
    },
    {
      "midi": 57,
      "hit": false,
      "t": 158167.45546875,
      "d": 222.53765625000233,
      "v": 83
    },
    {
      "midi": 60,
      "hit": false,
      "t": 158167.45546875,
      "d": 331.4390624999942,
      "v": 79
    },
    {
      "midi": 65,
      "hit": false,
      "t": 158167.45546875,
      "d": 350.3784374999814,
      "v": 87
    },
    {
      "midi": 53,
      "hit": false,
      "t": 158176.92515625,
      "d": 1103.2185937499744,
      "v": 64
    },
    {
      "midi": 57,
      "hit": false,
      "t": 158631.47015625,
      "d": 71.02265624998836,
      "v": 10
    },
    {
      "midi": 57,
      "hit": false,
      "t": 159071.81062499998,
      "d": 194.12859375000698,
      "v": 79
    },
    {
      "midi": 60,
      "hit": false,
      "t": 159071.81062499998,
      "d": 814.3931250000023,
      "v": 87
    },
    {
      "midi": 65,
      "hit": false,
      "t": 159071.81062499998,
      "d": 814.3931250000023,
      "v": 96
    },
    {
      "midi": 57,
      "hit": false,
      "t": 159531.09046875,
      "d": 468.7495312499814,
      "v": 28
    },
    {
      "midi": 58,
      "hit": false,
      "t": 159976.16578125,
      "d": 213.06796874996508,
      "v": 75
    },
    {
      "midi": 65,
      "hit": false,
      "t": 159976.16578125,
      "d": 511.3631249999744,
      "v": 87
    },
    {
      "midi": 62,
      "hit": false,
      "t": 159980.90062499998,
      "d": 426.13593749998836,
      "v": 83
    },
    {
      "midi": 46,
      "hit": false,
      "t": 159985.63546874997,
      "d": 1619.3165624999674,
      "v": 64
    },
    {
      "midi": 58,
      "hit": false,
      "t": 160425.97593749996,
      "d": 80.49234374999651,
      "v": 22
    },
    {
      "midi": 58,
      "hit": false,
      "t": 160691.12718749995,
      "d": 274.6209374999744,
      "v": 83
    },
    {
      "midi": 65,
      "hit": false,
      "t": 160691.12718749995,
      "d": 667.6129687499779,
      "v": 96
    },
    {
      "midi": 62,
      "hit": false,
      "t": 160710.06656249994,
      "d": 279.355781249993,
      "v": 54
    },
    {
      "midi": 53,
      "hit": false,
      "t": 160946.80874999994,
      "d": 842.8021874999977,
      "v": 54
    },
    {
      "midi": 58,
      "hit": false,
      "t": 161121.99796874993,
      "d": 535.0373437500093,
      "v": 52
    },
    {
      "midi": 62,
      "hit": false,
      "t": 161354.00531249994,
      "d": 288.82546875000116,
      "v": 52
    },
    {
      "midi": 65,
      "hit": false,
      "t": 161576.54296874994,
      "d": 142.04531250000582,
      "v": 64
    },
    {
      "midi": 58,
      "hit": false,
      "t": 161808.55031249992,
      "d": 232.00734374998137,
      "v": 64
    },
    {
      "midi": 65,
      "hit": false,
      "t": 161808.55031249992,
      "d": 539.7721874999697,
      "v": 83
    },
    {
      "midi": 62,
      "hit": false,
      "t": 161813.2851562499,
      "d": 397.726874999993,
      "v": 75
    },
    {
      "midi": 46,
      "hit": false,
      "t": 161818.0199999999,
      "d": 1500.9454687499674,
      "v": 61
    },
    {
      "midi": 58,
      "hit": false,
      "t": 162253.6256249999,
      "d": 165.71953124998254,
      "v": 39
    },
    {
      "midi": 58,
      "hit": false,
      "t": 162712.90546874987,
      "d": 208.33312500000466,
      "v": 75
    },
    {
      "midi": 62,
      "hit": false,
      "t": 162712.90546874987,
      "d": 449.8101562499942,
      "v": 83
    },
    {
      "midi": 65,
      "hit": false,
      "t": 162712.90546874987,
      "d": 568.1812499999942,
      "v": 91
    },
    {
      "midi": 58,
      "hit": false,
      "t": 163162.71562499987,
      "d": 151.51500000001397,
      "v": 37
    },
    {
      "midi": 51,
      "hit": false,
      "t": 163617.26062499988,
      "d": 743.3704687499558,
      "v": 87
    },
    {
      "midi": 58,
      "hit": false,
      "t": 163621.99546874987,
      "d": 345.64359374999185,
      "v": 79
    },
    {
      "midi": 55,
      "hit": false,
      "t": 163626.73031249986,
      "d": 175.1892187499907,
      "v": 75
    },
    {
      "midi": 63,
      "hit": false,
      "t": 163626.73031249986,
      "d": 331.4390624999942,
      "v": 91
    },
    {
      "midi": 55,
      "hit": false,
      "t": 164284.87359374986,
      "d": 303.02999999996973,
      "v": 87
    },
    {
      "midi": 63,
      "hit": false,
      "t": 164289.60843749985,
      "d": 497.1585937499767,
      "v": 96
    },
    {
      "midi": 51,
      "hit": false,
      "t": 164531.08546874984,
      "d": 918.5596874999756,
      "v": 71
    },
    {
      "midi": 55,
      "hit": false,
      "t": 164763.09281249982,
      "d": 378.7875000000058,
      "v": 49
    },
    {
      "midi": 58,
      "hit": false,
      "t": 165009.30468749983,
      "d": 265.15124999999534,
      "v": 64
    },
    {
      "midi": 63,
      "hit": false,
      "t": 165231.84234374983,
      "d": 189.39374999998836,
      "v": 75
    },
    {
      "midi": 65,
      "hit": false,
      "t": 165444.91031249982,
      "d": 624.9993749999849,
      "v": 87
    },
    {
      "midi": 57,
      "hit": false,
      "t": 165449.6451562498,
      "d": 265.15124999999534,
      "v": 75
    },
    {
      "midi": 53,
      "hit": false,
      "t": 165449.6451562498,
      "d": 1406.2485937500023,
      "v": 67
    },
    {
      "midi": 60,
      "hit": false,
      "t": 165459.1148437498,
      "d": 388.25718750001397,
      "v": 64
    },
    {
      "midi": 57,
      "hit": false,
      "t": 165899.4553124998,
      "d": 203.59828125001513,
      "v": 28
    },
    {
      "midi": 57,
      "hit": false,
      "t": 166344.5306249998,
      "d": 260.4164062500058,
      "v": 71
    },
    {
      "midi": 60,
      "hit": false,
      "t": 166344.5306249998,
      "d": 435.6056249999965,
      "v": 91
    },
    {
      "midi": 65,
      "hit": false,
      "t": 166344.5306249998,
      "d": 501.89343749999534,
      "v": 87
    },
    {
      "midi": 57,
      "hit": false,
      "t": 166794.3407812498,
      "d": 151.51500000001397,
      "v": 49
    },
    {
      "midi": 58,
      "hit": false,
      "t": 167253.6206249998,
      "d": 222.53765624997322,
      "v": 75
    },
    {
      "midi": 62,
      "hit": false,
      "t": 167253.6206249998,
      "d": 402.46171874998254,
      "v": 79
    },
    {
      "midi": 46,
      "hit": false,
      "t": 167253.6206249998,
      "d": 819.1279687499919,
      "v": 71
    },
    {
      "midi": 65,
      "hit": false,
      "t": 167258.3554687498,
      "d": 464.01468749999185,
      "v": 83
    },
    {
      "midi": 46,
      "hit": false,
      "t": 168162.7106249998,
      "d": 530.3024999999907,
      "v": 96
    },
    {
      "midi": 58,
      "hit": false,
      "t": 168399.4528124998,
      "d": 279.355781249993,
      "v": 91
    },
    {
      "midi": 65,
      "hit": false,
      "t": 168399.4528124998,
      "d": 321.96937499998603,
      "v": 91
    },
    {
      "midi": 62,
      "hit": false,
      "t": 168404.1876562498,
      "d": 312.499687500007,
      "v": 91
    },
    {
      "midi": 58,
      "hit": false,
      "t": 169086.0051562498,
      "d": 269.88609375001397,
      "v": 83
    },
    {
      "midi": 63,
      "hit": false,
      "t": 169086.0051562498,
      "d": 307.76484375001746,
      "v": 96
    },
    {
      "midi": 67,
      "hit": false,
      "t": 169086.0051562498,
      "d": 421.40109375002794,
      "v": 91
    },
    {
      "midi": 51,
      "hit": false,
      "t": 169086.0051562498,
      "d": 804.9234375000233,
      "v": 96
    },
    {
      "midi": 58,
      "hit": false,
      "t": 169782.02718749983,
      "d": 331.4390624999942,
      "v": 67
    },
    {
      "midi": 63,
      "hit": false,
      "t": 169782.02718749983,
      "d": 378.7875000000058,
      "v": 91
    },
    {
      "midi": 67,
      "hit": false,
      "t": 169782.02718749983,
      "d": 563.4464062500047,
      "v": 83
    },
    {
      "midi": 51,
      "hit": false,
      "t": 170037.70874999982,
      "d": 733.9007812500058,
      "v": 71
    },
    {
      "midi": 58,
      "hit": false,
      "t": 170231.83734374982,
      "d": 511.3631250000035,
      "v": 54
    },
    {
      "midi": 63,
      "hit": false,
      "t": 170454.37499999983,
      "d": 392.9920312500035,
      "v": 71
    },
    {
      "midi": 67,
      "hit": false,
      "t": 170686.38234374984,
      "d": 194.12859375000698,
      "v": 64
    },
    {
      "midi": 63,
      "hit": false,
      "t": 170913.65484374986,
      "d": 151.51499999998487,
      "v": 41
    },
    {
      "midi": 53,
      "hit": false,
      "t": 170913.65484374986,
      "d": 724.4310937499395,
      "v": 79
    },
    {
      "midi": 60,
      "hit": false,
      "t": 170918.38968749985,
      "d": 241.47703124998952,
      "v": 61
    },
    {
      "midi": 69,
      "hit": false,
      "t": 170918.38968749985,
      "d": 378.7874999999767,
      "v": 67
    },
    {
      "midi": 65,
      "hit": false,
      "t": 170923.12453124984,
      "d": 374.0526562499872,
      "v": 83
    },
    {
      "midi": 60,
      "hit": false,
      "t": 171576.53296874982,
      "d": 265.15124999996624,
      "v": 71
    },
    {
      "midi": 65,
      "hit": false,
      "t": 171581.2678124998,
      "d": 402.46171874998254,
      "v": 83
    },
    {
      "midi": 53,
      "hit": false,
      "t": 171827.47968749978,
      "d": 464.01468750002095,
      "v": 79
    },
    {
      "midi": 60,
      "hit": false,
      "t": 172021.6082812498,
      "d": 388.25718750001397,
      "v": 39
    },
    {
      "midi": 65,
      "hit": false,
      "t": 172258.3504687498,
      "d": 241.47703125001863,
      "v": 71
    },
    {
      "midi": 58,
      "hit": false,
      "t": 172708.16062499981,
      "d": 582.3857812499919,
      "v": 87
    },
    {
      "midi": 65,
      "hit": false,
      "t": 172712.8954687498,
      "d": 511.3631250000035,
      "v": 91
    },
    {
      "midi": 62,
      "hit": false,
      "t": 172712.8954687498,
      "d": 525.5676562500012,
      "v": 71
    },
    {
      "midi": 50,
      "hit": false,
      "t": 172717.6303124998,
      "d": 1581.437812499993,
      "v": 71
    },
    {
      "midi": 58,
      "hit": false,
      "t": 173626.72031249982,
      "d": 227.27249999999185,
      "v": 79
    },
    {
      "midi": 62,
      "hit": false,
      "t": 173626.72031249982,
      "d": 435.6056249999965,
      "v": 75
    },
    {
      "midi": 65,
      "hit": false,
      "t": 173626.72031249982,
      "d": 468.7495312499814,
      "v": 87
    },
    {
      "midi": 58,
      "hit": false,
      "t": 174076.5304687498,
      "d": 142.04531249997672,
      "v": 49
    },
    {
      "midi": 58,
      "hit": false,
      "t": 174531.0754687498,
      "d": 307.76484374995925,
      "v": 75
    },
    {
      "midi": 63,
      "hit": false,
      "t": 174535.8103124998,
      "d": 317.2345312499674,
      "v": 87
    },
    {
      "midi": 51,
      "hit": false,
      "t": 174535.8103124998,
      "d": 606.0599999999686,
      "v": 83
    },
    {
      "midi": 55,
      "hit": false,
      "t": 174540.54515624978,
      "d": 203.59828124998603,
      "v": 54
    },
    {
      "midi": 55,
      "hit": false,
      "t": 175246.03687499976,
      "d": 75.75750000000698,
      "v": 13
    },
    {
      "midi": 51,
      "hit": false,
      "t": 175440.16546874976,
      "d": 468.7495312499814,
      "v": 87
    },
    {
      "midi": 55,
      "hit": false,
      "t": 175686.37734374977,
      "d": 241.47703124996042,
      "v": 91
    },
    {
      "midi": 63,
      "hit": false,
      "t": 175691.11218749976,
      "d": 260.4164062499767,
      "v": 87
    },
    {
      "midi": 58,
      "hit": false,
      "t": 175691.11218749976,
      "d": 279.3557812499639,
      "v": 87
    },
    {
      "midi": 58,
      "hit": false,
      "t": 176363.45999999973,
      "d": 250.94671874996857,
      "v": 71
    },
    {
      "midi": 62,
      "hit": false,
      "t": 176368.19484374972,
      "d": 445.07531249997555,
      "v": 79
    },
    {
      "midi": 65,
      "hit": false,
      "t": 176368.19484374972,
      "d": 445.07531249997555,
      "v": 91
    },
    {
      "midi": 46,
      "hit": false,
      "t": 176372.9296874997,
      "d": 696.0220312500023,
      "v": 67
    },
    {
      "midi": 58,
      "hit": false,
      "t": 176827.4746874997,
      "d": 89.96203125000466,
      "v": 10
    },
    {
      "midi": 58,
      "hit": false,
      "t": 177282.0196874997,
      "d": 232.00734374998137,
      "v": 64
    },
    {
      "midi": 62,
      "hit": false,
      "t": 177282.0196874997,
      "d": 388.25718749998487,
      "v": 71
    },
    {
      "midi": 65,
      "hit": false,
      "t": 177282.0196874997,
      "d": 435.6056249999674,
      "v": 83
    },
    {
      "midi": 46,
      "hit": false,
      "t": 177286.7545312497,
      "d": 672.3478124999965,
      "v": 61
    },
    {
      "midi": 58,
      "hit": false,
      "t": 177712.89046874968,
      "d": 213.06796874999418,
      "v": 61
    },
    {
      "midi": 60,
      "hit": false,
      "t": 178157.9657812497,
      "d": 222.53765624997322,
      "v": 75
    },
    {
      "midi": 63,
      "hit": false,
      "t": 178162.70062499968,
      "d": 307.76484374998836,
      "v": 87
    },
    {
      "midi": 67,
      "hit": false,
      "t": 178162.70062499968,
      "d": 378.7874999999767,
      "v": 87
    },
    {
      "midi": 48,
      "hit": false,
      "t": 178167.43546874967,
      "d": 1439.392499999958,
      "v": 79
    },
    {
      "midi": 60,
      "hit": false,
      "t": 178607.77593749965,
      "d": 274.6209375000035,
      "v": 64
    },
    {
      "midi": 65,
      "hit": false,
      "t": 178612.51078124964,
      "d": 298.2951562500093,
      "v": 83
    },
    {
      "midi": 60,
      "hit": false,
      "t": 179071.79062499964,
      "d": 246.21187500000815,
      "v": 87
    },
    {
      "midi": 67,
      "hit": false,
      "t": 179071.79062499964,
      "d": 435.6056249999965,
      "v": 91
    },
    {
      "midi": 55,
      "hit": false,
      "t": 179095.46484374965,
      "d": 132.57562499999767,
      "v": 61
    },
    {
      "midi": 60,
      "hit": false,
      "t": 179521.60078124964,
      "d": 137.3104687499872,
      "v": 39
    },
    {
      "midi": 53,
      "hit": false,
      "t": 179976.14578124962,
      "d": 1410.983437500021,
      "v": 91
    },
    {
      "midi": 58,
      "hit": false,
      "t": 179999.81999999963,
      "d": 113.63625000001048,
      "v": 68
    },
    {
      "midi": 60,
      "hit": false,
      "t": 179999.81999999963,
      "d": 113.63625000001048,
      "v": 68
    },
    {
      "midi": 65,
      "hit": false,
      "t": 179999.81999999963,
      "d": 113.63625000001048,
      "v": 68
    },
    {
      "midi": 58,
      "hit": false,
      "t": 180459.09984374963,
      "d": 132.57562499999767,
      "v": 52
    },
    {
      "midi": 65,
      "hit": false,
      "t": 180459.09984374963,
      "d": 165.71953124998254,
      "v": 67
    },
    {
      "midi": 60,
      "hit": false,
      "t": 180463.83468749962,
      "d": 142.04531250000582,
      "v": 67
    },
    {
      "midi": 60,
      "hit": false,
      "t": 180899.44031249962,
      "d": 691.2871875000419,
      "v": 87
    },
    {
      "midi": 57,
      "hit": false,
      "t": 180904.1751562496,
      "d": 222.53765625003143,
      "v": 87
    },
    {
      "midi": 65,
      "hit": false,
      "t": 180904.1751562496,
      "d": 686.5523437500524,
      "v": 96
    },
    {
      "midi": 57,
      "hit": false,
      "t": 181349.25046874964,
      "d": 355.1132812500291,
      "v": 55
    },
    {
      "midi": 58,
      "hit": false,
      "t": 181813.26515624966,
      "d": 303.02999999996973,
      "v": 79
    },
    {
      "midi": 65,
      "hit": false,
      "t": 181813.26515624966,
      "d": 710.2265624999709,
      "v": 87
    },
    {
      "midi": 46,
      "hit": false,
      "t": 181813.26515624966,
      "d": 1453.5970312499558,
      "v": 71
    },
    {
      "midi": 62,
      "hit": false,
      "t": 181817.99999999965,
      "d": 430.8707812499779,
      "v": 75
    },
    {
      "midi": 58,
      "hit": false,
      "t": 182727.08999999962,
      "d": 227.27249999999185,
      "v": 71
    },
    {
      "midi": 65,
      "hit": false,
      "t": 182727.08999999962,
      "d": 1202.6503125000163,
      "v": 79
    },
    {
      "midi": 62,
      "hit": false,
      "t": 182731.8248437496,
      "d": 1131.627656250028,
      "v": 71
    },
    {
      "midi": 53,
      "hit": false,
      "t": 182736.5596874996,
      "d": 828.5976562500291,
      "v": 35
    },
    {
      "midi": 58,
      "hit": false,
      "t": 183167.4304687496,
      "d": 634.4690625000221,
      "v": 39
    },
    {
      "midi": 46,
      "hit": false,
      "t": 183621.97546874962,
      "d": 1642.9907812500605,
      "v": 83
    },
    {
      "midi": 58,
      "hit": false,
      "t": 184081.25531249965,
      "d": 1202.6503125000163,
      "v": 115
    },
    {
      "midi": 53,
      "hit": false,
      "t": 184550.00484374966,
      "d": 677.0826562500151,
      "v": 61
    },
    {
      "midi": 62,
      "hit": false,
      "t": 184554.73968749965,
      "d": 426.13593750001746,
      "v": 110
    },
    {
      "midi": 65,
      "hit": false,
      "t": 184995.08015624966,
      "d": 293.5603124999907,
      "v": 100
    },
    {
      "midi": 67,
      "hit": false,
      "t": 185454.35999999967,
      "d": 501.89343749999534,
      "v": 105
    },
    {
      "midi": 58,
      "hit": false,
      "t": 185454.35999999967,
      "d": 1235.7942187500012,
      "v": 100
    },
    {
      "midi": 63,
      "hit": false,
      "t": 185918.37468749966,
      "d": 364.58296875000815,
      "v": 100
    },
    {
      "midi": 63,
      "hit": false,
      "t": 186382.38937499968,
      "d": 293.5603124999907,
      "v": 105
    },
    {
      "midi": 62,
      "hit": false,
      "t": 186619.13156249968,
      "d": 246.21187499997905,
      "v": 75
    },
    {
      "midi": 60,
      "hit": false,
      "t": 186822.72984374966,
      "d": 1874.9981249999837,
      "v": 96
    },
    {
      "midi": 65,
      "hit": false,
      "t": 188645.64468749965,
      "d": 473.484375,
      "v": 91
    },
    {
      "midi": 62,
      "hit": false,
      "t": 189085.98515624966,
      "d": 2253.7856249999895,
      "v": 83
    },
    {
      "midi": 58,
      "hit": false,
      "t": 189090.71999999965,
      "d": 1122.1579687499907,
      "v": 79
    },
    {
      "midi": 53,
      "hit": false,
      "t": 189090.71999999965,
      "d": 3480.1101562500116,
      "v": 58
    },
    {
      "midi": 58,
      "hit": false,
      "t": 190407.00656249965,
      "d": 705.4917187500105,
      "v": 64
    },
    {
      "midi": 46,
      "hit": false,
      "t": 190880.49093749965,
      "d": 1732.952812500007,
      "v": 67
    },
    {
      "midi": 58,
      "hit": false,
      "t": 191335.03593749966,
      "d": 975.3778124999953,
      "v": 67
    },
    {
      "midi": 62,
      "hit": false,
      "t": 191803.78546874964,
      "d": 497.1585937500058,
      "v": 100
    },
    {
      "midi": 65,
      "hit": false,
      "t": 192263.06531249965,
      "d": 426.13593750001746,
      "v": 100
    },
    {
      "midi": 63,
      "hit": false,
      "t": 192741.28453124966,
      "d": 506.62828125001397,
      "v": 100
    },
    {
      "midi": 48,
      "hit": false,
      "t": 192741.28453124966,
      "d": 1770.8315625000105,
      "v": 71
    },
    {
      "midi": 65,
      "hit": false,
      "t": 193186.35984374967,
      "d": 511.3631250000035,
      "v": 83
    },
    {
      "midi": 55,
      "hit": false,
      "t": 193631.43515624967,
      "d": 795.453749999986,
      "v": 61
    },
    {
      "midi": 67,
      "hit": false,
      "t": 193650.37453124966,
      "d": 525.5676562500012,
      "v": 91
    },
    {
      "midi": 63,
      "hit": false,
      "t": 194104.91953124967,
      "d": 397.726874999993,
      "v": 96
    },
    {
      "midi": 60,
      "hit": false,
      "t": 194521.58578124968,
      "d": 1453.5970312499849,
      "v": 105
    },
    {
      "midi": 53,
      "hit": false,
      "t": 194526.32062499967,
      "d": 1751.8921875000233,
      "v": 83
    },
    {
      "midi": 58,
      "hit": false,
      "t": 195918.36468749968,
      "d": 326.70421875000466,
      "v": 91
    },
    {
      "midi": 46,
      "hit": false,
      "t": 196353.9703124997,
      "d": 1576.7029687500035,
      "v": 71
    },
    {
      "midi": 53,
      "hit": false,
      "t": 196363.4399999997,
      "d": 1145.8321874999965,
      "v": 87
    },
    {
      "midi": 58,
      "hit": false,
      "t": 196363.4399999997,
      "d": 2665.7170312500093,
      "v": 91
    },
    {
      "midi": 53,
      "hit": false,
      "t": 197722.3401562497,
      "d": 1032.1959375000151,
      "v": 22
    },
    {
      "midi": 46,
      "hit": false,
      "t": 198148.47609374972,
      "d": 928.0293750000128,
      "v": 61
    },
    {
      "midi": 53,
      "hit": false,
      "t": 199081.24031249972,
      "d": 776.5143749999697,
      "v": 87
    },
    {
      "midi": 58,
      "hit": false,
      "t": 199085.9751562497,
      "d": 800.1885937499756,
      "v": 91
    },
    {
      "midi": 46,
      "hit": false,
      "t": 199090.7099999997,
      "d": 752.840156249993,
      "v": 75
    },
    {
      "midi": 67,
      "hit": false,
      "t": 199999.7999999997,
      "d": 501.89343749999534,
      "v": 105
    },
    {
      "midi": 58,
      "hit": false,
      "t": 199999.7999999997,
      "d": 1235.7942187500012,
      "v": 100
    },
    {
      "midi": 63,
      "hit": false,
      "t": 200463.8146874997,
      "d": 364.58296875000815,
      "v": 100
    },
    {
      "midi": 63,
      "hit": false,
      "t": 200927.8293749997,
      "d": 293.5603124999907,
      "v": 105
    },
    {
      "midi": 62,
      "hit": false,
      "t": 201164.5715624997,
      "d": 246.21187499997905,
      "v": 75
    },
    {
      "midi": 60,
      "hit": false,
      "t": 201368.1698437497,
      "d": 1874.9981249999837,
      "v": 96
    },
    {
      "midi": 65,
      "hit": false,
      "t": 203191.08468749968,
      "d": 473.484375,
      "v": 91
    },
    {
      "midi": 62,
      "hit": false,
      "t": 203631.4251562497,
      "d": 2253.7856249999895,
      "v": 83
    },
    {
      "midi": 58,
      "hit": false,
      "t": 203636.15999999968,
      "d": 1122.1579687499907,
      "v": 79
    },
    {
      "midi": 53,
      "hit": false,
      "t": 203636.15999999968,
      "d": 3480.1101562500116,
      "v": 58
    },
    {
      "midi": 58,
      "hit": false,
      "t": 204952.44656249968,
      "d": 705.4917187500105,
      "v": 64
    },
    {
      "midi": 46,
      "hit": false,
      "t": 205425.93093749968,
      "d": 1732.952812500007,
      "v": 67
    },
    {
      "midi": 58,
      "hit": false,
      "t": 205880.4759374997,
      "d": 975.3778124999953,
      "v": 67
    },
    {
      "midi": 62,
      "hit": false,
      "t": 206349.22546874968,
      "d": 497.1585937500058,
      "v": 100
    },
    {
      "midi": 65,
      "hit": false,
      "t": 206808.50531249968,
      "d": 426.13593750001746,
      "v": 100
    },
    {
      "midi": 63,
      "hit": false,
      "t": 207286.7245312497,
      "d": 506.62828125001397,
      "v": 100
    },
    {
      "midi": 48,
      "hit": false,
      "t": 207286.7245312497,
      "d": 1770.8315625000105,
      "v": 71
    },
    {
      "midi": 65,
      "hit": false,
      "t": 207731.7998437497,
      "d": 511.3631250000035,
      "v": 83
    },
    {
      "midi": 55,
      "hit": false,
      "t": 208176.8751562497,
      "d": 795.453749999986,
      "v": 61
    },
    {
      "midi": 67,
      "hit": false,
      "t": 208195.8145312497,
      "d": 525.5676562500012,
      "v": 91
    },
    {
      "midi": 63,
      "hit": false,
      "t": 208650.3595312497,
      "d": 397.726874999993,
      "v": 96
    },
    {
      "midi": 60,
      "hit": false,
      "t": 209067.02578124971,
      "d": 1453.5970312499849,
      "v": 105
    },
    {
      "midi": 53,
      "hit": false,
      "t": 209071.7606249997,
      "d": 1751.8921875000233,
      "v": 83
    },
    {
      "midi": 58,
      "hit": false,
      "t": 210463.8046874997,
      "d": 326.70421875000466,
      "v": 91
    },
    {
      "midi": 46,
      "hit": false,
      "t": 210899.41031249973,
      "d": 1576.7029687500035,
      "v": 71
    },
    {
      "midi": 53,
      "hit": false,
      "t": 210908.87999999974,
      "d": 1145.8321874999965,
      "v": 87
    },
    {
      "midi": 58,
      "hit": false,
      "t": 210908.87999999974,
      "d": 2665.7170312500093,
      "v": 91
    },
    {
      "midi": 53,
      "hit": false,
      "t": 212267.78015624973,
      "d": 1032.1959375000151,
      "v": 22
    },
    {
      "midi": 46,
      "hit": false,
      "t": 212693.91609374975,
      "d": 928.0293750000128,
      "v": 61
    },
    {
      "midi": 53,
      "hit": false,
      "t": 213626.68031249975,
      "d": 776.5143749999697,
      "v": 87
    },
    {
      "midi": 58,
      "hit": false,
      "t": 213631.41515624974,
      "d": 800.1885937499756,
      "v": 91
    },
    {
      "midi": 46,
      "hit": false,
      "t": 213636.14999999973,
      "d": 752.840156249993,
      "v": 75
    },
    {
      "midi": 58,
      "hit": false,
      "t": 215236.5271874997,
      "d": 331.4390624999942,
      "v": 67
    },
    {
      "midi": 63,
      "hit": false,
      "t": 215236.5271874997,
      "d": 378.7875000000058,
      "v": 91
    },
    {
      "midi": 67,
      "hit": false,
      "t": 215236.5271874997,
      "d": 563.4464062500047,
      "v": 83
    },
    {
      "midi": 51,
      "hit": false,
      "t": 215492.2087499997,
      "d": 733.9007812500058,
      "v": 71
    },
    {
      "midi": 58,
      "hit": false,
      "t": 215686.3373437497,
      "d": 511.3631250000035,
      "v": 54
    },
    {
      "midi": 63,
      "hit": false,
      "t": 215908.8749999997,
      "d": 392.9920312500035,
      "v": 71
    },
    {
      "midi": 67,
      "hit": false,
      "t": 216140.88234374972,
      "d": 194.12859375000698,
      "v": 64
    },
    {
      "midi": 63,
      "hit": false,
      "t": 216368.15484374974,
      "d": 151.51499999998487,
      "v": 41
    },
    {
      "midi": 53,
      "hit": false,
      "t": 216368.15484374974,
      "d": 724.4310937499395,
      "v": 79
    },
    {
      "midi": 60,
      "hit": false,
      "t": 216372.88968749973,
      "d": 241.47703124998952,
      "v": 61
    },
    {
      "midi": 69,
      "hit": false,
      "t": 216372.88968749973,
      "d": 378.7874999999767,
      "v": 67
    },
    {
      "midi": 65,
      "hit": false,
      "t": 216377.62453124972,
      "d": 374.0526562499872,
      "v": 83
    },
    {
      "midi": 60,
      "hit": false,
      "t": 217031.0329687497,
      "d": 265.15124999996624,
      "v": 71
    },
    {
      "midi": 65,
      "hit": false,
      "t": 217035.7678124997,
      "d": 402.46171874998254,
      "v": 83
    },
    {
      "midi": 53,
      "hit": false,
      "t": 217281.97968749967,
      "d": 464.01468750002095,
      "v": 79
    },
    {
      "midi": 60,
      "hit": false,
      "t": 217476.10828124968,
      "d": 388.25718750001397,
      "v": 39
    },
    {
      "midi": 65,
      "hit": false,
      "t": 217712.85046874968,
      "d": 241.47703125001863,
      "v": 71
    },
    {
      "midi": 58,
      "hit": false,
      "t": 218162.6606249997,
      "d": 582.3857812499919,
      "v": 87
    },
    {
      "midi": 65,
      "hit": false,
      "t": 218167.3954687497,
      "d": 511.3631250000035,
      "v": 91
    },
    {
      "midi": 62,
      "hit": false,
      "t": 218167.3954687497,
      "d": 525.5676562500012,
      "v": 71
    },
    {
      "midi": 50,
      "hit": false,
      "t": 218172.13031249968,
      "d": 1581.437812499993,
      "v": 71
    },
    {
      "midi": 58,
      "hit": false,
      "t": 219081.2203124997,
      "d": 227.27249999999185,
      "v": 79
    },
    {
      "midi": 62,
      "hit": false,
      "t": 219081.2203124997,
      "d": 435.6056249999965,
      "v": 75
    },
    {
      "midi": 65,
      "hit": false,
      "t": 219081.2203124997,
      "d": 468.7495312499814,
      "v": 87
    },
    {
      "midi": 58,
      "hit": false,
      "t": 219531.0304687497,
      "d": 142.04531249997672,
      "v": 49
    },
    {
      "midi": 58,
      "hit": false,
      "t": 219985.57546874968,
      "d": 307.76484374995925,
      "v": 75
    },
    {
      "midi": 63,
      "hit": false,
      "t": 219990.31031249967,
      "d": 317.2345312499674,
      "v": 87
    },
    {
      "midi": 51,
      "hit": false,
      "t": 219990.31031249967,
      "d": 606.0599999999686,
      "v": 83
    },
    {
      "midi": 55,
      "hit": false,
      "t": 219995.04515624966,
      "d": 203.59828124998603,
      "v": 54
    },
    {
      "midi": 55,
      "hit": false,
      "t": 220700.53687499964,
      "d": 75.75750000000698,
      "v": 13
    },
    {
      "midi": 51,
      "hit": false,
      "t": 220894.66546874965,
      "d": 468.7495312499814,
      "v": 87
    },
    {
      "midi": 55,
      "hit": false,
      "t": 221140.87734374966,
      "d": 241.47703124996042,
      "v": 91
    },
    {
      "midi": 63,
      "hit": false,
      "t": 221145.61218749965,
      "d": 260.4164062499767,
      "v": 87
    },
    {
      "midi": 58,
      "hit": false,
      "t": 221145.61218749965,
      "d": 279.3557812499639,
      "v": 87
    },
    {
      "midi": 58,
      "hit": false,
      "t": 221817.9599999996,
      "d": 250.94671874996857,
      "v": 71
    },
    {
      "midi": 62,
      "hit": false,
      "t": 221822.6948437496,
      "d": 445.07531249997555,
      "v": 79
    },
    {
      "midi": 65,
      "hit": false,
      "t": 221822.6948437496,
      "d": 445.07531249997555,
      "v": 91
    },
    {
      "midi": 46,
      "hit": false,
      "t": 221827.4296874996,
      "d": 696.0220312500023,
      "v": 67
    },
    {
      "midi": 58,
      "hit": false,
      "t": 222281.97468749958,
      "d": 89.96203125000466,
      "v": 10
    },
    {
      "midi": 58,
      "hit": false,
      "t": 222736.5196874996,
      "d": 232.00734374998137,
      "v": 64
    },
    {
      "midi": 62,
      "hit": false,
      "t": 222736.5196874996,
      "d": 388.25718749998487,
      "v": 71
    },
    {
      "midi": 65,
      "hit": false,
      "t": 222736.5196874996,
      "d": 435.6056249999674,
      "v": 83
    },
    {
      "midi": 46,
      "hit": false,
      "t": 222741.25453124958,
      "d": 672.3478124999965,
      "v": 61
    },
    {
      "midi": 58,
      "hit": false,
      "t": 223167.39046874957,
      "d": 213.06796874999418,
      "v": 61
    },
    {
      "midi": 60,
      "hit": false,
      "t": 223612.46578124957,
      "d": 222.53765624997322,
      "v": 75
    },
    {
      "midi": 63,
      "hit": false,
      "t": 223617.20062499956,
      "d": 307.76484374998836,
      "v": 87
    },
    {
      "midi": 67,
      "hit": false,
      "t": 223617.20062499956,
      "d": 378.7874999999767,
      "v": 87
    },
    {
      "midi": 48,
      "hit": false,
      "t": 223621.93546874955,
      "d": 1439.392499999958,
      "v": 79
    },
    {
      "midi": 60,
      "hit": false,
      "t": 224062.27593749954,
      "d": 274.6209375000035,
      "v": 64
    },
    {
      "midi": 65,
      "hit": false,
      "t": 224067.01078124953,
      "d": 298.2951562500093,
      "v": 83
    },
    {
      "midi": 60,
      "hit": false,
      "t": 224526.29062499953,
      "d": 246.21187500000815,
      "v": 87
    },
    {
      "midi": 67,
      "hit": false,
      "t": 224526.29062499953,
      "d": 435.6056249999965,
      "v": 91
    },
    {
      "midi": 55,
      "hit": false,
      "t": 224549.96484374953,
      "d": 132.57562499999767,
      "v": 61
    },
    {
      "midi": 60,
      "hit": false,
      "t": 224976.10078124952,
      "d": 137.3104687499872,
      "v": 39
    },
    {
      "midi": 53,
      "hit": false,
      "t": 225430.6457812495,
      "d": 1410.983437500021,
      "v": 91
    },
    {
      "midi": 58,
      "hit": false,
      "t": 225454.3199999995,
      "d": 113.63625000001048,
      "v": 68
    },
    {
      "midi": 60,
      "hit": false,
      "t": 225454.3199999995,
      "d": 113.63625000001048,
      "v": 68
    },
    {
      "midi": 65,
      "hit": false,
      "t": 225454.3199999995,
      "d": 113.63625000001048,
      "v": 68
    },
    {
      "midi": 58,
      "hit": false,
      "t": 225913.5998437495,
      "d": 132.57562499999767,
      "v": 52
    },
    {
      "midi": 65,
      "hit": false,
      "t": 225913.5998437495,
      "d": 165.71953124998254,
      "v": 67
    },
    {
      "midi": 60,
      "hit": false,
      "t": 225918.3346874995,
      "d": 142.04531250000582,
      "v": 67
    },
    {
      "midi": 60,
      "hit": false,
      "t": 226353.9403124995,
      "d": 691.2871875000419,
      "v": 87
    },
    {
      "midi": 57,
      "hit": false,
      "t": 226358.6751562495,
      "d": 222.53765625003143,
      "v": 87
    },
    {
      "midi": 65,
      "hit": false,
      "t": 226358.6751562495,
      "d": 686.5523437500524,
      "v": 96
    },
    {
      "midi": 57,
      "hit": false,
      "t": 226803.75046874952,
      "d": 355.1132812500291,
      "v": 55
    },
    {
      "midi": 58,
      "hit": false,
      "t": 227272.49999999956,
      "d": 255.6815624999872,
      "v": 75
    },
    {
      "midi": 62,
      "hit": false,
      "t": 227272.49999999956,
      "d": 525.5676562500012,
      "v": 87
    },
    {
      "midi": 65,
      "hit": false,
      "t": 227272.49999999956,
      "d": 710.2265625,
      "v": 91
    },
    {
      "midi": 46,
      "hit": false,
      "t": 227277.23484374955,
      "d": 1832.3845312499907,
      "v": 79
    },
    {
      "midi": 58,
      "hit": false,
      "t": 227722.31015624956,
      "d": 340.9087500000023,
      "v": 26
    },
    {
      "midi": 58,
      "hit": false,
      "t": 228148.44609374955,
      "d": 298.2951562500093,
      "v": 37
    },
    {
      "midi": 62,
      "hit": false,
      "t": 228157.91578124955,
      "d": 511.3631250000035,
      "v": 87
    },
    {
      "midi": 65,
      "hit": false,
      "t": 228157.91578124955,
      "d": 606.0599999999977,
      "v": 87
    },
    {
      "midi": 58,
      "hit": false,
      "t": 228626.66531249956,
      "d": 785.9840624999779,
      "v": 52
    },
    {
      "midi": 63,
      "hit": false,
      "t": 229081.21031249955,
      "d": 364.58296875000815,
      "v": 87
    },
    {
      "midi": 67,
      "hit": false,
      "t": 229081.21031249955,
      "d": 388.25718750001397,
      "v": 79
    },
    {
      "midi": 51,
      "hit": false,
      "t": 229081.21031249955,
      "d": 880.6809375000012,
      "v": 87
    },
    {
      "midi": 58,
      "hit": false,
      "t": 229980.83062499954,
      "d": 189.39374999998836,
      "v": 71
    },
    {
      "midi": 63,
      "hit": false,
      "t": 229980.83062499954,
      "d": 364.58296874997905,
      "v": 87
    },
    {
      "midi": 67,
      "hit": false,
      "t": 229980.83062499954,
      "d": 440.34046874998603,
      "v": 83
    },
    {
      "midi": 58,
      "hit": false,
      "t": 230459.04984374953,
      "d": 94.69687499999418,
      "v": 67
    },
    {
      "midi": 57,
      "hit": false,
      "t": 230894.6554687495,
      "d": 222.53765625000233,
      "v": 83
    },
    {
      "midi": 60,
      "hit": false,
      "t": 230894.6554687495,
      "d": 331.4390624999942,
      "v": 79
    },
    {
      "midi": 65,
      "hit": false,
      "t": 230894.6554687495,
      "d": 350.3784374999814,
      "v": 87
    },
    {
      "midi": 53,
      "hit": false,
      "t": 230904.1251562495,
      "d": 1103.2185937499744,
      "v": 64
    },
    {
      "midi": 57,
      "hit": false,
      "t": 231358.67015624949,
      "d": 71.02265624998836,
      "v": 10
    },
    {
      "midi": 57,
      "hit": false,
      "t": 231799.01062499947,
      "d": 194.12859375000698,
      "v": 79
    },
    {
      "midi": 60,
      "hit": false,
      "t": 231799.01062499947,
      "d": 814.3931250000023,
      "v": 87
    },
    {
      "midi": 65,
      "hit": false,
      "t": 231799.01062499947,
      "d": 814.3931250000023,
      "v": 96
    },
    {
      "midi": 57,
      "hit": false,
      "t": 232258.29046874947,
      "d": 468.7495312499814,
      "v": 28
    },
    {
      "midi": 58,
      "hit": false,
      "t": 232703.36578124948,
      "d": 213.06796874996508,
      "v": 75
    },
    {
      "midi": 65,
      "hit": false,
      "t": 232703.36578124948,
      "d": 511.3631249999744,
      "v": 87
    },
    {
      "midi": 62,
      "hit": false,
      "t": 232708.10062499947,
      "d": 426.13593749998836,
      "v": 83
    },
    {
      "midi": 46,
      "hit": false,
      "t": 232712.83546874946,
      "d": 1619.3165624999674,
      "v": 64
    },
    {
      "midi": 58,
      "hit": false,
      "t": 233153.17593749944,
      "d": 80.49234374999651,
      "v": 22
    },
    {
      "midi": 58,
      "hit": false,
      "t": 233418.32718749944,
      "d": 274.6209374999744,
      "v": 83
    },
    {
      "midi": 65,
      "hit": false,
      "t": 233418.32718749944,
      "d": 667.6129687499779,
      "v": 96
    },
    {
      "midi": 62,
      "hit": false,
      "t": 233437.26656249943,
      "d": 279.355781249993,
      "v": 54
    },
    {
      "midi": 53,
      "hit": false,
      "t": 233674.00874999943,
      "d": 842.8021874999977,
      "v": 54
    },
    {
      "midi": 58,
      "hit": false,
      "t": 233849.19796874942,
      "d": 535.0373437500093,
      "v": 52
    },
    {
      "midi": 62,
      "hit": false,
      "t": 234081.20531249943,
      "d": 288.82546875000116,
      "v": 52
    },
    {
      "midi": 65,
      "hit": false,
      "t": 234303.74296874943,
      "d": 142.04531250000582,
      "v": 64
    },
    {
      "midi": 58,
      "hit": false,
      "t": 234535.7503124994,
      "d": 232.00734374998137,
      "v": 64
    },
    {
      "midi": 65,
      "hit": false,
      "t": 234535.7503124994,
      "d": 539.7721874999697,
      "v": 83
    },
    {
      "midi": 62,
      "hit": false,
      "t": 234540.4851562494,
      "d": 397.726874999993,
      "v": 75
    },
    {
      "midi": 46,
      "hit": false,
      "t": 234545.2199999994,
      "d": 1500.9454687499674,
      "v": 61
    },
    {
      "midi": 58,
      "hit": false,
      "t": 234980.8256249994,
      "d": 165.71953124998254,
      "v": 39
    },
    {
      "midi": 58,
      "hit": false,
      "t": 235440.10546874936,
      "d": 208.33312500000466,
      "v": 75
    },
    {
      "midi": 62,
      "hit": false,
      "t": 235440.10546874936,
      "d": 449.8101562499942,
      "v": 83
    },
    {
      "midi": 65,
      "hit": false,
      "t": 235440.10546874936,
      "d": 568.1812499999942,
      "v": 91
    },
    {
      "midi": 58,
      "hit": false,
      "t": 235889.91562499935,
      "d": 151.51500000001397,
      "v": 37
    },
    {
      "midi": 51,
      "hit": false,
      "t": 236344.46062499937,
      "d": 743.3704687499558,
      "v": 87
    },
    {
      "midi": 58,
      "hit": false,
      "t": 236349.19546874936,
      "d": 345.64359374999185,
      "v": 79
    },
    {
      "midi": 55,
      "hit": false,
      "t": 236353.93031249935,
      "d": 175.1892187499907,
      "v": 75
    },
    {
      "midi": 63,
      "hit": false,
      "t": 236353.93031249935,
      "d": 331.4390624999942,
      "v": 91
    },
    {
      "midi": 55,
      "hit": false,
      "t": 237012.07359374934,
      "d": 303.02999999996973,
      "v": 87
    },
    {
      "midi": 63,
      "hit": false,
      "t": 237016.80843749933,
      "d": 497.1585937499767,
      "v": 96
    },
    {
      "midi": 51,
      "hit": false,
      "t": 237258.28546874932,
      "d": 918.5596874999756,
      "v": 71
    },
    {
      "midi": 55,
      "hit": false,
      "t": 237490.2928124993,
      "d": 378.7875000000058,
      "v": 49
    },
    {
      "midi": 58,
      "hit": false,
      "t": 237736.5046874993,
      "d": 265.15124999999534,
      "v": 64
    },
    {
      "midi": 63,
      "hit": false,
      "t": 237959.04234374932,
      "d": 189.39374999998836,
      "v": 75
    },
    {
      "midi": 65,
      "hit": false,
      "t": 238172.1103124993,
      "d": 624.9993749999849,
      "v": 87
    },
    {
      "midi": 57,
      "hit": false,
      "t": 238176.8451562493,
      "d": 265.15124999999534,
      "v": 75
    },
    {
      "midi": 53,
      "hit": false,
      "t": 238176.8451562493,
      "d": 1406.2485937500023,
      "v": 67
    },
    {
      "midi": 60,
      "hit": false,
      "t": 238186.31484374928,
      "d": 388.25718750001397,
      "v": 64
    },
    {
      "midi": 57,
      "hit": false,
      "t": 238626.6553124993,
      "d": 203.59828125001513,
      "v": 28
    },
    {
      "midi": 57,
      "hit": false,
      "t": 239071.7306249993,
      "d": 260.4164062500058,
      "v": 71
    },
    {
      "midi": 60,
      "hit": false,
      "t": 239071.7306249993,
      "d": 435.6056249999965,
      "v": 91
    },
    {
      "midi": 65,
      "hit": false,
      "t": 239071.7306249993,
      "d": 501.89343749999534,
      "v": 87
    },
    {
      "midi": 57,
      "hit": false,
      "t": 239521.5407812493,
      "d": 151.51500000001397,
      "v": 49
    },
    {
      "midi": 58,
      "hit": false,
      "t": 239980.8206249993,
      "d": 222.53765624997322,
      "v": 75
    },
    {
      "midi": 62,
      "hit": false,
      "t": 239980.8206249993,
      "d": 402.46171874998254,
      "v": 79
    },
    {
      "midi": 46,
      "hit": false,
      "t": 239980.8206249993,
      "d": 819.1279687499919,
      "v": 71
    },
    {
      "midi": 65,
      "hit": false,
      "t": 239985.55546874928,
      "d": 464.01468749999185,
      "v": 83
    },
    {
      "midi": 46,
      "hit": false,
      "t": 240889.9106249993,
      "d": 530.3024999999907,
      "v": 96
    },
    {
      "midi": 58,
      "hit": false,
      "t": 241126.6528124993,
      "d": 279.355781249993,
      "v": 91
    },
    {
      "midi": 65,
      "hit": false,
      "t": 241126.6528124993,
      "d": 321.96937499998603,
      "v": 91
    },
    {
      "midi": 62,
      "hit": false,
      "t": 241131.38765624928,
      "d": 312.499687500007,
      "v": 91
    },
    {
      "midi": 58,
      "hit": false,
      "t": 241813.20515624929,
      "d": 269.88609375001397,
      "v": 83
    },
    {
      "midi": 63,
      "hit": false,
      "t": 241813.20515624929,
      "d": 307.76484375001746,
      "v": 96
    },
    {
      "midi": 67,
      "hit": false,
      "t": 241813.20515624929,
      "d": 421.40109375002794,
      "v": 91
    },
    {
      "midi": 51,
      "hit": false,
      "t": 241813.20515624929,
      "d": 804.9234375000233,
      "v": 96
    },
    {
      "midi": 58,
      "hit": false,
      "t": 242509.22718749932,
      "d": 331.4390624999942,
      "v": 67
    },
    {
      "midi": 63,
      "hit": false,
      "t": 242509.22718749932,
      "d": 378.7875000000058,
      "v": 91
    },
    {
      "midi": 67,
      "hit": false,
      "t": 242509.22718749932,
      "d": 563.4464062500047,
      "v": 83
    },
    {
      "midi": 51,
      "hit": false,
      "t": 242764.9087499993,
      "d": 733.9007812500058,
      "v": 71
    },
    {
      "midi": 58,
      "hit": false,
      "t": 242959.0373437493,
      "d": 511.3631250000035,
      "v": 54
    },
    {
      "midi": 63,
      "hit": false,
      "t": 243181.5749999993,
      "d": 392.9920312500035,
      "v": 71
    },
    {
      "midi": 67,
      "hit": false,
      "t": 243413.58234374932,
      "d": 194.12859375000698,
      "v": 64
    },
    {
      "midi": 63,
      "hit": false,
      "t": 243640.85484374934,
      "d": 151.51499999998487,
      "v": 41
    },
    {
      "midi": 53,
      "hit": false,
      "t": 243640.85484374934,
      "d": 724.4310937499395,
      "v": 79
    },
    {
      "midi": 60,
      "hit": false,
      "t": 243645.58968749933,
      "d": 241.47703124998952,
      "v": 61
    },
    {
      "midi": 69,
      "hit": false,
      "t": 243645.58968749933,
      "d": 378.7874999999767,
      "v": 67
    },
    {
      "midi": 65,
      "hit": false,
      "t": 243650.32453124932,
      "d": 374.0526562499872,
      "v": 83
    },
    {
      "midi": 60,
      "hit": false,
      "t": 244303.7329687493,
      "d": 265.15124999996624,
      "v": 71
    },
    {
      "midi": 65,
      "hit": false,
      "t": 244308.4678124993,
      "d": 402.46171874998254,
      "v": 83
    },
    {
      "midi": 53,
      "hit": false,
      "t": 244554.67968749927,
      "d": 464.01468750002095,
      "v": 79
    },
    {
      "midi": 60,
      "hit": false,
      "t": 244748.80828124928,
      "d": 388.25718750001397,
      "v": 39
    },
    {
      "midi": 65,
      "hit": false,
      "t": 244985.55046874928,
      "d": 241.47703125001863,
      "v": 71
    },
    {
      "midi": 58,
      "hit": false,
      "t": 245435.3606249993,
      "d": 582.3857812499919,
      "v": 87
    },
    {
      "midi": 65,
      "hit": false,
      "t": 245440.0954687493,
      "d": 511.3631250000035,
      "v": 91
    },
    {
      "midi": 62,
      "hit": false,
      "t": 245440.0954687493,
      "d": 525.5676562500012,
      "v": 71
    },
    {
      "midi": 50,
      "hit": false,
      "t": 245444.83031249928,
      "d": 1581.437812499993,
      "v": 71
    },
    {
      "midi": 58,
      "hit": false,
      "t": 246353.9203124993,
      "d": 227.27249999999185,
      "v": 79
    },
    {
      "midi": 62,
      "hit": false,
      "t": 246353.9203124993,
      "d": 435.6056249999965,
      "v": 75
    },
    {
      "midi": 65,
      "hit": false,
      "t": 246353.9203124993,
      "d": 468.7495312499814,
      "v": 87
    },
    {
      "midi": 58,
      "hit": false,
      "t": 246803.7304687493,
      "d": 142.04531249997672,
      "v": 49
    },
    {
      "midi": 58,
      "hit": false,
      "t": 247258.27546874929,
      "d": 307.76484374995925,
      "v": 75
    },
    {
      "midi": 63,
      "hit": false,
      "t": 247263.01031249927,
      "d": 317.2345312499674,
      "v": 87
    },
    {
      "midi": 51,
      "hit": false,
      "t": 247263.01031249927,
      "d": 606.0599999999686,
      "v": 83
    },
    {
      "midi": 55,
      "hit": false,
      "t": 247267.74515624926,
      "d": 203.59828124998603,
      "v": 54
    },
    {
      "midi": 55,
      "hit": false,
      "t": 247973.23687499925,
      "d": 75.75750000000698,
      "v": 13
    },
    {
      "midi": 51,
      "hit": false,
      "t": 248167.36546874925,
      "d": 468.7495312499814,
      "v": 87
    },
    {
      "midi": 55,
      "hit": false,
      "t": 248413.57734374926,
      "d": 241.47703124996042,
      "v": 91
    },
    {
      "midi": 63,
      "hit": false,
      "t": 248418.31218749925,
      "d": 260.4164062499767,
      "v": 87
    },
    {
      "midi": 58,
      "hit": false,
      "t": 248418.31218749925,
      "d": 279.3557812499639,
      "v": 87
    },
    {
      "midi": 58,
      "hit": false,
      "t": 249090.65999999922,
      "d": 250.94671874996857,
      "v": 71
    },
    {
      "midi": 62,
      "hit": false,
      "t": 249095.3948437492,
      "d": 445.07531249997555,
      "v": 79
    },
    {
      "midi": 65,
      "hit": false,
      "t": 249095.3948437492,
      "d": 445.07531249997555,
      "v": 91
    },
    {
      "midi": 46,
      "hit": false,
      "t": 249100.1296874992,
      "d": 696.0220312500023,
      "v": 67
    },
    {
      "midi": 58,
      "hit": false,
      "t": 249554.67468749918,
      "d": 89.96203125000466,
      "v": 10
    },
    {
      "midi": 58,
      "hit": false,
      "t": 250009.2196874992,
      "d": 232.00734374998137,
      "v": 64
    },
    {
      "midi": 62,
      "hit": false,
      "t": 250009.2196874992,
      "d": 388.25718749998487,
      "v": 71
    },
    {
      "midi": 65,
      "hit": false,
      "t": 250009.2196874992,
      "d": 435.6056249999674,
      "v": 83
    },
    {
      "midi": 46,
      "hit": false,
      "t": 250013.95453124918,
      "d": 672.3478124999965,
      "v": 61
    },
    {
      "midi": 58,
      "hit": false,
      "t": 250440.09046874917,
      "d": 213.06796874999418,
      "v": 61
    },
    {
      "midi": 60,
      "hit": false,
      "t": 250885.16578124918,
      "d": 222.53765624997322,
      "v": 75
    },
    {
      "midi": 63,
      "hit": false,
      "t": 250889.90062499917,
      "d": 307.76484374998836,
      "v": 87
    },
    {
      "midi": 67,
      "hit": false,
      "t": 250889.90062499917,
      "d": 378.7874999999767,
      "v": 87
    },
    {
      "midi": 48,
      "hit": false,
      "t": 250894.63546874915,
      "d": 1439.392499999958,
      "v": 79
    },
    {
      "midi": 60,
      "hit": false,
      "t": 251334.97593749914,
      "d": 274.6209375000035,
      "v": 64
    },
    {
      "midi": 65,
      "hit": false,
      "t": 251339.71078124913,
      "d": 298.2951562500093,
      "v": 83
    },
    {
      "midi": 60,
      "hit": false,
      "t": 251798.99062499913,
      "d": 246.21187500000815,
      "v": 87
    },
    {
      "midi": 67,
      "hit": false,
      "t": 251798.99062499913,
      "d": 435.6056249999965,
      "v": 91
    },
    {
      "midi": 55,
      "hit": false,
      "t": 251822.66484374914,
      "d": 132.57562499999767,
      "v": 61
    },
    {
      "midi": 60,
      "hit": false,
      "t": 252248.80078124913,
      "d": 137.3104687499872,
      "v": 39
    },
    {
      "midi": 53,
      "hit": false,
      "t": 252703.3457812491,
      "d": 1410.983437500021,
      "v": 91
    },
    {
      "midi": 58,
      "hit": false,
      "t": 252727.01999999912,
      "d": 113.63625000001048,
      "v": 68
    },
    {
      "midi": 60,
      "hit": false,
      "t": 252727.01999999912,
      "d": 113.63625000001048,
      "v": 68
    },
    {
      "midi": 65,
      "hit": false,
      "t": 252727.01999999912,
      "d": 113.63625000001048,
      "v": 68
    },
    {
      "midi": 58,
      "hit": false,
      "t": 253186.29984374912,
      "d": 132.57562499999767,
      "v": 52
    },
    {
      "midi": 65,
      "hit": false,
      "t": 253186.29984374912,
      "d": 165.71953124998254,
      "v": 67
    },
    {
      "midi": 60,
      "hit": false,
      "t": 253191.0346874991,
      "d": 142.04531250000582,
      "v": 67
    },
    {
      "midi": 60,
      "hit": false,
      "t": 253626.6403124991,
      "d": 691.2871875000419,
      "v": 87
    },
    {
      "midi": 57,
      "hit": false,
      "t": 253631.3751562491,
      "d": 222.53765625003143,
      "v": 87
    },
    {
      "midi": 65,
      "hit": false,
      "t": 253631.3751562491,
      "d": 686.5523437500524,
      "v": 96
    },
    {
      "midi": 57,
      "hit": false,
      "t": 254076.45046874913,
      "d": 355.1132812500291,
      "v": 55
    },
    {
      "midi": 58,
      "hit": false,
      "t": 254540.46515624915,
      "d": 303.02999999996973,
      "v": 79
    },
    {
      "midi": 65,
      "hit": false,
      "t": 254540.46515624915,
      "d": 710.2265624999709,
      "v": 87
    },
    {
      "midi": 46,
      "hit": false,
      "t": 254540.46515624915,
      "d": 1453.5970312499558,
      "v": 71
    },
    {
      "midi": 62,
      "hit": false,
      "t": 254545.19999999914,
      "d": 430.8707812499779,
      "v": 75
    },
    {
      "midi": 58,
      "hit": false,
      "t": 255454.2899999991,
      "d": 227.27249999999185,
      "v": 71
    },
    {
      "midi": 65,
      "hit": false,
      "t": 255454.2899999991,
      "d": 1202.6503125000163,
      "v": 79
    },
    {
      "midi": 62,
      "hit": false,
      "t": 255459.0248437491,
      "d": 1131.627656250028,
      "v": 71
    },
    {
      "midi": 53,
      "hit": false,
      "t": 255463.75968749908,
      "d": 828.5976562500291,
      "v": 35
    },
    {
      "midi": 58,
      "hit": false,
      "t": 255894.6304687491,
      "d": 634.4690625000221,
      "v": 39
    },
    {
      "midi": 46,
      "hit": false,
      "t": 256349.1754687491,
      "d": 1642.9907812500605,
      "v": 83
    },
    {
      "midi": 58,
      "hit": false,
      "t": 256808.45531249914,
      "d": 1202.6503125000163,
      "v": 115
    },
    {
      "midi": 53,
      "hit": false,
      "t": 257277.20484374915,
      "d": 677.0826562500151,
      "v": 61
    },
    {
      "midi": 62,
      "hit": false,
      "t": 257281.93968749914,
      "d": 426.13593750001746,
      "v": 110
    },
    {
      "midi": 65,
      "hit": false,
      "t": 257722.28015624915,
      "d": 293.5603124999907,
      "v": 100
    },
    {
      "midi": 67,
      "hit": false,
      "t": 258181.55999999915,
      "d": 501.89343749999534,
      "v": 105
    },
    {
      "midi": 58,
      "hit": false,
      "t": 258181.55999999915,
      "d": 1235.7942187500012,
      "v": 100
    },
    {
      "midi": 63,
      "hit": false,
      "t": 258645.57468749915,
      "d": 364.58296875000815,
      "v": 100
    },
    {
      "midi": 63,
      "hit": false,
      "t": 259109.58937499917,
      "d": 293.5603124999907,
      "v": 105
    },
    {
      "midi": 62,
      "hit": false,
      "t": 259346.33156249917,
      "d": 246.21187499997905,
      "v": 75
    },
    {
      "midi": 60,
      "hit": false,
      "t": 259549.92984374915,
      "d": 1874.9981249999837,
      "v": 96
    },
    {
      "midi": 65,
      "hit": false,
      "t": 261372.84468749914,
      "d": 473.484375,
      "v": 91
    },
    {
      "midi": 62,
      "hit": false,
      "t": 261813.18515624915,
      "d": 2253.7856250000186,
      "v": 83
    },
    {
      "midi": 58,
      "hit": false,
      "t": 261817.91999999914,
      "d": 1122.1579687500198,
      "v": 79
    },
    {
      "midi": 53,
      "hit": false,
      "t": 261817.91999999914,
      "d": 3480.1101562499825,
      "v": 58
    },
    {
      "midi": 58,
      "hit": false,
      "t": 263134.20656249917,
      "d": 705.4917187499814,
      "v": 64
    },
    {
      "midi": 46,
      "hit": false,
      "t": 263607.69093749917,
      "d": 1732.9528124999488,
      "v": 67
    },
    {
      "midi": 58,
      "hit": false,
      "t": 264062.23593749915,
      "d": 975.3778124999953,
      "v": 67
    },
    {
      "midi": 62,
      "hit": false,
      "t": 264530.9854687492,
      "d": 497.1585937499767,
      "v": 100
    },
    {
      "midi": 65,
      "hit": false,
      "t": 264990.2653124992,
      "d": 426.13593749993015,
      "v": 100
    },
    {
      "midi": 63,
      "hit": false,
      "t": 265468.4845312491,
      "d": 506.62828125001397,
      "v": 100
    },
    {
      "midi": 48,
      "hit": false,
      "t": 265468.4845312491,
      "d": 1770.8315624999814,
      "v": 71
    },
    {
      "midi": 65,
      "hit": false,
      "t": 265913.5598437491,
      "d": 511.3631250000326,
      "v": 83
    },
    {
      "midi": 55,
      "hit": false,
      "t": 266358.6351562491,
      "d": 795.453749999986,
      "v": 61
    },
    {
      "midi": 67,
      "hit": false,
      "t": 266377.5745312491,
      "d": 525.5676562499721,
      "v": 91
    },
    {
      "midi": 63,
      "hit": false,
      "t": 266832.1195312491,
      "d": 397.726874999993,
      "v": 96
    },
    {
      "midi": 60,
      "hit": false,
      "t": 267248.78578124905,
      "d": 1453.597031250014,
      "v": 105
    },
    {
      "midi": 53,
      "hit": false,
      "t": 267253.5206249991,
      "d": 1751.8921875000233,
      "v": 83
    },
    {
      "midi": 58,
      "hit": false,
      "t": 268645.5646874991,
      "d": 326.70421875000466,
      "v": 91
    },
    {
      "midi": 46,
      "hit": false,
      "t": 269081.1703124991,
      "d": 1576.7029687500326,
      "v": 71
    },
    {
      "midi": 53,
      "hit": false,
      "t": 269090.6399999991,
      "d": 1145.8321875000256,
      "v": 87
    },
    {
      "midi": 58,
      "hit": false,
      "t": 269090.6399999991,
      "d": 2665.7170312500093,
      "v": 91
    },
    {
      "midi": 53,
      "hit": false,
      "t": 270449.54015624913,
      "d": 1032.195937499986,
      "v": 22
    },
    {
      "midi": 46,
      "hit": false,
      "t": 270875.6760937491,
      "d": 928.0293749999837,
      "v": 61
    },
    {
      "midi": 53,
      "hit": false,
      "t": 271808.4403124991,
      "d": 776.5143750000279,
      "v": 87
    },
    {
      "midi": 58,
      "hit": false,
      "t": 271813.17515624914,
      "d": 800.1885937500047,
      "v": 91
    },
    {
      "midi": 46,
      "hit": false,
      "t": 271817.90999999916,
      "d": 752.840156249993,
      "v": 75
    },
    {
      "midi": 67,
      "hit": false,
      "t": 272726.9999999991,
      "d": 501.89343749999534,
      "v": 105
    },
    {
      "midi": 58,
      "hit": false,
      "t": 272726.9999999991,
      "d": 1235.794218749972,
      "v": 100
    },
    {
      "midi": 63,
      "hit": false,
      "t": 273191.01468749915,
      "d": 364.58296874997905,
      "v": 100
    },
    {
      "midi": 63,
      "hit": false,
      "t": 273655.0293749991,
      "d": 293.5603124999907,
      "v": 105
    },
    {
      "midi": 62,
      "hit": false,
      "t": 273891.7715624991,
      "d": 246.21187499997905,
      "v": 75
    },
    {
      "midi": 60,
      "hit": false,
      "t": 274095.3698437491,
      "d": 1874.9981249999837,
      "v": 96
    },
    {
      "midi": 65,
      "hit": false,
      "t": 275918.2846874991,
      "d": 473.484375,
      "v": 91
    },
    {
      "midi": 62,
      "hit": false,
      "t": 276358.6251562491,
      "d": 2253.7856250000186,
      "v": 83
    },
    {
      "midi": 58,
      "hit": false,
      "t": 276363.3599999991,
      "d": 1122.1579687499907,
      "v": 79
    },
    {
      "midi": 53,
      "hit": false,
      "t": 276363.3599999991,
      "d": 3480.1101562499534,
      "v": 58
    },
    {
      "midi": 58,
      "hit": false,
      "t": 277679.6465624991,
      "d": 705.4917187499814,
      "v": 64
    },
    {
      "midi": 46,
      "hit": false,
      "t": 278153.1309374991,
      "d": 1732.9528124999488,
      "v": 67
    },
    {
      "midi": 58,
      "hit": false,
      "t": 278607.6759374991,
      "d": 975.3778124999953,
      "v": 67
    },
    {
      "midi": 62,
      "hit": false,
      "t": 279076.42546874913,
      "d": 497.1585937499767,
      "v": 100
    },
    {
      "midi": 65,
      "hit": false,
      "t": 279535.70531249914,
      "d": 426.13593749993015,
      "v": 100
    },
    {
      "midi": 63,
      "hit": false,
      "t": 280013.92453124904,
      "d": 506.62828125001397,
      "v": 100
    },
    {
      "midi": 48,
      "hit": false,
      "t": 280013.92453124904,
      "d": 1770.8315624999814,
      "v": 71
    },
    {
      "midi": 65,
      "hit": false,
      "t": 280458.99984374904,
      "d": 511.3631250000326,
      "v": 83
    },
    {
      "midi": 55,
      "hit": false,
      "t": 280904.07515624905,
      "d": 795.453749999986,
      "v": 61
    },
    {
      "midi": 67,
      "hit": false,
      "t": 280923.01453124906,
      "d": 525.5676562499721,
      "v": 91
    },
    {
      "midi": 63,
      "hit": false,
      "t": 281377.55953124905,
      "d": 397.726874999993,
      "v": 96
    },
    {
      "midi": 60,
      "hit": false,
      "t": 281794.225781249,
      "d": 1453.597031250014,
      "v": 105
    },
    {
      "midi": 53,
      "hit": false,
      "t": 281798.960624999,
      "d": 1751.8921875000233,
      "v": 83
    },
    {
      "midi": 58,
      "hit": false,
      "t": 283191.004687499,
      "d": 326.70421875000466,
      "v": 91
    },
    {
      "midi": 58,
      "hit": false,
      "t": 283640.81484374905,
      "d": 842.8021874999977,
      "v": 91
    },
    {
      "midi": 51,
      "hit": false,
      "t": 283640.81484374905,
      "d": 1709.278593749972,
      "v": 96
    },
    {
      "midi": 63,
      "hit": false,
      "t": 283645.54968749906,
      "d": 1041.665624999965,
      "v": 91
    },
    {
      "midi": 67,
      "hit": false,
      "t": 283645.54968749906,
      "d": 1089.0140624999767,
      "v": 105
    },
    {
      "midi": 58,
      "hit": false,
      "t": 284720.35921874904,
      "d": 1235.7942187499139,
      "v": 83
    },
    {
      "midi": 63,
      "hit": false,
      "t": 284980.775624999,
      "d": 369.3178124999977,
      "v": 61
    },
    {
      "midi": 67,
      "hit": false,
      "t": 285174.904218749,
      "d": 203.59828124998603,
      "v": 67
    },
    {
      "midi": 50,
      "hit": false,
      "t": 285416.381249999,
      "d": 743.3704687499558,
      "v": 87
    },
    {
      "midi": 65,
      "hit": false,
      "t": 285421.116093749,
      "d": 696.0220312499441,
      "v": 83
    },
    {
      "midi": 62,
      "hit": false,
      "t": 285430.585781249,
      "d": 530.3024999999907,
      "v": 87
    },
    {
      "midi": 60,
      "hit": false,
      "t": 286273.3879687489,
      "d": 478.2192187500186,
      "v": 91
    },
    {
      "midi": 63,
      "hit": false,
      "t": 286278.12281249894,
      "d": 487.6889062499977,
      "v": 83
    },
    {
      "midi": 48,
      "hit": false,
      "t": 286278.12281249894,
      "d": 511.3631249999744,
      "v": 87
    },
    {
      "midi": 53,
      "hit": false,
      "t": 287191.9476562489,
      "d": 4280.298750000016,
      "v": 58
    },
    {
      "midi": 46,
      "hit": false,
      "t": 287234.5612499989,
      "d": 4242.420000000042,
      "v": 75
    },
    {
      "midi": 58,
      "hit": false,
      "t": 287239.29609374894,
      "d": 4251.889687500021,
      "v": 79
    },
    {
      "midi": 62,
      "hit": false,
      "t": 287267.70515624894,
      "d": 4237.685156250023,
      "v": 91
    }
  ]
}