{
  "jsonPath": "Animes/Chobits MIDI Collection/touchy-subject.json",
  "path": "Animes\\Chobits MIDI Collection\\Touchy Subject.mid",
  "name": "Touchy Subject",
  "difficulty": "Advanced",
  "bpm": 115.00002875000719,
  "notes": [
    {
      "midi": 69,
      "hit": false,
      "t": 0,
      "d": 66.66666666666667,
      "v": 78
    },
    {
      "midi": 71,
      "hit": false,
      "t": 66.66666666666667,
      "d": 66.66666666666667,
      "v": 78
    },
    {
      "midi": 72,
      "hit": false,
      "t": 133.33333333333334,
      "d": 66.66666666666666,
      "v": 78
    },
    {
      "midi": 76,
      "hit": false,
      "t": 200,
      "d": 6200,
      "v": 78
    },
    {
      "midi": 88,
      "hit": false,
      "t": 1600,
      "d": 400,
      "v": 88
    },
    {
      "midi": 86,
      "hit": false,
      "t": 2000,
      "d": 400,
      "v": 88
    },
    {
      "midi": 84,
      "hit": false,
      "t": 2400,
      "d": 800,
      "v": 88
    },
    {
      "midi": 88,
      "hit": false,
      "t": 3200,
      "d": 800,
      "v": 88
    },
    {
      "midi": 84,
      "hit": false,
      "t": 4000,
      "d": 2400,
      "v": 88
    },
    {
      "midi": 67,
      "hit": false,
      "t": 6400,
      "d": 66.66666666666697,
      "v": 78
    },
    {
      "midi": 70,
      "hit": false,
      "t": 6466.666666666667,
      "d": 66.66666666666697,
      "v": 78
    },
    {
      "midi": 74,
      "hit": false,
      "t": 6533.333333333334,
      "d": 3066.666666666666,
      "v": 78
    },
    {
      "midi": 86,
      "hit": false,
      "t": 8000,
      "d": 400,
      "v": 88
    },
    {
      "midi": 88,
      "hit": false,
      "t": 8400,
      "d": 400,
      "v": 88
    },
    {
      "midi": 86,
      "hit": false,
      "t": 8800,
      "d": 800,
      "v": 88
    },
    {
      "midi": 81,
      "hit": false,
      "t": 9600,
      "d": 800,
      "v": 88
    },
    {
      "midi": 60,
      "hit": false,
      "t": 9600,
      "d": 46.66666666666606,
      "v": 78
    },
    {
      "midi": 70,
      "hit": false,
      "t": 9646.666666666666,
      "d": 46.66666666666606,
      "v": 78
    },
    {
      "midi": 72,
      "hit": false,
      "t": 9693.333333333332,
      "d": 3100,
      "v": 78
    },
    {
      "midi": 84,
      "hit": false,
      "t": 10400,
      "d": 2400,
      "v": 88
    },
    {
      "midi": 62,
      "hit": false,
      "t": 12799.999999999998,
      "d": 46.66666666666606,
      "v": 78
    },
    {
      "midi": 65,
      "hit": false,
      "t": 12846.666666666664,
      "d": 46.66666666666606,
      "v": 78
    },
    {
      "midi": 69,
      "hit": false,
      "t": 12893.33333333333,
      "d": 3100,
      "v": 78
    },
    {
      "midi": 77,
      "hit": false,
      "t": 14400,
      "d": 400,
      "v": 95
    },
    {
      "midi": 76,
      "hit": false,
      "t": 14800,
      "d": 400,
      "v": 97
    },
    {
      "midi": 77,
      "hit": false,
      "t": 15200,
      "d": 400,
      "v": 99
    },
    {
      "midi": 79,
      "hit": false,
      "t": 15600,
      "d": 400,
      "v": 101
    },
    {
      "midi": 62,
      "hit": false,
      "t": 15999.999999999996,
      "d": 33.33333333333394,
      "v": 78
    },
    {
      "midi": 80,
      "hit": false,
      "t": 16000,
      "d": 1600,
      "v": 103
    },
    {
      "midi": 65,
      "hit": false,
      "t": 16033.33333333333,
      "d": 33.33333333333394,
      "v": 78
    },
    {
      "midi": 68,
      "hit": false,
      "t": 16066.666666666664,
      "d": 33.33333333333394,
      "v": 78
    },
    {
      "midi": 60,
      "hit": false,
      "t": 16099.999999999998,
      "d": 3100.000000000002,
      "v": 78
    },
    {
      "midi": 80,
      "hit": false,
      "t": 17600,
      "d": 400,
      "v": 96
    },
    {
      "midi": 79,
      "hit": false,
      "t": 18000,
      "d": 400,
      "v": 94
    },
    {
      "midi": 77,
      "hit": false,
      "t": 18400,
      "d": 800,
      "v": 92
    },
    {
      "midi": 57,
      "hit": false,
      "t": 19200,
      "d": 33.33333333333212,
      "v": 78
    },
    {
      "midi": 60,
      "hit": false,
      "t": 19233.333333333332,
      "d": 33.33333333333212,
      "v": 78
    },
    {
      "midi": 64,
      "hit": false,
      "t": 19266.666666666664,
      "d": 2333.333333333332,
      "v": 78
    },
    {
      "midi": 72,
      "hit": false,
      "t": 20800,
      "d": 1600,
      "v": 88
    },
    {
      "midi": 64,
      "hit": false,
      "t": 21599.999999999996,
      "d": 800,
      "v": 78
    },
    {
      "midi": 69,
      "hit": false,
      "t": 22399.999999999996,
      "d": 66.66666666666788,
      "v": 78
    },
    {
      "midi": 66,
      "hit": false,
      "t": 22466.666666666664,
      "d": 66.66666666666788,
      "v": 78
    },
    {
      "midi": 74,
      "hit": false,
      "t": 22533.333333333332,
      "d": 3066.666666666668,
      "v": 78
    },
    {
      "midi": 86,
      "hit": false,
      "t": 24000,
      "d": 1600,
      "v": 88
    },
    {
      "midi": 57,
      "hit": false,
      "t": 25600,
      "d": 46.66666666666788,
      "v": 78
    },
    {
      "midi": 64,
      "hit": false,
      "t": 25646.666666666668,
      "d": 46.66666666666788,
      "v": 78
    },
    {
      "midi": 71,
      "hit": false,
      "t": 25693.333333333336,
      "d": 46.66666666666788,
      "v": 78
    },
    {
      "midi": 72,
      "hit": false,
      "t": 25740.000000000004,
      "d": 46.66666666666788,
      "v": 78
    },
    {
      "midi": 76,
      "hit": false,
      "t": 25786.66666666667,
      "d": 5400,
      "v": 78
    },
    {
      "midi": 88,
      "hit": false,
      "t": 27200,
      "d": 400,
      "v": 88
    },
    {
      "midi": 86,
      "hit": false,
      "t": 27600,
      "d": 400,
      "v": 88
    },
    {
      "midi": 84,
      "hit": false,
      "t": 28000,
      "d": 800,
      "v": 88
    },
    {
      "midi": 88,
      "hit": false,
      "t": 28800,
      "d": 800,
      "v": 88
    },
    {
      "midi": 84,
      "hit": false,
      "t": 29600,
      "d": 2400,
      "v": 88
    },
    {
      "midi": 57,
      "hit": false,
      "t": 31186.66666666667,
      "d": 800,
      "v": 78
    },
    {
      "midi": 55,
      "hit": false,
      "t": 32000.000000000004,
      "d": 46.66666666666788,
      "v": 78
    },
    {
      "midi": 65,
      "hit": false,
      "t": 32046.66666666667,
      "d": 46.66666666666788,
      "v": 78
    },
    {
      "midi": 67,
      "hit": false,
      "t": 32093.33333333334,
      "d": 46.66666666666788,
      "v": 78
    },
    {
      "midi": 70,
      "hit": false,
      "t": 32140.000000000007,
      "d": 46.66666666666788,
      "v": 78
    },
    {
      "midi": 74,
      "hit": false,
      "t": 32186.666666666675,
      "d": 2999.9999999999964,
      "v": 78
    },
    {
      "midi": 86,
      "hit": false,
      "t": 33600,
      "d": 400,
      "v": 88
    },
    {
      "midi": 88,
      "hit": false,
      "t": 34000,
      "d": 400,
      "v": 88
    },
    {
      "midi": 86,
      "hit": false,
      "t": 34400,
      "d": 800,
      "v": 88
    },
    {
      "midi": 81,
      "hit": false,
      "t": 35200,
      "d": 1600,
      "v": 88
    },
    {
      "midi": 60,
      "hit": false,
      "t": 35200.00000000001,
      "d": 40,
      "v": 78
    },
    {
      "midi": 70,
      "hit": false,
      "t": 35240.00000000001,
      "d": 40,
      "v": 78
    },
    {
      "midi": 72,
      "hit": false,
      "t": 35280.00000000001,
      "d": 40,
      "v": 78
    },
    {
      "midi": 76,
      "hit": false,
      "t": 35320.00000000001,
      "d": 2280,
      "v": 78
    },
    {
      "midi": 84,
      "hit": false,
      "t": 36800,
      "d": 1600,
      "v": 88
    },
    {
      "midi": 60,
      "hit": false,
      "t": 37600.00000000001,
      "d": 800,
      "v": 78
    },
    {
      "midi": 60,
      "hit": false,
      "t": 38400.00000000001,
      "d": 33.33333333333576,
      "v": 78
    },
    {
      "midi": 62,
      "hit": false,
      "t": 38433.33333333334,
      "d": 33.33333333333576,
      "v": 78
    },
    {
      "midi": 65,
      "hit": false,
      "t": 38466.66666666668,
      "d": 33.33333333333576,
      "v": 78
    },
    {
      "midi": 69,
      "hit": false,
      "t": 38500.000000000015,
      "d": 3100,
      "v": 78
    },
    {
      "midi": 77,
      "hit": false,
      "t": 40000,
      "d": 400,
      "v": 88
    },
    {
      "midi": 76,
      "hit": false,
      "t": 40400,
      "d": 400,
      "v": 93
    },
    {
      "midi": 77,
      "hit": false,
      "t": 40800,
      "d": 400,
      "v": 98
    },
    {
      "midi": 79,
      "hit": false,
      "t": 41200,
      "d": 400,
      "v": 103
    },
    {
      "midi": 80,
      "hit": false,
      "t": 41600,
      "d": 1600,
      "v": 108
    },
    {
      "midi": 61,
      "hit": false,
      "t": 41600.000000000015,
      "d": 46.66666666666424,
      "v": 78
    },
    {
      "midi": 68,
      "hit": false,
      "t": 41646.66666666668,
      "d": 46.66666666666424,
      "v": 78
    },
    {
      "midi": 73,
      "hit": false,
      "t": 41693.33333333334,
      "d": 46.66666666666424,
      "v": 78
    },
    {
      "midi": 77,
      "hit": false,
      "t": 41740.00000000001,
      "d": 3053.3333333333358,
      "v": 78
    },
    {
      "midi": 80,
      "hit": false,
      "t": 43200,
      "d": 400,
      "v": 98
    },
    {
      "midi": 79,
      "hit": false,
      "t": 43600,
      "d": 400,
      "v": 96
    },
    {
      "midi": 77,
      "hit": false,
      "t": 44000,
      "d": 800,
      "v": 93
    },
    {
      "midi": 76,
      "hit": false,
      "t": 44800,
      "d": 800,
      "v": 88
    },
    {
      "midi": 60,
      "hit": false,
      "t": 44800.00000000001,
      "d": 46.66666666666424,
      "v": 78
    },
    {
      "midi": 67,
      "hit": false,
      "t": 44846.66666666667,
      "d": 46.66666666666424,
      "v": 78
    },
    {
      "midi": 72,
      "hit": false,
      "t": 44893.333333333336,
      "d": 3100,
      "v": 78
    },
    {
      "midi": 84,
      "hit": false,
      "t": 45600,
      "d": 2400,
      "v": 88
    },
    {
      "midi": 74,
      "hit": false,
      "t": 48000,
      "d": 40,
      "v": 88
    },
    {
      "midi": 52,
      "hit": false,
      "t": 48000,
      "d": 800,
      "v": 78
    },
    {
      "midi": 76,
      "hit": false,
      "t": 48040,
      "d": 40,
      "v": 88
    },
    {
      "midi": 80,
      "hit": false,
      "t": 48080,
      "d": 40,
      "v": 88
    },
    {
      "midi": 84,
      "hit": false,
      "t": 48120,
      "d": 1480,
      "v": 88
    },
    {
      "midi": 59,
      "hit": false,
      "t": 48800,
      "d": 800,
      "v": 78
    },
    {
      "midi": 74,
      "hit": false,
      "t": 49600,
      "d": 1600,
      "v": 88
    },
    {
      "midi": 83,
      "hit": false,
      "t": 49600,
      "d": 1600,
      "v": 88
    },
    {
      "midi": 80,
      "hit": false,
      "t": 49600,
      "d": 1600,
      "v": 88
    },
    {
      "midi": 76,
      "hit": false,
      "t": 49600,
      "d": 1600,
      "v": 88
    },
    {
      "midi": 64,
      "hit": false,
      "t": 49600,
      "d": 800,
      "v": 78
    },
    {
      "midi": 74,
      "hit": false,
      "t": 50400,
      "d": 800,
      "v": 78
    },
    {
      "midi": 57,
      "hit": false,
      "t": 51200,
      "d": 3200,
      "v": 78
    },
    {
      "midi": 76,
      "hit": false,
      "t": 51200,
      "d": 3200,
      "v": 78
    },
    {
      "midi": 72,
      "hit": false,
      "t": 51200,
      "d": 3200,
      "v": 78
    },
    {
      "midi": 64,
      "hit": false,
      "t": 51200,
      "d": 3200,
      "v": 78
    },
    {
      "midi": 60,
      "hit": false,
      "t": 51200,
      "d": 3200,
      "v": 78
    },
    {
      "midi": 81,
      "hit": false,
      "t": 52000,
      "d": 400,
      "v": 88
    },
    {
      "midi": 83,
      "hit": false,
      "t": 52400,
      "d": 400,
      "v": 93
    },
    {
      "midi": 84,
      "hit": false,
      "t": 52800,
      "d": 800,
      "v": 98
    },
    {
      "midi": 81,
      "hit": false,
      "t": 53600,
      "d": 800,
      "v": 108
    },
    {
      "midi": 59,
      "hit": false,
      "t": 54400,
      "d": 3200,
      "v": 78
    },
    {
      "midi": 66,
      "hit": false,
      "t": 54400,
      "d": 3200,
      "v": 78
    },
    {
      "midi": 62,
      "hit": false,
      "t": 54400,
      "d": 3200,
      "v": 78
    },
    {
      "midi": 74,
      "hit": false,
      "t": 55200,
      "d": 800,
      "v": 103
    },
    {
      "midi": 78,
      "hit": false,
      "t": 56000,
      "d": 800,
      "v": 108
    },
    {
      "midi": 81,
      "hit": false,
      "t": 56800,
      "d": 800,
      "v": 113
    },
    {
      "midi": 64,
      "hit": false,
      "t": 57600,
      "d": 3200,
      "v": 78
    },
    {
      "midi": 71,
      "hit": false,
      "t": 57600,
      "d": 3200,
      "v": 78
    },
    {
      "midi": 67,
      "hit": false,
      "t": 57600,
      "d": 3200,
      "v": 78
    },
    {
      "midi": 79,
      "hit": false,
      "t": 58400,
      "d": 400,
      "v": 103
    },
    {
      "midi": 81,
      "hit": false,
      "t": 58800,
      "d": 400,
      "v": 105
    },
    {
      "midi": 83,
      "hit": false,
      "t": 59200,
      "d": 800,
      "v": 108
    },
    {
      "midi": 79,
      "hit": false,
      "t": 60000,
      "d": 800,
      "v": 113
    },
    {
      "midi": 64,
      "hit": false,
      "t": 60800,
      "d": 40,
      "v": 78
    },
    {
      "midi": 65,
      "hit": false,
      "t": 60840,
      "d": 40,
      "v": 78
    },
    {
      "midi": 69,
      "hit": false,
      "t": 60880,
      "d": 40,
      "v": 78
    },
    {
      "midi": 72,
      "hit": false,
      "t": 60920,
      "d": 40,
      "v": 78
    },
    {
      "midi": 76,
      "hit": false,
      "t": 60960,
      "d": 3040,
      "v": 78
    },
    {
      "midi": 84,
      "hit": false,
      "t": 61600,
      "d": 400,
      "v": 103
    },
    {
      "midi": 83,
      "hit": false,
      "t": 62000,
      "d": 400,
      "v": 105
    },
    {
      "midi": 81,
      "hit": false,
      "t": 62400,
      "d": 400,
      "v": 108
    },
    {
      "midi": 79,
      "hit": false,
      "t": 62800,
      "d": 400,
      "v": 110
    },
    {
      "midi": 81,
      "hit": false,
      "t": 63200,
      "d": 800,
      "v": 113
    },
    {
      "midi": 62,
      "hit": false,
      "t": 64000,
      "d": 3200,
      "v": 78
    },
    {
      "midi": 72,
      "hit": false,
      "t": 64000,
      "d": 3200,
      "v": 78
    },
    {
      "midi": 69,
      "hit": false,
      "t": 64000,
      "d": 3200,
      "v": 78
    },
    {
      "midi": 65,
      "hit": false,
      "t": 64000,
      "d": 3200,
      "v": 78
    },
    {
      "midi": 77,
      "hit": false,
      "t": 64800,
      "d": 400,
      "v": 103
    },
    {
      "midi": 79,
      "hit": false,
      "t": 65200,
      "d": 400,
      "v": 105
    },
    {
      "midi": 81,
      "hit": false,
      "t": 65600,
      "d": 800,
      "v": 108
    },
    {
      "midi": 77,
      "hit": false,
      "t": 66400,
      "d": 800,
      "v": 113
    },
    {
      "midi": 59,
      "hit": false,
      "t": 67200,
      "d": 20,
      "v": 78
    },
    {
      "midi": 62,
      "hit": false,
      "t": 67220,
      "d": 20,
      "v": 78
    },
    {
      "midi": 69,
      "hit": false,
      "t": 67240,
      "d": 3153.3333333333285,
      "v": 78
    },
    {
      "midi": 74,
      "hit": false,
      "t": 68000,
      "d": 800,
      "v": 103
    },
    {
      "midi": 78,
      "hit": false,
      "t": 68800,
      "d": 800,
      "v": 108
    },
    {
      "midi": 81,
      "hit": false,
      "t": 69600,
      "d": 800,
      "v": 113
    },
    {
      "midi": 86,
      "hit": false,
      "t": 70400,
      "d": 1600,
      "v": 73
    },
    {
      "midi": 52,
      "hit": false,
      "t": 70400,
      "d": 800,
      "v": 78
    },
    {
      "midi": 59,
      "hit": false,
      "t": 71200,
      "d": 800,
      "v": 78
    },
    {
      "midi": 74,
      "hit": false,
      "t": 72000,
      "d": 40,
      "v": 73
    },
    {
      "midi": 64,
      "hit": false,
      "t": 72000,
      "d": 800,
      "v": 78
    },
    {
      "midi": 76,
      "hit": false,
      "t": 72040,
      "d": 40,
      "v": 73
    },
    {
      "midi": 78,
      "hit": false,
      "t": 72080,
      "d": 40,
      "v": 73
    },
    {
      "midi": 83,
      "hit": false,
      "t": 72120,
      "d": 1480,
      "v": 73
    },
    {
      "midi": 71,
      "hit": false,
      "t": 72800,
      "d": 800,
      "v": 78
    },
    {
      "midi": 74,
      "hit": false,
      "t": 73600,
      "d": 1600,
      "v": 73
    },
    {
      "midi": 83,
      "hit": false,
      "t": 73600,
      "d": 1600,
      "v": 73
    },
    {
      "midi": 80,
      "hit": false,
      "t": 73600,
      "d": 1600,
      "v": 73
    },
    {
      "midi": 76,
      "hit": false,
      "t": 73600,
      "d": 1600,
      "v": 73
    },
    {
      "midi": 64,
      "hit": false,
      "t": 73600,
      "d": 3200,
      "v": 78
    },
    {
      "midi": 76,
      "hit": false,
      "t": 75200,
      "d": 800,
      "v": 80
    },
    {
      "midi": 71,
      "hit": false,
      "t": 76000,
      "d": 800,
      "v": 84
    },
    {
      "midi": 57,
      "hit": false,
      "t": 76800,
      "d": 1600,
      "v": 78
    },
    {
      "midi": 72,
      "hit": false,
      "t": 76800,
      "d": 1600,
      "v": 78
    },
    {
      "midi": 64,
      "hit": false,
      "t": 76800,
      "d": 1600,
      "v": 78
    },
    {
      "midi": 60,
      "hit": false,
      "t": 76800,
      "d": 1600,
      "v": 78
    },
    {
      "midi": 81,
      "hit": false,
      "t": 77600,
      "d": 400,
      "v": 88
    },
    {
      "midi": 83,
      "hit": false,
      "t": 78000,
      "d": 400,
      "v": 93
    },
    {
      "midi": 84,
      "hit": false,
      "t": 78400,
      "d": 800,
      "v": 98
    },
    {
      "midi": 76,
      "hit": false,
      "t": 78400,
      "d": 1600,
      "v": 78
    },
    {
      "midi": 81,
      "hit": false,
      "t": 79200,
      "d": 800,
      "v": 108
    },
    {
      "midi": 59,
      "hit": false,
      "t": 80000,
      "d": 1600,
      "v": 78
    },
    {
      "midi": 66,
      "hit": false,
      "t": 80000,
      "d": 1600,
      "v": 78
    },
    {
      "midi": 62,
      "hit": false,
      "t": 80000,
      "d": 1600,
      "v": 78
    },
    {
      "midi": 74,
      "hit": false,
      "t": 80800,
      "d": 800,
      "v": 103
    },
    {
      "midi": 78,
      "hit": false,
      "t": 81600,
      "d": 800,
      "v": 108
    },
    {
      "midi": 69,
      "hit": false,
      "t": 81600,
      "d": 1600,
      "v": 78
    },
    {
      "midi": 81,
      "hit": false,
      "t": 82400,
      "d": 800,
      "v": 113
    },
    {
      "midi": 64,
      "hit": false,
      "t": 83200,
      "d": 800,
      "v": 78
    },
    {
      "midi": 71,
      "hit": false,
      "t": 83200,
      "d": 800,
      "v": 78
    },
    {
      "midi": 67,
      "hit": false,
      "t": 83200,
      "d": 800,
      "v": 78
    },
    {
      "midi": 79,
      "hit": false,
      "t": 84000,
      "d": 400,
      "v": 103
    },
    {
      "midi": 76,
      "hit": false,
      "t": 84000,
      "d": 800,
      "v": 78
    },
    {
      "midi": 81,
      "hit": false,
      "t": 84400,
      "d": 400,
      "v": 105
    },
    {
      "midi": 83,
      "hit": false,
      "t": 84800,
      "d": 800,
      "v": 108
    },
    {
      "midi": 79,
      "hit": false,
      "t": 84800,
      "d": 1600,
      "v": 78
    },
    {
      "midi": 79,
      "hit": false,
      "t": 85600,
      "d": 800,
      "v": 113
    },
    {
      "midi": 64,
      "hit": false,
      "t": 86400,
      "d": 1600,
      "v": 78
    },
    {
      "midi": 72,
      "hit": false,
      "t": 86400,
      "d": 1600,
      "v": 78
    },
    {
      "midi": 69,
      "hit": false,
      "t": 86400,
      "d": 1600,
      "v": 78
    },
    {
      "midi": 65,
      "hit": false,
      "t": 86400,
      "d": 1600,
      "v": 78
    },
    {
      "midi": 84,
      "hit": false,
      "t": 87200,
      "d": 400,
      "v": 103
    },
    {
      "midi": 83,
      "hit": false,
      "t": 87600,
      "d": 400,
      "v": 105
    },
    {
      "midi": 81,
      "hit": false,
      "t": 88000,
      "d": 400,
      "v": 108
    },
    {
      "midi": 72,
      "hit": false,
      "t": 88000,
      "d": 1600,
      "v": 78
    },
    {
      "midi": 79,
      "hit": false,
      "t": 88400,
      "d": 400,
      "v": 110
    },
    {
      "midi": 81,
      "hit": false,
      "t": 88800,
      "d": 800,
      "v": 113
    },
    {
      "midi": 62,
      "hit": false,
      "t": 89600,
      "d": 800,
      "v": 78
    },
    {
      "midi": 69,
      "hit": false,
      "t": 89600,
      "d": 800,
      "v": 78
    },
    {
      "midi": 65,
      "hit": false,
      "t": 89600,
      "d": 800,
      "v": 78
    },
    {
      "midi": 77,
      "hit": false,
      "t": 90400,
      "d": 400,
      "v": 103
    },
    {
      "midi": 74,
      "hit": false,
      "t": 90400,
      "d": 800,
      "v": 78
    },
    {
      "midi": 79,
      "hit": false,
      "t": 90800,
      "d": 400,
      "v": 105
    },
    {
      "midi": 81,
      "hit": false,
      "t": 91200,
      "d": 800,
      "v": 108
    },
    {
      "midi": 72,
      "hit": false,
      "t": 91200,
      "d": 1600,
      "v": 78
    },
    {
      "midi": 77,
      "hit": false,
      "t": 92000,
      "d": 800,
      "v": 113
    },
    {
      "midi": 59,
      "hit": false,
      "t": 92800,
      "d": 3200,
      "v": 78
    },
    {
      "midi": 69,
      "hit": false,
      "t": 92800,
      "d": 3200,
      "v": 78
    },
    {
      "midi": 62,
      "hit": false,
      "t": 92800,
      "d": 3200,
      "v": 78
    },
    {
      "midi": 74,
      "hit": false,
      "t": 93600,
      "d": 800,
      "v": 103
    },
    {
      "midi": 78,
      "hit": false,
      "t": 94400,
      "d": 800,
      "v": 108
    },
    {
      "midi": 81,
      "hit": false,
      "t": 95200,
      "d": 800,
      "v": 113
    },
    {
      "midi": 86,
      "hit": false,
      "t": 96000,
      "d": 1600,
      "v": 88
    },
    {
      "midi": 52,
      "hit": false,
      "t": 96000,
      "d": 800,
      "v": 78
    },
    {
      "midi": 59,
      "hit": false,
      "t": 96800,
      "d": 800,
      "v": 78
    },
    {
      "midi": 83,
      "hit": false,
      "t": 97600,
      "d": 1600,
      "v": 93
    },
    {
      "midi": 68,
      "hit": false,
      "t": 97600,
      "d": 800,
      "v": 78
    },
    {
      "midi": 69,
      "hit": false,
      "t": 97600,
      "d": 800,
      "v": 78
    },
    {
      "midi": 69,
      "hit": false,
      "t": 98400,
      "d": 800,
      "v": 78
    },
    {
      "midi": 77,
      "hit": false,
      "t": 99200,
      "d": 3200,
      "v": 98
    },
    {
      "midi": 74,
      "hit": false,
      "t": 99200,
      "d": 3200,
      "v": 98
    },
    {
      "midi": 65,
      "hit": false,
      "t": 99200,
      "d": 2400,
      "v": 78
    },
    {
      "midi": 71,
      "hit": false,
      "t": 101600,
      "d": 400,
      "v": 78
    },
    {
      "midi": 76,
      "hit": false,
      "t": 102000,
      "d": 400,
      "v": 78
    },
    {
      "midi": 57,
      "hit": false,
      "t": 102400,
      "d": 4800,
      "v": 78
    },
    {
      "midi": 72,
      "hit": false,
      "t": 102400,
      "d": 4800,
      "v": 78
    },
    {
      "midi": 69,
      "hit": false,
      "t": 102400,
      "d": 4800,
      "v": 78
    },
    {
      "midi": 64,
      "hit": false,
      "t": 102400,
      "d": 4800,
      "v": 78
    },
    {
      "midi": 88,
      "hit": false,
      "t": 104000,
      "d": 400,
      "v": 108
    },
    {
      "midi": 86,
      "hit": false,
      "t": 104400,
      "d": 400,
      "v": 108
    },
    {
      "midi": 84,
      "hit": false,
      "t": 104800,
      "d": 800,
      "v": 108
    },
    {
      "midi": 88,
      "hit": false,
      "t": 105600,
      "d": 800,
      "v": 108
    },
    {
      "midi": 84,
      "hit": false,
      "t": 106400,
      "d": 2400,
      "v": 108
    },
    {
      "midi": 69,
      "hit": false,
      "t": 107200,
      "d": 66.66666666667152,
      "v": 78
    },
    {
      "midi": 72,
      "hit": false,
      "t": 107266.66666666667,
      "d": 66.66666666667152,
      "v": 78
    },
    {
      "midi": 76,
      "hit": false,
      "t": 107333.33333333334,
      "d": 1466.6666666666715,
      "v": 78
    },
    {
      "midi": 55,
      "hit": false,
      "t": 108800.00000000001,
      "d": 46.66666666667152,
      "v": 78
    },
    {
      "midi": 62,
      "hit": false,
      "t": 108846.66666666669,
      "d": 46.66666666667152,
      "v": 78
    },
    {
      "midi": 67,
      "hit": false,
      "t": 108893.33333333336,
      "d": 46.66666666667152,
      "v": 78
    },
    {
      "midi": 70,
      "hit": false,
      "t": 108940.00000000003,
      "d": 1453.3333333333285,
      "v": 78
    },
    {
      "midi": 67,
      "hit": false,
      "t": 110393.33333333336,
      "d": 20,
      "v": 78
    },
    {
      "midi": 86,
      "hit": false,
      "t": 110400,
      "d": 400,
      "v": 108
    },
    {
      "midi": 70,
      "hit": false,
      "t": 110413.33333333336,
      "d": 20,
      "v": 78
    },
    {
      "midi": 74,
      "hit": false,
      "t": 110433.33333333336,
      "d": 1553.3333333333285,
      "v": 78
    },
    {
      "midi": 88,
      "hit": false,
      "t": 110800,
      "d": 400,
      "v": 108
    },
    {
      "midi": 86,
      "hit": false,
      "t": 111200,
      "d": 800,
      "v": 108
    },
    {
      "midi": 81,
      "hit": false,
      "t": 112000,
      "d": 800,
      "v": 108
    },
    {
      "midi": 60,
      "hit": false,
      "t": 112000.00000000001,
      "d": 2400,
      "v": 78
    },
    {
      "midi": 76,
      "hit": false,
      "t": 112000.00000000001,
      "d": 2400,
      "v": 78
    },
    {
      "midi": 72,
      "hit": false,
      "t": 112000.00000000001,
      "d": 2400,
      "v": 78
    },
    {
      "midi": 70,
      "hit": false,
      "t": 112000.00000000001,
      "d": 2400,
      "v": 78
    },
    {
      "midi": 84,
      "hit": false,
      "t": 112800,
      "d": 2400,
      "v": 108
    },
    {
      "midi": 60,
      "hit": false,
      "t": 114400.00000000001,
      "d": 800,
      "v": 78
    },
    {
      "midi": 62,
      "hit": false,
      "t": 115200.00000000001,
      "d": 20,
      "v": 78
    },
    {
      "midi": 65,
      "hit": false,
      "t": 115220.00000000001,
      "d": 20,
      "v": 78
    },
    {
      "midi": 69,
      "hit": false,
      "t": 115240.00000000001,
      "d": 3153.3333333333285,
      "v": 78
    },
    {
      "midi": 77,
      "hit": false,
      "t": 116800,
      "d": 400,
      "v": 108
    },
    {
      "midi": 76,
      "hit": false,
      "t": 117200,
      "d": 400,
      "v": 113
    },
    {
      "midi": 77,
      "hit": false,
      "t": 117600,
      "d": 400,
      "v": 118
    },
    {
      "midi": 79,
      "hit": false,
      "t": 118000,
      "d": 400,
      "v": 123
    },
    {
      "midi": 80,
      "hit": false,
      "t": 118400,
      "d": 1600,
      "v": 127
    },
    {
      "midi": 62,
      "hit": false,
      "t": 118400.00000000001,
      "d": 33.33333333332848,
      "v": 78
    },
    {
      "midi": 68,
      "hit": false,
      "t": 118433.33333333334,
      "d": 33.33333333332848,
      "v": 78
    },
    {
      "midi": 72,
      "hit": false,
      "t": 118466.66666666667,
      "d": 33.33333333332848,
      "v": 78
    },
    {
      "midi": 74,
      "hit": false,
      "t": 118500,
      "d": 33.33333333332848,
      "v": 78
    },
    {
      "midi": 77,
      "hit": false,
      "t": 118533.33333333333,
      "d": 3066.6666666666715,
      "v": 78
    },
    {
      "midi": 80,
      "hit": false,
      "t": 120000,
      "d": 400,
      "v": 118
    },
    {
      "midi": 79,
      "hit": false,
      "t": 120400,
      "d": 400,
      "v": 116
    },
    {
      "midi": 77,
      "hit": false,
      "t": 120800,
      "d": 800,
      "v": 113
    },
    {
      "midi": 72,
      "hit": false,
      "t": 121600,
      "d": 2000,
      "v": 108
    },
    {
      "midi": 76,
      "hit": false,
      "t": 121600,
      "d": 2000,
      "v": 108
    },
    {
      "midi": 57,
      "hit": false,
      "t": 121600,
      "d": 800,
      "v": 78
    },
    {
      "midi": 64,
      "hit": false,
      "t": 122400,
      "d": 800,
      "v": 78
    },
    {
      "midi": 69,
      "hit": false,
      "t": 123200,
      "d": 1600,
      "v": 78
    },
    {
      "midi": 72,
      "hit": false,
      "t": 123600,
      "d": 400,
      "v": 108
    },
    {
      "midi": 84,
      "hit": false,
      "t": 124000,
      "d": 800,
      "v": 108
    },
    {
      "midi": 74,
      "hit": false,
      "t": 124800,
      "d": 100,
      "v": 108
    },
    {
      "midi": 57,
      "hit": false,
      "t": 124800,
      "d": 800,
      "v": 78
    },
    {
      "midi": 78,
      "hit": false,
      "t": 124900,
      "d": 100,
      "v": 108
    },
    {
      "midi": 86,
      "hit": false,
      "t": 125000,
      "d": 1400,
      "v": 108
    },
    {
      "midi": 66,
      "hit": false,
      "t": 125600,
      "d": 800,
      "v": 78
    },
    {
      "midi": 74,
      "hit": false,
      "t": 126400,
      "d": 1600,
      "v": 108
    },
    {
      "midi": 69,
      "hit": false,
      "t": 126400,
      "d": 1600,
      "v": 78
    },
    {
      "midi": 57,
      "hit": false,
      "t": 128000,
      "d": 4800,
      "v": 78
    },
    {
      "midi": 72,
      "hit": false,
      "t": 128000,
      "d": 4800,
      "v": 78
    },
    {
      "midi": 64,
      "hit": false,
      "t": 128000,
      "d": 4800,
      "v": 78
    },
    {
      "midi": 88,
      "hit": false,
      "t": 129600,
      "d": 400,
      "v": 108
    },
    {
      "midi": 86,
      "hit": false,
      "t": 130000,
      "d": 400,
      "v": 108
    },
    {
      "midi": 84,
      "hit": false,
      "t": 130400,
      "d": 800,
      "v": 108
    },
    {
      "midi": 88,
      "hit": false,
      "t": 131200,
      "d": 800,
      "v": 108
    },
    {
      "midi": 84,
      "hit": false,
      "t": 132000,
      "d": 2400,
      "v": 108
    },
    {
      "midi": 69,
      "hit": false,
      "t": 132800,
      "d": 1600,
      "v": 78
    },
    {
      "midi": 76,
      "hit": false,
      "t": 132800,
      "d": 1600,
      "v": 78
    },
    {
      "midi": 72,
      "hit": false,
      "t": 132800,
      "d": 1600,
      "v": 78
    },
    {
      "midi": 67,
      "hit": false,
      "t": 134400,
      "d": 3200,
      "v": 78
    },
    {
      "midi": 70,
      "hit": false,
      "t": 134400,
      "d": 3200,
      "v": 78
    },
    {
      "midi": 65,
      "hit": false,
      "t": 134400,
      "d": 3200,
      "v": 78
    },
    {
      "midi": 62,
      "hit": false,
      "t": 134400,
      "d": 3200,
      "v": 78
    },
    {
      "midi": 86,
      "hit": false,
      "t": 136000,
      "d": 400,
      "v": 108
    },
    {
      "midi": 88,
      "hit": false,
      "t": 136400,
      "d": 400,
      "v": 108
    },
    {
      "midi": 86,
      "hit": false,
      "t": 136800,
      "d": 800,
      "v": 108
    },
    {
      "midi": 81,
      "hit": false,
      "t": 137600,
      "d": 1600,
      "v": 108
    },
    {
      "midi": 60,
      "hit": false,
      "t": 137600,
      "d": 46.666666666656965,
      "v": 78
    },
    {
      "midi": 70,
      "hit": false,
      "t": 137646.66666666666,
      "d": 46.666666666656965,
      "v": 78
    },
    {
      "midi": 72,
      "hit": false,
      "t": 137693.3333333333,
      "d": 46.666666666656965,
      "v": 78
    },
    {
      "midi": 76,
      "hit": false,
      "t": 137739.99999999997,
      "d": 2253.333333333343,
      "v": 78
    },
    {
      "midi": 84,
      "hit": false,
      "t": 139200,
      "d": 1600,
      "v": 108
    },
    {
      "midi": 60,
      "hit": false,
      "t": 139993.3333333333,
      "d": 800,
      "v": 78
    },
    {
      "midi": 62,
      "hit": false,
      "t": 140799.99999999997,
      "d": 3200,
      "v": 78
    },
    {
      "midi": 69,
      "hit": false,
      "t": 140799.99999999997,
      "d": 3200,
      "v": 78
    },
    {
      "midi": 65,
      "hit": false,
      "t": 140799.99999999997,
      "d": 3200,
      "v": 78
    },
    {
      "midi": 77,
      "hit": false,
      "t": 142400,
      "d": 400,
      "v": 108
    },
    {
      "midi": 76,
      "hit": false,
      "t": 142800,
      "d": 400,
      "v": 113
    },
    {
      "midi": 77,
      "hit": false,
      "t": 143200,
      "d": 400,
      "v": 118
    },
    {
      "midi": 79,
      "hit": false,
      "t": 143600,
      "d": 400,
      "v": 123
    },
    {
      "midi": 62,
      "hit": false,
      "t": 143999.99999999997,
      "d": 40,
      "v": 78
    },
    {
      "midi": 80,
      "hit": false,
      "t": 144000,
      "d": 1600,
      "v": 127
    },
    {
      "midi": 68,
      "hit": false,
      "t": 144039.99999999997,
      "d": 40,
      "v": 78
    },
    {
      "midi": 72,
      "hit": false,
      "t": 144079.99999999997,
      "d": 40,
      "v": 78
    },
    {
      "midi": 74,
      "hit": false,
      "t": 144119.99999999997,
      "d": 40,
      "v": 78
    },
    {
      "midi": 77,
      "hit": false,
      "t": 144159.99999999997,
      "d": 3040,
      "v": 78
    },
    {
      "midi": 80,
      "hit": false,
      "t": 145600,
      "d": 400,
      "v": 118
    },
    {
      "midi": 79,
      "hit": false,
      "t": 146000,
      "d": 400,
      "v": 116
    },
    {
      "midi": 77,
      "hit": false,
      "t": 146400,
      "d": 800,
      "v": 113
    },
    {
      "midi": 60,
      "hit": false,
      "t": 147199.99999999997,
      "d": 46.666666666656965,
      "v": 78
    },
    {
      "midi": 76,
      "hit": false,
      "t": 147200,
      "d": 800,
      "v": 108
    },
    {
      "midi": 67,
      "hit": false,
      "t": 147246.66666666663,
      "d": 46.666666666656965,
      "v": 78
    },
    {
      "midi": 72,
      "hit": false,
      "t": 147293.33333333328,
      "d": 3100,
      "v": 78
    },
    {
      "midi": 84,
      "hit": false,
      "t": 148000,
      "d": 2400,
      "v": 103
    },
    {
      "midi": 52,
      "hit": false,
      "t": 150399.99999999994,
      "d": 800,
      "v": 78
    },
    {
      "midi": 74,
      "hit": false,
      "t": 150400,
      "d": 66.66666666665697,
      "v": 88
    },
    {
      "midi": 76,
      "hit": false,
      "t": 150466.66666666666,
      "d": 66.66666666665697,
      "v": 88
    },
    {
      "midi": 80,
      "hit": false,
      "t": 150533.3333333333,
      "d": 66.66666666665697,
      "v": 88
    },
    {
      "midi": 84,
      "hit": false,
      "t": 150599.99999999997,
      "d": 1400,
      "v": 88
    },
    {
      "midi": 59,
      "hit": false,
      "t": 151199.99999999994,
      "d": 800,
      "v": 78
    },
    {
      "midi": 64,
      "hit": false,
      "t": 151999.99999999994,
      "d": 800,
      "v": 78
    },
    {
      "midi": 74,
      "hit": false,
      "t": 151999.99999999997,
      "d": 1600,
      "v": 88
    },
    {
      "midi": 83,
      "hit": false,
      "t": 151999.99999999997,
      "d": 1600,
      "v": 88
    },
    {
      "midi": 80,
      "hit": false,
      "t": 151999.99999999997,
      "d": 1600,
      "v": 88
    },
    {
      "midi": 76,
      "hit": false,
      "t": 151999.99999999997,
      "d": 1600,
      "v": 88
    },
    {
      "midi": 74,
      "hit": false,
      "t": 152799.99999999994,
      "d": 800,
      "v": 78
    },
    {
      "midi": 57,
      "hit": false,
      "t": 153599.99999999994,
      "d": 800,
      "v": 78
    },
    {
      "midi": 64,
      "hit": false,
      "t": 154399.99999999994,
      "d": 800,
      "v": 78
    },
    {
      "midi": 69,
      "hit": false,
      "t": 155199.99999999994,
      "d": 800,
      "v": 78
    },
    {
      "midi": 76,
      "hit": false,
      "t": 155199.99999999994,
      "d": 800,
      "v": 78
    },
    {
      "midi": 71,
      "hit": false,
      "t": 155199.99999999994,
      "d": 800,
      "v": 78
    },
    {
      "midi": 72,
      "hit": false,
      "t": 155999.99999999994,
      "d": 800,
      "v": 78
    },
    {
      "midi": 84,
      "hit": false,
      "t": 156799.99999999994,
      "d": 100,
      "v": 78
    },
    {
      "midi": 88,
      "hit": false,
      "t": 156899.99999999994,
      "d": 6300,
      "v": 78
    }
  ]
}