{
  "jsonPath": "Animes/Chobits MIDI Collection/yasashisa-no-shouzou.json",
  "path": "Animes\\Chobits MIDI Collection\\Yasashisa no Shouzou.mid",
  "name": "Yasashisa no Shouzou",
  "difficulty": "Advanced",
  "bpm": 84.000084000084,
  "notes": [
    {
      "midi": 58,
      "hit": false,
      "t": 0,
      "d": 937.5,
      "v": 78
    },
    {
      "midi": 65,
      "hit": false,
      "t": 937.5,
      "d": 1875,
      "v": 78
    },
    {
      "midi": 74,
      "hit": false,
      "t": 937.5,
      "d": 1875,
      "v": 78
    },
    {
      "midi": 70,
      "hit": false,
      "t": 937.5,
      "d": 1875,
      "v": 78
    },
    {
      "midi": 69,
      "hit": false,
      "t": 937.5,
      "d": 1875,
      "v": 78
    },
    {
      "midi": 60,
      "hit": false,
      "t": 2812.5,
      "d": 937.5,
      "v": 78
    },
    {
      "midi": 64,
      "hit": false,
      "t": 3750,
      "d": 1875,
      "v": 78
    },
    {
      "midi": 74,
      "hit": false,
      "t": 3750,
      "d": 1875,
      "v": 78
    },
    {
      "midi": 69,
      "hit": false,
      "t": 3750,
      "d": 1875,
      "v": 78
    },
    {
      "midi": 67,
      "hit": false,
      "t": 3750,
      "d": 1875,
      "v": 78
    },
    {
      "midi": 58,
      "hit": false,
      "t": 5625,
      "d": 937.5,
      "v": 78
    },
    {
      "midi": 65,
      "hit": false,
      "t": 6562.5,
      "d": 1875,
      "v": 78
    },
    {
      "midi": 74,
      "hit": false,
      "t": 6562.5,
      "d": 1875,
      "v": 78
    },
    {
      "midi": 70,
      "hit": false,
      "t": 6562.5,
      "d": 1875,
      "v": 78
    },
    {
      "midi": 69,
      "hit": false,
      "t": 6562.5,
      "d": 1875,
      "v": 78
    },
    {
      "midi": 60,
      "hit": false,
      "t": 8437.5,
      "d": 937.5,
      "v": 78
    },
    {
      "midi": 64,
      "hit": false,
      "t": 9375,
      "d": 1875,
      "v": 78
    },
    {
      "midi": 74,
      "hit": false,
      "t": 9375,
      "d": 1875,
      "v": 78
    },
    {
      "midi": 69,
      "hit": false,
      "t": 9375,
      "d": 1875,
      "v": 78
    },
    {
      "midi": 67,
      "hit": false,
      "t": 9375,
      "d": 1875,
      "v": 78
    },
    {
      "midi": 81,
      "hit": false,
      "t": 10312.5,
      "d": 468.75,
      "v": 98
    },
    {
      "midi": 81,
      "hit": false,
      "t": 10781.25,
      "d": 468.75,
      "v": 98
    },
    {
      "midi": 81,
      "hit": false,
      "t": 11250,
      "d": 1406.25,
      "v": 98
    },
    {
      "midi": 58,
      "hit": false,
      "t": 11250,
      "d": 937.5,
      "v": 78
    },
    {
      "midi": 65,
      "hit": false,
      "t": 12187.5,
      "d": 1875,
      "v": 78
    },
    {
      "midi": 74,
      "hit": false,
      "t": 12187.5,
      "d": 1875,
      "v": 78
    },
    {
      "midi": 70,
      "hit": false,
      "t": 12187.5,
      "d": 1875,
      "v": 78
    },
    {
      "midi": 69,
      "hit": false,
      "t": 12187.5,
      "d": 1875,
      "v": 78
    },
    {
      "midi": 79,
      "hit": false,
      "t": 12656.25,
      "d": 468.75,
      "v": 98
    },
    {
      "midi": 79,
      "hit": false,
      "t": 13125,
      "d": 468.75,
      "v": 98
    },
    {
      "midi": 81,
      "hit": false,
      "t": 13593.75,
      "d": 468.75,
      "v": 98
    },
    {
      "midi": 79,
      "hit": false,
      "t": 14062.5,
      "d": 1875,
      "v": 98
    },
    {
      "midi": 60,
      "hit": false,
      "t": 14062.5,
      "d": 937.5,
      "v": 78
    },
    {
      "midi": 64,
      "hit": false,
      "t": 15000,
      "d": 1875,
      "v": 78
    },
    {
      "midi": 74,
      "hit": false,
      "t": 15000,
      "d": 1875,
      "v": 78
    },
    {
      "midi": 69,
      "hit": false,
      "t": 15000,
      "d": 1875,
      "v": 78
    },
    {
      "midi": 67,
      "hit": false,
      "t": 15000,
      "d": 1875,
      "v": 78
    },
    {
      "midi": 76,
      "hit": false,
      "t": 15937.5,
      "d": 468.75,
      "v": 98
    },
    {
      "midi": 77,
      "hit": false,
      "t": 16406.25,
      "d": 468.75,
      "v": 98
    },
    {
      "midi": 79,
      "hit": false,
      "t": 16875,
      "d": 937.5,
      "v": 98
    },
    {
      "midi": 57,
      "hit": false,
      "t": 16875,
      "d": 937.5,
      "v": 78
    },
    {
      "midi": 77,
      "hit": false,
      "t": 17812.5,
      "d": 937.5,
      "v": 98
    },
    {
      "midi": 64,
      "hit": false,
      "t": 17812.5,
      "d": 1875,
      "v": 78
    },
    {
      "midi": 72,
      "hit": false,
      "t": 17812.5,
      "d": 1875,
      "v": 78
    },
    {
      "midi": 69,
      "hit": false,
      "t": 17812.5,
      "d": 1875,
      "v": 78
    },
    {
      "midi": 67,
      "hit": false,
      "t": 17812.5,
      "d": 1875,
      "v": 78
    },
    {
      "midi": 76,
      "hit": false,
      "t": 18750,
      "d": 937.5,
      "v": 98
    },
    {
      "midi": 77,
      "hit": false,
      "t": 19687.5,
      "d": 1875,
      "v": 98
    },
    {
      "midi": 58,
      "hit": false,
      "t": 19687.5,
      "d": 937.5,
      "v": 78
    },
    {
      "midi": 65,
      "hit": false,
      "t": 20625,
      "d": 1875,
      "v": 78
    },
    {
      "midi": 74,
      "hit": false,
      "t": 20625,
      "d": 1875,
      "v": 78
    },
    {
      "midi": 70,
      "hit": false,
      "t": 20625,
      "d": 1875,
      "v": 78
    },
    {
      "midi": 69,
      "hit": false,
      "t": 20625,
      "d": 1875,
      "v": 78
    },
    {
      "midi": 81,
      "hit": false,
      "t": 21562.5,
      "d": 468.75,
      "v": 98
    },
    {
      "midi": 81,
      "hit": false,
      "t": 22031.25,
      "d": 468.75,
      "v": 98
    },
    {
      "midi": 81,
      "hit": false,
      "t": 22500,
      "d": 1406.25,
      "v": 98
    },
    {
      "midi": 58,
      "hit": false,
      "t": 22500,
      "d": 937.5,
      "v": 78
    },
    {
      "midi": 65,
      "hit": false,
      "t": 23437.5,
      "d": 1875,
      "v": 78
    },
    {
      "midi": 74,
      "hit": false,
      "t": 23437.5,
      "d": 1875,
      "v": 78
    },
    {
      "midi": 70,
      "hit": false,
      "t": 23437.5,
      "d": 1875,
      "v": 78
    },
    {
      "midi": 69,
      "hit": false,
      "t": 23437.5,
      "d": 1875,
      "v": 78
    },
    {
      "midi": 79,
      "hit": false,
      "t": 23906.25,
      "d": 468.75,
      "v": 98
    },
    {
      "midi": 79,
      "hit": false,
      "t": 24375,
      "d": 468.75,
      "v": 98
    },
    {
      "midi": 84,
      "hit": false,
      "t": 24843.75,
      "d": 468.75,
      "v": 98
    },
    {
      "midi": 79,
      "hit": false,
      "t": 25312.5,
      "d": 1875,
      "v": 98
    },
    {
      "midi": 60,
      "hit": false,
      "t": 25312.5,
      "d": 937.5,
      "v": 78
    },
    {
      "midi": 64,
      "hit": false,
      "t": 26250,
      "d": 1875,
      "v": 78
    },
    {
      "midi": 74,
      "hit": false,
      "t": 26250,
      "d": 1875,
      "v": 78
    },
    {
      "midi": 70,
      "hit": false,
      "t": 26250,
      "d": 1875,
      "v": 78
    },
    {
      "midi": 67,
      "hit": false,
      "t": 26250,
      "d": 1875,
      "v": 78
    },
    {
      "midi": 76,
      "hit": false,
      "t": 27187.5,
      "d": 468.75,
      "v": 98
    },
    {
      "midi": 77,
      "hit": false,
      "t": 27656.25,
      "d": 468.75,
      "v": 98
    },
    {
      "midi": 79,
      "hit": false,
      "t": 28125,
      "d": 937.5,
      "v": 98
    },
    {
      "midi": 51,
      "hit": false,
      "t": 28125,
      "d": 937.5,
      "v": 78
    },
    {
      "midi": 77,
      "hit": false,
      "t": 29062.5,
      "d": 937.5,
      "v": 98
    },
    {
      "midi": 63,
      "hit": false,
      "t": 29062.5,
      "d": 1875,
      "v": 78
    },
    {
      "midi": 74,
      "hit": false,
      "t": 29062.5,
      "d": 1875,
      "v": 78
    },
    {
      "midi": 70,
      "hit": false,
      "t": 29062.5,
      "d": 1875,
      "v": 78
    },
    {
      "midi": 67,
      "hit": false,
      "t": 29062.5,
      "d": 1875,
      "v": 78
    },
    {
      "midi": 79,
      "hit": false,
      "t": 30000,
      "d": 937.5,
      "v": 98
    },
    {
      "midi": 81,
      "hit": false,
      "t": 30937.5,
      "d": 1875,
      "v": 98
    },
    {
      "midi": 50,
      "hit": false,
      "t": 30937.5,
      "d": 937.5,
      "v": 78
    },
    {
      "midi": 62,
      "hit": false,
      "t": 31875,
      "d": 1875,
      "v": 78
    },
    {
      "midi": 74,
      "hit": false,
      "t": 31875,
      "d": 1875,
      "v": 78
    },
    {
      "midi": 72,
      "hit": false,
      "t": 31875,
      "d": 1875,
      "v": 78
    },
    {
      "midi": 69,
      "hit": false,
      "t": 31875,
      "d": 1875,
      "v": 78
    },
    {
      "midi": 81,
      "hit": false,
      "t": 32812.5,
      "d": 468.75,
      "v": 98
    },
    {
      "midi": 81,
      "hit": false,
      "t": 33281.25,
      "d": 468.75,
      "v": 98
    },
    {
      "midi": 74,
      "hit": false,
      "t": 33750,
      "d": 1406.25,
      "v": 98
    },
    {
      "midi": 81,
      "hit": false,
      "t": 33750,
      "d": 1406.25,
      "v": 98
    },
    {
      "midi": 58,
      "hit": false,
      "t": 33750,
      "d": 468.75,
      "v": 78
    },
    {
      "midi": 65,
      "hit": false,
      "t": 34218.75,
      "d": 468.75,
      "v": 78
    },
    {
      "midi": 69,
      "hit": false,
      "t": 34687.5,
      "d": 1875,
      "v": 78
    },
    {
      "midi": 79,
      "hit": false,
      "t": 35156.25,
      "d": 468.75,
      "v": 98
    },
    {
      "midi": 79,
      "hit": false,
      "t": 35625,
      "d": 468.75,
      "v": 98
    },
    {
      "midi": 81,
      "hit": false,
      "t": 36093.75,
      "d": 468.75,
      "v": 98
    },
    {
      "midi": 74,
      "hit": false,
      "t": 36562.5,
      "d": 1875,
      "v": 98
    },
    {
      "midi": 79,
      "hit": false,
      "t": 36562.5,
      "d": 1875,
      "v": 98
    },
    {
      "midi": 76,
      "hit": false,
      "t": 36562.5,
      "d": 1875,
      "v": 98
    },
    {
      "midi": 60,
      "hit": false,
      "t": 36562.5,
      "d": 468.75,
      "v": 78
    },
    {
      "midi": 67,
      "hit": false,
      "t": 37031.25,
      "d": 468.75,
      "v": 78
    },
    {
      "midi": 70,
      "hit": false,
      "t": 37500,
      "d": 1875,
      "v": 78
    },
    {
      "midi": 76,
      "hit": false,
      "t": 38437.5,
      "d": 468.75,
      "v": 98
    },
    {
      "midi": 77,
      "hit": false,
      "t": 38906.25,
      "d": 468.75,
      "v": 98
    },
    {
      "midi": 72,
      "hit": false,
      "t": 39375,
      "d": 937.5,
      "v": 98
    },
    {
      "midi": 79,
      "hit": false,
      "t": 39375,
      "d": 937.5,
      "v": 98
    },
    {
      "midi": 76,
      "hit": false,
      "t": 39375,
      "d": 937.5,
      "v": 98
    },
    {
      "midi": 57,
      "hit": false,
      "t": 39375,
      "d": 468.75,
      "v": 78
    },
    {
      "midi": 64,
      "hit": false,
      "t": 39843.75,
      "d": 468.75,
      "v": 78
    },
    {
      "midi": 72,
      "hit": false,
      "t": 40312.5,
      "d": 937.5,
      "v": 98
    },
    {
      "midi": 77,
      "hit": false,
      "t": 40312.5,
      "d": 937.5,
      "v": 98
    },
    {
      "midi": 67,
      "hit": false,
      "t": 40312.5,
      "d": 1875,
      "v": 78
    },
    {
      "midi": 76,
      "hit": false,
      "t": 41250,
      "d": 937.5,
      "v": 98
    },
    {
      "midi": 74,
      "hit": false,
      "t": 42187.5,
      "d": 1875,
      "v": 98
    },
    {
      "midi": 77,
      "hit": false,
      "t": 42187.5,
      "d": 1875,
      "v": 98
    },
    {
      "midi": 58,
      "hit": false,
      "t": 42187.5,
      "d": 468.75,
      "v": 78
    },
    {
      "midi": 65,
      "hit": false,
      "t": 42656.25,
      "d": 468.75,
      "v": 78
    },
    {
      "midi": 69,
      "hit": false,
      "t": 43125,
      "d": 468.75,
      "v": 78
    },
    {
      "midi": 70,
      "hit": false,
      "t": 43593.75,
      "d": 1406.25,
      "v": 78
    },
    {
      "midi": 81,
      "hit": false,
      "t": 44062.5,
      "d": 468.75,
      "v": 98
    },
    {
      "midi": 81,
      "hit": false,
      "t": 44531.25,
      "d": 468.75,
      "v": 98
    },
    {
      "midi": 74,
      "hit": false,
      "t": 45000,
      "d": 46.875,
      "v": 98
    },
    {
      "midi": 58,
      "hit": false,
      "t": 45000,
      "d": 468.75,
      "v": 78
    },
    {
      "midi": 77,
      "hit": false,
      "t": 45046.875,
      "d": 46.875,
      "v": 98
    },
    {
      "midi": 81,
      "hit": false,
      "t": 45093.75,
      "d": 1304.6875,
      "v": 98
    },
    {
      "midi": 65,
      "hit": false,
      "t": 45468.75,
      "d": 468.75,
      "v": 78
    },
    {
      "midi": 69,
      "hit": false,
      "t": 45937.5,
      "d": 1875,
      "v": 78
    },
    {
      "midi": 79,
      "hit": false,
      "t": 46398.4375,
      "d": 468.75,
      "v": 98
    },
    {
      "midi": 79,
      "hit": false,
      "t": 46867.1875,
      "d": 468.75,
      "v": 98
    },
    {
      "midi": 84,
      "hit": false,
      "t": 47335.9375,
      "d": 468.75,
      "v": 98
    },
    {
      "midi": 79,
      "hit": false,
      "t": 47812.5,
      "d": 1875,
      "v": 98
    },
    {
      "midi": 60,
      "hit": false,
      "t": 47812.5,
      "d": 468.75,
      "v": 78
    },
    {
      "midi": 67,
      "hit": false,
      "t": 48281.25,
      "d": 468.75,
      "v": 78
    },
    {
      "midi": 69,
      "hit": false,
      "t": 48750,
      "d": 468.75,
      "v": 78
    },
    {
      "midi": 74,
      "hit": false,
      "t": 49218.75,
      "d": 1406.25,
      "v": 78
    },
    {
      "midi": 76,
      "hit": false,
      "t": 49687.5,
      "d": 468.75,
      "v": 98
    },
    {
      "midi": 77,
      "hit": false,
      "t": 50156.25,
      "d": 468.75,
      "v": 98
    },
    {
      "midi": 70,
      "hit": false,
      "t": 50625,
      "d": 937.5,
      "v": 98
    },
    {
      "midi": 79,
      "hit": false,
      "t": 50625,
      "d": 937.5,
      "v": 98
    },
    {
      "midi": 74,
      "hit": false,
      "t": 50625,
      "d": 937.5,
      "v": 98
    },
    {
      "midi": 51,
      "hit": false,
      "t": 50625,
      "d": 468.75,
      "v": 78
    },
    {
      "midi": 58,
      "hit": false,
      "t": 51093.75,
      "d": 468.75,
      "v": 78
    },
    {
      "midi": 77,
      "hit": false,
      "t": 51562.5,
      "d": 937.5,
      "v": 98
    },
    {
      "midi": 65,
      "hit": false,
      "t": 51562.5,
      "d": 468.75,
      "v": 78
    },
    {
      "midi": 67,
      "hit": false,
      "t": 52031.25,
      "d": 1406.25,
      "v": 78
    },
    {
      "midi": 79,
      "hit": false,
      "t": 52500,
      "d": 937.5,
      "v": 98
    },
    {
      "midi": 72,
      "hit": false,
      "t": 53437.5,
      "d": 46.875,
      "v": 98
    },
    {
      "midi": 50,
      "hit": false,
      "t": 53437.5,
      "d": 468.75,
      "v": 78
    },
    {
      "midi": 76,
      "hit": false,
      "t": 53484.375,
      "d": 46.875,
      "v": 98
    },
    {
      "midi": 77,
      "hit": false,
      "t": 53531.25,
      "d": 46.875,
      "v": 98
    },
    {
      "midi": 81,
      "hit": false,
      "t": 53578.125,
      "d": 2656.25,
      "v": 98
    },
    {
      "midi": 57,
      "hit": false,
      "t": 53906.25,
      "d": 468.75,
      "v": 78
    },
    {
      "midi": 64,
      "hit": false,
      "t": 54375,
      "d": 468.75,
      "v": 78
    },
    {
      "midi": 65,
      "hit": false,
      "t": 54843.75,
      "d": 468.75,
      "v": 78
    },
    {
      "midi": 62,
      "hit": false,
      "t": 55312.5,
      "d": 937.5,
      "v": 78
    },
    {
      "midi": 48,
      "hit": false,
      "t": 56250,
      "d": 468.75,
      "v": 78
    },
    {
      "midi": 79,
      "hit": false,
      "t": 56718.75,
      "d": 468.75,
      "v": 98
    },
    {
      "midi": 55,
      "hit": false,
      "t": 56718.75,
      "d": 468.75,
      "v": 78
    },
    {
      "midi": 81,
      "hit": false,
      "t": 57187.5,
      "d": 468.75,
      "v": 98
    },
    {
      "midi": 62,
      "hit": false,
      "t": 57187.5,
      "d": 468.75,
      "v": 78
    },
    {
      "midi": 82,
      "hit": false,
      "t": 57656.25,
      "d": 468.75,
      "v": 98
    },
    {
      "midi": 63,
      "hit": false,
      "t": 57656.25,
      "d": 468.75,
      "v": 78
    },
    {
      "midi": 81,
      "hit": false,
      "t": 58125,
      "d": 468.75,
      "v": 98
    },
    {
      "midi": 67,
      "hit": false,
      "t": 58125,
      "d": 937.5,
      "v": 78
    },
    {
      "midi": 79,
      "hit": false,
      "t": 58593.75,
      "d": 468.75,
      "v": 98
    },
    {
      "midi": 84,
      "hit": false,
      "t": 59062.5,
      "d": 937.5,
      "v": 98
    },
    {
      "midi": 50,
      "hit": false,
      "t": 59062.5,
      "d": 468.75,
      "v": 78
    },
    {
      "midi": 57,
      "hit": false,
      "t": 59531.25,
      "d": 468.75,
      "v": 78
    },
    {
      "midi": 77,
      "hit": false,
      "t": 60000,
      "d": 1875,
      "v": 98
    },
    {
      "midi": 81,
      "hit": false,
      "t": 60000,
      "d": 1875,
      "v": 98
    },
    {
      "midi": 62,
      "hit": false,
      "t": 60000,
      "d": 468.75,
      "v": 78
    },
    {
      "midi": 64,
      "hit": false,
      "t": 60468.75,
      "d": 468.75,
      "v": 78
    },
    {
      "midi": 65,
      "hit": false,
      "t": 60937.5,
      "d": 937.5,
      "v": 78
    },
    {
      "midi": 48,
      "hit": false,
      "t": 61875,
      "d": 468.75,
      "v": 78
    },
    {
      "midi": 74,
      "hit": false,
      "t": 62343.75,
      "d": 468.75,
      "v": 98
    },
    {
      "midi": 79,
      "hit": false,
      "t": 62343.75,
      "d": 468.75,
      "v": 98
    },
    {
      "midi": 75,
      "hit": false,
      "t": 62343.75,
      "d": 468.75,
      "v": 98
    },
    {
      "midi": 55,
      "hit": false,
      "t": 62343.75,
      "d": 468.75,
      "v": 78
    },
    {
      "midi": 81,
      "hit": false,
      "t": 62812.5,
      "d": 468.75,
      "v": 98
    },
    {
      "midi": 62,
      "hit": false,
      "t": 62812.5,
      "d": 468.75,
      "v": 78
    },
    {
      "midi": 82,
      "hit": false,
      "t": 63281.25,
      "d": 468.75,
      "v": 98
    },
    {
      "midi": 63,
      "hit": false,
      "t": 63281.25,
      "d": 468.75,
      "v": 78
    },
    {
      "midi": 84,
      "hit": false,
      "t": 63750,
      "d": 468.75,
      "v": 98
    },
    {
      "midi": 67,
      "hit": false,
      "t": 63750,
      "d": 937.5,
      "v": 78
    },
    {
      "midi": 86,
      "hit": false,
      "t": 64218.75,
      "d": 468.75,
      "v": 98
    },
    {
      "midi": 74,
      "hit": false,
      "t": 64687.5,
      "d": 937.5,
      "v": 98
    },
    {
      "midi": 81,
      "hit": false,
      "t": 64687.5,
      "d": 937.5,
      "v": 98
    },
    {
      "midi": 77,
      "hit": false,
      "t": 64687.5,
      "d": 937.5,
      "v": 98
    },
    {
      "midi": 50,
      "hit": false,
      "t": 64687.5,
      "d": 468.75,
      "v": 78
    },
    {
      "midi": 57,
      "hit": false,
      "t": 65156.25,
      "d": 468.75,
      "v": 78
    },
    {
      "midi": 74,
      "hit": false,
      "t": 65625,
      "d": 1875,
      "v": 98
    },
    {
      "midi": 77,
      "hit": false,
      "t": 65625,
      "d": 1875,
      "v": 98
    },
    {
      "midi": 62,
      "hit": false,
      "t": 65625,
      "d": 468.75,
      "v": 78
    },
    {
      "midi": 65,
      "hit": false,
      "t": 66093.75,
      "d": 937.5,
      "v": 78
    },
    {
      "midi": 69,
      "hit": false,
      "t": 67031.25,
      "d": 468.75,
      "v": 78
    },
    {
      "midi": 48,
      "hit": false,
      "t": 67500,
      "d": 468.75,
      "v": 78
    },
    {
      "midi": 74,
      "hit": false,
      "t": 67968.75,
      "d": 468.75,
      "v": 98
    },
    {
      "midi": 79,
      "hit": false,
      "t": 67968.75,
      "d": 468.75,
      "v": 98
    },
    {
      "midi": 75,
      "hit": false,
      "t": 67968.75,
      "d": 468.75,
      "v": 98
    },
    {
      "midi": 55,
      "hit": false,
      "t": 67968.75,
      "d": 468.75,
      "v": 78
    },
    {
      "midi": 81,
      "hit": false,
      "t": 68437.5,
      "d": 468.75,
      "v": 98
    },
    {
      "midi": 62,
      "hit": false,
      "t": 68437.5,
      "d": 468.75,
      "v": 78
    },
    {
      "midi": 82,
      "hit": false,
      "t": 68906.25,
      "d": 468.75,
      "v": 98
    },
    {
      "midi": 63,
      "hit": false,
      "t": 68906.25,
      "d": 468.75,
      "v": 78
    },
    {
      "midi": 81,
      "hit": false,
      "t": 69375,
      "d": 468.75,
      "v": 98
    },
    {
      "midi": 67,
      "hit": false,
      "t": 69375,
      "d": 937.5,
      "v": 78
    },
    {
      "midi": 79,
      "hit": false,
      "t": 69843.75,
      "d": 468.75,
      "v": 98
    },
    {
      "midi": 75,
      "hit": false,
      "t": 70312.5,
      "d": 937.5,
      "v": 98
    },
    {
      "midi": 84,
      "hit": false,
      "t": 70312.5,
      "d": 937.5,
      "v": 98
    },
    {
      "midi": 81,
      "hit": false,
      "t": 70312.5,
      "d": 937.5,
      "v": 98
    },
    {
      "midi": 77,
      "hit": false,
      "t": 70312.5,
      "d": 937.5,
      "v": 98
    },
    {
      "midi": 53,
      "hit": false,
      "t": 70312.5,
      "d": 468.75,
      "v": 78
    },
    {
      "midi": 60,
      "hit": false,
      "t": 70781.25,
      "d": 468.75,
      "v": 78
    },
    {
      "midi": 75,
      "hit": false,
      "t": 71250,
      "d": 1406.25,
      "v": 98
    },
    {
      "midi": 81,
      "hit": false,
      "t": 71250,
      "d": 1406.25,
      "v": 98
    },
    {
      "midi": 77,
      "hit": false,
      "t": 71250,
      "d": 1406.25,
      "v": 98
    },
    {
      "midi": 63,
      "hit": false,
      "t": 71250,
      "d": 468.75,
      "v": 78
    },
    {
      "midi": 69,
      "hit": false,
      "t": 71718.75,
      "d": 468.75,
      "v": 78
    },
    {
      "midi": 75,
      "hit": false,
      "t": 72187.5,
      "d": 937.5,
      "v": 78
    },
    {
      "midi": 82,
      "hit": false,
      "t": 72656.25,
      "d": 468.75,
      "v": 98
    },
    {
      "midi": 74,
      "hit": false,
      "t": 73125,
      "d": 468.75,
      "v": 98
    },
    {
      "midi": 81,
      "hit": false,
      "t": 73125,
      "d": 468.75,
      "v": 98
    },
    {
      "midi": 77,
      "hit": false,
      "t": 73125,
      "d": 468.75,
      "v": 98
    },
    {
      "midi": 58,
      "hit": false,
      "t": 73125,
      "d": 468.75,
      "v": 78
    },
    {
      "midi": 69,
      "hit": false,
      "t": 73125,
      "d": 468.75,
      "v": 78
    },
    {
      "midi": 65,
      "hit": false,
      "t": 73125,
      "d": 468.75,
      "v": 78
    },
    {
      "midi": 74,
      "hit": false,
      "t": 73593.75,
      "d": 468.75,
      "v": 98
    },
    {
      "midi": 81,
      "hit": false,
      "t": 73593.75,
      "d": 468.75,
      "v": 98
    },
    {
      "midi": 77,
      "hit": false,
      "t": 73593.75,
      "d": 468.75,
      "v": 98
    },
    {
      "midi": 58,
      "hit": false,
      "t": 73593.75,
      "d": 468.75,
      "v": 78
    },
    {
      "midi": 69,
      "hit": false,
      "t": 73593.75,
      "d": 468.75,
      "v": 78
    },
    {
      "midi": 65,
      "hit": false,
      "t": 73593.75,
      "d": 468.75,
      "v": 78
    },
    {
      "midi": 74,
      "hit": false,
      "t": 74062.5,
      "d": 468.75,
      "v": 98
    },
    {
      "midi": 81,
      "hit": false,
      "t": 74062.5,
      "d": 468.75,
      "v": 98
    },
    {
      "midi": 77,
      "hit": false,
      "t": 74062.5,
      "d": 468.75,
      "v": 98
    },
    {
      "midi": 58,
      "hit": false,
      "t": 74062.5,
      "d": 468.75,
      "v": 78
    },
    {
      "midi": 69,
      "hit": false,
      "t": 74062.5,
      "d": 468.75,
      "v": 78
    },
    {
      "midi": 65,
      "hit": false,
      "t": 74062.5,
      "d": 468.75,
      "v": 78
    },
    {
      "midi": 74,
      "hit": false,
      "t": 74531.25,
      "d": 468.75,
      "v": 98
    },
    {
      "midi": 81,
      "hit": false,
      "t": 74531.25,
      "d": 468.75,
      "v": 98
    },
    {
      "midi": 77,
      "hit": false,
      "t": 74531.25,
      "d": 468.75,
      "v": 98
    },
    {
      "midi": 58,
      "hit": false,
      "t": 74531.25,
      "d": 468.75,
      "v": 78
    },
    {
      "midi": 69,
      "hit": false,
      "t": 74531.25,
      "d": 468.75,
      "v": 78
    },
    {
      "midi": 65,
      "hit": false,
      "t": 74531.25,
      "d": 468.75,
      "v": 78
    },
    {
      "midi": 74,
      "hit": false,
      "t": 75000,
      "d": 468.75,
      "v": 98
    },
    {
      "midi": 81,
      "hit": false,
      "t": 75000,
      "d": 468.75,
      "v": 98
    },
    {
      "midi": 77,
      "hit": false,
      "t": 75000,
      "d": 468.75,
      "v": 98
    },
    {
      "midi": 58,
      "hit": false,
      "t": 75000,
      "d": 468.75,
      "v": 78
    },
    {
      "midi": 69,
      "hit": false,
      "t": 75000,
      "d": 468.75,
      "v": 78
    },
    {
      "midi": 65,
      "hit": false,
      "t": 75000,
      "d": 468.75,
      "v": 78
    },
    {
      "midi": 74,
      "hit": false,
      "t": 75468.75,
      "d": 468.75,
      "v": 98
    },
    {
      "midi": 79,
      "hit": false,
      "t": 75468.75,
      "d": 468.75,
      "v": 98
    },
    {
      "midi": 58,
      "hit": false,
      "t": 75468.75,
      "d": 468.75,
      "v": 78
    },
    {
      "midi": 70,
      "hit": false,
      "t": 75468.75,
      "d": 468.75,
      "v": 78
    },
    {
      "midi": 67,
      "hit": false,
      "t": 75468.75,
      "d": 468.75,
      "v": 78
    },
    {
      "midi": 74,
      "hit": false,
      "t": 75937.5,
      "d": 2812.5,
      "v": 98
    },
    {
      "midi": 82,
      "hit": false,
      "t": 75937.5,
      "d": 2812.5,
      "v": 98
    },
    {
      "midi": 79,
      "hit": false,
      "t": 75937.5,
      "d": 2812.5,
      "v": 98
    },
    {
      "midi": 51,
      "hit": false,
      "t": 75937.5,
      "d": 468.75,
      "v": 78
    },
    {
      "midi": 58,
      "hit": false,
      "t": 76406.25,
      "d": 468.75,
      "v": 78
    },
    {
      "midi": 65,
      "hit": false,
      "t": 76875,
      "d": 937.5,
      "v": 78
    },
    {
      "midi": 77,
      "hit": false,
      "t": 76875,
      "d": 937.5,
      "v": 78
    },
    {
      "midi": 62,
      "hit": false,
      "t": 77812.5,
      "d": 937.5,
      "v": 78
    },
    {
      "midi": 74,
      "hit": false,
      "t": 77812.5,
      "d": 937.5,
      "v": 78
    },
    {
      "midi": 74,
      "hit": false,
      "t": 78750,
      "d": 468.75,
      "v": 98
    },
    {
      "midi": 81,
      "hit": false,
      "t": 78750,
      "d": 468.75,
      "v": 98
    },
    {
      "midi": 77,
      "hit": false,
      "t": 78750,
      "d": 468.75,
      "v": 98
    },
    {
      "midi": 58,
      "hit": false,
      "t": 78750,
      "d": 468.75,
      "v": 78
    },
    {
      "midi": 69,
      "hit": false,
      "t": 78750,
      "d": 468.75,
      "v": 78
    },
    {
      "midi": 65,
      "hit": false,
      "t": 78750,
      "d": 468.75,
      "v": 78
    },
    {
      "midi": 74,
      "hit": false,
      "t": 79218.75,
      "d": 468.75,
      "v": 98
    },
    {
      "midi": 81,
      "hit": false,
      "t": 79218.75,
      "d": 468.75,
      "v": 98
    },
    {
      "midi": 77,
      "hit": false,
      "t": 79218.75,
      "d": 468.75,
      "v": 98
    },
    {
      "midi": 58,
      "hit": false,
      "t": 79218.75,
      "d": 468.75,
      "v": 78
    },
    {
      "midi": 69,
      "hit": false,
      "t": 79218.75,
      "d": 468.75,
      "v": 78
    },
    {
      "midi": 65,
      "hit": false,
      "t": 79218.75,
      "d": 468.75,
      "v": 78
    },
    {
      "midi": 74,
      "hit": false,
      "t": 79687.5,
      "d": 468.75,
      "v": 98
    },
    {
      "midi": 81,
      "hit": false,
      "t": 79687.5,
      "d": 468.75,
      "v": 98
    },
    {
      "midi": 77,
      "hit": false,
      "t": 79687.5,
      "d": 468.75,
      "v": 98
    },
    {
      "midi": 58,
      "hit": false,
      "t": 79687.5,
      "d": 468.75,
      "v": 78
    },
    {
      "midi": 69,
      "hit": false,
      "t": 79687.5,
      "d": 468.75,
      "v": 78
    },
    {
      "midi": 65,
      "hit": false,
      "t": 79687.5,
      "d": 468.75,
      "v": 78
    },
    {
      "midi": 74,
      "hit": false,
      "t": 80156.25,
      "d": 468.75,
      "v": 98
    },
    {
      "midi": 81,
      "hit": false,
      "t": 80156.25,
      "d": 468.75,
      "v": 98
    },
    {
      "midi": 77,
      "hit": false,
      "t": 80156.25,
      "d": 468.75,
      "v": 98
    },
    {
      "midi": 58,
      "hit": false,
      "t": 80156.25,
      "d": 468.75,
      "v": 78
    },
    {
      "midi": 69,
      "hit": false,
      "t": 80156.25,
      "d": 468.75,
      "v": 78
    },
    {
      "midi": 65,
      "hit": false,
      "t": 80156.25,
      "d": 468.75,
      "v": 78
    },
    {
      "midi": 74,
      "hit": false,
      "t": 80625,
      "d": 468.75,
      "v": 98
    },
    {
      "midi": 81,
      "hit": false,
      "t": 80625,
      "d": 468.75,
      "v": 98
    },
    {
      "midi": 77,
      "hit": false,
      "t": 80625,
      "d": 468.75,
      "v": 98
    },
    {
      "midi": 58,
      "hit": false,
      "t": 80625,
      "d": 468.75,
      "v": 78
    },
    {
      "midi": 69,
      "hit": false,
      "t": 80625,
      "d": 468.75,
      "v": 78
    },
    {
      "midi": 65,
      "hit": false,
      "t": 80625,
      "d": 468.75,
      "v": 78
    },
    {
      "midi": 74,
      "hit": false,
      "t": 81093.75,
      "d": 468.75,
      "v": 98
    },
    {
      "midi": 80,
      "hit": false,
      "t": 81093.75,
      "d": 468.75,
      "v": 98
    },
    {
      "midi": 58,
      "hit": false,
      "t": 81093.75,
      "d": 468.75,
      "v": 78
    },
    {
      "midi": 68,
      "hit": false,
      "t": 81093.75,
      "d": 468.75,
      "v": 78
    },
    {
      "midi": 65,
      "hit": false,
      "t": 81093.75,
      "d": 468.75,
      "v": 78
    },
    {
      "midi": 74,
      "hit": false,
      "t": 81562.5,
      "d": 2812.5,
      "v": 98
    },
    {
      "midi": 70,
      "hit": false,
      "t": 81562.5,
      "d": 2812.5,
      "v": 98
    },
    {
      "midi": 79,
      "hit": false,
      "t": 81562.5,
      "d": 2812.5,
      "v": 98
    },
    {
      "midi": 51,
      "hit": false,
      "t": 81562.5,
      "d": 468.75,
      "v": 78
    },
    {
      "midi": 58,
      "hit": false,
      "t": 82031.25,
      "d": 468.75,
      "v": 78
    },
    {
      "midi": 65,
      "hit": false,
      "t": 82500,
      "d": 937.5,
      "v": 78
    },
    {
      "midi": 67,
      "hit": false,
      "t": 83437.5,
      "d": 937.5,
      "v": 78
    },
    {
      "midi": 74,
      "hit": false,
      "t": 84375,
      "d": 468.75,
      "v": 98
    },
    {
      "midi": 81,
      "hit": false,
      "t": 84375,
      "d": 468.75,
      "v": 98
    },
    {
      "midi": 77,
      "hit": false,
      "t": 84375,
      "d": 468.75,
      "v": 98
    },
    {
      "midi": 58,
      "hit": false,
      "t": 84375,
      "d": 468.75,
      "v": 78
    },
    {
      "midi": 69,
      "hit": false,
      "t": 84375,
      "d": 468.75,
      "v": 78
    },
    {
      "midi": 65,
      "hit": false,
      "t": 84375,
      "d": 468.75,
      "v": 78
    },
    {
      "midi": 74,
      "hit": false,
      "t": 84843.75,
      "d": 468.75,
      "v": 98
    },
    {
      "midi": 81,
      "hit": false,
      "t": 84843.75,
      "d": 468.75,
      "v": 98
    },
    {
      "midi": 77,
      "hit": false,
      "t": 84843.75,
      "d": 468.75,
      "v": 98
    },
    {
      "midi": 58,
      "hit": false,
      "t": 84843.75,
      "d": 468.75,
      "v": 78
    },
    {
      "midi": 69,
      "hit": false,
      "t": 84843.75,
      "d": 468.75,
      "v": 78
    },
    {
      "midi": 65,
      "hit": false,
      "t": 84843.75,
      "d": 468.75,
      "v": 78
    },
    {
      "midi": 74,
      "hit": false,
      "t": 85312.5,
      "d": 468.75,
      "v": 98
    },
    {
      "midi": 81,
      "hit": false,
      "t": 85312.5,
      "d": 468.75,
      "v": 98
    },
    {
      "midi": 77,
      "hit": false,
      "t": 85312.5,
      "d": 468.75,
      "v": 98
    },
    {
      "midi": 58,
      "hit": false,
      "t": 85312.5,
      "d": 468.75,
      "v": 78
    },
    {
      "midi": 69,
      "hit": false,
      "t": 85312.5,
      "d": 468.75,
      "v": 78
    },
    {
      "midi": 65,
      "hit": false,
      "t": 85312.5,
      "d": 468.75,
      "v": 78
    },
    {
      "midi": 74,
      "hit": false,
      "t": 85781.25,
      "d": 468.75,
      "v": 98
    },
    {
      "midi": 81,
      "hit": false,
      "t": 85781.25,
      "d": 468.75,
      "v": 98
    },
    {
      "midi": 77,
      "hit": false,
      "t": 85781.25,
      "d": 468.75,
      "v": 98
    },
    {
      "midi": 58,
      "hit": false,
      "t": 85781.25,
      "d": 468.75,
      "v": 78
    },
    {
      "midi": 69,
      "hit": false,
      "t": 85781.25,
      "d": 468.75,
      "v": 78
    },
    {
      "midi": 65,
      "hit": false,
      "t": 85781.25,
      "d": 468.75,
      "v": 78
    },
    {
      "midi": 74,
      "hit": false,
      "t": 86250,
      "d": 468.75,
      "v": 98
    },
    {
      "midi": 81,
      "hit": false,
      "t": 86250,
      "d": 468.75,
      "v": 98
    },
    {
      "midi": 77,
      "hit": false,
      "t": 86250,
      "d": 468.75,
      "v": 98
    },
    {
      "midi": 58,
      "hit": false,
      "t": 86250,
      "d": 468.75,
      "v": 78
    },
    {
      "midi": 69,
      "hit": false,
      "t": 86250,
      "d": 468.75,
      "v": 78
    },
    {
      "midi": 65,
      "hit": false,
      "t": 86250,
      "d": 468.75,
      "v": 78
    },
    {
      "midi": 74,
      "hit": false,
      "t": 86718.75,
      "d": 468.75,
      "v": 98
    },
    {
      "midi": 79,
      "hit": false,
      "t": 86718.75,
      "d": 468.75,
      "v": 98
    },
    {
      "midi": 58,
      "hit": false,
      "t": 86718.75,
      "d": 468.75,
      "v": 78
    },
    {
      "midi": 70,
      "hit": false,
      "t": 86718.75,
      "d": 468.75,
      "v": 78
    },
    {
      "midi": 67,
      "hit": false,
      "t": 86718.75,
      "d": 468.75,
      "v": 78
    },
    {
      "midi": 74,
      "hit": false,
      "t": 87187.5,
      "d": 2812.5,
      "v": 98
    },
    {
      "midi": 82,
      "hit": false,
      "t": 87187.5,
      "d": 2812.5,
      "v": 98
    },
    {
      "midi": 79,
      "hit": false,
      "t": 87187.5,
      "d": 2812.5,
      "v": 98
    },
    {
      "midi": 51,
      "hit": false,
      "t": 87187.5,
      "d": 468.75,
      "v": 78
    },
    {
      "midi": 58,
      "hit": false,
      "t": 87656.25,
      "d": 468.75,
      "v": 78
    },
    {
      "midi": 65,
      "hit": false,
      "t": 88125,
      "d": 937.5,
      "v": 78
    },
    {
      "midi": 77,
      "hit": false,
      "t": 88125,
      "d": 937.5,
      "v": 78
    },
    {
      "midi": 62,
      "hit": false,
      "t": 89062.5,
      "d": 937.5,
      "v": 78
    },
    {
      "midi": 74,
      "hit": false,
      "t": 89062.5,
      "d": 937.5,
      "v": 78
    },
    {
      "midi": 74,
      "hit": false,
      "t": 90000,
      "d": 468.75,
      "v": 98
    },
    {
      "midi": 81,
      "hit": false,
      "t": 90000,
      "d": 468.75,
      "v": 98
    },
    {
      "midi": 77,
      "hit": false,
      "t": 90000,
      "d": 468.75,
      "v": 98
    },
    {
      "midi": 58,
      "hit": false,
      "t": 90000,
      "d": 468.75,
      "v": 78
    },
    {
      "midi": 69,
      "hit": false,
      "t": 90000,
      "d": 468.75,
      "v": 78
    },
    {
      "midi": 65,
      "hit": false,
      "t": 90000,
      "d": 468.75,
      "v": 78
    },
    {
      "midi": 74,
      "hit": false,
      "t": 90468.75,
      "d": 468.75,
      "v": 98
    },
    {
      "midi": 81,
      "hit": false,
      "t": 90468.75,
      "d": 468.75,
      "v": 98
    },
    {
      "midi": 77,
      "hit": false,
      "t": 90468.75,
      "d": 468.75,
      "v": 98
    },
    {
      "midi": 58,
      "hit": false,
      "t": 90468.75,
      "d": 468.75,
      "v": 78
    },
    {
      "midi": 69,
      "hit": false,
      "t": 90468.75,
      "d": 468.75,
      "v": 78
    },
    {
      "midi": 65,
      "hit": false,
      "t": 90468.75,
      "d": 468.75,
      "v": 78
    },
    {
      "midi": 74,
      "hit": false,
      "t": 90937.5,
      "d": 468.75,
      "v": 98
    },
    {
      "midi": 81,
      "hit": false,
      "t": 90937.5,
      "d": 468.75,
      "v": 98
    },
    {
      "midi": 77,
      "hit": false,
      "t": 90937.5,
      "d": 468.75,
      "v": 98
    },
    {
      "midi": 58,
      "hit": false,
      "t": 90937.5,
      "d": 468.75,
      "v": 78
    },
    {
      "midi": 69,
      "hit": false,
      "t": 90937.5,
      "d": 468.75,
      "v": 78
    },
    {
      "midi": 65,
      "hit": false,
      "t": 90937.5,
      "d": 468.75,
      "v": 78
    },
    {
      "midi": 74,
      "hit": false,
      "t": 91406.25,
      "d": 468.75,
      "v": 98
    },
    {
      "midi": 81,
      "hit": false,
      "t": 91406.25,
      "d": 468.75,
      "v": 98
    },
    {
      "midi": 77,
      "hit": false,
      "t": 91406.25,
      "d": 468.75,
      "v": 98
    },
    {
      "midi": 58,
      "hit": false,
      "t": 91406.25,
      "d": 468.75,
      "v": 78
    },
    {
      "midi": 69,
      "hit": false,
      "t": 91406.25,
      "d": 468.75,
      "v": 78
    },
    {
      "midi": 65,
      "hit": false,
      "t": 91406.25,
      "d": 468.75,
      "v": 78
    },
    {
      "midi": 74,
      "hit": false,
      "t": 91875,
      "d": 468.75,
      "v": 98
    },
    {
      "midi": 81,
      "hit": false,
      "t": 91875,
      "d": 468.75,
      "v": 98
    },
    {
      "midi": 77,
      "hit": false,
      "t": 91875,
      "d": 468.75,
      "v": 98
    },
    {
      "midi": 58,
      "hit": false,
      "t": 91875,
      "d": 468.75,
      "v": 78
    },
    {
      "midi": 69,
      "hit": false,
      "t": 91875,
      "d": 468.75,
      "v": 78
    },
    {
      "midi": 65,
      "hit": false,
      "t": 91875,
      "d": 468.75,
      "v": 78
    },
    {
      "midi": 74,
      "hit": false,
      "t": 92343.75,
      "d": 468.75,
      "v": 98
    },
    {
      "midi": 80,
      "hit": false,
      "t": 92343.75,
      "d": 468.75,
      "v": 98
    },
    {
      "midi": 58,
      "hit": false,
      "t": 92343.75,
      "d": 468.75,
      "v": 78
    },
    {
      "midi": 68,
      "hit": false,
      "t": 92343.75,
      "d": 468.75,
      "v": 78
    },
    {
      "midi": 65,
      "hit": false,
      "t": 92343.75,
      "d": 468.75,
      "v": 78
    },
    {
      "midi": 74,
      "hit": false,
      "t": 92812.5,
      "d": 2812.5,
      "v": 98
    },
    {
      "midi": 70,
      "hit": false,
      "t": 92812.5,
      "d": 2812.5,
      "v": 98
    },
    {
      "midi": 79,
      "hit": false,
      "t": 92812.5,
      "d": 2812.5,
      "v": 98
    },
    {
      "midi": 51,
      "hit": false,
      "t": 92812.5,
      "d": 468.75,
      "v": 78
    },
    {
      "midi": 58,
      "hit": false,
      "t": 93281.25,
      "d": 468.75,
      "v": 78
    },
    {
      "midi": 65,
      "hit": false,
      "t": 93750,
      "d": 937.5,
      "v": 78
    },
    {
      "midi": 67,
      "hit": false,
      "t": 94687.5,
      "d": 937.5,
      "v": 78
    },
    {
      "midi": 65,
      "hit": false,
      "t": 95625,
      "d": 62.5,
      "v": 98
    },
    {
      "midi": 58,
      "hit": false,
      "t": 95625,
      "d": 2812.5,
      "v": 78
    },
    {
      "midi": 69,
      "hit": false,
      "t": 95687.5,
      "d": 62.5,
      "v": 98
    },
    {
      "midi": 70,
      "hit": false,
      "t": 95750,
      "d": 62.5,
      "v": 98
    },
    {
      "midi": 74,
      "hit": false,
      "t": 95812.5,
      "d": 2617.1875,
      "v": 98
    }
  ]
}