{
  "jsonPath": "Unknown/Unknown/Serge Devant feat Emma Hewitt/take-me-with-you-adam-k-soha-summer-dub.json",
  "path": "Unknown\\Unknown\\Serge Devant feat Emma Hewitt\\Take Me With You (Adam K  Soha Summer Dub).mid",
  "name": "Take Me With You (Adam K  Soha Summer Dub)",
  "difficulty": "Advanced",
  "bpm": 135.000135000135,
  "notes": [
    {
      "midi": 64,
      "hit": false,
      "t": 2666.664,
      "d": 4.629625000000033,
      "v": 127
    },
    {
      "midi": 76,
      "hit": false,
      "t": 2666.664,
      "d": 78.7036250000001,
      "v": 127
    },
    {
      "midi": 64,
      "hit": false,
      "t": 2888.8860000000004,
      "d": 9.259250000000065,
      "v": 127
    },
    {
      "midi": 76,
      "hit": false,
      "t": 2888.8860000000004,
      "d": 180.5553749999999,
      "v": 127
    },
    {
      "midi": 64,
      "hit": false,
      "t": 2898.1452500000005,
      "d": 171.29612499999985,
      "v": 127
    },
    {
      "midi": 63,
      "hit": false,
      "t": 3101.84875,
      "d": 9.259250000000065,
      "v": 127
    },
    {
      "midi": 75,
      "hit": false,
      "t": 3111.108,
      "d": 129.6295,
      "v": 127
    },
    {
      "midi": 63,
      "hit": false,
      "t": 3111.108,
      "d": 162.03687499999978,
      "v": 127
    },
    {
      "midi": 62,
      "hit": false,
      "t": 3333.33,
      "d": 4.629625000000033,
      "v": 127
    },
    {
      "midi": 74,
      "hit": false,
      "t": 3333.33,
      "d": 935.1842500000002,
      "v": 127
    },
    {
      "midi": 62,
      "hit": false,
      "t": 3337.959625,
      "d": 958.3323750000004,
      "v": 127
    },
    {
      "midi": 62,
      "hit": false,
      "t": 4439.810375,
      "d": 4.629624999999578,
      "v": 127
    },
    {
      "midi": 74,
      "hit": false,
      "t": 4444.44,
      "d": 92.59249999999975,
      "v": 127
    },
    {
      "midi": 62,
      "hit": false,
      "t": 4662.032375,
      "d": 4.629624999999578,
      "v": 127
    },
    {
      "midi": 62,
      "hit": false,
      "t": 4666.661999999999,
      "d": 236.1108749999994,
      "v": 127
    },
    {
      "midi": 74,
      "hit": false,
      "t": 4666.661999999999,
      "d": 259.2589999999991,
      "v": 127
    },
    {
      "midi": 61,
      "hit": false,
      "t": 4870.365499999999,
      "d": 18.51850000000013,
      "v": 127
    },
    {
      "midi": 73,
      "hit": false,
      "t": 4888.883999999999,
      "d": 143.51837499999965,
      "v": 127
    },
    {
      "midi": 61,
      "hit": false,
      "t": 4888.883999999999,
      "d": 157.4072499999993,
      "v": 127
    },
    {
      "midi": 60,
      "hit": false,
      "t": 5111.105999999998,
      "d": 4.629624999999578,
      "v": 127
    },
    {
      "midi": 72,
      "hit": false,
      "t": 5111.105999999998,
      "d": 236.1108749999994,
      "v": 127
    },
    {
      "midi": 55,
      "hit": false,
      "t": 5546.290749999997,
      "d": 9.259250000000065,
      "v": 127
    },
    {
      "midi": 67,
      "hit": false,
      "t": 5555.549999999997,
      "d": 171.29612499999985,
      "v": 127
    },
    {
      "midi": 55,
      "hit": false,
      "t": 5555.549999999997,
      "d": 185.1849999999995,
      "v": 127
    },
    {
      "midi": 56,
      "hit": false,
      "t": 5763.883124999997,
      "d": 453.70324999999957,
      "v": 127
    },
    {
      "midi": 68,
      "hit": false,
      "t": 5777.771999999996,
      "d": 333.33299999999963,
      "v": 127
    },
    {
      "midi": 58,
      "hit": false,
      "t": 5777.771999999996,
      "d": 351.85149999999976,
      "v": 127
    },
    {
      "midi": 52,
      "hit": false,
      "t": 6222.215999999996,
      "d": 4.629624999999578,
      "v": 127
    },
    {
      "midi": 76,
      "hit": false,
      "t": 6222.215999999996,
      "d": 101.85174999999981,
      "v": 127
    },
    {
      "midi": 83,
      "hit": false,
      "t": 6222.215999999996,
      "d": 185.1849999999995,
      "v": 127
    },
    {
      "midi": 80,
      "hit": false,
      "t": 6222.215999999996,
      "d": 217.59237499999927,
      "v": 127
    },
    {
      "midi": 52,
      "hit": false,
      "t": 6226.845624999995,
      "d": 356.48112499999934,
      "v": 127
    },
    {
      "midi": 76,
      "hit": false,
      "t": 6444.437999999995,
      "d": 152.77762499999972,
      "v": 127
    },
    {
      "midi": 64,
      "hit": false,
      "t": 6444.437999999995,
      "d": 226.85162499999933,
      "v": 127
    },
    {
      "midi": 85,
      "hit": false,
      "t": 6666.659999999994,
      "d": 217.59237499999927,
      "v": 127
    },
    {
      "midi": 80,
      "hit": false,
      "t": 6666.659999999994,
      "d": 226.85162499999842,
      "v": 127
    },
    {
      "midi": 56,
      "hit": false,
      "t": 6666.659999999994,
      "d": 425.92549999999846,
      "v": 127
    },
    {
      "midi": 76,
      "hit": false,
      "t": 6888.881999999993,
      "d": 92.59249999999975,
      "v": 127
    },
    {
      "midi": 68,
      "hit": false,
      "t": 6888.881999999993,
      "d": 189.81462499999998,
      "v": 127
    },
    {
      "midi": 83,
      "hit": false,
      "t": 7111.103999999993,
      "d": 166.66650000000027,
      "v": 127
    },
    {
      "midi": 80,
      "hit": false,
      "t": 7111.103999999993,
      "d": 245.37012500000037,
      "v": 127
    },
    {
      "midi": 59,
      "hit": false,
      "t": 7111.103999999993,
      "d": 370.3700000000008,
      "v": 127
    },
    {
      "midi": 76,
      "hit": false,
      "t": 7333.325999999994,
      "d": 41.66662499999984,
      "v": 127
    },
    {
      "midi": 71,
      "hit": false,
      "t": 7333.325999999994,
      "d": 398.1477500000001,
      "v": 127
    },
    {
      "midi": 76,
      "hit": false,
      "t": 7555.547999999993,
      "d": 69.44437500000004,
      "v": 127
    },
    {
      "midi": 61,
      "hit": false,
      "t": 7555.547999999993,
      "d": 356.48112500000025,
      "v": 127
    },
    {
      "midi": 73,
      "hit": false,
      "t": 7777.769999999994,
      "d": 166.66649999999936,
      "v": 127
    },
    {
      "midi": 76,
      "hit": false,
      "t": 7777.769999999994,
      "d": 319.444125,
      "v": 127
    },
    {
      "midi": 83,
      "hit": false,
      "t": 7777.769999999994,
      "d": 379.62924999999996,
      "v": 127
    },
    {
      "midi": 80,
      "hit": false,
      "t": 7777.769999999994,
      "d": 416.6662499999993,
      "v": 127
    },
    {
      "midi": 52,
      "hit": false,
      "t": 7999.991999999994,
      "d": 384.2588749999986,
      "v": 127
    },
    {
      "midi": 76,
      "hit": false,
      "t": 8222.213999999993,
      "d": 162.03687499999978,
      "v": 127
    },
    {
      "midi": 64,
      "hit": false,
      "t": 8222.213999999993,
      "d": 291.6663749999989,
      "v": 127
    },
    {
      "midi": 80,
      "hit": false,
      "t": 8444.435999999992,
      "d": 189.81462499999907,
      "v": 127
    },
    {
      "midi": 85,
      "hit": false,
      "t": 8444.435999999992,
      "d": 208.3331249999992,
      "v": 127
    },
    {
      "midi": 56,
      "hit": false,
      "t": 8444.435999999992,
      "d": 416.6662500000002,
      "v": 127
    },
    {
      "midi": 76,
      "hit": false,
      "t": 8666.657999999992,
      "d": 120.37024999999994,
      "v": 127
    },
    {
      "midi": 68,
      "hit": false,
      "t": 8666.657999999992,
      "d": 162.03687499999978,
      "v": 127
    },
    {
      "midi": 83,
      "hit": false,
      "t": 8888.879999999992,
      "d": 189.8146250000009,
      "v": 127
    },
    {
      "midi": 80,
      "hit": false,
      "t": 8888.879999999992,
      "d": 254.62937500000226,
      "v": 127
    },
    {
      "midi": 59,
      "hit": false,
      "t": 8888.879999999992,
      "d": 324.0737500000014,
      "v": 127
    },
    {
      "midi": 76,
      "hit": false,
      "t": 9111.101999999993,
      "d": 101.85174999999981,
      "v": 127
    },
    {
      "midi": 71,
      "hit": false,
      "t": 9111.101999999993,
      "d": 365.7403750000012,
      "v": 127
    },
    {
      "midi": 80,
      "hit": false,
      "t": 9333.323999999993,
      "d": 32.407375000000684,
      "v": 127
    },
    {
      "midi": 61,
      "hit": false,
      "t": 9333.323999999993,
      "d": 291.6663750000007,
      "v": 127
    },
    {
      "midi": 73,
      "hit": false,
      "t": 9555.545999999995,
      "d": 138.88874999999825,
      "v": 127
    },
    {
      "midi": 76,
      "hit": false,
      "t": 9555.545999999995,
      "d": 319.44412499999817,
      "v": 127
    },
    {
      "midi": 83,
      "hit": false,
      "t": 9555.545999999995,
      "d": 370.369999999999,
      "v": 127
    },
    {
      "midi": 80,
      "hit": false,
      "t": 9555.545999999995,
      "d": 421.2958749999998,
      "v": 127
    },
    {
      "midi": 52,
      "hit": false,
      "t": 9777.767999999993,
      "d": 4.629624999999578,
      "v": 127
    },
    {
      "midi": 52,
      "hit": false,
      "t": 9782.397624999992,
      "d": 356.48112500000207,
      "v": 127
    },
    {
      "midi": 76,
      "hit": false,
      "t": 9999.989999999994,
      "d": 157.4072500000002,
      "v": 127
    },
    {
      "midi": 64,
      "hit": false,
      "t": 9999.989999999994,
      "d": 226.85162499999933,
      "v": 127
    },
    {
      "midi": 80,
      "hit": false,
      "t": 10222.211999999994,
      "d": 166.66649999999936,
      "v": 127
    },
    {
      "midi": 85,
      "hit": false,
      "t": 10222.211999999994,
      "d": 203.70349999999962,
      "v": 127
    },
    {
      "midi": 56,
      "hit": false,
      "t": 10222.211999999994,
      "d": 425.9255000000012,
      "v": 127
    },
    {
      "midi": 76,
      "hit": false,
      "t": 10444.433999999994,
      "d": 115.74062500000036,
      "v": 127
    },
    {
      "midi": 68,
      "hit": false,
      "t": 10444.433999999994,
      "d": 189.8146250000009,
      "v": 127
    },
    {
      "midi": 83,
      "hit": false,
      "t": 10666.655999999995,
      "d": 157.4072500000002,
      "v": 127
    },
    {
      "midi": 80,
      "hit": false,
      "t": 10666.655999999995,
      "d": 217.59237500000017,
      "v": 127
    },
    {
      "midi": 59,
      "hit": false,
      "t": 10666.655999999995,
      "d": 370.369999999999,
      "v": 127
    },
    {
      "midi": 76,
      "hit": false,
      "t": 10888.877999999995,
      "d": 60.18512499999997,
      "v": 127
    },
    {
      "midi": 71,
      "hit": false,
      "t": 10888.877999999995,
      "d": 398.1477500000001,
      "v": 127
    },
    {
      "midi": 61,
      "hit": false,
      "t": 11111.099999999995,
      "d": 356.48112500000025,
      "v": 127
    },
    {
      "midi": 73,
      "hit": false,
      "t": 11333.321999999995,
      "d": 166.66650000000118,
      "v": 127
    },
    {
      "midi": 76,
      "hit": false,
      "t": 11333.321999999995,
      "d": 351.8515000000025,
      "v": 127
    },
    {
      "midi": 83,
      "hit": false,
      "t": 11333.321999999995,
      "d": 402.7773750000033,
      "v": 127
    },
    {
      "midi": 80,
      "hit": false,
      "t": 11333.321999999995,
      "d": 439.81437500000357,
      "v": 127
    },
    {
      "midi": 52,
      "hit": false,
      "t": 11555.543999999996,
      "d": 384.25887500000135,
      "v": 127
    },
    {
      "midi": 76,
      "hit": false,
      "t": 11777.765999999998,
      "d": 148.14799999999923,
      "v": 127
    },
    {
      "midi": 64,
      "hit": false,
      "t": 11777.765999999998,
      "d": 291.6663749999989,
      "v": 127
    },
    {
      "midi": 85,
      "hit": false,
      "t": 11999.987999999998,
      "d": 217.59237499999836,
      "v": 127
    },
    {
      "midi": 80,
      "hit": false,
      "t": 11999.987999999998,
      "d": 314.8144999999986,
      "v": 127
    },
    {
      "midi": 56,
      "hit": false,
      "t": 11999.987999999998,
      "d": 416.6662500000002,
      "v": 127
    },
    {
      "midi": 76,
      "hit": false,
      "t": 12222.209999999995,
      "d": 148.14800000000105,
      "v": 127
    },
    {
      "midi": 68,
      "hit": false,
      "t": 12222.209999999995,
      "d": 162.0368750000016,
      "v": 127
    },
    {
      "midi": 83,
      "hit": false,
      "t": 12444.431999999997,
      "d": 203.70349999999962,
      "v": 127
    },
    {
      "midi": 80,
      "hit": false,
      "t": 12444.431999999997,
      "d": 254.62937500000044,
      "v": 127
    },
    {
      "midi": 59,
      "hit": false,
      "t": 12444.431999999997,
      "d": 324.07374999999956,
      "v": 127
    },
    {
      "midi": 76,
      "hit": false,
      "t": 12666.653999999997,
      "d": 60.18512499999997,
      "v": 127
    },
    {
      "midi": 71,
      "hit": false,
      "t": 12666.653999999997,
      "d": 365.7403749999994,
      "v": 127
    },
    {
      "midi": 76,
      "hit": false,
      "t": 12888.875999999997,
      "d": 60.18512499999997,
      "v": 127
    },
    {
      "midi": 61,
      "hit": false,
      "t": 12888.875999999997,
      "d": 296.2960000000003,
      "v": 127
    },
    {
      "midi": 73,
      "hit": false,
      "t": 13111.097999999996,
      "d": 138.88875000000007,
      "v": 127
    },
    {
      "midi": 76,
      "hit": false,
      "t": 13111.097999999996,
      "d": 351.85149999999885,
      "v": 127
    },
    {
      "midi": 83,
      "hit": false,
      "t": 13111.097999999996,
      "d": 398.14774999999827,
      "v": 127
    },
    {
      "midi": 80,
      "hit": false,
      "t": 13111.097999999996,
      "d": 481.48099999999795,
      "v": 127
    },
    {
      "midi": 52,
      "hit": false,
      "t": 13333.319999999996,
      "d": 4.629624999999578,
      "v": 127
    },
    {
      "midi": 52,
      "hit": false,
      "t": 13337.949624999996,
      "d": 356.4811249999984,
      "v": 127
    },
    {
      "midi": 76,
      "hit": false,
      "t": 13555.541999999994,
      "d": 138.88875000000007,
      "v": 127
    },
    {
      "midi": 64,
      "hit": false,
      "t": 13555.541999999994,
      "d": 226.85162499999933,
      "v": 127
    },
    {
      "midi": 80,
      "hit": false,
      "t": 13777.763999999994,
      "d": 175.92575000000033,
      "v": 127
    },
    {
      "midi": 85,
      "hit": false,
      "t": 13777.763999999994,
      "d": 194.44425000000047,
      "v": 127
    },
    {
      "midi": 56,
      "hit": false,
      "t": 13777.763999999994,
      "d": 425.9255000000012,
      "v": 127
    },
    {
      "midi": 80,
      "hit": false,
      "t": 13999.985999999994,
      "d": 32.407375000000684,
      "v": 127
    },
    {
      "midi": 76,
      "hit": false,
      "t": 13999.985999999994,
      "d": 97.22212500000023,
      "v": 127
    },
    {
      "midi": 68,
      "hit": false,
      "t": 13999.985999999994,
      "d": 189.8146250000009,
      "v": 127
    },
    {
      "midi": 83,
      "hit": false,
      "t": 14222.207999999995,
      "d": 203.70349999999962,
      "v": 127
    },
    {
      "midi": 80,
      "hit": false,
      "t": 14222.207999999995,
      "d": 236.1108750000003,
      "v": 127
    },
    {
      "midi": 59,
      "hit": false,
      "t": 14222.207999999995,
      "d": 370.3700000000008,
      "v": 127
    },
    {
      "midi": 76,
      "hit": false,
      "t": 14444.429999999995,
      "d": 166.66650000000118,
      "v": 127
    },
    {
      "midi": 71,
      "hit": false,
      "t": 14444.429999999995,
      "d": 398.1477500000019,
      "v": 127
    },
    {
      "midi": 80,
      "hit": false,
      "t": 14666.651999999996,
      "d": 23.14812499999971,
      "v": 127
    },
    {
      "midi": 61,
      "hit": false,
      "t": 14666.651999999996,
      "d": 356.48112500000025,
      "v": 127
    },
    {
      "midi": 73,
      "hit": false,
      "t": 14888.873999999996,
      "d": 166.66650000000118,
      "v": 127
    },
    {
      "midi": 78,
      "hit": false,
      "t": 14888.873999999996,
      "d": 393.5181250000023,
      "v": 127
    },
    {
      "midi": 75,
      "hit": false,
      "t": 14888.873999999996,
      "d": 430.5551250000026,
      "v": 127
    },
    {
      "midi": 47,
      "hit": false,
      "t": 15111.095999999998,
      "d": 384.25887500000135,
      "v": 127
    },
    {
      "midi": 71,
      "hit": false,
      "t": 15333.318,
      "d": 134.2591250000005,
      "v": 127
    },
    {
      "midi": 59,
      "hit": false,
      "t": 15333.318,
      "d": 291.6663749999989,
      "v": 127
    },
    {
      "midi": 75,
      "hit": false,
      "t": 15555.539999999999,
      "d": 171.29612499999894,
      "v": 127
    },
    {
      "midi": 80,
      "hit": false,
      "t": 15555.539999999999,
      "d": 194.44424999999865,
      "v": 127
    },
    {
      "midi": 51,
      "hit": false,
      "t": 15555.539999999999,
      "d": 416.6662499999984,
      "v": 127
    },
    {
      "midi": 71,
      "hit": false,
      "t": 15777.761999999997,
      "d": 115.74062500000036,
      "v": 127
    },
    {
      "midi": 63,
      "hit": false,
      "t": 15777.761999999997,
      "d": 162.03687499999978,
      "v": 127
    },
    {
      "midi": 78,
      "hit": false,
      "t": 15999.983999999997,
      "d": 166.66649999999936,
      "v": 127
    },
    {
      "midi": 75,
      "hit": false,
      "t": 15999.983999999997,
      "d": 203.70349999999962,
      "v": 127
    },
    {
      "midi": 54,
      "hit": false,
      "t": 15999.983999999997,
      "d": 324.07374999999956,
      "v": 127
    },
    {
      "midi": 71,
      "hit": false,
      "t": 16222.205999999996,
      "d": 83.33324999999968,
      "v": 127
    },
    {
      "midi": 66,
      "hit": false,
      "t": 16222.205999999996,
      "d": 365.7403749999994,
      "v": 127
    },
    {
      "midi": 75,
      "hit": false,
      "t": 16444.427999999996,
      "d": 32.407374999998865,
      "v": 127
    },
    {
      "midi": 56,
      "hit": false,
      "t": 16444.427999999996,
      "d": 296.29599999999846,
      "v": 127
    },
    {
      "midi": 68,
      "hit": false,
      "t": 16666.649999999994,
      "d": 138.8887500000019,
      "v": 127
    },
    {
      "midi": 71,
      "hit": false,
      "t": 16666.649999999994,
      "d": 342.5922500000015,
      "v": 127
    },
    {
      "midi": 78,
      "hit": false,
      "t": 16666.649999999994,
      "d": 379.6292500000018,
      "v": 127
    },
    {
      "midi": 75,
      "hit": false,
      "t": 16666.649999999994,
      "d": 435.18475000000035,
      "v": 127
    },
    {
      "midi": 47,
      "hit": false,
      "t": 16888.871999999996,
      "d": 4.629625000001397,
      "v": 127
    },
    {
      "midi": 47,
      "hit": false,
      "t": 16893.501624999997,
      "d": 356.4811249999948,
      "v": 127
    },
    {
      "midi": 59,
      "hit": false,
      "t": 17111.093999999994,
      "d": 226.85162499999933,
      "v": 127
    },
    {
      "midi": 75,
      "hit": false,
      "t": 17333.31599999999,
      "d": 157.4072500000002,
      "v": 127
    },
    {
      "midi": 80,
      "hit": false,
      "t": 17333.31599999999,
      "d": 157.4072500000002,
      "v": 127
    },
    {
      "midi": 51,
      "hit": false,
      "t": 17333.31599999999,
      "d": 425.9255000000012,
      "v": 127
    },
    {
      "midi": 71,
      "hit": false,
      "t": 17555.537999999993,
      "d": 83.33324999999968,
      "v": 127
    },
    {
      "midi": 63,
      "hit": false,
      "t": 17555.537999999993,
      "d": 189.81462499999907,
      "v": 127
    },
    {
      "midi": 78,
      "hit": false,
      "t": 17777.75999999999,
      "d": 166.66649999999936,
      "v": 127
    },
    {
      "midi": 75,
      "hit": false,
      "t": 17777.75999999999,
      "d": 208.33312500000102,
      "v": 127
    },
    {
      "midi": 54,
      "hit": false,
      "t": 17777.75999999999,
      "d": 370.3700000000026,
      "v": 127
    },
    {
      "midi": 71,
      "hit": false,
      "t": 17999.981999999993,
      "d": 50.925875000000815,
      "v": 127
    },
    {
      "midi": 66,
      "hit": false,
      "t": 17999.981999999993,
      "d": 398.1477500000037,
      "v": 127
    },
    {
      "midi": 71,
      "hit": false,
      "t": 18222.203999999994,
      "d": 50.925875000000815,
      "v": 127
    },
    {
      "midi": 56,
      "hit": false,
      "t": 18222.203999999994,
      "d": 356.48112500000207,
      "v": 127
    },
    {
      "midi": 68,
      "hit": false,
      "t": 18444.425999999996,
      "d": 166.66649999999936,
      "v": 127
    },
    {
      "midi": 71,
      "hit": false,
      "t": 18444.425999999996,
      "d": 328.7033749999973,
      "v": 127
    },
    {
      "midi": 78,
      "hit": false,
      "t": 18444.425999999996,
      "d": 365.7403749999976,
      "v": 127
    },
    {
      "midi": 75,
      "hit": false,
      "t": 18444.425999999996,
      "d": 416.6662499999984,
      "v": 127
    },
    {
      "midi": 47,
      "hit": false,
      "t": 18666.647999999994,
      "d": 384.2588750000032,
      "v": 127
    },
    {
      "midi": 71,
      "hit": false,
      "t": 18888.869999999995,
      "d": 148.14800000000105,
      "v": 127
    },
    {
      "midi": 59,
      "hit": false,
      "t": 18888.869999999995,
      "d": 291.6663750000007,
      "v": 127
    },
    {
      "midi": 80,
      "hit": false,
      "t": 19111.091999999997,
      "d": 208.33312499999738,
      "v": 127
    },
    {
      "midi": 75,
      "hit": false,
      "t": 19111.091999999997,
      "d": 296.29599999999846,
      "v": 127
    },
    {
      "midi": 51,
      "hit": false,
      "t": 19111.091999999997,
      "d": 416.6662499999984,
      "v": 127
    },
    {
      "midi": 71,
      "hit": false,
      "t": 19333.313999999995,
      "d": 124.99987500000134,
      "v": 127
    },
    {
      "midi": 63,
      "hit": false,
      "t": 19333.313999999995,
      "d": 162.0368750000016,
      "v": 127
    },
    {
      "midi": 78,
      "hit": false,
      "t": 19555.535999999996,
      "d": 199.07387499999822,
      "v": 127
    },
    {
      "midi": 75,
      "hit": false,
      "t": 19555.535999999996,
      "d": 240.74049999999625,
      "v": 127
    },
    {
      "midi": 54,
      "hit": false,
      "t": 19555.535999999996,
      "d": 324.0737499999959,
      "v": 127
    },
    {
      "midi": 71,
      "hit": false,
      "t": 19777.757999999994,
      "d": 74.07399999999689,
      "v": 127
    },
    {
      "midi": 66,
      "hit": false,
      "t": 19777.757999999994,
      "d": 365.7403749999976,
      "v": 127
    },
    {
      "midi": 71,
      "hit": false,
      "t": 19999.979999999992,
      "d": 60.18512499999997,
      "v": 127
    },
    {
      "midi": 56,
      "hit": false,
      "t": 19999.979999999992,
      "d": 296.29599999999846,
      "v": 127
    },
    {
      "midi": 68,
      "hit": false,
      "t": 20222.20199999999,
      "d": 138.8887500000019,
      "v": 127
    },
    {
      "midi": 71,
      "hit": false,
      "t": 20222.20199999999,
      "d": 337.96262500000375,
      "v": 127
    },
    {
      "midi": 78,
      "hit": false,
      "t": 20222.20199999999,
      "d": 388.88850000000457,
      "v": 127
    },
    {
      "midi": 75,
      "hit": false,
      "t": 20222.20199999999,
      "d": 472.22175000000425,
      "v": 127
    },
    {
      "midi": 47,
      "hit": false,
      "t": 20444.42399999999,
      "d": 4.629625000001397,
      "v": 127
    },
    {
      "midi": 47,
      "hit": false,
      "t": 20449.053624999993,
      "d": 356.48112500000207,
      "v": 127
    },
    {
      "midi": 59,
      "hit": false,
      "t": 20666.645999999993,
      "d": 226.85162500000297,
      "v": 127
    },
    {
      "midi": 80,
      "hit": false,
      "t": 20888.867999999995,
      "d": 194.44425000000047,
      "v": 127
    },
    {
      "midi": 75,
      "hit": false,
      "t": 20888.867999999995,
      "d": 282.40712500000154,
      "v": 127
    },
    {
      "midi": 51,
      "hit": false,
      "t": 20888.867999999995,
      "d": 425.9255000000012,
      "v": 127
    },
    {
      "midi": 71,
      "hit": false,
      "t": 21111.089999999997,
      "d": 97.22212500000023,
      "v": 127
    },
    {
      "midi": 63,
      "hit": false,
      "t": 21111.089999999997,
      "d": 189.81462499999907,
      "v": 127
    },
    {
      "midi": 78,
      "hit": false,
      "t": 21333.311999999994,
      "d": 175.92574999999852,
      "v": 127
    },
    {
      "midi": 75,
      "hit": false,
      "t": 21333.311999999994,
      "d": 194.44424999999683,
      "v": 127
    },
    {
      "midi": 54,
      "hit": false,
      "t": 21333.311999999994,
      "d": 370.369999999999,
      "v": 127
    },
    {
      "midi": 66,
      "hit": false,
      "t": 21555.533999999992,
      "d": 398.1477500000001,
      "v": 127
    },
    {
      "midi": 78,
      "hit": false,
      "t": 21777.755999999994,
      "d": 50.925875000000815,
      "v": 127
    },
    {
      "midi": 75,
      "hit": false,
      "t": 21777.755999999994,
      "d": 60.18512499999997,
      "v": 127
    },
    {
      "midi": 56,
      "hit": false,
      "t": 21777.755999999994,
      "d": 356.4811249999984,
      "v": 127
    },
    {
      "midi": 68,
      "hit": false,
      "t": 21999.977999999992,
      "d": 166.66649999999936,
      "v": 127
    },
    {
      "midi": 83,
      "hit": false,
      "t": 21999.977999999992,
      "d": 421.29587499999616,
      "v": 127
    },
    {
      "midi": 80,
      "hit": false,
      "t": 21999.977999999992,
      "d": 439.81437499999447,
      "v": 127
    },
    {
      "midi": 52,
      "hit": false,
      "t": 22222.19999999999,
      "d": 384.25887499999953,
      "v": 127
    },
    {
      "midi": 76,
      "hit": false,
      "t": 22444.421999999988,
      "d": 148.14800000000105,
      "v": 127
    },
    {
      "midi": 64,
      "hit": false,
      "t": 22444.421999999988,
      "d": 291.6663750000007,
      "v": 127
    },
    {
      "midi": 80,
      "hit": false,
      "t": 22666.64399999999,
      "d": 143.51837499999965,
      "v": 127
    },
    {
      "midi": 85,
      "hit": false,
      "t": 22666.64399999999,
      "d": 203.70349999999962,
      "v": 127
    },
    {
      "midi": 56,
      "hit": false,
      "t": 22666.64399999999,
      "d": 416.66624999999476,
      "v": 127
    },
    {
      "midi": 76,
      "hit": false,
      "t": 22888.865999999987,
      "d": 92.59249999999884,
      "v": 127
    },
    {
      "midi": 68,
      "hit": false,
      "t": 22888.865999999987,
      "d": 162.03687499999796,
      "v": 127
    },
    {
      "midi": 83,
      "hit": false,
      "t": 23111.087999999985,
      "d": 171.29612500000076,
      "v": 127
    },
    {
      "midi": 80,
      "hit": false,
      "t": 23111.087999999985,
      "d": 217.59237500000017,
      "v": 127
    },
    {
      "midi": 59,
      "hit": false,
      "t": 23111.087999999985,
      "d": 324.07374999999956,
      "v": 127
    },
    {
      "midi": 76,
      "hit": false,
      "t": 23333.309999999987,
      "d": 46.29624999999942,
      "v": 127
    },
    {
      "midi": 71,
      "hit": false,
      "t": 23333.309999999987,
      "d": 365.7403749999976,
      "v": 127
    },
    {
      "midi": 61,
      "hit": false,
      "t": 23555.531999999985,
      "d": 296.29599999999846,
      "v": 127
    },
    {
      "midi": 73,
      "hit": false,
      "t": 23777.753999999983,
      "d": 138.8887500000019,
      "v": 127
    },
    {
      "midi": 76,
      "hit": false,
      "t": 23777.753999999983,
      "d": 356.48112500000207,
      "v": 127
    },
    {
      "midi": 83,
      "hit": false,
      "t": 23777.753999999983,
      "d": 402.7773750000015,
      "v": 127
    },
    {
      "midi": 80,
      "hit": false,
      "t": 23777.753999999983,
      "d": 472.22175000000425,
      "v": 127
    },
    {
      "midi": 52,
      "hit": false,
      "t": 23999.975999999984,
      "d": 4.629625000001397,
      "v": 127
    },
    {
      "midi": 52,
      "hit": false,
      "t": 24004.605624999986,
      "d": 356.48112500000207,
      "v": 127
    },
    {
      "midi": 76,
      "hit": false,
      "t": 24222.197999999986,
      "d": 138.8887500000019,
      "v": 127
    },
    {
      "midi": 64,
      "hit": false,
      "t": 24222.197999999986,
      "d": 226.85162500000297,
      "v": 127
    },
    {
      "midi": 80,
      "hit": false,
      "t": 24444.419999999987,
      "d": 162.0368750000016,
      "v": 127
    },
    {
      "midi": 85,
      "hit": false,
      "t": 24444.419999999987,
      "d": 194.44425000000047,
      "v": 127
    },
    {
      "midi": 56,
      "hit": false,
      "t": 24444.419999999987,
      "d": 425.9255000000012,
      "v": 127
    },
    {
      "midi": 80,
      "hit": false,
      "t": 24666.64199999999,
      "d": 37.03700000000026,
      "v": 127
    },
    {
      "midi": 76,
      "hit": false,
      "t": 24666.64199999999,
      "d": 143.51837499999965,
      "v": 127
    },
    {
      "midi": 68,
      "hit": false,
      "t": 24666.64199999999,
      "d": 189.81462499999907,
      "v": 127
    },
    {
      "midi": 83,
      "hit": false,
      "t": 24888.863999999987,
      "d": 166.66649999999936,
      "v": 127
    },
    {
      "midi": 80,
      "hit": false,
      "t": 24888.863999999987,
      "d": 240.74049999999625,
      "v": 127
    },
    {
      "midi": 59,
      "hit": false,
      "t": 24888.863999999987,
      "d": 370.36999999999534,
      "v": 127
    },
    {
      "midi": 71,
      "hit": false,
      "t": 25111.085999999985,
      "d": 398.14774999999645,
      "v": 127
    },
    {
      "midi": 61,
      "hit": false,
      "t": 25333.307999999983,
      "d": 356.4811249999984,
      "v": 127
    },
    {
      "midi": 73,
      "hit": false,
      "t": 25555.52999999998,
      "d": 166.66649999999936,
      "v": 127
    },
    {
      "midi": 76,
      "hit": false,
      "t": 25555.52999999998,
      "d": 342.5922499999979,
      "v": 127
    },
    {
      "midi": 83,
      "hit": false,
      "t": 25555.52999999998,
      "d": 388.8884999999973,
      "v": 127
    },
    {
      "midi": 80,
      "hit": false,
      "t": 25555.52999999998,
      "d": 430.55512499999895,
      "v": 127
    },
    {
      "midi": 52,
      "hit": false,
      "t": 25777.75199999998,
      "d": 384.25887499999953,
      "v": 127
    },
    {
      "midi": 76,
      "hit": false,
      "t": 25999.97399999998,
      "d": 152.7776249999988,
      "v": 127
    },
    {
      "midi": 64,
      "hit": false,
      "t": 25999.97399999998,
      "d": 291.66637499999706,
      "v": 127
    },
    {
      "midi": 85,
      "hit": false,
      "t": 26222.195999999978,
      "d": 199.07387499999822,
      "v": 127
    },
    {
      "midi": 80,
      "hit": false,
      "t": 26222.195999999978,
      "d": 296.29599999999846,
      "v": 127
    },
    {
      "midi": 56,
      "hit": false,
      "t": 26222.195999999978,
      "d": 416.6662499999984,
      "v": 127
    },
    {
      "midi": 76,
      "hit": false,
      "t": 26444.417999999976,
      "d": 120.37024999999994,
      "v": 127
    },
    {
      "midi": 68,
      "hit": false,
      "t": 26444.417999999976,
      "d": 162.0368750000016,
      "v": 127
    },
    {
      "midi": 83,
      "hit": false,
      "t": 26666.639999999978,
      "d": 171.29612500000076,
      "v": 127
    },
    {
      "midi": 80,
      "hit": false,
      "t": 26666.639999999978,
      "d": 222.22200000000157,
      "v": 127
    },
    {
      "midi": 59,
      "hit": false,
      "t": 26666.639999999978,
      "d": 324.0737500000032,
      "v": 127
    },
    {
      "midi": 76,
      "hit": false,
      "t": 26888.86199999998,
      "d": 60.18512499999997,
      "v": 127
    },
    {
      "midi": 71,
      "hit": false,
      "t": 26888.86199999998,
      "d": 365.7403750000012,
      "v": 127
    },
    {
      "midi": 76,
      "hit": false,
      "t": 27111.08399999998,
      "d": 55.555499999998574,
      "v": 127
    },
    {
      "midi": 61,
      "hit": false,
      "t": 27111.08399999998,
      "d": 296.29599999999846,
      "v": 127
    },
    {
      "midi": 73,
      "hit": false,
      "t": 27333.30599999998,
      "d": 138.8887500000019,
      "v": 127
    },
    {
      "midi": 76,
      "hit": false,
      "t": 27333.30599999998,
      "d": 370.3700000000026,
      "v": 127
    },
    {
      "midi": 83,
      "hit": false,
      "t": 27333.30599999998,
      "d": 421.29587500000343,
      "v": 127
    },
    {
      "midi": 80,
      "hit": false,
      "t": 27333.30599999998,
      "d": 458.3328750000037,
      "v": 127
    },
    {
      "midi": 52,
      "hit": false,
      "t": 27555.52799999998,
      "d": 4.629625000001397,
      "v": 127
    },
    {
      "midi": 52,
      "hit": false,
      "t": 27560.15762499998,
      "d": 356.48112500000207,
      "v": 127
    },
    {
      "midi": 76,
      "hit": false,
      "t": 27777.74999999998,
      "d": 138.8887500000019,
      "v": 127
    },
    {
      "midi": 64,
      "hit": false,
      "t": 27777.74999999998,
      "d": 226.85162500000297,
      "v": 127
    },
    {
      "midi": 85,
      "hit": false,
      "t": 27999.971999999983,
      "d": 185.1850000000013,
      "v": 127
    },
    {
      "midi": 80,
      "hit": false,
      "t": 27999.971999999983,
      "d": 226.85162500000297,
      "v": 127
    },
    {
      "midi": 56,
      "hit": false,
      "t": 27999.971999999983,
      "d": 425.92550000000483,
      "v": 127
    },
    {
      "midi": 76,
      "hit": false,
      "t": 28222.193999999985,
      "d": 106.48137500000303,
      "v": 127
    },
    {
      "midi": 68,
      "hit": false,
      "t": 28222.193999999985,
      "d": 189.8146250000027,
      "v": 127
    },
    {
      "midi": 59,
      "hit": false,
      "t": 28444.415999999987,
      "d": 370.369999999999,
      "v": 127
    },
    {
      "midi": 83,
      "hit": false,
      "t": 28444.415999999987,
      "d": 416.6662499999984,
      "v": 127
    },
    {
      "midi": 80,
      "hit": false,
      "t": 28444.415999999987,
      "d": 444.4439999999995,
      "v": 127
    },
    {
      "midi": 76,
      "hit": false,
      "t": 28666.637999999988,
      "d": 32.407374999998865,
      "v": 127
    },
    {
      "midi": 71,
      "hit": false,
      "t": 28666.637999999988,
      "d": 398.14774999999645,
      "v": 127
    },
    {
      "midi": 76,
      "hit": false,
      "t": 28888.859999999986,
      "d": 60.18512499999997,
      "v": 127
    },
    {
      "midi": 61,
      "hit": false,
      "t": 28888.859999999986,
      "d": 356.4811249999984,
      "v": 127
    },
    {
      "midi": 73,
      "hit": false,
      "t": 29111.081999999984,
      "d": 166.66649999999936,
      "v": 127
    },
    {
      "midi": 78,
      "hit": false,
      "t": 29111.081999999984,
      "d": 439.8143749999981,
      "v": 127
    },
    {
      "midi": 75,
      "hit": false,
      "t": 29111.081999999984,
      "d": 486.11062500000116,
      "v": 127
    },
    {
      "midi": 47,
      "hit": false,
      "t": 29333.303999999982,
      "d": 384.2588750000032,
      "v": 127
    },
    {
      "midi": 71,
      "hit": false,
      "t": 29555.525999999983,
      "d": 152.77762500000244,
      "v": 127
    },
    {
      "midi": 59,
      "hit": false,
      "t": 29555.525999999983,
      "d": 291.6663750000007,
      "v": 127
    },
    {
      "midi": 75,
      "hit": false,
      "t": 29777.747999999985,
      "d": 134.2591250000005,
      "v": 127
    },
    {
      "midi": 80,
      "hit": false,
      "t": 29777.747999999985,
      "d": 134.2591250000005,
      "v": 127
    },
    {
      "midi": 51,
      "hit": false,
      "t": 29777.747999999985,
      "d": 416.6662499999984,
      "v": 127
    },
    {
      "midi": 71,
      "hit": false,
      "t": 29999.969999999987,
      "d": 106.48137499999939,
      "v": 127
    },
    {
      "midi": 63,
      "hit": false,
      "t": 29999.969999999987,
      "d": 162.03687499999796,
      "v": 127
    },
    {
      "midi": 78,
      "hit": false,
      "t": 30222.191999999985,
      "d": 152.7776249999988,
      "v": 127
    },
    {
      "midi": 75,
      "hit": false,
      "t": 30222.191999999985,
      "d": 185.18499999999767,
      "v": 127
    },
    {
      "midi": 54,
      "hit": false,
      "t": 30222.191999999985,
      "d": 324.07374999999956,
      "v": 127
    },
    {
      "midi": 66,
      "hit": false,
      "t": 30444.413999999982,
      "d": 365.7403750000012,
      "v": 127
    },
    {
      "midi": 75,
      "hit": false,
      "t": 30666.635999999984,
      "d": 60.18512499999997,
      "v": 127
    },
    {
      "midi": 56,
      "hit": false,
      "t": 30666.635999999984,
      "d": 296.29599999999846,
      "v": 127
    },
    {
      "midi": 68,
      "hit": false,
      "t": 30888.857999999982,
      "d": 138.8887500000019,
      "v": 127
    },
    {
      "midi": 71,
      "hit": false,
      "t": 30888.857999999982,
      "d": 347.2218750000029,
      "v": 127
    },
    {
      "midi": 78,
      "hit": false,
      "t": 30888.857999999982,
      "d": 407.4070000000029,
      "v": 127
    },
    {
      "midi": 75,
      "hit": false,
      "t": 30888.857999999982,
      "d": 499.9995000000017,
      "v": 127
    },
    {
      "midi": 47,
      "hit": false,
      "t": 31111.079999999984,
      "d": 4.629625000001397,
      "v": 127
    },
    {
      "midi": 47,
      "hit": false,
      "t": 31115.709624999985,
      "d": 356.4811249999984,
      "v": 127
    },
    {
      "midi": 71,
      "hit": false,
      "t": 31333.301999999985,
      "d": 111.11099999999715,
      "v": 127
    },
    {
      "midi": 59,
      "hit": false,
      "t": 31333.301999999985,
      "d": 226.85162499999933,
      "v": 127
    },
    {
      "midi": 75,
      "hit": false,
      "t": 31555.523999999983,
      "d": 171.29612500000076,
      "v": 127
    },
    {
      "midi": 80,
      "hit": false,
      "t": 31555.523999999983,
      "d": 180.5553749999999,
      "v": 127
    },
    {
      "midi": 51,
      "hit": false,
      "t": 31555.523999999983,
      "d": 425.92550000000483,
      "v": 127
    },
    {
      "midi": 75,
      "hit": false,
      "t": 31777.745999999985,
      "d": 74.07400000000052,
      "v": 127
    },
    {
      "midi": 71,
      "hit": false,
      "t": 31777.745999999985,
      "d": 124.99987500000134,
      "v": 127
    },
    {
      "midi": 63,
      "hit": false,
      "t": 31777.745999999985,
      "d": 189.8146250000027,
      "v": 127
    },
    {
      "midi": 78,
      "hit": false,
      "t": 31999.967999999986,
      "d": 175.92574999999852,
      "v": 127
    },
    {
      "midi": 75,
      "hit": false,
      "t": 31999.967999999986,
      "d": 208.33312499999738,
      "v": 127
    },
    {
      "midi": 54,
      "hit": false,
      "t": 31999.967999999986,
      "d": 370.36999999999534,
      "v": 127
    },
    {
      "midi": 71,
      "hit": false,
      "t": 32222.189999999984,
      "d": 69.44437499999913,
      "v": 127
    },
    {
      "midi": 66,
      "hit": false,
      "t": 32222.189999999984,
      "d": 398.14774999999645,
      "v": 127
    },
    {
      "midi": 75,
      "hit": false,
      "t": 32444.411999999982,
      "d": 32.407374999998865,
      "v": 127
    },
    {
      "midi": 56,
      "hit": false,
      "t": 32444.411999999982,
      "d": 356.4811249999984,
      "v": 127
    },
    {
      "midi": 68,
      "hit": false,
      "t": 32666.63399999998,
      "d": 166.666500000003,
      "v": 127
    },
    {
      "midi": 71,
      "hit": false,
      "t": 32666.63399999998,
      "d": 337.96262500000375,
      "v": 127
    },
    {
      "midi": 78,
      "hit": false,
      "t": 32666.63399999998,
      "d": 388.88850000000457,
      "v": 127
    },
    {
      "midi": 75,
      "hit": false,
      "t": 32666.63399999998,
      "d": 425.9255000000012,
      "v": 127
    },
    {
      "midi": 47,
      "hit": false,
      "t": 32888.855999999985,
      "d": 384.25887499999953,
      "v": 127
    },
    {
      "midi": 71,
      "hit": false,
      "t": 33111.07799999998,
      "d": 152.77762500000244,
      "v": 127
    },
    {
      "midi": 59,
      "hit": false,
      "t": 33111.07799999998,
      "d": 291.666375000008,
      "v": 127
    },
    {
      "midi": 80,
      "hit": false,
      "t": 33333.29999999999,
      "d": 199.07387500000186,
      "v": 127
    },
    {
      "midi": 75,
      "hit": false,
      "t": 33333.29999999999,
      "d": 291.6663750000007,
      "v": 127
    },
    {
      "midi": 51,
      "hit": false,
      "t": 33333.29999999999,
      "d": 416.66625000000204,
      "v": 127
    },
    {
      "midi": 71,
      "hit": false,
      "t": 33555.52199999999,
      "d": 124.99987500000134,
      "v": 127
    },
    {
      "midi": 63,
      "hit": false,
      "t": 33555.52199999999,
      "d": 162.03687499999796,
      "v": 127
    },
    {
      "midi": 78,
      "hit": false,
      "t": 33777.74399999999,
      "d": 171.29612500000076,
      "v": 127
    },
    {
      "midi": 75,
      "hit": false,
      "t": 33777.74399999999,
      "d": 212.96274999999878,
      "v": 127
    },
    {
      "midi": 54,
      "hit": false,
      "t": 33777.74399999999,
      "d": 324.0737499999959,
      "v": 127
    },
    {
      "midi": 71,
      "hit": false,
      "t": 33999.96599999999,
      "d": 64.81474999999773,
      "v": 127
    },
    {
      "midi": 66,
      "hit": false,
      "t": 33999.96599999999,
      "d": 365.74037499999395,
      "v": 127
    },
    {
      "midi": 75,
      "hit": false,
      "t": 34222.18799999999,
      "d": 41.66662499999802,
      "v": 127
    },
    {
      "midi": 56,
      "hit": false,
      "t": 34222.18799999999,
      "d": 296.2960000000021,
      "v": 127
    },
    {
      "midi": 68,
      "hit": false,
      "t": 34444.40999999999,
      "d": 138.88874999999825,
      "v": 127
    },
    {
      "midi": 71,
      "hit": false,
      "t": 34444.40999999999,
      "d": 328.7033750000046,
      "v": 127
    },
    {
      "midi": 78,
      "hit": false,
      "t": 34444.40999999999,
      "d": 356.4811250000057,
      "v": 127
    },
    {
      "midi": 75,
      "hit": false,
      "t": 34444.40999999999,
      "d": 398.1477500000037,
      "v": 127
    },
    {
      "midi": 47,
      "hit": false,
      "t": 34666.63199999999,
      "d": 4.629625000001397,
      "v": 127
    },
    {
      "midi": 47,
      "hit": false,
      "t": 34671.26162499999,
      "d": 356.4811250000057,
      "v": 127
    },
    {
      "midi": 71,
      "hit": false,
      "t": 34888.85399999999,
      "d": 129.62950000000274,
      "v": 127
    },
    {
      "midi": 59,
      "hit": false,
      "t": 34888.85399999999,
      "d": 226.85162500001024,
      "v": 127
    },
    {
      "midi": 75,
      "hit": false,
      "t": 35111.076,
      "d": 162.03687499999796,
      "v": 127
    },
    {
      "midi": 80,
      "hit": false,
      "t": 35111.076,
      "d": 208.33312499999738,
      "v": 127
    },
    {
      "midi": 51,
      "hit": false,
      "t": 35111.076,
      "d": 425.9254999999903,
      "v": 127
    },
    {
      "midi": 75,
      "hit": false,
      "t": 35333.297999999995,
      "d": 74.07400000000052,
      "v": 127
    },
    {
      "midi": 71,
      "hit": false,
      "t": 35333.297999999995,
      "d": 97.22212500000023,
      "v": 127
    },
    {
      "midi": 63,
      "hit": false,
      "t": 35333.297999999995,
      "d": 189.81462499999907,
      "v": 127
    },
    {
      "midi": 75,
      "hit": false,
      "t": 35555.51999999999,
      "d": 249.99975000000268,
      "v": 127
    },
    {
      "midi": 78,
      "hit": false,
      "t": 35555.51999999999,
      "d": 259.25900000000547,
      "v": 127
    },
    {
      "midi": 54,
      "hit": false,
      "t": 35555.51999999999,
      "d": 370.3700000000026,
      "v": 127
    },
    {
      "midi": 71,
      "hit": false,
      "t": 35777.74199999999,
      "d": 189.81462499999907,
      "v": 127
    },
    {
      "midi": 66,
      "hit": false,
      "t": 35777.74199999999,
      "d": 398.14774999999645,
      "v": 127
    },
    {
      "midi": 78,
      "hit": false,
      "t": 35999.96399999999,
      "d": 18.518499999998312,
      "v": 127
    },
    {
      "midi": 75,
      "hit": false,
      "t": 35999.96399999999,
      "d": 32.40737499999523,
      "v": 127
    },
    {
      "midi": 56,
      "hit": false,
      "t": 35999.96399999999,
      "d": 356.48112499999115,
      "v": 127
    },
    {
      "midi": 68,
      "hit": false,
      "t": 36222.18599999999,
      "d": 166.66649999999936,
      "v": 127
    },
    {
      "midi": 76,
      "hit": false,
      "t": 36222.18599999999,
      "d": 300.9256250000035,
      "v": 127
    },
    {
      "midi": 83,
      "hit": false,
      "t": 36222.18599999999,
      "d": 379.6292500000054,
      "v": 127
    },
    {
      "midi": 80,
      "hit": false,
      "t": 36222.18599999999,
      "d": 421.29587500000343,
      "v": 127
    },
    {
      "midi": 52,
      "hit": false,
      "t": 36444.40799999999,
      "d": 384.2588750000068,
      "v": 127
    },
    {
      "midi": 76,
      "hit": false,
      "t": 36666.62999999999,
      "d": 129.62950000000274,
      "v": 127
    },
    {
      "midi": 64,
      "hit": false,
      "t": 36666.62999999999,
      "d": 291.666375000008,
      "v": 127
    },
    {
      "midi": 80,
      "hit": false,
      "t": 36888.852,
      "d": 143.51837499999965,
      "v": 127
    },
    {
      "midi": 85,
      "hit": false,
      "t": 36888.852,
      "d": 217.59237500000017,
      "v": 127
    },
    {
      "midi": 56,
      "hit": false,
      "t": 36888.852,
      "d": 416.66625000000204,
      "v": 127
    },
    {
      "midi": 80,
      "hit": false,
      "t": 37111.074,
      "d": 78.70362500000192,
      "v": 127
    },
    {
      "midi": 76,
      "hit": false,
      "t": 37111.074,
      "d": 120.37024999999994,
      "v": 127
    },
    {
      "midi": 68,
      "hit": false,
      "t": 37111.074,
      "d": 162.03687499999796,
      "v": 127
    },
    {
      "midi": 83,
      "hit": false,
      "t": 37333.296,
      "d": 249.99975000000268,
      "v": 127
    },
    {
      "midi": 80,
      "hit": false,
      "t": 37333.296,
      "d": 259.25900000000547,
      "v": 127
    },
    {
      "midi": 59,
      "hit": false,
      "t": 37333.296,
      "d": 324.0737500000032,
      "v": 127
    },
    {
      "midi": 76,
      "hit": false,
      "t": 37555.518000000004,
      "d": 245.37012500000128,
      "v": 127
    },
    {
      "midi": 71,
      "hit": false,
      "t": 37555.518000000004,
      "d": 365.7403750000012,
      "v": 127
    },
    {
      "midi": 80,
      "hit": false,
      "t": 37777.740000000005,
      "d": 60.18512499999633,
      "v": 127
    },
    {
      "midi": 83,
      "hit": false,
      "t": 37777.740000000005,
      "d": 69.44437499999913,
      "v": 127
    },
    {
      "midi": 61,
      "hit": false,
      "t": 37777.740000000005,
      "d": 296.2960000000021,
      "v": 127
    },
    {
      "midi": 73,
      "hit": false,
      "t": 37999.96200000001,
      "d": 138.88874999999825,
      "v": 127
    },
    {
      "midi": 52,
      "hit": false,
      "t": 38222.18400000001,
      "d": 4.629625000001397,
      "v": 127
    },
    {
      "midi": 92,
      "hit": false,
      "t": 38222.18400000001,
      "d": 83.33325000000332,
      "v": 127
    },
    {
      "midi": 88,
      "hit": false,
      "t": 38222.18400000001,
      "d": 106.48137500000303,
      "v": 127
    },
    {
      "midi": 52,
      "hit": false,
      "t": 38226.81362500001,
      "d": 356.4811250000057,
      "v": 127
    },
    {
      "midi": 88,
      "hit": false,
      "t": 38444.40600000001,
      "d": 83.33325000000332,
      "v": 127
    },
    {
      "midi": 92,
      "hit": false,
      "t": 38444.40600000001,
      "d": 83.33325000000332,
      "v": 127
    },
    {
      "midi": 64,
      "hit": false,
      "t": 38444.40600000001,
      "d": 226.85162500001024,
      "v": 127
    },
    {
      "midi": 88,
      "hit": false,
      "t": 38666.62800000002,
      "d": 87.96287500000471,
      "v": 127
    },
    {
      "midi": 92,
      "hit": false,
      "t": 38666.62800000002,
      "d": 87.96287500000471,
      "v": 127
    },
    {
      "midi": 56,
      "hit": false,
      "t": 38666.62800000002,
      "d": 425.92549999999756,
      "v": 127
    },
    {
      "midi": 88,
      "hit": false,
      "t": 38888.85000000002,
      "d": 97.22212500000023,
      "v": 127
    },
    {
      "midi": 92,
      "hit": false,
      "t": 38888.85000000002,
      "d": 97.22212500000023,
      "v": 127
    },
    {
      "midi": 68,
      "hit": false,
      "t": 38888.85000000002,
      "d": 189.81462499999907,
      "v": 127
    },
    {
      "midi": 88,
      "hit": false,
      "t": 39111.072000000015,
      "d": 97.22212500000023,
      "v": 127
    },
    {
      "midi": 92,
      "hit": false,
      "t": 39111.072000000015,
      "d": 97.22212500000023,
      "v": 127
    },
    {
      "midi": 59,
      "hit": false,
      "t": 39111.072000000015,
      "d": 370.3700000000026,
      "v": 127
    },
    {
      "midi": 92,
      "hit": false,
      "t": 39333.294000000016,
      "d": 87.96287499999744,
      "v": 127
    },
    {
      "midi": 88,
      "hit": false,
      "t": 39333.294000000016,
      "d": 97.22212500000023,
      "v": 127
    },
    {
      "midi": 71,
      "hit": false,
      "t": 39333.294000000016,
      "d": 398.1477500000037,
      "v": 127
    },
    {
      "midi": 92,
      "hit": false,
      "t": 39555.51600000002,
      "d": 115.74062499999854,
      "v": 127
    },
    {
      "midi": 88,
      "hit": false,
      "t": 39555.51600000002,
      "d": 124.99987500000134,
      "v": 127
    },
    {
      "midi": 61,
      "hit": false,
      "t": 39555.51600000002,
      "d": 356.4811250000057,
      "v": 127
    },
    {
      "midi": 88,
      "hit": false,
      "t": 39777.73800000002,
      "d": 97.22212500000023,
      "v": 127
    },
    {
      "midi": 92,
      "hit": false,
      "t": 39777.73800000002,
      "d": 106.48137500000303,
      "v": 127
    },
    {
      "midi": 73,
      "hit": false,
      "t": 39777.73800000002,
      "d": 166.66650000000664,
      "v": 127
    },
    {
      "midi": 88,
      "hit": false,
      "t": 39999.96000000003,
      "d": 92.59249999999884,
      "v": 127
    },
    {
      "midi": 92,
      "hit": false,
      "t": 39999.96000000003,
      "d": 92.59249999999884,
      "v": 127
    },
    {
      "midi": 52,
      "hit": false,
      "t": 39999.96000000003,
      "d": 384.2588750000068,
      "v": 127
    },
    {
      "midi": 88,
      "hit": false,
      "t": 40222.18200000003,
      "d": 101.85175000000163,
      "v": 127
    },
    {
      "midi": 92,
      "hit": false,
      "t": 40222.18200000003,
      "d": 101.85175000000163,
      "v": 127
    },
    {
      "midi": 64,
      "hit": false,
      "t": 40222.18200000003,
      "d": 291.666375000008,
      "v": 127
    },
    {
      "midi": 88,
      "hit": false,
      "t": 40444.40400000004,
      "d": 97.22212500000023,
      "v": 127
    },
    {
      "midi": 92,
      "hit": false,
      "t": 40444.40400000004,
      "d": 97.22212500000023,
      "v": 127
    },
    {
      "midi": 56,
      "hit": false,
      "t": 40444.40400000004,
      "d": 416.66625000000204,
      "v": 127
    },
    {
      "midi": 92,
      "hit": false,
      "t": 40666.62600000004,
      "d": 97.22212500000023,
      "v": 127
    },
    {
      "midi": 88,
      "hit": false,
      "t": 40666.62600000004,
      "d": 111.11099999999715,
      "v": 127
    },
    {
      "midi": 68,
      "hit": false,
      "t": 40666.62600000004,
      "d": 162.03687499999796,
      "v": 127
    },
    {
      "midi": 88,
      "hit": false,
      "t": 40888.84800000004,
      "d": 92.59249999999884,
      "v": 127
    },
    {
      "midi": 92,
      "hit": false,
      "t": 40888.84800000004,
      "d": 92.59249999999884,
      "v": 127
    },
    {
      "midi": 59,
      "hit": false,
      "t": 40888.84800000004,
      "d": 319.4441250000018,
      "v": 127
    },
    {
      "midi": 92,
      "hit": false,
      "t": 41111.07000000004,
      "d": 97.22212500000023,
      "v": 127
    },
    {
      "midi": 88,
      "hit": false,
      "t": 41111.07000000004,
      "d": 106.48137500000303,
      "v": 127
    },
    {
      "midi": 71,
      "hit": false,
      "t": 41111.07000000004,
      "d": 365.7403750000012,
      "v": 127
    },
    {
      "midi": 88,
      "hit": false,
      "t": 41333.292000000045,
      "d": 92.59249999999884,
      "v": 127
    },
    {
      "midi": 92,
      "hit": false,
      "t": 41333.292000000045,
      "d": 92.59249999999884,
      "v": 127
    },
    {
      "midi": 61,
      "hit": false,
      "t": 41333.292000000045,
      "d": 296.2960000000021,
      "v": 127
    },
    {
      "midi": 88,
      "hit": false,
      "t": 41555.51400000005,
      "d": 50.925875000000815,
      "v": 127
    },
    {
      "midi": 92,
      "hit": false,
      "t": 41555.51400000005,
      "d": 129.62950000000274,
      "v": 127
    },
    {
      "midi": 73,
      "hit": false,
      "t": 41555.51400000005,
      "d": 138.88875000000553,
      "v": 127
    },
    {
      "midi": 52,
      "hit": false,
      "t": 41777.736000000055,
      "d": 4.629625000001397,
      "v": 127
    },
    {
      "midi": 92,
      "hit": false,
      "t": 41777.736000000055,
      "d": 92.59249999999884,
      "v": 127
    },
    {
      "midi": 95,
      "hit": false,
      "t": 41777.736000000055,
      "d": 111.11099999999715,
      "v": 127
    },
    {
      "midi": 52,
      "hit": false,
      "t": 41782.36562500006,
      "d": 356.4811249999984,
      "v": 127
    },
    {
      "midi": 92,
      "hit": false,
      "t": 41999.95800000005,
      "d": 83.33325000000332,
      "v": 127
    },
    {
      "midi": 95,
      "hit": false,
      "t": 41999.95800000005,
      "d": 92.59250000000611,
      "v": 127
    },
    {
      "midi": 64,
      "hit": false,
      "t": 41999.95800000005,
      "d": 226.85162500001024,
      "v": 127
    },
    {
      "midi": 92,
      "hit": false,
      "t": 42222.18000000006,
      "d": 78.70362500000192,
      "v": 127
    },
    {
      "midi": 95,
      "hit": false,
      "t": 42222.18000000006,
      "d": 87.96287500000471,
      "v": 127
    },
    {
      "midi": 56,
      "hit": false,
      "t": 42222.18000000006,
      "d": 425.92549999999756,
      "v": 127
    },
    {
      "midi": 92,
      "hit": false,
      "t": 42444.40200000006,
      "d": 78.70362500000192,
      "v": 127
    },
    {
      "midi": 95,
      "hit": false,
      "t": 42444.40200000006,
      "d": 78.70362500000192,
      "v": 127
    },
    {
      "midi": 68,
      "hit": false,
      "t": 42444.40200000006,
      "d": 189.81462499999907,
      "v": 127
    },
    {
      "midi": 95,
      "hit": false,
      "t": 42666.624000000054,
      "d": 83.33325000000332,
      "v": 127
    },
    {
      "midi": 92,
      "hit": false,
      "t": 42666.624000000054,
      "d": 92.59250000000611,
      "v": 127
    },
    {
      "midi": 59,
      "hit": false,
      "t": 42666.624000000054,
      "d": 370.3700000000099,
      "v": 127
    },
    {
      "midi": 92,
      "hit": false,
      "t": 42888.84600000006,
      "d": 78.70362500000192,
      "v": 127
    },
    {
      "midi": 95,
      "hit": false,
      "t": 42888.84600000006,
      "d": 78.70362500000192,
      "v": 127
    },
    {
      "midi": 71,
      "hit": false,
      "t": 42888.84600000006,
      "d": 398.1477500000037,
      "v": 127
    },
    {
      "midi": 92,
      "hit": false,
      "t": 43111.068000000065,
      "d": 83.33325000000332,
      "v": 127
    },
    {
      "midi": 95,
      "hit": false,
      "t": 43111.068000000065,
      "d": 101.85175000000163,
      "v": 127
    },
    {
      "midi": 61,
      "hit": false,
      "t": 43111.068000000065,
      "d": 356.4811249999984,
      "v": 127
    },
    {
      "midi": 95,
      "hit": false,
      "t": 43333.290000000066,
      "d": 115.74062499999854,
      "v": 127
    },
    {
      "midi": 73,
      "hit": false,
      "t": 43333.290000000066,
      "d": 162.03687499999796,
      "v": 127
    },
    {
      "midi": 92,
      "hit": false,
      "t": 43333.290000000066,
      "d": 162.03687499999796,
      "v": 127
    },
    {
      "midi": 87,
      "hit": false,
      "t": 43555.51200000007,
      "d": 92.59249999999884,
      "v": 127
    },
    {
      "midi": 90,
      "hit": false,
      "t": 43555.51200000007,
      "d": 101.85175000000163,
      "v": 127
    },
    {
      "midi": 47,
      "hit": false,
      "t": 43555.51200000007,
      "d": 384.25887499999953,
      "v": 127
    },
    {
      "midi": 87,
      "hit": false,
      "t": 43777.73400000007,
      "d": 87.96287499999744,
      "v": 127
    },
    {
      "midi": 90,
      "hit": false,
      "t": 43777.73400000007,
      "d": 87.96287499999744,
      "v": 127
    },
    {
      "midi": 59,
      "hit": false,
      "t": 43777.73400000007,
      "d": 291.6663750000007,
      "v": 127
    },
    {
      "midi": 87,
      "hit": false,
      "t": 43999.95600000007,
      "d": 92.59249999999884,
      "v": 127
    },
    {
      "midi": 90,
      "hit": false,
      "t": 43999.95600000007,
      "d": 92.59249999999884,
      "v": 127
    },
    {
      "midi": 51,
      "hit": false,
      "t": 43999.95600000007,
      "d": 416.6662500000093,
      "v": 127
    },
    {
      "midi": 90,
      "hit": false,
      "t": 44222.17800000007,
      "d": 83.33325000000332,
      "v": 127
    },
    {
      "midi": 87,
      "hit": false,
      "t": 44222.17800000007,
      "d": 92.59250000000611,
      "v": 127
    },
    {
      "midi": 63,
      "hit": false,
      "t": 44222.17800000007,
      "d": 162.03687500000524,
      "v": 127
    },
    {
      "midi": 87,
      "hit": false,
      "t": 44444.40000000008,
      "d": 87.96287499999744,
      "v": 127
    },
    {
      "midi": 90,
      "hit": false,
      "t": 44444.40000000008,
      "d": 106.48137499999575,
      "v": 127
    },
    {
      "midi": 54,
      "hit": false,
      "t": 44444.40000000008,
      "d": 324.07374999998865,
      "v": 127
    },
    {
      "midi": 87,
      "hit": false,
      "t": 44666.622000000076,
      "d": 74.07400000000052,
      "v": 127
    },
    {
      "midi": 90,
      "hit": false,
      "t": 44666.622000000076,
      "d": 87.96287499999744,
      "v": 127
    },
    {
      "midi": 66,
      "hit": false,
      "t": 44666.622000000076,
      "d": 365.74037499999395,
      "v": 127
    },
    {
      "midi": 87,
      "hit": false,
      "t": 44888.84400000007,
      "d": 87.96287499999744,
      "v": 127
    },
    {
      "midi": 90,
      "hit": false,
      "t": 44888.84400000007,
      "d": 87.96287499999744,
      "v": 127
    },
    {
      "midi": 56,
      "hit": false,
      "t": 44888.84400000007,
      "d": 296.2960000000021,
      "v": 127
    },
    {
      "midi": 87,
      "hit": false,
      "t": 45111.06600000007,
      "d": 101.85175000000163,
      "v": 127
    },
    {
      "midi": 90,
      "hit": false,
      "t": 45111.06600000007,
      "d": 101.85175000000163,
      "v": 127
    },
    {
      "midi": 68,
      "hit": false,
      "t": 45111.06600000007,
      "d": 138.88874999999825,
      "v": 127
    },
    {
      "midi": 47,
      "hit": false,
      "t": 45333.28800000007,
      "d": 4.629625000001397,
      "v": 127
    },
    {
      "midi": 87,
      "hit": false,
      "t": 45333.28800000007,
      "d": 92.59249999999884,
      "v": 127
    },
    {
      "midi": 90,
      "hit": false,
      "t": 45333.28800000007,
      "d": 101.85175000000163,
      "v": 127
    },
    {
      "midi": 93,
      "hit": false,
      "t": 45333.28800000007,
      "d": 101.85175000000163,
      "v": 127
    },
    {
      "midi": 47,
      "hit": false,
      "t": 45337.917625000075,
      "d": 356.4811249999984,
      "v": 127
    },
    {
      "midi": 87,
      "hit": false,
      "t": 45555.510000000075,
      "d": 74.07400000000052,
      "v": 127
    },
    {
      "midi": 90,
      "hit": false,
      "t": 45555.510000000075,
      "d": 83.33325000000332,
      "v": 127
    },
    {
      "midi": 93,
      "hit": false,
      "t": 45555.510000000075,
      "d": 101.85175000000163,
      "v": 127
    },
    {
      "midi": 59,
      "hit": false,
      "t": 45555.510000000075,
      "d": 226.85162500000297,
      "v": 127
    },
    {
      "midi": 90,
      "hit": false,
      "t": 45777.73200000008,
      "d": 87.96287500000471,
      "v": 127
    },
    {
      "midi": 93,
      "hit": false,
      "t": 45777.73200000008,
      "d": 87.96287500000471,
      "v": 127
    },
    {
      "midi": 87,
      "hit": false,
      "t": 45777.73200000008,
      "d": 101.85175000000163,
      "v": 127
    },
    {
      "midi": 51,
      "hit": false,
      "t": 45777.73200000008,
      "d": 425.92549999999756,
      "v": 127
    },
    {
      "midi": 90,
      "hit": false,
      "t": 45999.95400000008,
      "d": 74.07400000000052,
      "v": 127
    },
    {
      "midi": 87,
      "hit": false,
      "t": 45999.95400000008,
      "d": 92.59249999999884,
      "v": 127
    },
    {
      "midi": 93,
      "hit": false,
      "t": 45999.95400000008,
      "d": 92.59249999999884,
      "v": 127
    },
    {
      "midi": 63,
      "hit": false,
      "t": 45999.95400000008,
      "d": 189.81462499999907,
      "v": 127
    },
    {
      "midi": 87,
      "hit": false,
      "t": 46222.17600000007,
      "d": 92.59249999999884,
      "v": 127
    },
    {
      "midi": 90,
      "hit": false,
      "t": 46222.17600000007,
      "d": 92.59249999999884,
      "v": 127
    },
    {
      "midi": 93,
      "hit": false,
      "t": 46222.17600000007,
      "d": 92.59249999999884,
      "v": 127
    },
    {
      "midi": 54,
      "hit": false,
      "t": 46222.17600000007,
      "d": 370.3700000000099,
      "v": 127
    },
    {
      "midi": 87,
      "hit": false,
      "t": 46444.398000000074,
      "d": 78.70362500000192,
      "v": 127
    },
    {
      "midi": 90,
      "hit": false,
      "t": 46444.398000000074,
      "d": 78.70362500000192,
      "v": 127
    },
    {
      "midi": 93,
      "hit": false,
      "t": 46444.398000000074,
      "d": 87.96287500000471,
      "v": 127
    },
    {
      "midi": 66,
      "hit": false,
      "t": 46444.398000000074,
      "d": 398.1477500000037,
      "v": 127
    },
    {
      "midi": 87,
      "hit": false,
      "t": 46666.62000000008,
      "d": 87.96287499999744,
      "v": 127
    },
    {
      "midi": 90,
      "hit": false,
      "t": 46666.62000000008,
      "d": 87.96287499999744,
      "v": 127
    },
    {
      "midi": 93,
      "hit": false,
      "t": 46666.62000000008,
      "d": 101.85174999999435,
      "v": 127
    },
    {
      "midi": 56,
      "hit": false,
      "t": 46666.62000000008,
      "d": 356.4811249999984,
      "v": 127
    },
    {
      "midi": 90,
      "hit": false,
      "t": 46888.84200000008,
      "d": 78.70362500000192,
      "v": 127
    },
    {
      "midi": 87,
      "hit": false,
      "t": 46888.84200000008,
      "d": 101.85175000000163,
      "v": 127
    },
    {
      "midi": 93,
      "hit": false,
      "t": 46888.84200000008,
      "d": 101.85175000000163,
      "v": 127
    },
    {
      "midi": 68,
      "hit": false,
      "t": 46888.84200000008,
      "d": 166.66650000000664,
      "v": 127
    },
    {
      "midi": 87,
      "hit": false,
      "t": 47111.064000000086,
      "d": 92.59249999999884,
      "v": 127
    },
    {
      "midi": 90,
      "hit": false,
      "t": 47111.064000000086,
      "d": 101.85175000000163,
      "v": 127
    },
    {
      "midi": 93,
      "hit": false,
      "t": 47111.064000000086,
      "d": 111.11100000000442,
      "v": 127
    },
    {
      "midi": 47,
      "hit": false,
      "t": 47111.064000000086,
      "d": 384.25887499999953,
      "v": 127
    },
    {
      "midi": 90,
      "hit": false,
      "t": 47333.28600000009,
      "d": 74.07400000000052,
      "v": 127
    },
    {
      "midi": 87,
      "hit": false,
      "t": 47333.28600000009,
      "d": 87.96287499999744,
      "v": 127
    },
    {
      "midi": 93,
      "hit": false,
      "t": 47333.28600000009,
      "d": 101.85174999999435,
      "v": 127
    },
    {
      "midi": 59,
      "hit": false,
      "t": 47333.28600000009,
      "d": 291.6663750000007,
      "v": 127
    },
    {
      "midi": 90,
      "hit": false,
      "t": 47555.50800000009,
      "d": 78.70362500000192,
      "v": 127
    },
    {
      "midi": 87,
      "hit": false,
      "t": 47555.50800000009,
      "d": 97.22212500000023,
      "v": 127
    },
    {
      "midi": 93,
      "hit": false,
      "t": 47555.50800000009,
      "d": 97.22212500000023,
      "v": 127
    },
    {
      "midi": 51,
      "hit": false,
      "t": 47555.50800000009,
      "d": 416.66625000000204,
      "v": 127
    },
    {
      "midi": 90,
      "hit": false,
      "t": 47777.73000000009,
      "d": 50.925875000000815,
      "v": 127
    },
    {
      "midi": 87,
      "hit": false,
      "t": 47777.73000000009,
      "d": 92.59249999999884,
      "v": 127
    },
    {
      "midi": 93,
      "hit": false,
      "t": 47777.73000000009,
      "d": 92.59249999999884,
      "v": 127
    },
    {
      "midi": 63,
      "hit": false,
      "t": 47777.73000000009,
      "d": 162.03687499999796,
      "v": 127
    },
    {
      "midi": 87,
      "hit": false,
      "t": 47999.95200000009,
      "d": 92.59249999999884,
      "v": 127
    },
    {
      "midi": 90,
      "hit": false,
      "t": 47999.95200000009,
      "d": 92.59249999999884,
      "v": 127
    },
    {
      "midi": 93,
      "hit": false,
      "t": 47999.95200000009,
      "d": 92.59249999999884,
      "v": 127
    },
    {
      "midi": 54,
      "hit": false,
      "t": 47999.95200000009,
      "d": 324.0737500000105,
      "v": 127
    },
    {
      "midi": 90,
      "hit": false,
      "t": 48222.174000000094,
      "d": 83.33325000000332,
      "v": 127
    },
    {
      "midi": 87,
      "hit": false,
      "t": 48222.174000000094,
      "d": 92.59250000000611,
      "v": 127
    },
    {
      "midi": 93,
      "hit": false,
      "t": 48222.174000000094,
      "d": 101.8517500000089,
      "v": 127
    },
    {
      "midi": 66,
      "hit": false,
      "t": 48222.174000000094,
      "d": 365.7403750000085,
      "v": 127
    },
    {
      "midi": 90,
      "hit": false,
      "t": 48444.3960000001,
      "d": 83.33325000000332,
      "v": 127
    },
    {
      "midi": 87,
      "hit": false,
      "t": 48444.3960000001,
      "d": 97.22212500000023,
      "v": 127
    },
    {
      "midi": 93,
      "hit": false,
      "t": 48444.3960000001,
      "d": 97.22212500000023,
      "v": 127
    },
    {
      "midi": 56,
      "hit": false,
      "t": 48444.3960000001,
      "d": 291.6663750000007,
      "v": 127
    },
    {
      "midi": 90,
      "hit": false,
      "t": 48666.618000000104,
      "d": 69.44437499999913,
      "v": 127
    },
    {
      "midi": 87,
      "hit": false,
      "t": 48666.618000000104,
      "d": 83.33324999999604,
      "v": 127
    },
    {
      "midi": 93,
      "hit": false,
      "t": 48666.618000000104,
      "d": 97.22212499999296,
      "v": 127
    },
    {
      "midi": 68,
      "hit": false,
      "t": 48666.618000000104,
      "d": 138.88874999999098,
      "v": 127
    },
    {
      "midi": 47,
      "hit": false,
      "t": 48888.8400000001,
      "d": 4.629625000001397,
      "v": 127
    },
    {
      "midi": 87,
      "hit": false,
      "t": 48888.8400000001,
      "d": 83.33325000000332,
      "v": 127
    },
    {
      "midi": 90,
      "hit": false,
      "t": 48888.8400000001,
      "d": 83.33325000000332,
      "v": 127
    },
    {
      "midi": 93,
      "hit": false,
      "t": 48888.8400000001,
      "d": 101.85175000000163,
      "v": 127
    },
    {
      "midi": 47,
      "hit": false,
      "t": 48893.4696250001,
      "d": 356.4811249999984,
      "v": 127
    },
    {
      "midi": 87,
      "hit": false,
      "t": 49111.0620000001,
      "d": 69.44437499999913,
      "v": 127
    },
    {
      "midi": 90,
      "hit": false,
      "t": 49111.0620000001,
      "d": 69.44437499999913,
      "v": 127
    },
    {
      "midi": 93,
      "hit": false,
      "t": 49111.0620000001,
      "d": 87.96287499999744,
      "v": 127
    },
    {
      "midi": 59,
      "hit": false,
      "t": 49111.0620000001,
      "d": 226.85162500000297,
      "v": 127
    },
    {
      "midi": 90,
      "hit": false,
      "t": 49333.2840000001,
      "d": 74.07400000000052,
      "v": 127
    },
    {
      "midi": 87,
      "hit": false,
      "t": 49333.2840000001,
      "d": 83.33325000000332,
      "v": 127
    },
    {
      "midi": 93,
      "hit": false,
      "t": 49333.2840000001,
      "d": 83.33325000000332,
      "v": 127
    },
    {
      "midi": 51,
      "hit": false,
      "t": 49333.2840000001,
      "d": 425.92549999999756,
      "v": 127
    },
    {
      "midi": 87,
      "hit": false,
      "t": 49555.5060000001,
      "d": 69.44437499999913,
      "v": 127
    },
    {
      "midi": 90,
      "hit": false,
      "t": 49555.5060000001,
      "d": 69.44437499999913,
      "v": 127
    },
    {
      "midi": 93,
      "hit": false,
      "t": 49555.5060000001,
      "d": 78.70362500000192,
      "v": 127
    },
    {
      "midi": 63,
      "hit": false,
      "t": 49555.5060000001,
      "d": 189.81462499999907,
      "v": 127
    },
    {
      "midi": 87,
      "hit": false,
      "t": 49777.7280000001,
      "d": 64.81474999999773,
      "v": 127
    },
    {
      "midi": 90,
      "hit": false,
      "t": 49777.7280000001,
      "d": 64.81474999999773,
      "v": 127
    },
    {
      "midi": 93,
      "hit": false,
      "t": 49777.7280000001,
      "d": 78.70362499999464,
      "v": 127
    },
    {
      "midi": 54,
      "hit": false,
      "t": 49777.7280000001,
      "d": 370.36999999999534,
      "v": 127
    },
    {
      "midi": 90,
      "hit": false,
      "t": 49999.95000000009,
      "d": 64.81474999999773,
      "v": 127
    },
    {
      "midi": 87,
      "hit": false,
      "t": 49999.95000000009,
      "d": 74.07400000000052,
      "v": 127
    },
    {
      "midi": 93,
      "hit": false,
      "t": 49999.95000000009,
      "d": 74.07400000000052,
      "v": 127
    },
    {
      "midi": 66,
      "hit": false,
      "t": 49999.95000000009,
      "d": 398.14774999999645,
      "v": 127
    },
    {
      "midi": 87,
      "hit": false,
      "t": 50222.17200000009,
      "d": 87.96287499999744,
      "v": 127
    },
    {
      "midi": 90,
      "hit": false,
      "t": 50222.17200000009,
      "d": 87.96287499999744,
      "v": 127
    },
    {
      "midi": 93,
      "hit": false,
      "t": 50222.17200000009,
      "d": 87.96287499999744,
      "v": 127
    },
    {
      "midi": 56,
      "hit": false,
      "t": 50222.17200000009,
      "d": 356.48112499999115,
      "v": 127
    },
    {
      "midi": 93,
      "hit": false,
      "t": 50444.39400000009,
      "d": 134.25912499999686,
      "v": 127
    },
    {
      "midi": 90,
      "hit": false,
      "t": 50444.39400000009,
      "d": 143.51837499999965,
      "v": 127
    },
    {
      "midi": 87,
      "hit": false,
      "t": 50444.39400000009,
      "d": 157.40724999999657,
      "v": 127
    },
    {
      "midi": 68,
      "hit": false,
      "t": 50444.39400000009,
      "d": 166.66649999999936,
      "v": 127
    },
    {
      "midi": 88,
      "hit": false,
      "t": 50666.61600000009,
      "d": 92.59249999999884,
      "v": 127
    },
    {
      "midi": 92,
      "hit": false,
      "t": 50666.61600000009,
      "d": 101.85175000000163,
      "v": 127
    },
    {
      "midi": 52,
      "hit": false,
      "t": 50666.61600000009,
      "d": 384.25887499999953,
      "v": 127
    },
    {
      "midi": 88,
      "hit": false,
      "t": 50888.83800000009,
      "d": 97.22212500000023,
      "v": 127
    },
    {
      "midi": 92,
      "hit": false,
      "t": 50888.83800000009,
      "d": 97.22212500000023,
      "v": 127
    },
    {
      "midi": 64,
      "hit": false,
      "t": 50888.83800000009,
      "d": 291.6663750000007,
      "v": 127
    },
    {
      "midi": 92,
      "hit": false,
      "t": 51111.06000000009,
      "d": 83.33324999999604,
      "v": 127
    },
    {
      "midi": 88,
      "hit": false,
      "t": 51111.06000000009,
      "d": 97.22212499999296,
      "v": 127
    },
    {
      "midi": 56,
      "hit": false,
      "t": 51111.06000000009,
      "d": 416.66624999999476,
      "v": 127
    },
    {
      "midi": 92,
      "hit": false,
      "t": 51333.28200000009,
      "d": 78.70362500000192,
      "v": 127
    },
    {
      "midi": 88,
      "hit": false,
      "t": 51333.28200000009,
      "d": 97.22212500000023,
      "v": 127
    },
    {
      "midi": 68,
      "hit": false,
      "t": 51333.28200000009,
      "d": 162.03687499999796,
      "v": 127
    },
    {
      "midi": 88,
      "hit": false,
      "t": 51555.50400000009,
      "d": 87.96287499999744,
      "v": 127
    },
    {
      "midi": 92,
      "hit": false,
      "t": 51555.50400000009,
      "d": 87.96287499999744,
      "v": 127
    },
    {
      "midi": 59,
      "hit": false,
      "t": 51555.50400000009,
      "d": 319.44412499999453,
      "v": 127
    },
    {
      "midi": 88,
      "hit": false,
      "t": 51777.72600000008,
      "d": 87.96287499999744,
      "v": 127
    },
    {
      "midi": 92,
      "hit": false,
      "t": 51777.72600000008,
      "d": 97.22212500000023,
      "v": 127
    },
    {
      "midi": 71,
      "hit": false,
      "t": 51777.72600000008,
      "d": 365.7403750000012,
      "v": 127
    },
    {
      "midi": 88,
      "hit": false,
      "t": 51999.948000000084,
      "d": 87.96287499999744,
      "v": 127
    },
    {
      "midi": 92,
      "hit": false,
      "t": 51999.948000000084,
      "d": 97.22212500000023,
      "v": 127
    },
    {
      "midi": 61,
      "hit": false,
      "t": 51999.948000000084,
      "d": 296.2960000000021,
      "v": 127
    },
    {
      "midi": 92,
      "hit": false,
      "t": 52222.170000000086,
      "d": 106.48137500000303,
      "v": 127
    },
    {
      "midi": 88,
      "hit": false,
      "t": 52222.170000000086,
      "d": 129.62950000000274,
      "v": 127
    },
    {
      "midi": 73,
      "hit": false,
      "t": 52222.170000000086,
      "d": 138.88875000000553,
      "v": 127
    },
    {
      "midi": 52,
      "hit": false,
      "t": 52444.392000000094,
      "d": 4.629625000001397,
      "v": 127
    },
    {
      "midi": 52,
      "hit": false,
      "t": 52449.021625000096,
      "d": 356.4811249999984,
      "v": 127
    },
    {
      "midi": 76,
      "hit": false,
      "t": 52666.614000000096,
      "d": 157.40724999999657,
      "v": 127
    },
    {
      "midi": 64,
      "hit": false,
      "t": 52666.614000000096,
      "d": 226.8516249999957,
      "v": 127
    },
    {
      "midi": 80,
      "hit": false,
      "t": 52888.83600000009,
      "d": 166.66649999999936,
      "v": 127
    },
    {
      "midi": 85,
      "hit": false,
      "t": 52888.83600000009,
      "d": 203.70349999999598,
      "v": 127
    },
    {
      "midi": 56,
      "hit": false,
      "t": 52888.83600000009,
      "d": 421.29587499999616,
      "v": 127
    },
    {
      "midi": 76,
      "hit": false,
      "t": 53111.058000000085,
      "d": 115.74062499999854,
      "v": 127
    },
    {
      "midi": 68,
      "hit": false,
      "t": 53111.058000000085,
      "d": 189.81462499999907,
      "v": 127
    },
    {
      "midi": 83,
      "hit": false,
      "t": 53333.280000000086,
      "d": 157.40724999999657,
      "v": 127
    },
    {
      "midi": 80,
      "hit": false,
      "t": 53333.280000000086,
      "d": 217.59237500000017,
      "v": 127
    },
    {
      "midi": 59,
      "hit": false,
      "t": 53333.280000000086,
      "d": 370.3700000000026,
      "v": 127
    },
    {
      "midi": 76,
      "hit": false,
      "t": 53555.50200000009,
      "d": 55.55550000000221,
      "v": 127
    },
    {
      "midi": 71,
      "hit": false,
      "t": 53555.50200000009,
      "d": 398.1477500000037,
      "v": 127
    },
    {
      "midi": 61,
      "hit": false,
      "t": 53777.72400000009,
      "d": 356.4811249999984,
      "v": 127
    },
    {
      "midi": 73,
      "hit": false,
      "t": 53999.94600000009,
      "d": 166.66649999999936,
      "v": 127
    },
    {
      "midi": 76,
      "hit": false,
      "t": 53999.94600000009,
      "d": 351.8515000000043,
      "v": 127
    },
    {
      "midi": 83,
      "hit": false,
      "t": 53999.94600000009,
      "d": 402.7773750000051,
      "v": 127
    },
    {
      "midi": 80,
      "hit": false,
      "t": 53999.94600000009,
      "d": 439.81437500000175,
      "v": 127
    },
    {
      "midi": 52,
      "hit": false,
      "t": 54222.16800000009,
      "d": 384.25887499999953,
      "v": 127
    },
    {
      "midi": 76,
      "hit": false,
      "t": 54444.390000000094,
      "d": 148.14800000000105,
      "v": 127
    },
    {
      "midi": 64,
      "hit": false,
      "t": 54444.390000000094,
      "d": 291.6663750000007,
      "v": 127
    },
    {
      "midi": 85,
      "hit": false,
      "t": 54666.612000000096,
      "d": 217.59237500000017,
      "v": 127
    },
    {
      "midi": 80,
      "hit": false,
      "t": 54666.612000000096,
      "d": 314.8145000000004,
      "v": 127
    },
    {
      "midi": 56,
      "hit": false,
      "t": 54666.612000000096,
      "d": 416.66625000000204,
      "v": 127
    },
    {
      "midi": 76,
      "hit": false,
      "t": 54888.8340000001,
      "d": 148.14800000000105,
      "v": 127
    },
    {
      "midi": 68,
      "hit": false,
      "t": 54888.8340000001,
      "d": 162.03687499999796,
      "v": 127
    },
    {
      "midi": 83,
      "hit": false,
      "t": 55111.0560000001,
      "d": 203.70350000000326,
      "v": 127
    },
    {
      "midi": 80,
      "hit": false,
      "t": 55111.0560000001,
      "d": 254.62937500000407,
      "v": 127
    },
    {
      "midi": 59,
      "hit": false,
      "t": 55111.0560000001,
      "d": 324.0737500000032,
      "v": 127
    },
    {
      "midi": 76,
      "hit": false,
      "t": 55333.2780000001,
      "d": 60.18512500000361,
      "v": 127
    },
    {
      "midi": 71,
      "hit": false,
      "t": 55333.2780000001,
      "d": 365.7403750000085,
      "v": 127
    },
    {
      "midi": 76,
      "hit": false,
      "t": 55555.5000000001,
      "d": 60.18512500000361,
      "v": 127
    },
    {
      "midi": 61,
      "hit": false,
      "t": 55555.5000000001,
      "d": 296.29600000000937,
      "v": 127
    },
    {
      "midi": 73,
      "hit": false,
      "t": 55777.72200000011,
      "d": 138.88874999999825,
      "v": 127
    },
    {
      "midi": 76,
      "hit": false,
      "t": 55777.72200000011,
      "d": 351.8515000000043,
      "v": 127
    },
    {
      "midi": 83,
      "hit": false,
      "t": 55777.72200000011,
      "d": 398.1477500000037,
      "v": 127
    },
    {
      "midi": 80,
      "hit": false,
      "t": 55777.72200000011,
      "d": 481.48099999999977,
      "v": 127
    },
    {
      "midi": 52,
      "hit": false,
      "t": 55999.94400000011,
      "d": 4.629625000001397,
      "v": 127
    },
    {
      "midi": 52,
      "hit": false,
      "t": 56004.573625000114,
      "d": 356.4811249999984,
      "v": 127
    },
    {
      "midi": 76,
      "hit": false,
      "t": 56222.166000000114,
      "d": 138.88874999999825,
      "v": 127
    },
    {
      "midi": 64,
      "hit": false,
      "t": 56222.166000000114,
      "d": 226.85162500000297,
      "v": 127
    },
    {
      "midi": 80,
      "hit": false,
      "t": 56444.388000000115,
      "d": 175.92575000000215,
      "v": 127
    },
    {
      "midi": 85,
      "hit": false,
      "t": 56444.388000000115,
      "d": 194.44425000000047,
      "v": 127
    },
    {
      "midi": 56,
      "hit": false,
      "t": 56444.388000000115,
      "d": 425.92549999999756,
      "v": 127
    },
    {
      "midi": 80,
      "hit": false,
      "t": 56666.61000000012,
      "d": 32.4073750000025,
      "v": 127
    },
    {
      "midi": 76,
      "hit": false,
      "t": 56666.61000000012,
      "d": 97.22212500000023,
      "v": 127
    },
    {
      "midi": 68,
      "hit": false,
      "t": 56666.61000000012,
      "d": 185.18499999999767,
      "v": 127
    },
    {
      "midi": 83,
      "hit": false,
      "t": 56888.83200000011,
      "d": 203.70350000000326,
      "v": 127
    },
    {
      "midi": 80,
      "hit": false,
      "t": 56888.83200000011,
      "d": 236.1108749999985,
      "v": 127
    },
    {
      "midi": 59,
      "hit": false,
      "t": 56888.83200000011,
      "d": 370.36999999999534,
      "v": 127
    },
    {
      "midi": 76,
      "hit": false,
      "t": 57111.05400000011,
      "d": 162.0368749999907,
      "v": 127
    },
    {
      "midi": 71,
      "hit": false,
      "t": 57111.05400000011,
      "d": 398.1477499999892,
      "v": 127
    },
    {
      "midi": 80,
      "hit": false,
      "t": 57333.27600000011,
      "d": 18.518499999998312,
      "v": 127
    },
    {
      "midi": 61,
      "hit": false,
      "t": 57333.27600000011,
      "d": 356.48112499999115,
      "v": 127
    },
    {
      "midi": 73,
      "hit": false,
      "t": 57555.4980000001,
      "d": 166.66649999999936,
      "v": 127
    },
    {
      "midi": 78,
      "hit": false,
      "t": 57555.4980000001,
      "d": 393.5181250000023,
      "v": 127
    },
    {
      "midi": 75,
      "hit": false,
      "t": 57555.4980000001,
      "d": 430.55512499999895,
      "v": 127
    },
    {
      "midi": 47,
      "hit": false,
      "t": 57777.7200000001,
      "d": 384.25887499999226,
      "v": 127
    },
    {
      "midi": 71,
      "hit": false,
      "t": 57999.9420000001,
      "d": 134.25912499999686,
      "v": 127
    },
    {
      "midi": 59,
      "hit": false,
      "t": 57999.9420000001,
      "d": 291.6663750000007,
      "v": 127
    },
    {
      "midi": 75,
      "hit": false,
      "t": 58222.1640000001,
      "d": 171.29612500000076,
      "v": 127
    },
    {
      "midi": 80,
      "hit": false,
      "t": 58222.1640000001,
      "d": 194.44425000000047,
      "v": 127
    },
    {
      "midi": 51,
      "hit": false,
      "t": 58222.1640000001,
      "d": 416.66625000000204,
      "v": 127
    },
    {
      "midi": 71,
      "hit": false,
      "t": 58444.3860000001,
      "d": 115.74062499999854,
      "v": 127
    },
    {
      "midi": 63,
      "hit": false,
      "t": 58444.3860000001,
      "d": 162.03687499999796,
      "v": 127
    },
    {
      "midi": 78,
      "hit": false,
      "t": 58666.6080000001,
      "d": 166.66649999999936,
      "v": 127
    },
    {
      "midi": 75,
      "hit": false,
      "t": 58666.6080000001,
      "d": 203.70349999999598,
      "v": 127
    },
    {
      "midi": 54,
      "hit": false,
      "t": 58666.6080000001,
      "d": 324.0737499999959,
      "v": 127
    },
    {
      "midi": 71,
      "hit": false,
      "t": 58888.830000000096,
      "d": 83.33325000000332,
      "v": 127
    },
    {
      "midi": 66,
      "hit": false,
      "t": 58888.830000000096,
      "d": 361.1107500000071,
      "v": 127
    },
    {
      "midi": 75,
      "hit": false,
      "t": 59111.0520000001,
      "d": 32.4073750000025,
      "v": 127
    },
    {
      "midi": 56,
      "hit": false,
      "t": 59111.0520000001,
      "d": 296.29600000000937,
      "v": 127
    },
    {
      "midi": 68,
      "hit": false,
      "t": 59333.27400000011,
      "d": 134.25912500000413,
      "v": 127
    },
    {
      "midi": 71,
      "hit": false,
      "t": 59333.27400000011,
      "d": 342.5922500000015,
      "v": 127
    },
    {
      "midi": 78,
      "hit": false,
      "t": 59333.27400000011,
      "d": 379.62924999999814,
      "v": 127
    },
    {
      "midi": 75,
      "hit": false,
      "t": 59333.27400000011,
      "d": 435.18475000000035,
      "v": 127
    },
    {
      "midi": 47,
      "hit": false,
      "t": 59555.49600000011,
      "d": 4.629625000001397,
      "v": 127
    },
    {
      "midi": 47,
      "hit": false,
      "t": 59560.12562500011,
      "d": 356.4811249999984,
      "v": 127
    },
    {
      "midi": 59,
      "hit": false,
      "t": 59777.71800000011,
      "d": 226.85162500000297,
      "v": 127
    },
    {
      "midi": 75,
      "hit": false,
      "t": 59999.94000000011,
      "d": 157.40725000000384,
      "v": 127
    },
    {
      "midi": 80,
      "hit": false,
      "t": 59999.94000000011,
      "d": 157.40725000000384,
      "v": 127
    },
    {
      "midi": 51,
      "hit": false,
      "t": 59999.94000000011,
      "d": 425.92550000000483,
      "v": 127
    },
    {
      "midi": 71,
      "hit": false,
      "t": 60222.16200000011,
      "d": 83.33325000000332,
      "v": 127
    },
    {
      "midi": 63,
      "hit": false,
      "t": 60222.16200000011,
      "d": 189.81462500000634,
      "v": 127
    },
    {
      "midi": 78,
      "hit": false,
      "t": 60444.384000000115,
      "d": 166.66649999999936,
      "v": 127
    },
    {
      "midi": 75,
      "hit": false,
      "t": 60444.384000000115,
      "d": 208.33312499999738,
      "v": 127
    },
    {
      "midi": 54,
      "hit": false,
      "t": 60444.384000000115,
      "d": 370.36999999999534,
      "v": 127
    },
    {
      "midi": 71,
      "hit": false,
      "t": 60666.60600000011,
      "d": 46.29624999999942,
      "v": 127
    },
    {
      "midi": 66,
      "hit": false,
      "t": 60666.60600000011,
      "d": 398.1477500000037,
      "v": 127
    },
    {
      "midi": 71,
      "hit": false,
      "t": 60888.82800000011,
      "d": 50.925875000000815,
      "v": 127
    },
    {
      "midi": 56,
      "hit": false,
      "t": 60888.82800000011,
      "d": 356.4811249999984,
      "v": 127
    },
    {
      "midi": 68,
      "hit": false,
      "t": 61111.05000000011,
      "d": 166.66649999999936,
      "v": 127
    },
    {
      "midi": 71,
      "hit": false,
      "t": 61111.05000000011,
      "d": 328.7033750000046,
      "v": 127
    },
    {
      "midi": 78,
      "hit": false,
      "t": 61111.05000000011,
      "d": 365.7403750000012,
      "v": 127
    },
    {
      "midi": 75,
      "hit": false,
      "t": 61111.05000000011,
      "d": 416.66625000000204,
      "v": 127
    },
    {
      "midi": 47,
      "hit": false,
      "t": 61333.27200000011,
      "d": 384.25887499999953,
      "v": 127
    },
    {
      "midi": 71,
      "hit": false,
      "t": 61555.494000000115,
      "d": 148.14800000000105,
      "v": 127
    },
    {
      "midi": 59,
      "hit": false,
      "t": 61555.494000000115,
      "d": 291.6663750000007,
      "v": 127
    },
    {
      "midi": 80,
      "hit": false,
      "t": 61777.71600000012,
      "d": 208.33312499999738,
      "v": 127
    },
    {
      "midi": 75,
      "hit": false,
      "t": 61777.71600000012,
      "d": 296.2959999999948,
      "v": 127
    },
    {
      "midi": 51,
      "hit": false,
      "t": 61777.71600000012,
      "d": 416.66624999999476,
      "v": 127
    },
    {
      "midi": 71,
      "hit": false,
      "t": 61999.93800000011,
      "d": 124.99987500000134,
      "v": 127
    },
    {
      "midi": 63,
      "hit": false,
      "t": 61999.93800000011,
      "d": 162.03687499999796,
      "v": 127
    },
    {
      "midi": 78,
      "hit": false,
      "t": 62222.16000000011,
      "d": 199.07387500000186,
      "v": 127
    },
    {
      "midi": 75,
      "hit": false,
      "t": 62222.16000000011,
      "d": 240.74049999999988,
      "v": 127
    },
    {
      "midi": 54,
      "hit": false,
      "t": 62222.16000000011,
      "d": 324.0737500000032,
      "v": 127
    },
    {
      "midi": 71,
      "hit": false,
      "t": 62444.382000000114,
      "d": 74.07400000000052,
      "v": 127
    },
    {
      "midi": 66,
      "hit": false,
      "t": 62444.382000000114,
      "d": 365.7403750000085,
      "v": 127
    },
    {
      "midi": 71,
      "hit": false,
      "t": 62666.604000000116,
      "d": 60.18512500000361,
      "v": 127
    },
    {
      "midi": 56,
      "hit": false,
      "t": 62666.604000000116,
      "d": 291.666375000008,
      "v": 127
    },
    {
      "midi": 68,
      "hit": false,
      "t": 62888.826000000125,
      "d": 138.88874999999825,
      "v": 127
    },
    {
      "midi": 71,
      "hit": false,
      "t": 62888.826000000125,
      "d": 337.9626250000001,
      "v": 127
    },
    {
      "midi": 78,
      "hit": false,
      "t": 62888.826000000125,
      "d": 388.88850000000093,
      "v": 127
    },
    {
      "midi": 75,
      "hit": false,
      "t": 62888.826000000125,
      "d": 472.22175000000425,
      "v": 127
    },
    {
      "midi": 47,
      "hit": false,
      "t": 63111.048000000126,
      "d": 4.629625000001397,
      "v": 127
    },
    {
      "midi": 47,
      "hit": false,
      "t": 63115.67762500013,
      "d": 356.4811249999984,
      "v": 127
    },
    {
      "midi": 59,
      "hit": false,
      "t": 63333.27000000013,
      "d": 226.85162500000297,
      "v": 127
    },
    {
      "midi": 80,
      "hit": false,
      "t": 63555.49200000013,
      "d": 194.44425000000047,
      "v": 127
    },
    {
      "midi": 75,
      "hit": false,
      "t": 63555.49200000013,
      "d": 282.4071250000052,
      "v": 127
    },
    {
      "midi": 51,
      "hit": false,
      "t": 63555.49200000013,
      "d": 425.92549999999756,
      "v": 127
    },
    {
      "midi": 71,
      "hit": false,
      "t": 63777.71400000013,
      "d": 101.85175000000163,
      "v": 127
    },
    {
      "midi": 63,
      "hit": false,
      "t": 63777.71400000013,
      "d": 189.81462499999907,
      "v": 127
    },
    {
      "midi": 78,
      "hit": false,
      "t": 63999.936000000125,
      "d": 175.92575000000215,
      "v": 127
    },
    {
      "midi": 75,
      "hit": false,
      "t": 63999.936000000125,
      "d": 194.44425000000047,
      "v": 127
    },
    {
      "midi": 54,
      "hit": false,
      "t": 63999.936000000125,
      "d": 370.3700000000026,
      "v": 127
    },
    {
      "midi": 66,
      "hit": false,
      "t": 64222.15800000013,
      "d": 398.1477500000037,
      "v": 127
    },
    {
      "midi": 78,
      "hit": false,
      "t": 64444.38000000013,
      "d": 50.925875000000815,
      "v": 127
    },
    {
      "midi": 75,
      "hit": false,
      "t": 64444.38000000013,
      "d": 60.18512500000361,
      "v": 127
    },
    {
      "midi": 56,
      "hit": false,
      "t": 64444.38000000013,
      "d": 356.4811249999984,
      "v": 127
    },
    {
      "midi": 68,
      "hit": false,
      "t": 64666.60200000013,
      "d": 166.66649999999936,
      "v": 127
    },
    {
      "midi": 83,
      "hit": false,
      "t": 64666.60200000013,
      "d": 421.29587500000343,
      "v": 127
    },
    {
      "midi": 80,
      "hit": false,
      "t": 64666.60200000013,
      "d": 439.81437500000175,
      "v": 127
    },
    {
      "midi": 52,
      "hit": false,
      "t": 64888.82400000013,
      "d": 384.25887499999953,
      "v": 127
    },
    {
      "midi": 76,
      "hit": false,
      "t": 65111.04600000013,
      "d": 148.14800000000105,
      "v": 127
    },
    {
      "midi": 64,
      "hit": false,
      "t": 65111.04600000013,
      "d": 291.6663750000007,
      "v": 127
    },
    {
      "midi": 80,
      "hit": false,
      "t": 65333.268000000135,
      "d": 143.51837499999965,
      "v": 127
    },
    {
      "midi": 85,
      "hit": false,
      "t": 65333.268000000135,
      "d": 203.70349999999598,
      "v": 127
    },
    {
      "midi": 56,
      "hit": false,
      "t": 65333.268000000135,
      "d": 416.66625000000204,
      "v": 127
    },
    {
      "midi": 76,
      "hit": false,
      "t": 65555.49000000014,
      "d": 92.59249999999884,
      "v": 127
    },
    {
      "midi": 68,
      "hit": false,
      "t": 65555.49000000014,
      "d": 162.03687500000524,
      "v": 127
    },
    {
      "midi": 83,
      "hit": false,
      "t": 65777.71200000013,
      "d": 171.29612499999348,
      "v": 127
    },
    {
      "midi": 80,
      "hit": false,
      "t": 65777.71200000013,
      "d": 217.5923749999929,
      "v": 127
    },
    {
      "midi": 59,
      "hit": false,
      "t": 65777.71200000013,
      "d": 324.0737499999959,
      "v": 127
    },
    {
      "midi": 76,
      "hit": false,
      "t": 65999.93400000012,
      "d": 46.29624999999942,
      "v": 127
    },
    {
      "midi": 71,
      "hit": false,
      "t": 65999.93400000012,
      "d": 365.7403750000085,
      "v": 127
    },
    {
      "midi": 61,
      "hit": false,
      "t": 66222.15600000013,
      "d": 296.29599999998754,
      "v": 127
    },
    {
      "midi": 73,
      "hit": false,
      "t": 66444.37800000013,
      "d": 138.88874999999825,
      "v": 127
    },
    {
      "midi": 76,
      "hit": false,
      "t": 66444.37800000013,
      "d": 356.48112499999115,
      "v": 127
    },
    {
      "midi": 83,
      "hit": false,
      "t": 66444.37800000013,
      "d": 402.77737499999057,
      "v": 127
    },
    {
      "midi": 80,
      "hit": false,
      "t": 66444.37800000013,
      "d": 472.2217499999824,
      "v": 127
    },
    {
      "midi": 52,
      "hit": false,
      "t": 66666.60000000012,
      "d": 4.629625000001397,
      "v": 127
    },
    {
      "midi": 52,
      "hit": false,
      "t": 66671.22962500012,
      "d": 356.48112499999115,
      "v": 127
    },
    {
      "midi": 76,
      "hit": false,
      "t": 66888.82200000012,
      "d": 157.40725000000384,
      "v": 127
    },
    {
      "midi": 64,
      "hit": false,
      "t": 66888.82200000012,
      "d": 226.85162500001024,
      "v": 127
    },
    {
      "midi": 80,
      "hit": false,
      "t": 67111.04400000013,
      "d": 166.66650000000664,
      "v": 127
    },
    {
      "midi": 85,
      "hit": false,
      "t": 67111.04400000013,
      "d": 203.70350000000326,
      "v": 127
    },
    {
      "midi": 56,
      "hit": false,
      "t": 67111.04400000013,
      "d": 425.9255000000121,
      "v": 127
    },
    {
      "midi": 76,
      "hit": false,
      "t": 67333.26600000013,
      "d": 115.74062500000582,
      "v": 127
    },
    {
      "midi": 68,
      "hit": false,
      "t": 67333.26600000013,
      "d": 189.81462499999907,
      "v": 127
    },
    {
      "midi": 83,
      "hit": false,
      "t": 67555.48800000014,
      "d": 157.40725000000384,
      "v": 127
    },
    {
      "midi": 80,
      "hit": false,
      "t": 67555.48800000014,
      "d": 217.59237500000745,
      "v": 127
    },
    {
      "midi": 59,
      "hit": false,
      "t": 67555.48800000014,
      "d": 370.3700000000099,
      "v": 127
    },
    {
      "midi": 76,
      "hit": false,
      "t": 67777.71000000015,
      "d": 60.18512500000361,
      "v": 127
    },
    {
      "midi": 71,
      "hit": false,
      "t": 67777.71000000015,
      "d": 398.1477499999892,
      "v": 127
    },
    {
      "midi": 61,
      "hit": false,
      "t": 67999.93200000015,
      "d": 356.48112499999115,
      "v": 127
    },
    {
      "midi": 73,
      "hit": false,
      "t": 68222.15400000014,
      "d": 166.66649999999208,
      "v": 127
    },
    {
      "midi": 76,
      "hit": false,
      "t": 68222.15400000014,
      "d": 351.85149999998976,
      "v": 127
    },
    {
      "midi": 83,
      "hit": false,
      "t": 68222.15400000014,
      "d": 402.77737499999057,
      "v": 127
    },
    {
      "midi": 80,
      "hit": false,
      "t": 68222.15400000014,
      "d": 439.8143749999872,
      "v": 127
    },
    {
      "midi": 52,
      "hit": false,
      "t": 68444.37600000013,
      "d": 384.25887499999953,
      "v": 127
    },
    {
      "midi": 76,
      "hit": false,
      "t": 68666.59800000013,
      "d": 148.14800000000105,
      "v": 127
    },
    {
      "midi": 64,
      "hit": false,
      "t": 68666.59800000013,
      "d": 291.66637500001525,
      "v": 127
    },
    {
      "midi": 85,
      "hit": false,
      "t": 68888.82000000014,
      "d": 217.59237500000745,
      "v": 127
    },
    {
      "midi": 80,
      "hit": false,
      "t": 68888.82000000014,
      "d": 314.8145000000077,
      "v": 127
    },
    {
      "midi": 56,
      "hit": false,
      "t": 68888.82000000014,
      "d": 416.6662500000093,
      "v": 127
    },
    {
      "midi": 76,
      "hit": false,
      "t": 69111.04200000015,
      "d": 148.14800000000105,
      "v": 127
    },
    {
      "midi": 68,
      "hit": false,
      "t": 69111.04200000015,
      "d": 157.40725000000384,
      "v": 127
    },
    {
      "midi": 83,
      "hit": false,
      "t": 69333.26400000014,
      "d": 203.70350000000326,
      "v": 127
    },
    {
      "midi": 80,
      "hit": false,
      "t": 69333.26400000014,
      "d": 254.62937500000407,
      "v": 127
    },
    {
      "midi": 59,
      "hit": false,
      "t": 69333.26400000014,
      "d": 324.0737499999959,
      "v": 127
    },
    {
      "midi": 76,
      "hit": false,
      "t": 69555.48600000015,
      "d": 60.18512499998906,
      "v": 127
    },
    {
      "midi": 71,
      "hit": false,
      "t": 69555.48600000015,
      "d": 365.74037499999395,
      "v": 127
    },
    {
      "midi": 76,
      "hit": false,
      "t": 69777.70800000014,
      "d": 60.18512500000361,
      "v": 127
    },
    {
      "midi": 61,
      "hit": false,
      "t": 69777.70800000014,
      "d": 296.29599999998754,
      "v": 127
    },
    {
      "midi": 73,
      "hit": false,
      "t": 69999.93000000014,
      "d": 138.88874999999825,
      "v": 127
    },
    {
      "midi": 76,
      "hit": false,
      "t": 69999.93000000014,
      "d": 351.85149999998976,
      "v": 127
    },
    {
      "midi": 83,
      "hit": false,
      "t": 69999.93000000014,
      "d": 398.1477499999892,
      "v": 127
    },
    {
      "midi": 80,
      "hit": false,
      "t": 69999.93000000014,
      "d": 481.4809999999852,
      "v": 127
    },
    {
      "midi": 52,
      "hit": false,
      "t": 70222.15200000013,
      "d": 4.629625000001397,
      "v": 127
    },
    {
      "midi": 52,
      "hit": false,
      "t": 70226.78162500013,
      "d": 356.48112499999115,
      "v": 127
    },
    {
      "midi": 76,
      "hit": false,
      "t": 70444.37400000013,
      "d": 138.88874999999825,
      "v": 127
    },
    {
      "midi": 64,
      "hit": false,
      "t": 70444.37400000013,
      "d": 226.8516249999957,
      "v": 127
    },
    {
      "midi": 80,
      "hit": false,
      "t": 70666.59600000012,
      "d": 175.92574999999488,
      "v": 127
    },
    {
      "midi": 85,
      "hit": false,
      "t": 70666.59600000012,
      "d": 194.44425000000047,
      "v": 127
    },
    {
      "midi": 56,
      "hit": false,
      "t": 70666.59600000012,
      "d": 425.92549999999756,
      "v": 127
    },
    {
      "midi": 80,
      "hit": false,
      "t": 70888.81800000012,
      "d": 32.40737499999523,
      "v": 127
    },
    {
      "midi": 76,
      "hit": false,
      "t": 70888.81800000012,
      "d": 97.22212500000023,
      "v": 127
    },
    {
      "midi": 68,
      "hit": false,
      "t": 70888.81800000012,
      "d": 189.81462499999907,
      "v": 127
    },
    {
      "midi": 83,
      "hit": false,
      "t": 71111.04000000012,
      "d": 203.70350000000326,
      "v": 127
    },
    {
      "midi": 80,
      "hit": false,
      "t": 71111.04000000012,
      "d": 236.11087500001304,
      "v": 127
    },
    {
      "midi": 59,
      "hit": false,
      "t": 71111.04000000012,
      "d": 370.3700000000099,
      "v": 127
    },
    {
      "midi": 76,
      "hit": false,
      "t": 71333.26200000013,
      "d": 166.66650000000664,
      "v": 127
    },
    {
      "midi": 71,
      "hit": false,
      "t": 71333.26200000013,
      "d": 398.1477500000183,
      "v": 127
    },
    {
      "midi": 80,
      "hit": false,
      "t": 71555.48400000014,
      "d": 23.148125000006985,
      "v": 127
    },
    {
      "midi": 61,
      "hit": false,
      "t": 71555.48400000014,
      "d": 356.4811250000057,
      "v": 127
    },
    {
      "midi": 73,
      "hit": false,
      "t": 71777.70600000015,
      "d": 162.0368749999907,
      "v": 127
    },
    {
      "midi": 78,
      "hit": false,
      "t": 71777.70600000015,
      "d": 393.5181249999878,
      "v": 127
    },
    {
      "midi": 75,
      "hit": false,
      "t": 71777.70600000015,
      "d": 430.5551249999844,
      "v": 127
    },
    {
      "midi": 47,
      "hit": false,
      "t": 71999.92800000015,
      "d": 384.258874999985,
      "v": 127
    },
    {
      "midi": 71,
      "hit": false,
      "t": 72222.15000000014,
      "d": 134.25912499999686,
      "v": 127
    },
    {
      "midi": 59,
      "hit": false,
      "t": 72222.15000000014,
      "d": 291.6663750000007,
      "v": 127
    },
    {
      "midi": 75,
      "hit": false,
      "t": 72444.37200000013,
      "d": 171.29612500000803,
      "v": 127
    },
    {
      "midi": 80,
      "hit": false,
      "t": 72444.37200000013,
      "d": 194.44425000001502,
      "v": 127
    },
    {
      "midi": 51,
      "hit": false,
      "t": 72444.37200000013,
      "d": 416.6662500000093,
      "v": 127
    },
    {
      "midi": 71,
      "hit": false,
      "t": 72666.59400000014,
      "d": 115.74062500000582,
      "v": 127
    },
    {
      "midi": 63,
      "hit": false,
      "t": 72666.59400000014,
      "d": 162.03687500000524,
      "v": 127
    },
    {
      "midi": 78,
      "hit": false,
      "t": 72888.81600000014,
      "d": 166.66650000000664,
      "v": 127
    },
    {
      "midi": 75,
      "hit": false,
      "t": 72888.81600000014,
      "d": 203.70350000000326,
      "v": 127
    },
    {
      "midi": 54,
      "hit": false,
      "t": 72888.81600000014,
      "d": 324.0737500000105,
      "v": 127
    },
    {
      "midi": 71,
      "hit": false,
      "t": 73111.03800000015,
      "d": 83.33324999999604,
      "v": 127
    },
    {
      "midi": 66,
      "hit": false,
      "t": 73111.03800000015,
      "d": 365.7403750000085,
      "v": 127
    },
    {
      "midi": 75,
      "hit": false,
      "t": 73333.26000000015,
      "d": 32.40737499999523,
      "v": 127
    },
    {
      "midi": 56,
      "hit": false,
      "t": 73333.26000000015,
      "d": 296.29599999998754,
      "v": 127
    },
    {
      "midi": 68,
      "hit": false,
      "t": 73555.48200000015,
      "d": 138.88874999999825,
      "v": 127
    },
    {
      "midi": 71,
      "hit": false,
      "t": 73555.48200000015,
      "d": 342.5922500000015,
      "v": 127
    },
    {
      "midi": 78,
      "hit": false,
      "t": 73555.48200000015,
      "d": 379.62924999999814,
      "v": 127
    },
    {
      "midi": 75,
      "hit": false,
      "t": 73555.48200000015,
      "d": 435.18475000000035,
      "v": 127
    },
    {
      "midi": 47,
      "hit": false,
      "t": 73777.70400000014,
      "d": 4.629625000001397,
      "v": 127
    },
    {
      "midi": 47,
      "hit": false,
      "t": 73782.33362500014,
      "d": 356.4811250000057,
      "v": 127
    },
    {
      "midi": 59,
      "hit": false,
      "t": 73999.92600000015,
      "d": 226.8516249999957,
      "v": 127
    },
    {
      "midi": 75,
      "hit": false,
      "t": 74222.14800000015,
      "d": 157.40725000000384,
      "v": 127
    },
    {
      "midi": 80,
      "hit": false,
      "t": 74222.14800000015,
      "d": 157.40725000000384,
      "v": 127
    },
    {
      "midi": 51,
      "hit": false,
      "t": 74222.14800000015,
      "d": 425.9255000000121,
      "v": 127
    },
    {
      "midi": 71,
      "hit": false,
      "t": 74444.37000000016,
      "d": 83.33324999999604,
      "v": 127
    },
    {
      "midi": 63,
      "hit": false,
      "t": 74444.37000000016,
      "d": 189.81462499999907,
      "v": 127
    },
    {
      "midi": 78,
      "hit": false,
      "t": 74666.59200000016,
      "d": 166.66650000000664,
      "v": 127
    },
    {
      "midi": 75,
      "hit": false,
      "t": 74666.59200000016,
      "d": 208.33312500000466,
      "v": 127
    },
    {
      "midi": 54,
      "hit": false,
      "t": 74666.59200000016,
      "d": 370.3700000000099,
      "v": 127
    },
    {
      "midi": 71,
      "hit": false,
      "t": 74888.81400000017,
      "d": 50.925875000000815,
      "v": 127
    },
    {
      "midi": 66,
      "hit": false,
      "t": 74888.81400000017,
      "d": 398.1477499999892,
      "v": 127
    },
    {
      "midi": 71,
      "hit": false,
      "t": 75111.03600000017,
      "d": 50.925875000000815,
      "v": 127
    },
    {
      "midi": 56,
      "hit": false,
      "t": 75111.03600000017,
      "d": 356.48112499999115,
      "v": 127
    },
    {
      "midi": 68,
      "hit": false,
      "t": 75333.25800000016,
      "d": 166.66649999999208,
      "v": 127
    },
    {
      "midi": 71,
      "hit": false,
      "t": 75333.25800000016,
      "d": 328.7033749999973,
      "v": 127
    },
    {
      "midi": 78,
      "hit": false,
      "t": 75333.25800000016,
      "d": 365.74037499999395,
      "v": 127
    },
    {
      "midi": 75,
      "hit": false,
      "t": 75333.25800000016,
      "d": 416.66624999999476,
      "v": 127
    },
    {
      "midi": 47,
      "hit": false,
      "t": 75555.48000000016,
      "d": 384.25887499999953,
      "v": 127
    },
    {
      "midi": 71,
      "hit": false,
      "t": 75777.70200000015,
      "d": 148.14800000000105,
      "v": 127
    },
    {
      "midi": 59,
      "hit": false,
      "t": 75777.70200000015,
      "d": 291.66637500001525,
      "v": 127
    },
    {
      "midi": 80,
      "hit": false,
      "t": 75999.92400000016,
      "d": 208.33312500000466,
      "v": 127
    },
    {
      "midi": 75,
      "hit": false,
      "t": 75999.92400000016,
      "d": 296.2960000000021,
      "v": 127
    },
    {
      "midi": 51,
      "hit": false,
      "t": 75999.92400000016,
      "d": 416.66624999999476,
      "v": 127
    },
    {
      "midi": 71,
      "hit": false,
      "t": 76222.14600000017,
      "d": 124.99987499999406,
      "v": 127
    },
    {
      "midi": 63,
      "hit": false,
      "t": 76222.14600000017,
      "d": 162.0368749999907,
      "v": 127
    },
    {
      "midi": 78,
      "hit": false,
      "t": 76444.36800000015,
      "d": 199.07387500000186,
      "v": 127
    },
    {
      "midi": 75,
      "hit": false,
      "t": 76444.36800000015,
      "d": 240.74050000001444,
      "v": 127
    },
    {
      "midi": 54,
      "hit": false,
      "t": 76444.36800000015,
      "d": 319.44412500002363,
      "v": 127
    },
    {
      "midi": 71,
      "hit": false,
      "t": 76666.59000000016,
      "d": 74.0740000000078,
      "v": 127
    },
    {
      "midi": 66,
      "hit": false,
      "t": 76666.59000000016,
      "d": 365.7403750000085,
      "v": 127
    },
    {
      "midi": 71,
      "hit": false,
      "t": 76888.81200000017,
      "d": 60.18512500000361,
      "v": 127
    },
    {
      "midi": 56,
      "hit": false,
      "t": 76888.81200000017,
      "d": 296.29599999998754,
      "v": 127
    },
    {
      "midi": 68,
      "hit": false,
      "t": 77111.03400000016,
      "d": 138.88874999999825,
      "v": 127
    },
    {
      "midi": 71,
      "hit": false,
      "t": 77111.03400000016,
      "d": 337.9626250000001,
      "v": 127
    },
    {
      "midi": 78,
      "hit": false,
      "t": 77111.03400000016,
      "d": 388.88850000000093,
      "v": 127
    },
    {
      "midi": 75,
      "hit": false,
      "t": 77111.03400000016,
      "d": 472.221749999997,
      "v": 127
    },
    {
      "midi": 47,
      "hit": false,
      "t": 77333.25600000015,
      "d": 0.9259250000031898,
      "v": 127
    },
    {
      "midi": 47,
      "hit": false,
      "t": 77337.88562500016,
      "d": 356.4811250000057,
      "v": 127
    },
    {
      "midi": 59,
      "hit": false,
      "t": 77555.47800000016,
      "d": 226.8516249999957,
      "v": 127
    },
    {
      "midi": 80,
      "hit": false,
      "t": 77777.70000000016,
      "d": 194.44425000000047,
      "v": 127
    },
    {
      "midi": 75,
      "hit": false,
      "t": 77777.70000000016,
      "d": 282.4071249999979,
      "v": 127
    },
    {
      "midi": 51,
      "hit": false,
      "t": 77777.70000000016,
      "d": 425.92549999999756,
      "v": 127
    },
    {
      "midi": 71,
      "hit": false,
      "t": 77999.92200000015,
      "d": 97.22212500000023,
      "v": 127
    },
    {
      "midi": 63,
      "hit": false,
      "t": 77999.92200000015,
      "d": 189.81462499999907,
      "v": 127
    },
    {
      "midi": 78,
      "hit": false,
      "t": 78222.14400000016,
      "d": 175.92574999999488,
      "v": 127
    },
    {
      "midi": 75,
      "hit": false,
      "t": 78222.14400000016,
      "d": 194.44425000000047,
      "v": 127
    },
    {
      "midi": 54,
      "hit": false,
      "t": 78222.14400000016,
      "d": 370.36999999999534,
      "v": 127
    },
    {
      "midi": 66,
      "hit": false,
      "t": 78444.36600000015,
      "d": 398.1477500000037,
      "v": 127
    },
    {
      "midi": 78,
      "hit": false,
      "t": 78666.58800000015,
      "d": 50.925875000000815,
      "v": 127
    },
    {
      "midi": 75,
      "hit": false,
      "t": 78666.58800000015,
      "d": 60.18512500000361,
      "v": 127
    },
    {
      "midi": 56,
      "hit": false,
      "t": 78666.58800000015,
      "d": 356.4811250000057,
      "v": 127
    },
    {
      "midi": 68,
      "hit": false,
      "t": 78888.81000000016,
      "d": 166.66649999999208,
      "v": 127
    },
    {
      "midi": 83,
      "hit": false,
      "t": 78888.81000000016,
      "d": 421.29587499999616,
      "v": 127
    },
    {
      "midi": 80,
      "hit": false,
      "t": 78888.81000000016,
      "d": 439.81437500000175,
      "v": 127
    },
    {
      "midi": 52,
      "hit": false,
      "t": 79111.03200000015,
      "d": 384.2588750000141,
      "v": 127
    },
    {
      "midi": 76,
      "hit": false,
      "t": 79333.25400000016,
      "d": 148.14800000000105,
      "v": 127
    },
    {
      "midi": 64,
      "hit": false,
      "t": 79333.25400000016,
      "d": 291.66637500001525,
      "v": 127
    },
    {
      "midi": 80,
      "hit": false,
      "t": 79555.47600000017,
      "d": 143.51837499999965,
      "v": 127
    },
    {
      "midi": 85,
      "hit": false,
      "t": 79555.47600000017,
      "d": 203.70350000000326,
      "v": 127
    },
    {
      "midi": 56,
      "hit": false,
      "t": 79555.47600000017,
      "d": 416.6662500000093,
      "v": 127
    },
    {
      "midi": 76,
      "hit": false,
      "t": 79777.69800000018,
      "d": 92.59249999999884,
      "v": 127
    },
    {
      "midi": 68,
      "hit": false,
      "t": 79777.69800000018,
      "d": 162.03687500000524,
      "v": 127
    },
    {
      "midi": 83,
      "hit": false,
      "t": 79999.92000000017,
      "d": 171.29612499999348,
      "v": 127
    },
    {
      "midi": 80,
      "hit": false,
      "t": 79999.92000000017,
      "d": 217.5923749999929,
      "v": 127
    },
    {
      "midi": 59,
      "hit": false,
      "t": 79999.92000000017,
      "d": 324.0737499999959,
      "v": 127
    },
    {
      "midi": 76,
      "hit": false,
      "t": 80222.14200000017,
      "d": 46.29624999999942,
      "v": 127
    },
    {
      "midi": 71,
      "hit": false,
      "t": 80222.14200000017,
      "d": 365.7403750000085,
      "v": 127
    },
    {
      "midi": 61,
      "hit": false,
      "t": 80444.36400000018,
      "d": 296.29599999998754,
      "v": 127
    },
    {
      "midi": 73,
      "hit": false,
      "t": 80666.58600000017,
      "d": 138.88874999999825,
      "v": 127
    },
    {
      "midi": 76,
      "hit": false,
      "t": 80666.58600000017,
      "d": 356.48112499999115,
      "v": 127
    },
    {
      "midi": 83,
      "hit": false,
      "t": 80666.58600000017,
      "d": 402.77737499999057,
      "v": 127
    },
    {
      "midi": 80,
      "hit": false,
      "t": 80666.58600000017,
      "d": 472.2217499999824,
      "v": 127
    },
    {
      "midi": 52,
      "hit": false,
      "t": 80888.80800000016,
      "d": 4.629625000001397,
      "v": 127
    },
    {
      "midi": 52,
      "hit": false,
      "t": 80893.43762500017,
      "d": 356.48112499999115,
      "v": 127
    },
    {
      "midi": 76,
      "hit": false,
      "t": 81111.03000000016,
      "d": 138.88874999999825,
      "v": 127
    },
    {
      "midi": 64,
      "hit": false,
      "t": 81111.03000000016,
      "d": 226.8516249999957,
      "v": 127
    },
    {
      "midi": 80,
      "hit": false,
      "t": 81333.25200000015,
      "d": 162.03687500000524,
      "v": 127
    },
    {
      "midi": 85,
      "hit": false,
      "t": 81333.25200000015,
      "d": 194.44425000000047,
      "v": 127
    },
    {
      "midi": 56,
      "hit": false,
      "t": 81333.25200000015,
      "d": 425.92549999999756,
      "v": 127
    },
    {
      "midi": 80,
      "hit": false,
      "t": 81555.47400000015,
      "d": 37.036999999996624,
      "v": 127
    },
    {
      "midi": 76,
      "hit": false,
      "t": 81555.47400000015,
      "d": 143.51837499999965,
      "v": 127
    },
    {
      "midi": 68,
      "hit": false,
      "t": 81555.47400000015,
      "d": 189.81462499999907,
      "v": 127
    },
    {
      "midi": 83,
      "hit": false,
      "t": 81777.69600000016,
      "d": 166.66650000000664,
      "v": 127
    },
    {
      "midi": 80,
      "hit": false,
      "t": 81777.69600000016,
      "d": 240.74050000001444,
      "v": 127
    },
    {
      "midi": 59,
      "hit": false,
      "t": 81777.69600000016,
      "d": 370.3700000000099,
      "v": 127
    },
    {
      "midi": 71,
      "hit": false,
      "t": 81999.91800000017,
      "d": 398.1477499999892,
      "v": 127
    },
    {
      "midi": 61,
      "hit": false,
      "t": 82222.14000000016,
      "d": 356.48112499999115,
      "v": 127
    },
    {
      "midi": 73,
      "hit": false,
      "t": 82444.36200000015,
      "d": 166.66649999999208,
      "v": 127
    },
    {
      "midi": 76,
      "hit": false,
      "t": 82444.36200000015,
      "d": 342.5922500000015,
      "v": 127
    },
    {
      "midi": 83,
      "hit": false,
      "t": 82444.36200000015,
      "d": 388.88850000000093,
      "v": 127
    },
    {
      "midi": 80,
      "hit": false,
      "t": 82444.36200000015,
      "d": 430.55512499999895,
      "v": 127
    },
    {
      "midi": 52,
      "hit": false,
      "t": 82666.58400000015,
      "d": 384.2588750000141,
      "v": 127
    },
    {
      "midi": 76,
      "hit": false,
      "t": 82888.80600000016,
      "d": 152.77762500000244,
      "v": 127
    },
    {
      "midi": 64,
      "hit": false,
      "t": 82888.80600000016,
      "d": 291.66637500001525,
      "v": 127
    },
    {
      "midi": 85,
      "hit": false,
      "t": 83111.02800000017,
      "d": 199.07387500000186,
      "v": 127
    },
    {
      "midi": 80,
      "hit": false,
      "t": 83111.02800000017,
      "d": 296.2960000000021,
      "v": 127
    },
    {
      "midi": 56,
      "hit": false,
      "t": 83111.02800000017,
      "d": 416.66624999999476,
      "v": 127
    },
    {
      "midi": 76,
      "hit": false,
      "t": 83333.25000000017,
      "d": 120.37024999999267,
      "v": 127
    },
    {
      "midi": 68,
      "hit": false,
      "t": 83333.25000000017,
      "d": 162.0368749999907,
      "v": 127
    },
    {
      "midi": 83,
      "hit": false,
      "t": 83555.47200000015,
      "d": 171.29612499999348,
      "v": 127
    },
    {
      "midi": 80,
      "hit": false,
      "t": 83555.47200000015,
      "d": 222.2219999999943,
      "v": 127
    },
    {
      "midi": 59,
      "hit": false,
      "t": 83555.47200000015,
      "d": 324.0737499999959,
      "v": 127
    },
    {
      "midi": 76,
      "hit": false,
      "t": 83777.69400000015,
      "d": 60.18512500000361,
      "v": 127
    },
    {
      "midi": 71,
      "hit": false,
      "t": 83777.69400000015,
      "d": 365.7403750000085,
      "v": 127
    },
    {
      "midi": 76,
      "hit": false,
      "t": 83999.91600000016,
      "d": 55.55550000000221,
      "v": 127
    },
    {
      "midi": 61,
      "hit": false,
      "t": 83999.91600000016,
      "d": 296.29599999998754,
      "v": 127
    },
    {
      "midi": 73,
      "hit": false,
      "t": 84222.13800000015,
      "d": 138.88874999999825,
      "v": 127
    },
    {
      "midi": 76,
      "hit": false,
      "t": 84222.13800000015,
      "d": 370.36999999999534,
      "v": 127
    },
    {
      "midi": 83,
      "hit": false,
      "t": 84222.13800000015,
      "d": 421.29587499999616,
      "v": 127
    },
    {
      "midi": 80,
      "hit": false,
      "t": 84222.13800000015,
      "d": 458.33287500000733,
      "v": 127
    },
    {
      "midi": 52,
      "hit": false,
      "t": 84444.36000000015,
      "d": 4.629625000001397,
      "v": 127
    },
    {
      "midi": 52,
      "hit": false,
      "t": 84448.98962500015,
      "d": 356.4811250000057,
      "v": 127
    },
    {
      "midi": 76,
      "hit": false,
      "t": 84666.58200000015,
      "d": 138.88874999999825,
      "v": 127
    },
    {
      "midi": 64,
      "hit": false,
      "t": 84666.58200000015,
      "d": 226.8516249999957,
      "v": 127
    },
    {
      "midi": 85,
      "hit": false,
      "t": 84888.80400000015,
      "d": 185.18499999999767,
      "v": 127
    },
    {
      "midi": 80,
      "hit": false,
      "t": 84888.80400000015,
      "d": 226.8516249999957,
      "v": 127
    },
    {
      "midi": 56,
      "hit": false,
      "t": 84888.80400000015,
      "d": 425.92549999999756,
      "v": 127
    },
    {
      "midi": 76,
      "hit": false,
      "t": 85111.02600000014,
      "d": 106.48137500000303,
      "v": 127
    },
    {
      "midi": 68,
      "hit": false,
      "t": 85111.02600000014,
      "d": 189.81462499999907,
      "v": 127
    },
    {
      "midi": 59,
      "hit": false,
      "t": 85333.24800000015,
      "d": 370.36999999999534,
      "v": 127
    },
    {
      "midi": 83,
      "hit": false,
      "t": 85333.24800000015,
      "d": 416.66624999999476,
      "v": 127
    },
    {
      "midi": 80,
      "hit": false,
      "t": 85333.24800000015,
      "d": 444.4439999999886,
      "v": 127
    },
    {
      "midi": 76,
      "hit": false,
      "t": 85555.47000000015,
      "d": 32.40737499999523,
      "v": 127
    },
    {
      "midi": 71,
      "hit": false,
      "t": 85555.47000000015,
      "d": 398.1477500000037,
      "v": 127
    },
    {
      "midi": 76,
      "hit": false,
      "t": 85777.69200000014,
      "d": 60.18512500000361,
      "v": 127
    },
    {
      "midi": 61,
      "hit": false,
      "t": 85777.69200000014,
      "d": 356.4811250000057,
      "v": 127
    },
    {
      "midi": 73,
      "hit": false,
      "t": 85999.91400000015,
      "d": 166.66649999999208,
      "v": 127
    },
    {
      "midi": 78,
      "hit": false,
      "t": 85999.91400000015,
      "d": 439.8143749999872,
      "v": 127
    },
    {
      "midi": 75,
      "hit": false,
      "t": 85999.91400000015,
      "d": 486.1106249999866,
      "v": 127
    },
    {
      "midi": 47,
      "hit": false,
      "t": 86222.13600000014,
      "d": 384.25887499999953,
      "v": 127
    },
    {
      "midi": 71,
      "hit": false,
      "t": 86444.35800000014,
      "d": 152.77762500000244,
      "v": 127
    },
    {
      "midi": 59,
      "hit": false,
      "t": 86444.35800000014,
      "d": 291.66637500001525,
      "v": 127
    },
    {
      "midi": 75,
      "hit": false,
      "t": 86666.58000000015,
      "d": 134.2591250000114,
      "v": 127
    },
    {
      "midi": 80,
      "hit": false,
      "t": 86666.58000000015,
      "d": 134.2591250000114,
      "v": 127
    },
    {
      "midi": 51,
      "hit": false,
      "t": 86666.58000000015,
      "d": 416.6662500000093,
      "v": 127
    },
    {
      "midi": 71,
      "hit": false,
      "t": 86888.80200000016,
      "d": 106.48137500000303,
      "v": 127
    },
    {
      "midi": 63,
      "hit": false,
      "t": 86888.80200000016,
      "d": 162.03687500000524,
      "v": 127
    },
    {
      "midi": 78,
      "hit": false,
      "t": 87111.02400000015,
      "d": 152.77762500000244,
      "v": 127
    },
    {
      "midi": 75,
      "hit": false,
      "t": 87111.02400000015,
      "d": 185.18499999999767,
      "v": 127
    },
    {
      "midi": 54,
      "hit": false,
      "t": 87111.02400000015,
      "d": 324.0737499999959,
      "v": 127
    },
    {
      "midi": 66,
      "hit": false,
      "t": 87333.24600000014,
      "d": 365.7403750000085,
      "v": 127
    },
    {
      "midi": 75,
      "hit": false,
      "t": 87555.46800000015,
      "d": 60.18512500000361,
      "v": 127
    },
    {
      "midi": 56,
      "hit": false,
      "t": 87555.46800000015,
      "d": 296.29599999998754,
      "v": 127
    },
    {
      "midi": 68,
      "hit": false,
      "t": 87777.69000000015,
      "d": 138.88874999999825,
      "v": 127
    },
    {
      "midi": 71,
      "hit": false,
      "t": 87777.69000000015,
      "d": 347.2218750000029,
      "v": 127
    },
    {
      "midi": 78,
      "hit": false,
      "t": 87777.69000000015,
      "d": 407.4070000000065,
      "v": 127
    },
    {
      "midi": 75,
      "hit": false,
      "t": 87777.69000000015,
      "d": 499.99950000000536,
      "v": 127
    },
    {
      "midi": 47,
      "hit": false,
      "t": 87999.91200000014,
      "d": 4.629625000001397,
      "v": 127
    },
    {
      "midi": 47,
      "hit": false,
      "t": 88004.54162500014,
      "d": 356.4811250000057,
      "v": 127
    },
    {
      "midi": 71,
      "hit": false,
      "t": 88222.13400000015,
      "d": 111.11100000000442,
      "v": 127
    },
    {
      "midi": 59,
      "hit": false,
      "t": 88222.13400000015,
      "d": 226.8516249999957,
      "v": 127
    },
    {
      "midi": 75,
      "hit": false,
      "t": 88444.35600000015,
      "d": 171.29612500000803,
      "v": 127
    },
    {
      "midi": 80,
      "hit": false,
      "t": 88444.35600000015,
      "d": 180.55537500001083,
      "v": 127
    },
    {
      "midi": 51,
      "hit": false,
      "t": 88444.35600000015,
      "d": 425.9255000000121,
      "v": 127
    },
    {
      "midi": 75,
      "hit": false,
      "t": 88666.57800000015,
      "d": 74.07399999999325,
      "v": 127
    },
    {
      "midi": 71,
      "hit": false,
      "t": 88666.57800000015,
      "d": 124.99987499999406,
      "v": 127
    },
    {
      "midi": 63,
      "hit": false,
      "t": 88666.57800000015,
      "d": 189.81462499999907,
      "v": 127
    },
    {
      "midi": 78,
      "hit": false,
      "t": 88888.80000000016,
      "d": 175.92574999999488,
      "v": 127
    },
    {
      "midi": 75,
      "hit": false,
      "t": 88888.80000000016,
      "d": 208.3331249999901,
      "v": 127
    },
    {
      "midi": 54,
      "hit": false,
      "t": 88888.80000000016,
      "d": 370.36999999999534,
      "v": 127
    },
    {
      "midi": 71,
      "hit": false,
      "t": 89111.02200000016,
      "d": 69.4443750000064,
      "v": 127
    },
    {
      "midi": 66,
      "hit": false,
      "t": 89111.02200000016,
      "d": 398.1477499999892,
      "v": 127
    },
    {
      "midi": 75,
      "hit": false,
      "t": 89333.24400000015,
      "d": 32.40737499999523,
      "v": 127
    },
    {
      "midi": 56,
      "hit": false,
      "t": 89333.24400000015,
      "d": 356.48112499999115,
      "v": 127
    },
    {
      "midi": 68,
      "hit": false,
      "t": 89555.46600000015,
      "d": 166.66649999999208,
      "v": 127
    },
    {
      "midi": 71,
      "hit": false,
      "t": 89555.46600000015,
      "d": 337.9626250000001,
      "v": 127
    },
    {
      "midi": 78,
      "hit": false,
      "t": 89555.46600000015,
      "d": 388.88850000000093,
      "v": 127
    },
    {
      "midi": 75,
      "hit": false,
      "t": 89555.46600000015,
      "d": 425.92549999999756,
      "v": 127
    },
    {
      "midi": 47,
      "hit": false,
      "t": 89777.68800000014,
      "d": 384.2588750000141,
      "v": 127
    },
    {
      "midi": 71,
      "hit": false,
      "t": 89999.91000000015,
      "d": 152.77762500000244,
      "v": 127
    },
    {
      "midi": 59,
      "hit": false,
      "t": 89999.91000000015,
      "d": 291.66637500001525,
      "v": 127
    },
    {
      "midi": 80,
      "hit": false,
      "t": 90222.13200000016,
      "d": 199.07387500000186,
      "v": 127
    },
    {
      "midi": 75,
      "hit": false,
      "t": 90222.13200000016,
      "d": 291.66637500001525,
      "v": 127
    },
    {
      "midi": 51,
      "hit": false,
      "t": 90222.13200000016,
      "d": 416.6662500000093,
      "v": 127
    },
    {
      "midi": 71,
      "hit": false,
      "t": 90444.35400000017,
      "d": 124.99987500000861,
      "v": 127
    },
    {
      "midi": 63,
      "hit": false,
      "t": 90444.35400000017,
      "d": 162.03687500000524,
      "v": 127
    },
    {
      "midi": 78,
      "hit": false,
      "t": 90666.57600000016,
      "d": 171.29612499999348,
      "v": 127
    },
    {
      "midi": 75,
      "hit": false,
      "t": 90666.57600000016,
      "d": 212.9627499999915,
      "v": 127
    },
    {
      "midi": 54,
      "hit": false,
      "t": 90666.57600000016,
      "d": 324.0737499999959,
      "v": 127
    },
    {
      "midi": 71,
      "hit": false,
      "t": 90888.79800000016,
      "d": 64.814750000005,
      "v": 127
    },
    {
      "midi": 66,
      "hit": false,
      "t": 90888.79800000016,
      "d": 365.7403750000085,
      "v": 127
    },
    {
      "midi": 75,
      "hit": false,
      "t": 91111.02000000016,
      "d": 41.66662499999802,
      "v": 127
    },
    {
      "midi": 56,
      "hit": false,
      "t": 91111.02000000016,
      "d": 296.29599999998754,
      "v": 127
    },
    {
      "midi": 68,
      "hit": false,
      "t": 91333.24200000016,
      "d": 138.88874999999825,
      "v": 127
    },
    {
      "midi": 71,
      "hit": false,
      "t": 91333.24200000016,
      "d": 328.7033749999973,
      "v": 127
    },
    {
      "midi": 78,
      "hit": false,
      "t": 91333.24200000016,
      "d": 356.48112499999115,
      "v": 127
    },
    {
      "midi": 75,
      "hit": false,
      "t": 91333.24200000016,
      "d": 398.1477499999892,
      "v": 127
    },
    {
      "midi": 47,
      "hit": false,
      "t": 91555.46400000015,
      "d": 4.629625000001397,
      "v": 127
    },
    {
      "midi": 47,
      "hit": false,
      "t": 91560.09362500015,
      "d": 356.48112499999115,
      "v": 127
    },
    {
      "midi": 71,
      "hit": false,
      "t": 91777.68600000015,
      "d": 129.62949999999546,
      "v": 127
    },
    {
      "midi": 59,
      "hit": false,
      "t": 91777.68600000015,
      "d": 226.8516249999957,
      "v": 127
    },
    {
      "midi": 75,
      "hit": false,
      "t": 91999.90800000014,
      "d": 162.03687500000524,
      "v": 127
    },
    {
      "midi": 80,
      "hit": false,
      "t": 91999.90800000014,
      "d": 208.33312500000466,
      "v": 127
    },
    {
      "midi": 51,
      "hit": false,
      "t": 91999.90800000014,
      "d": 425.9255000000121,
      "v": 127
    },
    {
      "midi": 75,
      "hit": false,
      "t": 92222.13000000015,
      "d": 74.07399999999325,
      "v": 127
    },
    {
      "midi": 71,
      "hit": false,
      "t": 92222.13000000015,
      "d": 97.22212500000023,
      "v": 127
    },
    {
      "midi": 63,
      "hit": false,
      "t": 92222.13000000015,
      "d": 189.81462499999907,
      "v": 127
    },
    {
      "midi": 75,
      "hit": false,
      "t": 92444.35200000016,
      "d": 249.99974999998813,
      "v": 127
    },
    {
      "midi": 78,
      "hit": false,
      "t": 92444.35200000016,
      "d": 259.2589999999909,
      "v": 127
    },
    {
      "midi": 54,
      "hit": false,
      "t": 92444.35200000016,
      "d": 370.36999999999534,
      "v": 127
    },
    {
      "midi": 71,
      "hit": false,
      "t": 92666.57400000015,
      "d": 189.81462499999907,
      "v": 127
    },
    {
      "midi": 66,
      "hit": false,
      "t": 92666.57400000015,
      "d": 398.1477500000037,
      "v": 127
    },
    {
      "midi": 78,
      "hit": false,
      "t": 92888.79600000015,
      "d": 18.518500000005588,
      "v": 127
    },
    {
      "midi": 75,
      "hit": false,
      "t": 92888.79600000015,
      "d": 32.40737500000978,
      "v": 127
    },
    {
      "midi": 56,
      "hit": false,
      "t": 92888.79600000015,
      "d": 356.4811250000057,
      "v": 127
    },
    {
      "midi": 68,
      "hit": false,
      "t": 93111.01800000016,
      "d": 166.66649999999208,
      "v": 127
    },
    {
      "midi": 76,
      "hit": false,
      "t": 93111.01800000016,
      "d": 300.92562499998894,
      "v": 127
    },
    {
      "midi": 83,
      "hit": false,
      "t": 93111.01800000016,
      "d": 379.6292499999836,
      "v": 127
    },
    {
      "midi": 80,
      "hit": false,
      "t": 93111.01800000016,
      "d": 421.2958749999816,
      "v": 127
    },
    {
      "midi": 52,
      "hit": false,
      "t": 93333.24000000015,
      "d": 384.258874999985,
      "v": 127
    },
    {
      "midi": 76,
      "hit": false,
      "t": 93555.46200000015,
      "d": 129.62949999999546,
      "v": 127
    },
    {
      "midi": 64,
      "hit": false,
      "t": 93555.46200000015,
      "d": 291.6663750000007,
      "v": 127
    },
    {
      "midi": 80,
      "hit": false,
      "t": 93777.68400000014,
      "d": 143.51837499999965,
      "v": 127
    },
    {
      "midi": 85,
      "hit": false,
      "t": 93777.68400000014,
      "d": 217.5923749999929,
      "v": 127
    },
    {
      "midi": 56,
      "hit": false,
      "t": 93777.68400000014,
      "d": 416.6662499999802,
      "v": 127
    },
    {
      "midi": 80,
      "hit": false,
      "t": 93999.90600000013,
      "d": 78.70362499999464,
      "v": 127
    },
    {
      "midi": 76,
      "hit": false,
      "t": 93999.90600000013,
      "d": 120.37024999999267,
      "v": 127
    },
    {
      "midi": 68,
      "hit": false,
      "t": 93999.90600000013,
      "d": 162.0368749999907,
      "v": 127
    },
    {
      "midi": 83,
      "hit": false,
      "t": 94222.12800000011,
      "d": 249.99974999998813,
      "v": 127
    },
    {
      "midi": 80,
      "hit": false,
      "t": 94222.12800000011,
      "d": 259.2589999999909,
      "v": 127
    },
    {
      "midi": 59,
      "hit": false,
      "t": 94222.12800000011,
      "d": 324.0737499999959,
      "v": 127
    },
    {
      "midi": 76,
      "hit": false,
      "t": 94444.35000000011,
      "d": 245.37012500001583,
      "v": 127
    },
    {
      "midi": 71,
      "hit": false,
      "t": 94444.35000000011,
      "d": 365.7403750000085,
      "v": 127
    },
    {
      "midi": 80,
      "hit": false,
      "t": 94666.57200000012,
      "d": 60.18512500000361,
      "v": 127
    },
    {
      "midi": 83,
      "hit": false,
      "t": 94666.57200000012,
      "d": 69.4443750000064,
      "v": 127
    },
    {
      "midi": 61,
      "hit": false,
      "t": 94666.57200000012,
      "d": 296.29599999998754,
      "v": 127
    },
    {
      "midi": 73,
      "hit": false,
      "t": 94888.79400000011,
      "d": 138.88874999999825,
      "v": 127
    },
    {
      "midi": 52,
      "hit": false,
      "t": 95111.0160000001,
      "d": 4.629625000001397,
      "v": 127
    },
    {
      "midi": 92,
      "hit": false,
      "t": 95111.0160000001,
      "d": 83.33324999999604,
      "v": 127
    },
    {
      "midi": 88,
      "hit": false,
      "t": 95111.0160000001,
      "d": 106.48137500000303,
      "v": 127
    },
    {
      "midi": 52,
      "hit": false,
      "t": 95115.6456250001,
      "d": 356.4811250000057,
      "v": 127
    },
    {
      "midi": 88,
      "hit": false,
      "t": 95333.23800000011,
      "d": 83.33324999999604,
      "v": 127
    },
    {
      "midi": 92,
      "hit": false,
      "t": 95333.23800000011,
      "d": 83.33324999999604,
      "v": 127
    },
    {
      "midi": 64,
      "hit": false,
      "t": 95333.23800000011,
      "d": 226.8516249999957,
      "v": 127
    },
    {
      "midi": 88,
      "hit": false,
      "t": 95555.46000000011,
      "d": 87.96287499999744,
      "v": 127
    },
    {
      "midi": 92,
      "hit": false,
      "t": 95555.46000000011,
      "d": 87.96287499999744,
      "v": 127
    },
    {
      "midi": 56,
      "hit": false,
      "t": 95555.46000000011,
      "d": 425.92549999999756,
      "v": 127
    },
    {
      "midi": 88,
      "hit": false,
      "t": 95777.6820000001,
      "d": 97.22212500000023,
      "v": 127
    },
    {
      "midi": 92,
      "hit": false,
      "t": 95777.6820000001,
      "d": 97.22212500000023,
      "v": 127
    },
    {
      "midi": 68,
      "hit": false,
      "t": 95777.6820000001,
      "d": 189.81462499999907,
      "v": 127
    },
    {
      "midi": 88,
      "hit": false,
      "t": 95999.90400000011,
      "d": 97.22212500000023,
      "v": 127
    },
    {
      "midi": 92,
      "hit": false,
      "t": 95999.90400000011,
      "d": 97.22212500000023,
      "v": 127
    },
    {
      "midi": 59,
      "hit": false,
      "t": 95999.90400000011,
      "d": 370.36999999999534,
      "v": 127
    },
    {
      "midi": 92,
      "hit": false,
      "t": 96222.1260000001,
      "d": 87.96287499999744,
      "v": 127
    },
    {
      "midi": 88,
      "hit": false,
      "t": 96222.1260000001,
      "d": 97.22212500000023,
      "v": 127
    },
    {
      "midi": 71,
      "hit": false,
      "t": 96222.1260000001,
      "d": 398.1477500000037,
      "v": 127
    },
    {
      "midi": 92,
      "hit": false,
      "t": 96444.3480000001,
      "d": 115.74062500000582,
      "v": 127
    },
    {
      "midi": 88,
      "hit": false,
      "t": 96444.3480000001,
      "d": 124.99987500000861,
      "v": 127
    },
    {
      "midi": 61,
      "hit": false,
      "t": 96444.3480000001,
      "d": 356.4811250000057,
      "v": 127
    },
    {
      "midi": 88,
      "hit": false,
      "t": 96666.57000000011,
      "d": 97.22212500000023,
      "v": 127
    },
    {
      "midi": 92,
      "hit": false,
      "t": 96666.57000000011,
      "d": 106.48137500000303,
      "v": 127
    },
    {
      "midi": 73,
      "hit": false,
      "t": 96666.57000000011,
      "d": 166.66649999999208,
      "v": 127
    },
    {
      "midi": 88,
      "hit": false,
      "t": 96888.7920000001,
      "d": 92.59249999999884,
      "v": 127
    },
    {
      "midi": 92,
      "hit": false,
      "t": 96888.7920000001,
      "d": 92.59249999999884,
      "v": 127
    },
    {
      "midi": 52,
      "hit": false,
      "t": 96888.7920000001,
      "d": 384.25887499999953,
      "v": 127
    },
    {
      "midi": 88,
      "hit": false,
      "t": 97111.0140000001,
      "d": 101.85175000000163,
      "v": 127
    },
    {
      "midi": 92,
      "hit": false,
      "t": 97111.0140000001,
      "d": 101.85175000000163,
      "v": 127
    },
    {
      "midi": 64,
      "hit": false,
      "t": 97111.0140000001,
      "d": 291.66637500001525,
      "v": 127
    },
    {
      "midi": 88,
      "hit": false,
      "t": 97333.2360000001,
      "d": 97.22212500000023,
      "v": 127
    },
    {
      "midi": 92,
      "hit": false,
      "t": 97333.2360000001,
      "d": 97.22212500000023,
      "v": 127
    },
    {
      "midi": 56,
      "hit": false,
      "t": 97333.2360000001,
      "d": 416.66624999999476,
      "v": 127
    },
    {
      "midi": 92,
      "hit": false,
      "t": 97555.4580000001,
      "d": 97.22212500000023,
      "v": 127
    },
    {
      "midi": 88,
      "hit": false,
      "t": 97555.4580000001,
      "d": 111.11100000000442,
      "v": 127
    },
    {
      "midi": 68,
      "hit": false,
      "t": 97555.4580000001,
      "d": 162.03687500000524,
      "v": 127
    },
    {
      "midi": 88,
      "hit": false,
      "t": 97777.6800000001,
      "d": 92.59249999999884,
      "v": 127
    },
    {
      "midi": 92,
      "hit": false,
      "t": 97777.6800000001,
      "d": 92.59249999999884,
      "v": 127
    },
    {
      "midi": 59,
      "hit": false,
      "t": 97777.6800000001,
      "d": 319.44412499999453,
      "v": 127
    },
    {
      "midi": 92,
      "hit": false,
      "t": 97999.90200000009,
      "d": 97.22212500000023,
      "v": 127
    },
    {
      "midi": 88,
      "hit": false,
      "t": 97999.90200000009,
      "d": 106.48137500000303,
      "v": 127
    },
    {
      "midi": 71,
      "hit": false,
      "t": 97999.90200000009,
      "d": 365.7403750000085,
      "v": 127
    },
    {
      "midi": 88,
      "hit": false,
      "t": 98222.1240000001,
      "d": 92.59249999999884,
      "v": 127
    },
    {
      "midi": 92,
      "hit": false,
      "t": 98222.1240000001,
      "d": 92.59249999999884,
      "v": 127
    },
    {
      "midi": 61,
      "hit": false,
      "t": 98222.1240000001,
      "d": 296.2960000000021,
      "v": 127
    },
    {
      "midi": 88,
      "hit": false,
      "t": 98444.34600000009,
      "d": 50.925875000000815,
      "v": 127
    },
    {
      "midi": 92,
      "hit": false,
      "t": 98444.34600000009,
      "d": 129.62950000001,
      "v": 127
    },
    {
      "midi": 73,
      "hit": false,
      "t": 98444.34600000009,
      "d": 138.8887500000128,
      "v": 127
    },
    {
      "midi": 52,
      "hit": false,
      "t": 98666.5680000001,
      "d": 4.629625000001397,
      "v": 127
    },
    {
      "midi": 92,
      "hit": false,
      "t": 98666.5680000001,
      "d": 92.59249999999884,
      "v": 127
    },
    {
      "midi": 95,
      "hit": false,
      "t": 98666.5680000001,
      "d": 111.11100000000442,
      "v": 127
    },
    {
      "midi": 52,
      "hit": false,
      "t": 98671.1976250001,
      "d": 356.4811250000057,
      "v": 127
    },
    {
      "midi": 92,
      "hit": false,
      "t": 98888.79000000011,
      "d": 83.33324999999604,
      "v": 127
    },
    {
      "midi": 95,
      "hit": false,
      "t": 98888.79000000011,
      "d": 92.59249999999884,
      "v": 127
    },
    {
      "midi": 64,
      "hit": false,
      "t": 98888.79000000011,
      "d": 226.8516249999957,
      "v": 127
    },
    {
      "midi": 92,
      "hit": false,
      "t": 99111.0120000001,
      "d": 78.70362499999464,
      "v": 127
    },
    {
      "midi": 95,
      "hit": false,
      "t": 99111.0120000001,
      "d": 87.96287499999744,
      "v": 127
    },
    {
      "midi": 56,
      "hit": false,
      "t": 99111.0120000001,
      "d": 425.92549999999756,
      "v": 127
    },
    {
      "midi": 92,
      "hit": false,
      "t": 99333.2340000001,
      "d": 78.70362499999464,
      "v": 127
    },
    {
      "midi": 95,
      "hit": false,
      "t": 99333.2340000001,
      "d": 78.70362499999464,
      "v": 127
    },
    {
      "midi": 68,
      "hit": false,
      "t": 99333.2340000001,
      "d": 189.81462499999907,
      "v": 127
    },
    {
      "midi": 95,
      "hit": false,
      "t": 99555.45600000011,
      "d": 83.33324999999604,
      "v": 127
    },
    {
      "midi": 92,
      "hit": false,
      "t": 99555.45600000011,
      "d": 92.59249999999884,
      "v": 127
    },
    {
      "midi": 59,
      "hit": false,
      "t": 99555.45600000011,
      "d": 370.36999999999534,
      "v": 127
    },
    {
      "midi": 92,
      "hit": false,
      "t": 99777.6780000001,
      "d": 78.70362499999464,
      "v": 127
    },
    {
      "midi": 95,
      "hit": false,
      "t": 99777.6780000001,
      "d": 78.70362499999464,
      "v": 127
    },
    {
      "midi": 71,
      "hit": false,
      "t": 99777.6780000001,
      "d": 398.1477499999892,
      "v": 127
    },
    {
      "midi": 92,
      "hit": false,
      "t": 99999.9000000001,
      "d": 83.33324999999604,
      "v": 127
    },
    {
      "midi": 95,
      "hit": false,
      "t": 99999.9000000001,
      "d": 101.85175000000163,
      "v": 127
    },
    {
      "midi": 61,
      "hit": false,
      "t": 99999.9000000001,
      "d": 356.4811250000057,
      "v": 127
    },
    {
      "midi": 95,
      "hit": false,
      "t": 100222.12200000009,
      "d": 115.74062500000582,
      "v": 127
    },
    {
      "midi": 73,
      "hit": false,
      "t": 100222.12200000009,
      "d": 162.03687500000524,
      "v": 127
    },
    {
      "midi": 92,
      "hit": false,
      "t": 100222.12200000009,
      "d": 162.03687500000524,
      "v": 127
    },
    {
      "midi": 87,
      "hit": false,
      "t": 100444.3440000001,
      "d": 92.59249999999884,
      "v": 127
    },
    {
      "midi": 90,
      "hit": false,
      "t": 100444.3440000001,
      "d": 101.85175000000163,
      "v": 127
    },
    {
      "midi": 47,
      "hit": false,
      "t": 100444.3440000001,
      "d": 384.25887499999953,
      "v": 127
    },
    {
      "midi": 87,
      "hit": false,
      "t": 100666.56600000011,
      "d": 87.96287499999744,
      "v": 127
    },
    {
      "midi": 90,
      "hit": false,
      "t": 100666.56600000011,
      "d": 87.96287499999744,
      "v": 127
    },
    {
      "midi": 59,
      "hit": false,
      "t": 100666.56600000011,
      "d": 291.6663750000007,
      "v": 127
    },
    {
      "midi": 87,
      "hit": false,
      "t": 100888.7880000001,
      "d": 92.59250000001339,
      "v": 127
    },
    {
      "midi": 90,
      "hit": false,
      "t": 100888.7880000001,
      "d": 92.59250000001339,
      "v": 127
    },
    {
      "midi": 51,
      "hit": false,
      "t": 100888.7880000001,
      "d": 416.6662500000093,
      "v": 127
    },
    {
      "midi": 90,
      "hit": false,
      "t": 101111.01000000011,
      "d": 83.33324999999604,
      "v": 127
    },
    {
      "midi": 87,
      "hit": false,
      "t": 101111.01000000011,
      "d": 92.59249999999884,
      "v": 127
    },
    {
      "midi": 63,
      "hit": false,
      "t": 101111.01000000011,
      "d": 162.03687500000524,
      "v": 127
    },
    {
      "midi": 87,
      "hit": false,
      "t": 101333.2320000001,
      "d": 87.96287499999744,
      "v": 127
    },
    {
      "midi": 90,
      "hit": false,
      "t": 101333.2320000001,
      "d": 106.48137500000303,
      "v": 127
    },
    {
      "midi": 54,
      "hit": false,
      "t": 101333.2320000001,
      "d": 324.0737500000105,
      "v": 127
    },
    {
      "midi": 87,
      "hit": false,
      "t": 101555.45400000011,
      "d": 74.07399999999325,
      "v": 127
    },
    {
      "midi": 90,
      "hit": false,
      "t": 101555.45400000011,
      "d": 87.96287499999744,
      "v": 127
    },
    {
      "midi": 66,
      "hit": false,
      "t": 101555.45400000011,
      "d": 365.7403750000085,
      "v": 127
    },
    {
      "midi": 87,
      "hit": false,
      "t": 101777.67600000012,
      "d": 87.96287499999744,
      "v": 127
    },
    {
      "midi": 90,
      "hit": false,
      "t": 101777.67600000012,
      "d": 87.96287499999744,
      "v": 127
    },
    {
      "midi": 56,
      "hit": false,
      "t": 101777.67600000012,
      "d": 296.29599999998754,
      "v": 127
    },
    {
      "midi": 87,
      "hit": false,
      "t": 101999.89800000012,
      "d": 101.85174999998708,
      "v": 127
    },
    {
      "midi": 90,
      "hit": false,
      "t": 101999.89800000012,
      "d": 101.85174999998708,
      "v": 127
    },
    {
      "midi": 68,
      "hit": false,
      "t": 101999.89800000012,
      "d": 138.8887499999837,
      "v": 127
    },
    {
      "midi": 47,
      "hit": false,
      "t": 102222.1200000001,
      "d": 4.629625000001397,
      "v": 127
    },
    {
      "midi": 87,
      "hit": false,
      "t": 102222.1200000001,
      "d": 92.59249999999884,
      "v": 127
    },
    {
      "midi": 90,
      "hit": false,
      "t": 102222.1200000001,
      "d": 101.85175000000163,
      "v": 127
    },
    {
      "midi": 93,
      "hit": false,
      "t": 102222.1200000001,
      "d": 101.85175000000163,
      "v": 127
    },
    {
      "midi": 47,
      "hit": false,
      "t": 102226.7496250001,
      "d": 356.4811250000057,
      "v": 127
    },
    {
      "midi": 87,
      "hit": false,
      "t": 102444.3420000001,
      "d": 74.07399999999325,
      "v": 127
    },
    {
      "midi": 90,
      "hit": false,
      "t": 102444.3420000001,
      "d": 83.33324999999604,
      "v": 127
    },
    {
      "midi": 93,
      "hit": false,
      "t": 102444.3420000001,
      "d": 101.85175000000163,
      "v": 127
    },
    {
      "midi": 59,
      "hit": false,
      "t": 102444.3420000001,
      "d": 226.8516249999957,
      "v": 127
    },
    {
      "midi": 90,
      "hit": false,
      "t": 102666.5640000001,
      "d": 87.96287499999744,
      "v": 127
    },
    {
      "midi": 93,
      "hit": false,
      "t": 102666.5640000001,
      "d": 87.96287499999744,
      "v": 127
    },
    {
      "midi": 87,
      "hit": false,
      "t": 102666.5640000001,
      "d": 101.85175000000163,
      "v": 127
    },
    {
      "midi": 51,
      "hit": false,
      "t": 102666.5640000001,
      "d": 425.9255000000121,
      "v": 127
    },
    {
      "midi": 90,
      "hit": false,
      "t": 102888.78600000011,
      "d": 74.07399999999325,
      "v": 127
    },
    {
      "midi": 87,
      "hit": false,
      "t": 102888.78600000011,
      "d": 92.59249999999884,
      "v": 127
    },
    {
      "midi": 93,
      "hit": false,
      "t": 102888.78600000011,
      "d": 92.59249999999884,
      "v": 127
    },
    {
      "midi": 63,
      "hit": false,
      "t": 102888.78600000011,
      "d": 189.81462499999907,
      "v": 127
    },
    {
      "midi": 87,
      "hit": false,
      "t": 103111.00800000012,
      "d": 92.59249999999884,
      "v": 127
    },
    {
      "midi": 90,
      "hit": false,
      "t": 103111.00800000012,
      "d": 92.59249999999884,
      "v": 127
    },
    {
      "midi": 93,
      "hit": false,
      "t": 103111.00800000012,
      "d": 92.59249999999884,
      "v": 127
    },
    {
      "midi": 54,
      "hit": false,
      "t": 103111.00800000012,
      "d": 370.36999999999534,
      "v": 127
    },
    {
      "midi": 87,
      "hit": false,
      "t": 103333.23000000011,
      "d": 78.70362499999464,
      "v": 127
    },
    {
      "midi": 90,
      "hit": false,
      "t": 103333.23000000011,
      "d": 78.70362499999464,
      "v": 127
    },
    {
      "midi": 93,
      "hit": false,
      "t": 103333.23000000011,
      "d": 87.96287499999744,
      "v": 127
    },
    {
      "midi": 66,
      "hit": false,
      "t": 103333.23000000011,
      "d": 398.1477499999892,
      "v": 127
    },
    {
      "midi": 87,
      "hit": false,
      "t": 103555.4520000001,
      "d": 87.96287499999744,
      "v": 127
    },
    {
      "midi": 90,
      "hit": false,
      "t": 103555.4520000001,
      "d": 87.96287499999744,
      "v": 127
    },
    {
      "midi": 93,
      "hit": false,
      "t": 103555.4520000001,
      "d": 101.85175000000163,
      "v": 127
    },
    {
      "midi": 56,
      "hit": false,
      "t": 103555.4520000001,
      "d": 356.48112499999115,
      "v": 127
    },
    {
      "midi": 90,
      "hit": false,
      "t": 103777.6740000001,
      "d": 78.70362499999464,
      "v": 127
    },
    {
      "midi": 87,
      "hit": false,
      "t": 103777.6740000001,
      "d": 101.85175000000163,
      "v": 127
    },
    {
      "midi": 93,
      "hit": false,
      "t": 103777.6740000001,
      "d": 101.85175000000163,
      "v": 127
    },
    {
      "midi": 68,
      "hit": false,
      "t": 103777.6740000001,
      "d": 166.66649999999208,
      "v": 127
    },
    {
      "midi": 87,
      "hit": false,
      "t": 103999.8960000001,
      "d": 92.59249999999884,
      "v": 127
    },
    {
      "midi": 90,
      "hit": false,
      "t": 103999.8960000001,
      "d": 101.85175000000163,
      "v": 127
    },
    {
      "midi": 93,
      "hit": false,
      "t": 103999.8960000001,
      "d": 111.11100000000442,
      "v": 127
    },
    {
      "midi": 47,
      "hit": false,
      "t": 103999.8960000001,
      "d": 384.2588750000141,
      "v": 127
    },
    {
      "midi": 90,
      "hit": false,
      "t": 104222.1180000001,
      "d": 74.07399999999325,
      "v": 127
    },
    {
      "midi": 87,
      "hit": false,
      "t": 104222.1180000001,
      "d": 87.96287499999744,
      "v": 127
    },
    {
      "midi": 93,
      "hit": false,
      "t": 104222.1180000001,
      "d": 101.85175000000163,
      "v": 127
    },
    {
      "midi": 59,
      "hit": false,
      "t": 104222.1180000001,
      "d": 291.66637500001525,
      "v": 127
    },
    {
      "midi": 90,
      "hit": false,
      "t": 104444.34000000011,
      "d": 78.7036250000092,
      "v": 127
    },
    {
      "midi": 87,
      "hit": false,
      "t": 104444.34000000011,
      "d": 97.22212500001478,
      "v": 127
    },
    {
      "midi": 93,
      "hit": false,
      "t": 104444.34000000011,
      "d": 97.22212500001478,
      "v": 127
    },
    {
      "midi": 51,
      "hit": false,
      "t": 104444.34000000011,
      "d": 416.6662500000093,
      "v": 127
    },
    {
      "midi": 90,
      "hit": false,
      "t": 104666.56200000012,
      "d": 55.55550000000221,
      "v": 127
    },
    {
      "midi": 87,
      "hit": false,
      "t": 104666.56200000012,
      "d": 92.59249999999884,
      "v": 127
    },
    {
      "midi": 93,
      "hit": false,
      "t": 104666.56200000012,
      "d": 92.59249999999884,
      "v": 127
    },
    {
      "midi": 63,
      "hit": false,
      "t": 104666.56200000012,
      "d": 162.03687500000524,
      "v": 127
    },
    {
      "midi": 87,
      "hit": false,
      "t": 104888.78400000012,
      "d": 92.59249999999884,
      "v": 127
    },
    {
      "midi": 90,
      "hit": false,
      "t": 104888.78400000012,
      "d": 92.59249999999884,
      "v": 127
    },
    {
      "midi": 93,
      "hit": false,
      "t": 104888.78400000012,
      "d": 92.59249999999884,
      "v": 127
    },
    {
      "midi": 54,
      "hit": false,
      "t": 104888.78400000012,
      "d": 324.0737499999959,
      "v": 127
    },
    {
      "midi": 90,
      "hit": false,
      "t": 105111.00600000011,
      "d": 83.33324999999604,
      "v": 127
    },
    {
      "midi": 87,
      "hit": false,
      "t": 105111.00600000011,
      "d": 92.59249999999884,
      "v": 127
    },
    {
      "midi": 93,
      "hit": false,
      "t": 105111.00600000011,
      "d": 101.85175000000163,
      "v": 127
    },
    {
      "midi": 66,
      "hit": false,
      "t": 105111.00600000011,
      "d": 365.7403750000085,
      "v": 127
    },
    {
      "midi": 90,
      "hit": false,
      "t": 105333.22800000012,
      "d": 87.96287499999744,
      "v": 127
    },
    {
      "midi": 87,
      "hit": false,
      "t": 105333.22800000012,
      "d": 97.22212500000023,
      "v": 127
    },
    {
      "midi": 93,
      "hit": false,
      "t": 105333.22800000012,
      "d": 97.22212500000023,
      "v": 127
    },
    {
      "midi": 56,
      "hit": false,
      "t": 105333.22800000012,
      "d": 291.6663750000007,
      "v": 127
    },
    {
      "midi": 90,
      "hit": false,
      "t": 105555.45000000011,
      "d": 69.4443750000064,
      "v": 127
    },
    {
      "midi": 87,
      "hit": false,
      "t": 105555.45000000011,
      "d": 83.3332500000106,
      "v": 127
    },
    {
      "midi": 93,
      "hit": false,
      "t": 105555.45000000011,
      "d": 97.22212500001478,
      "v": 127
    },
    {
      "midi": 68,
      "hit": false,
      "t": 105555.45000000011,
      "d": 138.8887500000128,
      "v": 127
    },
    {
      "midi": 47,
      "hit": false,
      "t": 105777.67200000012,
      "d": 4.629625000001397,
      "v": 127
    },
    {
      "midi": 87,
      "hit": false,
      "t": 105777.67200000012,
      "d": 83.33324999999604,
      "v": 127
    },
    {
      "midi": 90,
      "hit": false,
      "t": 105777.67200000012,
      "d": 83.33324999999604,
      "v": 127
    },
    {
      "midi": 93,
      "hit": false,
      "t": 105777.67200000012,
      "d": 101.85175000000163,
      "v": 127
    },
    {
      "midi": 47,
      "hit": false,
      "t": 105782.30162500012,
      "d": 356.48112500002026,
      "v": 127
    },
    {
      "midi": 87,
      "hit": false,
      "t": 105999.89400000013,
      "d": 69.4443750000064,
      "v": 127
    },
    {
      "midi": 90,
      "hit": false,
      "t": 105999.89400000013,
      "d": 69.4443750000064,
      "v": 127
    },
    {
      "midi": 93,
      "hit": false,
      "t": 105999.89400000013,
      "d": 87.96287500001199,
      "v": 127
    },
    {
      "midi": 59,
      "hit": false,
      "t": 105999.89400000013,
      "d": 226.85162500001024,
      "v": 127
    },
    {
      "midi": 90,
      "hit": false,
      "t": 106222.11600000014,
      "d": 74.0740000000078,
      "v": 127
    },
    {
      "midi": 87,
      "hit": false,
      "t": 106222.11600000014,
      "d": 83.3332500000106,
      "v": 127
    },
    {
      "midi": 93,
      "hit": false,
      "t": 106222.11600000014,
      "d": 83.3332500000106,
      "v": 127
    },
    {
      "midi": 51,
      "hit": false,
      "t": 106222.11600000014,
      "d": 425.92550000002666,
      "v": 127
    },
    {
      "midi": 87,
      "hit": false,
      "t": 106444.33800000015,
      "d": 69.4443750000064,
      "v": 127
    },
    {
      "midi": 90,
      "hit": false,
      "t": 106444.33800000015,
      "d": 69.4443750000064,
      "v": 127
    },
    {
      "midi": 93,
      "hit": false,
      "t": 106444.33800000015,
      "d": 78.7036250000092,
      "v": 127
    },
    {
      "midi": 63,
      "hit": false,
      "t": 106444.33800000015,
      "d": 189.81462500001362,
      "v": 127
    },
    {
      "midi": 87,
      "hit": false,
      "t": 106666.56000000017,
      "d": 64.814750000005,
      "v": 127
    },
    {
      "midi": 90,
      "hit": false,
      "t": 106666.56000000017,
      "d": 64.814750000005,
      "v": 127
    },
    {
      "midi": 93,
      "hit": false,
      "t": 106666.56000000017,
      "d": 78.7036250000092,
      "v": 127
    },
    {
      "midi": 54,
      "hit": false,
      "t": 106666.56000000017,
      "d": 370.3700000000099,
      "v": 127
    },
    {
      "midi": 90,
      "hit": false,
      "t": 106888.78200000018,
      "d": 64.814750000005,
      "v": 127
    },
    {
      "midi": 87,
      "hit": false,
      "t": 106888.78200000018,
      "d": 74.0740000000078,
      "v": 127
    },
    {
      "midi": 93,
      "hit": false,
      "t": 106888.78200000018,
      "d": 74.0740000000078,
      "v": 127
    },
    {
      "midi": 66,
      "hit": false,
      "t": 106888.78200000018,
      "d": 398.1477499999892,
      "v": 127
    },
    {
      "midi": 87,
      "hit": false,
      "t": 107111.00400000018,
      "d": 87.96287499999744,
      "v": 127
    },
    {
      "midi": 90,
      "hit": false,
      "t": 107111.00400000018,
      "d": 87.96287499999744,
      "v": 127
    },
    {
      "midi": 93,
      "hit": false,
      "t": 107111.00400000018,
      "d": 87.96287499999744,
      "v": 127
    },
    {
      "midi": 56,
      "hit": false,
      "t": 107111.00400000018,
      "d": 356.48112499999115,
      "v": 127
    },
    {
      "midi": 93,
      "hit": false,
      "t": 107333.22600000017,
      "d": 134.25912499999686,
      "v": 127
    },
    {
      "midi": 90,
      "hit": false,
      "t": 107333.22600000017,
      "d": 143.51837499999965,
      "v": 127
    },
    {
      "midi": 87,
      "hit": false,
      "t": 107333.22600000017,
      "d": 152.77762500000244,
      "v": 127
    },
    {
      "midi": 68,
      "hit": false,
      "t": 107333.22600000017,
      "d": 166.66650000000664,
      "v": 127
    },
    {
      "midi": 88,
      "hit": false,
      "t": 107555.44800000018,
      "d": 92.59249999999884,
      "v": 127
    },
    {
      "midi": 92,
      "hit": false,
      "t": 107555.44800000018,
      "d": 101.85175000000163,
      "v": 127
    },
    {
      "midi": 52,
      "hit": false,
      "t": 107555.44800000018,
      "d": 384.2588750000141,
      "v": 127
    },
    {
      "midi": 88,
      "hit": false,
      "t": 107777.67000000019,
      "d": 97.22212500000023,
      "v": 127
    },
    {
      "midi": 92,
      "hit": false,
      "t": 107777.67000000019,
      "d": 97.22212500000023,
      "v": 127
    },
    {
      "midi": 64,
      "hit": false,
      "t": 107777.67000000019,
      "d": 291.66637500001525,
      "v": 127
    },
    {
      "midi": 92,
      "hit": false,
      "t": 107999.8920000002,
      "d": 83.3332500000106,
      "v": 127
    },
    {
      "midi": 88,
      "hit": false,
      "t": 107999.8920000002,
      "d": 97.22212500001478,
      "v": 127
    },
    {
      "midi": 56,
      "hit": false,
      "t": 107999.8920000002,
      "d": 416.6662500000093,
      "v": 127
    },
    {
      "midi": 92,
      "hit": false,
      "t": 108222.1140000002,
      "d": 78.70362499999464,
      "v": 127
    },
    {
      "midi": 88,
      "hit": false,
      "t": 108222.1140000002,
      "d": 97.22212500000023,
      "v": 127
    },
    {
      "midi": 68,
      "hit": false,
      "t": 108222.1140000002,
      "d": 162.03687500000524,
      "v": 127
    },
    {
      "midi": 88,
      "hit": false,
      "t": 108444.3360000002,
      "d": 87.96287499999744,
      "v": 127
    },
    {
      "midi": 92,
      "hit": false,
      "t": 108444.3360000002,
      "d": 87.96287499999744,
      "v": 127
    },
    {
      "midi": 59,
      "hit": false,
      "t": 108444.3360000002,
      "d": 319.44412499999453,
      "v": 127
    },
    {
      "midi": 88,
      "hit": false,
      "t": 108666.5580000002,
      "d": 87.96287499999744,
      "v": 127
    },
    {
      "midi": 92,
      "hit": false,
      "t": 108666.5580000002,
      "d": 97.22212500000023,
      "v": 127
    },
    {
      "midi": 71,
      "hit": false,
      "t": 108666.5580000002,
      "d": 365.74037499999395,
      "v": 127
    },
    {
      "midi": 88,
      "hit": false,
      "t": 108888.78000000019,
      "d": 87.96287499999744,
      "v": 127
    },
    {
      "midi": 92,
      "hit": false,
      "t": 108888.78000000019,
      "d": 97.22212500000023,
      "v": 127
    },
    {
      "midi": 61,
      "hit": false,
      "t": 108888.78000000019,
      "d": 296.29599999998754,
      "v": 127
    },
    {
      "midi": 92,
      "hit": false,
      "t": 109111.00200000018,
      "d": 106.48137499998847,
      "v": 127
    },
    {
      "midi": 88,
      "hit": false,
      "t": 109111.00200000018,
      "d": 129.62949999999546,
      "v": 127
    },
    {
      "midi": 73,
      "hit": false,
      "t": 109111.00200000018,
      "d": 138.88874999999825,
      "v": 127
    },
    {
      "midi": 52,
      "hit": false,
      "t": 109333.22400000018,
      "d": 4.629625000001397,
      "v": 127
    },
    {
      "midi": 92,
      "hit": false,
      "t": 109333.22400000018,
      "d": 83.33324999999604,
      "v": 127
    },
    {
      "midi": 88,
      "hit": false,
      "t": 109333.22400000018,
      "d": 106.48137500000303,
      "v": 127
    },
    {
      "midi": 52,
      "hit": false,
      "t": 109337.85362500018,
      "d": 356.4811250000057,
      "v": 127
    },
    {
      "midi": 88,
      "hit": false,
      "t": 109555.44600000019,
      "d": 83.33324999999604,
      "v": 127
    },
    {
      "midi": 92,
      "hit": false,
      "t": 109555.44600000019,
      "d": 83.33324999999604,
      "v": 127
    },
    {
      "midi": 64,
      "hit": false,
      "t": 109555.44600000019,
      "d": 226.8516249999957,
      "v": 127
    },
    {
      "midi": 92,
      "hit": false,
      "t": 109777.66800000018,
      "d": 83.33324999999604,
      "v": 127
    },
    {
      "midi": 88,
      "hit": false,
      "t": 109777.66800000018,
      "d": 92.59249999999884,
      "v": 127
    },
    {
      "midi": 56,
      "hit": false,
      "t": 109777.66800000018,
      "d": 425.92549999999756,
      "v": 127
    },
    {
      "midi": 88,
      "hit": false,
      "t": 109999.89000000017,
      "d": 97.22212500000023,
      "v": 127
    },
    {
      "midi": 92,
      "hit": false,
      "t": 109999.89000000017,
      "d": 97.22212500000023,
      "v": 127
    },
    {
      "midi": 68,
      "hit": false,
      "t": 109999.89000000017,
      "d": 189.81462499999907,
      "v": 127
    },
    {
      "midi": 88,
      "hit": false,
      "t": 110222.11200000018,
      "d": 97.22212500000023,
      "v": 127
    },
    {
      "midi": 92,
      "hit": false,
      "t": 110222.11200000018,
      "d": 97.22212500000023,
      "v": 127
    },
    {
      "midi": 59,
      "hit": false,
      "t": 110222.11200000018,
      "d": 370.36999999999534,
      "v": 127
    },
    {
      "midi": 92,
      "hit": false,
      "t": 110444.33400000018,
      "d": 87.96287499999744,
      "v": 127
    },
    {
      "midi": 88,
      "hit": false,
      "t": 110444.33400000018,
      "d": 97.22212500000023,
      "v": 127
    },
    {
      "midi": 71,
      "hit": false,
      "t": 110444.33400000018,
      "d": 398.1477500000037,
      "v": 127
    },
    {
      "midi": 92,
      "hit": false,
      "t": 110666.55600000017,
      "d": 115.74062500000582,
      "v": 127
    },
    {
      "midi": 88,
      "hit": false,
      "t": 110666.55600000017,
      "d": 124.99987500000861,
      "v": 127
    },
    {
      "midi": 61,
      "hit": false,
      "t": 110666.55600000017,
      "d": 356.4811250000057,
      "v": 127
    },
    {
      "midi": 88,
      "hit": false,
      "t": 110888.77800000018,
      "d": 97.22212500000023,
      "v": 127
    },
    {
      "midi": 92,
      "hit": false,
      "t": 110888.77800000018,
      "d": 106.48137500000303,
      "v": 127
    },
    {
      "midi": 73,
      "hit": false,
      "t": 110888.77800000018,
      "d": 166.66649999999208,
      "v": 127
    },
    {
      "midi": 88,
      "hit": false,
      "t": 111111.00000000017,
      "d": 92.59249999999884,
      "v": 127
    },
    {
      "midi": 92,
      "hit": false,
      "t": 111111.00000000017,
      "d": 92.59249999999884,
      "v": 127
    },
    {
      "midi": 52,
      "hit": false,
      "t": 111111.00000000017,
      "d": 384.25887499999953,
      "v": 127
    },
    {
      "midi": 88,
      "hit": false,
      "t": 111333.22200000017,
      "d": 101.85175000000163,
      "v": 127
    },
    {
      "midi": 92,
      "hit": false,
      "t": 111333.22200000017,
      "d": 101.85175000000163,
      "v": 127
    },
    {
      "midi": 64,
      "hit": false,
      "t": 111333.22200000017,
      "d": 291.66637500001525,
      "v": 127
    },
    {
      "midi": 88,
      "hit": false,
      "t": 111555.44400000018,
      "d": 97.22212500000023,
      "v": 127
    },
    {
      "midi": 92,
      "hit": false,
      "t": 111555.44400000018,
      "d": 97.22212500000023,
      "v": 127
    },
    {
      "midi": 56,
      "hit": false,
      "t": 111555.44400000018,
      "d": 416.66624999999476,
      "v": 127
    },
    {
      "midi": 92,
      "hit": false,
      "t": 111777.66600000017,
      "d": 97.22212500000023,
      "v": 127
    },
    {
      "midi": 88,
      "hit": false,
      "t": 111777.66600000017,
      "d": 111.11100000000442,
      "v": 127
    },
    {
      "midi": 68,
      "hit": false,
      "t": 111777.66600000017,
      "d": 162.03687500000524,
      "v": 127
    },
    {
      "midi": 88,
      "hit": false,
      "t": 111999.88800000017,
      "d": 92.59249999999884,
      "v": 127
    },
    {
      "midi": 92,
      "hit": false,
      "t": 111999.88800000017,
      "d": 92.59249999999884,
      "v": 127
    },
    {
      "midi": 59,
      "hit": false,
      "t": 111999.88800000017,
      "d": 319.44412499999453,
      "v": 127
    },
    {
      "midi": 92,
      "hit": false,
      "t": 112222.11000000016,
      "d": 97.22212500000023,
      "v": 127
    },
    {
      "midi": 88,
      "hit": false,
      "t": 112222.11000000016,
      "d": 106.48137500000303,
      "v": 127
    },
    {
      "midi": 71,
      "hit": false,
      "t": 112222.11000000016,
      "d": 365.7403750000085,
      "v": 127
    },
    {
      "midi": 88,
      "hit": false,
      "t": 112444.33200000017,
      "d": 87.96287499999744,
      "v": 127
    },
    {
      "midi": 92,
      "hit": false,
      "t": 112444.33200000017,
      "d": 87.96287499999744,
      "v": 127
    },
    {
      "midi": 61,
      "hit": false,
      "t": 112444.33200000017,
      "d": 296.2960000000021,
      "v": 127
    },
    {
      "midi": 88,
      "hit": false,
      "t": 112666.55400000016,
      "d": 50.925875000000815,
      "v": 127
    },
    {
      "midi": 92,
      "hit": false,
      "t": 112666.55400000016,
      "d": 129.62950000001,
      "v": 127
    },
    {
      "midi": 73,
      "hit": false,
      "t": 112666.55400000016,
      "d": 138.8887500000128,
      "v": 127
    },
    {
      "midi": 52,
      "hit": false,
      "t": 112888.77600000017,
      "d": 0.9259250000031898,
      "v": 127
    },
    {
      "midi": 92,
      "hit": false,
      "t": 112888.77600000017,
      "d": 92.59249999999884,
      "v": 127
    },
    {
      "midi": 95,
      "hit": false,
      "t": 112888.77600000017,
      "d": 111.11100000000442,
      "v": 127
    },
    {
      "midi": 52,
      "hit": false,
      "t": 112893.40562500017,
      "d": 356.4811250000057,
      "v": 127
    },
    {
      "midi": 92,
      "hit": false,
      "t": 113110.99800000018,
      "d": 83.33324999999604,
      "v": 127
    },
    {
      "midi": 95,
      "hit": false,
      "t": 113110.99800000018,
      "d": 92.59249999999884,
      "v": 127
    },
    {
      "midi": 64,
      "hit": false,
      "t": 113110.99800000018,
      "d": 226.8516249999957,
      "v": 127
    },
    {
      "midi": 92,
      "hit": false,
      "t": 113333.22000000018,
      "d": 78.70362499999464,
      "v": 127
    },
    {
      "midi": 95,
      "hit": false,
      "t": 113333.22000000018,
      "d": 87.96287499999744,
      "v": 127
    },
    {
      "midi": 56,
      "hit": false,
      "t": 113333.22000000018,
      "d": 425.92549999999756,
      "v": 127
    },
    {
      "midi": 92,
      "hit": false,
      "t": 113555.44200000017,
      "d": 78.70362499999464,
      "v": 127
    },
    {
      "midi": 95,
      "hit": false,
      "t": 113555.44200000017,
      "d": 78.70362499999464,
      "v": 127
    },
    {
      "midi": 68,
      "hit": false,
      "t": 113555.44200000017,
      "d": 189.81462499999907,
      "v": 127
    },
    {
      "midi": 95,
      "hit": false,
      "t": 113777.66400000018,
      "d": 83.33324999999604,
      "v": 127
    },
    {
      "midi": 92,
      "hit": false,
      "t": 113777.66400000018,
      "d": 92.59249999999884,
      "v": 127
    },
    {
      "midi": 59,
      "hit": false,
      "t": 113777.66400000018,
      "d": 370.36999999999534,
      "v": 127
    },
    {
      "midi": 92,
      "hit": false,
      "t": 113999.88600000017,
      "d": 78.70362499999464,
      "v": 127
    },
    {
      "midi": 95,
      "hit": false,
      "t": 113999.88600000017,
      "d": 78.70362499999464,
      "v": 127
    },
    {
      "midi": 71,
      "hit": false,
      "t": 113999.88600000017,
      "d": 398.1477499999892,
      "v": 127
    },
    {
      "midi": 92,
      "hit": false,
      "t": 114222.10800000017,
      "d": 83.33324999999604,
      "v": 127
    },
    {
      "midi": 95,
      "hit": false,
      "t": 114222.10800000017,
      "d": 101.85175000000163,
      "v": 127
    },
    {
      "midi": 61,
      "hit": false,
      "t": 114222.10800000017,
      "d": 356.4811250000057,
      "v": 127
    },
    {
      "midi": 95,
      "hit": false,
      "t": 114444.33000000016,
      "d": 115.74062500000582,
      "v": 127
    },
    {
      "midi": 73,
      "hit": false,
      "t": 114444.33000000016,
      "d": 162.03687500000524,
      "v": 127
    },
    {
      "midi": 92,
      "hit": false,
      "t": 114444.33000000016,
      "d": 162.03687500000524,
      "v": 127
    },
    {
      "midi": 87,
      "hit": false,
      "t": 114666.55200000017,
      "d": 92.59249999999884,
      "v": 127
    },
    {
      "midi": 90,
      "hit": false,
      "t": 114666.55200000017,
      "d": 101.85175000000163,
      "v": 127
    },
    {
      "midi": 47,
      "hit": false,
      "t": 114666.55200000017,
      "d": 384.25887499999953,
      "v": 127
    },
    {
      "midi": 87,
      "hit": false,
      "t": 114888.77400000018,
      "d": 87.96287499999744,
      "v": 127
    },
    {
      "midi": 90,
      "hit": false,
      "t": 114888.77400000018,
      "d": 87.96287499999744,
      "v": 127
    },
    {
      "midi": 59,
      "hit": false,
      "t": 114888.77400000018,
      "d": 291.6663750000007,
      "v": 127
    },
    {
      "midi": 87,
      "hit": false,
      "t": 115110.99600000017,
      "d": 92.59250000001339,
      "v": 127
    },
    {
      "midi": 90,
      "hit": false,
      "t": 115110.99600000017,
      "d": 92.59250000001339,
      "v": 127
    },
    {
      "midi": 51,
      "hit": false,
      "t": 115110.99600000017,
      "d": 416.6662500000093,
      "v": 127
    },
    {
      "midi": 90,
      "hit": false,
      "t": 115333.21800000018,
      "d": 83.33324999999604,
      "v": 127
    },
    {
      "midi": 87,
      "hit": false,
      "t": 115333.21800000018,
      "d": 92.59249999999884,
      "v": 127
    },
    {
      "midi": 63,
      "hit": false,
      "t": 115333.21800000018,
      "d": 162.03687500000524,
      "v": 127
    },
    {
      "midi": 87,
      "hit": false,
      "t": 115555.44000000018,
      "d": 87.96287499999744,
      "v": 127
    },
    {
      "midi": 90,
      "hit": false,
      "t": 115555.44000000018,
      "d": 106.48137500000303,
      "v": 127
    },
    {
      "midi": 54,
      "hit": false,
      "t": 115555.44000000018,
      "d": 324.0737500000105,
      "v": 127
    },
    {
      "midi": 87,
      "hit": false,
      "t": 115777.66200000019,
      "d": 74.07399999999325,
      "v": 127
    },
    {
      "midi": 90,
      "hit": false,
      "t": 115777.66200000019,
      "d": 87.96287499999744,
      "v": 127
    },
    {
      "midi": 66,
      "hit": false,
      "t": 115777.66200000019,
      "d": 365.7403750000085,
      "v": 127
    },
    {
      "midi": 87,
      "hit": false,
      "t": 115999.8840000002,
      "d": 87.96287499999744,
      "v": 127
    },
    {
      "midi": 90,
      "hit": false,
      "t": 115999.8840000002,
      "d": 87.96287499999744,
      "v": 127
    },
    {
      "midi": 56,
      "hit": false,
      "t": 115999.8840000002,
      "d": 296.29599999998754,
      "v": 127
    },
    {
      "midi": 87,
      "hit": false,
      "t": 116222.10600000019,
      "d": 101.85174999998708,
      "v": 127
    },
    {
      "midi": 90,
      "hit": false,
      "t": 116222.10600000019,
      "d": 101.85174999998708,
      "v": 127
    },
    {
      "midi": 68,
      "hit": false,
      "t": 116222.10600000019,
      "d": 138.8887499999837,
      "v": 127
    },
    {
      "midi": 47,
      "hit": false,
      "t": 116444.32800000017,
      "d": 4.629625000001397,
      "v": 127
    },
    {
      "midi": 87,
      "hit": false,
      "t": 116444.32800000017,
      "d": 92.59249999999884,
      "v": 127
    },
    {
      "midi": 90,
      "hit": false,
      "t": 116444.32800000017,
      "d": 101.85175000000163,
      "v": 127
    },
    {
      "midi": 93,
      "hit": false,
      "t": 116444.32800000017,
      "d": 101.85175000000163,
      "v": 127
    },
    {
      "midi": 47,
      "hit": false,
      "t": 116448.95762500017,
      "d": 356.4811250000057,
      "v": 127
    },
    {
      "midi": 87,
      "hit": false,
      "t": 116666.55000000018,
      "d": 74.07399999999325,
      "v": 127
    },
    {
      "midi": 90,
      "hit": false,
      "t": 116666.55000000018,
      "d": 83.33324999999604,
      "v": 127
    },
    {
      "midi": 93,
      "hit": false,
      "t": 116666.55000000018,
      "d": 101.85175000000163,
      "v": 127
    },
    {
      "midi": 59,
      "hit": false,
      "t": 116666.55000000018,
      "d": 226.8516249999957,
      "v": 127
    },
    {
      "midi": 90,
      "hit": false,
      "t": 116888.77200000017,
      "d": 87.96287499999744,
      "v": 127
    },
    {
      "midi": 93,
      "hit": false,
      "t": 116888.77200000017,
      "d": 87.96287499999744,
      "v": 127
    },
    {
      "midi": 87,
      "hit": false,
      "t": 116888.77200000017,
      "d": 101.85175000000163,
      "v": 127
    },
    {
      "midi": 51,
      "hit": false,
      "t": 116888.77200000017,
      "d": 425.92550000002666,
      "v": 127
    },
    {
      "midi": 90,
      "hit": false,
      "t": 117110.99400000018,
      "d": 69.4443750000064,
      "v": 127
    },
    {
      "midi": 87,
      "hit": false,
      "t": 117110.99400000018,
      "d": 92.59250000001339,
      "v": 127
    },
    {
      "midi": 93,
      "hit": false,
      "t": 117110.99400000018,
      "d": 92.59250000001339,
      "v": 127
    },
    {
      "midi": 63,
      "hit": false,
      "t": 117110.99400000018,
      "d": 189.81462500001362,
      "v": 127
    },
    {
      "midi": 87,
      "hit": false,
      "t": 117333.2160000002,
      "d": 92.59249999999884,
      "v": 127
    },
    {
      "midi": 90,
      "hit": false,
      "t": 117333.2160000002,
      "d": 92.59249999999884,
      "v": 127
    },
    {
      "midi": 93,
      "hit": false,
      "t": 117333.2160000002,
      "d": 92.59249999999884,
      "v": 127
    },
    {
      "midi": 54,
      "hit": false,
      "t": 117333.2160000002,
      "d": 370.36999999999534,
      "v": 127
    },
    {
      "midi": 87,
      "hit": false,
      "t": 117555.4380000002,
      "d": 78.70362499999464,
      "v": 127
    },
    {
      "midi": 90,
      "hit": false,
      "t": 117555.4380000002,
      "d": 78.70362499999464,
      "v": 127
    },
    {
      "midi": 93,
      "hit": false,
      "t": 117555.4380000002,
      "d": 87.96287499999744,
      "v": 127
    },
    {
      "midi": 66,
      "hit": false,
      "t": 117555.4380000002,
      "d": 398.1477499999892,
      "v": 127
    },
    {
      "midi": 87,
      "hit": false,
      "t": 117777.66000000019,
      "d": 83.33324999999604,
      "v": 127
    },
    {
      "midi": 90,
      "hit": false,
      "t": 117777.66000000019,
      "d": 83.33324999999604,
      "v": 127
    },
    {
      "midi": 93,
      "hit": false,
      "t": 117777.66000000019,
      "d": 101.85175000000163,
      "v": 127
    },
    {
      "midi": 56,
      "hit": false,
      "t": 117777.66000000019,
      "d": 356.48112499999115,
      "v": 127
    },
    {
      "midi": 90,
      "hit": false,
      "t": 117999.88200000019,
      "d": 78.70362499999464,
      "v": 127
    },
    {
      "midi": 87,
      "hit": false,
      "t": 117999.88200000019,
      "d": 101.85175000000163,
      "v": 127
    },
    {
      "midi": 93,
      "hit": false,
      "t": 117999.88200000019,
      "d": 101.85175000000163,
      "v": 127
    },
    {
      "midi": 68,
      "hit": false,
      "t": 117999.88200000019,
      "d": 166.66649999999208,
      "v": 127
    },
    {
      "midi": 87,
      "hit": false,
      "t": 118222.10400000018,
      "d": 92.59249999999884,
      "v": 127
    },
    {
      "midi": 90,
      "hit": false,
      "t": 118222.10400000018,
      "d": 101.85175000000163,
      "v": 127
    },
    {
      "midi": 93,
      "hit": false,
      "t": 118222.10400000018,
      "d": 111.11100000000442,
      "v": 127
    },
    {
      "midi": 47,
      "hit": false,
      "t": 118222.10400000018,
      "d": 384.25887500002864,
      "v": 127
    },
    {
      "midi": 90,
      "hit": false,
      "t": 118444.32600000019,
      "d": 69.4443750000064,
      "v": 127
    },
    {
      "midi": 87,
      "hit": false,
      "t": 118444.32600000019,
      "d": 87.96287500001199,
      "v": 127
    },
    {
      "midi": 93,
      "hit": false,
      "t": 118444.32600000019,
      "d": 101.85175000001618,
      "v": 127
    },
    {
      "midi": 59,
      "hit": false,
      "t": 118444.32600000019,
      "d": 291.6663750000298,
      "v": 127
    },
    {
      "midi": 90,
      "hit": false,
      "t": 118666.54800000021,
      "d": 78.7036250000092,
      "v": 127
    },
    {
      "midi": 87,
      "hit": false,
      "t": 118666.54800000021,
      "d": 97.22212500001478,
      "v": 127
    },
    {
      "midi": 93,
      "hit": false,
      "t": 118666.54800000021,
      "d": 97.22212500001478,
      "v": 127
    },
    {
      "midi": 51,
      "hit": false,
      "t": 118666.54800000021,
      "d": 416.6662500000093,
      "v": 127
    },
    {
      "midi": 90,
      "hit": false,
      "t": 118888.77000000022,
      "d": 55.55550000000221,
      "v": 127
    },
    {
      "midi": 87,
      "hit": false,
      "t": 118888.77000000022,
      "d": 92.59249999999884,
      "v": 127
    },
    {
      "midi": 93,
      "hit": false,
      "t": 118888.77000000022,
      "d": 92.59249999999884,
      "v": 127
    },
    {
      "midi": 63,
      "hit": false,
      "t": 118888.77000000022,
      "d": 162.03687500000524,
      "v": 127
    },
    {
      "midi": 87,
      "hit": false,
      "t": 119110.99200000022,
      "d": 92.59249999999884,
      "v": 127
    },
    {
      "midi": 90,
      "hit": false,
      "t": 119110.99200000022,
      "d": 92.59249999999884,
      "v": 127
    },
    {
      "midi": 93,
      "hit": false,
      "t": 119110.99200000022,
      "d": 92.59249999999884,
      "v": 127
    },
    {
      "midi": 54,
      "hit": false,
      "t": 119110.99200000022,
      "d": 324.0737499999959,
      "v": 127
    },
    {
      "midi": 90,
      "hit": false,
      "t": 119333.21400000021,
      "d": 83.33324999999604,
      "v": 127
    },
    {
      "midi": 87,
      "hit": false,
      "t": 119333.21400000021,
      "d": 92.59249999999884,
      "v": 127
    },
    {
      "midi": 93,
      "hit": false,
      "t": 119333.21400000021,
      "d": 101.85175000000163,
      "v": 127
    },
    {
      "midi": 66,
      "hit": false,
      "t": 119333.21400000021,
      "d": 365.7403750000085,
      "v": 127
    },
    {
      "midi": 90,
      "hit": false,
      "t": 119555.43600000022,
      "d": 87.96287499999744,
      "v": 127
    },
    {
      "midi": 87,
      "hit": false,
      "t": 119555.43600000022,
      "d": 97.22212500000023,
      "v": 127
    },
    {
      "midi": 93,
      "hit": false,
      "t": 119555.43600000022,
      "d": 97.22212500000023,
      "v": 127
    },
    {
      "midi": 56,
      "hit": false,
      "t": 119555.43600000022,
      "d": 291.6663750000007,
      "v": 127
    },
    {
      "midi": 90,
      "hit": false,
      "t": 119777.65800000021,
      "d": 69.4443750000064,
      "v": 127
    },
    {
      "midi": 87,
      "hit": false,
      "t": 119777.65800000021,
      "d": 83.3332500000106,
      "v": 127
    },
    {
      "midi": 93,
      "hit": false,
      "t": 119777.65800000021,
      "d": 97.22212500001478,
      "v": 127
    },
    {
      "midi": 68,
      "hit": false,
      "t": 119777.65800000021,
      "d": 138.8887500000128,
      "v": 127
    },
    {
      "midi": 47,
      "hit": false,
      "t": 119999.88000000022,
      "d": 4.629625000001397,
      "v": 127
    },
    {
      "midi": 87,
      "hit": false,
      "t": 119999.88000000022,
      "d": 83.33324999999604,
      "v": 127
    },
    {
      "midi": 90,
      "hit": false,
      "t": 119999.88000000022,
      "d": 83.33324999999604,
      "v": 127
    },
    {
      "midi": 93,
      "hit": false,
      "t": 119999.88000000022,
      "d": 101.85175000000163,
      "v": 127
    },
    {
      "midi": 47,
      "hit": false,
      "t": 120004.50962500022,
      "d": 356.48112500002026,
      "v": 127
    },
    {
      "midi": 87,
      "hit": false,
      "t": 120222.10200000023,
      "d": 69.4443750000064,
      "v": 127
    },
    {
      "midi": 90,
      "hit": false,
      "t": 120222.10200000023,
      "d": 69.4443750000064,
      "v": 127
    },
    {
      "midi": 93,
      "hit": false,
      "t": 120222.10200000023,
      "d": 87.96287500001199,
      "v": 127
    },
    {
      "midi": 59,
      "hit": false,
      "t": 120222.10200000023,
      "d": 226.85162500001024,
      "v": 127
    },
    {
      "midi": 90,
      "hit": false,
      "t": 120444.32400000024,
      "d": 74.0740000000078,
      "v": 127
    },
    {
      "midi": 87,
      "hit": false,
      "t": 120444.32400000024,
      "d": 83.3332500000106,
      "v": 127
    },
    {
      "midi": 93,
      "hit": false,
      "t": 120444.32400000024,
      "d": 83.3332500000106,
      "v": 127
    },
    {
      "midi": 51,
      "hit": false,
      "t": 120444.32400000024,
      "d": 425.92550000002666,
      "v": 127
    },
    {
      "midi": 87,
      "hit": false,
      "t": 120666.54600000025,
      "d": 69.4443750000064,
      "v": 127
    },
    {
      "midi": 90,
      "hit": false,
      "t": 120666.54600000025,
      "d": 69.4443750000064,
      "v": 127
    },
    {
      "midi": 93,
      "hit": false,
      "t": 120666.54600000025,
      "d": 78.7036250000092,
      "v": 127
    },
    {
      "midi": 63,
      "hit": false,
      "t": 120666.54600000025,
      "d": 189.81462500001362,
      "v": 127
    },
    {
      "midi": 87,
      "hit": false,
      "t": 120888.76800000027,
      "d": 64.814750000005,
      "v": 127
    },
    {
      "midi": 90,
      "hit": false,
      "t": 120888.76800000027,
      "d": 64.814750000005,
      "v": 127
    },
    {
      "midi": 93,
      "hit": false,
      "t": 120888.76800000027,
      "d": 78.7036250000092,
      "v": 127
    },
    {
      "midi": 54,
      "hit": false,
      "t": 120888.76800000027,
      "d": 370.3700000000099,
      "v": 127
    },
    {
      "midi": 90,
      "hit": false,
      "t": 121110.99000000028,
      "d": 64.814750000005,
      "v": 127
    },
    {
      "midi": 87,
      "hit": false,
      "t": 121110.99000000028,
      "d": 74.0740000000078,
      "v": 127
    },
    {
      "midi": 93,
      "hit": false,
      "t": 121110.99000000028,
      "d": 74.0740000000078,
      "v": 127
    },
    {
      "midi": 66,
      "hit": false,
      "t": 121110.99000000028,
      "d": 398.1477499999892,
      "v": 127
    },
    {
      "midi": 87,
      "hit": false,
      "t": 121333.21200000028,
      "d": 87.96287499999744,
      "v": 127
    },
    {
      "midi": 90,
      "hit": false,
      "t": 121333.21200000028,
      "d": 87.96287499999744,
      "v": 127
    },
    {
      "midi": 93,
      "hit": false,
      "t": 121333.21200000028,
      "d": 87.96287499999744,
      "v": 127
    },
    {
      "midi": 56,
      "hit": false,
      "t": 121333.21200000028,
      "d": 356.48112499999115,
      "v": 127
    },
    {
      "midi": 93,
      "hit": false,
      "t": 121555.43400000027,
      "d": 134.25912499999686,
      "v": 127
    },
    {
      "midi": 90,
      "hit": false,
      "t": 121555.43400000027,
      "d": 143.51837499999965,
      "v": 127
    },
    {
      "midi": 87,
      "hit": false,
      "t": 121555.43400000027,
      "d": 157.40725000000384,
      "v": 127
    },
    {
      "midi": 68,
      "hit": false,
      "t": 121555.43400000027,
      "d": 166.66650000000664,
      "v": 127
    },
    {
      "midi": 88,
      "hit": false,
      "t": 121777.65600000028,
      "d": 87.96287499999744,
      "v": 127
    },
    {
      "midi": 92,
      "hit": false,
      "t": 121777.65600000028,
      "d": 101.85175000000163,
      "v": 127
    },
    {
      "midi": 52,
      "hit": false,
      "t": 121777.65600000028,
      "d": 384.2588750000141,
      "v": 127
    },
    {
      "midi": 92,
      "hit": false,
      "t": 121999.87800000029,
      "d": 92.59249999999884,
      "v": 127
    },
    {
      "midi": 88,
      "hit": false,
      "t": 121999.87800000029,
      "d": 101.85175000000163,
      "v": 127
    },
    {
      "midi": 64,
      "hit": false,
      "t": 121999.87800000029,
      "d": 291.66637500001525,
      "v": 127
    },
    {
      "midi": 92,
      "hit": false,
      "t": 122222.1000000003,
      "d": 83.3332500000106,
      "v": 127
    },
    {
      "midi": 88,
      "hit": false,
      "t": 122222.1000000003,
      "d": 97.22212500001478,
      "v": 127
    },
    {
      "midi": 56,
      "hit": false,
      "t": 122222.1000000003,
      "d": 416.6662500000093,
      "v": 127
    },
    {
      "midi": 92,
      "hit": false,
      "t": 122444.3220000003,
      "d": 78.70362499999464,
      "v": 127
    },
    {
      "midi": 88,
      "hit": false,
      "t": 122444.3220000003,
      "d": 97.22212500000023,
      "v": 127
    },
    {
      "midi": 68,
      "hit": false,
      "t": 122444.3220000003,
      "d": 162.03687500000524,
      "v": 127
    },
    {
      "midi": 88,
      "hit": false,
      "t": 122666.5440000003,
      "d": 87.96287499999744,
      "v": 127
    },
    {
      "midi": 92,
      "hit": false,
      "t": 122666.5440000003,
      "d": 87.96287499999744,
      "v": 127
    },
    {
      "midi": 59,
      "hit": false,
      "t": 122666.5440000003,
      "d": 319.44412499999453,
      "v": 127
    },
    {
      "midi": 88,
      "hit": false,
      "t": 122888.7660000003,
      "d": 87.96287499999744,
      "v": 127
    },
    {
      "midi": 92,
      "hit": false,
      "t": 122888.7660000003,
      "d": 97.22212500000023,
      "v": 127
    },
    {
      "midi": 71,
      "hit": false,
      "t": 122888.7660000003,
      "d": 365.74037499999395,
      "v": 127
    },
    {
      "midi": 88,
      "hit": false,
      "t": 123110.98800000029,
      "d": 87.96287499999744,
      "v": 127
    },
    {
      "midi": 92,
      "hit": false,
      "t": 123110.98800000029,
      "d": 97.22212500000023,
      "v": 127
    },
    {
      "midi": 61,
      "hit": false,
      "t": 123110.98800000029,
      "d": 291.6663750000007,
      "v": 127
    },
    {
      "midi": 92,
      "hit": false,
      "t": 123333.21000000028,
      "d": 106.48137500000303,
      "v": 127
    },
    {
      "midi": 88,
      "hit": false,
      "t": 123333.21000000028,
      "d": 129.62950000001,
      "v": 127
    },
    {
      "midi": 73,
      "hit": false,
      "t": 123333.21000000028,
      "d": 138.8887500000128,
      "v": 127
    },
    {
      "midi": 52,
      "hit": false,
      "t": 137777.6400000003,
      "d": 4.629625000001397,
      "v": 127
    },
    {
      "midi": 52,
      "hit": false,
      "t": 137782.2696250003,
      "d": 356.48112500002026,
      "v": 127
    },
    {
      "midi": 76,
      "hit": false,
      "t": 137999.8620000003,
      "d": 157.4072500000184,
      "v": 127
    },
    {
      "midi": 64,
      "hit": false,
      "t": 137999.8620000003,
      "d": 226.85162500001024,
      "v": 127
    },
    {
      "midi": 80,
      "hit": false,
      "t": 138222.08400000032,
      "d": 166.66649999999208,
      "v": 127
    },
    {
      "midi": 85,
      "hit": false,
      "t": 138222.08400000032,
      "d": 199.07387500000186,
      "v": 127
    },
    {
      "midi": 56,
      "hit": false,
      "t": 138222.08400000032,
      "d": 425.9255000000121,
      "v": 127
    },
    {
      "midi": 76,
      "hit": false,
      "t": 138444.30600000033,
      "d": 115.74062500000582,
      "v": 127
    },
    {
      "midi": 68,
      "hit": false,
      "t": 138444.30600000033,
      "d": 189.81462499999907,
      "v": 127
    },
    {
      "midi": 83,
      "hit": false,
      "t": 138666.52800000034,
      "d": 157.4072499999893,
      "v": 127
    },
    {
      "midi": 80,
      "hit": false,
      "t": 138666.52800000034,
      "d": 217.59237499997835,
      "v": 127
    },
    {
      "midi": 59,
      "hit": false,
      "t": 138666.52800000034,
      "d": 370.36999999996624,
      "v": 127
    },
    {
      "midi": 76,
      "hit": false,
      "t": 138888.75000000032,
      "d": 60.18512499998906,
      "v": 127
    },
    {
      "midi": 71,
      "hit": false,
      "t": 138888.75000000032,
      "d": 398.1477499999746,
      "v": 127
    },
    {
      "midi": 61,
      "hit": false,
      "t": 139110.9720000003,
      "d": 356.48112500002026,
      "v": 127
    },
    {
      "midi": 73,
      "hit": false,
      "t": 139333.1940000003,
      "d": 166.6665000000212,
      "v": 127
    },
    {
      "midi": 76,
      "hit": false,
      "t": 139333.1940000003,
      "d": 351.85150000001886,
      "v": 127
    },
    {
      "midi": 83,
      "hit": false,
      "t": 139333.1940000003,
      "d": 402.7773750000051,
      "v": 127
    },
    {
      "midi": 80,
      "hit": false,
      "t": 139333.1940000003,
      "d": 439.8143750000163,
      "v": 127
    },
    {
      "midi": 52,
      "hit": false,
      "t": 139555.41600000032,
      "d": 384.25887499999953,
      "v": 127
    },
    {
      "midi": 76,
      "hit": false,
      "t": 139777.63800000033,
      "d": 148.1479999999865,
      "v": 127
    },
    {
      "midi": 64,
      "hit": false,
      "t": 139777.63800000033,
      "d": 291.6663749999716,
      "v": 127
    },
    {
      "midi": 85,
      "hit": false,
      "t": 139999.8600000003,
      "d": 217.59237499997835,
      "v": 127
    },
    {
      "midi": 80,
      "hit": false,
      "t": 139999.8600000003,
      "d": 314.8144999999786,
      "v": 127
    },
    {
      "midi": 56,
      "hit": false,
      "t": 139999.8600000003,
      "d": 416.6662499999802,
      "v": 127
    },
    {
      "midi": 76,
      "hit": false,
      "t": 140222.0820000003,
      "d": 148.1479999999865,
      "v": 127
    },
    {
      "midi": 68,
      "hit": false,
      "t": 140222.0820000003,
      "d": 162.0368749999907,
      "v": 127
    },
    {
      "midi": 83,
      "hit": false,
      "t": 140444.3040000003,
      "d": 203.70350000000326,
      "v": 127
    },
    {
      "midi": 80,
      "hit": false,
      "t": 140444.3040000003,
      "d": 254.62937500001863,
      "v": 127
    },
    {
      "midi": 59,
      "hit": false,
      "t": 140444.3040000003,
      "d": 324.0737500000396,
      "v": 127
    },
    {
      "midi": 76,
      "hit": false,
      "t": 140666.5260000003,
      "d": 60.18512500001816,
      "v": 127
    },
    {
      "midi": 71,
      "hit": false,
      "t": 140666.5260000003,
      "d": 365.74037500002305,
      "v": 127
    },
    {
      "midi": 76,
      "hit": false,
      "t": 140888.74800000034,
      "d": 60.18512499998906,
      "v": 127
    },
    {
      "midi": 61,
      "hit": false,
      "t": 140888.74800000034,
      "d": 291.6663749999716,
      "v": 127
    },
    {
      "midi": 73,
      "hit": false,
      "t": 141110.97000000032,
      "d": 138.8887499999837,
      "v": 127
    },
    {
      "midi": 76,
      "hit": false,
      "t": 141110.97000000032,
      "d": 351.85149999998976,
      "v": 127
    },
    {
      "midi": 83,
      "hit": false,
      "t": 141110.97000000032,
      "d": 398.1477500000037,
      "v": 127
    },
    {
      "midi": 80,
      "hit": false,
      "t": 141110.97000000032,
      "d": 481.48100000002887,
      "v": 127
    },
    {
      "midi": 52,
      "hit": false,
      "t": 141333.1920000003,
      "d": 4.629625000001397,
      "v": 127
    },
    {
      "midi": 52,
      "hit": false,
      "t": 141337.8216250003,
      "d": 356.48112500004936,
      "v": 127
    },
    {
      "midi": 76,
      "hit": false,
      "t": 141555.41400000034,
      "d": 138.8887500000128,
      "v": 127
    },
    {
      "midi": 64,
      "hit": false,
      "t": 141555.41400000034,
      "d": 226.85162500001024,
      "v": 127
    },
    {
      "midi": 80,
      "hit": false,
      "t": 141777.63600000035,
      "d": 175.92574999999488,
      "v": 127
    },
    {
      "midi": 85,
      "hit": false,
      "t": 141777.63600000035,
      "d": 194.44425000000047,
      "v": 127
    },
    {
      "midi": 56,
      "hit": false,
      "t": 141777.63600000035,
      "d": 425.9255000000121,
      "v": 127
    },
    {
      "midi": 80,
      "hit": false,
      "t": 141999.85800000036,
      "d": 32.40737500000978,
      "v": 127
    },
    {
      "midi": 76,
      "hit": false,
      "t": 141999.85800000036,
      "d": 97.22212500000023,
      "v": 127
    },
    {
      "midi": 68,
      "hit": false,
      "t": 141999.85800000036,
      "d": 189.81462499999907,
      "v": 127
    },
    {
      "midi": 83,
      "hit": false,
      "t": 142222.08000000037,
      "d": 203.70350000000326,
      "v": 127
    },
    {
      "midi": 80,
      "hit": false,
      "t": 142222.08000000037,
      "d": 236.11087500001304,
      "v": 127
    },
    {
      "midi": 59,
      "hit": false,
      "t": 142222.08000000037,
      "d": 370.37000000002445,
      "v": 127
    },
    {
      "midi": 76,
      "hit": false,
      "t": 142444.30200000037,
      "d": 166.6665000000212,
      "v": 127
    },
    {
      "midi": 71,
      "hit": false,
      "t": 142444.30200000037,
      "d": 393.5181250000023,
      "v": 127
    },
    {
      "midi": 80,
      "hit": false,
      "t": 142666.52400000038,
      "d": 23.148125000006985,
      "v": 127
    },
    {
      "midi": 61,
      "hit": false,
      "t": 142666.52400000038,
      "d": 356.48112499999115,
      "v": 127
    },
    {
      "midi": 73,
      "hit": false,
      "t": 142888.74600000036,
      "d": 166.6665000000212,
      "v": 127
    },
    {
      "midi": 78,
      "hit": false,
      "t": 142888.74600000036,
      "d": 393.5181250000023,
      "v": 127
    },
    {
      "midi": 75,
      "hit": false,
      "t": 142888.74600000036,
      "d": 430.5551250000135,
      "v": 127
    },
    {
      "midi": 47,
      "hit": false,
      "t": 143110.96800000037,
      "d": 384.25887500002864,
      "v": 127
    },
    {
      "midi": 71,
      "hit": false,
      "t": 143333.19000000038,
      "d": 134.2591250000114,
      "v": 127
    },
    {
      "midi": 59,
      "hit": false,
      "t": 143333.19000000038,
      "d": 291.6663750000007,
      "v": 127
    },
    {
      "midi": 75,
      "hit": false,
      "t": 143555.4120000004,
      "d": 171.29612499999348,
      "v": 127
    },
    {
      "midi": 80,
      "hit": false,
      "t": 143555.4120000004,
      "d": 189.81462499999907,
      "v": 127
    },
    {
      "midi": 51,
      "hit": false,
      "t": 143555.4120000004,
      "d": 416.6662500000384,
      "v": 127
    },
    {
      "midi": 71,
      "hit": false,
      "t": 143777.6340000004,
      "d": 115.74062500000582,
      "v": 127
    },
    {
      "midi": 63,
      "hit": false,
      "t": 143777.6340000004,
      "d": 162.0368750000198,
      "v": 127
    },
    {
      "midi": 78,
      "hit": false,
      "t": 143999.85600000044,
      "d": 166.66649999999208,
      "v": 127
    },
    {
      "midi": 75,
      "hit": false,
      "t": 143999.85600000044,
      "d": 203.70350000000326,
      "v": 127
    },
    {
      "midi": 54,
      "hit": false,
      "t": 143999.85600000044,
      "d": 324.0737500000105,
      "v": 127
    },
    {
      "midi": 71,
      "hit": false,
      "t": 144222.07800000045,
      "d": 83.33324999999604,
      "v": 127
    },
    {
      "midi": 66,
      "hit": false,
      "t": 144222.07800000045,
      "d": 365.74037500002305,
      "v": 127
    },
    {
      "midi": 75,
      "hit": false,
      "t": 144444.30000000045,
      "d": 32.40737500000978,
      "v": 127
    },
    {
      "midi": 56,
      "hit": false,
      "t": 144444.30000000045,
      "d": 291.6663750000007,
      "v": 127
    },
    {
      "midi": 68,
      "hit": false,
      "t": 144666.52200000046,
      "d": 138.8887499999837,
      "v": 127
    },
    {
      "midi": 71,
      "hit": false,
      "t": 144666.52200000046,
      "d": 342.59224999998696,
      "v": 127
    },
    {
      "midi": 78,
      "hit": false,
      "t": 144666.52200000046,
      "d": 379.62924999999814,
      "v": 127
    },
    {
      "midi": 75,
      "hit": false,
      "t": 144666.52200000046,
      "d": 435.1847499999858,
      "v": 127
    },
    {
      "midi": 47,
      "hit": false,
      "t": 144888.74400000044,
      "d": 4.629625000001397,
      "v": 127
    },
    {
      "midi": 47,
      "hit": false,
      "t": 144893.37362500044,
      "d": 356.48112500002026,
      "v": 127
    },
    {
      "midi": 59,
      "hit": false,
      "t": 145110.96600000045,
      "d": 226.85162500001024,
      "v": 127
    },
    {
      "midi": 75,
      "hit": false,
      "t": 145333.18800000046,
      "d": 157.4072499999893,
      "v": 127
    },
    {
      "midi": 80,
      "hit": false,
      "t": 145333.18800000046,
      "d": 157.4072499999893,
      "v": 127
    },
    {
      "midi": 51,
      "hit": false,
      "t": 145333.18800000046,
      "d": 425.925499999983,
      "v": 127
    },
    {
      "midi": 71,
      "hit": false,
      "t": 145555.41000000044,
      "d": 83.33324999999604,
      "v": 127
    },
    {
      "midi": 63,
      "hit": false,
      "t": 145555.41000000044,
      "d": 189.81462499999907,
      "v": 127
    },
    {
      "midi": 78,
      "hit": false,
      "t": 145777.63200000045,
      "d": 166.66649999999208,
      "v": 127
    },
    {
      "midi": 75,
      "hit": false,
      "t": 145777.63200000045,
      "d": 208.33312500000466,
      "v": 127
    },
    {
      "midi": 54,
      "hit": false,
      "t": 145777.63200000045,
      "d": 370.36999999999534,
      "v": 127
    },
    {
      "midi": 71,
      "hit": false,
      "t": 145999.85400000046,
      "d": 50.92587499998626,
      "v": 127
    },
    {
      "midi": 66,
      "hit": false,
      "t": 145999.85400000046,
      "d": 398.1477499999746,
      "v": 127
    },
    {
      "midi": 71,
      "hit": false,
      "t": 146222.07600000044,
      "d": 50.92587499998626,
      "v": 127
    },
    {
      "midi": 56,
      "hit": false,
      "t": 146222.07600000044,
      "d": 356.48112500002026,
      "v": 127
    },
    {
      "midi": 68,
      "hit": false,
      "t": 146444.29800000045,
      "d": 166.6665000000212,
      "v": 127
    },
    {
      "midi": 71,
      "hit": false,
      "t": 146444.29800000045,
      "d": 328.7033750000119,
      "v": 127
    },
    {
      "midi": 78,
      "hit": false,
      "t": 146444.29800000045,
      "d": 365.74037500002305,
      "v": 127
    },
    {
      "midi": 75,
      "hit": false,
      "t": 146444.29800000045,
      "d": 416.6662500000093,
      "v": 127
    },
    {
      "midi": 47,
      "hit": false,
      "t": 146666.52000000046,
      "d": 384.25887499999953,
      "v": 127
    },
    {
      "midi": 71,
      "hit": false,
      "t": 146888.74200000046,
      "d": 148.1479999999865,
      "v": 127
    },
    {
      "midi": 59,
      "hit": false,
      "t": 146888.74200000046,
      "d": 291.6663749999716,
      "v": 127
    },
    {
      "midi": 80,
      "hit": false,
      "t": 147110.96400000044,
      "d": 208.33312500000466,
      "v": 127
    },
    {
      "midi": 75,
      "hit": false,
      "t": 147110.96400000044,
      "d": 296.2960000000021,
      "v": 127
    },
    {
      "midi": 51,
      "hit": false,
      "t": 147110.96400000044,
      "d": 416.6662500000093,
      "v": 127
    },
    {
      "midi": 71,
      "hit": false,
      "t": 147333.18600000045,
      "d": 124.99987499997951,
      "v": 127
    },
    {
      "midi": 63,
      "hit": false,
      "t": 147333.18600000045,
      "d": 162.0368749999907,
      "v": 127
    },
    {
      "midi": 78,
      "hit": false,
      "t": 147555.40800000046,
      "d": 199.07387500000186,
      "v": 127
    },
    {
      "midi": 75,
      "hit": false,
      "t": 147555.40800000046,
      "d": 240.74050000001444,
      "v": 127
    },
    {
      "midi": 54,
      "hit": false,
      "t": 147555.40800000046,
      "d": 324.0737500000105,
      "v": 127
    },
    {
      "midi": 71,
      "hit": false,
      "t": 147777.63000000047,
      "d": 74.07399999999325,
      "v": 127
    },
    {
      "midi": 66,
      "hit": false,
      "t": 147777.63000000047,
      "d": 365.74037499999395,
      "v": 127
    },
    {
      "midi": 71,
      "hit": false,
      "t": 147999.85200000048,
      "d": 60.18512499998906,
      "v": 127
    },
    {
      "midi": 56,
      "hit": false,
      "t": 147999.85200000048,
      "d": 291.6663749999716,
      "v": 127
    },
    {
      "midi": 68,
      "hit": false,
      "t": 148222.07400000046,
      "d": 138.8887499999837,
      "v": 127
    },
    {
      "midi": 71,
      "hit": false,
      "t": 148222.07400000046,
      "d": 337.96262499998556,
      "v": 127
    },
    {
      "midi": 78,
      "hit": false,
      "t": 148222.07400000046,
      "d": 388.8884999999718,
      "v": 127
    },
    {
      "midi": 75,
      "hit": false,
      "t": 148222.07400000046,
      "d": 472.22174999996787,
      "v": 127
    },
    {
      "midi": 47,
      "hit": false,
      "t": 148444.29600000044,
      "d": 4.629625000001397,
      "v": 127
    },
    {
      "midi": 47,
      "hit": false,
      "t": 148448.92562500044,
      "d": 356.48112499999115,
      "v": 127
    },
    {
      "midi": 59,
      "hit": false,
      "t": 148666.51800000042,
      "d": 226.85162500001024,
      "v": 127
    },
    {
      "midi": 80,
      "hit": false,
      "t": 148888.74000000043,
      "d": 194.44425000000047,
      "v": 127
    },
    {
      "midi": 75,
      "hit": false,
      "t": 148888.74000000043,
      "d": 282.4071249999979,
      "v": 127
    },
    {
      "midi": 51,
      "hit": false,
      "t": 148888.74000000043,
      "d": 425.9255000000121,
      "v": 127
    },
    {
      "midi": 71,
      "hit": false,
      "t": 149110.96200000044,
      "d": 97.22212500000023,
      "v": 127
    },
    {
      "midi": 63,
      "hit": false,
      "t": 149110.96200000044,
      "d": 189.81462499999907,
      "v": 127
    },
    {
      "midi": 78,
      "hit": false,
      "t": 149333.18400000044,
      "d": 175.92574999999488,
      "v": 127
    },
    {
      "midi": 75,
      "hit": false,
      "t": 149333.18400000044,
      "d": 194.44425000000047,
      "v": 127
    },
    {
      "midi": 54,
      "hit": false,
      "t": 149333.18400000044,
      "d": 370.36999999999534,
      "v": 127
    },
    {
      "midi": 66,
      "hit": false,
      "t": 149555.40600000045,
      "d": 398.1477499999746,
      "v": 127
    },
    {
      "midi": 78,
      "hit": false,
      "t": 149777.62800000043,
      "d": 50.92587499998626,
      "v": 127
    },
    {
      "midi": 75,
      "hit": false,
      "t": 149777.62800000043,
      "d": 60.18512499998906,
      "v": 127
    },
    {
      "midi": 56,
      "hit": false,
      "t": 149777.62800000043,
      "d": 356.48112500002026,
      "v": 127
    },
    {
      "midi": 68,
      "hit": false,
      "t": 149999.85000000044,
      "d": 166.6665000000212,
      "v": 127
    },
    {
      "midi": 83,
      "hit": false,
      "t": 149999.85000000044,
      "d": 421.2958750000107,
      "v": 127
    },
    {
      "midi": 80,
      "hit": false,
      "t": 149999.85000000044,
      "d": 439.8143750000163,
      "v": 127
    },
    {
      "midi": 52,
      "hit": false,
      "t": 150222.07200000045,
      "d": 384.25887499999953,
      "v": 127
    },
    {
      "midi": 76,
      "hit": false,
      "t": 150444.29400000046,
      "d": 148.1479999999865,
      "v": 127
    },
    {
      "midi": 64,
      "hit": false,
      "t": 150444.29400000046,
      "d": 291.6663749999716,
      "v": 127
    },
    {
      "midi": 80,
      "hit": false,
      "t": 150666.51600000044,
      "d": 143.5183749999851,
      "v": 127
    },
    {
      "midi": 85,
      "hit": false,
      "t": 150666.51600000044,
      "d": 199.07387499997276,
      "v": 127
    },
    {
      "midi": 56,
      "hit": false,
      "t": 150666.51600000044,
      "d": 416.6662499999802,
      "v": 127
    },
    {
      "midi": 76,
      "hit": false,
      "t": 150888.73800000042,
      "d": 92.59249999999884,
      "v": 127
    },
    {
      "midi": 68,
      "hit": false,
      "t": 150888.73800000042,
      "d": 162.0368749999907,
      "v": 127
    },
    {
      "midi": 83,
      "hit": false,
      "t": 151110.96000000043,
      "d": 171.29612499999348,
      "v": 127
    },
    {
      "midi": 80,
      "hit": false,
      "t": 151110.96000000043,
      "d": 217.59237500000745,
      "v": 127
    },
    {
      "midi": 59,
      "hit": false,
      "t": 151110.96000000043,
      "d": 324.0737500000105,
      "v": 127
    },
    {
      "midi": 76,
      "hit": false,
      "t": 151333.18200000044,
      "d": 46.29625000001397,
      "v": 127
    },
    {
      "midi": 71,
      "hit": false,
      "t": 151333.18200000044,
      "d": 365.74037500002305,
      "v": 127
    },
    {
      "midi": 61,
      "hit": false,
      "t": 151555.40400000045,
      "d": 296.2960000000021,
      "v": 127
    },
    {
      "midi": 73,
      "hit": false,
      "t": 151777.62600000045,
      "d": 138.8887499999837,
      "v": 127
    },
    {
      "midi": 76,
      "hit": false,
      "t": 151777.62600000045,
      "d": 356.48112499999115,
      "v": 127
    },
    {
      "midi": 83,
      "hit": false,
      "t": 151777.62600000045,
      "d": 402.7773750000051,
      "v": 127
    },
    {
      "midi": 80,
      "hit": false,
      "t": 151777.62600000045,
      "d": 472.2217500000261,
      "v": 127
    },
    {
      "midi": 52,
      "hit": false,
      "t": 151999.84800000043,
      "d": 4.629625000001397,
      "v": 127
    },
    {
      "midi": 52,
      "hit": false,
      "t": 152004.47762500044,
      "d": 356.48112500004936,
      "v": 127
    },
    {
      "midi": 76,
      "hit": false,
      "t": 152222.07000000047,
      "d": 138.8887500000128,
      "v": 127
    },
    {
      "midi": 64,
      "hit": false,
      "t": 152222.07000000047,
      "d": 226.85162500001024,
      "v": 127
    },
    {
      "midi": 80,
      "hit": false,
      "t": 152444.29200000048,
      "d": 162.0368749999907,
      "v": 127
    },
    {
      "midi": 85,
      "hit": false,
      "t": 152444.29200000048,
      "d": 194.44425000000047,
      "v": 127
    },
    {
      "midi": 56,
      "hit": false,
      "t": 152444.29200000048,
      "d": 425.9255000000412,
      "v": 127
    },
    {
      "midi": 80,
      "hit": false,
      "t": 152666.5140000005,
      "d": 37.037000000011176,
      "v": 127
    },
    {
      "midi": 76,
      "hit": false,
      "t": 152666.5140000005,
      "d": 143.5183750000142,
      "v": 127
    },
    {
      "midi": 68,
      "hit": false,
      "t": 152666.5140000005,
      "d": 189.81462500002817,
      "v": 127
    },
    {
      "midi": 83,
      "hit": false,
      "t": 152888.73600000053,
      "d": 166.66649999999208,
      "v": 127
    },
    {
      "midi": 80,
      "hit": false,
      "t": 152888.73600000053,
      "d": 240.74049999998533,
      "v": 127
    },
    {
      "midi": 59,
      "hit": false,
      "t": 152888.73600000053,
      "d": 370.36999999999534,
      "v": 127
    },
    {
      "midi": 71,
      "hit": false,
      "t": 153110.9580000005,
      "d": 398.1477500000037,
      "v": 127
    },
    {
      "midi": 61,
      "hit": false,
      "t": 153333.18000000052,
      "d": 356.48112500002026,
      "v": 127
    },
    {
      "midi": 73,
      "hit": false,
      "t": 153555.40200000053,
      "d": 166.6665000000212,
      "v": 127
    },
    {
      "midi": 76,
      "hit": false,
      "t": 153555.40200000053,
      "d": 342.59225000001607,
      "v": 127
    },
    {
      "midi": 83,
      "hit": false,
      "t": 153555.40200000053,
      "d": 388.88850000003004,
      "v": 127
    },
    {
      "midi": 80,
      "hit": false,
      "t": 153555.40200000053,
      "d": 430.5551250000426,
      "v": 127
    },
    {
      "midi": 52,
      "hit": false,
      "t": 153777.62400000053,
      "d": 384.25887500002864,
      "v": 127
    },
    {
      "midi": 76,
      "hit": false,
      "t": 153999.84600000057,
      "d": 152.7776249999879,
      "v": 127
    },
    {
      "midi": 64,
      "hit": false,
      "t": 153999.84600000057,
      "d": 287.0367499999702,
      "v": 127
    },
    {
      "midi": 85,
      "hit": false,
      "t": 154222.06800000055,
      "d": 199.07387500000186,
      "v": 127
    },
    {
      "midi": 80,
      "hit": false,
      "t": 154222.06800000055,
      "d": 291.6663750000007,
      "v": 127
    },
    {
      "midi": 56,
      "hit": false,
      "t": 154222.06800000055,
      "d": 416.6662500000093,
      "v": 127
    },
    {
      "midi": 76,
      "hit": false,
      "t": 154444.29000000056,
      "d": 120.37024999997811,
      "v": 127
    },
    {
      "midi": 68,
      "hit": false,
      "t": 154444.29000000056,
      "d": 162.0368749999907,
      "v": 127
    },
    {
      "midi": 83,
      "hit": false,
      "t": 154666.51200000057,
      "d": 171.29612499999348,
      "v": 127
    },
    {
      "midi": 80,
      "hit": false,
      "t": 154666.51200000057,
      "d": 222.22199999997974,
      "v": 127
    },
    {
      "midi": 59,
      "hit": false,
      "t": 154666.51200000057,
      "d": 324.0737499999814,
      "v": 127
    },
    {
      "midi": 76,
      "hit": false,
      "t": 154888.73400000055,
      "d": 60.18512499998906,
      "v": 127
    },
    {
      "midi": 71,
      "hit": false,
      "t": 154888.73400000055,
      "d": 365.74037499999395,
      "v": 127
    },
    {
      "midi": 76,
      "hit": false,
      "t": 155110.95600000056,
      "d": 55.55549999998766,
      "v": 127
    },
    {
      "midi": 61,
      "hit": false,
      "t": 155110.95600000056,
      "d": 296.295999999973,
      "v": 127
    },
    {
      "midi": 73,
      "hit": false,
      "t": 155333.17800000054,
      "d": 138.8887499999837,
      "v": 127
    },
    {
      "midi": 76,
      "hit": false,
      "t": 155333.17800000054,
      "d": 370.36999999999534,
      "v": 127
    },
    {
      "midi": 83,
      "hit": false,
      "t": 155333.17800000054,
      "d": 421.2958749999816,
      "v": 127
    },
    {
      "midi": 80,
      "hit": false,
      "t": 155333.17800000054,
      "d": 458.3328749999928,
      "v": 127
    },
    {
      "midi": 52,
      "hit": false,
      "t": 155555.40000000052,
      "d": 4.629625000001397,
      "v": 127
    },
    {
      "midi": 52,
      "hit": false,
      "t": 155560.02962500052,
      "d": 356.48112500002026,
      "v": 127
    },
    {
      "midi": 76,
      "hit": false,
      "t": 155777.62200000053,
      "d": 138.8887500000128,
      "v": 127
    },
    {
      "midi": 64,
      "hit": false,
      "t": 155777.62200000053,
      "d": 226.85162500001024,
      "v": 127
    },
    {
      "midi": 85,
      "hit": false,
      "t": 155999.84400000054,
      "d": 185.18499999999767,
      "v": 127
    },
    {
      "midi": 80,
      "hit": false,
      "t": 155999.84400000054,
      "d": 222.22200000000885,
      "v": 127
    },
    {
      "midi": 56,
      "hit": false,
      "t": 155999.84400000054,
      "d": 425.9255000000121,
      "v": 127
    },
    {
      "midi": 76,
      "hit": false,
      "t": 156222.06600000054,
      "d": 106.48137500000303,
      "v": 127
    },
    {
      "midi": 68,
      "hit": false,
      "t": 156222.06600000054,
      "d": 189.81462499999907,
      "v": 127
    },
    {
      "midi": 59,
      "hit": false,
      "t": 156444.28800000055,
      "d": 370.37000000002445,
      "v": 127
    },
    {
      "midi": 83,
      "hit": false,
      "t": 156444.28800000055,
      "d": 416.6662500000384,
      "v": 127
    },
    {
      "midi": 80,
      "hit": false,
      "t": 156444.28800000055,
      "d": 444.4440000000468,
      "v": 127
    },
    {
      "midi": 76,
      "hit": false,
      "t": 156666.51000000056,
      "d": 32.40737500000978,
      "v": 127
    },
    {
      "midi": 71,
      "hit": false,
      "t": 156666.51000000056,
      "d": 398.14775000003283,
      "v": 127
    },
    {
      "midi": 76,
      "hit": false,
      "t": 156888.7320000006,
      "d": 60.18512499998906,
      "v": 127
    },
    {
      "midi": 61,
      "hit": false,
      "t": 156888.7320000006,
      "d": 356.48112500002026,
      "v": 127
    },
    {
      "midi": 73,
      "hit": false,
      "t": 157110.9540000006,
      "d": 166.6665000000212,
      "v": 127
    },
    {
      "midi": 78,
      "hit": false,
      "t": 157110.9540000006,
      "d": 439.8143750000163,
      "v": 127
    },
    {
      "midi": 75,
      "hit": false,
      "t": 157110.9540000006,
      "d": 486.11062500003027,
      "v": 127
    },
    {
      "midi": 47,
      "hit": false,
      "t": 157333.17600000062,
      "d": 384.25887500002864,
      "v": 127
    },
    {
      "midi": 71,
      "hit": false,
      "t": 157555.39800000063,
      "d": 152.777625000017,
      "v": 127
    },
    {
      "midi": 59,
      "hit": false,
      "t": 157555.39800000063,
      "d": 291.6663750000007,
      "v": 127
    },
    {
      "midi": 75,
      "hit": false,
      "t": 157777.62000000064,
      "d": 134.2591249999823,
      "v": 127
    },
    {
      "midi": 80,
      "hit": false,
      "t": 157777.62000000064,
      "d": 134.2591249999823,
      "v": 127
    },
    {
      "midi": 51,
      "hit": false,
      "t": 157777.62000000064,
      "d": 416.6662499999802,
      "v": 127
    },
    {
      "midi": 71,
      "hit": false,
      "t": 157999.84200000062,
      "d": 106.48137500000303,
      "v": 127
    },
    {
      "midi": 63,
      "hit": false,
      "t": 157999.84200000062,
      "d": 162.0368749999907,
      "v": 127
    },
    {
      "midi": 78,
      "hit": false,
      "t": 158222.06400000062,
      "d": 152.7776249999879,
      "v": 127
    },
    {
      "midi": 75,
      "hit": false,
      "t": 158222.06400000062,
      "d": 185.18499999999767,
      "v": 127
    },
    {
      "midi": 54,
      "hit": false,
      "t": 158222.06400000062,
      "d": 324.0737500000105,
      "v": 127
    },
    {
      "midi": 66,
      "hit": false,
      "t": 158444.28600000063,
      "d": 365.74037499999395,
      "v": 127
    },
    {
      "midi": 75,
      "hit": false,
      "t": 158666.50800000064,
      "d": 60.18512499998906,
      "v": 127
    },
    {
      "midi": 56,
      "hit": false,
      "t": 158666.50800000064,
      "d": 296.295999999973,
      "v": 127
    },
    {
      "midi": 68,
      "hit": false,
      "t": 158888.73000000062,
      "d": 138.8887499999837,
      "v": 127
    },
    {
      "midi": 71,
      "hit": false,
      "t": 158888.73000000062,
      "d": 347.22187499998836,
      "v": 127
    },
    {
      "midi": 78,
      "hit": false,
      "t": 158888.73000000062,
      "d": 407.4069999999774,
      "v": 127
    },
    {
      "midi": 75,
      "hit": false,
      "t": 158888.73000000062,
      "d": 499.99949999997625,
      "v": 127
    },
    {
      "midi": 47,
      "hit": false,
      "t": 159110.9520000006,
      "d": 4.629625000001397,
      "v": 127
    },
    {
      "midi": 47,
      "hit": false,
      "t": 159115.5816250006,
      "d": 356.48112499999115,
      "v": 127
    },
    {
      "midi": 71,
      "hit": false,
      "t": 159333.1740000006,
      "d": 111.11099999997532,
      "v": 127
    },
    {
      "midi": 59,
      "hit": false,
      "t": 159333.1740000006,
      "d": 226.85162499998114,
      "v": 127
    },
    {
      "midi": 75,
      "hit": false,
      "t": 159555.3960000006,
      "d": 166.66649999999208,
      "v": 127
    },
    {
      "midi": 80,
      "hit": false,
      "t": 159555.3960000006,
      "d": 180.55537499999627,
      "v": 127
    },
    {
      "midi": 51,
      "hit": false,
      "t": 159555.3960000006,
      "d": 425.925499999983,
      "v": 127
    },
    {
      "midi": 75,
      "hit": false,
      "t": 159777.6180000006,
      "d": 74.07399999999325,
      "v": 127
    },
    {
      "midi": 71,
      "hit": false,
      "t": 159777.6180000006,
      "d": 124.99987499997951,
      "v": 127
    },
    {
      "midi": 63,
      "hit": false,
      "t": 159777.6180000006,
      "d": 189.81462499996996,
      "v": 127
    },
    {
      "midi": 78,
      "hit": false,
      "t": 159999.84000000058,
      "d": 175.92574999999488,
      "v": 127
    },
    {
      "midi": 75,
      "hit": false,
      "t": 159999.84000000058,
      "d": 208.33312500000466,
      "v": 127
    },
    {
      "midi": 54,
      "hit": false,
      "t": 159999.84000000058,
      "d": 370.36999999999534,
      "v": 127
    },
    {
      "midi": 71,
      "hit": false,
      "t": 160222.0620000006,
      "d": 69.44437499999185,
      "v": 127
    },
    {
      "midi": 66,
      "hit": false,
      "t": 160222.0620000006,
      "d": 398.1477500000037,
      "v": 127
    },
    {
      "midi": 75,
      "hit": false,
      "t": 160444.28400000057,
      "d": 32.40737500000978,
      "v": 127
    },
    {
      "midi": 56,
      "hit": false,
      "t": 160444.28400000057,
      "d": 356.48112500004936,
      "v": 127
    },
    {
      "midi": 68,
      "hit": false,
      "t": 160666.5060000006,
      "d": 166.6665000000212,
      "v": 127
    },
    {
      "midi": 71,
      "hit": false,
      "t": 160666.5060000006,
      "d": 337.96262500001467,
      "v": 127
    },
    {
      "midi": 78,
      "hit": false,
      "t": 160666.5060000006,
      "d": 388.88850000000093,
      "v": 127
    },
    {
      "midi": 75,
      "hit": false,
      "t": 160666.5060000006,
      "d": 425.9255000000121,
      "v": 127
    },
    {
      "midi": 47,
      "hit": false,
      "t": 160888.7280000006,
      "d": 384.25887499999953,
      "v": 127
    },
    {
      "midi": 71,
      "hit": false,
      "t": 161110.95000000062,
      "d": 152.7776249999879,
      "v": 127
    },
    {
      "midi": 59,
      "hit": false,
      "t": 161110.95000000062,
      "d": 287.0367499999702,
      "v": 127
    },
    {
      "midi": 80,
      "hit": false,
      "t": 161333.1720000006,
      "d": 199.07387500000186,
      "v": 127
    },
    {
      "midi": 75,
      "hit": false,
      "t": 161333.1720000006,
      "d": 287.0367499999993,
      "v": 127
    },
    {
      "midi": 51,
      "hit": false,
      "t": 161333.1720000006,
      "d": 416.6662500000093,
      "v": 127
    },
    {
      "midi": 71,
      "hit": false,
      "t": 161555.3940000006,
      "d": 124.99987499997951,
      "v": 127
    },
    {
      "midi": 63,
      "hit": false,
      "t": 161555.3940000006,
      "d": 162.0368749999907,
      "v": 127
    },
    {
      "midi": 78,
      "hit": false,
      "t": 161777.61600000062,
      "d": 171.29612499999348,
      "v": 127
    },
    {
      "midi": 75,
      "hit": false,
      "t": 161777.61600000062,
      "d": 208.33312500000466,
      "v": 127
    },
    {
      "midi": 54,
      "hit": false,
      "t": 161777.61600000062,
      "d": 324.0737500000105,
      "v": 127
    },
    {
      "midi": 71,
      "hit": false,
      "t": 161999.83800000063,
      "d": 64.81474999999045,
      "v": 127
    },
    {
      "midi": 66,
      "hit": false,
      "t": 161999.83800000063,
      "d": 365.74037500002305,
      "v": 127
    },
    {
      "midi": 75,
      "hit": false,
      "t": 162222.06000000064,
      "d": 41.66662500001257,
      "v": 127
    },
    {
      "midi": 56,
      "hit": false,
      "t": 162222.06000000064,
      "d": 296.2960000000021,
      "v": 127
    },
    {
      "midi": 68,
      "hit": false,
      "t": 162444.28200000065,
      "d": 138.8887499999837,
      "v": 127
    },
    {
      "midi": 71,
      "hit": false,
      "t": 162444.28200000065,
      "d": 324.0737499999814,
      "v": 127
    },
    {
      "midi": 78,
      "hit": false,
      "t": 162444.28200000065,
      "d": 356.48112499999115,
      "v": 127
    },
    {
      "midi": 75,
      "hit": false,
      "t": 162444.28200000065,
      "d": 398.1477500000037,
      "v": 127
    },
    {
      "midi": 47,
      "hit": false,
      "t": 162666.50400000063,
      "d": 4.629625000001397,
      "v": 127
    },
    {
      "midi": 47,
      "hit": false,
      "t": 162671.13362500063,
      "d": 356.48112500004936,
      "v": 127
    },
    {
      "midi": 71,
      "hit": false,
      "t": 162888.72600000066,
      "d": 129.62950000001,
      "v": 127
    },
    {
      "midi": 59,
      "hit": false,
      "t": 162888.72600000066,
      "d": 226.85162500001024,
      "v": 127
    },
    {
      "midi": 75,
      "hit": false,
      "t": 163110.94800000067,
      "d": 162.0368749999907,
      "v": 127
    },
    {
      "midi": 80,
      "hit": false,
      "t": 163110.94800000067,
      "d": 208.33312500000466,
      "v": 127
    },
    {
      "midi": 51,
      "hit": false,
      "t": 163110.94800000067,
      "d": 425.9255000000121,
      "v": 127
    },
    {
      "midi": 75,
      "hit": false,
      "t": 163333.17000000068,
      "d": 74.07399999999325,
      "v": 127
    },
    {
      "midi": 71,
      "hit": false,
      "t": 163333.17000000068,
      "d": 97.22212500000023,
      "v": 127
    },
    {
      "midi": 63,
      "hit": false,
      "t": 163333.17000000068,
      "d": 189.81462499999907,
      "v": 127
    },
    {
      "midi": 75,
      "hit": false,
      "t": 163555.3920000007,
      "d": 249.99975000001723,
      "v": 127
    },
    {
      "midi": 78,
      "hit": false,
      "t": 163555.3920000007,
      "d": 259.25900000002,
      "v": 127
    },
    {
      "midi": 54,
      "hit": false,
      "t": 163555.3920000007,
      "d": 370.37000000002445,
      "v": 127
    },
    {
      "midi": 71,
      "hit": false,
      "t": 163777.6140000007,
      "d": 189.81462500002817,
      "v": 127
    },
    {
      "midi": 66,
      "hit": false,
      "t": 163777.6140000007,
      "d": 398.14775000006193,
      "v": 127
    },
    {
      "midi": 78,
      "hit": false,
      "t": 163999.83600000074,
      "d": 18.518500000005588,
      "v": 127
    },
    {
      "midi": 75,
      "hit": false,
      "t": 163999.83600000074,
      "d": 32.40737500000978,
      "v": 127
    },
    {
      "midi": 56,
      "hit": false,
      "t": 163999.83600000074,
      "d": 356.48112500004936,
      "v": 127
    },
    {
      "midi": 68,
      "hit": false,
      "t": 164222.05800000078,
      "d": 166.6665000000212,
      "v": 127
    },
    {
      "midi": 76,
      "hit": false,
      "t": 164222.05800000078,
      "d": 300.9256250000035,
      "v": 127
    },
    {
      "midi": 83,
      "hit": false,
      "t": 164222.05800000078,
      "d": 379.62924999999814,
      "v": 127
    },
    {
      "midi": 80,
      "hit": false,
      "t": 164222.05800000078,
      "d": 421.2958750000107,
      "v": 127
    },
    {
      "midi": 52,
      "hit": false,
      "t": 164444.28000000078,
      "d": 384.25887500002864,
      "v": 127
    },
    {
      "midi": 76,
      "hit": false,
      "t": 164666.5020000008,
      "d": 129.62950000001,
      "v": 127
    },
    {
      "midi": 64,
      "hit": false,
      "t": 164666.5020000008,
      "d": 291.6663750000007,
      "v": 127
    },
    {
      "midi": 80,
      "hit": false,
      "t": 164888.7240000008,
      "d": 143.5183749999851,
      "v": 127
    },
    {
      "midi": 85,
      "hit": false,
      "t": 164888.7240000008,
      "d": 217.59237499997835,
      "v": 127
    },
    {
      "midi": 56,
      "hit": false,
      "t": 164888.7240000008,
      "d": 416.6662500000093,
      "v": 127
    },
    {
      "midi": 80,
      "hit": false,
      "t": 165110.94600000078,
      "d": 78.70362499999464,
      "v": 127
    },
    {
      "midi": 76,
      "hit": false,
      "t": 165110.94600000078,
      "d": 120.37025000000722,
      "v": 127
    },
    {
      "midi": 68,
      "hit": false,
      "t": 165110.94600000078,
      "d": 162.0368750000198,
      "v": 127
    },
    {
      "midi": 83,
      "hit": false,
      "t": 165333.16800000082,
      "d": 249.99975000001723,
      "v": 127
    },
    {
      "midi": 80,
      "hit": false,
      "t": 165333.16800000082,
      "d": 259.25900000002,
      "v": 127
    },
    {
      "midi": 59,
      "hit": false,
      "t": 165333.16800000082,
      "d": 324.0737500000105,
      "v": 127
    },
    {
      "midi": 76,
      "hit": false,
      "t": 165555.39000000083,
      "d": 245.37012500001583,
      "v": 127
    },
    {
      "midi": 71,
      "hit": false,
      "t": 165555.39000000083,
      "d": 365.74037500002305,
      "v": 127
    },
    {
      "midi": 80,
      "hit": false,
      "t": 165777.61200000084,
      "d": 60.18512500001816,
      "v": 127
    },
    {
      "midi": 83,
      "hit": false,
      "t": 165777.61200000084,
      "d": 69.44437500002095,
      "v": 127
    },
    {
      "midi": 61,
      "hit": false,
      "t": 165777.61200000084,
      "d": 296.2960000000021,
      "v": 127
    },
    {
      "midi": 73,
      "hit": false,
      "t": 165999.83400000085,
      "d": 138.8887499999837,
      "v": 127
    }
  ]
}