{
  "jsonPath": "Classical/Classical Soprano/Kiri Te Kanawa/mendelssohn-arr-cullen-hark-the-herald-angels-sing.json",
  "path": "Classical\\Classical Soprano\\Kiri Te Kanawa\\Mendelssohn  Arr Cullen  Hark the herald angels sing.mid",
  "name": "Mendelssohn  Arr Cullen  Hark the herald angels sing",
  "difficulty": "Advanced",
  "bpm": 120,
  "notes": [
    {
      "midi": 43,
      "hit": false,
      "t": 2857.14,
      "d": 714.2849999999999,
      "v": 100
    },
    {
      "midi": 50,
      "hit": false,
      "t": 2857.14,
      "d": 714.2849999999999,
      "v": 100
    },
    {
      "midi": 59,
      "hit": false,
      "t": 2857.14,
      "d": 714.2849999999999,
      "v": 100
    },
    {
      "midi": 62,
      "hit": false,
      "t": 2857.14,
      "d": 714.2849999999999,
      "v": 100
    },
    {
      "midi": 43,
      "hit": false,
      "t": 3571.4249999999997,
      "d": 714.2850000000003,
      "v": 100
    },
    {
      "midi": 50,
      "hit": false,
      "t": 3571.4249999999997,
      "d": 714.2850000000003,
      "v": 100
    },
    {
      "midi": 59,
      "hit": false,
      "t": 3571.4249999999997,
      "d": 714.2850000000003,
      "v": 100
    },
    {
      "midi": 62,
      "hit": false,
      "t": 3571.4249999999997,
      "d": 714.2850000000003,
      "v": 100
    },
    {
      "midi": 67,
      "hit": false,
      "t": 3571.4249999999997,
      "d": 714.2850000000003,
      "v": 100
    },
    {
      "midi": 43,
      "hit": false,
      "t": 4285.71,
      "d": 1071.4274999999998,
      "v": 100
    },
    {
      "midi": 50,
      "hit": false,
      "t": 4285.71,
      "d": 1071.4274999999998,
      "v": 100
    },
    {
      "midi": 59,
      "hit": false,
      "t": 4285.71,
      "d": 1071.4274999999998,
      "v": 100
    },
    {
      "midi": 62,
      "hit": false,
      "t": 4285.71,
      "d": 1071.4274999999998,
      "v": 100
    },
    {
      "midi": 67,
      "hit": false,
      "t": 4285.71,
      "d": 1071.4274999999998,
      "v": 100
    },
    {
      "midi": 50,
      "hit": false,
      "t": 5357.1375,
      "d": 357.1424999999999,
      "v": 100
    },
    {
      "midi": 57,
      "hit": false,
      "t": 5357.1375,
      "d": 357.1424999999999,
      "v": 100
    },
    {
      "midi": 62,
      "hit": false,
      "t": 5357.1375,
      "d": 357.1424999999999,
      "v": 100
    },
    {
      "midi": 66,
      "hit": false,
      "t": 5357.1375,
      "d": 357.1424999999999,
      "v": 100
    },
    {
      "midi": 47,
      "hit": false,
      "t": 5714.28,
      "d": 714.2849999999999,
      "v": 100
    },
    {
      "midi": 59,
      "hit": false,
      "t": 5714.28,
      "d": 714.2849999999999,
      "v": 100
    },
    {
      "midi": 62,
      "hit": false,
      "t": 5714.28,
      "d": 714.2849999999999,
      "v": 100
    },
    {
      "midi": 67,
      "hit": false,
      "t": 5714.28,
      "d": 714.2849999999999,
      "v": 100
    },
    {
      "midi": 43,
      "hit": false,
      "t": 6428.565,
      "d": 714.2849999999999,
      "v": 100
    },
    {
      "midi": 62,
      "hit": false,
      "t": 6428.565,
      "d": 714.2849999999999,
      "v": 100
    },
    {
      "midi": 67,
      "hit": false,
      "t": 6428.565,
      "d": 714.2849999999999,
      "v": 100
    },
    {
      "midi": 71,
      "hit": false,
      "t": 6428.565,
      "d": 714.2849999999999,
      "v": 100
    },
    {
      "midi": 67,
      "hit": false,
      "t": 7142.849999999999,
      "d": 714.2849999999999,
      "v": 100
    },
    {
      "midi": 71,
      "hit": false,
      "t": 7142.849999999999,
      "d": 714.2849999999999,
      "v": 100
    },
    {
      "midi": 50,
      "hit": false,
      "t": 7142.849999999999,
      "d": 1428.5700000000006,
      "v": 100
    },
    {
      "midi": 62,
      "hit": false,
      "t": 7142.849999999999,
      "d": 1428.5700000000006,
      "v": 100
    },
    {
      "midi": 66,
      "hit": false,
      "t": 7857.134999999999,
      "d": 714.2850000000008,
      "v": 100
    },
    {
      "midi": 69,
      "hit": false,
      "t": 7857.134999999999,
      "d": 714.2850000000008,
      "v": 100
    },
    {
      "midi": 67,
      "hit": false,
      "t": 8571.42,
      "d": 714.2849999999999,
      "v": 100
    },
    {
      "midi": 71,
      "hit": false,
      "t": 8571.42,
      "d": 714.2849999999999,
      "v": 100
    },
    {
      "midi": 74,
      "hit": false,
      "t": 8571.42,
      "d": 714.2849999999999,
      "v": 100
    },
    {
      "midi": 47,
      "hit": false,
      "t": 8571.42,
      "d": 1428.5699999999997,
      "v": 100
    },
    {
      "midi": 66,
      "hit": false,
      "t": 9285.705,
      "d": 714.2849999999999,
      "v": 100
    },
    {
      "midi": 71,
      "hit": false,
      "t": 9285.705,
      "d": 714.2849999999999,
      "v": 100
    },
    {
      "midi": 74,
      "hit": false,
      "t": 9285.705,
      "d": 714.2849999999999,
      "v": 100
    },
    {
      "midi": 64,
      "hit": false,
      "t": 9999.99,
      "d": 714.2849999999999,
      "v": 100
    },
    {
      "midi": 74,
      "hit": false,
      "t": 9999.99,
      "d": 1071.4274999999998,
      "v": 100
    },
    {
      "midi": 48,
      "hit": false,
      "t": 9999.99,
      "d": 1428.5699999999997,
      "v": 100
    },
    {
      "midi": 69,
      "hit": false,
      "t": 10714.275,
      "d": 714.2849999999999,
      "v": 100
    },
    {
      "midi": 72,
      "hit": false,
      "t": 11071.4175,
      "d": 357.1424999999999,
      "v": 100
    },
    {
      "midi": 62,
      "hit": false,
      "t": 11428.56,
      "d": 714.2849999999999,
      "v": 100
    },
    {
      "midi": 67,
      "hit": false,
      "t": 11428.56,
      "d": 714.2849999999999,
      "v": 100
    },
    {
      "midi": 71,
      "hit": false,
      "t": 11428.56,
      "d": 714.2849999999999,
      "v": 100
    },
    {
      "midi": 50,
      "hit": false,
      "t": 11428.56,
      "d": 1428.5699999999997,
      "v": 100
    },
    {
      "midi": 62,
      "hit": false,
      "t": 12142.845,
      "d": 714.2849999999999,
      "v": 100
    },
    {
      "midi": 66,
      "hit": false,
      "t": 12142.845,
      "d": 714.2849999999999,
      "v": 100
    },
    {
      "midi": 69,
      "hit": false,
      "t": 12142.845,
      "d": 714.2849999999999,
      "v": 100
    },
    {
      "midi": 43,
      "hit": false,
      "t": 12857.13,
      "d": 1428.5699999999997,
      "v": 100
    },
    {
      "midi": 50,
      "hit": false,
      "t": 12857.13,
      "d": 1428.5699999999997,
      "v": 100
    },
    {
      "midi": 62,
      "hit": false,
      "t": 12857.13,
      "d": 1428.5699999999997,
      "v": 100
    },
    {
      "midi": 67,
      "hit": false,
      "t": 12857.13,
      "d": 1428.5699999999997,
      "v": 100
    },
    {
      "midi": 71,
      "hit": false,
      "t": 12857.13,
      "d": 1428.5699999999997,
      "v": 100
    },
    {
      "midi": 43,
      "hit": false,
      "t": 14285.699999999999,
      "d": 714.2849999999999,
      "v": 100
    },
    {
      "midi": 50,
      "hit": false,
      "t": 14285.699999999999,
      "d": 714.2849999999999,
      "v": 100
    },
    {
      "midi": 59,
      "hit": false,
      "t": 14285.699999999999,
      "d": 714.2849999999999,
      "v": 100
    },
    {
      "midi": 62,
      "hit": false,
      "t": 14285.699999999999,
      "d": 714.2849999999999,
      "v": 100
    },
    {
      "midi": 43,
      "hit": false,
      "t": 14999.984999999999,
      "d": 714.2849999999999,
      "v": 100
    },
    {
      "midi": 59,
      "hit": false,
      "t": 14999.984999999999,
      "d": 714.2849999999999,
      "v": 100
    },
    {
      "midi": 62,
      "hit": false,
      "t": 14999.984999999999,
      "d": 714.2849999999999,
      "v": 100
    },
    {
      "midi": 67,
      "hit": false,
      "t": 14999.984999999999,
      "d": 714.2849999999999,
      "v": 100
    },
    {
      "midi": 43,
      "hit": false,
      "t": 15714.269999999999,
      "d": 1071.4274999999998,
      "v": 100
    },
    {
      "midi": 59,
      "hit": false,
      "t": 15714.269999999999,
      "d": 1071.4274999999998,
      "v": 100
    },
    {
      "midi": 62,
      "hit": false,
      "t": 15714.269999999999,
      "d": 1071.4274999999998,
      "v": 100
    },
    {
      "midi": 67,
      "hit": false,
      "t": 15714.269999999999,
      "d": 1071.4274999999998,
      "v": 100
    },
    {
      "midi": 50,
      "hit": false,
      "t": 16785.6975,
      "d": 357.14250000000175,
      "v": 100
    },
    {
      "midi": 57,
      "hit": false,
      "t": 16785.6975,
      "d": 357.14250000000175,
      "v": 100
    },
    {
      "midi": 62,
      "hit": false,
      "t": 16785.6975,
      "d": 357.14250000000175,
      "v": 100
    },
    {
      "midi": 66,
      "hit": false,
      "t": 16785.6975,
      "d": 357.14250000000175,
      "v": 100
    },
    {
      "midi": 52,
      "hit": false,
      "t": 17142.84,
      "d": 714.2849999999999,
      "v": 100
    },
    {
      "midi": 59,
      "hit": false,
      "t": 17142.84,
      "d": 714.2849999999999,
      "v": 100
    },
    {
      "midi": 64,
      "hit": false,
      "t": 17142.84,
      "d": 714.2849999999999,
      "v": 100
    },
    {
      "midi": 67,
      "hit": false,
      "t": 17142.84,
      "d": 714.2849999999999,
      "v": 100
    },
    {
      "midi": 50,
      "hit": false,
      "t": 17857.125,
      "d": 714.2849999999999,
      "v": 100
    },
    {
      "midi": 62,
      "hit": false,
      "t": 17857.125,
      "d": 714.2849999999999,
      "v": 100
    },
    {
      "midi": 67,
      "hit": false,
      "t": 17857.125,
      "d": 714.2849999999999,
      "v": 100
    },
    {
      "midi": 71,
      "hit": false,
      "t": 17857.125,
      "d": 714.2849999999999,
      "v": 100
    },
    {
      "midi": 62,
      "hit": false,
      "t": 18571.41,
      "d": 714.2849999999999,
      "v": 100
    },
    {
      "midi": 67,
      "hit": false,
      "t": 18571.41,
      "d": 714.2849999999999,
      "v": 100
    },
    {
      "midi": 71,
      "hit": false,
      "t": 18571.41,
      "d": 714.2849999999999,
      "v": 100
    },
    {
      "midi": 45,
      "hit": false,
      "t": 18571.41,
      "d": 1428.5699999999997,
      "v": 100
    },
    {
      "midi": 61,
      "hit": false,
      "t": 19285.695,
      "d": 714.2849999999999,
      "v": 100
    },
    {
      "midi": 66,
      "hit": false,
      "t": 19285.695,
      "d": 714.2849999999999,
      "v": 100
    },
    {
      "midi": 69,
      "hit": false,
      "t": 19285.695,
      "d": 714.2849999999999,
      "v": 100
    },
    {
      "midi": 47,
      "hit": false,
      "t": 19999.98,
      "d": 714.2849999999999,
      "v": 100
    },
    {
      "midi": 66,
      "hit": false,
      "t": 19999.98,
      "d": 714.2849999999999,
      "v": 100
    },
    {
      "midi": 71,
      "hit": false,
      "t": 19999.98,
      "d": 714.2849999999999,
      "v": 100
    },
    {
      "midi": 74,
      "hit": false,
      "t": 19999.98,
      "d": 714.2849999999999,
      "v": 100
    },
    {
      "midi": 49,
      "hit": false,
      "t": 20714.265,
      "d": 714.2849999999999,
      "v": 100
    },
    {
      "midi": 61,
      "hit": false,
      "t": 20714.265,
      "d": 714.2849999999999,
      "v": 100
    },
    {
      "midi": 64,
      "hit": false,
      "t": 20714.265,
      "d": 714.2849999999999,
      "v": 100
    },
    {
      "midi": 69,
      "hit": false,
      "t": 20714.265,
      "d": 714.2849999999999,
      "v": 100
    },
    {
      "midi": 50,
      "hit": false,
      "t": 21428.55,
      "d": 714.2849999999999,
      "v": 100
    },
    {
      "midi": 62,
      "hit": false,
      "t": 21428.55,
      "d": 1071.4275000000016,
      "v": 100
    },
    {
      "midi": 66,
      "hit": false,
      "t": 21428.55,
      "d": 1071.4275000000016,
      "v": 100
    },
    {
      "midi": 69,
      "hit": false,
      "t": 21428.55,
      "d": 1071.4275000000016,
      "v": 100
    },
    {
      "midi": 42,
      "hit": false,
      "t": 22142.835,
      "d": 714.2850000000035,
      "v": 100
    },
    {
      "midi": 62,
      "hit": false,
      "t": 22499.9775,
      "d": 357.14250000000175,
      "v": 100
    },
    {
      "midi": 66,
      "hit": false,
      "t": 22499.9775,
      "d": 357.14250000000175,
      "v": 100
    },
    {
      "midi": 43,
      "hit": false,
      "t": 22857.120000000003,
      "d": 714.2849999999999,
      "v": 100
    },
    {
      "midi": 62,
      "hit": false,
      "t": 22857.120000000003,
      "d": 714.2849999999999,
      "v": 100
    },
    {
      "midi": 66,
      "hit": false,
      "t": 22857.120000000003,
      "d": 714.2849999999999,
      "v": 100
    },
    {
      "midi": 45,
      "hit": false,
      "t": 23571.405000000002,
      "d": 714.2849999999999,
      "v": 100
    },
    {
      "midi": 61,
      "hit": false,
      "t": 23571.405000000002,
      "d": 714.2849999999999,
      "v": 100
    },
    {
      "midi": 64,
      "hit": false,
      "t": 23571.405000000002,
      "d": 714.2849999999999,
      "v": 100
    },
    {
      "midi": 38,
      "hit": false,
      "t": 24285.690000000002,
      "d": 714.2849999999999,
      "v": 100
    },
    {
      "midi": 45,
      "hit": false,
      "t": 24285.690000000002,
      "d": 714.2849999999999,
      "v": 100
    },
    {
      "midi": 54,
      "hit": false,
      "t": 24285.690000000002,
      "d": 714.2849999999999,
      "v": 100
    },
    {
      "midi": 57,
      "hit": false,
      "t": 24285.690000000002,
      "d": 714.2849999999999,
      "v": 100
    },
    {
      "midi": 62,
      "hit": false,
      "t": 24285.690000000002,
      "d": 714.2849999999999,
      "v": 100
    },
    {
      "midi": 62,
      "hit": false,
      "t": 25714.260000000002,
      "d": 714.2849999999999,
      "v": 100
    },
    {
      "midi": 74,
      "hit": false,
      "t": 25714.260000000002,
      "d": 714.2849999999999,
      "v": 100
    },
    {
      "midi": 62,
      "hit": false,
      "t": 26428.545000000002,
      "d": 714.2849999999999,
      "v": 100
    },
    {
      "midi": 74,
      "hit": false,
      "t": 26428.545000000002,
      "d": 714.2849999999999,
      "v": 100
    },
    {
      "midi": 62,
      "hit": false,
      "t": 27142.83,
      "d": 714.2849999999999,
      "v": 100
    },
    {
      "midi": 74,
      "hit": false,
      "t": 27142.83,
      "d": 714.2849999999999,
      "v": 100
    },
    {
      "midi": 59,
      "hit": false,
      "t": 27857.115,
      "d": 714.2849999999999,
      "v": 100
    },
    {
      "midi": 62,
      "hit": false,
      "t": 27857.115,
      "d": 714.2849999999999,
      "v": 100
    },
    {
      "midi": 67,
      "hit": false,
      "t": 27857.115,
      "d": 714.2849999999999,
      "v": 100
    },
    {
      "midi": 54,
      "hit": false,
      "t": 28571.4,
      "d": 714.2849999999999,
      "v": 100
    },
    {
      "midi": 62,
      "hit": false,
      "t": 28571.4,
      "d": 714.2849999999999,
      "v": 100
    },
    {
      "midi": 69,
      "hit": false,
      "t": 28571.4,
      "d": 714.2849999999999,
      "v": 100
    },
    {
      "midi": 72,
      "hit": false,
      "t": 28571.4,
      "d": 714.2849999999999,
      "v": 100
    },
    {
      "midi": 55,
      "hit": false,
      "t": 29285.685,
      "d": 714.2849999999999,
      "v": 100
    },
    {
      "midi": 62,
      "hit": false,
      "t": 29285.685,
      "d": 714.2849999999999,
      "v": 100
    },
    {
      "midi": 67,
      "hit": false,
      "t": 29285.685,
      "d": 714.2849999999999,
      "v": 100
    },
    {
      "midi": 71,
      "hit": false,
      "t": 29285.685,
      "d": 714.2849999999999,
      "v": 100
    },
    {
      "midi": 67,
      "hit": false,
      "t": 29999.97,
      "d": 714.2849999999999,
      "v": 100
    },
    {
      "midi": 71,
      "hit": false,
      "t": 29999.97,
      "d": 714.2849999999999,
      "v": 100
    },
    {
      "midi": 50,
      "hit": false,
      "t": 29999.97,
      "d": 1428.5699999999997,
      "v": 100
    },
    {
      "midi": 62,
      "hit": false,
      "t": 29999.97,
      "d": 1428.5699999999997,
      "v": 100
    },
    {
      "midi": 66,
      "hit": false,
      "t": 30714.255,
      "d": 714.2849999999999,
      "v": 100
    },
    {
      "midi": 69,
      "hit": false,
      "t": 30714.255,
      "d": 714.2849999999999,
      "v": 100
    },
    {
      "midi": 62,
      "hit": false,
      "t": 31428.54,
      "d": 714.2849999999999,
      "v": 100
    },
    {
      "midi": 74,
      "hit": false,
      "t": 31428.54,
      "d": 714.2849999999999,
      "v": 100
    },
    {
      "midi": 62,
      "hit": false,
      "t": 32142.825,
      "d": 714.2849999999999,
      "v": 100
    },
    {
      "midi": 74,
      "hit": false,
      "t": 32142.825,
      "d": 714.2849999999999,
      "v": 100
    },
    {
      "midi": 62,
      "hit": false,
      "t": 32857.11,
      "d": 714.2850000000035,
      "v": 100
    },
    {
      "midi": 74,
      "hit": false,
      "t": 32857.11,
      "d": 714.2850000000035,
      "v": 100
    },
    {
      "midi": 59,
      "hit": false,
      "t": 33571.395000000004,
      "d": 714.2850000000035,
      "v": 100
    },
    {
      "midi": 62,
      "hit": false,
      "t": 33571.395000000004,
      "d": 714.2850000000035,
      "v": 100
    },
    {
      "midi": 67,
      "hit": false,
      "t": 33571.395000000004,
      "d": 714.2850000000035,
      "v": 100
    },
    {
      "midi": 54,
      "hit": false,
      "t": 34285.68000000001,
      "d": 714.2850000000035,
      "v": 100
    },
    {
      "midi": 62,
      "hit": false,
      "t": 34285.68000000001,
      "d": 714.2850000000035,
      "v": 100
    },
    {
      "midi": 69,
      "hit": false,
      "t": 34285.68000000001,
      "d": 714.2850000000035,
      "v": 100
    },
    {
      "midi": 72,
      "hit": false,
      "t": 34285.68000000001,
      "d": 714.2850000000035,
      "v": 100
    },
    {
      "midi": 55,
      "hit": false,
      "t": 34999.96500000001,
      "d": 714.2850000000035,
      "v": 100
    },
    {
      "midi": 62,
      "hit": false,
      "t": 34999.96500000001,
      "d": 714.2850000000035,
      "v": 100
    },
    {
      "midi": 67,
      "hit": false,
      "t": 34999.96500000001,
      "d": 714.2850000000035,
      "v": 100
    },
    {
      "midi": 71,
      "hit": false,
      "t": 34999.96500000001,
      "d": 714.2850000000035,
      "v": 100
    },
    {
      "midi": 67,
      "hit": false,
      "t": 35714.250000000015,
      "d": 714.2850000000035,
      "v": 100
    },
    {
      "midi": 71,
      "hit": false,
      "t": 35714.250000000015,
      "d": 714.2850000000035,
      "v": 100
    },
    {
      "midi": 50,
      "hit": false,
      "t": 35714.250000000015,
      "d": 1428.570000000007,
      "v": 100
    },
    {
      "midi": 62,
      "hit": false,
      "t": 35714.250000000015,
      "d": 1428.570000000007,
      "v": 100
    },
    {
      "midi": 66,
      "hit": false,
      "t": 36428.53500000002,
      "d": 714.2850000000035,
      "v": 100
    },
    {
      "midi": 69,
      "hit": false,
      "t": 36428.53500000002,
      "d": 714.2850000000035,
      "v": 100
    },
    {
      "midi": 64,
      "hit": false,
      "t": 37142.82000000002,
      "d": 1071.427499999998,
      "v": 100
    },
    {
      "midi": 72,
      "hit": false,
      "t": 37142.82000000002,
      "d": 1071.427499999998,
      "v": 100
    },
    {
      "midi": 76,
      "hit": false,
      "t": 37142.82000000002,
      "d": 1071.427499999998,
      "v": 100
    },
    {
      "midi": 48,
      "hit": false,
      "t": 37142.82000000002,
      "d": 3571.42500000001,
      "v": 100
    },
    {
      "midi": 55,
      "hit": false,
      "t": 37142.82000000002,
      "d": 3571.42500000001,
      "v": 100
    },
    {
      "midi": 64,
      "hit": false,
      "t": 38214.24750000002,
      "d": 357.14250000000175,
      "v": 100
    },
    {
      "midi": 72,
      "hit": false,
      "t": 38214.24750000002,
      "d": 357.14250000000175,
      "v": 100
    },
    {
      "midi": 76,
      "hit": false,
      "t": 38214.24750000002,
      "d": 357.14250000000175,
      "v": 100
    },
    {
      "midi": 64,
      "hit": false,
      "t": 38571.39000000002,
      "d": 714.2850000000035,
      "v": 100
    },
    {
      "midi": 72,
      "hit": false,
      "t": 38571.39000000002,
      "d": 714.2850000000035,
      "v": 100
    },
    {
      "midi": 76,
      "hit": false,
      "t": 38571.39000000002,
      "d": 714.2850000000035,
      "v": 100
    },
    {
      "midi": 62,
      "hit": false,
      "t": 39285.675000000025,
      "d": 714.2850000000035,
      "v": 100
    },
    {
      "midi": 71,
      "hit": false,
      "t": 39285.675000000025,
      "d": 714.2850000000035,
      "v": 100
    },
    {
      "midi": 74,
      "hit": false,
      "t": 39285.675000000025,
      "d": 714.2850000000035,
      "v": 100
    },
    {
      "midi": 60,
      "hit": false,
      "t": 39999.96000000003,
      "d": 714.2850000000035,
      "v": 100
    },
    {
      "midi": 69,
      "hit": false,
      "t": 39999.96000000003,
      "d": 714.2850000000035,
      "v": 100
    },
    {
      "midi": 72,
      "hit": false,
      "t": 39999.96000000003,
      "d": 714.2850000000035,
      "v": 100
    },
    {
      "midi": 40,
      "hit": false,
      "t": 40714.24500000003,
      "d": 714.2850000000035,
      "v": 100
    },
    {
      "midi": 64,
      "hit": false,
      "t": 40714.24500000003,
      "d": 714.2850000000035,
      "v": 100
    },
    {
      "midi": 68,
      "hit": false,
      "t": 40714.24500000003,
      "d": 714.2850000000035,
      "v": 100
    },
    {
      "midi": 71,
      "hit": false,
      "t": 40714.24500000003,
      "d": 714.2850000000035,
      "v": 100
    },
    {
      "midi": 45,
      "hit": false,
      "t": 41428.530000000035,
      "d": 1428.5699999999997,
      "v": 100
    },
    {
      "midi": 52,
      "hit": false,
      "t": 41428.530000000035,
      "d": 1428.5699999999997,
      "v": 100
    },
    {
      "midi": 64,
      "hit": false,
      "t": 41428.530000000035,
      "d": 1428.5699999999997,
      "v": 100
    },
    {
      "midi": 69,
      "hit": false,
      "t": 41428.530000000035,
      "d": 1428.5699999999997,
      "v": 100
    },
    {
      "midi": 72,
      "hit": false,
      "t": 41428.530000000035,
      "d": 1428.5699999999997,
      "v": 100
    },
    {
      "midi": 50,
      "hit": false,
      "t": 42857.100000000035,
      "d": 714.2850000000035,
      "v": 100
    },
    {
      "midi": 62,
      "hit": false,
      "t": 42857.100000000035,
      "d": 714.2850000000035,
      "v": 100
    },
    {
      "midi": 66,
      "hit": false,
      "t": 42857.100000000035,
      "d": 714.2850000000035,
      "v": 100
    },
    {
      "midi": 69,
      "hit": false,
      "t": 42857.100000000035,
      "d": 714.2850000000035,
      "v": 100
    },
    {
      "midi": 71,
      "hit": false,
      "t": 43571.38500000004,
      "d": 357.14250000000175,
      "v": 100
    },
    {
      "midi": 48,
      "hit": false,
      "t": 43571.38500000004,
      "d": 714.2850000000035,
      "v": 100
    },
    {
      "midi": 62,
      "hit": false,
      "t": 43571.38500000004,
      "d": 714.2850000000035,
      "v": 100
    },
    {
      "midi": 66,
      "hit": false,
      "t": 43571.38500000004,
      "d": 714.2850000000035,
      "v": 100
    },
    {
      "midi": 72,
      "hit": false,
      "t": 43928.52750000004,
      "d": 357.14250000000175,
      "v": 100
    },
    {
      "midi": 47,
      "hit": false,
      "t": 44285.67000000004,
      "d": 714.2850000000035,
      "v": 100
    },
    {
      "midi": 62,
      "hit": false,
      "t": 44285.67000000004,
      "d": 1071.4275000000052,
      "v": 100
    },
    {
      "midi": 67,
      "hit": false,
      "t": 44285.67000000004,
      "d": 1071.4275000000052,
      "v": 100
    },
    {
      "midi": 71,
      "hit": false,
      "t": 44285.67000000004,
      "d": 1071.4275000000052,
      "v": 100
    },
    {
      "midi": 74,
      "hit": false,
      "t": 44285.67000000004,
      "d": 1071.4275000000052,
      "v": 100
    },
    {
      "midi": 43,
      "hit": false,
      "t": 44999.955000000045,
      "d": 714.2850000000035,
      "v": 100
    },
    {
      "midi": 59,
      "hit": false,
      "t": 45357.09750000005,
      "d": 357.14250000000175,
      "v": 100
    },
    {
      "midi": 62,
      "hit": false,
      "t": 45357.09750000005,
      "d": 357.14250000000175,
      "v": 100
    },
    {
      "midi": 67,
      "hit": false,
      "t": 45357.09750000005,
      "d": 357.14250000000175,
      "v": 100
    },
    {
      "midi": 59,
      "hit": false,
      "t": 45714.24000000005,
      "d": 714.2850000000035,
      "v": 100
    },
    {
      "midi": 62,
      "hit": false,
      "t": 45714.24000000005,
      "d": 714.2850000000035,
      "v": 100
    },
    {
      "midi": 67,
      "hit": false,
      "t": 45714.24000000005,
      "d": 714.2850000000035,
      "v": 100
    },
    {
      "midi": 50,
      "hit": false,
      "t": 45714.24000000005,
      "d": 1428.570000000007,
      "v": 100
    },
    {
      "midi": 62,
      "hit": false,
      "t": 46428.52500000005,
      "d": 714.2850000000035,
      "v": 100
    },
    {
      "midi": 66,
      "hit": false,
      "t": 46428.52500000005,
      "d": 714.2850000000035,
      "v": 100
    },
    {
      "midi": 69,
      "hit": false,
      "t": 46428.52500000005,
      "d": 714.2850000000035,
      "v": 100
    },
    {
      "midi": 43,
      "hit": false,
      "t": 47142.810000000056,
      "d": 1428.5699999999997,
      "v": 100
    },
    {
      "midi": 50,
      "hit": false,
      "t": 47142.810000000056,
      "d": 1428.5699999999997,
      "v": 100
    },
    {
      "midi": 62,
      "hit": false,
      "t": 47142.810000000056,
      "d": 1428.5699999999997,
      "v": 100
    },
    {
      "midi": 67,
      "hit": false,
      "t": 47142.810000000056,
      "d": 1428.5699999999997,
      "v": 100
    },
    {
      "midi": 71,
      "hit": false,
      "t": 47142.810000000056,
      "d": 1428.5699999999997,
      "v": 100
    },
    {
      "midi": 64,
      "hit": false,
      "t": 48571.380000000056,
      "d": 1071.427499999998,
      "v": 100
    },
    {
      "midi": 72,
      "hit": false,
      "t": 48571.380000000056,
      "d": 1071.427499999998,
      "v": 100
    },
    {
      "midi": 76,
      "hit": false,
      "t": 48571.380000000056,
      "d": 1071.427499999998,
      "v": 100
    },
    {
      "midi": 48,
      "hit": false,
      "t": 48571.380000000056,
      "d": 3571.42500000001,
      "v": 100
    },
    {
      "midi": 55,
      "hit": false,
      "t": 48571.380000000056,
      "d": 3571.42500000001,
      "v": 100
    },
    {
      "midi": 64,
      "hit": false,
      "t": 49642.80750000005,
      "d": 357.14250000000175,
      "v": 100
    },
    {
      "midi": 72,
      "hit": false,
      "t": 49642.80750000005,
      "d": 357.14250000000175,
      "v": 100
    },
    {
      "midi": 76,
      "hit": false,
      "t": 49642.80750000005,
      "d": 357.14250000000175,
      "v": 100
    },
    {
      "midi": 64,
      "hit": false,
      "t": 49999.950000000055,
      "d": 714.2850000000035,
      "v": 100
    },
    {
      "midi": 72,
      "hit": false,
      "t": 49999.950000000055,
      "d": 714.2850000000035,
      "v": 100
    },
    {
      "midi": 76,
      "hit": false,
      "t": 49999.950000000055,
      "d": 714.2850000000035,
      "v": 100
    },
    {
      "midi": 62,
      "hit": false,
      "t": 50714.23500000006,
      "d": 714.2850000000035,
      "v": 100
    },
    {
      "midi": 71,
      "hit": false,
      "t": 50714.23500000006,
      "d": 714.2850000000035,
      "v": 100
    },
    {
      "midi": 74,
      "hit": false,
      "t": 50714.23500000006,
      "d": 714.2850000000035,
      "v": 100
    },
    {
      "midi": 60,
      "hit": false,
      "t": 51428.52000000006,
      "d": 714.2850000000035,
      "v": 100
    },
    {
      "midi": 69,
      "hit": false,
      "t": 51428.52000000006,
      "d": 714.2850000000035,
      "v": 100
    },
    {
      "midi": 72,
      "hit": false,
      "t": 51428.52000000006,
      "d": 714.2850000000035,
      "v": 100
    },
    {
      "midi": 40,
      "hit": false,
      "t": 52142.805000000066,
      "d": 714.2850000000035,
      "v": 100
    },
    {
      "midi": 64,
      "hit": false,
      "t": 52142.805000000066,
      "d": 714.2850000000035,
      "v": 100
    },
    {
      "midi": 68,
      "hit": false,
      "t": 52142.805000000066,
      "d": 714.2850000000035,
      "v": 100
    },
    {
      "midi": 71,
      "hit": false,
      "t": 52142.805000000066,
      "d": 714.2850000000035,
      "v": 100
    },
    {
      "midi": 45,
      "hit": false,
      "t": 52857.09000000007,
      "d": 714.2850000000035,
      "v": 100
    },
    {
      "midi": 64,
      "hit": false,
      "t": 52857.09000000007,
      "d": 1428.570000000007,
      "v": 100
    },
    {
      "midi": 69,
      "hit": false,
      "t": 52857.09000000007,
      "d": 1428.570000000007,
      "v": 100
    },
    {
      "midi": 72,
      "hit": false,
      "t": 52857.09000000007,
      "d": 1428.570000000007,
      "v": 100
    },
    {
      "midi": 43,
      "hit": false,
      "t": 53571.37500000007,
      "d": 714.2850000000035,
      "v": 100
    },
    {
      "midi": 42,
      "hit": false,
      "t": 54285.660000000076,
      "d": 714.2850000000035,
      "v": 100
    },
    {
      "midi": 62,
      "hit": false,
      "t": 54285.660000000076,
      "d": 714.2850000000035,
      "v": 100
    },
    {
      "midi": 66,
      "hit": false,
      "t": 54285.660000000076,
      "d": 714.2850000000035,
      "v": 100
    },
    {
      "midi": 69,
      "hit": false,
      "t": 54285.660000000076,
      "d": 714.2850000000035,
      "v": 100
    },
    {
      "midi": 71,
      "hit": false,
      "t": 54999.94500000008,
      "d": 357.14250000000175,
      "v": 100
    },
    {
      "midi": 48,
      "hit": false,
      "t": 54999.94500000008,
      "d": 714.2850000000035,
      "v": 100
    },
    {
      "midi": 62,
      "hit": false,
      "t": 54999.94500000008,
      "d": 714.2850000000035,
      "v": 100
    },
    {
      "midi": 66,
      "hit": false,
      "t": 54999.94500000008,
      "d": 714.2850000000035,
      "v": 100
    },
    {
      "midi": 72,
      "hit": false,
      "t": 55357.08750000008,
      "d": 357.14250000000175,
      "v": 100
    },
    {
      "midi": 47,
      "hit": false,
      "t": 55714.23000000008,
      "d": 714.2850000000035,
      "v": 100
    },
    {
      "midi": 62,
      "hit": false,
      "t": 55714.23000000008,
      "d": 1071.4275000000052,
      "v": 100
    },
    {
      "midi": 67,
      "hit": false,
      "t": 55714.23000000008,
      "d": 1071.4275000000052,
      "v": 100
    },
    {
      "midi": 71,
      "hit": false,
      "t": 55714.23000000008,
      "d": 1071.4275000000052,
      "v": 100
    },
    {
      "midi": 74,
      "hit": false,
      "t": 55714.23000000008,
      "d": 1071.4275000000052,
      "v": 100
    },
    {
      "midi": 43,
      "hit": false,
      "t": 56428.51500000009,
      "d": 714.2850000000035,
      "v": 100
    },
    {
      "midi": 71,
      "hit": false,
      "t": 56785.65750000009,
      "d": 357.14250000000175,
      "v": 100
    },
    {
      "midi": 74,
      "hit": false,
      "t": 56785.65750000009,
      "d": 357.14250000000175,
      "v": 100
    },
    {
      "midi": 79,
      "hit": false,
      "t": 56785.65750000009,
      "d": 357.14250000000175,
      "v": 100
    },
    {
      "midi": 50,
      "hit": false,
      "t": 57142.80000000009,
      "d": 714.2850000000035,
      "v": 100
    },
    {
      "midi": 71,
      "hit": false,
      "t": 57142.80000000009,
      "d": 714.2850000000035,
      "v": 100
    },
    {
      "midi": 74,
      "hit": false,
      "t": 57142.80000000009,
      "d": 714.2850000000035,
      "v": 100
    },
    {
      "midi": 79,
      "hit": false,
      "t": 57142.80000000009,
      "d": 714.2850000000035,
      "v": 100
    },
    {
      "midi": 50,
      "hit": false,
      "t": 57857.085000000094,
      "d": 714.2850000000035,
      "v": 100
    },
    {
      "midi": 69,
      "hit": false,
      "t": 57857.085000000094,
      "d": 714.2850000000035,
      "v": 100
    },
    {
      "midi": 74,
      "hit": false,
      "t": 57857.085000000094,
      "d": 714.2850000000035,
      "v": 100
    },
    {
      "midi": 78,
      "hit": false,
      "t": 57857.085000000094,
      "d": 714.2850000000035,
      "v": 100
    },
    {
      "midi": 43,
      "hit": false,
      "t": 58571.3700000001,
      "d": 4285.709999999999,
      "v": 100
    },
    {
      "midi": 50,
      "hit": false,
      "t": 58571.3700000001,
      "d": 4285.709999999999,
      "v": 100
    },
    {
      "midi": 71,
      "hit": false,
      "t": 58571.3700000001,
      "d": 4285.709999999999,
      "v": 100
    },
    {
      "midi": 74,
      "hit": false,
      "t": 58571.3700000001,
      "d": 4285.709999999999,
      "v": 100
    },
    {
      "midi": 79,
      "hit": false,
      "t": 58571.3700000001,
      "d": 4285.709999999999,
      "v": 100
    },
    {
      "midi": 43,
      "hit": false,
      "t": 174285.5400000001,
      "d": 714.2850000000035,
      "v": 100
    },
    {
      "midi": 50,
      "hit": false,
      "t": 174285.5400000001,
      "d": 714.2850000000035,
      "v": 100
    },
    {
      "midi": 59,
      "hit": false,
      "t": 174285.5400000001,
      "d": 714.2850000000035,
      "v": 100
    },
    {
      "midi": 62,
      "hit": false,
      "t": 174285.5400000001,
      "d": 714.2850000000035,
      "v": 100
    },
    {
      "midi": 43,
      "hit": false,
      "t": 174999.8250000001,
      "d": 714.2850000000035,
      "v": 100
    },
    {
      "midi": 50,
      "hit": false,
      "t": 174999.8250000001,
      "d": 714.2850000000035,
      "v": 100
    },
    {
      "midi": 59,
      "hit": false,
      "t": 174999.8250000001,
      "d": 714.2850000000035,
      "v": 100
    },
    {
      "midi": 62,
      "hit": false,
      "t": 174999.8250000001,
      "d": 714.2850000000035,
      "v": 100
    },
    {
      "midi": 67,
      "hit": false,
      "t": 174999.8250000001,
      "d": 714.2850000000035,
      "v": 100
    },
    {
      "midi": 43,
      "hit": false,
      "t": 175714.1100000001,
      "d": 1071.4274999999907,
      "v": 100
    },
    {
      "midi": 50,
      "hit": false,
      "t": 175714.1100000001,
      "d": 1071.4274999999907,
      "v": 100
    },
    {
      "midi": 59,
      "hit": false,
      "t": 175714.1100000001,
      "d": 1071.4274999999907,
      "v": 100
    },
    {
      "midi": 62,
      "hit": false,
      "t": 175714.1100000001,
      "d": 1071.4274999999907,
      "v": 100
    },
    {
      "midi": 67,
      "hit": false,
      "t": 175714.1100000001,
      "d": 1071.4274999999907,
      "v": 100
    },
    {
      "midi": 50,
      "hit": false,
      "t": 176785.5375000001,
      "d": 357.1424999999872,
      "v": 100
    },
    {
      "midi": 57,
      "hit": false,
      "t": 176785.5375000001,
      "d": 357.1424999999872,
      "v": 100
    },
    {
      "midi": 62,
      "hit": false,
      "t": 176785.5375000001,
      "d": 357.1424999999872,
      "v": 100
    },
    {
      "midi": 66,
      "hit": false,
      "t": 176785.5375000001,
      "d": 357.1424999999872,
      "v": 100
    },
    {
      "midi": 47,
      "hit": false,
      "t": 177142.68000000008,
      "d": 714.2850000000035,
      "v": 100
    },
    {
      "midi": 59,
      "hit": false,
      "t": 177142.68000000008,
      "d": 714.2850000000035,
      "v": 100
    },
    {
      "midi": 62,
      "hit": false,
      "t": 177142.68000000008,
      "d": 714.2850000000035,
      "v": 100
    },
    {
      "midi": 67,
      "hit": false,
      "t": 177142.68000000008,
      "d": 714.2850000000035,
      "v": 100
    },
    {
      "midi": 43,
      "hit": false,
      "t": 177856.96500000008,
      "d": 714.2850000000035,
      "v": 100
    },
    {
      "midi": 62,
      "hit": false,
      "t": 177856.96500000008,
      "d": 714.2850000000035,
      "v": 100
    },
    {
      "midi": 67,
      "hit": false,
      "t": 177856.96500000008,
      "d": 714.2850000000035,
      "v": 100
    },
    {
      "midi": 71,
      "hit": false,
      "t": 177856.96500000008,
      "d": 714.2850000000035,
      "v": 100
    },
    {
      "midi": 67,
      "hit": false,
      "t": 178571.2500000001,
      "d": 714.2850000000035,
      "v": 100
    },
    {
      "midi": 71,
      "hit": false,
      "t": 178571.2500000001,
      "d": 714.2850000000035,
      "v": 100
    },
    {
      "midi": 50,
      "hit": false,
      "t": 178571.2500000001,
      "d": 1428.570000000007,
      "v": 100
    },
    {
      "midi": 62,
      "hit": false,
      "t": 178571.2500000001,
      "d": 1428.570000000007,
      "v": 100
    },
    {
      "midi": 66,
      "hit": false,
      "t": 179285.5350000001,
      "d": 714.2850000000035,
      "v": 100
    },
    {
      "midi": 69,
      "hit": false,
      "t": 179285.5350000001,
      "d": 714.2850000000035,
      "v": 100
    },
    {
      "midi": 67,
      "hit": false,
      "t": 179999.8200000001,
      "d": 714.2850000000035,
      "v": 100
    },
    {
      "midi": 71,
      "hit": false,
      "t": 179999.8200000001,
      "d": 714.2850000000035,
      "v": 100
    },
    {
      "midi": 74,
      "hit": false,
      "t": 179999.8200000001,
      "d": 714.2850000000035,
      "v": 100
    },
    {
      "midi": 47,
      "hit": false,
      "t": 179999.8200000001,
      "d": 1428.570000000007,
      "v": 100
    },
    {
      "midi": 66,
      "hit": false,
      "t": 180714.1050000001,
      "d": 714.2850000000035,
      "v": 100
    },
    {
      "midi": 71,
      "hit": false,
      "t": 180714.1050000001,
      "d": 714.2850000000035,
      "v": 100
    },
    {
      "midi": 74,
      "hit": false,
      "t": 180714.1050000001,
      "d": 714.2850000000035,
      "v": 100
    },
    {
      "midi": 64,
      "hit": false,
      "t": 181428.3900000001,
      "d": 714.2850000000035,
      "v": 100
    },
    {
      "midi": 74,
      "hit": false,
      "t": 181428.3900000001,
      "d": 1071.4274999999907,
      "v": 100
    },
    {
      "midi": 48,
      "hit": false,
      "t": 181428.3900000001,
      "d": 1428.5699999999779,
      "v": 100
    },
    {
      "midi": 69,
      "hit": false,
      "t": 182142.6750000001,
      "d": 714.2849999999744,
      "v": 100
    },
    {
      "midi": 72,
      "hit": false,
      "t": 182499.8175000001,
      "d": 357.1424999999872,
      "v": 100
    },
    {
      "midi": 62,
      "hit": false,
      "t": 182856.96000000008,
      "d": 714.2850000000035,
      "v": 100
    },
    {
      "midi": 67,
      "hit": false,
      "t": 182856.96000000008,
      "d": 714.2850000000035,
      "v": 100
    },
    {
      "midi": 71,
      "hit": false,
      "t": 182856.96000000008,
      "d": 714.2850000000035,
      "v": 100
    },
    {
      "midi": 50,
      "hit": false,
      "t": 182856.96000000008,
      "d": 1428.570000000007,
      "v": 100
    },
    {
      "midi": 62,
      "hit": false,
      "t": 183571.24500000008,
      "d": 714.2850000000035,
      "v": 100
    },
    {
      "midi": 66,
      "hit": false,
      "t": 183571.24500000008,
      "d": 714.2850000000035,
      "v": 100
    },
    {
      "midi": 69,
      "hit": false,
      "t": 183571.24500000008,
      "d": 714.2850000000035,
      "v": 100
    },
    {
      "midi": 43,
      "hit": false,
      "t": 184285.5300000001,
      "d": 1428.570000000007,
      "v": 100
    },
    {
      "midi": 50,
      "hit": false,
      "t": 184285.5300000001,
      "d": 1428.570000000007,
      "v": 100
    },
    {
      "midi": 62,
      "hit": false,
      "t": 184285.5300000001,
      "d": 1428.570000000007,
      "v": 100
    },
    {
      "midi": 67,
      "hit": false,
      "t": 184285.5300000001,
      "d": 1428.570000000007,
      "v": 100
    },
    {
      "midi": 71,
      "hit": false,
      "t": 184285.5300000001,
      "d": 1428.570000000007,
      "v": 100
    },
    {
      "midi": 43,
      "hit": false,
      "t": 185714.1000000001,
      "d": 714.2850000000035,
      "v": 100
    },
    {
      "midi": 50,
      "hit": false,
      "t": 185714.1000000001,
      "d": 714.2850000000035,
      "v": 100
    },
    {
      "midi": 59,
      "hit": false,
      "t": 185714.1000000001,
      "d": 714.2850000000035,
      "v": 100
    },
    {
      "midi": 62,
      "hit": false,
      "t": 185714.1000000001,
      "d": 714.2850000000035,
      "v": 100
    },
    {
      "midi": 43,
      "hit": false,
      "t": 186428.3850000001,
      "d": 714.2850000000035,
      "v": 100
    },
    {
      "midi": 59,
      "hit": false,
      "t": 186428.3850000001,
      "d": 714.2850000000035,
      "v": 100
    },
    {
      "midi": 62,
      "hit": false,
      "t": 186428.3850000001,
      "d": 714.2850000000035,
      "v": 100
    },
    {
      "midi": 67,
      "hit": false,
      "t": 186428.3850000001,
      "d": 714.2850000000035,
      "v": 100
    },
    {
      "midi": 43,
      "hit": false,
      "t": 187142.6700000001,
      "d": 1071.4274999999907,
      "v": 100
    },
    {
      "midi": 59,
      "hit": false,
      "t": 187142.6700000001,
      "d": 1071.4274999999907,
      "v": 100
    },
    {
      "midi": 62,
      "hit": false,
      "t": 187142.6700000001,
      "d": 1071.4274999999907,
      "v": 100
    },
    {
      "midi": 67,
      "hit": false,
      "t": 187142.6700000001,
      "d": 1071.4274999999907,
      "v": 100
    },
    {
      "midi": 50,
      "hit": false,
      "t": 188214.0975000001,
      "d": 357.1424999999872,
      "v": 100
    },
    {
      "midi": 57,
      "hit": false,
      "t": 188214.0975000001,
      "d": 357.1424999999872,
      "v": 100
    },
    {
      "midi": 62,
      "hit": false,
      "t": 188214.0975000001,
      "d": 357.1424999999872,
      "v": 100
    },
    {
      "midi": 66,
      "hit": false,
      "t": 188214.0975000001,
      "d": 357.1424999999872,
      "v": 100
    },
    {
      "midi": 52,
      "hit": false,
      "t": 188571.24000000008,
      "d": 714.2850000000035,
      "v": 100
    },
    {
      "midi": 59,
      "hit": false,
      "t": 188571.24000000008,
      "d": 714.2850000000035,
      "v": 100
    },
    {
      "midi": 64,
      "hit": false,
      "t": 188571.24000000008,
      "d": 714.2850000000035,
      "v": 100
    },
    {
      "midi": 67,
      "hit": false,
      "t": 188571.24000000008,
      "d": 714.2850000000035,
      "v": 100
    },
    {
      "midi": 50,
      "hit": false,
      "t": 189285.52500000008,
      "d": 714.2850000000035,
      "v": 100
    },
    {
      "midi": 62,
      "hit": false,
      "t": 189285.52500000008,
      "d": 714.2850000000035,
      "v": 100
    },
    {
      "midi": 67,
      "hit": false,
      "t": 189285.52500000008,
      "d": 714.2850000000035,
      "v": 100
    },
    {
      "midi": 71,
      "hit": false,
      "t": 189285.52500000008,
      "d": 714.2850000000035,
      "v": 100
    },
    {
      "midi": 62,
      "hit": false,
      "t": 189999.81000000008,
      "d": 714.2850000000035,
      "v": 100
    },
    {
      "midi": 67,
      "hit": false,
      "t": 189999.81000000008,
      "d": 714.2850000000035,
      "v": 100
    },
    {
      "midi": 71,
      "hit": false,
      "t": 189999.81000000008,
      "d": 714.2850000000035,
      "v": 100
    },
    {
      "midi": 45,
      "hit": false,
      "t": 189999.81000000008,
      "d": 1428.570000000007,
      "v": 100
    },
    {
      "midi": 61,
      "hit": false,
      "t": 190714.0950000001,
      "d": 714.2850000000035,
      "v": 100
    },
    {
      "midi": 66,
      "hit": false,
      "t": 190714.0950000001,
      "d": 714.2850000000035,
      "v": 100
    },
    {
      "midi": 69,
      "hit": false,
      "t": 190714.0950000001,
      "d": 714.2850000000035,
      "v": 100
    },
    {
      "midi": 47,
      "hit": false,
      "t": 191428.3800000001,
      "d": 714.2850000000035,
      "v": 100
    },
    {
      "midi": 66,
      "hit": false,
      "t": 191428.3800000001,
      "d": 714.2850000000035,
      "v": 100
    },
    {
      "midi": 71,
      "hit": false,
      "t": 191428.3800000001,
      "d": 714.2850000000035,
      "v": 100
    },
    {
      "midi": 74,
      "hit": false,
      "t": 191428.3800000001,
      "d": 714.2850000000035,
      "v": 100
    },
    {
      "midi": 49,
      "hit": false,
      "t": 192142.6650000001,
      "d": 714.2850000000035,
      "v": 100
    },
    {
      "midi": 61,
      "hit": false,
      "t": 192142.6650000001,
      "d": 714.2850000000035,
      "v": 100
    },
    {
      "midi": 64,
      "hit": false,
      "t": 192142.6650000001,
      "d": 714.2850000000035,
      "v": 100
    },
    {
      "midi": 69,
      "hit": false,
      "t": 192142.6650000001,
      "d": 714.2850000000035,
      "v": 100
    },
    {
      "midi": 50,
      "hit": false,
      "t": 192856.9500000001,
      "d": 714.2850000000035,
      "v": 100
    },
    {
      "midi": 62,
      "hit": false,
      "t": 192856.9500000001,
      "d": 1071.4274999999907,
      "v": 100
    },
    {
      "midi": 66,
      "hit": false,
      "t": 192856.9500000001,
      "d": 1071.4274999999907,
      "v": 100
    },
    {
      "midi": 69,
      "hit": false,
      "t": 192856.9500000001,
      "d": 1071.4274999999907,
      "v": 100
    },
    {
      "midi": 42,
      "hit": false,
      "t": 193571.2350000001,
      "d": 714.2849999999744,
      "v": 100
    },
    {
      "midi": 62,
      "hit": false,
      "t": 193928.3775000001,
      "d": 357.1424999999872,
      "v": 100
    },
    {
      "midi": 66,
      "hit": false,
      "t": 193928.3775000001,
      "d": 357.1424999999872,
      "v": 100
    },
    {
      "midi": 43,
      "hit": false,
      "t": 194285.52000000008,
      "d": 714.2850000000035,
      "v": 100
    },
    {
      "midi": 62,
      "hit": false,
      "t": 194285.52000000008,
      "d": 714.2850000000035,
      "v": 100
    },
    {
      "midi": 66,
      "hit": false,
      "t": 194285.52000000008,
      "d": 714.2850000000035,
      "v": 100
    },
    {
      "midi": 45,
      "hit": false,
      "t": 194999.80500000008,
      "d": 714.2850000000035,
      "v": 100
    },
    {
      "midi": 61,
      "hit": false,
      "t": 194999.80500000008,
      "d": 714.2850000000035,
      "v": 100
    },
    {
      "midi": 64,
      "hit": false,
      "t": 194999.80500000008,
      "d": 714.2850000000035,
      "v": 100
    },
    {
      "midi": 38,
      "hit": false,
      "t": 195714.09000000008,
      "d": 714.2850000000035,
      "v": 100
    },
    {
      "midi": 45,
      "hit": false,
      "t": 195714.09000000008,
      "d": 714.2850000000035,
      "v": 100
    },
    {
      "midi": 54,
      "hit": false,
      "t": 195714.09000000008,
      "d": 714.2850000000035,
      "v": 100
    },
    {
      "midi": 57,
      "hit": false,
      "t": 195714.09000000008,
      "d": 714.2850000000035,
      "v": 100
    },
    {
      "midi": 62,
      "hit": false,
      "t": 195714.09000000008,
      "d": 714.2850000000035,
      "v": 100
    },
    {
      "midi": 62,
      "hit": false,
      "t": 197142.6600000001,
      "d": 714.2850000000035,
      "v": 100
    },
    {
      "midi": 74,
      "hit": false,
      "t": 197142.6600000001,
      "d": 714.2850000000035,
      "v": 100
    },
    {
      "midi": 62,
      "hit": false,
      "t": 197856.9450000001,
      "d": 714.2850000000035,
      "v": 100
    },
    {
      "midi": 74,
      "hit": false,
      "t": 197856.9450000001,
      "d": 714.2850000000035,
      "v": 100
    },
    {
      "midi": 62,
      "hit": false,
      "t": 198571.2300000001,
      "d": 714.2850000000035,
      "v": 100
    },
    {
      "midi": 74,
      "hit": false,
      "t": 198571.2300000001,
      "d": 714.2850000000035,
      "v": 100
    },
    {
      "midi": 59,
      "hit": false,
      "t": 199285.5150000001,
      "d": 714.2850000000035,
      "v": 100
    },
    {
      "midi": 62,
      "hit": false,
      "t": 199285.5150000001,
      "d": 714.2850000000035,
      "v": 100
    },
    {
      "midi": 67,
      "hit": false,
      "t": 199285.5150000001,
      "d": 714.2850000000035,
      "v": 100
    },
    {
      "midi": 54,
      "hit": false,
      "t": 199999.8000000001,
      "d": 714.2850000000035,
      "v": 100
    },
    {
      "midi": 62,
      "hit": false,
      "t": 199999.8000000001,
      "d": 714.2850000000035,
      "v": 100
    },
    {
      "midi": 69,
      "hit": false,
      "t": 199999.8000000001,
      "d": 714.2850000000035,
      "v": 100
    },
    {
      "midi": 72,
      "hit": false,
      "t": 199999.8000000001,
      "d": 714.2850000000035,
      "v": 100
    },
    {
      "midi": 55,
      "hit": false,
      "t": 200714.0850000001,
      "d": 714.2850000000035,
      "v": 100
    },
    {
      "midi": 62,
      "hit": false,
      "t": 200714.0850000001,
      "d": 714.2850000000035,
      "v": 100
    },
    {
      "midi": 67,
      "hit": false,
      "t": 200714.0850000001,
      "d": 714.2850000000035,
      "v": 100
    },
    {
      "midi": 71,
      "hit": false,
      "t": 200714.0850000001,
      "d": 714.2850000000035,
      "v": 100
    },
    {
      "midi": 67,
      "hit": false,
      "t": 201428.3700000001,
      "d": 714.2850000000035,
      "v": 100
    },
    {
      "midi": 71,
      "hit": false,
      "t": 201428.3700000001,
      "d": 714.2850000000035,
      "v": 100
    },
    {
      "midi": 50,
      "hit": false,
      "t": 201428.3700000001,
      "d": 1428.570000000007,
      "v": 100
    },
    {
      "midi": 62,
      "hit": false,
      "t": 201428.3700000001,
      "d": 1428.570000000007,
      "v": 100
    },
    {
      "midi": 66,
      "hit": false,
      "t": 202142.65500000012,
      "d": 714.2850000000035,
      "v": 100
    },
    {
      "midi": 69,
      "hit": false,
      "t": 202142.65500000012,
      "d": 714.2850000000035,
      "v": 100
    },
    {
      "midi": 62,
      "hit": false,
      "t": 202856.94000000012,
      "d": 714.2850000000035,
      "v": 100
    },
    {
      "midi": 74,
      "hit": false,
      "t": 202856.94000000012,
      "d": 714.2850000000035,
      "v": 100
    },
    {
      "midi": 62,
      "hit": false,
      "t": 203571.22500000012,
      "d": 714.2850000000035,
      "v": 100
    },
    {
      "midi": 74,
      "hit": false,
      "t": 203571.22500000012,
      "d": 714.2850000000035,
      "v": 100
    },
    {
      "midi": 62,
      "hit": false,
      "t": 204285.51000000013,
      "d": 714.2850000000035,
      "v": 100
    },
    {
      "midi": 74,
      "hit": false,
      "t": 204285.51000000013,
      "d": 714.2850000000035,
      "v": 100
    },
    {
      "midi": 59,
      "hit": false,
      "t": 204999.79500000013,
      "d": 714.2850000000035,
      "v": 100
    },
    {
      "midi": 62,
      "hit": false,
      "t": 204999.79500000013,
      "d": 714.2850000000035,
      "v": 100
    },
    {
      "midi": 67,
      "hit": false,
      "t": 204999.79500000013,
      "d": 714.2850000000035,
      "v": 100
    },
    {
      "midi": 54,
      "hit": false,
      "t": 205714.08000000013,
      "d": 714.2850000000035,
      "v": 100
    },
    {
      "midi": 62,
      "hit": false,
      "t": 205714.08000000013,
      "d": 714.2850000000035,
      "v": 100
    },
    {
      "midi": 69,
      "hit": false,
      "t": 205714.08000000013,
      "d": 714.2850000000035,
      "v": 100
    },
    {
      "midi": 72,
      "hit": false,
      "t": 205714.08000000013,
      "d": 714.2850000000035,
      "v": 100
    },
    {
      "midi": 55,
      "hit": false,
      "t": 206428.36500000014,
      "d": 714.2850000000035,
      "v": 100
    },
    {
      "midi": 62,
      "hit": false,
      "t": 206428.36500000014,
      "d": 714.2850000000035,
      "v": 100
    },
    {
      "midi": 67,
      "hit": false,
      "t": 206428.36500000014,
      "d": 714.2850000000035,
      "v": 100
    },
    {
      "midi": 71,
      "hit": false,
      "t": 206428.36500000014,
      "d": 714.2850000000035,
      "v": 100
    },
    {
      "midi": 67,
      "hit": false,
      "t": 207142.65000000014,
      "d": 714.2850000000035,
      "v": 100
    },
    {
      "midi": 71,
      "hit": false,
      "t": 207142.65000000014,
      "d": 714.2850000000035,
      "v": 100
    },
    {
      "midi": 50,
      "hit": false,
      "t": 207142.65000000014,
      "d": 1428.570000000007,
      "v": 100
    },
    {
      "midi": 62,
      "hit": false,
      "t": 207142.65000000014,
      "d": 1428.570000000007,
      "v": 100
    },
    {
      "midi": 66,
      "hit": false,
      "t": 207856.93500000014,
      "d": 714.2850000000035,
      "v": 100
    },
    {
      "midi": 69,
      "hit": false,
      "t": 207856.93500000014,
      "d": 714.2850000000035,
      "v": 100
    },
    {
      "midi": 64,
      "hit": false,
      "t": 208571.22000000015,
      "d": 1071.4274999999907,
      "v": 100
    },
    {
      "midi": 72,
      "hit": false,
      "t": 208571.22000000015,
      "d": 1071.4274999999907,
      "v": 100
    },
    {
      "midi": 76,
      "hit": false,
      "t": 208571.22000000015,
      "d": 1071.4274999999907,
      "v": 100
    },
    {
      "midi": 48,
      "hit": false,
      "t": 208571.22000000015,
      "d": 3571.4249999999884,
      "v": 100
    },
    {
      "midi": 55,
      "hit": false,
      "t": 208571.22000000015,
      "d": 3571.4249999999884,
      "v": 100
    },
    {
      "midi": 64,
      "hit": false,
      "t": 209642.64750000014,
      "d": 357.1424999999872,
      "v": 100
    },
    {
      "midi": 72,
      "hit": false,
      "t": 209642.64750000014,
      "d": 357.1424999999872,
      "v": 100
    },
    {
      "midi": 76,
      "hit": false,
      "t": 209642.64750000014,
      "d": 357.1424999999872,
      "v": 100
    },
    {
      "midi": 64,
      "hit": false,
      "t": 209999.79000000012,
      "d": 714.2850000000035,
      "v": 100
    },
    {
      "midi": 72,
      "hit": false,
      "t": 209999.79000000012,
      "d": 714.2850000000035,
      "v": 100
    },
    {
      "midi": 76,
      "hit": false,
      "t": 209999.79000000012,
      "d": 714.2850000000035,
      "v": 100
    },
    {
      "midi": 62,
      "hit": false,
      "t": 210714.07500000013,
      "d": 714.2850000000035,
      "v": 100
    },
    {
      "midi": 71,
      "hit": false,
      "t": 210714.07500000013,
      "d": 714.2850000000035,
      "v": 100
    },
    {
      "midi": 74,
      "hit": false,
      "t": 210714.07500000013,
      "d": 714.2850000000035,
      "v": 100
    },
    {
      "midi": 60,
      "hit": false,
      "t": 211428.36000000013,
      "d": 714.2850000000035,
      "v": 100
    },
    {
      "midi": 69,
      "hit": false,
      "t": 211428.36000000013,
      "d": 714.2850000000035,
      "v": 100
    },
    {
      "midi": 72,
      "hit": false,
      "t": 211428.36000000013,
      "d": 714.2850000000035,
      "v": 100
    },
    {
      "midi": 40,
      "hit": false,
      "t": 212142.64500000014,
      "d": 714.2850000000035,
      "v": 100
    },
    {
      "midi": 64,
      "hit": false,
      "t": 212142.64500000014,
      "d": 714.2850000000035,
      "v": 100
    },
    {
      "midi": 68,
      "hit": false,
      "t": 212142.64500000014,
      "d": 714.2850000000035,
      "v": 100
    },
    {
      "midi": 71,
      "hit": false,
      "t": 212142.64500000014,
      "d": 714.2850000000035,
      "v": 100
    },
    {
      "midi": 45,
      "hit": false,
      "t": 212856.93000000014,
      "d": 1428.570000000007,
      "v": 100
    },
    {
      "midi": 52,
      "hit": false,
      "t": 212856.93000000014,
      "d": 1428.570000000007,
      "v": 100
    },
    {
      "midi": 64,
      "hit": false,
      "t": 212856.93000000014,
      "d": 1428.570000000007,
      "v": 100
    },
    {
      "midi": 69,
      "hit": false,
      "t": 212856.93000000014,
      "d": 1428.570000000007,
      "v": 100
    },
    {
      "midi": 72,
      "hit": false,
      "t": 212856.93000000014,
      "d": 1428.570000000007,
      "v": 100
    },
    {
      "midi": 50,
      "hit": false,
      "t": 214285.50000000015,
      "d": 714.2850000000035,
      "v": 100
    },
    {
      "midi": 62,
      "hit": false,
      "t": 214285.50000000015,
      "d": 714.2850000000035,
      "v": 100
    },
    {
      "midi": 66,
      "hit": false,
      "t": 214285.50000000015,
      "d": 714.2850000000035,
      "v": 100
    },
    {
      "midi": 69,
      "hit": false,
      "t": 214285.50000000015,
      "d": 714.2850000000035,
      "v": 100
    },
    {
      "midi": 71,
      "hit": false,
      "t": 214999.78500000015,
      "d": 357.1424999999872,
      "v": 100
    },
    {
      "midi": 48,
      "hit": false,
      "t": 214999.78500000015,
      "d": 714.2849999999744,
      "v": 100
    },
    {
      "midi": 62,
      "hit": false,
      "t": 214999.78500000015,
      "d": 714.2849999999744,
      "v": 100
    },
    {
      "midi": 66,
      "hit": false,
      "t": 214999.78500000015,
      "d": 714.2849999999744,
      "v": 100
    },
    {
      "midi": 72,
      "hit": false,
      "t": 215356.92750000014,
      "d": 357.1424999999872,
      "v": 100
    },
    {
      "midi": 47,
      "hit": false,
      "t": 215714.07000000012,
      "d": 714.2850000000035,
      "v": 100
    },
    {
      "midi": 62,
      "hit": false,
      "t": 215714.07000000012,
      "d": 1071.4274999999907,
      "v": 100
    },
    {
      "midi": 67,
      "hit": false,
      "t": 215714.07000000012,
      "d": 1071.4274999999907,
      "v": 100
    },
    {
      "midi": 71,
      "hit": false,
      "t": 215714.07000000012,
      "d": 1071.4274999999907,
      "v": 100
    },
    {
      "midi": 74,
      "hit": false,
      "t": 215714.07000000012,
      "d": 1071.4274999999907,
      "v": 100
    },
    {
      "midi": 43,
      "hit": false,
      "t": 216428.35500000013,
      "d": 714.2849999999744,
      "v": 100
    },
    {
      "midi": 59,
      "hit": false,
      "t": 216785.4975000001,
      "d": 357.1424999999872,
      "v": 100
    },
    {
      "midi": 62,
      "hit": false,
      "t": 216785.4975000001,
      "d": 357.1424999999872,
      "v": 100
    },
    {
      "midi": 67,
      "hit": false,
      "t": 216785.4975000001,
      "d": 357.1424999999872,
      "v": 100
    },
    {
      "midi": 59,
      "hit": false,
      "t": 217142.6400000001,
      "d": 714.2850000000035,
      "v": 100
    },
    {
      "midi": 62,
      "hit": false,
      "t": 217142.6400000001,
      "d": 714.2850000000035,
      "v": 100
    },
    {
      "midi": 67,
      "hit": false,
      "t": 217142.6400000001,
      "d": 714.2850000000035,
      "v": 100
    },
    {
      "midi": 50,
      "hit": false,
      "t": 217142.6400000001,
      "d": 1428.570000000007,
      "v": 100
    },
    {
      "midi": 62,
      "hit": false,
      "t": 217856.9250000001,
      "d": 714.2850000000035,
      "v": 100
    },
    {
      "midi": 66,
      "hit": false,
      "t": 217856.9250000001,
      "d": 714.2850000000035,
      "v": 100
    },
    {
      "midi": 69,
      "hit": false,
      "t": 217856.9250000001,
      "d": 714.2850000000035,
      "v": 100
    },
    {
      "midi": 43,
      "hit": false,
      "t": 218571.2100000001,
      "d": 1428.570000000007,
      "v": 100
    },
    {
      "midi": 50,
      "hit": false,
      "t": 218571.2100000001,
      "d": 1428.570000000007,
      "v": 100
    },
    {
      "midi": 62,
      "hit": false,
      "t": 218571.2100000001,
      "d": 1428.570000000007,
      "v": 100
    },
    {
      "midi": 67,
      "hit": false,
      "t": 218571.2100000001,
      "d": 1428.570000000007,
      "v": 100
    },
    {
      "midi": 71,
      "hit": false,
      "t": 218571.2100000001,
      "d": 1428.570000000007,
      "v": 100
    },
    {
      "midi": 64,
      "hit": false,
      "t": 219999.78000000012,
      "d": 1071.4274999999907,
      "v": 100
    },
    {
      "midi": 72,
      "hit": false,
      "t": 219999.78000000012,
      "d": 1071.4274999999907,
      "v": 100
    },
    {
      "midi": 76,
      "hit": false,
      "t": 219999.78000000012,
      "d": 1071.4274999999907,
      "v": 100
    },
    {
      "midi": 48,
      "hit": false,
      "t": 219999.78000000012,
      "d": 3571.4249999999884,
      "v": 100
    },
    {
      "midi": 55,
      "hit": false,
      "t": 219999.78000000012,
      "d": 3571.4249999999884,
      "v": 100
    },
    {
      "midi": 64,
      "hit": false,
      "t": 221071.2075000001,
      "d": 357.1424999999872,
      "v": 100
    },
    {
      "midi": 72,
      "hit": false,
      "t": 221071.2075000001,
      "d": 357.1424999999872,
      "v": 100
    },
    {
      "midi": 76,
      "hit": false,
      "t": 221071.2075000001,
      "d": 357.1424999999872,
      "v": 100
    },
    {
      "midi": 64,
      "hit": false,
      "t": 221428.3500000001,
      "d": 714.2850000000035,
      "v": 100
    },
    {
      "midi": 72,
      "hit": false,
      "t": 221428.3500000001,
      "d": 714.2850000000035,
      "v": 100
    },
    {
      "midi": 76,
      "hit": false,
      "t": 221428.3500000001,
      "d": 714.2850000000035,
      "v": 100
    },
    {
      "midi": 62,
      "hit": false,
      "t": 222142.6350000001,
      "d": 714.2850000000035,
      "v": 100
    },
    {
      "midi": 71,
      "hit": false,
      "t": 222142.6350000001,
      "d": 714.2850000000035,
      "v": 100
    },
    {
      "midi": 74,
      "hit": false,
      "t": 222142.6350000001,
      "d": 714.2850000000035,
      "v": 100
    },
    {
      "midi": 60,
      "hit": false,
      "t": 222856.9200000001,
      "d": 714.2850000000035,
      "v": 100
    },
    {
      "midi": 69,
      "hit": false,
      "t": 222856.9200000001,
      "d": 714.2850000000035,
      "v": 100
    },
    {
      "midi": 72,
      "hit": false,
      "t": 222856.9200000001,
      "d": 714.2850000000035,
      "v": 100
    },
    {
      "midi": 40,
      "hit": false,
      "t": 223571.2050000001,
      "d": 714.2850000000035,
      "v": 100
    },
    {
      "midi": 64,
      "hit": false,
      "t": 223571.2050000001,
      "d": 714.2850000000035,
      "v": 100
    },
    {
      "midi": 68,
      "hit": false,
      "t": 223571.2050000001,
      "d": 714.2850000000035,
      "v": 100
    },
    {
      "midi": 71,
      "hit": false,
      "t": 223571.2050000001,
      "d": 714.2850000000035,
      "v": 100
    },
    {
      "midi": 45,
      "hit": false,
      "t": 224285.4900000001,
      "d": 714.2850000000035,
      "v": 100
    },
    {
      "midi": 64,
      "hit": false,
      "t": 224285.4900000001,
      "d": 1428.570000000007,
      "v": 100
    },
    {
      "midi": 69,
      "hit": false,
      "t": 224285.4900000001,
      "d": 1428.570000000007,
      "v": 100
    },
    {
      "midi": 72,
      "hit": false,
      "t": 224285.4900000001,
      "d": 1428.570000000007,
      "v": 100
    },
    {
      "midi": 43,
      "hit": false,
      "t": 224999.7750000001,
      "d": 714.2850000000035,
      "v": 100
    },
    {
      "midi": 42,
      "hit": false,
      "t": 225714.0600000001,
      "d": 714.2850000000035,
      "v": 100
    },
    {
      "midi": 62,
      "hit": false,
      "t": 225714.0600000001,
      "d": 714.2850000000035,
      "v": 100
    },
    {
      "midi": 66,
      "hit": false,
      "t": 225714.0600000001,
      "d": 714.2850000000035,
      "v": 100
    },
    {
      "midi": 69,
      "hit": false,
      "t": 225714.0600000001,
      "d": 714.2850000000035,
      "v": 100
    },
    {
      "midi": 71,
      "hit": false,
      "t": 226428.34500000012,
      "d": 357.1424999999872,
      "v": 100
    },
    {
      "midi": 48,
      "hit": false,
      "t": 226428.34500000012,
      "d": 714.2849999999744,
      "v": 100
    },
    {
      "midi": 62,
      "hit": false,
      "t": 226428.34500000012,
      "d": 714.2849999999744,
      "v": 100
    },
    {
      "midi": 66,
      "hit": false,
      "t": 226428.34500000012,
      "d": 714.2849999999744,
      "v": 100
    },
    {
      "midi": 72,
      "hit": false,
      "t": 226785.4875000001,
      "d": 357.1424999999872,
      "v": 100
    },
    {
      "midi": 47,
      "hit": false,
      "t": 227142.6300000001,
      "d": 714.2850000000035,
      "v": 100
    },
    {
      "midi": 62,
      "hit": false,
      "t": 227142.6300000001,
      "d": 1071.4274999999907,
      "v": 100
    },
    {
      "midi": 67,
      "hit": false,
      "t": 227142.6300000001,
      "d": 1071.4274999999907,
      "v": 100
    },
    {
      "midi": 71,
      "hit": false,
      "t": 227142.6300000001,
      "d": 1071.4274999999907,
      "v": 100
    },
    {
      "midi": 74,
      "hit": false,
      "t": 227142.6300000001,
      "d": 1071.4274999999907,
      "v": 100
    },
    {
      "midi": 43,
      "hit": false,
      "t": 227856.9150000001,
      "d": 714.2849999999744,
      "v": 100
    },
    {
      "midi": 71,
      "hit": false,
      "t": 228214.05750000008,
      "d": 357.1424999999872,
      "v": 100
    },
    {
      "midi": 74,
      "hit": false,
      "t": 228214.05750000008,
      "d": 357.1424999999872,
      "v": 100
    },
    {
      "midi": 79,
      "hit": false,
      "t": 228214.05750000008,
      "d": 357.1424999999872,
      "v": 100
    },
    {
      "midi": 50,
      "hit": false,
      "t": 228571.20000000007,
      "d": 714.2850000000035,
      "v": 100
    },
    {
      "midi": 71,
      "hit": false,
      "t": 228571.20000000007,
      "d": 714.2850000000035,
      "v": 100
    },
    {
      "midi": 74,
      "hit": false,
      "t": 228571.20000000007,
      "d": 714.2850000000035,
      "v": 100
    },
    {
      "midi": 79,
      "hit": false,
      "t": 228571.20000000007,
      "d": 714.2850000000035,
      "v": 100
    },
    {
      "midi": 50,
      "hit": false,
      "t": 229285.48500000007,
      "d": 714.2850000000035,
      "v": 100
    },
    {
      "midi": 69,
      "hit": false,
      "t": 229285.48500000007,
      "d": 714.2850000000035,
      "v": 100
    },
    {
      "midi": 74,
      "hit": false,
      "t": 229285.48500000007,
      "d": 714.2850000000035,
      "v": 100
    },
    {
      "midi": 78,
      "hit": false,
      "t": 229285.48500000007,
      "d": 714.2850000000035,
      "v": 100
    },
    {
      "midi": 43,
      "hit": false,
      "t": 229999.77000000008,
      "d": 4285.709999999992,
      "v": 100
    },
    {
      "midi": 50,
      "hit": false,
      "t": 229999.77000000008,
      "d": 4285.709999999992,
      "v": 100
    },
    {
      "midi": 71,
      "hit": false,
      "t": 229999.77000000008,
      "d": 4285.709999999992,
      "v": 100
    },
    {
      "midi": 74,
      "hit": false,
      "t": 229999.77000000008,
      "d": 4285.709999999992,
      "v": 100
    },
    {
      "midi": 79,
      "hit": false,
      "t": 229999.77000000008,
      "d": 4285.709999999992,
      "v": 100
    }
  ]
}