{
  "jsonPath": "Folk/Freak Folk/Scout Niblett/dinosaur-egg.json",
  "path": "Folk\\Freak Folk\\Scout Niblett\\Dinosaur Egg.mid",
  "name": "Dinosaur Egg",
  "difficulty": "Advanced",
  "bpm": 119.99952000191999,
  "notes": [
    {
      "midi": 62,
      "hit": false,
      "t": 1010.257947265625,
      "d": 989.2617695312499,
      "v": 70
    },
    {
      "midi": 67,
      "hit": false,
      "t": 1010.257947265625,
      "d": 989.2617695312499,
      "v": 84
    },
    {
      "midi": 42,
      "hit": false,
      "t": 2001.9611328125,
      "d": 512.209080078125,
      "v": 99
    },
    {
      "midi": 61,
      "hit": false,
      "t": 2001.9611328125,
      "d": 512.209080078125,
      "v": 91
    },
    {
      "midi": 66,
      "hit": false,
      "t": 2001.9611328125,
      "d": 512.209080078125,
      "v": 105
    },
    {
      "midi": 42,
      "hit": false,
      "t": 2761.241513671875,
      "d": 120.60595117187495,
      "v": 63
    },
    {
      "midi": 61,
      "hit": false,
      "t": 2761.241513671875,
      "d": 120.60595117187495,
      "v": 55
    },
    {
      "midi": 66,
      "hit": false,
      "t": 2761.241513671875,
      "d": 120.60595117187495,
      "v": 65
    },
    {
      "midi": 42,
      "hit": false,
      "t": 2882.335748046875,
      "d": 127.44191601562488,
      "v": 63
    },
    {
      "midi": 61,
      "hit": false,
      "t": 2882.335748046875,
      "d": 127.44191601562488,
      "v": 55
    },
    {
      "midi": 66,
      "hit": false,
      "t": 2882.335748046875,
      "d": 127.44191601562488,
      "v": 65
    },
    {
      "midi": 42,
      "hit": false,
      "t": 3010.2659472656246,
      "d": 248.53615039062515,
      "v": 66
    },
    {
      "midi": 61,
      "hit": false,
      "t": 3010.2659472656246,
      "d": 248.53615039062515,
      "v": 58
    },
    {
      "midi": 66,
      "hit": false,
      "t": 3010.2659472656246,
      "d": 248.53615039062515,
      "v": 68
    },
    {
      "midi": 42,
      "hit": false,
      "t": 3259.2903808593746,
      "d": 246.09473437499992,
      "v": 63
    },
    {
      "midi": 61,
      "hit": false,
      "t": 3259.2903808593746,
      "d": 246.09473437499992,
      "v": 55
    },
    {
      "midi": 66,
      "hit": false,
      "t": 3259.2903808593746,
      "d": 246.09473437499992,
      "v": 65
    },
    {
      "midi": 42,
      "hit": false,
      "t": 3505.8733984374994,
      "d": 493.6543183593749,
      "v": 76
    },
    {
      "midi": 61,
      "hit": false,
      "t": 3505.8733984374994,
      "d": 493.6543183593749,
      "v": 68
    },
    {
      "midi": 66,
      "hit": false,
      "t": 3505.8733984374994,
      "d": 493.6543183593749,
      "v": 78
    },
    {
      "midi": 42,
      "hit": false,
      "t": 4001.969132812499,
      "d": 512.2090800781252,
      "v": 99
    },
    {
      "midi": 61,
      "hit": false,
      "t": 4001.969132812499,
      "d": 512.2090800781252,
      "v": 91
    },
    {
      "midi": 66,
      "hit": false,
      "t": 4001.969132812499,
      "d": 512.2090800781252,
      "v": 101
    },
    {
      "midi": 42,
      "hit": false,
      "t": 4761.249513671874,
      "d": 120.60595117187495,
      "v": 63
    },
    {
      "midi": 61,
      "hit": false,
      "t": 4761.249513671874,
      "d": 120.60595117187495,
      "v": 55
    },
    {
      "midi": 66,
      "hit": false,
      "t": 4761.249513671874,
      "d": 120.60595117187495,
      "v": 65
    },
    {
      "midi": 42,
      "hit": false,
      "t": 4882.343748046875,
      "d": 127.44191601562488,
      "v": 63
    },
    {
      "midi": 61,
      "hit": false,
      "t": 4882.343748046875,
      "d": 127.44191601562488,
      "v": 55
    },
    {
      "midi": 66,
      "hit": false,
      "t": 4882.343748046875,
      "d": 127.44191601562488,
      "v": 65
    },
    {
      "midi": 42,
      "hit": false,
      "t": 5010.273947265625,
      "d": 248.53615039062515,
      "v": 66
    },
    {
      "midi": 61,
      "hit": false,
      "t": 5010.273947265625,
      "d": 248.53615039062515,
      "v": 58
    },
    {
      "midi": 66,
      "hit": false,
      "t": 5010.273947265625,
      "d": 248.53615039062515,
      "v": 68
    },
    {
      "midi": 42,
      "hit": false,
      "t": 5259.298380859375,
      "d": 246.09473437500037,
      "v": 63
    },
    {
      "midi": 61,
      "hit": false,
      "t": 5259.298380859375,
      "d": 246.09473437500037,
      "v": 55
    },
    {
      "midi": 66,
      "hit": false,
      "t": 5259.298380859375,
      "d": 246.09473437500037,
      "v": 65
    },
    {
      "midi": 42,
      "hit": false,
      "t": 5505.881398437501,
      "d": 493.6543183593749,
      "v": 76
    },
    {
      "midi": 61,
      "hit": false,
      "t": 5505.881398437501,
      "d": 493.6543183593749,
      "v": 68
    },
    {
      "midi": 66,
      "hit": false,
      "t": 5505.881398437501,
      "d": 493.6543183593749,
      "v": 82
    },
    {
      "midi": 44,
      "hit": false,
      "t": 6001.977132812501,
      "d": 512.2090800781252,
      "v": 99
    },
    {
      "midi": 63,
      "hit": false,
      "t": 6001.977132812501,
      "d": 512.2090800781252,
      "v": 91
    },
    {
      "midi": 68,
      "hit": false,
      "t": 6001.977132812501,
      "d": 512.2090800781252,
      "v": 105
    },
    {
      "midi": 44,
      "hit": false,
      "t": 6761.257513671876,
      "d": 120.60595117187495,
      "v": 63
    },
    {
      "midi": 63,
      "hit": false,
      "t": 6761.257513671876,
      "d": 120.60595117187495,
      "v": 55
    },
    {
      "midi": 68,
      "hit": false,
      "t": 6761.257513671876,
      "d": 120.60595117187495,
      "v": 65
    },
    {
      "midi": 44,
      "hit": false,
      "t": 6882.351748046876,
      "d": 127.44191601562488,
      "v": 63
    },
    {
      "midi": 63,
      "hit": false,
      "t": 6882.351748046876,
      "d": 127.44191601562488,
      "v": 55
    },
    {
      "midi": 68,
      "hit": false,
      "t": 6882.351748046876,
      "d": 127.44191601562488,
      "v": 65
    },
    {
      "midi": 44,
      "hit": false,
      "t": 7010.2819472656265,
      "d": 248.53615039062515,
      "v": 66
    },
    {
      "midi": 63,
      "hit": false,
      "t": 7010.2819472656265,
      "d": 248.53615039062515,
      "v": 58
    },
    {
      "midi": 68,
      "hit": false,
      "t": 7010.2819472656265,
      "d": 248.53615039062515,
      "v": 68
    },
    {
      "midi": 44,
      "hit": false,
      "t": 7259.306380859377,
      "d": 246.09473437500037,
      "v": 63
    },
    {
      "midi": 63,
      "hit": false,
      "t": 7259.306380859377,
      "d": 246.09473437500037,
      "v": 55
    },
    {
      "midi": 68,
      "hit": false,
      "t": 7259.306380859377,
      "d": 246.09473437500037,
      "v": 65
    },
    {
      "midi": 44,
      "hit": false,
      "t": 7505.889398437503,
      "d": 493.6543183593749,
      "v": 76
    },
    {
      "midi": 63,
      "hit": false,
      "t": 7505.889398437503,
      "d": 493.6543183593749,
      "v": 68
    },
    {
      "midi": 68,
      "hit": false,
      "t": 7505.889398437503,
      "d": 493.6543183593749,
      "v": 82
    },
    {
      "midi": 40,
      "hit": false,
      "t": 8001.985132812502,
      "d": 512.2090800781243,
      "v": 98
    },
    {
      "midi": 59,
      "hit": false,
      "t": 8001.985132812502,
      "d": 512.2090800781243,
      "v": 91
    },
    {
      "midi": 64,
      "hit": false,
      "t": 8001.985132812502,
      "d": 512.2090800781243,
      "v": 105
    },
    {
      "midi": 40,
      "hit": false,
      "t": 8761.265513671877,
      "d": 120.60595117187586,
      "v": 62
    },
    {
      "midi": 59,
      "hit": false,
      "t": 8761.265513671877,
      "d": 120.60595117187586,
      "v": 55
    },
    {
      "midi": 64,
      "hit": false,
      "t": 8761.265513671877,
      "d": 120.60595117187586,
      "v": 65
    },
    {
      "midi": 40,
      "hit": false,
      "t": 8882.359748046878,
      "d": 127.44191601562488,
      "v": 62
    },
    {
      "midi": 59,
      "hit": false,
      "t": 8882.359748046878,
      "d": 127.44191601562488,
      "v": 55
    },
    {
      "midi": 64,
      "hit": false,
      "t": 8882.359748046878,
      "d": 127.44191601562488,
      "v": 65
    },
    {
      "midi": 40,
      "hit": false,
      "t": 9010.289947265628,
      "d": 248.53615039062424,
      "v": 65
    },
    {
      "midi": 59,
      "hit": false,
      "t": 9010.289947265628,
      "d": 248.53615039062424,
      "v": 58
    },
    {
      "midi": 64,
      "hit": false,
      "t": 9010.289947265628,
      "d": 248.53615039062424,
      "v": 68
    },
    {
      "midi": 64,
      "hit": false,
      "t": 9259.314380859378,
      "d": 246.09473437499946,
      "v": 69
    },
    {
      "midi": 40,
      "hit": false,
      "t": 9259.314380859378,
      "d": 261.2315136718753,
      "v": 62
    },
    {
      "midi": 59,
      "hit": false,
      "t": 9259.314380859378,
      "d": 261.2315136718753,
      "v": 55
    },
    {
      "midi": 41,
      "hit": false,
      "t": 9505.897398437502,
      "d": 493.6543183593749,
      "v": 76
    },
    {
      "midi": 60,
      "hit": false,
      "t": 9505.897398437502,
      "d": 493.6543183593749,
      "v": 68
    },
    {
      "midi": 65,
      "hit": false,
      "t": 9505.897398437502,
      "d": 493.6543183593749,
      "v": 82
    },
    {
      "midi": 42,
      "hit": false,
      "t": 10001.993132812502,
      "d": 512.2090800781243,
      "v": 99
    },
    {
      "midi": 61,
      "hit": false,
      "t": 10001.993132812502,
      "d": 512.2090800781243,
      "v": 91
    },
    {
      "midi": 66,
      "hit": false,
      "t": 10001.993132812502,
      "d": 512.2090800781243,
      "v": 105
    },
    {
      "midi": 42,
      "hit": false,
      "t": 10761.273513671877,
      "d": 120.60595117187586,
      "v": 63
    },
    {
      "midi": 61,
      "hit": false,
      "t": 10761.273513671877,
      "d": 120.60595117187586,
      "v": 55
    },
    {
      "midi": 66,
      "hit": false,
      "t": 10761.273513671877,
      "d": 120.60595117187586,
      "v": 65
    },
    {
      "midi": 42,
      "hit": false,
      "t": 10882.367748046878,
      "d": 127.44191601562488,
      "v": 63
    },
    {
      "midi": 61,
      "hit": false,
      "t": 10882.367748046878,
      "d": 127.44191601562488,
      "v": 55
    },
    {
      "midi": 66,
      "hit": false,
      "t": 10882.367748046878,
      "d": 127.44191601562488,
      "v": 65
    },
    {
      "midi": 42,
      "hit": false,
      "t": 11010.297947265628,
      "d": 248.53615039062424,
      "v": 66
    },
    {
      "midi": 61,
      "hit": false,
      "t": 11010.297947265628,
      "d": 248.53615039062424,
      "v": 58
    },
    {
      "midi": 66,
      "hit": false,
      "t": 11010.297947265628,
      "d": 248.53615039062424,
      "v": 68
    },
    {
      "midi": 42,
      "hit": false,
      "t": 11259.322380859378,
      "d": 246.09473437499946,
      "v": 63
    },
    {
      "midi": 61,
      "hit": false,
      "t": 11259.322380859378,
      "d": 246.09473437499946,
      "v": 55
    },
    {
      "midi": 66,
      "hit": false,
      "t": 11259.322380859378,
      "d": 246.09473437499946,
      "v": 65
    },
    {
      "midi": 42,
      "hit": false,
      "t": 11505.905398437502,
      "d": 493.6543183593749,
      "v": 76
    },
    {
      "midi": 61,
      "hit": false,
      "t": 11505.905398437502,
      "d": 493.6543183593749,
      "v": 68
    },
    {
      "midi": 66,
      "hit": false,
      "t": 11505.905398437502,
      "d": 493.6543183593749,
      "v": 78
    },
    {
      "midi": 42,
      "hit": false,
      "t": 12002.001132812502,
      "d": 512.2090800781243,
      "v": 99
    },
    {
      "midi": 61,
      "hit": false,
      "t": 12002.001132812502,
      "d": 512.2090800781243,
      "v": 91
    },
    {
      "midi": 66,
      "hit": false,
      "t": 12002.001132812502,
      "d": 512.2090800781243,
      "v": 101
    },
    {
      "midi": 42,
      "hit": false,
      "t": 12761.281513671876,
      "d": 120.60595117187586,
      "v": 63
    },
    {
      "midi": 61,
      "hit": false,
      "t": 12761.281513671876,
      "d": 120.60595117187586,
      "v": 55
    },
    {
      "midi": 66,
      "hit": false,
      "t": 12761.281513671876,
      "d": 120.60595117187586,
      "v": 65
    },
    {
      "midi": 42,
      "hit": false,
      "t": 12882.375748046878,
      "d": 127.44191601562488,
      "v": 63
    },
    {
      "midi": 61,
      "hit": false,
      "t": 12882.375748046878,
      "d": 127.44191601562488,
      "v": 55
    },
    {
      "midi": 66,
      "hit": false,
      "t": 12882.375748046878,
      "d": 127.44191601562488,
      "v": 65
    },
    {
      "midi": 42,
      "hit": false,
      "t": 13010.305947265628,
      "d": 248.53615039062424,
      "v": 66
    },
    {
      "midi": 61,
      "hit": false,
      "t": 13010.305947265628,
      "d": 248.53615039062424,
      "v": 58
    },
    {
      "midi": 66,
      "hit": false,
      "t": 13010.305947265628,
      "d": 248.53615039062424,
      "v": 68
    },
    {
      "midi": 42,
      "hit": false,
      "t": 13259.330380859377,
      "d": 246.09473437499946,
      "v": 63
    },
    {
      "midi": 61,
      "hit": false,
      "t": 13259.330380859377,
      "d": 246.09473437499946,
      "v": 55
    },
    {
      "midi": 66,
      "hit": false,
      "t": 13259.330380859377,
      "d": 246.09473437499946,
      "v": 65
    },
    {
      "midi": 42,
      "hit": false,
      "t": 13505.913398437502,
      "d": 493.6543183593749,
      "v": 76
    },
    {
      "midi": 61,
      "hit": false,
      "t": 13505.913398437502,
      "d": 493.6543183593749,
      "v": 68
    },
    {
      "midi": 66,
      "hit": false,
      "t": 13505.913398437502,
      "d": 493.6543183593749,
      "v": 82
    },
    {
      "midi": 44,
      "hit": false,
      "t": 14002.009132812502,
      "d": 512.2090800781243,
      "v": 99
    },
    {
      "midi": 63,
      "hit": false,
      "t": 14002.009132812502,
      "d": 512.2090800781243,
      "v": 91
    },
    {
      "midi": 68,
      "hit": false,
      "t": 14002.009132812502,
      "d": 512.2090800781243,
      "v": 105
    },
    {
      "midi": 44,
      "hit": false,
      "t": 14761.289513671876,
      "d": 120.60595117187586,
      "v": 63
    },
    {
      "midi": 63,
      "hit": false,
      "t": 14761.289513671876,
      "d": 120.60595117187586,
      "v": 55
    },
    {
      "midi": 68,
      "hit": false,
      "t": 14761.289513671876,
      "d": 120.60595117187586,
      "v": 65
    },
    {
      "midi": 44,
      "hit": false,
      "t": 14882.383748046877,
      "d": 127.44191601562488,
      "v": 63
    },
    {
      "midi": 63,
      "hit": false,
      "t": 14882.383748046877,
      "d": 127.44191601562488,
      "v": 55
    },
    {
      "midi": 68,
      "hit": false,
      "t": 14882.383748046877,
      "d": 127.44191601562488,
      "v": 65
    },
    {
      "midi": 44,
      "hit": false,
      "t": 15010.313947265628,
      "d": 248.53615039062424,
      "v": 66
    },
    {
      "midi": 63,
      "hit": false,
      "t": 15010.313947265628,
      "d": 248.53615039062424,
      "v": 58
    },
    {
      "midi": 68,
      "hit": false,
      "t": 15010.313947265628,
      "d": 248.53615039062424,
      "v": 68
    },
    {
      "midi": 44,
      "hit": false,
      "t": 15259.338380859377,
      "d": 246.09473437499946,
      "v": 63
    },
    {
      "midi": 63,
      "hit": false,
      "t": 15259.338380859377,
      "d": 246.09473437499946,
      "v": 55
    },
    {
      "midi": 68,
      "hit": false,
      "t": 15259.338380859377,
      "d": 246.09473437499946,
      "v": 65
    },
    {
      "midi": 44,
      "hit": false,
      "t": 15505.921398437502,
      "d": 493.6543183593749,
      "v": 76
    },
    {
      "midi": 63,
      "hit": false,
      "t": 15505.921398437502,
      "d": 493.6543183593749,
      "v": 68
    },
    {
      "midi": 68,
      "hit": false,
      "t": 15505.921398437502,
      "d": 493.6543183593749,
      "v": 82
    },
    {
      "midi": 40,
      "hit": false,
      "t": 16002.017132812502,
      "d": 512.2090800781243,
      "v": 98
    },
    {
      "midi": 59,
      "hit": false,
      "t": 16002.017132812502,
      "d": 512.2090800781243,
      "v": 91
    },
    {
      "midi": 64,
      "hit": false,
      "t": 16002.017132812502,
      "d": 512.2090800781243,
      "v": 105
    },
    {
      "midi": 40,
      "hit": false,
      "t": 16761.297513671874,
      "d": 120.60595117187404,
      "v": 62
    },
    {
      "midi": 59,
      "hit": false,
      "t": 16761.297513671874,
      "d": 120.60595117187404,
      "v": 55
    },
    {
      "midi": 64,
      "hit": false,
      "t": 16761.297513671874,
      "d": 120.60595117187404,
      "v": 65
    },
    {
      "midi": 40,
      "hit": false,
      "t": 16882.391748046874,
      "d": 127.44191601562488,
      "v": 62
    },
    {
      "midi": 59,
      "hit": false,
      "t": 16882.391748046874,
      "d": 127.44191601562488,
      "v": 55
    },
    {
      "midi": 64,
      "hit": false,
      "t": 16882.391748046874,
      "d": 127.44191601562488,
      "v": 65
    },
    {
      "midi": 40,
      "hit": false,
      "t": 17010.321947265624,
      "d": 248.53615039062424,
      "v": 65
    },
    {
      "midi": 59,
      "hit": false,
      "t": 17010.321947265624,
      "d": 248.53615039062424,
      "v": 58
    },
    {
      "midi": 64,
      "hit": false,
      "t": 17010.321947265624,
      "d": 248.53615039062424,
      "v": 68
    },
    {
      "midi": 64,
      "hit": false,
      "t": 17259.346380859373,
      "d": 246.09473437500128,
      "v": 69
    },
    {
      "midi": 40,
      "hit": false,
      "t": 17259.346380859373,
      "d": 261.2315136718753,
      "v": 62
    },
    {
      "midi": 59,
      "hit": false,
      "t": 17259.346380859373,
      "d": 261.2315136718753,
      "v": 55
    },
    {
      "midi": 41,
      "hit": false,
      "t": 17505.9293984375,
      "d": 493.6543183593749,
      "v": 76
    },
    {
      "midi": 60,
      "hit": false,
      "t": 17505.9293984375,
      "d": 493.6543183593749,
      "v": 68
    },
    {
      "midi": 65,
      "hit": false,
      "t": 17505.9293984375,
      "d": 493.6543183593749,
      "v": 82
    },
    {
      "midi": 42,
      "hit": false,
      "t": 18002.0251328125,
      "d": 512.2090800781261,
      "v": 99
    },
    {
      "midi": 61,
      "hit": false,
      "t": 18002.0251328125,
      "d": 512.2090800781261,
      "v": 91
    },
    {
      "midi": 66,
      "hit": false,
      "t": 18002.0251328125,
      "d": 512.2090800781261,
      "v": 105
    },
    {
      "midi": 42,
      "hit": false,
      "t": 18761.305513671876,
      "d": 120.60595117187404,
      "v": 63
    },
    {
      "midi": 61,
      "hit": false,
      "t": 18761.305513671876,
      "d": 120.60595117187404,
      "v": 55
    },
    {
      "midi": 66,
      "hit": false,
      "t": 18761.305513671876,
      "d": 120.60595117187404,
      "v": 65
    },
    {
      "midi": 42,
      "hit": false,
      "t": 18882.399748046875,
      "d": 127.44191601562488,
      "v": 63
    },
    {
      "midi": 61,
      "hit": false,
      "t": 18882.399748046875,
      "d": 127.44191601562488,
      "v": 55
    },
    {
      "midi": 66,
      "hit": false,
      "t": 18882.399748046875,
      "d": 127.44191601562488,
      "v": 65
    },
    {
      "midi": 42,
      "hit": false,
      "t": 19010.329947265625,
      "d": 248.53615039062424,
      "v": 66
    },
    {
      "midi": 61,
      "hit": false,
      "t": 19010.329947265625,
      "d": 248.53615039062424,
      "v": 58
    },
    {
      "midi": 66,
      "hit": false,
      "t": 19010.329947265625,
      "d": 248.53615039062424,
      "v": 68
    },
    {
      "midi": 42,
      "hit": false,
      "t": 19259.354380859375,
      "d": 246.09473437500128,
      "v": 63
    },
    {
      "midi": 61,
      "hit": false,
      "t": 19259.354380859375,
      "d": 246.09473437500128,
      "v": 55
    },
    {
      "midi": 66,
      "hit": false,
      "t": 19259.354380859375,
      "d": 246.09473437500128,
      "v": 65
    },
    {
      "midi": 42,
      "hit": false,
      "t": 19505.9373984375,
      "d": 493.6543183593749,
      "v": 76
    },
    {
      "midi": 61,
      "hit": false,
      "t": 19505.9373984375,
      "d": 493.6543183593749,
      "v": 68
    },
    {
      "midi": 66,
      "hit": false,
      "t": 19505.9373984375,
      "d": 493.6543183593749,
      "v": 78
    },
    {
      "midi": 42,
      "hit": false,
      "t": 20002.033132812503,
      "d": 512.2090800781261,
      "v": 99
    },
    {
      "midi": 61,
      "hit": false,
      "t": 20002.033132812503,
      "d": 512.2090800781261,
      "v": 91
    },
    {
      "midi": 66,
      "hit": false,
      "t": 20002.033132812503,
      "d": 512.2090800781261,
      "v": 101
    },
    {
      "midi": 42,
      "hit": false,
      "t": 20761.313513671877,
      "d": 120.60595117187404,
      "v": 63
    },
    {
      "midi": 61,
      "hit": false,
      "t": 20761.313513671877,
      "d": 120.60595117187404,
      "v": 55
    },
    {
      "midi": 66,
      "hit": false,
      "t": 20761.313513671877,
      "d": 120.60595117187404,
      "v": 65
    },
    {
      "midi": 42,
      "hit": false,
      "t": 20882.407748046877,
      "d": 127.44191601562488,
      "v": 63
    },
    {
      "midi": 61,
      "hit": false,
      "t": 20882.407748046877,
      "d": 127.44191601562488,
      "v": 55
    },
    {
      "midi": 66,
      "hit": false,
      "t": 20882.407748046877,
      "d": 127.44191601562488,
      "v": 65
    },
    {
      "midi": 42,
      "hit": false,
      "t": 21010.337947265627,
      "d": 248.53615039062424,
      "v": 66
    },
    {
      "midi": 61,
      "hit": false,
      "t": 21010.337947265627,
      "d": 248.53615039062424,
      "v": 58
    },
    {
      "midi": 66,
      "hit": false,
      "t": 21010.337947265627,
      "d": 248.53615039062424,
      "v": 68
    },
    {
      "midi": 42,
      "hit": false,
      "t": 21259.362380859377,
      "d": 246.09473437500128,
      "v": 63
    },
    {
      "midi": 61,
      "hit": false,
      "t": 21259.362380859377,
      "d": 246.09473437500128,
      "v": 55
    },
    {
      "midi": 66,
      "hit": false,
      "t": 21259.362380859377,
      "d": 246.09473437500128,
      "v": 65
    },
    {
      "midi": 42,
      "hit": false,
      "t": 21505.945398437503,
      "d": 493.6543183593749,
      "v": 76
    },
    {
      "midi": 61,
      "hit": false,
      "t": 21505.945398437503,
      "d": 493.6543183593749,
      "v": 68
    },
    {
      "midi": 66,
      "hit": false,
      "t": 21505.945398437503,
      "d": 493.6543183593749,
      "v": 82
    },
    {
      "midi": 44,
      "hit": false,
      "t": 22002.041132812505,
      "d": 512.2090800781261,
      "v": 99
    },
    {
      "midi": 63,
      "hit": false,
      "t": 22002.041132812505,
      "d": 512.2090800781261,
      "v": 91
    },
    {
      "midi": 68,
      "hit": false,
      "t": 22002.041132812505,
      "d": 512.2090800781261,
      "v": 105
    },
    {
      "midi": 44,
      "hit": false,
      "t": 22761.32151367188,
      "d": 120.60595117187404,
      "v": 63
    },
    {
      "midi": 63,
      "hit": false,
      "t": 22761.32151367188,
      "d": 120.60595117187404,
      "v": 55
    },
    {
      "midi": 68,
      "hit": false,
      "t": 22761.32151367188,
      "d": 120.60595117187404,
      "v": 65
    },
    {
      "midi": 44,
      "hit": false,
      "t": 22882.41574804688,
      "d": 127.44191601562488,
      "v": 63
    },
    {
      "midi": 63,
      "hit": false,
      "t": 22882.41574804688,
      "d": 127.44191601562488,
      "v": 55
    },
    {
      "midi": 68,
      "hit": false,
      "t": 22882.41574804688,
      "d": 127.44191601562488,
      "v": 65
    },
    {
      "midi": 44,
      "hit": false,
      "t": 23010.34594726563,
      "d": 248.53615039062424,
      "v": 66
    },
    {
      "midi": 63,
      "hit": false,
      "t": 23010.34594726563,
      "d": 248.53615039062424,
      "v": 58
    },
    {
      "midi": 68,
      "hit": false,
      "t": 23010.34594726563,
      "d": 248.53615039062424,
      "v": 68
    },
    {
      "midi": 44,
      "hit": false,
      "t": 23259.37038085938,
      "d": 246.09473437500128,
      "v": 63
    },
    {
      "midi": 63,
      "hit": false,
      "t": 23259.37038085938,
      "d": 246.09473437500128,
      "v": 55
    },
    {
      "midi": 68,
      "hit": false,
      "t": 23259.37038085938,
      "d": 246.09473437500128,
      "v": 65
    },
    {
      "midi": 44,
      "hit": false,
      "t": 23505.953398437505,
      "d": 493.6543183593749,
      "v": 76
    },
    {
      "midi": 63,
      "hit": false,
      "t": 23505.953398437505,
      "d": 493.6543183593749,
      "v": 68
    },
    {
      "midi": 68,
      "hit": false,
      "t": 23505.953398437505,
      "d": 493.6543183593749,
      "v": 82
    },
    {
      "midi": 40,
      "hit": false,
      "t": 24002.049132812506,
      "d": 512.2090800781261,
      "v": 98
    },
    {
      "midi": 59,
      "hit": false,
      "t": 24002.049132812506,
      "d": 512.2090800781261,
      "v": 91
    },
    {
      "midi": 64,
      "hit": false,
      "t": 24002.049132812506,
      "d": 512.2090800781261,
      "v": 105
    },
    {
      "midi": 40,
      "hit": false,
      "t": 24761.32951367188,
      "d": 120.60595117187404,
      "v": 62
    },
    {
      "midi": 59,
      "hit": false,
      "t": 24761.32951367188,
      "d": 120.60595117187404,
      "v": 55
    },
    {
      "midi": 64,
      "hit": false,
      "t": 24761.32951367188,
      "d": 120.60595117187404,
      "v": 65
    },
    {
      "midi": 40,
      "hit": false,
      "t": 24882.42374804688,
      "d": 127.44191601562488,
      "v": 62
    },
    {
      "midi": 59,
      "hit": false,
      "t": 24882.42374804688,
      "d": 127.44191601562488,
      "v": 55
    },
    {
      "midi": 64,
      "hit": false,
      "t": 24882.42374804688,
      "d": 127.44191601562488,
      "v": 65
    },
    {
      "midi": 40,
      "hit": false,
      "t": 25010.35394726563,
      "d": 248.53615039062424,
      "v": 65
    },
    {
      "midi": 59,
      "hit": false,
      "t": 25010.35394726563,
      "d": 248.53615039062424,
      "v": 58
    },
    {
      "midi": 64,
      "hit": false,
      "t": 25010.35394726563,
      "d": 248.53615039062424,
      "v": 68
    },
    {
      "midi": 64,
      "hit": false,
      "t": 25259.37838085938,
      "d": 246.09473437500128,
      "v": 69
    },
    {
      "midi": 40,
      "hit": false,
      "t": 25259.37838085938,
      "d": 261.2315136718753,
      "v": 62
    },
    {
      "midi": 59,
      "hit": false,
      "t": 25259.37838085938,
      "d": 261.2315136718753,
      "v": 55
    },
    {
      "midi": 41,
      "hit": false,
      "t": 25505.961398437506,
      "d": 493.6543183593749,
      "v": 76
    },
    {
      "midi": 60,
      "hit": false,
      "t": 25505.961398437506,
      "d": 493.6543183593749,
      "v": 68
    },
    {
      "midi": 65,
      "hit": false,
      "t": 25505.961398437506,
      "d": 493.6543183593749,
      "v": 82
    },
    {
      "midi": 42,
      "hit": false,
      "t": 26002.057132812508,
      "d": 512.2090800781261,
      "v": 99
    },
    {
      "midi": 61,
      "hit": false,
      "t": 26002.057132812508,
      "d": 512.2090800781261,
      "v": 91
    },
    {
      "midi": 66,
      "hit": false,
      "t": 26002.057132812508,
      "d": 512.2090800781261,
      "v": 105
    },
    {
      "midi": 42,
      "hit": false,
      "t": 26761.337513671882,
      "d": 120.60595117187404,
      "v": 63
    },
    {
      "midi": 61,
      "hit": false,
      "t": 26761.337513671882,
      "d": 120.60595117187404,
      "v": 55
    },
    {
      "midi": 66,
      "hit": false,
      "t": 26761.337513671882,
      "d": 120.60595117187404,
      "v": 65
    },
    {
      "midi": 42,
      "hit": false,
      "t": 26882.43174804688,
      "d": 127.44191601562488,
      "v": 63
    },
    {
      "midi": 61,
      "hit": false,
      "t": 26882.43174804688,
      "d": 127.44191601562488,
      "v": 55
    },
    {
      "midi": 66,
      "hit": false,
      "t": 26882.43174804688,
      "d": 127.44191601562488,
      "v": 65
    },
    {
      "midi": 42,
      "hit": false,
      "t": 27010.361947265632,
      "d": 248.53615039062424,
      "v": 66
    },
    {
      "midi": 61,
      "hit": false,
      "t": 27010.361947265632,
      "d": 248.53615039062424,
      "v": 58
    },
    {
      "midi": 66,
      "hit": false,
      "t": 27010.361947265632,
      "d": 248.53615039062424,
      "v": 68
    },
    {
      "midi": 42,
      "hit": false,
      "t": 27259.38638085938,
      "d": 246.09473437500128,
      "v": 63
    },
    {
      "midi": 61,
      "hit": false,
      "t": 27259.38638085938,
      "d": 246.09473437500128,
      "v": 55
    },
    {
      "midi": 66,
      "hit": false,
      "t": 27259.38638085938,
      "d": 246.09473437500128,
      "v": 65
    },
    {
      "midi": 42,
      "hit": false,
      "t": 27505.969398437508,
      "d": 493.6543183593749,
      "v": 76
    },
    {
      "midi": 61,
      "hit": false,
      "t": 27505.969398437508,
      "d": 493.6543183593749,
      "v": 68
    },
    {
      "midi": 66,
      "hit": false,
      "t": 27505.969398437508,
      "d": 493.6543183593749,
      "v": 78
    },
    {
      "midi": 42,
      "hit": false,
      "t": 28002.06513281251,
      "d": 512.2090800781261,
      "v": 99
    },
    {
      "midi": 61,
      "hit": false,
      "t": 28002.06513281251,
      "d": 512.2090800781261,
      "v": 91
    },
    {
      "midi": 66,
      "hit": false,
      "t": 28002.06513281251,
      "d": 512.2090800781261,
      "v": 101
    },
    {
      "midi": 42,
      "hit": false,
      "t": 28761.345513671884,
      "d": 120.60595117187404,
      "v": 63
    },
    {
      "midi": 61,
      "hit": false,
      "t": 28761.345513671884,
      "d": 120.60595117187404,
      "v": 55
    },
    {
      "midi": 66,
      "hit": false,
      "t": 28761.345513671884,
      "d": 120.60595117187404,
      "v": 65
    },
    {
      "midi": 42,
      "hit": false,
      "t": 28882.439748046883,
      "d": 127.44191601562488,
      "v": 63
    },
    {
      "midi": 61,
      "hit": false,
      "t": 28882.439748046883,
      "d": 127.44191601562488,
      "v": 55
    },
    {
      "midi": 66,
      "hit": false,
      "t": 28882.439748046883,
      "d": 127.44191601562488,
      "v": 65
    },
    {
      "midi": 42,
      "hit": false,
      "t": 29010.369947265634,
      "d": 248.53615039062424,
      "v": 66
    },
    {
      "midi": 61,
      "hit": false,
      "t": 29010.369947265634,
      "d": 248.53615039062424,
      "v": 58
    },
    {
      "midi": 66,
      "hit": false,
      "t": 29010.369947265634,
      "d": 248.53615039062424,
      "v": 68
    },
    {
      "midi": 42,
      "hit": false,
      "t": 29259.394380859383,
      "d": 246.09473437500128,
      "v": 63
    },
    {
      "midi": 61,
      "hit": false,
      "t": 29259.394380859383,
      "d": 246.09473437500128,
      "v": 55
    },
    {
      "midi": 66,
      "hit": false,
      "t": 29259.394380859383,
      "d": 246.09473437500128,
      "v": 65
    },
    {
      "midi": 42,
      "hit": false,
      "t": 29505.97739843751,
      "d": 493.6543183593749,
      "v": 76
    },
    {
      "midi": 61,
      "hit": false,
      "t": 29505.97739843751,
      "d": 493.6543183593749,
      "v": 68
    },
    {
      "midi": 66,
      "hit": false,
      "t": 29505.97739843751,
      "d": 493.6543183593749,
      "v": 82
    },
    {
      "midi": 44,
      "hit": false,
      "t": 30002.07313281251,
      "d": 512.2090800781261,
      "v": 99
    },
    {
      "midi": 63,
      "hit": false,
      "t": 30002.07313281251,
      "d": 512.2090800781261,
      "v": 91
    },
    {
      "midi": 68,
      "hit": false,
      "t": 30002.07313281251,
      "d": 512.2090800781261,
      "v": 105
    },
    {
      "midi": 44,
      "hit": false,
      "t": 30761.353513671886,
      "d": 120.60595117187404,
      "v": 63
    },
    {
      "midi": 63,
      "hit": false,
      "t": 30761.353513671886,
      "d": 120.60595117187404,
      "v": 55
    },
    {
      "midi": 68,
      "hit": false,
      "t": 30761.353513671886,
      "d": 120.60595117187404,
      "v": 65
    },
    {
      "midi": 44,
      "hit": false,
      "t": 30882.447748046885,
      "d": 127.44191601562488,
      "v": 63
    },
    {
      "midi": 63,
      "hit": false,
      "t": 30882.447748046885,
      "d": 127.44191601562488,
      "v": 55
    },
    {
      "midi": 68,
      "hit": false,
      "t": 30882.447748046885,
      "d": 127.44191601562488,
      "v": 65
    },
    {
      "midi": 44,
      "hit": false,
      "t": 31010.377947265635,
      "d": 248.53615039062424,
      "v": 66
    },
    {
      "midi": 63,
      "hit": false,
      "t": 31010.377947265635,
      "d": 248.53615039062424,
      "v": 58
    },
    {
      "midi": 68,
      "hit": false,
      "t": 31010.377947265635,
      "d": 248.53615039062424,
      "v": 68
    },
    {
      "midi": 44,
      "hit": false,
      "t": 31259.402380859385,
      "d": 246.09473437500128,
      "v": 63
    },
    {
      "midi": 63,
      "hit": false,
      "t": 31259.402380859385,
      "d": 246.09473437500128,
      "v": 55
    },
    {
      "midi": 68,
      "hit": false,
      "t": 31259.402380859385,
      "d": 246.09473437500128,
      "v": 65
    },
    {
      "midi": 44,
      "hit": false,
      "t": 31505.98539843751,
      "d": 493.6543183593749,
      "v": 76
    },
    {
      "midi": 63,
      "hit": false,
      "t": 31505.98539843751,
      "d": 493.6543183593749,
      "v": 68
    },
    {
      "midi": 68,
      "hit": false,
      "t": 31505.98539843751,
      "d": 493.6543183593749,
      "v": 82
    },
    {
      "midi": 40,
      "hit": false,
      "t": 32002.081132812513,
      "d": 512.2090800781261,
      "v": 98
    },
    {
      "midi": 59,
      "hit": false,
      "t": 32002.081132812513,
      "d": 512.2090800781261,
      "v": 91
    },
    {
      "midi": 64,
      "hit": false,
      "t": 32002.081132812513,
      "d": 512.2090800781261,
      "v": 105
    },
    {
      "midi": 40,
      "hit": false,
      "t": 32761.361513671887,
      "d": 120.60595117187768,
      "v": 62
    },
    {
      "midi": 59,
      "hit": false,
      "t": 32761.361513671887,
      "d": 120.60595117187768,
      "v": 55
    },
    {
      "midi": 64,
      "hit": false,
      "t": 32761.361513671887,
      "d": 120.60595117187768,
      "v": 65
    },
    {
      "midi": 40,
      "hit": false,
      "t": 32882.45574804689,
      "d": 127.44191601562488,
      "v": 62
    },
    {
      "midi": 59,
      "hit": false,
      "t": 32882.45574804689,
      "d": 127.44191601562488,
      "v": 55
    },
    {
      "midi": 64,
      "hit": false,
      "t": 32882.45574804689,
      "d": 127.44191601562488,
      "v": 65
    },
    {
      "midi": 40,
      "hit": false,
      "t": 33010.38594726563,
      "d": 248.53615039062424,
      "v": 65
    },
    {
      "midi": 59,
      "hit": false,
      "t": 33010.38594726563,
      "d": 248.53615039062424,
      "v": 58
    },
    {
      "midi": 64,
      "hit": false,
      "t": 33010.38594726563,
      "d": 248.53615039062424,
      "v": 68
    },
    {
      "midi": 64,
      "hit": false,
      "t": 33259.41038085938,
      "d": 246.09473437500128,
      "v": 69
    },
    {
      "midi": 40,
      "hit": false,
      "t": 33259.41038085938,
      "d": 261.2315136718753,
      "v": 62
    },
    {
      "midi": 59,
      "hit": false,
      "t": 33259.41038085938,
      "d": 261.2315136718753,
      "v": 55
    },
    {
      "midi": 41,
      "hit": false,
      "t": 33505.9933984375,
      "d": 493.6543183593749,
      "v": 76
    },
    {
      "midi": 60,
      "hit": false,
      "t": 33505.9933984375,
      "d": 493.6543183593749,
      "v": 68
    },
    {
      "midi": 65,
      "hit": false,
      "t": 33505.9933984375,
      "d": 493.6543183593749,
      "v": 82
    }
  ]
}