{
  "jsonPath": "Jazz/Jazz Blues/Ray Charles/georgia-on-my-mind.json",
  "path": "Jazz\\Jazz Blues\\Ray Charles\\Georgia On My Mind.mid",
  "name": "Georgia On My Mind",
  "difficulty": "Advanced",
  "bpm": 51.72997985117285,
  "notes": [
    {
      "midi": 80,
      "hit": false,
      "t": 8056.396000000001,
      "d": 73.43069270833348,
      "v": 51
    },
    {
      "midi": 68,
      "hit": false,
      "t": 8056.396000000001,
      "d": 115.39108854166625,
      "v": 71
    },
    {
      "midi": 41,
      "hit": false,
      "t": 8056.396000000001,
      "d": 702.8366302083323,
      "v": 49
    },
    {
      "midi": 48,
      "hit": false,
      "t": 8108.846494791667,
      "d": 713.3267291666652,
      "v": 33
    },
    {
      "midi": 57,
      "hit": false,
      "t": 8150.806890625001,
      "d": 776.2673229166649,
      "v": 48
    },
    {
      "midi": 81,
      "hit": false,
      "t": 8171.787088541667,
      "d": 660.8762343749986,
      "v": 39
    },
    {
      "midi": 69,
      "hit": false,
      "t": 8182.2771875,
      "d": 566.4653437500001,
      "v": 54
    },
    {
      "midi": 84,
      "hit": false,
      "t": 9378.14846875,
      "d": 954.5990052083325,
      "v": 80
    },
    {
      "midi": 72,
      "hit": false,
      "t": 9388.638567708333,
      "d": 1059.4999947916676,
      "v": 66
    },
    {
      "midi": 64,
      "hit": false,
      "t": 10007.55440625,
      "d": 440.5841562500009,
      "v": 33
    },
    {
      "midi": 60,
      "hit": false,
      "t": 10018.044505208332,
      "d": 398.6237604166672,
      "v": 42
    },
    {
      "midi": 53,
      "hit": false,
      "t": 10039.024703124998,
      "d": 629.4059375000015,
      "v": 39
    },
    {
      "midi": 57,
      "hit": false,
      "t": 10080.985098958332,
      "d": 377.6435625000013,
      "v": 31
    },
    {
      "midi": 68,
      "hit": false,
      "t": 12000.673208333334,
      "d": 870.678213541667,
      "v": 87
    },
    {
      "midi": 74,
      "hit": false,
      "t": 12011.163307291667,
      "d": 639.8960364583345,
      "v": 86
    },
    {
      "midi": 64,
      "hit": false,
      "t": 12011.163307291667,
      "d": 765.7772239583337,
      "v": 86
    },
    {
      "midi": 58,
      "hit": false,
      "t": 12053.123703125,
      "d": 839.2079166666663,
      "v": 72
    },
    {
      "midi": 72,
      "hit": false,
      "t": 13290.955380208334,
      "d": 220.29207812499772,
      "v": 61
    },
    {
      "midi": 62,
      "hit": false,
      "t": 13301.445479166667,
      "d": 356.6633645833317,
      "v": 64
    },
    {
      "midi": 57,
      "hit": false,
      "t": 13322.425677083333,
      "d": 713.3267291666652,
      "v": 60
    },
    {
      "midi": 67,
      "hit": false,
      "t": 13332.915776041666,
      "d": 178.33168229166586,
      "v": 55
    },
    {
      "midi": 60,
      "hit": false,
      "t": 14077.712802083332,
      "d": 860.1881145833304,
      "v": 48
    },
    {
      "midi": 64,
      "hit": false,
      "t": 14088.202901041665,
      "d": 1206.361380208331,
      "v": 57
    },
    {
      "midi": 69,
      "hit": false,
      "t": 14088.202901041665,
      "d": 1258.8118749999976,
      "v": 49
    },
    {
      "midi": 53,
      "hit": false,
      "t": 14109.18309895833,
      "d": 440.58415624999907,
      "v": 50
    },
    {
      "midi": 60,
      "hit": false,
      "t": 15336.52467708333,
      "d": 146.86138541666696,
      "v": 55
    },
    {
      "midi": 58,
      "hit": false,
      "t": 16028.87120833333,
      "d": 419.60395833333314,
      "v": 46
    },
    {
      "midi": 40,
      "hit": false,
      "t": 16028.87120833333,
      "d": 503.5247500000005,
      "v": 48
    },
    {
      "midi": 67,
      "hit": false,
      "t": 16060.341505208331,
      "d": 555.9752447916671,
      "v": 42
    },
    {
      "midi": 55,
      "hit": false,
      "t": 16070.831604166664,
      "d": 692.3465312499993,
      "v": 43
    },
    {
      "midi": 62,
      "hit": false,
      "t": 16091.81180208333,
      "d": 430.0940572916679,
      "v": 46
    },
    {
      "midi": 58,
      "hit": false,
      "t": 18001.009812499997,
      "d": 912.6386093750007,
      "v": 39
    },
    {
      "midi": 62,
      "hit": false,
      "t": 18021.990010416663,
      "d": 1059.4999947916658,
      "v": 41
    },
    {
      "midi": 52,
      "hit": false,
      "t": 18095.420703124997,
      "d": 734.306927083333,
      "v": 40
    },
    {
      "midi": 69,
      "hit": false,
      "t": 18735.31673958333,
      "d": 304.2128697916669,
      "v": 61
    },
    {
      "midi": 70,
      "hit": false,
      "t": 19018.54941145833,
      "d": 167.84158333333107,
      "v": 68
    },
    {
      "midi": 74,
      "hit": false,
      "t": 19322.762281249994,
      "d": 199.3118802083336,
      "v": 84
    },
    {
      "midi": 77,
      "hit": false,
      "t": 19605.994953124995,
      "d": 356.66336458333535,
      "v": 90
    },
    {
      "midi": 81,
      "hit": false,
      "t": 19878.737526041663,
      "d": 241.2722760416691,
      "v": 82
    },
    {
      "midi": 65,
      "hit": false,
      "t": 20120.009802083332,
      "d": 1384.6930624999986,
      "v": 51
    },
    {
      "midi": 61,
      "hit": false,
      "t": 20120.009802083332,
      "d": 1552.5346458333297,
      "v": 49
    },
    {
      "midi": 78,
      "hit": false,
      "t": 20151.48009895833,
      "d": 157.3514843749981,
      "v": 29
    },
    {
      "midi": 55,
      "hit": false,
      "t": 20151.48009895833,
      "d": 2695.9554322916665,
      "v": 46
    },
    {
      "midi": 82,
      "hit": false,
      "t": 20193.440494791663,
      "d": 262.2524739583314,
      "v": 80
    },
    {
      "midi": 84,
      "hit": false,
      "t": 20571.08405729166,
      "d": 188.82178125000064,
      "v": 84
    },
    {
      "midi": 73,
      "hit": false,
      "t": 20990.688015624994,
      "d": 157.35148437500175,
      "v": 60
    },
    {
      "midi": 72,
      "hit": false,
      "t": 21441.76227083333,
      "d": 188.82178125000064,
      "v": 41
    },
    {
      "midi": 65,
      "hit": false,
      "t": 22155.088999999996,
      "d": 409.1138593750002,
      "v": 39
    },
    {
      "midi": 61,
      "hit": false,
      "t": 22197.049395833328,
      "d": 514.0148489583371,
      "v": 36
    },
    {
      "midi": 70,
      "hit": false,
      "t": 22658.613749999997,
      "d": 283.23267187500096,
      "v": 66
    },
    {
      "midi": 69,
      "hit": false,
      "t": 23025.767213541665,
      "d": 146.86138541666514,
      "v": 66
    },
    {
      "midi": 67,
      "hit": false,
      "t": 23214.588994791662,
      "d": 146.86138541666514,
      "v": 49
    },
    {
      "midi": 65,
      "hit": false,
      "t": 23508.311765624992,
      "d": 230.7821770833325,
      "v": 31
    },
    {
      "midi": 64,
      "hit": false,
      "t": 23781.054338541657,
      "d": 94.41089062500032,
      "v": 50
    },
    {
      "midi": 67,
      "hit": false,
      "t": 23980.36621874999,
      "d": 251.76237499999843,
      "v": 81
    },
    {
      "midi": 64,
      "hit": false,
      "t": 24190.168197916657,
      "d": 136.37128645833218,
      "v": 64
    },
    {
      "midi": 50,
      "hit": false,
      "t": 24242.61869270832,
      "d": 2884.7772135416744,
      "v": 40
    },
    {
      "midi": 57,
      "hit": false,
      "t": 24263.598890624988,
      "d": 1132.9306875000075,
      "v": 39
    },
    {
      "midi": 65,
      "hit": false,
      "t": 24420.95037499999,
      "d": 440.5841562500027,
      "v": 68
    },
    {
      "midi": 62,
      "hit": false,
      "t": 24777.613739583325,
      "d": 157.35148437500175,
      "v": 54
    },
    {
      "midi": 62,
      "hit": false,
      "t": 25144.767203124993,
      "d": 199.3118802083336,
      "v": 54
    },
    {
      "midi": 62,
      "hit": false,
      "t": 25501.43056770833,
      "d": 157.35148437500175,
      "v": 60
    },
    {
      "midi": 62,
      "hit": false,
      "t": 25826.623635416665,
      "d": 178.33168229166768,
      "v": 63
    },
    {
      "midi": 57,
      "hit": false,
      "t": 26204.267197916666,
      "d": 870.6782135416615,
      "v": 39
    },
    {
      "midi": 62,
      "hit": false,
      "t": 26246.227593749998,
      "d": 440.58415624999907,
      "v": 92
    },
    {
      "midi": 64,
      "hit": false,
      "t": 26707.791947916663,
      "d": 251.76237499999843,
      "v": 66
    },
    {
      "midi": 62,
      "hit": false,
      "t": 26949.06422395833,
      "d": 230.7821770833325,
      "v": 58
    },
    {
      "midi": 64,
      "hit": false,
      "t": 27169.356302083328,
      "d": 199.3118802083336,
      "v": 48
    },
    {
      "midi": 62,
      "hit": false,
      "t": 27347.687984374996,
      "d": 157.3514843749981,
      "v": 49
    },
    {
      "midi": 64,
      "hit": false,
      "t": 27536.509765624993,
      "d": 104.90098958333328,
      "v": 56
    },
    {
      "midi": 62,
      "hit": false,
      "t": 27693.861249999994,
      "d": 73.43069270833439,
      "v": 40
    },
    {
      "midi": 64,
      "hit": false,
      "t": 27830.23253645833,
      "d": 188.82178125000064,
      "v": 56
    },
    {
      "midi": 62,
      "hit": false,
      "t": 27935.133526041664,
      "d": 188.82178125000064,
      "v": 53
    },
    {
      "midi": 61,
      "hit": false,
      "t": 28113.46520833333,
      "d": 157.3514843749981,
      "v": 62
    },
    {
      "midi": 57,
      "hit": false,
      "t": 28291.796890624995,
      "d": 639.8960364583327,
      "v": 39
    },
    {
      "midi": 62,
      "hit": false,
      "t": 28312.77708854166,
      "d": 881.1683125000018,
      "v": 63
    },
    {
      "midi": 48,
      "hit": false,
      "t": 28312.77708854166,
      "d": 2528.113848958332,
      "v": 44
    },
    {
      "midi": 66,
      "hit": false,
      "t": 29110.024609374996,
      "d": 807.7376197916637,
      "v": 1
    },
    {
      "midi": 57,
      "hit": false,
      "t": 29445.70777604166,
      "d": 325.1930677083328,
      "v": 68
    },
    {
      "midi": 57,
      "hit": false,
      "t": 30138.05430729166,
      "d": 314.70296874999985,
      "v": 56
    },
    {
      "midi": 62,
      "hit": false,
      "t": 30788.440442708325,
      "d": 608.4257395833338,
      "v": 57
    },
    {
      "midi": 69,
      "hit": false,
      "t": 31407.35628124999,
      "d": 178.33168229166768,
      "v": 58
    },
    {
      "midi": 48,
      "hit": false,
      "t": 31417.846380208324,
      "d": 209.80197916666657,
      "v": 37
    },
    {
      "midi": 71,
      "hit": false,
      "t": 32099.70281249999,
      "d": 346.1732656249951,
      "v": 53
    },
    {
      "midi": 67,
      "hit": false,
      "t": 32120.683010416655,
      "d": 251.76237499999843,
      "v": 49
    },
    {
      "midi": 62,
      "hit": false,
      "t": 32141.66320833332,
      "d": 241.27227604166546,
      "v": 38
    },
    {
      "midi": 47,
      "hit": false,
      "t": 32162.643406249987,
      "d": 262.2524739583314,
      "v": 36
    },
    {
      "midi": 57,
      "hit": false,
      "t": 32194.113703124985,
      "d": 346.17326562499875,
      "v": 19
    },
    {
      "midi": 73,
      "hit": false,
      "t": 32917.930531249986,
      "d": 503.52474999999686,
      "v": 62
    },
    {
      "midi": 70,
      "hit": false,
      "t": 32949.400828124984,
      "d": 514.0148489583298,
      "v": 65
    },
    {
      "midi": 58,
      "hit": false,
      "t": 32991.361223958316,
      "d": 576.9554427083276,
      "v": 54
    },
    {
      "midi": 74,
      "hit": false,
      "t": 33557.82656770831,
      "d": 251.76237499999843,
      "v": 68
    },
    {
      "midi": 67,
      "hit": false,
      "t": 33610.277062499976,
      "d": 178.33168229166768,
      "v": 61
    },
    {
      "midi": 59,
      "hit": false,
      "t": 33620.76716145831,
      "d": 545.485145833336,
      "v": 55
    },
    {
      "midi": 62,
      "hit": false,
      "t": 33631.25726041664,
      "d": 367.1534635416683,
      "v": 56
    },
    {
      "midi": 71,
      "hit": false,
      "t": 34302.62359374998,
      "d": 83.92079166666372,
      "v": 63
    },
    {
      "midi": 62,
      "hit": false,
      "t": 34323.60379166665,
      "d": 94.41089062499668,
      "v": 61
    },
    {
      "midi": 55,
      "hit": false,
      "t": 34334.09389062498,
      "d": 83.92079166666372,
      "v": 51
    },
    {
      "midi": 67,
      "hit": false,
      "t": 34932.02953124998,
      "d": 524.5049479166628,
      "v": 57
    },
    {
      "midi": 59,
      "hit": false,
      "t": 34953.009729166646,
      "d": 430.0940572916661,
      "v": 49
    },
    {
      "midi": 55,
      "hit": false,
      "t": 34953.009729166646,
      "d": 472.05445312499796,
      "v": 48
    },
    {
      "midi": 62,
      "hit": false,
      "t": 34963.49982812498,
      "d": 503.52474999999686,
      "v": 55
    },
    {
      "midi": 47,
      "hit": false,
      "t": 35540.45527083331,
      "d": 125.88118750000285,
      "v": 46
    },
    {
      "midi": 55,
      "hit": false,
      "t": 36201.331505208305,
      "d": 157.35148437499447,
      "v": 54
    },
    {
      "midi": 64,
      "hit": false,
      "t": 36201.331505208305,
      "d": 262.2524739583241,
      "v": 56
    },
    {
      "midi": 34,
      "hit": false,
      "t": 36201.331505208305,
      "d": 461.5643541666577,
      "v": 49
    },
    {
      "midi": 46,
      "hit": false,
      "t": 36222.31170312497,
      "d": 451.07425520832476,
      "v": 41
    },
    {
      "midi": 60,
      "hit": false,
      "t": 36232.801802083304,
      "d": 178.3316822916604,
      "v": 56
    },
    {
      "midi": 76,
      "hit": false,
      "t": 36893.678036458296,
      "d": 157.35148437500175,
      "v": 82
    },
    {
      "midi": 56,
      "hit": false,
      "t": 38330.82159374996,
      "d": 514.0148489583298,
      "v": 107
    },
    {
      "midi": 65,
      "hit": false,
      "t": 38330.82159374996,
      "d": 514.0148489583298,
      "v": 99
    },
    {
      "midi": 51,
      "hit": false,
      "t": 38341.311692708296,
      "d": 534.9950468749958,
      "v": 96
    },
    {
      "midi": 61,
      "hit": false,
      "t": 38341.311692708296,
      "d": 555.9752447916617,
      "v": 83
    },
    {
      "midi": 39,
      "hit": false,
      "t": 38341.311692708296,
      "d": 566.4653437499946,
      "v": 87
    },
    {
      "midi": 56,
      "hit": false,
      "t": 38981.20772916662,
      "d": 146.86138541666878,
      "v": 61
    },
    {
      "midi": 65,
      "hit": false,
      "t": 38991.697828124954,
      "d": 115.39108854166989,
      "v": 57
    },
    {
      "midi": 51,
      "hit": false,
      "t": 38991.697828124954,
      "d": 220.29207812499953,
      "v": 60
    },
    {
      "midi": 61,
      "hit": false,
      "t": 39002.18792708329,
      "d": 209.80197916666657,
      "v": 55
    },
    {
      "midi": 39,
      "hit": false,
      "t": 39002.18792708329,
      "d": 283.2326718749973,
      "v": 52
    },
    {
      "midi": 67,
      "hit": false,
      "t": 39621.10376562495,
      "d": 209.80197916666657,
      "v": 73
    },
    {
      "midi": 58,
      "hit": false,
      "t": 39621.10376562495,
      "d": 377.6435625000013,
      "v": 85
    },
    {
      "midi": 49,
      "hit": false,
      "t": 39621.10376562495,
      "d": 451.07425520833203,
      "v": 78
    },
    {
      "midi": 37,
      "hit": false,
      "t": 39621.10376562495,
      "d": 493.0346510416639,
      "v": 76
    },
    {
      "midi": 63,
      "hit": false,
      "t": 39642.08396354161,
      "d": 377.6435625000013,
      "v": 65
    },
    {
      "midi": 65,
      "hit": false,
      "t": 40334.43049479161,
      "d": 1007.0494999999937,
      "v": 78
    },
    {
      "midi": 60,
      "hit": false,
      "t": 40334.43049479161,
      "d": 1017.5395989583267,
      "v": 84
    },
    {
      "midi": 69,
      "hit": false,
      "t": 40334.43049479161,
      "d": 1049.0098958333256,
      "v": 81
    },
    {
      "midi": 48,
      "hit": false,
      "t": 40334.43049479161,
      "d": 1342.7326666666631,
      "v": 87
    },
    {
      "midi": 36,
      "hit": false,
      "t": 40355.410692708276,
      "d": 681.8564322916645,
      "v": 76
    },
    {
      "midi": 36,
      "hit": false,
      "t": 41530.301776041604,
      "d": 230.7821770833325,
      "v": 61
    },
    {
      "midi": 72,
      "hit": false,
      "t": 42317.059197916606,
      "d": 1300.7722708333313,
      "v": 57
    },
    {
      "midi": 46,
      "hit": false,
      "t": 42327.54929687494,
      "d": 1615.4752395833348,
      "v": 50
    },
    {
      "midi": 34,
      "hit": false,
      "t": 42338.03939583327,
      "d": 807.7376197916674,
      "v": 52
    },
    {
      "midi": 60,
      "hit": false,
      "t": 42359.01959374994,
      "d": 629.4059374999997,
      "v": 51
    },
    {
      "midi": 64,
      "hit": false,
      "t": 42359.01959374994,
      "d": 870.6782135416652,
      "v": 45
    },
    {
      "midi": 67,
      "hit": false,
      "t": 42359.01959374994,
      "d": 1007.049500000001,
      "v": 55
    },
    {
      "midi": 34,
      "hit": false,
      "t": 43617.83146874994,
      "d": 430.0940572916734,
      "v": 56
    },
    {
      "midi": 33,
      "hit": false,
      "t": 44352.13839583328,
      "d": 83.92079166666372,
      "v": 53
    },
    {
      "midi": 60,
      "hit": false,
      "t": 45422.12848958328,
      "d": 94.41089062499668,
      "v": 30
    },
    {
      "midi": 63,
      "hit": false,
      "t": 45506.04928124994,
      "d": 220.29207812499953,
      "v": 55
    },
    {
      "midi": 68,
      "hit": false,
      "t": 45537.51957812494,
      "d": 188.82178125000064,
      "v": 67
    },
    {
      "midi": 66,
      "hit": false,
      "t": 45548.009677083275,
      "d": 639.8960364583327,
      "v": 57
    },
    {
      "midi": 76,
      "hit": false,
      "t": 45568.98987499994,
      "d": 639.8960364583327,
      "v": 60
    },
    {
      "midi": 64,
      "hit": false,
      "t": 45568.98987499994,
      "d": 681.8564322916645,
      "v": 62
    },
    {
      "midi": 72,
      "hit": false,
      "t": 45600.46017187494,
      "d": 608.4257395833338,
      "v": 45
    },
    {
      "midi": 69,
      "hit": false,
      "t": 45768.301755208275,
      "d": 356.66336458333535,
      "v": 48
    },
    {
      "midi": 68,
      "hit": false,
      "t": 46439.668088541606,
      "d": 146.8613854166615,
      "v": 60
    },
    {
      "midi": 66,
      "hit": false,
      "t": 46439.668088541606,
      "d": 776.2673229166612,
      "v": 52
    },
    {
      "midi": 76,
      "hit": false,
      "t": 46471.138385416605,
      "d": 755.2871249999953,
      "v": 51
    },
    {
      "midi": 64,
      "hit": false,
      "t": 46513.09878124994,
      "d": 482.5445520833309,
      "v": 47
    },
    {
      "midi": 72,
      "hit": false,
      "t": 46534.0789791666,
      "d": 765.7772239583282,
      "v": 39
    },
    {
      "midi": 69,
      "hit": false,
      "t": 46607.509671874934,
      "d": 566.4653437500019,
      "v": 42
    },
    {
      "midi": 66,
      "hit": false,
      "t": 47541.1284791666,
      "d": 209.8019791666593,
      "v": 60
    },
    {
      "midi": 74,
      "hit": false,
      "t": 47562.10867708326,
      "d": 146.8613854166615,
      "v": 58
    },
    {
      "midi": 69,
      "hit": false,
      "t": 47614.55917187493,
      "d": 62.94059374999779,
      "v": 42
    },
    {
      "midi": 43,
      "hit": false,
      "t": 48369.84629687492,
      "d": 734.3069270833294,
      "v": 46
    },
    {
      "midi": 65,
      "hit": false,
      "t": 48422.29679166659,
      "d": 755.2871249999953,
      "v": 60
    },
    {
      "midi": 50,
      "hit": false,
      "t": 48443.27698958325,
      "d": 713.3267291666634,
      "v": 48
    },
    {
      "midi": 72,
      "hit": false,
      "t": 48443.27698958325,
      "d": 839.207916666659,
      "v": 31
    },
    {
      "midi": 70,
      "hit": false,
      "t": 48474.74728645825,
      "d": 965.0891041666619,
      "v": 32
    },
    {
      "midi": 58,
      "hit": false,
      "t": 48611.11857291659,
      "d": 576.9554427083276,
      "v": 13
    },
    {
      "midi": 58,
      "hit": false,
      "t": 50394.43539583325,
      "d": 1007.049500000001,
      "v": 43
    },
    {
      "midi": 57,
      "hit": false,
      "t": 50415.415593749916,
      "d": 1017.539598958334,
      "v": 42
    },
    {
      "midi": 62,
      "hit": false,
      "t": 50415.415593749916,
      "d": 1028.029697916667,
      "v": 38
    },
    {
      "midi": 53,
      "hit": false,
      "t": 50425.90569270825,
      "d": 954.5990052083362,
      "v": 28
    },
    {
      "midi": 84,
      "hit": false,
      "t": 51632.267072916584,
      "d": 1552.5346458333297,
      "v": 122
    },
    {
      "midi": 69,
      "hit": false,
      "t": 52282.65320833325,
      "d": 986.0693020833278,
      "v": 50
    },
    {
      "midi": 58,
      "hit": false,
      "t": 52303.633406249915,
      "d": 1258.8118749999921,
      "v": 46
    },
    {
      "midi": 64,
      "hit": false,
      "t": 52314.12350520825,
      "d": 996.5594010416607,
      "v": 52
    },
    {
      "midi": 82,
      "hit": false,
      "t": 53090.39082812492,
      "d": 1153.9108854166552,
      "v": 83
    },
    {
      "midi": 81,
      "hit": false,
      "t": 54359.692802083235,
      "d": 1384.693062499995,
      "v": 82
    },
    {
      "midi": 46,
      "hit": false,
      "t": 54391.16309895823,
      "d": 1185.3811822916687,
      "v": 61
    },
    {
      "midi": 56,
      "hit": false,
      "t": 54422.63339583323,
      "d": 1017.539598958334,
      "v": 35
    },
    {
      "midi": 52,
      "hit": false,
      "t": 55639.4848749999,
      "d": 618.9158385416595,
      "v": 50
    },
    {
      "midi": 79,
      "hit": false,
      "t": 55649.97497395823,
      "d": 146.8613854166615,
      "v": 57
    },
    {
      "midi": 84,
      "hit": false,
      "t": 56331.83140624989,
      "d": 2192.430682291655,
      "v": 81
    },
    {
      "midi": 72,
      "hit": false,
      "t": 56342.32150520822,
      "d": 1772.8267239583292,
      "v": 75
    },
    {
      "midi": 80,
      "hit": false,
      "t": 56352.811604166556,
      "d": 283.2326718749973,
      "v": 72
    },
    {
      "midi": 45,
      "hit": false,
      "t": 56352.811604166556,
      "d": 713.3267291666634,
      "v": 48
    },
    {
      "midi": 55,
      "hit": false,
      "t": 56352.811604166556,
      "d": 849.6980156249992,
      "v": 47
    },
    {
      "midi": 81,
      "hit": false,
      "t": 56678.004671874885,
      "d": 1856.747515624993,
      "v": 48
    },
    {
      "midi": 61,
      "hit": false,
      "t": 58387.89080208322,
      "d": 1468.6138541666587,
      "v": 44
    },
    {
      "midi": 65,
      "hit": false,
      "t": 58398.38090104155,
      "d": 1290.282171874991,
      "v": 41
    },
    {
      "midi": 60,
      "hit": false,
      "t": 58408.87099999988,
      "d": 1342.7326666666559,
      "v": 42
    },
    {
      "midi": 55,
      "hit": false,
      "t": 58429.85119791655,
      "d": 1311.262369791657,
      "v": 41
    },
    {
      "midi": 89,
      "hit": false,
      "t": 59415.92049999988,
      "d": 1563.0247447916554,
      "v": 122
    },
    {
      "midi": 65,
      "hit": false,
      "t": 60401.989802083204,
      "d": 1374.2029635416548,
      "v": 54
    },
    {
      "midi": 60,
      "hit": false,
      "t": 60412.47990104154,
      "d": 1426.6534583333196,
      "v": 52
    },
    {
      "midi": 54,
      "hit": false,
      "t": 60412.47990104154,
      "d": 1573.5148437499884,
      "v": 50
    },
    {
      "midi": 85,
      "hit": false,
      "t": 61052.37593749986,
      "d": 157.35148437500175,
      "v": 63
    },
    {
      "midi": 86,
      "hit": false,
      "t": 61104.82643229153,
      "d": 734.3069270833294,
      "v": 78
    },
    {
      "midi": 80,
      "hit": false,
      "t": 62290.20761458319,
      "d": 188.82178125000064,
      "v": 77
    },
    {
      "midi": 86,
      "hit": false,
      "t": 62290.20761458319,
      "d": 534.9950468749958,
      "v": 80
    },
    {
      "midi": 60,
      "hit": false,
      "t": 62342.658109374854,
      "d": 1374.202963541662,
      "v": 45
    },
    {
      "midi": 50,
      "hit": false,
      "t": 62363.63830729152,
      "d": 1206.3613802083346,
      "v": 42
    },
    {
      "midi": 81,
      "hit": false,
      "t": 62562.95018749985,
      "d": 220.29207812499953,
      "v": 39
    },
    {
      "midi": 74,
      "hit": false,
      "t": 63035.00464062485,
      "d": 618.9158385416667,
      "v": 57
    },
    {
      "midi": 77,
      "hit": false,
      "t": 63737.84127083318,
      "d": 639.8960364583327,
      "v": 81
    },
    {
      "midi": 70,
      "hit": false,
      "t": 64451.167999999845,
      "d": 608.4257395833338,
      "v": 63
    },
    {
      "midi": 58,
      "hit": false,
      "t": 64451.167999999845,
      "d": 1017.539598958334,
      "v": 45
    },
    {
      "midi": 62,
      "hit": false,
      "t": 64461.65809895818,
      "d": 839.2079166666663,
      "v": 41
    },
    {
      "midi": 53,
      "hit": false,
      "t": 64482.638296874844,
      "d": 2035.0791979166752,
      "v": 27
    },
    {
      "midi": 57,
      "hit": false,
      "t": 64503.61849479151,
      "d": 2098.019791666673,
      "v": 41
    },
    {
      "midi": 77,
      "hit": false,
      "t": 65122.53433333318,
      "d": 304.2128697916705,
      "v": 69
    },
    {
      "midi": 65,
      "hit": false,
      "t": 65772.92046874984,
      "d": 2832.326718750017,
      "v": 57
    },
    {
      "midi": 62,
      "hit": false,
      "t": 66486.24719791651,
      "d": 73.43069270833803,
      "v": 50
    },
    {
      "midi": 58,
      "hit": false,
      "t": 66496.73729687485,
      "d": 136.37128645833582,
      "v": 48
    },
    {
      "midi": 70,
      "hit": false,
      "t": 67210.06402604152,
      "d": 482.5445520833309,
      "v": 58
    },
    {
      "midi": 36,
      "hit": false,
      "t": 68531.81649479152,
      "d": 230.78217708333977,
      "v": 52
    },
    {
      "midi": 76,
      "hit": false,
      "t": 69790.62836979152,
      "d": 639.8960364583472,
      "v": 82
    },
    {
      "midi": 68,
      "hit": false,
      "t": 69790.62836979152,
      "d": 1185.3811822916905,
      "v": 80
    },
    {
      "midi": 64,
      "hit": false,
      "t": 69790.62836979152,
      "d": 1216.8514791666967,
      "v": 81
    },
    {
      "midi": 73,
      "hit": false,
      "t": 69801.11846874986,
      "d": 681.8564322916791,
      "v": 63
    },
    {
      "midi": 63,
      "hit": false,
      "t": 69801.11846874986,
      "d": 723.8168281250109,
      "v": 69
    },
    {
      "midi": 74,
      "hit": false,
      "t": 70577.38579166654,
      "d": 493.03465104167117,
      "v": 68
    },
    {
      "midi": 62,
      "hit": false,
      "t": 70577.38579166654,
      "d": 629.405937500007,
      "v": 65
    },
    {
      "midi": 73,
      "hit": false,
      "t": 71206.79172916655,
      "d": 167.841583333342,
      "v": 55
    },
    {
      "midi": 61,
      "hit": false,
      "t": 71217.28182812489,
      "d": 167.841583333342,
      "v": 51
    },
    {
      "midi": 68,
      "hit": false,
      "t": 71217.28182812489,
      "d": 230.78217708333977,
      "v": 57
    },
    {
      "midi": 64,
      "hit": false,
      "t": 71227.77192708323,
      "d": 157.35148437500175,
      "v": 48
    },
    {
      "midi": 68,
      "hit": false,
      "t": 71836.19766666656,
      "d": 493.0346510417003,
      "v": 55
    },
    {
      "midi": 60,
      "hit": false,
      "t": 71846.6877656249,
      "d": 419.6039583333477,
      "v": 61
    },
    {
      "midi": 56,
      "hit": false,
      "t": 71867.66796354156,
      "d": 618.9158385417104,
      "v": 63
    },
    {
      "midi": 66,
      "hit": false,
      "t": 71920.11845833324,
      "d": 419.60395833336224,
      "v": 33
    },
    {
      "midi": 54,
      "hit": false,
      "t": 72318.74221874992,
      "d": 83.92079166667827,
      "v": 35
    },
    {
      "midi": 60,
      "hit": false,
      "t": 72444.62340624993,
      "d": 157.35148437503085,
      "v": 56
    },
    {
      "midi": 69,
      "hit": false,
      "t": 72476.09370312493,
      "d": 188.82178125002247,
      "v": 55
    },
    {
      "midi": 65,
      "hit": false,
      "t": 72486.58380208327,
      "d": 136.37128645835037,
      "v": 39
    },
    {
      "midi": 62,
      "hit": false,
      "t": 72497.07390104161,
      "d": 104.9009895833442,
      "v": 57
    },
    {
      "midi": 57,
      "hit": false,
      "t": 72507.56399999995,
      "d": 272.74257291667163,
      "v": 53
    },
    {
      "midi": 72,
      "hit": false,
      "t": 73105.49964062497,
      "d": 472.05445312500524,
      "v": 80
    },
    {
      "midi": 62,
      "hit": false,
      "t": 73126.47983854164,
      "d": 335.6831666666694,
      "v": 74
    },
    {
      "midi": 67,
      "hit": false,
      "t": 73126.47983854164,
      "d": 388.1336614583415,
      "v": 80
    },
    {
      "midi": 60,
      "hit": false,
      "t": 73147.4600364583,
      "d": 451.0742552083393,
      "v": 75
    },
    {
      "midi": 58,
      "hit": false,
      "t": 73577.55409374998,
      "d": 73.43069270833803,
      "v": 46
    },
    {
      "midi": 62,
      "hit": false,
      "t": 73766.37587499998,
      "d": 597.9356406250154,
      "v": 82
    },
    {
      "midi": 69,
      "hit": false,
      "t": 73776.86597395832,
      "d": 314.7029687500035,
      "v": 94
    },
    {
      "midi": 74,
      "hit": false,
      "t": 73776.86597395832,
      "d": 325.19306770834373,
      "v": 99
    },
    {
      "midi": 65,
      "hit": false,
      "t": 73776.86597395832,
      "d": 398.62376041668176,
      "v": 92
    },
    {
      "midi": 60,
      "hit": false,
      "t": 74427.252109375,
      "d": 62.94059374999779,
      "v": 69
    },
    {
      "midi": 72,
      "hit": false,
      "t": 74427.252109375,
      "d": 199.3118802083336,
      "v": 75
    },
    {
      "midi": 64,
      "hit": false,
      "t": 74469.21250520833,
      "d": 62.94059374999779,
      "v": 68
    },
    {
      "midi": 67,
      "hit": false,
      "t": 74490.192703125,
      "d": 62.94059374999779,
      "v": 54
    },
    {
      "midi": 69,
      "hit": false,
      "t": 74490.192703125,
      "d": 62.94059374999779,
      "v": 49
    },
    {
      "midi": 69,
      "hit": false,
      "t": 75130.08873958333,
      "d": 73.43069270835258,
      "v": 57
    },
    {
      "midi": 60,
      "hit": false,
      "t": 75130.08873958333,
      "d": 104.90098958335875,
      "v": 62
    },
    {
      "midi": 48,
      "hit": false,
      "t": 75151.06893750001,
      "d": 73.43069270833803,
      "v": 50
    },
    {
      "midi": 58,
      "hit": false,
      "t": 75769.98477604167,
      "d": 409.11385937503655,
      "v": 56
    },
    {
      "midi": 49,
      "hit": false,
      "t": 75790.96497395834,
      "d": 608.4257395833847,
      "v": 50
    },
    {
      "midi": 65,
      "hit": false,
      "t": 75822.43527083335,
      "d": 346.1732656250242,
      "v": 36
    },
    {
      "midi": 50,
      "hit": false,
      "t": 75832.92536979169,
      "d": 346.1732656250242,
      "v": 46
    },
    {
      "midi": 42,
      "hit": false,
      "t": 75832.92536979169,
      "d": 430.09405729168793,
      "v": 48
    },
    {
      "midi": 55,
      "hit": false,
      "t": 75864.39566666669,
      "d": 115.39108854166989,
      "v": 29
    },
    {
      "midi": 63,
      "hit": false,
      "t": 75916.84616145836,
      "d": 241.27227604166546,
      "v": 31
    },
    {
      "midi": 56,
      "hit": false,
      "t": 76409.88081250007,
      "d": 157.35148437500175,
      "v": 57
    },
    {
      "midi": 65,
      "hit": false,
      "t": 76472.82140625006,
      "d": 2811.346520833351,
      "v": 50
    },
    {
      "midi": 48,
      "hit": false,
      "t": 76535.76200000006,
      "d": 692.3465312500048,
      "v": 48
    },
    {
      "midi": 41,
      "hit": false,
      "t": 76546.2520989584,
      "d": 2244.8811770833418,
      "v": 45
    },
    {
      "midi": 57,
      "hit": false,
      "t": 76619.68279166674,
      "d": 650.3861354166584,
      "v": 41
    },
    {
      "midi": 48,
      "hit": false,
      "t": 78434.4699114584,
      "d": 1195.8712812500162,
      "v": 48
    },
    {
      "midi": 57,
      "hit": false,
      "t": 78465.9402083334,
      "d": 314.7029687500035,
      "v": 41
    },
    {
      "midi": 60,
      "hit": false,
      "t": 78486.92040625006,
      "d": 545.4851458333433,
      "v": 51
    },
    {
      "midi": 41,
      "hit": false,
      "t": 79693.2817864584,
      "d": 199.3118802083336,
      "v": 46
    },
    {
      "midi": 40,
      "hit": false,
      "t": 80448.56891145841,
      "d": 503.52475000002596,
      "v": 54
    },
    {
      "midi": 55,
      "hit": false,
      "t": 80511.50950520842,
      "d": 702.836630208345,
      "v": 46
    },
    {
      "midi": 69,
      "hit": false,
      "t": 81791.3015781251,
      "d": 241.27227604166546,
      "v": 45
    },
    {
      "midi": 70,
      "hit": false,
      "t": 82032.57385416677,
      "d": 262.25247395834594,
      "v": 66
    },
    {
      "midi": 69,
      "hit": false,
      "t": 82263.3560312501,
      "d": 178.33168229166768,
      "v": 61
    },
    {
      "midi": 67,
      "hit": false,
      "t": 82483.64810937512,
      "d": 167.84158333335654,
      "v": 60
    },
    {
      "midi": 62,
      "hit": false,
      "t": 82483.64810937512,
      "d": 1185.381182291705,
      "v": 39
    },
    {
      "midi": 58,
      "hit": false,
      "t": 82494.13820833346,
      "d": 986.0693020833569,
      "v": 41
    },
    {
      "midi": 57,
      "hit": false,
      "t": 82504.6283072918,
      "d": 933.6188072916848,
      "v": 27
    },
    {
      "midi": 52,
      "hit": false,
      "t": 82536.09860416681,
      "d": 849.6980156250065,
      "v": 36
    },
    {
      "midi": 69,
      "hit": false,
      "t": 82756.3906822918,
      "d": 73.43069270833803,
      "v": 57
    },
    {
      "midi": 70,
      "hit": false,
      "t": 82934.72236458347,
      "d": 73.43069270833803,
      "v": 50
    },
    {
      "midi": 74,
      "hit": false,
      "t": 83155.01444270847,
      "d": 157.35148437500175,
      "v": 70
    },
    {
      "midi": 78,
      "hit": false,
      "t": 83333.34612500014,
      "d": 188.82178125000792,
      "v": 72
    },
    {
      "midi": 81,
      "hit": false,
      "t": 83616.57879687515,
      "d": 220.29207812499953,
      "v": 75
    },
    {
      "midi": 65,
      "hit": false,
      "t": 84560.68770312515,
      "d": 1007.0495000000083,
      "v": 38
    },
    {
      "midi": 61,
      "hit": false,
      "t": 84581.66790104182,
      "d": 1195.8712812500162,
      "v": 37
    },
    {
      "midi": 55,
      "hit": false,
      "t": 84644.60849479181,
      "d": 923.1287083333445,
      "v": 36
    },
    {
      "midi": 72,
      "hit": false,
      "t": 85095.68275000015,
      "d": 104.90098958332965,
      "v": 57
    },
    {
      "midi": 73,
      "hit": false,
      "t": 85336.95502604182,
      "d": 178.33168229166768,
      "v": 66
    },
    {
      "midi": 75,
      "hit": false,
      "t": 85536.26690625015,
      "d": 62.94059375001234,
      "v": 60
    },
    {
      "midi": 76,
      "hit": false,
      "t": 85704.1084895835,
      "d": 136.37128645833582,
      "v": 74
    },
    {
      "midi": 78,
      "hit": false,
      "t": 85945.38076562516,
      "d": 83.92079166666372,
      "v": 33
    },
    {
      "midi": 79,
      "hit": false,
      "t": 86050.28175520849,
      "d": 104.90098958332965,
      "v": 68
    },
    {
      "midi": 81,
      "hit": false,
      "t": 86281.06393229181,
      "d": 167.84158333332743,
      "v": 54
    },
    {
      "midi": 82,
      "hit": false,
      "t": 86364.98472395848,
      "d": 146.8613854166615,
      "v": 78
    },
    {
      "midi": 84,
      "hit": false,
      "t": 86627.23719791681,
      "d": 293.72277083333756,
      "v": 99
    },
    {
      "midi": 64,
      "hit": false,
      "t": 86732.13818750014,
      "d": 409.113859375022,
      "v": 46
    },
    {
      "midi": 61,
      "hit": false,
      "t": 86753.1183854168,
      "d": 618.9158385416958,
      "v": 47
    },
    {
      "midi": 55,
      "hit": false,
      "t": 86784.58868229181,
      "d": 1111.950489583367,
      "v": 36
    },
    {
      "midi": 73,
      "hit": false,
      "t": 86994.39066145848,
      "d": 83.92079166667827,
      "v": 65
    },
    {
      "midi": 75,
      "hit": false,
      "t": 87004.88076041683,
      "d": 62.94059374999779,
      "v": 52
    },
    {
      "midi": 73,
      "hit": false,
      "t": 87403.5045208335,
      "d": 230.78217708333977,
      "v": 66
    },
    {
      "midi": 72,
      "hit": false,
      "t": 87948.98966666685,
      "d": 220.29207812499953,
      "v": 77
    },
    {
      "midi": 79,
      "hit": false,
      "t": 88494.47481250018,
      "d": 534.995046875003,
      "v": 82
    },
    {
      "midi": 64,
      "hit": false,
      "t": 88494.47481250018,
      "d": 555.975244791669,
      "v": 60
    },
    {
      "midi": 69,
      "hit": false,
      "t": 88494.47481250018,
      "d": 576.9554427083349,
      "v": 75
    },
    {
      "midi": 72,
      "hit": false,
      "t": 88504.96491145852,
      "d": 524.5049479166628,
      "v": 74
    },
    {
      "midi": 63,
      "hit": false,
      "t": 89050.45005729185,
      "d": 713.3267291666707,
      "v": 58
    },
    {
      "midi": 69,
      "hit": false,
      "t": 89763.77678645852,
      "d": 849.6980156250211,
      "v": 68
    },
    {
      "midi": 72,
      "hit": false,
      "t": 89784.75698437518,
      "d": 671.3663333333388,
      "v": 63
    },
    {
      "midi": 77,
      "hit": false,
      "t": 89784.75698437518,
      "d": 692.3465312500048,
      "v": 66
    },
    {
      "midi": 62,
      "hit": false,
      "t": 89816.22728125019,
      "d": 723.8168281250109,
      "v": 51
    },
    {
      "midi": 61,
      "hit": false,
      "t": 90487.59361458353,
      "d": 660.8762343750132,
      "v": 63
    },
    {
      "midi": 76,
      "hit": false,
      "t": 91085.52925520853,
      "d": 1206.3613802083419,
      "v": 68
    },
    {
      "midi": 69,
      "hit": false,
      "t": 91096.01935416687,
      "d": 818.2277187500003,
      "v": 63
    },
    {
      "midi": 65,
      "hit": false,
      "t": 91106.50945312521,
      "d": 702.8366302083305,
      "v": 52
    },
    {
      "midi": 60,
      "hit": false,
      "t": 91127.48965104188,
      "d": 912.6386093749898,
      "v": 56
    },
    {
      "midi": 65,
      "hit": false,
      "t": 92386.30152604188,
      "d": 797.2475208333344,
      "v": 57
    },
    {
      "midi": 57,
      "hit": false,
      "t": 92407.28172395854,
      "d": 849.6980156250065,
      "v": 45
    },
    {
      "midi": 69,
      "hit": false,
      "t": 92407.28172395854,
      "d": 891.6584114583384,
      "v": 54
    },
    {
      "midi": 72,
      "hit": false,
      "t": 92407.28172395854,
      "d": 1216.8514791666676,
      "v": 50
    },
    {
      "midi": 48,
      "hit": false,
      "t": 92407.28172395854,
      "d": 2653.9950364583347,
      "v": 45
    },
    {
      "midi": 69,
      "hit": false,
      "t": 93781.48468750021,
      "d": 188.82178124999336,
      "v": 60
    },
    {
      "midi": 65,
      "hit": false,
      "t": 94599.71240625021,
      "d": 1374.2029635416693,
      "v": 53
    },
    {
      "midi": 62,
      "hit": false,
      "t": 94620.69260416688,
      "d": 713.3267291666707,
      "v": 37
    },
    {
      "midi": 57,
      "hit": false,
      "t": 94652.16290104188,
      "d": 1447.6336562499928,
      "v": 41
    },
    {
      "midi": 48,
      "hit": false,
      "t": 95869.01438020855,
      "d": 283.2326718749973,
      "v": 46
    },
    {
      "midi": 67,
      "hit": false,
      "t": 96676.75200000021,
      "d": 1311.2623697916715,
      "v": 54
    },
    {
      "midi": 62,
      "hit": false,
      "t": 96697.73219791688,
      "d": 1248.3217760416737,
      "v": 52
    },
    {
      "midi": 47,
      "hit": false,
      "t": 96729.20249479188,
      "d": 912.6386093750043,
      "v": 43
    },
    {
      "midi": 59,
      "hit": false,
      "t": 96729.20249479188,
      "d": 1049.0098958333401,
      "v": 33
    },
    {
      "midi": 55,
      "hit": false,
      "t": 96739.69259375022,
      "d": 1374.2029635416548,
      "v": 30
    },
    {
      "midi": 47,
      "hit": false,
      "t": 97946.05397395855,
      "d": 1384.6930625000095,
      "v": 50
    },
    {
      "midi": 74,
      "hit": false,
      "t": 98659.3807031252,
      "d": 398.62376041668176,
      "v": 94
    },
    {
      "midi": 67,
      "hit": false,
      "t": 98659.3807031252,
      "d": 534.9950468750176,
      "v": 89
    },
    {
      "midi": 55,
      "hit": false,
      "t": 98680.36090104189,
      "d": 1479.1039531250135,
      "v": 62
    },
    {
      "midi": 71,
      "hit": false,
      "t": 99309.7668385419,
      "d": 524.5049479166773,
      "v": 59
    },
    {
      "midi": 62,
      "hit": false,
      "t": 99309.7668385419,
      "d": 891.6584114583529,
      "v": 57
    },
    {
      "midi": 67,
      "hit": false,
      "t": 99351.72723437523,
      "d": 472.05445312500524,
      "v": 19
    },
    {
      "midi": 47,
      "hit": false,
      "t": 99970.64307291691,
      "d": 199.3118802083336,
      "v": 49
    },
    {
      "midi": 46,
      "hit": false,
      "t": 100673.47970312525,
      "d": 545.4851458333287,
      "v": 55
    },
    {
      "midi": 60,
      "hit": false,
      "t": 100673.47970312525,
      "d": 881.1683124999981,
      "v": 52
    },
    {
      "midi": 64,
      "hit": false,
      "t": 100673.47970312525,
      "d": 1059.4999947916658,
      "v": 52
    },
    {
      "midi": 67,
      "hit": false,
      "t": 100673.47970312525,
      "d": 1069.990093750006,
      "v": 55
    },
    {
      "midi": 56,
      "hit": false,
      "t": 100715.44009895858,
      "d": 744.7970260416623,
      "v": 44
    },
    {
      "midi": 46,
      "hit": false,
      "t": 101344.84603645858,
      "d": 1751.8465260416997,
      "v": 75
    },
    {
      "midi": 56,
      "hit": false,
      "t": 102614.14801041693,
      "d": 1458.1237552083476,
      "v": 63
    },
    {
      "midi": 72,
      "hit": false,
      "t": 102635.1282083336,
      "d": 545.4851458333433,
      "v": 111
    },
    {
      "midi": 64,
      "hit": false,
      "t": 102656.10840625026,
      "d": 1321.7524687500118,
      "v": 92
    },
    {
      "midi": 68,
      "hit": false,
      "t": 102708.55890104194,
      "d": 94.41089062500396,
      "v": 35
    },
    {
      "midi": 67,
      "hit": false,
      "t": 103379.92523437527,
      "d": 545.4851458333287,
      "v": 56
    },
    {
      "midi": 60,
      "hit": false,
      "t": 103400.90543229194,
      "d": 692.3465312500048,
      "v": 56
    },
    {
      "midi": 46,
      "hit": false,
      "t": 104009.33117187528,
      "d": 629.4059374999924,
      "v": 57
    },
    {
      "midi": 45,
      "hit": false,
      "t": 104796.08859375028,
      "d": 1069.990093750006,
      "v": 75
    },
    {
      "midi": 45,
      "hit": false,
      "t": 106012.94007291694,
      "d": 503.52474999999686,
      "v": 68
    },
    {
      "midi": 56,
      "hit": false,
      "t": 106726.2668020836,
      "d": 167.841583333342,
      "v": 58
    },
    {
      "midi": 54,
      "hit": false,
      "t": 106726.2668020836,
      "d": 325.19306770834373,
      "v": 59
    },
    {
      "midi": 60,
      "hit": false,
      "t": 106799.69749479194,
      "d": 430.09405729168793,
      "v": 38
    },
    {
      "midi": 64,
      "hit": false,
      "t": 106831.16779166694,
      "d": 314.7029687500035,
      "v": 37
    },
    {
      "midi": 57,
      "hit": false,
      "t": 106967.53907812528,
      "d": 188.82178125000792,
      "v": 42
    },
    {
      "midi": 27,
      "hit": false,
      "t": 107397.63313541695,
      "d": 503.52474999999686,
      "v": 57
    },
    {
      "midi": 26,
      "hit": false,
      "t": 108037.52917187529,
      "d": 975.5792031250021,
      "v": 74
    },
    {
      "midi": 38,
      "hit": false,
      "t": 108771.83609895862,
      "d": 335.6831666666694,
      "v": 78
    },
    {
      "midi": 54,
      "hit": false,
      "t": 110114.56876562528,
      "d": 849.6980156250211,
      "v": 75
    },
    {
      "midi": 72,
      "hit": false,
      "t": 110114.56876562528,
      "d": 849.6980156250211,
      "v": 89
    },
    {
      "midi": 68,
      "hit": false,
      "t": 110125.05886458363,
      "d": 534.995046875003,
      "v": 85
    },
    {
      "midi": 64,
      "hit": false,
      "t": 110125.05886458363,
      "d": 776.267322916683,
      "v": 85
    },
    {
      "midi": 60,
      "hit": false,
      "t": 110135.54896354197,
      "d": 734.3069270833366,
      "v": 74
    },
    {
      "midi": 69,
      "hit": false,
      "t": 110261.43015104196,
      "d": 618.9158385416813,
      "v": 41
    },
    {
      "midi": 44,
      "hit": false,
      "t": 111404.8509375003,
      "d": 713.3267291667144,
      "v": 58
    },
    {
      "midi": 69,
      "hit": false,
      "t": 111415.34103645865,
      "d": 493.0346510416857,
      "v": 66
    },
    {
      "midi": 54,
      "hit": false,
      "t": 111436.32123437533,
      "d": 566.4653437500237,
      "v": 42
    },
    {
      "midi": 65,
      "hit": false,
      "t": 111457.30143229199,
      "d": 482.5445520833455,
      "v": 52
    },
    {
      "midi": 60,
      "hit": false,
      "t": 111457.30143229199,
      "d": 493.0346510416857,
      "v": 50
    },
    {
      "midi": 62,
      "hit": false,
      "t": 111467.79153125033,
      "d": 493.0346510416857,
      "v": 54
    },
    {
      "midi": 58,
      "hit": false,
      "t": 112642.6826145837,
      "d": 1563.0247447916772,
      "v": 54
    },
    {
      "midi": 57,
      "hit": false,
      "t": 112663.66281250036,
      "d": 1248.3217760416737,
      "v": 55
    },
    {
      "midi": 43,
      "hit": false,
      "t": 112663.66281250036,
      "d": 3923.297010416718,
      "v": 48
    },
    {
      "midi": 62,
      "hit": false,
      "t": 112674.1529114587,
      "d": 1521.0643489583308,
      "v": 56
    },
    {
      "midi": 53,
      "hit": false,
      "t": 112705.62320833371,
      "d": 1059.4999947916658,
      "v": 36
    },
    {
      "midi": 50,
      "hit": false,
      "t": 114027.3756770837,
      "d": 776.267322916683,
      "v": 55
    },
    {
      "midi": 53,
      "hit": false,
      "t": 114772.17270312537,
      "d": 597.9356406250154,
      "v": 71
    },
    {
      "midi": 58,
      "hit": false,
      "t": 114772.17270312537,
      "d": 629.4059375000215,
      "v": 75
    },
    {
      "midi": 65,
      "hit": false,
      "t": 114782.66280208371,
      "d": 587.4455416666751,
      "v": 71
    },
    {
      "midi": 55,
      "hit": false,
      "t": 114793.15290104205,
      "d": 482.5445520833309,
      "v": 71
    },
    {
      "midi": 62,
      "hit": false,
      "t": 114793.15290104205,
      "d": 482.5445520833309,
      "v": 63
    },
    {
      "midi": 50,
      "hit": false,
      "t": 115464.51923437539,
      "d": 660.8762343750132,
      "v": 33
    },
    {
      "midi": 53,
      "hit": false,
      "t": 116083.43507291705,
      "d": 94.41089062501851,
      "v": 55
    },
    {
      "midi": 58,
      "hit": false,
      "t": 116104.41527083372,
      "d": 367.15346354169014,
      "v": 73
    },
    {
      "midi": 65,
      "hit": false,
      "t": 116104.41527083372,
      "d": 430.09405729168793,
      "v": 68
    },
    {
      "midi": 55,
      "hit": false,
      "t": 116125.3954687504,
      "d": 167.841583333342,
      "v": 67
    },
    {
      "midi": 62,
      "hit": false,
      "t": 116125.3954687504,
      "d": 346.17326562500966,
      "v": 60
    },
    {
      "midi": 47,
      "hit": false,
      "t": 116880.68259375042,
      "d": 167.841583333342,
      "v": 66
    },
    {
      "midi": 48,
      "hit": false,
      "t": 116891.17269270876,
      "d": 3440.752458333329,
      "v": 59
    },
    {
      "midi": 70,
      "hit": false,
      "t": 116912.15289062542,
      "d": 241.27227604166546,
      "v": 82
    },
    {
      "midi": 71,
      "hit": false,
      "t": 117174.40536458376,
      "d": 220.29207812499953,
      "v": 56
    },
    {
      "midi": 70,
      "hit": false,
      "t": 117331.75684895876,
      "d": 209.8019791666593,
      "v": 48
    },
    {
      "midi": 68,
      "hit": false,
      "t": 117499.59843229208,
      "d": 220.29207812499953,
      "v": 50
    },
    {
      "midi": 65,
      "hit": false,
      "t": 117688.42021354208,
      "d": 157.35148437500175,
      "v": 55
    },
    {
      "midi": 43,
      "hit": false,
      "t": 117761.85090625042,
      "d": 136.37128645833582,
      "v": 22
    },
    {
      "midi": 70,
      "hit": false,
      "t": 117929.69248958376,
      "d": 367.15346354166104,
      "v": 90
    },
    {
      "midi": 68,
      "hit": false,
      "t": 118401.74694270875,
      "d": 209.80197916667385,
      "v": 71
    },
    {
      "midi": 70,
      "hit": false,
      "t": 118454.19743750042,
      "d": 83.92079166666372,
      "v": 46
    },
    {
      "midi": 36,
      "hit": false,
      "t": 118716.44991145875,
      "d": 1730.8663281250047,
      "v": 58
    },
    {
      "midi": 65,
      "hit": false,
      "t": 118842.33109895875,
      "d": 125.88118749999558,
      "v": 63
    },
    {
      "midi": 58,
      "hit": false,
      "t": 119314.38555208374,
      "d": 178.33168229166768,
      "v": 75
    },
    {
      "midi": 65,
      "hit": false,
      "t": 119335.3657500004,
      "d": 524.5049479166628,
      "v": 56
    },
    {
      "midi": 59,
      "hit": false,
      "t": 119545.16772916708,
      "d": 125.88118749999558,
      "v": 42
    },
    {
      "midi": 62,
      "hit": false,
      "t": 119796.93010416707,
      "d": 188.82178125000792,
      "v": 49
    },
    {
      "midi": 59,
      "hit": false,
      "t": 119891.34099479207,
      "d": 125.88118750001013,
      "v": 41
    },
    {
      "midi": 53,
      "hit": false,
      "t": 120101.14297395875,
      "d": 62.94059374999779,
      "v": 52
    },
    {
      "midi": 58,
      "hit": false,
      "t": 120279.47465625042,
      "d": 367.1534635416756,
      "v": 66
    },
    {
      "midi": 62,
      "hit": false,
      "t": 120289.96475520876,
      "d": 398.6237604166672,
      "v": 63
    },
    {
      "midi": 39,
      "hit": false,
      "t": 120615.15782291708,
      "d": 304.21286979166325,
      "v": 49
    },
    {
      "midi": 53,
      "hit": false,
      "t": 120667.60831770876,
      "d": 83.92079166666372,
      "v": 48
    },
    {
      "midi": 56,
      "hit": false,
      "t": 120929.86079166709,
      "d": 220.2920781250141,
      "v": 64
    },
    {
      "midi": 40,
      "hit": false,
      "t": 120940.35089062543,
      "d": 62.94059375001234,
      "v": 50
    },
    {
      "midi": 60,
      "hit": false,
      "t": 120950.84098958377,
      "d": 388.1336614583415,
      "v": 56
    },
    {
      "midi": 41,
      "hit": false,
      "t": 121024.2716822921,
      "d": 3272.9108750000014,
      "v": 59
    },
    {
      "midi": 57,
      "hit": false,
      "t": 121181.62316666711,
      "d": 220.29207812499953,
      "v": 47
    },
    {
      "midi": 53,
      "hit": false,
      "t": 121464.8558385421,
      "d": 1667.9257343750069,
      "v": 72
    },
    {
      "midi": 29,
      "hit": false,
      "t": 121464.8558385421,
      "d": 1982.6287031250104,
      "v": 59
    },
    {
      "midi": 29,
      "hit": false,
      "t": 124171.30136979211,
      "d": 157.35148437500175,
      "v": 52
    },
    {
      "midi": 27,
      "hit": false,
      "t": 124958.0587916671,
      "d": 776.2673229166685,
      "v": 45
    },
    {
      "midi": 75,
      "hit": false,
      "t": 124958.0587916671,
      "d": 1363.712864583329,
      "v": 69
    },
    {
      "midi": 39,
      "hit": false,
      "t": 124958.0587916671,
      "d": 1552.5346458333224,
      "v": 39
    },
    {
      "midi": 61,
      "hit": false,
      "t": 124979.03898958377,
      "d": 1153.9108854166698,
      "v": 60
    },
    {
      "midi": 27,
      "hit": false,
      "t": 126132.94987500044,
      "d": 419.6039583333186,
      "v": 45
    },
    {
      "midi": 28,
      "hit": false,
      "t": 126825.29640625042,
      "d": 660.8762343749986,
      "v": 46
    },
    {
      "midi": 76,
      "hit": false,
      "t": 126867.25680208375,
      "d": 377.6435625000013,
      "v": 41
    },
    {
      "midi": 40,
      "hit": false,
      "t": 126867.25680208375,
      "d": 1353.2227656250034,
      "v": 39
    },
    {
      "midi": 62,
      "hit": false,
      "t": 126877.74690104209,
      "d": 597.9356406249863,
      "v": 36
    },
    {
      "midi": 73,
      "hit": false,
      "t": 126940.68749479209,
      "d": 472.0544531249907,
      "v": 22
    },
    {
      "midi": 28,
      "hit": false,
      "t": 128063.12808333375,
      "d": 188.82178125000792,
      "v": 48
    },
    {
      "midi": 65,
      "hit": false,
      "t": 128818.41520833375,
      "d": 409.113859375022,
      "v": 41
    },
    {
      "midi": 29,
      "hit": false,
      "t": 128828.9053072921,
      "d": 440.5841562500136,
      "v": 40
    },
    {
      "midi": 41,
      "hit": false,
      "t": 128839.39540625043,
      "d": 608.425739583341,
      "v": 39
    },
    {
      "midi": 60,
      "hit": false,
      "t": 128881.35580208377,
      "d": 220.2920781250141,
      "v": 39
    },
    {
      "midi": 57,
      "hit": false,
      "t": 128891.8459010421,
      "d": 167.84158333332743,
      "v": 26
    },
    {
      "midi": 62,
      "hit": false,
      "t": 128891.8459010421,
      "d": 178.33168229166768,
      "v": 27
    },
    {
      "midi": 72,
      "hit": false,
      "t": 130087.71718229211,
      "d": 188.82178125000792,
      "v": 48
    },
    {
      "midi": 73,
      "hit": false,
      "t": 130161.14787500045,
      "d": 62.94059374999779,
      "v": 56
    },
    {
      "midi": 74,
      "hit": false,
      "t": 130287.02906250046,
      "d": 220.29207812499953,
      "v": 61
    },
    {
      "midi": 77,
      "hit": false,
      "t": 130916.43500000045,
      "d": 587.4455416666606,
      "v": 122
    },
    {
      "midi": 62,
      "hit": false,
      "t": 130916.43500000045,
      "d": 1300.7722708333313,
      "v": 52
    },
    {
      "midi": 60,
      "hit": false,
      "t": 130937.41519791711,
      "d": 1311.262369791657,
      "v": 42
    },
    {
      "midi": 53,
      "hit": false,
      "t": 130979.37559375045,
      "d": 1542.0445468749967,
      "v": 39
    },
    {
      "midi": 57,
      "hit": false,
      "t": 130989.86569270879,
      "d": 1332.2425677083374,
      "v": 40
    },
    {
      "midi": 79,
      "hit": false,
      "t": 131577.31123437543,
      "d": 534.995046875003,
      "v": 89
    },
    {
      "midi": 77,
      "hit": false,
      "t": 132269.65776562545,
      "d": 891.6584114583384,
      "v": 90
    },
    {
      "midi": 62,
      "hit": false,
      "t": 134073.95478645878,
      "d": 629.405937500007,
      "v": 66
    },
    {
      "midi": 74,
      "hit": false,
      "t": 134073.95478645878,
      "d": 996.5594010416826,
      "v": 81
    },
    {
      "midi": 58,
      "hit": false,
      "t": 134084.44488541712,
      "d": 671.3663333333388,
      "v": 57
    },
    {
      "midi": 52,
      "hit": false,
      "t": 134157.87557812544,
      "d": 639.8960364583472,
      "v": 36
    },
    {
      "midi": 76,
      "hit": false,
      "t": 135773.3508177088,
      "d": 776.267322916683,
      "v": 66
    },
    {
      "midi": 57,
      "hit": false,
      "t": 135783.84091666713,
      "d": 514.0148489583516,
      "v": 56
    },
    {
      "midi": 69,
      "hit": false,
      "t": 135783.84091666713,
      "d": 514.0148489583516,
      "v": 57
    },
    {
      "midi": 49,
      "hit": false,
      "t": 135783.84091666713,
      "d": 524.5049479166919,
      "v": 57
    },
    {
      "midi": 73,
      "hit": false,
      "t": 135783.84091666713,
      "d": 723.8168281250109,
      "v": 49
    },
    {
      "midi": 64,
      "hit": false,
      "t": 135794.33101562547,
      "d": 472.0544531250198,
      "v": 54
    },
    {
      "midi": 65,
      "hit": false,
      "t": 136832.85081250046,
      "d": 965.089104166691,
      "v": 58
    },
    {
      "midi": 69,
      "hit": false,
      "t": 136843.3409114588,
      "d": 1090.9702916666865,
      "v": 61
    },
    {
      "midi": 62,
      "hit": false,
      "t": 136843.3409114588,
      "d": 1458.1237552083621,
      "v": 54
    },
    {
      "midi": 50,
      "hit": false,
      "t": 138112.64288541715,
      "d": 2181.940583333344,
      "v": 52
    },
    {
      "midi": 62,
      "hit": false,
      "t": 138972.8310000005,
      "d": 2213.4108802083647,
      "v": 68
    },
    {
      "midi": 48,
      "hit": false,
      "t": 140923.9894062505,
      "d": 1804.2970208333281,
      "v": 48
    },
    {
      "midi": 57,
      "hit": false,
      "t": 140944.96960416719,
      "d": 1363.712864583329,
      "v": 44
    },
    {
      "midi": 65,
      "hit": false,
      "t": 142109.3705885422,
      "d": 356.66336458330625,
      "v": 122
    },
    {
      "midi": 67,
      "hit": false,
      "t": 142896.12801041716,
      "d": 1174.8910833333503,
      "v": 122
    },
    {
      "midi": 57,
      "hit": false,
      "t": 142906.6181093755,
      "d": 944.1089062500105,
      "v": 54
    },
    {
      "midi": 48,
      "hit": false,
      "t": 142927.59830729218,
      "d": 1174.8910833333211,
      "v": 53
    },
    {
      "midi": 69,
      "hit": false,
      "t": 144144.44978645883,
      "d": 629.405937500007,
      "v": 75
    },
    {
      "midi": 65,
      "hit": false,
      "t": 144899.73691145887,
      "d": 1269.301973958325,
      "v": 62
    },
    {
      "midi": 55,
      "hit": false,
      "t": 144899.73691145887,
      "d": 1363.712864583329,
      "v": 48
    },
    {
      "midi": 47,
      "hit": false,
      "t": 144920.71710937555,
      "d": 3577.1237447916355,
      "v": 48
    },
    {
      "midi": 62,
      "hit": false,
      "t": 146200.50918229218,
      "d": 398.6237604166672,
      "v": 56
    },
    {
      "midi": 65,
      "hit": false,
      "t": 146945.30620833384,
      "d": 388.1336614583561,
      "v": 72
    },
    {
      "midi": 55,
      "hit": false,
      "t": 146976.77650520887,
      "d": 1521.0643489583163,
      "v": 45
    },
    {
      "midi": 67,
      "hit": false,
      "t": 147427.8507604172,
      "d": 136.37128645833582,
      "v": 46
    },
    {
      "midi": 65,
      "hit": false,
      "t": 147511.77155208387,
      "d": 272.74257291667163,
      "v": 54
    },
    {
      "midi": 62,
      "hit": false,
      "t": 147763.53392708386,
      "d": 94.41089062500396,
      "v": 54
    },
    {
      "midi": 65,
      "hit": false,
      "t": 148015.29630208385,
      "d": 398.6237604166672,
      "v": 89
    },
    {
      "midi": 67,
      "hit": false,
      "t": 148403.42996354218,
      "d": 293.722770833323,
      "v": 68
    },
    {
      "midi": 65,
      "hit": false,
      "t": 148770.58342708382,
      "d": 1804.2970208333281,
      "v": 68
    },
    {
      "midi": 46,
      "hit": false,
      "t": 148854.5042187505,
      "d": 608.4257395833265,
      "v": 43
    },
    {
      "midi": 55,
      "hit": false,
      "t": 148854.5042187505,
      "d": 860.1881145833177,
      "v": 43
    },
    {
      "midi": 57,
      "hit": false,
      "t": 150165.76658854214,
      "d": 1678.4158333333326,
      "v": 69
    },
    {
      "midi": 62,
      "hit": false,
      "t": 151015.46460416715,
      "d": 1521.0643489583163,
      "v": 53
    },
    {
      "midi": 65,
      "hit": false,
      "t": 151015.46460416715,
      "d": 1552.5346458333079,
      "v": 52
    },
    {
      "midi": 56,
      "hit": false,
      "t": 151676.34083854215,
      "d": 1300.7722708333167,
      "v": 78
    },
    {
      "midi": 49,
      "hit": false,
      "t": 152337.21707291715,
      "d": 534.9950468749739,
      "v": 73
    },
    {
      "midi": 62,
      "hit": false,
      "t": 153040.05370312548,
      "d": 419.6039583333477,
      "v": 66
    },
    {
      "midi": 65,
      "hit": false,
      "t": 153050.54380208382,
      "d": 472.0544531250198,
      "v": 56
    },
    {
      "midi": 50,
      "hit": false,
      "t": 153061.03390104216,
      "d": 2601.5445416667208,
      "v": 60
    },
    {
      "midi": 57,
      "hit": false,
      "t": 153061.03390104216,
      "d": 3734.475229166739,
      "v": 61
    },
    {
      "midi": 62,
      "hit": false,
      "t": 153774.36063020883,
      "d": 681.8564322917082,
      "v": 61
    },
    {
      "midi": 74,
      "hit": false,
      "t": 154403.76656770884,
      "d": 503.5247500000405,
      "v": 82
    },
    {
      "midi": 65,
      "hit": false,
      "t": 154414.25666666718,
      "d": 409.11385937503655,
      "v": 79
    },
    {
      "midi": 69,
      "hit": false,
      "t": 154435.23686458386,
      "d": 472.0544531250198,
      "v": 74
    },
    {
      "midi": 74,
      "hit": false,
      "t": 155106.6031979172,
      "d": 618.9158385416958,
      "v": 79
    },
    {
      "midi": 62,
      "hit": false,
      "t": 155127.58339583388,
      "d": 597.9356406250154,
      "v": 72
    },
    {
      "midi": 69,
      "hit": false,
      "t": 155127.58339583388,
      "d": 671.3663333333388,
      "v": 82
    },
    {
      "midi": 65,
      "hit": false,
      "t": 155138.07349479222,
      "d": 566.4653437499946,
      "v": 77
    },
    {
      "midi": 77,
      "hit": false,
      "t": 156386.3952708339,
      "d": 430.09405729168793,
      "v": 107
    },
    {
      "midi": 50,
      "hit": false,
      "t": 156407.37546875057,
      "d": 293.722770833323,
      "v": 68
    },
    {
      "midi": 79,
      "hit": false,
      "t": 157194.13289062557,
      "d": 1353.222765625047,
      "v": 76
    },
    {
      "midi": 67,
      "hit": false,
      "t": 157204.6229895839,
      "d": 1279.7920729166945,
      "v": 60
    },
    {
      "midi": 73,
      "hit": false,
      "t": 157215.11308854225,
      "d": 1500.084151041694,
      "v": 57
    },
    {
      "midi": 57,
      "hit": false,
      "t": 157215.11308854225,
      "d": 1563.0247447917063,
      "v": 72
    },
    {
      "midi": 49,
      "hit": false,
      "t": 157236.09328645893,
      "d": 954.5990052083507,
      "v": 57
    },
    {
      "midi": 76,
      "hit": false,
      "t": 157236.09328645893,
      "d": 1437.1435572916816,
      "v": 58
    },
    {
      "midi": 49,
      "hit": false,
      "t": 158390.0041718756,
      "d": 1500.084151041694,
      "v": 57
    },
    {
      "midi": 73,
      "hit": false,
      "t": 159208.2318906256,
      "d": 650.3861354166875,
      "v": 62
    },
    {
      "midi": 81,
      "hit": false,
      "t": 159218.72198958395,
      "d": 860.1881145833468,
      "v": 63
    },
    {
      "midi": 69,
      "hit": false,
      "t": 159229.2120885423,
      "d": 514.0148489583516,
      "v": 63
    },
    {
      "midi": 76,
      "hit": false,
      "t": 159239.70218750063,
      "d": 660.8762343749986,
      "v": 58
    },
    {
      "midi": 57,
      "hit": false,
      "t": 159239.70218750063,
      "d": 1437.1435572916816,
      "v": 56
    },
    {
      "midi": 49,
      "hit": false,
      "t": 160404.10317187564,
      "d": 451.0742552083393,
      "v": 50
    },
    {
      "midi": 84,
      "hit": false,
      "t": 161127.92000000065,
      "d": 398.6237604166963,
      "v": 98
    },
    {
      "midi": 72,
      "hit": false,
      "t": 161148.90019791733,
      "d": 115.39108854168444,
      "v": 75
    },
    {
      "midi": 77,
      "hit": false,
      "t": 161148.90019791733,
      "d": 293.7227708333521,
      "v": 82
    },
    {
      "midi": 57,
      "hit": false,
      "t": 161148.90019791733,
      "d": 891.6584114583675,
      "v": 45
    },
    {
      "midi": 48,
      "hit": false,
      "t": 161169.880395834,
      "d": 3388.301963541715,
      "v": 45
    },
    {
      "midi": 72,
      "hit": false,
      "t": 161589.48435416736,
      "d": 104.9009895833442,
      "v": 51
    },
    {
      "midi": 84,
      "hit": false,
      "t": 161778.30613541737,
      "d": 209.8019791666593,
      "v": 42
    },
    {
      "midi": 72,
      "hit": false,
      "t": 162019.57841145902,
      "d": 241.27227604168002,
      "v": 39
    },
    {
      "midi": 84,
      "hit": false,
      "t": 162313.30118229237,
      "d": 157.3514843749872,
      "v": 39
    },
    {
      "midi": 72,
      "hit": false,
      "t": 162533.59326041737,
      "d": 262.2524739583314,
      "v": 39
    },
    {
      "midi": 84,
      "hit": false,
      "t": 162785.35563541736,
      "d": 209.8019791666593,
      "v": 51
    },
    {
      "midi": 72,
      "hit": false,
      "t": 163058.09820833404,
      "d": 220.29207812499953,
      "v": 39
    },
    {
      "midi": 84,
      "hit": false,
      "t": 163257.41008854235,
      "d": 199.31188020834816,
      "v": 39
    },
    {
      "midi": 57,
      "hit": false,
      "t": 163309.86058333403,
      "d": 807.7376197917038,
      "v": 43
    },
    {
      "midi": 72,
      "hit": false,
      "t": 163519.66256250071,
      "d": 241.27227604168002,
      "v": 39
    },
    {
      "midi": 84,
      "hit": false,
      "t": 163739.9546406257,
      "d": 230.78217708333977,
      "v": 45
    },
    {
      "midi": 72,
      "hit": false,
      "t": 164065.14770833406,
      "d": 136.37128645833582,
      "v": 37
    },
    {
      "midi": 84,
      "hit": false,
      "t": 164232.98929166739,
      "d": 199.31188020831905,
      "v": 22
    },
    {
      "midi": 81,
      "hit": false,
      "t": 164453.28136979238,
      "d": 545.4851458333433,
      "v": 65
    },
    {
      "midi": 83,
      "hit": false,
      "t": 165124.64770312572,
      "d": 398.6237604166672,
      "v": 63
    },
    {
      "midi": 71,
      "hit": false,
      "t": 165166.60809895906,
      "d": 493.03465104167117,
      "v": 45
    },
    {
      "midi": 55,
      "hit": false,
      "t": 165177.0981979174,
      "d": 440.58415624999907,
      "v": 28
    },
    {
      "midi": 47,
      "hit": false,
      "t": 165177.0981979174,
      "d": 2832.3267187500314,
      "v": 36
    },
    {
      "midi": 74,
      "hit": false,
      "t": 167170.21700000073,
      "d": 933.6188072916993,
      "v": 59
    },
    {
      "midi": 67,
      "hit": false,
      "t": 167180.70709895907,
      "d": 975.5792031250312,
      "v": 50
    },
    {
      "midi": 62,
      "hit": false,
      "t": 167180.70709895907,
      "d": 1111.950489583367,
      "v": 50
    },
    {
      "midi": 59,
      "hit": false,
      "t": 167201.68729687575,
      "d": 639.8960364583472,
      "v": 48
    },
    {
      "midi": 55,
      "hit": false,
      "t": 167820.60313541742,
      "d": 849.6980156250065,
      "v": 63
    },
    {
      "midi": 47,
      "hit": false,
      "t": 168429.02887500077,
      "d": 157.3514843749872,
      "v": 48
    },
    {
      "midi": 62,
      "hit": false,
      "t": 169079.4150104174,
      "d": 1353.222765625018,
      "v": 60
    },
    {
      "midi": 50,
      "hit": false,
      "t": 169100.39520833408,
      "d": 933.6188072916702,
      "v": 39
    },
    {
      "midi": 57,
      "hit": false,
      "t": 169184.31600000075,
      "d": 1416.1633593750012,
      "v": 39
    },
    {
      "midi": 50,
      "hit": false,
      "t": 170390.6773802091,
      "d": 2202.9207812500244,
      "v": 65
    },
    {
      "midi": 62,
      "hit": false,
      "t": 171166.94470312574,
      "d": 157.3514843750163,
      "v": 65
    },
    {
      "midi": 57,
      "hit": false,
      "t": 171187.92490104242,
      "d": 1625.9653385416896,
      "v": 41
    },
    {
      "midi": 64,
      "hit": false,
      "t": 171376.74668229243,
      "d": 230.78217708333977,
      "v": 57
    },
    {
      "midi": 62,
      "hit": false,
      "t": 171544.58826562576,
      "d": 314.7029687500326,
      "v": 48
    },
    {
      "midi": 61,
      "hit": false,
      "t": 171796.35064062578,
      "d": 157.3514843750163,
      "v": 57
    },
    {
      "midi": 62,
      "hit": false,
      "t": 172111.05360937578,
      "d": 650.3861354166584,
      "v": 82
    },
    {
      "midi": 64,
      "hit": false,
      "t": 172646.0486562508,
      "d": 472.0544531249907,
      "v": 85
    },
    {
      "midi": 65,
      "hit": false,
      "t": 173170.55360416745,
      "d": 1007.0494999999937,
      "v": 82
    },
    {
      "midi": 49,
      "hit": false,
      "t": 173170.55360416745,
      "d": 2874.287114583334,
      "v": 57
    },
    {
      "midi": 57,
      "hit": false,
      "t": 173181.0437031258,
      "d": 1615.4752395833202,
      "v": 50
    },
    {
      "midi": 57,
      "hit": false,
      "t": 175237.1030989591,
      "d": 923.12870833333,
      "v": 49
    },
    {
      "midi": 67,
      "hit": false,
      "t": 176328.07339062577,
      "d": 639.8960364583181,
      "v": 76
    },
    {
      "midi": 49,
      "hit": false,
      "t": 176370.0337864591,
      "d": 566.4653437499946,
      "v": 50
    },
    {
      "midi": 57,
      "hit": false,
      "t": 176391.01398437578,
      "d": 377.64356249998673,
      "v": 33
    },
    {
      "midi": 69,
      "hit": false,
      "t": 177135.81101041744,
      "d": 807.7376197916456,
      "v": 73
    },
    {
      "midi": 57,
      "hit": false,
      "t": 177146.30110937578,
      "d": 902.1485104166495,
      "v": 49
    },
    {
      "midi": 48,
      "hit": false,
      "t": 177177.77140625077,
      "d": 2570.0742447917,
      "v": 48
    },
    {
      "midi": 72,
      "hit": false,
      "t": 178426.09318229242,
      "d": 503.5247500000114,
      "v": 102
    },
    {
      "midi": 57,
      "hit": false,
      "t": 179212.85060416744,
      "d": 1657.4356354167103,
      "v": 55
    },
    {
      "midi": 72,
      "hit": false,
      "t": 179233.83080208412,
      "d": 451.0742552083393,
      "v": 75
    },
    {
      "midi": 48,
      "hit": false,
      "t": 180419.2119843758,
      "d": 220.29207812499953,
      "v": 44
    },
    {
      "midi": 74,
      "hit": false,
      "t": 180450.6822812508,
      "d": 188.82178125000792,
      "v": 68
    },
    {
      "midi": 76,
      "hit": false,
      "t": 181153.51891145913,
      "d": 178.33168229166768,
      "v": 63
    },
    {
      "midi": 57,
      "hit": false,
      "t": 181184.98920833413,
      "d": 188.82178125000792,
      "v": 42
    },
    {
      "midi": 47,
      "hit": false,
      "t": 181184.98920833413,
      "d": 199.31188020834816,
      "v": 50
    },
    {
      "midi": 96,
      "hit": false,
      "t": 181887.82583854249,
      "d": 94.41089062500396,
      "v": 36
    },
    {
      "midi": 95,
      "hit": false,
      "t": 181919.29613541748,
      "d": 230.78217708336888,
      "v": 60
    },
    {
      "midi": 100,
      "hit": false,
      "t": 182013.70702604248,
      "d": 73.43069270835258,
      "v": 41
    },
    {
      "midi": 93,
      "hit": false,
      "t": 182066.15752083415,
      "d": 167.84158333335654,
      "v": 47
    },
    {
      "midi": 98,
      "hit": false,
      "t": 182129.09811458417,
      "d": 62.94059375001234,
      "v": 54
    },
    {
      "midi": 91,
      "hit": false,
      "t": 182160.5684114592,
      "d": 167.84158333335654,
      "v": 61
    },
    {
      "midi": 96,
      "hit": false,
      "t": 182202.52880729252,
      "d": 62.94059375001234,
      "v": 57
    },
    {
      "midi": 89,
      "hit": false,
      "t": 182254.9793020842,
      "d": 157.3514843750745,
      "v": 62
    },
    {
      "midi": 95,
      "hit": false,
      "t": 182307.42979687586,
      "d": 62.940593750041444,
      "v": 58
    },
    {
      "midi": 88,
      "hit": false,
      "t": 182349.39019270922,
      "d": 146.86138541670516,
      "v": 63
    },
    {
      "midi": 93,
      "hit": false,
      "t": 182391.35058854258,
      "d": 52.4504947916721,
      "v": 63
    },
    {
      "midi": 86,
      "hit": false,
      "t": 182443.80108333426,
      "d": 125.88118750002468,
      "v": 58
    },
    {
      "midi": 91,
      "hit": false,
      "t": 182485.7614791676,
      "d": 62.94059375001234,
      "v": 67
    },
    {
      "midi": 84,
      "hit": false,
      "t": 182527.72187500092,
      "d": 146.86138541670516,
      "v": 48
    },
    {
      "midi": 89,
      "hit": false,
      "t": 182559.19217187594,
      "d": 62.94059375001234,
      "v": 63
    },
    {
      "midi": 83,
      "hit": false,
      "t": 182611.6426666676,
      "d": 157.3514843750454,
      "v": 49
    },
    {
      "midi": 88,
      "hit": false,
      "t": 182653.60306250094,
      "d": 94.41089062503306,
      "v": 60
    },
    {
      "midi": 81,
      "hit": false,
      "t": 182685.07335937597,
      "d": 178.33168229169678,
      "v": 48
    },
    {
      "midi": 86,
      "hit": false,
      "t": 182737.52385416764,
      "d": 52.4504947917012,
      "v": 58
    },
    {
      "midi": 79,
      "hit": false,
      "t": 182779.484250001,
      "d": 178.33168229169678,
      "v": 50
    },
    {
      "midi": 84,
      "hit": false,
      "t": 182831.93474479267,
      "d": 73.43069270835258,
      "v": 57
    },
    {
      "midi": 77,
      "hit": false,
      "t": 182884.38523958434,
      "d": 157.3514843750454,
      "v": 47
    },
    {
      "midi": 83,
      "hit": false,
      "t": 182926.3456354177,
      "d": 73.43069270832348,
      "v": 54
    },
    {
      "midi": 76,
      "hit": false,
      "t": 182957.8159322927,
      "d": 178.33168229169678,
      "v": 51
    },
    {
      "midi": 81,
      "hit": false,
      "t": 183020.7565260427,
      "d": 62.94059375001234,
      "v": 52
    },
    {
      "midi": 74,
      "hit": false,
      "t": 183083.69711979272,
      "d": 146.86138541667606,
      "v": 42
    },
    {
      "midi": 79,
      "hit": false,
      "t": 183125.65751562605,
      "d": 62.94059375001234,
      "v": 55
    },
    {
      "midi": 72,
      "hit": false,
      "t": 183167.61791145938,
      "d": 146.86138541670516,
      "v": 46
    },
    {
      "midi": 77,
      "hit": false,
      "t": 183220.06840625106,
      "d": 52.4504947917012,
      "v": 51
    },
    {
      "midi": 71,
      "hit": false,
      "t": 183251.53870312608,
      "d": 167.84158333335654,
      "v": 48
    },
    {
      "midi": 76,
      "hit": false,
      "t": 183303.98919791775,
      "d": 62.94059375001234,
      "v": 56
    },
    {
      "midi": 69,
      "hit": false,
      "t": 183356.43969270942,
      "d": 157.3514843750163,
      "v": 43
    },
    {
      "midi": 74,
      "hit": false,
      "t": 183408.8901875011,
      "d": 62.94059375001234,
      "v": 49
    },
    {
      "midi": 67,
      "hit": false,
      "t": 183461.34068229276,
      "d": 167.84158333335654,
      "v": 43
    },
    {
      "midi": 72,
      "hit": false,
      "t": 183513.79117708444,
      "d": 62.94059375001234,
      "v": 46
    },
    {
      "midi": 65,
      "hit": false,
      "t": 183566.2416718761,
      "d": 178.33168229169678,
      "v": 39
    },
    {
      "midi": 71,
      "hit": false,
      "t": 183618.69216666778,
      "d": 62.94059375001234,
      "v": 48
    },
    {
      "midi": 64,
      "hit": false,
      "t": 183681.6327604178,
      "d": 199.31188020834816,
      "v": 36
    },
    {
      "midi": 69,
      "hit": false,
      "t": 183734.08325520947,
      "d": 62.94059375001234,
      "v": 45
    },
    {
      "midi": 62,
      "hit": false,
      "t": 183807.51394791782,
      "d": 199.31188020831905,
      "v": 33
    },
    {
      "midi": 67,
      "hit": false,
      "t": 183849.47434375115,
      "d": 73.43069270832348,
      "v": 46
    },
    {
      "midi": 60,
      "hit": false,
      "t": 183933.3951354178,
      "d": 209.8019791666884,
      "v": 33
    },
    {
      "midi": 65,
      "hit": false,
      "t": 184017.31592708448,
      "d": 83.92079166669282,
      "v": 31
    },
    {
      "midi": 59,
      "hit": false,
      "t": 184080.2565208345,
      "d": 220.29207812499953,
      "v": 31
    },
    {
      "midi": 64,
      "hit": false,
      "t": 184111.7268177095,
      "d": 83.92079166666372,
      "v": 39
    },
    {
      "midi": 57,
      "hit": false,
      "t": 184227.11790625117,
      "d": 230.78217708333977,
      "v": 26
    },
    {
      "midi": 62,
      "hit": false,
      "t": 184321.52879687617,
      "d": 94.41089062500396,
      "v": 29
    },
    {
      "midi": 55,
      "hit": false,
      "t": 184405.44958854283,
      "d": 188.8217812499788,
      "v": 31
    },
    {
      "midi": 53,
      "hit": false,
      "t": 184531.33077604283,
      "d": 367.1534635416465,
      "v": 51
    },
    {
      "midi": 59,
      "hit": false,
      "t": 184562.80107291782,
      "d": 251.76237499999115,
      "v": 1
    },
    {
      "midi": 52,
      "hit": false,
      "t": 184846.0337447928,
      "d": 94.41089062500396,
      "v": 4
    },
    {
      "midi": 40,
      "hit": false,
      "t": 184929.95453645947,
      "d": 618.9158385416667,
      "v": 78
    },
    {
      "midi": 33,
      "hit": false,
      "t": 185548.87037500113,
      "d": 681.8564322916791,
      "v": 86
    },
    {
      "midi": 61,
      "hit": false,
      "t": 187374.14759375114,
      "d": 1709.8861302083824,
      "v": 78
    },
    {
      "midi": 72,
      "hit": false,
      "t": 187384.63769270948,
      "d": 1458.1237552083621,
      "v": 83
    },
    {
      "midi": 65,
      "hit": false,
      "t": 187395.12779166782,
      "d": 1049.0098958333547,
      "v": 86
    },
    {
      "midi": 69,
      "hit": false,
      "t": 187395.12779166782,
      "d": 1395.1831614583498,
      "v": 81
    },
    {
      "midi": 55,
      "hit": false,
      "t": 187405.61789062616,
      "d": 1300.7722708333458,
      "v": 66
    },
    {
      "midi": 74,
      "hit": false,
      "t": 189430.20698958452,
      "d": 3157.519786458375,
      "v": 78
    },
    {
      "midi": 60,
      "hit": false,
      "t": 189451.1871875012,
      "d": 849.6980156250356,
      "v": 63
    },
    {
      "midi": 64,
      "hit": false,
      "t": 189451.1871875012,
      "d": 3031.6385989583796,
      "v": 72
    },
    {
      "midi": 68,
      "hit": false,
      "t": 189451.1871875012,
      "d": 3136.5395885416947,
      "v": 65
    },
    {
      "midi": 71,
      "hit": false,
      "t": 189461.67728645954,
      "d": 3094.579192708363,
      "v": 63
    },
    {
      "midi": 54,
      "hit": false,
      "t": 189482.65748437622,
      "d": 923.1287083333591,
      "v": 57
    },
    {
      "midi": 26,
      "hit": false,
      "t": 191433.81589062625,
      "d": 996.5594010416535,
      "v": 85
    },
    {
      "midi": 38,
      "hit": false,
      "t": 191433.81589062625,
      "d": 1038.5197968749853,
      "v": 85
    },
    {
      "midi": 58,
      "hit": false,
      "t": 193447.9148906262,
      "d": 1049.0098958333256,
      "v": 89
    },
    {
      "midi": 62,
      "hit": false,
      "t": 193447.9148906262,
      "d": 1153.9108854166698,
      "v": 82
    },
    {
      "midi": 57,
      "hit": false,
      "t": 193458.40498958455,
      "d": 839.2079166666663,
      "v": 85
    },
    {
      "midi": 43,
      "hit": false,
      "t": 193458.40498958455,
      "d": 870.6782135416579,
      "v": 73
    },
    {
      "midi": 53,
      "hit": false,
      "t": 193458.40498958455,
      "d": 954.5990052083216,
      "v": 75
    },
    {
      "midi": 62,
      "hit": false,
      "t": 195472.50398958454,
      "d": 639.8960364583472,
      "v": 46
    },
    {
      "midi": 58,
      "hit": false,
      "t": 195482.99408854288,
      "d": 702.8366302083305,
      "v": 48
    },
    {
      "midi": 57,
      "hit": false,
      "t": 195482.99408854288,
      "d": 755.2871250000026,
      "v": 43
    },
    {
      "midi": 72,
      "hit": false,
      "t": 195944.55844270956,
      "d": 73.43069270832348,
      "v": 49
    },
    {
      "midi": 81,
      "hit": false,
      "t": 196269.75151041787,
      "d": 157.3514843749872,
      "v": 92
    },
    {
      "midi": 84,
      "hit": false,
      "t": 196511.02378645953,
      "d": 251.76237499999115,
      "v": 77
    },
    {
      "midi": 81,
      "hit": false,
      "t": 196710.33566666784,
      "d": 83.92079166666372,
      "v": 47
    },
    {
      "midi": 77,
      "hit": false,
      "t": 196825.7267552095,
      "d": 52.4504947916721,
      "v": 64
    },
    {
      "midi": 72,
      "hit": false,
      "t": 196983.07823958452,
      "d": 62.94059375001234,
      "v": 60
    },
    {
      "midi": 71,
      "hit": false,
      "t": 197182.39011979286,
      "d": 157.3514843750163,
      "v": 68
    },
    {
      "midi": 46,
      "hit": false,
      "t": 197203.37031770954,
      "d": 73.43069270832348,
      "v": 27
    },
    {
      "midi": 47,
      "hit": false,
      "t": 197339.74160416788,
      "d": 73.43069270832348,
      "v": 25
    },
    {
      "midi": 48,
      "hit": false,
      "t": 197339.74160416788,
      "d": 2769.3861250000773,
      "v": 48
    },
    {
      "midi": 65,
      "hit": false,
      "t": 197434.15249479288,
      "d": 115.39108854165534,
      "v": 66
    },
    {
      "midi": 70,
      "hit": false,
      "t": 197654.44457291788,
      "d": 272.74257291667163,
      "v": 74
    },
    {
      "midi": 74,
      "hit": false,
      "t": 197664.93467187622,
      "d": 230.78217708333977,
      "v": 72
    },
    {
      "midi": 65,
      "hit": false,
      "t": 198042.5782343762,
      "d": 146.86138541667606,
      "v": 71
    },
    {
      "midi": 68,
      "hit": false,
      "t": 198336.30100520956,
      "d": 230.78217708333977,
      "v": 63
    },
    {
      "midi": 72,
      "hit": false,
      "t": 198388.75150000124,
      "d": 335.68316666665487,
      "v": 53
    },
    {
      "midi": 69,
      "hit": false,
      "t": 198567.0831822929,
      "d": 178.33168229166768,
      "v": 60
    },
    {
      "midi": 65,
      "hit": false,
      "t": 198745.41486458457,
      "d": 73.43069270832348,
      "v": 50
    },
    {
      "midi": 60,
      "hit": false,
      "t": 198923.74654687624,
      "d": 136.37128645833582,
      "v": 67
    },
    {
      "midi": 43,
      "hit": false,
      "t": 198955.21684375123,
      "d": 314.7029687500326,
      "v": 37
    },
    {
      "midi": 59,
      "hit": false,
      "t": 199144.03862500124,
      "d": 188.82178125003702,
      "v": 61
    },
    {
      "midi": 65,
      "hit": false,
      "t": 199206.97921875125,
      "d": 325.19306770834373,
      "v": 75
    },
    {
      "midi": 36,
      "hit": false,
      "t": 199280.4099114596,
      "d": 618.9158385416667,
      "v": 56
    },
    {
      "midi": 53,
      "hit": false,
      "t": 199647.56337500125,
      "d": 62.94059375001234,
      "v": 61
    },
    {
      "midi": 58,
      "hit": false,
      "t": 199909.8158489596,
      "d": 409.11385937503655,
      "v": 81
    },
    {
      "midi": 65,
      "hit": false,
      "t": 199941.2861458346,
      "d": 188.82178125003702,
      "v": 59
    },
    {
      "midi": 39,
      "hit": false,
      "t": 199962.26634375128,
      "d": 723.81682812504,
      "v": 61
    },
    {
      "midi": 53,
      "hit": false,
      "t": 200381.87030208466,
      "d": 73.43069270832348,
      "v": 61
    },
    {
      "midi": 56,
      "hit": false,
      "t": 200644.122776043,
      "d": 314.7029687500035,
      "v": 72
    },
    {
      "midi": 62,
      "hit": false,
      "t": 200675.59307291798,
      "d": 241.27227604168002,
      "v": 58
    },
    {
      "midi": 40,
      "hit": false,
      "t": 200696.57327083466,
      "d": 765.7772239583719,
      "v": 58
    },
    {
      "midi": 56,
      "hit": false,
      "t": 201063.72673437634,
      "d": 461.56435416670865,
      "v": 82
    },
    {
      "midi": 62,
      "hit": false,
      "t": 201084.70693229302,
      "d": 157.3514843749872,
      "v": 72
    },
    {
      "midi": 62,
      "hit": false,
      "t": 201346.95940625135,
      "d": 744.7970260417205,
      "v": 36
    },
    {
      "midi": 41,
      "hit": false,
      "t": 201441.37029687635,
      "d": 1174.8910833333794,
      "v": 52
    },
    {
      "midi": 57,
      "hit": false,
      "t": 201525.29108854305,
      "d": 503.5247500000114,
      "v": 65
    },
    {
      "midi": 29,
      "hit": false,
      "t": 201986.85544270973,
      "d": 503.5247500000114,
      "v": 52
    },
    {
      "midi": 53,
      "hit": false,
      "t": 202028.81583854306,
      "d": 912.6386093750189,
      "v": 57
    },
    {
      "midi": 48,
      "hit": false,
      "t": 203277.13761458473,
      "d": 136.37128645833582,
      "v": 51
    },
    {
      "midi": 58,
      "hit": false,
      "t": 203413.50890104307,
      "d": 1080.4801927083463,
      "v": 70
    },
    {
      "midi": 65,
      "hit": false,
      "t": 203423.9990000014,
      "d": 881.1683124999981,
      "v": 60
    },
    {
      "midi": 41,
      "hit": false,
      "t": 203423.9990000014,
      "d": 1059.4999947916658,
      "v": 49
    },
    {
      "midi": 50,
      "hit": false,
      "t": 203434.48909895975,
      "d": 1122.4405885416782,
      "v": 53
    },
    {
      "midi": 57,
      "hit": false,
      "t": 204588.39998437642,
      "d": 503.5247500000114,
      "v": 56
    },
    {
      "midi": 41,
      "hit": false,
      "t": 204598.89008333476,
      "d": 902.1485104167077,
      "v": 38
    },
    {
      "midi": 65,
      "hit": false,
      "t": 204609.3801822931,
      "d": 566.4653437500237,
      "v": 42
    },
    {
      "midi": 48,
      "hit": false,
      "t": 204630.36038020978,
      "d": 482.5445520833309,
      "v": 49
    },
    {
      "midi": 48,
      "hit": false,
      "t": 205364.66730729313,
      "d": 230.78217708333977,
      "v": 50
    },
    {
      "midi": 68,
      "hit": false,
      "t": 206707.3999739598,
      "d": 146.86138541664695,
      "v": 66
    },
    {
      "midi": 72,
      "hit": false,
      "t": 206707.3999739598,
      "d": 440.58415624999907,
      "v": 61
    },
    {
      "midi": 65,
      "hit": false,
      "t": 206738.8702708348,
      "d": 388.13366145832697,
      "v": 37
    },
    {
      "midi": 60,
      "hit": false,
      "t": 206770.3405677098,
      "d": 115.39108854165534,
      "v": 48
    },
    {
      "midi": 69,
      "hit": false,
      "t": 206843.7712604181,
      "d": 220.29207812499953,
      "v": 56
    },
    {
      "midi": 58,
      "hit": false,
      "t": 207357.7861093765,
      "d": 576.955442708364,
      "v": 64
    },
    {
      "midi": 74,
      "hit": false,
      "t": 207378.76630729318,
      "d": 367.1534635416756,
      "v": 81
    },
    {
      "midi": 70,
      "hit": false,
      "t": 207378.76630729318,
      "d": 503.5247500000114,
      "v": 77
    },
    {
      "midi": 65,
      "hit": false,
      "t": 207389.25640625152,
      "d": 482.5445520833309,
      "v": 75
    },
    {
      "midi": 72,
      "hit": false,
      "t": 208008.1722447932,
      "d": 461.56435416665045,
      "v": 66
    },
    {
      "midi": 57,
      "hit": false,
      "t": 208039.6425416682,
      "d": 545.4851458333142,
      "v": 62
    },
    {
      "midi": 53,
      "hit": false,
      "t": 208616.5979843765,
      "d": 52.4504947916721,
      "v": 59
    },
    {
      "midi": 65,
      "hit": false,
      "t": 208658.55838020984,
      "d": 199.31188020834816,
      "v": 61
    },
    {
      "midi": 69,
      "hit": false,
      "t": 208669.04847916818,
      "d": 136.37128645833582,
      "v": 52
    },
    {
      "midi": 60,
      "hit": false,
      "t": 208669.04847916818,
      "d": 251.76237500002026,
      "v": 52
    },
    {
      "midi": 45,
      "hit": false,
      "t": 210074.72173958487,
      "d": 702.8366302083596,
      "v": 71
    },
    {
      "midi": 55,
      "hit": false,
      "t": 210714.61777604322,
      "d": 157.3514843750163,
      "v": 66
    },
    {
      "midi": 60,
      "hit": false,
      "t": 211396.4742083349,
      "d": 692.3465312500193,
      "v": 66
    },
    {
      "midi": 65,
      "hit": false,
      "t": 211417.45440625158,
      "d": 1038.5197968750144,
      "v": 73
    },
    {
      "midi": 61,
      "hit": false,
      "t": 211417.45440625158,
      "d": 1153.9108854166989,
      "v": 68
    },
    {
      "midi": 69,
      "hit": false,
      "t": 211427.94450520992,
      "d": 755.2871250000026,
      "v": 69
    },
    {
      "midi": 72,
      "hit": false,
      "t": 212025.8801458349,
      "d": 440.5841562500282,
      "v": 81
    },
    {
      "midi": 58,
      "hit": false,
      "t": 212078.33064062658,
      "d": 681.8564322917373,
      "v": 64
    },
    {
      "midi": 61,
      "hit": false,
      "t": 212718.22667708495,
      "d": 2024.5890989583568,
      "v": 82
    },
    {
      "midi": 70,
      "hit": false,
      "t": 212739.20687500163,
      "d": 1049.0098958333547,
      "v": 77
    },
    {
      "midi": 64,
      "hit": false,
      "t": 212770.67717187665,
      "d": 1090.9702916666574,
      "v": 74
    },
    {
      "midi": 57,
      "hit": false,
      "t": 212770.67717187665,
      "d": 1185.3811822916614,
      "v": 58
    },
    {
      "midi": 45,
      "hit": false,
      "t": 213956.05835416832,
      "d": 493.03465104167117,
      "v": 71
    },
    {
      "midi": 45,
      "hit": false,
      "t": 214711.34547916832,
      "d": 881.1683124999981,
      "v": 65
    },
    {
      "midi": 58,
      "hit": false,
      "t": 215361.73161458498,
      "d": 1185.3811822916905,
      "v": 70
    },
    {
      "midi": 67,
      "hit": false,
      "t": 215372.22171354332,
      "d": 1101.4603906250268,
      "v": 66
    },
    {
      "midi": 61,
      "hit": false,
      "t": 215372.22171354332,
      "d": 1290.2821718750056,
      "v": 60
    },
    {
      "midi": 55,
      "hit": false,
      "t": 215382.71181250166,
      "d": 702.8366302083305,
      "v": 71
    },
    {
      "midi": 64,
      "hit": false,
      "t": 215456.14250520998,
      "d": 744.7970260416914,
      "v": 38
    },
    {
      "midi": 45,
      "hit": false,
      "t": 216106.52864062667,
      "d": 157.3514843750163,
      "v": 50
    },
    {
      "midi": 39,
      "hit": false,
      "t": 216693.97418229334,
      "d": 482.5445520833309,
      "v": 57
    },
    {
      "midi": 60,
      "hit": false,
      "t": 217438.771208335,
      "d": 482.54455208336003,
      "v": 57
    },
    {
      "midi": 53,
      "hit": false,
      "t": 217449.26130729335,
      "d": 325.19306770834373,
      "v": 41
    },
    {
      "midi": 45,
      "hit": false,
      "t": 217449.26130729335,
      "d": 692.3465312500193,
      "v": 43
    },
    {
      "midi": 65,
      "hit": false,
      "t": 217459.7514062517,
      "d": 545.4851458333433,
      "v": 46
    },
    {
      "midi": 38,
      "hit": false,
      "t": 217459.7514062517,
      "d": 629.405937500007,
      "v": 51
    },
    {
      "midi": 62,
      "hit": false,
      "t": 219526.30090104337,
      "d": 639.8960364583472,
      "v": 39
    },
    {
      "midi": 50,
      "hit": false,
      "t": 219536.79100000171,
      "d": 1101.4603906250268,
      "v": 36
    },
    {
      "midi": 57,
      "hit": false,
      "t": 219547.28109896005,
      "d": 933.6188072916702,
      "v": 43
    },
    {
      "midi": 69,
      "hit": false,
      "t": 220113.74644271005,
      "d": 73.43069270835258,
      "v": 52
    },
    {
      "midi": 74,
      "hit": false,
      "t": 220585.80089583507,
      "d": 115.39108854168444,
      "v": 73
    },
    {
      "midi": 76,
      "hit": false,
      "t": 220879.52366666842,
      "d": 178.33168229166768,
      "v": 83
    },
    {
      "midi": 77,
      "hit": false,
      "t": 221204.71673437677,
      "d": 178.33168229166768,
      "v": 85
    },
    {
      "midi": 79,
      "hit": false,
      "t": 221540.39990104345,
      "d": 220.29207812502864,
      "v": 85
    },
    {
      "midi": 57,
      "hit": false,
      "t": 221634.81079166845,
      "d": 1646.945536458341,
      "v": 48
    },
    {
      "midi": 48,
      "hit": false,
      "t": 221655.79098958513,
      "d": 2727.425729166658,
      "v": 43
    },
    {
      "midi": 79,
      "hit": false,
      "t": 222022.9444531268,
      "d": 346.1732656249951,
      "v": 56
    },
    {
      "midi": 80,
      "hit": false,
      "t": 222180.2959375018,
      "d": 52.4504947916721,
      "v": 64
    },
    {
      "midi": 81,
      "hit": false,
      "t": 222274.7068281268,
      "d": 209.8019791666593,
      "v": 74
    },
    {
      "midi": 86,
      "hit": false,
      "t": 222620.8800937518,
      "d": 503.5247500000114,
      "v": 98
    },
    {
      "midi": 81,
      "hit": false,
      "t": 223722.3404843768,
      "d": 2014.0989999999874,
      "v": 66
    },
    {
      "midi": 57,
      "hit": false,
      "t": 223753.81078125178,
      "d": 1416.1633593750012,
      "v": 37
    },
    {
      "midi": 48,
      "hit": false,
      "t": 224918.2117656268,
      "d": 325.19306770831463,
      "v": 47
    },
    {
      "midi": 55,
      "hit": false,
      "t": 225663.00879166843,
      "d": 1521.0643489583454,
      "v": 39
    },
    {
      "midi": 47,
      "hit": false,
      "t": 225683.9889895851,
      "d": 3199.480182291649,
      "v": 39
    },
    {
      "midi": 69,
      "hit": false,
      "t": 226890.35036979345,
      "d": 335.68316666665487,
      "v": 46
    },
    {
      "midi": 74,
      "hit": false,
      "t": 227393.87511979343,
      "d": 209.8019791666593,
      "v": 63
    },
    {
      "midi": 76,
      "hit": false,
      "t": 227740.04838541843,
      "d": 283.2326718750119,
      "v": 81
    },
    {
      "midi": 55,
      "hit": false,
      "t": 227750.53848437677,
      "d": 1321.7524687499972,
      "v": 45
    },
    {
      "midi": 77,
      "hit": false,
      "t": 228107.2018489601,
      "d": 262.2524739583314,
      "v": 81
    },
    {
      "midi": 79,
      "hit": false,
      "t": 228484.8454114601,
      "d": 293.722770833323,
      "v": 82
    },
    {
      "midi": 81,
      "hit": false,
      "t": 228883.46917187676,
      "d": 272.74257291667163,
      "v": 81
    },
    {
      "midi": 84,
      "hit": false,
      "t": 229376.50382291843,
      "d": 472.0544531249907,
      "v": 96
    },
    {
      "midi": 46,
      "hit": false,
      "t": 229754.14738541842,
      "d": 2811.346520833322,
      "v": 51
    },
    {
      "midi": 57,
      "hit": false,
      "t": 229764.63748437676,
      "d": 671.3663333333388,
      "v": 48
    },
    {
      "midi": 81,
      "hit": false,
      "t": 230037.38005729343,
      "d": 356.66336458333535,
      "v": 73
    },
    {
      "midi": 77,
      "hit": false,
      "t": 230477.96421354343,
      "d": 157.3514843749872,
      "v": 64
    },
    {
      "midi": 74,
      "hit": false,
      "t": 230970.99886458507,
      "d": 209.8019791666593,
      "v": 61
    },
    {
      "midi": 70,
      "hit": false,
      "t": 231380.11272396005,
      "d": 188.82178125000792,
      "v": 77
    },
    {
      "midi": 57,
      "hit": false,
      "t": 231768.24638541837,
      "d": 1258.811875000014,
      "v": 46
    },
    {
      "midi": 69,
      "hit": false,
      "t": 231862.65727604338,
      "d": 325.19306770834373,
      "v": 81
    },
    {
      "midi": 72,
      "hit": false,
      "t": 232324.22163021006,
      "d": 272.74257291667163,
      "v": 71
    },
    {
      "midi": 69,
      "hit": false,
      "t": 232806.7661822934,
      "d": 272.74257291667163,
      "v": 77
    },
    {
      "midi": 46,
      "hit": false,
      "t": 233289.31073437672,
      "d": 377.64356249998673,
      "v": 48
    },
    {
      "midi": 61,
      "hit": false,
      "t": 233320.7810312517,
      "d": 472.0544531249907,
      "v": 49
    },
    {
      "midi": 55,
      "hit": false,
      "t": 233845.28597916837,
      "d": 1153.9108854166698,
      "v": 32
    },
    {
      "midi": 45,
      "hit": false,
      "t": 233845.28597916837,
      "d": 2674.9752343750442,
      "v": 39
    },
    {
      "midi": 60,
      "hit": false,
      "t": 233855.7760781267,
      "d": 388.13366145832697,
      "v": 46
    },
    {
      "midi": 58,
      "hit": false,
      "t": 234348.81072916838,
      "d": 388.13366145832697,
      "v": 52
    },
    {
      "midi": 57,
      "hit": false,
      "t": 234799.88498437672,
      "d": 419.6039583333186,
      "v": 57
    },
    {
      "midi": 57,
      "hit": false,
      "t": 235313.89983333505,
      "d": 314.7029687500035,
      "v": 61
    },
    {
      "midi": 55,
      "hit": false,
      "t": 235806.93448437672,
      "d": 409.11385937500745,
      "v": 39
    },
    {
      "midi": 57,
      "hit": false,
      "t": 235806.93448437672,
      "d": 430.09405729168793,
      "v": 58
    },
    {
      "midi": 58,
      "hit": false,
      "t": 236299.96913541842,
      "d": 262.2524739583314,
      "v": 66
    },
    {
      "midi": 59,
      "hit": false,
      "t": 236730.06319271008,
      "d": 335.68316666665487,
      "v": 64
    },
    {
      "midi": 60,
      "hit": false,
      "t": 237181.1374479184,
      "d": 314.7029687500035,
      "v": 63
    },
    {
      "midi": 64,
      "hit": false,
      "t": 237653.1919010434,
      "d": 1584.004942708416,
      "v": 60
    },
    {
      "midi": 26,
      "hit": false,
      "t": 237663.68200000175,
      "d": 293.7227708333521,
      "v": 57
    },
    {
      "midi": 60,
      "hit": false,
      "t": 237674.1720989601,
      "d": 1447.633656250051,
      "v": 54
    },
    {
      "midi": 54,
      "hit": false,
      "t": 237674.1720989601,
      "d": 1510.5742500000633,
      "v": 57
    },
    {
      "midi": 57,
      "hit": false,
      "t": 237716.13249479342,
      "d": 1426.6534583333996,
      "v": 56
    },
    {
      "midi": 38,
      "hit": false,
      "t": 237726.62259375176,
      "d": 293.7227708333521,
      "v": 42
    },
    {
      "midi": 52,
      "hit": false,
      "t": 238303.57803646012,
      "d": 482.5445520833309,
      "v": 78
    },
    {
      "midi": 51,
      "hit": false,
      "t": 238880.53347916846,
      "d": 576.955442708364,
      "v": 74
    },
    {
      "midi": 54,
      "hit": false,
      "t": 239509.9394166685,
      "d": 1290.2821718750347,
      "v": 61
    },
    {
      "midi": 50,
      "hit": false,
      "t": 239520.42951562683,
      "d": 482.5445520833309,
      "v": 57
    },
    {
      "midi": 57,
      "hit": false,
      "t": 239530.91961458517,
      "d": 1174.8910833333503,
      "v": 62
    },
    {
      "midi": 60,
      "hit": false,
      "t": 239530.91961458517,
      "d": 1563.0247447917063,
      "v": 57
    },
    {
      "midi": 45,
      "hit": false,
      "t": 240181.30575000183,
      "d": 241.27227604168002,
      "v": 71
    },
    {
      "midi": 44,
      "hit": false,
      "t": 240821.2017864602,
      "d": 377.64356250001583,
      "v": 74
    },
    {
      "midi": 32,
      "hit": false,
      "t": 240831.69188541855,
      "d": 482.5445520833309,
      "v": 63
    },
    {
      "midi": 43,
      "hit": false,
      "t": 241555.50871354356,
      "d": 713.3267291666707,
      "v": 70
    },
    {
      "midi": 58,
      "hit": false,
      "t": 241565.9988125019,
      "d": 188.82178125000792,
      "v": 66
    },
    {
      "midi": 53,
      "hit": false,
      "t": 241576.48891146024,
      "d": 52.4504947916721,
      "v": 63
    },
    {
      "midi": 31,
      "hit": false,
      "t": 241576.48891146024,
      "d": 713.3267291666707,
      "v": 66
    },
    {
      "midi": 62,
      "hit": false,
      "t": 241586.97901041858,
      "d": 199.31188020831905,
      "v": 61
    },
    {
      "midi": 82,
      "hit": false,
      "t": 242919.22157812692,
      "d": 514.0148489583516,
      "v": 99
    },
    {
      "midi": 45,
      "hit": false,
      "t": 242919.22157812692,
      "d": 534.9950468750321,
      "v": 89
    },
    {
      "midi": 33,
      "hit": false,
      "t": 242929.71167708526,
      "d": 440.58415624999907,
      "v": 84
    },
    {
      "midi": 70,
      "hit": false,
      "t": 242929.71167708526,
      "d": 461.56435416667955,
      "v": 111
    },
    {
      "midi": 77,
      "hit": false,
      "t": 242940.2017760436,
      "d": 62.94059375001234,
      "v": 88
    },
    {
      "midi": 77,
      "hit": false,
      "t": 243076.57306250194,
      "d": 209.8019791666593,
      "v": 36
    },
    {
      "midi": 81,
      "hit": false,
      "t": 243632.54830729362,
      "d": 398.6237604166963,
      "v": 81
    },
    {
      "midi": 34,
      "hit": false,
      "t": 243643.03840625196,
      "d": 566.4653437500237,
      "v": 75
    },
    {
      "midi": 46,
      "hit": false,
      "t": 243653.5285052103,
      "d": 566.4653437500237,
      "v": 75
    },
    {
      "midi": 69,
      "hit": false,
      "t": 243674.50870312698,
      "d": 398.6237604166672,
      "v": 57
    },
    {
      "midi": 77,
      "hit": false,
      "t": 244356.36513541866,
      "d": 440.58415624999907,
      "v": 85
    },
    {
      "midi": 65,
      "hit": false,
      "t": 244408.81563021033,
      "d": 62.94059375001234,
      "v": 62
    },
    {
      "midi": 35,
      "hit": false,
      "t": 244901.850281252,
      "d": 283.2326718750119,
      "v": 51
    },
    {
      "midi": 47,
      "hit": false,
      "t": 244922.83047916868,
      "d": 451.0742552083393,
      "v": 49
    },
    {
      "midi": 74,
      "hit": false,
      "t": 244933.32057812702,
      "d": 356.66336458333535,
      "v": 61
    },
    {
      "midi": 48,
      "hit": false,
      "t": 245657.13740625203,
      "d": 419.6039583333477,
      "v": 51
    },
    {
      "midi": 65,
      "hit": false,
      "t": 245657.13740625203,
      "d": 776.267322916683,
      "v": 53
    },
    {
      "midi": 36,
      "hit": false,
      "t": 245667.62750521037,
      "d": 293.7227708333521,
      "v": 46
    },
    {
      "midi": 70,
      "hit": false,
      "t": 245667.62750521037,
      "d": 1489.5940520833537,
      "v": 46
    },
    {
      "midi": 74,
      "hit": false,
      "t": 245678.1176041687,
      "d": 1237.8316770833335,
      "v": 60
    },
    {
      "midi": 77,
      "hit": false,
      "t": 245678.1176041687,
      "d": 1353.222765625018,
      "v": 52
    },
    {
      "midi": 65,
      "hit": false,
      "t": 246968.39977604372,
      "d": 115.39108854168444,
      "v": 52
    },
    {
      "midi": 73,
      "hit": false,
      "t": 247650.2562083354,
      "d": 52.4504947916721,
      "v": 57
    },
    {
      "midi": 64,
      "hit": false,
      "t": 247681.7265052104,
      "d": 94.41089062500396,
      "v": 36
    },
    {
      "midi": 74,
      "hit": false,
      "t": 247786.62749479373,
      "d": 660.8762343750277,
      "v": 50
    },
    {
      "midi": 77,
      "hit": false,
      "t": 248384.56313541875,
      "d": 251.76237500002026,
      "v": 59
    },
    {
      "midi": 79,
      "hit": false,
      "t": 249055.92946875212,
      "d": 199.31188020831905,
      "v": 60
    },
    {
      "midi": 48,
      "hit": false,
      "t": 249727.29580208543,
      "d": 713.3267291666707,
      "v": 38
    },
    {
      "midi": 77,
      "hit": false,
      "t": 249737.78590104377,
      "d": 440.58415624999907,
      "v": 51
    },
    {
      "midi": 41,
      "hit": false,
      "t": 249748.2760000021,
      "d": 1353.2227656249888,
      "v": 39
    },
    {
      "midi": 57,
      "hit": false,
      "t": 249790.23639583544,
      "d": 639.8960364583181,
      "v": 34
    },
    {
      "midi": 72,
      "hit": false,
      "t": 249800.72649479378,
      "d": 440.58415624999907,
      "v": 36
    },
    {
      "midi": 65,
      "hit": false,
      "t": 249800.72649479378,
      "d": 597.9356406249863,
      "v": 24
    },
    {
      "midi": 48,
      "hit": false,
      "t": 251049.04827083542,
      "d": 639.8960364583472,
      "v": 43
    },
    {
      "midi": 65,
      "hit": false,
      "t": 251730.9047031271,
      "d": 1741.356427083345,
      "v": 50
    },
    {
      "midi": 57,
      "hit": false,
      "t": 251772.86509896044,
      "d": 1625.9653385416896,
      "v": 34
    },
    {
      "midi": 60,
      "hit": false,
      "t": 251783.35519791878,
      "d": 1741.356427083345,
      "v": 39
    },
    {
      "midi": 62,
      "hit": false,
      "t": 251793.84529687712,
      "d": 1772.8267239583365,
      "v": 34
    },
    {
      "midi": 53,
      "hit": false,
      "t": 252370.80073958545,
      "d": 902.1485104166786,
      "v": 63
    },
    {
      "midi": 52,
      "hit": false,
      "t": 253388.34033854379,
      "d": 125.88118749999558,
      "v": 32
    },
    {
      "midi": 51,
      "hit": false,
      "t": 253535.20172396046,
      "d": 251.76237499999115,
      "v": 60
    },
    {
      "midi": 50,
      "hit": false,
      "t": 253870.88489062712,
      "d": 409.11385937503655,
      "v": 47
    },
    {
      "midi": 60,
      "hit": false,
      "t": 253891.8650885438,
      "d": 3052.618796875002,
      "v": 57
    },
    {
      "midi": 65,
      "hit": false,
      "t": 253891.8650885438,
      "d": 3115.559390625014,
      "v": 46
    },
    {
      "midi": 54,
      "hit": false,
      "t": 253912.84528646048,
      "d": 3000.1683020833298,
      "v": 42
    },
    {
      "midi": 45,
      "hit": false,
      "t": 254374.40964062716,
      "d": 115.39108854165534,
      "v": 46
    },
    {
      "midi": 38,
      "hit": false,
      "t": 255003.81557812713,
      "d": 786.7574218749942,
      "v": 57
    },
    {
      "midi": 33,
      "hit": false,
      "t": 256315.0779479188,
      "d": 566.4653437500237,
      "v": 64
    },
    {
      "midi": 32,
      "hit": false,
      "t": 256986.44428125213,
      "d": 629.4059375000361,
      "v": 60
    },
    {
      "midi": 58,
      "hit": false,
      "t": 257731.24130729382,
      "d": 660.8762343749986,
      "v": 60
    },
    {
      "midi": 31,
      "hit": false,
      "t": 257741.73140625216,
      "d": 304.21286979166325,
      "v": 61
    },
    {
      "midi": 53,
      "hit": false,
      "t": 257752.2215052105,
      "d": 314.7029687500035,
      "v": 48
    },
    {
      "midi": 62,
      "hit": false,
      "t": 257762.71160416884,
      "d": 514.0148489583225,
      "v": 57
    },
    {
      "midi": 49,
      "hit": false,
      "t": 258958.58288541881,
      "d": 178.33168229166768,
      "v": 72
    },
    {
      "midi": 58,
      "hit": false,
      "t": 258990.0531822938,
      "d": 430.09405729168793,
      "v": 66
    },
    {
      "midi": 62,
      "hit": false,
      "t": 259032.01357812714,
      "d": 545.4851458333433,
      "v": 72
    },
    {
      "midi": 50,
      "hit": false,
      "t": 259157.89476562716,
      "d": 650.3861354166584,
      "v": 66
    },
    {
      "midi": 65,
      "hit": false,
      "t": 259682.3997135438,
      "d": 367.1534635417338,
      "v": 81
    },
    {
      "midi": 58,
      "hit": false,
      "t": 259692.88981250214,
      "d": 335.6831666667131,
      "v": 75
    },
    {
      "midi": 55,
      "hit": false,
      "t": 259724.36010937713,
      "d": 188.82178125003702,
      "v": 74
    },
    {
      "midi": 53,
      "hit": false,
      "t": 259734.85020833547,
      "d": 262.2524739583605,
      "v": 84
    },
    {
      "midi": 62,
      "hit": false,
      "t": 259755.83040625215,
      "d": 262.2524739583605,
      "v": 56
    },
    {
      "midi": 58,
      "hit": false,
      "t": 260930.72148958553,
      "d": 167.84158333332743,
      "v": 86
    },
    {
      "midi": 57,
      "hit": false,
      "t": 260941.21158854387,
      "d": 167.84158333332743,
      "v": 82
    },
    {
      "midi": 62,
      "hit": false,
      "t": 260941.21158854387,
      "d": 209.8019791666593,
      "v": 78
    },
    {
      "midi": 69,
      "hit": false,
      "t": 260941.21158854387,
      "d": 283.23267187498277,
      "v": 67
    },
    {
      "midi": 65,
      "hit": false,
      "t": 260972.68188541886,
      "d": 220.29207812499953,
      "v": 60
    },
    {
      "midi": 75,
      "hit": false,
      "t": 261727.96901041886,
      "d": 587.4455416667042,
      "v": 102
    },
    {
      "midi": 63,
      "hit": false,
      "t": 261738.4591093772,
      "d": 503.5247500000114,
      "v": 90
    },
    {
      "midi": 67,
      "hit": false,
      "t": 261738.4591093772,
      "d": 555.9752447916835,
      "v": 85
    },
    {
      "midi": 70,
      "hit": false,
      "t": 261738.4591093772,
      "d": 639.8960364583472,
      "v": 84
    },
    {
      "midi": 64,
      "hit": false,
      "t": 261748.94920833554,
      "d": 692.3465312500484,
      "v": 87
    },
    {
      "midi": 62,
      "hit": false,
      "t": 262420.3155416689,
      "d": 94.41089062503306,
      "v": 40
    },
    {
      "midi": 61,
      "hit": false,
      "t": 262504.23633333563,
      "d": 262.2524739583023,
      "v": 59
    },
    {
      "midi": 72,
      "hit": false,
      "t": 262735.01851041894,
      "d": 377.6435624999576,
      "v": 77
    },
    {
      "midi": 67,
      "hit": false,
      "t": 262745.50860937726,
      "d": 377.6435624999576,
      "v": 73
    },
    {
      "midi": 64,
      "hit": false,
      "t": 262766.48880729394,
      "d": 503.5247499999241,
      "v": 67
    },
    {
      "midi": 60,
      "hit": false,
      "t": 262776.97890625225,
      "d": 398.6237604166381,
      "v": 78
    },
    {
      "midi": 69,
      "hit": false,
      "t": 263773.53830729384,
      "d": 1311.2623697916279,
      "v": 73
    },
    {
      "midi": 58,
      "hit": false,
      "t": 263773.53830729384,
      "d": 1437.1435572915943,
      "v": 72
    },
    {
      "midi": 61,
      "hit": false,
      "t": 263794.5185052105,
      "d": 1426.653458333225,
      "v": 60
    },
    {
      "midi": 55,
      "hit": false,
      "t": 263825.9888020855,
      "d": 1468.613854166586,
      "v": 55
    },
    {
      "midi": 64,
      "hit": false,
      "t": 263836.4789010438,
      "d": 1311.2623697916279,
      "v": 50
    },
    {
      "midi": 80,
      "hit": false,
      "t": 266034.15463281464,
      "d": 68.18564322916791,
      "v": 39
    },
    {
      "midi": 57,
      "hit": false,
      "t": 266034.15463281464,
      "d": 194.0668307291926,
      "v": 54
    },
    {
      "midi": 48,
      "hit": false,
      "t": 266034.15463281464,
      "d": 236.02722656255355,
      "v": 49
    },
    {
      "midi": 41,
      "hit": false,
      "t": 266034.15463281464,
      "d": 246.5173255208647,
      "v": 46
    },
    {
      "midi": 81,
      "hit": false,
      "t": 266034.15463281464,
      "d": 257.0074244791758,
      "v": 82
    },
    {
      "midi": 84,
      "hit": false,
      "t": 266710.76601562713,
      "d": 115.39108854165534,
      "v": 66
    },
    {
      "midi": 86,
      "hit": false,
      "t": 266983.5085885438,
      "d": 587.445541666646,
      "v": 102
    },
    {
      "midi": 84,
      "hit": false,
      "t": 267896.1471979188,
      "d": 545.4851458332851,
      "v": 87
    },
    {
      "midi": 64,
      "hit": false,
      "t": 267927.6174947938,
      "d": 409.11385937500745,
      "v": 74
    },
    {
      "midi": 60,
      "hit": false,
      "t": 267938.1075937521,
      "d": 398.6237604166963,
      "v": 60
    },
    {
      "midi": 53,
      "hit": false,
      "t": 267938.1075937521,
      "d": 461.56435416667955,
      "v": 58
    },
    {
      "midi": 57,
      "hit": false,
      "t": 267959.0877916688,
      "d": 451.0742552083102,
      "v": 62
    },
    {
      "midi": 72,
      "hit": false,
      "t": 268609.4739270854,
      "d": 587.445541666646,
      "v": 59
    },
    {
      "midi": 72,
      "hit": false,
      "t": 269469.6620416687,
      "d": 356.66336458333535,
      "v": 54
    },
    {
      "midi": 41,
      "hit": false,
      "t": 269805.3452083354,
      "d": 1741.356427083374,
      "v": 42
    },
    {
      "midi": 48,
      "hit": false,
      "t": 269836.81550521037,
      "d": 2276.3514739582897,
      "v": 39
    },
    {
      "midi": 57,
      "hit": false,
      "t": 269889.26600000204,
      "d": 870.678213541687,
      "v": 41
    },
    {
      "midi": 60,
      "hit": false,
      "t": 270833.3749062521,
      "d": 472.0544531249907,
      "v": 63
    },
    {
      "midi": 62,
      "hit": false,
      "t": 271525.72143750207,
      "d": 125.88118750002468,
      "v": 49
    },
    {
      "midi": 65,
      "hit": false,
      "t": 271829.93430729373,
      "d": 587.4455416665878,
      "v": 84
    },
    {
      "midi": 57,
      "hit": false,
      "t": 271840.42440625204,
      "d": 923.1287083332427,
      "v": 68
    },
    {
      "midi": 60,
      "hit": false,
      "t": 271871.89470312704,
      "d": 430.0940572916297,
      "v": 75
    },
    {
      "midi": 62,
      "hit": false,
      "t": 271934.835296877,
      "d": 723.8168281249818,
      "v": 34
    },
    {
      "midi": 60,
      "hit": false,
      "t": 272522.28083854367,
      "d": 230.78217708331067,
      "v": 72
    },
    {
      "midi": 67,
      "hit": false,
      "t": 272522.28083854367,
      "d": 902.1485104166204,
      "v": 78
    },
    {
      "midi": 65,
      "hit": false,
      "t": 272836.98380729364,
      "d": 230.78217708331067,
      "v": 61
    },
    {
      "midi": 48,
      "hit": false,
      "t": 272868.45410416863,
      "d": 744.7970260417205,
      "v": 54
    },
    {
      "midi": 58,
      "hit": false,
      "t": 273539.820437502,
      "d": 1290.2821718750056,
      "v": 81
    },
    {
      "midi": 69,
      "hit": false,
      "t": 273560.8006354187,
      "d": 1090.9702916666865,
      "v": 82
    },
    {
      "midi": 62,
      "hit": false,
      "t": 273560.8006354187,
      "d": 1416.1633593750303,
      "v": 72
    },
    {
      "midi": 64,
      "hit": false,
      "t": 273581.78083333536,
      "d": 1300.7722708333167,
      "v": 68
    },
    {
      "midi": 52,
      "hit": false,
      "t": 273602.76103125204,
      "d": 1195.8712812499725,
      "v": 63
    },
    {
      "midi": 67,
      "hit": false,
      "t": 274955.98379687703,
      "d": 251.76237499999115,
      "v": 63
    },
    {
      "midi": 58,
      "hit": false,
      "t": 274976.9639947937,
      "d": 94.41089062497485,
      "v": 36
    },
    {
      "midi": 72,
      "hit": false,
      "t": 275942.0530989604,
      "d": 755.2871249999735,
      "v": 81
    },
    {
      "midi": 65,
      "hit": false,
      "t": 275942.0530989604,
      "d": 1227.3415781249641,
      "v": 83
    },
    {
      "midi": 61,
      "hit": false,
      "t": 275942.0530989604,
      "d": 1353.2227656249888,
      "v": 88
    },
    {
      "midi": 60,
      "hit": false,
      "t": 275952.5431979187,
      "d": 996.5594010416535,
      "v": 87
    },
    {
      "midi": 67,
      "hit": false,
      "t": 276004.99369271036,
      "d": 797.2475208333344,
      "v": 45
    },
    {
      "midi": 58,
      "hit": false,
      "t": 276896.65210416866,
      "d": 188.82178125000792,
      "v": 64
    },
    {
      "midi": 70,
      "hit": false,
      "t": 276896.65210416866,
      "d": 314.7029687500326,
      "v": 71
    },
    {
      "midi": 58,
      "hit": false,
      "t": 277924.68180208537,
      "d": 1017.5395989583922,
      "v": 58
    },
    {
      "midi": 61,
      "hit": false,
      "t": 277924.68180208537,
      "d": 1122.4405885417364,
      "v": 58
    },
    {
      "midi": 69,
      "hit": false,
      "t": 277945.66200000205,
      "d": 786.7574218750233,
      "v": 57
    },
    {
      "midi": 64,
      "hit": false,
      "t": 277977.13229687704,
      "d": 923.1287083333591,
      "v": 54
    },
    {
      "midi": 55,
      "hit": false,
      "t": 277977.13229687704,
      "d": 1038.5197968750726,
      "v": 52
    },
    {
      "midi": 45,
      "hit": false,
      "t": 278008.60259375203,
      "d": 881.1683125000563,
      "v": 39
    },
    {
      "midi": 67,
      "hit": false,
      "t": 278994.67189583543,
      "d": 304.21286979166325,
      "v": 49
    },
    {
      "midi": 64,
      "hit": false,
      "t": 280064.66198958544,
      "d": 62.940593749983236,
      "v": 68
    },
    {
      "midi": 61,
      "hit": false,
      "t": 280085.6421875021,
      "d": 73.43069270829437,
      "v": 48
    },
    {
      "midi": 58,
      "hit": false,
      "t": 280096.13228646043,
      "d": 104.9009895833442,
      "v": 45
    },
    {
      "midi": 75,
      "hit": false,
      "t": 280683.57782812713,
      "d": 209.8019791666884,
      "v": 85
    },
    {
      "midi": 76,
      "hit": false,
      "t": 281019.26099479385,
      "d": 335.68316666665487,
      "v": 81
    },
    {
      "midi": 77,
      "hit": false,
      "t": 281292.0035677105,
      "d": 230.78217708331067,
      "v": 72
    },
    {
      "midi": 79,
      "hit": false,
      "t": 281606.7065364605,
      "d": 230.78217708336888,
      "v": 117
    },
    {
      "midi": 38,
      "hit": false,
      "t": 281910.9194062522,
      "d": 356.66336458339356,
      "v": 48
    },
    {
      "midi": 77,
      "hit": false,
      "t": 281931.8996041689,
      "d": 576.9554427083349,
      "v": 76
    },
    {
      "midi": 45,
      "hit": false,
      "t": 281952.8798020856,
      "d": 461.56435416667955,
      "v": 39
    },
    {
      "midi": 53,
      "hit": false,
      "t": 281963.3699010439,
      "d": 608.4257395833265,
      "v": 45
    },
    {
      "midi": 69,
      "hit": false,
      "t": 282571.7956406272,
      "d": 188.82178125000792,
      "v": 64
    },
    {
      "midi": 65,
      "hit": false,
      "t": 283568.35504166887,
      "d": 62.940593749983236,
      "v": 61
    },
    {
      "midi": 67,
      "hit": false,
      "t": 283904.0382083355,
      "d": 283.232671875041,
      "v": 102
    },
    {
      "midi": 62,
      "hit": false,
      "t": 283925.0184062522,
      "d": 356.66336458339356,
      "v": 57
    },
    {
      "midi": 74,
      "hit": false,
      "t": 283925.0184062522,
      "d": 597.9356406250736,
      "v": 86
    },
    {
      "midi": 68,
      "hit": false,
      "t": 284208.25107812724,
      "d": 325.19306770834373,
      "v": 58
    },
    {
      "midi": 67,
      "hit": false,
      "t": 284365.60256250226,
      "d": 272.74257291667163,
      "v": 48
    },
    {
      "midi": 65,
      "hit": false,
      "t": 284648.83523437724,
      "d": 178.33168229163857,
      "v": 63
    },
    {
      "midi": 67,
      "hit": false,
      "t": 284932.0679062522,
      "d": 493.03465104167117,
      "v": 81
    },
    {
      "midi": 74,
      "hit": false,
      "t": 284932.0679062522,
      "d": 723.8168281249818,
      "v": 82
    },
    {
      "midi": 74,
      "hit": false,
      "t": 285960.09760416887,
      "d": 472.0544531250489,
      "v": 51
    },
    {
      "midi": 67,
      "hit": false,
      "t": 285960.09760416887,
      "d": 776.2673229167704,
      "v": 77
    },
    {
      "midi": 57,
      "hit": false,
      "t": 285981.07780208555,
      "d": 1468.6138541667606,
      "v": 51
    },
    {
      "midi": 48,
      "hit": false,
      "t": 286023.0381979189,
      "d": 2653.9950364583638,
      "v": 45
    },
    {
      "midi": 62,
      "hit": false,
      "t": 286694.4045312523,
      "d": 797.2475208333926,
      "v": 53
    },
    {
      "midi": 65,
      "hit": false,
      "t": 287669.9837343773,
      "d": 566.4653437499655,
      "v": 68
    },
    {
      "midi": 57,
      "hit": false,
      "t": 288058.11739583564,
      "d": 1772.8267239583074,
      "v": 40
    },
    {
      "midi": 48,
      "hit": false,
      "t": 289023.2065000023,
      "d": 807.7376197916456,
      "v": 68
    },
    {
      "midi": 85,
      "hit": false,
      "t": 289977.8055052106,
      "d": 262.2524739583023,
      "v": 99
    },
    {
      "midi": 82,
      "hit": false,
      "t": 290009.2758020856,
      "d": 251.76237499999115,
      "v": 90
    },
    {
      "midi": 55,
      "hit": false,
      "t": 290030.25600000226,
      "d": 1080.4801927083172,
      "v": 63
    },
    {
      "midi": 47,
      "hit": false,
      "t": 290061.72629687726,
      "d": 3000.168302083388,
      "v": 57
    },
    {
      "midi": 86,
      "hit": false,
      "t": 290344.95896875224,
      "d": 146.86138541670516,
      "v": 67
    },
    {
      "midi": 83,
      "hit": false,
      "t": 290386.9193645856,
      "d": 104.9009895833442,
      "v": 60
    },
    {
      "midi": 84,
      "hit": false,
      "t": 290397.4094635439,
      "d": 73.43069270835258,
      "v": 51
    },
    {
      "midi": 82,
      "hit": false,
      "t": 290701.62233333563,
      "d": 178.33168229163857,
      "v": 74
    },
    {
      "midi": 78,
      "hit": false,
      "t": 290722.6025312523,
      "d": 62.940593749983236,
      "v": 74
    },
    {
      "midi": 83,
      "hit": false,
      "t": 291047.7955989606,
      "d": 73.43069270829437,
      "v": 57
    },
    {
      "midi": 79,
      "hit": false,
      "t": 291047.7955989606,
      "d": 115.39108854165534,
      "v": 71
    },
    {
      "midi": 74,
      "hit": false,
      "t": 291331.0282708356,
      "d": 125.88118750002468,
      "v": 66
    },
    {
      "midi": 73,
      "hit": false,
      "t": 291614.2609427106,
      "d": 178.33168229169678,
      "v": 81
    },
    {
      "midi": 79,
      "hit": false,
      "t": 291635.2411406273,
      "d": 52.4504947916721,
      "v": 63
    },
    {
      "midi": 79,
      "hit": false,
      "t": 291907.983713544,
      "d": 209.8019791666884,
      "v": 61
    },
    {
      "midi": 74,
      "hit": false,
      "t": 291970.92430729396,
      "d": 188.82178125006612,
      "v": 63
    },
    {
      "midi": 55,
      "hit": false,
      "t": 292012.8847031273,
      "d": 828.717817708326,
      "v": 47
    },
    {
      "midi": 71,
      "hit": false,
      "t": 292327.58767187735,
      "d": 104.9009895833442,
      "v": 46
    },
    {
      "midi": 70,
      "hit": false,
      "t": 292631.800541669,
      "d": 199.31188020831905,
      "v": 67
    },
    {
      "midi": 73,
      "hit": false,
      "t": 292642.2906406273,
      "d": 157.3514843750163,
      "v": 60
    },
    {
      "midi": 74,
      "hit": false,
      "t": 293030.42430208565,
      "d": 178.33168229163857,
      "v": 58
    },
    {
      "midi": 71,
      "hit": false,
      "t": 293061.89459896064,
      "d": 146.86138541664695,
      "v": 50
    },
    {
      "midi": 64,
      "hit": false,
      "t": 293418.557963544,
      "d": 104.9009895833442,
      "v": 37
    },
    {
      "midi": 70,
      "hit": false,
      "t": 293659.83023958566,
      "d": 209.8019791666302,
      "v": 66
    },
    {
      "midi": 66,
      "hit": false,
      "t": 293670.32033854397,
      "d": 230.78217708331067,
      "v": 69
    },
    {
      "midi": 55,
      "hit": false,
      "t": 293701.79063541896,
      "d": 136.37128645833582,
      "v": 36
    },
    {
      "midi": 47,
      "hit": false,
      "t": 293743.7510312523,
      "d": 83.92079166666372,
      "v": 24
    },
    {
      "midi": 71,
      "hit": false,
      "t": 294100.4143958356,
      "d": 230.78217708325246,
      "v": 58
    },
    {
      "midi": 46,
      "hit": false,
      "t": 294110.9044947939,
      "d": 1521.0643489581998,
      "v": 49
    },
    {
      "midi": 67,
      "hit": false,
      "t": 294121.3945937522,
      "d": 178.33168229163857,
      "v": 60
    },
    {
      "midi": 55,
      "hit": false,
      "t": 294131.88469271053,
      "d": 1814.787119791552,
      "v": 37
    },
    {
      "midi": 67,
      "hit": false,
      "t": 294750.8005312522,
      "d": 524.5049479166046,
      "v": 68
    },
    {
      "midi": 64,
      "hit": false,
      "t": 294750.8005312522,
      "d": 1101.4603906249395,
      "v": 72
    },
    {
      "midi": 60,
      "hit": false,
      "t": 294866.1916197938,
      "d": 94.41089062497485,
      "v": 28
    },
    {
      "midi": 60,
      "hit": false,
      "t": 295212.3648854188,
      "d": 608.4257395833265,
      "v": 44
    },
    {
      "midi": 46,
      "hit": false,
      "t": 295883.7312187521,
      "d": 818.2277187499567,
      "v": 52
    },
    {
      "midi": 64,
      "hit": false,
      "t": 296229.9044843771,
      "d": 1143.4207864582422,
      "v": 85
    },
    {
      "midi": 60,
      "hit": false,
      "t": 296229.9044843771,
      "d": 1248.3217760415282,
      "v": 87
    },
    {
      "midi": 67,
      "hit": false,
      "t": 296240.39458333544,
      "d": 1080.480192708259,
      "v": 82
    },
    {
      "midi": 56,
      "hit": false,
      "t": 296250.88468229375,
      "d": 1216.8514791665948,
      "v": 81
    },
    {
      "midi": 46,
      "hit": false,
      "t": 297153.03319271037,
      "d": 713.3267291666125,
      "v": 81
    },
    {
      "midi": 45,
      "hit": false,
      "t": 298076.16190104367,
      "d": 786.7574218749651,
      "v": 89
    },
    {
      "midi": 65,
      "hit": false,
      "t": 300163.69159375195,
      "d": 881.1683124999399,
      "v": 82
    },
    {
      "midi": 57,
      "hit": false,
      "t": 300163.69159375195,
      "d": 986.0693020832841,
      "v": 80
    },
    {
      "midi": 72,
      "hit": false,
      "t": 300845.5480260436,
      "d": 146.86138541664695,
      "v": 117
    },
    {
      "midi": 81,
      "hit": false,
      "t": 300845.5480260436,
      "d": 157.3514843749581,
      "v": 122
    },
    {
      "midi": 80,
      "hit": false,
      "t": 300897.99852083524,
      "d": 62.940593749983236,
      "v": 49
    },
    {
      "midi": 76,
      "hit": false,
      "t": 301527.4044583352,
      "d": 367.1534635415883,
      "v": 84
    },
    {
      "midi": 51,
      "hit": false,
      "t": 301537.8945572935,
      "d": 503.5247499999241,
      "v": 57
    },
    {
      "midi": 69,
      "hit": false,
      "t": 301548.3846562518,
      "d": 430.0940572916297,
      "v": 72
    },
    {
      "midi": 61,
      "hit": false,
      "t": 301611.3252500018,
      "d": 367.1534635416465,
      "v": 42
    },
    {
      "midi": 66,
      "hit": false,
      "t": 302198.77079166844,
      "d": 660.8762343749404,
      "v": 49
    },
    {
      "midi": 72,
      "hit": false,
      "t": 302209.26089062676,
      "d": 576.9554427082767,
      "v": 66
    },
    {
      "midi": 50,
      "hit": false,
      "t": 302219.75098958507,
      "d": 2003.6089010416763,
      "v": 43
    },
    {
      "midi": 60,
      "hit": false,
      "t": 302230.2410885434,
      "d": 597.9356406250154,
      "v": 45
    },
    {
      "midi": 54,
      "hit": false,
      "t": 302891.1173229184,
      "d": 723.8168281249818,
      "v": 60
    },
    {
      "midi": 68,
      "hit": false,
      "t": 303562.4836562517,
      "d": 555.9752447917126,
      "v": 66
    },
    {
      "midi": 56,
      "hit": false,
      "t": 303572.97375521,
      "d": 692.3465312500484,
      "v": 57
    },
    {
      "midi": 63,
      "hit": false,
      "t": 303593.9539531267,
      "d": 409.11385937506566,
      "v": 57
    },
    {
      "midi": 60,
      "hit": false,
      "t": 303593.9539531267,
      "d": 482.54455208336003,
      "v": 55
    },
    {
      "midi": 66,
      "hit": false,
      "t": 303656.8945468767,
      "d": 493.03465104167117,
      "v": 41
    },
    {
      "midi": 57,
      "hit": false,
      "t": 304244.3400885434,
      "d": 220.29207812494133,
      "v": 64
    },
    {
      "midi": 60,
      "hit": false,
      "t": 304244.3400885434,
      "d": 451.074255208252,
      "v": 53
    },
    {
      "midi": 63,
      "hit": false,
      "t": 304244.3400885434,
      "d": 765.7772239582846,
      "v": 46
    },
    {
      "midi": 66,
      "hit": false,
      "t": 304244.3400885434,
      "d": 1007.0494999999646,
      "v": 28
    },
    {
      "midi": 69,
      "hit": false,
      "t": 304254.83018750174,
      "d": 566.4653437499655,
      "v": 57
    },
    {
      "midi": 44,
      "hit": false,
      "t": 304863.25592708506,
      "d": 1080.4801927083172,
      "v": 75
    },
    {
      "midi": 54,
      "hit": false,
      "t": 304884.23612500174,
      "d": 923.1287083333009,
      "v": 66
    },
    {
      "midi": 59,
      "hit": false,
      "t": 304894.72622396005,
      "d": 849.6980156250065,
      "v": 74
    },
    {
      "midi": 43,
      "hit": false,
      "t": 306111.5777031267,
      "d": 765.7772239583428,
      "v": 49
    },
    {
      "midi": 58,
      "hit": false,
      "t": 306122.067802085,
      "d": 188.82178125000792,
      "v": 68
    },
    {
      "midi": 53,
      "hit": false,
      "t": 306143.0480000017,
      "d": 986.0693020834005,
      "v": 41
    },
    {
      "midi": 60,
      "hit": false,
      "t": 306394.8103750017,
      "d": 125.88118750002468,
      "v": 43
    },
    {
      "midi": 58,
      "hit": false,
      "t": 306499.71136458503,
      "d": 220.29207812499953,
      "v": 48
    },
    {
      "midi": 57,
      "hit": false,
      "t": 306751.473739585,
      "d": 73.43069270835258,
      "v": 53
    },
    {
      "midi": 58,
      "hit": false,
      "t": 306898.33512500173,
      "d": 157.3514843750163,
      "v": 46
    },
    {
      "midi": 62,
      "hit": false,
      "t": 307181.56779687677,
      "d": 83.92079166666372,
      "v": 60
    },
    {
      "midi": 66,
      "hit": false,
      "t": 307412.3499739601,
      "d": 167.84158333332743,
      "v": 54
    },
    {
      "midi": 69,
      "hit": false,
      "t": 307674.6024479184,
      "d": 199.31188020831905,
      "v": 59
    },
    {
      "midi": 66,
      "hit": false,
      "t": 307842.4440312517,
      "d": 178.33168229163857,
      "v": 69
    },
    {
      "midi": 62,
      "hit": false,
      "t": 308052.24601041834,
      "d": 73.43069270835258,
      "v": 50
    },
    {
      "midi": 58,
      "hit": false,
      "t": 308073.226208335,
      "d": 146.86138541664695,
      "v": 49
    },
    {
      "midi": 67,
      "hit": false,
      "t": 308083.71630729333,
      "d": 178.33168229169678,
      "v": 63
    },
    {
      "midi": 57,
      "hit": false,
      "t": 308104.69650521,
      "d": 83.92079166666372,
      "v": 26
    },
    {
      "midi": 69,
      "hit": false,
      "t": 308366.9489791684,
      "d": 167.84158333332743,
      "v": 46
    },
    {
      "midi": 70,
      "hit": false,
      "t": 308566.2608593767,
      "d": 115.39108854165534,
      "v": 63
    },
    {
      "midi": 72,
      "hit": false,
      "t": 308818.0232343767,
      "d": 83.92079166666372,
      "v": 58
    },
    {
      "midi": 73,
      "hit": false,
      "t": 308975.3747187517,
      "d": 73.43069270835258,
      "v": 55
    },
    {
      "midi": 75,
      "hit": false,
      "t": 309185.1766979184,
      "d": 62.940593749983236,
      "v": 54
    },
    {
      "midi": 76,
      "hit": false,
      "t": 309353.0182812517,
      "d": 83.92079166666372,
      "v": 56
    },
    {
      "midi": 78,
      "hit": false,
      "t": 309531.34996354335,
      "d": 83.92079166666372,
      "v": 42
    },
    {
      "midi": 79,
      "hit": false,
      "t": 309709.681645835,
      "d": 62.940593749983236,
      "v": 59
    },
    {
      "midi": 80,
      "hit": false,
      "t": 309846.0529322933,
      "d": 73.43069270835258,
      "v": 30
    },
    {
      "midi": 81,
      "hit": false,
      "t": 309940.46382291836,
      "d": 94.41089062503306,
      "v": 45
    },
    {
      "midi": 82,
      "hit": false,
      "t": 309992.91431771003,
      "d": 136.37128645839402,
      "v": 73
    },
    {
      "midi": 36,
      "hit": false,
      "t": 310055.8549114601,
      "d": 650.3861354166875,
      "v": 42
    },
    {
      "midi": 52,
      "hit": false,
      "t": 310139.77570312674,
      "d": 744.7970260416623,
      "v": 36
    },
    {
      "midi": 83,
      "hit": false,
      "t": 310150.26580208505,
      "d": 73.43069270835258,
      "v": 49
    },
    {
      "midi": 84,
      "hit": false,
      "t": 310297.12718750176,
      "d": 325.19306770834373,
      "v": 82
    },
    {
      "midi": 72,
      "hit": false,
      "t": 310695.75094791845,
      "d": 157.3514843749581,
      "v": 61
    },
    {
      "midi": 72,
      "hit": false,
      "t": 311052.4143125017,
      "d": 188.82178125000792,
      "v": 56
    },
    {
      "midi": 72,
      "hit": false,
      "t": 311451.0380729184,
      "d": 146.86138541664695,
      "v": 49
    },
    {
      "midi": 72,
      "hit": false,
      "t": 311755.2509427101,
      "d": 146.86138541664695,
      "v": 61
    },
    {
      "midi": 72,
      "hit": false,
      "t": 312038.4836145851,
      "d": 136.37128645833582,
      "v": 68
    },
    {
      "midi": 69,
      "hit": false,
      "t": 312342.69648437673,
      "d": 146.86138541664695,
      "v": 57
    },
    {
      "midi": 72,
      "hit": false,
      "t": 312342.69648437673,
      "d": 744.7970260416623,
      "v": 74
    },
    {
      "midi": 64,
      "hit": false,
      "t": 312353.18658333505,
      "d": 188.82178125000792,
      "v": 55
    },
    {
      "midi": 58,
      "hit": false,
      "t": 312374.1667812517,
      "d": 230.78217708331067,
      "v": 46
    },
    {
      "midi": 56,
      "hit": false,
      "t": 313223.86479687673,
      "d": 587.445541666646,
      "v": 86
    },
    {
      "midi": 46,
      "hit": false,
      "t": 313234.35489583504,
      "d": 650.3861354166875,
      "v": 83
    },
    {
      "midi": 55,
      "hit": false,
      "t": 314188.9539010434,
      "d": 1174.8910833333503,
      "v": 82
    },
    {
      "midi": 49,
      "hit": false,
      "t": 314199.4440000017,
      "d": 524.504947916721,
      "v": 74
    },
    {
      "midi": 45,
      "hit": false,
      "t": 314199.4440000017,
      "d": 692.3465312500484,
      "v": 69
    },
    {
      "midi": 45,
      "hit": false,
      "t": 315258.9439947934,
      "d": 136.37128645833582,
      "v": 81
    },
    {
      "midi": 72,
      "hit": false,
      "t": 316224.03309896006,
      "d": 482.5445520833018,
      "v": 107
    },
    {
      "midi": 84,
      "hit": false,
      "t": 316224.03309896006,
      "d": 493.03465104161296,
      "v": 86
    },
    {
      "midi": 77,
      "hit": false,
      "t": 316224.03309896006,
      "d": 514.0148489582934,
      "v": 94
    },
    {
      "midi": 81,
      "hit": false,
      "t": 316224.03309896006,
      "d": 566.4653437499655,
      "v": 89
    },
    {
      "midi": 65,
      "hit": false,
      "t": 316224.03309896006,
      "d": 786.7574218749651,
      "v": 96
    },
    {
      "midi": 60,
      "hit": false,
      "t": 316224.03309896006,
      "d": 849.6980156249483,
      "v": 75
    },
    {
      "midi": 61,
      "hit": false,
      "t": 316224.03309896006,
      "d": 849.6980156249483,
      "v": 72
    },
    {
      "midi": 86,
      "hit": false,
      "t": 316255.50339583505,
      "d": 62.940593749983236,
      "v": 57
    },
    {
      "midi": 55,
      "hit": false,
      "t": 316255.50339583505,
      "d": 923.1287083333009,
      "v": 76
    },
    {
      "midi": 58,
      "hit": false,
      "t": 316265.99349479337,
      "d": 52.4504947916721,
      "v": 58
    },
    {
      "midi": 84,
      "hit": false,
      "t": 316926.86972916836,
      "d": 419.6039583333768,
      "v": 77
    },
    {
      "midi": 72,
      "hit": false,
      "t": 316937.3598281267,
      "d": 346.1732656250242,
      "v": 75
    },
    {
      "midi": 77,
      "hit": false,
      "t": 316937.3598281267,
      "d": 367.1534635417047,
      "v": 72
    },
    {
      "midi": 81,
      "hit": false,
      "t": 316937.3598281267,
      "d": 472.0544531250489,
      "v": 76
    },
    {
      "midi": 84,
      "hit": false,
      "t": 317608.72616146004,
      "d": 262.2524739583023,
      "v": 75
    },
    {
      "midi": 72,
      "hit": false,
      "t": 317629.7063593767,
      "d": 178.33168229163857,
      "v": 63
    },
    {
      "midi": 77,
      "hit": false,
      "t": 317661.1766562517,
      "d": 62.940593749983236,
      "v": 53
    },
    {
      "midi": 81,
      "hit": false,
      "t": 317661.1766562517,
      "d": 178.33168229163857,
      "v": 49
    },
    {
      "midi": 26,
      "hit": false,
      "t": 318248.62219791836,
      "d": 702.8366302083014,
      "v": 59
    },
    {
      "midi": 85,
      "hit": false,
      "t": 318269.60239583504,
      "d": 440.58415624994086,
      "v": 71
    },
    {
      "midi": 73,
      "hit": false,
      "t": 318269.60239583504,
      "d": 451.074255208252,
      "v": 73
    },
    {
      "midi": 38,
      "hit": false,
      "t": 318280.09249479335,
      "d": 807.7376197916456,
      "v": 39
    },
    {
      "midi": 82,
      "hit": false,
      "t": 318332.542989585,
      "d": 94.41089062497485,
      "v": 37
    },
    {
      "midi": 74,
      "hit": false,
      "t": 318825.57764062664,
      "d": 744.7970260417205,
      "v": 64
    },
    {
      "midi": 86,
      "hit": false,
      "t": 318825.57764062664,
      "d": 1101.4603906250559,
      "v": 63
    },
    {
      "midi": 65,
      "hit": false,
      "t": 320252.23109896004,
      "d": 1458.123755208333,
      "v": 54
    },
    {
      "midi": 54,
      "hit": false,
      "t": 320283.701395835,
      "d": 1919.6881093750126,
      "v": 43
    },
    {
      "midi": 60,
      "hit": false,
      "t": 320315.17169271,
      "d": 1216.851479166653,
      "v": 45
    },
    {
      "midi": 89,
      "hit": false,
      "t": 320965.5578281267,
      "d": 251.76237499999115,
      "v": 111
    },
    {
      "midi": 84,
      "hit": false,
      "t": 321332.71129166835,
      "d": 220.29207812499953,
      "v": 45
    },
    {
      "midi": 85,
      "hit": false,
      "t": 321437.6122812517,
      "d": 146.86138541664695,
      "v": 48
    },
    {
      "midi": 86,
      "hit": false,
      "t": 321605.453864585,
      "d": 73.43069270835258,
      "v": 54
    },
    {
      "midi": 80,
      "hit": false,
      "t": 322046.038020835,
      "d": 178.33168229169678,
      "v": 82
    },
    {
      "midi": 86,
      "hit": false,
      "t": 322098.4885156267,
      "d": 398.6237604166963,
      "v": 61
    },
    {
      "midi": 81,
      "hit": false,
      "t": 322276.8201979184,
      "d": 146.86138541664695,
      "v": 46
    },
    {
      "midi": 64,
      "hit": false,
      "t": 322413.19148437673,
      "d": 1153.9108854166698,
      "v": 33
    },
    {
      "midi": 59,
      "hit": false,
      "t": 322444.6617812517,
      "d": 1216.851479166653,
      "v": 42
    },
    {
      "midi": 53,
      "hit": false,
      "t": 322444.6617812517,
      "d": 2318.3118697916507,
      "v": 35
    },
    {
      "midi": 77,
      "hit": false,
      "t": 322549.56277083507,
      "d": 220.29207812499953,
      "v": 60
    },
    {
      "midi": 74,
      "hit": false,
      "t": 323095.0479166684,
      "d": 83.92079166666372,
      "v": 37
    },
    {
      "midi": 77,
      "hit": false,
      "t": 323357.3003906267,
      "d": 398.6237604166381,
      "v": 79
    },
    {
      "midi": 74,
      "hit": false,
      "t": 323881.8053385434,
      "d": 104.9009895833442,
      "v": 56
    },
    {
      "midi": 64,
      "hit": false,
      "t": 324186.01820833504,
      "d": 440.58415624999907,
      "v": 38
    },
    {
      "midi": 77,
      "hit": false,
      "t": 324196.50830729335,
      "d": 167.84158333332743,
      "v": 70
    },
    {
      "midi": 59,
      "hit": false,
      "t": 324206.99840625166,
      "d": 430.09405729168793,
      "v": 47
    },
    {
      "midi": 79,
      "hit": false,
      "t": 324500.721177085,
      "d": 178.33168229169678,
      "v": 58
    },
    {
      "midi": 77,
      "hit": false,
      "t": 324741.9934531267,
      "d": 209.8019791666884,
      "v": 68
    },
    {
      "midi": 74,
      "hit": false,
      "t": 325056.6964218767,
      "d": 136.37128645833582,
      "v": 58
    },
    {
      "midi": 77,
      "hit": false,
      "t": 325329.4389947934,
      "d": 367.1534635416465,
      "v": 84
    },
    {
      "midi": 79,
      "hit": false,
      "t": 325885.41423958505,
      "d": 251.76237499999115,
      "v": 82
    },
    {
      "midi": 64,
      "hit": false,
      "t": 326242.0776041684,
      "d": 188.82178125000792,
      "v": 54
    },
    {
      "midi": 77,
      "hit": false,
      "t": 326252.5677031267,
      "d": 283.232671875041,
      "v": 63
    },
    {
      "midi": 58,
      "hit": false,
      "t": 326273.5479010434,
      "d": 230.78217708336888,
      "v": 48
    },
    {
      "midi": 48,
      "hit": false,
      "t": 326913.44393750175,
      "d": 1584.0049427082995,
      "v": 68
    },
    {
      "midi": 73,
      "hit": false,
      "t": 328256.17660416843,
      "d": 629.4059374998906,
      "v": 72
    },
    {
      "midi": 68,
      "hit": false,
      "t": 328277.1568020851,
      "d": 597.935640624899,
      "v": 71
    },
    {
      "midi": 58,
      "hit": false,
      "t": 328287.6469010434,
      "d": 576.9554427082767,
      "v": 56
    },
    {
      "midi": 64,
      "hit": false,
      "t": 328298.13700000173,
      "d": 94.41089062497485,
      "v": 56
    },
    {
      "midi": 64,
      "hit": false,
      "t": 328549.8993750017,
      "d": 230.78217708331067,
      "v": 12
    },
    {
      "midi": 48,
      "hit": false,
      "t": 328906.562739585,
      "d": 314.7029687499744,
      "v": 63
    },
    {
      "midi": 74,
      "hit": false,
      "t": 329263.22610416834,
      "d": 377.64356250001583,
      "v": 107
    },
    {
      "midi": 72,
      "hit": false,
      "t": 329945.08253646,
      "d": 220.29207812499953,
      "v": 79
    },
    {
      "midi": 41,
      "hit": false,
      "t": 330207.3350104184,
      "d": 335.6831666667131,
      "v": 45
    },
    {
      "midi": 69,
      "hit": false,
      "t": 330333.2161979184,
      "d": 293.7227708333521,
      "v": 52
    },
    {
      "midi": 57,
      "hit": false,
      "t": 330375.17659375176,
      "d": 367.1534635416465,
      "v": 36
    },
    {
      "midi": 60,
      "hit": false,
      "t": 330962.6221354184,
      "d": 209.8019791666884,
      "v": 34
    },
    {
      "midi": 65,
      "hit": false,
      "t": 331287.81520312675,
      "d": 451.0742552083102,
      "v": 51
    },
    {
      "midi": 60,
      "hit": false,
      "t": 331906.7310416684,
      "d": 188.82178125000792,
      "v": 56
    },
    {
      "midi": 48,
      "hit": false,
      "t": 331969.6716354184,
      "d": 251.76237500004936,
      "v": 42
    },
    {
      "midi": 58,
      "hit": false,
      "t": 332252.9043072934,
      "d": 493.03465104167117,
      "v": 66
    },
    {
      "midi": 65,
      "hit": false,
      "t": 332284.3746041684,
      "d": 461.56435416667955,
      "v": 50
    },
    {
      "midi": 50,
      "hit": false,
      "t": 332284.3746041684,
      "d": 692.3465312499902,
      "v": 44
    },
    {
      "midi": 49,
      "hit": false,
      "t": 333165.5429166684,
      "d": 818.2277187499567,
      "v": 24
    },
    {
      "midi": 56,
      "hit": false,
      "t": 333186.5231145851,
      "d": 356.66336458333535,
      "v": 50
    },
    {
      "midi": 42,
      "hit": false,
      "t": 333207.50331250177,
      "d": 713.3267291666125,
      "v": 46
    },
    {
      "midi": 65,
      "hit": false,
      "t": 333259.95380729344,
      "d": 618.9158385416376,
      "v": 46
    },
    {
      "midi": 57,
      "hit": false,
      "t": 333606.1270729184,
      "d": 283.23267187498277,
      "v": 31
    },
    {
      "midi": 65,
      "hit": false,
      "t": 334183.0825156267,
      "d": 493.03465104167117,
      "v": 49
    },
    {
      "midi": 48,
      "hit": false,
      "t": 334183.0825156267,
      "d": 692.3465312499902,
      "v": 34
    },
    {
      "midi": 57,
      "hit": false,
      "t": 334204.06271354336,
      "d": 555.9752447916544,
      "v": 48
    },
    {
      "midi": 41,
      "hit": false,
      "t": 334204.06271354336,
      "d": 2202.9207812500536,
      "v": 38
    },
    {
      "midi": 50,
      "hit": false,
      "t": 334854.44884896,
      "d": 419.6039583333186,
      "v": 61
    },
    {
      "midi": 58,
      "hit": false,
      "t": 334885.919145835,
      "d": 283.23267187498277,
      "v": 60
    },
    {
      "midi": 65,
      "hit": false,
      "t": 334885.919145835,
      "d": 1216.8514791667112,
      "v": 54
    },
    {
      "midi": 48,
      "hit": false,
      "t": 335232.09241145995,
      "d": 744.7970260417205,
      "v": 43
    },
    {
      "midi": 56,
      "hit": false,
      "t": 335232.09241145995,
      "d": 944.1089062500978,
      "v": 56
    },
    {
      "midi": 48,
      "hit": false,
      "t": 336281.1023072934,
      "d": 881.1683124999981,
      "v": 48
    },
    {
      "midi": 65,
      "hit": false,
      "t": 336302.08250521007,
      "d": 1521.0643489583163,
      "v": 52
    },
    {
      "midi": 57,
      "hit": false,
      "t": 336333.55280208506,
      "d": 1038.5197968750144,
      "v": 46
    },
    {
      "midi": 41,
      "hit": false,
      "t": 337004.9191354184,
      "d": 136.37128645833582,
      "v": 54
    },
    {
      "midi": 40,
      "hit": false,
      "t": 338316.18150521006,
      "d": 692.3465312499902,
      "v": 48
    },
    {
      "midi": 55,
      "hit": false,
      "t": 338379.12209896004,
      "d": 786.7574218750233,
      "v": 43
    },
    {
      "midi": 67,
      "hit": false,
      "t": 339050.4884322934,
      "d": 104.9009895833442,
      "v": 54
    },
    {
      "midi": 69,
      "hit": false,
      "t": 339354.7013020851,
      "d": 104.9009895833442,
      "v": 57
    },
    {
      "midi": 70,
      "hit": false,
      "t": 339963.1270416684,
      "d": 167.84158333332743,
      "v": 63
    },
    {
      "midi": 58,
      "hit": false,
      "t": 340340.7706041684,
      "d": 839.2079166666954,
      "v": 39
    },
    {
      "midi": 62,
      "hit": false,
      "t": 340351.2607031267,
      "d": 1080.4801927083754,
      "v": 37
    },
    {
      "midi": 52,
      "hit": false,
      "t": 340424.6913958351,
      "d": 797.2475208333344,
      "v": 32
    },
    {
      "midi": 84,
      "hit": false,
      "t": 340445.67159375176,
      "d": 136.37128645833582,
      "v": 72
    },
    {
      "midi": 84,
      "hit": false,
      "t": 341022.6270364601,
      "d": 167.84158333332743,
      "v": 72
    },
    {
      "midi": 73,
      "hit": false,
      "t": 341410.7606979184,
      "d": 94.41089062503306,
      "v": 58
    },
    {
      "midi": 73,
      "hit": false,
      "t": 342008.69633854344,
      "d": 209.8019791666884,
      "v": 54
    },
    {
      "midi": 72,
      "hit": false,
      "t": 342375.84980208514,
      "d": 220.29207812499953,
      "v": 48
    },
    {
      "midi": 61,
      "hit": false,
      "t": 342386.33990104345,
      "d": 514.0148489583516,
      "v": 37
    },
    {
      "midi": 65,
      "hit": false,
      "t": 342396.83000000176,
      "d": 398.6237604166963,
      "v": 32
    },
    {
      "midi": 55,
      "hit": false,
      "t": 342470.2606927101,
      "d": 587.4455416667042,
      "v": 34
    },
    {
      "midi": 72,
      "hit": false,
      "t": 342984.27554166847,
      "d": 157.3514843750163,
      "v": 63
    },
    {
      "midi": 70,
      "hit": false,
      "t": 343351.4290052102,
      "d": 157.3514843749581,
      "v": 60
    },
    {
      "midi": 70,
      "hit": false,
      "t": 343917.89434896014,
      "d": 199.31188020831905,
      "v": 68
    },
    {
      "midi": 55,
      "hit": false,
      "t": 344327.00820833514,
      "d": 2045.569296874979,
      "v": 40
    },
    {
      "midi": 69,
      "hit": false,
      "t": 344347.9884062518,
      "d": 136.37128645833582,
      "v": 66
    },
    {
      "midi": 45,
      "hit": false,
      "t": 344379.4587031268,
      "d": 1185.3811822916614,
      "v": 32
    },
    {
      "midi": 70,
      "hit": false,
      "t": 344515.82998958515,
      "d": 230.78217708336888,
      "v": 58
    },
    {
      "midi": 69,
      "hit": false,
      "t": 344673.18147396017,
      "d": 199.31188020837726,
      "v": 49
    },
    {
      "midi": 67,
      "hit": false,
      "t": 344882.98345312686,
      "d": 178.33168229163857,
      "v": 52
    },
    {
      "midi": 65,
      "hit": false,
      "t": 345176.70622396015,
      "d": 241.27227604168002,
      "v": 62
    },
    {
      "midi": 64,
      "hit": false,
      "t": 345428.46859896014,
      "d": 503.5247499999823,
      "v": 47
    },
    {
      "midi": 67,
      "hit": false,
      "t": 346005.4240416685,
      "d": 251.76237499999115,
      "v": 72
    },
    {
      "midi": 65,
      "hit": false,
      "t": 346372.5775052101,
      "d": 482.5445520833018,
      "v": 66
    },
    {
      "midi": 50,
      "hit": false,
      "t": 346425.0280000018,
      "d": 3115.559390624985,
      "v": 41
    },
    {
      "midi": 57,
      "hit": false,
      "t": 346435.5180989601,
      "d": 430.0940572916297,
      "v": 41
    },
    {
      "midi": 57,
      "hit": false,
      "t": 347033.45373958506,
      "d": 167.84158333332743,
      "v": 61
    },
    {
      "midi": 67,
      "hit": false,
      "t": 347914.62205208506,
      "d": 188.82178125000792,
      "v": 43
    },
    {
      "midi": 62,
      "hit": false,
      "t": 348449.6170989601,
      "d": 451.0742552083684,
      "v": 58
    },
    {
      "midi": 69,
      "hit": false,
      "t": 348481.0873958351,
      "d": 209.8019791666884,
      "v": 76
    },
    {
      "midi": 57,
      "hit": false,
      "t": 348502.06759375177,
      "d": 1615.4752395833493,
      "v": 47
    },
    {
      "midi": 74,
      "hit": false,
      "t": 349068.5329375018,
      "d": 199.31188020831905,
      "v": 117
    },
    {
      "midi": 76,
      "hit": false,
      "t": 349645.4883802101,
      "d": 293.7227708333521,
      "v": 122
    },
    {
      "midi": 57,
      "hit": false,
      "t": 350285.38441666844,
      "d": 1258.811875000014,
      "v": 58
    },
    {
      "midi": 77,
      "hit": false,
      "t": 350327.3448125018,
      "d": 325.19306770834373,
      "v": 122
    },
    {
      "midi": 48,
      "hit": false,
      "t": 350379.7953072935,
      "d": 2507.1336510416586,
      "v": 44
    },
    {
      "midi": 65,
      "hit": false,
      "t": 351040.6715416685,
      "d": 199.31188020831905,
      "v": 56
    },
    {
      "midi": 74,
      "hit": false,
      "t": 351638.60718229343,
      "d": 283.232671875041,
      "v": 78
    },
    {
      "midi": 69,
      "hit": false,
      "t": 351712.0378750018,
      "d": 167.84158333332743,
      "v": 50
    },
    {
      "midi": 57,
      "hit": false,
      "t": 352435.8547031268,
      "d": 1489.5940520833246,
      "v": 30
    },
    {
      "midi": 62,
      "hit": false,
      "t": 352446.34480208514,
      "d": 493.03465104167117,
      "v": 33
    },
    {
      "midi": 65,
      "hit": false,
      "t": 353065.26064062683,
      "d": 472.0544531249907,
      "v": 45
    },
    {
      "midi": 48,
      "hit": false,
      "t": 353663.19628125185,
      "d": 304.21286979166325,
      "v": 37
    },
    {
      "midi": 67,
      "hit": false,
      "t": 353694.66657812684,
      "d": 1426.6534583332832,
      "v": 47
    },
    {
      "midi": 47,
      "hit": false,
      "t": 354439.4636041685,
      "d": 2905.7574114581803,
      "v": 68
    },
    {
      "midi": 59,
      "hit": false,
      "t": 356359.15171354346,
      "d": 272.7425729166134,
      "v": 42
    },
    {
      "midi": 62,
      "hit": false,
      "t": 356359.15171354346,
      "d": 335.68316666659666,
      "v": 51
    },
    {
      "midi": 55,
      "hit": false,
      "t": 356369.64181250177,
      "d": 965.0891041666036,
      "v": 35
    },
    {
      "midi": 55,
      "hit": false,
      "t": 357586.49329166836,
      "d": 209.8019791666884,
      "v": 23
    },
    {
      "midi": 47,
      "hit": false,
      "t": 357596.9833906267,
      "d": 188.82178125006612,
      "v": 44
    },
    {
      "midi": 62,
      "hit": false,
      "t": 357607.473489585,
      "d": 94.41089062503306,
      "v": 57
    },
    {
      "midi": 71,
      "hit": false,
      "t": 357617.9635885433,
      "d": 125.88118750008289,
      "v": 53
    },
    {
      "midi": 67,
      "hit": false,
      "t": 357659.92398437666,
      "d": 157.3514843750745,
      "v": 41
    },
    {
      "midi": 46,
      "hit": false,
      "t": 358352.2705156267,
      "d": 713.3267291666125,
      "v": 56
    },
    {
      "midi": 56,
      "hit": false,
      "t": 358383.7408125017,
      "d": 755.2871249999735,
      "v": 45
    },
    {
      "midi": 64,
      "hit": false,
      "t": 358394.23091146,
      "d": 325.19306770834373,
      "v": 57
    },
    {
      "midi": 67,
      "hit": false,
      "t": 358394.23091146,
      "d": 356.66336458333535,
      "v": 56
    },
    {
      "midi": 72,
      "hit": false,
      "t": 358394.23091146,
      "d": 419.6039583333186,
      "v": 51
    },
    {
      "midi": 46,
      "hit": false,
      "t": 359705.4932812517,
      "d": 870.678213541687,
      "v": 75
    },
    {
      "midi": 72,
      "hit": false,
      "t": 359715.98338021,
      "d": 514.0148489582934,
      "v": 85
    },
    {
      "midi": 76,
      "hit": false,
      "t": 359715.98338021,
      "d": 555.9752447916544,
      "v": 94
    },
    {
      "midi": 67,
      "hit": false,
      "t": 359715.98338021,
      "d": 576.9554427083349,
      "v": 98
    },
    {
      "midi": 56,
      "hit": false,
      "t": 359715.98338021,
      "d": 734.3069270833512,
      "v": 72
    },
    {
      "midi": 74,
      "hit": false,
      "t": 359799.90417187667,
      "d": 94.41089062497485,
      "v": 37
    },
    {
      "midi": 46,
      "hit": false,
      "t": 361090.18634375173,
      "d": 293.7227708332357,
      "v": 54
    },
    {
      "midi": 56,
      "hit": false,
      "t": 361100.67644271004,
      "d": 398.6237604165799,
      "v": 46
    },
    {
      "midi": 72,
      "hit": false,
      "t": 361111.16654166835,
      "d": 241.2722760416218,
      "v": 57
    },
    {
      "midi": 67,
      "hit": false,
      "t": 361121.65664062666,
      "d": 293.7227708332939,
      "v": 58
    },
    {
      "midi": 64,
      "hit": false,
      "t": 361121.65664062666,
      "d": 356.66336458327714,
      "v": 54
    },
    {
      "midi": 46,
      "hit": false,
      "t": 361740.5724791683,
      "d": 377.64356250001583,
      "v": 44
    },
    {
      "midi": 60,
      "hit": false,
      "t": 362401.4487135433,
      "d": 639.8960364583181,
      "v": 57
    },
    {
      "midi": 57,
      "hit": false,
      "t": 362411.9388125016,
      "d": 545.4851458333433,
      "v": 40
    },
    {
      "midi": 45,
      "hit": false,
      "t": 362432.9190104183,
      "d": 650.3861354166875,
      "v": 40
    },
    {
      "midi": 53,
      "hit": false,
      "t": 362432.9190104183,
      "d": 744.7970260416623,
      "v": 31
    },
    {
      "midi": 65,
      "hit": false,
      "t": 364300.15662500163,
      "d": 125.88118749996647,
      "v": 39
    },
    {
      "midi": 57,
      "hit": false,
      "t": 364310.64672395994,
      "d": 912.6386093749898,
      "v": 39
    },
    {
      "midi": 60,
      "hit": false,
      "t": 364331.6269218766,
      "d": 104.90098958328599,
      "v": 44
    },
    {
      "midi": 68,
      "hit": false,
      "t": 364604.36949479324,
      "d": 157.3514843750163,
      "v": 59
    },
    {
      "midi": 69,
      "hit": false,
      "t": 364782.70117708493,
      "d": 167.84158333332743,
      "v": 56
    },
    {
      "midi": 72,
      "hit": false,
      "t": 365149.8546406266,
      "d": 220.29207812499953,
      "v": 86
    },
    {
      "midi": 74,
      "hit": false,
      "t": 365632.39919270994,
      "d": 241.27227604168002,
      "v": 99
    },
    {
      "midi": 72,
      "hit": false,
      "t": 366052.00315104326,
      "d": 262.2524739583605,
      "v": 54
    },
    {
      "midi": 65,
      "hit": false,
      "t": 366293.27542708494,
      "d": 1080.4801927083754,
      "v": 46
    },
    {
      "midi": 60,
      "hit": false,
      "t": 366314.2556250016,
      "d": 1090.9702916666865,
      "v": 46
    },
    {
      "midi": 54,
      "hit": false,
      "t": 366314.2556250016,
      "d": 1300.772270833375,
      "v": 43
    },
    {
      "midi": 77,
      "hit": false,
      "t": 366807.2902760433,
      "d": 251.76237499999115,
      "v": 115
    },
    {
      "midi": 77,
      "hit": false,
      "t": 367268.85463021,
      "d": 272.74257291667163,
      "v": 81
    },
    {
      "midi": 74,
      "hit": false,
      "t": 367688.45858854335,
      "d": 188.82178125000792,
      "v": 75
    },
    {
      "midi": 74,
      "hit": false,
      "t": 368055.612052085,
      "d": 157.3514843750163,
      "v": 62
    },
    {
      "midi": 54,
      "hit": false,
      "t": 368338.84472396,
      "d": 1111.9504895832506,
      "v": 41
    },
    {
      "midi": 60,
      "hit": false,
      "t": 368349.3348229183,
      "d": 576.9554427082767,
      "v": 35
    },
    {
      "midi": 50,
      "hit": false,
      "t": 368380.8051197933,
      "d": 1111.9504895833088,
      "v": 35
    },
    {
      "midi": 68,
      "hit": false,
      "t": 368496.19620833494,
      "d": 188.8217812499497,
      "v": 63
    },
    {
      "midi": 74,
      "hit": false,
      "t": 368506.68630729325,
      "d": 325.19306770834373,
      "v": 52
    },
    {
      "midi": 69,
      "hit": false,
      "t": 368726.97838541825,
      "d": 136.37128645833582,
      "v": 44
    },
    {
      "midi": 62,
      "hit": false,
      "t": 369094.1318489599,
      "d": 209.8019791666884,
      "v": 58
    },
    {
      "midi": 65,
      "hit": false,
      "t": 369576.67640104325,
      "d": 2077.0395937499707,
      "v": 68
    },
    {
      "midi": 43,
      "hit": false,
      "t": 370457.84471354325,
      "d": 2685.465333333297,
      "v": 43
    },
    {
      "midi": 53,
      "hit": false,
      "t": 370478.82491145993,
      "d": 860.1881145833177,
      "v": 37
    },
    {
      "midi": 62,
      "hit": false,
      "t": 371695.6763906266,
      "d": 178.33168229163857,
      "v": 57
    },
    {
      "midi": 70,
      "hit": false,
      "t": 372450.96351562656,
      "d": 713.3267291666707,
      "v": 96
    },
    {
      "midi": 53,
      "hit": false,
      "t": 372461.45361458487,
      "d": 755.2871250000317,
      "v": 45
    },
    {
      "midi": 71,
      "hit": false,
      "t": 373101.3496510432,
      "d": 409.11385937506566,
      "v": 74
    },
    {
      "midi": 70,
      "hit": false,
      "t": 373699.28529166826,
      "d": 335.68316666665487,
      "v": 84
    },
    {
      "midi": 68,
      "hit": false,
      "t": 374139.86944791826,
      "d": 325.19306770834373,
      "v": 58
    },
    {
      "midi": 36,
      "hit": false,
      "t": 374486.0427135433,
      "d": 2779.876223958505,
      "v": 36
    },
    {
      "midi": 65,
      "hit": false,
      "t": 374507.02291145996,
      "d": 125.88118750002468,
      "v": 48
    },
    {
      "midi": 52,
      "hit": false,
      "t": 374548.9833072933,
      "d": 776.2673229167121,
      "v": 31
    },
    {
      "midi": 63,
      "hit": false,
      "t": 374800.7456822933,
      "d": 209.8019791666884,
      "v": 56
    },
    {
      "midi": 60,
      "hit": false,
      "t": 375062.9981562517,
      "d": 125.88118750002468,
      "v": 52
    },
    {
      "midi": 59,
      "hit": false,
      "t": 375314.7605312517,
      "d": 209.8019791666302,
      "v": 50
    },
    {
      "midi": 65,
      "hit": false,
      "t": 375419.661520835,
      "d": 220.29207812499953,
      "v": 45
    },
    {
      "midi": 62,
      "hit": false,
      "t": 375618.97340104333,
      "d": 94.41089062503306,
      "v": 43
    },
    {
      "midi": 53,
      "hit": false,
      "t": 375891.71597396,
      "d": 83.92079166666372,
      "v": 37
    },
    {
      "midi": 58,
      "hit": false,
      "t": 376049.067458335,
      "d": 398.6237604166963,
      "v": 63
    },
    {
      "midi": 62,
      "hit": false,
      "t": 376101.5179531267,
      "d": 262.2524739583605,
      "v": 66
    },
    {
      "midi": 53,
      "hit": false,
      "t": 376426.71102083504,
      "d": 73.43069270835258,
      "v": 55
    },
    {
      "midi": 43,
      "hit": false,
      "t": 376573.57240625174,
      "d": 157.3514843750163,
      "v": 37
    },
    {
      "midi": 56,
      "hit": false,
      "t": 376678.4733958351,
      "d": 220.29207812499953,
      "v": 62
    },
    {
      "midi": 60,
      "hit": false,
      "t": 376741.41398958507,
      "d": 409.11385937506566,
      "v": 46
    },
    {
      "midi": 57,
      "hit": false,
      "t": 376940.72586979344,
      "d": 230.78217708336888,
      "v": 48
    },
    {
      "midi": 53,
      "hit": false,
      "t": 377276.4090364601,
      "d": 220.29207812499953,
      "v": 55
    },
    {
      "midi": 41,
      "hit": false,
      "t": 377402.2902239601,
      "d": 188.8217812499497,
      "v": 50
    },
    {
      "midi": 51,
      "hit": false,
      "t": 377643.56250000175,
      "d": 346.173265624966,
      "v": 52
    },
    {
      "midi": 48,
      "hit": false,
      "t": 377958.2654687517,
      "d": 94.41089062497485,
      "v": 57
    },
    {
      "midi": 30,
      "hit": false,
      "t": 378220.51794271,
      "d": 482.5445520833018,
      "v": 56
    },
    {
      "midi": 51,
      "hit": false,
      "t": 378231.00804166833,
      "d": 230.78217708331067,
      "v": 54
    },
    {
      "midi": 52,
      "hit": false,
      "t": 378535.22091146,
      "d": 220.29207812499953,
      "v": 60
    },
    {
      "midi": 53,
      "hit": false,
      "t": 378828.94368229335,
      "d": 220.29207812499953,
      "v": 75
    },
    {
      "midi": 29,
      "hit": false,
      "t": 378923.3545729183,
      "d": 765.777223958401,
      "v": 49
    },
    {
      "midi": 53,
      "hit": false,
      "t": 379185.6070468767,
      "d": 293.7227708333521,
      "v": 75
    },
    {
      "midi": 53,
      "hit": false,
      "t": 380318.53773437673,
      "d": 335.68316666665487,
      "v": 58
    },
    {
      "midi": 60,
      "hit": false,
      "t": 380937.45357291837,
      "d": 493.03465104161296,
      "v": 69
    },
    {
      "midi": 48,
      "hit": false,
      "t": 380937.45357291837,
      "d": 650.3861354166293,
      "v": 48
    },
    {
      "midi": 41,
      "hit": false,
      "t": 380947.9436718767,
      "d": 555.9752447916544,
      "v": 39
    },
    {
      "midi": 65,
      "hit": false,
      "t": 381419.9981250017,
      "d": 136.37128645833582,
      "v": 72
    },
    {
      "midi": 69,
      "hit": false,
      "t": 381745.19119271,
      "d": 157.3514843750163,
      "v": 78
    },
    {
      "midi": 70,
      "hit": false,
      "t": 382028.42386458506,
      "d": 209.8019791666884,
      "v": 80
    },
    {
      "midi": 71,
      "hit": false,
      "t": 382248.71594271006,
      "d": 157.3514843750163,
      "v": 68
    },
    {
      "midi": 72,
      "hit": false,
      "t": 382500.47831771005,
      "d": 157.3514843750163,
      "v": 85
    },
    {
      "midi": 72,
      "hit": false,
      "t": 382773.2208906267,
      "d": 1636.4554374999716,
      "v": 87
    },
    {
      "midi": 66,
      "hit": false,
      "t": 382804.6911875017,
      "d": 52.4504947916721,
      "v": 66
    },
    {
      "midi": 39,
      "hit": false,
      "t": 382836.1614843767,
      "d": 472.0544531249907,
      "v": 66
    },
    {
      "midi": 46,
      "hit": false,
      "t": 383245.2753437517,
      "d": 367.1534635416465,
      "v": 71
    },
    {
      "midi": 55,
      "hit": false,
      "t": 383654.3892031267,
      "d": 314.7029687499744,
      "v": 65
    },
    {
      "midi": 58,
      "hit": false,
      "t": 384094.9733593767,
      "d": 744.7970260416041,
      "v": 63
    },
    {
      "midi": 65,
      "hit": false,
      "t": 384608.988208335,
      "d": 755.2871249999152,
      "v": 63
    },
    {
      "midi": 61,
      "hit": false,
      "t": 384608.988208335,
      "d": 786.7574218749069,
      "v": 52
    },
    {
      "midi": 60,
      "hit": false,
      "t": 384619.4783072933,
      "d": 230.78217708331067,
      "v": 57
    },
    {
      "midi": 69,
      "hit": false,
      "t": 384640.45850521,
      "d": 765.7772239582264,
      "v": 50
    },
    {
      "midi": 72,
      "hit": false,
      "t": 385301.33473958494,
      "d": 251.76237499993294,
      "v": 63
    },
    {
      "midi": 73,
      "hit": false,
      "t": 385920.2505781265,
      "d": 398.6237604166381,
      "v": 60
    },
    {
      "midi": 63,
      "hit": false,
      "t": 385941.2307760432,
      "d": 472.0544531249907,
      "v": 52
    },
    {
      "midi": 68,
      "hit": false,
      "t": 385951.7208750015,
      "d": 419.6039583333186,
      "v": 59
    },
    {
      "midi": 41,
      "hit": false,
      "t": 386570.63671354315,
      "d": 2024.5890989581821,
      "v": 47
    },
    {
      "midi": 72,
      "hit": false,
      "t": 386581.12681250146,
      "d": 1090.9702916665701,
      "v": 53
    },
    {
      "midi": 62,
      "hit": false,
      "t": 386591.6169114598,
      "d": 1321.752468749939,
      "v": 47
    },
    {
      "midi": 67,
      "hit": false,
      "t": 386602.1070104181,
      "d": 954.5990052082925,
      "v": 52
    },
    {
      "midi": 57,
      "hit": false,
      "t": 386612.5971093764,
      "d": 1174.891083333292,
      "v": 39
    },
    {
      "midi": 48,
      "hit": false,
      "t": 387808.46839062637,
      "d": 1888.217812500021,
      "v": 51
    },
    {
      "midi": 69,
      "hit": false,
      "t": 388521.79511979304,
      "d": 1237.8316770833335,
      "v": 57
    },
    {
      "midi": 57,
      "hit": false,
      "t": 388532.28521875135,
      "d": 325.19306770834373,
      "v": 50
    },
    {
      "midi": 60,
      "hit": false,
      "t": 388532.28521875135,
      "d": 1227.3415781250224,
      "v": 57
    },
    {
      "midi": 65,
      "hit": false,
      "t": 388542.77531770966,
      "d": 1321.7524687499972,
      "v": 49
    },
    {
      "midi": 62,
      "hit": false,
      "t": 388574.24561458465,
      "d": 1353.2227656249888,
      "v": 45
    },
    {
      "midi": 41,
      "hit": false,
      "t": 389770.1168958347,
      "d": 188.8217812499497,
      "v": 49
    },
    {
      "midi": 58,
      "hit": false,
      "t": 390640.7951093763,
      "d": 1300.7722708333167,
      "v": 72
    },
    {
      "midi": 40,
      "hit": false,
      "t": 390661.775307293,
      "d": 818.2277187499567,
      "v": 54
    },
    {
      "midi": 67,
      "hit": false,
      "t": 390661.775307293,
      "d": 1049.0098958333256,
      "v": 63
    },
    {
      "midi": 62,
      "hit": false,
      "t": 390672.2654062513,
      "d": 1153.9108854166698,
      "v": 57
    },
    {
      "midi": 64,
      "hit": false,
      "t": 390672.2654062513,
      "d": 1216.851479166653,
      "v": 53
    },
    {
      "midi": 52,
      "hit": false,
      "t": 390682.7555052096,
      "d": 986.0693020833423,
      "v": 50
    },
    {
      "midi": 58,
      "hit": false,
      "t": 392791.26539583463,
      "d": 335.68316666665487,
      "v": 52
    },
    {
      "midi": 55,
      "hit": false,
      "t": 392801.75549479295,
      "d": 199.31188020831905,
      "v": 41
    },
    {
      "midi": 64,
      "hit": false,
      "t": 392801.75549479295,
      "d": 367.1534635417047,
      "v": 47
    },
    {
      "midi": 61,
      "hit": false,
      "t": 392801.75549479295,
      "d": 388.1336614583852,
      "v": 49
    },
    {
      "midi": 49,
      "hit": false,
      "t": 392812.24559375126,
      "d": 1258.8118750000722,
      "v": 41
    },
    {
      "midi": 45,
      "hit": false,
      "t": 392843.71589062625,
      "d": 1132.9306875001057,
      "v": 39
    },
    {
      "midi": 69,
      "hit": false,
      "t": 394060.567369793,
      "d": 272.74257291667163,
      "v": 111
    },
    {
      "midi": 77,
      "hit": false,
      "t": 394826.34459375136,
      "d": 870.6782135416288,
      "v": 127
    },
    {
      "midi": 50,
      "hit": false,
      "t": 394857.81489062635,
      "d": 1825.2772187499213,
      "v": 54
    },
    {
      "midi": 57,
      "hit": false,
      "t": 394857.81489062635,
      "d": 3367.321765624918,
      "v": 49
    },
    {
      "midi": 76,
      "hit": false,
      "t": 396011.72577604296,
      "d": 849.6980156249483,
      "v": 92
    },
    {
      "midi": 74,
      "hit": false,
      "t": 396767.01290104294,
      "d": 1164.400984374981,
      "v": 74
    },
    {
      "midi": 64,
      "hit": false,
      "t": 396777.50300000125,
      "d": 576.9554427083349,
      "v": 46
    },
    {
      "midi": 65,
      "hit": false,
      "t": 396777.50300000125,
      "d": 692.3465312499902,
      "v": 65
    },
    {
      "midi": 69,
      "hit": false,
      "t": 397994.3544791679,
      "d": 430.09405729174614,
      "v": 60
    },
    {
      "midi": 65,
      "hit": false,
      "t": 398015.3346770846,
      "d": 503.5247500000405,
      "v": 44
    },
    {
      "midi": 50,
      "hit": false,
      "t": 398067.78517187625,
      "d": 283.232671875041,
      "v": 38
    },
    {
      "midi": 48,
      "hit": false,
      "t": 398791.6020000013,
      "d": 2580.5643437501276,
      "v": 45
    },
    {
      "midi": 67,
      "hit": false,
      "t": 398812.582197918,
      "d": 534.9950468750321,
      "v": 68
    },
    {
      "midi": 57,
      "hit": false,
      "t": 398812.582197918,
      "d": 1594.495041666727,
      "v": 39
    },
    {
      "midi": 69,
      "hit": false,
      "t": 399421.00793750136,
      "d": 157.3514843750163,
      "v": 56
    },
    {
      "midi": 67,
      "hit": false,
      "t": 399525.9089270847,
      "d": 220.29207812499953,
      "v": 52
    },
    {
      "midi": 65,
      "hit": false,
      "t": 399714.7307083347,
      "d": 188.82178125000792,
      "v": 49
    },
    {
      "midi": 62,
      "hit": false,
      "t": 399987.4732812514,
      "d": 713.3267291666707,
      "v": 56
    },
    {
      "midi": 57,
      "hit": false,
      "t": 400889.62179166806,
      "d": 1846.2574166667182,
      "v": 39
    },
    {
      "midi": 62,
      "hit": false,
      "t": 400889.62179166806,
      "d": 1867.2376145833987,
      "v": 41
    },
    {
      "midi": 48,
      "hit": false,
      "t": 402064.5128750014,
      "d": 325.19306770834373,
      "v": 54
    },
    {
      "midi": 47,
      "hit": false,
      "t": 402819.80000000144,
      "d": 2496.6435520832893,
      "v": 61
    },
    {
      "midi": 62,
      "hit": false,
      "t": 403984.2009843765,
      "d": 545.4851458332851,
      "v": 115
    },
    {
      "midi": 65,
      "hit": false,
      "t": 403984.2009843765,
      "d": 597.9356406249572,
      "v": 102
    },
    {
      "midi": 57,
      "hit": false,
      "t": 404005.1811822931,
      "d": 534.9950468749739,
      "v": 71
    },
    {
      "midi": 65,
      "hit": false,
      "t": 404749.97820833477,
      "d": 1185.3811822916614,
      "v": 82
    },
    {
      "midi": 57,
      "hit": false,
      "t": 404749.97820833477,
      "d": 1227.3415781250224,
      "v": 57
    },
    {
      "midi": 62,
      "hit": false,
      "t": 404760.4683072931,
      "d": 681.8564322916791,
      "v": 88
    },
    {
      "midi": 47,
      "hit": false,
      "t": 405977.3197864598,
      "d": 136.37128645833582,
      "v": 41
    },
    {
      "midi": 62,
      "hit": false,
      "t": 405977.3197864598,
      "d": 314.7029687499744,
      "v": 60
    },
    {
      "midi": 62,
      "hit": false,
      "t": 406753.58710937644,
      "d": 220.29207812499953,
      "v": 54
    },
    {
      "midi": 60,
      "hit": false,
      "t": 406764.07720833475,
      "d": 83.92079166666372,
      "v": 48
    },
    {
      "midi": 57,
      "hit": false,
      "t": 406774.56730729307,
      "d": 1111.950489583367,
      "v": 49
    },
    {
      "midi": 46,
      "hit": false,
      "t": 406774.56730729307,
      "d": 2601.54454166675,
      "v": 43
    },
    {
      "midi": 65,
      "hit": false,
      "t": 406816.5277031264,
      "d": 262.2524739583605,
      "v": 43
    },
    {
      "midi": 67,
      "hit": false,
      "t": 407393.48314583476,
      "d": 188.82178125000792,
      "v": 60
    },
    {
      "midi": 68,
      "hit": false,
      "t": 407435.4435416681,
      "d": 62.940593749983236,
      "v": 66
    },
    {
      "midi": 69,
      "hit": false,
      "t": 407561.3247291681,
      "d": 157.3514843750163,
      "v": 56
    },
    {
      "midi": 72,
      "hit": false,
      "t": 408033.3791822931,
      "d": 125.88118750002468,
      "v": 64
    },
    {
      "midi": 74,
      "hit": false,
      "t": 408033.3791822931,
      "d": 157.3514843750163,
      "v": 63
    },
    {
      "midi": 57,
      "hit": false,
      "t": 408683.76531770977,
      "d": 1080.4801927083754,
      "v": 55
    },
    {
      "midi": 77,
      "hit": false,
      "t": 409218.7603645848,
      "d": 209.8019791666884,
      "v": 75
    },
    {
      "midi": 81,
      "hit": false,
      "t": 409711.79501562647,
      "d": 209.8019791666884,
      "v": 87
    },
    {
      "midi": 84,
      "hit": false,
      "t": 410225.8098645848,
      "d": 262.2524739583605,
      "v": 98
    },
    {
      "midi": 86,
      "hit": false,
      "t": 410813.2554062515,
      "d": 335.68316666665487,
      "v": 99
    },
    {
      "midi": 57,
      "hit": false,
      "t": 410844.7257031265,
      "d": 1594.4950416665524,
      "v": 56
    },
    {
      "midi": 50,
      "hit": false,
      "t": 410865.7059010432,
      "d": 3325.3613697913825,
      "v": 54
    },
    {
      "midi": 91,
      "hit": false,
      "t": 411463.64154166816,
      "d": 356.66336458333535,
      "v": 122
    },
    {
      "midi": 89,
      "hit": false,
      "t": 412061.5771822931,
      "d": 314.7029687499744,
      "v": 117
    },
    {
      "midi": 85,
      "hit": false,
      "t": 412512.6514375014,
      "d": 325.1930677082855,
      "v": 92
    },
    {
      "midi": 62,
      "hit": false,
      "t": 412932.2553958347,
      "d": 136.37128645833582,
      "v": 48
    },
    {
      "midi": 88,
      "hit": false,
      "t": 412932.2553958347,
      "d": 293.7227708333521,
      "v": 88
    },
    {
      "midi": 57,
      "hit": false,
      "t": 412953.23559375136,
      "d": 786.7574218749651,
      "v": 49
    },
    {
      "midi": 86,
      "hit": false,
      "t": 413341.3692552097,
      "d": 314.7029687499744,
      "v": 83
    },
    {
      "midi": 88,
      "hit": false,
      "t": 413404.3098489597,
      "d": 104.9009895833442,
      "v": 40
    },
    {
      "midi": 81,
      "hit": false,
      "t": 413750.48311458464,
      "d": 178.33168229163857,
      "v": 68
    },
    {
      "midi": 79,
      "hit": false,
      "t": 414180.57717187627,
      "d": 283.23267187498277,
      "v": 96
    },
    {
      "midi": 86,
      "hit": false,
      "t": 414222.5375677096,
      "d": 409.11385937500745,
      "v": 69
    },
    {
      "midi": 81,
      "hit": false,
      "t": 414537.2405364596,
      "d": 220.29207812499953,
      "v": 69
    },
    {
      "midi": 79,
      "hit": false,
      "t": 414715.57221875124,
      "d": 251.76237499999115,
      "v": 63
    },
    {
      "midi": 77,
      "hit": false,
      "t": 414956.8444947929,
      "d": 178.33168229169678,
      "v": 65
    },
    {
      "midi": 49,
      "hit": false,
      "t": 415082.72568229295,
      "d": 3094.5791927083046,
      "v": 42
    },
    {
      "midi": 57,
      "hit": false,
      "t": 415093.21578125126,
      "d": 1028.0296979167033,
      "v": 42
    },
    {
      "midi": 76,
      "hit": false,
      "t": 415261.05736458465,
      "d": 325.19306770834373,
      "v": 63
    },
    {
      "midi": 79,
      "hit": false,
      "t": 415649.191026043,
      "d": 272.74257291667163,
      "v": 81
    },
    {
      "midi": 77,
      "hit": false,
      "t": 416131.7355781263,
      "d": 199.31188020831905,
      "v": 83
    },
    {
      "midi": 76,
      "hit": false,
      "t": 416666.73062500125,
      "d": 199.31188020831905,
      "v": 89
    },
    {
      "midi": 73,
      "hit": false,
      "t": 417107.31478125125,
      "d": 251.76237499999115,
      "v": 79
    },
    {
      "midi": 57,
      "hit": false,
      "t": 417117.80488020956,
      "d": 849.6980156250647,
      "v": 45
    },
    {
      "midi": 69,
      "hit": false,
      "t": 417484.95834375126,
      "d": 136.37128645833582,
      "v": 57
    },
    {
      "midi": 64,
      "hit": false,
      "t": 417841.6217083346,
      "d": 136.37128645833582,
      "v": 56
    },
    {
      "midi": 61,
      "hit": false,
      "t": 418124.8543802096,
      "d": 146.86138541664695,
      "v": 63
    },
    {
      "midi": 49,
      "hit": false,
      "t": 418408.08705208456,
      "d": 314.7029687500326,
      "v": 48
    },
    {
      "midi": 57,
      "hit": false,
      "t": 418533.9682395846,
      "d": 52.4504947916721,
      "v": 50
    },
    {
      "midi": 48,
      "hit": false,
      "t": 418901.12170312623,
      "d": 2402.2326614583144,
      "v": 54
    },
    {
      "midi": 57,
      "hit": false,
      "t": 418964.0622968762,
      "d": 514.0148489583516,
      "v": 42
    },
    {
      "midi": 57,
      "hit": false,
      "t": 420159.93357812625,
      "d": 83.92079166666372,
      "v": 60
    },
    {
      "midi": 62,
      "hit": false,
      "t": 420862.77020833455,
      "d": 534.9950468749739,
      "v": 68
    },
    {
      "midi": 57,
      "hit": false,
      "t": 420883.75040625123,
      "d": 1290.2821718748892,
      "v": 42
    },
    {
      "midi": 64,
      "hit": false,
      "t": 421481.6860468762,
      "d": 534.9950468749739,
      "v": 66
    },
    {
      "midi": 62,
      "hit": false,
      "t": 422111.09198437614,
      "d": 178.33168229163857,
      "v": 55
    },
    {
      "midi": 48,
      "hit": false,
      "t": 422111.09198437614,
      "d": 251.76237499999115,
      "v": 47
    },
    {
      "midi": 65,
      "hit": false,
      "t": 422782.45831770945,
      "d": 1007.0494999999646,
      "v": 55
    },
    {
      "midi": 62,
      "hit": false,
      "t": 422803.4385156261,
      "d": 776.2673229166539,
      "v": 54
    },
    {
      "midi": 59,
      "hit": false,
      "t": 422824.4187135428,
      "d": 723.8168281249818,
      "v": 45
    },
    {
      "midi": 47,
      "hit": false,
      "t": 422855.8890104178,
      "d": 870.6782135416288,
      "v": 36
    },
    {
      "midi": 55,
      "hit": false,
      "t": 422876.8692083345,
      "d": 1049.0098958332674,
      "v": 33
    },
    {
      "midi": 47,
      "hit": false,
      "t": 424135.68108333444,
      "d": 912.6386093749898,
      "v": 49
    },
    {
      "midi": 62,
      "hit": false,
      "t": 424156.66128125106,
      "d": 534.9950468750321,
      "v": 66
    },
    {
      "midi": 55,
      "hit": false,
      "t": 424198.6216770844,
      "d": 178.33168229169678,
      "v": 39
    },
    {
      "midi": 59,
      "hit": false,
      "t": 424219.6018750011,
      "d": 388.13366145832697,
      "v": 45
    },
    {
      "midi": 55,
      "hit": false,
      "t": 424890.9682083344,
      "d": 188.82178125000792,
      "v": 66
    },
    {
      "midi": 65,
      "hit": false,
      "t": 425541.3543437511,
      "d": 419.6039583333186,
      "v": 85
    },
    {
      "midi": 69,
      "hit": false,
      "t": 425541.3543437511,
      "d": 493.03465104167117,
      "v": 79
    },
    {
      "midi": 76,
      "hit": false,
      "t": 425541.3543437511,
      "d": 493.03465104167117,
      "v": 96
    },
    {
      "midi": 64,
      "hit": false,
      "t": 425562.3345416678,
      "d": 524.5049479166628,
      "v": 81
    },
    {
      "midi": 73,
      "hit": false,
      "t": 425572.8246406261,
      "d": 83.92079166666372,
      "v": 52
    },
    {
      "midi": 74,
      "hit": false,
      "t": 426149.7800833345,
      "d": 241.27227604168002,
      "v": 67
    },
    {
      "midi": 62,
      "hit": false,
      "t": 426160.2701822928,
      "d": 597.9356406250154,
      "v": 71
    },
    {
      "midi": 65,
      "hit": false,
      "t": 426170.7602812511,
      "d": 83.92079166672193,
      "v": 30
    },
    {
      "midi": 69,
      "hit": false,
      "t": 426212.72067708446,
      "d": 104.9009895833442,
      "v": 36
    },
    {
      "midi": 79,
      "hit": false,
      "t": 426852.6167135428,
      "d": 618.9158385416376,
      "v": 84
    },
    {
      "midi": 73,
      "hit": false,
      "t": 426863.1068125011,
      "d": 723.8168281249818,
      "v": 80
    },
    {
      "midi": 64,
      "hit": false,
      "t": 426863.1068125011,
      "d": 1049.0098958333256,
      "v": 68
    },
    {
      "midi": 69,
      "hit": false,
      "t": 426873.5969114594,
      "d": 692.3465312499902,
      "v": 74
    },
    {
      "midi": 77,
      "hit": false,
      "t": 428017.01769791776,
      "d": 335.6831666667131,
      "v": 82
    },
    {
      "midi": 72,
      "hit": false,
      "t": 428037.99789583444,
      "d": 293.7227708333521,
      "v": 79
    },
    {
      "midi": 62,
      "hit": false,
      "t": 428058.9780937511,
      "d": 776.2673229166539,
      "v": 58
    },
    {
      "midi": 76,
      "hit": false,
      "t": 428814.26521875116,
      "d": 776.2673229165375,
      "v": 65
    },
    {
      "midi": 65,
      "hit": false,
      "t": 428824.75531770947,
      "d": 608.4257395832683,
      "v": 54
    },
    {
      "midi": 69,
      "hit": false,
      "t": 428824.75531770947,
      "d": 618.9158385415794,
      "v": 61
    },
    {
      "midi": 73,
      "hit": false,
      "t": 428845.7355156261,
      "d": 440.58415624999907,
      "v": 58
    },
    {
      "midi": 61,
      "hit": false,
      "t": 428845.7355156261,
      "d": 765.7772239582846,
      "v": 57
    },
    {
      "midi": 74,
      "hit": false,
      "t": 430062.5869947927,
      "d": 828.717817708326,
      "v": 71
    },
    {
      "midi": 69,
      "hit": false,
      "t": 430073.077093751,
      "d": 818.2277187500149,
      "v": 72
    },
    {
      "midi": 60,
      "hit": false,
      "t": 430094.0572916677,
      "d": 587.445541666646,
      "v": 60
    },
    {
      "midi": 65,
      "hit": false,
      "t": 430094.0572916677,
      "d": 954.5990052083507,
      "v": 62
    },
    {
      "midi": 49,
      "hit": false,
      "t": 432003.2553020844,
      "d": 639.8960364583181,
      "v": 66
    },
    {
      "midi": 61,
      "hit": false,
      "t": 432758.54242708435,
      "d": 1258.8118749998976,
      "v": 63
    },
    {
      "midi": 49,
      "hit": false,
      "t": 432769.03252604266,
      "d": 818.2277187499567,
      "v": 42
    },
    {
      "midi": 64,
      "hit": false,
      "t": 432779.522625001,
      "d": 1227.3415781249641,
      "v": 63
    },
    {
      "midi": 57,
      "hit": false,
      "t": 432790.0127239593,
      "d": 1521.064348958258,
      "v": 57
    },
    {
      "midi": 49,
      "hit": false,
      "t": 434111.7651927092,
      "d": 514.0148489582934,
      "v": 51
    },
    {
      "midi": 57,
      "hit": false,
      "t": 434971.9533072925,
      "d": 1237.8316770833335,
      "v": 50
    },
    {
      "midi": 60,
      "hit": false,
      "t": 434982.4434062508,
      "d": 923.1287083333591,
      "v": 54
    },
    {
      "midi": 65,
      "hit": false,
      "t": 434982.4434062508,
      "d": 1248.3217760417028,
      "v": 61
    },
    {
      "midi": 48,
      "hit": false,
      "t": 435003.4236041675,
      "d": 2832.3267187500023,
      "v": 47
    },
    {
      "midi": 60,
      "hit": false,
      "t": 436314.68597395916,
      "d": 94.41089062497485,
      "v": 59
    },
    {
      "midi": 71,
      "hit": false,
      "t": 436986.05230729247,
      "d": 461.56435416667955,
      "v": 94
    },
    {
      "midi": 57,
      "hit": false,
      "t": 437038.50280208414,
      "d": 765.7772239583428,
      "v": 46
    },
    {
      "midi": 72,
      "hit": false,
      "t": 437604.96814583417,
      "d": 346.173265624966,
      "v": 80
    },
    {
      "midi": 70,
      "hit": false,
      "t": 438087.51269791747,
      "d": 377.64356250001583,
      "v": 78
    },
    {
      "midi": 71,
      "hit": false,
      "t": 438517.60675520916,
      "d": 377.64356250001583,
      "v": 64
    },
    {
      "midi": 62,
      "hit": false,
      "t": 438947.70081250084,
      "d": 1384.6930625000386,
      "v": 40
    },
    {
      "midi": 56,
      "hit": false,
      "t": 438968.6810104175,
      "d": 1185.3811822916614,
      "v": 49
    },
    {
      "midi": 52,
      "hit": false,
      "t": 439000.1513072925,
      "d": 1122.4405885416782,
      "v": 32
    },
    {
      "midi": 72,
      "hit": false,
      "t": 439031.6216041675,
      "d": 272.74257291667163,
      "v": 39
    },
    {
      "midi": 75,
      "hit": false,
      "t": 439587.59684895916,
      "d": 293.7227708333521,
      "v": 72
    },
    {
      "midi": 76,
      "hit": false,
      "t": 439965.2404114592,
      "d": 178.33168229169678,
      "v": 73
    },
    {
      "midi": 77,
      "hit": false,
      "t": 440279.9433802092,
      "d": 146.86138541664695,
      "v": 72
    },
    {
      "midi": 80,
      "hit": false,
      "t": 440584.1562500009,
      "d": 157.3514843750163,
      "v": 77
    },
    {
      "midi": 83,
      "hit": false,
      "t": 440919.8394166675,
      "d": 199.31188020831905,
      "v": 71
    },
    {
      "midi": 67,
      "hit": false,
      "t": 441003.7602083342,
      "d": 891.6584114582511,
      "v": 52
    },
    {
      "midi": 62,
      "hit": false,
      "t": 441014.2503072925,
      "d": 891.6584114582511,
      "v": 46
    },
    {
      "midi": 56,
      "hit": false,
      "t": 441014.2503072925,
      "d": 1111.9504895832506,
      "v": 46
    },
    {
      "midi": 86,
      "hit": false,
      "t": 441339.44337500085,
      "d": 335.68316666665487,
      "v": 87
    },
    {
      "midi": 83,
      "hit": false,
      "t": 441748.5572343758,
      "d": 94.41089062497485,
      "v": 61
    },
    {
      "midi": 84,
      "hit": false,
      "t": 442021.2998072924,
      "d": 272.74257291667163,
      "v": 70
    },
    {
      "midi": 86,
      "hit": false,
      "t": 442273.0621822924,
      "d": 157.3514843750163,
      "v": 61
    },
    {
      "midi": 87,
      "hit": false,
      "t": 442472.3740625008,
      "d": 52.4504947916721,
      "v": 60
    },
    {
      "midi": 88,
      "hit": false,
      "t": 442713.64633854246,
      "d": 199.31188020831905,
      "v": 57
    },
    {
      "midi": 93,
      "hit": false,
      "t": 442975.89881250076,
      "d": 157.3514843749581,
      "v": 70
    },
    {
      "midi": 55,
      "hit": false,
      "t": 443217.1710885424,
      "d": 660.8762343749404,
      "v": 49
    },
    {
      "midi": 45,
      "hit": false,
      "t": 443248.6413854174,
      "d": 503.5247499999823,
      "v": 45
    },
    {
      "midi": 52,
      "hit": false,
      "t": 443248.6413854174,
      "d": 534.9950468749739,
      "v": 41
    },
    {
      "midi": 96,
      "hit": false,
      "t": 443248.6413854174,
      "d": 566.4653437499655,
      "v": 111
    },
    {
      "midi": 93,
      "hit": false,
      "t": 443720.69583854236,
      "d": 272.7425729166134,
      "v": 80
    },
    {
      "midi": 85,
      "hit": false,
      "t": 444161.2799947923,
      "d": 241.27227604168002,
      "v": 66
    },
    {
      "midi": 85,
      "hit": false,
      "t": 444633.3344479173,
      "d": 199.31188020831905,
      "v": 68
    },
    {
      "midi": 65,
      "hit": false,
      "t": 445189.30969270895,
      "d": 524.5049479166046,
      "v": 44
    },
    {
      "midi": 85,
      "hit": false,
      "t": 445199.79979166726,
      "d": 241.2722760416218,
      "v": 65
    },
    {
      "midi": 61,
      "hit": false,
      "t": 445210.2898906256,
      "d": 576.9554427083349,
      "v": 39
    },
    {
      "midi": 60,
      "hit": false,
      "t": 445252.2502864589,
      "d": 545.4851458333433,
      "v": 27
    },
    {
      "midi": 55,
      "hit": false,
      "t": 445252.2502864589,
      "d": 660.8762343749986,
      "v": 39
    },
    {
      "midi": 38,
      "hit": false,
      "t": 447224.3888906255,
      "d": 566.4653437499655,
      "v": 63
    },
    {
      "midi": 96,
      "hit": false,
      "t": 447885.26512500044,
      "d": 220.29207812488312,
      "v": 82
    },
    {
      "midi": 87,
      "hit": false,
      "t": 447895.75522395875,
      "d": 199.31188020826085,
      "v": 82
    },
    {
      "midi": 92,
      "hit": false,
      "t": 447906.24532291706,
      "d": 178.33168229163857,
      "v": 72
    },
    {
      "midi": 89,
      "hit": false,
      "t": 448283.88888541696,
      "d": 220.29207812499953,
      "v": 94
    },
    {
      "midi": 94,
      "hit": false,
      "t": 448283.88888541696,
      "d": 272.74257291667163,
      "v": 80
    },
    {
      "midi": 98,
      "hit": false,
      "t": 448283.88888541696,
      "d": 283.23267187498277,
      "v": 90
    },
    {
      "midi": 98,
      "hit": false,
      "t": 448745.4532395836,
      "d": 167.84158333338564,
      "v": 83
    },
    {
      "midi": 89,
      "hit": false,
      "t": 448766.43343750027,
      "d": 104.9009895833442,
      "v": 72
    },
    {
      "midi": 94,
      "hit": false,
      "t": 448766.43343750027,
      "d": 209.8019791666884,
      "v": 80
    },
    {
      "midi": 65,
      "hit": false,
      "t": 449102.1166041669,
      "d": 430.0940572916297,
      "v": 45
    },
    {
      "midi": 96,
      "hit": false,
      "t": 449112.60670312523,
      "d": 293.7227708333521,
      "v": 63
    },
    {
      "midi": 92,
      "hit": false,
      "t": 449112.60670312523,
      "d": 304.21286979166325,
      "v": 61
    },
    {
      "midi": 54,
      "hit": false,
      "t": 449112.60670312523,
      "d": 566.4653437499655,
      "v": 39
    },
    {
      "midi": 60,
      "hit": false,
      "t": 449112.60670312523,
      "d": 576.9554427082767,
      "v": 48
    },
    {
      "midi": 87,
      "hit": false,
      "t": 449133.5869010419,
      "d": 178.33168229163857,
      "v": 56
    },
    {
      "midi": 87,
      "hit": false,
      "t": 449721.0324427085,
      "d": 157.3514843750163,
      "v": 54
    },
    {
      "midi": 92,
      "hit": false,
      "t": 449742.0126406252,
      "d": 230.78217708331067,
      "v": 56
    },
    {
      "midi": 96,
      "hit": false,
      "t": 449742.0126406252,
      "d": 230.78217708331067,
      "v": 45
    },
    {
      "midi": 89,
      "hit": false,
      "t": 450130.1463020835,
      "d": 241.27227604168002,
      "v": 61
    },
    {
      "midi": 94,
      "hit": false,
      "t": 450130.1463020835,
      "d": 314.7029687500326,
      "v": 63
    },
    {
      "midi": 98,
      "hit": false,
      "t": 450130.1463020835,
      "d": 325.19306770834373,
      "v": 71
    },
    {
      "midi": 98,
      "hit": false,
      "t": 450759.5522395835,
      "d": 188.8217812499497,
      "v": 68
    },
    {
      "midi": 94,
      "hit": false,
      "t": 450770.0423385418,
      "d": 209.8019791666302,
      "v": 59
    },
    {
      "midi": 89,
      "hit": false,
      "t": 450780.53243750014,
      "d": 73.43069270835258,
      "v": 63
    },
    {
      "midi": 43,
      "hit": false,
      "t": 451210.62649479177,
      "d": 671.3663333333097,
      "v": 48
    },
    {
      "midi": 31,
      "hit": false,
      "t": 451231.60669270845,
      "d": 555.9752447916544,
      "v": 58
    },
    {
      "midi": 77,
      "hit": false,
      "t": 452238.6561927084,
      "d": 241.27227604168002,
      "v": 88
    },
    {
      "midi": 80,
      "hit": false,
      "t": 452238.6561927084,
      "d": 377.64356250001583,
      "v": 92
    },
    {
      "midi": 85,
      "hit": false,
      "t": 452238.6561927084,
      "d": 388.13366145832697,
      "v": 96
    },
    {
      "midi": 85,
      "hit": false,
      "t": 452847.08193229174,
      "d": 220.29207812499953,
      "v": 75
    },
    {
      "midi": 80,
      "hit": false,
      "t": 452857.57203125005,
      "d": 167.84158333332743,
      "v": 68
    },
    {
      "midi": 77,
      "hit": false,
      "t": 452878.55222916673,
      "d": 52.4504947916721,
      "v": 58
    },
    {
      "midi": 87,
      "hit": false,
      "t": 453224.72549479175,
      "d": 325.19306770834373,
      "v": 82
    },
    {
      "midi": 63,
      "hit": false,
      "t": 453224.72549479175,
      "d": 818.2277187500149,
      "v": 57
    },
    {
      "midi": 59,
      "hit": false,
      "t": 453224.72549479175,
      "d": 1416.163359374972,
      "v": 57
    },
    {
      "midi": 79,
      "hit": false,
      "t": 453245.70569270843,
      "d": 283.23267187498277,
      "v": 73
    },
    {
      "midi": 82,
      "hit": false,
      "t": 453245.70569270843,
      "d": 419.6039583333186,
      "v": 81
    },
    {
      "midi": 53,
      "hit": false,
      "t": 453277.1759895834,
      "d": 1174.8910833333503,
      "v": 48
    },
    {
      "midi": 87,
      "hit": false,
      "t": 453801.6809375001,
      "d": 167.84158333332743,
      "v": 74
    },
    {
      "midi": 75,
      "hit": false,
      "t": 454200.3046979168,
      "d": 262.2524739583023,
      "v": 48
    },
    {
      "midi": 63,
      "hit": false,
      "t": 454210.7947968751,
      "d": 262.2524739583023,
      "v": 50
    },
    {
      "midi": 79,
      "hit": false,
      "t": 454210.7947968751,
      "d": 314.7029687499744,
      "v": 50
    },
    {
      "midi": 84,
      "hit": false,
      "t": 454231.7749947918,
      "d": 272.7425729166134,
      "v": 48
    },
    {
      "midi": 58,
      "hit": false,
      "t": 456728.41854687507,
      "d": 314.7029687499744,
      "v": 85
    },
    {
      "midi": 69,
      "hit": false,
      "t": 456738.9086458334,
      "d": 283.23267187498277,
      "v": 72
    },
    {
      "midi": 62,
      "hit": false,
      "t": 456738.9086458334,
      "d": 325.1930677082855,
      "v": 78
    },
    {
      "midi": 65,
      "hit": false,
      "t": 456749.3987447917,
      "d": 304.21286979166325,
      "v": 65
    },
    {
      "midi": 57,
      "hit": false,
      "t": 456780.8690416667,
      "d": 335.68316666665487,
      "v": 73
    },
    {
      "midi": 62,
      "hit": false,
      "t": 457242.43339583336,
      "d": 178.33168229163857,
      "v": 57
    },
    {
      "midi": 58,
      "hit": false,
      "t": 457252.92349479167,
      "d": 136.37128645833582,
      "v": 58
    },
    {
      "midi": 55,
      "hit": false,
      "t": 457252.92349479167,
      "d": 209.8019791666884,
      "v": 53
    },
    {
      "midi": 67,
      "hit": false,
      "t": 457252.92349479167,
      "d": 241.27227604168002,
      "v": 60
    },
    {
      "midi": 75,
      "hit": false,
      "t": 457850.8591354167,
      "d": 314.7029687500326,
      "v": 82
    },
    {
      "midi": 64,
      "hit": false,
      "t": 457871.83933333337,
      "d": 304.21286979166325,
      "v": 72
    },
    {
      "midi": 68,
      "hit": false,
      "t": 457871.83933333337,
      "d": 304.21286979166325,
      "v": 68
    },
    {
      "midi": 58,
      "hit": false,
      "t": 457871.83933333337,
      "d": 325.19306770834373,
      "v": 70
    },
    {
      "midi": 56,
      "hit": false,
      "t": 458469.7749739583,
      "d": 62.94059374992503,
      "v": 57
    },
    {
      "midi": 73,
      "hit": false,
      "t": 458480.26507291663,
      "d": 283.23267187492456,
      "v": 62
    },
    {
      "midi": 68,
      "hit": false,
      "t": 458490.75517187495,
      "d": 346.173265624966,
      "v": 68
    },
    {
      "midi": 64,
      "hit": false,
      "t": 458522.22546874994,
      "d": 178.33168229163857,
      "v": 57
    },
    {
      "midi": 62,
      "hit": false,
      "t": 459088.6908124999,
      "d": 346.1732656250242,
      "v": 51
    },
    {
      "midi": 67,
      "hit": false,
      "t": 459088.6908124999,
      "d": 566.4653437500237,
      "v": 53
    },
    {
      "midi": 41,
      "hit": false,
      "t": 459088.6908124999,
      "d": 618.9158385416958,
      "v": 56
    },
    {
      "midi": 72,
      "hit": false,
      "t": 459088.6908124999,
      "d": 681.8564322916791,
      "v": 59
    },
    {
      "midi": 48,
      "hit": false,
      "t": 459088.6908124999,
      "d": 1195.8712812500307,
      "v": 58
    },
    {
      "midi": 41,
      "hit": false,
      "t": 460378.9729843749,
      "d": 167.84158333332743,
      "v": 68
    },
    {
      "midi": 68,
      "hit": false,
      "t": 461123.77001041657,
      "d": 104.90098958328599,
      "v": 75
    },
    {
      "midi": 67,
      "hit": false,
      "t": 461134.2601093749,
      "d": 146.86138541664695,
      "v": 58
    },
    {
      "midi": 64,
      "hit": false,
      "t": 461165.7304062499,
      "d": 545.4851458332851,
      "v": 65
    },
    {
      "midi": 60,
      "hit": false,
      "t": 461176.2205052082,
      "d": 608.4257395833265,
      "v": 53
    },
    {
      "midi": 53,
      "hit": false,
      "t": 461176.2205052082,
      "d": 744.7970260416623,
      "v": 50
    },
    {
      "midi": 57,
      "hit": false,
      "t": 461197.20070312486,
      "d": 608.4257395833265,
      "v": 48
    },
    {
      "midi": 69,
      "hit": false,
      "t": 461239.16109895817,
      "d": 325.19306770834373,
      "v": 71
    },
    {
      "midi": 72,
      "hit": false,
      "t": 461837.0967395832,
      "d": 346.1732656250242,
      "v": 122
    },
    {
      "midi": 74,
      "hit": false,
      "t": 462497.9729739582,
      "d": 451.0742552083102,
      "v": 122
    },
    {
      "midi": 72,
      "hit": false,
      "t": 463179.82940624986,
      "d": 157.3514843750163,
      "v": 87
    },
    {
      "midi": 50,
      "hit": false,
      "t": 463200.80960416654,
      "d": 755.2871249999735,
      "v": 55
    },
    {
      "midi": 41,
      "hit": false,
      "t": 463893.15613541653,
      "d": 1132.9306875000475,
      "v": 48
    },
    {
      "midi": 58,
      "hit": false,
      "t": 464501.58187499986,
      "d": 597.9356406250154,
      "v": 63
    },
    {
      "midi": 65,
      "hit": false,
      "t": 464522.56207291654,
      "d": 419.6039583333768,
      "v": 56
    },
    {
      "midi": 50,
      "hit": false,
      "t": 464554.03236979153,
      "d": 566.4653437500237,
      "v": 48
    },
    {
      "midi": 49,
      "hit": false,
      "t": 464606.4828645832,
      "d": 555.9752447917126,
      "v": 46
    },
    {
      "midi": 41,
      "hit": false,
      "t": 465204.4185052083,
      "d": 576.9554427083349,
      "v": 52
    },
    {
      "midi": 65,
      "hit": false,
      "t": 465204.4185052083,
      "d": 1573.5148437500466,
      "v": 41
    },
    {
      "midi": 57,
      "hit": false,
      "t": 465246.37890104164,
      "d": 1122.44058854162,
      "v": 57
    },
    {
      "midi": 48,
      "hit": false,
      "t": 465256.86899999995,
      "d": 1363.7128645833582,
      "v": 52
    },
    {
      "midi": 41,
      "hit": false,
      "t": 466494.7006770833,
      "d": 209.8019791666884,
      "v": 56
    },
    {
      "midi": 58,
      "hit": false,
      "t": 467187.04720833333,
      "d": 335.6831666667131,
      "v": 50
    },
    {
      "midi": 55,
      "hit": false,
      "t": 467208.02740625,
      "d": 178.33168229169678,
      "v": 45
    },
    {
      "midi": 62,
      "hit": false,
      "t": 467208.02740625,
      "d": 325.19306770834373,
      "v": 51
    },
    {
      "midi": 40,
      "hit": false,
      "t": 467208.02740625,
      "d": 524.5049479166628,
      "v": 43
    },
    {
      "midi": 50,
      "hit": false,
      "t": 467249.9878020834,
      "d": 618.9158385416376,
      "v": 41
    },
    {
      "midi": 62,
      "hit": false,
      "t": 467942.33433333336,
      "d": 230.78217708331067,
      "v": 69
    },
    {
      "midi": 67,
      "hit": false,
      "t": 468529.779875,
      "d": 451.0742552083102,
      "v": 81
    },
    {
      "midi": 70,
      "hit": false,
      "t": 469180.16601041664,
      "d": 524.5049479166628,
      "v": 71
    },
    {
      "midi": 58,
      "hit": false,
      "t": 469201.1462083333,
      "d": 1080.4801927083754,
      "v": 44
    },
    {
      "midi": 62,
      "hit": false,
      "t": 469201.1462083333,
      "d": 1332.2425677083666,
      "v": 48
    },
    {
      "midi": 52,
      "hit": false,
      "t": 469264.0868020833,
      "d": 996.5594010417117,
      "v": 37
    },
    {
      "midi": 67,
      "hit": false,
      "t": 469862.0224427083,
      "d": 325.19306770834373,
      "v": 63
    },
    {
      "midi": 69,
      "hit": false,
      "t": 470512.408578125,
      "d": 356.66336458333535,
      "v": 115
    },
    {
      "midi": 70,
      "hit": false,
      "t": 471152.3046145833,
      "d": 555.9752447917126,
      "v": 98
    },
    {
      "midi": 61,
      "hit": false,
      "t": 471194.2650104167,
      "d": 650.3861354166875,
      "v": 57
    },
    {
      "midi": 65,
      "hit": false,
      "t": 471215.24520833336,
      "d": 430.09405729168793,
      "v": 56
    },
    {
      "midi": 55,
      "hit": false,
      "t": 471236.22540625004,
      "d": 671.3663333333097,
      "v": 48
    },
    {
      "midi": 72,
      "hit": false,
      "t": 471855.1412447917,
      "d": 220.29207812499953,
      "v": 64
    },
    {
      "midi": 70,
      "hit": false,
      "t": 471939.06203645834,
      "d": 94.41089062497485,
      "v": 37
    },
    {
      "midi": 61,
      "hit": false,
      "t": 472505.52738020837,
      "d": 482.54455208336003,
      "v": 63
    },
    {
      "midi": 55,
      "hit": false,
      "t": 473145.4234166667,
      "d": 388.1336614583852,
      "v": 41
    },
    {
      "midi": 45,
      "hit": false,
      "t": 473187.38381250005,
      "d": 818.2277187500149,
      "v": 39
    },
    {
      "midi": 63,
      "hit": false,
      "t": 473197.87391145836,
      "d": 608.4257395833847,
      "v": 57
    },
    {
      "midi": 55,
      "hit": false,
      "t": 473837.76994791673,
      "d": 440.58415624999907,
      "v": 72
    },
    {
      "midi": 57,
      "hit": false,
      "t": 474488.1560833334,
      "d": 555.9752447916544,
      "v": 86
    },
    {
      "midi": 26,
      "hit": false,
      "t": 475149.0323177084,
      "d": 1237.8316770833335,
      "v": 75
    },
    {
      "midi": 69,
      "hit": false,
      "t": 477362.4431979167,
      "d": 335.68316666665487,
      "v": 48
    },
    {
      "midi": 65,
      "hit": false,
      "t": 477362.4431979167,
      "d": 807.7376197916456,
      "v": 43
    },
    {
      "midi": 62,
      "hit": false,
      "t": 477383.4233958334,
      "d": 1017.5395989582757,
      "v": 52
    },
    {
      "midi": 76,
      "hit": false,
      "t": 478684.19566666667,
      "d": 220.29207812499953,
      "v": 70
    },
    {
      "midi": 76,
      "hit": false,
      "t": 479428.9926927083,
      "d": 692.3465312499902,
      "v": 59
    },
    {
      "midi": 61,
      "hit": false,
      "t": 479428.9926927083,
      "d": 1111.950489583367,
      "v": 46
    },
    {
      "midi": 65,
      "hit": false,
      "t": 479449.972890625,
      "d": 650.3861354166293,
      "v": 36
    },
    {
      "midi": 69,
      "hit": false,
      "t": 479449.972890625,
      "d": 744.7970260416623,
      "v": 49
    },
    {
      "midi": 76,
      "hit": false,
      "t": 480635.35407291667,
      "d": 451.0742552083102,
      "v": 67
    },
    {
      "midi": 65,
      "hit": false,
      "t": 481380.15109895833,
      "d": 608.4257395833265,
      "v": 38
    },
    {
      "midi": 74,
      "hit": false,
      "t": 481380.15109895833,
      "d": 944.1089062499814,
      "v": 57
    },
    {
      "midi": 69,
      "hit": false,
      "t": 481401.131296875,
      "d": 702.8366302083014,
      "v": 42
    },
    {
      "midi": 60,
      "hit": false,
      "t": 481411.6213958333,
      "d": 461.56435416667955,
      "v": 39
    },
    {
      "midi": 65,
      "hit": false,
      "t": 482638.9629739583,
      "d": 73.43069270835258,
      "v": 52
    },
    {
      "midi": 62,
      "hit": false,
      "t": 483373.26990104164,
      "d": 461.56435416667955,
      "v": 39
    },
    {
      "midi": 55,
      "hit": false,
      "t": 483394.2500989583,
      "d": 461.56435416667955,
      "v": 36
    },
    {
      "midi": 65,
      "hit": false,
      "t": 483404.74019791663,
      "d": 430.09405729168793,
      "v": 49
    },
    {
      "midi": 47,
      "hit": false,
      "t": 483404.74019791663,
      "d": 461.56435416667955,
      "v": 39
    },
    {
      "midi": 62,
      "hit": false,
      "t": 484139.047125,
      "d": 136.3712864582776,
      "v": 43
    },
    {
      "midi": 65,
      "hit": false,
      "t": 484139.047125,
      "d": 146.86138541658875,
      "v": 39
    },
    {
      "midi": 55,
      "hit": false,
      "t": 484170.517421875,
      "d": 115.39108854159713,
      "v": 29
    },
    {
      "midi": 47,
      "hit": false,
      "t": 484181.0075208333,
      "d": 115.39108854159713,
      "v": 28
    },
    {
      "midi": 62,
      "hit": false,
      "t": 485418.83919791656,
      "d": 482.5445520833018,
      "v": 37
    },
    {
      "midi": 65,
      "hit": false,
      "t": 485418.83919791656,
      "d": 514.0148489582934,
      "v": 40
    },
    {
      "midi": 55,
      "hit": false,
      "t": 485429.3292968749,
      "d": 451.0742552083102,
      "v": 26
    },
    {
      "midi": 47,
      "hit": false,
      "t": 485439.8193958332,
      "d": 388.13366145832697,
      "v": 33
    },
    {
      "midi": 62,
      "hit": false,
      "t": 486195.1065208332,
      "d": 94.41089062497485,
      "v": 60
    },
    {
      "midi": 65,
      "hit": false,
      "t": 486205.5966197915,
      "d": 62.940593749983236,
      "v": 57
    },
    {
      "midi": 55,
      "hit": false,
      "t": 486205.5966197915,
      "d": 125.88118749996647,
      "v": 57
    },
    {
      "midi": 47,
      "hit": false,
      "t": 486216.08671874984,
      "d": 94.41089062497485,
      "v": 50
    },
    {
      "midi": 56,
      "hit": false,
      "t": 487527.34908854146,
      "d": 576.9554427083349,
      "v": 43
    },
    {
      "midi": 46,
      "hit": false,
      "t": 487537.8391874998,
      "d": 524.5049479166628,
      "v": 41
    },
    {
      "midi": 65,
      "hit": false,
      "t": 487558.81938541646,
      "d": 472.0544531249907,
      "v": 39
    },
    {
      "midi": 64,
      "hit": false,
      "t": 487590.28968229145,
      "d": 251.76237499999115,
      "v": 46
    },
    {
      "midi": 60,
      "hit": false,
      "t": 487590.28968229145,
      "d": 472.0544531249907,
      "v": 26
    },
    {
      "midi": 56,
      "hit": false,
      "t": 488282.63621354144,
      "d": 125.88118749996647,
      "v": 47
    },
    {
      "midi": 46,
      "hit": false,
      "t": 488293.12631249975,
      "d": 104.9009895833442,
      "v": 42
    },
    {
      "midi": 65,
      "hit": false,
      "t": 488293.12631249975,
      "d": 167.84158333332743,
      "v": 59
    },
    {
      "midi": 60,
      "hit": false,
      "t": 488324.59660937474,
      "d": 73.43069270835258,
      "v": 28
    },
    {
      "midi": 46,
      "hit": false,
      "t": 489551.93818749976,
      "d": 451.0742552084266,
      "v": 41
    },
    {
      "midi": 56,
      "hit": false,
      "t": 489551.93818749976,
      "d": 503.5247500000405,
      "v": 42
    },
    {
      "midi": 65,
      "hit": false,
      "t": 489572.91838541644,
      "d": 472.0544531250489,
      "v": 39
    },
    {
      "midi": 58,
      "hit": false,
      "t": 489593.8985833331,
      "d": 419.6039583333768,
      "v": 38
    },
    {
      "midi": 64,
      "hit": false,
      "t": 489614.8787812498,
      "d": 440.58415624999907,
      "v": 46
    },
    {
      "midi": 60,
      "hit": false,
      "t": 489656.83917708317,
      "d": 346.1732656250242,
      "v": 40
    },
    {
      "midi": 58,
      "hit": false,
      "t": 490254.7748177081,
      "d": 41.960395833302755,
      "v": 63
    },
    {
      "midi": 56,
      "hit": false,
      "t": 490254.7748177081,
      "d": 104.90098958328599,
      "v": 49
    },
    {
      "midi": 60,
      "hit": false,
      "t": 490265.26491666643,
      "d": 62.940593749983236,
      "v": 52
    },
    {
      "midi": 65,
      "hit": false,
      "t": 490265.26491666643,
      "d": 157.3514843749581,
      "v": 45
    },
    {
      "midi": 46,
      "hit": false,
      "t": 490265.26491666643,
      "d": 167.84158333326923,
      "v": 55
    },
    {
      "midi": 46,
      "hit": false,
      "t": 491230.35402083304,
      "d": 115.39108854165534,
      "v": 38
    },
    {
      "midi": 67,
      "hit": false,
      "t": 491492.60649479134,
      "d": 1080.4801927083172,
      "v": 64
    },
    {
      "midi": 64,
      "hit": false,
      "t": 491503.09659374965,
      "d": 849.6980156250065,
      "v": 56
    },
    {
      "midi": 60,
      "hit": false,
      "t": 491503.09659374965,
      "d": 860.1881145833177,
      "v": 51
    },
    {
      "midi": 55,
      "hit": false,
      "t": 491545.056989583,
      "d": 954.5990052082925,
      "v": 51
    },
    {
      "midi": 45,
      "hit": false,
      "t": 491576.527286458,
      "d": 1877.7277135415934,
      "v": 43
    },
    {
      "midi": 60,
      "hit": false,
      "t": 492709.457973958,
      "d": 262.2524739583023,
      "v": 77
    },
    {
      "midi": 69,
      "hit": false,
      "t": 492709.457973958,
      "d": 388.13366145832697,
      "v": 72
    },
    {
      "midi": 65,
      "hit": false,
      "t": 492719.9480729163,
      "d": 314.7029687500326,
      "v": 63
    },
    {
      "midi": 62,
      "hit": false,
      "t": 492730.4381718746,
      "d": 283.232671875041,
      "v": 77
    },
    {
      "midi": 72,
      "hit": false,
      "t": 493433.274802083,
      "d": 493.03465104161296,
      "v": 80
    },
    {
      "midi": 64,
      "hit": false,
      "t": 493454.2549999996,
      "d": 335.68316666665487,
      "v": 78
    },
    {
      "midi": 67,
      "hit": false,
      "t": 493454.2549999996,
      "d": 440.58415624999907,
      "v": 77
    },
    {
      "midi": 57,
      "hit": false,
      "t": 493464.7450989579,
      "d": 346.1732656250242,
      "v": 75
    },
    {
      "midi": 69,
      "hit": false,
      "t": 493464.7450989579,
      "d": 409.11385937500745,
      "v": 71
    },
    {
      "midi": 74,
      "hit": false,
      "t": 494618.6559843746,
      "d": 241.2722760416218,
      "v": 80
    },
    {
      "midi": 60,
      "hit": false,
      "t": 494629.1460833329,
      "d": 157.3514843750163,
      "v": 62
    },
    {
      "midi": 67,
      "hit": false,
      "t": 494629.1460833329,
      "d": 167.84158333332743,
      "v": 68
    },
    {
      "midi": 69,
      "hit": false,
      "t": 494629.1460833329,
      "d": 251.76237499999115,
      "v": 75
    },
    {
      "midi": 66,
      "hit": false,
      "t": 495394.92330729123,
      "d": 692.3465312499902,
      "v": 78
    },
    {
      "midi": 72,
      "hit": false,
      "t": 495426.3936041662,
      "d": 1625.9653385416605,
      "v": 58
    },
    {
      "midi": 60,
      "hit": false,
      "t": 495447.3738020829,
      "d": 1269.301973958325,
      "v": 57
    },
    {
      "midi": 50,
      "hit": false,
      "t": 495489.33419791627,
      "d": 2381.252463541634,
      "v": 48
    },
    {
      "midi": 66,
      "hit": false,
      "t": 496192.17082812457,
      "d": 870.6782135416288,
      "v": 48
    },
    {
      "midi": 76,
      "hit": false,
      "t": 496202.6609270829,
      "d": 902.1485104166786,
      "v": 82
    },
    {
      "midi": 60,
      "hit": false,
      "t": 497534.90349479124,
      "d": 178.33168229163857,
      "v": 55
    },
    {
      "midi": 66,
      "hit": false,
      "t": 498762.2450729162,
      "d": 251.76237500004936,
      "v": 63
    },
    {
      "midi": 74,
      "hit": false,
      "t": 498804.20546874957,
      "d": 136.37128645833582,
      "v": 56
    },
    {
      "midi": 50,
      "hit": false,
      "t": 498814.6955677079,
      "d": 702.8366302083596,
      "v": 48
    },
    {
      "midi": 43,
      "hit": false,
      "t": 499590.9628906246,
      "d": 1007.0495000000228,
      "v": 54
    },
    {
      "midi": 74,
      "hit": false,
      "t": 499590.9628906246,
      "d": 1080.4801927083754,
      "v": 68
    },
    {
      "midi": 77,
      "hit": false,
      "t": 499590.9628906246,
      "d": 1090.9702916666865,
      "v": 65
    },
    {
      "midi": 70,
      "hit": false,
      "t": 499590.9628906246,
      "d": 1153.9108854166698,
      "v": 61
    },
    {
      "midi": 65,
      "hit": false,
      "t": 499590.9628906246,
      "d": 1185.3811822916614,
      "v": 63
    },
    {
      "midi": 53,
      "hit": false,
      "t": 499653.90348437463,
      "d": 1353.2227656249306,
      "v": 29
    },
    {
      "midi": 53,
      "hit": false,
      "t": 501573.5915937496,
      "d": 451.0742552083102,
      "v": 49
    },
    {
      "midi": 43,
      "hit": false,
      "t": 501605.0618906246,
      "d": 650.3861354166293,
      "v": 45
    },
    {
      "midi": 60,
      "hit": false,
      "t": 502223.9777291662,
      "d": 115.39108854165534,
      "v": 42
    },
    {
      "midi": 61,
      "hit": false,
      "t": 502276.4282239579,
      "d": 146.86138541664695,
      "v": 63
    },
    {
      "midi": 62,
      "hit": false,
      "t": 502454.7599062495,
      "d": 167.84158333332743,
      "v": 52
    },
    {
      "midi": 65,
      "hit": false,
      "t": 502863.87376562454,
      "d": 398.6237604166381,
      "v": 122
    },
    {
      "midi": 65,
      "hit": false,
      "t": 503545.7301979162,
      "d": 870.6782135415124,
      "v": 75
    },
    {
      "midi": 36,
      "hit": false,
      "t": 503556.2202968745,
      "d": 503.5247499998659,
      "v": 54
    },
    {
      "midi": 24,
      "hit": false,
      "t": 503566.71039583284,
      "d": 346.1732656249078,
      "v": 49
    },
    {
      "midi": 62,
      "hit": false,
      "t": 503577.20049479115,
      "d": 744.7970260416041,
      "v": 66
    },
    {
      "midi": 58,
      "hit": false,
      "t": 503587.69059374946,
      "d": 692.346531249932,
      "v": 61
    },
    {
      "midi": 64,
      "hit": false,
      "t": 504815.03217187437,
      "d": 209.8019791666884,
      "v": 81
    },
    {
      "midi": 72,
      "hit": false,
      "t": 505612.2796927077,
      "d": 986.0693020832841,
      "v": 96
    },
    {
      "midi": 46,
      "hit": false,
      "t": 505612.2796927077,
      "d": 1625.9653385416023,
      "v": 70
    },
    {
      "midi": 64,
      "hit": false,
      "t": 505622.769791666,
      "d": 1080.4801927083172,
      "v": 96
    },
    {
      "midi": 56,
      "hit": false,
      "t": 505622.769791666,
      "d": 1426.6534583332832,
      "v": 63
    },
    {
      "midi": 70,
      "hit": false,
      "t": 505685.710385416,
      "d": 73.43069270835258,
      "v": 45
    },
    {
      "midi": 70,
      "hit": false,
      "t": 506871.09156770766,
      "d": 251.76237499999115,
      "v": 76
    },
    {
      "midi": 61,
      "hit": false,
      "t": 507626.3786927076,
      "d": 660.8762343749986,
      "v": 57
    },
    {
      "midi": 65,
      "hit": false,
      "t": 507626.3786927076,
      "d": 681.8564322916209,
      "v": 61
    },
    {
      "midi": 69,
      "hit": false,
      "t": 507626.3786927076,
      "d": 734.306927083293,
      "v": 61
    },
    {
      "midi": 55,
      "hit": false,
      "t": 507668.339088541,
      "d": 713.3267291666125,
      "v": 56
    },
    {
      "midi": 45,
      "hit": false,
      "t": 507699.809385416,
      "d": 597.9356406249572,
      "v": 40
    },
    {
      "midi": 65,
      "hit": false,
      "t": 509619.49749479094,
      "d": 1164.4009843750391,
      "v": 45
    },
    {
      "midi": 60,
      "hit": false,
      "t": 509640.4776927076,
      "d": 1153.9108854166698,
      "v": 46
    },
    {
      "midi": 61,
      "hit": false,
      "t": 509661.4578906243,
      "d": 1132.9306874999893,
      "v": 43
    },
    {
      "midi": 55,
      "hit": false,
      "t": 509671.9479895826,
      "d": 1069.990093750006,
      "v": 44
    },
    {
      "midi": 81,
      "hit": false,
      "t": 510322.3341249993,
      "d": 325.19306770834373,
      "v": 120
    },
    {
      "midi": 82,
      "hit": false,
      "t": 510920.2697656243,
      "d": 472.0544531249907,
      "v": 98
    },
    {
      "midi": 84,
      "hit": false,
      "t": 511581.1459999993,
      "d": 472.0544531249325,
      "v": 76
    },
    {
      "midi": 77,
      "hit": false,
      "t": 511591.6360989576,
      "d": 514.0148489582934,
      "v": 75
    },
    {
      "midi": 73,
      "hit": false,
      "t": 511602.12619791593,
      "d": 597.9356406250154,
      "v": 72
    },
    {
      "midi": 81,
      "hit": false,
      "t": 511612.61629687424,
      "d": 493.03465104167117,
      "v": 57
    },
    {
      "midi": 65,
      "hit": false,
      "t": 511612.61629687424,
      "d": 534.9950468750321,
      "v": 60
    },
    {
      "midi": 61,
      "hit": false,
      "t": 511633.5964947909,
      "d": 629.405937500007,
      "v": 52
    },
    {
      "midi": 55,
      "hit": false,
      "t": 512179.08164062427,
      "d": 157.3514843750163,
      "v": 61
    },
    {
      "midi": 51,
      "hit": false,
      "t": 512839.9578749993,
      "d": 472.0544531249907,
      "v": 57
    },
    {
      "midi": 46,
      "hit": false,
      "t": 513437.89351562434,
      "d": 608.4257395833265,
      "v": 49
    },
    {
      "midi": 61,
      "hit": false,
      "t": 513511.3242083327,
      "d": 62.940593749983236,
      "v": 57
    },
    {
      "midi": 65,
      "hit": false,
      "t": 513521.814307291,
      "d": 62.940593749983236,
      "v": 57
    },
    {
      "midi": 72,
      "hit": false,
      "t": 513532.3044062493,
      "d": 83.92079166666372,
      "v": 39
    },
    {
      "midi": 69,
      "hit": false,
      "t": 513574.2648020827,
      "d": 62.940593749983236,
      "v": 43
    },
    {
      "midi": 39,
      "hit": false,
      "t": 514130.2400468743,
      "d": 104.9009895833442,
      "v": 44
    },
    {
      "midi": 55,
      "hit": false,
      "t": 514864.5469739577,
      "d": 597.9356406249572,
      "v": 59
    },
    {
      "midi": 27,
      "hit": false,
      "t": 514875.037072916,
      "d": 314.7029687499744,
      "v": 48
    },
    {
      "midi": 54,
      "hit": false,
      "t": 515598.853901041,
      "d": 671.366333333368,
      "v": 63
    },
    {
      "midi": 26,
      "hit": false,
      "t": 515598.853901041,
      "d": 1206.3613802084,
      "v": 46
    },
    {
      "midi": 38,
      "hit": false,
      "t": 515598.853901041,
      "d": 1898.7079114583903,
      "v": 46
    },
    {
      "midi": 62,
      "hit": false,
      "t": 516291.200432291,
      "d": 681.8564322916791,
      "v": 76
    },
    {
      "midi": 54,
      "hit": false,
      "t": 516931.0964687494,
      "d": 566.4653437499655,
      "v": 51
    },
    {
      "midi": 26,
      "hit": false,
      "t": 516941.5865677077,
      "d": 262.2524739583023,
      "v": 39
    },
    {
      "midi": 55,
      "hit": false,
      "t": 517602.4628020827,
      "d": 786.7574218750233,
      "v": 57
    },
    {
      "midi": 40,
      "hit": false,
      "t": 517612.952901041,
      "d": 1646.9455364583991,
      "v": 53
    },
    {
      "midi": 28,
      "hit": false,
      "t": 517633.9330989577,
      "d": 807.7376197917038,
      "v": 49
    },
    {
      "midi": 62,
      "hit": false,
      "t": 518263.3390364577,
      "d": 398.6237604166963,
      "v": 57
    },
    {
      "midi": 28,
      "hit": false,
      "t": 518871.7647760411,
      "d": 272.74257291667163,
      "v": 54
    },
    {
      "midi": 55,
      "hit": false,
      "t": 518882.2548749994,
      "d": 356.66336458333535,
      "v": 52
    },
    {
      "midi": 56,
      "hit": false,
      "t": 519564.1113072911,
      "d": 671.3663333333097,
      "v": 66
    },
    {
      "midi": 41,
      "hit": false,
      "t": 519564.1113072911,
      "d": 1542.0445468751132,
      "v": 56
    },
    {
      "midi": 29,
      "hit": false,
      "t": 519574.6014062494,
      "d": 912.638609375048,
      "v": 52
    },
    {
      "midi": 53,
      "hit": false,
      "t": 520340.37863020774,
      "d": 73.43069270835258,
      "v": 33
    },
    {
      "midi": 29,
      "hit": false,
      "t": 520896.35387499945,
      "d": 167.84158333338564,
      "v": 47
    },
    {
      "midi": 62,
      "hit": false,
      "t": 520938.3142708328,
      "d": 304.21286979172146,
      "v": 57
    },
    {
      "midi": 57,
      "hit": false,
      "t": 521599.19050520787,
      "d": 1174.8910833333503,
      "v": 72
    },
    {
      "midi": 42,
      "hit": false,
      "t": 522218.10634374956,
      "d": 1038.5197968750144,
      "v": 77
    },
    {
      "midi": 30,
      "hit": false,
      "t": 522878.98257812456,
      "d": 346.1732656250242,
      "v": 66
    },
    {
      "midi": 43,
      "hit": false,
      "t": 523602.79940624954,
      "d": 1143.4207864583004,
      "v": 79
    },
    {
      "midi": 31,
      "hit": false,
      "t": 523613.28950520785,
      "d": 1122.44058854162,
      "v": 77
    },
    {
      "midi": 31,
      "hit": false,
      "t": 524935.0419739578,
      "d": 304.21286979166325,
      "v": 76
    },
    {
      "midi": 82,
      "hit": false,
      "t": 525627.3885052077,
      "d": 849.6980156248901,
      "v": 84
    },
    {
      "midi": 33,
      "hit": false,
      "t": 525637.8786041661,
      "d": 744.7970260416623,
      "v": 89
    },
    {
      "midi": 74,
      "hit": false,
      "t": 525637.8786041661,
      "d": 797.2475208332762,
      "v": 81
    },
    {
      "midi": 45,
      "hit": false,
      "t": 525637.8786041661,
      "d": 818.2277187498985,
      "v": 84
    },
    {
      "midi": 70,
      "hit": false,
      "t": 525637.8786041661,
      "d": 849.6980156248901,
      "v": 92
    },
    {
      "midi": 77,
      "hit": false,
      "t": 525658.8588020827,
      "d": 818.2277187498985,
      "v": 67
    },
    {
      "midi": 34,
      "hit": false,
      "t": 526875.7102812493,
      "d": 818.2277187500149,
      "v": 83
    },
    {
      "midi": 46,
      "hit": false,
      "t": 526875.7102812493,
      "d": 881.1683124999981,
      "v": 81
    },
    {
      "midi": 74,
      "hit": false,
      "t": 526896.6904791659,
      "d": 702.8366302084178,
      "v": 85
    },
    {
      "midi": 81,
      "hit": false,
      "t": 526907.1805781242,
      "d": 660.8762343750568,
      "v": 82
    },
    {
      "midi": 77,
      "hit": false,
      "t": 526917.6706770826,
      "d": 660.8762343750568,
      "v": 75
    },
    {
      "midi": 69,
      "hit": false,
      "t": 526917.6706770826,
      "d": 755.2871250000317,
      "v": 70
    },
    {
      "midi": 65,
      "hit": false,
      "t": 528176.4825520826,
      "d": 587.4455416667042,
      "v": 56
    },
    {
      "midi": 70,
      "hit": false,
      "t": 528176.4825520826,
      "d": 639.8960364583181,
      "v": 64
    },
    {
      "midi": 74,
      "hit": false,
      "t": 528176.4825520826,
      "d": 671.3663333333097,
      "v": 68
    },
    {
      "midi": 77,
      "hit": false,
      "t": 528176.4825520826,
      "d": 681.8564322916791,
      "v": 66
    },
    {
      "midi": 47,
      "hit": false,
      "t": 528176.4825520826,
      "d": 734.306927083293,
      "v": 72
    },
    {
      "midi": 35,
      "hit": false,
      "t": 528176.4825520826,
      "d": 744.7970260416623,
      "v": 72
    },
    {
      "midi": 35,
      "hit": false,
      "t": 529330.3934374993,
      "d": 734.3069270834094,
      "v": 57
    },
    {
      "midi": 70,
      "hit": false,
      "t": 529330.3934374993,
      "d": 734.3069270834094,
      "v": 63
    },
    {
      "midi": 47,
      "hit": false,
      "t": 529351.3736354159,
      "d": 629.4059375000652,
      "v": 50
    },
    {
      "midi": 77,
      "hit": false,
      "t": 529361.8637343743,
      "d": 933.6188072917284,
      "v": 54
    },
    {
      "midi": 65,
      "hit": false,
      "t": 529372.3538333327,
      "d": 534.9950468749739,
      "v": 51
    },
    {
      "midi": 74,
      "hit": false,
      "t": 529424.8043281243,
      "d": 241.27227604168002,
      "v": 36
    },
    {
      "midi": 74,
      "hit": false,
      "t": 530673.126104166,
      "d": 209.8019791666884,
      "v": 53
    },
    {
      "midi": 35,
      "hit": false,
      "t": 530673.126104166,
      "d": 220.29207812505774,
      "v": 39
    },
    {
      "midi": 47,
      "hit": false,
      "t": 530704.596401041,
      "d": 283.232671875041,
      "v": 37
    },
    {
      "midi": 70,
      "hit": false,
      "t": 531543.8043177078,
      "d": 241.27227604168002,
      "v": 49
    },
    {
      "midi": 74,
      "hit": false,
      "t": 531564.7845156244,
      "d": 209.8019791666884,
      "v": 50
    },
    {
      "midi": 36,
      "hit": false,
      "t": 531564.7845156244,
      "d": 220.29207812505774,
      "v": 45
    },
    {
      "midi": 48,
      "hit": false,
      "t": 531564.7845156244,
      "d": 220.29207812505774,
      "v": 44
    },
    {
      "midi": 77,
      "hit": false,
      "t": 531596.2548124994,
      "d": 356.66336458339356,
      "v": 41
    },
    {
      "midi": 59,
      "hit": false,
      "t": 532823.5963906244,
      "d": 83.92079166672193,
      "v": 48
    },
    {
      "midi": 84,
      "hit": false,
      "t": 532823.5963906244,
      "d": 230.7821770834271,
      "v": 61
    },
    {
      "midi": 60,
      "hit": false,
      "t": 532855.0666874994,
      "d": 167.84158333344385,
      "v": 45
    },
    {
      "midi": 82,
      "hit": false,
      "t": 532865.5567864578,
      "d": 115.39108854171354,
      "v": 30
    },
    {
      "midi": 87,
      "hit": false,
      "t": 533557.9033177078,
      "d": 178.33168229169678,
      "v": 68
    },
    {
      "midi": 63,
      "hit": false,
      "t": 533568.3934166662,
      "d": 104.9009895833442,
      "v": 57
    },
    {
      "midi": 84,
      "hit": false,
      "t": 534166.3290572912,
      "d": 986.0693020833423,
      "v": 70
    },
    {
      "midi": 60,
      "hit": false,
      "t": 534229.2696510411,
      "d": 975.579203124973,
      "v": 50
    },
    {
      "midi": 48,
      "hit": false,
      "t": 535110.4379635411,
      "d": 209.8019791666884,
      "v": 48
    },
    {
      "midi": 82,
      "hit": false,
      "t": 536379.7399374995,
      "d": 146.86138541670516,
      "v": 78
    },
    {
      "midi": 58,
      "hit": false,
      "t": 536390.2300364579,
      "d": 157.3514843749581,
      "v": 69
    },
    {
      "midi": 83,
      "hit": false,
      "t": 536400.7201354163,
      "d": 293.7227708332939,
      "v": 77
    },
    {
      "midi": 59,
      "hit": false,
      "t": 536421.7003333329,
      "d": 493.0346510417294,
      "v": 58
    },
    {
      "midi": 82,
      "hit": false,
      "t": 537051.1062708329,
      "d": 241.27227604168002,
      "v": 77
    },
    {
      "midi": 58,
      "hit": false,
      "t": 537061.5963697913,
      "d": 493.03465104161296,
      "v": 54
    },
    {
      "midi": 80,
      "hit": false,
      "t": 537701.4924062496,
      "d": 461.56435416662134,
      "v": 62
    },
    {
      "midi": 56,
      "hit": false,
      "t": 537764.4329999996,
      "d": 451.074255208252,
      "v": 43
    },
    {
      "midi": 81,
      "hit": false,
      "t": 538320.4082447912,
      "d": 398.6237604166381,
      "v": 57
    },
    {
      "midi": 57,
      "hit": false,
      "t": 538330.8983437496,
      "d": 157.3514843749581,
      "v": 46
    },
    {
      "midi": 29,
      "hit": false,
      "t": 539631.6706145828,
      "d": 503.5247499999823,
      "v": 36
    },
    {
      "midi": 77,
      "hit": false,
      "t": 539663.1409114578,
      "d": 377.64356250001583,
      "v": 52
    },
    {
      "midi": 41,
      "hit": false,
      "t": 539799.5121979162,
      "d": 367.1534635416465,
      "v": 3
    },
    {
      "midi": 77,
      "hit": false,
      "t": 540963.9131822911,
      "d": 83.92079166672193,
      "v": 47
    },
    {
      "midi": 41,
      "hit": false,
      "t": 540974.4032812495,
      "d": 125.88118749996647,
      "v": 31
    },
    {
      "midi": 80,
      "hit": false,
      "t": 541645.7696145828,
      "d": 325.19306770840194,
      "v": 48
    },
    {
      "midi": 75,
      "hit": false,
      "t": 541698.2201093744,
      "d": 293.7227708334103,
      "v": 48
    },
    {
      "midi": 69,
      "hit": false,
      "t": 541708.7102083327,
      "d": 230.7821770834271,
      "v": 31
    },
    {
      "midi": 45,
      "hit": false,
      "t": 541719.2003072911,
      "d": 1248.3217760416446,
      "v": 27
    },
    {
      "midi": 33,
      "hit": false,
      "t": 542327.6260468744,
      "d": 576.9554427083349,
      "v": 41
    },
    {
      "midi": 34,
      "hit": false,
      "t": 543670.3587135411,
      "d": 671.3663333334262,
      "v": 39
    },
    {
      "midi": 46,
      "hit": false,
      "t": 543670.3587135411,
      "d": 797.247520833509,
      "v": 38
    },
    {
      "midi": 58,
      "hit": false,
      "t": 543712.3191093744,
      "d": 671.3663333334262,
      "v": 46
    },
    {
      "midi": 62,
      "hit": false,
      "t": 543722.8092083328,
      "d": 608.4257395833265,
      "v": 46
    },
    {
      "midi": 53,
      "hit": false,
      "t": 543743.7894062494,
      "d": 524.504947916721,
      "v": 30
    },
    {
      "midi": 58,
      "hit": false,
      "t": 544939.6606874996,
      "d": 73.43069270823617,
      "v": 49
    },
    {
      "midi": 46,
      "hit": false,
      "t": 544960.6408854162,
      "d": 314.7029687499162,
      "v": 39
    },
    {
      "midi": 34,
      "hit": false,
      "t": 544960.6408854162,
      "d": 335.68316666653845,
      "v": 43
    },
    {
      "midi": 47,
      "hit": false,
      "t": 545726.4181093744,
      "d": 188.8217812499497,
      "v": 31
    },
    {
      "midi": 68,
      "hit": false,
      "t": 545736.9082083327,
      "d": 157.3514843749581,
      "v": 33
    },
    {
      "midi": 35,
      "hit": false,
      "t": 545747.3983072911,
      "d": 209.80197916657198,
      "v": 36
    },
    {
      "midi": 62,
      "hit": false,
      "t": 545768.3785052077,
      "d": 125.88118749996647,
      "v": 45
    },
    {
      "midi": 65,
      "hit": false,
      "t": 545778.8686041661,
      "d": 94.41089062497485,
      "v": 48
    },
    {
      "midi": 68,
      "hit": false,
      "t": 546995.7200833326,
      "d": 83.92079166660551,
      "v": 41
    },
    {
      "midi": 35,
      "hit": false,
      "t": 547027.1903802076,
      "d": 167.84158333332743,
      "v": 39
    },
    {
      "midi": 48,
      "hit": false,
      "t": 547845.4180989576,
      "d": 472.0544531249907,
      "v": 39
    },
    {
      "midi": 36,
      "hit": false,
      "t": 547866.3982968742,
      "d": 534.9950468750903,
      "v": 36
    },
    {
      "midi": 65,
      "hit": false,
      "t": 547929.3388906242,
      "d": 828.7178177083842,
      "v": 31
    },
    {
      "midi": 60,
      "hit": false,
      "t": 547929.3388906242,
      "d": 849.6980156250065,
      "v": 36
    },
    {
      "midi": 62,
      "hit": false,
      "t": 547950.3190885409,
      "d": 786.7574218751397,
      "v": 34
    },
    {
      "midi": 57,
      "hit": false,
      "t": 548034.2398802076,
      "d": 639.8960364584345,
      "v": 17
    },
    {
      "midi": 36,
      "hit": false,
      "t": 549041.2893802075,
      "d": 146.86138541670516,
      "v": 54
    },
    {
      "midi": 30,
      "hit": false,
      "t": 550006.3784843743,
      "d": 608.4257395834429,
      "v": 56
    },
    {
      "midi": 63,
      "hit": false,
      "t": 550016.8685833326,
      "d": 440.5841562501155,
      "v": 44
    },
    {
      "midi": 52,
      "hit": false,
      "t": 550027.358682291,
      "d": 597.9356406250736,
      "v": 33
    },
    {
      "midi": 60,
      "hit": false,
      "t": 550027.358682291,
      "d": 891.6584114583675,
      "v": 57
    },
    {
      "midi": 56,
      "hit": false,
      "t": 550027.358682291,
      "d": 1049.0098958333256,
      "v": 49
    },
    {
      "midi": 61,
      "hit": false,
      "t": 550037.8487812494,
      "d": 440.58415624999907,
      "v": 36
    },
    {
      "midi": 63,
      "hit": false,
      "t": 550688.234916666,
      "d": 283.23267187492456,
      "v": 46
    },
    {
      "midi": 29,
      "hit": false,
      "t": 551506.462635416,
      "d": 629.4059374998324,
      "v": 35
    },
    {
      "midi": 51,
      "hit": false,
      "t": 551632.3438229159,
      "d": 398.6237604166381,
      "v": 43
    },
    {
      "midi": 41,
      "hit": false,
      "t": 551674.3042187493,
      "d": 503.5247499998659,
      "v": 37
    },
    {
      "midi": 55,
      "hit": false,
      "t": 551695.2844166659,
      "d": 356.66336458327714,
      "v": 51
    },
    {
      "midi": 57,
      "hit": false,
      "t": 551737.2448124993,
      "d": 335.68316666653845,
      "v": 43
    },
    {
      "midi": 62,
      "hit": false,
      "t": 551779.2052083326,
      "d": 314.70296874979977,
      "v": 60
    },
    {
      "midi": 75,
      "hit": false,
      "t": 553447.1309427075,
      "d": 41.96039583336096,
      "v": 45
    },
    {
      "midi": 74,
      "hit": false,
      "t": 553541.5418333325,
      "d": 83.92079166672193,
      "v": 52
    },
    {
      "midi": 79,
      "hit": false,
      "t": 553625.4626249992,
      "d": 125.88118750008289,
      "v": 43
    },
    {
      "midi": 86,
      "hit": false,
      "t": 553740.853713541,
      "d": 94.41089062509127,
      "v": 61
    },
    {
      "midi": 87,
      "hit": false,
      "t": 553835.264604166,
      "d": 83.92079166672193,
      "v": 65
    },
    {
      "midi": 86,
      "hit": false,
      "t": 553929.6754947911,
      "d": 2748.4059270833386,
      "v": 40
    },
    {
      "midi": 91,
      "hit": false,
      "t": 554024.0863854161,
      "d": 2685.4653333333554,
      "v": 57
    },
    {
      "midi": 98,
      "hit": false,
      "t": 554097.5170781245,
      "d": 2633.014838541625,
      "v": 54
    }
  ]
}