{
  "jsonPath": "Jazz/Jazz Blues/Ray Charles/whatd-i-say-part-i.json",
  "path": "Jazz\\Jazz Blues\\Ray Charles\\Whatd I Say (Part I).mid",
  "name": "Whatd I Say (Part I)",
  "difficulty": "Advanced",
  "bpm": 180.99984313346928,
  "notes": [
    {
      "midi": 40,
      "hit": false,
      "t": 0,
      "d": 983.4262666666667,
      "v": 104
    },
    {
      "midi": 47,
      "hit": false,
      "t": 331.492,
      "d": 71.82326666666665,
      "v": 109
    },
    {
      "midi": 47,
      "hit": false,
      "t": 497.238,
      "d": 82.87299999999999,
      "v": 94
    },
    {
      "midi": 50,
      "hit": false,
      "t": 662.984,
      "d": 334.2544333333333,
      "v": 105
    },
    {
      "midi": 52,
      "hit": false,
      "t": 994.476,
      "d": 151.93383333333338,
      "v": 98
    },
    {
      "midi": 40,
      "hit": false,
      "t": 1160.222,
      "d": 1301.1060999999997,
      "v": 110
    },
    {
      "midi": 47,
      "hit": false,
      "t": 1657.46,
      "d": 71.82326666666677,
      "v": 104
    },
    {
      "midi": 47,
      "hit": false,
      "t": 1823.2060000000001,
      "d": 85.63543333333337,
      "v": 86
    },
    {
      "midi": 50,
      "hit": false,
      "t": 1988.9520000000002,
      "d": 303.86766666666654,
      "v": 102
    },
    {
      "midi": 52,
      "hit": false,
      "t": 2320.444,
      "d": 372.92849999999953,
      "v": 91
    },
    {
      "midi": 40,
      "hit": false,
      "t": 2651.9359999999997,
      "d": 994.4760000000001,
      "v": 106
    },
    {
      "midi": 47,
      "hit": false,
      "t": 2983.4279999999994,
      "d": 69.06083333333345,
      "v": 105
    },
    {
      "midi": 47,
      "hit": false,
      "t": 3149.1739999999995,
      "d": 82.87300000000005,
      "v": 93
    },
    {
      "midi": 50,
      "hit": false,
      "t": 3314.9199999999996,
      "d": 361.8787666666667,
      "v": 97
    },
    {
      "midi": 52,
      "hit": false,
      "t": 3646.412,
      "d": 151.93383333333304,
      "v": 96
    },
    {
      "midi": 40,
      "hit": false,
      "t": 3812.1579999999994,
      "d": 1383.9791000000005,
      "v": 111
    },
    {
      "midi": 47,
      "hit": false,
      "t": 4309.396,
      "d": 71.82326666666631,
      "v": 97
    },
    {
      "midi": 47,
      "hit": false,
      "t": 4475.142,
      "d": 96.6851666666671,
      "v": 96
    },
    {
      "midi": 50,
      "hit": false,
      "t": 4640.888,
      "d": 290.0555000000004,
      "v": 101
    },
    {
      "midi": 52,
      "hit": false,
      "t": 4972.38,
      "d": 306.6300999999994,
      "v": 95
    },
    {
      "midi": 45,
      "hit": false,
      "t": 5303.871999999999,
      "d": 966.8516666666665,
      "v": 107
    },
    {
      "midi": 52,
      "hit": false,
      "t": 5635.364,
      "d": 69.060833333333,
      "v": 99
    },
    {
      "midi": 52,
      "hit": false,
      "t": 5801.11,
      "d": 82.87299999999959,
      "v": 87
    },
    {
      "midi": 55,
      "hit": false,
      "t": 5966.855999999999,
      "d": 375.6909333333333,
      "v": 97
    },
    {
      "midi": 57,
      "hit": false,
      "t": 6298.347999999999,
      "d": 140.88410000000022,
      "v": 95
    },
    {
      "midi": 45,
      "hit": false,
      "t": 6464.093999999999,
      "d": 1422.653166666667,
      "v": 107
    },
    {
      "midi": 52,
      "hit": false,
      "t": 6961.331999999999,
      "d": 58.011099999999715,
      "v": 91
    },
    {
      "midi": 52,
      "hit": false,
      "t": 7127.0779999999995,
      "d": 110.4973333333337,
      "v": 85
    },
    {
      "midi": 55,
      "hit": false,
      "t": 7292.824,
      "d": 306.6301000000003,
      "v": 101
    },
    {
      "midi": 57,
      "hit": false,
      "t": 7624.316,
      "d": 306.6300999999994,
      "v": 91
    },
    {
      "midi": 40,
      "hit": false,
      "t": 7955.807999999999,
      "d": 966.8516666666656,
      "v": 99
    },
    {
      "midi": 47,
      "hit": false,
      "t": 8287.3,
      "d": 69.060833333333,
      "v": 95
    },
    {
      "midi": 47,
      "hit": false,
      "t": 8453.045999999998,
      "d": 96.68516666666619,
      "v": 84
    },
    {
      "midi": 50,
      "hit": false,
      "t": 8618.791999999998,
      "d": 375.6909333333333,
      "v": 101
    },
    {
      "midi": 52,
      "hit": false,
      "t": 8950.283999999998,
      "d": 138.121666666666,
      "v": 97
    },
    {
      "midi": 40,
      "hit": false,
      "t": 9116.029999999997,
      "d": 1408.8409999999985,
      "v": 107
    },
    {
      "midi": 47,
      "hit": false,
      "t": 9613.267999999996,
      "d": 58.011099999999715,
      "v": 84
    },
    {
      "midi": 47,
      "hit": false,
      "t": 9779.013999999996,
      "d": 110.49733333333279,
      "v": 95
    },
    {
      "midi": 50,
      "hit": false,
      "t": 9944.759999999995,
      "d": 303.867666666667,
      "v": 96
    },
    {
      "midi": 52,
      "hit": false,
      "t": 10276.251999999995,
      "d": 265.1936000000005,
      "v": 95
    },
    {
      "midi": 47,
      "hit": false,
      "t": 10607.743999999995,
      "d": 1118.7854999999981,
      "v": 104
    },
    {
      "midi": 54,
      "hit": false,
      "t": 10939.235999999995,
      "d": 55.248666666666395,
      "v": 89
    },
    {
      "midi": 54,
      "hit": false,
      "t": 11104.981999999995,
      "d": 96.68516666666619,
      "v": 87
    },
    {
      "midi": 57,
      "hit": false,
      "t": 11270.727999999994,
      "d": 334.2544333333335,
      "v": 101
    },
    {
      "midi": 59,
      "hit": false,
      "t": 11602.219999999994,
      "d": 151.9338333333326,
      "v": 97
    },
    {
      "midi": 45,
      "hit": false,
      "t": 11767.965999999993,
      "d": 1450.2774999999983,
      "v": 115
    },
    {
      "midi": 52,
      "hit": false,
      "t": 12265.203999999992,
      "d": 69.060833333333,
      "v": 87
    },
    {
      "midi": 52,
      "hit": false,
      "t": 12430.949999999992,
      "d": 110.49733333333279,
      "v": 93
    },
    {
      "midi": 55,
      "hit": false,
      "t": 12596.69599999999,
      "d": 306.6301000000003,
      "v": 103
    },
    {
      "midi": 57,
      "hit": false,
      "t": 12928.187999999991,
      "d": 331.4920000000002,
      "v": 95
    },
    {
      "midi": 40,
      "hit": false,
      "t": 13259.679999999991,
      "d": 1035.9124999999985,
      "v": 111
    },
    {
      "midi": 47,
      "hit": false,
      "t": 13591.171999999991,
      "d": 82.87299999999959,
      "v": 101
    },
    {
      "midi": 47,
      "hit": false,
      "t": 13756.91799999999,
      "d": 96.68516666666619,
      "v": 94
    },
    {
      "midi": 50,
      "hit": false,
      "t": 13922.66399999999,
      "d": 306.6301000000003,
      "v": 107
    },
    {
      "midi": 52,
      "hit": false,
      "t": 14254.15599999999,
      "d": 154.6962666666659,
      "v": 95
    },
    {
      "midi": 40,
      "hit": false,
      "t": 14419.90199999999,
      "d": 1229.282833333331,
      "v": 108
    },
    {
      "midi": 47,
      "hit": false,
      "t": 14917.139999999989,
      "d": 85.63543333333291,
      "v": 97
    },
    {
      "midi": 47,
      "hit": false,
      "t": 15082.885999999988,
      "d": 85.63543333333291,
      "v": 73
    },
    {
      "midi": 50,
      "hit": false,
      "t": 15248.631999999987,
      "d": 345.3041666666668,
      "v": 100
    },
    {
      "midi": 52,
      "hit": false,
      "t": 15580.123999999987,
      "d": 193.37033333333238,
      "v": 95
    },
    {
      "midi": 52,
      "hit": false,
      "t": 15911.615999999985,
      "d": 345.3041666666668,
      "v": 105
    },
    {
      "midi": 64,
      "hit": false,
      "t": 16245.870433333319,
      "d": 151.9338333333326,
      "v": 97
    },
    {
      "midi": 59,
      "hit": false,
      "t": 16256.920166666652,
      "d": 151.9338333333326,
      "v": 91
    },
    {
      "midi": 68,
      "hit": false,
      "t": 16256.920166666652,
      "d": 151.9338333333326,
      "v": 89
    },
    {
      "midi": 52,
      "hit": false,
      "t": 16411.616433333318,
      "d": 151.9338333333326,
      "v": 105
    },
    {
      "midi": 59,
      "hit": false,
      "t": 16577.362433333317,
      "d": 82.87299999999959,
      "v": 86
    },
    {
      "midi": 62,
      "hit": false,
      "t": 16588.41216666665,
      "d": 71.82326666666631,
      "v": 91
    },
    {
      "midi": 66,
      "hit": false,
      "t": 16588.41216666665,
      "d": 96.68516666666619,
      "v": 91
    },
    {
      "midi": 64,
      "hit": false,
      "t": 16743.108433333316,
      "d": 165.74599999999919,
      "v": 94
    },
    {
      "midi": 59,
      "hit": false,
      "t": 16754.15816666665,
      "d": 154.6962666666659,
      "v": 90
    },
    {
      "midi": 68,
      "hit": false,
      "t": 16756.920599999983,
      "d": 132.59679999999935,
      "v": 93
    },
    {
      "midi": 52,
      "hit": false,
      "t": 16922.666599999982,
      "d": 165.74599999999919,
      "v": 105
    },
    {
      "midi": 64,
      "hit": false,
      "t": 17088.41259999998,
      "d": 325.96713333333173,
      "v": 101
    },
    {
      "midi": 59,
      "hit": false,
      "t": 17088.41259999998,
      "d": 331.49199999999837,
      "v": 97
    },
    {
      "midi": 68,
      "hit": false,
      "t": 17099.462333333315,
      "d": 290.0554999999986,
      "v": 87
    },
    {
      "midi": 52,
      "hit": false,
      "t": 17406.092433333313,
      "d": 138.121666666666,
      "v": 101
    },
    {
      "midi": 64,
      "hit": false,
      "t": 17571.838433333312,
      "d": 151.9338333333326,
      "v": 97
    },
    {
      "midi": 59,
      "hit": false,
      "t": 17571.838433333312,
      "d": 160.22113333333255,
      "v": 94
    },
    {
      "midi": 68,
      "hit": false,
      "t": 17582.888166666646,
      "d": 138.121666666666,
      "v": 86
    },
    {
      "midi": 52,
      "hit": false,
      "t": 17737.58443333331,
      "d": 138.121666666666,
      "v": 103
    },
    {
      "midi": 62,
      "hit": false,
      "t": 17903.33043333331,
      "d": 69.060833333333,
      "v": 95
    },
    {
      "midi": 59,
      "hit": false,
      "t": 17914.380166666644,
      "d": 58.011099999999715,
      "v": 87
    },
    {
      "midi": 66,
      "hit": false,
      "t": 17914.380166666644,
      "d": 71.82326666666631,
      "v": 92
    },
    {
      "midi": 59,
      "hit": false,
      "t": 18066.313999999977,
      "d": 248.61899999999878,
      "v": 91
    },
    {
      "midi": 64,
      "hit": false,
      "t": 18066.313999999977,
      "d": 262.4311666666654,
      "v": 108
    },
    {
      "midi": 68,
      "hit": false,
      "t": 18080.126166666643,
      "d": 207.18249999999898,
      "v": 83
    },
    {
      "midi": 59,
      "hit": false,
      "t": 18397.805999999975,
      "d": 168.5084333333325,
      "v": 92
    },
    {
      "midi": 62,
      "hit": false,
      "t": 18397.805999999975,
      "d": 168.5084333333325,
      "v": 101
    },
    {
      "midi": 52,
      "hit": false,
      "t": 18566.314433333308,
      "d": 331.49199999999837,
      "v": 108
    },
    {
      "midi": 64,
      "hit": false,
      "t": 18908.85616666664,
      "d": 140.8840999999993,
      "v": 96
    },
    {
      "midi": 59,
      "hit": false,
      "t": 18908.85616666664,
      "d": 151.9338333333326,
      "v": 95
    },
    {
      "midi": 68,
      "hit": false,
      "t": 18911.618599999973,
      "d": 124.30949999999939,
      "v": 89
    },
    {
      "midi": 52,
      "hit": false,
      "t": 19063.552433333305,
      "d": 165.74599999999919,
      "v": 101
    },
    {
      "midi": 59,
      "hit": false,
      "t": 19240.348166666638,
      "d": 71.82326666666631,
      "v": 95
    },
    {
      "midi": 66,
      "hit": false,
      "t": 19240.348166666638,
      "d": 82.87299999999959,
      "v": 89
    },
    {
      "midi": 62,
      "hit": false,
      "t": 19243.11059999997,
      "d": 77.34813333333295,
      "v": 94
    },
    {
      "midi": 68,
      "hit": false,
      "t": 19392.28199999997,
      "d": 279.0057666666653,
      "v": 92
    },
    {
      "midi": 64,
      "hit": false,
      "t": 19395.044433333303,
      "d": 284.53063333333193,
      "v": 88
    },
    {
      "midi": 59,
      "hit": false,
      "t": 19395.044433333303,
      "d": 290.0554999999986,
      "v": 88
    },
    {
      "midi": 52,
      "hit": false,
      "t": 19723.77399999997,
      "d": 154.6962666666659,
      "v": 110
    },
    {
      "midi": 64,
      "hit": false,
      "t": 19889.519999999968,
      "d": 127.07193333333271,
      "v": 97
    },
    {
      "midi": 68,
      "hit": false,
      "t": 19892.2824333333,
      "d": 124.30949999999939,
      "v": 87
    },
    {
      "midi": 59,
      "hit": false,
      "t": 19892.2824333333,
      "d": 132.59679999999935,
      "v": 97
    },
    {
      "midi": 52,
      "hit": false,
      "t": 20055.265999999967,
      "d": 127.07193333333271,
      "v": 102
    },
    {
      "midi": 64,
      "hit": false,
      "t": 20223.7744333333,
      "d": 132.59679999999935,
      "v": 98
    },
    {
      "midi": 68,
      "hit": false,
      "t": 20223.7744333333,
      "d": 132.59679999999935,
      "v": 87
    },
    {
      "midi": 59,
      "hit": false,
      "t": 20223.7744333333,
      "d": 146.40896666666595,
      "v": 99
    },
    {
      "midi": 52,
      "hit": false,
      "t": 20389.5204333333,
      "d": 146.40896666666595,
      "v": 100
    },
    {
      "midi": 59,
      "hit": false,
      "t": 20555.266433333298,
      "d": 77.34813333333295,
      "v": 87
    },
    {
      "midi": 62,
      "hit": false,
      "t": 20566.31616666663,
      "d": 69.060833333333,
      "v": 96
    },
    {
      "midi": 66,
      "hit": false,
      "t": 20566.31616666663,
      "d": 71.82326666666631,
      "v": 91
    },
    {
      "midi": 68,
      "hit": false,
      "t": 20718.249999999964,
      "d": 193.37033333333238,
      "v": 89
    },
    {
      "midi": 64,
      "hit": false,
      "t": 20718.249999999964,
      "d": 251.3814333333321,
      "v": 94
    },
    {
      "midi": 59,
      "hit": false,
      "t": 20721.012433333297,
      "d": 234.80683333333218,
      "v": 91
    },
    {
      "midi": 62,
      "hit": false,
      "t": 21049.741999999962,
      "d": 140.8840999999993,
      "v": 101
    },
    {
      "midi": 59,
      "hit": false,
      "t": 21052.504433333295,
      "d": 174.03329999999914,
      "v": 93
    },
    {
      "midi": 45,
      "hit": false,
      "t": 21204.438266666628,
      "d": 353.5914666666649,
      "v": 110
    },
    {
      "midi": 64,
      "hit": false,
      "t": 21549.742433333293,
      "d": 138.121666666666,
      "v": 97
    },
    {
      "midi": 57,
      "hit": false,
      "t": 21549.742433333293,
      "d": 146.40896666666595,
      "v": 97
    },
    {
      "midi": 67,
      "hit": false,
      "t": 21549.742433333293,
      "d": 146.40896666666595,
      "v": 87
    },
    {
      "midi": 61,
      "hit": false,
      "t": 21560.792166666626,
      "d": 124.30949999999939,
      "v": 83
    },
    {
      "midi": 45,
      "hit": false,
      "t": 21726.538166666625,
      "d": 99.44759999999951,
      "v": 88
    },
    {
      "midi": 61,
      "hit": false,
      "t": 21867.422266666625,
      "d": 104.97246666666615,
      "v": 85
    },
    {
      "midi": 64,
      "hit": false,
      "t": 21867.422266666625,
      "d": 118.78463333333275,
      "v": 91
    },
    {
      "midi": 57,
      "hit": false,
      "t": 21878.471999999958,
      "d": 85.63543333333291,
      "v": 92
    },
    {
      "midi": 61,
      "hit": false,
      "t": 22033.168266666624,
      "d": 270.71846666666534,
      "v": 87
    },
    {
      "midi": 67,
      "hit": false,
      "t": 22033.168266666624,
      "d": 284.53063333333193,
      "v": 97
    },
    {
      "midi": 64,
      "hit": false,
      "t": 22044.217999999957,
      "d": 265.1935999999987,
      "v": 95
    },
    {
      "midi": 57,
      "hit": false,
      "t": 22046.98043333329,
      "d": 276.243333333332,
      "v": 95
    },
    {
      "midi": 45,
      "hit": false,
      "t": 22364.660266666622,
      "d": 151.9338333333326,
      "v": 100
    },
    {
      "midi": 57,
      "hit": false,
      "t": 22530.40626666662,
      "d": 146.40896666666595,
      "v": 93
    },
    {
      "midi": 61,
      "hit": false,
      "t": 22544.218433333288,
      "d": 124.30949999999939,
      "v": 82
    },
    {
      "midi": 64,
      "hit": false,
      "t": 22544.218433333288,
      "d": 132.59679999999935,
      "v": 88
    },
    {
      "midi": 67,
      "hit": false,
      "t": 22544.218433333288,
      "d": 132.59679999999935,
      "v": 89
    },
    {
      "midi": 45,
      "hit": false,
      "t": 22721.01416666662,
      "d": 124.30949999999939,
      "v": 101
    },
    {
      "midi": 61,
      "hit": false,
      "t": 22875.710433333286,
      "d": 104.97246666666615,
      "v": 85
    },
    {
      "midi": 57,
      "hit": false,
      "t": 22875.710433333286,
      "d": 132.59679999999935,
      "v": 97
    },
    {
      "midi": 67,
      "hit": false,
      "t": 22875.710433333286,
      "d": 132.59679999999935,
      "v": 94
    },
    {
      "midi": 64,
      "hit": false,
      "t": 22886.76016666662,
      "d": 110.49733333333279,
      "v": 95
    },
    {
      "midi": 45,
      "hit": false,
      "t": 23038.693999999952,
      "d": 138.121666666666,
      "v": 101
    },
    {
      "midi": 57,
      "hit": false,
      "t": 23207.202433333285,
      "d": 77.34813333333295,
      "v": 91
    },
    {
      "midi": 61,
      "hit": false,
      "t": 23207.202433333285,
      "d": 77.34813333333295,
      "v": 86
    },
    {
      "midi": 64,
      "hit": false,
      "t": 23207.202433333285,
      "d": 96.68516666666619,
      "v": 91
    },
    {
      "midi": 67,
      "hit": false,
      "t": 23359.136266666617,
      "d": 220.99466666666558,
      "v": 95
    },
    {
      "midi": 64,
      "hit": false,
      "t": 23359.136266666617,
      "d": 234.80683333333218,
      "v": 93
    },
    {
      "midi": 57,
      "hit": false,
      "t": 23370.18599999995,
      "d": 234.80683333333218,
      "v": 95
    },
    {
      "midi": 61,
      "hit": false,
      "t": 23372.948433333284,
      "d": 220.99466666666558,
      "v": 79
    },
    {
      "midi": 64,
      "hit": false,
      "t": 23701.67799999995,
      "d": 154.6962666666659,
      "v": 97
    },
    {
      "midi": 57,
      "hit": false,
      "t": 23704.440433333282,
      "d": 124.30949999999939,
      "v": 96
    },
    {
      "midi": 61,
      "hit": false,
      "t": 23704.440433333282,
      "d": 132.59679999999935,
      "v": 85
    },
    {
      "midi": 52,
      "hit": false,
      "t": 23870.18643333328,
      "d": 339.77929999999833,
      "v": 115
    },
    {
      "midi": 68,
      "hit": false,
      "t": 24201.67843333328,
      "d": 132.59679999999935,
      "v": 87
    },
    {
      "midi": 59,
      "hit": false,
      "t": 24201.67843333328,
      "d": 146.40896666666595,
      "v": 95
    },
    {
      "midi": 64,
      "hit": false,
      "t": 24201.67843333328,
      "d": 146.40896666666595,
      "v": 96
    },
    {
      "midi": 52,
      "hit": false,
      "t": 24364.661999999946,
      "d": 168.5084333333325,
      "v": 106
    },
    {
      "midi": 59,
      "hit": false,
      "t": 24533.17043333328,
      "d": 82.87299999999959,
      "v": 93
    },
    {
      "midi": 62,
      "hit": false,
      "t": 24533.17043333328,
      "d": 82.87299999999959,
      "v": 96
    },
    {
      "midi": 66,
      "hit": false,
      "t": 24533.17043333328,
      "d": 91.16029999999955,
      "v": 92
    },
    {
      "midi": 59,
      "hit": false,
      "t": 24696.153999999944,
      "d": 292.8179333333319,
      "v": 87
    },
    {
      "midi": 64,
      "hit": false,
      "t": 24698.916433333277,
      "d": 284.53063333333193,
      "v": 99
    },
    {
      "midi": 68,
      "hit": false,
      "t": 24709.96616666661,
      "d": 265.1935999999987,
      "v": 90
    },
    {
      "midi": 52,
      "hit": false,
      "t": 25016.59626666661,
      "d": 174.03329999999914,
      "v": 108
    },
    {
      "midi": 64,
      "hit": false,
      "t": 25193.39199999994,
      "d": 138.121666666666,
      "v": 98
    },
    {
      "midi": 59,
      "hit": false,
      "t": 25196.154433333275,
      "d": 132.59679999999935,
      "v": 100
    },
    {
      "midi": 68,
      "hit": false,
      "t": 25207.20416666661,
      "d": 113.25976666666611,
      "v": 85
    },
    {
      "midi": 52,
      "hit": false,
      "t": 25359.13799999994,
      "d": 168.5084333333325,
      "v": 100
    },
    {
      "midi": 68,
      "hit": false,
      "t": 25538.696166666607,
      "d": 124.30949999999939,
      "v": 84
    },
    {
      "midi": 64,
      "hit": false,
      "t": 25538.696166666607,
      "d": 138.121666666666,
      "v": 95
    },
    {
      "midi": 59,
      "hit": false,
      "t": 25541.45859999994,
      "d": 132.59679999999935,
      "v": 97
    },
    {
      "midi": 52,
      "hit": false,
      "t": 25704.442166666606,
      "d": 138.121666666666,
      "v": 105
    },
    {
      "midi": 62,
      "hit": false,
      "t": 25859.13843333327,
      "d": 82.87299999999959,
      "v": 93
    },
    {
      "midi": 59,
      "hit": false,
      "t": 25859.13843333327,
      "d": 91.16029999999955,
      "v": 90
    },
    {
      "midi": 66,
      "hit": false,
      "t": 25870.188166666605,
      "d": 85.63543333333291,
      "v": 89
    },
    {
      "midi": 64,
      "hit": false,
      "t": 26024.88443333327,
      "d": 339.77929999999833,
      "v": 93
    },
    {
      "midi": 68,
      "hit": false,
      "t": 26035.934166666604,
      "d": 320.4422666666651,
      "v": 90
    },
    {
      "midi": 59,
      "hit": false,
      "t": 26035.934166666604,
      "d": 331.49199999999837,
      "v": 90
    },
    {
      "midi": 47,
      "hit": false,
      "t": 26370.188599999936,
      "d": 77.34813333333295,
      "v": 112
    },
    {
      "midi": 47,
      "hit": false,
      "t": 26519.359999999935,
      "d": 348.0665999999983,
      "v": 107
    },
    {
      "midi": 59,
      "hit": false,
      "t": 26853.614433333267,
      "d": 151.9338333333326,
      "v": 97
    },
    {
      "midi": 63,
      "hit": false,
      "t": 26864.6641666666,
      "d": 124.30949999999939,
      "v": 89
    },
    {
      "midi": 66,
      "hit": false,
      "t": 26864.6641666666,
      "d": 127.07193333333271,
      "v": 88
    },
    {
      "midi": 69,
      "hit": false,
      "t": 26864.6641666666,
      "d": 127.07193333333271,
      "v": 95
    },
    {
      "midi": 47,
      "hit": false,
      "t": 27030.4101666666,
      "d": 124.30949999999939,
      "v": 99
    },
    {
      "midi": 66,
      "hit": false,
      "t": 27185.106433333265,
      "d": 77.34813333333295,
      "v": 88
    },
    {
      "midi": 69,
      "hit": false,
      "t": 27185.106433333265,
      "d": 96.68516666666619,
      "v": 96
    },
    {
      "midi": 59,
      "hit": false,
      "t": 27196.1561666666,
      "d": 85.63543333333291,
      "v": 95
    },
    {
      "midi": 63,
      "hit": false,
      "t": 27196.1561666666,
      "d": 85.63543333333291,
      "v": 87
    },
    {
      "midi": 63,
      "hit": false,
      "t": 27361.902166666598,
      "d": 127.07193333333271,
      "v": 81
    },
    {
      "midi": 66,
      "hit": false,
      "t": 27361.902166666598,
      "d": 151.9338333333326,
      "v": 85
    },
    {
      "midi": 69,
      "hit": false,
      "t": 27364.66459999993,
      "d": 160.22113333333255,
      "v": 93
    },
    {
      "midi": 59,
      "hit": false,
      "t": 27375.714333333264,
      "d": 113.25976666666611,
      "v": 87
    },
    {
      "midi": 69,
      "hit": false,
      "t": 27668.532266666596,
      "d": 63.535966666666354,
      "v": 103
    },
    {
      "midi": 70,
      "hit": false,
      "t": 27723.780933333263,
      "d": 91.16029999999955,
      "v": 83
    },
    {
      "midi": 71,
      "hit": false,
      "t": 27817.703666666595,
      "d": 151.9338333333326,
      "v": 103
    },
    {
      "midi": 74,
      "hit": false,
      "t": 27986.212099999928,
      "d": 160.22113333333255,
      "v": 105
    },
    {
      "midi": 76,
      "hit": false,
      "t": 28165.770266666594,
      "d": 110.49733333333279,
      "v": 97
    },
    {
      "midi": 70,
      "hit": false,
      "t": 28356.378166666593,
      "d": 55.248666666666395,
      "v": 96
    },
    {
      "midi": 69,
      "hit": false,
      "t": 28414.389266666592,
      "d": 96.68516666666619,
      "v": 101
    },
    {
      "midi": 67,
      "hit": false,
      "t": 28511.07443333326,
      "d": 146.40896666666595,
      "v": 111
    },
    {
      "midi": 64,
      "hit": false,
      "t": 28674.057999999925,
      "d": 168.5084333333325,
      "v": 98
    },
    {
      "midi": 62,
      "hit": false,
      "t": 28842.566433333257,
      "d": 146.40896666666595,
      "v": 101
    },
    {
      "midi": 64,
      "hit": false,
      "t": 29005.549999999923,
      "d": 168.5084333333325,
      "v": 101
    },
    {
      "midi": 40,
      "hit": false,
      "t": 29171.295999999922,
      "d": 303.8676666666652,
      "v": 104
    },
    {
      "midi": 58,
      "hit": false,
      "t": 29488.975833333254,
      "d": 44.198933333333116,
      "v": 94
    },
    {
      "midi": 52,
      "hit": false,
      "t": 29488.975833333254,
      "d": 248.61899999999878,
      "v": 88
    },
    {
      "midi": 59,
      "hit": false,
      "t": 29502.78799999992,
      "d": 179.55816666666578,
      "v": 97
    },
    {
      "midi": 62,
      "hit": false,
      "t": 29502.78799999992,
      "d": 179.55816666666578,
      "v": 88
    },
    {
      "midi": 38,
      "hit": false,
      "t": 29502.78799999992,
      "d": 276.243333333332,
      "v": 97
    },
    {
      "midi": 61,
      "hit": false,
      "t": 29837.042433333252,
      "d": 215.46979999999894,
      "v": 95
    },
    {
      "midi": 57,
      "hit": false,
      "t": 29837.042433333252,
      "d": 229.28196666666554,
      "v": 98
    },
    {
      "midi": 52,
      "hit": false,
      "t": 29837.042433333252,
      "d": 243.09413333333214,
      "v": 93
    },
    {
      "midi": 37,
      "hit": false,
      "t": 29848.092166666585,
      "d": 237.5692666666655,
      "v": 101
    },
    {
      "midi": 36,
      "hit": false,
      "t": 30168.53443333325,
      "d": 179.55816666666578,
      "v": 111
    },
    {
      "midi": 52,
      "hit": false,
      "t": 30168.53443333325,
      "d": 381.2157999999981,
      "v": 98
    },
    {
      "midi": 55,
      "hit": false,
      "t": 30179.584166666584,
      "d": 113.25976666666611,
      "v": 109
    },
    {
      "midi": 59,
      "hit": false,
      "t": 30179.584166666584,
      "d": 441.98933333333116,
      "v": 106
    },
    {
      "midi": 56,
      "hit": false,
      "t": 30320.468266666583,
      "d": 201.65763333333234,
      "v": 90
    },
    {
      "midi": 54,
      "hit": false,
      "t": 30500.02643333325,
      "d": 104.97246666666615,
      "v": 98
    },
    {
      "midi": 59,
      "hit": false,
      "t": 30663.009999999915,
      "d": 140.8840999999993,
      "v": 101
    },
    {
      "midi": 54,
      "hit": false,
      "t": 30665.772433333248,
      "d": 132.59679999999935,
      "v": 105
    },
    {
      "midi": 51,
      "hit": false,
      "t": 30676.82216666658,
      "d": 127.07193333333271,
      "v": 104
    },
    {
      "midi": 35,
      "hit": false,
      "t": 30676.82216666658,
      "d": 179.55816666666578,
      "v": 106
    },
    {
      "midi": 54,
      "hit": false,
      "t": 30994.501999999913,
      "d": 127.07193333333271,
      "v": 106
    },
    {
      "midi": 35,
      "hit": false,
      "t": 30994.501999999913,
      "d": 168.5084333333325,
      "v": 112
    },
    {
      "midi": 51,
      "hit": false,
      "t": 30997.264433333246,
      "d": 138.121666666666,
      "v": 99
    },
    {
      "midi": 59,
      "hit": false,
      "t": 30997.264433333246,
      "d": 146.40896666666595,
      "v": 110
    },
    {
      "midi": 54,
      "hit": false,
      "t": 31325.99399999991,
      "d": 140.8840999999993,
      "v": 101
    },
    {
      "midi": 51,
      "hit": false,
      "t": 31328.756433333245,
      "d": 146.40896666666595,
      "v": 97
    },
    {
      "midi": 59,
      "hit": false,
      "t": 31339.806166666578,
      "d": 138.121666666666,
      "v": 112
    },
    {
      "midi": 35,
      "hit": false,
      "t": 31339.806166666578,
      "d": 165.74599999999919,
      "v": 117
    },
    {
      "midi": 51,
      "hit": false,
      "t": 31660.248433333243,
      "d": 104.97246666666615,
      "v": 105
    },
    {
      "midi": 54,
      "hit": false,
      "t": 31671.298166666576,
      "d": 96.68516666666619,
      "v": 105
    },
    {
      "midi": 35,
      "hit": false,
      "t": 31674.06059999991,
      "d": 91.16029999999955,
      "v": 111
    },
    {
      "midi": 59,
      "hit": false,
      "t": 31674.06059999991,
      "d": 91.16029999999955,
      "v": 108
    },
    {
      "midi": 67,
      "hit": false,
      "t": 31850.856333333242,
      "d": 96.68516666666619,
      "v": 110
    },
    {
      "midi": 68,
      "hit": false,
      "t": 31961.353666666575,
      "d": 82.87299999999959,
      "v": 83
    },
    {
      "midi": 71,
      "hit": false,
      "t": 32085.663166666574,
      "d": 82.87299999999959,
      "v": 91
    },
    {
      "midi": 76,
      "hit": false,
      "t": 32196.160499999907,
      "d": 99.44759999999951,
      "v": 101
    },
    {
      "midi": 67,
      "hit": false,
      "t": 32361.906499999906,
      "d": 85.63543333333291,
      "v": 101
    },
    {
      "midi": 68,
      "hit": false,
      "t": 32447.54193333324,
      "d": 91.16029999999955,
      "v": 79
    },
    {
      "midi": 71,
      "hit": false,
      "t": 32571.85143333324,
      "d": 104.97246666666615,
      "v": 93
    },
    {
      "midi": 76,
      "hit": false,
      "t": 32707.21066666657,
      "d": 85.63543333333655,
      "v": 91
    },
    {
      "midi": 67,
      "hit": false,
      "t": 32820.47043333324,
      "d": 91.16030000000319,
      "v": 107
    },
    {
      "midi": 68,
      "hit": false,
      "t": 32930.96776666658,
      "d": 82.87299999999959,
      "v": 76
    },
    {
      "midi": 71,
      "hit": false,
      "t": 33052.51483333325,
      "d": 96.68516666666983,
      "v": 89
    },
    {
      "midi": 76,
      "hit": false,
      "t": 33179.58676666659,
      "d": 91.16030000000319,
      "v": 99
    },
    {
      "midi": 67,
      "hit": false,
      "t": 33331.52059999992,
      "d": 91.16030000000319,
      "v": 97
    },
    {
      "midi": 68,
      "hit": false,
      "t": 33425.44333333326,
      "d": 85.63543333333655,
      "v": 81
    },
    {
      "midi": 71,
      "hit": false,
      "t": 33549.75283333327,
      "d": 85.63543333333655,
      "v": 94
    },
    {
      "midi": 76,
      "hit": false,
      "t": 33674.06233333327,
      "d": 99.44759999999951,
      "v": 96
    },
    {
      "midi": 67,
      "hit": false,
      "t": 33812.183999999936,
      "d": 85.63543333333655,
      "v": 98
    },
    {
      "midi": 68,
      "hit": false,
      "t": 33884.0072666666,
      "d": 104.97246666667343,
      "v": 83
    },
    {
      "midi": 71,
      "hit": false,
      "t": 34022.128933333275,
      "d": 96.68516666666983,
      "v": 97
    },
    {
      "midi": 76,
      "hit": false,
      "t": 34146.43843333328,
      "d": 91.16030000000319,
      "v": 101
    },
    {
      "midi": 67,
      "hit": false,
      "t": 34477.930433333284,
      "d": 91.16030000000319,
      "v": 112
    },
    {
      "midi": 68,
      "hit": false,
      "t": 34585.66533333329,
      "d": 96.68516666666983,
      "v": 80
    },
    {
      "midi": 71,
      "hit": false,
      "t": 34709.97483333329,
      "d": 96.68516666666983,
      "v": 95
    },
    {
      "midi": 76,
      "hit": false,
      "t": 34837.04676666663,
      "d": 96.68516666666983,
      "v": 99
    },
    {
      "midi": 67,
      "hit": false,
      "t": 35016.6049333333,
      "d": 104.97246666666615,
      "v": 95
    },
    {
      "midi": 68,
      "hit": false,
      "t": 35099.4779333333,
      "d": 110.49733333333279,
      "v": 78
    },
    {
      "midi": 71,
      "hit": false,
      "t": 35234.837166666635,
      "d": 85.63543333333655,
      "v": 95
    },
    {
      "midi": 76,
      "hit": false,
      "t": 35361.909099999975,
      "d": 91.16030000000319,
      "v": 88
    },
    {
      "midi": 67,
      "hit": false,
      "t": 35486.21859999998,
      "d": 82.87299999999959,
      "v": 96
    },
    {
      "midi": 68,
      "hit": false,
      "t": 35593.95349999998,
      "d": 110.49733333333279,
      "v": 79
    },
    {
      "midi": 71,
      "hit": false,
      "t": 35732.07516666665,
      "d": 85.63543333333655,
      "v": 92
    },
    {
      "midi": 76,
      "hit": false,
      "t": 35845.33493333332,
      "d": 91.16030000000319,
      "v": 97
    },
    {
      "midi": 67,
      "hit": false,
      "t": 36022.13066666666,
      "d": 110.49733333333279,
      "v": 98
    },
    {
      "midi": 68,
      "hit": false,
      "t": 36093.95393333332,
      "d": 104.97246666666615,
      "v": 86
    },
    {
      "midi": 71,
      "hit": false,
      "t": 36245.88776666666,
      "d": 27.624333333333198,
      "v": 74
    },
    {
      "midi": 76,
      "hit": false,
      "t": 36256.93749999999,
      "d": 58.01110000000335,
      "v": 96
    },
    {
      "midi": 71,
      "hit": false,
      "t": 36477.932166666666,
      "d": 58.01110000000335,
      "v": 107
    },
    {
      "midi": 74,
      "hit": false,
      "t": 36480.6946,
      "d": 49.723799999999756,
      "v": 90
    },
    {
      "midi": 69,
      "hit": false,
      "t": 36618.81626666667,
      "d": 82.87300000000687,
      "v": 93
    },
    {
      "midi": 73,
      "hit": false,
      "t": 36643.67816666667,
      "d": 55.248666666666395,
      "v": 83
    },
    {
      "midi": 71,
      "hit": false,
      "t": 36798.374433333345,
      "d": 132.59680000000662,
      "v": 105
    },
    {
      "midi": 68,
      "hit": false,
      "t": 36812.186600000015,
      "d": 104.97246666666615,
      "v": 101
    },
    {
      "midi": 64,
      "hit": false,
      "t": 37458.59600000002,
      "d": 140.88410000001022,
      "v": 97
    },
    {
      "midi": 57,
      "hit": false,
      "t": 37458.59600000002,
      "d": 151.93383333335078,
      "v": 97
    },
    {
      "midi": 67,
      "hit": false,
      "t": 37461.35843333336,
      "d": 146.40896666667686,
      "v": 87
    },
    {
      "midi": 61,
      "hit": false,
      "t": 37472.40816666669,
      "d": 124.30950000000303,
      "v": 83
    },
    {
      "midi": 45,
      "hit": false,
      "t": 37638.1541666667,
      "d": 99.44759999999951,
      "v": 88
    },
    {
      "midi": 61,
      "hit": false,
      "t": 37779.03826666671,
      "d": 104.97246666667343,
      "v": 85
    },
    {
      "midi": 64,
      "hit": false,
      "t": 37779.03826666671,
      "d": 110.49733333334007,
      "v": 91
    },
    {
      "midi": 57,
      "hit": false,
      "t": 37792.85043333338,
      "d": 82.87299999999959,
      "v": 92
    },
    {
      "midi": 61,
      "hit": false,
      "t": 37944.78426666671,
      "d": 270.7184666666726,
      "v": 87
    },
    {
      "midi": 67,
      "hit": false,
      "t": 37944.78426666671,
      "d": 284.53063333334285,
      "v": 97
    },
    {
      "midi": 64,
      "hit": false,
      "t": 37955.834000000046,
      "d": 265.193600000006,
      "v": 95
    },
    {
      "midi": 57,
      "hit": false,
      "t": 37958.59643333338,
      "d": 276.24333333333925,
      "v": 95
    },
    {
      "midi": 45,
      "hit": false,
      "t": 38276.276266666726,
      "d": 151.93383333333622,
      "v": 100
    },
    {
      "midi": 57,
      "hit": false,
      "t": 38453.072000000066,
      "d": 138.12166666668054,
      "v": 93
    },
    {
      "midi": 61,
      "hit": false,
      "t": 38455.8344333334,
      "d": 124.30950000000303,
      "v": 82
    },
    {
      "midi": 64,
      "hit": false,
      "t": 38455.8344333334,
      "d": 132.59680000000662,
      "v": 88
    },
    {
      "midi": 67,
      "hit": false,
      "t": 38455.8344333334,
      "d": 132.59680000000662,
      "v": 89
    },
    {
      "midi": 45,
      "hit": false,
      "t": 38632.63016666675,
      "d": 124.30950000000303,
      "v": 101
    },
    {
      "midi": 57,
      "hit": false,
      "t": 38787.32643333342,
      "d": 132.59680000000662,
      "v": 97
    },
    {
      "midi": 67,
      "hit": false,
      "t": 38787.32643333342,
      "d": 132.59680000000662,
      "v": 94
    },
    {
      "midi": 61,
      "hit": false,
      "t": 38798.376166666756,
      "d": 96.68516666666983,
      "v": 85
    },
    {
      "midi": 64,
      "hit": false,
      "t": 38798.376166666756,
      "d": 110.49733333334007,
      "v": 95
    },
    {
      "midi": 45,
      "hit": false,
      "t": 38950.3100000001,
      "d": 138.121666666666,
      "v": 101
    },
    {
      "midi": 57,
      "hit": false,
      "t": 39118.818433333436,
      "d": 77.34813333333295,
      "v": 91
    },
    {
      "midi": 61,
      "hit": false,
      "t": 39118.818433333436,
      "d": 77.34813333333295,
      "v": 86
    },
    {
      "midi": 64,
      "hit": false,
      "t": 39118.818433333436,
      "d": 96.68516666666983,
      "v": 91
    },
    {
      "midi": 67,
      "hit": false,
      "t": 39270.75226666677,
      "d": 220.99466666667286,
      "v": 95
    },
    {
      "midi": 64,
      "hit": false,
      "t": 39270.75226666677,
      "d": 234.8068333333431,
      "v": 93
    },
    {
      "midi": 57,
      "hit": false,
      "t": 39281.802000000105,
      "d": 234.8068333333431,
      "v": 95
    },
    {
      "midi": 61,
      "hit": false,
      "t": 39284.56443333344,
      "d": 220.99466666667286,
      "v": 79
    },
    {
      "midi": 64,
      "hit": false,
      "t": 39613.29400000012,
      "d": 154.69626666668046,
      "v": 97
    },
    {
      "midi": 57,
      "hit": false,
      "t": 39616.056433333455,
      "d": 124.30950000000303,
      "v": 96
    },
    {
      "midi": 61,
      "hit": false,
      "t": 39616.056433333455,
      "d": 132.59680000000662,
      "v": 85
    },
    {
      "midi": 52,
      "hit": false,
      "t": 39781.80243333347,
      "d": 339.77930000000197,
      "v": 115
    },
    {
      "midi": 68,
      "hit": false,
      "t": 40113.29443333347,
      "d": 132.59680000000662,
      "v": 87
    },
    {
      "midi": 59,
      "hit": false,
      "t": 40113.29443333347,
      "d": 146.40896666667686,
      "v": 95
    },
    {
      "midi": 64,
      "hit": false,
      "t": 40113.29443333347,
      "d": 146.40896666667686,
      "v": 96
    },
    {
      "midi": 52,
      "hit": false,
      "t": 40276.278000000144,
      "d": 168.50843333333614,
      "v": 106
    },
    {
      "midi": 59,
      "hit": false,
      "t": 40444.78643333348,
      "d": 82.87299999999959,
      "v": 93
    },
    {
      "midi": 62,
      "hit": false,
      "t": 40444.78643333348,
      "d": 82.87299999999959,
      "v": 96
    },
    {
      "midi": 66,
      "hit": false,
      "t": 40444.78643333348,
      "d": 91.16030000000319,
      "v": 92
    },
    {
      "midi": 59,
      "hit": false,
      "t": 40607.77000000015,
      "d": 292.81793333333917,
      "v": 87
    },
    {
      "midi": 64,
      "hit": false,
      "t": 40610.53243333349,
      "d": 290.0555000000022,
      "v": 99
    },
    {
      "midi": 68,
      "hit": false,
      "t": 40621.58216666682,
      "d": 265.1935999999987,
      "v": 90
    },
    {
      "midi": 52,
      "hit": false,
      "t": 40928.21226666682,
      "d": 174.03330000000278,
      "v": 108
    },
    {
      "midi": 59,
      "hit": false,
      "t": 41105.00800000016,
      "d": 138.12166666667326,
      "v": 100
    },
    {
      "midi": 64,
      "hit": false,
      "t": 41105.00800000016,
      "d": 138.12166666667326,
      "v": 98
    },
    {
      "midi": 68,
      "hit": false,
      "t": 41118.82016666683,
      "d": 113.25976666666975,
      "v": 85
    },
    {
      "midi": 52,
      "hit": false,
      "t": 41270.75400000017,
      "d": 168.50843333333614,
      "v": 100
    },
    {
      "midi": 68,
      "hit": false,
      "t": 41450.31216666684,
      "d": 124.30950000000303,
      "v": 84
    },
    {
      "midi": 59,
      "hit": false,
      "t": 41450.31216666684,
      "d": 138.12166666667326,
      "v": 97
    },
    {
      "midi": 64,
      "hit": false,
      "t": 41450.31216666684,
      "d": 138.12166666667326,
      "v": 95
    },
    {
      "midi": 52,
      "hit": false,
      "t": 41616.058166666844,
      "d": 138.121666666666,
      "v": 105
    },
    {
      "midi": 62,
      "hit": false,
      "t": 41770.75443333351,
      "d": 82.87299999999959,
      "v": 93
    },
    {
      "midi": 59,
      "hit": false,
      "t": 41770.75443333351,
      "d": 91.16030000000319,
      "v": 90
    },
    {
      "midi": 66,
      "hit": false,
      "t": 41781.80416666684,
      "d": 85.63543333333655,
      "v": 89
    },
    {
      "midi": 64,
      "hit": false,
      "t": 41936.50043333352,
      "d": 331.49199999999837,
      "v": 93
    },
    {
      "midi": 68,
      "hit": false,
      "t": 41947.55016666685,
      "d": 320.4422666666651,
      "v": 90
    },
    {
      "midi": 59,
      "hit": false,
      "t": 41947.55016666685,
      "d": 331.49199999999837,
      "v": 90
    },
    {
      "midi": 47,
      "hit": false,
      "t": 42279.04216666685,
      "d": 82.87299999999959,
      "v": 112
    },
    {
      "midi": 47,
      "hit": false,
      "t": 42419.92626666685,
      "d": 359.11633333333884,
      "v": 107
    },
    {
      "midi": 66,
      "hit": false,
      "t": 42765.23043333352,
      "d": 138.12166666667326,
      "v": 88
    },
    {
      "midi": 69,
      "hit": false,
      "t": 42765.23043333352,
      "d": 138.12166666667326,
      "v": 95
    },
    {
      "midi": 59,
      "hit": false,
      "t": 42765.23043333352,
      "d": 160.22113333333982,
      "v": 97
    },
    {
      "midi": 63,
      "hit": false,
      "t": 42776.28016666685,
      "d": 124.30950000000303,
      "v": 89
    },
    {
      "midi": 47,
      "hit": false,
      "t": 42942.02616666686,
      "d": 124.30950000000303,
      "v": 99
    },
    {
      "midi": 66,
      "hit": false,
      "t": 43096.72243333353,
      "d": 77.34813333333295,
      "v": 88
    },
    {
      "midi": 69,
      "hit": false,
      "t": 43096.72243333353,
      "d": 96.68516666666983,
      "v": 96
    },
    {
      "midi": 59,
      "hit": false,
      "t": 43107.772166666866,
      "d": 85.63543333333655,
      "v": 95
    },
    {
      "midi": 63,
      "hit": false,
      "t": 43107.772166666866,
      "d": 85.63543333333655,
      "v": 87
    },
    {
      "midi": 63,
      "hit": false,
      "t": 43273.51816666687,
      "d": 127.07193333333998,
      "v": 81
    },
    {
      "midi": 66,
      "hit": false,
      "t": 43273.51816666687,
      "d": 140.88410000001022,
      "v": 85
    },
    {
      "midi": 59,
      "hit": false,
      "t": 43276.28060000021,
      "d": 124.30950000000303,
      "v": 87
    },
    {
      "midi": 69,
      "hit": false,
      "t": 43276.28060000021,
      "d": 160.22113333333982,
      "v": 93
    },
    {
      "midi": 69,
      "hit": false,
      "t": 43580.14826666688,
      "d": 63.53596666666999,
      "v": 103
    },
    {
      "midi": 70,
      "hit": false,
      "t": 43635.39693333355,
      "d": 91.16030000000319,
      "v": 83
    },
    {
      "midi": 71,
      "hit": false,
      "t": 43729.31966666689,
      "d": 151.93383333333622,
      "v": 103
    },
    {
      "midi": 74,
      "hit": false,
      "t": 43897.828100000224,
      "d": 160.22113333333255,
      "v": 105
    },
    {
      "midi": 76,
      "hit": false,
      "t": 44088.43600000023,
      "d": 99.44759999999951,
      "v": 97
    },
    {
      "midi": 70,
      "hit": false,
      "t": 44267.9941666669,
      "d": 55.248666666666395,
      "v": 96
    },
    {
      "midi": 69,
      "hit": false,
      "t": 44323.24283333356,
      "d": 99.44759999999951,
      "v": 101
    },
    {
      "midi": 67,
      "hit": false,
      "t": 44422.69043333356,
      "d": 146.40896666666958,
      "v": 111
    },
    {
      "midi": 64,
      "hit": false,
      "t": 44585.67400000023,
      "d": 168.50843333333614,
      "v": 98
    },
    {
      "midi": 62,
      "hit": false,
      "t": 44754.18243333357,
      "d": 146.40896666666958,
      "v": 101
    },
    {
      "midi": 64,
      "hit": false,
      "t": 44917.16600000024,
      "d": 168.50843333333614,
      "v": 101
    },
    {
      "midi": 40,
      "hit": false,
      "t": 45082.91200000024,
      "d": 303.86766666667245,
      "v": 104
    },
    {
      "midi": 58,
      "hit": false,
      "t": 45400.59183333358,
      "d": 44.19893333334039,
      "v": 94
    },
    {
      "midi": 52,
      "hit": false,
      "t": 45400.59183333358,
      "d": 248.61900000001333,
      "v": 88
    },
    {
      "midi": 38,
      "hit": false,
      "t": 45403.35426666692,
      "d": 284.53063333334285,
      "v": 97
    },
    {
      "midi": 59,
      "hit": false,
      "t": 45417.16643333359,
      "d": 174.03330000000278,
      "v": 97
    },
    {
      "midi": 62,
      "hit": false,
      "t": 45417.16643333359,
      "d": 174.03330000000278,
      "v": 88
    },
    {
      "midi": 61,
      "hit": false,
      "t": 45748.65843333359,
      "d": 215.46979999999894,
      "v": 95
    },
    {
      "midi": 57,
      "hit": false,
      "t": 45748.65843333359,
      "d": 220.99466666666558,
      "v": 98
    },
    {
      "midi": 52,
      "hit": false,
      "t": 45748.65843333359,
      "d": 243.09413333333214,
      "v": 93
    },
    {
      "midi": 37,
      "hit": false,
      "t": 45759.708166666926,
      "d": 248.61899999999878,
      "v": 101
    },
    {
      "midi": 36,
      "hit": false,
      "t": 46080.15043333359,
      "d": 179.55816666666942,
      "v": 111
    },
    {
      "midi": 52,
      "hit": false,
      "t": 46080.15043333359,
      "d": 381.2158000000054,
      "v": 98
    },
    {
      "midi": 55,
      "hit": false,
      "t": 46091.200166666924,
      "d": 113.25976666666975,
      "v": 109
    },
    {
      "midi": 59,
      "hit": false,
      "t": 46091.200166666924,
      "d": 441.98933333333844,
      "v": 106
    },
    {
      "midi": 56,
      "hit": false,
      "t": 46232.08426666693,
      "d": 201.65763333333598,
      "v": 90
    },
    {
      "midi": 54,
      "hit": false,
      "t": 46411.642433333596,
      "d": 110.49733333333279,
      "v": 98
    },
    {
      "midi": 59,
      "hit": false,
      "t": 46574.626000000266,
      "d": 140.88410000000295,
      "v": 101
    },
    {
      "midi": 54,
      "hit": false,
      "t": 46577.3884333336,
      "d": 132.59679999999935,
      "v": 105
    },
    {
      "midi": 51,
      "hit": false,
      "t": 46588.438166666936,
      "d": 127.07193333333271,
      "v": 104
    },
    {
      "midi": 35,
      "hit": false,
      "t": 46588.438166666936,
      "d": 179.55816666666942,
      "v": 106
    },
    {
      "midi": 35,
      "hit": false,
      "t": 46906.11800000027,
      "d": 168.50843333334342,
      "v": 112
    },
    {
      "midi": 54,
      "hit": false,
      "t": 46908.88043333361,
      "d": 132.59679999999935,
      "v": 106
    },
    {
      "midi": 51,
      "hit": false,
      "t": 46908.88043333361,
      "d": 146.40896666666958,
      "v": 99
    },
    {
      "midi": 59,
      "hit": false,
      "t": 46908.88043333361,
      "d": 146.40896666666958,
      "v": 110
    },
    {
      "midi": 54,
      "hit": false,
      "t": 47237.610000000284,
      "d": 140.88410000000295,
      "v": 101
    },
    {
      "midi": 51,
      "hit": false,
      "t": 47240.37243333362,
      "d": 146.40896666666958,
      "v": 97
    },
    {
      "midi": 59,
      "hit": false,
      "t": 47251.422166666955,
      "d": 138.12166666667326,
      "v": 112
    },
    {
      "midi": 35,
      "hit": false,
      "t": 47251.422166666955,
      "d": 165.74600000000646,
      "v": 117
    },
    {
      "midi": 51,
      "hit": false,
      "t": 47571.86443333363,
      "d": 104.97246666667343,
      "v": 105
    },
    {
      "midi": 54,
      "hit": false,
      "t": 47582.91416666696,
      "d": 96.6851666666771,
      "v": 105
    },
    {
      "midi": 59,
      "hit": false,
      "t": 47585.6766000003,
      "d": 91.16030000000319,
      "v": 108
    },
    {
      "midi": 35,
      "hit": false,
      "t": 47596.72633333363,
      "d": 82.87300000000687,
      "v": 111
    },
    {
      "midi": 64,
      "hit": false,
      "t": 47737.61043333364,
      "d": 256.9063000000024,
      "v": 99
    },
    {
      "midi": 59,
      "hit": false,
      "t": 47737.61043333364,
      "d": 262.4311666666763,
      "v": 93
    },
    {
      "midi": 52,
      "hit": false,
      "t": 47748.660166666974,
      "d": 248.61900000000605,
      "v": 98
    },
    {
      "midi": 68,
      "hit": false,
      "t": 47748.660166666974,
      "d": 262.4311666666763,
      "v": 91
    },
    {
      "midi": 59,
      "hit": false,
      "t": 49917.17033333365,
      "d": 262.43116666668357,
      "v": 93
    },
    {
      "midi": 47,
      "hit": false,
      "t": 49919.932766666985,
      "d": 179.5581666666767,
      "v": 95
    },
    {
      "midi": 62,
      "hit": false,
      "t": 50071.86660000032,
      "d": 207.1825000000099,
      "v": 95
    },
    {
      "midi": 50,
      "hit": false,
      "t": 50096.728500000325,
      "d": 207.1825000000099,
      "v": 101
    },
    {
      "midi": 52,
      "hit": false,
      "t": 50400.596166667005,
      "d": 279.0057666666762,
      "v": 93
    },
    {
      "midi": 64,
      "hit": false,
      "t": 50400.596166667005,
      "d": 303.8676666666797,
      "v": 103
    },
    {
      "midi": 59,
      "hit": false,
      "t": 50403.35860000034,
      "d": 290.0555000000095,
      "v": 99
    },
    {
      "midi": 68,
      "hit": false,
      "t": 50414.408333333675,
      "d": 262.431166666669,
      "v": 96
    },
    {
      "midi": 52,
      "hit": false,
      "t": 52709.99043333368,
      "d": 270.7184666666726,
      "v": 102
    },
    {
      "midi": 62,
      "hit": false,
      "t": 52721.040166667015,
      "d": 237.56926666667277,
      "v": 104
    },
    {
      "midi": 68,
      "hit": false,
      "t": 52723.80260000035,
      "d": 256.9063000000024,
      "v": 96
    },
    {
      "midi": 59,
      "hit": false,
      "t": 52734.852333333685,
      "d": 248.61900000000605,
      "v": 101
    },
    {
      "midi": 64,
      "hit": false,
      "t": 53370.212000000356,
      "d": 140.88410000001022,
      "v": 97
    },
    {
      "midi": 57,
      "hit": false,
      "t": 53370.212000000356,
      "d": 151.93383333335078,
      "v": 97
    },
    {
      "midi": 67,
      "hit": false,
      "t": 53372.97443333369,
      "d": 146.40896666667686,
      "v": 87
    },
    {
      "midi": 61,
      "hit": false,
      "t": 53384.024166667026,
      "d": 124.30950000000303,
      "v": 83
    },
    {
      "midi": 45,
      "hit": false,
      "t": 53549.77016666704,
      "d": 99.44759999999951,
      "v": 88
    },
    {
      "midi": 61,
      "hit": false,
      "t": 53690.65426666704,
      "d": 104.97246666667343,
      "v": 85
    },
    {
      "midi": 64,
      "hit": false,
      "t": 53690.65426666704,
      "d": 118.78463333334366,
      "v": 91
    },
    {
      "midi": 57,
      "hit": false,
      "t": 53701.704000000376,
      "d": 85.63543333333655,
      "v": 92
    },
    {
      "midi": 61,
      "hit": false,
      "t": 53856.40026666706,
      "d": 270.7184666666726,
      "v": 87
    },
    {
      "midi": 67,
      "hit": false,
      "t": 53856.40026666706,
      "d": 284.53063333334285,
      "v": 97
    },
    {
      "midi": 64,
      "hit": false,
      "t": 53867.45000000039,
      "d": 265.193600000006,
      "v": 95
    },
    {
      "midi": 57,
      "hit": false,
      "t": 53870.21243333373,
      "d": 276.24333333333925,
      "v": 95
    },
    {
      "midi": 45,
      "hit": false,
      "t": 54187.89226666707,
      "d": 151.93383333333622,
      "v": 100
    },
    {
      "midi": 57,
      "hit": false,
      "t": 54353.638266667076,
      "d": 151.93383333333622,
      "v": 93
    },
    {
      "midi": 61,
      "hit": false,
      "t": 54364.68800000041,
      "d": 127.07193333333271,
      "v": 82
    },
    {
      "midi": 64,
      "hit": false,
      "t": 54364.68800000041,
      "d": 138.121666666666,
      "v": 88
    },
    {
      "midi": 67,
      "hit": false,
      "t": 54364.68800000041,
      "d": 140.88410000000295,
      "v": 89
    },
    {
      "midi": 45,
      "hit": false,
      "t": 54544.24616666708,
      "d": 124.30950000000303,
      "v": 101
    },
    {
      "midi": 67,
      "hit": false,
      "t": 54696.180000000415,
      "d": 138.12166666667326,
      "v": 94
    },
    {
      "midi": 61,
      "hit": false,
      "t": 54698.94243333375,
      "d": 104.97246666666615,
      "v": 85
    },
    {
      "midi": 57,
      "hit": false,
      "t": 54698.94243333375,
      "d": 132.59679999999935,
      "v": 97
    },
    {
      "midi": 64,
      "hit": false,
      "t": 54709.992166667085,
      "d": 110.49733333333279,
      "v": 95
    },
    {
      "midi": 45,
      "hit": false,
      "t": 54861.92600000042,
      "d": 138.121666666666,
      "v": 101
    },
    {
      "midi": 61,
      "hit": false,
      "t": 55027.67200000042,
      "d": 82.87300000000687,
      "v": 86
    },
    {
      "midi": 57,
      "hit": false,
      "t": 55030.43443333376,
      "d": 77.34813333333295,
      "v": 91
    },
    {
      "midi": 64,
      "hit": false,
      "t": 55030.43443333376,
      "d": 96.68516666666983,
      "v": 91
    },
    {
      "midi": 67,
      "hit": false,
      "t": 55182.368266667094,
      "d": 220.99466666667286,
      "v": 95
    },
    {
      "midi": 64,
      "hit": false,
      "t": 55193.41800000043,
      "d": 223.7571000000098,
      "v": 93
    },
    {
      "midi": 57,
      "hit": false,
      "t": 55193.41800000043,
      "d": 234.8068333333431,
      "v": 95
    },
    {
      "midi": 61,
      "hit": false,
      "t": 55196.180433333764,
      "d": 220.99466666667286,
      "v": 79
    },
    {
      "midi": 64,
      "hit": false,
      "t": 55524.91000000044,
      "d": 154.69626666668046,
      "v": 97
    },
    {
      "midi": 57,
      "hit": false,
      "t": 55527.67243333378,
      "d": 124.30950000000303,
      "v": 96
    },
    {
      "midi": 61,
      "hit": false,
      "t": 55527.67243333378,
      "d": 132.59680000000662,
      "v": 85
    },
    {
      "midi": 52,
      "hit": false,
      "t": 55690.656000000454,
      "d": 345.3041666666686,
      "v": 115
    },
    {
      "midi": 68,
      "hit": false,
      "t": 56024.91043333379,
      "d": 132.59679999999935,
      "v": 87
    },
    {
      "midi": 59,
      "hit": false,
      "t": 56024.91043333379,
      "d": 146.40896666666958,
      "v": 95
    },
    {
      "midi": 64,
      "hit": false,
      "t": 56024.91043333379,
      "d": 146.40896666666958,
      "v": 96
    },
    {
      "midi": 52,
      "hit": false,
      "t": 56187.89400000046,
      "d": 168.50843333333614,
      "v": 106
    },
    {
      "midi": 59,
      "hit": false,
      "t": 56356.402433333795,
      "d": 82.87299999999959,
      "v": 93
    },
    {
      "midi": 62,
      "hit": false,
      "t": 56356.402433333795,
      "d": 82.87299999999959,
      "v": 96
    },
    {
      "midi": 66,
      "hit": false,
      "t": 56356.402433333795,
      "d": 91.16030000000319,
      "v": 92
    },
    {
      "midi": 59,
      "hit": false,
      "t": 56519.386000000464,
      "d": 292.81793333333917,
      "v": 87
    },
    {
      "midi": 64,
      "hit": false,
      "t": 56522.1484333338,
      "d": 284.5306333333356,
      "v": 99
    },
    {
      "midi": 68,
      "hit": false,
      "t": 56533.198166667135,
      "d": 265.1935999999987,
      "v": 90
    },
    {
      "midi": 52,
      "hit": false,
      "t": 56839.82826666714,
      "d": 174.03330000000278,
      "v": 108
    },
    {
      "midi": 64,
      "hit": false,
      "t": 57016.62400000048,
      "d": 138.12166666668054,
      "v": 98
    },
    {
      "midi": 59,
      "hit": false,
      "t": 57019.38643333381,
      "d": 132.59680000000662,
      "v": 100
    },
    {
      "midi": 68,
      "hit": false,
      "t": 57030.43616666715,
      "d": 113.25976666666975,
      "v": 85
    },
    {
      "midi": 52,
      "hit": false,
      "t": 57182.37000000049,
      "d": 168.50843333333614,
      "v": 100
    },
    {
      "midi": 68,
      "hit": false,
      "t": 57361.92816666716,
      "d": 124.30950000000303,
      "v": 84
    },
    {
      "midi": 64,
      "hit": false,
      "t": 57361.92816666716,
      "d": 138.12166666667326,
      "v": 95
    },
    {
      "midi": 59,
      "hit": false,
      "t": 57364.6906000005,
      "d": 138.12166666667326,
      "v": 97
    },
    {
      "midi": 52,
      "hit": false,
      "t": 57527.67416666717,
      "d": 138.121666666666,
      "v": 105
    },
    {
      "midi": 62,
      "hit": false,
      "t": 57682.37043333384,
      "d": 82.87299999999959,
      "v": 93
    },
    {
      "midi": 59,
      "hit": false,
      "t": 57682.37043333384,
      "d": 91.16030000000319,
      "v": 90
    },
    {
      "midi": 66,
      "hit": false,
      "t": 57693.42016666717,
      "d": 85.63543333333655,
      "v": 89
    },
    {
      "midi": 64,
      "hit": false,
      "t": 57848.116433333846,
      "d": 331.49200000000565,
      "v": 93
    },
    {
      "midi": 68,
      "hit": false,
      "t": 57859.16616666718,
      "d": 317.6798333333354,
      "v": 90
    },
    {
      "midi": 59,
      "hit": false,
      "t": 57859.16616666718,
      "d": 331.49200000000565,
      "v": 90
    },
    {
      "midi": 47,
      "hit": false,
      "t": 58190.658166667185,
      "d": 82.87299999999959,
      "v": 112
    },
    {
      "midi": 47,
      "hit": false,
      "t": 58342.59200000052,
      "d": 348.06660000000556,
      "v": 107
    },
    {
      "midi": 66,
      "hit": false,
      "t": 58676.846433333856,
      "d": 138.12166666667326,
      "v": 88
    },
    {
      "midi": 69,
      "hit": false,
      "t": 58676.846433333856,
      "d": 138.12166666667326,
      "v": 95
    },
    {
      "midi": 59,
      "hit": false,
      "t": 58676.846433333856,
      "d": 151.9338333333435,
      "v": 97
    },
    {
      "midi": 63,
      "hit": false,
      "t": 58687.89616666719,
      "d": 124.30950000000303,
      "v": 89
    },
    {
      "midi": 47,
      "hit": false,
      "t": 58853.6421666672,
      "d": 124.30950000000303,
      "v": 99
    },
    {
      "midi": 66,
      "hit": false,
      "t": 59008.338433333876,
      "d": 77.34813333333295,
      "v": 88
    },
    {
      "midi": 69,
      "hit": false,
      "t": 59008.338433333876,
      "d": 96.68516666666983,
      "v": 96
    },
    {
      "midi": 59,
      "hit": false,
      "t": 59019.38816666721,
      "d": 85.63543333333655,
      "v": 95
    },
    {
      "midi": 63,
      "hit": false,
      "t": 59019.38816666721,
      "d": 85.63543333333655,
      "v": 87
    },
    {
      "midi": 63,
      "hit": false,
      "t": 59185.134166667216,
      "d": 127.07193333333998,
      "v": 81
    },
    {
      "midi": 66,
      "hit": false,
      "t": 59185.134166667216,
      "d": 140.88410000001022,
      "v": 85
    },
    {
      "midi": 59,
      "hit": false,
      "t": 59187.89660000055,
      "d": 124.30950000000303,
      "v": 87
    },
    {
      "midi": 69,
      "hit": false,
      "t": 59187.89660000055,
      "d": 160.22113333333982,
      "v": 93
    },
    {
      "midi": 69,
      "hit": false,
      "t": 59491.764266667225,
      "d": 63.53596666666999,
      "v": 103
    },
    {
      "midi": 70,
      "hit": false,
      "t": 59547.01293333389,
      "d": 91.16030000000319,
      "v": 83
    },
    {
      "midi": 71,
      "hit": false,
      "t": 59640.93566666723,
      "d": 151.93383333333622,
      "v": 103
    },
    {
      "midi": 74,
      "hit": false,
      "t": 59809.44410000057,
      "d": 165.74599999999919,
      "v": 105
    },
    {
      "midi": 76,
      "hit": false,
      "t": 59989.00226666724,
      "d": 110.49733333333279,
      "v": 97
    },
    {
      "midi": 70,
      "hit": false,
      "t": 60179.61016666724,
      "d": 55.248666666666395,
      "v": 96
    },
    {
      "midi": 69,
      "hit": false,
      "t": 60234.85883333391,
      "d": 99.44759999999951,
      "v": 101
    },
    {
      "midi": 67,
      "hit": false,
      "t": 60334.306433333906,
      "d": 146.40896666666958,
      "v": 111
    },
    {
      "midi": 64,
      "hit": false,
      "t": 60497.290000000576,
      "d": 168.50843333333614,
      "v": 98
    },
    {
      "midi": 62,
      "hit": false,
      "t": 60665.79843333391,
      "d": 146.40896666666958,
      "v": 101
    },
    {
      "midi": 64,
      "hit": false,
      "t": 60828.78200000058,
      "d": 168.50843333333614,
      "v": 101
    },
    {
      "midi": 40,
      "hit": false,
      "t": 60997.29043333392,
      "d": 298.34279999999853,
      "v": 104
    },
    {
      "midi": 58,
      "hit": false,
      "t": 61312.207833333916,
      "d": 44.19893333334039,
      "v": 94
    },
    {
      "midi": 52,
      "hit": false,
      "t": 61312.207833333916,
      "d": 248.61900000000605,
      "v": 88
    },
    {
      "midi": 38,
      "hit": false,
      "t": 61314.97026666725,
      "d": 284.5306333333356,
      "v": 97
    },
    {
      "midi": 59,
      "hit": false,
      "t": 61326.020000000586,
      "d": 179.55816666666942,
      "v": 97
    },
    {
      "midi": 62,
      "hit": false,
      "t": 61326.020000000586,
      "d": 179.55816666666942,
      "v": 88
    },
    {
      "midi": 61,
      "hit": false,
      "t": 61660.27443333392,
      "d": 215.46979999999894,
      "v": 95
    },
    {
      "midi": 57,
      "hit": false,
      "t": 61660.27443333392,
      "d": 220.99466666666558,
      "v": 98
    },
    {
      "midi": 52,
      "hit": false,
      "t": 61660.27443333392,
      "d": 243.09413333333214,
      "v": 93
    },
    {
      "midi": 37,
      "hit": false,
      "t": 61671.324166667255,
      "d": 248.61899999999878,
      "v": 101
    },
    {
      "midi": 36,
      "hit": false,
      "t": 61991.76643333392,
      "d": 179.55816666666942,
      "v": 111
    },
    {
      "midi": 52,
      "hit": false,
      "t": 61991.76643333392,
      "d": 381.2158000000054,
      "v": 98
    },
    {
      "midi": 55,
      "hit": false,
      "t": 62002.81616666725,
      "d": 113.25976666666975,
      "v": 109
    },
    {
      "midi": 59,
      "hit": false,
      "t": 62002.81616666725,
      "d": 441.98933333333844,
      "v": 106
    },
    {
      "midi": 56,
      "hit": false,
      "t": 62143.700266667256,
      "d": 201.65763333333598,
      "v": 90
    },
    {
      "midi": 54,
      "hit": false,
      "t": 62323.258433333925,
      "d": 110.49733333333279,
      "v": 98
    },
    {
      "midi": 59,
      "hit": false,
      "t": 62486.242000000595,
      "d": 140.88410000000295,
      "v": 101
    },
    {
      "midi": 54,
      "hit": false,
      "t": 62489.00443333393,
      "d": 132.59679999999935,
      "v": 105
    },
    {
      "midi": 51,
      "hit": false,
      "t": 62500.054166667265,
      "d": 127.07193333333271,
      "v": 104
    },
    {
      "midi": 35,
      "hit": false,
      "t": 62500.054166667265,
      "d": 179.55816666666942,
      "v": 106
    },
    {
      "midi": 35,
      "hit": false,
      "t": 62817.7340000006,
      "d": 168.50843333334342,
      "v": 112
    },
    {
      "midi": 54,
      "hit": false,
      "t": 62820.49643333394,
      "d": 124.30950000000303,
      "v": 106
    },
    {
      "midi": 51,
      "hit": false,
      "t": 62820.49643333394,
      "d": 146.40896666666958,
      "v": 99
    },
    {
      "midi": 59,
      "hit": false,
      "t": 62820.49643333394,
      "d": 146.40896666666958,
      "v": 110
    },
    {
      "midi": 54,
      "hit": false,
      "t": 63149.22600000061,
      "d": 140.88410000000295,
      "v": 101
    },
    {
      "midi": 51,
      "hit": false,
      "t": 63151.98843333395,
      "d": 146.40896666666958,
      "v": 97
    },
    {
      "midi": 59,
      "hit": false,
      "t": 63163.038166667284,
      "d": 138.12166666667326,
      "v": 112
    },
    {
      "midi": 35,
      "hit": false,
      "t": 63163.038166667284,
      "d": 165.74600000000646,
      "v": 117
    },
    {
      "midi": 51,
      "hit": false,
      "t": 63483.480433333956,
      "d": 110.49733333334734,
      "v": 105
    },
    {
      "midi": 54,
      "hit": false,
      "t": 63494.53016666729,
      "d": 96.6851666666771,
      "v": 105
    },
    {
      "midi": 35,
      "hit": false,
      "t": 63497.29260000063,
      "d": 91.16030000000319,
      "v": 111
    },
    {
      "midi": 59,
      "hit": false,
      "t": 63497.29260000063,
      "d": 91.16030000000319,
      "v": 108
    },
    {
      "midi": 64,
      "hit": false,
      "t": 63646.46400000064,
      "d": 262.431166666669,
      "v": 99
    },
    {
      "midi": 59,
      "hit": false,
      "t": 63649.22643333398,
      "d": 270.71846666666534,
      "v": 93
    },
    {
      "midi": 52,
      "hit": false,
      "t": 63660.27616666731,
      "d": 248.61899999999878,
      "v": 98
    },
    {
      "midi": 68,
      "hit": false,
      "t": 63660.27616666731,
      "d": 262.431166666669,
      "v": 91
    },
    {
      "midi": 64,
      "hit": false,
      "t": 64975.19443333398,
      "d": 256.9063000000024,
      "v": 99
    },
    {
      "midi": 59,
      "hit": false,
      "t": 64975.19443333398,
      "d": 262.4311666666763,
      "v": 93
    },
    {
      "midi": 52,
      "hit": false,
      "t": 64986.24416666731,
      "d": 248.61900000000605,
      "v": 98
    },
    {
      "midi": 68,
      "hit": false,
      "t": 64986.24416666731,
      "d": 262.4311666666763,
      "v": 91
    },
    {
      "midi": 52,
      "hit": false,
      "t": 66312.21216666732,
      "d": 290.0555000000022,
      "v": 93
    },
    {
      "midi": 64,
      "hit": false,
      "t": 66312.21216666732,
      "d": 303.86766666667245,
      "v": 103
    },
    {
      "midi": 59,
      "hit": false,
      "t": 66314.97460000066,
      "d": 290.0555000000022,
      "v": 99
    },
    {
      "midi": 68,
      "hit": false,
      "t": 66326.02433333399,
      "d": 262.43116666666174,
      "v": 96
    },
    {
      "midi": 52,
      "hit": false,
      "t": 68621.60643333399,
      "d": 270.7184666666726,
      "v": 102
    },
    {
      "midi": 62,
      "hit": false,
      "t": 68632.65616666732,
      "d": 248.61900000000605,
      "v": 104
    },
    {
      "midi": 68,
      "hit": false,
      "t": 68635.41860000066,
      "d": 256.9063000000024,
      "v": 96
    },
    {
      "midi": 59,
      "hit": false,
      "t": 68646.46833333399,
      "d": 248.61900000000605,
      "v": 101
    },
    {
      "midi": 64,
      "hit": false,
      "t": 69281.82800000066,
      "d": 140.88410000001022,
      "v": 97
    },
    {
      "midi": 57,
      "hit": false,
      "t": 69281.82800000066,
      "d": 151.9338333333435,
      "v": 97
    },
    {
      "midi": 61,
      "hit": false,
      "t": 69284.590433334,
      "d": 132.59679999999935,
      "v": 83
    },
    {
      "midi": 67,
      "hit": false,
      "t": 69284.590433334,
      "d": 146.40896666666958,
      "v": 87
    },
    {
      "midi": 45,
      "hit": false,
      "t": 69461.38616666735,
      "d": 99.44759999999951,
      "v": 88
    },
    {
      "midi": 61,
      "hit": false,
      "t": 69602.27026666734,
      "d": 104.97246666667343,
      "v": 85
    },
    {
      "midi": 64,
      "hit": false,
      "t": 69602.27026666734,
      "d": 118.78463333334366,
      "v": 91
    },
    {
      "midi": 57,
      "hit": false,
      "t": 69616.08243333401,
      "d": 82.87300000000687,
      "v": 92
    },
    {
      "midi": 61,
      "hit": false,
      "t": 69768.01626666736,
      "d": 270.7184666666726,
      "v": 87
    },
    {
      "midi": 67,
      "hit": false,
      "t": 69768.01626666736,
      "d": 284.53063333334285,
      "v": 97
    },
    {
      "midi": 64,
      "hit": false,
      "t": 69779.06600000069,
      "d": 265.19360000001325,
      "v": 95
    },
    {
      "midi": 57,
      "hit": false,
      "t": 69781.82843333403,
      "d": 276.2433333333465,
      "v": 95
    },
    {
      "midi": 45,
      "hit": false,
      "t": 70099.50826666737,
      "d": 151.93383333332895,
      "v": 100
    },
    {
      "midi": 57,
      "hit": false,
      "t": 70265.25426666737,
      "d": 151.9338333333435,
      "v": 93
    },
    {
      "midi": 61,
      "hit": false,
      "t": 70279.06643333404,
      "d": 124.30950000000303,
      "v": 82
    },
    {
      "midi": 64,
      "hit": false,
      "t": 70279.06643333404,
      "d": 132.59679999999935,
      "v": 88
    },
    {
      "midi": 67,
      "hit": false,
      "t": 70279.06643333404,
      "d": 138.12166666667326,
      "v": 89
    },
    {
      "midi": 45,
      "hit": false,
      "t": 70455.86216666739,
      "d": 124.30950000000303,
      "v": 101
    },
    {
      "midi": 61,
      "hit": false,
      "t": 70610.55843333405,
      "d": 104.97246666667343,
      "v": 85
    },
    {
      "midi": 57,
      "hit": false,
      "t": 70610.55843333405,
      "d": 132.5968000000139,
      "v": 97
    },
    {
      "midi": 67,
      "hit": false,
      "t": 70610.55843333405,
      "d": 132.5968000000139,
      "v": 94
    },
    {
      "midi": 64,
      "hit": false,
      "t": 70621.60816666739,
      "d": 110.49733333334734,
      "v": 95
    },
    {
      "midi": 45,
      "hit": false,
      "t": 70773.54200000073,
      "d": 138.12166666667326,
      "v": 101
    },
    {
      "midi": 57,
      "hit": false,
      "t": 70942.05043333407,
      "d": 77.34813333333295,
      "v": 91
    },
    {
      "midi": 61,
      "hit": false,
      "t": 70942.05043333407,
      "d": 77.34813333333295,
      "v": 86
    },
    {
      "midi": 64,
      "hit": false,
      "t": 70942.05043333407,
      "d": 96.68516666666255,
      "v": 91
    },
    {
      "midi": 67,
      "hit": false,
      "t": 71093.9842666674,
      "d": 229.28196666667645,
      "v": 95
    },
    {
      "midi": 64,
      "hit": false,
      "t": 71093.9842666674,
      "d": 234.80683333335037,
      "v": 93
    },
    {
      "midi": 57,
      "hit": false,
      "t": 71105.03400000073,
      "d": 234.80683333335037,
      "v": 95
    },
    {
      "midi": 61,
      "hit": false,
      "t": 71107.79643333406,
      "d": 220.99466666668013,
      "v": 79
    },
    {
      "midi": 64,
      "hit": false,
      "t": 71436.52600000074,
      "d": 154.6962666666659,
      "v": 97
    },
    {
      "midi": 57,
      "hit": false,
      "t": 71439.28843333408,
      "d": 124.30950000000303,
      "v": 96
    },
    {
      "midi": 61,
      "hit": false,
      "t": 71439.28843333408,
      "d": 132.59679999999935,
      "v": 85
    },
    {
      "midi": 52,
      "hit": false,
      "t": 71605.03443333408,
      "d": 339.7792999999947,
      "v": 115
    },
    {
      "midi": 68,
      "hit": false,
      "t": 71936.52643333407,
      "d": 132.59679999999935,
      "v": 87
    },
    {
      "midi": 59,
      "hit": false,
      "t": 71936.52643333407,
      "d": 146.40896666666958,
      "v": 95
    },
    {
      "midi": 64,
      "hit": false,
      "t": 71936.52643333407,
      "d": 146.40896666666958,
      "v": 96
    },
    {
      "midi": 52,
      "hit": false,
      "t": 72099.51000000075,
      "d": 168.50843333333614,
      "v": 106
    },
    {
      "midi": 59,
      "hit": false,
      "t": 72268.01843333409,
      "d": 82.87300000000687,
      "v": 93
    },
    {
      "midi": 62,
      "hit": false,
      "t": 72268.01843333409,
      "d": 82.87300000000687,
      "v": 96
    },
    {
      "midi": 66,
      "hit": false,
      "t": 72268.01843333409,
      "d": 91.16030000000319,
      "v": 92
    },
    {
      "midi": 59,
      "hit": false,
      "t": 72431.00200000076,
      "d": 292.81793333333917,
      "v": 87
    },
    {
      "midi": 64,
      "hit": false,
      "t": 72433.7644333341,
      "d": 284.5306333333283,
      "v": 99
    },
    {
      "midi": 68,
      "hit": false,
      "t": 72444.81416666743,
      "d": 265.1935999999987,
      "v": 90
    },
    {
      "midi": 52,
      "hit": false,
      "t": 72751.44426666744,
      "d": 174.0332999999955,
      "v": 108
    },
    {
      "midi": 59,
      "hit": false,
      "t": 72928.24000000078,
      "d": 138.12166666667326,
      "v": 100
    },
    {
      "midi": 64,
      "hit": false,
      "t": 72928.24000000078,
      "d": 138.12166666667326,
      "v": 98
    },
    {
      "midi": 68,
      "hit": false,
      "t": 72942.05216666745,
      "d": 113.25976666666975,
      "v": 85
    },
    {
      "midi": 52,
      "hit": false,
      "t": 73093.98600000079,
      "d": 168.50843333333614,
      "v": 100
    },
    {
      "midi": 68,
      "hit": false,
      "t": 73273.54416666746,
      "d": 124.30950000000303,
      "v": 84
    },
    {
      "midi": 64,
      "hit": false,
      "t": 73273.54416666746,
      "d": 138.12166666667326,
      "v": 95
    },
    {
      "midi": 59,
      "hit": false,
      "t": 73276.3066000008,
      "d": 138.12166666667326,
      "v": 97
    },
    {
      "midi": 52,
      "hit": false,
      "t": 73439.29016666747,
      "d": 138.12166666667326,
      "v": 105
    },
    {
      "midi": 59,
      "hit": false,
      "t": 73591.22400000082,
      "d": 96.6851666666771,
      "v": 90
    },
    {
      "midi": 62,
      "hit": false,
      "t": 73593.98643333415,
      "d": 82.87300000000687,
      "v": 93
    },
    {
      "midi": 66,
      "hit": false,
      "t": 73605.03616666749,
      "d": 85.63543333334383,
      "v": 89
    },
    {
      "midi": 64,
      "hit": false,
      "t": 73770.7821666675,
      "d": 320.4422666666651,
      "v": 93
    },
    {
      "midi": 68,
      "hit": false,
      "t": 73770.7821666675,
      "d": 320.4422666666651,
      "v": 90
    },
    {
      "midi": 59,
      "hit": false,
      "t": 73770.7821666675,
      "d": 331.49199999999837,
      "v": 90
    },
    {
      "midi": 47,
      "hit": false,
      "t": 74102.2741666675,
      "d": 82.87300000000687,
      "v": 112
    },
    {
      "midi": 47,
      "hit": false,
      "t": 74243.15826666751,
      "d": 359.11633333333884,
      "v": 107
    },
    {
      "midi": 59,
      "hit": false,
      "t": 74588.46243333418,
      "d": 151.9338333333435,
      "v": 97
    },
    {
      "midi": 63,
      "hit": false,
      "t": 74599.51216666751,
      "d": 124.30950000000303,
      "v": 89
    },
    {
      "midi": 66,
      "hit": false,
      "t": 74599.51216666751,
      "d": 127.07193333333998,
      "v": 88
    },
    {
      "midi": 69,
      "hit": false,
      "t": 74599.51216666751,
      "d": 127.07193333333998,
      "v": 95
    },
    {
      "midi": 47,
      "hit": false,
      "t": 74765.25816666753,
      "d": 124.30950000000303,
      "v": 99
    },
    {
      "midi": 66,
      "hit": false,
      "t": 74919.95443333419,
      "d": 77.34813333333295,
      "v": 88
    },
    {
      "midi": 69,
      "hit": false,
      "t": 74919.95443333419,
      "d": 96.68516666666255,
      "v": 96
    },
    {
      "midi": 59,
      "hit": false,
      "t": 74931.00416666752,
      "d": 85.63543333332927,
      "v": 95
    },
    {
      "midi": 63,
      "hit": false,
      "t": 74931.00416666752,
      "d": 85.63543333332927,
      "v": 87
    },
    {
      "midi": 63,
      "hit": false,
      "t": 75096.75016666752,
      "d": 127.07193333333998,
      "v": 81
    },
    {
      "midi": 66,
      "hit": false,
      "t": 75096.75016666752,
      "d": 151.9338333333435,
      "v": 85
    },
    {
      "midi": 59,
      "hit": false,
      "t": 75099.51260000086,
      "d": 124.30950000000303,
      "v": 87
    },
    {
      "midi": 69,
      "hit": false,
      "t": 75099.51260000086,
      "d": 160.22113333333982,
      "v": 93
    },
    {
      "midi": 69,
      "hit": false,
      "t": 75403.38026666753,
      "d": 63.535966666662716,
      "v": 103
    },
    {
      "midi": 70,
      "hit": false,
      "t": 75458.6289333342,
      "d": 91.16030000000319,
      "v": 83
    },
    {
      "midi": 71,
      "hit": false,
      "t": 75552.55166666754,
      "d": 151.93383333332895,
      "v": 103
    },
    {
      "midi": 74,
      "hit": false,
      "t": 75721.06010000088,
      "d": 160.22113333333982,
      "v": 105
    },
    {
      "midi": 76,
      "hit": false,
      "t": 75900.61826666754,
      "d": 110.49733333333279,
      "v": 97
    },
    {
      "midi": 70,
      "hit": false,
      "t": 76091.22616666755,
      "d": 55.248666666666395,
      "v": 96
    },
    {
      "midi": 69,
      "hit": false,
      "t": 76146.47483333421,
      "d": 99.44759999999951,
      "v": 101
    },
    {
      "midi": 67,
      "hit": false,
      "t": 76245.92243333421,
      "d": 146.40896666666958,
      "v": 111
    },
    {
      "midi": 64,
      "hit": false,
      "t": 76408.90600000089,
      "d": 168.50843333333614,
      "v": 98
    },
    {
      "midi": 62,
      "hit": false,
      "t": 76577.41443333423,
      "d": 146.40896666666958,
      "v": 101
    },
    {
      "midi": 64,
      "hit": false,
      "t": 76740.3980000009,
      "d": 168.50843333333614,
      "v": 101
    },
    {
      "midi": 40,
      "hit": false,
      "t": 76908.90643333424,
      "d": 298.34279999999853,
      "v": 104
    },
    {
      "midi": 58,
      "hit": false,
      "t": 77223.82383333425,
      "d": 44.19893333334767,
      "v": 94
    },
    {
      "midi": 52,
      "hit": false,
      "t": 77223.82383333425,
      "d": 248.6190000000206,
      "v": 88
    },
    {
      "midi": 38,
      "hit": false,
      "t": 77226.58626666758,
      "d": 284.5306333333574,
      "v": 97
    },
    {
      "midi": 59,
      "hit": false,
      "t": 77251.44816666759,
      "d": 165.74600000001374,
      "v": 97
    },
    {
      "midi": 62,
      "hit": false,
      "t": 77251.44816666759,
      "d": 165.74600000001374,
      "v": 88
    },
    {
      "midi": 61,
      "hit": false,
      "t": 77569.12800000094,
      "d": 220.99466666666558,
      "v": 95
    },
    {
      "midi": 57,
      "hit": false,
      "t": 77571.89043333428,
      "d": 229.2819666666619,
      "v": 98
    },
    {
      "midi": 52,
      "hit": false,
      "t": 77571.89043333428,
      "d": 234.80683333333582,
      "v": 93
    },
    {
      "midi": 37,
      "hit": false,
      "t": 77582.94016666761,
      "d": 237.56926666667277,
      "v": 101
    },
    {
      "midi": 36,
      "hit": false,
      "t": 77903.3824333343,
      "d": 179.55816666668397,
      "v": 111
    },
    {
      "midi": 52,
      "hit": false,
      "t": 77903.3824333343,
      "d": 381.21580000001995,
      "v": 98
    },
    {
      "midi": 55,
      "hit": false,
      "t": 77914.43216666763,
      "d": 113.25976666666975,
      "v": 109
    },
    {
      "midi": 59,
      "hit": false,
      "t": 77914.43216666763,
      "d": 441.98933333336026,
      "v": 106
    },
    {
      "midi": 56,
      "hit": false,
      "t": 78055.31626666764,
      "d": 201.65763333333598,
      "v": 90
    },
    {
      "midi": 54,
      "hit": false,
      "t": 78234.8744333343,
      "d": 110.49733333334734,
      "v": 98
    },
    {
      "midi": 59,
      "hit": false,
      "t": 78397.85800000098,
      "d": 140.88410000001022,
      "v": 101
    },
    {
      "midi": 54,
      "hit": false,
      "t": 78400.62043333432,
      "d": 132.59679999999935,
      "v": 105
    },
    {
      "midi": 51,
      "hit": false,
      "t": 78411.67016666765,
      "d": 127.07193333333998,
      "v": 104
    },
    {
      "midi": 35,
      "hit": false,
      "t": 78411.67016666765,
      "d": 179.55816666666942,
      "v": 106
    },
    {
      "midi": 54,
      "hit": false,
      "t": 78729.350000001,
      "d": 127.07193333333998,
      "v": 106
    },
    {
      "midi": 35,
      "hit": false,
      "t": 78729.350000001,
      "d": 168.50843333333614,
      "v": 112
    },
    {
      "midi": 51,
      "hit": false,
      "t": 78732.11243333433,
      "d": 146.40896666666958,
      "v": 99
    },
    {
      "midi": 59,
      "hit": false,
      "t": 78732.11243333433,
      "d": 146.40896666666958,
      "v": 110
    },
    {
      "midi": 54,
      "hit": false,
      "t": 79060.842000001,
      "d": 140.88410000001022,
      "v": 101
    },
    {
      "midi": 51,
      "hit": false,
      "t": 79063.60443333433,
      "d": 146.40896666666958,
      "v": 97
    },
    {
      "midi": 59,
      "hit": false,
      "t": 79074.65416666766,
      "d": 138.12166666667326,
      "v": 112
    },
    {
      "midi": 35,
      "hit": false,
      "t": 79074.65416666766,
      "d": 165.74600000001374,
      "v": 117
    },
    {
      "midi": 51,
      "hit": false,
      "t": 79395.09643333434,
      "d": 110.49733333334734,
      "v": 105
    },
    {
      "midi": 54,
      "hit": false,
      "t": 79406.14616666768,
      "d": 99.44760000001406,
      "v": 105
    },
    {
      "midi": 35,
      "hit": false,
      "t": 79408.90860000101,
      "d": 91.16030000000319,
      "v": 111
    },
    {
      "midi": 59,
      "hit": false,
      "t": 79408.90860000101,
      "d": 91.16030000000319,
      "v": 108
    },
    {
      "midi": 40,
      "hit": false,
      "t": 79599.51650000103,
      "d": 41.43649999999616,
      "v": 119
    },
    {
      "midi": 52,
      "hit": false,
      "t": 79599.51650000103,
      "d": 41.43649999999616,
      "v": 119
    },
    {
      "midi": 40,
      "hit": false,
      "t": 79740.40060000103,
      "d": 55.248666666666395,
      "v": 112
    },
    {
      "midi": 52,
      "hit": false,
      "t": 79740.40060000103,
      "d": 55.248666666666395,
      "v": 112
    },
    {
      "midi": 40,
      "hit": false,
      "t": 79906.14660000103,
      "d": 63.535966666662716,
      "v": 115
    },
    {
      "midi": 52,
      "hit": false,
      "t": 79906.14660000103,
      "d": 63.535966666662716,
      "v": 115
    },
    {
      "midi": 40,
      "hit": false,
      "t": 80096.75450000103,
      "d": 223.75710000000254,
      "v": 110
    },
    {
      "midi": 52,
      "hit": false,
      "t": 80096.75450000103,
      "d": 223.75710000000254,
      "v": 110
    },
    {
      "midi": 40,
      "hit": false,
      "t": 80431.00893333436,
      "d": 55.248666666666395,
      "v": 109
    },
    {
      "midi": 52,
      "hit": false,
      "t": 80431.00893333436,
      "d": 55.248666666666395,
      "v": 109
    },
    {
      "midi": 40,
      "hit": false,
      "t": 80596.75493333436,
      "d": 55.248666666666395,
      "v": 108
    },
    {
      "midi": 52,
      "hit": false,
      "t": 80607.8046666677,
      "d": 44.198933333333116,
      "v": 108
    },
    {
      "midi": 40,
      "hit": false,
      "t": 80759.73850000103,
      "d": 55.248666666666395,
      "v": 106
    },
    {
      "midi": 52,
      "hit": false,
      "t": 80759.73850000103,
      "d": 55.248666666666395,
      "v": 106
    },
    {
      "midi": 43,
      "hit": false,
      "t": 80928.24693333436,
      "d": 63.535966666662716,
      "v": 115
    },
    {
      "midi": 55,
      "hit": false,
      "t": 80928.24693333436,
      "d": 63.535966666662716,
      "v": 115
    },
    {
      "midi": 43,
      "hit": false,
      "t": 81091.23050000102,
      "d": 58.01110000000335,
      "v": 106
    },
    {
      "midi": 55,
      "hit": false,
      "t": 81091.23050000102,
      "d": 58.01110000000335,
      "v": 106
    },
    {
      "midi": 43,
      "hit": false,
      "t": 81243.16433333437,
      "d": 58.01110000000335,
      "v": 112
    },
    {
      "midi": 55,
      "hit": false,
      "t": 81243.16433333437,
      "d": 58.01110000000335,
      "v": 112
    },
    {
      "midi": 43,
      "hit": false,
      "t": 81408.91033333437,
      "d": 234.80683333333582,
      "v": 115
    },
    {
      "midi": 55,
      "hit": false,
      "t": 81408.91033333437,
      "d": 234.80683333333582,
      "v": 115
    },
    {
      "midi": 43,
      "hit": false,
      "t": 81743.1647666677,
      "d": 55.248666666666395,
      "v": 109
    },
    {
      "midi": 55,
      "hit": false,
      "t": 81743.1647666677,
      "d": 55.248666666666395,
      "v": 109
    },
    {
      "midi": 43,
      "hit": false,
      "t": 81906.14833333436,
      "d": 69.06083333333663,
      "v": 109
    },
    {
      "midi": 55,
      "hit": false,
      "t": 81906.14833333436,
      "d": 69.06083333333663,
      "v": 109
    },
    {
      "midi": 43,
      "hit": false,
      "t": 82060.84460000103,
      "d": 69.06083333333663,
      "v": 107
    },
    {
      "midi": 55,
      "hit": false,
      "t": 82060.84460000103,
      "d": 69.06083333333663,
      "v": 107
    },
    {
      "midi": 47,
      "hit": false,
      "t": 82240.4027666677,
      "d": 63.535966666662716,
      "v": 115
    },
    {
      "midi": 59,
      "hit": false,
      "t": 82240.4027666677,
      "d": 63.535966666662716,
      "v": 115
    },
    {
      "midi": 47,
      "hit": false,
      "t": 82392.33660000103,
      "d": 63.535966666662716,
      "v": 110
    },
    {
      "midi": 59,
      "hit": false,
      "t": 82392.33660000103,
      "d": 63.535966666662716,
      "v": 110
    },
    {
      "midi": 47,
      "hit": false,
      "t": 82558.08260000103,
      "d": 55.248666666666395,
      "v": 109
    },
    {
      "midi": 59,
      "hit": false,
      "t": 82558.08260000103,
      "d": 55.248666666666395,
      "v": 109
    },
    {
      "midi": 47,
      "hit": false,
      "t": 82721.06616666769,
      "d": 209.9449333333323,
      "v": 119
    },
    {
      "midi": 59,
      "hit": false,
      "t": 82721.06616666769,
      "d": 209.9449333333323,
      "v": 119
    },
    {
      "midi": 47,
      "hit": false,
      "t": 83038.74600000102,
      "d": 69.06083333333663,
      "v": 107
    },
    {
      "midi": 59,
      "hit": false,
      "t": 83038.74600000102,
      "d": 69.06083333333663,
      "v": 107
    },
    {
      "midi": 47,
      "hit": false,
      "t": 83207.25443333435,
      "d": 63.535966666662716,
      "v": 112
    },
    {
      "midi": 59,
      "hit": false,
      "t": 83207.25443333435,
      "d": 63.535966666662716,
      "v": 112
    },
    {
      "midi": 47,
      "hit": false,
      "t": 83359.18826666768,
      "d": 77.34813333333295,
      "v": 110
    },
    {
      "midi": 59,
      "hit": false,
      "t": 83370.23800000102,
      "d": 69.06083333333663,
      "v": 110
    },
    {
      "midi": 50,
      "hit": false,
      "t": 83549.79616666769,
      "d": 303.86766666667245,
      "v": 119
    },
    {
      "midi": 62,
      "hit": false,
      "t": 83549.79616666769,
      "d": 303.86766666667245,
      "v": 119
    },
    {
      "midi": 52,
      "hit": false,
      "t": 83867.47600000103,
      "d": 124.30950000000303,
      "v": 106
    },
    {
      "midi": 64,
      "hit": false,
      "t": 83867.47600000103,
      "d": 124.30950000000303,
      "v": 106
    },
    {
      "midi": 45,
      "hit": false,
      "t": 84060.84633333437,
      "d": 251.38143333332846,
      "v": 120
    },
    {
      "midi": 57,
      "hit": false,
      "t": 84060.84633333437,
      "d": 251.38143333332846,
      "v": 120
    },
    {
      "midi": 43,
      "hit": false,
      "t": 84353.66426666769,
      "d": 138.12166666667326,
      "v": 108
    },
    {
      "midi": 55,
      "hit": false,
      "t": 84353.66426666769,
      "d": 138.12166666667326,
      "v": 108
    },
    {
      "midi": 40,
      "hit": false,
      "t": 84547.03460000103,
      "d": 234.80683333333582,
      "v": 111
    },
    {
      "midi": 52,
      "hit": false,
      "t": 84547.03460000103,
      "d": 234.80683333333582,
      "v": 111
    },
    {
      "midi": 64,
      "hit": false,
      "t": 85193.44400000104,
      "d": 140.88410000001022,
      "v": 97
    },
    {
      "midi": 57,
      "hit": false,
      "t": 85193.44400000104,
      "d": 151.9338333333435,
      "v": 97
    },
    {
      "midi": 67,
      "hit": false,
      "t": 85196.20643333437,
      "d": 146.40896666666958,
      "v": 87
    },
    {
      "midi": 61,
      "hit": false,
      "t": 85207.2561666677,
      "d": 124.30950000000303,
      "v": 83
    },
    {
      "midi": 45,
      "hit": false,
      "t": 85373.00216666772,
      "d": 99.44759999999951,
      "v": 88
    },
    {
      "midi": 61,
      "hit": false,
      "t": 85513.88626666772,
      "d": 104.97246666665887,
      "v": 85
    },
    {
      "midi": 64,
      "hit": false,
      "t": 85513.88626666772,
      "d": 118.78463333332911,
      "v": 91
    },
    {
      "midi": 57,
      "hit": false,
      "t": 85524.93600000105,
      "d": 85.63543333332927,
      "v": 92
    },
    {
      "midi": 61,
      "hit": false,
      "t": 85679.63226666772,
      "d": 270.7184666666726,
      "v": 87
    },
    {
      "midi": 67,
      "hit": false,
      "t": 85679.63226666772,
      "d": 284.53063333334285,
      "v": 97
    },
    {
      "midi": 64,
      "hit": false,
      "t": 85690.68200000105,
      "d": 265.19360000001325,
      "v": 95
    },
    {
      "midi": 57,
      "hit": false,
      "t": 85693.44443333439,
      "d": 276.2433333333465,
      "v": 95
    },
    {
      "midi": 45,
      "hit": false,
      "t": 86011.12426666773,
      "d": 151.93383333332895,
      "v": 100
    },
    {
      "midi": 57,
      "hit": false,
      "t": 86176.87026666773,
      "d": 151.9338333333435,
      "v": 93
    },
    {
      "midi": 61,
      "hit": false,
      "t": 86190.6824333344,
      "d": 124.30950000000303,
      "v": 82
    },
    {
      "midi": 64,
      "hit": false,
      "t": 86190.6824333344,
      "d": 132.59679999999935,
      "v": 88
    },
    {
      "midi": 67,
      "hit": false,
      "t": 86190.6824333344,
      "d": 138.12166666667326,
      "v": 89
    },
    {
      "midi": 45,
      "hit": false,
      "t": 86367.47816666774,
      "d": 124.30950000000303,
      "v": 101
    },
    {
      "midi": 61,
      "hit": false,
      "t": 86522.17443333441,
      "d": 104.97246666667343,
      "v": 85
    },
    {
      "midi": 57,
      "hit": false,
      "t": 86522.17443333441,
      "d": 132.5968000000139,
      "v": 97
    },
    {
      "midi": 67,
      "hit": false,
      "t": 86522.17443333441,
      "d": 132.5968000000139,
      "v": 94
    },
    {
      "midi": 64,
      "hit": false,
      "t": 86533.22416666774,
      "d": 110.49733333334734,
      "v": 95
    },
    {
      "midi": 45,
      "hit": false,
      "t": 86685.15800000109,
      "d": 138.12166666667326,
      "v": 101
    },
    {
      "midi": 57,
      "hit": false,
      "t": 86853.66643333442,
      "d": 77.34813333333295,
      "v": 91
    },
    {
      "midi": 61,
      "hit": false,
      "t": 86853.66643333442,
      "d": 77.34813333333295,
      "v": 86
    },
    {
      "midi": 64,
      "hit": false,
      "t": 86853.66643333442,
      "d": 96.68516666666255,
      "v": 91
    },
    {
      "midi": 67,
      "hit": false,
      "t": 87005.60026666775,
      "d": 220.99466666666558,
      "v": 95
    },
    {
      "midi": 64,
      "hit": false,
      "t": 87005.60026666775,
      "d": 234.80683333333582,
      "v": 93
    },
    {
      "midi": 57,
      "hit": false,
      "t": 87016.65000000109,
      "d": 237.56926666667277,
      "v": 95
    },
    {
      "midi": 61,
      "hit": false,
      "t": 87019.41243333442,
      "d": 220.99466666666558,
      "v": 79
    },
    {
      "midi": 64,
      "hit": false,
      "t": 87348.1420000011,
      "d": 154.6962666666659,
      "v": 97
    },
    {
      "midi": 57,
      "hit": false,
      "t": 87350.90443333444,
      "d": 124.30950000000303,
      "v": 96
    },
    {
      "midi": 61,
      "hit": false,
      "t": 87350.90443333444,
      "d": 132.59679999999935,
      "v": 85
    },
    {
      "midi": 52,
      "hit": false,
      "t": 87516.65043333443,
      "d": 339.7792999999947,
      "v": 115
    },
    {
      "midi": 68,
      "hit": false,
      "t": 87848.14243333443,
      "d": 132.59679999999935,
      "v": 87
    },
    {
      "midi": 59,
      "hit": false,
      "t": 87848.14243333443,
      "d": 146.40896666666958,
      "v": 95
    },
    {
      "midi": 64,
      "hit": false,
      "t": 87848.14243333443,
      "d": 146.40896666666958,
      "v": 96
    },
    {
      "midi": 52,
      "hit": false,
      "t": 88011.12600000111,
      "d": 168.50843333333614,
      "v": 106
    },
    {
      "midi": 59,
      "hit": false,
      "t": 88179.63443333445,
      "d": 82.87300000000687,
      "v": 93
    },
    {
      "midi": 62,
      "hit": false,
      "t": 88179.63443333445,
      "d": 82.87300000000687,
      "v": 96
    },
    {
      "midi": 66,
      "hit": false,
      "t": 88179.63443333445,
      "d": 91.16030000000319,
      "v": 92
    },
    {
      "midi": 59,
      "hit": false,
      "t": 88342.61800000112,
      "d": 292.81793333333917,
      "v": 87
    },
    {
      "midi": 64,
      "hit": false,
      "t": 88345.38043333446,
      "d": 284.5306333333283,
      "v": 99
    },
    {
      "midi": 68,
      "hit": false,
      "t": 88356.4301666678,
      "d": 265.1935999999987,
      "v": 90
    },
    {
      "midi": 52,
      "hit": false,
      "t": 88663.0602666678,
      "d": 174.0332999999955,
      "v": 108
    },
    {
      "midi": 64,
      "hit": false,
      "t": 88839.85600000113,
      "d": 138.12166666667326,
      "v": 98
    },
    {
      "midi": 59,
      "hit": false,
      "t": 88842.61843333447,
      "d": 132.59679999999935,
      "v": 100
    },
    {
      "midi": 68,
      "hit": false,
      "t": 88853.6681666678,
      "d": 113.25976666666975,
      "v": 85
    },
    {
      "midi": 52,
      "hit": false,
      "t": 89005.60200000115,
      "d": 168.50843333333614,
      "v": 100
    },
    {
      "midi": 68,
      "hit": false,
      "t": 89185.16016666782,
      "d": 124.30950000000303,
      "v": 84
    },
    {
      "midi": 64,
      "hit": false,
      "t": 89185.16016666782,
      "d": 138.12166666667326,
      "v": 95
    },
    {
      "midi": 59,
      "hit": false,
      "t": 89187.92260000115,
      "d": 138.12166666667326,
      "v": 97
    },
    {
      "midi": 52,
      "hit": false,
      "t": 89350.90616666783,
      "d": 138.12166666667326,
      "v": 105
    },
    {
      "midi": 62,
      "hit": false,
      "t": 89505.60243333451,
      "d": 82.87300000000687,
      "v": 93
    },
    {
      "midi": 59,
      "hit": false,
      "t": 89505.60243333451,
      "d": 91.16030000000319,
      "v": 90
    },
    {
      "midi": 66,
      "hit": false,
      "t": 89516.65216666785,
      "d": 85.63543333334383,
      "v": 89
    },
    {
      "midi": 64,
      "hit": false,
      "t": 89671.34843333453,
      "d": 331.49199999999837,
      "v": 93
    },
    {
      "midi": 68,
      "hit": false,
      "t": 89682.39816666786,
      "d": 320.4422666666651,
      "v": 90
    },
    {
      "midi": 59,
      "hit": false,
      "t": 89682.39816666786,
      "d": 331.49199999999837,
      "v": 90
    },
    {
      "midi": 47,
      "hit": false,
      "t": 90013.89016666786,
      "d": 82.87300000000687,
      "v": 112
    },
    {
      "midi": 47,
      "hit": false,
      "t": 90154.77426666787,
      "d": 359.11633333333884,
      "v": 107
    },
    {
      "midi": 66,
      "hit": false,
      "t": 90500.07843333454,
      "d": 138.12166666667326,
      "v": 88
    },
    {
      "midi": 69,
      "hit": false,
      "t": 90500.07843333454,
      "d": 138.12166666667326,
      "v": 95
    },
    {
      "midi": 59,
      "hit": false,
      "t": 90500.07843333454,
      "d": 160.22113333333982,
      "v": 97
    },
    {
      "midi": 63,
      "hit": false,
      "t": 90511.12816666787,
      "d": 124.30950000000303,
      "v": 89
    },
    {
      "midi": 47,
      "hit": false,
      "t": 90676.87416666788,
      "d": 124.30950000000303,
      "v": 99
    },
    {
      "midi": 66,
      "hit": false,
      "t": 90831.57043333455,
      "d": 77.34813333333295,
      "v": 88
    },
    {
      "midi": 69,
      "hit": false,
      "t": 90831.57043333455,
      "d": 96.68516666666255,
      "v": 96
    },
    {
      "midi": 59,
      "hit": false,
      "t": 90842.62016666788,
      "d": 85.63543333332927,
      "v": 95
    },
    {
      "midi": 63,
      "hit": false,
      "t": 90842.62016666788,
      "d": 85.63543333332927,
      "v": 87
    },
    {
      "midi": 63,
      "hit": false,
      "t": 91008.36616666788,
      "d": 127.07193333333998,
      "v": 81
    },
    {
      "midi": 66,
      "hit": false,
      "t": 91008.36616666788,
      "d": 151.9338333333435,
      "v": 85
    },
    {
      "midi": 59,
      "hit": false,
      "t": 91011.12860000122,
      "d": 124.30950000000303,
      "v": 87
    },
    {
      "midi": 69,
      "hit": false,
      "t": 91011.12860000122,
      "d": 160.22113333333982,
      "v": 93
    },
    {
      "midi": 69,
      "hit": false,
      "t": 91314.99626666789,
      "d": 69.06083333333663,
      "v": 103
    },
    {
      "midi": 70,
      "hit": false,
      "t": 91370.24493333456,
      "d": 91.16030000000319,
      "v": 83
    },
    {
      "midi": 71,
      "hit": false,
      "t": 91464.1676666679,
      "d": 151.93383333332895,
      "v": 103
    },
    {
      "midi": 74,
      "hit": false,
      "t": 91632.67610000123,
      "d": 160.22113333333982,
      "v": 105
    },
    {
      "midi": 76,
      "hit": false,
      "t": 91812.2342666679,
      "d": 110.49733333333279,
      "v": 97
    },
    {
      "midi": 70,
      "hit": false,
      "t": 92002.8421666679,
      "d": 55.248666666666395,
      "v": 96
    },
    {
      "midi": 69,
      "hit": false,
      "t": 92060.85326666791,
      "d": 96.68516666666255,
      "v": 101
    },
    {
      "midi": 67,
      "hit": false,
      "t": 92157.53843333457,
      "d": 146.40896666666958,
      "v": 111
    },
    {
      "midi": 64,
      "hit": false,
      "t": 92320.52200000125,
      "d": 168.50843333333614,
      "v": 98
    },
    {
      "midi": 62,
      "hit": false,
      "t": 92489.03043333458,
      "d": 146.40896666666958,
      "v": 101
    },
    {
      "midi": 64,
      "hit": false,
      "t": 92652.01400000126,
      "d": 168.50843333333614,
      "v": 101
    },
    {
      "midi": 40,
      "hit": false,
      "t": 92820.5224333346,
      "d": 298.34279999999853,
      "v": 104
    },
    {
      "midi": 58,
      "hit": false,
      "t": 93135.4398333346,
      "d": 44.19893333334767,
      "v": 94
    },
    {
      "midi": 52,
      "hit": false,
      "t": 93135.4398333346,
      "d": 248.6190000000206,
      "v": 88
    },
    {
      "midi": 38,
      "hit": false,
      "t": 93138.20226666794,
      "d": 284.5306333333574,
      "v": 97
    },
    {
      "midi": 59,
      "hit": false,
      "t": 93152.01443333461,
      "d": 174.03330000001006,
      "v": 97
    },
    {
      "midi": 62,
      "hit": false,
      "t": 93152.01443333461,
      "d": 174.03330000001006,
      "v": 88
    },
    {
      "midi": 61,
      "hit": false,
      "t": 93483.50643333464,
      "d": 215.46980000000622,
      "v": 95
    },
    {
      "midi": 57,
      "hit": false,
      "t": 93483.50643333464,
      "d": 220.99466666668013,
      "v": 98
    },
    {
      "midi": 52,
      "hit": false,
      "t": 93483.50643333464,
      "d": 243.0941333333467,
      "v": 93
    },
    {
      "midi": 37,
      "hit": false,
      "t": 93494.55616666797,
      "d": 248.6190000000206,
      "v": 101
    },
    {
      "midi": 36,
      "hit": false,
      "t": 93814.99843333467,
      "d": 201.65763333335053,
      "v": 111
    },
    {
      "midi": 52,
      "hit": false,
      "t": 93814.99843333467,
      "d": 386.7406666666793,
      "v": 98
    },
    {
      "midi": 55,
      "hit": false,
      "t": 93826.048166668,
      "d": 113.25976666666975,
      "v": 109
    },
    {
      "midi": 59,
      "hit": false,
      "t": 93826.048166668,
      "d": 441.98933333336026,
      "v": 106
    },
    {
      "midi": 56,
      "hit": false,
      "t": 93966.93226666801,
      "d": 201.65763333333598,
      "v": 90
    },
    {
      "midi": 54,
      "hit": false,
      "t": 94146.49043333468,
      "d": 104.97246666667343,
      "v": 98
    },
    {
      "midi": 59,
      "hit": false,
      "t": 94309.47400000136,
      "d": 140.88410000001022,
      "v": 101
    },
    {
      "midi": 54,
      "hit": false,
      "t": 94312.23643333469,
      "d": 132.59679999999935,
      "v": 105
    },
    {
      "midi": 51,
      "hit": false,
      "t": 94323.28616666803,
      "d": 127.07193333333998,
      "v": 104
    },
    {
      "midi": 35,
      "hit": false,
      "t": 94323.28616666803,
      "d": 179.55816666666942,
      "v": 106
    },
    {
      "midi": 54,
      "hit": false,
      "t": 94640.96600000137,
      "d": 138.12166666667326,
      "v": 106
    },
    {
      "midi": 35,
      "hit": false,
      "t": 94640.96600000137,
      "d": 168.50843333333614,
      "v": 112
    },
    {
      "midi": 51,
      "hit": false,
      "t": 94643.7284333347,
      "d": 138.12166666667326,
      "v": 99
    },
    {
      "midi": 59,
      "hit": false,
      "t": 94643.7284333347,
      "d": 146.40896666666958,
      "v": 110
    },
    {
      "midi": 54,
      "hit": false,
      "t": 94972.45800000137,
      "d": 140.88410000001022,
      "v": 101
    },
    {
      "midi": 51,
      "hit": false,
      "t": 94975.2204333347,
      "d": 146.40896666666958,
      "v": 97
    },
    {
      "midi": 59,
      "hit": false,
      "t": 94986.27016666804,
      "d": 138.12166666667326,
      "v": 112
    },
    {
      "midi": 35,
      "hit": false,
      "t": 94986.27016666804,
      "d": 165.74600000001374,
      "v": 117
    },
    {
      "midi": 51,
      "hit": false,
      "t": 95306.71243333472,
      "d": 104.97246666667343,
      "v": 105
    },
    {
      "midi": 54,
      "hit": false,
      "t": 95317.76216666805,
      "d": 96.6851666666771,
      "v": 105
    },
    {
      "midi": 35,
      "hit": false,
      "t": 95320.52460000139,
      "d": 91.16030000000319,
      "v": 111
    },
    {
      "midi": 59,
      "hit": false,
      "t": 95320.52460000139,
      "d": 91.16030000000319,
      "v": 108
    },
    {
      "midi": 64,
      "hit": false,
      "t": 95469.6960000014,
      "d": 262.4311666666763,
      "v": 99
    },
    {
      "midi": 59,
      "hit": false,
      "t": 95469.6960000014,
      "d": 265.19360000001325,
      "v": 93
    },
    {
      "midi": 52,
      "hit": false,
      "t": 95483.50816666806,
      "d": 248.61900000000605,
      "v": 98
    },
    {
      "midi": 68,
      "hit": false,
      "t": 95483.50816666806,
      "d": 262.4311666666763,
      "v": 91
    },
    {
      "midi": 59,
      "hit": false,
      "t": 97652.01833333474,
      "d": 262.4311666666763,
      "v": 93
    },
    {
      "midi": 47,
      "hit": false,
      "t": 97654.78076666807,
      "d": 174.0332999999955,
      "v": 95
    },
    {
      "midi": 62,
      "hit": false,
      "t": 97817.76433333474,
      "d": 196.13276666667662,
      "v": 95
    },
    {
      "midi": 50,
      "hit": false,
      "t": 97831.5765000014,
      "d": 207.1825000000099,
      "v": 101
    },
    {
      "midi": 52,
      "hit": false,
      "t": 98135.44416666808,
      "d": 279.00576666666893,
      "v": 93
    },
    {
      "midi": 64,
      "hit": false,
      "t": 98135.44416666808,
      "d": 303.86766666667245,
      "v": 103
    },
    {
      "midi": 68,
      "hit": false,
      "t": 98149.25633333475,
      "d": 262.43116666666174,
      "v": 96
    },
    {
      "midi": 59,
      "hit": false,
      "t": 98149.25633333475,
      "d": 279.00576666666893,
      "v": 99
    },
    {
      "midi": 52,
      "hit": false,
      "t": 100444.83843333475,
      "d": 270.7184666666726,
      "v": 102
    },
    {
      "midi": 62,
      "hit": false,
      "t": 100455.88816666808,
      "d": 237.56926666667277,
      "v": 104
    },
    {
      "midi": 68,
      "hit": false,
      "t": 100455.88816666808,
      "d": 262.4311666666763,
      "v": 96
    },
    {
      "midi": 59,
      "hit": false,
      "t": 100469.70033333475,
      "d": 248.61900000000605,
      "v": 101
    },
    {
      "midi": 64,
      "hit": false,
      "t": 101105.06000000142,
      "d": 140.88410000001022,
      "v": 97
    },
    {
      "midi": 57,
      "hit": false,
      "t": 101105.06000000142,
      "d": 151.9338333333435,
      "v": 97
    },
    {
      "midi": 67,
      "hit": false,
      "t": 101107.82243333476,
      "d": 146.40896666666958,
      "v": 87
    },
    {
      "midi": 61,
      "hit": false,
      "t": 101118.8721666681,
      "d": 124.30950000000303,
      "v": 83
    },
    {
      "midi": 45,
      "hit": false,
      "t": 101284.61816666811,
      "d": 99.44759999999951,
      "v": 88
    },
    {
      "midi": 61,
      "hit": false,
      "t": 101425.5022666681,
      "d": 104.97246666665887,
      "v": 85
    },
    {
      "midi": 57,
      "hit": false,
      "t": 101436.55200000144,
      "d": 85.63543333332927,
      "v": 92
    },
    {
      "midi": 64,
      "hit": false,
      "t": 101436.55200000144,
      "d": 110.49733333333279,
      "v": 91
    },
    {
      "midi": 61,
      "hit": false,
      "t": 101591.2482666681,
      "d": 270.7184666666726,
      "v": 87
    },
    {
      "midi": 67,
      "hit": false,
      "t": 101591.2482666681,
      "d": 284.53063333334285,
      "v": 97
    },
    {
      "midi": 64,
      "hit": false,
      "t": 101602.29800000144,
      "d": 265.19360000001325,
      "v": 95
    },
    {
      "midi": 57,
      "hit": false,
      "t": 101605.06043333477,
      "d": 276.2433333333465,
      "v": 95
    },
    {
      "midi": 45,
      "hit": false,
      "t": 101922.74026666812,
      "d": 151.93383333332895,
      "v": 100
    },
    {
      "midi": 57,
      "hit": false,
      "t": 102088.48626666811,
      "d": 151.9338333333435,
      "v": 93
    },
    {
      "midi": 61,
      "hit": false,
      "t": 102102.29843333478,
      "d": 124.30950000000303,
      "v": 82
    },
    {
      "midi": 64,
      "hit": false,
      "t": 102102.29843333478,
      "d": 132.59679999999935,
      "v": 88
    },
    {
      "midi": 67,
      "hit": false,
      "t": 102102.29843333478,
      "d": 138.12166666667326,
      "v": 89
    },
    {
      "midi": 45,
      "hit": false,
      "t": 102279.09416666813,
      "d": 124.30950000000303,
      "v": 101
    },
    {
      "midi": 57,
      "hit": false,
      "t": 102433.7904333348,
      "d": 132.59679999999935,
      "v": 97
    },
    {
      "midi": 67,
      "hit": false,
      "t": 102433.7904333348,
      "d": 132.59679999999935,
      "v": 94
    },
    {
      "midi": 61,
      "hit": false,
      "t": 102444.84016666813,
      "d": 96.68516666666255,
      "v": 85
    },
    {
      "midi": 64,
      "hit": false,
      "t": 102444.84016666813,
      "d": 110.49733333333279,
      "v": 95
    },
    {
      "midi": 45,
      "hit": false,
      "t": 102596.77400000146,
      "d": 138.12166666667326,
      "v": 101
    },
    {
      "midi": 57,
      "hit": false,
      "t": 102765.2824333348,
      "d": 77.34813333333295,
      "v": 91
    },
    {
      "midi": 61,
      "hit": false,
      "t": 102765.2824333348,
      "d": 77.34813333333295,
      "v": 86
    },
    {
      "midi": 64,
      "hit": false,
      "t": 102765.2824333348,
      "d": 96.68516666666255,
      "v": 91
    },
    {
      "midi": 67,
      "hit": false,
      "t": 102917.21626666813,
      "d": 229.28196666667645,
      "v": 95
    },
    {
      "midi": 64,
      "hit": false,
      "t": 102917.21626666813,
      "d": 234.80683333335037,
      "v": 93
    },
    {
      "midi": 57,
      "hit": false,
      "t": 102928.26600000146,
      "d": 234.80683333335037,
      "v": 95
    },
    {
      "midi": 61,
      "hit": false,
      "t": 102931.0284333348,
      "d": 220.99466666668013,
      "v": 79
    },
    {
      "midi": 64,
      "hit": false,
      "t": 103259.75800000147,
      "d": 154.6962666666659,
      "v": 97
    },
    {
      "midi": 57,
      "hit": false,
      "t": 103262.52043333481,
      "d": 124.30950000000303,
      "v": 96
    },
    {
      "midi": 61,
      "hit": false,
      "t": 103262.52043333481,
      "d": 132.59679999999935,
      "v": 85
    },
    {
      "midi": 52,
      "hit": false,
      "t": 103428.26643333481,
      "d": 339.7792999999947,
      "v": 115
    },
    {
      "midi": 68,
      "hit": false,
      "t": 103759.7584333348,
      "d": 132.59679999999935,
      "v": 87
    },
    {
      "midi": 59,
      "hit": false,
      "t": 103759.7584333348,
      "d": 146.40896666666958,
      "v": 95
    },
    {
      "midi": 64,
      "hit": false,
      "t": 103759.7584333348,
      "d": 146.40896666666958,
      "v": 96
    },
    {
      "midi": 52,
      "hit": false,
      "t": 103922.74200000148,
      "d": 168.50843333333614,
      "v": 106
    },
    {
      "midi": 59,
      "hit": false,
      "t": 104091.25043333482,
      "d": 82.87300000000687,
      "v": 93
    },
    {
      "midi": 62,
      "hit": false,
      "t": 104091.25043333482,
      "d": 82.87300000000687,
      "v": 96
    },
    {
      "midi": 66,
      "hit": false,
      "t": 104091.25043333482,
      "d": 91.16030000000319,
      "v": 92
    },
    {
      "midi": 59,
      "hit": false,
      "t": 104254.2340000015,
      "d": 292.81793333333917,
      "v": 87
    },
    {
      "midi": 64,
      "hit": false,
      "t": 104256.99643333483,
      "d": 290.0555000000022,
      "v": 99
    },
    {
      "midi": 68,
      "hit": false,
      "t": 104268.04616666817,
      "d": 265.1935999999987,
      "v": 90
    },
    {
      "midi": 52,
      "hit": false,
      "t": 104574.67626666818,
      "d": 174.0332999999955,
      "v": 108
    },
    {
      "midi": 64,
      "hit": false,
      "t": 104751.47200000151,
      "d": 138.12166666667326,
      "v": 98
    },
    {
      "midi": 59,
      "hit": false,
      "t": 104754.23443333484,
      "d": 132.59679999999935,
      "v": 100
    },
    {
      "midi": 68,
      "hit": false,
      "t": 104765.28416666818,
      "d": 113.25976666666975,
      "v": 85
    },
    {
      "midi": 52,
      "hit": false,
      "t": 104917.21800000152,
      "d": 168.50843333333614,
      "v": 100
    },
    {
      "midi": 68,
      "hit": false,
      "t": 105096.77616666819,
      "d": 124.30950000000303,
      "v": 84
    },
    {
      "midi": 64,
      "hit": false,
      "t": 105096.77616666819,
      "d": 138.12166666667326,
      "v": 95
    },
    {
      "midi": 59,
      "hit": false,
      "t": 105096.77616666819,
      "d": 140.88410000001022,
      "v": 97
    },
    {
      "midi": 52,
      "hit": false,
      "t": 105262.5221666682,
      "d": 138.12166666667326,
      "v": 105
    },
    {
      "midi": 62,
      "hit": false,
      "t": 105417.21843333489,
      "d": 82.87300000000687,
      "v": 93
    },
    {
      "midi": 59,
      "hit": false,
      "t": 105417.21843333489,
      "d": 91.16030000000319,
      "v": 90
    },
    {
      "midi": 66,
      "hit": false,
      "t": 105428.26816666822,
      "d": 85.63543333334383,
      "v": 89
    },
    {
      "midi": 64,
      "hit": false,
      "t": 105582.9644333349,
      "d": 331.49199999999837,
      "v": 93
    },
    {
      "midi": 68,
      "hit": false,
      "t": 105594.01416666823,
      "d": 320.4422666666651,
      "v": 90
    },
    {
      "midi": 59,
      "hit": false,
      "t": 105594.01416666823,
      "d": 331.49199999999837,
      "v": 90
    },
    {
      "midi": 47,
      "hit": false,
      "t": 105925.50616666823,
      "d": 82.87300000000687,
      "v": 112
    },
    {
      "midi": 47,
      "hit": false,
      "t": 106066.39026666824,
      "d": 359.11633333333884,
      "v": 107
    },
    {
      "midi": 66,
      "hit": false,
      "t": 106411.69443333491,
      "d": 138.12166666667326,
      "v": 88
    },
    {
      "midi": 69,
      "hit": false,
      "t": 106411.69443333491,
      "d": 138.12166666667326,
      "v": 95
    },
    {
      "midi": 59,
      "hit": false,
      "t": 106411.69443333491,
      "d": 160.22113333333982,
      "v": 97
    },
    {
      "midi": 63,
      "hit": false,
      "t": 106422.74416666824,
      "d": 124.30950000000303,
      "v": 89
    },
    {
      "midi": 47,
      "hit": false,
      "t": 106588.49016666826,
      "d": 124.30950000000303,
      "v": 99
    },
    {
      "midi": 66,
      "hit": false,
      "t": 106743.18643333492,
      "d": 77.34813333333295,
      "v": 88
    },
    {
      "midi": 69,
      "hit": false,
      "t": 106743.18643333492,
      "d": 96.68516666666255,
      "v": 96
    },
    {
      "midi": 59,
      "hit": false,
      "t": 106754.23616666826,
      "d": 85.63543333332927,
      "v": 95
    },
    {
      "midi": 63,
      "hit": false,
      "t": 106754.23616666826,
      "d": 85.63543333332927,
      "v": 87
    },
    {
      "midi": 63,
      "hit": false,
      "t": 106919.98216666825,
      "d": 127.07193333333998,
      "v": 81
    },
    {
      "midi": 66,
      "hit": false,
      "t": 106919.98216666825,
      "d": 140.88410000001022,
      "v": 85
    },
    {
      "midi": 69,
      "hit": false,
      "t": 106922.74460000159,
      "d": 160.22113333333982,
      "v": 93
    },
    {
      "midi": 59,
      "hit": false,
      "t": 106933.79433333492,
      "d": 113.25976666666975,
      "v": 87
    },
    {
      "midi": 69,
      "hit": false,
      "t": 107237.6620000016,
      "d": 58.01110000000335,
      "v": 103
    },
    {
      "midi": 70,
      "hit": false,
      "t": 107292.91066666826,
      "d": 82.87300000000687,
      "v": 83
    },
    {
      "midi": 71,
      "hit": false,
      "t": 107375.78366666827,
      "d": 151.93383333332895,
      "v": 103
    },
    {
      "midi": 74,
      "hit": false,
      "t": 107555.34183333494,
      "d": 151.93383333332895,
      "v": 105
    },
    {
      "midi": 76,
      "hit": false,
      "t": 107723.85026666828,
      "d": 110.49733333333279,
      "v": 97
    },
    {
      "midi": 70,
      "hit": false,
      "t": 107914.45816666828,
      "d": 55.248666666666395,
      "v": 96
    },
    {
      "midi": 69,
      "hit": false,
      "t": 107972.46926666828,
      "d": 96.68516666666255,
      "v": 101
    },
    {
      "midi": 67,
      "hit": false,
      "t": 108069.15443333494,
      "d": 146.40896666666958,
      "v": 111
    },
    {
      "midi": 64,
      "hit": false,
      "t": 108232.13800000162,
      "d": 168.50843333333614,
      "v": 98
    },
    {
      "midi": 62,
      "hit": false,
      "t": 108400.64643333496,
      "d": 146.40896666666958,
      "v": 101
    },
    {
      "midi": 64,
      "hit": false,
      "t": 108563.63000000163,
      "d": 168.50843333333614,
      "v": 101
    },
    {
      "midi": 40,
      "hit": false,
      "t": 108732.13843333497,
      "d": 298.34279999999853,
      "v": 104
    },
    {
      "midi": 58,
      "hit": false,
      "t": 109047.05583333498,
      "d": 44.198933333333116,
      "v": 94
    },
    {
      "midi": 52,
      "hit": false,
      "t": 109047.05583333498,
      "d": 248.61900000000605,
      "v": 88
    },
    {
      "midi": 59,
      "hit": false,
      "t": 109060.86800000165,
      "d": 179.55816666666942,
      "v": 97
    },
    {
      "midi": 62,
      "hit": false,
      "t": 109060.86800000165,
      "d": 179.55816666666942,
      "v": 88
    },
    {
      "midi": 38,
      "hit": false,
      "t": 109060.86800000165,
      "d": 276.243333333332,
      "v": 97
    },
    {
      "midi": 61,
      "hit": false,
      "t": 109395.12243333498,
      "d": 215.46980000000622,
      "v": 95
    },
    {
      "midi": 57,
      "hit": false,
      "t": 109395.12243333498,
      "d": 220.99466666668013,
      "v": 98
    },
    {
      "midi": 52,
      "hit": false,
      "t": 109395.12243333498,
      "d": 243.0941333333467,
      "v": 93
    },
    {
      "midi": 37,
      "hit": false,
      "t": 109406.17216666832,
      "d": 248.6190000000206,
      "v": 101
    },
    {
      "midi": 36,
      "hit": false,
      "t": 109726.61443333501,
      "d": 179.55816666668397,
      "v": 111
    },
    {
      "midi": 52,
      "hit": false,
      "t": 109726.61443333501,
      "d": 381.21580000001995,
      "v": 98
    },
    {
      "midi": 55,
      "hit": false,
      "t": 109737.66416666834,
      "d": 124.30950000000303,
      "v": 109
    },
    {
      "midi": 59,
      "hit": false,
      "t": 109737.66416666834,
      "d": 441.98933333336026,
      "v": 106
    },
    {
      "midi": 56,
      "hit": false,
      "t": 109878.54826666835,
      "d": 201.65763333333598,
      "v": 90
    },
    {
      "midi": 54,
      "hit": false,
      "t": 110058.10643333502,
      "d": 104.97246666667343,
      "v": 98
    },
    {
      "midi": 59,
      "hit": false,
      "t": 110221.0900000017,
      "d": 140.88410000001022,
      "v": 101
    },
    {
      "midi": 54,
      "hit": false,
      "t": 110223.85243333504,
      "d": 132.59679999999935,
      "v": 105
    },
    {
      "midi": 51,
      "hit": false,
      "t": 110234.90216666837,
      "d": 127.07193333333998,
      "v": 104
    },
    {
      "midi": 35,
      "hit": false,
      "t": 110234.90216666837,
      "d": 179.55816666666942,
      "v": 106
    },
    {
      "midi": 54,
      "hit": false,
      "t": 110552.58200000171,
      "d": 127.07193333333998,
      "v": 106
    },
    {
      "midi": 35,
      "hit": false,
      "t": 110552.58200000171,
      "d": 168.50843333333614,
      "v": 112
    },
    {
      "midi": 51,
      "hit": false,
      "t": 110555.34443333505,
      "d": 138.12166666667326,
      "v": 99
    },
    {
      "midi": 59,
      "hit": false,
      "t": 110555.34443333505,
      "d": 146.40896666666958,
      "v": 110
    },
    {
      "midi": 54,
      "hit": false,
      "t": 110884.07400000171,
      "d": 140.88410000001022,
      "v": 101
    },
    {
      "midi": 51,
      "hit": false,
      "t": 110886.83643333505,
      "d": 146.40896666666958,
      "v": 97
    },
    {
      "midi": 59,
      "hit": false,
      "t": 110897.88616666838,
      "d": 138.12166666667326,
      "v": 112
    },
    {
      "midi": 35,
      "hit": false,
      "t": 110897.88616666838,
      "d": 165.74600000001374,
      "v": 117
    },
    {
      "midi": 51,
      "hit": false,
      "t": 111218.32843333506,
      "d": 104.97246666667343,
      "v": 105
    },
    {
      "midi": 54,
      "hit": false,
      "t": 111229.3781666684,
      "d": 96.6851666666771,
      "v": 105
    },
    {
      "midi": 35,
      "hit": false,
      "t": 111232.14060000173,
      "d": 91.16030000000319,
      "v": 111
    },
    {
      "midi": 59,
      "hit": false,
      "t": 111232.14060000173,
      "d": 91.16030000000319,
      "v": 108
    },
    {
      "midi": 59,
      "hit": false,
      "t": 111726.6161666684,
      "d": 154.6962666666659,
      "v": 91
    },
    {
      "midi": 64,
      "hit": false,
      "t": 111729.37860000174,
      "d": 151.93383333332895,
      "v": 101
    },
    {
      "midi": 68,
      "hit": false,
      "t": 111740.42833333508,
      "d": 140.88409999999567,
      "v": 93
    },
    {
      "midi": 59,
      "hit": false,
      "t": 112060.87060000174,
      "d": 91.16030000000319,
      "v": 96
    },
    {
      "midi": 64,
      "hit": false,
      "t": 112071.92033333507,
      "d": 82.87300000000687,
      "v": 101
    },
    {
      "midi": 68,
      "hit": false,
      "t": 112074.68276666841,
      "d": 77.34813333333295,
      "v": 89
    },
    {
      "midi": 59,
      "hit": false,
      "t": 112240.42876666841,
      "d": 124.30950000000303,
      "v": 91
    },
    {
      "midi": 64,
      "hit": false,
      "t": 112251.47850000174,
      "d": 124.30950000000303,
      "v": 98
    },
    {
      "midi": 68,
      "hit": false,
      "t": 112251.47850000174,
      "d": 124.30950000000303,
      "v": 91
    },
    {
      "midi": 59,
      "hit": false,
      "t": 112721.09216666842,
      "d": 414.36500000000524,
      "v": 96
    },
    {
      "midi": 68,
      "hit": false,
      "t": 112723.85460000175,
      "d": 408.8401333333313,
      "v": 89
    },
    {
      "midi": 64,
      "hit": false,
      "t": 112734.90433333509,
      "d": 417.1274333333422,
      "v": 101
    },
    {
      "midi": 64,
      "hit": false,
      "t": 113245.95450000177,
      "d": 734.8072666666703,
      "v": 99
    },
    {
      "midi": 59,
      "hit": false,
      "t": 113259.76666666844,
      "d": 718.2326666666631,
      "v": 97
    },
    {
      "midi": 68,
      "hit": false,
      "t": 113259.76666666844,
      "d": 732.0448333333334,
      "v": 88
    },
    {
      "midi": 59,
      "hit": false,
      "t": 114367.5024333351,
      "d": 146.40896666666958,
      "v": 93
    },
    {
      "midi": 64,
      "hit": false,
      "t": 114378.55216666844,
      "d": 138.12166666667326,
      "v": 95
    },
    {
      "midi": 68,
      "hit": false,
      "t": 114392.3643333351,
      "d": 138.12166666667326,
      "v": 89
    },
    {
      "midi": 64,
      "hit": false,
      "t": 114712.80660000179,
      "d": 91.16030000000319,
      "v": 97
    },
    {
      "midi": 59,
      "hit": false,
      "t": 114726.61876666846,
      "d": 69.06083333333663,
      "v": 90
    },
    {
      "midi": 68,
      "hit": false,
      "t": 114737.66850000179,
      "d": 58.01110000000335,
      "v": 83
    },
    {
      "midi": 59,
      "hit": false,
      "t": 114889.60233333512,
      "d": 151.9338333333435,
      "v": 91
    },
    {
      "midi": 68,
      "hit": false,
      "t": 114889.60233333512,
      "d": 154.69626666668046,
      "v": 93
    },
    {
      "midi": 64,
      "hit": false,
      "t": 114892.36476666846,
      "d": 138.12166666667326,
      "v": 95
    },
    {
      "midi": 68,
      "hit": false,
      "t": 115375.7906000018,
      "d": 276.243333333332,
      "v": 90
    },
    {
      "midi": 59,
      "hit": false,
      "t": 115386.84033333513,
      "d": 317.6798333333427,
      "v": 95
    },
    {
      "midi": 64,
      "hit": false,
      "t": 115389.60276666847,
      "d": 290.0555000000022,
      "v": 97
    },
    {
      "midi": 68,
      "hit": false,
      "t": 115886.84076666848,
      "d": 712.7078000000038,
      "v": 87
    },
    {
      "midi": 59,
      "hit": false,
      "t": 115897.89050000181,
      "d": 734.8072666666703,
      "v": 97
    },
    {
      "midi": 64,
      "hit": false,
      "t": 115900.65293333515,
      "d": 718.2326666666631,
      "v": 99
    },
    {
      "midi": 64,
      "hit": false,
      "t": 117019.43843333515,
      "d": 160.22113333333982,
      "v": 95
    },
    {
      "midi": 61,
      "hit": false,
      "t": 117030.48816666848,
      "d": 127.07193333333998,
      "v": 80
    },
    {
      "midi": 67,
      "hit": false,
      "t": 117030.48816666848,
      "d": 127.07193333333998,
      "v": 90
    },
    {
      "midi": 61,
      "hit": false,
      "t": 117364.74260000182,
      "d": 77.34813333333295,
      "v": 82
    },
    {
      "midi": 67,
      "hit": false,
      "t": 117364.74260000182,
      "d": 82.87300000000687,
      "v": 91
    },
    {
      "midi": 64,
      "hit": false,
      "t": 117375.79233333515,
      "d": 71.82326666667359,
      "v": 88
    },
    {
      "midi": 67,
      "hit": false,
      "t": 117530.48860000183,
      "d": 160.22113333333982,
      "v": 95
    },
    {
      "midi": 61,
      "hit": false,
      "t": 117541.53833333516,
      "d": 138.12166666667326,
      "v": 84
    },
    {
      "midi": 64,
      "hit": false,
      "t": 117544.3007666685,
      "d": 132.59679999999935,
      "v": 97
    },
    {
      "midi": 64,
      "hit": false,
      "t": 118024.9641666685,
      "d": 417.12743333335675,
      "v": 95
    },
    {
      "midi": 67,
      "hit": false,
      "t": 118038.77633333518,
      "d": 359.11633333333884,
      "v": 95
    },
    {
      "midi": 61,
      "hit": false,
      "t": 118041.53876666851,
      "d": 395.02796666667564,
      "v": 83
    },
    {
      "midi": 67,
      "hit": false,
      "t": 118538.77676666852,
      "d": 759.6691666666738,
      "v": 92
    },
    {
      "midi": 64,
      "hit": false,
      "t": 118538.77676666852,
      "d": 767.9564666666702,
      "v": 91
    },
    {
      "midi": 61,
      "hit": false,
      "t": 118549.82650000186,
      "d": 773.4813333333441,
      "v": 80
    },
    {
      "midi": 68,
      "hit": false,
      "t": 119657.56226666854,
      "d": 193.37033333333966,
      "v": 93
    },
    {
      "midi": 59,
      "hit": false,
      "t": 119668.61200000187,
      "d": 168.50843333333614,
      "v": 95
    },
    {
      "midi": 64,
      "hit": false,
      "t": 119671.37443333521,
      "d": 187.84546666666574,
      "v": 99
    },
    {
      "midi": 59,
      "hit": false,
      "t": 120002.8664333352,
      "d": 91.16030000000319,
      "v": 92
    },
    {
      "midi": 64,
      "hit": false,
      "t": 120013.91616666854,
      "d": 99.44760000001406,
      "v": 93
    },
    {
      "midi": 68,
      "hit": false,
      "t": 120016.67860000188,
      "d": 82.87300000000687,
      "v": 88
    },
    {
      "midi": 59,
      "hit": false,
      "t": 120182.42460000189,
      "d": 118.78463333334366,
      "v": 93
    },
    {
      "midi": 64,
      "hit": false,
      "t": 120193.47433333522,
      "d": 151.9338333333435,
      "v": 94
    },
    {
      "midi": 68,
      "hit": false,
      "t": 120196.23676666856,
      "d": 138.12166666667326,
      "v": 91
    },
    {
      "midi": 59,
      "hit": false,
      "t": 120665.85043333523,
      "d": 331.4920000000129,
      "v": 97
    },
    {
      "midi": 64,
      "hit": false,
      "t": 120676.90016666857,
      "d": 306.6301000000094,
      "v": 101
    },
    {
      "midi": 68,
      "hit": false,
      "t": 120690.71233333524,
      "d": 276.243333333332,
      "v": 92
    },
    {
      "midi": 68,
      "hit": false,
      "t": 121187.95033333525,
      "d": 707.1829333333444,
      "v": 92
    },
    {
      "midi": 64,
      "hit": false,
      "t": 121190.71276666858,
      "d": 671.2713000000076,
      "v": 106
    },
    {
      "midi": 59,
      "hit": false,
      "t": 121201.76250000192,
      "d": 635.3596666666708,
      "v": 103
    },
    {
      "midi": 63,
      "hit": false,
      "t": 122334.36016666859,
      "d": 165.74599999999919,
      "v": 85
    },
    {
      "midi": 71,
      "hit": false,
      "t": 122334.36016666859,
      "d": 179.55816666666942,
      "v": 95
    },
    {
      "midi": 66,
      "hit": false,
      "t": 122337.12260000192,
      "d": 174.0332999999955,
      "v": 85
    },
    {
      "midi": 63,
      "hit": false,
      "t": 122654.80243333525,
      "d": 104.97246666665887,
      "v": 82
    },
    {
      "midi": 66,
      "hit": false,
      "t": 122665.85216666858,
      "d": 85.63543333332927,
      "v": 81
    },
    {
      "midi": 71,
      "hit": false,
      "t": 122665.85216666858,
      "d": 85.63543333332927,
      "v": 95
    },
    {
      "midi": 71,
      "hit": false,
      "t": 122845.41033333524,
      "d": 140.88410000001022,
      "v": 95
    },
    {
      "midi": 63,
      "hit": false,
      "t": 122848.17276666858,
      "d": 160.22113333333982,
      "v": 87
    },
    {
      "midi": 66,
      "hit": false,
      "t": 122848.17276666858,
      "d": 160.22113333333982,
      "v": 87
    },
    {
      "midi": 69,
      "hit": false,
      "t": 123328.83616666858,
      "d": 389.5031000000017,
      "v": 97
    },
    {
      "midi": 64,
      "hit": false,
      "t": 123331.59860000192,
      "d": 436.4644666666718,
      "v": 97
    },
    {
      "midi": 61,
      "hit": false,
      "t": 123342.64833333525,
      "d": 386.74066666666477,
      "v": 85
    },
    {
      "midi": 64,
      "hit": false,
      "t": 123856.46093333526,
      "d": 657.4591333333374,
      "v": 99
    },
    {
      "midi": 69,
      "hit": false,
      "t": 123867.51066666859,
      "d": 624.3099333333375,
      "v": 100
    },
    {
      "midi": 61,
      "hit": false,
      "t": 123870.27310000193,
      "d": 649.171833333341,
      "v": 91
    },
    {
      "midi": 59,
      "hit": false,
      "t": 124986.2961666686,
      "d": 165.74599999999919,
      "v": 91
    },
    {
      "midi": 64,
      "hit": false,
      "t": 124989.05860000194,
      "d": 151.93383333332895,
      "v": 101
    },
    {
      "midi": 68,
      "hit": false,
      "t": 125000.10833333527,
      "d": 140.88409999999567,
      "v": 93
    },
    {
      "midi": 59,
      "hit": false,
      "t": 125320.55060000194,
      "d": 91.16030000000319,
      "v": 96
    },
    {
      "midi": 64,
      "hit": false,
      "t": 125331.60033333527,
      "d": 82.87300000000687,
      "v": 101
    },
    {
      "midi": 68,
      "hit": false,
      "t": 125334.36276666861,
      "d": 77.34813333333295,
      "v": 89
    },
    {
      "midi": 59,
      "hit": false,
      "t": 125500.1087666686,
      "d": 124.30950000000303,
      "v": 91
    },
    {
      "midi": 64,
      "hit": false,
      "t": 125511.15850000194,
      "d": 124.30950000000303,
      "v": 98
    },
    {
      "midi": 68,
      "hit": false,
      "t": 125511.15850000194,
      "d": 127.07193333333998,
      "v": 91
    },
    {
      "midi": 59,
      "hit": false,
      "t": 125980.77216666861,
      "d": 414.36500000000524,
      "v": 96
    },
    {
      "midi": 68,
      "hit": false,
      "t": 125983.53460000195,
      "d": 408.8401333333313,
      "v": 89
    },
    {
      "midi": 64,
      "hit": false,
      "t": 125994.58433333528,
      "d": 417.1274333333422,
      "v": 101
    },
    {
      "midi": 64,
      "hit": false,
      "t": 126505.63450000196,
      "d": 734.8072666666703,
      "v": 99
    },
    {
      "midi": 68,
      "hit": false,
      "t": 126508.3969333353,
      "d": 740.3321333333297,
      "v": 88
    },
    {
      "midi": 59,
      "hit": false,
      "t": 126519.44666666863,
      "d": 718.2326666666631,
      "v": 97
    },
    {
      "midi": 59,
      "hit": false,
      "t": 127638.23216666863,
      "d": 165.74599999999919,
      "v": 91
    },
    {
      "midi": 64,
      "hit": false,
      "t": 127640.99460000197,
      "d": 151.93383333332895,
      "v": 101
    },
    {
      "midi": 68,
      "hit": false,
      "t": 127652.0443333353,
      "d": 140.88409999999567,
      "v": 93
    },
    {
      "midi": 59,
      "hit": false,
      "t": 127972.48660000197,
      "d": 91.16030000000319,
      "v": 96
    },
    {
      "midi": 64,
      "hit": false,
      "t": 127983.5363333353,
      "d": 82.87300000000687,
      "v": 101
    },
    {
      "midi": 68,
      "hit": false,
      "t": 127986.29876666864,
      "d": 69.06083333333663,
      "v": 89
    },
    {
      "midi": 59,
      "hit": false,
      "t": 128152.04476666864,
      "d": 124.30950000000303,
      "v": 91
    },
    {
      "midi": 64,
      "hit": false,
      "t": 128163.09450000197,
      "d": 124.30950000000303,
      "v": 98
    },
    {
      "midi": 68,
      "hit": false,
      "t": 128163.09450000197,
      "d": 127.07193333333998,
      "v": 91
    },
    {
      "midi": 59,
      "hit": false,
      "t": 128632.70816666864,
      "d": 414.36500000000524,
      "v": 96
    },
    {
      "midi": 68,
      "hit": false,
      "t": 128635.47060000198,
      "d": 414.36500000000524,
      "v": 89
    },
    {
      "midi": 64,
      "hit": false,
      "t": 128646.52033333531,
      "d": 417.1274333333422,
      "v": 101
    },
    {
      "midi": 64,
      "hit": false,
      "t": 129157.570500002,
      "d": 734.8072666666703,
      "v": 99
    },
    {
      "midi": 68,
      "hit": false,
      "t": 129160.33293333533,
      "d": 740.3321333333297,
      "v": 88
    },
    {
      "midi": 59,
      "hit": false,
      "t": 129171.38266666867,
      "d": 718.2326666666631,
      "v": 97
    },
    {
      "midi": 59,
      "hit": false,
      "t": 130279.11843333533,
      "d": 146.40896666666958,
      "v": 93
    },
    {
      "midi": 64,
      "hit": false,
      "t": 130290.16816666866,
      "d": 138.12166666667326,
      "v": 95
    },
    {
      "midi": 68,
      "hit": false,
      "t": 130303.98033333533,
      "d": 138.12166666667326,
      "v": 89
    },
    {
      "midi": 59,
      "hit": false,
      "t": 130635.47233333535,
      "d": 71.82326666667359,
      "v": 90
    },
    {
      "midi": 64,
      "hit": false,
      "t": 130635.47233333535,
      "d": 82.87300000000687,
      "v": 97
    },
    {
      "midi": 68,
      "hit": false,
      "t": 130638.23476666868,
      "d": 69.06083333333663,
      "v": 83
    },
    {
      "midi": 59,
      "hit": false,
      "t": 130801.21833333536,
      "d": 151.9338333333435,
      "v": 91
    },
    {
      "midi": 68,
      "hit": false,
      "t": 130801.21833333536,
      "d": 154.69626666668046,
      "v": 93
    },
    {
      "midi": 64,
      "hit": false,
      "t": 130803.9807666687,
      "d": 138.12166666667326,
      "v": 95
    },
    {
      "midi": 68,
      "hit": false,
      "t": 131287.40660000205,
      "d": 276.2433333333465,
      "v": 90
    },
    {
      "midi": 59,
      "hit": false,
      "t": 131298.4563333354,
      "d": 317.67983333332813,
      "v": 95
    },
    {
      "midi": 64,
      "hit": false,
      "t": 131301.21876666872,
      "d": 298.3428000000131,
      "v": 97
    },
    {
      "midi": 68,
      "hit": false,
      "t": 131798.45676666874,
      "d": 712.7078000000038,
      "v": 87
    },
    {
      "midi": 59,
      "hit": false,
      "t": 131809.50650000208,
      "d": 734.8072666666703,
      "v": 97
    },
    {
      "midi": 64,
      "hit": false,
      "t": 131812.2689333354,
      "d": 718.2326666666777,
      "v": 99
    },
    {
      "midi": 64,
      "hit": false,
      "t": 132931.05443333543,
      "d": 160.22113333333982,
      "v": 95
    },
    {
      "midi": 61,
      "hit": false,
      "t": 132942.10416666878,
      "d": 127.07193333332543,
      "v": 80
    },
    {
      "midi": 67,
      "hit": false,
      "t": 132942.10416666878,
      "d": 127.07193333332543,
      "v": 90
    },
    {
      "midi": 61,
      "hit": false,
      "t": 133276.3586000021,
      "d": 82.87300000002142,
      "v": 82
    },
    {
      "midi": 67,
      "hit": false,
      "t": 133276.3586000021,
      "d": 82.87300000002142,
      "v": 91
    },
    {
      "midi": 64,
      "hit": false,
      "t": 133287.40833333545,
      "d": 71.82326666667359,
      "v": 88
    },
    {
      "midi": 67,
      "hit": false,
      "t": 133442.10460000212,
      "d": 160.22113333333982,
      "v": 95
    },
    {
      "midi": 61,
      "hit": false,
      "t": 133453.15433333546,
      "d": 127.07193333332543,
      "v": 84
    },
    {
      "midi": 64,
      "hit": false,
      "t": 133455.9167666688,
      "d": 132.59679999999935,
      "v": 97
    },
    {
      "midi": 64,
      "hit": false,
      "t": 133936.58016666878,
      "d": 417.1274333333131,
      "v": 95
    },
    {
      "midi": 67,
      "hit": false,
      "t": 133950.39233333545,
      "d": 359.11633333330974,
      "v": 95
    },
    {
      "midi": 61,
      "hit": false,
      "t": 133953.15476666877,
      "d": 386.7406666666502,
      "v": 83
    },
    {
      "midi": 67,
      "hit": false,
      "t": 134450.39276666875,
      "d": 759.6691666666884,
      "v": 92
    },
    {
      "midi": 64,
      "hit": false,
      "t": 134450.39276666875,
      "d": 773.4813333333586,
      "v": 91
    },
    {
      "midi": 61,
      "hit": false,
      "t": 134461.4425000021,
      "d": 773.4813333333586,
      "v": 80
    },
    {
      "midi": 68,
      "hit": false,
      "t": 135569.17826666878,
      "d": 187.8454666666803,
      "v": 93
    },
    {
      "midi": 59,
      "hit": false,
      "t": 135580.22800000213,
      "d": 168.50843333333614,
      "v": 95
    },
    {
      "midi": 64,
      "hit": false,
      "t": 135582.99043333545,
      "d": 187.8454666666803,
      "v": 99
    },
    {
      "midi": 59,
      "hit": false,
      "t": 135914.48243333548,
      "d": 91.16030000001774,
      "v": 92
    },
    {
      "midi": 64,
      "hit": false,
      "t": 135925.53216666883,
      "d": 99.44760000001406,
      "v": 93
    },
    {
      "midi": 68,
      "hit": false,
      "t": 135928.29460000215,
      "d": 77.3481333333475,
      "v": 88
    },
    {
      "midi": 59,
      "hit": false,
      "t": 136094.04060000216,
      "d": 118.78463333332911,
      "v": 93
    },
    {
      "midi": 64,
      "hit": false,
      "t": 136105.0903333355,
      "d": 151.9338333333435,
      "v": 94
    },
    {
      "midi": 68,
      "hit": false,
      "t": 136107.85276666883,
      "d": 138.12166666667326,
      "v": 91
    },
    {
      "midi": 59,
      "hit": false,
      "t": 136577.46643333553,
      "d": 331.4920000000275,
      "v": 97
    },
    {
      "midi": 64,
      "hit": false,
      "t": 136588.51616666888,
      "d": 306.6301000000094,
      "v": 101
    },
    {
      "midi": 68,
      "hit": false,
      "t": 136602.32833333555,
      "d": 276.2433333333465,
      "v": 92
    },
    {
      "midi": 64,
      "hit": false,
      "t": 137099.56633333556,
      "d": 676.796166666667,
      "v": 106
    },
    {
      "midi": 68,
      "hit": false,
      "t": 137099.56633333556,
      "d": 707.1829333333299,
      "v": 92
    },
    {
      "midi": 59,
      "hit": false,
      "t": 137113.37850000223,
      "d": 635.3596666666563,
      "v": 103
    },
    {
      "midi": 71,
      "hit": false,
      "t": 138234.92643333555,
      "d": 179.55816666665487,
      "v": 95
    },
    {
      "midi": 63,
      "hit": false,
      "t": 138245.9761666689,
      "d": 165.74599999998463,
      "v": 85
    },
    {
      "midi": 66,
      "hit": false,
      "t": 138248.73860000222,
      "d": 174.03329999998095,
      "v": 85
    },
    {
      "midi": 63,
      "hit": false,
      "t": 138566.41843333555,
      "d": 104.97246666668798,
      "v": 82
    },
    {
      "midi": 66,
      "hit": false,
      "t": 138577.4681666689,
      "d": 85.63543333334383,
      "v": 81
    },
    {
      "midi": 71,
      "hit": false,
      "t": 138577.4681666689,
      "d": 85.63543333334383,
      "v": 95
    },
    {
      "midi": 71,
      "hit": false,
      "t": 138757.02633333558,
      "d": 140.88409999999567,
      "v": 95
    },
    {
      "midi": 66,
      "hit": false,
      "t": 138759.7887666689,
      "d": 160.22113333333982,
      "v": 87
    },
    {
      "midi": 63,
      "hit": false,
      "t": 138759.7887666689,
      "d": 165.74600000001374,
      "v": 87
    },
    {
      "midi": 69,
      "hit": false,
      "t": 139240.45216666893,
      "d": 400.55283333334955,
      "v": 97
    },
    {
      "midi": 64,
      "hit": false,
      "t": 139243.21460000225,
      "d": 436.46446666668635,
      "v": 97
    },
    {
      "midi": 61,
      "hit": false,
      "t": 139254.2643333356,
      "d": 386.7406666666793,
      "v": 85
    },
    {
      "midi": 64,
      "hit": false,
      "t": 139768.0769333356,
      "d": 657.4591333333228,
      "v": 99
    },
    {
      "midi": 69,
      "hit": false,
      "t": 139779.12666666895,
      "d": 624.3099333333084,
      "v": 100
    },
    {
      "midi": 61,
      "hit": false,
      "t": 139781.88910000227,
      "d": 649.1718333333265,
      "v": 91
    },
    {
      "midi": 52,
      "hit": false,
      "t": 140566.42016666892,
      "d": 345.3041666666686,
      "v": 107
    },
    {
      "midi": 64,
      "hit": false,
      "t": 140911.7243333356,
      "d": 151.9338333333435,
      "v": 100
    },
    {
      "midi": 68,
      "hit": false,
      "t": 140914.4867666689,
      "d": 160.22113333336893,
      "v": 96
    },
    {
      "midi": 59,
      "hit": false,
      "t": 140925.53650000226,
      "d": 165.74600000004284,
      "v": 99
    },
    {
      "midi": 52,
      "hit": false,
      "t": 141080.23276666895,
      "d": 118.78463333335822,
      "v": 111
    },
    {
      "midi": 59,
      "hit": false,
      "t": 141243.21633333564,
      "d": 82.87299999999232,
      "v": 93
    },
    {
      "midi": 62,
      "hit": false,
      "t": 141245.97876666897,
      "d": 77.3481333333475,
      "v": 97
    },
    {
      "midi": 66,
      "hit": false,
      "t": 141257.0285000023,
      "d": 85.63543333331472,
      "v": 97
    },
    {
      "midi": 68,
      "hit": false,
      "t": 141425.53693333562,
      "d": 270.7184666666726,
      "v": 95
    },
    {
      "midi": 64,
      "hit": false,
      "t": 141425.53693333562,
      "d": 303.867666666687,
      "v": 101
    },
    {
      "midi": 59,
      "hit": false,
      "t": 141439.3491000023,
      "d": 290.05550000001676,
      "v": 104
    },
    {
      "midi": 52,
      "hit": false,
      "t": 141740.45433333566,
      "d": 110.49733333333279,
      "v": 106
    },
    {
      "midi": 64,
      "hit": false,
      "t": 141892.388166669,
      "d": 223.7571000000171,
      "v": 109
    },
    {
      "midi": 68,
      "hit": false,
      "t": 141895.15060000232,
      "d": 229.281966666691,
      "v": 97
    },
    {
      "midi": 59,
      "hit": false,
      "t": 141906.20033333567,
      "d": 209.94493333334685,
      "v": 113
    },
    {
      "midi": 59,
      "hit": false,
      "t": 155483.56016666902,
      "d": 165.74600000001374,
      "v": 91
    },
    {
      "midi": 64,
      "hit": false,
      "t": 155486.32260000234,
      "d": 151.9338333333435,
      "v": 101
    },
    {
      "midi": 68,
      "hit": false,
      "t": 155497.3723333357,
      "d": 140.88409999999567,
      "v": 93
    },
    {
      "midi": 59,
      "hit": false,
      "t": 155817.81460000237,
      "d": 91.16029999998864,
      "v": 96
    },
    {
      "midi": 64,
      "hit": false,
      "t": 155828.86433333572,
      "d": 82.87299999996321,
      "v": 101
    },
    {
      "midi": 68,
      "hit": false,
      "t": 155831.62676666904,
      "d": 69.06083333332208,
      "v": 89
    },
    {
      "midi": 59,
      "hit": false,
      "t": 155997.37276666902,
      "d": 124.30950000000303,
      "v": 91
    },
    {
      "midi": 64,
      "hit": false,
      "t": 156008.42250000237,
      "d": 124.30950000000303,
      "v": 98
    },
    {
      "midi": 68,
      "hit": false,
      "t": 156008.42250000237,
      "d": 127.07193333332543,
      "v": 91
    },
    {
      "midi": 59,
      "hit": false,
      "t": 156478.03616666904,
      "d": 414.3649999999907,
      "v": 96
    },
    {
      "midi": 68,
      "hit": false,
      "t": 156480.79860000237,
      "d": 414.3649999999907,
      "v": 89
    },
    {
      "midi": 64,
      "hit": false,
      "t": 156491.8483333357,
      "d": 414.3649999999907,
      "v": 101
    },
    {
      "midi": 64,
      "hit": false,
      "t": 157002.89850000237,
      "d": 734.8072666666703,
      "v": 99
    },
    {
      "midi": 68,
      "hit": false,
      "t": 157005.6609333357,
      "d": 740.3321333333442,
      "v": 88
    },
    {
      "midi": 59,
      "hit": false,
      "t": 157016.71066666904,
      "d": 718.2326666666777,
      "v": 97
    },
    {
      "midi": 59,
      "hit": false,
      "t": 158135.49616666904,
      "d": 138.12166666667326,
      "v": 93
    },
    {
      "midi": 64,
      "hit": false,
      "t": 158135.49616666904,
      "d": 138.12166666667326,
      "v": 95
    },
    {
      "midi": 68,
      "hit": false,
      "t": 158149.3083333357,
      "d": 138.12166666667326,
      "v": 89
    },
    {
      "midi": 64,
      "hit": false,
      "t": 158469.7506000024,
      "d": 91.16030000001774,
      "v": 97
    },
    {
      "midi": 59,
      "hit": false,
      "t": 158480.80033333573,
      "d": 71.82326666667359,
      "v": 90
    },
    {
      "midi": 68,
      "hit": false,
      "t": 158494.6125000024,
      "d": 69.06083333332208,
      "v": 83
    },
    {
      "midi": 59,
      "hit": false,
      "t": 158646.54633333572,
      "d": 140.88409999999567,
      "v": 91
    },
    {
      "midi": 68,
      "hit": false,
      "t": 158646.54633333572,
      "d": 165.74599999998463,
      "v": 93
    },
    {
      "midi": 64,
      "hit": false,
      "t": 158649.30876666904,
      "d": 138.12166666667326,
      "v": 95
    },
    {
      "midi": 68,
      "hit": false,
      "t": 159132.73460000238,
      "d": 276.2433333333465,
      "v": 90
    },
    {
      "midi": 59,
      "hit": false,
      "t": 159143.78433333573,
      "d": 317.67983333332813,
      "v": 95
    },
    {
      "midi": 64,
      "hit": false,
      "t": 159146.54676666905,
      "d": 298.3428000000131,
      "v": 97
    },
    {
      "midi": 68,
      "hit": false,
      "t": 159643.78476666906,
      "d": 712.7078000000038,
      "v": 87
    },
    {
      "midi": 59,
      "hit": false,
      "t": 159654.8345000024,
      "d": 734.8072666666703,
      "v": 97
    },
    {
      "midi": 64,
      "hit": false,
      "t": 159657.59693333574,
      "d": 718.2326666666777,
      "v": 99
    },
    {
      "midi": 64,
      "hit": false,
      "t": 160776.38243333576,
      "d": 160.22113333333982,
      "v": 95
    },
    {
      "midi": 61,
      "hit": false,
      "t": 160787.4321666691,
      "d": 127.07193333332543,
      "v": 80
    },
    {
      "midi": 67,
      "hit": false,
      "t": 160787.4321666691,
      "d": 127.07193333332543,
      "v": 90
    },
    {
      "midi": 61,
      "hit": false,
      "t": 161121.68660000243,
      "d": 82.87300000002142,
      "v": 82
    },
    {
      "midi": 67,
      "hit": false,
      "t": 161121.68660000243,
      "d": 82.87300000002142,
      "v": 91
    },
    {
      "midi": 64,
      "hit": false,
      "t": 161132.73633333578,
      "d": 71.82326666667359,
      "v": 88
    },
    {
      "midi": 61,
      "hit": false,
      "t": 161298.4823333358,
      "d": 127.07193333332543,
      "v": 84
    },
    {
      "midi": 67,
      "hit": false,
      "t": 161298.4823333358,
      "d": 151.9338333333435,
      "v": 95
    },
    {
      "midi": 64,
      "hit": false,
      "t": 161312.29450000246,
      "d": 124.30950000000303,
      "v": 97
    },
    {
      "midi": 64,
      "hit": false,
      "t": 161781.90816666913,
      "d": 417.1274333333131,
      "v": 95
    },
    {
      "midi": 67,
      "hit": false,
      "t": 161795.7203333358,
      "d": 359.11633333330974,
      "v": 95
    },
    {
      "midi": 61,
      "hit": false,
      "t": 161798.48276666913,
      "d": 395.02796666664653,
      "v": 83
    },
    {
      "midi": 67,
      "hit": false,
      "t": 162295.7207666691,
      "d": 767.9564666666847,
      "v": 92
    },
    {
      "midi": 64,
      "hit": false,
      "t": 162295.7207666691,
      "d": 773.4813333333586,
      "v": 91
    },
    {
      "midi": 61,
      "hit": false,
      "t": 162306.77050000246,
      "d": 773.4813333333586,
      "v": 80
    },
    {
      "midi": 68,
      "hit": false,
      "t": 163414.50626666914,
      "d": 187.8454666666803,
      "v": 93
    },
    {
      "midi": 59,
      "hit": false,
      "t": 163425.55600000249,
      "d": 168.50843333333614,
      "v": 95
    },
    {
      "midi": 64,
      "hit": false,
      "t": 163428.3184333358,
      "d": 187.8454666666803,
      "v": 99
    },
    {
      "midi": 59,
      "hit": false,
      "t": 163759.81043333584,
      "d": 91.16030000001774,
      "v": 92
    },
    {
      "midi": 64,
      "hit": false,
      "t": 163770.86016666918,
      "d": 99.44760000001406,
      "v": 93
    },
    {
      "midi": 68,
      "hit": false,
      "t": 163773.6226000025,
      "d": 77.3481333333475,
      "v": 88
    },
    {
      "midi": 59,
      "hit": false,
      "t": 163939.36860000252,
      "d": 118.78463333332911,
      "v": 93
    },
    {
      "midi": 64,
      "hit": false,
      "t": 163950.41833333587,
      "d": 151.9338333333435,
      "v": 94
    },
    {
      "midi": 68,
      "hit": false,
      "t": 163953.1807666692,
      "d": 138.12166666667326,
      "v": 91
    },
    {
      "midi": 59,
      "hit": false,
      "t": 164422.7944333359,
      "d": 331.4920000000275,
      "v": 97
    },
    {
      "midi": 64,
      "hit": false,
      "t": 164433.84416666924,
      "d": 306.6301000000094,
      "v": 101
    },
    {
      "midi": 68,
      "hit": false,
      "t": 164447.6563333359,
      "d": 276.2433333333465,
      "v": 92
    },
    {
      "midi": 64,
      "hit": false,
      "t": 164944.89433333592,
      "d": 676.796166666667,
      "v": 106
    },
    {
      "midi": 68,
      "hit": false,
      "t": 164944.89433333592,
      "d": 707.1829333333299,
      "v": 92
    },
    {
      "midi": 59,
      "hit": false,
      "t": 164958.7065000026,
      "d": 635.3596666666563,
      "v": 103
    },
    {
      "midi": 71,
      "hit": false,
      "t": 166080.2544333359,
      "d": 179.55816666665487,
      "v": 95
    },
    {
      "midi": 63,
      "hit": false,
      "t": 166091.30416666926,
      "d": 165.74599999998463,
      "v": 85
    },
    {
      "midi": 66,
      "hit": false,
      "t": 166094.06660000258,
      "d": 174.03329999998095,
      "v": 85
    },
    {
      "midi": 63,
      "hit": false,
      "t": 166411.7464333359,
      "d": 104.97246666668798,
      "v": 82
    },
    {
      "midi": 66,
      "hit": false,
      "t": 166422.79616666926,
      "d": 85.63543333334383,
      "v": 81
    },
    {
      "midi": 71,
      "hit": false,
      "t": 166422.79616666926,
      "d": 85.63543333334383,
      "v": 95
    },
    {
      "midi": 71,
      "hit": false,
      "t": 166602.35433333594,
      "d": 140.88409999999567,
      "v": 95
    },
    {
      "midi": 63,
      "hit": false,
      "t": 166605.11676666926,
      "d": 165.74599999998463,
      "v": 87
    },
    {
      "midi": 66,
      "hit": false,
      "t": 166616.1665000026,
      "d": 151.9338333333144,
      "v": 87
    },
    {
      "midi": 69,
      "hit": false,
      "t": 167085.78016666925,
      "d": 400.55283333334955,
      "v": 97
    },
    {
      "midi": 64,
      "hit": false,
      "t": 167088.54260000258,
      "d": 436.46446666668635,
      "v": 97
    },
    {
      "midi": 61,
      "hit": false,
      "t": 167099.59233333592,
      "d": 386.7406666666793,
      "v": 85
    },
    {
      "midi": 64,
      "hit": false,
      "t": 167613.40493333593,
      "d": 657.4591333333519,
      "v": 99
    },
    {
      "midi": 69,
      "hit": false,
      "t": 167624.45466666928,
      "d": 635.3596666666563,
      "v": 100
    },
    {
      "midi": 61,
      "hit": false,
      "t": 167627.2171000026,
      "d": 649.1718333333556,
      "v": 91
    },
    {
      "midi": 59,
      "hit": false,
      "t": 168743.24016666927,
      "d": 165.74600000001374,
      "v": 91
    },
    {
      "midi": 64,
      "hit": false,
      "t": 168746.0026000026,
      "d": 151.9338333333435,
      "v": 101
    },
    {
      "midi": 68,
      "hit": false,
      "t": 168757.05233333595,
      "d": 140.88409999999567,
      "v": 93
    },
    {
      "midi": 59,
      "hit": false,
      "t": 169077.49460000262,
      "d": 91.16029999998864,
      "v": 96
    },
    {
      "midi": 64,
      "hit": false,
      "t": 169088.54433333597,
      "d": 82.87299999996321,
      "v": 101
    },
    {
      "midi": 68,
      "hit": false,
      "t": 169091.3067666693,
      "d": 69.06083333332208,
      "v": 89
    },
    {
      "midi": 59,
      "hit": false,
      "t": 169257.05276666928,
      "d": 124.30950000000303,
      "v": 91
    },
    {
      "midi": 64,
      "hit": false,
      "t": 169268.10250000263,
      "d": 124.30950000000303,
      "v": 98
    },
    {
      "midi": 68,
      "hit": false,
      "t": 169268.10250000263,
      "d": 127.07193333332543,
      "v": 91
    },
    {
      "midi": 64,
      "hit": false,
      "t": 169737.7161666693,
      "d": 223.7571000000171,
      "v": 109
    },
    {
      "midi": 68,
      "hit": false,
      "t": 169740.47860000262,
      "d": 229.281966666691,
      "v": 97
    },
    {
      "midi": 59,
      "hit": false,
      "t": 169751.52833333597,
      "d": 209.94493333334685,
      "v": 113
    },
    {
      "midi": 59,
      "hit": false,
      "t": 182002.92016666933,
      "d": 165.74600000001374,
      "v": 91
    },
    {
      "midi": 64,
      "hit": false,
      "t": 182005.68260000265,
      "d": 151.9338333333435,
      "v": 101
    },
    {
      "midi": 68,
      "hit": false,
      "t": 182016.732333336,
      "d": 140.88409999999567,
      "v": 93
    },
    {
      "midi": 59,
      "hit": false,
      "t": 182337.17460000268,
      "d": 91.16029999998864,
      "v": 96
    },
    {
      "midi": 64,
      "hit": false,
      "t": 182348.22433333602,
      "d": 82.87299999996321,
      "v": 101
    },
    {
      "midi": 68,
      "hit": false,
      "t": 182350.98676666935,
      "d": 69.06083333332208,
      "v": 89
    },
    {
      "midi": 59,
      "hit": false,
      "t": 182516.73276666933,
      "d": 124.30950000000303,
      "v": 91
    },
    {
      "midi": 64,
      "hit": false,
      "t": 182527.78250000268,
      "d": 124.30950000000303,
      "v": 98
    },
    {
      "midi": 68,
      "hit": false,
      "t": 182527.78250000268,
      "d": 127.07193333332543,
      "v": 91
    },
    {
      "midi": 59,
      "hit": false,
      "t": 182997.39616666935,
      "d": 414.3649999999907,
      "v": 96
    },
    {
      "midi": 68,
      "hit": false,
      "t": 183000.15860000267,
      "d": 408.8401333333459,
      "v": 89
    },
    {
      "midi": 64,
      "hit": false,
      "t": 183011.20833333602,
      "d": 414.3649999999907,
      "v": 101
    },
    {
      "midi": 64,
      "hit": false,
      "t": 183522.25850000267,
      "d": 734.8072666666703,
      "v": 99
    },
    {
      "midi": 68,
      "hit": false,
      "t": 183525.020933336,
      "d": 740.3321333333442,
      "v": 88
    },
    {
      "midi": 59,
      "hit": false,
      "t": 183536.07066666934,
      "d": 718.2326666666777,
      "v": 97
    },
    {
      "midi": 59,
      "hit": false,
      "t": 184643.806433336,
      "d": 146.4089666666987,
      "v": 93
    },
    {
      "midi": 64,
      "hit": false,
      "t": 184654.85616666934,
      "d": 138.12166666667326,
      "v": 95
    },
    {
      "midi": 68,
      "hit": false,
      "t": 184668.668333336,
      "d": 138.12166666667326,
      "v": 89
    },
    {
      "midi": 64,
      "hit": false,
      "t": 185000.160333336,
      "d": 82.87300000002142,
      "v": 97
    },
    {
      "midi": 59,
      "hit": false,
      "t": 185002.92276666933,
      "d": 69.06083333335118,
      "v": 90
    },
    {
      "midi": 68,
      "hit": false,
      "t": 185013.97250000268,
      "d": 58.01110000000335,
      "v": 83
    },
    {
      "midi": 59,
      "hit": false,
      "t": 185165.90633333602,
      "d": 140.88409999999567,
      "v": 91
    },
    {
      "midi": 68,
      "hit": false,
      "t": 185165.90633333602,
      "d": 165.74599999998463,
      "v": 93
    },
    {
      "midi": 64,
      "hit": false,
      "t": 185168.66876666935,
      "d": 138.12166666667326,
      "v": 95
    },
    {
      "midi": 68,
      "hit": false,
      "t": 185652.0946000027,
      "d": 276.2433333333465,
      "v": 90
    },
    {
      "midi": 59,
      "hit": false,
      "t": 185663.14433333604,
      "d": 317.67983333332813,
      "v": 95
    },
    {
      "midi": 64,
      "hit": false,
      "t": 185665.90676666936,
      "d": 290.05550000001676,
      "v": 97
    },
    {
      "midi": 68,
      "hit": false,
      "t": 186163.14476666937,
      "d": 712.7078000000038,
      "v": 87
    },
    {
      "midi": 59,
      "hit": false,
      "t": 186174.19450000272,
      "d": 734.8072666666703,
      "v": 97
    },
    {
      "midi": 64,
      "hit": false,
      "t": 186176.95693333604,
      "d": 718.2326666666777,
      "v": 99
    },
    {
      "midi": 64,
      "hit": false,
      "t": 187295.74243333607,
      "d": 160.22113333333982,
      "v": 95
    },
    {
      "midi": 61,
      "hit": false,
      "t": 187306.79216666942,
      "d": 127.07193333332543,
      "v": 80
    },
    {
      "midi": 67,
      "hit": false,
      "t": 187306.79216666942,
      "d": 127.07193333332543,
      "v": 90
    },
    {
      "midi": 67,
      "hit": false,
      "t": 187641.04660000274,
      "d": 82.87299999999232,
      "v": 91
    },
    {
      "midi": 61,
      "hit": false,
      "t": 187652.09633333609,
      "d": 69.06083333332208,
      "v": 82
    },
    {
      "midi": 64,
      "hit": false,
      "t": 187652.09633333609,
      "d": 71.82326666664449,
      "v": 88
    },
    {
      "midi": 67,
      "hit": false,
      "t": 187806.79260000272,
      "d": 160.22113333333982,
      "v": 95
    },
    {
      "midi": 61,
      "hit": false,
      "t": 187817.84233333607,
      "d": 127.07193333332543,
      "v": 84
    },
    {
      "midi": 64,
      "hit": false,
      "t": 187820.6047666694,
      "d": 132.59679999999935,
      "v": 97
    },
    {
      "midi": 64,
      "hit": false,
      "t": 188301.26816666938,
      "d": 417.1274333333131,
      "v": 95
    },
    {
      "midi": 67,
      "hit": false,
      "t": 188315.08033333605,
      "d": 359.11633333330974,
      "v": 95
    },
    {
      "midi": 61,
      "hit": false,
      "t": 188317.84276666938,
      "d": 386.7406666666502,
      "v": 83
    },
    {
      "midi": 64,
      "hit": false,
      "t": 188815.08076666936,
      "d": 773.4813333333586,
      "v": 91
    },
    {
      "midi": 67,
      "hit": false,
      "t": 188826.1305000027,
      "d": 748.6194333333406,
      "v": 92
    },
    {
      "midi": 61,
      "hit": false,
      "t": 188826.1305000027,
      "d": 773.4813333333586,
      "v": 80
    },
    {
      "midi": 68,
      "hit": false,
      "t": 189933.86626666939,
      "d": 187.8454666666803,
      "v": 93
    },
    {
      "midi": 59,
      "hit": false,
      "t": 189944.91600000273,
      "d": 168.50843333333614,
      "v": 95
    },
    {
      "midi": 64,
      "hit": false,
      "t": 189947.67843333606,
      "d": 187.8454666666803,
      "v": 99
    },
    {
      "midi": 59,
      "hit": false,
      "t": 190279.17043333608,
      "d": 91.16030000001774,
      "v": 92
    },
    {
      "midi": 64,
      "hit": false,
      "t": 190290.22016666943,
      "d": 99.44760000001406,
      "v": 93
    },
    {
      "midi": 68,
      "hit": false,
      "t": 190292.98260000275,
      "d": 77.3481333333475,
      "v": 88
    },
    {
      "midi": 59,
      "hit": false,
      "t": 190458.72860000277,
      "d": 118.78463333332911,
      "v": 93
    },
    {
      "midi": 64,
      "hit": false,
      "t": 190469.77833333611,
      "d": 151.9338333333435,
      "v": 94
    },
    {
      "midi": 68,
      "hit": false,
      "t": 190472.54076666944,
      "d": 138.12166666667326,
      "v": 91
    },
    {
      "midi": 59,
      "hit": false,
      "t": 190942.15443333614,
      "d": 331.4920000000275,
      "v": 97
    },
    {
      "midi": 64,
      "hit": false,
      "t": 190953.2041666695,
      "d": 306.6301000000094,
      "v": 101
    },
    {
      "midi": 68,
      "hit": false,
      "t": 190967.01633333616,
      "d": 276.2433333333465,
      "v": 92
    },
    {
      "midi": 64,
      "hit": false,
      "t": 191464.25433333617,
      "d": 676.796166666667,
      "v": 106
    },
    {
      "midi": 68,
      "hit": false,
      "t": 191464.25433333617,
      "d": 707.1829333333299,
      "v": 92
    },
    {
      "midi": 59,
      "hit": false,
      "t": 191478.06650000284,
      "d": 635.3596666666563,
      "v": 103
    },
    {
      "midi": 71,
      "hit": false,
      "t": 192599.61443333616,
      "d": 179.55816666665487,
      "v": 95
    },
    {
      "midi": 63,
      "hit": false,
      "t": 192610.6641666695,
      "d": 165.74599999998463,
      "v": 85
    },
    {
      "midi": 66,
      "hit": false,
      "t": 192613.42660000283,
      "d": 174.03329999998095,
      "v": 85
    },
    {
      "midi": 63,
      "hit": false,
      "t": 192931.10643333616,
      "d": 104.97246666668798,
      "v": 82
    },
    {
      "midi": 66,
      "hit": false,
      "t": 192942.1561666695,
      "d": 85.63543333334383,
      "v": 81
    },
    {
      "midi": 71,
      "hit": false,
      "t": 192942.1561666695,
      "d": 96.68516666666255,
      "v": 95
    },
    {
      "midi": 71,
      "hit": false,
      "t": 193121.71433333616,
      "d": 140.88409999999567,
      "v": 95
    },
    {
      "midi": 63,
      "hit": false,
      "t": 193124.47676666948,
      "d": 165.74599999998463,
      "v": 87
    },
    {
      "midi": 66,
      "hit": false,
      "t": 193135.52650000283,
      "d": 151.9338333333144,
      "v": 87
    },
    {
      "midi": 69,
      "hit": false,
      "t": 193605.14016666947,
      "d": 400.55283333334955,
      "v": 97
    },
    {
      "midi": 64,
      "hit": false,
      "t": 193607.9026000028,
      "d": 436.46446666668635,
      "v": 97
    },
    {
      "midi": 61,
      "hit": false,
      "t": 193618.95233333614,
      "d": 386.7406666666793,
      "v": 85
    },
    {
      "midi": 64,
      "hit": false,
      "t": 194132.76493333615,
      "d": 657.4591333333228,
      "v": 99
    },
    {
      "midi": 69,
      "hit": false,
      "t": 194143.8146666695,
      "d": 624.3099333333084,
      "v": 100
    },
    {
      "midi": 61,
      "hit": false,
      "t": 194146.57710000282,
      "d": 649.1718333333265,
      "v": 91
    },
    {
      "midi": 52,
      "hit": false,
      "t": 194931.10816666947,
      "d": 345.3041666666686,
      "v": 107
    },
    {
      "midi": 64,
      "hit": false,
      "t": 195276.41233333613,
      "d": 151.9338333333435,
      "v": 100
    },
    {
      "midi": 68,
      "hit": false,
      "t": 195279.17476666946,
      "d": 160.22113333336893,
      "v": 96
    },
    {
      "midi": 59,
      "hit": false,
      "t": 195290.2245000028,
      "d": 165.74600000004284,
      "v": 99
    },
    {
      "midi": 52,
      "hit": false,
      "t": 195444.9207666695,
      "d": 118.78463333335822,
      "v": 111
    },
    {
      "midi": 59,
      "hit": false,
      "t": 195607.9043333362,
      "d": 82.87299999999232,
      "v": 93
    },
    {
      "midi": 62,
      "hit": false,
      "t": 195610.6667666695,
      "d": 77.3481333333475,
      "v": 97
    },
    {
      "midi": 66,
      "hit": false,
      "t": 195621.71650000286,
      "d": 85.63543333331472,
      "v": 97
    },
    {
      "midi": 68,
      "hit": false,
      "t": 195790.22493333617,
      "d": 270.7184666666726,
      "v": 95
    },
    {
      "midi": 64,
      "hit": false,
      "t": 195790.22493333617,
      "d": 303.867666666687,
      "v": 101
    },
    {
      "midi": 59,
      "hit": false,
      "t": 195804.03710000284,
      "d": 290.05550000001676,
      "v": 104
    },
    {
      "midi": 52,
      "hit": false,
      "t": 196105.1423333362,
      "d": 110.49733333333279,
      "v": 106
    },
    {
      "midi": 64,
      "hit": false,
      "t": 196257.07616666955,
      "d": 223.7571000000171,
      "v": 109
    },
    {
      "midi": 68,
      "hit": false,
      "t": 196259.83860000287,
      "d": 229.281966666691,
      "v": 97
    },
    {
      "midi": 59,
      "hit": false,
      "t": 196270.88833333622,
      "d": 209.94493333334685,
      "v": 113
    },
    {
      "midi": 59,
      "hit": false,
      "t": 197914.53616666957,
      "d": 165.74600000001374,
      "v": 91
    },
    {
      "midi": 64,
      "hit": false,
      "t": 197917.2986000029,
      "d": 151.9338333333435,
      "v": 101
    },
    {
      "midi": 68,
      "hit": false,
      "t": 197928.34833333624,
      "d": 140.88409999999567,
      "v": 93
    },
    {
      "midi": 59,
      "hit": false,
      "t": 198248.79060000292,
      "d": 91.16029999998864,
      "v": 96
    },
    {
      "midi": 64,
      "hit": false,
      "t": 198259.84033333627,
      "d": 82.87299999996321,
      "v": 101
    },
    {
      "midi": 68,
      "hit": false,
      "t": 198262.6027666696,
      "d": 69.06083333332208,
      "v": 89
    },
    {
      "midi": 59,
      "hit": false,
      "t": 198428.34876666957,
      "d": 124.30950000000303,
      "v": 91
    },
    {
      "midi": 64,
      "hit": false,
      "t": 198439.39850000292,
      "d": 124.30950000000303,
      "v": 98
    },
    {
      "midi": 68,
      "hit": false,
      "t": 198439.39850000292,
      "d": 127.07193333332543,
      "v": 91
    },
    {
      "midi": 59,
      "hit": false,
      "t": 198909.0121666696,
      "d": 414.3649999999907,
      "v": 96
    },
    {
      "midi": 68,
      "hit": false,
      "t": 198911.77460000291,
      "d": 414.3649999999907,
      "v": 89
    },
    {
      "midi": 64,
      "hit": false,
      "t": 198922.82433333626,
      "d": 414.3649999999907,
      "v": 101
    },
    {
      "midi": 64,
      "hit": false,
      "t": 199433.87450000292,
      "d": 734.8072666666703,
      "v": 99
    },
    {
      "midi": 68,
      "hit": false,
      "t": 199436.63693333624,
      "d": 740.3321333333442,
      "v": 88
    },
    {
      "midi": 59,
      "hit": false,
      "t": 199447.6866666696,
      "d": 718.2326666666777,
      "v": 97
    },
    {
      "midi": 59,
      "hit": false,
      "t": 200555.42243333624,
      "d": 146.4089666666987,
      "v": 93
    },
    {
      "midi": 64,
      "hit": false,
      "t": 200566.47216666958,
      "d": 138.12166666667326,
      "v": 95
    },
    {
      "midi": 68,
      "hit": false,
      "t": 200580.28433333625,
      "d": 138.12166666667326,
      "v": 89
    },
    {
      "midi": 64,
      "hit": false,
      "t": 200900.72660000293,
      "d": 91.16029999998864,
      "v": 97
    },
    {
      "midi": 59,
      "hit": false,
      "t": 200911.77633333628,
      "d": 71.82326666664449,
      "v": 90
    },
    {
      "midi": 68,
      "hit": false,
      "t": 200914.5387666696,
      "d": 69.06083333332208,
      "v": 83
    },
    {
      "midi": 59,
      "hit": false,
      "t": 201077.52233333627,
      "d": 140.88409999999567,
      "v": 91
    },
    {
      "midi": 68,
      "hit": false,
      "t": 201077.52233333627,
      "d": 165.74599999998463,
      "v": 93
    },
    {
      "midi": 64,
      "hit": false,
      "t": 201080.2847666696,
      "d": 138.12166666667326,
      "v": 95
    },
    {
      "midi": 68,
      "hit": false,
      "t": 201563.71060000293,
      "d": 276.2433333333465,
      "v": 90
    },
    {
      "midi": 59,
      "hit": false,
      "t": 201574.76033333628,
      "d": 317.67983333332813,
      "v": 95
    },
    {
      "midi": 64,
      "hit": false,
      "t": 201577.5227666696,
      "d": 298.3428000000131,
      "v": 97
    },
    {
      "midi": 68,
      "hit": false,
      "t": 202085.81050000293,
      "d": 704.4204999999783,
      "v": 87
    },
    {
      "midi": 59,
      "hit": false,
      "t": 202085.81050000293,
      "d": 734.8072666666412,
      "v": 97
    },
    {
      "midi": 64,
      "hit": false,
      "t": 202088.57293333625,
      "d": 718.2326666666486,
      "v": 99
    },
    {
      "midi": 64,
      "hit": false,
      "t": 203207.35843333625,
      "d": 160.22113333333982,
      "v": 95
    },
    {
      "midi": 61,
      "hit": false,
      "t": 203218.4081666696,
      "d": 127.07193333332543,
      "v": 80
    },
    {
      "midi": 67,
      "hit": false,
      "t": 203218.4081666696,
      "d": 127.07193333332543,
      "v": 90
    },
    {
      "midi": 67,
      "hit": false,
      "t": 203552.66260000292,
      "d": 77.3481333333475,
      "v": 91
    },
    {
      "midi": 61,
      "hit": false,
      "t": 203563.71233333627,
      "d": 69.06083333332208,
      "v": 82
    },
    {
      "midi": 64,
      "hit": false,
      "t": 203563.71233333627,
      "d": 69.06083333332208,
      "v": 88
    },
    {
      "midi": 67,
      "hit": false,
      "t": 203718.40860000293,
      "d": 160.22113333336893,
      "v": 95
    },
    {
      "midi": 61,
      "hit": false,
      "t": 203729.45833333628,
      "d": 127.07193333332543,
      "v": 84
    },
    {
      "midi": 64,
      "hit": false,
      "t": 203743.27050000295,
      "d": 124.30950000000303,
      "v": 97
    },
    {
      "midi": 64,
      "hit": false,
      "t": 204212.88416666962,
      "d": 417.1274333333131,
      "v": 95
    },
    {
      "midi": 67,
      "hit": false,
      "t": 204226.6963333363,
      "d": 359.11633333330974,
      "v": 95
    },
    {
      "midi": 61,
      "hit": false,
      "t": 204229.45876666962,
      "d": 386.7406666666502,
      "v": 83
    },
    {
      "midi": 67,
      "hit": false,
      "t": 204726.6967666696,
      "d": 767.9564666666847,
      "v": 92
    },
    {
      "midi": 64,
      "hit": false,
      "t": 204726.6967666696,
      "d": 773.4813333333586,
      "v": 91
    },
    {
      "midi": 61,
      "hit": false,
      "t": 204737.74650000295,
      "d": 773.4813333333586,
      "v": 80
    },
    {
      "midi": 68,
      "hit": false,
      "t": 205845.48226666963,
      "d": 187.8454666666803,
      "v": 93
    },
    {
      "midi": 59,
      "hit": false,
      "t": 205856.53200000298,
      "d": 168.50843333333614,
      "v": 95
    },
    {
      "midi": 64,
      "hit": false,
      "t": 205859.2944333363,
      "d": 179.55816666668397,
      "v": 99
    },
    {
      "midi": 59,
      "hit": false,
      "t": 206190.78643333632,
      "d": 91.16030000001774,
      "v": 92
    },
    {
      "midi": 64,
      "hit": false,
      "t": 206201.83616666967,
      "d": 99.44760000001406,
      "v": 93
    },
    {
      "midi": 68,
      "hit": false,
      "t": 206204.598600003,
      "d": 77.3481333333475,
      "v": 88
    },
    {
      "midi": 59,
      "hit": false,
      "t": 206370.344600003,
      "d": 118.78463333332911,
      "v": 93
    },
    {
      "midi": 64,
      "hit": false,
      "t": 206381.39433333636,
      "d": 151.9338333333435,
      "v": 94
    },
    {
      "midi": 68,
      "hit": false,
      "t": 206384.15676666968,
      "d": 138.12166666667326,
      "v": 91
    },
    {
      "midi": 59,
      "hit": false,
      "t": 206853.77043333638,
      "d": 331.4920000000275,
      "v": 97
    },
    {
      "midi": 64,
      "hit": false,
      "t": 206864.82016666973,
      "d": 306.6301000000094,
      "v": 101
    },
    {
      "midi": 68,
      "hit": false,
      "t": 206878.6323333364,
      "d": 276.2433333333465,
      "v": 92
    },
    {
      "midi": 64,
      "hit": false,
      "t": 207375.8703333364,
      "d": 676.796166666667,
      "v": 106
    },
    {
      "midi": 68,
      "hit": false,
      "t": 207375.8703333364,
      "d": 707.1829333333299,
      "v": 92
    },
    {
      "midi": 59,
      "hit": false,
      "t": 207389.68250000308,
      "d": 635.3596666666563,
      "v": 103
    },
    {
      "midi": 71,
      "hit": false,
      "t": 208511.2304333364,
      "d": 187.8454666666803,
      "v": 95
    },
    {
      "midi": 63,
      "hit": false,
      "t": 208522.28016666975,
      "d": 165.74599999998463,
      "v": 85
    },
    {
      "midi": 66,
      "hit": false,
      "t": 208525.04260000307,
      "d": 174.03330000001006,
      "v": 85
    },
    {
      "midi": 63,
      "hit": false,
      "t": 208842.72243333643,
      "d": 104.97246666668798,
      "v": 82
    },
    {
      "midi": 66,
      "hit": false,
      "t": 208853.77216666978,
      "d": 96.68516666666255,
      "v": 81
    },
    {
      "midi": 71,
      "hit": false,
      "t": 208853.77216666978,
      "d": 96.68516666666255,
      "v": 95
    },
    {
      "midi": 71,
      "hit": false,
      "t": 209033.33033333643,
      "d": 140.88409999999567,
      "v": 95
    },
    {
      "midi": 63,
      "hit": false,
      "t": 209036.09276666975,
      "d": 165.74599999998463,
      "v": 87
    },
    {
      "midi": 66,
      "hit": false,
      "t": 209047.1425000031,
      "d": 151.9338333333144,
      "v": 87
    },
    {
      "midi": 69,
      "hit": false,
      "t": 209516.75616666974,
      "d": 400.55283333334955,
      "v": 97
    },
    {
      "midi": 64,
      "hit": false,
      "t": 209519.51860000307,
      "d": 436.46446666668635,
      "v": 97
    },
    {
      "midi": 61,
      "hit": false,
      "t": 209530.5683333364,
      "d": 386.7406666666793,
      "v": 85
    },
    {
      "midi": 64,
      "hit": false,
      "t": 210044.38093333642,
      "d": 657.4591333333228,
      "v": 99
    },
    {
      "midi": 69,
      "hit": false,
      "t": 210055.43066666977,
      "d": 624.3099333333084,
      "v": 100
    },
    {
      "midi": 61,
      "hit": false,
      "t": 210058.1931000031,
      "d": 649.1718333333265,
      "v": 91
    },
    {
      "midi": 52,
      "hit": false,
      "t": 210842.72416666974,
      "d": 345.3041666666686,
      "v": 107
    },
    {
      "midi": 64,
      "hit": false,
      "t": 211188.0283333364,
      "d": 151.9338333333435,
      "v": 100
    },
    {
      "midi": 68,
      "hit": false,
      "t": 211190.79076666973,
      "d": 160.22113333336893,
      "v": 96
    },
    {
      "midi": 59,
      "hit": false,
      "t": 211201.84050000308,
      "d": 165.74600000004284,
      "v": 99
    },
    {
      "midi": 52,
      "hit": false,
      "t": 211356.53676666977,
      "d": 118.78463333335822,
      "v": 111
    },
    {
      "midi": 59,
      "hit": false,
      "t": 211519.52033333646,
      "d": 82.87299999999232,
      "v": 93
    },
    {
      "midi": 62,
      "hit": false,
      "t": 211522.28276666978,
      "d": 77.3481333333475,
      "v": 97
    },
    {
      "midi": 66,
      "hit": false,
      "t": 211533.33250000313,
      "d": 85.63543333331472,
      "v": 97
    },
    {
      "midi": 64,
      "hit": false,
      "t": 211701.84093333644,
      "d": 303.8676666666579,
      "v": 101
    },
    {
      "midi": 68,
      "hit": false,
      "t": 211712.8906666698,
      "d": 262.4311666666472,
      "v": 95
    },
    {
      "midi": 59,
      "hit": false,
      "t": 211715.6531000031,
      "d": 290.05549999998766,
      "v": 104
    },
    {
      "midi": 52,
      "hit": false,
      "t": 212016.75833333645,
      "d": 110.49733333333279,
      "v": 106
    },
    {
      "midi": 64,
      "hit": false,
      "t": 212168.6921666698,
      "d": 223.7571000000171,
      "v": 109
    },
    {
      "midi": 68,
      "hit": false,
      "t": 212171.4546000031,
      "d": 229.281966666691,
      "v": 97
    },
    {
      "midi": 59,
      "hit": false,
      "t": 212182.50433333646,
      "d": 209.94493333334685,
      "v": 113
    }
  ]
}