{
  "jsonPath": "Rock/Alternative Rock/Foo Fighters/big-me.json",
  "path": "Rock\\Alternative Rock\\Foo Fighters\\Big Me.mid",
  "name": "Big Me",
  "difficulty": "Advanced",
  "bpm": 126.00039060121087,
  "notes": [
    {
      "midi": 60,
      "hit": false,
      "t": 0,
      "d": 396.82416666666666,
      "v": 110
    },
    {
      "midi": 64,
      "hit": false,
      "t": 0,
      "d": 396.82416666666666,
      "v": 110
    },
    {
      "midi": 67,
      "hit": false,
      "t": 0,
      "d": 396.82416666666666,
      "v": 110
    },
    {
      "midi": 72,
      "hit": false,
      "t": 0,
      "d": 396.82416666666666,
      "v": 110
    },
    {
      "midi": 60,
      "hit": false,
      "t": 476.18899999999996,
      "d": 233.13419791666672,
      "v": 110
    },
    {
      "midi": 64,
      "hit": false,
      "t": 476.18899999999996,
      "d": 233.13419791666672,
      "v": 110
    },
    {
      "midi": 67,
      "hit": false,
      "t": 476.18899999999996,
      "d": 233.13419791666672,
      "v": 110
    },
    {
      "midi": 72,
      "hit": false,
      "t": 476.18899999999996,
      "d": 233.13419791666672,
      "v": 110
    },
    {
      "midi": 60,
      "hit": false,
      "t": 714.2835,
      "d": 471.22869791666653,
      "v": 110
    },
    {
      "midi": 64,
      "hit": false,
      "t": 714.2835,
      "d": 471.22869791666653,
      "v": 110
    },
    {
      "midi": 67,
      "hit": false,
      "t": 714.2835,
      "d": 471.22869791666653,
      "v": 110
    },
    {
      "midi": 72,
      "hit": false,
      "t": 714.2835,
      "d": 471.22869791666653,
      "v": 110
    },
    {
      "midi": 79,
      "hit": false,
      "t": 714.2835,
      "d": 471.22869791666653,
      "v": 110
    },
    {
      "midi": 60,
      "hit": false,
      "t": 1190.4724999999999,
      "d": 233.1341979166666,
      "v": 110
    },
    {
      "midi": 64,
      "hit": false,
      "t": 1190.4724999999999,
      "d": 233.1341979166666,
      "v": 110
    },
    {
      "midi": 67,
      "hit": false,
      "t": 1190.4724999999999,
      "d": 233.1341979166666,
      "v": 110
    },
    {
      "midi": 72,
      "hit": false,
      "t": 1190.4724999999999,
      "d": 233.1341979166666,
      "v": 110
    },
    {
      "midi": 79,
      "hit": false,
      "t": 1190.4724999999999,
      "d": 233.1341979166666,
      "v": 110
    },
    {
      "midi": 60,
      "hit": false,
      "t": 1428.5669999999998,
      "d": 233.1341979166666,
      "v": 110
    },
    {
      "midi": 64,
      "hit": false,
      "t": 1428.5669999999998,
      "d": 233.1341979166666,
      "v": 110
    },
    {
      "midi": 67,
      "hit": false,
      "t": 1428.5669999999998,
      "d": 233.1341979166666,
      "v": 110
    },
    {
      "midi": 72,
      "hit": false,
      "t": 1428.5669999999998,
      "d": 233.1341979166666,
      "v": 110
    },
    {
      "midi": 79,
      "hit": false,
      "t": 1428.5669999999998,
      "d": 233.1341979166666,
      "v": 110
    },
    {
      "midi": 67,
      "hit": false,
      "t": 1666.6614999999997,
      "d": 233.1341979166666,
      "v": 110
    },
    {
      "midi": 72,
      "hit": false,
      "t": 1666.6614999999997,
      "d": 233.1341979166666,
      "v": 110
    },
    {
      "midi": 57,
      "hit": false,
      "t": 1904.7559999999996,
      "d": 396.82416666666654,
      "v": 110
    },
    {
      "midi": 64,
      "hit": false,
      "t": 1904.7559999999996,
      "d": 396.82416666666654,
      "v": 110
    },
    {
      "midi": 69,
      "hit": false,
      "t": 1904.7559999999996,
      "d": 396.82416666666654,
      "v": 110
    },
    {
      "midi": 72,
      "hit": false,
      "t": 1904.7559999999996,
      "d": 396.82416666666654,
      "v": 110
    },
    {
      "midi": 57,
      "hit": false,
      "t": 2380.9449999999997,
      "d": 233.13419791666684,
      "v": 110
    },
    {
      "midi": 64,
      "hit": false,
      "t": 2380.9449999999997,
      "d": 233.13419791666684,
      "v": 110
    },
    {
      "midi": 69,
      "hit": false,
      "t": 2380.9449999999997,
      "d": 233.13419791666684,
      "v": 110
    },
    {
      "midi": 72,
      "hit": false,
      "t": 2380.9449999999997,
      "d": 233.13419791666684,
      "v": 110
    },
    {
      "midi": 57,
      "hit": false,
      "t": 2619.0395,
      "d": 471.22869791666653,
      "v": 110
    },
    {
      "midi": 64,
      "hit": false,
      "t": 2619.0395,
      "d": 471.22869791666653,
      "v": 110
    },
    {
      "midi": 69,
      "hit": false,
      "t": 2619.0395,
      "d": 471.22869791666653,
      "v": 110
    },
    {
      "midi": 72,
      "hit": false,
      "t": 2619.0395,
      "d": 471.22869791666653,
      "v": 110
    },
    {
      "midi": 79,
      "hit": false,
      "t": 2619.0395,
      "d": 471.22869791666653,
      "v": 110
    },
    {
      "midi": 57,
      "hit": false,
      "t": 3095.2284999999997,
      "d": 233.13419791666684,
      "v": 110
    },
    {
      "midi": 64,
      "hit": false,
      "t": 3095.2284999999997,
      "d": 233.13419791666684,
      "v": 110
    },
    {
      "midi": 69,
      "hit": false,
      "t": 3095.2284999999997,
      "d": 233.13419791666684,
      "v": 110
    },
    {
      "midi": 72,
      "hit": false,
      "t": 3095.2284999999997,
      "d": 233.13419791666684,
      "v": 110
    },
    {
      "midi": 79,
      "hit": false,
      "t": 3095.2284999999997,
      "d": 233.13419791666684,
      "v": 110
    },
    {
      "midi": 57,
      "hit": false,
      "t": 3333.323,
      "d": 233.13419791666684,
      "v": 110
    },
    {
      "midi": 64,
      "hit": false,
      "t": 3333.323,
      "d": 233.13419791666684,
      "v": 110
    },
    {
      "midi": 69,
      "hit": false,
      "t": 3333.323,
      "d": 233.13419791666684,
      "v": 110
    },
    {
      "midi": 72,
      "hit": false,
      "t": 3333.323,
      "d": 233.13419791666684,
      "v": 110
    },
    {
      "midi": 79,
      "hit": false,
      "t": 3333.323,
      "d": 233.13419791666684,
      "v": 110
    },
    {
      "midi": 67,
      "hit": false,
      "t": 3571.4175,
      "d": 233.13419791666684,
      "v": 110
    },
    {
      "midi": 72,
      "hit": false,
      "t": 3571.4175,
      "d": 233.13419791666684,
      "v": 110
    },
    {
      "midi": 55,
      "hit": false,
      "t": 3809.512,
      "d": 396.82416666666677,
      "v": 110
    },
    {
      "midi": 59,
      "hit": false,
      "t": 3809.512,
      "d": 396.82416666666677,
      "v": 110
    },
    {
      "midi": 62,
      "hit": false,
      "t": 3809.512,
      "d": 396.82416666666677,
      "v": 110
    },
    {
      "midi": 67,
      "hit": false,
      "t": 3809.512,
      "d": 396.82416666666677,
      "v": 110
    },
    {
      "midi": 72,
      "hit": false,
      "t": 3809.512,
      "d": 396.82416666666677,
      "v": 110
    },
    {
      "midi": 55,
      "hit": false,
      "t": 4285.701,
      "d": 233.13419791666638,
      "v": 110
    },
    {
      "midi": 59,
      "hit": false,
      "t": 4285.701,
      "d": 233.13419791666638,
      "v": 110
    },
    {
      "midi": 62,
      "hit": false,
      "t": 4285.701,
      "d": 233.13419791666638,
      "v": 110
    },
    {
      "midi": 67,
      "hit": false,
      "t": 4285.701,
      "d": 233.13419791666638,
      "v": 110
    },
    {
      "midi": 72,
      "hit": false,
      "t": 4285.701,
      "d": 233.13419791666638,
      "v": 110
    },
    {
      "midi": 55,
      "hit": false,
      "t": 4523.7955,
      "d": 471.22869791666653,
      "v": 110
    },
    {
      "midi": 59,
      "hit": false,
      "t": 4523.7955,
      "d": 471.22869791666653,
      "v": 110
    },
    {
      "midi": 62,
      "hit": false,
      "t": 4523.7955,
      "d": 471.22869791666653,
      "v": 110
    },
    {
      "midi": 67,
      "hit": false,
      "t": 4523.7955,
      "d": 471.22869791666653,
      "v": 110
    },
    {
      "midi": 72,
      "hit": false,
      "t": 4523.7955,
      "d": 471.22869791666653,
      "v": 110
    },
    {
      "midi": 79,
      "hit": false,
      "t": 4523.7955,
      "d": 471.22869791666653,
      "v": 110
    },
    {
      "midi": 55,
      "hit": false,
      "t": 4999.9845000000005,
      "d": 233.13419791666638,
      "v": 110
    },
    {
      "midi": 59,
      "hit": false,
      "t": 4999.9845000000005,
      "d": 233.13419791666638,
      "v": 110
    },
    {
      "midi": 62,
      "hit": false,
      "t": 4999.9845000000005,
      "d": 233.13419791666638,
      "v": 110
    },
    {
      "midi": 67,
      "hit": false,
      "t": 4999.9845000000005,
      "d": 233.13419791666638,
      "v": 110
    },
    {
      "midi": 72,
      "hit": false,
      "t": 4999.9845000000005,
      "d": 233.13419791666638,
      "v": 110
    },
    {
      "midi": 79,
      "hit": false,
      "t": 4999.9845000000005,
      "d": 233.13419791666638,
      "v": 110
    },
    {
      "midi": 55,
      "hit": false,
      "t": 5238.079000000001,
      "d": 396.8241666666663,
      "v": 110
    },
    {
      "midi": 59,
      "hit": false,
      "t": 5238.079000000001,
      "d": 396.8241666666663,
      "v": 110
    },
    {
      "midi": 62,
      "hit": false,
      "t": 5238.079000000001,
      "d": 396.8241666666663,
      "v": 110
    },
    {
      "midi": 67,
      "hit": false,
      "t": 5238.079000000001,
      "d": 396.8241666666663,
      "v": 110
    },
    {
      "midi": 72,
      "hit": false,
      "t": 5238.079000000001,
      "d": 396.8241666666663,
      "v": 110
    },
    {
      "midi": 79,
      "hit": false,
      "t": 5238.079000000001,
      "d": 396.8241666666663,
      "v": 110
    },
    {
      "midi": 53,
      "hit": false,
      "t": 5714.268,
      "d": 233.13419791666638,
      "v": 110
    },
    {
      "midi": 60,
      "hit": false,
      "t": 5714.268,
      "d": 233.13419791666638,
      "v": 110
    },
    {
      "midi": 65,
      "hit": false,
      "t": 5714.268,
      "d": 233.13419791666638,
      "v": 110
    },
    {
      "midi": 69,
      "hit": false,
      "t": 5714.268,
      "d": 233.13419791666638,
      "v": 110
    },
    {
      "midi": 72,
      "hit": false,
      "t": 5714.268,
      "d": 233.13419791666638,
      "v": 110
    },
    {
      "midi": 77,
      "hit": false,
      "t": 5714.268,
      "d": 233.13419791666638,
      "v": 110
    },
    {
      "midi": 53,
      "hit": false,
      "t": 5952.3625,
      "d": 233.13419791666638,
      "v": 110
    },
    {
      "midi": 60,
      "hit": false,
      "t": 5952.3625,
      "d": 233.13419791666638,
      "v": 110
    },
    {
      "midi": 65,
      "hit": false,
      "t": 5952.3625,
      "d": 233.13419791666638,
      "v": 110
    },
    {
      "midi": 69,
      "hit": false,
      "t": 5952.3625,
      "d": 233.13419791666638,
      "v": 110
    },
    {
      "midi": 72,
      "hit": false,
      "t": 5952.3625,
      "d": 233.13419791666638,
      "v": 110
    },
    {
      "midi": 77,
      "hit": false,
      "t": 5952.3625,
      "d": 233.13419791666638,
      "v": 110
    },
    {
      "midi": 53,
      "hit": false,
      "t": 6190.457,
      "d": 233.13419791666638,
      "v": 110
    },
    {
      "midi": 60,
      "hit": false,
      "t": 6190.457,
      "d": 233.13419791666638,
      "v": 110
    },
    {
      "midi": 65,
      "hit": false,
      "t": 6190.457,
      "d": 233.13419791666638,
      "v": 110
    },
    {
      "midi": 69,
      "hit": false,
      "t": 6190.457,
      "d": 233.13419791666638,
      "v": 110
    },
    {
      "midi": 72,
      "hit": false,
      "t": 6190.457,
      "d": 233.13419791666638,
      "v": 110
    },
    {
      "midi": 77,
      "hit": false,
      "t": 6190.457,
      "d": 233.13419791666638,
      "v": 110
    },
    {
      "midi": 53,
      "hit": false,
      "t": 6428.5515000000005,
      "d": 471.22869791666653,
      "v": 110
    },
    {
      "midi": 60,
      "hit": false,
      "t": 6428.5515000000005,
      "d": 471.22869791666653,
      "v": 110
    },
    {
      "midi": 65,
      "hit": false,
      "t": 6428.5515000000005,
      "d": 471.22869791666653,
      "v": 110
    },
    {
      "midi": 69,
      "hit": false,
      "t": 6428.5515000000005,
      "d": 471.22869791666653,
      "v": 110
    },
    {
      "midi": 72,
      "hit": false,
      "t": 6428.5515000000005,
      "d": 471.22869791666653,
      "v": 110
    },
    {
      "midi": 77,
      "hit": false,
      "t": 6428.5515000000005,
      "d": 471.22869791666653,
      "v": 110
    },
    {
      "midi": 53,
      "hit": false,
      "t": 6904.740500000001,
      "d": 233.13419791666638,
      "v": 110
    },
    {
      "midi": 60,
      "hit": false,
      "t": 6904.740500000001,
      "d": 233.13419791666638,
      "v": 110
    },
    {
      "midi": 65,
      "hit": false,
      "t": 6904.740500000001,
      "d": 233.13419791666638,
      "v": 110
    },
    {
      "midi": 69,
      "hit": false,
      "t": 6904.740500000001,
      "d": 233.13419791666638,
      "v": 110
    },
    {
      "midi": 72,
      "hit": false,
      "t": 6904.740500000001,
      "d": 233.13419791666638,
      "v": 110
    },
    {
      "midi": 77,
      "hit": false,
      "t": 6904.740500000001,
      "d": 233.13419791666638,
      "v": 110
    },
    {
      "midi": 53,
      "hit": false,
      "t": 7142.835000000001,
      "d": 233.13419791666638,
      "v": 110
    },
    {
      "midi": 60,
      "hit": false,
      "t": 7142.835000000001,
      "d": 233.13419791666638,
      "v": 110
    },
    {
      "midi": 65,
      "hit": false,
      "t": 7142.835000000001,
      "d": 233.13419791666638,
      "v": 110
    },
    {
      "midi": 69,
      "hit": false,
      "t": 7142.835000000001,
      "d": 233.13419791666638,
      "v": 110
    },
    {
      "midi": 72,
      "hit": false,
      "t": 7142.835000000001,
      "d": 233.13419791666638,
      "v": 110
    },
    {
      "midi": 77,
      "hit": false,
      "t": 7142.835000000001,
      "d": 233.13419791666638,
      "v": 110
    },
    {
      "midi": 67,
      "hit": false,
      "t": 7380.929500000001,
      "d": 233.13419791666638,
      "v": 110
    },
    {
      "midi": 71,
      "hit": false,
      "t": 7380.929500000001,
      "d": 233.13419791666638,
      "v": 110
    },
    {
      "midi": 60,
      "hit": false,
      "t": 7619.024000000001,
      "d": 396.8241666666663,
      "v": 110
    },
    {
      "midi": 64,
      "hit": false,
      "t": 7619.024000000001,
      "d": 396.8241666666663,
      "v": 110
    },
    {
      "midi": 67,
      "hit": false,
      "t": 7619.024000000001,
      "d": 396.8241666666663,
      "v": 110
    },
    {
      "midi": 72,
      "hit": false,
      "t": 7619.024000000001,
      "d": 396.8241666666663,
      "v": 110
    },
    {
      "midi": 60,
      "hit": false,
      "t": 8095.213000000001,
      "d": 233.1341979166673,
      "v": 110
    },
    {
      "midi": 64,
      "hit": false,
      "t": 8095.213000000001,
      "d": 233.1341979166673,
      "v": 110
    },
    {
      "midi": 67,
      "hit": false,
      "t": 8095.213000000001,
      "d": 233.1341979166673,
      "v": 110
    },
    {
      "midi": 72,
      "hit": false,
      "t": 8095.213000000001,
      "d": 233.1341979166673,
      "v": 110
    },
    {
      "midi": 60,
      "hit": false,
      "t": 8333.3075,
      "d": 471.22869791666744,
      "v": 110
    },
    {
      "midi": 64,
      "hit": false,
      "t": 8333.3075,
      "d": 471.22869791666744,
      "v": 110
    },
    {
      "midi": 67,
      "hit": false,
      "t": 8333.3075,
      "d": 471.22869791666744,
      "v": 110
    },
    {
      "midi": 72,
      "hit": false,
      "t": 8333.3075,
      "d": 471.22869791666744,
      "v": 110
    },
    {
      "midi": 79,
      "hit": false,
      "t": 8333.3075,
      "d": 471.22869791666744,
      "v": 110
    },
    {
      "midi": 60,
      "hit": false,
      "t": 8809.496500000001,
      "d": 233.13419791666638,
      "v": 110
    },
    {
      "midi": 64,
      "hit": false,
      "t": 8809.496500000001,
      "d": 233.13419791666638,
      "v": 110
    },
    {
      "midi": 67,
      "hit": false,
      "t": 8809.496500000001,
      "d": 233.13419791666638,
      "v": 110
    },
    {
      "midi": 72,
      "hit": false,
      "t": 8809.496500000001,
      "d": 233.13419791666638,
      "v": 110
    },
    {
      "midi": 79,
      "hit": false,
      "t": 8809.496500000001,
      "d": 233.13419791666638,
      "v": 110
    },
    {
      "midi": 60,
      "hit": false,
      "t": 9047.591,
      "d": 233.13419791666638,
      "v": 110
    },
    {
      "midi": 64,
      "hit": false,
      "t": 9047.591,
      "d": 233.13419791666638,
      "v": 110
    },
    {
      "midi": 67,
      "hit": false,
      "t": 9047.591,
      "d": 233.13419791666638,
      "v": 110
    },
    {
      "midi": 72,
      "hit": false,
      "t": 9047.591,
      "d": 233.13419791666638,
      "v": 110
    },
    {
      "midi": 79,
      "hit": false,
      "t": 9047.591,
      "d": 233.13419791666638,
      "v": 110
    },
    {
      "midi": 67,
      "hit": false,
      "t": 9285.6855,
      "d": 233.13419791666638,
      "v": 110
    },
    {
      "midi": 72,
      "hit": false,
      "t": 9285.6855,
      "d": 233.13419791666638,
      "v": 110
    },
    {
      "midi": 57,
      "hit": false,
      "t": 9523.779999999999,
      "d": 396.8241666666672,
      "v": 110
    },
    {
      "midi": 64,
      "hit": false,
      "t": 9523.779999999999,
      "d": 396.8241666666672,
      "v": 110
    },
    {
      "midi": 69,
      "hit": false,
      "t": 9523.779999999999,
      "d": 396.8241666666672,
      "v": 110
    },
    {
      "midi": 72,
      "hit": false,
      "t": 9523.779999999999,
      "d": 396.8241666666672,
      "v": 110
    },
    {
      "midi": 57,
      "hit": false,
      "t": 9999.969,
      "d": 233.13419791666638,
      "v": 110
    },
    {
      "midi": 64,
      "hit": false,
      "t": 9999.969,
      "d": 233.13419791666638,
      "v": 110
    },
    {
      "midi": 69,
      "hit": false,
      "t": 9999.969,
      "d": 233.13419791666638,
      "v": 110
    },
    {
      "midi": 72,
      "hit": false,
      "t": 9999.969,
      "d": 233.13419791666638,
      "v": 110
    },
    {
      "midi": 57,
      "hit": false,
      "t": 10238.063499999998,
      "d": 471.22869791666744,
      "v": 110
    },
    {
      "midi": 64,
      "hit": false,
      "t": 10238.063499999998,
      "d": 471.22869791666744,
      "v": 110
    },
    {
      "midi": 69,
      "hit": false,
      "t": 10238.063499999998,
      "d": 471.22869791666744,
      "v": 110
    },
    {
      "midi": 72,
      "hit": false,
      "t": 10238.063499999998,
      "d": 471.22869791666744,
      "v": 110
    },
    {
      "midi": 79,
      "hit": false,
      "t": 10238.063499999998,
      "d": 471.22869791666744,
      "v": 110
    },
    {
      "midi": 57,
      "hit": false,
      "t": 10714.252499999999,
      "d": 233.13419791666638,
      "v": 110
    },
    {
      "midi": 64,
      "hit": false,
      "t": 10714.252499999999,
      "d": 233.13419791666638,
      "v": 110
    },
    {
      "midi": 69,
      "hit": false,
      "t": 10714.252499999999,
      "d": 233.13419791666638,
      "v": 110
    },
    {
      "midi": 72,
      "hit": false,
      "t": 10714.252499999999,
      "d": 233.13419791666638,
      "v": 110
    },
    {
      "midi": 79,
      "hit": false,
      "t": 10714.252499999999,
      "d": 233.13419791666638,
      "v": 110
    },
    {
      "midi": 57,
      "hit": false,
      "t": 10952.346999999998,
      "d": 233.13419791666638,
      "v": 110
    },
    {
      "midi": 64,
      "hit": false,
      "t": 10952.346999999998,
      "d": 233.13419791666638,
      "v": 110
    },
    {
      "midi": 69,
      "hit": false,
      "t": 10952.346999999998,
      "d": 233.13419791666638,
      "v": 110
    },
    {
      "midi": 72,
      "hit": false,
      "t": 10952.346999999998,
      "d": 233.13419791666638,
      "v": 110
    },
    {
      "midi": 79,
      "hit": false,
      "t": 10952.346999999998,
      "d": 233.13419791666638,
      "v": 110
    },
    {
      "midi": 67,
      "hit": false,
      "t": 11190.441499999997,
      "d": 233.13419791666638,
      "v": 110
    },
    {
      "midi": 72,
      "hit": false,
      "t": 11190.441499999997,
      "d": 233.13419791666638,
      "v": 110
    },
    {
      "midi": 55,
      "hit": false,
      "t": 11428.535999999996,
      "d": 396.8241666666672,
      "v": 110
    },
    {
      "midi": 59,
      "hit": false,
      "t": 11428.535999999996,
      "d": 396.8241666666672,
      "v": 110
    },
    {
      "midi": 62,
      "hit": false,
      "t": 11428.535999999996,
      "d": 396.8241666666672,
      "v": 110
    },
    {
      "midi": 67,
      "hit": false,
      "t": 11428.535999999996,
      "d": 396.8241666666672,
      "v": 110
    },
    {
      "midi": 72,
      "hit": false,
      "t": 11428.535999999996,
      "d": 396.8241666666672,
      "v": 110
    },
    {
      "midi": 55,
      "hit": false,
      "t": 11904.724999999997,
      "d": 233.13419791666638,
      "v": 110
    },
    {
      "midi": 59,
      "hit": false,
      "t": 11904.724999999997,
      "d": 233.13419791666638,
      "v": 110
    },
    {
      "midi": 62,
      "hit": false,
      "t": 11904.724999999997,
      "d": 233.13419791666638,
      "v": 110
    },
    {
      "midi": 67,
      "hit": false,
      "t": 11904.724999999997,
      "d": 233.13419791666638,
      "v": 110
    },
    {
      "midi": 72,
      "hit": false,
      "t": 11904.724999999997,
      "d": 233.13419791666638,
      "v": 110
    },
    {
      "midi": 55,
      "hit": false,
      "t": 12142.819499999996,
      "d": 471.22869791666744,
      "v": 110
    },
    {
      "midi": 59,
      "hit": false,
      "t": 12142.819499999996,
      "d": 471.22869791666744,
      "v": 110
    },
    {
      "midi": 62,
      "hit": false,
      "t": 12142.819499999996,
      "d": 471.22869791666744,
      "v": 110
    },
    {
      "midi": 67,
      "hit": false,
      "t": 12142.819499999996,
      "d": 471.22869791666744,
      "v": 110
    },
    {
      "midi": 72,
      "hit": false,
      "t": 12142.819499999996,
      "d": 471.22869791666744,
      "v": 110
    },
    {
      "midi": 79,
      "hit": false,
      "t": 12142.819499999996,
      "d": 471.22869791666744,
      "v": 110
    },
    {
      "midi": 55,
      "hit": false,
      "t": 12619.008499999996,
      "d": 233.13419791666638,
      "v": 110
    },
    {
      "midi": 59,
      "hit": false,
      "t": 12619.008499999996,
      "d": 233.13419791666638,
      "v": 110
    },
    {
      "midi": 62,
      "hit": false,
      "t": 12619.008499999996,
      "d": 233.13419791666638,
      "v": 110
    },
    {
      "midi": 67,
      "hit": false,
      "t": 12619.008499999996,
      "d": 233.13419791666638,
      "v": 110
    },
    {
      "midi": 72,
      "hit": false,
      "t": 12619.008499999996,
      "d": 233.13419791666638,
      "v": 110
    },
    {
      "midi": 79,
      "hit": false,
      "t": 12619.008499999996,
      "d": 233.13419791666638,
      "v": 110
    },
    {
      "midi": 55,
      "hit": false,
      "t": 12857.102999999996,
      "d": 396.8241666666672,
      "v": 110
    },
    {
      "midi": 59,
      "hit": false,
      "t": 12857.102999999996,
      "d": 396.8241666666672,
      "v": 110
    },
    {
      "midi": 62,
      "hit": false,
      "t": 12857.102999999996,
      "d": 396.8241666666672,
      "v": 110
    },
    {
      "midi": 67,
      "hit": false,
      "t": 12857.102999999996,
      "d": 396.8241666666672,
      "v": 110
    },
    {
      "midi": 72,
      "hit": false,
      "t": 12857.102999999996,
      "d": 396.8241666666672,
      "v": 110
    },
    {
      "midi": 79,
      "hit": false,
      "t": 12857.102999999996,
      "d": 396.8241666666672,
      "v": 110
    },
    {
      "midi": 53,
      "hit": false,
      "t": 13333.291999999996,
      "d": 233.13419791666638,
      "v": 110
    },
    {
      "midi": 60,
      "hit": false,
      "t": 13333.291999999996,
      "d": 233.13419791666638,
      "v": 110
    },
    {
      "midi": 65,
      "hit": false,
      "t": 13333.291999999996,
      "d": 233.13419791666638,
      "v": 110
    },
    {
      "midi": 69,
      "hit": false,
      "t": 13333.291999999996,
      "d": 233.13419791666638,
      "v": 110
    },
    {
      "midi": 72,
      "hit": false,
      "t": 13333.291999999996,
      "d": 233.13419791666638,
      "v": 110
    },
    {
      "midi": 77,
      "hit": false,
      "t": 13333.291999999996,
      "d": 233.13419791666638,
      "v": 110
    },
    {
      "midi": 53,
      "hit": false,
      "t": 13571.386499999995,
      "d": 233.13419791666638,
      "v": 110
    },
    {
      "midi": 60,
      "hit": false,
      "t": 13571.386499999995,
      "d": 233.13419791666638,
      "v": 110
    },
    {
      "midi": 65,
      "hit": false,
      "t": 13571.386499999995,
      "d": 233.13419791666638,
      "v": 110
    },
    {
      "midi": 69,
      "hit": false,
      "t": 13571.386499999995,
      "d": 233.13419791666638,
      "v": 110
    },
    {
      "midi": 72,
      "hit": false,
      "t": 13571.386499999995,
      "d": 233.13419791666638,
      "v": 110
    },
    {
      "midi": 77,
      "hit": false,
      "t": 13571.386499999995,
      "d": 233.13419791666638,
      "v": 110
    },
    {
      "midi": 53,
      "hit": false,
      "t": 13809.480999999994,
      "d": 233.13419791666638,
      "v": 110
    },
    {
      "midi": 60,
      "hit": false,
      "t": 13809.480999999994,
      "d": 233.13419791666638,
      "v": 110
    },
    {
      "midi": 65,
      "hit": false,
      "t": 13809.480999999994,
      "d": 233.13419791666638,
      "v": 110
    },
    {
      "midi": 69,
      "hit": false,
      "t": 13809.480999999994,
      "d": 233.13419791666638,
      "v": 110
    },
    {
      "midi": 72,
      "hit": false,
      "t": 13809.480999999994,
      "d": 233.13419791666638,
      "v": 110
    },
    {
      "midi": 77,
      "hit": false,
      "t": 13809.480999999994,
      "d": 233.13419791666638,
      "v": 110
    },
    {
      "midi": 53,
      "hit": false,
      "t": 14047.575499999994,
      "d": 471.22869791666744,
      "v": 110
    },
    {
      "midi": 60,
      "hit": false,
      "t": 14047.575499999994,
      "d": 471.22869791666744,
      "v": 110
    },
    {
      "midi": 65,
      "hit": false,
      "t": 14047.575499999994,
      "d": 471.22869791666744,
      "v": 110
    },
    {
      "midi": 69,
      "hit": false,
      "t": 14047.575499999994,
      "d": 471.22869791666744,
      "v": 110
    },
    {
      "midi": 72,
      "hit": false,
      "t": 14047.575499999994,
      "d": 471.22869791666744,
      "v": 110
    },
    {
      "midi": 77,
      "hit": false,
      "t": 14047.575499999994,
      "d": 471.22869791666744,
      "v": 110
    },
    {
      "midi": 53,
      "hit": false,
      "t": 14523.764499999994,
      "d": 233.13419791666638,
      "v": 110
    },
    {
      "midi": 60,
      "hit": false,
      "t": 14523.764499999994,
      "d": 233.13419791666638,
      "v": 110
    },
    {
      "midi": 65,
      "hit": false,
      "t": 14523.764499999994,
      "d": 233.13419791666638,
      "v": 110
    },
    {
      "midi": 69,
      "hit": false,
      "t": 14523.764499999994,
      "d": 233.13419791666638,
      "v": 110
    },
    {
      "midi": 72,
      "hit": false,
      "t": 14523.764499999994,
      "d": 233.13419791666638,
      "v": 110
    },
    {
      "midi": 77,
      "hit": false,
      "t": 14523.764499999994,
      "d": 233.13419791666638,
      "v": 110
    },
    {
      "midi": 53,
      "hit": false,
      "t": 14761.858999999993,
      "d": 233.13419791666638,
      "v": 110
    },
    {
      "midi": 60,
      "hit": false,
      "t": 14761.858999999993,
      "d": 233.13419791666638,
      "v": 110
    },
    {
      "midi": 65,
      "hit": false,
      "t": 14761.858999999993,
      "d": 233.13419791666638,
      "v": 110
    },
    {
      "midi": 69,
      "hit": false,
      "t": 14761.858999999993,
      "d": 233.13419791666638,
      "v": 110
    },
    {
      "midi": 72,
      "hit": false,
      "t": 14761.858999999993,
      "d": 233.13419791666638,
      "v": 110
    },
    {
      "midi": 77,
      "hit": false,
      "t": 14761.858999999993,
      "d": 233.13419791666638,
      "v": 110
    },
    {
      "midi": 67,
      "hit": false,
      "t": 14999.953499999992,
      "d": 233.13419791666638,
      "v": 110
    },
    {
      "midi": 71,
      "hit": false,
      "t": 14999.953499999992,
      "d": 233.13419791666638,
      "v": 110
    },
    {
      "midi": 60,
      "hit": false,
      "t": 15238.047999999992,
      "d": 396.8241666666672,
      "v": 110
    },
    {
      "midi": 64,
      "hit": false,
      "t": 15238.047999999992,
      "d": 396.8241666666672,
      "v": 110
    },
    {
      "midi": 67,
      "hit": false,
      "t": 15238.047999999992,
      "d": 396.8241666666672,
      "v": 110
    },
    {
      "midi": 72,
      "hit": false,
      "t": 15238.047999999992,
      "d": 396.8241666666672,
      "v": 110
    },
    {
      "midi": 60,
      "hit": false,
      "t": 15714.236999999992,
      "d": 233.13419791666638,
      "v": 110
    },
    {
      "midi": 64,
      "hit": false,
      "t": 15714.236999999992,
      "d": 233.13419791666638,
      "v": 110
    },
    {
      "midi": 67,
      "hit": false,
      "t": 15714.236999999992,
      "d": 233.13419791666638,
      "v": 110
    },
    {
      "midi": 72,
      "hit": false,
      "t": 15714.236999999992,
      "d": 233.13419791666638,
      "v": 110
    },
    {
      "midi": 60,
      "hit": false,
      "t": 15952.331499999991,
      "d": 471.2286979166656,
      "v": 110
    },
    {
      "midi": 64,
      "hit": false,
      "t": 15952.331499999991,
      "d": 471.2286979166656,
      "v": 110
    },
    {
      "midi": 67,
      "hit": false,
      "t": 15952.331499999991,
      "d": 471.2286979166656,
      "v": 110
    },
    {
      "midi": 72,
      "hit": false,
      "t": 15952.331499999991,
      "d": 471.2286979166656,
      "v": 110
    },
    {
      "midi": 79,
      "hit": false,
      "t": 15952.331499999991,
      "d": 471.2286979166656,
      "v": 110
    },
    {
      "midi": 60,
      "hit": false,
      "t": 16428.52049999999,
      "d": 233.1341979166682,
      "v": 110
    },
    {
      "midi": 64,
      "hit": false,
      "t": 16428.52049999999,
      "d": 233.1341979166682,
      "v": 110
    },
    {
      "midi": 67,
      "hit": false,
      "t": 16428.52049999999,
      "d": 233.1341979166682,
      "v": 110
    },
    {
      "midi": 72,
      "hit": false,
      "t": 16428.52049999999,
      "d": 233.1341979166682,
      "v": 110
    },
    {
      "midi": 79,
      "hit": false,
      "t": 16428.52049999999,
      "d": 233.1341979166682,
      "v": 110
    },
    {
      "midi": 60,
      "hit": false,
      "t": 16666.614999999994,
      "d": 233.1341979166682,
      "v": 110
    },
    {
      "midi": 64,
      "hit": false,
      "t": 16666.614999999994,
      "d": 233.1341979166682,
      "v": 110
    },
    {
      "midi": 67,
      "hit": false,
      "t": 16666.614999999994,
      "d": 233.1341979166682,
      "v": 110
    },
    {
      "midi": 72,
      "hit": false,
      "t": 16666.614999999994,
      "d": 233.1341979166682,
      "v": 110
    },
    {
      "midi": 79,
      "hit": false,
      "t": 16666.614999999994,
      "d": 233.1341979166682,
      "v": 110
    },
    {
      "midi": 67,
      "hit": false,
      "t": 16904.709499999997,
      "d": 233.1341979166682,
      "v": 110
    },
    {
      "midi": 72,
      "hit": false,
      "t": 16904.709499999997,
      "d": 233.1341979166682,
      "v": 110
    },
    {
      "midi": 57,
      "hit": false,
      "t": 17142.804,
      "d": 396.8241666666654,
      "v": 110
    },
    {
      "midi": 64,
      "hit": false,
      "t": 17142.804,
      "d": 396.8241666666654,
      "v": 110
    },
    {
      "midi": 69,
      "hit": false,
      "t": 17142.804,
      "d": 396.8241666666654,
      "v": 110
    },
    {
      "midi": 72,
      "hit": false,
      "t": 17142.804,
      "d": 396.8241666666654,
      "v": 110
    },
    {
      "midi": 57,
      "hit": false,
      "t": 17618.993,
      "d": 233.1341979166682,
      "v": 110
    },
    {
      "midi": 64,
      "hit": false,
      "t": 17618.993,
      "d": 233.1341979166682,
      "v": 110
    },
    {
      "midi": 69,
      "hit": false,
      "t": 17618.993,
      "d": 233.1341979166682,
      "v": 110
    },
    {
      "midi": 72,
      "hit": false,
      "t": 17618.993,
      "d": 233.1341979166682,
      "v": 110
    },
    {
      "midi": 57,
      "hit": false,
      "t": 17857.0875,
      "d": 471.22869791666744,
      "v": 110
    },
    {
      "midi": 64,
      "hit": false,
      "t": 17857.0875,
      "d": 471.22869791666744,
      "v": 110
    },
    {
      "midi": 69,
      "hit": false,
      "t": 17857.0875,
      "d": 471.22869791666744,
      "v": 110
    },
    {
      "midi": 72,
      "hit": false,
      "t": 17857.0875,
      "d": 471.22869791666744,
      "v": 110
    },
    {
      "midi": 79,
      "hit": false,
      "t": 17857.0875,
      "d": 471.22869791666744,
      "v": 110
    },
    {
      "midi": 57,
      "hit": false,
      "t": 18333.276500000004,
      "d": 233.1341979166682,
      "v": 110
    },
    {
      "midi": 64,
      "hit": false,
      "t": 18333.276500000004,
      "d": 233.1341979166682,
      "v": 110
    },
    {
      "midi": 69,
      "hit": false,
      "t": 18333.276500000004,
      "d": 233.1341979166682,
      "v": 110
    },
    {
      "midi": 72,
      "hit": false,
      "t": 18333.276500000004,
      "d": 233.1341979166682,
      "v": 110
    },
    {
      "midi": 79,
      "hit": false,
      "t": 18333.276500000004,
      "d": 233.1341979166682,
      "v": 110
    },
    {
      "midi": 57,
      "hit": false,
      "t": 18571.371000000006,
      "d": 233.1341979166682,
      "v": 110
    },
    {
      "midi": 64,
      "hit": false,
      "t": 18571.371000000006,
      "d": 233.1341979166682,
      "v": 110
    },
    {
      "midi": 69,
      "hit": false,
      "t": 18571.371000000006,
      "d": 233.1341979166682,
      "v": 110
    },
    {
      "midi": 72,
      "hit": false,
      "t": 18571.371000000006,
      "d": 233.1341979166682,
      "v": 110
    },
    {
      "midi": 79,
      "hit": false,
      "t": 18571.371000000006,
      "d": 233.1341979166682,
      "v": 110
    },
    {
      "midi": 67,
      "hit": false,
      "t": 18809.46550000001,
      "d": 233.1341979166682,
      "v": 110
    },
    {
      "midi": 72,
      "hit": false,
      "t": 18809.46550000001,
      "d": 233.1341979166682,
      "v": 110
    },
    {
      "midi": 55,
      "hit": false,
      "t": 19047.560000000012,
      "d": 396.8241666666654,
      "v": 110
    },
    {
      "midi": 59,
      "hit": false,
      "t": 19047.560000000012,
      "d": 396.8241666666654,
      "v": 110
    },
    {
      "midi": 62,
      "hit": false,
      "t": 19047.560000000012,
      "d": 396.8241666666654,
      "v": 110
    },
    {
      "midi": 67,
      "hit": false,
      "t": 19047.560000000012,
      "d": 396.8241666666654,
      "v": 110
    },
    {
      "midi": 72,
      "hit": false,
      "t": 19047.560000000012,
      "d": 396.8241666666654,
      "v": 110
    },
    {
      "midi": 55,
      "hit": false,
      "t": 19523.74900000001,
      "d": 233.1341979166682,
      "v": 110
    },
    {
      "midi": 59,
      "hit": false,
      "t": 19523.74900000001,
      "d": 233.1341979166682,
      "v": 110
    },
    {
      "midi": 62,
      "hit": false,
      "t": 19523.74900000001,
      "d": 233.1341979166682,
      "v": 110
    },
    {
      "midi": 67,
      "hit": false,
      "t": 19523.74900000001,
      "d": 233.1341979166682,
      "v": 110
    },
    {
      "midi": 72,
      "hit": false,
      "t": 19523.74900000001,
      "d": 233.1341979166682,
      "v": 110
    },
    {
      "midi": 55,
      "hit": false,
      "t": 19761.843500000014,
      "d": 471.22869791666744,
      "v": 110
    },
    {
      "midi": 59,
      "hit": false,
      "t": 19761.843500000014,
      "d": 471.22869791666744,
      "v": 110
    },
    {
      "midi": 62,
      "hit": false,
      "t": 19761.843500000014,
      "d": 471.22869791666744,
      "v": 110
    },
    {
      "midi": 67,
      "hit": false,
      "t": 19761.843500000014,
      "d": 471.22869791666744,
      "v": 110
    },
    {
      "midi": 72,
      "hit": false,
      "t": 19761.843500000014,
      "d": 471.22869791666744,
      "v": 110
    },
    {
      "midi": 79,
      "hit": false,
      "t": 19761.843500000014,
      "d": 471.22869791666744,
      "v": 110
    },
    {
      "midi": 55,
      "hit": false,
      "t": 20238.032500000016,
      "d": 233.1341979166682,
      "v": 110
    },
    {
      "midi": 59,
      "hit": false,
      "t": 20238.032500000016,
      "d": 233.1341979166682,
      "v": 110
    },
    {
      "midi": 62,
      "hit": false,
      "t": 20238.032500000016,
      "d": 233.1341979166682,
      "v": 110
    },
    {
      "midi": 67,
      "hit": false,
      "t": 20238.032500000016,
      "d": 233.1341979166682,
      "v": 110
    },
    {
      "midi": 72,
      "hit": false,
      "t": 20238.032500000016,
      "d": 233.1341979166682,
      "v": 110
    },
    {
      "midi": 79,
      "hit": false,
      "t": 20238.032500000016,
      "d": 233.1341979166682,
      "v": 110
    },
    {
      "midi": 55,
      "hit": false,
      "t": 20476.12700000002,
      "d": 396.8241666666654,
      "v": 110
    },
    {
      "midi": 59,
      "hit": false,
      "t": 20476.12700000002,
      "d": 396.8241666666654,
      "v": 110
    },
    {
      "midi": 62,
      "hit": false,
      "t": 20476.12700000002,
      "d": 396.8241666666654,
      "v": 110
    },
    {
      "midi": 67,
      "hit": false,
      "t": 20476.12700000002,
      "d": 396.8241666666654,
      "v": 110
    },
    {
      "midi": 72,
      "hit": false,
      "t": 20476.12700000002,
      "d": 396.8241666666654,
      "v": 110
    },
    {
      "midi": 79,
      "hit": false,
      "t": 20476.12700000002,
      "d": 396.8241666666654,
      "v": 110
    },
    {
      "midi": 53,
      "hit": false,
      "t": 20952.316000000017,
      "d": 233.1341979166682,
      "v": 110
    },
    {
      "midi": 60,
      "hit": false,
      "t": 20952.316000000017,
      "d": 233.1341979166682,
      "v": 110
    },
    {
      "midi": 65,
      "hit": false,
      "t": 20952.316000000017,
      "d": 233.1341979166682,
      "v": 110
    },
    {
      "midi": 69,
      "hit": false,
      "t": 20952.316000000017,
      "d": 233.1341979166682,
      "v": 110
    },
    {
      "midi": 72,
      "hit": false,
      "t": 20952.316000000017,
      "d": 233.1341979166682,
      "v": 110
    },
    {
      "midi": 77,
      "hit": false,
      "t": 20952.316000000017,
      "d": 233.1341979166682,
      "v": 110
    },
    {
      "midi": 53,
      "hit": false,
      "t": 21190.41050000002,
      "d": 233.1341979166682,
      "v": 110
    },
    {
      "midi": 60,
      "hit": false,
      "t": 21190.41050000002,
      "d": 233.1341979166682,
      "v": 110
    },
    {
      "midi": 65,
      "hit": false,
      "t": 21190.41050000002,
      "d": 233.1341979166682,
      "v": 110
    },
    {
      "midi": 69,
      "hit": false,
      "t": 21190.41050000002,
      "d": 233.1341979166682,
      "v": 110
    },
    {
      "midi": 72,
      "hit": false,
      "t": 21190.41050000002,
      "d": 233.1341979166682,
      "v": 110
    },
    {
      "midi": 77,
      "hit": false,
      "t": 21190.41050000002,
      "d": 233.1341979166682,
      "v": 110
    },
    {
      "midi": 53,
      "hit": false,
      "t": 21428.505000000023,
      "d": 233.1341979166682,
      "v": 110
    },
    {
      "midi": 60,
      "hit": false,
      "t": 21428.505000000023,
      "d": 233.1341979166682,
      "v": 110
    },
    {
      "midi": 65,
      "hit": false,
      "t": 21428.505000000023,
      "d": 233.1341979166682,
      "v": 110
    },
    {
      "midi": 69,
      "hit": false,
      "t": 21428.505000000023,
      "d": 233.1341979166682,
      "v": 110
    },
    {
      "midi": 72,
      "hit": false,
      "t": 21428.505000000023,
      "d": 233.1341979166682,
      "v": 110
    },
    {
      "midi": 77,
      "hit": false,
      "t": 21428.505000000023,
      "d": 233.1341979166682,
      "v": 110
    },
    {
      "midi": 53,
      "hit": false,
      "t": 21666.599500000026,
      "d": 471.22869791666744,
      "v": 110
    },
    {
      "midi": 60,
      "hit": false,
      "t": 21666.599500000026,
      "d": 471.22869791666744,
      "v": 110
    },
    {
      "midi": 65,
      "hit": false,
      "t": 21666.599500000026,
      "d": 471.22869791666744,
      "v": 110
    },
    {
      "midi": 69,
      "hit": false,
      "t": 21666.599500000026,
      "d": 471.22869791666744,
      "v": 110
    },
    {
      "midi": 72,
      "hit": false,
      "t": 21666.599500000026,
      "d": 471.22869791666744,
      "v": 110
    },
    {
      "midi": 77,
      "hit": false,
      "t": 21666.599500000026,
      "d": 471.22869791666744,
      "v": 110
    },
    {
      "midi": 53,
      "hit": false,
      "t": 22142.788500000028,
      "d": 233.1341979166682,
      "v": 110
    },
    {
      "midi": 60,
      "hit": false,
      "t": 22142.788500000028,
      "d": 233.1341979166682,
      "v": 110
    },
    {
      "midi": 65,
      "hit": false,
      "t": 22142.788500000028,
      "d": 233.1341979166682,
      "v": 110
    },
    {
      "midi": 69,
      "hit": false,
      "t": 22142.788500000028,
      "d": 233.1341979166682,
      "v": 110
    },
    {
      "midi": 72,
      "hit": false,
      "t": 22142.788500000028,
      "d": 233.1341979166682,
      "v": 110
    },
    {
      "midi": 77,
      "hit": false,
      "t": 22142.788500000028,
      "d": 233.1341979166682,
      "v": 110
    },
    {
      "midi": 53,
      "hit": false,
      "t": 22380.88300000003,
      "d": 233.1341979166682,
      "v": 110
    },
    {
      "midi": 60,
      "hit": false,
      "t": 22380.88300000003,
      "d": 233.1341979166682,
      "v": 110
    },
    {
      "midi": 65,
      "hit": false,
      "t": 22380.88300000003,
      "d": 233.1341979166682,
      "v": 110
    },
    {
      "midi": 69,
      "hit": false,
      "t": 22380.88300000003,
      "d": 233.1341979166682,
      "v": 110
    },
    {
      "midi": 72,
      "hit": false,
      "t": 22380.88300000003,
      "d": 233.1341979166682,
      "v": 110
    },
    {
      "midi": 77,
      "hit": false,
      "t": 22380.88300000003,
      "d": 233.1341979166682,
      "v": 110
    },
    {
      "midi": 67,
      "hit": false,
      "t": 22618.977500000034,
      "d": 233.1341979166682,
      "v": 110
    },
    {
      "midi": 71,
      "hit": false,
      "t": 22618.977500000034,
      "d": 233.1341979166682,
      "v": 110
    },
    {
      "midi": 60,
      "hit": false,
      "t": 22857.072000000036,
      "d": 396.8241666666654,
      "v": 110
    },
    {
      "midi": 64,
      "hit": false,
      "t": 22857.072000000036,
      "d": 396.8241666666654,
      "v": 110
    },
    {
      "midi": 67,
      "hit": false,
      "t": 22857.072000000036,
      "d": 396.8241666666654,
      "v": 110
    },
    {
      "midi": 72,
      "hit": false,
      "t": 22857.072000000036,
      "d": 396.8241666666654,
      "v": 110
    },
    {
      "midi": 60,
      "hit": false,
      "t": 23333.261000000035,
      "d": 233.1341979166682,
      "v": 110
    },
    {
      "midi": 64,
      "hit": false,
      "t": 23333.261000000035,
      "d": 233.1341979166682,
      "v": 110
    },
    {
      "midi": 67,
      "hit": false,
      "t": 23333.261000000035,
      "d": 233.1341979166682,
      "v": 110
    },
    {
      "midi": 72,
      "hit": false,
      "t": 23333.261000000035,
      "d": 233.1341979166682,
      "v": 110
    },
    {
      "midi": 60,
      "hit": false,
      "t": 23571.355500000038,
      "d": 471.22869791666744,
      "v": 110
    },
    {
      "midi": 64,
      "hit": false,
      "t": 23571.355500000038,
      "d": 471.22869791666744,
      "v": 110
    },
    {
      "midi": 67,
      "hit": false,
      "t": 23571.355500000038,
      "d": 471.22869791666744,
      "v": 110
    },
    {
      "midi": 72,
      "hit": false,
      "t": 23571.355500000038,
      "d": 471.22869791666744,
      "v": 110
    },
    {
      "midi": 79,
      "hit": false,
      "t": 23571.355500000038,
      "d": 471.22869791666744,
      "v": 110
    },
    {
      "midi": 60,
      "hit": false,
      "t": 24047.54450000004,
      "d": 233.1341979166682,
      "v": 110
    },
    {
      "midi": 64,
      "hit": false,
      "t": 24047.54450000004,
      "d": 233.1341979166682,
      "v": 110
    },
    {
      "midi": 67,
      "hit": false,
      "t": 24047.54450000004,
      "d": 233.1341979166682,
      "v": 110
    },
    {
      "midi": 72,
      "hit": false,
      "t": 24047.54450000004,
      "d": 233.1341979166682,
      "v": 110
    },
    {
      "midi": 79,
      "hit": false,
      "t": 24047.54450000004,
      "d": 233.1341979166682,
      "v": 110
    },
    {
      "midi": 60,
      "hit": false,
      "t": 24285.639000000043,
      "d": 233.1341979166682,
      "v": 110
    },
    {
      "midi": 64,
      "hit": false,
      "t": 24285.639000000043,
      "d": 233.1341979166682,
      "v": 110
    },
    {
      "midi": 67,
      "hit": false,
      "t": 24285.639000000043,
      "d": 233.1341979166682,
      "v": 110
    },
    {
      "midi": 72,
      "hit": false,
      "t": 24285.639000000043,
      "d": 233.1341979166682,
      "v": 110
    },
    {
      "midi": 79,
      "hit": false,
      "t": 24285.639000000043,
      "d": 233.1341979166682,
      "v": 110
    },
    {
      "midi": 67,
      "hit": false,
      "t": 24523.733500000046,
      "d": 233.1341979166682,
      "v": 110
    },
    {
      "midi": 72,
      "hit": false,
      "t": 24523.733500000046,
      "d": 233.1341979166682,
      "v": 110
    },
    {
      "midi": 57,
      "hit": false,
      "t": 24761.82800000005,
      "d": 396.8241666666654,
      "v": 110
    },
    {
      "midi": 64,
      "hit": false,
      "t": 24761.82800000005,
      "d": 396.8241666666654,
      "v": 110
    },
    {
      "midi": 69,
      "hit": false,
      "t": 24761.82800000005,
      "d": 396.8241666666654,
      "v": 110
    },
    {
      "midi": 72,
      "hit": false,
      "t": 24761.82800000005,
      "d": 396.8241666666654,
      "v": 110
    },
    {
      "midi": 57,
      "hit": false,
      "t": 25238.017000000047,
      "d": 233.1341979166682,
      "v": 110
    },
    {
      "midi": 64,
      "hit": false,
      "t": 25238.017000000047,
      "d": 233.1341979166682,
      "v": 110
    },
    {
      "midi": 69,
      "hit": false,
      "t": 25238.017000000047,
      "d": 233.1341979166682,
      "v": 110
    },
    {
      "midi": 72,
      "hit": false,
      "t": 25238.017000000047,
      "d": 233.1341979166682,
      "v": 110
    },
    {
      "midi": 57,
      "hit": false,
      "t": 25476.11150000005,
      "d": 471.22869791666744,
      "v": 110
    },
    {
      "midi": 64,
      "hit": false,
      "t": 25476.11150000005,
      "d": 471.22869791666744,
      "v": 110
    },
    {
      "midi": 69,
      "hit": false,
      "t": 25476.11150000005,
      "d": 471.22869791666744,
      "v": 110
    },
    {
      "midi": 72,
      "hit": false,
      "t": 25476.11150000005,
      "d": 471.22869791666744,
      "v": 110
    },
    {
      "midi": 79,
      "hit": false,
      "t": 25476.11150000005,
      "d": 471.22869791666744,
      "v": 110
    },
    {
      "midi": 57,
      "hit": false,
      "t": 25952.300500000052,
      "d": 233.1341979166682,
      "v": 110
    },
    {
      "midi": 64,
      "hit": false,
      "t": 25952.300500000052,
      "d": 233.1341979166682,
      "v": 110
    },
    {
      "midi": 69,
      "hit": false,
      "t": 25952.300500000052,
      "d": 233.1341979166682,
      "v": 110
    },
    {
      "midi": 72,
      "hit": false,
      "t": 25952.300500000052,
      "d": 233.1341979166682,
      "v": 110
    },
    {
      "midi": 79,
      "hit": false,
      "t": 25952.300500000052,
      "d": 233.1341979166682,
      "v": 110
    },
    {
      "midi": 57,
      "hit": false,
      "t": 26190.395000000055,
      "d": 233.1341979166682,
      "v": 110
    },
    {
      "midi": 64,
      "hit": false,
      "t": 26190.395000000055,
      "d": 233.1341979166682,
      "v": 110
    },
    {
      "midi": 69,
      "hit": false,
      "t": 26190.395000000055,
      "d": 233.1341979166682,
      "v": 110
    },
    {
      "midi": 72,
      "hit": false,
      "t": 26190.395000000055,
      "d": 233.1341979166682,
      "v": 110
    },
    {
      "midi": 79,
      "hit": false,
      "t": 26190.395000000055,
      "d": 233.1341979166682,
      "v": 110
    },
    {
      "midi": 67,
      "hit": false,
      "t": 26428.489500000058,
      "d": 233.1341979166682,
      "v": 110
    },
    {
      "midi": 72,
      "hit": false,
      "t": 26428.489500000058,
      "d": 233.1341979166682,
      "v": 110
    },
    {
      "midi": 55,
      "hit": false,
      "t": 26666.58400000006,
      "d": 396.8241666666654,
      "v": 110
    },
    {
      "midi": 59,
      "hit": false,
      "t": 26666.58400000006,
      "d": 396.8241666666654,
      "v": 110
    },
    {
      "midi": 62,
      "hit": false,
      "t": 26666.58400000006,
      "d": 396.8241666666654,
      "v": 110
    },
    {
      "midi": 67,
      "hit": false,
      "t": 26666.58400000006,
      "d": 396.8241666666654,
      "v": 110
    },
    {
      "midi": 72,
      "hit": false,
      "t": 26666.58400000006,
      "d": 396.8241666666654,
      "v": 110
    },
    {
      "midi": 55,
      "hit": false,
      "t": 27142.77300000006,
      "d": 233.1341979166682,
      "v": 110
    },
    {
      "midi": 59,
      "hit": false,
      "t": 27142.77300000006,
      "d": 233.1341979166682,
      "v": 110
    },
    {
      "midi": 62,
      "hit": false,
      "t": 27142.77300000006,
      "d": 233.1341979166682,
      "v": 110
    },
    {
      "midi": 67,
      "hit": false,
      "t": 27142.77300000006,
      "d": 233.1341979166682,
      "v": 110
    },
    {
      "midi": 72,
      "hit": false,
      "t": 27142.77300000006,
      "d": 233.1341979166682,
      "v": 110
    },
    {
      "midi": 55,
      "hit": false,
      "t": 27380.867500000062,
      "d": 471.22869791666744,
      "v": 110
    },
    {
      "midi": 59,
      "hit": false,
      "t": 27380.867500000062,
      "d": 471.22869791666744,
      "v": 110
    },
    {
      "midi": 62,
      "hit": false,
      "t": 27380.867500000062,
      "d": 471.22869791666744,
      "v": 110
    },
    {
      "midi": 67,
      "hit": false,
      "t": 27380.867500000062,
      "d": 471.22869791666744,
      "v": 110
    },
    {
      "midi": 72,
      "hit": false,
      "t": 27380.867500000062,
      "d": 471.22869791666744,
      "v": 110
    },
    {
      "midi": 79,
      "hit": false,
      "t": 27380.867500000062,
      "d": 471.22869791666744,
      "v": 110
    },
    {
      "midi": 55,
      "hit": false,
      "t": 27857.056500000064,
      "d": 233.1341979166682,
      "v": 110
    },
    {
      "midi": 59,
      "hit": false,
      "t": 27857.056500000064,
      "d": 233.1341979166682,
      "v": 110
    },
    {
      "midi": 62,
      "hit": false,
      "t": 27857.056500000064,
      "d": 233.1341979166682,
      "v": 110
    },
    {
      "midi": 67,
      "hit": false,
      "t": 27857.056500000064,
      "d": 233.1341979166682,
      "v": 110
    },
    {
      "midi": 72,
      "hit": false,
      "t": 27857.056500000064,
      "d": 233.1341979166682,
      "v": 110
    },
    {
      "midi": 79,
      "hit": false,
      "t": 27857.056500000064,
      "d": 233.1341979166682,
      "v": 110
    },
    {
      "midi": 55,
      "hit": false,
      "t": 28095.151000000067,
      "d": 396.8241666666654,
      "v": 110
    },
    {
      "midi": 59,
      "hit": false,
      "t": 28095.151000000067,
      "d": 396.8241666666654,
      "v": 110
    },
    {
      "midi": 62,
      "hit": false,
      "t": 28095.151000000067,
      "d": 396.8241666666654,
      "v": 110
    },
    {
      "midi": 67,
      "hit": false,
      "t": 28095.151000000067,
      "d": 396.8241666666654,
      "v": 110
    },
    {
      "midi": 72,
      "hit": false,
      "t": 28095.151000000067,
      "d": 396.8241666666654,
      "v": 110
    },
    {
      "midi": 79,
      "hit": false,
      "t": 28095.151000000067,
      "d": 396.8241666666654,
      "v": 110
    },
    {
      "midi": 53,
      "hit": false,
      "t": 28571.340000000066,
      "d": 233.1341979166682,
      "v": 110
    },
    {
      "midi": 60,
      "hit": false,
      "t": 28571.340000000066,
      "d": 233.1341979166682,
      "v": 110
    },
    {
      "midi": 65,
      "hit": false,
      "t": 28571.340000000066,
      "d": 233.1341979166682,
      "v": 110
    },
    {
      "midi": 69,
      "hit": false,
      "t": 28571.340000000066,
      "d": 233.1341979166682,
      "v": 110
    },
    {
      "midi": 72,
      "hit": false,
      "t": 28571.340000000066,
      "d": 233.1341979166682,
      "v": 110
    },
    {
      "midi": 77,
      "hit": false,
      "t": 28571.340000000066,
      "d": 233.1341979166682,
      "v": 110
    },
    {
      "midi": 53,
      "hit": false,
      "t": 28809.43450000007,
      "d": 233.1341979166682,
      "v": 110
    },
    {
      "midi": 60,
      "hit": false,
      "t": 28809.43450000007,
      "d": 233.1341979166682,
      "v": 110
    },
    {
      "midi": 65,
      "hit": false,
      "t": 28809.43450000007,
      "d": 233.1341979166682,
      "v": 110
    },
    {
      "midi": 69,
      "hit": false,
      "t": 28809.43450000007,
      "d": 233.1341979166682,
      "v": 110
    },
    {
      "midi": 72,
      "hit": false,
      "t": 28809.43450000007,
      "d": 233.1341979166682,
      "v": 110
    },
    {
      "midi": 77,
      "hit": false,
      "t": 28809.43450000007,
      "d": 233.1341979166682,
      "v": 110
    },
    {
      "midi": 53,
      "hit": false,
      "t": 29047.52900000007,
      "d": 233.1341979166682,
      "v": 110
    },
    {
      "midi": 60,
      "hit": false,
      "t": 29047.52900000007,
      "d": 233.1341979166682,
      "v": 110
    },
    {
      "midi": 65,
      "hit": false,
      "t": 29047.52900000007,
      "d": 233.1341979166682,
      "v": 110
    },
    {
      "midi": 69,
      "hit": false,
      "t": 29047.52900000007,
      "d": 233.1341979166682,
      "v": 110
    },
    {
      "midi": 72,
      "hit": false,
      "t": 29047.52900000007,
      "d": 233.1341979166682,
      "v": 110
    },
    {
      "midi": 77,
      "hit": false,
      "t": 29047.52900000007,
      "d": 233.1341979166682,
      "v": 110
    },
    {
      "midi": 53,
      "hit": false,
      "t": 29285.623500000074,
      "d": 471.22869791666744,
      "v": 110
    },
    {
      "midi": 60,
      "hit": false,
      "t": 29285.623500000074,
      "d": 471.22869791666744,
      "v": 110
    },
    {
      "midi": 65,
      "hit": false,
      "t": 29285.623500000074,
      "d": 471.22869791666744,
      "v": 110
    },
    {
      "midi": 69,
      "hit": false,
      "t": 29285.623500000074,
      "d": 471.22869791666744,
      "v": 110
    },
    {
      "midi": 72,
      "hit": false,
      "t": 29285.623500000074,
      "d": 471.22869791666744,
      "v": 110
    },
    {
      "midi": 77,
      "hit": false,
      "t": 29285.623500000074,
      "d": 471.22869791666744,
      "v": 110
    },
    {
      "midi": 53,
      "hit": false,
      "t": 29761.812500000076,
      "d": 233.1341979166682,
      "v": 110
    },
    {
      "midi": 60,
      "hit": false,
      "t": 29761.812500000076,
      "d": 233.1341979166682,
      "v": 110
    },
    {
      "midi": 65,
      "hit": false,
      "t": 29761.812500000076,
      "d": 233.1341979166682,
      "v": 110
    },
    {
      "midi": 69,
      "hit": false,
      "t": 29761.812500000076,
      "d": 233.1341979166682,
      "v": 110
    },
    {
      "midi": 72,
      "hit": false,
      "t": 29761.812500000076,
      "d": 233.1341979166682,
      "v": 110
    },
    {
      "midi": 77,
      "hit": false,
      "t": 29761.812500000076,
      "d": 233.1341979166682,
      "v": 110
    },
    {
      "midi": 53,
      "hit": false,
      "t": 29999.90700000008,
      "d": 233.1341979166682,
      "v": 110
    },
    {
      "midi": 60,
      "hit": false,
      "t": 29999.90700000008,
      "d": 233.1341979166682,
      "v": 110
    },
    {
      "midi": 65,
      "hit": false,
      "t": 29999.90700000008,
      "d": 233.1341979166682,
      "v": 110
    },
    {
      "midi": 69,
      "hit": false,
      "t": 29999.90700000008,
      "d": 233.1341979166682,
      "v": 110
    },
    {
      "midi": 72,
      "hit": false,
      "t": 29999.90700000008,
      "d": 233.1341979166682,
      "v": 110
    },
    {
      "midi": 77,
      "hit": false,
      "t": 29999.90700000008,
      "d": 233.1341979166682,
      "v": 110
    },
    {
      "midi": 67,
      "hit": false,
      "t": 30238.001500000082,
      "d": 233.1341979166682,
      "v": 110
    },
    {
      "midi": 71,
      "hit": false,
      "t": 30238.001500000082,
      "d": 233.1341979166682,
      "v": 110
    },
    {
      "midi": 52,
      "hit": false,
      "t": 30476.096000000085,
      "d": 396.8241666666654,
      "v": 110
    },
    {
      "midi": 59,
      "hit": false,
      "t": 30476.096000000085,
      "d": 396.8241666666654,
      "v": 110
    },
    {
      "midi": 64,
      "hit": false,
      "t": 30476.096000000085,
      "d": 396.8241666666654,
      "v": 110
    },
    {
      "midi": 68,
      "hit": false,
      "t": 30476.096000000085,
      "d": 396.8241666666654,
      "v": 110
    },
    {
      "midi": 71,
      "hit": false,
      "t": 30476.096000000085,
      "d": 396.8241666666654,
      "v": 110
    },
    {
      "midi": 76,
      "hit": false,
      "t": 30476.096000000085,
      "d": 396.8241666666654,
      "v": 110
    },
    {
      "midi": 52,
      "hit": false,
      "t": 30952.285000000084,
      "d": 233.1341979166682,
      "v": 110
    },
    {
      "midi": 59,
      "hit": false,
      "t": 30952.285000000084,
      "d": 233.1341979166682,
      "v": 110
    },
    {
      "midi": 64,
      "hit": false,
      "t": 30952.285000000084,
      "d": 233.1341979166682,
      "v": 110
    },
    {
      "midi": 68,
      "hit": false,
      "t": 30952.285000000084,
      "d": 233.1341979166682,
      "v": 110
    },
    {
      "midi": 71,
      "hit": false,
      "t": 30952.285000000084,
      "d": 233.1341979166682,
      "v": 110
    },
    {
      "midi": 76,
      "hit": false,
      "t": 30952.285000000084,
      "d": 233.1341979166682,
      "v": 110
    },
    {
      "midi": 52,
      "hit": false,
      "t": 31190.379500000086,
      "d": 471.22869791666744,
      "v": 110
    },
    {
      "midi": 59,
      "hit": false,
      "t": 31190.379500000086,
      "d": 471.22869791666744,
      "v": 110
    },
    {
      "midi": 64,
      "hit": false,
      "t": 31190.379500000086,
      "d": 471.22869791666744,
      "v": 110
    },
    {
      "midi": 68,
      "hit": false,
      "t": 31190.379500000086,
      "d": 471.22869791666744,
      "v": 110
    },
    {
      "midi": 71,
      "hit": false,
      "t": 31190.379500000086,
      "d": 471.22869791666744,
      "v": 110
    },
    {
      "midi": 76,
      "hit": false,
      "t": 31190.379500000086,
      "d": 471.22869791666744,
      "v": 110
    },
    {
      "midi": 52,
      "hit": false,
      "t": 31666.56850000009,
      "d": 233.1341979166682,
      "v": 110
    },
    {
      "midi": 59,
      "hit": false,
      "t": 31666.56850000009,
      "d": 233.1341979166682,
      "v": 110
    },
    {
      "midi": 64,
      "hit": false,
      "t": 31666.56850000009,
      "d": 233.1341979166682,
      "v": 110
    },
    {
      "midi": 68,
      "hit": false,
      "t": 31666.56850000009,
      "d": 233.1341979166682,
      "v": 110
    },
    {
      "midi": 71,
      "hit": false,
      "t": 31666.56850000009,
      "d": 233.1341979166682,
      "v": 110
    },
    {
      "midi": 76,
      "hit": false,
      "t": 31666.56850000009,
      "d": 233.1341979166682,
      "v": 110
    },
    {
      "midi": 52,
      "hit": false,
      "t": 31904.66300000009,
      "d": 233.1341979166682,
      "v": 110
    },
    {
      "midi": 59,
      "hit": false,
      "t": 31904.66300000009,
      "d": 233.1341979166682,
      "v": 110
    },
    {
      "midi": 64,
      "hit": false,
      "t": 31904.66300000009,
      "d": 233.1341979166682,
      "v": 110
    },
    {
      "midi": 68,
      "hit": false,
      "t": 31904.66300000009,
      "d": 233.1341979166682,
      "v": 110
    },
    {
      "midi": 71,
      "hit": false,
      "t": 31904.66300000009,
      "d": 233.1341979166682,
      "v": 110
    },
    {
      "midi": 76,
      "hit": false,
      "t": 31904.66300000009,
      "d": 233.1341979166682,
      "v": 110
    },
    {
      "midi": 52,
      "hit": false,
      "t": 32142.757500000094,
      "d": 233.1341979166682,
      "v": 110
    },
    {
      "midi": 59,
      "hit": false,
      "t": 32142.757500000094,
      "d": 233.1341979166682,
      "v": 110
    },
    {
      "midi": 64,
      "hit": false,
      "t": 32142.757500000094,
      "d": 233.1341979166682,
      "v": 110
    },
    {
      "midi": 68,
      "hit": false,
      "t": 32142.757500000094,
      "d": 233.1341979166682,
      "v": 110
    },
    {
      "midi": 71,
      "hit": false,
      "t": 32142.757500000094,
      "d": 233.1341979166682,
      "v": 110
    },
    {
      "midi": 76,
      "hit": false,
      "t": 32142.757500000094,
      "d": 233.1341979166682,
      "v": 110
    },
    {
      "midi": 53,
      "hit": false,
      "t": 32380.852000000097,
      "d": 233.1341979166682,
      "v": 110
    },
    {
      "midi": 60,
      "hit": false,
      "t": 32380.852000000097,
      "d": 233.1341979166682,
      "v": 110
    },
    {
      "midi": 65,
      "hit": false,
      "t": 32380.852000000097,
      "d": 233.1341979166682,
      "v": 110
    },
    {
      "midi": 69,
      "hit": false,
      "t": 32380.852000000097,
      "d": 233.1341979166682,
      "v": 110
    },
    {
      "midi": 72,
      "hit": false,
      "t": 32380.852000000097,
      "d": 233.1341979166682,
      "v": 110
    },
    {
      "midi": 77,
      "hit": false,
      "t": 32380.852000000097,
      "d": 233.1341979166682,
      "v": 110
    },
    {
      "midi": 53,
      "hit": false,
      "t": 32618.9465000001,
      "d": 233.1341979166682,
      "v": 110
    },
    {
      "midi": 60,
      "hit": false,
      "t": 32618.9465000001,
      "d": 233.1341979166682,
      "v": 110
    },
    {
      "midi": 65,
      "hit": false,
      "t": 32618.9465000001,
      "d": 233.1341979166682,
      "v": 110
    },
    {
      "midi": 69,
      "hit": false,
      "t": 32618.9465000001,
      "d": 233.1341979166682,
      "v": 110
    },
    {
      "midi": 72,
      "hit": false,
      "t": 32618.9465000001,
      "d": 233.1341979166682,
      "v": 110
    },
    {
      "midi": 77,
      "hit": false,
      "t": 32618.9465000001,
      "d": 233.1341979166682,
      "v": 110
    },
    {
      "midi": 53,
      "hit": false,
      "t": 32857.0410000001,
      "d": 233.1341979166682,
      "v": 110
    },
    {
      "midi": 60,
      "hit": false,
      "t": 32857.0410000001,
      "d": 233.1341979166682,
      "v": 110
    },
    {
      "midi": 65,
      "hit": false,
      "t": 32857.0410000001,
      "d": 233.1341979166682,
      "v": 110
    },
    {
      "midi": 69,
      "hit": false,
      "t": 32857.0410000001,
      "d": 233.1341979166682,
      "v": 110
    },
    {
      "midi": 72,
      "hit": false,
      "t": 32857.0410000001,
      "d": 233.1341979166682,
      "v": 110
    },
    {
      "midi": 77,
      "hit": false,
      "t": 32857.0410000001,
      "d": 233.1341979166682,
      "v": 110
    },
    {
      "midi": 53,
      "hit": false,
      "t": 33095.1355000001,
      "d": 471.22869791666744,
      "v": 110
    },
    {
      "midi": 60,
      "hit": false,
      "t": 33095.1355000001,
      "d": 471.22869791666744,
      "v": 110
    },
    {
      "midi": 65,
      "hit": false,
      "t": 33095.1355000001,
      "d": 471.22869791666744,
      "v": 110
    },
    {
      "midi": 69,
      "hit": false,
      "t": 33095.1355000001,
      "d": 471.22869791666744,
      "v": 110
    },
    {
      "midi": 72,
      "hit": false,
      "t": 33095.1355000001,
      "d": 471.22869791666744,
      "v": 110
    },
    {
      "midi": 77,
      "hit": false,
      "t": 33095.1355000001,
      "d": 471.22869791666744,
      "v": 110
    },
    {
      "midi": 53,
      "hit": false,
      "t": 33571.3245000001,
      "d": 233.1341979166682,
      "v": 110
    },
    {
      "midi": 60,
      "hit": false,
      "t": 33571.3245000001,
      "d": 233.1341979166682,
      "v": 110
    },
    {
      "midi": 65,
      "hit": false,
      "t": 33571.3245000001,
      "d": 233.1341979166682,
      "v": 110
    },
    {
      "midi": 69,
      "hit": false,
      "t": 33571.3245000001,
      "d": 233.1341979166682,
      "v": 110
    },
    {
      "midi": 72,
      "hit": false,
      "t": 33571.3245000001,
      "d": 233.1341979166682,
      "v": 110
    },
    {
      "midi": 77,
      "hit": false,
      "t": 33571.3245000001,
      "d": 233.1341979166682,
      "v": 110
    },
    {
      "midi": 53,
      "hit": false,
      "t": 33809.419000000096,
      "d": 233.1341979166682,
      "v": 110
    },
    {
      "midi": 60,
      "hit": false,
      "t": 33809.419000000096,
      "d": 233.1341979166682,
      "v": 110
    },
    {
      "midi": 65,
      "hit": false,
      "t": 33809.419000000096,
      "d": 233.1341979166682,
      "v": 110
    },
    {
      "midi": 69,
      "hit": false,
      "t": 33809.419000000096,
      "d": 233.1341979166682,
      "v": 110
    },
    {
      "midi": 72,
      "hit": false,
      "t": 33809.419000000096,
      "d": 233.1341979166682,
      "v": 110
    },
    {
      "midi": 77,
      "hit": false,
      "t": 33809.419000000096,
      "d": 233.1341979166682,
      "v": 110
    },
    {
      "midi": 67,
      "hit": false,
      "t": 34047.513500000096,
      "d": 233.1341979166682,
      "v": 110
    },
    {
      "midi": 71,
      "hit": false,
      "t": 34047.513500000096,
      "d": 233.1341979166682,
      "v": 110
    },
    {
      "midi": 60,
      "hit": false,
      "t": 34285.608000000095,
      "d": 396.8241666666654,
      "v": 110
    },
    {
      "midi": 64,
      "hit": false,
      "t": 34285.608000000095,
      "d": 396.8241666666654,
      "v": 110
    },
    {
      "midi": 67,
      "hit": false,
      "t": 34285.608000000095,
      "d": 396.8241666666654,
      "v": 110
    },
    {
      "midi": 72,
      "hit": false,
      "t": 34285.608000000095,
      "d": 396.8241666666654,
      "v": 110
    },
    {
      "midi": 60,
      "hit": false,
      "t": 34761.79700000009,
      "d": 233.1341979166682,
      "v": 110
    },
    {
      "midi": 64,
      "hit": false,
      "t": 34761.79700000009,
      "d": 233.1341979166682,
      "v": 110
    },
    {
      "midi": 67,
      "hit": false,
      "t": 34761.79700000009,
      "d": 233.1341979166682,
      "v": 110
    },
    {
      "midi": 72,
      "hit": false,
      "t": 34761.79700000009,
      "d": 233.1341979166682,
      "v": 110
    },
    {
      "midi": 60,
      "hit": false,
      "t": 34999.89150000009,
      "d": 471.22869791666744,
      "v": 110
    },
    {
      "midi": 64,
      "hit": false,
      "t": 34999.89150000009,
      "d": 471.22869791666744,
      "v": 110
    },
    {
      "midi": 67,
      "hit": false,
      "t": 34999.89150000009,
      "d": 471.22869791666744,
      "v": 110
    },
    {
      "midi": 72,
      "hit": false,
      "t": 34999.89150000009,
      "d": 471.22869791666744,
      "v": 110
    },
    {
      "midi": 79,
      "hit": false,
      "t": 34999.89150000009,
      "d": 471.22869791666744,
      "v": 110
    },
    {
      "midi": 60,
      "hit": false,
      "t": 35476.08050000009,
      "d": 233.1341979166682,
      "v": 110
    },
    {
      "midi": 64,
      "hit": false,
      "t": 35476.08050000009,
      "d": 233.1341979166682,
      "v": 110
    },
    {
      "midi": 67,
      "hit": false,
      "t": 35476.08050000009,
      "d": 233.1341979166682,
      "v": 110
    },
    {
      "midi": 72,
      "hit": false,
      "t": 35476.08050000009,
      "d": 233.1341979166682,
      "v": 110
    },
    {
      "midi": 79,
      "hit": false,
      "t": 35476.08050000009,
      "d": 233.1341979166682,
      "v": 110
    },
    {
      "midi": 60,
      "hit": false,
      "t": 35714.17500000009,
      "d": 233.1341979166682,
      "v": 110
    },
    {
      "midi": 64,
      "hit": false,
      "t": 35714.17500000009,
      "d": 233.1341979166682,
      "v": 110
    },
    {
      "midi": 67,
      "hit": false,
      "t": 35714.17500000009,
      "d": 233.1341979166682,
      "v": 110
    },
    {
      "midi": 72,
      "hit": false,
      "t": 35714.17500000009,
      "d": 233.1341979166682,
      "v": 110
    },
    {
      "midi": 79,
      "hit": false,
      "t": 35714.17500000009,
      "d": 233.1341979166682,
      "v": 110
    },
    {
      "midi": 67,
      "hit": false,
      "t": 35952.26950000009,
      "d": 233.1341979166682,
      "v": 110
    },
    {
      "midi": 60,
      "hit": false,
      "t": 36190.36400000009,
      "d": 233.1341979166682,
      "v": 110
    },
    {
      "midi": 64,
      "hit": false,
      "t": 36190.36400000009,
      "d": 233.1341979166682,
      "v": 110
    },
    {
      "midi": 70,
      "hit": false,
      "t": 36190.36400000009,
      "d": 233.1341979166682,
      "v": 110
    },
    {
      "midi": 72,
      "hit": false,
      "t": 36190.36400000009,
      "d": 233.1341979166682,
      "v": 110
    },
    {
      "midi": 60,
      "hit": false,
      "t": 36428.45850000009,
      "d": 233.1341979166682,
      "v": 110
    },
    {
      "midi": 64,
      "hit": false,
      "t": 36428.45850000009,
      "d": 233.1341979166682,
      "v": 110
    },
    {
      "midi": 70,
      "hit": false,
      "t": 36428.45850000009,
      "d": 233.1341979166682,
      "v": 110
    },
    {
      "midi": 72,
      "hit": false,
      "t": 36428.45850000009,
      "d": 233.1341979166682,
      "v": 110
    },
    {
      "midi": 60,
      "hit": false,
      "t": 36666.55300000009,
      "d": 233.1341979166682,
      "v": 110
    },
    {
      "midi": 64,
      "hit": false,
      "t": 36666.55300000009,
      "d": 233.1341979166682,
      "v": 110
    },
    {
      "midi": 70,
      "hit": false,
      "t": 36666.55300000009,
      "d": 233.1341979166682,
      "v": 110
    },
    {
      "midi": 72,
      "hit": false,
      "t": 36666.55300000009,
      "d": 233.1341979166682,
      "v": 110
    },
    {
      "midi": 60,
      "hit": false,
      "t": 36904.64750000009,
      "d": 471.22869791666744,
      "v": 110
    },
    {
      "midi": 64,
      "hit": false,
      "t": 36904.64750000009,
      "d": 471.22869791666744,
      "v": 110
    },
    {
      "midi": 70,
      "hit": false,
      "t": 36904.64750000009,
      "d": 471.22869791666744,
      "v": 110
    },
    {
      "midi": 72,
      "hit": false,
      "t": 36904.64750000009,
      "d": 471.22869791666744,
      "v": 110
    },
    {
      "midi": 60,
      "hit": false,
      "t": 37380.836500000085,
      "d": 233.1341979166682,
      "v": 110
    },
    {
      "midi": 64,
      "hit": false,
      "t": 37380.836500000085,
      "d": 233.1341979166682,
      "v": 110
    },
    {
      "midi": 70,
      "hit": false,
      "t": 37380.836500000085,
      "d": 233.1341979166682,
      "v": 110
    },
    {
      "midi": 72,
      "hit": false,
      "t": 37380.836500000085,
      "d": 233.1341979166682,
      "v": 110
    },
    {
      "midi": 60,
      "hit": false,
      "t": 37618.931000000084,
      "d": 233.1341979166682,
      "v": 110
    },
    {
      "midi": 64,
      "hit": false,
      "t": 37618.931000000084,
      "d": 233.1341979166682,
      "v": 110
    },
    {
      "midi": 70,
      "hit": false,
      "t": 37618.931000000084,
      "d": 233.1341979166682,
      "v": 110
    },
    {
      "midi": 72,
      "hit": false,
      "t": 37618.931000000084,
      "d": 233.1341979166682,
      "v": 110
    },
    {
      "midi": 71,
      "hit": false,
      "t": 37857.02550000008,
      "d": 233.1341979166682,
      "v": 110
    },
    {
      "midi": 76,
      "hit": false,
      "t": 37857.02550000008,
      "d": 233.1341979166682,
      "v": 110
    },
    {
      "midi": 52,
      "hit": false,
      "t": 38095.12000000008,
      "d": 396.8241666666654,
      "v": 110
    },
    {
      "midi": 59,
      "hit": false,
      "t": 38095.12000000008,
      "d": 396.8241666666654,
      "v": 110
    },
    {
      "midi": 64,
      "hit": false,
      "t": 38095.12000000008,
      "d": 396.8241666666654,
      "v": 110
    },
    {
      "midi": 68,
      "hit": false,
      "t": 38095.12000000008,
      "d": 396.8241666666654,
      "v": 110
    },
    {
      "midi": 71,
      "hit": false,
      "t": 38095.12000000008,
      "d": 396.8241666666654,
      "v": 110
    },
    {
      "midi": 76,
      "hit": false,
      "t": 38095.12000000008,
      "d": 396.8241666666654,
      "v": 110
    },
    {
      "midi": 52,
      "hit": false,
      "t": 38571.30900000008,
      "d": 233.1341979166682,
      "v": 110
    },
    {
      "midi": 59,
      "hit": false,
      "t": 38571.30900000008,
      "d": 233.1341979166682,
      "v": 110
    },
    {
      "midi": 64,
      "hit": false,
      "t": 38571.30900000008,
      "d": 233.1341979166682,
      "v": 110
    },
    {
      "midi": 68,
      "hit": false,
      "t": 38571.30900000008,
      "d": 233.1341979166682,
      "v": 110
    },
    {
      "midi": 71,
      "hit": false,
      "t": 38571.30900000008,
      "d": 233.1341979166682,
      "v": 110
    },
    {
      "midi": 76,
      "hit": false,
      "t": 38571.30900000008,
      "d": 233.1341979166682,
      "v": 110
    },
    {
      "midi": 52,
      "hit": false,
      "t": 38809.40350000008,
      "d": 471.22869791666744,
      "v": 110
    },
    {
      "midi": 59,
      "hit": false,
      "t": 38809.40350000008,
      "d": 471.22869791666744,
      "v": 110
    },
    {
      "midi": 64,
      "hit": false,
      "t": 38809.40350000008,
      "d": 471.22869791666744,
      "v": 110
    },
    {
      "midi": 68,
      "hit": false,
      "t": 38809.40350000008,
      "d": 471.22869791666744,
      "v": 110
    },
    {
      "midi": 71,
      "hit": false,
      "t": 38809.40350000008,
      "d": 471.22869791666744,
      "v": 110
    },
    {
      "midi": 76,
      "hit": false,
      "t": 38809.40350000008,
      "d": 471.22869791666744,
      "v": 110
    },
    {
      "midi": 52,
      "hit": false,
      "t": 39285.59250000008,
      "d": 233.1341979166682,
      "v": 110
    },
    {
      "midi": 59,
      "hit": false,
      "t": 39285.59250000008,
      "d": 233.1341979166682,
      "v": 110
    },
    {
      "midi": 64,
      "hit": false,
      "t": 39285.59250000008,
      "d": 233.1341979166682,
      "v": 110
    },
    {
      "midi": 68,
      "hit": false,
      "t": 39285.59250000008,
      "d": 233.1341979166682,
      "v": 110
    },
    {
      "midi": 71,
      "hit": false,
      "t": 39285.59250000008,
      "d": 233.1341979166682,
      "v": 110
    },
    {
      "midi": 76,
      "hit": false,
      "t": 39285.59250000008,
      "d": 233.1341979166682,
      "v": 110
    },
    {
      "midi": 52,
      "hit": false,
      "t": 39523.68700000008,
      "d": 233.1341979166682,
      "v": 110
    },
    {
      "midi": 59,
      "hit": false,
      "t": 39523.68700000008,
      "d": 233.1341979166682,
      "v": 110
    },
    {
      "midi": 64,
      "hit": false,
      "t": 39523.68700000008,
      "d": 233.1341979166682,
      "v": 110
    },
    {
      "midi": 68,
      "hit": false,
      "t": 39523.68700000008,
      "d": 233.1341979166682,
      "v": 110
    },
    {
      "midi": 71,
      "hit": false,
      "t": 39523.68700000008,
      "d": 233.1341979166682,
      "v": 110
    },
    {
      "midi": 76,
      "hit": false,
      "t": 39523.68700000008,
      "d": 233.1341979166682,
      "v": 110
    },
    {
      "midi": 52,
      "hit": false,
      "t": 39761.78150000008,
      "d": 233.1341979166682,
      "v": 110
    },
    {
      "midi": 59,
      "hit": false,
      "t": 39761.78150000008,
      "d": 233.1341979166682,
      "v": 110
    },
    {
      "midi": 64,
      "hit": false,
      "t": 39761.78150000008,
      "d": 233.1341979166682,
      "v": 110
    },
    {
      "midi": 68,
      "hit": false,
      "t": 39761.78150000008,
      "d": 233.1341979166682,
      "v": 110
    },
    {
      "midi": 71,
      "hit": false,
      "t": 39761.78150000008,
      "d": 233.1341979166682,
      "v": 110
    },
    {
      "midi": 76,
      "hit": false,
      "t": 39761.78150000008,
      "d": 233.1341979166682,
      "v": 110
    },
    {
      "midi": 53,
      "hit": false,
      "t": 39999.87600000008,
      "d": 233.1341979166682,
      "v": 110
    },
    {
      "midi": 60,
      "hit": false,
      "t": 39999.87600000008,
      "d": 233.1341979166682,
      "v": 110
    },
    {
      "midi": 65,
      "hit": false,
      "t": 39999.87600000008,
      "d": 233.1341979166682,
      "v": 110
    },
    {
      "midi": 69,
      "hit": false,
      "t": 39999.87600000008,
      "d": 233.1341979166682,
      "v": 110
    },
    {
      "midi": 72,
      "hit": false,
      "t": 39999.87600000008,
      "d": 233.1341979166682,
      "v": 110
    },
    {
      "midi": 77,
      "hit": false,
      "t": 39999.87600000008,
      "d": 233.1341979166682,
      "v": 110
    },
    {
      "midi": 53,
      "hit": false,
      "t": 40237.970500000076,
      "d": 233.1341979166682,
      "v": 110
    },
    {
      "midi": 60,
      "hit": false,
      "t": 40237.970500000076,
      "d": 233.1341979166682,
      "v": 110
    },
    {
      "midi": 65,
      "hit": false,
      "t": 40237.970500000076,
      "d": 233.1341979166682,
      "v": 110
    },
    {
      "midi": 69,
      "hit": false,
      "t": 40237.970500000076,
      "d": 233.1341979166682,
      "v": 110
    },
    {
      "midi": 72,
      "hit": false,
      "t": 40237.970500000076,
      "d": 233.1341979166682,
      "v": 110
    },
    {
      "midi": 77,
      "hit": false,
      "t": 40237.970500000076,
      "d": 233.1341979166682,
      "v": 110
    },
    {
      "midi": 53,
      "hit": false,
      "t": 40476.065000000075,
      "d": 233.1341979166682,
      "v": 110
    },
    {
      "midi": 60,
      "hit": false,
      "t": 40476.065000000075,
      "d": 233.1341979166682,
      "v": 110
    },
    {
      "midi": 65,
      "hit": false,
      "t": 40476.065000000075,
      "d": 233.1341979166682,
      "v": 110
    },
    {
      "midi": 69,
      "hit": false,
      "t": 40476.065000000075,
      "d": 233.1341979166682,
      "v": 110
    },
    {
      "midi": 72,
      "hit": false,
      "t": 40476.065000000075,
      "d": 233.1341979166682,
      "v": 110
    },
    {
      "midi": 77,
      "hit": false,
      "t": 40476.065000000075,
      "d": 233.1341979166682,
      "v": 110
    },
    {
      "midi": 53,
      "hit": false,
      "t": 40714.159500000074,
      "d": 471.22869791666744,
      "v": 110
    },
    {
      "midi": 60,
      "hit": false,
      "t": 40714.159500000074,
      "d": 471.22869791666744,
      "v": 110
    },
    {
      "midi": 65,
      "hit": false,
      "t": 40714.159500000074,
      "d": 471.22869791666744,
      "v": 110
    },
    {
      "midi": 69,
      "hit": false,
      "t": 40714.159500000074,
      "d": 471.22869791666744,
      "v": 110
    },
    {
      "midi": 72,
      "hit": false,
      "t": 40714.159500000074,
      "d": 471.22869791666744,
      "v": 110
    },
    {
      "midi": 77,
      "hit": false,
      "t": 40714.159500000074,
      "d": 471.22869791666744,
      "v": 110
    },
    {
      "midi": 53,
      "hit": false,
      "t": 41190.34850000007,
      "d": 233.1341979166682,
      "v": 110
    },
    {
      "midi": 60,
      "hit": false,
      "t": 41190.34850000007,
      "d": 233.1341979166682,
      "v": 110
    },
    {
      "midi": 65,
      "hit": false,
      "t": 41190.34850000007,
      "d": 233.1341979166682,
      "v": 110
    },
    {
      "midi": 69,
      "hit": false,
      "t": 41190.34850000007,
      "d": 233.1341979166682,
      "v": 110
    },
    {
      "midi": 72,
      "hit": false,
      "t": 41190.34850000007,
      "d": 233.1341979166682,
      "v": 110
    },
    {
      "midi": 77,
      "hit": false,
      "t": 41190.34850000007,
      "d": 233.1341979166682,
      "v": 110
    },
    {
      "midi": 53,
      "hit": false,
      "t": 41428.44300000007,
      "d": 233.1341979166682,
      "v": 110
    },
    {
      "midi": 60,
      "hit": false,
      "t": 41428.44300000007,
      "d": 233.1341979166682,
      "v": 110
    },
    {
      "midi": 65,
      "hit": false,
      "t": 41428.44300000007,
      "d": 233.1341979166682,
      "v": 110
    },
    {
      "midi": 69,
      "hit": false,
      "t": 41428.44300000007,
      "d": 233.1341979166682,
      "v": 110
    },
    {
      "midi": 72,
      "hit": false,
      "t": 41428.44300000007,
      "d": 233.1341979166682,
      "v": 110
    },
    {
      "midi": 77,
      "hit": false,
      "t": 41428.44300000007,
      "d": 233.1341979166682,
      "v": 110
    },
    {
      "midi": 67,
      "hit": false,
      "t": 41666.53750000007,
      "d": 233.1341979166682,
      "v": 110
    },
    {
      "midi": 71,
      "hit": false,
      "t": 41666.53750000007,
      "d": 233.1341979166682,
      "v": 110
    },
    {
      "midi": 53,
      "hit": false,
      "t": 41904.63200000007,
      "d": 396.8241666666654,
      "v": 110
    },
    {
      "midi": 60,
      "hit": false,
      "t": 41904.63200000007,
      "d": 396.8241666666654,
      "v": 110
    },
    {
      "midi": 65,
      "hit": false,
      "t": 41904.63200000007,
      "d": 396.8241666666654,
      "v": 110
    },
    {
      "midi": 69,
      "hit": false,
      "t": 41904.63200000007,
      "d": 396.8241666666654,
      "v": 110
    },
    {
      "midi": 72,
      "hit": false,
      "t": 41904.63200000007,
      "d": 396.8241666666654,
      "v": 110
    },
    {
      "midi": 77,
      "hit": false,
      "t": 41904.63200000007,
      "d": 396.8241666666654,
      "v": 110
    },
    {
      "midi": 53,
      "hit": false,
      "t": 42380.82100000007,
      "d": 233.1341979166682,
      "v": 110
    },
    {
      "midi": 60,
      "hit": false,
      "t": 42380.82100000007,
      "d": 233.1341979166682,
      "v": 110
    },
    {
      "midi": 65,
      "hit": false,
      "t": 42380.82100000007,
      "d": 233.1341979166682,
      "v": 110
    },
    {
      "midi": 69,
      "hit": false,
      "t": 42380.82100000007,
      "d": 233.1341979166682,
      "v": 110
    },
    {
      "midi": 72,
      "hit": false,
      "t": 42380.82100000007,
      "d": 233.1341979166682,
      "v": 110
    },
    {
      "midi": 77,
      "hit": false,
      "t": 42380.82100000007,
      "d": 233.1341979166682,
      "v": 110
    },
    {
      "midi": 53,
      "hit": false,
      "t": 42618.91550000007,
      "d": 471.22869791666744,
      "v": 110
    },
    {
      "midi": 60,
      "hit": false,
      "t": 42618.91550000007,
      "d": 471.22869791666744,
      "v": 110
    },
    {
      "midi": 65,
      "hit": false,
      "t": 42618.91550000007,
      "d": 471.22869791666744,
      "v": 110
    },
    {
      "midi": 69,
      "hit": false,
      "t": 42618.91550000007,
      "d": 471.22869791666744,
      "v": 110
    },
    {
      "midi": 72,
      "hit": false,
      "t": 42618.91550000007,
      "d": 471.22869791666744,
      "v": 110
    },
    {
      "midi": 77,
      "hit": false,
      "t": 42618.91550000007,
      "d": 471.22869791666744,
      "v": 110
    },
    {
      "midi": 53,
      "hit": false,
      "t": 43095.10450000007,
      "d": 233.1341979166682,
      "v": 110
    },
    {
      "midi": 60,
      "hit": false,
      "t": 43095.10450000007,
      "d": 233.1341979166682,
      "v": 110
    },
    {
      "midi": 65,
      "hit": false,
      "t": 43095.10450000007,
      "d": 233.1341979166682,
      "v": 110
    },
    {
      "midi": 69,
      "hit": false,
      "t": 43095.10450000007,
      "d": 233.1341979166682,
      "v": 110
    },
    {
      "midi": 72,
      "hit": false,
      "t": 43095.10450000007,
      "d": 233.1341979166682,
      "v": 110
    },
    {
      "midi": 77,
      "hit": false,
      "t": 43095.10450000007,
      "d": 233.1341979166682,
      "v": 110
    },
    {
      "midi": 53,
      "hit": false,
      "t": 43333.199000000066,
      "d": 233.1341979166682,
      "v": 110
    },
    {
      "midi": 60,
      "hit": false,
      "t": 43333.199000000066,
      "d": 233.1341979166682,
      "v": 110
    },
    {
      "midi": 65,
      "hit": false,
      "t": 43333.199000000066,
      "d": 233.1341979166682,
      "v": 110
    },
    {
      "midi": 69,
      "hit": false,
      "t": 43333.199000000066,
      "d": 233.1341979166682,
      "v": 110
    },
    {
      "midi": 72,
      "hit": false,
      "t": 43333.199000000066,
      "d": 233.1341979166682,
      "v": 110
    },
    {
      "midi": 77,
      "hit": false,
      "t": 43333.199000000066,
      "d": 233.1341979166682,
      "v": 110
    },
    {
      "midi": 71,
      "hit": false,
      "t": 43571.293500000065,
      "d": 233.1341979166682,
      "v": 110
    },
    {
      "midi": 55,
      "hit": false,
      "t": 43809.388000000064,
      "d": 233.1341979166682,
      "v": 110
    },
    {
      "midi": 62,
      "hit": false,
      "t": 43809.388000000064,
      "d": 233.1341979166682,
      "v": 110
    },
    {
      "midi": 67,
      "hit": false,
      "t": 43809.388000000064,
      "d": 233.1341979166682,
      "v": 110
    },
    {
      "midi": 74,
      "hit": false,
      "t": 43809.388000000064,
      "d": 233.1341979166682,
      "v": 110
    },
    {
      "midi": 79,
      "hit": false,
      "t": 43809.388000000064,
      "d": 233.1341979166682,
      "v": 110
    },
    {
      "midi": 55,
      "hit": false,
      "t": 44047.482500000064,
      "d": 233.1341979166682,
      "v": 110
    },
    {
      "midi": 62,
      "hit": false,
      "t": 44047.482500000064,
      "d": 233.1341979166682,
      "v": 110
    },
    {
      "midi": 67,
      "hit": false,
      "t": 44047.482500000064,
      "d": 233.1341979166682,
      "v": 110
    },
    {
      "midi": 74,
      "hit": false,
      "t": 44047.482500000064,
      "d": 233.1341979166682,
      "v": 110
    },
    {
      "midi": 79,
      "hit": false,
      "t": 44047.482500000064,
      "d": 233.1341979166682,
      "v": 110
    },
    {
      "midi": 55,
      "hit": false,
      "t": 44285.57700000006,
      "d": 233.1341979166682,
      "v": 110
    },
    {
      "midi": 62,
      "hit": false,
      "t": 44285.57700000006,
      "d": 233.1341979166682,
      "v": 110
    },
    {
      "midi": 67,
      "hit": false,
      "t": 44285.57700000006,
      "d": 233.1341979166682,
      "v": 110
    },
    {
      "midi": 74,
      "hit": false,
      "t": 44285.57700000006,
      "d": 233.1341979166682,
      "v": 110
    },
    {
      "midi": 79,
      "hit": false,
      "t": 44285.57700000006,
      "d": 233.1341979166682,
      "v": 110
    },
    {
      "midi": 55,
      "hit": false,
      "t": 44523.67150000006,
      "d": 471.22869791666744,
      "v": 110
    },
    {
      "midi": 62,
      "hit": false,
      "t": 44523.67150000006,
      "d": 471.22869791666744,
      "v": 110
    },
    {
      "midi": 67,
      "hit": false,
      "t": 44523.67150000006,
      "d": 471.22869791666744,
      "v": 110
    },
    {
      "midi": 74,
      "hit": false,
      "t": 44523.67150000006,
      "d": 471.22869791666744,
      "v": 110
    },
    {
      "midi": 79,
      "hit": false,
      "t": 44523.67150000006,
      "d": 471.22869791666744,
      "v": 110
    },
    {
      "midi": 55,
      "hit": false,
      "t": 44999.86050000006,
      "d": 233.1341979166682,
      "v": 110
    },
    {
      "midi": 62,
      "hit": false,
      "t": 44999.86050000006,
      "d": 233.1341979166682,
      "v": 110
    },
    {
      "midi": 67,
      "hit": false,
      "t": 44999.86050000006,
      "d": 233.1341979166682,
      "v": 110
    },
    {
      "midi": 74,
      "hit": false,
      "t": 44999.86050000006,
      "d": 233.1341979166682,
      "v": 110
    },
    {
      "midi": 79,
      "hit": false,
      "t": 44999.86050000006,
      "d": 233.1341979166682,
      "v": 110
    },
    {
      "midi": 55,
      "hit": false,
      "t": 45237.95500000006,
      "d": 233.1341979166682,
      "v": 110
    },
    {
      "midi": 62,
      "hit": false,
      "t": 45237.95500000006,
      "d": 233.1341979166682,
      "v": 110
    },
    {
      "midi": 67,
      "hit": false,
      "t": 45237.95500000006,
      "d": 233.1341979166682,
      "v": 110
    },
    {
      "midi": 74,
      "hit": false,
      "t": 45237.95500000006,
      "d": 233.1341979166682,
      "v": 110
    },
    {
      "midi": 79,
      "hit": false,
      "t": 45237.95500000006,
      "d": 233.1341979166682,
      "v": 110
    },
    {
      "midi": 67,
      "hit": false,
      "t": 45476.04950000006,
      "d": 233.1341979166682,
      "v": 110
    },
    {
      "midi": 71,
      "hit": false,
      "t": 45476.04950000006,
      "d": 233.1341979166682,
      "v": 110
    },
    {
      "midi": 60,
      "hit": false,
      "t": 45714.14400000006,
      "d": 396.8241666666654,
      "v": 110
    },
    {
      "midi": 64,
      "hit": false,
      "t": 45714.14400000006,
      "d": 396.8241666666654,
      "v": 110
    },
    {
      "midi": 67,
      "hit": false,
      "t": 45714.14400000006,
      "d": 396.8241666666654,
      "v": 110
    },
    {
      "midi": 72,
      "hit": false,
      "t": 45714.14400000006,
      "d": 396.8241666666654,
      "v": 110
    },
    {
      "midi": 60,
      "hit": false,
      "t": 46190.33300000006,
      "d": 233.1341979166682,
      "v": 110
    },
    {
      "midi": 64,
      "hit": false,
      "t": 46190.33300000006,
      "d": 233.1341979166682,
      "v": 110
    },
    {
      "midi": 67,
      "hit": false,
      "t": 46190.33300000006,
      "d": 233.1341979166682,
      "v": 110
    },
    {
      "midi": 72,
      "hit": false,
      "t": 46190.33300000006,
      "d": 233.1341979166682,
      "v": 110
    },
    {
      "midi": 60,
      "hit": false,
      "t": 46428.427500000056,
      "d": 471.22869791666744,
      "v": 110
    },
    {
      "midi": 64,
      "hit": false,
      "t": 46428.427500000056,
      "d": 471.22869791666744,
      "v": 110
    },
    {
      "midi": 67,
      "hit": false,
      "t": 46428.427500000056,
      "d": 471.22869791666744,
      "v": 110
    },
    {
      "midi": 72,
      "hit": false,
      "t": 46428.427500000056,
      "d": 471.22869791666744,
      "v": 110
    },
    {
      "midi": 79,
      "hit": false,
      "t": 46428.427500000056,
      "d": 471.22869791666744,
      "v": 110
    },
    {
      "midi": 60,
      "hit": false,
      "t": 46904.616500000055,
      "d": 233.1341979166682,
      "v": 110
    },
    {
      "midi": 64,
      "hit": false,
      "t": 46904.616500000055,
      "d": 233.1341979166682,
      "v": 110
    },
    {
      "midi": 67,
      "hit": false,
      "t": 46904.616500000055,
      "d": 233.1341979166682,
      "v": 110
    },
    {
      "midi": 72,
      "hit": false,
      "t": 46904.616500000055,
      "d": 233.1341979166682,
      "v": 110
    },
    {
      "midi": 79,
      "hit": false,
      "t": 46904.616500000055,
      "d": 233.1341979166682,
      "v": 110
    },
    {
      "midi": 60,
      "hit": false,
      "t": 47142.711000000054,
      "d": 233.1341979166682,
      "v": 110
    },
    {
      "midi": 64,
      "hit": false,
      "t": 47142.711000000054,
      "d": 233.1341979166682,
      "v": 110
    },
    {
      "midi": 67,
      "hit": false,
      "t": 47142.711000000054,
      "d": 233.1341979166682,
      "v": 110
    },
    {
      "midi": 72,
      "hit": false,
      "t": 47142.711000000054,
      "d": 233.1341979166682,
      "v": 110
    },
    {
      "midi": 79,
      "hit": false,
      "t": 47142.711000000054,
      "d": 233.1341979166682,
      "v": 110
    },
    {
      "midi": 67,
      "hit": false,
      "t": 47380.80550000005,
      "d": 233.1341979166682,
      "v": 110
    },
    {
      "midi": 72,
      "hit": false,
      "t": 47380.80550000005,
      "d": 233.1341979166682,
      "v": 110
    },
    {
      "midi": 57,
      "hit": false,
      "t": 47618.90000000005,
      "d": 396.8241666666654,
      "v": 110
    },
    {
      "midi": 64,
      "hit": false,
      "t": 47618.90000000005,
      "d": 396.8241666666654,
      "v": 110
    },
    {
      "midi": 69,
      "hit": false,
      "t": 47618.90000000005,
      "d": 396.8241666666654,
      "v": 110
    },
    {
      "midi": 72,
      "hit": false,
      "t": 47618.90000000005,
      "d": 396.8241666666654,
      "v": 110
    },
    {
      "midi": 57,
      "hit": false,
      "t": 48095.08900000005,
      "d": 233.1341979166682,
      "v": 110
    },
    {
      "midi": 64,
      "hit": false,
      "t": 48095.08900000005,
      "d": 233.1341979166682,
      "v": 110
    },
    {
      "midi": 69,
      "hit": false,
      "t": 48095.08900000005,
      "d": 233.1341979166682,
      "v": 110
    },
    {
      "midi": 72,
      "hit": false,
      "t": 48095.08900000005,
      "d": 233.1341979166682,
      "v": 110
    },
    {
      "midi": 57,
      "hit": false,
      "t": 48333.18350000005,
      "d": 471.22869791666744,
      "v": 110
    },
    {
      "midi": 64,
      "hit": false,
      "t": 48333.18350000005,
      "d": 471.22869791666744,
      "v": 110
    },
    {
      "midi": 69,
      "hit": false,
      "t": 48333.18350000005,
      "d": 471.22869791666744,
      "v": 110
    },
    {
      "midi": 72,
      "hit": false,
      "t": 48333.18350000005,
      "d": 471.22869791666744,
      "v": 110
    },
    {
      "midi": 79,
      "hit": false,
      "t": 48333.18350000005,
      "d": 471.22869791666744,
      "v": 110
    },
    {
      "midi": 57,
      "hit": false,
      "t": 48809.37250000005,
      "d": 233.1341979166682,
      "v": 110
    },
    {
      "midi": 64,
      "hit": false,
      "t": 48809.37250000005,
      "d": 233.1341979166682,
      "v": 110
    },
    {
      "midi": 69,
      "hit": false,
      "t": 48809.37250000005,
      "d": 233.1341979166682,
      "v": 110
    },
    {
      "midi": 72,
      "hit": false,
      "t": 48809.37250000005,
      "d": 233.1341979166682,
      "v": 110
    },
    {
      "midi": 79,
      "hit": false,
      "t": 48809.37250000005,
      "d": 233.1341979166682,
      "v": 110
    },
    {
      "midi": 57,
      "hit": false,
      "t": 49047.46700000005,
      "d": 233.1341979166682,
      "v": 110
    },
    {
      "midi": 64,
      "hit": false,
      "t": 49047.46700000005,
      "d": 233.1341979166682,
      "v": 110
    },
    {
      "midi": 69,
      "hit": false,
      "t": 49047.46700000005,
      "d": 233.1341979166682,
      "v": 110
    },
    {
      "midi": 72,
      "hit": false,
      "t": 49047.46700000005,
      "d": 233.1341979166682,
      "v": 110
    },
    {
      "midi": 79,
      "hit": false,
      "t": 49047.46700000005,
      "d": 233.1341979166682,
      "v": 110
    },
    {
      "midi": 67,
      "hit": false,
      "t": 49285.56150000005,
      "d": 233.1341979166682,
      "v": 110
    },
    {
      "midi": 72,
      "hit": false,
      "t": 49285.56150000005,
      "d": 233.1341979166682,
      "v": 110
    },
    {
      "midi": 55,
      "hit": false,
      "t": 49523.656000000046,
      "d": 396.8241666666654,
      "v": 110
    },
    {
      "midi": 59,
      "hit": false,
      "t": 49523.656000000046,
      "d": 396.8241666666654,
      "v": 110
    },
    {
      "midi": 62,
      "hit": false,
      "t": 49523.656000000046,
      "d": 396.8241666666654,
      "v": 110
    },
    {
      "midi": 67,
      "hit": false,
      "t": 49523.656000000046,
      "d": 396.8241666666654,
      "v": 110
    },
    {
      "midi": 72,
      "hit": false,
      "t": 49523.656000000046,
      "d": 396.8241666666654,
      "v": 110
    },
    {
      "midi": 55,
      "hit": false,
      "t": 49999.845000000045,
      "d": 233.1341979166682,
      "v": 110
    },
    {
      "midi": 59,
      "hit": false,
      "t": 49999.845000000045,
      "d": 233.1341979166682,
      "v": 110
    },
    {
      "midi": 62,
      "hit": false,
      "t": 49999.845000000045,
      "d": 233.1341979166682,
      "v": 110
    },
    {
      "midi": 67,
      "hit": false,
      "t": 49999.845000000045,
      "d": 233.1341979166682,
      "v": 110
    },
    {
      "midi": 72,
      "hit": false,
      "t": 49999.845000000045,
      "d": 233.1341979166682,
      "v": 110
    },
    {
      "midi": 55,
      "hit": false,
      "t": 50237.939500000044,
      "d": 471.22869791666744,
      "v": 110
    },
    {
      "midi": 59,
      "hit": false,
      "t": 50237.939500000044,
      "d": 471.22869791666744,
      "v": 110
    },
    {
      "midi": 62,
      "hit": false,
      "t": 50237.939500000044,
      "d": 471.22869791666744,
      "v": 110
    },
    {
      "midi": 67,
      "hit": false,
      "t": 50237.939500000044,
      "d": 471.22869791666744,
      "v": 110
    },
    {
      "midi": 72,
      "hit": false,
      "t": 50237.939500000044,
      "d": 471.22869791666744,
      "v": 110
    },
    {
      "midi": 79,
      "hit": false,
      "t": 50237.939500000044,
      "d": 471.22869791666744,
      "v": 110
    },
    {
      "midi": 55,
      "hit": false,
      "t": 50714.12850000004,
      "d": 233.1341979166682,
      "v": 110
    },
    {
      "midi": 59,
      "hit": false,
      "t": 50714.12850000004,
      "d": 233.1341979166682,
      "v": 110
    },
    {
      "midi": 62,
      "hit": false,
      "t": 50714.12850000004,
      "d": 233.1341979166682,
      "v": 110
    },
    {
      "midi": 67,
      "hit": false,
      "t": 50714.12850000004,
      "d": 233.1341979166682,
      "v": 110
    },
    {
      "midi": 72,
      "hit": false,
      "t": 50714.12850000004,
      "d": 233.1341979166682,
      "v": 110
    },
    {
      "midi": 79,
      "hit": false,
      "t": 50714.12850000004,
      "d": 233.1341979166682,
      "v": 110
    },
    {
      "midi": 55,
      "hit": false,
      "t": 50952.22300000004,
      "d": 396.8241666666654,
      "v": 110
    },
    {
      "midi": 59,
      "hit": false,
      "t": 50952.22300000004,
      "d": 396.8241666666654,
      "v": 110
    },
    {
      "midi": 62,
      "hit": false,
      "t": 50952.22300000004,
      "d": 396.8241666666654,
      "v": 110
    },
    {
      "midi": 67,
      "hit": false,
      "t": 50952.22300000004,
      "d": 396.8241666666654,
      "v": 110
    },
    {
      "midi": 72,
      "hit": false,
      "t": 50952.22300000004,
      "d": 396.8241666666654,
      "v": 110
    },
    {
      "midi": 79,
      "hit": false,
      "t": 50952.22300000004,
      "d": 396.8241666666654,
      "v": 110
    },
    {
      "midi": 53,
      "hit": false,
      "t": 51428.41200000004,
      "d": 233.1341979166682,
      "v": 110
    },
    {
      "midi": 60,
      "hit": false,
      "t": 51428.41200000004,
      "d": 233.1341979166682,
      "v": 110
    },
    {
      "midi": 65,
      "hit": false,
      "t": 51428.41200000004,
      "d": 233.1341979166682,
      "v": 110
    },
    {
      "midi": 69,
      "hit": false,
      "t": 51428.41200000004,
      "d": 233.1341979166682,
      "v": 110
    },
    {
      "midi": 72,
      "hit": false,
      "t": 51428.41200000004,
      "d": 233.1341979166682,
      "v": 110
    },
    {
      "midi": 77,
      "hit": false,
      "t": 51428.41200000004,
      "d": 233.1341979166682,
      "v": 110
    },
    {
      "midi": 53,
      "hit": false,
      "t": 51666.50650000004,
      "d": 233.1341979166682,
      "v": 110
    },
    {
      "midi": 60,
      "hit": false,
      "t": 51666.50650000004,
      "d": 233.1341979166682,
      "v": 110
    },
    {
      "midi": 65,
      "hit": false,
      "t": 51666.50650000004,
      "d": 233.1341979166682,
      "v": 110
    },
    {
      "midi": 69,
      "hit": false,
      "t": 51666.50650000004,
      "d": 233.1341979166682,
      "v": 110
    },
    {
      "midi": 72,
      "hit": false,
      "t": 51666.50650000004,
      "d": 233.1341979166682,
      "v": 110
    },
    {
      "midi": 77,
      "hit": false,
      "t": 51666.50650000004,
      "d": 233.1341979166682,
      "v": 110
    },
    {
      "midi": 53,
      "hit": false,
      "t": 51904.60100000004,
      "d": 233.1341979166682,
      "v": 110
    },
    {
      "midi": 60,
      "hit": false,
      "t": 51904.60100000004,
      "d": 233.1341979166682,
      "v": 110
    },
    {
      "midi": 65,
      "hit": false,
      "t": 51904.60100000004,
      "d": 233.1341979166682,
      "v": 110
    },
    {
      "midi": 69,
      "hit": false,
      "t": 51904.60100000004,
      "d": 233.1341979166682,
      "v": 110
    },
    {
      "midi": 72,
      "hit": false,
      "t": 51904.60100000004,
      "d": 233.1341979166682,
      "v": 110
    },
    {
      "midi": 77,
      "hit": false,
      "t": 51904.60100000004,
      "d": 233.1341979166682,
      "v": 110
    },
    {
      "midi": 53,
      "hit": false,
      "t": 52142.69550000004,
      "d": 471.22869791666744,
      "v": 110
    },
    {
      "midi": 60,
      "hit": false,
      "t": 52142.69550000004,
      "d": 471.22869791666744,
      "v": 110
    },
    {
      "midi": 65,
      "hit": false,
      "t": 52142.69550000004,
      "d": 471.22869791666744,
      "v": 110
    },
    {
      "midi": 69,
      "hit": false,
      "t": 52142.69550000004,
      "d": 471.22869791666744,
      "v": 110
    },
    {
      "midi": 72,
      "hit": false,
      "t": 52142.69550000004,
      "d": 471.22869791666744,
      "v": 110
    },
    {
      "midi": 77,
      "hit": false,
      "t": 52142.69550000004,
      "d": 471.22869791666744,
      "v": 110
    },
    {
      "midi": 53,
      "hit": false,
      "t": 52618.88450000004,
      "d": 233.1341979166682,
      "v": 110
    },
    {
      "midi": 60,
      "hit": false,
      "t": 52618.88450000004,
      "d": 233.1341979166682,
      "v": 110
    },
    {
      "midi": 65,
      "hit": false,
      "t": 52618.88450000004,
      "d": 233.1341979166682,
      "v": 110
    },
    {
      "midi": 69,
      "hit": false,
      "t": 52618.88450000004,
      "d": 233.1341979166682,
      "v": 110
    },
    {
      "midi": 72,
      "hit": false,
      "t": 52618.88450000004,
      "d": 233.1341979166682,
      "v": 110
    },
    {
      "midi": 77,
      "hit": false,
      "t": 52618.88450000004,
      "d": 233.1341979166682,
      "v": 110
    },
    {
      "midi": 53,
      "hit": false,
      "t": 52856.979000000036,
      "d": 233.1341979166682,
      "v": 110
    },
    {
      "midi": 60,
      "hit": false,
      "t": 52856.979000000036,
      "d": 233.1341979166682,
      "v": 110
    },
    {
      "midi": 65,
      "hit": false,
      "t": 52856.979000000036,
      "d": 233.1341979166682,
      "v": 110
    },
    {
      "midi": 69,
      "hit": false,
      "t": 52856.979000000036,
      "d": 233.1341979166682,
      "v": 110
    },
    {
      "midi": 72,
      "hit": false,
      "t": 52856.979000000036,
      "d": 233.1341979166682,
      "v": 110
    },
    {
      "midi": 77,
      "hit": false,
      "t": 52856.979000000036,
      "d": 233.1341979166682,
      "v": 110
    },
    {
      "midi": 67,
      "hit": false,
      "t": 53095.073500000035,
      "d": 233.1341979166682,
      "v": 110
    },
    {
      "midi": 71,
      "hit": false,
      "t": 53095.073500000035,
      "d": 233.1341979166682,
      "v": 110
    },
    {
      "midi": 60,
      "hit": false,
      "t": 53333.168000000034,
      "d": 396.8241666666654,
      "v": 110
    },
    {
      "midi": 64,
      "hit": false,
      "t": 53333.168000000034,
      "d": 396.8241666666654,
      "v": 110
    },
    {
      "midi": 67,
      "hit": false,
      "t": 53333.168000000034,
      "d": 396.8241666666654,
      "v": 110
    },
    {
      "midi": 72,
      "hit": false,
      "t": 53333.168000000034,
      "d": 396.8241666666654,
      "v": 110
    },
    {
      "midi": 60,
      "hit": false,
      "t": 53809.35700000003,
      "d": 233.1341979166682,
      "v": 110
    },
    {
      "midi": 64,
      "hit": false,
      "t": 53809.35700000003,
      "d": 233.1341979166682,
      "v": 110
    },
    {
      "midi": 67,
      "hit": false,
      "t": 53809.35700000003,
      "d": 233.1341979166682,
      "v": 110
    },
    {
      "midi": 72,
      "hit": false,
      "t": 53809.35700000003,
      "d": 233.1341979166682,
      "v": 110
    },
    {
      "midi": 60,
      "hit": false,
      "t": 54047.45150000003,
      "d": 471.22869791666744,
      "v": 110
    },
    {
      "midi": 64,
      "hit": false,
      "t": 54047.45150000003,
      "d": 471.22869791666744,
      "v": 110
    },
    {
      "midi": 67,
      "hit": false,
      "t": 54047.45150000003,
      "d": 471.22869791666744,
      "v": 110
    },
    {
      "midi": 72,
      "hit": false,
      "t": 54047.45150000003,
      "d": 471.22869791666744,
      "v": 110
    },
    {
      "midi": 79,
      "hit": false,
      "t": 54047.45150000003,
      "d": 471.22869791666744,
      "v": 110
    },
    {
      "midi": 60,
      "hit": false,
      "t": 54523.64050000003,
      "d": 233.1341979166682,
      "v": 110
    },
    {
      "midi": 64,
      "hit": false,
      "t": 54523.64050000003,
      "d": 233.1341979166682,
      "v": 110
    },
    {
      "midi": 67,
      "hit": false,
      "t": 54523.64050000003,
      "d": 233.1341979166682,
      "v": 110
    },
    {
      "midi": 72,
      "hit": false,
      "t": 54523.64050000003,
      "d": 233.1341979166682,
      "v": 110
    },
    {
      "midi": 79,
      "hit": false,
      "t": 54523.64050000003,
      "d": 233.1341979166682,
      "v": 110
    },
    {
      "midi": 60,
      "hit": false,
      "t": 54761.73500000003,
      "d": 233.1341979166682,
      "v": 110
    },
    {
      "midi": 64,
      "hit": false,
      "t": 54761.73500000003,
      "d": 233.1341979166682,
      "v": 110
    },
    {
      "midi": 67,
      "hit": false,
      "t": 54761.73500000003,
      "d": 233.1341979166682,
      "v": 110
    },
    {
      "midi": 72,
      "hit": false,
      "t": 54761.73500000003,
      "d": 233.1341979166682,
      "v": 110
    },
    {
      "midi": 79,
      "hit": false,
      "t": 54761.73500000003,
      "d": 233.1341979166682,
      "v": 110
    },
    {
      "midi": 67,
      "hit": false,
      "t": 54999.82950000003,
      "d": 233.1341979166682,
      "v": 110
    },
    {
      "midi": 72,
      "hit": false,
      "t": 54999.82950000003,
      "d": 233.1341979166682,
      "v": 110
    },
    {
      "midi": 55,
      "hit": false,
      "t": 55237.92400000003,
      "d": 396.8241666666654,
      "v": 110
    },
    {
      "midi": 59,
      "hit": false,
      "t": 55237.92400000003,
      "d": 396.8241666666654,
      "v": 110
    },
    {
      "midi": 62,
      "hit": false,
      "t": 55237.92400000003,
      "d": 396.8241666666654,
      "v": 110
    },
    {
      "midi": 67,
      "hit": false,
      "t": 55237.92400000003,
      "d": 396.8241666666654,
      "v": 110
    },
    {
      "midi": 74,
      "hit": false,
      "t": 55237.92400000003,
      "d": 396.8241666666654,
      "v": 110
    },
    {
      "midi": 79,
      "hit": false,
      "t": 55237.92400000003,
      "d": 396.8241666666654,
      "v": 110
    },
    {
      "midi": 55,
      "hit": false,
      "t": 55714.11300000003,
      "d": 233.1341979166682,
      "v": 110
    },
    {
      "midi": 59,
      "hit": false,
      "t": 55714.11300000003,
      "d": 233.1341979166682,
      "v": 110
    },
    {
      "midi": 62,
      "hit": false,
      "t": 55714.11300000003,
      "d": 233.1341979166682,
      "v": 110
    },
    {
      "midi": 67,
      "hit": false,
      "t": 55714.11300000003,
      "d": 233.1341979166682,
      "v": 110
    },
    {
      "midi": 74,
      "hit": false,
      "t": 55714.11300000003,
      "d": 233.1341979166682,
      "v": 110
    },
    {
      "midi": 79,
      "hit": false,
      "t": 55714.11300000003,
      "d": 233.1341979166682,
      "v": 110
    },
    {
      "midi": 67,
      "hit": false,
      "t": 55952.207500000026,
      "d": 233.1341979166682,
      "v": 110
    },
    {
      "midi": 71,
      "hit": false,
      "t": 55952.207500000026,
      "d": 233.1341979166682,
      "v": 110
    },
    {
      "midi": 53,
      "hit": false,
      "t": 56190.302000000025,
      "d": 396.8241666666654,
      "v": 110
    },
    {
      "midi": 60,
      "hit": false,
      "t": 56190.302000000025,
      "d": 396.8241666666654,
      "v": 110
    },
    {
      "midi": 65,
      "hit": false,
      "t": 56190.302000000025,
      "d": 396.8241666666654,
      "v": 110
    },
    {
      "midi": 69,
      "hit": false,
      "t": 56190.302000000025,
      "d": 396.8241666666654,
      "v": 110
    },
    {
      "midi": 72,
      "hit": false,
      "t": 56190.302000000025,
      "d": 396.8241666666654,
      "v": 110
    },
    {
      "midi": 77,
      "hit": false,
      "t": 56190.302000000025,
      "d": 396.8241666666654,
      "v": 110
    },
    {
      "midi": 53,
      "hit": false,
      "t": 56666.49100000002,
      "d": 233.1341979166682,
      "v": 110
    },
    {
      "midi": 60,
      "hit": false,
      "t": 56666.49100000002,
      "d": 233.1341979166682,
      "v": 110
    },
    {
      "midi": 65,
      "hit": false,
      "t": 56666.49100000002,
      "d": 233.1341979166682,
      "v": 110
    },
    {
      "midi": 69,
      "hit": false,
      "t": 56666.49100000002,
      "d": 233.1341979166682,
      "v": 110
    },
    {
      "midi": 72,
      "hit": false,
      "t": 56666.49100000002,
      "d": 233.1341979166682,
      "v": 110
    },
    {
      "midi": 77,
      "hit": false,
      "t": 56666.49100000002,
      "d": 233.1341979166682,
      "v": 110
    },
    {
      "midi": 67,
      "hit": false,
      "t": 56904.58550000002,
      "d": 233.1341979166682,
      "v": 110
    },
    {
      "midi": 71,
      "hit": false,
      "t": 56904.58550000002,
      "d": 233.1341979166682,
      "v": 110
    },
    {
      "midi": 60,
      "hit": false,
      "t": 57142.68000000002,
      "d": 396.8241666666654,
      "v": 110
    },
    {
      "midi": 64,
      "hit": false,
      "t": 57142.68000000002,
      "d": 396.8241666666654,
      "v": 110
    },
    {
      "midi": 67,
      "hit": false,
      "t": 57142.68000000002,
      "d": 396.8241666666654,
      "v": 110
    },
    {
      "midi": 72,
      "hit": false,
      "t": 57142.68000000002,
      "d": 396.8241666666654,
      "v": 110
    },
    {
      "midi": 60,
      "hit": false,
      "t": 57618.86900000002,
      "d": 233.1341979166682,
      "v": 110
    },
    {
      "midi": 64,
      "hit": false,
      "t": 57618.86900000002,
      "d": 233.1341979166682,
      "v": 110
    },
    {
      "midi": 67,
      "hit": false,
      "t": 57618.86900000002,
      "d": 233.1341979166682,
      "v": 110
    },
    {
      "midi": 72,
      "hit": false,
      "t": 57618.86900000002,
      "d": 233.1341979166682,
      "v": 110
    },
    {
      "midi": 60,
      "hit": false,
      "t": 57856.96350000002,
      "d": 471.22869791666744,
      "v": 110
    },
    {
      "midi": 64,
      "hit": false,
      "t": 57856.96350000002,
      "d": 471.22869791666744,
      "v": 110
    },
    {
      "midi": 67,
      "hit": false,
      "t": 57856.96350000002,
      "d": 471.22869791666744,
      "v": 110
    },
    {
      "midi": 72,
      "hit": false,
      "t": 57856.96350000002,
      "d": 471.22869791666744,
      "v": 110
    },
    {
      "midi": 79,
      "hit": false,
      "t": 57856.96350000002,
      "d": 471.22869791666744,
      "v": 110
    },
    {
      "midi": 60,
      "hit": false,
      "t": 58333.15250000002,
      "d": 233.1341979166682,
      "v": 110
    },
    {
      "midi": 64,
      "hit": false,
      "t": 58333.15250000002,
      "d": 233.1341979166682,
      "v": 110
    },
    {
      "midi": 67,
      "hit": false,
      "t": 58333.15250000002,
      "d": 233.1341979166682,
      "v": 110
    },
    {
      "midi": 72,
      "hit": false,
      "t": 58333.15250000002,
      "d": 233.1341979166682,
      "v": 110
    },
    {
      "midi": 79,
      "hit": false,
      "t": 58333.15250000002,
      "d": 233.1341979166682,
      "v": 110
    },
    {
      "midi": 60,
      "hit": false,
      "t": 58571.24700000002,
      "d": 352.1814479166642,
      "v": 110
    },
    {
      "midi": 64,
      "hit": false,
      "t": 58571.24700000002,
      "d": 352.1814479166642,
      "v": 110
    },
    {
      "midi": 67,
      "hit": false,
      "t": 58571.24700000002,
      "d": 352.1814479166642,
      "v": 110
    },
    {
      "midi": 72,
      "hit": false,
      "t": 58571.24700000002,
      "d": 352.1814479166642,
      "v": 110
    },
    {
      "midi": 79,
      "hit": false,
      "t": 58571.24700000002,
      "d": 352.1814479166642,
      "v": 110
    },
    {
      "midi": 72,
      "hit": false,
      "t": 58928.38875000001,
      "d": 114.08694791666494,
      "v": 110
    },
    {
      "midi": 79,
      "hit": false,
      "t": 58928.38875000001,
      "d": 114.08694791666494,
      "v": 110
    },
    {
      "midi": 62,
      "hit": false,
      "t": 59047.43600000001,
      "d": 233.1341979166682,
      "v": 110
    },
    {
      "midi": 67,
      "hit": false,
      "t": 59047.43600000001,
      "d": 233.1341979166682,
      "v": 110
    },
    {
      "midi": 71,
      "hit": false,
      "t": 59047.43600000001,
      "d": 233.1341979166682,
      "v": 110
    },
    {
      "midi": 62,
      "hit": false,
      "t": 59285.53050000001,
      "d": 233.1341979166682,
      "v": 110
    },
    {
      "midi": 67,
      "hit": false,
      "t": 59285.53050000001,
      "d": 233.1341979166682,
      "v": 110
    },
    {
      "midi": 71,
      "hit": false,
      "t": 59285.53050000001,
      "d": 233.1341979166682,
      "v": 110
    },
    {
      "midi": 62,
      "hit": false,
      "t": 59523.62500000001,
      "d": 233.1341979166682,
      "v": 110
    },
    {
      "midi": 67,
      "hit": false,
      "t": 59523.62500000001,
      "d": 233.1341979166682,
      "v": 110
    },
    {
      "midi": 74,
      "hit": false,
      "t": 59523.62500000001,
      "d": 233.1341979166682,
      "v": 110
    },
    {
      "midi": 79,
      "hit": false,
      "t": 59523.62500000001,
      "d": 233.1341979166682,
      "v": 110
    },
    {
      "midi": 62,
      "hit": false,
      "t": 59761.71950000001,
      "d": 233.1341979166682,
      "v": 110
    },
    {
      "midi": 67,
      "hit": false,
      "t": 59761.71950000001,
      "d": 233.1341979166682,
      "v": 110
    },
    {
      "midi": 74,
      "hit": false,
      "t": 59761.71950000001,
      "d": 233.1341979166682,
      "v": 110
    },
    {
      "midi": 79,
      "hit": false,
      "t": 59761.71950000001,
      "d": 233.1341979166682,
      "v": 110
    },
    {
      "midi": 62,
      "hit": false,
      "t": 59999.814000000006,
      "d": 233.1341979166682,
      "v": 110
    },
    {
      "midi": 67,
      "hit": false,
      "t": 59999.814000000006,
      "d": 233.1341979166682,
      "v": 110
    },
    {
      "midi": 74,
      "hit": false,
      "t": 59999.814000000006,
      "d": 233.1341979166682,
      "v": 110
    },
    {
      "midi": 79,
      "hit": false,
      "t": 59999.814000000006,
      "d": 233.1341979166682,
      "v": 110
    },
    {
      "midi": 62,
      "hit": false,
      "t": 60237.908500000005,
      "d": 233.1341979166682,
      "v": 110
    },
    {
      "midi": 67,
      "hit": false,
      "t": 60237.908500000005,
      "d": 233.1341979166682,
      "v": 110
    },
    {
      "midi": 74,
      "hit": false,
      "t": 60237.908500000005,
      "d": 233.1341979166682,
      "v": 110
    },
    {
      "midi": 79,
      "hit": false,
      "t": 60237.908500000005,
      "d": 233.1341979166682,
      "v": 110
    },
    {
      "midi": 62,
      "hit": false,
      "t": 60476.003000000004,
      "d": 233.1341979166682,
      "v": 110
    },
    {
      "midi": 67,
      "hit": false,
      "t": 60476.003000000004,
      "d": 233.1341979166682,
      "v": 110
    },
    {
      "midi": 74,
      "hit": false,
      "t": 60476.003000000004,
      "d": 233.1341979166682,
      "v": 110
    },
    {
      "midi": 79,
      "hit": false,
      "t": 60476.003000000004,
      "d": 233.1341979166682,
      "v": 110
    },
    {
      "midi": 67,
      "hit": false,
      "t": 60714.0975,
      "d": 233.1341979166682,
      "v": 110
    },
    {
      "midi": 74,
      "hit": false,
      "t": 60714.0975,
      "d": 233.1341979166682,
      "v": 110
    },
    {
      "midi": 60,
      "hit": false,
      "t": 60952.192,
      "d": 396.8241666666654,
      "v": 110
    },
    {
      "midi": 64,
      "hit": false,
      "t": 60952.192,
      "d": 396.8241666666654,
      "v": 110
    },
    {
      "midi": 67,
      "hit": false,
      "t": 60952.192,
      "d": 396.8241666666654,
      "v": 110
    },
    {
      "midi": 72,
      "hit": false,
      "t": 60952.192,
      "d": 396.8241666666654,
      "v": 110
    },
    {
      "midi": 60,
      "hit": false,
      "t": 61428.381,
      "d": 233.1341979166682,
      "v": 110
    },
    {
      "midi": 64,
      "hit": false,
      "t": 61428.381,
      "d": 233.1341979166682,
      "v": 110
    },
    {
      "midi": 67,
      "hit": false,
      "t": 61428.381,
      "d": 233.1341979166682,
      "v": 110
    },
    {
      "midi": 72,
      "hit": false,
      "t": 61428.381,
      "d": 233.1341979166682,
      "v": 110
    },
    {
      "midi": 60,
      "hit": false,
      "t": 61666.4755,
      "d": 471.22869791666744,
      "v": 110
    },
    {
      "midi": 64,
      "hit": false,
      "t": 61666.4755,
      "d": 471.22869791666744,
      "v": 110
    },
    {
      "midi": 67,
      "hit": false,
      "t": 61666.4755,
      "d": 471.22869791666744,
      "v": 110
    },
    {
      "midi": 72,
      "hit": false,
      "t": 61666.4755,
      "d": 471.22869791666744,
      "v": 110
    },
    {
      "midi": 79,
      "hit": false,
      "t": 61666.4755,
      "d": 471.22869791666744,
      "v": 110
    },
    {
      "midi": 60,
      "hit": false,
      "t": 62142.6645,
      "d": 233.1341979166682,
      "v": 110
    },
    {
      "midi": 64,
      "hit": false,
      "t": 62142.6645,
      "d": 233.1341979166682,
      "v": 110
    },
    {
      "midi": 67,
      "hit": false,
      "t": 62142.6645,
      "d": 233.1341979166682,
      "v": 110
    },
    {
      "midi": 72,
      "hit": false,
      "t": 62142.6645,
      "d": 233.1341979166682,
      "v": 110
    },
    {
      "midi": 79,
      "hit": false,
      "t": 62142.6645,
      "d": 233.1341979166682,
      "v": 110
    },
    {
      "midi": 60,
      "hit": false,
      "t": 62380.759,
      "d": 233.1341979166682,
      "v": 110
    },
    {
      "midi": 64,
      "hit": false,
      "t": 62380.759,
      "d": 233.1341979166682,
      "v": 110
    },
    {
      "midi": 67,
      "hit": false,
      "t": 62380.759,
      "d": 233.1341979166682,
      "v": 110
    },
    {
      "midi": 72,
      "hit": false,
      "t": 62380.759,
      "d": 233.1341979166682,
      "v": 110
    },
    {
      "midi": 79,
      "hit": false,
      "t": 62380.759,
      "d": 233.1341979166682,
      "v": 110
    },
    {
      "midi": 67,
      "hit": false,
      "t": 62618.8535,
      "d": 233.1341979166682,
      "v": 110
    },
    {
      "midi": 72,
      "hit": false,
      "t": 62618.8535,
      "d": 233.1341979166682,
      "v": 110
    },
    {
      "midi": 57,
      "hit": false,
      "t": 62856.948,
      "d": 396.8241666666654,
      "v": 110
    },
    {
      "midi": 64,
      "hit": false,
      "t": 62856.948,
      "d": 396.8241666666654,
      "v": 110
    },
    {
      "midi": 69,
      "hit": false,
      "t": 62856.948,
      "d": 396.8241666666654,
      "v": 110
    },
    {
      "midi": 72,
      "hit": false,
      "t": 62856.948,
      "d": 396.8241666666654,
      "v": 110
    },
    {
      "midi": 57,
      "hit": false,
      "t": 63333.136999999995,
      "d": 233.1341979166682,
      "v": 110
    },
    {
      "midi": 64,
      "hit": false,
      "t": 63333.136999999995,
      "d": 233.1341979166682,
      "v": 110
    },
    {
      "midi": 69,
      "hit": false,
      "t": 63333.136999999995,
      "d": 233.1341979166682,
      "v": 110
    },
    {
      "midi": 72,
      "hit": false,
      "t": 63333.136999999995,
      "d": 233.1341979166682,
      "v": 110
    },
    {
      "midi": 57,
      "hit": false,
      "t": 63571.231499999994,
      "d": 471.22869791666744,
      "v": 110
    },
    {
      "midi": 64,
      "hit": false,
      "t": 63571.231499999994,
      "d": 471.22869791666744,
      "v": 110
    },
    {
      "midi": 69,
      "hit": false,
      "t": 63571.231499999994,
      "d": 471.22869791666744,
      "v": 110
    },
    {
      "midi": 72,
      "hit": false,
      "t": 63571.231499999994,
      "d": 471.22869791666744,
      "v": 110
    },
    {
      "midi": 79,
      "hit": false,
      "t": 63571.231499999994,
      "d": 471.22869791666744,
      "v": 110
    },
    {
      "midi": 57,
      "hit": false,
      "t": 64047.42049999999,
      "d": 233.1341979166682,
      "v": 110
    },
    {
      "midi": 64,
      "hit": false,
      "t": 64047.42049999999,
      "d": 233.1341979166682,
      "v": 110
    },
    {
      "midi": 69,
      "hit": false,
      "t": 64047.42049999999,
      "d": 233.1341979166682,
      "v": 110
    },
    {
      "midi": 72,
      "hit": false,
      "t": 64047.42049999999,
      "d": 233.1341979166682,
      "v": 110
    },
    {
      "midi": 79,
      "hit": false,
      "t": 64047.42049999999,
      "d": 233.1341979166682,
      "v": 110
    },
    {
      "midi": 57,
      "hit": false,
      "t": 64285.51499999999,
      "d": 233.1341979166682,
      "v": 110
    },
    {
      "midi": 64,
      "hit": false,
      "t": 64285.51499999999,
      "d": 233.1341979166682,
      "v": 110
    },
    {
      "midi": 69,
      "hit": false,
      "t": 64285.51499999999,
      "d": 233.1341979166682,
      "v": 110
    },
    {
      "midi": 72,
      "hit": false,
      "t": 64285.51499999999,
      "d": 233.1341979166682,
      "v": 110
    },
    {
      "midi": 79,
      "hit": false,
      "t": 64285.51499999999,
      "d": 233.1341979166682,
      "v": 110
    },
    {
      "midi": 67,
      "hit": false,
      "t": 64523.60949999999,
      "d": 233.1341979166682,
      "v": 110
    },
    {
      "midi": 72,
      "hit": false,
      "t": 64523.60949999999,
      "d": 233.1341979166682,
      "v": 110
    },
    {
      "midi": 55,
      "hit": false,
      "t": 64761.70399999999,
      "d": 396.8241666666654,
      "v": 110
    },
    {
      "midi": 59,
      "hit": false,
      "t": 64761.70399999999,
      "d": 396.8241666666654,
      "v": 110
    },
    {
      "midi": 62,
      "hit": false,
      "t": 64761.70399999999,
      "d": 396.8241666666654,
      "v": 110
    },
    {
      "midi": 67,
      "hit": false,
      "t": 64761.70399999999,
      "d": 396.8241666666654,
      "v": 110
    },
    {
      "midi": 72,
      "hit": false,
      "t": 64761.70399999999,
      "d": 396.8241666666654,
      "v": 110
    },
    {
      "midi": 55,
      "hit": false,
      "t": 65237.89299999999,
      "d": 233.1341979166682,
      "v": 110
    },
    {
      "midi": 59,
      "hit": false,
      "t": 65237.89299999999,
      "d": 233.1341979166682,
      "v": 110
    },
    {
      "midi": 62,
      "hit": false,
      "t": 65237.89299999999,
      "d": 233.1341979166682,
      "v": 110
    },
    {
      "midi": 67,
      "hit": false,
      "t": 65237.89299999999,
      "d": 233.1341979166682,
      "v": 110
    },
    {
      "midi": 72,
      "hit": false,
      "t": 65237.89299999999,
      "d": 233.1341979166682,
      "v": 110
    },
    {
      "midi": 55,
      "hit": false,
      "t": 65475.98749999999,
      "d": 471.22869791666744,
      "v": 110
    },
    {
      "midi": 59,
      "hit": false,
      "t": 65475.98749999999,
      "d": 471.22869791666744,
      "v": 110
    },
    {
      "midi": 62,
      "hit": false,
      "t": 65475.98749999999,
      "d": 471.22869791666744,
      "v": 110
    },
    {
      "midi": 67,
      "hit": false,
      "t": 65475.98749999999,
      "d": 471.22869791666744,
      "v": 110
    },
    {
      "midi": 72,
      "hit": false,
      "t": 65475.98749999999,
      "d": 471.22869791666744,
      "v": 110
    },
    {
      "midi": 79,
      "hit": false,
      "t": 65475.98749999999,
      "d": 471.22869791666744,
      "v": 110
    },
    {
      "midi": 55,
      "hit": false,
      "t": 65952.17649999999,
      "d": 233.13419791666092,
      "v": 110
    },
    {
      "midi": 59,
      "hit": false,
      "t": 65952.17649999999,
      "d": 233.13419791666092,
      "v": 110
    },
    {
      "midi": 62,
      "hit": false,
      "t": 65952.17649999999,
      "d": 233.13419791666092,
      "v": 110
    },
    {
      "midi": 67,
      "hit": false,
      "t": 65952.17649999999,
      "d": 233.13419791666092,
      "v": 110
    },
    {
      "midi": 72,
      "hit": false,
      "t": 65952.17649999999,
      "d": 233.13419791666092,
      "v": 110
    },
    {
      "midi": 79,
      "hit": false,
      "t": 65952.17649999999,
      "d": 233.13419791666092,
      "v": 110
    },
    {
      "midi": 55,
      "hit": false,
      "t": 66190.27099999998,
      "d": 396.8241666666727,
      "v": 110
    },
    {
      "midi": 59,
      "hit": false,
      "t": 66190.27099999998,
      "d": 396.8241666666727,
      "v": 110
    },
    {
      "midi": 62,
      "hit": false,
      "t": 66190.27099999998,
      "d": 396.8241666666727,
      "v": 110
    },
    {
      "midi": 67,
      "hit": false,
      "t": 66190.27099999998,
      "d": 396.8241666666727,
      "v": 110
    },
    {
      "midi": 72,
      "hit": false,
      "t": 66190.27099999998,
      "d": 396.8241666666727,
      "v": 110
    },
    {
      "midi": 79,
      "hit": false,
      "t": 66190.27099999998,
      "d": 396.8241666666727,
      "v": 110
    },
    {
      "midi": 53,
      "hit": false,
      "t": 66666.45999999999,
      "d": 233.13419791666092,
      "v": 110
    },
    {
      "midi": 60,
      "hit": false,
      "t": 66666.45999999999,
      "d": 233.13419791666092,
      "v": 110
    },
    {
      "midi": 65,
      "hit": false,
      "t": 66666.45999999999,
      "d": 233.13419791666092,
      "v": 110
    },
    {
      "midi": 69,
      "hit": false,
      "t": 66666.45999999999,
      "d": 233.13419791666092,
      "v": 110
    },
    {
      "midi": 72,
      "hit": false,
      "t": 66666.45999999999,
      "d": 233.13419791666092,
      "v": 110
    },
    {
      "midi": 77,
      "hit": false,
      "t": 66666.45999999999,
      "d": 233.13419791666092,
      "v": 110
    },
    {
      "midi": 53,
      "hit": false,
      "t": 66904.55449999998,
      "d": 233.13419791666092,
      "v": 110
    },
    {
      "midi": 60,
      "hit": false,
      "t": 66904.55449999998,
      "d": 233.13419791666092,
      "v": 110
    },
    {
      "midi": 65,
      "hit": false,
      "t": 66904.55449999998,
      "d": 233.13419791666092,
      "v": 110
    },
    {
      "midi": 69,
      "hit": false,
      "t": 66904.55449999998,
      "d": 233.13419791666092,
      "v": 110
    },
    {
      "midi": 72,
      "hit": false,
      "t": 66904.55449999998,
      "d": 233.13419791666092,
      "v": 110
    },
    {
      "midi": 77,
      "hit": false,
      "t": 66904.55449999998,
      "d": 233.13419791666092,
      "v": 110
    },
    {
      "midi": 53,
      "hit": false,
      "t": 67142.64899999998,
      "d": 233.13419791666092,
      "v": 110
    },
    {
      "midi": 60,
      "hit": false,
      "t": 67142.64899999998,
      "d": 233.13419791666092,
      "v": 110
    },
    {
      "midi": 65,
      "hit": false,
      "t": 67142.64899999998,
      "d": 233.13419791666092,
      "v": 110
    },
    {
      "midi": 69,
      "hit": false,
      "t": 67142.64899999998,
      "d": 233.13419791666092,
      "v": 110
    },
    {
      "midi": 72,
      "hit": false,
      "t": 67142.64899999998,
      "d": 233.13419791666092,
      "v": 110
    },
    {
      "midi": 77,
      "hit": false,
      "t": 67142.64899999998,
      "d": 233.13419791666092,
      "v": 110
    },
    {
      "midi": 53,
      "hit": false,
      "t": 67380.74349999997,
      "d": 471.22869791666744,
      "v": 110
    },
    {
      "midi": 60,
      "hit": false,
      "t": 67380.74349999997,
      "d": 471.22869791666744,
      "v": 110
    },
    {
      "midi": 65,
      "hit": false,
      "t": 67380.74349999997,
      "d": 471.22869791666744,
      "v": 110
    },
    {
      "midi": 69,
      "hit": false,
      "t": 67380.74349999997,
      "d": 471.22869791666744,
      "v": 110
    },
    {
      "midi": 72,
      "hit": false,
      "t": 67380.74349999997,
      "d": 471.22869791666744,
      "v": 110
    },
    {
      "midi": 77,
      "hit": false,
      "t": 67380.74349999997,
      "d": 471.22869791666744,
      "v": 110
    },
    {
      "midi": 53,
      "hit": false,
      "t": 67856.93249999997,
      "d": 233.13419791666092,
      "v": 110
    },
    {
      "midi": 60,
      "hit": false,
      "t": 67856.93249999997,
      "d": 233.13419791666092,
      "v": 110
    },
    {
      "midi": 65,
      "hit": false,
      "t": 67856.93249999997,
      "d": 233.13419791666092,
      "v": 110
    },
    {
      "midi": 69,
      "hit": false,
      "t": 67856.93249999997,
      "d": 233.13419791666092,
      "v": 110
    },
    {
      "midi": 72,
      "hit": false,
      "t": 67856.93249999997,
      "d": 233.13419791666092,
      "v": 110
    },
    {
      "midi": 77,
      "hit": false,
      "t": 67856.93249999997,
      "d": 233.13419791666092,
      "v": 110
    },
    {
      "midi": 53,
      "hit": false,
      "t": 68095.02699999996,
      "d": 233.13419791666092,
      "v": 110
    },
    {
      "midi": 60,
      "hit": false,
      "t": 68095.02699999996,
      "d": 233.13419791666092,
      "v": 110
    },
    {
      "midi": 65,
      "hit": false,
      "t": 68095.02699999996,
      "d": 233.13419791666092,
      "v": 110
    },
    {
      "midi": 69,
      "hit": false,
      "t": 68095.02699999996,
      "d": 233.13419791666092,
      "v": 110
    },
    {
      "midi": 72,
      "hit": false,
      "t": 68095.02699999996,
      "d": 233.13419791666092,
      "v": 110
    },
    {
      "midi": 77,
      "hit": false,
      "t": 68095.02699999996,
      "d": 233.13419791666092,
      "v": 110
    },
    {
      "midi": 67,
      "hit": false,
      "t": 68333.12149999995,
      "d": 233.13419791666092,
      "v": 110
    },
    {
      "midi": 71,
      "hit": false,
      "t": 68333.12149999995,
      "d": 233.13419791666092,
      "v": 110
    },
    {
      "midi": 60,
      "hit": false,
      "t": 68571.21599999994,
      "d": 396.8241666666727,
      "v": 110
    },
    {
      "midi": 64,
      "hit": false,
      "t": 68571.21599999994,
      "d": 396.8241666666727,
      "v": 110
    },
    {
      "midi": 67,
      "hit": false,
      "t": 68571.21599999994,
      "d": 396.8241666666727,
      "v": 110
    },
    {
      "midi": 72,
      "hit": false,
      "t": 68571.21599999994,
      "d": 396.8241666666727,
      "v": 110
    },
    {
      "midi": 60,
      "hit": false,
      "t": 69047.40499999996,
      "d": 233.13419791666092,
      "v": 110
    },
    {
      "midi": 64,
      "hit": false,
      "t": 69047.40499999996,
      "d": 233.13419791666092,
      "v": 110
    },
    {
      "midi": 67,
      "hit": false,
      "t": 69047.40499999996,
      "d": 233.13419791666092,
      "v": 110
    },
    {
      "midi": 72,
      "hit": false,
      "t": 69047.40499999996,
      "d": 233.13419791666092,
      "v": 110
    },
    {
      "midi": 60,
      "hit": false,
      "t": 69285.49949999995,
      "d": 471.22869791666744,
      "v": 110
    },
    {
      "midi": 64,
      "hit": false,
      "t": 69285.49949999995,
      "d": 471.22869791666744,
      "v": 110
    },
    {
      "midi": 67,
      "hit": false,
      "t": 69285.49949999995,
      "d": 471.22869791666744,
      "v": 110
    },
    {
      "midi": 72,
      "hit": false,
      "t": 69285.49949999995,
      "d": 471.22869791666744,
      "v": 110
    },
    {
      "midi": 79,
      "hit": false,
      "t": 69285.49949999995,
      "d": 471.22869791666744,
      "v": 110
    },
    {
      "midi": 60,
      "hit": false,
      "t": 69761.68849999995,
      "d": 233.13419791666092,
      "v": 110
    },
    {
      "midi": 64,
      "hit": false,
      "t": 69761.68849999995,
      "d": 233.13419791666092,
      "v": 110
    },
    {
      "midi": 67,
      "hit": false,
      "t": 69761.68849999995,
      "d": 233.13419791666092,
      "v": 110
    },
    {
      "midi": 72,
      "hit": false,
      "t": 69761.68849999995,
      "d": 233.13419791666092,
      "v": 110
    },
    {
      "midi": 79,
      "hit": false,
      "t": 69761.68849999995,
      "d": 233.13419791666092,
      "v": 110
    },
    {
      "midi": 60,
      "hit": false,
      "t": 69999.78299999994,
      "d": 233.13419791666092,
      "v": 110
    },
    {
      "midi": 64,
      "hit": false,
      "t": 69999.78299999994,
      "d": 233.13419791666092,
      "v": 110
    },
    {
      "midi": 67,
      "hit": false,
      "t": 69999.78299999994,
      "d": 233.13419791666092,
      "v": 110
    },
    {
      "midi": 72,
      "hit": false,
      "t": 69999.78299999994,
      "d": 233.13419791666092,
      "v": 110
    },
    {
      "midi": 79,
      "hit": false,
      "t": 69999.78299999994,
      "d": 233.13419791666092,
      "v": 110
    },
    {
      "midi": 67,
      "hit": false,
      "t": 70237.87749999993,
      "d": 233.13419791666092,
      "v": 110
    },
    {
      "midi": 72,
      "hit": false,
      "t": 70237.87749999993,
      "d": 233.13419791666092,
      "v": 110
    },
    {
      "midi": 57,
      "hit": false,
      "t": 70475.97199999992,
      "d": 396.8241666666727,
      "v": 110
    },
    {
      "midi": 64,
      "hit": false,
      "t": 70475.97199999992,
      "d": 396.8241666666727,
      "v": 110
    },
    {
      "midi": 69,
      "hit": false,
      "t": 70475.97199999992,
      "d": 396.8241666666727,
      "v": 110
    },
    {
      "midi": 72,
      "hit": false,
      "t": 70475.97199999992,
      "d": 396.8241666666727,
      "v": 110
    },
    {
      "midi": 57,
      "hit": false,
      "t": 70952.16099999993,
      "d": 233.13419791666092,
      "v": 110
    },
    {
      "midi": 64,
      "hit": false,
      "t": 70952.16099999993,
      "d": 233.13419791666092,
      "v": 110
    },
    {
      "midi": 69,
      "hit": false,
      "t": 70952.16099999993,
      "d": 233.13419791666092,
      "v": 110
    },
    {
      "midi": 72,
      "hit": false,
      "t": 70952.16099999993,
      "d": 233.13419791666092,
      "v": 110
    },
    {
      "midi": 57,
      "hit": false,
      "t": 71190.25549999993,
      "d": 471.22869791666744,
      "v": 110
    },
    {
      "midi": 64,
      "hit": false,
      "t": 71190.25549999993,
      "d": 471.22869791666744,
      "v": 110
    },
    {
      "midi": 69,
      "hit": false,
      "t": 71190.25549999993,
      "d": 471.22869791666744,
      "v": 110
    },
    {
      "midi": 72,
      "hit": false,
      "t": 71190.25549999993,
      "d": 471.22869791666744,
      "v": 110
    },
    {
      "midi": 79,
      "hit": false,
      "t": 71190.25549999993,
      "d": 471.22869791666744,
      "v": 110
    },
    {
      "midi": 57,
      "hit": false,
      "t": 71666.44449999993,
      "d": 233.13419791666092,
      "v": 110
    },
    {
      "midi": 64,
      "hit": false,
      "t": 71666.44449999993,
      "d": 233.13419791666092,
      "v": 110
    },
    {
      "midi": 69,
      "hit": false,
      "t": 71666.44449999993,
      "d": 233.13419791666092,
      "v": 110
    },
    {
      "midi": 72,
      "hit": false,
      "t": 71666.44449999993,
      "d": 233.13419791666092,
      "v": 110
    },
    {
      "midi": 79,
      "hit": false,
      "t": 71666.44449999993,
      "d": 233.13419791666092,
      "v": 110
    },
    {
      "midi": 57,
      "hit": false,
      "t": 71904.53899999992,
      "d": 233.13419791666092,
      "v": 110
    },
    {
      "midi": 64,
      "hit": false,
      "t": 71904.53899999992,
      "d": 233.13419791666092,
      "v": 110
    },
    {
      "midi": 69,
      "hit": false,
      "t": 71904.53899999992,
      "d": 233.13419791666092,
      "v": 110
    },
    {
      "midi": 72,
      "hit": false,
      "t": 71904.53899999992,
      "d": 233.13419791666092,
      "v": 110
    },
    {
      "midi": 79,
      "hit": false,
      "t": 71904.53899999992,
      "d": 233.13419791666092,
      "v": 110
    },
    {
      "midi": 67,
      "hit": false,
      "t": 72142.63349999991,
      "d": 233.13419791666092,
      "v": 110
    },
    {
      "midi": 72,
      "hit": false,
      "t": 72142.63349999991,
      "d": 233.13419791666092,
      "v": 110
    },
    {
      "midi": 55,
      "hit": false,
      "t": 72380.7279999999,
      "d": 396.8241666666727,
      "v": 110
    },
    {
      "midi": 59,
      "hit": false,
      "t": 72380.7279999999,
      "d": 396.8241666666727,
      "v": 110
    },
    {
      "midi": 62,
      "hit": false,
      "t": 72380.7279999999,
      "d": 396.8241666666727,
      "v": 110
    },
    {
      "midi": 67,
      "hit": false,
      "t": 72380.7279999999,
      "d": 396.8241666666727,
      "v": 110
    },
    {
      "midi": 72,
      "hit": false,
      "t": 72380.7279999999,
      "d": 396.8241666666727,
      "v": 110
    },
    {
      "midi": 55,
      "hit": false,
      "t": 72856.91699999991,
      "d": 233.13419791666092,
      "v": 110
    },
    {
      "midi": 59,
      "hit": false,
      "t": 72856.91699999991,
      "d": 233.13419791666092,
      "v": 110
    },
    {
      "midi": 62,
      "hit": false,
      "t": 72856.91699999991,
      "d": 233.13419791666092,
      "v": 110
    },
    {
      "midi": 67,
      "hit": false,
      "t": 72856.91699999991,
      "d": 233.13419791666092,
      "v": 110
    },
    {
      "midi": 72,
      "hit": false,
      "t": 72856.91699999991,
      "d": 233.13419791666092,
      "v": 110
    },
    {
      "midi": 55,
      "hit": false,
      "t": 73095.0114999999,
      "d": 471.22869791666744,
      "v": 110
    },
    {
      "midi": 59,
      "hit": false,
      "t": 73095.0114999999,
      "d": 471.22869791666744,
      "v": 110
    },
    {
      "midi": 62,
      "hit": false,
      "t": 73095.0114999999,
      "d": 471.22869791666744,
      "v": 110
    },
    {
      "midi": 67,
      "hit": false,
      "t": 73095.0114999999,
      "d": 471.22869791666744,
      "v": 110
    },
    {
      "midi": 72,
      "hit": false,
      "t": 73095.0114999999,
      "d": 471.22869791666744,
      "v": 110
    },
    {
      "midi": 79,
      "hit": false,
      "t": 73095.0114999999,
      "d": 471.22869791666744,
      "v": 110
    },
    {
      "midi": 55,
      "hit": false,
      "t": 73571.2004999999,
      "d": 233.13419791666092,
      "v": 110
    },
    {
      "midi": 59,
      "hit": false,
      "t": 73571.2004999999,
      "d": 233.13419791666092,
      "v": 110
    },
    {
      "midi": 62,
      "hit": false,
      "t": 73571.2004999999,
      "d": 233.13419791666092,
      "v": 110
    },
    {
      "midi": 67,
      "hit": false,
      "t": 73571.2004999999,
      "d": 233.13419791666092,
      "v": 110
    },
    {
      "midi": 72,
      "hit": false,
      "t": 73571.2004999999,
      "d": 233.13419791666092,
      "v": 110
    },
    {
      "midi": 79,
      "hit": false,
      "t": 73571.2004999999,
      "d": 233.13419791666092,
      "v": 110
    },
    {
      "midi": 55,
      "hit": false,
      "t": 73809.2949999999,
      "d": 396.8241666666727,
      "v": 110
    },
    {
      "midi": 59,
      "hit": false,
      "t": 73809.2949999999,
      "d": 396.8241666666727,
      "v": 110
    },
    {
      "midi": 62,
      "hit": false,
      "t": 73809.2949999999,
      "d": 396.8241666666727,
      "v": 110
    },
    {
      "midi": 67,
      "hit": false,
      "t": 73809.2949999999,
      "d": 396.8241666666727,
      "v": 110
    },
    {
      "midi": 72,
      "hit": false,
      "t": 73809.2949999999,
      "d": 396.8241666666727,
      "v": 110
    },
    {
      "midi": 79,
      "hit": false,
      "t": 73809.2949999999,
      "d": 396.8241666666727,
      "v": 110
    },
    {
      "midi": 53,
      "hit": false,
      "t": 74285.48399999991,
      "d": 233.13419791666092,
      "v": 110
    },
    {
      "midi": 60,
      "hit": false,
      "t": 74285.48399999991,
      "d": 233.13419791666092,
      "v": 110
    },
    {
      "midi": 65,
      "hit": false,
      "t": 74285.48399999991,
      "d": 233.13419791666092,
      "v": 110
    },
    {
      "midi": 69,
      "hit": false,
      "t": 74285.48399999991,
      "d": 233.13419791666092,
      "v": 110
    },
    {
      "midi": 72,
      "hit": false,
      "t": 74285.48399999991,
      "d": 233.13419791666092,
      "v": 110
    },
    {
      "midi": 77,
      "hit": false,
      "t": 74285.48399999991,
      "d": 233.13419791666092,
      "v": 110
    },
    {
      "midi": 53,
      "hit": false,
      "t": 74523.5784999999,
      "d": 233.13419791666092,
      "v": 110
    },
    {
      "midi": 60,
      "hit": false,
      "t": 74523.5784999999,
      "d": 233.13419791666092,
      "v": 110
    },
    {
      "midi": 65,
      "hit": false,
      "t": 74523.5784999999,
      "d": 233.13419791666092,
      "v": 110
    },
    {
      "midi": 69,
      "hit": false,
      "t": 74523.5784999999,
      "d": 233.13419791666092,
      "v": 110
    },
    {
      "midi": 72,
      "hit": false,
      "t": 74523.5784999999,
      "d": 233.13419791666092,
      "v": 110
    },
    {
      "midi": 77,
      "hit": false,
      "t": 74523.5784999999,
      "d": 233.13419791666092,
      "v": 110
    },
    {
      "midi": 53,
      "hit": false,
      "t": 74761.6729999999,
      "d": 233.13419791666092,
      "v": 110
    },
    {
      "midi": 60,
      "hit": false,
      "t": 74761.6729999999,
      "d": 233.13419791666092,
      "v": 110
    },
    {
      "midi": 65,
      "hit": false,
      "t": 74761.6729999999,
      "d": 233.13419791666092,
      "v": 110
    },
    {
      "midi": 69,
      "hit": false,
      "t": 74761.6729999999,
      "d": 233.13419791666092,
      "v": 110
    },
    {
      "midi": 72,
      "hit": false,
      "t": 74761.6729999999,
      "d": 233.13419791666092,
      "v": 110
    },
    {
      "midi": 77,
      "hit": false,
      "t": 74761.6729999999,
      "d": 233.13419791666092,
      "v": 110
    },
    {
      "midi": 53,
      "hit": false,
      "t": 74999.76749999989,
      "d": 471.22869791666744,
      "v": 110
    },
    {
      "midi": 60,
      "hit": false,
      "t": 74999.76749999989,
      "d": 471.22869791666744,
      "v": 110
    },
    {
      "midi": 65,
      "hit": false,
      "t": 74999.76749999989,
      "d": 471.22869791666744,
      "v": 110
    },
    {
      "midi": 69,
      "hit": false,
      "t": 74999.76749999989,
      "d": 471.22869791666744,
      "v": 110
    },
    {
      "midi": 72,
      "hit": false,
      "t": 74999.76749999989,
      "d": 471.22869791666744,
      "v": 110
    },
    {
      "midi": 77,
      "hit": false,
      "t": 74999.76749999989,
      "d": 471.22869791666744,
      "v": 110
    },
    {
      "midi": 53,
      "hit": false,
      "t": 75475.95649999988,
      "d": 233.13419791666092,
      "v": 110
    },
    {
      "midi": 60,
      "hit": false,
      "t": 75475.95649999988,
      "d": 233.13419791666092,
      "v": 110
    },
    {
      "midi": 65,
      "hit": false,
      "t": 75475.95649999988,
      "d": 233.13419791666092,
      "v": 110
    },
    {
      "midi": 69,
      "hit": false,
      "t": 75475.95649999988,
      "d": 233.13419791666092,
      "v": 110
    },
    {
      "midi": 72,
      "hit": false,
      "t": 75475.95649999988,
      "d": 233.13419791666092,
      "v": 110
    },
    {
      "midi": 77,
      "hit": false,
      "t": 75475.95649999988,
      "d": 233.13419791666092,
      "v": 110
    },
    {
      "midi": 53,
      "hit": false,
      "t": 75714.05099999988,
      "d": 233.13419791666092,
      "v": 110
    },
    {
      "midi": 60,
      "hit": false,
      "t": 75714.05099999988,
      "d": 233.13419791666092,
      "v": 110
    },
    {
      "midi": 65,
      "hit": false,
      "t": 75714.05099999988,
      "d": 233.13419791666092,
      "v": 110
    },
    {
      "midi": 69,
      "hit": false,
      "t": 75714.05099999988,
      "d": 233.13419791666092,
      "v": 110
    },
    {
      "midi": 72,
      "hit": false,
      "t": 75714.05099999988,
      "d": 233.13419791666092,
      "v": 110
    },
    {
      "midi": 77,
      "hit": false,
      "t": 75714.05099999988,
      "d": 233.13419791666092,
      "v": 110
    },
    {
      "midi": 67,
      "hit": false,
      "t": 75952.14549999987,
      "d": 233.13419791666092,
      "v": 110
    },
    {
      "midi": 71,
      "hit": false,
      "t": 75952.14549999987,
      "d": 233.13419791666092,
      "v": 110
    },
    {
      "midi": 52,
      "hit": false,
      "t": 76190.23999999986,
      "d": 396.8241666666727,
      "v": 110
    },
    {
      "midi": 59,
      "hit": false,
      "t": 76190.23999999986,
      "d": 396.8241666666727,
      "v": 110
    },
    {
      "midi": 64,
      "hit": false,
      "t": 76190.23999999986,
      "d": 396.8241666666727,
      "v": 110
    },
    {
      "midi": 68,
      "hit": false,
      "t": 76190.23999999986,
      "d": 396.8241666666727,
      "v": 110
    },
    {
      "midi": 71,
      "hit": false,
      "t": 76190.23999999986,
      "d": 396.8241666666727,
      "v": 110
    },
    {
      "midi": 76,
      "hit": false,
      "t": 76190.23999999986,
      "d": 396.8241666666727,
      "v": 110
    },
    {
      "midi": 52,
      "hit": false,
      "t": 76666.42899999987,
      "d": 233.13419791666092,
      "v": 110
    },
    {
      "midi": 59,
      "hit": false,
      "t": 76666.42899999987,
      "d": 233.13419791666092,
      "v": 110
    },
    {
      "midi": 64,
      "hit": false,
      "t": 76666.42899999987,
      "d": 233.13419791666092,
      "v": 110
    },
    {
      "midi": 68,
      "hit": false,
      "t": 76666.42899999987,
      "d": 233.13419791666092,
      "v": 110
    },
    {
      "midi": 71,
      "hit": false,
      "t": 76666.42899999987,
      "d": 233.13419791666092,
      "v": 110
    },
    {
      "midi": 76,
      "hit": false,
      "t": 76666.42899999987,
      "d": 233.13419791666092,
      "v": 110
    },
    {
      "midi": 52,
      "hit": false,
      "t": 76904.52349999986,
      "d": 471.22869791666744,
      "v": 110
    },
    {
      "midi": 59,
      "hit": false,
      "t": 76904.52349999986,
      "d": 471.22869791666744,
      "v": 110
    },
    {
      "midi": 64,
      "hit": false,
      "t": 76904.52349999986,
      "d": 471.22869791666744,
      "v": 110
    },
    {
      "midi": 68,
      "hit": false,
      "t": 76904.52349999986,
      "d": 471.22869791666744,
      "v": 110
    },
    {
      "midi": 71,
      "hit": false,
      "t": 76904.52349999986,
      "d": 471.22869791666744,
      "v": 110
    },
    {
      "midi": 76,
      "hit": false,
      "t": 76904.52349999986,
      "d": 471.22869791666744,
      "v": 110
    },
    {
      "midi": 52,
      "hit": false,
      "t": 77380.71249999986,
      "d": 233.13419791666092,
      "v": 110
    },
    {
      "midi": 59,
      "hit": false,
      "t": 77380.71249999986,
      "d": 233.13419791666092,
      "v": 110
    },
    {
      "midi": 64,
      "hit": false,
      "t": 77380.71249999986,
      "d": 233.13419791666092,
      "v": 110
    },
    {
      "midi": 68,
      "hit": false,
      "t": 77380.71249999986,
      "d": 233.13419791666092,
      "v": 110
    },
    {
      "midi": 71,
      "hit": false,
      "t": 77380.71249999986,
      "d": 233.13419791666092,
      "v": 110
    },
    {
      "midi": 76,
      "hit": false,
      "t": 77380.71249999986,
      "d": 233.13419791666092,
      "v": 110
    },
    {
      "midi": 52,
      "hit": false,
      "t": 77618.80699999986,
      "d": 233.13419791666092,
      "v": 110
    },
    {
      "midi": 59,
      "hit": false,
      "t": 77618.80699999986,
      "d": 233.13419791666092,
      "v": 110
    },
    {
      "midi": 64,
      "hit": false,
      "t": 77618.80699999986,
      "d": 233.13419791666092,
      "v": 110
    },
    {
      "midi": 68,
      "hit": false,
      "t": 77618.80699999986,
      "d": 233.13419791666092,
      "v": 110
    },
    {
      "midi": 71,
      "hit": false,
      "t": 77618.80699999986,
      "d": 233.13419791666092,
      "v": 110
    },
    {
      "midi": 76,
      "hit": false,
      "t": 77618.80699999986,
      "d": 233.13419791666092,
      "v": 110
    },
    {
      "midi": 52,
      "hit": false,
      "t": 77856.90149999985,
      "d": 233.13419791666092,
      "v": 110
    },
    {
      "midi": 59,
      "hit": false,
      "t": 77856.90149999985,
      "d": 233.13419791666092,
      "v": 110
    },
    {
      "midi": 64,
      "hit": false,
      "t": 77856.90149999985,
      "d": 233.13419791666092,
      "v": 110
    },
    {
      "midi": 68,
      "hit": false,
      "t": 77856.90149999985,
      "d": 233.13419791666092,
      "v": 110
    },
    {
      "midi": 71,
      "hit": false,
      "t": 77856.90149999985,
      "d": 233.13419791666092,
      "v": 110
    },
    {
      "midi": 76,
      "hit": false,
      "t": 77856.90149999985,
      "d": 233.13419791666092,
      "v": 110
    },
    {
      "midi": 53,
      "hit": false,
      "t": 78094.99599999984,
      "d": 233.13419791666092,
      "v": 110
    },
    {
      "midi": 60,
      "hit": false,
      "t": 78094.99599999984,
      "d": 233.13419791666092,
      "v": 110
    },
    {
      "midi": 65,
      "hit": false,
      "t": 78094.99599999984,
      "d": 233.13419791666092,
      "v": 110
    },
    {
      "midi": 69,
      "hit": false,
      "t": 78094.99599999984,
      "d": 233.13419791666092,
      "v": 110
    },
    {
      "midi": 72,
      "hit": false,
      "t": 78094.99599999984,
      "d": 233.13419791666092,
      "v": 110
    },
    {
      "midi": 77,
      "hit": false,
      "t": 78094.99599999984,
      "d": 233.13419791666092,
      "v": 110
    },
    {
      "midi": 53,
      "hit": false,
      "t": 78333.09049999983,
      "d": 233.13419791666092,
      "v": 110
    },
    {
      "midi": 60,
      "hit": false,
      "t": 78333.09049999983,
      "d": 233.13419791666092,
      "v": 110
    },
    {
      "midi": 65,
      "hit": false,
      "t": 78333.09049999983,
      "d": 233.13419791666092,
      "v": 110
    },
    {
      "midi": 69,
      "hit": false,
      "t": 78333.09049999983,
      "d": 233.13419791666092,
      "v": 110
    },
    {
      "midi": 72,
      "hit": false,
      "t": 78333.09049999983,
      "d": 233.13419791666092,
      "v": 110
    },
    {
      "midi": 77,
      "hit": false,
      "t": 78333.09049999983,
      "d": 233.13419791666092,
      "v": 110
    },
    {
      "midi": 53,
      "hit": false,
      "t": 78571.18499999982,
      "d": 233.13419791666092,
      "v": 110
    },
    {
      "midi": 60,
      "hit": false,
      "t": 78571.18499999982,
      "d": 233.13419791666092,
      "v": 110
    },
    {
      "midi": 65,
      "hit": false,
      "t": 78571.18499999982,
      "d": 233.13419791666092,
      "v": 110
    },
    {
      "midi": 69,
      "hit": false,
      "t": 78571.18499999982,
      "d": 233.13419791666092,
      "v": 110
    },
    {
      "midi": 72,
      "hit": false,
      "t": 78571.18499999982,
      "d": 233.13419791666092,
      "v": 110
    },
    {
      "midi": 77,
      "hit": false,
      "t": 78571.18499999982,
      "d": 233.13419791666092,
      "v": 110
    },
    {
      "midi": 53,
      "hit": false,
      "t": 78809.27949999982,
      "d": 471.22869791666744,
      "v": 110
    },
    {
      "midi": 60,
      "hit": false,
      "t": 78809.27949999982,
      "d": 471.22869791666744,
      "v": 110
    },
    {
      "midi": 65,
      "hit": false,
      "t": 78809.27949999982,
      "d": 471.22869791666744,
      "v": 110
    },
    {
      "midi": 69,
      "hit": false,
      "t": 78809.27949999982,
      "d": 471.22869791666744,
      "v": 110
    },
    {
      "midi": 72,
      "hit": false,
      "t": 78809.27949999982,
      "d": 471.22869791666744,
      "v": 110
    },
    {
      "midi": 77,
      "hit": false,
      "t": 78809.27949999982,
      "d": 471.22869791666744,
      "v": 110
    },
    {
      "midi": 53,
      "hit": false,
      "t": 79285.46849999981,
      "d": 233.13419791666092,
      "v": 110
    },
    {
      "midi": 60,
      "hit": false,
      "t": 79285.46849999981,
      "d": 233.13419791666092,
      "v": 110
    },
    {
      "midi": 65,
      "hit": false,
      "t": 79285.46849999981,
      "d": 233.13419791666092,
      "v": 110
    },
    {
      "midi": 69,
      "hit": false,
      "t": 79285.46849999981,
      "d": 233.13419791666092,
      "v": 110
    },
    {
      "midi": 72,
      "hit": false,
      "t": 79285.46849999981,
      "d": 233.13419791666092,
      "v": 110
    },
    {
      "midi": 77,
      "hit": false,
      "t": 79285.46849999981,
      "d": 233.13419791666092,
      "v": 110
    },
    {
      "midi": 53,
      "hit": false,
      "t": 79523.5629999998,
      "d": 233.13419791666092,
      "v": 110
    },
    {
      "midi": 60,
      "hit": false,
      "t": 79523.5629999998,
      "d": 233.13419791666092,
      "v": 110
    },
    {
      "midi": 65,
      "hit": false,
      "t": 79523.5629999998,
      "d": 233.13419791666092,
      "v": 110
    },
    {
      "midi": 69,
      "hit": false,
      "t": 79523.5629999998,
      "d": 233.13419791666092,
      "v": 110
    },
    {
      "midi": 72,
      "hit": false,
      "t": 79523.5629999998,
      "d": 233.13419791666092,
      "v": 110
    },
    {
      "midi": 77,
      "hit": false,
      "t": 79523.5629999998,
      "d": 233.13419791666092,
      "v": 110
    },
    {
      "midi": 67,
      "hit": false,
      "t": 79761.6574999998,
      "d": 233.13419791666092,
      "v": 110
    },
    {
      "midi": 71,
      "hit": false,
      "t": 79761.6574999998,
      "d": 233.13419791666092,
      "v": 110
    },
    {
      "midi": 60,
      "hit": false,
      "t": 79999.75199999979,
      "d": 396.8241666666727,
      "v": 110
    },
    {
      "midi": 64,
      "hit": false,
      "t": 79999.75199999979,
      "d": 396.8241666666727,
      "v": 110
    },
    {
      "midi": 67,
      "hit": false,
      "t": 79999.75199999979,
      "d": 396.8241666666727,
      "v": 110
    },
    {
      "midi": 72,
      "hit": false,
      "t": 79999.75199999979,
      "d": 396.8241666666727,
      "v": 110
    },
    {
      "midi": 60,
      "hit": false,
      "t": 80475.9409999998,
      "d": 233.13419791666092,
      "v": 110
    },
    {
      "midi": 64,
      "hit": false,
      "t": 80475.9409999998,
      "d": 233.13419791666092,
      "v": 110
    },
    {
      "midi": 67,
      "hit": false,
      "t": 80475.9409999998,
      "d": 233.13419791666092,
      "v": 110
    },
    {
      "midi": 72,
      "hit": false,
      "t": 80475.9409999998,
      "d": 233.13419791666092,
      "v": 110
    },
    {
      "midi": 60,
      "hit": false,
      "t": 80714.0354999998,
      "d": 471.22869791666744,
      "v": 110
    },
    {
      "midi": 64,
      "hit": false,
      "t": 80714.0354999998,
      "d": 471.22869791666744,
      "v": 110
    },
    {
      "midi": 67,
      "hit": false,
      "t": 80714.0354999998,
      "d": 471.22869791666744,
      "v": 110
    },
    {
      "midi": 72,
      "hit": false,
      "t": 80714.0354999998,
      "d": 471.22869791666744,
      "v": 110
    },
    {
      "midi": 79,
      "hit": false,
      "t": 80714.0354999998,
      "d": 471.22869791666744,
      "v": 110
    },
    {
      "midi": 60,
      "hit": false,
      "t": 81190.2244999998,
      "d": 233.13419791666092,
      "v": 110
    },
    {
      "midi": 64,
      "hit": false,
      "t": 81190.2244999998,
      "d": 233.13419791666092,
      "v": 110
    },
    {
      "midi": 67,
      "hit": false,
      "t": 81190.2244999998,
      "d": 233.13419791666092,
      "v": 110
    },
    {
      "midi": 72,
      "hit": false,
      "t": 81190.2244999998,
      "d": 233.13419791666092,
      "v": 110
    },
    {
      "midi": 79,
      "hit": false,
      "t": 81190.2244999998,
      "d": 233.13419791666092,
      "v": 110
    },
    {
      "midi": 60,
      "hit": false,
      "t": 81428.31899999978,
      "d": 233.13419791666092,
      "v": 110
    },
    {
      "midi": 64,
      "hit": false,
      "t": 81428.31899999978,
      "d": 233.13419791666092,
      "v": 110
    },
    {
      "midi": 67,
      "hit": false,
      "t": 81428.31899999978,
      "d": 233.13419791666092,
      "v": 110
    },
    {
      "midi": 72,
      "hit": false,
      "t": 81428.31899999978,
      "d": 233.13419791666092,
      "v": 110
    },
    {
      "midi": 79,
      "hit": false,
      "t": 81428.31899999978,
      "d": 233.13419791666092,
      "v": 110
    },
    {
      "midi": 67,
      "hit": false,
      "t": 81666.41349999978,
      "d": 233.13419791666092,
      "v": 110
    },
    {
      "midi": 60,
      "hit": false,
      "t": 81904.50799999977,
      "d": 233.13419791666092,
      "v": 110
    },
    {
      "midi": 64,
      "hit": false,
      "t": 81904.50799999977,
      "d": 233.13419791666092,
      "v": 110
    },
    {
      "midi": 70,
      "hit": false,
      "t": 81904.50799999977,
      "d": 233.13419791666092,
      "v": 110
    },
    {
      "midi": 72,
      "hit": false,
      "t": 81904.50799999977,
      "d": 233.13419791666092,
      "v": 110
    },
    {
      "midi": 60,
      "hit": false,
      "t": 82142.60249999976,
      "d": 233.13419791666092,
      "v": 110
    },
    {
      "midi": 64,
      "hit": false,
      "t": 82142.60249999976,
      "d": 233.13419791666092,
      "v": 110
    },
    {
      "midi": 70,
      "hit": false,
      "t": 82142.60249999976,
      "d": 233.13419791666092,
      "v": 110
    },
    {
      "midi": 72,
      "hit": false,
      "t": 82142.60249999976,
      "d": 233.13419791666092,
      "v": 110
    },
    {
      "midi": 60,
      "hit": false,
      "t": 82380.69699999975,
      "d": 233.13419791666092,
      "v": 110
    },
    {
      "midi": 64,
      "hit": false,
      "t": 82380.69699999975,
      "d": 233.13419791666092,
      "v": 110
    },
    {
      "midi": 70,
      "hit": false,
      "t": 82380.69699999975,
      "d": 233.13419791666092,
      "v": 110
    },
    {
      "midi": 72,
      "hit": false,
      "t": 82380.69699999975,
      "d": 233.13419791666092,
      "v": 110
    },
    {
      "midi": 60,
      "hit": false,
      "t": 82618.79149999974,
      "d": 471.22869791666744,
      "v": 110
    },
    {
      "midi": 64,
      "hit": false,
      "t": 82618.79149999974,
      "d": 471.22869791666744,
      "v": 110
    },
    {
      "midi": 70,
      "hit": false,
      "t": 82618.79149999974,
      "d": 471.22869791666744,
      "v": 110
    },
    {
      "midi": 72,
      "hit": false,
      "t": 82618.79149999974,
      "d": 471.22869791666744,
      "v": 110
    },
    {
      "midi": 60,
      "hit": false,
      "t": 83094.98049999974,
      "d": 233.13419791666092,
      "v": 110
    },
    {
      "midi": 64,
      "hit": false,
      "t": 83094.98049999974,
      "d": 233.13419791666092,
      "v": 110
    },
    {
      "midi": 70,
      "hit": false,
      "t": 83094.98049999974,
      "d": 233.13419791666092,
      "v": 110
    },
    {
      "midi": 72,
      "hit": false,
      "t": 83094.98049999974,
      "d": 233.13419791666092,
      "v": 110
    },
    {
      "midi": 60,
      "hit": false,
      "t": 83333.07499999974,
      "d": 233.13419791666092,
      "v": 110
    },
    {
      "midi": 64,
      "hit": false,
      "t": 83333.07499999974,
      "d": 233.13419791666092,
      "v": 110
    },
    {
      "midi": 70,
      "hit": false,
      "t": 83333.07499999974,
      "d": 233.13419791666092,
      "v": 110
    },
    {
      "midi": 72,
      "hit": false,
      "t": 83333.07499999974,
      "d": 233.13419791666092,
      "v": 110
    },
    {
      "midi": 71,
      "hit": false,
      "t": 83571.16949999973,
      "d": 233.13419791666092,
      "v": 110
    },
    {
      "midi": 76,
      "hit": false,
      "t": 83571.16949999973,
      "d": 233.13419791666092,
      "v": 110
    },
    {
      "midi": 52,
      "hit": false,
      "t": 83809.26399999972,
      "d": 396.8241666666727,
      "v": 110
    },
    {
      "midi": 59,
      "hit": false,
      "t": 83809.26399999972,
      "d": 396.8241666666727,
      "v": 110
    },
    {
      "midi": 64,
      "hit": false,
      "t": 83809.26399999972,
      "d": 396.8241666666727,
      "v": 110
    },
    {
      "midi": 68,
      "hit": false,
      "t": 83809.26399999972,
      "d": 396.8241666666727,
      "v": 110
    },
    {
      "midi": 71,
      "hit": false,
      "t": 83809.26399999972,
      "d": 396.8241666666727,
      "v": 110
    },
    {
      "midi": 76,
      "hit": false,
      "t": 83809.26399999972,
      "d": 396.8241666666727,
      "v": 110
    },
    {
      "midi": 52,
      "hit": false,
      "t": 84285.45299999973,
      "d": 233.13419791666092,
      "v": 110
    },
    {
      "midi": 59,
      "hit": false,
      "t": 84285.45299999973,
      "d": 233.13419791666092,
      "v": 110
    },
    {
      "midi": 64,
      "hit": false,
      "t": 84285.45299999973,
      "d": 233.13419791666092,
      "v": 110
    },
    {
      "midi": 68,
      "hit": false,
      "t": 84285.45299999973,
      "d": 233.13419791666092,
      "v": 110
    },
    {
      "midi": 71,
      "hit": false,
      "t": 84285.45299999973,
      "d": 233.13419791666092,
      "v": 110
    },
    {
      "midi": 76,
      "hit": false,
      "t": 84285.45299999973,
      "d": 233.13419791666092,
      "v": 110
    },
    {
      "midi": 52,
      "hit": false,
      "t": 84523.54749999972,
      "d": 471.22869791666744,
      "v": 110
    },
    {
      "midi": 59,
      "hit": false,
      "t": 84523.54749999972,
      "d": 471.22869791666744,
      "v": 110
    },
    {
      "midi": 64,
      "hit": false,
      "t": 84523.54749999972,
      "d": 471.22869791666744,
      "v": 110
    },
    {
      "midi": 68,
      "hit": false,
      "t": 84523.54749999972,
      "d": 471.22869791666744,
      "v": 110
    },
    {
      "midi": 71,
      "hit": false,
      "t": 84523.54749999972,
      "d": 471.22869791666744,
      "v": 110
    },
    {
      "midi": 76,
      "hit": false,
      "t": 84523.54749999972,
      "d": 471.22869791666744,
      "v": 110
    },
    {
      "midi": 52,
      "hit": false,
      "t": 84999.73649999972,
      "d": 233.13419791666092,
      "v": 110
    },
    {
      "midi": 59,
      "hit": false,
      "t": 84999.73649999972,
      "d": 233.13419791666092,
      "v": 110
    },
    {
      "midi": 64,
      "hit": false,
      "t": 84999.73649999972,
      "d": 233.13419791666092,
      "v": 110
    },
    {
      "midi": 68,
      "hit": false,
      "t": 84999.73649999972,
      "d": 233.13419791666092,
      "v": 110
    },
    {
      "midi": 71,
      "hit": false,
      "t": 84999.73649999972,
      "d": 233.13419791666092,
      "v": 110
    },
    {
      "midi": 76,
      "hit": false,
      "t": 84999.73649999972,
      "d": 233.13419791666092,
      "v": 110
    },
    {
      "midi": 52,
      "hit": false,
      "t": 85237.83099999971,
      "d": 233.13419791666092,
      "v": 110
    },
    {
      "midi": 59,
      "hit": false,
      "t": 85237.83099999971,
      "d": 233.13419791666092,
      "v": 110
    },
    {
      "midi": 64,
      "hit": false,
      "t": 85237.83099999971,
      "d": 233.13419791666092,
      "v": 110
    },
    {
      "midi": 68,
      "hit": false,
      "t": 85237.83099999971,
      "d": 233.13419791666092,
      "v": 110
    },
    {
      "midi": 71,
      "hit": false,
      "t": 85237.83099999971,
      "d": 233.13419791666092,
      "v": 110
    },
    {
      "midi": 76,
      "hit": false,
      "t": 85237.83099999971,
      "d": 233.13419791666092,
      "v": 110
    },
    {
      "midi": 52,
      "hit": false,
      "t": 85475.9254999997,
      "d": 233.13419791666092,
      "v": 110
    },
    {
      "midi": 59,
      "hit": false,
      "t": 85475.9254999997,
      "d": 233.13419791666092,
      "v": 110
    },
    {
      "midi": 64,
      "hit": false,
      "t": 85475.9254999997,
      "d": 233.13419791666092,
      "v": 110
    },
    {
      "midi": 68,
      "hit": false,
      "t": 85475.9254999997,
      "d": 233.13419791666092,
      "v": 110
    },
    {
      "midi": 71,
      "hit": false,
      "t": 85475.9254999997,
      "d": 233.13419791666092,
      "v": 110
    },
    {
      "midi": 76,
      "hit": false,
      "t": 85475.9254999997,
      "d": 233.13419791666092,
      "v": 110
    },
    {
      "midi": 53,
      "hit": false,
      "t": 85714.0199999997,
      "d": 233.13419791666092,
      "v": 110
    },
    {
      "midi": 60,
      "hit": false,
      "t": 85714.0199999997,
      "d": 233.13419791666092,
      "v": 110
    },
    {
      "midi": 65,
      "hit": false,
      "t": 85714.0199999997,
      "d": 233.13419791666092,
      "v": 110
    },
    {
      "midi": 69,
      "hit": false,
      "t": 85714.0199999997,
      "d": 233.13419791666092,
      "v": 110
    },
    {
      "midi": 72,
      "hit": false,
      "t": 85714.0199999997,
      "d": 233.13419791666092,
      "v": 110
    },
    {
      "midi": 77,
      "hit": false,
      "t": 85714.0199999997,
      "d": 233.13419791666092,
      "v": 110
    },
    {
      "midi": 53,
      "hit": false,
      "t": 85952.11449999969,
      "d": 233.13419791666092,
      "v": 110
    },
    {
      "midi": 60,
      "hit": false,
      "t": 85952.11449999969,
      "d": 233.13419791666092,
      "v": 110
    },
    {
      "midi": 65,
      "hit": false,
      "t": 85952.11449999969,
      "d": 233.13419791666092,
      "v": 110
    },
    {
      "midi": 69,
      "hit": false,
      "t": 85952.11449999969,
      "d": 233.13419791666092,
      "v": 110
    },
    {
      "midi": 72,
      "hit": false,
      "t": 85952.11449999969,
      "d": 233.13419791666092,
      "v": 110
    },
    {
      "midi": 77,
      "hit": false,
      "t": 85952.11449999969,
      "d": 233.13419791666092,
      "v": 110
    },
    {
      "midi": 53,
      "hit": false,
      "t": 86190.20899999968,
      "d": 233.13419791666092,
      "v": 110
    },
    {
      "midi": 60,
      "hit": false,
      "t": 86190.20899999968,
      "d": 233.13419791666092,
      "v": 110
    },
    {
      "midi": 65,
      "hit": false,
      "t": 86190.20899999968,
      "d": 233.13419791666092,
      "v": 110
    },
    {
      "midi": 69,
      "hit": false,
      "t": 86190.20899999968,
      "d": 233.13419791666092,
      "v": 110
    },
    {
      "midi": 72,
      "hit": false,
      "t": 86190.20899999968,
      "d": 233.13419791666092,
      "v": 110
    },
    {
      "midi": 77,
      "hit": false,
      "t": 86190.20899999968,
      "d": 233.13419791666092,
      "v": 110
    },
    {
      "midi": 53,
      "hit": false,
      "t": 86428.30349999967,
      "d": 471.22869791666744,
      "v": 110
    },
    {
      "midi": 60,
      "hit": false,
      "t": 86428.30349999967,
      "d": 471.22869791666744,
      "v": 110
    },
    {
      "midi": 65,
      "hit": false,
      "t": 86428.30349999967,
      "d": 471.22869791666744,
      "v": 110
    },
    {
      "midi": 69,
      "hit": false,
      "t": 86428.30349999967,
      "d": 471.22869791666744,
      "v": 110
    },
    {
      "midi": 72,
      "hit": false,
      "t": 86428.30349999967,
      "d": 471.22869791666744,
      "v": 110
    },
    {
      "midi": 77,
      "hit": false,
      "t": 86428.30349999967,
      "d": 471.22869791666744,
      "v": 110
    },
    {
      "midi": 53,
      "hit": false,
      "t": 86904.49249999967,
      "d": 233.13419791666092,
      "v": 110
    },
    {
      "midi": 60,
      "hit": false,
      "t": 86904.49249999967,
      "d": 233.13419791666092,
      "v": 110
    },
    {
      "midi": 65,
      "hit": false,
      "t": 86904.49249999967,
      "d": 233.13419791666092,
      "v": 110
    },
    {
      "midi": 69,
      "hit": false,
      "t": 86904.49249999967,
      "d": 233.13419791666092,
      "v": 110
    },
    {
      "midi": 72,
      "hit": false,
      "t": 86904.49249999967,
      "d": 233.13419791666092,
      "v": 110
    },
    {
      "midi": 77,
      "hit": false,
      "t": 86904.49249999967,
      "d": 233.13419791666092,
      "v": 110
    },
    {
      "midi": 53,
      "hit": false,
      "t": 87142.58699999966,
      "d": 233.13419791666092,
      "v": 110
    },
    {
      "midi": 60,
      "hit": false,
      "t": 87142.58699999966,
      "d": 233.13419791666092,
      "v": 110
    },
    {
      "midi": 65,
      "hit": false,
      "t": 87142.58699999966,
      "d": 233.13419791666092,
      "v": 110
    },
    {
      "midi": 69,
      "hit": false,
      "t": 87142.58699999966,
      "d": 233.13419791666092,
      "v": 110
    },
    {
      "midi": 72,
      "hit": false,
      "t": 87142.58699999966,
      "d": 233.13419791666092,
      "v": 110
    },
    {
      "midi": 77,
      "hit": false,
      "t": 87142.58699999966,
      "d": 233.13419791666092,
      "v": 110
    },
    {
      "midi": 67,
      "hit": false,
      "t": 87380.68149999966,
      "d": 233.13419791666092,
      "v": 110
    },
    {
      "midi": 71,
      "hit": false,
      "t": 87380.68149999966,
      "d": 233.13419791666092,
      "v": 110
    },
    {
      "midi": 53,
      "hit": false,
      "t": 87618.77599999965,
      "d": 396.8241666666727,
      "v": 110
    },
    {
      "midi": 60,
      "hit": false,
      "t": 87618.77599999965,
      "d": 396.8241666666727,
      "v": 110
    },
    {
      "midi": 65,
      "hit": false,
      "t": 87618.77599999965,
      "d": 396.8241666666727,
      "v": 110
    },
    {
      "midi": 69,
      "hit": false,
      "t": 87618.77599999965,
      "d": 396.8241666666727,
      "v": 110
    },
    {
      "midi": 72,
      "hit": false,
      "t": 87618.77599999965,
      "d": 396.8241666666727,
      "v": 110
    },
    {
      "midi": 77,
      "hit": false,
      "t": 87618.77599999965,
      "d": 396.8241666666727,
      "v": 110
    },
    {
      "midi": 53,
      "hit": false,
      "t": 88094.96499999966,
      "d": 233.13419791666092,
      "v": 110
    },
    {
      "midi": 60,
      "hit": false,
      "t": 88094.96499999966,
      "d": 233.13419791666092,
      "v": 110
    },
    {
      "midi": 65,
      "hit": false,
      "t": 88094.96499999966,
      "d": 233.13419791666092,
      "v": 110
    },
    {
      "midi": 69,
      "hit": false,
      "t": 88094.96499999966,
      "d": 233.13419791666092,
      "v": 110
    },
    {
      "midi": 72,
      "hit": false,
      "t": 88094.96499999966,
      "d": 233.13419791666092,
      "v": 110
    },
    {
      "midi": 77,
      "hit": false,
      "t": 88094.96499999966,
      "d": 233.13419791666092,
      "v": 110
    },
    {
      "midi": 53,
      "hit": false,
      "t": 88333.05949999965,
      "d": 471.22869791666744,
      "v": 110
    },
    {
      "midi": 60,
      "hit": false,
      "t": 88333.05949999965,
      "d": 471.22869791666744,
      "v": 110
    },
    {
      "midi": 65,
      "hit": false,
      "t": 88333.05949999965,
      "d": 471.22869791666744,
      "v": 110
    },
    {
      "midi": 69,
      "hit": false,
      "t": 88333.05949999965,
      "d": 471.22869791666744,
      "v": 110
    },
    {
      "midi": 72,
      "hit": false,
      "t": 88333.05949999965,
      "d": 471.22869791666744,
      "v": 110
    },
    {
      "midi": 77,
      "hit": false,
      "t": 88333.05949999965,
      "d": 471.22869791666744,
      "v": 110
    },
    {
      "midi": 53,
      "hit": false,
      "t": 88809.24849999965,
      "d": 233.13419791666092,
      "v": 110
    },
    {
      "midi": 60,
      "hit": false,
      "t": 88809.24849999965,
      "d": 233.13419791666092,
      "v": 110
    },
    {
      "midi": 65,
      "hit": false,
      "t": 88809.24849999965,
      "d": 233.13419791666092,
      "v": 110
    },
    {
      "midi": 69,
      "hit": false,
      "t": 88809.24849999965,
      "d": 233.13419791666092,
      "v": 110
    },
    {
      "midi": 72,
      "hit": false,
      "t": 88809.24849999965,
      "d": 233.13419791666092,
      "v": 110
    },
    {
      "midi": 77,
      "hit": false,
      "t": 88809.24849999965,
      "d": 233.13419791666092,
      "v": 110
    },
    {
      "midi": 53,
      "hit": false,
      "t": 89047.34299999964,
      "d": 233.13419791666092,
      "v": 110
    },
    {
      "midi": 60,
      "hit": false,
      "t": 89047.34299999964,
      "d": 233.13419791666092,
      "v": 110
    },
    {
      "midi": 65,
      "hit": false,
      "t": 89047.34299999964,
      "d": 233.13419791666092,
      "v": 110
    },
    {
      "midi": 69,
      "hit": false,
      "t": 89047.34299999964,
      "d": 233.13419791666092,
      "v": 110
    },
    {
      "midi": 72,
      "hit": false,
      "t": 89047.34299999964,
      "d": 233.13419791666092,
      "v": 110
    },
    {
      "midi": 77,
      "hit": false,
      "t": 89047.34299999964,
      "d": 233.13419791666092,
      "v": 110
    },
    {
      "midi": 71,
      "hit": false,
      "t": 89285.43749999964,
      "d": 233.13419791666092,
      "v": 110
    },
    {
      "midi": 55,
      "hit": false,
      "t": 89523.53199999963,
      "d": 233.13419791666092,
      "v": 110
    },
    {
      "midi": 62,
      "hit": false,
      "t": 89523.53199999963,
      "d": 233.13419791666092,
      "v": 110
    },
    {
      "midi": 67,
      "hit": false,
      "t": 89523.53199999963,
      "d": 233.13419791666092,
      "v": 110
    },
    {
      "midi": 74,
      "hit": false,
      "t": 89523.53199999963,
      "d": 233.13419791666092,
      "v": 110
    },
    {
      "midi": 79,
      "hit": false,
      "t": 89523.53199999963,
      "d": 233.13419791666092,
      "v": 110
    },
    {
      "midi": 55,
      "hit": false,
      "t": 89761.62649999962,
      "d": 233.13419791666092,
      "v": 110
    },
    {
      "midi": 62,
      "hit": false,
      "t": 89761.62649999962,
      "d": 233.13419791666092,
      "v": 110
    },
    {
      "midi": 67,
      "hit": false,
      "t": 89761.62649999962,
      "d": 233.13419791666092,
      "v": 110
    },
    {
      "midi": 74,
      "hit": false,
      "t": 89761.62649999962,
      "d": 233.13419791666092,
      "v": 110
    },
    {
      "midi": 79,
      "hit": false,
      "t": 89761.62649999962,
      "d": 233.13419791666092,
      "v": 110
    },
    {
      "midi": 55,
      "hit": false,
      "t": 89999.72099999961,
      "d": 233.13419791666092,
      "v": 110
    },
    {
      "midi": 62,
      "hit": false,
      "t": 89999.72099999961,
      "d": 233.13419791666092,
      "v": 110
    },
    {
      "midi": 67,
      "hit": false,
      "t": 89999.72099999961,
      "d": 233.13419791666092,
      "v": 110
    },
    {
      "midi": 74,
      "hit": false,
      "t": 89999.72099999961,
      "d": 233.13419791666092,
      "v": 110
    },
    {
      "midi": 79,
      "hit": false,
      "t": 89999.72099999961,
      "d": 233.13419791666092,
      "v": 110
    },
    {
      "midi": 55,
      "hit": false,
      "t": 90237.8154999996,
      "d": 471.22869791666744,
      "v": 110
    },
    {
      "midi": 62,
      "hit": false,
      "t": 90237.8154999996,
      "d": 471.22869791666744,
      "v": 110
    },
    {
      "midi": 67,
      "hit": false,
      "t": 90237.8154999996,
      "d": 471.22869791666744,
      "v": 110
    },
    {
      "midi": 74,
      "hit": false,
      "t": 90237.8154999996,
      "d": 471.22869791666744,
      "v": 110
    },
    {
      "midi": 79,
      "hit": false,
      "t": 90237.8154999996,
      "d": 471.22869791666744,
      "v": 110
    },
    {
      "midi": 55,
      "hit": false,
      "t": 90714.0044999996,
      "d": 233.13419791666092,
      "v": 110
    },
    {
      "midi": 62,
      "hit": false,
      "t": 90714.0044999996,
      "d": 233.13419791666092,
      "v": 110
    },
    {
      "midi": 67,
      "hit": false,
      "t": 90714.0044999996,
      "d": 233.13419791666092,
      "v": 110
    },
    {
      "midi": 74,
      "hit": false,
      "t": 90714.0044999996,
      "d": 233.13419791666092,
      "v": 110
    },
    {
      "midi": 79,
      "hit": false,
      "t": 90714.0044999996,
      "d": 233.13419791666092,
      "v": 110
    },
    {
      "midi": 55,
      "hit": false,
      "t": 90952.0989999996,
      "d": 233.13419791666092,
      "v": 110
    },
    {
      "midi": 62,
      "hit": false,
      "t": 90952.0989999996,
      "d": 233.13419791666092,
      "v": 110
    },
    {
      "midi": 67,
      "hit": false,
      "t": 90952.0989999996,
      "d": 233.13419791666092,
      "v": 110
    },
    {
      "midi": 74,
      "hit": false,
      "t": 90952.0989999996,
      "d": 233.13419791666092,
      "v": 110
    },
    {
      "midi": 79,
      "hit": false,
      "t": 90952.0989999996,
      "d": 233.13419791666092,
      "v": 110
    },
    {
      "midi": 67,
      "hit": false,
      "t": 91190.19349999959,
      "d": 233.13419791666092,
      "v": 110
    },
    {
      "midi": 71,
      "hit": false,
      "t": 91190.19349999959,
      "d": 233.13419791666092,
      "v": 110
    },
    {
      "midi": 60,
      "hit": false,
      "t": 91428.28799999958,
      "d": 396.8241666666727,
      "v": 110
    },
    {
      "midi": 64,
      "hit": false,
      "t": 91428.28799999958,
      "d": 396.8241666666727,
      "v": 110
    },
    {
      "midi": 67,
      "hit": false,
      "t": 91428.28799999958,
      "d": 396.8241666666727,
      "v": 110
    },
    {
      "midi": 72,
      "hit": false,
      "t": 91428.28799999958,
      "d": 396.8241666666727,
      "v": 110
    },
    {
      "midi": 60,
      "hit": false,
      "t": 91904.47699999959,
      "d": 233.13419791666092,
      "v": 110
    },
    {
      "midi": 64,
      "hit": false,
      "t": 91904.47699999959,
      "d": 233.13419791666092,
      "v": 110
    },
    {
      "midi": 67,
      "hit": false,
      "t": 91904.47699999959,
      "d": 233.13419791666092,
      "v": 110
    },
    {
      "midi": 72,
      "hit": false,
      "t": 91904.47699999959,
      "d": 233.13419791666092,
      "v": 110
    },
    {
      "midi": 60,
      "hit": false,
      "t": 92142.57149999958,
      "d": 471.22869791666744,
      "v": 110
    },
    {
      "midi": 64,
      "hit": false,
      "t": 92142.57149999958,
      "d": 471.22869791666744,
      "v": 110
    },
    {
      "midi": 67,
      "hit": false,
      "t": 92142.57149999958,
      "d": 471.22869791666744,
      "v": 110
    },
    {
      "midi": 72,
      "hit": false,
      "t": 92142.57149999958,
      "d": 471.22869791666744,
      "v": 110
    },
    {
      "midi": 79,
      "hit": false,
      "t": 92142.57149999958,
      "d": 471.22869791666744,
      "v": 110
    },
    {
      "midi": 60,
      "hit": false,
      "t": 92618.76049999958,
      "d": 233.13419791666092,
      "v": 110
    },
    {
      "midi": 64,
      "hit": false,
      "t": 92618.76049999958,
      "d": 233.13419791666092,
      "v": 110
    },
    {
      "midi": 67,
      "hit": false,
      "t": 92618.76049999958,
      "d": 233.13419791666092,
      "v": 110
    },
    {
      "midi": 72,
      "hit": false,
      "t": 92618.76049999958,
      "d": 233.13419791666092,
      "v": 110
    },
    {
      "midi": 79,
      "hit": false,
      "t": 92618.76049999958,
      "d": 233.13419791666092,
      "v": 110
    },
    {
      "midi": 60,
      "hit": false,
      "t": 92856.85499999957,
      "d": 233.13419791666092,
      "v": 110
    },
    {
      "midi": 64,
      "hit": false,
      "t": 92856.85499999957,
      "d": 233.13419791666092,
      "v": 110
    },
    {
      "midi": 67,
      "hit": false,
      "t": 92856.85499999957,
      "d": 233.13419791666092,
      "v": 110
    },
    {
      "midi": 72,
      "hit": false,
      "t": 92856.85499999957,
      "d": 233.13419791666092,
      "v": 110
    },
    {
      "midi": 79,
      "hit": false,
      "t": 92856.85499999957,
      "d": 233.13419791666092,
      "v": 110
    },
    {
      "midi": 67,
      "hit": false,
      "t": 93094.94949999957,
      "d": 233.13419791666092,
      "v": 110
    },
    {
      "midi": 72,
      "hit": false,
      "t": 93094.94949999957,
      "d": 233.13419791666092,
      "v": 110
    },
    {
      "midi": 57,
      "hit": false,
      "t": 93333.04399999956,
      "d": 396.8241666666727,
      "v": 110
    },
    {
      "midi": 64,
      "hit": false,
      "t": 93333.04399999956,
      "d": 396.8241666666727,
      "v": 110
    },
    {
      "midi": 69,
      "hit": false,
      "t": 93333.04399999956,
      "d": 396.8241666666727,
      "v": 110
    },
    {
      "midi": 72,
      "hit": false,
      "t": 93333.04399999956,
      "d": 396.8241666666727,
      "v": 110
    },
    {
      "midi": 57,
      "hit": false,
      "t": 93809.23299999957,
      "d": 233.13419791666092,
      "v": 110
    },
    {
      "midi": 64,
      "hit": false,
      "t": 93809.23299999957,
      "d": 233.13419791666092,
      "v": 110
    },
    {
      "midi": 69,
      "hit": false,
      "t": 93809.23299999957,
      "d": 233.13419791666092,
      "v": 110
    },
    {
      "midi": 72,
      "hit": false,
      "t": 93809.23299999957,
      "d": 233.13419791666092,
      "v": 110
    },
    {
      "midi": 57,
      "hit": false,
      "t": 94047.32749999956,
      "d": 471.22869791666744,
      "v": 110
    },
    {
      "midi": 64,
      "hit": false,
      "t": 94047.32749999956,
      "d": 471.22869791666744,
      "v": 110
    },
    {
      "midi": 69,
      "hit": false,
      "t": 94047.32749999956,
      "d": 471.22869791666744,
      "v": 110
    },
    {
      "midi": 72,
      "hit": false,
      "t": 94047.32749999956,
      "d": 471.22869791666744,
      "v": 110
    },
    {
      "midi": 79,
      "hit": false,
      "t": 94047.32749999956,
      "d": 471.22869791666744,
      "v": 110
    },
    {
      "midi": 57,
      "hit": false,
      "t": 94523.51649999956,
      "d": 233.13419791666092,
      "v": 110
    },
    {
      "midi": 64,
      "hit": false,
      "t": 94523.51649999956,
      "d": 233.13419791666092,
      "v": 110
    },
    {
      "midi": 69,
      "hit": false,
      "t": 94523.51649999956,
      "d": 233.13419791666092,
      "v": 110
    },
    {
      "midi": 72,
      "hit": false,
      "t": 94523.51649999956,
      "d": 233.13419791666092,
      "v": 110
    },
    {
      "midi": 79,
      "hit": false,
      "t": 94523.51649999956,
      "d": 233.13419791666092,
      "v": 110
    },
    {
      "midi": 57,
      "hit": false,
      "t": 94761.61099999955,
      "d": 233.13419791666092,
      "v": 110
    },
    {
      "midi": 64,
      "hit": false,
      "t": 94761.61099999955,
      "d": 233.13419791666092,
      "v": 110
    },
    {
      "midi": 69,
      "hit": false,
      "t": 94761.61099999955,
      "d": 233.13419791666092,
      "v": 110
    },
    {
      "midi": 72,
      "hit": false,
      "t": 94761.61099999955,
      "d": 233.13419791666092,
      "v": 110
    },
    {
      "midi": 79,
      "hit": false,
      "t": 94761.61099999955,
      "d": 233.13419791666092,
      "v": 110
    },
    {
      "midi": 67,
      "hit": false,
      "t": 94999.70549999955,
      "d": 233.13419791666092,
      "v": 110
    },
    {
      "midi": 72,
      "hit": false,
      "t": 94999.70549999955,
      "d": 233.13419791666092,
      "v": 110
    },
    {
      "midi": 55,
      "hit": false,
      "t": 95237.79999999954,
      "d": 396.8241666666727,
      "v": 110
    },
    {
      "midi": 59,
      "hit": false,
      "t": 95237.79999999954,
      "d": 396.8241666666727,
      "v": 110
    },
    {
      "midi": 62,
      "hit": false,
      "t": 95237.79999999954,
      "d": 396.8241666666727,
      "v": 110
    },
    {
      "midi": 67,
      "hit": false,
      "t": 95237.79999999954,
      "d": 396.8241666666727,
      "v": 110
    },
    {
      "midi": 72,
      "hit": false,
      "t": 95237.79999999954,
      "d": 396.8241666666727,
      "v": 110
    },
    {
      "midi": 55,
      "hit": false,
      "t": 95713.98899999955,
      "d": 233.13419791666092,
      "v": 110
    },
    {
      "midi": 59,
      "hit": false,
      "t": 95713.98899999955,
      "d": 233.13419791666092,
      "v": 110
    },
    {
      "midi": 62,
      "hit": false,
      "t": 95713.98899999955,
      "d": 233.13419791666092,
      "v": 110
    },
    {
      "midi": 67,
      "hit": false,
      "t": 95713.98899999955,
      "d": 233.13419791666092,
      "v": 110
    },
    {
      "midi": 72,
      "hit": false,
      "t": 95713.98899999955,
      "d": 233.13419791666092,
      "v": 110
    },
    {
      "midi": 55,
      "hit": false,
      "t": 95952.08349999954,
      "d": 471.22869791666744,
      "v": 110
    },
    {
      "midi": 59,
      "hit": false,
      "t": 95952.08349999954,
      "d": 471.22869791666744,
      "v": 110
    },
    {
      "midi": 62,
      "hit": false,
      "t": 95952.08349999954,
      "d": 471.22869791666744,
      "v": 110
    },
    {
      "midi": 67,
      "hit": false,
      "t": 95952.08349999954,
      "d": 471.22869791666744,
      "v": 110
    },
    {
      "midi": 72,
      "hit": false,
      "t": 95952.08349999954,
      "d": 471.22869791666744,
      "v": 110
    },
    {
      "midi": 79,
      "hit": false,
      "t": 95952.08349999954,
      "d": 471.22869791666744,
      "v": 110
    },
    {
      "midi": 55,
      "hit": false,
      "t": 96428.27249999954,
      "d": 233.13419791666092,
      "v": 110
    },
    {
      "midi": 59,
      "hit": false,
      "t": 96428.27249999954,
      "d": 233.13419791666092,
      "v": 110
    },
    {
      "midi": 62,
      "hit": false,
      "t": 96428.27249999954,
      "d": 233.13419791666092,
      "v": 110
    },
    {
      "midi": 67,
      "hit": false,
      "t": 96428.27249999954,
      "d": 233.13419791666092,
      "v": 110
    },
    {
      "midi": 72,
      "hit": false,
      "t": 96428.27249999954,
      "d": 233.13419791666092,
      "v": 110
    },
    {
      "midi": 79,
      "hit": false,
      "t": 96428.27249999954,
      "d": 233.13419791666092,
      "v": 110
    },
    {
      "midi": 55,
      "hit": false,
      "t": 96666.36699999953,
      "d": 396.8241666666727,
      "v": 110
    },
    {
      "midi": 59,
      "hit": false,
      "t": 96666.36699999953,
      "d": 396.8241666666727,
      "v": 110
    },
    {
      "midi": 62,
      "hit": false,
      "t": 96666.36699999953,
      "d": 396.8241666666727,
      "v": 110
    },
    {
      "midi": 67,
      "hit": false,
      "t": 96666.36699999953,
      "d": 396.8241666666727,
      "v": 110
    },
    {
      "midi": 72,
      "hit": false,
      "t": 96666.36699999953,
      "d": 396.8241666666727,
      "v": 110
    },
    {
      "midi": 79,
      "hit": false,
      "t": 96666.36699999953,
      "d": 396.8241666666727,
      "v": 110
    },
    {
      "midi": 53,
      "hit": false,
      "t": 97142.55599999955,
      "d": 233.13419791666092,
      "v": 110
    },
    {
      "midi": 60,
      "hit": false,
      "t": 97142.55599999955,
      "d": 233.13419791666092,
      "v": 110
    },
    {
      "midi": 65,
      "hit": false,
      "t": 97142.55599999955,
      "d": 233.13419791666092,
      "v": 110
    },
    {
      "midi": 69,
      "hit": false,
      "t": 97142.55599999955,
      "d": 233.13419791666092,
      "v": 110
    },
    {
      "midi": 72,
      "hit": false,
      "t": 97142.55599999955,
      "d": 233.13419791666092,
      "v": 110
    },
    {
      "midi": 77,
      "hit": false,
      "t": 97142.55599999955,
      "d": 233.13419791666092,
      "v": 110
    },
    {
      "midi": 53,
      "hit": false,
      "t": 97380.65049999954,
      "d": 233.13419791666092,
      "v": 110
    },
    {
      "midi": 60,
      "hit": false,
      "t": 97380.65049999954,
      "d": 233.13419791666092,
      "v": 110
    },
    {
      "midi": 65,
      "hit": false,
      "t": 97380.65049999954,
      "d": 233.13419791666092,
      "v": 110
    },
    {
      "midi": 69,
      "hit": false,
      "t": 97380.65049999954,
      "d": 233.13419791666092,
      "v": 110
    },
    {
      "midi": 72,
      "hit": false,
      "t": 97380.65049999954,
      "d": 233.13419791666092,
      "v": 110
    },
    {
      "midi": 77,
      "hit": false,
      "t": 97380.65049999954,
      "d": 233.13419791666092,
      "v": 110
    },
    {
      "midi": 53,
      "hit": false,
      "t": 97618.74499999953,
      "d": 233.13419791666092,
      "v": 110
    },
    {
      "midi": 60,
      "hit": false,
      "t": 97618.74499999953,
      "d": 233.13419791666092,
      "v": 110
    },
    {
      "midi": 65,
      "hit": false,
      "t": 97618.74499999953,
      "d": 233.13419791666092,
      "v": 110
    },
    {
      "midi": 69,
      "hit": false,
      "t": 97618.74499999953,
      "d": 233.13419791666092,
      "v": 110
    },
    {
      "midi": 72,
      "hit": false,
      "t": 97618.74499999953,
      "d": 233.13419791666092,
      "v": 110
    },
    {
      "midi": 77,
      "hit": false,
      "t": 97618.74499999953,
      "d": 233.13419791666092,
      "v": 110
    },
    {
      "midi": 53,
      "hit": false,
      "t": 97856.83949999952,
      "d": 471.22869791666744,
      "v": 110
    },
    {
      "midi": 60,
      "hit": false,
      "t": 97856.83949999952,
      "d": 471.22869791666744,
      "v": 110
    },
    {
      "midi": 65,
      "hit": false,
      "t": 97856.83949999952,
      "d": 471.22869791666744,
      "v": 110
    },
    {
      "midi": 69,
      "hit": false,
      "t": 97856.83949999952,
      "d": 471.22869791666744,
      "v": 110
    },
    {
      "midi": 72,
      "hit": false,
      "t": 97856.83949999952,
      "d": 471.22869791666744,
      "v": 110
    },
    {
      "midi": 77,
      "hit": false,
      "t": 97856.83949999952,
      "d": 471.22869791666744,
      "v": 110
    },
    {
      "midi": 53,
      "hit": false,
      "t": 98333.02849999952,
      "d": 233.13419791666092,
      "v": 110
    },
    {
      "midi": 60,
      "hit": false,
      "t": 98333.02849999952,
      "d": 233.13419791666092,
      "v": 110
    },
    {
      "midi": 65,
      "hit": false,
      "t": 98333.02849999952,
      "d": 233.13419791666092,
      "v": 110
    },
    {
      "midi": 69,
      "hit": false,
      "t": 98333.02849999952,
      "d": 233.13419791666092,
      "v": 110
    },
    {
      "midi": 72,
      "hit": false,
      "t": 98333.02849999952,
      "d": 233.13419791666092,
      "v": 110
    },
    {
      "midi": 77,
      "hit": false,
      "t": 98333.02849999952,
      "d": 233.13419791666092,
      "v": 110
    },
    {
      "midi": 53,
      "hit": false,
      "t": 98571.12299999951,
      "d": 233.13419791666092,
      "v": 110
    },
    {
      "midi": 60,
      "hit": false,
      "t": 98571.12299999951,
      "d": 233.13419791666092,
      "v": 110
    },
    {
      "midi": 65,
      "hit": false,
      "t": 98571.12299999951,
      "d": 233.13419791666092,
      "v": 110
    },
    {
      "midi": 69,
      "hit": false,
      "t": 98571.12299999951,
      "d": 233.13419791666092,
      "v": 110
    },
    {
      "midi": 72,
      "hit": false,
      "t": 98571.12299999951,
      "d": 233.13419791666092,
      "v": 110
    },
    {
      "midi": 77,
      "hit": false,
      "t": 98571.12299999951,
      "d": 233.13419791666092,
      "v": 110
    },
    {
      "midi": 67,
      "hit": false,
      "t": 98809.2174999995,
      "d": 233.13419791666092,
      "v": 110
    },
    {
      "midi": 71,
      "hit": false,
      "t": 98809.2174999995,
      "d": 233.13419791666092,
      "v": 110
    },
    {
      "midi": 60,
      "hit": false,
      "t": 99047.3119999995,
      "d": 396.8241666666727,
      "v": 110
    },
    {
      "midi": 64,
      "hit": false,
      "t": 99047.3119999995,
      "d": 396.8241666666727,
      "v": 110
    },
    {
      "midi": 67,
      "hit": false,
      "t": 99047.3119999995,
      "d": 396.8241666666727,
      "v": 110
    },
    {
      "midi": 72,
      "hit": false,
      "t": 99047.3119999995,
      "d": 396.8241666666727,
      "v": 110
    },
    {
      "midi": 60,
      "hit": false,
      "t": 99523.50099999951,
      "d": 233.13419791666092,
      "v": 110
    },
    {
      "midi": 64,
      "hit": false,
      "t": 99523.50099999951,
      "d": 233.13419791666092,
      "v": 110
    },
    {
      "midi": 67,
      "hit": false,
      "t": 99523.50099999951,
      "d": 233.13419791666092,
      "v": 110
    },
    {
      "midi": 72,
      "hit": false,
      "t": 99523.50099999951,
      "d": 233.13419791666092,
      "v": 110
    },
    {
      "midi": 60,
      "hit": false,
      "t": 99761.5954999995,
      "d": 471.22869791666744,
      "v": 110
    },
    {
      "midi": 64,
      "hit": false,
      "t": 99761.5954999995,
      "d": 471.22869791666744,
      "v": 110
    },
    {
      "midi": 67,
      "hit": false,
      "t": 99761.5954999995,
      "d": 471.22869791666744,
      "v": 110
    },
    {
      "midi": 72,
      "hit": false,
      "t": 99761.5954999995,
      "d": 471.22869791666744,
      "v": 110
    },
    {
      "midi": 79,
      "hit": false,
      "t": 99761.5954999995,
      "d": 471.22869791666744,
      "v": 110
    },
    {
      "midi": 60,
      "hit": false,
      "t": 100237.7844999995,
      "d": 233.13419791666092,
      "v": 110
    },
    {
      "midi": 64,
      "hit": false,
      "t": 100237.7844999995,
      "d": 233.13419791666092,
      "v": 110
    },
    {
      "midi": 67,
      "hit": false,
      "t": 100237.7844999995,
      "d": 233.13419791666092,
      "v": 110
    },
    {
      "midi": 72,
      "hit": false,
      "t": 100237.7844999995,
      "d": 233.13419791666092,
      "v": 110
    },
    {
      "midi": 79,
      "hit": false,
      "t": 100237.7844999995,
      "d": 233.13419791666092,
      "v": 110
    },
    {
      "midi": 60,
      "hit": false,
      "t": 100475.87899999949,
      "d": 233.13419791666092,
      "v": 110
    },
    {
      "midi": 64,
      "hit": false,
      "t": 100475.87899999949,
      "d": 233.13419791666092,
      "v": 110
    },
    {
      "midi": 67,
      "hit": false,
      "t": 100475.87899999949,
      "d": 233.13419791666092,
      "v": 110
    },
    {
      "midi": 72,
      "hit": false,
      "t": 100475.87899999949,
      "d": 233.13419791666092,
      "v": 110
    },
    {
      "midi": 79,
      "hit": false,
      "t": 100475.87899999949,
      "d": 233.13419791666092,
      "v": 110
    },
    {
      "midi": 67,
      "hit": false,
      "t": 100713.97349999948,
      "d": 233.13419791666092,
      "v": 110
    },
    {
      "midi": 72,
      "hit": false,
      "t": 100713.97349999948,
      "d": 233.13419791666092,
      "v": 110
    },
    {
      "midi": 55,
      "hit": false,
      "t": 100952.06799999948,
      "d": 396.8241666666727,
      "v": 110
    },
    {
      "midi": 59,
      "hit": false,
      "t": 100952.06799999948,
      "d": 396.8241666666727,
      "v": 110
    },
    {
      "midi": 62,
      "hit": false,
      "t": 100952.06799999948,
      "d": 396.8241666666727,
      "v": 110
    },
    {
      "midi": 67,
      "hit": false,
      "t": 100952.06799999948,
      "d": 396.8241666666727,
      "v": 110
    },
    {
      "midi": 74,
      "hit": false,
      "t": 100952.06799999948,
      "d": 396.8241666666727,
      "v": 110
    },
    {
      "midi": 79,
      "hit": false,
      "t": 100952.06799999948,
      "d": 396.8241666666727,
      "v": 110
    },
    {
      "midi": 55,
      "hit": false,
      "t": 101428.25699999949,
      "d": 233.13419791666092,
      "v": 110
    },
    {
      "midi": 59,
      "hit": false,
      "t": 101428.25699999949,
      "d": 233.13419791666092,
      "v": 110
    },
    {
      "midi": 62,
      "hit": false,
      "t": 101428.25699999949,
      "d": 233.13419791666092,
      "v": 110
    },
    {
      "midi": 67,
      "hit": false,
      "t": 101428.25699999949,
      "d": 233.13419791666092,
      "v": 110
    },
    {
      "midi": 74,
      "hit": false,
      "t": 101428.25699999949,
      "d": 233.13419791666092,
      "v": 110
    },
    {
      "midi": 79,
      "hit": false,
      "t": 101428.25699999949,
      "d": 233.13419791666092,
      "v": 110
    },
    {
      "midi": 67,
      "hit": false,
      "t": 101666.35149999948,
      "d": 233.13419791666092,
      "v": 110
    },
    {
      "midi": 71,
      "hit": false,
      "t": 101666.35149999948,
      "d": 233.13419791666092,
      "v": 110
    },
    {
      "midi": 53,
      "hit": false,
      "t": 101904.44599999947,
      "d": 396.8241666666727,
      "v": 110
    },
    {
      "midi": 60,
      "hit": false,
      "t": 101904.44599999947,
      "d": 396.8241666666727,
      "v": 110
    },
    {
      "midi": 65,
      "hit": false,
      "t": 101904.44599999947,
      "d": 396.8241666666727,
      "v": 110
    },
    {
      "midi": 69,
      "hit": false,
      "t": 101904.44599999947,
      "d": 396.8241666666727,
      "v": 110
    },
    {
      "midi": 72,
      "hit": false,
      "t": 101904.44599999947,
      "d": 396.8241666666727,
      "v": 110
    },
    {
      "midi": 77,
      "hit": false,
      "t": 101904.44599999947,
      "d": 396.8241666666727,
      "v": 110
    },
    {
      "midi": 53,
      "hit": false,
      "t": 102380.63499999949,
      "d": 233.13419791666092,
      "v": 110
    },
    {
      "midi": 60,
      "hit": false,
      "t": 102380.63499999949,
      "d": 233.13419791666092,
      "v": 110
    },
    {
      "midi": 65,
      "hit": false,
      "t": 102380.63499999949,
      "d": 233.13419791666092,
      "v": 110
    },
    {
      "midi": 69,
      "hit": false,
      "t": 102380.63499999949,
      "d": 233.13419791666092,
      "v": 110
    },
    {
      "midi": 72,
      "hit": false,
      "t": 102380.63499999949,
      "d": 233.13419791666092,
      "v": 110
    },
    {
      "midi": 77,
      "hit": false,
      "t": 102380.63499999949,
      "d": 233.13419791666092,
      "v": 110
    },
    {
      "midi": 67,
      "hit": false,
      "t": 102618.72949999948,
      "d": 233.13419791666092,
      "v": 110
    },
    {
      "midi": 71,
      "hit": false,
      "t": 102618.72949999948,
      "d": 233.13419791666092,
      "v": 110
    },
    {
      "midi": 60,
      "hit": false,
      "t": 102856.82399999947,
      "d": 396.8241666666727,
      "v": 110
    },
    {
      "midi": 64,
      "hit": false,
      "t": 102856.82399999947,
      "d": 396.8241666666727,
      "v": 110
    },
    {
      "midi": 67,
      "hit": false,
      "t": 102856.82399999947,
      "d": 396.8241666666727,
      "v": 110
    },
    {
      "midi": 72,
      "hit": false,
      "t": 102856.82399999947,
      "d": 396.8241666666727,
      "v": 110
    },
    {
      "midi": 60,
      "hit": false,
      "t": 103333.01299999948,
      "d": 233.13419791666092,
      "v": 110
    },
    {
      "midi": 64,
      "hit": false,
      "t": 103333.01299999948,
      "d": 233.13419791666092,
      "v": 110
    },
    {
      "midi": 67,
      "hit": false,
      "t": 103333.01299999948,
      "d": 233.13419791666092,
      "v": 110
    },
    {
      "midi": 72,
      "hit": false,
      "t": 103333.01299999948,
      "d": 233.13419791666092,
      "v": 110
    },
    {
      "midi": 60,
      "hit": false,
      "t": 103571.10749999947,
      "d": 471.22869791666744,
      "v": 110
    },
    {
      "midi": 64,
      "hit": false,
      "t": 103571.10749999947,
      "d": 471.22869791666744,
      "v": 110
    },
    {
      "midi": 67,
      "hit": false,
      "t": 103571.10749999947,
      "d": 471.22869791666744,
      "v": 110
    },
    {
      "midi": 72,
      "hit": false,
      "t": 103571.10749999947,
      "d": 471.22869791666744,
      "v": 110
    },
    {
      "midi": 79,
      "hit": false,
      "t": 103571.10749999947,
      "d": 471.22869791666744,
      "v": 110
    },
    {
      "midi": 60,
      "hit": false,
      "t": 104047.29649999947,
      "d": 233.13419791666092,
      "v": 110
    },
    {
      "midi": 64,
      "hit": false,
      "t": 104047.29649999947,
      "d": 233.13419791666092,
      "v": 110
    },
    {
      "midi": 67,
      "hit": false,
      "t": 104047.29649999947,
      "d": 233.13419791666092,
      "v": 110
    },
    {
      "midi": 72,
      "hit": false,
      "t": 104047.29649999947,
      "d": 233.13419791666092,
      "v": 110
    },
    {
      "midi": 79,
      "hit": false,
      "t": 104047.29649999947,
      "d": 233.13419791666092,
      "v": 110
    },
    {
      "midi": 60,
      "hit": false,
      "t": 104285.39099999946,
      "d": 352.1814479166642,
      "v": 110
    },
    {
      "midi": 64,
      "hit": false,
      "t": 104285.39099999946,
      "d": 352.1814479166642,
      "v": 110
    },
    {
      "midi": 67,
      "hit": false,
      "t": 104285.39099999946,
      "d": 352.1814479166642,
      "v": 110
    },
    {
      "midi": 72,
      "hit": false,
      "t": 104285.39099999946,
      "d": 352.1814479166642,
      "v": 110
    },
    {
      "midi": 79,
      "hit": false,
      "t": 104285.39099999946,
      "d": 352.1814479166642,
      "v": 110
    },
    {
      "midi": 72,
      "hit": false,
      "t": 104642.53274999946,
      "d": 114.08694791667222,
      "v": 110
    },
    {
      "midi": 79,
      "hit": false,
      "t": 104642.53274999946,
      "d": 114.08694791667222,
      "v": 110
    },
    {
      "midi": 62,
      "hit": false,
      "t": 104761.57999999946,
      "d": 233.13419791666092,
      "v": 110
    },
    {
      "midi": 67,
      "hit": false,
      "t": 104761.57999999946,
      "d": 233.13419791666092,
      "v": 110
    },
    {
      "midi": 71,
      "hit": false,
      "t": 104761.57999999946,
      "d": 233.13419791666092,
      "v": 110
    },
    {
      "midi": 62,
      "hit": false,
      "t": 104999.67449999946,
      "d": 233.13419791666092,
      "v": 110
    },
    {
      "midi": 67,
      "hit": false,
      "t": 104999.67449999946,
      "d": 233.13419791666092,
      "v": 110
    },
    {
      "midi": 71,
      "hit": false,
      "t": 104999.67449999946,
      "d": 233.13419791666092,
      "v": 110
    },
    {
      "midi": 62,
      "hit": false,
      "t": 105237.76899999945,
      "d": 233.13419791666092,
      "v": 110
    },
    {
      "midi": 67,
      "hit": false,
      "t": 105237.76899999945,
      "d": 233.13419791666092,
      "v": 110
    },
    {
      "midi": 74,
      "hit": false,
      "t": 105237.76899999945,
      "d": 233.13419791666092,
      "v": 110
    },
    {
      "midi": 79,
      "hit": false,
      "t": 105237.76899999945,
      "d": 233.13419791666092,
      "v": 110
    },
    {
      "midi": 62,
      "hit": false,
      "t": 105475.86349999944,
      "d": 233.13419791666092,
      "v": 110
    },
    {
      "midi": 67,
      "hit": false,
      "t": 105475.86349999944,
      "d": 233.13419791666092,
      "v": 110
    },
    {
      "midi": 74,
      "hit": false,
      "t": 105475.86349999944,
      "d": 233.13419791666092,
      "v": 110
    },
    {
      "midi": 79,
      "hit": false,
      "t": 105475.86349999944,
      "d": 233.13419791666092,
      "v": 110
    },
    {
      "midi": 62,
      "hit": false,
      "t": 105713.95799999943,
      "d": 233.13419791666092,
      "v": 110
    },
    {
      "midi": 67,
      "hit": false,
      "t": 105713.95799999943,
      "d": 233.13419791666092,
      "v": 110
    },
    {
      "midi": 74,
      "hit": false,
      "t": 105713.95799999943,
      "d": 233.13419791666092,
      "v": 110
    },
    {
      "midi": 79,
      "hit": false,
      "t": 105713.95799999943,
      "d": 233.13419791666092,
      "v": 110
    },
    {
      "midi": 62,
      "hit": false,
      "t": 105952.05249999942,
      "d": 233.13419791666092,
      "v": 110
    },
    {
      "midi": 67,
      "hit": false,
      "t": 105952.05249999942,
      "d": 233.13419791666092,
      "v": 110
    },
    {
      "midi": 74,
      "hit": false,
      "t": 105952.05249999942,
      "d": 233.13419791666092,
      "v": 110
    },
    {
      "midi": 79,
      "hit": false,
      "t": 105952.05249999942,
      "d": 233.13419791666092,
      "v": 110
    },
    {
      "midi": 62,
      "hit": false,
      "t": 106190.14699999942,
      "d": 233.13419791666092,
      "v": 110
    },
    {
      "midi": 67,
      "hit": false,
      "t": 106190.14699999942,
      "d": 233.13419791666092,
      "v": 110
    },
    {
      "midi": 74,
      "hit": false,
      "t": 106190.14699999942,
      "d": 233.13419791666092,
      "v": 110
    },
    {
      "midi": 79,
      "hit": false,
      "t": 106190.14699999942,
      "d": 233.13419791666092,
      "v": 110
    },
    {
      "midi": 67,
      "hit": false,
      "t": 106428.2414999994,
      "d": 233.13419791666092,
      "v": 110
    },
    {
      "midi": 74,
      "hit": false,
      "t": 106428.2414999994,
      "d": 233.13419791666092,
      "v": 110
    },
    {
      "midi": 60,
      "hit": false,
      "t": 106666.3359999994,
      "d": 396.8241666666727,
      "v": 110
    },
    {
      "midi": 64,
      "hit": false,
      "t": 106666.3359999994,
      "d": 396.8241666666727,
      "v": 110
    },
    {
      "midi": 67,
      "hit": false,
      "t": 106666.3359999994,
      "d": 396.8241666666727,
      "v": 110
    },
    {
      "midi": 72,
      "hit": false,
      "t": 106666.3359999994,
      "d": 396.8241666666727,
      "v": 110
    },
    {
      "midi": 60,
      "hit": false,
      "t": 107142.52499999941,
      "d": 233.13419791666092,
      "v": 110
    },
    {
      "midi": 64,
      "hit": false,
      "t": 107142.52499999941,
      "d": 233.13419791666092,
      "v": 110
    },
    {
      "midi": 67,
      "hit": false,
      "t": 107142.52499999941,
      "d": 233.13419791666092,
      "v": 110
    },
    {
      "midi": 72,
      "hit": false,
      "t": 107142.52499999941,
      "d": 233.13419791666092,
      "v": 110
    },
    {
      "midi": 60,
      "hit": false,
      "t": 107380.6194999994,
      "d": 471.22869791666744,
      "v": 110
    },
    {
      "midi": 64,
      "hit": false,
      "t": 107380.6194999994,
      "d": 471.22869791666744,
      "v": 110
    },
    {
      "midi": 67,
      "hit": false,
      "t": 107380.6194999994,
      "d": 471.22869791666744,
      "v": 110
    },
    {
      "midi": 72,
      "hit": false,
      "t": 107380.6194999994,
      "d": 471.22869791666744,
      "v": 110
    },
    {
      "midi": 79,
      "hit": false,
      "t": 107380.6194999994,
      "d": 471.22869791666744,
      "v": 110
    },
    {
      "midi": 60,
      "hit": false,
      "t": 107856.8084999994,
      "d": 233.13419791666092,
      "v": 110
    },
    {
      "midi": 64,
      "hit": false,
      "t": 107856.8084999994,
      "d": 233.13419791666092,
      "v": 110
    },
    {
      "midi": 67,
      "hit": false,
      "t": 107856.8084999994,
      "d": 233.13419791666092,
      "v": 110
    },
    {
      "midi": 72,
      "hit": false,
      "t": 107856.8084999994,
      "d": 233.13419791666092,
      "v": 110
    },
    {
      "midi": 79,
      "hit": false,
      "t": 107856.8084999994,
      "d": 233.13419791666092,
      "v": 110
    },
    {
      "midi": 60,
      "hit": false,
      "t": 108094.9029999994,
      "d": 233.13419791666092,
      "v": 110
    },
    {
      "midi": 64,
      "hit": false,
      "t": 108094.9029999994,
      "d": 233.13419791666092,
      "v": 110
    },
    {
      "midi": 67,
      "hit": false,
      "t": 108094.9029999994,
      "d": 233.13419791666092,
      "v": 110
    },
    {
      "midi": 72,
      "hit": false,
      "t": 108094.9029999994,
      "d": 233.13419791666092,
      "v": 110
    },
    {
      "midi": 79,
      "hit": false,
      "t": 108094.9029999994,
      "d": 233.13419791666092,
      "v": 110
    },
    {
      "midi": 67,
      "hit": false,
      "t": 108332.99749999939,
      "d": 233.13419791666092,
      "v": 110
    },
    {
      "midi": 72,
      "hit": false,
      "t": 108332.99749999939,
      "d": 233.13419791666092,
      "v": 110
    },
    {
      "midi": 57,
      "hit": false,
      "t": 108571.09199999938,
      "d": 396.8241666666727,
      "v": 110
    },
    {
      "midi": 64,
      "hit": false,
      "t": 108571.09199999938,
      "d": 396.8241666666727,
      "v": 110
    },
    {
      "midi": 69,
      "hit": false,
      "t": 108571.09199999938,
      "d": 396.8241666666727,
      "v": 110
    },
    {
      "midi": 72,
      "hit": false,
      "t": 108571.09199999938,
      "d": 396.8241666666727,
      "v": 110
    },
    {
      "midi": 57,
      "hit": false,
      "t": 109047.28099999939,
      "d": 233.13419791666092,
      "v": 110
    },
    {
      "midi": 64,
      "hit": false,
      "t": 109047.28099999939,
      "d": 233.13419791666092,
      "v": 110
    },
    {
      "midi": 69,
      "hit": false,
      "t": 109047.28099999939,
      "d": 233.13419791666092,
      "v": 110
    },
    {
      "midi": 72,
      "hit": false,
      "t": 109047.28099999939,
      "d": 233.13419791666092,
      "v": 110
    },
    {
      "midi": 57,
      "hit": false,
      "t": 109285.37549999938,
      "d": 471.22869791666744,
      "v": 110
    },
    {
      "midi": 64,
      "hit": false,
      "t": 109285.37549999938,
      "d": 471.22869791666744,
      "v": 110
    },
    {
      "midi": 69,
      "hit": false,
      "t": 109285.37549999938,
      "d": 471.22869791666744,
      "v": 110
    },
    {
      "midi": 72,
      "hit": false,
      "t": 109285.37549999938,
      "d": 471.22869791666744,
      "v": 110
    },
    {
      "midi": 79,
      "hit": false,
      "t": 109285.37549999938,
      "d": 471.22869791666744,
      "v": 110
    },
    {
      "midi": 57,
      "hit": false,
      "t": 109761.56449999938,
      "d": 233.13419791666092,
      "v": 110
    },
    {
      "midi": 64,
      "hit": false,
      "t": 109761.56449999938,
      "d": 233.13419791666092,
      "v": 110
    },
    {
      "midi": 69,
      "hit": false,
      "t": 109761.56449999938,
      "d": 233.13419791666092,
      "v": 110
    },
    {
      "midi": 72,
      "hit": false,
      "t": 109761.56449999938,
      "d": 233.13419791666092,
      "v": 110
    },
    {
      "midi": 79,
      "hit": false,
      "t": 109761.56449999938,
      "d": 233.13419791666092,
      "v": 110
    },
    {
      "midi": 57,
      "hit": false,
      "t": 109999.65899999937,
      "d": 233.13419791666092,
      "v": 110
    },
    {
      "midi": 64,
      "hit": false,
      "t": 109999.65899999937,
      "d": 233.13419791666092,
      "v": 110
    },
    {
      "midi": 69,
      "hit": false,
      "t": 109999.65899999937,
      "d": 233.13419791666092,
      "v": 110
    },
    {
      "midi": 72,
      "hit": false,
      "t": 109999.65899999937,
      "d": 233.13419791666092,
      "v": 110
    },
    {
      "midi": 79,
      "hit": false,
      "t": 109999.65899999937,
      "d": 233.13419791666092,
      "v": 110
    },
    {
      "midi": 67,
      "hit": false,
      "t": 110237.75349999937,
      "d": 233.13419791666092,
      "v": 110
    },
    {
      "midi": 72,
      "hit": false,
      "t": 110237.75349999937,
      "d": 233.13419791666092,
      "v": 110
    },
    {
      "midi": 55,
      "hit": false,
      "t": 110475.84799999936,
      "d": 396.8241666666727,
      "v": 110
    },
    {
      "midi": 59,
      "hit": false,
      "t": 110475.84799999936,
      "d": 396.8241666666727,
      "v": 110
    },
    {
      "midi": 62,
      "hit": false,
      "t": 110475.84799999936,
      "d": 396.8241666666727,
      "v": 110
    },
    {
      "midi": 67,
      "hit": false,
      "t": 110475.84799999936,
      "d": 396.8241666666727,
      "v": 110
    },
    {
      "midi": 72,
      "hit": false,
      "t": 110475.84799999936,
      "d": 396.8241666666727,
      "v": 110
    },
    {
      "midi": 55,
      "hit": false,
      "t": 110952.03699999937,
      "d": 233.13419791666092,
      "v": 110
    },
    {
      "midi": 59,
      "hit": false,
      "t": 110952.03699999937,
      "d": 233.13419791666092,
      "v": 110
    },
    {
      "midi": 62,
      "hit": false,
      "t": 110952.03699999937,
      "d": 233.13419791666092,
      "v": 110
    },
    {
      "midi": 67,
      "hit": false,
      "t": 110952.03699999937,
      "d": 233.13419791666092,
      "v": 110
    },
    {
      "midi": 72,
      "hit": false,
      "t": 110952.03699999937,
      "d": 233.13419791666092,
      "v": 110
    },
    {
      "midi": 55,
      "hit": false,
      "t": 111190.13149999936,
      "d": 471.22869791666744,
      "v": 110
    },
    {
      "midi": 59,
      "hit": false,
      "t": 111190.13149999936,
      "d": 471.22869791666744,
      "v": 110
    },
    {
      "midi": 62,
      "hit": false,
      "t": 111190.13149999936,
      "d": 471.22869791666744,
      "v": 110
    },
    {
      "midi": 67,
      "hit": false,
      "t": 111190.13149999936,
      "d": 471.22869791666744,
      "v": 110
    },
    {
      "midi": 72,
      "hit": false,
      "t": 111190.13149999936,
      "d": 471.22869791666744,
      "v": 110
    },
    {
      "midi": 79,
      "hit": false,
      "t": 111190.13149999936,
      "d": 471.22869791666744,
      "v": 110
    },
    {
      "midi": 55,
      "hit": false,
      "t": 111666.32049999936,
      "d": 233.13419791666092,
      "v": 110
    },
    {
      "midi": 59,
      "hit": false,
      "t": 111666.32049999936,
      "d": 233.13419791666092,
      "v": 110
    },
    {
      "midi": 62,
      "hit": false,
      "t": 111666.32049999936,
      "d": 233.13419791666092,
      "v": 110
    },
    {
      "midi": 67,
      "hit": false,
      "t": 111666.32049999936,
      "d": 233.13419791666092,
      "v": 110
    },
    {
      "midi": 72,
      "hit": false,
      "t": 111666.32049999936,
      "d": 233.13419791666092,
      "v": 110
    },
    {
      "midi": 79,
      "hit": false,
      "t": 111666.32049999936,
      "d": 233.13419791666092,
      "v": 110
    },
    {
      "midi": 55,
      "hit": false,
      "t": 111904.41499999935,
      "d": 396.8241666666727,
      "v": 110
    },
    {
      "midi": 59,
      "hit": false,
      "t": 111904.41499999935,
      "d": 396.8241666666727,
      "v": 110
    },
    {
      "midi": 62,
      "hit": false,
      "t": 111904.41499999935,
      "d": 396.8241666666727,
      "v": 110
    },
    {
      "midi": 67,
      "hit": false,
      "t": 111904.41499999935,
      "d": 396.8241666666727,
      "v": 110
    },
    {
      "midi": 72,
      "hit": false,
      "t": 111904.41499999935,
      "d": 396.8241666666727,
      "v": 110
    },
    {
      "midi": 79,
      "hit": false,
      "t": 111904.41499999935,
      "d": 396.8241666666727,
      "v": 110
    },
    {
      "midi": 53,
      "hit": false,
      "t": 112380.60399999937,
      "d": 233.13419791666092,
      "v": 110
    },
    {
      "midi": 60,
      "hit": false,
      "t": 112380.60399999937,
      "d": 233.13419791666092,
      "v": 110
    },
    {
      "midi": 65,
      "hit": false,
      "t": 112380.60399999937,
      "d": 233.13419791666092,
      "v": 110
    },
    {
      "midi": 69,
      "hit": false,
      "t": 112380.60399999937,
      "d": 233.13419791666092,
      "v": 110
    },
    {
      "midi": 72,
      "hit": false,
      "t": 112380.60399999937,
      "d": 233.13419791666092,
      "v": 110
    },
    {
      "midi": 77,
      "hit": false,
      "t": 112380.60399999937,
      "d": 233.13419791666092,
      "v": 110
    },
    {
      "midi": 53,
      "hit": false,
      "t": 112618.69849999936,
      "d": 233.13419791666092,
      "v": 110
    },
    {
      "midi": 60,
      "hit": false,
      "t": 112618.69849999936,
      "d": 233.13419791666092,
      "v": 110
    },
    {
      "midi": 65,
      "hit": false,
      "t": 112618.69849999936,
      "d": 233.13419791666092,
      "v": 110
    },
    {
      "midi": 69,
      "hit": false,
      "t": 112618.69849999936,
      "d": 233.13419791666092,
      "v": 110
    },
    {
      "midi": 72,
      "hit": false,
      "t": 112618.69849999936,
      "d": 233.13419791666092,
      "v": 110
    },
    {
      "midi": 77,
      "hit": false,
      "t": 112618.69849999936,
      "d": 233.13419791666092,
      "v": 110
    },
    {
      "midi": 53,
      "hit": false,
      "t": 112856.79299999935,
      "d": 233.13419791666092,
      "v": 110
    },
    {
      "midi": 60,
      "hit": false,
      "t": 112856.79299999935,
      "d": 233.13419791666092,
      "v": 110
    },
    {
      "midi": 65,
      "hit": false,
      "t": 112856.79299999935,
      "d": 233.13419791666092,
      "v": 110
    },
    {
      "midi": 69,
      "hit": false,
      "t": 112856.79299999935,
      "d": 233.13419791666092,
      "v": 110
    },
    {
      "midi": 72,
      "hit": false,
      "t": 112856.79299999935,
      "d": 233.13419791666092,
      "v": 110
    },
    {
      "midi": 77,
      "hit": false,
      "t": 112856.79299999935,
      "d": 233.13419791666092,
      "v": 110
    },
    {
      "midi": 53,
      "hit": false,
      "t": 113094.88749999934,
      "d": 471.22869791666744,
      "v": 110
    },
    {
      "midi": 60,
      "hit": false,
      "t": 113094.88749999934,
      "d": 471.22869791666744,
      "v": 110
    },
    {
      "midi": 65,
      "hit": false,
      "t": 113094.88749999934,
      "d": 471.22869791666744,
      "v": 110
    },
    {
      "midi": 69,
      "hit": false,
      "t": 113094.88749999934,
      "d": 471.22869791666744,
      "v": 110
    },
    {
      "midi": 72,
      "hit": false,
      "t": 113094.88749999934,
      "d": 471.22869791666744,
      "v": 110
    },
    {
      "midi": 77,
      "hit": false,
      "t": 113094.88749999934,
      "d": 471.22869791666744,
      "v": 110
    },
    {
      "midi": 53,
      "hit": false,
      "t": 113571.07649999934,
      "d": 233.13419791666092,
      "v": 110
    },
    {
      "midi": 60,
      "hit": false,
      "t": 113571.07649999934,
      "d": 233.13419791666092,
      "v": 110
    },
    {
      "midi": 65,
      "hit": false,
      "t": 113571.07649999934,
      "d": 233.13419791666092,
      "v": 110
    },
    {
      "midi": 69,
      "hit": false,
      "t": 113571.07649999934,
      "d": 233.13419791666092,
      "v": 110
    },
    {
      "midi": 72,
      "hit": false,
      "t": 113571.07649999934,
      "d": 233.13419791666092,
      "v": 110
    },
    {
      "midi": 77,
      "hit": false,
      "t": 113571.07649999934,
      "d": 233.13419791666092,
      "v": 110
    },
    {
      "midi": 53,
      "hit": false,
      "t": 113809.17099999933,
      "d": 233.13419791666092,
      "v": 110
    },
    {
      "midi": 60,
      "hit": false,
      "t": 113809.17099999933,
      "d": 233.13419791666092,
      "v": 110
    },
    {
      "midi": 65,
      "hit": false,
      "t": 113809.17099999933,
      "d": 233.13419791666092,
      "v": 110
    },
    {
      "midi": 69,
      "hit": false,
      "t": 113809.17099999933,
      "d": 233.13419791666092,
      "v": 110
    },
    {
      "midi": 72,
      "hit": false,
      "t": 113809.17099999933,
      "d": 233.13419791666092,
      "v": 110
    },
    {
      "midi": 77,
      "hit": false,
      "t": 113809.17099999933,
      "d": 233.13419791666092,
      "v": 110
    },
    {
      "midi": 67,
      "hit": false,
      "t": 114047.26549999932,
      "d": 233.13419791666092,
      "v": 110
    },
    {
      "midi": 71,
      "hit": false,
      "t": 114047.26549999932,
      "d": 233.13419791666092,
      "v": 110
    },
    {
      "midi": 60,
      "hit": false,
      "t": 114285.35999999932,
      "d": 396.8241666666727,
      "v": 110
    },
    {
      "midi": 64,
      "hit": false,
      "t": 114285.35999999932,
      "d": 396.8241666666727,
      "v": 110
    },
    {
      "midi": 67,
      "hit": false,
      "t": 114285.35999999932,
      "d": 396.8241666666727,
      "v": 110
    },
    {
      "midi": 72,
      "hit": false,
      "t": 114285.35999999932,
      "d": 396.8241666666727,
      "v": 110
    },
    {
      "midi": 60,
      "hit": false,
      "t": 114761.54899999933,
      "d": 233.13419791666092,
      "v": 110
    },
    {
      "midi": 64,
      "hit": false,
      "t": 114761.54899999933,
      "d": 233.13419791666092,
      "v": 110
    },
    {
      "midi": 67,
      "hit": false,
      "t": 114761.54899999933,
      "d": 233.13419791666092,
      "v": 110
    },
    {
      "midi": 72,
      "hit": false,
      "t": 114761.54899999933,
      "d": 233.13419791666092,
      "v": 110
    },
    {
      "midi": 60,
      "hit": false,
      "t": 114999.64349999932,
      "d": 471.22869791666744,
      "v": 110
    },
    {
      "midi": 64,
      "hit": false,
      "t": 114999.64349999932,
      "d": 471.22869791666744,
      "v": 110
    },
    {
      "midi": 67,
      "hit": false,
      "t": 114999.64349999932,
      "d": 471.22869791666744,
      "v": 110
    },
    {
      "midi": 72,
      "hit": false,
      "t": 114999.64349999932,
      "d": 471.22869791666744,
      "v": 110
    },
    {
      "midi": 79,
      "hit": false,
      "t": 114999.64349999932,
      "d": 471.22869791666744,
      "v": 110
    },
    {
      "midi": 60,
      "hit": false,
      "t": 115475.83249999932,
      "d": 233.13419791666092,
      "v": 110
    },
    {
      "midi": 64,
      "hit": false,
      "t": 115475.83249999932,
      "d": 233.13419791666092,
      "v": 110
    },
    {
      "midi": 67,
      "hit": false,
      "t": 115475.83249999932,
      "d": 233.13419791666092,
      "v": 110
    },
    {
      "midi": 72,
      "hit": false,
      "t": 115475.83249999932,
      "d": 233.13419791666092,
      "v": 110
    },
    {
      "midi": 79,
      "hit": false,
      "t": 115475.83249999932,
      "d": 233.13419791666092,
      "v": 110
    },
    {
      "midi": 60,
      "hit": false,
      "t": 115713.92699999931,
      "d": 233.13419791666092,
      "v": 110
    },
    {
      "midi": 64,
      "hit": false,
      "t": 115713.92699999931,
      "d": 233.13419791666092,
      "v": 110
    },
    {
      "midi": 67,
      "hit": false,
      "t": 115713.92699999931,
      "d": 233.13419791666092,
      "v": 110
    },
    {
      "midi": 72,
      "hit": false,
      "t": 115713.92699999931,
      "d": 233.13419791666092,
      "v": 110
    },
    {
      "midi": 79,
      "hit": false,
      "t": 115713.92699999931,
      "d": 233.13419791666092,
      "v": 110
    },
    {
      "midi": 67,
      "hit": false,
      "t": 115952.0214999993,
      "d": 233.13419791666092,
      "v": 110
    },
    {
      "midi": 72,
      "hit": false,
      "t": 115952.0214999993,
      "d": 233.13419791666092,
      "v": 110
    },
    {
      "midi": 55,
      "hit": false,
      "t": 116190.1159999993,
      "d": 396.8241666666727,
      "v": 110
    },
    {
      "midi": 59,
      "hit": false,
      "t": 116190.1159999993,
      "d": 396.8241666666727,
      "v": 110
    },
    {
      "midi": 62,
      "hit": false,
      "t": 116190.1159999993,
      "d": 396.8241666666727,
      "v": 110
    },
    {
      "midi": 67,
      "hit": false,
      "t": 116190.1159999993,
      "d": 396.8241666666727,
      "v": 110
    },
    {
      "midi": 74,
      "hit": false,
      "t": 116190.1159999993,
      "d": 396.8241666666727,
      "v": 110
    },
    {
      "midi": 79,
      "hit": false,
      "t": 116190.1159999993,
      "d": 396.8241666666727,
      "v": 110
    },
    {
      "midi": 55,
      "hit": false,
      "t": 116666.30499999931,
      "d": 233.13419791666092,
      "v": 110
    },
    {
      "midi": 59,
      "hit": false,
      "t": 116666.30499999931,
      "d": 233.13419791666092,
      "v": 110
    },
    {
      "midi": 62,
      "hit": false,
      "t": 116666.30499999931,
      "d": 233.13419791666092,
      "v": 110
    },
    {
      "midi": 67,
      "hit": false,
      "t": 116666.30499999931,
      "d": 233.13419791666092,
      "v": 110
    },
    {
      "midi": 74,
      "hit": false,
      "t": 116666.30499999931,
      "d": 233.13419791666092,
      "v": 110
    },
    {
      "midi": 79,
      "hit": false,
      "t": 116666.30499999931,
      "d": 233.13419791666092,
      "v": 110
    },
    {
      "midi": 67,
      "hit": false,
      "t": 116904.3994999993,
      "d": 233.13419791666092,
      "v": 110
    },
    {
      "midi": 71,
      "hit": false,
      "t": 116904.3994999993,
      "d": 233.13419791666092,
      "v": 110
    },
    {
      "midi": 53,
      "hit": false,
      "t": 117142.4939999993,
      "d": 396.8241666666727,
      "v": 110
    },
    {
      "midi": 60,
      "hit": false,
      "t": 117142.4939999993,
      "d": 396.8241666666727,
      "v": 110
    },
    {
      "midi": 65,
      "hit": false,
      "t": 117142.4939999993,
      "d": 396.8241666666727,
      "v": 110
    },
    {
      "midi": 69,
      "hit": false,
      "t": 117142.4939999993,
      "d": 396.8241666666727,
      "v": 110
    },
    {
      "midi": 72,
      "hit": false,
      "t": 117142.4939999993,
      "d": 396.8241666666727,
      "v": 110
    },
    {
      "midi": 77,
      "hit": false,
      "t": 117142.4939999993,
      "d": 396.8241666666727,
      "v": 110
    },
    {
      "midi": 53,
      "hit": false,
      "t": 117618.6829999993,
      "d": 233.13419791666092,
      "v": 110
    },
    {
      "midi": 60,
      "hit": false,
      "t": 117618.6829999993,
      "d": 233.13419791666092,
      "v": 110
    },
    {
      "midi": 65,
      "hit": false,
      "t": 117618.6829999993,
      "d": 233.13419791666092,
      "v": 110
    },
    {
      "midi": 69,
      "hit": false,
      "t": 117618.6829999993,
      "d": 233.13419791666092,
      "v": 110
    },
    {
      "midi": 72,
      "hit": false,
      "t": 117618.6829999993,
      "d": 233.13419791666092,
      "v": 110
    },
    {
      "midi": 77,
      "hit": false,
      "t": 117618.6829999993,
      "d": 233.13419791666092,
      "v": 110
    },
    {
      "midi": 67,
      "hit": false,
      "t": 117856.7774999993,
      "d": 233.13419791666092,
      "v": 110
    },
    {
      "midi": 71,
      "hit": false,
      "t": 117856.7774999993,
      "d": 233.13419791666092,
      "v": 110
    },
    {
      "midi": 60,
      "hit": false,
      "t": 118094.87199999929,
      "d": 396.8241666666727,
      "v": 110
    },
    {
      "midi": 64,
      "hit": false,
      "t": 118094.87199999929,
      "d": 396.8241666666727,
      "v": 110
    },
    {
      "midi": 67,
      "hit": false,
      "t": 118094.87199999929,
      "d": 396.8241666666727,
      "v": 110
    },
    {
      "midi": 72,
      "hit": false,
      "t": 118094.87199999929,
      "d": 396.8241666666727,
      "v": 110
    },
    {
      "midi": 60,
      "hit": false,
      "t": 118571.0609999993,
      "d": 233.13419791666092,
      "v": 110
    },
    {
      "midi": 64,
      "hit": false,
      "t": 118571.0609999993,
      "d": 233.13419791666092,
      "v": 110
    },
    {
      "midi": 67,
      "hit": false,
      "t": 118571.0609999993,
      "d": 233.13419791666092,
      "v": 110
    },
    {
      "midi": 72,
      "hit": false,
      "t": 118571.0609999993,
      "d": 233.13419791666092,
      "v": 110
    },
    {
      "midi": 60,
      "hit": false,
      "t": 118809.1554999993,
      "d": 471.22869791666744,
      "v": 110
    },
    {
      "midi": 64,
      "hit": false,
      "t": 118809.1554999993,
      "d": 471.22869791666744,
      "v": 110
    },
    {
      "midi": 67,
      "hit": false,
      "t": 118809.1554999993,
      "d": 471.22869791666744,
      "v": 110
    },
    {
      "midi": 72,
      "hit": false,
      "t": 118809.1554999993,
      "d": 471.22869791666744,
      "v": 110
    },
    {
      "midi": 79,
      "hit": false,
      "t": 118809.1554999993,
      "d": 471.22869791666744,
      "v": 110
    },
    {
      "midi": 60,
      "hit": false,
      "t": 119285.3444999993,
      "d": 233.13419791666092,
      "v": 110
    },
    {
      "midi": 64,
      "hit": false,
      "t": 119285.3444999993,
      "d": 233.13419791666092,
      "v": 110
    },
    {
      "midi": 67,
      "hit": false,
      "t": 119285.3444999993,
      "d": 233.13419791666092,
      "v": 110
    },
    {
      "midi": 72,
      "hit": false,
      "t": 119285.3444999993,
      "d": 233.13419791666092,
      "v": 110
    },
    {
      "midi": 79,
      "hit": false,
      "t": 119285.3444999993,
      "d": 233.13419791666092,
      "v": 110
    },
    {
      "midi": 60,
      "hit": false,
      "t": 119523.43899999929,
      "d": 233.13419791666092,
      "v": 110
    },
    {
      "midi": 64,
      "hit": false,
      "t": 119523.43899999929,
      "d": 233.13419791666092,
      "v": 110
    },
    {
      "midi": 67,
      "hit": false,
      "t": 119523.43899999929,
      "d": 233.13419791666092,
      "v": 110
    },
    {
      "midi": 72,
      "hit": false,
      "t": 119523.43899999929,
      "d": 233.13419791666092,
      "v": 110
    },
    {
      "midi": 79,
      "hit": false,
      "t": 119523.43899999929,
      "d": 233.13419791666092,
      "v": 110
    },
    {
      "midi": 67,
      "hit": false,
      "t": 119761.53349999928,
      "d": 233.13419791666092,
      "v": 110
    },
    {
      "midi": 72,
      "hit": false,
      "t": 119761.53349999928,
      "d": 233.13419791666092,
      "v": 110
    },
    {
      "midi": 55,
      "hit": false,
      "t": 119999.62799999927,
      "d": 396.8241666666727,
      "v": 110
    },
    {
      "midi": 59,
      "hit": false,
      "t": 119999.62799999927,
      "d": 396.8241666666727,
      "v": 110
    },
    {
      "midi": 62,
      "hit": false,
      "t": 119999.62799999927,
      "d": 396.8241666666727,
      "v": 110
    },
    {
      "midi": 67,
      "hit": false,
      "t": 119999.62799999927,
      "d": 396.8241666666727,
      "v": 110
    },
    {
      "midi": 74,
      "hit": false,
      "t": 119999.62799999927,
      "d": 396.8241666666727,
      "v": 110
    },
    {
      "midi": 79,
      "hit": false,
      "t": 119999.62799999927,
      "d": 396.8241666666727,
      "v": 110
    },
    {
      "midi": 55,
      "hit": false,
      "t": 120475.81699999928,
      "d": 233.13419791666092,
      "v": 110
    },
    {
      "midi": 59,
      "hit": false,
      "t": 120475.81699999928,
      "d": 233.13419791666092,
      "v": 110
    },
    {
      "midi": 62,
      "hit": false,
      "t": 120475.81699999928,
      "d": 233.13419791666092,
      "v": 110
    },
    {
      "midi": 67,
      "hit": false,
      "t": 120475.81699999928,
      "d": 233.13419791666092,
      "v": 110
    },
    {
      "midi": 74,
      "hit": false,
      "t": 120475.81699999928,
      "d": 233.13419791666092,
      "v": 110
    },
    {
      "midi": 79,
      "hit": false,
      "t": 120475.81699999928,
      "d": 233.13419791666092,
      "v": 110
    },
    {
      "midi": 67,
      "hit": false,
      "t": 120713.91149999927,
      "d": 233.13419791666092,
      "v": 110
    },
    {
      "midi": 71,
      "hit": false,
      "t": 120713.91149999927,
      "d": 233.13419791666092,
      "v": 110
    },
    {
      "midi": 53,
      "hit": false,
      "t": 120952.00599999927,
      "d": 396.8241666666727,
      "v": 110
    },
    {
      "midi": 60,
      "hit": false,
      "t": 120952.00599999927,
      "d": 396.8241666666727,
      "v": 110
    },
    {
      "midi": 65,
      "hit": false,
      "t": 120952.00599999927,
      "d": 396.8241666666727,
      "v": 110
    },
    {
      "midi": 69,
      "hit": false,
      "t": 120952.00599999927,
      "d": 396.8241666666727,
      "v": 110
    },
    {
      "midi": 72,
      "hit": false,
      "t": 120952.00599999927,
      "d": 396.8241666666727,
      "v": 110
    },
    {
      "midi": 77,
      "hit": false,
      "t": 120952.00599999927,
      "d": 396.8241666666727,
      "v": 110
    },
    {
      "midi": 53,
      "hit": false,
      "t": 121428.19499999928,
      "d": 233.13419791666092,
      "v": 110
    },
    {
      "midi": 60,
      "hit": false,
      "t": 121428.19499999928,
      "d": 233.13419791666092,
      "v": 110
    },
    {
      "midi": 65,
      "hit": false,
      "t": 121428.19499999928,
      "d": 233.13419791666092,
      "v": 110
    },
    {
      "midi": 69,
      "hit": false,
      "t": 121428.19499999928,
      "d": 233.13419791666092,
      "v": 110
    },
    {
      "midi": 72,
      "hit": false,
      "t": 121428.19499999928,
      "d": 233.13419791666092,
      "v": 110
    },
    {
      "midi": 77,
      "hit": false,
      "t": 121428.19499999928,
      "d": 233.13419791666092,
      "v": 110
    },
    {
      "midi": 67,
      "hit": false,
      "t": 121666.28949999927,
      "d": 233.13419791666092,
      "v": 110
    },
    {
      "midi": 71,
      "hit": false,
      "t": 121666.28949999927,
      "d": 233.13419791666092,
      "v": 110
    },
    {
      "midi": 60,
      "hit": false,
      "t": 121904.38399999926,
      "d": 396.8241666666727,
      "v": 110
    },
    {
      "midi": 64,
      "hit": false,
      "t": 121904.38399999926,
      "d": 396.8241666666727,
      "v": 110
    },
    {
      "midi": 67,
      "hit": false,
      "t": 121904.38399999926,
      "d": 396.8241666666727,
      "v": 110
    },
    {
      "midi": 72,
      "hit": false,
      "t": 121904.38399999926,
      "d": 396.8241666666727,
      "v": 110
    },
    {
      "midi": 60,
      "hit": false,
      "t": 122380.57299999928,
      "d": 233.13419791666092,
      "v": 110
    },
    {
      "midi": 64,
      "hit": false,
      "t": 122380.57299999928,
      "d": 233.13419791666092,
      "v": 110
    },
    {
      "midi": 67,
      "hit": false,
      "t": 122380.57299999928,
      "d": 233.13419791666092,
      "v": 110
    },
    {
      "midi": 72,
      "hit": false,
      "t": 122380.57299999928,
      "d": 233.13419791666092,
      "v": 110
    },
    {
      "midi": 60,
      "hit": false,
      "t": 122618.66749999927,
      "d": 471.22869791666744,
      "v": 110
    },
    {
      "midi": 64,
      "hit": false,
      "t": 122618.66749999927,
      "d": 471.22869791666744,
      "v": 110
    },
    {
      "midi": 67,
      "hit": false,
      "t": 122618.66749999927,
      "d": 471.22869791666744,
      "v": 110
    },
    {
      "midi": 72,
      "hit": false,
      "t": 122618.66749999927,
      "d": 471.22869791666744,
      "v": 110
    },
    {
      "midi": 79,
      "hit": false,
      "t": 122618.66749999927,
      "d": 471.22869791666744,
      "v": 110
    },
    {
      "midi": 60,
      "hit": false,
      "t": 123094.85649999927,
      "d": 233.13419791666092,
      "v": 110
    },
    {
      "midi": 64,
      "hit": false,
      "t": 123094.85649999927,
      "d": 233.13419791666092,
      "v": 110
    },
    {
      "midi": 67,
      "hit": false,
      "t": 123094.85649999927,
      "d": 233.13419791666092,
      "v": 110
    },
    {
      "midi": 72,
      "hit": false,
      "t": 123094.85649999927,
      "d": 233.13419791666092,
      "v": 110
    },
    {
      "midi": 79,
      "hit": false,
      "t": 123094.85649999927,
      "d": 233.13419791666092,
      "v": 110
    },
    {
      "midi": 60,
      "hit": false,
      "t": 123332.95099999926,
      "d": 233.13419791666092,
      "v": 110
    },
    {
      "midi": 64,
      "hit": false,
      "t": 123332.95099999926,
      "d": 233.13419791666092,
      "v": 110
    },
    {
      "midi": 67,
      "hit": false,
      "t": 123332.95099999926,
      "d": 233.13419791666092,
      "v": 110
    },
    {
      "midi": 72,
      "hit": false,
      "t": 123332.95099999926,
      "d": 233.13419791666092,
      "v": 110
    },
    {
      "midi": 79,
      "hit": false,
      "t": 123332.95099999926,
      "d": 233.13419791666092,
      "v": 110
    },
    {
      "midi": 67,
      "hit": false,
      "t": 123571.04549999925,
      "d": 233.13419791666092,
      "v": 110
    },
    {
      "midi": 72,
      "hit": false,
      "t": 123571.04549999925,
      "d": 233.13419791666092,
      "v": 110
    },
    {
      "midi": 55,
      "hit": false,
      "t": 123809.13999999924,
      "d": 396.8241666666727,
      "v": 110
    },
    {
      "midi": 59,
      "hit": false,
      "t": 123809.13999999924,
      "d": 396.8241666666727,
      "v": 110
    },
    {
      "midi": 62,
      "hit": false,
      "t": 123809.13999999924,
      "d": 396.8241666666727,
      "v": 110
    },
    {
      "midi": 67,
      "hit": false,
      "t": 123809.13999999924,
      "d": 396.8241666666727,
      "v": 110
    },
    {
      "midi": 74,
      "hit": false,
      "t": 123809.13999999924,
      "d": 396.8241666666727,
      "v": 110
    },
    {
      "midi": 79,
      "hit": false,
      "t": 123809.13999999924,
      "d": 396.8241666666727,
      "v": 110
    },
    {
      "midi": 55,
      "hit": false,
      "t": 124285.32899999926,
      "d": 233.13419791666092,
      "v": 110
    },
    {
      "midi": 59,
      "hit": false,
      "t": 124285.32899999926,
      "d": 233.13419791666092,
      "v": 110
    },
    {
      "midi": 62,
      "hit": false,
      "t": 124285.32899999926,
      "d": 233.13419791666092,
      "v": 110
    },
    {
      "midi": 67,
      "hit": false,
      "t": 124285.32899999926,
      "d": 233.13419791666092,
      "v": 110
    },
    {
      "midi": 74,
      "hit": false,
      "t": 124285.32899999926,
      "d": 233.13419791666092,
      "v": 110
    },
    {
      "midi": 79,
      "hit": false,
      "t": 124285.32899999926,
      "d": 233.13419791666092,
      "v": 110
    },
    {
      "midi": 67,
      "hit": false,
      "t": 124523.42349999925,
      "d": 233.13419791666092,
      "v": 110
    },
    {
      "midi": 71,
      "hit": false,
      "t": 124523.42349999925,
      "d": 233.13419791666092,
      "v": 110
    },
    {
      "midi": 53,
      "hit": false,
      "t": 124761.51799999924,
      "d": 396.8241666666727,
      "v": 110
    },
    {
      "midi": 60,
      "hit": false,
      "t": 124761.51799999924,
      "d": 396.8241666666727,
      "v": 110
    },
    {
      "midi": 65,
      "hit": false,
      "t": 124761.51799999924,
      "d": 396.8241666666727,
      "v": 110
    },
    {
      "midi": 69,
      "hit": false,
      "t": 124761.51799999924,
      "d": 396.8241666666727,
      "v": 110
    },
    {
      "midi": 72,
      "hit": false,
      "t": 124761.51799999924,
      "d": 396.8241666666727,
      "v": 110
    },
    {
      "midi": 77,
      "hit": false,
      "t": 124761.51799999924,
      "d": 396.8241666666727,
      "v": 110
    },
    {
      "midi": 53,
      "hit": false,
      "t": 125237.70699999925,
      "d": 233.13419791666092,
      "v": 110
    },
    {
      "midi": 60,
      "hit": false,
      "t": 125237.70699999925,
      "d": 233.13419791666092,
      "v": 110
    },
    {
      "midi": 65,
      "hit": false,
      "t": 125237.70699999925,
      "d": 233.13419791666092,
      "v": 110
    },
    {
      "midi": 69,
      "hit": false,
      "t": 125237.70699999925,
      "d": 233.13419791666092,
      "v": 110
    },
    {
      "midi": 72,
      "hit": false,
      "t": 125237.70699999925,
      "d": 233.13419791666092,
      "v": 110
    },
    {
      "midi": 77,
      "hit": false,
      "t": 125237.70699999925,
      "d": 233.13419791666092,
      "v": 110
    },
    {
      "midi": 67,
      "hit": false,
      "t": 125475.80149999924,
      "d": 233.13419791666092,
      "v": 110
    },
    {
      "midi": 71,
      "hit": false,
      "t": 125475.80149999924,
      "d": 233.13419791666092,
      "v": 110
    },
    {
      "midi": 60,
      "hit": false,
      "t": 125713.89599999924,
      "d": 1785.7087500000052,
      "v": 110
    },
    {
      "midi": 64,
      "hit": false,
      "t": 125713.89599999924,
      "d": 1785.7087500000052,
      "v": 110
    },
    {
      "midi": 67,
      "hit": false,
      "t": 125713.89599999924,
      "d": 1785.7087500000052,
      "v": 110
    },
    {
      "midi": 72,
      "hit": false,
      "t": 125713.89599999924,
      "d": 1785.7087500000052,
      "v": 110
    },
    {
      "midi": 60,
      "hit": false,
      "t": 127618.65199999925,
      "d": 396.8241666666727,
      "v": 110
    },
    {
      "midi": 64,
      "hit": false,
      "t": 127618.65199999925,
      "d": 396.8241666666727,
      "v": 110
    },
    {
      "midi": 70,
      "hit": false,
      "t": 127618.65199999925,
      "d": 396.8241666666727,
      "v": 110
    },
    {
      "midi": 72,
      "hit": false,
      "t": 127618.65199999925,
      "d": 396.8241666666727,
      "v": 110
    }
  ]
}