{
  "jsonPath": "Unknown/Unknown/J Pachelbel/canon-man.json",
  "path": "Unknown\\Unknown\\J Pachelbel\\Canon Man.mid",
  "name": "Canon Man",
  "difficulty": "Advanced",
  "bpm": 80,
  "notes": [
    {
      "midi": 62,
      "hit": false,
      "t": 0,
      "d": 1500,
      "v": 100
    },
    {
      "midi": 50,
      "hit": false,
      "t": 0,
      "d": 1500,
      "v": 100
    },
    {
      "midi": 54,
      "hit": false,
      "t": 0,
      "d": 1500,
      "v": 100
    },
    {
      "midi": 74,
      "hit": false,
      "t": 0,
      "d": 1500,
      "v": 100
    },
    {
      "midi": 38,
      "hit": false,
      "t": 0,
      "d": 1500,
      "v": 100
    },
    {
      "midi": 42,
      "hit": false,
      "t": 0,
      "d": 1500,
      "v": 100
    },
    {
      "midi": 66,
      "hit": false,
      "t": 375,
      "d": 375,
      "v": 100
    },
    {
      "midi": 78,
      "hit": false,
      "t": 375,
      "d": 375,
      "v": 100
    },
    {
      "midi": 69,
      "hit": false,
      "t": 750,
      "d": 375,
      "v": 100
    },
    {
      "midi": 81,
      "hit": false,
      "t": 750,
      "d": 375,
      "v": 100
    },
    {
      "midi": 74,
      "hit": false,
      "t": 1125,
      "d": 375,
      "v": 100
    },
    {
      "midi": 86,
      "hit": false,
      "t": 1125,
      "d": 375,
      "v": 100
    },
    {
      "midi": 61,
      "hit": false,
      "t": 1500,
      "d": 1500,
      "v": 100
    },
    {
      "midi": 45,
      "hit": false,
      "t": 1500,
      "d": 1500,
      "v": 100
    },
    {
      "midi": 57,
      "hit": false,
      "t": 1500,
      "d": 1500,
      "v": 100
    },
    {
      "midi": 73,
      "hit": false,
      "t": 1500,
      "d": 1500,
      "v": 100
    },
    {
      "midi": 33,
      "hit": false,
      "t": 1500,
      "d": 1500,
      "v": 100
    },
    {
      "midi": 45,
      "hit": false,
      "t": 1500,
      "d": 1500,
      "v": 100
    },
    {
      "midi": 64,
      "hit": false,
      "t": 1875,
      "d": 375,
      "v": 100
    },
    {
      "midi": 76,
      "hit": false,
      "t": 1875,
      "d": 375,
      "v": 100
    },
    {
      "midi": 69,
      "hit": false,
      "t": 2250,
      "d": 375,
      "v": 100
    },
    {
      "midi": 81,
      "hit": false,
      "t": 2250,
      "d": 375,
      "v": 100
    },
    {
      "midi": 73,
      "hit": false,
      "t": 2625,
      "d": 375,
      "v": 100
    },
    {
      "midi": 85,
      "hit": false,
      "t": 2625,
      "d": 375,
      "v": 100
    },
    {
      "midi": 59,
      "hit": false,
      "t": 3000,
      "d": 1500,
      "v": 100
    },
    {
      "midi": 47,
      "hit": false,
      "t": 3000,
      "d": 1500,
      "v": 100
    },
    {
      "midi": 50,
      "hit": false,
      "t": 3000,
      "d": 1500,
      "v": 100
    },
    {
      "midi": 71,
      "hit": false,
      "t": 3000,
      "d": 1500,
      "v": 100
    },
    {
      "midi": 35,
      "hit": false,
      "t": 3000,
      "d": 1500,
      "v": 100
    },
    {
      "midi": 38,
      "hit": false,
      "t": 3000,
      "d": 1500,
      "v": 100
    },
    {
      "midi": 62,
      "hit": false,
      "t": 3375,
      "d": 375,
      "v": 100
    },
    {
      "midi": 74,
      "hit": false,
      "t": 3375,
      "d": 375,
      "v": 100
    },
    {
      "midi": 66,
      "hit": false,
      "t": 3750,
      "d": 375,
      "v": 100
    },
    {
      "midi": 78,
      "hit": false,
      "t": 3750,
      "d": 375,
      "v": 100
    },
    {
      "midi": 71,
      "hit": false,
      "t": 4125,
      "d": 375,
      "v": 100
    },
    {
      "midi": 83,
      "hit": false,
      "t": 4125,
      "d": 375,
      "v": 100
    },
    {
      "midi": 57,
      "hit": false,
      "t": 4500,
      "d": 1500,
      "v": 100
    },
    {
      "midi": 42,
      "hit": false,
      "t": 4500,
      "d": 1500,
      "v": 100
    },
    {
      "midi": 54,
      "hit": false,
      "t": 4500,
      "d": 1500,
      "v": 100
    },
    {
      "midi": 69,
      "hit": false,
      "t": 4500,
      "d": 1500,
      "v": 100
    },
    {
      "midi": 30,
      "hit": false,
      "t": 4500,
      "d": 1500,
      "v": 100
    },
    {
      "midi": 42,
      "hit": false,
      "t": 4500,
      "d": 1500,
      "v": 100
    },
    {
      "midi": 61,
      "hit": false,
      "t": 4875,
      "d": 375,
      "v": 100
    },
    {
      "midi": 73,
      "hit": false,
      "t": 4875,
      "d": 375,
      "v": 100
    },
    {
      "midi": 66,
      "hit": false,
      "t": 5250,
      "d": 375,
      "v": 100
    },
    {
      "midi": 78,
      "hit": false,
      "t": 5250,
      "d": 375,
      "v": 100
    },
    {
      "midi": 69,
      "hit": false,
      "t": 5625,
      "d": 375,
      "v": 100
    },
    {
      "midi": 81,
      "hit": false,
      "t": 5625,
      "d": 375,
      "v": 100
    },
    {
      "midi": 43,
      "hit": false,
      "t": 6000,
      "d": 1500,
      "v": 100
    },
    {
      "midi": 50,
      "hit": false,
      "t": 6000,
      "d": 1500,
      "v": 100
    },
    {
      "midi": 31,
      "hit": false,
      "t": 6000,
      "d": 1500,
      "v": 100
    },
    {
      "midi": 38,
      "hit": false,
      "t": 6000,
      "d": 1500,
      "v": 100
    },
    {
      "midi": 59,
      "hit": false,
      "t": 6375,
      "d": 375,
      "v": 100
    },
    {
      "midi": 71,
      "hit": false,
      "t": 6375,
      "d": 375,
      "v": 100
    },
    {
      "midi": 62,
      "hit": false,
      "t": 6750,
      "d": 375,
      "v": 100
    },
    {
      "midi": 74,
      "hit": false,
      "t": 6750,
      "d": 375,
      "v": 100
    },
    {
      "midi": 67,
      "hit": false,
      "t": 7125,
      "d": 375,
      "v": 100
    },
    {
      "midi": 79,
      "hit": false,
      "t": 7125,
      "d": 375,
      "v": 100
    },
    {
      "midi": 57,
      "hit": false,
      "t": 7500,
      "d": 1500,
      "v": 100
    },
    {
      "midi": 50,
      "hit": false,
      "t": 7500,
      "d": 1500,
      "v": 100
    },
    {
      "midi": 54,
      "hit": false,
      "t": 7500,
      "d": 1500,
      "v": 100
    },
    {
      "midi": 69,
      "hit": false,
      "t": 7500,
      "d": 1500,
      "v": 100
    },
    {
      "midi": 38,
      "hit": false,
      "t": 7500,
      "d": 1500,
      "v": 100
    },
    {
      "midi": 42,
      "hit": false,
      "t": 7500,
      "d": 1500,
      "v": 100
    },
    {
      "midi": 62,
      "hit": false,
      "t": 7875,
      "d": 375,
      "v": 100
    },
    {
      "midi": 74,
      "hit": false,
      "t": 7875,
      "d": 375,
      "v": 100
    },
    {
      "midi": 66,
      "hit": false,
      "t": 8250,
      "d": 375,
      "v": 100
    },
    {
      "midi": 78,
      "hit": false,
      "t": 8250,
      "d": 375,
      "v": 100
    },
    {
      "midi": 69,
      "hit": false,
      "t": 8625,
      "d": 375,
      "v": 100
    },
    {
      "midi": 81,
      "hit": false,
      "t": 8625,
      "d": 375,
      "v": 100
    },
    {
      "midi": 59,
      "hit": false,
      "t": 9000,
      "d": 1500,
      "v": 100
    },
    {
      "midi": 43,
      "hit": false,
      "t": 9000,
      "d": 1500,
      "v": 100
    },
    {
      "midi": 55,
      "hit": false,
      "t": 9000,
      "d": 1500,
      "v": 100
    },
    {
      "midi": 71,
      "hit": false,
      "t": 9000,
      "d": 1500,
      "v": 100
    },
    {
      "midi": 31,
      "hit": false,
      "t": 9000,
      "d": 1500,
      "v": 100
    },
    {
      "midi": 43,
      "hit": false,
      "t": 9000,
      "d": 1500,
      "v": 100
    },
    {
      "midi": 62,
      "hit": false,
      "t": 9375,
      "d": 375,
      "v": 100
    },
    {
      "midi": 74,
      "hit": false,
      "t": 9375,
      "d": 375,
      "v": 100
    },
    {
      "midi": 67,
      "hit": false,
      "t": 9750,
      "d": 375,
      "v": 100
    },
    {
      "midi": 79,
      "hit": false,
      "t": 9750,
      "d": 375,
      "v": 100
    },
    {
      "midi": 71,
      "hit": false,
      "t": 10125,
      "d": 375,
      "v": 100
    },
    {
      "midi": 83,
      "hit": false,
      "t": 10125,
      "d": 375,
      "v": 100
    },
    {
      "midi": 61,
      "hit": false,
      "t": 10500,
      "d": 1500,
      "v": 100
    },
    {
      "midi": 45,
      "hit": false,
      "t": 10500,
      "d": 1500,
      "v": 100
    },
    {
      "midi": 52,
      "hit": false,
      "t": 10500,
      "d": 1500,
      "v": 100
    },
    {
      "midi": 73,
      "hit": false,
      "t": 10500,
      "d": 1500,
      "v": 100
    },
    {
      "midi": 33,
      "hit": false,
      "t": 10500,
      "d": 1500,
      "v": 100
    },
    {
      "midi": 40,
      "hit": false,
      "t": 10500,
      "d": 1500,
      "v": 100
    },
    {
      "midi": 64,
      "hit": false,
      "t": 10875,
      "d": 375,
      "v": 100
    },
    {
      "midi": 76,
      "hit": false,
      "t": 10875,
      "d": 375,
      "v": 100
    },
    {
      "midi": 69,
      "hit": false,
      "t": 11250,
      "d": 375,
      "v": 100
    },
    {
      "midi": 81,
      "hit": false,
      "t": 11250,
      "d": 375,
      "v": 100
    },
    {
      "midi": 73,
      "hit": false,
      "t": 11625,
      "d": 375,
      "v": 100
    },
    {
      "midi": 85,
      "hit": false,
      "t": 11625,
      "d": 375,
      "v": 100
    },
    {
      "midi": 78,
      "hit": false,
      "t": 12000,
      "d": 1500,
      "v": 100
    },
    {
      "midi": 50,
      "hit": false,
      "t": 12000,
      "d": 1500,
      "v": 100
    },
    {
      "midi": 90,
      "hit": false,
      "t": 12000,
      "d": 1500,
      "v": 100
    },
    {
      "midi": 38,
      "hit": false,
      "t": 12000,
      "d": 1500,
      "v": 100
    },
    {
      "midi": 54,
      "hit": false,
      "t": 12375,
      "d": 375,
      "v": 100
    },
    {
      "midi": 42,
      "hit": false,
      "t": 12375,
      "d": 375,
      "v": 100
    },
    {
      "midi": 57,
      "hit": false,
      "t": 12750,
      "d": 375,
      "v": 100
    },
    {
      "midi": 45,
      "hit": false,
      "t": 12750,
      "d": 375,
      "v": 100
    },
    {
      "midi": 62,
      "hit": false,
      "t": 13125,
      "d": 375,
      "v": 100
    },
    {
      "midi": 50,
      "hit": false,
      "t": 13125,
      "d": 375,
      "v": 100
    },
    {
      "midi": 76,
      "hit": false,
      "t": 13500,
      "d": 1500,
      "v": 100
    },
    {
      "midi": 45,
      "hit": false,
      "t": 13500,
      "d": 1500,
      "v": 100
    },
    {
      "midi": 88,
      "hit": false,
      "t": 13500,
      "d": 1500,
      "v": 100
    },
    {
      "midi": 33,
      "hit": false,
      "t": 13500,
      "d": 1500,
      "v": 100
    },
    {
      "midi": 52,
      "hit": false,
      "t": 13875,
      "d": 375,
      "v": 100
    },
    {
      "midi": 40,
      "hit": false,
      "t": 13875,
      "d": 375,
      "v": 100
    },
    {
      "midi": 57,
      "hit": false,
      "t": 14250,
      "d": 375,
      "v": 100
    },
    {
      "midi": 45,
      "hit": false,
      "t": 14250,
      "d": 375,
      "v": 100
    },
    {
      "midi": 61,
      "hit": false,
      "t": 14625,
      "d": 375,
      "v": 100
    },
    {
      "midi": 49,
      "hit": false,
      "t": 14625,
      "d": 375,
      "v": 100
    },
    {
      "midi": 74,
      "hit": false,
      "t": 15000,
      "d": 1500,
      "v": 100
    },
    {
      "midi": 47,
      "hit": false,
      "t": 15000,
      "d": 1500,
      "v": 100
    },
    {
      "midi": 86,
      "hit": false,
      "t": 15000,
      "d": 1500,
      "v": 100
    },
    {
      "midi": 35,
      "hit": false,
      "t": 15000,
      "d": 1500,
      "v": 100
    },
    {
      "midi": 50,
      "hit": false,
      "t": 15375,
      "d": 375,
      "v": 100
    },
    {
      "midi": 38,
      "hit": false,
      "t": 15375,
      "d": 375,
      "v": 100
    },
    {
      "midi": 54,
      "hit": false,
      "t": 15750,
      "d": 375,
      "v": 100
    },
    {
      "midi": 42,
      "hit": false,
      "t": 15750,
      "d": 375,
      "v": 100
    },
    {
      "midi": 59,
      "hit": false,
      "t": 16125,
      "d": 375,
      "v": 100
    },
    {
      "midi": 47,
      "hit": false,
      "t": 16125,
      "d": 375,
      "v": 100
    },
    {
      "midi": 73,
      "hit": false,
      "t": 16500,
      "d": 1500,
      "v": 100
    },
    {
      "midi": 54,
      "hit": false,
      "t": 16500,
      "d": 1500,
      "v": 100
    },
    {
      "midi": 85,
      "hit": false,
      "t": 16500,
      "d": 1500,
      "v": 100
    },
    {
      "midi": 42,
      "hit": false,
      "t": 16500,
      "d": 1500,
      "v": 100
    },
    {
      "midi": 57,
      "hit": false,
      "t": 16875,
      "d": 375,
      "v": 100
    },
    {
      "midi": 45,
      "hit": false,
      "t": 16875,
      "d": 375,
      "v": 100
    },
    {
      "midi": 61,
      "hit": false,
      "t": 17250,
      "d": 375,
      "v": 100
    },
    {
      "midi": 49,
      "hit": false,
      "t": 17250,
      "d": 375,
      "v": 100
    },
    {
      "midi": 66,
      "hit": false,
      "t": 17625,
      "d": 375,
      "v": 100
    },
    {
      "midi": 54,
      "hit": false,
      "t": 17625,
      "d": 375,
      "v": 100
    },
    {
      "midi": 71,
      "hit": false,
      "t": 18000,
      "d": 1500,
      "v": 100
    },
    {
      "midi": 55,
      "hit": false,
      "t": 18000,
      "d": 1500,
      "v": 100
    },
    {
      "midi": 83,
      "hit": false,
      "t": 18000,
      "d": 1500,
      "v": 100
    },
    {
      "midi": 43,
      "hit": false,
      "t": 18000,
      "d": 1500,
      "v": 100
    },
    {
      "midi": 59,
      "hit": false,
      "t": 18375,
      "d": 375,
      "v": 100
    },
    {
      "midi": 71,
      "hit": false,
      "t": 18375,
      "d": 375,
      "v": 100
    },
    {
      "midi": 62,
      "hit": false,
      "t": 18750,
      "d": 375,
      "v": 100
    },
    {
      "midi": 74,
      "hit": false,
      "t": 18750,
      "d": 375,
      "v": 100
    },
    {
      "midi": 67,
      "hit": false,
      "t": 19125,
      "d": 375,
      "v": 100
    },
    {
      "midi": 79,
      "hit": false,
      "t": 19125,
      "d": 375,
      "v": 100
    },
    {
      "midi": 69,
      "hit": false,
      "t": 19500,
      "d": 1500,
      "v": 100
    },
    {
      "midi": 50,
      "hit": false,
      "t": 19500,
      "d": 1500,
      "v": 100
    },
    {
      "midi": 81,
      "hit": false,
      "t": 19500,
      "d": 1500,
      "v": 100
    },
    {
      "midi": 38,
      "hit": false,
      "t": 19500,
      "d": 1500,
      "v": 100
    },
    {
      "midi": 54,
      "hit": false,
      "t": 19875,
      "d": 375,
      "v": 100
    },
    {
      "midi": 42,
      "hit": false,
      "t": 19875,
      "d": 375,
      "v": 100
    },
    {
      "midi": 57,
      "hit": false,
      "t": 20250,
      "d": 375,
      "v": 100
    },
    {
      "midi": 45,
      "hit": false,
      "t": 20250,
      "d": 375,
      "v": 100
    },
    {
      "midi": 62,
      "hit": false,
      "t": 20625,
      "d": 375,
      "v": 100
    },
    {
      "midi": 50,
      "hit": false,
      "t": 20625,
      "d": 375,
      "v": 100
    },
    {
      "midi": 71,
      "hit": false,
      "t": 21000,
      "d": 1500,
      "v": 100
    },
    {
      "midi": 55,
      "hit": false,
      "t": 21000,
      "d": 1500,
      "v": 100
    },
    {
      "midi": 83,
      "hit": false,
      "t": 21000,
      "d": 1500,
      "v": 100
    },
    {
      "midi": 43,
      "hit": false,
      "t": 21000,
      "d": 1500,
      "v": 100
    },
    {
      "midi": 59,
      "hit": false,
      "t": 21375,
      "d": 375,
      "v": 100
    },
    {
      "midi": 71,
      "hit": false,
      "t": 21375,
      "d": 375,
      "v": 100
    },
    {
      "midi": 62,
      "hit": false,
      "t": 21750,
      "d": 375,
      "v": 100
    },
    {
      "midi": 74,
      "hit": false,
      "t": 21750,
      "d": 375,
      "v": 100
    },
    {
      "midi": 67,
      "hit": false,
      "t": 22125,
      "d": 375,
      "v": 100
    },
    {
      "midi": 79,
      "hit": false,
      "t": 22125,
      "d": 375,
      "v": 100
    },
    {
      "midi": 73,
      "hit": false,
      "t": 22500,
      "d": 1500,
      "v": 100
    },
    {
      "midi": 57,
      "hit": false,
      "t": 22500,
      "d": 1500,
      "v": 100
    },
    {
      "midi": 85,
      "hit": false,
      "t": 22500,
      "d": 1500,
      "v": 100
    },
    {
      "midi": 45,
      "hit": false,
      "t": 22500,
      "d": 1500,
      "v": 100
    },
    {
      "midi": 61,
      "hit": false,
      "t": 22875,
      "d": 375,
      "v": 100
    },
    {
      "midi": 73,
      "hit": false,
      "t": 22875,
      "d": 375,
      "v": 100
    },
    {
      "midi": 64,
      "hit": false,
      "t": 23250,
      "d": 375,
      "v": 100
    },
    {
      "midi": 76,
      "hit": false,
      "t": 23250,
      "d": 375,
      "v": 100
    },
    {
      "midi": 69,
      "hit": false,
      "t": 23625,
      "d": 375,
      "v": 100
    },
    {
      "midi": 81,
      "hit": false,
      "t": 23625,
      "d": 375,
      "v": 100
    },
    {
      "midi": 74,
      "hit": false,
      "t": 24000,
      "d": 1500,
      "v": 100
    },
    {
      "midi": 78,
      "hit": false,
      "t": 24000,
      "d": 1500,
      "v": 100
    },
    {
      "midi": 50,
      "hit": false,
      "t": 24000,
      "d": 1500,
      "v": 100
    },
    {
      "midi": 86,
      "hit": false,
      "t": 24000,
      "d": 1500,
      "v": 100
    },
    {
      "midi": 90,
      "hit": false,
      "t": 24000,
      "d": 1500,
      "v": 100
    },
    {
      "midi": 38,
      "hit": false,
      "t": 24000,
      "d": 1500,
      "v": 100
    },
    {
      "midi": 54,
      "hit": false,
      "t": 24375,
      "d": 375,
      "v": 100
    },
    {
      "midi": 42,
      "hit": false,
      "t": 24375,
      "d": 375,
      "v": 100
    },
    {
      "midi": 57,
      "hit": false,
      "t": 24750,
      "d": 375,
      "v": 100
    },
    {
      "midi": 45,
      "hit": false,
      "t": 24750,
      "d": 375,
      "v": 100
    },
    {
      "midi": 62,
      "hit": false,
      "t": 25125,
      "d": 375,
      "v": 100
    },
    {
      "midi": 50,
      "hit": false,
      "t": 25125,
      "d": 375,
      "v": 100
    },
    {
      "midi": 73,
      "hit": false,
      "t": 25500,
      "d": 1500,
      "v": 100
    },
    {
      "midi": 76,
      "hit": false,
      "t": 25500,
      "d": 1500,
      "v": 100
    },
    {
      "midi": 45,
      "hit": false,
      "t": 25500,
      "d": 1500,
      "v": 100
    },
    {
      "midi": 85,
      "hit": false,
      "t": 25500,
      "d": 1500,
      "v": 100
    },
    {
      "midi": 88,
      "hit": false,
      "t": 25500,
      "d": 1500,
      "v": 100
    },
    {
      "midi": 33,
      "hit": false,
      "t": 25500,
      "d": 1500,
      "v": 100
    },
    {
      "midi": 52,
      "hit": false,
      "t": 25875,
      "d": 375,
      "v": 100
    },
    {
      "midi": 40,
      "hit": false,
      "t": 25875,
      "d": 375,
      "v": 100
    },
    {
      "midi": 57,
      "hit": false,
      "t": 26250,
      "d": 375,
      "v": 100
    },
    {
      "midi": 45,
      "hit": false,
      "t": 26250,
      "d": 375,
      "v": 100
    },
    {
      "midi": 61,
      "hit": false,
      "t": 26625,
      "d": 375,
      "v": 100
    },
    {
      "midi": 49,
      "hit": false,
      "t": 26625,
      "d": 375,
      "v": 100
    },
    {
      "midi": 71,
      "hit": false,
      "t": 27000,
      "d": 1500,
      "v": 100
    },
    {
      "midi": 74,
      "hit": false,
      "t": 27000,
      "d": 1500,
      "v": 100
    },
    {
      "midi": 47,
      "hit": false,
      "t": 27000,
      "d": 1500,
      "v": 100
    },
    {
      "midi": 83,
      "hit": false,
      "t": 27000,
      "d": 1500,
      "v": 100
    },
    {
      "midi": 86,
      "hit": false,
      "t": 27000,
      "d": 1500,
      "v": 100
    },
    {
      "midi": 35,
      "hit": false,
      "t": 27000,
      "d": 1500,
      "v": 100
    },
    {
      "midi": 54,
      "hit": false,
      "t": 27375,
      "d": 375,
      "v": 100
    },
    {
      "midi": 42,
      "hit": false,
      "t": 27375,
      "d": 375,
      "v": 100
    },
    {
      "midi": 59,
      "hit": false,
      "t": 27750,
      "d": 375,
      "v": 100
    },
    {
      "midi": 47,
      "hit": false,
      "t": 27750,
      "d": 375,
      "v": 100
    },
    {
      "midi": 62,
      "hit": false,
      "t": 28125,
      "d": 375,
      "v": 100
    },
    {
      "midi": 50,
      "hit": false,
      "t": 28125,
      "d": 375,
      "v": 100
    },
    {
      "midi": 69,
      "hit": false,
      "t": 28500,
      "d": 1500,
      "v": 100
    },
    {
      "midi": 73,
      "hit": false,
      "t": 28500,
      "d": 1500,
      "v": 100
    },
    {
      "midi": 54,
      "hit": false,
      "t": 28500,
      "d": 1500,
      "v": 100
    },
    {
      "midi": 81,
      "hit": false,
      "t": 28500,
      "d": 1500,
      "v": 100
    },
    {
      "midi": 85,
      "hit": false,
      "t": 28500,
      "d": 1500,
      "v": 100
    },
    {
      "midi": 42,
      "hit": false,
      "t": 28500,
      "d": 1500,
      "v": 100
    },
    {
      "midi": 57,
      "hit": false,
      "t": 28875,
      "d": 375,
      "v": 100
    },
    {
      "midi": 45,
      "hit": false,
      "t": 28875,
      "d": 375,
      "v": 100
    },
    {
      "midi": 61,
      "hit": false,
      "t": 29250,
      "d": 375,
      "v": 100
    },
    {
      "midi": 49,
      "hit": false,
      "t": 29250,
      "d": 375,
      "v": 100
    },
    {
      "midi": 66,
      "hit": false,
      "t": 29625,
      "d": 375,
      "v": 100
    },
    {
      "midi": 54,
      "hit": false,
      "t": 29625,
      "d": 375,
      "v": 100
    },
    {
      "midi": 71,
      "hit": false,
      "t": 30000,
      "d": 1500,
      "v": 100
    },
    {
      "midi": 55,
      "hit": false,
      "t": 30000,
      "d": 1500,
      "v": 100
    },
    {
      "midi": 83,
      "hit": false,
      "t": 30000,
      "d": 1500,
      "v": 100
    },
    {
      "midi": 43,
      "hit": false,
      "t": 30000,
      "d": 1500,
      "v": 100
    },
    {
      "midi": 59,
      "hit": false,
      "t": 30375,
      "d": 375,
      "v": 100
    },
    {
      "midi": 71,
      "hit": false,
      "t": 30375,
      "d": 375,
      "v": 100
    },
    {
      "midi": 62,
      "hit": false,
      "t": 30750,
      "d": 375,
      "v": 100
    },
    {
      "midi": 74,
      "hit": false,
      "t": 30750,
      "d": 375,
      "v": 100
    },
    {
      "midi": 67,
      "hit": false,
      "t": 31125,
      "d": 375,
      "v": 100
    },
    {
      "midi": 79,
      "hit": false,
      "t": 31125,
      "d": 375,
      "v": 100
    },
    {
      "midi": 66,
      "hit": false,
      "t": 31500,
      "d": 1500,
      "v": 100
    },
    {
      "midi": 69,
      "hit": false,
      "t": 31500,
      "d": 1500,
      "v": 100
    },
    {
      "midi": 50,
      "hit": false,
      "t": 31500,
      "d": 1500,
      "v": 100
    },
    {
      "midi": 78,
      "hit": false,
      "t": 31500,
      "d": 1500,
      "v": 100
    },
    {
      "midi": 81,
      "hit": false,
      "t": 31500,
      "d": 1500,
      "v": 100
    },
    {
      "midi": 38,
      "hit": false,
      "t": 31500,
      "d": 1500,
      "v": 100
    },
    {
      "midi": 54,
      "hit": false,
      "t": 31875,
      "d": 375,
      "v": 100
    },
    {
      "midi": 42,
      "hit": false,
      "t": 31875,
      "d": 375,
      "v": 100
    },
    {
      "midi": 57,
      "hit": false,
      "t": 32250,
      "d": 375,
      "v": 100
    },
    {
      "midi": 45,
      "hit": false,
      "t": 32250,
      "d": 375,
      "v": 100
    },
    {
      "midi": 62,
      "hit": false,
      "t": 32625,
      "d": 375,
      "v": 100
    },
    {
      "midi": 50,
      "hit": false,
      "t": 32625,
      "d": 375,
      "v": 100
    },
    {
      "midi": 71,
      "hit": false,
      "t": 33000,
      "d": 1500,
      "v": 100
    },
    {
      "midi": 55,
      "hit": false,
      "t": 33000,
      "d": 1500,
      "v": 100
    },
    {
      "midi": 83,
      "hit": false,
      "t": 33000,
      "d": 1500,
      "v": 100
    },
    {
      "midi": 43,
      "hit": false,
      "t": 33000,
      "d": 1500,
      "v": 100
    },
    {
      "midi": 59,
      "hit": false,
      "t": 33375,
      "d": 375,
      "v": 100
    },
    {
      "midi": 71,
      "hit": false,
      "t": 33375,
      "d": 375,
      "v": 100
    },
    {
      "midi": 62,
      "hit": false,
      "t": 33750,
      "d": 375,
      "v": 100
    },
    {
      "midi": 74,
      "hit": false,
      "t": 33750,
      "d": 375,
      "v": 100
    },
    {
      "midi": 67,
      "hit": false,
      "t": 34125,
      "d": 375,
      "v": 100
    },
    {
      "midi": 79,
      "hit": false,
      "t": 34125,
      "d": 375,
      "v": 100
    },
    {
      "midi": 73,
      "hit": false,
      "t": 34500,
      "d": 1500,
      "v": 100
    },
    {
      "midi": 57,
      "hit": false,
      "t": 34500,
      "d": 1500,
      "v": 100
    },
    {
      "midi": 85,
      "hit": false,
      "t": 34500,
      "d": 1500,
      "v": 100
    },
    {
      "midi": 45,
      "hit": false,
      "t": 34500,
      "d": 1500,
      "v": 100
    },
    {
      "midi": 61,
      "hit": false,
      "t": 34875,
      "d": 375,
      "v": 100
    },
    {
      "midi": 73,
      "hit": false,
      "t": 34875,
      "d": 375,
      "v": 100
    },
    {
      "midi": 64,
      "hit": false,
      "t": 35250,
      "d": 375,
      "v": 100
    },
    {
      "midi": 76,
      "hit": false,
      "t": 35250,
      "d": 375,
      "v": 100
    },
    {
      "midi": 69,
      "hit": false,
      "t": 35625,
      "d": 375,
      "v": 100
    },
    {
      "midi": 81,
      "hit": false,
      "t": 35625,
      "d": 375,
      "v": 100
    },
    {
      "midi": 62,
      "hit": false,
      "t": 36000,
      "d": 750,
      "v": 100
    },
    {
      "midi": 74,
      "hit": false,
      "t": 36000,
      "d": 1500,
      "v": 100
    },
    {
      "midi": 78,
      "hit": false,
      "t": 36000,
      "d": 1500,
      "v": 100
    },
    {
      "midi": 50,
      "hit": false,
      "t": 36000,
      "d": 1500,
      "v": 100
    },
    {
      "midi": 74,
      "hit": false,
      "t": 36000,
      "d": 750,
      "v": 100
    },
    {
      "midi": 86,
      "hit": false,
      "t": 36000,
      "d": 1500,
      "v": 100
    },
    {
      "midi": 90,
      "hit": false,
      "t": 36000,
      "d": 1500,
      "v": 100
    },
    {
      "midi": 38,
      "hit": false,
      "t": 36000,
      "d": 1500,
      "v": 100
    },
    {
      "midi": 66,
      "hit": false,
      "t": 36750,
      "d": 750,
      "v": 100
    },
    {
      "midi": 78,
      "hit": false,
      "t": 36750,
      "d": 750,
      "v": 100
    },
    {
      "midi": 69,
      "hit": false,
      "t": 37500,
      "d": 750,
      "v": 100
    },
    {
      "midi": 73,
      "hit": false,
      "t": 37500,
      "d": 1500,
      "v": 100
    },
    {
      "midi": 76,
      "hit": false,
      "t": 37500,
      "d": 1500,
      "v": 100
    },
    {
      "midi": 45,
      "hit": false,
      "t": 37500,
      "d": 1500,
      "v": 100
    },
    {
      "midi": 81,
      "hit": false,
      "t": 37500,
      "d": 750,
      "v": 100
    },
    {
      "midi": 85,
      "hit": false,
      "t": 37500,
      "d": 1500,
      "v": 100
    },
    {
      "midi": 88,
      "hit": false,
      "t": 37500,
      "d": 1500,
      "v": 100
    },
    {
      "midi": 33,
      "hit": false,
      "t": 37500,
      "d": 1500,
      "v": 100
    },
    {
      "midi": 67,
      "hit": false,
      "t": 38250,
      "d": 750,
      "v": 100
    },
    {
      "midi": 79,
      "hit": false,
      "t": 38250,
      "d": 750,
      "v": 100
    },
    {
      "midi": 66,
      "hit": false,
      "t": 39000,
      "d": 750,
      "v": 100
    },
    {
      "midi": 71,
      "hit": false,
      "t": 39000,
      "d": 1500,
      "v": 100
    },
    {
      "midi": 74,
      "hit": false,
      "t": 39000,
      "d": 1500,
      "v": 100
    },
    {
      "midi": 47,
      "hit": false,
      "t": 39000,
      "d": 1500,
      "v": 100
    },
    {
      "midi": 78,
      "hit": false,
      "t": 39000,
      "d": 750,
      "v": 100
    },
    {
      "midi": 83,
      "hit": false,
      "t": 39000,
      "d": 1500,
      "v": 100
    },
    {
      "midi": 86,
      "hit": false,
      "t": 39000,
      "d": 1500,
      "v": 100
    },
    {
      "midi": 35,
      "hit": false,
      "t": 39000,
      "d": 1500,
      "v": 100
    },
    {
      "midi": 62,
      "hit": false,
      "t": 39750,
      "d": 750,
      "v": 100
    },
    {
      "midi": 74,
      "hit": false,
      "t": 39750,
      "d": 750,
      "v": 100
    },
    {
      "midi": 66,
      "hit": false,
      "t": 40500,
      "d": 750,
      "v": 100
    },
    {
      "midi": 69,
      "hit": false,
      "t": 40500,
      "d": 1500,
      "v": 100
    },
    {
      "midi": 73,
      "hit": false,
      "t": 40500,
      "d": 1500,
      "v": 100
    },
    {
      "midi": 54,
      "hit": false,
      "t": 40500,
      "d": 1500,
      "v": 100
    },
    {
      "midi": 78,
      "hit": false,
      "t": 40500,
      "d": 750,
      "v": 100
    },
    {
      "midi": 81,
      "hit": false,
      "t": 40500,
      "d": 1500,
      "v": 100
    },
    {
      "midi": 85,
      "hit": false,
      "t": 40500,
      "d": 1500,
      "v": 100
    },
    {
      "midi": 42,
      "hit": false,
      "t": 40500,
      "d": 1500,
      "v": 100
    },
    {
      "midi": 64,
      "hit": false,
      "t": 41250,
      "d": 750,
      "v": 100
    },
    {
      "midi": 76,
      "hit": false,
      "t": 41250,
      "d": 750,
      "v": 100
    },
    {
      "midi": 62,
      "hit": false,
      "t": 42000,
      "d": 750,
      "v": 100
    },
    {
      "midi": 67,
      "hit": false,
      "t": 42000,
      "d": 1500,
      "v": 100
    },
    {
      "midi": 71,
      "hit": false,
      "t": 42000,
      "d": 1500,
      "v": 100
    },
    {
      "midi": 55,
      "hit": false,
      "t": 42000,
      "d": 1500,
      "v": 100
    },
    {
      "midi": 74,
      "hit": false,
      "t": 42000,
      "d": 750,
      "v": 100
    },
    {
      "midi": 79,
      "hit": false,
      "t": 42000,
      "d": 1500,
      "v": 100
    },
    {
      "midi": 83,
      "hit": false,
      "t": 42000,
      "d": 1500,
      "v": 100
    },
    {
      "midi": 43,
      "hit": false,
      "t": 42000,
      "d": 1500,
      "v": 100
    },
    {
      "midi": 59,
      "hit": false,
      "t": 42750,
      "d": 750,
      "v": 100
    },
    {
      "midi": 71,
      "hit": false,
      "t": 42750,
      "d": 750,
      "v": 100
    },
    {
      "midi": 62,
      "hit": false,
      "t": 43500,
      "d": 750,
      "v": 100
    },
    {
      "midi": 66,
      "hit": false,
      "t": 43500,
      "d": 1500,
      "v": 100
    },
    {
      "midi": 50,
      "hit": false,
      "t": 43500,
      "d": 1500,
      "v": 100
    },
    {
      "midi": 74,
      "hit": false,
      "t": 43500,
      "d": 750,
      "v": 100
    },
    {
      "midi": 78,
      "hit": false,
      "t": 43500,
      "d": 1500,
      "v": 100
    },
    {
      "midi": 38,
      "hit": false,
      "t": 43500,
      "d": 1500,
      "v": 100
    },
    {
      "midi": 69,
      "hit": false,
      "t": 44250,
      "d": 750,
      "v": 100
    },
    {
      "midi": 81,
      "hit": false,
      "t": 44250,
      "d": 750,
      "v": 100
    },
    {
      "midi": 67,
      "hit": false,
      "t": 45000,
      "d": 750,
      "v": 100
    },
    {
      "midi": 74,
      "hit": false,
      "t": 45000,
      "d": 1500,
      "v": 100
    },
    {
      "midi": 55,
      "hit": false,
      "t": 45000,
      "d": 1500,
      "v": 100
    },
    {
      "midi": 79,
      "hit": false,
      "t": 45000,
      "d": 750,
      "v": 100
    },
    {
      "midi": 86,
      "hit": false,
      "t": 45000,
      "d": 1500,
      "v": 100
    },
    {
      "midi": 43,
      "hit": false,
      "t": 45000,
      "d": 1500,
      "v": 100
    },
    {
      "midi": 71,
      "hit": false,
      "t": 45750,
      "d": 750,
      "v": 100
    },
    {
      "midi": 83,
      "hit": false,
      "t": 45750,
      "d": 750,
      "v": 100
    },
    {
      "midi": 69,
      "hit": false,
      "t": 46500,
      "d": 750,
      "v": 100
    },
    {
      "midi": 73,
      "hit": false,
      "t": 46500,
      "d": 1500,
      "v": 100
    },
    {
      "midi": 76,
      "hit": false,
      "t": 46500,
      "d": 1500,
      "v": 100
    },
    {
      "midi": 57,
      "hit": false,
      "t": 46500,
      "d": 1500,
      "v": 100
    },
    {
      "midi": 81,
      "hit": false,
      "t": 46500,
      "d": 750,
      "v": 100
    },
    {
      "midi": 85,
      "hit": false,
      "t": 46500,
      "d": 1500,
      "v": 100
    },
    {
      "midi": 88,
      "hit": false,
      "t": 46500,
      "d": 1500,
      "v": 100
    },
    {
      "midi": 45,
      "hit": false,
      "t": 46500,
      "d": 1500,
      "v": 100
    },
    {
      "midi": 67,
      "hit": false,
      "t": 47250,
      "d": 750,
      "v": 100
    },
    {
      "midi": 79,
      "hit": false,
      "t": 47250,
      "d": 750,
      "v": 100
    },
    {
      "midi": 66,
      "hit": false,
      "t": 48000,
      "d": 750,
      "v": 100
    },
    {
      "midi": 74,
      "hit": false,
      "t": 48000,
      "d": 1500,
      "v": 100
    },
    {
      "midi": 50,
      "hit": false,
      "t": 48000,
      "d": 1500,
      "v": 100
    },
    {
      "midi": 62,
      "hit": false,
      "t": 48000,
      "d": 1500,
      "v": 100
    },
    {
      "midi": 78,
      "hit": false,
      "t": 48000,
      "d": 750,
      "v": 100
    },
    {
      "midi": 86,
      "hit": false,
      "t": 48000,
      "d": 1500,
      "v": 100
    },
    {
      "midi": 38,
      "hit": false,
      "t": 48000,
      "d": 1500,
      "v": 100
    },
    {
      "midi": 50,
      "hit": false,
      "t": 48000,
      "d": 1500,
      "v": 100
    },
    {
      "midi": 66,
      "hit": false,
      "t": 48750,
      "d": 750,
      "v": 100
    },
    {
      "midi": 78,
      "hit": false,
      "t": 48750,
      "d": 750,
      "v": 100
    },
    {
      "midi": 69,
      "hit": false,
      "t": 49500,
      "d": 750,
      "v": 100
    },
    {
      "midi": 73,
      "hit": false,
      "t": 49500,
      "d": 1500,
      "v": 100
    },
    {
      "midi": 45,
      "hit": false,
      "t": 49500,
      "d": 1500,
      "v": 100
    },
    {
      "midi": 64,
      "hit": false,
      "t": 49500,
      "d": 1500,
      "v": 100
    },
    {
      "midi": 81,
      "hit": false,
      "t": 49500,
      "d": 750,
      "v": 100
    },
    {
      "midi": 85,
      "hit": false,
      "t": 49500,
      "d": 1500,
      "v": 100
    },
    {
      "midi": 33,
      "hit": false,
      "t": 49500,
      "d": 1500,
      "v": 100
    },
    {
      "midi": 52,
      "hit": false,
      "t": 49500,
      "d": 1500,
      "v": 100
    },
    {
      "midi": 67,
      "hit": false,
      "t": 50250,
      "d": 750,
      "v": 100
    },
    {
      "midi": 79,
      "hit": false,
      "t": 50250,
      "d": 750,
      "v": 100
    },
    {
      "midi": 74,
      "hit": false,
      "t": 51000,
      "d": 750,
      "v": 100
    },
    {
      "midi": 71,
      "hit": false,
      "t": 51000,
      "d": 1500,
      "v": 100
    },
    {
      "midi": 54,
      "hit": false,
      "t": 51000,
      "d": 750,
      "v": 100
    },
    {
      "midi": 47,
      "hit": false,
      "t": 51000,
      "d": 1500,
      "v": 100
    },
    {
      "midi": 86,
      "hit": false,
      "t": 51000,
      "d": 750,
      "v": 100
    },
    {
      "midi": 83,
      "hit": false,
      "t": 51000,
      "d": 1500,
      "v": 100
    },
    {
      "midi": 42,
      "hit": false,
      "t": 51000,
      "d": 750,
      "v": 100
    },
    {
      "midi": 35,
      "hit": false,
      "t": 51000,
      "d": 1500,
      "v": 100
    },
    {
      "midi": 78,
      "hit": false,
      "t": 51750,
      "d": 750,
      "v": 100
    },
    {
      "midi": 50,
      "hit": false,
      "t": 51750,
      "d": 750,
      "v": 100
    },
    {
      "midi": 90,
      "hit": false,
      "t": 51750,
      "d": 750,
      "v": 100
    },
    {
      "midi": 38,
      "hit": false,
      "t": 51750,
      "d": 750,
      "v": 100
    },
    {
      "midi": 69,
      "hit": false,
      "t": 52500,
      "d": 750,
      "v": 100
    },
    {
      "midi": 81,
      "hit": false,
      "t": 52500,
      "d": 750,
      "v": 100
    },
    {
      "midi": 54,
      "hit": false,
      "t": 52500,
      "d": 750,
      "v": 100
    },
    {
      "midi": 42,
      "hit": false,
      "t": 52500,
      "d": 1500,
      "v": 100
    },
    {
      "midi": 81,
      "hit": false,
      "t": 52500,
      "d": 750,
      "v": 100
    },
    {
      "midi": 93,
      "hit": false,
      "t": 52500,
      "d": 750,
      "v": 100
    },
    {
      "midi": 42,
      "hit": false,
      "t": 52500,
      "d": 750,
      "v": 100
    },
    {
      "midi": 30,
      "hit": false,
      "t": 52500,
      "d": 1500,
      "v": 100
    },
    {
      "midi": 69,
      "hit": false,
      "t": 53250,
      "d": 750,
      "v": 100
    },
    {
      "midi": 52,
      "hit": false,
      "t": 53250,
      "d": 750,
      "v": 100
    },
    {
      "midi": 81,
      "hit": false,
      "t": 53250,
      "d": 750,
      "v": 100
    },
    {
      "midi": 40,
      "hit": false,
      "t": 53250,
      "d": 750,
      "v": 100
    },
    {
      "midi": 67,
      "hit": false,
      "t": 54000,
      "d": 750,
      "v": 100
    },
    {
      "midi": 71,
      "hit": false,
      "t": 54000,
      "d": 750,
      "v": 100
    },
    {
      "midi": 50,
      "hit": false,
      "t": 54000,
      "d": 750,
      "v": 100
    },
    {
      "midi": 43,
      "hit": false,
      "t": 54000,
      "d": 1500,
      "v": 100
    },
    {
      "midi": 79,
      "hit": false,
      "t": 54000,
      "d": 750,
      "v": 100
    },
    {
      "midi": 83,
      "hit": false,
      "t": 54000,
      "d": 750,
      "v": 100
    },
    {
      "midi": 38,
      "hit": false,
      "t": 54000,
      "d": 750,
      "v": 100
    },
    {
      "midi": 31,
      "hit": false,
      "t": 54000,
      "d": 1500,
      "v": 100
    },
    {
      "midi": 67,
      "hit": false,
      "t": 54750,
      "d": 750,
      "v": 100
    },
    {
      "midi": 47,
      "hit": false,
      "t": 54750,
      "d": 750,
      "v": 100
    },
    {
      "midi": 79,
      "hit": false,
      "t": 54750,
      "d": 750,
      "v": 100
    },
    {
      "midi": 35,
      "hit": false,
      "t": 54750,
      "d": 750,
      "v": 100
    },
    {
      "midi": 66,
      "hit": false,
      "t": 55500,
      "d": 750,
      "v": 100
    },
    {
      "midi": 69,
      "hit": false,
      "t": 55500,
      "d": 750,
      "v": 100
    },
    {
      "midi": 38,
      "hit": false,
      "t": 55500,
      "d": 1500,
      "v": 100
    },
    {
      "midi": 50,
      "hit": false,
      "t": 55500,
      "d": 1500,
      "v": 100
    },
    {
      "midi": 78,
      "hit": false,
      "t": 55500,
      "d": 750,
      "v": 100
    },
    {
      "midi": 81,
      "hit": false,
      "t": 55500,
      "d": 750,
      "v": 100
    },
    {
      "midi": 26,
      "hit": false,
      "t": 55500,
      "d": 1500,
      "v": 100
    },
    {
      "midi": 38,
      "hit": false,
      "t": 55500,
      "d": 1500,
      "v": 100
    },
    {
      "midi": 66,
      "hit": false,
      "t": 56250,
      "d": 750,
      "v": 100
    },
    {
      "midi": 69,
      "hit": false,
      "t": 56250,
      "d": 750,
      "v": 100
    },
    {
      "midi": 78,
      "hit": false,
      "t": 56250,
      "d": 750,
      "v": 100
    },
    {
      "midi": 81,
      "hit": false,
      "t": 56250,
      "d": 750,
      "v": 100
    },
    {
      "midi": 62,
      "hit": false,
      "t": 57000,
      "d": 750,
      "v": 100
    },
    {
      "midi": 67,
      "hit": false,
      "t": 57000,
      "d": 750,
      "v": 100
    },
    {
      "midi": 43,
      "hit": false,
      "t": 57000,
      "d": 1500,
      "v": 100
    },
    {
      "midi": 55,
      "hit": false,
      "t": 57000,
      "d": 1500,
      "v": 100
    },
    {
      "midi": 74,
      "hit": false,
      "t": 57000,
      "d": 750,
      "v": 100
    },
    {
      "midi": 79,
      "hit": false,
      "t": 57000,
      "d": 750,
      "v": 100
    },
    {
      "midi": 31,
      "hit": false,
      "t": 57000,
      "d": 1500,
      "v": 100
    },
    {
      "midi": 43,
      "hit": false,
      "t": 57000,
      "d": 1500,
      "v": 100
    },
    {
      "midi": 71,
      "hit": false,
      "t": 57750,
      "d": 750,
      "v": 100
    },
    {
      "midi": 74,
      "hit": false,
      "t": 57750,
      "d": 750,
      "v": 100
    },
    {
      "midi": 83,
      "hit": false,
      "t": 57750,
      "d": 750,
      "v": 100
    },
    {
      "midi": 86,
      "hit": false,
      "t": 57750,
      "d": 750,
      "v": 100
    },
    {
      "midi": 74,
      "hit": false,
      "t": 58500,
      "d": 1125,
      "v": 100
    },
    {
      "midi": 57,
      "hit": false,
      "t": 58500,
      "d": 750,
      "v": 100
    },
    {
      "midi": 45,
      "hit": false,
      "t": 58500,
      "d": 1500,
      "v": 100
    },
    {
      "midi": 52,
      "hit": false,
      "t": 58500,
      "d": 1500,
      "v": 100
    },
    {
      "midi": 86,
      "hit": false,
      "t": 58500,
      "d": 1125,
      "v": 100
    },
    {
      "midi": 45,
      "hit": false,
      "t": 58500,
      "d": 750,
      "v": 100
    },
    {
      "midi": 33,
      "hit": false,
      "t": 58500,
      "d": 1500,
      "v": 100
    },
    {
      "midi": 40,
      "hit": false,
      "t": 58500,
      "d": 1500,
      "v": 100
    },
    {
      "midi": 55,
      "hit": false,
      "t": 59250,
      "d": 750,
      "v": 100
    },
    {
      "midi": 43,
      "hit": false,
      "t": 59250,
      "d": 750,
      "v": 100
    },
    {
      "midi": 73,
      "hit": false,
      "t": 59625,
      "d": 375,
      "v": 100
    },
    {
      "midi": 85,
      "hit": false,
      "t": 59625,
      "d": 375,
      "v": 100
    },
    {
      "midi": 74,
      "hit": false,
      "t": 60000,
      "d": 375,
      "v": 100
    },
    {
      "midi": 54,
      "hit": false,
      "t": 60000,
      "d": 750,
      "v": 100
    },
    {
      "midi": 50,
      "hit": false,
      "t": 60000,
      "d": 1500,
      "v": 100
    },
    {
      "midi": 86,
      "hit": false,
      "t": 60000,
      "d": 375,
      "v": 100
    },
    {
      "midi": 42,
      "hit": false,
      "t": 60000,
      "d": 750,
      "v": 100
    },
    {
      "midi": 38,
      "hit": false,
      "t": 60000,
      "d": 1500,
      "v": 100
    },
    {
      "midi": 73,
      "hit": false,
      "t": 60375,
      "d": 375,
      "v": 100
    },
    {
      "midi": 85,
      "hit": false,
      "t": 60375,
      "d": 375,
      "v": 100
    },
    {
      "midi": 74,
      "hit": false,
      "t": 60750,
      "d": 375,
      "v": 100
    },
    {
      "midi": 54,
      "hit": false,
      "t": 60750,
      "d": 750,
      "v": 100
    },
    {
      "midi": 86,
      "hit": false,
      "t": 60750,
      "d": 375,
      "v": 100
    },
    {
      "midi": 42,
      "hit": false,
      "t": 60750,
      "d": 750,
      "v": 100
    },
    {
      "midi": 62,
      "hit": false,
      "t": 61125,
      "d": 375,
      "v": 100
    },
    {
      "midi": 74,
      "hit": false,
      "t": 61125,
      "d": 375,
      "v": 100
    },
    {
      "midi": 61,
      "hit": false,
      "t": 61500,
      "d": 375,
      "v": 100
    },
    {
      "midi": 52,
      "hit": false,
      "t": 61500,
      "d": 750,
      "v": 100
    },
    {
      "midi": 57,
      "hit": false,
      "t": 61500,
      "d": 750,
      "v": 100
    },
    {
      "midi": 45,
      "hit": false,
      "t": 61500,
      "d": 1500,
      "v": 100
    },
    {
      "midi": 73,
      "hit": false,
      "t": 61500,
      "d": 375,
      "v": 100
    },
    {
      "midi": 40,
      "hit": false,
      "t": 61500,
      "d": 750,
      "v": 100
    },
    {
      "midi": 45,
      "hit": false,
      "t": 61500,
      "d": 750,
      "v": 100
    },
    {
      "midi": 33,
      "hit": false,
      "t": 61500,
      "d": 1500,
      "v": 100
    },
    {
      "midi": 69,
      "hit": false,
      "t": 61875,
      "d": 375,
      "v": 100
    },
    {
      "midi": 81,
      "hit": false,
      "t": 61875,
      "d": 375,
      "v": 100
    },
    {
      "midi": 64,
      "hit": false,
      "t": 62250,
      "d": 375,
      "v": 100
    },
    {
      "midi": 55,
      "hit": false,
      "t": 62250,
      "d": 750,
      "v": 100
    },
    {
      "midi": 61,
      "hit": false,
      "t": 62250,
      "d": 750,
      "v": 100
    },
    {
      "midi": 76,
      "hit": false,
      "t": 62250,
      "d": 375,
      "v": 100
    },
    {
      "midi": 43,
      "hit": false,
      "t": 62250,
      "d": 750,
      "v": 100
    },
    {
      "midi": 49,
      "hit": false,
      "t": 62250,
      "d": 750,
      "v": 100
    },
    {
      "midi": 66,
      "hit": false,
      "t": 62625,
      "d": 375,
      "v": 100
    },
    {
      "midi": 78,
      "hit": false,
      "t": 62625,
      "d": 375,
      "v": 100
    },
    {
      "midi": 62,
      "hit": false,
      "t": 63000,
      "d": 375,
      "v": 100
    },
    {
      "midi": 50,
      "hit": false,
      "t": 63000,
      "d": 750,
      "v": 100
    },
    {
      "midi": 54,
      "hit": false,
      "t": 63000,
      "d": 750,
      "v": 100
    },
    {
      "midi": 47,
      "hit": false,
      "t": 63000,
      "d": 1500,
      "v": 100
    },
    {
      "midi": 74,
      "hit": false,
      "t": 63000,
      "d": 375,
      "v": 100
    },
    {
      "midi": 38,
      "hit": false,
      "t": 63000,
      "d": 750,
      "v": 100
    },
    {
      "midi": 42,
      "hit": false,
      "t": 63000,
      "d": 750,
      "v": 100
    },
    {
      "midi": 35,
      "hit": false,
      "t": 63000,
      "d": 1500,
      "v": 100
    },
    {
      "midi": 74,
      "hit": false,
      "t": 63375,
      "d": 375,
      "v": 100
    },
    {
      "midi": 86,
      "hit": false,
      "t": 63375,
      "d": 375,
      "v": 100
    },
    {
      "midi": 73,
      "hit": false,
      "t": 63750,
      "d": 375,
      "v": 100
    },
    {
      "midi": 50,
      "hit": false,
      "t": 63750,
      "d": 750,
      "v": 100
    },
    {
      "midi": 54,
      "hit": false,
      "t": 63750,
      "d": 750,
      "v": 100
    },
    {
      "midi": 85,
      "hit": false,
      "t": 63750,
      "d": 375,
      "v": 100
    },
    {
      "midi": 38,
      "hit": false,
      "t": 63750,
      "d": 750,
      "v": 100
    },
    {
      "midi": 42,
      "hit": false,
      "t": 63750,
      "d": 750,
      "v": 100
    },
    {
      "midi": 71,
      "hit": false,
      "t": 64125,
      "d": 375,
      "v": 100
    },
    {
      "midi": 83,
      "hit": false,
      "t": 64125,
      "d": 375,
      "v": 100
    },
    {
      "midi": 73,
      "hit": false,
      "t": 64500,
      "d": 375,
      "v": 100
    },
    {
      "midi": 54,
      "hit": false,
      "t": 64500,
      "d": 750,
      "v": 100
    },
    {
      "midi": 57,
      "hit": false,
      "t": 64500,
      "d": 750,
      "v": 100
    },
    {
      "midi": 42,
      "hit": false,
      "t": 64500,
      "d": 1500,
      "v": 100
    },
    {
      "midi": 85,
      "hit": false,
      "t": 64500,
      "d": 375,
      "v": 100
    },
    {
      "midi": 42,
      "hit": false,
      "t": 64500,
      "d": 750,
      "v": 100
    },
    {
      "midi": 45,
      "hit": false,
      "t": 64500,
      "d": 750,
      "v": 100
    },
    {
      "midi": 30,
      "hit": false,
      "t": 64500,
      "d": 1500,
      "v": 100
    },
    {
      "midi": 78,
      "hit": false,
      "t": 64875,
      "d": 375,
      "v": 100
    },
    {
      "midi": 90,
      "hit": false,
      "t": 64875,
      "d": 375,
      "v": 100
    },
    {
      "midi": 81,
      "hit": false,
      "t": 65250,
      "d": 375,
      "v": 100
    },
    {
      "midi": 52,
      "hit": false,
      "t": 65250,
      "d": 750,
      "v": 100
    },
    {
      "midi": 57,
      "hit": false,
      "t": 65250,
      "d": 750,
      "v": 100
    },
    {
      "midi": 93,
      "hit": false,
      "t": 65250,
      "d": 375,
      "v": 100
    },
    {
      "midi": 40,
      "hit": false,
      "t": 65250,
      "d": 750,
      "v": 100
    },
    {
      "midi": 45,
      "hit": false,
      "t": 65250,
      "d": 750,
      "v": 100
    },
    {
      "midi": 83,
      "hit": false,
      "t": 65625,
      "d": 375,
      "v": 100
    },
    {
      "midi": 95,
      "hit": false,
      "t": 65625,
      "d": 375,
      "v": 100
    },
    {
      "midi": 79,
      "hit": false,
      "t": 66000,
      "d": 375,
      "v": 100
    },
    {
      "midi": 71,
      "hit": false,
      "t": 66000,
      "d": 750,
      "v": 100
    },
    {
      "midi": 50,
      "hit": false,
      "t": 66000,
      "d": 750,
      "v": 100
    },
    {
      "midi": 91,
      "hit": false,
      "t": 66000,
      "d": 375,
      "v": 100
    },
    {
      "midi": 83,
      "hit": false,
      "t": 66000,
      "d": 750,
      "v": 100
    },
    {
      "midi": 38,
      "hit": false,
      "t": 66000,
      "d": 750,
      "v": 100
    },
    {
      "midi": 78,
      "hit": false,
      "t": 66375,
      "d": 375,
      "v": 100
    },
    {
      "midi": 90,
      "hit": false,
      "t": 66375,
      "d": 375,
      "v": 100
    },
    {
      "midi": 76,
      "hit": false,
      "t": 66750,
      "d": 375,
      "v": 100
    },
    {
      "midi": 67,
      "hit": false,
      "t": 66750,
      "d": 750,
      "v": 100
    },
    {
      "midi": 47,
      "hit": false,
      "t": 66750,
      "d": 750,
      "v": 100
    },
    {
      "midi": 88,
      "hit": false,
      "t": 66750,
      "d": 375,
      "v": 100
    },
    {
      "midi": 79,
      "hit": false,
      "t": 66750,
      "d": 750,
      "v": 100
    },
    {
      "midi": 35,
      "hit": false,
      "t": 66750,
      "d": 750,
      "v": 100
    },
    {
      "midi": 79,
      "hit": false,
      "t": 67125,
      "d": 375,
      "v": 100
    },
    {
      "midi": 91,
      "hit": false,
      "t": 67125,
      "d": 375,
      "v": 100
    },
    {
      "midi": 78,
      "hit": false,
      "t": 67500,
      "d": 375,
      "v": 100
    },
    {
      "midi": 69,
      "hit": false,
      "t": 67500,
      "d": 750,
      "v": 100
    },
    {
      "midi": 50,
      "hit": false,
      "t": 67500,
      "d": 750,
      "v": 100
    },
    {
      "midi": 90,
      "hit": false,
      "t": 67500,
      "d": 375,
      "v": 100
    },
    {
      "midi": 81,
      "hit": false,
      "t": 67500,
      "d": 750,
      "v": 100
    },
    {
      "midi": 38,
      "hit": false,
      "t": 67500,
      "d": 750,
      "v": 100
    },
    {
      "midi": 76,
      "hit": false,
      "t": 67875,
      "d": 375,
      "v": 100
    },
    {
      "midi": 88,
      "hit": false,
      "t": 67875,
      "d": 375,
      "v": 100
    },
    {
      "midi": 74,
      "hit": false,
      "t": 68250,
      "d": 375,
      "v": 100
    },
    {
      "midi": 69,
      "hit": false,
      "t": 68250,
      "d": 750,
      "v": 100
    },
    {
      "midi": 54,
      "hit": false,
      "t": 68250,
      "d": 750,
      "v": 100
    },
    {
      "midi": 86,
      "hit": false,
      "t": 68250,
      "d": 375,
      "v": 100
    },
    {
      "midi": 81,
      "hit": false,
      "t": 68250,
      "d": 750,
      "v": 100
    },
    {
      "midi": 42,
      "hit": false,
      "t": 68250,
      "d": 750,
      "v": 100
    },
    {
      "midi": 73,
      "hit": false,
      "t": 68625,
      "d": 375,
      "v": 100
    },
    {
      "midi": 85,
      "hit": false,
      "t": 68625,
      "d": 375,
      "v": 100
    },
    {
      "midi": 71,
      "hit": false,
      "t": 69000,
      "d": 375,
      "v": 100
    },
    {
      "midi": 67,
      "hit": false,
      "t": 69000,
      "d": 750,
      "v": 100
    },
    {
      "midi": 50,
      "hit": false,
      "t": 69000,
      "d": 750,
      "v": 100
    },
    {
      "midi": 43,
      "hit": false,
      "t": 69000,
      "d": 1500,
      "v": 100
    },
    {
      "midi": 83,
      "hit": false,
      "t": 69000,
      "d": 375,
      "v": 100
    },
    {
      "midi": 79,
      "hit": false,
      "t": 69000,
      "d": 750,
      "v": 100
    },
    {
      "midi": 38,
      "hit": false,
      "t": 69000,
      "d": 750,
      "v": 100
    },
    {
      "midi": 31,
      "hit": false,
      "t": 69000,
      "d": 1500,
      "v": 100
    },
    {
      "midi": 69,
      "hit": false,
      "t": 69375,
      "d": 375,
      "v": 100
    },
    {
      "midi": 81,
      "hit": false,
      "t": 69375,
      "d": 375,
      "v": 100
    },
    {
      "midi": 67,
      "hit": false,
      "t": 69750,
      "d": 375,
      "v": 100
    },
    {
      "midi": 62,
      "hit": false,
      "t": 69750,
      "d": 750,
      "v": 100
    },
    {
      "midi": 59,
      "hit": false,
      "t": 69750,
      "d": 750,
      "v": 100
    },
    {
      "midi": 79,
      "hit": false,
      "t": 69750,
      "d": 375,
      "v": 100
    },
    {
      "midi": 74,
      "hit": false,
      "t": 69750,
      "d": 750,
      "v": 100
    },
    {
      "midi": 47,
      "hit": false,
      "t": 69750,
      "d": 750,
      "v": 100
    },
    {
      "midi": 66,
      "hit": false,
      "t": 70125,
      "d": 375,
      "v": 100
    },
    {
      "midi": 78,
      "hit": false,
      "t": 70125,
      "d": 375,
      "v": 100
    },
    {
      "midi": 64,
      "hit": false,
      "t": 70500,
      "d": 375,
      "v": 100
    },
    {
      "midi": 62,
      "hit": false,
      "t": 70500,
      "d": 1125,
      "v": 100
    },
    {
      "midi": 57,
      "hit": false,
      "t": 70500,
      "d": 750,
      "v": 100
    },
    {
      "midi": 45,
      "hit": false,
      "t": 70500,
      "d": 1500,
      "v": 100
    },
    {
      "midi": 76,
      "hit": false,
      "t": 70500,
      "d": 375,
      "v": 100
    },
    {
      "midi": 74,
      "hit": false,
      "t": 70500,
      "d": 1125,
      "v": 100
    },
    {
      "midi": 45,
      "hit": false,
      "t": 70500,
      "d": 750,
      "v": 100
    },
    {
      "midi": 33,
      "hit": false,
      "t": 70500,
      "d": 1500,
      "v": 100
    },
    {
      "midi": 67,
      "hit": false,
      "t": 70875,
      "d": 375,
      "v": 100
    },
    {
      "midi": 79,
      "hit": false,
      "t": 70875,
      "d": 375,
      "v": 100
    },
    {
      "midi": 66,
      "hit": false,
      "t": 71250,
      "d": 375,
      "v": 100
    },
    {
      "midi": 55,
      "hit": false,
      "t": 71250,
      "d": 750,
      "v": 100
    },
    {
      "midi": 78,
      "hit": false,
      "t": 71250,
      "d": 375,
      "v": 100
    },
    {
      "midi": 43,
      "hit": false,
      "t": 71250,
      "d": 750,
      "v": 100
    },
    {
      "midi": 61,
      "hit": false,
      "t": 71625,
      "d": 375,
      "v": 100
    },
    {
      "midi": 64,
      "hit": false,
      "t": 71625,
      "d": 375,
      "v": 100
    },
    {
      "midi": 73,
      "hit": false,
      "t": 71625,
      "d": 375,
      "v": 100
    },
    {
      "midi": 76,
      "hit": false,
      "t": 71625,
      "d": 375,
      "v": 100
    },
    {
      "midi": 62,
      "hit": false,
      "t": 72000,
      "d": 375,
      "v": 100
    },
    {
      "midi": 54,
      "hit": false,
      "t": 72000,
      "d": 750,
      "v": 100
    },
    {
      "midi": 74,
      "hit": false,
      "t": 72000,
      "d": 375,
      "v": 100
    },
    {
      "midi": 42,
      "hit": false,
      "t": 72000,
      "d": 750,
      "v": 100
    },
    {
      "midi": 64,
      "hit": false,
      "t": 72375,
      "d": 375,
      "v": 100
    },
    {
      "midi": 76,
      "hit": false,
      "t": 72375,
      "d": 375,
      "v": 100
    },
    {
      "midi": 66,
      "hit": false,
      "t": 72750,
      "d": 375,
      "v": 100
    },
    {
      "midi": 50,
      "hit": false,
      "t": 72750,
      "d": 750,
      "v": 100
    },
    {
      "midi": 78,
      "hit": false,
      "t": 72750,
      "d": 375,
      "v": 100
    },
    {
      "midi": 38,
      "hit": false,
      "t": 72750,
      "d": 750,
      "v": 100
    },
    {
      "midi": 67,
      "hit": false,
      "t": 73125,
      "d": 375,
      "v": 100
    },
    {
      "midi": 79,
      "hit": false,
      "t": 73125,
      "d": 375,
      "v": 100
    },
    {
      "midi": 69,
      "hit": false,
      "t": 73500,
      "d": 375,
      "v": 100
    },
    {
      "midi": 52,
      "hit": false,
      "t": 73500,
      "d": 750,
      "v": 100
    },
    {
      "midi": 45,
      "hit": false,
      "t": 73500,
      "d": 1500,
      "v": 100
    },
    {
      "midi": 81,
      "hit": false,
      "t": 73500,
      "d": 375,
      "v": 100
    },
    {
      "midi": 40,
      "hit": false,
      "t": 73500,
      "d": 750,
      "v": 100
    },
    {
      "midi": 33,
      "hit": false,
      "t": 73500,
      "d": 1500,
      "v": 100
    },
    {
      "midi": 64,
      "hit": false,
      "t": 73875,
      "d": 375,
      "v": 100
    },
    {
      "midi": 76,
      "hit": false,
      "t": 73875,
      "d": 375,
      "v": 100
    },
    {
      "midi": 69,
      "hit": false,
      "t": 74250,
      "d": 375,
      "v": 100
    },
    {
      "midi": 49,
      "hit": false,
      "t": 74250,
      "d": 750,
      "v": 100
    },
    {
      "midi": 81,
      "hit": false,
      "t": 74250,
      "d": 375,
      "v": 100
    },
    {
      "midi": 37,
      "hit": false,
      "t": 74250,
      "d": 750,
      "v": 100
    },
    {
      "midi": 67,
      "hit": false,
      "t": 74625,
      "d": 375,
      "v": 100
    },
    {
      "midi": 79,
      "hit": false,
      "t": 74625,
      "d": 375,
      "v": 100
    },
    {
      "midi": 66,
      "hit": false,
      "t": 75000,
      "d": 375,
      "v": 100
    },
    {
      "midi": 50,
      "hit": false,
      "t": 75000,
      "d": 750,
      "v": 100
    },
    {
      "midi": 47,
      "hit": false,
      "t": 75000,
      "d": 1500,
      "v": 100
    },
    {
      "midi": 78,
      "hit": false,
      "t": 75000,
      "d": 375,
      "v": 100
    },
    {
      "midi": 38,
      "hit": false,
      "t": 75000,
      "d": 750,
      "v": 100
    },
    {
      "midi": 35,
      "hit": false,
      "t": 75000,
      "d": 1500,
      "v": 100
    },
    {
      "midi": 71,
      "hit": false,
      "t": 75375,
      "d": 375,
      "v": 100
    },
    {
      "midi": 83,
      "hit": false,
      "t": 75375,
      "d": 375,
      "v": 100
    },
    {
      "midi": 69,
      "hit": false,
      "t": 75750,
      "d": 375,
      "v": 100
    },
    {
      "midi": 54,
      "hit": false,
      "t": 75750,
      "d": 750,
      "v": 100
    },
    {
      "midi": 81,
      "hit": false,
      "t": 75750,
      "d": 375,
      "v": 100
    },
    {
      "midi": 42,
      "hit": false,
      "t": 75750,
      "d": 750,
      "v": 100
    },
    {
      "midi": 67,
      "hit": false,
      "t": 76125,
      "d": 375,
      "v": 100
    },
    {
      "midi": 79,
      "hit": false,
      "t": 76125,
      "d": 375,
      "v": 100
    },
    {
      "midi": 69,
      "hit": false,
      "t": 76500,
      "d": 375,
      "v": 100
    },
    {
      "midi": 57,
      "hit": false,
      "t": 76500,
      "d": 750,
      "v": 100
    },
    {
      "midi": 54,
      "hit": false,
      "t": 76500,
      "d": 1500,
      "v": 100
    },
    {
      "midi": 81,
      "hit": false,
      "t": 76500,
      "d": 375,
      "v": 100
    },
    {
      "midi": 45,
      "hit": false,
      "t": 76500,
      "d": 750,
      "v": 100
    },
    {
      "midi": 42,
      "hit": false,
      "t": 76500,
      "d": 1500,
      "v": 100
    },
    {
      "midi": 67,
      "hit": false,
      "t": 76875,
      "d": 375,
      "v": 100
    },
    {
      "midi": 79,
      "hit": false,
      "t": 76875,
      "d": 375,
      "v": 100
    },
    {
      "midi": 66,
      "hit": false,
      "t": 77250,
      "d": 375,
      "v": 100
    },
    {
      "midi": 57,
      "hit": false,
      "t": 77250,
      "d": 750,
      "v": 100
    },
    {
      "midi": 78,
      "hit": false,
      "t": 77250,
      "d": 375,
      "v": 100
    },
    {
      "midi": 45,
      "hit": false,
      "t": 77250,
      "d": 750,
      "v": 100
    },
    {
      "midi": 64,
      "hit": false,
      "t": 77625,
      "d": 375,
      "v": 100
    },
    {
      "midi": 76,
      "hit": false,
      "t": 77625,
      "d": 375,
      "v": 100
    },
    {
      "midi": 62,
      "hit": false,
      "t": 78000,
      "d": 375,
      "v": 100
    },
    {
      "midi": 59,
      "hit": false,
      "t": 78000,
      "d": 750,
      "v": 100
    },
    {
      "midi": 74,
      "hit": false,
      "t": 78000,
      "d": 375,
      "v": 100
    },
    {
      "midi": 47,
      "hit": false,
      "t": 78000,
      "d": 750,
      "v": 100
    },
    {
      "midi": 59,
      "hit": false,
      "t": 78375,
      "d": 375,
      "v": 100
    },
    {
      "midi": 71,
      "hit": false,
      "t": 78375,
      "d": 375,
      "v": 100
    },
    {
      "midi": 71,
      "hit": false,
      "t": 78750,
      "d": 375,
      "v": 100
    },
    {
      "midi": 55,
      "hit": false,
      "t": 78750,
      "d": 750,
      "v": 100
    },
    {
      "midi": 83,
      "hit": false,
      "t": 78750,
      "d": 375,
      "v": 100
    },
    {
      "midi": 43,
      "hit": false,
      "t": 78750,
      "d": 750,
      "v": 100
    },
    {
      "midi": 73,
      "hit": false,
      "t": 79125,
      "d": 375,
      "v": 100
    },
    {
      "midi": 85,
      "hit": false,
      "t": 79125,
      "d": 375,
      "v": 100
    },
    {
      "midi": 74,
      "hit": false,
      "t": 79500,
      "d": 375,
      "v": 100
    },
    {
      "midi": 57,
      "hit": false,
      "t": 79500,
      "d": 750,
      "v": 100
    },
    {
      "midi": 50,
      "hit": false,
      "t": 79500,
      "d": 1500,
      "v": 100
    },
    {
      "midi": 86,
      "hit": false,
      "t": 79500,
      "d": 375,
      "v": 100
    },
    {
      "midi": 45,
      "hit": false,
      "t": 79500,
      "d": 750,
      "v": 100
    },
    {
      "midi": 38,
      "hit": false,
      "t": 79500,
      "d": 1500,
      "v": 100
    },
    {
      "midi": 73,
      "hit": false,
      "t": 79875,
      "d": 375,
      "v": 100
    },
    {
      "midi": 85,
      "hit": false,
      "t": 79875,
      "d": 375,
      "v": 100
    },
    {
      "midi": 71,
      "hit": false,
      "t": 80250,
      "d": 375,
      "v": 100
    },
    {
      "midi": 54,
      "hit": false,
      "t": 80250,
      "d": 750,
      "v": 100
    },
    {
      "midi": 83,
      "hit": false,
      "t": 80250,
      "d": 375,
      "v": 100
    },
    {
      "midi": 42,
      "hit": false,
      "t": 80250,
      "d": 750,
      "v": 100
    },
    {
      "midi": 69,
      "hit": false,
      "t": 80625,
      "d": 375,
      "v": 100
    },
    {
      "midi": 81,
      "hit": false,
      "t": 80625,
      "d": 375,
      "v": 100
    },
    {
      "midi": 67,
      "hit": false,
      "t": 81000,
      "d": 375,
      "v": 100
    },
    {
      "midi": 50,
      "hit": false,
      "t": 81000,
      "d": 750,
      "v": 100
    },
    {
      "midi": 43,
      "hit": false,
      "t": 81000,
      "d": 1500,
      "v": 100
    },
    {
      "midi": 79,
      "hit": false,
      "t": 81000,
      "d": 375,
      "v": 100
    },
    {
      "midi": 38,
      "hit": false,
      "t": 81000,
      "d": 750,
      "v": 100
    },
    {
      "midi": 31,
      "hit": false,
      "t": 81000,
      "d": 1500,
      "v": 100
    },
    {
      "midi": 66,
      "hit": false,
      "t": 81375,
      "d": 375,
      "v": 100
    },
    {
      "midi": 78,
      "hit": false,
      "t": 81375,
      "d": 375,
      "v": 100
    },
    {
      "midi": 64,
      "hit": false,
      "t": 81750,
      "d": 375,
      "v": 100
    },
    {
      "midi": 62,
      "hit": false,
      "t": 81750,
      "d": 750,
      "v": 100
    },
    {
      "midi": 76,
      "hit": false,
      "t": 81750,
      "d": 375,
      "v": 100
    },
    {
      "midi": 50,
      "hit": false,
      "t": 81750,
      "d": 750,
      "v": 100
    },
    {
      "midi": 71,
      "hit": false,
      "t": 82125,
      "d": 375,
      "v": 100
    },
    {
      "midi": 83,
      "hit": false,
      "t": 82125,
      "d": 375,
      "v": 100
    },
    {
      "midi": 69,
      "hit": false,
      "t": 82500,
      "d": 375,
      "v": 100
    },
    {
      "midi": 62,
      "hit": false,
      "t": 82500,
      "d": 1125,
      "v": 100
    },
    {
      "midi": 45,
      "hit": false,
      "t": 82500,
      "d": 1500,
      "v": 100
    },
    {
      "midi": 81,
      "hit": false,
      "t": 82500,
      "d": 375,
      "v": 100
    },
    {
      "midi": 50,
      "hit": false,
      "t": 82500,
      "d": 1125,
      "v": 100
    },
    {
      "midi": 33,
      "hit": false,
      "t": 82500,
      "d": 1500,
      "v": 100
    },
    {
      "midi": 71,
      "hit": false,
      "t": 82875,
      "d": 375,
      "v": 100
    },
    {
      "midi": 83,
      "hit": false,
      "t": 82875,
      "d": 375,
      "v": 100
    },
    {
      "midi": 69,
      "hit": false,
      "t": 83250,
      "d": 375,
      "v": 100
    },
    {
      "midi": 81,
      "hit": false,
      "t": 83250,
      "d": 375,
      "v": 100
    },
    {
      "midi": 61,
      "hit": false,
      "t": 83625,
      "d": 375,
      "v": 100
    },
    {
      "midi": 67,
      "hit": false,
      "t": 83625,
      "d": 375,
      "v": 100
    },
    {
      "midi": 73,
      "hit": false,
      "t": 83625,
      "d": 375,
      "v": 100
    },
    {
      "midi": 79,
      "hit": false,
      "t": 83625,
      "d": 375,
      "v": 100
    },
    {
      "midi": 62,
      "hit": false,
      "t": 84000,
      "d": 750,
      "v": 100
    },
    {
      "midi": 66,
      "hit": false,
      "t": 84000,
      "d": 750,
      "v": 100
    },
    {
      "midi": 50,
      "hit": false,
      "t": 84000,
      "d": 1500,
      "v": 100
    },
    {
      "midi": 74,
      "hit": false,
      "t": 84000,
      "d": 750,
      "v": 100
    },
    {
      "midi": 78,
      "hit": false,
      "t": 84000,
      "d": 750,
      "v": 100
    },
    {
      "midi": 38,
      "hit": false,
      "t": 84000,
      "d": 1500,
      "v": 100
    },
    {
      "midi": 52,
      "hit": false,
      "t": 84375,
      "d": 375,
      "v": 100
    },
    {
      "midi": 40,
      "hit": false,
      "t": 84375,
      "d": 375,
      "v": 100
    },
    {
      "midi": 78,
      "hit": false,
      "t": 84750,
      "d": 750,
      "v": 100
    },
    {
      "midi": 54,
      "hit": false,
      "t": 84750,
      "d": 375,
      "v": 100
    },
    {
      "midi": 90,
      "hit": false,
      "t": 84750,
      "d": 750,
      "v": 100
    },
    {
      "midi": 42,
      "hit": false,
      "t": 84750,
      "d": 375,
      "v": 100
    },
    {
      "midi": 55,
      "hit": false,
      "t": 85125,
      "d": 375,
      "v": 100
    },
    {
      "midi": 43,
      "hit": false,
      "t": 85125,
      "d": 375,
      "v": 100
    },
    {
      "midi": 76,
      "hit": false,
      "t": 85500,
      "d": 1500,
      "v": 100
    },
    {
      "midi": 57,
      "hit": false,
      "t": 85500,
      "d": 375,
      "v": 100
    },
    {
      "midi": 45,
      "hit": false,
      "t": 85500,
      "d": 1500,
      "v": 100
    },
    {
      "midi": 88,
      "hit": false,
      "t": 85500,
      "d": 1500,
      "v": 100
    },
    {
      "midi": 45,
      "hit": false,
      "t": 85500,
      "d": 375,
      "v": 100
    },
    {
      "midi": 33,
      "hit": false,
      "t": 85500,
      "d": 1500,
      "v": 100
    },
    {
      "midi": 52,
      "hit": false,
      "t": 85875,
      "d": 375,
      "v": 100
    },
    {
      "midi": 40,
      "hit": false,
      "t": 85875,
      "d": 375,
      "v": 100
    },
    {
      "midi": 57,
      "hit": false,
      "t": 86250,
      "d": 375,
      "v": 100
    },
    {
      "midi": 45,
      "hit": false,
      "t": 86250,
      "d": 375,
      "v": 100
    },
    {
      "midi": 55,
      "hit": false,
      "t": 86625,
      "d": 375,
      "v": 100
    },
    {
      "midi": 43,
      "hit": false,
      "t": 86625,
      "d": 375,
      "v": 100
    },
    {
      "midi": 54,
      "hit": false,
      "t": 87000,
      "d": 375,
      "v": 100
    },
    {
      "midi": 47,
      "hit": false,
      "t": 87000,
      "d": 1500,
      "v": 100
    },
    {
      "midi": 42,
      "hit": false,
      "t": 87000,
      "d": 375,
      "v": 100
    },
    {
      "midi": 35,
      "hit": false,
      "t": 87000,
      "d": 1500,
      "v": 100
    },
    {
      "midi": 59,
      "hit": false,
      "t": 87375,
      "d": 375,
      "v": 100
    },
    {
      "midi": 47,
      "hit": false,
      "t": 87375,
      "d": 375,
      "v": 100
    },
    {
      "midi": 74,
      "hit": false,
      "t": 87750,
      "d": 750,
      "v": 100
    },
    {
      "midi": 57,
      "hit": false,
      "t": 87750,
      "d": 375,
      "v": 100
    },
    {
      "midi": 86,
      "hit": false,
      "t": 87750,
      "d": 750,
      "v": 100
    },
    {
      "midi": 45,
      "hit": false,
      "t": 87750,
      "d": 375,
      "v": 100
    },
    {
      "midi": 55,
      "hit": false,
      "t": 88125,
      "d": 375,
      "v": 100
    },
    {
      "midi": 43,
      "hit": false,
      "t": 88125,
      "d": 375,
      "v": 100
    },
    {
      "midi": 78,
      "hit": false,
      "t": 88500,
      "d": 1500,
      "v": 100
    },
    {
      "midi": 57,
      "hit": false,
      "t": 88500,
      "d": 375,
      "v": 100
    },
    {
      "midi": 42,
      "hit": false,
      "t": 88500,
      "d": 1500,
      "v": 100
    },
    {
      "midi": 90,
      "hit": false,
      "t": 88500,
      "d": 1500,
      "v": 100
    },
    {
      "midi": 45,
      "hit": false,
      "t": 88500,
      "d": 375,
      "v": 100
    },
    {
      "midi": 30,
      "hit": false,
      "t": 88500,
      "d": 1500,
      "v": 100
    },
    {
      "midi": 55,
      "hit": false,
      "t": 88875,
      "d": 375,
      "v": 100
    },
    {
      "midi": 43,
      "hit": false,
      "t": 88875,
      "d": 375,
      "v": 100
    },
    {
      "midi": 54,
      "hit": false,
      "t": 89250,
      "d": 375,
      "v": 100
    },
    {
      "midi": 42,
      "hit": false,
      "t": 89250,
      "d": 375,
      "v": 100
    },
    {
      "midi": 52,
      "hit": false,
      "t": 89625,
      "d": 375,
      "v": 100
    },
    {
      "midi": 40,
      "hit": false,
      "t": 89625,
      "d": 375,
      "v": 100
    },
    {
      "midi": 71,
      "hit": false,
      "t": 90000,
      "d": 1500,
      "v": 100
    },
    {
      "midi": 50,
      "hit": false,
      "t": 90000,
      "d": 375,
      "v": 100
    },
    {
      "midi": 43,
      "hit": false,
      "t": 90000,
      "d": 1500,
      "v": 100
    },
    {
      "midi": 83,
      "hit": false,
      "t": 90000,
      "d": 1500,
      "v": 100
    },
    {
      "midi": 38,
      "hit": false,
      "t": 90000,
      "d": 375,
      "v": 100
    },
    {
      "midi": 31,
      "hit": false,
      "t": 90000,
      "d": 1500,
      "v": 100
    },
    {
      "midi": 47,
      "hit": false,
      "t": 90375,
      "d": 375,
      "v": 100
    },
    {
      "midi": 35,
      "hit": false,
      "t": 90375,
      "d": 375,
      "v": 100
    },
    {
      "midi": 59,
      "hit": false,
      "t": 90750,
      "d": 375,
      "v": 100
    },
    {
      "midi": 47,
      "hit": false,
      "t": 90750,
      "d": 375,
      "v": 100
    },
    {
      "midi": 61,
      "hit": false,
      "t": 91125,
      "d": 375,
      "v": 100
    },
    {
      "midi": 49,
      "hit": false,
      "t": 91125,
      "d": 375,
      "v": 100
    },
    {
      "midi": 69,
      "hit": false,
      "t": 91500,
      "d": 1500,
      "v": 100
    },
    {
      "midi": 62,
      "hit": false,
      "t": 91500,
      "d": 375,
      "v": 100
    },
    {
      "midi": 50,
      "hit": false,
      "t": 91500,
      "d": 1500,
      "v": 100
    },
    {
      "midi": 81,
      "hit": false,
      "t": 91500,
      "d": 1500,
      "v": 100
    },
    {
      "midi": 50,
      "hit": false,
      "t": 91500,
      "d": 375,
      "v": 100
    },
    {
      "midi": 38,
      "hit": false,
      "t": 91500,
      "d": 1500,
      "v": 100
    },
    {
      "midi": 61,
      "hit": false,
      "t": 91875,
      "d": 375,
      "v": 100
    },
    {
      "midi": 49,
      "hit": false,
      "t": 91875,
      "d": 375,
      "v": 100
    },
    {
      "midi": 59,
      "hit": false,
      "t": 92250,
      "d": 375,
      "v": 100
    },
    {
      "midi": 47,
      "hit": false,
      "t": 92250,
      "d": 375,
      "v": 100
    },
    {
      "midi": 57,
      "hit": false,
      "t": 92625,
      "d": 375,
      "v": 100
    },
    {
      "midi": 45,
      "hit": false,
      "t": 92625,
      "d": 375,
      "v": 100
    },
    {
      "midi": 71,
      "hit": false,
      "t": 93000,
      "d": 1500,
      "v": 100
    },
    {
      "midi": 55,
      "hit": false,
      "t": 93000,
      "d": 375,
      "v": 100
    },
    {
      "midi": 43,
      "hit": false,
      "t": 93000,
      "d": 1500,
      "v": 100
    },
    {
      "midi": 83,
      "hit": false,
      "t": 93000,
      "d": 1500,
      "v": 100
    },
    {
      "midi": 43,
      "hit": false,
      "t": 93000,
      "d": 375,
      "v": 100
    },
    {
      "midi": 31,
      "hit": false,
      "t": 93000,
      "d": 1500,
      "v": 100
    },
    {
      "midi": 54,
      "hit": false,
      "t": 93375,
      "d": 375,
      "v": 100
    },
    {
      "midi": 42,
      "hit": false,
      "t": 93375,
      "d": 375,
      "v": 100
    },
    {
      "midi": 52,
      "hit": false,
      "t": 93750,
      "d": 375,
      "v": 100
    },
    {
      "midi": 40,
      "hit": false,
      "t": 93750,
      "d": 375,
      "v": 100
    },
    {
      "midi": 59,
      "hit": false,
      "t": 94125,
      "d": 375,
      "v": 100
    },
    {
      "midi": 47,
      "hit": false,
      "t": 94125,
      "d": 375,
      "v": 100
    },
    {
      "midi": 73,
      "hit": false,
      "t": 94500,
      "d": 1500,
      "v": 100
    },
    {
      "midi": 57,
      "hit": false,
      "t": 94500,
      "d": 375,
      "v": 100
    },
    {
      "midi": 45,
      "hit": false,
      "t": 94500,
      "d": 1500,
      "v": 100
    },
    {
      "midi": 85,
      "hit": false,
      "t": 94500,
      "d": 1500,
      "v": 100
    },
    {
      "midi": 45,
      "hit": false,
      "t": 94500,
      "d": 375,
      "v": 100
    },
    {
      "midi": 33,
      "hit": false,
      "t": 94500,
      "d": 1500,
      "v": 100
    },
    {
      "midi": 55,
      "hit": false,
      "t": 94875,
      "d": 375,
      "v": 100
    },
    {
      "midi": 43,
      "hit": false,
      "t": 94875,
      "d": 375,
      "v": 100
    },
    {
      "midi": 54,
      "hit": false,
      "t": 95250,
      "d": 375,
      "v": 100
    },
    {
      "midi": 42,
      "hit": false,
      "t": 95250,
      "d": 375,
      "v": 100
    },
    {
      "midi": 52,
      "hit": false,
      "t": 95625,
      "d": 375,
      "v": 100
    },
    {
      "midi": 40,
      "hit": false,
      "t": 95625,
      "d": 375,
      "v": 100
    },
    {
      "midi": 66,
      "hit": false,
      "t": 96000,
      "d": 750,
      "v": 100
    },
    {
      "midi": 74,
      "hit": false,
      "t": 96000,
      "d": 750,
      "v": 100
    },
    {
      "midi": 54,
      "hit": false,
      "t": 96000,
      "d": 375,
      "v": 100
    },
    {
      "midi": 50,
      "hit": false,
      "t": 96000,
      "d": 1500,
      "v": 100
    },
    {
      "midi": 78,
      "hit": false,
      "t": 96000,
      "d": 750,
      "v": 100
    },
    {
      "midi": 86,
      "hit": false,
      "t": 96000,
      "d": 750,
      "v": 100
    },
    {
      "midi": 42,
      "hit": false,
      "t": 96000,
      "d": 375,
      "v": 100
    },
    {
      "midi": 38,
      "hit": false,
      "t": 96000,
      "d": 1500,
      "v": 100
    },
    {
      "midi": 52,
      "hit": false,
      "t": 96375,
      "d": 375,
      "v": 100
    },
    {
      "midi": 40,
      "hit": false,
      "t": 96375,
      "d": 375,
      "v": 100
    },
    {
      "midi": 74,
      "hit": false,
      "t": 96750,
      "d": 750,
      "v": 100
    },
    {
      "midi": 78,
      "hit": false,
      "t": 96750,
      "d": 750,
      "v": 100
    },
    {
      "midi": 54,
      "hit": false,
      "t": 96750,
      "d": 375,
      "v": 100
    },
    {
      "midi": 86,
      "hit": false,
      "t": 96750,
      "d": 750,
      "v": 100
    },
    {
      "midi": 90,
      "hit": false,
      "t": 96750,
      "d": 750,
      "v": 100
    },
    {
      "midi": 42,
      "hit": false,
      "t": 96750,
      "d": 375,
      "v": 100
    },
    {
      "midi": 55,
      "hit": false,
      "t": 97125,
      "d": 375,
      "v": 100
    },
    {
      "midi": 43,
      "hit": false,
      "t": 97125,
      "d": 375,
      "v": 100
    },
    {
      "midi": 73,
      "hit": false,
      "t": 97500,
      "d": 1500,
      "v": 100
    },
    {
      "midi": 76,
      "hit": false,
      "t": 97500,
      "d": 1500,
      "v": 100
    },
    {
      "midi": 57,
      "hit": false,
      "t": 97500,
      "d": 375,
      "v": 100
    },
    {
      "midi": 45,
      "hit": false,
      "t": 97500,
      "d": 1500,
      "v": 100
    },
    {
      "midi": 85,
      "hit": false,
      "t": 97500,
      "d": 1500,
      "v": 100
    },
    {
      "midi": 88,
      "hit": false,
      "t": 97500,
      "d": 1500,
      "v": 100
    },
    {
      "midi": 45,
      "hit": false,
      "t": 97500,
      "d": 375,
      "v": 100
    },
    {
      "midi": 33,
      "hit": false,
      "t": 97500,
      "d": 1500,
      "v": 100
    },
    {
      "midi": 52,
      "hit": false,
      "t": 97875,
      "d": 375,
      "v": 100
    },
    {
      "midi": 40,
      "hit": false,
      "t": 97875,
      "d": 375,
      "v": 100
    },
    {
      "midi": 57,
      "hit": false,
      "t": 98250,
      "d": 375,
      "v": 100
    },
    {
      "midi": 45,
      "hit": false,
      "t": 98250,
      "d": 375,
      "v": 100
    },
    {
      "midi": 55,
      "hit": false,
      "t": 98625,
      "d": 375,
      "v": 100
    },
    {
      "midi": 43,
      "hit": false,
      "t": 98625,
      "d": 375,
      "v": 100
    },
    {
      "midi": 54,
      "hit": false,
      "t": 99000,
      "d": 375,
      "v": 100
    },
    {
      "midi": 47,
      "hit": false,
      "t": 99000,
      "d": 1500,
      "v": 100
    },
    {
      "midi": 42,
      "hit": false,
      "t": 99000,
      "d": 375,
      "v": 100
    },
    {
      "midi": 35,
      "hit": false,
      "t": 99000,
      "d": 1500,
      "v": 100
    },
    {
      "midi": 59,
      "hit": false,
      "t": 99375,
      "d": 375,
      "v": 100
    },
    {
      "midi": 47,
      "hit": false,
      "t": 99375,
      "d": 375,
      "v": 100
    },
    {
      "midi": 71,
      "hit": false,
      "t": 99750,
      "d": 750,
      "v": 100
    },
    {
      "midi": 74,
      "hit": false,
      "t": 99750,
      "d": 750,
      "v": 100
    },
    {
      "midi": 57,
      "hit": false,
      "t": 99750,
      "d": 375,
      "v": 100
    },
    {
      "midi": 83,
      "hit": false,
      "t": 99750,
      "d": 750,
      "v": 100
    },
    {
      "midi": 86,
      "hit": false,
      "t": 99750,
      "d": 750,
      "v": 100
    },
    {
      "midi": 45,
      "hit": false,
      "t": 99750,
      "d": 375,
      "v": 100
    },
    {
      "midi": 55,
      "hit": false,
      "t": 100125,
      "d": 375,
      "v": 100
    },
    {
      "midi": 43,
      "hit": false,
      "t": 100125,
      "d": 375,
      "v": 100
    },
    {
      "midi": 74,
      "hit": false,
      "t": 100500,
      "d": 1500,
      "v": 100
    },
    {
      "midi": 78,
      "hit": false,
      "t": 100500,
      "d": 1500,
      "v": 100
    },
    {
      "midi": 57,
      "hit": false,
      "t": 100500,
      "d": 375,
      "v": 100
    },
    {
      "midi": 42,
      "hit": false,
      "t": 100500,
      "d": 1500,
      "v": 100
    },
    {
      "midi": 86,
      "hit": false,
      "t": 100500,
      "d": 1500,
      "v": 100
    },
    {
      "midi": 90,
      "hit": false,
      "t": 100500,
      "d": 1500,
      "v": 100
    },
    {
      "midi": 45,
      "hit": false,
      "t": 100500,
      "d": 375,
      "v": 100
    },
    {
      "midi": 30,
      "hit": false,
      "t": 100500,
      "d": 1500,
      "v": 100
    },
    {
      "midi": 55,
      "hit": false,
      "t": 100875,
      "d": 375,
      "v": 100
    },
    {
      "midi": 43,
      "hit": false,
      "t": 100875,
      "d": 375,
      "v": 100
    },
    {
      "midi": 54,
      "hit": false,
      "t": 101250,
      "d": 375,
      "v": 100
    },
    {
      "midi": 42,
      "hit": false,
      "t": 101250,
      "d": 375,
      "v": 100
    },
    {
      "midi": 52,
      "hit": false,
      "t": 101625,
      "d": 375,
      "v": 100
    },
    {
      "midi": 40,
      "hit": false,
      "t": 101625,
      "d": 375,
      "v": 100
    },
    {
      "midi": 71,
      "hit": false,
      "t": 102000,
      "d": 1500,
      "v": 100
    },
    {
      "midi": 74,
      "hit": false,
      "t": 102000,
      "d": 2250,
      "v": 100
    },
    {
      "midi": 50,
      "hit": false,
      "t": 102000,
      "d": 375,
      "v": 100
    },
    {
      "midi": 43,
      "hit": false,
      "t": 102000,
      "d": 1500,
      "v": 100
    },
    {
      "midi": 83,
      "hit": false,
      "t": 102000,
      "d": 1500,
      "v": 100
    },
    {
      "midi": 86,
      "hit": false,
      "t": 102000,
      "d": 2250,
      "v": 100
    },
    {
      "midi": 38,
      "hit": false,
      "t": 102000,
      "d": 375,
      "v": 100
    },
    {
      "midi": 31,
      "hit": false,
      "t": 102000,
      "d": 1500,
      "v": 100
    },
    {
      "midi": 47,
      "hit": false,
      "t": 102375,
      "d": 375,
      "v": 100
    },
    {
      "midi": 35,
      "hit": false,
      "t": 102375,
      "d": 375,
      "v": 100
    },
    {
      "midi": 59,
      "hit": false,
      "t": 102750,
      "d": 375,
      "v": 100
    },
    {
      "midi": 47,
      "hit": false,
      "t": 102750,
      "d": 375,
      "v": 100
    },
    {
      "midi": 61,
      "hit": false,
      "t": 103125,
      "d": 375,
      "v": 100
    },
    {
      "midi": 49,
      "hit": false,
      "t": 103125,
      "d": 375,
      "v": 100
    },
    {
      "midi": 69,
      "hit": false,
      "t": 103500,
      "d": 1500,
      "v": 100
    },
    {
      "midi": 62,
      "hit": false,
      "t": 103500,
      "d": 375,
      "v": 100
    },
    {
      "midi": 50,
      "hit": false,
      "t": 103500,
      "d": 1500,
      "v": 100
    },
    {
      "midi": 81,
      "hit": false,
      "t": 103500,
      "d": 1500,
      "v": 100
    },
    {
      "midi": 50,
      "hit": false,
      "t": 103500,
      "d": 375,
      "v": 100
    },
    {
      "midi": 38,
      "hit": false,
      "t": 103500,
      "d": 1500,
      "v": 100
    },
    {
      "midi": 61,
      "hit": false,
      "t": 103875,
      "d": 375,
      "v": 100
    },
    {
      "midi": 49,
      "hit": false,
      "t": 103875,
      "d": 375,
      "v": 100
    },
    {
      "midi": 74,
      "hit": false,
      "t": 104250,
      "d": 750,
      "v": 100
    },
    {
      "midi": 59,
      "hit": false,
      "t": 104250,
      "d": 375,
      "v": 100
    },
    {
      "midi": 86,
      "hit": false,
      "t": 104250,
      "d": 750,
      "v": 100
    },
    {
      "midi": 47,
      "hit": false,
      "t": 104250,
      "d": 375,
      "v": 100
    },
    {
      "midi": 57,
      "hit": false,
      "t": 104625,
      "d": 375,
      "v": 100
    },
    {
      "midi": 45,
      "hit": false,
      "t": 104625,
      "d": 375,
      "v": 100
    },
    {
      "midi": 74,
      "hit": false,
      "t": 105000,
      "d": 750,
      "v": 100
    },
    {
      "midi": 71,
      "hit": false,
      "t": 105000,
      "d": 1500,
      "v": 100
    },
    {
      "midi": 55,
      "hit": false,
      "t": 105000,
      "d": 375,
      "v": 100
    },
    {
      "midi": 43,
      "hit": false,
      "t": 105000,
      "d": 1500,
      "v": 100
    },
    {
      "midi": 86,
      "hit": false,
      "t": 105000,
      "d": 750,
      "v": 100
    },
    {
      "midi": 83,
      "hit": false,
      "t": 105000,
      "d": 1500,
      "v": 100
    },
    {
      "midi": 43,
      "hit": false,
      "t": 105000,
      "d": 375,
      "v": 100
    },
    {
      "midi": 31,
      "hit": false,
      "t": 105000,
      "d": 1500,
      "v": 100
    },
    {
      "midi": 54,
      "hit": false,
      "t": 105375,
      "d": 375,
      "v": 100
    },
    {
      "midi": 42,
      "hit": false,
      "t": 105375,
      "d": 375,
      "v": 100
    },
    {
      "midi": 79,
      "hit": false,
      "t": 105750,
      "d": 750,
      "v": 100
    },
    {
      "midi": 52,
      "hit": false,
      "t": 105750,
      "d": 375,
      "v": 100
    },
    {
      "midi": 91,
      "hit": false,
      "t": 105750,
      "d": 750,
      "v": 100
    },
    {
      "midi": 40,
      "hit": false,
      "t": 105750,
      "d": 375,
      "v": 100
    },
    {
      "midi": 59,
      "hit": false,
      "t": 106125,
      "d": 375,
      "v": 100
    },
    {
      "midi": 47,
      "hit": false,
      "t": 106125,
      "d": 375,
      "v": 100
    },
    {
      "midi": 76,
      "hit": false,
      "t": 106500,
      "d": 750,
      "v": 100
    },
    {
      "midi": 73,
      "hit": false,
      "t": 106500,
      "d": 1500,
      "v": 100
    },
    {
      "midi": 57,
      "hit": false,
      "t": 106500,
      "d": 375,
      "v": 100
    },
    {
      "midi": 45,
      "hit": false,
      "t": 106500,
      "d": 1500,
      "v": 100
    },
    {
      "midi": 88,
      "hit": false,
      "t": 106500,
      "d": 750,
      "v": 100
    },
    {
      "midi": 85,
      "hit": false,
      "t": 106500,
      "d": 1500,
      "v": 100
    },
    {
      "midi": 45,
      "hit": false,
      "t": 106500,
      "d": 375,
      "v": 100
    },
    {
      "midi": 33,
      "hit": false,
      "t": 106500,
      "d": 1500,
      "v": 100
    },
    {
      "midi": 59,
      "hit": false,
      "t": 106875,
      "d": 375,
      "v": 100
    },
    {
      "midi": 47,
      "hit": false,
      "t": 106875,
      "d": 375,
      "v": 100
    },
    {
      "midi": 81,
      "hit": false,
      "t": 107250,
      "d": 750,
      "v": 100
    },
    {
      "midi": 57,
      "hit": false,
      "t": 107250,
      "d": 375,
      "v": 100
    },
    {
      "midi": 93,
      "hit": false,
      "t": 107250,
      "d": 750,
      "v": 100
    },
    {
      "midi": 45,
      "hit": false,
      "t": 107250,
      "d": 375,
      "v": 100
    },
    {
      "midi": 55,
      "hit": false,
      "t": 107625,
      "d": 375,
      "v": 100
    },
    {
      "midi": 43,
      "hit": false,
      "t": 107625,
      "d": 375,
      "v": 100
    },
    {
      "midi": 81,
      "hit": false,
      "t": 108000,
      "d": 375,
      "v": 100
    },
    {
      "midi": 74,
      "hit": false,
      "t": 108000,
      "d": 750,
      "v": 100
    },
    {
      "midi": 54,
      "hit": false,
      "t": 108000,
      "d": 750,
      "v": 100
    },
    {
      "midi": 50,
      "hit": false,
      "t": 108000,
      "d": 1500,
      "v": 100
    },
    {
      "midi": 93,
      "hit": false,
      "t": 108000,
      "d": 375,
      "v": 100
    },
    {
      "midi": 86,
      "hit": false,
      "t": 108000,
      "d": 750,
      "v": 100
    },
    {
      "midi": 42,
      "hit": false,
      "t": 108000,
      "d": 750,
      "v": 100
    },
    {
      "midi": 38,
      "hit": false,
      "t": 108000,
      "d": 1500,
      "v": 100
    },
    {
      "midi": 78,
      "hit": false,
      "t": 108375,
      "d": 187.5,
      "v": 100
    },
    {
      "midi": 90,
      "hit": false,
      "t": 108375,
      "d": 187.5,
      "v": 100
    },
    {
      "midi": 79,
      "hit": false,
      "t": 108562.5,
      "d": 187.5,
      "v": 100
    },
    {
      "midi": 91,
      "hit": false,
      "t": 108562.5,
      "d": 187.5,
      "v": 100
    },
    {
      "midi": 81,
      "hit": false,
      "t": 108750,
      "d": 375,
      "v": 100
    },
    {
      "midi": 74,
      "hit": false,
      "t": 108750,
      "d": 750,
      "v": 100
    },
    {
      "midi": 54,
      "hit": false,
      "t": 108750,
      "d": 750,
      "v": 100
    },
    {
      "midi": 93,
      "hit": false,
      "t": 108750,
      "d": 375,
      "v": 100
    },
    {
      "midi": 86,
      "hit": false,
      "t": 108750,
      "d": 750,
      "v": 100
    },
    {
      "midi": 42,
      "hit": false,
      "t": 108750,
      "d": 750,
      "v": 100
    },
    {
      "midi": 78,
      "hit": false,
      "t": 109125,
      "d": 187.5,
      "v": 100
    },
    {
      "midi": 90,
      "hit": false,
      "t": 109125,
      "d": 187.5,
      "v": 100
    },
    {
      "midi": 79,
      "hit": false,
      "t": 109312.5,
      "d": 187.5,
      "v": 100
    },
    {
      "midi": 91,
      "hit": false,
      "t": 109312.5,
      "d": 187.5,
      "v": 100
    },
    {
      "midi": 81,
      "hit": false,
      "t": 109500,
      "d": 375,
      "v": 100
    },
    {
      "midi": 52,
      "hit": false,
      "t": 109500,
      "d": 750,
      "v": 100
    },
    {
      "midi": 45,
      "hit": false,
      "t": 109500,
      "d": 1500,
      "v": 100
    },
    {
      "midi": 93,
      "hit": false,
      "t": 109500,
      "d": 375,
      "v": 100
    },
    {
      "midi": 40,
      "hit": false,
      "t": 109500,
      "d": 750,
      "v": 100
    },
    {
      "midi": 33,
      "hit": false,
      "t": 109500,
      "d": 1500,
      "v": 100
    },
    {
      "midi": 69,
      "hit": false,
      "t": 109687.5,
      "d": 187.5,
      "v": 100
    },
    {
      "midi": 81,
      "hit": false,
      "t": 109687.5,
      "d": 187.5,
      "v": 100
    },
    {
      "midi": 71,
      "hit": false,
      "t": 109875,
      "d": 187.5,
      "v": 100
    },
    {
      "midi": 83,
      "hit": false,
      "t": 109875,
      "d": 187.5,
      "v": 100
    },
    {
      "midi": 73,
      "hit": false,
      "t": 110062.5,
      "d": 187.5,
      "v": 100
    },
    {
      "midi": 85,
      "hit": false,
      "t": 110062.5,
      "d": 187.5,
      "v": 100
    },
    {
      "midi": 74,
      "hit": false,
      "t": 110250,
      "d": 187.5,
      "v": 100
    },
    {
      "midi": 61,
      "hit": false,
      "t": 110250,
      "d": 750,
      "v": 100
    },
    {
      "midi": 86,
      "hit": false,
      "t": 110250,
      "d": 187.5,
      "v": 100
    },
    {
      "midi": 49,
      "hit": false,
      "t": 110250,
      "d": 750,
      "v": 100
    },
    {
      "midi": 76,
      "hit": false,
      "t": 110437.5,
      "d": 187.5,
      "v": 100
    },
    {
      "midi": 88,
      "hit": false,
      "t": 110437.5,
      "d": 187.5,
      "v": 100
    },
    {
      "midi": 78,
      "hit": false,
      "t": 110625,
      "d": 187.5,
      "v": 100
    },
    {
      "midi": 90,
      "hit": false,
      "t": 110625,
      "d": 187.5,
      "v": 100
    },
    {
      "midi": 79,
      "hit": false,
      "t": 110812.5,
      "d": 187.5,
      "v": 100
    },
    {
      "midi": 91,
      "hit": false,
      "t": 110812.5,
      "d": 187.5,
      "v": 100
    },
    {
      "midi": 78,
      "hit": false,
      "t": 111000,
      "d": 375,
      "v": 100
    },
    {
      "midi": 47,
      "hit": false,
      "t": 111000,
      "d": 1500,
      "v": 100
    },
    {
      "midi": 90,
      "hit": false,
      "t": 111000,
      "d": 375,
      "v": 100
    },
    {
      "midi": 35,
      "hit": false,
      "t": 111000,
      "d": 1500,
      "v": 100
    },
    {
      "midi": 74,
      "hit": false,
      "t": 111375,
      "d": 187.5,
      "v": 100
    },
    {
      "midi": 86,
      "hit": false,
      "t": 111375,
      "d": 187.5,
      "v": 100
    },
    {
      "midi": 76,
      "hit": false,
      "t": 111562.5,
      "d": 187.5,
      "v": 100
    },
    {
      "midi": 88,
      "hit": false,
      "t": 111562.5,
      "d": 187.5,
      "v": 100
    },
    {
      "midi": 78,
      "hit": false,
      "t": 111750,
      "d": 375,
      "v": 100
    },
    {
      "midi": 59,
      "hit": false,
      "t": 111750,
      "d": 750,
      "v": 100
    },
    {
      "midi": 62,
      "hit": false,
      "t": 111750,
      "d": 750,
      "v": 100
    },
    {
      "midi": 90,
      "hit": false,
      "t": 111750,
      "d": 375,
      "v": 100
    },
    {
      "midi": 47,
      "hit": false,
      "t": 111750,
      "d": 750,
      "v": 100
    },
    {
      "midi": 50,
      "hit": false,
      "t": 111750,
      "d": 750,
      "v": 100
    },
    {
      "midi": 66,
      "hit": false,
      "t": 112125,
      "d": 187.5,
      "v": 100
    },
    {
      "midi": 78,
      "hit": false,
      "t": 112125,
      "d": 187.5,
      "v": 100
    },
    {
      "midi": 67,
      "hit": false,
      "t": 112312.5,
      "d": 187.5,
      "v": 100
    },
    {
      "midi": 79,
      "hit": false,
      "t": 112312.5,
      "d": 187.5,
      "v": 100
    },
    {
      "midi": 69,
      "hit": false,
      "t": 112500,
      "d": 187.5,
      "v": 100
    },
    {
      "midi": 62,
      "hit": false,
      "t": 112500,
      "d": 1500,
      "v": 100
    },
    {
      "midi": 54,
      "hit": false,
      "t": 112500,
      "d": 1500,
      "v": 100
    },
    {
      "midi": 81,
      "hit": false,
      "t": 112500,
      "d": 187.5,
      "v": 100
    },
    {
      "midi": 74,
      "hit": false,
      "t": 112500,
      "d": 1500,
      "v": 100
    },
    {
      "midi": 42,
      "hit": false,
      "t": 112500,
      "d": 1500,
      "v": 100
    },
    {
      "midi": 71,
      "hit": false,
      "t": 112687.5,
      "d": 187.5,
      "v": 100
    },
    {
      "midi": 83,
      "hit": false,
      "t": 112687.5,
      "d": 187.5,
      "v": 100
    },
    {
      "midi": 69,
      "hit": false,
      "t": 112875,
      "d": 187.5,
      "v": 100
    },
    {
      "midi": 81,
      "hit": false,
      "t": 112875,
      "d": 187.5,
      "v": 100
    },
    {
      "midi": 67,
      "hit": false,
      "t": 113062.5,
      "d": 187.5,
      "v": 100
    },
    {
      "midi": 79,
      "hit": false,
      "t": 113062.5,
      "d": 187.5,
      "v": 100
    },
    {
      "midi": 69,
      "hit": false,
      "t": 113250,
      "d": 187.5,
      "v": 100
    },
    {
      "midi": 81,
      "hit": false,
      "t": 113250,
      "d": 187.5,
      "v": 100
    },
    {
      "midi": 66,
      "hit": false,
      "t": 113437.5,
      "d": 187.5,
      "v": 100
    },
    {
      "midi": 78,
      "hit": false,
      "t": 113437.5,
      "d": 187.5,
      "v": 100
    },
    {
      "midi": 67,
      "hit": false,
      "t": 113625,
      "d": 187.5,
      "v": 100
    },
    {
      "midi": 79,
      "hit": false,
      "t": 113625,
      "d": 187.5,
      "v": 100
    },
    {
      "midi": 69,
      "hit": false,
      "t": 113812.5,
      "d": 187.5,
      "v": 100
    },
    {
      "midi": 81,
      "hit": false,
      "t": 113812.5,
      "d": 187.5,
      "v": 100
    },
    {
      "midi": 67,
      "hit": false,
      "t": 114000,
      "d": 375,
      "v": 100
    },
    {
      "midi": 55,
      "hit": false,
      "t": 114000,
      "d": 1500,
      "v": 100
    },
    {
      "midi": 59,
      "hit": false,
      "t": 114000,
      "d": 1500,
      "v": 100
    },
    {
      "midi": 79,
      "hit": false,
      "t": 114000,
      "d": 375,
      "v": 100
    },
    {
      "midi": 43,
      "hit": false,
      "t": 114000,
      "d": 1500,
      "v": 100
    },
    {
      "midi": 47,
      "hit": false,
      "t": 114000,
      "d": 1500,
      "v": 100
    },
    {
      "midi": 71,
      "hit": false,
      "t": 114375,
      "d": 187.5,
      "v": 100
    },
    {
      "midi": 83,
      "hit": false,
      "t": 114375,
      "d": 187.5,
      "v": 100
    },
    {
      "midi": 69,
      "hit": false,
      "t": 114562.5,
      "d": 187.5,
      "v": 100
    },
    {
      "midi": 81,
      "hit": false,
      "t": 114562.5,
      "d": 187.5,
      "v": 100
    },
    {
      "midi": 67,
      "hit": false,
      "t": 114750,
      "d": 375,
      "v": 100
    },
    {
      "midi": 79,
      "hit": false,
      "t": 114750,
      "d": 375,
      "v": 100
    },
    {
      "midi": 66,
      "hit": false,
      "t": 115125,
      "d": 187.5,
      "v": 100
    },
    {
      "midi": 78,
      "hit": false,
      "t": 115125,
      "d": 187.5,
      "v": 100
    },
    {
      "midi": 64,
      "hit": false,
      "t": 115312.5,
      "d": 187.5,
      "v": 100
    },
    {
      "midi": 76,
      "hit": false,
      "t": 115312.5,
      "d": 187.5,
      "v": 100
    },
    {
      "midi": 66,
      "hit": false,
      "t": 115500,
      "d": 187.5,
      "v": 100
    },
    {
      "midi": 50,
      "hit": false,
      "t": 115500,
      "d": 1500,
      "v": 100
    },
    {
      "midi": 57,
      "hit": false,
      "t": 115500,
      "d": 1500,
      "v": 100
    },
    {
      "midi": 78,
      "hit": false,
      "t": 115500,
      "d": 187.5,
      "v": 100
    },
    {
      "midi": 38,
      "hit": false,
      "t": 115500,
      "d": 1500,
      "v": 100
    },
    {
      "midi": 45,
      "hit": false,
      "t": 115500,
      "d": 1500,
      "v": 100
    },
    {
      "midi": 64,
      "hit": false,
      "t": 115687.5,
      "d": 187.5,
      "v": 100
    },
    {
      "midi": 76,
      "hit": false,
      "t": 115687.5,
      "d": 187.5,
      "v": 100
    },
    {
      "midi": 62,
      "hit": false,
      "t": 115875,
      "d": 187.5,
      "v": 100
    },
    {
      "midi": 74,
      "hit": false,
      "t": 115875,
      "d": 187.5,
      "v": 100
    },
    {
      "midi": 64,
      "hit": false,
      "t": 116062.5,
      "d": 187.5,
      "v": 100
    },
    {
      "midi": 76,
      "hit": false,
      "t": 116062.5,
      "d": 187.5,
      "v": 100
    },
    {
      "midi": 66,
      "hit": false,
      "t": 116250,
      "d": 187.5,
      "v": 100
    },
    {
      "midi": 62,
      "hit": false,
      "t": 116250,
      "d": 750,
      "v": 100
    },
    {
      "midi": 78,
      "hit": false,
      "t": 116250,
      "d": 187.5,
      "v": 100
    },
    {
      "midi": 74,
      "hit": false,
      "t": 116250,
      "d": 750,
      "v": 100
    },
    {
      "midi": 67,
      "hit": false,
      "t": 116437.5,
      "d": 187.5,
      "v": 100
    },
    {
      "midi": 79,
      "hit": false,
      "t": 116437.5,
      "d": 187.5,
      "v": 100
    },
    {
      "midi": 69,
      "hit": false,
      "t": 116625,
      "d": 187.5,
      "v": 100
    },
    {
      "midi": 81,
      "hit": false,
      "t": 116625,
      "d": 187.5,
      "v": 100
    },
    {
      "midi": 71,
      "hit": false,
      "t": 116812.5,
      "d": 187.5,
      "v": 100
    },
    {
      "midi": 83,
      "hit": false,
      "t": 116812.5,
      "d": 187.5,
      "v": 100
    },
    {
      "midi": 67,
      "hit": false,
      "t": 117000,
      "d": 375,
      "v": 100
    },
    {
      "midi": 62,
      "hit": false,
      "t": 117000,
      "d": 750,
      "v": 100
    },
    {
      "midi": 55,
      "hit": false,
      "t": 117000,
      "d": 1500,
      "v": 100
    },
    {
      "midi": 59,
      "hit": false,
      "t": 117000,
      "d": 1500,
      "v": 100
    },
    {
      "midi": 79,
      "hit": false,
      "t": 117000,
      "d": 375,
      "v": 100
    },
    {
      "midi": 74,
      "hit": false,
      "t": 117000,
      "d": 750,
      "v": 100
    },
    {
      "midi": 43,
      "hit": false,
      "t": 117000,
      "d": 1500,
      "v": 100
    },
    {
      "midi": 47,
      "hit": false,
      "t": 117000,
      "d": 1500,
      "v": 100
    },
    {
      "midi": 71,
      "hit": false,
      "t": 117375,
      "d": 187.5,
      "v": 100
    },
    {
      "midi": 83,
      "hit": false,
      "t": 117375,
      "d": 187.5,
      "v": 100
    },
    {
      "midi": 69,
      "hit": false,
      "t": 117562.5,
      "d": 187.5,
      "v": 100
    },
    {
      "midi": 81,
      "hit": false,
      "t": 117562.5,
      "d": 187.5,
      "v": 100
    },
    {
      "midi": 71,
      "hit": false,
      "t": 117750,
      "d": 375,
      "v": 100
    },
    {
      "midi": 67,
      "hit": false,
      "t": 117750,
      "d": 750,
      "v": 100
    },
    {
      "midi": 83,
      "hit": false,
      "t": 117750,
      "d": 375,
      "v": 100
    },
    {
      "midi": 79,
      "hit": false,
      "t": 117750,
      "d": 750,
      "v": 100
    },
    {
      "midi": 73,
      "hit": false,
      "t": 118125,
      "d": 187.5,
      "v": 100
    },
    {
      "midi": 85,
      "hit": false,
      "t": 118125,
      "d": 187.5,
      "v": 100
    },
    {
      "midi": 74,
      "hit": false,
      "t": 118312.5,
      "d": 187.5,
      "v": 100
    },
    {
      "midi": 86,
      "hit": false,
      "t": 118312.5,
      "d": 187.5,
      "v": 100
    },
    {
      "midi": 69,
      "hit": false,
      "t": 118500,
      "d": 187.5,
      "v": 100
    },
    {
      "midi": 64,
      "hit": false,
      "t": 118500,
      "d": 750,
      "v": 100
    },
    {
      "midi": 57,
      "hit": false,
      "t": 118500,
      "d": 1500,
      "v": 100
    },
    {
      "midi": 61,
      "hit": false,
      "t": 118500,
      "d": 1500,
      "v": 100
    },
    {
      "midi": 81,
      "hit": false,
      "t": 118500,
      "d": 187.5,
      "v": 100
    },
    {
      "midi": 76,
      "hit": false,
      "t": 118500,
      "d": 750,
      "v": 100
    },
    {
      "midi": 45,
      "hit": false,
      "t": 118500,
      "d": 1500,
      "v": 100
    },
    {
      "midi": 49,
      "hit": false,
      "t": 118500,
      "d": 1500,
      "v": 100
    },
    {
      "midi": 71,
      "hit": false,
      "t": 118687.5,
      "d": 187.5,
      "v": 100
    },
    {
      "midi": 83,
      "hit": false,
      "t": 118687.5,
      "d": 187.5,
      "v": 100
    },
    {
      "midi": 73,
      "hit": false,
      "t": 118875,
      "d": 187.5,
      "v": 100
    },
    {
      "midi": 85,
      "hit": false,
      "t": 118875,
      "d": 187.5,
      "v": 100
    },
    {
      "midi": 74,
      "hit": false,
      "t": 119062.5,
      "d": 187.5,
      "v": 100
    },
    {
      "midi": 86,
      "hit": false,
      "t": 119062.5,
      "d": 187.5,
      "v": 100
    },
    {
      "midi": 76,
      "hit": false,
      "t": 119250,
      "d": 187.5,
      "v": 100
    },
    {
      "midi": 69,
      "hit": false,
      "t": 119250,
      "d": 750,
      "v": 100
    },
    {
      "midi": 88,
      "hit": false,
      "t": 119250,
      "d": 187.5,
      "v": 100
    },
    {
      "midi": 81,
      "hit": false,
      "t": 119250,
      "d": 750,
      "v": 100
    },
    {
      "midi": 78,
      "hit": false,
      "t": 119437.5,
      "d": 187.5,
      "v": 100
    },
    {
      "midi": 90,
      "hit": false,
      "t": 119437.5,
      "d": 187.5,
      "v": 100
    },
    {
      "midi": 79,
      "hit": false,
      "t": 119625,
      "d": 187.5,
      "v": 100
    },
    {
      "midi": 91,
      "hit": false,
      "t": 119625,
      "d": 187.5,
      "v": 100
    },
    {
      "midi": 81,
      "hit": false,
      "t": 119812.5,
      "d": 187.5,
      "v": 100
    },
    {
      "midi": 93,
      "hit": false,
      "t": 119812.5,
      "d": 187.5,
      "v": 100
    },
    {
      "midi": 78,
      "hit": false,
      "t": 120000,
      "d": 375,
      "v": 100
    },
    {
      "midi": 81,
      "hit": false,
      "t": 120000,
      "d": 375,
      "v": 100
    },
    {
      "midi": 62,
      "hit": false,
      "t": 120000,
      "d": 750,
      "v": 100
    },
    {
      "midi": 50,
      "hit": false,
      "t": 120000,
      "d": 1500,
      "v": 100
    },
    {
      "midi": 90,
      "hit": false,
      "t": 120000,
      "d": 375,
      "v": 100
    },
    {
      "midi": 93,
      "hit": false,
      "t": 120000,
      "d": 375,
      "v": 100
    },
    {
      "midi": 50,
      "hit": false,
      "t": 120000,
      "d": 750,
      "v": 100
    },
    {
      "midi": 38,
      "hit": false,
      "t": 120000,
      "d": 1500,
      "v": 100
    },
    {
      "midi": 74,
      "hit": false,
      "t": 120375,
      "d": 187.5,
      "v": 100
    },
    {
      "midi": 78,
      "hit": false,
      "t": 120375,
      "d": 187.5,
      "v": 100
    },
    {
      "midi": 86,
      "hit": false,
      "t": 120375,
      "d": 187.5,
      "v": 100
    },
    {
      "midi": 90,
      "hit": false,
      "t": 120375,
      "d": 187.5,
      "v": 100
    },
    {
      "midi": 76,
      "hit": false,
      "t": 120562.5,
      "d": 187.5,
      "v": 100
    },
    {
      "midi": 79,
      "hit": false,
      "t": 120562.5,
      "d": 187.5,
      "v": 100
    },
    {
      "midi": 88,
      "hit": false,
      "t": 120562.5,
      "d": 187.5,
      "v": 100
    },
    {
      "midi": 91,
      "hit": false,
      "t": 120562.5,
      "d": 187.5,
      "v": 100
    },
    {
      "midi": 78,
      "hit": false,
      "t": 120750,
      "d": 375,
      "v": 100
    },
    {
      "midi": 81,
      "hit": false,
      "t": 120750,
      "d": 375,
      "v": 100
    },
    {
      "midi": 62,
      "hit": false,
      "t": 120750,
      "d": 750,
      "v": 100
    },
    {
      "midi": 90,
      "hit": false,
      "t": 120750,
      "d": 375,
      "v": 100
    },
    {
      "midi": 93,
      "hit": false,
      "t": 120750,
      "d": 375,
      "v": 100
    },
    {
      "midi": 50,
      "hit": false,
      "t": 120750,
      "d": 750,
      "v": 100
    },
    {
      "midi": 74,
      "hit": false,
      "t": 121125,
      "d": 187.5,
      "v": 100
    },
    {
      "midi": 78,
      "hit": false,
      "t": 121125,
      "d": 187.5,
      "v": 100
    },
    {
      "midi": 86,
      "hit": false,
      "t": 121125,
      "d": 187.5,
      "v": 100
    },
    {
      "midi": 90,
      "hit": false,
      "t": 121125,
      "d": 187.5,
      "v": 100
    },
    {
      "midi": 74,
      "hit": false,
      "t": 121312.5,
      "d": 187.5,
      "v": 100
    },
    {
      "midi": 79,
      "hit": false,
      "t": 121312.5,
      "d": 187.5,
      "v": 100
    },
    {
      "midi": 86,
      "hit": false,
      "t": 121312.5,
      "d": 187.5,
      "v": 100
    },
    {
      "midi": 91,
      "hit": false,
      "t": 121312.5,
      "d": 187.5,
      "v": 100
    },
    {
      "midi": 76,
      "hit": false,
      "t": 121500,
      "d": 375,
      "v": 100
    },
    {
      "midi": 81,
      "hit": false,
      "t": 121500,
      "d": 375,
      "v": 100
    },
    {
      "midi": 57,
      "hit": false,
      "t": 121500,
      "d": 1500,
      "v": 100
    },
    {
      "midi": 61,
      "hit": false,
      "t": 121500,
      "d": 1500,
      "v": 100
    },
    {
      "midi": 88,
      "hit": false,
      "t": 121500,
      "d": 375,
      "v": 100
    },
    {
      "midi": 93,
      "hit": false,
      "t": 121500,
      "d": 375,
      "v": 100
    },
    {
      "midi": 45,
      "hit": false,
      "t": 121500,
      "d": 1500,
      "v": 100
    },
    {
      "midi": 49,
      "hit": false,
      "t": 121500,
      "d": 1500,
      "v": 100
    },
    {
      "midi": 69,
      "hit": false,
      "t": 121687.5,
      "d": 187.5,
      "v": 100
    },
    {
      "midi": 73,
      "hit": false,
      "t": 121687.5,
      "d": 187.5,
      "v": 100
    },
    {
      "midi": 81,
      "hit": false,
      "t": 121687.5,
      "d": 187.5,
      "v": 100
    },
    {
      "midi": 85,
      "hit": false,
      "t": 121687.5,
      "d": 187.5,
      "v": 100
    },
    {
      "midi": 71,
      "hit": false,
      "t": 121875,
      "d": 187.5,
      "v": 100
    },
    {
      "midi": 74,
      "hit": false,
      "t": 121875,
      "d": 187.5,
      "v": 100
    },
    {
      "midi": 83,
      "hit": false,
      "t": 121875,
      "d": 187.5,
      "v": 100
    },
    {
      "midi": 86,
      "hit": false,
      "t": 121875,
      "d": 187.5,
      "v": 100
    },
    {
      "midi": 73,
      "hit": false,
      "t": 122062.5,
      "d": 187.5,
      "v": 100
    },
    {
      "midi": 76,
      "hit": false,
      "t": 122062.5,
      "d": 187.5,
      "v": 100
    },
    {
      "midi": 85,
      "hit": false,
      "t": 122062.5,
      "d": 187.5,
      "v": 100
    },
    {
      "midi": 88,
      "hit": false,
      "t": 122062.5,
      "d": 187.5,
      "v": 100
    },
    {
      "midi": 74,
      "hit": false,
      "t": 122250,
      "d": 187.5,
      "v": 100
    },
    {
      "midi": 78,
      "hit": false,
      "t": 122250,
      "d": 187.5,
      "v": 100
    },
    {
      "midi": 86,
      "hit": false,
      "t": 122250,
      "d": 187.5,
      "v": 100
    },
    {
      "midi": 90,
      "hit": false,
      "t": 122250,
      "d": 187.5,
      "v": 100
    },
    {
      "midi": 76,
      "hit": false,
      "t": 122437.5,
      "d": 187.5,
      "v": 100
    },
    {
      "midi": 88,
      "hit": false,
      "t": 122437.5,
      "d": 187.5,
      "v": 100
    },
    {
      "midi": 74,
      "hit": false,
      "t": 122625,
      "d": 187.5,
      "v": 100
    },
    {
      "midi": 78,
      "hit": false,
      "t": 122625,
      "d": 187.5,
      "v": 100
    },
    {
      "midi": 86,
      "hit": false,
      "t": 122625,
      "d": 187.5,
      "v": 100
    },
    {
      "midi": 90,
      "hit": false,
      "t": 122625,
      "d": 187.5,
      "v": 100
    },
    {
      "midi": 73,
      "hit": false,
      "t": 122812.5,
      "d": 187.5,
      "v": 100
    },
    {
      "midi": 79,
      "hit": false,
      "t": 122812.5,
      "d": 187.5,
      "v": 100
    },
    {
      "midi": 85,
      "hit": false,
      "t": 122812.5,
      "d": 187.5,
      "v": 100
    },
    {
      "midi": 91,
      "hit": false,
      "t": 122812.5,
      "d": 187.5,
      "v": 100
    },
    {
      "midi": 74,
      "hit": false,
      "t": 123000,
      "d": 375,
      "v": 100
    },
    {
      "midi": 78,
      "hit": false,
      "t": 123000,
      "d": 375,
      "v": 100
    },
    {
      "midi": 86,
      "hit": false,
      "t": 123000,
      "d": 375,
      "v": 100
    },
    {
      "midi": 90,
      "hit": false,
      "t": 123000,
      "d": 375,
      "v": 100
    },
    {
      "midi": 71,
      "hit": false,
      "t": 123375,
      "d": 187.5,
      "v": 100
    },
    {
      "midi": 74,
      "hit": false,
      "t": 123375,
      "d": 187.5,
      "v": 100
    },
    {
      "midi": 83,
      "hit": false,
      "t": 123375,
      "d": 187.5,
      "v": 100
    },
    {
      "midi": 86,
      "hit": false,
      "t": 123375,
      "d": 187.5,
      "v": 100
    },
    {
      "midi": 73,
      "hit": false,
      "t": 123562.5,
      "d": 187.5,
      "v": 100
    },
    {
      "midi": 76,
      "hit": false,
      "t": 123562.5,
      "d": 187.5,
      "v": 100
    },
    {
      "midi": 85,
      "hit": false,
      "t": 123562.5,
      "d": 187.5,
      "v": 100
    },
    {
      "midi": 88,
      "hit": false,
      "t": 123562.5,
      "d": 187.5,
      "v": 100
    },
    {
      "midi": 74,
      "hit": false,
      "t": 123750,
      "d": 375,
      "v": 100
    },
    {
      "midi": 78,
      "hit": false,
      "t": 123750,
      "d": 375,
      "v": 100
    },
    {
      "midi": 59,
      "hit": false,
      "t": 123750,
      "d": 750,
      "v": 100
    },
    {
      "midi": 86,
      "hit": false,
      "t": 123750,
      "d": 375,
      "v": 100
    },
    {
      "midi": 90,
      "hit": false,
      "t": 123750,
      "d": 375,
      "v": 100
    },
    {
      "midi": 47,
      "hit": false,
      "t": 123750,
      "d": 750,
      "v": 100
    },
    {
      "midi": 62,
      "hit": false,
      "t": 124125,
      "d": 187.5,
      "v": 100
    },
    {
      "midi": 66,
      "hit": false,
      "t": 124125,
      "d": 187.5,
      "v": 100
    },
    {
      "midi": 74,
      "hit": false,
      "t": 124125,
      "d": 187.5,
      "v": 100
    },
    {
      "midi": 78,
      "hit": false,
      "t": 124125,
      "d": 187.5,
      "v": 100
    },
    {
      "midi": 64,
      "hit": false,
      "t": 124312.5,
      "d": 187.5,
      "v": 100
    },
    {
      "midi": 67,
      "hit": false,
      "t": 124312.5,
      "d": 187.5,
      "v": 100
    },
    {
      "midi": 76,
      "hit": false,
      "t": 124312.5,
      "d": 187.5,
      "v": 100
    },
    {
      "midi": 79,
      "hit": false,
      "t": 124312.5,
      "d": 187.5,
      "v": 100
    },
    {
      "midi": 66,
      "hit": false,
      "t": 124500,
      "d": 187.5,
      "v": 100
    },
    {
      "midi": 69,
      "hit": false,
      "t": 124500,
      "d": 187.5,
      "v": 100
    },
    {
      "midi": 54,
      "hit": false,
      "t": 124500,
      "d": 1500,
      "v": 100
    },
    {
      "midi": 62,
      "hit": false,
      "t": 124500,
      "d": 1500,
      "v": 100
    },
    {
      "midi": 78,
      "hit": false,
      "t": 124500,
      "d": 187.5,
      "v": 100
    },
    {
      "midi": 81,
      "hit": false,
      "t": 124500,
      "d": 187.5,
      "v": 100
    },
    {
      "midi": 42,
      "hit": false,
      "t": 124500,
      "d": 1500,
      "v": 100
    },
    {
      "midi": 50,
      "hit": false,
      "t": 124500,
      "d": 1500,
      "v": 100
    },
    {
      "midi": 67,
      "hit": false,
      "t": 124687.5,
      "d": 187.5,
      "v": 100
    },
    {
      "midi": 71,
      "hit": false,
      "t": 124687.5,
      "d": 187.5,
      "v": 100
    },
    {
      "midi": 79,
      "hit": false,
      "t": 124687.5,
      "d": 187.5,
      "v": 100
    },
    {
      "midi": 83,
      "hit": false,
      "t": 124687.5,
      "d": 187.5,
      "v": 100
    },
    {
      "midi": 66,
      "hit": false,
      "t": 124875,
      "d": 187.5,
      "v": 100
    },
    {
      "midi": 69,
      "hit": false,
      "t": 124875,
      "d": 187.5,
      "v": 100
    },
    {
      "midi": 78,
      "hit": false,
      "t": 124875,
      "d": 187.5,
      "v": 100
    },
    {
      "midi": 81,
      "hit": false,
      "t": 124875,
      "d": 187.5,
      "v": 100
    },
    {
      "midi": 64,
      "hit": false,
      "t": 125062.5,
      "d": 187.5,
      "v": 100
    },
    {
      "midi": 67,
      "hit": false,
      "t": 125062.5,
      "d": 187.5,
      "v": 100
    },
    {
      "midi": 76,
      "hit": false,
      "t": 125062.5,
      "d": 187.5,
      "v": 100
    },
    {
      "midi": 79,
      "hit": false,
      "t": 125062.5,
      "d": 187.5,
      "v": 100
    },
    {
      "midi": 66,
      "hit": false,
      "t": 125250,
      "d": 187.5,
      "v": 100
    },
    {
      "midi": 69,
      "hit": false,
      "t": 125250,
      "d": 187.5,
      "v": 100
    },
    {
      "midi": 78,
      "hit": false,
      "t": 125250,
      "d": 187.5,
      "v": 100
    },
    {
      "midi": 81,
      "hit": false,
      "t": 125250,
      "d": 187.5,
      "v": 100
    },
    {
      "midi": 66,
      "hit": false,
      "t": 125437.5,
      "d": 187.5,
      "v": 100
    },
    {
      "midi": 74,
      "hit": false,
      "t": 125437.5,
      "d": 187.5,
      "v": 100
    },
    {
      "midi": 78,
      "hit": false,
      "t": 125437.5,
      "d": 187.5,
      "v": 100
    },
    {
      "midi": 86,
      "hit": false,
      "t": 125437.5,
      "d": 187.5,
      "v": 100
    },
    {
      "midi": 67,
      "hit": false,
      "t": 125625,
      "d": 187.5,
      "v": 100
    },
    {
      "midi": 73,
      "hit": false,
      "t": 125625,
      "d": 187.5,
      "v": 100
    },
    {
      "midi": 79,
      "hit": false,
      "t": 125625,
      "d": 187.5,
      "v": 100
    },
    {
      "midi": 85,
      "hit": false,
      "t": 125625,
      "d": 187.5,
      "v": 100
    },
    {
      "midi": 69,
      "hit": false,
      "t": 125812.5,
      "d": 187.5,
      "v": 100
    },
    {
      "midi": 74,
      "hit": false,
      "t": 125812.5,
      "d": 187.5,
      "v": 100
    },
    {
      "midi": 81,
      "hit": false,
      "t": 125812.5,
      "d": 187.5,
      "v": 100
    },
    {
      "midi": 86,
      "hit": false,
      "t": 125812.5,
      "d": 187.5,
      "v": 100
    },
    {
      "midi": 67,
      "hit": false,
      "t": 126000,
      "d": 375,
      "v": 100
    },
    {
      "midi": 71,
      "hit": false,
      "t": 126000,
      "d": 375,
      "v": 100
    },
    {
      "midi": 55,
      "hit": false,
      "t": 126000,
      "d": 1500,
      "v": 100
    },
    {
      "midi": 62,
      "hit": false,
      "t": 126000,
      "d": 2250,
      "v": 100
    },
    {
      "midi": 79,
      "hit": false,
      "t": 126000,
      "d": 375,
      "v": 100
    },
    {
      "midi": 83,
      "hit": false,
      "t": 126000,
      "d": 375,
      "v": 100
    },
    {
      "midi": 43,
      "hit": false,
      "t": 126000,
      "d": 1500,
      "v": 100
    },
    {
      "midi": 50,
      "hit": false,
      "t": 126000,
      "d": 2250,
      "v": 100
    },
    {
      "midi": 71,
      "hit": false,
      "t": 126375,
      "d": 187.5,
      "v": 100
    },
    {
      "midi": 74,
      "hit": false,
      "t": 126375,
      "d": 187.5,
      "v": 100
    },
    {
      "midi": 83,
      "hit": false,
      "t": 126375,
      "d": 187.5,
      "v": 100
    },
    {
      "midi": 86,
      "hit": false,
      "t": 126375,
      "d": 187.5,
      "v": 100
    },
    {
      "midi": 69,
      "hit": false,
      "t": 126562.5,
      "d": 187.5,
      "v": 100
    },
    {
      "midi": 73,
      "hit": false,
      "t": 126562.5,
      "d": 187.5,
      "v": 100
    },
    {
      "midi": 81,
      "hit": false,
      "t": 126562.5,
      "d": 187.5,
      "v": 100
    },
    {
      "midi": 85,
      "hit": false,
      "t": 126562.5,
      "d": 187.5,
      "v": 100
    },
    {
      "midi": 67,
      "hit": false,
      "t": 126750,
      "d": 375,
      "v": 100
    },
    {
      "midi": 71,
      "hit": false,
      "t": 126750,
      "d": 375,
      "v": 100
    },
    {
      "midi": 79,
      "hit": false,
      "t": 126750,
      "d": 375,
      "v": 100
    },
    {
      "midi": 83,
      "hit": false,
      "t": 126750,
      "d": 375,
      "v": 100
    },
    {
      "midi": 66,
      "hit": false,
      "t": 127125,
      "d": 187.5,
      "v": 100
    },
    {
      "midi": 69,
      "hit": false,
      "t": 127125,
      "d": 187.5,
      "v": 100
    },
    {
      "midi": 78,
      "hit": false,
      "t": 127125,
      "d": 187.5,
      "v": 100
    },
    {
      "midi": 81,
      "hit": false,
      "t": 127125,
      "d": 187.5,
      "v": 100
    },
    {
      "midi": 64,
      "hit": false,
      "t": 127312.5,
      "d": 187.5,
      "v": 100
    },
    {
      "midi": 67,
      "hit": false,
      "t": 127312.5,
      "d": 187.5,
      "v": 100
    },
    {
      "midi": 76,
      "hit": false,
      "t": 127312.5,
      "d": 187.5,
      "v": 100
    },
    {
      "midi": 79,
      "hit": false,
      "t": 127312.5,
      "d": 187.5,
      "v": 100
    },
    {
      "midi": 66,
      "hit": false,
      "t": 127500,
      "d": 187.5,
      "v": 100
    },
    {
      "midi": 69,
      "hit": false,
      "t": 127500,
      "d": 187.5,
      "v": 100
    },
    {
      "midi": 50,
      "hit": false,
      "t": 127500,
      "d": 1500,
      "v": 100
    },
    {
      "midi": 78,
      "hit": false,
      "t": 127500,
      "d": 187.5,
      "v": 100
    },
    {
      "midi": 81,
      "hit": false,
      "t": 127500,
      "d": 187.5,
      "v": 100
    },
    {
      "midi": 38,
      "hit": false,
      "t": 127500,
      "d": 1500,
      "v": 100
    },
    {
      "midi": 64,
      "hit": false,
      "t": 127687.5,
      "d": 187.5,
      "v": 100
    },
    {
      "midi": 67,
      "hit": false,
      "t": 127687.5,
      "d": 187.5,
      "v": 100
    },
    {
      "midi": 76,
      "hit": false,
      "t": 127687.5,
      "d": 187.5,
      "v": 100
    },
    {
      "midi": 79,
      "hit": false,
      "t": 127687.5,
      "d": 187.5,
      "v": 100
    },
    {
      "midi": 62,
      "hit": false,
      "t": 127875,
      "d": 187.5,
      "v": 100
    },
    {
      "midi": 66,
      "hit": false,
      "t": 127875,
      "d": 187.5,
      "v": 100
    },
    {
      "midi": 74,
      "hit": false,
      "t": 127875,
      "d": 187.5,
      "v": 100
    },
    {
      "midi": 78,
      "hit": false,
      "t": 127875,
      "d": 187.5,
      "v": 100
    },
    {
      "midi": 64,
      "hit": false,
      "t": 128062.5,
      "d": 187.5,
      "v": 100
    },
    {
      "midi": 67,
      "hit": false,
      "t": 128062.5,
      "d": 187.5,
      "v": 100
    },
    {
      "midi": 76,
      "hit": false,
      "t": 128062.5,
      "d": 187.5,
      "v": 100
    },
    {
      "midi": 79,
      "hit": false,
      "t": 128062.5,
      "d": 187.5,
      "v": 100
    },
    {
      "midi": 66,
      "hit": false,
      "t": 128250,
      "d": 187.5,
      "v": 100
    },
    {
      "midi": 69,
      "hit": false,
      "t": 128250,
      "d": 187.5,
      "v": 100
    },
    {
      "midi": 62,
      "hit": false,
      "t": 128250,
      "d": 750,
      "v": 100
    },
    {
      "midi": 78,
      "hit": false,
      "t": 128250,
      "d": 187.5,
      "v": 100
    },
    {
      "midi": 81,
      "hit": false,
      "t": 128250,
      "d": 187.5,
      "v": 100
    },
    {
      "midi": 50,
      "hit": false,
      "t": 128250,
      "d": 750,
      "v": 100
    },
    {
      "midi": 67,
      "hit": false,
      "t": 128437.5,
      "d": 187.5,
      "v": 100
    },
    {
      "midi": 71,
      "hit": false,
      "t": 128437.5,
      "d": 187.5,
      "v": 100
    },
    {
      "midi": 79,
      "hit": false,
      "t": 128437.5,
      "d": 187.5,
      "v": 100
    },
    {
      "midi": 83,
      "hit": false,
      "t": 128437.5,
      "d": 187.5,
      "v": 100
    },
    {
      "midi": 69,
      "hit": false,
      "t": 128625,
      "d": 187.5,
      "v": 100
    },
    {
      "midi": 73,
      "hit": false,
      "t": 128625,
      "d": 187.5,
      "v": 100
    },
    {
      "midi": 81,
      "hit": false,
      "t": 128625,
      "d": 187.5,
      "v": 100
    },
    {
      "midi": 85,
      "hit": false,
      "t": 128625,
      "d": 187.5,
      "v": 100
    },
    {
      "midi": 71,
      "hit": false,
      "t": 128812.5,
      "d": 187.5,
      "v": 100
    },
    {
      "midi": 74,
      "hit": false,
      "t": 128812.5,
      "d": 187.5,
      "v": 100
    },
    {
      "midi": 83,
      "hit": false,
      "t": 128812.5,
      "d": 187.5,
      "v": 100
    },
    {
      "midi": 86,
      "hit": false,
      "t": 128812.5,
      "d": 187.5,
      "v": 100
    },
    {
      "midi": 67,
      "hit": false,
      "t": 129000,
      "d": 375,
      "v": 100
    },
    {
      "midi": 71,
      "hit": false,
      "t": 129000,
      "d": 375,
      "v": 100
    },
    {
      "midi": 62,
      "hit": false,
      "t": 129000,
      "d": 750,
      "v": 100
    },
    {
      "midi": 43,
      "hit": false,
      "t": 129000,
      "d": 1500,
      "v": 100
    },
    {
      "midi": 79,
      "hit": false,
      "t": 129000,
      "d": 375,
      "v": 100
    },
    {
      "midi": 83,
      "hit": false,
      "t": 129000,
      "d": 375,
      "v": 100
    },
    {
      "midi": 74,
      "hit": false,
      "t": 129000,
      "d": 750,
      "v": 100
    },
    {
      "midi": 31,
      "hit": false,
      "t": 129000,
      "d": 1500,
      "v": 100
    },
    {
      "midi": 71,
      "hit": false,
      "t": 129375,
      "d": 187.5,
      "v": 100
    },
    {
      "midi": 74,
      "hit": false,
      "t": 129375,
      "d": 187.5,
      "v": 100
    },
    {
      "midi": 83,
      "hit": false,
      "t": 129375,
      "d": 187.5,
      "v": 100
    },
    {
      "midi": 86,
      "hit": false,
      "t": 129375,
      "d": 187.5,
      "v": 100
    },
    {
      "midi": 69,
      "hit": false,
      "t": 129562.5,
      "d": 187.5,
      "v": 100
    },
    {
      "midi": 73,
      "hit": false,
      "t": 129562.5,
      "d": 187.5,
      "v": 100
    },
    {
      "midi": 81,
      "hit": false,
      "t": 129562.5,
      "d": 187.5,
      "v": 100
    },
    {
      "midi": 85,
      "hit": false,
      "t": 129562.5,
      "d": 187.5,
      "v": 100
    },
    {
      "midi": 71,
      "hit": false,
      "t": 129750,
      "d": 375,
      "v": 100
    },
    {
      "midi": 74,
      "hit": false,
      "t": 129750,
      "d": 375,
      "v": 100
    },
    {
      "midi": 67,
      "hit": false,
      "t": 129750,
      "d": 750,
      "v": 100
    },
    {
      "midi": 83,
      "hit": false,
      "t": 129750,
      "d": 375,
      "v": 100
    },
    {
      "midi": 86,
      "hit": false,
      "t": 129750,
      "d": 375,
      "v": 100
    },
    {
      "midi": 79,
      "hit": false,
      "t": 129750,
      "d": 750,
      "v": 100
    },
    {
      "midi": 73,
      "hit": false,
      "t": 130125,
      "d": 187.5,
      "v": 100
    },
    {
      "midi": 85,
      "hit": false,
      "t": 130125,
      "d": 187.5,
      "v": 100
    },
    {
      "midi": 71,
      "hit": false,
      "t": 130312.5,
      "d": 187.5,
      "v": 100
    },
    {
      "midi": 74,
      "hit": false,
      "t": 130312.5,
      "d": 187.5,
      "v": 100
    },
    {
      "midi": 83,
      "hit": false,
      "t": 130312.5,
      "d": 187.5,
      "v": 100
    },
    {
      "midi": 86,
      "hit": false,
      "t": 130312.5,
      "d": 187.5,
      "v": 100
    },
    {
      "midi": 69,
      "hit": false,
      "t": 130500,
      "d": 187.5,
      "v": 100
    },
    {
      "midi": 73,
      "hit": false,
      "t": 130500,
      "d": 187.5,
      "v": 100
    },
    {
      "midi": 64,
      "hit": false,
      "t": 130500,
      "d": 750,
      "v": 100
    },
    {
      "midi": 45,
      "hit": false,
      "t": 130500,
      "d": 1500,
      "v": 100
    },
    {
      "midi": 81,
      "hit": false,
      "t": 130500,
      "d": 187.5,
      "v": 100
    },
    {
      "midi": 85,
      "hit": false,
      "t": 130500,
      "d": 187.5,
      "v": 100
    },
    {
      "midi": 76,
      "hit": false,
      "t": 130500,
      "d": 750,
      "v": 100
    },
    {
      "midi": 33,
      "hit": false,
      "t": 130500,
      "d": 1500,
      "v": 100
    },
    {
      "midi": 71,
      "hit": false,
      "t": 130687.5,
      "d": 187.5,
      "v": 100
    },
    {
      "midi": 74,
      "hit": false,
      "t": 130687.5,
      "d": 187.5,
      "v": 100
    },
    {
      "midi": 83,
      "hit": false,
      "t": 130687.5,
      "d": 187.5,
      "v": 100
    },
    {
      "midi": 86,
      "hit": false,
      "t": 130687.5,
      "d": 187.5,
      "v": 100
    },
    {
      "midi": 73,
      "hit": false,
      "t": 130875,
      "d": 187.5,
      "v": 100
    },
    {
      "midi": 76,
      "hit": false,
      "t": 130875,
      "d": 187.5,
      "v": 100
    },
    {
      "midi": 85,
      "hit": false,
      "t": 130875,
      "d": 187.5,
      "v": 100
    },
    {
      "midi": 88,
      "hit": false,
      "t": 130875,
      "d": 187.5,
      "v": 100
    },
    {
      "midi": 74,
      "hit": false,
      "t": 131062.5,
      "d": 187.5,
      "v": 100
    },
    {
      "midi": 86,
      "hit": false,
      "t": 131062.5,
      "d": 187.5,
      "v": 100
    },
    {
      "midi": 73,
      "hit": false,
      "t": 131250,
      "d": 187.5,
      "v": 100
    },
    {
      "midi": 76,
      "hit": false,
      "t": 131250,
      "d": 187.5,
      "v": 100
    },
    {
      "midi": 69,
      "hit": false,
      "t": 131250,
      "d": 750,
      "v": 100
    },
    {
      "midi": 85,
      "hit": false,
      "t": 131250,
      "d": 187.5,
      "v": 100
    },
    {
      "midi": 88,
      "hit": false,
      "t": 131250,
      "d": 187.5,
      "v": 100
    },
    {
      "midi": 81,
      "hit": false,
      "t": 131250,
      "d": 750,
      "v": 100
    },
    {
      "midi": 74,
      "hit": false,
      "t": 131437.5,
      "d": 187.5,
      "v": 100
    },
    {
      "midi": 78,
      "hit": false,
      "t": 131437.5,
      "d": 187.5,
      "v": 100
    },
    {
      "midi": 86,
      "hit": false,
      "t": 131437.5,
      "d": 187.5,
      "v": 100
    },
    {
      "midi": 90,
      "hit": false,
      "t": 131437.5,
      "d": 187.5,
      "v": 100
    },
    {
      "midi": 71,
      "hit": false,
      "t": 131625,
      "d": 187.5,
      "v": 100
    },
    {
      "midi": 83,
      "hit": false,
      "t": 131625,
      "d": 187.5,
      "v": 100
    },
    {
      "midi": 73,
      "hit": false,
      "t": 131812.5,
      "d": 187.5,
      "v": 100
    },
    {
      "midi": 85,
      "hit": false,
      "t": 131812.5,
      "d": 187.5,
      "v": 100
    },
    {
      "midi": 69,
      "hit": false,
      "t": 132000,
      "d": 375,
      "v": 100
    },
    {
      "midi": 62,
      "hit": false,
      "t": 132000,
      "d": 750,
      "v": 100
    },
    {
      "midi": 50,
      "hit": false,
      "t": 132000,
      "d": 1500,
      "v": 100
    },
    {
      "midi": 81,
      "hit": false,
      "t": 132000,
      "d": 375,
      "v": 100
    },
    {
      "midi": 74,
      "hit": false,
      "t": 132000,
      "d": 750,
      "v": 100
    },
    {
      "midi": 38,
      "hit": false,
      "t": 132000,
      "d": 1500,
      "v": 100
    },
    {
      "midi": 66,
      "hit": false,
      "t": 132375,
      "d": 187.5,
      "v": 100
    },
    {
      "midi": 78,
      "hit": false,
      "t": 132375,
      "d": 187.5,
      "v": 100
    },
    {
      "midi": 67,
      "hit": false,
      "t": 132562.5,
      "d": 187.5,
      "v": 100
    },
    {
      "midi": 79,
      "hit": false,
      "t": 132562.5,
      "d": 187.5,
      "v": 100
    },
    {
      "midi": 69,
      "hit": false,
      "t": 132750,
      "d": 375,
      "v": 100
    },
    {
      "midi": 81,
      "hit": false,
      "t": 132750,
      "d": 375,
      "v": 100
    },
    {
      "midi": 66,
      "hit": false,
      "t": 133125,
      "d": 187.5,
      "v": 100
    },
    {
      "midi": 78,
      "hit": false,
      "t": 133125,
      "d": 187.5,
      "v": 100
    },
    {
      "midi": 67,
      "hit": false,
      "t": 133312.5,
      "d": 187.5,
      "v": 100
    },
    {
      "midi": 79,
      "hit": false,
      "t": 133312.5,
      "d": 187.5,
      "v": 100
    },
    {
      "midi": 69,
      "hit": false,
      "t": 133500,
      "d": 187.5,
      "v": 100
    },
    {
      "midi": 45,
      "hit": false,
      "t": 133500,
      "d": 1500,
      "v": 100
    },
    {
      "midi": 81,
      "hit": false,
      "t": 133500,
      "d": 187.5,
      "v": 100
    },
    {
      "midi": 33,
      "hit": false,
      "t": 133500,
      "d": 1500,
      "v": 100
    },
    {
      "midi": 57,
      "hit": false,
      "t": 133687.5,
      "d": 187.5,
      "v": 100
    },
    {
      "midi": 69,
      "hit": false,
      "t": 133687.5,
      "d": 187.5,
      "v": 100
    },
    {
      "midi": 59,
      "hit": false,
      "t": 133875,
      "d": 187.5,
      "v": 100
    },
    {
      "midi": 71,
      "hit": false,
      "t": 133875,
      "d": 187.5,
      "v": 100
    },
    {
      "midi": 61,
      "hit": false,
      "t": 134062.5,
      "d": 187.5,
      "v": 100
    },
    {
      "midi": 73,
      "hit": false,
      "t": 134062.5,
      "d": 187.5,
      "v": 100
    },
    {
      "midi": 62,
      "hit": false,
      "t": 134250,
      "d": 187.5,
      "v": 100
    },
    {
      "midi": 74,
      "hit": false,
      "t": 134250,
      "d": 187.5,
      "v": 100
    },
    {
      "midi": 64,
      "hit": false,
      "t": 134437.5,
      "d": 187.5,
      "v": 100
    },
    {
      "midi": 76,
      "hit": false,
      "t": 134437.5,
      "d": 187.5,
      "v": 100
    },
    {
      "midi": 66,
      "hit": false,
      "t": 134625,
      "d": 187.5,
      "v": 100
    },
    {
      "midi": 78,
      "hit": false,
      "t": 134625,
      "d": 187.5,
      "v": 100
    },
    {
      "midi": 67,
      "hit": false,
      "t": 134812.5,
      "d": 187.5,
      "v": 100
    },
    {
      "midi": 79,
      "hit": false,
      "t": 134812.5,
      "d": 187.5,
      "v": 100
    },
    {
      "midi": 66,
      "hit": false,
      "t": 135000,
      "d": 375,
      "v": 100
    },
    {
      "midi": 59,
      "hit": false,
      "t": 135000,
      "d": 750,
      "v": 100
    },
    {
      "midi": 47,
      "hit": false,
      "t": 135000,
      "d": 1500,
      "v": 100
    },
    {
      "midi": 78,
      "hit": false,
      "t": 135000,
      "d": 375,
      "v": 100
    },
    {
      "midi": 47,
      "hit": false,
      "t": 135000,
      "d": 750,
      "v": 100
    },
    {
      "midi": 35,
      "hit": false,
      "t": 135000,
      "d": 1500,
      "v": 100
    },
    {
      "midi": 62,
      "hit": false,
      "t": 135375,
      "d": 187.5,
      "v": 100
    },
    {
      "midi": 74,
      "hit": false,
      "t": 135375,
      "d": 187.5,
      "v": 100
    },
    {
      "midi": 64,
      "hit": false,
      "t": 135562.5,
      "d": 187.5,
      "v": 100
    },
    {
      "midi": 76,
      "hit": false,
      "t": 135562.5,
      "d": 187.5,
      "v": 100
    },
    {
      "midi": 66,
      "hit": false,
      "t": 135750,
      "d": 375,
      "v": 100
    },
    {
      "midi": 78,
      "hit": false,
      "t": 135750,
      "d": 375,
      "v": 100
    },
    {
      "midi": 54,
      "hit": false,
      "t": 136125,
      "d": 187.5,
      "v": 100
    },
    {
      "midi": 42,
      "hit": false,
      "t": 136125,
      "d": 187.5,
      "v": 100
    },
    {
      "midi": 55,
      "hit": false,
      "t": 136312.5,
      "d": 187.5,
      "v": 100
    },
    {
      "midi": 43,
      "hit": false,
      "t": 136312.5,
      "d": 187.5,
      "v": 100
    },
    {
      "midi": 62,
      "hit": false,
      "t": 136500,
      "d": 750,
      "v": 100
    },
    {
      "midi": 57,
      "hit": false,
      "t": 136500,
      "d": 187.5,
      "v": 100
    },
    {
      "midi": 42,
      "hit": false,
      "t": 136500,
      "d": 1500,
      "v": 100
    },
    {
      "midi": 74,
      "hit": false,
      "t": 136500,
      "d": 750,
      "v": 100
    },
    {
      "midi": 45,
      "hit": false,
      "t": 136500,
      "d": 187.5,
      "v": 100
    },
    {
      "midi": 30,
      "hit": false,
      "t": 136500,
      "d": 1500,
      "v": 100
    },
    {
      "midi": 59,
      "hit": false,
      "t": 136687.5,
      "d": 187.5,
      "v": 100
    },
    {
      "midi": 47,
      "hit": false,
      "t": 136687.5,
      "d": 187.5,
      "v": 100
    },
    {
      "midi": 57,
      "hit": false,
      "t": 136875,
      "d": 187.5,
      "v": 100
    },
    {
      "midi": 45,
      "hit": false,
      "t": 136875,
      "d": 187.5,
      "v": 100
    },
    {
      "midi": 55,
      "hit": false,
      "t": 137062.5,
      "d": 187.5,
      "v": 100
    },
    {
      "midi": 43,
      "hit": false,
      "t": 137062.5,
      "d": 187.5,
      "v": 100
    },
    {
      "midi": 57,
      "hit": false,
      "t": 137250,
      "d": 187.5,
      "v": 100
    },
    {
      "midi": 45,
      "hit": false,
      "t": 137250,
      "d": 187.5,
      "v": 100
    },
    {
      "midi": 54,
      "hit": false,
      "t": 137437.5,
      "d": 187.5,
      "v": 100
    },
    {
      "midi": 42,
      "hit": false,
      "t": 137437.5,
      "d": 187.5,
      "v": 100
    },
    {
      "midi": 55,
      "hit": false,
      "t": 137625,
      "d": 187.5,
      "v": 100
    },
    {
      "midi": 43,
      "hit": false,
      "t": 137625,
      "d": 187.5,
      "v": 100
    },
    {
      "midi": 57,
      "hit": false,
      "t": 137812.5,
      "d": 187.5,
      "v": 100
    },
    {
      "midi": 45,
      "hit": false,
      "t": 137812.5,
      "d": 187.5,
      "v": 100
    },
    {
      "midi": 74,
      "hit": false,
      "t": 138000,
      "d": 750,
      "v": 100
    },
    {
      "midi": 55,
      "hit": false,
      "t": 138000,
      "d": 375,
      "v": 100
    },
    {
      "midi": 43,
      "hit": false,
      "t": 138000,
      "d": 1500,
      "v": 100
    },
    {
      "midi": 86,
      "hit": false,
      "t": 138000,
      "d": 750,
      "v": 100
    },
    {
      "midi": 43,
      "hit": false,
      "t": 138000,
      "d": 375,
      "v": 100
    },
    {
      "midi": 31,
      "hit": false,
      "t": 138000,
      "d": 1500,
      "v": 100
    },
    {
      "midi": 59,
      "hit": false,
      "t": 138375,
      "d": 187.5,
      "v": 100
    },
    {
      "midi": 47,
      "hit": false,
      "t": 138375,
      "d": 187.5,
      "v": 100
    },
    {
      "midi": 57,
      "hit": false,
      "t": 138562.5,
      "d": 187.5,
      "v": 100
    },
    {
      "midi": 45,
      "hit": false,
      "t": 138562.5,
      "d": 187.5,
      "v": 100
    },
    {
      "midi": 55,
      "hit": false,
      "t": 138750,
      "d": 375,
      "v": 100
    },
    {
      "midi": 43,
      "hit": false,
      "t": 138750,
      "d": 375,
      "v": 100
    },
    {
      "midi": 54,
      "hit": false,
      "t": 139125,
      "d": 187.5,
      "v": 100
    },
    {
      "midi": 42,
      "hit": false,
      "t": 139125,
      "d": 187.5,
      "v": 100
    },
    {
      "midi": 52,
      "hit": false,
      "t": 139312.5,
      "d": 187.5,
      "v": 100
    },
    {
      "midi": 40,
      "hit": false,
      "t": 139312.5,
      "d": 187.5,
      "v": 100
    },
    {
      "midi": 62,
      "hit": false,
      "t": 139500,
      "d": 750,
      "v": 100
    },
    {
      "midi": 54,
      "hit": false,
      "t": 139500,
      "d": 187.5,
      "v": 100
    },
    {
      "midi": 38,
      "hit": false,
      "t": 139500,
      "d": 1500,
      "v": 100
    },
    {
      "midi": 74,
      "hit": false,
      "t": 139500,
      "d": 750,
      "v": 100
    },
    {
      "midi": 42,
      "hit": false,
      "t": 139500,
      "d": 187.5,
      "v": 100
    },
    {
      "midi": 26,
      "hit": false,
      "t": 139500,
      "d": 1500,
      "v": 100
    },
    {
      "midi": 52,
      "hit": false,
      "t": 139687.5,
      "d": 187.5,
      "v": 100
    },
    {
      "midi": 40,
      "hit": false,
      "t": 139687.5,
      "d": 187.5,
      "v": 100
    },
    {
      "midi": 50,
      "hit": false,
      "t": 139875,
      "d": 187.5,
      "v": 100
    },
    {
      "midi": 38,
      "hit": false,
      "t": 139875,
      "d": 187.5,
      "v": 100
    },
    {
      "midi": 52,
      "hit": false,
      "t": 140062.5,
      "d": 187.5,
      "v": 100
    },
    {
      "midi": 40,
      "hit": false,
      "t": 140062.5,
      "d": 187.5,
      "v": 100
    },
    {
      "midi": 54,
      "hit": false,
      "t": 140250,
      "d": 187.5,
      "v": 100
    },
    {
      "midi": 42,
      "hit": false,
      "t": 140250,
      "d": 187.5,
      "v": 100
    },
    {
      "midi": 55,
      "hit": false,
      "t": 140437.5,
      "d": 187.5,
      "v": 100
    },
    {
      "midi": 43,
      "hit": false,
      "t": 140437.5,
      "d": 187.5,
      "v": 100
    },
    {
      "midi": 57,
      "hit": false,
      "t": 140625,
      "d": 187.5,
      "v": 100
    },
    {
      "midi": 45,
      "hit": false,
      "t": 140625,
      "d": 187.5,
      "v": 100
    },
    {
      "midi": 59,
      "hit": false,
      "t": 140812.5,
      "d": 187.5,
      "v": 100
    },
    {
      "midi": 47,
      "hit": false,
      "t": 140812.5,
      "d": 187.5,
      "v": 100
    },
    {
      "midi": 74,
      "hit": false,
      "t": 141000,
      "d": 750,
      "v": 100
    },
    {
      "midi": 55,
      "hit": false,
      "t": 141000,
      "d": 375,
      "v": 100
    },
    {
      "midi": 43,
      "hit": false,
      "t": 141000,
      "d": 1500,
      "v": 100
    },
    {
      "midi": 86,
      "hit": false,
      "t": 141000,
      "d": 750,
      "v": 100
    },
    {
      "midi": 43,
      "hit": false,
      "t": 141000,
      "d": 375,
      "v": 100
    },
    {
      "midi": 31,
      "hit": false,
      "t": 141000,
      "d": 1500,
      "v": 100
    },
    {
      "midi": 59,
      "hit": false,
      "t": 141375,
      "d": 187.5,
      "v": 100
    },
    {
      "midi": 47,
      "hit": false,
      "t": 141375,
      "d": 187.5,
      "v": 100
    },
    {
      "midi": 57,
      "hit": false,
      "t": 141562.5,
      "d": 187.5,
      "v": 100
    },
    {
      "midi": 45,
      "hit": false,
      "t": 141562.5,
      "d": 187.5,
      "v": 100
    },
    {
      "midi": 59,
      "hit": false,
      "t": 141750,
      "d": 375,
      "v": 100
    },
    {
      "midi": 47,
      "hit": false,
      "t": 141750,
      "d": 375,
      "v": 100
    },
    {
      "midi": 61,
      "hit": false,
      "t": 142125,
      "d": 187.5,
      "v": 100
    },
    {
      "midi": 49,
      "hit": false,
      "t": 142125,
      "d": 187.5,
      "v": 100
    },
    {
      "midi": 62,
      "hit": false,
      "t": 142312.5,
      "d": 187.5,
      "v": 100
    },
    {
      "midi": 50,
      "hit": false,
      "t": 142312.5,
      "d": 187.5,
      "v": 100
    },
    {
      "midi": 76,
      "hit": false,
      "t": 142500,
      "d": 750,
      "v": 100
    },
    {
      "midi": 57,
      "hit": false,
      "t": 142500,
      "d": 187.5,
      "v": 100
    },
    {
      "midi": 45,
      "hit": false,
      "t": 142500,
      "d": 1500,
      "v": 100
    },
    {
      "midi": 88,
      "hit": false,
      "t": 142500,
      "d": 750,
      "v": 100
    },
    {
      "midi": 45,
      "hit": false,
      "t": 142500,
      "d": 187.5,
      "v": 100
    },
    {
      "midi": 33,
      "hit": false,
      "t": 142500,
      "d": 1500,
      "v": 100
    },
    {
      "midi": 59,
      "hit": false,
      "t": 142687.5,
      "d": 187.5,
      "v": 100
    },
    {
      "midi": 47,
      "hit": false,
      "t": 142687.5,
      "d": 187.5,
      "v": 100
    },
    {
      "midi": 61,
      "hit": false,
      "t": 142875,
      "d": 187.5,
      "v": 100
    },
    {
      "midi": 49,
      "hit": false,
      "t": 142875,
      "d": 187.5,
      "v": 100
    },
    {
      "midi": 62,
      "hit": false,
      "t": 143062.5,
      "d": 187.5,
      "v": 100
    },
    {
      "midi": 50,
      "hit": false,
      "t": 143062.5,
      "d": 187.5,
      "v": 100
    },
    {
      "midi": 64,
      "hit": false,
      "t": 143250,
      "d": 187.5,
      "v": 100
    },
    {
      "midi": 76,
      "hit": false,
      "t": 143250,
      "d": 187.5,
      "v": 100
    },
    {
      "midi": 66,
      "hit": false,
      "t": 143437.5,
      "d": 187.5,
      "v": 100
    },
    {
      "midi": 78,
      "hit": false,
      "t": 143437.5,
      "d": 187.5,
      "v": 100
    },
    {
      "midi": 67,
      "hit": false,
      "t": 143625,
      "d": 187.5,
      "v": 100
    },
    {
      "midi": 79,
      "hit": false,
      "t": 143625,
      "d": 187.5,
      "v": 100
    },
    {
      "midi": 69,
      "hit": false,
      "t": 143812.5,
      "d": 187.5,
      "v": 100
    },
    {
      "midi": 81,
      "hit": false,
      "t": 143812.5,
      "d": 187.5,
      "v": 100
    },
    {
      "midi": 66,
      "hit": false,
      "t": 144000,
      "d": 375,
      "v": 100
    },
    {
      "midi": 62,
      "hit": false,
      "t": 144000,
      "d": 750,
      "v": 100
    },
    {
      "midi": 50,
      "hit": false,
      "t": 144000,
      "d": 1500,
      "v": 100
    },
    {
      "midi": 78,
      "hit": false,
      "t": 144000,
      "d": 375,
      "v": 100
    },
    {
      "midi": 50,
      "hit": false,
      "t": 144000,
      "d": 750,
      "v": 100
    },
    {
      "midi": 38,
      "hit": false,
      "t": 144000,
      "d": 1500,
      "v": 100
    },
    {
      "midi": 62,
      "hit": false,
      "t": 144375,
      "d": 187.5,
      "v": 100
    },
    {
      "midi": 74,
      "hit": false,
      "t": 144375,
      "d": 187.5,
      "v": 100
    },
    {
      "midi": 64,
      "hit": false,
      "t": 144562.5,
      "d": 187.5,
      "v": 100
    },
    {
      "midi": 76,
      "hit": false,
      "t": 144562.5,
      "d": 187.5,
      "v": 100
    },
    {
      "midi": 66,
      "hit": false,
      "t": 144750,
      "d": 375,
      "v": 100
    },
    {
      "midi": 57,
      "hit": false,
      "t": 144750,
      "d": 750,
      "v": 100
    },
    {
      "midi": 78,
      "hit": false,
      "t": 144750,
      "d": 375,
      "v": 100
    },
    {
      "midi": 45,
      "hit": false,
      "t": 144750,
      "d": 750,
      "v": 100
    },
    {
      "midi": 64,
      "hit": false,
      "t": 145125,
      "d": 187.5,
      "v": 100
    },
    {
      "midi": 76,
      "hit": false,
      "t": 145125,
      "d": 187.5,
      "v": 100
    },
    {
      "midi": 62,
      "hit": false,
      "t": 145312.5,
      "d": 187.5,
      "v": 100
    },
    {
      "midi": 74,
      "hit": false,
      "t": 145312.5,
      "d": 187.5,
      "v": 100
    },
    {
      "midi": 64,
      "hit": false,
      "t": 145500,
      "d": 187.5,
      "v": 100
    },
    {
      "midi": 61,
      "hit": false,
      "t": 145500,
      "d": 750,
      "v": 100
    },
    {
      "midi": 45,
      "hit": false,
      "t": 145500,
      "d": 1500,
      "v": 100
    },
    {
      "midi": 76,
      "hit": false,
      "t": 145500,
      "d": 187.5,
      "v": 100
    },
    {
      "midi": 49,
      "hit": false,
      "t": 145500,
      "d": 750,
      "v": 100
    },
    {
      "midi": 33,
      "hit": false,
      "t": 145500,
      "d": 1500,
      "v": 100
    },
    {
      "midi": 61,
      "hit": false,
      "t": 145687.5,
      "d": 187.5,
      "v": 100
    },
    {
      "midi": 73,
      "hit": false,
      "t": 145687.5,
      "d": 187.5,
      "v": 100
    },
    {
      "midi": 62,
      "hit": false,
      "t": 145875,
      "d": 187.5,
      "v": 100
    },
    {
      "midi": 74,
      "hit": false,
      "t": 145875,
      "d": 187.5,
      "v": 100
    },
    {
      "midi": 64,
      "hit": false,
      "t": 146062.5,
      "d": 187.5,
      "v": 100
    },
    {
      "midi": 76,
      "hit": false,
      "t": 146062.5,
      "d": 187.5,
      "v": 100
    },
    {
      "midi": 66,
      "hit": false,
      "t": 146250,
      "d": 187.5,
      "v": 100
    },
    {
      "midi": 57,
      "hit": false,
      "t": 146250,
      "d": 750,
      "v": 100
    },
    {
      "midi": 78,
      "hit": false,
      "t": 146250,
      "d": 187.5,
      "v": 100
    },
    {
      "midi": 45,
      "hit": false,
      "t": 146250,
      "d": 750,
      "v": 100
    },
    {
      "midi": 64,
      "hit": false,
      "t": 146437.5,
      "d": 187.5,
      "v": 100
    },
    {
      "midi": 76,
      "hit": false,
      "t": 146437.5,
      "d": 187.5,
      "v": 100
    },
    {
      "midi": 62,
      "hit": false,
      "t": 146625,
      "d": 187.5,
      "v": 100
    },
    {
      "midi": 74,
      "hit": false,
      "t": 146625,
      "d": 187.5,
      "v": 100
    },
    {
      "midi": 61,
      "hit": false,
      "t": 146812.5,
      "d": 187.5,
      "v": 100
    },
    {
      "midi": 73,
      "hit": false,
      "t": 146812.5,
      "d": 187.5,
      "v": 100
    },
    {
      "midi": 62,
      "hit": false,
      "t": 147000,
      "d": 375,
      "v": 100
    },
    {
      "midi": 59,
      "hit": false,
      "t": 147000,
      "d": 750,
      "v": 100
    },
    {
      "midi": 47,
      "hit": false,
      "t": 147000,
      "d": 1500,
      "v": 100
    },
    {
      "midi": 74,
      "hit": false,
      "t": 147000,
      "d": 375,
      "v": 100
    },
    {
      "midi": 47,
      "hit": false,
      "t": 147000,
      "d": 750,
      "v": 100
    },
    {
      "midi": 35,
      "hit": false,
      "t": 147000,
      "d": 1500,
      "v": 100
    },
    {
      "midi": 59,
      "hit": false,
      "t": 147375,
      "d": 187.5,
      "v": 100
    },
    {
      "midi": 71,
      "hit": false,
      "t": 147375,
      "d": 187.5,
      "v": 100
    },
    {
      "midi": 61,
      "hit": false,
      "t": 147562.5,
      "d": 187.5,
      "v": 100
    },
    {
      "midi": 73,
      "hit": false,
      "t": 147562.5,
      "d": 187.5,
      "v": 100
    },
    {
      "midi": 62,
      "hit": false,
      "t": 147750,
      "d": 375,
      "v": 100
    },
    {
      "midi": 54,
      "hit": false,
      "t": 147750,
      "d": 750,
      "v": 100
    },
    {
      "midi": 74,
      "hit": false,
      "t": 147750,
      "d": 375,
      "v": 100
    },
    {
      "midi": 42,
      "hit": false,
      "t": 147750,
      "d": 750,
      "v": 100
    },
    {
      "midi": 62,
      "hit": false,
      "t": 148125,
      "d": 187.5,
      "v": 100
    },
    {
      "midi": 74,
      "hit": false,
      "t": 148125,
      "d": 187.5,
      "v": 100
    },
    {
      "midi": 64,
      "hit": false,
      "t": 148312.5,
      "d": 187.5,
      "v": 100
    },
    {
      "midi": 76,
      "hit": false,
      "t": 148312.5,
      "d": 187.5,
      "v": 100
    },
    {
      "midi": 66,
      "hit": false,
      "t": 148500,
      "d": 187.5,
      "v": 100
    },
    {
      "midi": 50,
      "hit": false,
      "t": 148500,
      "d": 750,
      "v": 100
    },
    {
      "midi": 42,
      "hit": false,
      "t": 148500,
      "d": 1500,
      "v": 100
    },
    {
      "midi": 78,
      "hit": false,
      "t": 148500,
      "d": 187.5,
      "v": 100
    },
    {
      "midi": 38,
      "hit": false,
      "t": 148500,
      "d": 750,
      "v": 100
    },
    {
      "midi": 30,
      "hit": false,
      "t": 148500,
      "d": 1500,
      "v": 100
    },
    {
      "midi": 67,
      "hit": false,
      "t": 148687.5,
      "d": 187.5,
      "v": 100
    },
    {
      "midi": 79,
      "hit": false,
      "t": 148687.5,
      "d": 187.5,
      "v": 100
    },
    {
      "midi": 66,
      "hit": false,
      "t": 148875,
      "d": 187.5,
      "v": 100
    },
    {
      "midi": 78,
      "hit": false,
      "t": 148875,
      "d": 187.5,
      "v": 100
    },
    {
      "midi": 64,
      "hit": false,
      "t": 149062.5,
      "d": 187.5,
      "v": 100
    },
    {
      "midi": 76,
      "hit": false,
      "t": 149062.5,
      "d": 187.5,
      "v": 100
    },
    {
      "midi": 66,
      "hit": false,
      "t": 149250,
      "d": 187.5,
      "v": 100
    },
    {
      "midi": 57,
      "hit": false,
      "t": 149250,
      "d": 750,
      "v": 100
    },
    {
      "midi": 78,
      "hit": false,
      "t": 149250,
      "d": 187.5,
      "v": 100
    },
    {
      "midi": 45,
      "hit": false,
      "t": 149250,
      "d": 750,
      "v": 100
    },
    {
      "midi": 74,
      "hit": false,
      "t": 149437.5,
      "d": 187.5,
      "v": 100
    },
    {
      "midi": 86,
      "hit": false,
      "t": 149437.5,
      "d": 187.5,
      "v": 100
    },
    {
      "midi": 73,
      "hit": false,
      "t": 149625,
      "d": 187.5,
      "v": 100
    },
    {
      "midi": 85,
      "hit": false,
      "t": 149625,
      "d": 187.5,
      "v": 100
    },
    {
      "midi": 74,
      "hit": false,
      "t": 149812.5,
      "d": 187.5,
      "v": 100
    },
    {
      "midi": 86,
      "hit": false,
      "t": 149812.5,
      "d": 187.5,
      "v": 100
    },
    {
      "midi": 71,
      "hit": false,
      "t": 150000,
      "d": 375,
      "v": 100
    },
    {
      "midi": 50,
      "hit": false,
      "t": 150000,
      "d": 750,
      "v": 100
    },
    {
      "midi": 43,
      "hit": false,
      "t": 150000,
      "d": 1500,
      "v": 100
    },
    {
      "midi": 83,
      "hit": false,
      "t": 150000,
      "d": 375,
      "v": 100
    },
    {
      "midi": 38,
      "hit": false,
      "t": 150000,
      "d": 750,
      "v": 100
    },
    {
      "midi": 31,
      "hit": false,
      "t": 150000,
      "d": 1500,
      "v": 100
    },
    {
      "midi": 74,
      "hit": false,
      "t": 150375,
      "d": 187.5,
      "v": 100
    },
    {
      "midi": 86,
      "hit": false,
      "t": 150375,
      "d": 187.5,
      "v": 100
    },
    {
      "midi": 73,
      "hit": false,
      "t": 150562.5,
      "d": 187.5,
      "v": 100
    },
    {
      "midi": 85,
      "hit": false,
      "t": 150562.5,
      "d": 187.5,
      "v": 100
    },
    {
      "midi": 71,
      "hit": false,
      "t": 150750,
      "d": 375,
      "v": 100
    },
    {
      "midi": 55,
      "hit": false,
      "t": 150750,
      "d": 750,
      "v": 100
    },
    {
      "midi": 83,
      "hit": false,
      "t": 150750,
      "d": 375,
      "v": 100
    },
    {
      "midi": 43,
      "hit": false,
      "t": 150750,
      "d": 750,
      "v": 100
    },
    {
      "midi": 69,
      "hit": false,
      "t": 151125,
      "d": 187.5,
      "v": 100
    },
    {
      "midi": 81,
      "hit": false,
      "t": 151125,
      "d": 187.5,
      "v": 100
    },
    {
      "midi": 67,
      "hit": false,
      "t": 151312.5,
      "d": 187.5,
      "v": 100
    },
    {
      "midi": 79,
      "hit": false,
      "t": 151312.5,
      "d": 187.5,
      "v": 100
    },
    {
      "midi": 69,
      "hit": false,
      "t": 151500,
      "d": 187.5,
      "v": 100
    },
    {
      "midi": 62,
      "hit": false,
      "t": 151500,
      "d": 750,
      "v": 100
    },
    {
      "midi": 38,
      "hit": false,
      "t": 151500,
      "d": 1500,
      "v": 100
    },
    {
      "midi": 81,
      "hit": false,
      "t": 151500,
      "d": 187.5,
      "v": 100
    },
    {
      "midi": 74,
      "hit": false,
      "t": 151500,
      "d": 750,
      "v": 100
    },
    {
      "midi": 26,
      "hit": false,
      "t": 151500,
      "d": 1500,
      "v": 100
    },
    {
      "midi": 67,
      "hit": false,
      "t": 151687.5,
      "d": 187.5,
      "v": 100
    },
    {
      "midi": 79,
      "hit": false,
      "t": 151687.5,
      "d": 187.5,
      "v": 100
    },
    {
      "midi": 66,
      "hit": false,
      "t": 151875,
      "d": 187.5,
      "v": 100
    },
    {
      "midi": 78,
      "hit": false,
      "t": 151875,
      "d": 187.5,
      "v": 100
    },
    {
      "midi": 67,
      "hit": false,
      "t": 152062.5,
      "d": 187.5,
      "v": 100
    },
    {
      "midi": 79,
      "hit": false,
      "t": 152062.5,
      "d": 187.5,
      "v": 100
    },
    {
      "midi": 69,
      "hit": false,
      "t": 152250,
      "d": 187.5,
      "v": 100
    },
    {
      "midi": 66,
      "hit": false,
      "t": 152250,
      "d": 750,
      "v": 100
    },
    {
      "midi": 81,
      "hit": false,
      "t": 152250,
      "d": 187.5,
      "v": 100
    },
    {
      "midi": 78,
      "hit": false,
      "t": 152250,
      "d": 750,
      "v": 100
    },
    {
      "midi": 71,
      "hit": false,
      "t": 152437.5,
      "d": 187.5,
      "v": 100
    },
    {
      "midi": 83,
      "hit": false,
      "t": 152437.5,
      "d": 187.5,
      "v": 100
    },
    {
      "midi": 73,
      "hit": false,
      "t": 152625,
      "d": 187.5,
      "v": 100
    },
    {
      "midi": 85,
      "hit": false,
      "t": 152625,
      "d": 187.5,
      "v": 100
    },
    {
      "midi": 74,
      "hit": false,
      "t": 152812.5,
      "d": 187.5,
      "v": 100
    },
    {
      "midi": 86,
      "hit": false,
      "t": 152812.5,
      "d": 187.5,
      "v": 100
    },
    {
      "midi": 71,
      "hit": false,
      "t": 153000,
      "d": 375,
      "v": 100
    },
    {
      "midi": 62,
      "hit": false,
      "t": 153000,
      "d": 750,
      "v": 100
    },
    {
      "midi": 43,
      "hit": false,
      "t": 153000,
      "d": 1500,
      "v": 100
    },
    {
      "midi": 83,
      "hit": false,
      "t": 153000,
      "d": 375,
      "v": 100
    },
    {
      "midi": 74,
      "hit": false,
      "t": 153000,
      "d": 750,
      "v": 100
    },
    {
      "midi": 31,
      "hit": false,
      "t": 153000,
      "d": 1500,
      "v": 100
    },
    {
      "midi": 74,
      "hit": false,
      "t": 153375,
      "d": 187.5,
      "v": 100
    },
    {
      "midi": 86,
      "hit": false,
      "t": 153375,
      "d": 187.5,
      "v": 100
    },
    {
      "midi": 73,
      "hit": false,
      "t": 153562.5,
      "d": 187.5,
      "v": 100
    },
    {
      "midi": 85,
      "hit": false,
      "t": 153562.5,
      "d": 187.5,
      "v": 100
    },
    {
      "midi": 74,
      "hit": false,
      "t": 153750,
      "d": 375,
      "v": 100
    },
    {
      "midi": 67,
      "hit": false,
      "t": 153750,
      "d": 750,
      "v": 100
    },
    {
      "midi": 86,
      "hit": false,
      "t": 153750,
      "d": 375,
      "v": 100
    },
    {
      "midi": 79,
      "hit": false,
      "t": 153750,
      "d": 750,
      "v": 100
    },
    {
      "midi": 73,
      "hit": false,
      "t": 154125,
      "d": 187.5,
      "v": 100
    },
    {
      "midi": 85,
      "hit": false,
      "t": 154125,
      "d": 187.5,
      "v": 100
    },
    {
      "midi": 71,
      "hit": false,
      "t": 154312.5,
      "d": 187.5,
      "v": 100
    },
    {
      "midi": 83,
      "hit": false,
      "t": 154312.5,
      "d": 187.5,
      "v": 100
    },
    {
      "midi": 73,
      "hit": false,
      "t": 154500,
      "d": 187.5,
      "v": 100
    },
    {
      "midi": 64,
      "hit": false,
      "t": 154500,
      "d": 750,
      "v": 100
    },
    {
      "midi": 45,
      "hit": false,
      "t": 154500,
      "d": 1500,
      "v": 100
    },
    {
      "midi": 85,
      "hit": false,
      "t": 154500,
      "d": 187.5,
      "v": 100
    },
    {
      "midi": 76,
      "hit": false,
      "t": 154500,
      "d": 750,
      "v": 100
    },
    {
      "midi": 33,
      "hit": false,
      "t": 154500,
      "d": 1500,
      "v": 100
    },
    {
      "midi": 74,
      "hit": false,
      "t": 154687.5,
      "d": 187.5,
      "v": 100
    },
    {
      "midi": 86,
      "hit": false,
      "t": 154687.5,
      "d": 187.5,
      "v": 100
    },
    {
      "midi": 76,
      "hit": false,
      "t": 154875,
      "d": 187.5,
      "v": 100
    },
    {
      "midi": 88,
      "hit": false,
      "t": 154875,
      "d": 187.5,
      "v": 100
    },
    {
      "midi": 74,
      "hit": false,
      "t": 155062.5,
      "d": 187.5,
      "v": 100
    },
    {
      "midi": 86,
      "hit": false,
      "t": 155062.5,
      "d": 187.5,
      "v": 100
    },
    {
      "midi": 73,
      "hit": false,
      "t": 155250,
      "d": 187.5,
      "v": 100
    },
    {
      "midi": 76,
      "hit": false,
      "t": 155250,
      "d": 750,
      "v": 100
    },
    {
      "midi": 85,
      "hit": false,
      "t": 155250,
      "d": 187.5,
      "v": 100
    },
    {
      "midi": 88,
      "hit": false,
      "t": 155250,
      "d": 750,
      "v": 100
    },
    {
      "midi": 74,
      "hit": false,
      "t": 155437.5,
      "d": 187.5,
      "v": 100
    },
    {
      "midi": 86,
      "hit": false,
      "t": 155437.5,
      "d": 187.5,
      "v": 100
    },
    {
      "midi": 71,
      "hit": false,
      "t": 155625,
      "d": 187.5,
      "v": 100
    },
    {
      "midi": 83,
      "hit": false,
      "t": 155625,
      "d": 187.5,
      "v": 100
    },
    {
      "midi": 73,
      "hit": false,
      "t": 155812.5,
      "d": 187.5,
      "v": 100
    },
    {
      "midi": 85,
      "hit": false,
      "t": 155812.5,
      "d": 187.5,
      "v": 100
    },
    {
      "midi": 78,
      "hit": false,
      "t": 156000,
      "d": 375,
      "v": 100
    },
    {
      "midi": 62,
      "hit": false,
      "t": 156000,
      "d": 750,
      "v": 100
    },
    {
      "midi": 50,
      "hit": false,
      "t": 156000,
      "d": 1500,
      "v": 100
    },
    {
      "midi": 90,
      "hit": false,
      "t": 156000,
      "d": 375,
      "v": 100
    },
    {
      "midi": 50,
      "hit": false,
      "t": 156000,
      "d": 750,
      "v": 100
    },
    {
      "midi": 38,
      "hit": false,
      "t": 156000,
      "d": 1500,
      "v": 100
    },
    {
      "midi": 66,
      "hit": false,
      "t": 156375,
      "d": 375,
      "v": 100
    },
    {
      "midi": 78,
      "hit": false,
      "t": 156375,
      "d": 375,
      "v": 100
    },
    {
      "midi": 67,
      "hit": false,
      "t": 156750,
      "d": 375,
      "v": 100
    },
    {
      "midi": 57,
      "hit": false,
      "t": 156750,
      "d": 750,
      "v": 100
    },
    {
      "midi": 79,
      "hit": false,
      "t": 156750,
      "d": 375,
      "v": 100
    },
    {
      "midi": 45,
      "hit": false,
      "t": 156750,
      "d": 750,
      "v": 100
    },
    {
      "midi": 66,
      "hit": false,
      "t": 157125,
      "d": 375,
      "v": 100
    },
    {
      "midi": 78,
      "hit": false,
      "t": 157125,
      "d": 375,
      "v": 100
    },
    {
      "midi": 64,
      "hit": false,
      "t": 157500,
      "d": 375,
      "v": 100
    },
    {
      "midi": 61,
      "hit": false,
      "t": 157500,
      "d": 750,
      "v": 100
    },
    {
      "midi": 45,
      "hit": false,
      "t": 157500,
      "d": 1500,
      "v": 100
    },
    {
      "midi": 76,
      "hit": false,
      "t": 157500,
      "d": 375,
      "v": 100
    },
    {
      "midi": 49,
      "hit": false,
      "t": 157500,
      "d": 750,
      "v": 100
    },
    {
      "midi": 33,
      "hit": false,
      "t": 157500,
      "d": 1500,
      "v": 100
    },
    {
      "midi": 76,
      "hit": false,
      "t": 157875,
      "d": 375,
      "v": 100
    },
    {
      "midi": 88,
      "hit": false,
      "t": 157875,
      "d": 375,
      "v": 100
    },
    {
      "midi": 78,
      "hit": false,
      "t": 158250,
      "d": 375,
      "v": 100
    },
    {
      "midi": 57,
      "hit": false,
      "t": 158250,
      "d": 750,
      "v": 100
    },
    {
      "midi": 90,
      "hit": false,
      "t": 158250,
      "d": 375,
      "v": 100
    },
    {
      "midi": 45,
      "hit": false,
      "t": 158250,
      "d": 750,
      "v": 100
    },
    {
      "midi": 76,
      "hit": false,
      "t": 158625,
      "d": 375,
      "v": 100
    },
    {
      "midi": 88,
      "hit": false,
      "t": 158625,
      "d": 375,
      "v": 100
    },
    {
      "midi": 74,
      "hit": false,
      "t": 159000,
      "d": 375,
      "v": 100
    },
    {
      "midi": 59,
      "hit": false,
      "t": 159000,
      "d": 750,
      "v": 100
    },
    {
      "midi": 47,
      "hit": false,
      "t": 159000,
      "d": 1500,
      "v": 100
    },
    {
      "midi": 86,
      "hit": false,
      "t": 159000,
      "d": 375,
      "v": 100
    },
    {
      "midi": 47,
      "hit": false,
      "t": 159000,
      "d": 750,
      "v": 100
    },
    {
      "midi": 35,
      "hit": false,
      "t": 159000,
      "d": 1500,
      "v": 100
    },
    {
      "midi": 66,
      "hit": false,
      "t": 159375,
      "d": 375,
      "v": 100
    },
    {
      "midi": 78,
      "hit": false,
      "t": 159375,
      "d": 375,
      "v": 100
    },
    {
      "midi": 62,
      "hit": false,
      "t": 159750,
      "d": 375,
      "v": 100
    },
    {
      "midi": 54,
      "hit": false,
      "t": 159750,
      "d": 750,
      "v": 100
    },
    {
      "midi": 74,
      "hit": false,
      "t": 159750,
      "d": 375,
      "v": 100
    },
    {
      "midi": 42,
      "hit": false,
      "t": 159750,
      "d": 750,
      "v": 100
    },
    {
      "midi": 71,
      "hit": false,
      "t": 160125,
      "d": 375,
      "v": 100
    },
    {
      "midi": 83,
      "hit": false,
      "t": 160125,
      "d": 375,
      "v": 100
    },
    {
      "midi": 69,
      "hit": false,
      "t": 160500,
      "d": 375,
      "v": 100
    },
    {
      "midi": 50,
      "hit": false,
      "t": 160500,
      "d": 750,
      "v": 100
    },
    {
      "midi": 42,
      "hit": false,
      "t": 160500,
      "d": 1500,
      "v": 100
    },
    {
      "midi": 81,
      "hit": false,
      "t": 160500,
      "d": 375,
      "v": 100
    },
    {
      "midi": 38,
      "hit": false,
      "t": 160500,
      "d": 750,
      "v": 100
    },
    {
      "midi": 30,
      "hit": false,
      "t": 160500,
      "d": 1500,
      "v": 100
    },
    {
      "midi": 57,
      "hit": false,
      "t": 160875,
      "d": 375,
      "v": 100
    },
    {
      "midi": 69,
      "hit": false,
      "t": 160875,
      "d": 375,
      "v": 100
    },
    {
      "midi": 55,
      "hit": false,
      "t": 161250,
      "d": 375,
      "v": 100
    },
    {
      "midi": 45,
      "hit": false,
      "t": 161250,
      "d": 750,
      "v": 100
    },
    {
      "midi": 67,
      "hit": false,
      "t": 161250,
      "d": 375,
      "v": 100
    },
    {
      "midi": 33,
      "hit": false,
      "t": 161250,
      "d": 750,
      "v": 100
    },
    {
      "midi": 57,
      "hit": false,
      "t": 161625,
      "d": 375,
      "v": 100
    },
    {
      "midi": 69,
      "hit": false,
      "t": 161625,
      "d": 375,
      "v": 100
    },
    {
      "midi": 59,
      "hit": false,
      "t": 162000,
      "d": 375,
      "v": 100
    },
    {
      "midi": 50,
      "hit": false,
      "t": 162000,
      "d": 750,
      "v": 100
    },
    {
      "midi": 43,
      "hit": false,
      "t": 162000,
      "d": 1500,
      "v": 100
    },
    {
      "midi": 71,
      "hit": false,
      "t": 162000,
      "d": 375,
      "v": 100
    },
    {
      "midi": 38,
      "hit": false,
      "t": 162000,
      "d": 750,
      "v": 100
    },
    {
      "midi": 31,
      "hit": false,
      "t": 162000,
      "d": 1500,
      "v": 100
    },
    {
      "midi": 71,
      "hit": false,
      "t": 162375,
      "d": 375,
      "v": 100
    },
    {
      "midi": 83,
      "hit": false,
      "t": 162375,
      "d": 375,
      "v": 100
    },
    {
      "midi": 73,
      "hit": false,
      "t": 162750,
      "d": 375,
      "v": 100
    },
    {
      "midi": 55,
      "hit": false,
      "t": 162750,
      "d": 750,
      "v": 100
    },
    {
      "midi": 85,
      "hit": false,
      "t": 162750,
      "d": 375,
      "v": 100
    },
    {
      "midi": 43,
      "hit": false,
      "t": 162750,
      "d": 750,
      "v": 100
    },
    {
      "midi": 71,
      "hit": false,
      "t": 163125,
      "d": 375,
      "v": 100
    },
    {
      "midi": 83,
      "hit": false,
      "t": 163125,
      "d": 375,
      "v": 100
    },
    {
      "midi": 69,
      "hit": false,
      "t": 163500,
      "d": 375,
      "v": 100
    },
    {
      "midi": 50,
      "hit": false,
      "t": 163500,
      "d": 750,
      "v": 100
    },
    {
      "midi": 38,
      "hit": false,
      "t": 163500,
      "d": 1500,
      "v": 100
    },
    {
      "midi": 81,
      "hit": false,
      "t": 163500,
      "d": 375,
      "v": 100
    },
    {
      "midi": 38,
      "hit": false,
      "t": 163500,
      "d": 750,
      "v": 100
    },
    {
      "midi": 26,
      "hit": false,
      "t": 163500,
      "d": 1500,
      "v": 100
    },
    {
      "midi": 57,
      "hit": false,
      "t": 163875,
      "d": 375,
      "v": 100
    },
    {
      "midi": 69,
      "hit": false,
      "t": 163875,
      "d": 375,
      "v": 100
    },
    {
      "midi": 55,
      "hit": false,
      "t": 164250,
      "d": 375,
      "v": 100
    },
    {
      "midi": 52,
      "hit": false,
      "t": 164250,
      "d": 750,
      "v": 100
    },
    {
      "midi": 67,
      "hit": false,
      "t": 164250,
      "d": 375,
      "v": 100
    },
    {
      "midi": 40,
      "hit": false,
      "t": 164250,
      "d": 750,
      "v": 100
    },
    {
      "midi": 57,
      "hit": false,
      "t": 164625,
      "d": 375,
      "v": 100
    },
    {
      "midi": 69,
      "hit": false,
      "t": 164625,
      "d": 375,
      "v": 100
    },
    {
      "midi": 59,
      "hit": false,
      "t": 165000,
      "d": 375,
      "v": 100
    },
    {
      "midi": 50,
      "hit": false,
      "t": 165000,
      "d": 750,
      "v": 100
    },
    {
      "midi": 43,
      "hit": false,
      "t": 165000,
      "d": 1500,
      "v": 100
    },
    {
      "midi": 71,
      "hit": false,
      "t": 165000,
      "d": 375,
      "v": 100
    },
    {
      "midi": 38,
      "hit": false,
      "t": 165000,
      "d": 750,
      "v": 100
    },
    {
      "midi": 31,
      "hit": false,
      "t": 165000,
      "d": 1500,
      "v": 100
    },
    {
      "midi": 71,
      "hit": false,
      "t": 165375,
      "d": 375,
      "v": 100
    },
    {
      "midi": 83,
      "hit": false,
      "t": 165375,
      "d": 375,
      "v": 100
    },
    {
      "midi": 69,
      "hit": false,
      "t": 165750,
      "d": 375,
      "v": 100
    },
    {
      "midi": 55,
      "hit": false,
      "t": 165750,
      "d": 750,
      "v": 100
    },
    {
      "midi": 81,
      "hit": false,
      "t": 165750,
      "d": 375,
      "v": 100
    },
    {
      "midi": 43,
      "hit": false,
      "t": 165750,
      "d": 750,
      "v": 100
    },
    {
      "midi": 71,
      "hit": false,
      "t": 166125,
      "d": 375,
      "v": 100
    },
    {
      "midi": 83,
      "hit": false,
      "t": 166125,
      "d": 375,
      "v": 100
    },
    {
      "midi": 73,
      "hit": false,
      "t": 166500,
      "d": 375,
      "v": 100
    },
    {
      "midi": 52,
      "hit": false,
      "t": 166500,
      "d": 750,
      "v": 100
    },
    {
      "midi": 45,
      "hit": false,
      "t": 166500,
      "d": 1500,
      "v": 100
    },
    {
      "midi": 85,
      "hit": false,
      "t": 166500,
      "d": 375,
      "v": 100
    },
    {
      "midi": 40,
      "hit": false,
      "t": 166500,
      "d": 750,
      "v": 100
    },
    {
      "midi": 33,
      "hit": false,
      "t": 166500,
      "d": 1500,
      "v": 100
    },
    {
      "midi": 61,
      "hit": false,
      "t": 166875,
      "d": 375,
      "v": 100
    },
    {
      "midi": 73,
      "hit": false,
      "t": 166875,
      "d": 375,
      "v": 100
    },
    {
      "midi": 59,
      "hit": false,
      "t": 167250,
      "d": 375,
      "v": 100
    },
    {
      "midi": 52,
      "hit": false,
      "t": 167250,
      "d": 750,
      "v": 100
    },
    {
      "midi": 71,
      "hit": false,
      "t": 167250,
      "d": 375,
      "v": 100
    },
    {
      "midi": 40,
      "hit": false,
      "t": 167250,
      "d": 750,
      "v": 100
    },
    {
      "midi": 61,
      "hit": false,
      "t": 167625,
      "d": 375,
      "v": 100
    },
    {
      "midi": 73,
      "hit": false,
      "t": 167625,
      "d": 375,
      "v": 100
    },
    {
      "midi": 62,
      "hit": false,
      "t": 168000,
      "d": 375,
      "v": 100
    },
    {
      "midi": 50,
      "hit": false,
      "t": 168000,
      "d": 1500,
      "v": 100
    },
    {
      "midi": 74,
      "hit": false,
      "t": 168000,
      "d": 375,
      "v": 100
    },
    {
      "midi": 38,
      "hit": false,
      "t": 168000,
      "d": 1500,
      "v": 100
    },
    {
      "midi": 74,
      "hit": false,
      "t": 168375,
      "d": 375,
      "v": 100
    },
    {
      "midi": 78,
      "hit": false,
      "t": 168375,
      "d": 375,
      "v": 100
    },
    {
      "midi": 86,
      "hit": false,
      "t": 168375,
      "d": 375,
      "v": 100
    },
    {
      "midi": 90,
      "hit": false,
      "t": 168375,
      "d": 375,
      "v": 100
    },
    {
      "midi": 76,
      "hit": false,
      "t": 168750,
      "d": 375,
      "v": 100
    },
    {
      "midi": 57,
      "hit": false,
      "t": 168750,
      "d": 750,
      "v": 100
    },
    {
      "midi": 88,
      "hit": false,
      "t": 168750,
      "d": 375,
      "v": 100
    },
    {
      "midi": 45,
      "hit": false,
      "t": 168750,
      "d": 750,
      "v": 100
    },
    {
      "midi": 74,
      "hit": false,
      "t": 169125,
      "d": 375,
      "v": 100
    },
    {
      "midi": 78,
      "hit": false,
      "t": 169125,
      "d": 375,
      "v": 100
    },
    {
      "midi": 86,
      "hit": false,
      "t": 169125,
      "d": 375,
      "v": 100
    },
    {
      "midi": 90,
      "hit": false,
      "t": 169125,
      "d": 375,
      "v": 100
    },
    {
      "midi": 73,
      "hit": false,
      "t": 169500,
      "d": 375,
      "v": 100
    },
    {
      "midi": 45,
      "hit": false,
      "t": 169500,
      "d": 1500,
      "v": 100
    },
    {
      "midi": 85,
      "hit": false,
      "t": 169500,
      "d": 375,
      "v": 100
    },
    {
      "midi": 33,
      "hit": false,
      "t": 169500,
      "d": 1500,
      "v": 100
    },
    {
      "midi": 61,
      "hit": false,
      "t": 169875,
      "d": 375,
      "v": 100
    },
    {
      "midi": 73,
      "hit": false,
      "t": 169875,
      "d": 375,
      "v": 100
    },
    {
      "midi": 62,
      "hit": false,
      "t": 170250,
      "d": 375,
      "v": 100
    },
    {
      "midi": 66,
      "hit": false,
      "t": 170250,
      "d": 375,
      "v": 100
    },
    {
      "midi": 57,
      "hit": false,
      "t": 170250,
      "d": 750,
      "v": 100
    },
    {
      "midi": 74,
      "hit": false,
      "t": 170250,
      "d": 375,
      "v": 100
    },
    {
      "midi": 78,
      "hit": false,
      "t": 170250,
      "d": 375,
      "v": 100
    },
    {
      "midi": 45,
      "hit": false,
      "t": 170250,
      "d": 750,
      "v": 100
    },
    {
      "midi": 61,
      "hit": false,
      "t": 170625,
      "d": 375,
      "v": 100
    },
    {
      "midi": 64,
      "hit": false,
      "t": 170625,
      "d": 375,
      "v": 100
    },
    {
      "midi": 73,
      "hit": false,
      "t": 170625,
      "d": 375,
      "v": 100
    },
    {
      "midi": 76,
      "hit": false,
      "t": 170625,
      "d": 375,
      "v": 100
    },
    {
      "midi": 59,
      "hit": false,
      "t": 171000,
      "d": 375,
      "v": 100
    },
    {
      "midi": 62,
      "hit": false,
      "t": 171000,
      "d": 375,
      "v": 100
    },
    {
      "midi": 47,
      "hit": false,
      "t": 171000,
      "d": 1500,
      "v": 100
    },
    {
      "midi": 71,
      "hit": false,
      "t": 171000,
      "d": 375,
      "v": 100
    },
    {
      "midi": 74,
      "hit": false,
      "t": 171000,
      "d": 375,
      "v": 100
    },
    {
      "midi": 35,
      "hit": false,
      "t": 171000,
      "d": 1500,
      "v": 100
    },
    {
      "midi": 66,
      "hit": false,
      "t": 171375,
      "d": 375,
      "v": 100
    },
    {
      "midi": 71,
      "hit": false,
      "t": 171375,
      "d": 375,
      "v": 100
    },
    {
      "midi": 78,
      "hit": false,
      "t": 171375,
      "d": 375,
      "v": 100
    },
    {
      "midi": 83,
      "hit": false,
      "t": 171375,
      "d": 375,
      "v": 100
    },
    {
      "midi": 62,
      "hit": false,
      "t": 171750,
      "d": 375,
      "v": 100
    },
    {
      "midi": 69,
      "hit": false,
      "t": 171750,
      "d": 375,
      "v": 100
    },
    {
      "midi": 54,
      "hit": false,
      "t": 171750,
      "d": 750,
      "v": 100
    },
    {
      "midi": 74,
      "hit": false,
      "t": 171750,
      "d": 375,
      "v": 100
    },
    {
      "midi": 81,
      "hit": false,
      "t": 171750,
      "d": 375,
      "v": 100
    },
    {
      "midi": 42,
      "hit": false,
      "t": 171750,
      "d": 750,
      "v": 100
    },
    {
      "midi": 71,
      "hit": false,
      "t": 172125,
      "d": 375,
      "v": 100
    },
    {
      "midi": 83,
      "hit": false,
      "t": 172125,
      "d": 375,
      "v": 100
    },
    {
      "midi": 73,
      "hit": false,
      "t": 172500,
      "d": 375,
      "v": 100
    },
    {
      "midi": 42,
      "hit": false,
      "t": 172500,
      "d": 1500,
      "v": 100
    },
    {
      "midi": 85,
      "hit": false,
      "t": 172500,
      "d": 375,
      "v": 100
    },
    {
      "midi": 30,
      "hit": false,
      "t": 172500,
      "d": 1500,
      "v": 100
    },
    {
      "midi": 61,
      "hit": false,
      "t": 172875,
      "d": 375,
      "v": 100
    },
    {
      "midi": 73,
      "hit": false,
      "t": 172875,
      "d": 375,
      "v": 100
    },
    {
      "midi": 66,
      "hit": false,
      "t": 173250,
      "d": 375,
      "v": 100
    },
    {
      "midi": 57,
      "hit": false,
      "t": 173250,
      "d": 750,
      "v": 100
    },
    {
      "midi": 78,
      "hit": false,
      "t": 173250,
      "d": 375,
      "v": 100
    },
    {
      "midi": 45,
      "hit": false,
      "t": 173250,
      "d": 750,
      "v": 100
    },
    {
      "midi": 64,
      "hit": false,
      "t": 173625,
      "d": 375,
      "v": 100
    },
    {
      "midi": 76,
      "hit": false,
      "t": 173625,
      "d": 375,
      "v": 100
    },
    {
      "midi": 62,
      "hit": false,
      "t": 174000,
      "d": 375,
      "v": 100
    },
    {
      "midi": 43,
      "hit": false,
      "t": 174000,
      "d": 1500,
      "v": 100
    },
    {
      "midi": 74,
      "hit": false,
      "t": 174000,
      "d": 375,
      "v": 100
    },
    {
      "midi": 31,
      "hit": false,
      "t": 174000,
      "d": 1500,
      "v": 100
    },
    {
      "midi": 71,
      "hit": false,
      "t": 174375,
      "d": 375,
      "v": 100
    },
    {
      "midi": 74,
      "hit": false,
      "t": 174375,
      "d": 375,
      "v": 100
    },
    {
      "midi": 83,
      "hit": false,
      "t": 174375,
      "d": 375,
      "v": 100
    },
    {
      "midi": 86,
      "hit": false,
      "t": 174375,
      "d": 375,
      "v": 100
    },
    {
      "midi": 76,
      "hit": false,
      "t": 174750,
      "d": 375,
      "v": 100
    },
    {
      "midi": 55,
      "hit": false,
      "t": 174750,
      "d": 750,
      "v": 100
    },
    {
      "midi": 88,
      "hit": false,
      "t": 174750,
      "d": 375,
      "v": 100
    },
    {
      "midi": 43,
      "hit": false,
      "t": 174750,
      "d": 750,
      "v": 100
    },
    {
      "midi": 71,
      "hit": false,
      "t": 175125,
      "d": 375,
      "v": 100
    },
    {
      "midi": 79,
      "hit": false,
      "t": 175125,
      "d": 375,
      "v": 100
    },
    {
      "midi": 83,
      "hit": false,
      "t": 175125,
      "d": 375,
      "v": 100
    },
    {
      "midi": 91,
      "hit": false,
      "t": 175125,
      "d": 375,
      "v": 100
    },
    {
      "midi": 69,
      "hit": false,
      "t": 175500,
      "d": 375,
      "v": 100
    },
    {
      "midi": 78,
      "hit": false,
      "t": 175500,
      "d": 375,
      "v": 100
    },
    {
      "midi": 50,
      "hit": false,
      "t": 175500,
      "d": 1500,
      "v": 100
    },
    {
      "midi": 81,
      "hit": false,
      "t": 175500,
      "d": 375,
      "v": 100
    },
    {
      "midi": 90,
      "hit": false,
      "t": 175500,
      "d": 375,
      "v": 100
    },
    {
      "midi": 38,
      "hit": false,
      "t": 175500,
      "d": 1500,
      "v": 100
    },
    {
      "midi": 66,
      "hit": false,
      "t": 175875,
      "d": 375,
      "v": 100
    },
    {
      "midi": 78,
      "hit": false,
      "t": 175875,
      "d": 375,
      "v": 100
    },
    {
      "midi": 69,
      "hit": false,
      "t": 176250,
      "d": 375,
      "v": 100
    },
    {
      "midi": 54,
      "hit": false,
      "t": 176250,
      "d": 750,
      "v": 100
    },
    {
      "midi": 81,
      "hit": false,
      "t": 176250,
      "d": 375,
      "v": 100
    },
    {
      "midi": 42,
      "hit": false,
      "t": 176250,
      "d": 750,
      "v": 100
    },
    {
      "midi": 78,
      "hit": false,
      "t": 176625,
      "d": 375,
      "v": 100
    },
    {
      "midi": 90,
      "hit": false,
      "t": 176625,
      "d": 375,
      "v": 100
    },
    {
      "midi": 71,
      "hit": false,
      "t": 177000,
      "d": 375,
      "v": 100
    },
    {
      "midi": 74,
      "hit": false,
      "t": 177000,
      "d": 375,
      "v": 100
    },
    {
      "midi": 43,
      "hit": false,
      "t": 177000,
      "d": 1500,
      "v": 100
    },
    {
      "midi": 83,
      "hit": false,
      "t": 177000,
      "d": 375,
      "v": 100
    },
    {
      "midi": 86,
      "hit": false,
      "t": 177000,
      "d": 375,
      "v": 100
    },
    {
      "midi": 31,
      "hit": false,
      "t": 177000,
      "d": 1500,
      "v": 100
    },
    {
      "midi": 79,
      "hit": false,
      "t": 177375,
      "d": 375,
      "v": 100
    },
    {
      "midi": 91,
      "hit": false,
      "t": 177375,
      "d": 375,
      "v": 100
    },
    {
      "midi": 69,
      "hit": false,
      "t": 177750,
      "d": 375,
      "v": 100
    },
    {
      "midi": 78,
      "hit": false,
      "t": 177750,
      "d": 375,
      "v": 100
    },
    {
      "midi": 55,
      "hit": false,
      "t": 177750,
      "d": 750,
      "v": 100
    },
    {
      "midi": 81,
      "hit": false,
      "t": 177750,
      "d": 375,
      "v": 100
    },
    {
      "midi": 90,
      "hit": false,
      "t": 177750,
      "d": 375,
      "v": 100
    },
    {
      "midi": 43,
      "hit": false,
      "t": 177750,
      "d": 750,
      "v": 100
    },
    {
      "midi": 79,
      "hit": false,
      "t": 178125,
      "d": 375,
      "v": 100
    },
    {
      "midi": 91,
      "hit": false,
      "t": 178125,
      "d": 375,
      "v": 100
    },
    {
      "midi": 73,
      "hit": false,
      "t": 178500,
      "d": 375,
      "v": 100
    },
    {
      "midi": 76,
      "hit": false,
      "t": 178500,
      "d": 375,
      "v": 100
    },
    {
      "midi": 45,
      "hit": false,
      "t": 178500,
      "d": 1500,
      "v": 100
    },
    {
      "midi": 85,
      "hit": false,
      "t": 178500,
      "d": 375,
      "v": 100
    },
    {
      "midi": 88,
      "hit": false,
      "t": 178500,
      "d": 375,
      "v": 100
    },
    {
      "midi": 33,
      "hit": false,
      "t": 178500,
      "d": 1500,
      "v": 100
    },
    {
      "midi": 69,
      "hit": false,
      "t": 178875,
      "d": 375,
      "v": 100
    },
    {
      "midi": 81,
      "hit": false,
      "t": 178875,
      "d": 375,
      "v": 100
    },
    {
      "midi": 59,
      "hit": false,
      "t": 179250,
      "d": 375,
      "v": 100
    },
    {
      "midi": 67,
      "hit": false,
      "t": 179250,
      "d": 375,
      "v": 100
    },
    {
      "midi": 52,
      "hit": false,
      "t": 179250,
      "d": 750,
      "v": 100
    },
    {
      "midi": 71,
      "hit": false,
      "t": 179250,
      "d": 375,
      "v": 100
    },
    {
      "midi": 79,
      "hit": false,
      "t": 179250,
      "d": 375,
      "v": 100
    },
    {
      "midi": 40,
      "hit": false,
      "t": 179250,
      "d": 750,
      "v": 100
    },
    {
      "midi": 61,
      "hit": false,
      "t": 179625,
      "d": 375,
      "v": 100
    },
    {
      "midi": 69,
      "hit": false,
      "t": 179625,
      "d": 375,
      "v": 100
    },
    {
      "midi": 73,
      "hit": false,
      "t": 179625,
      "d": 375,
      "v": 100
    },
    {
      "midi": 81,
      "hit": false,
      "t": 179625,
      "d": 375,
      "v": 100
    },
    {
      "midi": 62,
      "hit": false,
      "t": 180000,
      "d": 750,
      "v": 100
    },
    {
      "midi": 66,
      "hit": false,
      "t": 180000,
      "d": 750,
      "v": 100
    },
    {
      "midi": 69,
      "hit": false,
      "t": 180000,
      "d": 3000,
      "v": 100
    },
    {
      "midi": 50,
      "hit": false,
      "t": 180000,
      "d": 1500,
      "v": 100
    },
    {
      "midi": 74,
      "hit": false,
      "t": 180000,
      "d": 750,
      "v": 100
    },
    {
      "midi": 78,
      "hit": false,
      "t": 180000,
      "d": 750,
      "v": 100
    },
    {
      "midi": 81,
      "hit": false,
      "t": 180000,
      "d": 3000,
      "v": 100
    },
    {
      "midi": 38,
      "hit": false,
      "t": 180000,
      "d": 1500,
      "v": 100
    },
    {
      "midi": 67,
      "hit": false,
      "t": 180750,
      "d": 375,
      "v": 100
    },
    {
      "midi": 76,
      "hit": false,
      "t": 180750,
      "d": 375,
      "v": 100
    },
    {
      "midi": 79,
      "hit": false,
      "t": 180750,
      "d": 375,
      "v": 100
    },
    {
      "midi": 88,
      "hit": false,
      "t": 180750,
      "d": 375,
      "v": 100
    },
    {
      "midi": 66,
      "hit": false,
      "t": 181125,
      "d": 375,
      "v": 100
    },
    {
      "midi": 74,
      "hit": false,
      "t": 181125,
      "d": 375,
      "v": 100
    },
    {
      "midi": 78,
      "hit": false,
      "t": 181125,
      "d": 375,
      "v": 100
    },
    {
      "midi": 86,
      "hit": false,
      "t": 181125,
      "d": 375,
      "v": 100
    },
    {
      "midi": 64,
      "hit": false,
      "t": 181500,
      "d": 750,
      "v": 100
    },
    {
      "midi": 73,
      "hit": false,
      "t": 181500,
      "d": 750,
      "v": 100
    },
    {
      "midi": 45,
      "hit": false,
      "t": 181500,
      "d": 1500,
      "v": 100
    },
    {
      "midi": 76,
      "hit": false,
      "t": 181500,
      "d": 750,
      "v": 100
    },
    {
      "midi": 85,
      "hit": false,
      "t": 181500,
      "d": 750,
      "v": 100
    },
    {
      "midi": 33,
      "hit": false,
      "t": 181500,
      "d": 1500,
      "v": 100
    },
    {
      "midi": 66,
      "hit": false,
      "t": 182250,
      "d": 375,
      "v": 100
    },
    {
      "midi": 74,
      "hit": false,
      "t": 182250,
      "d": 375,
      "v": 100
    },
    {
      "midi": 78,
      "hit": false,
      "t": 182250,
      "d": 375,
      "v": 100
    },
    {
      "midi": 86,
      "hit": false,
      "t": 182250,
      "d": 375,
      "v": 100
    },
    {
      "midi": 64,
      "hit": false,
      "t": 182625,
      "d": 375,
      "v": 100
    },
    {
      "midi": 73,
      "hit": false,
      "t": 182625,
      "d": 375,
      "v": 100
    },
    {
      "midi": 76,
      "hit": false,
      "t": 182625,
      "d": 375,
      "v": 100
    },
    {
      "midi": 85,
      "hit": false,
      "t": 182625,
      "d": 375,
      "v": 100
    },
    {
      "midi": 62,
      "hit": false,
      "t": 183000,
      "d": 750,
      "v": 100
    },
    {
      "midi": 66,
      "hit": false,
      "t": 183000,
      "d": 750,
      "v": 100
    },
    {
      "midi": 71,
      "hit": false,
      "t": 183000,
      "d": 750,
      "v": 100
    },
    {
      "midi": 47,
      "hit": false,
      "t": 183000,
      "d": 1500,
      "v": 100
    },
    {
      "midi": 74,
      "hit": false,
      "t": 183000,
      "d": 750,
      "v": 100
    },
    {
      "midi": 78,
      "hit": false,
      "t": 183000,
      "d": 750,
      "v": 100
    },
    {
      "midi": 83,
      "hit": false,
      "t": 183000,
      "d": 750,
      "v": 100
    },
    {
      "midi": 35,
      "hit": false,
      "t": 183000,
      "d": 1500,
      "v": 100
    },
    {
      "midi": 69,
      "hit": false,
      "t": 183750,
      "d": 375,
      "v": 100
    },
    {
      "midi": 62,
      "hit": false,
      "t": 183750,
      "d": 750,
      "v": 100
    },
    {
      "midi": 66,
      "hit": false,
      "t": 183750,
      "d": 750,
      "v": 100
    },
    {
      "midi": 81,
      "hit": false,
      "t": 183750,
      "d": 375,
      "v": 100
    },
    {
      "midi": 74,
      "hit": false,
      "t": 183750,
      "d": 750,
      "v": 100
    },
    {
      "midi": 78,
      "hit": false,
      "t": 183750,
      "d": 750,
      "v": 100
    },
    {
      "midi": 71,
      "hit": false,
      "t": 184125,
      "d": 375,
      "v": 100
    },
    {
      "midi": 83,
      "hit": false,
      "t": 184125,
      "d": 375,
      "v": 100
    },
    {
      "midi": 66,
      "hit": false,
      "t": 184500,
      "d": 750,
      "v": 100
    },
    {
      "midi": 69,
      "hit": false,
      "t": 184500,
      "d": 750,
      "v": 100
    },
    {
      "midi": 73,
      "hit": false,
      "t": 184500,
      "d": 750,
      "v": 100
    },
    {
      "midi": 42,
      "hit": false,
      "t": 184500,
      "d": 1500,
      "v": 100
    },
    {
      "midi": 78,
      "hit": false,
      "t": 184500,
      "d": 750,
      "v": 100
    },
    {
      "midi": 81,
      "hit": false,
      "t": 184500,
      "d": 750,
      "v": 100
    },
    {
      "midi": 85,
      "hit": false,
      "t": 184500,
      "d": 750,
      "v": 100
    },
    {
      "midi": 30,
      "hit": false,
      "t": 184500,
      "d": 1500,
      "v": 100
    },
    {
      "midi": 78,
      "hit": false,
      "t": 185250,
      "d": 375,
      "v": 100
    },
    {
      "midi": 69,
      "hit": false,
      "t": 185250,
      "d": 750,
      "v": 100
    },
    {
      "midi": 90,
      "hit": false,
      "t": 185250,
      "d": 375,
      "v": 100
    },
    {
      "midi": 81,
      "hit": false,
      "t": 185250,
      "d": 750,
      "v": 100
    },
    {
      "midi": 76,
      "hit": false,
      "t": 185625,
      "d": 375,
      "v": 100
    },
    {
      "midi": 88,
      "hit": false,
      "t": 185625,
      "d": 375,
      "v": 100
    },
    {
      "midi": 71,
      "hit": false,
      "t": 186000,
      "d": 750,
      "v": 100
    },
    {
      "midi": 74,
      "hit": false,
      "t": 186000,
      "d": 750,
      "v": 100
    },
    {
      "midi": 67,
      "hit": false,
      "t": 186000,
      "d": 1500,
      "v": 100
    },
    {
      "midi": 43,
      "hit": false,
      "t": 186000,
      "d": 1500,
      "v": 100
    },
    {
      "midi": 83,
      "hit": false,
      "t": 186000,
      "d": 750,
      "v": 100
    },
    {
      "midi": 86,
      "hit": false,
      "t": 186000,
      "d": 750,
      "v": 100
    },
    {
      "midi": 79,
      "hit": false,
      "t": 186000,
      "d": 1500,
      "v": 100
    },
    {
      "midi": 31,
      "hit": false,
      "t": 186000,
      "d": 1500,
      "v": 100
    },
    {
      "midi": 73,
      "hit": false,
      "t": 186750,
      "d": 375,
      "v": 100
    },
    {
      "midi": 76,
      "hit": false,
      "t": 186750,
      "d": 375,
      "v": 100
    },
    {
      "midi": 85,
      "hit": false,
      "t": 186750,
      "d": 375,
      "v": 100
    },
    {
      "midi": 88,
      "hit": false,
      "t": 186750,
      "d": 375,
      "v": 100
    },
    {
      "midi": 71,
      "hit": false,
      "t": 187125,
      "d": 375,
      "v": 100
    },
    {
      "midi": 79,
      "hit": false,
      "t": 187125,
      "d": 375,
      "v": 100
    },
    {
      "midi": 83,
      "hit": false,
      "t": 187125,
      "d": 375,
      "v": 100
    },
    {
      "midi": 91,
      "hit": false,
      "t": 187125,
      "d": 375,
      "v": 100
    },
    {
      "midi": 69,
      "hit": false,
      "t": 187500,
      "d": 750,
      "v": 100
    },
    {
      "midi": 78,
      "hit": false,
      "t": 187500,
      "d": 750,
      "v": 100
    },
    {
      "midi": 62,
      "hit": false,
      "t": 187500,
      "d": 1500,
      "v": 100
    },
    {
      "midi": 50,
      "hit": false,
      "t": 187500,
      "d": 1500,
      "v": 100
    },
    {
      "midi": 81,
      "hit": false,
      "t": 187500,
      "d": 750,
      "v": 100
    },
    {
      "midi": 90,
      "hit": false,
      "t": 187500,
      "d": 750,
      "v": 100
    },
    {
      "midi": 74,
      "hit": false,
      "t": 187500,
      "d": 1500,
      "v": 100
    },
    {
      "midi": 38,
      "hit": false,
      "t": 187500,
      "d": 1500,
      "v": 100
    },
    {
      "midi": 69,
      "hit": false,
      "t": 188250,
      "d": 375,
      "v": 100
    },
    {
      "midi": 81,
      "hit": false,
      "t": 188250,
      "d": 375,
      "v": 100
    },
    {
      "midi": 78,
      "hit": false,
      "t": 188625,
      "d": 375,
      "v": 100
    },
    {
      "midi": 90,
      "hit": false,
      "t": 188625,
      "d": 375,
      "v": 100
    },
    {
      "midi": 74,
      "hit": false,
      "t": 189000,
      "d": 375,
      "v": 100
    },
    {
      "midi": 55,
      "hit": false,
      "t": 189000,
      "d": 1500,
      "v": 100
    },
    {
      "midi": 59,
      "hit": false,
      "t": 189000,
      "d": 1500,
      "v": 100
    },
    {
      "midi": 86,
      "hit": false,
      "t": 189000,
      "d": 375,
      "v": 100
    },
    {
      "midi": 43,
      "hit": false,
      "t": 189000,
      "d": 1500,
      "v": 100
    },
    {
      "midi": 47,
      "hit": false,
      "t": 189000,
      "d": 1500,
      "v": 100
    },
    {
      "midi": 79,
      "hit": false,
      "t": 189375,
      "d": 375,
      "v": 100
    },
    {
      "midi": 91,
      "hit": false,
      "t": 189375,
      "d": 375,
      "v": 100
    },
    {
      "midi": 69,
      "hit": false,
      "t": 189750,
      "d": 375,
      "v": 100
    },
    {
      "midi": 78,
      "hit": false,
      "t": 189750,
      "d": 375,
      "v": 100
    },
    {
      "midi": 81,
      "hit": false,
      "t": 189750,
      "d": 375,
      "v": 100
    },
    {
      "midi": 90,
      "hit": false,
      "t": 189750,
      "d": 375,
      "v": 100
    },
    {
      "midi": 71,
      "hit": false,
      "t": 190125,
      "d": 375,
      "v": 100
    },
    {
      "midi": 79,
      "hit": false,
      "t": 190125,
      "d": 375,
      "v": 100
    },
    {
      "midi": 83,
      "hit": false,
      "t": 190125,
      "d": 375,
      "v": 100
    },
    {
      "midi": 91,
      "hit": false,
      "t": 190125,
      "d": 375,
      "v": 100
    },
    {
      "midi": 73,
      "hit": false,
      "t": 190500,
      "d": 375,
      "v": 100
    },
    {
      "midi": 76,
      "hit": false,
      "t": 190500,
      "d": 375,
      "v": 100
    },
    {
      "midi": 57,
      "hit": false,
      "t": 190500,
      "d": 750,
      "v": 100
    },
    {
      "midi": 45,
      "hit": false,
      "t": 190500,
      "d": 1500,
      "v": 100
    },
    {
      "midi": 85,
      "hit": false,
      "t": 190500,
      "d": 375,
      "v": 100
    },
    {
      "midi": 88,
      "hit": false,
      "t": 190500,
      "d": 375,
      "v": 100
    },
    {
      "midi": 45,
      "hit": false,
      "t": 190500,
      "d": 750,
      "v": 100
    },
    {
      "midi": 33,
      "hit": false,
      "t": 190500,
      "d": 1500,
      "v": 100
    },
    {
      "midi": 69,
      "hit": false,
      "t": 190875,
      "d": 375,
      "v": 100
    },
    {
      "midi": 73,
      "hit": false,
      "t": 190875,
      "d": 375,
      "v": 100
    },
    {
      "midi": 81,
      "hit": false,
      "t": 190875,
      "d": 375,
      "v": 100
    },
    {
      "midi": 85,
      "hit": false,
      "t": 190875,
      "d": 375,
      "v": 100
    },
    {
      "midi": 64,
      "hit": false,
      "t": 191250,
      "d": 375,
      "v": 100
    },
    {
      "midi": 67,
      "hit": false,
      "t": 191250,
      "d": 375,
      "v": 100
    },
    {
      "midi": 59,
      "hit": false,
      "t": 191250,
      "d": 375,
      "v": 100
    },
    {
      "midi": 76,
      "hit": false,
      "t": 191250,
      "d": 375,
      "v": 100
    },
    {
      "midi": 79,
      "hit": false,
      "t": 191250,
      "d": 375,
      "v": 100
    },
    {
      "midi": 47,
      "hit": false,
      "t": 191250,
      "d": 375,
      "v": 100
    },
    {
      "midi": 69,
      "hit": false,
      "t": 191625,
      "d": 375,
      "v": 100
    },
    {
      "midi": 61,
      "hit": false,
      "t": 191625,
      "d": 375,
      "v": 100
    },
    {
      "midi": 81,
      "hit": false,
      "t": 191625,
      "d": 375,
      "v": 100
    },
    {
      "midi": 49,
      "hit": false,
      "t": 191625,
      "d": 375,
      "v": 100
    },
    {
      "midi": 66,
      "hit": false,
      "t": 192000,
      "d": 750,
      "v": 100
    },
    {
      "midi": 62,
      "hit": false,
      "t": 192000,
      "d": 750,
      "v": 100
    },
    {
      "midi": 50,
      "hit": false,
      "t": 192000,
      "d": 1500,
      "v": 100
    },
    {
      "midi": 78,
      "hit": false,
      "t": 192000,
      "d": 750,
      "v": 100
    },
    {
      "midi": 50,
      "hit": false,
      "t": 192000,
      "d": 750,
      "v": 100
    },
    {
      "midi": 38,
      "hit": false,
      "t": 192000,
      "d": 1500,
      "v": 100
    },
    {
      "midi": 69,
      "hit": false,
      "t": 192750,
      "d": 750,
      "v": 100
    },
    {
      "midi": 78,
      "hit": false,
      "t": 192750,
      "d": 750,
      "v": 100
    },
    {
      "midi": 64,
      "hit": false,
      "t": 192750,
      "d": 375,
      "v": 100
    },
    {
      "midi": 81,
      "hit": false,
      "t": 192750,
      "d": 750,
      "v": 100
    },
    {
      "midi": 90,
      "hit": false,
      "t": 192750,
      "d": 750,
      "v": 100
    },
    {
      "midi": 52,
      "hit": false,
      "t": 192750,
      "d": 375,
      "v": 100
    },
    {
      "midi": 62,
      "hit": false,
      "t": 193125,
      "d": 375,
      "v": 100
    },
    {
      "midi": 50,
      "hit": false,
      "t": 193125,
      "d": 375,
      "v": 100
    },
    {
      "midi": 69,
      "hit": false,
      "t": 193500,
      "d": 750,
      "v": 100
    },
    {
      "midi": 76,
      "hit": false,
      "t": 193500,
      "d": 750,
      "v": 100
    },
    {
      "midi": 61,
      "hit": false,
      "t": 193500,
      "d": 750,
      "v": 100
    },
    {
      "midi": 57,
      "hit": false,
      "t": 193500,
      "d": 1500,
      "v": 100
    },
    {
      "midi": 81,
      "hit": false,
      "t": 193500,
      "d": 750,
      "v": 100
    },
    {
      "midi": 88,
      "hit": false,
      "t": 193500,
      "d": 750,
      "v": 100
    },
    {
      "midi": 49,
      "hit": false,
      "t": 193500,
      "d": 750,
      "v": 100
    },
    {
      "midi": 45,
      "hit": false,
      "t": 193500,
      "d": 1500,
      "v": 100
    },
    {
      "midi": 69,
      "hit": false,
      "t": 194250,
      "d": 750,
      "v": 100
    },
    {
      "midi": 76,
      "hit": false,
      "t": 194250,
      "d": 750,
      "v": 100
    },
    {
      "midi": 62,
      "hit": false,
      "t": 194250,
      "d": 375,
      "v": 100
    },
    {
      "midi": 81,
      "hit": false,
      "t": 194250,
      "d": 750,
      "v": 100
    },
    {
      "midi": 88,
      "hit": false,
      "t": 194250,
      "d": 750,
      "v": 100
    },
    {
      "midi": 50,
      "hit": false,
      "t": 194250,
      "d": 375,
      "v": 100
    },
    {
      "midi": 61,
      "hit": false,
      "t": 194625,
      "d": 375,
      "v": 100
    },
    {
      "midi": 49,
      "hit": false,
      "t": 194625,
      "d": 375,
      "v": 100
    },
    {
      "midi": 66,
      "hit": false,
      "t": 195000,
      "d": 750,
      "v": 100
    },
    {
      "midi": 74,
      "hit": false,
      "t": 195000,
      "d": 750,
      "v": 100
    },
    {
      "midi": 59,
      "hit": false,
      "t": 195000,
      "d": 750,
      "v": 100
    },
    {
      "midi": 47,
      "hit": false,
      "t": 195000,
      "d": 1500,
      "v": 100
    },
    {
      "midi": 78,
      "hit": false,
      "t": 195000,
      "d": 750,
      "v": 100
    },
    {
      "midi": 86,
      "hit": false,
      "t": 195000,
      "d": 750,
      "v": 100
    },
    {
      "midi": 47,
      "hit": false,
      "t": 195000,
      "d": 750,
      "v": 100
    },
    {
      "midi": 35,
      "hit": false,
      "t": 195000,
      "d": 1500,
      "v": 100
    },
    {
      "midi": 66,
      "hit": false,
      "t": 195750,
      "d": 750,
      "v": 100
    },
    {
      "midi": 74,
      "hit": false,
      "t": 195750,
      "d": 750,
      "v": 100
    },
    {
      "midi": 57,
      "hit": false,
      "t": 195750,
      "d": 375,
      "v": 100
    },
    {
      "midi": 78,
      "hit": false,
      "t": 195750,
      "d": 750,
      "v": 100
    },
    {
      "midi": 86,
      "hit": false,
      "t": 195750,
      "d": 750,
      "v": 100
    },
    {
      "midi": 45,
      "hit": false,
      "t": 195750,
      "d": 375,
      "v": 100
    },
    {
      "midi": 59,
      "hit": false,
      "t": 196125,
      "d": 375,
      "v": 100
    },
    {
      "midi": 47,
      "hit": false,
      "t": 196125,
      "d": 375,
      "v": 100
    },
    {
      "midi": 66,
      "hit": false,
      "t": 196500,
      "d": 750,
      "v": 100
    },
    {
      "midi": 69,
      "hit": false,
      "t": 196500,
      "d": 750,
      "v": 100
    },
    {
      "midi": 61,
      "hit": false,
      "t": 196500,
      "d": 750,
      "v": 100
    },
    {
      "midi": 54,
      "hit": false,
      "t": 196500,
      "d": 1500,
      "v": 100
    },
    {
      "midi": 78,
      "hit": false,
      "t": 196500,
      "d": 750,
      "v": 100
    },
    {
      "midi": 81,
      "hit": false,
      "t": 196500,
      "d": 750,
      "v": 100
    },
    {
      "midi": 49,
      "hit": false,
      "t": 196500,
      "d": 750,
      "v": 100
    },
    {
      "midi": 42,
      "hit": false,
      "t": 196500,
      "d": 1500,
      "v": 100
    },
    {
      "midi": 69,
      "hit": false,
      "t": 197250,
      "d": 750,
      "v": 100
    },
    {
      "midi": 66,
      "hit": false,
      "t": 197250,
      "d": 375,
      "v": 100
    },
    {
      "midi": 81,
      "hit": false,
      "t": 197250,
      "d": 750,
      "v": 100
    },
    {
      "midi": 54,
      "hit": false,
      "t": 197250,
      "d": 375,
      "v": 100
    },
    {
      "midi": 64,
      "hit": false,
      "t": 197625,
      "d": 375,
      "v": 100
    },
    {
      "midi": 52,
      "hit": false,
      "t": 197625,
      "d": 375,
      "v": 100
    },
    {
      "midi": 62,
      "hit": false,
      "t": 198000,
      "d": 750,
      "v": 100
    },
    {
      "midi": 67,
      "hit": false,
      "t": 198000,
      "d": 750,
      "v": 100
    },
    {
      "midi": 71,
      "hit": false,
      "t": 198000,
      "d": 750,
      "v": 100
    },
    {
      "midi": 55,
      "hit": false,
      "t": 198000,
      "d": 1500,
      "v": 100
    },
    {
      "midi": 74,
      "hit": false,
      "t": 198000,
      "d": 750,
      "v": 100
    },
    {
      "midi": 79,
      "hit": false,
      "t": 198000,
      "d": 750,
      "v": 100
    },
    {
      "midi": 83,
      "hit": false,
      "t": 198000,
      "d": 750,
      "v": 100
    },
    {
      "midi": 43,
      "hit": false,
      "t": 198000,
      "d": 1500,
      "v": 100
    },
    {
      "midi": 64,
      "hit": false,
      "t": 198750,
      "d": 375,
      "v": 100
    },
    {
      "midi": 71,
      "hit": false,
      "t": 198750,
      "d": 750,
      "v": 100
    },
    {
      "midi": 76,
      "hit": false,
      "t": 198750,
      "d": 375,
      "v": 100
    },
    {
      "midi": 83,
      "hit": false,
      "t": 198750,
      "d": 750,
      "v": 100
    },
    {
      "midi": 67,
      "hit": false,
      "t": 199125,
      "d": 375,
      "v": 100
    },
    {
      "midi": 79,
      "hit": false,
      "t": 199125,
      "d": 375,
      "v": 100
    },
    {
      "midi": 66,
      "hit": false,
      "t": 199500,
      "d": 750,
      "v": 100
    },
    {
      "midi": 69,
      "hit": false,
      "t": 199500,
      "d": 750,
      "v": 100
    },
    {
      "midi": 74,
      "hit": false,
      "t": 199500,
      "d": 750,
      "v": 100
    },
    {
      "midi": 50,
      "hit": false,
      "t": 199500,
      "d": 1500,
      "v": 100
    },
    {
      "midi": 78,
      "hit": false,
      "t": 199500,
      "d": 750,
      "v": 100
    },
    {
      "midi": 81,
      "hit": false,
      "t": 199500,
      "d": 750,
      "v": 100
    },
    {
      "midi": 86,
      "hit": false,
      "t": 199500,
      "d": 750,
      "v": 100
    },
    {
      "midi": 38,
      "hit": false,
      "t": 199500,
      "d": 1500,
      "v": 100
    },
    {
      "midi": 57,
      "hit": false,
      "t": 200250,
      "d": 375,
      "v": 100
    },
    {
      "midi": 62,
      "hit": false,
      "t": 200250,
      "d": 750,
      "v": 100
    },
    {
      "midi": 69,
      "hit": false,
      "t": 200250,
      "d": 750,
      "v": 100
    },
    {
      "midi": 69,
      "hit": false,
      "t": 200250,
      "d": 375,
      "v": 100
    },
    {
      "midi": 74,
      "hit": false,
      "t": 200250,
      "d": 750,
      "v": 100
    },
    {
      "midi": 81,
      "hit": false,
      "t": 200250,
      "d": 750,
      "v": 100
    },
    {
      "midi": 66,
      "hit": false,
      "t": 200625,
      "d": 375,
      "v": 100
    },
    {
      "midi": 78,
      "hit": false,
      "t": 200625,
      "d": 375,
      "v": 100
    },
    {
      "midi": 62,
      "hit": false,
      "t": 201000,
      "d": 375,
      "v": 100
    },
    {
      "midi": 71,
      "hit": false,
      "t": 201000,
      "d": 750,
      "v": 100
    },
    {
      "midi": 43,
      "hit": false,
      "t": 201000,
      "d": 1500,
      "v": 100
    },
    {
      "midi": 74,
      "hit": false,
      "t": 201000,
      "d": 375,
      "v": 100
    },
    {
      "midi": 83,
      "hit": false,
      "t": 201000,
      "d": 750,
      "v": 100
    },
    {
      "midi": 31,
      "hit": false,
      "t": 201000,
      "d": 1500,
      "v": 100
    },
    {
      "midi": 67,
      "hit": false,
      "t": 201375,
      "d": 375,
      "v": 100
    },
    {
      "midi": 79,
      "hit": false,
      "t": 201375,
      "d": 375,
      "v": 100
    },
    {
      "midi": 66,
      "hit": false,
      "t": 201750,
      "d": 375,
      "v": 100
    },
    {
      "midi": 71,
      "hit": false,
      "t": 201750,
      "d": 750,
      "v": 100
    },
    {
      "midi": 78,
      "hit": false,
      "t": 201750,
      "d": 375,
      "v": 100
    },
    {
      "midi": 83,
      "hit": false,
      "t": 201750,
      "d": 750,
      "v": 100
    },
    {
      "midi": 67,
      "hit": false,
      "t": 202125,
      "d": 375,
      "v": 100
    },
    {
      "midi": 79,
      "hit": false,
      "t": 202125,
      "d": 375,
      "v": 100
    },
    {
      "midi": 64,
      "hit": false,
      "t": 202500,
      "d": 375,
      "v": 100
    },
    {
      "midi": 69,
      "hit": false,
      "t": 202500,
      "d": 750,
      "v": 100
    },
    {
      "midi": 73,
      "hit": false,
      "t": 202500,
      "d": 750,
      "v": 100
    },
    {
      "midi": 45,
      "hit": false,
      "t": 202500,
      "d": 1500,
      "v": 100
    },
    {
      "midi": 76,
      "hit": false,
      "t": 202500,
      "d": 375,
      "v": 100
    },
    {
      "midi": 81,
      "hit": false,
      "t": 202500,
      "d": 750,
      "v": 100
    },
    {
      "midi": 85,
      "hit": false,
      "t": 202500,
      "d": 750,
      "v": 100
    },
    {
      "midi": 33,
      "hit": false,
      "t": 202500,
      "d": 1500,
      "v": 100
    },
    {
      "midi": 57,
      "hit": false,
      "t": 202875,
      "d": 375,
      "v": 100
    },
    {
      "midi": 69,
      "hit": false,
      "t": 202875,
      "d": 375,
      "v": 100
    },
    {
      "midi": 55,
      "hit": false,
      "t": 203250,
      "d": 375,
      "v": 100
    },
    {
      "midi": 73,
      "hit": false,
      "t": 203250,
      "d": 750,
      "v": 100
    },
    {
      "midi": 76,
      "hit": false,
      "t": 203250,
      "d": 750,
      "v": 100
    },
    {
      "midi": 67,
      "hit": false,
      "t": 203250,
      "d": 375,
      "v": 100
    },
    {
      "midi": 85,
      "hit": false,
      "t": 203250,
      "d": 750,
      "v": 100
    },
    {
      "midi": 88,
      "hit": false,
      "t": 203250,
      "d": 750,
      "v": 100
    },
    {
      "midi": 57,
      "hit": false,
      "t": 203625,
      "d": 375,
      "v": 100
    },
    {
      "midi": 69,
      "hit": false,
      "t": 203625,
      "d": 375,
      "v": 100
    },
    {
      "midi": 74,
      "hit": false,
      "t": 204000,
      "d": 375,
      "v": 100
    },
    {
      "midi": 54,
      "hit": false,
      "t": 204000,
      "d": 750,
      "v": 100
    },
    {
      "midi": 57,
      "hit": false,
      "t": 204000,
      "d": 750,
      "v": 100
    },
    {
      "midi": 50,
      "hit": false,
      "t": 204000,
      "d": 1500,
      "v": 100
    },
    {
      "midi": 86,
      "hit": false,
      "t": 204000,
      "d": 375,
      "v": 100
    },
    {
      "midi": 42,
      "hit": false,
      "t": 204000,
      "d": 750,
      "v": 100
    },
    {
      "midi": 45,
      "hit": false,
      "t": 204000,
      "d": 750,
      "v": 100
    },
    {
      "midi": 38,
      "hit": false,
      "t": 204000,
      "d": 1500,
      "v": 100
    },
    {
      "midi": 62,
      "hit": false,
      "t": 204375,
      "d": 187.5,
      "v": 100
    },
    {
      "midi": 74,
      "hit": false,
      "t": 204375,
      "d": 187.5,
      "v": 100
    },
    {
      "midi": 64,
      "hit": false,
      "t": 204562.5,
      "d": 187.5,
      "v": 100
    },
    {
      "midi": 76,
      "hit": false,
      "t": 204562.5,
      "d": 187.5,
      "v": 100
    },
    {
      "midi": 66,
      "hit": false,
      "t": 204750,
      "d": 375,
      "v": 100
    },
    {
      "midi": 54,
      "hit": false,
      "t": 204750,
      "d": 750,
      "v": 100
    },
    {
      "midi": 57,
      "hit": false,
      "t": 204750,
      "d": 750,
      "v": 100
    },
    {
      "midi": 78,
      "hit": false,
      "t": 204750,
      "d": 375,
      "v": 100
    },
    {
      "midi": 42,
      "hit": false,
      "t": 204750,
      "d": 750,
      "v": 100
    },
    {
      "midi": 45,
      "hit": false,
      "t": 204750,
      "d": 750,
      "v": 100
    },
    {
      "midi": 62,
      "hit": false,
      "t": 205125,
      "d": 375,
      "v": 100
    },
    {
      "midi": 74,
      "hit": false,
      "t": 205125,
      "d": 375,
      "v": 100
    },
    {
      "midi": 61,
      "hit": false,
      "t": 205500,
      "d": 375,
      "v": 100
    },
    {
      "midi": 52,
      "hit": false,
      "t": 205500,
      "d": 750,
      "v": 100
    },
    {
      "midi": 57,
      "hit": false,
      "t": 205500,
      "d": 750,
      "v": 100
    },
    {
      "midi": 45,
      "hit": false,
      "t": 205500,
      "d": 1500,
      "v": 100
    },
    {
      "midi": 73,
      "hit": false,
      "t": 205500,
      "d": 375,
      "v": 100
    },
    {
      "midi": 40,
      "hit": false,
      "t": 205500,
      "d": 750,
      "v": 100
    },
    {
      "midi": 45,
      "hit": false,
      "t": 205500,
      "d": 750,
      "v": 100
    },
    {
      "midi": 33,
      "hit": false,
      "t": 205500,
      "d": 1500,
      "v": 100
    },
    {
      "midi": 73,
      "hit": false,
      "t": 205875,
      "d": 187.5,
      "v": 100
    },
    {
      "midi": 85,
      "hit": false,
      "t": 205875,
      "d": 187.5,
      "v": 100
    },
    {
      "midi": 74,
      "hit": false,
      "t": 206062.5,
      "d": 187.5,
      "v": 100
    },
    {
      "midi": 86,
      "hit": false,
      "t": 206062.5,
      "d": 187.5,
      "v": 100
    },
    {
      "midi": 76,
      "hit": false,
      "t": 206250,
      "d": 375,
      "v": 100
    },
    {
      "midi": 52,
      "hit": false,
      "t": 206250,
      "d": 750,
      "v": 100
    },
    {
      "midi": 57,
      "hit": false,
      "t": 206250,
      "d": 750,
      "v": 100
    },
    {
      "midi": 88,
      "hit": false,
      "t": 206250,
      "d": 375,
      "v": 100
    },
    {
      "midi": 40,
      "hit": false,
      "t": 206250,
      "d": 750,
      "v": 100
    },
    {
      "midi": 45,
      "hit": false,
      "t": 206250,
      "d": 750,
      "v": 100
    },
    {
      "midi": 73,
      "hit": false,
      "t": 206625,
      "d": 375,
      "v": 100
    },
    {
      "midi": 85,
      "hit": false,
      "t": 206625,
      "d": 375,
      "v": 100
    },
    {
      "midi": 74,
      "hit": false,
      "t": 207000,
      "d": 375,
      "v": 100
    },
    {
      "midi": 50,
      "hit": false,
      "t": 207000,
      "d": 750,
      "v": 100
    },
    {
      "midi": 54,
      "hit": false,
      "t": 207000,
      "d": 750,
      "v": 100
    },
    {
      "midi": 47,
      "hit": false,
      "t": 207000,
      "d": 1500,
      "v": 100
    },
    {
      "midi": 86,
      "hit": false,
      "t": 207000,
      "d": 375,
      "v": 100
    },
    {
      "midi": 38,
      "hit": false,
      "t": 207000,
      "d": 750,
      "v": 100
    },
    {
      "midi": 42,
      "hit": false,
      "t": 207000,
      "d": 750,
      "v": 100
    },
    {
      "midi": 35,
      "hit": false,
      "t": 207000,
      "d": 1500,
      "v": 100
    },
    {
      "midi": 59,
      "hit": false,
      "t": 207375,
      "d": 187.5,
      "v": 100
    },
    {
      "midi": 71,
      "hit": false,
      "t": 207375,
      "d": 187.5,
      "v": 100
    },
    {
      "midi": 61,
      "hit": false,
      "t": 207562.5,
      "d": 187.5,
      "v": 100
    },
    {
      "midi": 73,
      "hit": false,
      "t": 207562.5,
      "d": 187.5,
      "v": 100
    },
    {
      "midi": 62,
      "hit": false,
      "t": 207750,
      "d": 375,
      "v": 100
    },
    {
      "midi": 50,
      "hit": false,
      "t": 207750,
      "d": 750,
      "v": 100
    },
    {
      "midi": 54,
      "hit": false,
      "t": 207750,
      "d": 750,
      "v": 100
    },
    {
      "midi": 74,
      "hit": false,
      "t": 207750,
      "d": 375,
      "v": 100
    },
    {
      "midi": 38,
      "hit": false,
      "t": 207750,
      "d": 750,
      "v": 100
    },
    {
      "midi": 42,
      "hit": false,
      "t": 207750,
      "d": 750,
      "v": 100
    },
    {
      "midi": 59,
      "hit": false,
      "t": 208125,
      "d": 375,
      "v": 100
    },
    {
      "midi": 71,
      "hit": false,
      "t": 208125,
      "d": 375,
      "v": 100
    },
    {
      "midi": 61,
      "hit": false,
      "t": 208500,
      "d": 375,
      "v": 100
    },
    {
      "midi": 57,
      "hit": false,
      "t": 208500,
      "d": 750,
      "v": 100
    },
    {
      "midi": 54,
      "hit": false,
      "t": 208500,
      "d": 1500,
      "v": 100
    },
    {
      "midi": 73,
      "hit": false,
      "t": 208500,
      "d": 375,
      "v": 100
    },
    {
      "midi": 45,
      "hit": false,
      "t": 208500,
      "d": 750,
      "v": 100
    },
    {
      "midi": 42,
      "hit": false,
      "t": 208500,
      "d": 1500,
      "v": 100
    },
    {
      "midi": 69,
      "hit": false,
      "t": 208875,
      "d": 187.5,
      "v": 100
    },
    {
      "midi": 81,
      "hit": false,
      "t": 208875,
      "d": 187.5,
      "v": 100
    },
    {
      "midi": 67,
      "hit": false,
      "t": 209062.5,
      "d": 187.5,
      "v": 100
    },
    {
      "midi": 79,
      "hit": false,
      "t": 209062.5,
      "d": 187.5,
      "v": 100
    },
    {
      "midi": 66,
      "hit": false,
      "t": 209250,
      "d": 375,
      "v": 100
    },
    {
      "midi": 57,
      "hit": false,
      "t": 209250,
      "d": 750,
      "v": 100
    },
    {
      "midi": 78,
      "hit": false,
      "t": 209250,
      "d": 375,
      "v": 100
    },
    {
      "midi": 45,
      "hit": false,
      "t": 209250,
      "d": 750,
      "v": 100
    },
    {
      "midi": 64,
      "hit": false,
      "t": 209625,
      "d": 375,
      "v": 100
    },
    {
      "midi": 76,
      "hit": false,
      "t": 209625,
      "d": 375,
      "v": 100
    },
    {
      "midi": 62,
      "hit": false,
      "t": 210000,
      "d": 375,
      "v": 100
    },
    {
      "midi": 59,
      "hit": false,
      "t": 210000,
      "d": 750,
      "v": 100
    },
    {
      "midi": 55,
      "hit": false,
      "t": 210000,
      "d": 1500,
      "v": 100
    },
    {
      "midi": 74,
      "hit": false,
      "t": 210000,
      "d": 375,
      "v": 100
    },
    {
      "midi": 47,
      "hit": false,
      "t": 210000,
      "d": 750,
      "v": 100
    },
    {
      "midi": 43,
      "hit": false,
      "t": 210000,
      "d": 1500,
      "v": 100
    },
    {
      "midi": 67,
      "hit": false,
      "t": 210375,
      "d": 187.5,
      "v": 100
    },
    {
      "midi": 79,
      "hit": false,
      "t": 210375,
      "d": 187.5,
      "v": 100
    },
    {
      "midi": 66,
      "hit": false,
      "t": 210562.5,
      "d": 187.5,
      "v": 100
    },
    {
      "midi": 78,
      "hit": false,
      "t": 210562.5,
      "d": 187.5,
      "v": 100
    },
    {
      "midi": 64,
      "hit": false,
      "t": 210750,
      "d": 375,
      "v": 100
    },
    {
      "midi": 59,
      "hit": false,
      "t": 210750,
      "d": 750,
      "v": 100
    },
    {
      "midi": 76,
      "hit": false,
      "t": 210750,
      "d": 375,
      "v": 100
    },
    {
      "midi": 47,
      "hit": false,
      "t": 210750,
      "d": 750,
      "v": 100
    },
    {
      "midi": 67,
      "hit": false,
      "t": 211125,
      "d": 375,
      "v": 100
    },
    {
      "midi": 79,
      "hit": false,
      "t": 211125,
      "d": 375,
      "v": 100
    },
    {
      "midi": 66,
      "hit": false,
      "t": 211500,
      "d": 375,
      "v": 100
    },
    {
      "midi": 57,
      "hit": false,
      "t": 211500,
      "d": 750,
      "v": 100
    },
    {
      "midi": 50,
      "hit": false,
      "t": 211500,
      "d": 1500,
      "v": 100
    },
    {
      "midi": 78,
      "hit": false,
      "t": 211500,
      "d": 375,
      "v": 100
    },
    {
      "midi": 45,
      "hit": false,
      "t": 211500,
      "d": 750,
      "v": 100
    },
    {
      "midi": 38,
      "hit": false,
      "t": 211500,
      "d": 1500,
      "v": 100
    },
    {
      "midi": 62,
      "hit": false,
      "t": 211875,
      "d": 187.5,
      "v": 100
    },
    {
      "midi": 74,
      "hit": false,
      "t": 211875,
      "d": 187.5,
      "v": 100
    },
    {
      "midi": 64,
      "hit": false,
      "t": 212062.5,
      "d": 187.5,
      "v": 100
    },
    {
      "midi": 76,
      "hit": false,
      "t": 212062.5,
      "d": 187.5,
      "v": 100
    },
    {
      "midi": 66,
      "hit": false,
      "t": 212250,
      "d": 375,
      "v": 100
    },
    {
      "midi": 57,
      "hit": false,
      "t": 212250,
      "d": 750,
      "v": 100
    },
    {
      "midi": 78,
      "hit": false,
      "t": 212250,
      "d": 375,
      "v": 100
    },
    {
      "midi": 45,
      "hit": false,
      "t": 212250,
      "d": 750,
      "v": 100
    },
    {
      "midi": 69,
      "hit": false,
      "t": 212625,
      "d": 375,
      "v": 100
    },
    {
      "midi": 81,
      "hit": false,
      "t": 212625,
      "d": 375,
      "v": 100
    },
    {
      "midi": 67,
      "hit": false,
      "t": 213000,
      "d": 375,
      "v": 100
    },
    {
      "midi": 59,
      "hit": false,
      "t": 213000,
      "d": 750,
      "v": 100
    },
    {
      "midi": 62,
      "hit": false,
      "t": 213000,
      "d": 750,
      "v": 100
    },
    {
      "midi": 43,
      "hit": false,
      "t": 213000,
      "d": 1500,
      "v": 100
    },
    {
      "midi": 79,
      "hit": false,
      "t": 213000,
      "d": 375,
      "v": 100
    },
    {
      "midi": 71,
      "hit": false,
      "t": 213000,
      "d": 750,
      "v": 100
    },
    {
      "midi": 74,
      "hit": false,
      "t": 213000,
      "d": 750,
      "v": 100
    },
    {
      "midi": 31,
      "hit": false,
      "t": 213000,
      "d": 1500,
      "v": 100
    },
    {
      "midi": 71,
      "hit": false,
      "t": 213375,
      "d": 187.5,
      "v": 100
    },
    {
      "midi": 83,
      "hit": false,
      "t": 213375,
      "d": 187.5,
      "v": 100
    },
    {
      "midi": 69,
      "hit": false,
      "t": 213562.5,
      "d": 187.5,
      "v": 100
    },
    {
      "midi": 81,
      "hit": false,
      "t": 213562.5,
      "d": 187.5,
      "v": 100
    },
    {
      "midi": 67,
      "hit": false,
      "t": 213750,
      "d": 375,
      "v": 100
    },
    {
      "midi": 59,
      "hit": false,
      "t": 213750,
      "d": 750,
      "v": 100
    },
    {
      "midi": 62,
      "hit": false,
      "t": 213750,
      "d": 750,
      "v": 100
    },
    {
      "midi": 79,
      "hit": false,
      "t": 213750,
      "d": 375,
      "v": 100
    },
    {
      "midi": 71,
      "hit": false,
      "t": 213750,
      "d": 750,
      "v": 100
    },
    {
      "midi": 74,
      "hit": false,
      "t": 213750,
      "d": 750,
      "v": 100
    },
    {
      "midi": 66,
      "hit": false,
      "t": 214125,
      "d": 375,
      "v": 100
    },
    {
      "midi": 78,
      "hit": false,
      "t": 214125,
      "d": 375,
      "v": 100
    },
    {
      "midi": 64,
      "hit": false,
      "t": 214500,
      "d": 375,
      "v": 100
    },
    {
      "midi": 57,
      "hit": false,
      "t": 214500,
      "d": 750,
      "v": 100
    },
    {
      "midi": 61,
      "hit": false,
      "t": 214500,
      "d": 750,
      "v": 100
    },
    {
      "midi": 45,
      "hit": false,
      "t": 214500,
      "d": 1500,
      "v": 100
    },
    {
      "midi": 76,
      "hit": false,
      "t": 214500,
      "d": 375,
      "v": 100
    },
    {
      "midi": 69,
      "hit": false,
      "t": 214500,
      "d": 750,
      "v": 100
    },
    {
      "midi": 73,
      "hit": false,
      "t": 214500,
      "d": 750,
      "v": 100
    },
    {
      "midi": 33,
      "hit": false,
      "t": 214500,
      "d": 1500,
      "v": 100
    },
    {
      "midi": 69,
      "hit": false,
      "t": 214875,
      "d": 187.5,
      "v": 100
    },
    {
      "midi": 81,
      "hit": false,
      "t": 214875,
      "d": 187.5,
      "v": 100
    },
    {
      "midi": 67,
      "hit": false,
      "t": 215062.5,
      "d": 187.5,
      "v": 100
    },
    {
      "midi": 79,
      "hit": false,
      "t": 215062.5,
      "d": 187.5,
      "v": 100
    },
    {
      "midi": 66,
      "hit": false,
      "t": 215250,
      "d": 375,
      "v": 100
    },
    {
      "midi": 57,
      "hit": false,
      "t": 215250,
      "d": 750,
      "v": 100
    },
    {
      "midi": 61,
      "hit": false,
      "t": 215250,
      "d": 750,
      "v": 100
    },
    {
      "midi": 78,
      "hit": false,
      "t": 215250,
      "d": 375,
      "v": 100
    },
    {
      "midi": 69,
      "hit": false,
      "t": 215250,
      "d": 750,
      "v": 100
    },
    {
      "midi": 73,
      "hit": false,
      "t": 215250,
      "d": 750,
      "v": 100
    },
    {
      "midi": 64,
      "hit": false,
      "t": 215625,
      "d": 375,
      "v": 100
    },
    {
      "midi": 76,
      "hit": false,
      "t": 215625,
      "d": 375,
      "v": 100
    },
    {
      "midi": 66,
      "hit": false,
      "t": 216000,
      "d": 375,
      "v": 100
    },
    {
      "midi": 74,
      "hit": false,
      "t": 216000,
      "d": 375,
      "v": 100
    },
    {
      "midi": 57,
      "hit": false,
      "t": 216000,
      "d": 750,
      "v": 100
    },
    {
      "midi": 50,
      "hit": false,
      "t": 216000,
      "d": 1500,
      "v": 100
    },
    {
      "midi": 78,
      "hit": false,
      "t": 216000,
      "d": 375,
      "v": 100
    },
    {
      "midi": 86,
      "hit": false,
      "t": 216000,
      "d": 375,
      "v": 100
    },
    {
      "midi": 45,
      "hit": false,
      "t": 216000,
      "d": 750,
      "v": 100
    },
    {
      "midi": 38,
      "hit": false,
      "t": 216000,
      "d": 1500,
      "v": 100
    },
    {
      "midi": 74,
      "hit": false,
      "t": 216375,
      "d": 187.5,
      "v": 100
    },
    {
      "midi": 78,
      "hit": false,
      "t": 216375,
      "d": 187.5,
      "v": 100
    },
    {
      "midi": 86,
      "hit": false,
      "t": 216375,
      "d": 187.5,
      "v": 100
    },
    {
      "midi": 90,
      "hit": false,
      "t": 216375,
      "d": 187.5,
      "v": 100
    },
    {
      "midi": 73,
      "hit": false,
      "t": 216562.5,
      "d": 187.5,
      "v": 100
    },
    {
      "midi": 76,
      "hit": false,
      "t": 216562.5,
      "d": 187.5,
      "v": 100
    },
    {
      "midi": 85,
      "hit": false,
      "t": 216562.5,
      "d": 187.5,
      "v": 100
    },
    {
      "midi": 88,
      "hit": false,
      "t": 216562.5,
      "d": 187.5,
      "v": 100
    },
    {
      "midi": 74,
      "hit": false,
      "t": 216750,
      "d": 375,
      "v": 100
    },
    {
      "midi": 78,
      "hit": false,
      "t": 216750,
      "d": 375,
      "v": 100
    },
    {
      "midi": 57,
      "hit": false,
      "t": 216750,
      "d": 750,
      "v": 100
    },
    {
      "midi": 86,
      "hit": false,
      "t": 216750,
      "d": 375,
      "v": 100
    },
    {
      "midi": 90,
      "hit": false,
      "t": 216750,
      "d": 375,
      "v": 100
    },
    {
      "midi": 45,
      "hit": false,
      "t": 216750,
      "d": 750,
      "v": 100
    },
    {
      "midi": 74,
      "hit": false,
      "t": 217125,
      "d": 375,
      "v": 100
    },
    {
      "midi": 78,
      "hit": false,
      "t": 217125,
      "d": 375,
      "v": 100
    },
    {
      "midi": 86,
      "hit": false,
      "t": 217125,
      "d": 375,
      "v": 100
    },
    {
      "midi": 90,
      "hit": false,
      "t": 217125,
      "d": 375,
      "v": 100
    },
    {
      "midi": 73,
      "hit": false,
      "t": 217500,
      "d": 375,
      "v": 100
    },
    {
      "midi": 76,
      "hit": false,
      "t": 217500,
      "d": 375,
      "v": 100
    },
    {
      "midi": 52,
      "hit": false,
      "t": 217500,
      "d": 750,
      "v": 100
    },
    {
      "midi": 45,
      "hit": false,
      "t": 217500,
      "d": 1500,
      "v": 100
    },
    {
      "midi": 85,
      "hit": false,
      "t": 217500,
      "d": 375,
      "v": 100
    },
    {
      "midi": 88,
      "hit": false,
      "t": 217500,
      "d": 375,
      "v": 100
    },
    {
      "midi": 40,
      "hit": false,
      "t": 217500,
      "d": 750,
      "v": 100
    },
    {
      "midi": 33,
      "hit": false,
      "t": 217500,
      "d": 1500,
      "v": 100
    },
    {
      "midi": 69,
      "hit": false,
      "t": 217875,
      "d": 187.5,
      "v": 100
    },
    {
      "midi": 73,
      "hit": false,
      "t": 217875,
      "d": 187.5,
      "v": 100
    },
    {
      "midi": 81,
      "hit": false,
      "t": 217875,
      "d": 187.5,
      "v": 100
    },
    {
      "midi": 85,
      "hit": false,
      "t": 217875,
      "d": 187.5,
      "v": 100
    },
    {
      "midi": 71,
      "hit": false,
      "t": 218062.5,
      "d": 187.5,
      "v": 100
    },
    {
      "midi": 74,
      "hit": false,
      "t": 218062.5,
      "d": 187.5,
      "v": 100
    },
    {
      "midi": 83,
      "hit": false,
      "t": 218062.5,
      "d": 187.5,
      "v": 100
    },
    {
      "midi": 86,
      "hit": false,
      "t": 218062.5,
      "d": 187.5,
      "v": 100
    },
    {
      "midi": 73,
      "hit": false,
      "t": 218250,
      "d": 375,
      "v": 100
    },
    {
      "midi": 76,
      "hit": false,
      "t": 218250,
      "d": 375,
      "v": 100
    },
    {
      "midi": 52,
      "hit": false,
      "t": 218250,
      "d": 750,
      "v": 100
    },
    {
      "midi": 85,
      "hit": false,
      "t": 218250,
      "d": 375,
      "v": 100
    },
    {
      "midi": 88,
      "hit": false,
      "t": 218250,
      "d": 375,
      "v": 100
    },
    {
      "midi": 40,
      "hit": false,
      "t": 218250,
      "d": 750,
      "v": 100
    },
    {
      "midi": 69,
      "hit": false,
      "t": 218625,
      "d": 375,
      "v": 100
    },
    {
      "midi": 73,
      "hit": false,
      "t": 218625,
      "d": 375,
      "v": 100
    },
    {
      "midi": 81,
      "hit": false,
      "t": 218625,
      "d": 375,
      "v": 100
    },
    {
      "midi": 85,
      "hit": false,
      "t": 218625,
      "d": 375,
      "v": 100
    },
    {
      "midi": 66,
      "hit": false,
      "t": 219000,
      "d": 375,
      "v": 100
    },
    {
      "midi": 71,
      "hit": false,
      "t": 219000,
      "d": 375,
      "v": 100
    },
    {
      "midi": 50,
      "hit": false,
      "t": 219000,
      "d": 750,
      "v": 100
    },
    {
      "midi": 47,
      "hit": false,
      "t": 219000,
      "d": 1500,
      "v": 100
    },
    {
      "midi": 78,
      "hit": false,
      "t": 219000,
      "d": 375,
      "v": 100
    },
    {
      "midi": 83,
      "hit": false,
      "t": 219000,
      "d": 375,
      "v": 100
    },
    {
      "midi": 38,
      "hit": false,
      "t": 219000,
      "d": 750,
      "v": 100
    },
    {
      "midi": 35,
      "hit": false,
      "t": 219000,
      "d": 1500,
      "v": 100
    },
    {
      "midi": 71,
      "hit": false,
      "t": 219375,
      "d": 187.5,
      "v": 100
    },
    {
      "midi": 74,
      "hit": false,
      "t": 219375,
      "d": 187.5,
      "v": 100
    },
    {
      "midi": 83,
      "hit": false,
      "t": 219375,
      "d": 187.5,
      "v": 100
    },
    {
      "midi": 86,
      "hit": false,
      "t": 219375,
      "d": 187.5,
      "v": 100
    },
    {
      "midi": 73,
      "hit": false,
      "t": 219562.5,
      "d": 187.5,
      "v": 100
    },
    {
      "midi": 76,
      "hit": false,
      "t": 219562.5,
      "d": 187.5,
      "v": 100
    },
    {
      "midi": 85,
      "hit": false,
      "t": 219562.5,
      "d": 187.5,
      "v": 100
    },
    {
      "midi": 88,
      "hit": false,
      "t": 219562.5,
      "d": 187.5,
      "v": 100
    },
    {
      "midi": 74,
      "hit": false,
      "t": 219750,
      "d": 375,
      "v": 100
    },
    {
      "midi": 78,
      "hit": false,
      "t": 219750,
      "d": 375,
      "v": 100
    },
    {
      "midi": 50,
      "hit": false,
      "t": 219750,
      "d": 750,
      "v": 100
    },
    {
      "midi": 86,
      "hit": false,
      "t": 219750,
      "d": 375,
      "v": 100
    },
    {
      "midi": 90,
      "hit": false,
      "t": 219750,
      "d": 375,
      "v": 100
    },
    {
      "midi": 38,
      "hit": false,
      "t": 219750,
      "d": 750,
      "v": 100
    },
    {
      "midi": 71,
      "hit": false,
      "t": 220125,
      "d": 375,
      "v": 100
    },
    {
      "midi": 74,
      "hit": false,
      "t": 220125,
      "d": 375,
      "v": 100
    },
    {
      "midi": 83,
      "hit": false,
      "t": 220125,
      "d": 375,
      "v": 100
    },
    {
      "midi": 86,
      "hit": false,
      "t": 220125,
      "d": 375,
      "v": 100
    },
    {
      "midi": 73,
      "hit": false,
      "t": 220500,
      "d": 375,
      "v": 100
    },
    {
      "midi": 78,
      "hit": false,
      "t": 220500,
      "d": 375,
      "v": 100
    },
    {
      "midi": 57,
      "hit": false,
      "t": 220500,
      "d": 750,
      "v": 100
    },
    {
      "midi": 54,
      "hit": false,
      "t": 220500,
      "d": 1500,
      "v": 100
    },
    {
      "midi": 85,
      "hit": false,
      "t": 220500,
      "d": 375,
      "v": 100
    },
    {
      "midi": 90,
      "hit": false,
      "t": 220500,
      "d": 375,
      "v": 100
    },
    {
      "midi": 45,
      "hit": false,
      "t": 220500,
      "d": 750,
      "v": 100
    },
    {
      "midi": 42,
      "hit": false,
      "t": 220500,
      "d": 1500,
      "v": 100
    },
    {
      "midi": 69,
      "hit": false,
      "t": 220875,
      "d": 187.5,
      "v": 100
    },
    {
      "midi": 78,
      "hit": false,
      "t": 220875,
      "d": 187.5,
      "v": 100
    },
    {
      "midi": 81,
      "hit": false,
      "t": 220875,
      "d": 187.5,
      "v": 100
    },
    {
      "midi": 90,
      "hit": false,
      "t": 220875,
      "d": 187.5,
      "v": 100
    },
    {
      "midi": 67,
      "hit": false,
      "t": 221062.5,
      "d": 187.5,
      "v": 100
    },
    {
      "midi": 76,
      "hit": false,
      "t": 221062.5,
      "d": 187.5,
      "v": 100
    },
    {
      "midi": 79,
      "hit": false,
      "t": 221062.5,
      "d": 187.5,
      "v": 100
    },
    {
      "midi": 88,
      "hit": false,
      "t": 221062.5,
      "d": 187.5,
      "v": 100
    },
    {
      "midi": 66,
      "hit": false,
      "t": 221250,
      "d": 375,
      "v": 100
    },
    {
      "midi": 76,
      "hit": false,
      "t": 221250,
      "d": 375,
      "v": 100
    },
    {
      "midi": 57,
      "hit": false,
      "t": 221250,
      "d": 750,
      "v": 100
    },
    {
      "midi": 78,
      "hit": false,
      "t": 221250,
      "d": 375,
      "v": 100
    },
    {
      "midi": 88,
      "hit": false,
      "t": 221250,
      "d": 375,
      "v": 100
    },
    {
      "midi": 45,
      "hit": false,
      "t": 221250,
      "d": 750,
      "v": 100
    },
    {
      "midi": 64,
      "hit": false,
      "t": 221625,
      "d": 375,
      "v": 100
    },
    {
      "midi": 73,
      "hit": false,
      "t": 221625,
      "d": 375,
      "v": 100
    },
    {
      "midi": 76,
      "hit": false,
      "t": 221625,
      "d": 375,
      "v": 100
    },
    {
      "midi": 85,
      "hit": false,
      "t": 221625,
      "d": 375,
      "v": 100
    },
    {
      "midi": 62,
      "hit": false,
      "t": 222000,
      "d": 375,
      "v": 100
    },
    {
      "midi": 71,
      "hit": false,
      "t": 222000,
      "d": 375,
      "v": 100
    },
    {
      "midi": 59,
      "hit": false,
      "t": 222000,
      "d": 750,
      "v": 100
    },
    {
      "midi": 55,
      "hit": false,
      "t": 222000,
      "d": 1500,
      "v": 100
    },
    {
      "midi": 74,
      "hit": false,
      "t": 222000,
      "d": 375,
      "v": 100
    },
    {
      "midi": 83,
      "hit": false,
      "t": 222000,
      "d": 375,
      "v": 100
    },
    {
      "midi": 47,
      "hit": false,
      "t": 222000,
      "d": 750,
      "v": 100
    },
    {
      "midi": 43,
      "hit": false,
      "t": 222000,
      "d": 1500,
      "v": 100
    },
    {
      "midi": 67,
      "hit": false,
      "t": 222375,
      "d": 187.5,
      "v": 100
    },
    {
      "midi": 71,
      "hit": false,
      "t": 222375,
      "d": 187.5,
      "v": 100
    },
    {
      "midi": 79,
      "hit": false,
      "t": 222375,
      "d": 187.5,
      "v": 100
    },
    {
      "midi": 83,
      "hit": false,
      "t": 222375,
      "d": 187.5,
      "v": 100
    },
    {
      "midi": 66,
      "hit": false,
      "t": 222562.5,
      "d": 187.5,
      "v": 100
    },
    {
      "midi": 69,
      "hit": false,
      "t": 222562.5,
      "d": 187.5,
      "v": 100
    },
    {
      "midi": 78,
      "hit": false,
      "t": 222562.5,
      "d": 187.5,
      "v": 100
    },
    {
      "midi": 81,
      "hit": false,
      "t": 222562.5,
      "d": 187.5,
      "v": 100
    },
    {
      "midi": 64,
      "hit": false,
      "t": 222750,
      "d": 375,
      "v": 100
    },
    {
      "midi": 71,
      "hit": false,
      "t": 222750,
      "d": 375,
      "v": 100
    },
    {
      "midi": 59,
      "hit": false,
      "t": 222750,
      "d": 750,
      "v": 100
    },
    {
      "midi": 76,
      "hit": false,
      "t": 222750,
      "d": 375,
      "v": 100
    },
    {
      "midi": 83,
      "hit": false,
      "t": 222750,
      "d": 375,
      "v": 100
    },
    {
      "midi": 47,
      "hit": false,
      "t": 222750,
      "d": 750,
      "v": 100
    },
    {
      "midi": 67,
      "hit": false,
      "t": 223125,
      "d": 375,
      "v": 100
    },
    {
      "midi": 73,
      "hit": false,
      "t": 223125,
      "d": 375,
      "v": 100
    },
    {
      "midi": 79,
      "hit": false,
      "t": 223125,
      "d": 375,
      "v": 100
    },
    {
      "midi": 85,
      "hit": false,
      "t": 223125,
      "d": 375,
      "v": 100
    },
    {
      "midi": 66,
      "hit": false,
      "t": 223500,
      "d": 375,
      "v": 100
    },
    {
      "midi": 74,
      "hit": false,
      "t": 223500,
      "d": 375,
      "v": 100
    },
    {
      "midi": 57,
      "hit": false,
      "t": 223500,
      "d": 750,
      "v": 100
    },
    {
      "midi": 50,
      "hit": false,
      "t": 223500,
      "d": 1500,
      "v": 100
    },
    {
      "midi": 78,
      "hit": false,
      "t": 223500,
      "d": 375,
      "v": 100
    },
    {
      "midi": 86,
      "hit": false,
      "t": 223500,
      "d": 375,
      "v": 100
    },
    {
      "midi": 45,
      "hit": false,
      "t": 223500,
      "d": 750,
      "v": 100
    },
    {
      "midi": 38,
      "hit": false,
      "t": 223500,
      "d": 1500,
      "v": 100
    },
    {
      "midi": 74,
      "hit": false,
      "t": 223875,
      "d": 187.5,
      "v": 100
    },
    {
      "midi": 78,
      "hit": false,
      "t": 223875,
      "d": 187.5,
      "v": 100
    },
    {
      "midi": 86,
      "hit": false,
      "t": 223875,
      "d": 187.5,
      "v": 100
    },
    {
      "midi": 90,
      "hit": false,
      "t": 223875,
      "d": 187.5,
      "v": 100
    },
    {
      "midi": 76,
      "hit": false,
      "t": 224062.5,
      "d": 187.5,
      "v": 100
    },
    {
      "midi": 88,
      "hit": false,
      "t": 224062.5,
      "d": 187.5,
      "v": 100
    },
    {
      "midi": 74,
      "hit": false,
      "t": 224250,
      "d": 375,
      "v": 100
    },
    {
      "midi": 78,
      "hit": false,
      "t": 224250,
      "d": 375,
      "v": 100
    },
    {
      "midi": 57,
      "hit": false,
      "t": 224250,
      "d": 750,
      "v": 100
    },
    {
      "midi": 86,
      "hit": false,
      "t": 224250,
      "d": 375,
      "v": 100
    },
    {
      "midi": 90,
      "hit": false,
      "t": 224250,
      "d": 375,
      "v": 100
    },
    {
      "midi": 45,
      "hit": false,
      "t": 224250,
      "d": 750,
      "v": 100
    },
    {
      "midi": 69,
      "hit": false,
      "t": 224625,
      "d": 375,
      "v": 100
    },
    {
      "midi": 78,
      "hit": false,
      "t": 224625,
      "d": 375,
      "v": 100
    },
    {
      "midi": 81,
      "hit": false,
      "t": 224625,
      "d": 375,
      "v": 100
    },
    {
      "midi": 90,
      "hit": false,
      "t": 224625,
      "d": 375,
      "v": 100
    },
    {
      "midi": 71,
      "hit": false,
      "t": 225000,
      "d": 375,
      "v": 100
    },
    {
      "midi": 79,
      "hit": false,
      "t": 225000,
      "d": 375,
      "v": 100
    },
    {
      "midi": 59,
      "hit": false,
      "t": 225000,
      "d": 750,
      "v": 100
    },
    {
      "midi": 55,
      "hit": false,
      "t": 225000,
      "d": 1500,
      "v": 100
    },
    {
      "midi": 83,
      "hit": false,
      "t": 225000,
      "d": 375,
      "v": 100
    },
    {
      "midi": 91,
      "hit": false,
      "t": 225000,
      "d": 375,
      "v": 100
    },
    {
      "midi": 47,
      "hit": false,
      "t": 225000,
      "d": 750,
      "v": 100
    },
    {
      "midi": 43,
      "hit": false,
      "t": 225000,
      "d": 1500,
      "v": 100
    },
    {
      "midi": 71,
      "hit": false,
      "t": 225375,
      "d": 187.5,
      "v": 100
    },
    {
      "midi": 74,
      "hit": false,
      "t": 225375,
      "d": 187.5,
      "v": 100
    },
    {
      "midi": 83,
      "hit": false,
      "t": 225375,
      "d": 187.5,
      "v": 100
    },
    {
      "midi": 86,
      "hit": false,
      "t": 225375,
      "d": 187.5,
      "v": 100
    },
    {
      "midi": 69,
      "hit": false,
      "t": 225562.5,
      "d": 187.5,
      "v": 100
    },
    {
      "midi": 73,
      "hit": false,
      "t": 225562.5,
      "d": 187.5,
      "v": 100
    },
    {
      "midi": 81,
      "hit": false,
      "t": 225562.5,
      "d": 187.5,
      "v": 100
    },
    {
      "midi": 85,
      "hit": false,
      "t": 225562.5,
      "d": 187.5,
      "v": 100
    },
    {
      "midi": 67,
      "hit": false,
      "t": 225750,
      "d": 375,
      "v": 100
    },
    {
      "midi": 71,
      "hit": false,
      "t": 225750,
      "d": 375,
      "v": 100
    },
    {
      "midi": 59,
      "hit": false,
      "t": 225750,
      "d": 750,
      "v": 100
    },
    {
      "midi": 79,
      "hit": false,
      "t": 225750,
      "d": 375,
      "v": 100
    },
    {
      "midi": 83,
      "hit": false,
      "t": 225750,
      "d": 375,
      "v": 100
    },
    {
      "midi": 47,
      "hit": false,
      "t": 225750,
      "d": 750,
      "v": 100
    },
    {
      "midi": 66,
      "hit": false,
      "t": 226125,
      "d": 375,
      "v": 100
    },
    {
      "midi": 71,
      "hit": false,
      "t": 226125,
      "d": 375,
      "v": 100
    },
    {
      "midi": 78,
      "hit": false,
      "t": 226125,
      "d": 375,
      "v": 100
    },
    {
      "midi": 83,
      "hit": false,
      "t": 226125,
      "d": 375,
      "v": 100
    },
    {
      "midi": 64,
      "hit": false,
      "t": 226500,
      "d": 375,
      "v": 100
    },
    {
      "midi": 69,
      "hit": false,
      "t": 226500,
      "d": 375,
      "v": 100
    },
    {
      "midi": 61,
      "hit": false,
      "t": 226500,
      "d": 750,
      "v": 100
    },
    {
      "midi": 57,
      "hit": false,
      "t": 226500,
      "d": 1500,
      "v": 100
    },
    {
      "midi": 76,
      "hit": false,
      "t": 226500,
      "d": 375,
      "v": 100
    },
    {
      "midi": 81,
      "hit": false,
      "t": 226500,
      "d": 375,
      "v": 100
    },
    {
      "midi": 49,
      "hit": false,
      "t": 226500,
      "d": 750,
      "v": 100
    },
    {
      "midi": 45,
      "hit": false,
      "t": 226500,
      "d": 1500,
      "v": 100
    },
    {
      "midi": 69,
      "hit": false,
      "t": 226875,
      "d": 187.5,
      "v": 100
    },
    {
      "midi": 81,
      "hit": false,
      "t": 226875,
      "d": 187.5,
      "v": 100
    },
    {
      "midi": 67,
      "hit": false,
      "t": 227062.5,
      "d": 187.5,
      "v": 100
    },
    {
      "midi": 79,
      "hit": false,
      "t": 227062.5,
      "d": 187.5,
      "v": 100
    },
    {
      "midi": 66,
      "hit": false,
      "t": 227250,
      "d": 375,
      "v": 100
    },
    {
      "midi": 69,
      "hit": false,
      "t": 227250,
      "d": 375,
      "v": 100
    },
    {
      "midi": 61,
      "hit": false,
      "t": 227250,
      "d": 750,
      "v": 100
    },
    {
      "midi": 78,
      "hit": false,
      "t": 227250,
      "d": 375,
      "v": 100
    },
    {
      "midi": 81,
      "hit": false,
      "t": 227250,
      "d": 375,
      "v": 100
    },
    {
      "midi": 49,
      "hit": false,
      "t": 227250,
      "d": 750,
      "v": 100
    },
    {
      "midi": 64,
      "hit": false,
      "t": 227625,
      "d": 375,
      "v": 100
    },
    {
      "midi": 69,
      "hit": false,
      "t": 227625,
      "d": 375,
      "v": 100
    },
    {
      "midi": 76,
      "hit": false,
      "t": 227625,
      "d": 375,
      "v": 100
    },
    {
      "midi": 81,
      "hit": false,
      "t": 227625,
      "d": 375,
      "v": 100
    },
    {
      "midi": 66,
      "hit": false,
      "t": 228000,
      "d": 375,
      "v": 100
    },
    {
      "midi": 74,
      "hit": false,
      "t": 228000,
      "d": 375,
      "v": 100
    },
    {
      "midi": 50,
      "hit": false,
      "t": 228000,
      "d": 1500,
      "v": 100
    },
    {
      "midi": 57,
      "hit": false,
      "t": 228000,
      "d": 2250,
      "v": 100
    },
    {
      "midi": 78,
      "hit": false,
      "t": 228000,
      "d": 375,
      "v": 100
    },
    {
      "midi": 86,
      "hit": false,
      "t": 228000,
      "d": 375,
      "v": 100
    },
    {
      "midi": 38,
      "hit": false,
      "t": 228000,
      "d": 1500,
      "v": 100
    },
    {
      "midi": 45,
      "hit": false,
      "t": 228000,
      "d": 2250,
      "v": 100
    },
    {
      "midi": 74,
      "hit": false,
      "t": 228375,
      "d": 187.5,
      "v": 100
    },
    {
      "midi": 86,
      "hit": false,
      "t": 228375,
      "d": 187.5,
      "v": 100
    },
    {
      "midi": 73,
      "hit": false,
      "t": 228562.5,
      "d": 187.5,
      "v": 100
    },
    {
      "midi": 76,
      "hit": false,
      "t": 228562.5,
      "d": 187.5,
      "v": 100
    },
    {
      "midi": 85,
      "hit": false,
      "t": 228562.5,
      "d": 187.5,
      "v": 100
    },
    {
      "midi": 88,
      "hit": false,
      "t": 228562.5,
      "d": 187.5,
      "v": 100
    },
    {
      "midi": 74,
      "hit": false,
      "t": 228750,
      "d": 375,
      "v": 100
    },
    {
      "midi": 78,
      "hit": false,
      "t": 228750,
      "d": 375,
      "v": 100
    },
    {
      "midi": 86,
      "hit": false,
      "t": 228750,
      "d": 375,
      "v": 100
    },
    {
      "midi": 90,
      "hit": false,
      "t": 228750,
      "d": 375,
      "v": 100
    },
    {
      "midi": 74,
      "hit": false,
      "t": 229125,
      "d": 375,
      "v": 100
    },
    {
      "midi": 78,
      "hit": false,
      "t": 229125,
      "d": 375,
      "v": 100
    },
    {
      "midi": 86,
      "hit": false,
      "t": 229125,
      "d": 375,
      "v": 100
    },
    {
      "midi": 90,
      "hit": false,
      "t": 229125,
      "d": 375,
      "v": 100
    },
    {
      "midi": 69,
      "hit": false,
      "t": 229500,
      "d": 375,
      "v": 100
    },
    {
      "midi": 73,
      "hit": false,
      "t": 229500,
      "d": 375,
      "v": 100
    },
    {
      "midi": 45,
      "hit": false,
      "t": 229500,
      "d": 1500,
      "v": 100
    },
    {
      "midi": 81,
      "hit": false,
      "t": 229500,
      "d": 375,
      "v": 100
    },
    {
      "midi": 85,
      "hit": false,
      "t": 229500,
      "d": 375,
      "v": 100
    },
    {
      "midi": 33,
      "hit": false,
      "t": 229500,
      "d": 1500,
      "v": 100
    },
    {
      "midi": 69,
      "hit": false,
      "t": 229875,
      "d": 187.5,
      "v": 100
    },
    {
      "midi": 73,
      "hit": false,
      "t": 229875,
      "d": 187.5,
      "v": 100
    },
    {
      "midi": 81,
      "hit": false,
      "t": 229875,
      "d": 187.5,
      "v": 100
    },
    {
      "midi": 85,
      "hit": false,
      "t": 229875,
      "d": 187.5,
      "v": 100
    },
    {
      "midi": 71,
      "hit": false,
      "t": 230062.5,
      "d": 187.5,
      "v": 100
    },
    {
      "midi": 74,
      "hit": false,
      "t": 230062.5,
      "d": 187.5,
      "v": 100
    },
    {
      "midi": 83,
      "hit": false,
      "t": 230062.5,
      "d": 187.5,
      "v": 100
    },
    {
      "midi": 86,
      "hit": false,
      "t": 230062.5,
      "d": 187.5,
      "v": 100
    },
    {
      "midi": 73,
      "hit": false,
      "t": 230250,
      "d": 375,
      "v": 100
    },
    {
      "midi": 76,
      "hit": false,
      "t": 230250,
      "d": 375,
      "v": 100
    },
    {
      "midi": 57,
      "hit": false,
      "t": 230250,
      "d": 750,
      "v": 100
    },
    {
      "midi": 85,
      "hit": false,
      "t": 230250,
      "d": 375,
      "v": 100
    },
    {
      "midi": 88,
      "hit": false,
      "t": 230250,
      "d": 375,
      "v": 100
    },
    {
      "midi": 45,
      "hit": false,
      "t": 230250,
      "d": 750,
      "v": 100
    },
    {
      "midi": 69,
      "hit": false,
      "t": 230625,
      "d": 375,
      "v": 100
    },
    {
      "midi": 73,
      "hit": false,
      "t": 230625,
      "d": 375,
      "v": 100
    },
    {
      "midi": 81,
      "hit": false,
      "t": 230625,
      "d": 375,
      "v": 100
    },
    {
      "midi": 85,
      "hit": false,
      "t": 230625,
      "d": 375,
      "v": 100
    },
    {
      "midi": 66,
      "hit": false,
      "t": 231000,
      "d": 375,
      "v": 100
    },
    {
      "midi": 71,
      "hit": false,
      "t": 231000,
      "d": 375,
      "v": 100
    },
    {
      "midi": 47,
      "hit": false,
      "t": 231000,
      "d": 1500,
      "v": 100
    },
    {
      "midi": 50,
      "hit": false,
      "t": 231000,
      "d": 2250,
      "v": 100
    },
    {
      "midi": 78,
      "hit": false,
      "t": 231000,
      "d": 375,
      "v": 100
    },
    {
      "midi": 83,
      "hit": false,
      "t": 231000,
      "d": 375,
      "v": 100
    },
    {
      "midi": 35,
      "hit": false,
      "t": 231000,
      "d": 1500,
      "v": 100
    },
    {
      "midi": 38,
      "hit": false,
      "t": 231000,
      "d": 2250,
      "v": 100
    },
    {
      "midi": 71,
      "hit": false,
      "t": 231375,
      "d": 187.5,
      "v": 100
    },
    {
      "midi": 74,
      "hit": false,
      "t": 231375,
      "d": 187.5,
      "v": 100
    },
    {
      "midi": 83,
      "hit": false,
      "t": 231375,
      "d": 187.5,
      "v": 100
    },
    {
      "midi": 86,
      "hit": false,
      "t": 231375,
      "d": 187.5,
      "v": 100
    },
    {
      "midi": 73,
      "hit": false,
      "t": 231562.5,
      "d": 187.5,
      "v": 100
    },
    {
      "midi": 76,
      "hit": false,
      "t": 231562.5,
      "d": 187.5,
      "v": 100
    },
    {
      "midi": 85,
      "hit": false,
      "t": 231562.5,
      "d": 187.5,
      "v": 100
    },
    {
      "midi": 88,
      "hit": false,
      "t": 231562.5,
      "d": 187.5,
      "v": 100
    },
    {
      "midi": 74,
      "hit": false,
      "t": 231750,
      "d": 375,
      "v": 100
    },
    {
      "midi": 78,
      "hit": false,
      "t": 231750,
      "d": 375,
      "v": 100
    },
    {
      "midi": 86,
      "hit": false,
      "t": 231750,
      "d": 375,
      "v": 100
    },
    {
      "midi": 90,
      "hit": false,
      "t": 231750,
      "d": 375,
      "v": 100
    },
    {
      "midi": 71,
      "hit": false,
      "t": 232125,
      "d": 375,
      "v": 100
    },
    {
      "midi": 74,
      "hit": false,
      "t": 232125,
      "d": 375,
      "v": 100
    },
    {
      "midi": 83,
      "hit": false,
      "t": 232125,
      "d": 375,
      "v": 100
    },
    {
      "midi": 86,
      "hit": false,
      "t": 232125,
      "d": 375,
      "v": 100
    },
    {
      "midi": 73,
      "hit": false,
      "t": 232500,
      "d": 375,
      "v": 100
    },
    {
      "midi": 78,
      "hit": false,
      "t": 232500,
      "d": 375,
      "v": 100
    },
    {
      "midi": 54,
      "hit": false,
      "t": 232500,
      "d": 1500,
      "v": 100
    },
    {
      "midi": 85,
      "hit": false,
      "t": 232500,
      "d": 375,
      "v": 100
    },
    {
      "midi": 90,
      "hit": false,
      "t": 232500,
      "d": 375,
      "v": 100
    },
    {
      "midi": 42,
      "hit": false,
      "t": 232500,
      "d": 1500,
      "v": 100
    },
    {
      "midi": 69,
      "hit": false,
      "t": 232875,
      "d": 187.5,
      "v": 100
    },
    {
      "midi": 78,
      "hit": false,
      "t": 232875,
      "d": 187.5,
      "v": 100
    },
    {
      "midi": 81,
      "hit": false,
      "t": 232875,
      "d": 187.5,
      "v": 100
    },
    {
      "midi": 90,
      "hit": false,
      "t": 232875,
      "d": 187.5,
      "v": 100
    },
    {
      "midi": 67,
      "hit": false,
      "t": 233062.5,
      "d": 187.5,
      "v": 100
    },
    {
      "midi": 76,
      "hit": false,
      "t": 233062.5,
      "d": 187.5,
      "v": 100
    },
    {
      "midi": 79,
      "hit": false,
      "t": 233062.5,
      "d": 187.5,
      "v": 100
    },
    {
      "midi": 88,
      "hit": false,
      "t": 233062.5,
      "d": 187.5,
      "v": 100
    },
    {
      "midi": 66,
      "hit": false,
      "t": 233250,
      "d": 375,
      "v": 100
    },
    {
      "midi": 74,
      "hit": false,
      "t": 233250,
      "d": 375,
      "v": 100
    },
    {
      "midi": 57,
      "hit": false,
      "t": 233250,
      "d": 750,
      "v": 100
    },
    {
      "midi": 78,
      "hit": false,
      "t": 233250,
      "d": 375,
      "v": 100
    },
    {
      "midi": 86,
      "hit": false,
      "t": 233250,
      "d": 375,
      "v": 100
    },
    {
      "midi": 45,
      "hit": false,
      "t": 233250,
      "d": 750,
      "v": 100
    },
    {
      "midi": 64,
      "hit": false,
      "t": 233625,
      "d": 375,
      "v": 100
    },
    {
      "midi": 73,
      "hit": false,
      "t": 233625,
      "d": 375,
      "v": 100
    },
    {
      "midi": 76,
      "hit": false,
      "t": 233625,
      "d": 375,
      "v": 100
    },
    {
      "midi": 85,
      "hit": false,
      "t": 233625,
      "d": 375,
      "v": 100
    },
    {
      "midi": 62,
      "hit": false,
      "t": 234000,
      "d": 375,
      "v": 100
    },
    {
      "midi": 71,
      "hit": false,
      "t": 234000,
      "d": 375,
      "v": 100
    },
    {
      "midi": 43,
      "hit": false,
      "t": 234000,
      "d": 1500,
      "v": 100
    },
    {
      "midi": 55,
      "hit": false,
      "t": 234000,
      "d": 1500,
      "v": 100
    },
    {
      "midi": 74,
      "hit": false,
      "t": 234000,
      "d": 375,
      "v": 100
    },
    {
      "midi": 83,
      "hit": false,
      "t": 234000,
      "d": 375,
      "v": 100
    },
    {
      "midi": 31,
      "hit": false,
      "t": 234000,
      "d": 1500,
      "v": 100
    },
    {
      "midi": 43,
      "hit": false,
      "t": 234000,
      "d": 1500,
      "v": 100
    },
    {
      "midi": 67,
      "hit": false,
      "t": 234375,
      "d": 187.5,
      "v": 100
    },
    {
      "midi": 71,
      "hit": false,
      "t": 234375,
      "d": 187.5,
      "v": 100
    },
    {
      "midi": 79,
      "hit": false,
      "t": 234375,
      "d": 187.5,
      "v": 100
    },
    {
      "midi": 83,
      "hit": false,
      "t": 234375,
      "d": 187.5,
      "v": 100
    },
    {
      "midi": 66,
      "hit": false,
      "t": 234562.5,
      "d": 187.5,
      "v": 100
    },
    {
      "midi": 69,
      "hit": false,
      "t": 234562.5,
      "d": 187.5,
      "v": 100
    },
    {
      "midi": 78,
      "hit": false,
      "t": 234562.5,
      "d": 187.5,
      "v": 100
    },
    {
      "midi": 81,
      "hit": false,
      "t": 234562.5,
      "d": 187.5,
      "v": 100
    },
    {
      "midi": 64,
      "hit": false,
      "t": 234750,
      "d": 375,
      "v": 100
    },
    {
      "midi": 71,
      "hit": false,
      "t": 234750,
      "d": 375,
      "v": 100
    },
    {
      "midi": 76,
      "hit": false,
      "t": 234750,
      "d": 375,
      "v": 100
    },
    {
      "midi": 83,
      "hit": false,
      "t": 234750,
      "d": 375,
      "v": 100
    },
    {
      "midi": 67,
      "hit": false,
      "t": 235125,
      "d": 375,
      "v": 100
    },
    {
      "midi": 73,
      "hit": false,
      "t": 235125,
      "d": 375,
      "v": 100
    },
    {
      "midi": 79,
      "hit": false,
      "t": 235125,
      "d": 375,
      "v": 100
    },
    {
      "midi": 85,
      "hit": false,
      "t": 235125,
      "d": 375,
      "v": 100
    },
    {
      "midi": 66,
      "hit": false,
      "t": 235500,
      "d": 375,
      "v": 100
    },
    {
      "midi": 74,
      "hit": false,
      "t": 235500,
      "d": 375,
      "v": 100
    },
    {
      "midi": 50,
      "hit": false,
      "t": 235500,
      "d": 1500,
      "v": 100
    },
    {
      "midi": 57,
      "hit": false,
      "t": 235500,
      "d": 1500,
      "v": 100
    },
    {
      "midi": 78,
      "hit": false,
      "t": 235500,
      "d": 375,
      "v": 100
    },
    {
      "midi": 86,
      "hit": false,
      "t": 235500,
      "d": 375,
      "v": 100
    },
    {
      "midi": 38,
      "hit": false,
      "t": 235500,
      "d": 1500,
      "v": 100
    },
    {
      "midi": 45,
      "hit": false,
      "t": 235500,
      "d": 1500,
      "v": 100
    },
    {
      "midi": 74,
      "hit": false,
      "t": 235875,
      "d": 187.5,
      "v": 100
    },
    {
      "midi": 78,
      "hit": false,
      "t": 235875,
      "d": 187.5,
      "v": 100
    },
    {
      "midi": 86,
      "hit": false,
      "t": 235875,
      "d": 187.5,
      "v": 100
    },
    {
      "midi": 90,
      "hit": false,
      "t": 235875,
      "d": 187.5,
      "v": 100
    },
    {
      "midi": 73,
      "hit": false,
      "t": 236062.5,
      "d": 187.5,
      "v": 100
    },
    {
      "midi": 76,
      "hit": false,
      "t": 236062.5,
      "d": 187.5,
      "v": 100
    },
    {
      "midi": 85,
      "hit": false,
      "t": 236062.5,
      "d": 187.5,
      "v": 100
    },
    {
      "midi": 88,
      "hit": false,
      "t": 236062.5,
      "d": 187.5,
      "v": 100
    },
    {
      "midi": 74,
      "hit": false,
      "t": 236250,
      "d": 375,
      "v": 100
    },
    {
      "midi": 78,
      "hit": false,
      "t": 236250,
      "d": 375,
      "v": 100
    },
    {
      "midi": 86,
      "hit": false,
      "t": 236250,
      "d": 375,
      "v": 100
    },
    {
      "midi": 90,
      "hit": false,
      "t": 236250,
      "d": 375,
      "v": 100
    },
    {
      "midi": 78,
      "hit": false,
      "t": 236625,
      "d": 375,
      "v": 100
    },
    {
      "midi": 81,
      "hit": false,
      "t": 236625,
      "d": 375,
      "v": 100
    },
    {
      "midi": 90,
      "hit": false,
      "t": 236625,
      "d": 375,
      "v": 100
    },
    {
      "midi": 93,
      "hit": false,
      "t": 236625,
      "d": 375,
      "v": 100
    },
    {
      "midi": 79,
      "hit": false,
      "t": 237000,
      "d": 375,
      "v": 100
    },
    {
      "midi": 55,
      "hit": false,
      "t": 237000,
      "d": 750,
      "v": 100
    },
    {
      "midi": 91,
      "hit": false,
      "t": 237000,
      "d": 375,
      "v": 100
    },
    {
      "midi": 43,
      "hit": false,
      "t": 237000,
      "d": 750,
      "v": 100
    },
    {
      "midi": 71,
      "hit": false,
      "t": 237375,
      "d": 187.5,
      "v": 100
    },
    {
      "midi": 74,
      "hit": false,
      "t": 237375,
      "d": 187.5,
      "v": 100
    },
    {
      "midi": 83,
      "hit": false,
      "t": 237375,
      "d": 187.5,
      "v": 100
    },
    {
      "midi": 86,
      "hit": false,
      "t": 237375,
      "d": 187.5,
      "v": 100
    },
    {
      "midi": 69,
      "hit": false,
      "t": 237562.5,
      "d": 187.5,
      "v": 100
    },
    {
      "midi": 73,
      "hit": false,
      "t": 237562.5,
      "d": 187.5,
      "v": 100
    },
    {
      "midi": 81,
      "hit": false,
      "t": 237562.5,
      "d": 187.5,
      "v": 100
    },
    {
      "midi": 85,
      "hit": false,
      "t": 237562.5,
      "d": 187.5,
      "v": 100
    },
    {
      "midi": 67,
      "hit": false,
      "t": 237750,
      "d": 375,
      "v": 100
    },
    {
      "midi": 71,
      "hit": false,
      "t": 237750,
      "d": 375,
      "v": 100
    },
    {
      "midi": 55,
      "hit": false,
      "t": 237750,
      "d": 750,
      "v": 100
    },
    {
      "midi": 62,
      "hit": false,
      "t": 237750,
      "d": 750,
      "v": 100
    },
    {
      "midi": 79,
      "hit": false,
      "t": 237750,
      "d": 375,
      "v": 100
    },
    {
      "midi": 83,
      "hit": false,
      "t": 237750,
      "d": 375,
      "v": 100
    },
    {
      "midi": 43,
      "hit": false,
      "t": 237750,
      "d": 750,
      "v": 100
    },
    {
      "midi": 50,
      "hit": false,
      "t": 237750,
      "d": 750,
      "v": 100
    },
    {
      "midi": 66,
      "hit": false,
      "t": 238125,
      "d": 375,
      "v": 100
    },
    {
      "midi": 71,
      "hit": false,
      "t": 238125,
      "d": 375,
      "v": 100
    },
    {
      "midi": 78,
      "hit": false,
      "t": 238125,
      "d": 375,
      "v": 100
    },
    {
      "midi": 83,
      "hit": false,
      "t": 238125,
      "d": 375,
      "v": 100
    },
    {
      "midi": 64,
      "hit": false,
      "t": 238500,
      "d": 375,
      "v": 100
    },
    {
      "midi": 69,
      "hit": false,
      "t": 238500,
      "d": 375,
      "v": 100
    },
    {
      "midi": 62,
      "hit": false,
      "t": 238500,
      "d": 1125,
      "v": 100
    },
    {
      "midi": 57,
      "hit": false,
      "t": 238500,
      "d": 1500,
      "v": 100
    },
    {
      "midi": 76,
      "hit": false,
      "t": 238500,
      "d": 375,
      "v": 100
    },
    {
      "midi": 81,
      "hit": false,
      "t": 238500,
      "d": 375,
      "v": 100
    },
    {
      "midi": 50,
      "hit": false,
      "t": 238500,
      "d": 1125,
      "v": 100
    },
    {
      "midi": 45,
      "hit": false,
      "t": 238500,
      "d": 1500,
      "v": 100
    },
    {
      "midi": 69,
      "hit": false,
      "t": 238875,
      "d": 187.5,
      "v": 100
    },
    {
      "midi": 81,
      "hit": false,
      "t": 238875,
      "d": 187.5,
      "v": 100
    },
    {
      "midi": 67,
      "hit": false,
      "t": 239062.5,
      "d": 187.5,
      "v": 100
    },
    {
      "midi": 79,
      "hit": false,
      "t": 239062.5,
      "d": 187.5,
      "v": 100
    },
    {
      "midi": 66,
      "hit": false,
      "t": 239250,
      "d": 375,
      "v": 100
    },
    {
      "midi": 78,
      "hit": false,
      "t": 239250,
      "d": 375,
      "v": 100
    },
    {
      "midi": 64,
      "hit": false,
      "t": 239625,
      "d": 375,
      "v": 100
    },
    {
      "midi": 61,
      "hit": false,
      "t": 239625,
      "d": 375,
      "v": 100
    },
    {
      "midi": 76,
      "hit": false,
      "t": 239625,
      "d": 375,
      "v": 100
    },
    {
      "midi": 49,
      "hit": false,
      "t": 239625,
      "d": 375,
      "v": 100
    },
    {
      "midi": 62,
      "hit": false,
      "t": 240000,
      "d": 750,
      "v": 100
    },
    {
      "midi": 54,
      "hit": false,
      "t": 240000,
      "d": 375,
      "v": 100
    },
    {
      "midi": 50,
      "hit": false,
      "t": 240000,
      "d": 1500,
      "v": 100
    },
    {
      "midi": 74,
      "hit": false,
      "t": 240000,
      "d": 750,
      "v": 100
    },
    {
      "midi": 42,
      "hit": false,
      "t": 240000,
      "d": 375,
      "v": 100
    },
    {
      "midi": 38,
      "hit": false,
      "t": 240000,
      "d": 1500,
      "v": 100
    },
    {
      "midi": 62,
      "hit": false,
      "t": 240375,
      "d": 187.5,
      "v": 100
    },
    {
      "midi": 50,
      "hit": false,
      "t": 240375,
      "d": 187.5,
      "v": 100
    },
    {
      "midi": 61,
      "hit": false,
      "t": 240562.5,
      "d": 187.5,
      "v": 100
    },
    {
      "midi": 49,
      "hit": false,
      "t": 240562.5,
      "d": 187.5,
      "v": 100
    },
    {
      "midi": 74,
      "hit": false,
      "t": 240750,
      "d": 750,
      "v": 100
    },
    {
      "midi": 62,
      "hit": false,
      "t": 240750,
      "d": 375,
      "v": 100
    },
    {
      "midi": 86,
      "hit": false,
      "t": 240750,
      "d": 750,
      "v": 100
    },
    {
      "midi": 50,
      "hit": false,
      "t": 240750,
      "d": 375,
      "v": 100
    },
    {
      "midi": 54,
      "hit": false,
      "t": 241125,
      "d": 375,
      "v": 100
    },
    {
      "midi": 42,
      "hit": false,
      "t": 241125,
      "d": 375,
      "v": 100
    },
    {
      "midi": 73,
      "hit": false,
      "t": 241500,
      "d": 1500,
      "v": 100
    },
    {
      "midi": 57,
      "hit": false,
      "t": 241500,
      "d": 375,
      "v": 100
    },
    {
      "midi": 45,
      "hit": false,
      "t": 241500,
      "d": 1500,
      "v": 100
    },
    {
      "midi": 85,
      "hit": false,
      "t": 241500,
      "d": 1500,
      "v": 100
    },
    {
      "midi": 45,
      "hit": false,
      "t": 241500,
      "d": 375,
      "v": 100
    },
    {
      "midi": 33,
      "hit": false,
      "t": 241500,
      "d": 1500,
      "v": 100
    },
    {
      "midi": 57,
      "hit": false,
      "t": 241875,
      "d": 187.5,
      "v": 100
    },
    {
      "midi": 45,
      "hit": false,
      "t": 241875,
      "d": 187.5,
      "v": 100
    },
    {
      "midi": 59,
      "hit": false,
      "t": 242062.5,
      "d": 187.5,
      "v": 100
    },
    {
      "midi": 47,
      "hit": false,
      "t": 242062.5,
      "d": 187.5,
      "v": 100
    },
    {
      "midi": 61,
      "hit": false,
      "t": 242250,
      "d": 375,
      "v": 100
    },
    {
      "midi": 49,
      "hit": false,
      "t": 242250,
      "d": 375,
      "v": 100
    },
    {
      "midi": 57,
      "hit": false,
      "t": 242625,
      "d": 375,
      "v": 100
    },
    {
      "midi": 45,
      "hit": false,
      "t": 242625,
      "d": 375,
      "v": 100
    },
    {
      "midi": 54,
      "hit": false,
      "t": 243000,
      "d": 375,
      "v": 100
    },
    {
      "midi": 71,
      "hit": false,
      "t": 243000,
      "d": 1500,
      "v": 100
    },
    {
      "midi": 47,
      "hit": false,
      "t": 243000,
      "d": 1500,
      "v": 100
    },
    {
      "midi": 66,
      "hit": false,
      "t": 243000,
      "d": 375,
      "v": 100
    },
    {
      "midi": 83,
      "hit": false,
      "t": 243000,
      "d": 1500,
      "v": 100
    },
    {
      "midi": 35,
      "hit": false,
      "t": 243000,
      "d": 1500,
      "v": 100
    },
    {
      "midi": 62,
      "hit": false,
      "t": 243375,
      "d": 187.5,
      "v": 100
    },
    {
      "midi": 74,
      "hit": false,
      "t": 243375,
      "d": 187.5,
      "v": 100
    },
    {
      "midi": 64,
      "hit": false,
      "t": 243562.5,
      "d": 187.5,
      "v": 100
    },
    {
      "midi": 76,
      "hit": false,
      "t": 243562.5,
      "d": 187.5,
      "v": 100
    },
    {
      "midi": 66,
      "hit": false,
      "t": 243750,
      "d": 375,
      "v": 100
    },
    {
      "midi": 78,
      "hit": false,
      "t": 243750,
      "d": 375,
      "v": 100
    },
    {
      "midi": 62,
      "hit": false,
      "t": 244125,
      "d": 375,
      "v": 100
    },
    {
      "midi": 74,
      "hit": false,
      "t": 244125,
      "d": 375,
      "v": 100
    },
    {
      "midi": 66,
      "hit": false,
      "t": 244500,
      "d": 375,
      "v": 100
    },
    {
      "midi": 69,
      "hit": false,
      "t": 244500,
      "d": 1500,
      "v": 100
    },
    {
      "midi": 54,
      "hit": false,
      "t": 244500,
      "d": 1500,
      "v": 100
    },
    {
      "midi": 78,
      "hit": false,
      "t": 244500,
      "d": 375,
      "v": 100
    },
    {
      "midi": 81,
      "hit": false,
      "t": 244500,
      "d": 1500,
      "v": 100
    },
    {
      "midi": 42,
      "hit": false,
      "t": 244500,
      "d": 1500,
      "v": 100
    },
    {
      "midi": 66,
      "hit": false,
      "t": 244875,
      "d": 187.5,
      "v": 100
    },
    {
      "midi": 78,
      "hit": false,
      "t": 244875,
      "d": 187.5,
      "v": 100
    },
    {
      "midi": 64,
      "hit": false,
      "t": 245062.5,
      "d": 187.5,
      "v": 100
    },
    {
      "midi": 76,
      "hit": false,
      "t": 245062.5,
      "d": 187.5,
      "v": 100
    },
    {
      "midi": 62,
      "hit": false,
      "t": 245250,
      "d": 375,
      "v": 100
    },
    {
      "midi": 74,
      "hit": false,
      "t": 245250,
      "d": 375,
      "v": 100
    },
    {
      "midi": 61,
      "hit": false,
      "t": 245625,
      "d": 375,
      "v": 100
    },
    {
      "midi": 73,
      "hit": false,
      "t": 245625,
      "d": 375,
      "v": 100
    },
    {
      "midi": 59,
      "hit": false,
      "t": 246000,
      "d": 375,
      "v": 100
    },
    {
      "midi": 62,
      "hit": false,
      "t": 246000,
      "d": 1125,
      "v": 100
    },
    {
      "midi": 55,
      "hit": false,
      "t": 246000,
      "d": 1500,
      "v": 100
    },
    {
      "midi": 71,
      "hit": false,
      "t": 246000,
      "d": 375,
      "v": 100
    },
    {
      "midi": 74,
      "hit": false,
      "t": 246000,
      "d": 1125,
      "v": 100
    },
    {
      "midi": 43,
      "hit": false,
      "t": 246000,
      "d": 1500,
      "v": 100
    },
    {
      "midi": 59,
      "hit": false,
      "t": 246375,
      "d": 187.5,
      "v": 100
    },
    {
      "midi": 71,
      "hit": false,
      "t": 246375,
      "d": 187.5,
      "v": 100
    },
    {
      "midi": 57,
      "hit": false,
      "t": 246562.5,
      "d": 187.5,
      "v": 100
    },
    {
      "midi": 69,
      "hit": false,
      "t": 246562.5,
      "d": 187.5,
      "v": 100
    },
    {
      "midi": 59,
      "hit": false,
      "t": 246750,
      "d": 375,
      "v": 100
    },
    {
      "midi": 71,
      "hit": false,
      "t": 246750,
      "d": 375,
      "v": 100
    },
    {
      "midi": 61,
      "hit": false,
      "t": 247125,
      "d": 375,
      "v": 100
    },
    {
      "midi": 64,
      "hit": false,
      "t": 247125,
      "d": 375,
      "v": 100
    },
    {
      "midi": 73,
      "hit": false,
      "t": 247125,
      "d": 375,
      "v": 100
    },
    {
      "midi": 76,
      "hit": false,
      "t": 247125,
      "d": 375,
      "v": 100
    },
    {
      "midi": 62,
      "hit": false,
      "t": 247500,
      "d": 375,
      "v": 100
    },
    {
      "midi": 50,
      "hit": false,
      "t": 247500,
      "d": 1500,
      "v": 100
    },
    {
      "midi": 74,
      "hit": false,
      "t": 247500,
      "d": 375,
      "v": 100
    },
    {
      "midi": 38,
      "hit": false,
      "t": 247500,
      "d": 1500,
      "v": 100
    },
    {
      "midi": 66,
      "hit": false,
      "t": 247875,
      "d": 187.5,
      "v": 100
    },
    {
      "midi": 78,
      "hit": false,
      "t": 247875,
      "d": 187.5,
      "v": 100
    },
    {
      "midi": 64,
      "hit": false,
      "t": 248062.5,
      "d": 187.5,
      "v": 100
    },
    {
      "midi": 76,
      "hit": false,
      "t": 248062.5,
      "d": 187.5,
      "v": 100
    },
    {
      "midi": 62,
      "hit": false,
      "t": 248250,
      "d": 375,
      "v": 100
    },
    {
      "midi": 74,
      "hit": false,
      "t": 248250,
      "d": 375,
      "v": 100
    },
    {
      "midi": 66,
      "hit": false,
      "t": 248625,
      "d": 375,
      "v": 100
    },
    {
      "midi": 78,
      "hit": false,
      "t": 248625,
      "d": 375,
      "v": 100
    },
    {
      "midi": 67,
      "hit": false,
      "t": 249000,
      "d": 375,
      "v": 100
    },
    {
      "midi": 71,
      "hit": false,
      "t": 249000,
      "d": 1500,
      "v": 100
    },
    {
      "midi": 43,
      "hit": false,
      "t": 249000,
      "d": 1500,
      "v": 100
    },
    {
      "midi": 79,
      "hit": false,
      "t": 249000,
      "d": 375,
      "v": 100
    },
    {
      "midi": 83,
      "hit": false,
      "t": 249000,
      "d": 1500,
      "v": 100
    },
    {
      "midi": 31,
      "hit": false,
      "t": 249000,
      "d": 1500,
      "v": 100
    },
    {
      "midi": 62,
      "hit": false,
      "t": 249375,
      "d": 187.5,
      "v": 100
    },
    {
      "midi": 74,
      "hit": false,
      "t": 249375,
      "d": 187.5,
      "v": 100
    },
    {
      "midi": 62,
      "hit": false,
      "t": 249562.5,
      "d": 187.5,
      "v": 100
    },
    {
      "midi": 74,
      "hit": false,
      "t": 249562.5,
      "d": 187.5,
      "v": 100
    },
    {
      "midi": 62,
      "hit": false,
      "t": 249750,
      "d": 375,
      "v": 100
    },
    {
      "midi": 66,
      "hit": false,
      "t": 249750,
      "d": 375,
      "v": 100
    },
    {
      "midi": 74,
      "hit": false,
      "t": 249750,
      "d": 375,
      "v": 100
    },
    {
      "midi": 78,
      "hit": false,
      "t": 249750,
      "d": 375,
      "v": 100
    },
    {
      "midi": 62,
      "hit": false,
      "t": 250125,
      "d": 375,
      "v": 100
    },
    {
      "midi": 66,
      "hit": false,
      "t": 250125,
      "d": 375,
      "v": 100
    },
    {
      "midi": 74,
      "hit": false,
      "t": 250125,
      "d": 375,
      "v": 100
    },
    {
      "midi": 78,
      "hit": false,
      "t": 250125,
      "d": 375,
      "v": 100
    },
    {
      "midi": 62,
      "hit": false,
      "t": 250500,
      "d": 1125,
      "v": 100
    },
    {
      "midi": 64,
      "hit": false,
      "t": 250500,
      "d": 1125,
      "v": 100
    },
    {
      "midi": 57,
      "hit": false,
      "t": 250500,
      "d": 750,
      "v": 100
    },
    {
      "midi": 45,
      "hit": false,
      "t": 250500,
      "d": 1500,
      "v": 100
    },
    {
      "midi": 74,
      "hit": false,
      "t": 250500,
      "d": 1125,
      "v": 100
    },
    {
      "midi": 76,
      "hit": false,
      "t": 250500,
      "d": 1125,
      "v": 100
    },
    {
      "midi": 45,
      "hit": false,
      "t": 250500,
      "d": 750,
      "v": 100
    },
    {
      "midi": 33,
      "hit": false,
      "t": 250500,
      "d": 1500,
      "v": 100
    },
    {
      "midi": 57,
      "hit": false,
      "t": 251250,
      "d": 750,
      "v": 100
    },
    {
      "midi": 45,
      "hit": false,
      "t": 251250,
      "d": 750,
      "v": 100
    },
    {
      "midi": 61,
      "hit": false,
      "t": 251625,
      "d": 375,
      "v": 100
    },
    {
      "midi": 64,
      "hit": false,
      "t": 251625,
      "d": 375,
      "v": 100
    },
    {
      "midi": 73,
      "hit": false,
      "t": 251625,
      "d": 375,
      "v": 100
    },
    {
      "midi": 76,
      "hit": false,
      "t": 251625,
      "d": 375,
      "v": 100
    },
    {
      "midi": 62,
      "hit": false,
      "t": 252000,
      "d": 750,
      "v": 100
    },
    {
      "midi": 66,
      "hit": false,
      "t": 252000,
      "d": 1125,
      "v": 100
    },
    {
      "midi": 50,
      "hit": false,
      "t": 252000,
      "d": 1500,
      "v": 100
    },
    {
      "midi": 57,
      "hit": false,
      "t": 252000,
      "d": 2250,
      "v": 100
    },
    {
      "midi": 74,
      "hit": false,
      "t": 252000,
      "d": 750,
      "v": 100
    },
    {
      "midi": 78,
      "hit": false,
      "t": 252000,
      "d": 1125,
      "v": 100
    },
    {
      "midi": 38,
      "hit": false,
      "t": 252000,
      "d": 1500,
      "v": 100
    },
    {
      "midi": 45,
      "hit": false,
      "t": 252000,
      "d": 2250,
      "v": 100
    },
    {
      "midi": 74,
      "hit": false,
      "t": 252750,
      "d": 750,
      "v": 100
    },
    {
      "midi": 86,
      "hit": false,
      "t": 252750,
      "d": 750,
      "v": 100
    },
    {
      "midi": 78,
      "hit": false,
      "t": 253125,
      "d": 375,
      "v": 100
    },
    {
      "midi": 90,
      "hit": false,
      "t": 253125,
      "d": 375,
      "v": 100
    },
    {
      "midi": 78,
      "hit": false,
      "t": 253500,
      "d": 375,
      "v": 100
    },
    {
      "midi": 73,
      "hit": false,
      "t": 253500,
      "d": 1500,
      "v": 100
    },
    {
      "midi": 45,
      "hit": false,
      "t": 253500,
      "d": 1500,
      "v": 100
    },
    {
      "midi": 90,
      "hit": false,
      "t": 253500,
      "d": 375,
      "v": 100
    },
    {
      "midi": 85,
      "hit": false,
      "t": 253500,
      "d": 1500,
      "v": 100
    },
    {
      "midi": 33,
      "hit": false,
      "t": 253500,
      "d": 1500,
      "v": 100
    },
    {
      "midi": 79,
      "hit": false,
      "t": 253875,
      "d": 375,
      "v": 100
    },
    {
      "midi": 91,
      "hit": false,
      "t": 253875,
      "d": 375,
      "v": 100
    },
    {
      "midi": 78,
      "hit": false,
      "t": 254250,
      "d": 375,
      "v": 100
    },
    {
      "midi": 57,
      "hit": false,
      "t": 254250,
      "d": 750,
      "v": 100
    },
    {
      "midi": 90,
      "hit": false,
      "t": 254250,
      "d": 375,
      "v": 100
    },
    {
      "midi": 45,
      "hit": false,
      "t": 254250,
      "d": 750,
      "v": 100
    },
    {
      "midi": 76,
      "hit": false,
      "t": 254625,
      "d": 375,
      "v": 100
    },
    {
      "midi": 88,
      "hit": false,
      "t": 254625,
      "d": 375,
      "v": 100
    },
    {
      "midi": 74,
      "hit": false,
      "t": 255000,
      "d": 1125,
      "v": 100
    },
    {
      "midi": 71,
      "hit": false,
      "t": 255000,
      "d": 1500,
      "v": 100
    },
    {
      "midi": 47,
      "hit": false,
      "t": 255000,
      "d": 1500,
      "v": 100
    },
    {
      "midi": 62,
      "hit": false,
      "t": 255000,
      "d": 2250,
      "v": 100
    },
    {
      "midi": 86,
      "hit": false,
      "t": 255000,
      "d": 1125,
      "v": 100
    },
    {
      "midi": 83,
      "hit": false,
      "t": 255000,
      "d": 1500,
      "v": 100
    },
    {
      "midi": 35,
      "hit": false,
      "t": 255000,
      "d": 1500,
      "v": 100
    },
    {
      "midi": 50,
      "hit": false,
      "t": 255000,
      "d": 2250,
      "v": 100
    },
    {
      "midi": 74,
      "hit": false,
      "t": 256125,
      "d": 375,
      "v": 100
    },
    {
      "midi": 86,
      "hit": false,
      "t": 256125,
      "d": 375,
      "v": 100
    },
    {
      "midi": 74,
      "hit": false,
      "t": 256500,
      "d": 375,
      "v": 100
    },
    {
      "midi": 69,
      "hit": false,
      "t": 256500,
      "d": 1500,
      "v": 100
    },
    {
      "midi": 54,
      "hit": false,
      "t": 256500,
      "d": 1500,
      "v": 100
    },
    {
      "midi": 86,
      "hit": false,
      "t": 256500,
      "d": 375,
      "v": 100
    },
    {
      "midi": 81,
      "hit": false,
      "t": 256500,
      "d": 1500,
      "v": 100
    },
    {
      "midi": 42,
      "hit": false,
      "t": 256500,
      "d": 1500,
      "v": 100
    },
    {
      "midi": 76,
      "hit": false,
      "t": 256875,
      "d": 375,
      "v": 100
    },
    {
      "midi": 88,
      "hit": false,
      "t": 256875,
      "d": 375,
      "v": 100
    },
    {
      "midi": 74,
      "hit": false,
      "t": 257250,
      "d": 375,
      "v": 100
    },
    {
      "midi": 57,
      "hit": false,
      "t": 257250,
      "d": 750,
      "v": 100
    },
    {
      "midi": 86,
      "hit": false,
      "t": 257250,
      "d": 375,
      "v": 100
    },
    {
      "midi": 45,
      "hit": false,
      "t": 257250,
      "d": 750,
      "v": 100
    },
    {
      "midi": 73,
      "hit": false,
      "t": 257625,
      "d": 375,
      "v": 100
    },
    {
      "midi": 85,
      "hit": false,
      "t": 257625,
      "d": 375,
      "v": 100
    },
    {
      "midi": 62,
      "hit": false,
      "t": 258000,
      "d": 1125,
      "v": 100
    },
    {
      "midi": 71,
      "hit": false,
      "t": 258000,
      "d": 1500,
      "v": 100
    },
    {
      "midi": 43,
      "hit": false,
      "t": 258000,
      "d": 1500,
      "v": 100
    },
    {
      "midi": 55,
      "hit": false,
      "t": 258000,
      "d": 1500,
      "v": 100
    },
    {
      "midi": 74,
      "hit": false,
      "t": 258000,
      "d": 1125,
      "v": 100
    },
    {
      "midi": 83,
      "hit": false,
      "t": 258000,
      "d": 1500,
      "v": 100
    },
    {
      "midi": 31,
      "hit": false,
      "t": 258000,
      "d": 1500,
      "v": 100
    },
    {
      "midi": 43,
      "hit": false,
      "t": 258000,
      "d": 1500,
      "v": 100
    },
    {
      "midi": 64,
      "hit": false,
      "t": 259125,
      "d": 375,
      "v": 100
    },
    {
      "midi": 76,
      "hit": false,
      "t": 259125,
      "d": 375,
      "v": 100
    },
    {
      "midi": 74,
      "hit": false,
      "t": 259500,
      "d": 1500,
      "v": 100
    },
    {
      "midi": 50,
      "hit": false,
      "t": 259500,
      "d": 1500,
      "v": 100
    },
    {
      "midi": 57,
      "hit": false,
      "t": 259500,
      "d": 1500,
      "v": 100
    },
    {
      "midi": 86,
      "hit": false,
      "t": 259500,
      "d": 1500,
      "v": 100
    },
    {
      "midi": 38,
      "hit": false,
      "t": 259500,
      "d": 1500,
      "v": 100
    },
    {
      "midi": 45,
      "hit": false,
      "t": 259500,
      "d": 1500,
      "v": 100
    },
    {
      "midi": 74,
      "hit": false,
      "t": 261000,
      "d": 375,
      "v": 100
    },
    {
      "midi": 55,
      "hit": false,
      "t": 261000,
      "d": 750,
      "v": 100
    },
    {
      "midi": 43,
      "hit": false,
      "t": 261000,
      "d": 1500,
      "v": 100
    },
    {
      "midi": 86,
      "hit": false,
      "t": 261000,
      "d": 375,
      "v": 100
    },
    {
      "midi": 43,
      "hit": false,
      "t": 261000,
      "d": 750,
      "v": 100
    },
    {
      "midi": 31,
      "hit": false,
      "t": 261000,
      "d": 1500,
      "v": 100
    },
    {
      "midi": 72,
      "hit": false,
      "t": 261375,
      "d": 375,
      "v": 100
    },
    {
      "midi": 84,
      "hit": false,
      "t": 261375,
      "d": 375,
      "v": 100
    },
    {
      "midi": 71,
      "hit": false,
      "t": 261750,
      "d": 375,
      "v": 100
    },
    {
      "midi": 62,
      "hit": false,
      "t": 261750,
      "d": 750,
      "v": 100
    },
    {
      "midi": 83,
      "hit": false,
      "t": 261750,
      "d": 375,
      "v": 100
    },
    {
      "midi": 50,
      "hit": false,
      "t": 261750,
      "d": 750,
      "v": 100
    },
    {
      "midi": 73,
      "hit": false,
      "t": 262125,
      "d": 375,
      "v": 100
    },
    {
      "midi": 85,
      "hit": false,
      "t": 262125,
      "d": 375,
      "v": 100
    },
    {
      "midi": 64,
      "hit": false,
      "t": 262500,
      "d": 1125,
      "v": 100
    },
    {
      "midi": 69,
      "hit": false,
      "t": 262500,
      "d": 1125,
      "v": 100
    },
    {
      "midi": 62,
      "hit": false,
      "t": 262500,
      "d": 1125,
      "v": 100
    },
    {
      "midi": 45,
      "hit": false,
      "t": 262500,
      "d": 1500,
      "v": 100
    },
    {
      "midi": 76,
      "hit": false,
      "t": 262500,
      "d": 1125,
      "v": 100
    },
    {
      "midi": 81,
      "hit": false,
      "t": 262500,
      "d": 1125,
      "v": 100
    },
    {
      "midi": 50,
      "hit": false,
      "t": 262500,
      "d": 1125,
      "v": 100
    },
    {
      "midi": 33,
      "hit": false,
      "t": 262500,
      "d": 1500,
      "v": 100
    },
    {
      "midi": 64,
      "hit": false,
      "t": 263625,
      "d": 375,
      "v": 100
    },
    {
      "midi": 69,
      "hit": false,
      "t": 263625,
      "d": 375,
      "v": 100
    },
    {
      "midi": 61,
      "hit": false,
      "t": 263625,
      "d": 375,
      "v": 100
    },
    {
      "midi": 76,
      "hit": false,
      "t": 263625,
      "d": 375,
      "v": 100
    },
    {
      "midi": 81,
      "hit": false,
      "t": 263625,
      "d": 375,
      "v": 100
    },
    {
      "midi": 49,
      "hit": false,
      "t": 263625,
      "d": 375,
      "v": 100
    },
    {
      "midi": 66,
      "hit": false,
      "t": 264000,
      "d": 1125,
      "v": 100
    },
    {
      "midi": 69,
      "hit": false,
      "t": 264000,
      "d": 1125,
      "v": 100
    },
    {
      "midi": 62,
      "hit": false,
      "t": 264000,
      "d": 750,
      "v": 100
    },
    {
      "midi": 50,
      "hit": false,
      "t": 264000,
      "d": 1500,
      "v": 100
    },
    {
      "midi": 78,
      "hit": false,
      "t": 264000,
      "d": 1125,
      "v": 100
    },
    {
      "midi": 81,
      "hit": false,
      "t": 264000,
      "d": 1125,
      "v": 100
    },
    {
      "midi": 50,
      "hit": false,
      "t": 264000,
      "d": 750,
      "v": 100
    },
    {
      "midi": 38,
      "hit": false,
      "t": 264000,
      "d": 1500,
      "v": 100
    },
    {
      "midi": 62,
      "hit": false,
      "t": 264750,
      "d": 750,
      "v": 100
    },
    {
      "midi": 50,
      "hit": false,
      "t": 264750,
      "d": 750,
      "v": 100
    },
    {
      "midi": 78,
      "hit": false,
      "t": 265125,
      "d": 375,
      "v": 100
    },
    {
      "midi": 81,
      "hit": false,
      "t": 265125,
      "d": 375,
      "v": 100
    },
    {
      "midi": 90,
      "hit": false,
      "t": 265125,
      "d": 375,
      "v": 100
    },
    {
      "midi": 93,
      "hit": false,
      "t": 265125,
      "d": 375,
      "v": 100
    },
    {
      "midi": 78,
      "hit": false,
      "t": 265500,
      "d": 375,
      "v": 100
    },
    {
      "midi": 81,
      "hit": false,
      "t": 265500,
      "d": 375,
      "v": 100
    },
    {
      "midi": 57,
      "hit": false,
      "t": 265500,
      "d": 1500,
      "v": 100
    },
    {
      "midi": 61,
      "hit": false,
      "t": 265500,
      "d": 1500,
      "v": 100
    },
    {
      "midi": 90,
      "hit": false,
      "t": 265500,
      "d": 375,
      "v": 100
    },
    {
      "midi": 93,
      "hit": false,
      "t": 265500,
      "d": 375,
      "v": 100
    },
    {
      "midi": 45,
      "hit": false,
      "t": 265500,
      "d": 1500,
      "v": 100
    },
    {
      "midi": 49,
      "hit": false,
      "t": 265500,
      "d": 1500,
      "v": 100
    },
    {
      "midi": 79,
      "hit": false,
      "t": 265875,
      "d": 375,
      "v": 100
    },
    {
      "midi": 83,
      "hit": false,
      "t": 265875,
      "d": 375,
      "v": 100
    },
    {
      "midi": 91,
      "hit": false,
      "t": 265875,
      "d": 375,
      "v": 100
    },
    {
      "midi": 95,
      "hit": false,
      "t": 265875,
      "d": 375,
      "v": 100
    },
    {
      "midi": 78,
      "hit": false,
      "t": 266250,
      "d": 375,
      "v": 100
    },
    {
      "midi": 81,
      "hit": false,
      "t": 266250,
      "d": 375,
      "v": 100
    },
    {
      "midi": 90,
      "hit": false,
      "t": 266250,
      "d": 375,
      "v": 100
    },
    {
      "midi": 93,
      "hit": false,
      "t": 266250,
      "d": 375,
      "v": 100
    },
    {
      "midi": 76,
      "hit": false,
      "t": 266625,
      "d": 375,
      "v": 100
    },
    {
      "midi": 79,
      "hit": false,
      "t": 266625,
      "d": 375,
      "v": 100
    },
    {
      "midi": 88,
      "hit": false,
      "t": 266625,
      "d": 375,
      "v": 100
    },
    {
      "midi": 91,
      "hit": false,
      "t": 266625,
      "d": 375,
      "v": 100
    },
    {
      "midi": 74,
      "hit": false,
      "t": 267000,
      "d": 1125,
      "v": 100
    },
    {
      "midi": 78,
      "hit": false,
      "t": 267000,
      "d": 1125,
      "v": 100
    },
    {
      "midi": 47,
      "hit": false,
      "t": 267000,
      "d": 1500,
      "v": 100
    },
    {
      "midi": 59,
      "hit": false,
      "t": 267000,
      "d": 1500,
      "v": 100
    },
    {
      "midi": 86,
      "hit": false,
      "t": 267000,
      "d": 1125,
      "v": 100
    },
    {
      "midi": 90,
      "hit": false,
      "t": 267000,
      "d": 1125,
      "v": 100
    },
    {
      "midi": 35,
      "hit": false,
      "t": 267000,
      "d": 1500,
      "v": 100
    },
    {
      "midi": 47,
      "hit": false,
      "t": 267000,
      "d": 1500,
      "v": 100
    },
    {
      "midi": 74,
      "hit": false,
      "t": 268125,
      "d": 375,
      "v": 100
    },
    {
      "midi": 78,
      "hit": false,
      "t": 268125,
      "d": 375,
      "v": 100
    },
    {
      "midi": 86,
      "hit": false,
      "t": 268125,
      "d": 375,
      "v": 100
    },
    {
      "midi": 90,
      "hit": false,
      "t": 268125,
      "d": 375,
      "v": 100
    },
    {
      "midi": 74,
      "hit": false,
      "t": 268500,
      "d": 375,
      "v": 100
    },
    {
      "midi": 78,
      "hit": false,
      "t": 268500,
      "d": 375,
      "v": 100
    },
    {
      "midi": 54,
      "hit": false,
      "t": 268500,
      "d": 1500,
      "v": 100
    },
    {
      "midi": 57,
      "hit": false,
      "t": 268500,
      "d": 1500,
      "v": 100
    },
    {
      "midi": 86,
      "hit": false,
      "t": 268500,
      "d": 375,
      "v": 100
    },
    {
      "midi": 90,
      "hit": false,
      "t": 268500,
      "d": 375,
      "v": 100
    },
    {
      "midi": 42,
      "hit": false,
      "t": 268500,
      "d": 1500,
      "v": 100
    },
    {
      "midi": 45,
      "hit": false,
      "t": 268500,
      "d": 1500,
      "v": 100
    },
    {
      "midi": 76,
      "hit": false,
      "t": 268875,
      "d": 375,
      "v": 100
    },
    {
      "midi": 79,
      "hit": false,
      "t": 268875,
      "d": 375,
      "v": 100
    },
    {
      "midi": 88,
      "hit": false,
      "t": 268875,
      "d": 375,
      "v": 100
    },
    {
      "midi": 91,
      "hit": false,
      "t": 268875,
      "d": 375,
      "v": 100
    },
    {
      "midi": 74,
      "hit": false,
      "t": 269250,
      "d": 375,
      "v": 100
    },
    {
      "midi": 78,
      "hit": false,
      "t": 269250,
      "d": 375,
      "v": 100
    },
    {
      "midi": 86,
      "hit": false,
      "t": 269250,
      "d": 375,
      "v": 100
    },
    {
      "midi": 90,
      "hit": false,
      "t": 269250,
      "d": 375,
      "v": 100
    },
    {
      "midi": 73,
      "hit": false,
      "t": 269625,
      "d": 375,
      "v": 100
    },
    {
      "midi": 76,
      "hit": false,
      "t": 269625,
      "d": 375,
      "v": 100
    },
    {
      "midi": 85,
      "hit": false,
      "t": 269625,
      "d": 375,
      "v": 100
    },
    {
      "midi": 88,
      "hit": false,
      "t": 269625,
      "d": 375,
      "v": 100
    },
    {
      "midi": 74,
      "hit": false,
      "t": 270000,
      "d": 375,
      "v": 100
    },
    {
      "midi": 62,
      "hit": false,
      "t": 270000,
      "d": 1125,
      "v": 100
    },
    {
      "midi": 55,
      "hit": false,
      "t": 270000,
      "d": 1500,
      "v": 100
    },
    {
      "midi": 86,
      "hit": false,
      "t": 270000,
      "d": 375,
      "v": 100
    },
    {
      "midi": 50,
      "hit": false,
      "t": 270000,
      "d": 1125,
      "v": 100
    },
    {
      "midi": 43,
      "hit": false,
      "t": 270000,
      "d": 1500,
      "v": 100
    },
    {
      "midi": 72,
      "hit": false,
      "t": 270375,
      "d": 375,
      "v": 100
    },
    {
      "midi": 84,
      "hit": false,
      "t": 270375,
      "d": 375,
      "v": 100
    },
    {
      "midi": 71,
      "hit": false,
      "t": 270750,
      "d": 375,
      "v": 100
    },
    {
      "midi": 83,
      "hit": false,
      "t": 270750,
      "d": 375,
      "v": 100
    },
    {
      "midi": 73,
      "hit": false,
      "t": 271125,
      "d": 375,
      "v": 100
    },
    {
      "midi": 64,
      "hit": false,
      "t": 271125,
      "d": 375,
      "v": 100
    },
    {
      "midi": 85,
      "hit": false,
      "t": 271125,
      "d": 375,
      "v": 100
    },
    {
      "midi": 52,
      "hit": false,
      "t": 271125,
      "d": 375,
      "v": 100
    },
    {
      "midi": 69,
      "hit": false,
      "t": 271500,
      "d": 1125,
      "v": 100
    },
    {
      "midi": 74,
      "hit": false,
      "t": 271500,
      "d": 1500,
      "v": 100
    },
    {
      "midi": 50,
      "hit": false,
      "t": 271500,
      "d": 1500,
      "v": 100
    },
    {
      "midi": 66,
      "hit": false,
      "t": 271500,
      "d": 1500,
      "v": 100
    },
    {
      "midi": 81,
      "hit": false,
      "t": 271500,
      "d": 1125,
      "v": 100
    },
    {
      "midi": 86,
      "hit": false,
      "t": 271500,
      "d": 1500,
      "v": 100
    },
    {
      "midi": 38,
      "hit": false,
      "t": 271500,
      "d": 1500,
      "v": 100
    },
    {
      "midi": 54,
      "hit": false,
      "t": 271500,
      "d": 1500,
      "v": 100
    },
    {
      "midi": 69,
      "hit": false,
      "t": 272625,
      "d": 375,
      "v": 100
    },
    {
      "midi": 81,
      "hit": false,
      "t": 272625,
      "d": 375,
      "v": 100
    },
    {
      "midi": 74,
      "hit": false,
      "t": 273000,
      "d": 375,
      "v": 100
    },
    {
      "midi": 67,
      "hit": false,
      "t": 273000,
      "d": 750,
      "v": 100
    },
    {
      "midi": 55,
      "hit": false,
      "t": 273000,
      "d": 1500,
      "v": 100
    },
    {
      "midi": 59,
      "hit": false,
      "t": 273000,
      "d": 1500,
      "v": 100
    },
    {
      "midi": 86,
      "hit": false,
      "t": 273000,
      "d": 375,
      "v": 100
    },
    {
      "midi": 79,
      "hit": false,
      "t": 273000,
      "d": 750,
      "v": 100
    },
    {
      "midi": 43,
      "hit": false,
      "t": 273000,
      "d": 1500,
      "v": 100
    },
    {
      "midi": 47,
      "hit": false,
      "t": 273000,
      "d": 1500,
      "v": 100
    },
    {
      "midi": 72,
      "hit": false,
      "t": 273375,
      "d": 375,
      "v": 100
    },
    {
      "midi": 84,
      "hit": false,
      "t": 273375,
      "d": 375,
      "v": 100
    },
    {
      "midi": 71,
      "hit": false,
      "t": 273750,
      "d": 375,
      "v": 100
    },
    {
      "midi": 74,
      "hit": false,
      "t": 273750,
      "d": 750,
      "v": 100
    },
    {
      "midi": 83,
      "hit": false,
      "t": 273750,
      "d": 375,
      "v": 100
    },
    {
      "midi": 86,
      "hit": false,
      "t": 273750,
      "d": 750,
      "v": 100
    },
    {
      "midi": 73,
      "hit": false,
      "t": 274125,
      "d": 375,
      "v": 100
    },
    {
      "midi": 85,
      "hit": false,
      "t": 274125,
      "d": 375,
      "v": 100
    },
    {
      "midi": 69,
      "hit": false,
      "t": 274500,
      "d": 1125,
      "v": 100
    },
    {
      "midi": 73,
      "hit": false,
      "t": 274500,
      "d": 1125,
      "v": 100
    },
    {
      "midi": 64,
      "hit": false,
      "t": 274500,
      "d": 1125,
      "v": 100
    },
    {
      "midi": 45,
      "hit": false,
      "t": 274500,
      "d": 1500,
      "v": 100
    },
    {
      "midi": 81,
      "hit": false,
      "t": 274500,
      "d": 1125,
      "v": 100
    },
    {
      "midi": 85,
      "hit": false,
      "t": 274500,
      "d": 1125,
      "v": 100
    },
    {
      "midi": 52,
      "hit": false,
      "t": 274500,
      "d": 1125,
      "v": 100
    },
    {
      "midi": 33,
      "hit": false,
      "t": 274500,
      "d": 1500,
      "v": 100
    },
    {
      "midi": 69,
      "hit": false,
      "t": 275625,
      "d": 375,
      "v": 100
    },
    {
      "midi": 73,
      "hit": false,
      "t": 275625,
      "d": 375,
      "v": 100
    },
    {
      "midi": 64,
      "hit": false,
      "t": 275625,
      "d": 375,
      "v": 100
    },
    {
      "midi": 81,
      "hit": false,
      "t": 275625,
      "d": 375,
      "v": 100
    },
    {
      "midi": 85,
      "hit": false,
      "t": 275625,
      "d": 375,
      "v": 100
    },
    {
      "midi": 52,
      "hit": false,
      "t": 275625,
      "d": 375,
      "v": 100
    },
    {
      "midi": 74,
      "hit": false,
      "t": 276000,
      "d": 750,
      "v": 100
    },
    {
      "midi": 78,
      "hit": false,
      "t": 276000,
      "d": 1125,
      "v": 100
    },
    {
      "midi": 81,
      "hit": false,
      "t": 276000,
      "d": 1125,
      "v": 100
    },
    {
      "midi": 50,
      "hit": false,
      "t": 276000,
      "d": 1500,
      "v": 100
    },
    {
      "midi": 86,
      "hit": false,
      "t": 276000,
      "d": 750,
      "v": 100
    },
    {
      "midi": 90,
      "hit": false,
      "t": 276000,
      "d": 1125,
      "v": 100
    },
    {
      "midi": 93,
      "hit": false,
      "t": 276000,
      "d": 1125,
      "v": 100
    },
    {
      "midi": 38,
      "hit": false,
      "t": 276000,
      "d": 1500,
      "v": 100
    },
    {
      "midi": 74,
      "hit": false,
      "t": 276750,
      "d": 1500,
      "v": 100
    },
    {
      "midi": 86,
      "hit": false,
      "t": 276750,
      "d": 1500,
      "v": 100
    },
    {
      "midi": 78,
      "hit": false,
      "t": 277125,
      "d": 375,
      "v": 100
    },
    {
      "midi": 81,
      "hit": false,
      "t": 277125,
      "d": 375,
      "v": 100
    },
    {
      "midi": 90,
      "hit": false,
      "t": 277125,
      "d": 375,
      "v": 100
    },
    {
      "midi": 93,
      "hit": false,
      "t": 277125,
      "d": 375,
      "v": 100
    },
    {
      "midi": 78,
      "hit": false,
      "t": 277500,
      "d": 375,
      "v": 100
    },
    {
      "midi": 81,
      "hit": false,
      "t": 277500,
      "d": 375,
      "v": 100
    },
    {
      "midi": 45,
      "hit": false,
      "t": 277500,
      "d": 1500,
      "v": 100
    },
    {
      "midi": 90,
      "hit": false,
      "t": 277500,
      "d": 375,
      "v": 100
    },
    {
      "midi": 93,
      "hit": false,
      "t": 277500,
      "d": 375,
      "v": 100
    },
    {
      "midi": 33,
      "hit": false,
      "t": 277500,
      "d": 1500,
      "v": 100
    },
    {
      "midi": 79,
      "hit": false,
      "t": 277875,
      "d": 375,
      "v": 100
    },
    {
      "midi": 83,
      "hit": false,
      "t": 277875,
      "d": 375,
      "v": 100
    },
    {
      "midi": 91,
      "hit": false,
      "t": 277875,
      "d": 375,
      "v": 100
    },
    {
      "midi": 95,
      "hit": false,
      "t": 277875,
      "d": 375,
      "v": 100
    },
    {
      "midi": 78,
      "hit": false,
      "t": 278250,
      "d": 375,
      "v": 100
    },
    {
      "midi": 81,
      "hit": false,
      "t": 278250,
      "d": 375,
      "v": 100
    },
    {
      "midi": 73,
      "hit": false,
      "t": 278250,
      "d": 1500,
      "v": 100
    },
    {
      "midi": 90,
      "hit": false,
      "t": 278250,
      "d": 375,
      "v": 100
    },
    {
      "midi": 93,
      "hit": false,
      "t": 278250,
      "d": 375,
      "v": 100
    },
    {
      "midi": 85,
      "hit": false,
      "t": 278250,
      "d": 1500,
      "v": 100
    },
    {
      "midi": 76,
      "hit": false,
      "t": 278625,
      "d": 375,
      "v": 100
    },
    {
      "midi": 79,
      "hit": false,
      "t": 278625,
      "d": 375,
      "v": 100
    },
    {
      "midi": 88,
      "hit": false,
      "t": 278625,
      "d": 375,
      "v": 100
    },
    {
      "midi": 91,
      "hit": false,
      "t": 278625,
      "d": 375,
      "v": 100
    },
    {
      "midi": 74,
      "hit": false,
      "t": 279000,
      "d": 1125,
      "v": 100
    },
    {
      "midi": 78,
      "hit": false,
      "t": 279000,
      "d": 1125,
      "v": 100
    },
    {
      "midi": 47,
      "hit": false,
      "t": 279000,
      "d": 1500,
      "v": 100
    },
    {
      "midi": 86,
      "hit": false,
      "t": 279000,
      "d": 1125,
      "v": 100
    },
    {
      "midi": 90,
      "hit": false,
      "t": 279000,
      "d": 1125,
      "v": 100
    },
    {
      "midi": 35,
      "hit": false,
      "t": 279000,
      "d": 1500,
      "v": 100
    },
    {
      "midi": 71,
      "hit": false,
      "t": 279750,
      "d": 1500,
      "v": 100
    },
    {
      "midi": 83,
      "hit": false,
      "t": 279750,
      "d": 1500,
      "v": 100
    },
    {
      "midi": 74,
      "hit": false,
      "t": 280125,
      "d": 375,
      "v": 100
    },
    {
      "midi": 78,
      "hit": false,
      "t": 280125,
      "d": 375,
      "v": 100
    },
    {
      "midi": 86,
      "hit": false,
      "t": 280125,
      "d": 375,
      "v": 100
    },
    {
      "midi": 90,
      "hit": false,
      "t": 280125,
      "d": 375,
      "v": 100
    },
    {
      "midi": 74,
      "hit": false,
      "t": 280500,
      "d": 375,
      "v": 100
    },
    {
      "midi": 78,
      "hit": false,
      "t": 280500,
      "d": 375,
      "v": 100
    },
    {
      "midi": 42,
      "hit": false,
      "t": 280500,
      "d": 1500,
      "v": 100
    },
    {
      "midi": 86,
      "hit": false,
      "t": 280500,
      "d": 375,
      "v": 100
    },
    {
      "midi": 90,
      "hit": false,
      "t": 280500,
      "d": 375,
      "v": 100
    },
    {
      "midi": 30,
      "hit": false,
      "t": 280500,
      "d": 1500,
      "v": 100
    },
    {
      "midi": 76,
      "hit": false,
      "t": 280875,
      "d": 375,
      "v": 100
    },
    {
      "midi": 79,
      "hit": false,
      "t": 280875,
      "d": 375,
      "v": 100
    },
    {
      "midi": 88,
      "hit": false,
      "t": 280875,
      "d": 375,
      "v": 100
    },
    {
      "midi": 91,
      "hit": false,
      "t": 280875,
      "d": 375,
      "v": 100
    },
    {
      "midi": 74,
      "hit": false,
      "t": 281250,
      "d": 375,
      "v": 100
    },
    {
      "midi": 78,
      "hit": false,
      "t": 281250,
      "d": 375,
      "v": 100
    },
    {
      "midi": 69,
      "hit": false,
      "t": 281250,
      "d": 1500,
      "v": 100
    },
    {
      "midi": 86,
      "hit": false,
      "t": 281250,
      "d": 375,
      "v": 100
    },
    {
      "midi": 90,
      "hit": false,
      "t": 281250,
      "d": 375,
      "v": 100
    },
    {
      "midi": 81,
      "hit": false,
      "t": 281250,
      "d": 1500,
      "v": 100
    },
    {
      "midi": 73,
      "hit": false,
      "t": 281625,
      "d": 375,
      "v": 100
    },
    {
      "midi": 76,
      "hit": false,
      "t": 281625,
      "d": 375,
      "v": 100
    },
    {
      "midi": 85,
      "hit": false,
      "t": 281625,
      "d": 375,
      "v": 100
    },
    {
      "midi": 88,
      "hit": false,
      "t": 281625,
      "d": 375,
      "v": 100
    },
    {
      "midi": 74,
      "hit": false,
      "t": 282000,
      "d": 375,
      "v": 100
    },
    {
      "midi": 55,
      "hit": false,
      "t": 282000,
      "d": 1500,
      "v": 100
    },
    {
      "midi": 59,
      "hit": false,
      "t": 282000,
      "d": 1500,
      "v": 100
    },
    {
      "midi": 86,
      "hit": false,
      "t": 282000,
      "d": 375,
      "v": 100
    },
    {
      "midi": 43,
      "hit": false,
      "t": 282000,
      "d": 1500,
      "v": 100
    },
    {
      "midi": 47,
      "hit": false,
      "t": 282000,
      "d": 1500,
      "v": 100
    },
    {
      "midi": 72,
      "hit": false,
      "t": 282375,
      "d": 375,
      "v": 100
    },
    {
      "midi": 84,
      "hit": false,
      "t": 282375,
      "d": 375,
      "v": 100
    },
    {
      "midi": 71,
      "hit": false,
      "t": 282750,
      "d": 375,
      "v": 100
    },
    {
      "midi": 67,
      "hit": false,
      "t": 282750,
      "d": 1500,
      "v": 100
    },
    {
      "midi": 83,
      "hit": false,
      "t": 282750,
      "d": 375,
      "v": 100
    },
    {
      "midi": 79,
      "hit": false,
      "t": 282750,
      "d": 1500,
      "v": 100
    },
    {
      "midi": 72,
      "hit": false,
      "t": 283125,
      "d": 375,
      "v": 100
    },
    {
      "midi": 84,
      "hit": false,
      "t": 283125,
      "d": 375,
      "v": 100
    },
    {
      "midi": 69,
      "hit": false,
      "t": 283500,
      "d": 1125,
      "v": 100
    },
    {
      "midi": 50,
      "hit": false,
      "t": 283500,
      "d": 1500,
      "v": 100
    },
    {
      "midi": 62,
      "hit": false,
      "t": 283500,
      "d": 1500,
      "v": 100
    },
    {
      "midi": 81,
      "hit": false,
      "t": 283500,
      "d": 1125,
      "v": 100
    },
    {
      "midi": 38,
      "hit": false,
      "t": 283500,
      "d": 1500,
      "v": 100
    },
    {
      "midi": 50,
      "hit": false,
      "t": 283500,
      "d": 1500,
      "v": 100
    },
    {
      "midi": 66,
      "hit": false,
      "t": 284250,
      "d": 1875,
      "v": 100
    },
    {
      "midi": 78,
      "hit": false,
      "t": 284250,
      "d": 1875,
      "v": 100
    },
    {
      "midi": 69,
      "hit": false,
      "t": 284625,
      "d": 375,
      "v": 100
    },
    {
      "midi": 81,
      "hit": false,
      "t": 284625,
      "d": 375,
      "v": 100
    },
    {
      "midi": 67,
      "hit": false,
      "t": 285000,
      "d": 750,
      "v": 100
    },
    {
      "midi": 62,
      "hit": false,
      "t": 285000,
      "d": 375,
      "v": 100
    },
    {
      "midi": 55,
      "hit": false,
      "t": 285000,
      "d": 1500,
      "v": 100
    },
    {
      "midi": 79,
      "hit": false,
      "t": 285000,
      "d": 750,
      "v": 100
    },
    {
      "midi": 50,
      "hit": false,
      "t": 285000,
      "d": 375,
      "v": 100
    },
    {
      "midi": 43,
      "hit": false,
      "t": 285000,
      "d": 1500,
      "v": 100
    },
    {
      "midi": 60,
      "hit": false,
      "t": 285375,
      "d": 375,
      "v": 100
    },
    {
      "midi": 48,
      "hit": false,
      "t": 285375,
      "d": 375,
      "v": 100
    },
    {
      "midi": 74,
      "hit": false,
      "t": 285750,
      "d": 750,
      "v": 100
    },
    {
      "midi": 59,
      "hit": false,
      "t": 285750,
      "d": 375,
      "v": 100
    },
    {
      "midi": 86,
      "hit": false,
      "t": 285750,
      "d": 750,
      "v": 100
    },
    {
      "midi": 47,
      "hit": false,
      "t": 285750,
      "d": 375,
      "v": 100
    },
    {
      "midi": 64,
      "hit": false,
      "t": 286125,
      "d": 375,
      "v": 100
    },
    {
      "midi": 60,
      "hit": false,
      "t": 286125,
      "d": 375,
      "v": 100
    },
    {
      "midi": 76,
      "hit": false,
      "t": 286125,
      "d": 375,
      "v": 100
    },
    {
      "midi": 48,
      "hit": false,
      "t": 286125,
      "d": 375,
      "v": 100
    },
    {
      "midi": 73,
      "hit": false,
      "t": 286500,
      "d": 1125,
      "v": 100
    },
    {
      "midi": 64,
      "hit": false,
      "t": 286500,
      "d": 1500,
      "v": 100
    },
    {
      "midi": 57,
      "hit": false,
      "t": 286500,
      "d": 1125,
      "v": 100
    },
    {
      "midi": 45,
      "hit": false,
      "t": 286500,
      "d": 1500,
      "v": 100
    },
    {
      "midi": 85,
      "hit": false,
      "t": 286500,
      "d": 1125,
      "v": 100
    },
    {
      "midi": 76,
      "hit": false,
      "t": 286500,
      "d": 1500,
      "v": 100
    },
    {
      "midi": 45,
      "hit": false,
      "t": 286500,
      "d": 1125,
      "v": 100
    },
    {
      "midi": 33,
      "hit": false,
      "t": 286500,
      "d": 1500,
      "v": 100
    },
    {
      "midi": 73,
      "hit": false,
      "t": 287625,
      "d": 375,
      "v": 100
    },
    {
      "midi": 57,
      "hit": false,
      "t": 287625,
      "d": 375,
      "v": 100
    },
    {
      "midi": 85,
      "hit": false,
      "t": 287625,
      "d": 375,
      "v": 100
    },
    {
      "midi": 45,
      "hit": false,
      "t": 287625,
      "d": 375,
      "v": 100
    },
    {
      "midi": 66,
      "hit": false,
      "t": 288000,
      "d": 750,
      "v": 100
    },
    {
      "midi": 74,
      "hit": false,
      "t": 288000,
      "d": 750,
      "v": 100
    },
    {
      "midi": 57,
      "hit": false,
      "t": 288000,
      "d": 1125,
      "v": 100
    },
    {
      "midi": 50,
      "hit": false,
      "t": 288000,
      "d": 1500,
      "v": 100
    },
    {
      "midi": 78,
      "hit": false,
      "t": 288000,
      "d": 750,
      "v": 100
    },
    {
      "midi": 86,
      "hit": false,
      "t": 288000,
      "d": 750,
      "v": 100
    },
    {
      "midi": 45,
      "hit": false,
      "t": 288000,
      "d": 1125,
      "v": 100
    },
    {
      "midi": 38,
      "hit": false,
      "t": 288000,
      "d": 1500,
      "v": 100
    },
    {
      "midi": 74,
      "hit": false,
      "t": 288750,
      "d": 1500,
      "v": 100
    },
    {
      "midi": 78,
      "hit": false,
      "t": 288750,
      "d": 1500,
      "v": 100
    },
    {
      "midi": 86,
      "hit": false,
      "t": 288750,
      "d": 1500,
      "v": 100
    },
    {
      "midi": 90,
      "hit": false,
      "t": 288750,
      "d": 1500,
      "v": 100
    },
    {
      "midi": 69,
      "hit": false,
      "t": 289125,
      "d": 375,
      "v": 100
    },
    {
      "midi": 81,
      "hit": false,
      "t": 289125,
      "d": 375,
      "v": 100
    },
    {
      "midi": 69,
      "hit": false,
      "t": 289500,
      "d": 375,
      "v": 100
    },
    {
      "midi": 57,
      "hit": false,
      "t": 289500,
      "d": 1500,
      "v": 100
    },
    {
      "midi": 81,
      "hit": false,
      "t": 289500,
      "d": 375,
      "v": 100
    },
    {
      "midi": 45,
      "hit": false,
      "t": 289500,
      "d": 1500,
      "v": 100
    },
    {
      "midi": 71,
      "hit": false,
      "t": 289875,
      "d": 375,
      "v": 100
    },
    {
      "midi": 83,
      "hit": false,
      "t": 289875,
      "d": 375,
      "v": 100
    },
    {
      "midi": 69,
      "hit": false,
      "t": 290250,
      "d": 375,
      "v": 100
    },
    {
      "midi": 76,
      "hit": false,
      "t": 290250,
      "d": 750,
      "v": 100
    },
    {
      "midi": 73,
      "hit": false,
      "t": 290250,
      "d": 1500,
      "v": 100
    },
    {
      "midi": 81,
      "hit": false,
      "t": 290250,
      "d": 375,
      "v": 100
    },
    {
      "midi": 88,
      "hit": false,
      "t": 290250,
      "d": 750,
      "v": 100
    },
    {
      "midi": 85,
      "hit": false,
      "t": 290250,
      "d": 1500,
      "v": 100
    },
    {
      "midi": 67,
      "hit": false,
      "t": 290625,
      "d": 375,
      "v": 100
    },
    {
      "midi": 79,
      "hit": false,
      "t": 290625,
      "d": 375,
      "v": 100
    },
    {
      "midi": 74,
      "hit": false,
      "t": 291000,
      "d": 750,
      "v": 100
    },
    {
      "midi": 66,
      "hit": false,
      "t": 291000,
      "d": 1125,
      "v": 100
    },
    {
      "midi": 59,
      "hit": false,
      "t": 291000,
      "d": 1500,
      "v": 100
    },
    {
      "midi": 86,
      "hit": false,
      "t": 291000,
      "d": 750,
      "v": 100
    },
    {
      "midi": 78,
      "hit": false,
      "t": 291000,
      "d": 1125,
      "v": 100
    },
    {
      "midi": 47,
      "hit": false,
      "t": 291000,
      "d": 1500,
      "v": 100
    },
    {
      "midi": 83,
      "hit": false,
      "t": 291750,
      "d": 1500,
      "v": 100
    },
    {
      "midi": 86,
      "hit": false,
      "t": 291750,
      "d": 1500,
      "v": 100
    },
    {
      "midi": 95,
      "hit": false,
      "t": 291750,
      "d": 1500,
      "v": 100
    },
    {
      "midi": 98,
      "hit": false,
      "t": 291750,
      "d": 1500,
      "v": 100
    },
    {
      "midi": 66,
      "hit": false,
      "t": 292125,
      "d": 375,
      "v": 100
    },
    {
      "midi": 78,
      "hit": false,
      "t": 292125,
      "d": 375,
      "v": 100
    },
    {
      "midi": 66,
      "hit": false,
      "t": 292500,
      "d": 375,
      "v": 100
    },
    {
      "midi": 54,
      "hit": false,
      "t": 292500,
      "d": 1500,
      "v": 100
    },
    {
      "midi": 78,
      "hit": false,
      "t": 292500,
      "d": 375,
      "v": 100
    },
    {
      "midi": 42,
      "hit": false,
      "t": 292500,
      "d": 1500,
      "v": 100
    },
    {
      "midi": 67,
      "hit": false,
      "t": 292875,
      "d": 375,
      "v": 100
    },
    {
      "midi": 79,
      "hit": false,
      "t": 292875,
      "d": 375,
      "v": 100
    },
    {
      "midi": 66,
      "hit": false,
      "t": 293250,
      "d": 375,
      "v": 100
    },
    {
      "midi": 84,
      "hit": false,
      "t": 293250,
      "d": 750,
      "v": 100
    },
    {
      "midi": 81,
      "hit": false,
      "t": 293250,
      "d": 1500,
      "v": 100
    },
    {
      "midi": 78,
      "hit": false,
      "t": 293250,
      "d": 375,
      "v": 100
    },
    {
      "midi": 96,
      "hit": false,
      "t": 293250,
      "d": 750,
      "v": 100
    },
    {
      "midi": 93,
      "hit": false,
      "t": 293250,
      "d": 1500,
      "v": 100
    },
    {
      "midi": 64,
      "hit": false,
      "t": 293625,
      "d": 375,
      "v": 100
    },
    {
      "midi": 76,
      "hit": false,
      "t": 293625,
      "d": 375,
      "v": 100
    },
    {
      "midi": 83,
      "hit": false,
      "t": 294000,
      "d": 1500,
      "v": 100
    },
    {
      "midi": 62,
      "hit": false,
      "t": 294000,
      "d": 375,
      "v": 100
    },
    {
      "midi": 55,
      "hit": false,
      "t": 294000,
      "d": 1500,
      "v": 100
    },
    {
      "midi": 95,
      "hit": false,
      "t": 294000,
      "d": 1500,
      "v": 100
    },
    {
      "midi": 50,
      "hit": false,
      "t": 294000,
      "d": 375,
      "v": 100
    },
    {
      "midi": 43,
      "hit": false,
      "t": 294000,
      "d": 1500,
      "v": 100
    },
    {
      "midi": 60,
      "hit": false,
      "t": 294375,
      "d": 375,
      "v": 100
    },
    {
      "midi": 48,
      "hit": false,
      "t": 294375,
      "d": 375,
      "v": 100
    },
    {
      "midi": 79,
      "hit": false,
      "t": 294750,
      "d": 1500,
      "v": 100
    },
    {
      "midi": 59,
      "hit": false,
      "t": 294750,
      "d": 375,
      "v": 100
    },
    {
      "midi": 91,
      "hit": false,
      "t": 294750,
      "d": 1500,
      "v": 100
    },
    {
      "midi": 47,
      "hit": false,
      "t": 294750,
      "d": 375,
      "v": 100
    },
    {
      "midi": 60,
      "hit": false,
      "t": 295125,
      "d": 375,
      "v": 100
    },
    {
      "midi": 48,
      "hit": false,
      "t": 295125,
      "d": 375,
      "v": 100
    },
    {
      "midi": 86,
      "hit": false,
      "t": 295500,
      "d": 750,
      "v": 100
    },
    {
      "midi": 57,
      "hit": false,
      "t": 295500,
      "d": 1125,
      "v": 100
    },
    {
      "midi": 50,
      "hit": false,
      "t": 295500,
      "d": 1500,
      "v": 100
    },
    {
      "midi": 98,
      "hit": false,
      "t": 295500,
      "d": 750,
      "v": 100
    },
    {
      "midi": 45,
      "hit": false,
      "t": 295500,
      "d": 1125,
      "v": 100
    },
    {
      "midi": 38,
      "hit": false,
      "t": 295500,
      "d": 1500,
      "v": 100
    },
    {
      "midi": 81,
      "hit": false,
      "t": 296250,
      "d": 750,
      "v": 100
    },
    {
      "midi": 78,
      "hit": false,
      "t": 296250,
      "d": 1875,
      "v": 100
    },
    {
      "midi": 93,
      "hit": false,
      "t": 296250,
      "d": 750,
      "v": 100
    },
    {
      "midi": 90,
      "hit": false,
      "t": 296250,
      "d": 1875,
      "v": 100
    },
    {
      "midi": 57,
      "hit": false,
      "t": 296625,
      "d": 375,
      "v": 100
    },
    {
      "midi": 45,
      "hit": false,
      "t": 296625,
      "d": 375,
      "v": 100
    },
    {
      "midi": 83,
      "hit": false,
      "t": 297000,
      "d": 1500,
      "v": 100
    },
    {
      "midi": 55,
      "hit": false,
      "t": 297000,
      "d": 750,
      "v": 100
    },
    {
      "midi": 43,
      "hit": false,
      "t": 297000,
      "d": 1500,
      "v": 100
    },
    {
      "midi": 95,
      "hit": false,
      "t": 297000,
      "d": 1500,
      "v": 100
    },
    {
      "midi": 43,
      "hit": false,
      "t": 297000,
      "d": 750,
      "v": 100
    },
    {
      "midi": 31,
      "hit": false,
      "t": 297000,
      "d": 1500,
      "v": 100
    },
    {
      "midi": 62,
      "hit": false,
      "t": 297750,
      "d": 750,
      "v": 100
    },
    {
      "midi": 50,
      "hit": false,
      "t": 297750,
      "d": 750,
      "v": 100
    },
    {
      "midi": 76,
      "hit": false,
      "t": 298125,
      "d": 375,
      "v": 100
    },
    {
      "midi": 88,
      "hit": false,
      "t": 298125,
      "d": 375,
      "v": 100
    },
    {
      "midi": 76,
      "hit": false,
      "t": 298500,
      "d": 1500,
      "v": 100
    },
    {
      "midi": 81,
      "hit": false,
      "t": 298500,
      "d": 1500,
      "v": 100
    },
    {
      "midi": 61,
      "hit": false,
      "t": 298500,
      "d": 1125,
      "v": 100
    },
    {
      "midi": 45,
      "hit": false,
      "t": 298500,
      "d": 1500,
      "v": 100
    },
    {
      "midi": 88,
      "hit": false,
      "t": 298500,
      "d": 1500,
      "v": 100
    },
    {
      "midi": 93,
      "hit": false,
      "t": 298500,
      "d": 1500,
      "v": 100
    },
    {
      "midi": 49,
      "hit": false,
      "t": 298500,
      "d": 1125,
      "v": 100
    },
    {
      "midi": 33,
      "hit": false,
      "t": 298500,
      "d": 1500,
      "v": 100
    },
    {
      "midi": 61,
      "hit": false,
      "t": 299625,
      "d": 375,
      "v": 100
    },
    {
      "midi": 49,
      "hit": false,
      "t": 299625,
      "d": 375,
      "v": 100
    },
    {
      "midi": 69,
      "hit": false,
      "t": 300000,
      "d": 750,
      "v": 100
    },
    {
      "midi": 74,
      "hit": false,
      "t": 300000,
      "d": 750,
      "v": 100
    },
    {
      "midi": 78,
      "hit": false,
      "t": 300000,
      "d": 750,
      "v": 100
    },
    {
      "midi": 50,
      "hit": false,
      "t": 300000,
      "d": 1500,
      "v": 100
    },
    {
      "midi": 62,
      "hit": false,
      "t": 300000,
      "d": 1500,
      "v": 100
    },
    {
      "midi": 81,
      "hit": false,
      "t": 300000,
      "d": 750,
      "v": 100
    },
    {
      "midi": 86,
      "hit": false,
      "t": 300000,
      "d": 750,
      "v": 100
    },
    {
      "midi": 90,
      "hit": false,
      "t": 300000,
      "d": 750,
      "v": 100
    },
    {
      "midi": 38,
      "hit": false,
      "t": 300000,
      "d": 1500,
      "v": 100
    },
    {
      "midi": 50,
      "hit": false,
      "t": 300000,
      "d": 1500,
      "v": 100
    },
    {
      "midi": 78,
      "hit": false,
      "t": 300750,
      "d": 1500,
      "v": 100
    },
    {
      "midi": 86,
      "hit": false,
      "t": 300750,
      "d": 1500,
      "v": 100
    },
    {
      "midi": 90,
      "hit": false,
      "t": 300750,
      "d": 1500,
      "v": 100
    },
    {
      "midi": 98,
      "hit": false,
      "t": 300750,
      "d": 1500,
      "v": 100
    },
    {
      "midi": 69,
      "hit": false,
      "t": 301500,
      "d": 1125,
      "v": 100
    },
    {
      "midi": 57,
      "hit": false,
      "t": 301500,
      "d": 1500,
      "v": 100
    },
    {
      "midi": 81,
      "hit": false,
      "t": 301500,
      "d": 1125,
      "v": 100
    },
    {
      "midi": 45,
      "hit": false,
      "t": 301500,
      "d": 1500,
      "v": 100
    },
    {
      "midi": 76,
      "hit": false,
      "t": 302250,
      "d": 750,
      "v": 100
    },
    {
      "midi": 85,
      "hit": false,
      "t": 302250,
      "d": 1500,
      "v": 100
    },
    {
      "midi": 88,
      "hit": false,
      "t": 302250,
      "d": 750,
      "v": 100
    },
    {
      "midi": 97,
      "hit": false,
      "t": 302250,
      "d": 1500,
      "v": 100
    },
    {
      "midi": 67,
      "hit": false,
      "t": 302625,
      "d": 375,
      "v": 100
    },
    {
      "midi": 79,
      "hit": false,
      "t": 302625,
      "d": 375,
      "v": 100
    },
    {
      "midi": 74,
      "hit": false,
      "t": 303000,
      "d": 2250,
      "v": 100
    },
    {
      "midi": 59,
      "hit": false,
      "t": 303000,
      "d": 1500,
      "v": 100
    },
    {
      "midi": 66,
      "hit": false,
      "t": 303000,
      "d": 1500,
      "v": 100
    },
    {
      "midi": 86,
      "hit": false,
      "t": 303000,
      "d": 2250,
      "v": 100
    },
    {
      "midi": 47,
      "hit": false,
      "t": 303000,
      "d": 1500,
      "v": 100
    },
    {
      "midi": 54,
      "hit": false,
      "t": 303000,
      "d": 1500,
      "v": 100
    },
    {
      "midi": 83,
      "hit": false,
      "t": 303750,
      "d": 1500,
      "v": 100
    },
    {
      "midi": 95,
      "hit": false,
      "t": 303750,
      "d": 1500,
      "v": 100
    },
    {
      "midi": 66,
      "hit": false,
      "t": 304500,
      "d": 1125,
      "v": 100
    },
    {
      "midi": 54,
      "hit": false,
      "t": 304500,
      "d": 1500,
      "v": 100
    },
    {
      "midi": 54,
      "hit": false,
      "t": 304500,
      "d": 1125,
      "v": 100
    },
    {
      "midi": 42,
      "hit": false,
      "t": 304500,
      "d": 1500,
      "v": 100
    },
    {
      "midi": 72,
      "hit": false,
      "t": 305250,
      "d": 750,
      "v": 100
    },
    {
      "midi": 81,
      "hit": false,
      "t": 305250,
      "d": 1500,
      "v": 100
    },
    {
      "midi": 84,
      "hit": false,
      "t": 305250,
      "d": 750,
      "v": 100
    },
    {
      "midi": 93,
      "hit": false,
      "t": 305250,
      "d": 1500,
      "v": 100
    },
    {
      "midi": 64,
      "hit": false,
      "t": 305625,
      "d": 375,
      "v": 100
    },
    {
      "midi": 52,
      "hit": false,
      "t": 305625,
      "d": 375,
      "v": 100
    },
    {
      "midi": 71,
      "hit": false,
      "t": 306000,
      "d": 1500,
      "v": 100
    },
    {
      "midi": 55,
      "hit": false,
      "t": 306000,
      "d": 1500,
      "v": 100
    },
    {
      "midi": 62,
      "hit": false,
      "t": 306000,
      "d": 2250,
      "v": 100
    },
    {
      "midi": 83,
      "hit": false,
      "t": 306000,
      "d": 1500,
      "v": 100
    },
    {
      "midi": 43,
      "hit": false,
      "t": 306000,
      "d": 1500,
      "v": 100
    },
    {
      "midi": 50,
      "hit": false,
      "t": 306000,
      "d": 2250,
      "v": 100
    },
    {
      "midi": 79,
      "hit": false,
      "t": 306750,
      "d": 1500,
      "v": 100
    },
    {
      "midi": 91,
      "hit": false,
      "t": 306750,
      "d": 1500,
      "v": 100
    },
    {
      "midi": 74,
      "hit": false,
      "t": 307500,
      "d": 750,
      "v": 100
    },
    {
      "midi": 50,
      "hit": false,
      "t": 307500,
      "d": 1500,
      "v": 100
    },
    {
      "midi": 86,
      "hit": false,
      "t": 307500,
      "d": 750,
      "v": 100
    },
    {
      "midi": 38,
      "hit": false,
      "t": 307500,
      "d": 1500,
      "v": 100
    },
    {
      "midi": 69,
      "hit": false,
      "t": 308250,
      "d": 750,
      "v": 100
    },
    {
      "midi": 78,
      "hit": false,
      "t": 308250,
      "d": 1875,
      "v": 100
    },
    {
      "midi": 62,
      "hit": false,
      "t": 308250,
      "d": 750,
      "v": 100
    },
    {
      "midi": 81,
      "hit": false,
      "t": 308250,
      "d": 750,
      "v": 100
    },
    {
      "midi": 90,
      "hit": false,
      "t": 308250,
      "d": 1875,
      "v": 100
    },
    {
      "midi": 50,
      "hit": false,
      "t": 308250,
      "d": 750,
      "v": 100
    },
    {
      "midi": 71,
      "hit": false,
      "t": 309000,
      "d": 1500,
      "v": 100
    },
    {
      "midi": 55,
      "hit": false,
      "t": 309000,
      "d": 1500,
      "v": 100
    },
    {
      "midi": 62,
      "hit": false,
      "t": 309000,
      "d": 1500,
      "v": 100
    },
    {
      "midi": 83,
      "hit": false,
      "t": 309000,
      "d": 1500,
      "v": 100
    },
    {
      "midi": 43,
      "hit": false,
      "t": 309000,
      "d": 1500,
      "v": 100
    },
    {
      "midi": 50,
      "hit": false,
      "t": 309000,
      "d": 1500,
      "v": 100
    },
    {
      "midi": 76,
      "hit": false,
      "t": 310125,
      "d": 375,
      "v": 100
    },
    {
      "midi": 88,
      "hit": false,
      "t": 310125,
      "d": 375,
      "v": 100
    },
    {
      "midi": 69,
      "hit": false,
      "t": 310500,
      "d": 1500,
      "v": 100
    },
    {
      "midi": 76,
      "hit": false,
      "t": 310500,
      "d": 1500,
      "v": 100
    },
    {
      "midi": 57,
      "hit": false,
      "t": 310500,
      "d": 1500,
      "v": 100
    },
    {
      "midi": 61,
      "hit": false,
      "t": 310500,
      "d": 1500,
      "v": 100
    },
    {
      "midi": 81,
      "hit": false,
      "t": 310500,
      "d": 1500,
      "v": 100
    },
    {
      "midi": 88,
      "hit": false,
      "t": 310500,
      "d": 1500,
      "v": 100
    },
    {
      "midi": 45,
      "hit": false,
      "t": 310500,
      "d": 1500,
      "v": 100
    },
    {
      "midi": 49,
      "hit": false,
      "t": 310500,
      "d": 1500,
      "v": 100
    },
    {
      "midi": 69,
      "hit": false,
      "t": 312000,
      "d": 750,
      "v": 100
    },
    {
      "midi": 74,
      "hit": false,
      "t": 312000,
      "d": 750,
      "v": 100
    },
    {
      "midi": 66,
      "hit": false,
      "t": 312000,
      "d": 750,
      "v": 100
    },
    {
      "midi": 50,
      "hit": false,
      "t": 312000,
      "d": 1500,
      "v": 100
    },
    {
      "midi": 81,
      "hit": false,
      "t": 312000,
      "d": 750,
      "v": 100
    },
    {
      "midi": 86,
      "hit": false,
      "t": 312000,
      "d": 750,
      "v": 100
    },
    {
      "midi": 54,
      "hit": false,
      "t": 312000,
      "d": 750,
      "v": 100
    },
    {
      "midi": 38,
      "hit": false,
      "t": 312000,
      "d": 1500,
      "v": 100
    },
    {
      "midi": 69,
      "hit": false,
      "t": 312750,
      "d": 750,
      "v": 100
    },
    {
      "midi": 74,
      "hit": false,
      "t": 312750,
      "d": 750,
      "v": 100
    },
    {
      "midi": 66,
      "hit": false,
      "t": 312750,
      "d": 1500,
      "v": 100
    },
    {
      "midi": 81,
      "hit": false,
      "t": 312750,
      "d": 750,
      "v": 100
    },
    {
      "midi": 86,
      "hit": false,
      "t": 312750,
      "d": 750,
      "v": 100
    },
    {
      "midi": 54,
      "hit": false,
      "t": 312750,
      "d": 1500,
      "v": 100
    },
    {
      "midi": 73,
      "hit": false,
      "t": 313500,
      "d": 750,
      "v": 100
    },
    {
      "midi": 69,
      "hit": false,
      "t": 313500,
      "d": 1125,
      "v": 100
    },
    {
      "midi": 45,
      "hit": false,
      "t": 313500,
      "d": 1500,
      "v": 100
    },
    {
      "midi": 85,
      "hit": false,
      "t": 313500,
      "d": 750,
      "v": 100
    },
    {
      "midi": 81,
      "hit": false,
      "t": 313500,
      "d": 1125,
      "v": 100
    },
    {
      "midi": 33,
      "hit": false,
      "t": 313500,
      "d": 1500,
      "v": 100
    },
    {
      "midi": 73,
      "hit": false,
      "t": 314250,
      "d": 750,
      "v": 100
    },
    {
      "midi": 61,
      "hit": false,
      "t": 314250,
      "d": 750,
      "v": 100
    },
    {
      "midi": 85,
      "hit": false,
      "t": 314250,
      "d": 750,
      "v": 100
    },
    {
      "midi": 49,
      "hit": false,
      "t": 314250,
      "d": 750,
      "v": 100
    },
    {
      "midi": 67,
      "hit": false,
      "t": 314625,
      "d": 375,
      "v": 100
    },
    {
      "midi": 79,
      "hit": false,
      "t": 314625,
      "d": 375,
      "v": 100
    },
    {
      "midi": 71,
      "hit": false,
      "t": 315000,
      "d": 750,
      "v": 100
    },
    {
      "midi": 66,
      "hit": false,
      "t": 315000,
      "d": 1500,
      "v": 100
    },
    {
      "midi": 62,
      "hit": false,
      "t": 315000,
      "d": 750,
      "v": 100
    },
    {
      "midi": 47,
      "hit": false,
      "t": 315000,
      "d": 1500,
      "v": 100
    },
    {
      "midi": 83,
      "hit": false,
      "t": 315000,
      "d": 750,
      "v": 100
    },
    {
      "midi": 78,
      "hit": false,
      "t": 315000,
      "d": 1500,
      "v": 100
    },
    {
      "midi": 50,
      "hit": false,
      "t": 315000,
      "d": 750,
      "v": 100
    },
    {
      "midi": 35,
      "hit": false,
      "t": 315000,
      "d": 1500,
      "v": 100
    },
    {
      "midi": 71,
      "hit": false,
      "t": 315750,
      "d": 750,
      "v": 100
    },
    {
      "midi": 62,
      "hit": false,
      "t": 315750,
      "d": 1500,
      "v": 100
    },
    {
      "midi": 83,
      "hit": false,
      "t": 315750,
      "d": 750,
      "v": 100
    },
    {
      "midi": 50,
      "hit": false,
      "t": 315750,
      "d": 1500,
      "v": 100
    },
    {
      "midi": 69,
      "hit": false,
      "t": 316500,
      "d": 750,
      "v": 100
    },
    {
      "midi": 66,
      "hit": false,
      "t": 316500,
      "d": 1125,
      "v": 100
    },
    {
      "midi": 54,
      "hit": false,
      "t": 316500,
      "d": 1500,
      "v": 100
    },
    {
      "midi": 81,
      "hit": false,
      "t": 316500,
      "d": 750,
      "v": 100
    },
    {
      "midi": 78,
      "hit": false,
      "t": 316500,
      "d": 1125,
      "v": 100
    },
    {
      "midi": 42,
      "hit": false,
      "t": 316500,
      "d": 1500,
      "v": 100
    },
    {
      "midi": 69,
      "hit": false,
      "t": 317250,
      "d": 750,
      "v": 100
    },
    {
      "midi": 60,
      "hit": false,
      "t": 317250,
      "d": 750,
      "v": 100
    },
    {
      "midi": 81,
      "hit": false,
      "t": 317250,
      "d": 750,
      "v": 100
    },
    {
      "midi": 48,
      "hit": false,
      "t": 317250,
      "d": 750,
      "v": 100
    },
    {
      "midi": 64,
      "hit": false,
      "t": 317625,
      "d": 375,
      "v": 100
    },
    {
      "midi": 76,
      "hit": false,
      "t": 317625,
      "d": 375,
      "v": 100
    },
    {
      "midi": 67,
      "hit": false,
      "t": 318000,
      "d": 750,
      "v": 100
    },
    {
      "midi": 62,
      "hit": false,
      "t": 318000,
      "d": 2250,
      "v": 100
    },
    {
      "midi": 55,
      "hit": false,
      "t": 318000,
      "d": 1500,
      "v": 100
    },
    {
      "midi": 59,
      "hit": false,
      "t": 318000,
      "d": 1500,
      "v": 100
    },
    {
      "midi": 79,
      "hit": false,
      "t": 318000,
      "d": 750,
      "v": 100
    },
    {
      "midi": 74,
      "hit": false,
      "t": 318000,
      "d": 2250,
      "v": 100
    },
    {
      "midi": 43,
      "hit": false,
      "t": 318000,
      "d": 1500,
      "v": 100
    },
    {
      "midi": 47,
      "hit": false,
      "t": 318000,
      "d": 1500,
      "v": 100
    },
    {
      "midi": 79,
      "hit": false,
      "t": 318750,
      "d": 750,
      "v": 100
    },
    {
      "midi": 91,
      "hit": false,
      "t": 318750,
      "d": 750,
      "v": 100
    },
    {
      "midi": 78,
      "hit": false,
      "t": 319500,
      "d": 750,
      "v": 100
    },
    {
      "midi": 62,
      "hit": false,
      "t": 319500,
      "d": 750,
      "v": 100
    },
    {
      "midi": 50,
      "hit": false,
      "t": 319500,
      "d": 1500,
      "v": 100
    },
    {
      "midi": 90,
      "hit": false,
      "t": 319500,
      "d": 750,
      "v": 100
    },
    {
      "midi": 50,
      "hit": false,
      "t": 319500,
      "d": 750,
      "v": 100
    },
    {
      "midi": 38,
      "hit": false,
      "t": 319500,
      "d": 1500,
      "v": 100
    },
    {
      "midi": 62,
      "hit": false,
      "t": 320250,
      "d": 750,
      "v": 100
    },
    {
      "midi": 66,
      "hit": false,
      "t": 320250,
      "d": 750,
      "v": 100
    },
    {
      "midi": 57,
      "hit": false,
      "t": 320250,
      "d": 750,
      "v": 100
    },
    {
      "midi": 74,
      "hit": false,
      "t": 320250,
      "d": 750,
      "v": 100
    },
    {
      "midi": 78,
      "hit": false,
      "t": 320250,
      "d": 750,
      "v": 100
    },
    {
      "midi": 45,
      "hit": false,
      "t": 320250,
      "d": 750,
      "v": 100
    },
    {
      "midi": 64,
      "hit": false,
      "t": 321000,
      "d": 750,
      "v": 100
    },
    {
      "midi": 62,
      "hit": false,
      "t": 321000,
      "d": 1500,
      "v": 100
    },
    {
      "midi": 55,
      "hit": false,
      "t": 321000,
      "d": 1500,
      "v": 100
    },
    {
      "midi": 59,
      "hit": false,
      "t": 321000,
      "d": 1500,
      "v": 100
    },
    {
      "midi": 76,
      "hit": false,
      "t": 321000,
      "d": 750,
      "v": 100
    },
    {
      "midi": 74,
      "hit": false,
      "t": 321000,
      "d": 1500,
      "v": 100
    },
    {
      "midi": 43,
      "hit": false,
      "t": 321000,
      "d": 1500,
      "v": 100
    },
    {
      "midi": 47,
      "hit": false,
      "t": 321000,
      "d": 1500,
      "v": 100
    },
    {
      "midi": 71,
      "hit": false,
      "t": 321750,
      "d": 750,
      "v": 100
    },
    {
      "midi": 83,
      "hit": false,
      "t": 321750,
      "d": 750,
      "v": 100
    },
    {
      "midi": 64,
      "hit": false,
      "t": 322500,
      "d": 750,
      "v": 100
    },
    {
      "midi": 61,
      "hit": false,
      "t": 322500,
      "d": 1500,
      "v": 100
    },
    {
      "midi": 45,
      "hit": false,
      "t": 322500,
      "d": 1500,
      "v": 100
    },
    {
      "midi": 57,
      "hit": false,
      "t": 322500,
      "d": 1500,
      "v": 100
    },
    {
      "midi": 76,
      "hit": false,
      "t": 322500,
      "d": 750,
      "v": 100
    },
    {
      "midi": 73,
      "hit": false,
      "t": 322500,
      "d": 1500,
      "v": 100
    },
    {
      "midi": 33,
      "hit": false,
      "t": 322500,
      "d": 1500,
      "v": 100
    },
    {
      "midi": 45,
      "hit": false,
      "t": 322500,
      "d": 1500,
      "v": 100
    },
    {
      "midi": 76,
      "hit": false,
      "t": 323250,
      "d": 750,
      "v": 100
    },
    {
      "midi": 88,
      "hit": false,
      "t": 323250,
      "d": 750,
      "v": 100
    },
    {
      "midi": 62,
      "hit": false,
      "t": 324000,
      "d": 750,
      "v": 100
    },
    {
      "midi": 78,
      "hit": false,
      "t": 324000,
      "d": 750,
      "v": 100
    },
    {
      "midi": 50,
      "hit": false,
      "t": 324000,
      "d": 1500,
      "v": 100
    },
    {
      "midi": 57,
      "hit": false,
      "t": 324000,
      "d": 1500,
      "v": 100
    },
    {
      "midi": 74,
      "hit": false,
      "t": 324000,
      "d": 750,
      "v": 100
    },
    {
      "midi": 90,
      "hit": false,
      "t": 324000,
      "d": 750,
      "v": 100
    },
    {
      "midi": 38,
      "hit": false,
      "t": 324000,
      "d": 1500,
      "v": 100
    },
    {
      "midi": 45,
      "hit": false,
      "t": 324000,
      "d": 1500,
      "v": 100
    },
    {
      "midi": 66,
      "hit": false,
      "t": 324750,
      "d": 750,
      "v": 100
    },
    {
      "midi": 74,
      "hit": false,
      "t": 324750,
      "d": 750,
      "v": 100
    },
    {
      "midi": 78,
      "hit": false,
      "t": 324750,
      "d": 750,
      "v": 100
    },
    {
      "midi": 86,
      "hit": false,
      "t": 324750,
      "d": 750,
      "v": 100
    },
    {
      "midi": 61,
      "hit": false,
      "t": 325500,
      "d": 750,
      "v": 100
    },
    {
      "midi": 64,
      "hit": false,
      "t": 325500,
      "d": 750,
      "v": 100
    },
    {
      "midi": 57,
      "hit": false,
      "t": 325500,
      "d": 1125,
      "v": 100
    },
    {
      "midi": 45,
      "hit": false,
      "t": 325500,
      "d": 1500,
      "v": 100
    },
    {
      "midi": 73,
      "hit": false,
      "t": 325500,
      "d": 750,
      "v": 100
    },
    {
      "midi": 76,
      "hit": false,
      "t": 325500,
      "d": 750,
      "v": 100
    },
    {
      "midi": 45,
      "hit": false,
      "t": 325500,
      "d": 1125,
      "v": 100
    },
    {
      "midi": 33,
      "hit": false,
      "t": 325500,
      "d": 1500,
      "v": 100
    },
    {
      "midi": 73,
      "hit": false,
      "t": 326250,
      "d": 750,
      "v": 100
    },
    {
      "midi": 76,
      "hit": false,
      "t": 326250,
      "d": 750,
      "v": 100
    },
    {
      "midi": 85,
      "hit": false,
      "t": 326250,
      "d": 750,
      "v": 100
    },
    {
      "midi": 88,
      "hit": false,
      "t": 326250,
      "d": 750,
      "v": 100
    },
    {
      "midi": 55,
      "hit": false,
      "t": 326625,
      "d": 375,
      "v": 100
    },
    {
      "midi": 43,
      "hit": false,
      "t": 326625,
      "d": 375,
      "v": 100
    },
    {
      "midi": 71,
      "hit": false,
      "t": 327000,
      "d": 750,
      "v": 100
    },
    {
      "midi": 74,
      "hit": false,
      "t": 327000,
      "d": 750,
      "v": 100
    },
    {
      "midi": 47,
      "hit": false,
      "t": 327000,
      "d": 1500,
      "v": 100
    },
    {
      "midi": 54,
      "hit": false,
      "t": 327000,
      "d": 1500,
      "v": 100
    },
    {
      "midi": 83,
      "hit": false,
      "t": 327000,
      "d": 750,
      "v": 100
    },
    {
      "midi": 86,
      "hit": false,
      "t": 327000,
      "d": 750,
      "v": 100
    },
    {
      "midi": 35,
      "hit": false,
      "t": 327000,
      "d": 1500,
      "v": 100
    },
    {
      "midi": 42,
      "hit": false,
      "t": 327000,
      "d": 1500,
      "v": 100
    },
    {
      "midi": 59,
      "hit": false,
      "t": 327750,
      "d": 750,
      "v": 100
    },
    {
      "midi": 62,
      "hit": false,
      "t": 327750,
      "d": 750,
      "v": 100
    },
    {
      "midi": 71,
      "hit": false,
      "t": 327750,
      "d": 750,
      "v": 100
    },
    {
      "midi": 74,
      "hit": false,
      "t": 327750,
      "d": 750,
      "v": 100
    },
    {
      "midi": 57,
      "hit": false,
      "t": 328500,
      "d": 750,
      "v": 100
    },
    {
      "midi": 61,
      "hit": false,
      "t": 328500,
      "d": 750,
      "v": 100
    },
    {
      "midi": 54,
      "hit": false,
      "t": 328500,
      "d": 1125,
      "v": 100
    },
    {
      "midi": 42,
      "hit": false,
      "t": 328500,
      "d": 1500,
      "v": 100
    },
    {
      "midi": 69,
      "hit": false,
      "t": 328500,
      "d": 750,
      "v": 100
    },
    {
      "midi": 73,
      "hit": false,
      "t": 328500,
      "d": 750,
      "v": 100
    },
    {
      "midi": 42,
      "hit": false,
      "t": 328500,
      "d": 1125,
      "v": 100
    },
    {
      "midi": 30,
      "hit": false,
      "t": 328500,
      "d": 1500,
      "v": 100
    },
    {
      "midi": 69,
      "hit": false,
      "t": 329250,
      "d": 750,
      "v": 100
    },
    {
      "midi": 73,
      "hit": false,
      "t": 329250,
      "d": 750,
      "v": 100
    },
    {
      "midi": 81,
      "hit": false,
      "t": 329250,
      "d": 750,
      "v": 100
    },
    {
      "midi": 85,
      "hit": false,
      "t": 329250,
      "d": 750,
      "v": 100
    },
    {
      "midi": 52,
      "hit": false,
      "t": 329625,
      "d": 375,
      "v": 100
    },
    {
      "midi": 40,
      "hit": false,
      "t": 329625,
      "d": 375,
      "v": 100
    },
    {
      "midi": 67,
      "hit": false,
      "t": 330000,
      "d": 750,
      "v": 100
    },
    {
      "midi": 71,
      "hit": false,
      "t": 330000,
      "d": 750,
      "v": 100
    },
    {
      "midi": 43,
      "hit": false,
      "t": 330000,
      "d": 1500,
      "v": 100
    },
    {
      "midi": 50,
      "hit": false,
      "t": 330000,
      "d": 1500,
      "v": 100
    },
    {
      "midi": 79,
      "hit": false,
      "t": 330000,
      "d": 750,
      "v": 100
    },
    {
      "midi": 83,
      "hit": false,
      "t": 330000,
      "d": 750,
      "v": 100
    },
    {
      "midi": 31,
      "hit": false,
      "t": 330000,
      "d": 1500,
      "v": 100
    },
    {
      "midi": 38,
      "hit": false,
      "t": 330000,
      "d": 1500,
      "v": 100
    },
    {
      "midi": 79,
      "hit": false,
      "t": 330750,
      "d": 750,
      "v": 100
    },
    {
      "midi": 83,
      "hit": false,
      "t": 330750,
      "d": 750,
      "v": 100
    },
    {
      "midi": 91,
      "hit": false,
      "t": 330750,
      "d": 750,
      "v": 100
    },
    {
      "midi": 95,
      "hit": false,
      "t": 330750,
      "d": 750,
      "v": 100
    },
    {
      "midi": 78,
      "hit": false,
      "t": 331500,
      "d": 750,
      "v": 100
    },
    {
      "midi": 81,
      "hit": false,
      "t": 331500,
      "d": 750,
      "v": 100
    },
    {
      "midi": 38,
      "hit": false,
      "t": 331500,
      "d": 1500,
      "v": 100
    },
    {
      "midi": 50,
      "hit": false,
      "t": 331500,
      "d": 1500,
      "v": 100
    },
    {
      "midi": 90,
      "hit": false,
      "t": 331500,
      "d": 750,
      "v": 100
    },
    {
      "midi": 93,
      "hit": false,
      "t": 331500,
      "d": 750,
      "v": 100
    },
    {
      "midi": 26,
      "hit": false,
      "t": 331500,
      "d": 1500,
      "v": 100
    },
    {
      "midi": 38,
      "hit": false,
      "t": 331500,
      "d": 1500,
      "v": 100
    },
    {
      "midi": 66,
      "hit": false,
      "t": 332250,
      "d": 750,
      "v": 100
    },
    {
      "midi": 69,
      "hit": false,
      "t": 332250,
      "d": 750,
      "v": 100
    },
    {
      "midi": 78,
      "hit": false,
      "t": 332250,
      "d": 750,
      "v": 100
    },
    {
      "midi": 81,
      "hit": false,
      "t": 332250,
      "d": 750,
      "v": 100
    },
    {
      "midi": 64,
      "hit": false,
      "t": 333000,
      "d": 750,
      "v": 100
    },
    {
      "midi": 67,
      "hit": false,
      "t": 333000,
      "d": 1125,
      "v": 100
    },
    {
      "midi": 43,
      "hit": false,
      "t": 333000,
      "d": 1500,
      "v": 100
    },
    {
      "midi": 50,
      "hit": false,
      "t": 333000,
      "d": 1500,
      "v": 100
    },
    {
      "midi": 76,
      "hit": false,
      "t": 333000,
      "d": 750,
      "v": 100
    },
    {
      "midi": 79,
      "hit": false,
      "t": 333000,
      "d": 1125,
      "v": 100
    },
    {
      "midi": 31,
      "hit": false,
      "t": 333000,
      "d": 1500,
      "v": 100
    },
    {
      "midi": 38,
      "hit": false,
      "t": 333000,
      "d": 1500,
      "v": 100
    },
    {
      "midi": 71,
      "hit": false,
      "t": 333750,
      "d": 750,
      "v": 100
    },
    {
      "midi": 83,
      "hit": false,
      "t": 333750,
      "d": 750,
      "v": 100
    },
    {
      "midi": 76,
      "hit": false,
      "t": 334125,
      "d": 375,
      "v": 100
    },
    {
      "midi": 88,
      "hit": false,
      "t": 334125,
      "d": 375,
      "v": 100
    },
    {
      "midi": 64,
      "hit": false,
      "t": 334500,
      "d": 750,
      "v": 100
    },
    {
      "midi": 69,
      "hit": false,
      "t": 334500,
      "d": 750,
      "v": 100
    },
    {
      "midi": 45,
      "hit": false,
      "t": 334500,
      "d": 1500,
      "v": 100
    },
    {
      "midi": 49,
      "hit": false,
      "t": 334500,
      "d": 1500,
      "v": 100
    },
    {
      "midi": 76,
      "hit": false,
      "t": 334500,
      "d": 750,
      "v": 100
    },
    {
      "midi": 81,
      "hit": false,
      "t": 334500,
      "d": 750,
      "v": 100
    },
    {
      "midi": 33,
      "hit": false,
      "t": 334500,
      "d": 1500,
      "v": 100
    },
    {
      "midi": 37,
      "hit": false,
      "t": 334500,
      "d": 1500,
      "v": 100
    },
    {
      "midi": 69,
      "hit": false,
      "t": 335250,
      "d": 750,
      "v": 100
    },
    {
      "midi": 76,
      "hit": false,
      "t": 335250,
      "d": 750,
      "v": 100
    },
    {
      "midi": 81,
      "hit": false,
      "t": 335250,
      "d": 750,
      "v": 100
    },
    {
      "midi": 88,
      "hit": false,
      "t": 335250,
      "d": 750,
      "v": 100
    },
    {
      "midi": 69,
      "hit": false,
      "t": 336000,
      "d": 6000,
      "v": 100
    },
    {
      "midi": 74,
      "hit": false,
      "t": 336000,
      "d": 6000,
      "v": 100
    },
    {
      "midi": 78,
      "hit": false,
      "t": 336000,
      "d": 6000,
      "v": 100
    },
    {
      "midi": 38,
      "hit": false,
      "t": 336000,
      "d": 6000,
      "v": 100
    },
    {
      "midi": 50,
      "hit": false,
      "t": 336000,
      "d": 6000,
      "v": 100
    },
    {
      "midi": 81,
      "hit": false,
      "t": 336000,
      "d": 6000,
      "v": 100
    },
    {
      "midi": 86,
      "hit": false,
      "t": 336000,
      "d": 6000,
      "v": 100
    },
    {
      "midi": 90,
      "hit": false,
      "t": 336000,
      "d": 6000,
      "v": 100
    },
    {
      "midi": 26,
      "hit": false,
      "t": 336000,
      "d": 6000,
      "v": 100
    },
    {
      "midi": 38,
      "hit": false,
      "t": 336000,
      "d": 6000,
      "v": 100
    }
  ]
}