{
  "jsonPath": "Animes/To Heart MIDI Collection/brand-eew-heart.json",
  "path": "Animes\\To Heart MIDI Collection\\Brand Eew Heart.mid",
  "name": "Brand Eew Heart",
  "difficulty": "Advanced",
  "bpm": 120,
  "notes": [
    {
      "midi": 69,
      "hit": false,
      "t": 0,
      "d": 1333.332,
      "v": 100
    },
    {
      "midi": 76,
      "hit": false,
      "t": 0,
      "d": 1333.332,
      "v": 100
    },
    {
      "midi": 53,
      "hit": false,
      "t": 0,
      "d": 2544.4419000000003,
      "v": 85
    },
    {
      "midi": 64,
      "hit": false,
      "t": 0,
      "d": 2544.4419000000003,
      "v": 85
    },
    {
      "midi": 60,
      "hit": false,
      "t": 0,
      "d": 2544.4419000000003,
      "v": 85
    },
    {
      "midi": 57,
      "hit": false,
      "t": 0,
      "d": 2544.4419000000003,
      "v": 85
    },
    {
      "midi": 76,
      "hit": false,
      "t": 1333.332,
      "d": 1333.332,
      "v": 100
    },
    {
      "midi": 81,
      "hit": false,
      "t": 1333.332,
      "d": 1333.332,
      "v": 100
    },
    {
      "midi": 53,
      "hit": false,
      "t": 2544.4419000000003,
      "d": 38.88884999999982,
      "v": 70
    },
    {
      "midi": 57,
      "hit": false,
      "t": 2583.33075,
      "d": 38.88884999999982,
      "v": 70
    },
    {
      "midi": 59,
      "hit": false,
      "t": 2622.2196,
      "d": 38.88884999999982,
      "v": 70
    },
    {
      "midi": 62,
      "hit": false,
      "t": 2666.6639999999998,
      "d": 2666.6639999999998,
      "v": 85
    },
    {
      "midi": 71,
      "hit": false,
      "t": 2666.664,
      "d": 2666.664,
      "v": 100
    },
    {
      "midi": 74,
      "hit": false,
      "t": 2666.664,
      "d": 2666.664,
      "v": 100
    },
    {
      "midi": 52,
      "hit": false,
      "t": 5333.3279999999995,
      "d": 2666.6640000000007,
      "v": 85
    },
    {
      "midi": 62,
      "hit": false,
      "t": 5333.3279999999995,
      "d": 2666.6640000000007,
      "v": 85
    },
    {
      "midi": 59,
      "hit": false,
      "t": 5333.3279999999995,
      "d": 2666.6640000000007,
      "v": 85
    },
    {
      "midi": 55,
      "hit": false,
      "t": 5333.3279999999995,
      "d": 2666.6640000000007,
      "v": 85
    },
    {
      "midi": 67,
      "hit": false,
      "t": 5333.328,
      "d": 1333.3320000000003,
      "v": 100
    },
    {
      "midi": 74,
      "hit": false,
      "t": 5333.328,
      "d": 1333.3320000000003,
      "v": 100
    },
    {
      "midi": 71,
      "hit": false,
      "t": 5333.328,
      "d": 1333.3320000000003,
      "v": 100
    },
    {
      "midi": 67,
      "hit": false,
      "t": 6666.660000000001,
      "d": 333.33299999999963,
      "v": 100
    },
    {
      "midi": 69,
      "hit": false,
      "t": 6999.993,
      "d": 333.33299999999963,
      "v": 100
    },
    {
      "midi": 71,
      "hit": false,
      "t": 7333.326,
      "d": 333.33299999999963,
      "v": 100
    },
    {
      "midi": 67,
      "hit": false,
      "t": 7666.659,
      "d": 333.33299999999963,
      "v": 100
    },
    {
      "midi": 74,
      "hit": false,
      "t": 7999.991999999999,
      "d": 666.6660000000002,
      "v": 100
    },
    {
      "midi": 52,
      "hit": false,
      "t": 7999.992,
      "d": 2666.6640000000007,
      "v": 85
    },
    {
      "midi": 60,
      "hit": false,
      "t": 7999.992,
      "d": 2666.6640000000007,
      "v": 85
    },
    {
      "midi": 57,
      "hit": false,
      "t": 7999.992,
      "d": 2666.6640000000007,
      "v": 85
    },
    {
      "midi": 55,
      "hit": false,
      "t": 7999.992,
      "d": 2666.6640000000007,
      "v": 85
    },
    {
      "midi": 72,
      "hit": false,
      "t": 8666.658,
      "d": 333.33300000000054,
      "v": 100
    },
    {
      "midi": 71,
      "hit": false,
      "t": 8999.991,
      "d": 666.6659999999993,
      "v": 100
    },
    {
      "midi": 72,
      "hit": false,
      "t": 9666.657,
      "d": 666.6659999999993,
      "v": 100
    },
    {
      "midi": 69,
      "hit": false,
      "t": 10333.322999999999,
      "d": 333.33300000000054,
      "v": 100
    },
    {
      "midi": 69,
      "hit": false,
      "t": 10666.655999999999,
      "d": 1333.3320000000003,
      "v": 100
    },
    {
      "midi": 76,
      "hit": false,
      "t": 10666.655999999999,
      "d": 1333.3320000000003,
      "v": 100
    },
    {
      "midi": 53,
      "hit": false,
      "t": 10666.656,
      "d": 2544.4419,
      "v": 85
    },
    {
      "midi": 64,
      "hit": false,
      "t": 10666.656,
      "d": 2544.4419,
      "v": 85
    },
    {
      "midi": 60,
      "hit": false,
      "t": 10666.656,
      "d": 2544.4419,
      "v": 85
    },
    {
      "midi": 57,
      "hit": false,
      "t": 10666.656,
      "d": 2544.4419,
      "v": 85
    },
    {
      "midi": 76,
      "hit": false,
      "t": 11999.988,
      "d": 1333.3320000000003,
      "v": 100
    },
    {
      "midi": 81,
      "hit": false,
      "t": 11999.988,
      "d": 1333.3320000000003,
      "v": 100
    },
    {
      "midi": 53,
      "hit": false,
      "t": 13211.0979,
      "d": 38.888849999999366,
      "v": 70
    },
    {
      "midi": 57,
      "hit": false,
      "t": 13249.98675,
      "d": 38.888849999999366,
      "v": 70
    },
    {
      "midi": 59,
      "hit": false,
      "t": 13288.8756,
      "d": 38.888849999999366,
      "v": 70
    },
    {
      "midi": 62,
      "hit": false,
      "t": 13333.319999999998,
      "d": 2666.6640000000007,
      "v": 85
    },
    {
      "midi": 71,
      "hit": false,
      "t": 13333.32,
      "d": 2666.6640000000007,
      "v": 100
    },
    {
      "midi": 74,
      "hit": false,
      "t": 13333.32,
      "d": 2666.6640000000007,
      "v": 100
    },
    {
      "midi": 52,
      "hit": false,
      "t": 15999.983999999999,
      "d": 2666.663999999999,
      "v": 85
    },
    {
      "midi": 62,
      "hit": false,
      "t": 15999.983999999999,
      "d": 2666.663999999999,
      "v": 85
    },
    {
      "midi": 59,
      "hit": false,
      "t": 15999.983999999999,
      "d": 2666.663999999999,
      "v": 85
    },
    {
      "midi": 55,
      "hit": false,
      "t": 15999.983999999999,
      "d": 2666.663999999999,
      "v": 85
    },
    {
      "midi": 71,
      "hit": false,
      "t": 15999.984,
      "d": 2666.6640000000007,
      "v": 100
    },
    {
      "midi": 67,
      "hit": false,
      "t": 15999.984,
      "d": 2666.6640000000007,
      "v": 100
    },
    {
      "midi": 74,
      "hit": false,
      "t": 15999.984,
      "d": 2666.6640000000007,
      "v": 100
    },
    {
      "midi": 52,
      "hit": false,
      "t": 18666.647999999997,
      "d": 2666.6640000000007,
      "v": 85
    },
    {
      "midi": 64,
      "hit": false,
      "t": 18666.647999999997,
      "d": 2666.6640000000007,
      "v": 85
    },
    {
      "midi": 61,
      "hit": false,
      "t": 18666.647999999997,
      "d": 2666.6640000000007,
      "v": 85
    },
    {
      "midi": 57,
      "hit": false,
      "t": 18666.647999999997,
      "d": 2666.6640000000007,
      "v": 85
    },
    {
      "midi": 69,
      "hit": false,
      "t": 18999.981,
      "d": 333.3329999999987,
      "v": 100
    },
    {
      "midi": 76,
      "hit": false,
      "t": 18999.981,
      "d": 333.3329999999987,
      "v": 100
    },
    {
      "midi": 69,
      "hit": false,
      "t": 19333.314,
      "d": 999.9989999999998,
      "v": 100
    },
    {
      "midi": 76,
      "hit": false,
      "t": 19333.314,
      "d": 999.9989999999998,
      "v": 100
    },
    {
      "midi": 76,
      "hit": false,
      "t": 20333.313,
      "d": 333.3329999999987,
      "v": 100
    },
    {
      "midi": 81,
      "hit": false,
      "t": 20333.313,
      "d": 333.3329999999987,
      "v": 100
    },
    {
      "midi": 76,
      "hit": false,
      "t": 20666.645999999997,
      "d": 666.6660000000011,
      "v": 100
    },
    {
      "midi": 81,
      "hit": false,
      "t": 20666.645999999997,
      "d": 666.6660000000011,
      "v": 100
    },
    {
      "midi": 69,
      "hit": false,
      "t": 21333.311999999998,
      "d": 1333.3319999999985,
      "v": 100
    },
    {
      "midi": 76,
      "hit": false,
      "t": 21333.311999999998,
      "d": 1333.3319999999985,
      "v": 100
    },
    {
      "midi": 41,
      "hit": false,
      "t": 21333.311999999998,
      "d": 333.3329999999987,
      "v": 85
    },
    {
      "midi": 48,
      "hit": false,
      "t": 21666.644999999997,
      "d": 333.3329999999987,
      "v": 85
    },
    {
      "midi": 53,
      "hit": false,
      "t": 21999.977999999996,
      "d": 333.3329999999987,
      "v": 85
    },
    {
      "midi": 57,
      "hit": false,
      "t": 22333.310999999994,
      "d": 333.3329999999987,
      "v": 85
    },
    {
      "midi": 60,
      "hit": false,
      "t": 22666.643999999993,
      "d": 333.3329999999987,
      "v": 85
    },
    {
      "midi": 76,
      "hit": false,
      "t": 22666.643999999997,
      "d": 999.9989999999998,
      "v": 100
    },
    {
      "midi": 81,
      "hit": false,
      "t": 22666.643999999997,
      "d": 999.9989999999998,
      "v": 100
    },
    {
      "midi": 57,
      "hit": false,
      "t": 22999.97699999999,
      "d": 333.3329999999987,
      "v": 85
    },
    {
      "midi": 53,
      "hit": false,
      "t": 23333.30999999999,
      "d": 333.3329999999987,
      "v": 85
    },
    {
      "midi": 48,
      "hit": false,
      "t": 23666.64299999999,
      "d": 333.3329999999987,
      "v": 85
    },
    {
      "midi": 71,
      "hit": false,
      "t": 23666.642999999996,
      "d": 2333.3309999999983,
      "v": 100
    },
    {
      "midi": 74,
      "hit": false,
      "t": 23666.642999999996,
      "d": 2333.3309999999983,
      "v": 100
    },
    {
      "midi": 41,
      "hit": false,
      "t": 23999.975999999988,
      "d": 333.3329999999987,
      "v": 85
    },
    {
      "midi": 50,
      "hit": false,
      "t": 24333.308999999987,
      "d": 333.3329999999987,
      "v": 85
    },
    {
      "midi": 55,
      "hit": false,
      "t": 24666.641999999985,
      "d": 333.3329999999987,
      "v": 85
    },
    {
      "midi": 59,
      "hit": false,
      "t": 24999.974999999984,
      "d": 333.3329999999987,
      "v": 85
    },
    {
      "midi": 62,
      "hit": false,
      "t": 25333.307999999983,
      "d": 333.3329999999987,
      "v": 85
    },
    {
      "midi": 59,
      "hit": false,
      "t": 25666.64099999998,
      "d": 333.3329999999987,
      "v": 85
    },
    {
      "midi": 55,
      "hit": false,
      "t": 25999.97399999998,
      "d": 333.3329999999987,
      "v": 85
    },
    {
      "midi": 71,
      "hit": false,
      "t": 25999.973999999995,
      "d": 333.3329999999987,
      "v": 100
    },
    {
      "midi": 50,
      "hit": false,
      "t": 26333.30699999998,
      "d": 333.3329999999987,
      "v": 85
    },
    {
      "midi": 72,
      "hit": false,
      "t": 26333.306999999993,
      "d": 333.3329999999987,
      "v": 100
    },
    {
      "midi": 40,
      "hit": false,
      "t": 26666.639999999978,
      "d": 333.3329999999987,
      "v": 85
    },
    {
      "midi": 74,
      "hit": false,
      "t": 26666.639999999992,
      "d": 333.3329999999987,
      "v": 100
    },
    {
      "midi": 47,
      "hit": false,
      "t": 26999.972999999976,
      "d": 333.3329999999987,
      "v": 85
    },
    {
      "midi": 74,
      "hit": false,
      "t": 26999.97299999999,
      "d": 333.3329999999987,
      "v": 100
    },
    {
      "midi": 52,
      "hit": false,
      "t": 27333.305999999975,
      "d": 333.3329999999987,
      "v": 85
    },
    {
      "midi": 74,
      "hit": false,
      "t": 27333.30599999999,
      "d": 333.3329999999987,
      "v": 100
    },
    {
      "midi": 55,
      "hit": false,
      "t": 27666.638999999974,
      "d": 333.3329999999987,
      "v": 85
    },
    {
      "midi": 74,
      "hit": false,
      "t": 27666.63899999999,
      "d": 333.3329999999987,
      "v": 100
    },
    {
      "midi": 59,
      "hit": false,
      "t": 27999.971999999972,
      "d": 333.3329999999987,
      "v": 85
    },
    {
      "midi": 74,
      "hit": false,
      "t": 27999.971999999987,
      "d": 333.3329999999987,
      "v": 100
    },
    {
      "midi": 55,
      "hit": false,
      "t": 28333.30499999997,
      "d": 333.3329999999987,
      "v": 85
    },
    {
      "midi": 72,
      "hit": false,
      "t": 28333.304999999986,
      "d": 333.3329999999987,
      "v": 100
    },
    {
      "midi": 52,
      "hit": false,
      "t": 28666.63799999997,
      "d": 333.3329999999987,
      "v": 85
    },
    {
      "midi": 71,
      "hit": false,
      "t": 28666.637999999984,
      "d": 333.3329999999987,
      "v": 100
    },
    {
      "midi": 47,
      "hit": false,
      "t": 28999.97099999997,
      "d": 333.3329999999987,
      "v": 85
    },
    {
      "midi": 72,
      "hit": false,
      "t": 28999.970999999983,
      "d": 1999.9979999999996,
      "v": 100
    },
    {
      "midi": 45,
      "hit": false,
      "t": 29333.303999999967,
      "d": 333.3329999999987,
      "v": 85
    },
    {
      "midi": 52,
      "hit": false,
      "t": 29666.636999999966,
      "d": 333.3329999999987,
      "v": 85
    },
    {
      "midi": 57,
      "hit": false,
      "t": 29999.969999999965,
      "d": 333.3329999999987,
      "v": 85
    },
    {
      "midi": 60,
      "hit": false,
      "t": 30333.302999999964,
      "d": 333.3329999999987,
      "v": 85
    },
    {
      "midi": 64,
      "hit": false,
      "t": 30666.635999999962,
      "d": 333.3329999999987,
      "v": 85
    },
    {
      "midi": 60,
      "hit": false,
      "t": 30999.96899999996,
      "d": 333.3329999999987,
      "v": 85
    },
    {
      "midi": 72,
      "hit": false,
      "t": 30999.968999999983,
      "d": 333.3329999999987,
      "v": 100
    },
    {
      "midi": 57,
      "hit": false,
      "t": 31333.30199999996,
      "d": 333.3329999999987,
      "v": 85
    },
    {
      "midi": 72,
      "hit": false,
      "t": 31333.30199999998,
      "d": 333.3329999999987,
      "v": 100
    },
    {
      "midi": 52,
      "hit": false,
      "t": 31666.63499999996,
      "d": 333.3329999999987,
      "v": 85
    },
    {
      "midi": 74,
      "hit": false,
      "t": 31666.63499999998,
      "d": 333.3329999999987,
      "v": 100
    },
    {
      "midi": 41,
      "hit": false,
      "t": 31999.967999999957,
      "d": 333.3329999999987,
      "v": 85
    },
    {
      "midi": 69,
      "hit": false,
      "t": 31999.96799999998,
      "d": 1333.3320000000022,
      "v": 100
    },
    {
      "midi": 76,
      "hit": false,
      "t": 31999.96799999998,
      "d": 1333.3320000000022,
      "v": 100
    },
    {
      "midi": 48,
      "hit": false,
      "t": 32333.300999999956,
      "d": 333.3329999999987,
      "v": 85
    },
    {
      "midi": 53,
      "hit": false,
      "t": 32666.633999999955,
      "d": 333.3329999999987,
      "v": 85
    },
    {
      "midi": 57,
      "hit": false,
      "t": 32999.96699999995,
      "d": 333.3329999999987,
      "v": 85
    },
    {
      "midi": 60,
      "hit": false,
      "t": 33333.29999999995,
      "d": 333.3329999999987,
      "v": 85
    },
    {
      "midi": 76,
      "hit": false,
      "t": 33333.29999999998,
      "d": 999.9990000000034,
      "v": 100
    },
    {
      "midi": 81,
      "hit": false,
      "t": 33333.29999999998,
      "d": 999.9990000000034,
      "v": 100
    },
    {
      "midi": 57,
      "hit": false,
      "t": 33666.63299999995,
      "d": 333.3329999999987,
      "v": 85
    },
    {
      "midi": 53,
      "hit": false,
      "t": 33999.96599999995,
      "d": 333.3329999999987,
      "v": 85
    },
    {
      "midi": 48,
      "hit": false,
      "t": 34333.29899999995,
      "d": 333.3329999999987,
      "v": 85
    },
    {
      "midi": 71,
      "hit": false,
      "t": 34333.298999999985,
      "d": 1333.3320000000022,
      "v": 100
    },
    {
      "midi": 74,
      "hit": false,
      "t": 34333.298999999985,
      "d": 1333.3320000000022,
      "v": 100
    },
    {
      "midi": 41,
      "hit": false,
      "t": 34666.63199999995,
      "d": 333.3329999999987,
      "v": 85
    },
    {
      "midi": 50,
      "hit": false,
      "t": 34999.964999999946,
      "d": 333.3329999999987,
      "v": 85
    },
    {
      "midi": 55,
      "hit": false,
      "t": 35333.297999999944,
      "d": 333.3329999999987,
      "v": 85
    },
    {
      "midi": 59,
      "hit": false,
      "t": 35666.63099999994,
      "d": 333.3329999999987,
      "v": 85
    },
    {
      "midi": 74,
      "hit": false,
      "t": 35666.63099999999,
      "d": 333.3329999999987,
      "v": 100
    },
    {
      "midi": 62,
      "hit": false,
      "t": 35999.96399999994,
      "d": 333.3329999999987,
      "v": 85
    },
    {
      "midi": 83,
      "hit": false,
      "t": 35999.963999999985,
      "d": 666.6659999999974,
      "v": 100
    },
    {
      "midi": 59,
      "hit": false,
      "t": 36333.29699999994,
      "d": 333.3329999999987,
      "v": 85
    },
    {
      "midi": 55,
      "hit": false,
      "t": 36666.62999999994,
      "d": 333.3329999999987,
      "v": 85
    },
    {
      "midi": 81,
      "hit": false,
      "t": 36666.62999999998,
      "d": 333.3329999999987,
      "v": 100
    },
    {
      "midi": 50,
      "hit": false,
      "t": 36999.96299999994,
      "d": 333.3329999999987,
      "v": 85
    },
    {
      "midi": 79,
      "hit": false,
      "t": 36999.96299999998,
      "d": 1666.6650000000009,
      "v": 100
    },
    {
      "midi": 40,
      "hit": false,
      "t": 37333.29599999994,
      "d": 333.3329999999987,
      "v": 85
    },
    {
      "midi": 47,
      "hit": false,
      "t": 37666.628999999935,
      "d": 333.3329999999987,
      "v": 85
    },
    {
      "midi": 52,
      "hit": false,
      "t": 37999.961999999934,
      "d": 333.3329999999987,
      "v": 85
    },
    {
      "midi": 55,
      "hit": false,
      "t": 38333.29499999993,
      "d": 333.3329999999987,
      "v": 85
    },
    {
      "midi": 59,
      "hit": false,
      "t": 38666.62799999993,
      "d": 333.3329999999987,
      "v": 85
    },
    {
      "midi": 79,
      "hit": false,
      "t": 38666.62799999998,
      "d": 333.3329999999987,
      "v": 100
    },
    {
      "midi": 55,
      "hit": false,
      "t": 38999.96099999993,
      "d": 333.3329999999987,
      "v": 85
    },
    {
      "midi": 81,
      "hit": false,
      "t": 38999.96099999998,
      "d": 333.3329999999987,
      "v": 100
    },
    {
      "midi": 52,
      "hit": false,
      "t": 39333.29399999993,
      "d": 333.3329999999987,
      "v": 85
    },
    {
      "midi": 79,
      "hit": false,
      "t": 39333.29399999998,
      "d": 333.3329999999987,
      "v": 100
    },
    {
      "midi": 47,
      "hit": false,
      "t": 39666.62699999993,
      "d": 333.3329999999987,
      "v": 85
    },
    {
      "midi": 76,
      "hit": false,
      "t": 39666.62699999998,
      "d": 2999.997000000003,
      "v": 100
    },
    {
      "midi": 45,
      "hit": false,
      "t": 39999.95999999993,
      "d": 333.3329999999987,
      "v": 85
    },
    {
      "midi": 52,
      "hit": false,
      "t": 40333.292999999925,
      "d": 333.3329999999987,
      "v": 85
    },
    {
      "midi": 57,
      "hit": false,
      "t": 40666.625999999924,
      "d": 333.3329999999987,
      "v": 85
    },
    {
      "midi": 61,
      "hit": false,
      "t": 40999.95899999992,
      "d": 333.3329999999987,
      "v": 85
    },
    {
      "midi": 64,
      "hit": false,
      "t": 41333.29199999992,
      "d": 333.3329999999987,
      "v": 85
    },
    {
      "midi": 61,
      "hit": false,
      "t": 41666.62499999992,
      "d": 333.3329999999987,
      "v": 85
    },
    {
      "midi": 57,
      "hit": false,
      "t": 41999.95799999992,
      "d": 333.3329999999987,
      "v": 85
    },
    {
      "midi": 52,
      "hit": false,
      "t": 42333.29099999992,
      "d": 333.3329999999987,
      "v": 85
    },
    {
      "midi": 41,
      "hit": false,
      "t": 42666.623999999916,
      "d": 333.3329999999987,
      "v": 85
    },
    {
      "midi": 69,
      "hit": false,
      "t": 42666.62399999998,
      "d": 1333.3320000000022,
      "v": 100
    },
    {
      "midi": 76,
      "hit": false,
      "t": 42666.62399999998,
      "d": 1333.3320000000022,
      "v": 100
    },
    {
      "midi": 48,
      "hit": false,
      "t": 42999.956999999915,
      "d": 333.3329999999987,
      "v": 85
    },
    {
      "midi": 53,
      "hit": false,
      "t": 43333.28999999991,
      "d": 333.3329999999987,
      "v": 85
    },
    {
      "midi": 57,
      "hit": false,
      "t": 43666.62299999991,
      "d": 333.3329999999987,
      "v": 85
    },
    {
      "midi": 60,
      "hit": false,
      "t": 43999.95599999991,
      "d": 333.3329999999987,
      "v": 85
    },
    {
      "midi": 76,
      "hit": false,
      "t": 43999.955999999984,
      "d": 999.9990000000034,
      "v": 100
    },
    {
      "midi": 81,
      "hit": false,
      "t": 43999.955999999984,
      "d": 999.9990000000034,
      "v": 100
    },
    {
      "midi": 57,
      "hit": false,
      "t": 44333.28899999991,
      "d": 333.3329999999987,
      "v": 85
    },
    {
      "midi": 53,
      "hit": false,
      "t": 44666.62199999991,
      "d": 333.3329999999987,
      "v": 85
    },
    {
      "midi": 48,
      "hit": false,
      "t": 44999.95499999991,
      "d": 333.3329999999987,
      "v": 85
    },
    {
      "midi": 71,
      "hit": false,
      "t": 44999.95499999999,
      "d": 2333.3309999999983,
      "v": 100
    },
    {
      "midi": 74,
      "hit": false,
      "t": 44999.95499999999,
      "d": 2333.3309999999983,
      "v": 100
    },
    {
      "midi": 41,
      "hit": false,
      "t": 45333.287999999906,
      "d": 333.3329999999987,
      "v": 85
    },
    {
      "midi": 50,
      "hit": false,
      "t": 45666.620999999905,
      "d": 333.3329999999987,
      "v": 85
    },
    {
      "midi": 55,
      "hit": false,
      "t": 45999.9539999999,
      "d": 333.3329999999987,
      "v": 85
    },
    {
      "midi": 59,
      "hit": false,
      "t": 46333.2869999999,
      "d": 333.3329999999987,
      "v": 85
    },
    {
      "midi": 62,
      "hit": false,
      "t": 46666.6199999999,
      "d": 333.3329999999987,
      "v": 85
    },
    {
      "midi": 59,
      "hit": false,
      "t": 46999.9529999999,
      "d": 333.3329999999987,
      "v": 85
    },
    {
      "midi": 55,
      "hit": false,
      "t": 47333.2859999999,
      "d": 333.3329999999987,
      "v": 85
    },
    {
      "midi": 71,
      "hit": false,
      "t": 47333.285999999986,
      "d": 333.3329999999987,
      "v": 100
    },
    {
      "midi": 50,
      "hit": false,
      "t": 47666.6189999999,
      "d": 333.3329999999987,
      "v": 85
    },
    {
      "midi": 72,
      "hit": false,
      "t": 47666.618999999984,
      "d": 333.3329999999987,
      "v": 100
    },
    {
      "midi": 40,
      "hit": false,
      "t": 47999.951999999896,
      "d": 333.3329999999987,
      "v": 85
    },
    {
      "midi": 74,
      "hit": false,
      "t": 47999.95199999998,
      "d": 333.3329999999987,
      "v": 100
    },
    {
      "midi": 47,
      "hit": false,
      "t": 48333.284999999894,
      "d": 333.3329999999987,
      "v": 85
    },
    {
      "midi": 74,
      "hit": false,
      "t": 48333.28499999998,
      "d": 333.3329999999987,
      "v": 100
    },
    {
      "midi": 52,
      "hit": false,
      "t": 48666.61799999989,
      "d": 333.3329999999987,
      "v": 85
    },
    {
      "midi": 74,
      "hit": false,
      "t": 48666.61799999998,
      "d": 333.3329999999987,
      "v": 100
    },
    {
      "midi": 55,
      "hit": false,
      "t": 48999.95099999989,
      "d": 333.3329999999987,
      "v": 85
    },
    {
      "midi": 74,
      "hit": false,
      "t": 48999.95099999998,
      "d": 333.3329999999987,
      "v": 100
    },
    {
      "midi": 59,
      "hit": false,
      "t": 49333.28399999989,
      "d": 333.3329999999987,
      "v": 85
    },
    {
      "midi": 74,
      "hit": false,
      "t": 49333.28399999998,
      "d": 333.3329999999987,
      "v": 100
    },
    {
      "midi": 55,
      "hit": false,
      "t": 49666.61699999989,
      "d": 333.3329999999987,
      "v": 85
    },
    {
      "midi": 72,
      "hit": false,
      "t": 49666.61699999998,
      "d": 333.3329999999987,
      "v": 100
    },
    {
      "midi": 52,
      "hit": false,
      "t": 49999.94999999989,
      "d": 333.3329999999987,
      "v": 85
    },
    {
      "midi": 71,
      "hit": false,
      "t": 49999.949999999975,
      "d": 333.3329999999987,
      "v": 100
    },
    {
      "midi": 47,
      "hit": false,
      "t": 50333.28299999989,
      "d": 333.3329999999987,
      "v": 85
    },
    {
      "midi": 72,
      "hit": false,
      "t": 50333.282999999974,
      "d": 1999.9979999999996,
      "v": 100
    },
    {
      "midi": 45,
      "hit": false,
      "t": 50666.615999999885,
      "d": 333.3329999999987,
      "v": 85
    },
    {
      "midi": 52,
      "hit": false,
      "t": 50999.948999999884,
      "d": 333.3329999999987,
      "v": 85
    },
    {
      "midi": 57,
      "hit": false,
      "t": 51333.28199999988,
      "d": 333.3329999999987,
      "v": 85
    },
    {
      "midi": 52,
      "hit": false,
      "t": 51666.61499999988,
      "d": 333.3329999999987,
      "v": 85
    },
    {
      "midi": 60,
      "hit": false,
      "t": 51999.94799999988,
      "d": 333.3329999999987,
      "v": 85
    },
    {
      "midi": 59,
      "hit": false,
      "t": 52333.28099999988,
      "d": 333.3329999999987,
      "v": 85
    },
    {
      "midi": 69,
      "hit": false,
      "t": 52333.28099999997,
      "d": 333.3329999999987,
      "v": 100
    },
    {
      "midi": 57,
      "hit": false,
      "t": 52666.61399999988,
      "d": 333.3329999999987,
      "v": 85
    },
    {
      "midi": 69,
      "hit": false,
      "t": 52666.61399999997,
      "d": 333.3329999999987,
      "v": 100
    },
    {
      "midi": 52,
      "hit": false,
      "t": 52999.94699999988,
      "d": 333.3329999999987,
      "v": 85
    },
    {
      "midi": 71,
      "hit": false,
      "t": 52999.94699999997,
      "d": 333.3329999999987,
      "v": 100
    },
    {
      "midi": 38,
      "hit": false,
      "t": 53333.279999999875,
      "d": 333.3329999999987,
      "v": 85
    },
    {
      "midi": 69,
      "hit": false,
      "t": 53333.27999999997,
      "d": 1333.3320000000022,
      "v": 100
    },
    {
      "midi": 72,
      "hit": false,
      "t": 53333.27999999997,
      "d": 1333.3320000000022,
      "v": 100
    },
    {
      "midi": 45,
      "hit": false,
      "t": 53666.612999999874,
      "d": 333.3329999999987,
      "v": 85
    },
    {
      "midi": 50,
      "hit": false,
      "t": 53999.94599999987,
      "d": 333.3329999999987,
      "v": 85
    },
    {
      "midi": 53,
      "hit": false,
      "t": 54333.27899999987,
      "d": 333.3329999999987,
      "v": 85
    },
    {
      "midi": 57,
      "hit": false,
      "t": 54666.61199999987,
      "d": 333.3329999999987,
      "v": 85
    },
    {
      "midi": 72,
      "hit": false,
      "t": 54666.61199999997,
      "d": 999.9990000000034,
      "v": 100
    },
    {
      "midi": 76,
      "hit": false,
      "t": 54666.61199999997,
      "d": 999.9990000000034,
      "v": 100
    },
    {
      "midi": 53,
      "hit": false,
      "t": 54999.94499999987,
      "d": 333.3329999999987,
      "v": 85
    },
    {
      "midi": 50,
      "hit": false,
      "t": 55333.27799999987,
      "d": 333.3329999999987,
      "v": 85
    },
    {
      "midi": 45,
      "hit": false,
      "t": 55666.610999999866,
      "d": 333.3329999999987,
      "v": 85
    },
    {
      "midi": 71,
      "hit": false,
      "t": 55666.610999999975,
      "d": 1666.6650000000009,
      "v": 100
    },
    {
      "midi": 74,
      "hit": false,
      "t": 55666.610999999975,
      "d": 1666.6650000000009,
      "v": 100
    },
    {
      "midi": 40,
      "hit": false,
      "t": 55999.943999999865,
      "d": 333.3329999999987,
      "v": 85
    },
    {
      "midi": 47,
      "hit": false,
      "t": 56333.27699999986,
      "d": 333.3329999999987,
      "v": 85
    },
    {
      "midi": 52,
      "hit": false,
      "t": 56666.60999999986,
      "d": 333.3329999999987,
      "v": 85
    },
    {
      "midi": 55,
      "hit": false,
      "t": 56999.94299999986,
      "d": 333.3329999999987,
      "v": 85
    },
    {
      "midi": 59,
      "hit": false,
      "t": 57333.27599999986,
      "d": 333.3329999999987,
      "v": 85
    },
    {
      "midi": 71,
      "hit": false,
      "t": 57333.275999999976,
      "d": 333.3329999999987,
      "v": 100
    },
    {
      "midi": 55,
      "hit": false,
      "t": 57666.60899999986,
      "d": 333.3329999999987,
      "v": 85
    },
    {
      "midi": 72,
      "hit": false,
      "t": 57666.608999999975,
      "d": 333.3329999999987,
      "v": 100
    },
    {
      "midi": 52,
      "hit": false,
      "t": 57999.94199999986,
      "d": 333.3329999999987,
      "v": 85
    },
    {
      "midi": 71,
      "hit": false,
      "t": 57999.94199999997,
      "d": 333.3329999999987,
      "v": 100
    },
    {
      "midi": 47,
      "hit": false,
      "t": 58333.274999999856,
      "d": 333.3329999999987,
      "v": 85
    },
    {
      "midi": 69,
      "hit": false,
      "t": 58333.27499999997,
      "d": 2999.997000000003,
      "v": 100
    },
    {
      "midi": 45,
      "hit": false,
      "t": 58666.607999999855,
      "d": 333.3329999999987,
      "v": 85
    },
    {
      "midi": 50,
      "hit": false,
      "t": 58999.94099999985,
      "d": 333.3329999999987,
      "v": 85
    },
    {
      "midi": 52,
      "hit": false,
      "t": 59333.27399999985,
      "d": 333.3329999999987,
      "v": 85
    },
    {
      "midi": 55,
      "hit": false,
      "t": 59666.60699999985,
      "d": 333.3329999999987,
      "v": 85
    },
    {
      "midi": 57,
      "hit": false,
      "t": 59999.93999999985,
      "d": 333.3329999999987,
      "v": 85
    },
    {
      "midi": 52,
      "hit": false,
      "t": 60333.27299999985,
      "d": 333.3329999999987,
      "v": 85
    },
    {
      "midi": 50,
      "hit": false,
      "t": 60666.60599999985,
      "d": 333.3329999999987,
      "v": 85
    },
    {
      "midi": 52,
      "hit": false,
      "t": 60999.938999999846,
      "d": 333.3329999999987,
      "v": 85
    },
    {
      "midi": 45,
      "hit": false,
      "t": 61333.271999999844,
      "d": 333.3329999999987,
      "v": 85
    },
    {
      "midi": 49,
      "hit": false,
      "t": 61666.60499999984,
      "d": 333.3329999999987,
      "v": 85
    },
    {
      "midi": 52,
      "hit": false,
      "t": 61999.93799999984,
      "d": 333.3329999999987,
      "v": 85
    },
    {
      "midi": 49,
      "hit": false,
      "t": 62333.27099999984,
      "d": 333.3329999999987,
      "v": 85
    },
    {
      "midi": 57,
      "hit": false,
      "t": 62666.60399999984,
      "d": 333.3329999999987,
      "v": 85
    },
    {
      "midi": 52,
      "hit": false,
      "t": 62999.93699999984,
      "d": 333.3329999999987,
      "v": 85
    },
    {
      "midi": 49,
      "hit": false,
      "t": 63333.26999999984,
      "d": 333.3329999999987,
      "v": 85
    },
    {
      "midi": 52,
      "hit": false,
      "t": 63666.602999999835,
      "d": 333.3329999999987,
      "v": 85
    },
    {
      "midi": 43,
      "hit": false,
      "t": 63999.935999999834,
      "d": 333.3329999999987,
      "v": 85
    },
    {
      "midi": 48,
      "hit": false,
      "t": 64333.26899999983,
      "d": 333.3329999999987,
      "v": 85
    },
    {
      "midi": 50,
      "hit": false,
      "t": 64666.60199999983,
      "d": 333.3329999999987,
      "v": 85
    },
    {
      "midi": 53,
      "hit": false,
      "t": 64999.93499999983,
      "d": 333.3329999999987,
      "v": 85
    },
    {
      "midi": 55,
      "hit": false,
      "t": 65333.26799999983,
      "d": 333.333000000006,
      "v": 85
    },
    {
      "midi": 53,
      "hit": false,
      "t": 65666.60099999984,
      "d": 333.3329999999987,
      "v": 85
    },
    {
      "midi": 50,
      "hit": false,
      "t": 65999.93399999983,
      "d": 333.3329999999987,
      "v": 85
    },
    {
      "midi": 47,
      "hit": false,
      "t": 66333.26699999983,
      "d": 333.3329999999987,
      "v": 85
    },
    {
      "midi": 43,
      "hit": false,
      "t": 66666.59999999983,
      "d": 333.3329999999987,
      "v": 85
    },
    {
      "midi": 50,
      "hit": false,
      "t": 66999.93299999983,
      "d": 333.3329999999987,
      "v": 85
    },
    {
      "midi": 74,
      "hit": false,
      "t": 66999.93299999998,
      "d": 333.3329999999987,
      "v": 100
    },
    {
      "midi": 79,
      "hit": false,
      "t": 66999.93299999998,
      "d": 333.3329999999987,
      "v": 100
    },
    {
      "midi": 55,
      "hit": false,
      "t": 67333.26599999983,
      "d": 333.3329999999987,
      "v": 85
    },
    {
      "midi": 74,
      "hit": false,
      "t": 67333.26599999997,
      "d": 666.6659999999974,
      "v": 100
    },
    {
      "midi": 79,
      "hit": false,
      "t": 67333.26599999997,
      "d": 666.6659999999974,
      "v": 100
    },
    {
      "midi": 50,
      "hit": false,
      "t": 67666.59899999983,
      "d": 333.3329999999987,
      "v": 85
    },
    {
      "midi": 59,
      "hit": false,
      "t": 67999.93199999983,
      "d": 1333.3319999999949,
      "v": 85
    },
    {
      "midi": 74,
      "hit": false,
      "t": 68333.26499999997,
      "d": 666.6659999999974,
      "v": 100
    },
    {
      "midi": 79,
      "hit": false,
      "t": 68333.26499999997,
      "d": 666.6659999999974,
      "v": 100
    },
    {
      "midi": 64,
      "hit": false,
      "t": 68999.93099999997,
      "d": 333.3329999999987,
      "v": 100
    },
    {
      "midi": 48,
      "hit": false,
      "t": 69333.26399999982,
      "d": 333.3329999999987,
      "v": 85
    },
    {
      "midi": 67,
      "hit": false,
      "t": 69333.26399999997,
      "d": 1666.6649999999936,
      "v": 100
    },
    {
      "midi": 55,
      "hit": false,
      "t": 69666.59699999982,
      "d": 333.3329999999987,
      "v": 85
    },
    {
      "midi": 60,
      "hit": false,
      "t": 69999.92999999982,
      "d": 333.3329999999987,
      "v": 85
    },
    {
      "midi": 64,
      "hit": false,
      "t": 70333.26299999982,
      "d": 1666.6649999999936,
      "v": 85
    },
    {
      "midi": 74,
      "hit": false,
      "t": 70999.92899999996,
      "d": 333.3329999999987,
      "v": 100
    },
    {
      "midi": 72,
      "hit": false,
      "t": 71333.26199999996,
      "d": 333.3329999999987,
      "v": 100
    },
    {
      "midi": 71,
      "hit": false,
      "t": 71666.59499999996,
      "d": 999.9989999999962,
      "v": 100
    },
    {
      "midi": 47,
      "hit": false,
      "t": 71999.92799999981,
      "d": 333.3329999999987,
      "v": 85
    },
    {
      "midi": 55,
      "hit": false,
      "t": 72333.26099999981,
      "d": 333.3329999999987,
      "v": 85
    },
    {
      "midi": 59,
      "hit": false,
      "t": 72666.59399999981,
      "d": 333.3329999999987,
      "v": 85
    },
    {
      "midi": 72,
      "hit": false,
      "t": 72666.59399999995,
      "d": 333.3329999999987,
      "v": 100
    },
    {
      "midi": 62,
      "hit": false,
      "t": 72999.9269999998,
      "d": 999.9989999999962,
      "v": 85
    },
    {
      "midi": 74,
      "hit": false,
      "t": 72999.92699999995,
      "d": 666.6659999999974,
      "v": 100
    },
    {
      "midi": 72,
      "hit": false,
      "t": 73666.59299999995,
      "d": 666.6659999999974,
      "v": 100
    },
    {
      "midi": 55,
      "hit": false,
      "t": 73999.9259999998,
      "d": 666.6659999999974,
      "v": 85
    },
    {
      "midi": 76,
      "hit": false,
      "t": 74333.25899999995,
      "d": 1999.9980000000069,
      "v": 100
    },
    {
      "midi": 45,
      "hit": false,
      "t": 74666.5919999998,
      "d": 333.3329999999987,
      "v": 85
    },
    {
      "midi": 52,
      "hit": false,
      "t": 74999.9249999998,
      "d": 333.3329999999987,
      "v": 85
    },
    {
      "midi": 57,
      "hit": false,
      "t": 75333.2579999998,
      "d": 333.3329999999987,
      "v": 85
    },
    {
      "midi": 60,
      "hit": false,
      "t": 75666.5909999998,
      "d": 1666.6649999999936,
      "v": 85
    },
    {
      "midi": 77,
      "hit": false,
      "t": 76333.25699999995,
      "d": 333.3329999999987,
      "v": 100
    },
    {
      "midi": 76,
      "hit": false,
      "t": 76666.58999999995,
      "d": 333.3329999999987,
      "v": 100
    },
    {
      "midi": 69,
      "hit": false,
      "t": 76999.92299999995,
      "d": 333.3329999999987,
      "v": 100
    },
    {
      "midi": 41,
      "hit": false,
      "t": 77333.25599999979,
      "d": 333.3329999999987,
      "v": 85
    },
    {
      "midi": 79,
      "hit": false,
      "t": 77333.25599999995,
      "d": 666.6659999999974,
      "v": 100
    },
    {
      "midi": 48,
      "hit": false,
      "t": 77666.58899999979,
      "d": 333.3329999999987,
      "v": 85
    },
    {
      "midi": 53,
      "hit": false,
      "t": 77999.92199999979,
      "d": 333.3329999999987,
      "v": 85
    },
    {
      "midi": 77,
      "hit": false,
      "t": 77999.92199999995,
      "d": 333.3329999999987,
      "v": 100
    },
    {
      "midi": 57,
      "hit": false,
      "t": 78333.25499999979,
      "d": 333.3329999999987,
      "v": 85
    },
    {
      "midi": 76,
      "hit": false,
      "t": 78333.25499999995,
      "d": 666.6659999999974,
      "v": 100
    },
    {
      "midi": 40,
      "hit": false,
      "t": 78666.58799999979,
      "d": 333.3329999999987,
      "v": 85
    },
    {
      "midi": 47,
      "hit": false,
      "t": 78999.92099999978,
      "d": 333.3329999999987,
      "v": 85
    },
    {
      "midi": 79,
      "hit": false,
      "t": 78999.92099999994,
      "d": 999.9989999999962,
      "v": 100
    },
    {
      "midi": 52,
      "hit": false,
      "t": 79333.25399999978,
      "d": 333.3329999999987,
      "v": 85
    },
    {
      "midi": 55,
      "hit": false,
      "t": 79666.58699999978,
      "d": 333.3329999999987,
      "v": 85
    },
    {
      "midi": 38,
      "hit": false,
      "t": 79999.91999999978,
      "d": 333.3329999999987,
      "v": 85
    },
    {
      "midi": 72,
      "hit": false,
      "t": 79999.91999999994,
      "d": 999.9989999999962,
      "v": 100
    },
    {
      "midi": 45,
      "hit": false,
      "t": 80333.25299999978,
      "d": 333.3329999999987,
      "v": 85
    },
    {
      "midi": 50,
      "hit": false,
      "t": 80666.58599999978,
      "d": 333.3329999999987,
      "v": 85
    },
    {
      "midi": 53,
      "hit": false,
      "t": 80999.91899999978,
      "d": 1666.6649999999936,
      "v": 85
    },
    {
      "midi": 72,
      "hit": false,
      "t": 80999.91899999994,
      "d": 333.3329999999987,
      "v": 100
    },
    {
      "midi": 72,
      "hit": false,
      "t": 81333.25199999993,
      "d": 333.3329999999987,
      "v": 100
    },
    {
      "midi": 72,
      "hit": false,
      "t": 81666.58499999993,
      "d": 333.3329999999987,
      "v": 100
    },
    {
      "midi": 72,
      "hit": false,
      "t": 81999.91799999993,
      "d": 333.3329999999987,
      "v": 100
    },
    {
      "midi": 71,
      "hit": false,
      "t": 82333.25099999993,
      "d": 999.9989999999962,
      "v": 100
    },
    {
      "midi": 43,
      "hit": false,
      "t": 82666.58399999977,
      "d": 333.3329999999987,
      "v": 85
    },
    {
      "midi": 50,
      "hit": false,
      "t": 82999.91699999977,
      "d": 333.3329999999987,
      "v": 85
    },
    {
      "midi": 55,
      "hit": false,
      "t": 83333.24999999977,
      "d": 333.3329999999987,
      "v": 85
    },
    {
      "midi": 72,
      "hit": false,
      "t": 83333.24999999993,
      "d": 333.3329999999987,
      "v": 100
    },
    {
      "midi": 59,
      "hit": false,
      "t": 83666.58299999977,
      "d": 1666.6649999999936,
      "v": 85
    },
    {
      "midi": 74,
      "hit": false,
      "t": 83666.58299999993,
      "d": 666.6659999999974,
      "v": 100
    },
    {
      "midi": 71,
      "hit": false,
      "t": 84333.24899999992,
      "d": 333.3329999999987,
      "v": 100
    },
    {
      "midi": 69,
      "hit": false,
      "t": 84666.58199999992,
      "d": 333.3329999999987,
      "v": 100
    },
    {
      "midi": 67,
      "hit": false,
      "t": 84999.91499999992,
      "d": 666.6659999999974,
      "v": 100
    },
    {
      "midi": 48,
      "hit": false,
      "t": 85333.24799999976,
      "d": 333.3329999999987,
      "v": 85
    },
    {
      "midi": 55,
      "hit": false,
      "t": 85666.58099999976,
      "d": 333.3329999999987,
      "v": 85
    },
    {
      "midi": 71,
      "hit": false,
      "t": 85666.58099999992,
      "d": 333.3329999999987,
      "v": 100
    },
    {
      "midi": 60,
      "hit": false,
      "t": 85999.91399999976,
      "d": 333.3329999999987,
      "v": 85
    },
    {
      "midi": 72,
      "hit": false,
      "t": 85999.91399999992,
      "d": 333.3329999999987,
      "v": 100
    },
    {
      "midi": 64,
      "hit": false,
      "t": 86333.24699999976,
      "d": 1666.6649999999936,
      "v": 85
    },
    {
      "midi": 79,
      "hit": false,
      "t": 86333.24699999992,
      "d": 1666.6649999999936,
      "v": 100
    },
    {
      "midi": 44,
      "hit": false,
      "t": 87999.91199999975,
      "d": 333.3329999999987,
      "v": 85
    },
    {
      "midi": 68,
      "hit": false,
      "t": 87999.91199999991,
      "d": 333.3329999999987,
      "v": 100
    },
    {
      "midi": 51,
      "hit": false,
      "t": 88333.24499999975,
      "d": 333.3329999999987,
      "v": 85
    },
    {
      "midi": 72,
      "hit": false,
      "t": 88333.24499999991,
      "d": 333.3329999999987,
      "v": 100
    },
    {
      "midi": 56,
      "hit": false,
      "t": 88666.57799999975,
      "d": 333.3329999999987,
      "v": 85
    },
    {
      "midi": 79,
      "hit": false,
      "t": 88666.5779999999,
      "d": 333.3329999999987,
      "v": 100
    },
    {
      "midi": 60,
      "hit": false,
      "t": 88999.91099999975,
      "d": 333.3329999999987,
      "v": 85
    },
    {
      "midi": 77,
      "hit": false,
      "t": 88999.9109999999,
      "d": 666.6659999999974,
      "v": 100
    },
    {
      "midi": 46,
      "hit": false,
      "t": 89333.24399999974,
      "d": 333.3329999999987,
      "v": 85
    },
    {
      "midi": 53,
      "hit": false,
      "t": 89666.57699999974,
      "d": 333.3329999999987,
      "v": 85
    },
    {
      "midi": 74,
      "hit": false,
      "t": 89666.5769999999,
      "d": 666.6659999999974,
      "v": 100
    },
    {
      "midi": 58,
      "hit": false,
      "t": 89999.90999999974,
      "d": 333.3329999999987,
      "v": 85
    },
    {
      "midi": 62,
      "hit": false,
      "t": 90333.24299999974,
      "d": 333.3329999999987,
      "v": 85
    },
    {
      "midi": 65,
      "hit": false,
      "t": 90333.2429999999,
      "d": 333.3329999999987,
      "v": 100
    },
    {
      "midi": 48,
      "hit": false,
      "t": 90666.57599999974,
      "d": 333.3329999999987,
      "v": 85
    },
    {
      "midi": 67,
      "hit": false,
      "t": 90666.5759999999,
      "d": 1666.6649999999936,
      "v": 100
    },
    {
      "midi": 55,
      "hit": false,
      "t": 90999.90899999974,
      "d": 333.3329999999987,
      "v": 85
    },
    {
      "midi": 60,
      "hit": false,
      "t": 91333.24199999974,
      "d": 333.3329999999987,
      "v": 85
    },
    {
      "midi": 64,
      "hit": false,
      "t": 91666.57499999974,
      "d": 1666.6649999999936,
      "v": 85
    },
    {
      "midi": 74,
      "hit": false,
      "t": 92333.24099999989,
      "d": 333.3329999999987,
      "v": 100
    },
    {
      "midi": 72,
      "hit": false,
      "t": 92666.57399999989,
      "d": 333.3329999999987,
      "v": 100
    },
    {
      "midi": 71,
      "hit": false,
      "t": 92999.90699999989,
      "d": 999.9989999999962,
      "v": 100
    },
    {
      "midi": 47,
      "hit": false,
      "t": 93333.23999999973,
      "d": 333.3329999999987,
      "v": 85
    },
    {
      "midi": 55,
      "hit": false,
      "t": 93666.57299999973,
      "d": 333.3329999999987,
      "v": 85
    },
    {
      "midi": 59,
      "hit": false,
      "t": 93999.90599999973,
      "d": 333.3329999999987,
      "v": 85
    },
    {
      "midi": 72,
      "hit": false,
      "t": 93999.90599999989,
      "d": 333.3329999999987,
      "v": 100
    },
    {
      "midi": 62,
      "hit": false,
      "t": 94333.23899999972,
      "d": 999.9989999999962,
      "v": 85
    },
    {
      "midi": 74,
      "hit": false,
      "t": 94333.23899999988,
      "d": 666.6659999999974,
      "v": 100
    },
    {
      "midi": 72,
      "hit": false,
      "t": 94999.90499999988,
      "d": 666.6659999999974,
      "v": 100
    },
    {
      "midi": 55,
      "hit": false,
      "t": 95333.23799999972,
      "d": 666.6659999999974,
      "v": 85
    },
    {
      "midi": 76,
      "hit": false,
      "t": 95666.57099999988,
      "d": 1999.9980000000069,
      "v": 100
    },
    {
      "midi": 45,
      "hit": false,
      "t": 95999.90399999972,
      "d": 333.3329999999987,
      "v": 85
    },
    {
      "midi": 52,
      "hit": false,
      "t": 96333.23699999972,
      "d": 333.3329999999987,
      "v": 85
    },
    {
      "midi": 57,
      "hit": false,
      "t": 96666.56999999972,
      "d": 333.3329999999987,
      "v": 85
    },
    {
      "midi": 60,
      "hit": false,
      "t": 96999.90299999971,
      "d": 1666.6649999999936,
      "v": 85
    },
    {
      "midi": 77,
      "hit": false,
      "t": 97666.56899999989,
      "d": 333.3329999999987,
      "v": 100
    },
    {
      "midi": 76,
      "hit": false,
      "t": 97999.90199999989,
      "d": 333.3329999999987,
      "v": 100
    },
    {
      "midi": 69,
      "hit": false,
      "t": 98333.23499999988,
      "d": 333.3329999999987,
      "v": 100
    },
    {
      "midi": 41,
      "hit": false,
      "t": 98666.56799999971,
      "d": 333.3329999999987,
      "v": 85
    },
    {
      "midi": 79,
      "hit": false,
      "t": 98666.56799999988,
      "d": 666.6659999999974,
      "v": 100
    },
    {
      "midi": 48,
      "hit": false,
      "t": 98999.9009999997,
      "d": 333.3329999999987,
      "v": 85
    },
    {
      "midi": 53,
      "hit": false,
      "t": 99333.2339999997,
      "d": 333.3329999999987,
      "v": 85
    },
    {
      "midi": 77,
      "hit": false,
      "t": 99333.23399999988,
      "d": 333.3329999999987,
      "v": 100
    },
    {
      "midi": 57,
      "hit": false,
      "t": 99666.5669999997,
      "d": 333.3329999999987,
      "v": 85
    },
    {
      "midi": 76,
      "hit": false,
      "t": 99666.56699999988,
      "d": 666.6659999999974,
      "v": 100
    },
    {
      "midi": 40,
      "hit": false,
      "t": 99999.8999999997,
      "d": 333.3329999999987,
      "v": 85
    },
    {
      "midi": 47,
      "hit": false,
      "t": 100333.2329999997,
      "d": 333.3329999999987,
      "v": 85
    },
    {
      "midi": 79,
      "hit": false,
      "t": 100333.23299999988,
      "d": 999.9989999999962,
      "v": 100
    },
    {
      "midi": 52,
      "hit": false,
      "t": 100666.5659999997,
      "d": 333.3329999999987,
      "v": 85
    },
    {
      "midi": 55,
      "hit": false,
      "t": 100999.8989999997,
      "d": 333.3329999999987,
      "v": 85
    },
    {
      "midi": 38,
      "hit": false,
      "t": 101333.2319999997,
      "d": 333.3329999999987,
      "v": 85
    },
    {
      "midi": 72,
      "hit": false,
      "t": 101333.23199999987,
      "d": 999.9989999999962,
      "v": 100
    },
    {
      "midi": 45,
      "hit": false,
      "t": 101666.5649999997,
      "d": 333.3329999999987,
      "v": 85
    },
    {
      "midi": 50,
      "hit": false,
      "t": 101999.8979999997,
      "d": 333.3329999999987,
      "v": 85
    },
    {
      "midi": 53,
      "hit": false,
      "t": 102333.2309999997,
      "d": 1666.6649999999936,
      "v": 85
    },
    {
      "midi": 72,
      "hit": false,
      "t": 102333.23099999987,
      "d": 333.3329999999987,
      "v": 100
    },
    {
      "midi": 72,
      "hit": false,
      "t": 102666.56399999987,
      "d": 333.3329999999987,
      "v": 100
    },
    {
      "midi": 74,
      "hit": false,
      "t": 102999.89699999987,
      "d": 999.9989999999962,
      "v": 100
    },
    {
      "midi": 43,
      "hit": false,
      "t": 103999.89599999969,
      "d": 333.3329999999987,
      "v": 85
    },
    {
      "midi": 71,
      "hit": false,
      "t": 103999.89599999986,
      "d": 333.3329999999987,
      "v": 100
    },
    {
      "midi": 50,
      "hit": false,
      "t": 104333.22899999969,
      "d": 333.3329999999987,
      "v": 85
    },
    {
      "midi": 69,
      "hit": false,
      "t": 104333.22899999986,
      "d": 666.6659999999974,
      "v": 100
    },
    {
      "midi": 55,
      "hit": false,
      "t": 104666.56199999969,
      "d": 333.3329999999987,
      "v": 85
    },
    {
      "midi": 59,
      "hit": false,
      "t": 104999.89499999968,
      "d": 1666.6649999999936,
      "v": 85
    },
    {
      "midi": 67,
      "hit": false,
      "t": 104999.89499999986,
      "d": 666.6659999999974,
      "v": 100
    },
    {
      "midi": 74,
      "hit": false,
      "t": 105666.56099999986,
      "d": 666.6659999999974,
      "v": 100
    },
    {
      "midi": 74,
      "hit": false,
      "t": 106333.22699999985,
      "d": 611.1104999999952,
      "v": 100
    },
    {
      "midi": 48,
      "hit": false,
      "t": 106666.55999999968,
      "d": 333.3329999999987,
      "v": 85
    },
    {
      "midi": 74,
      "hit": false,
      "t": 106944.33749999985,
      "d": 55.55550000000221,
      "v": 100
    },
    {
      "midi": 55,
      "hit": false,
      "t": 106999.89299999968,
      "d": 333.3329999999987,
      "v": 85
    },
    {
      "midi": 76,
      "hit": false,
      "t": 106999.89299999985,
      "d": 333.3329999999987,
      "v": 100
    },
    {
      "midi": 60,
      "hit": false,
      "t": 107333.22599999967,
      "d": 333.3329999999987,
      "v": 85
    },
    {
      "midi": 72,
      "hit": false,
      "t": 107333.22599999985,
      "d": 1999.9980000000069,
      "v": 100
    },
    {
      "midi": 64,
      "hit": false,
      "t": 107666.55899999967,
      "d": 333.3329999999987,
      "v": 85
    },
    {
      "midi": 67,
      "hit": false,
      "t": 107999.89199999967,
      "d": 333.3329999999987,
      "v": 85
    },
    {
      "midi": 64,
      "hit": false,
      "t": 108333.22499999967,
      "d": 333.3329999999987,
      "v": 85
    },
    {
      "midi": 60,
      "hit": false,
      "t": 108666.55799999967,
      "d": 333.3329999999987,
      "v": 85
    },
    {
      "midi": 55,
      "hit": false,
      "t": 108999.89099999967,
      "d": 333.3329999999987,
      "v": 85
    },
    {
      "midi": 48,
      "hit": false,
      "t": 109333.22399999967,
      "d": 333.3329999999987,
      "v": 85
    },
    {
      "midi": 55,
      "hit": false,
      "t": 109666.55699999967,
      "d": 333.3329999999987,
      "v": 85
    },
    {
      "midi": 60,
      "hit": false,
      "t": 109999.88999999966,
      "d": 333.3329999999987,
      "v": 85
    },
    {
      "midi": 55,
      "hit": false,
      "t": 110333.22299999966,
      "d": 333.3329999999987,
      "v": 85
    },
    {
      "midi": 64,
      "hit": false,
      "t": 110666.55599999966,
      "d": 333.3329999999987,
      "v": 85
    },
    {
      "midi": 62,
      "hit": false,
      "t": 110999.88899999966,
      "d": 333.3329999999987,
      "v": 85
    },
    {
      "midi": 69,
      "hit": false,
      "t": 110999.88899999985,
      "d": 333.3329999999987,
      "v": 100
    },
    {
      "midi": 60,
      "hit": false,
      "t": 111333.22199999966,
      "d": 333.3329999999987,
      "v": 85
    },
    {
      "midi": 71,
      "hit": false,
      "t": 111333.22199999985,
      "d": 333.3329999999987,
      "v": 100
    },
    {
      "midi": 55,
      "hit": false,
      "t": 111666.55499999966,
      "d": 333.3329999999987,
      "v": 85
    },
    {
      "midi": 72,
      "hit": false,
      "t": 111666.55499999985,
      "d": 1999.9980000000069,
      "v": 100
    },
    {
      "midi": 41,
      "hit": false,
      "t": 111999.88799999966,
      "d": 333.3329999999987,
      "v": 85
    },
    {
      "midi": 48,
      "hit": false,
      "t": 112333.22099999966,
      "d": 333.3329999999987,
      "v": 85
    },
    {
      "midi": 53,
      "hit": false,
      "t": 112666.55399999965,
      "d": 333.3329999999987,
      "v": 85
    },
    {
      "midi": 48,
      "hit": false,
      "t": 112999.88699999965,
      "d": 333.3329999999987,
      "v": 85
    },
    {
      "midi": 57,
      "hit": false,
      "t": 113333.21999999965,
      "d": 333.3329999999987,
      "v": 85
    },
    {
      "midi": 48,
      "hit": false,
      "t": 113666.55299999965,
      "d": 333.3329999999987,
      "v": 85
    },
    {
      "midi": 69,
      "hit": false,
      "t": 113666.55299999985,
      "d": 333.3329999999987,
      "v": 100
    },
    {
      "midi": 53,
      "hit": false,
      "t": 113999.88599999965,
      "d": 333.3329999999987,
      "v": 85
    },
    {
      "midi": 71,
      "hit": false,
      "t": 113999.88599999985,
      "d": 333.3329999999987,
      "v": 100
    },
    {
      "midi": 48,
      "hit": false,
      "t": 114333.21899999965,
      "d": 333.3329999999987,
      "v": 85
    },
    {
      "midi": 72,
      "hit": false,
      "t": 114333.21899999985,
      "d": 1333.3319999999949,
      "v": 100
    },
    {
      "midi": 40,
      "hit": false,
      "t": 114666.55199999965,
      "d": 333.3329999999987,
      "v": 85
    },
    {
      "midi": 47,
      "hit": false,
      "t": 114999.88499999965,
      "d": 333.3329999999987,
      "v": 85
    },
    {
      "midi": 52,
      "hit": false,
      "t": 115333.21799999964,
      "d": 333.3329999999987,
      "v": 85
    },
    {
      "midi": 47,
      "hit": false,
      "t": 115666.55099999964,
      "d": 333.3329999999987,
      "v": 85
    },
    {
      "midi": 67,
      "hit": false,
      "t": 115666.55099999985,
      "d": 666.6659999999974,
      "v": 100
    },
    {
      "midi": 55,
      "hit": false,
      "t": 115999.88399999964,
      "d": 333.3329999999987,
      "v": 85
    },
    {
      "midi": 47,
      "hit": false,
      "t": 116333.21699999964,
      "d": 333.3329999999987,
      "v": 85
    },
    {
      "midi": 67,
      "hit": false,
      "t": 116333.21699999984,
      "d": 333.3329999999987,
      "v": 100
    },
    {
      "midi": 52,
      "hit": false,
      "t": 116666.54999999964,
      "d": 333.3329999999987,
      "v": 85
    },
    {
      "midi": 72,
      "hit": false,
      "t": 116666.54999999984,
      "d": 333.3329999999987,
      "v": 100
    },
    {
      "midi": 47,
      "hit": false,
      "t": 116999.88299999964,
      "d": 333.3329999999987,
      "v": 85
    },
    {
      "midi": 76,
      "hit": false,
      "t": 116999.88299999984,
      "d": 333.3329999999987,
      "v": 100
    },
    {
      "midi": 38,
      "hit": false,
      "t": 117333.21599999964,
      "d": 333.3329999999987,
      "v": 85
    },
    {
      "midi": 77,
      "hit": false,
      "t": 117333.21599999984,
      "d": 666.6659999999974,
      "v": 100
    },
    {
      "midi": 45,
      "hit": false,
      "t": 117666.54899999964,
      "d": 333.3329999999987,
      "v": 85
    },
    {
      "midi": 50,
      "hit": false,
      "t": 117999.88199999963,
      "d": 333.3329999999987,
      "v": 85
    },
    {
      "midi": 76,
      "hit": false,
      "t": 117999.88199999984,
      "d": 333.3329999999987,
      "v": 100
    },
    {
      "midi": 53,
      "hit": false,
      "t": 118333.21499999963,
      "d": 333.3329999999987,
      "v": 85
    },
    {
      "midi": 72,
      "hit": false,
      "t": 118333.21499999984,
      "d": 666.6659999999974,
      "v": 100
    },
    {
      "midi": 43,
      "hit": false,
      "t": 118666.54799999963,
      "d": 333.3329999999987,
      "v": 85
    },
    {
      "midi": 50,
      "hit": false,
      "t": 118999.88099999963,
      "d": 333.3329999999987,
      "v": 85
    },
    {
      "midi": 69,
      "hit": false,
      "t": 118999.88099999983,
      "d": 666.6659999999974,
      "v": 100
    },
    {
      "midi": 55,
      "hit": false,
      "t": 119333.21399999963,
      "d": 333.3329999999987,
      "v": 85
    },
    {
      "midi": 59,
      "hit": false,
      "t": 119666.54699999963,
      "d": 333.3329999999987,
      "v": 85
    },
    {
      "midi": 67,
      "hit": false,
      "t": 119666.54699999983,
      "d": 1999.9980000000069,
      "v": 100
    },
    {
      "midi": 36,
      "hit": false,
      "t": 119999.87999999963,
      "d": 333.3329999999987,
      "v": 85
    },
    {
      "midi": 43,
      "hit": false,
      "t": 120333.21299999963,
      "d": 333.3329999999987,
      "v": 85
    },
    {
      "midi": 48,
      "hit": false,
      "t": 120666.54599999962,
      "d": 333.3329999999987,
      "v": 85
    },
    {
      "midi": 43,
      "hit": false,
      "t": 120999.87899999962,
      "d": 333.3329999999987,
      "v": 85
    },
    {
      "midi": 52,
      "hit": false,
      "t": 121333.21199999962,
      "d": 333.3329999999987,
      "v": 85
    },
    {
      "midi": 48,
      "hit": false,
      "t": 121666.54499999962,
      "d": 333.3329999999987,
      "v": 85
    },
    {
      "midi": 72,
      "hit": false,
      "t": 121666.54499999984,
      "d": 333.3329999999987,
      "v": 100
    },
    {
      "midi": 55,
      "hit": false,
      "t": 121999.87799999962,
      "d": 333.3329999999987,
      "v": 85
    },
    {
      "midi": 74,
      "hit": false,
      "t": 121999.87799999984,
      "d": 333.3329999999987,
      "v": 100
    },
    {
      "midi": 52,
      "hit": false,
      "t": 122333.21099999962,
      "d": 333.3329999999987,
      "v": 85
    },
    {
      "midi": 75,
      "hit": false,
      "t": 122333.21099999984,
      "d": 1333.3319999999949,
      "v": 100
    },
    {
      "midi": 44,
      "hit": false,
      "t": 122666.54399999962,
      "d": 333.3329999999987,
      "v": 85
    },
    {
      "midi": 51,
      "hit": false,
      "t": 122999.87699999961,
      "d": 333.3329999999987,
      "v": 85
    },
    {
      "midi": 56,
      "hit": false,
      "t": 123333.20999999961,
      "d": 333.3329999999987,
      "v": 85
    },
    {
      "midi": 51,
      "hit": false,
      "t": 123666.54299999961,
      "d": 333.3329999999987,
      "v": 85
    },
    {
      "midi": 72,
      "hit": false,
      "t": 123666.54299999983,
      "d": 666.6659999999974,
      "v": 100
    },
    {
      "midi": 60,
      "hit": false,
      "t": 123999.87599999961,
      "d": 333.3329999999987,
      "v": 85
    },
    {
      "midi": 51,
      "hit": false,
      "t": 124333.20899999961,
      "d": 333.3329999999987,
      "v": 85
    },
    {
      "midi": 72,
      "hit": false,
      "t": 124333.20899999983,
      "d": 333.3329999999987,
      "v": 100
    },
    {
      "midi": 56,
      "hit": false,
      "t": 124666.54199999961,
      "d": 333.3329999999987,
      "v": 85
    },
    {
      "midi": 74,
      "hit": false,
      "t": 124666.54199999983,
      "d": 333.3329999999987,
      "v": 100
    },
    {
      "midi": 51,
      "hit": false,
      "t": 124999.8749999996,
      "d": 333.3329999999987,
      "v": 85
    },
    {
      "midi": 75,
      "hit": false,
      "t": 124999.87499999983,
      "d": 999.9989999999962,
      "v": 100
    },
    {
      "midi": 43,
      "hit": false,
      "t": 125333.2079999996,
      "d": 333.3329999999987,
      "v": 85
    },
    {
      "midi": 51,
      "hit": false,
      "t": 125666.5409999996,
      "d": 333.3329999999987,
      "v": 85
    },
    {
      "midi": 55,
      "hit": false,
      "t": 125999.8739999996,
      "d": 333.3329999999987,
      "v": 85
    },
    {
      "midi": 75,
      "hit": false,
      "t": 125999.87399999982,
      "d": 333.3329999999987,
      "v": 100
    },
    {
      "midi": 51,
      "hit": false,
      "t": 126333.2069999996,
      "d": 333.3329999999987,
      "v": 85
    },
    {
      "midi": 70,
      "hit": false,
      "t": 126333.20699999982,
      "d": 666.6659999999974,
      "v": 100
    },
    {
      "midi": 58,
      "hit": false,
      "t": 126666.5399999996,
      "d": 333.3329999999987,
      "v": 85
    },
    {
      "midi": 51,
      "hit": false,
      "t": 126999.8729999996,
      "d": 333.3329999999987,
      "v": 85
    },
    {
      "midi": 70,
      "hit": false,
      "t": 126999.87299999982,
      "d": 333.3329999999987,
      "v": 100
    },
    {
      "midi": 55,
      "hit": false,
      "t": 127333.2059999996,
      "d": 333.3329999999987,
      "v": 85
    },
    {
      "midi": 75,
      "hit": false,
      "t": 127333.20599999982,
      "d": 333.3329999999987,
      "v": 100
    },
    {
      "midi": 51,
      "hit": false,
      "t": 127666.5389999996,
      "d": 333.3329999999987,
      "v": 85
    },
    {
      "midi": 79,
      "hit": false,
      "t": 127666.53899999982,
      "d": 333.3329999999987,
      "v": 100
    },
    {
      "midi": 41,
      "hit": false,
      "t": 127999.8719999996,
      "d": 333.3329999999987,
      "v": 85
    },
    {
      "midi": 75,
      "hit": false,
      "t": 127999.87199999981,
      "d": 666.6659999999974,
      "v": 100
    },
    {
      "midi": 80,
      "hit": false,
      "t": 127999.87199999981,
      "d": 666.6659999999974,
      "v": 100
    },
    {
      "midi": 48,
      "hit": false,
      "t": 128333.2049999996,
      "d": 333.3329999999987,
      "v": 85
    },
    {
      "midi": 53,
      "hit": false,
      "t": 128666.5379999996,
      "d": 333.3329999999987,
      "v": 85
    },
    {
      "midi": 79,
      "hit": false,
      "t": 128666.53799999981,
      "d": 333.3329999999987,
      "v": 100
    },
    {
      "midi": 56,
      "hit": false,
      "t": 128999.87099999959,
      "d": 333.3329999999987,
      "v": 85
    },
    {
      "midi": 72,
      "hit": false,
      "t": 128999.87099999981,
      "d": 666.6659999999974,
      "v": 100
    },
    {
      "midi": 77,
      "hit": false,
      "t": 128999.87099999981,
      "d": 666.6659999999974,
      "v": 100
    },
    {
      "midi": 43,
      "hit": false,
      "t": 129333.20399999959,
      "d": 333.3329999999987,
      "v": 85
    },
    {
      "midi": 50,
      "hit": false,
      "t": 129666.53699999959,
      "d": 333.3329999999987,
      "v": 85
    },
    {
      "midi": 75,
      "hit": false,
      "t": 129666.53699999981,
      "d": 666.6659999999974,
      "v": 100
    },
    {
      "midi": 55,
      "hit": false,
      "t": 129999.86999999959,
      "d": 333.3329999999987,
      "v": 85
    },
    {
      "midi": 58,
      "hit": false,
      "t": 130333.20299999959,
      "d": 333.3329999999987,
      "v": 85
    },
    {
      "midi": 72,
      "hit": false,
      "t": 130333.2029999998,
      "d": 999.9990000000107,
      "v": 100
    },
    {
      "midi": 44,
      "hit": false,
      "t": 130666.53599999959,
      "d": 333.3329999999987,
      "v": 85
    },
    {
      "midi": 51,
      "hit": false,
      "t": 130999.86899999958,
      "d": 333.3329999999987,
      "v": 85
    },
    {
      "midi": 56,
      "hit": false,
      "t": 131333.20199999958,
      "d": 333.33300000001327,
      "v": 85
    },
    {
      "midi": 72,
      "hit": false,
      "t": 131333.20199999982,
      "d": 999.9990000000107,
      "v": 100
    },
    {
      "midi": 79,
      "hit": false,
      "t": 131333.20199999982,
      "d": 999.9990000000107,
      "v": 100
    },
    {
      "midi": 60,
      "hit": false,
      "t": 131666.5349999996,
      "d": 333.33300000001327,
      "v": 85
    },
    {
      "midi": 45,
      "hit": false,
      "t": 131999.8679999996,
      "d": 333.33300000001327,
      "v": 85
    },
    {
      "midi": 51,
      "hit": false,
      "t": 132333.20099999962,
      "d": 333.33300000001327,
      "v": 85
    },
    {
      "midi": 75,
      "hit": false,
      "t": 132333.20099999983,
      "d": 666.6659999999974,
      "v": 100
    },
    {
      "midi": 57,
      "hit": false,
      "t": 132666.53399999964,
      "d": 333.33300000001327,
      "v": 85
    },
    {
      "midi": 60,
      "hit": false,
      "t": 132999.86699999965,
      "d": 333.33300000001327,
      "v": 85
    },
    {
      "midi": 72,
      "hit": false,
      "t": 132999.86699999982,
      "d": 1999.9979999999923,
      "v": 100
    },
    {
      "midi": 77,
      "hit": false,
      "t": 132999.86699999982,
      "d": 1999.9979999999923,
      "v": 100
    },
    {
      "midi": 38,
      "hit": false,
      "t": 133333.19999999966,
      "d": 333.33300000001327,
      "v": 85
    },
    {
      "midi": 45,
      "hit": false,
      "t": 133666.53299999968,
      "d": 333.33300000001327,
      "v": 85
    },
    {
      "midi": 50,
      "hit": false,
      "t": 133999.8659999997,
      "d": 333.33300000001327,
      "v": 85
    },
    {
      "midi": 53,
      "hit": false,
      "t": 134333.1989999997,
      "d": 333.33300000001327,
      "v": 85
    },
    {
      "midi": 57,
      "hit": false,
      "t": 134666.53199999972,
      "d": 333.33300000001327,
      "v": 85
    },
    {
      "midi": 53,
      "hit": false,
      "t": 134999.86499999973,
      "d": 333.33300000001327,
      "v": 85
    },
    {
      "midi": 76,
      "hit": false,
      "t": 134999.86499999982,
      "d": 333.33300000001327,
      "v": 100
    },
    {
      "midi": 50,
      "hit": false,
      "t": 135333.19799999974,
      "d": 333.33300000001327,
      "v": 85
    },
    {
      "midi": 77,
      "hit": false,
      "t": 135333.19799999983,
      "d": 333.33300000001327,
      "v": 100
    },
    {
      "midi": 45,
      "hit": false,
      "t": 135666.53099999976,
      "d": 333.33300000001327,
      "v": 85
    },
    {
      "midi": 74,
      "hit": false,
      "t": 135666.53099999984,
      "d": 1555.5540000000037,
      "v": 100
    },
    {
      "midi": 79,
      "hit": false,
      "t": 135666.53099999984,
      "d": 1555.5540000000037,
      "v": 100
    },
    {
      "midi": 43,
      "hit": false,
      "t": 135999.86399999977,
      "d": 333.33300000001327,
      "v": 85
    },
    {
      "midi": 50,
      "hit": false,
      "t": 136333.19699999978,
      "d": 333.33300000001327,
      "v": 85
    },
    {
      "midi": 55,
      "hit": false,
      "t": 136666.5299999998,
      "d": 333.33300000001327,
      "v": 85
    },
    {
      "midi": 59,
      "hit": false,
      "t": 136999.8629999998,
      "d": 333.33300000001327,
      "v": 85
    },
    {
      "midi": 71,
      "hit": false,
      "t": 137222.08499999985,
      "d": 55.55549999998766,
      "v": 85
    },
    {
      "midi": 74,
      "hit": false,
      "t": 137277.64049999983,
      "d": 55.55549999998766,
      "v": 85
    },
    {
      "midi": 79,
      "hit": false,
      "t": 137333.19599999982,
      "d": 1333.3319999999949,
      "v": 100
    },
    {
      "midi": 62,
      "hit": false,
      "t": 137333.19599999982,
      "d": 999.9990000000107,
      "v": 85
    },
    {
      "midi": 55,
      "hit": false,
      "t": 138333.19499999983,
      "d": 333.33300000001327,
      "v": 85
    },
    {
      "midi": 69,
      "hit": false,
      "t": 138666.52799999982,
      "d": 1333.3319999999949,
      "v": 100
    },
    {
      "midi": 76,
      "hit": false,
      "t": 138666.52799999982,
      "d": 1333.3319999999949,
      "v": 100
    },
    {
      "midi": 41,
      "hit": false,
      "t": 138666.52799999985,
      "d": 333.33300000001327,
      "v": 85
    },
    {
      "midi": 48,
      "hit": false,
      "t": 138999.86099999986,
      "d": 333.33300000001327,
      "v": 85
    },
    {
      "midi": 53,
      "hit": false,
      "t": 139333.19399999987,
      "d": 333.33300000001327,
      "v": 85
    },
    {
      "midi": 57,
      "hit": false,
      "t": 139666.52699999989,
      "d": 333.33300000001327,
      "v": 85
    },
    {
      "midi": 76,
      "hit": false,
      "t": 139999.8599999998,
      "d": 999.9990000000107,
      "v": 100
    },
    {
      "midi": 81,
      "hit": false,
      "t": 139999.8599999998,
      "d": 999.9990000000107,
      "v": 100
    },
    {
      "midi": 60,
      "hit": false,
      "t": 139999.8599999999,
      "d": 333.33300000001327,
      "v": 85
    },
    {
      "midi": 57,
      "hit": false,
      "t": 140333.1929999999,
      "d": 333.33300000001327,
      "v": 85
    },
    {
      "midi": 53,
      "hit": false,
      "t": 140666.52599999993,
      "d": 333.33300000001327,
      "v": 85
    },
    {
      "midi": 71,
      "hit": false,
      "t": 140999.85899999982,
      "d": 2333.3310000000056,
      "v": 100
    },
    {
      "midi": 74,
      "hit": false,
      "t": 140999.85899999982,
      "d": 2333.3310000000056,
      "v": 100
    },
    {
      "midi": 48,
      "hit": false,
      "t": 140999.85899999994,
      "d": 333.33300000001327,
      "v": 85
    },
    {
      "midi": 41,
      "hit": false,
      "t": 141333.19199999995,
      "d": 333.33300000001327,
      "v": 85
    },
    {
      "midi": 50,
      "hit": false,
      "t": 141666.52499999997,
      "d": 333.33300000001327,
      "v": 85
    },
    {
      "midi": 55,
      "hit": false,
      "t": 141999.85799999998,
      "d": 333.33300000001327,
      "v": 85
    },
    {
      "midi": 59,
      "hit": false,
      "t": 142333.191,
      "d": 333.33300000001327,
      "v": 85
    },
    {
      "midi": 62,
      "hit": false,
      "t": 142666.524,
      "d": 333.33300000001327,
      "v": 85
    },
    {
      "midi": 59,
      "hit": false,
      "t": 142999.85700000002,
      "d": 333.33300000001327,
      "v": 85
    },
    {
      "midi": 71,
      "hit": false,
      "t": 143333.18999999983,
      "d": 333.33300000001327,
      "v": 100
    },
    {
      "midi": 55,
      "hit": false,
      "t": 143333.19000000003,
      "d": 333.33300000001327,
      "v": 85
    },
    {
      "midi": 72,
      "hit": false,
      "t": 143666.52299999984,
      "d": 333.33300000001327,
      "v": 100
    },
    {
      "midi": 50,
      "hit": false,
      "t": 143666.52300000004,
      "d": 333.33300000001327,
      "v": 85
    },
    {
      "midi": 74,
      "hit": false,
      "t": 143999.85599999985,
      "d": 333.33300000001327,
      "v": 100
    },
    {
      "midi": 40,
      "hit": false,
      "t": 143999.85600000006,
      "d": 333.33300000001327,
      "v": 85
    },
    {
      "midi": 74,
      "hit": false,
      "t": 144333.18899999987,
      "d": 333.33300000001327,
      "v": 100
    },
    {
      "midi": 47,
      "hit": false,
      "t": 144333.18900000007,
      "d": 333.33300000001327,
      "v": 85
    },
    {
      "midi": 74,
      "hit": false,
      "t": 144666.52199999988,
      "d": 333.33300000001327,
      "v": 100
    },
    {
      "midi": 52,
      "hit": false,
      "t": 144666.52200000008,
      "d": 333.33300000001327,
      "v": 85
    },
    {
      "midi": 74,
      "hit": false,
      "t": 144999.8549999999,
      "d": 333.33300000001327,
      "v": 100
    },
    {
      "midi": 55,
      "hit": false,
      "t": 144999.8550000001,
      "d": 333.33300000001327,
      "v": 85
    },
    {
      "midi": 74,
      "hit": false,
      "t": 145333.1879999999,
      "d": 333.33300000001327,
      "v": 100
    },
    {
      "midi": 59,
      "hit": false,
      "t": 145333.1880000001,
      "d": 333.33300000001327,
      "v": 85
    },
    {
      "midi": 72,
      "hit": false,
      "t": 145666.52099999992,
      "d": 333.33300000001327,
      "v": 100
    },
    {
      "midi": 55,
      "hit": false,
      "t": 145666.52100000012,
      "d": 333.33300000001327,
      "v": 85
    },
    {
      "midi": 71,
      "hit": false,
      "t": 145999.85399999993,
      "d": 333.33300000001327,
      "v": 100
    },
    {
      "midi": 52,
      "hit": false,
      "t": 145999.85400000014,
      "d": 333.33300000001327,
      "v": 85
    },
    {
      "midi": 72,
      "hit": false,
      "t": 146333.18699999995,
      "d": 1999.9979999999923,
      "v": 100
    },
    {
      "midi": 47,
      "hit": false,
      "t": 146333.18700000015,
      "d": 333.33300000001327,
      "v": 85
    },
    {
      "midi": 45,
      "hit": false,
      "t": 146666.52000000016,
      "d": 333.33300000001327,
      "v": 85
    },
    {
      "midi": 52,
      "hit": false,
      "t": 146999.85300000018,
      "d": 333.33300000001327,
      "v": 85
    },
    {
      "midi": 57,
      "hit": false,
      "t": 147333.1860000002,
      "d": 333.33300000001327,
      "v": 85
    },
    {
      "midi": 60,
      "hit": false,
      "t": 147666.5190000002,
      "d": 333.33300000001327,
      "v": 85
    },
    {
      "midi": 64,
      "hit": false,
      "t": 147999.85200000022,
      "d": 333.33300000001327,
      "v": 85
    },
    {
      "midi": 72,
      "hit": false,
      "t": 148333.18499999994,
      "d": 333.33300000001327,
      "v": 100
    },
    {
      "midi": 60,
      "hit": false,
      "t": 148333.18500000023,
      "d": 333.33300000001327,
      "v": 85
    },
    {
      "midi": 72,
      "hit": false,
      "t": 148666.51799999995,
      "d": 333.33300000001327,
      "v": 100
    },
    {
      "midi": 57,
      "hit": false,
      "t": 148666.51800000024,
      "d": 333.33300000001327,
      "v": 85
    },
    {
      "midi": 74,
      "hit": false,
      "t": 148999.85099999997,
      "d": 333.33300000001327,
      "v": 100
    },
    {
      "midi": 52,
      "hit": false,
      "t": 148999.85100000026,
      "d": 333.33300000001327,
      "v": 85
    },
    {
      "midi": 69,
      "hit": false,
      "t": 149333.18399999998,
      "d": 1333.3319999999949,
      "v": 100
    },
    {
      "midi": 76,
      "hit": false,
      "t": 149333.18399999998,
      "d": 1333.3319999999949,
      "v": 100
    },
    {
      "midi": 41,
      "hit": false,
      "t": 149333.18400000027,
      "d": 333.33300000001327,
      "v": 85
    },
    {
      "midi": 48,
      "hit": false,
      "t": 149666.51700000028,
      "d": 333.33300000001327,
      "v": 85
    },
    {
      "midi": 53,
      "hit": false,
      "t": 149999.8500000003,
      "d": 333.33300000001327,
      "v": 85
    },
    {
      "midi": 57,
      "hit": false,
      "t": 150333.1830000003,
      "d": 333.33300000001327,
      "v": 85
    },
    {
      "midi": 76,
      "hit": false,
      "t": 150666.51599999997,
      "d": 999.9990000000107,
      "v": 100
    },
    {
      "midi": 81,
      "hit": false,
      "t": 150666.51599999997,
      "d": 999.9990000000107,
      "v": 100
    },
    {
      "midi": 60,
      "hit": false,
      "t": 150666.51600000032,
      "d": 333.33300000001327,
      "v": 85
    },
    {
      "midi": 57,
      "hit": false,
      "t": 150999.84900000034,
      "d": 333.33300000001327,
      "v": 85
    },
    {
      "midi": 53,
      "hit": false,
      "t": 151333.18200000035,
      "d": 333.33300000001327,
      "v": 85
    },
    {
      "midi": 71,
      "hit": false,
      "t": 151666.51499999998,
      "d": 1333.3319999999949,
      "v": 100
    },
    {
      "midi": 74,
      "hit": false,
      "t": 151666.51499999998,
      "d": 1333.3319999999949,
      "v": 100
    },
    {
      "midi": 48,
      "hit": false,
      "t": 151666.51500000036,
      "d": 333.33300000001327,
      "v": 85
    },
    {
      "midi": 41,
      "hit": false,
      "t": 151999.84800000038,
      "d": 333.33300000001327,
      "v": 85
    },
    {
      "midi": 50,
      "hit": false,
      "t": 152333.1810000004,
      "d": 333.33300000001327,
      "v": 85
    },
    {
      "midi": 55,
      "hit": false,
      "t": 152666.5140000004,
      "d": 333.33300000001327,
      "v": 85
    },
    {
      "midi": 74,
      "hit": false,
      "t": 152999.84699999998,
      "d": 333.33300000001327,
      "v": 100
    },
    {
      "midi": 59,
      "hit": false,
      "t": 152999.84700000042,
      "d": 333.33300000001327,
      "v": 85
    },
    {
      "midi": 83,
      "hit": false,
      "t": 153333.18,
      "d": 666.6659999999974,
      "v": 100
    },
    {
      "midi": 62,
      "hit": false,
      "t": 153333.18000000043,
      "d": 333.33300000001327,
      "v": 85
    },
    {
      "midi": 59,
      "hit": false,
      "t": 153666.51300000044,
      "d": 333.33300000001327,
      "v": 85
    },
    {
      "midi": 81,
      "hit": false,
      "t": 153999.846,
      "d": 333.33300000001327,
      "v": 100
    },
    {
      "midi": 55,
      "hit": false,
      "t": 153999.84600000046,
      "d": 333.33300000001327,
      "v": 85
    },
    {
      "midi": 79,
      "hit": false,
      "t": 154333.179,
      "d": 1666.6650000000081,
      "v": 100
    },
    {
      "midi": 50,
      "hit": false,
      "t": 154333.17900000047,
      "d": 333.33300000001327,
      "v": 85
    },
    {
      "midi": 40,
      "hit": false,
      "t": 154666.51200000048,
      "d": 333.33300000001327,
      "v": 85
    },
    {
      "midi": 47,
      "hit": false,
      "t": 154999.8450000005,
      "d": 333.33300000001327,
      "v": 85
    },
    {
      "midi": 52,
      "hit": false,
      "t": 155333.1780000005,
      "d": 333.33300000001327,
      "v": 85
    },
    {
      "midi": 55,
      "hit": false,
      "t": 155666.51100000052,
      "d": 333.33300000001327,
      "v": 85
    },
    {
      "midi": 79,
      "hit": false,
      "t": 155999.844,
      "d": 333.33300000001327,
      "v": 100
    },
    {
      "midi": 59,
      "hit": false,
      "t": 155999.84400000054,
      "d": 333.33300000001327,
      "v": 85
    },
    {
      "midi": 81,
      "hit": false,
      "t": 156333.17700000003,
      "d": 333.33300000001327,
      "v": 100
    },
    {
      "midi": 55,
      "hit": false,
      "t": 156333.17700000055,
      "d": 333.33300000001327,
      "v": 85
    },
    {
      "midi": 79,
      "hit": false,
      "t": 156666.51000000004,
      "d": 333.33300000001327,
      "v": 100
    },
    {
      "midi": 52,
      "hit": false,
      "t": 156666.51000000056,
      "d": 333.33300000001327,
      "v": 85
    },
    {
      "midi": 76,
      "hit": false,
      "t": 156999.84300000005,
      "d": 2999.997000000003,
      "v": 100
    },
    {
      "midi": 47,
      "hit": false,
      "t": 156999.84300000058,
      "d": 333.33300000001327,
      "v": 85
    },
    {
      "midi": 45,
      "hit": false,
      "t": 157333.1760000006,
      "d": 333.33300000001327,
      "v": 85
    },
    {
      "midi": 52,
      "hit": false,
      "t": 157666.5090000006,
      "d": 333.33300000001327,
      "v": 85
    },
    {
      "midi": 57,
      "hit": false,
      "t": 157999.84200000062,
      "d": 333.33300000001327,
      "v": 85
    },
    {
      "midi": 61,
      "hit": false,
      "t": 158333.17500000063,
      "d": 333.33300000001327,
      "v": 85
    },
    {
      "midi": 64,
      "hit": false,
      "t": 158666.50800000064,
      "d": 333.33300000001327,
      "v": 85
    },
    {
      "midi": 61,
      "hit": false,
      "t": 158999.84100000066,
      "d": 333.33300000001327,
      "v": 85
    },
    {
      "midi": 57,
      "hit": false,
      "t": 159333.17400000067,
      "d": 333.33300000001327,
      "v": 85
    },
    {
      "midi": 52,
      "hit": false,
      "t": 159666.50700000068,
      "d": 333.33300000001327,
      "v": 85
    },
    {
      "midi": 69,
      "hit": false,
      "t": 159999.84000000005,
      "d": 1333.3319999999949,
      "v": 100
    },
    {
      "midi": 76,
      "hit": false,
      "t": 159999.84000000005,
      "d": 1333.3319999999949,
      "v": 100
    },
    {
      "midi": 41,
      "hit": false,
      "t": 159999.8400000007,
      "d": 333.33300000001327,
      "v": 85
    },
    {
      "midi": 48,
      "hit": false,
      "t": 160333.1730000007,
      "d": 333.33300000001327,
      "v": 85
    },
    {
      "midi": 53,
      "hit": false,
      "t": 160666.50600000072,
      "d": 333.33300000001327,
      "v": 85
    },
    {
      "midi": 57,
      "hit": false,
      "t": 160999.83900000073,
      "d": 333.33300000001327,
      "v": 85
    },
    {
      "midi": 76,
      "hit": false,
      "t": 161333.17200000005,
      "d": 999.9990000000107,
      "v": 100
    },
    {
      "midi": 81,
      "hit": false,
      "t": 161333.17200000005,
      "d": 999.9990000000107,
      "v": 100
    },
    {
      "midi": 60,
      "hit": false,
      "t": 161333.17200000075,
      "d": 333.33300000001327,
      "v": 85
    },
    {
      "midi": 57,
      "hit": false,
      "t": 161666.50500000076,
      "d": 333.33300000001327,
      "v": 85
    },
    {
      "midi": 53,
      "hit": false,
      "t": 161999.83800000077,
      "d": 333.33300000001327,
      "v": 85
    },
    {
      "midi": 71,
      "hit": false,
      "t": 162333.17100000006,
      "d": 2333.3310000000056,
      "v": 100
    },
    {
      "midi": 74,
      "hit": false,
      "t": 162333.17100000006,
      "d": 2333.3310000000056,
      "v": 100
    },
    {
      "midi": 48,
      "hit": false,
      "t": 162333.1710000008,
      "d": 333.33300000001327,
      "v": 85
    },
    {
      "midi": 41,
      "hit": false,
      "t": 162666.5040000008,
      "d": 333.33300000001327,
      "v": 85
    },
    {
      "midi": 50,
      "hit": false,
      "t": 162999.8370000008,
      "d": 333.33300000001327,
      "v": 85
    },
    {
      "midi": 55,
      "hit": false,
      "t": 163333.17000000083,
      "d": 333.33300000001327,
      "v": 85
    },
    {
      "midi": 59,
      "hit": false,
      "t": 163666.50300000084,
      "d": 333.33300000001327,
      "v": 85
    },
    {
      "midi": 62,
      "hit": false,
      "t": 163999.83600000085,
      "d": 333.33300000001327,
      "v": 85
    },
    {
      "midi": 59,
      "hit": false,
      "t": 164333.16900000087,
      "d": 333.33300000001327,
      "v": 85
    },
    {
      "midi": 71,
      "hit": false,
      "t": 164666.50200000007,
      "d": 333.33300000001327,
      "v": 100
    },
    {
      "midi": 55,
      "hit": false,
      "t": 164666.50200000088,
      "d": 333.33300000001327,
      "v": 85
    },
    {
      "midi": 72,
      "hit": false,
      "t": 164999.83500000008,
      "d": 333.33300000001327,
      "v": 100
    },
    {
      "midi": 50,
      "hit": false,
      "t": 164999.8350000009,
      "d": 333.33300000001327,
      "v": 85
    },
    {
      "midi": 74,
      "hit": false,
      "t": 165333.1680000001,
      "d": 333.33300000001327,
      "v": 100
    },
    {
      "midi": 40,
      "hit": false,
      "t": 165333.1680000009,
      "d": 333.33300000001327,
      "v": 85
    },
    {
      "midi": 74,
      "hit": false,
      "t": 165666.5010000001,
      "d": 333.33300000001327,
      "v": 100
    },
    {
      "midi": 47,
      "hit": false,
      "t": 165666.50100000092,
      "d": 333.33300000001327,
      "v": 85
    },
    {
      "midi": 74,
      "hit": false,
      "t": 165999.83400000012,
      "d": 333.33300000001327,
      "v": 100
    },
    {
      "midi": 52,
      "hit": false,
      "t": 165999.83400000093,
      "d": 333.33300000001327,
      "v": 85
    },
    {
      "midi": 74,
      "hit": false,
      "t": 166333.16700000013,
      "d": 333.33300000001327,
      "v": 100
    },
    {
      "midi": 55,
      "hit": false,
      "t": 166333.16700000095,
      "d": 333.33300000001327,
      "v": 85
    },
    {
      "midi": 74,
      "hit": false,
      "t": 166666.50000000015,
      "d": 333.33300000001327,
      "v": 100
    },
    {
      "midi": 59,
      "hit": false,
      "t": 166666.50000000096,
      "d": 333.33300000001327,
      "v": 85
    },
    {
      "midi": 72,
      "hit": false,
      "t": 166999.83300000016,
      "d": 333.33300000001327,
      "v": 100
    },
    {
      "midi": 55,
      "hit": false,
      "t": 166999.83300000097,
      "d": 333.33300000001327,
      "v": 85
    },
    {
      "midi": 71,
      "hit": false,
      "t": 167333.16600000017,
      "d": 333.33300000001327,
      "v": 100
    },
    {
      "midi": 52,
      "hit": false,
      "t": 167333.166000001,
      "d": 333.33300000001327,
      "v": 85
    },
    {
      "midi": 72,
      "hit": false,
      "t": 167666.49900000019,
      "d": 1999.9979999999923,
      "v": 100
    },
    {
      "midi": 47,
      "hit": false,
      "t": 167666.499000001,
      "d": 333.33300000001327,
      "v": 85
    },
    {
      "midi": 45,
      "hit": false,
      "t": 167999.832000001,
      "d": 333.33300000001327,
      "v": 85
    },
    {
      "midi": 52,
      "hit": false,
      "t": 168333.16500000103,
      "d": 333.33300000001327,
      "v": 85
    },
    {
      "midi": 57,
      "hit": false,
      "t": 168666.49800000104,
      "d": 333.33300000001327,
      "v": 85
    },
    {
      "midi": 52,
      "hit": false,
      "t": 168999.83100000105,
      "d": 333.33300000001327,
      "v": 85
    },
    {
      "midi": 60,
      "hit": false,
      "t": 169333.16400000107,
      "d": 333.33300000001327,
      "v": 85
    },
    {
      "midi": 69,
      "hit": false,
      "t": 169666.49700000018,
      "d": 333.33300000001327,
      "v": 100
    },
    {
      "midi": 59,
      "hit": false,
      "t": 169666.49700000108,
      "d": 333.33300000001327,
      "v": 85
    },
    {
      "midi": 69,
      "hit": false,
      "t": 169999.8300000002,
      "d": 333.33300000001327,
      "v": 100
    },
    {
      "midi": 57,
      "hit": false,
      "t": 169999.8300000011,
      "d": 333.33300000001327,
      "v": 85
    },
    {
      "midi": 71,
      "hit": false,
      "t": 170333.1630000002,
      "d": 333.33300000001327,
      "v": 100
    },
    {
      "midi": 52,
      "hit": false,
      "t": 170333.1630000011,
      "d": 333.33300000001327,
      "v": 85
    },
    {
      "midi": 69,
      "hit": false,
      "t": 170666.49600000022,
      "d": 1333.3319999999949,
      "v": 100
    },
    {
      "midi": 72,
      "hit": false,
      "t": 170666.49600000022,
      "d": 1333.3319999999949,
      "v": 100
    },
    {
      "midi": 38,
      "hit": false,
      "t": 170666.49600000112,
      "d": 333.33300000001327,
      "v": 85
    },
    {
      "midi": 45,
      "hit": false,
      "t": 170999.82900000113,
      "d": 333.33300000001327,
      "v": 85
    },
    {
      "midi": 50,
      "hit": false,
      "t": 171333.16200000115,
      "d": 333.33300000001327,
      "v": 85
    },
    {
      "midi": 53,
      "hit": false,
      "t": 171666.49500000116,
      "d": 333.33300000001327,
      "v": 85
    },
    {
      "midi": 72,
      "hit": false,
      "t": 171999.8280000002,
      "d": 999.9990000000107,
      "v": 100
    },
    {
      "midi": 76,
      "hit": false,
      "t": 171999.8280000002,
      "d": 999.9990000000107,
      "v": 100
    },
    {
      "midi": 57,
      "hit": false,
      "t": 171999.82800000117,
      "d": 333.33300000001327,
      "v": 85
    },
    {
      "midi": 53,
      "hit": false,
      "t": 172333.1610000012,
      "d": 333.33300000001327,
      "v": 85
    },
    {
      "midi": 50,
      "hit": false,
      "t": 172666.4940000012,
      "d": 333.33300000001327,
      "v": 85
    },
    {
      "midi": 71,
      "hit": false,
      "t": 172999.82700000022,
      "d": 1666.6650000000081,
      "v": 100
    },
    {
      "midi": 74,
      "hit": false,
      "t": 172999.82700000022,
      "d": 1666.6650000000081,
      "v": 100
    },
    {
      "midi": 45,
      "hit": false,
      "t": 172999.8270000012,
      "d": 333.33300000001327,
      "v": 85
    },
    {
      "midi": 40,
      "hit": false,
      "t": 173333.16000000123,
      "d": 333.33300000001327,
      "v": 85
    },
    {
      "midi": 47,
      "hit": false,
      "t": 173666.49300000124,
      "d": 333.33300000001327,
      "v": 85
    },
    {
      "midi": 52,
      "hit": false,
      "t": 173999.82600000125,
      "d": 333.33300000001327,
      "v": 85
    },
    {
      "midi": 55,
      "hit": false,
      "t": 174333.15900000127,
      "d": 333.33300000001327,
      "v": 85
    },
    {
      "midi": 71,
      "hit": false,
      "t": 174666.49200000023,
      "d": 333.33300000001327,
      "v": 100
    },
    {
      "midi": 59,
      "hit": false,
      "t": 174666.49200000128,
      "d": 333.33300000001327,
      "v": 85
    },
    {
      "midi": 72,
      "hit": false,
      "t": 174999.82500000024,
      "d": 333.33300000001327,
      "v": 100
    },
    {
      "midi": 55,
      "hit": false,
      "t": 174999.8250000013,
      "d": 333.33300000001327,
      "v": 85
    },
    {
      "midi": 71,
      "hit": false,
      "t": 175333.15800000026,
      "d": 333.33300000001327,
      "v": 100
    },
    {
      "midi": 52,
      "hit": false,
      "t": 175333.1580000013,
      "d": 333.33300000001327,
      "v": 85
    },
    {
      "midi": 69,
      "hit": false,
      "t": 175666.49100000027,
      "d": 2999.997000000003,
      "v": 100
    },
    {
      "midi": 47,
      "hit": false,
      "t": 175666.49100000132,
      "d": 333.33300000001327,
      "v": 85
    },
    {
      "midi": 45,
      "hit": false,
      "t": 175999.82400000133,
      "d": 333.33300000001327,
      "v": 85
    },
    {
      "midi": 50,
      "hit": false,
      "t": 176333.15700000135,
      "d": 333.33300000001327,
      "v": 85
    },
    {
      "midi": 52,
      "hit": false,
      "t": 176666.49000000136,
      "d": 333.33300000001327,
      "v": 85
    },
    {
      "midi": 55,
      "hit": false,
      "t": 176999.82300000137,
      "d": 333.33300000001327,
      "v": 85
    },
    {
      "midi": 57,
      "hit": false,
      "t": 177333.15600000139,
      "d": 333.33300000001327,
      "v": 85
    },
    {
      "midi": 52,
      "hit": false,
      "t": 177666.4890000014,
      "d": 333.33300000001327,
      "v": 85
    },
    {
      "midi": 50,
      "hit": false,
      "t": 177999.8220000014,
      "d": 333.33300000001327,
      "v": 85
    },
    {
      "midi": 52,
      "hit": false,
      "t": 178333.15500000142,
      "d": 333.33300000001327,
      "v": 85
    },
    {
      "midi": 45,
      "hit": false,
      "t": 178666.48800000144,
      "d": 333.33300000001327,
      "v": 85
    },
    {
      "midi": 49,
      "hit": false,
      "t": 178999.82100000145,
      "d": 333.33300000001327,
      "v": 85
    },
    {
      "midi": 52,
      "hit": false,
      "t": 179333.15400000146,
      "d": 333.33300000001327,
      "v": 85
    },
    {
      "midi": 49,
      "hit": false,
      "t": 179666.48700000148,
      "d": 333.33300000001327,
      "v": 85
    },
    {
      "midi": 57,
      "hit": false,
      "t": 179999.8200000015,
      "d": 333.33300000001327,
      "v": 85
    },
    {
      "midi": 52,
      "hit": false,
      "t": 180333.1530000015,
      "d": 333.33300000001327,
      "v": 85
    },
    {
      "midi": 49,
      "hit": false,
      "t": 180666.48600000152,
      "d": 333.33300000001327,
      "v": 85
    },
    {
      "midi": 52,
      "hit": false,
      "t": 180999.81900000153,
      "d": 333.33300000001327,
      "v": 85
    },
    {
      "midi": 43,
      "hit": false,
      "t": 181333.15200000154,
      "d": 333.33300000001327,
      "v": 85
    },
    {
      "midi": 48,
      "hit": false,
      "t": 181666.48500000156,
      "d": 333.33300000001327,
      "v": 85
    },
    {
      "midi": 50,
      "hit": false,
      "t": 181999.81800000157,
      "d": 333.33300000001327,
      "v": 85
    },
    {
      "midi": 53,
      "hit": false,
      "t": 182333.15100000158,
      "d": 333.33300000001327,
      "v": 85
    },
    {
      "midi": 55,
      "hit": false,
      "t": 182666.4840000016,
      "d": 333.33300000001327,
      "v": 85
    },
    {
      "midi": 53,
      "hit": false,
      "t": 182999.8170000016,
      "d": 333.33300000001327,
      "v": 85
    },
    {
      "midi": 50,
      "hit": false,
      "t": 183333.15000000162,
      "d": 333.33300000001327,
      "v": 85
    },
    {
      "midi": 47,
      "hit": false,
      "t": 183666.48300000164,
      "d": 333.33300000001327,
      "v": 85
    },
    {
      "midi": 43,
      "hit": false,
      "t": 183999.81600000165,
      "d": 333.33300000001327,
      "v": 85
    },
    {
      "midi": 74,
      "hit": false,
      "t": 184333.14900000027,
      "d": 333.33300000001327,
      "v": 100
    },
    {
      "midi": 79,
      "hit": false,
      "t": 184333.14900000027,
      "d": 333.33300000001327,
      "v": 100
    },
    {
      "midi": 50,
      "hit": false,
      "t": 184333.14900000166,
      "d": 333.33300000001327,
      "v": 85
    },
    {
      "midi": 74,
      "hit": false,
      "t": 184666.48200000028,
      "d": 666.6659999999974,
      "v": 100
    },
    {
      "midi": 79,
      "hit": false,
      "t": 184666.48200000028,
      "d": 666.6659999999974,
      "v": 100
    },
    {
      "midi": 55,
      "hit": false,
      "t": 184666.48200000168,
      "d": 333.33300000001327,
      "v": 85
    },
    {
      "midi": 50,
      "hit": false,
      "t": 184999.8150000017,
      "d": 333.33300000001327,
      "v": 85
    },
    {
      "midi": 59,
      "hit": false,
      "t": 185333.1480000017,
      "d": 1333.3319999999949,
      "v": 85
    },
    {
      "midi": 74,
      "hit": false,
      "t": 185666.4810000003,
      "d": 666.6659999999974,
      "v": 100
    },
    {
      "midi": 79,
      "hit": false,
      "t": 185666.4810000003,
      "d": 666.6659999999974,
      "v": 100
    },
    {
      "midi": 64,
      "hit": false,
      "t": 186333.1470000003,
      "d": 333.33300000001327,
      "v": 100
    },
    {
      "midi": 67,
      "hit": false,
      "t": 186666.4800000003,
      "d": 1666.6650000000081,
      "v": 100
    },
    {
      "midi": 48,
      "hit": false,
      "t": 186666.4800000017,
      "d": 333.33300000001327,
      "v": 85
    },
    {
      "midi": 55,
      "hit": false,
      "t": 186999.8130000017,
      "d": 333.33300000001327,
      "v": 85
    },
    {
      "midi": 60,
      "hit": false,
      "t": 187333.14600000173,
      "d": 333.33300000001327,
      "v": 85
    },
    {
      "midi": 64,
      "hit": false,
      "t": 187666.47900000174,
      "d": 1666.6650000000081,
      "v": 85
    },
    {
      "midi": 74,
      "hit": false,
      "t": 188333.1450000003,
      "d": 333.33300000001327,
      "v": 100
    },
    {
      "midi": 72,
      "hit": false,
      "t": 188666.47800000032,
      "d": 333.33300000001327,
      "v": 100
    },
    {
      "midi": 71,
      "hit": false,
      "t": 188999.81100000034,
      "d": 999.9990000000107,
      "v": 100
    },
    {
      "midi": 47,
      "hit": false,
      "t": 189333.14400000175,
      "d": 333.33300000001327,
      "v": 85
    },
    {
      "midi": 55,
      "hit": false,
      "t": 189666.47700000176,
      "d": 333.33300000001327,
      "v": 85
    },
    {
      "midi": 72,
      "hit": false,
      "t": 189999.81000000035,
      "d": 333.33300000001327,
      "v": 100
    },
    {
      "midi": 59,
      "hit": false,
      "t": 189999.81000000177,
      "d": 333.33300000001327,
      "v": 85
    },
    {
      "midi": 74,
      "hit": false,
      "t": 190333.14300000036,
      "d": 666.6659999999974,
      "v": 100
    },
    {
      "midi": 62,
      "hit": false,
      "t": 190333.1430000018,
      "d": 999.9990000000107,
      "v": 85
    },
    {
      "midi": 72,
      "hit": false,
      "t": 190999.80900000036,
      "d": 666.6659999999974,
      "v": 100
    },
    {
      "midi": 55,
      "hit": false,
      "t": 191333.1420000018,
      "d": 666.6659999999974,
      "v": 85
    },
    {
      "midi": 76,
      "hit": false,
      "t": 191666.47500000036,
      "d": 1999.9979999999923,
      "v": 100
    },
    {
      "midi": 45,
      "hit": false,
      "t": 191999.8080000018,
      "d": 333.33300000001327,
      "v": 85
    },
    {
      "midi": 52,
      "hit": false,
      "t": 192333.1410000018,
      "d": 333.33300000001327,
      "v": 85
    },
    {
      "midi": 57,
      "hit": false,
      "t": 192666.47400000182,
      "d": 333.33300000001327,
      "v": 85
    },
    {
      "midi": 60,
      "hit": false,
      "t": 192999.80700000183,
      "d": 1666.6650000000081,
      "v": 85
    },
    {
      "midi": 77,
      "hit": false,
      "t": 193666.47300000035,
      "d": 333.33300000001327,
      "v": 100
    },
    {
      "midi": 76,
      "hit": false,
      "t": 193999.80600000036,
      "d": 333.33300000001327,
      "v": 100
    },
    {
      "midi": 69,
      "hit": false,
      "t": 194333.13900000037,
      "d": 333.33300000001327,
      "v": 100
    },
    {
      "midi": 79,
      "hit": false,
      "t": 194666.4720000004,
      "d": 666.6659999999974,
      "v": 100
    },
    {
      "midi": 41,
      "hit": false,
      "t": 194666.47200000184,
      "d": 333.33300000001327,
      "v": 85
    },
    {
      "midi": 48,
      "hit": false,
      "t": 194999.80500000186,
      "d": 333.33300000001327,
      "v": 85
    },
    {
      "midi": 77,
      "hit": false,
      "t": 195333.13800000038,
      "d": 333.33300000001327,
      "v": 100
    },
    {
      "midi": 53,
      "hit": false,
      "t": 195333.13800000187,
      "d": 333.33300000001327,
      "v": 85
    },
    {
      "midi": 76,
      "hit": false,
      "t": 195666.4710000004,
      "d": 666.6659999999974,
      "v": 100
    },
    {
      "midi": 57,
      "hit": false,
      "t": 195666.47100000188,
      "d": 333.33300000001327,
      "v": 85
    },
    {
      "midi": 40,
      "hit": false,
      "t": 195999.8040000019,
      "d": 333.33300000001327,
      "v": 85
    },
    {
      "midi": 79,
      "hit": false,
      "t": 196333.1370000004,
      "d": 999.9990000000107,
      "v": 100
    },
    {
      "midi": 47,
      "hit": false,
      "t": 196333.1370000019,
      "d": 333.33300000001327,
      "v": 85
    },
    {
      "midi": 52,
      "hit": false,
      "t": 196666.47000000192,
      "d": 333.33300000001327,
      "v": 85
    },
    {
      "midi": 55,
      "hit": false,
      "t": 196999.80300000194,
      "d": 333.33300000001327,
      "v": 85
    },
    {
      "midi": 72,
      "hit": false,
      "t": 197333.1360000004,
      "d": 999.9990000000107,
      "v": 100
    },
    {
      "midi": 38,
      "hit": false,
      "t": 197333.13600000195,
      "d": 333.33300000001327,
      "v": 85
    },
    {
      "midi": 45,
      "hit": false,
      "t": 197666.46900000196,
      "d": 333.33300000001327,
      "v": 85
    },
    {
      "midi": 50,
      "hit": false,
      "t": 197999.80200000198,
      "d": 333.33300000001327,
      "v": 85
    },
    {
      "midi": 72,
      "hit": false,
      "t": 198333.13500000042,
      "d": 333.33300000001327,
      "v": 100
    },
    {
      "midi": 53,
      "hit": false,
      "t": 198333.135000002,
      "d": 1666.6650000000081,
      "v": 85
    },
    {
      "midi": 72,
      "hit": false,
      "t": 198666.46800000043,
      "d": 333.33300000001327,
      "v": 100
    },
    {
      "midi": 72,
      "hit": false,
      "t": 198999.80100000044,
      "d": 333.33300000001327,
      "v": 100
    },
    {
      "midi": 72,
      "hit": false,
      "t": 199333.13400000046,
      "d": 333.33300000001327,
      "v": 100
    },
    {
      "midi": 71,
      "hit": false,
      "t": 199666.46700000047,
      "d": 999.9990000000107,
      "v": 100
    },
    {
      "midi": 43,
      "hit": false,
      "t": 199999.800000002,
      "d": 333.33300000001327,
      "v": 85
    },
    {
      "midi": 50,
      "hit": false,
      "t": 200333.133000002,
      "d": 333.33300000001327,
      "v": 85
    },
    {
      "midi": 72,
      "hit": false,
      "t": 200666.46600000048,
      "d": 333.33300000001327,
      "v": 100
    },
    {
      "midi": 55,
      "hit": false,
      "t": 200666.46600000202,
      "d": 333.33300000001327,
      "v": 85
    },
    {
      "midi": 74,
      "hit": false,
      "t": 200999.7990000005,
      "d": 666.6659999999974,
      "v": 100
    },
    {
      "midi": 59,
      "hit": false,
      "t": 200999.79900000204,
      "d": 1666.6650000000081,
      "v": 85
    },
    {
      "midi": 71,
      "hit": false,
      "t": 201666.4650000005,
      "d": 333.33300000001327,
      "v": 100
    },
    {
      "midi": 69,
      "hit": false,
      "t": 201999.7980000005,
      "d": 333.33300000001327,
      "v": 100
    },
    {
      "midi": 67,
      "hit": false,
      "t": 202333.13100000052,
      "d": 666.6659999999974,
      "v": 100
    },
    {
      "midi": 48,
      "hit": false,
      "t": 202666.46400000204,
      "d": 333.33300000001327,
      "v": 85
    },
    {
      "midi": 71,
      "hit": false,
      "t": 202999.79700000052,
      "d": 333.33300000001327,
      "v": 100
    },
    {
      "midi": 55,
      "hit": false,
      "t": 202999.79700000206,
      "d": 333.33300000001327,
      "v": 85
    },
    {
      "midi": 72,
      "hit": false,
      "t": 203333.13000000053,
      "d": 333.33300000001327,
      "v": 100
    },
    {
      "midi": 60,
      "hit": false,
      "t": 203333.13000000207,
      "d": 333.33300000001327,
      "v": 85
    },
    {
      "midi": 79,
      "hit": false,
      "t": 203666.46300000054,
      "d": 1666.6650000000081,
      "v": 100
    },
    {
      "midi": 64,
      "hit": false,
      "t": 203666.46300000208,
      "d": 1666.6650000000081,
      "v": 85
    },
    {
      "midi": 68,
      "hit": false,
      "t": 205333.12800000055,
      "d": 333.33300000001327,
      "v": 100
    },
    {
      "midi": 44,
      "hit": false,
      "t": 205333.1280000021,
      "d": 333.33300000001327,
      "v": 85
    },
    {
      "midi": 72,
      "hit": false,
      "t": 205666.46100000056,
      "d": 333.33300000001327,
      "v": 100
    },
    {
      "midi": 51,
      "hit": false,
      "t": 205666.4610000021,
      "d": 333.33300000001327,
      "v": 85
    },
    {
      "midi": 79,
      "hit": false,
      "t": 205999.79400000058,
      "d": 333.33300000001327,
      "v": 100
    },
    {
      "midi": 56,
      "hit": false,
      "t": 205999.79400000212,
      "d": 333.33300000001327,
      "v": 85
    },
    {
      "midi": 77,
      "hit": false,
      "t": 206333.1270000006,
      "d": 666.6659999999974,
      "v": 100
    },
    {
      "midi": 60,
      "hit": false,
      "t": 206333.12700000213,
      "d": 333.33300000001327,
      "v": 85
    },
    {
      "midi": 46,
      "hit": false,
      "t": 206666.46000000215,
      "d": 333.33300000001327,
      "v": 85
    },
    {
      "midi": 74,
      "hit": false,
      "t": 206999.7930000006,
      "d": 666.6659999999974,
      "v": 100
    },
    {
      "midi": 53,
      "hit": false,
      "t": 206999.79300000216,
      "d": 333.33300000001327,
      "v": 85
    },
    {
      "midi": 58,
      "hit": false,
      "t": 207333.12600000217,
      "d": 333.33300000001327,
      "v": 85
    },
    {
      "midi": 65,
      "hit": false,
      "t": 207666.45900000058,
      "d": 333.33300000001327,
      "v": 100
    },
    {
      "midi": 62,
      "hit": false,
      "t": 207666.45900000219,
      "d": 333.33300000001327,
      "v": 85
    },
    {
      "midi": 67,
      "hit": false,
      "t": 207999.7920000006,
      "d": 1666.6650000000081,
      "v": 100
    },
    {
      "midi": 48,
      "hit": false,
      "t": 207999.7920000022,
      "d": 333.33300000001327,
      "v": 85
    },
    {
      "midi": 55,
      "hit": false,
      "t": 208333.1250000022,
      "d": 333.33300000001327,
      "v": 85
    },
    {
      "midi": 60,
      "hit": false,
      "t": 208666.45800000223,
      "d": 333.33300000001327,
      "v": 85
    },
    {
      "midi": 64,
      "hit": false,
      "t": 208999.79100000224,
      "d": 1666.6650000000081,
      "v": 85
    },
    {
      "midi": 74,
      "hit": false,
      "t": 209666.4570000006,
      "d": 333.33300000001327,
      "v": 100
    },
    {
      "midi": 72,
      "hit": false,
      "t": 209999.79000000062,
      "d": 333.33300000001327,
      "v": 100
    },
    {
      "midi": 71,
      "hit": false,
      "t": 210333.12300000063,
      "d": 999.9990000000107,
      "v": 100
    },
    {
      "midi": 47,
      "hit": false,
      "t": 210666.45600000225,
      "d": 333.33300000001327,
      "v": 85
    },
    {
      "midi": 55,
      "hit": false,
      "t": 210999.78900000226,
      "d": 333.33300000001327,
      "v": 85
    },
    {
      "midi": 72,
      "hit": false,
      "t": 211333.12200000064,
      "d": 333.33300000001327,
      "v": 100
    },
    {
      "midi": 59,
      "hit": false,
      "t": 211333.12200000227,
      "d": 333.33300000001327,
      "v": 85
    },
    {
      "midi": 74,
      "hit": false,
      "t": 211666.45500000066,
      "d": 666.6659999999974,
      "v": 100
    },
    {
      "midi": 62,
      "hit": false,
      "t": 211666.4550000023,
      "d": 999.9990000000107,
      "v": 85
    },
    {
      "midi": 72,
      "hit": false,
      "t": 212333.12100000065,
      "d": 666.6659999999974,
      "v": 100
    },
    {
      "midi": 55,
      "hit": false,
      "t": 212666.4540000023,
      "d": 666.6659999999974,
      "v": 85
    },
    {
      "midi": 76,
      "hit": false,
      "t": 212999.78700000065,
      "d": 1999.9979999999923,
      "v": 100
    },
    {
      "midi": 45,
      "hit": false,
      "t": 213333.1200000023,
      "d": 333.33300000001327,
      "v": 85
    },
    {
      "midi": 52,
      "hit": false,
      "t": 213666.4530000023,
      "d": 333.33300000001327,
      "v": 85
    },
    {
      "midi": 57,
      "hit": false,
      "t": 213999.78600000232,
      "d": 333.33300000001327,
      "v": 85
    },
    {
      "midi": 60,
      "hit": false,
      "t": 214333.11900000233,
      "d": 1666.6650000000081,
      "v": 85
    },
    {
      "midi": 77,
      "hit": false,
      "t": 214999.78500000064,
      "d": 333.33300000001327,
      "v": 100
    },
    {
      "midi": 76,
      "hit": false,
      "t": 215333.11800000066,
      "d": 333.33300000001327,
      "v": 100
    },
    {
      "midi": 69,
      "hit": false,
      "t": 215666.45100000067,
      "d": 333.33300000001327,
      "v": 100
    },
    {
      "midi": 79,
      "hit": false,
      "t": 215999.78400000068,
      "d": 666.6659999999974,
      "v": 100
    },
    {
      "midi": 41,
      "hit": false,
      "t": 215999.78400000234,
      "d": 333.33300000001327,
      "v": 85
    },
    {
      "midi": 48,
      "hit": false,
      "t": 216333.11700000236,
      "d": 333.33300000001327,
      "v": 85
    },
    {
      "midi": 77,
      "hit": false,
      "t": 216666.45000000068,
      "d": 333.33300000001327,
      "v": 100
    },
    {
      "midi": 53,
      "hit": false,
      "t": 216666.45000000237,
      "d": 333.33300000001327,
      "v": 85
    },
    {
      "midi": 76,
      "hit": false,
      "t": 216999.7830000007,
      "d": 666.6659999999974,
      "v": 100
    },
    {
      "midi": 57,
      "hit": false,
      "t": 216999.78300000238,
      "d": 333.33300000001327,
      "v": 85
    },
    {
      "midi": 40,
      "hit": false,
      "t": 217333.1160000024,
      "d": 333.33300000001327,
      "v": 85
    },
    {
      "midi": 79,
      "hit": false,
      "t": 217666.4490000007,
      "d": 999.9990000000107,
      "v": 100
    },
    {
      "midi": 47,
      "hit": false,
      "t": 217666.4490000024,
      "d": 333.33300000001327,
      "v": 85
    },
    {
      "midi": 52,
      "hit": false,
      "t": 217999.78200000242,
      "d": 333.33300000001327,
      "v": 85
    },
    {
      "midi": 55,
      "hit": false,
      "t": 218333.11500000244,
      "d": 333.33300000001327,
      "v": 85
    },
    {
      "midi": 72,
      "hit": false,
      "t": 218666.4480000007,
      "d": 999.9990000000107,
      "v": 100
    },
    {
      "midi": 38,
      "hit": false,
      "t": 218666.44800000245,
      "d": 333.33300000001327,
      "v": 85
    },
    {
      "midi": 45,
      "hit": false,
      "t": 218999.78100000246,
      "d": 333.33300000001327,
      "v": 85
    },
    {
      "midi": 50,
      "hit": false,
      "t": 219333.11400000248,
      "d": 333.33300000001327,
      "v": 85
    },
    {
      "midi": 72,
      "hit": false,
      "t": 219666.4470000007,
      "d": 333.33300000001327,
      "v": 100
    },
    {
      "midi": 53,
      "hit": false,
      "t": 219666.4470000025,
      "d": 1666.6650000000081,
      "v": 85
    },
    {
      "midi": 72,
      "hit": false,
      "t": 219999.78000000073,
      "d": 333.33300000001327,
      "v": 100
    },
    {
      "midi": 74,
      "hit": false,
      "t": 220333.11300000074,
      "d": 999.9990000000107,
      "v": 100
    },
    {
      "midi": 71,
      "hit": false,
      "t": 221333.11200000075,
      "d": 333.33300000001327,
      "v": 100
    },
    {
      "midi": 43,
      "hit": false,
      "t": 221333.1120000025,
      "d": 333.33300000001327,
      "v": 85
    },
    {
      "midi": 69,
      "hit": false,
      "t": 221666.44500000076,
      "d": 666.6659999999974,
      "v": 100
    },
    {
      "midi": 50,
      "hit": false,
      "t": 221666.4450000025,
      "d": 333.33300000001327,
      "v": 85
    },
    {
      "midi": 55,
      "hit": false,
      "t": 221999.77800000252,
      "d": 333.33300000001327,
      "v": 85
    },
    {
      "midi": 67,
      "hit": false,
      "t": 222333.11100000076,
      "d": 666.6659999999974,
      "v": 100
    },
    {
      "midi": 59,
      "hit": false,
      "t": 222333.11100000254,
      "d": 1666.6650000000081,
      "v": 85
    },
    {
      "midi": 74,
      "hit": false,
      "t": 222999.77700000076,
      "d": 666.6659999999974,
      "v": 100
    },
    {
      "midi": 74,
      "hit": false,
      "t": 223666.44300000076,
      "d": 611.1105000000098,
      "v": 100
    },
    {
      "midi": 48,
      "hit": false,
      "t": 223999.77600000254,
      "d": 333.33300000001327,
      "v": 85
    },
    {
      "midi": 74,
      "hit": false,
      "t": 224277.55350000077,
      "d": 55.55549999998766,
      "v": 100
    },
    {
      "midi": 76,
      "hit": false,
      "t": 224333.10900000075,
      "d": 333.33300000001327,
      "v": 100
    },
    {
      "midi": 55,
      "hit": false,
      "t": 224333.10900000256,
      "d": 333.33300000001327,
      "v": 85
    },
    {
      "midi": 72,
      "hit": false,
      "t": 224666.44200000077,
      "d": 1999.9979999999923,
      "v": 100
    },
    {
      "midi": 60,
      "hit": false,
      "t": 224666.44200000257,
      "d": 333.33300000001327,
      "v": 85
    },
    {
      "midi": 64,
      "hit": false,
      "t": 224999.77500000258,
      "d": 333.33300000001327,
      "v": 85
    },
    {
      "midi": 67,
      "hit": false,
      "t": 225333.1080000026,
      "d": 333.33300000001327,
      "v": 85
    },
    {
      "midi": 64,
      "hit": false,
      "t": 225666.4410000026,
      "d": 333.33300000001327,
      "v": 85
    },
    {
      "midi": 60,
      "hit": false,
      "t": 225999.77400000262,
      "d": 333.33300000001327,
      "v": 85
    },
    {
      "midi": 55,
      "hit": false,
      "t": 226333.10700000264,
      "d": 333.33300000001327,
      "v": 85
    },
    {
      "midi": 48,
      "hit": false,
      "t": 226666.44000000265,
      "d": 333.33300000001327,
      "v": 85
    },
    {
      "midi": 55,
      "hit": false,
      "t": 226999.77300000266,
      "d": 333.33300000001327,
      "v": 85
    },
    {
      "midi": 60,
      "hit": false,
      "t": 227333.10600000268,
      "d": 333.33300000001327,
      "v": 85
    },
    {
      "midi": 55,
      "hit": false,
      "t": 227666.4390000027,
      "d": 333.33300000001327,
      "v": 85
    },
    {
      "midi": 64,
      "hit": false,
      "t": 227999.7720000027,
      "d": 333.33300000001327,
      "v": 85
    },
    {
      "midi": 69,
      "hit": false,
      "t": 228333.10500000077,
      "d": 333.33300000001327,
      "v": 100
    },
    {
      "midi": 62,
      "hit": false,
      "t": 228333.10500000272,
      "d": 333.33300000001327,
      "v": 85
    },
    {
      "midi": 71,
      "hit": false,
      "t": 228666.43800000078,
      "d": 333.33300000001327,
      "v": 100
    },
    {
      "midi": 60,
      "hit": false,
      "t": 228666.43800000273,
      "d": 333.33300000001327,
      "v": 85
    },
    {
      "midi": 72,
      "hit": false,
      "t": 228999.7710000008,
      "d": 1999.9979999999923,
      "v": 100
    },
    {
      "midi": 55,
      "hit": false,
      "t": 228999.77100000274,
      "d": 333.33300000001327,
      "v": 85
    },
    {
      "midi": 41,
      "hit": false,
      "t": 229333.10400000276,
      "d": 333.33300000001327,
      "v": 85
    },
    {
      "midi": 48,
      "hit": false,
      "t": 229666.43700000277,
      "d": 333.33300000001327,
      "v": 85
    },
    {
      "midi": 53,
      "hit": false,
      "t": 229999.77000000278,
      "d": 333.33300000001327,
      "v": 85
    },
    {
      "midi": 48,
      "hit": false,
      "t": 230333.1030000028,
      "d": 333.33300000001327,
      "v": 85
    },
    {
      "midi": 57,
      "hit": false,
      "t": 230666.4360000028,
      "d": 333.33300000001327,
      "v": 85
    },
    {
      "midi": 69,
      "hit": false,
      "t": 230999.7690000008,
      "d": 333.33300000001327,
      "v": 100
    },
    {
      "midi": 48,
      "hit": false,
      "t": 230999.76900000282,
      "d": 333.33300000001327,
      "v": 85
    },
    {
      "midi": 71,
      "hit": false,
      "t": 231333.1020000008,
      "d": 333.33300000001327,
      "v": 100
    },
    {
      "midi": 53,
      "hit": false,
      "t": 231333.10200000284,
      "d": 333.33300000001327,
      "v": 85
    },
    {
      "midi": 72,
      "hit": false,
      "t": 231666.4350000008,
      "d": 1333.3319999999949,
      "v": 100
    },
    {
      "midi": 48,
      "hit": false,
      "t": 231666.43500000285,
      "d": 333.33300000001327,
      "v": 85
    },
    {
      "midi": 40,
      "hit": false,
      "t": 231999.76800000286,
      "d": 333.33300000001327,
      "v": 85
    },
    {
      "midi": 47,
      "hit": false,
      "t": 232333.10100000288,
      "d": 333.33300000001327,
      "v": 85
    },
    {
      "midi": 52,
      "hit": false,
      "t": 232666.4340000029,
      "d": 333.33300000001327,
      "v": 85
    },
    {
      "midi": 67,
      "hit": false,
      "t": 232999.7670000008,
      "d": 666.6659999999974,
      "v": 100
    },
    {
      "midi": 47,
      "hit": false,
      "t": 232999.7670000029,
      "d": 333.33300000001327,
      "v": 85
    },
    {
      "midi": 55,
      "hit": false,
      "t": 233333.10000000292,
      "d": 333.33300000001327,
      "v": 85
    },
    {
      "midi": 67,
      "hit": false,
      "t": 233666.4330000008,
      "d": 333.33300000001327,
      "v": 100
    },
    {
      "midi": 47,
      "hit": false,
      "t": 233666.43300000293,
      "d": 333.33300000001327,
      "v": 85
    },
    {
      "midi": 72,
      "hit": false,
      "t": 233999.76600000082,
      "d": 333.33300000001327,
      "v": 100
    },
    {
      "midi": 52,
      "hit": false,
      "t": 233999.76600000294,
      "d": 333.33300000001327,
      "v": 85
    },
    {
      "midi": 76,
      "hit": false,
      "t": 234333.09900000083,
      "d": 333.33300000001327,
      "v": 100
    },
    {
      "midi": 47,
      "hit": false,
      "t": 234333.09900000296,
      "d": 333.33300000001327,
      "v": 85
    },
    {
      "midi": 77,
      "hit": false,
      "t": 234666.43200000084,
      "d": 666.6659999999974,
      "v": 100
    },
    {
      "midi": 38,
      "hit": false,
      "t": 234666.43200000297,
      "d": 333.33300000001327,
      "v": 85
    },
    {
      "midi": 45,
      "hit": false,
      "t": 234999.76500000298,
      "d": 333.33300000001327,
      "v": 85
    },
    {
      "midi": 76,
      "hit": false,
      "t": 235333.09800000084,
      "d": 333.33300000001327,
      "v": 100
    },
    {
      "midi": 50,
      "hit": false,
      "t": 235333.098000003,
      "d": 333.33300000001327,
      "v": 85
    },
    {
      "midi": 72,
      "hit": false,
      "t": 235666.43100000086,
      "d": 666.6659999999974,
      "v": 100
    },
    {
      "midi": 53,
      "hit": false,
      "t": 235666.431000003,
      "d": 333.33300000001327,
      "v": 85
    },
    {
      "midi": 43,
      "hit": false,
      "t": 235999.76400000302,
      "d": 333.33300000001327,
      "v": 85
    },
    {
      "midi": 69,
      "hit": false,
      "t": 236333.09700000085,
      "d": 666.6659999999974,
      "v": 100
    },
    {
      "midi": 50,
      "hit": false,
      "t": 236333.09700000304,
      "d": 333.33300000001327,
      "v": 85
    },
    {
      "midi": 55,
      "hit": false,
      "t": 236666.43000000305,
      "d": 333.33300000001327,
      "v": 85
    },
    {
      "midi": 67,
      "hit": false,
      "t": 236999.76300000085,
      "d": 1999.9979999999923,
      "v": 100
    },
    {
      "midi": 59,
      "hit": false,
      "t": 236999.76300000306,
      "d": 333.33300000001327,
      "v": 85
    },
    {
      "midi": 36,
      "hit": false,
      "t": 237333.09600000308,
      "d": 333.33300000001327,
      "v": 85
    },
    {
      "midi": 43,
      "hit": false,
      "t": 237666.4290000031,
      "d": 333.33300000001327,
      "v": 85
    },
    {
      "midi": 48,
      "hit": false,
      "t": 237999.7620000031,
      "d": 333.33300000001327,
      "v": 85
    },
    {
      "midi": 43,
      "hit": false,
      "t": 238333.09500000312,
      "d": 333.33300000001327,
      "v": 85
    },
    {
      "midi": 52,
      "hit": false,
      "t": 238666.42800000313,
      "d": 333.33300000001327,
      "v": 85
    },
    {
      "midi": 72,
      "hit": false,
      "t": 238999.76100000084,
      "d": 333.33300000001327,
      "v": 100
    },
    {
      "midi": 48,
      "hit": false,
      "t": 238999.76100000314,
      "d": 333.33300000001327,
      "v": 85
    },
    {
      "midi": 74,
      "hit": false,
      "t": 239333.09400000086,
      "d": 333.33300000001327,
      "v": 100
    },
    {
      "midi": 55,
      "hit": false,
      "t": 239333.09400000316,
      "d": 333.33300000001327,
      "v": 85
    },
    {
      "midi": 75,
      "hit": false,
      "t": 239666.42700000087,
      "d": 1333.3319999999949,
      "v": 100
    },
    {
      "midi": 52,
      "hit": false,
      "t": 239666.42700000317,
      "d": 333.33300000001327,
      "v": 85
    },
    {
      "midi": 44,
      "hit": false,
      "t": 239999.76000000318,
      "d": 333.33300000001327,
      "v": 85
    },
    {
      "midi": 51,
      "hit": false,
      "t": 240333.0930000032,
      "d": 333.33300000001327,
      "v": 85
    },
    {
      "midi": 56,
      "hit": false,
      "t": 240666.4260000032,
      "d": 333.33300000001327,
      "v": 85
    },
    {
      "midi": 72,
      "hit": false,
      "t": 240999.75900000086,
      "d": 666.6659999999974,
      "v": 100
    },
    {
      "midi": 51,
      "hit": false,
      "t": 240999.75900000322,
      "d": 333.33300000001327,
      "v": 85
    },
    {
      "midi": 60,
      "hit": false,
      "t": 241333.09200000323,
      "d": 333.33300000001327,
      "v": 85
    },
    {
      "midi": 72,
      "hit": false,
      "t": 241666.42500000086,
      "d": 333.33300000001327,
      "v": 100
    },
    {
      "midi": 51,
      "hit": false,
      "t": 241666.42500000325,
      "d": 333.33300000001327,
      "v": 85
    },
    {
      "midi": 74,
      "hit": false,
      "t": 241999.75800000087,
      "d": 333.33300000001327,
      "v": 100
    },
    {
      "midi": 56,
      "hit": false,
      "t": 241999.75800000326,
      "d": 333.33300000001327,
      "v": 85
    },
    {
      "midi": 75,
      "hit": false,
      "t": 242333.0910000009,
      "d": 999.9990000000107,
      "v": 100
    },
    {
      "midi": 51,
      "hit": false,
      "t": 242333.09100000327,
      "d": 333.33300000001327,
      "v": 85
    },
    {
      "midi": 43,
      "hit": false,
      "t": 242666.4240000033,
      "d": 333.33300000001327,
      "v": 85
    },
    {
      "midi": 51,
      "hit": false,
      "t": 242999.7570000033,
      "d": 333.33300000001327,
      "v": 85
    },
    {
      "midi": 75,
      "hit": false,
      "t": 243333.0900000009,
      "d": 333.33300000001327,
      "v": 100
    },
    {
      "midi": 55,
      "hit": false,
      "t": 243333.0900000033,
      "d": 333.33300000001327,
      "v": 85
    },
    {
      "midi": 70,
      "hit": false,
      "t": 243666.4230000009,
      "d": 666.6659999999974,
      "v": 100
    },
    {
      "midi": 51,
      "hit": false,
      "t": 243666.42300000333,
      "d": 333.33300000001327,
      "v": 85
    },
    {
      "midi": 58,
      "hit": false,
      "t": 243999.75600000334,
      "d": 333.33300000001327,
      "v": 85
    },
    {
      "midi": 70,
      "hit": false,
      "t": 244333.0890000009,
      "d": 333.33300000001327,
      "v": 100
    },
    {
      "midi": 51,
      "hit": false,
      "t": 244333.08900000335,
      "d": 333.33300000001327,
      "v": 85
    },
    {
      "midi": 75,
      "hit": false,
      "t": 244666.42200000092,
      "d": 333.33300000001327,
      "v": 100
    },
    {
      "midi": 55,
      "hit": false,
      "t": 244666.42200000337,
      "d": 333.33300000001327,
      "v": 85
    },
    {
      "midi": 79,
      "hit": false,
      "t": 244999.75500000094,
      "d": 333.33300000001327,
      "v": 100
    },
    {
      "midi": 51,
      "hit": false,
      "t": 244999.75500000338,
      "d": 333.33300000001327,
      "v": 85
    },
    {
      "midi": 75,
      "hit": false,
      "t": 245333.08800000095,
      "d": 666.6659999999974,
      "v": 100
    },
    {
      "midi": 80,
      "hit": false,
      "t": 245333.08800000095,
      "d": 666.6659999999974,
      "v": 100
    },
    {
      "midi": 41,
      "hit": false,
      "t": 245333.0880000034,
      "d": 333.33300000001327,
      "v": 85
    },
    {
      "midi": 48,
      "hit": false,
      "t": 245666.4210000034,
      "d": 333.33300000001327,
      "v": 85
    },
    {
      "midi": 79,
      "hit": false,
      "t": 245999.75400000095,
      "d": 333.33300000001327,
      "v": 100
    },
    {
      "midi": 53,
      "hit": false,
      "t": 245999.75400000342,
      "d": 333.33300000001327,
      "v": 85
    },
    {
      "midi": 77,
      "hit": false,
      "t": 246333.08700000096,
      "d": 666.6659999999974,
      "v": 100
    },
    {
      "midi": 72,
      "hit": false,
      "t": 246333.08700000096,
      "d": 666.6659999999974,
      "v": 100
    },
    {
      "midi": 56,
      "hit": false,
      "t": 246333.08700000343,
      "d": 333.33300000001327,
      "v": 85
    },
    {
      "midi": 43,
      "hit": false,
      "t": 246666.42000000345,
      "d": 333.33300000001327,
      "v": 85
    },
    {
      "midi": 75,
      "hit": false,
      "t": 246999.75300000096,
      "d": 666.6659999999974,
      "v": 100
    },
    {
      "midi": 50,
      "hit": false,
      "t": 246999.75300000346,
      "d": 333.33300000001327,
      "v": 85
    },
    {
      "midi": 55,
      "hit": false,
      "t": 247333.08600000347,
      "d": 333.33300000001327,
      "v": 85
    },
    {
      "midi": 72,
      "hit": false,
      "t": 247666.41900000095,
      "d": 1999.9979999999923,
      "v": 100
    },
    {
      "midi": 79,
      "hit": false,
      "t": 247666.41900000095,
      "d": 1999.9979999999923,
      "v": 100
    },
    {
      "midi": 58,
      "hit": false,
      "t": 247666.4190000035,
      "d": 333.33300000001327,
      "v": 85
    },
    {
      "midi": 48,
      "hit": false,
      "t": 247999.7520000035,
      "d": 333.33300000001327,
      "v": 85
    },
    {
      "midi": 52,
      "hit": false,
      "t": 248333.0850000035,
      "d": 333.33300000001327,
      "v": 85
    },
    {
      "midi": 55,
      "hit": false,
      "t": 248666.41800000353,
      "d": 333.33300000001327,
      "v": 85
    },
    {
      "midi": 59,
      "hit": false,
      "t": 248999.75100000354,
      "d": 333.33300000001327,
      "v": 85
    },
    {
      "midi": 60,
      "hit": false,
      "t": 249333.08400000355,
      "d": 1333.3319999999949,
      "v": 85
    },
    {
      "midi": 72,
      "hit": false,
      "t": 249666.41700000095,
      "d": 333.33300000001327,
      "v": 100
    },
    {
      "midi": 72,
      "hit": false,
      "t": 249999.75000000096,
      "d": 333.33300000001327,
      "v": 100
    },
    {
      "midi": 74,
      "hit": false,
      "t": 250333.08300000097,
      "d": 333.33300000001327,
      "v": 100
    },
    {
      "midi": 76,
      "hit": false,
      "t": 250666.416000001,
      "d": 1333.3319999999949,
      "v": 100
    },
    {
      "midi": 53,
      "hit": false,
      "t": 250666.41600000355,
      "d": 999.9990000000107,
      "v": 85
    },
    {
      "midi": 64,
      "hit": false,
      "t": 250666.41600000355,
      "d": 999.9990000000107,
      "v": 85
    },
    {
      "midi": 60,
      "hit": false,
      "t": 250666.41600000355,
      "d": 999.9990000000107,
      "v": 85
    },
    {
      "midi": 57,
      "hit": false,
      "t": 250666.41600000355,
      "d": 999.9990000000107,
      "v": 85
    },
    {
      "midi": 53,
      "hit": false,
      "t": 251666.41500000356,
      "d": 333.33300000001327,
      "v": 85
    },
    {
      "midi": 76,
      "hit": false,
      "t": 251999.74800000098,
      "d": 333.33300000001327,
      "v": 100
    },
    {
      "midi": 57,
      "hit": false,
      "t": 251999.74800000357,
      "d": 333.33300000001327,
      "v": 85
    },
    {
      "midi": 81,
      "hit": false,
      "t": 252333.081000001,
      "d": 333.33300000001327,
      "v": 100
    },
    {
      "midi": 60,
      "hit": false,
      "t": 252333.08100000359,
      "d": 999.9990000000107,
      "v": 85
    },
    {
      "midi": 76,
      "hit": false,
      "t": 252666.414000001,
      "d": 333.33300000001327,
      "v": 100
    },
    {
      "midi": 74,
      "hit": false,
      "t": 252999.74700000102,
      "d": 1999.9979999999923,
      "v": 100
    },
    {
      "midi": 55,
      "hit": false,
      "t": 253333.0800000036,
      "d": 1333.3319999999949,
      "v": 85
    },
    {
      "midi": 65,
      "hit": false,
      "t": 253333.0800000036,
      "d": 1333.3319999999949,
      "v": 85
    },
    {
      "midi": 62,
      "hit": false,
      "t": 253333.0800000036,
      "d": 1333.3319999999949,
      "v": 85
    },
    {
      "midi": 59,
      "hit": false,
      "t": 253333.0800000036,
      "d": 1333.3319999999949,
      "v": 85
    },
    {
      "midi": 62,
      "hit": false,
      "t": 254666.4120000036,
      "d": 666.6659999999974,
      "v": 85
    },
    {
      "midi": 71,
      "hit": false,
      "t": 254999.745000001,
      "d": 333.33300000001327,
      "v": 100
    },
    {
      "midi": 71,
      "hit": false,
      "t": 255333.07800000103,
      "d": 333.33300000001327,
      "v": 100
    },
    {
      "midi": 59,
      "hit": false,
      "t": 255333.0780000036,
      "d": 666.6659999999974,
      "v": 85
    },
    {
      "midi": 72,
      "hit": false,
      "t": 255666.41100000104,
      "d": 333.33300000001327,
      "v": 100
    },
    {
      "midi": 74,
      "hit": false,
      "t": 255999.74400000105,
      "d": 1333.3319999999949,
      "v": 100
    },
    {
      "midi": 52,
      "hit": false,
      "t": 255999.7440000036,
      "d": 2666.6639999999898,
      "v": 85
    },
    {
      "midi": 62,
      "hit": false,
      "t": 255999.7440000036,
      "d": 2666.6639999999898,
      "v": 85
    },
    {
      "midi": 59,
      "hit": false,
      "t": 255999.7440000036,
      "d": 2666.6639999999898,
      "v": 85
    },
    {
      "midi": 55,
      "hit": false,
      "t": 255999.7440000036,
      "d": 2666.6639999999898,
      "v": 85
    },
    {
      "midi": 74,
      "hit": false,
      "t": 257333.07600000105,
      "d": 333.33300000001327,
      "v": 100
    },
    {
      "midi": 79,
      "hit": false,
      "t": 257666.40900000106,
      "d": 333.33300000001327,
      "v": 100
    },
    {
      "midi": 74,
      "hit": false,
      "t": 257999.74200000108,
      "d": 333.33300000001327,
      "v": 100
    },
    {
      "midi": 72,
      "hit": false,
      "t": 258333.0750000011,
      "d": 1999.9979999999923,
      "v": 100
    },
    {
      "midi": 53,
      "hit": false,
      "t": 258666.40800000358,
      "d": 1333.3319999999949,
      "v": 85
    },
    {
      "midi": 64,
      "hit": false,
      "t": 258666.40800000358,
      "d": 1333.3319999999949,
      "v": 85
    },
    {
      "midi": 60,
      "hit": false,
      "t": 258666.40800000358,
      "d": 1333.3319999999949,
      "v": 85
    },
    {
      "midi": 57,
      "hit": false,
      "t": 258666.40800000358,
      "d": 1333.3319999999949,
      "v": 85
    },
    {
      "midi": 60,
      "hit": false,
      "t": 259999.74000000357,
      "d": 666.6659999999974,
      "v": 85
    },
    {
      "midi": 69,
      "hit": false,
      "t": 260333.07300000108,
      "d": 333.33300000001327,
      "v": 100
    },
    {
      "midi": 69,
      "hit": false,
      "t": 260666.4060000011,
      "d": 333.33300000001327,
      "v": 100
    },
    {
      "midi": 57,
      "hit": false,
      "t": 260666.40600000357,
      "d": 666.6659999999974,
      "v": 85
    },
    {
      "midi": 71,
      "hit": false,
      "t": 260999.7390000011,
      "d": 333.33300000001327,
      "v": 100
    },
    {
      "midi": 72,
      "hit": false,
      "t": 261333.07200000112,
      "d": 333.33300000001327,
      "v": 100
    },
    {
      "midi": 50,
      "hit": false,
      "t": 261333.07200000357,
      "d": 1666.6650000000081,
      "v": 85
    },
    {
      "midi": 60,
      "hit": false,
      "t": 261333.07200000357,
      "d": 1666.6650000000081,
      "v": 85
    },
    {
      "midi": 57,
      "hit": false,
      "t": 261333.07200000357,
      "d": 1666.6650000000081,
      "v": 85
    },
    {
      "midi": 53,
      "hit": false,
      "t": 261333.07200000357,
      "d": 1666.6650000000081,
      "v": 85
    },
    {
      "midi": 69,
      "hit": false,
      "t": 261666.40500000113,
      "d": 333.33300000001327,
      "v": 100
    },
    {
      "midi": 71,
      "hit": false,
      "t": 261999.73800000115,
      "d": 333.33300000001327,
      "v": 100
    },
    {
      "midi": 72,
      "hit": false,
      "t": 262333.07100000116,
      "d": 666.6660000000265,
      "v": 100
    },
    {
      "midi": 69,
      "hit": false,
      "t": 262999.7370000012,
      "d": 333.33299999998417,
      "v": 100
    },
    {
      "midi": 50,
      "hit": false,
      "t": 262999.7370000036,
      "d": 333.33299999998417,
      "v": 85
    },
    {
      "midi": 69,
      "hit": false,
      "t": 263333.0700000012,
      "d": 333.33299999998417,
      "v": 100
    },
    {
      "midi": 53,
      "hit": false,
      "t": 263333.07000000356,
      "d": 333.33299999998417,
      "v": 85
    },
    {
      "midi": 71,
      "hit": false,
      "t": 263666.40300000116,
      "d": 333.33299999998417,
      "v": 100
    },
    {
      "midi": 57,
      "hit": false,
      "t": 263666.40300000354,
      "d": 333.33299999998417,
      "v": 85
    },
    {
      "midi": 72,
      "hit": false,
      "t": 263999.73600000114,
      "d": 333.33299999998417,
      "v": 100
    },
    {
      "midi": 52,
      "hit": false,
      "t": 263999.7360000035,
      "d": 1666.664999999979,
      "v": 85
    },
    {
      "midi": 62,
      "hit": false,
      "t": 263999.7360000035,
      "d": 1666.664999999979,
      "v": 85
    },
    {
      "midi": 59,
      "hit": false,
      "t": 263999.7360000035,
      "d": 1666.664999999979,
      "v": 85
    },
    {
      "midi": 55,
      "hit": false,
      "t": 263999.7360000035,
      "d": 1666.664999999979,
      "v": 85
    },
    {
      "midi": 67,
      "hit": false,
      "t": 264333.0690000011,
      "d": 333.33299999998417,
      "v": 100
    },
    {
      "midi": 71,
      "hit": false,
      "t": 264666.4020000011,
      "d": 333.33299999998417,
      "v": 100
    },
    {
      "midi": 72,
      "hit": false,
      "t": 264999.7350000011,
      "d": 666.6660000000265,
      "v": 100
    },
    {
      "midi": 72,
      "hit": false,
      "t": 265666.4010000011,
      "d": 333.33299999998417,
      "v": 100
    },
    {
      "midi": 52,
      "hit": false,
      "t": 265666.4010000035,
      "d": 333.33299999998417,
      "v": 85
    },
    {
      "midi": 72,
      "hit": false,
      "t": 265999.7340000011,
      "d": 333.33299999998417,
      "v": 100
    },
    {
      "midi": 55,
      "hit": false,
      "t": 265999.7340000035,
      "d": 333.33299999998417,
      "v": 85
    },
    {
      "midi": 74,
      "hit": false,
      "t": 266333.0670000011,
      "d": 333.33299999998417,
      "v": 100
    },
    {
      "midi": 59,
      "hit": false,
      "t": 266333.0670000035,
      "d": 333.33299999998417,
      "v": 85
    },
    {
      "midi": 76,
      "hit": false,
      "t": 266666.4000000011,
      "d": 1333.3319999999949,
      "v": 100
    },
    {
      "midi": 53,
      "hit": false,
      "t": 266666.40000000346,
      "d": 1333.3319999999949,
      "v": 85
    },
    {
      "midi": 64,
      "hit": false,
      "t": 266666.40000000346,
      "d": 1333.3319999999949,
      "v": 85
    },
    {
      "midi": 60,
      "hit": false,
      "t": 266666.40000000346,
      "d": 1333.3319999999949,
      "v": 85
    },
    {
      "midi": 57,
      "hit": false,
      "t": 266666.40000000346,
      "d": 1333.3319999999949,
      "v": 85
    },
    {
      "midi": 76,
      "hit": false,
      "t": 267999.73200000107,
      "d": 333.33299999998417,
      "v": 100
    },
    {
      "midi": 64,
      "hit": false,
      "t": 267999.73200000345,
      "d": 1333.3319999999949,
      "v": 85
    },
    {
      "midi": 77,
      "hit": false,
      "t": 268333.06500000105,
      "d": 333.33299999998417,
      "v": 100
    },
    {
      "midi": 76,
      "hit": false,
      "t": 268666.39800000103,
      "d": 333.33299999998417,
      "v": 100
    },
    {
      "midi": 74,
      "hit": false,
      "t": 268999.731000001,
      "d": 2999.996999999974,
      "v": 100
    },
    {
      "midi": 55,
      "hit": false,
      "t": 269333.06400000345,
      "d": 1666.664999999979,
      "v": 85
    },
    {
      "midi": 65,
      "hit": false,
      "t": 269333.06400000345,
      "d": 1666.664999999979,
      "v": 85
    },
    {
      "midi": 62,
      "hit": false,
      "t": 269333.06400000345,
      "d": 1666.664999999979,
      "v": 85
    },
    {
      "midi": 59,
      "hit": false,
      "t": 269333.06400000345,
      "d": 1666.664999999979,
      "v": 85
    },
    {
      "midi": 55,
      "hit": false,
      "t": 270999.7290000034,
      "d": 333.33299999998417,
      "v": 85
    },
    {
      "midi": 59,
      "hit": false,
      "t": 271333.0620000034,
      "d": 333.33299999998417,
      "v": 85
    },
    {
      "midi": 62,
      "hit": false,
      "t": 271666.3950000034,
      "d": 333.33299999998417,
      "v": 85
    },
    {
      "midi": 69,
      "hit": false,
      "t": 271999.728000001,
      "d": 1333.3319999999949,
      "v": 100
    },
    {
      "midi": 76,
      "hit": false,
      "t": 271999.728000001,
      "d": 1333.3319999999949,
      "v": 100
    },
    {
      "midi": 41,
      "hit": false,
      "t": 271999.7280000034,
      "d": 333.33299999998417,
      "v": 85
    },
    {
      "midi": 48,
      "hit": false,
      "t": 272333.06100000336,
      "d": 333.33299999998417,
      "v": 85
    },
    {
      "midi": 53,
      "hit": false,
      "t": 272666.39400000335,
      "d": 333.33299999998417,
      "v": 85
    },
    {
      "midi": 57,
      "hit": false,
      "t": 272999.72700000333,
      "d": 333.33299999998417,
      "v": 85
    },
    {
      "midi": 76,
      "hit": false,
      "t": 273333.060000001,
      "d": 999.9990000000107,
      "v": 100
    },
    {
      "midi": 81,
      "hit": false,
      "t": 273333.060000001,
      "d": 999.9990000000107,
      "v": 100
    },
    {
      "midi": 60,
      "hit": false,
      "t": 273333.0600000033,
      "d": 333.33299999998417,
      "v": 85
    },
    {
      "midi": 57,
      "hit": false,
      "t": 273666.3930000033,
      "d": 333.33299999998417,
      "v": 85
    },
    {
      "midi": 53,
      "hit": false,
      "t": 273999.7260000033,
      "d": 333.33299999998417,
      "v": 85
    },
    {
      "midi": 71,
      "hit": false,
      "t": 274333.059000001,
      "d": 2333.3310000000056,
      "v": 100
    },
    {
      "midi": 74,
      "hit": false,
      "t": 274333.059000001,
      "d": 2333.3310000000056,
      "v": 100
    },
    {
      "midi": 48,
      "hit": false,
      "t": 274333.05900000327,
      "d": 333.33299999998417,
      "v": 85
    },
    {
      "midi": 41,
      "hit": false,
      "t": 274666.39200000325,
      "d": 333.33299999998417,
      "v": 85
    },
    {
      "midi": 50,
      "hit": false,
      "t": 274999.72500000324,
      "d": 333.33299999998417,
      "v": 85
    },
    {
      "midi": 55,
      "hit": false,
      "t": 275333.0580000032,
      "d": 333.33299999998417,
      "v": 85
    },
    {
      "midi": 59,
      "hit": false,
      "t": 275666.3910000032,
      "d": 333.33299999998417,
      "v": 85
    },
    {
      "midi": 62,
      "hit": false,
      "t": 275999.7240000032,
      "d": 333.33299999998417,
      "v": 85
    },
    {
      "midi": 59,
      "hit": false,
      "t": 276333.0570000032,
      "d": 333.33299999998417,
      "v": 85
    },
    {
      "midi": 71,
      "hit": false,
      "t": 276666.390000001,
      "d": 333.33299999998417,
      "v": 100
    },
    {
      "midi": 55,
      "hit": false,
      "t": 276666.39000000316,
      "d": 333.33299999998417,
      "v": 85
    },
    {
      "midi": 72,
      "hit": false,
      "t": 276999.723000001,
      "d": 333.33299999998417,
      "v": 100
    },
    {
      "midi": 50,
      "hit": false,
      "t": 276999.72300000314,
      "d": 333.33299999998417,
      "v": 85
    },
    {
      "midi": 74,
      "hit": false,
      "t": 277333.056000001,
      "d": 333.33299999998417,
      "v": 100
    },
    {
      "midi": 40,
      "hit": false,
      "t": 277333.0560000031,
      "d": 333.33299999998417,
      "v": 85
    },
    {
      "midi": 74,
      "hit": false,
      "t": 277666.38900000096,
      "d": 333.33299999998417,
      "v": 100
    },
    {
      "midi": 47,
      "hit": false,
      "t": 277666.3890000031,
      "d": 333.33299999998417,
      "v": 85
    },
    {
      "midi": 74,
      "hit": false,
      "t": 277999.72200000094,
      "d": 333.33299999998417,
      "v": 100
    },
    {
      "midi": 52,
      "hit": false,
      "t": 277999.7220000031,
      "d": 333.33299999998417,
      "v": 85
    },
    {
      "midi": 74,
      "hit": false,
      "t": 278333.0550000009,
      "d": 333.33299999998417,
      "v": 100
    },
    {
      "midi": 55,
      "hit": false,
      "t": 278333.0550000031,
      "d": 333.33299999998417,
      "v": 85
    },
    {
      "midi": 74,
      "hit": false,
      "t": 278666.3880000009,
      "d": 333.33299999998417,
      "v": 100
    },
    {
      "midi": 59,
      "hit": false,
      "t": 278666.38800000306,
      "d": 333.33299999998417,
      "v": 85
    },
    {
      "midi": 72,
      "hit": false,
      "t": 278999.7210000009,
      "d": 333.33299999998417,
      "v": 100
    },
    {
      "midi": 55,
      "hit": false,
      "t": 278999.72100000305,
      "d": 333.33299999998417,
      "v": 85
    },
    {
      "midi": 71,
      "hit": false,
      "t": 279333.0540000009,
      "d": 333.33299999998417,
      "v": 100
    },
    {
      "midi": 52,
      "hit": false,
      "t": 279333.05400000303,
      "d": 333.33299999998417,
      "v": 85
    },
    {
      "midi": 72,
      "hit": false,
      "t": 279666.38700000086,
      "d": 1999.9980000000214,
      "v": 100
    },
    {
      "midi": 47,
      "hit": false,
      "t": 279666.387000003,
      "d": 333.33299999998417,
      "v": 85
    },
    {
      "midi": 45,
      "hit": false,
      "t": 279999.720000003,
      "d": 333.33299999998417,
      "v": 85
    },
    {
      "midi": 52,
      "hit": false,
      "t": 280333.053000003,
      "d": 333.33299999998417,
      "v": 85
    },
    {
      "midi": 57,
      "hit": false,
      "t": 280666.38600000297,
      "d": 333.33299999998417,
      "v": 85
    },
    {
      "midi": 60,
      "hit": false,
      "t": 280999.71900000295,
      "d": 333.33299999998417,
      "v": 85
    },
    {
      "midi": 64,
      "hit": false,
      "t": 281333.05200000294,
      "d": 333.33299999998417,
      "v": 85
    },
    {
      "midi": 72,
      "hit": false,
      "t": 281666.3850000009,
      "d": 333.33299999998417,
      "v": 100
    },
    {
      "midi": 60,
      "hit": false,
      "t": 281666.3850000029,
      "d": 333.33299999998417,
      "v": 85
    },
    {
      "midi": 72,
      "hit": false,
      "t": 281999.71800000087,
      "d": 333.33299999998417,
      "v": 100
    },
    {
      "midi": 57,
      "hit": false,
      "t": 281999.7180000029,
      "d": 333.33299999998417,
      "v": 85
    },
    {
      "midi": 74,
      "hit": false,
      "t": 282333.05100000085,
      "d": 333.33299999998417,
      "v": 100
    },
    {
      "midi": 52,
      "hit": false,
      "t": 282333.0510000029,
      "d": 333.33299999998417,
      "v": 85
    },
    {
      "midi": 69,
      "hit": false,
      "t": 282666.38400000083,
      "d": 1333.3319999999949,
      "v": 100
    },
    {
      "midi": 76,
      "hit": false,
      "t": 282666.38400000083,
      "d": 1333.3319999999949,
      "v": 100
    },
    {
      "midi": 41,
      "hit": false,
      "t": 282666.3840000029,
      "d": 333.33299999998417,
      "v": 85
    },
    {
      "midi": 48,
      "hit": false,
      "t": 282999.71700000286,
      "d": 333.33299999998417,
      "v": 85
    },
    {
      "midi": 53,
      "hit": false,
      "t": 283333.05000000284,
      "d": 333.33299999998417,
      "v": 85
    },
    {
      "midi": 57,
      "hit": false,
      "t": 283666.3830000028,
      "d": 333.33299999998417,
      "v": 85
    },
    {
      "midi": 76,
      "hit": false,
      "t": 283999.71600000083,
      "d": 999.9990000000107,
      "v": 100
    },
    {
      "midi": 81,
      "hit": false,
      "t": 283999.71600000083,
      "d": 999.9990000000107,
      "v": 100
    },
    {
      "midi": 60,
      "hit": false,
      "t": 283999.7160000028,
      "d": 333.33299999998417,
      "v": 85
    },
    {
      "midi": 57,
      "hit": false,
      "t": 284333.0490000028,
      "d": 333.33299999998417,
      "v": 85
    },
    {
      "midi": 53,
      "hit": false,
      "t": 284666.3820000028,
      "d": 333.33299999998417,
      "v": 85
    },
    {
      "midi": 71,
      "hit": false,
      "t": 284999.71500000084,
      "d": 1333.3319999999949,
      "v": 100
    },
    {
      "midi": 74,
      "hit": false,
      "t": 284999.71500000084,
      "d": 1333.3319999999949,
      "v": 100
    },
    {
      "midi": 48,
      "hit": false,
      "t": 284999.71500000276,
      "d": 333.33299999998417,
      "v": 85
    },
    {
      "midi": 41,
      "hit": false,
      "t": 285333.04800000275,
      "d": 333.33299999998417,
      "v": 85
    },
    {
      "midi": 50,
      "hit": false,
      "t": 285666.38100000273,
      "d": 333.33299999998417,
      "v": 85
    },
    {
      "midi": 55,
      "hit": false,
      "t": 285999.7140000027,
      "d": 333.33299999998417,
      "v": 85
    },
    {
      "midi": 74,
      "hit": false,
      "t": 286333.04700000084,
      "d": 333.33299999998417,
      "v": 100
    },
    {
      "midi": 59,
      "hit": false,
      "t": 286333.0470000027,
      "d": 333.33299999998417,
      "v": 85
    },
    {
      "midi": 83,
      "hit": false,
      "t": 286666.3800000008,
      "d": 666.6660000000265,
      "v": 100
    },
    {
      "midi": 62,
      "hit": false,
      "t": 286666.3800000027,
      "d": 333.33299999998417,
      "v": 85
    },
    {
      "midi": 59,
      "hit": false,
      "t": 286999.71300000267,
      "d": 333.33299999998417,
      "v": 85
    },
    {
      "midi": 81,
      "hit": false,
      "t": 287333.04600000085,
      "d": 333.33299999998417,
      "v": 100
    },
    {
      "midi": 55,
      "hit": false,
      "t": 287333.04600000265,
      "d": 333.33299999998417,
      "v": 85
    },
    {
      "midi": 79,
      "hit": false,
      "t": 287666.37900000083,
      "d": 1666.664999999979,
      "v": 100
    },
    {
      "midi": 50,
      "hit": false,
      "t": 287666.37900000263,
      "d": 333.33299999998417,
      "v": 85
    },
    {
      "midi": 40,
      "hit": false,
      "t": 287999.7120000026,
      "d": 333.33299999998417,
      "v": 85
    },
    {
      "midi": 47,
      "hit": false,
      "t": 288333.0450000026,
      "d": 333.33299999998417,
      "v": 85
    },
    {
      "midi": 52,
      "hit": false,
      "t": 288666.3780000026,
      "d": 333.33299999998417,
      "v": 85
    },
    {
      "midi": 55,
      "hit": false,
      "t": 288999.7110000026,
      "d": 333.33299999998417,
      "v": 85
    },
    {
      "midi": 79,
      "hit": false,
      "t": 289333.0440000008,
      "d": 333.33299999998417,
      "v": 100
    },
    {
      "midi": 59,
      "hit": false,
      "t": 289333.04400000256,
      "d": 333.33299999998417,
      "v": 85
    },
    {
      "midi": 81,
      "hit": false,
      "t": 289666.3770000008,
      "d": 333.33299999998417,
      "v": 100
    },
    {
      "midi": 55,
      "hit": false,
      "t": 289666.37700000254,
      "d": 333.33299999998417,
      "v": 85
    },
    {
      "midi": 79,
      "hit": false,
      "t": 289999.7100000008,
      "d": 333.33299999998417,
      "v": 100
    },
    {
      "midi": 52,
      "hit": false,
      "t": 289999.7100000025,
      "d": 333.33299999998417,
      "v": 85
    },
    {
      "midi": 76,
      "hit": false,
      "t": 290333.04300000076,
      "d": 2999.996999999974,
      "v": 100
    },
    {
      "midi": 47,
      "hit": false,
      "t": 290333.0430000025,
      "d": 333.33299999998417,
      "v": 85
    },
    {
      "midi": 45,
      "hit": false,
      "t": 290666.3760000025,
      "d": 333.33299999998417,
      "v": 85
    },
    {
      "midi": 52,
      "hit": false,
      "t": 290999.7090000025,
      "d": 333.33299999998417,
      "v": 85
    },
    {
      "midi": 57,
      "hit": false,
      "t": 291333.04200000246,
      "d": 333.33299999998417,
      "v": 85
    },
    {
      "midi": 61,
      "hit": false,
      "t": 291666.37500000244,
      "d": 333.33299999998417,
      "v": 85
    },
    {
      "midi": 64,
      "hit": false,
      "t": 291999.7080000024,
      "d": 333.33299999998417,
      "v": 85
    },
    {
      "midi": 61,
      "hit": false,
      "t": 292333.0410000024,
      "d": 333.33299999998417,
      "v": 85
    },
    {
      "midi": 57,
      "hit": false,
      "t": 292666.3740000024,
      "d": 333.33299999998417,
      "v": 85
    },
    {
      "midi": 52,
      "hit": false,
      "t": 292999.7070000024,
      "d": 333.33299999998417,
      "v": 85
    },
    {
      "midi": 69,
      "hit": false,
      "t": 293333.04000000074,
      "d": 1333.3319999999949,
      "v": 100
    },
    {
      "midi": 76,
      "hit": false,
      "t": 293333.04000000074,
      "d": 1333.3319999999949,
      "v": 100
    },
    {
      "midi": 41,
      "hit": false,
      "t": 293333.04000000237,
      "d": 333.33299999998417,
      "v": 85
    },
    {
      "midi": 48,
      "hit": false,
      "t": 293666.37300000235,
      "d": 333.33299999998417,
      "v": 85
    },
    {
      "midi": 53,
      "hit": false,
      "t": 293999.70600000233,
      "d": 333.33299999998417,
      "v": 85
    },
    {
      "midi": 57,
      "hit": false,
      "t": 294333.0390000023,
      "d": 333.33299999998417,
      "v": 85
    },
    {
      "midi": 76,
      "hit": false,
      "t": 294666.37200000073,
      "d": 999.9990000000107,
      "v": 100
    },
    {
      "midi": 81,
      "hit": false,
      "t": 294666.37200000073,
      "d": 999.9990000000107,
      "v": 100
    },
    {
      "midi": 60,
      "hit": false,
      "t": 294666.3720000023,
      "d": 333.33299999998417,
      "v": 85
    },
    {
      "midi": 57,
      "hit": false,
      "t": 294999.7050000023,
      "d": 333.33299999998417,
      "v": 85
    },
    {
      "midi": 53,
      "hit": false,
      "t": 295333.03800000227,
      "d": 333.33299999998417,
      "v": 85
    },
    {
      "midi": 71,
      "hit": false,
      "t": 295666.37100000074,
      "d": 2333.3310000000056,
      "v": 100
    },
    {
      "midi": 74,
      "hit": false,
      "t": 295666.37100000074,
      "d": 2333.3310000000056,
      "v": 100
    },
    {
      "midi": 48,
      "hit": false,
      "t": 295666.37100000225,
      "d": 333.33299999998417,
      "v": 85
    },
    {
      "midi": 41,
      "hit": false,
      "t": 295999.70400000224,
      "d": 333.33299999998417,
      "v": 85
    },
    {
      "midi": 50,
      "hit": false,
      "t": 296333.0370000022,
      "d": 333.33299999998417,
      "v": 85
    },
    {
      "midi": 55,
      "hit": false,
      "t": 296666.3700000022,
      "d": 333.33299999998417,
      "v": 85
    },
    {
      "midi": 59,
      "hit": false,
      "t": 296999.7030000022,
      "d": 333.33299999998417,
      "v": 85
    },
    {
      "midi": 62,
      "hit": false,
      "t": 297333.0360000022,
      "d": 333.33299999998417,
      "v": 85
    },
    {
      "midi": 59,
      "hit": false,
      "t": 297666.36900000216,
      "d": 333.33299999998417,
      "v": 85
    },
    {
      "midi": 71,
      "hit": false,
      "t": 297999.70200000075,
      "d": 333.33299999998417,
      "v": 100
    },
    {
      "midi": 55,
      "hit": false,
      "t": 297999.70200000214,
      "d": 333.33299999998417,
      "v": 85
    },
    {
      "midi": 72,
      "hit": false,
      "t": 298333.03500000073,
      "d": 333.33299999998417,
      "v": 100
    },
    {
      "midi": 50,
      "hit": false,
      "t": 298333.0350000021,
      "d": 333.33299999998417,
      "v": 85
    },
    {
      "midi": 74,
      "hit": false,
      "t": 298666.3680000007,
      "d": 333.33299999998417,
      "v": 100
    },
    {
      "midi": 40,
      "hit": false,
      "t": 298666.3680000021,
      "d": 333.33299999998417,
      "v": 85
    },
    {
      "midi": 74,
      "hit": false,
      "t": 298999.7010000007,
      "d": 333.33299999998417,
      "v": 100
    },
    {
      "midi": 47,
      "hit": false,
      "t": 298999.7010000021,
      "d": 333.33299999998417,
      "v": 85
    },
    {
      "midi": 74,
      "hit": false,
      "t": 299333.0340000007,
      "d": 333.33299999998417,
      "v": 100
    },
    {
      "midi": 52,
      "hit": false,
      "t": 299333.0340000021,
      "d": 333.33299999998417,
      "v": 85
    },
    {
      "midi": 74,
      "hit": false,
      "t": 299666.36700000067,
      "d": 333.33299999998417,
      "v": 100
    },
    {
      "midi": 55,
      "hit": false,
      "t": 299666.36700000206,
      "d": 333.33299999998417,
      "v": 85
    },
    {
      "midi": 74,
      "hit": false,
      "t": 299999.70000000065,
      "d": 333.33299999998417,
      "v": 100
    },
    {
      "midi": 59,
      "hit": false,
      "t": 299999.70000000205,
      "d": 333.33299999998417,
      "v": 85
    },
    {
      "midi": 72,
      "hit": false,
      "t": 300333.03300000064,
      "d": 333.33299999998417,
      "v": 100
    },
    {
      "midi": 55,
      "hit": false,
      "t": 300333.03300000203,
      "d": 333.33299999998417,
      "v": 85
    },
    {
      "midi": 71,
      "hit": false,
      "t": 300666.3660000006,
      "d": 333.33299999998417,
      "v": 100
    },
    {
      "midi": 52,
      "hit": false,
      "t": 300666.366000002,
      "d": 333.33299999998417,
      "v": 85
    },
    {
      "midi": 72,
      "hit": false,
      "t": 300999.6990000006,
      "d": 1999.9980000000214,
      "v": 100
    },
    {
      "midi": 47,
      "hit": false,
      "t": 300999.699000002,
      "d": 333.33299999998417,
      "v": 85
    },
    {
      "midi": 45,
      "hit": false,
      "t": 301333.032000002,
      "d": 333.33299999998417,
      "v": 85
    },
    {
      "midi": 52,
      "hit": false,
      "t": 301666.36500000197,
      "d": 333.33299999998417,
      "v": 85
    },
    {
      "midi": 57,
      "hit": false,
      "t": 301999.69800000195,
      "d": 333.33299999998417,
      "v": 85
    },
    {
      "midi": 52,
      "hit": false,
      "t": 302333.03100000194,
      "d": 333.33299999998417,
      "v": 85
    },
    {
      "midi": 60,
      "hit": false,
      "t": 302666.3640000019,
      "d": 333.33299999998417,
      "v": 85
    },
    {
      "midi": 69,
      "hit": false,
      "t": 302999.6970000006,
      "d": 333.33299999998417,
      "v": 100
    },
    {
      "midi": 59,
      "hit": false,
      "t": 302999.6970000019,
      "d": 333.33299999998417,
      "v": 85
    },
    {
      "midi": 69,
      "hit": false,
      "t": 303333.0300000006,
      "d": 333.33299999998417,
      "v": 100
    },
    {
      "midi": 57,
      "hit": false,
      "t": 303333.0300000019,
      "d": 333.33299999998417,
      "v": 85
    },
    {
      "midi": 71,
      "hit": false,
      "t": 303666.3630000006,
      "d": 333.33299999998417,
      "v": 100
    },
    {
      "midi": 52,
      "hit": false,
      "t": 303666.3630000019,
      "d": 333.33299999998417,
      "v": 85
    },
    {
      "midi": 69,
      "hit": false,
      "t": 303999.6960000006,
      "d": 1333.3319999999949,
      "v": 100
    },
    {
      "midi": 72,
      "hit": false,
      "t": 303999.6960000006,
      "d": 1333.3319999999949,
      "v": 100
    },
    {
      "midi": 38,
      "hit": false,
      "t": 303999.69600000186,
      "d": 333.33299999998417,
      "v": 85
    },
    {
      "midi": 45,
      "hit": false,
      "t": 304333.02900000184,
      "d": 333.33299999998417,
      "v": 85
    },
    {
      "midi": 50,
      "hit": false,
      "t": 304666.3620000018,
      "d": 333.33299999998417,
      "v": 85
    },
    {
      "midi": 53,
      "hit": false,
      "t": 304999.6950000018,
      "d": 333.33299999998417,
      "v": 85
    },
    {
      "midi": 72,
      "hit": false,
      "t": 305333.0280000006,
      "d": 999.9990000000107,
      "v": 100
    },
    {
      "midi": 76,
      "hit": false,
      "t": 305333.0280000006,
      "d": 999.9990000000107,
      "v": 100
    },
    {
      "midi": 57,
      "hit": false,
      "t": 305333.0280000018,
      "d": 333.33299999998417,
      "v": 85
    },
    {
      "midi": 53,
      "hit": false,
      "t": 305666.3610000018,
      "d": 333.33299999998417,
      "v": 85
    },
    {
      "midi": 50,
      "hit": false,
      "t": 305999.69400000176,
      "d": 333.33299999998417,
      "v": 85
    },
    {
      "midi": 71,
      "hit": false,
      "t": 306333.0270000006,
      "d": 1999.9980000000214,
      "v": 100
    },
    {
      "midi": 74,
      "hit": false,
      "t": 306333.0270000006,
      "d": 1999.9980000000214,
      "v": 100
    },
    {
      "midi": 45,
      "hit": false,
      "t": 306333.02700000175,
      "d": 333.33299999998417,
      "v": 85
    },
    {
      "midi": 40,
      "hit": false,
      "t": 306666.36000000173,
      "d": 333.33299999998417,
      "v": 85
    },
    {
      "midi": 47,
      "hit": false,
      "t": 306999.6930000017,
      "d": 333.33299999998417,
      "v": 85
    },
    {
      "midi": 52,
      "hit": false,
      "t": 307333.0260000017,
      "d": 333.33299999998417,
      "v": 85
    },
    {
      "midi": 55,
      "hit": false,
      "t": 307666.3590000017,
      "d": 333.33299999998417,
      "v": 85
    },
    {
      "midi": 59,
      "hit": false,
      "t": 307999.69200000167,
      "d": 333.33299999998417,
      "v": 85
    },
    {
      "midi": 71,
      "hit": false,
      "t": 308333.0250000006,
      "d": 333.33299999998417,
      "v": 100
    },
    {
      "midi": 55,
      "hit": false,
      "t": 308333.02500000165,
      "d": 333.33299999998417,
      "v": 85
    },
    {
      "midi": 71,
      "hit": false,
      "t": 308666.3580000006,
      "d": 333.33299999998417,
      "v": 100
    },
    {
      "midi": 52,
      "hit": false,
      "t": 308666.35800000164,
      "d": 333.33299999998417,
      "v": 85
    },
    {
      "midi": 72,
      "hit": false,
      "t": 308999.6910000006,
      "d": 333.33299999998417,
      "v": 100
    },
    {
      "midi": 47,
      "hit": false,
      "t": 308999.6910000016,
      "d": 333.33299999998417,
      "v": 85
    },
    {
      "midi": 67,
      "hit": false,
      "t": 309333.02400000056,
      "d": 1333.3319999999949,
      "v": 100
    },
    {
      "midi": 74,
      "hit": false,
      "t": 309333.02400000056,
      "d": 1333.3319999999949,
      "v": 100
    },
    {
      "midi": 43,
      "hit": false,
      "t": 309333.0240000016,
      "d": 333.33299999998417,
      "v": 85
    },
    {
      "midi": 50,
      "hit": false,
      "t": 309666.3570000016,
      "d": 333.33299999998417,
      "v": 85
    },
    {
      "midi": 55,
      "hit": false,
      "t": 309999.6900000016,
      "d": 333.33299999998417,
      "v": 85
    },
    {
      "midi": 59,
      "hit": false,
      "t": 310333.02300000156,
      "d": 333.33299999998417,
      "v": 85
    },
    {
      "midi": 74,
      "hit": false,
      "t": 310666.35600000055,
      "d": 999.9990000000107,
      "v": 100
    },
    {
      "midi": 79,
      "hit": false,
      "t": 310666.35600000055,
      "d": 999.9990000000107,
      "v": 100
    },
    {
      "midi": 62,
      "hit": false,
      "t": 310666.35600000154,
      "d": 333.33299999998417,
      "v": 85
    },
    {
      "midi": 59,
      "hit": false,
      "t": 310999.6890000015,
      "d": 333.33299999998417,
      "v": 85
    },
    {
      "midi": 55,
      "hit": false,
      "t": 311333.0220000015,
      "d": 333.33299999998417,
      "v": 85
    },
    {
      "midi": 72,
      "hit": false,
      "t": 311666.35500000056,
      "d": 1999.9980000000214,
      "v": 100
    },
    {
      "midi": 76,
      "hit": false,
      "t": 311666.35500000056,
      "d": 1999.9980000000214,
      "v": 100
    },
    {
      "midi": 50,
      "hit": false,
      "t": 311666.3550000015,
      "d": 333.33299999998417,
      "v": 85
    },
    {
      "midi": 45,
      "hit": false,
      "t": 311999.6880000015,
      "d": 333.33299999998417,
      "v": 85
    },
    {
      "midi": 52,
      "hit": false,
      "t": 312333.02100000146,
      "d": 333.33299999998417,
      "v": 85
    },
    {
      "midi": 57,
      "hit": false,
      "t": 312666.35400000145,
      "d": 333.33299999998417,
      "v": 85
    },
    {
      "midi": 52,
      "hit": false,
      "t": 312999.68700000143,
      "d": 333.33299999998417,
      "v": 85
    },
    {
      "midi": 60,
      "hit": false,
      "t": 313333.0200000014,
      "d": 333.33299999998417,
      "v": 85
    },
    {
      "midi": 69,
      "hit": false,
      "t": 313666.3530000006,
      "d": 333.33299999998417,
      "v": 100
    },
    {
      "midi": 59,
      "hit": false,
      "t": 313666.3530000014,
      "d": 333.33299999998417,
      "v": 85
    },
    {
      "midi": 69,
      "hit": false,
      "t": 313999.68600000057,
      "d": 333.33299999998417,
      "v": 100
    },
    {
      "midi": 57,
      "hit": false,
      "t": 313999.6860000014,
      "d": 333.33299999998417,
      "v": 85
    },
    {
      "midi": 71,
      "hit": false,
      "t": 314333.01900000055,
      "d": 333.33299999998417,
      "v": 100
    },
    {
      "midi": 52,
      "hit": false,
      "t": 314333.01900000137,
      "d": 333.33299999998417,
      "v": 85
    },
    {
      "midi": 69,
      "hit": false,
      "t": 314666.35200000054,
      "d": 1333.3319999999949,
      "v": 100
    },
    {
      "midi": 72,
      "hit": false,
      "t": 314666.35200000054,
      "d": 1333.3319999999949,
      "v": 100
    },
    {
      "midi": 38,
      "hit": false,
      "t": 314666.35200000135,
      "d": 333.33299999998417,
      "v": 85
    },
    {
      "midi": 45,
      "hit": false,
      "t": 314999.68500000134,
      "d": 333.33299999998417,
      "v": 85
    },
    {
      "midi": 50,
      "hit": false,
      "t": 315333.0180000013,
      "d": 333.33299999998417,
      "v": 85
    },
    {
      "midi": 53,
      "hit": false,
      "t": 315666.3510000013,
      "d": 333.33299999998417,
      "v": 85
    },
    {
      "midi": 72,
      "hit": false,
      "t": 315999.68400000053,
      "d": 999.9990000000107,
      "v": 100
    },
    {
      "midi": 76,
      "hit": false,
      "t": 315999.68400000053,
      "d": 999.9990000000107,
      "v": 100
    },
    {
      "midi": 57,
      "hit": false,
      "t": 315999.6840000013,
      "d": 333.33299999998417,
      "v": 85
    },
    {
      "midi": 53,
      "hit": false,
      "t": 316333.0170000013,
      "d": 333.33299999998417,
      "v": 85
    },
    {
      "midi": 50,
      "hit": false,
      "t": 316666.35000000126,
      "d": 333.33299999998417,
      "v": 85
    },
    {
      "midi": 71,
      "hit": false,
      "t": 316999.68300000054,
      "d": 1666.664999999979,
      "v": 100
    },
    {
      "midi": 74,
      "hit": false,
      "t": 316999.68300000054,
      "d": 1666.664999999979,
      "v": 100
    },
    {
      "midi": 45,
      "hit": false,
      "t": 316999.68300000124,
      "d": 333.33299999998417,
      "v": 85
    },
    {
      "midi": 40,
      "hit": false,
      "t": 317333.0160000012,
      "d": 333.33299999998417,
      "v": 85
    },
    {
      "midi": 47,
      "hit": false,
      "t": 317666.3490000012,
      "d": 333.33299999998417,
      "v": 85
    },
    {
      "midi": 52,
      "hit": false,
      "t": 317999.6820000012,
      "d": 333.33299999998417,
      "v": 85
    },
    {
      "midi": 55,
      "hit": false,
      "t": 318333.0150000012,
      "d": 333.33299999998417,
      "v": 85
    },
    {
      "midi": 71,
      "hit": false,
      "t": 318666.3480000005,
      "d": 333.33299999998417,
      "v": 100
    },
    {
      "midi": 59,
      "hit": false,
      "t": 318666.34800000116,
      "d": 333.33299999998417,
      "v": 85
    },
    {
      "midi": 72,
      "hit": false,
      "t": 318999.6810000005,
      "d": 333.33299999998417,
      "v": 100
    },
    {
      "midi": 55,
      "hit": false,
      "t": 318999.68100000115,
      "d": 333.33299999998417,
      "v": 85
    },
    {
      "midi": 71,
      "hit": false,
      "t": 319333.0140000005,
      "d": 333.33299999998417,
      "v": 100
    },
    {
      "midi": 52,
      "hit": false,
      "t": 319333.01400000113,
      "d": 333.33299999998417,
      "v": 85
    },
    {
      "midi": 69,
      "hit": false,
      "t": 319666.3470000005,
      "d": 333.33299999998417,
      "v": 100
    },
    {
      "midi": 47,
      "hit": false,
      "t": 319666.3470000011,
      "d": 333.33299999998417,
      "v": 85
    },
    {
      "midi": 55,
      "hit": false,
      "t": 319999.68000000046,
      "d": 38.88884999998845,
      "v": 70
    },
    {
      "midi": 58,
      "hit": false,
      "t": 320038.56885000045,
      "d": 38.88884999998845,
      "v": 70
    },
    {
      "midi": 50,
      "hit": false,
      "t": 320077.45770000044,
      "d": 38.88884999998845,
      "v": 70
    },
    {
      "midi": 65,
      "hit": false,
      "t": 320116.3465500004,
      "d": 2544.441899999976,
      "v": 70
    },
    {
      "midi": 70,
      "hit": false,
      "t": 322666.3440000004,
      "d": 38.88884999998845,
      "v": 70
    },
    {
      "midi": 74,
      "hit": false,
      "t": 322705.2328500004,
      "d": 38.88884999998845,
      "v": 70
    },
    {
      "midi": 77,
      "hit": false,
      "t": 322744.12170000037,
      "d": 38.88884999998845,
      "v": 70
    },
    {
      "midi": 81,
      "hit": false,
      "t": 322783.01055000036,
      "d": 5211.105900000024,
      "v": 85
    }
  ]
}