{
  "jsonPath": "Animes/To Heart MIDI Collection/shinjitsu-no-kotone.json",
  "path": "Animes\\To Heart MIDI Collection\\Shinjitsu no Kotone.mid",
  "name": "Shinjitsu no Kotone",
  "difficulty": "Advanced",
  "bpm": 150,
  "notes": [
    {
      "midi": 74,
      "hit": false,
      "t": 2800,
      "d": 200,
      "v": 110
    },
    {
      "midi": 76,
      "hit": false,
      "t": 3000,
      "d": 200,
      "v": 110
    },
    {
      "midi": 72,
      "hit": false,
      "t": 3200,
      "d": 600,
      "v": 110
    },
    {
      "midi": 50,
      "hit": false,
      "t": 3200,
      "d": 1200,
      "v": 95
    },
    {
      "midi": 60,
      "hit": false,
      "t": 3200,
      "d": 1200,
      "v": 95
    },
    {
      "midi": 57,
      "hit": false,
      "t": 3200,
      "d": 1200,
      "v": 95
    },
    {
      "midi": 53,
      "hit": false,
      "t": 3200,
      "d": 1200,
      "v": 95
    },
    {
      "midi": 72,
      "hit": false,
      "t": 3800,
      "d": 600,
      "v": 110
    },
    {
      "midi": 72,
      "hit": false,
      "t": 4400,
      "d": 1200,
      "v": 110
    },
    {
      "midi": 50,
      "hit": false,
      "t": 4400,
      "d": 400,
      "v": 95
    },
    {
      "midi": 53,
      "hit": false,
      "t": 4800,
      "d": 400,
      "v": 95
    },
    {
      "midi": 57,
      "hit": false,
      "t": 5200,
      "d": 400,
      "v": 95
    },
    {
      "midi": 69,
      "hit": false,
      "t": 5600,
      "d": 200,
      "v": 110
    },
    {
      "midi": 60,
      "hit": false,
      "t": 5600,
      "d": 800,
      "v": 95
    },
    {
      "midi": 71,
      "hit": false,
      "t": 5800,
      "d": 200,
      "v": 110
    },
    {
      "midi": 72,
      "hit": false,
      "t": 6000,
      "d": 200,
      "v": 110
    },
    {
      "midi": 74,
      "hit": false,
      "t": 6200,
      "d": 200,
      "v": 110
    },
    {
      "midi": 76,
      "hit": false,
      "t": 6400,
      "d": 600,
      "v": 110
    },
    {
      "midi": 52,
      "hit": false,
      "t": 6400,
      "d": 1200,
      "v": 95
    },
    {
      "midi": 62,
      "hit": false,
      "t": 6400,
      "d": 1200,
      "v": 95
    },
    {
      "midi": 59,
      "hit": false,
      "t": 6400,
      "d": 1200,
      "v": 95
    },
    {
      "midi": 55,
      "hit": false,
      "t": 6400,
      "d": 1200,
      "v": 95
    },
    {
      "midi": 69,
      "hit": false,
      "t": 7000,
      "d": 600,
      "v": 110
    },
    {
      "midi": 74,
      "hit": false,
      "t": 7600,
      "d": 2000,
      "v": 110
    },
    {
      "midi": 52,
      "hit": false,
      "t": 7600,
      "d": 400,
      "v": 95
    },
    {
      "midi": 55,
      "hit": false,
      "t": 8000,
      "d": 400,
      "v": 95
    },
    {
      "midi": 59,
      "hit": false,
      "t": 8400,
      "d": 400,
      "v": 95
    },
    {
      "midi": 62,
      "hit": false,
      "t": 8800,
      "d": 800,
      "v": 95
    },
    {
      "midi": 72,
      "hit": false,
      "t": 9600,
      "d": 600,
      "v": 110
    },
    {
      "midi": 53,
      "hit": false,
      "t": 9600,
      "d": 1200,
      "v": 95
    },
    {
      "midi": 64,
      "hit": false,
      "t": 9600,
      "d": 1200,
      "v": 95
    },
    {
      "midi": 60,
      "hit": false,
      "t": 9600,
      "d": 1200,
      "v": 95
    },
    {
      "midi": 57,
      "hit": false,
      "t": 9600,
      "d": 1200,
      "v": 95
    },
    {
      "midi": 72,
      "hit": false,
      "t": 10200,
      "d": 600,
      "v": 110
    },
    {
      "midi": 72,
      "hit": false,
      "t": 10800,
      "d": 1200,
      "v": 110
    },
    {
      "midi": 53,
      "hit": false,
      "t": 10800,
      "d": 400,
      "v": 95
    },
    {
      "midi": 57,
      "hit": false,
      "t": 11200,
      "d": 400,
      "v": 95
    },
    {
      "midi": 60,
      "hit": false,
      "t": 11600,
      "d": 400,
      "v": 95
    },
    {
      "midi": 69,
      "hit": false,
      "t": 12000,
      "d": 200,
      "v": 110
    },
    {
      "midi": 64,
      "hit": false,
      "t": 12000,
      "d": 800,
      "v": 95
    },
    {
      "midi": 71,
      "hit": false,
      "t": 12200,
      "d": 200,
      "v": 110
    },
    {
      "midi": 72,
      "hit": false,
      "t": 12400,
      "d": 200,
      "v": 110
    },
    {
      "midi": 74,
      "hit": false,
      "t": 12600,
      "d": 200,
      "v": 110
    },
    {
      "midi": 76,
      "hit": false,
      "t": 12800,
      "d": 600,
      "v": 110
    },
    {
      "midi": 52,
      "hit": false,
      "t": 12800,
      "d": 1200,
      "v": 95
    },
    {
      "midi": 62,
      "hit": false,
      "t": 12800,
      "d": 1200,
      "v": 95
    },
    {
      "midi": 59,
      "hit": false,
      "t": 12800,
      "d": 1200,
      "v": 95
    },
    {
      "midi": 55,
      "hit": false,
      "t": 12800,
      "d": 1200,
      "v": 95
    },
    {
      "midi": 79,
      "hit": false,
      "t": 13400,
      "d": 600,
      "v": 110
    },
    {
      "midi": 74,
      "hit": false,
      "t": 14000,
      "d": 2000,
      "v": 110
    },
    {
      "midi": 52,
      "hit": false,
      "t": 14000,
      "d": 400,
      "v": 95
    },
    {
      "midi": 55,
      "hit": false,
      "t": 14400,
      "d": 400,
      "v": 95
    },
    {
      "midi": 59,
      "hit": false,
      "t": 14800,
      "d": 400,
      "v": 95
    },
    {
      "midi": 62,
      "hit": false,
      "t": 15200,
      "d": 800,
      "v": 95
    },
    {
      "midi": 72,
      "hit": false,
      "t": 16000,
      "d": 600,
      "v": 110
    },
    {
      "midi": 50,
      "hit": false,
      "t": 16000,
      "d": 1200,
      "v": 95
    },
    {
      "midi": 60,
      "hit": false,
      "t": 16000,
      "d": 1200,
      "v": 95
    },
    {
      "midi": 57,
      "hit": false,
      "t": 16000,
      "d": 1200,
      "v": 95
    },
    {
      "midi": 53,
      "hit": false,
      "t": 16000,
      "d": 1200,
      "v": 95
    },
    {
      "midi": 72,
      "hit": false,
      "t": 16600,
      "d": 600,
      "v": 110
    },
    {
      "midi": 72,
      "hit": false,
      "t": 17200,
      "d": 1200,
      "v": 110
    },
    {
      "midi": 50,
      "hit": false,
      "t": 17200,
      "d": 400,
      "v": 95
    },
    {
      "midi": 53,
      "hit": false,
      "t": 17600,
      "d": 400,
      "v": 95
    },
    {
      "midi": 57,
      "hit": false,
      "t": 18000,
      "d": 400,
      "v": 95
    },
    {
      "midi": 69,
      "hit": false,
      "t": 18400,
      "d": 200,
      "v": 110
    },
    {
      "midi": 60,
      "hit": false,
      "t": 18400,
      "d": 800,
      "v": 95
    },
    {
      "midi": 71,
      "hit": false,
      "t": 18600,
      "d": 200,
      "v": 110
    },
    {
      "midi": 72,
      "hit": false,
      "t": 18800,
      "d": 200,
      "v": 110
    },
    {
      "midi": 74,
      "hit": false,
      "t": 19000,
      "d": 200,
      "v": 110
    },
    {
      "midi": 76,
      "hit": false,
      "t": 19200,
      "d": 600,
      "v": 110
    },
    {
      "midi": 52,
      "hit": false,
      "t": 19200,
      "d": 1200,
      "v": 95
    },
    {
      "midi": 62,
      "hit": false,
      "t": 19200,
      "d": 1200,
      "v": 95
    },
    {
      "midi": 59,
      "hit": false,
      "t": 19200,
      "d": 1200,
      "v": 95
    },
    {
      "midi": 55,
      "hit": false,
      "t": 19200,
      "d": 1200,
      "v": 95
    },
    {
      "midi": 79,
      "hit": false,
      "t": 19800,
      "d": 600,
      "v": 110
    },
    {
      "midi": 79,
      "hit": false,
      "t": 20400,
      "d": 1200,
      "v": 110
    },
    {
      "midi": 52,
      "hit": false,
      "t": 20400,
      "d": 400,
      "v": 95
    },
    {
      "midi": 55,
      "hit": false,
      "t": 20800,
      "d": 400,
      "v": 95
    },
    {
      "midi": 59,
      "hit": false,
      "t": 21200,
      "d": 400,
      "v": 95
    },
    {
      "midi": 76,
      "hit": false,
      "t": 21600,
      "d": 800,
      "v": 110
    },
    {
      "midi": 62,
      "hit": false,
      "t": 21600,
      "d": 800,
      "v": 95
    },
    {
      "midi": 79,
      "hit": false,
      "t": 22400,
      "d": 600,
      "v": 110
    },
    {
      "midi": 48,
      "hit": false,
      "t": 22400,
      "d": 1200,
      "v": 95
    },
    {
      "midi": 60,
      "hit": false,
      "t": 22400,
      "d": 1200,
      "v": 95
    },
    {
      "midi": 57,
      "hit": false,
      "t": 22400,
      "d": 1200,
      "v": 95
    },
    {
      "midi": 52,
      "hit": false,
      "t": 22400,
      "d": 1200,
      "v": 95
    },
    {
      "midi": 81,
      "hit": false,
      "t": 23000,
      "d": 600,
      "v": 110
    },
    {
      "midi": 81,
      "hit": false,
      "t": 23600,
      "d": 1200,
      "v": 110
    },
    {
      "midi": 45,
      "hit": false,
      "t": 23600,
      "d": 400,
      "v": 95
    },
    {
      "midi": 48,
      "hit": false,
      "t": 24000,
      "d": 400,
      "v": 95
    },
    {
      "midi": 52,
      "hit": false,
      "t": 24400,
      "d": 400,
      "v": 95
    },
    {
      "midi": 84,
      "hit": false,
      "t": 24800,
      "d": 266.6666666666679,
      "v": 110
    },
    {
      "midi": 55,
      "hit": false,
      "t": 24800,
      "d": 800,
      "v": 95
    },
    {
      "midi": 83,
      "hit": false,
      "t": 25066.666666666668,
      "d": 266.6666666666679,
      "v": 110
    },
    {
      "midi": 81,
      "hit": false,
      "t": 25333.333333333336,
      "d": 266.6666666666679,
      "v": 110
    },
    {
      "midi": 52,
      "hit": false,
      "t": 25600,
      "d": 1200,
      "v": 95
    },
    {
      "midi": 64,
      "hit": false,
      "t": 25600,
      "d": 1200,
      "v": 95
    },
    {
      "midi": 60,
      "hit": false,
      "t": 25600,
      "d": 1200,
      "v": 95
    },
    {
      "midi": 57,
      "hit": false,
      "t": 25600,
      "d": 1200,
      "v": 95
    },
    {
      "midi": 79,
      "hit": false,
      "t": 25600.000000000004,
      "d": 600,
      "v": 110
    },
    {
      "midi": 81,
      "hit": false,
      "t": 26200.000000000004,
      "d": 600,
      "v": 110
    },
    {
      "midi": 48,
      "hit": false,
      "t": 26800,
      "d": 400,
      "v": 95
    },
    {
      "midi": 81,
      "hit": false,
      "t": 26800.000000000004,
      "d": 2000,
      "v": 110
    },
    {
      "midi": 52,
      "hit": false,
      "t": 27200,
      "d": 400,
      "v": 95
    },
    {
      "midi": 57,
      "hit": false,
      "t": 27600,
      "d": 400,
      "v": 95
    },
    {
      "midi": 60,
      "hit": false,
      "t": 28000,
      "d": 800,
      "v": 95
    },
    {
      "midi": 50,
      "hit": false,
      "t": 28800,
      "d": 1200,
      "v": 95
    },
    {
      "midi": 60,
      "hit": false,
      "t": 28800,
      "d": 1200,
      "v": 95
    },
    {
      "midi": 57,
      "hit": false,
      "t": 28800,
      "d": 1200,
      "v": 95
    },
    {
      "midi": 53,
      "hit": false,
      "t": 28800,
      "d": 1200,
      "v": 95
    },
    {
      "midi": 72,
      "hit": false,
      "t": 28800.000000000004,
      "d": 600,
      "v": 110
    },
    {
      "midi": 72,
      "hit": false,
      "t": 29400.000000000004,
      "d": 600,
      "v": 110
    },
    {
      "midi": 50,
      "hit": false,
      "t": 30000,
      "d": 400,
      "v": 95
    },
    {
      "midi": 72,
      "hit": false,
      "t": 30000.000000000004,
      "d": 1200,
      "v": 110
    },
    {
      "midi": 53,
      "hit": false,
      "t": 30400,
      "d": 400,
      "v": 95
    },
    {
      "midi": 57,
      "hit": false,
      "t": 30800,
      "d": 400,
      "v": 95
    },
    {
      "midi": 60,
      "hit": false,
      "t": 31200,
      "d": 800,
      "v": 95
    },
    {
      "midi": 69,
      "hit": false,
      "t": 31200.000000000004,
      "d": 200,
      "v": 110
    },
    {
      "midi": 71,
      "hit": false,
      "t": 31400.000000000004,
      "d": 200,
      "v": 110
    },
    {
      "midi": 72,
      "hit": false,
      "t": 31600.000000000004,
      "d": 200,
      "v": 110
    },
    {
      "midi": 74,
      "hit": false,
      "t": 31800.000000000004,
      "d": 200,
      "v": 110
    },
    {
      "midi": 52,
      "hit": false,
      "t": 32000,
      "d": 1200,
      "v": 95
    },
    {
      "midi": 62,
      "hit": false,
      "t": 32000,
      "d": 1200,
      "v": 95
    },
    {
      "midi": 59,
      "hit": false,
      "t": 32000,
      "d": 1200,
      "v": 95
    },
    {
      "midi": 55,
      "hit": false,
      "t": 32000,
      "d": 1200,
      "v": 95
    },
    {
      "midi": 76,
      "hit": false,
      "t": 32000.000000000004,
      "d": 600,
      "v": 110
    },
    {
      "midi": 69,
      "hit": false,
      "t": 32600.000000000004,
      "d": 599.9999999999964,
      "v": 110
    },
    {
      "midi": 74,
      "hit": false,
      "t": 33200,
      "d": 2000,
      "v": 110
    },
    {
      "midi": 52,
      "hit": false,
      "t": 33200,
      "d": 400,
      "v": 95
    },
    {
      "midi": 55,
      "hit": false,
      "t": 33600,
      "d": 400,
      "v": 95
    },
    {
      "midi": 59,
      "hit": false,
      "t": 34000,
      "d": 400,
      "v": 95
    },
    {
      "midi": 62,
      "hit": false,
      "t": 34400,
      "d": 800,
      "v": 95
    },
    {
      "midi": 72,
      "hit": false,
      "t": 35200,
      "d": 600,
      "v": 110
    },
    {
      "midi": 53,
      "hit": false,
      "t": 35200,
      "d": 1200,
      "v": 95
    },
    {
      "midi": 64,
      "hit": false,
      "t": 35200,
      "d": 1200,
      "v": 95
    },
    {
      "midi": 60,
      "hit": false,
      "t": 35200,
      "d": 1200,
      "v": 95
    },
    {
      "midi": 57,
      "hit": false,
      "t": 35200,
      "d": 1200,
      "v": 95
    },
    {
      "midi": 72,
      "hit": false,
      "t": 35800,
      "d": 600,
      "v": 110
    },
    {
      "midi": 72,
      "hit": false,
      "t": 36400,
      "d": 1200,
      "v": 110
    },
    {
      "midi": 53,
      "hit": false,
      "t": 36400,
      "d": 400,
      "v": 95
    },
    {
      "midi": 57,
      "hit": false,
      "t": 36800,
      "d": 400,
      "v": 95
    },
    {
      "midi": 60,
      "hit": false,
      "t": 37200,
      "d": 400,
      "v": 95
    },
    {
      "midi": 69,
      "hit": false,
      "t": 37600,
      "d": 200,
      "v": 110
    },
    {
      "midi": 64,
      "hit": false,
      "t": 37600,
      "d": 800,
      "v": 95
    },
    {
      "midi": 71,
      "hit": false,
      "t": 37800,
      "d": 200,
      "v": 110
    },
    {
      "midi": 72,
      "hit": false,
      "t": 38000,
      "d": 200,
      "v": 110
    },
    {
      "midi": 74,
      "hit": false,
      "t": 38200,
      "d": 200,
      "v": 110
    },
    {
      "midi": 76,
      "hit": false,
      "t": 38400,
      "d": 600,
      "v": 110
    },
    {
      "midi": 52,
      "hit": false,
      "t": 38400,
      "d": 1200,
      "v": 95
    },
    {
      "midi": 62,
      "hit": false,
      "t": 38400,
      "d": 1200,
      "v": 95
    },
    {
      "midi": 59,
      "hit": false,
      "t": 38400,
      "d": 1200,
      "v": 95
    },
    {
      "midi": 55,
      "hit": false,
      "t": 38400,
      "d": 1200,
      "v": 95
    },
    {
      "midi": 79,
      "hit": false,
      "t": 39000,
      "d": 600,
      "v": 110
    },
    {
      "midi": 74,
      "hit": false,
      "t": 39600,
      "d": 2000,
      "v": 110
    },
    {
      "midi": 52,
      "hit": false,
      "t": 39600,
      "d": 400,
      "v": 95
    },
    {
      "midi": 55,
      "hit": false,
      "t": 40000,
      "d": 400,
      "v": 95
    },
    {
      "midi": 59,
      "hit": false,
      "t": 40400,
      "d": 400,
      "v": 95
    },
    {
      "midi": 62,
      "hit": false,
      "t": 40800,
      "d": 800,
      "v": 95
    },
    {
      "midi": 72,
      "hit": false,
      "t": 41600,
      "d": 600,
      "v": 110
    },
    {
      "midi": 50,
      "hit": false,
      "t": 41600,
      "d": 1200,
      "v": 95
    },
    {
      "midi": 60,
      "hit": false,
      "t": 41600,
      "d": 1200,
      "v": 95
    },
    {
      "midi": 57,
      "hit": false,
      "t": 41600,
      "d": 1200,
      "v": 95
    },
    {
      "midi": 53,
      "hit": false,
      "t": 41600,
      "d": 1200,
      "v": 95
    },
    {
      "midi": 72,
      "hit": false,
      "t": 42200,
      "d": 600,
      "v": 110
    },
    {
      "midi": 72,
      "hit": false,
      "t": 42800,
      "d": 1200,
      "v": 110
    },
    {
      "midi": 50,
      "hit": false,
      "t": 42800,
      "d": 400,
      "v": 95
    },
    {
      "midi": 53,
      "hit": false,
      "t": 43200,
      "d": 400,
      "v": 95
    },
    {
      "midi": 57,
      "hit": false,
      "t": 43600,
      "d": 400,
      "v": 95
    },
    {
      "midi": 69,
      "hit": false,
      "t": 44000,
      "d": 200,
      "v": 110
    },
    {
      "midi": 60,
      "hit": false,
      "t": 44000,
      "d": 800,
      "v": 95
    },
    {
      "midi": 71,
      "hit": false,
      "t": 44200,
      "d": 200,
      "v": 110
    },
    {
      "midi": 72,
      "hit": false,
      "t": 44400,
      "d": 200,
      "v": 110
    },
    {
      "midi": 74,
      "hit": false,
      "t": 44600,
      "d": 200,
      "v": 110
    },
    {
      "midi": 76,
      "hit": false,
      "t": 44800,
      "d": 600,
      "v": 110
    },
    {
      "midi": 52,
      "hit": false,
      "t": 44800,
      "d": 1200,
      "v": 95
    },
    {
      "midi": 62,
      "hit": false,
      "t": 44800,
      "d": 1200,
      "v": 95
    },
    {
      "midi": 59,
      "hit": false,
      "t": 44800,
      "d": 1200,
      "v": 95
    },
    {
      "midi": 55,
      "hit": false,
      "t": 44800,
      "d": 1200,
      "v": 95
    },
    {
      "midi": 79,
      "hit": false,
      "t": 45400,
      "d": 600,
      "v": 110
    },
    {
      "midi": 79,
      "hit": false,
      "t": 46000,
      "d": 1200,
      "v": 110
    },
    {
      "midi": 52,
      "hit": false,
      "t": 46000,
      "d": 400,
      "v": 95
    },
    {
      "midi": 55,
      "hit": false,
      "t": 46400,
      "d": 400,
      "v": 95
    },
    {
      "midi": 59,
      "hit": false,
      "t": 46800,
      "d": 400,
      "v": 95
    },
    {
      "midi": 76,
      "hit": false,
      "t": 47200,
      "d": 800,
      "v": 110
    },
    {
      "midi": 62,
      "hit": false,
      "t": 47200,
      "d": 800,
      "v": 95
    },
    {
      "midi": 79,
      "hit": false,
      "t": 48000,
      "d": 600,
      "v": 110
    },
    {
      "midi": 48,
      "hit": false,
      "t": 48000,
      "d": 1200,
      "v": 95
    },
    {
      "midi": 60,
      "hit": false,
      "t": 48000,
      "d": 1200,
      "v": 95
    },
    {
      "midi": 57,
      "hit": false,
      "t": 48000,
      "d": 1200,
      "v": 95
    },
    {
      "midi": 52,
      "hit": false,
      "t": 48000,
      "d": 1200,
      "v": 95
    },
    {
      "midi": 81,
      "hit": false,
      "t": 48600,
      "d": 600,
      "v": 110
    },
    {
      "midi": 81,
      "hit": false,
      "t": 49200,
      "d": 1200,
      "v": 110
    },
    {
      "midi": 45,
      "hit": false,
      "t": 49200,
      "d": 400,
      "v": 95
    },
    {
      "midi": 48,
      "hit": false,
      "t": 49600,
      "d": 400,
      "v": 95
    },
    {
      "midi": 52,
      "hit": false,
      "t": 50000,
      "d": 400,
      "v": 95
    },
    {
      "midi": 84,
      "hit": false,
      "t": 50400,
      "d": 266.66666666666424,
      "v": 110
    },
    {
      "midi": 55,
      "hit": false,
      "t": 50400,
      "d": 800,
      "v": 95
    },
    {
      "midi": 83,
      "hit": false,
      "t": 50666.666666666664,
      "d": 266.66666666666424,
      "v": 110
    },
    {
      "midi": 81,
      "hit": false,
      "t": 50933.33333333333,
      "d": 266.66666666666424,
      "v": 110
    },
    {
      "midi": 79,
      "hit": false,
      "t": 51199.99999999999,
      "d": 600,
      "v": 110
    },
    {
      "midi": 52,
      "hit": false,
      "t": 51200,
      "d": 1200,
      "v": 95
    },
    {
      "midi": 64,
      "hit": false,
      "t": 51200,
      "d": 1200,
      "v": 95
    },
    {
      "midi": 60,
      "hit": false,
      "t": 51200,
      "d": 1200,
      "v": 95
    },
    {
      "midi": 57,
      "hit": false,
      "t": 51200,
      "d": 1200,
      "v": 95
    },
    {
      "midi": 81,
      "hit": false,
      "t": 51799.99999999999,
      "d": 600,
      "v": 110
    },
    {
      "midi": 81,
      "hit": false,
      "t": 52399.99999999999,
      "d": 400,
      "v": 110
    },
    {
      "midi": 52,
      "hit": false,
      "t": 52400,
      "d": 400,
      "v": 95
    },
    {
      "midi": 69,
      "hit": false,
      "t": 52799.99999999999,
      "d": 600,
      "v": 110
    },
    {
      "midi": 57,
      "hit": false,
      "t": 52800,
      "d": 600,
      "v": 95
    },
    {
      "midi": 71,
      "hit": false,
      "t": 53399.99999999999,
      "d": 600,
      "v": 110
    },
    {
      "midi": 60,
      "hit": false,
      "t": 53400,
      "d": 600,
      "v": 95
    },
    {
      "midi": 72,
      "hit": false,
      "t": 53999.99999999999,
      "d": 400,
      "v": 110
    },
    {
      "midi": 64,
      "hit": false,
      "t": 54000,
      "d": 400,
      "v": 95
    },
    {
      "midi": 72,
      "hit": false,
      "t": 54399.99999999999,
      "d": 1200,
      "v": 110
    },
    {
      "midi": 41,
      "hit": false,
      "t": 54400,
      "d": 400,
      "v": 95
    },
    {
      "midi": 48,
      "hit": false,
      "t": 54800,
      "d": 400,
      "v": 95
    },
    {
      "midi": 53,
      "hit": false,
      "t": 55200,
      "d": 400,
      "v": 95
    },
    {
      "midi": 65,
      "hit": false,
      "t": 55599.99999999999,
      "d": 400,
      "v": 110
    },
    {
      "midi": 57,
      "hit": false,
      "t": 55600,
      "d": 400,
      "v": 95
    },
    {
      "midi": 65,
      "hit": false,
      "t": 55999.99999999999,
      "d": 800,
      "v": 110
    },
    {
      "midi": 60,
      "hit": false,
      "t": 56000,
      "d": 800,
      "v": 95
    },
    {
      "midi": 76,
      "hit": false,
      "t": 56799.99999999999,
      "d": 400,
      "v": 110
    },
    {
      "midi": 57,
      "hit": false,
      "t": 56800,
      "d": 800,
      "v": 95
    },
    {
      "midi": 74,
      "hit": false,
      "t": 57199.99999999999,
      "d": 2400,
      "v": 110
    },
    {
      "midi": 43,
      "hit": false,
      "t": 57600,
      "d": 400,
      "v": 95
    },
    {
      "midi": 50,
      "hit": false,
      "t": 58000,
      "d": 400,
      "v": 95
    },
    {
      "midi": 55,
      "hit": false,
      "t": 58400,
      "d": 400,
      "v": 95
    },
    {
      "midi": 59,
      "hit": false,
      "t": 58800,
      "d": 400,
      "v": 95
    },
    {
      "midi": 62,
      "hit": false,
      "t": 59200,
      "d": 800,
      "v": 95
    },
    {
      "midi": 72,
      "hit": false,
      "t": 59599.99999999999,
      "d": 400,
      "v": 110
    },
    {
      "midi": 71,
      "hit": false,
      "t": 59999.99999999999,
      "d": 400,
      "v": 110
    },
    {
      "midi": 59,
      "hit": false,
      "t": 60000,
      "d": 800,
      "v": 95
    },
    {
      "midi": 72,
      "hit": false,
      "t": 60399.99999999999,
      "d": 400,
      "v": 110
    },
    {
      "midi": 74,
      "hit": false,
      "t": 60799.99999999999,
      "d": 800,
      "v": 110
    },
    {
      "midi": 40,
      "hit": false,
      "t": 60800,
      "d": 400,
      "v": 95
    },
    {
      "midi": 47,
      "hit": false,
      "t": 61200,
      "d": 400,
      "v": 95
    },
    {
      "midi": 67,
      "hit": false,
      "t": 61599.99999999999,
      "d": 800,
      "v": 110
    },
    {
      "midi": 52,
      "hit": false,
      "t": 61600,
      "d": 400,
      "v": 95
    },
    {
      "midi": 55,
      "hit": false,
      "t": 62000,
      "d": 400,
      "v": 95
    },
    {
      "midi": 67,
      "hit": false,
      "t": 62399.99999999999,
      "d": 400,
      "v": 110
    },
    {
      "midi": 59,
      "hit": false,
      "t": 62400,
      "d": 800,
      "v": 95
    },
    {
      "midi": 77,
      "hit": false,
      "t": 62799.99999999999,
      "d": 800,
      "v": 110
    },
    {
      "midi": 55,
      "hit": false,
      "t": 63200,
      "d": 800,
      "v": 95
    },
    {
      "midi": 76,
      "hit": false,
      "t": 63599.99999999999,
      "d": 2400.0000000000073,
      "v": 110
    },
    {
      "midi": 41,
      "hit": false,
      "t": 64000,
      "d": 400,
      "v": 95
    },
    {
      "midi": 48,
      "hit": false,
      "t": 64400,
      "d": 400,
      "v": 95
    },
    {
      "midi": 53,
      "hit": false,
      "t": 64800,
      "d": 400,
      "v": 95
    },
    {
      "midi": 57,
      "hit": false,
      "t": 65200,
      "d": 400,
      "v": 95
    },
    {
      "midi": 60,
      "hit": false,
      "t": 65600,
      "d": 400,
      "v": 95
    },
    {
      "midi": 74,
      "hit": false,
      "t": 66000,
      "d": 400,
      "v": 110
    },
    {
      "midi": 57,
      "hit": false,
      "t": 66000,
      "d": 400,
      "v": 95
    },
    {
      "midi": 72,
      "hit": false,
      "t": 66400,
      "d": 400,
      "v": 110
    },
    {
      "midi": 53,
      "hit": false,
      "t": 66400,
      "d": 800,
      "v": 95
    },
    {
      "midi": 74,
      "hit": false,
      "t": 66800,
      "d": 400,
      "v": 110
    },
    {
      "midi": 69,
      "hit": false,
      "t": 67200,
      "d": 1600,
      "v": 110
    },
    {
      "midi": 38,
      "hit": false,
      "t": 67200,
      "d": 400,
      "v": 95
    },
    {
      "midi": 45,
      "hit": false,
      "t": 67600,
      "d": 400,
      "v": 95
    },
    {
      "midi": 50,
      "hit": false,
      "t": 68000,
      "d": 400,
      "v": 95
    },
    {
      "midi": 53,
      "hit": false,
      "t": 68400,
      "d": 400,
      "v": 95
    },
    {
      "midi": 76,
      "hit": false,
      "t": 68800,
      "d": 1600,
      "v": 110
    },
    {
      "midi": 57,
      "hit": false,
      "t": 68800,
      "d": 800,
      "v": 95
    },
    {
      "midi": 53,
      "hit": false,
      "t": 69600,
      "d": 800,
      "v": 95
    },
    {
      "midi": 71,
      "hit": false,
      "t": 70400,
      "d": 1600,
      "v": 110
    },
    {
      "midi": 40,
      "hit": false,
      "t": 70400,
      "d": 400,
      "v": 95
    },
    {
      "midi": 47,
      "hit": false,
      "t": 70800,
      "d": 400,
      "v": 95
    },
    {
      "midi": 52,
      "hit": false,
      "t": 71200,
      "d": 400,
      "v": 95
    },
    {
      "midi": 55,
      "hit": false,
      "t": 71600,
      "d": 400,
      "v": 95
    },
    {
      "midi": 67,
      "hit": false,
      "t": 72000,
      "d": 600,
      "v": 110
    },
    {
      "midi": 59,
      "hit": false,
      "t": 72000,
      "d": 600,
      "v": 95
    },
    {
      "midi": 69,
      "hit": false,
      "t": 72600,
      "d": 600,
      "v": 110
    },
    {
      "midi": 55,
      "hit": false,
      "t": 72600,
      "d": 1000,
      "v": 95
    },
    {
      "midi": 71,
      "hit": false,
      "t": 73200,
      "d": 400,
      "v": 110
    },
    {
      "midi": 72,
      "hit": false,
      "t": 73600,
      "d": 3200,
      "v": 110
    },
    {
      "midi": 41,
      "hit": false,
      "t": 73600,
      "d": 400,
      "v": 95
    },
    {
      "midi": 48,
      "hit": false,
      "t": 74000,
      "d": 400,
      "v": 95
    },
    {
      "midi": 53,
      "hit": false,
      "t": 74400,
      "d": 400,
      "v": 95
    },
    {
      "midi": 57,
      "hit": false,
      "t": 74800,
      "d": 400,
      "v": 95
    },
    {
      "midi": 60,
      "hit": false,
      "t": 75200,
      "d": 1600,
      "v": 95
    },
    {
      "midi": 71,
      "hit": false,
      "t": 76800,
      "d": 1600,
      "v": 110
    },
    {
      "midi": 43,
      "hit": false,
      "t": 76800,
      "d": 400,
      "v": 95
    },
    {
      "midi": 50,
      "hit": false,
      "t": 77200,
      "d": 400,
      "v": 95
    },
    {
      "midi": 55,
      "hit": false,
      "t": 77600,
      "d": 400,
      "v": 95
    },
    {
      "midi": 59,
      "hit": false,
      "t": 78000,
      "d": 400,
      "v": 95
    },
    {
      "midi": 71,
      "hit": false,
      "t": 78400,
      "d": 600,
      "v": 110
    },
    {
      "midi": 62,
      "hit": false,
      "t": 78400,
      "d": 600,
      "v": 95
    },
    {
      "midi": 72,
      "hit": false,
      "t": 79000,
      "d": 600,
      "v": 110
    },
    {
      "midi": 59,
      "hit": false,
      "t": 79000,
      "d": 600,
      "v": 95
    },
    {
      "midi": 74,
      "hit": false,
      "t": 79600,
      "d": 400,
      "v": 110
    },
    {
      "midi": 55,
      "hit": false,
      "t": 79600,
      "d": 400,
      "v": 95
    },
    {
      "midi": 76,
      "hit": false,
      "t": 80000,
      "d": 1200,
      "v": 110
    },
    {
      "midi": 41,
      "hit": false,
      "t": 80000,
      "d": 400,
      "v": 95
    },
    {
      "midi": 48,
      "hit": false,
      "t": 80400,
      "d": 400,
      "v": 95
    },
    {
      "midi": 53,
      "hit": false,
      "t": 80800,
      "d": 400,
      "v": 95
    },
    {
      "midi": 69,
      "hit": false,
      "t": 81200,
      "d": 400,
      "v": 110
    },
    {
      "midi": 57,
      "hit": false,
      "t": 81200,
      "d": 400,
      "v": 95
    },
    {
      "midi": 72,
      "hit": false,
      "t": 81600,
      "d": 800,
      "v": 110
    },
    {
      "midi": 60,
      "hit": false,
      "t": 81600,
      "d": 800,
      "v": 95
    },
    {
      "midi": 76,
      "hit": false,
      "t": 82400,
      "d": 400,
      "v": 110
    },
    {
      "midi": 57,
      "hit": false,
      "t": 82400,
      "d": 800,
      "v": 95
    },
    {
      "midi": 74,
      "hit": false,
      "t": 82800,
      "d": 2400,
      "v": 110
    },
    {
      "midi": 43,
      "hit": false,
      "t": 83200,
      "d": 400,
      "v": 95
    },
    {
      "midi": 50,
      "hit": false,
      "t": 83600,
      "d": 400,
      "v": 95
    },
    {
      "midi": 55,
      "hit": false,
      "t": 84000,
      "d": 400,
      "v": 95
    },
    {
      "midi": 59,
      "hit": false,
      "t": 84400,
      "d": 400,
      "v": 95
    },
    {
      "midi": 62,
      "hit": false,
      "t": 84800,
      "d": 800,
      "v": 95
    },
    {
      "midi": 72,
      "hit": false,
      "t": 85200,
      "d": 400,
      "v": 110
    },
    {
      "midi": 71,
      "hit": false,
      "t": 85600,
      "d": 400,
      "v": 110
    },
    {
      "midi": 59,
      "hit": false,
      "t": 85600,
      "d": 800,
      "v": 95
    },
    {
      "midi": 72,
      "hit": false,
      "t": 86000,
      "d": 400,
      "v": 110
    },
    {
      "midi": 74,
      "hit": false,
      "t": 86400,
      "d": 800,
      "v": 110
    },
    {
      "midi": 40,
      "hit": false,
      "t": 86400,
      "d": 400,
      "v": 95
    },
    {
      "midi": 47,
      "hit": false,
      "t": 86800,
      "d": 400,
      "v": 95
    },
    {
      "midi": 67,
      "hit": false,
      "t": 87200,
      "d": 800,
      "v": 110
    },
    {
      "midi": 52,
      "hit": false,
      "t": 87200,
      "d": 400,
      "v": 95
    },
    {
      "midi": 55,
      "hit": false,
      "t": 87600,
      "d": 400,
      "v": 95
    },
    {
      "midi": 67,
      "hit": false,
      "t": 88000,
      "d": 400,
      "v": 110
    },
    {
      "midi": 59,
      "hit": false,
      "t": 88000,
      "d": 800,
      "v": 95
    },
    {
      "midi": 77,
      "hit": false,
      "t": 88400,
      "d": 800,
      "v": 110
    },
    {
      "midi": 55,
      "hit": false,
      "t": 88800,
      "d": 800,
      "v": 95
    },
    {
      "midi": 76,
      "hit": false,
      "t": 89200,
      "d": 2400,
      "v": 110
    },
    {
      "midi": 41,
      "hit": false,
      "t": 89600,
      "d": 400,
      "v": 95
    },
    {
      "midi": 48,
      "hit": false,
      "t": 90000,
      "d": 400,
      "v": 95
    },
    {
      "midi": 53,
      "hit": false,
      "t": 90400,
      "d": 400,
      "v": 95
    },
    {
      "midi": 57,
      "hit": false,
      "t": 90800,
      "d": 400,
      "v": 95
    },
    {
      "midi": 60,
      "hit": false,
      "t": 91200,
      "d": 400,
      "v": 95
    },
    {
      "midi": 74,
      "hit": false,
      "t": 91600,
      "d": 400,
      "v": 110
    },
    {
      "midi": 57,
      "hit": false,
      "t": 91600,
      "d": 400,
      "v": 95
    },
    {
      "midi": 72,
      "hit": false,
      "t": 92000,
      "d": 400,
      "v": 110
    },
    {
      "midi": 53,
      "hit": false,
      "t": 92000,
      "d": 800,
      "v": 95
    },
    {
      "midi": 74,
      "hit": false,
      "t": 92400,
      "d": 400,
      "v": 110
    },
    {
      "midi": 69,
      "hit": false,
      "t": 92800,
      "d": 1600,
      "v": 110
    },
    {
      "midi": 38,
      "hit": false,
      "t": 92800,
      "d": 400,
      "v": 95
    },
    {
      "midi": 45,
      "hit": false,
      "t": 93200,
      "d": 400,
      "v": 95
    },
    {
      "midi": 50,
      "hit": false,
      "t": 93600,
      "d": 400,
      "v": 95
    },
    {
      "midi": 53,
      "hit": false,
      "t": 94000,
      "d": 400,
      "v": 95
    },
    {
      "midi": 76,
      "hit": false,
      "t": 94400,
      "d": 1600,
      "v": 110
    },
    {
      "midi": 57,
      "hit": false,
      "t": 94400,
      "d": 800,
      "v": 95
    },
    {
      "midi": 53,
      "hit": false,
      "t": 95200,
      "d": 800,
      "v": 95
    },
    {
      "midi": 71,
      "hit": false,
      "t": 96000,
      "d": 1600,
      "v": 110
    },
    {
      "midi": 40,
      "hit": false,
      "t": 96000,
      "d": 400,
      "v": 95
    },
    {
      "midi": 47,
      "hit": false,
      "t": 96400,
      "d": 400,
      "v": 95
    },
    {
      "midi": 52,
      "hit": false,
      "t": 96800,
      "d": 400,
      "v": 95
    },
    {
      "midi": 55,
      "hit": false,
      "t": 97200,
      "d": 400,
      "v": 95
    },
    {
      "midi": 64,
      "hit": false,
      "t": 97600,
      "d": 600,
      "v": 110
    },
    {
      "midi": 59,
      "hit": false,
      "t": 97600,
      "d": 600,
      "v": 95
    },
    {
      "midi": 67,
      "hit": false,
      "t": 98200,
      "d": 600,
      "v": 110
    },
    {
      "midi": 55,
      "hit": false,
      "t": 98200,
      "d": 1000,
      "v": 95
    },
    {
      "midi": 69,
      "hit": false,
      "t": 98800,
      "d": 400,
      "v": 110
    },
    {
      "midi": 69,
      "hit": false,
      "t": 99200,
      "d": 3053.3333333333285,
      "v": 110
    },
    {
      "midi": 41,
      "hit": false,
      "t": 99200,
      "d": 400,
      "v": 95
    },
    {
      "midi": 48,
      "hit": false,
      "t": 99600,
      "d": 400,
      "v": 95
    },
    {
      "midi": 53,
      "hit": false,
      "t": 100000,
      "d": 400,
      "v": 95
    },
    {
      "midi": 57,
      "hit": false,
      "t": 100400,
      "d": 400,
      "v": 95
    },
    {
      "midi": 60,
      "hit": false,
      "t": 100800,
      "d": 400,
      "v": 95
    },
    {
      "midi": 57,
      "hit": false,
      "t": 101200,
      "d": 400,
      "v": 95
    },
    {
      "midi": 53,
      "hit": false,
      "t": 101600,
      "d": 400,
      "v": 95
    },
    {
      "midi": 48,
      "hit": false,
      "t": 102000,
      "d": 400,
      "v": 95
    },
    {
      "midi": 53,
      "hit": false,
      "t": 102253.33333333333,
      "d": 46.66666666667152,
      "v": 100
    },
    {
      "midi": 57,
      "hit": false,
      "t": 102300,
      "d": 46.66666666667152,
      "v": 100
    },
    {
      "midi": 60,
      "hit": false,
      "t": 102346.66666666667,
      "d": 46.66666666667152,
      "v": 100
    },
    {
      "midi": 64,
      "hit": false,
      "t": 102400.00000000001,
      "d": 1453.3333333333285,
      "v": 110
    },
    {
      "midi": 55,
      "hit": false,
      "t": 103853.33333333334,
      "d": 46.66666666667152,
      "v": 100
    },
    {
      "midi": 59,
      "hit": false,
      "t": 103900.00000000001,
      "d": 46.66666666667152,
      "v": 100
    },
    {
      "midi": 62,
      "hit": false,
      "t": 103946.66666666669,
      "d": 46.66666666667152,
      "v": 100
    },
    {
      "midi": 65,
      "hit": false,
      "t": 103993.33333333336,
      "d": 1200,
      "v": 110
    },
    {
      "midi": 86,
      "hit": false,
      "t": 105193.33333333336,
      "d": 200,
      "v": 100
    },
    {
      "midi": 88,
      "hit": false,
      "t": 105393.33333333336,
      "d": 200,
      "v": 100
    },
    {
      "midi": 62,
      "hit": false,
      "t": 105600,
      "d": 3200,
      "v": 85
    },
    {
      "midi": 72,
      "hit": false,
      "t": 105600,
      "d": 3200,
      "v": 85
    },
    {
      "midi": 69,
      "hit": false,
      "t": 105600,
      "d": 3200,
      "v": 85
    },
    {
      "midi": 65,
      "hit": false,
      "t": 105600,
      "d": 3200,
      "v": 85
    },
    {
      "midi": 84,
      "hit": false,
      "t": 105600.00000000003,
      "d": 600,
      "v": 100
    },
    {
      "midi": 84,
      "hit": false,
      "t": 106200.00000000003,
      "d": 600,
      "v": 100
    },
    {
      "midi": 84,
      "hit": false,
      "t": 106800.00000000003,
      "d": 1200,
      "v": 100
    },
    {
      "midi": 81,
      "hit": false,
      "t": 108000.00000000003,
      "d": 200,
      "v": 100
    },
    {
      "midi": 83,
      "hit": false,
      "t": 108200.00000000003,
      "d": 200,
      "v": 100
    },
    {
      "midi": 84,
      "hit": false,
      "t": 108400.00000000003,
      "d": 200,
      "v": 100
    },
    {
      "midi": 86,
      "hit": false,
      "t": 108600.00000000003,
      "d": 200,
      "v": 100
    },
    {
      "midi": 64,
      "hit": false,
      "t": 108800,
      "d": 3053.3333333333285,
      "v": 85
    },
    {
      "midi": 74,
      "hit": false,
      "t": 108800,
      "d": 3053.3333333333285,
      "v": 85
    },
    {
      "midi": 71,
      "hit": false,
      "t": 108800,
      "d": 3053.3333333333285,
      "v": 85
    },
    {
      "midi": 67,
      "hit": false,
      "t": 108800,
      "d": 3053.3333333333285,
      "v": 85
    },
    {
      "midi": 88,
      "hit": false,
      "t": 108800.00000000003,
      "d": 600,
      "v": 100
    },
    {
      "midi": 81,
      "hit": false,
      "t": 109400.00000000003,
      "d": 600,
      "v": 100
    },
    {
      "midi": 86,
      "hit": false,
      "t": 110000.00000000003,
      "d": 2000,
      "v": 100
    },
    {
      "midi": 65,
      "hit": false,
      "t": 111853.33333333333,
      "d": 46.66666666667152,
      "v": 85
    },
    {
      "midi": 69,
      "hit": false,
      "t": 111900,
      "d": 46.66666666667152,
      "v": 85
    },
    {
      "midi": 72,
      "hit": false,
      "t": 111946.66666666667,
      "d": 46.66666666667152,
      "v": 85
    },
    {
      "midi": 76,
      "hit": false,
      "t": 112000.00000000001,
      "d": 3200,
      "v": 85
    },
    {
      "midi": 84,
      "hit": false,
      "t": 112000.00000000003,
      "d": 600,
      "v": 100
    },
    {
      "midi": 84,
      "hit": false,
      "t": 112600.00000000003,
      "d": 600,
      "v": 100
    },
    {
      "midi": 84,
      "hit": false,
      "t": 113200.00000000003,
      "d": 1200,
      "v": 100
    },
    {
      "midi": 81,
      "hit": false,
      "t": 114400.00000000003,
      "d": 200,
      "v": 100
    },
    {
      "midi": 83,
      "hit": false,
      "t": 114600.00000000003,
      "d": 200,
      "v": 100
    },
    {
      "midi": 84,
      "hit": false,
      "t": 114800.00000000003,
      "d": 200,
      "v": 100
    },
    {
      "midi": 86,
      "hit": false,
      "t": 115000.00000000003,
      "d": 200,
      "v": 100
    },
    {
      "midi": 64,
      "hit": false,
      "t": 115200.00000000001,
      "d": 3200,
      "v": 85
    },
    {
      "midi": 74,
      "hit": false,
      "t": 115200.00000000001,
      "d": 3200,
      "v": 85
    },
    {
      "midi": 71,
      "hit": false,
      "t": 115200.00000000001,
      "d": 3200,
      "v": 85
    },
    {
      "midi": 67,
      "hit": false,
      "t": 115200.00000000001,
      "d": 3200,
      "v": 85
    },
    {
      "midi": 88,
      "hit": false,
      "t": 115200.00000000003,
      "d": 600,
      "v": 100
    },
    {
      "midi": 91,
      "hit": false,
      "t": 115800.00000000003,
      "d": 600,
      "v": 100
    },
    {
      "midi": 86,
      "hit": false,
      "t": 116400.00000000003,
      "d": 2000,
      "v": 100
    },
    {
      "midi": 62,
      "hit": false,
      "t": 118400.00000000001,
      "d": 3200,
      "v": 85
    },
    {
      "midi": 72,
      "hit": false,
      "t": 118400.00000000001,
      "d": 3200,
      "v": 85
    },
    {
      "midi": 69,
      "hit": false,
      "t": 118400.00000000001,
      "d": 3200,
      "v": 85
    },
    {
      "midi": 65,
      "hit": false,
      "t": 118400.00000000001,
      "d": 3200,
      "v": 85
    },
    {
      "midi": 84,
      "hit": false,
      "t": 118400.00000000003,
      "d": 600,
      "v": 100
    },
    {
      "midi": 84,
      "hit": false,
      "t": 119000.00000000003,
      "d": 600,
      "v": 100
    },
    {
      "midi": 84,
      "hit": false,
      "t": 119600.00000000003,
      "d": 1200,
      "v": 100
    },
    {
      "midi": 81,
      "hit": false,
      "t": 120800.00000000003,
      "d": 200,
      "v": 100
    },
    {
      "midi": 83,
      "hit": false,
      "t": 121000.00000000003,
      "d": 200,
      "v": 100
    },
    {
      "midi": 84,
      "hit": false,
      "t": 121200.00000000003,
      "d": 200,
      "v": 100
    },
    {
      "midi": 86,
      "hit": false,
      "t": 121400.00000000003,
      "d": 200,
      "v": 100
    },
    {
      "midi": 64,
      "hit": false,
      "t": 121600.00000000001,
      "d": 3053.3333333333285,
      "v": 85
    },
    {
      "midi": 74,
      "hit": false,
      "t": 121600.00000000001,
      "d": 3053.3333333333285,
      "v": 85
    },
    {
      "midi": 71,
      "hit": false,
      "t": 121600.00000000001,
      "d": 3053.3333333333285,
      "v": 85
    },
    {
      "midi": 67,
      "hit": false,
      "t": 121600.00000000001,
      "d": 3053.3333333333285,
      "v": 85
    },
    {
      "midi": 88,
      "hit": false,
      "t": 121600.00000000003,
      "d": 600,
      "v": 100
    },
    {
      "midi": 91,
      "hit": false,
      "t": 122200.00000000003,
      "d": 600,
      "v": 100
    },
    {
      "midi": 91,
      "hit": false,
      "t": 122800.00000000003,
      "d": 1200,
      "v": 100
    },
    {
      "midi": 88,
      "hit": false,
      "t": 124000.00000000003,
      "d": 800,
      "v": 100
    },
    {
      "midi": 65,
      "hit": false,
      "t": 124653.33333333334,
      "d": 46.66666666667152,
      "v": 85
    },
    {
      "midi": 69,
      "hit": false,
      "t": 124700.00000000001,
      "d": 46.66666666667152,
      "v": 85
    },
    {
      "midi": 72,
      "hit": false,
      "t": 124746.66666666669,
      "d": 46.66666666667152,
      "v": 85
    },
    {
      "midi": 91,
      "hit": false,
      "t": 124800.00000000003,
      "d": 600,
      "v": 100
    },
    {
      "midi": 76,
      "hit": false,
      "t": 124800.00000000003,
      "d": 3100,
      "v": 85
    },
    {
      "midi": 93,
      "hit": false,
      "t": 125400.00000000003,
      "d": 600,
      "v": 100
    },
    {
      "midi": 93,
      "hit": false,
      "t": 126000.00000000003,
      "d": 1200,
      "v": 100
    },
    {
      "midi": 96,
      "hit": false,
      "t": 127200.00000000003,
      "d": 266.6666666666715,
      "v": 100
    },
    {
      "midi": 95,
      "hit": false,
      "t": 127466.6666666667,
      "d": 266.6666666666715,
      "v": 100
    },
    {
      "midi": 93,
      "hit": false,
      "t": 127733.33333333337,
      "d": 266.6666666666715,
      "v": 100
    },
    {
      "midi": 64,
      "hit": false,
      "t": 127900.00000000003,
      "d": 46.66666666667152,
      "v": 75
    },
    {
      "midi": 69,
      "hit": false,
      "t": 127946.6666666667,
      "d": 46.66666666667152,
      "v": 75
    },
    {
      "midi": 91,
      "hit": false,
      "t": 128000.00000000004,
      "d": 600,
      "v": 100
    },
    {
      "midi": 72,
      "hit": false,
      "t": 128000.00000000004,
      "d": 1200,
      "v": 85
    },
    {
      "midi": 93,
      "hit": false,
      "t": 128600.00000000004,
      "d": 600,
      "v": 100
    },
    {
      "midi": 93,
      "hit": false,
      "t": 129200.00000000004,
      "d": 1600,
      "v": 100
    },
    {
      "midi": 45,
      "hit": false,
      "t": 129200.00000000004,
      "d": 400,
      "v": 95
    },
    {
      "midi": 52,
      "hit": false,
      "t": 129600.00000000004,
      "d": 400,
      "v": 95
    },
    {
      "midi": 57,
      "hit": false,
      "t": 130000.00000000004,
      "d": 400,
      "v": 95
    },
    {
      "midi": 60,
      "hit": false,
      "t": 130400.00000000004,
      "d": 400,
      "v": 95
    },
    {
      "midi": 74,
      "hit": false,
      "t": 130800.00000000004,
      "d": 200,
      "v": 110
    },
    {
      "midi": 64,
      "hit": false,
      "t": 130800.00000000004,
      "d": 400.00000000001455,
      "v": 95
    },
    {
      "midi": 76,
      "hit": false,
      "t": 131000.00000000004,
      "d": 200.00000000001455,
      "v": 110
    },
    {
      "midi": 72,
      "hit": false,
      "t": 131200.00000000006,
      "d": 600,
      "v": 110
    },
    {
      "midi": 50,
      "hit": false,
      "t": 131200.00000000006,
      "d": 1200,
      "v": 95
    },
    {
      "midi": 60,
      "hit": false,
      "t": 131200.00000000006,
      "d": 1200,
      "v": 95
    },
    {
      "midi": 57,
      "hit": false,
      "t": 131200.00000000006,
      "d": 1200,
      "v": 95
    },
    {
      "midi": 53,
      "hit": false,
      "t": 131200.00000000006,
      "d": 1200,
      "v": 95
    },
    {
      "midi": 72,
      "hit": false,
      "t": 131800.00000000006,
      "d": 600,
      "v": 110
    },
    {
      "midi": 72,
      "hit": false,
      "t": 132400.00000000006,
      "d": 1200,
      "v": 110
    },
    {
      "midi": 50,
      "hit": false,
      "t": 132400.00000000006,
      "d": 400,
      "v": 95
    },
    {
      "midi": 53,
      "hit": false,
      "t": 132800.00000000006,
      "d": 400,
      "v": 95
    },
    {
      "midi": 57,
      "hit": false,
      "t": 133200.00000000006,
      "d": 400,
      "v": 95
    },
    {
      "midi": 69,
      "hit": false,
      "t": 133600.00000000006,
      "d": 200,
      "v": 110
    },
    {
      "midi": 60,
      "hit": false,
      "t": 133600.00000000006,
      "d": 800,
      "v": 95
    },
    {
      "midi": 71,
      "hit": false,
      "t": 133800.00000000006,
      "d": 200,
      "v": 110
    },
    {
      "midi": 72,
      "hit": false,
      "t": 134000.00000000006,
      "d": 200,
      "v": 110
    },
    {
      "midi": 74,
      "hit": false,
      "t": 134200.00000000006,
      "d": 200,
      "v": 110
    },
    {
      "midi": 76,
      "hit": false,
      "t": 134400.00000000006,
      "d": 600,
      "v": 110
    },
    {
      "midi": 52,
      "hit": false,
      "t": 134400.00000000006,
      "d": 1200,
      "v": 95
    },
    {
      "midi": 62,
      "hit": false,
      "t": 134400.00000000006,
      "d": 1200,
      "v": 95
    },
    {
      "midi": 59,
      "hit": false,
      "t": 134400.00000000006,
      "d": 1200,
      "v": 95
    },
    {
      "midi": 55,
      "hit": false,
      "t": 134400.00000000006,
      "d": 1200,
      "v": 95
    },
    {
      "midi": 69,
      "hit": false,
      "t": 135000.00000000006,
      "d": 600,
      "v": 110
    },
    {
      "midi": 74,
      "hit": false,
      "t": 135600.00000000006,
      "d": 2000,
      "v": 110
    },
    {
      "midi": 52,
      "hit": false,
      "t": 135600.00000000006,
      "d": 400,
      "v": 95
    },
    {
      "midi": 55,
      "hit": false,
      "t": 136000.00000000006,
      "d": 400,
      "v": 95
    },
    {
      "midi": 59,
      "hit": false,
      "t": 136400.00000000006,
      "d": 400,
      "v": 95
    },
    {
      "midi": 62,
      "hit": false,
      "t": 136800.00000000006,
      "d": 800,
      "v": 95
    },
    {
      "midi": 72,
      "hit": false,
      "t": 137600.00000000006,
      "d": 600,
      "v": 110
    },
    {
      "midi": 53,
      "hit": false,
      "t": 137600.00000000006,
      "d": 1200,
      "v": 95
    },
    {
      "midi": 64,
      "hit": false,
      "t": 137600.00000000006,
      "d": 1200,
      "v": 95
    },
    {
      "midi": 60,
      "hit": false,
      "t": 137600.00000000006,
      "d": 1200,
      "v": 95
    },
    {
      "midi": 57,
      "hit": false,
      "t": 137600.00000000006,
      "d": 1200,
      "v": 95
    },
    {
      "midi": 72,
      "hit": false,
      "t": 138200.00000000006,
      "d": 600,
      "v": 110
    },
    {
      "midi": 72,
      "hit": false,
      "t": 138800.00000000006,
      "d": 1200,
      "v": 110
    },
    {
      "midi": 53,
      "hit": false,
      "t": 138800.00000000006,
      "d": 400,
      "v": 95
    },
    {
      "midi": 57,
      "hit": false,
      "t": 139200.00000000006,
      "d": 400,
      "v": 95
    },
    {
      "midi": 60,
      "hit": false,
      "t": 139600.00000000006,
      "d": 400,
      "v": 95
    },
    {
      "midi": 69,
      "hit": false,
      "t": 140000.00000000006,
      "d": 200,
      "v": 110
    },
    {
      "midi": 64,
      "hit": false,
      "t": 140000.00000000006,
      "d": 800,
      "v": 95
    },
    {
      "midi": 71,
      "hit": false,
      "t": 140200.00000000006,
      "d": 200,
      "v": 110
    },
    {
      "midi": 72,
      "hit": false,
      "t": 140400.00000000006,
      "d": 200,
      "v": 110
    },
    {
      "midi": 74,
      "hit": false,
      "t": 140600.00000000006,
      "d": 200,
      "v": 110
    },
    {
      "midi": 76,
      "hit": false,
      "t": 140800.00000000006,
      "d": 500,
      "v": 110
    },
    {
      "midi": 52,
      "hit": false,
      "t": 140800.00000000006,
      "d": 1200,
      "v": 95
    },
    {
      "midi": 62,
      "hit": false,
      "t": 140800.00000000006,
      "d": 1200,
      "v": 95
    },
    {
      "midi": 59,
      "hit": false,
      "t": 140800.00000000006,
      "d": 1200,
      "v": 95
    },
    {
      "midi": 55,
      "hit": false,
      "t": 140800.00000000006,
      "d": 1200,
      "v": 95
    },
    {
      "midi": 76,
      "hit": false,
      "t": 141300.00000000006,
      "d": 100,
      "v": 100
    },
    {
      "midi": 79,
      "hit": false,
      "t": 141400.00000000006,
      "d": 600,
      "v": 110
    },
    {
      "midi": 74,
      "hit": false,
      "t": 142000.00000000006,
      "d": 2000,
      "v": 110
    },
    {
      "midi": 52,
      "hit": false,
      "t": 142000.00000000006,
      "d": 400,
      "v": 95
    },
    {
      "midi": 55,
      "hit": false,
      "t": 142400.00000000006,
      "d": 400,
      "v": 95
    },
    {
      "midi": 59,
      "hit": false,
      "t": 142800.00000000006,
      "d": 400,
      "v": 95
    },
    {
      "midi": 62,
      "hit": false,
      "t": 143200.00000000006,
      "d": 800,
      "v": 95
    },
    {
      "midi": 72,
      "hit": false,
      "t": 144000.00000000006,
      "d": 600,
      "v": 110
    },
    {
      "midi": 50,
      "hit": false,
      "t": 144000.00000000006,
      "d": 1200,
      "v": 95
    },
    {
      "midi": 60,
      "hit": false,
      "t": 144000.00000000006,
      "d": 1200,
      "v": 95
    },
    {
      "midi": 57,
      "hit": false,
      "t": 144000.00000000006,
      "d": 1200,
      "v": 95
    },
    {
      "midi": 53,
      "hit": false,
      "t": 144000.00000000006,
      "d": 1200,
      "v": 95
    },
    {
      "midi": 72,
      "hit": false,
      "t": 144600.00000000006,
      "d": 600,
      "v": 110
    },
    {
      "midi": 72,
      "hit": false,
      "t": 145200.00000000006,
      "d": 1200,
      "v": 110
    },
    {
      "midi": 50,
      "hit": false,
      "t": 145200.00000000006,
      "d": 400,
      "v": 95
    },
    {
      "midi": 53,
      "hit": false,
      "t": 145600.00000000006,
      "d": 400,
      "v": 95
    },
    {
      "midi": 57,
      "hit": false,
      "t": 146000.00000000006,
      "d": 400,
      "v": 95
    },
    {
      "midi": 69,
      "hit": false,
      "t": 146400.00000000006,
      "d": 200,
      "v": 110
    },
    {
      "midi": 60,
      "hit": false,
      "t": 146400.00000000006,
      "d": 800,
      "v": 95
    },
    {
      "midi": 71,
      "hit": false,
      "t": 146600.00000000006,
      "d": 200,
      "v": 110
    },
    {
      "midi": 72,
      "hit": false,
      "t": 146800.00000000006,
      "d": 200,
      "v": 110
    },
    {
      "midi": 74,
      "hit": false,
      "t": 147000.00000000006,
      "d": 200,
      "v": 110
    },
    {
      "midi": 76,
      "hit": false,
      "t": 147200.00000000006,
      "d": 600,
      "v": 110
    },
    {
      "midi": 52,
      "hit": false,
      "t": 147200.00000000006,
      "d": 1200,
      "v": 95
    },
    {
      "midi": 62,
      "hit": false,
      "t": 147200.00000000006,
      "d": 1200,
      "v": 95
    },
    {
      "midi": 59,
      "hit": false,
      "t": 147200.00000000006,
      "d": 1200,
      "v": 95
    },
    {
      "midi": 55,
      "hit": false,
      "t": 147200.00000000006,
      "d": 1200,
      "v": 95
    },
    {
      "midi": 79,
      "hit": false,
      "t": 147800.00000000006,
      "d": 600,
      "v": 110
    },
    {
      "midi": 79,
      "hit": false,
      "t": 148400.00000000006,
      "d": 1200,
      "v": 110
    },
    {
      "midi": 52,
      "hit": false,
      "t": 148400.00000000006,
      "d": 400,
      "v": 95
    },
    {
      "midi": 55,
      "hit": false,
      "t": 148800.00000000006,
      "d": 400,
      "v": 95
    },
    {
      "midi": 59,
      "hit": false,
      "t": 149200.00000000006,
      "d": 400,
      "v": 95
    },
    {
      "midi": 76,
      "hit": false,
      "t": 149600.00000000006,
      "d": 800,
      "v": 110
    },
    {
      "midi": 62,
      "hit": false,
      "t": 149600.00000000006,
      "d": 800,
      "v": 95
    },
    {
      "midi": 79,
      "hit": false,
      "t": 150400.00000000006,
      "d": 600,
      "v": 110
    },
    {
      "midi": 48,
      "hit": false,
      "t": 150400.00000000006,
      "d": 1200,
      "v": 95
    },
    {
      "midi": 60,
      "hit": false,
      "t": 150400.00000000006,
      "d": 1200,
      "v": 95
    },
    {
      "midi": 57,
      "hit": false,
      "t": 150400.00000000006,
      "d": 1200,
      "v": 95
    },
    {
      "midi": 52,
      "hit": false,
      "t": 150400.00000000006,
      "d": 1200,
      "v": 95
    },
    {
      "midi": 81,
      "hit": false,
      "t": 151000.00000000006,
      "d": 600,
      "v": 110
    },
    {
      "midi": 81,
      "hit": false,
      "t": 151600.00000000006,
      "d": 1200,
      "v": 110
    },
    {
      "midi": 45,
      "hit": false,
      "t": 151600.00000000006,
      "d": 400,
      "v": 95
    },
    {
      "midi": 48,
      "hit": false,
      "t": 152000.00000000006,
      "d": 400,
      "v": 95
    },
    {
      "midi": 52,
      "hit": false,
      "t": 152400.00000000006,
      "d": 400,
      "v": 95
    },
    {
      "midi": 84,
      "hit": false,
      "t": 152800.00000000006,
      "d": 266.66666666665697,
      "v": 110
    },
    {
      "midi": 55,
      "hit": false,
      "t": 152800.00000000006,
      "d": 800,
      "v": 95
    },
    {
      "midi": 83,
      "hit": false,
      "t": 153066.66666666672,
      "d": 266.66666666665697,
      "v": 110
    },
    {
      "midi": 81,
      "hit": false,
      "t": 153333.33333333337,
      "d": 266.66666666665697,
      "v": 110
    },
    {
      "midi": 79,
      "hit": false,
      "t": 153600.00000000003,
      "d": 600,
      "v": 110
    },
    {
      "midi": 52,
      "hit": false,
      "t": 153600.00000000006,
      "d": 1200,
      "v": 95
    },
    {
      "midi": 64,
      "hit": false,
      "t": 153600.00000000006,
      "d": 1200,
      "v": 95
    },
    {
      "midi": 60,
      "hit": false,
      "t": 153600.00000000006,
      "d": 1200,
      "v": 95
    },
    {
      "midi": 57,
      "hit": false,
      "t": 153600.00000000006,
      "d": 1200,
      "v": 95
    },
    {
      "midi": 81,
      "hit": false,
      "t": 154200.00000000003,
      "d": 600,
      "v": 110
    },
    {
      "midi": 81,
      "hit": false,
      "t": 154800.00000000003,
      "d": 2000,
      "v": 110
    },
    {
      "midi": 48,
      "hit": false,
      "t": 154800.00000000006,
      "d": 400,
      "v": 95
    },
    {
      "midi": 52,
      "hit": false,
      "t": 155200.00000000006,
      "d": 400,
      "v": 95
    },
    {
      "midi": 57,
      "hit": false,
      "t": 155600.00000000006,
      "d": 400,
      "v": 95
    },
    {
      "midi": 60,
      "hit": false,
      "t": 156000.00000000006,
      "d": 800,
      "v": 95
    },
    {
      "midi": 72,
      "hit": false,
      "t": 156800.00000000003,
      "d": 600,
      "v": 110
    },
    {
      "midi": 50,
      "hit": false,
      "t": 156800.00000000006,
      "d": 1200,
      "v": 95
    },
    {
      "midi": 60,
      "hit": false,
      "t": 156800.00000000006,
      "d": 1200,
      "v": 95
    },
    {
      "midi": 57,
      "hit": false,
      "t": 156800.00000000006,
      "d": 1200,
      "v": 95
    },
    {
      "midi": 53,
      "hit": false,
      "t": 156800.00000000006,
      "d": 1200,
      "v": 95
    },
    {
      "midi": 72,
      "hit": false,
      "t": 157400.00000000003,
      "d": 600,
      "v": 110
    },
    {
      "midi": 72,
      "hit": false,
      "t": 158000.00000000003,
      "d": 1200,
      "v": 110
    },
    {
      "midi": 50,
      "hit": false,
      "t": 158000.00000000006,
      "d": 400,
      "v": 95
    },
    {
      "midi": 53,
      "hit": false,
      "t": 158400.00000000006,
      "d": 400,
      "v": 95
    },
    {
      "midi": 57,
      "hit": false,
      "t": 158800.00000000006,
      "d": 400,
      "v": 95
    },
    {
      "midi": 69,
      "hit": false,
      "t": 159200.00000000003,
      "d": 200,
      "v": 110
    },
    {
      "midi": 60,
      "hit": false,
      "t": 159200.00000000006,
      "d": 800,
      "v": 95
    },
    {
      "midi": 71,
      "hit": false,
      "t": 159400.00000000003,
      "d": 200,
      "v": 110
    },
    {
      "midi": 72,
      "hit": false,
      "t": 159600.00000000003,
      "d": 200,
      "v": 110
    },
    {
      "midi": 74,
      "hit": false,
      "t": 159800.00000000003,
      "d": 200,
      "v": 110
    },
    {
      "midi": 76,
      "hit": false,
      "t": 160000.00000000003,
      "d": 600,
      "v": 110
    },
    {
      "midi": 52,
      "hit": false,
      "t": 160000.00000000006,
      "d": 1200,
      "v": 95
    },
    {
      "midi": 62,
      "hit": false,
      "t": 160000.00000000006,
      "d": 1200,
      "v": 95
    },
    {
      "midi": 59,
      "hit": false,
      "t": 160000.00000000006,
      "d": 1200,
      "v": 95
    },
    {
      "midi": 55,
      "hit": false,
      "t": 160000.00000000006,
      "d": 1200,
      "v": 95
    },
    {
      "midi": 69,
      "hit": false,
      "t": 160600.00000000003,
      "d": 600,
      "v": 110
    },
    {
      "midi": 74,
      "hit": false,
      "t": 161200.00000000003,
      "d": 2000,
      "v": 110
    },
    {
      "midi": 52,
      "hit": false,
      "t": 161200.00000000006,
      "d": 400,
      "v": 95
    },
    {
      "midi": 55,
      "hit": false,
      "t": 161600.00000000006,
      "d": 400,
      "v": 95
    },
    {
      "midi": 59,
      "hit": false,
      "t": 162000.00000000006,
      "d": 400,
      "v": 95
    },
    {
      "midi": 62,
      "hit": false,
      "t": 162400.00000000006,
      "d": 800,
      "v": 95
    },
    {
      "midi": 72,
      "hit": false,
      "t": 163200.00000000003,
      "d": 600,
      "v": 110
    },
    {
      "midi": 53,
      "hit": false,
      "t": 163200.00000000006,
      "d": 1200,
      "v": 95
    },
    {
      "midi": 64,
      "hit": false,
      "t": 163200.00000000006,
      "d": 1200,
      "v": 95
    },
    {
      "midi": 60,
      "hit": false,
      "t": 163200.00000000006,
      "d": 1200,
      "v": 95
    },
    {
      "midi": 57,
      "hit": false,
      "t": 163200.00000000006,
      "d": 1200,
      "v": 95
    },
    {
      "midi": 72,
      "hit": false,
      "t": 163800.00000000003,
      "d": 600,
      "v": 110
    },
    {
      "midi": 72,
      "hit": false,
      "t": 164400.00000000003,
      "d": 1200,
      "v": 110
    },
    {
      "midi": 53,
      "hit": false,
      "t": 164400.00000000006,
      "d": 400,
      "v": 95
    },
    {
      "midi": 57,
      "hit": false,
      "t": 164800.00000000006,
      "d": 400,
      "v": 95
    },
    {
      "midi": 60,
      "hit": false,
      "t": 165200.00000000006,
      "d": 400,
      "v": 95
    },
    {
      "midi": 69,
      "hit": false,
      "t": 165600.00000000003,
      "d": 200,
      "v": 110
    },
    {
      "midi": 64,
      "hit": false,
      "t": 165600.00000000006,
      "d": 800,
      "v": 95
    },
    {
      "midi": 71,
      "hit": false,
      "t": 165800.00000000003,
      "d": 200,
      "v": 110
    },
    {
      "midi": 72,
      "hit": false,
      "t": 166000.00000000003,
      "d": 200,
      "v": 110
    },
    {
      "midi": 74,
      "hit": false,
      "t": 166200.00000000003,
      "d": 200,
      "v": 110
    },
    {
      "midi": 76,
      "hit": false,
      "t": 166400.00000000003,
      "d": 600,
      "v": 110
    },
    {
      "midi": 52,
      "hit": false,
      "t": 166400.00000000006,
      "d": 1200,
      "v": 95
    },
    {
      "midi": 62,
      "hit": false,
      "t": 166400.00000000006,
      "d": 1200,
      "v": 95
    },
    {
      "midi": 59,
      "hit": false,
      "t": 166400.00000000006,
      "d": 1200,
      "v": 95
    },
    {
      "midi": 55,
      "hit": false,
      "t": 166400.00000000006,
      "d": 1200,
      "v": 95
    },
    {
      "midi": 79,
      "hit": false,
      "t": 167000.00000000003,
      "d": 600,
      "v": 110
    },
    {
      "midi": 74,
      "hit": false,
      "t": 167600.00000000003,
      "d": 2000,
      "v": 110
    },
    {
      "midi": 52,
      "hit": false,
      "t": 167600.00000000006,
      "d": 400,
      "v": 95
    },
    {
      "midi": 55,
      "hit": false,
      "t": 168000.00000000006,
      "d": 400,
      "v": 95
    },
    {
      "midi": 59,
      "hit": false,
      "t": 168400.00000000006,
      "d": 400,
      "v": 95
    },
    {
      "midi": 62,
      "hit": false,
      "t": 168800.00000000006,
      "d": 800,
      "v": 95
    },
    {
      "midi": 72,
      "hit": false,
      "t": 169600.00000000003,
      "d": 600,
      "v": 110
    },
    {
      "midi": 50,
      "hit": false,
      "t": 169600.00000000006,
      "d": 1200,
      "v": 95
    },
    {
      "midi": 60,
      "hit": false,
      "t": 169600.00000000006,
      "d": 1200,
      "v": 95
    },
    {
      "midi": 57,
      "hit": false,
      "t": 169600.00000000006,
      "d": 1200,
      "v": 95
    },
    {
      "midi": 53,
      "hit": false,
      "t": 169600.00000000006,
      "d": 1200,
      "v": 95
    },
    {
      "midi": 72,
      "hit": false,
      "t": 170200.00000000003,
      "d": 600,
      "v": 110
    },
    {
      "midi": 72,
      "hit": false,
      "t": 170800.00000000003,
      "d": 1200,
      "v": 110
    },
    {
      "midi": 50,
      "hit": false,
      "t": 170800.00000000006,
      "d": 400,
      "v": 95
    },
    {
      "midi": 53,
      "hit": false,
      "t": 171200.00000000006,
      "d": 400,
      "v": 95
    },
    {
      "midi": 57,
      "hit": false,
      "t": 171600.00000000006,
      "d": 400,
      "v": 95
    },
    {
      "midi": 69,
      "hit": false,
      "t": 172000.00000000003,
      "d": 200,
      "v": 110
    },
    {
      "midi": 60,
      "hit": false,
      "t": 172000.00000000006,
      "d": 800,
      "v": 95
    },
    {
      "midi": 71,
      "hit": false,
      "t": 172200.00000000003,
      "d": 200,
      "v": 110
    },
    {
      "midi": 72,
      "hit": false,
      "t": 172400.00000000003,
      "d": 200,
      "v": 110
    },
    {
      "midi": 74,
      "hit": false,
      "t": 172600.00000000003,
      "d": 200,
      "v": 110
    },
    {
      "midi": 76,
      "hit": false,
      "t": 172800.00000000003,
      "d": 600,
      "v": 110
    },
    {
      "midi": 52,
      "hit": false,
      "t": 172800.00000000006,
      "d": 1200,
      "v": 95
    },
    {
      "midi": 62,
      "hit": false,
      "t": 172800.00000000006,
      "d": 1200,
      "v": 95
    },
    {
      "midi": 59,
      "hit": false,
      "t": 172800.00000000006,
      "d": 1200,
      "v": 95
    },
    {
      "midi": 55,
      "hit": false,
      "t": 172800.00000000006,
      "d": 1200,
      "v": 95
    },
    {
      "midi": 79,
      "hit": false,
      "t": 173400.00000000003,
      "d": 600,
      "v": 110
    },
    {
      "midi": 79,
      "hit": false,
      "t": 174000.00000000003,
      "d": 1200,
      "v": 110
    },
    {
      "midi": 52,
      "hit": false,
      "t": 174000.00000000006,
      "d": 400,
      "v": 95
    },
    {
      "midi": 55,
      "hit": false,
      "t": 174400.00000000006,
      "d": 400,
      "v": 95
    },
    {
      "midi": 59,
      "hit": false,
      "t": 174800.00000000006,
      "d": 400,
      "v": 95
    },
    {
      "midi": 76,
      "hit": false,
      "t": 175200.00000000003,
      "d": 800,
      "v": 110
    },
    {
      "midi": 62,
      "hit": false,
      "t": 175200.00000000006,
      "d": 800,
      "v": 95
    },
    {
      "midi": 79,
      "hit": false,
      "t": 176000.00000000003,
      "d": 600,
      "v": 110
    },
    {
      "midi": 48,
      "hit": false,
      "t": 176000.00000000006,
      "d": 1200,
      "v": 95
    },
    {
      "midi": 60,
      "hit": false,
      "t": 176000.00000000006,
      "d": 1200,
      "v": 95
    },
    {
      "midi": 57,
      "hit": false,
      "t": 176000.00000000006,
      "d": 1200,
      "v": 95
    },
    {
      "midi": 52,
      "hit": false,
      "t": 176000.00000000006,
      "d": 1200,
      "v": 95
    },
    {
      "midi": 81,
      "hit": false,
      "t": 176600.00000000003,
      "d": 600,
      "v": 110
    },
    {
      "midi": 81,
      "hit": false,
      "t": 177200.00000000003,
      "d": 1200,
      "v": 110
    },
    {
      "midi": 45,
      "hit": false,
      "t": 177200.00000000006,
      "d": 400,
      "v": 95
    },
    {
      "midi": 48,
      "hit": false,
      "t": 177600.00000000006,
      "d": 400,
      "v": 95
    },
    {
      "midi": 52,
      "hit": false,
      "t": 178000.00000000006,
      "d": 400,
      "v": 95
    },
    {
      "midi": 84,
      "hit": false,
      "t": 178400.00000000003,
      "d": 266.66666666665697,
      "v": 110
    },
    {
      "midi": 55,
      "hit": false,
      "t": 178400.00000000006,
      "d": 800,
      "v": 95
    },
    {
      "midi": 83,
      "hit": false,
      "t": 178666.6666666667,
      "d": 266.66666666665697,
      "v": 110
    },
    {
      "midi": 81,
      "hit": false,
      "t": 178933.33333333334,
      "d": 266.66666666665697,
      "v": 110
    },
    {
      "midi": 79,
      "hit": false,
      "t": 179200,
      "d": 600,
      "v": 110
    },
    {
      "midi": 52,
      "hit": false,
      "t": 179200.00000000006,
      "d": 1200,
      "v": 95
    },
    {
      "midi": 64,
      "hit": false,
      "t": 179200.00000000006,
      "d": 1200,
      "v": 95
    },
    {
      "midi": 60,
      "hit": false,
      "t": 179200.00000000006,
      "d": 1200,
      "v": 95
    },
    {
      "midi": 57,
      "hit": false,
      "t": 179200.00000000006,
      "d": 1200,
      "v": 95
    },
    {
      "midi": 81,
      "hit": false,
      "t": 179800,
      "d": 600,
      "v": 110
    },
    {
      "midi": 81,
      "hit": false,
      "t": 180400,
      "d": 400,
      "v": 110
    },
    {
      "midi": 52,
      "hit": false,
      "t": 180400.00000000006,
      "d": 400,
      "v": 95
    },
    {
      "midi": 69,
      "hit": false,
      "t": 180800,
      "d": 600,
      "v": 110
    },
    {
      "midi": 57,
      "hit": false,
      "t": 180800.00000000006,
      "d": 600,
      "v": 95
    },
    {
      "midi": 71,
      "hit": false,
      "t": 181400,
      "d": 600,
      "v": 110
    },
    {
      "midi": 60,
      "hit": false,
      "t": 181400.00000000006,
      "d": 600,
      "v": 95
    },
    {
      "midi": 72,
      "hit": false,
      "t": 182000,
      "d": 400,
      "v": 110
    },
    {
      "midi": 64,
      "hit": false,
      "t": 182000.00000000006,
      "d": 400,
      "v": 95
    },
    {
      "midi": 72,
      "hit": false,
      "t": 182400,
      "d": 1200,
      "v": 110
    },
    {
      "midi": 41,
      "hit": false,
      "t": 182400.00000000006,
      "d": 400,
      "v": 95
    },
    {
      "midi": 48,
      "hit": false,
      "t": 182800.00000000006,
      "d": 400,
      "v": 95
    },
    {
      "midi": 53,
      "hit": false,
      "t": 183200.00000000006,
      "d": 400,
      "v": 95
    },
    {
      "midi": 65,
      "hit": false,
      "t": 183600,
      "d": 400,
      "v": 110
    },
    {
      "midi": 57,
      "hit": false,
      "t": 183600.00000000006,
      "d": 400,
      "v": 95
    },
    {
      "midi": 65,
      "hit": false,
      "t": 184000,
      "d": 700,
      "v": 110
    },
    {
      "midi": 60,
      "hit": false,
      "t": 184000.00000000006,
      "d": 800,
      "v": 95
    },
    {
      "midi": 72,
      "hit": false,
      "t": 184700,
      "d": 100,
      "v": 100
    },
    {
      "midi": 76,
      "hit": false,
      "t": 184800,
      "d": 400,
      "v": 110
    },
    {
      "midi": 57,
      "hit": false,
      "t": 184800.00000000006,
      "d": 800,
      "v": 95
    },
    {
      "midi": 74,
      "hit": false,
      "t": 185200,
      "d": 2400,
      "v": 110
    },
    {
      "midi": 43,
      "hit": false,
      "t": 185600.00000000006,
      "d": 400,
      "v": 95
    },
    {
      "midi": 50,
      "hit": false,
      "t": 186000.00000000006,
      "d": 400,
      "v": 95
    },
    {
      "midi": 55,
      "hit": false,
      "t": 186400.00000000006,
      "d": 400,
      "v": 95
    },
    {
      "midi": 59,
      "hit": false,
      "t": 186800.00000000006,
      "d": 400,
      "v": 95
    },
    {
      "midi": 62,
      "hit": false,
      "t": 187200.00000000006,
      "d": 800,
      "v": 95
    },
    {
      "midi": 72,
      "hit": false,
      "t": 187600,
      "d": 400,
      "v": 110
    },
    {
      "midi": 71,
      "hit": false,
      "t": 188000,
      "d": 400,
      "v": 110
    },
    {
      "midi": 59,
      "hit": false,
      "t": 188000.00000000006,
      "d": 800,
      "v": 95
    },
    {
      "midi": 72,
      "hit": false,
      "t": 188400,
      "d": 400,
      "v": 110
    },
    {
      "midi": 74,
      "hit": false,
      "t": 188800,
      "d": 800,
      "v": 110
    },
    {
      "midi": 40,
      "hit": false,
      "t": 188800.00000000006,
      "d": 400,
      "v": 95
    },
    {
      "midi": 47,
      "hit": false,
      "t": 189200.00000000006,
      "d": 400,
      "v": 95
    },
    {
      "midi": 67,
      "hit": false,
      "t": 189600,
      "d": 800,
      "v": 110
    },
    {
      "midi": 52,
      "hit": false,
      "t": 189600.00000000006,
      "d": 400,
      "v": 95
    },
    {
      "midi": 55,
      "hit": false,
      "t": 190000.00000000006,
      "d": 400,
      "v": 95
    },
    {
      "midi": 67,
      "hit": false,
      "t": 190400,
      "d": 400,
      "v": 110
    },
    {
      "midi": 59,
      "hit": false,
      "t": 190400.00000000006,
      "d": 800,
      "v": 95
    },
    {
      "midi": 77,
      "hit": false,
      "t": 190800,
      "d": 800,
      "v": 110
    },
    {
      "midi": 55,
      "hit": false,
      "t": 191200.00000000006,
      "d": 800,
      "v": 95
    },
    {
      "midi": 76,
      "hit": false,
      "t": 191600,
      "d": 2400,
      "v": 110
    },
    {
      "midi": 41,
      "hit": false,
      "t": 192000.00000000006,
      "d": 400,
      "v": 95
    },
    {
      "midi": 48,
      "hit": false,
      "t": 192400.00000000006,
      "d": 400,
      "v": 95
    },
    {
      "midi": 53,
      "hit": false,
      "t": 192800.00000000006,
      "d": 400,
      "v": 95
    },
    {
      "midi": 57,
      "hit": false,
      "t": 193200.00000000006,
      "d": 400,
      "v": 95
    },
    {
      "midi": 60,
      "hit": false,
      "t": 193600.00000000006,
      "d": 400,
      "v": 95
    },
    {
      "midi": 74,
      "hit": false,
      "t": 194000,
      "d": 400,
      "v": 110
    },
    {
      "midi": 57,
      "hit": false,
      "t": 194000.00000000006,
      "d": 400,
      "v": 95
    },
    {
      "midi": 72,
      "hit": false,
      "t": 194400,
      "d": 400,
      "v": 110
    },
    {
      "midi": 53,
      "hit": false,
      "t": 194400.00000000006,
      "d": 800,
      "v": 95
    },
    {
      "midi": 74,
      "hit": false,
      "t": 194800,
      "d": 400,
      "v": 110
    },
    {
      "midi": 69,
      "hit": false,
      "t": 195200,
      "d": 1500,
      "v": 110
    },
    {
      "midi": 38,
      "hit": false,
      "t": 195200.00000000006,
      "d": 400,
      "v": 95
    },
    {
      "midi": 45,
      "hit": false,
      "t": 195600.00000000006,
      "d": 400,
      "v": 95
    },
    {
      "midi": 50,
      "hit": false,
      "t": 196000.00000000006,
      "d": 400,
      "v": 95
    },
    {
      "midi": 53,
      "hit": false,
      "t": 196400.00000000006,
      "d": 400,
      "v": 95
    },
    {
      "midi": 69,
      "hit": false,
      "t": 196700,
      "d": 46.666666666656965,
      "v": 100
    },
    {
      "midi": 72,
      "hit": false,
      "t": 196746.66666666666,
      "d": 46.666666666656965,
      "v": 100
    },
    {
      "midi": 76,
      "hit": false,
      "t": 196793.3333333333,
      "d": 1600,
      "v": 110
    },
    {
      "midi": 57,
      "hit": false,
      "t": 196800.00000000006,
      "d": 800,
      "v": 95
    },
    {
      "midi": 53,
      "hit": false,
      "t": 197600.00000000006,
      "d": 800,
      "v": 95
    },
    {
      "midi": 71,
      "hit": false,
      "t": 198399.99999999997,
      "d": 1600,
      "v": 110
    },
    {
      "midi": 40,
      "hit": false,
      "t": 198400.00000000006,
      "d": 400,
      "v": 95
    },
    {
      "midi": 47,
      "hit": false,
      "t": 198800.00000000006,
      "d": 400,
      "v": 95
    },
    {
      "midi": 52,
      "hit": false,
      "t": 199200.00000000006,
      "d": 400,
      "v": 95
    },
    {
      "midi": 56,
      "hit": false,
      "t": 199600.00000000006,
      "d": 400,
      "v": 95
    },
    {
      "midi": 68,
      "hit": false,
      "t": 199999.99999999997,
      "d": 600,
      "v": 110
    },
    {
      "midi": 59,
      "hit": false,
      "t": 200000.00000000006,
      "d": 600,
      "v": 95
    },
    {
      "midi": 69,
      "hit": false,
      "t": 200599.99999999997,
      "d": 600,
      "v": 110
    },
    {
      "midi": 56,
      "hit": false,
      "t": 200600.00000000006,
      "d": 600,
      "v": 95
    },
    {
      "midi": 71,
      "hit": false,
      "t": 201199.99999999997,
      "d": 400,
      "v": 110
    },
    {
      "midi": 52,
      "hit": false,
      "t": 201200.00000000006,
      "d": 400,
      "v": 95
    },
    {
      "midi": 72,
      "hit": false,
      "t": 201599.99999999997,
      "d": 3200,
      "v": 110
    },
    {
      "midi": 41,
      "hit": false,
      "t": 201600.00000000006,
      "d": 400,
      "v": 95
    },
    {
      "midi": 48,
      "hit": false,
      "t": 202000.00000000006,
      "d": 400,
      "v": 95
    },
    {
      "midi": 53,
      "hit": false,
      "t": 202400.00000000006,
      "d": 400,
      "v": 95
    },
    {
      "midi": 57,
      "hit": false,
      "t": 202800.00000000006,
      "d": 400,
      "v": 95
    },
    {
      "midi": 60,
      "hit": false,
      "t": 203200.00000000006,
      "d": 1600,
      "v": 95
    },
    {
      "midi": 71,
      "hit": false,
      "t": 204799.99999999997,
      "d": 1600,
      "v": 110
    },
    {
      "midi": 43,
      "hit": false,
      "t": 204800.00000000006,
      "d": 400,
      "v": 95
    },
    {
      "midi": 50,
      "hit": false,
      "t": 205200.00000000006,
      "d": 400,
      "v": 95
    },
    {
      "midi": 55,
      "hit": false,
      "t": 205600.00000000006,
      "d": 400,
      "v": 95
    },
    {
      "midi": 59,
      "hit": false,
      "t": 206000.00000000006,
      "d": 400,
      "v": 95
    },
    {
      "midi": 71,
      "hit": false,
      "t": 206399.99999999997,
      "d": 600,
      "v": 110
    },
    {
      "midi": 62,
      "hit": false,
      "t": 206400.00000000006,
      "d": 600,
      "v": 95
    },
    {
      "midi": 72,
      "hit": false,
      "t": 206999.99999999997,
      "d": 600,
      "v": 110
    },
    {
      "midi": 59,
      "hit": false,
      "t": 207000.00000000006,
      "d": 600,
      "v": 95
    },
    {
      "midi": 74,
      "hit": false,
      "t": 207599.99999999997,
      "d": 400,
      "v": 110
    },
    {
      "midi": 55,
      "hit": false,
      "t": 207600.00000000006,
      "d": 400,
      "v": 95
    },
    {
      "midi": 76,
      "hit": false,
      "t": 207999.99999999997,
      "d": 1200,
      "v": 110
    },
    {
      "midi": 41,
      "hit": false,
      "t": 208000.00000000006,
      "d": 400,
      "v": 95
    },
    {
      "midi": 48,
      "hit": false,
      "t": 208400.00000000006,
      "d": 400,
      "v": 95
    },
    {
      "midi": 53,
      "hit": false,
      "t": 208800.00000000006,
      "d": 400,
      "v": 95
    },
    {
      "midi": 69,
      "hit": false,
      "t": 209199.99999999997,
      "d": 400,
      "v": 110
    },
    {
      "midi": 57,
      "hit": false,
      "t": 209200.00000000006,
      "d": 400,
      "v": 95
    },
    {
      "midi": 72,
      "hit": false,
      "t": 209599.99999999997,
      "d": 800,
      "v": 110
    },
    {
      "midi": 60,
      "hit": false,
      "t": 209600.00000000006,
      "d": 800,
      "v": 95
    },
    {
      "midi": 76,
      "hit": false,
      "t": 210399.99999999997,
      "d": 400,
      "v": 110
    },
    {
      "midi": 57,
      "hit": false,
      "t": 210400.00000000006,
      "d": 800,
      "v": 95
    },
    {
      "midi": 74,
      "hit": false,
      "t": 210799.99999999997,
      "d": 2400,
      "v": 110
    },
    {
      "midi": 43,
      "hit": false,
      "t": 211200.00000000006,
      "d": 400,
      "v": 95
    },
    {
      "midi": 50,
      "hit": false,
      "t": 211600.00000000006,
      "d": 400,
      "v": 95
    },
    {
      "midi": 55,
      "hit": false,
      "t": 212000.00000000006,
      "d": 400,
      "v": 95
    },
    {
      "midi": 59,
      "hit": false,
      "t": 212400.00000000006,
      "d": 400,
      "v": 95
    },
    {
      "midi": 62,
      "hit": false,
      "t": 212800.00000000006,
      "d": 800,
      "v": 95
    },
    {
      "midi": 72,
      "hit": false,
      "t": 213199.99999999997,
      "d": 400,
      "v": 110
    },
    {
      "midi": 71,
      "hit": false,
      "t": 213599.99999999997,
      "d": 400,
      "v": 110
    },
    {
      "midi": 59,
      "hit": false,
      "t": 213600.00000000006,
      "d": 800,
      "v": 95
    },
    {
      "midi": 72,
      "hit": false,
      "t": 213999.99999999997,
      "d": 400,
      "v": 110
    },
    {
      "midi": 74,
      "hit": false,
      "t": 214399.99999999997,
      "d": 800,
      "v": 110
    },
    {
      "midi": 40,
      "hit": false,
      "t": 214400.00000000006,
      "d": 400,
      "v": 95
    },
    {
      "midi": 47,
      "hit": false,
      "t": 214800.00000000006,
      "d": 400,
      "v": 95
    },
    {
      "midi": 67,
      "hit": false,
      "t": 215199.99999999997,
      "d": 800,
      "v": 110
    },
    {
      "midi": 52,
      "hit": false,
      "t": 215200.00000000006,
      "d": 400,
      "v": 95
    },
    {
      "midi": 55,
      "hit": false,
      "t": 215600.00000000006,
      "d": 400,
      "v": 95
    },
    {
      "midi": 67,
      "hit": false,
      "t": 215999.99999999997,
      "d": 400,
      "v": 110
    },
    {
      "midi": 59,
      "hit": false,
      "t": 216000.00000000006,
      "d": 800,
      "v": 95
    },
    {
      "midi": 77,
      "hit": false,
      "t": 216399.99999999997,
      "d": 800,
      "v": 110
    },
    {
      "midi": 55,
      "hit": false,
      "t": 216800.00000000006,
      "d": 800,
      "v": 95
    },
    {
      "midi": 76,
      "hit": false,
      "t": 217199.99999999997,
      "d": 2400,
      "v": 110
    },
    {
      "midi": 41,
      "hit": false,
      "t": 217600.00000000006,
      "d": 400,
      "v": 95
    },
    {
      "midi": 48,
      "hit": false,
      "t": 218000.00000000006,
      "d": 400,
      "v": 95
    },
    {
      "midi": 53,
      "hit": false,
      "t": 218400.00000000006,
      "d": 400,
      "v": 95
    },
    {
      "midi": 57,
      "hit": false,
      "t": 218800.00000000006,
      "d": 400,
      "v": 95
    },
    {
      "midi": 60,
      "hit": false,
      "t": 219200.00000000006,
      "d": 400,
      "v": 95
    },
    {
      "midi": 74,
      "hit": false,
      "t": 219599.99999999997,
      "d": 400,
      "v": 110
    },
    {
      "midi": 57,
      "hit": false,
      "t": 219600.00000000006,
      "d": 400,
      "v": 95
    },
    {
      "midi": 72,
      "hit": false,
      "t": 219999.99999999997,
      "d": 400,
      "v": 110
    },
    {
      "midi": 53,
      "hit": false,
      "t": 220000.00000000006,
      "d": 800,
      "v": 95
    },
    {
      "midi": 74,
      "hit": false,
      "t": 220399.99999999997,
      "d": 400,
      "v": 110
    },
    {
      "midi": 69,
      "hit": false,
      "t": 220799.99999999997,
      "d": 1600,
      "v": 110
    },
    {
      "midi": 38,
      "hit": false,
      "t": 220800.00000000006,
      "d": 400,
      "v": 95
    },
    {
      "midi": 45,
      "hit": false,
      "t": 221200.00000000006,
      "d": 400,
      "v": 95
    },
    {
      "midi": 50,
      "hit": false,
      "t": 221600.00000000006,
      "d": 400,
      "v": 95
    },
    {
      "midi": 53,
      "hit": false,
      "t": 222000.00000000006,
      "d": 400,
      "v": 95
    },
    {
      "midi": 76,
      "hit": false,
      "t": 222399.99999999997,
      "d": 1533.333333333343,
      "v": 110
    },
    {
      "midi": 57,
      "hit": false,
      "t": 222400.00000000006,
      "d": 800,
      "v": 95
    },
    {
      "midi": 53,
      "hit": false,
      "t": 223200.00000000006,
      "d": 800,
      "v": 95
    },
    {
      "midi": 68,
      "hit": false,
      "t": 223933.3333333333,
      "d": 66.66666666665697,
      "v": 100
    },
    {
      "midi": 71,
      "hit": false,
      "t": 223999.99999999997,
      "d": 1600,
      "v": 110
    },
    {
      "midi": 40,
      "hit": false,
      "t": 224000.00000000006,
      "d": 400,
      "v": 95
    },
    {
      "midi": 47,
      "hit": false,
      "t": 224400.00000000006,
      "d": 400,
      "v": 95
    },
    {
      "midi": 52,
      "hit": false,
      "t": 224800.00000000006,
      "d": 400,
      "v": 95
    },
    {
      "midi": 56,
      "hit": false,
      "t": 225200.00000000006,
      "d": 400,
      "v": 95
    },
    {
      "midi": 71,
      "hit": false,
      "t": 225599.99999999997,
      "d": 600,
      "v": 110
    },
    {
      "midi": 59,
      "hit": false,
      "t": 225600.00000000006,
      "d": 600,
      "v": 95
    },
    {
      "midi": 72,
      "hit": false,
      "t": 226199.99999999997,
      "d": 600,
      "v": 110
    },
    {
      "midi": 56,
      "hit": false,
      "t": 226200.00000000006,
      "d": 600,
      "v": 95
    },
    {
      "midi": 74,
      "hit": false,
      "t": 226799.99999999997,
      "d": 400,
      "v": 110
    },
    {
      "midi": 52,
      "hit": false,
      "t": 226800.00000000006,
      "d": 400,
      "v": 95
    },
    {
      "midi": 76,
      "hit": false,
      "t": 227199.99999999997,
      "d": 1600,
      "v": 110
    },
    {
      "midi": 41,
      "hit": false,
      "t": 227200.00000000006,
      "d": 400,
      "v": 95
    },
    {
      "midi": 48,
      "hit": false,
      "t": 227600.00000000006,
      "d": 400,
      "v": 95
    },
    {
      "midi": 53,
      "hit": false,
      "t": 228000.00000000006,
      "d": 400,
      "v": 95
    },
    {
      "midi": 57,
      "hit": false,
      "t": 228400.00000000006,
      "d": 400,
      "v": 95
    },
    {
      "midi": 81,
      "hit": false,
      "t": 228799.99999999997,
      "d": 1600,
      "v": 110
    },
    {
      "midi": 60,
      "hit": false,
      "t": 228800.00000000006,
      "d": 800,
      "v": 95
    },
    {
      "midi": 57,
      "hit": false,
      "t": 229600.00000000006,
      "d": 800,
      "v": 95
    },
    {
      "midi": 79,
      "hit": false,
      "t": 230399.99999999997,
      "d": 1600,
      "v": 110
    },
    {
      "midi": 43,
      "hit": false,
      "t": 230400.00000000006,
      "d": 400,
      "v": 95
    },
    {
      "midi": 50,
      "hit": false,
      "t": 230800.00000000006,
      "d": 400,
      "v": 95
    },
    {
      "midi": 55,
      "hit": false,
      "t": 231200.00000000006,
      "d": 400,
      "v": 95
    },
    {
      "midi": 59,
      "hit": false,
      "t": 231600.00000000006,
      "d": 400,
      "v": 95
    },
    {
      "midi": 69,
      "hit": false,
      "t": 231999.99999999997,
      "d": 600,
      "v": 110
    },
    {
      "midi": 62,
      "hit": false,
      "t": 232000.00000000006,
      "d": 600,
      "v": 95
    },
    {
      "midi": 71,
      "hit": false,
      "t": 232599.99999999997,
      "d": 600,
      "v": 110
    },
    {
      "midi": 59,
      "hit": false,
      "t": 232600.00000000006,
      "d": 600,
      "v": 95
    },
    {
      "midi": 72,
      "hit": false,
      "t": 233199.99999999997,
      "d": 400,
      "v": 110
    },
    {
      "midi": 55,
      "hit": false,
      "t": 233200.00000000006,
      "d": 400,
      "v": 95
    },
    {
      "midi": 72,
      "hit": false,
      "t": 233599.99999999997,
      "d": 1200,
      "v": 110
    },
    {
      "midi": 41,
      "hit": false,
      "t": 233600.00000000006,
      "d": 400,
      "v": 95
    },
    {
      "midi": 48,
      "hit": false,
      "t": 234000.00000000006,
      "d": 400,
      "v": 95
    },
    {
      "midi": 53,
      "hit": false,
      "t": 234400.00000000006,
      "d": 400,
      "v": 95
    },
    {
      "midi": 65,
      "hit": false,
      "t": 234799.99999999997,
      "d": 400,
      "v": 110
    },
    {
      "midi": 57,
      "hit": false,
      "t": 234800.00000000006,
      "d": 400,
      "v": 95
    },
    {
      "midi": 65,
      "hit": false,
      "t": 235199.99999999997,
      "d": 800,
      "v": 110
    },
    {
      "midi": 60,
      "hit": false,
      "t": 235200.00000000006,
      "d": 800,
      "v": 95
    },
    {
      "midi": 76,
      "hit": false,
      "t": 235999.99999999997,
      "d": 400,
      "v": 110
    },
    {
      "midi": 57,
      "hit": false,
      "t": 236000.00000000006,
      "d": 800,
      "v": 95
    },
    {
      "midi": 74,
      "hit": false,
      "t": 236399.99999999997,
      "d": 2400,
      "v": 110
    },
    {
      "midi": 43,
      "hit": false,
      "t": 236800.00000000006,
      "d": 400,
      "v": 95
    },
    {
      "midi": 50,
      "hit": false,
      "t": 237200.00000000006,
      "d": 400,
      "v": 95
    },
    {
      "midi": 55,
      "hit": false,
      "t": 237600.00000000006,
      "d": 400,
      "v": 95
    },
    {
      "midi": 59,
      "hit": false,
      "t": 238000.00000000006,
      "d": 400,
      "v": 95
    },
    {
      "midi": 62,
      "hit": false,
      "t": 238400.00000000006,
      "d": 800,
      "v": 95
    },
    {
      "midi": 72,
      "hit": false,
      "t": 238799.99999999997,
      "d": 400,
      "v": 110
    },
    {
      "midi": 71,
      "hit": false,
      "t": 239199.99999999997,
      "d": 400,
      "v": 110
    },
    {
      "midi": 59,
      "hit": false,
      "t": 239200.00000000006,
      "d": 800,
      "v": 95
    },
    {
      "midi": 72,
      "hit": false,
      "t": 239599.99999999997,
      "d": 400,
      "v": 110
    },
    {
      "midi": 74,
      "hit": false,
      "t": 239999.99999999997,
      "d": 800,
      "v": 110
    },
    {
      "midi": 40,
      "hit": false,
      "t": 240000.00000000006,
      "d": 400,
      "v": 95
    },
    {
      "midi": 47,
      "hit": false,
      "t": 240400.00000000006,
      "d": 400,
      "v": 95
    },
    {
      "midi": 67,
      "hit": false,
      "t": 240799.99999999997,
      "d": 800,
      "v": 110
    },
    {
      "midi": 52,
      "hit": false,
      "t": 240800.00000000006,
      "d": 400,
      "v": 95
    },
    {
      "midi": 55,
      "hit": false,
      "t": 241200.00000000006,
      "d": 400,
      "v": 95
    },
    {
      "midi": 67,
      "hit": false,
      "t": 241599.99999999997,
      "d": 400,
      "v": 110
    },
    {
      "midi": 59,
      "hit": false,
      "t": 241600.00000000006,
      "d": 800,
      "v": 95
    },
    {
      "midi": 77,
      "hit": false,
      "t": 241999.99999999997,
      "d": 800,
      "v": 110
    },
    {
      "midi": 55,
      "hit": false,
      "t": 242400.00000000006,
      "d": 800,
      "v": 95
    },
    {
      "midi": 76,
      "hit": false,
      "t": 242799.99999999997,
      "d": 2400,
      "v": 110
    },
    {
      "midi": 41,
      "hit": false,
      "t": 243200.00000000006,
      "d": 400,
      "v": 95
    },
    {
      "midi": 48,
      "hit": false,
      "t": 243600.00000000006,
      "d": 400,
      "v": 95
    },
    {
      "midi": 53,
      "hit": false,
      "t": 244000.00000000006,
      "d": 400,
      "v": 95
    },
    {
      "midi": 57,
      "hit": false,
      "t": 244400.00000000006,
      "d": 400,
      "v": 95
    },
    {
      "midi": 60,
      "hit": false,
      "t": 244800.00000000006,
      "d": 400,
      "v": 95
    },
    {
      "midi": 74,
      "hit": false,
      "t": 245199.99999999997,
      "d": 400,
      "v": 110
    },
    {
      "midi": 57,
      "hit": false,
      "t": 245200.00000000006,
      "d": 400,
      "v": 95
    },
    {
      "midi": 72,
      "hit": false,
      "t": 245599.99999999997,
      "d": 400,
      "v": 110
    },
    {
      "midi": 53,
      "hit": false,
      "t": 245600.00000000006,
      "d": 800,
      "v": 95
    },
    {
      "midi": 74,
      "hit": false,
      "t": 245999.99999999997,
      "d": 400,
      "v": 110
    },
    {
      "midi": 69,
      "hit": false,
      "t": 246399.99999999997,
      "d": 1500,
      "v": 110
    },
    {
      "midi": 38,
      "hit": false,
      "t": 246400.00000000006,
      "d": 400,
      "v": 95
    },
    {
      "midi": 45,
      "hit": false,
      "t": 246800.00000000006,
      "d": 400,
      "v": 95
    },
    {
      "midi": 50,
      "hit": false,
      "t": 247200.00000000006,
      "d": 400,
      "v": 95
    },
    {
      "midi": 53,
      "hit": false,
      "t": 247600.00000000006,
      "d": 400,
      "v": 95
    },
    {
      "midi": 69,
      "hit": false,
      "t": 247899.99999999997,
      "d": 46.666666666656965,
      "v": 100
    },
    {
      "midi": 72,
      "hit": false,
      "t": 247946.66666666663,
      "d": 46.666666666656965,
      "v": 100
    },
    {
      "midi": 76,
      "hit": false,
      "t": 247993.33333333328,
      "d": 1600,
      "v": 110
    },
    {
      "midi": 57,
      "hit": false,
      "t": 248000.00000000006,
      "d": 800,
      "v": 95
    },
    {
      "midi": 53,
      "hit": false,
      "t": 248800.00000000006,
      "d": 800,
      "v": 95
    },
    {
      "midi": 71,
      "hit": false,
      "t": 249599.99999999994,
      "d": 1600,
      "v": 110
    },
    {
      "midi": 40,
      "hit": false,
      "t": 249600.00000000006,
      "d": 400,
      "v": 95
    },
    {
      "midi": 47,
      "hit": false,
      "t": 250000.00000000006,
      "d": 400,
      "v": 95
    },
    {
      "midi": 52,
      "hit": false,
      "t": 250400.00000000006,
      "d": 400,
      "v": 95
    },
    {
      "midi": 55,
      "hit": false,
      "t": 250800.00000000006,
      "d": 400,
      "v": 95
    },
    {
      "midi": 64,
      "hit": false,
      "t": 251199.99999999994,
      "d": 600,
      "v": 110
    },
    {
      "midi": 59,
      "hit": false,
      "t": 251200.00000000006,
      "d": 600,
      "v": 95
    },
    {
      "midi": 67,
      "hit": false,
      "t": 251799.99999999994,
      "d": 600,
      "v": 110
    },
    {
      "midi": 55,
      "hit": false,
      "t": 251800.00000000006,
      "d": 1000,
      "v": 95
    },
    {
      "midi": 69,
      "hit": false,
      "t": 252399.99999999994,
      "d": 266.66666666665697,
      "v": 110
    },
    {
      "midi": 61,
      "hit": false,
      "t": 252666.6666666666,
      "d": 66.66666666665697,
      "v": 100
    },
    {
      "midi": 64,
      "hit": false,
      "t": 252733.33333333326,
      "d": 66.66666666665697,
      "v": 100
    },
    {
      "midi": 69,
      "hit": false,
      "t": 252799.9999999999,
      "d": 3200,
      "v": 110
    },
    {
      "midi": 45,
      "hit": false,
      "t": 252800.00000000006,
      "d": 400,
      "v": 95
    },
    {
      "midi": 52,
      "hit": false,
      "t": 253200.00000000006,
      "d": 400,
      "v": 95
    },
    {
      "midi": 57,
      "hit": false,
      "t": 253600.00000000006,
      "d": 400,
      "v": 95
    },
    {
      "midi": 61,
      "hit": false,
      "t": 254000.00000000006,
      "d": 400,
      "v": 95
    },
    {
      "midi": 64,
      "hit": false,
      "t": 254400.00000000006,
      "d": 400,
      "v": 90
    },
    {
      "midi": 69,
      "hit": false,
      "t": 254800.00000000006,
      "d": 400,
      "v": 84
    },
    {
      "midi": 73,
      "hit": false,
      "t": 255200.00000000006,
      "d": 400,
      "v": 78
    },
    {
      "midi": 76,
      "hit": false,
      "t": 255600.00000000006,
      "d": 400,
      "v": 73
    },
    {
      "midi": 81,
      "hit": false,
      "t": 256000.00000000006,
      "d": 400,
      "v": 67
    },
    {
      "midi": 85,
      "hit": false,
      "t": 256400.00000000006,
      "d": 400,
      "v": 61
    },
    {
      "midi": 88,
      "hit": false,
      "t": 256800.00000000006,
      "d": 400,
      "v": 55
    },
    {
      "midi": 93,
      "hit": false,
      "t": 257200.00000000006,
      "d": 5200,
      "v": 55
    }
  ]
}