{
  "jsonPath": "Classical/Ballroom/Billy Vaughn/green-sleeves.json",
  "path": "Classical\\Ballroom\\Billy Vaughn\\Green Sleeves.mid",
  "name": "Green Sleeves",
  "difficulty": "Advanced",
  "bpm": 128,
  "notes": [
    {
      "midi": 70,
      "hit": false,
      "t": 937.5,
      "d": 515.625,
      "v": 95
    },
    {
      "midi": 43,
      "hit": false,
      "t": 937.5,
      "d": 1054.6875,
      "v": 79
    },
    {
      "midi": 55,
      "hit": false,
      "t": 937.5,
      "d": 1085.9375,
      "v": 66
    },
    {
      "midi": 67,
      "hit": false,
      "t": 1171.875,
      "d": 261.71875,
      "v": 79
    },
    {
      "midi": 62,
      "hit": false,
      "t": 1406.25,
      "d": 222.65625,
      "v": 71
    },
    {
      "midi": 70,
      "hit": false,
      "t": 1640.625,
      "d": 468.75,
      "v": 95
    },
    {
      "midi": 67,
      "hit": false,
      "t": 1875,
      "d": 234.375,
      "v": 86
    },
    {
      "midi": 62,
      "hit": false,
      "t": 2109.375,
      "d": 179.6875,
      "v": 75
    },
    {
      "midi": 70,
      "hit": false,
      "t": 2343.75,
      "d": 250,
      "v": 91
    },
    {
      "midi": 67,
      "hit": false,
      "t": 2578.125,
      "d": 195.3125,
      "v": 88
    },
    {
      "midi": 70,
      "hit": false,
      "t": 2812.5,
      "d": 492.1875,
      "v": 95
    },
    {
      "midi": 48,
      "hit": false,
      "t": 2812.5,
      "d": 1390.625,
      "v": 91
    },
    {
      "midi": 67,
      "hit": false,
      "t": 3046.875,
      "d": 246.09375,
      "v": 91
    },
    {
      "midi": 63,
      "hit": false,
      "t": 3281.25,
      "d": 187.5,
      "v": 63
    },
    {
      "midi": 70,
      "hit": false,
      "t": 3515.625,
      "d": 488.28125,
      "v": 100
    },
    {
      "midi": 67,
      "hit": false,
      "t": 3750,
      "d": 250,
      "v": 86
    },
    {
      "midi": 63,
      "hit": false,
      "t": 3984.375,
      "d": 203.125,
      "v": 59
    },
    {
      "midi": 60,
      "hit": false,
      "t": 4218.75,
      "d": 74.21875,
      "v": 77
    },
    {
      "midi": 72,
      "hit": false,
      "t": 4218.75,
      "d": 253.90625,
      "v": 81
    },
    {
      "midi": 67,
      "hit": false,
      "t": 4453.125,
      "d": 187.5,
      "v": 79
    },
    {
      "midi": 69,
      "hit": false,
      "t": 4687.5,
      "d": 519.53125,
      "v": 101
    },
    {
      "midi": 41,
      "hit": false,
      "t": 4687.5,
      "d": 1386.71875,
      "v": 94
    },
    {
      "midi": 65,
      "hit": false,
      "t": 4921.875,
      "d": 296.875,
      "v": 83
    },
    {
      "midi": 60,
      "hit": false,
      "t": 5156.25,
      "d": 160.15625,
      "v": 77
    },
    {
      "midi": 69,
      "hit": false,
      "t": 5390.625,
      "d": 414.0625,
      "v": 104
    },
    {
      "midi": 65,
      "hit": false,
      "t": 5625,
      "d": 250,
      "v": 88
    },
    {
      "midi": 60,
      "hit": false,
      "t": 5859.375,
      "d": 257.8125,
      "v": 70
    },
    {
      "midi": 53,
      "hit": false,
      "t": 6093.75,
      "d": 105.46875,
      "v": 71
    },
    {
      "midi": 69,
      "hit": false,
      "t": 6093.75,
      "d": 253.90625,
      "v": 77
    },
    {
      "midi": 65,
      "hit": false,
      "t": 6328.125,
      "d": 195.3125,
      "v": 68
    },
    {
      "midi": 69,
      "hit": false,
      "t": 6562.5,
      "d": 441.40625,
      "v": 79
    },
    {
      "midi": 38,
      "hit": false,
      "t": 6562.5,
      "d": 1382.8125,
      "v": 91
    },
    {
      "midi": 65,
      "hit": false,
      "t": 6796.875,
      "d": 269.53125,
      "v": 70
    },
    {
      "midi": 62,
      "hit": false,
      "t": 7031.25,
      "d": 187.5,
      "v": 75
    },
    {
      "midi": 69,
      "hit": false,
      "t": 7265.625,
      "d": 253.90625,
      "v": 101
    },
    {
      "midi": 65,
      "hit": false,
      "t": 7500,
      "d": 277.34375,
      "v": 81
    },
    {
      "midi": 50,
      "hit": false,
      "t": 7500,
      "d": 546.875,
      "v": 66
    },
    {
      "midi": 62,
      "hit": false,
      "t": 7734.375,
      "d": 246.09375,
      "v": 77
    },
    {
      "midi": 70,
      "hit": false,
      "t": 7968.75,
      "d": 207.03125,
      "v": 95
    },
    {
      "midi": 62,
      "hit": false,
      "t": 8203.125,
      "d": 179.6875,
      "v": 68
    },
    {
      "midi": 67,
      "hit": false,
      "t": 8437.5,
      "d": 500,
      "v": 83
    },
    {
      "midi": 39,
      "hit": false,
      "t": 8437.5,
      "d": 1421.875,
      "v": 73
    },
    {
      "midi": 62,
      "hit": false,
      "t": 8671.875,
      "d": 242.1875,
      "v": 62
    },
    {
      "midi": 58,
      "hit": false,
      "t": 8906.25,
      "d": 214.84375,
      "v": 67
    },
    {
      "midi": 67,
      "hit": false,
      "t": 9140.625,
      "d": 449.21875,
      "v": 101
    },
    {
      "midi": 62,
      "hit": false,
      "t": 9375,
      "d": 250,
      "v": 97
    },
    {
      "midi": 58,
      "hit": false,
      "t": 9609.375,
      "d": 195.3125,
      "v": 68
    },
    {
      "midi": 51,
      "hit": false,
      "t": 9843.75,
      "d": 97.65625,
      "v": 65
    },
    {
      "midi": 67,
      "hit": false,
      "t": 9843.75,
      "d": 234.375,
      "v": 108
    },
    {
      "midi": 62,
      "hit": false,
      "t": 10078.125,
      "d": 160.15625,
      "v": 91
    },
    {
      "midi": 67,
      "hit": false,
      "t": 10312.5,
      "d": 527.34375,
      "v": 75
    },
    {
      "midi": 45,
      "hit": false,
      "t": 10312.5,
      "d": 1398.4375,
      "v": 91
    },
    {
      "midi": 61,
      "hit": false,
      "t": 10546.875,
      "d": 304.6875,
      "v": 59
    },
    {
      "midi": 55,
      "hit": false,
      "t": 10781.25,
      "d": 191.40625,
      "v": 77
    },
    {
      "midi": 67,
      "hit": false,
      "t": 11015.625,
      "d": 441.40625,
      "v": 104
    },
    {
      "midi": 61,
      "hit": false,
      "t": 11250,
      "d": 234.375,
      "v": 57
    },
    {
      "midi": 55,
      "hit": false,
      "t": 11484.375,
      "d": 226.5625,
      "v": 70
    },
    {
      "midi": 69,
      "hit": false,
      "t": 11718.75,
      "d": 238.28125,
      "v": 70
    },
    {
      "midi": 55,
      "hit": false,
      "t": 11953.125,
      "d": 218.75,
      "v": 57
    },
    {
      "midi": 66,
      "hit": false,
      "t": 12187.5,
      "d": 746.09375,
      "v": 73
    },
    {
      "midi": 50,
      "hit": false,
      "t": 12187.5,
      "d": 2902.34375,
      "v": 88
    },
    {
      "midi": 62,
      "hit": false,
      "t": 12421.875,
      "d": 246.09375,
      "v": 83
    },
    {
      "midi": 57,
      "hit": false,
      "t": 12656.25,
      "d": 324.21875,
      "v": 73
    },
    {
      "midi": 62,
      "hit": false,
      "t": 12890.625,
      "d": 179.6875,
      "v": 75
    },
    {
      "midi": 67,
      "hit": false,
      "t": 13125,
      "d": 523.4375,
      "v": 108
    },
    {
      "midi": 62,
      "hit": false,
      "t": 13359.375,
      "d": 218.75,
      "v": 79
    },
    {
      "midi": 57,
      "hit": false,
      "t": 13593.75,
      "d": 296.875,
      "v": 61
    },
    {
      "midi": 62,
      "hit": false,
      "t": 13828.125,
      "d": 273.4375,
      "v": 91
    },
    {
      "midi": 69,
      "hit": false,
      "t": 14062.5,
      "d": 535.15625,
      "v": 97
    },
    {
      "midi": 38,
      "hit": false,
      "t": 14062.5,
      "d": 812.5,
      "v": 86
    },
    {
      "midi": 57,
      "hit": false,
      "t": 14296.875,
      "d": 308.59375,
      "v": 75
    },
    {
      "midi": 66,
      "hit": false,
      "t": 14531.25,
      "d": 300.78125,
      "v": 104
    },
    {
      "midi": 57,
      "hit": false,
      "t": 14765.625,
      "d": 250,
      "v": 71
    },
    {
      "midi": 67,
      "hit": false,
      "t": 15000,
      "d": 253.90625,
      "v": 113
    },
    {
      "midi": 57,
      "hit": false,
      "t": 15234.375,
      "d": 195.3125,
      "v": 68
    },
    {
      "midi": 69,
      "hit": false,
      "t": 15468.75,
      "d": 175.78125,
      "v": 88
    },
    {
      "midi": 57,
      "hit": false,
      "t": 15703.125,
      "d": 89.84375,
      "v": 59
    },
    {
      "midi": 74,
      "hit": false,
      "t": 15937.5,
      "d": 480.46875,
      "v": 101
    },
    {
      "midi": 43,
      "hit": false,
      "t": 15937.5,
      "d": 1234.375,
      "v": 91
    },
    {
      "midi": 70,
      "hit": false,
      "t": 16171.875,
      "d": 296.875,
      "v": 73
    },
    {
      "midi": 67,
      "hit": false,
      "t": 16406.25,
      "d": 207.03125,
      "v": 86
    },
    {
      "midi": 74,
      "hit": false,
      "t": 16640.625,
      "d": 285.15625,
      "v": 113
    },
    {
      "midi": 70,
      "hit": false,
      "t": 16875,
      "d": 250,
      "v": 73
    },
    {
      "midi": 67,
      "hit": false,
      "t": 17109.375,
      "d": 179.6875,
      "v": 81
    },
    {
      "midi": 74,
      "hit": false,
      "t": 17343.75,
      "d": 117.1875,
      "v": 94
    },
    {
      "midi": 70,
      "hit": false,
      "t": 17460.9375,
      "d": 171.875,
      "v": 73
    },
    {
      "midi": 67,
      "hit": false,
      "t": 17578.125,
      "d": 156.25,
      "v": 86
    },
    {
      "midi": 74,
      "hit": false,
      "t": 17812.5,
      "d": 433.59375,
      "v": 104
    },
    {
      "midi": 48,
      "hit": false,
      "t": 17812.5,
      "d": 1390.625,
      "v": 83
    },
    {
      "midi": 70,
      "hit": false,
      "t": 18046.875,
      "d": 304.6875,
      "v": 61
    },
    {
      "midi": 67,
      "hit": false,
      "t": 18281.25,
      "d": 171.875,
      "v": 73
    },
    {
      "midi": 74,
      "hit": false,
      "t": 18515.625,
      "d": 214.84375,
      "v": 104
    },
    {
      "midi": 70,
      "hit": false,
      "t": 18750,
      "d": 277.34375,
      "v": 63
    },
    {
      "midi": 67,
      "hit": false,
      "t": 18984.375,
      "d": 175.78125,
      "v": 81
    },
    {
      "midi": 60,
      "hit": false,
      "t": 19218.75,
      "d": 78.125,
      "v": 83
    },
    {
      "midi": 75,
      "hit": false,
      "t": 19218.75,
      "d": 195.3125,
      "v": 73
    },
    {
      "midi": 70,
      "hit": false,
      "t": 19453.125,
      "d": 238.28125,
      "v": 73
    },
    {
      "midi": 72,
      "hit": false,
      "t": 19687.5,
      "d": 546.875,
      "v": 91
    },
    {
      "midi": 41,
      "hit": false,
      "t": 19687.5,
      "d": 1386.71875,
      "v": 88
    },
    {
      "midi": 69,
      "hit": false,
      "t": 19921.875,
      "d": 335.9375,
      "v": 83
    },
    {
      "midi": 65,
      "hit": false,
      "t": 20156.25,
      "d": 187.5,
      "v": 75
    },
    {
      "midi": 72,
      "hit": false,
      "t": 20390.625,
      "d": 382.8125,
      "v": 104
    },
    {
      "midi": 69,
      "hit": false,
      "t": 20625,
      "d": 265.625,
      "v": 83
    },
    {
      "midi": 65,
      "hit": false,
      "t": 20859.375,
      "d": 156.25,
      "v": 70
    },
    {
      "midi": 53,
      "hit": false,
      "t": 21093.75,
      "d": 74.21875,
      "v": 77
    },
    {
      "midi": 72,
      "hit": false,
      "t": 21093.75,
      "d": 140.625,
      "v": 97
    },
    {
      "midi": 69,
      "hit": false,
      "t": 21210.9375,
      "d": 199.21875,
      "v": 70
    },
    {
      "midi": 65,
      "hit": false,
      "t": 21328.125,
      "d": 234.375,
      "v": 77
    },
    {
      "midi": 72,
      "hit": false,
      "t": 21562.5,
      "d": 441.40625,
      "v": 83
    },
    {
      "midi": 38,
      "hit": false,
      "t": 21562.5,
      "d": 1410.15625,
      "v": 88
    },
    {
      "midi": 69,
      "hit": false,
      "t": 21796.875,
      "d": 289.0625,
      "v": 67
    },
    {
      "midi": 65,
      "hit": false,
      "t": 22031.25,
      "d": 187.5,
      "v": 70
    },
    {
      "midi": 72,
      "hit": false,
      "t": 22265.625,
      "d": 433.59375,
      "v": 97
    },
    {
      "midi": 69,
      "hit": false,
      "t": 22500,
      "d": 335.9375,
      "v": 79
    },
    {
      "midi": 65,
      "hit": false,
      "t": 22734.375,
      "d": 179.6875,
      "v": 68
    },
    {
      "midi": 50,
      "hit": false,
      "t": 22968.75,
      "d": 144.53125,
      "v": 61
    },
    {
      "midi": 74,
      "hit": false,
      "t": 22968.75,
      "d": 203.125,
      "v": 73
    },
    {
      "midi": 65,
      "hit": false,
      "t": 23203.125,
      "d": 203.125,
      "v": 56
    },
    {
      "midi": 70,
      "hit": false,
      "t": 23437.5,
      "d": 464.84375,
      "v": 71
    },
    {
      "midi": 39,
      "hit": false,
      "t": 23437.5,
      "d": 1347.65625,
      "v": 76
    },
    {
      "midi": 67,
      "hit": false,
      "t": 23671.875,
      "d": 261.71875,
      "v": 71
    },
    {
      "midi": 62,
      "hit": false,
      "t": 23906.25,
      "d": 214.84375,
      "v": 79
    },
    {
      "midi": 70,
      "hit": false,
      "t": 24140.625,
      "d": 296.875,
      "v": 104
    },
    {
      "midi": 67,
      "hit": false,
      "t": 24375,
      "d": 226.5625,
      "v": 77
    },
    {
      "midi": 62,
      "hit": false,
      "t": 24609.375,
      "d": 210.9375,
      "v": 79
    },
    {
      "midi": 51,
      "hit": false,
      "t": 24843.75,
      "d": 70.3125,
      "v": 71
    },
    {
      "midi": 70,
      "hit": false,
      "t": 24843.75,
      "d": 265.625,
      "v": 71
    },
    {
      "midi": 67,
      "hit": false,
      "t": 25078.125,
      "d": 171.875,
      "v": 86
    },
    {
      "midi": 70,
      "hit": false,
      "t": 25312.5,
      "d": 488.28125,
      "v": 95
    },
    {
      "midi": 45,
      "hit": false,
      "t": 25312.5,
      "d": 867.1875,
      "v": 91
    },
    {
      "midi": 61,
      "hit": false,
      "t": 25546.875,
      "d": 187.5,
      "v": 63
    },
    {
      "midi": 69,
      "hit": false,
      "t": 25781.25,
      "d": 453.125,
      "v": 94
    },
    {
      "midi": 57,
      "hit": false,
      "t": 26015.625,
      "d": 132.8125,
      "v": 75
    },
    {
      "midi": 61,
      "hit": false,
      "t": 26015.625,
      "d": 179.6875,
      "v": 59
    },
    {
      "midi": 60,
      "hit": false,
      "t": 26250,
      "d": 355.46875,
      "v": 86
    },
    {
      "midi": 50,
      "hit": false,
      "t": 26250,
      "d": 566.40625,
      "v": 97
    },
    {
      "midi": 67,
      "hit": false,
      "t": 26484.375,
      "d": 242.1875,
      "v": 86
    },
    {
      "midi": 66,
      "hit": false,
      "t": 26718.75,
      "d": 445.3125,
      "v": 76
    },
    {
      "midi": 60,
      "hit": false,
      "t": 26953.125,
      "d": 136.71875,
      "v": 68
    },
    {
      "midi": 43,
      "hit": false,
      "t": 27187.5,
      "d": 425.78125,
      "v": 77
    },
    {
      "midi": 67,
      "hit": false,
      "t": 27187.5,
      "d": 554.6875,
      "v": 81
    },
    {
      "midi": 62,
      "hit": false,
      "t": 27421.875,
      "d": 203.125,
      "v": 62
    },
    {
      "midi": 58,
      "hit": false,
      "t": 27656.25,
      "d": 250,
      "v": 36
    },
    {
      "midi": 62,
      "hit": false,
      "t": 27890.625,
      "d": 136.71875,
      "v": 81
    },
    {
      "midi": 50,
      "hit": false,
      "t": 28125,
      "d": 175.78125,
      "v": 71
    },
    {
      "midi": 67,
      "hit": false,
      "t": 28125,
      "d": 546.875,
      "v": 79
    },
    {
      "midi": 62,
      "hit": false,
      "t": 28359.375,
      "d": 179.6875,
      "v": 77
    },
    {
      "midi": 58,
      "hit": false,
      "t": 28593.75,
      "d": 296.875,
      "v": 46
    },
    {
      "midi": 62,
      "hit": false,
      "t": 28828.125,
      "d": 156.25,
      "v": 71
    },
    {
      "midi": 46,
      "hit": false,
      "t": 29062.5,
      "d": 207.03125,
      "v": 49
    },
    {
      "midi": 67,
      "hit": false,
      "t": 29062.5,
      "d": 511.71875,
      "v": 73
    },
    {
      "midi": 62,
      "hit": false,
      "t": 29296.875,
      "d": 152.34375,
      "v": 79
    },
    {
      "midi": 58,
      "hit": false,
      "t": 29531.25,
      "d": 445.3125,
      "v": 49
    },
    {
      "midi": 62,
      "hit": false,
      "t": 29765.625,
      "d": 148.4375,
      "v": 58
    },
    {
      "midi": 43,
      "hit": false,
      "t": 30000,
      "d": 285.15625,
      "v": 53
    },
    {
      "midi": 67,
      "hit": false,
      "t": 30000,
      "d": 593.75,
      "v": 66
    },
    {
      "midi": 62,
      "hit": false,
      "t": 30234.375,
      "d": 140.625,
      "v": 63
    },
    {
      "midi": 58,
      "hit": false,
      "t": 30468.75,
      "d": 308.59375,
      "v": 37
    },
    {
      "midi": 62,
      "hit": false,
      "t": 30703.125,
      "d": 101.5625,
      "v": 66
    },
    {
      "midi": 43,
      "hit": false,
      "t": 30937.5,
      "d": 199.21875,
      "v": 60
    },
    {
      "midi": 74,
      "hit": false,
      "t": 30937.5,
      "d": 210.9375,
      "v": 59
    },
    {
      "midi": 55,
      "hit": false,
      "t": 31406.25,
      "d": 50.78125,
      "v": 73
    },
    {
      "midi": 62,
      "hit": false,
      "t": 31640.625,
      "d": 222.65625,
      "v": 77
    },
    {
      "midi": 67,
      "hit": false,
      "t": 31875,
      "d": 218.75,
      "v": 97
    },
    {
      "midi": 69,
      "hit": false,
      "t": 32109.375,
      "d": 214.84375,
      "v": 101
    },
    {
      "midi": 70,
      "hit": false,
      "t": 32343.75,
      "d": 226.5625,
      "v": 91
    },
    {
      "midi": 58,
      "hit": false,
      "t": 32578.125,
      "d": 58.59375,
      "v": 71
    },
    {
      "midi": 67,
      "hit": false,
      "t": 32578.125,
      "d": 128.90625,
      "v": 97
    },
    {
      "midi": 75,
      "hit": false,
      "t": 32812.5,
      "d": 644.53125,
      "v": 65
    },
    {
      "midi": 48,
      "hit": false,
      "t": 32812.5,
      "d": 1593.75,
      "v": 70
    },
    {
      "midi": 55,
      "hit": false,
      "t": 33046.875,
      "d": 1160.15625,
      "v": 66
    },
    {
      "midi": 60,
      "hit": false,
      "t": 33281.25,
      "d": 734.375,
      "v": 79
    },
    {
      "midi": 63,
      "hit": false,
      "t": 33515.625,
      "d": 187.5,
      "v": 68
    },
    {
      "midi": 74,
      "hit": false,
      "t": 33750,
      "d": 207.03125,
      "v": 108
    },
    {
      "midi": 72,
      "hit": false,
      "t": 33984.375,
      "d": 187.5,
      "v": 101
    },
    {
      "midi": 70,
      "hit": false,
      "t": 34218.75,
      "d": 410.15625,
      "v": 87
    },
    {
      "midi": 55,
      "hit": false,
      "t": 34453.125,
      "d": 70.3125,
      "v": 81
    },
    {
      "midi": 72,
      "hit": false,
      "t": 34687.5,
      "d": 679.6875,
      "v": 71
    },
    {
      "midi": 53,
      "hit": false,
      "t": 34687.5,
      "d": 722.65625,
      "v": 83
    },
    {
      "midi": 57,
      "hit": false,
      "t": 34921.875,
      "d": 742.1875,
      "v": 59
    },
    {
      "midi": 60,
      "hit": false,
      "t": 35156.25,
      "d": 484.375,
      "v": 71
    },
    {
      "midi": 65,
      "hit": false,
      "t": 35390.625,
      "d": 269.53125,
      "v": 97
    },
    {
      "midi": 67,
      "hit": false,
      "t": 35625,
      "d": 265.625,
      "v": 101
    },
    {
      "midi": 69,
      "hit": false,
      "t": 35859.375,
      "d": 203.125,
      "v": 97
    },
    {
      "midi": 72,
      "hit": false,
      "t": 36093.75,
      "d": 183.59375,
      "v": 101
    },
    {
      "midi": 72,
      "hit": false,
      "t": 36328.125,
      "d": 578.125,
      "v": 94
    },
    {
      "midi": 46,
      "hit": false,
      "t": 36562.5,
      "d": 1554.6875,
      "v": 61
    },
    {
      "midi": 53,
      "hit": false,
      "t": 36796.875,
      "d": 1074.21875,
      "v": 88
    },
    {
      "midi": 58,
      "hit": false,
      "t": 37031.25,
      "d": 644.53125,
      "v": 71
    },
    {
      "midi": 62,
      "hit": false,
      "t": 37265.625,
      "d": 578.125,
      "v": 79
    },
    {
      "midi": 74,
      "hit": false,
      "t": 37500,
      "d": 156.25,
      "v": 108
    },
    {
      "midi": 72,
      "hit": false,
      "t": 37734.375,
      "d": 179.6875,
      "v": 81
    },
    {
      "midi": 70,
      "hit": false,
      "t": 37968.75,
      "d": 441.40625,
      "v": 80
    },
    {
      "midi": 67,
      "hit": false,
      "t": 38437.5,
      "d": 324.21875,
      "v": 73
    },
    {
      "midi": 51,
      "hit": false,
      "t": 38437.5,
      "d": 578.125,
      "v": 80
    },
    {
      "midi": 55,
      "hit": false,
      "t": 38671.875,
      "d": 1347.65625,
      "v": 67
    },
    {
      "midi": 58,
      "hit": false,
      "t": 38906.25,
      "d": 257.8125,
      "v": 80
    },
    {
      "midi": 62,
      "hit": false,
      "t": 39140.625,
      "d": 179.6875,
      "v": 94
    },
    {
      "midi": 67,
      "hit": false,
      "t": 39375,
      "d": 789.0625,
      "v": 113
    },
    {
      "midi": 62,
      "hit": false,
      "t": 39609.375,
      "d": 246.09375,
      "v": 101
    },
    {
      "midi": 58,
      "hit": false,
      "t": 39843.75,
      "d": 292.96875,
      "v": 76
    },
    {
      "midi": 51,
      "hit": false,
      "t": 40078.125,
      "d": 101.5625,
      "v": 76
    },
    {
      "midi": 67,
      "hit": false,
      "t": 40312.5,
      "d": 1007.8125,
      "v": 77
    },
    {
      "midi": 45,
      "hit": false,
      "t": 40312.5,
      "d": 1554.6875,
      "v": 88
    },
    {
      "midi": 52,
      "hit": false,
      "t": 40781.25,
      "d": 652.34375,
      "v": 53
    },
    {
      "midi": 55,
      "hit": false,
      "t": 41015.625,
      "d": 367.1875,
      "v": 73
    },
    {
      "midi": 61,
      "hit": false,
      "t": 41250,
      "d": 281.25,
      "v": 73
    },
    {
      "midi": 67,
      "hit": false,
      "t": 41484.375,
      "d": 609.375,
      "v": 104
    },
    {
      "midi": 52,
      "hit": false,
      "t": 41718.75,
      "d": 390.625,
      "v": 56
    },
    {
      "midi": 55,
      "hit": false,
      "t": 41835.9375,
      "d": 195.3125,
      "v": 64
    },
    {
      "midi": 66,
      "hit": false,
      "t": 42187.5,
      "d": 753.90625,
      "v": 71
    },
    {
      "midi": 50,
      "hit": false,
      "t": 42187.5,
      "d": 949.21875,
      "v": 77
    },
    {
      "midi": 54,
      "hit": false,
      "t": 42421.875,
      "d": 640.625,
      "v": 46
    },
    {
      "midi": 57,
      "hit": false,
      "t": 42656.25,
      "d": 453.125,
      "v": 71
    },
    {
      "midi": 62,
      "hit": false,
      "t": 42890.625,
      "d": 183.59375,
      "v": 86
    },
    {
      "midi": 67,
      "hit": false,
      "t": 43125,
      "d": 734.375,
      "v": 97
    },
    {
      "midi": 62,
      "hit": false,
      "t": 43359.375,
      "d": 203.125,
      "v": 79
    },
    {
      "midi": 57,
      "hit": false,
      "t": 43593.75,
      "d": 281.25,
      "v": 73
    },
    {
      "midi": 62,
      "hit": false,
      "t": 43828.125,
      "d": 195.3125,
      "v": 88
    },
    {
      "midi": 45,
      "hit": false,
      "t": 43828.125,
      "d": 234.375,
      "v": 97
    },
    {
      "midi": 38,
      "hit": false,
      "t": 44062.5,
      "d": 97.65625,
      "v": 127
    },
    {
      "midi": 69,
      "hit": false,
      "t": 44062.5,
      "d": 332.03125,
      "v": 97
    },
    {
      "midi": 57,
      "hit": false,
      "t": 44296.875,
      "d": 207.03125,
      "v": 56
    },
    {
      "midi": 66,
      "hit": false,
      "t": 44531.25,
      "d": 242.1875,
      "v": 91
    },
    {
      "midi": 57,
      "hit": false,
      "t": 44765.625,
      "d": 242.1875,
      "v": 68
    },
    {
      "midi": 67,
      "hit": false,
      "t": 45000,
      "d": 343.75,
      "v": 94
    },
    {
      "midi": 57,
      "hit": false,
      "t": 45234.375,
      "d": 234.375,
      "v": 71
    },
    {
      "midi": 69,
      "hit": false,
      "t": 45468.75,
      "d": 214.84375,
      "v": 88
    },
    {
      "midi": 57,
      "hit": false,
      "t": 45703.125,
      "d": 97.65625,
      "v": 63
    },
    {
      "midi": 43,
      "hit": false,
      "t": 45937.5,
      "d": 257.8125,
      "v": 79
    },
    {
      "midi": 74,
      "hit": false,
      "t": 45937.5,
      "d": 562.5,
      "v": 88
    },
    {
      "midi": 50,
      "hit": false,
      "t": 46171.875,
      "d": 101.5625,
      "v": 83
    },
    {
      "midi": 58,
      "hit": false,
      "t": 46406.25,
      "d": 70.3125,
      "v": 73
    },
    {
      "midi": 62,
      "hit": false,
      "t": 46640.625,
      "d": 199.21875,
      "v": 73
    },
    {
      "midi": 67,
      "hit": false,
      "t": 46875,
      "d": 234.375,
      "v": 86
    },
    {
      "midi": 69,
      "hit": false,
      "t": 47109.375,
      "d": 222.65625,
      "v": 108
    },
    {
      "midi": 70,
      "hit": false,
      "t": 47343.75,
      "d": 214.84375,
      "v": 91
    },
    {
      "midi": 67,
      "hit": false,
      "t": 47578.125,
      "d": 199.21875,
      "v": 97
    },
    {
      "midi": 75,
      "hit": false,
      "t": 47812.5,
      "d": 449.21875,
      "v": 87
    },
    {
      "midi": 48,
      "hit": false,
      "t": 47812.5,
      "d": 1578.125,
      "v": 70
    },
    {
      "midi": 63,
      "hit": false,
      "t": 48046.875,
      "d": 371.09375,
      "v": 46
    },
    {
      "midi": 55,
      "hit": false,
      "t": 48046.875,
      "d": 1191.40625,
      "v": 77
    },
    {
      "midi": 62,
      "hit": false,
      "t": 48281.25,
      "d": 460.9375,
      "v": 75
    },
    {
      "midi": 74,
      "hit": false,
      "t": 48515.625,
      "d": 332.03125,
      "v": 104
    },
    {
      "midi": 72,
      "hit": false,
      "t": 48984.375,
      "d": 171.875,
      "v": 113
    },
    {
      "midi": 70,
      "hit": false,
      "t": 49218.75,
      "d": 441.40625,
      "v": 95
    },
    {
      "midi": 60,
      "hit": false,
      "t": 49453.125,
      "d": 74.21875,
      "v": 75
    },
    {
      "midi": 72,
      "hit": false,
      "t": 49687.5,
      "d": 222.65625,
      "v": 94
    },
    {
      "midi": 41,
      "hit": false,
      "t": 49687.5,
      "d": 351.5625,
      "v": 68
    },
    {
      "midi": 48,
      "hit": false,
      "t": 49921.875,
      "d": 230.46875,
      "v": 55
    },
    {
      "midi": 53,
      "hit": false,
      "t": 50156.25,
      "d": 74.21875,
      "v": 91
    },
    {
      "midi": 60,
      "hit": false,
      "t": 50390.625,
      "d": 257.8125,
      "v": 81
    },
    {
      "midi": 63,
      "hit": false,
      "t": 50625,
      "d": 199.21875,
      "v": 95
    },
    {
      "midi": 65,
      "hit": false,
      "t": 50859.375,
      "d": 238.28125,
      "v": 91
    },
    {
      "midi": 69,
      "hit": false,
      "t": 51093.75,
      "d": 148.4375,
      "v": 86
    },
    {
      "midi": 53,
      "hit": false,
      "t": 51328.125,
      "d": 66.40625,
      "v": 83
    },
    {
      "midi": 72,
      "hit": false,
      "t": 51328.125,
      "d": 226.5625,
      "v": 62
    },
    {
      "midi": 46,
      "hit": false,
      "t": 51562.5,
      "d": 492.1875,
      "v": 71
    },
    {
      "midi": 74,
      "hit": false,
      "t": 51562.5,
      "d": 679.6875,
      "v": 83
    },
    {
      "midi": 53,
      "hit": false,
      "t": 51796.875,
      "d": 222.65625,
      "v": 83
    },
    {
      "midi": 58,
      "hit": false,
      "t": 52031.25,
      "d": 648.4375,
      "v": 83
    },
    {
      "midi": 62,
      "hit": false,
      "t": 52265.625,
      "d": 761.71875,
      "v": 88
    },
    {
      "midi": 72,
      "hit": false,
      "t": 52500,
      "d": 203.125,
      "v": 113
    },
    {
      "midi": 70,
      "hit": false,
      "t": 52734.375,
      "d": 476.5625,
      "v": 87
    },
    {
      "midi": 58,
      "hit": false,
      "t": 52968.75,
      "d": 101.5625,
      "v": 49
    },
    {
      "midi": 65,
      "hit": false,
      "t": 53203.125,
      "d": 203.125,
      "v": 73
    },
    {
      "midi": 67,
      "hit": false,
      "t": 53437.5,
      "d": 93.75,
      "v": 64
    },
    {
      "midi": 51,
      "hit": false,
      "t": 53437.5,
      "d": 382.8125,
      "v": 68
    },
    {
      "midi": 55,
      "hit": false,
      "t": 53671.875,
      "d": 753.90625,
      "v": 60
    },
    {
      "midi": 58,
      "hit": false,
      "t": 53906.25,
      "d": 273.4375,
      "v": 63
    },
    {
      "midi": 62,
      "hit": false,
      "t": 54140.625,
      "d": 199.21875,
      "v": 94
    },
    {
      "midi": 67,
      "hit": false,
      "t": 54375,
      "d": 761.71875,
      "v": 113
    },
    {
      "midi": 58,
      "hit": false,
      "t": 54609.375,
      "d": 351.5625,
      "v": 73
    },
    {
      "midi": 51,
      "hit": false,
      "t": 54843.75,
      "d": 66.40625,
      "v": 76
    },
    {
      "midi": 61,
      "hit": false,
      "t": 55078.125,
      "d": 175.78125,
      "v": 57
    },
    {
      "midi": 45,
      "hit": false,
      "t": 55312.5,
      "d": 609.375,
      "v": 73
    },
    {
      "midi": 67,
      "hit": false,
      "t": 55312.5,
      "d": 839.84375,
      "v": 77
    },
    {
      "midi": 52,
      "hit": false,
      "t": 55546.875,
      "d": 371.09375,
      "v": 64
    },
    {
      "midi": 57,
      "hit": false,
      "t": 55781.25,
      "d": 394.53125,
      "v": 67
    },
    {
      "midi": 61,
      "hit": false,
      "t": 56015.625,
      "d": 175.78125,
      "v": 51
    },
    {
      "midi": 50,
      "hit": false,
      "t": 56250,
      "d": 500,
      "v": 70
    },
    {
      "midi": 66,
      "hit": false,
      "t": 56250,
      "d": 785.15625,
      "v": 71
    },
    {
      "midi": 54,
      "hit": false,
      "t": 56484.375,
      "d": 375,
      "v": 50
    },
    {
      "midi": 57,
      "hit": false,
      "t": 56718.75,
      "d": 269.53125,
      "v": 60
    },
    {
      "midi": 43,
      "hit": false,
      "t": 57187.5,
      "d": 3179.6875,
      "v": 86
    },
    {
      "midi": 50,
      "hit": false,
      "t": 57421.875,
      "d": 3089.84375,
      "v": 71
    },
    {
      "midi": 55,
      "hit": false,
      "t": 57656.25,
      "d": 187.5,
      "v": 71
    },
    {
      "midi": 57,
      "hit": false,
      "t": 57890.625,
      "d": 121.09375,
      "v": 86
    },
    {
      "midi": 58,
      "hit": false,
      "t": 58125,
      "d": 125,
      "v": 76
    },
    {
      "midi": 62,
      "hit": false,
      "t": 58359.375,
      "d": 82.03125,
      "v": 75
    },
    {
      "midi": 67,
      "hit": false,
      "t": 58593.75,
      "d": 121.09375,
      "v": 75
    },
    {
      "midi": 69,
      "hit": false,
      "t": 58828.125,
      "d": 128.90625,
      "v": 59
    },
    {
      "midi": 70,
      "hit": false,
      "t": 59062.5,
      "d": 132.8125,
      "v": 36
    },
    {
      "midi": 74,
      "hit": false,
      "t": 59296.875,
      "d": 152.34375,
      "v": 59
    },
    {
      "midi": 79,
      "hit": false,
      "t": 59531.25,
      "d": 207.03125,
      "v": 68
    },
    {
      "midi": 74,
      "hit": false,
      "t": 59765.625,
      "d": 179.6875,
      "v": 73
    },
    {
      "midi": 70,
      "hit": false,
      "t": 60000,
      "d": 179.6875,
      "v": 71
    },
    {
      "midi": 69,
      "hit": false,
      "t": 60234.375,
      "d": 160.15625,
      "v": 83
    },
    {
      "midi": 67,
      "hit": false,
      "t": 60468.75,
      "d": 144.53125,
      "v": 70
    },
    {
      "midi": 63,
      "hit": false,
      "t": 60703.125,
      "d": 39.0625,
      "v": 57
    },
    {
      "midi": 65,
      "hit": false,
      "t": 60937.5,
      "d": 335.9375,
      "v": 73
    },
    {
      "midi": 41,
      "hit": false,
      "t": 60937.5,
      "d": 453.125,
      "v": 68
    },
    {
      "midi": 48,
      "hit": false,
      "t": 61171.875,
      "d": 226.5625,
      "v": 62
    },
    {
      "midi": 53,
      "hit": false,
      "t": 61406.25,
      "d": 406.25,
      "v": 86
    },
    {
      "midi": 60,
      "hit": false,
      "t": 61640.625,
      "d": 140.625,
      "v": 83
    },
    {
      "midi": 74,
      "hit": false,
      "t": 61875,
      "d": 441.40625,
      "v": 104
    },
    {
      "midi": 43,
      "hit": false,
      "t": 61875,
      "d": 636.71875,
      "v": 104
    },
    {
      "midi": 71,
      "hit": false,
      "t": 62109.375,
      "d": 253.90625,
      "v": 97
    },
    {
      "midi": 50,
      "hit": false,
      "t": 62109.375,
      "d": 363.28125,
      "v": 101
    },
    {
      "midi": 67,
      "hit": false,
      "t": 62343.75,
      "d": 253.90625,
      "v": 97
    },
    {
      "midi": 55,
      "hit": false,
      "t": 62578.125,
      "d": 97.65625,
      "v": 91
    },
    {
      "midi": 74,
      "hit": false,
      "t": 62578.125,
      "d": 128.90625,
      "v": 113
    },
    {
      "midi": 75,
      "hit": false,
      "t": 62812.5,
      "d": 621.09375,
      "v": 95
    },
    {
      "midi": 48,
      "hit": false,
      "t": 62812.5,
      "d": 1535.15625,
      "v": 94
    },
    {
      "midi": 55,
      "hit": false,
      "t": 63046.875,
      "d": 1351.5625,
      "v": 79
    },
    {
      "midi": 62,
      "hit": false,
      "t": 63281.25,
      "d": 648.4375,
      "v": 77
    },
    {
      "midi": 63,
      "hit": false,
      "t": 63515.625,
      "d": 191.40625,
      "v": 63
    },
    {
      "midi": 74,
      "hit": false,
      "t": 63750,
      "d": 226.5625,
      "v": 91
    },
    {
      "midi": 72,
      "hit": false,
      "t": 63984.375,
      "d": 160.15625,
      "v": 122
    },
    {
      "midi": 70,
      "hit": false,
      "t": 64218.75,
      "d": 460.9375,
      "v": 104
    },
    {
      "midi": 60,
      "hit": false,
      "t": 64453.125,
      "d": 144.53125,
      "v": 81
    },
    {
      "midi": 53,
      "hit": false,
      "t": 64687.5,
      "d": 640.625,
      "v": 83
    },
    {
      "midi": 72,
      "hit": false,
      "t": 64687.5,
      "d": 738.28125,
      "v": 83
    },
    {
      "midi": 57,
      "hit": false,
      "t": 64921.875,
      "d": 1343.75,
      "v": 67
    },
    {
      "midi": 60,
      "hit": false,
      "t": 65156.25,
      "d": 285.15625,
      "v": 77
    },
    {
      "midi": 65,
      "hit": false,
      "t": 65390.625,
      "d": 250,
      "v": 113
    },
    {
      "midi": 67,
      "hit": false,
      "t": 65625,
      "d": 253.90625,
      "v": 113
    },
    {
      "midi": 69,
      "hit": false,
      "t": 65859.375,
      "d": 226.5625,
      "v": 86
    },
    {
      "midi": 72,
      "hit": false,
      "t": 66093.75,
      "d": 117.1875,
      "v": 97
    },
    {
      "midi": 53,
      "hit": false,
      "t": 66328.125,
      "d": 66.40625,
      "v": 77
    },
    {
      "midi": 75,
      "hit": false,
      "t": 66562.5,
      "d": 539.0625,
      "v": 104
    },
    {
      "midi": 46,
      "hit": false,
      "t": 66562.5,
      "d": 1320.3125,
      "v": 63
    },
    {
      "midi": 53,
      "hit": false,
      "t": 66796.875,
      "d": 824.21875,
      "v": 81
    },
    {
      "midi": 70,
      "hit": false,
      "t": 67031.25,
      "d": 300.78125,
      "v": 50
    },
    {
      "midi": 58,
      "hit": false,
      "t": 67265.625,
      "d": 390.625,
      "v": 73
    },
    {
      "midi": 77,
      "hit": false,
      "t": 67500,
      "d": 332.03125,
      "v": 97
    },
    {
      "midi": 74,
      "hit": false,
      "t": 67734.375,
      "d": 558.59375,
      "v": 122
    },
    {
      "midi": 58,
      "hit": false,
      "t": 67968.75,
      "d": 167.96875,
      "v": 76
    },
    {
      "midi": 53,
      "hit": false,
      "t": 68203.125,
      "d": 70.3125,
      "v": 86
    },
    {
      "midi": 70,
      "hit": false,
      "t": 68203.125,
      "d": 253.90625,
      "v": 73
    },
    {
      "midi": 72,
      "hit": false,
      "t": 68437.5,
      "d": 257.8125,
      "v": 83
    },
    {
      "midi": 44,
      "hit": false,
      "t": 68437.5,
      "d": 375,
      "v": 71
    },
    {
      "midi": 51,
      "hit": false,
      "t": 68671.875,
      "d": 1390.625,
      "v": 57
    },
    {
      "midi": 58,
      "hit": false,
      "t": 68906.25,
      "d": 1152.34375,
      "v": 59
    },
    {
      "midi": 63,
      "hit": false,
      "t": 69140.625,
      "d": 406.25,
      "v": 63
    },
    {
      "midi": 68,
      "hit": false,
      "t": 69375,
      "d": 269.53125,
      "v": 91
    },
    {
      "midi": 70,
      "hit": false,
      "t": 69609.375,
      "d": 253.90625,
      "v": 83
    },
    {
      "midi": 72,
      "hit": false,
      "t": 69843.75,
      "d": 218.75,
      "v": 88
    },
    {
      "midi": 75,
      "hit": false,
      "t": 70078.125,
      "d": 160.15625,
      "v": 87
    },
    {
      "midi": 75,
      "hit": false,
      "t": 70312.5,
      "d": 187.5,
      "v": 87
    },
    {
      "midi": 45,
      "hit": false,
      "t": 70312.5,
      "d": 1554.6875,
      "v": 81
    },
    {
      "midi": 51,
      "hit": false,
      "t": 70546.875,
      "d": 207.03125,
      "v": 63
    },
    {
      "midi": 57,
      "hit": false,
      "t": 70781.25,
      "d": 1054.6875,
      "v": 94
    },
    {
      "midi": 60,
      "hit": false,
      "t": 71015.625,
      "d": 1175.78125,
      "v": 94
    },
    {
      "midi": 63,
      "hit": false,
      "t": 71250,
      "d": 273.4375,
      "v": 104
    },
    {
      "midi": 67,
      "hit": false,
      "t": 71484.375,
      "d": 269.53125,
      "v": 88
    },
    {
      "midi": 72,
      "hit": false,
      "t": 71718.75,
      "d": 242.1875,
      "v": 60
    },
    {
      "midi": 50,
      "hit": false,
      "t": 72187.5,
      "d": 503.90625,
      "v": 91
    },
    {
      "midi": 74,
      "hit": false,
      "t": 72187.5,
      "d": 734.375,
      "v": 94
    },
    {
      "midi": 62,
      "hit": false,
      "t": 72421.875,
      "d": 609.375,
      "v": 77
    },
    {
      "midi": 66,
      "hit": false,
      "t": 72656.25,
      "d": 386.71875,
      "v": 46
    },
    {
      "midi": 69,
      "hit": false,
      "t": 72890.625,
      "d": 187.5,
      "v": 77
    },
    {
      "midi": 48,
      "hit": false,
      "t": 73125,
      "d": 523.4375,
      "v": 97
    },
    {
      "midi": 74,
      "hit": false,
      "t": 73125,
      "d": 769.53125,
      "v": 113
    },
    {
      "midi": 62,
      "hit": false,
      "t": 73359.375,
      "d": 675.78125,
      "v": 68
    },
    {
      "midi": 66,
      "hit": false,
      "t": 73593.75,
      "d": 457.03125,
      "v": 32
    },
    {
      "midi": 69,
      "hit": false,
      "t": 73828.125,
      "d": 199.21875,
      "v": 53
    },
    {
      "midi": 74,
      "hit": false,
      "t": 74062.5,
      "d": 828.125,
      "v": 81
    },
    {
      "midi": 46,
      "hit": false,
      "t": 74062.5,
      "d": 988.28125,
      "v": 110
    },
    {
      "midi": 62,
      "hit": false,
      "t": 74296.875,
      "d": 718.75,
      "v": 62
    },
    {
      "midi": 66,
      "hit": false,
      "t": 74531.25,
      "d": 480.46875,
      "v": 33
    },
    {
      "midi": 69,
      "hit": false,
      "t": 74765.625,
      "d": 156.25,
      "v": 56
    },
    {
      "midi": 45,
      "hit": false,
      "t": 75000,
      "d": 449.21875,
      "v": 97
    },
    {
      "midi": 74,
      "hit": false,
      "t": 75000,
      "d": 609.375,
      "v": 81
    },
    {
      "midi": 62,
      "hit": false,
      "t": 75234.375,
      "d": 316.40625,
      "v": 62
    },
    {
      "midi": 69,
      "hit": false,
      "t": 75468.75,
      "d": 121.09375,
      "v": 60
    },
    {
      "midi": 70,
      "hit": false,
      "t": 75937.5,
      "d": 585.9375,
      "v": 57
    },
    {
      "midi": 43,
      "hit": false,
      "t": 75937.5,
      "d": 890.625,
      "v": 70
    },
    {
      "midi": 50,
      "hit": false,
      "t": 76171.875,
      "d": 972.65625,
      "v": 86
    },
    {
      "midi": 58,
      "hit": false,
      "t": 76406.25,
      "d": 644.53125,
      "v": 57
    },
    {
      "midi": 62,
      "hit": false,
      "t": 76640.625,
      "d": 246.09375,
      "v": 68
    },
    {
      "midi": 74,
      "hit": false,
      "t": 76875,
      "d": 261.71875,
      "v": 117
    },
    {
      "midi": 70,
      "hit": false,
      "t": 77109.375,
      "d": 273.4375,
      "v": 100
    },
    {
      "midi": 67,
      "hit": false,
      "t": 77343.75,
      "d": 238.28125,
      "v": 97
    },
    {
      "midi": 62,
      "hit": false,
      "t": 77578.125,
      "d": 214.84375,
      "v": 52
    },
    {
      "midi": 74,
      "hit": false,
      "t": 77812.5,
      "d": 503.90625,
      "v": 79
    },
    {
      "midi": 48,
      "hit": false,
      "t": 77812.5,
      "d": 1394.53125,
      "v": 75
    },
    {
      "midi": 55,
      "hit": false,
      "t": 78046.875,
      "d": 296.875,
      "v": 57
    },
    {
      "midi": 60,
      "hit": false,
      "t": 78281.25,
      "d": 589.84375,
      "v": 75
    },
    {
      "midi": 75,
      "hit": false,
      "t": 78515.625,
      "d": 226.5625,
      "v": 100
    },
    {
      "midi": 70,
      "hit": false,
      "t": 78984.375,
      "d": 152.34375,
      "v": 83
    },
    {
      "midi": 67,
      "hit": false,
      "t": 79218.75,
      "d": 312.5,
      "v": 97
    },
    {
      "midi": 55,
      "hit": false,
      "t": 79453.125,
      "d": 27.34375,
      "v": 79
    },
    {
      "midi": 41,
      "hit": false,
      "t": 79687.5,
      "d": 257.8125,
      "v": 75
    },
    {
      "midi": 72,
      "hit": false,
      "t": 79687.5,
      "d": 816.40625,
      "v": 79
    },
    {
      "midi": 48,
      "hit": false,
      "t": 79921.875,
      "d": 214.84375,
      "v": 67
    },
    {
      "midi": 53,
      "hit": false,
      "t": 80156.25,
      "d": 101.5625,
      "v": 86
    },
    {
      "midi": 60,
      "hit": false,
      "t": 80390.625,
      "d": 164.0625,
      "v": 77
    },
    {
      "midi": 69,
      "hit": false,
      "t": 80625,
      "d": 218.75,
      "v": 101
    },
    {
      "midi": 65,
      "hit": false,
      "t": 80859.375,
      "d": 503.90625,
      "v": 101
    },
    {
      "midi": 60,
      "hit": false,
      "t": 81093.75,
      "d": 453.125,
      "v": 91
    },
    {
      "midi": 53,
      "hit": false,
      "t": 81328.125,
      "d": 109.375,
      "v": 81
    },
    {
      "midi": 72,
      "hit": false,
      "t": 81328.125,
      "d": 152.34375,
      "v": 113
    },
    {
      "midi": 46,
      "hit": false,
      "t": 81562.5,
      "d": 433.59375,
      "v": 80
    },
    {
      "midi": 74,
      "hit": false,
      "t": 81562.5,
      "d": 566.40625,
      "v": 113
    },
    {
      "midi": 53,
      "hit": false,
      "t": 81796.875,
      "d": 652.34375,
      "v": 94
    },
    {
      "midi": 58,
      "hit": false,
      "t": 82031.25,
      "d": 492.1875,
      "v": 73
    },
    {
      "midi": 72,
      "hit": false,
      "t": 82265.625,
      "d": 250,
      "v": 113
    },
    {
      "midi": 70,
      "hit": false,
      "t": 82734.375,
      "d": 167.96875,
      "v": 104
    },
    {
      "midi": 69,
      "hit": false,
      "t": 82968.75,
      "d": 453.125,
      "v": 104
    },
    {
      "midi": 58,
      "hit": false,
      "t": 83203.125,
      "d": 58.59375,
      "v": 73
    },
    {
      "midi": 67,
      "hit": false,
      "t": 83437.5,
      "d": 183.59375,
      "v": 94
    },
    {
      "midi": 39,
      "hit": false,
      "t": 83437.5,
      "d": 1433.59375,
      "v": 83
    },
    {
      "midi": 51,
      "hit": false,
      "t": 83671.875,
      "d": 1132.8125,
      "v": 76
    },
    {
      "midi": 58,
      "hit": false,
      "t": 83906.25,
      "d": 273.4375,
      "v": 68
    },
    {
      "midi": 62,
      "hit": false,
      "t": 84140.625,
      "d": 328.125,
      "v": 108
    },
    {
      "midi": 67,
      "hit": false,
      "t": 84375,
      "d": 238.28125,
      "v": 101
    },
    {
      "midi": 70,
      "hit": false,
      "t": 84609.375,
      "d": 285.15625,
      "v": 104
    },
    {
      "midi": 51,
      "hit": false,
      "t": 84843.75,
      "d": 42.96875,
      "v": 38
    },
    {
      "midi": 67,
      "hit": false,
      "t": 84843.75,
      "d": 257.8125,
      "v": 77
    },
    {
      "midi": 62,
      "hit": false,
      "t": 85078.125,
      "d": 125,
      "v": 101
    },
    {
      "midi": 67,
      "hit": false,
      "t": 85312.5,
      "d": 718.75,
      "v": 91
    },
    {
      "midi": 45,
      "hit": false,
      "t": 85312.5,
      "d": 1476.5625,
      "v": 94
    },
    {
      "midi": 52,
      "hit": false,
      "t": 85546.875,
      "d": 234.375,
      "v": 64
    },
    {
      "midi": 55,
      "hit": false,
      "t": 85781.25,
      "d": 937.5,
      "v": 79
    },
    {
      "midi": 57,
      "hit": false,
      "t": 86015.625,
      "d": 304.6875,
      "v": 86
    },
    {
      "midi": 69,
      "hit": false,
      "t": 86250,
      "d": 507.8125,
      "v": 108
    },
    {
      "midi": 57,
      "hit": false,
      "t": 86484.375,
      "d": 277.34375,
      "v": 56
    },
    {
      "midi": 67,
      "hit": false,
      "t": 86718.75,
      "d": 191.40625,
      "v": 70
    },
    {
      "midi": 57,
      "hit": false,
      "t": 86953.125,
      "d": 261.71875,
      "v": 71
    },
    {
      "midi": 66,
      "hit": false,
      "t": 87187.5,
      "d": 773.4375,
      "v": 91
    },
    {
      "midi": 38,
      "hit": false,
      "t": 87187.5,
      "d": 2191.40625,
      "v": 97
    },
    {
      "midi": 57,
      "hit": false,
      "t": 87421.875,
      "d": 281.25,
      "v": 83
    },
    {
      "midi": 62,
      "hit": false,
      "t": 87656.25,
      "d": 296.875,
      "v": 122
    },
    {
      "midi": 57,
      "hit": false,
      "t": 87890.625,
      "d": 171.875,
      "v": 67
    },
    {
      "midi": 67,
      "hit": false,
      "t": 88125,
      "d": 769.53125,
      "v": 117
    },
    {
      "midi": 62,
      "hit": false,
      "t": 88359.375,
      "d": 316.40625,
      "v": 79
    },
    {
      "midi": 57,
      "hit": false,
      "t": 88593.75,
      "d": 328.125,
      "v": 66
    },
    {
      "midi": 62,
      "hit": false,
      "t": 88828.125,
      "d": 140.625,
      "v": 83
    },
    {
      "midi": 69,
      "hit": false,
      "t": 89062.5,
      "d": 417.96875,
      "v": 113
    },
    {
      "midi": 57,
      "hit": false,
      "t": 89296.875,
      "d": 175.78125,
      "v": 57
    },
    {
      "midi": 50,
      "hit": false,
      "t": 89531.25,
      "d": 35.15625,
      "v": 127
    },
    {
      "midi": 66,
      "hit": false,
      "t": 89531.25,
      "d": 238.28125,
      "v": 110
    },
    {
      "midi": 57,
      "hit": false,
      "t": 89765.625,
      "d": 167.96875,
      "v": 75
    },
    {
      "midi": 67,
      "hit": false,
      "t": 90000,
      "d": 210.9375,
      "v": 127
    },
    {
      "midi": 57,
      "hit": false,
      "t": 90234.375,
      "d": 148.4375,
      "v": 67
    },
    {
      "midi": 69,
      "hit": false,
      "t": 90468.75,
      "d": 144.53125,
      "v": 122
    },
    {
      "midi": 57,
      "hit": false,
      "t": 90585.9375,
      "d": 93.75,
      "v": 67
    },
    {
      "midi": 43,
      "hit": false,
      "t": 90937.5,
      "d": 250,
      "v": 101
    },
    {
      "midi": 74,
      "hit": false,
      "t": 90937.5,
      "d": 609.375,
      "v": 88
    },
    {
      "midi": 50,
      "hit": false,
      "t": 91171.875,
      "d": 148.4375,
      "v": 81
    },
    {
      "midi": 55,
      "hit": false,
      "t": 91406.25,
      "d": 31.25,
      "v": 113
    },
    {
      "midi": 62,
      "hit": false,
      "t": 91640.625,
      "d": 148.4375,
      "v": 101
    },
    {
      "midi": 58,
      "hit": false,
      "t": 91875,
      "d": 105.46875,
      "v": 87
    },
    {
      "midi": 67,
      "hit": false,
      "t": 91875,
      "d": 148.4375,
      "v": 127
    },
    {
      "midi": 69,
      "hit": false,
      "t": 92109.375,
      "d": 179.6875,
      "v": 113
    },
    {
      "midi": 70,
      "hit": false,
      "t": 92343.75,
      "d": 179.6875,
      "v": 76
    },
    {
      "midi": 67,
      "hit": false,
      "t": 92578.125,
      "d": 179.6875,
      "v": 101
    },
    {
      "midi": 75,
      "hit": false,
      "t": 92812.5,
      "d": 375,
      "v": 95
    },
    {
      "midi": 48,
      "hit": false,
      "t": 92812.5,
      "d": 1285.15625,
      "v": 88
    },
    {
      "midi": 63,
      "hit": false,
      "t": 93046.875,
      "d": 390.625,
      "v": 63
    },
    {
      "midi": 55,
      "hit": false,
      "t": 93281.25,
      "d": 937.5,
      "v": 71
    },
    {
      "midi": 63,
      "hit": false,
      "t": 93515.625,
      "d": 167.96875,
      "v": 83
    },
    {
      "midi": 74,
      "hit": false,
      "t": 93515.625,
      "d": 335.9375,
      "v": 108
    },
    {
      "midi": 60,
      "hit": false,
      "t": 93750,
      "d": 519.53125,
      "v": 94
    },
    {
      "midi": 72,
      "hit": false,
      "t": 93984.375,
      "d": 144.53125,
      "v": 122
    },
    {
      "midi": 70,
      "hit": false,
      "t": 94218.75,
      "d": 410.15625,
      "v": 110
    },
    {
      "midi": 48,
      "hit": false,
      "t": 94453.125,
      "d": 82.03125,
      "v": 94
    },
    {
      "midi": 41,
      "hit": false,
      "t": 94687.5,
      "d": 539.0625,
      "v": 68
    },
    {
      "midi": 72,
      "hit": false,
      "t": 94687.5,
      "d": 695.3125,
      "v": 97
    },
    {
      "midi": 48,
      "hit": false,
      "t": 94921.875,
      "d": 234.375,
      "v": 75
    },
    {
      "midi": 53,
      "hit": false,
      "t": 95156.25,
      "d": 562.5,
      "v": 83
    },
    {
      "midi": 60,
      "hit": false,
      "t": 95390.625,
      "d": 238.28125,
      "v": 77
    },
    {
      "midi": 65,
      "hit": false,
      "t": 95625,
      "d": 179.6875,
      "v": 122
    },
    {
      "midi": 67,
      "hit": false,
      "t": 95859.375,
      "d": 250,
      "v": 117
    },
    {
      "midi": 69,
      "hit": false,
      "t": 96093.75,
      "d": 218.75,
      "v": 101
    },
    {
      "midi": 72,
      "hit": false,
      "t": 96328.125,
      "d": 136.71875,
      "v": 91
    },
    {
      "midi": 53,
      "hit": false,
      "t": 96328.125,
      "d": 183.59375,
      "v": 97
    },
    {
      "midi": 74,
      "hit": false,
      "t": 96562.5,
      "d": 492.1875,
      "v": 101
    },
    {
      "midi": 46,
      "hit": false,
      "t": 96562.5,
      "d": 1515.625,
      "v": 76
    },
    {
      "midi": 62,
      "hit": false,
      "t": 96796.875,
      "d": 761.71875,
      "v": 79
    },
    {
      "midi": 53,
      "hit": false,
      "t": 96796.875,
      "d": 839.84375,
      "v": 91
    },
    {
      "midi": 58,
      "hit": false,
      "t": 97031.25,
      "d": 539.0625,
      "v": 83
    },
    {
      "midi": 70,
      "hit": false,
      "t": 97265.625,
      "d": 316.40625,
      "v": 110
    },
    {
      "midi": 69,
      "hit": false,
      "t": 97734.375,
      "d": 199.21875,
      "v": 122
    },
    {
      "midi": 67,
      "hit": false,
      "t": 97968.75,
      "d": 390.625,
      "v": 122
    },
    {
      "midi": 58,
      "hit": false,
      "t": 98203.125,
      "d": 136.71875,
      "v": 61
    },
    {
      "midi": 67,
      "hit": false,
      "t": 98437.5,
      "d": 695.3125,
      "v": 86
    },
    {
      "midi": 51,
      "hit": false,
      "t": 98437.5,
      "d": 769.53125,
      "v": 73
    },
    {
      "midi": 55,
      "hit": false,
      "t": 98671.875,
      "d": 1156.25,
      "v": 64
    },
    {
      "midi": 58,
      "hit": false,
      "t": 98906.25,
      "d": 914.0625,
      "v": 57
    },
    {
      "midi": 62,
      "hit": false,
      "t": 99140.625,
      "d": 527.34375,
      "v": 83
    },
    {
      "midi": 74,
      "hit": false,
      "t": 99375,
      "d": 250,
      "v": 117
    },
    {
      "midi": 72,
      "hit": false,
      "t": 99609.375,
      "d": 179.6875,
      "v": 117
    },
    {
      "midi": 70,
      "hit": false,
      "t": 99843.75,
      "d": 218.75,
      "v": 95
    },
    {
      "midi": 67,
      "hit": false,
      "t": 100078.125,
      "d": 85.9375,
      "v": 91
    },
    {
      "midi": 45,
      "hit": false,
      "t": 100312.5,
      "d": 695.3125,
      "v": 83
    },
    {
      "midi": 67,
      "hit": false,
      "t": 100312.5,
      "d": 812.5,
      "v": 83
    },
    {
      "midi": 52,
      "hit": false,
      "t": 100546.875,
      "d": 265.625,
      "v": 70
    },
    {
      "midi": 55,
      "hit": false,
      "t": 100781.25,
      "d": 214.84375,
      "v": 94
    },
    {
      "midi": 57,
      "hit": false,
      "t": 100781.25,
      "d": 414.0625,
      "v": 91
    },
    {
      "midi": 61,
      "hit": false,
      "t": 101015.625,
      "d": 210.9375,
      "v": 76
    },
    {
      "midi": 50,
      "hit": false,
      "t": 101250,
      "d": 480.46875,
      "v": 94
    },
    {
      "midi": 66,
      "hit": false,
      "t": 101250,
      "d": 734.375,
      "v": 91
    },
    {
      "midi": 54,
      "hit": false,
      "t": 101484.375,
      "d": 355.46875,
      "v": 63
    },
    {
      "midi": 57,
      "hit": false,
      "t": 101718.75,
      "d": 285.15625,
      "v": 88
    },
    {
      "midi": 60,
      "hit": false,
      "t": 101953.125,
      "d": 121.09375,
      "v": 97
    },
    {
      "midi": 43,
      "hit": false,
      "t": 102187.5,
      "d": 3320.3125,
      "v": 97
    },
    {
      "midi": 50,
      "hit": false,
      "t": 102421.875,
      "d": 3031.25,
      "v": 104
    },
    {
      "midi": 55,
      "hit": false,
      "t": 102656.25,
      "d": 125,
      "v": 97
    },
    {
      "midi": 57,
      "hit": false,
      "t": 102890.625,
      "d": 105.46875,
      "v": 122
    },
    {
      "midi": 58,
      "hit": false,
      "t": 103125,
      "d": 121.09375,
      "v": 80
    },
    {
      "midi": 62,
      "hit": false,
      "t": 103359.375,
      "d": 93.75,
      "v": 88
    },
    {
      "midi": 67,
      "hit": false,
      "t": 103593.75,
      "d": 132.8125,
      "v": 79
    },
    {
      "midi": 69,
      "hit": false,
      "t": 103828.125,
      "d": 132.8125,
      "v": 67
    },
    {
      "midi": 70,
      "hit": false,
      "t": 104062.5,
      "d": 121.09375,
      "v": 71
    },
    {
      "midi": 74,
      "hit": false,
      "t": 104296.875,
      "d": 117.1875,
      "v": 77
    },
    {
      "midi": 79,
      "hit": false,
      "t": 104531.25,
      "d": 156.25,
      "v": 94
    },
    {
      "midi": 74,
      "hit": false,
      "t": 104765.625,
      "d": 109.375,
      "v": 91
    },
    {
      "midi": 70,
      "hit": false,
      "t": 105000,
      "d": 97.65625,
      "v": 104
    },
    {
      "midi": 69,
      "hit": false,
      "t": 105234.375,
      "d": 136.71875,
      "v": 97
    },
    {
      "midi": 67,
      "hit": false,
      "t": 105468.75,
      "d": 101.5625,
      "v": 97
    },
    {
      "midi": 63,
      "hit": false,
      "t": 105703.125,
      "d": 97.65625,
      "v": 55
    },
    {
      "midi": 65,
      "hit": false,
      "t": 105937.5,
      "d": 167.96875,
      "v": 17
    },
    {
      "midi": 41,
      "hit": false,
      "t": 105937.5,
      "d": 1234.375,
      "v": 71
    },
    {
      "midi": 48,
      "hit": false,
      "t": 106171.875,
      "d": 222.65625,
      "v": 50
    },
    {
      "midi": 53,
      "hit": false,
      "t": 106406.25,
      "d": 972.65625,
      "v": 113
    },
    {
      "midi": 62,
      "hit": false,
      "t": 106640.625,
      "d": 113.28125,
      "v": 79
    },
    {
      "midi": 67,
      "hit": false,
      "t": 106875,
      "d": 226.5625,
      "v": 122
    },
    {
      "midi": 74,
      "hit": false,
      "t": 106875,
      "d": 332.03125,
      "v": 108
    },
    {
      "midi": 69,
      "hit": false,
      "t": 107109.375,
      "d": 136.71875,
      "v": 113
    },
    {
      "midi": 71,
      "hit": false,
      "t": 107343.75,
      "d": 207.03125,
      "v": 122
    },
    {
      "midi": 67,
      "hit": false,
      "t": 107578.125,
      "d": 132.8125,
      "v": 94
    },
    {
      "midi": 75,
      "hit": false,
      "t": 107812.5,
      "d": 542.96875,
      "v": 91
    },
    {
      "midi": 48,
      "hit": false,
      "t": 107812.5,
      "d": 1445.3125,
      "v": 75
    },
    {
      "midi": 55,
      "hit": false,
      "t": 108046.875,
      "d": 1234.375,
      "v": 81
    },
    {
      "midi": 60,
      "hit": false,
      "t": 108281.25,
      "d": 710.9375,
      "v": 81
    },
    {
      "midi": 63,
      "hit": false,
      "t": 108515.625,
      "d": 152.34375,
      "v": 63
    },
    {
      "midi": 74,
      "hit": false,
      "t": 108750,
      "d": 265.625,
      "v": 104
    },
    {
      "midi": 72,
      "hit": false,
      "t": 108984.375,
      "d": 277.34375,
      "v": 97
    },
    {
      "midi": 60,
      "hit": false,
      "t": 109218.75,
      "d": 371.09375,
      "v": 77
    },
    {
      "midi": 70,
      "hit": false,
      "t": 109218.75,
      "d": 437.5,
      "v": 61
    },
    {
      "midi": 72,
      "hit": false,
      "t": 109687.5,
      "d": 488.28125,
      "v": 86
    },
    {
      "midi": 53,
      "hit": false,
      "t": 109687.5,
      "d": 613.28125,
      "v": 81
    },
    {
      "midi": 57,
      "hit": false,
      "t": 109921.875,
      "d": 1324.21875,
      "v": 86
    },
    {
      "midi": 60,
      "hit": false,
      "t": 110156.25,
      "d": 246.09375,
      "v": 88
    },
    {
      "midi": 65,
      "hit": false,
      "t": 110390.625,
      "d": 238.28125,
      "v": 122
    },
    {
      "midi": 67,
      "hit": false,
      "t": 110625,
      "d": 257.8125,
      "v": 104
    },
    {
      "midi": 69,
      "hit": false,
      "t": 110859.375,
      "d": 230.46875,
      "v": 86
    },
    {
      "midi": 72,
      "hit": false,
      "t": 111093.75,
      "d": 101.5625,
      "v": 94
    },
    {
      "midi": 53,
      "hit": false,
      "t": 111328.125,
      "d": 58.59375,
      "v": 94
    },
    {
      "midi": 75,
      "hit": false,
      "t": 111562.5,
      "d": 222.65625,
      "v": 110
    },
    {
      "midi": 46,
      "hit": false,
      "t": 111562.5,
      "d": 1484.375,
      "v": 35
    },
    {
      "midi": 70,
      "hit": false,
      "t": 111796.875,
      "d": 832.03125,
      "v": 68
    },
    {
      "midi": 58,
      "hit": false,
      "t": 112031.25,
      "d": 589.84375,
      "v": 80
    },
    {
      "midi": 53,
      "hit": false,
      "t": 112031.25,
      "d": 625,
      "v": 54
    },
    {
      "midi": 65,
      "hit": false,
      "t": 112265.625,
      "d": 531.25,
      "v": 91
    },
    {
      "midi": 77,
      "hit": false,
      "t": 112734.375,
      "d": 257.8125,
      "v": 122
    },
    {
      "midi": 74,
      "hit": false,
      "t": 112968.75,
      "d": 410.15625,
      "v": 127
    },
    {
      "midi": 58,
      "hit": false,
      "t": 113203.125,
      "d": 148.4375,
      "v": 61
    },
    {
      "midi": 75,
      "hit": false,
      "t": 113437.5,
      "d": 371.09375,
      "v": 71
    },
    {
      "midi": 44,
      "hit": false,
      "t": 113437.5,
      "d": 1515.625,
      "v": 76
    },
    {
      "midi": 51,
      "hit": false,
      "t": 113671.875,
      "d": 1296.875,
      "v": 71
    },
    {
      "midi": 56,
      "hit": false,
      "t": 113906.25,
      "d": 1085.9375,
      "v": 83
    },
    {
      "midi": 63,
      "hit": false,
      "t": 114140.625,
      "d": 253.90625,
      "v": 71
    },
    {
      "midi": 68,
      "hit": false,
      "t": 114375,
      "d": 375,
      "v": 104
    },
    {
      "midi": 70,
      "hit": false,
      "t": 114609.375,
      "d": 246.09375,
      "v": 95
    },
    {
      "midi": 75,
      "hit": false,
      "t": 114843.75,
      "d": 296.875,
      "v": 100
    },
    {
      "midi": 63,
      "hit": false,
      "t": 115078.125,
      "d": 136.71875,
      "v": 63
    },
    {
      "midi": 75,
      "hit": false,
      "t": 115312.5,
      "d": 132.8125,
      "v": 83
    },
    {
      "midi": 63,
      "hit": false,
      "t": 115312.5,
      "d": 195.3125,
      "v": 71
    },
    {
      "midi": 45,
      "hit": false,
      "t": 115312.5,
      "d": 1480.46875,
      "v": 91
    },
    {
      "midi": 52,
      "hit": false,
      "t": 115546.875,
      "d": 175.78125,
      "v": 64
    },
    {
      "midi": 57,
      "hit": false,
      "t": 115781.25,
      "d": 902.34375,
      "v": 108
    },
    {
      "midi": 60,
      "hit": false,
      "t": 116015.625,
      "d": 789.0625,
      "v": 86
    },
    {
      "midi": 63,
      "hit": false,
      "t": 116250,
      "d": 250,
      "v": 110
    },
    {
      "midi": 67,
      "hit": false,
      "t": 116484.375,
      "d": 292.96875,
      "v": 97
    },
    {
      "midi": 72,
      "hit": false,
      "t": 116718.75,
      "d": 195.3125,
      "v": 97
    },
    {
      "midi": 60,
      "hit": false,
      "t": 116953.125,
      "d": 179.6875,
      "v": 77
    },
    {
      "midi": 74,
      "hit": false,
      "t": 117187.5,
      "d": 488.28125,
      "v": 104
    },
    {
      "midi": 50,
      "hit": false,
      "t": 117187.5,
      "d": 625,
      "v": 108
    },
    {
      "midi": 62,
      "hit": false,
      "t": 117421.875,
      "d": 804.6875,
      "v": 83
    },
    {
      "midi": 66,
      "hit": false,
      "t": 117656.25,
      "d": 527.34375,
      "v": 80
    },
    {
      "midi": 69,
      "hit": false,
      "t": 117890.625,
      "d": 246.09375,
      "v": 54
    },
    {
      "midi": 48,
      "hit": false,
      "t": 118125,
      "d": 535.15625,
      "v": 127
    },
    {
      "midi": 74,
      "hit": false,
      "t": 118125,
      "d": 539.0625,
      "v": 97
    },
    {
      "midi": 62,
      "hit": false,
      "t": 118359.375,
      "d": 644.53125,
      "v": 75
    },
    {
      "midi": 66,
      "hit": false,
      "t": 118593.75,
      "d": 472.65625,
      "v": 68
    },
    {
      "midi": 69,
      "hit": false,
      "t": 118828.125,
      "d": 234.375,
      "v": 75
    },
    {
      "midi": 74,
      "hit": false,
      "t": 119062.5,
      "d": 605.46875,
      "v": 86
    },
    {
      "midi": 46,
      "hit": false,
      "t": 119062.5,
      "d": 1027.34375,
      "v": 110
    },
    {
      "midi": 62,
      "hit": false,
      "t": 119296.875,
      "d": 753.90625,
      "v": 67
    },
    {
      "midi": 66,
      "hit": false,
      "t": 119531.25,
      "d": 503.90625,
      "v": 59
    },
    {
      "midi": 69,
      "hit": false,
      "t": 119765.625,
      "d": 230.46875,
      "v": 71
    },
    {
      "midi": 74,
      "hit": false,
      "t": 120000,
      "d": 519.53125,
      "v": 83
    },
    {
      "midi": 45,
      "hit": false,
      "t": 120000,
      "d": 609.375,
      "v": 88
    },
    {
      "midi": 62,
      "hit": false,
      "t": 120234.375,
      "d": 230.46875,
      "v": 58
    },
    {
      "midi": 66,
      "hit": false,
      "t": 120468.75,
      "d": 257.8125,
      "v": 59
    },
    {
      "midi": 69,
      "hit": false,
      "t": 120703.125,
      "d": 183.59375,
      "v": 67
    },
    {
      "midi": 70,
      "hit": false,
      "t": 120937.5,
      "d": 207.03125,
      "v": 65
    },
    {
      "midi": 43,
      "hit": false,
      "t": 120937.5,
      "d": 1195.3125,
      "v": 79
    },
    {
      "midi": 50,
      "hit": false,
      "t": 121171.875,
      "d": 324.21875,
      "v": 79
    },
    {
      "midi": 55,
      "hit": false,
      "t": 121406.25,
      "d": 976.5625,
      "v": 88
    },
    {
      "midi": 50,
      "hit": false,
      "t": 121523.4375,
      "d": 667.96875,
      "v": 54
    },
    {
      "midi": 58,
      "hit": false,
      "t": 121640.625,
      "d": 191.40625,
      "v": 61
    },
    {
      "midi": 62,
      "hit": false,
      "t": 121875,
      "d": 210.9375,
      "v": 101
    },
    {
      "midi": 69,
      "hit": false,
      "t": 122109.375,
      "d": 238.28125,
      "v": 104
    },
    {
      "midi": 67,
      "hit": false,
      "t": 122343.75,
      "d": 203.125,
      "v": 108
    },
    {
      "midi": 62,
      "hit": false,
      "t": 122578.125,
      "d": 152.34375,
      "v": 94
    },
    {
      "midi": 63,
      "hit": false,
      "t": 122812.5,
      "d": 687.5,
      "v": 95
    },
    {
      "midi": 48,
      "hit": false,
      "t": 122812.5,
      "d": 1292.96875,
      "v": 86
    },
    {
      "midi": 51,
      "hit": false,
      "t": 123046.875,
      "d": 949.21875,
      "v": 68
    },
    {
      "midi": 55,
      "hit": false,
      "t": 123515.625,
      "d": 273.4375,
      "v": 86
    },
    {
      "midi": 67,
      "hit": false,
      "t": 123750,
      "d": 238.28125,
      "v": 104
    },
    {
      "midi": 65,
      "hit": false,
      "t": 123984.375,
      "d": 167.96875,
      "v": 113
    },
    {
      "midi": 63,
      "hit": false,
      "t": 124218.75,
      "d": 187.5,
      "v": 104
    },
    {
      "midi": 65,
      "hit": false,
      "t": 124453.125,
      "d": 882.8125,
      "v": 94
    },
    {
      "midi": 41,
      "hit": false,
      "t": 124687.5,
      "d": 988.28125,
      "v": 81
    },
    {
      "midi": 48,
      "hit": false,
      "t": 124921.875,
      "d": 253.90625,
      "v": 71
    },
    {
      "midi": 53,
      "hit": false,
      "t": 125156.25,
      "d": 785.15625,
      "v": 81
    },
    {
      "midi": 57,
      "hit": false,
      "t": 125390.625,
      "d": 199.21875,
      "v": 79
    },
    {
      "midi": 67,
      "hit": false,
      "t": 125625,
      "d": 214.84375,
      "v": 117
    },
    {
      "midi": 65,
      "hit": false,
      "t": 125859.375,
      "d": 222.65625,
      "v": 94
    },
    {
      "midi": 60,
      "hit": false,
      "t": 126093.75,
      "d": 187.5,
      "v": 113
    },
    {
      "midi": 62,
      "hit": false,
      "t": 126328.125,
      "d": 2105.46875,
      "v": 117
    },
    {
      "midi": 46,
      "hit": false,
      "t": 126562.5,
      "d": 1539.0625,
      "v": 71
    },
    {
      "midi": 53,
      "hit": false,
      "t": 126796.875,
      "d": 1210.9375,
      "v": 91
    },
    {
      "midi": 58,
      "hit": false,
      "t": 127031.25,
      "d": 730.46875,
      "v": 73
    },
    {
      "midi": 72,
      "hit": false,
      "t": 127265.625,
      "d": 359.375,
      "v": 122
    },
    {
      "midi": 70,
      "hit": false,
      "t": 127734.375,
      "d": 218.75,
      "v": 127
    },
    {
      "midi": 69,
      "hit": false,
      "t": 127968.75,
      "d": 460.9375,
      "v": 97
    },
    {
      "midi": 58,
      "hit": false,
      "t": 128203.125,
      "d": 226.5625,
      "v": 51
    },
    {
      "midi": 67,
      "hit": false,
      "t": 128437.5,
      "d": 707.03125,
      "v": 91
    },
    {
      "midi": 51,
      "hit": false,
      "t": 128437.5,
      "d": 839.84375,
      "v": 73
    },
    {
      "midi": 55,
      "hit": false,
      "t": 128671.875,
      "d": 1164.0625,
      "v": 79
    },
    {
      "midi": 58,
      "hit": false,
      "t": 128906.25,
      "d": 97.65625,
      "v": 80
    },
    {
      "midi": 58,
      "hit": false,
      "t": 129140.625,
      "d": 292.96875,
      "v": 76
    },
    {
      "midi": 62,
      "hit": false,
      "t": 129375,
      "d": 312.5,
      "v": 101
    },
    {
      "midi": 67,
      "hit": false,
      "t": 129609.375,
      "d": 449.21875,
      "v": 108
    },
    {
      "midi": 51,
      "hit": false,
      "t": 129843.75,
      "d": 93.75,
      "v": 68
    },
    {
      "midi": 62,
      "hit": false,
      "t": 129843.75,
      "d": 214.84375,
      "v": 101
    },
    {
      "midi": 58,
      "hit": false,
      "t": 130078.125,
      "d": 121.09375,
      "v": 49
    },
    {
      "midi": 67,
      "hit": false,
      "t": 130312.5,
      "d": 910.15625,
      "v": 73
    },
    {
      "midi": 45,
      "hit": false,
      "t": 130312.5,
      "d": 1675.78125,
      "v": 77
    },
    {
      "midi": 52,
      "hit": false,
      "t": 130546.875,
      "d": 1148.4375,
      "v": 79
    },
    {
      "midi": 55,
      "hit": false,
      "t": 130781.25,
      "d": 585.9375,
      "v": 67
    },
    {
      "midi": 61,
      "hit": false,
      "t": 131015.625,
      "d": 343.75,
      "v": 71
    },
    {
      "midi": 61,
      "hit": false,
      "t": 131484.375,
      "d": 269.53125,
      "v": 73
    },
    {
      "midi": 69,
      "hit": false,
      "t": 131718.75,
      "d": 429.6875,
      "v": 83
    },
    {
      "midi": 52,
      "hit": false,
      "t": 131953.125,
      "d": 175.78125,
      "v": 79
    },
    {
      "midi": 66,
      "hit": false,
      "t": 132187.5,
      "d": 746.09375,
      "v": 80
    },
    {
      "midi": 50,
      "hit": false,
      "t": 132187.5,
      "d": 2660.15625,
      "v": 91
    },
    {
      "midi": 54,
      "hit": false,
      "t": 132421.875,
      "d": 812.5,
      "v": 73
    },
    {
      "midi": 57,
      "hit": false,
      "t": 132656.25,
      "d": 332.03125,
      "v": 77
    },
    {
      "midi": 62,
      "hit": false,
      "t": 132890.625,
      "d": 195.3125,
      "v": 94
    },
    {
      "midi": 67,
      "hit": false,
      "t": 133125,
      "d": 714.84375,
      "v": 127
    },
    {
      "midi": 62,
      "hit": false,
      "t": 133359.375,
      "d": 226.5625,
      "v": 79
    },
    {
      "midi": 57,
      "hit": false,
      "t": 133593.75,
      "d": 312.5,
      "v": 83
    },
    {
      "midi": 62,
      "hit": false,
      "t": 133828.125,
      "d": 148.4375,
      "v": 86
    },
    {
      "midi": 69,
      "hit": false,
      "t": 134062.5,
      "d": 371.09375,
      "v": 122
    },
    {
      "midi": 57,
      "hit": false,
      "t": 134296.875,
      "d": 140.625,
      "v": 68
    },
    {
      "midi": 66,
      "hit": false,
      "t": 134531.25,
      "d": 273.4375,
      "v": 110
    },
    {
      "midi": 57,
      "hit": false,
      "t": 134765.625,
      "d": 167.96875,
      "v": 68
    },
    {
      "midi": 54,
      "hit": false,
      "t": 135000,
      "d": 89.84375,
      "v": 83
    },
    {
      "midi": 67,
      "hit": false,
      "t": 135000,
      "d": 238.28125,
      "v": 122
    },
    {
      "midi": 57,
      "hit": false,
      "t": 135234.375,
      "d": 160.15625,
      "v": 83
    },
    {
      "midi": 50,
      "hit": false,
      "t": 135468.75,
      "d": 89.84375,
      "v": 108
    },
    {
      "midi": 69,
      "hit": false,
      "t": 135468.75,
      "d": 148.4375,
      "v": 108
    },
    {
      "midi": 57,
      "hit": false,
      "t": 135585.9375,
      "d": 97.65625,
      "v": 58
    },
    {
      "midi": 43,
      "hit": false,
      "t": 135937.5,
      "d": 246.09375,
      "v": 81
    },
    {
      "midi": 74,
      "hit": false,
      "t": 135937.5,
      "d": 636.71875,
      "v": 79
    },
    {
      "midi": 50,
      "hit": false,
      "t": 136171.875,
      "d": 210.9375,
      "v": 91
    },
    {
      "midi": 55,
      "hit": false,
      "t": 136406.25,
      "d": 58.59375,
      "v": 79
    },
    {
      "midi": 62,
      "hit": false,
      "t": 136640.625,
      "d": 160.15625,
      "v": 81
    },
    {
      "midi": 67,
      "hit": false,
      "t": 136875,
      "d": 144.53125,
      "v": 127
    },
    {
      "midi": 69,
      "hit": false,
      "t": 137109.375,
      "d": 175.78125,
      "v": 117
    },
    {
      "midi": 58,
      "hit": false,
      "t": 137343.75,
      "d": 50.78125,
      "v": 76
    },
    {
      "midi": 70,
      "hit": false,
      "t": 137343.75,
      "d": 210.9375,
      "v": 87
    },
    {
      "midi": 67,
      "hit": false,
      "t": 137578.125,
      "d": 152.34375,
      "v": 86
    },
    {
      "midi": 75,
      "hit": false,
      "t": 137812.5,
      "d": 480.46875,
      "v": 76
    },
    {
      "midi": 48,
      "hit": false,
      "t": 137812.5,
      "d": 1277.34375,
      "v": 66
    },
    {
      "midi": 55,
      "hit": false,
      "t": 138046.875,
      "d": 914.0625,
      "v": 56
    },
    {
      "midi": 60,
      "hit": false,
      "t": 138281.25,
      "d": 394.53125,
      "v": 79
    },
    {
      "midi": 74,
      "hit": false,
      "t": 138515.625,
      "d": 128.90625,
      "v": 91
    },
    {
      "midi": 77,
      "hit": false,
      "t": 138984.375,
      "d": 167.96875,
      "v": 108
    },
    {
      "midi": 60,
      "hit": false,
      "t": 139218.75,
      "d": 97.65625,
      "v": 83
    },
    {
      "midi": 74,
      "hit": false,
      "t": 139218.75,
      "d": 386.71875,
      "v": 97
    },
    {
      "midi": 72,
      "hit": false,
      "t": 139687.5,
      "d": 167.96875,
      "v": 64
    },
    {
      "midi": 53,
      "hit": false,
      "t": 139687.5,
      "d": 835.9375,
      "v": 94
    },
    {
      "midi": 60,
      "hit": false,
      "t": 139921.875,
      "d": 1164.0625,
      "v": 86
    },
    {
      "midi": 65,
      "hit": false,
      "t": 140156.25,
      "d": 253.90625,
      "v": 91
    },
    {
      "midi": 67,
      "hit": false,
      "t": 140390.625,
      "d": 175.78125,
      "v": 127
    },
    {
      "midi": 69,
      "hit": false,
      "t": 140625,
      "d": 199.21875,
      "v": 122
    },
    {
      "midi": 72,
      "hit": false,
      "t": 140859.375,
      "d": 421.875,
      "v": 122
    },
    {
      "midi": 53,
      "hit": false,
      "t": 141093.75,
      "d": 82.03125,
      "v": 101
    },
    {
      "midi": 65,
      "hit": false,
      "t": 141328.125,
      "d": 97.65625,
      "v": 53
    },
    {
      "midi": 62,
      "hit": false,
      "t": 141562.5,
      "d": 167.96875,
      "v": 101
    },
    {
      "midi": 74,
      "hit": false,
      "t": 141562.5,
      "d": 214.84375,
      "v": 88
    },
    {
      "midi": 46,
      "hit": false,
      "t": 141562.5,
      "d": 1023.4375,
      "v": 76
    },
    {
      "midi": 53,
      "hit": false,
      "t": 142031.25,
      "d": 39.0625,
      "v": 91
    },
    {
      "midi": 60,
      "hit": false,
      "t": 142265.625,
      "d": 125,
      "v": 63
    },
    {
      "midi": 72,
      "hit": false,
      "t": 142265.625,
      "d": 148.4375,
      "v": 117
    },
    {
      "midi": 70,
      "hit": false,
      "t": 142734.375,
      "d": 156.25,
      "v": 100
    },
    {
      "midi": 58,
      "hit": false,
      "t": 142734.375,
      "d": 171.875,
      "v": 71
    },
    {
      "midi": 53,
      "hit": false,
      "t": 142968.75,
      "d": 50.78125,
      "v": 83
    },
    {
      "midi": 57,
      "hit": false,
      "t": 143085.9375,
      "d": 128.90625,
      "v": 88
    },
    {
      "midi": 69,
      "hit": false,
      "t": 143085.9375,
      "d": 160.15625,
      "v": 86
    },
    {
      "midi": 55,
      "hit": false,
      "t": 143437.5,
      "d": 355.46875,
      "v": 63
    },
    {
      "midi": 67,
      "hit": false,
      "t": 143437.5,
      "d": 605.46875,
      "v": 94
    },
    {
      "midi": 39,
      "hit": false,
      "t": 143437.5,
      "d": 1367.1875,
      "v": 76
    },
    {
      "midi": 51,
      "hit": false,
      "t": 143671.875,
      "d": 886.71875,
      "v": 80
    },
    {
      "midi": 55,
      "hit": false,
      "t": 144140.625,
      "d": 1019.53125,
      "v": 68
    },
    {
      "midi": 58,
      "hit": false,
      "t": 144375,
      "d": 238.28125,
      "v": 100
    },
    {
      "midi": 62,
      "hit": false,
      "t": 144609.375,
      "d": 238.28125,
      "v": 113
    },
    {
      "midi": 67,
      "hit": false,
      "t": 144843.75,
      "d": 292.96875,
      "v": 117
    },
    {
      "midi": 51,
      "hit": false,
      "t": 145078.125,
      "d": 101.5625,
      "v": 65
    },
    {
      "midi": 45,
      "hit": false,
      "t": 145312.5,
      "d": 675.78125,
      "v": 75
    },
    {
      "midi": 67,
      "hit": false,
      "t": 145312.5,
      "d": 703.125,
      "v": 83
    },
    {
      "midi": 52,
      "hit": false,
      "t": 145546.875,
      "d": 386.71875,
      "v": 71
    },
    {
      "midi": 57,
      "hit": false,
      "t": 145781.25,
      "d": 410.15625,
      "v": 77
    },
    {
      "midi": 61,
      "hit": false,
      "t": 146015.625,
      "d": 179.6875,
      "v": 76
    },
    {
      "midi": 50,
      "hit": false,
      "t": 146250,
      "d": 515.625,
      "v": 88
    },
    {
      "midi": 66,
      "hit": false,
      "t": 146250,
      "d": 746.09375,
      "v": 71
    },
    {
      "midi": 54,
      "hit": false,
      "t": 146484.375,
      "d": 382.8125,
      "v": 63
    },
    {
      "midi": 57,
      "hit": false,
      "t": 146718.75,
      "d": 253.90625,
      "v": 77
    },
    {
      "midi": 62,
      "hit": false,
      "t": 146953.125,
      "d": 113.28125,
      "v": 91
    },
    {
      "midi": 43,
      "hit": false,
      "t": 147187.5,
      "d": 3496.09375,
      "v": 127
    },
    {
      "midi": 55,
      "hit": false,
      "t": 147421.875,
      "d": 89.84375,
      "v": 113
    },
    {
      "midi": 57,
      "hit": false,
      "t": 147656.25,
      "d": 78.125,
      "v": 122
    },
    {
      "midi": 58,
      "hit": false,
      "t": 147890.625,
      "d": 132.8125,
      "v": 95
    },
    {
      "midi": 62,
      "hit": false,
      "t": 148125,
      "d": 97.65625,
      "v": 83
    },
    {
      "midi": 67,
      "hit": false,
      "t": 148359.375,
      "d": 97.65625,
      "v": 88
    },
    {
      "midi": 69,
      "hit": false,
      "t": 148593.75,
      "d": 78.125,
      "v": 117
    },
    {
      "midi": 70,
      "hit": false,
      "t": 148828.125,
      "d": 101.5625,
      "v": 95
    },
    {
      "midi": 74,
      "hit": false,
      "t": 149062.5,
      "d": 70.3125,
      "v": 86
    },
    {
      "midi": 79,
      "hit": false,
      "t": 149296.875,
      "d": 85.9375,
      "v": 113
    },
    {
      "midi": 81,
      "hit": false,
      "t": 149531.25,
      "d": 85.9375,
      "v": 122
    },
    {
      "midi": 82,
      "hit": false,
      "t": 149765.625,
      "d": 93.75,
      "v": 95
    },
    {
      "midi": 81,
      "hit": false,
      "t": 150000,
      "d": 101.5625,
      "v": 122
    },
    {
      "midi": 79,
      "hit": false,
      "t": 150234.375,
      "d": 82.03125,
      "v": 113
    },
    {
      "midi": 74,
      "hit": false,
      "t": 150468.75,
      "d": 121.09375,
      "v": 75
    },
    {
      "midi": 55,
      "hit": false,
      "t": 150703.125,
      "d": 42.96875,
      "v": 91
    },
    {
      "midi": 70,
      "hit": false,
      "t": 150703.125,
      "d": 78.125,
      "v": 91
    },
    {
      "midi": 70,
      "hit": false,
      "t": 150937.5,
      "d": 285.15625,
      "v": 76
    },
    {
      "midi": 63,
      "hit": false,
      "t": 150937.5,
      "d": 343.75,
      "v": 95
    },
    {
      "midi": 51,
      "hit": false,
      "t": 150937.5,
      "d": 800.78125,
      "v": 127
    },
    {
      "midi": 39,
      "hit": false,
      "t": 150937.5,
      "d": 3164.0625,
      "v": 95
    },
    {
      "midi": 55,
      "hit": false,
      "t": 151757.8125,
      "d": 31.25,
      "v": 55
    },
    {
      "midi": 58,
      "hit": false,
      "t": 151757.8125,
      "d": 39.0625,
      "v": 100
    },
    {
      "midi": 63,
      "hit": false,
      "t": 151757.8125,
      "d": 39.0625,
      "v": 100
    },
    {
      "midi": 58,
      "hit": false,
      "t": 151875,
      "d": 50.78125,
      "v": 127
    },
    {
      "midi": 55,
      "hit": false,
      "t": 151875,
      "d": 58.59375,
      "v": 113
    },
    {
      "midi": 63,
      "hit": false,
      "t": 151875,
      "d": 74.21875,
      "v": 110
    },
    {
      "midi": 51,
      "hit": false,
      "t": 152343.75,
      "d": 453.125,
      "v": 68
    },
    {
      "midi": 67,
      "hit": false,
      "t": 152695.3125,
      "d": 42.96875,
      "v": 94
    },
    {
      "midi": 58,
      "hit": false,
      "t": 152812.5,
      "d": 39.0625,
      "v": 95
    },
    {
      "midi": 63,
      "hit": false,
      "t": 152812.5,
      "d": 42.96875,
      "v": 104
    },
    {
      "midi": 67,
      "hit": false,
      "t": 152812.5,
      "d": 62.5,
      "v": 122
    },
    {
      "midi": 51,
      "hit": false,
      "t": 153281.25,
      "d": 492.1875,
      "v": 80
    },
    {
      "midi": 67,
      "hit": false,
      "t": 153632.8125,
      "d": 35.15625,
      "v": 79
    },
    {
      "midi": 70,
      "hit": false,
      "t": 153632.8125,
      "d": 39.0625,
      "v": 95
    },
    {
      "midi": 75,
      "hit": false,
      "t": 153632.8125,
      "d": 39.0625,
      "v": 83
    },
    {
      "midi": 70,
      "hit": false,
      "t": 153750,
      "d": 296.875,
      "v": 127
    },
    {
      "midi": 75,
      "hit": false,
      "t": 153750,
      "d": 375,
      "v": 127
    },
    {
      "midi": 67,
      "hit": false,
      "t": 153750,
      "d": 429.6875,
      "v": 113
    },
    {
      "midi": 51,
      "hit": false,
      "t": 154218.75,
      "d": 39.0625,
      "v": 104
    },
    {
      "midi": 74,
      "hit": false,
      "t": 154687.5,
      "d": 160.15625,
      "v": 127
    },
    {
      "midi": 79,
      "hit": false,
      "t": 154687.5,
      "d": 160.15625,
      "v": 127
    },
    {
      "midi": 69,
      "hit": false,
      "t": 154687.5,
      "d": 167.96875,
      "v": 122
    },
    {
      "midi": 50,
      "hit": false,
      "t": 154687.5,
      "d": 480.46875,
      "v": 127
    },
    {
      "midi": 57,
      "hit": false,
      "t": 155156.25,
      "d": 31.25,
      "v": 104
    },
    {
      "midi": 57,
      "hit": false,
      "t": 155625,
      "d": 968.75,
      "v": 117
    },
    {
      "midi": 62,
      "hit": false,
      "t": 155625,
      "d": 1011.71875,
      "v": 127
    },
    {
      "midi": 66,
      "hit": false,
      "t": 155625,
      "d": 1089.84375,
      "v": 110
    },
    {
      "midi": 38,
      "hit": false,
      "t": 155625,
      "d": 2558.59375,
      "v": 127
    },
    {
      "midi": 50,
      "hit": false,
      "t": 156562.5,
      "d": 574.21875,
      "v": 113
    },
    {
      "midi": 57,
      "hit": false,
      "t": 156796.875,
      "d": 121.09375,
      "v": 122
    },
    {
      "midi": 57,
      "hit": false,
      "t": 157031.25,
      "d": 23.4375,
      "v": 60
    },
    {
      "midi": 66,
      "hit": false,
      "t": 157031.25,
      "d": 277.34375,
      "v": 100
    },
    {
      "midi": 62,
      "hit": false,
      "t": 157031.25,
      "d": 281.25,
      "v": 122
    },
    {
      "midi": 57,
      "hit": false,
      "t": 157265.625,
      "d": 175.78125,
      "v": 88
    },
    {
      "midi": 57,
      "hit": false,
      "t": 157500,
      "d": 23.4375,
      "v": 101
    },
    {
      "midi": 50,
      "hit": false,
      "t": 157500,
      "d": 78.125,
      "v": 94
    },
    {
      "midi": 67,
      "hit": false,
      "t": 157500,
      "d": 265.625,
      "v": 127
    },
    {
      "midi": 62,
      "hit": false,
      "t": 157500,
      "d": 312.5,
      "v": 127
    },
    {
      "midi": 50,
      "hit": false,
      "t": 157734.375,
      "d": 140.625,
      "v": 88
    },
    {
      "midi": 69,
      "hit": false,
      "t": 157968.75,
      "d": 199.21875,
      "v": 122
    },
    {
      "midi": 62,
      "hit": false,
      "t": 157968.75,
      "d": 265.625,
      "v": 127
    },
    {
      "midi": 50,
      "hit": false,
      "t": 158203.125,
      "d": 66.40625,
      "v": 108
    },
    {
      "midi": 55,
      "hit": false,
      "t": 158437.5,
      "d": 421.875,
      "v": 127
    },
    {
      "midi": 43,
      "hit": false,
      "t": 158437.5,
      "d": 574.21875,
      "v": 127
    },
    {
      "midi": 67,
      "hit": false,
      "t": 158437.5,
      "d": 917.96875,
      "v": 101
    },
    {
      "midi": 55,
      "hit": false,
      "t": 158906.25,
      "d": 402.34375,
      "v": 113
    },
    {
      "midi": 43,
      "hit": false,
      "t": 159375,
      "d": 113.28125,
      "v": 113
    },
    {
      "midi": 45,
      "hit": false,
      "t": 159375,
      "d": 484.375,
      "v": 127
    },
    {
      "midi": 69,
      "hit": false,
      "t": 159375,
      "d": 839.84375,
      "v": 127
    },
    {
      "midi": 57,
      "hit": false,
      "t": 159843.75,
      "d": 355.46875,
      "v": 117
    },
    {
      "midi": 45,
      "hit": false,
      "t": 160078.125,
      "d": 82.03125,
      "v": 127
    },
    {
      "midi": 46,
      "hit": false,
      "t": 160312.5,
      "d": 421.875,
      "v": 104
    },
    {
      "midi": 70,
      "hit": false,
      "t": 160312.5,
      "d": 839.84375,
      "v": 104
    },
    {
      "midi": 58,
      "hit": false,
      "t": 160781.25,
      "d": 332.03125,
      "v": 127
    },
    {
      "midi": 46,
      "hit": false,
      "t": 161015.625,
      "d": 97.65625,
      "v": 100
    },
    {
      "midi": 48,
      "hit": false,
      "t": 161250,
      "d": 503.90625,
      "v": 127
    },
    {
      "midi": 72,
      "hit": false,
      "t": 161250,
      "d": 609.375,
      "v": 127
    },
    {
      "midi": 60,
      "hit": false,
      "t": 161718.75,
      "d": 414.0625,
      "v": 127
    },
    {
      "midi": 48,
      "hit": false,
      "t": 161953.125,
      "d": 101.5625,
      "v": 127
    },
    {
      "midi": 69,
      "hit": false,
      "t": 162187.5,
      "d": 925.78125,
      "v": 108
    },
    {
      "midi": 79,
      "hit": false,
      "t": 162187.5,
      "d": 1000,
      "v": 127
    },
    {
      "midi": 74,
      "hit": false,
      "t": 162187.5,
      "d": 1023.4375,
      "v": 113
    },
    {
      "midi": 50,
      "hit": false,
      "t": 162187.5,
      "d": 2085.9375,
      "v": 127
    },
    {
      "midi": 62,
      "hit": false,
      "t": 163125,
      "d": 511.71875,
      "v": 127
    },
    {
      "midi": 69,
      "hit": false,
      "t": 163359.375,
      "d": 89.84375,
      "v": 113
    },
    {
      "midi": 74,
      "hit": false,
      "t": 163593.75,
      "d": 62.5,
      "v": 127
    },
    {
      "midi": 69,
      "hit": false,
      "t": 163593.75,
      "d": 78.125,
      "v": 117
    },
    {
      "midi": 79,
      "hit": false,
      "t": 163593.75,
      "d": 117.1875,
      "v": 122
    },
    {
      "midi": 78,
      "hit": false,
      "t": 163828.125,
      "d": 253.90625,
      "v": 110
    },
    {
      "midi": 74,
      "hit": false,
      "t": 163828.125,
      "d": 257.8125,
      "v": 127
    },
    {
      "midi": 69,
      "hit": false,
      "t": 163828.125,
      "d": 296.875,
      "v": 122
    },
    {
      "midi": 57,
      "hit": false,
      "t": 164062.5,
      "d": 179.6875,
      "v": 113
    },
    {
      "midi": 57,
      "hit": false,
      "t": 164531.25,
      "d": 113.28125,
      "v": 91
    },
    {
      "midi": 57,
      "hit": false,
      "t": 165000,
      "d": 300.78125,
      "v": 117
    },
    {
      "midi": 62,
      "hit": false,
      "t": 165000,
      "d": 324.21875,
      "v": 127
    },
    {
      "midi": 67,
      "hit": false,
      "t": 165000,
      "d": 351.5625,
      "v": 127
    },
    {
      "midi": 50,
      "hit": false,
      "t": 165000,
      "d": 417.96875,
      "v": 127
    },
    {
      "midi": 62,
      "hit": false,
      "t": 165468.75,
      "d": 35.15625,
      "v": 113
    },
    {
      "midi": 66,
      "hit": false,
      "t": 165468.75,
      "d": 42.96875,
      "v": 104
    },
    {
      "midi": 57,
      "hit": false,
      "t": 165468.75,
      "d": 50.78125,
      "v": 108
    },
    {
      "midi": 38,
      "hit": false,
      "t": 165468.75,
      "d": 58.59375,
      "v": 127
    },
    {
      "midi": 58,
      "hit": false,
      "t": 165937.5,
      "d": 175.78125,
      "v": 127
    },
    {
      "midi": 55,
      "hit": false,
      "t": 165937.5,
      "d": 195.3125,
      "v": 122
    },
    {
      "midi": 63,
      "hit": false,
      "t": 165937.5,
      "d": 207.03125,
      "v": 127
    },
    {
      "midi": 51,
      "hit": false,
      "t": 165937.5,
      "d": 277.34375,
      "v": 104
    },
    {
      "midi": 39,
      "hit": false,
      "t": 165937.5,
      "d": 312.5,
      "v": 104
    },
    {
      "midi": 67,
      "hit": false,
      "t": 166757.8125,
      "d": 19.53125,
      "v": 68
    },
    {
      "midi": 51,
      "hit": false,
      "t": 166875,
      "d": 54.6875,
      "v": 100
    },
    {
      "midi": 39,
      "hit": false,
      "t": 166875,
      "d": 58.59375,
      "v": 87
    },
    {
      "midi": 58,
      "hit": false,
      "t": 166875,
      "d": 58.59375,
      "v": 95
    },
    {
      "midi": 63,
      "hit": false,
      "t": 166875,
      "d": 58.59375,
      "v": 100
    },
    {
      "midi": 67,
      "hit": false,
      "t": 166875,
      "d": 82.03125,
      "v": 117
    },
    {
      "midi": 67,
      "hit": false,
      "t": 167695.3125,
      "d": 31.25,
      "v": 86
    },
    {
      "midi": 70,
      "hit": false,
      "t": 167695.3125,
      "d": 42.96875,
      "v": 83
    },
    {
      "midi": 39,
      "hit": false,
      "t": 167812.5,
      "d": 54.6875,
      "v": 100
    },
    {
      "midi": 51,
      "hit": false,
      "t": 167812.5,
      "d": 62.5,
      "v": 104
    },
    {
      "midi": 63,
      "hit": false,
      "t": 167812.5,
      "d": 62.5,
      "v": 95
    },
    {
      "midi": 67,
      "hit": false,
      "t": 167812.5,
      "d": 62.5,
      "v": 127
    },
    {
      "midi": 70,
      "hit": false,
      "t": 167812.5,
      "d": 70.3125,
      "v": 110
    },
    {
      "midi": 67,
      "hit": false,
      "t": 168632.8125,
      "d": 31.25,
      "v": 83
    },
    {
      "midi": 75,
      "hit": false,
      "t": 168632.8125,
      "d": 35.15625,
      "v": 91
    },
    {
      "midi": 70,
      "hit": false,
      "t": 168632.8125,
      "d": 42.96875,
      "v": 104
    },
    {
      "midi": 39,
      "hit": false,
      "t": 168750,
      "d": 50.78125,
      "v": 87
    },
    {
      "midi": 51,
      "hit": false,
      "t": 168750,
      "d": 62.5,
      "v": 110
    },
    {
      "midi": 67,
      "hit": false,
      "t": 168750,
      "d": 66.40625,
      "v": 127
    },
    {
      "midi": 70,
      "hit": false,
      "t": 168750,
      "d": 70.3125,
      "v": 127
    },
    {
      "midi": 75,
      "hit": false,
      "t": 168750,
      "d": 89.84375,
      "v": 110
    },
    {
      "midi": 45,
      "hit": false,
      "t": 169453.125,
      "d": 39.0625,
      "v": 101
    },
    {
      "midi": 44,
      "hit": false,
      "t": 169687.5,
      "d": 7.8125,
      "v": 73
    },
    {
      "midi": 69,
      "hit": false,
      "t": 169687.5,
      "d": 789.0625,
      "v": 127
    },
    {
      "midi": 74,
      "hit": false,
      "t": 169687.5,
      "d": 800.78125,
      "v": 127
    },
    {
      "midi": 79,
      "hit": false,
      "t": 169687.5,
      "d": 847.65625,
      "v": 127
    },
    {
      "midi": 50,
      "hit": false,
      "t": 169687.5,
      "d": 1929.6875,
      "v": 122
    },
    {
      "midi": 38,
      "hit": false,
      "t": 169687.5,
      "d": 3250,
      "v": 127
    },
    {
      "midi": 78,
      "hit": false,
      "t": 170625,
      "d": 902.34375,
      "v": 110
    },
    {
      "midi": 74,
      "hit": false,
      "t": 170625,
      "d": 921.875,
      "v": 127
    },
    {
      "midi": 69,
      "hit": false,
      "t": 170625,
      "d": 957.03125,
      "v": 127
    },
    {
      "midi": 50,
      "hit": false,
      "t": 172031.25,
      "d": 609.375,
      "v": 113
    },
    {
      "midi": 57,
      "hit": false,
      "t": 172265.625,
      "d": 578.125,
      "v": 117
    },
    {
      "midi": 62,
      "hit": false,
      "t": 172500,
      "d": 328.125,
      "v": 127
    },
    {
      "midi": 67,
      "hit": false,
      "t": 172500,
      "d": 359.375,
      "v": 127
    },
    {
      "midi": 50,
      "hit": false,
      "t": 172968.75,
      "d": 58.59375,
      "v": 127
    },
    {
      "midi": 57,
      "hit": false,
      "t": 172968.75,
      "d": 70.3125,
      "v": 91
    },
    {
      "midi": 62,
      "hit": false,
      "t": 172968.75,
      "d": 97.65625,
      "v": 117
    },
    {
      "midi": 66,
      "hit": false,
      "t": 172968.75,
      "d": 125,
      "v": 104
    },
    {
      "midi": 55,
      "hit": false,
      "t": 173437.5,
      "d": 285.15625,
      "v": 127
    },
    {
      "midi": 43,
      "hit": false,
      "t": 173437.5,
      "d": 500,
      "v": 127
    },
    {
      "midi": 67,
      "hit": false,
      "t": 173437.5,
      "d": 937.5,
      "v": 127
    },
    {
      "midi": 55,
      "hit": false,
      "t": 173906.25,
      "d": 414.0625,
      "v": 127
    },
    {
      "midi": 43,
      "hit": false,
      "t": 174140.625,
      "d": 105.46875,
      "v": 127
    },
    {
      "midi": 45,
      "hit": false,
      "t": 174375,
      "d": 468.75,
      "v": 127
    },
    {
      "midi": 69,
      "hit": false,
      "t": 174375,
      "d": 917.96875,
      "v": 127
    },
    {
      "midi": 57,
      "hit": false,
      "t": 174843.75,
      "d": 375,
      "v": 127
    },
    {
      "midi": 45,
      "hit": false,
      "t": 175078.125,
      "d": 82.03125,
      "v": 127
    },
    {
      "midi": 46,
      "hit": false,
      "t": 175312.5,
      "d": 437.5,
      "v": 127
    },
    {
      "midi": 70,
      "hit": false,
      "t": 175312.5,
      "d": 882.8125,
      "v": 104
    },
    {
      "midi": 58,
      "hit": false,
      "t": 175781.25,
      "d": 375,
      "v": 104
    },
    {
      "midi": 46,
      "hit": false,
      "t": 176015.625,
      "d": 101.5625,
      "v": 110
    },
    {
      "midi": 48,
      "hit": false,
      "t": 176250,
      "d": 527.34375,
      "v": 127
    },
    {
      "midi": 72,
      "hit": false,
      "t": 176250,
      "d": 796.875,
      "v": 127
    },
    {
      "midi": 60,
      "hit": false,
      "t": 176718.75,
      "d": 316.40625,
      "v": 127
    },
    {
      "midi": 50,
      "hit": false,
      "t": 177187.5,
      "d": 1738.28125,
      "v": 127
    },
    {
      "midi": 62,
      "hit": false,
      "t": 177421.875,
      "d": 148.4375,
      "v": 67
    },
    {
      "midi": 67,
      "hit": false,
      "t": 177656.25,
      "d": 132.8125,
      "v": 88
    },
    {
      "midi": 69,
      "hit": false,
      "t": 177890.625,
      "d": 140.625,
      "v": 77
    },
    {
      "midi": 74,
      "hit": false,
      "t": 178125,
      "d": 93.75,
      "v": 77
    },
    {
      "midi": 79,
      "hit": false,
      "t": 178359.375,
      "d": 160.15625,
      "v": 50
    },
    {
      "midi": 81,
      "hit": false,
      "t": 178593.75,
      "d": 93.75,
      "v": 51
    },
    {
      "midi": 84,
      "hit": false,
      "t": 178828.125,
      "d": 230.46875,
      "v": 49
    },
    {
      "midi": 86,
      "hit": false,
      "t": 179062.5,
      "d": 929.6875,
      "v": 52
    },
    {
      "midi": 31,
      "hit": false,
      "t": 180937.5,
      "d": 1101.5625,
      "v": 87
    },
    {
      "midi": 43,
      "hit": false,
      "t": 180937.5,
      "d": 1796.875,
      "v": 102
    },
    {
      "midi": 65,
      "hit": false,
      "t": 180937.5,
      "d": 324.21875,
      "v": 119
    },
    {
      "midi": 60,
      "hit": false,
      "t": 181054.6875,
      "d": 207.03125,
      "v": 99
    },
    {
      "midi": 57,
      "hit": false,
      "t": 181171.875,
      "d": 140.625,
      "v": 119
    },
    {
      "midi": 53,
      "hit": false,
      "t": 181289.0625,
      "d": 113.28125,
      "v": 107
    },
    {
      "midi": 65,
      "hit": false,
      "t": 181406.25,
      "d": 281.25,
      "v": 127
    },
    {
      "midi": 60,
      "hit": false,
      "t": 181523.4375,
      "d": 160.15625,
      "v": 119
    },
    {
      "midi": 57,
      "hit": false,
      "t": 181640.625,
      "d": 136.71875,
      "v": 119
    },
    {
      "midi": 53,
      "hit": false,
      "t": 181757.8125,
      "d": 117.1875,
      "v": 127
    },
    {
      "midi": 65,
      "hit": false,
      "t": 181875,
      "d": 269.53125,
      "v": 123
    },
    {
      "midi": 60,
      "hit": false,
      "t": 181992.1875,
      "d": 148.4375,
      "v": 107
    },
    {
      "midi": 57,
      "hit": false,
      "t": 182109.375,
      "d": 144.53125,
      "v": 107
    },
    {
      "midi": 53,
      "hit": false,
      "t": 182226.5625,
      "d": 97.65625,
      "v": 115
    },
    {
      "midi": 31,
      "hit": false,
      "t": 182343.75,
      "d": 410.15625,
      "v": 106
    },
    {
      "midi": 65,
      "hit": false,
      "t": 182343.75,
      "d": 335.9375,
      "v": 119
    },
    {
      "midi": 62,
      "hit": false,
      "t": 182460.9375,
      "d": 214.84375,
      "v": 107
    },
    {
      "midi": 59,
      "hit": false,
      "t": 182578.125,
      "d": 136.71875,
      "v": 111
    },
    {
      "midi": 55,
      "hit": false,
      "t": 182695.3125,
      "d": 97.65625,
      "v": 111
    },
    {
      "midi": 65,
      "hit": false,
      "t": 182812.5,
      "d": 234.375,
      "v": 111
    },
    {
      "midi": 62,
      "hit": false,
      "t": 182929.6875,
      "d": 140.625,
      "v": 111
    },
    {
      "midi": 59,
      "hit": false,
      "t": 183046.875,
      "d": 132.8125,
      "v": 99
    },
    {
      "midi": 55,
      "hit": false,
      "t": 183164.0625,
      "d": 97.65625,
      "v": 91
    },
    {
      "midi": 65,
      "hit": false,
      "t": 183281.25,
      "d": 199.21875,
      "v": 99
    },
    {
      "midi": 62,
      "hit": false,
      "t": 183398.4375,
      "d": 113.28125,
      "v": 99
    },
    {
      "midi": 59,
      "hit": false,
      "t": 183515.625,
      "d": 132.8125,
      "v": 83
    },
    {
      "midi": 48,
      "hit": false,
      "t": 183632.8125,
      "d": 2144.53125,
      "v": 97
    },
    {
      "midi": 55,
      "hit": false,
      "t": 183632.8125,
      "d": 97.65625,
      "v": 103
    },
    {
      "midi": 36,
      "hit": false,
      "t": 183750,
      "d": 1246.09375,
      "v": 127
    },
    {
      "midi": 65,
      "hit": false,
      "t": 183750,
      "d": 253.90625,
      "v": 127
    },
    {
      "midi": 62,
      "hit": false,
      "t": 183867.1875,
      "d": 160.15625,
      "v": 111
    },
    {
      "midi": 58,
      "hit": false,
      "t": 183984.375,
      "d": 148.4375,
      "v": 87
    },
    {
      "midi": 55,
      "hit": false,
      "t": 184101.5625,
      "d": 113.28125,
      "v": 75
    },
    {
      "midi": 65,
      "hit": false,
      "t": 184218.75,
      "d": 160.15625,
      "v": 103
    },
    {
      "midi": 62,
      "hit": false,
      "t": 184335.9375,
      "d": 160.15625,
      "v": 91
    },
    {
      "midi": 58,
      "hit": false,
      "t": 184453.125,
      "d": 144.53125,
      "v": 87
    },
    {
      "midi": 55,
      "hit": false,
      "t": 184570.3125,
      "d": 125,
      "v": 99
    },
    {
      "midi": 65,
      "hit": false,
      "t": 184687.5,
      "d": 125,
      "v": 99
    },
    {
      "midi": 62,
      "hit": false,
      "t": 184804.6875,
      "d": 78.125,
      "v": 107
    },
    {
      "midi": 58,
      "hit": false,
      "t": 184921.875,
      "d": 136.71875,
      "v": 95
    },
    {
      "midi": 55,
      "hit": false,
      "t": 185039.0625,
      "d": 74.21875,
      "v": 99
    },
    {
      "midi": 36,
      "hit": false,
      "t": 185156.25,
      "d": 945.3125,
      "v": 34
    },
    {
      "midi": 63,
      "hit": false,
      "t": 185156.25,
      "d": 343.75,
      "v": 127
    },
    {
      "midi": 58,
      "hit": false,
      "t": 185273.4375,
      "d": 152.34375,
      "v": 107
    },
    {
      "midi": 55,
      "hit": false,
      "t": 185390.625,
      "d": 187.5,
      "v": 107
    },
    {
      "midi": 51,
      "hit": false,
      "t": 185507.8125,
      "d": 117.1875,
      "v": 95
    },
    {
      "midi": 63,
      "hit": false,
      "t": 185625,
      "d": 226.5625,
      "v": 95
    },
    {
      "midi": 58,
      "hit": false,
      "t": 185742.1875,
      "d": 121.09375,
      "v": 103
    },
    {
      "midi": 55,
      "hit": false,
      "t": 185859.375,
      "d": 128.90625,
      "v": 95
    },
    {
      "midi": 51,
      "hit": false,
      "t": 185976.5625,
      "d": 160.15625,
      "v": 95
    },
    {
      "midi": 48,
      "hit": false,
      "t": 186093.75,
      "d": 50.78125,
      "v": 85
    },
    {
      "midi": 63,
      "hit": false,
      "t": 186093.75,
      "d": 207.03125,
      "v": 103
    },
    {
      "midi": 58,
      "hit": false,
      "t": 186210.9375,
      "d": 117.1875,
      "v": 95
    },
    {
      "midi": 55,
      "hit": false,
      "t": 186328.125,
      "d": 105.46875,
      "v": 95
    },
    {
      "midi": 51,
      "hit": false,
      "t": 186445.3125,
      "d": 70.3125,
      "v": 103
    },
    {
      "midi": 41,
      "hit": false,
      "t": 186562.5,
      "d": 1960.9375,
      "v": 108
    },
    {
      "midi": 29,
      "hit": false,
      "t": 186562.5,
      "d": 2324.21875,
      "v": 127
    },
    {
      "midi": 63,
      "hit": false,
      "t": 186562.5,
      "d": 195.3125,
      "v": 127
    },
    {
      "midi": 60,
      "hit": false,
      "t": 186679.6875,
      "d": 140.625,
      "v": 103
    },
    {
      "midi": 57,
      "hit": false,
      "t": 186796.875,
      "d": 121.09375,
      "v": 95
    },
    {
      "midi": 53,
      "hit": false,
      "t": 186914.0625,
      "d": 121.09375,
      "v": 103
    },
    {
      "midi": 63,
      "hit": false,
      "t": 187031.25,
      "d": 136.71875,
      "v": 111
    },
    {
      "midi": 60,
      "hit": false,
      "t": 187148.4375,
      "d": 105.46875,
      "v": 79
    },
    {
      "midi": 57,
      "hit": false,
      "t": 187265.625,
      "d": 97.65625,
      "v": 99
    },
    {
      "midi": 53,
      "hit": false,
      "t": 187382.8125,
      "d": 128.90625,
      "v": 103
    },
    {
      "midi": 63,
      "hit": false,
      "t": 187500,
      "d": 148.4375,
      "v": 99
    },
    {
      "midi": 60,
      "hit": false,
      "t": 187617.1875,
      "d": 101.5625,
      "v": 99
    },
    {
      "midi": 57,
      "hit": false,
      "t": 187734.375,
      "d": 113.28125,
      "v": 79
    },
    {
      "midi": 53,
      "hit": false,
      "t": 187851.5625,
      "d": 148.4375,
      "v": 95
    },
    {
      "midi": 65,
      "hit": false,
      "t": 187968.75,
      "d": 296.875,
      "v": 123
    },
    {
      "midi": 60,
      "hit": false,
      "t": 188085.9375,
      "d": 179.6875,
      "v": 111
    },
    {
      "midi": 57,
      "hit": false,
      "t": 188203.125,
      "d": 160.15625,
      "v": 99
    },
    {
      "midi": 53,
      "hit": false,
      "t": 188320.3125,
      "d": 113.28125,
      "v": 99
    },
    {
      "midi": 65,
      "hit": false,
      "t": 188437.5,
      "d": 246.09375,
      "v": 91
    },
    {
      "midi": 60,
      "hit": false,
      "t": 188554.6875,
      "d": 121.09375,
      "v": 107
    },
    {
      "midi": 57,
      "hit": false,
      "t": 188671.875,
      "d": 109.375,
      "v": 87
    },
    {
      "midi": 53,
      "hit": false,
      "t": 188789.0625,
      "d": 156.25,
      "v": 107
    },
    {
      "midi": 41,
      "hit": false,
      "t": 188906.25,
      "d": 50.78125,
      "v": 90
    },
    {
      "midi": 63,
      "hit": false,
      "t": 188906.25,
      "d": 175.78125,
      "v": 119
    },
    {
      "midi": 57,
      "hit": false,
      "t": 189023.4375,
      "d": 214.84375,
      "v": 107
    },
    {
      "midi": 46,
      "hit": false,
      "t": 189257.8125,
      "d": 1230.46875,
      "v": 106
    },
    {
      "midi": 53,
      "hit": false,
      "t": 189257.8125,
      "d": 93.75,
      "v": 91
    },
    {
      "midi": 34,
      "hit": false,
      "t": 189375,
      "d": 2152.34375,
      "v": 123
    },
    {
      "midi": 63,
      "hit": false,
      "t": 189375,
      "d": 136.71875,
      "v": 119
    },
    {
      "midi": 58,
      "hit": false,
      "t": 189492.1875,
      "d": 101.5625,
      "v": 99
    },
    {
      "midi": 53,
      "hit": false,
      "t": 189609.375,
      "d": 121.09375,
      "v": 111
    },
    {
      "midi": 51,
      "hit": false,
      "t": 189726.5625,
      "d": 93.75,
      "v": 87
    },
    {
      "midi": 63,
      "hit": false,
      "t": 189843.75,
      "d": 136.71875,
      "v": 103
    },
    {
      "midi": 58,
      "hit": false,
      "t": 189960.9375,
      "d": 93.75,
      "v": 103
    },
    {
      "midi": 53,
      "hit": false,
      "t": 190078.125,
      "d": 148.4375,
      "v": 95
    },
    {
      "midi": 51,
      "hit": false,
      "t": 190195.3125,
      "d": 117.1875,
      "v": 71
    },
    {
      "midi": 63,
      "hit": false,
      "t": 190312.5,
      "d": 148.4375,
      "v": 95
    },
    {
      "midi": 58,
      "hit": false,
      "t": 190429.6875,
      "d": 156.25,
      "v": 99
    },
    {
      "midi": 53,
      "hit": false,
      "t": 190546.875,
      "d": 175.78125,
      "v": 83
    },
    {
      "midi": 51,
      "hit": false,
      "t": 190664.0625,
      "d": 125,
      "v": 83
    },
    {
      "midi": 46,
      "hit": false,
      "t": 190781.25,
      "d": 660.15625,
      "v": 84
    },
    {
      "midi": 62,
      "hit": false,
      "t": 190781.25,
      "d": 273.4375,
      "v": 115
    },
    {
      "midi": 58,
      "hit": false,
      "t": 190898.4375,
      "d": 160.15625,
      "v": 111
    },
    {
      "midi": 53,
      "hit": false,
      "t": 191015.625,
      "d": 183.59375,
      "v": 87
    },
    {
      "midi": 50,
      "hit": false,
      "t": 191132.8125,
      "d": 97.65625,
      "v": 83
    },
    {
      "midi": 62,
      "hit": false,
      "t": 191250,
      "d": 148.4375,
      "v": 99
    },
    {
      "midi": 58,
      "hit": false,
      "t": 191367.1875,
      "d": 140.625,
      "v": 91
    },
    {
      "midi": 53,
      "hit": false,
      "t": 191484.375,
      "d": 136.71875,
      "v": 87
    },
    {
      "midi": 50,
      "hit": false,
      "t": 191601.5625,
      "d": 128.90625,
      "v": 79
    },
    {
      "midi": 34,
      "hit": false,
      "t": 191718.75,
      "d": 39.0625,
      "v": 82
    },
    {
      "midi": 46,
      "hit": false,
      "t": 191718.75,
      "d": 54.6875,
      "v": 91
    },
    {
      "midi": 62,
      "hit": false,
      "t": 191718.75,
      "d": 152.34375,
      "v": 95
    },
    {
      "midi": 58,
      "hit": false,
      "t": 191835.9375,
      "d": 140.625,
      "v": 87
    },
    {
      "midi": 53,
      "hit": false,
      "t": 191953.125,
      "d": 156.25,
      "v": 79
    },
    {
      "midi": 50,
      "hit": false,
      "t": 192070.3125,
      "d": 97.65625,
      "v": 91
    },
    {
      "midi": 44,
      "hit": false,
      "t": 192187.5,
      "d": 1320.3125,
      "v": 118
    },
    {
      "midi": 32,
      "hit": false,
      "t": 192187.5,
      "d": 2066.40625,
      "v": 118
    },
    {
      "midi": 60,
      "hit": false,
      "t": 192187.5,
      "d": 246.09375,
      "v": 123
    },
    {
      "midi": 56,
      "hit": false,
      "t": 192304.6875,
      "d": 195.3125,
      "v": 55
    },
    {
      "midi": 51,
      "hit": false,
      "t": 192421.875,
      "d": 113.28125,
      "v": 99
    },
    {
      "midi": 48,
      "hit": false,
      "t": 192539.0625,
      "d": 97.65625,
      "v": 99
    },
    {
      "midi": 60,
      "hit": false,
      "t": 192656.25,
      "d": 136.71875,
      "v": 99
    },
    {
      "midi": 56,
      "hit": false,
      "t": 192773.4375,
      "d": 128.90625,
      "v": 87
    },
    {
      "midi": 51,
      "hit": false,
      "t": 192890.625,
      "d": 140.625,
      "v": 59
    },
    {
      "midi": 48,
      "hit": false,
      "t": 193007.8125,
      "d": 101.5625,
      "v": 103
    },
    {
      "midi": 60,
      "hit": false,
      "t": 193125,
      "d": 136.71875,
      "v": 107
    },
    {
      "midi": 56,
      "hit": false,
      "t": 193242.1875,
      "d": 109.375,
      "v": 99
    },
    {
      "midi": 51,
      "hit": false,
      "t": 193359.375,
      "d": 105.46875,
      "v": 87
    },
    {
      "midi": 48,
      "hit": false,
      "t": 193476.5625,
      "d": 23.4375,
      "v": 95
    },
    {
      "midi": 44,
      "hit": false,
      "t": 193593.75,
      "d": 617.1875,
      "v": 75
    },
    {
      "midi": 63,
      "hit": false,
      "t": 193593.75,
      "d": 246.09375,
      "v": 119
    },
    {
      "midi": 60,
      "hit": false,
      "t": 193710.9375,
      "d": 136.71875,
      "v": 103
    },
    {
      "midi": 56,
      "hit": false,
      "t": 193828.125,
      "d": 117.1875,
      "v": 95
    },
    {
      "midi": 51,
      "hit": false,
      "t": 193945.3125,
      "d": 39.0625,
      "v": 95
    },
    {
      "midi": 60,
      "hit": false,
      "t": 194062.5,
      "d": 261.71875,
      "v": 115
    },
    {
      "midi": 56,
      "hit": false,
      "t": 194179.6875,
      "d": 148.4375,
      "v": 95
    },
    {
      "midi": 51,
      "hit": false,
      "t": 194296.875,
      "d": 144.53125,
      "v": 91
    },
    {
      "midi": 48,
      "hit": false,
      "t": 194414.0625,
      "d": 58.59375,
      "v": 95
    },
    {
      "midi": 32,
      "hit": false,
      "t": 194531.25,
      "d": 70.3125,
      "v": 116
    },
    {
      "midi": 44,
      "hit": false,
      "t": 194531.25,
      "d": 78.125,
      "v": 112
    },
    {
      "midi": 60,
      "hit": false,
      "t": 194531.25,
      "d": 269.53125,
      "v": 115
    },
    {
      "midi": 56,
      "hit": false,
      "t": 194648.4375,
      "d": 242.1875,
      "v": 79
    },
    {
      "midi": 51,
      "hit": false,
      "t": 194765.625,
      "d": 160.15625,
      "v": 95
    },
    {
      "midi": 48,
      "hit": false,
      "t": 194882.8125,
      "d": 70.3125,
      "v": 99
    },
    {
      "midi": 43,
      "hit": false,
      "t": 195000,
      "d": 7.8125,
      "v": 110
    },
    {
      "midi": 45,
      "hit": false,
      "t": 195000,
      "d": 2144.53125,
      "v": 117
    },
    {
      "midi": 33,
      "hit": false,
      "t": 195000,
      "d": 2199.21875,
      "v": 115
    },
    {
      "midi": 60,
      "hit": false,
      "t": 195000,
      "d": 273.4375,
      "v": 115
    },
    {
      "midi": 55,
      "hit": false,
      "t": 195117.1875,
      "d": 160.15625,
      "v": 95
    },
    {
      "midi": 51,
      "hit": false,
      "t": 195234.375,
      "d": 128.90625,
      "v": 75
    },
    {
      "midi": 48,
      "hit": false,
      "t": 195351.5625,
      "d": 54.6875,
      "v": 111
    },
    {
      "midi": 60,
      "hit": false,
      "t": 195468.75,
      "d": 304.6875,
      "v": 115
    },
    {
      "midi": 55,
      "hit": false,
      "t": 195585.9375,
      "d": 171.875,
      "v": 75
    },
    {
      "midi": 51,
      "hit": false,
      "t": 195703.125,
      "d": 152.34375,
      "v": 87
    },
    {
      "midi": 48,
      "hit": false,
      "t": 195820.3125,
      "d": 85.9375,
      "v": 83
    },
    {
      "midi": 60,
      "hit": false,
      "t": 195937.5,
      "d": 132.8125,
      "v": 99
    },
    {
      "midi": 55,
      "hit": false,
      "t": 196054.6875,
      "d": 101.5625,
      "v": 103
    },
    {
      "midi": 51,
      "hit": false,
      "t": 196171.875,
      "d": 78.125,
      "v": 91
    },
    {
      "midi": 48,
      "hit": false,
      "t": 196289.0625,
      "d": 23.4375,
      "v": 99
    },
    {
      "midi": 63,
      "hit": false,
      "t": 196406.25,
      "d": 167.96875,
      "v": 127
    },
    {
      "midi": 60,
      "hit": false,
      "t": 196523.4375,
      "d": 101.5625,
      "v": 95
    },
    {
      "midi": 55,
      "hit": false,
      "t": 196640.625,
      "d": 93.75,
      "v": 107
    },
    {
      "midi": 51,
      "hit": false,
      "t": 196757.8125,
      "d": 31.25,
      "v": 79
    },
    {
      "midi": 60,
      "hit": false,
      "t": 196875,
      "d": 308.59375,
      "v": 115
    },
    {
      "midi": 55,
      "hit": false,
      "t": 196992.1875,
      "d": 195.3125,
      "v": 67
    },
    {
      "midi": 51,
      "hit": false,
      "t": 197109.375,
      "d": 136.71875,
      "v": 63
    },
    {
      "midi": 48,
      "hit": false,
      "t": 197226.5625,
      "d": 58.59375,
      "v": 111
    },
    {
      "midi": 45,
      "hit": false,
      "t": 197343.75,
      "d": 46.875,
      "v": 115
    },
    {
      "midi": 33,
      "hit": false,
      "t": 197343.75,
      "d": 50.78125,
      "v": 110
    },
    {
      "midi": 60,
      "hit": false,
      "t": 197343.75,
      "d": 234.375,
      "v": 115
    },
    {
      "midi": 55,
      "hit": false,
      "t": 197460.9375,
      "d": 136.71875,
      "v": 103
    },
    {
      "midi": 51,
      "hit": false,
      "t": 197578.125,
      "d": 85.9375,
      "v": 87
    },
    {
      "midi": 48,
      "hit": false,
      "t": 197695.3125,
      "d": 62.5,
      "v": 103
    },
    {
      "midi": 38,
      "hit": false,
      "t": 197812.5,
      "d": 1156.25,
      "v": 120
    },
    {
      "midi": 50,
      "hit": false,
      "t": 197812.5,
      "d": 1300.78125,
      "v": 126
    },
    {
      "midi": 62,
      "hit": false,
      "t": 197812.5,
      "d": 277.34375,
      "v": 127
    },
    {
      "midi": 57,
      "hit": false,
      "t": 197929.6875,
      "d": 144.53125,
      "v": 79
    },
    {
      "midi": 54,
      "hit": false,
      "t": 198046.875,
      "d": 140.625,
      "v": 83
    },
    {
      "midi": 50,
      "hit": false,
      "t": 198164.0625,
      "d": 74.21875,
      "v": 87
    },
    {
      "midi": 62,
      "hit": false,
      "t": 198281.25,
      "d": 218.75,
      "v": 91
    },
    {
      "midi": 57,
      "hit": false,
      "t": 198398.4375,
      "d": 117.1875,
      "v": 91
    },
    {
      "midi": 54,
      "hit": false,
      "t": 198515.625,
      "d": 136.71875,
      "v": 67
    },
    {
      "midi": 50,
      "hit": false,
      "t": 198632.8125,
      "d": 101.5625,
      "v": 87
    },
    {
      "midi": 62,
      "hit": false,
      "t": 198750,
      "d": 207.03125,
      "v": 107
    },
    {
      "midi": 57,
      "hit": false,
      "t": 198867.1875,
      "d": 136.71875,
      "v": 91
    },
    {
      "midi": 38,
      "hit": false,
      "t": 198984.375,
      "d": 1492.1875,
      "v": 57
    },
    {
      "midi": 54,
      "hit": false,
      "t": 198984.375,
      "d": 148.4375,
      "v": 75
    },
    {
      "midi": 50,
      "hit": false,
      "t": 199101.5625,
      "d": 85.9375,
      "v": 91
    },
    {
      "midi": 50,
      "hit": false,
      "t": 199218.75,
      "d": 2542.96875,
      "v": 117
    },
    {
      "midi": 60,
      "hit": false,
      "t": 199218.75,
      "d": 253.90625,
      "v": 127
    },
    {
      "midi": 57,
      "hit": false,
      "t": 199335.9375,
      "d": 148.4375,
      "v": 95
    },
    {
      "midi": 54,
      "hit": false,
      "t": 199453.125,
      "d": 121.09375,
      "v": 83
    },
    {
      "midi": 48,
      "hit": false,
      "t": 199570.3125,
      "d": 70.3125,
      "v": 83
    },
    {
      "midi": 60,
      "hit": false,
      "t": 199687.5,
      "d": 187.5,
      "v": 87
    },
    {
      "midi": 57,
      "hit": false,
      "t": 199804.6875,
      "d": 101.5625,
      "v": 99
    },
    {
      "midi": 54,
      "hit": false,
      "t": 199921.875,
      "d": 144.53125,
      "v": 95
    },
    {
      "midi": 48,
      "hit": false,
      "t": 200039.0625,
      "d": 113.28125,
      "v": 79
    },
    {
      "midi": 60,
      "hit": false,
      "t": 200156.25,
      "d": 140.625,
      "v": 103
    },
    {
      "midi": 57,
      "hit": false,
      "t": 200273.4375,
      "d": 82.03125,
      "v": 83
    },
    {
      "midi": 54,
      "hit": false,
      "t": 200390.625,
      "d": 82.03125,
      "v": 83
    },
    {
      "midi": 48,
      "hit": false,
      "t": 200507.8125,
      "d": 78.125,
      "v": 95
    },
    {
      "midi": 38,
      "hit": false,
      "t": 200625,
      "d": 1558.59375,
      "v": 99
    },
    {
      "midi": 58,
      "hit": false,
      "t": 200625,
      "d": 132.8125,
      "v": 124
    },
    {
      "midi": 54,
      "hit": false,
      "t": 200742.1875,
      "d": 58.59375,
      "v": 79
    },
    {
      "midi": 50,
      "hit": false,
      "t": 200859.375,
      "d": 109.375,
      "v": 87
    },
    {
      "midi": 46,
      "hit": false,
      "t": 200976.5625,
      "d": 15.625,
      "v": 95
    },
    {
      "midi": 58,
      "hit": false,
      "t": 201093.75,
      "d": 109.375,
      "v": 95
    },
    {
      "midi": 54,
      "hit": false,
      "t": 201210.9375,
      "d": 97.65625,
      "v": 59
    },
    {
      "midi": 50,
      "hit": false,
      "t": 201328.125,
      "d": 105.46875,
      "v": 91
    },
    {
      "midi": 46,
      "hit": false,
      "t": 201445.3125,
      "d": 70.3125,
      "v": 91
    },
    {
      "midi": 58,
      "hit": false,
      "t": 201562.5,
      "d": 152.34375,
      "v": 124
    },
    {
      "midi": 54,
      "hit": false,
      "t": 201679.6875,
      "d": 156.25,
      "v": 95
    },
    {
      "midi": 50,
      "hit": false,
      "t": 201796.875,
      "d": 125,
      "v": 95
    },
    {
      "midi": 46,
      "hit": false,
      "t": 201914.0625,
      "d": 54.6875,
      "v": 79
    },
    {
      "midi": 50,
      "hit": false,
      "t": 202031.25,
      "d": 140.625,
      "v": 83
    },
    {
      "midi": 57,
      "hit": false,
      "t": 202031.25,
      "d": 238.28125,
      "v": 127
    },
    {
      "midi": 54,
      "hit": false,
      "t": 202148.4375,
      "d": 234.375,
      "v": 99
    },
    {
      "midi": 50,
      "hit": false,
      "t": 202265.625,
      "d": 148.4375,
      "v": 95
    },
    {
      "midi": 45,
      "hit": false,
      "t": 202382.8125,
      "d": 62.5,
      "v": 79
    },
    {
      "midi": 57,
      "hit": false,
      "t": 202500,
      "d": 128.90625,
      "v": 75
    },
    {
      "midi": 54,
      "hit": false,
      "t": 202617.1875,
      "d": 207.03125,
      "v": 91
    },
    {
      "midi": 50,
      "hit": false,
      "t": 202734.375,
      "d": 277.34375,
      "v": 79
    },
    {
      "midi": 57,
      "hit": false,
      "t": 202968.75,
      "d": 89.84375,
      "v": 91
    },
    {
      "midi": 74,
      "hit": false,
      "t": 203437.5,
      "d": 773.4375,
      "v": 86
    },
    {
      "midi": 43,
      "hit": false,
      "t": 203437.5,
      "d": 1144.53125,
      "v": 83
    },
    {
      "midi": 50,
      "hit": false,
      "t": 203906.25,
      "d": 730.46875,
      "v": 67
    },
    {
      "midi": 58,
      "hit": false,
      "t": 204140.625,
      "d": 609.375,
      "v": 63
    },
    {
      "midi": 70,
      "hit": false,
      "t": 204375,
      "d": 167.96875,
      "v": 104
    },
    {
      "midi": 69,
      "hit": false,
      "t": 204609.375,
      "d": 199.21875,
      "v": 83
    },
    {
      "midi": 67,
      "hit": false,
      "t": 204843.75,
      "d": 328.125,
      "v": 127
    },
    {
      "midi": 58,
      "hit": false,
      "t": 205078.125,
      "d": 78.125,
      "v": 71
    },
    {
      "midi": 67,
      "hit": false,
      "t": 205312.5,
      "d": 253.90625,
      "v": 88
    },
    {
      "midi": 48,
      "hit": false,
      "t": 205312.5,
      "d": 1417.96875,
      "v": 75
    },
    {
      "midi": 55,
      "hit": false,
      "t": 205546.875,
      "d": 1195.3125,
      "v": 64
    },
    {
      "midi": 60,
      "hit": false,
      "t": 205781.25,
      "d": 1101.5625,
      "v": 97
    },
    {
      "midi": 62,
      "hit": false,
      "t": 206015.625,
      "d": 195.3125,
      "v": 86
    },
    {
      "midi": 63,
      "hit": false,
      "t": 206250,
      "d": 199.21875,
      "v": 110
    },
    {
      "midi": 67,
      "hit": false,
      "t": 206484.375,
      "d": 97.65625,
      "v": 83
    },
    {
      "midi": 72,
      "hit": false,
      "t": 206718.75,
      "d": 113.28125,
      "v": 108
    },
    {
      "midi": 70,
      "hit": false,
      "t": 206953.125,
      "d": 156.25,
      "v": 95
    },
    {
      "midi": 69,
      "hit": false,
      "t": 207187.5,
      "d": 500,
      "v": 71
    },
    {
      "midi": 53,
      "hit": false,
      "t": 207187.5,
      "d": 1050.78125,
      "v": 86
    },
    {
      "midi": 57,
      "hit": false,
      "t": 207421.875,
      "d": 1183.59375,
      "v": 73
    },
    {
      "midi": 60,
      "hit": false,
      "t": 207890.625,
      "d": 140.625,
      "v": 91
    },
    {
      "midi": 72,
      "hit": false,
      "t": 208125,
      "d": 136.71875,
      "v": 113
    },
    {
      "midi": 70,
      "hit": false,
      "t": 208359.375,
      "d": 152.34375,
      "v": 104
    },
    {
      "midi": 69,
      "hit": false,
      "t": 208593.75,
      "d": 132.8125,
      "v": 83
    },
    {
      "midi": 69,
      "hit": false,
      "t": 208828.125,
      "d": 808.59375,
      "v": 70
    },
    {
      "midi": 46,
      "hit": false,
      "t": 209062.5,
      "d": 1613.28125,
      "v": 65
    },
    {
      "midi": 53,
      "hit": false,
      "t": 209296.875,
      "d": 1015.625,
      "v": 88
    },
    {
      "midi": 58,
      "hit": false,
      "t": 209531.25,
      "d": 703.125,
      "v": 95
    },
    {
      "midi": 62,
      "hit": false,
      "t": 209765.625,
      "d": 85.9375,
      "v": 75
    },
    {
      "midi": 62,
      "hit": false,
      "t": 210000,
      "d": 164.0625,
      "v": 104
    },
    {
      "midi": 74,
      "hit": false,
      "t": 210015.625,
      "d": 156.25,
      "v": 88
    },
    {
      "midi": 60,
      "hit": false,
      "t": 210351.5625,
      "d": 121.09375,
      "v": 83
    },
    {
      "midi": 72,
      "hit": false,
      "t": 210359.375,
      "d": 136.71875,
      "v": 94
    },
    {
      "midi": 58,
      "hit": false,
      "t": 210644.53125,
      "d": 140.625,
      "v": 80
    },
    {
      "midi": 70,
      "hit": false,
      "t": 210652.34375,
      "d": 167.96875,
      "v": 83
    },
    {
      "midi": 55,
      "hit": false,
      "t": 210937.5,
      "d": 265.625,
      "v": 91
    },
    {
      "midi": 67,
      "hit": false,
      "t": 210937.5,
      "d": 277.34375,
      "v": 88
    },
    {
      "midi": 51,
      "hit": false,
      "t": 210937.5,
      "d": 445.3125,
      "v": 76
    },
    {
      "midi": 55,
      "hit": false,
      "t": 211406.25,
      "d": 898.4375,
      "v": 94
    },
    {
      "midi": 58,
      "hit": false,
      "t": 211640.625,
      "d": 859.375,
      "v": 87
    },
    {
      "midi": 62,
      "hit": false,
      "t": 211875,
      "d": 441.40625,
      "v": 83
    },
    {
      "midi": 70,
      "hit": false,
      "t": 212109.375,
      "d": 218.75,
      "v": 127
    },
    {
      "midi": 67,
      "hit": false,
      "t": 212343.75,
      "d": 109.375,
      "v": 88
    },
    {
      "midi": 51,
      "hit": false,
      "t": 212578.125,
      "d": 66.40625,
      "v": 83
    },
    {
      "midi": 67,
      "hit": false,
      "t": 212812.5,
      "d": 671.875,
      "v": 104
    },
    {
      "midi": 45,
      "hit": false,
      "t": 212812.5,
      "d": 1597.65625,
      "v": 91
    },
    {
      "midi": 52,
      "hit": false,
      "t": 213046.875,
      "d": 859.375,
      "v": 81
    },
    {
      "midi": 57,
      "hit": false,
      "t": 213281.25,
      "d": 511.71875,
      "v": 97
    },
    {
      "midi": 61,
      "hit": false,
      "t": 213515.625,
      "d": 277.34375,
      "v": 83
    },
    {
      "midi": 69,
      "hit": false,
      "t": 213750,
      "d": 785.15625,
      "v": 122
    },
    {
      "midi": 61,
      "hit": false,
      "t": 213984.375,
      "d": 316.40625,
      "v": 91
    },
    {
      "midi": 57,
      "hit": false,
      "t": 214218.75,
      "d": 429.6875,
      "v": 86
    },
    {
      "midi": 52,
      "hit": false,
      "t": 214453.125,
      "d": 234.375,
      "v": 86
    },
    {
      "midi": 66,
      "hit": false,
      "t": 214687.5,
      "d": 734.375,
      "v": 100
    },
    {
      "midi": 50,
      "hit": false,
      "t": 214687.5,
      "d": 1660.15625,
      "v": 97
    },
    {
      "midi": 54,
      "hit": false,
      "t": 214921.875,
      "d": 968.75,
      "v": 71
    },
    {
      "midi": 57,
      "hit": false,
      "t": 215156.25,
      "d": 414.0625,
      "v": 73
    },
    {
      "midi": 62,
      "hit": false,
      "t": 215390.625,
      "d": 175.78125,
      "v": 88
    },
    {
      "midi": 67,
      "hit": false,
      "t": 215625,
      "d": 722.65625,
      "v": 127
    },
    {
      "midi": 62,
      "hit": false,
      "t": 215859.375,
      "d": 207.03125,
      "v": 108
    },
    {
      "midi": 57,
      "hit": false,
      "t": 216093.75,
      "d": 324.21875,
      "v": 88
    },
    {
      "midi": 62,
      "hit": false,
      "t": 216328.125,
      "d": 167.96875,
      "v": 94
    },
    {
      "midi": 69,
      "hit": false,
      "t": 216562.5,
      "d": 500,
      "v": 101
    },
    {
      "midi": 57,
      "hit": false,
      "t": 216796.875,
      "d": 296.875,
      "v": 91
    },
    {
      "midi": 66,
      "hit": false,
      "t": 217031.25,
      "d": 246.09375,
      "v": 76
    },
    {
      "midi": 57,
      "hit": false,
      "t": 217265.625,
      "d": 316.40625,
      "v": 71
    },
    {
      "midi": 67,
      "hit": false,
      "t": 217500,
      "d": 238.28125,
      "v": 127
    },
    {
      "midi": 38,
      "hit": false,
      "t": 217500,
      "d": 636.71875,
      "v": 127
    },
    {
      "midi": 57,
      "hit": false,
      "t": 217734.375,
      "d": 191.40625,
      "v": 77
    },
    {
      "midi": 69,
      "hit": false,
      "t": 217968.75,
      "d": 148.4375,
      "v": 122
    },
    {
      "midi": 50,
      "hit": false,
      "t": 218203.125,
      "d": 50.78125,
      "v": 94
    },
    {
      "midi": 43,
      "hit": false,
      "t": 218437.5,
      "d": 378.90625,
      "v": 97
    },
    {
      "midi": 74,
      "hit": false,
      "t": 218437.5,
      "d": 601.5625,
      "v": 104
    },
    {
      "midi": 50,
      "hit": false,
      "t": 218671.875,
      "d": 218.75,
      "v": 88
    },
    {
      "midi": 58,
      "hit": false,
      "t": 218906.25,
      "d": 97.65625,
      "v": 87
    },
    {
      "midi": 62,
      "hit": false,
      "t": 219140.625,
      "d": 152.34375,
      "v": 77
    },
    {
      "midi": 67,
      "hit": false,
      "t": 219375,
      "d": 160.15625,
      "v": 122
    },
    {
      "midi": 69,
      "hit": false,
      "t": 219609.375,
      "d": 144.53125,
      "v": 122
    },
    {
      "midi": 70,
      "hit": false,
      "t": 219843.75,
      "d": 152.34375,
      "v": 95
    },
    {
      "midi": 67,
      "hit": false,
      "t": 220078.125,
      "d": 152.34375,
      "v": 94
    },
    {
      "midi": 75,
      "hit": false,
      "t": 220312.5,
      "d": 292.96875,
      "v": 95
    },
    {
      "midi": 48,
      "hit": false,
      "t": 220312.5,
      "d": 1347.65625,
      "v": 83
    },
    {
      "midi": 55,
      "hit": false,
      "t": 220546.875,
      "d": 1156.25,
      "v": 73
    },
    {
      "midi": 60,
      "hit": false,
      "t": 220781.25,
      "d": 328.125,
      "v": 101
    },
    {
      "midi": 65,
      "hit": false,
      "t": 221015.625,
      "d": 121.09375,
      "v": 86
    },
    {
      "midi": 77,
      "hit": false,
      "t": 221015.625,
      "d": 128.90625,
      "v": 104
    },
    {
      "midi": 60,
      "hit": false,
      "t": 221250,
      "d": 121.09375,
      "v": 79
    },
    {
      "midi": 67,
      "hit": false,
      "t": 221484.375,
      "d": 265.625,
      "v": 86
    },
    {
      "midi": 79,
      "hit": false,
      "t": 221484.375,
      "d": 296.875,
      "v": 97
    },
    {
      "midi": 60,
      "hit": false,
      "t": 221718.75,
      "d": 78.125,
      "v": 81
    },
    {
      "midi": 67,
      "hit": false,
      "t": 221953.125,
      "d": 531.25,
      "v": 94
    },
    {
      "midi": 79,
      "hit": false,
      "t": 221953.125,
      "d": 531.25,
      "v": 101
    },
    {
      "midi": 53,
      "hit": false,
      "t": 222187.5,
      "d": 1421.875,
      "v": 97
    },
    {
      "midi": 57,
      "hit": false,
      "t": 222421.875,
      "d": 636.71875,
      "v": 88
    },
    {
      "midi": 65,
      "hit": false,
      "t": 222656.25,
      "d": 410.15625,
      "v": 113
    },
    {
      "midi": 77,
      "hit": false,
      "t": 222890.625,
      "d": 140.625,
      "v": 117
    },
    {
      "midi": 57,
      "hit": false,
      "t": 223125,
      "d": 703.125,
      "v": 101
    },
    {
      "midi": 60,
      "hit": false,
      "t": 223359.375,
      "d": 539.0625,
      "v": 94
    },
    {
      "midi": 72,
      "hit": false,
      "t": 223593.75,
      "d": 199.21875,
      "v": 101
    },
    {
      "midi": 53,
      "hit": false,
      "t": 223828.125,
      "d": 93.75,
      "v": 104
    },
    {
      "midi": 74,
      "hit": false,
      "t": 224062.5,
      "d": 683.59375,
      "v": 101
    },
    {
      "midi": 46,
      "hit": false,
      "t": 224062.5,
      "d": 1437.5,
      "v": 80
    },
    {
      "midi": 53,
      "hit": false,
      "t": 224296.875,
      "d": 1175.78125,
      "v": 101
    },
    {
      "midi": 58,
      "hit": false,
      "t": 224531.25,
      "d": 640.625,
      "v": 80
    },
    {
      "midi": 62,
      "hit": false,
      "t": 224765.625,
      "d": 578.125,
      "v": 86
    },
    {
      "midi": 72,
      "hit": false,
      "t": 225000,
      "d": 156.25,
      "v": 127
    },
    {
      "midi": 70,
      "hit": false,
      "t": 225234.375,
      "d": 140.625,
      "v": 104
    },
    {
      "midi": 69,
      "hit": false,
      "t": 225468.75,
      "d": 199.21875,
      "v": 117
    },
    {
      "midi": 67,
      "hit": false,
      "t": 225703.125,
      "d": 921.875,
      "v": 117
    },
    {
      "midi": 51,
      "hit": false,
      "t": 225937.5,
      "d": 1296.875,
      "v": 83
    },
    {
      "midi": 55,
      "hit": false,
      "t": 226171.875,
      "d": 253.90625,
      "v": 86
    },
    {
      "midi": 58,
      "hit": false,
      "t": 226406.25,
      "d": 578.125,
      "v": 87
    },
    {
      "midi": 62,
      "hit": false,
      "t": 226640.625,
      "d": 292.96875,
      "v": 101
    },
    {
      "midi": 74,
      "hit": false,
      "t": 226875,
      "d": 148.4375,
      "v": 122
    },
    {
      "midi": 70,
      "hit": false,
      "t": 227109.375,
      "d": 125,
      "v": 104
    },
    {
      "midi": 67,
      "hit": false,
      "t": 227343.75,
      "d": 152.34375,
      "v": 83
    },
    {
      "midi": 62,
      "hit": false,
      "t": 227578.125,
      "d": 58.59375,
      "v": 81
    },
    {
      "midi": 45,
      "hit": false,
      "t": 227812.5,
      "d": 640.625,
      "v": 101
    },
    {
      "midi": 67,
      "hit": false,
      "t": 227812.5,
      "d": 664.0625,
      "v": 88
    },
    {
      "midi": 55,
      "hit": false,
      "t": 228046.875,
      "d": 445.3125,
      "v": 101
    },
    {
      "midi": 57,
      "hit": false,
      "t": 228281.25,
      "d": 433.59375,
      "v": 97
    },
    {
      "midi": 61,
      "hit": false,
      "t": 228515.625,
      "d": 187.5,
      "v": 104
    },
    {
      "midi": 50,
      "hit": false,
      "t": 228750,
      "d": 421.875,
      "v": 104
    },
    {
      "midi": 66,
      "hit": false,
      "t": 228750,
      "d": 820.3125,
      "v": 104
    },
    {
      "midi": 54,
      "hit": false,
      "t": 228984.375,
      "d": 347.65625,
      "v": 68
    },
    {
      "midi": 57,
      "hit": false,
      "t": 229218.75,
      "d": 390.625,
      "v": 94
    },
    {
      "midi": 60,
      "hit": false,
      "t": 229453.125,
      "d": 210.9375,
      "v": 97
    },
    {
      "midi": 43,
      "hit": false,
      "t": 229687.5,
      "d": 2812.5,
      "v": 122
    },
    {
      "midi": 50,
      "hit": false,
      "t": 229921.875,
      "d": 2578.125,
      "v": 104
    },
    {
      "midi": 55,
      "hit": false,
      "t": 230156.25,
      "d": 2343.75,
      "v": 122
    },
    {
      "midi": 57,
      "hit": false,
      "t": 230390.625,
      "d": 62.5,
      "v": 101
    },
    {
      "midi": 58,
      "hit": false,
      "t": 230625,
      "d": 42.96875,
      "v": 100
    },
    {
      "midi": 62,
      "hit": false,
      "t": 230859.375,
      "d": 50.78125,
      "v": 113
    },
    {
      "midi": 67,
      "hit": false,
      "t": 231093.75,
      "d": 46.875,
      "v": 104
    },
    {
      "midi": 69,
      "hit": false,
      "t": 231328.125,
      "d": 50.78125,
      "v": 91
    },
    {
      "midi": 74,
      "hit": false,
      "t": 231562.5,
      "d": 937.5,
      "v": 62
    },
    {
      "midi": 82,
      "hit": false,
      "t": 231613.28125,
      "d": 882.8125,
      "v": 68
    }
  ]
}