{
  "jsonPath": "Pop/Europop/Akcent/lets-talk-about-it.json",
  "path": "Pop\\Europop\\Akcent\\Lets Talk About It.mid",
  "name": "Lets Talk About It",
  "difficulty": "Advanced",
  "bpm": 127.00025400050801,
  "notes": [
    {
      "midi": 55,
      "hit": false,
      "t": 3779.52,
      "d": 1877.949,
      "v": 96
    },
    {
      "midi": 60,
      "hit": false,
      "t": 3779.52,
      "d": 1877.949,
      "v": 102
    },
    {
      "midi": 63,
      "hit": false,
      "t": 3779.52,
      "d": 1877.949,
      "v": 84
    },
    {
      "midi": 53,
      "hit": false,
      "t": 5669.28,
      "d": 1877.9489999999996,
      "v": 93
    },
    {
      "midi": 58,
      "hit": false,
      "t": 5669.28,
      "d": 1877.9489999999996,
      "v": 87
    },
    {
      "midi": 62,
      "hit": false,
      "t": 5669.28,
      "d": 1877.9489999999996,
      "v": 93
    },
    {
      "midi": 51,
      "hit": false,
      "t": 7559.039999999999,
      "d": 1877.9490000000005,
      "v": 82
    },
    {
      "midi": 56,
      "hit": false,
      "t": 7559.039999999999,
      "d": 1877.9490000000005,
      "v": 97
    },
    {
      "midi": 60,
      "hit": false,
      "t": 7559.039999999999,
      "d": 1877.9490000000005,
      "v": 100
    },
    {
      "midi": 53,
      "hit": false,
      "t": 9448.8,
      "d": 1877.9490000000005,
      "v": 90
    },
    {
      "midi": 58,
      "hit": false,
      "t": 9448.8,
      "d": 1877.9490000000005,
      "v": 82
    },
    {
      "midi": 62,
      "hit": false,
      "t": 9448.8,
      "d": 1877.9490000000005,
      "v": 86
    },
    {
      "midi": 79,
      "hit": false,
      "t": 12047.22,
      "d": 987.2027500000004,
      "v": 78
    },
    {
      "midi": 62,
      "hit": false,
      "t": 13228.32,
      "d": 234.2515000000003,
      "v": 84
    },
    {
      "midi": 63,
      "hit": false,
      "t": 13464.54,
      "d": 209.64524999999958,
      "v": 82
    },
    {
      "midi": 62,
      "hit": false,
      "t": 13700.76,
      "d": 229.3302500000009,
      "v": 108
    },
    {
      "midi": 63,
      "hit": false,
      "t": 13936.980000000001,
      "d": 224.40899999999965,
      "v": 87
    },
    {
      "midi": 79,
      "hit": false,
      "t": 13936.980000000001,
      "d": 1036.4152499999982,
      "v": 77
    },
    {
      "midi": 62,
      "hit": false,
      "t": 14173.2,
      "d": 239.17274999999972,
      "v": 105
    },
    {
      "midi": 63,
      "hit": false,
      "t": 14409.42,
      "d": 229.3302500000009,
      "v": 87
    },
    {
      "midi": 62,
      "hit": false,
      "t": 14645.640000000001,
      "d": 244.09399999999914,
      "v": 105
    },
    {
      "midi": 63,
      "hit": false,
      "t": 14881.86,
      "d": 199.80274999999892,
      "v": 84
    },
    {
      "midi": 79,
      "hit": false,
      "t": 15826.74,
      "d": 1095.4702500000003,
      "v": 80
    },
    {
      "midi": 62,
      "hit": false,
      "t": 17007.84,
      "d": 224.40899999999965,
      "v": 100
    },
    {
      "midi": 63,
      "hit": false,
      "t": 17244.06,
      "d": 224.40899999999965,
      "v": 87
    },
    {
      "midi": 62,
      "hit": false,
      "t": 17480.280000000002,
      "d": 214.56650000000081,
      "v": 108
    },
    {
      "midi": 63,
      "hit": false,
      "t": 17716.500000000004,
      "d": 204.72399999999834,
      "v": 87
    },
    {
      "midi": 79,
      "hit": false,
      "t": 17716.500000000004,
      "d": 1061.0215000000026,
      "v": 79
    },
    {
      "midi": 62,
      "hit": false,
      "t": 17952.72,
      "d": 244.09400000000096,
      "v": 97
    },
    {
      "midi": 63,
      "hit": false,
      "t": 18188.940000000002,
      "d": 209.6452500000014,
      "v": 93
    },
    {
      "midi": 62,
      "hit": false,
      "t": 18425.160000000003,
      "d": 224.40899999999965,
      "v": 93
    },
    {
      "midi": 63,
      "hit": false,
      "t": 18661.380000000005,
      "d": 214.56650000000081,
      "v": 97
    },
    {
      "midi": 62,
      "hit": false,
      "t": 20787.360000000004,
      "d": 234.2514999999985,
      "v": 111
    },
    {
      "midi": 63,
      "hit": false,
      "t": 21023.58,
      "d": 234.2514999999985,
      "v": 106
    },
    {
      "midi": 62,
      "hit": false,
      "t": 21259.8,
      "d": 239.17275000000154,
      "v": 118
    },
    {
      "midi": 63,
      "hit": false,
      "t": 21496.02,
      "d": 219.48775000000023,
      "v": 109
    },
    {
      "midi": 62,
      "hit": false,
      "t": 21732.24,
      "d": 239.17275000000154,
      "v": 111
    },
    {
      "midi": 63,
      "hit": false,
      "t": 21968.460000000003,
      "d": 209.6452500000014,
      "v": 108
    },
    {
      "midi": 62,
      "hit": false,
      "t": 22204.680000000004,
      "d": 224.40899999999965,
      "v": 105
    },
    {
      "midi": 63,
      "hit": false,
      "t": 22440.900000000005,
      "d": 204.72399999999834,
      "v": 111
    },
    {
      "midi": 62,
      "hit": false,
      "t": 24566.880000000005,
      "d": 229.33024999999907,
      "v": 105
    },
    {
      "midi": 63,
      "hit": false,
      "t": 24803.100000000002,
      "d": 229.33024999999907,
      "v": 103
    },
    {
      "midi": 62,
      "hit": false,
      "t": 25039.32,
      "d": 234.2514999999985,
      "v": 108
    },
    {
      "midi": 63,
      "hit": false,
      "t": 25275.539999999997,
      "d": 234.2514999999985,
      "v": 111
    },
    {
      "midi": 62,
      "hit": false,
      "t": 25511.759999999995,
      "d": 219.48775000000023,
      "v": 108
    },
    {
      "midi": 63,
      "hit": false,
      "t": 25747.979999999996,
      "d": 224.40899999999965,
      "v": 104
    },
    {
      "midi": 62,
      "hit": false,
      "t": 25984.199999999997,
      "d": 214.56650000000081,
      "v": 105
    },
    {
      "midi": 63,
      "hit": false,
      "t": 26220.42,
      "d": 185.03900000000067,
      "v": 109
    },
    {
      "midi": 56,
      "hit": false,
      "t": 41574.719999999994,
      "d": 1887.7914999999994,
      "v": 1
    },
    {
      "midi": 60,
      "hit": false,
      "t": 41574.719999999994,
      "d": 1887.7914999999994,
      "v": 1
    },
    {
      "midi": 63,
      "hit": false,
      "t": 41574.719999999994,
      "d": 1887.7914999999994,
      "v": 1
    },
    {
      "midi": 55,
      "hit": false,
      "t": 43464.479999999996,
      "d": 1887.7914999999994,
      "v": 1
    },
    {
      "midi": 58,
      "hit": false,
      "t": 43464.479999999996,
      "d": 1887.7914999999994,
      "v": 1
    },
    {
      "midi": 63,
      "hit": false,
      "t": 43464.479999999996,
      "d": 1887.7914999999994,
      "v": 1
    },
    {
      "midi": 56,
      "hit": false,
      "t": 45354.24,
      "d": 1887.7914999999994,
      "v": 1
    },
    {
      "midi": 60,
      "hit": false,
      "t": 45354.24,
      "d": 1887.7914999999994,
      "v": 1
    },
    {
      "midi": 63,
      "hit": false,
      "t": 45354.24,
      "d": 1887.7914999999994,
      "v": 1
    },
    {
      "midi": 53,
      "hit": false,
      "t": 47244,
      "d": 1887.7914999999994,
      "v": 1
    },
    {
      "midi": 58,
      "hit": false,
      "t": 47244,
      "d": 1887.7914999999994,
      "v": 1
    },
    {
      "midi": 62,
      "hit": false,
      "t": 47244,
      "d": 1887.7914999999994,
      "v": 1
    },
    {
      "midi": 67,
      "hit": false,
      "t": 55511.7,
      "d": 588.5815000000002,
      "v": 1
    },
    {
      "midi": 70,
      "hit": false,
      "t": 55511.7,
      "d": 588.5815000000002,
      "v": 1
    },
    {
      "midi": 65,
      "hit": false,
      "t": 56102.25,
      "d": 352.36149999999907,
      "v": 1
    },
    {
      "midi": 68,
      "hit": false,
      "t": 56102.25,
      "d": 352.36149999999907,
      "v": 1
    },
    {
      "midi": 63,
      "hit": false,
      "t": 56456.58,
      "d": 234.2514999999985,
      "v": 1
    },
    {
      "midi": 67,
      "hit": false,
      "t": 56456.58,
      "d": 234.2514999999985,
      "v": 1
    },
    {
      "midi": 58,
      "hit": false,
      "t": 56692.8,
      "d": 706.6915000000008,
      "v": 1
    },
    {
      "midi": 63,
      "hit": false,
      "t": 56692.8,
      "d": 706.6915000000008,
      "v": 1
    },
    {
      "midi": 67,
      "hit": false,
      "t": 57401.46000000001,
      "d": 588.5815000000002,
      "v": 1
    },
    {
      "midi": 70,
      "hit": false,
      "t": 57401.46000000001,
      "d": 588.5815000000002,
      "v": 1
    },
    {
      "midi": 65,
      "hit": false,
      "t": 57992.01000000001,
      "d": 352.36149999999907,
      "v": 1
    },
    {
      "midi": 68,
      "hit": false,
      "t": 57992.01000000001,
      "d": 352.36149999999907,
      "v": 1
    },
    {
      "midi": 63,
      "hit": false,
      "t": 58346.34000000001,
      "d": 234.2514999999985,
      "v": 1
    },
    {
      "midi": 67,
      "hit": false,
      "t": 58346.34000000001,
      "d": 234.2514999999985,
      "v": 1
    },
    {
      "midi": 58,
      "hit": false,
      "t": 58582.56000000001,
      "d": 706.6915000000008,
      "v": 1
    },
    {
      "midi": 63,
      "hit": false,
      "t": 58582.56000000001,
      "d": 706.6915000000008,
      "v": 1
    },
    {
      "midi": 67,
      "hit": false,
      "t": 59291.220000000016,
      "d": 588.5815000000002,
      "v": 1
    },
    {
      "midi": 70,
      "hit": false,
      "t": 59291.220000000016,
      "d": 588.5815000000002,
      "v": 1
    },
    {
      "midi": 65,
      "hit": false,
      "t": 59881.77000000002,
      "d": 352.36149999999907,
      "v": 1
    },
    {
      "midi": 68,
      "hit": false,
      "t": 59881.77000000002,
      "d": 352.36149999999907,
      "v": 1
    },
    {
      "midi": 63,
      "hit": false,
      "t": 60236.10000000002,
      "d": 229.33024999999907,
      "v": 1
    },
    {
      "midi": 67,
      "hit": false,
      "t": 60236.10000000002,
      "d": 342.51900000000023,
      "v": 1
    },
    {
      "midi": 60,
      "hit": false,
      "t": 60472.32000000002,
      "d": 706.6915000000008,
      "v": 1
    },
    {
      "midi": 63,
      "hit": false,
      "t": 60472.32000000002,
      "d": 706.6915000000008,
      "v": 1
    },
    {
      "midi": 70,
      "hit": false,
      "t": 60472.32000000002,
      "d": 706.6915000000008,
      "v": 1
    },
    {
      "midi": 60,
      "hit": false,
      "t": 61180.980000000025,
      "d": 1887.7914999999994,
      "v": 1
    },
    {
      "midi": 63,
      "hit": false,
      "t": 61180.980000000025,
      "d": 1887.7914999999994,
      "v": 1
    },
    {
      "midi": 68,
      "hit": false,
      "t": 61180.980000000025,
      "d": 1887.7914999999994,
      "v": 1
    },
    {
      "midi": 68,
      "hit": false,
      "t": 63070.74000000003,
      "d": 588.5815000000002,
      "v": 1
    },
    {
      "midi": 72,
      "hit": false,
      "t": 63070.74000000003,
      "d": 588.5815000000002,
      "v": 1
    },
    {
      "midi": 67,
      "hit": false,
      "t": 63661.29000000003,
      "d": 352.36149999999907,
      "v": 1
    },
    {
      "midi": 70,
      "hit": false,
      "t": 63661.29000000003,
      "d": 352.36149999999907,
      "v": 1
    },
    {
      "midi": 65,
      "hit": false,
      "t": 64015.62000000003,
      "d": 234.2514999999985,
      "v": 1
    },
    {
      "midi": 68,
      "hit": false,
      "t": 64015.62000000003,
      "d": 234.2514999999985,
      "v": 1
    },
    {
      "midi": 60,
      "hit": false,
      "t": 64251.84000000003,
      "d": 706.6915000000008,
      "v": 1
    },
    {
      "midi": 65,
      "hit": false,
      "t": 64251.84000000003,
      "d": 706.6915000000008,
      "v": 1
    },
    {
      "midi": 68,
      "hit": false,
      "t": 64960.50000000004,
      "d": 588.581499999993,
      "v": 1
    },
    {
      "midi": 72,
      "hit": false,
      "t": 64960.50000000004,
      "d": 588.581499999993,
      "v": 1
    },
    {
      "midi": 67,
      "hit": false,
      "t": 65551.05000000003,
      "d": 352.36149999999907,
      "v": 1
    },
    {
      "midi": 70,
      "hit": false,
      "t": 65551.05000000003,
      "d": 352.36149999999907,
      "v": 1
    },
    {
      "midi": 65,
      "hit": false,
      "t": 65905.38000000003,
      "d": 234.2514999999985,
      "v": 1
    },
    {
      "midi": 68,
      "hit": false,
      "t": 65905.38000000003,
      "d": 234.2514999999985,
      "v": 1
    },
    {
      "midi": 62,
      "hit": false,
      "t": 66141.60000000003,
      "d": 1297.2415000000037,
      "v": 1
    },
    {
      "midi": 65,
      "hit": false,
      "t": 66141.60000000003,
      "d": 1297.2415000000037,
      "v": 1
    },
    {
      "midi": 63,
      "hit": false,
      "t": 67440.81000000004,
      "d": 352.36149999999907,
      "v": 1
    },
    {
      "midi": 67,
      "hit": false,
      "t": 67440.81000000004,
      "d": 352.36149999999907,
      "v": 1
    },
    {
      "midi": 65,
      "hit": false,
      "t": 67795.14000000004,
      "d": 470.47149999999965,
      "v": 1
    },
    {
      "midi": 68,
      "hit": false,
      "t": 67795.14000000004,
      "d": 470.47149999999965,
      "v": 1
    },
    {
      "midi": 67,
      "hit": false,
      "t": 68267.58000000005,
      "d": 2360.2314999999944,
      "v": 1
    },
    {
      "midi": 70,
      "hit": false,
      "t": 68267.58000000005,
      "d": 2360.2314999999944,
      "v": 1
    },
    {
      "midi": 67,
      "hit": false,
      "t": 70629.78000000004,
      "d": 588.5815000000002,
      "v": 1
    },
    {
      "midi": 70,
      "hit": false,
      "t": 70629.78000000004,
      "d": 588.5815000000002,
      "v": 1
    },
    {
      "midi": 65,
      "hit": false,
      "t": 71220.33000000005,
      "d": 352.36149999999907,
      "v": 1
    },
    {
      "midi": 68,
      "hit": false,
      "t": 71220.33000000005,
      "d": 352.36149999999907,
      "v": 1
    },
    {
      "midi": 63,
      "hit": false,
      "t": 71574.66000000005,
      "d": 234.2514999999985,
      "v": 1
    },
    {
      "midi": 67,
      "hit": false,
      "t": 71574.66000000005,
      "d": 234.2514999999985,
      "v": 1
    },
    {
      "midi": 58,
      "hit": false,
      "t": 71810.88000000005,
      "d": 706.6915000000008,
      "v": 1
    },
    {
      "midi": 63,
      "hit": false,
      "t": 71810.88000000005,
      "d": 706.6915000000008,
      "v": 1
    },
    {
      "midi": 67,
      "hit": false,
      "t": 72519.54000000005,
      "d": 588.5815000000002,
      "v": 1
    },
    {
      "midi": 70,
      "hit": false,
      "t": 72519.54000000005,
      "d": 588.5815000000002,
      "v": 1
    },
    {
      "midi": 65,
      "hit": false,
      "t": 73110.09000000005,
      "d": 352.36149999999907,
      "v": 1
    },
    {
      "midi": 68,
      "hit": false,
      "t": 73110.09000000005,
      "d": 352.36149999999907,
      "v": 1
    },
    {
      "midi": 63,
      "hit": false,
      "t": 73464.42000000006,
      "d": 234.2514999999985,
      "v": 1
    },
    {
      "midi": 67,
      "hit": false,
      "t": 73464.42000000006,
      "d": 234.2514999999985,
      "v": 1
    },
    {
      "midi": 58,
      "hit": false,
      "t": 73700.64000000006,
      "d": 942.911500000002,
      "v": 1
    },
    {
      "midi": 63,
      "hit": false,
      "t": 73700.64000000006,
      "d": 942.911500000002,
      "v": 1
    },
    {
      "midi": 63,
      "hit": false,
      "t": 74645.52000000006,
      "d": 352.36149999999907,
      "v": 1
    },
    {
      "midi": 67,
      "hit": false,
      "t": 74645.52000000006,
      "d": 352.36149999999907,
      "v": 1
    },
    {
      "midi": 67,
      "hit": false,
      "t": 74999.85000000006,
      "d": 352.36149999999907,
      "v": 1
    },
    {
      "midi": 70,
      "hit": false,
      "t": 74999.85000000006,
      "d": 352.36149999999907,
      "v": 1
    },
    {
      "midi": 70,
      "hit": false,
      "t": 75354.18000000007,
      "d": 234.2514999999985,
      "v": 1
    },
    {
      "midi": 75,
      "hit": false,
      "t": 75354.18000000007,
      "d": 234.2514999999985,
      "v": 1
    },
    {
      "midi": 72,
      "hit": false,
      "t": 75590.40000000007,
      "d": 706.6915000000008,
      "v": 1
    },
    {
      "midi": 75,
      "hit": false,
      "t": 75590.40000000007,
      "d": 706.6915000000008,
      "v": 1
    },
    {
      "midi": 68,
      "hit": false,
      "t": 76299.06000000007,
      "d": 1887.7915000000066,
      "v": 1
    },
    {
      "midi": 72,
      "hit": false,
      "t": 76299.06000000007,
      "d": 1887.7915000000066,
      "v": 1
    },
    {
      "midi": 60,
      "hit": false,
      "t": 78188.82000000008,
      "d": 588.5815000000002,
      "v": 1
    },
    {
      "midi": 72,
      "hit": false,
      "t": 78188.82000000008,
      "d": 588.5815000000002,
      "v": 1
    },
    {
      "midi": 58,
      "hit": false,
      "t": 78779.37000000008,
      "d": 352.36149999999907,
      "v": 1
    },
    {
      "midi": 70,
      "hit": false,
      "t": 78779.37000000008,
      "d": 352.36149999999907,
      "v": 1
    },
    {
      "midi": 56,
      "hit": false,
      "t": 79133.70000000008,
      "d": 234.2514999999985,
      "v": 1
    },
    {
      "midi": 68,
      "hit": false,
      "t": 79133.70000000008,
      "d": 234.2514999999985,
      "v": 1
    },
    {
      "midi": 63,
      "hit": false,
      "t": 79369.92000000009,
      "d": 706.6915000000008,
      "v": 1
    },
    {
      "midi": 75,
      "hit": false,
      "t": 79369.92000000009,
      "d": 706.6915000000008,
      "v": 1
    },
    {
      "midi": 58,
      "hit": false,
      "t": 80078.58000000009,
      "d": 588.5815000000002,
      "v": 1
    },
    {
      "midi": 70,
      "hit": false,
      "t": 80078.58000000009,
      "d": 588.5815000000002,
      "v": 1
    },
    {
      "midi": 56,
      "hit": false,
      "t": 80669.13000000009,
      "d": 352.36149999999907,
      "v": 1
    },
    {
      "midi": 68,
      "hit": false,
      "t": 80669.13000000009,
      "d": 352.36149999999907,
      "v": 1
    },
    {
      "midi": 55,
      "hit": false,
      "t": 81023.4600000001,
      "d": 234.2514999999985,
      "v": 1
    },
    {
      "midi": 67,
      "hit": false,
      "t": 81023.4600000001,
      "d": 234.2514999999985,
      "v": 1
    },
    {
      "midi": 58,
      "hit": false,
      "t": 81259.6800000001,
      "d": 1297.2415000000037,
      "v": 1
    },
    {
      "midi": 70,
      "hit": false,
      "t": 81259.6800000001,
      "d": 1297.2415000000037,
      "v": 1
    },
    {
      "midi": 56,
      "hit": false,
      "t": 82558.8900000001,
      "d": 352.36149999999907,
      "v": 1
    },
    {
      "midi": 68,
      "hit": false,
      "t": 82558.8900000001,
      "d": 352.36149999999907,
      "v": 1
    },
    {
      "midi": 55,
      "hit": false,
      "t": 82913.2200000001,
      "d": 2124.0114999999932,
      "v": 1
    },
    {
      "midi": 67,
      "hit": false,
      "t": 82913.2200000001,
      "d": 2124.0114999999932,
      "v": 1
    },
    {
      "midi": 62,
      "hit": false,
      "t": 85039.2,
      "d": 234.2514999999985,
      "v": 111
    },
    {
      "midi": 63,
      "hit": false,
      "t": 85275.42,
      "d": 234.2514999999985,
      "v": 106
    },
    {
      "midi": 62,
      "hit": false,
      "t": 85511.64,
      "d": 239.1727499999979,
      "v": 118
    },
    {
      "midi": 63,
      "hit": false,
      "t": 85747.86,
      "d": 219.48775000000023,
      "v": 109
    },
    {
      "midi": 62,
      "hit": false,
      "t": 85984.08,
      "d": 239.1727499999979,
      "v": 111
    },
    {
      "midi": 62,
      "hit": false,
      "t": 85984.08000000009,
      "d": 942.911500000002,
      "v": 1
    },
    {
      "midi": 63,
      "hit": false,
      "t": 86220.3,
      "d": 209.6452500000014,
      "v": 108
    },
    {
      "midi": 62,
      "hit": false,
      "t": 86456.52,
      "d": 224.40899999999965,
      "v": 105
    },
    {
      "midi": 63,
      "hit": false,
      "t": 86692.74,
      "d": 204.72400000000198,
      "v": 111
    },
    {
      "midi": 60,
      "hit": false,
      "t": 86928.9600000001,
      "d": 1887.7915000000066,
      "v": 1
    },
    {
      "midi": 62,
      "hit": false,
      "t": 88818.72,
      "d": 229.33024999999907,
      "v": 105
    },
    {
      "midi": 63,
      "hit": false,
      "t": 89054.94,
      "d": 229.33024999999907,
      "v": 103
    },
    {
      "midi": 62,
      "hit": false,
      "t": 89291.16,
      "d": 234.2514999999985,
      "v": 108
    },
    {
      "midi": 63,
      "hit": false,
      "t": 89527.38,
      "d": 234.2514999999985,
      "v": 111
    },
    {
      "midi": 62,
      "hit": false,
      "t": 89763.6,
      "d": 219.48775000000023,
      "v": 108
    },
    {
      "midi": 63,
      "hit": false,
      "t": 89999.82,
      "d": 224.40899999999965,
      "v": 104
    },
    {
      "midi": 62,
      "hit": false,
      "t": 90236.04000000001,
      "d": 214.56650000000081,
      "v": 105
    },
    {
      "midi": 63,
      "hit": false,
      "t": 90472.26000000001,
      "d": 185.0390000000043,
      "v": 109
    },
    {
      "midi": 56,
      "hit": false,
      "t": 105826.5600000001,
      "d": 1887.7915000000066,
      "v": 1
    },
    {
      "midi": 60,
      "hit": false,
      "t": 105826.5600000001,
      "d": 1887.7915000000066,
      "v": 1
    },
    {
      "midi": 63,
      "hit": false,
      "t": 105826.5600000001,
      "d": 1887.7915000000066,
      "v": 1
    },
    {
      "midi": 55,
      "hit": false,
      "t": 107716.32000000011,
      "d": 1887.7915000000066,
      "v": 1
    },
    {
      "midi": 58,
      "hit": false,
      "t": 107716.32000000011,
      "d": 1887.7915000000066,
      "v": 1
    },
    {
      "midi": 63,
      "hit": false,
      "t": 107716.32000000011,
      "d": 1887.7915000000066,
      "v": 1
    },
    {
      "midi": 56,
      "hit": false,
      "t": 109606.08000000012,
      "d": 1887.7915000000066,
      "v": 1
    },
    {
      "midi": 60,
      "hit": false,
      "t": 109606.08000000012,
      "d": 1887.7915000000066,
      "v": 1
    },
    {
      "midi": 63,
      "hit": false,
      "t": 109606.08000000012,
      "d": 1887.7915000000066,
      "v": 1
    },
    {
      "midi": 53,
      "hit": false,
      "t": 111495.84000000013,
      "d": 1887.7915000000066,
      "v": 1
    },
    {
      "midi": 58,
      "hit": false,
      "t": 111495.84000000013,
      "d": 1887.7915000000066,
      "v": 1
    },
    {
      "midi": 62,
      "hit": false,
      "t": 111495.84000000013,
      "d": 1887.7915000000066,
      "v": 1
    },
    {
      "midi": 67,
      "hit": false,
      "t": 119763.54000000014,
      "d": 588.5815000000002,
      "v": 1
    },
    {
      "midi": 70,
      "hit": false,
      "t": 119763.54000000014,
      "d": 588.5815000000002,
      "v": 1
    },
    {
      "midi": 65,
      "hit": false,
      "t": 120354.09000000014,
      "d": 352.36149999999907,
      "v": 1
    },
    {
      "midi": 68,
      "hit": false,
      "t": 120354.09000000014,
      "d": 352.36149999999907,
      "v": 1
    },
    {
      "midi": 63,
      "hit": false,
      "t": 120708.42000000014,
      "d": 234.2514999999985,
      "v": 1
    },
    {
      "midi": 67,
      "hit": false,
      "t": 120708.42000000014,
      "d": 234.2514999999985,
      "v": 1
    },
    {
      "midi": 58,
      "hit": false,
      "t": 120944.64000000014,
      "d": 706.6915000000008,
      "v": 1
    },
    {
      "midi": 63,
      "hit": false,
      "t": 120944.64000000014,
      "d": 706.6915000000008,
      "v": 1
    },
    {
      "midi": 67,
      "hit": false,
      "t": 121653.30000000015,
      "d": 588.5815000000002,
      "v": 1
    },
    {
      "midi": 70,
      "hit": false,
      "t": 121653.30000000015,
      "d": 588.5815000000002,
      "v": 1
    },
    {
      "midi": 65,
      "hit": false,
      "t": 122243.85000000015,
      "d": 352.36149999999907,
      "v": 1
    },
    {
      "midi": 68,
      "hit": false,
      "t": 122243.85000000015,
      "d": 352.36149999999907,
      "v": 1
    },
    {
      "midi": 63,
      "hit": false,
      "t": 122598.18000000015,
      "d": 234.2514999999985,
      "v": 1
    },
    {
      "midi": 67,
      "hit": false,
      "t": 122598.18000000015,
      "d": 234.2514999999985,
      "v": 1
    },
    {
      "midi": 58,
      "hit": false,
      "t": 122834.40000000015,
      "d": 706.6915000000008,
      "v": 1
    },
    {
      "midi": 63,
      "hit": false,
      "t": 122834.40000000015,
      "d": 706.6915000000008,
      "v": 1
    },
    {
      "midi": 67,
      "hit": false,
      "t": 123543.06000000016,
      "d": 588.5815000000002,
      "v": 1
    },
    {
      "midi": 70,
      "hit": false,
      "t": 123543.06000000016,
      "d": 588.5815000000002,
      "v": 1
    },
    {
      "midi": 65,
      "hit": false,
      "t": 124133.61000000016,
      "d": 352.36149999999907,
      "v": 1
    },
    {
      "midi": 68,
      "hit": false,
      "t": 124133.61000000016,
      "d": 352.36149999999907,
      "v": 1
    },
    {
      "midi": 63,
      "hit": false,
      "t": 124487.94000000016,
      "d": 229.33024999999907,
      "v": 1
    },
    {
      "midi": 67,
      "hit": false,
      "t": 124487.94000000016,
      "d": 342.51900000000023,
      "v": 1
    },
    {
      "midi": 60,
      "hit": false,
      "t": 124724.16000000016,
      "d": 706.6915000000008,
      "v": 1
    },
    {
      "midi": 63,
      "hit": false,
      "t": 124724.16000000016,
      "d": 706.6915000000008,
      "v": 1
    },
    {
      "midi": 70,
      "hit": false,
      "t": 124724.16000000016,
      "d": 706.6915000000008,
      "v": 1
    },
    {
      "midi": 60,
      "hit": false,
      "t": 125432.82000000017,
      "d": 1887.7915000000066,
      "v": 1
    },
    {
      "midi": 63,
      "hit": false,
      "t": 125432.82000000017,
      "d": 1887.7915000000066,
      "v": 1
    },
    {
      "midi": 68,
      "hit": false,
      "t": 125432.82000000017,
      "d": 1887.7915000000066,
      "v": 1
    },
    {
      "midi": 68,
      "hit": false,
      "t": 127322.58000000018,
      "d": 588.5815000000002,
      "v": 1
    },
    {
      "midi": 72,
      "hit": false,
      "t": 127322.58000000018,
      "d": 588.5815000000002,
      "v": 1
    },
    {
      "midi": 67,
      "hit": false,
      "t": 127913.13000000018,
      "d": 352.36149999999907,
      "v": 1
    },
    {
      "midi": 70,
      "hit": false,
      "t": 127913.13000000018,
      "d": 352.36149999999907,
      "v": 1
    },
    {
      "midi": 65,
      "hit": false,
      "t": 128267.46000000018,
      "d": 234.2514999999985,
      "v": 1
    },
    {
      "midi": 68,
      "hit": false,
      "t": 128267.46000000018,
      "d": 234.2514999999985,
      "v": 1
    },
    {
      "midi": 60,
      "hit": false,
      "t": 128503.68000000018,
      "d": 706.6915000000008,
      "v": 1
    },
    {
      "midi": 65,
      "hit": false,
      "t": 128503.68000000018,
      "d": 706.6915000000008,
      "v": 1
    },
    {
      "midi": 68,
      "hit": false,
      "t": 129212.34000000019,
      "d": 588.5815000000002,
      "v": 1
    },
    {
      "midi": 72,
      "hit": false,
      "t": 129212.34000000019,
      "d": 588.5815000000002,
      "v": 1
    },
    {
      "midi": 67,
      "hit": false,
      "t": 129802.89000000019,
      "d": 352.36149999999907,
      "v": 1
    },
    {
      "midi": 70,
      "hit": false,
      "t": 129802.89000000019,
      "d": 352.36149999999907,
      "v": 1
    },
    {
      "midi": 65,
      "hit": false,
      "t": 130157.22000000019,
      "d": 234.2514999999985,
      "v": 1
    },
    {
      "midi": 68,
      "hit": false,
      "t": 130157.22000000019,
      "d": 234.2514999999985,
      "v": 1
    },
    {
      "midi": 62,
      "hit": false,
      "t": 130393.44000000019,
      "d": 1297.2414999999892,
      "v": 1
    },
    {
      "midi": 65,
      "hit": false,
      "t": 130393.44000000019,
      "d": 1297.2414999999892,
      "v": 1
    },
    {
      "midi": 63,
      "hit": false,
      "t": 131692.65000000017,
      "d": 352.36149999999907,
      "v": 1
    },
    {
      "midi": 67,
      "hit": false,
      "t": 131692.65000000017,
      "d": 352.36149999999907,
      "v": 1
    },
    {
      "midi": 65,
      "hit": false,
      "t": 132046.98000000016,
      "d": 470.4715000000142,
      "v": 1
    },
    {
      "midi": 68,
      "hit": false,
      "t": 132046.98000000016,
      "d": 470.4715000000142,
      "v": 1
    },
    {
      "midi": 67,
      "hit": false,
      "t": 132519.42000000016,
      "d": 2360.2314999999944,
      "v": 1
    },
    {
      "midi": 70,
      "hit": false,
      "t": 132519.42000000016,
      "d": 2360.2314999999944,
      "v": 1
    },
    {
      "midi": 67,
      "hit": false,
      "t": 134881.62000000014,
      "d": 588.5815000000002,
      "v": 1
    },
    {
      "midi": 70,
      "hit": false,
      "t": 134881.62000000014,
      "d": 588.5815000000002,
      "v": 1
    },
    {
      "midi": 65,
      "hit": false,
      "t": 135472.17000000013,
      "d": 352.36149999999907,
      "v": 1
    },
    {
      "midi": 68,
      "hit": false,
      "t": 135472.17000000013,
      "d": 352.36149999999907,
      "v": 1
    },
    {
      "midi": 63,
      "hit": false,
      "t": 135826.50000000012,
      "d": 234.25150000001304,
      "v": 1
    },
    {
      "midi": 67,
      "hit": false,
      "t": 135826.50000000012,
      "d": 234.25150000001304,
      "v": 1
    },
    {
      "midi": 58,
      "hit": false,
      "t": 136062.72000000012,
      "d": 706.6914999999863,
      "v": 1
    },
    {
      "midi": 63,
      "hit": false,
      "t": 136062.72000000012,
      "d": 706.6914999999863,
      "v": 1
    },
    {
      "midi": 67,
      "hit": false,
      "t": 136771.3800000001,
      "d": 588.5815000000002,
      "v": 1
    },
    {
      "midi": 70,
      "hit": false,
      "t": 136771.3800000001,
      "d": 588.5815000000002,
      "v": 1
    },
    {
      "midi": 65,
      "hit": false,
      "t": 137361.93000000008,
      "d": 352.36149999999907,
      "v": 1
    },
    {
      "midi": 68,
      "hit": false,
      "t": 137361.93000000008,
      "d": 352.36149999999907,
      "v": 1
    },
    {
      "midi": 63,
      "hit": false,
      "t": 137716.26000000007,
      "d": 234.25150000001304,
      "v": 1
    },
    {
      "midi": 67,
      "hit": false,
      "t": 137716.26000000007,
      "d": 234.25150000001304,
      "v": 1
    },
    {
      "midi": 58,
      "hit": false,
      "t": 137952.48000000007,
      "d": 942.9114999999874,
      "v": 1
    },
    {
      "midi": 63,
      "hit": false,
      "t": 137952.48000000007,
      "d": 942.9114999999874,
      "v": 1
    },
    {
      "midi": 63,
      "hit": false,
      "t": 138897.36000000004,
      "d": 352.36149999999907,
      "v": 1
    },
    {
      "midi": 67,
      "hit": false,
      "t": 138897.36000000004,
      "d": 352.36149999999907,
      "v": 1
    },
    {
      "midi": 67,
      "hit": false,
      "t": 139251.69000000003,
      "d": 352.36149999999907,
      "v": 1
    },
    {
      "midi": 70,
      "hit": false,
      "t": 139251.69000000003,
      "d": 352.36149999999907,
      "v": 1
    },
    {
      "midi": 70,
      "hit": false,
      "t": 139606.02000000002,
      "d": 234.25150000001304,
      "v": 1
    },
    {
      "midi": 75,
      "hit": false,
      "t": 139606.02000000002,
      "d": 234.25150000001304,
      "v": 1
    },
    {
      "midi": 72,
      "hit": false,
      "t": 139842.24000000002,
      "d": 706.6914999999863,
      "v": 1
    },
    {
      "midi": 75,
      "hit": false,
      "t": 139842.24000000002,
      "d": 706.6914999999863,
      "v": 1
    },
    {
      "midi": 68,
      "hit": false,
      "t": 140550.9,
      "d": 1887.791499999992,
      "v": 1
    },
    {
      "midi": 72,
      "hit": false,
      "t": 140550.9,
      "d": 1887.791499999992,
      "v": 1
    },
    {
      "midi": 60,
      "hit": false,
      "t": 142440.65999999997,
      "d": 588.5815000000002,
      "v": 1
    },
    {
      "midi": 72,
      "hit": false,
      "t": 142440.65999999997,
      "d": 588.5815000000002,
      "v": 1
    },
    {
      "midi": 58,
      "hit": false,
      "t": 143031.20999999996,
      "d": 352.36149999999907,
      "v": 1
    },
    {
      "midi": 70,
      "hit": false,
      "t": 143031.20999999996,
      "d": 352.36149999999907,
      "v": 1
    },
    {
      "midi": 56,
      "hit": false,
      "t": 143385.53999999995,
      "d": 234.25150000001304,
      "v": 1
    },
    {
      "midi": 68,
      "hit": false,
      "t": 143385.53999999995,
      "d": 234.25150000001304,
      "v": 1
    },
    {
      "midi": 63,
      "hit": false,
      "t": 143621.75999999995,
      "d": 706.6914999999863,
      "v": 1
    },
    {
      "midi": 75,
      "hit": false,
      "t": 143621.75999999995,
      "d": 706.6914999999863,
      "v": 1
    },
    {
      "midi": 58,
      "hit": false,
      "t": 144330.41999999993,
      "d": 588.5815000000002,
      "v": 1
    },
    {
      "midi": 70,
      "hit": false,
      "t": 144330.41999999993,
      "d": 588.5815000000002,
      "v": 1
    },
    {
      "midi": 56,
      "hit": false,
      "t": 144920.9699999999,
      "d": 352.36149999999907,
      "v": 1
    },
    {
      "midi": 68,
      "hit": false,
      "t": 144920.9699999999,
      "d": 352.36149999999907,
      "v": 1
    },
    {
      "midi": 55,
      "hit": false,
      "t": 145275.2999999999,
      "d": 234.25150000001304,
      "v": 1
    },
    {
      "midi": 67,
      "hit": false,
      "t": 145275.2999999999,
      "d": 234.25150000001304,
      "v": 1
    },
    {
      "midi": 58,
      "hit": false,
      "t": 145511.5199999999,
      "d": 706.6914999999863,
      "v": 1
    },
    {
      "midi": 70,
      "hit": false,
      "t": 145511.5199999999,
      "d": 706.6914999999863,
      "v": 1
    },
    {
      "midi": 55,
      "hit": false,
      "t": 146220.17999999988,
      "d": 588.5815000000002,
      "v": 1
    },
    {
      "midi": 67,
      "hit": false,
      "t": 146220.17999999988,
      "d": 588.5815000000002,
      "v": 1
    },
    {
      "midi": 58,
      "hit": false,
      "t": 146810.72999999986,
      "d": 352.36149999999907,
      "v": 1
    },
    {
      "midi": 70,
      "hit": false,
      "t": 146810.72999999986,
      "d": 352.36149999999907,
      "v": 1
    },
    {
      "midi": 60,
      "hit": false,
      "t": 147165.05999999985,
      "d": 470.4715000000142,
      "v": 1
    },
    {
      "midi": 72,
      "hit": false,
      "t": 147165.05999999985,
      "d": 470.4715000000142,
      "v": 1
    },
    {
      "midi": 55,
      "hit": false,
      "t": 147637.49999999985,
      "d": 1651.571499999991,
      "v": 1
    },
    {
      "midi": 60,
      "hit": false,
      "t": 147637.49999999985,
      "d": 1651.571499999991,
      "v": 1
    },
    {
      "midi": 63,
      "hit": false,
      "t": 147637.49999999985,
      "d": 1651.571499999991,
      "v": 1
    },
    {
      "midi": 53,
      "hit": false,
      "t": 154724.09999999983,
      "d": 229.33024999999907,
      "v": 1
    },
    {
      "midi": 62,
      "hit": false,
      "t": 154724.09999999983,
      "d": 244.09400000001187,
      "v": 1
    },
    {
      "midi": 58,
      "hit": false,
      "t": 154724.09999999983,
      "d": 258.8577500000247,
      "v": 1
    },
    {
      "midi": 55,
      "hit": false,
      "t": 154960.31999999983,
      "d": 706.6915000000154,
      "v": 1
    },
    {
      "midi": 60,
      "hit": false,
      "t": 154960.31999999983,
      "d": 706.6915000000154,
      "v": 1
    },
    {
      "midi": 63,
      "hit": false,
      "t": 154960.31999999983,
      "d": 706.6915000000154,
      "v": 1
    },
    {
      "midi": 55,
      "hit": false,
      "t": 155668.97999999984,
      "d": 1179.1314999999886,
      "v": 1
    },
    {
      "midi": 60,
      "hit": false,
      "t": 155668.97999999984,
      "d": 1179.1314999999886,
      "v": 1
    },
    {
      "midi": 56,
      "hit": false,
      "t": 156850.0799999998,
      "d": 1297.2415000000037,
      "v": 1
    },
    {
      "midi": 60,
      "hit": false,
      "t": 156850.0799999998,
      "d": 1297.2415000000037,
      "v": 1
    },
    {
      "midi": 55,
      "hit": false,
      "t": 158149.2899999998,
      "d": 352.36149999999907,
      "v": 1
    },
    {
      "midi": 58,
      "hit": false,
      "t": 158149.2899999998,
      "d": 352.36149999999907,
      "v": 1
    },
    {
      "midi": 53,
      "hit": false,
      "t": 158503.6199999998,
      "d": 2124.0114999999932,
      "v": 1
    },
    {
      "midi": 58,
      "hit": false,
      "t": 158503.6199999998,
      "d": 2124.0114999999932,
      "v": 1
    },
    {
      "midi": 69,
      "hit": false,
      "t": 161338.25999999978,
      "d": 588.5815000000002,
      "v": 1
    },
    {
      "midi": 72,
      "hit": false,
      "t": 161338.25999999978,
      "d": 588.5815000000002,
      "v": 1
    },
    {
      "midi": 67,
      "hit": false,
      "t": 161928.80999999976,
      "d": 352.36149999999907,
      "v": 1
    },
    {
      "midi": 70,
      "hit": false,
      "t": 161928.80999999976,
      "d": 352.36149999999907,
      "v": 1
    },
    {
      "midi": 65,
      "hit": false,
      "t": 162283.13999999975,
      "d": 234.25150000001304,
      "v": 1
    },
    {
      "midi": 69,
      "hit": false,
      "t": 162283.13999999975,
      "d": 234.25150000001304,
      "v": 1
    },
    {
      "midi": 60,
      "hit": false,
      "t": 162519.35999999975,
      "d": 706.6914999999863,
      "v": 1
    },
    {
      "midi": 65,
      "hit": false,
      "t": 162519.35999999975,
      "d": 706.6914999999863,
      "v": 1
    },
    {
      "midi": 69,
      "hit": false,
      "t": 163228.01999999973,
      "d": 588.5815000000002,
      "v": 1
    },
    {
      "midi": 72,
      "hit": false,
      "t": 163228.01999999973,
      "d": 588.5815000000002,
      "v": 1
    },
    {
      "midi": 67,
      "hit": false,
      "t": 163818.56999999972,
      "d": 352.36149999999907,
      "v": 1
    },
    {
      "midi": 70,
      "hit": false,
      "t": 163818.56999999972,
      "d": 352.36149999999907,
      "v": 1
    },
    {
      "midi": 65,
      "hit": false,
      "t": 164172.8999999997,
      "d": 234.25150000001304,
      "v": 1
    },
    {
      "midi": 69,
      "hit": false,
      "t": 164172.8999999997,
      "d": 234.25150000001304,
      "v": 1
    },
    {
      "midi": 60,
      "hit": false,
      "t": 164409.1199999997,
      "d": 706.6914999999863,
      "v": 1
    },
    {
      "midi": 65,
      "hit": false,
      "t": 164409.1199999997,
      "d": 706.6914999999863,
      "v": 1
    },
    {
      "midi": 69,
      "hit": false,
      "t": 165117.77999999968,
      "d": 588.5815000000002,
      "v": 1
    },
    {
      "midi": 72,
      "hit": false,
      "t": 165117.77999999968,
      "d": 588.5815000000002,
      "v": 1
    },
    {
      "midi": 67,
      "hit": false,
      "t": 165708.32999999967,
      "d": 352.36149999999907,
      "v": 1
    },
    {
      "midi": 70,
      "hit": false,
      "t": 165708.32999999967,
      "d": 352.36149999999907,
      "v": 1
    },
    {
      "midi": 65,
      "hit": false,
      "t": 166062.65999999965,
      "d": 229.33024999999907,
      "v": 1
    },
    {
      "midi": 69,
      "hit": false,
      "t": 166062.65999999965,
      "d": 342.51900000000023,
      "v": 1
    },
    {
      "midi": 62,
      "hit": false,
      "t": 166298.87999999966,
      "d": 706.6914999999863,
      "v": 1
    },
    {
      "midi": 65,
      "hit": false,
      "t": 166298.87999999966,
      "d": 706.6914999999863,
      "v": 1
    },
    {
      "midi": 72,
      "hit": false,
      "t": 166298.87999999966,
      "d": 706.6914999999863,
      "v": 1
    },
    {
      "midi": 62,
      "hit": false,
      "t": 167007.53999999963,
      "d": 1887.791499999992,
      "v": 1
    },
    {
      "midi": 65,
      "hit": false,
      "t": 167007.53999999963,
      "d": 1887.791499999992,
      "v": 1
    },
    {
      "midi": 70,
      "hit": false,
      "t": 167007.53999999963,
      "d": 1887.791499999992,
      "v": 1
    },
    {
      "midi": 70,
      "hit": false,
      "t": 168897.2999999996,
      "d": 588.5815000000002,
      "v": 1
    },
    {
      "midi": 74,
      "hit": false,
      "t": 168897.2999999996,
      "d": 588.5815000000002,
      "v": 1
    },
    {
      "midi": 69,
      "hit": false,
      "t": 169487.8499999996,
      "d": 352.36149999999907,
      "v": 1
    },
    {
      "midi": 72,
      "hit": false,
      "t": 169487.8499999996,
      "d": 352.36149999999907,
      "v": 1
    },
    {
      "midi": 67,
      "hit": false,
      "t": 169842.1799999996,
      "d": 234.25150000001304,
      "v": 1
    },
    {
      "midi": 70,
      "hit": false,
      "t": 169842.1799999996,
      "d": 234.25150000001304,
      "v": 1
    },
    {
      "midi": 62,
      "hit": false,
      "t": 170078.3999999996,
      "d": 706.6914999999863,
      "v": 1
    },
    {
      "midi": 67,
      "hit": false,
      "t": 170078.3999999996,
      "d": 706.6914999999863,
      "v": 1
    },
    {
      "midi": 70,
      "hit": false,
      "t": 170787.05999999956,
      "d": 588.5815000000002,
      "v": 1
    },
    {
      "midi": 74,
      "hit": false,
      "t": 170787.05999999956,
      "d": 588.5815000000002,
      "v": 1
    },
    {
      "midi": 69,
      "hit": false,
      "t": 171377.60999999955,
      "d": 352.36149999999907,
      "v": 1
    },
    {
      "midi": 72,
      "hit": false,
      "t": 171377.60999999955,
      "d": 352.36149999999907,
      "v": 1
    },
    {
      "midi": 67,
      "hit": false,
      "t": 171731.93999999954,
      "d": 234.25150000001304,
      "v": 1
    },
    {
      "midi": 70,
      "hit": false,
      "t": 171731.93999999954,
      "d": 234.25150000001304,
      "v": 1
    },
    {
      "midi": 64,
      "hit": false,
      "t": 171968.15999999954,
      "d": 1297.2415000000037,
      "v": 1
    },
    {
      "midi": 67,
      "hit": false,
      "t": 171968.15999999954,
      "d": 1297.2415000000037,
      "v": 1
    },
    {
      "midi": 65,
      "hit": false,
      "t": 173267.36999999953,
      "d": 352.36149999999907,
      "v": 1
    },
    {
      "midi": 69,
      "hit": false,
      "t": 173267.36999999953,
      "d": 352.36149999999907,
      "v": 1
    },
    {
      "midi": 67,
      "hit": false,
      "t": 173621.69999999952,
      "d": 470.4715000000142,
      "v": 1
    },
    {
      "midi": 70,
      "hit": false,
      "t": 173621.69999999952,
      "d": 470.4715000000142,
      "v": 1
    },
    {
      "midi": 69,
      "hit": false,
      "t": 174094.13999999952,
      "d": 2360.2314999999944,
      "v": 1
    },
    {
      "midi": 72,
      "hit": false,
      "t": 174094.13999999952,
      "d": 2360.2314999999944,
      "v": 1
    },
    {
      "midi": 69,
      "hit": false,
      "t": 176456.3399999995,
      "d": 588.5815000000002,
      "v": 1
    },
    {
      "midi": 72,
      "hit": false,
      "t": 176456.3399999995,
      "d": 588.5815000000002,
      "v": 1
    },
    {
      "midi": 67,
      "hit": false,
      "t": 177046.8899999995,
      "d": 352.36149999999907,
      "v": 1
    },
    {
      "midi": 70,
      "hit": false,
      "t": 177046.8899999995,
      "d": 352.36149999999907,
      "v": 1
    },
    {
      "midi": 65,
      "hit": false,
      "t": 177401.21999999948,
      "d": 234.25150000001304,
      "v": 1
    },
    {
      "midi": 69,
      "hit": false,
      "t": 177401.21999999948,
      "d": 234.25150000001304,
      "v": 1
    },
    {
      "midi": 60,
      "hit": false,
      "t": 177637.43999999948,
      "d": 706.6914999999863,
      "v": 1
    },
    {
      "midi": 65,
      "hit": false,
      "t": 177637.43999999948,
      "d": 706.6914999999863,
      "v": 1
    },
    {
      "midi": 69,
      "hit": false,
      "t": 178346.09999999945,
      "d": 588.5815000000002,
      "v": 1
    },
    {
      "midi": 72,
      "hit": false,
      "t": 178346.09999999945,
      "d": 588.5815000000002,
      "v": 1
    },
    {
      "midi": 67,
      "hit": false,
      "t": 178936.64999999944,
      "d": 352.36149999999907,
      "v": 1
    },
    {
      "midi": 70,
      "hit": false,
      "t": 178936.64999999944,
      "d": 352.36149999999907,
      "v": 1
    },
    {
      "midi": 65,
      "hit": false,
      "t": 179290.97999999943,
      "d": 234.25150000001304,
      "v": 1
    },
    {
      "midi": 69,
      "hit": false,
      "t": 179290.97999999943,
      "d": 234.25150000001304,
      "v": 1
    },
    {
      "midi": 60,
      "hit": false,
      "t": 179527.19999999943,
      "d": 942.9114999999874,
      "v": 1
    },
    {
      "midi": 65,
      "hit": false,
      "t": 179527.19999999943,
      "d": 942.9114999999874,
      "v": 1
    },
    {
      "midi": 65,
      "hit": false,
      "t": 180472.0799999994,
      "d": 352.36149999999907,
      "v": 1
    },
    {
      "midi": 69,
      "hit": false,
      "t": 180472.0799999994,
      "d": 352.36149999999907,
      "v": 1
    },
    {
      "midi": 69,
      "hit": false,
      "t": 180826.4099999994,
      "d": 352.36149999999907,
      "v": 1
    },
    {
      "midi": 72,
      "hit": false,
      "t": 180826.4099999994,
      "d": 352.36149999999907,
      "v": 1
    },
    {
      "midi": 72,
      "hit": false,
      "t": 181180.73999999938,
      "d": 234.25150000001304,
      "v": 1
    },
    {
      "midi": 77,
      "hit": false,
      "t": 181180.73999999938,
      "d": 234.25150000001304,
      "v": 1
    },
    {
      "midi": 74,
      "hit": false,
      "t": 181416.95999999938,
      "d": 706.6914999999863,
      "v": 1
    },
    {
      "midi": 77,
      "hit": false,
      "t": 181416.95999999938,
      "d": 706.6914999999863,
      "v": 1
    },
    {
      "midi": 70,
      "hit": false,
      "t": 182125.61999999936,
      "d": 1887.791499999992,
      "v": 1
    },
    {
      "midi": 74,
      "hit": false,
      "t": 182125.61999999936,
      "d": 1887.791499999992,
      "v": 1
    },
    {
      "midi": 62,
      "hit": false,
      "t": 184015.37999999934,
      "d": 588.5815000000002,
      "v": 1
    },
    {
      "midi": 74,
      "hit": false,
      "t": 184015.37999999934,
      "d": 588.5815000000002,
      "v": 1
    },
    {
      "midi": 60,
      "hit": false,
      "t": 184605.92999999932,
      "d": 352.36149999999907,
      "v": 1
    },
    {
      "midi": 72,
      "hit": false,
      "t": 184605.92999999932,
      "d": 352.36149999999907,
      "v": 1
    },
    {
      "midi": 58,
      "hit": false,
      "t": 184960.2599999993,
      "d": 234.25150000001304,
      "v": 1
    },
    {
      "midi": 70,
      "hit": false,
      "t": 184960.2599999993,
      "d": 234.25150000001304,
      "v": 1
    },
    {
      "midi": 65,
      "hit": false,
      "t": 185196.4799999993,
      "d": 706.6914999999863,
      "v": 1
    },
    {
      "midi": 77,
      "hit": false,
      "t": 185196.4799999993,
      "d": 706.6914999999863,
      "v": 1
    },
    {
      "midi": 60,
      "hit": false,
      "t": 185905.1399999993,
      "d": 588.5815000000002,
      "v": 1
    },
    {
      "midi": 72,
      "hit": false,
      "t": 185905.1399999993,
      "d": 588.5815000000002,
      "v": 1
    },
    {
      "midi": 58,
      "hit": false,
      "t": 186495.68999999927,
      "d": 352.36149999999907,
      "v": 1
    },
    {
      "midi": 70,
      "hit": false,
      "t": 186495.68999999927,
      "d": 352.36149999999907,
      "v": 1
    },
    {
      "midi": 57,
      "hit": false,
      "t": 186850.01999999926,
      "d": 234.25150000001304,
      "v": 1
    },
    {
      "midi": 69,
      "hit": false,
      "t": 186850.01999999926,
      "d": 234.25150000001304,
      "v": 1
    },
    {
      "midi": 60,
      "hit": false,
      "t": 187086.23999999926,
      "d": 1297.2415000000037,
      "v": 1
    },
    {
      "midi": 72,
      "hit": false,
      "t": 187086.23999999926,
      "d": 1297.2415000000037,
      "v": 1
    },
    {
      "midi": 58,
      "hit": false,
      "t": 188385.44999999925,
      "d": 352.36149999999907,
      "v": 1
    },
    {
      "midi": 70,
      "hit": false,
      "t": 188385.44999999925,
      "d": 352.36149999999907,
      "v": 1
    },
    {
      "midi": 57,
      "hit": false,
      "t": 188739.77999999924,
      "d": 234.25150000001304,
      "v": 1
    },
    {
      "midi": 69,
      "hit": false,
      "t": 188975.99999999924,
      "d": 116.1414999999979,
      "v": 1
    },
    {
      "midi": 60,
      "hit": false,
      "t": 188975.99999999924,
      "d": 2124.0114999999932,
      "v": 1
    },
    {
      "midi": 65,
      "hit": false,
      "t": 188975.99999999924,
      "d": 2124.0114999999932,
      "v": 1
    },
    {
      "midi": 69,
      "hit": false,
      "t": 191574.41999999923,
      "d": 588.5815000000002,
      "v": 1
    },
    {
      "midi": 72,
      "hit": false,
      "t": 191574.41999999923,
      "d": 588.5815000000002,
      "v": 1
    },
    {
      "midi": 67,
      "hit": false,
      "t": 192164.96999999922,
      "d": 352.36149999999907,
      "v": 1
    },
    {
      "midi": 70,
      "hit": false,
      "t": 192164.96999999922,
      "d": 352.36149999999907,
      "v": 1
    },
    {
      "midi": 65,
      "hit": false,
      "t": 192519.2999999992,
      "d": 234.25150000001304,
      "v": 1
    },
    {
      "midi": 69,
      "hit": false,
      "t": 192519.2999999992,
      "d": 234.25150000001304,
      "v": 1
    },
    {
      "midi": 60,
      "hit": false,
      "t": 192755.5199999992,
      "d": 706.6914999999863,
      "v": 1
    },
    {
      "midi": 65,
      "hit": false,
      "t": 192755.5199999992,
      "d": 706.6914999999863,
      "v": 1
    },
    {
      "midi": 69,
      "hit": false,
      "t": 193464.17999999918,
      "d": 588.5815000000002,
      "v": 1
    },
    {
      "midi": 72,
      "hit": false,
      "t": 193464.17999999918,
      "d": 588.5815000000002,
      "v": 1
    },
    {
      "midi": 67,
      "hit": false,
      "t": 194054.72999999917,
      "d": 352.36149999999907,
      "v": 1
    },
    {
      "midi": 70,
      "hit": false,
      "t": 194054.72999999917,
      "d": 352.36149999999907,
      "v": 1
    },
    {
      "midi": 65,
      "hit": false,
      "t": 194409.05999999915,
      "d": 234.25150000001304,
      "v": 1
    },
    {
      "midi": 69,
      "hit": false,
      "t": 194409.05999999915,
      "d": 234.25150000001304,
      "v": 1
    },
    {
      "midi": 60,
      "hit": false,
      "t": 194645.27999999915,
      "d": 706.6914999999863,
      "v": 1
    },
    {
      "midi": 65,
      "hit": false,
      "t": 194645.27999999915,
      "d": 706.6914999999863,
      "v": 1
    },
    {
      "midi": 69,
      "hit": false,
      "t": 195353.93999999913,
      "d": 588.5815000000002,
      "v": 1
    },
    {
      "midi": 72,
      "hit": false,
      "t": 195353.93999999913,
      "d": 588.5815000000002,
      "v": 1
    },
    {
      "midi": 67,
      "hit": false,
      "t": 195944.48999999912,
      "d": 352.36149999999907,
      "v": 1
    },
    {
      "midi": 70,
      "hit": false,
      "t": 195944.48999999912,
      "d": 352.36149999999907,
      "v": 1
    },
    {
      "midi": 65,
      "hit": false,
      "t": 196298.8199999991,
      "d": 229.33024999999907,
      "v": 1
    },
    {
      "midi": 69,
      "hit": false,
      "t": 196298.8199999991,
      "d": 342.51900000000023,
      "v": 1
    },
    {
      "midi": 62,
      "hit": false,
      "t": 196535.0399999991,
      "d": 706.6914999999863,
      "v": 1
    },
    {
      "midi": 65,
      "hit": false,
      "t": 196535.0399999991,
      "d": 706.6914999999863,
      "v": 1
    },
    {
      "midi": 72,
      "hit": false,
      "t": 196535.0399999991,
      "d": 706.6914999999863,
      "v": 1
    },
    {
      "midi": 62,
      "hit": false,
      "t": 197243.69999999908,
      "d": 1887.791499999992,
      "v": 1
    },
    {
      "midi": 65,
      "hit": false,
      "t": 197243.69999999908,
      "d": 1887.791499999992,
      "v": 1
    },
    {
      "midi": 70,
      "hit": false,
      "t": 197243.69999999908,
      "d": 1887.791499999992,
      "v": 1
    },
    {
      "midi": 70,
      "hit": false,
      "t": 199133.45999999906,
      "d": 588.5815000000002,
      "v": 1
    },
    {
      "midi": 74,
      "hit": false,
      "t": 199133.45999999906,
      "d": 588.5815000000002,
      "v": 1
    },
    {
      "midi": 69,
      "hit": false,
      "t": 199724.00999999905,
      "d": 352.36149999999907,
      "v": 1
    },
    {
      "midi": 72,
      "hit": false,
      "t": 199724.00999999905,
      "d": 352.36149999999907,
      "v": 1
    },
    {
      "midi": 67,
      "hit": false,
      "t": 200078.33999999904,
      "d": 234.25150000001304,
      "v": 1
    },
    {
      "midi": 70,
      "hit": false,
      "t": 200078.33999999904,
      "d": 234.25150000001304,
      "v": 1
    },
    {
      "midi": 62,
      "hit": false,
      "t": 200314.55999999904,
      "d": 706.6914999999863,
      "v": 1
    },
    {
      "midi": 67,
      "hit": false,
      "t": 200314.55999999904,
      "d": 706.6914999999863,
      "v": 1
    },
    {
      "midi": 70,
      "hit": false,
      "t": 201023.219999999,
      "d": 588.5815000000002,
      "v": 1
    },
    {
      "midi": 74,
      "hit": false,
      "t": 201023.219999999,
      "d": 588.5815000000002,
      "v": 1
    },
    {
      "midi": 69,
      "hit": false,
      "t": 201613.769999999,
      "d": 352.36149999999907,
      "v": 1
    },
    {
      "midi": 72,
      "hit": false,
      "t": 201613.769999999,
      "d": 352.36149999999907,
      "v": 1
    },
    {
      "midi": 67,
      "hit": false,
      "t": 201968.099999999,
      "d": 234.25150000001304,
      "v": 1
    },
    {
      "midi": 70,
      "hit": false,
      "t": 201968.099999999,
      "d": 234.25150000001304,
      "v": 1
    },
    {
      "midi": 64,
      "hit": false,
      "t": 202204.319999999,
      "d": 1297.2415000000037,
      "v": 1
    },
    {
      "midi": 67,
      "hit": false,
      "t": 202204.319999999,
      "d": 1297.2415000000037,
      "v": 1
    },
    {
      "midi": 65,
      "hit": false,
      "t": 203503.52999999898,
      "d": 352.36149999999907,
      "v": 1
    },
    {
      "midi": 69,
      "hit": false,
      "t": 203503.52999999898,
      "d": 352.36149999999907,
      "v": 1
    },
    {
      "midi": 67,
      "hit": false,
      "t": 203857.85999999897,
      "d": 470.4715000000142,
      "v": 1
    },
    {
      "midi": 70,
      "hit": false,
      "t": 203857.85999999897,
      "d": 470.4715000000142,
      "v": 1
    },
    {
      "midi": 69,
      "hit": false,
      "t": 204330.29999999897,
      "d": 2360.2314999999944,
      "v": 1
    },
    {
      "midi": 72,
      "hit": false,
      "t": 204330.29999999897,
      "d": 2360.2314999999944,
      "v": 1
    },
    {
      "midi": 69,
      "hit": false,
      "t": 206692.49999999895,
      "d": 588.5815000000002,
      "v": 1
    },
    {
      "midi": 72,
      "hit": false,
      "t": 206692.49999999895,
      "d": 588.5815000000002,
      "v": 1
    },
    {
      "midi": 67,
      "hit": false,
      "t": 207283.04999999894,
      "d": 352.36149999999907,
      "v": 1
    },
    {
      "midi": 70,
      "hit": false,
      "t": 207283.04999999894,
      "d": 352.36149999999907,
      "v": 1
    },
    {
      "midi": 65,
      "hit": false,
      "t": 207637.37999999893,
      "d": 234.25150000001304,
      "v": 1
    },
    {
      "midi": 69,
      "hit": false,
      "t": 207637.37999999893,
      "d": 234.25150000001304,
      "v": 1
    },
    {
      "midi": 60,
      "hit": false,
      "t": 207873.59999999893,
      "d": 706.6914999999863,
      "v": 1
    },
    {
      "midi": 65,
      "hit": false,
      "t": 207873.59999999893,
      "d": 706.6914999999863,
      "v": 1
    },
    {
      "midi": 69,
      "hit": false,
      "t": 208582.2599999989,
      "d": 588.5815000000002,
      "v": 1
    },
    {
      "midi": 72,
      "hit": false,
      "t": 208582.2599999989,
      "d": 588.5815000000002,
      "v": 1
    },
    {
      "midi": 67,
      "hit": false,
      "t": 209172.8099999989,
      "d": 352.36149999999907,
      "v": 1
    },
    {
      "midi": 70,
      "hit": false,
      "t": 209172.8099999989,
      "d": 352.36149999999907,
      "v": 1
    },
    {
      "midi": 65,
      "hit": false,
      "t": 209527.13999999888,
      "d": 234.25150000001304,
      "v": 1
    },
    {
      "midi": 69,
      "hit": false,
      "t": 209527.13999999888,
      "d": 234.25150000001304,
      "v": 1
    },
    {
      "midi": 60,
      "hit": false,
      "t": 209763.35999999888,
      "d": 942.9114999999874,
      "v": 1
    },
    {
      "midi": 65,
      "hit": false,
      "t": 209763.35999999888,
      "d": 942.9114999999874,
      "v": 1
    },
    {
      "midi": 65,
      "hit": false,
      "t": 210708.23999999886,
      "d": 352.36149999999907,
      "v": 1
    },
    {
      "midi": 69,
      "hit": false,
      "t": 210708.23999999886,
      "d": 352.36149999999907,
      "v": 1
    },
    {
      "midi": 69,
      "hit": false,
      "t": 211062.56999999884,
      "d": 352.36149999999907,
      "v": 1
    },
    {
      "midi": 72,
      "hit": false,
      "t": 211062.56999999884,
      "d": 352.36149999999907,
      "v": 1
    },
    {
      "midi": 72,
      "hit": false,
      "t": 211416.89999999883,
      "d": 234.25150000001304,
      "v": 1
    },
    {
      "midi": 77,
      "hit": false,
      "t": 211416.89999999883,
      "d": 234.25150000001304,
      "v": 1
    },
    {
      "midi": 74,
      "hit": false,
      "t": 211653.11999999883,
      "d": 706.6914999999863,
      "v": 1
    },
    {
      "midi": 77,
      "hit": false,
      "t": 211653.11999999883,
      "d": 706.6914999999863,
      "v": 1
    },
    {
      "midi": 70,
      "hit": false,
      "t": 212361.7799999988,
      "d": 1887.791499999992,
      "v": 1
    },
    {
      "midi": 74,
      "hit": false,
      "t": 212361.7799999988,
      "d": 1887.791499999992,
      "v": 1
    },
    {
      "midi": 62,
      "hit": false,
      "t": 214251.5399999988,
      "d": 588.5815000000002,
      "v": 1
    },
    {
      "midi": 74,
      "hit": false,
      "t": 214251.5399999988,
      "d": 588.5815000000002,
      "v": 1
    },
    {
      "midi": 60,
      "hit": false,
      "t": 214842.08999999877,
      "d": 352.36149999999907,
      "v": 1
    },
    {
      "midi": 72,
      "hit": false,
      "t": 214842.08999999877,
      "d": 352.36149999999907,
      "v": 1
    },
    {
      "midi": 58,
      "hit": false,
      "t": 215196.41999999876,
      "d": 234.25150000001304,
      "v": 1
    },
    {
      "midi": 70,
      "hit": false,
      "t": 215196.41999999876,
      "d": 234.25150000001304,
      "v": 1
    },
    {
      "midi": 65,
      "hit": false,
      "t": 215432.63999999876,
      "d": 706.6914999999863,
      "v": 1
    },
    {
      "midi": 77,
      "hit": false,
      "t": 215432.63999999876,
      "d": 706.6914999999863,
      "v": 1
    },
    {
      "midi": 60,
      "hit": false,
      "t": 216141.29999999874,
      "d": 588.5815000000002,
      "v": 1
    },
    {
      "midi": 72,
      "hit": false,
      "t": 216141.29999999874,
      "d": 588.5815000000002,
      "v": 1
    },
    {
      "midi": 58,
      "hit": false,
      "t": 216731.84999999873,
      "d": 352.36149999999907,
      "v": 1
    },
    {
      "midi": 70,
      "hit": false,
      "t": 216731.84999999873,
      "d": 352.36149999999907,
      "v": 1
    },
    {
      "midi": 57,
      "hit": false,
      "t": 217086.1799999987,
      "d": 234.25150000001304,
      "v": 1
    },
    {
      "midi": 69,
      "hit": false,
      "t": 217086.1799999987,
      "d": 234.25150000001304,
      "v": 1
    },
    {
      "midi": 60,
      "hit": false,
      "t": 217322.3999999987,
      "d": 1297.2415000000037,
      "v": 1
    },
    {
      "midi": 72,
      "hit": false,
      "t": 217322.3999999987,
      "d": 1297.2415000000037,
      "v": 1
    },
    {
      "midi": 58,
      "hit": false,
      "t": 218621.6099999987,
      "d": 352.36149999999907,
      "v": 1
    },
    {
      "midi": 70,
      "hit": false,
      "t": 218621.6099999987,
      "d": 352.36149999999907,
      "v": 1
    },
    {
      "midi": 57,
      "hit": false,
      "t": 218975.9399999987,
      "d": 234.25150000001304,
      "v": 1
    },
    {
      "midi": 69,
      "hit": false,
      "t": 219212.1599999987,
      "d": 116.1414999999979,
      "v": 1
    },
    {
      "midi": 60,
      "hit": false,
      "t": 219212.1599999987,
      "d": 2124.0114999999932,
      "v": 1
    },
    {
      "midi": 65,
      "hit": false,
      "t": 219212.1599999987,
      "d": 2124.0114999999932,
      "v": 1
    }
  ]
}