{
  "jsonPath": "Unknown/Unknown/The Rainbow Orchestra/lily-was-here.json",
  "path": "Unknown\\Unknown\\The Rainbow Orchestra\\Lily Was Here.mid",
  "name": "Lily Was Here",
  "difficulty": "Advanced",
  "bpm": 109.99990833340972,
  "notes": [
    {
      "midi": 52,
      "hit": false,
      "t": 98687.58223958334,
      "d": 1744.3196354166867,
      "v": 98
    },
    {
      "midi": 40,
      "hit": false,
      "t": 98707.46861979167,
      "d": 1741.478723958353,
      "v": 95
    },
    {
      "midi": 62,
      "hit": false,
      "t": 98727.35500000001,
      "d": 1741.478723958353,
      "v": 80
    },
    {
      "midi": 66,
      "hit": false,
      "t": 98750.08229166668,
      "d": 1707.3877864583483,
      "v": 94
    },
    {
      "midi": 59,
      "hit": false,
      "t": 98781.33231770835,
      "d": 1704.5468750000146,
      "v": 97
    },
    {
      "midi": 59,
      "hit": false,
      "t": 100633.6065885417,
      "d": 93.75007812499825,
      "v": 98
    },
    {
      "midi": 62,
      "hit": false,
      "t": 100642.1293229167,
      "d": 68.18187499999476,
      "v": 101
    },
    {
      "midi": 55,
      "hit": false,
      "t": 100650.6520572917,
      "d": 73.8636979166622,
      "v": 104
    },
    {
      "midi": 59,
      "hit": false,
      "t": 101451.7890885417,
      "d": 193.1819791666785,
      "v": 97
    },
    {
      "midi": 66,
      "hit": false,
      "t": 101457.47091145837,
      "d": 173.29559895834245,
      "v": 99
    },
    {
      "midi": 62,
      "hit": false,
      "t": 101463.15273437503,
      "d": 144.88648437500524,
      "v": 98
    },
    {
      "midi": 66,
      "hit": false,
      "t": 102264.28976562504,
      "d": 125.00010416666919,
      "v": 104
    },
    {
      "midi": 71,
      "hit": false,
      "t": 102272.81250000004,
      "d": 133.52283854167035,
      "v": 96
    },
    {
      "midi": 62,
      "hit": false,
      "t": 102278.49432291671,
      "d": 85.22734374999709,
      "v": 98
    },
    {
      "midi": 57,
      "hit": false,
      "t": 103071.10861979172,
      "d": 1159.0918750000128,
      "v": 91
    },
    {
      "midi": 60,
      "hit": false,
      "t": 103088.15408854172,
      "d": 1176.1373437500151,
      "v": 91
    },
    {
      "midi": 64,
      "hit": false,
      "t": 103105.19955729172,
      "d": 1184.6600781250163,
      "v": 91
    },
    {
      "midi": 67,
      "hit": false,
      "t": 103127.92684895839,
      "d": 1178.9782552083489,
      "v": 92
    },
    {
      "midi": 64,
      "hit": false,
      "t": 104437.58703125008,
      "d": 68.18187500000931,
      "v": 93
    },
    {
      "midi": 67,
      "hit": false,
      "t": 104437.58703125008,
      "d": 99.43190104168025,
      "v": 95
    },
    {
      "midi": 57,
      "hit": false,
      "t": 104443.26885416674,
      "d": 96.59098958334653,
      "v": 93
    },
    {
      "midi": 60,
      "hit": false,
      "t": 104460.31432291675,
      "d": 96.59098958334653,
      "v": 93
    },
    {
      "midi": 64,
      "hit": false,
      "t": 105252.92861979175,
      "d": 664.7732812500035,
      "v": 96
    },
    {
      "midi": 67,
      "hit": false,
      "t": 105261.45135416675,
      "d": 667.6141927083372,
      "v": 89
    },
    {
      "midi": 60,
      "hit": false,
      "t": 105269.97408854176,
      "d": 676.1369270833384,
      "v": 93
    },
    {
      "midi": 64,
      "hit": false,
      "t": 106105.20205729177,
      "d": 113.6364583333343,
      "v": 98
    },
    {
      "midi": 67,
      "hit": false,
      "t": 106105.20205729177,
      "d": 130.68192708333663,
      "v": 92
    },
    {
      "midi": 60,
      "hit": false,
      "t": 106105.20205729177,
      "d": 144.88648437500524,
      "v": 106
    },
    {
      "midi": 64,
      "hit": false,
      "t": 106505.77057291678,
      "d": 96.59098958333198,
      "v": 103
    },
    {
      "midi": 67,
      "hit": false,
      "t": 106505.77057291678,
      "d": 116.47736979166802,
      "v": 97
    },
    {
      "midi": 60,
      "hit": false,
      "t": 106508.61148437511,
      "d": 122.15919270833547,
      "v": 103
    },
    {
      "midi": 47,
      "hit": false,
      "t": 107312.58942708345,
      "d": 1718.751432291654,
      "v": 106
    },
    {
      "midi": 50,
      "hit": false,
      "t": 107437.58953125012,
      "d": 1545.4558333333116,
      "v": 93
    },
    {
      "midi": 54,
      "hit": false,
      "t": 107545.54416666679,
      "d": 1477.2739583333168,
      "v": 107
    },
    {
      "midi": 59,
      "hit": false,
      "t": 107633.61242187512,
      "d": 1420.455729166657,
      "v": 98
    },
    {
      "midi": 66,
      "hit": false,
      "t": 107727.36250000012,
      "d": 1298.2965364583215,
      "v": 111
    },
    {
      "midi": 71,
      "hit": false,
      "t": 107798.38528645845,
      "d": 1250.0010416666628,
      "v": 77
    },
    {
      "midi": 74,
      "hit": false,
      "t": 107866.56716145844,
      "d": 1193.182812500003,
      "v": 90
    },
    {
      "midi": 78,
      "hit": false,
      "t": 107946.11268229177,
      "d": 1125.0009375000081,
      "v": 114
    },
    {
      "midi": 81,
      "hit": false,
      "t": 108048.38549479177,
      "d": 988.6371875000041,
      "v": 100
    },
    {
      "midi": 93,
      "hit": false,
      "t": 108119.4082812501,
      "d": 965.9098958333489,
      "v": 121
    },
    {
      "midi": 59,
      "hit": false,
      "t": 109071.11361979178,
      "d": 1036.9326822916628,
      "v": 107
    },
    {
      "midi": 57,
      "hit": false,
      "t": 109071.11361979178,
      "d": 1056.8190624999988,
      "v": 106
    },
    {
      "midi": 62,
      "hit": false,
      "t": 109071.11361979178,
      "d": 1056.8190624999988,
      "v": 106
    },
    {
      "midi": 81,
      "hit": false,
      "t": 109673.38684895844,
      "d": 443.1821875000023,
      "v": 100
    },
    {
      "midi": 93,
      "hit": false,
      "t": 109721.68234375012,
      "d": 443.1821875000023,
      "v": 85
    },
    {
      "midi": 78,
      "hit": false,
      "t": 110218.84184895844,
      "d": 443.1821875000169,
      "v": 96
    },
    {
      "midi": 90,
      "hit": false,
      "t": 110267.13734375012,
      "d": 443.1821875000169,
      "v": 80
    },
    {
      "midi": 62,
      "hit": false,
      "t": 110457.47841145845,
      "d": 122.15919270833547,
      "v": 102
    },
    {
      "midi": 59,
      "hit": false,
      "t": 110457.47841145845,
      "d": 125.00010416666919,
      "v": 103
    },
    {
      "midi": 66,
      "hit": false,
      "t": 110457.47841145845,
      "d": 127.84101562500291,
      "v": 99
    },
    {
      "midi": 74,
      "hit": false,
      "t": 110627.93309895846,
      "d": 443.1821875000169,
      "v": 102
    },
    {
      "midi": 86,
      "hit": false,
      "t": 110676.22859375013,
      "d": 443.1821875000169,
      "v": 87
    },
    {
      "midi": 69,
      "hit": false,
      "t": 110875.09239583346,
      "d": 116.47736979166802,
      "v": 101
    },
    {
      "midi": 66,
      "hit": false,
      "t": 110880.77421875013,
      "d": 88.06825520833081,
      "v": 112
    },
    {
      "midi": 62,
      "hit": false,
      "t": 110880.77421875013,
      "d": 99.4319010416657,
      "v": 107
    },
    {
      "midi": 71,
      "hit": false,
      "t": 111037.02434895847,
      "d": 443.1821875000169,
      "v": 101
    },
    {
      "midi": 83,
      "hit": false,
      "t": 111085.31984375014,
      "d": 443.1821875000169,
      "v": 86
    },
    {
      "midi": 64,
      "hit": false,
      "t": 111528.50203125016,
      "d": 59.6591406249936,
      "v": 91
    },
    {
      "midi": 67,
      "hit": false,
      "t": 111528.50203125016,
      "d": 71.02278645832848,
      "v": 89
    },
    {
      "midi": 62,
      "hit": false,
      "t": 111531.34294270849,
      "d": 82.38643229166337,
      "v": 91
    },
    {
      "midi": 64,
      "hit": false,
      "t": 112380.77546875016,
      "d": 772.7279166666704,
      "v": 106
    },
    {
      "midi": 67,
      "hit": false,
      "t": 112380.77546875016,
      "d": 781.2506510416715,
      "v": 98
    },
    {
      "midi": 62,
      "hit": false,
      "t": 112383.61638020849,
      "d": 744.3188020833331,
      "v": 97
    },
    {
      "midi": 71,
      "hit": false,
      "t": 113190.43523437517,
      "d": 167.61377604166046,
      "v": 96
    },
    {
      "midi": 64,
      "hit": false,
      "t": 113193.2761458335,
      "d": 173.2955989583279,
      "v": 95
    },
    {
      "midi": 67,
      "hit": false,
      "t": 113193.2761458335,
      "d": 181.81833333332906,
      "v": 101
    },
    {
      "midi": 47,
      "hit": false,
      "t": 114091.00416666683,
      "d": 1042.6145052083302,
      "v": 109
    },
    {
      "midi": 52,
      "hit": false,
      "t": 114181.91333333349,
      "d": 906.2507552083262,
      "v": 92
    },
    {
      "midi": 54,
      "hit": false,
      "t": 114272.82250000015,
      "d": 906.2507552083407,
      "v": 112
    },
    {
      "midi": 55,
      "hit": false,
      "t": 114363.73166666682,
      "d": 798.2961197916738,
      "v": 98
    },
    {
      "midi": 59,
      "hit": false,
      "t": 114454.64083333348,
      "d": 789.7733854166872,
      "v": 103
    },
    {
      "midi": 62,
      "hit": false,
      "t": 114542.70908854181,
      "d": 625.000520833346,
      "v": 120
    },
    {
      "midi": 64,
      "hit": false,
      "t": 114636.45916666681,
      "d": 497.15950520834303,
      "v": 102
    },
    {
      "midi": 66,
      "hit": false,
      "t": 114727.36833333348,
      "d": 497.1595052083576,
      "v": 112
    },
    {
      "midi": 67,
      "hit": false,
      "t": 114818.27750000014,
      "d": 497.1595052083576,
      "v": 127
    },
    {
      "midi": 71,
      "hit": false,
      "t": 114909.1866666668,
      "d": 116.47736979166802,
      "v": 107
    },
    {
      "midi": 74,
      "hit": false,
      "t": 115000.09583333347,
      "d": 73.86369791667676,
      "v": 109
    },
    {
      "midi": 71,
      "hit": false,
      "t": 115076.80044270848,
      "d": 71.02278645834303,
      "v": 79
    },
    {
      "midi": 28,
      "hit": false,
      "t": 115076.80044270848,
      "d": 79.5455208333442,
      "v": 87
    },
    {
      "midi": 78,
      "hit": false,
      "t": 115079.64135416682,
      "d": 53.977317708340706,
      "v": 123
    },
    {
      "midi": 40,
      "hit": false,
      "t": 115082.48226562515,
      "d": 76.70460937501048,
      "v": 85
    },
    {
      "midi": 40,
      "hit": false,
      "t": 115343.84611979184,
      "d": 951.7053385416657,
      "v": 88
    },
    {
      "midi": 28,
      "hit": false,
      "t": 115349.5279427085,
      "d": 951.7053385416657,
      "v": 90
    },
    {
      "midi": 71,
      "hit": false,
      "t": 115352.36885416684,
      "d": 934.6598697916634,
      "v": 82
    },
    {
      "midi": 74,
      "hit": false,
      "t": 115352.36885416684,
      "d": 934.6598697916634,
      "v": 101
    },
    {
      "midi": 78,
      "hit": false,
      "t": 115355.20976562517,
      "d": 926.1371354166622,
      "v": 104
    },
    {
      "midi": 67,
      "hit": false,
      "t": 116457.48341145851,
      "d": 56.81822916667443,
      "v": 88
    },
    {
      "midi": 71,
      "hit": false,
      "t": 116457.48341145851,
      "d": 68.18187500000931,
      "v": 101
    },
    {
      "midi": 74,
      "hit": false,
      "t": 116460.32432291684,
      "d": 51.136406250006985,
      "v": 101
    },
    {
      "midi": 67,
      "hit": false,
      "t": 117264.30226562519,
      "d": 167.61377604166046,
      "v": 120
    },
    {
      "midi": 71,
      "hit": false,
      "t": 117264.30226562519,
      "d": 170.45468749999418,
      "v": 106
    },
    {
      "midi": 64,
      "hit": false,
      "t": 117267.14317708352,
      "d": 181.81833333332906,
      "v": 99
    },
    {
      "midi": 67,
      "hit": false,
      "t": 118360.89408854184,
      "d": 79.54552083332965,
      "v": 92
    },
    {
      "midi": 64,
      "hit": false,
      "t": 118363.73500000018,
      "d": 68.18187499999476,
      "v": 93
    },
    {
      "midi": 62,
      "hit": false,
      "t": 118363.73500000018,
      "d": 76.70460937499593,
      "v": 93
    },
    {
      "midi": 74,
      "hit": false,
      "t": 119159.1902083335,
      "d": 68.18187499999476,
      "v": 96
    },
    {
      "midi": 71,
      "hit": false,
      "t": 119159.1902083335,
      "d": 73.8636979166622,
      "v": 103
    },
    {
      "midi": 67,
      "hit": false,
      "t": 119159.1902083335,
      "d": 88.06825520833081,
      "v": 97
    },
    {
      "midi": 74,
      "hit": false,
      "t": 119576.8041927085,
      "d": 588.068671874993,
      "v": 91
    },
    {
      "midi": 71,
      "hit": false,
      "t": 119579.64510416683,
      "d": 491.47768229166104,
      "v": 95
    },
    {
      "midi": 67,
      "hit": false,
      "t": 119582.48601562517,
      "d": 406.25033854166395,
      "v": 92
    },
    {
      "midi": 72,
      "hit": false,
      "t": 119988.73635416683,
      "d": 329.545729166668,
      "v": 98
    },
    {
      "midi": 67,
      "hit": false,
      "t": 119988.73635416683,
      "d": 332.38664062500175,
      "v": 103
    },
    {
      "midi": 69,
      "hit": false,
      "t": 119991.57726562516,
      "d": 326.7048177083343,
      "v": 114
    },
    {
      "midi": 69,
      "hit": false,
      "t": 120426.23671875017,
      "d": 79.54552083332965,
      "v": 101
    },
    {
      "midi": 72,
      "hit": false,
      "t": 120426.23671875017,
      "d": 93.75007812499825,
      "v": 95
    },
    {
      "midi": 67,
      "hit": false,
      "t": 120429.0776302085,
      "d": 99.4319010416657,
      "v": 98
    },
    {
      "midi": 67,
      "hit": false,
      "t": 120823.96432291683,
      "d": 90.90916666666453,
      "v": 106
    },
    {
      "midi": 72,
      "hit": false,
      "t": 120823.96432291683,
      "d": 90.90916666666453,
      "v": 107
    },
    {
      "midi": 69,
      "hit": false,
      "t": 120826.80523437516,
      "d": 71.02278645832848,
      "v": 114
    },
    {
      "midi": 55,
      "hit": false,
      "t": 121071.12361979183,
      "d": 619.318697916693,
      "v": 103
    },
    {
      "midi": 67,
      "hit": false,
      "t": 121113.73729166684,
      "d": 593.7504947916896,
      "v": 77
    },
    {
      "midi": 60,
      "hit": false,
      "t": 121346.69203125018,
      "d": 625.000520833346,
      "v": 100
    },
    {
      "midi": 72,
      "hit": false,
      "t": 121383.62388020851,
      "d": 599.4323177083425,
      "v": 75
    },
    {
      "midi": 64,
      "hit": false,
      "t": 121625.10135416685,
      "d": 616.4777864583302,
      "v": 114
    },
    {
      "midi": 76,
      "hit": false,
      "t": 121659.19229166686,
      "d": 607.9550520833291,
      "v": 103
    },
    {
      "midi": 45,
      "hit": false,
      "t": 121889.30611979186,
      "d": 1752.8423697916878,
      "v": 97
    },
    {
      "midi": 57,
      "hit": false,
      "t": 122037.03351562518,
      "d": 1744.3196354167012,
      "v": 89
    },
    {
      "midi": 66,
      "hit": false,
      "t": 122136.46541666685,
      "d": 795.4552083333547,
      "v": 103
    },
    {
      "midi": 69,
      "hit": false,
      "t": 122227.37458333351,
      "d": 715.909687500025,
      "v": 85
    },
    {
      "midi": 72,
      "hit": false,
      "t": 122269.98825520852,
      "d": 678.9778385416867,
      "v": 84
    },
    {
      "midi": 76,
      "hit": false,
      "t": 122306.92010416686,
      "d": 997.1599218750198,
      "v": 107
    },
    {
      "midi": 78,
      "hit": false,
      "t": 122409.19291666686,
      "d": 1127.8418489583564,
      "v": 101
    },
    {
      "midi": 81,
      "hit": false,
      "t": 122500.10208333352,
      "d": 1090.910000000018,
      "v": 86
    },
    {
      "midi": 84,
      "hit": false,
      "t": 122542.71575520853,
      "d": 1082.3872656250169,
      "v": 103
    },
    {
      "midi": 88,
      "hit": false,
      "t": 122579.64760416686,
      "d": 1051.137239583346,
      "v": 93
    },
    {
      "midi": 93,
      "hit": false,
      "t": 122687.60223958353,
      "d": 946.0235156250128,
      "v": 111
    },
    {
      "midi": 72,
      "hit": false,
      "t": 123000.10250000021,
      "d": 73.8636979166622,
      "v": 92
    },
    {
      "midi": 69,
      "hit": false,
      "t": 123002.94341145855,
      "d": 68.18187499999476,
      "v": 96
    },
    {
      "midi": 66,
      "hit": false,
      "t": 123002.94341145855,
      "d": 85.22734374999709,
      "v": 91
    },
    {
      "midi": 69,
      "hit": false,
      "t": 123429.08013020855,
      "d": 65.34096354166104,
      "v": 97
    },
    {
      "midi": 72,
      "hit": false,
      "t": 123431.92104166688,
      "d": 62.50005208332732,
      "v": 88
    },
    {
      "midi": 66,
      "hit": false,
      "t": 123431.92104166688,
      "d": 79.54552083332965,
      "v": 101
    },
    {
      "midi": 72,
      "hit": false,
      "t": 123821.12591145856,
      "d": 553.9777343750029,
      "v": 97
    },
    {
      "midi": 69,
      "hit": false,
      "t": 123823.96682291689,
      "d": 556.8186458333366,
      "v": 107
    },
    {
      "midi": 66,
      "hit": false,
      "t": 123826.80773437522,
      "d": 573.864114583339,
      "v": 106
    },
    {
      "midi": 69,
      "hit": false,
      "t": 124639.30841145857,
      "d": 159.09104166667385,
      "v": 97
    },
    {
      "midi": 71,
      "hit": false,
      "t": 124642.1493229169,
      "d": 113.6364583333343,
      "v": 96
    },
    {
      "midi": 74,
      "hit": false,
      "t": 124642.1493229169,
      "d": 133.52283854167035,
      "v": 89
    },
    {
      "midi": 74,
      "hit": false,
      "t": 125082.49059895857,
      "d": 68.18187499999476,
      "v": 91
    },
    {
      "midi": 69,
      "hit": false,
      "t": 125082.49059895857,
      "d": 76.70460937499593,
      "v": 96
    },
    {
      "midi": 71,
      "hit": false,
      "t": 125085.3315104169,
      "d": 68.18187499999476,
      "v": 101
    },
    {
      "midi": 74,
      "hit": false,
      "t": 125448.96817708356,
      "d": 480.1140364583407,
      "v": 113
    },
    {
      "midi": 71,
      "hit": false,
      "t": 125451.8090885419,
      "d": 485.79585937500815,
      "v": 107
    },
    {
      "midi": 69,
      "hit": false,
      "t": 125451.8090885419,
      "d": 500.00041666667676,
      "v": 106
    },
    {
      "midi": 69,
      "hit": false,
      "t": 126000.10500000024,
      "d": 448.86401041666977,
      "v": 103
    },
    {
      "midi": 71,
      "hit": false,
      "t": 126136.46875000025,
      "d": 431.81854166666744,
      "v": 83
    },
    {
      "midi": 74,
      "hit": false,
      "t": 126272.83250000025,
      "d": 380.68213541666046,
      "v": 104
    },
    {
      "midi": 78,
      "hit": false,
      "t": 126795.56020833358,
      "d": 93.75007812499825,
      "v": 121
    },
    {
      "midi": 74,
      "hit": false,
      "t": 126795.56020833358,
      "d": 96.59098958333198,
      "v": 101
    },
    {
      "midi": 71,
      "hit": false,
      "t": 126798.40111979192,
      "d": 99.4319010416657,
      "v": 97
    }
  ]
}