{
  "jsonPath": "Unknown/Unknown/The Rainbow Orchestra/your-latest-trick.json",
  "path": "Unknown\\Unknown\\The Rainbow Orchestra\\Your Latest Trick.mid",
  "name": "Your Latest Trick",
  "difficulty": "Advanced",
  "bpm": 131.0040807771162,
  "notes": [
    {
      "midi": 64,
      "hit": false,
      "t": 14548.5965625,
      "d": 770.2012500000019,
      "v": 73
    },
    {
      "midi": 61,
      "hit": false,
      "t": 14551.753125000001,
      "d": 754.4184375000004,
      "v": 73
    },
    {
      "midi": 68,
      "hit": false,
      "t": 14551.753125000001,
      "d": 763.8881250000013,
      "v": 68
    },
    {
      "midi": 49,
      "hit": false,
      "t": 14554.909687500001,
      "d": 921.7162500000013,
      "v": 60
    },
    {
      "midi": 64,
      "hit": false,
      "t": 15448.216875000002,
      "d": 1392.044062500001,
      "v": 73
    },
    {
      "midi": 61,
      "hit": false,
      "t": 15448.216875000002,
      "d": 1439.3925000000017,
      "v": 64
    },
    {
      "midi": 57,
      "hit": false,
      "t": 15451.373437500002,
      "d": 1388.8875000000007,
      "v": 60
    },
    {
      "midi": 59,
      "hit": false,
      "t": 15451.373437500002,
      "d": 1388.8875000000007,
      "v": 64
    },
    {
      "midi": 45,
      "hit": false,
      "t": 15457.686562500003,
      "d": 1505.6803125000006,
      "v": 64
    },
    {
      "midi": 47,
      "hit": false,
      "t": 16966.523437500004,
      "d": 2471.5884375000023,
      "v": 64
    },
    {
      "midi": 61,
      "hit": false,
      "t": 16969.680000000004,
      "d": 2376.891562500001,
      "v": 64
    },
    {
      "midi": 63,
      "hit": false,
      "t": 16972.836562500004,
      "d": 2376.891562500001,
      "v": 73
    },
    {
      "midi": 59,
      "hit": false,
      "t": 16975.993125000005,
      "d": 2339.012812500001,
      "v": 73
    },
    {
      "midi": 66,
      "hit": false,
      "t": 16975.993125000005,
      "d": 2342.1693750000013,
      "v": 60
    },
    {
      "midi": 56,
      "hit": false,
      "t": 19400.233125000006,
      "d": 2313.7603125000023,
      "v": 64
    },
    {
      "midi": 59,
      "hit": false,
      "t": 19400.233125000006,
      "d": 2313.7603125000023,
      "v": 82
    },
    {
      "midi": 66,
      "hit": false,
      "t": 19403.389687500006,
      "d": 2285.3512499999997,
      "v": 64
    },
    {
      "midi": 63,
      "hit": false,
      "t": 19403.389687500006,
      "d": 2291.6643750000003,
      "v": 64
    },
    {
      "midi": 44,
      "hit": false,
      "t": 19403.389687500006,
      "d": 2323.230000000003,
      "v": 56
    },
    {
      "midi": 45,
      "hit": false,
      "t": 21811.84687500001,
      "d": 2348.482500000002,
      "v": 60
    },
    {
      "midi": 61,
      "hit": false,
      "t": 21827.62968750001,
      "d": 2200.124062499999,
      "v": 64
    },
    {
      "midi": 59,
      "hit": false,
      "t": 21830.786250000012,
      "d": 2171.715,
      "v": 73
    },
    {
      "midi": 64,
      "hit": false,
      "t": 21833.942812500012,
      "d": 2140.149375000001,
      "v": 73
    },
    {
      "midi": 57,
      "hit": false,
      "t": 21833.942812500012,
      "d": 2146.4625000000015,
      "v": 60
    },
    {
      "midi": 42,
      "hit": false,
      "t": 24245.556562500013,
      "d": 2206.4371874999997,
      "v": 56
    },
    {
      "midi": 61,
      "hit": false,
      "t": 24251.869687500013,
      "d": 773.3578124999985,
      "v": 73
    },
    {
      "midi": 66,
      "hit": false,
      "t": 24251.869687500013,
      "d": 2357.952187499999,
      "v": 64
    },
    {
      "midi": 58,
      "hit": false,
      "t": 24255.026250000014,
      "d": 741.7921874999993,
      "v": 60
    },
    {
      "midi": 58,
      "hit": false,
      "t": 25160.959687500013,
      "d": 1439.392499999998,
      "v": 73
    },
    {
      "midi": 61,
      "hit": false,
      "t": 25160.959687500013,
      "d": 1439.392499999998,
      "v": 82
    },
    {
      "midi": 54,
      "hit": false,
      "t": 25160.959687500013,
      "d": 1445.7056249999987,
      "v": 60
    },
    {
      "midi": 47,
      "hit": false,
      "t": 26657.170312500013,
      "d": 2171.715,
      "v": 64
    },
    {
      "midi": 54,
      "hit": false,
      "t": 26660.326875000013,
      "d": 2348.482500000002,
      "v": 73
    },
    {
      "midi": 66,
      "hit": false,
      "t": 26663.483437500014,
      "d": 2335.8562500000007,
      "v": 64
    },
    {
      "midi": 63,
      "hit": false,
      "t": 26663.483437500014,
      "d": 2342.1693750000013,
      "v": 70
    },
    {
      "midi": 59,
      "hit": false,
      "t": 26666.640000000014,
      "d": 2329.543125,
      "v": 64
    },
    {
      "midi": 54,
      "hit": false,
      "t": 29087.723437500015,
      "d": 2285.3512499999997,
      "v": 64
    },
    {
      "midi": 60,
      "hit": false,
      "t": 29087.723437500015,
      "d": 2285.3512499999997,
      "v": 74
    },
    {
      "midi": 56,
      "hit": false,
      "t": 29087.723437500015,
      "d": 2301.134062500001,
      "v": 74
    },
    {
      "midi": 44,
      "hit": false,
      "t": 29094.036562500016,
      "d": 2285.3512499999997,
      "v": 56
    },
    {
      "midi": 63,
      "hit": false,
      "t": 29094.036562500016,
      "d": 2285.3512499999997,
      "v": 73
    },
    {
      "midi": 54,
      "hit": false,
      "t": 31502.493750000016,
      "d": 1098.4837499999994,
      "v": 60
    },
    {
      "midi": 57,
      "hit": false,
      "t": 31505.650312500016,
      "d": 1085.8574999999983,
      "v": 82
    },
    {
      "midi": 64,
      "hit": false,
      "t": 31508.806875000017,
      "d": 1022.7262499999997,
      "v": 82
    },
    {
      "midi": 60,
      "hit": false,
      "t": 31508.806875000017,
      "d": 1107.9534375000003,
      "v": 73
    },
    {
      "midi": 45,
      "hit": false,
      "t": 31508.806875000017,
      "d": 2357.952187499999,
      "v": 64
    },
    {
      "midi": 60,
      "hit": false,
      "t": 32714.61375000002,
      "d": 1167.9281249999985,
      "v": 60
    },
    {
      "midi": 63,
      "hit": false,
      "t": 32720.92687500002,
      "d": 1161.614999999998,
      "v": 64
    },
    {
      "midi": 56,
      "hit": false,
      "t": 32720.92687500002,
      "d": 1167.9281249999985,
      "v": 73
    },
    {
      "midi": 54,
      "hit": false,
      "t": 32720.92687500002,
      "d": 1183.7109375,
      "v": 73
    },
    {
      "midi": 61,
      "hit": false,
      "t": 33933.04687500002,
      "d": 754.4184374999968,
      "v": 73
    },
    {
      "midi": 68,
      "hit": false,
      "t": 33933.04687500002,
      "d": 763.8881249999977,
      "v": 68
    },
    {
      "midi": 64,
      "hit": false,
      "t": 33933.04687500002,
      "d": 770.2012499999983,
      "v": 73
    },
    {
      "midi": 49,
      "hit": false,
      "t": 33933.04687500002,
      "d": 921.7162499999977,
      "v": 60
    },
    {
      "midi": 61,
      "hit": false,
      "t": 34842.13687500002,
      "d": 568.1812500000015,
      "v": 64
    },
    {
      "midi": 64,
      "hit": false,
      "t": 34842.13687500002,
      "d": 568.1812500000015,
      "v": 73
    },
    {
      "midi": 59,
      "hit": false,
      "t": 34845.29343750002,
      "d": 568.1812500000015,
      "v": 64
    },
    {
      "midi": 57,
      "hit": false,
      "t": 34845.29343750002,
      "d": 1388.8875000000044,
      "v": 60
    },
    {
      "midi": 45,
      "hit": false,
      "t": 34851.60656250002,
      "d": 1505.6803125000006,
      "v": 64
    },
    {
      "midi": 68,
      "hit": false,
      "t": 35451.35343750002,
      "d": 858.5849999999991,
      "v": 60
    },
    {
      "midi": 61,
      "hit": false,
      "t": 35454.510000000024,
      "d": 858.5849999999991,
      "v": 73
    },
    {
      "midi": 64,
      "hit": false,
      "t": 35454.510000000024,
      "d": 858.5849999999991,
      "v": 73
    },
    {
      "midi": 59,
      "hit": false,
      "t": 35457.666562500024,
      "d": 836.4890624999971,
      "v": 64
    },
    {
      "midi": 47,
      "hit": false,
      "t": 36360.44343750002,
      "d": 2471.5884375000096,
      "v": 64
    },
    {
      "midi": 68,
      "hit": false,
      "t": 36373.06968750002,
      "d": 716.5396875000006,
      "v": 60
    },
    {
      "midi": 59,
      "hit": false,
      "t": 36373.06968750002,
      "d": 719.6962500000009,
      "v": 73
    },
    {
      "midi": 63,
      "hit": false,
      "t": 36373.06968750002,
      "d": 735.4790625000023,
      "v": 73
    },
    {
      "midi": 63,
      "hit": false,
      "t": 37269.533437500024,
      "d": 1420.453125,
      "v": 73
    },
    {
      "midi": 66,
      "hit": false,
      "t": 37275.846562500024,
      "d": 1385.7309374999968,
      "v": 73
    },
    {
      "midi": 57,
      "hit": false,
      "t": 37275.846562500024,
      "d": 1388.887499999997,
      "v": 82
    },
    {
      "midi": 59,
      "hit": false,
      "t": 37275.846562500024,
      "d": 1401.5137499999983,
      "v": 73
    },
    {
      "midi": 56,
      "hit": false,
      "t": 38794.153125000026,
      "d": 568.1812500000015,
      "v": 64
    },
    {
      "midi": 59,
      "hit": false,
      "t": 38794.153125000026,
      "d": 568.1812500000015,
      "v": 82
    },
    {
      "midi": 63,
      "hit": false,
      "t": 38797.30968750003,
      "d": 568.1812500000015,
      "v": 64
    },
    {
      "midi": 66,
      "hit": false,
      "t": 38797.30968750003,
      "d": 568.1812500000015,
      "v": 64
    },
    {
      "midi": 44,
      "hit": false,
      "t": 38797.30968750003,
      "d": 2323.230000000003,
      "v": 56
    },
    {
      "midi": 59,
      "hit": false,
      "t": 39400.21312500003,
      "d": 195.7068750000035,
      "v": 73
    },
    {
      "midi": 63,
      "hit": false,
      "t": 39400.21312500003,
      "d": 243.05531250000058,
      "v": 82
    },
    {
      "midi": 59,
      "hit": false,
      "t": 39690.61687500003,
      "d": 243.05531250000058,
      "v": 82
    },
    {
      "midi": 66,
      "hit": false,
      "t": 39706.39968750003,
      "d": 239.8987500000003,
      "v": 82
    },
    {
      "midi": 71,
      "hit": false,
      "t": 39709.55625000003,
      "d": 1445.7056250000023,
      "v": 82
    },
    {
      "midi": 59,
      "hit": false,
      "t": 40012.58625000003,
      "d": 1117.4231250000012,
      "v": 73
    },
    {
      "midi": 63,
      "hit": false,
      "t": 40015.74281250003,
      "d": 1114.2665625000009,
      "v": 91
    },
    {
      "midi": 45,
      "hit": false,
      "t": 41205.76687500003,
      "d": 2348.4825000000055,
      "v": 60
    },
    {
      "midi": 68,
      "hit": false,
      "t": 41221.54968750003,
      "d": 2200.1240625000064,
      "v": 64
    },
    {
      "midi": 61,
      "hit": false,
      "t": 41224.70625000003,
      "d": 2171.715000000004,
      "v": 73
    },
    {
      "midi": 64,
      "hit": false,
      "t": 41227.86281250003,
      "d": 2140.149375000001,
      "v": 73
    },
    {
      "midi": 59,
      "hit": false,
      "t": 41227.86281250003,
      "d": 2146.4625000000015,
      "v": 60
    },
    {
      "midi": 58,
      "hit": false,
      "t": 43630.006875000036,
      "d": 1117.4231250000012,
      "v": 73
    },
    {
      "midi": 61,
      "hit": false,
      "t": 43630.006875000036,
      "d": 1117.4231250000012,
      "v": 73
    },
    {
      "midi": 66,
      "hit": false,
      "t": 43633.163437500036,
      "d": 1029.0393750000003,
      "v": 64
    },
    {
      "midi": 42,
      "hit": false,
      "t": 43639.47656250004,
      "d": 2206.4371874999997,
      "v": 56
    },
    {
      "midi": 61,
      "hit": false,
      "t": 44835.81375000004,
      "d": 1145.8321874999965,
      "v": 56
    },
    {
      "midi": 58,
      "hit": false,
      "t": 44838.97031250004,
      "d": 1148.9887499999968,
      "v": 60
    },
    {
      "midi": 54,
      "hit": false,
      "t": 44845.28343750004,
      "d": 1148.9887499999968,
      "v": 64
    },
    {
      "midi": 64,
      "hit": false,
      "t": 44854.75312500004,
      "d": 1117.423124999994,
      "v": 64
    },
    {
      "midi": 47,
      "hit": false,
      "t": 46051.09031250003,
      "d": 2171.715000000004,
      "v": 64
    },
    {
      "midi": 59,
      "hit": false,
      "t": 46070.029687500035,
      "d": 467.1712499999994,
      "v": 64
    },
    {
      "midi": 63,
      "hit": false,
      "t": 46070.029687500035,
      "d": 505.0500000000029,
      "v": 60
    },
    {
      "midi": 66,
      "hit": false,
      "t": 46073.186250000035,
      "d": 2361.1087499999994,
      "v": 64
    },
    {
      "midi": 59,
      "hit": false,
      "t": 46669.77656250004,
      "d": 473.484375,
      "v": 73
    },
    {
      "midi": 63,
      "hit": false,
      "t": 46669.77656250004,
      "d": 546.0853124999994,
      "v": 82
    },
    {
      "midi": 57,
      "hit": false,
      "t": 47278.99312500004,
      "d": 1167.9281249999985,
      "v": 91
    },
    {
      "midi": 61,
      "hit": false,
      "t": 47278.99312500004,
      "d": 1174.2412499999991,
      "v": 82
    },
    {
      "midi": 54,
      "hit": false,
      "t": 48481.64343750004,
      "d": 2285.3512499999997,
      "v": 64
    },
    {
      "midi": 60,
      "hit": false,
      "t": 48481.64343750004,
      "d": 2285.3512499999997,
      "v": 74
    },
    {
      "midi": 56,
      "hit": false,
      "t": 48481.64343750004,
      "d": 2301.134062500001,
      "v": 74
    },
    {
      "midi": 44,
      "hit": false,
      "t": 48487.95656250004,
      "d": 2285.3512499999997,
      "v": 56
    },
    {
      "midi": 63,
      "hit": false,
      "t": 48487.95656250004,
      "d": 2285.3512499999997,
      "v": 73
    },
    {
      "midi": 54,
      "hit": false,
      "t": 50896.41375000004,
      "d": 1098.4837499999994,
      "v": 60
    },
    {
      "midi": 57,
      "hit": false,
      "t": 50899.570312500044,
      "d": 1085.8574999999983,
      "v": 82
    },
    {
      "midi": 42,
      "hit": false,
      "t": 50899.570312500044,
      "d": 1167.9281249999985,
      "v": 73
    },
    {
      "midi": 64,
      "hit": false,
      "t": 50902.726875000044,
      "d": 1022.7262499999997,
      "v": 82
    },
    {
      "midi": 60,
      "hit": false,
      "t": 50902.726875000044,
      "d": 1107.9534375000003,
      "v": 73
    },
    {
      "midi": 60,
      "hit": false,
      "t": 52108.53375000004,
      "d": 1167.9281250000058,
      "v": 60
    },
    {
      "midi": 63,
      "hit": false,
      "t": 52114.84687500004,
      "d": 1161.6150000000052,
      "v": 64
    },
    {
      "midi": 56,
      "hit": false,
      "t": 52114.84687500004,
      "d": 1167.9281250000058,
      "v": 73
    },
    {
      "midi": 54,
      "hit": false,
      "t": 52114.84687500004,
      "d": 1183.7109375000073,
      "v": 73
    },
    {
      "midi": 44,
      "hit": false,
      "t": 52127.47312500004,
      "d": 1126.892812500002,
      "v": 60
    },
    {
      "midi": 64,
      "hit": false,
      "t": 53336.43656250005,
      "d": 2683.078125,
      "v": 73
    },
    {
      "midi": 56,
      "hit": false,
      "t": 53336.43656250005,
      "d": 2689.3912500000006,
      "v": 70
    },
    {
      "midi": 40,
      "hit": false,
      "t": 53339.59312500005,
      "d": 3276.511875000004,
      "v": 68
    },
    {
      "midi": 59,
      "hit": false,
      "t": 53342.74968750005,
      "d": 2351.6390624999985,
      "v": 82
    },
    {
      "midi": 52,
      "hit": false,
      "t": 55748.05031250005,
      "d": 909.0900000000111,
      "v": 40
    },
    {
      "midi": 59,
      "hit": false,
      "t": 56047.92375000005,
      "d": 615.5296875000058,
      "v": 56
    },
    {
      "midi": 64,
      "hit": false,
      "t": 56357.26687500005,
      "d": 306.1865625000064,
      "v": 66
    },
    {
      "midi": 54,
      "hit": false,
      "t": 56635.044375000056,
      "d": 1496.210625000007,
      "v": 60
    },
    {
      "midi": 61,
      "hit": false,
      "t": 56653.98375000006,
      "d": 1452.018750000003,
      "v": 73
    },
    {
      "midi": 69,
      "hit": false,
      "t": 56653.98375000006,
      "d": 1455.1753125000032,
      "v": 73
    },
    {
      "midi": 66,
      "hit": false,
      "t": 56653.98375000006,
      "d": 1467.8015625000044,
      "v": 73
    },
    {
      "midi": 54,
      "hit": false,
      "t": 58172.29031250006,
      "d": 785.9840624999997,
      "v": 56
    },
    {
      "midi": 47,
      "hit": false,
      "t": 58178.60343750006,
      "d": 779.6709374999991,
      "v": 73
    },
    {
      "midi": 59,
      "hit": false,
      "t": 58184.91656250006,
      "d": 785.9840624999997,
      "v": 73
    },
    {
      "midi": 63,
      "hit": false,
      "t": 58184.91656250006,
      "d": 817.5496875000026,
      "v": 60
    },
    {
      "midi": 49,
      "hit": false,
      "t": 59068.75406250006,
      "d": 1145.8321874999965,
      "v": 67
    },
    {
      "midi": 64,
      "hit": false,
      "t": 59075.06718750006,
      "d": 1082.700937499998,
      "v": 67
    },
    {
      "midi": 59,
      "hit": false,
      "t": 59078.22375000006,
      "d": 1092.1706249999988,
      "v": 76
    },
    {
      "midi": 54,
      "hit": false,
      "t": 59078.22375000006,
      "d": 1095.3271874999991,
      "v": 58
    },
    {
      "midi": 51,
      "hit": false,
      "t": 60290.34375000006,
      "d": 1148.988750000004,
      "v": 76
    },
    {
      "midi": 66,
      "hit": false,
      "t": 60296.65687500006,
      "d": 1126.892812500002,
      "v": 76
    },
    {
      "midi": 54,
      "hit": false,
      "t": 60296.65687500006,
      "d": 1145.8321875000038,
      "v": 54
    },
    {
      "midi": 59,
      "hit": false,
      "t": 60296.65687500006,
      "d": 1161.6150000000052,
      "v": 76
    },
    {
      "midi": 65,
      "hit": false,
      "t": 61511.93343750006,
      "d": 1262.625,
      "v": 73
    },
    {
      "midi": 61,
      "hit": false,
      "t": 61515.09000000006,
      "d": 1278.4078125000015,
      "v": 67
    },
    {
      "midi": 68,
      "hit": false,
      "t": 61515.09000000006,
      "d": 1316.286562500005,
      "v": 68
    },
    {
      "midi": 53,
      "hit": false,
      "t": 61518.24656250006,
      "d": 1262.625,
      "v": 76
    },
    {
      "midi": 57,
      "hit": false,
      "t": 62815.593750000065,
      "d": 4788.505312500005,
      "v": 48
    },
    {
      "midi": 61,
      "hit": false,
      "t": 62894.507812500065,
      "d": 4741.156874999993,
      "v": 56
    },
    {
      "midi": 66,
      "hit": false,
      "t": 62922.91687500007,
      "d": 4715.904374999984,
      "v": 60
    },
    {
      "midi": 42,
      "hit": false,
      "t": 63014.45718750007,
      "d": 4592.798437499994,
      "v": 64
    },
    {
      "midi": 69,
      "hit": false,
      "t": 63014.45718750007,
      "d": 4605.424687499995,
      "v": 73
    },
    {
      "midi": 64,
      "hit": false,
      "t": 67859.78062500006,
      "d": 2253.7856249999895,
      "v": 73
    },
    {
      "midi": 66,
      "hit": false,
      "t": 67862.93718750005,
      "d": 2231.6896874999948,
      "v": 60
    },
    {
      "midi": 71,
      "hit": false,
      "t": 67872.40687500004,
      "d": 2203.2806249999994,
      "v": 60
    },
    {
      "midi": 60,
      "hit": false,
      "t": 67872.40687500004,
      "d": 2256.942187499997,
      "v": 64
    },
    {
      "midi": 50,
      "hit": false,
      "t": 67872.40687500004,
      "d": 4753.783124999987,
      "v": 73
    },
    {
      "midi": 64,
      "hit": false,
      "t": 70321.89937500004,
      "d": 1076.38781249999,
      "v": 64
    },
    {
      "midi": 68,
      "hit": false,
      "t": 70331.36906250003,
      "d": 1063.7615625000035,
      "v": 44
    },
    {
      "midi": 60,
      "hit": false,
      "t": 70331.36906250003,
      "d": 1066.9181249999965,
      "v": 56
    },
    {
      "midi": 71,
      "hit": false,
      "t": 70331.36906250003,
      "d": 1066.9181249999965,
      "v": 60
    },
    {
      "midi": 64,
      "hit": false,
      "t": 71515.08000000003,
      "d": 1148.9887499999895,
      "v": 56
    },
    {
      "midi": 60,
      "hit": false,
      "t": 71527.70625000003,
      "d": 1123.7362500000017,
      "v": 60
    },
    {
      "midi": 69,
      "hit": false,
      "t": 71534.01937500003,
      "d": 1126.8928124999948,
      "v": 60
    },
    {
      "midi": 66,
      "hit": false,
      "t": 71534.01937500003,
      "d": 1136.3624999999884,
      "v": 60
    },
    {
      "midi": 59,
      "hit": false,
      "t": 72736.66968750002,
      "d": 849.1153124999983,
      "v": 64
    },
    {
      "midi": 56,
      "hit": false,
      "t": 72736.66968750002,
      "d": 956.4384374999936,
      "v": 60
    },
    {
      "midi": 40,
      "hit": false,
      "t": 72736.66968750002,
      "d": 3071.335312499985,
      "v": 52
    },
    {
      "midi": 47,
      "hit": false,
      "t": 72742.98281250002,
      "d": 3124.9968749999825,
      "v": 64
    },
    {
      "midi": 52,
      "hit": false,
      "t": 72746.13937500001,
      "d": 3124.9968749999825,
      "v": 56
    },
    {
      "midi": 64,
      "hit": false,
      "t": 73620.50718750001,
      "d": 2165.401874999996,
      "v": 64
    },
    {
      "midi": 68,
      "hit": false,
      "t": 73620.50718750001,
      "d": 2178.028124999997,
      "v": 60
    },
    {
      "midi": 59,
      "hit": false,
      "t": 73626.82031250001,
      "d": 2165.401874999996,
      "v": 64
    },
    {
      "midi": 61,
      "hit": false,
      "t": 76032.12093749999,
      "d": 1477.2712499999907,
      "v": 73
    },
    {
      "midi": 42,
      "hit": false,
      "t": 76044.74718749999,
      "d": 1395.2006249999977,
      "v": 64
    },
    {
      "midi": 66,
      "hit": false,
      "t": 76044.74718749999,
      "d": 1455.175312499996,
      "v": 73
    },
    {
      "midi": 57,
      "hit": false,
      "t": 76054.21687499998,
      "d": 1439.3925000000017,
      "v": 73
    },
    {
      "midi": 63,
      "hit": false,
      "t": 77569.36687499998,
      "d": 814.3931249999732,
      "v": 64
    },
    {
      "midi": 59,
      "hit": false,
      "t": 77572.52343749997,
      "d": 697.6003124999843,
      "v": 73
    },
    {
      "midi": 47,
      "hit": false,
      "t": 77575.67999999996,
      "d": 779.6709374999919,
      "v": 82
    },
    {
      "midi": 71,
      "hit": false,
      "t": 77578.83656249996,
      "d": 757.5749999999971,
      "v": 73
    },
    {
      "midi": 64,
      "hit": false,
      "t": 78481.61343749995,
      "d": 1038.5090624999866,
      "v": 82
    },
    {
      "midi": 49,
      "hit": false,
      "t": 78481.61343749995,
      "d": 1117.4231249999866,
      "v": 64
    },
    {
      "midi": 71,
      "hit": false,
      "t": 78484.76999999995,
      "d": 1117.4231249999866,
      "v": 56
    },
    {
      "midi": 61,
      "hit": false,
      "t": 78487.92656249994,
      "d": 1047.9787499999948,
      "v": 64
    },
    {
      "midi": 63,
      "hit": false,
      "t": 79706.35968749993,
      "d": 978.5343749999884,
      "v": 60
    },
    {
      "midi": 71,
      "hit": false,
      "t": 79709.51624999993,
      "d": 981.6909374999959,
      "v": 68
    },
    {
      "midi": 66,
      "hit": false,
      "t": 79709.51624999993,
      "d": 1057.448437500003,
      "v": 64
    },
    {
      "midi": 51,
      "hit": false,
      "t": 79709.51624999993,
      "d": 1082.7009375000052,
      "v": 64
    },
    {
      "midi": 65,
      "hit": false,
      "t": 80905.85343749993,
      "d": 1448.86218750001,
      "v": 73
    },
    {
      "midi": 68,
      "hit": false,
      "t": 80905.85343749993,
      "d": 1448.86218750001,
      "v": 60
    },
    {
      "midi": 61,
      "hit": false,
      "t": 80912.16656249993,
      "d": 1404.6703125000058,
      "v": 56
    },
    {
      "midi": 53,
      "hit": false,
      "t": 80912.16656249993,
      "d": 1410.9834375000064,
      "v": 73
    },
    {
      "midi": 42,
      "hit": false,
      "t": 82433.62968749994,
      "d": 2244.315937499996,
      "v": 64
    },
    {
      "midi": 61,
      "hit": false,
      "t": 82433.62968749994,
      "d": 2256.942187499997,
      "v": 60
    },
    {
      "midi": 57,
      "hit": false,
      "t": 82446.25593749994,
      "d": 2215.9068750000006,
      "v": 56
    },
    {
      "midi": 69,
      "hit": false,
      "t": 82452.56906249994,
      "d": 2225.376562499994,
      "v": 56
    },
    {
      "midi": 66,
      "hit": false,
      "t": 82458.88218749994,
      "d": 2219.0634374999936,
      "v": 60
    },
    {
      "midi": 64,
      "hit": false,
      "t": 87228.44812499994,
      "d": 4706.434687500005,
      "v": 64
    },
    {
      "midi": 71,
      "hit": false,
      "t": 87234.76124999994,
      "d": 4674.869062500002,
      "v": 56
    },
    {
      "midi": 60,
      "hit": false,
      "t": 87256.85718749993,
      "d": 4665.399375000008,
      "v": 56
    },
    {
      "midi": 66,
      "hit": false,
      "t": 87256.85718749993,
      "d": 4687.495312500003,
      "v": 60
    },
    {
      "midi": 50,
      "hit": false,
      "t": 87256.85718749993,
      "d": 4693.8084375000035,
      "v": 64
    },
    {
      "midi": 57,
      "hit": false,
      "t": 92099.02406249994,
      "d": 2225.3765625000087,
      "v": 56
    },
    {
      "midi": 64,
      "hit": false,
      "t": 92099.02406249994,
      "d": 2234.8462500000023,
      "v": 64
    },
    {
      "midi": 73,
      "hit": false,
      "t": 92099.02406249994,
      "d": 2234.8462500000023,
      "v": 56
    },
    {
      "midi": 45,
      "hit": false,
      "t": 92099.02406249994,
      "d": 2238.0028124999953,
      "v": 56
    },
    {
      "midi": 61,
      "hit": false,
      "t": 92099.02406249994,
      "d": 2238.0028124999953,
      "v": 56
    },
    {
      "midi": 69,
      "hit": false,
      "t": 92136.90281249995,
      "d": 2209.5937499999854,
      "v": 29
    },
    {
      "midi": 66,
      "hit": false,
      "t": 94516.95093749993,
      "d": 789.1406249999709,
      "v": 64
    },
    {
      "midi": 59,
      "hit": false,
      "t": 94529.57718749993,
      "d": 779.6709374999627,
      "v": 60
    },
    {
      "midi": 47,
      "hit": false,
      "t": 94539.04687499993,
      "d": 748.1053124999889,
      "v": 64
    },
    {
      "midi": 63,
      "hit": false,
      "t": 94539.04687499993,
      "d": 785.9840624999633,
      "v": 64
    },
    {
      "midi": 71,
      "hit": false,
      "t": 94548.51656249992,
      "d": 741.7921874999884,
      "v": 48
    },
    {
      "midi": 63,
      "hit": false,
      "t": 95426.04093749989,
      "d": 1511.993437499972,
      "v": 64
    },
    {
      "midi": 71,
      "hit": false,
      "t": 95441.82374999988,
      "d": 236.7421875,
      "v": 64
    },
    {
      "midi": 47,
      "hit": false,
      "t": 95441.82374999988,
      "d": 321.96937499998603,
      "v": 64
    },
    {
      "midi": 69,
      "hit": false,
      "t": 95741.69718749989,
      "d": 1196.337187499972,
      "v": 64
    },
    {
      "midi": 59,
      "hit": false,
      "t": 95744.85374999988,
      "d": 1126.8928124999802,
      "v": 64
    },
    {
      "midi": 66,
      "hit": false,
      "t": 95748.01031249987,
      "d": 1199.4937499999796,
      "v": 60
    },
    {
      "midi": 45,
      "hit": false,
      "t": 95754.32343749987,
      "d": 1164.7715624999837,
      "v": 73
    },
    {
      "midi": 59,
      "hit": false,
      "t": 96991.69593749986,
      "d": 1287.8774999999878,
      "v": 60
    },
    {
      "midi": 68,
      "hit": false,
      "t": 96991.69593749986,
      "d": 1452.0187499999884,
      "v": 52
    },
    {
      "midi": 52,
      "hit": false,
      "t": 97001.16562499985,
      "d": 1019.5696874999994,
      "v": 52
    },
    {
      "midi": 64,
      "hit": false,
      "t": 97001.16562499985,
      "d": 1414.1399999999994,
      "v": 64
    },
    {
      "midi": 40,
      "hit": false,
      "t": 97001.16562499985,
      "d": 2446.3359375,
      "v": 48
    },
    {
      "midi": 52,
      "hit": false,
      "t": 98191.18968749985,
      "d": 1215.276562500003,
      "v": 31
    },
    {
      "midi": 59,
      "hit": false,
      "t": 98478.43687499984,
      "d": 928.0293750000128,
      "v": 64
    },
    {
      "midi": 64,
      "hit": false,
      "t": 98768.84062499984,
      "d": 536.6156250000058,
      "v": 73
    },
    {
      "midi": 68,
      "hit": false,
      "t": 99084.49687499984,
      "d": 366.16125000000466,
      "v": 60
    },
    {
      "midi": 45,
      "hit": false,
      "t": 99362.27437499985,
      "d": 2417.9268749999756,
      "v": 73
    },
    {
      "midi": 61,
      "hit": false,
      "t": 99374.90062499985,
      "d": 1057.4484374999884,
      "v": 60
    },
    {
      "midi": 64,
      "hit": false,
      "t": 99374.90062499985,
      "d": 1060.6049999999814,
      "v": 73
    },
    {
      "midi": 71,
      "hit": false,
      "t": 99374.90062499985,
      "d": 1073.2312499999825,
      "v": 64
    },
    {
      "midi": 64,
      "hit": false,
      "t": 100605.95999999983,
      "d": 1161.6149999999907,
      "v": 82
    },
    {
      "midi": 61,
      "hit": false,
      "t": 100615.42968749983,
      "d": 1164.7715624999983,
      "v": 73
    },
    {
      "midi": 69,
      "hit": false,
      "t": 100618.58624999982,
      "d": 1161.6150000000052,
      "v": 64
    },
    {
      "midi": 66,
      "hit": false,
      "t": 101830.70624999983,
      "d": 287.2471874999901,
      "v": 64
    },
    {
      "midi": 69,
      "hit": false,
      "t": 101837.01937499983,
      "d": 255.6815624999872,
      "v": 64
    },
    {
      "midi": 61,
      "hit": false,
      "t": 101843.33249999983,
      "d": 299.87343749999127,
      "v": 82
    },
    {
      "midi": 68,
      "hit": false,
      "t": 102089.54437499982,
      "d": 179.92406249999476,
      "v": 40
    },
    {
      "midi": 59,
      "hit": false,
      "t": 102117.95343749982,
      "d": 183.08062500000233,
      "v": 60
    },
    {
      "midi": 64,
      "hit": false,
      "t": 102136.89281249982,
      "d": 129.41906250000466,
      "v": 56
    },
    {
      "midi": 57,
      "hit": false,
      "t": 102389.41781249981,
      "d": 277.7774999999965,
      "v": 73
    },
    {
      "midi": 66,
      "hit": false,
      "t": 102389.41781249981,
      "d": 296.71687499999825,
      "v": 64
    },
    {
      "midi": 61,
      "hit": false,
      "t": 102398.88749999981,
      "d": 318.812812499993,
      "v": 60
    },
    {
      "midi": 59,
      "hit": false,
      "t": 102698.76093749981,
      "d": 315.65624999998545,
      "v": 64
    },
    {
      "midi": 64,
      "hit": false,
      "t": 102708.23062499981,
      "d": 631.3125,
      "v": 73
    },
    {
      "midi": 68,
      "hit": false,
      "t": 102708.23062499981,
      "d": 946.96875,
      "v": 69
    },
    {
      "midi": 59,
      "hit": false,
      "t": 103307.9774999998,
      "d": 735.4790625000023,
      "v": 46
    },
    {
      "midi": 64,
      "hit": false,
      "t": 103623.6337499998,
      "d": 523.9893750000047,
      "v": 64
    },
    {
      "midi": 68,
      "hit": false,
      "t": 103920.3506249998,
      "d": 265.1512500000099,
      "v": 56
    },
    {
      "midi": 68,
      "hit": false,
      "t": 104220.22406249981,
      "d": 789.1406249999854,
      "v": 60
    },
    {
      "midi": 64,
      "hit": false,
      "t": 104223.3806249998,
      "d": 735.4790624999878,
      "v": 56
    },
    {
      "midi": 59,
      "hit": false,
      "t": 104226.5371874998,
      "d": 716.5396875000006,
      "v": 60
    },
    {
      "midi": 61,
      "hit": false,
      "t": 105141.94031249979,
      "d": 795.453749999986,
      "v": 79
    },
    {
      "midi": 69,
      "hit": false,
      "t": 105145.09687499978,
      "d": 782.8274999999994,
      "v": 70
    },
    {
      "midi": 66,
      "hit": false,
      "t": 105145.09687499978,
      "d": 839.6456249999901,
      "v": 70
    },
    {
      "midi": 68,
      "hit": false,
      "t": 106051.03031249977,
      "d": 542.9287499999919,
      "v": 52
    },
    {
      "midi": 59,
      "hit": false,
      "t": 106057.34343749977,
      "d": 527.1459374999977,
      "v": 52
    },
    {
      "midi": 64,
      "hit": false,
      "t": 106063.65656249977,
      "d": 517.6762500000041,
      "v": 60
    },
    {
      "midi": 47,
      "hit": false,
      "t": 106644.46406249977,
      "d": 804.9234374999942,
      "v": 73
    },
    {
      "midi": 63,
      "hit": false,
      "t": 106666.55999999976,
      "d": 798.6103124999936,
      "v": 82
    },
    {
      "midi": 59,
      "hit": false,
      "t": 106672.87312499977,
      "d": 785.9840624999924,
      "v": 64
    },
    {
      "midi": 49,
      "hit": false,
      "t": 107553.55406249975,
      "d": 1183.7109374999854,
      "v": 64
    },
    {
      "midi": 64,
      "hit": false,
      "t": 107559.86718749975,
      "d": 1130.0493749999878,
      "v": 73
    },
    {
      "midi": 59,
      "hit": false,
      "t": 107569.33687499975,
      "d": 1117.4231250000012,
      "v": 64
    },
    {
      "midi": 61,
      "hit": false,
      "t": 107575.64999999975,
      "d": 1123.7362499999872,
      "v": 82
    },
    {
      "midi": 51,
      "hit": false,
      "t": 108778.30031249973,
      "d": 2711.4871874999953,
      "v": 73
    },
    {
      "midi": 59,
      "hit": false,
      "t": 108800.39624999973,
      "d": 2676.7649999999994,
      "v": 73
    },
    {
      "midi": 66,
      "hit": false,
      "t": 108800.39624999973,
      "d": 2711.487187499981,
      "v": 73
    },
    {
      "midi": 63,
      "hit": false,
      "t": 108806.70937499973,
      "d": 2698.860937499994,
      "v": 73
    },
    {
      "midi": 61,
      "hit": false,
      "t": 111508.72687499972,
      "d": 754.4184374999895,
      "v": 73
    },
    {
      "midi": 68,
      "hit": false,
      "t": 111508.72687499972,
      "d": 763.8881249999831,
      "v": 68
    },
    {
      "midi": 64,
      "hit": false,
      "t": 111508.72687499972,
      "d": 770.2012499999837,
      "v": 73
    },
    {
      "midi": 49,
      "hit": false,
      "t": 111508.72687499972,
      "d": 921.7162499999686,
      "v": 60
    },
    {
      "midi": 61,
      "hit": false,
      "t": 112417.8168749997,
      "d": 568.1812499999796,
      "v": 64
    },
    {
      "midi": 64,
      "hit": false,
      "t": 112417.8168749997,
      "d": 568.1812499999796,
      "v": 73
    },
    {
      "midi": 59,
      "hit": false,
      "t": 112420.97343749969,
      "d": 568.1812499999796,
      "v": 64
    },
    {
      "midi": 57,
      "hit": false,
      "t": 112420.97343749969,
      "d": 1388.887499999968,
      "v": 60
    },
    {
      "midi": 45,
      "hit": false,
      "t": 112427.28656249969,
      "d": 1505.680312499957,
      "v": 64
    },
    {
      "midi": 68,
      "hit": false,
      "t": 113027.03343749967,
      "d": 858.5849999999773,
      "v": 60
    },
    {
      "midi": 61,
      "hit": false,
      "t": 113030.18999999967,
      "d": 858.5849999999773,
      "v": 73
    },
    {
      "midi": 64,
      "hit": false,
      "t": 113030.18999999967,
      "d": 858.5849999999773,
      "v": 73
    },
    {
      "midi": 59,
      "hit": false,
      "t": 113033.34656249966,
      "d": 836.4890624999971,
      "v": 64
    },
    {
      "midi": 47,
      "hit": false,
      "t": 113936.12343749964,
      "d": 2471.588437499973,
      "v": 64
    },
    {
      "midi": 68,
      "hit": false,
      "t": 113948.74968749964,
      "d": 716.5396875000006,
      "v": 60
    },
    {
      "midi": 59,
      "hit": false,
      "t": 113948.74968749964,
      "d": 719.6962499999936,
      "v": 73
    },
    {
      "midi": 63,
      "hit": false,
      "t": 113948.74968749964,
      "d": 735.4790624999878,
      "v": 73
    },
    {
      "midi": 63,
      "hit": false,
      "t": 114845.21343749962,
      "d": 1420.453125,
      "v": 73
    },
    {
      "midi": 66,
      "hit": false,
      "t": 114851.52656249962,
      "d": 1385.730937500004,
      "v": 73
    },
    {
      "midi": 57,
      "hit": false,
      "t": 114851.52656249962,
      "d": 1388.887499999997,
      "v": 82
    },
    {
      "midi": 59,
      "hit": false,
      "t": 114851.52656249962,
      "d": 1401.5137499999983,
      "v": 73
    },
    {
      "midi": 56,
      "hit": false,
      "t": 116369.83312499963,
      "d": 568.1812499999942,
      "v": 64
    },
    {
      "midi": 59,
      "hit": false,
      "t": 116369.83312499963,
      "d": 568.1812499999942,
      "v": 82
    },
    {
      "midi": 63,
      "hit": false,
      "t": 116372.98968749962,
      "d": 568.1812499999942,
      "v": 64
    },
    {
      "midi": 66,
      "hit": false,
      "t": 116372.98968749962,
      "d": 568.1812499999942,
      "v": 64
    },
    {
      "midi": 44,
      "hit": false,
      "t": 116372.98968749962,
      "d": 2323.229999999967,
      "v": 56
    },
    {
      "midi": 59,
      "hit": false,
      "t": 116975.89312499961,
      "d": 195.7068750000035,
      "v": 73
    },
    {
      "midi": 63,
      "hit": false,
      "t": 116975.89312499961,
      "d": 243.05531250000058,
      "v": 82
    },
    {
      "midi": 59,
      "hit": false,
      "t": 117266.2968749996,
      "d": 243.05531249998603,
      "v": 82
    },
    {
      "midi": 66,
      "hit": false,
      "t": 117282.0796874996,
      "d": 239.89874999999302,
      "v": 82
    },
    {
      "midi": 71,
      "hit": false,
      "t": 117285.2362499996,
      "d": 1445.7056249999878,
      "v": 82
    },
    {
      "midi": 59,
      "hit": false,
      "t": 117588.2662499996,
      "d": 1117.4231249999866,
      "v": 73
    },
    {
      "midi": 63,
      "hit": false,
      "t": 117591.42281249959,
      "d": 1114.2665624999936,
      "v": 91
    },
    {
      "midi": 45,
      "hit": false,
      "t": 118781.44687499959,
      "d": 2348.482499999969,
      "v": 60
    },
    {
      "midi": 68,
      "hit": false,
      "t": 118797.22968749958,
      "d": 2200.1240624999773,
      "v": 64
    },
    {
      "midi": 61,
      "hit": false,
      "t": 118800.38624999957,
      "d": 2171.714999999982,
      "v": 73
    },
    {
      "midi": 64,
      "hit": false,
      "t": 118803.54281249957,
      "d": 2140.1493749999936,
      "v": 73
    },
    {
      "midi": 59,
      "hit": false,
      "t": 118803.54281249957,
      "d": 2146.462499999994,
      "v": 60
    },
    {
      "midi": 58,
      "hit": false,
      "t": 121205.68687499956,
      "d": 1117.4231250000012,
      "v": 73
    },
    {
      "midi": 61,
      "hit": false,
      "t": 121205.68687499956,
      "d": 1117.4231250000012,
      "v": 73
    },
    {
      "midi": 66,
      "hit": false,
      "t": 121208.84343749956,
      "d": 1029.0393750000076,
      "v": 64
    },
    {
      "midi": 42,
      "hit": false,
      "t": 121215.15656249956,
      "d": 2206.4371874999924,
      "v": 56
    },
    {
      "midi": 61,
      "hit": false,
      "t": 122411.49374999956,
      "d": 1145.832187499982,
      "v": 56
    },
    {
      "midi": 58,
      "hit": false,
      "t": 122414.65031249955,
      "d": 1148.9887499999895,
      "v": 60
    },
    {
      "midi": 54,
      "hit": false,
      "t": 122420.96343749955,
      "d": 1148.9887499999895,
      "v": 64
    },
    {
      "midi": 64,
      "hit": false,
      "t": 122430.43312499954,
      "d": 1117.4231250000012,
      "v": 64
    },
    {
      "midi": 47,
      "hit": false,
      "t": 123626.77031249955,
      "d": 2171.715000000011,
      "v": 64
    },
    {
      "midi": 59,
      "hit": false,
      "t": 123645.70968749955,
      "d": 467.1712499999994,
      "v": 64
    },
    {
      "midi": 63,
      "hit": false,
      "t": 123645.70968749955,
      "d": 505.0500000000029,
      "v": 60
    },
    {
      "midi": 66,
      "hit": false,
      "t": 123648.86624999954,
      "d": 2361.108750000014,
      "v": 64
    },
    {
      "midi": 59,
      "hit": false,
      "t": 124245.45656249954,
      "d": 473.484375,
      "v": 73
    },
    {
      "midi": 63,
      "hit": false,
      "t": 124245.45656249954,
      "d": 546.0853124999994,
      "v": 82
    },
    {
      "midi": 57,
      "hit": false,
      "t": 124854.67312499955,
      "d": 1167.9281250000058,
      "v": 91
    },
    {
      "midi": 61,
      "hit": false,
      "t": 124854.67312499955,
      "d": 1174.2412500000064,
      "v": 82
    },
    {
      "midi": 54,
      "hit": false,
      "t": 126057.32343749955,
      "d": 2285.351250000007,
      "v": 64
    },
    {
      "midi": 60,
      "hit": false,
      "t": 126057.32343749955,
      "d": 2285.351250000007,
      "v": 74
    },
    {
      "midi": 56,
      "hit": false,
      "t": 126057.32343749955,
      "d": 2301.134062500001,
      "v": 74
    },
    {
      "midi": 44,
      "hit": false,
      "t": 126063.63656249955,
      "d": 2285.351250000007,
      "v": 56
    },
    {
      "midi": 63,
      "hit": false,
      "t": 126063.63656249955,
      "d": 2285.351250000007,
      "v": 73
    },
    {
      "midi": 54,
      "hit": false,
      "t": 128472.09374999955,
      "d": 1098.4837499999849,
      "v": 60
    },
    {
      "midi": 57,
      "hit": false,
      "t": 128475.25031249954,
      "d": 1085.8574999999983,
      "v": 82
    },
    {
      "midi": 42,
      "hit": false,
      "t": 128475.25031249954,
      "d": 1167.9281249999913,
      "v": 73
    },
    {
      "midi": 64,
      "hit": false,
      "t": 128478.40687499953,
      "d": 1022.726250000007,
      "v": 82
    },
    {
      "midi": 60,
      "hit": false,
      "t": 128478.40687499953,
      "d": 1107.953437499993,
      "v": 73
    },
    {
      "midi": 60,
      "hit": false,
      "t": 129684.21374999953,
      "d": 1167.9281249999913,
      "v": 60
    },
    {
      "midi": 63,
      "hit": false,
      "t": 129690.52687499953,
      "d": 1161.6149999999907,
      "v": 64
    },
    {
      "midi": 56,
      "hit": false,
      "t": 129690.52687499953,
      "d": 1167.9281249999913,
      "v": 73
    },
    {
      "midi": 54,
      "hit": false,
      "t": 129690.52687499953,
      "d": 1183.7109374999854,
      "v": 73
    },
    {
      "midi": 44,
      "hit": false,
      "t": 129703.15312499953,
      "d": 1126.8928124999948,
      "v": 60
    },
    {
      "midi": 64,
      "hit": false,
      "t": 130912.11656249952,
      "d": 2683.078125,
      "v": 73
    },
    {
      "midi": 56,
      "hit": false,
      "t": 130912.11656249952,
      "d": 2689.391249999986,
      "v": 70
    },
    {
      "midi": 40,
      "hit": false,
      "t": 130915.27312499951,
      "d": 3276.5118750000256,
      "v": 68
    },
    {
      "midi": 59,
      "hit": false,
      "t": 130918.4296874995,
      "d": 2351.639062500006,
      "v": 82
    },
    {
      "midi": 52,
      "hit": false,
      "t": 133323.7303124995,
      "d": 909.0899999999965,
      "v": 40
    },
    {
      "midi": 59,
      "hit": false,
      "t": 133623.6037499995,
      "d": 615.5296874999767,
      "v": 56
    },
    {
      "midi": 64,
      "hit": false,
      "t": 133932.94687499953,
      "d": 306.18656249996275,
      "v": 66
    },
    {
      "midi": 54,
      "hit": false,
      "t": 134210.72437499953,
      "d": 1496.2106249999779,
      "v": 60
    },
    {
      "midi": 61,
      "hit": false,
      "t": 134229.6637499995,
      "d": 1452.0187499999884,
      "v": 73
    },
    {
      "midi": 69,
      "hit": false,
      "t": 134229.6637499995,
      "d": 1455.1753124999814,
      "v": 73
    },
    {
      "midi": 66,
      "hit": false,
      "t": 134229.6637499995,
      "d": 1467.8015624999825,
      "v": 73
    },
    {
      "midi": 54,
      "hit": false,
      "t": 135747.9703124995,
      "d": 785.9840624999779,
      "v": 56
    },
    {
      "midi": 47,
      "hit": false,
      "t": 135754.28343749949,
      "d": 779.6709374999919,
      "v": 73
    },
    {
      "midi": 59,
      "hit": false,
      "t": 135760.59656249947,
      "d": 785.984062500007,
      "v": 73
    },
    {
      "midi": 63,
      "hit": false,
      "t": 135760.59656249947,
      "d": 817.5496874999953,
      "v": 60
    },
    {
      "midi": 49,
      "hit": false,
      "t": 136644.43406249947,
      "d": 1145.8321874999674,
      "v": 67
    },
    {
      "midi": 64,
      "hit": false,
      "t": 136650.74718749945,
      "d": 1082.7009374999907,
      "v": 67
    },
    {
      "midi": 59,
      "hit": false,
      "t": 136653.90374999944,
      "d": 1092.1706249999988,
      "v": 76
    },
    {
      "midi": 54,
      "hit": false,
      "t": 136653.90374999944,
      "d": 1095.3271874999919,
      "v": 58
    },
    {
      "midi": 51,
      "hit": false,
      "t": 137866.02374999944,
      "d": 1148.9887499999895,
      "v": 76
    },
    {
      "midi": 66,
      "hit": false,
      "t": 137872.33687499943,
      "d": 1126.8928125000093,
      "v": 76
    },
    {
      "midi": 54,
      "hit": false,
      "t": 137872.33687499943,
      "d": 1145.8321874999965,
      "v": 54
    },
    {
      "midi": 59,
      "hit": false,
      "t": 137872.33687499943,
      "d": 1161.6149999999907,
      "v": 76
    },
    {
      "midi": 65,
      "hit": false,
      "t": 139087.6134374994,
      "d": 1262.625,
      "v": 73
    },
    {
      "midi": 61,
      "hit": false,
      "t": 139090.7699999994,
      "d": 1278.4078124999942,
      "v": 67
    },
    {
      "midi": 68,
      "hit": false,
      "t": 139090.7699999994,
      "d": 1316.2865624999977,
      "v": 68
    },
    {
      "midi": 53,
      "hit": false,
      "t": 139093.9265624994,
      "d": 1262.625,
      "v": 76
    },
    {
      "midi": 57,
      "hit": false,
      "t": 140391.2737499994,
      "d": 4788.505312499998,
      "v": 48
    },
    {
      "midi": 61,
      "hit": false,
      "t": 140470.1878124994,
      "d": 4741.156874999986,
      "v": 56
    },
    {
      "midi": 66,
      "hit": false,
      "t": 140498.5968749994,
      "d": 4715.904374999984,
      "v": 60
    },
    {
      "midi": 42,
      "hit": false,
      "t": 140590.1371874994,
      "d": 4592.798437499994,
      "v": 64
    },
    {
      "midi": 69,
      "hit": false,
      "t": 140590.1371874994,
      "d": 4605.424687499995,
      "v": 73
    },
    {
      "midi": 64,
      "hit": false,
      "t": 145435.4606249994,
      "d": 2253.7856249999895,
      "v": 73
    },
    {
      "midi": 66,
      "hit": false,
      "t": 145438.6171874994,
      "d": 2231.6896875000093,
      "v": 60
    },
    {
      "midi": 71,
      "hit": false,
      "t": 145448.0868749994,
      "d": 2203.280625000014,
      "v": 60
    },
    {
      "midi": 60,
      "hit": false,
      "t": 145448.0868749994,
      "d": 2256.9421874999825,
      "v": 64
    },
    {
      "midi": 50,
      "hit": false,
      "t": 145448.0868749994,
      "d": 4753.783124999987,
      "v": 73
    },
    {
      "midi": 64,
      "hit": false,
      "t": 147897.5793749994,
      "d": 1076.3878125000047,
      "v": 64
    },
    {
      "midi": 68,
      "hit": false,
      "t": 147907.0490624994,
      "d": 1063.7615625000035,
      "v": 44
    },
    {
      "midi": 60,
      "hit": false,
      "t": 147907.0490624994,
      "d": 1066.9181249999965,
      "v": 56
    },
    {
      "midi": 71,
      "hit": false,
      "t": 147907.0490624994,
      "d": 1066.9181249999965,
      "v": 60
    },
    {
      "midi": 64,
      "hit": false,
      "t": 149090.7599999994,
      "d": 1148.9887499999895,
      "v": 56
    },
    {
      "midi": 60,
      "hit": false,
      "t": 149103.3862499994,
      "d": 1123.7362499999872,
      "v": 60
    },
    {
      "midi": 69,
      "hit": false,
      "t": 149109.69937499939,
      "d": 1126.8928125000093,
      "v": 60
    },
    {
      "midi": 66,
      "hit": false,
      "t": 149109.69937499939,
      "d": 1136.3624999999884,
      "v": 60
    },
    {
      "midi": 59,
      "hit": false,
      "t": 150312.34968749937,
      "d": 849.1153124999837,
      "v": 64
    },
    {
      "midi": 56,
      "hit": false,
      "t": 150312.34968749937,
      "d": 956.438437499979,
      "v": 60
    },
    {
      "midi": 40,
      "hit": false,
      "t": 150312.34968749937,
      "d": 3071.3353124999558,
      "v": 52
    },
    {
      "midi": 47,
      "hit": false,
      "t": 150318.66281249936,
      "d": 3124.9968749999825,
      "v": 64
    },
    {
      "midi": 52,
      "hit": false,
      "t": 150321.81937499935,
      "d": 3124.9968749999825,
      "v": 56
    },
    {
      "midi": 64,
      "hit": false,
      "t": 151196.18718749937,
      "d": 2165.4018749999814,
      "v": 64
    },
    {
      "midi": 68,
      "hit": false,
      "t": 151196.18718749937,
      "d": 2178.0281249999534,
      "v": 60
    },
    {
      "midi": 59,
      "hit": false,
      "t": 151202.50031249935,
      "d": 2165.4018749999814,
      "v": 64
    },
    {
      "midi": 61,
      "hit": false,
      "t": 153607.80093749933,
      "d": 1477.2712499999907,
      "v": 73
    },
    {
      "midi": 42,
      "hit": false,
      "t": 153620.42718749933,
      "d": 1395.2006249999977,
      "v": 64
    },
    {
      "midi": 66,
      "hit": false,
      "t": 153620.42718749933,
      "d": 1455.1753124999814,
      "v": 73
    },
    {
      "midi": 57,
      "hit": false,
      "t": 153629.89687499934,
      "d": 1439.3924999999872,
      "v": 73
    },
    {
      "midi": 63,
      "hit": false,
      "t": 155145.04687499933,
      "d": 814.3931249999732,
      "v": 64
    },
    {
      "midi": 59,
      "hit": false,
      "t": 155148.20343749932,
      "d": 697.6003124999988,
      "v": 73
    },
    {
      "midi": 47,
      "hit": false,
      "t": 155151.35999999932,
      "d": 779.6709374999919,
      "v": 82
    },
    {
      "midi": 71,
      "hit": false,
      "t": 155154.5165624993,
      "d": 757.5750000000116,
      "v": 73
    },
    {
      "midi": 64,
      "hit": false,
      "t": 156057.2934374993,
      "d": 1038.509062499972,
      "v": 82
    },
    {
      "midi": 49,
      "hit": false,
      "t": 156057.2934374993,
      "d": 1117.423124999972,
      "v": 64
    },
    {
      "midi": 71,
      "hit": false,
      "t": 156060.44999999928,
      "d": 1117.423124999972,
      "v": 56
    },
    {
      "midi": 61,
      "hit": false,
      "t": 156063.60656249928,
      "d": 1047.9787499999802,
      "v": 64
    },
    {
      "midi": 61,
      "hit": false,
      "t": 157282.03968749926,
      "d": 965.9081249999872,
      "v": 60
    },
    {
      "midi": 63,
      "hit": false,
      "t": 157282.03968749926,
      "d": 978.5343749999884,
      "v": 60
    },
    {
      "midi": 71,
      "hit": false,
      "t": 157285.19624999925,
      "d": 981.6909374999814,
      "v": 68
    },
    {
      "midi": 66,
      "hit": false,
      "t": 157285.19624999925,
      "d": 1057.4484374999884,
      "v": 64
    },
    {
      "midi": 51,
      "hit": false,
      "t": 157285.19624999925,
      "d": 1082.7009374999907,
      "v": 64
    },
    {
      "midi": 65,
      "hit": false,
      "t": 158481.53343749925,
      "d": 1448.8621874999662,
      "v": 73
    },
    {
      "midi": 68,
      "hit": false,
      "t": 158481.53343749925,
      "d": 1448.8621874999662,
      "v": 60
    },
    {
      "midi": 61,
      "hit": false,
      "t": 158487.84656249924,
      "d": 1404.6703125000058,
      "v": 56
    },
    {
      "midi": 53,
      "hit": false,
      "t": 158487.84656249924,
      "d": 1410.9834374999919,
      "v": 73
    },
    {
      "midi": 42,
      "hit": false,
      "t": 160009.30968749922,
      "d": 2244.3159374999814,
      "v": 64
    },
    {
      "midi": 61,
      "hit": false,
      "t": 160009.30968749922,
      "d": 2256.9421874999825,
      "v": 60
    },
    {
      "midi": 57,
      "hit": false,
      "t": 160021.93593749922,
      "d": 2215.906874999986,
      "v": 56
    },
    {
      "midi": 69,
      "hit": false,
      "t": 160028.2490624992,
      "d": 2225.376562499994,
      "v": 56
    },
    {
      "midi": 66,
      "hit": false,
      "t": 160034.5621874992,
      "d": 2219.063437500008,
      "v": 60
    },
    {
      "midi": 64,
      "hit": false,
      "t": 164804.1281249992,
      "d": 4706.434687500005,
      "v": 64
    },
    {
      "midi": 71,
      "hit": false,
      "t": 164810.4412499992,
      "d": 4674.869062500016,
      "v": 56
    },
    {
      "midi": 60,
      "hit": false,
      "t": 164832.5371874992,
      "d": 4665.399375000008,
      "v": 56
    },
    {
      "midi": 66,
      "hit": false,
      "t": 164832.5371874992,
      "d": 4687.4953125000175,
      "v": 60
    },
    {
      "midi": 50,
      "hit": false,
      "t": 164832.5371874992,
      "d": 4693.8084375000035,
      "v": 64
    },
    {
      "midi": 57,
      "hit": false,
      "t": 169674.7040624992,
      "d": 2225.376562499994,
      "v": 56
    },
    {
      "midi": 64,
      "hit": false,
      "t": 169674.7040624992,
      "d": 2234.8462500000023,
      "v": 64
    },
    {
      "midi": 73,
      "hit": false,
      "t": 169674.7040624992,
      "d": 2234.8462500000023,
      "v": 56
    },
    {
      "midi": 45,
      "hit": false,
      "t": 169674.7040624992,
      "d": 2238.0028124999953,
      "v": 56
    },
    {
      "midi": 61,
      "hit": false,
      "t": 169674.7040624992,
      "d": 2238.0028124999953,
      "v": 56
    },
    {
      "midi": 69,
      "hit": false,
      "t": 169712.5828124992,
      "d": 2209.59375,
      "v": 29
    },
    {
      "midi": 66,
      "hit": false,
      "t": 172092.6309374992,
      "d": 789.140625,
      "v": 64
    },
    {
      "midi": 59,
      "hit": false,
      "t": 172105.2571874992,
      "d": 779.6709374999919,
      "v": 60
    },
    {
      "midi": 47,
      "hit": false,
      "t": 172114.7268749992,
      "d": 748.1053125000035,
      "v": 64
    },
    {
      "midi": 63,
      "hit": false,
      "t": 172114.7268749992,
      "d": 785.9840624999779,
      "v": 64
    },
    {
      "midi": 71,
      "hit": false,
      "t": 172124.19656249922,
      "d": 741.7921874999884,
      "v": 48
    },
    {
      "midi": 63,
      "hit": false,
      "t": 173001.7209374992,
      "d": 1511.993437499972,
      "v": 64
    },
    {
      "midi": 71,
      "hit": false,
      "t": 173017.5037499992,
      "d": 236.7421875,
      "v": 64
    },
    {
      "midi": 47,
      "hit": false,
      "t": 173017.5037499992,
      "d": 321.96937499998603,
      "v": 64
    },
    {
      "midi": 69,
      "hit": false,
      "t": 173317.3771874992,
      "d": 1196.337187499972,
      "v": 64
    },
    {
      "midi": 59,
      "hit": false,
      "t": 173320.5337499992,
      "d": 1126.8928124999802,
      "v": 64
    },
    {
      "midi": 66,
      "hit": false,
      "t": 173323.69031249918,
      "d": 1199.4937499999942,
      "v": 60
    },
    {
      "midi": 45,
      "hit": false,
      "t": 173330.00343749917,
      "d": 1164.7715625000128,
      "v": 73
    },
    {
      "midi": 59,
      "hit": false,
      "t": 174567.37593749916,
      "d": 1287.8775000000314,
      "v": 60
    },
    {
      "midi": 68,
      "hit": false,
      "t": 174567.37593749916,
      "d": 1452.0187500000175,
      "v": 52
    },
    {
      "midi": 52,
      "hit": false,
      "t": 174576.84562499917,
      "d": 1019.569687500014,
      "v": 52
    },
    {
      "midi": 64,
      "hit": false,
      "t": 174576.84562499917,
      "d": 1414.140000000014,
      "v": 64
    },
    {
      "midi": 40,
      "hit": false,
      "t": 174576.84562499917,
      "d": 2446.3359375,
      "v": 48
    },
    {
      "midi": 52,
      "hit": false,
      "t": 175766.8696874992,
      "d": 1215.2765624999884,
      "v": 31
    },
    {
      "midi": 59,
      "hit": false,
      "t": 176054.1168749992,
      "d": 928.0293749999837,
      "v": 64
    },
    {
      "midi": 64,
      "hit": false,
      "t": 176344.5206249992,
      "d": 536.6156250000058,
      "v": 73
    },
    {
      "midi": 68,
      "hit": false,
      "t": 176660.1768749992,
      "d": 366.16124999997555,
      "v": 60
    },
    {
      "midi": 45,
      "hit": false,
      "t": 176937.9543749992,
      "d": 2417.9268749999756,
      "v": 73
    },
    {
      "midi": 61,
      "hit": false,
      "t": 176950.5806249992,
      "d": 1057.4484374999884,
      "v": 60
    },
    {
      "midi": 64,
      "hit": false,
      "t": 176950.5806249992,
      "d": 1060.6049999999814,
      "v": 73
    },
    {
      "midi": 71,
      "hit": false,
      "t": 176950.5806249992,
      "d": 1073.2312499999825,
      "v": 64
    },
    {
      "midi": 64,
      "hit": false,
      "t": 178181.63999999917,
      "d": 1161.6149999999907,
      "v": 82
    },
    {
      "midi": 61,
      "hit": false,
      "t": 178191.10968749918,
      "d": 1164.7715624999837,
      "v": 73
    },
    {
      "midi": 69,
      "hit": false,
      "t": 178194.26624999917,
      "d": 1161.6149999999907,
      "v": 64
    },
    {
      "midi": 66,
      "hit": false,
      "t": 179406.38624999917,
      "d": 287.24718749997555,
      "v": 64
    },
    {
      "midi": 69,
      "hit": false,
      "t": 179412.69937499915,
      "d": 255.6815624999872,
      "v": 64
    },
    {
      "midi": 61,
      "hit": false,
      "t": 179419.01249999914,
      "d": 299.8734374999767,
      "v": 82
    },
    {
      "midi": 68,
      "hit": false,
      "t": 179665.22437499915,
      "d": 179.9240624999511,
      "v": 40
    },
    {
      "midi": 59,
      "hit": false,
      "t": 179693.63343749914,
      "d": 183.08062499994412,
      "v": 60
    },
    {
      "midi": 64,
      "hit": false,
      "t": 179712.57281249913,
      "d": 129.41906249997555,
      "v": 56
    },
    {
      "midi": 57,
      "hit": false,
      "t": 179965.0978124991,
      "d": 277.7774999999965,
      "v": 73
    },
    {
      "midi": 66,
      "hit": false,
      "t": 179965.0978124991,
      "d": 296.7168749999837,
      "v": 64
    },
    {
      "midi": 61,
      "hit": false,
      "t": 179974.5674999991,
      "d": 318.812812499993,
      "v": 60
    },
    {
      "midi": 59,
      "hit": false,
      "t": 180274.44093749908,
      "d": 315.6562500000291,
      "v": 64
    },
    {
      "midi": 64,
      "hit": false,
      "t": 180283.9106249991,
      "d": 631.3125,
      "v": 73
    },
    {
      "midi": 68,
      "hit": false,
      "t": 180283.9106249991,
      "d": 946.96875,
      "v": 69
    },
    {
      "midi": 59,
      "hit": false,
      "t": 180883.6574999991,
      "d": 735.4790624999732,
      "v": 46
    },
    {
      "midi": 64,
      "hit": false,
      "t": 181199.3137499991,
      "d": 523.9893749999756,
      "v": 64
    },
    {
      "midi": 68,
      "hit": false,
      "t": 181496.03062499908,
      "d": 265.15124999999534,
      "v": 56
    },
    {
      "midi": 68,
      "hit": false,
      "t": 181795.9040624991,
      "d": 789.1406249999709,
      "v": 60
    },
    {
      "midi": 64,
      "hit": false,
      "t": 181799.06062499908,
      "d": 735.4790624999732,
      "v": 56
    },
    {
      "midi": 59,
      "hit": false,
      "t": 181802.21718749907,
      "d": 716.539687499986,
      "v": 60
    },
    {
      "midi": 61,
      "hit": false,
      "t": 182717.62031249906,
      "d": 795.4537500000151,
      "v": 79
    },
    {
      "midi": 69,
      "hit": false,
      "t": 182720.77687499905,
      "d": 782.827500000014,
      "v": 70
    },
    {
      "midi": 66,
      "hit": false,
      "t": 182720.77687499905,
      "d": 839.6456250000338,
      "v": 70
    },
    {
      "midi": 68,
      "hit": false,
      "t": 183626.71031249908,
      "d": 542.9287499999627,
      "v": 52
    },
    {
      "midi": 59,
      "hit": false,
      "t": 183633.02343749907,
      "d": 527.1459374999686,
      "v": 52
    },
    {
      "midi": 64,
      "hit": false,
      "t": 183639.33656249905,
      "d": 517.6762499999895,
      "v": 60
    },
    {
      "midi": 47,
      "hit": false,
      "t": 184220.14406249905,
      "d": 804.9234374999942,
      "v": 73
    },
    {
      "midi": 63,
      "hit": false,
      "t": 184242.23999999906,
      "d": 798.610312499979,
      "v": 82
    },
    {
      "midi": 59,
      "hit": false,
      "t": 184248.55312499905,
      "d": 785.984062500007,
      "v": 64
    },
    {
      "midi": 49,
      "hit": false,
      "t": 185129.23406249905,
      "d": 1183.710937499971,
      "v": 64
    },
    {
      "midi": 64,
      "hit": false,
      "t": 185135.54718749903,
      "d": 1130.0493749999732,
      "v": 73
    },
    {
      "midi": 59,
      "hit": false,
      "t": 185145.01687499904,
      "d": 1117.423124999972,
      "v": 64
    },
    {
      "midi": 61,
      "hit": false,
      "t": 185151.32999999903,
      "d": 1123.7362499999872,
      "v": 82
    },
    {
      "midi": 51,
      "hit": false,
      "t": 186353.980312499,
      "d": 2711.4871874999953,
      "v": 73
    },
    {
      "midi": 59,
      "hit": false,
      "t": 186376.07624999902,
      "d": 2676.764999999985,
      "v": 73
    },
    {
      "midi": 66,
      "hit": false,
      "t": 186376.07624999902,
      "d": 2711.4871874999662,
      "v": 73
    },
    {
      "midi": 63,
      "hit": false,
      "t": 186382.389374999,
      "d": 2698.860937499994,
      "v": 73
    },
    {
      "midi": 61,
      "hit": false,
      "t": 189084.406874999,
      "d": 754.4184374999895,
      "v": 73
    },
    {
      "midi": 68,
      "hit": false,
      "t": 189084.406874999,
      "d": 763.8881249999977,
      "v": 68
    },
    {
      "midi": 64,
      "hit": false,
      "t": 189084.406874999,
      "d": 770.2012499999837,
      "v": 73
    },
    {
      "midi": 49,
      "hit": false,
      "t": 189084.406874999,
      "d": 921.7162499999686,
      "v": 60
    },
    {
      "midi": 61,
      "hit": false,
      "t": 189993.496874999,
      "d": 568.1812499999651,
      "v": 64
    },
    {
      "midi": 64,
      "hit": false,
      "t": 189993.496874999,
      "d": 568.1812499999651,
      "v": 73
    },
    {
      "midi": 59,
      "hit": false,
      "t": 189996.653437499,
      "d": 568.1812499999651,
      "v": 64
    },
    {
      "midi": 57,
      "hit": false,
      "t": 189996.653437499,
      "d": 1388.8874999999534,
      "v": 60
    },
    {
      "midi": 45,
      "hit": false,
      "t": 190002.96656249897,
      "d": 1505.680312499957,
      "v": 64
    },
    {
      "midi": 68,
      "hit": false,
      "t": 190602.71343749895,
      "d": 858.5849999999919,
      "v": 60
    },
    {
      "midi": 61,
      "hit": false,
      "t": 190605.86999999895,
      "d": 858.5849999999919,
      "v": 73
    },
    {
      "midi": 64,
      "hit": false,
      "t": 190605.86999999895,
      "d": 858.5849999999919,
      "v": 73
    },
    {
      "midi": 59,
      "hit": false,
      "t": 190609.02656249894,
      "d": 836.4890625000116,
      "v": 64
    },
    {
      "midi": 47,
      "hit": false,
      "t": 191511.80343749892,
      "d": 2471.588437499944,
      "v": 64
    },
    {
      "midi": 68,
      "hit": false,
      "t": 191524.42968749892,
      "d": 716.539687499986,
      "v": 60
    },
    {
      "midi": 59,
      "hit": false,
      "t": 191524.42968749892,
      "d": 719.696249999979,
      "v": 73
    },
    {
      "midi": 63,
      "hit": false,
      "t": 191524.42968749892,
      "d": 735.4790624999732,
      "v": 73
    },
    {
      "midi": 63,
      "hit": false,
      "t": 192420.8934374989,
      "d": 1420.453124999971,
      "v": 73
    },
    {
      "midi": 66,
      "hit": false,
      "t": 192427.20656249888,
      "d": 1385.7309374999895,
      "v": 73
    },
    {
      "midi": 57,
      "hit": false,
      "t": 192427.20656249888,
      "d": 1388.8874999999825,
      "v": 82
    },
    {
      "midi": 59,
      "hit": false,
      "t": 192427.20656249888,
      "d": 1401.5137499999837,
      "v": 73
    },
    {
      "midi": 56,
      "hit": false,
      "t": 193945.51312499886,
      "d": 568.1812499999942,
      "v": 64
    },
    {
      "midi": 59,
      "hit": false,
      "t": 193945.51312499886,
      "d": 568.1812499999942,
      "v": 82
    },
    {
      "midi": 63,
      "hit": false,
      "t": 193948.66968749886,
      "d": 568.1812499999942,
      "v": 64
    },
    {
      "midi": 66,
      "hit": false,
      "t": 193948.66968749886,
      "d": 568.1812499999942,
      "v": 64
    },
    {
      "midi": 44,
      "hit": false,
      "t": 193948.66968749886,
      "d": 2323.2300000000105,
      "v": 56
    },
    {
      "midi": 59,
      "hit": false,
      "t": 194551.57312499886,
      "d": 195.7068750000035,
      "v": 73
    },
    {
      "midi": 63,
      "hit": false,
      "t": 194551.57312499886,
      "d": 243.05531250001513,
      "v": 82
    },
    {
      "midi": 59,
      "hit": false,
      "t": 194841.9768749989,
      "d": 243.05531249998603,
      "v": 82
    },
    {
      "midi": 66,
      "hit": false,
      "t": 194857.75968749888,
      "d": 239.89874999999302,
      "v": 82
    },
    {
      "midi": 71,
      "hit": false,
      "t": 194860.91624999887,
      "d": 1445.7056250000023,
      "v": 82
    },
    {
      "midi": 59,
      "hit": false,
      "t": 195163.94624999887,
      "d": 1117.4231250000012,
      "v": 73
    },
    {
      "midi": 63,
      "hit": false,
      "t": 195167.10281249887,
      "d": 1114.2665625000081,
      "v": 91
    },
    {
      "midi": 45,
      "hit": false,
      "t": 196357.12687499888,
      "d": 2348.4824999999837,
      "v": 60
    },
    {
      "midi": 68,
      "hit": false,
      "t": 196372.90968749888,
      "d": 2200.124062499992,
      "v": 64
    },
    {
      "midi": 61,
      "hit": false,
      "t": 196376.06624999887,
      "d": 2171.7149999999965,
      "v": 73
    },
    {
      "midi": 64,
      "hit": false,
      "t": 196379.22281249886,
      "d": 2140.149375000008,
      "v": 73
    },
    {
      "midi": 59,
      "hit": false,
      "t": 196379.22281249886,
      "d": 2146.462499999994,
      "v": 60
    },
    {
      "midi": 58,
      "hit": false,
      "t": 198781.36687499887,
      "d": 1117.423124999972,
      "v": 73
    },
    {
      "midi": 61,
      "hit": false,
      "t": 198781.36687499887,
      "d": 1117.423124999972,
      "v": 73
    },
    {
      "midi": 66,
      "hit": false,
      "t": 198784.52343749886,
      "d": 1029.039374999993,
      "v": 64
    },
    {
      "midi": 42,
      "hit": false,
      "t": 198790.83656249885,
      "d": 2206.437187499978,
      "v": 56
    },
    {
      "midi": 61,
      "hit": false,
      "t": 199987.17374999885,
      "d": 1145.8321874999965,
      "v": 56
    },
    {
      "midi": 58,
      "hit": false,
      "t": 199990.33031249885,
      "d": 1148.9887499999895,
      "v": 60
    },
    {
      "midi": 54,
      "hit": false,
      "t": 199996.64343749883,
      "d": 1148.9887499999895,
      "v": 64
    },
    {
      "midi": 64,
      "hit": false,
      "t": 200006.11312499884,
      "d": 1117.4231250000012,
      "v": 64
    },
    {
      "midi": 47,
      "hit": false,
      "t": 201202.4503124988,
      "d": 2171.7149999999965,
      "v": 64
    },
    {
      "midi": 59,
      "hit": false,
      "t": 201221.3896874988,
      "d": 467.17124999998487,
      "v": 64
    },
    {
      "midi": 63,
      "hit": false,
      "t": 201221.3896874988,
      "d": 505.04999999998836,
      "v": 60
    },
    {
      "midi": 66,
      "hit": false,
      "t": 201224.5462499988,
      "d": 2361.108750000014,
      "v": 64
    },
    {
      "midi": 59,
      "hit": false,
      "t": 201821.13656249878,
      "d": 473.484375,
      "v": 73
    },
    {
      "midi": 63,
      "hit": false,
      "t": 201821.13656249878,
      "d": 546.085312500014,
      "v": 82
    },
    {
      "midi": 57,
      "hit": false,
      "t": 202430.3531249988,
      "d": 1167.9281250000058,
      "v": 91
    },
    {
      "midi": 61,
      "hit": false,
      "t": 202430.3531249988,
      "d": 1174.2412499999919,
      "v": 82
    },
    {
      "midi": 54,
      "hit": false,
      "t": 203633.0034374988,
      "d": 2285.351249999978,
      "v": 64
    },
    {
      "midi": 60,
      "hit": false,
      "t": 203633.0034374988,
      "d": 2285.351249999978,
      "v": 74
    },
    {
      "midi": 56,
      "hit": false,
      "t": 203633.0034374988,
      "d": 2301.134062499972,
      "v": 74
    },
    {
      "midi": 44,
      "hit": false,
      "t": 203639.31656249877,
      "d": 2285.351249999978,
      "v": 56
    },
    {
      "midi": 63,
      "hit": false,
      "t": 203639.31656249877,
      "d": 2285.351249999978,
      "v": 73
    },
    {
      "midi": 54,
      "hit": false,
      "t": 206047.77374999877,
      "d": 1098.483750000014,
      "v": 60
    },
    {
      "midi": 57,
      "hit": false,
      "t": 206050.93031249876,
      "d": 1085.8575000000128,
      "v": 82
    },
    {
      "midi": 42,
      "hit": false,
      "t": 206050.93031249876,
      "d": 1167.9281250000058,
      "v": 73
    },
    {
      "midi": 64,
      "hit": false,
      "t": 206054.08687499876,
      "d": 1022.726250000007,
      "v": 82
    },
    {
      "midi": 60,
      "hit": false,
      "t": 206054.08687499876,
      "d": 1107.9534375000221,
      "v": 73
    },
    {
      "midi": 60,
      "hit": false,
      "t": 207259.89374999877,
      "d": 1167.9281250000058,
      "v": 60
    },
    {
      "midi": 63,
      "hit": false,
      "t": 207266.20687499875,
      "d": 1161.6150000000198,
      "v": 64
    },
    {
      "midi": 56,
      "hit": false,
      "t": 207266.20687499875,
      "d": 1167.9281250000058,
      "v": 73
    },
    {
      "midi": 54,
      "hit": false,
      "t": 207266.20687499875,
      "d": 1183.7109375,
      "v": 73
    },
    {
      "midi": 44,
      "hit": false,
      "t": 207278.83312499875,
      "d": 1126.8928125000093,
      "v": 60
    },
    {
      "midi": 64,
      "hit": false,
      "t": 208487.79656249876,
      "d": 2683.078125,
      "v": 73
    },
    {
      "midi": 56,
      "hit": false,
      "t": 208487.79656249876,
      "d": 2689.391249999986,
      "v": 70
    },
    {
      "midi": 40,
      "hit": false,
      "t": 208490.95312499875,
      "d": 3276.5118750000256,
      "v": 68
    },
    {
      "midi": 59,
      "hit": false,
      "t": 208494.10968749874,
      "d": 2351.639062500006,
      "v": 82
    },
    {
      "midi": 52,
      "hit": false,
      "t": 210899.41031249875,
      "d": 909.0899999999965,
      "v": 40
    },
    {
      "midi": 59,
      "hit": false,
      "t": 211199.28374999875,
      "d": 615.5296874999767,
      "v": 56
    },
    {
      "midi": 64,
      "hit": false,
      "t": 211508.62687499876,
      "d": 306.18656249996275,
      "v": 66
    },
    {
      "midi": 54,
      "hit": false,
      "t": 211786.40437499876,
      "d": 1496.2106249999779,
      "v": 60
    },
    {
      "midi": 61,
      "hit": false,
      "t": 211805.34374999875,
      "d": 1452.0187499999884,
      "v": 73
    },
    {
      "midi": 69,
      "hit": false,
      "t": 211805.34374999875,
      "d": 1455.1753124999814,
      "v": 73
    },
    {
      "midi": 66,
      "hit": false,
      "t": 211805.34374999875,
      "d": 1467.8015624999825,
      "v": 73
    },
    {
      "midi": 54,
      "hit": false,
      "t": 213323.65031249874,
      "d": 785.9840624999779,
      "v": 56
    },
    {
      "midi": 47,
      "hit": false,
      "t": 213329.96343749872,
      "d": 779.6709374999919,
      "v": 73
    },
    {
      "midi": 59,
      "hit": false,
      "t": 213336.2765624987,
      "d": 785.984062500007,
      "v": 73
    },
    {
      "midi": 63,
      "hit": false,
      "t": 213336.2765624987,
      "d": 817.5496874999953,
      "v": 60
    },
    {
      "midi": 49,
      "hit": false,
      "t": 214220.1140624987,
      "d": 1145.8321874999674,
      "v": 67
    },
    {
      "midi": 64,
      "hit": false,
      "t": 214226.4271874987,
      "d": 1082.7009374999907,
      "v": 67
    },
    {
      "midi": 59,
      "hit": false,
      "t": 214229.58374999868,
      "d": 1092.1706249999988,
      "v": 76
    },
    {
      "midi": 54,
      "hit": false,
      "t": 214229.58374999868,
      "d": 1095.3271874999919,
      "v": 58
    },
    {
      "midi": 51,
      "hit": false,
      "t": 215441.70374999868,
      "d": 1148.9887499999895,
      "v": 76
    },
    {
      "midi": 66,
      "hit": false,
      "t": 215448.01687499866,
      "d": 1126.8928125000093,
      "v": 76
    },
    {
      "midi": 54,
      "hit": false,
      "t": 215448.01687499866,
      "d": 1145.8321874999965,
      "v": 54
    },
    {
      "midi": 59,
      "hit": false,
      "t": 215448.01687499866,
      "d": 1161.6149999999907,
      "v": 76
    },
    {
      "midi": 65,
      "hit": false,
      "t": 216663.29343749865,
      "d": 1262.625,
      "v": 73
    },
    {
      "midi": 61,
      "hit": false,
      "t": 216666.44999999864,
      "d": 1278.4078124999942,
      "v": 67
    },
    {
      "midi": 68,
      "hit": false,
      "t": 216666.44999999864,
      "d": 1316.2865624999977,
      "v": 68
    },
    {
      "midi": 53,
      "hit": false,
      "t": 216669.60656249864,
      "d": 1262.625,
      "v": 76
    },
    {
      "midi": 57,
      "hit": false,
      "t": 217966.95374999865,
      "d": 4788.505312499998,
      "v": 48
    },
    {
      "midi": 61,
      "hit": false,
      "t": 218045.86781249865,
      "d": 4741.156874999986,
      "v": 56
    },
    {
      "midi": 66,
      "hit": false,
      "t": 218074.27687499864,
      "d": 4715.904374999984,
      "v": 60
    },
    {
      "midi": 42,
      "hit": false,
      "t": 218165.81718749864,
      "d": 4592.798437499994,
      "v": 64
    },
    {
      "midi": 69,
      "hit": false,
      "t": 218165.81718749864,
      "d": 4605.424687499995,
      "v": 73
    },
    {
      "midi": 64,
      "hit": false,
      "t": 223011.14062499863,
      "d": 2253.7856249999895,
      "v": 73
    },
    {
      "midi": 66,
      "hit": false,
      "t": 223014.29718749863,
      "d": 2231.6896875000093,
      "v": 60
    },
    {
      "midi": 71,
      "hit": false,
      "t": 223023.76687499863,
      "d": 2203.280625000014,
      "v": 60
    },
    {
      "midi": 60,
      "hit": false,
      "t": 223023.76687499863,
      "d": 2256.9421874999825,
      "v": 64
    },
    {
      "midi": 50,
      "hit": false,
      "t": 223023.76687499863,
      "d": 4753.783124999987,
      "v": 73
    },
    {
      "midi": 64,
      "hit": false,
      "t": 225473.25937499863,
      "d": 1076.3878125000047,
      "v": 64
    },
    {
      "midi": 68,
      "hit": false,
      "t": 225482.72906249863,
      "d": 1063.7615625000035,
      "v": 44
    },
    {
      "midi": 60,
      "hit": false,
      "t": 225482.72906249863,
      "d": 1066.9181249999965,
      "v": 56
    },
    {
      "midi": 71,
      "hit": false,
      "t": 225482.72906249863,
      "d": 1066.9181249999965,
      "v": 60
    },
    {
      "midi": 64,
      "hit": false,
      "t": 226666.43999999863,
      "d": 1148.9887499999895,
      "v": 56
    },
    {
      "midi": 60,
      "hit": false,
      "t": 226679.06624999864,
      "d": 1123.7362499999872,
      "v": 60
    },
    {
      "midi": 66,
      "hit": false,
      "t": 226685.37937499862,
      "d": 1136.3624999999884,
      "v": 60
    },
    {
      "midi": 69,
      "hit": false,
      "t": 227228.3081249986,
      "d": 129.41906250000466,
      "v": 73
    },
    {
      "midi": 71,
      "hit": false,
      "t": 227285.1262499986,
      "d": 261.9946875000023,
      "v": 73
    },
    {
      "midi": 73,
      "hit": false,
      "t": 227556.59062499861,
      "d": 293.5603124999907,
      "v": 73
    },
    {
      "midi": 71,
      "hit": false,
      "t": 227834.3681249986,
      "d": 110.47968749998836,
      "v": 91
    },
    {
      "midi": 76,
      "hit": false,
      "t": 227872.24687499861,
      "d": 1477.2712499999907,
      "v": 91
    },
    {
      "midi": 40,
      "hit": false,
      "t": 227888.0296874986,
      "d": 3071.335312499985,
      "v": 52
    },
    {
      "midi": 56,
      "hit": false,
      "t": 227888.0296874986,
      "d": 3156.5625,
      "v": 60
    },
    {
      "midi": 47,
      "hit": false,
      "t": 227894.3428124986,
      "d": 3124.9968750000116,
      "v": 64
    },
    {
      "midi": 71,
      "hit": false,
      "t": 229324.2656249986,
      "d": 104.16656250000233,
      "v": 82
    },
    {
      "midi": 73,
      "hit": false,
      "t": 229374.7706249986,
      "d": 505.04999999998836,
      "v": 60
    },
    {
      "midi": 71,
      "hit": false,
      "t": 229879.8206249986,
      "d": 331.4390624999942,
      "v": 82
    },
    {
      "midi": 66,
      "hit": false,
      "t": 230261.7646874986,
      "d": 306.18656250002095,
      "v": 91
    },
    {
      "midi": 68,
      "hit": false,
      "t": 230340.6787499986,
      "d": 151.51500000001397,
      "v": 73
    },
    {
      "midi": 64,
      "hit": false,
      "t": 230574.2643749986,
      "d": 2032.8262500000128,
      "v": 60
    },
    {
      "midi": 61,
      "hit": false,
      "t": 231183.48093749862,
      "d": 1477.2712499999907,
      "v": 73
    },
    {
      "midi": 42,
      "hit": false,
      "t": 231196.10718749862,
      "d": 1395.2006249999977,
      "v": 64
    },
    {
      "midi": 66,
      "hit": false,
      "t": 231196.10718749862,
      "d": 1455.1753124999814,
      "v": 73
    },
    {
      "midi": 57,
      "hit": false,
      "t": 231205.57687499863,
      "d": 1439.3924999999872,
      "v": 73
    },
    {
      "midi": 64,
      "hit": false,
      "t": 232629.18656249862,
      "d": 113.63624999998137,
      "v": 64
    },
    {
      "midi": 63,
      "hit": false,
      "t": 232711.25718749862,
      "d": 868.0546875,
      "v": 82
    },
    {
      "midi": 59,
      "hit": false,
      "t": 232723.88343749862,
      "d": 697.6003124999988,
      "v": 73
    },
    {
      "midi": 47,
      "hit": false,
      "t": 232727.0399999986,
      "d": 779.6709374999919,
      "v": 82
    },
    {
      "midi": 71,
      "hit": false,
      "t": 232730.1965624986,
      "d": 757.5750000000116,
      "v": 73
    },
    {
      "midi": 64,
      "hit": false,
      "t": 233632.97343749861,
      "d": 1038.509062499972,
      "v": 82
    },
    {
      "midi": 49,
      "hit": false,
      "t": 233632.97343749861,
      "d": 1117.423124999972,
      "v": 64
    },
    {
      "midi": 71,
      "hit": false,
      "t": 233636.1299999986,
      "d": 1117.423124999972,
      "v": 56
    },
    {
      "midi": 61,
      "hit": false,
      "t": 233639.2865624986,
      "d": 1047.9787499999802,
      "v": 64
    },
    {
      "midi": 63,
      "hit": false,
      "t": 234857.71968749858,
      "d": 978.5343749999884,
      "v": 74
    },
    {
      "midi": 71,
      "hit": false,
      "t": 234860.87624999858,
      "d": 981.6909374999814,
      "v": 68
    },
    {
      "midi": 66,
      "hit": false,
      "t": 234860.87624999858,
      "d": 1057.4484374999884,
      "v": 73
    },
    {
      "midi": 51,
      "hit": false,
      "t": 234860.87624999858,
      "d": 1082.7009374999907,
      "v": 64
    },
    {
      "midi": 65,
      "hit": false,
      "t": 236057.21343749858,
      "d": 1448.8621874999662,
      "v": 73
    },
    {
      "midi": 68,
      "hit": false,
      "t": 236057.21343749858,
      "d": 1448.8621874999662,
      "v": 60
    },
    {
      "midi": 61,
      "hit": false,
      "t": 236063.52656249856,
      "d": 1404.6703125000058,
      "v": 56
    },
    {
      "midi": 53,
      "hit": false,
      "t": 236063.52656249856,
      "d": 1410.9834374999919,
      "v": 73
    },
    {
      "midi": 42,
      "hit": false,
      "t": 237584.98968749854,
      "d": 2244.3159374999814,
      "v": 64
    },
    {
      "midi": 61,
      "hit": false,
      "t": 237584.98968749854,
      "d": 2256.9421874999825,
      "v": 60
    },
    {
      "midi": 57,
      "hit": false,
      "t": 237597.61593749854,
      "d": 2215.906874999986,
      "v": 56
    },
    {
      "midi": 69,
      "hit": false,
      "t": 237603.92906249853,
      "d": 2225.376562499994,
      "v": 56
    },
    {
      "midi": 66,
      "hit": false,
      "t": 237610.24218749852,
      "d": 2219.063437500008,
      "v": 60
    },
    {
      "midi": 64,
      "hit": false,
      "t": 242379.80812499853,
      "d": 4706.434687500005,
      "v": 64
    },
    {
      "midi": 71,
      "hit": false,
      "t": 242386.1212499985,
      "d": 4674.869062500016,
      "v": 56
    },
    {
      "midi": 60,
      "hit": false,
      "t": 242408.21718749852,
      "d": 4665.399375000008,
      "v": 56
    },
    {
      "midi": 66,
      "hit": false,
      "t": 242408.21718749852,
      "d": 4687.4953125000175,
      "v": 60
    },
    {
      "midi": 50,
      "hit": false,
      "t": 242408.21718749852,
      "d": 4693.8084375000035,
      "v": 64
    },
    {
      "midi": 57,
      "hit": false,
      "t": 247250.38406249852,
      "d": 2225.376562499994,
      "v": 56
    },
    {
      "midi": 64,
      "hit": false,
      "t": 247250.38406249852,
      "d": 2234.8462500000023,
      "v": 64
    },
    {
      "midi": 73,
      "hit": false,
      "t": 247250.38406249852,
      "d": 2234.8462500000023,
      "v": 56
    },
    {
      "midi": 45,
      "hit": false,
      "t": 247250.38406249852,
      "d": 2238.0028124999953,
      "v": 56
    },
    {
      "midi": 61,
      "hit": false,
      "t": 247250.38406249852,
      "d": 2238.0028124999953,
      "v": 56
    },
    {
      "midi": 69,
      "hit": false,
      "t": 247288.26281249852,
      "d": 2209.59375,
      "v": 29
    },
    {
      "midi": 66,
      "hit": false,
      "t": 249668.31093749852,
      "d": 789.140625,
      "v": 64
    },
    {
      "midi": 59,
      "hit": false,
      "t": 249680.93718749852,
      "d": 779.6709374999919,
      "v": 60
    },
    {
      "midi": 47,
      "hit": false,
      "t": 249690.40687499853,
      "d": 748.1053125000035,
      "v": 64
    },
    {
      "midi": 63,
      "hit": false,
      "t": 249690.40687499853,
      "d": 785.9840624999779,
      "v": 64
    },
    {
      "midi": 71,
      "hit": false,
      "t": 249699.87656249854,
      "d": 741.7921874999884,
      "v": 48
    },
    {
      "midi": 63,
      "hit": false,
      "t": 250577.40093749852,
      "d": 1511.993437499972,
      "v": 64
    },
    {
      "midi": 71,
      "hit": false,
      "t": 250593.1837499985,
      "d": 236.7421875,
      "v": 64
    },
    {
      "midi": 47,
      "hit": false,
      "t": 250593.1837499985,
      "d": 321.96937499998603,
      "v": 64
    },
    {
      "midi": 69,
      "hit": false,
      "t": 250893.05718749852,
      "d": 1196.337187499972,
      "v": 64
    },
    {
      "midi": 59,
      "hit": false,
      "t": 250896.2137499985,
      "d": 1126.8928124999802,
      "v": 64
    },
    {
      "midi": 66,
      "hit": false,
      "t": 250899.3703124985,
      "d": 1199.4937499999942,
      "v": 60
    },
    {
      "midi": 45,
      "hit": false,
      "t": 250905.6834374985,
      "d": 1164.7715625000128,
      "v": 73
    },
    {
      "midi": 59,
      "hit": false,
      "t": 252143.0559374985,
      "d": 1287.8775000000314,
      "v": 60
    },
    {
      "midi": 68,
      "hit": false,
      "t": 252143.0559374985,
      "d": 1452.0187500000175,
      "v": 52
    },
    {
      "midi": 52,
      "hit": false,
      "t": 252152.5256249985,
      "d": 1019.569687500014,
      "v": 52
    },
    {
      "midi": 64,
      "hit": false,
      "t": 252152.5256249985,
      "d": 1414.140000000014,
      "v": 64
    },
    {
      "midi": 40,
      "hit": false,
      "t": 252152.5256249985,
      "d": 2446.3359375,
      "v": 48
    },
    {
      "midi": 52,
      "hit": false,
      "t": 253342.5496874985,
      "d": 1215.2765624999884,
      "v": 31
    },
    {
      "midi": 59,
      "hit": false,
      "t": 253629.79687499852,
      "d": 928.0293749999837,
      "v": 64
    },
    {
      "midi": 64,
      "hit": false,
      "t": 253920.2006249985,
      "d": 536.6156250000058,
      "v": 73
    },
    {
      "midi": 68,
      "hit": false,
      "t": 254235.8568749985,
      "d": 366.16124999997555,
      "v": 60
    },
    {
      "midi": 45,
      "hit": false,
      "t": 254513.6343749985,
      "d": 2417.9268749999756,
      "v": 73
    },
    {
      "midi": 61,
      "hit": false,
      "t": 254526.2606249985,
      "d": 1057.4484374999884,
      "v": 60
    },
    {
      "midi": 64,
      "hit": false,
      "t": 254526.2606249985,
      "d": 1060.6049999999814,
      "v": 73
    },
    {
      "midi": 71,
      "hit": false,
      "t": 254526.2606249985,
      "d": 1073.2312499999825,
      "v": 64
    },
    {
      "midi": 64,
      "hit": false,
      "t": 255757.3199999985,
      "d": 1161.6149999999907,
      "v": 82
    },
    {
      "midi": 61,
      "hit": false,
      "t": 255766.7896874985,
      "d": 1164.7715624999837,
      "v": 73
    },
    {
      "midi": 69,
      "hit": false,
      "t": 255769.9462499985,
      "d": 1161.6149999999907,
      "v": 64
    },
    {
      "midi": 64,
      "hit": false,
      "t": 256972.59656249848,
      "d": 1521.4631250000093,
      "v": 100
    },
    {
      "midi": 68,
      "hit": false,
      "t": 256972.59656249848,
      "d": 1534.0893750000105,
      "v": 82
    },
    {
      "midi": 59,
      "hit": false,
      "t": 256982.0662499985,
      "d": 1445.7056250000023,
      "v": 82
    },
    {
      "midi": 59,
      "hit": false,
      "t": 258459.33749999848,
      "d": 735.4790625000023,
      "v": 46
    },
    {
      "midi": 64,
      "hit": false,
      "t": 258774.99374999848,
      "d": 523.9893750000047,
      "v": 64
    },
    {
      "midi": 68,
      "hit": false,
      "t": 259071.7106249985,
      "d": 265.15124999999534,
      "v": 56
    },
    {
      "midi": 68,
      "hit": false,
      "t": 259371.5840624985,
      "d": 789.1406249999709,
      "v": 60
    },
    {
      "midi": 64,
      "hit": false,
      "t": 259374.7406249985,
      "d": 735.4790624999732,
      "v": 56
    },
    {
      "midi": 59,
      "hit": false,
      "t": 259377.89718749849,
      "d": 716.539687499986,
      "v": 60
    },
    {
      "midi": 61,
      "hit": false,
      "t": 260293.30031249847,
      "d": 795.4537500000151,
      "v": 92
    },
    {
      "midi": 69,
      "hit": false,
      "t": 260296.45687499846,
      "d": 782.827500000014,
      "v": 83
    },
    {
      "midi": 66,
      "hit": false,
      "t": 260296.45687499846,
      "d": 839.6456250000338,
      "v": 83
    },
    {
      "midi": 68,
      "hit": false,
      "t": 261202.3903124985,
      "d": 542.9287499999627,
      "v": 72
    },
    {
      "midi": 59,
      "hit": false,
      "t": 261208.70343749848,
      "d": 527.1459374999686,
      "v": 72
    },
    {
      "midi": 64,
      "hit": false,
      "t": 261215.01656249847,
      "d": 517.6762499999895,
      "v": 80
    },
    {
      "midi": 47,
      "hit": false,
      "t": 261795.82406249846,
      "d": 804.9234375000233,
      "v": 73
    },
    {
      "midi": 63,
      "hit": false,
      "t": 261817.91999999847,
      "d": 798.610312499979,
      "v": 82
    },
    {
      "midi": 59,
      "hit": false,
      "t": 261824.23312499846,
      "d": 785.984062500007,
      "v": 64
    },
    {
      "midi": 49,
      "hit": false,
      "t": 262704.9140624984,
      "d": 1183.7109374998836,
      "v": 64
    },
    {
      "midi": 64,
      "hit": false,
      "t": 262711.2271874984,
      "d": 1130.0493749999441,
      "v": 73
    },
    {
      "midi": 59,
      "hit": false,
      "t": 262720.6968749984,
      "d": 1117.423124999972,
      "v": 64
    },
    {
      "midi": 61,
      "hit": false,
      "t": 262727.0099999984,
      "d": 1123.736249999958,
      "v": 82
    },
    {
      "midi": 51,
      "hit": false,
      "t": 263929.66031249834,
      "d": 1196.3371875000303,
      "v": 73
    },
    {
      "midi": 66,
      "hit": false,
      "t": 263951.75624999835,
      "d": 1158.4584374999977,
      "v": 73
    },
    {
      "midi": 59,
      "hit": false,
      "t": 263951.75624999835,
      "d": 1180.554375000007,
      "v": 73
    },
    {
      "midi": 63,
      "hit": false,
      "t": 263958.06937499833,
      "d": 1199.4937500000233,
      "v": 73
    },
    {
      "midi": 56,
      "hit": false,
      "t": 265141.78031249833,
      "d": 1467.8015625000116,
      "v": 82
    },
    {
      "midi": 60,
      "hit": false,
      "t": 265141.78031249833,
      "d": 1493.054062500014,
      "v": 91
    },
    {
      "midi": 66,
      "hit": false,
      "t": 265141.78031249833,
      "d": 1493.054062500014,
      "v": 82
    },
    {
      "midi": 71,
      "hit": false,
      "t": 265141.78031249833,
      "d": 1493.054062500014,
      "v": 82
    },
    {
      "midi": 61,
      "hit": false,
      "t": 266660.08687499835,
      "d": 754.4184375000186,
      "v": 73
    },
    {
      "midi": 68,
      "hit": false,
      "t": 266660.08687499835,
      "d": 763.8881249999977,
      "v": 68
    },
    {
      "midi": 64,
      "hit": false,
      "t": 266660.08687499835,
      "d": 770.2012499999837,
      "v": 73
    },
    {
      "midi": 49,
      "hit": false,
      "t": 266660.08687499835,
      "d": 921.7162499999395,
      "v": 60
    },
    {
      "midi": 61,
      "hit": false,
      "t": 267569.1768749983,
      "d": 568.1812499999651,
      "v": 64
    },
    {
      "midi": 64,
      "hit": false,
      "t": 267569.1768749983,
      "d": 568.1812499999651,
      "v": 73
    },
    {
      "midi": 59,
      "hit": false,
      "t": 267572.3334374983,
      "d": 568.1812499999651,
      "v": 64
    },
    {
      "midi": 57,
      "hit": false,
      "t": 267572.3334374983,
      "d": 1388.8874999999534,
      "v": 60
    },
    {
      "midi": 45,
      "hit": false,
      "t": 267578.6465624983,
      "d": 1505.680312499986,
      "v": 64
    },
    {
      "midi": 68,
      "hit": false,
      "t": 268178.39343749825,
      "d": 858.585000000021,
      "v": 60
    },
    {
      "midi": 61,
      "hit": false,
      "t": 268181.54999999824,
      "d": 858.585000000021,
      "v": 73
    },
    {
      "midi": 64,
      "hit": false,
      "t": 268181.54999999824,
      "d": 858.585000000021,
      "v": 73
    },
    {
      "midi": 59,
      "hit": false,
      "t": 268184.70656249824,
      "d": 836.4890625000116,
      "v": 64
    },
    {
      "midi": 47,
      "hit": false,
      "t": 269087.4834374983,
      "d": 2471.588437499886,
      "v": 64
    },
    {
      "midi": 68,
      "hit": false,
      "t": 269100.10968749825,
      "d": 716.539687499986,
      "v": 60
    },
    {
      "midi": 59,
      "hit": false,
      "t": 269100.10968749825,
      "d": 719.696249999979,
      "v": 73
    },
    {
      "midi": 63,
      "hit": false,
      "t": 269100.10968749825,
      "d": 735.4790625000023,
      "v": 73
    },
    {
      "midi": 63,
      "hit": false,
      "t": 269996.57343749824,
      "d": 1420.4531249999418,
      "v": 73
    },
    {
      "midi": 66,
      "hit": false,
      "t": 270002.8865624982,
      "d": 1385.7309375000186,
      "v": 73
    },
    {
      "midi": 57,
      "hit": false,
      "t": 270002.8865624982,
      "d": 1388.8875000000116,
      "v": 82
    },
    {
      "midi": 59,
      "hit": false,
      "t": 270002.8865624982,
      "d": 1401.5137499999837,
      "v": 73
    },
    {
      "midi": 56,
      "hit": false,
      "t": 271521.1931249982,
      "d": 568.1812499999651,
      "v": 64
    },
    {
      "midi": 59,
      "hit": false,
      "t": 271521.1931249982,
      "d": 568.1812499999651,
      "v": 82
    },
    {
      "midi": 63,
      "hit": false,
      "t": 271524.3496874982,
      "d": 568.1812499999651,
      "v": 64
    },
    {
      "midi": 66,
      "hit": false,
      "t": 271524.3496874982,
      "d": 568.1812499999651,
      "v": 64
    },
    {
      "midi": 44,
      "hit": false,
      "t": 271524.3496874982,
      "d": 2323.2299999999814,
      "v": 56
    },
    {
      "midi": 59,
      "hit": false,
      "t": 272127.2531249981,
      "d": 195.7068749999744,
      "v": 73
    },
    {
      "midi": 63,
      "hit": false,
      "t": 272127.2531249981,
      "d": 243.05531249998603,
      "v": 82
    },
    {
      "midi": 59,
      "hit": false,
      "t": 272417.6568749981,
      "d": 243.05531250004424,
      "v": 82
    },
    {
      "midi": 66,
      "hit": false,
      "t": 272433.43968749815,
      "d": 239.89874999999302,
      "v": 82
    },
    {
      "midi": 71,
      "hit": false,
      "t": 272436.59624999814,
      "d": 1445.7056250000023,
      "v": 82
    },
    {
      "midi": 59,
      "hit": false,
      "t": 272739.62624999817,
      "d": 1117.423124999972,
      "v": 73
    },
    {
      "midi": 63,
      "hit": false,
      "t": 272742.78281249816,
      "d": 1114.266562499979,
      "v": 91
    },
    {
      "midi": 45,
      "hit": false,
      "t": 273932.80687499815,
      "d": 2348.4824999999837,
      "v": 60
    },
    {
      "midi": 68,
      "hit": false,
      "t": 273948.58968749817,
      "d": 2200.1240624999627,
      "v": 64
    },
    {
      "midi": 61,
      "hit": false,
      "t": 273951.74624999816,
      "d": 2171.7149999999674,
      "v": 73
    },
    {
      "midi": 64,
      "hit": false,
      "t": 273954.90281249816,
      "d": 2140.149374999979,
      "v": 73
    },
    {
      "midi": 59,
      "hit": false,
      "t": 273954.90281249816,
      "d": 2146.462499999965,
      "v": 60
    },
    {
      "midi": 58,
      "hit": false,
      "t": 276357.04687499814,
      "d": 1117.423124999972,
      "v": 73
    },
    {
      "midi": 61,
      "hit": false,
      "t": 276357.04687499814,
      "d": 1117.423124999972,
      "v": 73
    },
    {
      "midi": 66,
      "hit": false,
      "t": 276360.20343749813,
      "d": 1029.039374999993,
      "v": 64
    },
    {
      "midi": 42,
      "hit": false,
      "t": 276366.5165624981,
      "d": 2206.437187499949,
      "v": 56
    },
    {
      "midi": 61,
      "hit": false,
      "t": 277562.8537499981,
      "d": 1145.8321874999674,
      "v": 56
    },
    {
      "midi": 58,
      "hit": false,
      "t": 277566.0103124981,
      "d": 1148.9887499999604,
      "v": 60
    },
    {
      "midi": 54,
      "hit": false,
      "t": 277572.32343749807,
      "d": 1148.9887499999604,
      "v": 64
    },
    {
      "midi": 64,
      "hit": false,
      "t": 277581.79312499805,
      "d": 1117.4231250000303,
      "v": 64
    },
    {
      "midi": 47,
      "hit": false,
      "t": 278778.130312498,
      "d": 2171.7150000000256,
      "v": 64
    },
    {
      "midi": 59,
      "hit": false,
      "t": 278797.06968749803,
      "d": 467.17125000001397,
      "v": 64
    },
    {
      "midi": 63,
      "hit": false,
      "t": 278797.06968749803,
      "d": 505.04999999998836,
      "v": 60
    },
    {
      "midi": 66,
      "hit": false,
      "t": 278800.226249998,
      "d": 2361.108750000014,
      "v": 64
    },
    {
      "midi": 59,
      "hit": false,
      "t": 279396.81656249805,
      "d": 473.484375,
      "v": 73
    },
    {
      "midi": 63,
      "hit": false,
      "t": 279396.81656249805,
      "d": 546.085312500014,
      "v": 82
    },
    {
      "midi": 57,
      "hit": false,
      "t": 280006.03312499804,
      "d": 1167.9281249999767,
      "v": 91
    },
    {
      "midi": 61,
      "hit": false,
      "t": 280006.03312499804,
      "d": 1174.2412499999627,
      "v": 82
    },
    {
      "midi": 54,
      "hit": false,
      "t": 281208.683437498,
      "d": 2285.351250000007,
      "v": 64
    },
    {
      "midi": 60,
      "hit": false,
      "t": 281208.683437498,
      "d": 2285.351250000007,
      "v": 74
    },
    {
      "midi": 56,
      "hit": false,
      "t": 281208.683437498,
      "d": 2301.134062499972,
      "v": 74
    },
    {
      "midi": 44,
      "hit": false,
      "t": 281214.996562498,
      "d": 2285.351250000007,
      "v": 56
    },
    {
      "midi": 63,
      "hit": false,
      "t": 281214.996562498,
      "d": 2285.351250000007,
      "v": 73
    },
    {
      "midi": 54,
      "hit": false,
      "t": 283623.45374999795,
      "d": 1098.4837499999558,
      "v": 60
    },
    {
      "midi": 57,
      "hit": false,
      "t": 283626.61031249794,
      "d": 1085.8574999999837,
      "v": 82
    },
    {
      "midi": 42,
      "hit": false,
      "t": 283626.61031249794,
      "d": 1167.9281249999767,
      "v": 73
    },
    {
      "midi": 64,
      "hit": false,
      "t": 283629.76687499793,
      "d": 1022.726250000007,
      "v": 82
    },
    {
      "midi": 60,
      "hit": false,
      "t": 283629.76687499793,
      "d": 1107.953437499993,
      "v": 73
    },
    {
      "midi": 60,
      "hit": false,
      "t": 284835.57374999794,
      "d": 1167.9281249999767,
      "v": 60
    },
    {
      "midi": 63,
      "hit": false,
      "t": 284841.88687499793,
      "d": 1161.6149999999907,
      "v": 64
    },
    {
      "midi": 56,
      "hit": false,
      "t": 284841.88687499793,
      "d": 1167.9281249999767,
      "v": 73
    },
    {
      "midi": 54,
      "hit": false,
      "t": 284841.88687499793,
      "d": 1183.7109375,
      "v": 73
    },
    {
      "midi": 44,
      "hit": false,
      "t": 284854.5131249979,
      "d": 1126.8928125000093,
      "v": 60
    },
    {
      "midi": 61,
      "hit": false,
      "t": 286054.0068749979,
      "d": 754.4184375000186,
      "v": 73
    },
    {
      "midi": 68,
      "hit": false,
      "t": 286054.0068749979,
      "d": 763.8881249999977,
      "v": 68
    },
    {
      "midi": 64,
      "hit": false,
      "t": 286054.0068749979,
      "d": 770.2012499999837,
      "v": 73
    },
    {
      "midi": 49,
      "hit": false,
      "t": 286054.0068749979,
      "d": 921.7162499999395,
      "v": 60
    },
    {
      "midi": 61,
      "hit": false,
      "t": 286963.0968749979,
      "d": 568.1812499999651,
      "v": 64
    },
    {
      "midi": 64,
      "hit": false,
      "t": 286963.0968749979,
      "d": 568.1812499999651,
      "v": 73
    },
    {
      "midi": 59,
      "hit": false,
      "t": 286966.2534374979,
      "d": 568.1812499999651,
      "v": 64
    },
    {
      "midi": 57,
      "hit": false,
      "t": 286966.2534374979,
      "d": 1388.8874999999534,
      "v": 60
    },
    {
      "midi": 45,
      "hit": false,
      "t": 286972.5665624979,
      "d": 1505.680312499986,
      "v": 64
    },
    {
      "midi": 68,
      "hit": false,
      "t": 287572.3134374978,
      "d": 858.585000000021,
      "v": 60
    },
    {
      "midi": 61,
      "hit": false,
      "t": 287575.4699999978,
      "d": 858.585000000021,
      "v": 73
    },
    {
      "midi": 64,
      "hit": false,
      "t": 287575.4699999978,
      "d": 858.585000000021,
      "v": 73
    },
    {
      "midi": 59,
      "hit": false,
      "t": 287578.6265624978,
      "d": 836.4890625000116,
      "v": 64
    },
    {
      "midi": 47,
      "hit": false,
      "t": 288481.40343749785,
      "d": 2471.588437499886,
      "v": 64
    },
    {
      "midi": 68,
      "hit": false,
      "t": 288494.0296874978,
      "d": 716.539687499986,
      "v": 60
    },
    {
      "midi": 59,
      "hit": false,
      "t": 288494.0296874978,
      "d": 719.696249999979,
      "v": 73
    },
    {
      "midi": 63,
      "hit": false,
      "t": 288494.0296874978,
      "d": 735.4790625000023,
      "v": 73
    },
    {
      "midi": 63,
      "hit": false,
      "t": 289390.4934374978,
      "d": 1420.4531249999418,
      "v": 73
    },
    {
      "midi": 66,
      "hit": false,
      "t": 289396.8065624978,
      "d": 1385.7309375000186,
      "v": 73
    },
    {
      "midi": 57,
      "hit": false,
      "t": 289396.8065624978,
      "d": 1388.8875000000116,
      "v": 82
    },
    {
      "midi": 59,
      "hit": false,
      "t": 289396.8065624978,
      "d": 1401.5137499999837,
      "v": 73
    },
    {
      "midi": 56,
      "hit": false,
      "t": 290915.11312499776,
      "d": 568.1812499999651,
      "v": 64
    },
    {
      "midi": 59,
      "hit": false,
      "t": 290915.11312499776,
      "d": 568.1812499999651,
      "v": 82
    },
    {
      "midi": 63,
      "hit": false,
      "t": 290918.26968749776,
      "d": 568.1812499999651,
      "v": 64
    },
    {
      "midi": 66,
      "hit": false,
      "t": 290918.26968749776,
      "d": 568.1812499999651,
      "v": 64
    },
    {
      "midi": 44,
      "hit": false,
      "t": 290918.26968749776,
      "d": 2323.2299999999814,
      "v": 56
    },
    {
      "midi": 59,
      "hit": false,
      "t": 291521.1731249977,
      "d": 195.7068749999744,
      "v": 73
    },
    {
      "midi": 63,
      "hit": false,
      "t": 291521.1731249977,
      "d": 243.05531249998603,
      "v": 82
    },
    {
      "midi": 59,
      "hit": false,
      "t": 291811.5768749977,
      "d": 243.05531250004424,
      "v": 82
    },
    {
      "midi": 66,
      "hit": false,
      "t": 291827.3596874977,
      "d": 239.89874999999302,
      "v": 82
    },
    {
      "midi": 71,
      "hit": false,
      "t": 291830.5162499977,
      "d": 1445.7056250000023,
      "v": 82
    },
    {
      "midi": 59,
      "hit": false,
      "t": 292133.54624999774,
      "d": 1117.423124999972,
      "v": 73
    },
    {
      "midi": 63,
      "hit": false,
      "t": 292136.70281249774,
      "d": 1114.266562499979,
      "v": 91
    },
    {
      "midi": 45,
      "hit": false,
      "t": 293326.7268749977,
      "d": 2348.4824999999837,
      "v": 60
    },
    {
      "midi": 68,
      "hit": false,
      "t": 293342.50968749775,
      "d": 2200.1240624999627,
      "v": 64
    },
    {
      "midi": 61,
      "hit": false,
      "t": 293345.66624999774,
      "d": 2171.7149999999674,
      "v": 73
    },
    {
      "midi": 64,
      "hit": false,
      "t": 293348.82281249773,
      "d": 2140.149374999979,
      "v": 73
    },
    {
      "midi": 59,
      "hit": false,
      "t": 293348.82281249773,
      "d": 2146.462499999965,
      "v": 60
    },
    {
      "midi": 58,
      "hit": false,
      "t": 295750.9668749977,
      "d": 1117.423124999972,
      "v": 73
    },
    {
      "midi": 61,
      "hit": false,
      "t": 295750.9668749977,
      "d": 1117.423124999972,
      "v": 73
    },
    {
      "midi": 66,
      "hit": false,
      "t": 295754.1234374977,
      "d": 1029.039374999993,
      "v": 64
    },
    {
      "midi": 42,
      "hit": false,
      "t": 295760.4365624977,
      "d": 2206.437187499949,
      "v": 56
    },
    {
      "midi": 61,
      "hit": false,
      "t": 296956.77374999766,
      "d": 1145.8321874999674,
      "v": 56
    },
    {
      "midi": 58,
      "hit": false,
      "t": 296959.93031249766,
      "d": 1148.9887499999604,
      "v": 60
    },
    {
      "midi": 54,
      "hit": false,
      "t": 296966.24343749764,
      "d": 1148.9887499999604,
      "v": 64
    },
    {
      "midi": 64,
      "hit": false,
      "t": 296975.7131249976,
      "d": 1117.4231250000303,
      "v": 64
    },
    {
      "midi": 47,
      "hit": false,
      "t": 298172.0503124976,
      "d": 2171.7150000000256,
      "v": 64
    },
    {
      "midi": 59,
      "hit": false,
      "t": 298190.9896874976,
      "d": 467.17125000001397,
      "v": 64
    },
    {
      "midi": 63,
      "hit": false,
      "t": 298190.9896874976,
      "d": 505.04999999998836,
      "v": 60
    },
    {
      "midi": 66,
      "hit": false,
      "t": 298194.1462499976,
      "d": 2361.108750000014,
      "v": 64
    },
    {
      "midi": 59,
      "hit": false,
      "t": 298790.7365624976,
      "d": 473.484375,
      "v": 73
    },
    {
      "midi": 63,
      "hit": false,
      "t": 298790.7365624976,
      "d": 546.085312500014,
      "v": 82
    },
    {
      "midi": 57,
      "hit": false,
      "t": 299399.9531249976,
      "d": 1167.9281249999767,
      "v": 91
    },
    {
      "midi": 61,
      "hit": false,
      "t": 299399.9531249976,
      "d": 1174.2412499999627,
      "v": 82
    },
    {
      "midi": 54,
      "hit": false,
      "t": 300602.6034374976,
      "d": 2285.351250000007,
      "v": 64
    },
    {
      "midi": 60,
      "hit": false,
      "t": 300602.6034374976,
      "d": 2285.351250000007,
      "v": 74
    },
    {
      "midi": 56,
      "hit": false,
      "t": 300602.6034374976,
      "d": 2301.134062499972,
      "v": 74
    },
    {
      "midi": 44,
      "hit": false,
      "t": 300608.91656249756,
      "d": 2285.351250000007,
      "v": 56
    },
    {
      "midi": 63,
      "hit": false,
      "t": 300608.91656249756,
      "d": 2285.351250000007,
      "v": 73
    },
    {
      "midi": 54,
      "hit": false,
      "t": 303017.3737499975,
      "d": 1098.4837499999558,
      "v": 60
    },
    {
      "midi": 57,
      "hit": false,
      "t": 303020.5303124975,
      "d": 1085.8574999999837,
      "v": 82
    },
    {
      "midi": 42,
      "hit": false,
      "t": 303020.5303124975,
      "d": 1167.9281249999767,
      "v": 73
    },
    {
      "midi": 64,
      "hit": false,
      "t": 303023.6868749975,
      "d": 1022.726250000007,
      "v": 82
    },
    {
      "midi": 60,
      "hit": false,
      "t": 303023.6868749975,
      "d": 1107.953437499993,
      "v": 73
    },
    {
      "midi": 60,
      "hit": false,
      "t": 304229.4937499975,
      "d": 1167.9281249999767,
      "v": 60
    },
    {
      "midi": 63,
      "hit": false,
      "t": 304235.8068749975,
      "d": 1161.6149999999907,
      "v": 64
    },
    {
      "midi": 56,
      "hit": false,
      "t": 304235.8068749975,
      "d": 1167.9281249999767,
      "v": 73
    },
    {
      "midi": 54,
      "hit": false,
      "t": 304235.8068749975,
      "d": 1183.7109375,
      "v": 73
    },
    {
      "midi": 44,
      "hit": false,
      "t": 304248.4331249975,
      "d": 1126.8928125000093,
      "v": 60
    },
    {
      "midi": 61,
      "hit": false,
      "t": 305447.9268749975,
      "d": 754.4184375000186,
      "v": 73
    },
    {
      "midi": 68,
      "hit": false,
      "t": 305447.9268749975,
      "d": 763.8881249999977,
      "v": 68
    },
    {
      "midi": 64,
      "hit": false,
      "t": 305447.9268749975,
      "d": 770.2012499999837,
      "v": 73
    },
    {
      "midi": 49,
      "hit": false,
      "t": 305447.9268749975,
      "d": 921.7162499999395,
      "v": 60
    },
    {
      "midi": 61,
      "hit": false,
      "t": 306357.01687499747,
      "d": 568.1812499999651,
      "v": 64
    },
    {
      "midi": 64,
      "hit": false,
      "t": 306357.01687499747,
      "d": 568.1812499999651,
      "v": 73
    },
    {
      "midi": 59,
      "hit": false,
      "t": 306360.17343749746,
      "d": 568.1812499999651,
      "v": 64
    },
    {
      "midi": 57,
      "hit": false,
      "t": 306360.17343749746,
      "d": 1388.8874999999534,
      "v": 60
    },
    {
      "midi": 45,
      "hit": false,
      "t": 306366.48656249745,
      "d": 1505.680312499986,
      "v": 64
    },
    {
      "midi": 68,
      "hit": false,
      "t": 306966.2334374974,
      "d": 858.585000000021,
      "v": 60
    },
    {
      "midi": 61,
      "hit": false,
      "t": 306969.3899999974,
      "d": 858.585000000021,
      "v": 73
    },
    {
      "midi": 64,
      "hit": false,
      "t": 306969.3899999974,
      "d": 858.585000000021,
      "v": 73
    },
    {
      "midi": 59,
      "hit": false,
      "t": 306972.5465624974,
      "d": 836.4890625000116,
      "v": 64
    },
    {
      "midi": 47,
      "hit": false,
      "t": 307875.3234374974,
      "d": 2471.588437499886,
      "v": 64
    },
    {
      "midi": 68,
      "hit": false,
      "t": 307887.9496874974,
      "d": 716.539687499986,
      "v": 60
    },
    {
      "midi": 59,
      "hit": false,
      "t": 307887.9496874974,
      "d": 719.696249999979,
      "v": 73
    },
    {
      "midi": 63,
      "hit": false,
      "t": 307887.9496874974,
      "d": 735.4790625000023,
      "v": 73
    },
    {
      "midi": 63,
      "hit": false,
      "t": 308784.4134374974,
      "d": 1420.4531249999418,
      "v": 73
    },
    {
      "midi": 66,
      "hit": false,
      "t": 308790.7265624974,
      "d": 1385.7309375000186,
      "v": 73
    },
    {
      "midi": 57,
      "hit": false,
      "t": 308790.7265624974,
      "d": 1388.8875000000116,
      "v": 82
    },
    {
      "midi": 59,
      "hit": false,
      "t": 308790.7265624974,
      "d": 1401.5137499999837,
      "v": 73
    },
    {
      "midi": 56,
      "hit": false,
      "t": 310309.03312499734,
      "d": 568.1812499999651,
      "v": 64
    },
    {
      "midi": 59,
      "hit": false,
      "t": 310309.03312499734,
      "d": 568.1812499999651,
      "v": 82
    },
    {
      "midi": 63,
      "hit": false,
      "t": 310312.18968749733,
      "d": 568.1812499999651,
      "v": 64
    },
    {
      "midi": 66,
      "hit": false,
      "t": 310312.18968749733,
      "d": 568.1812499999651,
      "v": 64
    },
    {
      "midi": 44,
      "hit": false,
      "t": 310312.18968749733,
      "d": 2323.2299999999814,
      "v": 56
    },
    {
      "midi": 59,
      "hit": false,
      "t": 310915.0931249973,
      "d": 195.7068749999744,
      "v": 73
    },
    {
      "midi": 63,
      "hit": false,
      "t": 310915.0931249973,
      "d": 243.05531249998603,
      "v": 82
    },
    {
      "midi": 59,
      "hit": false,
      "t": 311205.4968749973,
      "d": 243.05531250004424,
      "v": 82
    },
    {
      "midi": 66,
      "hit": false,
      "t": 311221.2796874973,
      "d": 239.89874999999302,
      "v": 82
    },
    {
      "midi": 71,
      "hit": false,
      "t": 311224.4362499973,
      "d": 1445.7056250000023,
      "v": 82
    },
    {
      "midi": 59,
      "hit": false,
      "t": 311527.4662499973,
      "d": 1117.423124999972,
      "v": 73
    },
    {
      "midi": 63,
      "hit": false,
      "t": 311530.6228124973,
      "d": 1114.266562499979,
      "v": 91
    },
    {
      "midi": 45,
      "hit": false,
      "t": 312720.6468749973,
      "d": 2348.4824999999837,
      "v": 60
    },
    {
      "midi": 68,
      "hit": false,
      "t": 312736.4296874973,
      "d": 2200.1240624999627,
      "v": 64
    },
    {
      "midi": 61,
      "hit": false,
      "t": 312739.5862499973,
      "d": 2171.7149999999674,
      "v": 73
    },
    {
      "midi": 64,
      "hit": false,
      "t": 312742.7428124973,
      "d": 2140.149374999979,
      "v": 73
    },
    {
      "midi": 59,
      "hit": false,
      "t": 312742.7428124973,
      "d": 2146.462499999965,
      "v": 60
    },
    {
      "midi": 58,
      "hit": false,
      "t": 315144.8868749973,
      "d": 1117.423124999972,
      "v": 73
    },
    {
      "midi": 61,
      "hit": false,
      "t": 315144.8868749973,
      "d": 1117.423124999972,
      "v": 73
    },
    {
      "midi": 66,
      "hit": false,
      "t": 315148.0434374973,
      "d": 1029.039374999993,
      "v": 64
    },
    {
      "midi": 42,
      "hit": false,
      "t": 315154.35656249727,
      "d": 2206.437187499949,
      "v": 56
    },
    {
      "midi": 61,
      "hit": false,
      "t": 316350.69374999724,
      "d": 1145.8321874999674,
      "v": 56
    },
    {
      "midi": 58,
      "hit": false,
      "t": 316353.85031249723,
      "d": 1148.9887499999604,
      "v": 60
    },
    {
      "midi": 54,
      "hit": false,
      "t": 316360.1634374972,
      "d": 1148.9887499999604,
      "v": 64
    },
    {
      "midi": 64,
      "hit": false,
      "t": 316369.6331249972,
      "d": 1117.4231250000303,
      "v": 64
    },
    {
      "midi": 47,
      "hit": false,
      "t": 317565.9703124972,
      "d": 2171.7150000000256,
      "v": 64
    },
    {
      "midi": 59,
      "hit": false,
      "t": 317584.9096874972,
      "d": 467.17125000001397,
      "v": 64
    },
    {
      "midi": 63,
      "hit": false,
      "t": 317584.9096874972,
      "d": 505.04999999998836,
      "v": 60
    },
    {
      "midi": 66,
      "hit": false,
      "t": 317588.0662499972,
      "d": 2361.108750000014,
      "v": 64
    },
    {
      "midi": 59,
      "hit": false,
      "t": 318184.6565624972,
      "d": 473.484375,
      "v": 73
    },
    {
      "midi": 63,
      "hit": false,
      "t": 318184.6565624972,
      "d": 546.085312500014,
      "v": 82
    },
    {
      "midi": 57,
      "hit": false,
      "t": 318793.8731249972,
      "d": 1167.9281249999767,
      "v": 91
    },
    {
      "midi": 61,
      "hit": false,
      "t": 318793.8731249972,
      "d": 1174.2412499999627,
      "v": 82
    },
    {
      "midi": 54,
      "hit": false,
      "t": 319996.52343749715,
      "d": 2285.351250000007,
      "v": 64
    },
    {
      "midi": 60,
      "hit": false,
      "t": 319996.52343749715,
      "d": 2285.351250000007,
      "v": 74
    },
    {
      "midi": 56,
      "hit": false,
      "t": 319996.52343749715,
      "d": 2301.134062499972,
      "v": 74
    },
    {
      "midi": 44,
      "hit": false,
      "t": 320002.83656249713,
      "d": 2285.351250000007,
      "v": 56
    },
    {
      "midi": 63,
      "hit": false,
      "t": 320002.83656249713,
      "d": 2285.351250000007,
      "v": 73
    },
    {
      "midi": 54,
      "hit": false,
      "t": 322411.2937499971,
      "d": 1098.4837499999558,
      "v": 60
    },
    {
      "midi": 57,
      "hit": false,
      "t": 322414.4503124971,
      "d": 1085.8574999999837,
      "v": 82
    },
    {
      "midi": 42,
      "hit": false,
      "t": 322414.4503124971,
      "d": 1167.9281249999767,
      "v": 73
    },
    {
      "midi": 64,
      "hit": false,
      "t": 322417.6068749971,
      "d": 1022.726250000007,
      "v": 82
    },
    {
      "midi": 60,
      "hit": false,
      "t": 322417.6068749971,
      "d": 1107.953437499993,
      "v": 73
    },
    {
      "midi": 60,
      "hit": false,
      "t": 323623.4137499971,
      "d": 1167.9281249999767,
      "v": 60
    },
    {
      "midi": 63,
      "hit": false,
      "t": 323629.7268749971,
      "d": 1161.6149999999907,
      "v": 64
    },
    {
      "midi": 56,
      "hit": false,
      "t": 323629.7268749971,
      "d": 1167.9281249999767,
      "v": 73
    },
    {
      "midi": 54,
      "hit": false,
      "t": 323629.7268749971,
      "d": 1183.7109375,
      "v": 73
    },
    {
      "midi": 44,
      "hit": false,
      "t": 323642.35312499705,
      "d": 1126.8928125000093,
      "v": 60
    },
    {
      "midi": 61,
      "hit": false,
      "t": 324841.8468749971,
      "d": 754.4184375000186,
      "v": 83
    },
    {
      "midi": 68,
      "hit": false,
      "t": 324841.8468749971,
      "d": 763.8881249999977,
      "v": 78
    },
    {
      "midi": 64,
      "hit": false,
      "t": 324841.8468749971,
      "d": 770.2012499999837,
      "v": 83
    },
    {
      "midi": 49,
      "hit": false,
      "t": 324841.8468749971,
      "d": 921.7162499999395,
      "v": 60
    },
    {
      "midi": 61,
      "hit": false,
      "t": 325750.93687499705,
      "d": 568.1812499999651,
      "v": 74
    },
    {
      "midi": 64,
      "hit": false,
      "t": 325750.93687499705,
      "d": 568.1812499999651,
      "v": 83
    },
    {
      "midi": 59,
      "hit": false,
      "t": 325754.09343749704,
      "d": 568.1812499999651,
      "v": 74
    },
    {
      "midi": 57,
      "hit": false,
      "t": 325754.09343749704,
      "d": 1388.8874999999534,
      "v": 70
    },
    {
      "midi": 45,
      "hit": false,
      "t": 325760.406562497,
      "d": 1505.680312499986,
      "v": 64
    },
    {
      "midi": 68,
      "hit": false,
      "t": 326360.153437497,
      "d": 858.585000000021,
      "v": 70
    },
    {
      "midi": 61,
      "hit": false,
      "t": 326363.30999999697,
      "d": 858.585000000021,
      "v": 83
    },
    {
      "midi": 64,
      "hit": false,
      "t": 326363.30999999697,
      "d": 858.585000000021,
      "v": 83
    },
    {
      "midi": 59,
      "hit": false,
      "t": 326366.46656249696,
      "d": 836.4890625000116,
      "v": 74
    },
    {
      "midi": 68,
      "hit": false,
      "t": 327269.243437497,
      "d": 792.297187499993,
      "v": 73
    },
    {
      "midi": 47,
      "hit": false,
      "t": 327269.243437497,
      "d": 2471.588437499886,
      "v": 64
    },
    {
      "midi": 63,
      "hit": false,
      "t": 327275.556562497,
      "d": 792.297187499993,
      "v": 91
    },
    {
      "midi": 59,
      "hit": false,
      "t": 327285.02624999697,
      "d": 776.5143750000279,
      "v": 91
    },
    {
      "midi": 66,
      "hit": false,
      "t": 328190.959687497,
      "d": 1439.392499999958,
      "v": 91
    },
    {
      "midi": 61,
      "hit": false,
      "t": 328190.959687497,
      "d": 1448.8621874999371,
      "v": 82
    },
    {
      "midi": 57,
      "hit": false,
      "t": 328200.429374997,
      "d": 1423.609687499993,
      "v": 91
    },
    {
      "midi": 56,
      "hit": false,
      "t": 329702.9531249969,
      "d": 568.1812499999651,
      "v": 64
    },
    {
      "midi": 59,
      "hit": false,
      "t": 329702.9531249969,
      "d": 568.1812499999651,
      "v": 82
    },
    {
      "midi": 63,
      "hit": false,
      "t": 329706.1096874969,
      "d": 568.1812499999651,
      "v": 64
    },
    {
      "midi": 66,
      "hit": false,
      "t": 329706.1096874969,
      "d": 568.1812499999651,
      "v": 64
    },
    {
      "midi": 44,
      "hit": false,
      "t": 329706.1096874969,
      "d": 2323.2299999999814,
      "v": 56
    },
    {
      "midi": 59,
      "hit": false,
      "t": 330309.01312499685,
      "d": 195.7068749999744,
      "v": 73
    },
    {
      "midi": 63,
      "hit": false,
      "t": 330309.01312499685,
      "d": 243.05531249998603,
      "v": 82
    },
    {
      "midi": 59,
      "hit": false,
      "t": 330599.41687499685,
      "d": 243.05531250004424,
      "v": 82
    },
    {
      "midi": 66,
      "hit": false,
      "t": 330615.1996874969,
      "d": 239.89874999999302,
      "v": 82
    },
    {
      "midi": 71,
      "hit": false,
      "t": 330618.35624999687,
      "d": 1445.7056250000023,
      "v": 82
    },
    {
      "midi": 59,
      "hit": false,
      "t": 330921.3862499969,
      "d": 1117.423124999972,
      "v": 73
    },
    {
      "midi": 63,
      "hit": false,
      "t": 330924.5428124969,
      "d": 1114.266562499979,
      "v": 91
    },
    {
      "midi": 45,
      "hit": false,
      "t": 332114.5668749969,
      "d": 2348.4824999999837,
      "v": 60
    },
    {
      "midi": 68,
      "hit": false,
      "t": 332130.3496874969,
      "d": 2200.1240624999627,
      "v": 64
    },
    {
      "midi": 61,
      "hit": false,
      "t": 332133.5062499969,
      "d": 2171.7149999999674,
      "v": 73
    },
    {
      "midi": 64,
      "hit": false,
      "t": 332136.6628124969,
      "d": 2140.149374999979,
      "v": 73
    },
    {
      "midi": 59,
      "hit": false,
      "t": 332136.6628124969,
      "d": 2146.462499999965,
      "v": 60
    },
    {
      "midi": 58,
      "hit": false,
      "t": 334538.80687499687,
      "d": 1117.423124999972,
      "v": 73
    },
    {
      "midi": 61,
      "hit": false,
      "t": 334538.80687499687,
      "d": 1117.423124999972,
      "v": 73
    },
    {
      "midi": 66,
      "hit": false,
      "t": 334541.96343749686,
      "d": 1029.039374999993,
      "v": 64
    },
    {
      "midi": 42,
      "hit": false,
      "t": 334548.27656249685,
      "d": 2206.437187499949,
      "v": 56
    },
    {
      "midi": 61,
      "hit": false,
      "t": 335744.6137499968,
      "d": 1145.8321874999674,
      "v": 56
    },
    {
      "midi": 58,
      "hit": false,
      "t": 335747.7703124968,
      "d": 1148.9887499999604,
      "v": 60
    },
    {
      "midi": 54,
      "hit": false,
      "t": 335754.0834374968,
      "d": 1148.9887499999604,
      "v": 64
    },
    {
      "midi": 64,
      "hit": false,
      "t": 335763.5531249968,
      "d": 1117.4231250000303,
      "v": 64
    },
    {
      "midi": 47,
      "hit": false,
      "t": 336959.89031249675,
      "d": 2171.7150000000256,
      "v": 64
    },
    {
      "midi": 59,
      "hit": false,
      "t": 336978.82968749676,
      "d": 467.17125000001397,
      "v": 64
    },
    {
      "midi": 63,
      "hit": false,
      "t": 336978.82968749676,
      "d": 505.04999999998836,
      "v": 60
    },
    {
      "midi": 66,
      "hit": false,
      "t": 336981.98624999676,
      "d": 2361.108750000014,
      "v": 64
    },
    {
      "midi": 59,
      "hit": false,
      "t": 337578.5765624968,
      "d": 473.484375,
      "v": 73
    },
    {
      "midi": 63,
      "hit": false,
      "t": 337578.5765624968,
      "d": 546.085312500014,
      "v": 82
    },
    {
      "midi": 57,
      "hit": false,
      "t": 338187.79312499677,
      "d": 1167.9281249999767,
      "v": 91
    },
    {
      "midi": 61,
      "hit": false,
      "t": 338187.79312499677,
      "d": 1174.2412499999627,
      "v": 82
    },
    {
      "midi": 54,
      "hit": false,
      "t": 339390.4434374967,
      "d": 2285.351250000007,
      "v": 64
    },
    {
      "midi": 60,
      "hit": false,
      "t": 339390.4434374967,
      "d": 2285.351250000007,
      "v": 74
    },
    {
      "midi": 56,
      "hit": false,
      "t": 339390.4434374967,
      "d": 2301.134062499972,
      "v": 74
    },
    {
      "midi": 44,
      "hit": false,
      "t": 339396.7565624967,
      "d": 2285.351250000007,
      "v": 56
    },
    {
      "midi": 63,
      "hit": false,
      "t": 339396.7565624967,
      "d": 2285.351250000007,
      "v": 73
    },
    {
      "midi": 54,
      "hit": false,
      "t": 341805.2137499967,
      "d": 1098.4837499999558,
      "v": 60
    },
    {
      "midi": 57,
      "hit": false,
      "t": 341808.37031249667,
      "d": 1085.8574999999837,
      "v": 82
    },
    {
      "midi": 42,
      "hit": false,
      "t": 341808.37031249667,
      "d": 1167.9281249999767,
      "v": 73
    },
    {
      "midi": 64,
      "hit": false,
      "t": 341811.52687499666,
      "d": 1022.726250000007,
      "v": 82
    },
    {
      "midi": 60,
      "hit": false,
      "t": 341811.52687499666,
      "d": 1107.953437499993,
      "v": 73
    },
    {
      "midi": 60,
      "hit": false,
      "t": 343017.3337499967,
      "d": 1167.9281249999767,
      "v": 60
    },
    {
      "midi": 63,
      "hit": false,
      "t": 343023.64687499666,
      "d": 1161.6149999999907,
      "v": 64
    },
    {
      "midi": 56,
      "hit": false,
      "t": 343023.64687499666,
      "d": 1167.9281249999767,
      "v": 73
    },
    {
      "midi": 54,
      "hit": false,
      "t": 343023.64687499666,
      "d": 1183.7109375,
      "v": 73
    },
    {
      "midi": 44,
      "hit": false,
      "t": 343036.27312499663,
      "d": 1126.8928125000093,
      "v": 60
    },
    {
      "midi": 61,
      "hit": false,
      "t": 344235.76687499665,
      "d": 754.4184375000186,
      "v": 73
    },
    {
      "midi": 68,
      "hit": false,
      "t": 344235.76687499665,
      "d": 763.8881249999977,
      "v": 68
    },
    {
      "midi": 64,
      "hit": false,
      "t": 344235.76687499665,
      "d": 770.2012499999837,
      "v": 73
    },
    {
      "midi": 49,
      "hit": false,
      "t": 344235.76687499665,
      "d": 921.7162499999395,
      "v": 60
    },
    {
      "midi": 61,
      "hit": false,
      "t": 345144.8568749966,
      "d": 568.1812499999651,
      "v": 72
    },
    {
      "midi": 64,
      "hit": false,
      "t": 345144.8568749966,
      "d": 568.1812499999651,
      "v": 79
    },
    {
      "midi": 59,
      "hit": false,
      "t": 345148.0134374966,
      "d": 568.1812499999651,
      "v": 72
    },
    {
      "midi": 57,
      "hit": false,
      "t": 345148.0134374966,
      "d": 1388.8874999999534,
      "v": 60
    },
    {
      "midi": 45,
      "hit": false,
      "t": 345154.3265624966,
      "d": 1505.680312499986,
      "v": 64
    },
    {
      "midi": 71,
      "hit": false,
      "t": 345754.07343749655,
      "d": 858.585000000021,
      "v": 60
    },
    {
      "midi": 61,
      "hit": false,
      "t": 345757.22999999655,
      "d": 858.585000000021,
      "v": 77
    },
    {
      "midi": 64,
      "hit": false,
      "t": 345757.22999999655,
      "d": 858.585000000021,
      "v": 80
    },
    {
      "midi": 59,
      "hit": false,
      "t": 345760.38656249654,
      "d": 836.4890625000116,
      "v": 78
    },
    {
      "midi": 47,
      "hit": false,
      "t": 346663.1634374966,
      "d": 2471.588437499944,
      "v": 64
    },
    {
      "midi": 68,
      "hit": false,
      "t": 346675.78968749655,
      "d": 716.539687499986,
      "v": 60
    },
    {
      "midi": 59,
      "hit": false,
      "t": 346675.78968749655,
      "d": 719.696249999979,
      "v": 73
    },
    {
      "midi": 63,
      "hit": false,
      "t": 346675.78968749655,
      "d": 735.4790625000023,
      "v": 73
    },
    {
      "midi": 71,
      "hit": false,
      "t": 347572.25343749655,
      "d": 899.6203124999884,
      "v": 73
    },
    {
      "midi": 63,
      "hit": false,
      "t": 347572.25343749655,
      "d": 1420.453125,
      "v": 73
    },
    {
      "midi": 66,
      "hit": false,
      "t": 347578.56656249653,
      "d": 1385.7309375000186,
      "v": 73
    },
    {
      "midi": 57,
      "hit": false,
      "t": 347578.56656249653,
      "d": 1388.8875000000116,
      "v": 82
    },
    {
      "midi": 68,
      "hit": false,
      "t": 348493.96968749654,
      "d": 514.5196875000256,
      "v": 73
    },
    {
      "midi": 56,
      "hit": false,
      "t": 349096.87312499655,
      "d": 568.1812499999651,
      "v": 64
    },
    {
      "midi": 59,
      "hit": false,
      "t": 349096.87312499655,
      "d": 568.1812499999651,
      "v": 82
    },
    {
      "midi": 63,
      "hit": false,
      "t": 349100.02968749654,
      "d": 568.1812499999651,
      "v": 64
    },
    {
      "midi": 66,
      "hit": false,
      "t": 349100.02968749654,
      "d": 568.1812499999651,
      "v": 64
    },
    {
      "midi": 44,
      "hit": false,
      "t": 349100.02968749654,
      "d": 2323.2299999999814,
      "v": 56
    },
    {
      "midi": 59,
      "hit": false,
      "t": 349702.9331249965,
      "d": 195.7068749999744,
      "v": 73
    },
    {
      "midi": 63,
      "hit": false,
      "t": 349702.9331249965,
      "d": 243.05531249998603,
      "v": 82
    },
    {
      "midi": 59,
      "hit": false,
      "t": 349993.3368749965,
      "d": 243.05531250004424,
      "v": 82
    },
    {
      "midi": 66,
      "hit": false,
      "t": 350009.1196874965,
      "d": 239.89874999999302,
      "v": 82
    },
    {
      "midi": 71,
      "hit": false,
      "t": 350012.2762499965,
      "d": 1445.7056250000023,
      "v": 82
    },
    {
      "midi": 59,
      "hit": false,
      "t": 350315.30624999653,
      "d": 1117.423124999972,
      "v": 73
    },
    {
      "midi": 63,
      "hit": false,
      "t": 350318.4628124965,
      "d": 1114.266562499979,
      "v": 91
    },
    {
      "midi": 45,
      "hit": false,
      "t": 351508.4868749965,
      "d": 2348.4824999998673,
      "v": 60
    },
    {
      "midi": 64,
      "hit": false,
      "t": 351517.9565624965,
      "d": 233.58562499994878,
      "v": 80
    },
    {
      "midi": 68,
      "hit": false,
      "t": 351521.1131249965,
      "d": 205.17656249995343,
      "v": 59
    },
    {
      "midi": 61,
      "hit": false,
      "t": 351521.1131249965,
      "d": 224.11593749996973,
      "v": 71
    },
    {
      "midi": 57,
      "hit": false,
      "t": 351527.42624999647,
      "d": 189.39374999998836,
      "v": 80
    },
    {
      "midi": 68,
      "hit": false,
      "t": 351814.6734374964,
      "d": 214.6462499999907,
      "v": 55
    },
    {
      "midi": 64,
      "hit": false,
      "t": 351814.6734374964,
      "d": 230.42906250001397,
      "v": 67
    },
    {
      "midi": 61,
      "hit": false,
      "t": 351814.6734374964,
      "d": 249.36843750003027,
      "v": 67
    },
    {
      "midi": 57,
      "hit": false,
      "t": 351824.1431249964,
      "d": 205.17656250001164,
      "v": 71
    },
    {
      "midi": 57,
      "hit": false,
      "t": 352108.23374999646,
      "d": 243.05531249998603,
      "v": 64
    },
    {
      "midi": 66,
      "hit": false,
      "t": 352111.39031249646,
      "d": 249.36843749997206,
      "v": 71
    },
    {
      "midi": 61,
      "hit": false,
      "t": 352111.39031249646,
      "d": 1732.9528124999488,
      "v": 65
    },
    {
      "midi": 57,
      "hit": false,
      "t": 352417.5768749964,
      "d": 1401.5137499999837,
      "v": 73
    },
    {
      "midi": 64,
      "hit": false,
      "t": 352420.7334374964,
      "d": 1398.3571874999907,
      "v": 91
    },
    {
      "midi": 58,
      "hit": false,
      "t": 353932.7268749964,
      "d": 1117.423124999972,
      "v": 83
    },
    {
      "midi": 61,
      "hit": false,
      "t": 353932.7268749964,
      "d": 1117.423124999972,
      "v": 83
    },
    {
      "midi": 66,
      "hit": false,
      "t": 353935.8834374964,
      "d": 1029.039374999993,
      "v": 74
    },
    {
      "midi": 42,
      "hit": false,
      "t": 353942.19656249636,
      "d": 2206.437187499949,
      "v": 56
    },
    {
      "midi": 61,
      "hit": false,
      "t": 355138.53374999634,
      "d": 1145.8321874999674,
      "v": 66
    },
    {
      "midi": 58,
      "hit": false,
      "t": 355141.6903124963,
      "d": 1148.9887499999604,
      "v": 70
    },
    {
      "midi": 54,
      "hit": false,
      "t": 355148.0034374963,
      "d": 1148.9887499999604,
      "v": 74
    },
    {
      "midi": 64,
      "hit": false,
      "t": 355157.4731249963,
      "d": 1117.4231250000303,
      "v": 74
    },
    {
      "midi": 59,
      "hit": false,
      "t": 356350.6537499963,
      "d": 508.2065624999814,
      "v": 82
    },
    {
      "midi": 63,
      "hit": false,
      "t": 356350.6537499963,
      "d": 514.5196874999674,
      "v": 91
    },
    {
      "midi": 68,
      "hit": false,
      "t": 356350.6537499963,
      "d": 549.2418749999488,
      "v": 64
    },
    {
      "midi": 47,
      "hit": false,
      "t": 356353.81031249627,
      "d": 2171.714999999909,
      "v": 64
    },
    {
      "midi": 59,
      "hit": false,
      "t": 356937.7743749962,
      "d": 239.89874999999302,
      "v": 64
    },
    {
      "midi": 66,
      "hit": false,
      "t": 356947.2440624962,
      "d": 255.6815625000163,
      "v": 73
    },
    {
      "midi": 63,
      "hit": false,
      "t": 356947.2440624962,
      "d": 261.9946875000023,
      "v": 73
    },
    {
      "midi": 63,
      "hit": false,
      "t": 357256.5871874962,
      "d": 271.4643749999814,
      "v": 91
    },
    {
      "midi": 71,
      "hit": false,
      "t": 357262.9003124962,
      "d": 252.52500000002328,
      "v": 64
    },
    {
      "midi": 59,
      "hit": false,
      "t": 357262.9003124962,
      "d": 265.15124999999534,
      "v": 73
    },
    {
      "midi": 57,
      "hit": false,
      "t": 357581.71312499617,
      "d": 1167.928125000035,
      "v": 91
    },
    {
      "midi": 61,
      "hit": false,
      "t": 357581.71312499617,
      "d": 1174.241250000021,
      "v": 82
    },
    {
      "midi": 54,
      "hit": false,
      "t": 358784.3634374962,
      "d": 2285.351250000007,
      "v": 64
    },
    {
      "midi": 60,
      "hit": false,
      "t": 358784.3634374962,
      "d": 2285.351250000007,
      "v": 74
    },
    {
      "midi": 56,
      "hit": false,
      "t": 358784.3634374962,
      "d": 2301.134062499972,
      "v": 74
    },
    {
      "midi": 44,
      "hit": false,
      "t": 358790.67656249617,
      "d": 2285.351250000007,
      "v": 56
    },
    {
      "midi": 63,
      "hit": false,
      "t": 358790.67656249617,
      "d": 2285.351250000007,
      "v": 73
    },
    {
      "midi": 54,
      "hit": false,
      "t": 361199.13374999614,
      "d": 1098.4837499999558,
      "v": 60
    },
    {
      "midi": 57,
      "hit": false,
      "t": 361202.29031249613,
      "d": 1085.8574999999837,
      "v": 82
    },
    {
      "midi": 42,
      "hit": false,
      "t": 361202.29031249613,
      "d": 1167.9281249999767,
      "v": 73
    },
    {
      "midi": 64,
      "hit": false,
      "t": 361205.4468749961,
      "d": 1022.726250000007,
      "v": 82
    },
    {
      "midi": 60,
      "hit": false,
      "t": 361205.4468749961,
      "d": 1107.953437499993,
      "v": 73
    },
    {
      "midi": 60,
      "hit": false,
      "t": 362411.25374999613,
      "d": 1167.9281249999767,
      "v": 68
    },
    {
      "midi": 63,
      "hit": false,
      "t": 362417.5668749961,
      "d": 1161.6149999999907,
      "v": 72
    },
    {
      "midi": 56,
      "hit": false,
      "t": 362417.5668749961,
      "d": 1167.9281249999767,
      "v": 81
    },
    {
      "midi": 54,
      "hit": false,
      "t": 362417.5668749961,
      "d": 1183.7109375,
      "v": 81
    },
    {
      "midi": 44,
      "hit": false,
      "t": 362430.1931249961,
      "d": 1126.8928125000093,
      "v": 60
    },
    {
      "midi": 68,
      "hit": false,
      "t": 363629.6868749961,
      "d": 839.6456249999464,
      "v": 60
    },
    {
      "midi": 61,
      "hit": false,
      "t": 363632.8434374961,
      "d": 823.8628124999814,
      "v": 82
    },
    {
      "midi": 64,
      "hit": false,
      "t": 363632.8434374961,
      "d": 839.6456249999464,
      "v": 82
    },
    {
      "midi": 59,
      "hit": false,
      "t": 363642.3131249961,
      "d": 808.0800000000163,
      "v": 91
    },
    {
      "midi": 66,
      "hit": false,
      "t": 364541.9334374961,
      "d": 1483.5843749999767,
      "v": 64
    },
    {
      "midi": 57,
      "hit": false,
      "t": 364551.40312499605,
      "d": 1445.7056250000023,
      "v": 82
    },
    {
      "midi": 64,
      "hit": false,
      "t": 364551.40312499605,
      "d": 1448.8621874999953,
      "v": 82
    },
    {
      "midi": 61,
      "hit": false,
      "t": 364557.71624999604,
      "d": 1452.0187499999884,
      "v": 82
    },
    {
      "midi": 63,
      "hit": false,
      "t": 366050.77031249605,
      "d": 849.1153124999837,
      "v": 91
    },
    {
      "midi": 59,
      "hit": false,
      "t": 366063.396562496,
      "d": 808.0800000000163,
      "v": 82
    },
    {
      "midi": 68,
      "hit": false,
      "t": 366063.396562496,
      "d": 814.3931250000023,
      "v": 73
    },
    {
      "midi": 66,
      "hit": false,
      "t": 366063.396562496,
      "d": 820.7062499999884,
      "v": 82
    },
    {
      "midi": 71,
      "hit": false,
      "t": 366959.860312496,
      "d": 624.9993749999558,
      "v": 91
    },
    {
      "midi": 57,
      "hit": false,
      "t": 366972.486562496,
      "d": 558.711562499986,
      "v": 73
    },
    {
      "midi": 66,
      "hit": false,
      "t": 366978.799687496,
      "d": 669.1912499999744,
      "v": 91
    },
    {
      "midi": 63,
      "hit": false,
      "t": 366978.799687496,
      "d": 729.1659374999581,
      "v": 91
    },
    {
      "midi": 57,
      "hit": false,
      "t": 367616.42531249597,
      "d": 530.3024999999907,
      "v": 73
    },
    {
      "midi": 63,
      "hit": false,
      "t": 367862.63718749594,
      "d": 593.4337500000256,
      "v": 82
    },
    {
      "midi": 68,
      "hit": false,
      "t": 367878.41999999597,
      "d": 549.241875000007,
      "v": 91
    },
    {
      "midi": 57,
      "hit": false,
      "t": 368187.763124996,
      "d": 334.5956249999581,
      "v": 84
    },
    {
      "midi": 71,
      "hit": false,
      "t": 368487.63656249596,
      "d": 552.3984374999418,
      "v": 73
    },
    {
      "midi": 63,
      "hit": false,
      "t": 368490.79312499595,
      "d": 536.6156249999767,
      "v": 82
    },
    {
      "midi": 66,
      "hit": false,
      "t": 368490.79312499595,
      "d": 546.0853124999558,
      "v": 82
    },
    {
      "midi": 59,
      "hit": false,
      "t": 368490.79312499595,
      "d": 552.3984374999418,
      "v": 73
    },
    {
      "midi": 59,
      "hit": false,
      "t": 369093.6965624959,
      "d": 609.2165624999325,
      "v": 82
    },
    {
      "midi": 63,
      "hit": false,
      "t": 369103.1662499959,
      "d": 527.1459374999977,
      "v": 91
    },
    {
      "midi": 68,
      "hit": false,
      "t": 369103.1662499959,
      "d": 574.4943749999511,
      "v": 82
    },
    {
      "midi": 71,
      "hit": false,
      "t": 369658.72124999587,
      "d": 328.28249999997206,
      "v": 82
    },
    {
      "midi": 66,
      "hit": false,
      "t": 369668.19093749585,
      "d": 325.12593749997905,
      "v": 82
    },
    {
      "midi": 63,
      "hit": false,
      "t": 369668.19093749585,
      "d": 347.22187499998836,
      "v": 73
    },
    {
      "midi": 59,
      "hit": false,
      "t": 369996.4734374958,
      "d": 309.34312500001397,
      "v": 73
    },
    {
      "midi": 63,
      "hit": false,
      "t": 370286.8771874958,
      "d": 321.96937499998603,
      "v": 91
    },
    {
      "midi": 66,
      "hit": false,
      "t": 370286.8771874958,
      "d": 552.3984375,
      "v": 91
    },
    {
      "midi": 71,
      "hit": false,
      "t": 370286.8771874958,
      "d": 583.9640624999884,
      "v": 82
    },
    {
      "midi": 59,
      "hit": false,
      "t": 370580.4374999958,
      "d": 299.8734374999767,
      "v": 91
    },
    {
      "midi": 64,
      "hit": false,
      "t": 370892.93718749576,
      "d": 694.4437499999767,
      "v": 82
    },
    {
      "midi": 56,
      "hit": false,
      "t": 370896.09374999575,
      "d": 735.4790625000023,
      "v": 91
    },
    {
      "midi": 61,
      "hit": false,
      "t": 370896.09374999575,
      "d": 748.1053124999744,
      "v": 82
    },
    {
      "midi": 59,
      "hit": false,
      "t": 370899.25031249574,
      "d": 703.913437500014,
      "v": 91
    },
    {
      "midi": 64,
      "hit": false,
      "t": 371805.1837499957,
      "d": 1439.392499999958,
      "v": 82
    },
    {
      "midi": 56,
      "hit": false,
      "t": 371808.3403124957,
      "d": 1439.392499999958,
      "v": 91
    },
    {
      "midi": 61,
      "hit": false,
      "t": 371808.3403124957,
      "d": 1448.8621874999371,
      "v": 82
    },
    {
      "midi": 59,
      "hit": false,
      "t": 371811.4968749957,
      "d": 1429.922812499979,
      "v": 91
    },
    {
      "midi": 66,
      "hit": false,
      "t": 373320.3337499956,
      "d": 1000.6303124999977,
      "v": 64
    },
    {
      "midi": 58,
      "hit": false,
      "t": 373320.3337499956,
      "d": 1047.9787500000093,
      "v": 73
    },
    {
      "midi": 61,
      "hit": false,
      "t": 373323.4903124956,
      "d": 1029.039374999993,
      "v": 73
    },
    {
      "midi": 54,
      "hit": false,
      "t": 373326.6468749956,
      "d": 732.3225000000093,
      "v": 91
    },
    {
      "midi": 54,
      "hit": false,
      "t": 374245.2065624956,
      "d": 277.7775000000256,
      "v": 91
    },
    {
      "midi": 66,
      "hit": false,
      "t": 374548.23656249564,
      "d": 1101.640312500007,
      "v": 82
    },
    {
      "midi": 58,
      "hit": false,
      "t": 374548.23656249564,
      "d": 1111.109999999986,
      "v": 73
    },
    {
      "midi": 61,
      "hit": false,
      "t": 374554.54968749563,
      "d": 1095.327187500021,
      "v": 82
    },
    {
      "midi": 52,
      "hit": false,
      "t": 374554.54968749563,
      "d": 1101.640312500007,
      "v": 91
    },
    {
      "midi": 61,
      "hit": false,
      "t": 375744.5737499956,
      "d": 902.7768749999814,
      "v": 84
    },
    {
      "midi": 63,
      "hit": false,
      "t": 375744.5737499956,
      "d": 1186.867499999993,
      "v": 91
    },
    {
      "midi": 59,
      "hit": false,
      "t": 375747.7303124956,
      "d": 811.2365625000093,
      "v": 73
    },
    {
      "midi": 66,
      "hit": false,
      "t": 375750.8868749956,
      "d": 1161.6149999999907,
      "v": 82
    },
    {
      "midi": 59,
      "hit": false,
      "t": 376659.97687499557,
      "d": 233.58562500000698,
      "v": 82
    },
    {
      "midi": 61,
      "hit": false,
      "t": 376972.47656249563,
      "d": 1089.0140624999767,
      "v": 100
    },
    {
      "midi": 57,
      "hit": false,
      "t": 376978.7896874956,
      "d": 1038.509062499972,
      "v": 82
    },
    {
      "midi": 66,
      "hit": false,
      "t": 376978.7896874956,
      "d": 1060.6049999999814,
      "v": 91
    },
    {
      "midi": 56,
      "hit": false,
      "t": 378194.0662499956,
      "d": 707.070000000007,
      "v": 82
    },
    {
      "midi": 54,
      "hit": false,
      "t": 378197.2228124956,
      "d": 684.9740624999977,
      "v": 73
    },
    {
      "midi": 60,
      "hit": false,
      "t": 378200.3793749956,
      "d": 675.5043750000186,
      "v": 73
    },
    {
      "midi": 63,
      "hit": false,
      "t": 378200.3793749956,
      "d": 681.8175000000047,
      "v": 73
    },
    {
      "midi": 60,
      "hit": false,
      "t": 379099.99968749564,
      "d": 1439.392499999958,
      "v": 91
    },
    {
      "midi": 54,
      "hit": false,
      "t": 379103.15624999563,
      "d": 1426.766249999986,
      "v": 60
    },
    {
      "midi": 63,
      "hit": false,
      "t": 379103.15624999563,
      "d": 1439.392499999958,
      "v": 64
    },
    {
      "midi": 56,
      "hit": false,
      "t": 379106.3128124956,
      "d": 1423.609687499993,
      "v": 82
    },
    {
      "midi": 64,
      "hit": false,
      "t": 380611.9931249956,
      "d": 842.8021874999977,
      "v": 82
    },
    {
      "midi": 54,
      "hit": false,
      "t": 380611.9931249956,
      "d": 1117.423124999972,
      "v": 56
    },
    {
      "midi": 60,
      "hit": false,
      "t": 380611.9931249956,
      "d": 1123.736249999958,
      "v": 73
    },
    {
      "midi": 57,
      "hit": false,
      "t": 380611.9931249956,
      "d": 1126.892812499951,
      "v": 82
    },
    {
      "midi": 64,
      "hit": false,
      "t": 381511.6134374956,
      "d": 271.4643749999814,
      "v": 91
    },
    {
      "midi": 60,
      "hit": false,
      "t": 381817.79999999556,
      "d": 1174.2412499999627,
      "v": 91
    },
    {
      "midi": 56,
      "hit": false,
      "t": 381824.11312499555,
      "d": 1145.8321875000256,
      "v": 91
    },
    {
      "midi": 66,
      "hit": false,
      "t": 381824.11312499555,
      "d": 1155.3018750000047,
      "v": 91
    },
    {
      "midi": 63,
      "hit": false,
      "t": 381824.11312499555,
      "d": 1164.7715624999837,
      "v": 64
    },
    {
      "midi": 68,
      "hit": false,
      "t": 383010.980625,
      "d": 4797.97499999986,
      "v": 74
    },
    {
      "midi": 64,
      "hit": false,
      "t": 383014.1371875,
      "d": 4797.97499999986,
      "v": 82
    },
    {
      "midi": 59,
      "hit": false,
      "t": 383023.606875,
      "d": 4804.288124999846,
      "v": 82
    },
    {
      "midi": 61,
      "hit": false,
      "t": 383026.7634375,
      "d": 4797.97499999986,
      "v": 73
    },
    {
      "midi": 69,
      "hit": false,
      "t": 383370.82875,
      "d": 1976.0081249999348,
      "v": 40
    },
    {
      "midi": 73,
      "hit": false,
      "t": 383629.666875,
      "d": 1726.6396874999045,
      "v": 36
    },
    {
      "midi": 76,
      "hit": false,
      "t": 383894.818125,
      "d": 1414.1399999999558,
      "v": 56
    },
    {
      "midi": 80,
      "hit": false,
      "t": 384144.18656249996,
      "d": 1161.6149999999907,
      "v": 52
    },
    {
      "midi": 83,
      "hit": false,
      "t": 384434.59031249996,
      "d": 3399.6178124998696,
      "v": 29
    },
    {
      "midi": 88,
      "hit": false,
      "t": 384718.6809375,
      "d": 1893.9374999999418,
      "v": 56
    },
    {
      "midi": 92,
      "hit": false,
      "t": 385015.39781249996,
      "d": 946.9687499999418,
      "v": 56
    },
    {
      "midi": 95,
      "hit": false,
      "t": 385488.8821874999,
      "d": 2323.2299999999814,
      "v": 44
    },
    {
      "midi": 92,
      "hit": false,
      "t": 386113.8815624999,
      "d": 1701.3871874999604,
      "v": 52
    },
    {
      "midi": 88,
      "hit": false,
      "t": 386726.2546874999,
      "d": 1089.0140624999767,
      "v": 56
    },
    {
      "midi": 66,
      "hit": false,
      "t": 387865.7737499998,
      "d": 1770.8315624999814,
      "v": 64
    },
    {
      "midi": 68,
      "hit": false,
      "t": 387865.7737499998,
      "d": 1919.1899999999441,
      "v": 52
    },
    {
      "midi": 71,
      "hit": false,
      "t": 387875.2434374998,
      "d": 2209.593749999942,
      "v": 60
    },
    {
      "midi": 38,
      "hit": false,
      "t": 387881.5565624998,
      "d": 7256.937187500065,
      "v": 73
    },
    {
      "midi": 50,
      "hit": false,
      "t": 387887.86968749977,
      "d": 7234.841250000114,
      "v": 56
    },
    {
      "midi": 64,
      "hit": false,
      "t": 387894.18281249976,
      "d": 1565.655000000028,
      "v": 60
    },
    {
      "midi": 60,
      "hit": false,
      "t": 388339.25812499976,
      "d": 261.9946875000023,
      "v": 31
    },
    {
      "midi": 62,
      "hit": false,
      "t": 388598.09624999977,
      "d": 451.3884374999907,
      "v": 60
    },
    {
      "midi": 60,
      "hit": false,
      "t": 389024.23218749976,
      "d": 6066.913125000137,
      "v": 52
    },
    {
      "midi": 62,
      "hit": false,
      "t": 389283.07031249977,
      "d": 299.8734375000349,
      "v": 64
    },
    {
      "midi": 64,
      "hit": false,
      "t": 389481.9337499998,
      "d": 5618.6812500000815,
      "v": 56
    },
    {
      "midi": 66,
      "hit": false,
      "t": 389671.3274999998,
      "d": 5385.095625000133,
      "v": 64
    },
    {
      "midi": 68,
      "hit": false,
      "t": 389860.72124999977,
      "d": 5227.267500000133,
      "v": 56
    },
    {
      "midi": 69,
      "hit": false,
      "t": 390028.01906249975,
      "d": 142.04531249997672,
      "v": 73
    },
    {
      "midi": 71,
      "hit": false,
      "t": 390179.5340624997,
      "d": 4911.611250000191,
      "v": 82
    },
    {
      "midi": 72,
      "hit": false,
      "t": 390384.7106249997,
      "d": 271.4643749999814,
      "v": 52
    },
    {
      "midi": 74,
      "hit": false,
      "t": 390570.9478124997,
      "d": 211.48968749999767,
      "v": 48
    },
    {
      "midi": 76,
      "hit": false,
      "t": 390716.1496874997,
      "d": 183.08062500006054,
      "v": 64
    },
    {
      "midi": 78,
      "hit": false,
      "t": 390851.88187499973,
      "d": 157.828125,
      "v": 56
    },
    {
      "midi": 80,
      "hit": false,
      "t": 391016.0231249997,
      "d": 145.20187499996973,
      "v": 56
    },
    {
      "midi": 81,
      "hit": false,
      "t": 391154.9118749997,
      "d": 167.29781249997905,
      "v": 73
    },
    {
      "midi": 83,
      "hit": false,
      "t": 391271.7046874997,
      "d": 202.02000000001863,
      "v": 32
    },
    {
      "midi": 84,
      "hit": false,
      "t": 391391.6540624997,
      "d": 198.8634375000256,
      "v": 52
    },
    {
      "midi": 86,
      "hit": false,
      "t": 391521.0731249997,
      "d": 157.8281250000582,
      "v": 36
    },
    {
      "midi": 88,
      "hit": false,
      "t": 391609.45687499974,
      "d": 154.6715625000652,
      "v": 52
    },
    {
      "midi": 90,
      "hit": false,
      "t": 391723.0931249998,
      "d": 148.35843750002095,
      "v": 48
    },
    {
      "midi": 92,
      "hit": false,
      "t": 391861.9818749998,
      "d": 145.20187499996973,
      "v": 48
    },
    {
      "midi": 93,
      "hit": false,
      "t": 391985.0878124998,
      "d": 176.7675000000163,
      "v": 60
    },
    {
      "midi": 95,
      "hit": false,
      "t": 392082.9412499998,
      "d": 151.51500000001397,
      "v": 52
    },
    {
      "midi": 96,
      "hit": false,
      "t": 392168.1684374998,
      "d": 132.57562500005588,
      "v": 56
    },
    {
      "midi": 98,
      "hit": false,
      "t": 392250.23906249984,
      "d": 145.20187500002794,
      "v": 52
    },
    {
      "midi": 100,
      "hit": false,
      "t": 392329.15312499984,
      "d": 135.7321875000489,
      "v": 48
    },
    {
      "midi": 102,
      "hit": false,
      "t": 392439.6328124999,
      "d": 3472.218749999942,
      "v": 44
    },
    {
      "midi": 104,
      "hit": false,
      "t": 392528.01656249986,
      "d": 3472.218749999942,
      "v": 36
    },
    {
      "midi": 105,
      "hit": false,
      "t": 392603.77406249987,
      "d": 3472.218749999942,
      "v": 56
    },
    {
      "midi": 107,
      "hit": false,
      "t": 392726.8799999999,
      "d": 2398.9874999999884,
      "v": 64
    }
  ]
}