{
  "jsonPath": "Rock/Country Rock/Dr Hook/better-love-next-time.json",
  "path": "Rock\\Country Rock\\Dr Hook\\Better Love Next Time.mid",
  "name": "Better Love Next Time",
  "difficulty": "Advanced",
  "bpm": 108.99994368336243,
  "notes": [
    {
      "midi": 66,
      "hit": false,
      "t": 22.935791666666667,
      "d": 1422.0190833333334,
      "v": 52
    },
    {
      "midi": 73,
      "hit": false,
      "t": 27.52295,
      "d": 1403.67045,
      "v": 47
    },
    {
      "midi": 69,
      "hit": false,
      "t": 32.110108333333336,
      "d": 1399.0832916666668,
      "v": 57
    },
    {
      "midi": 61,
      "hit": false,
      "t": 2077.9827250000003,
      "d": 1651.3769999999995,
      "v": 57
    },
    {
      "midi": 64,
      "hit": false,
      "t": 2151.3772583333334,
      "d": 1610.0925749999997,
      "v": 40
    },
    {
      "midi": 68,
      "hit": false,
      "t": 2192.6616833333333,
      "d": 1577.9824666666664,
      "v": 74
    },
    {
      "midi": 71,
      "hit": false,
      "t": 3568.8091833333333,
      "d": 316.51392499999974,
      "v": 72
    },
    {
      "midi": 61,
      "hit": false,
      "t": 3977.0662749999997,
      "d": 188.07349166666654,
      "v": 14
    },
    {
      "midi": 64,
      "hit": false,
      "t": 3981.653433333333,
      "d": 59.63305833333334,
      "v": 52
    },
    {
      "midi": 68,
      "hit": false,
      "t": 3981.653433333333,
      "d": 151.37622499999998,
      "v": 69
    },
    {
      "midi": 66,
      "hit": false,
      "t": 4403.672,
      "d": 1541.2852000000003,
      "v": 60
    },
    {
      "midi": 62,
      "hit": false,
      "t": 4403.672,
      "d": 1573.3953083333336,
      "v": 66
    },
    {
      "midi": 69,
      "hit": false,
      "t": 4408.259158333333,
      "d": 1527.523725,
      "v": 69
    },
    {
      "midi": 61,
      "hit": false,
      "t": 6518.351991666666,
      "d": 1798.1660666666667,
      "v": 61
    },
    {
      "midi": 64,
      "hit": false,
      "t": 6573.3978916666665,
      "d": 1743.1201666666666,
      "v": 39
    },
    {
      "midi": 69,
      "hit": false,
      "t": 6642.205266666667,
      "d": 1866.973441666666,
      "v": 66
    },
    {
      "midi": 68,
      "hit": false,
      "t": 8261.472158333334,
      "d": 73.39453333333222,
      "v": 90
    },
    {
      "midi": 66,
      "hit": false,
      "t": 8793.582525,
      "d": 1729.3586916666682,
      "v": 63
    },
    {
      "midi": 69,
      "hit": false,
      "t": 8798.169683333334,
      "d": 1614.6797333333343,
      "v": 65
    },
    {
      "midi": 61,
      "hit": false,
      "t": 8798.169683333334,
      "d": 1752.294483333335,
      "v": 60
    },
    {
      "midi": 69,
      "hit": false,
      "t": 10477.069633333334,
      "d": 545.871841666667,
      "v": 88
    },
    {
      "midi": 66,
      "hit": false,
      "t": 10665.143125000002,
      "d": 233.94507499999963,
      "v": 74
    },
    {
      "midi": 61,
      "hit": false,
      "t": 10834.867983333335,
      "d": 1756.881641666665,
      "v": 69
    },
    {
      "midi": 64,
      "hit": false,
      "t": 11041.290108333335,
      "d": 1660.551316666666,
      "v": 74
    },
    {
      "midi": 68,
      "hit": false,
      "t": 11045.877266666668,
      "d": 1417.431924999999,
      "v": 55
    },
    {
      "midi": 73,
      "hit": false,
      "t": 12399.088975,
      "d": 110.09180000000015,
      "v": 115
    },
    {
      "midi": 64,
      "hit": false,
      "t": 12775.235958333335,
      "d": 82.56884999999966,
      "v": 61
    },
    {
      "midi": 68,
      "hit": false,
      "t": 12775.235958333335,
      "d": 160.5505416666656,
      "v": 97
    },
    {
      "midi": 61,
      "hit": false,
      "t": 12788.997433333334,
      "d": 174.31201666666675,
      "v": 44
    },
    {
      "midi": 66,
      "hit": false,
      "t": 13224.777475,
      "d": 1518.3494083333335,
      "v": 63
    },
    {
      "midi": 69,
      "hit": false,
      "t": 13229.364633333334,
      "d": 1711.0100583333333,
      "v": 79
    },
    {
      "midi": 62,
      "hit": false,
      "t": 13233.951791666668,
      "d": 1596.3310999999994,
      "v": 72
    },
    {
      "midi": 69,
      "hit": false,
      "t": 15412.852,
      "d": 674.312275000002,
      "v": 86
    },
    {
      "midi": 64,
      "hit": false,
      "t": 15422.026316666668,
      "d": 637.6150083333341,
      "v": 119
    },
    {
      "midi": 66,
      "hit": false,
      "t": 15422.026316666668,
      "d": 669.7251166666683,
      "v": 115
    },
    {
      "midi": 62,
      "hit": false,
      "t": 15422.026316666668,
      "d": 674.312275000002,
      "v": 94
    },
    {
      "midi": 71,
      "hit": false,
      "t": 16522.94431666667,
      "d": 440.36719999999696,
      "v": 63
    },
    {
      "midi": 65,
      "hit": false,
      "t": 16522.94431666667,
      "d": 467.89014999999563,
      "v": 56
    },
    {
      "midi": 68,
      "hit": false,
      "t": 16522.94431666667,
      "d": 495.4130999999943,
      "v": 55
    },
    {
      "midi": 62,
      "hit": false,
      "t": 16527.531475000003,
      "d": 490.8259416666624,
      "v": 54
    },
    {
      "midi": 69,
      "hit": false,
      "t": 17619.275158333334,
      "d": 1233.9455916666666,
      "v": 61
    },
    {
      "midi": 61,
      "hit": false,
      "t": 17633.036633333333,
      "d": 1201.8354833333324,
      "v": 65
    },
    {
      "midi": 64,
      "hit": false,
      "t": 17633.036633333333,
      "d": 1233.9455916666666,
      "v": 53
    },
    {
      "midi": 64,
      "hit": false,
      "t": 18990.8355,
      "d": 55.045900000000984,
      "v": 61
    },
    {
      "midi": 61,
      "hit": false,
      "t": 18990.8355,
      "d": 64.22021666666842,
      "v": 69
    },
    {
      "midi": 69,
      "hit": false,
      "t": 18990.8355,
      "d": 96.33032500000263,
      "v": 68
    },
    {
      "midi": 69,
      "hit": false,
      "t": 19422.028383333338,
      "d": 284.4038166666651,
      "v": 68
    },
    {
      "midi": 61,
      "hit": false,
      "t": 19431.202700000005,
      "d": 252.29370833333087,
      "v": 62
    },
    {
      "midi": 64,
      "hit": false,
      "t": 19431.202700000005,
      "d": 275.22949999999764,
      "v": 59
    },
    {
      "midi": 66,
      "hit": false,
      "t": 19816.524,
      "d": 1857.7991250000014,
      "v": 56
    },
    {
      "midi": 69,
      "hit": false,
      "t": 19821.111158333333,
      "d": 1793.578908333333,
      "v": 52
    },
    {
      "midi": 61,
      "hit": false,
      "t": 19821.111158333333,
      "d": 1834.8633333333346,
      "v": 58
    },
    {
      "midi": 68,
      "hit": false,
      "t": 22041.29579166667,
      "d": 1568.8081500000008,
      "v": 94
    },
    {
      "midi": 64,
      "hit": false,
      "t": 22041.29579166667,
      "d": 1798.1660666666685,
      "v": 94
    },
    {
      "midi": 61,
      "hit": false,
      "t": 22041.29579166667,
      "d": 2119.2671500000033,
      "v": 94
    },
    {
      "midi": 73,
      "hit": false,
      "t": 23399.09465833334,
      "d": 399.08277499999895,
      "v": 115
    },
    {
      "midi": 68,
      "hit": false,
      "t": 23798.177433333338,
      "d": 1412.8447666666652,
      "v": 115
    },
    {
      "midi": 61,
      "hit": false,
      "t": 24211.02168333334,
      "d": 853.2114499999952,
      "v": 53
    },
    {
      "midi": 64,
      "hit": false,
      "t": 24215.60884166667,
      "d": 1188.074008333333,
      "v": 92
    },
    {
      "midi": 73,
      "hit": false,
      "t": 25339.462633333336,
      "d": 128.44043333333684,
      "v": 79
    },
    {
      "midi": 68,
      "hit": false,
      "t": 25348.636950000004,
      "d": 41.28442500000165,
      "v": 30
    },
    {
      "midi": 69,
      "hit": false,
      "t": 26412.85768333334,
      "d": 1279.8171750000001,
      "v": 66
    },
    {
      "midi": 66,
      "hit": false,
      "t": 26422.032000000007,
      "d": 1233.9455916666666,
      "v": 53
    },
    {
      "midi": 62,
      "hit": false,
      "t": 26426.61915833334,
      "d": 1178.8996916666692,
      "v": 69
    },
    {
      "midi": 62,
      "hit": false,
      "t": 27807.353816666673,
      "d": 284.4038166666651,
      "v": 88
    },
    {
      "midi": 66,
      "hit": false,
      "t": 28137.62921666667,
      "d": 142.20190833333254,
      "v": 37
    },
    {
      "midi": 69,
      "hit": false,
      "t": 28243.133858333338,
      "d": 256.8808666666664,
      "v": 127
    },
    {
      "midi": 68,
      "hit": false,
      "t": 28665.152425000004,
      "d": 1743.1201666666639,
      "v": 51
    },
    {
      "midi": 62,
      "hit": false,
      "t": 28669.739583333336,
      "d": 1211.0097999999998,
      "v": 50
    },
    {
      "midi": 64,
      "hit": false,
      "t": 29500.015241666668,
      "d": 793.578391666666,
      "v": 41
    },
    {
      "midi": 71,
      "hit": false,
      "t": 30013.776975,
      "d": 302.75244999999995,
      "v": 70
    },
    {
      "midi": 62,
      "hit": false,
      "t": 30032.125608333336,
      "d": 178.89917499999865,
      "v": 30
    },
    {
      "midi": 62,
      "hit": false,
      "t": 30334.878058333336,
      "d": 68.80737500000032,
      "v": 28
    },
    {
      "midi": 64,
      "hit": false,
      "t": 30802.768208333335,
      "d": 1715.5972166666688,
      "v": 78
    },
    {
      "midi": 69,
      "hit": false,
      "t": 30802.768208333335,
      "d": 1853.2119666666695,
      "v": 79
    },
    {
      "midi": 61,
      "hit": false,
      "t": 30811.942525000002,
      "d": 1779.8174333333336,
      "v": 86
    },
    {
      "midi": 69,
      "hit": false,
      "t": 33032.12715833334,
      "d": 1605.5054166666741,
      "v": 63
    },
    {
      "midi": 62,
      "hit": false,
      "t": 33036.71431666667,
      "d": 1243.119908333334,
      "v": 79
    },
    {
      "midi": 66,
      "hit": false,
      "t": 33036.71431666667,
      "d": 1399.0832916666695,
      "v": 88
    },
    {
      "midi": 62,
      "hit": false,
      "t": 34408.27465833334,
      "d": 119.26611666666577,
      "v": 92
    },
    {
      "midi": 66,
      "hit": false,
      "t": 34789.00880000001,
      "d": 82.5688500000033,
      "v": 84
    },
    {
      "midi": 69,
      "hit": false,
      "t": 35224.78884166668,
      "d": 1142.2024249999959,
      "v": 79
    },
    {
      "midi": 62,
      "hit": false,
      "t": 35233.96315833335,
      "d": 1729.3586916666682,
      "v": 63
    },
    {
      "midi": 64,
      "hit": false,
      "t": 35233.96315833335,
      "d": 1766.055958333338,
      "v": 61
    },
    {
      "midi": 68,
      "hit": false,
      "t": 36339.46831666668,
      "d": 683.4865916666677,
      "v": 78
    },
    {
      "midi": 61,
      "hit": false,
      "t": 37357.81746666668,
      "d": 1091.743683333334,
      "v": 59
    },
    {
      "midi": 64,
      "hit": false,
      "t": 37376.16610000002,
      "d": 1027.5234666666656,
      "v": 55
    },
    {
      "midi": 69,
      "hit": false,
      "t": 37435.79915833335,
      "d": 1050.459258333336,
      "v": 66
    },
    {
      "midi": 62,
      "hit": false,
      "t": 39908.27750000002,
      "d": 270.64234166666574,
      "v": 78
    },
    {
      "midi": 66,
      "hit": false,
      "t": 39908.27750000002,
      "d": 270.64234166666574,
      "v": 92
    },
    {
      "midi": 69,
      "hit": false,
      "t": 39908.27750000002,
      "d": 270.64234166666574,
      "v": 105
    },
    {
      "midi": 76,
      "hit": false,
      "t": 39908.27750000002,
      "d": 270.64234166666574,
      "v": 105
    },
    {
      "midi": 62,
      "hit": false,
      "t": 40321.12175000002,
      "d": 133.0275916666651,
      "v": 100
    },
    {
      "midi": 66,
      "hit": false,
      "t": 40321.12175000002,
      "d": 133.0275916666651,
      "v": 100
    },
    {
      "midi": 69,
      "hit": false,
      "t": 40321.12175000002,
      "d": 133.0275916666651,
      "v": 100
    },
    {
      "midi": 76,
      "hit": false,
      "t": 40321.12175000002,
      "d": 133.0275916666651,
      "v": 100
    },
    {
      "midi": 62,
      "hit": false,
      "t": 41009.195500000016,
      "d": 270.64234166666574,
      "v": 83
    },
    {
      "midi": 65,
      "hit": false,
      "t": 41009.195500000016,
      "d": 270.64234166666574,
      "v": 97
    },
    {
      "midi": 68,
      "hit": false,
      "t": 41009.195500000016,
      "d": 270.64234166666574,
      "v": 105
    },
    {
      "midi": 71,
      "hit": false,
      "t": 41009.195500000016,
      "d": 270.64234166666574,
      "v": 92
    },
    {
      "midi": 62,
      "hit": false,
      "t": 41284.42500000002,
      "d": 137.61475000000064,
      "v": 100
    },
    {
      "midi": 71,
      "hit": false,
      "t": 41284.42500000002,
      "d": 137.61475000000064,
      "v": 100
    },
    {
      "midi": 65,
      "hit": false,
      "t": 41422.03975000002,
      "d": 133.0275916666651,
      "v": 100
    },
    {
      "midi": 62,
      "hit": false,
      "t": 41422.03975000002,
      "d": 137.61475000000064,
      "v": 100
    },
    {
      "midi": 71,
      "hit": false,
      "t": 41422.03975000002,
      "d": 137.61475000000064,
      "v": 100
    },
    {
      "midi": 64,
      "hit": false,
      "t": 41853.232633333355,
      "d": 1646.7898416666576,
      "v": 75
    },
    {
      "midi": 69,
      "hit": false,
      "t": 41871.58126666669,
      "d": 1628.4412083333227,
      "v": 50
    },
    {
      "midi": 61,
      "hit": false,
      "t": 41885.34274166669,
      "d": 1591.7439416666602,
      "v": 75
    },
    {
      "midi": 64,
      "hit": false,
      "t": 44018.37136666668,
      "d": 1871.5606000000043,
      "v": 84
    },
    {
      "midi": 61,
      "hit": false,
      "t": 44022.95852500002,
      "d": 1977.0652416666708,
      "v": 69
    },
    {
      "midi": 68,
      "hit": false,
      "t": 44022.95852500002,
      "d": 2000.001033333334,
      "v": 99
    },
    {
      "midi": 69,
      "hit": false,
      "t": 46224.79452500002,
      "d": 2077.9827250000017,
      "v": 65
    },
    {
      "midi": 66,
      "hit": false,
      "t": 46229.381683333355,
      "d": 1894.4963916666675,
      "v": 53
    },
    {
      "midi": 62,
      "hit": false,
      "t": 46233.96884166669,
      "d": 1908.2578666666668,
      "v": 63
    },
    {
      "midi": 69,
      "hit": false,
      "t": 48463.327791666685,
      "d": 889.908716666665,
      "v": 57
    },
    {
      "midi": 64,
      "hit": false,
      "t": 48467.91495000002,
      "d": 876.1472416666656,
      "v": 83
    },
    {
      "midi": 62,
      "hit": false,
      "t": 48467.91495000002,
      "d": 894.4958749999932,
      "v": 70
    },
    {
      "midi": 71,
      "hit": false,
      "t": 49545.89715833335,
      "d": 568.8076333333374,
      "v": 49
    },
    {
      "midi": 68,
      "hit": false,
      "t": 49545.89715833335,
      "d": 697.2480666666743,
      "v": 48
    },
    {
      "midi": 65,
      "hit": false,
      "t": 49550.48431666668,
      "d": 591.7434250000006,
      "v": 65
    },
    {
      "midi": 62,
      "hit": false,
      "t": 49550.48431666668,
      "d": 628.4406916666703,
      "v": 59
    },
    {
      "midi": 69,
      "hit": false,
      "t": 50655.989475000024,
      "d": 1683.4871083333346,
      "v": 75
    },
    {
      "midi": 64,
      "hit": false,
      "t": 50660.57663333336,
      "d": 1756.8816416666668,
      "v": 86
    },
    {
      "midi": 61,
      "hit": false,
      "t": 50660.57663333336,
      "d": 1766.0559583333306,
      "v": 86
    },
    {
      "midi": 64,
      "hit": false,
      "t": 52839.47684166669,
      "d": 1743.1201666666675,
      "v": 94
    },
    {
      "midi": 61,
      "hit": false,
      "t": 52839.47684166669,
      "d": 1834.8633333333346,
      "v": 75
    },
    {
      "midi": 68,
      "hit": false,
      "t": 52844.06400000003,
      "d": 1848.624808333334,
      "v": 99
    },
    {
      "midi": 69,
      "hit": false,
      "t": 55004.615575000025,
      "d": 1619.2668916666662,
      "v": 66
    },
    {
      "midi": 62,
      "hit": false,
      "t": 55013.78989166669,
      "d": 1628.4412083333373,
      "v": 84
    },
    {
      "midi": 66,
      "hit": false,
      "t": 55013.78989166669,
      "d": 1798.1660666666721,
      "v": 94
    },
    {
      "midi": 62,
      "hit": false,
      "t": 57123.882725000025,
      "d": 738.5324916666577,
      "v": 54
    },
    {
      "midi": 52,
      "hit": false,
      "t": 57137.644200000024,
      "d": 761.4682833333281,
      "v": 40
    },
    {
      "midi": 66,
      "hit": false,
      "t": 57178.92862500002,
      "d": 665.1379583333255,
      "v": 41
    },
    {
      "midi": 69,
      "hit": false,
      "t": 57211.03873333336,
      "d": 591.7434249999933,
      "v": 39
    },
    {
      "midi": 74,
      "hit": false,
      "t": 57270.67179166669,
      "d": 477.06446666666307,
      "v": 83
    },
    {
      "midi": 76,
      "hit": false,
      "t": 57270.67179166669,
      "d": 486.23878333332686,
      "v": 88
    },
    {
      "midi": 68,
      "hit": false,
      "t": 58348.65400000002,
      "d": 811.9270249999972,
      "v": 90
    },
    {
      "midi": 71,
      "hit": false,
      "t": 58353.24115833335,
      "d": 747.7068083333288,
      "v": 90
    },
    {
      "midi": 65,
      "hit": false,
      "t": 58353.24115833335,
      "d": 766.0554416666637,
      "v": 57
    },
    {
      "midi": 62,
      "hit": false,
      "t": 58353.24115833335,
      "d": 793.5783916666624,
      "v": 79
    },
    {
      "midi": 64,
      "hit": false,
      "t": 58362.415475000016,
      "d": 13.761474999999336,
      "v": 48
    },
    {
      "midi": 64,
      "hit": false,
      "t": 59500.03074166668,
      "d": 1711.0100583333333,
      "v": 63
    },
    {
      "midi": 69,
      "hit": false,
      "t": 59500.03074166668,
      "d": 1715.5972166666688,
      "v": 67
    },
    {
      "midi": 61,
      "hit": false,
      "t": 59504.61790000001,
      "d": 1697.248583333334,
      "v": 68
    },
    {
      "midi": 61,
      "hit": false,
      "t": 61642.23368333335,
      "d": 1637.615525000001,
      "v": 43
    },
    {
      "midi": 64,
      "hit": false,
      "t": 61642.23368333335,
      "d": 1683.4871083333346,
      "v": 48
    },
    {
      "midi": 68,
      "hit": false,
      "t": 61642.23368333335,
      "d": 1692.6614249999984,
      "v": 48
    },
    {
      "midi": 64,
      "hit": false,
      "t": 63440.39975000001,
      "d": 123.8532750000013,
      "v": 64
    },
    {
      "midi": 61,
      "hit": false,
      "t": 63440.39975000001,
      "d": 137.61475000000064,
      "v": 66
    },
    {
      "midi": 68,
      "hit": false,
      "t": 63440.39975000001,
      "d": 233.94507500000327,
      "v": 59
    },
    {
      "midi": 69,
      "hit": false,
      "t": 63857.83115833335,
      "d": 1261.468541666669,
      "v": 58
    },
    {
      "midi": 66,
      "hit": false,
      "t": 63867.00547500001,
      "d": 1463.303508333338,
      "v": 54
    },
    {
      "midi": 62,
      "hit": false,
      "t": 63871.59263333335,
      "d": 1743.1201666666748,
      "v": 56
    },
    {
      "midi": 74,
      "hit": false,
      "t": 64949.57484166668,
      "d": 573.394791666673,
      "v": 94
    },
    {
      "midi": 69,
      "hit": false,
      "t": 65247.740133333355,
      "d": 509.1745750000118,
      "v": 69
    },
    {
      "midi": 66,
      "hit": false,
      "t": 65518.38247500002,
      "d": 284.40381666667236,
      "v": 54
    },
    {
      "midi": 62,
      "hit": false,
      "t": 65747.7403916667,
      "d": 215.5964416666684,
      "v": 55
    },
    {
      "midi": 64,
      "hit": false,
      "t": 66100.95158333336,
      "d": 628.4406916666776,
      "v": 59
    },
    {
      "midi": 69,
      "hit": false,
      "t": 66100.95158333336,
      "d": 674.3122750000039,
      "v": 64
    },
    {
      "midi": 62,
      "hit": false,
      "t": 66100.95158333336,
      "d": 733.9453333333367,
      "v": 73
    },
    {
      "midi": 66,
      "hit": false,
      "t": 66105.53874166669,
      "d": 669.7251166666683,
      "v": 66
    },
    {
      "midi": 62,
      "hit": false,
      "t": 67110.1264166667,
      "d": 582.5691083333368,
      "v": 53
    },
    {
      "midi": 65,
      "hit": false,
      "t": 67137.6493666667,
      "d": 527.5232083333394,
      "v": 57
    },
    {
      "midi": 68,
      "hit": false,
      "t": 67178.9337916667,
      "d": 536.697524999996,
      "v": 32
    },
    {
      "midi": 71,
      "hit": false,
      "t": 67233.9796916667,
      "d": 399.0827750000026,
      "v": 99
    },
    {
      "midi": 61,
      "hit": false,
      "t": 68206.45725833336,
      "d": 1100.9180000000051,
      "v": 63
    },
    {
      "midi": 64,
      "hit": false,
      "t": 68233.98020833336,
      "d": 2087.15704166668,
      "v": 49
    },
    {
      "midi": 69,
      "hit": false,
      "t": 68298.20042500003,
      "d": 1380.734658333342,
      "v": 50
    },
    {
      "midi": 68,
      "hit": false,
      "t": 68761.5034166667,
      "d": 192.66065000000526,
      "v": 25
    },
    {
      "midi": 61,
      "hit": false,
      "t": 69389.94410833337,
      "d": 330.2754000000132,
      "v": 47
    },
    {
      "midi": 71,
      "hit": false,
      "t": 69642.2378166667,
      "d": 261.4680250000092,
      "v": 88
    },
    {
      "midi": 61,
      "hit": false,
      "t": 69899.11868333338,
      "d": 215.5964416666684,
      "v": 60
    },
    {
      "midi": 69,
      "hit": false,
      "t": 70027.55911666671,
      "d": 220.18360000000393,
      "v": 88
    },
    {
      "midi": 61,
      "hit": false,
      "t": 70243.15555833338,
      "d": 59.63305833333288,
      "v": 28
    },
    {
      "midi": 68,
      "hit": false,
      "t": 70477.10063333338,
      "d": 1114.6794749999972,
      "v": 54
    },
    {
      "midi": 61,
      "hit": false,
      "t": 70481.68779166671,
      "d": 1045.8720999999932,
      "v": 29
    },
    {
      "midi": 64,
      "hit": false,
      "t": 70509.21074166671,
      "d": 1087.1565249999985,
      "v": 42
    },
    {
      "midi": 64,
      "hit": false,
      "t": 71834.89950000004,
      "d": 59.63305833333288,
      "v": 68
    },
    {
      "midi": 68,
      "hit": false,
      "t": 71834.89950000004,
      "d": 64.22021666666842,
      "v": 64
    },
    {
      "midi": 61,
      "hit": false,
      "t": 71834.89950000004,
      "d": 105.5046416666737,
      "v": 75
    },
    {
      "midi": 62,
      "hit": false,
      "t": 72669.76231666672,
      "d": 1587.1567833333393,
      "v": 73
    },
    {
      "midi": 66,
      "hit": false,
      "t": 72674.34947500005,
      "d": 1550.4595166666695,
      "v": 79
    },
    {
      "midi": 69,
      "hit": false,
      "t": 72674.34947500005,
      "d": 1637.615525000001,
      "v": 78
    },
    {
      "midi": 69,
      "hit": false,
      "t": 74894.53410833339,
      "d": 614.679216666671,
      "v": 74
    },
    {
      "midi": 62,
      "hit": false,
      "t": 74894.53410833339,
      "d": 651.3764833333407,
      "v": 69
    },
    {
      "midi": 64,
      "hit": false,
      "t": 74899.12126666673,
      "d": 541.2846833333315,
      "v": 88
    },
    {
      "midi": 62,
      "hit": false,
      "t": 75926.64473333339,
      "d": 775.2297583333129,
      "v": 63
    },
    {
      "midi": 65,
      "hit": false,
      "t": 75949.58052500006,
      "d": 724.7710166666511,
      "v": 53
    },
    {
      "midi": 68,
      "hit": false,
      "t": 75967.92915833338,
      "d": 779.8169166666485,
      "v": 60
    },
    {
      "midi": 71,
      "hit": false,
      "t": 76004.62642500004,
      "d": 678.8994333333394,
      "v": 44
    },
    {
      "midi": 61,
      "hit": false,
      "t": 77091.78295000004,
      "d": 1605.5054166666814,
      "v": 92
    },
    {
      "midi": 69,
      "hit": false,
      "t": 77091.78295000004,
      "d": 1619.266891666688,
      "v": 75
    },
    {
      "midi": 66,
      "hit": false,
      "t": 77096.37010833337,
      "d": 1596.3311000000103,
      "v": 90
    },
    {
      "midi": 61,
      "hit": false,
      "t": 79123.89409166672,
      "d": 972.4775666666537,
      "v": 67
    },
    {
      "midi": 64,
      "hit": false,
      "t": 79206.46294166672,
      "d": 1399.083291666655,
      "v": 34
    },
    {
      "midi": 68,
      "hit": false,
      "t": 79256.92168333338,
      "d": 1169.7253749999945,
      "v": 108
    },
    {
      "midi": 61,
      "hit": false,
      "t": 80174.35335000003,
      "d": 426.60572500000126,
      "v": 30
    },
    {
      "midi": 73,
      "hit": false,
      "t": 80394.53695000004,
      "d": 206.42212499999732,
      "v": 102
    },
    {
      "midi": 68,
      "hit": false,
      "t": 80811.96835833337,
      "d": 169.72485833334213,
      "v": 61
    },
    {
      "midi": 61,
      "hit": false,
      "t": 80825.72983333337,
      "d": 50.45874166666181,
      "v": 52
    },
    {
      "midi": 64,
      "hit": false,
      "t": 81114.72080833338,
      "d": 96.33032500000263,
      "v": 65
    },
    {
      "midi": 68,
      "hit": false,
      "t": 81119.30796666672,
      "d": 73.3945333333395,
      "v": 68
    },
    {
      "midi": 61,
      "hit": false,
      "t": 81119.30796666672,
      "d": 178.89917499999865,
      "v": 46
    },
    {
      "midi": 69,
      "hit": false,
      "t": 81500.04210833338,
      "d": 1715.5972166666616,
      "v": 77
    },
    {
      "midi": 66,
      "hit": false,
      "t": 81504.62926666671,
      "d": 1688.0742666666629,
      "v": 66
    },
    {
      "midi": 62,
      "hit": false,
      "t": 81504.62926666671,
      "d": 1720.184374999997,
      "v": 66
    },
    {
      "midi": 64,
      "hit": false,
      "t": 83669.76800000004,
      "d": 738.5324916666723,
      "v": 59
    },
    {
      "midi": 69,
      "hit": false,
      "t": 83678.94231666671,
      "d": 729.3581750000012,
      "v": 65
    },
    {
      "midi": 61,
      "hit": false,
      "t": 83678.94231666671,
      "d": 733.9453333333367,
      "v": 68
    },
    {
      "midi": 61,
      "hit": false,
      "t": 84802.79610833338,
      "d": 454.12867499999993,
      "v": 112
    },
    {
      "midi": 69,
      "hit": false,
      "t": 84802.79610833338,
      "d": 454.12867499999993,
      "v": 92
    },
    {
      "midi": 64,
      "hit": false,
      "t": 84802.79610833338,
      "d": 467.89015000000654,
      "v": 115
    },
    {
      "midi": 57,
      "hit": false,
      "t": 84816.55758333339,
      "d": 458.71583333333547,
      "v": 56
    },
    {
      "midi": 56,
      "hit": false,
      "t": 85330.31931666672,
      "d": 532.110366666675,
      "v": 94
    },
    {
      "midi": 61,
      "hit": false,
      "t": 85334.90647500005,
      "d": 477.0644666666776,
      "v": 57
    },
    {
      "midi": 64,
      "hit": false,
      "t": 85339.49363333339,
      "d": 477.0644666666776,
      "v": 68
    },
    {
      "midi": 68,
      "hit": false,
      "t": 85353.2551083334,
      "d": 435.78004166667233,
      "v": 99
    },
    {
      "midi": 64,
      "hit": false,
      "t": 85912.88842500006,
      "d": 1183.4868500000157,
      "v": 57
    },
    {
      "midi": 66,
      "hit": false,
      "t": 85912.88842500006,
      "d": 1192.6611666666868,
      "v": 69
    },
    {
      "midi": 69,
      "hit": false,
      "t": 85917.47558333339,
      "d": 1188.0740083333512,
      "v": 61
    },
    {
      "midi": 61,
      "hit": false,
      "t": 85922.06274166673,
      "d": 1165.1382166666735,
      "v": 49
    },
    {
      "midi": 54,
      "hit": false,
      "t": 85922.06274166673,
      "d": 1614.679733333367,
      "v": 50
    },
    {
      "midi": 61,
      "hit": false,
      "t": 87256.92581666674,
      "d": 68.80737500001851,
      "v": 44
    },
    {
      "midi": 64,
      "hit": false,
      "t": 87266.10013333341,
      "d": 45.87158333334082,
      "v": 53
    },
    {
      "midi": 66,
      "hit": false,
      "t": 87275.27445000008,
      "d": 32.11010833333421,
      "v": 47
    },
    {
      "midi": 69,
      "hit": false,
      "t": 87275.27445000008,
      "d": 55.0459000000119,
      "v": 60
    },
    {
      "midi": 61,
      "hit": false,
      "t": 88032.1555750001,
      "d": 784.4040750000131,
      "v": 55
    },
    {
      "midi": 64,
      "hit": false,
      "t": 88036.74273333343,
      "d": 1880.7349166666681,
      "v": 62
    },
    {
      "midi": 49,
      "hit": false,
      "t": 88041.32989166677,
      "d": 1825.6890166666708,
      "v": 36
    },
    {
      "midi": 68,
      "hit": false,
      "t": 88050.50420833344,
      "d": 1591.7439416666602,
      "v": 49
    },
    {
      "midi": 73,
      "hit": false,
      "t": 89440.41318333344,
      "d": 211.00928333333286,
      "v": 108
    },
    {
      "midi": 61,
      "hit": false,
      "t": 89701.88120833343,
      "d": 211.00928333333286,
      "v": 44
    },
    {
      "midi": 68,
      "hit": false,
      "t": 89825.73448333344,
      "d": 137.61474999999336,
      "v": 79
    },
    {
      "midi": 50,
      "hit": false,
      "t": 90256.92736666676,
      "d": 1894.4963916666602,
      "v": 42
    },
    {
      "midi": 66,
      "hit": false,
      "t": 90275.27600000009,
      "d": 1325.68875833333,
      "v": 54
    },
    {
      "midi": 62,
      "hit": false,
      "t": 90279.86315833342,
      "d": 1211.0097999999998,
      "v": 59
    },
    {
      "midi": 69,
      "hit": false,
      "t": 90279.86315833342,
      "d": 1270.6428583333327,
      "v": 59
    },
    {
      "midi": 66,
      "hit": false,
      "t": 92018.39616666675,
      "d": 73.3945333333395,
      "v": 81
    },
    {
      "midi": 62,
      "hit": false,
      "t": 92027.57048333342,
      "d": 87.15600833333156,
      "v": 61
    },
    {
      "midi": 69,
      "hit": false,
      "t": 92027.57048333342,
      "d": 87.15600833333156,
      "v": 70
    },
    {
      "midi": 52,
      "hit": false,
      "t": 92454.17620833342,
      "d": 1885.3220750000037,
      "v": 57
    },
    {
      "midi": 66,
      "hit": false,
      "t": 92477.11200000008,
      "d": 692.660908333346,
      "v": 92
    },
    {
      "midi": 69,
      "hit": false,
      "t": 92477.11200000008,
      "d": 692.660908333346,
      "v": 94
    },
    {
      "midi": 62,
      "hit": false,
      "t": 92477.11200000008,
      "d": 724.7710166666802,
      "v": 83
    },
    {
      "midi": 71,
      "hit": false,
      "t": 93559.68136666676,
      "d": 674.3122749999893,
      "v": 66
    },
    {
      "midi": 65,
      "hit": false,
      "t": 93564.2685250001,
      "d": 697.2480666666524,
      "v": 92
    },
    {
      "midi": 62,
      "hit": false,
      "t": 93564.2685250001,
      "d": 733.9453333333222,
      "v": 75
    },
    {
      "midi": 68,
      "hit": false,
      "t": 93568.85568333343,
      "d": 788.9912333333195,
      "v": 90
    },
    {
      "midi": 69,
      "hit": false,
      "t": 94692.70947500008,
      "d": 1513.7622499999998,
      "v": 73
    },
    {
      "midi": 61,
      "hit": false,
      "t": 94701.88379166675,
      "d": 1509.1750916666642,
      "v": 97
    },
    {
      "midi": 66,
      "hit": false,
      "t": 94701.88379166675,
      "d": 1536.698041666663,
      "v": 92
    },
    {
      "midi": 61,
      "hit": false,
      "t": 96344.08647500009,
      "d": 215.5964416666684,
      "v": 92
    },
    {
      "midi": 66,
      "hit": false,
      "t": 96463.35259166676,
      "d": 160.55054166667105,
      "v": 92
    },
    {
      "midi": 69,
      "hit": false,
      "t": 96550.50860000009,
      "d": 224.77075833333947,
      "v": 68
    },
    {
      "midi": 68,
      "hit": false,
      "t": 96912.89410833342,
      "d": 1064.2207333333208,
      "v": 55
    },
    {
      "midi": 64,
      "hit": false,
      "t": 96912.89410833342,
      "d": 1403.670449999976,
      "v": 69
    },
    {
      "midi": 61,
      "hit": false,
      "t": 96922.06842500009,
      "d": 977.0647249999893,
      "v": 39
    },
    {
      "midi": 73,
      "hit": false,
      "t": 98238.58286666674,
      "d": 142.2019083333289,
      "v": 108
    },
    {
      "midi": 61,
      "hit": false,
      "t": 98261.5186583334,
      "d": 55.045899999997346,
      "v": 36
    },
    {
      "midi": 61,
      "hit": false,
      "t": 98614.72985000006,
      "d": 243.11939166666707,
      "v": 51
    },
    {
      "midi": 64,
      "hit": false,
      "t": 98628.49132500007,
      "d": 110.09179999999469,
      "v": 69
    },
    {
      "midi": 68,
      "hit": false,
      "t": 98628.49132500007,
      "d": 256.88086666665913,
      "v": 64
    },
    {
      "midi": 69,
      "hit": false,
      "t": 99059.68420833339,
      "d": 1798.1660666666721,
      "v": 59
    },
    {
      "midi": 66,
      "hit": false,
      "t": 99064.27136666673,
      "d": 1788.991750000001,
      "v": 55
    },
    {
      "midi": 62,
      "hit": false,
      "t": 99064.27136666673,
      "d": 1807.3403833333432,
      "v": 55
    },
    {
      "midi": 69,
      "hit": false,
      "t": 101302.8046333334,
      "d": 807.3398666666617,
      "v": 63
    },
    {
      "midi": 64,
      "hit": false,
      "t": 101307.39179166674,
      "d": 802.7527083333262,
      "v": 66
    },
    {
      "midi": 61,
      "hit": false,
      "t": 101307.39179166674,
      "d": 811.9270249999972,
      "v": 69
    },
    {
      "midi": 57,
      "hit": false,
      "t": 102403.72263333341,
      "d": 532.110366666675,
      "v": 46
    },
    {
      "midi": 64,
      "hit": false,
      "t": 102417.48410833342,
      "d": 481.6516249999986,
      "v": 124
    },
    {
      "midi": 69,
      "hit": false,
      "t": 102417.48410833342,
      "d": 490.8259416666697,
      "v": 84
    },
    {
      "midi": 61,
      "hit": false,
      "t": 102417.48410833342,
      "d": 495.4131000000052,
      "v": 102
    },
    {
      "midi": 56,
      "hit": false,
      "t": 102935.83300000009,
      "d": 527.5232083333394,
      "v": 64
    },
    {
      "midi": 64,
      "hit": false,
      "t": 102949.59447500009,
      "d": 431.1928833333368,
      "v": 54
    },
    {
      "midi": 68,
      "hit": false,
      "t": 102954.18163333343,
      "d": 399.0827750000026,
      "v": 105
    },
    {
      "midi": 61,
      "hit": false,
      "t": 102958.76879166676,
      "d": 440.3671999999933,
      "v": 32
    },
    {
      "midi": 54,
      "hit": false,
      "t": 103490.87915833342,
      "d": 1463.303508333367,
      "v": 51
    },
    {
      "midi": 61,
      "hit": false,
      "t": 103495.46631666676,
      "d": 1247.7070666666696,
      "v": 45
    },
    {
      "midi": 69,
      "hit": false,
      "t": 103495.46631666676,
      "d": 1252.294225000005,
      "v": 68
    },
    {
      "midi": 66,
      "hit": false,
      "t": 103495.46631666676,
      "d": 1261.4685416666762,
      "v": 77
    },
    {
      "midi": 61,
      "hit": false,
      "t": 104848.6780250001,
      "d": 64.22021666668297,
      "v": 58
    },
    {
      "midi": 69,
      "hit": false,
      "t": 104848.6780250001,
      "d": 77.98169166668958,
      "v": 57
    },
    {
      "midi": 66,
      "hit": false,
      "t": 104857.85234166677,
      "d": 41.284425000005285,
      "v": 65
    },
    {
      "midi": 61,
      "hit": false,
      "t": 105289.04522500013,
      "d": 73.3945333333395,
      "v": 68
    },
    {
      "midi": 66,
      "hit": false,
      "t": 105289.04522500013,
      "d": 73.3945333333395,
      "v": 94
    },
    {
      "midi": 69,
      "hit": false,
      "t": 105293.63238333346,
      "d": 82.56885000001057,
      "v": 70
    },
    {
      "midi": 61,
      "hit": false,
      "t": 105678.95368333347,
      "d": 1655.9641583333432,
      "v": 60
    },
    {
      "midi": 64,
      "hit": false,
      "t": 105683.5408416668,
      "d": 1692.661425000013,
      "v": 72
    },
    {
      "midi": 68,
      "hit": false,
      "t": 105688.12800000014,
      "d": 1683.487108333342,
      "v": 62
    },
    {
      "midi": 64,
      "hit": false,
      "t": 107435.83532500015,
      "d": 211.00928333333286,
      "v": 54
    },
    {
      "midi": 61,
      "hit": false,
      "t": 107435.83532500015,
      "d": 298.1652916666644,
      "v": 68
    },
    {
      "midi": 68,
      "hit": false,
      "t": 107435.83532500015,
      "d": 399.0827750000026,
      "v": 63
    },
    {
      "midi": 62,
      "hit": false,
      "t": 107908.3126333335,
      "d": 1536.698041666663,
      "v": 74
    },
    {
      "midi": 66,
      "hit": false,
      "t": 107908.3126333335,
      "d": 1545.872358333334,
      "v": 66
    },
    {
      "midi": 69,
      "hit": false,
      "t": 107908.3126333335,
      "d": 1564.2209916666616,
      "v": 66
    },
    {
      "midi": 62,
      "hit": false,
      "t": 110367.02950000015,
      "d": 270.64234166666574,
      "v": 78
    },
    {
      "midi": 66,
      "hit": false,
      "t": 110367.02950000015,
      "d": 270.64234166666574,
      "v": 92
    },
    {
      "midi": 69,
      "hit": false,
      "t": 110367.02950000015,
      "d": 270.64234166666574,
      "v": 105
    },
    {
      "midi": 76,
      "hit": false,
      "t": 110367.02950000015,
      "d": 270.64234166666574,
      "v": 105
    },
    {
      "midi": 62,
      "hit": false,
      "t": 110779.87375000014,
      "d": 133.02759166667238,
      "v": 100
    },
    {
      "midi": 66,
      "hit": false,
      "t": 110779.87375000014,
      "d": 133.02759166667238,
      "v": 100
    },
    {
      "midi": 69,
      "hit": false,
      "t": 110779.87375000014,
      "d": 133.02759166667238,
      "v": 100
    },
    {
      "midi": 76,
      "hit": false,
      "t": 110779.87375000014,
      "d": 133.02759166667238,
      "v": 100
    },
    {
      "midi": 62,
      "hit": false,
      "t": 111467.94750000015,
      "d": 270.64234166666574,
      "v": 83
    },
    {
      "midi": 65,
      "hit": false,
      "t": 111467.94750000015,
      "d": 270.64234166666574,
      "v": 97
    },
    {
      "midi": 68,
      "hit": false,
      "t": 111467.94750000015,
      "d": 270.64234166666574,
      "v": 105
    },
    {
      "midi": 71,
      "hit": false,
      "t": 111467.94750000015,
      "d": 270.64234166666574,
      "v": 92
    },
    {
      "midi": 62,
      "hit": false,
      "t": 111743.17700000016,
      "d": 137.61474999999336,
      "v": 100
    },
    {
      "midi": 71,
      "hit": false,
      "t": 111743.17700000016,
      "d": 137.61474999999336,
      "v": 100
    },
    {
      "midi": 65,
      "hit": false,
      "t": 111880.79175000015,
      "d": 133.02759166667238,
      "v": 100
    },
    {
      "midi": 62,
      "hit": false,
      "t": 111880.79175000015,
      "d": 137.61475000000792,
      "v": 100
    },
    {
      "midi": 71,
      "hit": false,
      "t": 111880.79175000015,
      "d": 137.61475000000792,
      "v": 100
    },
    {
      "midi": 69,
      "hit": false,
      "t": 112559.69118333349,
      "d": 96.33032500001718,
      "v": 57
    },
    {
      "midi": 64,
      "hit": false,
      "t": 112568.86550000016,
      "d": 68.80737500000396,
      "v": 94
    },
    {
      "midi": 61,
      "hit": false,
      "t": 112582.62697500017,
      "d": 59.63305833333288,
      "v": 61
    },
    {
      "midi": 69,
      "hit": false,
      "t": 113371.6182083335,
      "d": 922.0188250000065,
      "v": 69
    },
    {
      "midi": 64,
      "hit": false,
      "t": 113376.20536666684,
      "d": 885.3215583333367,
      "v": 58
    },
    {
      "midi": 61,
      "hit": false,
      "t": 113376.20536666684,
      "d": 949.5417750000051,
      "v": 56
    },
    {
      "midi": 61,
      "hit": false,
      "t": 114486.29768333351,
      "d": 2036.6983000000182,
      "v": 47
    },
    {
      "midi": 68,
      "hit": false,
      "t": 114500.05915833352,
      "d": 1564.2209916666761,
      "v": 41
    },
    {
      "midi": 64,
      "hit": false,
      "t": 114500.05915833352,
      "d": 1880.7349166666827,
      "v": 51
    },
    {
      "midi": 73,
      "hit": false,
      "t": 115871.61950000019,
      "d": 261.4680250000092,
      "v": 94
    },
    {
      "midi": 68,
      "hit": false,
      "t": 116247.76648333353,
      "d": 403.6699333333381,
      "v": 83
    },
    {
      "midi": 62,
      "hit": false,
      "t": 116701.89515833353,
      "d": 1142.2024249999959,
      "v": 55
    },
    {
      "midi": 69,
      "hit": false,
      "t": 116701.89515833353,
      "d": 1174.31253333333,
      "v": 62
    },
    {
      "midi": 66,
      "hit": false,
      "t": 116706.48231666686,
      "d": 1146.7895833333314,
      "v": 47
    },
    {
      "midi": 66,
      "hit": false,
      "t": 118068.86834166686,
      "d": 64.22021666666842,
      "v": 54
    },
    {
      "midi": 69,
      "hit": false,
      "t": 118068.86834166686,
      "d": 82.56884999999602,
      "v": 52
    },
    {
      "midi": 62,
      "hit": false,
      "t": 118073.4555000002,
      "d": 77.98169166666048,
      "v": 52
    },
    {
      "midi": 66,
      "hit": false,
      "t": 118454.18964166686,
      "d": 82.56884999999602,
      "v": 54
    },
    {
      "midi": 62,
      "hit": false,
      "t": 118454.18964166686,
      "d": 100.91748333332362,
      "v": 54
    },
    {
      "midi": 69,
      "hit": false,
      "t": 118454.18964166686,
      "d": 288.99097499999334,
      "v": 60
    },
    {
      "midi": 64,
      "hit": false,
      "t": 118931.25410833352,
      "d": 807.3398666666617,
      "v": 70
    },
    {
      "midi": 66,
      "hit": false,
      "t": 118931.25410833352,
      "d": 844.0371333333314,
      "v": 64
    },
    {
      "midi": 69,
      "hit": false,
      "t": 118931.25410833352,
      "d": 876.1472416666656,
      "v": 60
    },
    {
      "midi": 62,
      "hit": false,
      "t": 118931.25410833352,
      "d": 885.3215583333367,
      "v": 66
    },
    {
      "midi": 68,
      "hit": false,
      "t": 119995.47484166686,
      "d": 798.1655499999906,
      "v": 57
    },
    {
      "midi": 71,
      "hit": false,
      "t": 120000.0620000002,
      "d": 678.8994333333394,
      "v": 61
    },
    {
      "midi": 65,
      "hit": false,
      "t": 120009.23631666687,
      "d": 715.5966999999946,
      "v": 59
    },
    {
      "midi": 62,
      "hit": false,
      "t": 120009.23631666687,
      "d": 733.9453333333222,
      "v": 66
    },
    {
      "midi": 64,
      "hit": false,
      "t": 121119.32863333351,
      "d": 2018.349666666676,
      "v": 57
    },
    {
      "midi": 69,
      "hit": false,
      "t": 121119.32863333351,
      "d": 2027.5239833333471,
      "v": 61
    },
    {
      "midi": 61,
      "hit": false,
      "t": 121123.91579166685,
      "d": 2004.5881916666694,
      "v": 61
    },
    {
      "midi": 61,
      "hit": false,
      "t": 123302.8160000002,
      "d": 1756.8816416666668,
      "v": 55
    },
    {
      "midi": 64,
      "hit": false,
      "t": 123302.8160000002,
      "d": 1766.055958333338,
      "v": 47
    },
    {
      "midi": 68,
      "hit": false,
      "t": 123307.40315833353,
      "d": 1756.8816416666668,
      "v": 48
    },
    {
      "midi": 64,
      "hit": false,
      "t": 125096.39490833353,
      "d": 178.89917499999865,
      "v": 61
    },
    {
      "midi": 61,
      "hit": false,
      "t": 125105.5692250002,
      "d": 211.00928333333286,
      "v": 41
    },
    {
      "midi": 68,
      "hit": false,
      "t": 125105.5692250002,
      "d": 256.88086666665913,
      "v": 62
    },
    {
      "midi": 69,
      "hit": false,
      "t": 125545.9364250002,
      "d": 1885.3220750000182,
      "v": 66
    },
    {
      "midi": 66,
      "hit": false,
      "t": 125550.52358333353,
      "d": 1646.7898416666721,
      "v": 75
    },
    {
      "midi": 62,
      "hit": false,
      "t": 125550.52358333353,
      "d": 1807.3403833333432,
      "v": 72
    },
    {
      "midi": 64,
      "hit": false,
      "t": 127720.24947500021,
      "d": 697.248066666667,
      "v": 94
    },
    {
      "midi": 69,
      "hit": false,
      "t": 127729.42379166688,
      "d": 711.0095416666591,
      "v": 72
    },
    {
      "midi": 66,
      "hit": false,
      "t": 127729.42379166688,
      "d": 720.1838583333301,
      "v": 88
    },
    {
      "midi": 62,
      "hit": false,
      "t": 127729.42379166688,
      "d": 834.8628166666604,
      "v": 78
    },
    {
      "midi": 65,
      "hit": false,
      "t": 128821.16747500021,
      "d": 678.8994333333394,
      "v": 79
    },
    {
      "midi": 71,
      "hit": false,
      "t": 128825.75463333355,
      "d": 665.1379583333328,
      "v": 65
    },
    {
      "midi": 68,
      "hit": false,
      "t": 128830.34179166688,
      "d": 697.248066666667,
      "v": 77
    },
    {
      "midi": 62,
      "hit": false,
      "t": 128830.34179166688,
      "d": 715.5966999999946,
      "v": 68
    },
    {
      "midi": 61,
      "hit": false,
      "t": 129940.43410833355,
      "d": 1752.2944833333313,
      "v": 78
    },
    {
      "midi": 64,
      "hit": false,
      "t": 129940.43410833355,
      "d": 1752.2944833333313,
      "v": 75
    },
    {
      "midi": 69,
      "hit": false,
      "t": 129940.43410833355,
      "d": 1756.8816416666668,
      "v": 69
    },
    {
      "midi": 64,
      "hit": false,
      "t": 131756.94880833355,
      "d": 73.3945333333395,
      "v": 66
    },
    {
      "midi": 61,
      "hit": false,
      "t": 131756.94880833355,
      "d": 123.8532750000013,
      "v": 52
    },
    {
      "midi": 69,
      "hit": false,
      "t": 131756.94880833355,
      "d": 206.42212500001187,
      "v": 63
    },
    {
      "midi": 66,
      "hit": false,
      "t": 132160.6187416669,
      "d": 1568.808149999997,
      "v": 66
    },
    {
      "midi": 61,
      "hit": false,
      "t": 132160.6187416669,
      "d": 1596.3311000000103,
      "v": 66
    },
    {
      "midi": 69,
      "hit": false,
      "t": 132160.6187416669,
      "d": 1628.44120833333,
      "v": 57
    },
    {
      "midi": 62,
      "hit": false,
      "t": 134325.75747500022,
      "d": 1944.9551333333366,
      "v": 73
    },
    {
      "midi": 66,
      "hit": false,
      "t": 134330.34463333356,
      "d": 1944.9551333333366,
      "v": 83
    },
    {
      "midi": 69,
      "hit": false,
      "t": 134330.34463333356,
      "d": 1972.4780833333498,
      "v": 53
    },
    {
      "midi": 66,
      "hit": false,
      "t": 136509.24484166692,
      "d": 706.4223833333526,
      "v": 73
    },
    {
      "midi": 62,
      "hit": false,
      "t": 136509.24484166692,
      "d": 935.7803000000131,
      "v": 65
    },
    {
      "midi": 64,
      "hit": false,
      "t": 136513.83200000026,
      "d": 660.5507999999973,
      "v": 83
    },
    {
      "midi": 69,
      "hit": false,
      "t": 136513.83200000026,
      "d": 678.8994333333394,
      "v": 68
    },
    {
      "midi": 65,
      "hit": false,
      "t": 137623.92431666693,
      "d": 577.9819500000158,
      "v": 75
    },
    {
      "midi": 71,
      "hit": false,
      "t": 137633.0986333336,
      "d": 541.2846833333315,
      "v": 68
    },
    {
      "midi": 68,
      "hit": false,
      "t": 137633.0986333336,
      "d": 605.5048999999999,
      "v": 69
    },
    {
      "midi": 62,
      "hit": false,
      "t": 137633.0986333336,
      "d": 614.679216666671,
      "v": 72
    },
    {
      "midi": 64,
      "hit": false,
      "t": 138715.66800000027,
      "d": 1940.367975000001,
      "v": 73
    },
    {
      "midi": 61,
      "hit": false,
      "t": 138715.66800000027,
      "d": 1958.7166083333432,
      "v": 81
    },
    {
      "midi": 69,
      "hit": false,
      "t": 138715.66800000027,
      "d": 1958.7166083333432,
      "v": 62
    },
    {
      "midi": 64,
      "hit": false,
      "t": 140926.67831666695,
      "d": 1692.6614249999984,
      "v": 90
    },
    {
      "midi": 61,
      "hit": false,
      "t": 140926.67831666695,
      "d": 1798.1660666666576,
      "v": 78
    },
    {
      "midi": 68,
      "hit": false,
      "t": 140926.67831666695,
      "d": 1821.1018583333353,
      "v": 88
    },
    {
      "midi": 69,
      "hit": false,
      "t": 143137.68863333363,
      "d": 1779.8174333333445,
      "v": 67
    },
    {
      "midi": 66,
      "hit": false,
      "t": 143142.27579166697,
      "d": 1692.6614249999984,
      "v": 79
    },
    {
      "midi": 62,
      "hit": false,
      "t": 143142.27579166697,
      "d": 1711.0100583333406,
      "v": 72
    },
    {
      "midi": 64,
      "hit": false,
      "t": 145339.52463333364,
      "d": 633.0278500000131,
      "v": 90
    },
    {
      "midi": 69,
      "hit": false,
      "t": 145339.52463333364,
      "d": 637.6150083333487,
      "v": 66
    },
    {
      "midi": 62,
      "hit": false,
      "t": 145339.52463333364,
      "d": 646.7893250000197,
      "v": 69
    },
    {
      "midi": 66,
      "hit": false,
      "t": 145339.52463333364,
      "d": 651.3764833333553,
      "v": 78
    },
    {
      "midi": 71,
      "hit": false,
      "t": 146431.268316667,
      "d": 481.6516249999986,
      "v": 58
    },
    {
      "midi": 65,
      "hit": false,
      "t": 146431.268316667,
      "d": 518.3488916666538,
      "v": 79
    },
    {
      "midi": 62,
      "hit": false,
      "t": 146431.268316667,
      "d": 541.2846833333315,
      "v": 74
    },
    {
      "midi": 68,
      "hit": false,
      "t": 146431.268316667,
      "d": 550.4590000000026,
      "v": 78
    },
    {
      "midi": 66,
      "hit": false,
      "t": 147523.01200000034,
      "d": 73.3945333333395,
      "v": 94
    },
    {
      "midi": 61,
      "hit": false,
      "t": 147527.59915833367,
      "d": 82.56885000001057,
      "v": 86
    },
    {
      "midi": 69,
      "hit": false,
      "t": 147527.59915833367,
      "d": 87.15600833334611,
      "v": 69
    },
    {
      "midi": 66,
      "hit": false,
      "t": 147990.90215000036,
      "d": 55.045899999997346,
      "v": 65
    },
    {
      "midi": 61,
      "hit": false,
      "t": 147990.90215000036,
      "d": 68.80737500000396,
      "v": 64
    },
    {
      "midi": 69,
      "hit": false,
      "t": 147995.4893083337,
      "d": 68.80737500000396,
      "v": 59
    },
    {
      "midi": 61,
      "hit": false,
      "t": 148669.8015833337,
      "d": 68.80737500000396,
      "v": 58
    },
    {
      "midi": 66,
      "hit": false,
      "t": 148669.8015833337,
      "d": 68.80737500000396,
      "v": 55
    },
    {
      "midi": 69,
      "hit": false,
      "t": 148669.8015833337,
      "d": 87.15600833334611,
      "v": 60
    },
    {
      "midi": 66,
      "hit": false,
      "t": 148816.59065000038,
      "d": 41.28442499999073,
      "v": 42
    },
    {
      "midi": 61,
      "hit": false,
      "t": 149045.94856666704,
      "d": 68.80737500000396,
      "v": 37
    },
    {
      "midi": 66,
      "hit": false,
      "t": 149045.94856666704,
      "d": 68.80737500000396,
      "v": 44
    },
    {
      "midi": 69,
      "hit": false,
      "t": 149045.94856666704,
      "d": 82.56885000001057,
      "v": 54
    },
    {
      "midi": 64,
      "hit": false,
      "t": 149720.26084166704,
      "d": 59.63305833333288,
      "v": 75
    },
    {
      "midi": 68,
      "hit": false,
      "t": 149724.84800000038,
      "d": 50.45874166666181,
      "v": 66
    },
    {
      "midi": 61,
      "hit": false,
      "t": 149724.84800000038,
      "d": 64.22021666666842,
      "v": 62
    },
    {
      "midi": 71,
      "hit": false,
      "t": 150114.75645833372,
      "d": 77.98169166667503,
      "v": 63
    },
    {
      "midi": 64,
      "hit": false,
      "t": 150119.34361666706,
      "d": 45.87158333332627,
      "v": 62
    },
    {
      "midi": 61,
      "hit": false,
      "t": 150119.34361666706,
      "d": 59.63305833333288,
      "v": 60
    },
    {
      "midi": 68,
      "hit": false,
      "t": 150123.9307750004,
      "d": 32.11010833331966,
      "v": 58
    },
    {
      "midi": 61,
      "hit": false,
      "t": 150555.12365833373,
      "d": 73.3945333333395,
      "v": 59
    },
    {
      "midi": 64,
      "hit": false,
      "t": 150559.71081666707,
      "d": 59.63305833333288,
      "v": 49
    },
    {
      "midi": 68,
      "hit": false,
      "t": 150564.2979750004,
      "d": 50.45874166666181,
      "v": 49
    },
    {
      "midi": 71,
      "hit": false,
      "t": 150564.2979750004,
      "d": 73.3945333333395,
      "v": 61
    },
    {
      "midi": 68,
      "hit": false,
      "t": 151536.77554166707,
      "d": 55.045899999997346,
      "v": 84
    },
    {
      "midi": 64,
      "hit": false,
      "t": 151536.77554166707,
      "d": 64.22021666666842,
      "v": 84
    },
    {
      "midi": 61,
      "hit": false,
      "t": 151541.3627000004,
      "d": 64.22021666666842,
      "v": 72
    },
    {
      "midi": 71,
      "hit": false,
      "t": 151541.3627000004,
      "d": 73.3945333333395,
      "v": 65
    },
    {
      "midi": 66,
      "hit": false,
      "t": 151949.61979166706,
      "d": 87.15600833334611,
      "v": 59
    },
    {
      "midi": 69,
      "hit": false,
      "t": 151949.61979166706,
      "d": 105.50464166668826,
      "v": 75
    },
    {
      "midi": 62,
      "hit": false,
      "t": 151958.79410833374,
      "d": 100.91748333335272,
      "v": 50
    },
    {
      "midi": 66,
      "hit": false,
      "t": 152325.76677500043,
      "d": 59.63305833333288,
      "v": 77
    },
    {
      "midi": 69,
      "hit": false,
      "t": 152330.35393333377,
      "d": 68.80737500000396,
      "v": 73
    },
    {
      "midi": 62,
      "hit": false,
      "t": 152334.9410916671,
      "d": 55.045899999997346,
      "v": 54
    },
    {
      "midi": 66,
      "hit": false,
      "t": 153045.95063333376,
      "d": 738.5324916666723,
      "v": 68
    },
    {
      "midi": 62,
      "hit": false,
      "t": 153045.95063333376,
      "d": 876.1472416666802,
      "v": 59
    },
    {
      "midi": 69,
      "hit": false,
      "t": 153045.95063333376,
      "d": 894.4958750000224,
      "v": 61
    },
    {
      "midi": 62,
      "hit": false,
      "t": 155490.90602500044,
      "d": 68.80737500000396,
      "v": 58
    },
    {
      "midi": 68,
      "hit": false,
      "t": 155495.49318333378,
      "d": 55.045899999997346,
      "v": 59
    },
    {
      "midi": 65,
      "hit": false,
      "t": 155495.49318333378,
      "d": 64.22021666666842,
      "v": 65
    },
    {
      "midi": 71,
      "hit": false,
      "t": 155495.49318333378,
      "d": 73.3945333333395,
      "v": 57
    },
    {
      "midi": 65,
      "hit": false,
      "t": 155885.40164166712,
      "d": 64.22021666666842,
      "v": 67
    },
    {
      "midi": 68,
      "hit": false,
      "t": 155885.40164166712,
      "d": 82.56885000001057,
      "v": 64
    },
    {
      "midi": 71,
      "hit": false,
      "t": 155885.40164166712,
      "d": 87.15600833334611,
      "v": 61
    },
    {
      "midi": 62,
      "hit": false,
      "t": 155885.40164166712,
      "d": 133.02759166667238,
      "v": 60
    },
    {
      "midi": 64,
      "hit": false,
      "t": 156321.1816833338,
      "d": 711.0095416666591,
      "v": 86
    },
    {
      "midi": 69,
      "hit": false,
      "t": 156321.1816833338,
      "d": 880.7343999999866,
      "v": 61
    },
    {
      "midi": 61,
      "hit": false,
      "t": 156330.35600000047,
      "d": 866.97292499998,
      "v": 79
    },
    {
      "midi": 66,
      "hit": false,
      "t": 157165.21881666713,
      "d": 36.697266666655196,
      "v": 94
    },
    {
      "midi": 66,
      "hit": false,
      "t": 157573.47590833378,
      "d": 50.45874166666181,
      "v": 90
    },
    {
      "midi": 61,
      "hit": false,
      "t": 157573.47590833378,
      "d": 59.63305833333288,
      "v": 61
    },
    {
      "midi": 69,
      "hit": false,
      "t": 157573.47590833378,
      "d": 77.98169166667503,
      "v": 63
    },
    {
      "midi": 66,
      "hit": false,
      "t": 157963.38436666713,
      "d": 288.99097499999334,
      "v": 84
    },
    {
      "midi": 69,
      "hit": false,
      "t": 157972.5586833338,
      "d": 316.51392499997746,
      "v": 65
    },
    {
      "midi": 61,
      "hit": false,
      "t": 157972.5586833338,
      "d": 357.7983499999682,
      "v": 72
    },
    {
      "midi": 64,
      "hit": false,
      "t": 158523.01768333378,
      "d": 73.3945333333395,
      "v": 64
    },
    {
      "midi": 61,
      "hit": false,
      "t": 158523.01768333378,
      "d": 82.56885000001057,
      "v": 59
    },
    {
      "midi": 68,
      "hit": false,
      "t": 158527.6048416671,
      "d": 64.22021666666842,
      "v": 59
    },
    {
      "midi": 61,
      "hit": false,
      "t": 158945.03625000044,
      "d": 73.3945333333395,
      "v": 57
    },
    {
      "midi": 64,
      "hit": false,
      "t": 158954.2105666671,
      "d": 55.045899999997346,
      "v": 66
    },
    {
      "midi": 68,
      "hit": false,
      "t": 158954.2105666671,
      "d": 55.045899999997346,
      "v": 67
    },
    {
      "midi": 61,
      "hit": false,
      "t": 159656.0457916671,
      "d": 82.56885000001057,
      "v": 67
    },
    {
      "midi": 64,
      "hit": false,
      "t": 159660.63295000044,
      "d": 68.80737500000396,
      "v": 84
    },
    {
      "midi": 68,
      "hit": false,
      "t": 159660.63295000044,
      "d": 87.15600833334611,
      "v": 90
    },
    {
      "midi": 61,
      "hit": false,
      "t": 160059.71572500045,
      "d": 77.98169166667503,
      "v": 61
    },
    {
      "midi": 64,
      "hit": false,
      "t": 160064.3028833338,
      "d": 64.22021666666842,
      "v": 81
    },
    {
      "midi": 68,
      "hit": false,
      "t": 160064.3028833338,
      "d": 68.80737500000396,
      "v": 81
    },
    {
      "midi": 66,
      "hit": false,
      "t": 160738.6151583338,
      "d": 91.74316666668165,
      "v": 74
    },
    {
      "midi": 62,
      "hit": false,
      "t": 160747.78947500046,
      "d": 100.91748333335272,
      "v": 74
    },
    {
      "midi": 69,
      "hit": false,
      "t": 160747.78947500046,
      "d": 224.77075833335402,
      "v": 66
    },
    {
      "midi": 66,
      "hit": false,
      "t": 161169.80804166716,
      "d": 77.98169166667503,
      "v": 58
    },
    {
      "midi": 62,
      "hit": false,
      "t": 161169.80804166716,
      "d": 105.50464166668826,
      "v": 66
    },
    {
      "midi": 69,
      "hit": false,
      "t": 161174.3952000005,
      "d": 119.26611666669487,
      "v": 68
    },
    {
      "midi": 66,
      "hit": false,
      "t": 161825.77168333385,
      "d": 330.2754000000132,
      "v": 66
    },
    {
      "midi": 62,
      "hit": false,
      "t": 161839.53315833386,
      "d": 311.926766666671,
      "v": 61
    },
    {
      "midi": 69,
      "hit": false,
      "t": 161839.53315833386,
      "d": 330.2754000000132,
      "v": 59
    },
    {
      "midi": 66,
      "hit": false,
      "t": 162243.2030916672,
      "d": 68.80737500000396,
      "v": 47
    },
    {
      "midi": 62,
      "hit": false,
      "t": 162243.2030916672,
      "d": 77.98169166667503,
      "v": 52
    },
    {
      "midi": 69,
      "hit": false,
      "t": 162243.2030916672,
      "d": 91.74316666668165,
      "v": 57
    },
    {
      "midi": 64,
      "hit": false,
      "t": 162931.27684166722,
      "d": 105.50464166665915,
      "v": 53
    },
    {
      "midi": 68,
      "hit": false,
      "t": 162931.27684166722,
      "d": 105.50464166665915,
      "v": 62
    },
    {
      "midi": 62,
      "hit": false,
      "t": 162935.86400000055,
      "d": 247.7065500000026,
      "v": 48
    },
    {
      "midi": 71,
      "hit": false,
      "t": 162935.86400000055,
      "d": 261.4680250000092,
      "v": 65
    },
    {
      "midi": 64,
      "hit": false,
      "t": 163321.18530000056,
      "d": 82.56885000001057,
      "v": 61
    },
    {
      "midi": 68,
      "hit": false,
      "t": 163330.35961666724,
      "d": 77.98169166667503,
      "v": 55
    },
    {
      "midi": 62,
      "hit": false,
      "t": 163330.35961666724,
      "d": 243.11939166666707,
      "v": 50
    },
    {
      "midi": 71,
      "hit": false,
      "t": 163334.94677500057,
      "d": 256.8808666666737,
      "v": 61
    },
    {
      "midi": 64,
      "hit": false,
      "t": 163761.55250000057,
      "d": 77.98169166667503,
      "v": 79
    },
    {
      "midi": 68,
      "hit": false,
      "t": 163770.72681666724,
      "d": 55.045899999997346,
      "v": 73
    },
    {
      "midi": 62,
      "hit": false,
      "t": 163770.72681666724,
      "d": 82.56885000001057,
      "v": 67
    },
    {
      "midi": 71,
      "hit": false,
      "t": 163770.72681666724,
      "d": 110.0918000000238,
      "v": 73
    },
    {
      "midi": 64,
      "hit": false,
      "t": 164156.04811666725,
      "d": 87.15600833334611,
      "v": 62
    },
    {
      "midi": 68,
      "hit": false,
      "t": 164169.80959166726,
      "d": 73.3945333333395,
      "v": 60
    },
    {
      "midi": 62,
      "hit": false,
      "t": 164169.80959166726,
      "d": 96.33032500001718,
      "v": 55
    },
    {
      "midi": 71,
      "hit": false,
      "t": 164169.80959166726,
      "d": 215.59644166668295,
      "v": 66
    },
    {
      "midi": 64,
      "hit": false,
      "t": 164555.13089166727,
      "d": 55.045899999997346,
      "v": 75
    },
    {
      "midi": 68,
      "hit": false,
      "t": 164559.7180500006,
      "d": 50.45874166666181,
      "v": 81
    },
    {
      "midi": 62,
      "hit": false,
      "t": 164559.7180500006,
      "d": 64.22021666666842,
      "v": 66
    },
    {
      "midi": 71,
      "hit": false,
      "t": 164564.30520833394,
      "d": 55.045899999997346,
      "v": 66
    },
    {
      "midi": 61,
      "hit": false,
      "t": 165169.81010833394,
      "d": 105.50464166665915,
      "v": 38
    },
    {
      "midi": 71,
      "hit": false,
      "t": 165188.15874166728,
      "d": 41.28442499999073,
      "v": 32
    },
    {
      "midi": 66,
      "hit": false,
      "t": 165408.34234166727,
      "d": 1440.3677166666603,
      "v": 77
    },
    {
      "midi": 69,
      "hit": false,
      "t": 165408.34234166727,
      "d": 1555.0466749999905,
      "v": 51
    },
    {
      "midi": 61,
      "hit": false,
      "t": 165412.9295000006,
      "d": 1500.0007749999932,
      "v": 49
    },
    {
      "midi": 68,
      "hit": false,
      "t": 167325.7745250006,
      "d": 1697.248583333334,
      "v": 58
    },
    {
      "midi": 61,
      "hit": false,
      "t": 167325.7745250006,
      "d": 2077.98272499998,
      "v": 72
    },
    {
      "midi": 64,
      "hit": false,
      "t": 167330.36168333393,
      "d": 1940.367974999972,
      "v": 57
    },
    {
      "midi": 73,
      "hit": false,
      "t": 168715.6835000006,
      "d": 339.44971666665515,
      "v": 105
    },
    {
      "midi": 68,
      "hit": false,
      "t": 169091.8304833339,
      "d": 403.66993333332357,
      "v": 92
    },
    {
      "midi": 69,
      "hit": false,
      "t": 169541.37200000056,
      "d": 1798.1660666666576,
      "v": 64
    },
    {
      "midi": 66,
      "hit": false,
      "t": 169550.54631666723,
      "d": 1729.3586916666536,
      "v": 58
    },
    {
      "midi": 62,
      "hit": false,
      "t": 169559.7206333339,
      "d": 1756.8816416666377,
      "v": 49
    },
    {
      "midi": 60,
      "hit": false,
      "t": 169564.30779166723,
      "d": 100.91748333332362,
      "v": 43
    },
    {
      "midi": 61,
      "hit": false,
      "t": 171646.87767500055,
      "d": 986.2390416666749,
      "v": 67
    },
    {
      "midi": 64,
      "hit": false,
      "t": 171692.74925833388,
      "d": 954.1289333333552,
      "v": 38
    },
    {
      "midi": 69,
      "hit": false,
      "t": 171779.90526666722,
      "d": 862.3857666666736,
      "v": 55
    },
    {
      "midi": 57,
      "hit": false,
      "t": 172848.7131583339,
      "d": 577.9819500000158,
      "v": 59
    },
    {
      "midi": 69,
      "hit": false,
      "t": 172853.30031666724,
      "d": 449.54151666667894,
      "v": 88
    },
    {
      "midi": 61,
      "hit": false,
      "t": 172862.4746333339,
      "d": 449.54151666667894,
      "v": 94
    },
    {
      "midi": 64,
      "hit": false,
      "t": 172867.06179166725,
      "d": 454.1286750000145,
      "v": 81
    },
    {
      "midi": 56,
      "hit": false,
      "t": 173371.64920833393,
      "d": 550.4590000000026,
      "v": 105
    },
    {
      "midi": 68,
      "hit": false,
      "t": 173403.75931666725,
      "d": 334.8625583333487,
      "v": 59
    },
    {
      "midi": 64,
      "hit": false,
      "t": 173403.75931666725,
      "d": 422.0185666666948,
      "v": 57
    },
    {
      "midi": 61,
      "hit": false,
      "t": 173408.34647500058,
      "d": 394.4956166666816,
      "v": 44
    },
    {
      "midi": 54,
      "hit": false,
      "t": 173926.69536666726,
      "d": 1798.1660666667158,
      "v": 50
    },
    {
      "midi": 69,
      "hit": false,
      "t": 173935.86968333393,
      "d": 1715.5972166667052,
      "v": 59
    },
    {
      "midi": 66,
      "hit": false,
      "t": 173945.0440000006,
      "d": 1665.1384750000143,
      "v": 54
    },
    {
      "midi": 64,
      "hit": false,
      "t": 173945.0440000006,
      "d": 1683.4871083333564,
      "v": 59
    },
    {
      "midi": 61,
      "hit": false,
      "t": 173945.0440000006,
      "d": 1688.074266666692,
      "v": 70
    },
    {
      "midi": 73,
      "hit": false,
      "t": 176133.11852500064,
      "d": 1376.147500000021,
      "v": 44
    },
    {
      "midi": 64,
      "hit": false,
      "t": 176133.11852500064,
      "d": 1495.4136166666867,
      "v": 37
    },
    {
      "midi": 61,
      "hit": false,
      "t": 176137.70568333397,
      "d": 1518.3494083333644,
      "v": 44
    },
    {
      "midi": 68,
      "hit": false,
      "t": 176146.88000000064,
      "d": 1454.1291916666669,
      "v": 42
    },
    {
      "midi": 62,
      "hit": false,
      "t": 178357.89031666733,
      "d": 1990.8267166666628,
      "v": 61
    },
    {
      "midi": 66,
      "hit": false,
      "t": 178357.89031666733,
      "d": 1995.4138749999984,
      "v": 79
    },
    {
      "midi": 69,
      "hit": false,
      "t": 178357.89031666733,
      "d": 2009.175350000005,
      "v": 60
    },
    {
      "midi": 66,
      "hit": false,
      "t": 180550.55200000067,
      "d": 91.74316666668165,
      "v": 86
    },
    {
      "midi": 62,
      "hit": false,
      "t": 180550.55200000067,
      "d": 100.91748333335272,
      "v": 74
    },
    {
      "midi": 52,
      "hit": false,
      "t": 180550.55200000067,
      "d": 123.85327500003041,
      "v": 77
    },
    {
      "midi": 69,
      "hit": false,
      "t": 180555.139158334,
      "d": 100.91748333335272,
      "v": 69
    },
    {
      "midi": 52,
      "hit": false,
      "t": 180986.33204166737,
      "d": 596.3305833333288,
      "v": 61
    },
    {
      "midi": 69,
      "hit": false,
      "t": 180995.50635833404,
      "d": 522.9360499999893,
      "v": 73
    },
    {
      "midi": 62,
      "hit": false,
      "t": 180995.50635833404,
      "d": 577.9819499999867,
      "v": 72
    },
    {
      "midi": 66,
      "hit": false,
      "t": 180995.50635833404,
      "d": 587.1562666666578,
      "v": 77
    },
    {
      "midi": 71,
      "hit": false,
      "t": 181715.69021666737,
      "d": 770.642599999992,
      "v": 70
    },
    {
      "midi": 65,
      "hit": false,
      "t": 181720.2773750007,
      "d": 779.816916666663,
      "v": 99
    },
    {
      "midi": 62,
      "hit": false,
      "t": 181720.2773750007,
      "d": 839.4499749999959,
      "v": 92
    },
    {
      "midi": 68,
      "hit": false,
      "t": 181720.2773750007,
      "d": 903.6701916666643,
      "v": 86
    },
    {
      "midi": 64,
      "hit": false,
      "t": 182752.3880000007,
      "d": 1766.055958333338,
      "v": 58
    },
    {
      "midi": 69,
      "hit": false,
      "t": 182752.3880000007,
      "d": 1816.5146999999997,
      "v": 61
    },
    {
      "midi": 61,
      "hit": false,
      "t": 182756.97515833404,
      "d": 1738.5330083333247,
      "v": 94
    },
    {
      "midi": 64,
      "hit": false,
      "t": 184963.39831666736,
      "d": 64.22021666666842,
      "v": 56
    },
    {
      "midi": 68,
      "hit": false,
      "t": 184967.9854750007,
      "d": 55.045899999997346,
      "v": 40
    },
    {
      "midi": 61,
      "hit": false,
      "t": 184967.9854750007,
      "d": 73.3945333333395,
      "v": 36
    },
    {
      "midi": 64,
      "hit": false,
      "t": 185362.48109166737,
      "d": 105.50464166665915,
      "v": 55
    },
    {
      "midi": 61,
      "hit": false,
      "t": 185367.0682500007,
      "d": 123.8532750000013,
      "v": 43
    },
    {
      "midi": 68,
      "hit": false,
      "t": 185371.65540833405,
      "d": 100.91748333332362,
      "v": 52
    },
    {
      "midi": 64,
      "hit": false,
      "t": 185802.84829166738,
      "d": 68.80737500000396,
      "v": 59
    },
    {
      "midi": 61,
      "hit": false,
      "t": 185802.84829166738,
      "d": 77.98169166667503,
      "v": 46
    },
    {
      "midi": 68,
      "hit": false,
      "t": 185812.02260833405,
      "d": 59.63305833333288,
      "v": 57
    },
    {
      "midi": 68,
      "hit": false,
      "t": 186770.73870000071,
      "d": 87.15600833334611,
      "v": 67
    },
    {
      "midi": 64,
      "hit": false,
      "t": 186770.73870000071,
      "d": 91.74316666668165,
      "v": 63
    },
    {
      "midi": 61,
      "hit": false,
      "t": 186770.73870000071,
      "d": 96.33032500001718,
      "v": 52
    },
    {
      "midi": 66,
      "hit": false,
      "t": 187156.06000000073,
      "d": 1738.5330083333247,
      "v": 73
    },
    {
      "midi": 69,
      "hit": false,
      "t": 187156.06000000073,
      "d": 1825.6890166666708,
      "v": 60
    },
    {
      "midi": 62,
      "hit": false,
      "t": 187160.64715833406,
      "d": 1738.5330083333247,
      "v": 57
    },
    {
      "midi": 69,
      "hit": false,
      "t": 189334.96020833406,
      "d": 2036.6983000000182,
      "v": 69
    },
    {
      "midi": 64,
      "hit": false,
      "t": 189344.13452500073,
      "d": 2027.5239833333471,
      "v": 53
    },
    {
      "midi": 61,
      "hit": false,
      "t": 189348.72168333406,
      "d": 2009.175350000005,
      "v": 65
    },
    {
      "midi": 64,
      "hit": false,
      "t": 191541.3833666674,
      "d": 77.98169166667503,
      "v": 43
    },
    {
      "midi": 61,
      "hit": false,
      "t": 191541.3833666674,
      "d": 91.74316666668165,
      "v": 38
    },
    {
      "midi": 69,
      "hit": false,
      "t": 191541.3833666674,
      "d": 114.67895833335933,
      "v": 65
    },
    {
      "midi": 64,
      "hit": false,
      "t": 192000.09920000075,
      "d": 64.22021666666842,
      "v": 50
    },
    {
      "midi": 69,
      "hit": false,
      "t": 192000.09920000075,
      "d": 96.33032500001718,
      "v": 61
    },
    {
      "midi": 61,
      "hit": false,
      "t": 192004.6863583341,
      "d": 73.3945333333395,
      "v": 47
    },
    {
      "midi": 64,
      "hit": false,
      "t": 192935.87950000077,
      "d": 55.045899999997346,
      "v": 74
    },
    {
      "midi": 61,
      "hit": false,
      "t": 192935.87950000077,
      "d": 68.80737500000396,
      "v": 67
    },
    {
      "midi": 69,
      "hit": false,
      "t": 192935.87950000077,
      "d": 73.3945333333395,
      "v": 61
    },
    {
      "midi": 69,
      "hit": false,
      "t": 193325.7879583341,
      "d": 114.67895833333023,
      "v": 64
    },
    {
      "midi": 61,
      "hit": false,
      "t": 193330.37511666745,
      "d": 110.09179999999469,
      "v": 44
    },
    {
      "midi": 64,
      "hit": false,
      "t": 193334.96227500078,
      "d": 73.3945333333395,
      "v": 46
    },
    {
      "midi": 64,
      "hit": false,
      "t": 193761.56800000079,
      "d": 1724.7715333333472,
      "v": 78
    },
    {
      "midi": 61,
      "hit": false,
      "t": 193761.56800000079,
      "d": 1903.6707083333458,
      "v": 66
    },
    {
      "midi": 68,
      "hit": false,
      "t": 193761.56800000079,
      "d": 1954.1294500000076,
      "v": 81
    },
    {
      "midi": 69,
      "hit": false,
      "t": 195945.05536666745,
      "d": 2055.0469333333313,
      "v": 59
    },
    {
      "midi": 62,
      "hit": false,
      "t": 195949.6425250008,
      "d": 2018.349666666676,
      "v": 59
    },
    {
      "midi": 66,
      "hit": false,
      "t": 195954.22968333412,
      "d": 2004.5881916666694,
      "v": 47
    },
    {
      "midi": 64,
      "hit": false,
      "t": 198156.0656833341,
      "d": 64.22021666666842,
      "v": 44
    },
    {
      "midi": 68,
      "hit": false,
      "t": 198160.65284166744,
      "d": 59.63305833333288,
      "v": 40
    },
    {
      "midi": 71,
      "hit": false,
      "t": 199247.80936666744,
      "d": 729.3581750000012,
      "v": 55
    },
    {
      "midi": 65,
      "hit": false,
      "t": 199252.39652500078,
      "d": 761.4682833333209,
      "v": 64
    },
    {
      "midi": 62,
      "hit": false,
      "t": 199252.39652500078,
      "d": 798.1655499999761,
      "v": 57
    },
    {
      "midi": 68,
      "hit": false,
      "t": 199256.9836833341,
      "d": 811.9270249999827,
      "v": 60
    },
    {
      "midi": 69,
      "hit": false,
      "t": 200394.59895000077,
      "d": 2000.001033333334,
      "v": 55
    },
    {
      "midi": 61,
      "hit": false,
      "t": 200399.1861083341,
      "d": 2013.7625083333405,
      "v": 42
    },
    {
      "midi": 64,
      "hit": false,
      "t": 200403.77326666744,
      "d": 2009.175350000005,
      "v": 47
    },
    {
      "midi": 64,
      "hit": false,
      "t": 202536.80189166745,
      "d": 1706.422900000005,
      "v": 48
    },
    {
      "midi": 61,
      "hit": false,
      "t": 202536.80189166745,
      "d": 1779.8174333333445,
      "v": 34
    },
    {
      "midi": 68,
      "hit": false,
      "t": 202536.80189166745,
      "d": 1839.4504916666774,
      "v": 53
    },
    {
      "midi": 66,
      "hit": false,
      "t": 204775.3351583341,
      "d": 1802.753224999993,
      "v": 83
    },
    {
      "midi": 69,
      "hit": false,
      "t": 204775.3351583341,
      "d": 1821.1018583333353,
      "v": 47
    },
    {
      "midi": 62,
      "hit": false,
      "t": 204775.3351583341,
      "d": 1830.2761750000063,
      "v": 54
    },
    {
      "midi": 69,
      "hit": false,
      "t": 206967.99684166745,
      "d": 1389.9089749999985,
      "v": 46
    },
    {
      "midi": 64,
      "hit": false,
      "t": 206967.99684166745,
      "d": 2036.698299999989,
      "v": 40
    },
    {
      "midi": 61,
      "hit": false,
      "t": 206972.5840000008,
      "d": 2022.9368249999825,
      "v": 37
    },
    {
      "midi": 68,
      "hit": false,
      "t": 208316.62139166746,
      "d": 701.835224999988,
      "v": 48
    },
    {
      "midi": 69,
      "hit": false,
      "t": 209137.7227333341,
      "d": 2013.7625083333405,
      "v": 57
    },
    {
      "midi": 61,
      "hit": false,
      "t": 209142.30989166745,
      "d": 2027.5239833333471,
      "v": 46
    },
    {
      "midi": 64,
      "hit": false,
      "t": 209146.89705000079,
      "d": 2032.1111416666827,
      "v": 41
    },
    {
      "midi": 61,
      "hit": false,
      "t": 211353.32020833413,
      "d": 1830.2761750000063,
      "v": 41
    },
    {
      "midi": 64,
      "hit": false,
      "t": 211353.32020833413,
      "d": 1834.8633333333419,
      "v": 53
    },
    {
      "midi": 68,
      "hit": false,
      "t": 211357.90736666747,
      "d": 1908.2578666666814,
      "v": 53
    },
    {
      "midi": 66,
      "hit": false,
      "t": 213578.09200000082,
      "d": 2247.7075833333365,
      "v": 51
    },
    {
      "midi": 69,
      "hit": false,
      "t": 213578.09200000082,
      "d": 2293.579166666663,
      "v": 50
    },
    {
      "midi": 62,
      "hit": false,
      "t": 213582.67915833415,
      "d": 2229.3589499999944,
      "v": 67
    },
    {
      "midi": 69,
      "hit": false,
      "t": 216582.68070833414,
      "d": 366.9726666666684,
      "v": 92
    },
    {
      "midi": 68,
      "hit": false,
      "t": 216876.25884166747,
      "d": 958.7160916666617,
      "v": 83
    },
    {
      "midi": 71,
      "hit": false,
      "t": 217417.5435250008,
      "d": 316.51392500000657,
      "v": 119
    },
    {
      "midi": 61,
      "hit": false,
      "t": 217972.58968333414,
      "d": 926.605983333342,
      "v": 66
    },
    {
      "midi": 64,
      "hit": false,
      "t": 217990.93831666748,
      "d": 688.0737499999814,
      "v": 54
    },
    {
      "midi": 69,
      "hit": false,
      "t": 218032.22274166747,
      "d": 935.7803000000131,
      "v": 45
    },
    {
      "midi": 66,
      "hit": false,
      "t": 218784.51670833412,
      "d": 87.15600833334611,
      "v": 59
    },
    {
      "midi": 66,
      "hit": false,
      "t": 219380.84729166748,
      "d": 50.45874166666181,
      "v": 73
    },
    {
      "midi": 61,
      "hit": false,
      "t": 219380.84729166748,
      "d": 55.045899999997346,
      "v": 67
    },
    {
      "midi": 69,
      "hit": false,
      "t": 219380.84729166748,
      "d": 64.22021666666842,
      "v": 66
    },
    {
      "midi": 66,
      "hit": false,
      "t": 219802.86585833415,
      "d": 73.3945333333395,
      "v": 47
    },
    {
      "midi": 61,
      "hit": false,
      "t": 219802.86585833415,
      "d": 77.98169166667503,
      "v": 43
    },
    {
      "midi": 69,
      "hit": false,
      "t": 219807.45301666748,
      "d": 82.56885000001057,
      "v": 51
    },
    {
      "midi": 68,
      "hit": false,
      "t": 220224.8844250008,
      "d": 59.63305833333288,
      "v": 54
    },
    {
      "midi": 64,
      "hit": false,
      "t": 220224.8844250008,
      "d": 64.22021666666842,
      "v": 63
    },
    {
      "midi": 61,
      "hit": false,
      "t": 220224.8844250008,
      "d": 73.3945333333395,
      "v": 54
    },
    {
      "midi": 64,
      "hit": false,
      "t": 220605.6185666675,
      "d": 68.80737500000396,
      "v": 53
    },
    {
      "midi": 61,
      "hit": false,
      "t": 220605.6185666675,
      "d": 87.15600833334611,
      "v": 45
    },
    {
      "midi": 68,
      "hit": false,
      "t": 220610.20572500082,
      "d": 64.22021666666842,
      "v": 49
    },
    {
      "midi": 61,
      "hit": false,
      "t": 221302.86663333417,
      "d": 128.44043333333684,
      "v": 54
    },
    {
      "midi": 64,
      "hit": false,
      "t": 221307.4537916675,
      "d": 110.09179999999469,
      "v": 58
    },
    {
      "midi": 68,
      "hit": false,
      "t": 221312.04095000084,
      "d": 96.33032499998808,
      "v": 50
    },
    {
      "midi": 61,
      "hit": false,
      "t": 221711.12372500083,
      "d": 155.96338333335007,
      "v": 51
    },
    {
      "midi": 64,
      "hit": false,
      "t": 221711.12372500083,
      "d": 178.89917500002775,
      "v": 59
    },
    {
      "midi": 68,
      "hit": false,
      "t": 221715.71088333416,
      "d": 151.37622500001453,
      "v": 57
    },
    {
      "midi": 66,
      "hit": false,
      "t": 222399.19747500087,
      "d": 252.29370833333815,
      "v": 97
    },
    {
      "midi": 69,
      "hit": false,
      "t": 222399.19747500087,
      "d": 261.4680250000092,
      "v": 63
    },
    {
      "midi": 62,
      "hit": false,
      "t": 222399.19747500087,
      "d": 270.6423416666803,
      "v": 84
    },
    {
      "midi": 62,
      "hit": false,
      "t": 222812.0417250009,
      "d": 596.3305833333288,
      "v": 59
    },
    {
      "midi": 66,
      "hit": false,
      "t": 222816.62888333423,
      "d": 605.5048999999999,
      "v": 55
    },
    {
      "midi": 69,
      "hit": false,
      "t": 222821.21604166756,
      "d": 591.7434249999933,
      "v": 61
    },
    {
      "midi": 62,
      "hit": false,
      "t": 223518.4641083342,
      "d": 344.0368749999907,
      "v": 59
    },
    {
      "midi": 66,
      "hit": false,
      "t": 223518.4641083342,
      "d": 357.7983499999973,
      "v": 53
    },
    {
      "midi": 69,
      "hit": false,
      "t": 223527.63842500089,
      "d": 344.0368749999907,
      "v": 63
    },
    {
      "midi": 66,
      "hit": false,
      "t": 223931.3083583342,
      "d": 536.697524999996,
      "v": 55
    },
    {
      "midi": 62,
      "hit": false,
      "t": 223931.3083583342,
      "d": 573.3947916666511,
      "v": 54
    },
    {
      "midi": 69,
      "hit": false,
      "t": 223931.3083583342,
      "d": 605.5048999999708,
      "v": 67
    },
    {
      "midi": 64,
      "hit": false,
      "t": 224623.96926666753,
      "d": 931.1931416666484,
      "v": 78
    },
    {
      "midi": 62,
      "hit": false,
      "t": 224628.55642500086,
      "d": 885.3215583333222,
      "v": 50
    },
    {
      "midi": 68,
      "hit": false,
      "t": 224628.55642500086,
      "d": 954.1289333333261,
      "v": 58
    },
    {
      "midi": 68,
      "hit": false,
      "t": 225674.42852500084,
      "d": 857.798608333338,
      "v": 57
    },
    {
      "midi": 71,
      "hit": false,
      "t": 225679.01568333418,
      "d": 784.4040749999986,
      "v": 78
    },
    {
      "midi": 64,
      "hit": false,
      "t": 225683.6028416675,
      "d": 807.3398666666762,
      "v": 66
    },
    {
      "midi": 69,
      "hit": false,
      "t": 225688.19000000085,
      "d": 160.5505416666565,
      "v": 62
    },
    {
      "midi": 62,
      "hit": false,
      "t": 225688.19000000085,
      "d": 798.1655500000052,
      "v": 66
    },
    {
      "midi": 69,
      "hit": false,
      "t": 226793.6951583342,
      "d": 220.18359999998938,
      "v": 61
    },
    {
      "midi": 64,
      "hit": false,
      "t": 226793.6951583342,
      "d": 224.77075833332492,
      "v": 61
    },
    {
      "midi": 61,
      "hit": false,
      "t": 226798.28231666752,
      "d": 229.35791666666046,
      "v": 79
    },
    {
      "midi": 64,
      "hit": false,
      "t": 227224.88804166752,
      "d": 169.72485833335668,
      "v": 59
    },
    {
      "midi": 61,
      "hit": false,
      "t": 227234.0623583342,
      "d": 105.50464166668826,
      "v": 50
    },
    {
      "midi": 69,
      "hit": false,
      "t": 227238.64951666753,
      "d": 82.56885000001057,
      "v": 54
    },
    {
      "midi": 61,
      "hit": false,
      "t": 227926.72326666754,
      "d": 155.96338333335007,
      "v": 68
    },
    {
      "midi": 64,
      "hit": false,
      "t": 227926.72326666754,
      "d": 165.13770000002114,
      "v": 61
    },
    {
      "midi": 69,
      "hit": false,
      "t": 227931.31042500088,
      "d": 151.37622500001453,
      "v": 77
    },
    {
      "midi": 69,
      "hit": false,
      "t": 228289.1087750009,
      "d": 637.6150083333487,
      "v": 67
    },
    {
      "midi": 61,
      "hit": false,
      "t": 228293.69593333424,
      "d": 619.2663750000065,
      "v": 55
    },
    {
      "midi": 64,
      "hit": false,
      "t": 228298.28309166757,
      "d": 642.2021666666842,
      "v": 58
    },
    {
      "midi": 61,
      "hit": false,
      "t": 229000.1183166676,
      "d": 1050.4592583333433,
      "v": 57
    },
    {
      "midi": 64,
      "hit": false,
      "t": 229000.1183166676,
      "d": 1055.0464166666789,
      "v": 51
    },
    {
      "midi": 68,
      "hit": false,
      "t": 229000.1183166676,
      "d": 1059.6335750000144,
      "v": 78
    },
    {
      "midi": 68,
      "hit": false,
      "t": 230357.91718333427,
      "d": 50.45874166666181,
      "v": 81
    },
    {
      "midi": 64,
      "hit": false,
      "t": 230357.91718333427,
      "d": 59.63305833333288,
      "v": 79
    },
    {
      "midi": 61,
      "hit": false,
      "t": 230357.91718333427,
      "d": 64.22021666666842,
      "v": 75
    },
    {
      "midi": 61,
      "hit": false,
      "t": 230743.23848333428,
      "d": 73.3945333333395,
      "v": 59
    },
    {
      "midi": 64,
      "hit": false,
      "t": 230743.23848333428,
      "d": 73.3945333333395,
      "v": 59
    },
    {
      "midi": 68,
      "hit": false,
      "t": 230747.82564166762,
      "d": 55.045899999997346,
      "v": 51
    },
    {
      "midi": 62,
      "hit": false,
      "t": 231188.19284166762,
      "d": 1266.0556999999972,
      "v": 63
    },
    {
      "midi": 66,
      "hit": false,
      "t": 231188.19284166762,
      "d": 1284.4043333333393,
      "v": 60
    },
    {
      "midi": 69,
      "hit": false,
      "t": 231188.19284166762,
      "d": 1284.4043333333393,
      "v": 64
    },
    {
      "midi": 66,
      "hit": false,
      "t": 232550.57886666764,
      "d": 68.80737500000396,
      "v": 57
    },
    {
      "midi": 69,
      "hit": false,
      "t": 232555.16602500097,
      "d": 91.74316666668165,
      "v": 65
    },
    {
      "midi": 62,
      "hit": false,
      "t": 232564.34034166764,
      "d": 64.22021666666842,
      "v": 57
    },
    {
      "midi": 66,
      "hit": false,
      "t": 232926.72585000098,
      "d": 73.3945333333395,
      "v": 69
    },
    {
      "midi": 69,
      "hit": false,
      "t": 232931.3130083343,
      "d": 270.6423416666803,
      "v": 67
    },
    {
      "midi": 62,
      "hit": false,
      "t": 232935.90016666765,
      "d": 82.56885000001057,
      "v": 65
    },
    {
      "midi": 69,
      "hit": false,
      "t": 233353.331575001,
      "d": 1155.9639000000025,
      "v": 70
    },
    {
      "midi": 62,
      "hit": false,
      "t": 233362.50589166768,
      "d": 2100.9185166666575,
      "v": 78
    },
    {
      "midi": 64,
      "hit": false,
      "t": 233362.50589166768,
      "d": 4000.002066666668,
      "v": 99
    },
    {
      "midi": 68,
      "hit": false,
      "t": 234486.35968333433,
      "d": 1169.725375000009,
      "v": 119
    },
    {
      "midi": 69,
      "hit": false,
      "t": 235591.86484166767,
      "d": 1770.6431166666734,
      "v": 69
    },
    {
      "midi": 61,
      "hit": false,
      "t": 235610.21347500102,
      "d": 1752.2944833333313,
      "v": 83
    }
  ]
}