{
  "jsonPath": "Rock/Country Rock/Dr Hook/what-about-you.json",
  "path": "Rock\\Country Rock\\Dr Hook\\What About You.mid",
  "name": "What About You",
  "difficulty": "Advanced",
  "bpm": 60,
  "notes": [
    {
      "midi": 74,
      "hit": false,
      "t": 5491.666666666666,
      "d": 408.33333333333303,
      "v": 110
    },
    {
      "midi": 76,
      "hit": false,
      "t": 5724.999999999999,
      "d": 308.33333333333303,
      "v": 110
    },
    {
      "midi": 78,
      "hit": false,
      "t": 5999.999999999999,
      "d": 474.9999999999991,
      "v": 110
    },
    {
      "midi": 62,
      "hit": false,
      "t": 5999.999999999999,
      "d": 1991.666666666666,
      "v": 110
    },
    {
      "midi": 66,
      "hit": false,
      "t": 5999.999999999999,
      "d": 1991.666666666666,
      "v": 110
    },
    {
      "midi": 69,
      "hit": false,
      "t": 5999.999999999999,
      "d": 1991.666666666666,
      "v": 110
    },
    {
      "midi": 76,
      "hit": false,
      "t": 6466.666666666665,
      "d": 341.66666666666697,
      "v": 110
    },
    {
      "midi": 78,
      "hit": false,
      "t": 6766.666666666665,
      "d": 466.66666666666697,
      "v": 110
    },
    {
      "midi": 81,
      "hit": false,
      "t": 7199.999999999999,
      "d": 516.6666666666661,
      "v": 110
    },
    {
      "midi": 76,
      "hit": false,
      "t": 7749.999999999998,
      "d": 550,
      "v": 110
    },
    {
      "midi": 74,
      "hit": false,
      "t": 7999.999999999998,
      "d": 1000,
      "v": 110
    },
    {
      "midi": 59,
      "hit": false,
      "t": 7999.999999999998,
      "d": 1991.666666666666,
      "v": 110
    },
    {
      "midi": 62,
      "hit": false,
      "t": 7999.999999999998,
      "d": 1991.666666666666,
      "v": 110
    },
    {
      "midi": 66,
      "hit": false,
      "t": 7999.999999999998,
      "d": 1991.666666666666,
      "v": 110
    },
    {
      "midi": 74,
      "hit": false,
      "t": 9491.666666666664,
      "d": 408.33333333333394,
      "v": 110
    },
    {
      "midi": 76,
      "hit": false,
      "t": 9724.999999999998,
      "d": 308.33333333333394,
      "v": 110
    },
    {
      "midi": 78,
      "hit": false,
      "t": 9999.999999999998,
      "d": 475.0000000000018,
      "v": 110
    },
    {
      "midi": 62,
      "hit": false,
      "t": 9999.999999999998,
      "d": 1991.6666666666679,
      "v": 110
    },
    {
      "midi": 66,
      "hit": false,
      "t": 9999.999999999998,
      "d": 1991.6666666666679,
      "v": 110
    },
    {
      "midi": 69,
      "hit": false,
      "t": 9999.999999999998,
      "d": 1991.6666666666679,
      "v": 110
    },
    {
      "midi": 76,
      "hit": false,
      "t": 10466.666666666666,
      "d": 341.66666666666606,
      "v": 110
    },
    {
      "midi": 78,
      "hit": false,
      "t": 10766.666666666666,
      "d": 466.66666666666606,
      "v": 110
    },
    {
      "midi": 81,
      "hit": false,
      "t": 11199.999999999998,
      "d": 516.6666666666679,
      "v": 110
    },
    {
      "midi": 76,
      "hit": false,
      "t": 11750,
      "d": 550,
      "v": 110
    },
    {
      "midi": 74,
      "hit": false,
      "t": 12000,
      "d": 1000,
      "v": 110
    },
    {
      "midi": 62,
      "hit": false,
      "t": 12000,
      "d": 1991.666666666666,
      "v": 110
    },
    {
      "midi": 66,
      "hit": false,
      "t": 12000,
      "d": 1991.666666666666,
      "v": 110
    },
    {
      "midi": 78,
      "hit": false,
      "t": 13466.666666666666,
      "d": 250,
      "v": 110
    },
    {
      "midi": 74,
      "hit": false,
      "t": 13708.333333333332,
      "d": 308.33333333333394,
      "v": 110
    },
    {
      "midi": 76,
      "hit": false,
      "t": 14000,
      "d": 1549.9999999999982,
      "v": 110
    },
    {
      "midi": 59,
      "hit": false,
      "t": 14000,
      "d": 1991.666666666666,
      "v": 110
    },
    {
      "midi": 64,
      "hit": false,
      "t": 14000,
      "d": 1991.666666666666,
      "v": 110
    },
    {
      "midi": 67,
      "hit": false,
      "t": 14000,
      "d": 1991.666666666666,
      "v": 110
    },
    {
      "midi": 71,
      "hit": false,
      "t": 15458.333333333332,
      "d": 325,
      "v": 110
    },
    {
      "midi": 74,
      "hit": false,
      "t": 15708.333333333332,
      "d": 291.6666666666679,
      "v": 110
    },
    {
      "midi": 76,
      "hit": false,
      "t": 16000,
      "d": 800,
      "v": 110
    },
    {
      "midi": 64,
      "hit": false,
      "t": 16000,
      "d": 1950,
      "v": 110
    },
    {
      "midi": 57,
      "hit": false,
      "t": 16000,
      "d": 1991.6666666666679,
      "v": 110
    },
    {
      "midi": 61,
      "hit": false,
      "t": 16000,
      "d": 1991.6666666666679,
      "v": 110
    },
    {
      "midi": 73,
      "hit": false,
      "t": 16808.333333333332,
      "d": 766.6666666666679,
      "v": 110
    },
    {
      "midi": 71,
      "hit": false,
      "t": 17558.333333333332,
      "d": 766.6666666666679,
      "v": 110
    },
    {
      "midi": 57,
      "hit": false,
      "t": 18000,
      "d": 1991.6666666666642,
      "v": 110
    },
    {
      "midi": 61,
      "hit": false,
      "t": 18000,
      "d": 1991.6666666666642,
      "v": 110
    },
    {
      "midi": 64,
      "hit": false,
      "t": 18000,
      "d": 1991.6666666666642,
      "v": 110
    },
    {
      "midi": 69,
      "hit": false,
      "t": 18300,
      "d": 716.6666666666679,
      "v": 110
    },
    {
      "midi": 67,
      "hit": false,
      "t": 19000,
      "d": 375,
      "v": 110
    },
    {
      "midi": 71,
      "hit": false,
      "t": 19550,
      "d": 283.3333333333321,
      "v": 110
    },
    {
      "midi": 74,
      "hit": false,
      "t": 19783.333333333332,
      "d": 308.3333333333321,
      "v": 110
    },
    {
      "midi": 61,
      "hit": false,
      "t": 19999.999999999996,
      "d": 4991.666666666661,
      "v": 110
    },
    {
      "midi": 57,
      "hit": false,
      "t": 19999.999999999996,
      "d": 5074.999999999993,
      "v": 110
    },
    {
      "midi": 76,
      "hit": false,
      "t": 20049.999999999996,
      "d": 991.6666666666679,
      "v": 110
    },
    {
      "midi": 74,
      "hit": false,
      "t": 21999.999999999996,
      "d": 300,
      "v": 110
    },
    {
      "midi": 73,
      "hit": false,
      "t": 22241.666666666664,
      "d": 283.3333333333321,
      "v": 110
    },
    {
      "midi": 71,
      "hit": false,
      "t": 22483.33333333333,
      "d": 266.6666666666679,
      "v": 110
    },
    {
      "midi": 69,
      "hit": false,
      "t": 22716.666666666664,
      "d": 266.66666666666424,
      "v": 110
    },
    {
      "midi": 71,
      "hit": false,
      "t": 22949.999999999996,
      "d": 316.66666666666424,
      "v": 110
    },
    {
      "midi": 69,
      "hit": false,
      "t": 23216.66666666666,
      "d": 316.66666666666424,
      "v": 110
    },
    {
      "midi": 66,
      "hit": false,
      "t": 23499.999999999993,
      "d": 208.33333333333212,
      "v": 110
    },
    {
      "midi": 69,
      "hit": false,
      "t": 23674.999999999993,
      "d": 1291.6666666666642,
      "v": 110
    },
    {
      "midi": 50,
      "hit": false,
      "t": 24499.999999999993,
      "d": 408.3333333333321,
      "v": 110
    },
    {
      "midi": 64,
      "hit": false,
      "t": 24749.999999999993,
      "d": 241.66666666666424,
      "v": 110
    },
    {
      "midi": 62,
      "hit": false,
      "t": 24999.99999999999,
      "d": 1991.6666666666679,
      "v": 110
    },
    {
      "midi": 66,
      "hit": false,
      "t": 24999.99999999999,
      "d": 1991.6666666666679,
      "v": 110
    },
    {
      "midi": 69,
      "hit": false,
      "t": 24999.99999999999,
      "d": 1991.6666666666679,
      "v": 110
    },
    {
      "midi": 74,
      "hit": false,
      "t": 24999.99999999999,
      "d": 1991.6666666666679,
      "v": 110
    },
    {
      "midi": 57,
      "hit": false,
      "t": 26999.99999999999,
      "d": 1833.3333333333321,
      "v": 110
    },
    {
      "midi": 61,
      "hit": false,
      "t": 26999.99999999999,
      "d": 1833.3333333333321,
      "v": 110
    },
    {
      "midi": 64,
      "hit": false,
      "t": 26999.99999999999,
      "d": 1991.6666666666642,
      "v": 110
    },
    {
      "midi": 73,
      "hit": false,
      "t": 27016.666666666657,
      "d": 575,
      "v": 110
    },
    {
      "midi": 74,
      "hit": false,
      "t": 27541.666666666657,
      "d": 325,
      "v": 110
    },
    {
      "midi": 76,
      "hit": false,
      "t": 27833.333333333325,
      "d": 941.6666666666642,
      "v": 110
    },
    {
      "midi": 59,
      "hit": false,
      "t": 28999.999999999985,
      "d": 1916.6666666666679,
      "v": 110
    },
    {
      "midi": 66,
      "hit": false,
      "t": 28999.999999999985,
      "d": 1916.6666666666679,
      "v": 110
    },
    {
      "midi": 62,
      "hit": false,
      "t": 28999.999999999985,
      "d": 1941.6666666666679,
      "v": 110
    },
    {
      "midi": 78,
      "hit": false,
      "t": 28999.999999999985,
      "d": 1991.6666666666679,
      "v": 110
    },
    {
      "midi": 71,
      "hit": false,
      "t": 30999.999999999985,
      "d": 583.3333333333321,
      "v": 110
    },
    {
      "midi": 55,
      "hit": false,
      "t": 30999.999999999985,
      "d": 1991.6666666666642,
      "v": 110
    },
    {
      "midi": 59,
      "hit": false,
      "t": 30999.999999999985,
      "d": 1991.6666666666642,
      "v": 110
    },
    {
      "midi": 62,
      "hit": false,
      "t": 30999.999999999985,
      "d": 1991.6666666666642,
      "v": 110
    },
    {
      "midi": 72,
      "hit": false,
      "t": 31533.333333333318,
      "d": 300,
      "v": 110
    },
    {
      "midi": 71,
      "hit": false,
      "t": 31799.999999999985,
      "d": 516.6666666666642,
      "v": 110
    },
    {
      "midi": 69,
      "hit": false,
      "t": 32283.333333333318,
      "d": 308.3333333333321,
      "v": 110
    },
    {
      "midi": 67,
      "hit": false,
      "t": 32558.333333333318,
      "d": 566.6666666666679,
      "v": 110
    },
    {
      "midi": 62,
      "hit": false,
      "t": 32999.999999999985,
      "d": 991.6666666666642,
      "v": 110
    },
    {
      "midi": 66,
      "hit": false,
      "t": 32999.999999999985,
      "d": 991.6666666666642,
      "v": 110
    },
    {
      "midi": 69,
      "hit": false,
      "t": 32999.999999999985,
      "d": 991.6666666666642,
      "v": 110
    },
    {
      "midi": 78,
      "hit": false,
      "t": 32999.999999999985,
      "d": 991.6666666666642,
      "v": 110
    },
    {
      "midi": 61,
      "hit": false,
      "t": 33999.999999999985,
      "d": 991.6666666666642,
      "v": 110
    },
    {
      "midi": 66,
      "hit": false,
      "t": 33999.999999999985,
      "d": 991.6666666666642,
      "v": 110
    },
    {
      "midi": 69,
      "hit": false,
      "t": 33999.999999999985,
      "d": 991.6666666666642,
      "v": 110
    },
    {
      "midi": 76,
      "hit": false,
      "t": 33999.999999999985,
      "d": 991.6666666666642,
      "v": 110
    },
    {
      "midi": 59,
      "hit": false,
      "t": 34999.999999999985,
      "d": 1991.6666666666642,
      "v": 110
    },
    {
      "midi": 62,
      "hit": false,
      "t": 34999.999999999985,
      "d": 1991.6666666666642,
      "v": 110
    },
    {
      "midi": 66,
      "hit": false,
      "t": 34999.999999999985,
      "d": 1991.6666666666642,
      "v": 110
    },
    {
      "midi": 74,
      "hit": false,
      "t": 34999.999999999985,
      "d": 1991.6666666666642,
      "v": 110
    },
    {
      "midi": 64,
      "hit": false,
      "t": 36999.999999999985,
      "d": 625,
      "v": 110
    },
    {
      "midi": 67,
      "hit": false,
      "t": 36999.999999999985,
      "d": 625,
      "v": 110
    },
    {
      "midi": 57,
      "hit": false,
      "t": 36999.999999999985,
      "d": 1991.6666666666715,
      "v": 110
    },
    {
      "midi": 61,
      "hit": false,
      "t": 36999.999999999985,
      "d": 1991.6666666666715,
      "v": 110
    },
    {
      "midi": 69,
      "hit": false,
      "t": 37499.999999999985,
      "d": 191.66666666666424,
      "v": 110
    },
    {
      "midi": 67,
      "hit": false,
      "t": 37791.66666666665,
      "d": 541.6666666666715,
      "v": 110
    },
    {
      "midi": 71,
      "hit": false,
      "t": 37791.66666666665,
      "d": 541.6666666666715,
      "v": 110
    },
    {
      "midi": 74,
      "hit": false,
      "t": 38299.999999999985,
      "d": 658.3333333333358,
      "v": 110
    },
    {
      "midi": 57,
      "hit": false,
      "t": 38999.99999999999,
      "d": 1991.6666666666715,
      "v": 110
    },
    {
      "midi": 61,
      "hit": false,
      "t": 38999.99999999999,
      "d": 1991.6666666666715,
      "v": 110
    },
    {
      "midi": 64,
      "hit": false,
      "t": 38999.99999999999,
      "d": 1991.6666666666715,
      "v": 110
    },
    {
      "midi": 74,
      "hit": false,
      "t": 39058.33333333333,
      "d": 258.33333333333576,
      "v": 110
    },
    {
      "midi": 78,
      "hit": false,
      "t": 39058.33333333333,
      "d": 258.33333333333576,
      "v": 110
    },
    {
      "midi": 76,
      "hit": false,
      "t": 39283.33333333333,
      "d": 233.33333333333576,
      "v": 110
    },
    {
      "midi": 74,
      "hit": false,
      "t": 39491.666666666664,
      "d": 308.33333333333576,
      "v": 110
    },
    {
      "midi": 73,
      "hit": false,
      "t": 39750,
      "d": 1075,
      "v": 110
    },
    {
      "midi": 76,
      "hit": false,
      "t": 39750,
      "d": 1075,
      "v": 110
    },
    {
      "midi": 59,
      "hit": false,
      "t": 41000,
      "d": 1916.6666666666642,
      "v": 110
    },
    {
      "midi": 66,
      "hit": false,
      "t": 41000,
      "d": 1916.6666666666642,
      "v": 110
    },
    {
      "midi": 62,
      "hit": false,
      "t": 41000,
      "d": 1941.6666666666642,
      "v": 110
    },
    {
      "midi": 74,
      "hit": false,
      "t": 41000,
      "d": 1991.6666666666642,
      "v": 110
    },
    {
      "midi": 57,
      "hit": false,
      "t": 43000,
      "d": 1991.6666666666642,
      "v": 110
    },
    {
      "midi": 62,
      "hit": false,
      "t": 43000,
      "d": 1991.6666666666642,
      "v": 110
    },
    {
      "midi": 66,
      "hit": false,
      "t": 43000,
      "d": 1991.6666666666642,
      "v": 110
    },
    {
      "midi": 71,
      "hit": false,
      "t": 43000,
      "d": 1991.6666666666642,
      "v": 110
    },
    {
      "midi": 52,
      "hit": false,
      "t": 45000,
      "d": 1991.6666666666642,
      "v": 110
    },
    {
      "midi": 56,
      "hit": false,
      "t": 45000,
      "d": 1991.6666666666642,
      "v": 110
    },
    {
      "midi": 59,
      "hit": false,
      "t": 45000,
      "d": 1991.6666666666642,
      "v": 110
    },
    {
      "midi": 64,
      "hit": false,
      "t": 45000,
      "d": 1991.6666666666642,
      "v": 110
    },
    {
      "midi": 52,
      "hit": false,
      "t": 47000,
      "d": 1991.6666666666715,
      "v": 110
    },
    {
      "midi": 56,
      "hit": false,
      "t": 47000,
      "d": 1991.6666666666715,
      "v": 110
    },
    {
      "midi": 59,
      "hit": false,
      "t": 47000,
      "d": 1991.6666666666715,
      "v": 110
    },
    {
      "midi": 74,
      "hit": false,
      "t": 47058.333333333336,
      "d": 275,
      "v": 110
    },
    {
      "midi": 76,
      "hit": false,
      "t": 47308.333333333336,
      "d": 275,
      "v": 110
    },
    {
      "midi": 78,
      "hit": false,
      "t": 47550,
      "d": 250.00000000000728,
      "v": 110
    },
    {
      "midi": 83,
      "hit": false,
      "t": 47791.66666666667,
      "d": 1133.3333333333358,
      "v": 110
    },
    {
      "midi": 57,
      "hit": false,
      "t": 49000.00000000001,
      "d": 1833.3333333333358,
      "v": 110
    },
    {
      "midi": 61,
      "hit": false,
      "t": 49000.00000000001,
      "d": 1833.3333333333358,
      "v": 110
    },
    {
      "midi": 64,
      "hit": false,
      "t": 49000.00000000001,
      "d": 1991.6666666666715,
      "v": 110
    },
    {
      "midi": 76,
      "hit": false,
      "t": 49000.00000000001,
      "d": 1991.6666666666715,
      "v": 110
    },
    {
      "midi": 59,
      "hit": false,
      "t": 51000.000000000015,
      "d": 1991.6666666666642,
      "v": 110
    },
    {
      "midi": 64,
      "hit": false,
      "t": 51000.000000000015,
      "d": 1991.6666666666642,
      "v": 110
    },
    {
      "midi": 67,
      "hit": false,
      "t": 51000.000000000015,
      "d": 1991.6666666666642,
      "v": 110
    },
    {
      "midi": 74,
      "hit": false,
      "t": 51000.000000000015,
      "d": 1991.6666666666642,
      "v": 110
    },
    {
      "midi": 57,
      "hit": false,
      "t": 53000.000000000015,
      "d": 1991.6666666666642,
      "v": 110
    },
    {
      "midi": 61,
      "hit": false,
      "t": 53000.000000000015,
      "d": 1991.6666666666642,
      "v": 110
    },
    {
      "midi": 64,
      "hit": false,
      "t": 53000.000000000015,
      "d": 1991.6666666666642,
      "v": 110
    },
    {
      "midi": 71,
      "hit": false,
      "t": 53000.000000000015,
      "d": 1991.6666666666642,
      "v": 110
    },
    {
      "midi": 74,
      "hit": false,
      "t": 55000.000000000015,
      "d": 741.6666666666642,
      "v": 110
    },
    {
      "midi": 57,
      "hit": false,
      "t": 55000.000000000015,
      "d": 1991.6666666666642,
      "v": 110
    },
    {
      "midi": 61,
      "hit": false,
      "t": 55000.000000000015,
      "d": 1991.6666666666642,
      "v": 110
    },
    {
      "midi": 67,
      "hit": false,
      "t": 55000.000000000015,
      "d": 1991.6666666666642,
      "v": 110
    },
    {
      "midi": 73,
      "hit": false,
      "t": 55750.000000000015,
      "d": 741.6666666666642,
      "v": 110
    },
    {
      "midi": 62,
      "hit": false,
      "t": 57000.000000000015,
      "d": 1991.6666666666642,
      "v": 110
    },
    {
      "midi": 66,
      "hit": false,
      "t": 57000.000000000015,
      "d": 1991.6666666666642,
      "v": 110
    },
    {
      "midi": 69,
      "hit": false,
      "t": 57000.000000000015,
      "d": 1991.6666666666642,
      "v": 110
    },
    {
      "midi": 74,
      "hit": false,
      "t": 57000.000000000015,
      "d": 1991.6666666666642,
      "v": 110
    },
    {
      "midi": 64,
      "hit": false,
      "t": 59000.000000000015,
      "d": 1991.6666666666715,
      "v": 110
    },
    {
      "midi": 69,
      "hit": false,
      "t": 59000.000000000015,
      "d": 1991.6666666666715,
      "v": 110
    },
    {
      "midi": 73,
      "hit": false,
      "t": 59058.33333333335,
      "d": 508.33333333333576,
      "v": 110
    },
    {
      "midi": 74,
      "hit": false,
      "t": 59516.666666666686,
      "d": 308.33333333333576,
      "v": 110
    },
    {
      "midi": 73,
      "hit": false,
      "t": 59791.666666666686,
      "d": 1250,
      "v": 110
    },
    {
      "midi": 59,
      "hit": false,
      "t": 61000.00000000002,
      "d": 1916.6666666666642,
      "v": 110
    },
    {
      "midi": 66,
      "hit": false,
      "t": 61000.00000000002,
      "d": 1916.6666666666642,
      "v": 110
    },
    {
      "midi": 62,
      "hit": false,
      "t": 61000.00000000002,
      "d": 1941.6666666666642,
      "v": 110
    },
    {
      "midi": 71,
      "hit": false,
      "t": 61000.00000000002,
      "d": 1991.6666666666642,
      "v": 110
    },
    {
      "midi": 62,
      "hit": false,
      "t": 63000.00000000002,
      "d": 1991.6666666666642,
      "v": 110
    },
    {
      "midi": 67,
      "hit": false,
      "t": 63000.00000000002,
      "d": 1991.6666666666642,
      "v": 110
    },
    {
      "midi": 71,
      "hit": false,
      "t": 63050.00000000002,
      "d": 500,
      "v": 110
    },
    {
      "midi": 72,
      "hit": false,
      "t": 63500.00000000002,
      "d": 316.66666666666424,
      "v": 110
    },
    {
      "midi": 71,
      "hit": false,
      "t": 63791.666666666686,
      "d": 675,
      "v": 110
    },
    {
      "midi": 62,
      "hit": false,
      "t": 65000.00000000002,
      "d": 991.6666666666642,
      "v": 110
    },
    {
      "midi": 66,
      "hit": false,
      "t": 65000.00000000002,
      "d": 991.6666666666642,
      "v": 110
    },
    {
      "midi": 69,
      "hit": false,
      "t": 65000.00000000002,
      "d": 991.6666666666642,
      "v": 110
    },
    {
      "midi": 74,
      "hit": false,
      "t": 65000.00000000002,
      "d": 1991.6666666666642,
      "v": 110
    },
    {
      "midi": 61,
      "hit": false,
      "t": 66000.00000000001,
      "d": 991.6666666666715,
      "v": 110
    },
    {
      "midi": 66,
      "hit": false,
      "t": 66000.00000000001,
      "d": 991.6666666666715,
      "v": 110
    },
    {
      "midi": 69,
      "hit": false,
      "t": 66000.00000000001,
      "d": 991.6666666666715,
      "v": 110
    },
    {
      "midi": 59,
      "hit": false,
      "t": 67000.00000000001,
      "d": 1991.6666666666715,
      "v": 110
    },
    {
      "midi": 62,
      "hit": false,
      "t": 67000.00000000001,
      "d": 1991.6666666666715,
      "v": 110
    },
    {
      "midi": 66,
      "hit": false,
      "t": 67000.00000000001,
      "d": 1991.6666666666715,
      "v": 110
    },
    {
      "midi": 71,
      "hit": false,
      "t": 67000.00000000001,
      "d": 1991.6666666666715,
      "v": 110
    },
    {
      "midi": 57,
      "hit": false,
      "t": 69000.00000000001,
      "d": 1991.6666666666715,
      "v": 110
    },
    {
      "midi": 61,
      "hit": false,
      "t": 69000.00000000001,
      "d": 1991.6666666666715,
      "v": 110
    },
    {
      "midi": 64,
      "hit": false,
      "t": 69000.00000000001,
      "d": 1991.6666666666715,
      "v": 110
    },
    {
      "midi": 69,
      "hit": false,
      "t": 69000.00000000001,
      "d": 1991.6666666666715,
      "v": 110
    },
    {
      "midi": 61,
      "hit": false,
      "t": 71000.00000000001,
      "d": 1991.666666666657,
      "v": 110
    },
    {
      "midi": 64,
      "hit": false,
      "t": 71000.00000000001,
      "d": 1991.666666666657,
      "v": 110
    },
    {
      "midi": 69,
      "hit": false,
      "t": 71000.00000000001,
      "d": 1991.666666666657,
      "v": 110
    },
    {
      "midi": 76,
      "hit": false,
      "t": 71050.00000000001,
      "d": 733.3333333333285,
      "v": 110
    },
    {
      "midi": 74,
      "hit": false,
      "t": 71750.00000000001,
      "d": 566.666666666657,
      "v": 110
    },
    {
      "midi": 73,
      "hit": false,
      "t": 72291.66666666667,
      "d": 1200,
      "v": 110
    },
    {
      "midi": 59,
      "hit": false,
      "t": 73000,
      "d": 1916.6666666666715,
      "v": 110
    },
    {
      "midi": 66,
      "hit": false,
      "t": 73000,
      "d": 1916.6666666666715,
      "v": 110
    },
    {
      "midi": 62,
      "hit": false,
      "t": 73000,
      "d": 1941.6666666666715,
      "v": 110
    },
    {
      "midi": 57,
      "hit": false,
      "t": 75000,
      "d": 1991.6666666666715,
      "v": 110
    },
    {
      "midi": 62,
      "hit": false,
      "t": 75000,
      "d": 1991.6666666666715,
      "v": 110
    },
    {
      "midi": 66,
      "hit": false,
      "t": 75000,
      "d": 1991.6666666666715,
      "v": 110
    },
    {
      "midi": 76,
      "hit": false,
      "t": 75000,
      "d": 1991.6666666666715,
      "v": 110
    },
    {
      "midi": 59,
      "hit": false,
      "t": 77000,
      "d": 1991.666666666657,
      "v": 110
    },
    {
      "midi": 64,
      "hit": false,
      "t": 77000,
      "d": 1991.666666666657,
      "v": 110
    },
    {
      "midi": 68,
      "hit": false,
      "t": 77000,
      "d": 1991.666666666657,
      "v": 110
    },
    {
      "midi": 76,
      "hit": false,
      "t": 77008.33333333333,
      "d": 833.3333333333285,
      "v": 110
    },
    {
      "midi": 74,
      "hit": false,
      "t": 77816.66666666666,
      "d": 741.6666666666715,
      "v": 110
    },
    {
      "midi": 73,
      "hit": false,
      "t": 78516.66666666666,
      "d": 883.3333333333285,
      "v": 110
    },
    {
      "midi": 64,
      "hit": false,
      "t": 78999.99999999999,
      "d": 1833.3333333333285,
      "v": 110
    },
    {
      "midi": 68,
      "hit": false,
      "t": 78999.99999999999,
      "d": 1833.3333333333285,
      "v": 110
    },
    {
      "midi": 59,
      "hit": false,
      "t": 78999.99999999999,
      "d": 1991.666666666657,
      "v": 110
    },
    {
      "midi": 71,
      "hit": false,
      "t": 79308.33333333331,
      "d": 1416.6666666666715,
      "v": 110
    },
    {
      "midi": 57,
      "hit": false,
      "t": 80999.99999999997,
      "d": 991.6666666666715,
      "v": 110
    },
    {
      "midi": 61,
      "hit": false,
      "t": 80999.99999999997,
      "d": 991.6666666666715,
      "v": 110
    },
    {
      "midi": 64,
      "hit": false,
      "t": 80999.99999999997,
      "d": 991.6666666666715,
      "v": 110
    },
    {
      "midi": 69,
      "hit": false,
      "t": 80999.99999999997,
      "d": 991.6666666666715,
      "v": 110
    },
    {
      "midi": 59,
      "hit": false,
      "t": 81999.99999999997,
      "d": 991.6666666666715,
      "v": 110
    },
    {
      "midi": 64,
      "hit": false,
      "t": 81999.99999999997,
      "d": 991.6666666666715,
      "v": 110
    },
    {
      "midi": 67,
      "hit": false,
      "t": 81999.99999999997,
      "d": 991.6666666666715,
      "v": 110
    },
    {
      "midi": 71,
      "hit": false,
      "t": 81999.99999999997,
      "d": 991.6666666666715,
      "v": 110
    },
    {
      "midi": 69,
      "hit": false,
      "t": 82999.99999999997,
      "d": 991.6666666666715,
      "v": 110
    },
    {
      "midi": 57,
      "hit": false,
      "t": 82999.99999999997,
      "d": 1991.6666666666715,
      "v": 110
    },
    {
      "midi": 61,
      "hit": false,
      "t": 82999.99999999997,
      "d": 1991.6666666666715,
      "v": 110
    },
    {
      "midi": 64,
      "hit": false,
      "t": 82999.99999999997,
      "d": 1991.6666666666715,
      "v": 110
    },
    {
      "midi": 69,
      "hit": false,
      "t": 83999.99999999997,
      "d": 991.6666666666715,
      "v": 110
    },
    {
      "midi": 74,
      "hit": false,
      "t": 84999.99999999997,
      "d": 991.6666666666715,
      "v": 110
    },
    {
      "midi": 57,
      "hit": false,
      "t": 84999.99999999997,
      "d": 1991.6666666666715,
      "v": 110
    },
    {
      "midi": 62,
      "hit": false,
      "t": 84999.99999999997,
      "d": 1991.6666666666715,
      "v": 110
    },
    {
      "midi": 66,
      "hit": false,
      "t": 84999.99999999997,
      "d": 1991.6666666666715,
      "v": 110
    },
    {
      "midi": 74,
      "hit": false,
      "t": 86308.33333333331,
      "d": 600,
      "v": 110
    },
    {
      "midi": 74,
      "hit": false,
      "t": 86999.99999999997,
      "d": 1441.6666666666715,
      "v": 110
    },
    {
      "midi": 62,
      "hit": false,
      "t": 86999.99999999997,
      "d": 1991.6666666666715,
      "v": 110
    },
    {
      "midi": 66,
      "hit": false,
      "t": 86999.99999999997,
      "d": 1991.6666666666715,
      "v": 110
    },
    {
      "midi": 69,
      "hit": false,
      "t": 86999.99999999997,
      "d": 1991.6666666666715,
      "v": 110
    },
    {
      "midi": 62,
      "hit": false,
      "t": 88999.99999999997,
      "d": 1991.6666666666715,
      "v": 110
    },
    {
      "midi": 67,
      "hit": false,
      "t": 88999.99999999997,
      "d": 1991.6666666666715,
      "v": 110
    },
    {
      "midi": 71,
      "hit": false,
      "t": 88999.99999999997,
      "d": 1991.6666666666715,
      "v": 110
    },
    {
      "midi": 79,
      "hit": false,
      "t": 89074.99999999997,
      "d": 541.6666666666715,
      "v": 110
    },
    {
      "midi": 81,
      "hit": false,
      "t": 89516.66666666664,
      "d": 333.3333333333285,
      "v": 110
    },
    {
      "midi": 83,
      "hit": false,
      "t": 89799.99999999997,
      "d": 2616.6666666666715,
      "v": 110
    },
    {
      "midi": 62,
      "hit": false,
      "t": 90999.99999999997,
      "d": 1991.6666666666715,
      "v": 110
    },
    {
      "midi": 67,
      "hit": false,
      "t": 90999.99999999997,
      "d": 1991.6666666666715,
      "v": 110
    },
    {
      "midi": 71,
      "hit": false,
      "t": 90999.99999999997,
      "d": 1991.6666666666715,
      "v": 110
    },
    {
      "midi": 81,
      "hit": false,
      "t": 92999.99999999997,
      "d": 525,
      "v": 110
    },
    {
      "midi": 62,
      "hit": false,
      "t": 92999.99999999997,
      "d": 1991.666666666657,
      "v": 110
    },
    {
      "midi": 66,
      "hit": false,
      "t": 92999.99999999997,
      "d": 1991.666666666657,
      "v": 110
    },
    {
      "midi": 69,
      "hit": false,
      "t": 92999.99999999997,
      "d": 1991.666666666657,
      "v": 110
    },
    {
      "midi": 79,
      "hit": false,
      "t": 93499.99999999997,
      "d": 308.3333333333285,
      "v": 110
    },
    {
      "midi": 78,
      "hit": false,
      "t": 93799.99999999997,
      "d": 3074.9999999999854,
      "v": 110
    },
    {
      "midi": 62,
      "hit": false,
      "t": 94999.99999999996,
      "d": 1991.6666666666715,
      "v": 110
    },
    {
      "midi": 66,
      "hit": false,
      "t": 94999.99999999996,
      "d": 1991.6666666666715,
      "v": 110
    },
    {
      "midi": 69,
      "hit": false,
      "t": 94999.99999999996,
      "d": 1991.6666666666715,
      "v": 110
    },
    {
      "midi": 57,
      "hit": false,
      "t": 96999.99999999996,
      "d": 1991.6666666666715,
      "v": 110
    },
    {
      "midi": 61,
      "hit": false,
      "t": 96999.99999999996,
      "d": 1991.6666666666715,
      "v": 110
    },
    {
      "midi": 64,
      "hit": false,
      "t": 96999.99999999996,
      "d": 1991.6666666666715,
      "v": 110
    },
    {
      "midi": 69,
      "hit": false,
      "t": 97049.99999999996,
      "d": 841.6666666666715,
      "v": 110
    },
    {
      "midi": 73,
      "hit": false,
      "t": 97499.99999999996,
      "d": 741.6666666666715,
      "v": 110
    },
    {
      "midi": 76,
      "hit": false,
      "t": 97749.99999999996,
      "d": 2825,
      "v": 110
    },
    {
      "midi": 57,
      "hit": false,
      "t": 98999.99999999996,
      "d": 1991.6666666666715,
      "v": 110
    },
    {
      "midi": 61,
      "hit": false,
      "t": 98999.99999999996,
      "d": 1991.6666666666715,
      "v": 110
    },
    {
      "midi": 64,
      "hit": false,
      "t": 98999.99999999996,
      "d": 1991.6666666666715,
      "v": 110
    },
    {
      "midi": 62,
      "hit": false,
      "t": 100999.99999999996,
      "d": 1991.6666666666715,
      "v": 110
    },
    {
      "midi": 66,
      "hit": false,
      "t": 100999.99999999996,
      "d": 1991.6666666666715,
      "v": 110
    },
    {
      "midi": 69,
      "hit": false,
      "t": 100999.99999999996,
      "d": 1991.6666666666715,
      "v": 110
    },
    {
      "midi": 79,
      "hit": false,
      "t": 101016.66666666663,
      "d": 758.3333333333285,
      "v": 110
    },
    {
      "midi": 78,
      "hit": false,
      "t": 101741.66666666663,
      "d": 758.3333333333285,
      "v": 110
    },
    {
      "midi": 76,
      "hit": false,
      "t": 102499.99999999996,
      "d": 866.666666666657,
      "v": 110
    },
    {
      "midi": 62,
      "hit": false,
      "t": 102999.99999999996,
      "d": 1991.666666666657,
      "v": 110
    },
    {
      "midi": 66,
      "hit": false,
      "t": 102999.99999999996,
      "d": 1991.666666666657,
      "v": 110
    },
    {
      "midi": 72,
      "hit": false,
      "t": 102999.99999999996,
      "d": 1991.666666666657,
      "v": 110
    },
    {
      "midi": 74,
      "hit": false,
      "t": 103333.33333333328,
      "d": 1741.666666666657,
      "v": 110
    },
    {
      "midi": 71,
      "hit": false,
      "t": 104999.99999999994,
      "d": 991.6666666666715,
      "v": 110
    },
    {
      "midi": 55,
      "hit": false,
      "t": 104999.99999999994,
      "d": 1991.6666666666715,
      "v": 110
    },
    {
      "midi": 59,
      "hit": false,
      "t": 104999.99999999994,
      "d": 1991.6666666666715,
      "v": 110
    },
    {
      "midi": 62,
      "hit": false,
      "t": 104999.99999999994,
      "d": 1991.6666666666715,
      "v": 110
    },
    {
      "midi": 74,
      "hit": false,
      "t": 105999.99999999994,
      "d": 991.6666666666715,
      "v": 110
    },
    {
      "midi": 55,
      "hit": false,
      "t": 106999.99999999994,
      "d": 1991.6666666666715,
      "v": 110
    },
    {
      "midi": 59,
      "hit": false,
      "t": 106999.99999999994,
      "d": 1991.6666666666715,
      "v": 110
    },
    {
      "midi": 62,
      "hit": false,
      "t": 106999.99999999994,
      "d": 1991.6666666666715,
      "v": 110
    },
    {
      "midi": 79,
      "hit": false,
      "t": 106999.99999999994,
      "d": 1991.6666666666715,
      "v": 110
    },
    {
      "midi": 81,
      "hit": false,
      "t": 108999.99999999994,
      "d": 525,
      "v": 110
    },
    {
      "midi": 62,
      "hit": false,
      "t": 108999.99999999994,
      "d": 1991.666666666657,
      "v": 110
    },
    {
      "midi": 66,
      "hit": false,
      "t": 108999.99999999994,
      "d": 1991.666666666657,
      "v": 110
    },
    {
      "midi": 69,
      "hit": false,
      "t": 108999.99999999994,
      "d": 1991.666666666657,
      "v": 110
    },
    {
      "midi": 79,
      "hit": false,
      "t": 109499.99999999994,
      "d": 308.3333333333285,
      "v": 110
    },
    {
      "midi": 78,
      "hit": false,
      "t": 109799.99999999994,
      "d": 3074.9999999999854,
      "v": 110
    },
    {
      "midi": 62,
      "hit": false,
      "t": 110999.99999999993,
      "d": 1991.6666666666715,
      "v": 110
    },
    {
      "midi": 66,
      "hit": false,
      "t": 110999.99999999993,
      "d": 1991.6666666666715,
      "v": 110
    },
    {
      "midi": 69,
      "hit": false,
      "t": 110999.99999999993,
      "d": 1991.6666666666715,
      "v": 110
    },
    {
      "midi": 57,
      "hit": false,
      "t": 112999.99999999993,
      "d": 1991.6666666666715,
      "v": 110
    },
    {
      "midi": 61,
      "hit": false,
      "t": 112999.99999999993,
      "d": 1991.6666666666715,
      "v": 110
    },
    {
      "midi": 64,
      "hit": false,
      "t": 112999.99999999993,
      "d": 1991.6666666666715,
      "v": 110
    },
    {
      "midi": 69,
      "hit": false,
      "t": 113049.99999999993,
      "d": 841.6666666666715,
      "v": 110
    },
    {
      "midi": 73,
      "hit": false,
      "t": 113499.99999999993,
      "d": 741.6666666666715,
      "v": 110
    },
    {
      "midi": 76,
      "hit": false,
      "t": 113749.99999999993,
      "d": 2825,
      "v": 110
    },
    {
      "midi": 64,
      "hit": false,
      "t": 114999.99999999993,
      "d": 1991.6666666666715,
      "v": 110
    },
    {
      "midi": 69,
      "hit": false,
      "t": 114999.99999999993,
      "d": 1991.6666666666715,
      "v": 110
    },
    {
      "midi": 73,
      "hit": false,
      "t": 114999.99999999993,
      "d": 1991.6666666666715,
      "v": 110
    },
    {
      "midi": 62,
      "hit": false,
      "t": 116999.99999999993,
      "d": 1991.6666666666715,
      "v": 110
    },
    {
      "midi": 66,
      "hit": false,
      "t": 116999.99999999993,
      "d": 1991.6666666666715,
      "v": 110
    },
    {
      "midi": 69,
      "hit": false,
      "t": 116999.99999999993,
      "d": 1991.6666666666715,
      "v": 110
    },
    {
      "midi": 79,
      "hit": false,
      "t": 117016.6666666666,
      "d": 758.3333333333285,
      "v": 110
    },
    {
      "midi": 78,
      "hit": false,
      "t": 117741.6666666666,
      "d": 758.3333333333285,
      "v": 110
    },
    {
      "midi": 76,
      "hit": false,
      "t": 118499.99999999993,
      "d": 866.666666666657,
      "v": 110
    },
    {
      "midi": 62,
      "hit": false,
      "t": 118999.99999999993,
      "d": 1991.666666666657,
      "v": 110
    },
    {
      "midi": 66,
      "hit": false,
      "t": 118999.99999999993,
      "d": 1991.666666666657,
      "v": 110
    },
    {
      "midi": 69,
      "hit": false,
      "t": 118999.99999999993,
      "d": 1991.666666666657,
      "v": 110
    },
    {
      "midi": 74,
      "hit": false,
      "t": 120999.99999999991,
      "d": 75,
      "v": 110
    },
    {
      "midi": 62,
      "hit": false,
      "t": 120999.99999999991,
      "d": 1991.6666666666715,
      "v": 110
    },
    {
      "midi": 66,
      "hit": false,
      "t": 120999.99999999991,
      "d": 1991.6666666666715,
      "v": 110
    },
    {
      "midi": 69,
      "hit": false,
      "t": 120999.99999999991,
      "d": 1991.6666666666715,
      "v": 110
    },
    {
      "midi": 64,
      "hit": false,
      "t": 122999.99999999991,
      "d": 1991.666666666657,
      "v": 110
    },
    {
      "midi": 69,
      "hit": false,
      "t": 122999.99999999991,
      "d": 1991.666666666657,
      "v": 110
    },
    {
      "midi": 73,
      "hit": false,
      "t": 123058.33333333324,
      "d": 508.3333333333285,
      "v": 110
    },
    {
      "midi": 74,
      "hit": false,
      "t": 123516.66666666657,
      "d": 308.3333333333285,
      "v": 110
    },
    {
      "midi": 73,
      "hit": false,
      "t": 123791.66666666657,
      "d": 1250,
      "v": 110
    },
    {
      "midi": 59,
      "hit": false,
      "t": 124999.9999999999,
      "d": 1916.6666666666715,
      "v": 110
    },
    {
      "midi": 66,
      "hit": false,
      "t": 124999.9999999999,
      "d": 1916.6666666666715,
      "v": 110
    },
    {
      "midi": 62,
      "hit": false,
      "t": 124999.9999999999,
      "d": 1941.6666666666715,
      "v": 110
    },
    {
      "midi": 71,
      "hit": false,
      "t": 124999.9999999999,
      "d": 1991.6666666666715,
      "v": 110
    },
    {
      "midi": 62,
      "hit": false,
      "t": 126999.9999999999,
      "d": 1991.6666666666715,
      "v": 110
    },
    {
      "midi": 67,
      "hit": false,
      "t": 126999.9999999999,
      "d": 1991.6666666666715,
      "v": 110
    },
    {
      "midi": 71,
      "hit": false,
      "t": 127049.9999999999,
      "d": 500,
      "v": 110
    },
    {
      "midi": 72,
      "hit": false,
      "t": 127499.9999999999,
      "d": 316.6666666666715,
      "v": 110
    },
    {
      "midi": 71,
      "hit": false,
      "t": 127791.66666666657,
      "d": 675,
      "v": 110
    },
    {
      "midi": 62,
      "hit": false,
      "t": 128999.9999999999,
      "d": 991.6666666666715,
      "v": 110
    },
    {
      "midi": 66,
      "hit": false,
      "t": 128999.9999999999,
      "d": 991.6666666666715,
      "v": 110
    },
    {
      "midi": 69,
      "hit": false,
      "t": 128999.9999999999,
      "d": 991.6666666666715,
      "v": 110
    },
    {
      "midi": 74,
      "hit": false,
      "t": 128999.9999999999,
      "d": 1991.6666666666715,
      "v": 110
    },
    {
      "midi": 61,
      "hit": false,
      "t": 129999.9999999999,
      "d": 991.6666666666715,
      "v": 110
    },
    {
      "midi": 66,
      "hit": false,
      "t": 129999.9999999999,
      "d": 991.6666666666715,
      "v": 110
    },
    {
      "midi": 69,
      "hit": false,
      "t": 129999.9999999999,
      "d": 991.6666666666715,
      "v": 110
    },
    {
      "midi": 59,
      "hit": false,
      "t": 130999.9999999999,
      "d": 1991.6666666666715,
      "v": 110
    },
    {
      "midi": 62,
      "hit": false,
      "t": 130999.9999999999,
      "d": 1991.6666666666715,
      "v": 110
    },
    {
      "midi": 66,
      "hit": false,
      "t": 130999.9999999999,
      "d": 1991.6666666666715,
      "v": 110
    },
    {
      "midi": 71,
      "hit": false,
      "t": 130999.9999999999,
      "d": 1991.6666666666715,
      "v": 110
    },
    {
      "midi": 57,
      "hit": false,
      "t": 132999.9999999999,
      "d": 1991.666666666657,
      "v": 110
    },
    {
      "midi": 61,
      "hit": false,
      "t": 132999.9999999999,
      "d": 1991.666666666657,
      "v": 110
    },
    {
      "midi": 64,
      "hit": false,
      "t": 132999.9999999999,
      "d": 1991.666666666657,
      "v": 110
    },
    {
      "midi": 69,
      "hit": false,
      "t": 132999.9999999999,
      "d": 1991.666666666657,
      "v": 110
    },
    {
      "midi": 61,
      "hit": false,
      "t": 134999.9999999999,
      "d": 1991.6666666667152,
      "v": 110
    },
    {
      "midi": 64,
      "hit": false,
      "t": 134999.9999999999,
      "d": 1991.6666666667152,
      "v": 110
    },
    {
      "midi": 69,
      "hit": false,
      "t": 134999.9999999999,
      "d": 1991.6666666667152,
      "v": 110
    },
    {
      "midi": 76,
      "hit": false,
      "t": 135049.9999999999,
      "d": 733.333333333343,
      "v": 110
    },
    {
      "midi": 74,
      "hit": false,
      "t": 135749.9999999999,
      "d": 566.6666666666861,
      "v": 110
    },
    {
      "midi": 74,
      "hit": false,
      "t": 136516.6666666666,
      "d": 133.33333333334303,
      "v": 110
    },
    {
      "midi": 76,
      "hit": false,
      "t": 136733.33333333328,
      "d": 183.33333333334303,
      "v": 110
    },
    {
      "midi": 62,
      "hit": false,
      "t": 136999.99999999997,
      "d": 1991.666666666657,
      "v": 110
    },
    {
      "midi": 66,
      "hit": false,
      "t": 136999.99999999997,
      "d": 1991.666666666657,
      "v": 110
    },
    {
      "midi": 69,
      "hit": false,
      "t": 136999.99999999997,
      "d": 1991.666666666657,
      "v": 110
    },
    {
      "midi": 78,
      "hit": false,
      "t": 136999.99999999997,
      "d": 1991.666666666657,
      "v": 110
    },
    {
      "midi": 64,
      "hit": false,
      "t": 138999.99999999997,
      "d": 1991.666666666686,
      "v": 110
    },
    {
      "midi": 69,
      "hit": false,
      "t": 138999.99999999997,
      "d": 1991.666666666686,
      "v": 110
    },
    {
      "midi": 73,
      "hit": false,
      "t": 139058.3333333333,
      "d": 508.33333333334303,
      "v": 110
    },
    {
      "midi": 74,
      "hit": false,
      "t": 139516.66666666666,
      "d": 308.33333333334303,
      "v": 110
    },
    {
      "midi": 73,
      "hit": false,
      "t": 139791.66666666666,
      "d": 1250,
      "v": 110
    },
    {
      "midi": 59,
      "hit": false,
      "t": 141000,
      "d": 1916.666666666657,
      "v": 110
    },
    {
      "midi": 66,
      "hit": false,
      "t": 141000,
      "d": 1916.666666666657,
      "v": 110
    },
    {
      "midi": 62,
      "hit": false,
      "t": 141000,
      "d": 1941.666666666657,
      "v": 110
    },
    {
      "midi": 71,
      "hit": false,
      "t": 141000,
      "d": 1991.666666666657,
      "v": 110
    },
    {
      "midi": 62,
      "hit": false,
      "t": 143000,
      "d": 1991.666666666657,
      "v": 110
    },
    {
      "midi": 67,
      "hit": false,
      "t": 143000,
      "d": 1991.666666666657,
      "v": 110
    },
    {
      "midi": 71,
      "hit": false,
      "t": 143050,
      "d": 500,
      "v": 110
    },
    {
      "midi": 72,
      "hit": false,
      "t": 143500,
      "d": 316.66666666665697,
      "v": 110
    },
    {
      "midi": 71,
      "hit": false,
      "t": 143791.66666666666,
      "d": 675,
      "v": 110
    },
    {
      "midi": 62,
      "hit": false,
      "t": 145000,
      "d": 991.666666666657,
      "v": 110
    },
    {
      "midi": 66,
      "hit": false,
      "t": 145000,
      "d": 991.666666666657,
      "v": 110
    },
    {
      "midi": 69,
      "hit": false,
      "t": 145000,
      "d": 991.666666666657,
      "v": 110
    },
    {
      "midi": 74,
      "hit": false,
      "t": 145000,
      "d": 1991.666666666657,
      "v": 110
    },
    {
      "midi": 61,
      "hit": false,
      "t": 146000,
      "d": 991.666666666657,
      "v": 110
    },
    {
      "midi": 66,
      "hit": false,
      "t": 146000,
      "d": 991.666666666657,
      "v": 110
    },
    {
      "midi": 69,
      "hit": false,
      "t": 146000,
      "d": 991.666666666657,
      "v": 110
    },
    {
      "midi": 59,
      "hit": false,
      "t": 147000,
      "d": 1991.666666666657,
      "v": 110
    },
    {
      "midi": 62,
      "hit": false,
      "t": 147000,
      "d": 1991.666666666657,
      "v": 110
    },
    {
      "midi": 66,
      "hit": false,
      "t": 147000,
      "d": 1991.666666666657,
      "v": 110
    },
    {
      "midi": 71,
      "hit": false,
      "t": 147000,
      "d": 1991.666666666657,
      "v": 110
    },
    {
      "midi": 57,
      "hit": false,
      "t": 149000,
      "d": 1991.666666666657,
      "v": 110
    },
    {
      "midi": 61,
      "hit": false,
      "t": 149000,
      "d": 1991.666666666657,
      "v": 110
    },
    {
      "midi": 64,
      "hit": false,
      "t": 149000,
      "d": 1991.666666666657,
      "v": 110
    },
    {
      "midi": 69,
      "hit": false,
      "t": 149000,
      "d": 1991.666666666657,
      "v": 110
    },
    {
      "midi": 61,
      "hit": false,
      "t": 151000,
      "d": 1991.666666666686,
      "v": 110
    },
    {
      "midi": 64,
      "hit": false,
      "t": 151000,
      "d": 1991.666666666686,
      "v": 110
    },
    {
      "midi": 69,
      "hit": false,
      "t": 151000,
      "d": 1991.666666666686,
      "v": 110
    },
    {
      "midi": 76,
      "hit": false,
      "t": 151050,
      "d": 733.333333333343,
      "v": 110
    },
    {
      "midi": 74,
      "hit": false,
      "t": 151750,
      "d": 566.6666666666861,
      "v": 110
    },
    {
      "midi": 73,
      "hit": false,
      "t": 152291.6666666667,
      "d": 1200,
      "v": 110
    },
    {
      "midi": 59,
      "hit": false,
      "t": 153000.00000000003,
      "d": 1916.666666666657,
      "v": 110
    },
    {
      "midi": 66,
      "hit": false,
      "t": 153000.00000000003,
      "d": 1916.666666666657,
      "v": 110
    },
    {
      "midi": 62,
      "hit": false,
      "t": 153000.00000000003,
      "d": 1941.666666666657,
      "v": 110
    },
    {
      "midi": 57,
      "hit": false,
      "t": 155000.00000000003,
      "d": 1991.666666666657,
      "v": 110
    },
    {
      "midi": 62,
      "hit": false,
      "t": 155000.00000000003,
      "d": 1991.666666666657,
      "v": 110
    },
    {
      "midi": 66,
      "hit": false,
      "t": 155000.00000000003,
      "d": 1991.666666666657,
      "v": 110
    },
    {
      "midi": 76,
      "hit": false,
      "t": 155000.00000000003,
      "d": 1991.666666666657,
      "v": 110
    },
    {
      "midi": 59,
      "hit": false,
      "t": 157000.00000000003,
      "d": 1991.666666666686,
      "v": 110
    },
    {
      "midi": 64,
      "hit": false,
      "t": 157000.00000000003,
      "d": 1991.666666666686,
      "v": 110
    },
    {
      "midi": 68,
      "hit": false,
      "t": 157000.00000000003,
      "d": 1991.666666666686,
      "v": 110
    },
    {
      "midi": 76,
      "hit": false,
      "t": 157008.33333333337,
      "d": 833.333333333343,
      "v": 110
    },
    {
      "midi": 74,
      "hit": false,
      "t": 157816.66666666672,
      "d": 741.666666666657,
      "v": 110
    },
    {
      "midi": 73,
      "hit": false,
      "t": 158516.66666666672,
      "d": 883.333333333343,
      "v": 110
    },
    {
      "midi": 64,
      "hit": false,
      "t": 159000.00000000006,
      "d": 1833.333333333343,
      "v": 110
    },
    {
      "midi": 68,
      "hit": false,
      "t": 159000.00000000006,
      "d": 1833.333333333343,
      "v": 110
    },
    {
      "midi": 59,
      "hit": false,
      "t": 159000.00000000006,
      "d": 1991.666666666686,
      "v": 110
    },
    {
      "midi": 71,
      "hit": false,
      "t": 159308.3333333334,
      "d": 1416.666666666657,
      "v": 110
    },
    {
      "midi": 57,
      "hit": false,
      "t": 161000.0000000001,
      "d": 991.666666666657,
      "v": 110
    },
    {
      "midi": 61,
      "hit": false,
      "t": 161000.0000000001,
      "d": 991.666666666657,
      "v": 110
    },
    {
      "midi": 64,
      "hit": false,
      "t": 161000.0000000001,
      "d": 991.666666666657,
      "v": 110
    },
    {
      "midi": 69,
      "hit": false,
      "t": 161000.0000000001,
      "d": 991.666666666657,
      "v": 110
    },
    {
      "midi": 59,
      "hit": false,
      "t": 162000.0000000001,
      "d": 991.666666666657,
      "v": 110
    },
    {
      "midi": 64,
      "hit": false,
      "t": 162000.0000000001,
      "d": 991.666666666657,
      "v": 110
    },
    {
      "midi": 67,
      "hit": false,
      "t": 162000.0000000001,
      "d": 991.666666666657,
      "v": 110
    },
    {
      "midi": 71,
      "hit": false,
      "t": 162000.0000000001,
      "d": 991.666666666657,
      "v": 110
    },
    {
      "midi": 69,
      "hit": false,
      "t": 163000.0000000001,
      "d": 991.666666666657,
      "v": 110
    },
    {
      "midi": 57,
      "hit": false,
      "t": 163000.0000000001,
      "d": 1991.666666666657,
      "v": 110
    },
    {
      "midi": 61,
      "hit": false,
      "t": 163000.0000000001,
      "d": 1991.666666666657,
      "v": 110
    },
    {
      "midi": 64,
      "hit": false,
      "t": 163000.0000000001,
      "d": 1991.666666666657,
      "v": 110
    },
    {
      "midi": 69,
      "hit": false,
      "t": 164000.0000000001,
      "d": 991.666666666657,
      "v": 110
    },
    {
      "midi": 74,
      "hit": false,
      "t": 165000.0000000001,
      "d": 991.666666666657,
      "v": 110
    },
    {
      "midi": 57,
      "hit": false,
      "t": 165000.0000000001,
      "d": 1991.666666666657,
      "v": 110
    },
    {
      "midi": 62,
      "hit": false,
      "t": 165000.0000000001,
      "d": 1991.666666666657,
      "v": 110
    },
    {
      "midi": 66,
      "hit": false,
      "t": 165000.0000000001,
      "d": 1991.666666666657,
      "v": 110
    },
    {
      "midi": 74,
      "hit": false,
      "t": 166308.3333333334,
      "d": 600,
      "v": 110
    },
    {
      "midi": 74,
      "hit": false,
      "t": 167000.0000000001,
      "d": 1441.666666666657,
      "v": 110
    },
    {
      "midi": 62,
      "hit": false,
      "t": 167000.0000000001,
      "d": 1991.666666666657,
      "v": 110
    },
    {
      "midi": 66,
      "hit": false,
      "t": 167000.0000000001,
      "d": 1991.666666666657,
      "v": 110
    },
    {
      "midi": 69,
      "hit": false,
      "t": 167000.0000000001,
      "d": 1991.666666666657,
      "v": 110
    },
    {
      "midi": 62,
      "hit": false,
      "t": 169000.0000000001,
      "d": 1991.666666666657,
      "v": 110
    },
    {
      "midi": 67,
      "hit": false,
      "t": 169000.0000000001,
      "d": 1991.666666666657,
      "v": 110
    },
    {
      "midi": 71,
      "hit": false,
      "t": 169000.0000000001,
      "d": 1991.666666666657,
      "v": 110
    },
    {
      "midi": 79,
      "hit": false,
      "t": 169075.0000000001,
      "d": 541.666666666657,
      "v": 110
    },
    {
      "midi": 81,
      "hit": false,
      "t": 169516.66666666674,
      "d": 333.33333333334303,
      "v": 110
    },
    {
      "midi": 83,
      "hit": false,
      "t": 169800.0000000001,
      "d": 2616.666666666657,
      "v": 110
    },
    {
      "midi": 62,
      "hit": false,
      "t": 171000.0000000001,
      "d": 1991.666666666657,
      "v": 110
    },
    {
      "midi": 67,
      "hit": false,
      "t": 171000.0000000001,
      "d": 1991.666666666657,
      "v": 110
    },
    {
      "midi": 71,
      "hit": false,
      "t": 171000.0000000001,
      "d": 1991.666666666657,
      "v": 110
    },
    {
      "midi": 81,
      "hit": false,
      "t": 173000.0000000001,
      "d": 525,
      "v": 110
    },
    {
      "midi": 62,
      "hit": false,
      "t": 173000.0000000001,
      "d": 1991.666666666686,
      "v": 110
    },
    {
      "midi": 66,
      "hit": false,
      "t": 173000.0000000001,
      "d": 1991.666666666686,
      "v": 110
    },
    {
      "midi": 69,
      "hit": false,
      "t": 173000.0000000001,
      "d": 1991.666666666686,
      "v": 110
    },
    {
      "midi": 79,
      "hit": false,
      "t": 173500.0000000001,
      "d": 308.33333333334303,
      "v": 110
    },
    {
      "midi": 78,
      "hit": false,
      "t": 173800.0000000001,
      "d": 3075.000000000029,
      "v": 110
    },
    {
      "midi": 62,
      "hit": false,
      "t": 175000.00000000012,
      "d": 1991.666666666657,
      "v": 110
    },
    {
      "midi": 66,
      "hit": false,
      "t": 175000.00000000012,
      "d": 1991.666666666657,
      "v": 110
    },
    {
      "midi": 69,
      "hit": false,
      "t": 175000.00000000012,
      "d": 1991.666666666657,
      "v": 110
    },
    {
      "midi": 57,
      "hit": false,
      "t": 177000.00000000012,
      "d": 1991.666666666657,
      "v": 110
    },
    {
      "midi": 61,
      "hit": false,
      "t": 177000.00000000012,
      "d": 1991.666666666657,
      "v": 110
    },
    {
      "midi": 64,
      "hit": false,
      "t": 177000.00000000012,
      "d": 1991.666666666657,
      "v": 110
    },
    {
      "midi": 69,
      "hit": false,
      "t": 177050.00000000012,
      "d": 841.666666666657,
      "v": 110
    },
    {
      "midi": 73,
      "hit": false,
      "t": 177500.00000000012,
      "d": 741.666666666657,
      "v": 110
    },
    {
      "midi": 76,
      "hit": false,
      "t": 177750.00000000012,
      "d": 2825,
      "v": 110
    },
    {
      "midi": 57,
      "hit": false,
      "t": 179000.00000000012,
      "d": 1991.666666666657,
      "v": 110
    },
    {
      "midi": 61,
      "hit": false,
      "t": 179000.00000000012,
      "d": 1991.666666666657,
      "v": 110
    },
    {
      "midi": 64,
      "hit": false,
      "t": 179000.00000000012,
      "d": 1991.666666666657,
      "v": 110
    },
    {
      "midi": 62,
      "hit": false,
      "t": 181000.00000000012,
      "d": 1991.666666666657,
      "v": 110
    },
    {
      "midi": 66,
      "hit": false,
      "t": 181000.00000000012,
      "d": 1991.666666666657,
      "v": 110
    },
    {
      "midi": 69,
      "hit": false,
      "t": 181000.00000000012,
      "d": 1991.666666666657,
      "v": 110
    },
    {
      "midi": 79,
      "hit": false,
      "t": 181016.66666666677,
      "d": 758.333333333343,
      "v": 110
    },
    {
      "midi": 78,
      "hit": false,
      "t": 181741.66666666677,
      "d": 758.333333333343,
      "v": 110
    },
    {
      "midi": 76,
      "hit": false,
      "t": 182500.00000000012,
      "d": 866.6666666666861,
      "v": 110
    },
    {
      "midi": 62,
      "hit": false,
      "t": 183000.00000000012,
      "d": 1991.666666666686,
      "v": 110
    },
    {
      "midi": 66,
      "hit": false,
      "t": 183000.00000000012,
      "d": 1991.666666666686,
      "v": 110
    },
    {
      "midi": 72,
      "hit": false,
      "t": 183000.00000000012,
      "d": 1991.666666666686,
      "v": 110
    },
    {
      "midi": 74,
      "hit": false,
      "t": 183333.33333333346,
      "d": 1741.666666666686,
      "v": 110
    },
    {
      "midi": 71,
      "hit": false,
      "t": 185000.00000000015,
      "d": 991.666666666657,
      "v": 110
    },
    {
      "midi": 55,
      "hit": false,
      "t": 185000.00000000015,
      "d": 1991.666666666657,
      "v": 110
    },
    {
      "midi": 59,
      "hit": false,
      "t": 185000.00000000015,
      "d": 1991.666666666657,
      "v": 110
    },
    {
      "midi": 62,
      "hit": false,
      "t": 185000.00000000015,
      "d": 1991.666666666657,
      "v": 110
    },
    {
      "midi": 74,
      "hit": false,
      "t": 186000.00000000015,
      "d": 991.666666666657,
      "v": 110
    },
    {
      "midi": 55,
      "hit": false,
      "t": 187000.00000000015,
      "d": 1991.666666666657,
      "v": 110
    },
    {
      "midi": 59,
      "hit": false,
      "t": 187000.00000000015,
      "d": 1991.666666666657,
      "v": 110
    },
    {
      "midi": 62,
      "hit": false,
      "t": 187000.00000000015,
      "d": 1991.666666666657,
      "v": 110
    },
    {
      "midi": 79,
      "hit": false,
      "t": 187000.00000000015,
      "d": 1991.666666666657,
      "v": 110
    },
    {
      "midi": 81,
      "hit": false,
      "t": 189000.00000000015,
      "d": 525,
      "v": 110
    },
    {
      "midi": 62,
      "hit": false,
      "t": 189000.00000000015,
      "d": 1991.666666666686,
      "v": 110
    },
    {
      "midi": 66,
      "hit": false,
      "t": 189000.00000000015,
      "d": 1991.666666666686,
      "v": 110
    },
    {
      "midi": 69,
      "hit": false,
      "t": 189000.00000000015,
      "d": 1991.666666666686,
      "v": 110
    },
    {
      "midi": 79,
      "hit": false,
      "t": 189500.00000000015,
      "d": 308.33333333334303,
      "v": 110
    },
    {
      "midi": 78,
      "hit": false,
      "t": 189800.00000000015,
      "d": 3075.000000000029,
      "v": 110
    },
    {
      "midi": 62,
      "hit": false,
      "t": 191000.00000000017,
      "d": 1991.666666666657,
      "v": 110
    },
    {
      "midi": 66,
      "hit": false,
      "t": 191000.00000000017,
      "d": 1991.666666666657,
      "v": 110
    },
    {
      "midi": 69,
      "hit": false,
      "t": 191000.00000000017,
      "d": 1991.666666666657,
      "v": 110
    },
    {
      "midi": 57,
      "hit": false,
      "t": 193000.00000000017,
      "d": 1991.666666666657,
      "v": 110
    },
    {
      "midi": 61,
      "hit": false,
      "t": 193000.00000000017,
      "d": 1991.666666666657,
      "v": 110
    },
    {
      "midi": 64,
      "hit": false,
      "t": 193000.00000000017,
      "d": 1991.666666666657,
      "v": 110
    },
    {
      "midi": 69,
      "hit": false,
      "t": 193050.00000000017,
      "d": 841.666666666657,
      "v": 110
    },
    {
      "midi": 73,
      "hit": false,
      "t": 193500.00000000017,
      "d": 741.666666666657,
      "v": 110
    },
    {
      "midi": 76,
      "hit": false,
      "t": 193750.00000000017,
      "d": 2825,
      "v": 110
    },
    {
      "midi": 64,
      "hit": false,
      "t": 195000.00000000017,
      "d": 1991.666666666657,
      "v": 110
    },
    {
      "midi": 69,
      "hit": false,
      "t": 195000.00000000017,
      "d": 1991.666666666657,
      "v": 110
    },
    {
      "midi": 73,
      "hit": false,
      "t": 195000.00000000017,
      "d": 1991.666666666657,
      "v": 110
    },
    {
      "midi": 62,
      "hit": false,
      "t": 197000.00000000017,
      "d": 1991.666666666657,
      "v": 110
    },
    {
      "midi": 66,
      "hit": false,
      "t": 197000.00000000017,
      "d": 1991.666666666657,
      "v": 110
    },
    {
      "midi": 69,
      "hit": false,
      "t": 197000.00000000017,
      "d": 1991.666666666657,
      "v": 110
    },
    {
      "midi": 79,
      "hit": false,
      "t": 197016.66666666683,
      "d": 758.333333333343,
      "v": 110
    },
    {
      "midi": 78,
      "hit": false,
      "t": 197741.66666666683,
      "d": 758.333333333343,
      "v": 110
    },
    {
      "midi": 76,
      "hit": false,
      "t": 198500.00000000017,
      "d": 866.6666666666861,
      "v": 110
    },
    {
      "midi": 62,
      "hit": false,
      "t": 199000.00000000017,
      "d": 1991.666666666686,
      "v": 110
    },
    {
      "midi": 66,
      "hit": false,
      "t": 199000.00000000017,
      "d": 1991.666666666686,
      "v": 110
    },
    {
      "midi": 69,
      "hit": false,
      "t": 199000.00000000017,
      "d": 1991.666666666686,
      "v": 110
    },
    {
      "midi": 74,
      "hit": false,
      "t": 201000.0000000002,
      "d": 75,
      "v": 110
    },
    {
      "midi": 62,
      "hit": false,
      "t": 201000.0000000002,
      "d": 1991.666666666657,
      "v": 110
    },
    {
      "midi": 66,
      "hit": false,
      "t": 201000.0000000002,
      "d": 1991.666666666657,
      "v": 110
    },
    {
      "midi": 69,
      "hit": false,
      "t": 201000.0000000002,
      "d": 1991.666666666657,
      "v": 110
    },
    {
      "midi": 64,
      "hit": false,
      "t": 203000.0000000002,
      "d": 1991.666666666686,
      "v": 110
    },
    {
      "midi": 69,
      "hit": false,
      "t": 203000.0000000002,
      "d": 1991.666666666686,
      "v": 110
    },
    {
      "midi": 73,
      "hit": false,
      "t": 203058.33333333355,
      "d": 508.33333333334303,
      "v": 110
    },
    {
      "midi": 74,
      "hit": false,
      "t": 203516.6666666669,
      "d": 308.33333333334303,
      "v": 110
    },
    {
      "midi": 73,
      "hit": false,
      "t": 203791.6666666669,
      "d": 1250,
      "v": 110
    },
    {
      "midi": 59,
      "hit": false,
      "t": 205000.00000000023,
      "d": 1916.666666666657,
      "v": 110
    },
    {
      "midi": 66,
      "hit": false,
      "t": 205000.00000000023,
      "d": 1916.666666666657,
      "v": 110
    },
    {
      "midi": 62,
      "hit": false,
      "t": 205000.00000000023,
      "d": 1941.666666666657,
      "v": 110
    },
    {
      "midi": 71,
      "hit": false,
      "t": 205000.00000000023,
      "d": 1991.666666666657,
      "v": 110
    },
    {
      "midi": 62,
      "hit": false,
      "t": 207000.00000000023,
      "d": 1991.666666666657,
      "v": 110
    },
    {
      "midi": 67,
      "hit": false,
      "t": 207000.00000000023,
      "d": 1991.666666666657,
      "v": 110
    },
    {
      "midi": 71,
      "hit": false,
      "t": 207050.00000000023,
      "d": 500,
      "v": 110
    },
    {
      "midi": 72,
      "hit": false,
      "t": 207500.00000000023,
      "d": 316.66666666665697,
      "v": 110
    },
    {
      "midi": 71,
      "hit": false,
      "t": 207791.6666666669,
      "d": 675,
      "v": 110
    },
    {
      "midi": 62,
      "hit": false,
      "t": 209000.00000000023,
      "d": 991.666666666657,
      "v": 110
    },
    {
      "midi": 66,
      "hit": false,
      "t": 209000.00000000023,
      "d": 991.666666666657,
      "v": 110
    },
    {
      "midi": 69,
      "hit": false,
      "t": 209000.00000000023,
      "d": 991.666666666657,
      "v": 110
    },
    {
      "midi": 74,
      "hit": false,
      "t": 209000.00000000023,
      "d": 1991.666666666657,
      "v": 110
    },
    {
      "midi": 61,
      "hit": false,
      "t": 210000.00000000023,
      "d": 991.666666666657,
      "v": 110
    },
    {
      "midi": 66,
      "hit": false,
      "t": 210000.00000000023,
      "d": 991.666666666657,
      "v": 110
    },
    {
      "midi": 69,
      "hit": false,
      "t": 210000.00000000023,
      "d": 991.666666666657,
      "v": 110
    },
    {
      "midi": 59,
      "hit": false,
      "t": 211000.00000000023,
      "d": 1991.666666666657,
      "v": 110
    },
    {
      "midi": 62,
      "hit": false,
      "t": 211000.00000000023,
      "d": 1991.666666666657,
      "v": 110
    },
    {
      "midi": 66,
      "hit": false,
      "t": 211000.00000000023,
      "d": 1991.666666666657,
      "v": 110
    },
    {
      "midi": 71,
      "hit": false,
      "t": 211000.00000000023,
      "d": 1991.666666666657,
      "v": 110
    },
    {
      "midi": 57,
      "hit": false,
      "t": 213000.00000000023,
      "d": 1991.666666666657,
      "v": 110
    },
    {
      "midi": 61,
      "hit": false,
      "t": 213000.00000000023,
      "d": 1991.666666666657,
      "v": 110
    },
    {
      "midi": 64,
      "hit": false,
      "t": 213000.00000000023,
      "d": 1991.666666666657,
      "v": 110
    },
    {
      "midi": 69,
      "hit": false,
      "t": 213000.00000000023,
      "d": 1991.666666666657,
      "v": 110
    },
    {
      "midi": 61,
      "hit": false,
      "t": 215000.00000000023,
      "d": 1991.6666666667152,
      "v": 110
    },
    {
      "midi": 64,
      "hit": false,
      "t": 215000.00000000023,
      "d": 1991.6666666667152,
      "v": 110
    },
    {
      "midi": 69,
      "hit": false,
      "t": 215000.00000000023,
      "d": 1991.6666666667152,
      "v": 110
    },
    {
      "midi": 76,
      "hit": false,
      "t": 215050.00000000023,
      "d": 733.333333333343,
      "v": 110
    },
    {
      "midi": 74,
      "hit": false,
      "t": 215750.00000000023,
      "d": 566.6666666666861,
      "v": 110
    },
    {
      "midi": 74,
      "hit": false,
      "t": 216516.66666666692,
      "d": 133.33333333334303,
      "v": 110
    },
    {
      "midi": 73,
      "hit": false,
      "t": 216733.3333333336,
      "d": 183.33333333334303,
      "v": 110
    },
    {
      "midi": 50,
      "hit": false,
      "t": 217000.0000000003,
      "d": 3991.666666666657,
      "v": 110
    },
    {
      "midi": 57,
      "hit": false,
      "t": 217000.0000000003,
      "d": 3991.666666666657,
      "v": 110
    },
    {
      "midi": 62,
      "hit": false,
      "t": 217000.0000000003,
      "d": 3991.666666666657,
      "v": 110
    },
    {
      "midi": 74,
      "hit": false,
      "t": 217000.0000000003,
      "d": 3991.666666666657,
      "v": 110
    }
  ]
}